<?xml version="1.0"?>
<svg xmlns="http://www.w3.org/2000/svg" id="Layer_1" data-name="Layer 1" viewBox="0 0 480.94 528.13" width="481" height="528"><path d="M224.5,212.32c-6.88,7.84-10,17.52-12.8,27.2-4.56,18.24-3,36.48,2.88,54.4,7.2,22.11,45.84,88.56,53.76,101.36,5.44,12.24,13.68,24.08,12.8,38.16-1.92,17.92-.54,38.1-14.3,51.38-1.9,2-5.94,5.82-7.94,9.34.48.4,1,1.2,1.52,1.36,1.2-1,4.08-4.78,5.2-4.78,3.68,2.08,8.72,2.14,12.64,1.26,0,0,1.08-3.8-2.24-1.68-2.88,1.36-6.4-.4-9-1.76l6.16-6.72c5.68-1.12,2.24-8.16,5.92-11.12,2.72-.48,1.12-3.84,2.08-5.6.4-2.4,2.32-4.4,2.32-6.72,2.64-4.16,8.88-3.2,13.28-3,3.36-3.44,9.28-1.68,13.2-.8,2.5-2.66,7.68-1.28,9.84-1.68-.08-.4-7.54-2.18-10.1-.52-3.24-.06-9.9-3.8-14.14,1.88-2.72-.88-8.3-1.74-12.24,1.12a11.91,11.91,0,0,1,.4-5.76c2.4-3.44-1.28-8,1.28-11.52-3.84-6.4,2-12.56-1.28-19.2-.48-9.92-1.44-19.6-2.72-29.2l.8.56c.56-4.72-1.76-8.56-1.76-12.8.56.16.56,1.36,1.36,1.12.4-1.2-.08-2.4,0-3.68a162.66,162.66,0,0,1-3.28-20.16,37,37,0,0,1,2.32,4.24c-.16-6.32-2.64-13.44-3.12-20.56.08-.8.88-1,1.6-.72a10.32,10.32,0,0,0,0-3.84c-.8-4.64-1.6-9.28-2.16-13.84a1.4,1.4,0,0,1,1.36-1.36l-1-17.48a4.38,4.38,0,0,0,1.12,1c.8-4.4-.64-8.32-.16-12.88a3.83,3.83,0,0,1,1.76,1.76c1.84-4.08,1.76-8.16,3.2-12.32,2.08-9.68,6.4-19,10.4-28l.4.32C290,262.8,284.18,273.92,284,287c-.8,7.84-1.6,16.64-.72,25,1.52,42.32,2.72,83.84,12.24,123.12,3,.26,8.1,1.36,10.56,5,2.94-5.3,10-6.72,10-6.72-3.12-16.64-5.12-35.2-4.24-52.8.32-16.64-1-34.48,2.72-50.72.64-7.52,2.4-14.8,3.68-21.84,4.56-20.4,15-38.64,25.28-56.48,0,0-9.2,18.72-12.8,28.64.08.64,1.12.88.72,1.68a134,134,0,0,0-9.2,21.52c.4-.16.64.24,1,.4-.16,5.92-3.12,11-5,16.72-.32,1.36-.4,2.56.72,3.44.8,7.36-1.92,14-4.24,20.16-1.12,2.56,2.08,2.16,1.76,4.64-.24,10.56-1.12,19.68-.8,30.32.56.16.88-.32,1.2-.56l.56.56c2.08,9.92.8,19.12,1.12,29.76l1,.16c.56,8.32,3.36,15.6,5,23.44-.56,2.64,1.68,4.64,1.68,7.28.08.88,1.52.64,1,1.76,1.36-1,.4-3.84,1.76-5,.4,3.84,2.56,8.32.4,11.76a13.67,13.67,0,0,1,2.48,5.36c-.72,6.56,3.76,13.44,1.36,19.76a19.85,19.85,0,0,1,1,9.2c-1.64-.4-7.36,1.36-8.08,3.12,0,0-8.36-3.32-11.36,1.12,0,0,7.1-2.84,11.92.4,1.92-1.92,4.64-3,7.28-1.92a72,72,0,0,1-2.24,11.12,9.84,9.84,0,0,1-.8,3.44c-.16,1.28-1.28,2.72-.56,3.84,2.72-2.08,5.6-1,8.64-.16,1.76.16,3.28,2.08,5,1.36,2.48-16.8-7-29.12-8.24-44.56-.8-2.88-1.52-6-2.32-8.64-2.32-10.72-5.76-24.08,0-34.4,12.16-29.52,30.8-57.92,29.36-92.16-.8-22.72-3.36-47-18.24-64.48,0,0-2.4,3.2-2.48,4.8,8.08,8.48,9.44,20.08,12.72,30.72,4.08,14.64,3.52,30.48,1.92,45.28-6.8,30-23.6,55.92-31,85.68-1.84-6.32-2.48-13.84-4.24-20.16l-1.12-1.52c-.32-6.32-.16-12.8-.16-18.48-1.2-3.68.16-8.08-2.72-10.56a201.43,201.43,0,0,1,.4-29.52l-.8-1.6c.8-8,5.84-16.08,2.32-24,3.76-5.84,6.32-13.2,4.8-20.72,3.28-6.88,9-12.72,8.8-20.56,6.48-18.88,16.88-36.4,28.64-52.8,0,0-13.88,3-31.84,40.16l-1.6.16-9.2,20c-1.52,3.84-2.24,8.08-3.84,11.92a1.58,1.58,0,0,0-1.68.72c-3,10.32-2.8,20.48-4.8,31.12a4.15,4.15,0,0,0-1.6,3.12c-.16,4.56-1.12,9.36-1.28,14.16-.8,5.68,1.84,11.6-1.6,16.72l.24,19.76c.16,3.36.56,6.64-.4,9.84-.32-.32-.72-1-1.12-.4l-.4,19.36s-1.92-5-1.92-8.08c-.56-3.52-.48-7-1.52-10.56-.64.16-.64.8-1,1.2-.8-4.32-1-9.36-1.36-14a1.63,1.63,0,0,0-1.92-1l-.24-8.48c-.24-3.76,1-8.24-2.48-9.76l-1-19c.2-5.6-1.5-3.7-2.08-2.88a79.37,79.37,0,0,0,1.12-11.92c-.32-2,1-5-1.36-6.48a63.18,63.18,0,0,0,.64-10.4l-1-.4c-.56-5.12.08-10.24.16-15.36,2.08-10.08,1.2-21.2,4.4-31.12,1.2-2.32,1-5.84,3.68-7,1.28-3.76,3.36-7.6,3.6-11.92.8-2.24.8-5,1.6-7,0,0,.72,1,1,.8a29.35,29.35,0,0,1,3-8.24l.8.4c1.28-2,1.36-4.48,2.08-6.72.64-1.12,1.2-3.12,2.88-2.32a31.26,31.26,0,0,1,6.88-17.52c-1.2.72-2.72.88-3.84,1.92-18.24,23.6-30.48,49.92-35.68,78.72-.48.24-1.92-1-2.48-.44-.08,3.52.8,9.24.72,12.76-.32-.16-.88-.66-1.12-.74-2,5.12.8,12.18.56,18,0,0-1.36.48-1.36,1-.72,5.84,2,11.52,2.16,17.28,0,0-2,.56-2.16,1.12.16,4.88,2,10,2.16,14.64a5.44,5.44,0,0,1-1.2.06c-.8.32,1.28,13.22,2.56,18.74.32,1,.32,2.56-1.2,2.48-.56,3.84.88,7.28,1.76,10.8,1.36,2.32-1.28,1.84-1.52,3.84,0,2.88,1.44,5.68,1,8.4A59.82,59.82,0,0,1,280.42,407c-3-8.56-7.68-16.56-11.76-24.56-8.4-13.52-15.92-27.28-24.56-40.72-8-16.32-18.08-31.68-23.76-49-6.48-18.88-7-41.84.32-60.48,4.08-9,8.32-18.56,16-25.36,10.88-11,24.16-17,37.6-22.24,27-12.32,57.84-16.48,86.8-23,9.12-1.36,18.32-3,27.6-1.52,4.28,1.32,7.76,4.89,11.76,8.24,16.12,13.48,27.2,34.48,49,32.64,4-.76,7.92-1.76,10.16-5-1.2-2-3.8.2-7.52,1.92-11.2,3.52-20.72-4.32-28.8-11.36-13.52-10.56-24-31.12-43-30.72,6.08-3.36,11.68-7.76,17.44-11.68,9.12-9,34-28.16,53.76-24-1.52-4.56-9.12-4.76-28,2.08C406.18,129.68,395.06,147,377,152.4c-22.56,9.6-47.18,11.74-71,17.28C251.14,182.4,228.58,207.28,224.5,212.32ZM342.42,490.08c-1.28-.64-2.32-2-3.84-2.08C339.22,486.8,342.54,487.55,342.42,490.08Zm-7.12,3.84a5.34,5.34,0,0,1,3.28,1.92,15,15,0,0,0-5-.56A1.38,1.38,0,0,1,335.3,493.92Z" transform="translate(-27.11 -116.9)"/><path d="M433.62,123.6c-13.71,5.82-25.52,15.2-37.28,24.72-2.4,1.68-5.76,2.8-7.44,4.8,13.84-.32,37.84-30.32,58.32-29,2.87.19,5.92,1,7.92-.16C455.14,124,446.34,118.2,433.62,123.6Z" transform="translate(-27.11 -116.9)"/><path d="M439.58,127.16c-11.76,3-23.64,14.44-33.8,20.84a30.43,30.43,0,0,1-8.08,4c.24,1.8,7.12,0,9.84-1.76,15.68-9.44,30.88-21.52,50.48-20.48l1-1C458.34,125.8,454.14,125,439.58,127.16Z" transform="translate(-27.11 -116.9)"/><path d="M437.06,135.84c-9.92,4.56-18.8,10.88-28,16.16,0,0,8.56,1.2,12.24-1.12,12-7,23.82-13.78,38.08-15.6,3.76-.48,3.52.08,5-.72C462.94,130.8,453.54,129,437.06,135.84Z" transform="translate(-27.11 -116.9)"/><path d="M430.74,148.32a56.3,56.3,0,0,1-12.08,5c1.76-.16,3.76.8,5.76.16,14.08-4.08,25.84-13.12,40.88-14.16,1.6-.32,3.2.56,4.4,0C469.22,136.16,454.14,134.4,430.74,148.32Z" transform="translate(-27.11 -116.9)"/><path d="M464.34,141.84c-12.16,1.36-22.4,7.36-33.2,12.08.24.08,5,.8,5,.8,12.32-4.32,24.88-9.84,38.8-8.64C473.74,139.6,467.14,142.32,464.34,141.84Z" transform="translate(-27.11 -116.9)"/><path d="M446.26,154.48s3.44,1,5,1.36A66.57,66.57,0,0,1,477.62,152c5.32.4-1.48-3.48-1.48-3.48C466.06,147.56,454.82,150.56,446.26,154.48Z" transform="translate(-27.11 -116.9)"/><path d="M457.06,156.4s3,1.52,4.56,1.2c5.76-2.4,12.32-.4,18.48.32C480.1,157.92,474.94,149.2,457.06,156.4Z" transform="translate(-27.11 -116.9)"/><path d="M405.22,160.8c-5.48-4.8-7.08-5.4-9.6-5.92-1-.32-2.56-.32-3.12.8,2.24.92,3.52,2.4,5.2,3.6,14.16,13.44,26.63,30.22,44.4,36.88,5.44,2,8.64.16,12.08-1.52,0,0-4.88-1.52-7.12-1.92C438.14,190.8,419.34,173.6,405.22,160.8Z" transform="translate(-27.11 -116.9)"/><path d="M455.14,186.56c5.35,2.14,12.24,5.28,17.44.8.24-.72-.4-.8-.72-1a34,34,0,0,1-19-3.84c-16.88-6.08-27.76-24.8-46.08-27.68C406.74,154.88,436.74,179.2,455.14,186.56Z" transform="translate(-27.11 -116.9)"/><path d="M466.26,191.52a39.75,39.75,0,0,1-16.72-5c-14.48-8.8-29.12-17.68-42.24-29.36L401,155.68c15.44,11.12,28.88,27.36,46.48,34.16C453.3,191.44,460.66,197.12,466.26,191.52Z" transform="translate(-27.11 -116.9)"/><path d="M419.78,156.64c-.56,0,14.8,11.12,22.32,16.64,8.32,6.24,17.76,11.12,28.56,11.2,1.68-.8,4.16-1.12,4.24-3.12-15.44-1-29-8.56-40.88-18.24C429.54,160.32,425.38,155.92,419.78,156.64Z" transform="translate(-27.11 -116.9)"/><path d="M430.34,157.76l5,4.24c12.76,9.4,24.8,16.8,40.32,16.88,5.64-.28,0-2.08,0-2.08-14.88-.08-27.92-9-39.2-18.48C435.7,155.92,430.34,157.76,430.34,157.76Z" transform="translate(-27.11 -116.9)"/><path d="M440.5,158s21.44,18.84,36.32,15.56c.24-.48,1-.64.8-1.36-7.2-.8-20.08-6.16-32.4-14.56C443.34,157.4,440.1,156.84,440.5,158Z" transform="translate(-27.11 -116.9)"/><path d="M455.14,161c6.76,3.52,13.68,7.28,21.68,7.28a2.25,2.25,0,0,0-1-2.88c-2.16.4-10.12-.84-19.36-6.88C453.74,158.2,448.14,157.4,455.14,161Z" transform="translate(-27.11 -116.9)"/><path d="M478.74,164.08c.64-.8.4-2.48.16-3.28-5.76.64-11.12-3.44-16.64-1.68C462.34,159.76,472.9,165,478.74,164.08Z" transform="translate(-27.11 -116.9)"/><path d="M111.22,184.08c15.92,5.36,31.28,13,49.36,10.16A66.66,66.66,0,0,0,153.3,205c-5,13-5.2,27.2-11.68,39.6-1.84,2.8-4.56,4.8-6.4,7.68-7.52,6.48-16.16,11.52-26.64,9.6,12.76-10.84,12.36-33.24,18.8-48,.57-1.32,1.52-2.72,1-3.84-1,1-2.72,1.12-3.44,2.64-3.56,6.36-8.56,39-21.52,49.6,4,1.36,13.56,5.56,28.24-3.68,13.28-11,20.16-28,22.64-45.12,2.08-6.56,3.68-15.2,11.12-17.68a128.36,128.36,0,0,1,15-.4c25.66.64,44.56,12.4,45.76,11.36.72-1.6,2.56-3.12,3.2-5-4.48-1.68-9-3.68-13.6-5-16.32-3.92-31-7.6-48.56-5.76-9,1-27.84-.4-39-4.56,0,0-20-5.92-26.72-4.64-4.8,1.28-11,3.12-12.32,8.64C89.14,190.4,98.34,180.2,111.22,184.08Z" transform="translate(-27.11 -116.9)"/><path d="M106.1,189.44c13.76,2.8,25.84,15.28,40.64,9.76,1.6-.4,2.64-2.24,4.48-2.08-1.12-1.6-16.68-1.12-44-11-11.48-3.36-19.76,8.56-19.2,9.6C93.7,192.32,98.9,188.72,106.1,189.44Z" transform="translate(-27.11 -116.9)"/><path d="M102.58,195.76c10.64,1.84,20.31,8,31.68,7.68,1.48,0,3.36-.2,3.92-1a74.79,74.79,0,0,1-10.4-1.64c-8.85-2.63-16.36-9.72-26-9.48,0,0-17.28,4.08-15.56,12.12C90.74,199,96.26,195.52,102.58,195.76Z" transform="translate(-27.11 -116.9)"/><path d="M112.18,205.36c17.16,4.64,17.92-.16,17.92-.16-6.48.32-24.08-6.88-27.28-7.12-9.6,1.2-17,7.76-23.84,14-.8,1.76-2.4,3.6-1.52,5.6C86.26,208,102.74,203.2,112.18,205.36Z" transform="translate(-27.11 -116.9)"/><path d="M141.22,242.24c5.52-12.08,7.52-38.44,12.88-43.76h-1.6c-3,2.12-3.84,5-5.12,7.84C143.86,217.6,141.22,242.24,141.22,242.24Z" transform="translate(-27.11 -116.9)"/><path d="M139.46,219c-1.44,11.32-.92,24.76-8.24,33.76,11.52-.6,10.12-42.6,16.72-51.44C148.26,200.48,141.54,202.6,139.46,219Z" transform="translate(-27.11 -116.9)"/><path d="M133.7,209.76c.32-1,1.44-1.6,1.52-2.64l-2.08.72c-4.24,6.48-7.68,37.84-18.8,51.28a4.23,4.23,0,0,1-3.12,1.52c2.72,2.16,4.22.06,6.12-1.18,0,0,4.9,1.14,11-4.34,10.56-14.56,5.12-35.76,13.84-51.12,0,0-5.24-.2-7.28,7.68-3.2,13.36-1.76,39.72-16.72,46.72,3.36-4,5.12-8.16,7.28-12.72C130.82,234.56,129,221.2,133.7,209.76Z" transform="translate(-27.11 -116.9)"/><path d="M241.22,206.72c-1.6,2-4.48,2.72-5,5.36a29.9,29.9,0,0,0,4.56,1.36c18.64,3.28,54.08,20.48,54.72,20.32.64-1.36,1.44-2.88,2.16-4.4-1.44-1.92-3.84-2.24-5.36-3.44C276.74,219.2,242.42,206.8,241.22,206.72Z" transform="translate(-27.11 -116.9)"/><path d="M75.54,226.32c2.08-4.24,23.6-20.92,45.12-13.44,1.2-.72,3-.88,3.68-1.92-6.56-2.64-28-9-48.24,10.32C76.34,223.12,74.66,224.88,75.54,226.32Z" transform="translate(-27.11 -116.9)"/><path d="M114.34,216.16c.88-.4,2.08-.88,2.48-1.76-5.28-4-18.28-3.4-34,7.68-3.48,3.12-10.88,7.6-9,14C80.34,226.56,98.54,214.2,114.34,216.16Z" transform="translate(-27.11 -116.9)"/><path d="M113,222.24c2.16-5.44-1-2.48-1.36-2.24-7.52,12-11,25.76-16.08,38.72-.8,1.68-1.2,2.48-1.92,4.24,2.32,1,4.72,2.32,6.88-.16,11.84-13.28,15.52-29.92,20.32-46.08.24-.8,1.12-1.44,1.2-2.16-2,.24-3.28,2-5,2.72-3.52,8.24-7.24,31.12-19.2,43l.4-3.68C104.5,245.76,109,234.08,113,222.24Z" transform="translate(-27.11 -116.9)"/><path d="M74.58,239.52s-1.6,6.32-.4,7.92c0,0,13-22.64,32.64-26.48,1-.8,3.2-1,2.72-2.56C106.42,217.44,85.74,221.2,74.58,239.52Z" transform="translate(-27.11 -116.9)"/><path d="M106.42,223.84c-12.32,10.08-8.32,29.44-23.36,37.44a8.46,8.46,0,0,0,3.84.56c4.16-.08,6.32-4.4,8-7.68C98.1,243.92,106.74,223.92,106.42,223.84Z" transform="translate(-27.11 -116.9)"/><path d="M99.38,225.12c-8.84,2.48-21,19.72-24.4,25l2.28,5.8C84.54,241,99.38,225.12,99.38,225.12Z" transform="translate(-27.11 -116.9)"/><path d="M79.94,260.32c13-5.32,13.28-24.64,21.12-32.08-.72-1.44-2.92.16-7.84,7.44-3.2,8.48-9.28,16-15,23A2,2,0,0,0,79.94,260.32Z" transform="translate(-27.11 -116.9)"/><path d="M306.1,240.72s19.12,8.8,25.92,15.52c1.2-2,2.12-3,2.76-4.76-.64-1.48-17.64-11.88-26.12-16C308.1,237.36,305.78,238.72,306.1,240.72Z" transform="translate(-27.11 -116.9)"/><path d="M323.78,439.44c-.34-.94-.72-1.52-1.92-1-2.72,3-7,.4-10,2.88a.88.88,0,0,0,.64,1C316,440.24,320.42,442.24,323.78,439.44Z" transform="translate(-27.11 -116.9)"/><path d="M308.66,444.8c-1.2-1.2-7.82-4.4-12.32-1,.48.48,8.5-.74,9.76,3,.64.32,4.88-1.44,6.4-1.68C311.54,444.16,309.78,444.64,308.66,444.8Z" transform="translate(-27.11 -116.9)"/><path d="M318.74,456.28c2.23.37,2.22,1.4,4.64-.36,1.44-.24,2.16,1.12,3.28,1.52l.4-1.28C324.64,452.6,318.66,456.2,318.74,456.28Z" transform="translate(-27.11 -116.9)"/><path d="M307.78,464.88a9.77,9.77,0,0,0-7.6-.32c-3.36,3.28-7.2,0-11.12,1.92l1.5.5c3.92-.48,6,3.34,9.62.3,3.06-1.58,5.52-1.2,7.52.4,4.84-5.48,13.76-4.64,13.76-4.64C318,461,311.24,463,307.78,464.88Z" transform="translate(-27.11 -116.9)"/><path d="M100.5,467.28c-3.12,8.08,1,15.32,7.12,21.68,8.72,7.68,18.72,14.24,29.52,17.68,14.24,5.28,27.4,14.56,41.28,19.36.8-.16.72-1,1-1.52l-7.44-4.64c-16.4-13.6-37.36-20.32-49.36-39.36,0,0-3.92-6.88-1.52-10.72C121.06,469.76,105.54,457.4,100.5,467.28Z" transform="translate(-27.11 -116.9)"/><path d="M129.46,516.4C145.94,523,164,526,181,530.8a1.58,1.58,0,0,0,.32-1.92c-12.32-4.56-24.8-9.12-36.08-15.92-19.36-7.76-47.92-18.4-48.4-44-.88-2.64-9.88-3-14.56,2.72-3.76,5.84-1.52,13.68,2.32,19C96.34,504.32,113.06,510.8,129.46,516.4Z" transform="translate(-27.11 -116.9)"/><path d="M123.94,474.4c-.88,3.2,1.36,5.76,2.48,8.24,4.48,5.2,9.68,11.76,15.76,15.36a166.59,166.59,0,0,1,30.72,21.12c.32.32,1.2.56,1.36,0-4.64-5.68-10.24-9.76-15.2-15-8.16-7.44-18.24-15-22.24-25.2a6.11,6.11,0,0,1,1.12-5.36S128.94,464.4,123.94,474.4Z" transform="translate(-27.11 -116.9)"/><path d="M327.46,473.6c-3.36-1-7.44-.8-10.4,1.36-3.84-2.24-9.6-1.52-13.44.4-.24,1.12,9.22-2.16,13.84,1.12C321.94,472.9,326.42,475.44,327.46,473.6Z" transform="translate(-27.11 -116.9)"/><path d="M141,473.76c-1.84,1.2-1.12,3.6-1.28,5.2,4,10.24,13.76,17.36,22.08,25.2,7.52,6.08,13.44,15.52,21.44,21.44a.83.83,0,0,0,.64-1c-10.24-11.28-37.92-42.64-33.84-47C147,476.4,144.34,474.32,141,473.76Z" transform="translate(-27.11 -116.9)"/><path d="M178.3,534.32s1.64-1.52-4.8-2.76c-11.84-3-24.92-6.44-36.52-10-17-3.68-31.92-11.68-46.48-21.28-7.6-6.32-15.2-14.8-12.24-25.76L74.58,474c-3.68,1-8.16.64-10.72,4-5,6.56-.86,16.48,3.8,20.8C102.34,531,174.94,536,178.3,534.32Z" transform="translate(-27.11 -116.9)"/><path d="M282.9,475.36c-.16.56,6.84.84,10.72,4.16,1.68-2,3.76,0,5.6-1,.16-.4-5.12-2.88-7.12-1.28C289.3,476,286.34,473.92,282.9,475.36Z" transform="translate(-27.11 -116.9)"/><path d="M154.82,477c-4.4,1.2-2.28,5.56-.4,8.88,7.92,12.08,31.12,35.68,32.64,39a21.11,21.11,0,0,1,6.72-4.64c-5.84-10.32-12.64-20.24-19.2-30.32C174.58,489.92,164.74,475.2,154.82,477Z" transform="translate(-27.11 -116.9)"/><path d="M67.42,515.4c22.72,12.8,62.51,17.63,70.92,19.8,6.2,1.6,20,6.08,28.24,1,0,0-41-4.67-59.52-11.84C59.14,505.8,59,492.4,58.82,485c-.4-2.16,2.88-3.84.56-5.76-.72-.88-7,1.2-8.8,7.28C47.78,497.28,56.74,507.4,67.42,515.4Z" transform="translate(-27.11 -116.9)"/><path d="M176.34,485.92c-.88,1,0,2.16.16,3.2,7.84,9.84,13.84,20.88,19.6,31.52,1.68-1.36,3.68-2.64,5-4-2-7.84-10.6-23.64-12.32-27.28C186.18,484.8,180.34,484,176.34,485.92Z" transform="translate(-27.11 -116.9)"/><path d="M51.38,514.72c21.36,12.88,61.56,19.88,65,17.44C65.54,522.8,57.26,511.24,50.58,503c-3.6-5-5.28-12.32-3.68-17.84-5.2.48-16.16,7.48-13.6,14C36.34,507.44,44.56,510.61,51.38,514.72Z" transform="translate(-27.11 -116.9)"/><path d="M320.74,493.76c-2.72.8-5.36,1.68-8.08.8-3.36,2.8-8.66-2.73-11.74-1.56-1.58.6-12.78-6.4-15.94-3.08,4.8.32,10.48,1,14.08,5a16.55,16.55,0,0,1,10.72,1.92s4.16-2,7.52,0c3.2-1.68,7.44-1.12,11.12-1.52C326.66,493,323.62,494,320.74,493.76Z" transform="translate(-27.11 -116.9)"/><path d="M213.94,492.24c2.7,1.36,10.16,16.4,9.84,25.12h1.12a5.81,5.81,0,0,1,3.12,1.2l1-1c3.52-9.12-1.76-19.76-6.56-28.08C221.44,488.3,213.38,487.2,213.94,492.24Z" transform="translate(-27.11 -116.9)"/><path d="M194.74,489.76c-1.2.56-2.48,1.84-2.48,3.2a209.46,209.46,0,0,1,11.36,23.84c2.52.4,3.92,1,4.56,2.08a10.78,10.78,0,0,1,3.68-1.68A54.42,54.42,0,0,0,204,497.6C201.34,493.4,200.58,488.88,194.74,489.76Z" transform="translate(-27.11 -116.9)"/><path d="M211.06,490.48c-4.12-2.28-11.12-.08-8.8,2.48,6.24,7.52,10.72,15.76,12.64,25l2.86,1.44c.88-1.06,2.18-2.86,3.7-2.56C221.78,512.56,215.78,494,211.06,490.48Z" transform="translate(-27.11 -116.9)"/><path d="M225.7,491c.72,1.12-.46.76,1.68,3.52,3.28,5.36,5.6,11.2,5,18.24a18,18,0,0,1-1.48,4.86c.16.56,2.9.24,4.3,1.26,1.2,1.44,6.62-17.16,3.9-25.32C237.3,490.48,227.54,487.9,225.7,491Z" transform="translate(-27.11 -116.9)"/><path d="M238.74,520.64c5.68-5,9.44-11.36,13.84-16.72,1.44-2.24.86-4.42,0-7.12-1.55-3.57-8.84-6.3-11.52-2.88.64,8.8.08,18-3.28,25.6C237.06,520.32,238.26,520.48,238.74,520.64Z" transform="translate(-27.11 -116.9)"/><path d="M253.2,494.58a12.21,12.21,0,0,1,1.06,3.82c1-.8,1.78-2.1,2.56-2.72C256.1,494.48,254.34,494.4,253.2,494.58Z" transform="translate(-27.11 -116.9)"/><path d="M276.74,503.76c-3.6-3.92-8.32-6.08-13.6-5.2-2.08,2-4.64.88-7,2.32,3.52,3.68,7-1.36,11.2-.4,1.12,2,3.2,1.28,5.12,1.12a7.68,7.68,0,0,1,3.28,3.68c1.76,1.12,3.56,0,5.2,0A4.43,4.43,0,0,0,276.74,503.76Z" transform="translate(-27.11 -116.9)"/><path d="M104.18,541.6c14.4,2.48,45,1.8,49.92-1-2.76-1.24-21.64-2-29.32-6-24.24,3.92-88.84-17.28-93.24-33.4-1.4.12-5.8.72-4,8.8,1.44,5,6.48,7.2,10.16,10.4C58.34,531.2,80.9,537.28,104.18,541.6Z" transform="translate(-27.11 -116.9)"/><path d="M301.54,505.28c1-.16,2.24-.32,2.64-1-.4-.32-1-.16-1.52-.16-1.72-2.56-6.56-2.88-6.48-1.2C298.34,503,300.5,502.64,301.54,505.28Z" transform="translate(-27.11 -116.9)"/><path d="M320.74,521.76c2.24-5,4.88-10.32,4.56-15.92-.66-3.14-6.26-2-6.88.56-2.32,9-8.28,25.1-13.28,28.08,1.68.64,3.28,1.36,5,1.92A68.64,68.64,0,0,0,320.74,521.76Z" transform="translate(-27.11 -116.9)"/><path d="M326.66,507c-1.92,11-6.32,21.84-14.4,29.52-.22,1.54.88,1,1.76,1l2.5-2.52c3.12-5,15.82-19.8,18.38-29.72C332.1,504.56,328.66,504.72,326.66,507Z" transform="translate(-27.11 -116.9)"/><path d="M358.34,568.8c16.2-1.4,52.24-20.32,52.24-20.32,12.24-8.32,25.44-16,37-26.32,5.12-4.16,10.32-9.92,8.08-16.48-2.16-4.88-14.56-1.68-17.84,5.92-3.6,7.68-7,15.6-13.28,21.92-6.24,5.52-20.84,16.68-52.24,29.76a80.69,80.69,0,0,1-14.56,4C357.86,567.84,357.54,568.72,358.34,568.8Z" transform="translate(-27.11 -116.9)"/><path d="M302.6,533.62c8.48-6.56,12.3-16.9,13.9-27.22-2.48-2.16-5.52,1.12-7.84,2.56-8.48,6.16-7,16.4-12.48,23.76C296.18,532.72,301.34,531.9,302.6,533.62Z" transform="translate(-27.11 -116.9)"/><path d="M337.06,506.4c-4.72,11.44-13.36,21.6-21,31.52v.56c1.36.72,2.88,1.76,4.24,1.92,8.32-8.56,17.68-19,22.24-30.32C343.14,508,338.64,502.3,337.06,506.4Z" transform="translate(-27.11 -116.9)"/><path d="M426.9,527.76c3.24-4,8.64-11.56,8.48-19-.64-4.92-14.24-3.92-18.88,1.92-.88,9-7.36,17.31-14.72,22.88-31.84,24.08-46.84,27.84-46.84,27.84l2.8,4.08S399.74,554.8,426.9,527.76Z" transform="translate(-27.11 -116.9)"/><path d="M362.58,571.92s21.76-2.32,49.92-14.8c18.55-8.22,36.56-17.28,52.64-30.72a80.6,80.6,0,0,0,12.08-17.68c-2.56-3-6.88-2.24-11-2.32-6.32-.88-6.72,6.48-9.76,9.84C434.14,538.4,400.74,560.6,361.22,570,360.82,571.2,362.18,571,362.58,571.92Z" transform="translate(-27.11 -116.9)"/><path d="M478.34,509.68c-5.28,16.8-21.36,29.44-36.64,36.72-19.28,9.6-50.36,24.2-78.32,27.2-.72.88.4,2.16,1,3.12,6.24,1.12,12.88.32,18.8,0,22.4-2.64,44.56-8.16,64.32-18.24,15.36-6.8,28.32-20.4,38.56-34.16,2-5,8.32-10.4,3.84-16C486.9,505.6,480.9,506.72,478.34,509.68Z" transform="translate(-27.11 -116.9)"/><path d="M344.9,509.28c-4.08,11.84-12.44,22.84-22.84,31.72a25.54,25.54,0,0,1,7.32,3.8c5.36-4.64,11.2-9.84,15.36-15.92s9.28-12.08,9-20.16l-.8-1A15.41,15.41,0,0,0,344.9,509.28Z" transform="translate(-27.11 -116.9)"/><path d="M414.42,510.24c-3.36-2.24-8.4-.72-12.08.24,1.2,9.52-33.84,38.24-51.84,44.32-1,.88-3.76.64-3.12,2.72,1.92-.08,3.16,1.68,5,2.48C371.14,556.2,415.14,524.4,414.42,510.24Z" transform="translate(-27.11 -116.9)"/><path d="M265.46,513c1-.72,3,.24,3.44-1.12-1.36-1.44-3.68,0-3.68,0-1.36-1.44-3.2-.56-4.8-.8-.16.72-.48,1.28.24,1.92A4.69,4.69,0,0,1,265.46,513Z" transform="translate(-27.11 -116.9)"/><path d="M355.06,551c15.44-9.44,30.8-20.56,42.88-35.28.64-1.12,2-2.64,1-3.68-5.92-.72-11.6.08-16,3.68a22.84,22.84,0,0,0-3.2,5.12c-3.6,12.64-13,23.36-24.8,29.44C355,550.48,354.74,550.8,355.06,551Z" transform="translate(-27.11 -116.9)"/><path d="M281.54,516c-4.4,1.92-9-2.08-13.6-.16-8.08,3.36-14.24-8.16-22.08-1.92-.16.48-1.36,1.52-.56,1.92,6.94-3.34,12.64,1.76,14.56,2.48C265,519.8,271.64,516.1,276,517c1.6,1.76,3,0,4.8,0,.72.16,1.28,1,1.92,1,.32-.24.16-.64.32-1A2.78,2.78,0,0,0,281.54,516Z" transform="translate(-27.11 -116.9)"/><path d="M353.54,518.32c-4.88,10.24-13.6,19.12-21.28,27.84l8.24,4.4,6.62-6.18c7.62-8.08,23.72-23.88,18.5-32C361.84,512.8,355.54,515.5,353.54,518.32Z" transform="translate(-27.11 -116.9)"/><path d="M398.1,581.68c34.84-.48,64-15.68,81-31.44,0,0,22.8-19.24,19.36-33.28,0,0-3.76-7-5.2-2.48-5.68,14.08-15.85,25.29-27.2,35.92-24.56,23-86.16,29.52-98.32,29.2-.64-.08-1.52.24-1.2,1.12C377,582.48,387.61,581.83,398.1,581.68Z" transform="translate(-27.11 -116.9)"/><path d="M272.34,558.48c6.16-7.2,12.56-14.16,18.08-21.36-2.08-3.12-5.48-2.82-9.09-2.83-5.44,6-15.75,12.87-19.43,20.55C265.14,557.8,271.3,559.6,272.34,558.48Z" transform="translate(-27.11 -116.9)"/><path d="M291.1,535.14c4.54-2.54,9.56-14.82,8.68-18.74-.56-1-2-.56-2.88-.4-5.92,3.52-13.26,12.8-14.42,16.65C284.82,532.37,290,534.4,291.1,535.14Z" transform="translate(-27.11 -116.9)"/><path d="M368.74,517.36c-4.88,13.36-16.4,24.08-26.48,34.56a7.34,7.34,0,0,0,2.48,2.16c9-4.56,18.64-9.92,25.36-18.08,4.24-5.76,8.88-11.84,8-19.2A17.84,17.84,0,0,0,368.74,517.36Z" transform="translate(-27.11 -116.9)"/><path d="M217.46,537.36c2.8-.88,6-2.06,7.44-4.8,1.14-3.46,2.72-7,1.92-11-.8-1.44-3.12-2.64-5.2-2.88-1.36.4-2.24,1.68-3,2.72,1,5.84-.4,10.16-1.52,15.52Z" transform="translate(-27.11 -116.9)"/><path d="M207.62,532c.64-3.2.64-7.52-.72-10.56-2.36-5-12.36-.64-9,2.64,2.4,2.32,3,5.92,4,8.88C203.46,531.2,206.1,533.12,207.62,532Z" transform="translate(-27.11 -116.9)"/><path d="M211.3,537.76a15.28,15.28,0,0,1,3.84-.4c1.52-4.64,2.88-9.28,2.32-14.8-1-1-1.84-2.56-3.12-3.28-2.4-1.12-4.64.32-6.32,1.92,0,0,3,7,1.26,12C208.81,534.56,210.64,535.8,211.3,537.76Z" transform="translate(-27.11 -116.9)"/><path d="M235.46,521.6c-.42-3.2-7.72-3.9-6.88.16.48,4.16-1.76,11.36-1.76,11.36C230.26,530.16,235.94,527,235.46,521.6Z" transform="translate(-27.11 -116.9)"/><path d="M501.22,519.52c-2.16,15.44-14.32,29.84-27.68,38.4-13,11.2-28.09,17.49-44.16,20.88-2.84.6-22.44,5.8-61.6,4.4-.32.88.64.88,1,1.36,10.4.56,55.4,6.64,95-14.8,15.55-8.41,33-17.84,42.8-33.76C511.14,525,503.86,520,501.22,519.52Z" transform="translate(-27.11 -116.9)"/><path d="M280.18,520.64A3.4,3.4,0,0,0,276,522l1,.4a13.51,13.51,0,0,1,5.92.16C282.5,521.52,281.22,521,280.18,520.64Z" transform="translate(-27.11 -116.9)"/><path d="M255.46,529.12c2.48-1.12,9.68-1.42,10.56-1.2,3,.64,5.22,3.08,7.44,1.2l1.7-1.76c-.72-.8-2.52-1.16-4.88-.22a28.65,28.65,0,0,0-11-.18c-5.36-4.36-19.26-9-22.48-1.68a19.72,19.72,0,0,1,6.88-1.76C248.26,523.36,253.3,524.64,255.46,529.12Z" transform="translate(-27.11 -116.9)"/><path d="M200.34,533.28c-.24-1.76-1.4-6.48-3.42-8.46-4.68-4.72-11.18,1.78-8.26,3.5,1.76,1.28,2.8,3.6,4.16,5.36C195.3,533,197.54,533.92,200.34,533.28Z" transform="translate(-27.11 -116.9)"/><path d="M189.78,533.68a10.13,10.13,0,0,0-3-5c-2.48.88-4.4,3.2-5.76,5.36A54.17,54.17,0,0,1,189.78,533.68Z" transform="translate(-27.11 -116.9)"/><path d="M149.06,576.16c5-5.12,13-3,19-4.8,8.4-.16,13.28-10.56,22.08-8.08,8.24.08,17.68,0,23.44-6.32,2.52-3.56-2.48-23.06-8.08-23-2.72,1.36-6.6,1.68-9.84,1.52-13.84-.68-29.28,1.6-41.84,8.4-9.28,4.56-14.72,14.56-20.72,22.08l-4.64,4.8c-3.12,3.36-7.28,5.84-11.12,8.32-20.16,10.4-39.28,22.32-59,33.92-8.88,5.28-18.56,10.8-25.52,18.88-.72.8-1.2,2.4,0,3,1.44-3.76,4.48-5.92,7.92-7.84,15.68-6.48,31.52-10.88,46.8-18.48,14.08-6.32,27.68-13.76,42.64-18,3.58-.86,4.88.08,7.12-1.36-2.48-7.76,5.84-11.2,10-15.76h1c-2.16,2.8-6.08,4.72-7.68,7.84-1.84,2.08-2.16,5.28-1.92,8.08a3.74,3.74,0,0,0,1.92.24C140,583.68,145.14,580,149.06,576.16Zm59.12-35a4.24,4.24,0,0,1-1.52,4,8,8,0,0,0-.16-5.76C207.7,539.2,207.78,540.48,208.18,541.2Zm-8.64,15.36a16.3,16.3,0,0,0,1.2-5.6C201.46,551.36,202.74,555.5,199.54,556.56Zm-.72-16.72c4.12,2.36-.24,6.32-.24,6.32A9.57,9.57,0,0,0,198.82,539.84Zm-38,26.88c.08-1.6.88-3.76,2.64-4.24-1.42,2.72,1.36,4.8,1.36,4.8A10.49,10.49,0,0,1,160.82,566.72Zm8.24-.8c.56-1,.78-3.82-1.2-4.4a5.71,5.71,0,0,1,3.68-.4A3.76,3.76,0,0,1,169.06,565.92Zm20.16-22.64c-.08-2.48,1-4.48-1-6.32C192.74,536,190.34,541.84,189.22,543.28Zm.4,7.52c1.62.8,1.72,3.8-1,5C188.66,555.76,190.84,552.6,189.62,550.8Zm-6.56-.4c2.08,2-1,4.24-1,4.24A7.22,7.22,0,0,0,183.06,550.4ZM169.22,547a2.68,2.68,0,0,1-.72,3c.32-2.4-1.84-3.68-3.28-5C166.66,545.36,168.26,545.76,169.22,547Zm-9.36,5.52c.56-1.92-1-3.2-1.92-4.4C161.24,547.7,161.24,551.9,159.86,552.48Zm-8.64,2.72,1,1.76c-1.36-.48-3.2-2.24-5.2-1.6C147.7,554.16,150.26,553.52,151.22,555.2Zm-7.12,9c.16.4.4,1.12.16,1.52a5.12,5.12,0,0,0-4.24-2.48C140.9,561.36,143.62,562.48,144.1,564.24Zm-12.32,18.4c-18.4,11.2-57.6,27.44-57.6,27.44s-9.12,4.72-14,6c4.26-2.38,8.32-4.4,12.48-6.56,19.12-11,38.56-21.6,57.6-32.4C133.84,578.7,132.34,581.7,131.78,582.64Zm.8-12.88c-.16-.48.24-.8.56-1.12,1.6-1,2.56.88,3,1.92a5.6,5.6,0,0,1-1.12,2.88c-.08-.88.4-3-1.36-3.44C133.3,569.92,132.82,570.16,132.58,569.76Zm2.08,11.36c-1-1.32,1-1.82,2.82-2.48,8.72-5.68,15.34-16.8,24.3-21.92,11.86-6.32,23.76,3.88,29.76,4.24-6.88,1-17.8-8.26-27.68-4C153.3,563,146.26,575.84,134.66,581.12Z" transform="translate(-27.11 -116.9)"/><path d="M272.18,539c-2.08-4.24-7.6-2.24-11.36-2.48-2.32-1.68-10.28-4.76-10.56-1,4.24-1.68,8.4,1.2,11.36,3.44A17,17,0,0,1,272.18,539Z" transform="translate(-27.11 -116.9)"/><path d="M300.58,535.84c-1.76-2.16-5-1.76-7.12,0-7,7-11.94,16.34-19.3,23.3,0,0,4.58,1.18,6.66,1.42C289.94,556.8,299.22,541.2,300.58,535.84Z" transform="translate(-27.11 -116.9)"/><path d="M233.54,539.44c2.8,5.46,5.92,1.68,7.52,5,3.76-1.92,6.4,3.36,10,2.48,0,0-4.24-3.44-6.56-4.24-3,.88-4.24-2.32-6.88-2.32-3-3.28-6.64-6.16-11.36-5.76-2,.36-1.12,1.92-1.12,1.92C228.18,536.32,231.84,537.2,233.54,539.44Z" transform="translate(-27.11 -116.9)"/><path d="M290.42,561.52c8.08-5.52,14.88-13.76,20.16-21.84,0,0-5.84-6.68-8.32-2.16-5.12,8.48-9.92,19.12-19.2,23.84C285.3,562.08,287.94,562.56,290.42,561.52Z" transform="translate(-27.11 -116.9)"/><path d="M230.9,561.36c4.64,4.64,9.36,16.48,9.36,16.48.08-9.24-5.82-19.84-9.43-24.72-2.35-3.18-13.89-13.32-18.45-14.08a18.87,18.87,0,0,1,2,7.36c.64.24,3.84,2.08,3.84,2.08C222.82,551.76,226.66,557,230.9,561.36Z" transform="translate(-27.11 -116.9)"/><path d="M320.34,543.52c-.2-.92-6-7-9.2-1.76-5.28,8.08-10.56,15.84-18.8,20.72,1.12,1.36,3.6,1.36,5.52,1.52A53,53,0,0,0,320.34,543.52Z" transform="translate(-27.11 -116.9)"/><path d="M255.06,556c-1-.24-7.72-2.1-9.14-1.84-.78-.86-4.7-3.12-9.66-2.64-3.84-1.52-4.4-7.12-9-8.4-.08,1,5.2,6.88,8.48,9.6,2.07,1.72,6.48.88,7.68,3.84,2.46-1.26,9.36-.4,11.52.56C254.9,556.72,255.54,556.32,255.06,556Z" transform="translate(-27.11 -116.9)"/><path d="M320.34,557.92c3.28-3.36,7.44-5.92,9.6-10-1.44-3.12-7.3-4.22-8.24-2.48-5.68,7.36-11,14.4-19.2,19.2,2,.66,3.24,1.06,5.06,1.58C312,564.14,316.26,560.8,320.34,557.92Z" transform="translate(-27.11 -116.9)"/><path d="M332.82,558.88c2.24-1.52,5.36-3.28,5.36-6.56-1.68-1.52-3.52-2.8-5.92-2.48-3.36,2.72-5.76,7-9.6,9.36-4.08,3.28-9.2,4.72-12.72,8.48,1.9.62,3.6,1.62,5.2,2.08Z" transform="translate(-27.11 -116.9)"/><path d="M320.5,573.84c11.14-3,29.74-11.24,25.76-15.2-1.12-1.52-2.72-2.08-4.24-2.88-1.18-.46-4.28,3.24-5.7,4.48-6.68,4.16-12.3,7.58-19.66,10.62C316.66,570.86,319.64,572.6,320.5,573.84Z" transform="translate(-27.11 -116.9)"/><path d="M297.86,566.16c-10.92-2-21.84-2.08-32.24-5.36-2.08-.64-3.28-1.68-5.36-1-2.88,2.32-6.56,5.2-5.6,9.2,1.36,3,4.08,3.56,7.12,3.84,8.76.12,23.16-4.28,37.84,1.12,7.76,3.2,14.56,7.68,22.48,10.8,1.84.8,5.24,2.6,4.8.32C325.14,575.4,307,567.8,297.86,566.16Z" transform="translate(-27.11 -116.9)"/><path d="M195.14,583.44a94.44,94.44,0,0,0,7.8-7.56c2.5-.28,9.1-2.18,10.48-8,4-3.06,2.12-6.9.92-7.3.8,2.08.6,6.34-2.12,6.26-1.68,5.18-8.76,6.86-11.32,6.22C201.34,578.7,192.42,580.64,195.14,583.44Z" transform="translate(-27.11 -116.9)"/><path d="M325.54,577.84c1.12,0,20.1-2.64,28-8.08,2.5-1.66-3-8.46-4.8-6.72-7.44,6.24-16.8,8.88-25.68,12.16A13.65,13.65,0,0,1,325.54,577.84Z" transform="translate(-27.11 -116.9)"/><path d="M204.18,598.24c.48.64,5.36-.44,5.76-6.56,0,0,7.8-4.78,6.92-12.08,0,0,8.08-12.3,3.48-14.8a15.42,15.42,0,0,1-6.4,14c4,5.2-3.44,11.68-6.32,13.84C207.94,594.32,207.44,596.4,204.18,598.24Z" transform="translate(-27.11 -116.9)"/><path d="M316.66,584.4c-1.12,1.2-1.44,3.36-2.64,4.56-2.16,3-5.44,5.52-7.92,8.32a3.42,3.42,0,0,1-2.08-1.6c-1-2.72-5.2-2.8-3.84-6.72-.4-3.52-3.84-4-5-7-1-.32-2.08-1-3.12-.64a1.25,1.25,0,0,0,.24,1c2.32.08,1.68,2.64,2.88,3.84,4.22-.38,3,4.8,3.44,7.12,3,.8,4.4,3.44,5.36,6.16-3.6,3.68-7.2,7.12-10.72,10.16-3.12,1.76-6,4.7-9.38,5.34-.08-.32-.62-5.74-.62-5.74,1.28-3.2,2.24-8.62-.3-11.32,0,0-2.66-2.44-3.54-1.16,3.78,1.86,2.94,6.2,1.82,6.76,2.26.9,1.06,4.44.1,5.56-.16.72,1.66,1,.4,2.52,1.92,1.6-1.28,2.76-.24,4.36-8.56,4-17.28,8-27,8.48-2.4-2.64,1.44-4.92,1.52-7.12,4.56-1.6,5.2-6.8,5.76-10.72,3.36-3.28.4-7.92.4-7.92l-.24,2.88c.4,2.48-3,2.24-2.48,4.64a10.08,10.08,0,0,1-3.6,9.6c-2.64.16-1.68,2.4-2.72,4-1.36,2.32-2.7,4.72-6.32,4.94a23,23,0,0,1-6.16-.86l2.16-3c-.16-3.92,4.4-4.26,3.76-8.1,0,0-1.34-1.64-1.68,2.08-.64.8-1.36,2-2.72,1.52a8.21,8.21,0,0,1-4.56,7.12L232,622c-5.76-1.76-12.56-2.64-17.44-5-5.36-3.44-10.88-4.48-15.2-10.16-2.8-2.8-5.2-5.68-5.92-9.28.64-.56,6.16-5.36,6.88-8a10,10,0,0,0,6.32-6.72h-.4a26.45,26.45,0,0,0-3,4.16,6.09,6.09,0,0,1-4.8,1.6c0,1.57-1.5,4.4-3.34,6.24-.72.48-.84,1.12-2.58,1.44a92.42,92.42,0,0,1-4.64-21.52c-.32-2.4-2-8.4-4.2-8.42-9.52,9.52-22.76,7.22-33.08,12-4,2.2-8.24,6.24-7.44,11.36a33.1,33.1,0,0,1,19.2,3.68c3.3,1.86,5,4,8.8,10.32,4.59,7.7,10.9,20,16.56,24.4,4.16,2.88,8.32,6,13.44,6.88,1.2-1.92,3.84-3.12,4.4-5.52a8.59,8.59,0,0,1-1.76,7.28c.86.5,2.11,1.25,3.33,1.86,2.28-1,3.15-2.5,4.91-2.82.16,1.6-2.33,1.26-1.92,3.84a62.39,62.39,0,0,0,6.56,2.48c13,4.72,29.52,2.72,42.64.24l1.68-5.76.4.32c.88,1.6.08,3.44-.72,4.8.16.48,1.12.72,1.28.64,3.92-1,7.68-3.6,11.76-3.84a56.48,56.48,0,0,0,15.36-8.08c7.6-4.4,13.36-11.68,19.6-17.52,4.08-4.56,8.8-9.28,11.28-14.72-1.52-2-1.44-4.56-3.44-6.4.48-.8.94-.44,1.76,0,1,.56,2.48,4.72,3.6,4.64,2-2.56,5-5.6,4.8-9.2C323.62,587.2,319.94,585.52,316.66,584.4ZM182.5,580c.8.8.16,2-.24,2.88-.88.8-1.2,1.6-2.24,2.24C180.82,583.44,182.26,581.92,182.5,580ZM165,586.72l-1.12.56,2.32-2.88C166.66,585.12,165.3,586,165,586.72Zm6,7a2.37,2.37,0,0,1-2.48.4,10.83,10.83,0,0,0,3.84-4C173.06,591.6,171.94,592.64,171,593.76Zm14.8,29.76c-7.68-6.56-9.6-16.08-14.4-24.16,4.88.64,8.8-2.24,12.8-4.24l4.48-3c1.76,5.92,5.12,11.2,9,16.32C199.24,614.7,191.34,625.9,185.78,623.52Zm16.48,1.76c.32-1.36,2.48-2.8,3-4.4C205.62,622.08,205.59,625.45,202.26,625.28Zm18.8,3.44c-.64,1-1.2,2.4-2.48,2.48l2.08-5.92C221.62,625.92,221.22,627.68,221.06,628.72Zm11.12,12.48c-.64.24-1,1.12-1.92,1l1.36-6.72C233.14,637.2,232.9,639.2,232.18,641.2Zm19.6-7.68c-.88-.88,0-3.52-1-4.56C252.64,628.2,252.58,632.72,251.78,633.52Zm17.84,3.84c-.16,1-1.36.8-1.68,1.36,1.52-2.32,1-5,1.12-7.68A7.83,7.83,0,0,1,269.62,637.36Zm7.12-5.2c.7-3.46-.64-4.24-1.52-6.08C275.22,626.08,280.14,628,276.74,632.16Zm20-12.08c.4-1.28-.64-2.88-1.2-4.24C296.82,616.72,298.84,618.4,296.74,620.08Zm4-8.4L298.82,609C300.84,608.8,300.74,611.68,300.74,611.68Zm8.64-4.24a7.25,7.25,0,0,0-2.08-2.72C309.94,604.3,309.38,607.44,309.38,607.44Zm-.16-11c3.22-.58,3.28,2.72,3.28,2.72Z" transform="translate(-27.11 -116.9)"/><path d="M227.22,584.4c.72-.32,3.22-8.6,3-11.92a4.13,4.13,0,0,0-2.08-1.36,21.67,21.67,0,0,1-1.52,12.32Z" transform="translate(-27.11 -116.9)"/><path d="M355.7,571.36c-8.48,5-18.72,5.76-28.48,7.68-.16,1.28,1.12,2.08,1.36,3.2,9.52-1.52,21.2.4,30.16-4.16C364,574.6,357.64,570.3,355.7,571.36Z" transform="translate(-27.11 -116.9)"/><path d="M283.3,577.84c3,.76,3.44,3.68,2.64,4.64-1.36,2.32,2,1.12,2.16,3,.88,1-.32,3.36,1.68,3.12a13.39,13.39,0,0,1-.16-3.12c-1.84-1.44-1.36-3.6-1.12-5.36C288.5,580.16,286.14,575.6,283.3,577.84Z" transform="translate(-27.11 -116.9)"/><path d="M361.78,578.64c-5.14,4.36-25.92,4.4-32.64,5a4.33,4.33,0,0,1,.26,2.62s24.06.66,31.66-1.1c1.36-1,4.8-1.52,3.44-4.16C363.86,579.84,363.14,578.72,361.78,578.64Z" transform="translate(-27.11 -116.9)"/><path d="M235.26,588.16c4.58-1.26,9.18-7.86,8.68-9-3.28,3-6.72,6.32-11,7.28,1.26,3.22-.48,8.08-2.72,10,2.38,4.52.24,16.32.24,16.32,1,0,4.14-12,1.92-15.36C234.82,595.68,235.14,591,235.26,588.16Z" transform="translate(-27.11 -116.9)"/><path d="M307.7,584.4c.84.2,1.84.8,2.08-1a23,23,0,0,0-4.06-2.9C302.14,579.8,307.74,582.9,307.7,584.4Z" transform="translate(-27.11 -116.9)"/><path d="M252.34,585c-.8-1.12-.32-3.12-2.08-3.44l-1,4.4c-2.48,1.44-.88,5-1.36,7.28,1.52-.64,2.2-3.3,2.08-4.7C249.87,586.82,252.44,587.4,252.34,585Z" transform="translate(-27.11 -116.9)"/><path d="M270.58,611c2.64-2.24.4-5.76,2.32-8a8.34,8.34,0,0,0-1.12-8.88c.48-3.12,2.32-6.16,1.36-9.36-1-.56-1.6-1.84-2.88-1.6-.64,1,1.28,2.16,1.12,3.52-.32,2.08.08,5.12-2.08,6.48l2.08,2.72a8,8,0,0,1,.16,5.92c-2,1.52-1.52,3.6-1.28,5.76-.4,2.56-2.08,4.4-4.08,6,1.68,1.76-.56,3.6-.56,5.12C269.22,617.68,268.9,613.44,270.58,611Z" transform="translate(-27.11 -116.9)"/><path d="M253.7,599.52c.64.8,1.6,1.92,1,3.12-1.22,1.66-2.52,2.56-2.08,4.4,1,.16,3.66-2.34,3.48-5.44.68-1.9.28-5.9-1.16-6.48C254.66,596.8,255.78,599.12,253.7,599.52Z" transform="translate(-27.11 -116.9)"/><path d="M222.42,609.76c.16-.8-.32-1.12-1-1.2-1.44,2-3,4.32-5,5.76l1.28.24C219.54,613,221.62,612,222.42,609.76Z" transform="translate(-27.11 -116.9)"/></svg>
