<?xml version="1.0"?>
<svg xmlns="http://www.w3.org/2000/svg" id="Layer_1" data-name="Layer 1" viewBox="0 0 343.2 597.04" width="343" height="597"><path d="M441.75,440.23c-1.89-3.13-3-6.56-5.61-9.47-4.3-5.4-12.25-10.79-20.41-9.19-8.24,4.89-17.06,8.46-27.41,8.24-3.79-2.41.73-4.37,1.16-6.78a25.62,25.62,0,0,0-22.09-10.21c-6.78.22-8.52-7-10.71-11.66,2.55-3.5,6.85-5.18,9.77-8.31-1.83-4.52,3.32-7.81,3.69-12.11-1.69-2.1-1-6.92-1.29-10.49-1.24-1.16-2.87-.05-3.59-1.44a22.37,22.37,0,0,0-.51-3.61c-.8-3.13-1.15-6.17-2.46-9.53a105.44,105.44,0,0,0-8.53,8.53c-4.23.88-4.81,6.05-7.72,8.53.07-2.7.51-5.83,2.4-8a44.17,44.17,0,0,1-11.15-7.8c-4.81-12.76-12.4-24.27-15.09-37.91a53.88,53.88,0,0,1,2-9.25l-8.75-10.94c-.66-3.43-5-6.63-2-10.42,2.19-5,7.87-5.69,12.9-5.84,3.65,2.19,4.81,7.51,9.7,5.11a1.63,1.63,0,0,0,2.7,0l4.08,4.59c-.66,6.42-3.36,12.39-4.6,18,5.76-1.39,10.43-6.78,14.8-10.43,4.52-6.63,4.67-15.45,10.21-21.14-1.31-4.3-6-7.51-3.86-12.9-2.12-1.24-4.74-1.68-6.57-3.14,2.92-2.48,6.42-4.52,9.48-7.07-1.09-2.48,2.41-3.72,3.65-5.61-.15-1.24-1.32-2-1.24-3.35,1.67-5.25,4-10.43,5.1-15.6a90.65,90.65,0,0,0-13.56,2.91L353,233c-3.06,1.32-6,5-9.47,3.14a55.7,55.7,0,0,1-6.56,10.5c-3.07-6.05,1.45-11.38,2.69-16.77-3-1.75-.07-4.59-.51-7.07-1.16.51-2.33,2-3.64,1.46.73-4.3-2.7-7-4.08-10.43-2-5.54-7.88-6.85-9.77-12.39h-4.6l-2.69-2.48c-5.25,1.53-5,10.64-11.67,10.21V197.26l-5.1-5.32c.51-2.55-2.4-3.86-3.86-5.39l.51-.44c7.65-1,15.82-5.39,20.12-12.17-4.52,0-9.48,1.09-13.56,0,5.83-6.35,13.7-9.26,20.12-14.07-3.36-1.24-7.44-.66-10.94-1.46V155.2c2.92-5.61,8.24-10,11.67-14.29,0-5.25-.37-11.22,2.48-15.6,1.16-2.62-.15-5.76-.73-8a79.37,79.37,0,0,0,9.91-8.23c5.25-5.76,6.49-16.92,3.65-23.55l-5.33,9.7c-2.62,3.06-5.17,7.94-10,7.07.07-8,5.39-13.78,6.34-21.44,1.46-7.43-8-6-8.75-12.39-4.45-2.55-7.43,3.21-10.71,5.1-3.07,1-7.08.81-7.73,4.89-.8,2.7.65,6.49-1.24,8.53-1.68-1-1.9-3.28-1.68-5.4-.07-3.79,4.23-6.12,2.92-10.2s-1.53-9.26-1.75-13.34c-2,1.09-4.16,2.26-6.27,3.13-2.11-3.42-4.3-6.12-8.31-7-3.79-.29-5.18-3.86-7.29-6.34-2.63,2-5.18,2.12-8.46,2.7-6.19,3.86-9,10.93-9,18.22l-.43.44c-.73.22-1.46-.36-2.19.51-.15,7.07,1.46,15.46-1.46,21.65-.51-.07-1.17.15-1.46-.29,1.53-6.71,1.24-14.21.22-21.14l-8.75,11.44c1.17-2.84,2.41-6.26,4.6-9,7.21-6.85,11.81-16.26,9.76-26.76-.58-1-.8-2.69-1.74-3.13a47,47,0,0,1-8,12.61c-2.55-3.06-5.69-6.2-9.7-7.29l-1.46,2.92c-1.09.95-2.91.14-4.15.73-1,4.37-2.19,9.33-6.78,10.93-4.3-4.59-9.92-9.33-15.82-10l1.24,2c2.48,6.34,8.45,11.59,6.56,19.47-3.43-3.94-4.52-10.5-10.21-12.4-3.71-.07-7.29-1.89-11.66-1.24-3.21-1.53-5.54-5.1-9.26-5.32-1.75,5.62-8.31,6.86-10.42,12.1-4.89,1.68-1.68,8-3.65,11.45-1.82-3.65-2-8.31-5.32-10.94-7.65-.14-13.63,3.79-19.46,8-3.21,1.24-7.88,1-9,5.11-1.46,5.68-6.92,8.38-8.31,14.07,1.82,4.44,1.13,8,5.6,11.83-1.83-1.22-6.25-.94-8.73-.17-3.5,2.62-7.88-.15-11.89,0v7.29L115.17,119c0,5.11-2,9-4.89,12.61a7.69,7.69,0,0,0,2.7,8c6.41,3.14,13.19,6.2,18.44,10.94-3.5.95-6.63,2.91-10.2,3.86-1.46-.36-3.14-1.16-4.6-.95a5.61,5.61,0,0,0,.73,3.43c2.26,6.93-6.85,12-2.91,18.66,4,2.12,8.31,3.57,11.88,6.56-2.55,2.34-6.17,5-7.49,8.16,3.84-.66,13.1.74,17,3.51-2.12,1.31-4.23,2.62-5.11,5.1-.73,5.76,3.21,9.77,7.07,13.85-6.27-4.08-16.69-6.71-23.83-2.4a169.77,169.77,0,0,0,29.16,12.17l1.45,3.64c-3.5.3-7.72-.58-11.88-.29l-1.23.17c-1.86.21-2.75,1.11-4.6,1.8,5.47,2.55,11.08,4.59,16.26,7.8,7.72,3.43,16.32,1.82,24-.51l8,4.16c2.41,1,5.69-.08,8,.94l25.51,20.2,1.46,2.4c.29,4.59,4.81,5.76,7.58,8.53-1.67,1.68-4.52,1.53-6.56,2.92.8,1.31.51,3.35.22,4.81-6,.29-10.13-3.86-15.09-6.05.22-6.05.15-12-3.35-16.55l-3.65,1.24-8.53-7.8c-3.71,6.63-9.11-1.24-13.85-1.46-.22,1.09.3,1.82.51,2.7.37,4.66,3.5,9.11,0,13.34A35.7,35.7,0,0,0,171.3,268a7.24,7.24,0,0,1-.51,3.13c2.91,2.77,7.65,3.72,9,7.58A25.12,25.12,0,0,0,190,278l6.27,2.63c1.31,1.16,3,2.18,3.21,3.64a114,114,0,0,0-12.17,3.21c-6.06,0-12-3.94-17.72-.73l1.17,2.41c-5.76.43-11.59.8-16.48,3.42,1.68,1.31,4.08,1.1,5.83,2.41-2.91,2-6.7,3.5-8.74,5.61,3.93,1.53,8.38,2,12.83,2.41,2.4.51,5.68.8,5.39,4.15,3.14.37,7.8-3.21,9.48,1.17,1.75-.15,3.86-2.12,5.83-3.14l5.1,1.24c1.46-4,5-7.14,4.6-11.95a7.35,7.35,0,0,1,4.37-1.68c.44,2.48,1.24,5.61.22,7.8-7.22,4.88-3.57,14.58-3.14,21.87l1.68-1.46a45.07,45.07,0,0,1,2.19,9.92l3.2-3.36,4.82,12.1,8.31-13.85c.95.21,1.22-.11,2.55.39,1.67-5.67,0-9,2.26-10.59-.22-4.74-4.52-8.39-2.92-13.34a80.9,80.9,0,0,1-10.2-6.56c-.15-1.9.65-3.43,1-5.11,1.16-1.82,2.84-3.2,4.59-5.1l4.88,4.37c4.08-1.89,8.09-4.08,12.4-5.61,10.06,5.83,15,15.31,20.84,24.57-2.62,5.68-7.94,10.13-12.1,14.8-.94,4.66-1.89,9.69-1.45,14.58,7.43,1.45,4.3,9.47,6,14.36-1.68,3.5-2.92,7.14-5.11,10.42-7,3.72-14.09,6.37-21.09,13.21,0,0,2.33.66,2.87,2.1,1.3,4.23-4.37,14.23-6,16.9a8.11,8.11,0,0,1,3.34,1.33c1,4.88.22,10.49-.22,15.09l2.19,1.45c1.09,7.51,2.19,15.09,6.78,21.14,2.77-4.22,5.17-8.16,8.53-11.88,2.7,2.77,3.5,6.27,5.83,9.19,1.24,1.75.95,3.64-.73,4.66l12.18,10.43L252,449.5a89.26,89.26,0,0,0,19,6.17c-.33,1.16-.5,1.5-.83,2.66a90.07,90.07,0,0,0,17.77-3.52l10.2,3.94-1.46,1.68c-4.59,1.82-10.13,1.24-14.58,3.42l-.51,2.92-8.74,7c-2,1-.3,2.91-.44,4.37L265.12,491c.65.22,1.09.95,1.67,1.46L267.3,504c5.4-1.1,10.5-7.22,16.26-3.21l6.05-7.29c3.21-.22,4.16-4.37,5.83-6.78,7.73-1.75,4.45-11,5.62-17l6.34-8s2.77.33,5.27,5c-.34,4.33-.67,8-.68,14.17.88.22,1.75.51,2.7.73l5.1,10c4-.21,4,4.82,6.56,6.78,5.69-1,7.8,5.62,11.88,8,4.16-2.48,6.49,2.26,9.7,3.43,2.77-2.92,7.58-2.41,11.23-1.75,1.09,11.37,4.44,22.38,5.54,34,5,25.15,1.6,53.15,2.91,79.46,4.38-3.13,8.75-6.34,13.12-9.47,1.17-6.42.81-13.78,1.24-20.2,1.39-1.6,3.36-2,4.89-3.35,0-6.63-1.75-12.76-.73-19.46,2.92,7.29,4.59,15.16,7.29,22.59,4.88,4.52,10.21,9.48,15.75,12.4l-.44-14.36.44-.44A142.67,142.67,0,0,1,413.54,607c1.6,7.73,1.68,16.11,3.94,23.55l12.61,9a126.73,126.73,0,0,0-4.16-26.75c-1.24-9.41-5.76-19-2.62-28.65a33.31,33.31,0,0,0,2.91-16.77l6.78.73c-1.31-16.62-8.31-30.91-13.34-45.93-1.89-5.47-5.25-10.57-5.61-16.33,2.55,1.53,5.32,3.5,8,5.11l1.68-7c4.95-2.63,2.62-8.6,3.93-12.91,4.67-4.73-.58-11.15-.29-16.54,3.28-2.85-1.09-5.84,0-9,2.26,2.92,7.07,2.55,8,6.78,5.9,1.68,11.52,4.74,17.79,4.88C447.29,465.75,445,452.77,441.75,440.23ZM181,276.21c-.43-4.37-6.12-3.13-7.72-6.78.14-1.31,1.6-2,1.45-3.42-1.45-.95-3.57-2.26-3.93-3.65,4.59-1.75.51-5.83.73-8.75l-.22-.21A40.27,40.27,0,0,0,181.72,258l1-2.92c3.5,1.82,4.38,5.76,7.73,7.29l.51.51,2-2.18c.87,2.69,2.19,6,1.68,9.25C191.27,273.88,186.61,277.38,181,276.21Zm33.32,27-.95,1.45a32.63,32.63,0,0,1,5.32,9.26c-.73.22-1.46.51-2.19.73.44,2.19.15,5.32.22,8-1.09.66-3-.44-3.86,1l-3.65,9.47c-1.09-3.2-3.42-5.32-5.32-8.23-.8-.66-1.6.07-2.18.51-1.83-2,.8-7.88-3.21-7.59l-.73.51c-.44-2.18-.15-4.66-.22-7.07a2.47,2.47,0,0,0-1.46-.43,57.37,57.37,0,0,1,6.78-10c.44-4.16-.87-7.8.29-11.88-4.66.43-9.84,1.31-14.14,3.35.37,1.9,2.48,2.55,2.92,4.16-3.87.43-2.12,4.59-3.65,6.78-3-4.09-5.61,1.31-8.45,2-2-4.52-9.26,3.58-9.48-3.64-4.37-.29-8.46-1.31-12.68-2,2-2,4.88-2.92,7.29-4.37L162.55,293c1.53-1.39,4.52-.29,6.56-1,2-.14,3.72,1.39,5.61,0a8.44,8.44,0,0,0-.73-4.15c4.52.94,9.77,0,13.56,2.69,5.33-3.13,11.52-3.86,18-4.15l-.73,11.66C207.89,300.05,211.39,301,214.31,303.19Zm-5.83-18.67c-4.89-1.89-9.19-5.1-13.64-8l-.21-1.45c5.61,2.26,10,7.36,16.54,7.29l.73.94C211.76,284.3,209.64,284.16,208.48,284.52Zm201.41,143.1c-.29.15-8.06,9.05-22,4.22C398.5,432.5,409.89,427.62,409.89,427.62ZM357,409.18c2.19,1.53,2.55,4.74,4.08,7,7.95-2.63,17.43-1,22.89,5.1l2.19,2.19-3.65,2.7c1.75,2.84,1.32,7.28,4.82,8.74,5.1,2.12,10.49,4.89,13.12,9.7-4.89-2.41-9.19-6.34-14.29-8.24a33.48,33.48,0,0,1-.8,7c-.73-5.25-1.5-10.83-5.54-15.71a6.81,6.81,0,0,1-2.7,2.19c-3.13-5.1-7.36-11.81-14.58-10.42a257,257,0,0,1,11.23,27.92,10.51,10.51,0,0,1-4.67-4.38c-4.88-9.4-7.43-19.83-13.12-28.94Zm41.55,63.42c-3.21,1.53,0,3.94-1,6.78-.36,1.6,1,4.67-1.17,4.89-.8,3.93-1.31,8.09-2.47,11.88l-2.63.51c-3.13,6.92-8.09,13.12-11.66,19.9.44-3.5-4.08-7.58-1.75-11.45-4.89-3.2,2.7-8.89-2.92-11.15-.29-4.15,2.92-7.44,0-11.15.81-2.48,3.65-4.3,2.19-7.29-2.11-2.77-1.09-6.2,0-9-2.62-3.5,4.23-7.29-.22-10.21,2.92-3.42,5.69-6.12,10-7.29a30.62,30.62,0,0,1,6.78,6.85c1.82,1.54-.37,2.48-1.24,3.65A106.41,106.41,0,0,1,398.52,472.6Zm-51.76-88.94c.73-.29,1.46-.51,2.19-.72l.22-8.75c.87-.8,1.53,0,2.7-.29,1.46-2,.22-7.58,4.37-6l5.1-7.8c1.17,3.42,1.24,7.29,1.9,10.93.8,1.39,2.48.51,3.64.73.37,3-.43,5.54-1.16,8,.51.87,2.51.49,1.16,2.19l-4.81,7.58c.79.76-.07.5,1.6,1.67-3.34,2.66-6.34,5.33-11,6.66a55.22,55.22,0,0,1,2.33,8.65h-.95C350.55,399.27,346.33,392.41,346.76,383.66Zm23.55,82.09c.8,5.17,4.88,9.55,2.7,15.31L353.54,434.4c-1.24-7.29-8.38-11.81-13.63-15.31,2.7-20-10.13-34.26-16.25-51-3.14-5.1-3.8-14.21-11.89-14.28,0,0,1.56-8.61-1.77-15.11-.25-1.24-9.05-23.14-9.05-23.14l1.05-2.36c7.37,13.12,13.42,26.76,19.69,40.31C340,390.08,355.66,427.7,370.31,465.75Zm-13.85,20-2.92-1c-10.86-21.14-16.11-44.61-28.65-65.1,1.17-2.18,1.28-4.27.22-7.07-.61-1.86-3.11-1.53-4.59-.94L317.09,405l-6.34-2.69c.29-3.58,5.75-9.12.51-12.62,1.06.07,3.5.08,4.38,0a392.52,392.52,0,0,1,24.56,51.53l6.27,7.29-.43,7.51C350.55,465.53,352.74,476,356.46,485.72ZM321,388l4.37.44c4.16,6.78,9.92,13.26,12.9,20.7l-.51,6.78c-6.26-8.6-12.55-17.11-16.19-27ZM177.74,204.16l-4.08-5.1c-3.24,0-5.86-1.72-8.7-3-2.85-5-5.55-11.59-10.65-14.79-4.23-4.89-7.72-10.5-8-17.28,7.51,9.4,12.47,17.71,24.06,23.11a164.24,164.24,0,0,0,11.88,13.12v1.24c-1.82.29-3.28-1.61-5.1-2C177.42,200.62,177.42,202.51,177.74,204.16Zm-28.53-73.74c-2-5.84,2.4-11.38.22-16.77l-2.53-5.21c0-.51-.46-1.13-.17-1.35L148,97.9l.73.22c.51,5-1.53,12,2.7,15.53,2.62,2.19,6.27,3.94,7.5,7.29l-.51.51c-1.16-1.31-4.22-5.25-7-6.34C151.76,120.06,149.94,125.31,149.21,130.42Zm11.37,24.74c1.31-9.8,7-19.93,1.75-30.07-1-4.81-4.52-10.64-.73-15.3,1.1-1.24,2.92-1.75,4.38-2.7,3.79.58,6.92,2.62,10.42,3.93-4.15.81-10.13-.21-12.17,4.6.29,9.18,5.39,16.62,3.93,26.24-.29,2.7-1.6,5.47-.73,8,0,0,6.24,8.12,4.38,11.44,9.4,11.6,21.5,20.05,30.32,32.52l-1.89,1C190,185,180.48,174.45,171.08,164.68c-6.49.51-10.64-4.52-16.77-4.81-4.31-3-1.24-4.5-1.24-4.5Zm9.48-19.35c3.86,3.72,12.43,1.52,12.5,8.52l.4,1,.44,1.36c1.75,5-.07,9.31-2.12,13.91-.43,2.84.66,5.17.95,7.72-2.91-4.15-9.47-6.19-9-13.12-.66-3.5-6.2-4.88-3.43-9.18C170.64,142.88,170.35,139,170.06,135.81Zm37.47,86c-3.57-.51-6.53-7.5-7.58-12.17-.95-7.83,5.61-12.76,9.25-17.28l3.65,5.61A25.11,25.11,0,0,0,207.53,221.83ZM186.44,195c1.53,4.16,3.23,8,4,12.5-4.16-4-4.88-10.35-6.05-16a34.88,34.88,0,0,1,15.53,6v.73c-4.6-1.82-9-4-14.07-4.81Zm12.05-12.5c-1.61-1.17-4.67-1.54-4.81-3.43,4.37,2.4,10.13,2.91,12.83,7.8C203.59,187.28,201.48,183.12,198.49,182.47Zm-29.38,1.16c-1.78-3.63-2.28-12-11.44-19.68C164.5,165.83,167.83,173.33,169.11,183.63Zm40.82,41.55c1.9-6.48-1.75-13.12,1.24-19.39,0,0,9.33,7.21,5.54,15.75,3.21,2.7,6,6.12,5.4,10.5-.37,1.67-1.68,3.13-2.7,4.37-1.74.42-10.58.42-11.66-8-2-1.24-4.89-.65-7.07-1.46-4.31-1.16-6.64-5.46-9.48-8.74l-11.66-16C191.78,206.81,196.37,224.31,209.93,225.18Zm90.62,73.63c-1.32.22-3.5-.51-4.81-.95-8.24-19.46-18-38.34-26.25-57.81L259,217.89a26.55,26.55,0,0,0-6.26-4.59c2.25-4.37.94-9.26-1-13.34a5.49,5.49,0,0,1,5.11.22c6,12.17,10.42,24.93,17.27,36.67.51,6,6.13,9.69,9.48,13.85a18.24,18.24,0,0,1-.73,6.56C289,271,293.91,285.32,300.55,298.81Zm6.12,8.36c-2,2-9.19.75-7.29,6-2.41-.07-5.54-3.06-7.07-.22-2.84-1.45-6.78-4.08-10-4.37-.22.73-.44,1.46-.73,2.19-2.48-1.61-4.15-4.81-5.83-7.29,2.92-3.28,7.58-2.12,10.21-5.83,1.38-.15.53,4.52,6.34,0a5.19,5.19,0,0,0,4.37,4.59l5.62-.22C299.5,305.17,304.33,304.67,306.67,307.17Zm-43-28a7.1,7.1,0,0,1,1.9-3.35c5.68,4.73,11.37,12.24,15.3,19.39-1.19,4-4.37,2.48-4.37,2.48l-4.37-6.13-4.6-1.17C269.86,285.69,265.63,282.55,263.66,279.13Zm-9.77-8.46L252,269.43l2.18-7.29-2.91-.94c2.55-2.7,5.32-4.23,8.23-6.57,3.43,2.34,4.31,5.76,6.35,9a12.93,12.93,0,0,0-2.92,2.41c.66,1.16,2.92,2.84.73,3.93,4.23,3.58-2,6.2-2.7,9l-2.4,5.61c-1.61-2.77-1.46-6.63-5.11-8C253.6,274.54,254.11,272.71,253.89,270.67Zm-18.22-56.13a9.26,9.26,0,0,1,3.64-2,31.69,31.69,0,0,0,14.87,13.63,27.8,27.8,0,0,0,0,7.73l7,9.48L284.8,283.5l5.54,8.75c.15.95-.95,1-1.46,1.46h-.43c-7.59-9.19-13.78-19.61-19.69-30.11-.43-5.1-3.5-8.89-8-11.15C252.36,240,242.23,228.1,235.67,214.54Zm4.66,26.68-6.85-.44-3.86-3.93a9.66,9.66,0,0,1,5.61-.44Zm10.94-45.41-10.94.94c-3.35,4.23,1.9,12-4.37,14.15-1-.51-2.48-.51-3.65-1.24-1.53-.3-1.24,1.45-2,2.18-.15,6.86,2,13.42,2.91,20.2-3.72-8.1-9.91-16.48-7.8-26.25-.29-1.53-2.84-3.2-1.17-4.37,4.45-.15,9-1.17,11.38-5.1,4.66.65,7.21-3.5,10.93-4.89,8.73-.93,15.6,8,15.6,8C259.43,198.58,255.2,196.32,251.27,195.81ZM225,200.11c-7.52,1.72-12-7-12-7a33.42,33.42,0,0,0,12,6.12Zm-3.93,37.76,8,6c-1.78,4.75-7.58,1.3-7.58,1.3l-2.63-4Zm12.39,10.2-.44-2c1.75-.44,5,1,5.32-1.24l7.51,1.24.73-2a27.36,27.36,0,0,1,7.8,6.56c-2.48,3-5.54,4.45-7.07,7.8-1.89-.59-3.43-2-5.1-3.14-2.12.73-3.65,3.58-5.83,3.87-2.63-5-7.8,4.95-9.19-2.92l-6.85-3.13C223.93,250,229,249.39,233.48,248.07Zm6.85,12.1c3.79,3.36,7.5,8.83,9.58,12.63,2.09,4,4.35,7.42,6.46,11.43a40.88,40.88,0,0,1,3.86,3.43c.88-.66.3-1.9.73-2.7a76,76,0,0,1,11.67,18.23c-.37.65-1.24,1.09-.95,2l4.37,3.65c7.29,12.76,14.73,25.44,20.41,38.85l-3.93-.43c-5.25-12.54-12.4-24.35-19.17-36.23l-7.08-2.41-.21-6.34c-5.84-8.53-11.6-18.23-17.72-26.25-2.48.15-4.59-1.24-6.85-.72-.29-4.23-.88-9.19-3.65-12.18Zm46.59,53.68s4.25,0,4.49,1.51c9.66,15.25,13.22,30.25,22,45l-3.65-1.24c-2.33-5.54-5-10.86-7.07-16.55C296.76,334,291.81,323.18,286.92,313.85Zm38-47.33a19.54,19.54,0,0,1-.51-8.24C327.5,265.5,324.89,266.52,324.89,266.52Zm12.62-15.31,2.69.22,5.11-10.65,1.67,1.46c2.12-2.62,4.6-5.1,7.8-6.12a9.25,9.25,0,0,0,1.05,2,15.32,15.32,0,0,1,8.65-1.76c-.22,4.59-3.72,8.46-2.41,13.12l-5.1,5.1.22,1.17-7.51,2.92c-.8.58-.58,2-.29,2.69l-12.83-.72C336.78,257.48,337,254.27,337.51,251.21Zm5.1,11.88c.22,1.74-.07,2.48.51,3.43,3.86-.66,9.48-1,13.12,1.24-4.08,4.59,3.21,6.85,3.14,11.66a5,5,0,0,0-2.41,1.17c.87,4.52-4.59,6.56-3.64,11.44-2.12,3.79-3.36,8.38-7.59,10.21a13.93,13.93,0,0,1-3.86,3.13c1.46-6.41,7.65-13.78,2.19-20.12-1.68-.87-1.75,1.82-3.14,1.17L337.72,282c-1.16-.14-1.82,1.68-2.91,1l-6.27-9.25h-2.48C325.67,271.67,327.17,267.67,342.61,263.09Zm-9.7-40.53-.73,5.32c1.61,1.17,2.92-1.38,4.6-1.68-.44,2.7-3.21,4.82-4.38,6.78a7.12,7.12,0,0,0,3.87-.73c-1.1,2.85-5.32,4.74-5.32,8.24.87.29,1.74.51,2.69.73-.73,2.7-1.46,5.4-2.18,8l2.4,1c-1.46,1.6-2.11,3.79-3.86,5.1-2.41.44-5.18.37-7.07-1-1.68-8.6,1.16-17.49-.22-25.73v-2.19a21.08,21.08,0,0,0,2.4,3.43c1.46-1.53,1.1-3.72,2.19-5.4l1.46,2.19Zm-18.22-20.19c.51.87.58,2,1.68,2.69a15.67,15.67,0,0,1,4.15-.29c1,2.48,2.19,4.67,5.1,5.11l4.82,6.34c-1.54,1.24-4.23,1.89-5.33,3.64-1.24-.51-2.62-2.26-4.15-2-1.53,3.21-3.57-1.38-5.32-2.4-.51-.59-1.75,0-2.41.51-2.19-1.75-2.92-4.45-3.94-6.85A12.46,12.46,0,0,1,314.69,202.37Zm-3.94,22.08c8.58-.28,10.5,5.11,10.5,5.11-.73,1.31-2.26,1.89-1.75,3.42l1.46,3.65c-4.89,2.91.87,7.22-1.68,10.42l-.51,6.13c-6.41-5.11-14.29-11.16-13.85-20.71C305.5,229,307.67,225.5,310.75,224.45Zm-3.64-12.61.51.51-6.78,6.05c1.82,1.46,4.52,1.9,6.27,4.16-.08.51-.37,1.82-1.17.95a13.63,13.63,0,0,0-6.34-2.7l-2.41,8.75,1.68,1.75c-4.3,1.89-7.07,6.34-9.7,10.2,3.43,7,4.09,16.19,12.83,19.9-3.49,8.46,2.92,15.68,5.4,23.11,3.57-4.44,6.2-9.47,10.64-13.41,2.63-.8,3.72,2.19,5.62,3.94.29,1.24,1.38,2.26.94,3.86-6.92-.66-13.7,1.09-17,7.29l3.64,12.39a62.89,62.89,0,0,0,9.48,10.72A25.71,25.71,0,0,0,318.55,320c3.28,9.7,6.64,19.32,10.72,28.72,3.06,5.54,3.79,14.07,11.66,15.75l3.14,1.24c-.22,3.5-3.5,6.34-2.41,9.69,1.9,3.8,2.33,9.12,2.41,13.64-11.24-26.16-35.22-81.88-35.22-81.88-7.51-24.13-17.05-46.86-25.29-70.7-1.53-2.7-6.78-2.48-5.61-5.83,1.6-4.89-1.61-8.39-2.63-12.39l-6.56-19.69,4.81.22,2.7,8a53.93,53.93,0,0,0,5.83,4.16l-2.91,4.59c2.26,6.85,4.37,13.78,7.29,20.41,1.46-4.08,2.91-8.09,4.37-12.17l3.65,3.42c3.2-4.23.58-10.2,4.15-14.07l.44,3.87A32,32,0,0,1,307.11,211.84ZM295,194.35c.51.87,1.89.29,2.4.51.88,1.82-1.16,6.19,2.7,5.54,0,4.44-.66,8.6-3.21,11.95-2.55-1.31-5.68-1.31-8.24-2.69,1.1-2.7-1.75-4.38-2.69-6.56,4.74-1.83-.51-4.38-.73-6.57a11.92,11.92,0,0,0,3.42-9.25C290.71,189.75,295.88,190,295,194.35Zm14.58-18c-5.47,6.78-15,7.66-23.11,5.61-3.5,2.92-11.65,1.72-10.21,9.7.06,2.35-1.27,3.35-3.42,4.16-3.35.19-4.67-1.75-6.06-3.43-1.89-6.27-2.69-13-6.78-18.44,3.21-.15,5.84,3.06,7.29,5.83.88,1.75.88,4.23,2.92,5.1,1.46-5.25,7-8.67,12.39-9.26a20.9,20.9,0,0,1,9.19,2.92C298.07,178.53,303.83,176.71,309.59,176.34Zm3.13-14.58c-6.92,3.43-13.19,9-19.17,14.14a1.19,1.19,0,0,1-1.91.11,3,3,0,0,1,.67-2.8C296.39,165.92,304.63,162.49,312.72,161.76Zm-44.25-21.58c-.51,1.24-2,.66-2.91.44a53,53,0,0,0,8.74-21.14c.59-3.5-5.46-8.24,0-9.91,3.06,1.53,6.2,3,10,2.62,2.77-.44,4.74,1.09,6.78,2.48-1.24.66-1.46,1.6-1.9,2.92.66,1.38.66,3.06.95,4.59a20.15,20.15,0,0,0-5.83,2.18c1.9,1,4.23,1,6.56,1a8.1,8.1,0,0,1-3.64,1.75c-2.48-.87-6.13-1.09-7.08-3.64,2.27-1,6.35.29,6.86-2.92-.08-1.68-2.26-1.38-3.21-2.48l4.83-2.91c-3.35-3.42-7,.36-10.66-2.19a3.06,3.06,0,0,0-2.41,1.24A47.09,47.09,0,0,1,268.47,140.18Zm-4.37-13.41c1.46,3.65-4.89,5.83-2.63,9.77l3.14,3.64c-2-.58-4.45-1.89-4.89-4.15a5.07,5.07,0,0,1,1-4.89c.88-.43,1.09-1.27,2-1.78-.88-2.19-.29-4,.66-5.94,1.67-1.46,3.93-3.21,6.34-2.7C267.6,122.1,263.73,123.42,264.1,126.77Zm14.58,12.17c3.86-5.32,11.08-5.32,14.58-11.44,1.09-3-.08-6.93,2.69-9.19,3.72.51,6.56,4.6,9.7,6.57,2.26,3.35-3,5.81-1,9-.65,2.12-3.66,2.21-5.26,3.6l-2.92,5.83h-.72c1.67-3.65,1.56-8.62,6.44-9.64.46-1.52-.18-5.31,2.52-6.18a19.51,19.51,0,0,0-6.56-6.56c-.51,3.28.44,7.51-2.7,9.26-4.08,3.57-10.86,3.71-13.34,9.69,3.87-.51,8.61,2.77,10.94,6.56,5.32,1.83,11.08,4.67,13.63,9.77l-1.24.44c-3.72-8.38-13.56-6.12-18.73-13.12-2.34-1.17-6.35-2-8.46-.22C276.78,142.3,278,140.18,278.68,138.94Zm54.45-41.55a25.86,25.86,0,0,0,2.7-5.32,18.08,18.08,0,0,1-2,13.12,32.41,32.41,0,0,1-17.49,11.67c-.73-1.17-3-1.68-2.19-3.21C317.68,105.05,328.9,106.29,333.13,97.39Zm-35.21,2.7c-6.78.07-1.6-10.13-8.31-10.5l-13.56-.22c5.62-1.31,10.5-6.05,17-3.86L296,88.64A32.82,32.82,0,0,1,297.92,100.09Zm-35.28-35.5c2.55,6.41,9.55,7.8,14.14,11.44.37-9.11-14.94-14.87-5.61-24.05l.95.22c-2.41,1.67-2.78,4.13-2.92,6.78,1.17,4.81,6.49,7.5,9,11.44.58-4.81,11-3.79,5.32-9L280.86,59l-2.69,5.85L277.73,60c-1,.14-1.4,1.17-3.56,2.17.14-.37,4.07-7.79,4.07-7.79,3.28,2.85,6.92,5.54,9.18,9.48l1.24-.51c1.9,6.27,8.17,11.3,6.78,18.22H295c.58-6.85-5.84-10.41-7.08-16.53-5.1,2.33-6.23,6.53-8.86,10.76l-.5,1.86c-.12,2.19-.07,4.18-.33,6.39-.8-.58-.51-2-1-2.91l-4.1-5.84c-4.44-2.4-9.75-4.81-10.92-10.49C262.42,64.88,262.49,64.73,262.64,64.59Zm-12.1-4.16,7-11.88a30.13,30.13,0,0,1-10.21,22.82l-4.08,9.26a1.69,1.69,0,0,1-1,.51c-3.43-1.39-1.46-5.25-1.68-8C241.21,67.14,247.4,65.17,250.54,60.43ZM240,53.87l.29-.22c.73,3.43,2.63,7.66,1.17,11.67h-.44c-.07-4-1.14-7.47-1.58-11.33Zm-23,2c5.69,2.84,10.72,8.75,9.92,16l-.22,4.37c3.35-.51,7.58-.29,10.43,1.68a16.4,16.4,0,0,1-5.55-.28l-9,1.74c-.29-2,1.54-3.79,1.46-6C223.2,67.14,219.19,61.75,217,55.84ZM193.17,76.25c5.32.44,9.26,4.08,15.09,3.43,2.33-1.31,5.76-3.06,6.05-6.13-2.48-2.33-6.34.15-9.7-.21-5-.88-11.81-.44-13.41-6.35,0-2.26,1.68-2.69,3.43-3.35l1.23,1L193,67.5c2.05,4.17,13.22,4.33,17.49,3.65,1-.16-.51-2.19-1-3.14-1.53-1.31-3.57-1.53-5.54-1.75v-.43c1.83-.29,4.67-.59,6.05.22,2.34,1.89,2.63,5.61,5.84,6,1.09.43,2.11,2,.94,2.91-2.18,3.28-5.69,7.13-10.14,7.13-5.85-.83-10.4-7.47-16.57-2C189.83,76.83,191.33,76.5,193.17,76.25Zm0,50.3,3.86-6.78c-2.7-5.83-5.39-12.9-2.92-19.68-.07,9.11,3.07,16.84,9.48,22.6,2.77-.37,4.95-1.54,7.35-2.64,1.1-5.9-5-8.15-4.43-14.13-1.61-2.11-2.85-4.45-2.63-7.29-.43-5.83,5.18-9.11,7.29-13.85,1.53-1.38,3.06-1.24,4.6-2.7L225,83.54c2.92-1.46,6-3.28,9.7-2.19,4.81,1.24,6.27,6.2,10,8.75,6.12,2.19,11.81,6.49,12.83,13.34a2.58,2.58,0,0,0,2.69,1c6.35-3.06,3.14-12,3.65-18,.22-4.67-2.12-8.31-2.7-12.61l.51-.51c4.16,7.07,5.32,16.25,3.65,24.78,7.14-.36,14.58-8.75,21.87-2.19,4.52,3.14,8.38,8.53,14.07,10a1.7,1.7,0,0,0,1.45-1.46c-.29-8.38-.8-17.49,2.19-24.78.58-1.31,2.41-1.46,3.65-1a6.92,6.92,0,0,1,1.8.91c4.23.21,2.2-5.81,6-6,1.13,1-2.68,4.65-1.73,7.35l-2.13.91a5.83,5.83,0,0,0,1.68,2.4,5,5,0,0,1,2.74.39c-1.09,1-3.11.63-4.2.12-2.48-1-2.48-4.88-5.83-3.43-4.06,5.15-2.92,21.36-2.92,21.36,3.87-7.65,11.36-13.5,17.56-19.11,2.52-3.68.2-5.68-.79-7.86,1.24.58,3.35,1.68,3.64,3.43.22,3.5-2.84,6.7-4.59,9.26a50.3,50.3,0,0,0-16,20.12c2.56,5,9,6.63,11.89,10.93,0,0-12.47-1.15-18.23-9.18-8-2.34-10.28-14.58-20.92-11.45-4.15,4-12.25.8-14.58,7.29-1.75,10.28-19.9,13.63-11.66,26.24,3.42,7.37,8.38,10.43,13.85,16,5.76,3.14,12.68-3.21,17.78,1.68,4.23,3.79,7.22,9.18,13.56,7.8l4.38,2c-4.16-1-9.19,2-13.12-.73-4.23-4.16-8.34-8.27-15-7.18-2.77-.66-5.33-1.57-8.25-1.79-.87,6.2,1.69,10.33,4.35,15.83.84,2.5,1.22,2.91.93,4.51-4.3.58-10.42-1.82-14.87.73-3.93,3.64-6.78,8.31-13.12,7.8-2.26.07-3.94-1.17-6.27-.73-.95,2.7,1,6.56-1.75,8.53a8.53,8.53,0,0,1-6.56-.73c-3.06-2.48-6.05-7-8.24-10.5-8.6-4.52-17,3.72-25.73-.43v-.73c8.16,1.53,15.38-2.77,23.55-2,5.1,2,6.95,7.6,10.88,11.5a4.44,4.44,0,0,0,4.64,1.11c1.24-6.27-4.08-12.1-9.18-15.31-11-6.63-29.78-2.78-34.61-19.11,0,0,6.4,6,10.26,8,.58-2,.07-4.67-.44-6.78-1-4.08-3.06-7.73-3.64-12,3.15-8.56,12.83-6.27,12.83-6.27,3.72,1.83,6.27,5,9.77,7.29-5.91-1.38-13.05-8.6-18.74-1.75-1.82,1.53-1.68,4.38-.95,6.35a38.79,38.79,0,0,1,2.63,14.06,12.92,12.92,0,0,0,5.39,2c1.31-6.41,1.17-15.82,9.48-17,4.59-.08,9.33-1.17,13.34.95,2-1.75,2.19-4.6,4.37-5.84-.43,3-.12,6.54-2.75,8.36-5.32-2.41-12.63-2.6-17.88-.12-4.23,3.43-4.81,8.82-6.12,13.63,5,2.26,11,.71,16,3l4.2-2.24c0-4.08-2.7-7.87-5.32-10.93,4.16,2.26,6.49,5.76,8.46,10.2a35.36,35.36,0,0,0,6.34,1c.58-1.17.29-3.13,0-4.59l-.95-3.14c2.27-3,.28-10.78,6.72-11.61,1.51-.19,3-2.38,3.26-4.49-2.7-4.45-9.17-3.35-11.56-6.44-4.81-1.17-7.82,2.28-12.05,2.57,2-.8,3.57-3,5.61-3.86,2.55-.88,5.69-2.77,8.46-1,2.84,3.39,8.81,5.44,11,6.33,1.31,1.32.89,3.29.67,5.33-3.06,4.08-11.66,6.42-8,14.07.59,2.7,0,5.61-.21,8.24,4.15,2.11,8.38.14,12.61.29-5.4,4.67-13.42,2.7-19.18-.29-2.91-1.24-6,.07-8.23,1.75,5.68,4.59,11.66,9.77,18.95,11.15,4.67-.14,7.29-5.1,11.15-7.29,3.94-3.86,10.21-.87,14.58-.73-1.35-5.66-10.2-6.34-10.2-6.34,1.53-5.61,2.62-13.19-.95-18.22-5.32-7.07-11.88-16.19-7.8-25.23,2.41-3,4.3-5.46,7.8-7.29,1-4.66-1.46-9.11-3.43-13.12-4.37-5.32-11.73-5.68-13.63-12.39C234.5,80.33,225.24,85,225.24,85c-4-.22-8.24-3-11.66.51-.88,6.12-11.15,6.93-8,14.8,5.9,2.91,1.69,11.4,7.23,14.47.29,1.45-1,3.46.28,4.48a7.65,7.65,0,0,1,6.56,2.92c-1.17,1.75-2.92-.66-4.37-1-6.2-1.46-10.21,6-16,1.9-2.41,4-5.22,11.54-10.43,10.2,0,0-7.46-6.16-2.4-11.15l1.11-1.85C188,123.5,190,126.19,193.17,126.55Zm23.11-40.31h.43c1.46,2.33,2.7,4.81,4.38,7l1.23-3.75a64.15,64.15,0,0,1,4.16,5.21c.88,2,2.26,2.58,3.36,4.48,2.33-5.18,8.82-2.08,13.41-3.46-.29,1.38-2.63,1.24-3.94,1.89-4.48-.11-10.42,3.65-10.42,3.65-1.75-2.7-3.21-6-5.32-8.75a59.1,59.1,0,0,0-2.7,18.51l-.51,2.75c-.4.53-.52.28-1.18-.4.07-5.18,1.25-10.44,1.69-15.47C219.56,93.89,217.3,90,216.28,86.24ZM243,117.08c1.16-4.74.87-9.75,1.64-14.08-4.81.87-9,2.19-13,5.55-3.49,3.86-4.37,8.82-4.88,13.85,1.68.36,2.77-.73,4.59,0,3.94,3.13,10.35,2.84,12.18,8.53-5.62-2-11.08-9.55-17.28-5.11-2.62,1-4.37,3.65-5.32,6.05.51-2.69.36-6.12,3.13-7.51,2.12-6.41,2.12-14.28,8-18.44,4.08-3,10.64-3,13.63-7.07a1.69,1.69,0,0,1,1.46.73c-2.11,3.35-1,8.75-2,12.9L244,120C241.79,120.21,243.32,118.17,243,117.08Zm-60.73,8.52c-1.06,3.73,2.6,5.57,1.94,8.4,0,1.94-2.17,4-5.36,3.49-3.81-1.82-8.82-3.43-9.48-8a2.75,2.75,0,0,1,1-2.7,7.46,7.46,0,0,1,7.51-1.89c.8.14,1.46.65,2.4.43,7.22-11.15.59-24.49,2-37.18a24.88,24.88,0,0,1,5.11-9.47C180.19,93.53,192.66,111.75,182.23,125.6Zm4.94-56.1-5.89-2.21C182.42,66.63,186.83,67.5,187.17,69.5Zm-2.41,5.35C184.54,76.68,182,76,181,76.7c-1.67,1.12-3.49,1.64-5.29,2.69A9.32,9.32,0,0,1,184.76,74.85Zm-9.6,9.2.29.22c-.22,2.33-4.44,3.65-1.46,6a21.72,21.72,0,0,1,3.36,6.56l-1.68-.44c-1-3.06-3.86-5.61-3.86-8.74C172.76,86.6,173.85,84.71,175.16,84.05Zm-32.07,2.41,2.69,1c.95-1.68.95-4,2.92-5.11l3.43.29c-1.24,1.75-3.72,2.26-3.43,4.82,3.57,2.47,5.68,5.68,8.75,8.74-.51-5.46-4.3-12.24-.51-17.71,1.53-2,3.79-2.12,5.83-2.7,2.19,6.34,3.35,13,6.85,18.74,6.27,7.36,15.31,11.88,12.61,23.54a3.24,3.24,0,0,0-1.24-.22c2.85-14-11.88-16.4-15-27.7-1.54-3.86-1.46-8.38-3.65-11.88-1-.22-1.68-.73-2.7-.51-4,2.41-3.28,8.24-2.69,12.39,1.45,4.23,2.91,8.46,4.37,12.61-1.31,0-1.6-1.89-2.19-2.62-4.3-3.72-9.77-10.42-16-13.12Zm-.59,16.87a9,9,0,0,1,1.5,1.17c-1,5.33.17,16.5,1,23.27,1.63,9.56,5.55,15.4,11.46,22.11-3.57-1.46-5.61-4.37-8.31-7.51-2.92-4.88-4-10.21-4.81-16.33-1.1-.73-2,.51-2.92.73l-7.8.29c-4.68,2.34-3,6.66-9.48,5.1a6.25,6.25,0,0,1-1.67-5.1l1.16-.51c.81,1.53,1.83,3.57,3.94,4.16,2.41-.73,2.84-4.67,5.83-5.4,3.21-.51,7.6,1.12,10.08-2C142.22,118.46,141,105,142.5,103.33Zm-5.25,7.91c1.46,1,1.39,3.43,1,5.11-2.4,2.4-6.48,2.84-8.31,6.34l-1.16-.29C129.82,116.86,134.85,116,137.25,111.24Zm-10.64,26.47c-3.35-.59-7.73-.22-9-4.09-4.08-11.15,7.36-15.52,11.66-23.32-.73,7.87-16.4,15.2-9.4,23.37,1.38,1.41,3.34,2.66,7.5,2,6.92-1.11,13,4.16,20.86,12.75v.73l-13.34-10.21c-1.68-.07-3.72-.87-5.1-.21,4.44,3.86,9.4,7.58,13.63,10.93v.44A88.26,88.26,0,0,1,126.61,137.71ZM123,173.21c-3-1.1-4.82-2.85-5.11-6.05l.44-.51a15.74,15.74,0,0,0,5.39,5.83c1.68-2.41,1.88-5.67,6.27-7.29-1.67-2.55-6.34-.73-6.56-4.38-.36-1.38,1.32-2.77,1.75-3.86,1-.73,2.41-.66,3.65-1-1.1,1.82-3.65,2.19-4.38,4.37,1.24,4.16,7.29-2.18,7,3.65,1-1.24,1.68-3.06,3.43-3.86,2.66-2,2.58-2.74,6.05-1.46l3.43,1.46c-7.17-2.62-11,6.24-16.21,9.2-1.29,1.38-2.38,2.17-2,4.14,10.57-.44,19.83,5.54,25,13.41v1.46c-5.1-6.64-13.41-14.51-23-12.18C126.17,177,125,173.79,123,173.21Zm-.3,15.31c4.16-3,11.5-2.85,16.5,0,0,0-1.19,1.4-1.41,1.69C132.44,189,128,189.83,122.67,188.52Zm17.79,12.9c-1.53-.22-3.06-.44-4.15-1.75.21-1,.07-2.48,1.45-2.92C137.79,197,140.46,201.42,140.46,201.42Zm-20.41,9.91c2.19-1.53,5.47-.14,8.24-.22,8.71,1.56,13.85,8.53,13.85,8.53S127.17,215.83,120.05,211.33Zm13.56-9a46.77,46.77,0,0,0,5.61,4.88c7.66,4.74,19,4.9,23.55,12.61C154.17,211.41,140.61,212.79,133.61,202.37Zm50.59,30.1c-2,2.7-4.23,3.36-7.29,3.65-4.66.44-7-7.51-11.95-3.35-9.92,6.19-21.15-.73-30.33-4.38,9.84,1.68,18.59.8,28.65.73,4.45-1.17.8-6.2,1.24-9.26-.73-5.17-.37-9.84-2.19-14.58-5.39-5.25-13.75-.75-20.16-3.45,4-.22,7.55.39,11.12-.92-2.62-3.72-9.27-3.28-9.91-7.8l-.29-6.05c.65,2.11.51,6,2.91,8,3.28,2.48,8.13,1.52,10.61,5.38a15.53,15.53,0,0,0,4.26.33c.07-2.77-1.75-5-3.42-7.39a92.91,92.91,0,0,1-9.48-.51v-.51c2.92-.15,6.12.44,8.75-.44l-1.24-5.39c6.78,9.11,10.42,19.75,14.58,29.67.95-4.74-2.73-13.39,1-14.36,2.26,7,5.25,13.63,6.78,20.92C181,225.62,185.73,227.44,184.2,232.47ZM240,337c.51-5.18-.44-11.15,3.65-14.58l12.68-12.9c-7.2-11.36-15.7-18.86-23.33-28.43h-2.18c-3.94,1.75-8.39,2.77-11.45,6-4.3-2.12-3.57-7.29-5.32-10.94a47.07,47.07,0,0,0,12.1-2.62c-2.7-3.57-7.14-5-11.15-6.34-3.72-12.18-16-17.57-25.3-25.52l-4.59-4.15,1.24-3.65,8.24,5.1a43.09,43.09,0,0,0,8.74-.43l2.7,9.47c14.07,12.25,25.66,24.93,38.34,38.35,2.77,3.13,10.79,1.46,9,7.8.22,4.15,2.48,7.94,5.11,10.71,9.77,12.11,20,26.25,27.7,40.32-.58.95-1.82,1.16-2.7,1.67-4.08-5.68-7.51-12.9-15.09-14.79-.87-7.59-5.25-14.22-10.2-19.69-3.87,1.53-4.09,6.78-4.82,10.72-.87,3.43-5.39,5.69-3.64,9.91l2.4,6.35C247.4,339.71,244.27,338.18,240,337Zm6.56,15.53c-.14-3.79-3.94-8.46-.44-11.45l1.9,8.75c5.1,5.54,12.39,5.61,18.73,8v.73c-5.61-.66-11.29-1.1-15.81-4.38.36,6,2.91,11.89,4.66,17.28l-1.24.51c-3.35-4.74-4.74-10.28-6.78-15.6-1.46,1.53-2.11,3.72-3.21,5.61h-1.67Zm-16.25,72.39-2.7,4.66c-2.77-6.12-3.36-13.12-5.11-19.68l-1.67-.29c-.07-5.4-.07-10.79.95-15.75-.95-.44-3.5,0-2.19-2l4.66-13.34c-.36-1.46-2-2-2.91-2.91,5.62-5.32,19.34-9.82,19.34-9.82-.22-.08,6.45,2.84,9.53,14.63l-3.65-.22a120.07,120.07,0,0,1,1.75,13.34c-.65.66-2-.22-2.48.73.37,3.57-.43,6.63-1.16,9.77-5.47-.44-3.58,6-5.4,9C233,413.55,233.7,421.13,230.35,424.93Zm57.8,25.51c-4.15,3.86-9.4,5.1-15,5.39l-.51-2.47c-5.25-1-11.3-1.61-16.26-4.09l1.46-2.69c-4.16-2.92-8.39-5.76-12.39-9l2.62-1.75c-2.92-4.15-4.59-8.82-7.29-13.12,3.28-.66,6.12,1.16,9.48,1l2.91-4.37a33.46,33.46,0,0,1,8.53,5.54l1.68-2.63a43.22,43.22,0,0,1,9.77,8.46l2.91-2.41,6.78,9.26,2.7-1.46C287.35,440,288.23,449.93,288.15,450.44ZM286,412.1a72.35,72.35,0,0,1,2.18,12.83,31.32,31.32,0,0,1-7.5-3.65l-1.46.73-4.6-4.59-2,1.46c-4.09-3.72-6.56-7.88-9.26-12.4-1.17-.29-1.82.73-2.92.73l-5.83-10.71L251,397a73.56,73.56,0,0,1,2.91-21.87l3.43-2.19c6,.22,11.81.07,16.76,3.43l-.94,1.45c2.33,2,5.76,4.23,7.51,6.78l-2,2.92c2.18,3.13,5.17,5.32,7.58,8.53-4.52,2.33.44,5.39.95,8.24.29,1.82,1.31,3.42,1.45,5.32C287.64,410.2,284.8,410.05,286,412.1Zm.29-33.83a47.71,47.71,0,0,1-7.8-7.51,15.56,15.56,0,0,0-3.65,1.24l-5.32-10.71a18.9,18.9,0,0,1,9-11.67c.87,1.09-.29,3.05,3.42,2.92L293,350.13c1.38,1.17-.51,2.26-.22,3.65,3.28,1.38,6.92,2.11,10.42,3.13.22,1-.43,2.26-.51,3.43A27.74,27.74,0,0,1,310,364.2l-1.45,3.43c2.33,2.18,8.89,2.33,6.34,7.51,2.84,2.91,6.63,6.34,8.75,10-3.5.29-8-.58-11.67-.29-1-.51-2-2.11-3.13-1.68-1.1.88-1.86,1.35-3.43,2.41a33.76,33.76,0,0,0-5.83-4.08c-1.09.8-1.39,2.11-2.92,1.89-2.62-2.4-4.15-4.81-6.56-7.29C288.74,376.59,287.86,378.34,286.26,378.27Zm11.88,103.08H294.5a70.35,70.35,0,0,1-3.14,8.46c-5-2.85-4.37,4.73-7.07,6.85-4.52-5.11-8.31,2.69-12.61,3.64-1-2.84-.22-6.49.22-9.47a2.32,2.32,0,0,0-2.7-.51c.95-3.36,4.23-8.32,7.07-12.18-.51-.73-1.31-.95-2-1.46,2.85-3.64,7.66-4.3,11.23-7.29a2.67,2.67,0,0,0-1.24-2.62,40.92,40.92,0,0,1,12.9-2.19C297.85,470,298.94,475.59,298.14,481.35Zm16.55-37.18-2.92,7c-.29,4.37.15,8.38,2.41,11.66-2.18-.16-3.35-4.88-4.59-7.51,0,0-5.09,6.85-9.92,9.68.5-3.17,6.27-8.44,6.27-8.44-9.61,1.44-13.85-4.66-13.85-4.66,5.18,2,13.12,4.81,17.71,0a26.17,26.17,0,0,0,3.43-9c-5.4-.93-6.92-1.53-7.07-1.68l5.1-6.56c-.14-5.9-1.38-13.7,3.87-17.78a12.55,12.55,0,0,1,7.58-2.41c-3.5,7.95-5.91,19-1.75,27.48C319.06,443.08,315.56,441.62,314.69,444.17Zm36.45,59.05-2.7,3.64c-4-.8-4.52-8.82-9-3.42-3.13-2.12-5.32-5.11-7.58-7.8l-2.91.73-4.6-8.46-2.4-.29c-2.63-3.14-.29-12.1-6.34-10.21,0-5.58,2-11.81,2-12.39a22.57,22.57,0,0,1,16.77.73c.73,1.09-1.24,1.68-1.46,2.7,3,2.26,6.93,3.35,10.21,5.61l-1,2.19,8.31,6.05c-.22.73-.73,1.31-.51,2.18,3.35,2.26,6.27,5,7.8,8.53a10.33,10.33,0,0,0-2.92,1.17c1.1,3.28,2.63,6.34,3.36,9.77ZM340.93,423c6.2,3.94,7.51,12.9,11.88,19.17,7.44,17.64,14.51,35.94,20.42,54.46-.08,1.46.21,3.06-.22,4.37C361.56,475.3,351.94,448.84,340.93,423Zm36.16,187.35c-1.6,1.38-2.55,3.35-4.59,4.37,1.38-28.06-1.9-54.74-5.62-80.91-1.53-10.21-5.17-19.91-5.83-30.18l-.73-5.54a57,57,0,0,1,10.5,5.54,110.17,110.17,0,0,1-4.88,12.9C372.93,546.45,378.48,577.28,377.09,610.38Zm19.68-19.68c-7.29-21.58-11.95-44.25-17.49-66.63l.51-1.17,2.18.73c7,23.47,15.39,46.36,20.93,70.42C401.07,593.69,398.67,592.15,396.77,590.7Zm31.35,45.19L420.39,629c-4.08-23.4-7.87-47-15.6-69-4.3-16.62-9.4-32.88-16.25-48.41a26.45,26.45,0,0,1,1.67-5.54c9.84,23.33,16.19,48.63,23.84,73.12C416.83,586.83,426.67,622.83,428.12,635.89Zm-6.05-55.18c-4.23-5.61-5.47-12.83-7.8-19.46-5.4-19.83-12-39.3-20.63-57.81l1.24-3.65c2.62,3.54,5.45,9,8,14.58,8.51,20,17.13,39.88,20.41,62A7.71,7.71,0,0,1,422.07,580.71Zm8.53-16a16.66,16.66,0,0,1-5.62-1.46l-.72-4.59c-6.76-26.79-20.59-50.95-27.2-60.29l2.41-5.32C406.83,498.5,424.11,541.2,430.6,564.67Zm-5.83-74.86c-1,4.08,2.4,9.76-2.92,11.22l-1.75,6.05c-3.72-.73-4.67-8.16-9.7-5.1-1.67-4.81-2.33-10-5.1-14.36a11.74,11.74,0,0,0-3.64.29c-.66-8.16.43-17.64-1-26.24-.66-1.39-2.11-.51-3.21-.73-.07-4.81,2.77-9,4.16-13.42,7.07-.87,11.66,4.82,16.76,8.31.44.73-.65,1.46-.94,2.19l8.45,12.83-2.62,2.48a132.44,132.44,0,0,1,3.86,12.83C425.28,486.52,424.77,488.06,424.77,489.81ZM436.43,466l-4.16.22c-1.53-1.09-.65-5.4-3.86-3.43l-2.48-10.42c-1.09-.15-2.33.87-3.35,1.67l-2.7-6.26c-.73-.73-1.31.21-2,.43-1.6-3.35-1.16-8.67-5.83-10.42-.07-3.79,1.24-7.29.73-10.94,6.36-9.22,18.69,1.44,22.6,6.56,3.86,7.73,6.78,15.82,7.58,24.79,1.31,5.25,4.08,9.91,5.1,15.31l-9-2.19Z" transform="translate(-110 -42.5)"/></svg>
