<?xml version="1.0"?>
<svg xmlns="http://www.w3.org/2000/svg" id="Layer_1" data-name="Layer 1" viewBox="0 0 423.4 532.8" width="423" height="533"><path d="M501.5,438.9c-3.8-9.2-13.6-17.2-22.6-20.4-19.4-8.1-38.8,1.2-54,12-9.4,10.2-12.8,22.9-17.5,35h-.5c-2.7-10.9-4.3-22.4-6-33.8l.5-1.7c8.8-13.7,14-28.8,13-46.5-2.85-14.62-5.32-26.88-3.9-43.2-5.1,6.1-9.7,12.4-14.6,18.7-5.5,11.1-9,22.9-11.5,35.3-1,.3-1.8,1.4-2.9.7-4.8-20-5.9-42.6-4.6-63.9a14.24,14.24,0,0,1,6.8-6c7-5.5,16.3-11.2,17.5-20.6,1.4-12.9,4.1-25.8,10.1-36.2-11.1,5.4-21.1,15.6-29.3,25.4-4.8,6.2-5.3,14.2-7.9,21.4-.4-.1-1,.2-1.2-.3-1-18,15.4-28.8,26.1-42l13.9-21.6c5.5-8,13.5-13.2,23.1-12.9,8.3-1.2,15.7-9.2,19.7-16.4,5.6-8.8,18.6-14.5,19.2-25.4a8.39,8.39,0,0,0-4.1-3.8,143.93,143.93,0,0,0-30.7,8.6c-9.7,5.3-23.3,6.7-27.6,19.2-2.2,3.9-2.3,8.6-5.6,12-6.1,8.5-9.8,18-13.2,27.6a108.4,108.4,0,0,0-16.87,30.07,5,5,0,0,1-1.8-1.07,72.63,72.63,0,0,0,7.47-15.8c3.6-12.6-.4-25.6,4.3-37.7,3.4-5.3,8.4-9.9,9.1-16.3,1.1-11.4-3.5-20.5-5.3-30.7-1.1-5.5-.7-11.5-2.1-16.8-1.2-2-3.2-4.1-5.8-3.9-9.6,3.3-7.5,14.3-11.3,21.4-5.6,12.2-11.5,24.3-12.5,38.4.1,13.5,10.68,22.9,9.27,36.5,2.91,3.9,4.33,9.2,5.13,13.7-2-4.1-3.7-8.3-6-12.3-3.4-4.6-7.8-10.1-13.2-11.3-1.27,3.87-.43,8.2.57,12.7,0,0-5.34-13.67-14.64-19.77,1.5-9,8.47-16.63,10.27-25.53,6.4-18.2,1.8-40,9.6-57.6,7.43-16.1,30.93-40.1,33.27-53.1,2.33-9.17.83-25,3.93-40-7.1,3.5-14.93,8.33-20.1,16,0,0,4-23.67-1-34-13.1,12-28,21.9-39.1,36-2.9,3.3-3,8.5-6.5,10.8-6.6-18.6-17.6-35.5-25.5-53.3-5.4,22.9-22.4,44-14.1,69.6l-.5.5c-5.9-2.3-12.5-3.2-18.7-4.8-16.9-3.9-36.1-2.8-50.9,4.8a94.34,94.34,0,0,0,22.8,15.6c5.6,4.1,13.1,6.8,16.1,13.7-2.5,3.2-3.1,7.2-4.1,11-5.7,3.8-10.7,9.3-15.1,14.6l-.7-.7c-1.6-5.7-6.78-9.8-7.53-15.85L231,143.5c-6.2-5.8-7.9-13.9-11.5-20.9-3.7-7.7-11.8-9-17.8-13.2-9.8-4.7-15.8-16.1-25.6-20.2-5.8,12.4-3.6,19.8-15.6,33.13-3.33,3.84-6.5,11-5.83,20.67.66,11,8,15.9,8.93,26.6-1.6,11.8-9.6,21-14.4,31.5-.8,6.1.3,12.9.9,18.7l-.4.5c-14.2.2-30-2.2-42,3.8-8.8,11.7-13.5,25.4-11.3,41.3,2.5,4.2,7,3.6,11,4.3,6.5,5.2,13.6,9,20.9,12.5l1.9,2.4a72.56,72.56,0,0,0-10.5,13.9c-3.1,6-9.3,8.6-15.2,9.8-6.7.9-11.1,8.1-14.6,13.2-5.6,15-5.1,32.6-8.4,48.5l20.4-6.7c10.7-2.3,22.2,1.6,30-7.9l9.1-1.2c8.4-3,13.7-12.2,21.4-17.1a61.31,61.31,0,0,0,11.5-1.4c7.7-1.4,12.9-8.9,19.2-13.7,1.9-.5,3.9-2.1,5.8-1.4L195,339.5c-2.5,22.7,11.7,41.9,30.5,52.1,5,2.9,7.6,8.6,13.9,8.4,8.2-8.8,18.5-15.5,28.3-21.8,1.3-2.5.7-5.9.5-8.7-.5-7.7-10.7-11.2-11.7-18.4,1.2-5.4,4.6-11.3,2.6-16.6-.05-1,.07-1.12.7-1.4.9-.4,2.3-1.5,3.6-.8l24,13.7c10.9,4.5,25.4,4.7,37.2,2.7,7.6,3.3,14.4,9.9,19.9,16.8,8.8,11.6,19.5,22.7,24.8,35.5-15.4-10.7-26.9-26.8-36.5-41.8h-.5a95.5,95.5,0,0,0,2.2,35.5c5.1,19.8,26.2,31.2,42.9,38.9,9,3.6,11.6,13.3,13.2,21.6,12.8,12.7,20,28.8,25.2,44.2l-.7.7c-9.9-24.8-29.1-53.1-55.9-62.9-25.6-13.4-60.4-9.7-86.4.3-22.6,9.5-44.5,20.6-63.1,39.8-21.2,21.2-38.37,40.37-62.9,55.2,28.6-3.9,54.5-15.7,79.9-27.8l47-24.3c16-8.4,33-15.2,52.1-15.3,14.9,3,30.6,4.5,42.5,14.4,21.6,13.1,32.8,35.1,36.7,58.5l-.9,1c-2.3-4.9-2.4-11.4-4.6-15.6-2.8,11-5.6,21.9-10.8,31.9,2.6-12.7,8.5-25,7.9-39.1-2.2-5.3-5.9-10.2-8.9-14.9.8,34.2-5.87,44.87-5.87,44.87,1.67-15.34,4.67-35,2.27-50.37-3-3.4-6.5-8-9.8-9.9.7,3.1,1.2,7.1,1.4,8.9,2.1,16.4-1.6,32.5-2.4,48.3l.3,6.2c.9,9.9,3.6,20.3,12.5,26.6l15.1-14.8c21.8-24.4,30.9-54.4,38.6-84.3,2.6-4.4,4.1-10.2,8.9-12.9,8.5,11.6,8.9,26.7,11,41,1.8,25.2-2.8,49.6-4.3,74.4h.3l24-43c7.9-16.5,17-32.5,22.3-50.1C505.17,471.75,506.7,452.9,501.5,438.9ZM461.2,206.8l.1.83-.4.87c-7,9.1-14.9,21.7-27.1,23l-8.1,1.7c8.2-3.7,18.1-7,24.9-15.8,3.6-3.8,6.4-7.9,9.6-11.8Zm-36,16.8c.9-2.8,4-4.3,6-6.5,6.3-4.5,13.2-8.6,20.6-11-8.6,5.6-17.2,11.8-25.7,17.5Zm30.7-23.7c-12.09,4.32-24.57,10-35.8,18.2C431.48,206.72,440.22,203.88,455.9,199.9Zm-69.4-4.6c3.74,12.44,1.92,17.93-1.4,29.3A191.71,191.71,0,0,0,386.5,195.3Zm-19.2,34.3c-1.4,1.3-2,3.2-3.1,4.8.3-4,3-8,3.4-12.5-.7-13.5,5.7-24.8,10.8-36.2-3.9,13.3-10.3,26.2-8.4,41.3l.77,1.4c2.71-1.9,4.53-5.1,6.63-7.9l1.9.2c.9,3.4,3,6.8,4.1,10.4-.3.2-.5.6-.9.4l-5.1-8.1a23.11,23.11,0,0,0-6,7.2c2.1,4.6,2.9,9.7,3.6,14.9-.8.7-1.3-.3-1.4-1C373.1,238.9,371.3,233.8,367.3,229.6Zm-25.2,30a124.51,124.51,0,0,1,23.3,40.1c-12.1-11.1-20.4-26.3-34.1-36.5-14.9-12.9-36.2-19.6-55.4-12.7-4.07,1.33-9.73,5.5-13.23,7.83-3,1.5-4.77,1.07-4.77,1.07,1.9-10,13.1-11.9,20.4-16.1l13-11.8c7.3-2.8,11.6,4.5,17.5,6.8C321,242.8,331.7,251.6,342.1,259.6Zm-55.9,37.9c-6.7,3.5-15,.9-21.3-1.4v-.5c12.2,2.2,21.9-3.9,34-2.1l10.1,3.6c8.2,2.3,17.4,2.1,25.5,4.8-8,2.3-17-.4-25-.5C301.7,300.8,294.7,293.4,286.2,297.5ZM322,333.8c-12-5.2-22-15.3-36-15.6-11.5-1.2-22.4-4.5-33.4-6.3a16.34,16.34,0,0,1,14.2-8.1c11.6,4.9,24.5-4.9,35.3,2.9C304.7,317.4,314.5,325.5,322,333.8Zm4.1-38.4c-12.6,3.6-22.4-7.9-35.3-5.5-7.6,4-16.2,1.6-24.3.2-6.67-.77-14,12.9-17.5,14.4-3,1.33-5.9-3.1-6.2-5.5,7.3-15.2,26.2-16.83,39.07-19,34.63.86,56.13,10.53,67.43,17.13C341.8,298.5,334.3,295.5,326.1,295.4ZM225.7,259.9a1.16,1.16,0,0,1-.4,1.6c-2.88-1.25-5.9-1.5-8.4-3.3-8.5-4.5-14.42-12.45-18.42-20.65-1.5.4-3.58,1.65-4.68-.45,5.3-3.4,10.7-6.5,17.1-7.2l.4.4v.5a39.63,39.63,0,0,0-10.8,6C205.7,247.7,216.9,252.8,225.7,259.9ZM198.33,251c.67,1.17,0-.33.67,1.33-3.5,1.84-8.3,3.77-8.5,8.77,9,6.3,19.5,9.1,30,12-4.33,3.4-31.5-9.2-31.5-9.2-2.17,4.43-3.8,1.2-3.8,1.2C185.83,263.67,189,251.33,198.33,251Zm24.07,28.3,1.64.05c0,2.3-.94,4.55-.94,7.35,7.4.4,14.3-2,20.9-4.5-2.5,3.6-7.3,4.7-11.5,5.5h-8.9c-2.3,1.4-.2,6.8-3.9,6C219.5,288.5,220.8,283.8,222.4,279.3Zm24.7-4.1a1.45,1.45,0,0,1-2.18-.07c-3.9-3.8-8-9.43-11.52-13.33-1.7.8-3.1,2.1-5,2.4.36-2.43,4.77-5.2,7.2-6.3,2.07-.9,3-2.2,4.3-.4l-4.8,2.4Zm36-67.7c.7-1.6-.27-8,3.4-11.7,2.67-2.13,6.5-5,9.6-7.9,4.9,2.3,5.2,8.3,6.7,12.9,2,6.3,3,13.2,6.9,18.5,2.8,6.1,12.47,18.87,12.47,18.87-8.67-.5-16.37-9.07-24-13.07-6.37-2.77-17.7,9.6-17.7,9.6s4-9,3.8-13.5Zm34.1,19.2c-6.3-13.3-13-26.7-14.9-41.5a3.89,3.89,0,0,1,1.9-1.7c2.2,10.4,6,22.83,11.47,32.17a68.38,68.38,0,0,1,7.23,15.43C320,231.5,318.55,229.13,317.2,226.7Zm-7.7-44.8c1.6-4,5.7-4.9,9.1-6l1.2-1.2c.7,14,9.2,24.8,8.9,39.3l.5,17.3C317.17,216.67,309.17,203,309.5,181.9Zm16.1,1.2c-1.6-4.5-1.1-10.5-.3-15.2a29.51,29.51,0,0,1,11.1-1.4c4.5,21,4.1,46.1-1.5,66.5l-1.4-2.7C332,214.4,332,197.3,325.6,183.1Zm-1.9-19.5c-5.4,2.6-6.9,9.7-12.8,9.9-7.1-.3-12.2,5.2-15.8,10.8-5.9,4.2-15.3,8.2-16.1,16.5-2.3,11.5,2.3,25-5.7,34.1-5.6,4.4-12.2,6.5-18.8,8.6,4.3-8.7,11.9-16.1,14.4-25.6,2-14.8-2.2-33.2,10.1-44.2,6.4-4.5,10.1-12.5,18-13.4,11.1-2.9,24.1-1.8,35.1,0C329.8,162.1,326.4,162.4,323.7,163.6Zm-67,102.5c11.6-9.8,25.9-17.1,42-13.7,5,0,9.6,2.5,14.2,4.3,10.6,5.7,21,11.9,30.2,20.9-18.9-10.6-40.6-21-64.8-15.6-6.6,1.9-12.9,4.7-19.4,7Zm19.7,9.6-14.7,1.2a5.53,5.53,0,0,1-2.6-4.1c0-1.4,1.6-2,2.6-2.4,15-5.9,33.7-7.8,50-3.3,12.3,4.07,32.5,16.6,43.2,27.8C330.6,283.8,305.8,272.7,276.4,275.7ZM286.9,161c-7.3,9.9-21,17.6-21.6,30.5-2.2,15.4.2,32.8-12.2,44.1-2,2.2-3.9,4.6-6,6.5,2.7-7,6.3-15.6,7.4-24.2-1.4-10-1.5-20,1-29.6,4.1-10.7,15.8-18.9,22.3-28,8.6-8.2,18.6-16.1,31-12.3,7.1,2.2,15.9.5,22.8,3.4l9.6,5C323.2,156.9,302.2,148.3,286.9,161ZM386,118.93c-9.36,15.32-25.88,27.67-30.68,45.17-6.5,10.4-3.4,24.8-4.5,37.4-2.4,9.2-2.6,19.3-8.2,27.2-1.5-18,4.1-36.3.7-54l-1.9-10.8c3.8-1.5,7.9-2.1,11.8-3.2.7-1,.6-2.3.7-3.6,10.4-21.8,34.3-38,35-63.8C390.7,101.3,390.05,112.25,386,118.93Zm-8.08-23a64,64,0,0,1,11-16.8,223.65,223.65,0,0,1-6.4,29.6c-5.1,12-15.2,22-22.8,33.1l-1.7-.3C364.5,126.3,373,111.9,377.9,95.9Zm-18,31.7c-3.2,6.3-6.1,12.6-9.6,18.7-2.8-1.3-5.1-3.9-7.4-6.2,1.8-18,6.2-34.9,17.5-49,4.3-9.5,11.8-17.6,15.1-27.6A141.47,141.47,0,0,1,359.9,127.6Zm-25.2-24c3-17.6,21.5-28.1,34.1-39.3l-1.5,4.5c-8.7,15-21,27.9-24.9,44.9-1.3,8.9-2.3,16.9-3.4,25.9-.5.3-.9-.3-.9-.7C339.6,126,332.3,116.2,334.7,103.6Zm-3.4,10.6a102.43,102.43,0,0,1,.5,23.5c-1.5.3-3.1-.5-4.5-1l-.8-11.5c-4-9.4-3.1-21.3-3.6-31.9C328.3,99.2,329.3,106.9,331.3,114.2ZM311.4,89l.7-16.1c11.8,14.9,6.2,36.9,10.4,55a11.32,11.32,0,0,1-.8,5.5C312,121.2,309.2,105.5,311.4,89Zm-16.3,5.3c2.8-9.8,7.7-18.6,9.1-28.8,3.8,5.4,2.9,13.4,2.7,20.4-2.9,17-.2,35.3,8.8,49.2-3.3-1.1-7.4-3.6-10.8-5.3C297.3,119.7,291,107.7,295.1,94.3Zm-42.7,22.5c17.2-3,33.4,3.7,46.8,13.7-6.1.1-13.2-1.6-18.7,1.4-11.3-1.9-19.9-9.9-30.5-13.4C250.1,117.2,251.5,117.1,252.4,116.8Zm-8.7,9.4c-4.2-1.6-8.7-2.5-12.4-5.3,16-.7,29.5,5.1,41.7,15.1,1.17.63,2.3.8,3.1,1.2l-9.1,5.1-1.9-.8C257.9,136.7,251.2,130.5,243.7,126.2Zm-2.1,62.9c-3.3-13.5,10.3-21.8,17-32,4.7-12,18.4-11.4,26.4-20.8,11.2-5.6,21.6,4.9,33.9,4,11.3-.5,20.1,7.3,28,14.7-8.7-2.3-16.1-7.8-24.9-9.9-12.4-1.1-28.8-4-38.9,5.3-4.5,4.6-10.4,6.6-15.1,11.1-13.1,13.1-21,28.7-18.7,48,2.7,9.3-1.4,17.6-4.6,25.4-1.9-12.6,5.4-27.6-5-37.4C239.9,194.5,240,191.5,241.6,189.1Zm-5.3,29.5c-4,.9-6.82,4.48-9.22,8.07,5.09,10.1,8.12,20.33,18.82,27.43-2.8,1.9-5.7-2.9-8.4-4.8-6.83-5.63-12-22.1-12-22.1l-6.5,6-.7-.2c1.7-3.1,2.75-6.25,5.75-9.08,3-3.79,7.25-5,11-6.52A6.58,6.58,0,0,1,236.3,218.6ZM225,144.7c3.3,9,2.8,19.7,9.4,27.3,1.9,6,.4,12.9.2,19.2-19.3-10.4-15.2-33-20.1-50.6a33.78,33.78,0,0,0-9.6-22.6C218.9,120.1,217.3,136.2,225,144.7Zm-13.2,16.8c-2.8,19.1,19.9,27.7,18.5,46.3-11.5-13.4-27.3-22.9-26.2-41.8l-.7-10.5c-7.3-10.3-1.9-24.3-4.5-36.3C212.2,129.2,210,146.3,211.8,161.5ZM184,107c14.9,9.9,5,29.9,9.6,44.4.5,3.6,2.7,6.6,3.6,10.1l1.9,17.7c5,8.5,9.7,17,18.2,23.3l4.8,9.1c-3.6,4.23-7.6,10.1-7.6,10.1-11.1-8.6-14-21.6-22.6-31.4-4.8-9.9-4.6-22-6-32.9-5.6-12.3-4.7-29.1-1.7-42.3Zm-19.2,23.7c3.9-9.1,11.5-16.8,12.9-27.1,3,14-5.6,27.4-.9,41.5l5.7,18.8c-1.1,16.6,3.6,30.9,11.8,43.6,3.7,5.6,9.2,10.5,13.4,15.9-6.4-.4-11.8,3-17,6.2-2.8.2-5.3-1.8-7.4-3.8-3.1-4.9-4-11.1-4.8-16.6-4.1-5.1-6.2-11.1-7.7-17.3.3-9,3.1-20.5-2.4-28.3C164.3,153.9,159.9,141.6,164.8,130.7Zm1.4,41.3c2.6-2,2,2.9,2.4,4.6.1,8.6-3.5,19,1.2,26.4.6,3.3,2.5,6,4.1,8.9,1,8.6,2.7,17.2,10.6,22.8,3.1,3.1,7.2,5.1,9.6,8.6-5.7,1.7-10.3,6.1-14.9,10.3-4.5-.4-8-4.4-11.5-7.7-12.5-10.3-12.2-27.9-7.7-42.2C156.6,191.8,165.7,183.2,166.2,172Zm-57.3,60c11.2.2,19.1-8.9,30.4-6.9,10.6.9,15.9,11.5,20.9,19.4-6.1-1.2-10.2-8.8-17.5-7.9l-14.2.7c-8.3,3.1-16.3,4.8-24.9,7.2C103,239.9,105,235.3,108.9,232Zm-6.3,17.1c12.5-4.6,26.8-9.2,41.5-7.2,6.5,2,12.2,5.9,17.8,10-10.9-2.2-21.7,2.4-32.6,3.9-9.6-3-19.5.3-28.6,1.9C99.7,254.7,100.5,250.9,102.6,249.1Zm9.9,15.3L101.7,263c5.6-6.4,16.4-1.8,24.7-2.9,13.4,1.5,24.5-6.8,37.9-3.1,4.8,2.2,10.4,4,14.9,7.7-7.4,5.5-17.4,2.7-25,7.9-6.9,2.9-15.3,7.6-23,3.6C124.8,272.1,119.3,267.3,112.5,264.4ZM90.43,339.13C93.33,328.5,95,312,109.6,310.5c9.9-1.7,14.3-12.3,18.7-19.9,5.5-4,12.3-5.4,17-10.8,17.9-5.4,43.1-14.1,59.6,0-22.9-1.5-49.2-2.9-65.8,15.1-6.7,7.7-14.5,13.3-22.8,18.2l-7.7,9.6C101,327.17,90.43,339.13,90.43,339.13Zm119-48.33c-20.4,4.7-42.5,6.1-57.1,23.8-5.9,8.4-10.2,19.8-20.9,24-9.5,3.2-19.7,4.7-28.1,10.8,4.3-9.1,11.8-19.1,21.6-22.1,9.3-4,12.6-14.7,21.4-19.7C165.8,298.4,185.7,287.8,209.4,290.8ZM98.5,342.2c2.1-9.9,12.2-14.6,18.5-22.8,8.4-9.3,20-13.5,27.6-23.8a60.89,60.89,0,0,1,18.3-10.1c13-1.1,26.5-4,40-1.2-20.2,3.3-40.4,6.6-57.1,18.5-13.6,10.7-27.1,21.6-41,31.7C102.7,337.1,100.5,339.8,98.5,342.2Zm99.6-28.8c-9.1,7.2-17.2,16.9-30,15.3-7.9-.2-9.4,8.9-14.8,13-5.9,4.5-13.4,5.1-20.7,6-3.9,2.9-7.8,6.2-12.2,7.9-6,.5-12.6-.5-18.5.5,12.1-7.6,26.1-11.5,38.9-18,10.2-10,15.5-25.5,29.7-30.5,14.2-6.9,31.4-9.2,47.8-7.7l18.7,4.4c-3.8,3.9-6.7,9.9-12.7,10C215,315.5,206.1,304.7,198.1,313.4Zm4.6,45.3c-3.6-9.9-2.4-20.6-1-31.2.8-2.1.8-5.1,3.2-6,3.5-1.2,5.9,2,9.1,2.4-.9,14.3-8,29.2.5,42.3a139,139,0,0,0,18.4,24.7C225.67,386.63,206.2,374.33,202.7,358.7Zm38.9,32.4c-28.27-19.27-30.1-41.43-23.1-63.8,2.6-3.2,6.5-4,10.4-4.6-.2,4-2.4,13.3-2.2,14.4-.8,3.9-2.87,16.73,1.7,26.7,3.4,9,10.6,16.5,17,24.2C244.2,389.3,242.5,389.7,241.6,391.1Zm12.2-65.7c1.3,5.9,5,13.4.5,18.9-2.3,3.9-4.6,9.3-1.9,13.7,4.3,5.1,14.9,9.7,11.5,17.3L250,384.2c-17-8.37-20.5-29-19.2-44.7,1.2-7.17,2.7-18.83,9.3-18.9,1.23-.43,4.2.9,6-.3,4-1,8.2-3.8,13-2.8C257.6,320.4,253.7,321.7,253.8,325.4Zm66,18.9-.5,1.2-24.7-.2c-12-5.9-24-11.1-35.5-17.8.3-2.9,3.2-5.2,5.5-6.9a74.12,74.12,0,0,1,43.2,10.1c5.37,3.47,10.2,6,15.4,10.5-8.3-2.9-16.2-6.9-24.7-9.3A60.61,60.61,0,0,0,319.8,344.3Zm12.5-6.9c-3.9-7-4.8-15.3-10.3-21.6,0,0-5.17-5.63-7.17-8.13C331.17,310.5,350,295,358.5,309.5c2.5,4.33,3,15.17,3.3,19.7,1.37,14.13,2.7,28.3,4.6,41.8a111.37,111.37,0,0,1,7.4,11c-.2.4-.8.4-.9,0C362.6,365.8,347.6,350.1,332.3,337.4Zm52.3,91.7c-17.6-6.9-35.5-21.1-43.9-38.9l-4.3-10.3c7.4,9.7,12.6,20.8,22.5,29.5,10.6,9.2,26.1,10.8,32.9,24.5C389.2,432.8,387.2,430.2,384.6,429.1Zm-14.1-26.9c24.67,13.63,24.5,23.3,24.5,23.3C388,416.33,373.16,404.08,370.5,402.2Zm20.4-2.4-.3,10.83-1.2,1.47c-2.5-15.2,1.6-30.4,8.4-43C395.4,379.2,390.2,388.6,390.9,399.8Zm7,17.18c4.2-12.9,7.32-25.15,5.22-42.55C411.67,391.5,398.42,417.13,397.85,417ZM360.6,457.6a61.51,61.51,0,0,0-12.5-6.5c-11.13-4.44-33.57-9.26-46.3-4.8-23,4.14-64.53,31.22-85.2,44.9,32.7-23.5,64.3-51.7,107.8-48.9a87.87,87.87,0,0,1,37.43,14.2C360.67,457.33,361.5,456.83,360.6,457.6Zm15.6-.9c-17-16-38.45-20-61.45-21.6-35.5,2.2-65.55,16.9-93.75,37.4-7.1,5.5-14.2,10.8-20.9,17,14.4-15.9,31.8-27.7,49.2-38.1,32-17.3,79.5-28.1,113-6.5l11.5,7.9,3.85,3.15Zm66.5-7.7c-10.8,11.1-16.9,24.2-21.6,37.9h-1c3-14.7,8.9-28.2,20.9-39.1-3.4-2.8-8.3-5-12.7-2.7-3.1,2.4-7.5,5.07-8.9,8.38a4.46,4.46,0,0,1-.9-1.18A22.68,22.68,0,0,1,432.1,442c8.6-.4,15,8.5,18.3,15.1C449.55,457.75,446,451,442.7,449Zm27.8,41c-1.29-14.94-2.86-30.47-8.9-43.65-5.27-9.35-10.1-10.68-11.9-11.55,3.1-2.1,11.47,1.37,18,19.5C471.4,465.5,470.5,477.6,470.5,490Zm10.8,12.3c1.7-29.13,4.2-67.13-21.47-79.95l-.13-2.15c17.7,4.7,22.13,24.8,25.17,39.47C487.17,471.67,485.5,488.8,481.3,502.3Z" transform="translate(-81.5 -46.5)"/></svg>
