<?xml version="1.0"?>
<svg xmlns="http://www.w3.org/2000/svg" id="Layer_1" data-name="Layer 1" viewBox="0 0 473.5 565.94" width="474" height="566"><path d="M461.53,402.47c-27.29,7.45-51.43,22.6-74.84,39.28-45.15,38.67-44.4,48.8-55,67.67a2.9,2.9,0,0,1-.66-1.84c5-9,7.16-15,11.67-21.11,4.05-13.05,5.75-27.14,6.8-41.39,2.11-24.63-1.05-49-2.51-73.15-3.24-28.43-7.8-54.92-18.65-80.28-1.7,1.06-3,2.34-4.86,3.56l-.79-.63c4.54-7.21,10.93-13.77,16.93-20.41a167.3,167.3,0,0,1,17.66-11.83c10.2-4,20.49-8,30-13.85,13.52.32,24.7-5,36.12-9.72h2.76c18.22,4,33-5.1,48.19-10.85,7-.81,14.66-1.3,18.47-8.59h.56c12.34,16.09,16.68,13.59,28.76,13.85-2.51-6.48-4.86-13.36-10.69-18.06,16.77-7.54,16.77-14.37,15.23-28-5.84.81-11.1,3.73-16.77,4.3,1.13-6.08,3.24-12.4,1.54-18.88-5.59,2.92-12,4-16.85,8.75-8.26,7.13-7.7,18.31-8,28.19l-7.21,6.4c-1.29.24-2.83,1.21-4.05.57l2.51-8.91c-1.37-7.46-1.62-16,.25-23.33,6.8-6.89,14.58-14.1,15.14-23.9,3.4-13.52-5.18-23.24-10-33.61-6.56,3.64-12.72,8.1-19,12.39-1-2.35-1.21-5-1.94-7.53-3.24.89-6,2.75-9.15,3.89-2-6.08-4.38-11.91-7-17.74-5,3.32-10.53,5.42-15.39,9.15H430c1.46-7.45,1.38-16,.73-23.89-.89-5.27-2.1-10.61-1.94-16.12-10.53,2-19,9.8-29.16,12.39-5-5.51-11.26-9.56-15.71-15.31-1.79,3.89-5.35,7-8.75,9.88-2.11,2.27-3.4,5.51-6,7.37C361.58,99,353.48,97.83,346,95.32c1.37,13.53-2.19,28.35,6.4,38.88-9.32,4-18,9.56-26.41,15.55l-2.51.41-8.18,7.94c-2.19-3.16-3.73-7-6.24-10.29,8.26-7.05,13.37-16,20-24.06-5.43-3.08-11.26-5.34-16-10.37-6.56-6.23-15.31-7.53-24.46-7.53-1.3-6.64-.65-14.33-1.38-21-10.77,10-23.41,15.8-35.72,22.12-6.8,1.13-14-.65-20.65.81-3-.17-5.67,1.21-8.34-.41-.57-4.94-1.14-9.8-2.92-14.17-5-15.47-7.29-32.16-12.23-47.47-4.29,5.83-7.7,12.31-11.67,18.06-4-2.91-7.69-6.56-11.9-8.91-1.54,4.13-2.68,9-6.56,11.67-7.78-1-16.28-.41-23.57-1.95,1,6.16,1.78,13.45-1.3,18.88-8.75-.41-16.12,2.35-23,6.4,2.18,5.91,4.37,12.06,5.1,18.3-7-4.29-15.63-2.67-24.14-3.32-.65,9.07-3,19,.41,27.62-5.43,3.24-10.37,8.67-14.75,13.61-13-.89-27.94-1.46-39.52,3.48,6.8,9.4,7.77,21.22,13.44,31.1-2.59,2-5.91,3.65-7.61,6.81,4.62,5.59,7.33,10.25,14.58,15,8.25,5.1,17.74,8.91,28.43,7.37a20.89,20.89,0,0,1-5.1,3.65c-5.35,2.67-11.91,2.08-16.53,7.05-2.55,3.53-3,13.69-.16,19.44-.81,4.78-4.21,9.72-1.54,14.74.65,1.13,1.15,2.52,4.15,2.85,2.84-.16,5.34-5.83,7.78.57.87,2.29,1.92,3.62,4.76,3.22,7.21-2.11,5.34-10.29,7.61-15.55,2.19.73,8.85,3.26,9.88-3.89-.73-8.91-1-18.79-8.34-24.87l1-1.94c8-6.4,17.5-9,26.81-12.07,12.31,1,23.65-1.38,34.43-4.7C182.9,201.67,198,201,210,195.84c4.94-1.05,9.31-.4,14.42-.57l7.37,2.35c14.17,6.89,26.89,17.42,39.61,27.79,21.62,16,30.29,40.17,44.14,60.83-15.79,27.94-29.32,56.86-36.93,88.29l-8.91,48.59c-1.22,11-1.46,22.52-3.49,33.21a554.6,554.6,0,0,0-38.55-56.94l-41-50.54c-13-13.93-26.08-28.27-40.42-41.63-14.66-14.14-30.94-31.92-50.95-38.07,14.26,19.19,29.08,38.23,41.4,58.31l25.83,38.64,10.94,17.17,24.87,38.88c10.93,19.6,24.78,38,36,57.51,4.86,8.83,12.07,16.61,16.36,25.68,5.75,3.56,11.75,6.64,17.09,11.26v1.78c-4.94-3.56-10-6.64-15-10-43.85-22.84-74.44-22.52-74.44-22.52-26.08-.41-52.92,2.37-76.41,8.68,0,0,28.5,1.67,43.36,6.47,24.14,6.64,50,10.2,72.33,21.78,26.65,11.91,49.14,31.09,72.24,52,12.74,12.23,20.75,23.8,29.58,36.43l.81.41c9.64-40.42,25.18-80.61,52.18-111.27,21.83-24.17,42-45.87,67.94-62L485.59,412c14.34-7,44.45-20.95,44.45-20.95C501.7,389.92,484,397.08,461.53,402.47ZM518.64,229.7c-3.73-.73-7.37.65-10.86-1.22-6.07-2.91-9.72-9.23-11.5-15.14C505.84,213.74,513.45,222,518.64,229.7Zm-24.87-23.33c-.16-3.08,3-5.1,5.26-7.05,1.54-1,3.16-2.75,5-3.48C502.68,200.54,498.31,204.67,493.77,206.37Zm24.7,1.54c-3.8,2.67-8.91,2.35-13.6,2.92a154.29,154.29,0,0,0,18.46-13.21C523.42,201.35,521.31,205,518.47,207.91Zm4.3-15.55c-5.75,7.53-13.85,11.91-21.39,16.28.41-3.16,3.49-6.08,5.84-8.91A43.66,43.66,0,0,1,522.77,192.36Zm-30.38,1.94c2.27-6.32,7-13.52,13.85-15.79-1.78,8.42-7.45,15.47-13.6,21.62C491.5,198.92,492.15,196.09,492.39,194.3ZM344.08,265a75.6,75.6,0,0,0,9.72-11.82C353.48,258.29,349,263.31,344.08,265Zm40.83-77.11-.41.33c-3.81-4-5.83-9.32-8.75-13.93-4.61-5.84-12.23-9.64-10.28-17.9,3.64-6.73,12.71-3.65,18.87-6.08C382.8,163.12,386.45,175.11,384.91,187.9Zm-37.1-24.13c-6.64,2.75-10.61-4.46-15.8-7,8.1-2.83,16.61-4.7,25.11-6.64a76,76,0,0,1,13.61-.81C361.9,151.37,357,162.39,347.81,163.77Zm7,4c7.69.32,14.33,4.05,19.43,9.72-7.77-3.73-19.35-7.86-27.37-1.7-3.16,2.26-6.64,4.77-8.75,8.18C340.36,176.89,346.84,168.87,354.78,167.82Zm-11.51,14.82c10.93-14.56,26.08-3,32.08,1.54-9.64,4.45-25,7.37-26.24,21.22.4,10.93,8.93,22.52,1.59,33.52-.5-7.84-1.83-18-9.33-31.67C336.87,197.25,340.1,187,343.27,182.64Zm-3.48,47.22c-4.7-5.43-12.55-3.56-17.25-8.34-6.08-6.89-17.34.89-22.76-7.37-8.43-8.43-8.91-20.09-17.09-28.6l.16-.24c7.29,3.08,14.42,6.48,22.19,8.43,11.42,5.18,21.22,14.66,30.7,24.3A37.89,37.89,0,0,1,347.4,242.5C342.22,240.23,344.08,233.34,339.79,229.86Zm44-15.15a55.9,55.9,0,0,1-6.48,26c-4.69,4.14-11.5,3.16-17.09,5.27a5.74,5.74,0,0,1-2.67.4c1.7-7.61-2.43-14-1-21.78-.81-8.67-4.86-19.2,1.94-26.41,4-4.44,19.87-10.61,19.87-10.61C378.2,191.75,385.37,204.75,383.77,214.71Zm3.49,5-.41-16.93c-1.54-4.38-4-8.67-4.7-13.21V189c2.92,1.37,3.65,4.05,5.27,6.4,4.37-2.6,6.15-7.21,7.37-11.67l1,.25c-2.27,10.44-1,22.35-3.24,32.8C390.74,217.79,389.28,219.41,387.26,219.74Zm15.61-70.66c6.67,14.34-8.67,25.5-12.94,39.8l-.73.16c-1.38-12.31-2.51-26,.16-38.07C394.2,144.58,401.87,146.75,402.87,149.08Zm2.85-10.59c1.95-.32,3.65-1.62,5.59-1.94l1.11-.17c3.37-.1,5,2.31,7.32,3.9,5.83,5.91,10.77,12.63,15.55,19.19h-.65A84.87,84.87,0,0,0,411,143.19l-8.43-.81C401.67,140.11,404.43,139.14,405.72,138.49Zm16,67.88c-.49,2.92-1.86,6-.81,9.07-1,5.51-1.54,11.18-5,15.56-6.48,6.56-14.74,8.74-23,10.93,2.11-7.13,4-14.34,7.05-21,.81-1.94-2-3.24-2.91-4.29,1.62-10.69,1.53-22.6,2.34-33.86,1.46-4.45,3.81-8.5,6.16-12.64A64.82,64.82,0,0,0,423,171.7C422.57,183,421.92,194.46,421.68,206.37Zm-14.42-41.79c.49-5.67,2.51-11.67,0-16.93,8.67-1,14.94,5.6,21.22,10.28l5.59,5.27C426.78,168.3,415.61,166.68,407.26,164.58Zm18.47,43.9c2.59-11.67-.32-25.84,2.51-37.91l6.24-2.92c-.49,4.95-1.78,9.93-2.35,15.72,2.19,6.8,2,14.5-1.38,20.65A17.83,17.83,0,0,1,425.73,208.48Zm29.73,21.79c-.33-.25-.08-.65-.17-1,4.95-3.24,10.37-6,15-9.72C468.66,225.65,461.37,229,455.46,230.27Zm29.4-93.72c7.13,8.34,8.68,29.87-4.86,42.2.81-7.69,4.29-15.06,6-22.76C487.05,149.43,485.35,143.11,484.86,136.55Zm-3.73,16.52a178.11,178.11,0,0,1-5.42,20.82c-5.75-11.5-4.22-28.51,4.61-37.74C481,141.65,482.19,147.4,481.13,153.07Zm-13-8.34c1.06-2.19,3.32-4.21,4.86-5.83-6,13.53-2,29.16-.16,43.33.24,5.59-.4,10.86-.81,16.12a6.58,6.58,0,0,1-4.86,1.78c.57-7.12,2.35-14.49,0-21.38C464.29,168.22,462.26,154.45,468.09,144.73Zm-3.32,37.91-.57,16.28c-2.26,3.73-2.51,8.18-4.29,12.07-3.72,5-4.37,13.69-11.82,14.82-5.84,2.92-12.32,4.38-18.63,6.16,2.83-7.54,9.15-16.12,5-25.27,2.27-6.57,2.75-13.86,3.32-21.15,7.61-5.83,17.25-12.15,20.82-21.38C461.21,169.92,462.75,176.48,464.77,182.64ZM458.94,149c-1.13,12.4-10,23.09-20.41,30.3,8-10.37,13-22,20.09-32.89Zm-1.7-10c-5,11.83-13.12,23.25-20.25,34.59.4-3.65-.49-8.51,3.72-10.69C444,154.05,448.9,145.54,457.24,139.06Zm-18.87,18.86s-4.5-3-1-13.76c1.82-6.45,4.47-13.46,8.28-19.13C445.67,125,454.37,140.92,438.37,157.92Zm4.25-34.2s-8.42,16-9.52,26c0,0-9.56-7-5-10.12C432.29,134.93,437,127.77,442.62,123.72ZM422.25,135c-6.16-2.1-13.29-2.1-19,.73,4.38-14.26,14.1-26.32,21.71-39.2C428.32,107.07,430.7,126.75,422.25,135Zm2.21-42.72c-9.88,15.63-21.81,32-29.67,48.55a41.48,41.48,0,0,1-.57-8.58c-1.7-.57-2.75,1.78-4.45,1.78a34,34,0,0,1,1.78-11.26C398.87,103.42,424.46,92.29,424.46,92.29Zm-26.11,12.18a140.21,140.21,0,0,0-7.77,11.83c-1.06-6.56-.33-13.85-1.38-20.41C392.84,97.67,395.92,101.4,398.35,104.47Zm-10,34.19c1.3,1.7,2.83,3.56,3.32,5.67l-.16.16-4.13-3.24-2.51,2.1A16,16,0,0,1,388.39,138.66Zm-4.05-47c4.13,9.15,3.64,21,1.94,31.1-3.48-4.94-6.31-10.45-10.12-15.39C377.62,101.64,379.72,96.13,384.34,91.68Zm-11.66,19c6,6.21,14.49,13.93,12.23,24.46-1.22,1-2.19-1-3.32.25A18.27,18.27,0,0,1,382.8,141c-1.38,1-1.62-1.06-2.59-1.54L377.94,142c-2.11-14.34-11.66-25.68-20.41-37.34C363.12,105.28,368.38,106.9,372.68,110.71Zm-22.93-6.8c15.29,8.84,24.62,31.17,25.6,39.85-6.24-6.08-15-6.51-20.51-14.32C349.54,121.75,351.29,112.09,349.75,103.91Zm6.4,34.42c6,.08,10.53,3.73,15.31,6.81l.24.16a156.37,156.37,0,0,0-42.2,7.94A55.87,55.87,0,0,1,356.15,138.33Zm-16.52,30.3c1,6.07-2.84,10.61-5.1,15.55-2.6-6.16-4.95-12.72-7-19.28l-1.13-7.78C331,160.36,337,163,339.63,168.63ZM322.7,156.8c1,2.27.49,5.1,1.13,7.53.73,7.86,7.13,13.37,6.81,21.63a50.39,50.39,0,0,0-15.15-9.15C314.68,168.79,319.46,163.12,322.7,156.8Zm4.7,30.13,3.64,5a189,189,0,0,1,12.07,27.22c-12-11.66-24.3-25-39.85-29.16l-11.66-4.7-.17-.57C302.94,184.34,317.6,177.37,327.4,186.93Zm-23.73-15.39c2.75-.89,5.66,0,8.5,0-.13,8.21-4.3,6.54-6.56,6.64Zm7.93-4.45c-4.21-.08-8.5-.16-12.07,1.54l1.62,9.72c-5.83.89-12,2.67-18.14,1.13-1.54-3.08-1.46-7.13-1.13-10.85,8.58.32,14.9-4.7,22.35-7a17.27,17.27,0,0,1,9.15,1.7C313.06,164.74,313.38,167,311.6,167.09Zm-45.68,5c3.81-1.86,7.86-3.16,11.5-5.43-2.35,10.61,1.7,21,1.7,31.92-.16,6-1.37,11.58-1.7,17.49-3-10.77-11.5-19.2-10.69-31.51C266.16,180.78,267.05,175.92,265.92,172.11Zm-1.7-26.65s2.82,2.12.57,4.86c-5.92,6.89-15.23,6.16-21.63,12.31l-6.4,7.78c1.38-8.51,4.05-18.79,13-23C254.26,146,259.6,143.84,264.22,145.46Zm-.81-3.89c1-2.27,1.46-5.26,3.48-6.56,1.86.33,3.65,2.43,5.1,4.05-1.78,1.95-3.8-.89-5.67-1.54C265,138.74,265,140.84,263.41,141.57Zm-10.13,22.6c1.95-4.13,6.73-6.24,10.53-8.34-1.62,4.29-4.45,8.1-4.86,13l-.4,5.51C256,171.78,252,168.3,253.28,164.17Zm13.58-5.67,4.84,6.08c-1.33,3-6.69,3.56-9.67,6.4C262,166.52,264.69,162.39,266.86,158.5Zm4.49,0c-1.46-2.67-3.57-5.34-2.68-8.75a8.93,8.93,0,0,1,7.78-6.56,36.2,36.2,0,0,1,20.82,6.16,63.32,63.32,0,0,1,7.37,6.64c-7.29,3.32-13.61,9.56-22.93,7.37C277.66,163.2,274.1,161.9,271.35,158.5ZM309.48,157a21.19,21.19,0,0,0-2.87-2.89c-7.69-6.32-14.28-9.71-22.38-15.06,0-2,1.13-4.37,3.32-4.86,3.56-2,7.93,1.14,10,2.51,4,5.51,8.1,10.86,10.53,16.93A7.56,7.56,0,0,1,309.48,157ZM307,142.38h-.81c-2.76-4.53-5.75-9.31-10.86-11.5,7-1.7,14.83.32,21.71-1.7h1.78C315.73,134,313.06,140.6,307,142.38Zm-11.91-31.51c11,0,17.41,10.94,27.05,14.18-12.39,3.56-27-1.62-38.31,4.53h-.41C287.47,123.35,284,110.71,295.08,110.87Zm-18.88,28s-.83-4.17-1.29-6.42c-1.62.65-2.92,1.86-4.7,1.94l-1.13-4.29c4.78-10.37,7.21-21.71,14.33-31.1C283.58,112.57,282.2,128.25,276.2,138.92Zm-16.11-31.69,9.56-3.73A149.82,149.82,0,0,1,283,93.94c-8.59,11.91-15.71,25.11-19.2,39.53-.89-.16-1.62-1.78-2.51-.65s-1.46,2.76-2.75,3.33c-3.81-4.62-7-9.64-6.81-16A17.73,17.73,0,0,1,260.09,107.23Zm-3.22,30.19a3.17,3.17,0,0,1,.71,4.15c-8.35,1.78-18.55,5.51-21,14.83a83.59,83.59,0,0,0-3.48,11.09c-2.35-7.94-5.11-19.11.72-26.24C241.37,134.75,251.7,134.75,256.87,137.42ZM250,111.12c-1.7,2.83-4,6-2.51,9.72h-.73l-15-7.78C236.92,109.9,243.89,110.06,250,111.12Zm0,20.73c-5,.49-9.56,2.19-14.74,2.35-4.53-5.51-5.26-12.63-8.34-18.87C235.63,118.41,245.83,122.38,250,131.85ZM208.82,63.49c1.53,10,3.15,20.09,7.12,29.16,1.87,7.69,2.6,17.41-.56,25A107,107,0,0,1,210,127c-1.46-6.48,1.62-12.55,1.94-19,.41-9.07-2.91-17.09-3.07-26.25C207.92,75.72,208.82,69.56,208.82,63.49Zm-3.89-6.08.56,1.54c.73,10.7-1.7,21.79.57,32.08,1.78,8.67,5.91,19.2,1,27.62-1.94,2.59-1.21,7.45-5.26,8-2-8-2.43-16.69-6.81-23.73-3-7.86-7.85-20.17-.4-27.22C198.37,69.81,201.12,63.41,204.93,57.41Zm-56.05,90.8-1,.57-1.7-5.26,7.54.64.4,1.14C152.52,146.59,147.66,144,148.88,148.21Zm3.88,2.35c14.5,1.54,16.53,17.42,20.25,27.95-8.26-5-20-1.62-27.62-8.1-1.7-2.51-3.4-5.27-2.67-8.59C143.69,156.56,147.42,151.86,152.76,150.56Zm7.05-1.78c3.48-2.27,7-6.32,11.66-3.89,1.87.49,3.08,2.6,4.05,4.13,3.41,7,1.3,15.48-1.13,22.36C170.75,163.28,168.48,154.53,159.81,148.78Zm11.66-6.8c-3.07-1.14-7-.25-10.28-.73l.35-4.67c-1.5.67-2.22.54-3.67,1.1l-4.7-3.48-1.38,1.54c-4.94-2.11-10.45-2.75-15.55-4.62,10.13-3.64,19.85,2,28.84,4.86,13,1,27.7,4,33.37,17.09.32,1.06.51,3.79.75,4.85C199.2,157.92,190.7,149.08,171.47,142Zm11.83-8.75c-10,.89-19.92-.81-27.94-5.83-7.62-3.49-17,.24-25.28-1,7.86-11.1,20.9-15.15,34.19-14.18l12.63,5.27c7.13,4.45,16.28,6.8,20.58,15.14,1.7,3.24,2.83,6.73,5.1,9.72C194.4,145.3,190,135.66,183.3,133.23Zm.41-66.82,2.75-6.48,7.13,8.58-3.24,7C188.08,72.48,181.28,71.18,183.71,66.41Zm3.72,15.71c-3.48,10.93,2.27,20,6.81,28.59.89,3,1.21,6.32,2.67,9.15-12.48-12.31-17.42-28.67-28.59-42-2.27-2.68-5.11-5-7-8.18C170.42,72.89,186.38,68.19,187.43,82.12ZM158,71.59c10,10.85,18.47,22.76,23.89,35.64,1.7,5.26,6.65,9.15,10,13.77-4.54-1.54-8.91-5.35-13.61-7.37-6.48-3.65-15-4.78-18.87-12.07-4.94-5.91-2.19-13.93-.81-20.57C159,77.83,158,74.59,158,71.59ZM151.47,88l1.13,1.38c1.22,6.15-.08,13.12,4.7,17.9-4.94.81-9.72,3.24-15,2.11-3.65-5.51-5.11-11.83-7.38-17.91C140.53,90.62,145.31,85.93,151.47,88Zm-15.23,24.3-6,5.43a93.92,93.92,0,0,1-13-8.34A43.26,43.26,0,0,1,136.24,112.25Zm-22.36-1c4.7,3.32,9,7.53,13.45,11.26-.4,2.18-2.63,4.38-3.48,6.23C106.54,132.25,113.88,111.28,113.88,111.28ZM106.76,141c5-4.7,11.09-7,17.25-8.91,10.12.4,18.79,4.13,27.78,7.2.25.49.08,1.06.41,1.54-5.92.65-10.94-1.94-16.69-2.35-9.88.49-19.2,2-28.75,3.08Zm-3.32,6.8c7-4.54,16-4.78,24.46-5.83a80.75,80.75,0,0,1,14.82,1.54,9,9,0,0,1,.16,2.59c-9.39.81-17.57,4.62-25.67,8.75-5.27-.57-9-4.86-13.77-6.65Zm0,9A45.07,45.07,0,0,1,110,168.22c-6.8-8.64-21-17.66-21-17.66C94.44,151.13,99.37,151.92,103.44,156.8ZM70,152.1c7.62-.08,15.88-.48,21.79,4.05A118,118,0,0,1,104,167.82c-12.15-3.49-23-10.13-34.42-15.56Zm33.46,20.82c-10.78.32-20.66-4.78-29-11.91L69,156.15C80.59,161.5,92.1,166.93,103.44,172.92ZM65.2,159.25c-1.22-3.49-3.52-8.18-3.52-8.18C68,162.25,80.43,173.4,92.91,175.59c7.53,1.38,14.9,3.24,21.62,6.64.81.73.89,1.79,1.3,2.76-11.42-3.24-23.9,1.46-35-2.59C69.2,177.08,68.2,165.75,65.2,159.25ZM70,187.5c.08-.57,1.22-1.22,2-1.54,8.83-1.62,15.31,4.29,21.38,9.07C85.29,193.09,77.19,191.47,70,187.5Zm29,18.22c-5.1.65-9.88-1.45-14.25-3.48-4.46-2.35-8.59-5.91-12.4-9.48A207,207,0,0,1,100,201.51C101.2,202.58,101.7,205.42,99,205.72Zm-2.59,11.91c-4.7,5.27-9.48,10.61-9.88,17.66-.73,0-1.78-1.14-1.78-1.14C84,218.08,94.12,218.28,96.39,217.63Zm-6.56,33.62c-1,.8-2.19,1.61-3.48,1.13-2.6-1.54-4-8.46,5.42-15.15C91.77,237.23,94.7,243.58,89.83,251.25Zm.4-18.47c-.08-4.05,2.51-8.43,6-11.5C99,225.25,93.07,232.21,90.23,232.78Zm8.35,23.49c-6-.69-2.52-14.91-1-18.79C100.37,239.08,105.37,248.92,98.58,256.27Zm3.48-22.12c-2.52-6.07,1.38-9.72,1.38-9.72.1,7.15,3.88,16.28,3.88,16.28C105.22,239.34,103.44,236.5,102.06,234.15Zm8.91-6.64c1,4.46,3.07,13.07,0,15.15C107,238.42,106,221,106,221,109.75,220.87,109.75,225.16,111,227.51Zm-1.7-26c-6-.16-9.56-6.32-14.18-9.72l-1-1.38c6.24-2.18,15.07-1.78,21.38.41l14.75,7.94C123,198.51,116.23,200.54,109.27,201.51ZM118,167.09c.81-7.86,8.1-14.1,15.14-16.36,3-1.22,6.32-.9,9.56-.41-4.78,3.24-10.93,7-13,12.88-2.84,7.78-2.67,17.25,2.11,24.06C124.33,183.29,118.18,175.84,118,167.09Zm15.3-5.27c4.22-7.24,8.62-7.71,8.62-7.71-4.9,6.81-2.3,23.67-5.05,34.36C131.22,181.34,129.36,170.16,133.32,161.82ZM153,192.93a30.6,30.6,0,0,1-10.53-2.35c-1.54-3.73.4-8,.56-12.07l.25-3.49c5.75,3,11.9,5,19,4.7A142.26,142.26,0,0,0,178.44,191C169.77,190.58,161.92,193.82,153,192.93Zm33.77.81c.57-1,2.27-.65,3.32-1l8.75.17C195.21,194.63,190.83,194.63,186.78,193.74Zm8.59-5.67c-6.72-2-12.31-6.24-17.09-12.07-.41-4.05,2.1-7.46,2.51-11.42a28.55,28.55,0,0,0-.57-12.07c7.62,2.18,14,7.45,21.39,10.28,1.21-2.67.81-6.07,1.13-9.15,2.35,7.62,5.91,14.74,9.72,21.79.65,3.24,1,7.13,2.75,10.12C209.22,187.82,201.77,186.61,195.37,188.07ZM209,158.5c-2.35-5.59-5.11-11.42-4.3-17.9,0-3.4-4.37-7.94.41-10,2.35-1,3.81,1.37,4.7,2.91,1.62,3.49-.57,7.37-.41,11.26,4.46,10.94,8.51,22.11,14,32.64l1.53,6.81C214.81,179,213,167.57,209,158.5ZM266.49,210c-5.35-3.16-10.13-7.54-15.56-10.7-5.26-3.23-11-5.5-15.55-10.28-10.28-12.15-14.33-26.81-21.14-40.42-2.51-4.54,1.3-8.83,1.14-13.61-.41-2.75-1.7-5.83-.41-8.58L221.21,116c3.16,5.91,5.91,12.07,10.12,17.65l-4.86,11.26c-1.7,13.13-.81,26.65,9.72,35.4,3.81-4.45,5.59-11,11.5-13.45.41,5.59,6.65,9,9.72,13.61a13.09,13.09,0,0,1,5.43-3.48c.24,8.67.49,17.33,4.29,24.54Zm3.16,2.18s6.72,12.38,15.14,18.23C277.26,227.76,271.59,219.33,269.65,212.2Zm20.16,14.91c-.64-6.32-3-11.91-5-17.66l-2.35-16.69c4.94,7.46,9.89,15.31,13.61,23.49,5.91,7.54,15.8,5.27,23.33,8.75,6.48,4,15.71,4.13,19,12.64.33,5.18.73,10.28,2.6,14.74,1.53,7.37-3.81,12.39-8.19,17.49-3.32,3.57-7.61,5.59-10.53,9.4h-.4L320.35,275C311,258.7,300.34,243,289.81,227.11ZM131.06,302.6l-2.35-4.29c27,23.48,45.68,50,69.41,75.41,6.65,8.91,13.37,17.57,20,26.64,20.65,27.54,36.94,56.95,53.22,86.27l17.17,35.23c2.91,6.56,5.26,13.37,7.53,20.17h-.4a524.56,524.56,0,0,0-25.44-50.87L248.42,456.5a253.33,253.33,0,0,0-14.33-23.09l-26.65-36.77c-12-16.44-27.3-31.92-40.26-47.63ZM251.74,498c-12.71-22-26.64-43.58-39.44-65.53l-24.71-38.31c21.78,24.12,58.95,90.12,65.29,104.4Zm9.72-3.16c-8.34-16.85-19.52-32.56-29.56-48.76l-25.27-35c-16.93-21.55-33.26-43-49.87-64.56a92.27,92.27,0,0,1-10.15-16.12c6.93,7.87,12.07,15.07,17.82,22.76,15.63,22.28,36.37,42.36,50.54,65.29,14.82,18.95,27.54,38.71,39.53,58.88l23.08,41.07,5.11,11.26a1.51,1.51,0,0,1-1,1.7ZM272,534.09c.55,1.16.33.89.57,1.38-15.79-8.1-30.21-19.28-46.49-26.08-15.15-7.21-32.64-8.83-47.06-18.06C213.51,497.64,243.4,513.52,272,534.09Zm44.47,59.13c-15.22-19.36-34.26-38.72-54.19-52.48-15-10.7-29.88-21.55-46.65-27.63-24.54-8.42-50.46-13.52-76.22-19,8.1-.16,32.64.84,42.93,4.62,21.79,6.56,43.41,13.69,63.18,25.11,28,16.84,55.32,41.22,72.49,69.74C317.6,594.28,316.63,593.87,316.46,593.22Zm-5.83-38.55c-8.42-22-16.36-44.63-26.81-66.1L276.21,473c.73-16.12,2.35-32.32,3.88-48.36l7.78-49.41c.32-.4,5.83-34.33,32.08-75.57a45.64,45.64,0,0,1,5.67,13c6.64,23.73,14.09,47.06,14.58,73.31,2.26,26.56,1.94,53-1.95,79,0,0-8.88,45.16-19.6,65.69C315.9,538.63,313.06,546.57,310.63,554.67Zm98.58-102.06c-12.48,11.82-26.25,22.52-36.53,36.2-12.72,16-23.09,33.13-34.43,49.58h-.4c4-14.42,14.74-25.6,22.92-38.32,23.41-34.66,58.64-60.1,92.74-79.29a149.73,149.73,0,0,1,14-5.84C448.17,427.74,427,436.17,409.21,452.61Zm90.33-52.69c-9.17,2.5-29.17,7.16-38,12.11a227.77,227.77,0,0,0-69.66,41.55c-15.55,14.58-29.4,31.27-41.39,48-14.33,20.74-21.88,45.22-30.46,68.3-.65-1.33-.48-.83-1-2,.33-1,4-15.84,8.92-27,9.08-25.92,25.11-49,43.91-71a246.84,246.84,0,0,1,84-58.16c15.55-5.42,30.94-11.17,47.63-13.76C503.47,398.06,502.87,398.75,499.54,399.92Z" transform="translate(-56.54 -45.75)"/></svg>
