<?xml version="1.0"?>
<svg xmlns="http://www.w3.org/2000/svg" id="Layer_1" data-name="Layer 1" viewBox="0 0 453.46 617.13" width="453" height="617"><path d="M542.91,497.33c.43-4.32-1.39-7.83-4.14-10.65-1.92-2-12.11-8.08-14.66-9.78-13.42-8.95-24.27-20.16-38-28.72-20.77-7.06-42.51-8.07-60.67-20.07a32.31,32.31,0,0,1-9-1.31c-15.46-4.34-28.91-12.24-36.3-23.21-3.3-4.9-16-25.93-17.67-31.38,2.35,0,2.73,3,4.67,3.35-1.54-8.36-5.45-15-12.28-19.76-4.26-11.32-11.2-21.88-14-33.39-.87-3.63-1.89-16.66-1.88-19.34.05-17.79,10.34-34.26,14.26-51.55,6.52-25.22,2.65-38.27-.52-52.49-5.2-23.36-17.18-42.27-20-66-.29-2.49-1-11.53-1.13-13.48a52,52,0,0,1,1.3-16.1c-2.91-1.41-16.24,26.68-16.86,28.05-12.9,28.8-17,58.26-15.57,88.06-25.12-32.11-53-50.8-88.4-65.68a112.37,112.37,0,0,0-16.36-5.32c3.61,7.64,8.33,15.42,10.74,22.95,6.25,25.88,40.22,68.69,40.22,68.69-6-.87-12.14.73-18.27,1.06-24.56-3.94-53-4.19-72.49-22.09,0,0,2.82,19.3,33.31,38.81-.94.32-10.36,8.88-12.77,10.17-7.7,4.13-16.72,3.56-25.92,5.05-1.72.28-16.67,0-22,2.85-3.39,2.45.66,7.07-3.11,8.7,2.38,7.75-6.28,1.45-9.46,4.46-1.49,2.11,1,4.42.68,6.54-1.2,2-3.89.08-5.86,1.72-2.29,3.45,2.33,5.76,2.58,8.63-1.25.65-2.43.32-3.63.53-1.87,1.6,1.44,3.52-.18,4.93-2.75.32-4.79,1.46-7.18,2.18-.06,5.63,6.19,9.28,10.34,12.39-1,.87-2.59,2.6-2,4.07a8.44,8.44,0,0,0,5.51,2.75c.31,4.23-9.2,4.89-4.1,10.11-.41,0-4.69-.38-5.72.93l.6,1.7c1.87,2.63,5.47,4.76,6.64,7.21-11.47-1.35-14.31,1.49-14.31,1.49,4.68,6.74-5.59,5.55-6.79,10,1.7,4.59,5.81,6.34,10.1,8.34,1.62,2.83,3,8.15,7.91,7.52,2.82.18,2.09,2.66,2.82,4.74a7.36,7.36,0,0,0,8.21,1.69c3.61.65,7.26,1.39,7.41,5.78,2.37,1.93,4.85.86,7.21,2.15,1,1.13-1,2.36.68,3.16,8.33,1.12,17.27-2.1,26.18,1.9l.36,1c-1.94,3.86-6,2.3-9.08,4.33-1-1.44-3.29-4.26-5.1-2.46-1.58,4.57-.3,8.57,1.41,12.85,9,13.69,25.47,15.82,39.36,22.79,1.07.53,8.45,2.92,8.45,2.92-4.12,4.61-1.43,11.41-6.95,15-4.51,4.08-4.27,11.44-3.48,17.39.2,1.46.31,2.75-1.37,3.67-25.33,9.35-50.13,23-73,38.76-.72.36-1,1.63-.07,1.93,15.65,1.76,31.54,3,46.53,10.17-6.9,1.77-13.37,5.4-20.75,9.13-21.26,8.88-33.42,29.63-49.15,45,0,0,17.11,2.62,24.89,2.77,28.7,5,74.15-12.32,104.46-28.43,17.67-15.25,61-27.27,61-27.27-6.91,10.24-17.84,16-27.17,23.54-13,10.26-22.52,23.51-30.3,38-2.79,9-8.06,34.38-8.3,37.81-.93,13.37,3.06,30.1,9.81,47.43.91,1.38,6.38,18.32,6.38,18.32,2.92,3.22,3.76,7.16,5.61,10.65,3.17,4.83,5.41,11.88,10,15.58,4.87-10.56,5.58-13.9,10.81-23.1,8.85-15.61,21.9-48.72,23-51.52,14.14-36.86,9.2-65.75.16-87.5-2.43-5.84-5.29-11.31-4.58-18.46,5.36-8.33,21-21.82,21-21.82-13.51,44.93,2.69,84,42,129.49,2.51,2.94,26.42,29.66,26.42,29.66,1.23,2,3.38,1.79,4.56,0,7.43-23.34,5.74-65.22-.22-82.73,15.16,9.76,35.5,43.55,36.64,44.11C415,607,418,568.48,393.82,530.17a86.13,86.13,0,0,0-11.56-82.48s23.15-9,26.47-9.69c4.72-.94,9.34-1.1,13.37,1.54,21.38,3,41.72,12.48,63.5,19.08C506,472,522,490.43,540.74,505.39c.86.65,2.67,1,3-.29C542.23,503,542.85,499.89,542.91,497.33ZM246.45,563.89c6.74-6.7,14.91-12.11,22.47-18.09-4.38,5-6,14-11.84,17.62-1.35.84-16.38,8.09-20.35,11.59C237.72,573.29,244.23,566.1,246.45,563.89Zm-25.86,46.86a25.43,25.43,0,0,1,.45-4.38c5.39-24.14,18.64-31.27,35.55-39.12L251,579.88c-12.07,7.24-24.22,17.4-29.76,31.35C220.82,612.36,220.51,612.09,220.59,610.75Zm14.55-15.07c1.56-1.92,10.93-8.46,14-10.18-1.57,5.53-3.56,10.14-4.5,15.65-10.47,11.91-22.52,26-25,43C214.32,625.91,223.94,609.43,235.14,595.68Zm-14.57,55.48c1.3-9.35,14.48-33.85,17.47-37.43,1.22-2.86,3.51-4.5,5.28-6.71l-2.48,20.24c-6.57,12.46-13.78,27-16,40.32C222.4,662.8,221.9,656.2,220.57,651.16Zm9.71,31.24c-2-4-2.95-7.87-4.42-11.8a132.34,132.34,0,0,1,14.53-37c-.7,6.81,1,15.23-1.63,22.7C234.32,664.79,232.6,673.86,230.28,682.4Zm1.93,4.31a100,100,0,0,1,6.55-25.9c.16,14.45,3.58,48.63,3.58,48.63A193,193,0,0,1,232.21,686.71Zm13.69,28.37a174.42,174.42,0,0,1-3.64-23.51l-.16-26.63c5.82,9.41,10.11,18.09,12.25,29.73C251.06,701.64,247.72,707.56,245.9,715.08Zm10.62-24.24c-3.66-10.8-7.74-23.14-14.35-32.38l1-20.16c1.47-1.25,16.86,31.09,18.13,43.56Zm7.17-14.35c-4.08-17.22-9.05-32.11-20.13-44.77.18-7.69,1.79-15.24,2.29-22.93,14.51,11.57,22.17,26.59,28.5,45.67C271.22,661.9,268.54,670,263.69,676.49Zm12.21-26.38c-4.62-17.24-15.72-33.29-28.78-45.26,1.21-6.88,2.75-14.3,6.25-20.38,12.5,12.48,24,27.54,28.12,45.8C280.44,637,277.74,643.54,275.9,650.11Zm7.36-26.92c-8.74-25.11-29-41.77-29-41.77,2.21-4.9,4.26-10.59,7.84-14.9,9,8.2,19.87,18.52,22.57,31.2C285.22,600.55,285.15,618,283.26,623.19Zm-2.48-50c.39,1.65,3.3,16.13,3.3,16.13-4.85-10.28-11.48-19-20.92-25.12l10-18C274.11,556.38,278.49,563.64,280.78,573.21ZM385.54,413.74c2,1.44,21,12.56,29.09,16.22-9.39,2.53-28.76-9.59-30.09-10.38-20.18-12.08-39.85-28.5-63.19-31.9,5.08-.92,8.15-2.73,11.81-5.6C333.16,382.08,370,402.63,385.54,413.74ZM193.71,509.52c-.09-6.64,11.18-6.23,11.18-6.23-3.23,4.73-31.4,21.74-40.3,23.25l-3.46-1.13c11.9-5.94,22-12.53,31.05-21.5C191.67,506.09,192.77,508,193.71,509.52Zm14.95-43.75c1.72,1,1.31,3.78,3.1,4.64l.71-1.31a29.52,29.52,0,0,1-2.12-11.54s.44-2.32,3.62,3.71c1-1.5-1-3.15-.6-4.77-1.21-3.49.34-7.84,1.68-11.59,1.39,1.84.58,5.62,2.75,6.66,1-3.2-.57-7.1.87-10.57l2.16-3.82c1.13,1.4.26,5,2.52,6.32,1.1-2.73-.39-6.17,1.05-9.27.12-.26,7.06-1.5,7.06-1.5l5.94,4c-7.6,8.75-10.17,20.77-13.28,31.65a21.37,21.37,0,0,1-3.29,7c-6.79,8.76-18.27,12.55-24,22-.65-5.49,1.76-10.14,3.84-15.1l1.8,3.93,1-.36,1.11-9.92c2,.58.75,4,3.39,3.38C208.3,474.79,207.23,470.18,208.66,465.77ZM192,402.65c-5.29-2.93-11.38-10.36-14.81-14.92-1.67-2.23-1.94-1.29-1.48-.11,1.11,2.85,2.47,5.49,3.67,8.3-6.63-4.47-9.86-11.92-14.66-18.09a102.93,102.93,0,0,1-8.43-30.62c.68-.77,1.85-2.88,2.73-1,1.69,3.33,2.88,7.36,6.16,8.87.21-3-1.31-6.21-2.81-9.29.57-2,.64-4.56,2.19-6.8,3.92.33,2.7,5.63,4.09,8.42l.89.43c2-2.71-1.53-8.67,3.17-9.46,1,1.88-.21,6.1,3.16,6.94-1.95,8.09,12.29,32.26,16.13,36.32l.59-1.37c-4.63-8.13-10.6-17.06-11.17-26.61,2.43-.31,1.62-6.28,5.08-5.16,1.44,3.21,2.17,8,4.55,10.92l.71-1.31c-1.17-4.25-2.4-9,.24-12.37,2.1,3,5.09,0,6.93,2.25.83.88.79,2.58.62,3.91-2.05.82-.88,3-1.94,4.49-4.5-.76-4.68,4.49-5.4,7.28-.71,5.86,4.76,8.51,6.53,13.29,7.37,7.5,14.95,15.87,23.93,20.68-1.9-4.84-7.72-7.26-10.87-11.46L202,374.83s-1.08-4.31.83-3.38c1.74,1.93,3.88,3.52,5.49,5.71,1.94-3.54-5-12.14,2.45-12.71,1.19,1,2.19,2.94,3.68,2.95.89-2-.47-4.39,2.37-5.06,1.19,1.92.75,4.61,2.08,6.9-3.61,4.54.13,11.92,2.59,16.25,4.62,5.38,10.34,9.64,12.78,16.94-2.21.35-4.16-3.42-6.57-1.21,0,1.58-1.22,2.87-2.79,1.72l-3.28,2.73c-4.9,1.11-4.82-4-7.27-6.06-.6-.51-4.06-1.86-4.91-1.56-2.78,3,1.6,11-5.69,7.7-10.32-5.31-16.07-14.84-21.83-24.38l-1.83.21C184,389.21,186.67,396.23,192,402.65ZM140.61,342.7c2.61.79,3.09,4,5.39,5.43,1.64-2.9-2.12-4.87-1.65-7.79,1.54-2.55,1.24-6.15,3.44-7.76,1,3.88-1.92,8.19.13,12.55,1,3.47,4,5.07,5.55,8,2.36,8.91,4.42,18.47,8.86,26.67-7.54-2.09-15.35-26.75-29-34.15l-.84-1.2c6.81,1.34,9.48,6.55,14.65,10.15l.4-1C145.36,349.94,142.34,346.44,140.61,342.7Zm16.7-40.86,1-.36c2.44,3.07,6.29,5,7.89,8.69l.76-.27c-1.63-5.89-6.44-10.57-3.71-17,2.17-1.08,4.15.35,6.19,1.34l4.24,7.62c.76.06,1.53.74,1.7-.59l-3.36-10.58c1.49-1.47,3.31-.83,4.45-2.71,1.66,1.11,1.7,4,3.76,4.41.21-3.36-1.89-6.65-.78-8.94,6.87-1.87,3.59,6.37,6.95,9,2-1.32-.18-4.17.48-6.2-1.41-1.95.46-3.55,0-5.41,1.38-2.71,5.4-2.41,7.46-2.6-.07,1.93,1.16,4.26,2.81,4.74.89,2.23-1.54,5.62,1.48,6.37,1-2.67,1.24-6.47,4.64-7.34.76,1.86-1.16,7.29,3.11,7.71,2.5,2.62,4.09-1.95,6.73-.44,5,2.18,7.87-5.07,13-5.26.54,2.46-2.94,2.19-4,3.63-7,4.33-14.82,10.34-23.18,7-2.58-1-6.08-2.86-8.17-.65a5.12,5.12,0,0,0-2.46,5.09c.45,1,1.8,2.44-.09,3.1-.9-1.38-1.49-3.08-2.86-4-2,2.18,2.21,7.59-2.31,7.69-1.88-1.47-1.87-5.07-4.49-5.32,0,3,1.43,6-.3,8.89L176.42,312c-2.46-1.58-3.9-5.1-6.41-6.55-.53,3.36,2.13,6.14,3.19,9.16-.09.66,1.22,1.37,1.23,2.64-2.35,1.14-3.78,3.43-5.84,5.1-1.19.84-2.6-.47-3.37-1.15-.53-1.83-1.28-3.37-3.25-3.85l-3.87,1c1.45-5.27-5.86-7.38-3.24-12.64,1.14-.39,2.26.7,3.46,1.13C160.16,304.87,157.18,303.9,157.31,301.84Zm79-23.42c.13-.54,1.39-2.65,1-3.11a6.74,6.74,0,0,1-1.49-2c3.74.08,6.28,3.43,9.53,5.47,2.79,5,8.12,10.84,4.37,16.8.12,2.18,2.45,4,2.23,6.42-1.34,1.32-3.25,2.51-3.35,4.66-.28,2.54,2.56,2.18,3.92,2.45,7-1.39,12.59,4.51,18.5,7.22,1,2.07,2.05,4.05,4.4,5,1.62.39,3.9-1.88,4.75.57-1.15.93-3.78.68-5.69.08a1.81,1.81,0,0,0,.06,1.64c.74.94,7.08,2.44,7.54,3.76a45.93,45.93,0,0,0-11.44-2.16c.65,1.89,10.26,5.25,12.27,6.81,2.19,1.71,3.81,3.92,3.31,7.25-.77,1.12.47,1.95.3,3-5.83-3.06-12.77-6.25-19.35-6.29l-.67,1.4c5.44.75,10.2,3.75,15.31,5.68,0,1.39-4,12.51-4,12.51a61.48,61.48,0,0,0-19.09-13.16l-.43.89c6.09,4.13,13.39,8,16.71,15.15l-.43.89c-2.78-1.89-7.66-5.27-11.1-4.5.53,1.51,10.7,5.81,9.9,9.9-2.84-2.08-5.1-.66-7.77.8-2.95,1.24-1.28,5.74-5.37,5.25-6.35-2.13-11.69-6.83-16.18-11.52-.63,0-.5.71-.81,1,3.63,4.35,7,8.79,11.8,12-.46,1.74-.6,5-3.52,4.18-1.79-1.17-3.37,1-4.67.89-5.39-3.63-7.6-10.27-11.4-15.41-1.19,1.15,6.14,14.59,9.71,19.07-1,.55-3.92-2.13-4.9.22l3.49,3.65-7.91-3.27c-1.4,2.07,1.84,3.48,2.28,5.66l.83,2.36c-5.51-2.43-10.33-6.25-14.56-10.18-1-1.13-1.37-3-2-4.59,3-2,5.66,2.26,9,2.6-1.29-4.63-7.44-5.88-8.81-11,0-3.16-2.23-4-1.46-7.53,2.56-2.7,4.23,1.81,6.35-.31-.74-3.34-3.31-6.79-2.74-11.22l2.61-1.33c-.31-1.8-3.18-3.66-2.14-6.14l.95-.33c3.27,3.31,8.33,5.68,12.26,8.76l.43-.9c-2.76-3.06-5.62-6.09-8.25-9.41,1.5-1.15,3.88,2.36,4.7-.79,7,.95,10.83,5.87,16.25,9.59.09-3.1-7.54-10.71-9.35-11.67,4.32-.34,25.65-1.73,30.07-2.42l-.23-.66c-10.7-3.37-22-.19-32.53-1.28-.83-3-1-7.8-4.89-8.57,0,0,12.4-2.41,20.06-1.69.32-.32.06-.76-.08-1.14-7.84-2.14-16-2.38-23.94-3.09-1.36-1.76-4.05-2.51-4.13-5.45,3.66-.75,7.2.88,10.9.87l.49-1c-3-3.19-8.69-1.85-11.18-5.64,3.05-1.59,6.57-.59,6.92-5.37l-1.18-3.4a83.59,83.59,0,0,0,12.5.94l.43-.89c-5.18-1.8-12.6-3.35-13.79-10.13,2.6-4.08,7.3,0,10.87-.72C241.57,283,235.58,281.49,236.28,278.42Zm26-23.38c3.32-.21,7.54,5.21,9.77,1.89-1.75-.77-3.89-2-4.8-4.05,3.34-3.17-2.2-6.32-.18-9,2.53,2.4,6.15,4,8.3,6.22.45-2.07-9.91-13.28-9.91-13.28.4-2.79,4.62.51,4.36-2.68-4.21-2.67-13,2.41-13-4.58,2.8-1.08,5.38.25,7.85.66.47-.48-.11-1.23-.21-1.83-4.76-3.64-9.85-1.23-14.63-3.7-.14-1,.38-1.93-.26-2.87-2-1.21-5.32-.69-5.89-2.61,6.64-.41,12.23,1.35,18.64,3,9.38,1.39,21.34,23,19.5,25.61-1.95-2.28-3.57-4.79-6.09-6.56,0,2.85,3.71,12.79,3.64,14.72-1.37-1.21-3.76-2-5.19-2.75-.26,2,2.51,3.58,3.52,5.56,2.12,2.43-.12,5.44-.24,8.13-2.85,2.15-8.41-2.26-11.63.66,3.5,3.65,12.88,3.24,10.1,10.14-1.64,2.58-8.74,2-7.13,6,3.73.39,6.51-.15,8.95,2.6a17.82,17.82,0,0,1-5.23,13.57l.23.66c5.18-.95,7.85-6.65,9.15-11.12a69.4,69.4,0,0,1,2.93-34.17s11,9.19,15.69,14.34c-4.19-1.08-10.55-3.52-14.41-6.42-.48,2.29,13.17,8.65,16.55,12.56-2,1-6.91-.67-7.18,2.5,3,1.07,6.76-.66,9,1.75-1,.68-2.29,1.64-2.3,3.13,0,0,3.23-.17,4.14-.28,1.25,5.71-.79,11.71,1.27,17l.76-.26,1.43-11.09s7.48,30,9.79,44.56c-2.59.45-3.72-.62-4.31-2.25-.81-2.26-2.37-12.69-3-14.58-2.52.67-.18,10.76-2.92,13.52a3.65,3.65,0,0,1-3.45.14c-1.35-4.19-.17-8.1-.41-12.14l-.89-.43c-3.1,9.42-7.32,6.35-7.32,6.35,2.72-9.52,2.94-19.23,4.84-28.68-.26-.44-.79-.15-1.08-.05-3.4,8.49-3.53,17.54-6.27,25.8-2.3,1.77-5.43,1.87-7.33-.1-.46-3.44-.95-7,.21-10.34l-.89-.43c-1.56,4-4.72,7.14-8.79,7.61-3.93-.87-5.39-5.75-5.39-5.75,6.4-5.93,12.81-11.87,16.31-19.76l-.42-.28c-6.45,6.7-11.93,15.91-21.13,18.37-2.47-5-8.79-4.56-13.26-5.23,2-2.72,4.48-.82,6.44-3.41-1.67-1.75-5.67-.77-5.17-3.91,2.71-3.17,8-4.28,8.8-8.78-3.18-.91-5.73,2.41-8.65,3.75-1.28-.94-.9-3.5-1.4-5.23-1.54-4.13-6.08-8.37-4.75-12.43,3.33-1.69,8.94-.79,13.33-1.26-1.65-5.35-16.36-7.75-16.12-9.21,2.24-2.37,14.32-2.65,15.28-4.15A4.07,4.07,0,0,1,262.25,255Zm49.16-8.75c3,6.44,4.39,16.21,5.17,25.6.28,3.35,1.39,18.18,4.06,21.9-9.4-.54-6.89-11.57-10.87-16-5.41-4.9.75-10.64,1.17-16.4C312.18,256.4,311.57,251.32,311.41,246.29Zm20.82,24.83,2,18.7-13.46-15.54c-1.6-6.11-.73-12.45-3.28-18.24C323,260.46,328.17,265.23,332.23,271.12Zm-13.9-28.87c-4.28-7.62-13.79-26.68-12.49-27.16,7,10.37,17,17.89,22.47,29.55l2.19,14.81A91,91,0,0,1,318.33,242.25Zm2.85,37.59c5,5.77,12.21,13,14.2,21.82.57,2.5.36,12.4.36,12.4C330.37,302.58,321.45,293.09,321.18,279.84Zm12.95,39.33c-7.56-5.31-19.77-10.27-17.62-22,7.59,4.45,10.8,11,15.73,17.82ZM220.29,353.5c-2.17.76-5.2-4.78-5.45-5.75a2.93,2.93,0,0,1,1.1-3.42c1.83-.22,1.58-2.46,1.78-3.7-.71-1.12-1.73-1.93-2-3.42,3.31-3.26,5.81-7.95,10.73-8.71-1.47-1.81-4.22-1.49-6.41-2-3.11-.72-6.33,2.2-9.42.31.39-1.3.53-3-.65-4-2.35-.67-5.4-1.2-7.16-3.23,2.34-2.4,5.65-5.36,9.46-4.46.24-.51.68-1.08.2-1.55-3.7,0-7.43.57-11,0-1-1.25-3.36-1.16-3.67-3,.52-1.24,3.41-.55,2.56-2.37-3.46-.49-6.87-.26-9.18-3.26,2.37-2,10.07-1.18,10.13-1.62-2.13-2.76-7.66-2.84-9.15-5.61,2.16-1.7,4,.08,6.2.49,11.19,4.47,21.15-5.56,30.53-8.72a5.21,5.21,0,0,1,1.48,2.13c-1.17,2.1-5.6,2.16-3.78,5.55-2.46.86-5.66-.14-7.32,1.81,2.2.82,5.29.59,8.09,1.31-5.29,1.85-12.06,1.56-18.13,1.76l-.43.89c4.49,2.89,8.66-.36,13.37,2.23,1.71,2.79-1.66,1.32-2.3,3.13-4.21-.23-8.73-.14-12.57,1.3,2.25,2.19,5.85.09,8.65.81,4.45-.28,5.83,3.37,8.58,5.8-2.33.28-5.69,2.82-9.15,3.5l-.59,1.37c2.95.56,6.66-.94,10.12-.45,1.35-.37,1.88,1.46,2.75,2.43,4.24,2.44,7.29,3.92,8.88,9.09-1,.14-1.94-.39-3,.29-1.59,3.94-5.87-1.66-7.94,2.44-2-.57-2.63,1.56-4.21,2.21-2.18,1.93,0,4.14.31,6.35C216.61,345.05,220.73,350.18,220.29,353.5Zm-21.56,14.71c-2.79-.41-2.35-3.42-3.42-5.27.75-.89.66-2.66,2.15-2.65l2.19.82,1.55-4.35c.51,2.68,4.77,6.07,2.15,9.52C201.77,365.67,198.34,365.27,198.73,368.21Zm-2.26-41.46c-3.22-.15-5.91-4.51-9.44-4,.2,3.63,5.79,5.08,4.64,8.76l-4.06,1.73c1,1.44,3.34,1.38,5,2.09.43,1.54-1.82,3.28.09,4.52-3.54.17-5.39-3.63-8.62-3.78-.86-2.77,1.57-5.84-.55-8.28h-3.07c2-4-3.26-7.54,1.22-10.8,2.53-2.47,6.68-3.91,10-5,1.12,3.21,5.74,3.4,8.08,5.56-.81,3.45-4.49.5-6.52,1.95-.76-.06-.85.61-1.19,1.15C193.88,322,197,323.93,196.47,326.75Zm35.23-45.41c-2.94-.24-6.71-3.17-9.68-.44l-5.73,4.22c-.8-2.9.57-6.87,1.89-9.77-2.44-.94-2.84,2.79-4.27,4.14-.33,3.93-3.95,5.08-6.3,7.17-2.18-2.63.34-5.73-.27-8.7.35-2,4.37-2,3.11-4.15-4.07,1.1-6,3.91-9.76,6.05-4.52-.23-1-5-3.69-6.34,3.6-2.74,9-2.81,13.2-3.75a195.31,195.31,0,0,0,21.9,6A9.81,9.81,0,0,0,231.7,281.34ZM156.5,326.9c1.56-1.6.55-3.9,1.38-5.78.73,0,2.49-.44,3.71.62,2.65,4.58-6.25,7.89-1.57,13.14,1.14-2.51,2.18-7.42,5.14-8.35,3.86.14,6.19-3.21,9.23-5.12,2.26.7,2.13,3.07,2.57,5.25a4,4,0,0,0,.51,4.8l3.2.37c-.56,3.26-2.21,8,2.8,9,1.17,4.57-3.49,6.09-4,10.49-3-2.87,2.93-7.69-2.53-9.39-2.46-2.21,1.2-4.76-.66-7.39a4.7,4.7,0,0,0-6.07.21c-.66.54-1,1.4-2.14,1.48-1.59-.93-2.06-2.88-3.9-3.62-2.92,1.34-2.9,5.36-4.23,7.62-6.7-6.78-10.55-18.14-7.77-27.79C157.88,316.25,151.77,323,156.5,326.9ZM212,404.06c.6-.11,7,13.57,7,13.57s1-5.42-.37-9c2.57,2.6,5.09-.09,7.35.46.75.19,5,6.59,6.47,4.26-1.06-3-3.75-5.9-3.09-8.88,3-.42,5.82,3.05,8.4,4.38,1.22-1.38-.69-2-.8-3.21,1.69-1.54.47-5,3-5.61,1.49.33,1.91,1.56,3.31,1.92a3.82,3.82,0,0,0,1.87,5.38c7.22,0,14.35,3.48,21.12,3.77l.52-.93-19-7.56c1.72-1.44,3.64-4.12,3.46-6.49.05-2.88-4.22-5.1-1.18-7.64,4-1.51-1.24-5.39.75-7.89,3.8.27,7.81,2.68,11.22,1.82-.77-2.81-7.27-1.71-4.22-5.73,5.09-2.1,10.58,1.18,14.94,1.25l.72-1c-1.5-2.76-5.38-2.36-7.24-4.36a3.68,3.68,0,0,1,2.43-3.07c5,2.59,10.91,5.2,16.11,5.83l.39-1c-1.91-1.76-4.91-2.73-6.92-4.54-.44-.4.34-3.31.25-4.44-.21-2.63-2.26-5.4,2.27-5.79,2.38.44,5,1.13,6.75,2.94.66-.23.71-1,1.05-1.53-.46-3.75-6.22-4.18-5.32-7.67,2.26-1.11,4.54,3.29,5.92.58,0-3.38-5.42-3.72-3.63-7.1,3.43-1.09,6.51.17,8.86,2.64.66-.23.71-1,1.05-1.54-.67-3.15-3.82-4-4.4-7.15,1.28-1.5,4.8-.82,4.38-3.85-1.68-2.7-.31-4.55.73-6.72,1.41,1,5.55.72,5.55.72.51,2.68,3.39,3.06,5.55,3.79l4.06-1.42c1.69,1.21,3,3.19,5.33,3.44-1.34,4.07-1.17,7.61-3.71,11.25-4.13-3.65-10.3-6.48-15.09-9.58-1.12,1.35.45,2.5,1.19,3.4,3.93,3.08,8.52,5.62,9.85,11-2.12,1.8-4.67-1.86-6.09,1.07a6.87,6.87,0,0,1,3.15,5.68c-5.64,2.07-8.71-5.55-14.13-6.52-.47,2.6,2.43,4.24,3.4,6.44,2.23,3,6.71,4.65,6.67,9.11-1.76,3.16-4,5.94-8.3,6a4.72,4.72,0,0,0-3.76.15c-1.14,2.2,1,2.83,1.92,4.31a16.69,16.69,0,0,1,5.62,1.85c-3.52,1.12-7.72-.28-10.51,1.75,2.65,1.83,6.47.93,9.09,3-8.71,3.56-17-2.11-25.67-1.33l.69,2c8,5.59,17.25,3.31,25.15,9.56l.36,1c-6.1,3.18-13.07-.11-19.06,1.24l.37,1c5.15,2.66,11.66,1.87,15.72,5.65-2.33,2.72-6.07,2-9,1.54-2.29,1-5.31.26-6.74,1.61,4.25,3.39,10.78,2.38,15.68,2.16-5.92,5-11.13,13.43-19.08,13.75-1.84.08-12.72-3.21-15.07-1.12a33.59,33.59,0,0,0,7.75,4.61c-8.85,2.87-16.76-1.9-24.92-4.67a1.68,1.68,0,0,0-1.47,1.25c1.91,3.36,16.37,8.71,19.16,11.23a16.19,16.19,0,0,1-15.58,1.19c-9.7-4.14-14.71-12.46-20.41-20.32-1.86,1.07,2.87,9.16,4.42,11.8C216.45,429.76,211.18,410.82,212,404.06Zm104.5-32.57c3.18-1.21,7.88.12,11.75.89l.43-.89c-2.33-1.21-5-2.09-6.1-4.45,4.17-2.61,8.2,1.07,11.82,2,.83-2.19-2.32-3-3.47-4.51,2.83-3.1,7.52,1.83,11.35,2.19,1.33-1.94-.66-1.89-1.19-3.4a27.22,27.22,0,0,1,14.09,3c-4.59.22-9.29,1-12.8,3.71-7,3.51-11,12.29-19.37,12.47-3.76.77-7.36,3.51-10.4,5.1-2.69-.12-3.24-10.52-.67-11.95,2.66-2.09,6.51,2,8.85-.75Zm34,119.66c-7.77-3.58-6.94-18.44-13.08-27.85-4.44-12.75,3.08-25.53,2.18-38.45,2.73,5.72,4.41,15.41,6.37,22.56C343.2,461.71,341.67,477.38,350.48,491.15Zm.8,7.77c-5.22-2.84-12.42-4.67-12.93-11.91l.78-5.67C340.84,488.69,347.22,493,351.28,498.92Zm-18.85-41.08c-8.26-12.17-10.39-27.41-4.78-41.12a70.23,70.23,0,0,0,1.59-8.49,25.78,25.78,0,0,1,7.12,26.85C333.78,442.54,330.87,450,332.43,457.84Zm-14.12-60.32c2.39.76,5.09,4,7.17,6.3,2.83,7.8-2.06,16-3.1,23.95-1.37-8.92-4.8-16-3.84-24.4C318.64,402.49,318.31,397.52,318.31,397.52Zm14.1,8.86A50.27,50.27,0,0,1,352,419.69l1.24,2.64C347,416,334.88,415.9,332.41,406.38Zm-2.64-3.32c-4.6-4.11-8-9.28-13.82-12.34,10.34,2.33,19.83,9.51,26.85,16.92l.78,1.31A32.49,32.49,0,0,0,329.77,403.06Zm-14.63,5.1a41.06,41.06,0,0,0-8.43-7.76c1.2-2.64,1.15-6.44,2.64-8.86C319.61,392.73,313.29,402.24,315.14,408.16Zm-74.95,91.31c-7.38-1-15.55,2-22.92.91-3.51-.51-12.6-6.54-12.6-6.54.07-1.61,5.94-5.94,8.09-6.09C216.65,487.48,236.13,496,240.19,499.47Zm-24.66-14c1.59-1.51,3.11-3.84,5.47-5,9.66,1.3,16.43,8.89,22.78,14.94l1.13,2.36C235.55,495.58,226,487.36,215.53,485.51Zm-3.94,15.13c-4.46.28-8.8-.32-13.37.85l4.45-5.79C205.35,497.63,209.62,497.73,211.59,500.64Zm-.65,3.62c-4.83,5.71-10.37,13.42-17.81,16.21a16.22,16.22,0,0,1-9,.75,2.7,2.7,0,0,1,1.14-1.53C193.23,514,203.31,509.18,210.94,504.26Zm7-1.71,12.91.91c-5.71,5.8-10.7,10.92-16.7,16.5l-14.76.48C202.68,518.57,217.37,502.34,218,502.55Zm18.09.27c3.32-.52,5.41,0,8.67-.05-5.63,7.25-12.77,12.59-19.23,19l-7.33-1.26C223.83,515.12,230.78,509.85,236.06,502.82Zm13.32-.08c2.88.37,15.94.17,19.41.12-8.67,8.53-16.17,15.58-26.87,22.27l-13.32-3C236.25,517.05,242.77,510.22,249.38,502.74Zm4.12-3.35c-11.45-5.54-17-18.43-29.79-22l3.25-4.95c5.25-2.57,10,1.39,14.07,4.21,7.3,7,13.85,14.55,21.43,21.13l4.59,2.21A84.4,84.4,0,0,1,253.5,499.39Zm-39.07,36.8c-11.67,4.8-21.65-1.68-33.12-3.3-6.63-1.4-12.19-.94-19-1C178.63,524,198.65,526.75,214.43,536.19ZM188.69,524.6a55.67,55.67,0,0,1,42.35,10l-11,1.19C210.08,529.76,199.93,525.25,188.69,524.6Zm33.34.57c9.55-.57,20.37,5,30.17,6.66l-15.6,2.35C231.48,531.94,227.69,527.12,222,525.17Zm26.31,2c-.86-.65-1.75-.45-2.57-.69,10.46-5.55,20.11-14.62,28-23.43l16.95-.6C276.26,510.32,264.48,523,248.34,527.13ZM265.69,496c-1.16-.76-16.4-16.53-25.92-23.93,13.44,2.73,25.59,12.38,37.17,18,4.57,3.39,10.14,6,14.71,9.39C283.11,499.21,273.29,501,265.69,496Zm10.73-9.58c-14.6-8.79-30.66-19.93-48.18-18,3.09-10.29,5.36-22.93,14.25-29.31,12.53,7.71,23.65-5.06,34.46-10.52,10-7,19.63-15.09,27.07-23.82,0,0,6.23,3.83,7.76,6.26,5.19,8.27,4.83,19.32,7.28,29,.71,2.83,5,13.3,6.53,15.41,3.69,5,9,8.66,10.65,15.45-7.77,8.1-15.41,16.27-23.88,23.56-5.59,2.79-10.53,5-16.41,3.06Zm60.24-12.18c1.14,1.16,1.36,2,1.07,2.66-.66,1.54-23.69,24.49-30.35,28.15C313.38,495.41,329,481.6,336.66,474.26Zm3.14,67.09c-4.26-8.11-5.37-27.56-4.47-41.11,0,0,5.29,10,8.07,14.34C342.6,523.54,338.89,532.35,339.8,541.35ZM334.31,483c-4.78,21.25-1.53,44.26,3.43,65.51-11.27-10.79-30.11-10.16-37.83-24.1-.93-3.91,1-7.67,2.16-11.45C312.79,503.64,323.87,492.26,334.31,483Zm5.7,72,3.7,9.72c-10.83-6.18-22.79-13.77-35.55-12.4-4-5.61-4.26-13.77-7.46-21.44C312.42,541.78,330,542.34,340,555.05Zm7,14.7a67.29,67.29,0,0,0,17.44,20.61l2.68,8.92c-9.36-12.32-35.4-28.44-51-29,0,0-5.77-10.41-7.1-15.13C322,554.87,335.42,561.94,347,569.75Zm6.56-10.65c-.2-8.18.57-16.92,3-24.32,1,16.68,2.51,34.59,8.73,50.32C356.12,579.72,354.49,569.27,353.6,559.1Zm-.86,14c-14.23-14.42-11.65-36.5-6.53-53.74l8.56,11.53C351.23,544.68,348.5,558.76,352.74,573.06Zm-15.55-78.44c3.88,4.47,15.52,7.19,15.52,7.19,9.88,5.25,17.46,12.13,25.75,19.2l2.64,3.32A92.34,92.34,0,0,0,351.39,519C345.17,512.38,340.79,501.94,337.19,494.62Zm42.22,21.51c-7.77-13.18-4.57-27.42-6.68-41.09a88.74,88.74,0,0,1,14.66,42.12l.3,10.59C385.35,523.48,382.24,520,379.41,516.13Zm-3.93-2.45c-15.89-11-16.42-36.53-15.6-53.65l7.62,7.62C372.65,484,367.5,498,375.48,513.68Zm-12.19-11c-7.64-3.69-11.25-11.77-14.22-20.14-3.83-12.22-1.07-24.09-.76-36A47.08,47.08,0,0,0,355,455.7C357.32,472.15,355.41,488,363.29,502.68Zm-15.94-66.45-5.44-16.85c13,2.36,15.42,15.39,26.62,20.49C361.52,438.6,354.27,440.28,347.35,436.23Zm11.84-11c-4.71-12.33-14.33-22-24.77-29.49,26.19,7.4,43,28.24,67.89,35-8.75,3.15-16.78,5.94-25.14,9.91C372.28,434.22,362.74,433,359.19,425.22Zm13.39-23c-11.93-7.81-24.11-15.43-36.51-22.76,4.48-5.69,13.19-9.56,20.09-8.9C361.35,380.32,367.5,391.31,372.58,402.24Zm-12.42-35.69c-8.53-6.25-19-8.73-28.9-6.36l-.16-2.59c-2.78-.09-9.05,4.74-9.05,4.74a12.43,12.43,0,0,1,1.05-4.6c-2-1.21-6.29,7.48-8.58,6.06.57-4.12,1.17-9.09,4.23-12.17,1.82-1.16,4.45-.91,6.64-.4,5,7,12.88,1.85,19.3,3.68C345.6,355.17,357.25,362.16,360.16,366.55Zm-12.52-16.19.87,1.6c-7.57-3.5-16.21,3.32-22.89-4.63l-5.77-1.06c1.44-3.47-.21-8.5,3.31-10.26,1.84-6.57-3.44-13.84-2.73-20,6.38,2.28,13.34,5.81,16.85,11.73C338.22,329.32,344.71,344.08,347.64,350.36ZM337,290.41c.24-8.44-2.09-17-2.71-25.42,5.61-6.4,12.17-12.18,16.92-19.23C347.46,260.42,341.69,275.77,337,290.41Zm14.3-49.92c-.56,1.38-12.18,14-16.95,19.19-.71-2.21.15-3.8,1.47-5.27,1.13-1.26,13.51-21.34,16.36-31.12C351.84,227.86,353.66,234.76,351.34,240.49Zm-7.13-6.17C343,237,335.87,250,332.78,252.93c-6.38-14.11,9.14-24.47,14.12-37.58.76-2,3.39-13.41,3.06-17.1C355.23,210.92,349.81,222.59,344.21,234.32Zm.36-53.68c5.44,10.57,4,22.35-.92,33-.39.84-9.42,17.62-12.73,20.89-2.45-3.67-1.6-6.16.07-8.48,1.94-2.69,11.53-26,11.53-26C343.25,193.59,342.22,187,344.57,180.64Zm-5.7,16.49c-2.77,7.85-4.82,17.77-9.09,25.29-1.87-7.82-1.77-17-2.8-25.39,6.34-8.56,12.17-19.8,12-30.42C344.84,177.16,340.13,187.37,338.87,197.13Zm-5.57-31.21c-.13-2.81,1.16-5.48,1.79-8.24,5.91,11.18-2.87,24.61-8.24,34.42l-.62-3.91C329,180.43,335.13,174.5,333.3,165.92Zm-5.07-48.63c1.48,11.62,7.79,29.05-2.49,40.89C325.49,144.08,325.16,131.28,328.23,117.29Zm-1.31,43.63c.6-1.12,5.61-12.73,5.61-12.73,0,11.32-.52,22.53-6.23,33.51C326.45,174.93,323.57,167.08,326.92,160.92Zm-9-28.19c2.57-3.86,4.45-9.7,7.25-13.22a143.57,143.57,0,0,0-2.9,31.19C319.87,145,317.1,138.53,317.94,132.73Zm-2,6c1.25,7.76,5.19,14.94,6.05,22.7.21,1.85.43,17.82.43,17.82-6.87-10.32-7.2-22.8-8.48-34.11A30.52,30.52,0,0,1,315.9,138.74Zm-3.93,14c-.53,7.6,8.58,27.46,9.74,30.1a11.64,11.64,0,0,1,.92,8.12c-5.85-6.75-10-16.94-14.06-24.86C309.55,161.27,311.09,157.46,312,152.7Zm-4.89,20c5.94,8.84,10.05,18.21,16.33,27.14l2.12,21.29c-11.28-9-16.7-24.26-20.34-38.66C305.43,179.23,306.43,176,307.08,172.72Zm-2.66,18.51c2.32,6.07,14.18,27.81,17,30.14,2.2,1.79,4.24,3.62,5.07,6.08.5,1.48.18,7.06.18,7.06-8.29-9.19-18.13-17.09-22.75-29.46A118.06,118.06,0,0,1,304.42,191.23Zm-.33,25.21c6.56,10.95,8.06,26.2,16.83,36.49l3.48,4.51c-12.3-8.85-11.78-22.27-20.63-34Zm5.12,39.86c-.13,1.05-3.28,10.74-3.74,14.61L299.64,263c2-16.37.63-34.1-9.31-48.64C301.67,224.09,311.1,240.65,309.21,256.3ZM296,259c-4.31-5.06-12.54-20.85-13.32-22.73-1.4-3.36-2.1-6.7-.6-10.54.47-7.79-.3-15.46-3.91-23.42C294.85,216.69,301.31,243.8,296,259Zm-17.07-28c-6.9-2.79-2.46-11-4.39-15.95-1.57-6.65-1.77-14.52-5-21.12C278.48,200.36,279,230.91,279,230.91Zm-6.72-8.36-6.6-3.74c-.41-9.38-.76-19.22-4.14-28.31l-3-6.57C270.94,192.4,270.37,209,272.23,222.55Zm-8.85-18.48L262,207.48a80.45,80.45,0,0,0-11.46-29.9C257.61,181.47,260.81,196.71,263.38,204.07Zm-10.31-16.78c3.08,8.25,7,15.56,7.47,24.51-4.93-7.18-16-12.76-13.56-23.45-1.31-5.58-3.45-12-6.58-16.77C248,173.38,249.33,181.71,253.07,187.29Zm-9.61.7c-5.36-8.41-10.12-17.23-17.17-24.09C237.89,165.58,240.59,178.51,243.46,188Zm-40.53-33.11c6.14,2.15,14.06,3.06,19,7.64.79.73,10.7,13.78,13.67,18.36l5.14,8.06A277.85,277.85,0,0,0,202.93,154.88Zm4.14,7.34c7.86,6.16,14.54,13.47,21.84,20.14A67.26,67.26,0,0,1,212.19,176ZM213.65,179c6.47,4,13.47,7.38,20.41,8.46,3.73,4.31,7.77,8.31,11.09,13-9.32-1.53-19.24-3.26-27.74-9.41Zm6.07,16.52c8.1,5.33,19,8.32,29.05,9,2.87,4,6,7.67,9,11.39-9.79-1.36-19.67-2.36-29.41-6.6C225.13,205,220.5,199.9,219.72,195.51Zm11.32,17,10.87,3.85a5.56,5.56,0,0,0-3,3.39c1.71,2.79,5.51,3.37,7.84,4.89-1.2,5.08,8.13,2,6.36,7.32C240.34,233.76,238.37,219,231,212.53Zm15.62,20.83c4.25,1.54,17,3.57,17.29,9.23l-1.1,2.29-10.36-3.6ZM234.31,243.8c-1.91,1.51-6.21,1.63-5.7,4.63,8.7-2.39,16-4.42,24.38-2.35a43.23,43.23,0,0,0-10.49,4.82c.42.76,1.12.8,1.9.69s17.61-2.72,19.1-2.71c1,.5.72,1.77.16,2.6-1.79.62-5.4-1.51-5.48,1.9,1.17,2.14-2.81,3.89-3.27,3.76a53.81,53.81,0,0,1-7.24-2.32c-7.6-1.17-15.33,2.8-23,4.19.42-4,8.75-7.7,8.75-7.7-3.79.05-7.82,1.24-11.73,2.18-1.78-.86-4.06-1-5.56.45-.34.54-.43,1.21-1.19,1.15-1.67-2.06,2.87-3,3.54-5.36l-1.4-.67c-6.58,0-9.92,8-16.34,5.68l-.53-2.17C205.92,248.89,229.44,244.43,234.31,243.8Zm-16.55-.38c-5.14,1.05-9.81,4.05-14.26,5l-6.17-7.69C203.41,241.43,211,242.27,217.76,243.42Zm-46.95-11.08c7.07,1.46,12.5,5.5,20.1,6.34,3.11,2.84,6.59,5.86,8.22,9.32C189.35,245.16,178.8,238.56,170.81,232.34Zm1.85,6.24c6.75,3.26,14.34,8,21.09,11.29l-12.45-1.7C178.38,245,175.05,242.09,172.66,238.58Zm13.81,13.51c2.3-1,6.72.73,10.16.59l-4.51,3.48ZM106.68,316.4c8.46-3.37,18.27,1.37,26.84,1.35l.43-.89a122.39,122.39,0,0,0-19-5.26c-1-1.75.84-3,2.43-2.75,2.43-.31,4.68.38,7.09.6l.3-1.26c-3.26-2.05-9.15-2.86-9.84-7.59l1.7-.59c7.72,2.71,14.56,3.51,22,5.24.41-.35.12-1.2-.46-1.32-6-3.62-16.88-2.28-18.13-10.42,0-1.76.94-1.94,2.08-1.79s16.13,1.49,16.13,1.49l.43-.9c-2.9-2.27-7.29-1.8-9.67-4.67,3.91-.94,8.54.2,12.91.9l.43-.89L130.53,283a2.64,2.64,0,0,1,.61-3.71c11.28-3.18,22.18-1.37,33.4-4.74l7.16-1.33c-5.88,5-12.69,6.75-20.85,9.16-.06.45-.68.77-.3,1.27,6.62.45,12-3.13,19.16-5.19,10.87-5.9,16.07-14.06,26.14-20.11,4.23-.94,8.31,1.35,12.29-.89,1.62.07,1.24-1.91,2.89-1.74l1.71,2.79c-5.2,3.29-14,4.45-19,8.95,0,1.26,1.27.61,1.78.86,3.15-1.31,6.11-1.6,9.14-2.34-9.34,3.89-18.78,9.61-28.09,13.59-7.28,2.22-15.7,6.63-24.59,8.14l-.43.89c3,1.7,6.58.67,9.25,1.34-.78,3.55-3.14,4.05-5.95,4.82l-14,1.39-.43.89c4.67,1.86,9.34,1,14.09,1.23a3.4,3.4,0,0,1-.5,2.82c-5.09.29-3.17,6.4-5.47,9.53-4.75,2.5-9.71.42-14,2.24,3.95,1.91,8.68,1.22,13,2.36l.36,1c-2.95,1.87-5.78.11-7.61,3.39,2,1,3.79,2.07,6.29,1.63l-.43.89c-7.45,1.11-14.7.67-22.11.07l-.43.89a71.78,71.78,0,0,0,18.75,4.59l1.27.3a83,83,0,0,1-15.39.8l-.86,1.79c4.84,2.34,10.24,2.36,15.39,3.75a7.73,7.73,0,0,1-.39,4.37,4.34,4.34,0,0,0-4.67.88l-.44,2.06c-2-.35-4.56-2.44-6.49-.07s-.79,4.4.44,6.73l7,5.91c-3.21-1.31-8.62-1.65-8.58-6.11-4.49-2.25-.07-7.5-5.16-9.33.25-.51.91-.74,1-1.4.07-1.61-1.67-1.43-2.66-2.15,2.62-1,6.57-.91,9.83-.35.32-.32,0-.85-.07-1.14-5.41-2.14-11.75-.88-16.17-5.06a13.23,13.23,0,0,1,8.34-1l.68-1.4C118.26,323.8,111.94,321.77,106.68,316.4Zm33.57,77.89c-.31-2.44-7.43-4.93-8.88-4.85l-.37-1c2.78-.54,5.43-1.15,8.21-1.69-1.17-1.82-7.38-.81-8.33-.82-4.68-.05-8.76-3-13.69-2.21-.9-1.06.2-1.55.73-2.16,3.31-.83,7.13,1.65,9.7-.73-6.21-2.6-13-2.67-19.52-4.64-.79-.15-.67-1-1.34-1.44,4.73-1,15-.67,15-.67-7.94-2.43-17.53-2.9-24-8.79a34,34,0,0,1,5.53-3c2.47.09,5.17,1.16,7.33,1.57l.52-.92c-2.74-2.11-6.12-3.59-8.3-6.21,3.42-4.48,23,2.47,27.13,4.63l.43-.89c-4.73-3.86-16.39-12.4-16.53-13.73l5.54.72c.79-2.92-7.43-7.05-.88-9.22,2.12,2.44,6.64,4.46,4.13,8.51,5.12,2.09,3.93,8,8.19,9.91.87.39,9.74,2,12.35,3.31a5.61,5.61,0,0,1,3.1,4.5l-10.54-2.9-.4,1c5.28,2.39,10.54,5,14.82,8.5-6.74-2.63-14.19-4-21.29-5.19l-.24.51c10.08,4.32,22.36,5.55,30.17,14.27-7.21-1.83-14.49-4.8-21.82-4.58l-.19.38c12.73,3.41,25.3,7.29,33,18.25l-.9,4.13C159.85,393.08,149.9,394.63,140.25,394.29Zm51.09,39.39-11.47-8.93-1,.37a11.11,11.11,0,0,0,2.95,5.11c-2.09-.3-5-2.21-7.28-4.45-.75-.74-4.23-4.88-5.49-4.87-.41,2.79,2.17,4.12,3.27,6.06-9.17-2.63-19.63-8.94-20.84-19.42l.66-.23c2.77,4.32,4.74,9.36,9.45,11.95-.71-3.56-4.47-5.85-4.87-9.74.32,0,.44-.26.56-.51,3.9,2.67,4.67,8.22,8.87,10.25l.52-.92c-1.26-2.42-4.24-4.88-3.67-7.19,3.81-1.22,12.84,11.62,12.84,11.62l.66-.23c-.9-3.5-5.29-5.14-5.91-9.37,1.79-.63,3.35-.11,5,.47C181.21,421,188.48,430,198.85,430l.48.16.43-.89c-5.33-3.44-12.46-4.77-15-11.19,5.24-.45,8.1,5.33,13.9,5.86l.38-.14c-.42-3-7-4.33-4.38-8,4.55-.63,6,6.18,10.64,3.18-.69-1.35.52-3.36,2.14-2.66,4.78.35,4.71,6.52,7.71,9.07-3.47.36-6.87-.57-10.34-.21-.51,2.51,3.36,3.28,4.5,5.32C204.84,435,196.93,439.68,191.34,433.68Zm7.47,16.88a21.32,21.32,0,0,1,3.83-9.69,105.34,105.34,0,0,0,14.2-4.21c-1.56,6.16-9.64,4.84-12.2,10,2.51.5,3.82-.91,6.37-1.48-.2,6.42-7.53,7.28-9.17,12,1.8-.31,3.61-1.79,5.53-2.67,1.41,6.18-5.85,7.55-7.75,11.81,2.41.22,3.9-1.57,5.91-2.8,1.26,7-7.43,5.13-8.63,10.2,1.87-.12,4-1.38,5.67-2.29-.7,4.69-7.31,4.56-7.82,9.18,1.56.52,2.36-1.13,3.55-1.66a72.21,72.21,0,0,0-4.08,14.45C189.74,479.87,190.44,463.32,198.81,450.56ZM188.4,480.87a10.56,10.56,0,0,1,.73,5.46l-8.82-2.22C183.49,482.9,185.67,482.46,188.4,480.87Zm-14.23,5.38c5.27,1.44,10.61,1.28,15.77,3.61.18,4.17,2.21,7.28,1.8,11.55-8.54-4.75-17.5-7.67-27.59-10.19Zm.65,10.36c3.08,1.26,7,2.85,9.29,4.81-9.92-1.73-20-5.84-29.65-6.09C160.66,490,168,495.81,174.82,496.61Zm.49,6c-6.08-.18-13,2.73-19.51,1.89-1.28-.16-11.55-2-15.43-1.59C149.84,492.07,163.84,501,175.31,502.58Zm-37.55,1.75c1.72-.31,13.85,2.26,13.85,2.26-9.05,2-19.42,4.75-28.38,6.07C124,511,132.6,505.25,137.76,504.33ZM122.23,516.5c10.91-3,24.07-7.21,36-8.38-3.36,4.66-8.88,8-14.06,11C136.88,516.91,129.55,517.13,122.23,516.5Zm35.05,7.6-9.41-3.92a45.69,45.69,0,0,0,14.35-12.62A156.09,156.09,0,0,1,186,503.83C187,505.49,168.41,519.27,157.28,524.1Zm2,11.17c11.53-.94,24-.32,35.29,4a78.56,78.56,0,0,0-15.25,4.25c-12.37-2.36-25.21-4.56-38.06-3.16C146.14,535.6,152.8,537.1,159.26,535.27Zm-20.15,6.59a126.52,126.52,0,0,1,33.63,3.54c-1.2-.11-13.64,5.08-18.2,5.05-1,0-24.24-.44-32.73,3.15A45.53,45.53,0,0,1,139.11,541.86ZM120.2,558.72c9.53-4,19.89-7.67,30.88-6.52-3.53,1.13-9.87,5.13-14.05,6.8-10.86,6.22-25.49,11.94-37.55,18C105.36,570.24,110.2,560.72,120.2,558.72Zm-6,23.48c-6,.4-11.94-1.14-18-1.38,10.56-4.94,19.32-7.46,30.29-12.45C123.21,573.76,118.37,578.1,114.19,582.2Zm3.57.24c6.33-4.64,10.72-12.1,16.11-18.21,6.42-2.87,10.87-5.58,18.11-8.21-4.87,9.74-12.1,17.87-19.3,25.46C127.56,584.11,123.29,583.74,117.76,582.44Zm33.25-4c-4.57.85-10.66,2.22-13.91,2.62,7-8.57,15.19-16.3,19.09-27.3,6.6-2.93,17.36-4.88,17.36-4.88A105.9,105.9,0,0,1,151,578.49Zm7-1.71c7.26-8.35,16.1-18.84,19.49-30.71,5.85-2,20-3.59,20-3.59-4.64,12.52-12.87,21.74-22.31,29.9C170.37,574.18,164.14,576.35,158,576.78Zm23.35-6.54c8.91-7.87,17-19,21-30.2l15.16-1.46c-1.94,8.4-8.53,15-13.27,22.09C196.55,564.22,189.36,567.89,181.39,570.24Zm27.55-11.5c4.06-6.6,10.24-12.88,11.75-20.08l8.66-.36C224,546.31,219.22,556.33,208.94,558.74Zm18.25-10c-1.87.88-1.63-.06-.81-.95,2.84-3.05,6-6.3,7.78-9.71,7.58-.74,15.2-2.86,22.75-3.69C258.45,535.09,235.72,544.79,227.19,548.77Zm53.67-23.43c-8.4,3.88-17.77,5.24-26,3.32,5.77-1.37,11.51-5,16.71-8.89l.48.15c12.43-7.18,21-17.57,36-19.29C299.78,509.75,292.21,520.23,280.86,525.34Zm15.52,7.23,1.28.58c-.56,7.79,8,15.5,6.89,23.59-.23,1.61-3.84,18-3.84,18C297.35,562.06,292.88,546.41,296.38,532.57Zm15.9,73.32c-10-12.2-8.28-28.67-7.58-42.79l1.47-5.49c1.49,5.82,6.31,10.54,6.68,16.12C311.54,576.57,309.58,597.19,312.28,605.89ZM315,577.42c3.65,8.05,8.78,15.16,7.53,23.75-.55,8.45,1.38,15.82,3.11,24.43C311.06,613.94,313.89,593.15,315,577.42Zm12.53,47.63c-.15-1-2.57-17.21-2-24.18,1.41,1.63,10,18.94,11.7,24.88.84,3,1.69,16.94,1.69,16.94C334.75,637.27,328.54,632.09,327.5,625.05Zm15,22.53c-2.73-5.4-3-12.29-3.31-18.33,3.87,8.39,10.36,16.09,10.18,26.21Zm8.2,2.86c1.95-.46,12.2,13.76,14.67,21.16C360.16,665.25,349.86,660.89,350.67,650.44Zm17.62,22c-5.44-9.85-11.87-19.48-17.81-29.27,8.26,3.06,13.76,10.35,19.26,17C369.79,664.33,368.42,668.3,368.29,672.47ZM370.56,655c-7.2-5.76-14-12.91-23.37-16.65-3.18-6.09-7.08-11.51-9.67-18a80,80,0,0,1,33.1,25.11A24.42,24.42,0,0,1,370.56,655Zm.57-13.55c-10.34-9.95-21.73-19.85-35.91-25.61l-8.71-19.53c4.24,0,13.44,5.39,14.71,6.18A132.4,132.4,0,0,1,370.79,627C372.05,631.88,370.41,636.58,371.13,641.41Zm-.71-18.49c-12.41-12.83-27.89-25.34-45.8-30.86l-8-18.62c19.7,1.83,38.41,15.44,51.53,29.71A113.92,113.92,0,0,1,370.42,622.92Zm.05-33.9C363.8,572.28,361,555.46,360,537c4.39,6.52,11.23,12.5,15.95,19.65-5.49,11-5.36,22.93-3.18,34.67Zm4.64-.45c-.29-2.47-.52-20.26,2.31-26.75.67,12.27.3,24.89,3.62,36.86C376.69,597,375.6,592.82,375.11,588.57Zm5.49-25.21a114.82,114.82,0,0,1,9.66,18c-2.51,8.29-1.13,16.81-2.26,25.14C381.08,601.84,380.13,570.83,380.6,563.36Zm10,43.92c-1.17-3.84.65-18.28,2.22-21.06,7.36,13.22,10.48,29.5,11.5,44C400.22,622.65,393.09,615.53,390.57,607.28Zm17.67-10.44a199.33,199.33,0,0,1-1.78,27.72c-2.21-13.95-5.22-30.79-11.3-43.4C400.87,584.79,408.84,589.43,408.24,596.84Zm-.52-8.19c-4.37-5.25-10.14-9.07-15.73-13.26-3.24-5.34-5.85-11.31-9.7-16,5.07.88,11.13,4.59,15.76,8.17,3.36,3,5.62,6.72,8.48,10.07Zm-1.41-15.92c-5.94-8.84-16.55-14.68-27.21-18l-10.33-13.24a47,47,0,0,1,33.57,13.09C403.55,560.24,406.77,566.75,406.31,572.73Zm-6.59-24.39c-9.68-7.43-21.94-11.32-33.18-10.15l-12.66-15.4c8.66-1.09,19.7-1.31,30.28,5.69a12.88,12.88,0,0,1,5.81,9.17l2.68-3.26A36.87,36.87,0,0,1,399.72,548.34Zm-8.27-20.73c-2.22-17-2.66-33.8-12.08-49.9,7.4,4.52,12.53,12.26,16.42,19.8C396.81,507.74,393.91,518,391.45,527.61ZM389.74,468c4.76,5.75,4.09,12.34,5.09,19.19C389.58,479,380,475.36,373.11,469c-2.52-2.31-9.53-11.44-9.53-11.44C372.44,456,383.94,459.81,389.74,468Zm-3.48-7.58c-7.58-6.26-16.83-5.15-25.37-7.16-5.63-2.49-8.51-7.41-11.51-12.4,8.14,2.68,19.58-.87,26.91,5.32C377.68,447.32,386.26,460.38,386.26,460.38Zm153.24,39.3c-5.17-3.28-9.07-8.38-13.83-12.34-16.79-11.41-28.29-29.54-49.55-34.95-19.25-7-39.46-11.46-58.75-18.83-1.55.12-30.63,6.32-36.67,10.86l-1.54-1.37c12.07-6.11,25.35-10.52,38.79-11.17,3.67-1.84,7-1,10.28.65a229.52,229.52,0,0,0,22.25,8.61c11.72,3.08,23.64,5.41,35,9.48,17,13.15,33.41,26.91,51.94,38.78C539,492,540.56,496.35,539.5,499.68Z" transform="translate(-90.25 -103.42)"/></svg>
