<?xml version="1.0" encoding="UTF-8"?>
<svg xmlns="http://www.w3.org/2000/svg" xmlns:xlink="http://www.w3.org/1999/xlink" width="514pt" height="316pt" viewBox="0 0 514 316" version="1.1">
<g id="surface1">
<path style=" stroke:none;fill-rule:nonzero;fill:rgb(13.729858%,12.159729%,12.548828%);fill-opacity:1;" d="M 294.21875 144.316406 L 300.246094 143.136719 C 345.453125 134.355469 394.855469 99.371094 409.664063 68.3125 C 412.808594 65.429688 412.9375 62.285156 418.3125 62.285156 C 469.8125 61.761719 512.265625 19.4375 513.839844 0.0429688 C 504.667969 6.464844 483.832031 13.015625 472.167969 16.816406 C 413.332031 36.472656 358.296875 36.210938 301.554688 36.210938 C 274.953125 36.210938 242.457031 38.175781 215.984375 40.402344 C 216.378906 31.230469 217.03125 23.761719 211.789063 11.964844 C 207.46875 5.414063 200.65625 5.019531 204.980469 13.800781 C 214.003906 22.035156 209.566406 40.007813 209.171875 41.582031 C 156.625 45.382813 127.402344 65.300781 101.0625 93.605469 C 78.527344 119.027344 74.855469 160.828125 130.023438 138.945313 C 174.578125 119.027344 205.765625 87.96875 214.152344 51.277344 C 217.429688 47.347656 275.480469 53.507813 292.90625 55.996094 C 269.714844 59.140625 206.160156 137.503906 166.453125 182.84375 C 144.699219 207.738281 100.015625 243.25 63.0625 228.183594 C 55.464844 225.035156 51.53125 222.679688 50.351563 209.441406 C 49.433594 209.574219 49.960938 202.105469 43.277344 208.527344 C 42.882813 208.789063 42.753906 209.3125 42.359375 209.441406 C 33.1875 222.679688 14.710938 242.597656 3.046875 249.148438 C 3.441406 249.804688 -5.339844 252.816406 4.621094 260.679688 C 51.53125 297.765625 114.5625 276.667969 152.300781 235.519531 C 179.6875 205.644531 199.214844 169.871094 222.671875 137.109375 L 233.414063 121.910156 C 246.519531 104.871094 289.367188 55.996094 315.3125 58.09375 L 350.695313 61.5 C 317.804688 84.039063 259.621094 160.960938 257.003906 162.269531 C 212.054688 181.140625 149.941406 246.398438 110.5 301.957031 C 108.535156 304.578125 105.914063 307.332031 106.4375 310.867188 C 108.011719 320.957031 122.03125 314.40625 118.886719 306.9375 C 117.96875 304.839844 119.175781 302.835938 120.195313 300.910156 C 138.253906 266.785156 187.027344 216.78125 229.746094 184.285156 C 232.496094 182.1875 255.296875 166.59375 243.375 182.054688 C 219 213.769531 193.054688 244.824219 159.902344 267.757813 C 158.199219 268.933594 156.886719 269.589844 152.824219 270.507813 C 153.351563 270.378906 148.5 272.996094 151.644531 276.929688 C 158.589844 283.742188 168.941406 276.40625 175.234375 274.964844 C 184.929688 271.554688 185.847656 274.308594 191.089844 274.308594 C 211.398438 274.046875 244.945313 216.652344 258.179688 200.664063 C 271.679688 191.359375 282.554688 182.449219 299.984375 175.898438 C 322.261719 167.117188 320.164063 173.800781 305.355469 185.59375 C 296.707031 192.40625 237.738281 250.195313 257.132813 266.96875 C 268.53125 275.75 284.128906 270.113281 296.050781 263.695313 C 314.527344 253.734375 334.96875 236.4375 346.109375 224.382813 C 339.164063 243.25 343.09375 271.292969 367.339844 271.292969 C 382.929688 271.292969 408.351563 262.515625 446.746094 225.300781 C 452.382813 219.796875 454.871094 211.277344 445.566406 217.4375 C 436.65625 225.429688 431.808594 228.707031 424.863281 233.421875 C 388.960938 256.878906 368.253906 233.421875 379.785156 228.3125 C 397.476563 220.449219 414.25 210.753906 429.972656 199.484375 C 440.71875 191.753906 453.167969 182.710938 455.789063 169.605469 C 457.886719 158.863281 446.746094 153.226563 437.3125 153.226563 C 405.601563 153.226563 374.152344 176.945313 360.914063 196.207031 C 355.675781 202.890625 350.957031 213.898438 347.15625 215.339844 C 334.054688 231.066406 283.472656 260.023438 306.402344 209.050781 C 312.039063 196.46875 328.679688 180.878906 345.714844 170.394531 C 350.039063 166.726563 378.214844 154.277344 351.351563 153.882813 C 320.554688 154.015625 266.304688 186.378906 267.617188 183.367188 C 277.183594 165.414063 294.21875 144.839844 294.21875 144.316406 Z M 125.960938 110.769531 C 124.390625 108.148438 123.863281 104.742188 123.863281 101.730469 C 123.863281 72.769531 177.066406 49.574219 206.8125 50.492188 C 205.894531 70.804688 143.914063 138.027344 125.960938 110.769531 Z M 300.375 134.355469 L 360.261719 65.300781 C 367.859375 56.390625 381.097656 60.449219 383.585938 63.988281 C 392.105469 76.175781 343.355469 113.128906 333.398438 119.15625 C 323.832031 125.054688 297.753906 141.828125 300.375 134.355469 Z M 381.097656 193.980469 C 392.890625 173.933594 445.175781 136.714844 425.386719 181.007813 C 415.558594 207.347656 379.65625 225.035156 374.28125 224.644531 C 372.449219 218.878906 373.234375 206.167969 381.097656 193.980469 "/>
</g>
</svg>
