<?xml version="1.0" encoding="UTF-8"?>
<svg xmlns="http://www.w3.org/2000/svg" xmlns:xlink="http://www.w3.org/1999/xlink" width="556pt" height="258pt" viewBox="0 0 556 258" version="1.1">
<g id="surface1">
<path style=" stroke:none;fill-rule:nonzero;fill:rgb(0%,0%,0%);fill-opacity:1;" d="M 381.496094 230.738281 C 319.351563 200.476563 220.289063 205.511719 175.003906 247.964844 C 164.96875 257.371094 163.714844 264.269531 181.277344 248.59375 C 233.175781 202.253906 326.96875 218.535156 379.132813 243.039063 C 407.253906 256.246094 407.851563 243.578125 381.496094 230.738281 "/>
<path style=" stroke:none;fill-rule:nonzero;fill:rgb(0%,0%,0%);fill-opacity:1;" d="M 222.511719 48.535156 C 225.394531 47.953125 227.300781 45.34375 226.765625 42.703125 C 226.234375 40.0625 223.46875 38.390625 220.585938 38.96875 C 217.707031 39.550781 215.800781 42.160156 216.332031 44.800781 C 216.863281 47.445313 219.632813 49.113281 222.511719 48.535156 "/>
<path style=" stroke:none;fill-rule:nonzero;fill:rgb(0%,0%,0%);fill-opacity:1;" d="M 232.070313 30.917969 C 231.539063 28.277344 228.773438 26.605469 225.890625 27.183594 C 223.011719 27.765625 221.105469 30.378906 221.636719 33.019531 C 222.167969 35.660156 224.9375 37.328125 227.816406 36.75 C 230.699219 36.171875 232.605469 33.558594 232.070313 30.917969 "/>
<path style=" stroke:none;fill-rule:nonzero;fill:rgb(0%,0%,0%);fill-opacity:1;" d="M 231.589844 23.65625 C 232.121094 26.296875 234.886719 27.96875 237.769531 27.390625 C 240.648438 26.808594 242.554688 24.199219 242.023438 21.558594 C 241.492188 18.914063 238.726563 17.242188 235.84375 17.824219 C 232.960938 18.40625 231.058594 21.015625 231.589844 23.65625 "/>
<path style=" stroke:none;fill-rule:nonzero;fill:rgb(0%,0%,0%);fill-opacity:1;" d="M 208.335938 48.03125 C 211.21875 47.449219 213.121094 44.839844 212.589844 42.195313 C 212.058594 39.554688 209.289063 37.886719 206.410156 38.464844 C 203.527344 39.046875 201.625 41.65625 202.15625 44.296875 C 202.6875 46.9375 205.453125 48.609375 208.335938 48.03125 "/>
<path style=" stroke:none;fill-rule:nonzero;fill:rgb(0%,0%,0%);fill-opacity:1;" d="M 215.332031 36.703125 C 218.214844 36.125 220.117188 33.511719 219.585938 30.871094 C 219.054688 28.230469 216.289063 26.558594 213.40625 27.140625 C 210.527344 27.71875 208.621094 30.332031 209.152344 32.972656 C 209.683594 35.613281 212.453125 37.285156 215.332031 36.703125 "/>
<path style=" stroke:none;fill-rule:nonzero;fill:rgb(0%,0%,0%);fill-opacity:1;" d="M 221.386719 15.9375 C 218.507813 16.515625 216.601563 19.128906 217.132813 21.769531 C 217.664063 24.410156 220.433594 26.082031 223.3125 25.5 C 226.195313 24.921875 228.101563 22.308594 227.566406 19.667969 C 227.035156 17.027344 224.269531 15.355469 221.386719 15.9375 "/>
<path style=" stroke:none;fill-rule:nonzero;fill:rgb(0%,0%,0%);fill-opacity:1;" d="M 232.527344 15.648438 C 235.40625 15.070313 237.3125 12.457031 236.78125 9.816406 C 236.25 7.175781 233.480469 5.503906 230.601563 6.085938 C 227.71875 6.664063 225.816406 9.277344 226.347656 11.917969 C 226.878906 14.558594 229.644531 16.230469 232.527344 15.648438 "/>
<path style=" stroke:none;fill-rule:nonzero;fill:rgb(0%,0%,0%);fill-opacity:1;" d="M 218.964844 14.222656 C 221.84375 13.640625 223.75 11.03125 223.21875 8.386719 C 222.6875 5.746094 219.921875 4.074219 217.039063 4.65625 C 214.15625 5.234375 212.253906 7.847656 212.785156 10.488281 C 213.316406 13.128906 216.082031 14.800781 218.964844 14.222656 "/>
<path style=" stroke:none;fill-rule:nonzero;fill:rgb(0%,0%,0%);fill-opacity:1;" d="M 204.011719 9.871094 C 206.894531 9.292969 208.800781 6.683594 208.269531 4.039063 C 207.734375 1.398438 204.96875 -0.269531 202.089844 0.308594 C 199.207031 0.890625 197.300781 3.5 197.832031 6.140625 C 198.363281 8.78125 201.132813 10.453125 204.011719 9.871094 "/>
<path style=" stroke:none;fill-rule:nonzero;fill:rgb(0%,0%,0%);fill-opacity:1;" d="M 203.570313 20.339844 C 204.101563 22.980469 206.871094 24.652344 209.75 24.074219 C 212.632813 23.492188 214.535156 20.882813 214.003906 18.238281 C 213.472656 15.597656 210.707031 13.929688 207.824219 14.507813 C 204.945313 15.089844 203.039063 17.699219 203.570313 20.339844 "/>
<path style=" stroke:none;fill-rule:nonzero;fill:rgb(0%,0%,0%);fill-opacity:1;" d="M 206.914063 29.902344 C 206.386719 27.261719 203.617188 25.589844 200.738281 26.171875 C 197.855469 26.753906 195.949219 29.363281 196.480469 32.003906 C 197.015625 34.644531 199.78125 36.316406 202.660156 35.734375 C 205.542969 35.15625 207.449219 32.546875 206.914063 29.902344 "/>
<path style=" stroke:none;fill-rule:nonzero;fill:rgb(0%,0%,0%);fill-opacity:1;" d="M 196.617188 21.597656 C 199.496094 21.019531 201.402344 18.40625 200.871094 15.765625 C 200.339844 13.125 197.574219 11.453125 194.691406 12.035156 C 191.808594 12.613281 189.90625 15.226563 190.4375 17.867188 C 190.96875 20.507813 193.734375 22.179688 196.617188 21.597656 "/>
<path style=" stroke:none;fill-rule:nonzero;fill:rgb(0%,0%,0%);fill-opacity:1;" d="M 41.839844 174.230469 C 39.46875 174.726563 37.984375 177.230469 38.527344 179.820313 C 39.070313 182.410156 41.433594 184.105469 43.804688 183.605469 C 46.179688 183.109375 47.664063 180.605469 47.121094 178.019531 C 46.578125 175.429688 44.214844 173.734375 41.839844 174.230469 "/>
<path style=" stroke:none;fill-rule:nonzero;fill:rgb(0%,0%,0%);fill-opacity:1;" d="M 33.164063 178.917969 C 35.535156 178.417969 37.019531 175.917969 36.476563 173.328125 C 35.933594 170.738281 33.570313 169.042969 31.199219 169.539063 C 28.824219 170.039063 27.339844 172.539063 27.882813 175.128906 C 28.425781 177.71875 30.789063 179.414063 33.164063 178.917969 "/>
<path style=" stroke:none;fill-rule:nonzero;fill:rgb(0%,0%,0%);fill-opacity:1;" d="M 27.980469 164.4375 C 27.441406 161.851563 25.074219 160.15625 22.703125 160.652344 C 20.328125 161.148438 18.84375 163.652344 19.386719 166.238281 C 19.929688 168.828125 22.292969 170.523438 24.667969 170.027344 C 27.039063 169.53125 28.523438 167.027344 27.980469 164.4375 "/>
<path style=" stroke:none;fill-rule:nonzero;fill:rgb(0%,0%,0%);fill-opacity:1;" d="M 41.488281 186.992188 C 39.113281 187.492188 37.628906 189.992188 38.171875 192.582031 C 38.714844 195.171875 41.078125 196.867188 43.453125 196.367188 C 45.824219 195.871094 47.308594 193.371094 46.765625 190.78125 C 46.222656 188.191406 43.859375 186.496094 41.488281 186.992188 "/>
<path style=" stroke:none;fill-rule:nonzero;fill:rgb(0%,0%,0%);fill-opacity:1;" d="M 31.246094 180.777344 C 28.871094 181.273438 27.386719 183.777344 27.929688 186.363281 C 28.472656 188.953125 30.835938 190.648438 33.210938 190.152344 C 35.582031 189.65625 37.066406 187.152344 36.523438 184.566406 C 35.980469 181.976563 33.617188 180.28125 31.246094 180.777344 "/>
<path style=" stroke:none;fill-rule:nonzero;fill:rgb(0%,0%,0%);fill-opacity:1;" d="M 21.105469 173.675781 C 18.734375 174.171875 17.25 176.671875 17.792969 179.261719 C 18.335938 181.851563 20.699219 183.546875 23.070313 183.050781 C 25.445313 182.550781 26.929688 180.050781 26.386719 177.460938 C 25.84375 174.871094 23.480469 173.175781 21.105469 173.675781 "/>
<path style=" stroke:none;fill-rule:nonzero;fill:rgb(0%,0%,0%);fill-opacity:1;" d="M 14.140625 174.828125 C 16.511719 174.332031 17.996094 171.828125 17.453125 169.242188 C 16.910156 166.652344 14.546875 164.957031 12.175781 165.453125 C 9.800781 165.953125 8.316406 168.453125 8.859375 171.042969 C 9.402344 173.632813 11.765625 175.328125 14.140625 174.828125 "/>
<path style=" stroke:none;fill-rule:nonzero;fill:rgb(0%,0%,0%);fill-opacity:1;" d="M 16.265625 181.457031 C 15.722656 178.867188 13.359375 177.171875 10.984375 177.667969 C 8.613281 178.167969 7.128906 180.667969 7.671875 183.257813 C 8.214844 185.847656 10.578125 187.542969 12.949219 187.046875 C 15.324219 186.546875 16.808594 184.046875 16.265625 181.457031 "/>
<path style=" stroke:none;fill-rule:nonzero;fill:rgb(0%,0%,0%);fill-opacity:1;" d="M 7.179688 191.15625 C 4.804688 191.652344 3.324219 194.15625 3.863281 196.742188 C 4.40625 199.332031 6.769531 201.027344 9.144531 200.53125 C 11.519531 200.03125 13.003906 197.53125 12.460938 194.941406 C 11.917969 192.351563 9.550781 190.65625 7.179688 191.15625 "/>
<path style=" stroke:none;fill-rule:nonzero;fill:rgb(0%,0%,0%);fill-opacity:1;" d="M 19.917969 185.890625 C 17.542969 186.386719 16.058594 188.890625 16.601563 191.480469 C 17.144531 194.066406 19.507813 195.761719 21.882813 195.265625 C 24.253906 194.769531 25.738281 192.265625 25.199219 189.675781 C 24.65625 187.089844 22.289063 185.394531 19.917969 185.890625 "/>
<path style=" stroke:none;fill-rule:nonzero;fill:rgb(0%,0%,0%);fill-opacity:1;" d="M 30.464844 192.1875 C 28.089844 192.683594 26.605469 195.1875 27.148438 197.777344 C 27.691406 200.363281 30.054688 202.058594 32.429688 201.5625 C 34.800781 201.066406 36.285156 198.5625 35.742188 195.972656 C 35.203125 193.386719 32.839844 191.691406 30.464844 192.1875 "/>
<path style=" stroke:none;fill-rule:nonzero;fill:rgb(0%,0%,0%);fill-opacity:1;" d="M 17.785156 197.726563 C 15.410156 198.226563 13.925781 200.726563 14.46875 203.316406 C 15.011719 205.90625 17.375 207.601563 19.75 207.101563 C 22.121094 206.605469 23.605469 204.105469 23.0625 201.515625 C 22.523438 198.925781 20.15625 197.230469 17.785156 197.726563 "/>
<path style=" stroke:none;fill-rule:nonzero;fill:rgb(0%,0%,0%);fill-opacity:1;" d="M 34.027344 105.585938 C 33.9375 107.964844 35.636719 109.957031 37.816406 110.035156 C 39.996094 110.117188 41.835938 108.253906 41.921875 105.871094 C 42.011719 103.496094 40.3125 101.5 38.132813 101.421875 C 35.953125 101.34375 34.113281 103.207031 34.027344 105.585938 "/>
<path style=" stroke:none;fill-rule:nonzero;fill:rgb(0%,0%,0%);fill-opacity:1;" d="M 33.199219 111.65625 C 33.285156 109.277344 31.585938 107.28125 29.40625 107.203125 C 27.226563 107.121094 25.386719 108.988281 25.300781 111.367188 C 25.214844 113.746094 26.910156 115.738281 29.089844 115.816406 C 31.273438 115.898438 33.109375 114.035156 33.199219 111.65625 "/>
<path style=" stroke:none;fill-rule:nonzero;fill:rgb(0%,0%,0%);fill-opacity:1;" d="M 22.910156 124.996094 C 25.089844 125.078125 26.929688 123.210938 27.015625 120.835938 C 27.101563 118.453125 25.40625 116.460938 23.222656 116.382813 C 21.042969 116.300781 19.207031 118.164063 19.117188 120.546875 C 19.03125 122.925781 20.730469 124.917969 22.910156 124.996094 "/>
<path style=" stroke:none;fill-rule:nonzero;fill:rgb(0%,0%,0%);fill-opacity:1;" d="M 35.558594 98.769531 C 37.742188 98.851563 39.578125 96.984375 39.664063 94.605469 C 39.753906 92.226563 38.054688 90.234375 35.875 90.15625 C 33.695313 90.074219 31.855469 91.941406 31.769531 94.320313 C 31.679688 96.699219 33.378906 98.691406 35.558594 98.769531 "/>
<path style=" stroke:none;fill-rule:nonzero;fill:rgb(0%,0%,0%);fill-opacity:1;" d="M 23.632813 101.394531 C 23.542969 103.773438 25.242188 105.765625 27.421875 105.84375 C 29.601563 105.925781 31.441406 104.058594 31.527344 101.679688 C 31.613281 99.300781 29.917969 97.308594 27.738281 97.230469 C 25.554688 97.148438 23.71875 99.015625 23.632813 101.394531 "/>
<path style=" stroke:none;fill-rule:nonzero;fill:rgb(0%,0%,0%);fill-opacity:1;" d="M 23.617188 109.527344 C 23.703125 107.144531 22.007813 105.152344 19.824219 105.074219 C 17.644531 104.992188 15.804688 106.859375 15.71875 109.238281 C 15.632813 111.617188 17.328125 113.609375 19.511719 113.6875 C 21.691406 113.769531 23.53125 111.90625 23.617188 109.527344 "/>
<path style=" stroke:none;fill-rule:nonzero;fill:rgb(0%,0%,0%);fill-opacity:1;" d="M 9.046875 117.890625 C 8.960938 120.269531 10.660156 122.261719 12.839844 122.339844 C 15.019531 122.421875 16.859375 120.558594 16.945313 118.179688 C 17.03125 115.800781 15.335938 113.804688 13.15625 113.726563 C 10.972656 113.644531 9.136719 115.511719 9.046875 117.890625 "/>
<path style=" stroke:none;fill-rule:nonzero;fill:rgb(0%,0%,0%);fill-opacity:1;" d="M 10.238281 103.070313 C 8.058594 102.992188 6.21875 104.855469 6.132813 107.234375 C 6.046875 109.613281 7.742188 111.605469 9.925781 111.6875 C 12.105469 111.765625 13.945313 109.902344 14.03125 107.523438 C 14.117188 105.144531 12.421875 103.152344 10.238281 103.070313 "/>
<path style=" stroke:none;fill-rule:nonzero;fill:rgb(0%,0%,0%);fill-opacity:1;" d="M 8.601563 96.140625 C 8.6875 93.761719 6.988281 91.769531 4.808594 91.6875 C 2.628906 91.609375 0.789063 93.472656 0.703125 95.851563 C 0.617188 98.230469 2.3125 100.226563 4.496094 100.304688 C 6.675781 100.386719 8.515625 98.519531 8.601563 96.140625 "/>
<path style=" stroke:none;fill-rule:nonzero;fill:rgb(0%,0%,0%);fill-opacity:1;" d="M 12.804688 98.582031 C 12.71875 100.960938 14.414063 102.953125 16.59375 103.035156 C 18.777344 103.113281 20.613281 101.25 20.703125 98.871094 C 20.789063 96.492188 19.089844 94.5 16.910156 94.417969 C 14.730469 94.339844 12.890625 96.203125 12.804688 98.582031 "/>
<path style=" stroke:none;fill-rule:nonzero;fill:rgb(0%,0%,0%);fill-opacity:1;" d="M 24.992188 95.84375 C 27.171875 95.921875 29.011719 94.058594 29.097656 91.679688 C 29.183594 89.300781 27.488281 87.308594 25.304688 87.226563 C 23.125 87.148438 21.285156 89.011719 21.199219 91.390625 C 21.113281 93.769531 22.808594 95.761719 24.992188 95.84375 "/>
<path style=" stroke:none;fill-rule:nonzero;fill:rgb(0%,0%,0%);fill-opacity:1;" d="M 12.902344 92.859375 C 15.082031 92.9375 16.917969 91.074219 17.007813 88.695313 C 17.09375 86.316406 15.394531 84.324219 13.214844 84.242188 C 11.035156 84.164063 9.195313 86.027344 9.109375 88.40625 C 9.023438 90.785156 10.71875 92.78125 12.902344 92.859375 "/>
<path style=" stroke:none;fill-rule:nonzero;fill:rgb(0%,0%,0%);fill-opacity:1;" d="M 65.875 164.859375 C 63.53125 158.175781 64.136719 154.507813 71.832031 150.4375 C 77.164063 147.613281 74.652344 147.300781 70.265625 148.867188 C 64.019531 151.097656 54.292969 155.996094 58.972656 168.3125 C 62.769531 178.292969 68.070313 171.132813 65.875 164.859375 "/>
<path style=" stroke:none;fill-rule:nonzero;fill:rgb(0%,0%,0%);fill-opacity:1;" d="M 62.945313 136.566406 C 67.246094 138.367188 69.769531 138.191406 64.597656 135.085938 C 57.132813 130.601563 56.726563 126.910156 59.425781 120.359375 C 61.957031 114.214844 57.050781 106.777344 52.722656 116.539063 C 47.386719 128.585938 56.832031 134.003906 62.945313 136.566406 "/>
<path style=" stroke:none;fill-rule:nonzero;fill:rgb(0%,0%,0%);fill-opacity:1;" d="M 37.960938 146.066406 C 41.085938 141.257813 43.734375 139.828125 50.15625 142.738281 C 54.605469 144.757813 53.5625 142.996094 50.382813 140.960938 C 45.863281 138.0625 37.902344 134.257813 32.332031 143.355469 C 27.8125 150.734375 35.027344 150.582031 37.960938 146.066406 "/>
<path style=" stroke:none;fill-rule:nonzero;fill:rgb(0%,0%,0%);fill-opacity:1;" d="M 166.03125 83.3125 C 162.359375 87.230469 157.167969 94.363281 165.101563 101.5 C 171.53125 107.285156 172.695313 100.164063 168.792969 96.460938 C 164.628906 92.511719 163.707031 89.648438 167.742188 83.863281 C 170.539063 79.855469 168.613281 80.558594 166.03125 83.3125 "/>
<path style=" stroke:none;fill-rule:nonzero;fill:rgb(0%,0%,0%);fill-opacity:1;" d="M 157.253906 57.191406 C 155.984375 67.785156 164.589844 69.734375 169.933594 70.261719 C 173.691406 70.636719 175.601563 69.898438 170.859375 68.722656 C 164.011719 67.027344 162.820313 64.265625 163.351563 58.554688 C 163.847656 53.195313 158.277344 48.605469 157.253906 57.191406 "/>
<path style=" stroke:none;fill-rule:nonzero;fill:rgb(0%,0%,0%);fill-opacity:1;" d="M 156.683594 93.941406 C 153.773438 97.800781 149.816406 104.683594 157.601563 110.304688 C 163.914063 114.863281 164.269531 108.378906 160.421875 105.4375 C 156.316406 102.304688 155.214844 99.832031 158.265625 94.269531 C 160.378906 90.410156 158.726563 91.226563 156.683594 93.941406 "/>
<path style=" stroke:none;fill-rule:nonzero;fill:rgb(0%,0%,0%);fill-opacity:1;" d="M 136.894531 36.175781 C 135.816406 29.203125 137.90625 27.039063 143.382813 25.328125 C 148.519531 23.71875 150.609375 16.8125 142.289063 19.175781 C 132.023438 22.089844 133.546875 30.78125 135.113281 35.914063 C 136.21875 39.523438 137.636719 41.003906 136.894531 36.175781 "/>
<path style=" stroke:none;fill-rule:nonzero;fill:rgb(0%,0%,0%);fill-opacity:1;" d="M 333.988281 49.132813 C 336.867188 49.714844 339.636719 48.042969 340.167969 45.402344 C 340.699219 42.761719 338.792969 40.148438 335.914063 39.570313 C 333.03125 38.988281 330.265625 40.660156 329.734375 43.300781 C 329.199219 45.941406 331.105469 48.554688 333.988281 49.132813 "/>
<path style=" stroke:none;fill-rule:nonzero;fill:rgb(0%,0%,0%);fill-opacity:1;" d="M 334.863281 33.617188 C 335.394531 30.976563 333.488281 28.363281 330.609375 27.785156 C 327.726563 27.203125 324.960938 28.875 324.429688 31.515625 C 323.894531 34.15625 325.800781 36.769531 328.683594 37.351563 C 331.5625 37.929688 334.328125 36.257813 334.863281 33.617188 "/>
<path style=" stroke:none;fill-rule:nonzero;fill:rgb(0%,0%,0%);fill-opacity:1;" d="M 318.730469 27.988281 C 321.613281 28.570313 324.378906 26.898438 324.910156 24.257813 C 325.441406 21.617188 323.539063 19.003906 320.65625 18.425781 C 317.773438 17.84375 315.007813 19.515625 314.476563 22.15625 C 313.945313 24.796875 315.847656 27.410156 318.730469 27.988281 "/>
<path style=" stroke:none;fill-rule:nonzero;fill:rgb(0%,0%,0%);fill-opacity:1;" d="M 348.164063 48.628906 C 351.046875 49.210938 353.8125 47.539063 354.34375 44.898438 C 354.875 42.257813 352.972656 39.644531 350.089844 39.0625 C 347.207031 38.484375 344.441406 40.15625 343.910156 42.796875 C 343.378906 45.4375 345.28125 48.050781 348.164063 48.628906 "/>
<path style=" stroke:none;fill-rule:nonzero;fill:rgb(0%,0%,0%);fill-opacity:1;" d="M 347.347656 33.570313 C 347.878906 30.929688 345.972656 28.320313 343.09375 27.738281 C 340.210938 27.160156 337.445313 28.828125 336.914063 31.472656 C 336.382813 34.113281 338.285156 36.722656 341.167969 37.304688 C 344.046875 37.882813 346.816406 36.214844 347.347656 33.570313 "/>
<path style=" stroke:none;fill-rule:nonzero;fill:rgb(0%,0%,0%);fill-opacity:1;" d="M 333.1875 26.101563 C 336.066406 26.679688 338.835938 25.011719 339.367188 22.367188 C 339.898438 19.726563 337.992188 17.117188 335.113281 16.535156 C 332.230469 15.957031 329.464844 17.628906 328.933594 20.269531 C 328.398438 22.910156 330.304688 25.519531 333.1875 26.101563 "/>
<path style=" stroke:none;fill-rule:nonzero;fill:rgb(0%,0%,0%);fill-opacity:1;" d="M 323.972656 16.25 C 326.855469 16.828125 329.621094 15.15625 330.152344 12.515625 C 330.683594 9.875 328.78125 7.265625 325.898438 6.683594 C 323.019531 6.105469 320.25 7.773438 319.71875 10.414063 C 319.1875 13.058594 321.09375 15.667969 323.972656 16.25 "/>
<path style=" stroke:none;fill-rule:nonzero;fill:rgb(0%,0%,0%);fill-opacity:1;" d="M 337.535156 14.820313 C 340.417969 15.402344 343.183594 13.730469 343.714844 11.089844 C 344.246094 8.445313 342.34375 5.835938 339.460938 5.257813 C 336.578125 4.675781 333.8125 6.347656 333.28125 8.988281 C 332.75 11.628906 334.65625 14.242188 337.535156 14.820313 "/>
<path style=" stroke:none;fill-rule:nonzero;fill:rgb(0%,0%,0%);fill-opacity:1;" d="M 352.488281 10.472656 C 355.367188 11.054688 358.136719 9.382813 358.667969 6.742188 C 359.199219 4.101563 357.292969 1.488281 354.410156 0.90625 C 351.53125 0.328125 348.765625 2 348.230469 4.640625 C 347.699219 7.28125 349.605469 9.894531 352.488281 10.472656 "/>
<path style=" stroke:none;fill-rule:nonzero;fill:rgb(0%,0%,0%);fill-opacity:1;" d="M 346.75 24.671875 C 349.628906 25.253906 352.398438 23.582031 352.929688 20.941406 C 353.460938 18.300781 351.554688 15.6875 348.675781 15.105469 C 345.792969 14.527344 343.027344 16.199219 342.496094 18.839844 C 341.964844 21.480469 343.867188 24.09375 346.75 24.671875 "/>
<path style=" stroke:none;fill-rule:nonzero;fill:rgb(0%,0%,0%);fill-opacity:1;" d="M 360.019531 32.605469 C 360.550781 29.960938 358.644531 27.351563 355.761719 26.769531 C 352.882813 26.191406 350.113281 27.863281 349.585938 30.503906 C 349.050781 33.144531 350.957031 35.757813 353.839844 36.335938 C 356.71875 36.914063 359.484375 35.246094 360.019531 32.605469 "/>
<path style=" stroke:none;fill-rule:nonzero;fill:rgb(0%,0%,0%);fill-opacity:1;" d="M 355.628906 16.367188 C 355.097656 19.007813 357 21.617188 359.882813 22.199219 C 362.765625 22.777344 365.53125 21.105469 366.0625 18.464844 C 366.59375 15.824219 364.691406 13.214844 361.808594 12.632813 C 358.925781 12.054688 356.160156 13.722656 355.628906 16.367188 "/>
<path style=" stroke:none;fill-rule:nonzero;fill:rgb(0%,0%,0%);fill-opacity:1;" d="M 512.695313 184.207031 C 515.066406 184.703125 517.429688 183.007813 517.972656 180.417969 C 518.515625 177.832031 517.03125 175.328125 514.660156 174.832031 C 512.285156 174.332031 509.921875 176.03125 509.378906 178.617188 C 508.835938 181.207031 510.320313 183.710938 512.695313 184.207031 "/>
<path style=" stroke:none;fill-rule:nonzero;fill:rgb(0%,0%,0%);fill-opacity:1;" d="M 520.023438 173.925781 C 519.480469 176.515625 520.964844 179.019531 523.335938 179.515625 C 525.710938 180.011719 528.074219 178.316406 528.617188 175.730469 C 529.160156 173.140625 527.675781 170.636719 525.300781 170.140625 C 522.929688 169.644531 520.566406 171.339844 520.023438 173.925781 "/>
<path style=" stroke:none;fill-rule:nonzero;fill:rgb(0%,0%,0%);fill-opacity:1;" d="M 537.113281 166.839844 C 537.652344 164.25 536.171875 161.75 533.796875 161.25 C 531.425781 160.753906 529.058594 162.449219 528.519531 165.039063 C 527.976563 167.628906 529.460938 170.128906 531.832031 170.628906 C 534.207031 171.125 536.570313 169.429688 537.113281 166.839844 "/>
<path style=" stroke:none;fill-rule:nonzero;fill:rgb(0%,0%,0%);fill-opacity:1;" d="M 515.011719 187.59375 C 512.640625 187.09375 510.273438 188.789063 509.734375 191.378906 C 509.191406 193.96875 510.675781 196.46875 513.046875 196.96875 C 515.421875 197.464844 517.785156 195.769531 518.328125 193.179688 C 518.871094 190.59375 517.386719 188.089844 515.011719 187.59375 "/>
<path style=" stroke:none;fill-rule:nonzero;fill:rgb(0%,0%,0%);fill-opacity:1;" d="M 523.289063 190.753906 C 525.664063 191.25 528.027344 189.554688 528.570313 186.964844 C 529.113281 184.375 527.628906 181.875 525.253906 181.375 C 522.882813 180.878906 520.515625 182.574219 519.976563 185.164063 C 519.433594 187.753906 520.914063 190.253906 523.289063 190.753906 "/>
<path style=" stroke:none;fill-rule:nonzero;fill:rgb(0%,0%,0%);fill-opacity:1;" d="M 533.429688 183.648438 C 535.800781 184.148438 538.164063 182.453125 538.707031 179.863281 C 539.25 177.273438 537.765625 174.773438 535.394531 174.273438 C 533.019531 173.777344 530.65625 175.472656 530.113281 178.0625 C 529.570313 180.648438 531.054688 183.152344 533.429688 183.648438 "/>
<path style=" stroke:none;fill-rule:nonzero;fill:rgb(0%,0%,0%);fill-opacity:1;" d="M 542.359375 175.429688 C 544.734375 175.925781 547.097656 174.230469 547.640625 171.640625 C 548.183594 169.050781 546.699219 166.550781 544.324219 166.054688 C 541.953125 165.554688 539.589844 167.25 539.046875 169.839844 C 538.503906 172.429688 539.988281 174.929688 542.359375 175.429688 "/>
<path style=" stroke:none;fill-rule:nonzero;fill:rgb(0%,0%,0%);fill-opacity:1;" d="M 548.828125 183.855469 C 549.371094 181.269531 547.886719 178.765625 545.515625 178.269531 C 543.140625 177.773438 540.777344 179.46875 540.234375 182.054688 C 539.691406 184.644531 541.175781 187.148438 543.550781 187.644531 C 545.921875 188.140625 548.285156 186.445313 548.828125 183.855469 "/>
<path style=" stroke:none;fill-rule:nonzero;fill:rgb(0%,0%,0%);fill-opacity:1;" d="M 549.320313 191.753906 C 546.945313 191.257813 544.582031 192.953125 544.039063 195.542969 C 543.496094 198.132813 544.980469 200.632813 547.355469 201.128906 C 549.730469 201.628906 552.09375 199.933594 552.636719 197.34375 C 553.179688 194.753906 551.691406 192.253906 549.320313 191.753906 "/>
<path style=" stroke:none;fill-rule:nonzero;fill:rgb(0%,0%,0%);fill-opacity:1;" d="M 539.898438 192.078125 C 540.4375 189.488281 538.953125 186.988281 536.582031 186.488281 C 534.210938 185.992188 531.84375 187.6875 531.304688 190.277344 C 530.761719 192.867188 532.242188 195.367188 534.617188 195.867188 C 536.992188 196.363281 539.355469 194.667969 539.898438 192.078125 "/>
<path style=" stroke:none;fill-rule:nonzero;fill:rgb(0%,0%,0%);fill-opacity:1;" d="M 526.035156 192.785156 C 523.660156 192.289063 521.296875 193.984375 520.757813 196.574219 C 520.214844 199.164063 521.695313 201.664063 524.070313 202.160156 C 526.445313 202.660156 528.808594 200.964844 529.351563 198.375 C 529.894531 195.785156 528.40625 193.285156 526.035156 192.785156 "/>
<path style=" stroke:none;fill-rule:nonzero;fill:rgb(0%,0%,0%);fill-opacity:1;" d="M 538.714844 198.328125 C 536.34375 197.832031 533.976563 199.527344 533.4375 202.113281 C 532.894531 204.703125 534.378906 207.207031 536.75 207.703125 C 539.125 208.199219 541.488281 206.503906 542.03125 203.914063 C 542.574219 201.328125 541.089844 198.824219 538.714844 198.328125 "/>
<path style=" stroke:none;fill-rule:nonzero;fill:rgb(0%,0%,0%);fill-opacity:1;" d="M 518.683594 110.636719 C 520.863281 110.558594 522.5625 108.5625 522.472656 106.183594 C 522.386719 103.804688 520.550781 101.941406 518.367188 102.019531 C 516.1875 102.101563 514.488281 104.09375 514.578125 106.472656 C 514.664063 108.851563 516.503906 110.714844 518.683594 110.636719 "/>
<path style=" stroke:none;fill-rule:nonzero;fill:rgb(0%,0%,0%);fill-opacity:1;" d="M 527.09375 107.800781 C 524.914063 107.882813 523.214844 109.875 523.304688 112.253906 C 523.390625 114.632813 525.226563 116.496094 527.410156 116.417969 C 529.589844 116.339844 531.285156 114.34375 531.199219 111.964844 C 531.113281 109.585938 529.273438 107.722656 527.09375 107.800781 "/>
<path style=" stroke:none;fill-rule:nonzero;fill:rgb(0%,0%,0%);fill-opacity:1;" d="M 533.589844 125.597656 C 535.769531 125.515625 537.46875 123.523438 537.382813 121.144531 C 537.296875 118.765625 535.457031 116.902344 533.273438 116.980469 C 531.09375 117.0625 529.398438 119.054688 529.484375 121.433594 C 529.570313 123.8125 531.410156 125.675781 533.589844 125.597656 "/>
<path style=" stroke:none;fill-rule:nonzero;fill:rgb(0%,0%,0%);fill-opacity:1;" d="M 520.941406 99.371094 C 523.121094 99.289063 524.816406 97.296875 524.730469 94.917969 C 524.644531 92.539063 522.804688 90.675781 520.625 90.753906 C 518.445313 90.835938 516.746094 92.828125 516.835938 95.207031 C 516.921875 97.585938 518.757813 99.449219 520.941406 99.371094 "/>
<path style=" stroke:none;fill-rule:nonzero;fill:rgb(0%,0%,0%);fill-opacity:1;" d="M 529.078125 106.445313 C 531.257813 106.363281 532.957031 104.371094 532.867188 101.992188 C 532.78125 99.613281 530.945313 97.75 528.761719 97.828125 C 526.582031 97.90625 524.886719 99.902344 524.972656 102.28125 C 525.058594 104.660156 526.898438 106.523438 529.078125 106.445313 "/>
<path style=" stroke:none;fill-rule:nonzero;fill:rgb(0%,0%,0%);fill-opacity:1;" d="M 540.78125 109.835938 C 540.695313 107.457031 538.855469 105.59375 536.675781 105.671875 C 534.492188 105.753906 532.796875 107.746094 532.882813 110.125 C 532.96875 112.503906 534.808594 114.367188 536.988281 114.289063 C 539.171875 114.210938 540.867188 112.214844 540.78125 109.835938 "/>
<path style=" stroke:none;fill-rule:nonzero;fill:rgb(0%,0%,0%);fill-opacity:1;" d="M 543.660156 122.941406 C 545.839844 122.859375 547.539063 120.867188 547.449219 118.488281 C 547.363281 116.109375 545.527344 114.246094 543.34375 114.324219 C 541.164063 114.40625 539.46875 116.398438 539.554688 118.777344 C 539.640625 121.15625 541.480469 123.019531 543.660156 122.941406 "/>
<path style=" stroke:none;fill-rule:nonzero;fill:rgb(0%,0%,0%);fill-opacity:1;" d="M 550.367188 107.835938 C 550.277344 105.453125 548.441406 103.589844 546.261719 103.671875 C 544.078125 103.75 542.382813 105.742188 542.46875 108.121094 C 542.554688 110.503906 544.394531 112.367188 546.574219 112.285156 C 548.757813 112.207031 550.453125 110.214844 550.367188 107.835938 "/>
<path style=" stroke:none;fill-rule:nonzero;fill:rgb(0%,0%,0%);fill-opacity:1;" d="M 551.691406 92.289063 C 549.511719 92.367188 547.8125 94.363281 547.898438 96.742188 C 547.984375 99.121094 549.824219 100.984375 552.003906 100.902344 C 554.1875 100.824219 555.882813 98.832031 555.796875 96.453125 C 555.710938 94.074219 553.871094 92.210938 551.691406 92.289063 "/>
<path style=" stroke:none;fill-rule:nonzero;fill:rgb(0%,0%,0%);fill-opacity:1;" d="M 539.902344 103.632813 C 542.085938 103.554688 543.78125 101.5625 543.695313 99.183594 C 543.609375 96.804688 541.769531 94.9375 539.589844 95.019531 C 537.410156 95.097656 535.710938 97.09375 535.796875 99.46875 C 535.886719 101.851563 537.722656 103.714844 539.902344 103.632813 "/>
<path style=" stroke:none;fill-rule:nonzero;fill:rgb(0%,0%,0%);fill-opacity:1;" d="M 531.507813 96.441406 C 533.6875 96.363281 535.386719 94.371094 535.300781 91.992188 C 535.214844 89.613281 533.375 87.746094 531.195313 87.828125 C 529.011719 87.90625 527.316406 89.898438 527.402344 92.277344 C 527.488281 94.65625 529.328125 96.523438 531.507813 96.441406 "/>
<path style=" stroke:none;fill-rule:nonzero;fill:rgb(0%,0%,0%);fill-opacity:1;" d="M 543.601563 93.460938 C 545.78125 93.378906 547.476563 91.386719 547.390625 89.007813 C 547.304688 86.628906 545.464844 84.765625 543.285156 84.84375 C 541.105469 84.921875 539.40625 86.917969 539.492188 89.296875 C 539.578125 91.675781 541.417969 93.539063 543.601563 93.460938 "/>
<path style=" stroke:none;fill-rule:nonzero;fill:rgb(0%,0%,0%);fill-opacity:1;" d="M 486.234375 149.46875 C 481.847656 147.898438 479.335938 148.214844 484.667969 151.035156 C 492.363281 155.109375 492.96875 158.773438 490.628906 165.460938 C 488.429688 171.734375 493.730469 178.894531 497.523438 168.910156 C 502.207031 156.597656 492.480469 151.695313 486.234375 149.46875 "/>
<path style=" stroke:none;fill-rule:nonzero;fill:rgb(0%,0%,0%);fill-opacity:1;" d="M 497.074219 120.957031 C 499.769531 127.507813 499.367188 131.199219 491.902344 135.683594 C 486.730469 138.789063 489.253906 138.96875 493.554688 137.164063 C 499.664063 134.601563 509.113281 129.183594 503.777344 117.140625 C 499.449219 107.378906 494.542969 114.8125 497.074219 120.957031 "/>
<path style=" stroke:none;fill-rule:nonzero;fill:rgb(0%,0%,0%);fill-opacity:1;" d="M 506.117188 141.558594 C 502.9375 143.59375 501.894531 145.359375 506.34375 143.339844 C 512.765625 140.425781 515.414063 141.855469 518.539063 146.667969 C 521.472656 151.179688 528.6875 151.332031 524.167969 143.953125 C 518.597656 134.855469 510.636719 138.660156 506.117188 141.558594 "/>
<path style=" stroke:none;fill-rule:nonzero;fill:rgb(0%,0%,0%);fill-opacity:1;" d="M 387.707031 97.058594 C 383.804688 100.765625 384.96875 107.886719 391.398438 102.101563 C 399.332031 94.964844 394.140625 87.832031 390.46875 83.914063 C 387.886719 81.15625 385.964844 80.453125 388.757813 84.460938 C 392.789063 90.246094 391.871094 93.109375 387.707031 97.058594 "/>
<path style=" stroke:none;fill-rule:nonzero;fill:rgb(0%,0%,0%);fill-opacity:1;" d="M 398.898438 110.90625 C 406.683594 105.285156 402.726563 98.402344 399.816406 94.539063 C 397.773438 91.828125 396.121094 91.011719 398.234375 94.867188 C 401.285156 100.433594 400.183594 102.90625 396.078125 106.039063 C 392.230469 108.976563 392.585938 115.460938 398.898438 110.90625 "/>
<path style=" stroke:none;fill-rule:nonzero;fill:rgb(0%,0%,0%);fill-opacity:1;" d="M 413.117188 25.925781 C 418.59375 27.640625 420.683594 29.804688 419.605469 36.773438 C 418.863281 41.601563 420.28125 40.125 421.382813 36.515625 C 422.953125 31.378906 424.476563 22.6875 414.210938 19.777344 C 405.890625 17.414063 407.980469 24.320313 413.117188 25.925781 "/>
<path style=" stroke:none;fill-rule:nonzero;fill:rgb(0%,0%,0%);fill-opacity:1;" d="M 529.429688 155.714844 C 528.191406 150.539063 527.378906 151.367188 526.464844 155.1875 C 525.183594 160.542969 525.894531 160.863281 520.257813 155.90625 C 517.640625 153.605469 517.558594 154.570313 518.636719 157.683594 C 519.125 159.089844 519.390625 160.097656 519.421875 160.785156 C 512.863281 154.730469 503.300781 148.183594 491.847656 144.265625 C 504.136719 142.707031 513.839844 132.449219 518.785156 125.898438 C 519.570313 124.859375 520.558594 124.710938 519.601563 126.453125 C 518.167969 129.046875 518.09375 129.917969 520.765625 128.273438 C 526.519531 124.734375 525.84375 124.910156 526.164063 129.855469 C 526.390625 133.386719 526.984375 134.246094 528.871094 129.84375 C 531.863281 122.871094 521.800781 109.261719 510.007813 114.351563 C 504.003906 116.941406 505.863281 116.871094 509.9375 117.0625 C 518.035156 117.441406 518.601563 117.851563 514.148438 121.0625 C 510.1875 123.917969 510.699219 124.066406 515.074219 123.230469 C 516.398438 122.976563 517.476563 122.773438 518.335938 122.660156 C 510.8125 133.925781 502.511719 138.722656 491.78125 140.972656 C 484.402344 142.519531 478.828125 140.773438 471.652344 140.710938 C 465.113281 140.648438 458.535156 142.253906 452.832031 143.320313 C 439.164063 145.882813 431.328125 142.488281 421.117188 124.628906 C 410.109375 105.375 410.195313 83.621094 390.050781 75.753906 C 399.296875 74.484375 412.683594 71.679688 421.320313 68.871094 C 439.078125 63.101563 445.003906 68.53125 446.550781 75.589844 C 445.71875 75.640625 443.828125 75.695313 442.660156 75.730469 C 438.992188 75.839844 433.457031 76.753906 429.421875 79.378906 C 421.664063 84.429688 416.753906 96.433594 423.59375 113.808594 C 428.234375 125.597656 437.542969 131.570313 451.40625 133.769531 C 464.847656 135.902344 479.40625 132.609375 483.628906 120.1875 C 486.035156 121.667969 489.308594 119.40625 492.648438 114.644531 C 497.308594 108 498.894531 96.9375 498.128906 88.773438 C 496.492188 71.421875 483.960938 57.742188 469.449219 56.714844 C 468.910156 54.957031 469.871094 53.617188 472.992188 54.257813 C 475.3125 54.734375 476.484375 52.960938 475.484375 51.945313 C 474.480469 50.933594 476.578125 49.550781 478.59375 49.558594 C 480.609375 49.570313 480.886719 48.214844 478.957031 46.8125 C 477.519531 45.765625 471.230469 42.199219 468.863281 42.925781 C 466.496094 43.648438 467.136719 39.546875 467.683594 38.851563 C 468.230469 38.15625 464.523438 35.582031 460.746094 39.242188 C 456.96875 42.90625 454.929688 40.066406 455.207031 38.710938 C 455.484375 37.359375 452.894531 36.222656 450.078125 42.097656 C 447.285156 47.910156 444.917969 45.90625 445.371094 43.425781 C 447.28125 41.933594 448.453125 39.902344 448.28125 37.933594 C 454.402344 34.828125 458.796875 29.28125 458.011719 25.410156 C 457.511719 22.953125 456.777344 19.691406 459.230469 17.671875 C 461.683594 15.652344 461.242188 13.394531 457.824219 16.5625 C 454.402344 19.730469 454.4375 15.378906 447.996094 16.382813 C 444.582031 16.917969 440.496094 18.875 437.4375 21.066406 C 433.792969 20.433594 419.738281 26.042969 428.292969 38.988281 C 423.816406 40.066406 417.246094 43.175781 417.246094 53.925781 C 417.246094 55.796875 417.058594 57.535156 416.675781 59.167969 C 416.875 53.339844 413.820313 46.324219 408.777344 43.21875 C 408.886719 43.0625 408.992188 42.921875 409.101563 42.761719 C 415.800781 32.765625 406.074219 23.679688 400.585938 25.980469 C 395.765625 21.09375 389.144531 18.589844 385.695313 20.515625 C 383.503906 21.742188 380.621094 23.429688 377.953125 21.710938 C 375.285156 19.984375 373.265625 21.09375 377.324219 23.390625 C 381.382813 25.683594 377.222656 26.976563 380.140625 32.804688 C 381.6875 35.894531 384.796875 39.191406 387.8125 41.4375 C 388.316406 45.066406 397.742188 56.5625 407.375 45.0625 C 413.535156 48.496094 415.519531 56.242188 413.511719 62.847656 C 410.84375 71.617188 398.582031 71.804688 390.675781 72.851563 C 385.394531 73.550781 379.457031 73.695313 374.910156 73.890625 C 373.550781 73.949219 372.304688 74.015625 371.164063 74.09375 C 371.808594 71.398438 370.722656 69.21875 369.964844 69.527344 C 368.664063 70.058594 362.121094 69.246094 364.261719 65.949219 C 366.398438 62.652344 363.703125 51.5 362.734375 48.847656 C 361.433594 45.289063 359.246094 45.121094 358.382813 48.203125 C 357.519531 51.28125 354.488281 53.878906 353.382813 51.910156 C 352.273438 49.9375 349.050781 50.949219 348.765625 54.703125 C 348.25 61.457031 344.003906 60.753906 341.070313 56.632813 C 339.648438 54.636719 338.234375 54.996094 337.414063 59.183594 C 336.386719 64.449219 333.117188 70.175781 331.382813 68.15625 C 329.027344 65.410156 327.589844 66.347656 326.550781 69.675781 C 325.304688 73.671875 327.496094 82.015625 325.449219 79.972656 C 323.40625 77.929688 318.449219 76.921875 320.980469 84.976563 C 323.511719 93.03125 324.484375 96.777344 320.734375 100.578125 C 320.71875 100.59375 320.703125 100.609375 320.6875 100.625 C 313.523438 99.175781 307.140625 99.320313 301.5 100.742188 C 301.777344 71.425781 305.050781 54.980469 315.511719 41.566406 C 315.199219 42.601563 315.351563 44.214844 314.765625 45.8125 C 312.875 50.976563 312.957031 51.945313 317.226563 47.6875 C 322.023438 42.902344 321.78125 43.050781 320.628906 52.988281 C 320.046875 57.992188 319.59375 60.246094 323.949219 53.445313 C 332.5 40.09375 317.925781 25.117188 308.832031 27.371094 C 303.09375 28.792969 304.019531 29.6875 308.273438 30.671875 C 314.238281 32.046875 314.585938 31.253906 309.128906 37.558594 C 306.59375 40.488281 312.25 38.960938 312.730469 38.820313 C 308.261719 44.609375 301.402344 57 297.890625 75.632813 C 297.050781 80.085938 296.03125 78.003906 295.261719 76.355469 C 293.679688 72.96875 295.167969 69.804688 298.261719 63.839844 C 301.761719 57.09375 297.210938 57.214844 295.078125 58.707031 C 292.945313 60.199219 296.191406 53.144531 295.710938 49.410156 C 295.304688 46.296875 294.179688 45.242188 291.660156 47.3125 C 289.808594 48.832031 287.808594 43.246094 287.714844 38.414063 C 287.640625 34.578125 286.441406 34.035156 284.871094 35.585938 C 281.628906 38.78125 277.757813 38.742188 278.351563 32.675781 C 278.683594 29.304688 275.984375 27.90625 274.695313 29.480469 C 273.40625 31.054688 271.128906 28.277344 270.839844 25.414063 C 270.554688 22.550781 268.589844 22.355469 266.882813 25.308594 C 265.609375 27.507813 261.480469 36.972656 262.863281 40.226563 C 264.246094 43.484375 258.320313 43.183594 257.25 42.511719 C 253.871094 40.386719 255.308594 49.359375 258.839844 52.3125 C 264.605469 57.132813 260.878906 60.453125 258.910156 60.257813 C 256.945313 60.066406 255.714844 63.914063 264.484375 67.046875 C 273.25 70.175781 270.617188 73.886719 266.964844 73.527344 C 263.3125 73.167969 266.496094 78.304688 278.878906 76.398438 C 289.125 74.824219 290.816406 75.324219 293.597656 77.878906 C 293.597656 77.878906 296.644531 82.605469 296.140625 88.496094 C 295.835938 92.078125 295.660156 95.839844 295.640625 99.777344 C 295.636719 100.777344 295.621094 101.789063 295.605469 102.796875 C 288.445313 106.058594 282.746094 111.644531 278.433594 118.730469 C 274.078125 111.359375 268.257813 105.550781 260.894531 102.199219 C 260.878906 101.1875 260.863281 100.179688 260.859375 99.175781 C 260.722656 67.566406 250.417969 47.125 244.179688 38.757813 C 247.617188 39.882813 250.570313 39.484375 247.84375 36.332031 C 242.386719 30.027344 241.949219 31.761719 247.910156 30.382813 C 252.164063 29.402344 253.09375 28.507813 247.355469 27.085938 C 238.261719 24.832031 223.6875 39.804688 232.238281 53.160156 C 236.589844 59.960938 236.136719 57.703125 235.558594 52.703125 C 234.402344 42.761719 234.792969 41.988281 239.589844 46.773438 C 243.859375 51.03125 243.9375 50.378906 242.046875 45.214844 C 241.242188 43.015625 240.644531 41.378906 240.402344 40.226563 C 251.328125 53.777344 254.71875 70.285156 255 100.144531 C 249.359375 98.722656 242.976563 98.578125 235.8125 100.027344 C 235.796875 100.011719 235.78125 99.996094 235.765625 99.980469 C 232.015625 96.175781 232.988281 92.433594 235.519531 84.378906 C 238.050781 76.320313 233.09375 77.328125 231.046875 79.371094 C 229.003906 81.414063 231.195313 73.070313 229.949219 69.078125 C 228.910156 65.75 227.472656 64.808594 225.117188 67.558594 C 223.382813 69.578125 220.113281 63.851563 219.085938 58.585938 C 218.265625 54.398438 216.851563 54.035156 215.429688 56.03125 C 212.496094 60.15625 208.25 60.855469 207.734375 54.101563 C 207.449219 50.351563 204.226563 49.339844 203.117188 51.308594 C 202.011719 53.28125 198.980469 50.683594 198.117188 47.601563 C 197.253906 44.523438 195.066406 44.691406 193.765625 48.25 C 192.796875 50.898438 190.101563 62.050781 192.238281 65.347656 C 194.378906 68.644531 187.835938 69.460938 186.535156 68.929688 C 185.777344 68.621094 184.691406 70.800781 185.335938 73.492188 C 184.195313 73.417969 182.949219 73.347656 181.589844 73.289063 C 177.042969 73.097656 171.105469 72.949219 165.824219 72.25 C 157.917969 71.203125 145.65625 71.015625 142.988281 62.246094 C 140.976563 55.644531 142.964844 47.898438 149.125 44.464844 C 158.753906 55.960938 168.183594 44.464844 168.6875 40.839844 C 171.703125 38.59375 174.8125 35.292969 176.359375 32.203125 C 179.277344 26.375 175.117188 25.085938 179.175781 22.789063 C 183.234375 20.492188 181.214844 19.386719 178.546875 21.109375 C 175.878906 22.832031 172.996094 21.140625 170.804688 19.917969 C 167.355469 17.992188 160.734375 20.492188 155.914063 25.378906 C 150.425781 23.078125 140.699219 32.167969 147.398438 42.160156 C 147.507813 42.324219 147.613281 42.464844 147.722656 42.617188 C 143.0625 45.488281 140.101563 51.695313 139.835938 57.214844 C 139.8125 57.671875 139.652344 57.777344 139.582031 57.375 C 139.363281 56.09375 139.253906 54.746094 139.253906 53.324219 C 139.253906 42.574219 132.683594 39.46875 128.207031 38.390625 C 136.761719 25.441406 122.707031 19.835938 119.0625 20.46875 C 116.003906 18.277344 111.917969 16.320313 108.503906 15.785156 C 102.0625 14.777344 102.097656 19.132813 98.675781 15.964844 C 95.257813 12.792969 94.816406 15.054688 97.269531 17.070313 C 99.71875 19.089844 98.988281 22.351563 98.488281 24.8125 C 97.703125 28.683594 102.097656 34.230469 108.21875 37.335938 C 108.046875 39.304688 109.21875 41.335938 111.128906 42.828125 C 111.582031 45.308594 109.214844 47.3125 106.421875 41.496094 C 103.605469 35.621094 101.015625 36.757813 101.292969 38.113281 C 101.570313 39.46875 99.53125 42.304688 95.753906 38.644531 C 91.976563 34.980469 88.269531 37.558594 88.816406 38.253906 C 89.363281 38.945313 90.003906 43.050781 87.636719 42.324219 C 85.269531 41.601563 78.980469 45.164063 77.542969 46.210938 C 75.613281 47.617188 75.890625 48.96875 77.90625 48.960938 C 79.921875 48.949219 82.019531 50.335938 81.015625 51.347656 C 80.015625 52.359375 81.183594 54.136719 83.507813 53.660156 C 86.628906 53.019531 87.589844 54.359375 87.050781 56.113281 C 72.539063 57.140625 60.007813 70.824219 58.371094 88.175781 C 57.601563 96.335938 59.191406 107.402344 63.851563 114.046875 C 67.191406 118.808594 70.460938 121.066406 72.871094 119.585938 C 77.09375 132.011719 91.652344 135.300781 105.09375 133.171875 C 118.957031 130.972656 128.265625 124.996094 132.90625 113.210938 C 139.746094 95.832031 134.835938 83.828125 127.078125 78.78125 C 122.160156 75.578125 115.019531 74.925781 111.738281 75.164063 C 111.46875 75.1875 110.546875 75.300781 109.949219 75.171875 C 111.496094 68.117188 117.421875 62.503906 135.179688 68.273438 C 143.816406 71.082031 157.203125 73.882813 166.449219 75.15625 C 146.304688 83.023438 146.390625 104.773438 135.382813 124.03125 C 125.171875 141.890625 117.339844 145.28125 103.667969 142.722656 C 97.964844 141.652344 91.386719 140.050781 84.847656 140.109375 C 77.671875 140.171875 72.097656 141.917969 64.71875 140.371094 C 53.988281 138.121094 45.6875 133.324219 38.164063 122.058594 C 39.023438 122.171875 40.101563 122.378906 41.421875 122.628906 C 45.796875 123.46875 46.3125 123.316406 42.351563 120.460938 C 37.898438 117.253906 38.464844 116.84375 46.5625 116.464844 C 50.636719 116.273438 52.5 116.34375 46.492188 113.75 C 34.699219 108.660156 24.636719 122.269531 27.625 129.242188 C 29.511719 133.644531 30.109375 132.785156 30.335938 129.257813 C 30.65625 124.3125 29.980469 124.136719 35.730469 127.675781 C 38.40625 129.320313 38.332031 128.449219 36.902344 125.855469 C 35.941406 124.113281 36.929688 124.261719 37.714844 125.296875 C 42.660156 131.851563 52.363281 142.105469 64.652344 143.664063 C 53.199219 147.582031 43.636719 154.128906 37.078125 160.183594 C 37.109375 159.496094 37.375 158.492188 37.863281 157.082031 C 38.941406 153.972656 38.859375 153.003906 36.242188 155.308594 C 30.605469 160.265625 31.316406 159.945313 30.035156 154.589844 C 29.121094 150.769531 28.308594 149.9375 27.070313 155.113281 C 25.105469 163.3125 38.6875 176.324219 50.644531 168.53125 C 56.730469 164.566406 54.707031 164.988281 50.210938 165.546875 C 41.273438 166.65625 40.574219 166.3125 44.84375 161.964844 C 48.648438 158.089844 48.054688 158.023438 43.421875 159.761719 C 42.132813 160.246094 41.699219 159.46875 42.523438 158.757813 C 53.160156 149.566406 71.144531 142.492188 88.839844 143.566406 C 74.371094 152.152344 60.800781 173.339844 80.320313 191.886719 C 74.722656 190.421875 68.734375 193.59375 66.375 201.914063 C 62.492188 215.613281 86.65625 230.519531 98.023438 225.480469 C 107.195313 221.414063 108.703125 203.070313 103.40625 194.398438 C 113.710938 196.585938 127.328125 193.015625 131.320313 185.867188 C 136.371094 176.8125 125.722656 160.484375 116.003906 157.449219 C 108.132813 154.992188 99.894531 161.5625 101.382813 167.941406 C 101.382813 167.941406 101.503906 168.078125 101.585938 168.238281 C 85.132813 166.015625 83.839844 157.746094 86.777344 151.242188 C 88.800781 146.746094 93.351563 143.710938 98.734375 145.0625 C 122.105469 150.9375 128.753906 142.988281 140.015625 123.980469 C 152.53125 102.867188 151.128906 74.015625 184.726563 76.742188 C 185.546875 76.808594 186.339844 76.847656 187.105469 76.875 C 187.855469 77.742188 188.847656 78.589844 190.160156 79.34375 C 197.398438 83.511719 193.953125 87.863281 191.765625 88.027344 C 189.578125 88.195313 188.972656 92.644531 199.171875 94.382813 C 209.367188 96.121094 207.199219 100.691406 203.132813 101 C 199.070313 101.3125 203.539063 106.316406 216.722656 101.851563 C 227.632813 98.15625 229.582031 98.378906 233.117188 100.636719 C 232.84375 100.703125 232.578125 100.765625 232.300781 100.835938 C 224.8125 102.824219 217.542969 107.894531 211.367188 114.195313 C 210.96875 114.605469 210.632813 115.003906 210.339844 115.394531 C 209.410156 115.015625 208.679688 114.589844 208.417969 114.144531 C 197.070313 94.96875 158.21875 100.609375 149.972656 137.65625 C 144.617188 161.714844 154.394531 192.230469 163.597656 196.003906 C 168.167969 197.875 173.714844 196.558594 179.410156 193.007813 C 180.742188 198.246094 182.878906 203.726563 186.660156 205.601563 C 197.203125 210.832031 224.421875 196.792969 241.0625 173.984375 C 263.171875 143.679688 244.660156 109.230469 217.144531 116.761719 C 216.773438 116.863281 215.878906 116.800781 214.796875 116.617188 C 221.269531 111.5625 227.476563 107.648438 233.992188 105.472656 C 235.675781 104.910156 237.339844 104.472656 238.980469 104.15625 C 239.101563 104.179688 239.183594 104.164063 239.214844 104.113281 C 244.808594 103.070313 250.128906 103.4375 255.023438 105.03125 C 255.023438 105.070313 255.023438 105.109375 255.023438 105.148438 C 254.992188 128.230469 265.460938 180.8125 272.609375 194.261719 C 277.859375 204.140625 278.765625 204.226563 283.761719 195.097656 C 290.914063 182.039063 301.507813 128.96875 301.476563 105.75 C 301.476563 105.710938 301.476563 105.671875 301.476563 105.628906 C 306.371094 104.039063 311.6875 103.671875 317.289063 104.714844 C 317.316406 104.765625 317.398438 104.777344 317.519531 104.753906 C 319.160156 105.070313 320.824219 105.507813 322.507813 106.070313 C 329.023438 108.246094 335.230469 112.164063 341.703125 117.214844 C 340.621094 117.398438 339.726563 117.464844 339.355469 117.363281 C 311.839844 109.832031 293.328125 144.277344 315.4375 174.585938 C 332.078125 197.394531 359.296875 211.433594 369.839844 206.203125 C 373.621094 204.328125 375.757813 198.847656 377.089844 193.605469 C 382.785156 197.15625 388.332031 198.472656 392.902344 196.601563 C 402.105469 192.832031 411.882813 162.3125 406.527344 138.257813 C 398.277344 101.207031 359.429688 95.566406 348.082031 114.746094 C 347.820313 115.1875 347.089844 115.613281 346.160156 115.992188 C 343.046875 111.863281 328.566406 102.535156 323.382813 101.238281 C 326.917969 98.976563 328.867188 98.753906 339.777344 102.449219 C 352.960938 106.914063 357.429688 101.910156 353.363281 101.601563 C 349.300781 101.289063 347.132813 96.722656 357.328125 94.984375 C 367.527344 93.246094 366.921875 88.796875 364.734375 88.628906 C 362.546875 88.460938 359.101563 84.109375 366.339844 79.945313 C 367.652344 79.1875 368.644531 78.34375 369.394531 77.472656 C 370.160156 77.449219 370.953125 77.40625 371.773438 77.339844 C 405.371094 74.617188 403.96875 103.464844 416.484375 124.578125 C 427.746094 143.585938 434.394531 151.535156 457.765625 145.664063 C 463.144531 144.3125 467.695313 147.347656 469.726563 151.839844 C 472.660156 158.347656 471.367188 166.617188 454.914063 168.839844 C 454.996094 168.675781 455.117188 168.539063 455.117188 168.539063 C 456.605469 162.160156 448.367188 155.589844 440.496094 158.050781 C 430.777344 161.085938 420.128906 177.410156 425.179688 186.464844 C 429.167969 193.613281 442.789063 197.183594 453.09375 194.996094 C 447.796875 203.667969 449.304688 222.011719 458.476563 226.078125 C 469.84375 231.117188 494.007813 216.214844 490.125 202.511719 C 487.765625 194.195313 481.777344 191.023438 476.179688 192.484375 C 495.695313 173.941406 482.128906 152.753906 467.660156 144.164063 C 485.355469 143.09375 503.339844 150.167969 513.976563 159.359375 C 514.800781 160.070313 514.363281 160.84375 513.078125 160.359375 C 508.445313 158.621094 507.851563 158.691406 511.65625 162.5625 C 515.925781 166.914063 515.226563 167.257813 506.289063 166.148438 C 501.792969 165.589844 499.769531 165.164063 505.855469 169.132813 C 517.8125 176.921875 531.394531 163.914063 529.429688 155.714844 Z M 393.632813 32.761719 C 390.769531 35.894531 389.238281 40.925781 386.628906 39.230469 C 381.035156 35.59375 380.382813 30.234375 380.488281 27.328125 C 380.523438 26.367188 381.273438 25.636719 380.414063 24.722656 C 379.550781 23.808594 380.351563 23.304688 382.4375 23.246094 C 384.519531 23.183594 386.9375 20.863281 388.433594 20.734375 C 389.933594 20.609375 390.191406 21.605469 388.398438 22.363281 C 386.605469 23.125 388.054688 23.4375 390.121094 22.859375 C 392.191406 22.277344 393.816406 23.648438 390.101563 25.007813 C 386.386719 26.363281 388.792969 26.714844 390.929688 25.546875 C 393.066406 24.378906 395.820313 24.320313 398.890625 27.34375 C 400.460938 28.890625 396.308594 29.828125 393.632813 32.761719 Z M 439.183594 64.796875 C 439.859375 64.273438 440.640625 63.621094 441.527344 63.136719 C 444.03125 61.769531 445.074219 62.5625 448.046875 64.625 C 448.578125 64.992188 450.054688 65.972656 450.160156 66.039063 C 449.019531 67.839844 448.160156 69.949219 447.738281 72.417969 C 446.65625 68.980469 445.359375 65.742188 439.183594 64.796875 Z M 478.5 124.589844 C 475.371094 129.542969 467.023438 132.863281 456.757813 132.199219 C 444.859375 131.429688 429.203125 126.613281 424.097656 109.074219 C 422.304688 102.921875 422.046875 96.292969 423.53125 90.984375 C 427.390625 77.207031 444.179688 75.804688 455.503906 80.265625 C 474.003906 87.554688 480.792969 100.21875 481.246094 114.347656 C 481.351563 117.648438 480.667969 121.15625 478.5 124.589844 Z M 468.3125 60.355469 C 470.605469 60.554688 471.265625 59.996094 470.804688 59.074219 C 471.109375 59.105469 471.40625 59.121094 471.71875 59.160156 C 477.828125 59.910156 484.628906 63.105469 490.417969 71.484375 C 499.734375 84.972656 497.679688 110.039063 486.601563 118.433594 C 484.828125 119.777344 483.398438 118.753906 482.578125 109.328125 C 480.472656 85.1875 460.578125 78.285156 450.589844 76.296875 C 449.546875 76.085938 449.601563 73.390625 450.558594 70.328125 C 450.941406 69.105469 451.449219 67.980469 452.050781 66.929688 C 454.09375 67.472656 454.320313 65.714844 453.839844 64.429688 C 454.070313 64.164063 454.308594 63.910156 454.558594 63.664063 C 455.9375 64.070313 458.410156 65.160156 460.074219 65.121094 C 462.269531 65.066406 463.089844 64.359375 461.832031 62.457031 C 460.910156 61.058594 464.941406 60.070313 468.3125 60.355469 Z M 445.535156 59.316406 C 447.28125 58.042969 448.808594 56.675781 450.265625 55.332031 C 450.609375 53.917969 451.289063 51.257813 451.824219 50.0625 C 452.566406 48.402344 453.515625 48.695313 452.675781 50.339844 C 452.25 51.167969 451.773438 53.027344 451.5 54.191406 C 452.289063 53.460938 453.074219 52.75 453.871094 52.074219 C 454.234375 50.605469 454.851563 48.257813 455.34375 47.15625 C 456.089844 45.492188 457.035156 45.789063 456.195313 47.433594 C 455.789063 48.21875 455.339844 49.9375 455.0625 51.105469 C 456.082031 50.316406 457.144531 49.597656 458.296875 48.988281 C 458.664063 47.515625 459.234375 45.398438 459.695313 44.371094 C 460.4375 42.710938 461.386719 43.003906 460.546875 44.648438 C 460.125 45.46875 459.65625 47.296875 459.378906 48.460938 C 459.617188 48.355469 459.855469 48.246094 460.105469 48.148438 C 467.148438 45.390625 468.191406 46.652344 461.246094 49.433594 C 460.753906 49.628906 460.277344 49.855469 459.808594 50.097656 C 460.4375 50.585938 461.480469 51.222656 462.882813 51.429688 C 465.878906 51.867188 465.648438 53.164063 462.566406 52.476563 C 461.191406 52.167969 459.367188 51.300781 458.46875 50.847656 C 457.449219 51.472656 456.476563 52.183594 455.527344 52.933594 C 456.160156 53.410156 457.179688 54.015625 458.53125 54.210938 C 461.527344 54.652344 461.300781 55.949219 458.214844 55.257813 C 456.996094 54.988281 455.425781 54.273438 454.460938 53.800781 C 453.640625 54.480469 452.835938 55.175781 452.035156 55.859375 C 452.667969 56.335938 453.675781 56.925781 455.011719 57.121094 C 458.007813 57.558594 457.777344 58.855469 454.695313 58.167969 C 453.503906 57.902344 451.96875 57.210938 450.996094 56.734375 C 449.945313 57.609375 448.886719 58.445313 447.785156 59.171875 C 444.984375 61.015625 443.164063 61.046875 445.535156 59.316406 Z M 439.902344 20.609375 C 445.066406 16.386719 450.371094 17.394531 453.109375 18.378906 C 454.011719 18.703125 454.480469 19.640625 455.613281 19.101563 C 456.746094 18.558594 456.980469 19.472656 456.40625 21.476563 C 455.828125 23.480469 457.304688 26.488281 456.96875 27.953125 C 456.636719 29.421875 455.609375 29.363281 455.429688 27.425781 C 455.25 25.484375 454.511719 26.769531 454.4375 28.917969 C 454.359375 31.066406 452.558594 32.195313 452.394531 28.242188 C 452.230469 24.289063 451.167969 26.476563 451.628906 28.867188 C 452.089844 31.257813 451.308594 33.898438 447.496094 35.902344 C 445.546875 36.929688 445.914063 32.691406 443.9375 29.246094 C 441.820313 25.570313 437.492188 22.578125 439.902344 20.609375 Z M 419.753906 53.089844 C 420.347656 45.765625 424.839844 42.222656 429.566406 40.761719 C 429.613281 40.820313 429.65625 40.882813 429.703125 40.945313 C 433.878906 46.199219 439.335938 46.496094 443.257813 44.707031 C 442.738281 46.1875 442.367188 48.382813 442.515625 51.433594 C 442.9375 60.191406 442.160156 60.035156 438.972656 62.808594 C 438.058594 63.601563 437.550781 64.105469 437.34375 64.394531 C 433.394531 63.929688 428.03125 64.476563 420.695313 66.679688 C 418.359375 67.378906 416.183594 68 414.121094 68.566406 C 417.679688 65.402344 419.183594 60.136719 419.753906 53.089844 Z M 286.742188 69.816406 C 285.589844 68.324219 284.542969 66.710938 283.527344 65.039063 C 281.992188 65.230469 279.597656 65.453125 277.863281 65.265625 C 273.378906 64.769531 273.667969 62.910156 277.921875 63.703125 C 279.816406 64.054688 281.449219 63.726563 282.527344 63.375 C 281.761719 62.078125 280.992188 60.765625 280.203125 59.46875 C 278.675781 59.664063 276.222656 59.902344 274.449219 59.707031 C 269.964844 59.210938 270.253906 57.351563 274.507813 58.144531 C 276.425781 58.503906 278.078125 58.160156 279.15625 57.804688 C 278.222656 56.351563 277.238281 54.941406 276.148438 53.625 C 274.726563 53.820313 271.855469 54.152344 269.855469 53.933594 C 265.371094 53.4375 265.660156 51.578125 269.914063 52.371094 C 271.898438 52.738281 273.609375 52.359375 274.679688 51.992188 C 274.15625 51.449219 273.621094 50.921875 273.046875 50.429688 C 264.945313 43.460938 266.9375 42.238281 275.183594 49.222656 C 275.472656 49.46875 275.742188 49.726563 276.019531 49.980469 C 276.183594 48.277344 276.394531 45.585938 276.207031 44.285156 C 275.828125 41.675781 277.246094 41.714844 277.484375 44.304688 C 277.632813 45.90625 277.421875 49.03125 277.238281 51.191406 C 278.511719 52.546875 279.621094 54.011719 280.632813 55.550781 C 280.792969 53.84375 280.980469 51.308594 280.800781 50.058594 C 280.421875 47.449219 281.839844 47.488281 282.078125 50.078125 C 282.234375 51.796875 281.980469 55.257813 281.792969 57.40625 C 282.558594 58.691406 283.289063 60.015625 284.019531 61.367188 C 284.1875 59.667969 284.40625 56.933594 284.214844 55.617188 C 283.839844 53.007813 285.253906 53.046875 285.492188 55.636719 C 285.664063 57.496094 285.351563 61.410156 285.160156 63.476563 C 286.511719 65.96875 287.945313 68.523438 289.714844 71.050781 C 292.121094 74.488281 289.671875 73.605469 286.742188 69.816406 Z M 157.609375 26.742188 C 160.679688 23.722656 163.433594 23.78125 165.570313 24.945313 C 167.707031 26.113281 170.113281 25.765625 166.398438 24.40625 C 162.683594 23.050781 164.308594 21.679688 166.378906 22.257813 C 168.445313 22.839844 169.894531 22.527344 168.101563 21.765625 C 166.308594 21.003906 166.566406 20.011719 168.066406 20.136719 C 169.5625 20.261719 171.980469 22.585938 174.0625 22.644531 C 176.148438 22.703125 176.949219 23.207031 176.085938 24.121094 C 175.226563 25.035156 175.976563 25.765625 176.011719 26.726563 C 176.117188 29.632813 175.464844 34.992188 169.871094 38.632813 C 167.261719 40.328125 165.730469 35.292969 162.867188 32.160156 C 160.191406 29.226563 156.039063 28.289063 157.609375 26.742188 Z M 109.003906 35.304688 C 105.191406 33.296875 104.410156 30.660156 104.871094 28.269531 C 105.332031 25.878906 104.269531 23.691406 104.105469 27.644531 C 103.941406 31.597656 102.140625 30.464844 102.0625 28.316406 C 101.988281 26.171875 101.25 24.886719 101.070313 26.824219 C 100.890625 28.765625 99.863281 28.820313 99.53125 27.355469 C 99.195313 25.890625 100.671875 22.882813 100.09375 20.878906 C 99.519531 18.871094 99.753906 17.960938 100.886719 18.5 C 102.019531 19.042969 102.484375 18.105469 103.390625 17.777344 C 106.128906 16.792969 111.433594 15.785156 116.597656 20.007813 C 119.007813 21.980469 114.679688 24.972656 112.5625 28.648438 C 110.585938 32.09375 110.953125 36.332031 109.003906 35.304688 Z M 96.394531 47.550781 C 96.644531 47.648438 96.878906 47.757813 97.121094 47.863281 C 96.84375 46.699219 96.375 44.867188 95.957031 44.046875 C 95.113281 42.40625 96.0625 42.109375 96.804688 43.773438 C 97.265625 44.800781 97.835938 46.917969 98.203125 48.386719 C 99.355469 48.996094 100.417969 49.714844 101.4375 50.507813 C 101.160156 49.339844 100.710938 47.617188 100.304688 46.832031 C 99.464844 45.191406 100.410156 44.894531 101.15625 46.558594 C 101.648438 47.65625 102.265625 50.007813 102.628906 51.472656 C 103.425781 52.148438 104.210938 52.863281 105 53.59375 C 104.726563 52.429688 104.25 50.566406 103.824219 49.738281 C 102.984375 48.097656 103.933594 47.800781 104.675781 49.464844 C 105.210938 50.65625 105.890625 53.320313 106.230469 54.730469 C 107.691406 56.074219 109.21875 57.441406 110.964844 58.714844 C 113.335938 60.445313 111.515625 60.417969 108.714844 58.570313 C 107.613281 57.847656 106.554688 57.011719 105.503906 56.136719 C 104.53125 56.609375 102.996094 57.300781 101.804688 57.566406 C 98.722656 58.257813 98.492188 56.960938 101.488281 56.519531 C 102.824219 56.324219 103.828125 55.738281 104.464844 55.261719 C 103.664063 54.574219 102.859375 53.878906 102.039063 53.199219 C 101.074219 53.675781 99.5 54.386719 98.285156 54.660156 C 95.199219 55.347656 94.972656 54.050781 97.96875 53.613281 C 99.320313 53.414063 100.339844 52.8125 100.972656 52.332031 C 100.023438 51.585938 99.050781 50.871094 98.03125 50.246094 C 97.132813 50.699219 95.308594 51.566406 93.933594 51.875 C 90.851563 52.5625 90.621094 51.265625 93.617188 50.828125 C 95.019531 50.621094 96.0625 49.984375 96.691406 49.496094 C 96.222656 49.257813 95.746094 49.03125 95.253906 48.835938 C 88.308594 46.054688 89.351563 44.792969 96.394531 47.550781 Z M 69.898438 117.835938 C 58.820313 109.441406 56.765625 84.371094 66.082031 70.886719 C 71.871094 62.507813 78.671875 59.308594 84.78125 58.558594 C 85.09375 58.519531 85.390625 58.503906 85.695313 58.476563 C 85.234375 59.394531 85.894531 59.953125 88.1875 59.757813 C 91.554688 59.46875 95.589844 60.457031 94.667969 61.855469 C 93.410156 63.761719 94.230469 64.46875 96.425781 64.519531 C 98.089844 64.5625 100.5625 63.472656 101.941406 63.0625 C 102.191406 63.308594 102.429688 63.566406 102.660156 63.828125 C 102.179688 65.117188 102.40625 66.875 104.449219 66.328125 C 105.050781 67.378906 105.558594 68.507813 105.941406 69.726563 C 106.898438 72.789063 106.949219 75.488281 105.910156 75.695313 C 95.921875 77.683594 76.027344 84.589844 73.921875 108.726563 C 73.101563 118.152344 71.671875 119.179688 69.898438 117.835938 Z M 132.96875 90.386719 C 134.453125 95.691406 134.195313 102.324219 132.402344 108.476563 C 127.296875 126.015625 111.640625 130.828125 99.742188 131.597656 C 89.476563 132.261719 81.128906 128.945313 78 123.988281 C 75.832031 120.558594 75.148438 117.050781 75.253906 113.75 C 75.707031 99.621094 82.496094 86.953125 100.996094 79.667969 C 112.320313 75.207031 129.109375 76.609375 132.96875 90.386719 Z M 108.761719 71.820313 C 108.339844 69.351563 107.480469 67.238281 106.339844 65.441406 C 106.445313 65.375 107.808594 64.472656 108.296875 64.132813 C 111.390625 61.992188 112.425781 61.144531 114.972656 62.535156 C 115.859375 63.019531 116.640625 63.671875 117.3125 64.195313 C 111.136719 65.140625 109.84375 68.378906 108.761719 71.820313 Z M 135.804688 66.078125 C 128.46875 63.878906 123.105469 63.328125 119.15625 63.792969 C 118.949219 63.507813 118.441406 63.003906 117.527344 62.210938 C 114.339844 59.433594 113.5625 59.59375 113.984375 50.835938 C 114.132813 47.785156 113.761719 45.589844 113.242188 44.109375 C 117.164063 45.898438 122.621094 45.597656 126.796875 40.347656 C 126.84375 40.28125 126.886719 40.222656 126.933594 40.160156 C 131.660156 41.621094 136.152344 45.164063 136.746094 52.488281 C 137.316406 59.535156 138.820313 64.800781 142.378906 67.96875 C 140.316406 67.402344 138.140625 66.777344 135.804688 66.078125 Z M 97.5625 223.675781 C 94.449219 226.070313 87.90625 224.328125 85.34375 223.65625 C 82.785156 222.980469 80.109375 221.800781 82.964844 221.804688 C 85.820313 221.804688 81.535156 220.375 78.011719 219.046875 C 74.484375 217.71875 72.839844 214.707031 76.503906 215.980469 C 80.171875 217.257813 78.105469 215.203125 74.898438 213.671875 C 71.6875 212.140625 72.277344 210.804688 75.710938 212.089844 C 79.140625 213.375 75.953125 211.28125 74.558594 210.554688 C 73.167969 209.824219 71.820313 210.03125 69.117188 207.351563 C 67.15625 205.410156 67.273438 201.082031 69.832031 197.574219 C 77.164063 187.527344 89.71875 197.804688 94.761719 207.464844 C 98.476563 214.578125 99.378906 222.277344 97.5625 223.675781 Z M 102.160156 219.992188 C 100.1875 223.511719 99.226563 223.320313 99.589844 219.085938 C 100.023438 213.988281 95.976563 204.203125 87.019531 196.292969 C 85.832031 195.242188 85.6875 194.246094 86.746094 192.859375 C 87.609375 191.726563 89.144531 190.804688 90.4375 190.367188 C 91.132813 190.132813 92.648438 189.816406 94.480469 189.988281 C 96.378906 191.867188 98.933594 193.191406 101.839844 194.007813 C 101.992188 194.195313 102.144531 194.367188 102.292969 194.570313 C 107.167969 201.222656 105.222656 214.519531 102.160156 219.992188 Z M 104.160156 162.355469 C 105.121094 160.953125 109.347656 156.53125 116.160156 158.59375 C 124.054688 160.980469 130.488281 172.78125 131.328125 178.996094 C 131.867188 182.996094 130.984375 183.417969 128.730469 179.816406 C 126.015625 175.480469 116.898438 170.085938 104.988281 169.148438 C 102.929688 168.984375 102.695313 167.691406 102.703125 166.566406 C 102.714844 165.140625 103.390625 163.484375 104.160156 162.355469 Z M 117.886719 173.425781 C 125.132813 176.878906 130.480469 182.492188 129.867188 184.703125 C 128.816406 188.488281 122.539063 191.023438 120.089844 192.027344 C 117.640625 193.027344 114.789063 193.691406 117.074219 191.976563 C 119.355469 190.265625 115.074219 191.691406 111.457031 192.75 C 107.839844 193.804688 104.71875 192.386719 108.414063 191.203125 C 112.109375 190.019531 109.226563 189.621094 105.738281 190.324219 C 102.253906 191.03125 101.921875 189.605469 105.4375 188.570313 C 108.953125 187.535156 105.144531 187.78125 103.59375 188.035156 C 102.046875 188.289063 101.089844 189.261719 97.320313 188.746094 C 94.589844 188.371094 92.078125 184.839844 92.015625 180.5 C 91.839844 168.0625 108.054688 168.734375 117.886719 173.425781 Z M 98.773438 169.097656 C 92.3125 170.578125 88.417969 177.121094 91.863281 186.046875 C 92.222656 186.984375 92.714844 187.835938 93.292969 188.617188 C 89.632813 188.53125 84.769531 190.550781 83.421875 193.222656 C 67.160156 176.585938 72.269531 159.78125 84.375 150.296875 C 81.664063 157.710938 84.164063 166.945313 98.773438 169.097656 Z M 227.429688 93.800781 C 224.726563 91.695313 221.976563 89.960938 219.285156 88.320313 C 216.980469 88.410156 212.621094 88.535156 210.570313 88.242188 C 207.707031 87.832031 207.742188 86.257813 210.617188 86.824219 C 212.066406 87.109375 215.117188 87.023438 217.007813 86.933594 C 215.550781 86.046875 214.121094 85.160156 212.742188 84.234375 C 210.34375 84.324219 206.488281 84.410156 204.59375 84.136719 C 201.734375 83.726563 201.769531 82.152344 204.644531 82.71875 C 206.019531 82.988281 208.84375 82.925781 210.746094 82.84375 C 209.09375 81.632813 207.535156 80.320313 206.101563 78.828125 C 203.695313 78.910156 200.214844 78.96875 198.445313 78.714844 C 195.585938 78.304688 195.621094 76.726563 198.496094 77.296875 C 199.929688 77.578125 202.929688 77.496094 204.828125 77.40625 C 204.558594 77.089844 204.289063 76.773438 204.035156 76.4375 C 196.753906 66.890625 198.222656 64.75 205.496094 74.136719 C 206.011719 74.800781 206.5625 75.425781 207.136719 76.035156 C 207.605469 74.867188 208.121094 72.992188 207.824219 70.769531 C 207.1875 66.003906 209.265625 65.785156 209.5625 70.792969 C 209.691406 73.023438 209.164063 76.191406 208.863281 77.757813 C 210.261719 79.042969 211.773438 80.214844 213.328125 81.335938 C 213.785156 80.160156 214.261719 78.34375 213.972656 76.191406 C 213.335938 71.429688 215.414063 71.210938 215.710938 76.21875 C 215.824219 78.195313 215.421875 80.90625 215.121094 82.589844 C 216.515625 83.539063 217.925781 84.464844 219.324219 85.390625 C 219.773438 84.214844 220.230469 82.417969 219.945313 80.296875 C 219.308594 75.53125 221.386719 75.316406 221.683594 80.324219 C 221.796875 82.257813 221.414063 84.902344 221.113281 86.59375 C 222.90625 87.816406 224.644531 89.070313 226.230469 90.433594 C 230.269531 93.898438 231.109375 96.664063 227.429688 93.800781 Z M 245.996094 142.367188 C 244.847656 145.839844 241.378906 149.492188 233.28125 152.175781 C 216.972656 157.574219 216.765625 162.230469 229.378906 158.273438 C 241.992188 154.3125 250.21875 156.855469 232.503906 163.015625 C 214.789063 169.175781 214.304688 172.023438 225.308594 168.585938 C 241.773438 163.441406 241.027344 177.261719 220.121094 176.570313 C 205.023438 176.066406 211.683594 178.6875 218.511719 179.539063 C 228.035156 180.726563 223.570313 188.3125 212.558594 186.117188 C 204.25 184.457031 198.265625 186.578125 206.8125 188.035156 C 215.363281 189.492188 211.503906 195.148438 202.59375 192.769531 C 193.683594 190.386719 188.457031 193.914063 197.046875 194.929688 C 202.375 195.558594 203.644531 199.902344 198.945313 201.382813 C 187.324219 204.546875 182.449219 196.730469 182.425781 194.777344 C 182.386719 191.800781 182.648438 188.726563 177.03125 191.671875 C 171.414063 194.617188 168.386719 195.359375 163.984375 192.242188 C 159.582031 189.121094 152.828125 175.507813 152.675781 154.980469 C 152.546875 137.789063 157.558594 123.636719 167.757813 115.113281 C 177.949219 106.59375 194.671875 102.242188 201.472656 116.957031 C 203.015625 120.300781 203.796875 123.648438 203.882813 125.585938 C 204.019531 128.855469 206.210938 129.269531 208.066406 127.121094 C 216.652344 117.164063 245.574219 117.542969 245.996094 142.367188 Z M 267.453125 159.941406 C 264.332031 144.515625 261.753906 125.863281 261.050781 107.730469 C 266.941406 111.152344 271.980469 116.554688 275.820313 123.546875 C 270.839844 133.867188 268.324219 146.554688 268.113281 159.632813 C 268.097656 160.785156 267.671875 161.011719 267.453125 159.941406 Z M 279.304688 191.132813 C 278.359375 194.503906 277.675781 193.503906 277.007813 191.066406 C 270.191406 166.3125 271.636719 144.464844 278.378906 128.859375 C 284.960938 144.5625 286.238281 166.421875 279.304688 191.132813 Z M 289.121094 160.152344 C 288.871094 161.398438 288.40625 161.378906 288.398438 160.15625 C 288.320313 146.953125 285.90625 134.082031 280.988281 123.578125 C 284.785156 116.859375 289.714844 111.660156 295.449219 108.332031 C 294.75 126.3125 292.210938 144.800781 289.121094 160.152344 Z M 348.433594 127.71875 C 350.289063 129.871094 352.480469 129.457031 352.617188 126.183594 C 352.703125 124.246094 353.484375 120.898438 355.027344 117.558594 C 361.828125 102.839844 378.550781 107.191406 388.742188 115.714844 C 398.941406 124.238281 403.953125 138.390625 403.824219 155.578125 C 403.671875 176.109375 396.917969 189.722656 392.515625 192.839844 C 388.113281 195.960938 385.085938 195.214844 379.46875 192.269531 C 373.851563 189.324219 374.113281 192.402344 374.074219 195.378906 C 374.050781 197.332031 369.175781 205.148438 357.554688 201.980469 C 352.855469 200.503906 354.125 196.15625 359.449219 195.527344 C 368.042969 194.515625 362.816406 190.988281 353.90625 193.367188 C 344.996094 195.746094 341.136719 190.09375 349.6875 188.636719 C 358.234375 187.179688 352.25 185.058594 343.941406 186.714844 C 332.929688 188.910156 328.464844 181.328125 337.988281 180.136719 C 344.816406 179.285156 351.476563 176.667969 336.378906 177.167969 C 315.472656 177.863281 314.726563 164.039063 331.191406 169.183594 C 342.195313 172.625 341.710938 169.773438 323.996094 163.613281 C 306.28125 157.453125 314.507813 154.910156 327.121094 158.871094 C 339.734375 162.832031 339.527344 158.171875 323.21875 152.773438 C 315.121094 150.09375 311.652344 146.4375 310.503906 142.96875 C 310.925781 118.144531 339.847656 117.765625 348.433594 127.71875 Z M 358.054688 79.3125 C 356.285156 79.566406 352.804688 79.507813 350.398438 79.429688 C 348.964844 80.921875 347.40625 82.230469 345.753906 83.441406 C 347.65625 83.527344 350.480469 83.589844 351.855469 83.316406 C 354.730469 82.75 354.765625 84.328125 351.90625 84.738281 C 350.011719 85.007813 346.15625 84.925781 343.757813 84.835938 C 342.378906 85.757813 340.949219 86.644531 339.492188 87.53125 C 341.382813 87.621094 344.433594 87.710938 345.882813 87.421875 C 348.753906 86.855469 348.792969 88.429688 345.929688 88.84375 C 343.878906 89.136719 339.519531 89.011719 337.214844 88.917969 C 334.523438 90.558594 331.769531 92.296875 329.066406 94.398438 C 325.390625 97.265625 326.230469 94.496094 330.269531 91.03125 C 331.855469 89.667969 333.59375 88.414063 335.386719 87.191406 C 335.085938 85.5 334.703125 82.859375 334.816406 80.921875 C 335.113281 75.914063 337.191406 76.132813 336.554688 80.898438 C 336.269531 83.019531 336.726563 84.8125 337.175781 85.992188 C 338.574219 85.0625 339.984375 84.140625 341.378906 83.1875 C 341.078125 81.503906 340.675781 78.796875 340.789063 76.816406 C 341.085938 71.8125 343.164063 72.027344 342.527344 76.792969 C 342.238281 78.941406 342.714844 80.757813 343.171875 81.933594 C 344.726563 80.816406 346.238281 79.640625 347.636719 78.359375 C 347.335938 76.789063 346.808594 73.625 346.9375 71.394531 C 347.234375 66.386719 349.3125 66.605469 348.675781 71.367188 C 348.378906 73.59375 348.894531 75.46875 349.363281 76.636719 C 349.9375 76.027344 350.488281 75.398438 351.003906 74.734375 C 358.277344 65.351563 359.746094 67.488281 352.464844 77.035156 C 352.210938 77.371094 351.941406 77.6875 351.671875 78.007813 C 353.570313 78.097656 356.570313 78.175781 358.003906 77.894531 C 360.878906 77.328125 360.914063 78.902344 358.054688 79.3125 Z M 425.171875 179.59375 C 426.011719 173.382813 432.445313 161.582031 440.339844 159.191406 C 447.152344 157.132813 451.378906 161.550781 452.339844 162.957031 C 453.109375 164.082031 453.785156 165.742188 453.796875 167.167969 C 453.804688 168.289063 453.570313 169.582031 451.511719 169.746094 C 439.601563 170.6875 430.484375 176.082031 427.769531 180.414063 C 425.515625 184.019531 424.632813 183.59375 425.171875 179.59375 Z M 450.761719 190.925781 C 447.273438 190.21875 444.390625 190.621094 448.085938 191.804688 C 451.78125 192.988281 448.660156 194.40625 445.042969 193.347656 C 441.425781 192.289063 437.144531 190.863281 439.425781 192.578125 C 441.710938 194.289063 438.859375 193.625 436.410156 192.625 C 433.960938 191.625 427.683594 189.089844 426.632813 185.300781 C 426.019531 183.089844 431.367188 177.480469 438.613281 174.023438 C 448.445313 169.335938 464.660156 168.660156 464.484375 181.097656 C 464.421875 185.4375 461.910156 188.96875 459.179688 189.34375 C 455.410156 189.859375 454.453125 188.886719 452.902344 188.632813 C 451.355469 188.378906 447.546875 188.136719 451.0625 189.167969 C 454.578125 190.203125 454.246094 191.628906 450.761719 190.925781 Z M 454.339844 220.589844 C 451.277344 215.121094 449.332031 201.820313 454.203125 195.171875 C 454.355469 194.96875 454.507813 194.792969 454.660156 194.609375 C 457.566406 193.789063 460.121094 192.46875 462.015625 190.589844 C 463.851563 190.417969 465.367188 190.730469 466.0625 190.96875 C 467.355469 191.40625 468.886719 192.328125 469.753906 193.460938 C 470.8125 194.84375 470.667969 195.839844 469.480469 196.890625 C 460.523438 204.800781 456.476563 214.589844 456.910156 219.683594 C 457.273438 223.921875 456.3125 224.113281 454.339844 220.589844 Z M 486.667969 198.171875 C 489.226563 201.679688 489.34375 206.007813 487.382813 207.949219 C 484.679688 210.628906 483.332031 210.425781 481.941406 211.152344 C 480.546875 211.882813 477.359375 213.972656 480.789063 212.6875 C 484.222656 211.402344 484.8125 212.742188 481.601563 214.273438 C 478.394531 215.800781 476.328125 217.855469 479.992188 216.582031 C 483.660156 215.308594 482.015625 218.316406 478.488281 219.644531 C 474.964844 220.972656 470.683594 222.40625 473.535156 222.402344 C 476.390625 222.398438 473.714844 223.582031 471.152344 224.253906 C 468.59375 224.925781 462.050781 226.671875 458.9375 224.277344 C 457.121094 222.875 458.023438 215.175781 461.738281 208.0625 C 466.78125 198.40625 479.335938 188.125 486.667969 198.171875 Z M 473.078125 193.824219 C 471.730469 191.152344 466.867188 189.132813 463.207031 189.21875 C 463.785156 188.433594 464.273438 187.585938 464.636719 186.644531 C 468.082031 177.722656 464.1875 171.175781 457.726563 169.699219 C 472.335938 167.542969 474.835938 158.308594 472.125 150.894531 C 484.230469 160.378906 489.339844 177.183594 473.078125 193.824219 "/>
<path style=" stroke:none;fill-rule:nonzero;fill:rgb(0%,0%,0%);fill-opacity:1;" d="M 380.386719 70.542969 C 375.8125 72.253906 377.792969 72.769531 381.484375 71.964844 C 386.730469 70.824219 395.054688 67.902344 392.574219 57.523438 C 390.566406 49.109375 385.5625 54.308594 386.675781 59.578125 C 387.859375 65.191406 386.992188 68.070313 380.386719 70.542969 "/>
</g>
</svg>
