<?xml version="1.0" encoding="UTF-8"?>
<svg xmlns="http://www.w3.org/2000/svg" xmlns:xlink="http://www.w3.org/1999/xlink" width="449pt" height="687pt" viewBox="0 0 449 687" version="1.1">
<g id="surface1">
<path style=" stroke:none;fill-rule:nonzero;fill:rgb(0%,0%,0%);fill-opacity:1;" d="M 431.703125 240.953125 C 428.769531 240.046875 425.664063 239.566406 422.5625 239.566406 C 420.019531 239.566406 417.425781 239.90625 414.914063 240.585938 C 414.828125 235.136719 411.019531 232.203125 406.359375 232.203125 C 399.25 232.203125 389.398438 238.722656 383.273438 246.851563 C 375.824219 256.730469 373.339844 267.226563 370.914063 277.414063 C 369.839844 281.875 368.769531 286.304688 367.328125 290.792969 C 368.824219 281.960938 369.613281 272.871094 369.613281 263.671875 C 369.613281 234.882813 361.683594 204.855469 341.984375 177.929688 C 331.175781 163.195313 317.964844 150.636719 305.125 138.386719 C 301.230469 134.691406 297.390625 131.019531 293.609375 127.296875 C 286.46875 120.296875 284.464844 113.722656 284.464844 108.472656 C 284.464844 100.425781 289.121094 94.640625 290.222656 93.851563 C 294.117188 91.199219 291.4375 85.160156 286.863281 86.257813 C 277.519531 88.488281 274.164063 96.421875 273.316406 102.121094 C 269.054688 103.953125 266.964844 108.585938 266.175781 112.253906 C 265.808594 113.945313 265.640625 115.726563 265.640625 117.476563 C 265.640625 119.703125 265.921875 121.960938 266.484375 124.023438 C 268.546875 131.304688 273.484375 137.230469 279.46875 142.453125 C 266.230469 136.269531 253.109375 129.921875 242.636719 121.707031 C 244.21875 119.589844 244.921875 116.964844 244.921875 114.230469 C 244.921875 103.898438 235.269531 89.082031 226.4375 79.117188 C 224.914063 77.367188 224.546875 75.957031 224.546875 75.082031 C 224.546875 73.53125 226.070313 71.273438 229.910156 71.273438 C 230.894531 71.273438 231.96875 71.414063 233.125 71.808594 C 234.761719 72.371094 236.371094 71.894531 237.472656 70.851563 C 238.515625 79.824219 246.617188 86.542969 255.253906 89.335938 C 258.472656 90.378906 261.941406 90.972656 265.496094 90.972656 C 271.03125 90.972656 276.757813 89.53125 281.894531 86.144531 C 292.648438 79.035156 297.925781 69.042969 297.925781 58.769531 C 297.925781 39.464844 279.695313 21.96875 252.429688 21.96875 L 251.613281 21.96875 C 254.179688 17.703125 255.367188 13.921875 255.367188 10.59375 C 255.367188 4.523438 251.1875 0.574219 246.109375 0.574219 C 242.722656 0.574219 239.421875 2.324219 237.386719 5.457031 C 236.539063 6.753906 236.0625 8.222656 236.0625 9.746094 C 236.0625 12.765625 238.007813 15.164063 238.6875 16.097656 C 239.757813 17.5625 239.871094 17.902344 239.898438 18.042969 L 239.871094 18.128906 C 239.84375 18.183594 239.785156 18.324219 239.644531 18.523438 C 238.179688 20.921875 235.949219 22.304688 232.730469 23.972656 C 228.835938 25.945313 225.222656 27.863281 222.089844 29.867188 C 205.183594 40.761719 197.199219 56.511719 197.199219 73.078125 C 197.199219 85.046875 201.375 97.210938 208.96875 108.074219 C 219.578125 123.175781 235.015625 133.335938 250.058594 142.199219 C 248.226563 142.113281 246.363281 142.058594 244.558594 142.058594 C 223.558594 142.058594 202.871094 148.066406 191.949219 165.847656 C 190.621094 168.023438 189.71875 170.28125 189.71875 172.511719 C 189.71875 176.121094 192.03125 178.550781 194.882813 179.394531 C 195.757813 179.648438 196.605469 179.734375 197.425781 179.734375 C 201.996094 179.734375 208.175781 176.433594 209.304688 169.941406 C 209.984375 165.878906 210.828125 164.859375 211.789063 164.15625 C 221.386719 157.015625 234.140625 154.476563 246.925781 154.476563 C 264.480469 154.476563 280.992188 159.273438 286.949219 161.953125 C 281.839844 160.824219 276.476563 160.148438 270.890625 160.148438 C 264.878906 160.148438 258.667969 160.9375 252.289063 162.714844 C 246.703125 164.296875 241.761719 167.738281 241.761719 173.214844 C 241.761719 178.324219 246.082031 181.683594 250.738281 183.234375 C 250.230469 184.421875 249.945313 185.691406 249.945313 187.046875 C 249.945313 190.941406 252.316406 194.242188 255.847656 196.300781 C 257.625 197.316406 259.542969 197.910156 261.292969 197.910156 C 261.746094 197.910156 262.226563 197.882813 262.730469 197.769531 C 263.804688 197.542969 266.9375 196.414063 266.9375 192.914063 C 266.9375 190.742188 265.582031 189.273438 264.621094 188.511719 C 264.117188 187.835938 264.058594 187.355469 264.058594 187.074219 C 264.058594 186.140625 264.988281 184.617188 266.597656 183.628906 C 267.023438 183.375 267.277344 183.261719 267.390625 183.234375 C 267.613281 183.207031 267.839844 183.179688 268.066406 183.121094 C 271.847656 182.191406 275.828125 181.738281 279.921875 181.738281 C 314.777344 181.738281 356.574219 215.128906 356.574219 265.761719 C 356.574219 266.550781 356.574219 267.339844 356.546875 268.128906 C 354.488281 265.082031 352.34375 262.65625 350.5625 261.019531 C 348.53125 259.128906 345.90625 258.109375 343.085938 258.109375 C 338.425781 258.109375 334.476563 261.894531 334.476563 266.636719 C 334.476563 271.574219 338.796875 275.1875 343.253906 275.1875 C 344.382813 275.1875 345.453125 274.960938 346.441406 274.566406 C 348.390625 277.925781 349.40625 282.410156 349.40625 287.886719 C 349.40625 313.429688 327.054688 353.421875 300.15625 370.410156 C 281.953125 381.898438 262.761719 388.191406 243.457031 390.085938 C 244.019531 389.941406 244.585938 389.773438 245.121094 389.605469 C 252.007813 387.429688 257.652344 382.660156 257.652344 375.832031 C 257.652344 371.457031 255.253906 367.449219 251.414063 364.175781 C 251.554688 363.949219 251.753906 363.695313 252.007813 363.382813 C 252.289063 363.046875 252.65625 362.59375 252.996094 362.144531 C 258.328125 354.636719 260.898438 348.113281 260.898438 342.554688 C 260.898438 332.367188 252.742188 327.824219 245.574219 327.117188 C 245.007813 327.0625 244.472656 327.03125 243.90625 327.03125 C 235.1875 327.03125 229.878906 333.917969 229.878906 339.847656 C 229.878906 342.105469 230.699219 344.757813 233.011719 346.480469 C 234.621094 347.664063 236.457031 348.371094 238.375 348.371094 C 240.71875 348.371094 242.636719 347.324219 243.964844 345.96875 L 243.964844 346.027344 C 243.964844 348.707031 242.777344 352.914063 238.179688 358.359375 C 228.667969 369.621094 216.21875 374.054688 202.5625 374.054688 C 178.035156 374.054688 150.234375 359.742188 132.003906 345.660156 C 127.203125 341.960938 121.277344 336.714844 118.625 333.890625 C 117.296875 332.507813 115.492188 331.40625 113.347656 331.40625 C 112.894531 331.40625 112.441406 331.464844 112.019531 331.546875 L 110.804688 330.222656 C 96.808594 310.945313 89.355469 291.359375 86.449219 272.871094 C 89.019531 280.152344 92.660156 285.796875 97.34375 288.367188 C 98.640625 289.070313 100.023438 289.355469 101.324219 289.355469 C 102.171875 289.355469 103.015625 289.242188 103.808594 288.988281 C 105.332031 288.535156 107.363281 287.351563 108.351563 285.261719 C 108.632813 285.289063 108.914063 285.289063 109.171875 285.289063 C 113.742188 285.289063 118.792969 283.710938 121.925781 279.023438 C 122.464844 278.234375 123.167969 276.90625 123.167969 275.300781 C 123.167969 271.941406 120.515625 270.359375 118.511719 269.9375 C 117.863281 269.824219 117.214844 269.769531 116.59375 269.769531 C 115.800781 269.769531 114.984375 269.851563 114.136719 269.964844 C 113.488281 270.078125 112.921875 270.105469 112.386719 270.105469 C 109.027344 270.105469 106.769531 268.382813 104.964844 264.96875 C 100.898438 257.265625 99.402344 248.714844 99.402344 239.878906 C 99.402344 231.328125 100.816406 222.660156 102.507813 214.394531 C 104.90625 202.679688 109.171875 191.421875 114.953125 181.230469 C 119.949219 180.128906 125.003906 177.195313 128.980469 173.019531 C 133.894531 167.824219 136.773438 161.363281 136.773438 155.378906 C 136.773438 154.925781 136.742188 154.476563 136.714844 153.996094 C 139.199219 151.820313 141.710938 149.789063 144.335938 147.898438 C 145.605469 148.210938 146.933594 148.351563 148.230469 148.351563 C 151.363281 148.351563 154.722656 147.5625 157.855469 146.007813 C 162.34375 143.808594 165.925781 140.136719 167.507813 136.015625 C 173.066406 134.152344 178.910156 132.96875 185.003906 132.402344 C 187.546875 134.378906 190.988281 135.566406 194.402344 135.789063 C 194.828125 135.820313 195.25 135.820313 195.675781 135.820313 C 199.878906 135.820313 203.972656 134.40625 206.652344 131.753906 C 208.402344 130.0625 209.390625 127.71875 209.390625 125.292969 C 209.390625 123.796875 209.023438 122.328125 208.261719 120.945313 C 205.945313 116.855469 200.867188 114.371094 195.675781 114.03125 C 195.25 114.003906 194.828125 113.976563 194.402344 113.976563 C 190.621094 113.976563 186.753906 115.132813 184.074219 117.476563 C 176.171875 117.898438 168.523438 119.394531 161.070313 121.792969 C 159.351563 121.171875 157.515625 120.890625 155.679688 120.890625 C 152.546875 120.890625 149.21875 121.679688 146.085938 123.230469 C 141.625 125.433594 137.984375 129.101563 136.488281 133.222656 C 132.339844 135.707031 128.445313 138.472656 124.664063 141.378906 C 123.984375 141.296875 123.308594 141.238281 122.605469 141.238281 C 116.339844 141.238281 109.507813 144.539063 104.371094 149.929688 C 99.433594 155.125 96.527344 161.644531 96.527344 167.597656 C 96.527344 168.164063 96.554688 168.726563 96.609375 169.292969 C 96.273438 169.714844 95.933594 170.167969 95.59375 170.589844 C 93.589844 173.273438 91.5 176.039063 89.496094 178.804688 C 74.992188 199.011719 69.601563 215.097656 64.632813 229.804688 C 61.078125 240.414063 57.804688 250.125 51.566406 260.453125 C 45.1875 271.121094 35.816406 279.476563 24.273438 279.476563 L 23.820313 279.476563 C 22.75 279.449219 22.074219 279.308594 21.675781 279.164063 C 21.480469 279.109375 21.367188 279.054688 21.339844 279.023438 L 21.253906 278.96875 C 21.253906 278.910156 21.226563 278.882813 21.199219 278.828125 C 21.167969 278.6875 21.140625 278.488281 21.140625 278.179688 C 21.140625 277.160156 21.480469 275.722656 22.101563 273.914063 C 22.496094 272.785156 22.691406 271.628906 22.691406 270.5 C 22.691406 263.953125 16.652344 260.199219 11.601563 260.199219 C 7.480469 260.199219 3.417969 262.457031 1.441406 267.226563 C 0.511719 269.511719 0.0859375 271.660156 0.0859375 273.71875 C 0.0859375 278.515625 2.429688 281.902344 3.753906 283.738281 C 8.722656 290.679688 14.988281 292.148438 20.210938 292.148438 C 22.015625 292.148438 23.710938 291.980469 25.035156 291.839844 C 25.996094 291.753906 26.730469 291.667969 27.320313 291.640625 C 27.179688 293.078125 26.617188 295.535156 25.175781 299.628906 C 24.246094 302.222656 26.050781 304.988281 28.816406 305.242188 C 29.71875 305.300781 30.625 305.355469 31.5 305.355469 C 54.753906 305.355469 64.125 279.449219 69.542969 261.863281 C 69.488281 263.699219 69.429688 265.535156 69.429688 267.367188 L 69.429688 267.679688 C 69.574219 333.101563 105.445313 373.601563 154.296875 402.699219 C 158.617188 405.238281 162.964844 407.722656 167.28125 410.179688 C 183.058594 419.097656 198.242188 427.703125 210.265625 440.207031 C 214.386719 444.46875 217.492188 451.214844 217.492188 455.390625 C 217.492188 456.039063 217.40625 456.519531 217.292969 456.859375 C 217.179688 457.3125 217.039063 457.933594 215.0625 457.933594 C 214.355469 457.933594 213.425781 457.847656 212.269531 457.566406 C 209.277344 456.886719 206.566406 459.539063 207.1875 462.53125 C 207.980469 466.457031 210.179688 469.109375 213.003906 470.574219 C 211.367188 470.378906 209.699219 470.265625 208.035156 470.265625 C 198.214844 470.265625 188.082031 473.851563 180.378906 482.460938 C 172.191406 491.660156 168.578125 501.507813 168.578125 511.078125 C 168.578125 518.726563 170.894531 525.980469 174.648438 532.300781 C 184.019531 548.078125 203.125 559 222.089844 559 C 225.28125 559 228.496094 558.6875 231.660156 558.039063 C 222.992188 566.253906 213.710938 575.847656 207.019531 594.902344 C 203.546875 604.804688 201.910156 613.554688 201.910156 621.289063 C 201.910156 637.347656 208.996094 648.46875 219.890625 655.015625 C 219.804688 655.664063 219.746094 656.34375 219.746094 657.046875 C 219.746094 659.136719 220.226563 662.042969 222.371094 664.414063 C 222.570313 664.613281 222.769531 664.835938 222.992188 665.0625 C 223.980469 666.105469 225.195313 667.40625 226.210938 668.730469 C 225.054688 668.957031 224.09375 669.578125 223.390625 670.367188 C 223.332031 670.425781 223.304688 670.480469 223.21875 670.566406 C 222.570313 671.273438 221.214844 672.683594 220.792969 675.054688 C 220.707031 675.507813 220.652344 675.984375 220.652344 676.4375 C 220.652344 681.601563 225.308594 684.707031 228.441406 685.808594 C 229.683594 686.230469 231.039063 686.511719 232.394531 686.511719 C 232.871094 686.511719 233.351563 686.484375 233.859375 686.398438 C 238.882813 685.667969 245.234375 681.855469 245.234375 674.460938 C 245.234375 670.199219 243.003906 665.796875 238.828125 661.449219 C 237.445313 659.984375 236.429688 658.855469 235.722656 657.980469 C 239.816406 657.78125 242.128906 657.078125 244.445313 656.398438 C 245.09375 656.203125 245.6875 656.03125 246.335938 655.863281 C 255.507813 653.433594 264.03125 644.320313 264.03125 633.339844 C 264.03125 630.800781 263.550781 628.230469 262.5625 625.664063 C 260.078125 619.171875 253.617188 611.722656 242.664063 611.722656 C 241.425781 611.722656 240.125 611.804688 238.800781 612.03125 C 233.238281 612.878906 223.925781 617.367188 223.925781 628.371094 C 223.925781 629.417969 224.011719 630.488281 224.179688 631.617188 C 225.054688 636.867188 230.105469 640.652344 235.1875 640.652344 C 237.8125 640.652344 240.464844 639.660156 242.582031 637.519531 C 243.597656 636.5 244.019531 635.089844 243.765625 633.765625 C 243.597656 632.804688 243.144531 632.183594 243.03125 632.015625 C 242.890625 631.789063 242.722656 631.617188 242.664063 631.5625 C 242.609375 631.476563 242.554688 631.421875 242.523438 631.394531 C 242.441406 631.335938 242.355469 631.222656 242.1875 630.96875 C 242.015625 630.6875 241.679688 630.121094 241.3125 629.164063 C 241.027344 628.457031 240.972656 627.921875 240.972656 627.554688 C 240.972656 626.511719 241.734375 625.269531 243.992188 625.269531 C 245.347656 625.269531 247.152344 625.832031 248.902344 627.527344 C 249.863281 628.457031 250.34375 629.699219 250.34375 631.253906 C 250.34375 634.214844 248.453125 637.660156 245.628906 639.351563 C 243.625 640.535156 239.871094 641.128906 235.863281 641.269531 L 235.1875 641.269531 C 227.085938 641.269531 216.53125 635.992188 216.53125 614.375 C 216.53125 613.332031 216.53125 612.257813 216.589844 611.15625 C 216.925781 603.847656 218.871094 596.707031 221.894531 590.160156 C 221.894531 594.929688 223.078125 599.359375 225.167969 603.367188 C 225.308594 603.621094 225.476563 603.875 225.675781 604.128906 C 228.386719 607.375 231.628906 608.757813 234.820313 608.757813 C 238.800781 608.757813 243.34375 606.273438 244.246094 603.421875 C 244.445313 602.800781 244.527344 602.179688 244.527344 601.644531 C 244.527344 599.046875 242.75 596.960938 242.582031 596.734375 L 240.972656 594.644531 C 240.859375 593.234375 240.804688 591.878906 240.804688 590.554688 C 240.804688 575.003906 248.675781 563.375 257.710938 550.277344 C 261.464844 544.859375 265.386719 539.160156 268.714844 533.007813 C 275.488281 520.476563 278.707031 507.492188 278.707031 494.707031 C 278.707031 466.683594 263.355469 440.292969 237.867188 421.636719 C 238.828125 421.382813 239.871094 420.960938 240.832031 420.394531 C 242.074219 421.890625 243.765625 422.90625 245.179688 423.5 C 246.164063 423.894531 247.238281 424.175781 248.367188 424.347656 C 249.015625 424.429688 249.664063 424.460938 250.3125 424.460938 C 251.328125 424.460938 252.316406 424.375 253.25 424.148438 C 254.40625 423.867188 255.789063 423.328125 257.003906 422.425781 C 258.160156 423.527344 259.601563 424.234375 260.730469 424.574219 C 261.660156 424.855469 262.621094 425.023438 263.636719 425.078125 L 264.171875 425.078125 C 265.132813 425.078125 266.089844 424.96875 266.964844 424.742188 C 268.433594 424.375 270.71875 423.386719 272.046875 421.4375 C 273.371094 422.03125 274.757813 422.203125 275.660156 422.203125 C 276.617188 422.203125 277.605469 422.0625 278.566406 421.777344 C 280.878906 421.074219 284.660156 418.816406 284.660156 414.777344 C 284.660156 414.242188 284.605469 413.707031 284.4375 413.171875 C 283.308594 409.414063 279.441406 408.765625 277.632813 408.765625 C 276.675781 408.765625 275.6875 408.90625 274.726563 409.191406 C 273.261719 409.640625 271.226563 410.714844 269.902344 412.4375 C 268.996094 411.816406 268.011719 411.390625 267.21875 411.136719 C 266.289063 410.855469 265.328125 410.6875 264.3125 410.628906 L 263.777344 410.628906 C 262.816406 410.628906 261.855469 410.742188 260.984375 410.96875 C 260.164063 411.164063 259.0625 411.589844 258.046875 412.238281 C 256.835938 410.828125 255.195313 409.839844 253.8125 409.273438 C 252.824219 408.878906 251.753906 408.597656 250.625 408.429688 C 249.976563 408.34375 249.328125 408.316406 248.675781 408.316406 C 247.660156 408.316406 246.671875 408.398438 245.742188 408.625 C 245.121094 408.765625 244.445313 408.992188 243.738281 409.332031 C 242.554688 407.496094 240.71875 406.171875 238.96875 405.324219 C 322.765625 401.628906 356.6875 340.382813 380.679688 297.34375 C 393.605469 274.140625 402.804688 258.28125 413.894531 254.949219 C 416.804688 254.074219 419.230469 253.765625 421.148438 253.765625 C 425.636719 253.765625 427.5 255.402344 428.207031 256.558594 C 426.851563 256.644531 425.582031 256.871094 424.394531 257.207031 C 420.304688 258.449219 417.539063 261.496094 417.539063 265.589844 C 417.539063 271.996094 424.171875 277.246094 431.339844 277.246094 C 432.578125 277.246094 433.851563 277.105469 435.175781 276.796875 L 435.234375 276.765625 C 436.785156 276.398438 446.777344 274.171875 448.246094 263.390625 C 448.355469 262.484375 448.414063 261.582031 448.414063 260.707031 C 448.414063 250.351563 440.257813 243.574219 431.703125 240.953125 Z M 275.941406 413.253906 C 277.945313 412.632813 279.976563 413.140625 280.371094 414.382813 C 280.710938 415.597656 279.328125 417.121094 277.351563 417.714844 C 275.347656 418.335938 273.316406 417.828125 272.921875 416.585938 C 272.582031 415.371094 273.964844 413.847656 275.941406 413.253906 Z M 264.117188 414.863281 C 266.769531 415.003906 268.886719 416.445313 268.828125 418.082031 C 268.773438 419.691406 266.457031 420.933594 263.832031 420.847656 C 261.179688 420.707031 259.0625 419.265625 259.121094 417.628906 C 259.175781 416.019531 261.492188 414.777344 264.117188 414.863281 Z M 250.03125 412.632813 C 253.390625 413.085938 255.875 415.175781 255.5625 417.261719 C 255.28125 419.265625 252.347656 420.621094 248.960938 420.140625 C 245.601563 419.691406 243.117188 417.601563 243.429688 415.511719 C 243.710938 413.507813 246.644531 412.152344 250.03125 412.632813 Z M 240.804688 414.046875 C 240.40625 416.671875 236.597656 418.363281 232.136719 417.800781 C 227.734375 417.207031 224.488281 414.496094 224.886719 411.84375 C 225.28125 409.21875 229.089844 407.523438 233.550781 408.089844 C 237.953125 408.683594 241.199219 411.390625 240.804688 414.046875 Z M 220.734375 411.082031 C 218.222656 409.78125 215.65625 408.570313 213.03125 407.410156 C 212.15625 407.019531 211.140625 406.566406 210.039063 406.085938 C 208.402344 405.378906 206.625 404.617188 204.789063 403.800781 C 211.789063 404.675781 218.507813 405.210938 224.996094 405.410156 C 222.964844 406.535156 221.1875 408.34375 220.734375 411.082031 Z M 444.039063 262.796875 C 443.023438 270.699219 435.601563 272.195313 434.160156 272.675781 C 422.957031 275.242188 415.617188 261.328125 428.828125 260.765625 C 436.558594 262.710938 433.851563 243.464844 412.683594 250.914063 C 370.09375 262.570313 360.132813 421.382813 200.667969 398.972656 C 183.933594 396.011719 184.976563 398.351563 191.269531 401.964844 C 196.773438 405.097656 206.3125 409.160156 211.339844 411.277344 C 264.03125 434.535156 289.742188 485.28125 264.988281 531.003906 C 253.445313 552.453125 233.859375 568.597656 236.878906 596.226563 L 239.195313 599.304688 C 239.757813 599.921875 240.550781 601.082031 240.238281 602.097656 C 239.984375 602.800781 234.113281 607.601563 228.921875 601.390625 C 223.671875 591.316406 225.195313 578.390625 238.574219 563.175781 C 224.855469 572.746094 213.566406 591.316406 212.355469 610.960938 C 211.421875 637.828125 224.460938 645.871094 236.003906 645.503906 C 239.984375 645.335938 244.78125 644.796875 247.800781 642.992188 C 254.152344 639.15625 257.117188 629.671875 251.867188 624.507813 C 244.527344 617.367188 234.027344 622.164063 237.359375 630.6875 C 238.628906 633.988281 239.675781 634.382813 239.589844 634.527344 C 235.441406 638.589844 229.402344 635.316406 228.355469 630.914063 C 227.085938 621.148438 234.339844 617 239.449219 616.210938 C 250.117188 614.570313 256.242188 621.203125 258.613281 627.160156 C 262.84375 638.449219 254.574219 649.398438 245.234375 651.742188 C 241.507813 652.84375 239.449219 653.945313 231.800781 653.800781 C 228.128906 655.664063 230.753906 659.503906 235.777344 664.359375 C 245.488281 674.941406 239.589844 681.347656 233.210938 682.222656 C 229.65625 682.84375 224.378906 679.542969 224.941406 675.789063 C 225.253906 674.6875 225.730469 674.066406 226.550781 673.21875 C 227.652344 671.949219 228.921875 674.378906 230.191406 673.925781 C 235.695313 671.722656 227.339844 663.90625 225.507813 661.535156 C 222.761719 658.859375 224.292969 653.816406 224.761719 652.875 C 208.601563 644.78125 200.914063 627.351563 211 596.3125 C 222.628906 565.464844 239.84375 560.835938 251.386719 542.433594 C 229.230469 565.464844 192.0625 553.328125 178.289063 530.15625 C 170.640625 517.230469 170.160156 500.945313 183.539063 485.28125 C 195.730469 472.269531 213.878906 472.269531 226.550781 479.324219 C 232.335938 482.601563 236.398438 487.707031 238.320313 493.492188 C 244.132813 510.257813 226.605469 528.800781 210.941406 520.109375 C 193.5 503.824219 222.628906 493.890625 219.382813 508.226563 L 216.757813 510.738281 C 211.085938 515.507813 228.214844 521.066406 230.585938 504.527344 C 231.882813 491.066406 224.320313 482.996094 214.667969 480.566406 C 203.605469 477.828125 189.605469 482.375 182.523438 494.59375 C 170.160156 515.902344 187.601563 540.710938 209.503906 545.648438 C 212.523438 546.835938 214.046875 543.84375 211.253906 542.121094 C 205.4375 539.863281 205.355469 535.152344 207.980469 532.101563 C 209.671875 530.382813 213.792969 529.449219 215.007813 534.136719 C 215.316406 535.632813 213.792969 535.714844 212.777344 536.082031 C 210.292969 536.957031 209.671875 538.058594 210.292969 539.074219 C 211.480469 541.023438 217.207031 542.914063 223.191406 543.222656 C 227.652344 543.449219 232.195313 542.828125 234.988281 540.710938 C 235.441406 540.402344 236.003906 540.628906 236.34375 541.023438 C 238.09375 543.054688 241.902344 543.136719 244.527344 541.980469 C 254.011719 537.664063 262.929688 522.789063 266.570313 510.03125 C 276.929688 474.074219 245.882813 432.25 204.789063 414.496094 C 192.0625 408.597656 189.351563 408.597656 165.699219 394.683594 C 162.597656 392.878906 161.890625 394.289063 163.160156 395.21875 C 177.722656 403.914063 199.316406 416.527344 214.105469 429.511719 C 250.90625 459.738281 214.527344 477.519531 211.339844 461.714844 C 227.652344 465.382813 221.921875 446.191406 213.3125 437.273438 C 197.3125 420.675781 176.144531 410.714844 156.472656 399.058594 C 108.378906 370.382813 72.734375 331.097656 73.664063 267.652344 C 72.5625 248.855469 77.332031 229.039063 85.773438 206.660156 C 88.257813 200.703125 85.292969 204.234375 84.503906 205.558594 C 72.085938 229.039063 74.089844 234.148438 68.667969 250.265625 C 62.941406 269.230469 54.953125 303.210938 29.183594 301.011719 C 38.414063 274.707031 19.050781 297.792969 7.199219 281.28125 C 5.449219 278.769531 3.21875 275.015625 5.363281 268.835938 C 9.117188 260.679688 21.140625 265.394531 18.09375 272.503906 C 16.738281 278.007813 15.550781 283.570313 23.765625 283.710938 C 37.765625 283.9375 48.433594 273.914063 55.207031 262.65625 C 70.644531 236.972656 68.585938 215.183594 92.941406 181.285156 C 95.566406 177.617188 98.359375 174.007813 101.070313 170.394531 C 99.855469 165.3125 102.085938 158.34375 107.421875 152.867188 C 112.921875 146.996094 120.402344 144.398438 125.734375 145.894531 C 130.363281 142.28125 135.050781 138.925781 140.074219 136.015625 C 140.722656 132.742188 143.660156 129.214844 147.949219 127.015625 C 152.660156 124.757813 157.742188 124.585938 160.847656 126.308594 C 168.976563 123.570313 177.328125 121.933594 185.9375 121.621094 C 187.601563 119.421875 191.269531 118.011719 195.421875 118.234375 C 199.625 118.574219 203.210938 120.523438 204.5625 123.035156 C 205.664063 124.898438 205.214844 127.238281 203.6875 128.734375 C 201.769531 130.628906 198.441406 131.785156 194.6875 131.558594 C 191.269531 131.332031 188.164063 129.921875 186.503906 128.03125 C 178.597656 128.59375 171.121094 130.148438 164.035156 132.742188 C 163.472656 136.1875 160.449219 139.941406 155.992188 142.199219 C 151.53125 144.316406 146.847656 144.625 143.660156 143.214844 C 139.59375 145.980469 135.867188 149.027344 132.199219 152.386719 C 133.46875 157.550781 131.238281 164.523438 125.90625 170.082031 C 121.925781 174.316406 116.816406 176.910156 112.300781 177.363281 C 105.753906 188.398438 100.984375 200.703125 98.359375 213.546875 C 94.859375 230.535156 92.546875 250.210938 101.210938 266.945313 C 103.921875 271.800781 107.984375 275.1875 114.757813 274.171875 C 118.964844 273.519531 119.613281 274.933594 118.425781 276.652344 C 115.152344 281.59375 108.546875 281.820313 103.128906 280.039063 C 107.195313 283.398438 102.425781 286.304688 99.402344 284.640625 C 87.296875 278.007813 81.226563 239.851563 90.230469 209.085938 C 91.277344 206.097656 90.316406 205.953125 89.273438 208.523438 C 76.542969 240.640625 74.625 287.71875 107.503906 332.875 L 112.046875 337.898438 C 111.171875 336.175781 113.175781 334.539063 115.546875 336.796875 C 118.257813 339.929688 124.464844 345.265625 129.40625 349.019531 C 158.476563 371.484375 212.4375 395.390625 241.425781 361.070313 C 255.59375 344.25 243.484375 333.976563 240.71875 339 C 242.128906 339.929688 241.988281 341.960938 241.027344 342.921875 C 239.898438 344.25 237.839844 344.785156 235.523438 343.0625 C 231.800781 340.324219 235.609375 330.390625 245.179688 331.324219 C 254.71875 332.253906 263.15625 340.636719 249.550781 359.660156 C 248.113281 361.71875 244.921875 364.511719 247.71875 366.628906 C 258.78125 375.097656 252.796875 384.578125 236.878906 386.839844 C 179.332031 390.195313 159.828125 373.910156 129.09375 354.269531 C 123.507813 351.050781 122.632813 353.5625 127.738281 357.230469 C 156.160156 378.710938 188.390625 392.3125 221.132813 394.597656 C 248.59375 396.460938 276.535156 390.367188 302.414063 373.996094 C 337.441406 351.925781 364.902344 292.9375 348.984375 270.699219 C 348.277344 269.851563 347.714844 269.0625 347.234375 268.355469 C 346.527344 269.851563 345.003906 270.953125 343.253906 270.953125 C 340.855469 270.953125 338.796875 268.976563 338.710938 266.636719 C 338.710938 264.292969 340.714844 262.34375 343.085938 262.34375 C 344.835938 262.34375 346.441406 262.964844 347.714844 264.121094 C 351.296875 267.425781 356.800781 274.707031 359.171875 283.796875 C 371.675781 214.167969 309.894531 168.445313 267.050781 179 C 263.890625 179.171875 256.382813 185.4375 261.660156 191.53125 C 264.339844 193.507813 261.40625 194.523438 257.992188 192.632813 C 252.007813 189.050781 253.363281 182.613281 260.363281 180.1875 C 245.714844 180.976563 240.464844 170.957031 253.445313 166.808594 C 291.183594 156.621094 323.582031 183.628906 330.523438 191.164063 C 331.878906 189.050781 329.648438 187.636719 328.296875 185.660156 C 321.746094 178.152344 303.203125 164.296875 288.867188 158.171875 C 278.058594 152.695313 234.566406 141.886719 209.25 160.769531 C 207.019531 162.40625 205.664063 164.691406 205.128906 169.234375 C 203.519531 177.140625 190 178.859375 195.5625 168.050781 C 210.859375 144.878906 244.613281 142.988281 274.613281 149.960938 C 268.011719 147.136719 261.320313 143.863281 254.71875 140.023438 C 238.882813 130.769531 223.023438 120.746094 212.4375 105.648438 C 195.421875 81.378906 197.171875 50.980469 224.378906 33.453125 C 227.339844 31.5625 230.753906 29.671875 234.648438 27.722656 C 237.925781 26.003906 241.339844 24.367188 243.257813 20.753906 C 247.070313 15.109375 237.839844 12.453125 240.945313 7.769531 C 245.65625 0.402344 260.304688 6.671875 242.695313 26.933594 C 288.726563 20.046875 309.894531 62.804688 279.554688 82.617188 C 263.636719 93.34375 239.898438 81.6875 241.679688 67.433594 C 241.820313 65.234375 242.695313 62.890625 244.359375 60.605469 C 248.675781 54.648438 259.429688 53.71875 261.238281 62.183594 C 261.886719 64.921875 260.363281 67.574219 255.847656 67.660156 C 252.742188 67.574219 247.71875 68.449219 249.15625 72.429688 C 251.21875 77.847656 258.78125 85.441406 273.738281 79.089844 C 294.539063 68.535156 288.558594 38.535156 260.617188 32.269531 C 206.625 20.21875 190.875 88.800781 231.460938 118.179688 C 234.820313 120.523438 237.050781 116.515625 234.566406 115.105469 L 231.628906 112.449219 C 217.464844 99.46875 210.210938 79.261719 217.855469 67.574219 C 223.277344 59.277344 233.773438 63.820313 234.507813 67.828125 C 224.234375 64.300781 215.628906 73.050781 223.277344 81.914063 C 235.863281 95.941406 247.632813 117.476563 235.863281 121.539063 C 261.238281 144.316406 305.433594 153.175781 322.226563 173.386719 C 307.183594 151.851563 276.140625 142.679688 270.578125 122.863281 C 268.660156 116.0625 270.578125 105.5625 277.324219 105.5625 C 277.183594 100.9375 279.328125 92.410156 287.851563 90.378906 C 284.183594 92.863281 271.285156 111.265625 290.617188 130.316406 C 307.101563 146.515625 324.851563 161.699219 338.570313 180.410156 C 369.21875 222.238281 370.714844 271.882813 357.816406 312.128906 C 356.632813 316.589844 358.070313 316.984375 360.695313 313.625 C 377.574219 289.664063 372.378906 268.214844 386.632813 249.417969 C 395.324219 237.816406 410.933594 231.722656 410.679688 240.808594 C 410.679688 243.464844 410.765625 246.199219 409.015625 248.148438 C 421.601563 238.214844 446.351563 246.285156 444.039063 262.796875 Z M 253.644531 465.242188 C 253.488281 465.023438 253.324219 464.773438 253.164063 464.574219 C 253.296875 464.683594 253.464844 464.925781 253.644531 465.242188 C 259.683594 473.492188 267.125 496.03125 257.917969 511.058594 C 254.964844 515.871094 247.972656 519.859375 243.945313 516.492188 C 241.601563 514.0625 246.078125 509.835938 249.785156 513.046875 C 268.296875 509.035156 257 470.992188 253.644531 465.242188 "/>
</g>
</svg>
