<?xml version="1.0" encoding="UTF-8"?>
<svg xmlns="http://www.w3.org/2000/svg" xmlns:xlink="http://www.w3.org/1999/xlink" width="515pt" height="428pt" viewBox="0 0 515 428" version="1.1">
<g id="surface1">
<path style=" stroke:none;fill-rule:nonzero;fill:rgb(0%,0%,0%);fill-opacity:1;" d="M 503.5625 365.667969 C 500.941406 364.847656 501.867188 363.605469 502.992188 362.203125 C 520.421875 340.511719 496.738281 323.671875 478.773438 324.859375 C 479.378906 318.554688 474.925781 313.695313 469.820313 310.917969 C 474.597656 309.707031 481.664063 307.355469 481.699219 301.636719 C 481.710938 299.792969 481.867188 298.191406 484.050781 297.925781 C 499.410156 296.082031 514.855469 270.730469 499.414063 256.207031 C 508.871094 248.910156 509.683594 233.492188 493.558594 224.730469 C 495.46875 221.703125 496.832031 218.429688 497.539063 214.90625 C 516.777344 206.011719 510.609375 179.546875 499.480469 177.136719 C 497.0625 176.613281 497.617188 175.453125 498.605469 174.035156 C 501.679688 169.628906 501.324219 162.613281 496.871094 156.101563 C 504.382813 146.871094 511.582031 137.074219 513.839844 126.0625 C 511.503906 122.71875 508.089844 121.621094 504.59375 120.773438 C 502.835938 120.34375 502.714844 119.84375 503.429688 117.511719 C 504.160156 115.121094 504.894531 112.40625 504.96875 109.789063 C 505.203125 101.585938 501.621094 100.0625 495.644531 102.386719 C 482.101563 107.171875 471.394531 118.5 459.753906 127.582031 C 451.679688 133.878906 448.011719 127.484375 449.484375 123.273438 C 450.820313 119.46875 454.617188 115.871094 458.859375 113.972656 C 473.785156 107.289063 503.875 94.566406 509.363281 80.648438 C 507.574219 78.351563 505.417969 77.5 502.773438 76.363281 C 509.359375 67.621094 516.25 55.648438 511.953125 42.738281 C 507.910156 30.59375 498.03125 19.601563 497.402344 6.652344 C 496.996094 -1.828125 492.648438 -2.171875 488.929688 5.621094 C 483.664063 16.671875 482.675781 25.75 484.765625 32.652344 C 485.003906 33.441406 484.726563 34.304688 483.691406 33.832031 C 478.589844 31.507813 476.15625 35.800781 478.433594 42.558594 C 470.335938 42.210938 462.375 44.613281 455.957031 49.113281 C 454.15625 47.203125 452.78125 45.054688 451.164063 43.339844 C 447.3125 39.265625 444.835938 39.476563 440.902344 42.480469 C 427.851563 52.453125 426.429688 68.738281 422.675781 84.085938 C 421.152344 90.308594 418.972656 91.933594 419.183594 84.078125 C 419.644531 66.828125 418.515625 56.621094 412.644531 46.003906 C 409.207031 39.785156 405.890625 40.792969 400.839844 45.722656 C 393.960938 52.4375 389.464844 60.730469 387.527344 69.363281 C 384.191406 66.886719 378.757813 66.652344 375.179688 67.160156 C 367.355469 81.867188 367.710938 108.304688 375.628906 120.84375 C 371.285156 120.308594 370.144531 120.214844 369.796875 124.03125 C 369.339844 129.015625 369.789063 134.992188 371.25 139.875 C 357.734375 133.683594 348.457031 147.171875 347.398438 154.394531 C 307.167969 143.398438 281.171875 184.316406 295.8125 208.933594 C 287.683594 214.46875 284.195313 223.203125 282.796875 232.367188 C 280.40625 233.707031 278.007813 235.269531 276.5625 237.761719 C 261.855469 231.632813 243.464844 237.582031 239.585938 254.738281 C 233.476563 253.570313 227.5625 256.578125 223.949219 262.257813 C 215.355469 256.90625 202.613281 255.660156 191.378906 256.621094 C 181.644531 257.453125 179.761719 260.753906 184.871094 268.820313 C 190.144531 277.152344 197.535156 277.332031 199.753906 284.761719 C 193.855469 289.609375 186.425781 289.132813 178.960938 287.628906 C 168.6875 285.566406 140.027344 281.191406 127.296875 287.707031 C 123.882813 289.453125 122.050781 290.34375 125.46875 294.390625 C 126.570313 295.695313 127.960938 296.886719 128.386719 298.441406 C 109.984375 304.460938 93.519531 320.558594 84.160156 337.433594 C 81.316406 342.5625 81.785156 343.925781 87.867188 344.636719 C 90.222656 344.910156 92.921875 344.753906 95.109375 345.882813 C 94.84375 346.871094 89.34375 353.300781 88.652344 356.382813 C 93.949219 359.832031 101.273438 360.039063 106.34375 363.480469 C 103.222656 377.023438 82.601563 379.953125 76.929688 378.203125 C 67.820313 370.476563 57.980469 364.273438 46.421875 361.769531 C 45.109375 363.34375 44.183594 365.261719 43.578125 367.035156 C 37.316406 361.367188 29.882813 359.882813 6.84375 361.011719 C -1.3125 361.410156 -1.453125 365.277344 4.164063 367.675781 C 18.304688 373.714844 30.308594 382.777344 43.253906 390.917969 C 68.941406 407.070313 93.570313 412.199219 126 407.21875 C 126.832031 408.589844 127.625 413.472656 127.90625 414.339844 C 129.035156 417.871094 134.988281 415.65625 139.925781 412.820313 C 148.464844 407.925781 160.953125 392.59375 166.726563 384.375 C 170.242188 379.371094 172.238281 378.613281 171.917969 386.085938 C 171.730469 390.449219 170.355469 398.019531 170.421875 399.78125 C 170.640625 405.578125 172.121094 406.585938 179.171875 406.535156 C 185.359375 406.496094 191.273438 405.730469 196.605469 403.394531 C 198.8125 408.933594 201.742188 415.617188 207.164063 418.738281 C 217.875 415.09375 226.277344 404.34375 229.507813 393.925781 C 232.53125 393.1875 234.609375 391.800781 235.648438 389.53125 C 237.339844 391.605469 239.265625 393.246094 241.433594 394.5625 C 248.597656 398.425781 259.429688 402.230469 267.308594 397.351563 C 275.328125 408.167969 298.382813 409.867188 309.953125 400.3125 C 314.570313 410.082031 328.5625 412.425781 339.136719 401.242188 C 342.699219 403.621094 349.566406 406.492188 353.449219 404.101563 C 388.195313 441.171875 462.949219 431.199219 498.214844 401.699219 C 498.644531 401.273438 499.09375 400.867188 499.558594 400.476563 C 501.570313 398.777344 503.882813 397.367188 506.109375 395.910156 C 523.953125 384.25 510.085938 367.707031 503.5625 365.667969 Z M 477.0625 295.617188 C 479.601563 307.429688 463.660156 305.582031 452.53125 300.371094 C 449.601563 298.996094 434.308594 292.046875 428.667969 291.46875 C 440.558594 284.621094 442.824219 286.476563 457.082031 289.589844 C 464.902344 291.152344 472.835938 292.71875 481.390625 292.644531 C 479.90625 293.578125 476.941406 295.066406 477.0625 295.617188 Z M 385.316406 341.492188 C 385.136719 340.6875 385.605469 340.441406 386.097656 341.058594 C 397.890625 355.875 405.175781 373.382813 408.308594 391.621094 C 403.367188 393.226563 400.355469 398.675781 400.355469 398.675781 C 394.703125 395.765625 385.355469 396.136719 379.25 398.539063 C 372.203125 387.480469 388.703125 356.621094 385.316406 341.492188 Z M 389.027344 339.785156 C 386.476563 336.582031 387.484375 336.007813 390.769531 337.722656 C 403.042969 344.132813 424.804688 368.171875 433.839844 384.90625 C 425.207031 386.40625 424.515625 394.949219 424.515625 394.949219 C 420.511719 392.441406 415.878906 390.777344 411.898438 390.621094 C 408.703125 371.925781 401.246094 355.148438 389.027344 339.785156 Z M 392.75 334.875 C 392.117188 334.511719 392.417969 333.835938 393.203125 334.300781 C 397.453125 336.816406 409.574219 332.269531 410.347656 327.113281 C 444.886719 338.359375 473.246094 376.46875 476.324219 391.527344 C 462.617188 389.933594 451.171875 382.328125 436.664063 383.808594 C 429.042969 366.757813 410.644531 345.089844 392.75 334.875 Z M 407.515625 314.269531 C 405.785156 313.777344 404.164063 313.402344 403.179688 315.582031 C 408.078125 323.859375 397.453125 332.078125 391.546875 325.882813 C 390.148438 324.417969 383.933594 331.042969 382.972656 332.070313 C 380.703125 329.027344 378.589844 325.261719 373.28125 323.507813 C 375.808594 321.617188 380.140625 321.695313 382.855469 323.144531 C 380.996094 311.1875 394.269531 303.757813 400.171875 310.675781 C 402.863281 310.609375 403.253906 308.59375 403.753906 306.492188 C 405.445313 299.421875 415.558594 297.347656 419.140625 302.320313 C 424.328125 309.527344 413.90625 316.089844 407.515625 314.269531 Z M 409.742188 146.324219 C 415.871094 151.03125 418.972656 158.945313 420.464844 165.566406 C 362.597656 201.652344 354.585938 247.980469 365.605469 277.703125 L 364.796875 278.363281 C 335.90625 225.691406 382.058594 161.609375 409.742188 146.324219 Z M 352.703125 236.210938 C 352.570313 238.066406 352.097656 238.101563 352.023438 236.242188 C 349.820313 180.519531 388.335938 142.949219 388.335938 142.949219 C 393.957031 141.203125 400.847656 141.382813 406.28125 144.171875 C 366.449219 174.789063 355.121094 202.339844 352.703125 236.210938 Z M 454.425781 228.089844 C 446.199219 244.03125 437.964844 259.992188 425.011719 273.3125 C 420.9375 270.355469 416.109375 270.089844 413.054688 271.832031 C 410.632813 273.210938 407.8125 272.460938 405.894531 270.925781 C 427.6875 259.519531 445.351563 225.585938 452.769531 210.046875 C 459.308594 196.347656 465.550781 182.542969 475.667969 170.109375 C 477.273438 168.136719 477.84375 167.710938 478.25 170.707031 C 479.457031 179.660156 481.828125 189.164063 476.238281 194.378906 C 467.035156 202.957031 459.425781 218.40625 454.425781 228.089844 Z M 485.1875 205.148438 C 473.683594 211.835938 467.59375 221.839844 461.847656 232.25 C 453.652344 247.09375 443.921875 264.898438 429.691406 274.335938 L 427.730469 273.910156 C 450.664063 252.351563 456.613281 223.574219 475.414063 199.945313 C 480.789063 200.101563 485.1875 205.148438 485.1875 205.148438 Z M 406.042969 295.707031 C 402.84375 295.125 399.0625 299.605469 398.15625 303.367188 C 395.902344 301.488281 392.113281 301.769531 389.429688 302.210938 C 397.941406 295.46875 404.632813 287.203125 407.277344 277.429688 L 408.609375 277.464844 C 408.128906 279.273438 408.171875 282.46875 410.203125 284.335938 C 407.09375 286.867188 405.789063 291.03125 406.042969 295.707031 Z M 399.492188 280.203125 C 399.898438 281.757813 399.144531 283.878906 397.730469 285.015625 C 388.21875 282.429688 366.8125 292.660156 359.558594 306.914063 C 359.558594 306.914063 357.765625 308.535156 357.332031 307.828125 C 353.0625 300.886719 375.78125 276.105469 399.492188 280.203125 Z M 389.335938 276.207031 C 391.386719 273.816406 398.496094 273.40625 403.136719 274.820313 C 402.886719 275.476563 402.714844 276.570313 402.054688 277.535156 C 398.542969 276.496094 393.695313 275.851563 389.335938 276.207031 Z M 436.652344 227.816406 C 428.648438 240.804688 418.953125 257.269531 404.609375 265.113281 C 397.683594 268.898438 393.988281 261.765625 394.726563 256.914063 C 397.324219 239.757813 410.664063 228.40625 424.046875 217.105469 C 435.933594 207.070313 447.257813 198.222656 450.828125 185.324219 C 452.210938 179.609375 459.242188 180.910156 463.148438 177.859375 C 453.335938 194.101563 446.140625 211.453125 436.652344 227.816406 Z M 388.910156 257.746094 C 382.1875 239.117188 401.714844 219.59375 410.988281 212.15625 C 419.769531 205.117188 429.574219 199.046875 437.765625 191.867188 C 427.253906 216.523438 389.867188 228.011719 388.910156 257.746094 Z M 440.335938 184.210938 C 433.003906 193.667969 405.28125 209.210938 393.320313 225.03125 C 381.828125 240.230469 379.578125 259.042969 392.472656 267.898438 C 385.652344 268.824219 378.5625 270.960938 372.199219 274.242188 C 359.652344 221.207031 414.222656 179.722656 436.648438 174.082031 C 441.753906 172.796875 443.761719 179.785156 440.335938 184.210938 Z M 370.148438 275.375 L 369.339844 276.117188 C 351.574219 241.914063 381.601563 194.238281 418.511719 170.851563 C 423.371094 167.769531 423.519531 166.984375 428.730469 166.710938 C 432.429688 166.515625 435.203125 168.074219 438.257813 170.335938 C 384.664063 186.316406 355.765625 244.390625 370.148438 275.375 Z M 416.824219 139.617188 C 424.566406 116.914063 435.78125 93.234375 457.175781 78.25 C 462.917969 74.226563 475.070313 66.300781 481.492188 59.964844 C 482.503906 58.964844 482.523438 59.335938 481.699219 60.382813 C 475.835938 67.839844 468.078125 73.257813 460.9375 79 C 440.519531 95.429688 430.84375 120.507813 422.199219 146.085938 Z M 370.316406 281.777344 L 371.039063 282.96875 C 362.402344 288.355469 348.039063 303.027344 354.742188 309.128906 C 351.792969 310.554688 347.882813 309.738281 345.101563 309.84375 C 346.539063 302.238281 357.101563 285.414063 370.316406 281.777344 Z M 347.980469 315.1875 C 358.820313 316.214844 370.589844 311.28125 381.203125 307.40625 C 379.523438 309.878906 377.863281 312.707031 377.933594 316.152344 C 374.132813 316.765625 370.429688 317.605469 367.414063 320.476563 C 361.582031 319.222656 355.125 319.496094 350.53125 322.964844 C 349.253906 320.152344 347.738281 318.179688 347.980469 315.1875 Z M 414.820313 295.203125 C 412.992188 294.550781 410.875 294.542969 409.730469 294.882813 C 410.164063 290.015625 411.855469 286.5625 415.246094 283.425781 C 410.121094 279.867188 415.1875 276.117188 418.554688 275.886719 C 423.839844 275.515625 419.691406 279.171875 423.921875 280.484375 C 427.046875 280.175781 429.878906 278.964844 432.683594 280.863281 C 425.15625 282.761719 416.171875 287.042969 414.820313 295.203125 Z M 452.792969 306.511719 C 441.941406 305.640625 426.316406 301.933594 423.65625 296.917969 C 434.699219 295.839844 443.660156 301.894531 452.792969 306.511719 Z M 491.785156 255.429688 C 501.515625 263.871094 502.175781 287.378906 483.484375 288.800781 C 474.800781 289.457031 445.171875 282.597656 438.613281 280.753906 C 437.046875 278.835938 432.59375 275.304688 432.59375 275.304688 C 461.519531 257.375 465.617188 217.199219 487.0625 208.007813 C 491.167969 213.296875 489.664063 222.339844 486.199219 227.96875 C 486.746094 230.066406 488.152344 230.570313 489.796875 230.8125 C 500.945313 232.433594 498.371094 251.53125 491.785156 255.429688 Z M 497.488281 208.460938 C 495.527344 199.820313 487.878906 196.933594 479.597656 195.683594 C 489.550781 187.699219 480.480469 176.683594 481.636719 166.65625 C 482.265625 161.203125 486.984375 159.792969 489.203125 161.601563 C 493.558594 165.144531 494.636719 168.898438 493.304688 174.675781 C 492.808594 176.832031 495.351563 180.199219 495.863281 180.585938 C 502.382813 185.472656 507.414063 196.621094 497.488281 208.460938 Z M 489.019531 152.324219 C 477.46875 155.304688 475.179688 161.621094 468.230469 170.859375 C 462.492188 172.5 456.960938 174.59375 450.914063 175.664063 C 450.039063 172.734375 448.480469 170.222656 446.027344 167.894531 C 468.359375 160.199219 489.179688 146.4375 507.253906 129.332031 C 502.816406 138.648438 500.160156 149.453125 489.019531 152.324219 Z M 496.058594 108.195313 C 498.730469 105.664063 500.667969 104.019531 500.046875 110.078125 C 499.496094 115.46875 497.734375 120.300781 496.207031 125.296875 C 499.457031 124.273438 503.558594 122.28125 507.425781 125.339844 C 488.113281 142.835938 467.117188 157.9375 443.042969 164.78125 C 442.210938 163.519531 441.222656 163.109375 439.488281 162.390625 C 464.289063 151.042969 476.761719 126.46875 496.058594 108.195313 Z M 443.507813 117.257813 C 434.652344 127.730469 444.367188 140.472656 454.335938 137.433594 C 466.316406 133.777344 473.863281 119.726563 484.625 113.121094 C 487.253906 111.507813 488.4375 111.675781 485.722656 114.511719 C 469.746094 131.222656 456.863281 153.535156 434.867188 161.203125 C 432.011719 160.707031 429.316406 161.097656 426.21875 162.355469 C 426.863281 157.714844 425.671875 153.238281 424.40625 148.960938 C 431.734375 136.277344 430.71875 121.558594 444.035156 111.367188 C 460.78125 99.316406 479.597656 95.800781 497.539063 86.914063 C 482.3125 102.628906 458.277344 99.785156 443.507813 117.257813 Z M 485.90625 38.171875 C 488.582031 38.6875 491.296875 39.421875 492.9375 36.71875 C 488.371094 28.652344 487.355469 20.273438 491.554688 12.214844 C 492.246094 28.675781 519.445313 50.957031 497.335938 73.683594 C 495.914063 62.523438 488.335938 52 484.503906 40.820313 C 483.613281 38.230469 484.230469 37.847656 485.90625 38.171875 Z M 485.964844 59.191406 C 488.621094 65.027344 492.328125 69.980469 491.359375 76.753906 C 490.984375 79.378906 491.277344 80.9375 494.8125 80.257813 C 497.328125 79.777344 500.21875 78.996094 501.808594 80.65625 C 483.085938 92.285156 460.046875 95.730469 441.351563 109.253906 C 450.238281 88.550781 480.652344 70.71875 485.964844 59.191406 Z M 447.671875 45.53125 C 451.570313 47.8125 453.898438 56.933594 457.746094 53.96875 C 464.414063 48.8125 472.511719 46.609375 480.808594 47.410156 L 483.039063 52.285156 C 473.726563 69.03125 453.285156 72.328125 441.03125 88.460938 C 441.695313 73.148438 443.410156 58.546875 447.671875 45.53125 Z M 407.257813 47.445313 C 413.238281 50.769531 413.289063 72.796875 413.953125 88.800781 C 414.449219 100.816406 425.164063 104.089844 427.359375 92.175781 C 430.195313 76.765625 433.476563 54.023438 444.085938 46.152344 C 439.507813 62.0625 438.113281 74.777344 437.328125 91.855469 C 427.078125 105.300781 418.613281 121.152344 413.339844 137.703125 C 412.671875 132.671875 407.855469 111.210938 406.96875 105.246094 C 404.882813 91.210938 404 64.019531 407.257813 47.445313 Z M 387.175781 74.105469 C 389.808594 76.441406 391.695313 74.972656 392.679688 71.777344 C 394.972656 64.355469 397.132813 56.191406 403.460938 50.390625 C 399.46875 76.894531 401.863281 110.113281 408.914063 135.605469 C 405.699219 134.539063 401.492188 134.1875 397.496094 134.125 C 388.703125 113.96875 380.613281 93.0625 378.570313 70.976563 C 382.128906 69.65625 384.691406 71.898438 387.175781 74.105469 Z M 375.109375 125.15625 C 378.648438 125.53125 382.132813 127.128906 385.136719 124.480469 C 374.242188 112.007813 373.582031 94.796875 376.636719 79.671875 C 380.3125 97.382813 389.191406 128.789063 393.464844 134.839844 C 387.558594 135.25 382.351563 137.46875 377.238281 140.136719 C 374.648438 135.800781 374.636719 128.355469 375.109375 125.15625 Z M 303.023438 209.246094 C 289.882813 194.101563 308.046875 152.230469 349.742188 160.214844 C 352.074219 160.660156 354.425781 160.597656 354.433594 157.984375 C 354.453125 147.703125 363.726563 142.261719 374.066406 149.289063 C 375.609375 147.710938 376.089844 146.0625 380.546875 145.835938 C 346.335938 185.933594 338.347656 232.589844 354.816406 270.265625 C 345.546875 261.085938 333.164063 260.324219 321.066406 257.464844 C 317.464844 250.320313 305.304688 235.390625 292.8125 232.023438 C 289.871094 223.007813 296.855469 215.644531 303.023438 209.246094 Z M 343.230469 281.339844 C 334.214844 279.019531 325.542969 267.453125 324.671875 263.402344 C 332.675781 265.800781 342.203125 267.246094 347.960938 273.546875 C 354 280.15625 348.730469 282.753906 343.230469 281.339844 Z M 288.679688 239.820313 C 300.933594 242.332031 309.8125 250.121094 317.550781 263.066406 C 323.367188 272.792969 328.902344 282.835938 339.515625 288.144531 C 346.289063 291.53125 355.738281 289.132813 358.140625 275.632813 L 361.480469 280.554688 C 353.839844 287.664063 345.421875 294.746094 341.347656 304.125 C 316.476563 293.195313 292.011719 268.019531 281.148438 247.511719 C 276.816406 239.328125 282.117188 238.476563 288.679688 239.820313 Z M 274.328125 243.21875 C 294.542969 277.082031 309.289063 293.539063 340.320313 307.300781 C 340.023438 309.066406 340.339844 310.519531 340.558594 312.089844 C 310.671875 299.238281 276.113281 274.839844 265.769531 241.839844 C 268.527344 241.507813 271.839844 242.011719 274.328125 243.21875 Z M 263.109375 242.4375 C 269.597656 265.742188 290.667969 286.914063 311.28125 300.777344 C 312.652344 301.699219 312.378906 302.15625 310.851563 301.453125 C 287.996094 290.929688 261.128906 271.433594 251.746094 249.019531 C 254.992188 245.824219 259.054688 243.707031 263.109375 242.4375 Z M 244.828125 259.9375 C 244.863281 256.496094 246.402344 254.34375 249.183594 251.683594 C 267.808594 288.488281 304.640625 304.765625 340.515625 315.320313 L 341.183594 317.722656 C 307.417969 320.21875 256.816406 306.523438 231.757813 284.59375 C 222.027344 276.382813 226.144531 258.792969 244.828125 259.9375 Z M 230.085938 287.296875 C 259.105469 315.078125 311.71875 322.609375 341.746094 320.585938 L 342.828125 323.742188 C 336.976563 324.316406 322.035156 328.957031 316.558594 332.324219 C 284.78125 324.425781 233.015625 329.265625 214.121094 344.847656 C 193.621094 324.085938 208.964844 297.527344 230.085938 287.296875 Z M 306.664063 337.839844 C 291.097656 343.273438 260.078125 373.4375 256.976563 376.902344 C 241.265625 373.492188 230.976563 352.644531 213.625 357.734375 C 211.191406 358.449219 210.78125 357.496094 212.207031 356.039063 C 236.304688 331.429688 293.582031 333.144531 306.664063 337.839844 Z M 220.308594 268.085938 C 219.480469 271.828125 219.292969 274.832031 220.027344 278.417969 C 212.527344 271.980469 204.175781 267.285156 195.9375 262.597656 C 205.070313 262.105469 212.578125 264.417969 220.308594 268.085938 Z M 184.703125 294.265625 C 199.820313 296.828125 214.191406 288.644531 203.238281 278.585938 C 197.761719 273.554688 188.808594 271.039063 186.699219 262.972656 C 195.222656 263.675781 217.953125 280.105469 221.796875 283.71875 C 211.488281 287.011719 205.375 294.449219 199.382813 303.519531 C 191.089844 301.996094 182.269531 301.511719 173.433594 301.253906 C 161.871094 300.921875 134.214844 300.75 131.417969 292.574219 C 149.410156 287.863281 166.683594 291.214844 184.703125 294.265625 Z M 87.960938 340.019531 C 98.476563 323.304688 117.214844 305.304688 136.5625 302.019531 C 151.921875 306.574219 169.195313 302.765625 186.101563 304.945313 C 168.261719 308.949219 153.785156 317.429688 137.574219 324.839844 C 124.085938 331.03125 99.917969 341.15625 87.960938 340.019531 Z M 103.671875 343.011719 C 118.132813 338.265625 150.527344 322.421875 167.058594 314.695313 C 174.257813 311.332031 173.320313 312.492188 168.03125 315.898438 C 157.59375 322.078125 144.265625 330.980469 142.109375 332.433594 C 127.835938 342.035156 112.601563 349.921875 96 353.476563 C 97.390625 349.648438 101.832031 347.042969 103.671875 343.011719 Z M 101.105469 356.144531 C 131.429688 349.230469 153.910156 324.203125 182.699219 312.304688 C 183.847656 311.832031 184.199219 312.300781 183.238281 313.007813 C 175.707031 318.566406 169.296875 325.328125 163.015625 332.214844 C 149.859375 346.648438 119.890625 369.992188 106.667969 373.9375 C 106.886719 371.796875 109.488281 368.800781 110.902344 365.652344 C 112.898438 361.203125 112.625 358.210938 107.792969 357.703125 C 105.453125 357.453125 103.3125 357.496094 101.105469 356.144531 Z M 165.519531 335.25 C 177.554688 323.371094 185.652344 312.933594 197.953125 308.347656 C 197.914063 313.347656 195.132813 314.539063 192.214844 316.171875 C 184.695313 320.382813 158.855469 347.992188 147.851563 356.789063 C 127.695313 372.898438 108.632813 380.535156 85.875 384.59375 L 83.875 383.1875 C 100.097656 377.171875 118.710938 381.4375 165.519531 335.25 Z M 107.207031 403.628906 C 77.382813 404.9375 35.8125 382.59375 16.617188 367.589844 C 27.132813 365.933594 37.136719 370.332031 47.335938 376.585938 C 50.203125 374.488281 49.085938 369.324219 48.179688 367.402344 C 68.089844 374.957031 86.546875 397.402344 107.195313 402.234375 C 109.808594 402.847656 110.410156 403.488281 107.207031 403.628906 Z M 130.847656 408.207031 C 130.09375 405.0625 131.296875 400.449219 128.859375 397.675781 C 114.722656 398.171875 105.222656 396.0625 89.761719 387.203125 C 119.144531 382.175781 146.453125 365.757813 167.976563 343.8125 C 168.839844 342.9375 169.15625 343.171875 168.507813 344.203125 C 155.980469 364.097656 152.285156 389.613281 130.847656 408.207031 Z M 178.183594 378.121094 C 177.335938 370.269531 171.828125 367.050781 166.453125 372.445313 C 157.980469 380.949219 150.363281 401.453125 137.71875 406.0625 C 151.136719 393.496094 156.246094 377.042969 163.621094 361.660156 C 173.472656 341.113281 176.964844 334.050781 196.78125 317.40625 C 196.359375 324.609375 198.148438 329.535156 199.28125 333.511719 C 191.910156 346.777344 185.984375 383.105469 176.078125 397.726563 C 175.011719 394.125 178.527344 381.328125 178.183594 378.121094 Z M 205.796875 411.792969 L 199.441406 394.40625 C 192.386719 395.65625 186.429688 399.839844 178.777344 399.511719 C 188.753906 387.121094 195.382813 345.90625 201.34375 336.609375 C 203.136719 341.246094 206.859375 346.007813 209.75 348.855469 C 193.785156 367.183594 194.542969 390.546875 221.75 394.929688 C 219.011719 401.699219 212.613281 408.308594 205.796875 411.792969 Z M 238.613281 385.21875 C 237.378906 383.074219 235.1875 382.289063 233.4375 384.214844 C 226.773438 392.398438 216.027344 387.875 211.472656 384.191406 C 203.78125 377.972656 202.976563 366.386719 212.878906 364.476563 C 219.589844 363.179688 225.710938 366.261719 231.613281 370.386719 C 240.851563 376.839844 251.121094 384.253906 257.984375 383.121094 C 258.816406 385.570313 260.914063 389.453125 261.839844 390.558594 C 259.609375 394.261719 244.347656 394.257813 238.613281 385.21875 Z M 262.820313 378.3125 C 262.980469 374.617188 286.039063 354.71875 295.292969 347.164063 C 297.59375 345.28125 298.085938 345.773438 296.546875 347.324219 C 287.683594 356.230469 267.371094 375.15625 264.007813 381.207031 C 263.550781 380.242188 262.964844 379.226563 262.820313 378.3125 Z M 266.183594 384.859375 C 277.757813 365.183594 318.195313 333.3125 338.933594 331.574219 C 317.730469 347.820313 294.089844 371.894531 294.882813 396.878906 C 283.460938 398.941406 273.285156 392.722656 266.183594 384.859375 Z M 308.640625 392.253906 C 305.792969 393.796875 302.480469 395.875 298.910156 396.277344 C 296.742188 381.054688 315.765625 355.003906 331.949219 341.09375 C 332.96875 340.222656 333.359375 340.464844 332.476563 341.597656 C 323.5 353.140625 309.53125 378.636719 308.640625 392.253906 Z M 341.089844 397.480469 C 336.710938 394.523438 335.359375 394.324219 332.800781 397.472656 C 327.480469 404.015625 307.339844 397.738281 312.503906 387.644531 C 316.808594 372.945313 323.730469 359.355469 333.046875 346.984375 C 337.824219 374.203125 345.824219 367.570313 355.363281 381.042969 C 362.042969 390.480469 348.921875 402.769531 341.089844 397.480469 Z M 360.683594 401.402344 C 374.703125 392.960938 368.195313 366.507813 368.195313 366.507813 C 375.28125 357.300781 373.324219 342.261719 366.289063 335.679688 C 357.492188 327.445313 345.542969 334.371094 346.1875 342.800781 C 346.554688 347.644531 349.277344 351.441406 352.390625 355.117188 C 360.023438 364.132813 365.195313 375.042969 362.238281 383.46875 C 361.058594 375.804688 355.710938 372.488281 350.617188 368.957031 C 342.144531 363.085938 340.40625 355.78125 340.570313 347.792969 C 341.210938 316.84375 367.609375 326.367188 373.304688 333.121094 C 379.960938 341.019531 381.71875 349.214844 377.757813 364.601563 C 373.460938 381.304688 370.59375 390.679688 372.730469 400.257813 C 368.914063 401.203125 364.84375 402.804688 360.683594 401.402344 Z M 354.28125 343.929688 C 353.183594 339.144531 357.632813 337.257813 361.597656 340.5625 C 367.28125 345.300781 366.597656 354.0625 364.429688 361.121094 C 361.8125 355.464844 355.730469 350.234375 354.28125 343.929688 Z M 367.929688 408.492188 C 379.953125 407.902344 392.007813 401.535156 403.945313 408.054688 C 405.730469 407.910156 406.8125 406.066406 406.988281 404.519531 C 407.34375 396.773438 419.90625 401.027344 426.71875 402.535156 C 429.675781 403.46875 428.304688 400.695313 429.996094 396.949219 C 435.042969 388.167969 444.667969 388.351563 455.550781 391.515625 C 467.003906 395.277344 494.820313 397.996094 494.820313 397.996094 C 467.609375 417.628906 414.257813 430.550781 367.929688 408.492188 Z M 480.296875 392.144531 C 471.96875 359.105469 437.921875 332.214844 410.832031 323.582031 L 410.886719 322.359375 C 455.457031 330.109375 488.804688 366.261719 496.875 391.988281 C 496.875 391.988281 490.730469 393.578125 480.296875 392.144531 Z M 499.832031 391.207031 C 493.292969 365.207031 469.28125 345.070313 447.265625 331.492188 C 436.363281 326.6875 425.066406 320.753906 413.445313 319.695313 C 423.992188 317.230469 425.269531 305.765625 425.269531 305.765625 C 440.894531 311.484375 472.941406 312.234375 472.988281 325.222656 C 472.996094 328.070313 473.308594 329.898438 478.972656 330.535156 C 502.011719 334.976563 507.269531 349.390625 497.722656 362.894531 C 495.589844 365.917969 495.136719 368.535156 497.84375 369.546875 C 509.894531 374.046875 512.628906 389.453125 499.832031 391.207031 "/>
</g>
</svg>
