<?xml version="1.0" encoding="UTF-8"?>
<svg xmlns="http://www.w3.org/2000/svg" xmlns:xlink="http://www.w3.org/1999/xlink" width="509pt" height="591pt" viewBox="0 0 509 591" version="1.1">
<g id="surface1">
<path style=" stroke:none;fill-rule:nonzero;fill:rgb(0%,0%,0%);fill-opacity:1;" d="M 114.621094 160.472656 C 60.253906 110.246094 77.617188 86.347656 55.707031 79.355469 C 50.296875 66.636719 39.492188 54.457031 31.28125 43.148438 C 24.796875 34.21875 30.355469 26.003906 38.746094 37.3125 C 55.746094 60.21875 57.292969 67.953125 84.429688 97.40625 C 100.3125 114.648438 126.695313 134.996094 158.859375 143.566406 C 166.789063 157.972656 183.46875 160.40625 190.023438 150.820313 C 194.589844 168.320313 218.691406 166.027344 221.882813 146.902344 C 227.496094 148.117188 235.140625 146.652344 238.390625 141.148438 C 241.730469 140.894531 247.058594 139.402344 249.859375 137.578125 C 294.09375 127.535156 334.195313 105.613281 373.6875 80.125 C 382.011719 74.753906 416.640625 52.074219 429.589844 46.980469 C 436.835938 57.386719 433.238281 83.980469 417.101563 85.519531 C 419.332031 79.695313 415.335938 72.675781 408.375 72.640625 C 401.785156 72.605469 397.339844 78.964844 399.417969 85.289063 C 404.519531 100.8125 430.402344 97.191406 439.761719 81.53125 C 446.195313 70.773438 446.789063 55.503906 438.410156 42.9375 C 461.722656 36.363281 484.878906 37.097656 497.003906 45.425781 C 500.472656 47.8125 501.359375 46.578125 499.183594 43.832031 C 488.828125 30.765625 478.710938 22.417969 453.109375 17.753906 C 452.566406 17.644531 452.371094 17.421875 452.945313 17.414063 C 463.601563 17.328125 501.753906 17.535156 508.671875 17.484375 L 508.671875 0.71875 L 0.621094 0.71875 L 0.628906 590.132813 L 17.363281 590.082031 C 17.363281 590.082031 17.492188 481.960938 17.5 467.113281 C 17.503906 466.28125 17.675781 466.640625 17.773438 467.199219 C 19.820313 478.6875 25.59375 490.882813 33.515625 497.605469 C 35.503906 499.292969 36.683594 499.148438 34.652344 495.367188 C 27.515625 482.085938 35.007813 456.269531 43.632813 441.277344 C 49.757813 449.65625 57.625 454.019531 65.554688 455.304688 C 82.820313 458.105469 97.976563 447.003906 100.882813 431.578125 C 103.238281 419.0625 98.644531 405.851563 85.628906 406.097656 C 69.945313 406.394531 66.644531 429.34375 83.578125 429.421875 C 87.710938 429.441406 92.320313 426.5625 92.789063 421.59375 C 98.464844 434.007813 81.839844 449.53125 66.023438 447.359375 C 58.875 446.304688 51.199219 440.707031 47.816406 434.496094 C 52.652344 426.648438 65.203125 411.066406 69.765625 405.625 C 129.453125 334.492188 135.046875 292.957031 126.648438 250.726563 C 128.460938 247.101563 130.269531 242.960938 129.765625 238.652344 C 129.589844 237.136719 129.671875 236.992188 130.960938 237.074219 C 147.519531 238.121094 154.851563 226.003906 153.921875 215.4375 C 160.171875 213.144531 168.882813 206.519531 166.925781 197.9375 C 152.234375 193.847656 128.667969 173.449219 114.621094 160.472656 Z M 73.269531 109.484375 C 81.378906 127.570313 95.164063 144.445313 110.082031 158.925781 C 127.378906 175.710938 145.882813 191.011719 159.46875 197.761719 C 152.625 199.292969 131.855469 195.070313 121.875 179.402344 C 120.351563 177.011719 119.203125 176.90625 117.523438 180.335938 C 107.230469 201.355469 83.828125 187.789063 82.328125 174.613281 C 82.300781 174.351563 81.808594 174 81.582031 174.089844 C 76.015625 176.292969 64.09375 165.648438 69.777344 153.03125 C 66.324219 149.863281 65.828125 148.40625 66.199219 142.785156 C 66.910156 132.03125 69.449219 119.960938 69.277344 109.386719 C 69.113281 99.558594 66.070313 89.964844 58.132813 86.203125 C 51.164063 82.902344 44.921875 88.132813 45.375 95.160156 C 46.058594 105.800781 52.988281 113.472656 60.242188 128.148438 C 58.933594 141.761719 59.484375 148.527344 67.003906 154.011719 C 64.71875 157.71875 65.941406 162.132813 66.449219 166.402344 C 67.378906 174.269531 62.957031 178.054688 59.019531 178.210938 C 57.371094 178.273438 56.09375 178.675781 56.503906 181.574219 C 57.554688 188.992188 50.160156 202.234375 40.214844 200.980469 C 38.972656 200.824219 38.535156 201.429688 38.871094 202.574219 C 43.191406 217.277344 27.453125 228.238281 23.5 228.878906 C 47.6875 189.046875 39.6875 152.398438 34.765625 119.914063 C 32.164063 102.726563 31.6875 89.203125 42.367188 82.953125 C 65.105469 74.863281 67.046875 95.609375 73.269531 109.484375 Z M 35.101563 338.261719 C 46.378906 312.433594 60.457031 288.03125 63.984375 258.847656 C 65.632813 258.804688 66.570313 259.335938 67.378906 259.929688 C 73.011719 264.070313 83.808594 265.585938 90.421875 261.390625 C 92.515625 293.675781 66.214844 340.03125 52.1875 365.4375 C 44.171875 379.957031 35.1875 393.671875 27.628906 408.429688 C 16.941406 387.394531 30.710938 348.324219 35.101563 338.261719 Z M 26.125 410.910156 C 25.441406 412.339844 24.199219 414.257813 23.617188 416.09375 C 19 411.1875 18.242188 393.679688 18.210938 390.515625 C 17.84375 357.785156 34.421875 328.648438 46.558594 299.582031 C 52.0625 285.65625 56.648438 271.144531 57.648438 255.71875 C 58.933594 256.585938 61.445313 257.804688 62.132813 258.054688 C 59.625 285.773438 40.636719 319.097656 29.449219 346.820313 C 22.96875 362.875 16.464844 392.753906 26.125 410.910156 Z M 51.058594 245.210938 C 42.484375 258.445313 24.71875 255.492188 19.773438 241.765625 C 18.691406 238.769531 19.992188 236.117188 21.308594 233.046875 C 36.5 236.875 53.089844 230.027344 53.660156 220.472656 C 59.121094 222.910156 64.71875 221.242188 69.566406 218.605469 C 71.863281 219.957031 72.636719 220.855469 73.480469 221.402344 C 73.074219 223.757813 71.441406 224.679688 69.527344 225.257813 C 65.007813 226.617188 58.535156 228.753906 56.089844 236.023438 C 53.910156 242.511719 60.15625 247.136719 65.890625 243.558594 C 74.222656 238.359375 72.886719 230.105469 78.078125 225.363281 C 78.832031 226.867188 78.921875 228.644531 79.089844 230.644531 C 72.554688 234.191406 73.253906 246.996094 79.582031 253.050781 C 71.871094 261.542969 53.457031 254.144531 51.058594 245.210938 Z M 41.136719 202.847656 C 51.871094 204.097656 59.550781 192.46875 58.566406 180.667969 C 64.027344 180.003906 67.507813 177.378906 68.738281 169.242188 C 71.742188 172.910156 75.578125 176.832031 80.746094 176.496094 C 80.46875 183.046875 87.933594 185.230469 88.351563 191.121094 C 88.652344 195.332031 83.09375 203.511719 74.742188 201.347656 C 76.050781 216.046875 61.902344 222.292969 51.976563 217.859375 C 49.808594 230.925781 34.277344 232.632813 24.074219 231.5625 C 36.933594 226.023438 43.839844 214.613281 41.136719 202.847656 Z M 76.28125 222.410156 C 76.742188 223.644531 76.429688 224.195313 75.890625 224.824219 C 73.757813 227.3125 70.742188 237.585938 65.945313 241.152344 C 61.859375 244.1875 56.953125 241.5 57.496094 237.695313 C 58.261719 232.367188 67.394531 226.632813 71.757813 226.332031 C 73.761719 224.664063 74.460938 223.84375 76.28125 222.410156 Z M 78.957031 249.292969 C 75.261719 243.859375 76.515625 234.863281 80.402344 231.730469 C 80.578125 230.40625 80.285156 228.101563 79.949219 225.890625 C 80.007813 224.625 80.769531 224.582031 80.917969 225.246094 C 81.421875 227.507813 82.019531 231.355469 82.707031 233.550781 C 84.179688 238.257813 85.699219 243.003906 85.289063 247.738281 C 84.917969 252.050781 82.097656 253.90625 78.957031 249.292969 Z M 82.25 223.03125 C 83.582031 223.152344 84.457031 222.953125 85.308594 223.085938 C 86.023438 224.035156 97.925781 238.039063 97.925781 238.039063 C 95.507813 239.625 92.007813 238.707031 89.503906 238.039063 C 89.132813 239.871094 88.855469 241.902344 87.667969 244.046875 C 86.121094 236.980469 82.601563 229.710938 82.25 223.03125 Z M 87.085938 222.695313 C 87.679688 222.554688 88.25 222.433594 89 222.203125 C 90.167969 224.207031 91.757813 226.28125 93.421875 227.78125 C 100.34375 228.03125 106.851563 232.285156 109.269531 238.875 L 109.269531 239.789063 C 99.09375 240.207031 93.421875 229.785156 87.085938 222.695313 Z M 94.257813 225.699219 L 90.847656 221.292969 C 92.082031 220.671875 93.175781 220.132813 93.824219 219.699219 C 97.253906 222.925781 103.808594 226.246094 109.601563 225.113281 C 110.269531 227.03125 108.601563 229.617188 107.183594 231.367188 C 103.597656 228.367188 99.511719 225.363281 94.257813 225.699219 Z M 94.007813 215.773438 C 89.664063 220.578125 80.003906 222.949219 71.492188 217.277344 C 74.492188 213.355469 77.410156 209.355469 76.578125 203.765625 C 83.691406 203.613281 91.734375 198.964844 89.503906 189.671875 C 100.449219 197.207031 113.792969 194.703125 119.773438 179.75 C 124.675781 187.746094 133.050781 194.671875 143.207031 197.761719 C 141.507813 205.953125 130.589844 215.734375 124.027344 210.6875 C 122.753906 222.117188 100.691406 228.027344 94.007813 215.773438 Z M 63.53125 123.589844 C 64.972656 116.210938 66.953125 101.039063 62.296875 94.804688 C 57.835938 88.835938 51.542969 91.523438 52.296875 99.761719 C 52.960938 107.023438 61.3125 123.042969 61.3125 123.042969 L 60.984375 125.460938 C 56.257813 115.386719 48.210938 105.957031 47.503906 94.699219 C 47.046875 87.386719 55.984375 85.207031 60.65625 89.980469 C 67.929688 97.421875 68.074219 104.40625 66.488281 121.710938 C 65.65625 130.792969 64.066406 139.878906 64.238281 148.226563 C 59.949219 141.421875 61.890625 132.011719 63.53125 123.589844 Z M 54.449219 99.128906 C 53.9375 92.390625 60.703125 93.453125 62.277344 98.980469 C 64.25 105.917969 63.636719 114.164063 61.902344 120.625 C 59.164063 114.082031 55.039063 106.925781 54.449219 99.128906 Z M 158.992188 136.9375 C 150.8125 137.511719 144.035156 126.414063 142.835938 120.847656 C 141.648438 115.339844 141.511719 109.265625 139.925781 104.425781 C 157.050781 111.257813 180.558594 134.40625 187.988281 149.144531 C 182.707031 156.460938 166.304688 157.066406 158.992188 136.9375 Z M 191.84375 134.507813 C 191.3125 139.296875 189.964844 143.941406 190.027344 147.976563 C 185.515625 137.871094 161.835938 111.007813 141.621094 102.945313 C 126.878906 97.0625 96.574219 81.40625 85.542969 66.851563 C 79.308594 58.621094 84.617188 47.65625 94.378906 46.292969 C 99.609375 45.5625 122.035156 48.441406 127.015625 48.757813 C 161.160156 50.914063 182.546875 46.035156 204.167969 28.085938 C 203.355469 42.523438 193.09375 66.828125 175.839844 65.011719 C 173.5625 64.773438 172.617188 64.851563 172.949219 67.695313 C 173.558594 72.941406 163.964844 75.917969 152.496094 73.800781 C 150.734375 73.476563 150.058594 73.625 150.378906 75.324219 C 151.160156 79.46875 143.507813 76.867188 138.238281 72.914063 C 127.878906 65.140625 117.628906 55.03125 105.558594 51.867188 C 81.515625 45.558594 82.757813 62.511719 88.160156 67.847656 C 95.269531 74.859375 113.566406 74.570313 125.195313 71.425781 C 129.785156 74.136719 134.925781 77.695313 140.171875 79.304688 C 147.992188 81.703125 153.511719 79.878906 152.546875 75.925781 C 159.21875 77.09375 166.472656 77.847656 172.644531 74.09375 C 180.925781 80.191406 180.761719 84.355469 175.980469 91.1875 C 184.511719 97.96875 188.410156 102.277344 180.4375 110.257813 C 185.878906 115.824219 193.007813 124.007813 191.84375 134.507813 Z M 138.796875 107.699219 C 96.449219 87.972656 59.632813 54.574219 51.613281 37.207031 C 60.742188 44.359375 71.242188 52.816406 80.339844 58.671875 C 80.683594 76.296875 122.332031 96.460938 137.488281 103.925781 C 138.074219 104.933594 138.664063 106.433594 138.796875 107.699219 Z M 98.582031 57.210938 C 87.710938 56.054688 87.332031 64.945313 95.921875 68.019531 C 103.886719 70.867188 111.753906 69.621094 120.441406 68.671875 L 121.941406 69.589844 C 105.699219 72.863281 89.773438 70.976563 87.40625 62.796875 C 85.800781 57.242188 88.996094 51.324219 99.835938 52.691406 C 111.613281 54.179688 125.261719 65.703125 139.1875 75.859375 C 140.027344 76.472656 139.796875 76.835938 138.828125 76.375 C 125.355469 69.9375 110.386719 58.460938 98.582031 57.210938 Z M 118.023438 67.503906 C 111.550781 67.859375 103.136719 68.882813 96.765625 66.226563 C 92.625 64.5 89.105469 59.355469 98.582031 59.351563 C 105.011719 59.347656 118.023438 67.503906 118.023438 67.503906 Z M 211.480469 158.144531 C 202.828125 163.109375 194.070313 156.835938 193.257813 150.609375 C 191.808594 139.578125 199.101563 129.105469 190.324219 118.539063 C 202.597656 119.78125 208.085938 112.089844 208.085938 101.113281 C 209.839844 101.863281 211.589844 103.945313 212.589844 105.28125 C 212.421875 113.121094 215.507813 120.039063 221.261719 124.796875 C 221.621094 128.90625 217.675781 131.285156 216.171875 133.824219 C 221.152344 141.699219 219.386719 153.605469 211.480469 158.144531 Z M 223.894531 103.472656 C 226.296875 106.09375 225.015625 113.597656 223.15625 110.835938 C 220.617188 107.058594 217.734375 103.101563 213.757813 100.527344 C 218.273438 99.464844 221.8125 101.199219 223.894531 103.472656 Z M 220.679688 99.609375 C 221.347656 99.066406 222.320313 99.257813 223.324219 99.699219 C 231.476563 103.265625 234.921875 102.804688 238.082031 110 C 240.15625 114.722656 236.632813 118.460938 231.78125 113.1875 C 226.097656 107.011719 227.492188 102.394531 220.679688 99.609375 Z M 220.742188 121.394531 C 216.382813 117.050781 213.617188 110.804688 214.675781 104.695313 C 218.695313 108.328125 222.515625 112.363281 224.25 117.195313 C 226.402344 123.1875 223.128906 123.773438 220.742188 121.394531 Z M 218.261719 134.71875 C 221.296875 131.957031 223.265625 129.214844 223.347656 125.460938 C 226.34375 125.644531 227.234375 124.230469 226.445313 119.648438 C 226.015625 117.160156 225.28125 114.519531 226.097656 112.535156 L 227.015625 110.117188 C 228.203125 112.152344 229.769531 114.296875 231.722656 115.757813 C 237.3125 119.941406 243.632813 118.285156 239.433594 108.371094 C 235.765625 99.714844 230.300781 100.894531 224.847656 98.109375 C 234.953125 95.066406 240.378906 86.496094 241.609375 78.433594 C 243.089844 78.351563 247.363281 77.429688 247.363281 77.429688 C 254.074219 82.5 251.394531 93.300781 245.613281 97.191406 C 257.101563 108.394531 249.023438 125.003906 234.519531 129.964844 C 235.390625 138.113281 224.753906 142.242188 221.644531 142.242188 C 220.933594 139.082031 220.144531 136.984375 218.261719 134.71875 Z M 236.273438 139.554688 C 235.339844 144.78125 222.207031 147.328125 221.722656 144.136719 C 227.242188 144.355469 237.371094 137.648438 236.804688 131.25 C 254.300781 126.382813 257.808594 105.71875 248.863281 97.191406 C 256.148438 90.34375 254.445313 82.242188 249.53125 76.511719 C 254.703125 74.59375 258.539063 69.089844 260.289063 64.171875 C 264.34375 68.441406 265.367188 78.136719 259.519531 84.757813 C 257.910156 86.578125 258.941406 87.347656 260.777344 88.863281 C 269.007813 95.644531 265.257813 108.902344 253.703125 117.621094 C 260.632813 130.488281 247.175781 139.554688 236.273438 139.554688 Z M 265.691406 78.597656 C 294.558594 72.214844 318.46875 53.296875 344.386719 39.601563 C 366.785156 27.769531 378.058594 24.660156 401.058594 28.144531 C 377.292969 40.738281 288.636719 90.113281 267.621094 96.785156 C 267.15625 91.632813 263.980469 88.585938 260.871094 86.433594 C 264.039063 84.015625 264.859375 81.808594 265.691406 78.597656 Z M 363.726563 83.515625 C 322.0625 110.289063 286.011719 125.683594 253.117188 135.050781 C 258.929688 130.070313 259.875 124.519531 257.078125 120.253906 C 256.035156 118.65625 256.6875 117.835938 257.929688 116.953125 C 263.660156 112.871094 266.546875 108.226563 267.859375 98.691406 C 289.375 92.605469 380.914063 41.652344 404.179688 28.652344 C 412.214844 30.191406 423.644531 37.195313 428.320313 44.488281 C 411.996094 52.644531 378.902344 73.765625 363.726563 83.515625 Z M 494.46875 40.3125 C 476.539063 34.058594 455.410156 35.945313 437.066406 40.863281 C 431.3125 33.027344 422.65625 28.140625 414.816406 24.054688 C 442.335938 14.34375 477.660156 20.445313 494.46875 40.3125 Z M 392.898438 17.476563 C 400.429688 17.515625 422.585938 17.371094 430.328125 17.347656 C 431.21875 17.34375 430.945313 17.507813 430.246094 17.601563 C 423.492188 18.519531 417.367188 20.226563 411.628906 22.566406 C 406.179688 20.4375 399.1875 18.40625 392.980469 17.6875 C 392.523438 17.609375 392.394531 17.472656 392.898438 17.476563 Z M 412.496094 25.550781 C 433.160156 34.617188 445.734375 51.320313 441.398438 71.449219 C 436.992188 91.894531 410.238281 99.808594 401.964844 86.527344 C 399.117188 81.773438 401.8125 74.898438 408.140625 74.832031 C 414.304688 74.769531 418.179688 81.273438 414.375 87.003906 C 431.195313 89.804688 442.941406 62.171875 430.507813 43.777344 C 421.816406 30.921875 398.753906 19.714844 368.578125 26.855469 C 354.304688 30.234375 331.25 43.890625 320.054688 50.523438 C 302.664063 60.832031 284.800781 71.539063 266.007813 76.382813 C 266.160156 75.128906 266.105469 74.671875 266.011719 73.097656 C 277.9375 69.011719 317.378906 46.617188 325.898438 42.132813 C 353.171875 27.777344 379.644531 11.140625 412.496094 25.550781 Z M 381.132813 17.480469 C 381.132813 17.480469 381.703125 17.601563 381.117188 17.671875 C 361.125 20.042969 344.867188 29.027344 323.964844 40.617188 C 315.566406 45.277344 277.042969 67.003906 265.617188 70.757813 C 265.089844 67.519531 263.617188 64.160156 261.363281 61.660156 C 262.410156 55.492188 262.539063 46.511719 256.371094 42.761719 C 263.460938 36.070313 261.328125 24.691406 257.285156 17.484375 Z M 253.132813 42.445313 C 266.757813 54.886719 255.652344 76.511719 239.859375 76.511719 C 238.480469 86.5625 231.832031 96.742188 205.335938 99.609375 C 206.257813 110.074219 200.117188 116.660156 189.113281 116.386719 C 187.761719 114.777344 185.902344 113.066406 184.46875 111.46875 C 183.578125 110.480469 183.351563 109.929688 184.359375 108.777344 C 188.820313 103.675781 189.945313 100.808594 180.570313 92.230469 C 179.71875 91.449219 179.519531 90.949219 180.195313 89.34375 C 182.164063 84.644531 184.476563 81.652344 174.410156 72.566406 C 174.972656 71.277344 175.5625 69.09375 175.0625 67.171875 C 192.078125 68.816406 198.230469 56.777344 204.5 40.34375 C 222.847656 37.171875 239.609375 29.917969 255.203125 19.996094 C 260.714844 28.167969 259.382813 37.695313 253.132813 42.445313 Z M 204.988281 38.433594 C 206.121094 34.851563 206.210938 29.574219 207.609375 25.855469 C 209.085938 21.933594 215.269531 21.054688 217.027344 21.371094 C 223.304688 22.503906 224.226563 33.074219 220.175781 34.230469 C 215.070313 35.683594 210.859375 37.160156 204.988281 38.433594 Z M 34.460938 17.421875 C 53.222656 17.453125 254.507813 17.417969 254.507813 17.417969 C 245.003906 23.421875 234.277344 29.40625 223.601563 33.074219 C 226.398438 27.972656 223.8125 18.453125 214.265625 19.367188 C 209.507813 19.820313 206.410156 22.914063 203.179688 26.117188 C 183.1875 45.933594 153.378906 48.453125 119.296875 45.855469 C 105.835938 44.832031 90.898438 41.09375 84.082031 49.160156 C 66.8125 42.480469 52.84375 22.058594 34.558594 17.699219 C 34.125 17.597656 33.882813 17.421875 34.460938 17.421875 Z M 32.054688 19.265625 C 41.558594 20.273438 51.316406 28.453125 54.890625 31.371094 C 63.636719 38.511719 72.15625 46.421875 82.25 51.242188 C 81.589844 52.429688 80.832031 54.242188 80.433594 56.0625 C 80.433594 56.0625 61.941406 42.808594 51 34.34375 C 46.824219 31.113281 45.691406 33.328125 46.878906 35.582031 C 62.796875 65.707031 109.859375 96.335938 139.195313 110.453125 C 140.378906 128.488281 147.210938 135.683594 157.257813 138.875 L 158.316406 141.480469 C 138.789063 136.601563 116.90625 123.878906 99.183594 108.839844 C 81.46875 93.804688 60.472656 66.648438 51.003906 51.527344 C 46.957031 45.070313 42.558594 37.835938 38.851563 33.679688 C 29.804688 23.539063 20.449219 30.347656 27.671875 42.289063 C 36.039063 54.507813 47.5625 65.582031 53.164063 78.863281 C 49.160156 78.53125 44.359375 79.132813 41.46875 80.679688 C 37.1875 73.246094 22.015625 48.019531 19.070313 38.574219 C 15.710938 27.804688 24.042969 18.414063 32.054688 19.265625 Z M 17.710938 17.480469 L 26.84375 17.421875 C 26.84375 17.421875 27.105469 17.578125 26.855469 17.664063 C 22.707031 19.117188 19.117188 22.859375 17.960938 25.464844 C 17.839844 25.769531 17.648438 25.539063 17.648438 25.539063 Z M 17.71875 41.472656 C 17.71875 41.472656 17.859375 41.164063 17.9375 41.371094 C 22.042969 52.183594 38.21875 79.199219 39.921875 81.578125 C 28.496094 90.480469 30.019531 105.15625 32.539063 119.261719 C 37.019531 144.328125 47.144531 189.101563 21.441406 228.664063 C 20.304688 230.414063 18.695313 233.121094 17.875 235.390625 C 17.773438 235.675781 17.605469 235.34375 17.605469 235.34375 Z M 17.605469 243.238281 C 17.605469 243.238281 17.800781 242.886719 17.90625 243.175781 C 23.074219 257.476563 40.429688 260.945313 50.476563 249.382813 L 55.820313 254.535156 C 52.316406 296.394531 26.050781 329.9375 17.546875 370.382813 Z M 17.753906 431.511719 C 17.652344 431.84375 17.445313 431.894531 17.441406 431.578125 C 17.363281 423.933594 17.496094 412.621094 17.449219 404.097656 C 17.445313 403.460938 17.636719 403.488281 17.726563 404.097656 C 18.527344 409.378906 19.066406 413.929688 22.207031 418.414063 C 20.65625 422.21875 19.101563 427.03125 17.753906 431.511719 Z M 68.261719 449.84375 C 83.722656 451.109375 103.40625 433.164063 92.847656 418.210938 C 90.851563 415.382813 89.863281 417.035156 90.242188 418.777344 C 91.386719 424.066406 87.476563 427.417969 83.261719 427.484375 C 70.289063 427.695313 72.976563 409.144531 84.679688 408.402344 C 95.609375 407.710938 100.949219 419.359375 98.246094 432.285156 C 95.5 445.398438 80.832031 454.605469 67.863281 453.347656 C 58.640625 452.453125 49.214844 445.605469 44.472656 439.765625 L 46.382813 436.414063 C 51.40625 444.265625 59.097656 449.097656 68.261719 449.84375 Z M 103.4375 354.855469 C 80.125 394.929688 63.769531 404.976563 46.117188 433.035156 C 36.144531 448.890625 25.777344 472.867188 30.046875 491.050781 C 18.074219 474.203125 16.199219 446.652344 19.070313 434.210938 C 22.167969 420.78125 31.03125 405.742188 43.988281 383.960938 C 51.011719 372.160156 98.070313 297.523438 91.921875 260.222656 C 92.476563 259.625 92.898438 258.957031 93.328125 258.058594 C 106.429688 265.445313 118.375 259.609375 124.648438 253.09375 C 131.476563 293.816406 124.085938 319.351563 103.4375 354.855469 Z M 127.03125 235.039063 C 129.976563 253.054688 110.023438 264.117188 92.757813 255.386719 C 89.078125 262.546875 77.980469 264.175781 69.65625 259.054688 C 74.703125 259.308594 78.734375 256.917969 81.582031 254.699219 C 83.90625 255.078125 88.574219 254.429688 88.03125 246.113281 C 88.445313 245.253906 90.34375 241.761719 91.027344 241.300781 C 93.085938 239.914063 97.09375 241.554688 100.011719 239.539063 C 101.863281 240.578125 104.164063 241.996094 106.71875 242.160156 C 110.535156 242.398438 113.703125 240.601563 110.769531 236.539063 L 108.75 233.125 C 111.003906 230.789063 111.761719 227.644531 112.429688 224.640625 C 120.070313 221.902344 123.578125 219.601563 125.195313 213.691406 C 129.617188 214.628906 132.140625 213.851563 134.359375 212.851563 C 139.863281 215.855469 145.628906 216.773438 151.964844 215.773438 C 151.992188 232.652344 135.847656 235.421875 127.03125 235.039063 Z M 136.636719 211.527344 C 141.476563 208.441406 143.71875 203.421875 145.800781 198.582031 C 151.539063 200.421875 158.300781 201.179688 163.972656 199.847656 C 167.15625 208.4375 148.324219 218.683594 136.636719 211.527344 "/>
<path style=" stroke:none;fill-rule:nonzero;fill:rgb(0%,0%,0%);fill-opacity:1;" d="M 508.640625 167.632813 L 170.777344 167.730469 C 170.777344 167.730469 170.984375 583.726563 170.621094 590.28125 L 187.464844 590.28125 C 187.464844 590.28125 187.480469 194.757813 187.597656 184.195313 L 508.882813 184.273438 L 508.640625 167.632813 "/>
</g>
</svg>
