<?xml version="1.0" encoding="UTF-8"?>
<svg xmlns="http://www.w3.org/2000/svg" xmlns:xlink="http://www.w3.org/1999/xlink" width="514pt" height="362pt" viewBox="0 0 514 362" version="1.1">
<g id="surface1">
<path style=" stroke:none;fill-rule:nonzero;fill:rgb(0%,0%,0%);fill-opacity:1;" d="M 501.136719 272.789063 C 510.09375 264.734375 512.125 249.597656 501.40625 236.675781 C 508.046875 231.886719 512.023438 226.316406 513.378906 219.214844 C 511.148438 209.542969 505.125 200.121094 496.152344 194.640625 C 497.625 179.339844 496.171875 163.078125 481.597656 152.730469 C 481.597656 152.730469 498.121094 145.15625 488.886719 136.730469 C 496.578125 132.28125 507.0625 119.71875 506.929688 109.492188 C 503.289063 106.539063 497.394531 106.914063 493.199219 107.570313 C 495.832031 102.238281 497.558594 96.714844 498.78125 90.898438 C 492.84375 84.03125 478.773438 91.984375 470.441406 101.460938 C 466.449219 106.003906 462.757813 111.007813 458.59375 115.242188 C 451.460938 122.492188 443.84375 121.519531 448.222656 111.957031 C 452.214844 103.242188 455.15625 101.105469 467.023438 94.816406 C 482.234375 86.757813 501.171875 79.277344 504.214844 70.621094 C 502.570313 67.445313 499.265625 66.886719 496.253906 66.128906 C 501.550781 54.964844 506.609375 46 498.828125 27.367188 C 493.777344 15.277344 490.710938 15.578125 490.792969 4.152344 C 490.828125 -1.113281 489.3125 -0.664063 487.472656 2.511719 C 484.46875 7.695313 480.570313 18.386719 483.011719 25.9375 C 483.457031 27.308594 483.3125 28.074219 481.519531 27.925781 C 473.835938 27.28125 476.417969 34.914063 477.585938 38.273438 C 468.375 37.695313 461.128906 41.691406 453.882813 45.785156 C 452.628906 42.765625 451.882813 38.992188 450.042969 35.75 C 447.453125 31.179688 445.855469 32.453125 442.851563 35.628906 C 431.710938 47.414063 430.257813 58.003906 429.632813 73.027344 C 429.476563 76.796875 429.296875 80.484375 428.210938 84.140625 C 426.867188 88.675781 422.070313 90.488281 420.183594 85.300781 C 415.976563 73.710938 422.191406 60.664063 418.3125 48.355469 C 415.453125 39.148438 412.609375 36.363281 406.121094 42.644531 C 399.179688 49.363281 395.539063 57.058594 394.726563 64.570313 C 392.195313 62.402344 389.277344 61.140625 386.074219 60.683594 C 377.671875 75.796875 380.746094 96.65625 387.054688 112.175781 C 386.21875 113.234375 384.84375 113.304688 383.558594 113.484375 C 376.644531 114.449219 381.394531 123.59375 384.796875 130.605469 C 370.46875 123.820313 357.96875 124.175781 350.289063 130.449219 C 349.5 131.09375 348.808594 131.445313 348.359375 130.355469 C 344.871094 121.898438 331.675781 118.105469 323.734375 124.503906 C 321.601563 126.222656 319.457031 127.738281 317.140625 126.128906 C 307.328125 119.316406 285.878906 132.1875 292.53125 149.027344 C 287.976563 152.386719 283.738281 157.042969 282.203125 162.164063 C 278.742188 159.570313 274.210938 164.109375 271.613281 160.910156 C 265.558594 153.441406 251.027344 154.078125 247.464844 162.511719 C 246.464844 164.878906 244.921875 164.628906 243.191406 163.765625 C 221.234375 152.78125 191.585938 168.773438 198.359375 189.574219 C 190.660156 189.488281 179.964844 197.097656 181.691406 207.097656 C 165.019531 202.644531 145.636719 225.539063 145.035156 240.984375 C 134.246094 241.925781 121.273438 244.097656 111.355469 250.128906 C 110.285156 252.542969 112.414063 254.816406 114.234375 256.191406 C 96.835938 261.96875 78.0625 281.390625 74.453125 295.621094 C 77.6875 298.378906 81.875 298.792969 85.996094 299.070313 C 83.742188 302.296875 80.496094 306.542969 82.542969 310.214844 C 87.078125 312.757813 92.691406 313.78125 97.40625 314.71875 C 94.847656 317.851563 93.796875 321.566406 92.84375 325.28125 C 85.386719 328.578125 77.207031 329.988281 68.820313 331 C 60.085938 322.234375 52.273438 317.746094 45.894531 315.226563 C 41.730469 313.585938 43.1875 319.777344 40.992188 321.566406 C 31.441406 315.546875 14.121094 313.195313 3.5 315.269531 C -0.0859375 315.96875 -0.878906 318.207031 4.207031 319.550781 C 16.660156 322.839844 27.558594 330.921875 38.253906 339.394531 C 57.984375 355.027344 84.941406 368.113281 111.160156 349.140625 C 111.316406 353.4375 113.289063 358.8125 118.214844 360.546875 C 133.464844 352.289063 143.382813 335.289063 153.070313 320.988281 C 155.738281 317.050781 156.871094 316.792969 157.039063 321.148438 C 157.496094 332.910156 153.21875 345.464844 161.589844 350.972656 C 166.066406 350.867188 173.886719 343.109375 175.863281 341.386719 C 177.191406 346.40625 178.261719 352.097656 181.421875 357.199219 C 185.234375 363.363281 190.429688 362.132813 195.535156 357.3125 C 201.113281 352.050781 206.367188 342.976563 208.210938 337.058594 C 221.109375 348.386719 234.347656 353.605469 242.484375 349.121094 C 245.882813 347.25 248.570313 349.117188 251.300781 351.367188 C 257.683594 356.625 270.25 356.191406 272.894531 350.601563 C 301.742188 367.769531 329.160156 353.363281 330.09375 343.773438 C 330.21875 342.480469 330.445313 341.265625 331.363281 340.429688 C 335.859375 343.136719 340.304688 342.738281 343.023438 341.457031 C 344.964844 340.542969 346.5 341.433594 347.953125 342.824219 C 354.019531 348.617188 362.582031 350.480469 370.34375 346.015625 C 384.25 358.203125 409.285156 364.804688 417.90625 350.488281 C 424.050781 353.601563 432.023438 351.429688 435.714844 345.003906 C 444.351563 350.046875 500.558594 348.277344 490.15625 330.058594 C 488.394531 326.972656 490.5625 326.066406 493.257813 325.171875 C 500.804688 322.675781 505.234375 310.925781 501.484375 303.785156 C 500.246094 301.429688 500.28125 298.796875 500.714844 296.019531 C 501.691406 289.6875 503.699219 282.507813 500.1875 278.585938 C 497.988281 276.136719 499.253906 274.484375 501.136719 272.789063 Z M 481.507813 37.769531 C 487.042969 44.425781 492.925781 52.511719 491.921875 62.269531 C 491.839844 63.0625 491.558594 63.074219 491.507813 62.269531 C 490.851563 52.046875 483.570313 42.15625 480.96875 37.96875 C 480.363281 36.996094 481.019531 37.183594 481.507813 37.769531 Z M 474.769531 52.953125 C 479.835938 49.980469 480.070313 50.378906 475.398438 54.0625 C 453.738281 71.132813 419.175781 104.640625 422.824219 147.703125 L 418.148438 149.566406 C 417.773438 97.566406 451.105469 66.851563 474.769531 52.953125 Z M 412.539063 157.484375 C 423.320313 146.390625 452.507813 140.949219 475.371094 152.574219 C 476.121094 152.957031 476.078125 153.238281 475.292969 152.976563 C 458.898438 147.535156 423.683594 145.523438 408.65625 165.195313 C 407.449219 164.710938 406.234375 164.398438 405.035156 163.742188 C 408.132813 162.558594 409.863281 160.234375 412.539063 157.484375 Z M 383.507813 274.503906 C 381.390625 272.808594 379.519531 271.652344 378.292969 274.617188 C 376.066406 280.003906 369.472656 279.492188 360.472656 274.695313 C 355.828125 272.21875 351.046875 269.511719 345.636719 270.035156 C 357.488281 258.878906 383.175781 272.941406 390.03125 254.347656 C 405.351563 255.394531 418.949219 234.789063 416.601563 221.59375 C 435.417969 229.195313 430.992188 249.472656 408.46875 257.003906 C 415.398438 273.980469 395.203125 283.859375 383.507813 274.503906 Z M 309.25 256.242188 C 300.101563 256.277344 293.894531 249.207031 297.007813 245.476563 C 300.441406 253.335938 309.472656 251.746094 317.882813 252.121094 C 323.21875 252.363281 329.738281 253.363281 330.675781 258.03125 C 324.367188 253.964844 316.40625 256.214844 309.25 256.242188 Z M 324.394531 267.71875 C 321.46875 266.777344 317.179688 261.445313 315.882813 258.527344 C 319.660156 258.3125 324.460938 258.421875 328.566406 259.824219 C 332.417969 261.140625 328.351563 268.988281 324.394531 267.71875 Z M 303.925781 277.085938 C 305.941406 278.359375 308.246094 278.730469 310.457031 279.5 C 303.273438 284.488281 279.773438 275.941406 271.261719 268.53125 C 270.40625 267.785156 271.109375 267.34375 272.140625 267.867188 C 280.949219 272.328125 292.929688 277.695313 303.925781 277.085938 Z M 339.777344 209.882813 C 340.472656 210.882813 340.402344 212.09375 338.691406 213.621094 C 327.964844 203.011719 301.523438 218.886719 306.1875 228.851563 C 297.5625 222.558594 302.578125 214.945313 309.488281 210.886719 C 320.226563 204.582031 335.179688 203.246094 339.777344 209.882813 Z M 310.496094 199.195313 L 315.078125 197.734375 C 315.128906 199.820313 315.585938 201.910156 316.265625 204.21875 C 314.972656 204.835938 313.636719 205.324219 312.386719 206.070313 C 311.878906 203.695313 311.226563 201.484375 310.496094 199.195313 Z M 320.863281 196.558594 L 325.558594 196.195313 C 324.640625 198.371094 324.4375 199.957031 324.34375 202.117188 C 323.429688 202.453125 321.972656 202.820313 320.703125 203.082031 C 320.171875 200.488281 320.394531 199.0625 320.863281 196.558594 Z M 338.277344 205.027344 C 337.675781 204.835938 337.171875 204.242188 336.390625 203.996094 C 337.824219 201.15625 341.390625 199.484375 343.59375 198.757813 L 345.703125 199.527344 C 343.210938 200.742188 340.546875 202.695313 338.277344 205.027344 Z M 352.265625 204.042969 L 353.789063 205.820313 L 344.011719 207.753906 C 345.871094 204.527344 349.855469 204.398438 352.265625 204.042969 Z M 332.257813 202.039063 C 331.382813 202.144531 330.539063 202.085938 329.5625 201.910156 C 329.929688 199.472656 331.117188 197.613281 333.058594 196.09375 L 336.871094 196.675781 C 334.566406 198.351563 333.515625 200.046875 332.257813 202.039063 Z M 309.445313 233.109375 C 306.859375 233.738281 304.363281 234.476563 302.289063 236.40625 L 300.863281 234.625 C 303.035156 232.496094 305.8125 231.820313 309.445313 233.109375 Z M 304.46875 210.21875 C 302.449219 208.746094 301.210938 207.261719 298.6875 206.25 C 300.359375 204.027344 303.355469 202.6875 305.433594 201.859375 C 306.3125 203.394531 307.890625 205.675781 307.988281 207.527344 C 307.191406 208.285156 306.070313 209.175781 304.46875 210.21875 Z M 301.285156 213.417969 L 299.515625 215.941406 C 297.199219 214.671875 294.292969 214.109375 291.605469 214.945313 C 292.128906 212.988281 293.164063 211.925781 294.484375 211.507813 C 297.765625 210.46875 301.285156 213.417969 301.285156 213.417969 Z M 298.488281 221.355469 C 296.003906 221.824219 290.578125 223.820313 288.832031 224.683594 C 289.074219 217.292969 298.488281 221.355469 298.488281 221.355469 Z M 299.625 226.953125 L 300.785156 228.523438 C 298.164063 229.339844 295.507813 230.816406 292.890625 229.027344 C 294.855469 226.402344 297.082031 226.859375 299.625 226.953125 Z M 317.453125 241.304688 C 312.925781 239.265625 307.128906 239.34375 302.035156 240.007813 C 305.25 236.339844 309.738281 235.777344 314.5 235.875 C 316.292969 235.910156 316.886719 234.96875 316.859375 233.878906 C 316.652344 224.699219 327.777344 212.96875 338.78125 220.421875 C 344.398438 209.96875 353.644531 207.960938 360.648438 210.433594 C 361.3125 206.402344 367.59375 203.191406 371.75 202.785156 C 369.722656 188.695313 379.929688 179.375 388.746094 182.378906 C 395.511719 171.152344 399.066406 173.621094 399.066406 173.621094 C 396.4375 175.632813 391.855469 180.417969 389.515625 184.847656 C 378.328125 183.933594 374.140625 193.527344 373.597656 206.359375 C 368.195313 206.433594 362.84375 210.003906 361.101563 214.425781 C 352.25 209.46875 342.617188 216.132813 341.402344 222.1875 C 329.203125 219.441406 318.550781 226.441406 317.453125 241.304688 Z M 399.445313 179.71875 C 397.601563 199.621094 378.359375 239.785156 355.429688 254.40625 L 356.882813 250.785156 C 380.941406 232.367188 387.777344 204.671875 399.445313 179.71875 Z M 402.882813 167.371094 C 421.191406 169.136719 426.433594 196.445313 404.460938 212.066406 C 423.867188 225.742188 406.328125 251.886719 388.191406 251.171875 C 384.335938 261.71875 377.082031 262.695313 368.121094 262.503906 C 366.292969 262.464844 366.144531 262.167969 368.039063 261.960938 C 375.203125 261.160156 382.390625 258.746094 385.695313 251.503906 C 386.597656 249.019531 387.261719 249.226563 390.03125 248.84375 C 407.625 246.398438 417.742188 223.765625 399.871094 211.714844 C 424.335938 195.289063 414.582031 170.125 400.71875 168.949219 C 399.441406 152.921875 394.148438 141.328125 380.117188 132.066406 C 397.949219 135.730469 402.007813 155.53125 402.882813 167.371094 Z M 365.648438 162.523438 C 380.859375 150.265625 397.988281 160.957031 392.9375 171.503906 C 391.140625 158.535156 379.859375 155.78125 366.078125 162.9375 C 365.273438 163.351563 364.972656 163.066406 365.648438 162.523438 Z M 299.21875 151.726563 C 300.367188 151.847656 301.320313 151.628906 302.441406 148.753906 C 308.683594 132.742188 338.816406 131.214844 340.421875 161.8125 C 348.851563 157.070313 356.070313 160.351563 357.109375 171.074219 C 364.128906 169.363281 371.253906 174.355469 375.445313 180.222656 C 376.433594 181.601563 375.585938 182.632813 374.4375 181.46875 C 369.113281 176.058594 361.917969 173.039063 353.664063 173.820313 C 352.753906 163.304688 348.460938 161.054688 337.351563 165.4375 C 333.609375 138.09375 314.652344 131.976563 302.265625 153.828125 C 299.539063 153.234375 296.082031 152.464844 292.875 152.324219 C 294.941406 150.554688 297.269531 151.527344 299.21875 151.726563 Z M 345.492188 194.472656 L 347.476563 197.304688 C 321.191406 184.507813 279.710938 203.644531 285.96875 227.621094 L 283.875 228.046875 C 278.851563 201.363281 315.257813 183.894531 345.492188 194.472656 Z M 300.203125 237.53125 L 298.722656 238.953125 C 291.890625 230.640625 278.6875 234.238281 274.367188 236.910156 C 272.632813 237.988281 270.949219 238.660156 269.171875 237.214844 C 261.476563 230.945313 248.199219 238.574219 229.867188 237.273438 C 229.179688 237.226563 229.152344 236.878906 229.867188 236.742188 C 241.648438 234.5 259.425781 227.273438 272.070313 235.40625 C 282.40625 229.128906 293.621094 228.996094 300.203125 237.53125 Z M 238.785156 259.511719 C 237.777344 258.667969 238.308594 258.179688 239.644531 258.859375 C 247.316406 262.78125 255.210938 266.230469 264.578125 266.105469 L 268.226563 269.65625 C 255.527344 270.132813 248.84375 267.941406 238.785156 259.511719 Z M 242.570313 265.695313 C 232.675781 264.445313 219.539063 251.769531 217.058594 242.230469 C 224.261719 250.035156 232.789063 259.527344 242.570313 265.695313 Z M 266.492188 172.515625 C 267.128906 172.484375 268.0625 172.253906 268.503906 171.226563 C 269.925781 167.902344 272.710938 163.695313 277.230469 164.03125 C 272.558594 166.191406 270.519531 170.921875 269.078125 175.339844 C 244.511719 175.136719 230.191406 192.546875 254.585938 209.71875 C 248.609375 214.171875 244.125 221.441406 245.050781 228.894531 C 245.203125 230.125 244.472656 230.460938 244.105469 229.121094 C 242.511719 223.25 242.125 216.601563 249.457031 211.136719 C 251.003906 209.980469 250.546875 208.9375 248.917969 208.183594 C 235.335938 201.875 228.839844 174.359375 266.492188 172.515625 Z M 224.667969 219.769531 C 225.089844 214.960938 230.050781 202.558594 237.71875 201.257813 L 238.53125 202.34375 C 230.980469 205.945313 228.710938 215.777344 227.601563 222.691406 C 222.824219 224.054688 216.476563 228.539063 215.847656 233.949219 C 210.765625 230.773438 218.679688 222.285156 224.667969 219.769531 Z M 95.738281 349.46875 C 78.558594 350.472656 65.753906 335.347656 55.460938 324.195313 C 54.832031 323.511719 55.175781 323.265625 55.957031 323.832031 C 68.5625 332.992188 80.074219 347.605469 95.636719 348.886719 C 97.074219 349.007813 97.148438 349.386719 95.738281 349.46875 Z M 72.871094 334.84375 C 72.460938 334.25 71.984375 333.714844 71.746094 333.058594 C 102.238281 332.09375 132.078125 304.148438 166.953125 264.894531 C 168.601563 265.527344 170.074219 266.355469 171.679688 266.933594 C 136.046875 303.855469 104.40625 337.851563 72.871094 334.84375 Z M 210.265625 335 C 203.566406 327.714844 201.84375 321.519531 204.472656 314.46875 C 205.054688 312.910156 204.261719 312.546875 203.046875 312.136719 C 192.4375 308.558594 193.835938 300.308594 200.464844 295.757813 C 191.128906 292.300781 186.667969 283.351563 189.246094 276.601563 C 189.652344 275.691406 192.84375 276.65625 192.675781 277.65625 C 191.824219 285.28125 195.324219 289.347656 204.058594 295.308594 C 195.46875 300.539063 198.535156 307.277344 206.203125 309.640625 C 208.140625 310.234375 207.800781 311.835938 207.132813 313.734375 C 205.289063 318.988281 206.1875 327.246094 210.660156 334.503906 C 211.332031 335.59375 211.078125 335.882813 210.265625 335 Z M 265.597656 291.183594 C 234.707031 288.050781 148.460938 262.609375 149.34375 241.726563 C 154.753906 250.726563 170.878906 252.289063 180.09375 250.941406 C 190.566406 249.414063 203.40625 251.371094 204.78125 261.164063 C 205.035156 262.980469 206.640625 263.082031 208.089844 262.964844 C 216.75 262.257813 227.035156 265.136719 228.394531 273.648438 C 228.667969 275.359375 229.242188 276.769531 231.5 275.542969 C 245.761719 265.175781 277.429688 280.402344 285.761719 283.539063 C 297.640625 288.015625 310.050781 289.945313 320.132813 280.914063 L 324.175781 280.964844 C 322.621094 294.996094 282.789063 292.925781 265.597656 291.183594 Z M 301.878906 272.640625 C 301.09375 272.222656 301.199219 271.730469 302.089844 271.933594 C 310.625 273.890625 322.710938 276.175781 331.242188 270.625 C 344.851563 260.109375 353.019531 245.984375 356.367188 230.023438 C 356.917969 227.398438 357.351563 227.75 357.414063 230.398438 C 357.804688 247.628906 348.695313 265.730469 333.394531 274.496094 C 322.648438 280.5625 311.613281 277.8125 301.878906 272.640625 Z M 350.371094 310.996094 C 349.675781 310.933594 349.023438 310.984375 348.6875 311.796875 C 349.292969 315.058594 350.886719 318.253906 351.996094 321.472656 C 355.367188 331.253906 347.171875 338.40625 340.207031 339.808594 C 339.648438 339.921875 339.566406 339.628906 340.039063 339.394531 C 350.898438 334.109375 351.75 319.730469 344.375 310.753906 C 349.996094 309.113281 351.769531 302.242188 342.175781 297.789063 C 336.503906 295.15625 328.046875 288.023438 326.972656 280.382813 L 329.554688 279.25 C 333.785156 289.652344 345.226563 294.75 352.621094 302.738281 C 355.980469 306.363281 354.039063 311.324219 350.371094 310.996094 Z M 494.078125 302.613281 C 486.839844 309.582031 474.914063 312.066406 464.625 311.066406 C 462.574219 310.867188 461.769531 311.855469 462.597656 313.910156 C 465.398438 320.863281 461.082031 330.234375 447.550781 325.042969 C 445.839844 324.390625 444.890625 324.445313 444.121094 326.789063 C 440.007813 339.296875 410.1875 329.621094 394.328125 308.457031 C 393.378906 307.1875 393.007813 306.21875 391.167969 308.199219 C 386.621094 313.09375 375.398438 310.277344 364.804688 295.828125 C 357.765625 286.226563 345.96875 275.011719 338.089844 275.230469 L 340.515625 273.667969 C 349.402344 273.453125 357.59375 282.464844 368.328125 295.871094 C 375.054688 304.273438 386.894531 311.328125 392.078125 303.324219 C 401.902344 316.503906 441.40625 340.253906 442.417969 320.960938 C 455.328125 324.847656 464.742188 321.730469 459.203125 309.582031 C 470.925781 308.570313 484.109375 309.070313 493.792969 302.40625 C 494.363281 302.015625 494.558594 302.148438 494.078125 302.613281 Z M 488.804688 236.441406 C 487.835938 262.476563 460.289063 257.417969 456.644531 254.707031 C 455.476563 253.839844 455.121094 253.921875 454.730469 255.324219 C 451.308594 267.59375 433.679688 267.484375 422.425781 253.519531 L 423.113281 252.808594 C 434.40625 263.441406 453.570313 264.375 453.382813 250.308594 C 468.511719 259.230469 487.132813 251.488281 486.570313 233.96875 C 493.585938 234.878906 499.054688 232.503906 504.523438 230.132813 C 500.695313 235.683594 494.800781 236.160156 488.804688 236.441406 "/>
</g>
</svg>
