<?xml version="1.0" encoding="UTF-8"?>
<svg xmlns="http://www.w3.org/2000/svg" xmlns:xlink="http://www.w3.org/1999/xlink" width="526pt" height="356pt" viewBox="0 0 526 356" version="1.1">
<g id="surface1">
<path style=" stroke:none;fill-rule:nonzero;fill:rgb(0%,0%,0%);fill-opacity:1;" d="M 230.136719 183.425781 C 227.355469 183.027344 225.605469 180.886719 228.429688 179.539063 C 231.25 178.195313 232.429688 175.015625 229.792969 175.949219 C 227.15625 176.886719 224.753906 172.902344 226.589844 171.5625 C 228.421875 170.222656 227.703125 166.332031 225.285156 167.882813 C 222.863281 169.429688 219.941406 167.703125 221.050781 165.238281 C 222.152344 162.773438 219.636719 161.253906 218.234375 163.820313 C 216.839844 166.386719 213.621094 164.765625 213.121094 161.488281 C 212.621094 158.214844 210.613281 157.199219 210.015625 160.171875 C 209.421875 163.144531 207.664063 163.769531 206.46875 160.394531 C 205.269531 157.023438 203.144531 158.464844 203.503906 160.410156 C 203.863281 162.355469 200.457031 163.90625 200.171875 161.246094 C 199.886719 158.585938 196.675781 156.960938 197.066406 159.929688 C 197.460938 162.898438 195.441406 164.648438 194.941406 161.375 C 194.4375 158.101563 192.171875 158.214844 192.636719 160.464844 C 193.105469 162.714844 191.859375 163.847656 191.316406 162.316406 C 189.777344 157.976563 185.625 157.425781 186.960938 162.132813 C 188.300781 166.835938 184.199219 168.289063 181.570313 166.460938 C 178.941406 164.628906 173.960938 166.398438 177.097656 168.738281 C 180.238281 171.078125 178.796875 175.386719 174.519531 174.484375 C 170.242188 173.585938 166.5 176.984375 170.191406 178.09375 C 173.882813 179.199219 172.765625 184.429688 168.339844 184.964844 C 163.910156 185.496094 162.175781 189.910156 165.910156 189.277344 C 169.644531 188.644531 172.816406 192.007813 169.808594 193.765625 C 166.804688 195.519531 166.527344 202.179688 169.792969 199.296875 C 173.058594 196.410156 176.597656 198.953125 174.136719 202.242188 C 171.675781 205.535156 175.324219 208.382813 176.722656 205.816406 C 178.121094 203.246094 183.167969 203.53125 181.988281 206.710938 C 180.804688 209.894531 183.46875 212.746094 185.34375 209.664063 C 187.21875 206.582031 190.878906 206.667969 192.257813 209.628906 C 193.636719 212.59375 196.636719 213.601563 196.242188 210.636719 C 195.847656 207.664063 198.703125 207.34375 199.976563 210.003906 C 201.246094 212.65625 203.222656 212.648438 203.230469 209.882813 C 203.242188 207.117188 205.441406 204.953125 207.191406 207.097656 C 208.941406 209.238281 211.871094 208.199219 211.296875 205.644531 C 210.71875 203.085938 213.472656 199.691406 216.210938 201.828125 C 218.945313 203.964844 221.039063 201.496094 219.398438 199.660156 C 217.757813 197.828125 219.820313 194.335938 222.816406 195.34375 C 225.8125 196.351563 228.601563 193.980469 225.972656 192.152344 C 223.34375 190.320313 224.710938 186.730469 227.859375 186.304688 C 231.003906 185.878906 232.914063 183.820313 230.136719 183.425781 Z M 205.582031 203.949219 C 191.277344 209.019531 176.652344 204.585938 172.914063 194.046875 C 169.179688 183.503906 177.742188 170.847656 192.046875 165.777344 C 206.351563 160.703125 220.976563 165.140625 224.714844 175.679688 C 228.449219 186.21875 219.886719 198.878906 205.582031 203.949219 "/>
<path style=" stroke:none;fill-rule:nonzero;fill:rgb(0%,0%,0%);fill-opacity:1;" d="M 193.398438 169.59375 C 181.957031 173.648438 175.105469 183.777344 178.09375 192.207031 C 181.085938 200.640625 192.785156 204.1875 204.226563 200.132813 C 215.671875 196.074219 222.523438 185.949219 219.535156 177.515625 C 216.542969 169.082031 204.84375 165.535156 193.398438 169.59375 Z M 203.144531 197.078125 C 193.992188 200.324219 184.628906 197.484375 182.238281 190.738281 C 179.847656 183.992188 185.328125 175.894531 194.484375 172.648438 C 203.636719 169.402344 212.996094 172.238281 215.390625 178.984375 C 217.78125 185.730469 212.300781 193.832031 203.144531 197.078125 "/>
<path style=" stroke:none;fill-rule:nonzero;fill:rgb(0%,0%,0%);fill-opacity:1;" d="M 347.125 190.71875 C 342.683594 190.296875 341.441406 185.09375 345.105469 183.894531 C 348.765625 182.695313 344.941406 179.390625 340.6875 180.398438 C 336.433594 181.402344 334.886719 177.128906 337.96875 174.714844 C 341.046875 172.296875 336.023438 170.652344 333.441406 172.546875 C 330.859375 174.441406 326.722656 173.089844 327.945313 168.355469 C 329.167969 163.617188 325.027344 164.269531 323.597656 168.644531 C 323.09375 170.191406 321.816406 169.089844 322.230469 166.828125 C 322.640625 164.566406 320.371094 164.507813 319.949219 167.792969 C 319.53125 171.078125 317.46875 169.378906 317.789063 166.402344 C 318.109375 163.425781 314.933594 165.125 314.71875 167.792969 C 314.496094 170.460938 311.054688 168.992188 311.367188 167.039063 C 311.675781 165.085938 309.515625 163.695313 308.402344 167.097656 C 307.289063 170.5 305.515625 169.921875 304.847656 166.964844 C 304.179688 164.003906 302.195313 165.066406 301.777344 168.355469 C 301.355469 171.640625 298.183594 173.34375 296.722656 170.808594 C 295.261719 168.277344 292.777344 169.863281 293.945313 172.300781 C 295.109375 174.734375 292.234375 176.53125 289.777344 175.042969 C 287.320313 173.554688 286.695313 177.460938 288.5625 178.757813 C 290.429688 180.050781 288.125 184.089844 285.464844 183.222656 C 282.804688 182.351563 284.066406 185.503906 286.917969 186.777344 C 289.773438 188.054688 288.078125 190.238281 285.308594 190.703125 C 282.539063 191.167969 284.5 193.175781 287.65625 193.523438 C 290.8125 193.871094 292.265625 197.429688 289.683594 199.324219 C 287.101563 201.21875 289.949219 203.519531 292.917969 202.4375 C 295.890625 201.355469 298.035156 204.796875 296.441406 206.671875 C 294.847656 208.546875 297 210.960938 299.683594 208.757813 C 302.367188 206.554688 305.203125 209.878906 304.691406 212.449219 C 304.175781 215.019531 307.132813 215.988281 308.828125 213.804688 C 310.523438 211.617188 312.777344 213.726563 312.855469 216.488281 C 312.933594 219.253906 314.90625 219.214844 316.113281 216.527344 C 317.320313 213.84375 320.179688 214.09375 319.859375 217.070313 C 319.542969 220.046875 322.511719 218.964844 323.820313 215.96875 C 325.128906 212.972656 328.78125 212.796875 330.734375 215.832031 C 332.683594 218.867188 335.273438 215.949219 334.015625 212.796875 C 332.757813 209.644531 337.796875 209.238281 339.257813 211.773438 C 340.71875 214.304688 344.296875 211.367188 341.753906 208.136719 C 339.210938 204.910156 342.6875 202.28125 346.023438 205.082031 C 349.359375 207.886719 348.917969 201.234375 345.871094 199.554688 C 342.820313 197.871094 345.910156 194.429688 349.65625 194.972656 C 353.40625 195.515625 351.5625 191.144531 347.125 190.71875 Z M 342.773438 199.910156 C 339.296875 210.539063 324.785156 215.335938 310.359375 210.617188 C 295.9375 205.898438 287.0625 193.457031 290.539063 182.824219 C 294.015625 172.195313 308.527344 167.402344 322.949219 172.121094 C 337.375 176.839844 346.25 189.28125 342.773438 199.910156 "/>
<path style=" stroke:none;fill-rule:nonzero;fill:rgb(0%,0%,0%);fill-opacity:1;" d="M 321.691406 175.972656 C 310.152344 172.195313 298.542969 176.03125 295.761719 184.535156 C 292.980469 193.039063 300.078125 202.992188 311.617188 206.765625 C 323.160156 210.539063 334.769531 206.707031 337.550781 198.203125 C 340.332031 189.699219 333.230469 179.746094 321.691406 175.972656 Z M 333.371094 196.835938 C 331.144531 203.640625 321.859375 206.707031 312.628906 203.6875 C 303.394531 200.667969 297.714844 192.703125 299.941406 185.902344 C 302.164063 179.097656 311.453125 176.03125 320.683594 179.050781 C 329.914063 182.070313 335.597656 190.03125 333.371094 196.835938 "/>
<path style=" stroke:none;fill-rule:nonzero;fill:rgb(0%,0%,0%);fill-opacity:1;" d="M 430.109375 195.75 C 425.96875 200.78125 418.277344 200.1875 413.839844 194.863281 C 409.398438 189.539063 391.648438 188.945313 385.140625 181.550781 C 384.171875 180.449219 383.078125 179.671875 381.90625 179.136719 C 385.902344 176.910156 393.339844 170.597656 393.03125 163.800781 C 392.636719 155.121094 400.917969 155.910156 396.976563 143.285156 C 393.03125 130.664063 382.773438 118.828125 373.699219 120.40625 C 364.628906 121.984375 368.179688 122.378906 371.335938 124.746094 C 374.488281 127.113281 371.765625 137.996094 364.234375 137.765625 C 357.578125 137.558594 347.671875 140.746094 344.40625 143.410156 C 343.375 142.769531 342.421875 143.464844 342.242188 145.640625 C 341.914063 149.640625 340.335938 149.464844 336.324219 144.730469 C 332.3125 139.992188 327.375 140.089844 330.011719 144.035156 C 332.644531 147.976563 328.640625 155.226563 327.886719 150.53125 C 327.132813 145.832031 323.671875 146.410156 324.316406 152.445313 C 324.960938 158.476563 320.636719 155.691406 320.296875 148.730469 C 319.957031 141.773438 315.121094 141.5625 314.183594 147.417969 C 313.25 153.277344 311.8125 147.671875 307.125 141 C 302.4375 134.332031 301.722656 137.519531 302.375 142.527344 C 303.027344 147.535156 298.003906 145.890625 293.40625 139.9375 C 288.8125 133.984375 286.207031 138.953125 286.742188 146.316406 C 287.277344 153.683594 284.109375 154.359375 278.132813 148.636719 C 272.152344 142.914063 267.890625 144.945313 273.371094 151.1875 C 278.855469 157.433594 271.550781 156.757813 266.925781 154.902344 C 262.296875 153.046875 254.777344 155.035156 260.082031 158.824219 C 265.382813 162.613281 266.441406 166.382813 260.21875 166.402344 C 253.996094 166.425781 252.007813 168.511719 259.292969 171.238281 C 266.578125 173.960938 264.285156 176.980469 258.335938 180.167969 C 257.136719 180.8125 256.25 181.382813 255.609375 181.894531 C 250.25 178.808594 254.867188 178.464844 258.105469 177.652344 C 261.4375 176.816406 262.867188 175.273438 256.84375 172.230469 C 250.816406 169.1875 248.445313 166.230469 255.664063 163.324219 C 262.882813 160.421875 260.839844 158.382813 254.617188 158.515625 C 248.398438 158.648438 249.363281 154.855469 254.570313 150.9375 C 259.777344 147.019531 252.210938 145.214844 247.632813 147.183594 C 243.050781 149.152344 235.769531 150.007813 241.09375 143.628906 C 246.421875 137.253906 242.109375 135.328125 236.273438 141.195313 C 231.917969 145.574219 229.046875 146.347656 228.011719 143.394531 C 228.859375 143.179688 230.03125 142.785156 231.691406 142.105469 C 239.386719 138.949219 237.214844 125.535156 244.511719 119.816406 C 251.8125 114.097656 248.0625 100.882813 246.878906 97.726563 C 245.695313 94.570313 241.753906 92.796875 242.539063 97.921875 C 243.328125 103.050781 230.902344 106.996094 221.042969 103.050781 C 211.179688 99.105469 207.628906 107.980469 199.347656 107.390625 C 192.363281 106.890625 181.878906 117.882813 178.757813 122.765625 C 175.546875 116.910156 170.261719 111.574219 164.4375 109.953125 C 153.785156 106.996094 135.441406 115.871094 128.933594 111.136719 C 122.425781 106.402344 117.691406 108.179688 123.015625 117.054688 C 128.34375 125.929688 117.691406 139.539063 129.523438 144.863281 C 141.359375 150.191406 130.710938 156.105469 140.175781 162.617188 C 144.976563 165.914063 145.515625 169.058594 145.5 171.359375 C 142.628906 171.871094 142.941406 175.496094 147.035156 176.980469 C 152.335938 178.898438 154.777344 181.140625 149.429688 183.726563 C 144.078125 186.3125 142.679688 188.882813 147.726563 189.164063 C 152.777344 189.445313 148.957031 193.5625 140.96875 197.085938 C 132.984375 200.605469 134.027344 205.414063 139.335938 204.570313 C 144.644531 203.722656 143.421875 208.644531 140.363281 214.910156 C 137.304688 221.171875 141.265625 218.386719 144.238281 215.605469 C 147.210938 212.824219 144.808594 220.929688 143.941406 227.796875 C 143.078125 234.664063 145.214844 230.453125 149.023438 229.101563 C 152.832031 227.753906 152.75 231.234375 152.003906 235.644531 C 151.257813 240.050781 154.304688 236.554688 157.277344 233.773438 C 160.25 230.992188 161.878906 235.59375 161.613281 239.484375 C 161.34375 243.378906 164.882813 245.921875 167.5625 243.246094 C 170.242188 240.570313 171.230469 240.566406 172.242188 244.351563 C 173.253906 248.132813 173.949219 248.234375 176.085938 244.023438 C 178.21875 239.8125 182.289063 237.335938 184.941406 242.953125 C 187.59375 248.574219 187.160156 247.347656 188.492188 242.730469 C 189.824219 238.117188 193.539063 230.929688 195.714844 237.0625 C 197.890625 243.195313 200.820313 242.15625 201.71875 236.316406 C 202.617188 230.472656 206.828125 229.324219 211.640625 234.523438 C 216.453125 239.722656 219.933594 237.453125 217.207031 232.550781 C 214.480469 227.648438 219.441406 231.414063 224.40625 235.179688 C 229.367188 238.941406 232.992188 238.003906 229.539063 231.976563 C 226.082031 225.949219 226.820313 224.308594 234.226563 230.3125 C 241.632813 236.320313 243.066406 234.777344 238.804688 228.347656 C 234.546875 221.914063 234.597656 217.40625 241.023438 220.652344 C 247.453125 223.898438 248.199219 219.488281 242.910156 214.804688 C 237.621094 210.121094 239.898438 207.242188 245.304688 209.46875 C 250.714844 211.691406 253.535156 210.347656 248.464844 206.277344 C 243.390625 202.203125 246.796875 200.652344 251.695313 202.367188 C 256.59375 204.085938 259.347656 200.691406 253.871094 196.414063 C 248.398438 192.140625 250.316406 187.320313 255.65625 187.496094 C 258.261719 187.585938 259.871094 187.113281 260.140625 186.222656 C 262.425781 186.765625 263.667969 187.585938 259.34375 190.085938 C 253.292969 193.585938 254.558594 195.710938 259.894531 195.402344 C 265.226563 195.09375 267.265625 199.867188 261.898438 204.273438 C 256.53125 208.683594 259.367188 212.007813 264.222656 210.171875 C 269.074219 208.335938 272.519531 209.804688 267.550781 213.996094 C 266.089844 215.230469 265.320313 216.203125 265.074219 216.914063 C 259.527344 218.902344 250.90625 223.378906 250.628906 234.015625 C 250.230469 249.003906 241.554688 253.34375 235.242188 253.34375 C 228.929688 253.34375 228.535156 258.867188 238.792969 261.628906 C 249.050781 264.386719 260.09375 273.460938 268.378906 264.386719 C 276.660156 255.316406 272.324219 272.671875 287.3125 265.964844 C 302.300781 259.261719 302.390625 270.679688 310.585938 263.597656 C 316.707031 258.3125 318.308594 252.25 318.308594 247.609375 C 319.246094 247.296875 320.21875 245.984375 321.035156 243.476563 C 323.0625 237.289063 326.953125 244.386719 328.398438 248.96875 C 329.847656 253.546875 329.441406 254.785156 331.953125 249.101563 C 334.46875 243.417969 338.597656 245.796875 340.835938 249.953125 C 343.074219 254.109375 343.765625 253.992188 344.683594 250.183594 C 345.601563 246.375 346.589844 246.355469 349.335938 248.964844 C 352.078125 251.574219 355.554688 248.945313 355.191406 245.0625 C 354.828125 241.175781 356.34375 236.535156 359.382813 239.242188 C 362.425781 241.949219 365.558594 245.371094 364.703125 240.980469 C 363.847656 236.59375 363.679688 233.113281 367.519531 234.371094 C 371.300781 235.605469 373.523438 239.628906 372.605469 233.230469 C 377.507813 236.523438 388.277344 236.257813 395.496094 232.4375 C 400.523438 229.773438 404.371094 228.589844 418.570313 228.589844 C 432.773438 228.589844 433.363281 203.738281 434.253906 199.003906 C 435.140625 194.273438 434.253906 190.722656 430.109375 195.75 Z M 197.964844 109.558594 C 199.347656 109.757813 202.894531 109.953125 207.433594 106.796875 C 211.96875 103.644531 218.476563 104.628906 220.449219 105.613281 C 222.421875 106.601563 230.113281 106.601563 234.257813 106.402344 C 238.398438 106.207031 241.949219 103.050781 242.933594 101.671875 C 243.921875 100.289063 244.511719 99.5 245.5 101.078125 C 246.484375 102.65625 247.078125 107.785156 247.273438 111.136719 C 247.472656 114.492188 245.695313 115.28125 245.695313 112.519531 C 245.695313 109.757813 243.722656 114.292969 243.527344 117.449219 C 243.328125 120.605469 240.566406 120.210938 240.371094 117.644531 C 240.171875 115.082031 238.398438 117.054688 238.597656 121.589844 C 238.792969 126.128906 237.414063 127.3125 236.230469 122.773438 C 235.046875 118.238281 234.058594 123.957031 235.242188 128.101563 C 236.425781 132.242188 235.046875 135.199219 233.46875 138.160156 C 232.246094 140.449219 229.257813 140.730469 227.601563 140.738281 C 227.585938 140.226563 227.582031 139.6875 227.609375 139.089844 C 227.964844 131.710938 225.234375 126.808594 220.789063 132.875 C 216.34375 138.941406 211.359375 140.707031 211.890625 135.683594 C 212.117188 133.53125 212.097656 131.730469 211.648438 130.894531 C 214.503906 130.710938 216.453125 130.058594 217.726563 128.367188 C 219.699219 125.742188 219.109375 125.699219 217.617188 127.171875 C 215.632813 129.132813 212.679688 129.777344 207.929688 129.824219 C 203.882813 129.863281 202.164063 129.503906 200.453125 130.277344 C 205.472656 125.105469 211.457031 119.238281 218.855469 118.066406 C 223.414063 117.34375 227.5625 115.640625 218.171875 116.929688 C 211.03125 117.910156 202.839844 125.550781 198.835938 129.820313 C 198.867188 128.789063 198.8125 126.917969 198.246094 124.363281 C 197.289063 120.058594 197.65625 116.214844 200.386719 114.039063 C 203.117188 111.867188 202.039063 110.40625 199.65625 113.195313 C 197.277344 115.988281 195.601563 117.25 196.394531 122.648438 C 197.390625 129.460938 198.320313 129.992188 196.457031 132.539063 C 194.261719 135.542969 195.1875 136.402344 197.789063 133.230469 C 199.699219 130.910156 200.785156 130.65625 206.074219 130.871094 C 207.445313 130.929688 208.675781 130.960938 209.804688 130.953125 C 209.105469 131.535156 208.21875 132.601563 207.101563 134.273438 C 202.578125 141.058594 201.28125 146.695313 200.203125 140.863281 C 199.121094 135.03125 194.292969 135.363281 194.125 142.328125 C 193.953125 149.292969 189.703125 152.183594 190.195313 146.136719 C 190.691406 140.09375 187.21875 139.597656 186.582031 144.3125 C 185.945313 149.027344 181.761719 141.878906 184.296875 137.871094 C 186.011719 135.164063 184.308594 134.304688 181.824219 135.519531 C 182.34375 132.367188 181.480469 128.410156 179.664063 124.542969 C 182.324219 120.890625 192.65625 108.800781 197.964844 109.558594 Z M 151.023438 170.503906 C 147.671875 171.492188 145.894531 165.769531 144.515625 163.800781 C 143.136719 161.828125 140.769531 161.433594 142.347656 156.699219 C 143.921875 151.964844 140.769531 155.515625 139.191406 158.277344 C 137.613281 161.039063 137.414063 153.542969 138.796875 149.796875 C 140.175781 146.046875 138.796875 145.652344 137.21875 148.808594 C 135.640625 151.964844 135.640625 146.640625 136.824219 141.710938 C 138.007813 136.777344 136.230469 138.75 134.652344 143.484375 C 133.074219 148.21875 130.3125 142.695313 131.695313 138.355469 C 133.074219 134.015625 131.496094 132.835938 129.328125 139.144531 C 127.160156 145.457031 125.976563 138.554688 126.371094 133.226563 C 126.765625 127.902344 126.960938 120.011719 125.777344 116.464844 C 124.59375 112.914063 126.171875 112.125 132.089844 114.492188 C 138.007813 116.855469 151.023438 112.519531 157.335938 111.925781 C 163.648438 111.335938 169.5625 114.6875 173.113281 118.632813 C 176.597656 122.503906 179.425781 132.636719 179.230469 134.410156 C 179.230469 134.410156 178.835938 135.59375 177.257813 137.566406 C 175.679688 139.539063 173.507813 142.105469 173.3125 140.132813 C 173.113281 138.160156 173.113281 136.976563 171.140625 136.1875 C 169.171875 135.398438 167 140.722656 166.015625 143.285156 C 165.503906 144.609375 165.257813 146.503906 165.03125 147.925781 C 164.347656 146.597656 162.96875 144.253906 160.886719 140.921875 C 159.214844 138.242188 160.179688 137.78125 161.675781 131.058594 C 162.859375 125.734375 161.28125 124.351563 159.109375 121.394531 C 156.941406 118.4375 155.757813 119.816406 158.320313 122.183594 C 160.886719 124.550781 160.96875 128.410156 159.703125 132.636719 C 158.949219 135.140625 158.757813 137.003906 158.714844 138.03125 C 155.035156 133.480469 147.421875 125.261719 140.371094 123.761719 C 131.101563 121.789063 135.113281 123.789063 139.609375 124.84375 C 146.902344 126.554688 152.4375 132.847656 157.066406 138.371094 C 155.417969 137.472656 153.675781 137.707031 149.644531 137.371094 C 144.910156 136.976563 142.011719 136.117188 140.175781 134.015625 C 138.796875 132.4375 138.203125 132.4375 139.980469 135.199219 C 141.753906 137.960938 145.304688 138.355469 151.417969 138.554688 C 156.707031 138.722656 157.773438 139.054688 159.503906 141.511719 C 162.222656 145.359375 164.015625 147.726563 164.898438 148.695313 C 164.726563 149.585938 164.539063 150.097656 164.238281 149.796875 C 163.449219 149.007813 162.859375 145.0625 159.109375 146.640625 C 154.925781 148.402344 158.519531 154.332031 159.898438 157.289063 C 161.28125 160.25 159.703125 161.828125 156.152344 160.839844 C 152.601563 159.855469 150.828125 161.234375 153.191406 164.980469 C 155.5625 168.730469 154.378906 169.519531 151.023438 170.503906 Z M 251.382813 186.597656 C 248.199219 185.996094 246.0625 190.207031 249.34375 193.878906 C 252.625 197.550781 250.53125 200.019531 246.839844 198.910156 C 243.148438 197.800781 239.960938 199.96875 242.914063 202.71875 C 245.867188 205.46875 245.71875 206.90625 240.050781 205.804688 C 234.382813 204.707031 234.808594 208.699219 238.710938 213.1875 C 242.609375 217.675781 240.664063 218.710938 236.648438 216.679688 C 232.632813 214.652344 230.210938 216.199219 233.808594 223.558594 C 237.40625 230.914063 233.171875 228.269531 229.089844 224.195313 C 225.003906 220.117188 223.277344 221.765625 225.269531 228.3125 C 227.261719 234.855469 222.914063 231.90625 219.929688 228.132813 C 216.941406 224.359375 211.238281 222.234375 213.414063 228.371094 C 215.589844 234.503906 211.574219 232.476563 208.878906 228.597656 C 206.183594 224.71875 204.265625 229.542969 202.558594 225.660156 C 200.851563 221.777344 198.199219 216.15625 197.363281 214.726563 C 196.527344 213.296875 193.964844 213.515625 195.605469 215.347656 C 197.246094 217.183594 199.671875 224.957031 200.496094 229.152344 C 201.324219 233.347656 196.636719 235.007813 194.453125 231.640625 C 192.269531 228.269531 190.066406 230.433594 188.519531 234.4375 C 186.96875 238.4375 185.210938 239.0625 184.523438 236.195313 C 183.839844 233.332031 178.757813 232.027344 177.792969 235.820313 C 176.828125 239.613281 174.410156 241.164063 174.019531 238.195313 C 173.625 235.226563 171.398438 233.597656 168.863281 237.605469 C 166.324219 241.613281 164.023438 240.703125 164.777344 233.53125 C 165.53125 226.355469 163.121094 225.140625 158.71875 229.464844 C 154.3125 233.785156 154.246094 231.738281 155.253906 226.203125 C 156.257813 220.667969 152.992188 223.550781 151.269531 225.199219 C 149.542969 226.847656 147.601563 227.878906 147.609375 225.113281 C 147.648438 213.734375 150.324219 207.664063 163.519531 203.9375 C 168.316406 202.578125 168.285156 201.558594 161 202.410156 C 153.71875 203.269531 150.570313 206.660156 147.035156 210.472656 C 144.648438 213.042969 144.484375 207.921875 147.859375 205.347656 C 151.230469 202.769531 151.9375 200.101563 146.660156 201.972656 C 141.386719 203.84375 139.3125 200.78125 147.59375 197.152344 C 155.871094 193.527344 155.230469 188.921875 152.851563 188.726563 C 150.472656 188.535156 149.3125 186.1875 153.964844 183.5 C 158.621094 180.8125 158.664063 179.070313 155.265625 177.859375 C 151.867188 176.648438 151.800781 174.597656 155.425781 173.660156 C 159.050781 172.71875 161.285156 171.582031 158.546875 169.445313 C 155.8125 167.308594 157.394531 164.328125 160.867188 164.824219 C 164.34375 165.316406 164.503906 161.117188 162.902344 157.539063 C 161.304688 153.964844 160 150.285156 163.214844 151.90625 C 166.429688 153.527344 168.824219 148.191406 169.789063 144.394531 C 170.753906 140.601563 173.632813 144.070313 173.328125 146.9375 C 173.027344 149.808594 173.996094 155.335938 178.515625 160.636719 C 183.035156 165.941406 183.226563 162.765625 179.21875 157.972656 C 175.210938 153.179688 175.746094 145.390625 176.5625 143.03125 C 177.375 140.671875 180.855469 138.402344 180.335938 140.65625 C 179.816406 142.910156 180.972656 147.265625 183.566406 148.835938 C 186.085938 150.359375 187.785156 144.921875 188.570313 150.859375 C 189.355469 156.792969 195.3125 148.46875 196.089844 145.085938 C 196.871094 141.699219 196.878906 138.933594 199.457031 145.273438 C 202.03125 151.609375 205.5 142.785156 206.683594 139.601563 C 207.863281 136.421875 209.445313 133.441406 210.015625 138.765625 C 210.582031 144.089844 217.289063 140.675781 220.519531 136.769531 C 223.753906 132.859375 225.25 133.363281 225.417969 138.484375 C 225.582031 143.605469 221.605469 151.921875 218.371094 155.828125 C 215.140625 159.738281 218.101563 159.722656 220.75 156.023438 C 223.394531 152.320313 229.40625 148.808594 233.367188 146.023438 C 237.328125 143.238281 238.824219 143.742188 236.214844 148.46875 C 233.601563 153.191406 241.839844 151.308594 245.648438 149.957031 C 249.457031 148.605469 253.148438 149.714844 249.699219 153.011719 C 246.246094 156.304688 245.945313 159.175781 251.503906 159.964844 C 257.0625 160.757813 253.839844 161.898438 249.660156 164.070313 C 245.484375 166.242188 245.28125 172.183594 252.664063 174.402344 C 260.046875 176.617188 252.871094 177.78125 249.539063 178.617188 C 246.210938 179.453125 239.402344 179.792969 234.976563 180.328125 C 230.546875 180.863281 233.175781 182.691406 235.226563 181.964844 C 237.277344 181.238281 244.59375 181.40625 248.871094 182.308594 C 253.148438 183.207031 254.5625 187.195313 251.382813 186.597656 Z M 363.542969 139.242188 C 370.902344 139.242188 378.0625 129.570313 373.308594 124.449219 C 371.382813 122.378906 371.828125 121.789063 374.34375 122.085938 C 376.855469 122.378906 381.886719 122.230469 386.472656 128.742188 C 391.058594 135.25 393.277344 138.800781 388.394531 137.320313 C 383.511719 135.839844 384.550781 137.46875 389.132813 139.097656 C 393.71875 140.722656 399.046875 145.160156 393.867188 144.125 C 388.691406 143.089844 388.839844 144.125 392.242188 145.308594 C 395.644531 146.492188 396.679688 150.929688 392.980469 149.597656 C 389.28125 148.265625 387.65625 149.746094 391.5 151.078125 C 395.347656 152.410156 396.382813 156.402344 390.910156 155.070313 C 385.4375 153.738281 386.175781 155.21875 389.875 156.847656 C 393.570313 158.472656 392.980469 160.988281 390.761719 161.578125 C 388.542969 162.171875 383.660156 162.910156 386.769531 163.355469 C 389.875 163.800781 390.761719 164.539063 390.464844 166.3125 C 390.171875 168.089844 389.875 173.117188 386.175781 173.265625 C 382.476563 173.414063 375.96875 174.152344 380.40625 174.746094 C 384.84375 175.335938 384.550781 175.929688 381.738281 177.113281 C 380.738281 177.535156 380.1875 178.015625 379.882813 178.464844 C 377.160156 177.863281 374.195313 178.292969 371.496094 179.097656 C 371.953125 177.179688 370.097656 175.570313 366.289063 177.128906 C 360.246094 179.605469 357.828125 172.992188 360.816406 169.859375 C 362.703125 167.878906 362.527344 167.007813 360.820313 166.890625 C 361.703125 166.257813 362.867188 165.351563 364.335938 164.136719 C 366.761719 162.117188 367.347656 163.015625 374.210938 163.597656 C 379.648438 164.058594 380.804688 162.308594 383.445313 159.761719 C 386.089844 157.214844 384.5625 156.230469 382.558594 159.085938 C 380.554688 161.945313 376.738281 162.542969 372.382813 161.855469 C 369.800781 161.445313 367.933594 161.503906 366.90625 161.597656 C 370.921875 157.339844 378.050781 148.695313 378.59375 141.511719 C 379.308594 132.058594 377.859375 136.304688 377.414063 140.898438 C 376.695313 148.355469 371.203125 154.683594 366.347656 160.007813 C 367.015625 158.253906 366.554688 156.558594 366.347656 152.519531 C 366.105469 147.773438 366.566406 144.789063 368.402344 142.6875 C 369.78125 141.109375 369.703125 140.523438 367.203125 142.652344 C 364.703125 144.78125 364.789063 148.351563 365.410156 154.4375 C 365.949219 159.699219 365.765625 160.800781 363.5625 162.847656 C 361.554688 164.714844 360.226563 166.070313 359.511719 166.917969 C 358.652344 166.988281 357.609375 167.148438 356.390625 167.386719 C 351.148438 168.410156 353.855469 163.132813 355.769531 158.28125 C 357.6875 153.429688 355.152344 149.175781 352.554688 153.121094 C 349.953125 157.0625 348.011719 153.003906 346.769531 147.804688 C 346.492188 146.65625 346.132813 145.726563 345.738281 144.996094 C 348.445313 142.800781 354.8125 139.242188 363.542969 139.242188 Z M 315.765625 253.886719 C 312.144531 262.628906 302.128906 267.855469 306.148438 259.507813 C 308.070313 255.511719 304.371094 260.691406 303.042969 262.316406 C 301.710938 263.945313 294.019531 263.351563 297.273438 260.691406 C 300.527344 258.027344 296.828125 259.210938 292.984375 261.578125 C 289.136719 263.945313 285.882813 264.09375 289.433594 259.65625 C 292.984375 255.21875 287.511719 259.0625 285.144531 262.316406 C 282.777344 265.570313 278.339844 266.605469 277.15625 262.910156 C 275.972656 259.210938 271.535156 259.0625 267.6875 262.023438 C 263.84375 264.980469 261.328125 265.867188 255.707031 264.980469 C 249.992188 264.078125 244.316406 260.839844 238.25 258.617188 C 232.1875 256.402344 230.558594 254.773438 237.066406 254.921875 C 243.574219 255.070313 250.527344 246.339844 250.824219 242.496094 C 251.121094 238.648438 252.894531 230.515625 254.816406 226.519531 C 256.742188 222.523438 262.65625 219.566406 264.136719 218.53125 C 264.136719 218.53125 269.316406 218.234375 273.011719 216.460938 C 276.964844 214.566406 275.824219 217.644531 271.535156 223.855469 C 267.242188 230.070313 272.71875 229.035156 277.15625 227.554688 C 281.59375 226.074219 280.410156 230.660156 277.894531 235.988281 C 277.535156 236.75 277.253906 237.40625 277.035156 237.972656 C 276.269531 237.824219 275.199219 237.664063 273.746094 237.472656 C 272.441406 237.300781 271.160156 235.558594 268.144531 233.503906 C 263.632813 230.4375 261.765625 231.394531 258.214844 232.320313 C 254.664063 233.242188 255.511719 234.851563 258.65625 233.34375 C 261.804688 231.835938 265.421875 233.183594 268.882813 235.921875 C 270.929688 237.542969 272.589844 238.410156 273.53125 238.832031 C 267.941406 240.570313 257.492188 244.609375 253.496094 250.605469 C 248.238281 258.492188 251.582031 255.503906 254.222656 251.714844 C 258.503906 245.570313 266.394531 242.746094 273.238281 240.488281 C 271.792969 241.6875 271.367188 243.394531 269.566406 247.015625 C 267.449219 251.269531 265.582031 253.644531 262.953125 254.578125 C 260.976563 255.277344 260.757813 255.828125 263.980469 255.195313 C 267.203125 254.566406 268.878906 251.414063 271.320313 245.804688 C 272.355469 243.425781 272.785156 241.679688 273.839844 241.089844 C 274.796875 240.554688 275.726563 240.132813 276.511719 239.785156 C 276.089844 242.714844 280.070313 239.460938 282.332031 237.761719 C 288.839844 232.878906 289.730469 231.992188 286.621094 239.683594 C 283.515625 247.378906 292.539063 242.347656 295.644531 239.535156 C 300.613281 235.039063 301.769531 234.613281 299.046875 240.425781 C 296.828125 245.15625 301.414063 244.863281 302.597656 243.53125 C 303.78125 242.199219 307.921875 237.910156 310.882813 237.910156 C 313.839844 237.910156 314.726563 242.199219 315.46875 244.566406 C 316.207031 246.933594 317.539063 249.597656 315.765625 253.886719 Z M 369.046875 215.695313 C 365.421875 211.976563 362.191406 208.660156 354.890625 207.980469 C 347.585938 207.304688 347.578125 208.332031 352.40625 209.566406 C 365.691406 212.96875 368.519531 218.976563 368.835938 230.347656 C 368.910156 233.113281 366.945313 232.128906 365.179688 230.523438 C 363.414063 228.917969 360.078125 226.117188 361.222656 231.625 C 362.363281 237.132813 362.347656 239.183594 357.839844 234.96875 C 353.328125 230.753906 350.949219 232.03125 351.878906 239.183594 C 352.8125 246.335938 350.53125 247.304688 347.898438 243.359375 C 345.261719 239.414063 343.078125 241.097656 342.757813 244.074219 C 342.4375 247.050781 339.980469 245.5625 338.921875 241.792969 C 337.867188 238.023438 332.820313 239.453125 332.203125 242.335938 C 331.589844 245.214844 329.816406 244.636719 328.167969 240.671875 C 326.519531 236.710938 324.265625 234.605469 322.164063 238.023438 C 320.066406 241.445313 315.339844 239.902344 316.0625 235.6875 C 316.785156 231.472656 319.019531 223.644531 320.613281 221.769531 C 322.210938 219.890625 319.644531 219.738281 318.839844 221.1875 C 318.039063 222.636719 315.527344 228.320313 313.914063 232.246094 C 312.304688 236.171875 310.269531 231.394531 307.671875 235.339844 C 305.074219 239.28125 301.105469 241.410156 303.128906 235.222656 C 305.152344 229.035156 299.507813 231.300781 296.613281 235.144531 C 293.71875 238.992188 289.449219 242.046875 291.277344 235.453125 C 293.105469 228.863281 291.34375 227.257813 287.359375 231.433594 C 283.378906 235.609375 279.207031 238.355469 282.625 230.914063 C 286.039063 223.46875 283.582031 221.980469 279.617188 224.109375 C 275.648438 226.234375 273.683594 225.25 277.46875 220.667969 C 281.257813 216.085938 281.585938 212.085938 275.949219 213.320313 C 270.308594 214.558594 270.121094 213.128906 273.007813 210.304688 C 275.894531 207.484375 272.652344 205.394531 268.988281 206.59375 C 265.328125 207.792969 263.171875 205.378906 266.363281 201.625 C 269.550781 197.875 267.3125 193.71875 264.148438 194.394531 C 260.980469 195.074219 262.296875 191.050781 266.550781 190.046875 C 270.804688 189.039063 278.117188 188.691406 280.183594 189.367188 C 282.253906 190.046875 284.835938 188.152344 280.394531 187.726563 C 275.953125 187.300781 269.140625 187.128906 265.789063 186.371094 C 262.4375 185.621094 256.714844 183.484375 264.039063 181.085938 C 271.363281 178.6875 269.539063 173.90625 265.3125 171.835938 C 261.082031 169.769531 257.832031 168.703125 263.367188 167.777344 C 268.90625 166.847656 268.53125 163.988281 265.003906 160.777344 C 261.472656 157.570313 265.136719 156.371094 268.976563 157.628906 C 272.820313 158.882813 281.101563 160.566406 278.371094 155.90625 C 275.644531 151.246094 277.128906 150.707031 281.15625 153.394531 C 285.183594 156.078125 291.28125 159.441406 294.015625 163.078125 C 296.753906 166.710938 299.714844 166.652344 296.390625 162.824219 C 293.0625 159 288.878906 150.78125 288.921875 145.660156 C 288.960938 140.535156 290.445313 139.996094 293.773438 143.824219 C 297.101563 147.652344 303.886719 150.898438 304.324219 145.5625 C 304.761719 140.226563 306.417969 143.164063 307.675781 146.316406 C 308.9375 149.46875 312.621094 158.203125 315.039063 151.808594 C 317.460938 145.40625 317.535156 148.171875 318.398438 151.535156 C 319.261719 154.898438 325.417969 163.078125 326.058594 157.121094 C 326.695313 151.167969 328.53125 156.5625 331.011719 154.976563 C 333.566406 153.34375 334.613281 148.964844 334.039063 146.722656 C 333.464844 144.480469 337.003906 146.664063 337.871094 149.003906 C 338.742188 151.339844 339.472656 159.113281 335.582031 164.003906 C 331.691406 168.894531 331.964844 172.066406 336.351563 166.652344 C 340.738281 161.238281 341.570313 155.691406 341.199219 152.828125 C 340.828125 149.96875 343.621094 146.429688 344.675781 150.199219 C 345.734375 153.96875 348.257813 159.246094 351.433594 157.546875 C 354.605469 155.84375 353.390625 159.558594 351.882813 163.171875 C 350.371094 166.785156 350.636719 170.980469 354.097656 170.402344 C 357.558594 169.820313 359.214844 172.761719 356.53125 174.964844 C 353.847656 177.167969 356.109375 178.25 359.757813 179.101563 C 363.402344 179.953125 363.386719 182 360.019531 183.296875 C 356.652344 184.589844 356.738281 186.332031 361.457031 188.902344 C 366.175781 191.472656 365.070313 193.851563 362.699219 194.101563 C 360.328125 194.355469 359.796875 198.972656 368.164063 202.394531 C 376.53125 205.816406 374.53125 208.929688 369.214844 207.1875 C 363.894531 205.449219 364.664063 208.097656 368.101563 210.59375 C 371.535156 213.085938 371.496094 218.207031 369.046875 215.695313 Z M 422.714844 224.746094 C 418.503906 227.082031 418.570313 225.632813 419.460938 221.195313 C 420.347656 216.757813 417.683594 216.164063 417.386719 221.785156 C 417.09375 227.40625 406.441406 228 409.695313 223.855469 C 412.949219 219.714844 409.105469 221.785156 405.257813 225.929688 C 401.410156 230.070313 401.410156 225.632813 402.890625 220.011719 C 404.371094 214.390625 400.820313 214.980469 400.820313 218.234375 C 400.820313 221.488281 401.226563 228.933594 389.875 232.4375 C 379.703125 235.574219 374.351563 231.933594 371.867188 229.050781 C 370.757813 223.460938 369.5 218.558594 371.972656 220.761719 C 375.011719 223.464844 379.039063 226.152344 375.828125 219.96875 C 372.617188 213.78125 371.273438 208.890625 376.601563 209.605469 C 380.355469 210.109375 381.90625 207.855469 379.679688 205.320313 C 382.539063 204.910156 383.550781 205.492188 387.269531 209.128906 C 391.644531 213.40625 394.386719 215.699219 397.605469 215.070313 C 400.828125 214.441406 400.421875 214.011719 398.324219 214.109375 C 395.539063 214.234375 392.914063 212.738281 389.355469 209.59375 C 386.320313 206.914063 385.28125 205.496094 383.496094 204.929688 C 390.6875 204.445313 399.058594 204.089844 405.339844 208.171875 C 409.210938 210.6875 413.429688 212.195313 405.59375 206.867188 C 399.632813 202.816406 388.433594 203.007813 382.597656 203.503906 C 383.3125 202.757813 384.523438 201.328125 385.8125 199.054688 C 387.984375 195.21875 390.832031 192.605469 394.3125 192.820313 C 397.796875 193.03125 397.972656 191.222656 394.335938 191.703125 C 390.699219 192.183594 388.613281 192 385.585938 196.539063 C 381.765625 202.269531 382.101563 203.289063 379.011719 203.933594 C 378.765625 203.984375 378.539063 204.039063 378.328125 204.09375 C 377.425781 203.429688 376.257813 202.769531 374.78125 202.164063 C 366.710938 198.839844 362.792969 194.816406 367.832031 194.410156 C 372.871094 194.003906 371.410156 191.472656 365.996094 189.019531 C 362.351563 187.363281 362.253906 185.78125 364.179688 184.296875 C 367.316406 182.738281 372.328125 180.464844 374.488281 180.660156 C 377.566406 180.941406 381.589844 180.660156 384.253906 183.621094 C 386.914063 186.578125 395.496094 190.425781 400.230469 191.3125 C 404.964844 192.199219 410.585938 194.273438 414.132813 198.414063 C 417.683594 202.554688 425.671875 201.667969 428.039063 200.1875 C 430.40625 198.710938 431.589844 196.640625 431.589844 201.964844 C 431.589844 207.289063 428.039063 221.785156 422.714844 224.746094 "/>
<path style=" stroke:none;fill-rule:nonzero;fill:rgb(0%,0%,0%);fill-opacity:1;" d="M 263.890625 22.179688 C 265.277344 22.179688 266.402344 21.058594 266.402344 19.671875 C 266.402344 18.285156 265.277344 17.160156 263.890625 17.160156 C 262.503906 17.160156 261.382813 18.285156 261.382813 19.671875 C 261.382813 21.058594 262.503906 22.179688 263.890625 22.179688 "/>
<path style=" stroke:none;fill-rule:nonzero;fill:rgb(0%,0%,0%);fill-opacity:1;" d="M 274.148438 33.71875 C 275.535156 33.71875 276.65625 32.59375 276.65625 31.210938 C 276.65625 29.820313 275.535156 28.699219 274.148438 28.699219 C 272.761719 28.699219 271.636719 29.820313 271.636719 31.210938 C 271.636719 32.59375 272.761719 33.71875 274.148438 33.71875 "/>
<path style=" stroke:none;fill-rule:nonzero;fill:rgb(0%,0%,0%);fill-opacity:1;" d="M 254.027344 35.101563 C 255.414063 35.101563 256.539063 33.976563 256.539063 32.589844 C 256.539063 31.203125 255.414063 30.078125 254.027344 30.078125 C 252.644531 30.078125 251.519531 31.203125 251.519531 32.589844 C 251.519531 33.976563 252.644531 35.101563 254.027344 35.101563 "/>
<path style=" stroke:none;fill-rule:nonzero;fill:rgb(0%,0%,0%);fill-opacity:1;" d="M 263.890625 334.433594 C 262.503906 334.433594 261.382813 335.554688 261.382813 336.941406 C 261.382813 338.328125 262.503906 339.453125 263.890625 339.453125 C 265.277344 339.453125 266.402344 338.328125 266.402344 336.941406 C 266.402344 335.554688 265.277344 334.433594 263.890625 334.433594 "/>
<path style=" stroke:none;fill-rule:nonzero;fill:rgb(0%,0%,0%);fill-opacity:1;" d="M 274.148438 322.894531 C 272.761719 322.894531 271.636719 324.019531 271.636719 325.40625 C 271.636719 326.789063 272.761719 327.914063 274.148438 327.914063 C 275.535156 327.914063 276.65625 326.789063 276.65625 325.40625 C 276.65625 324.019531 275.535156 322.894531 274.148438 322.894531 "/>
<path style=" stroke:none;fill-rule:nonzero;fill:rgb(0%,0%,0%);fill-opacity:1;" d="M 254.027344 321.515625 C 252.644531 321.515625 251.519531 322.636719 251.519531 324.023438 C 251.519531 325.410156 252.644531 326.535156 254.027344 326.535156 C 255.414063 326.535156 256.539063 325.410156 256.539063 324.023438 C 256.539063 322.636719 255.414063 321.515625 254.027344 321.515625 "/>
<path style=" stroke:none;fill-rule:nonzero;fill:rgb(0%,0%,0%);fill-opacity:1;" d="M 19.832031 176.761719 C 18.445313 176.761719 17.324219 177.886719 17.324219 179.273438 C 17.324219 180.660156 18.445313 181.785156 19.832031 181.785156 C 21.21875 181.785156 22.34375 180.660156 22.34375 179.273438 C 22.34375 177.886719 21.21875 176.761719 19.832031 176.761719 "/>
<path style=" stroke:none;fill-rule:nonzero;fill:rgb(0%,0%,0%);fill-opacity:1;" d="M 31.371094 171.527344 C 32.757813 171.527344 33.882813 170.402344 33.882813 169.015625 C 33.882813 167.632813 32.757813 166.507813 31.371094 166.507813 C 29.984375 166.507813 28.859375 167.632813 28.859375 169.015625 C 28.859375 170.402344 29.984375 171.527344 31.371094 171.527344 "/>
<path style=" stroke:none;fill-rule:nonzero;fill:rgb(0%,0%,0%);fill-opacity:1;" d="M 32.753906 186.625 C 31.367188 186.625 30.242188 187.746094 30.242188 189.136719 C 30.242188 190.519531 31.367188 191.644531 32.753906 191.644531 C 34.136719 191.644531 35.261719 190.519531 35.261719 189.136719 C 35.261719 187.746094 34.136719 186.625 32.753906 186.625 "/>
<path style=" stroke:none;fill-rule:nonzero;fill:rgb(0%,0%,0%);fill-opacity:1;" d="M 508.699219 181.785156 C 510.085938 181.785156 511.210938 180.660156 511.210938 179.273438 C 511.210938 177.886719 510.085938 176.761719 508.699219 176.761719 C 507.3125 176.761719 506.1875 177.886719 506.1875 179.273438 C 506.1875 180.660156 507.3125 181.785156 508.699219 181.785156 "/>
<path style=" stroke:none;fill-rule:nonzero;fill:rgb(0%,0%,0%);fill-opacity:1;" d="M 497.160156 171.527344 C 498.546875 171.527344 499.671875 170.402344 499.671875 169.015625 C 499.671875 167.632813 498.546875 166.507813 497.160156 166.507813 C 495.773438 166.507813 494.648438 167.632813 494.648438 169.015625 C 494.648438 170.402344 495.773438 171.527344 497.160156 171.527344 "/>
<path style=" stroke:none;fill-rule:nonzero;fill:rgb(0%,0%,0%);fill-opacity:1;" d="M 495.78125 186.625 C 494.394531 186.625 493.269531 187.746094 493.269531 189.136719 C 493.269531 190.519531 494.394531 191.644531 495.78125 191.644531 C 497.164063 191.644531 498.289063 190.519531 498.289063 189.136719 C 498.289063 187.746094 497.164063 186.625 495.78125 186.625 "/>
<path style=" stroke:none;fill-rule:nonzero;fill:rgb(0%,0%,0%);fill-opacity:1;" d="M 456.980469 142.496094 C 437.613281 108.386719 391.542969 81.210938 332.941406 69.109375 L 264.433594 0.601563 L 195.925781 69.109375 C 137.324219 81.210938 91.253906 108.386719 71.886719 142.496094 L 0.535156 142.496094 L 0.535156 211.136719 L 69.976563 211.136719 C 88.238281 247.195313 136.078125 276.019531 197.40625 288.375 L 264.433594 355.398438 L 331.460938 288.375 C 392.789063 276.019531 440.628906 247.195313 458.890625 211.136719 L 525.964844 211.136719 L 525.964844 142.496094 Z M 264.433594 9.070313 L 324.195313 68.238281 C 324.195313 68.238281 295.605469 62.914063 267.070313 62.359375 C 269.089844 60.761719 271.808594 57.523438 274.515625 53.300781 C 279.113281 46.109375 281.914063 38.824219 280.761719 37.027344 C 279.613281 35.230469 274.949219 39.601563 270.347656 46.789063 C 269.171875 48.632813 268.113281 50.476563 267.207031 52.238281 C 267.347656 50.097656 267.425781 47.761719 267.425781 45.3125 C 267.425781 35.144531 266.105469 26.902344 264.480469 26.902344 C 262.851563 26.902344 261.53125 35.144531 261.53125 45.3125 C 261.53125 47.167969 261.578125 48.957031 261.660156 50.648438 C 260.960938 49.378906 260.195313 48.085938 259.367188 46.789063 C 254.765625 39.601563 250.101563 35.230469 248.953125 37.027344 C 247.800781 38.824219 250.601563 46.109375 255.199219 53.300781 C 257.890625 57.503906 260.589844 60.710938 262.605469 62.316406 C 234 62.339844 205.261719 68.535156 205.261719 68.535156 Z M 262.90625 46.199219 C 262.90625 39.730469 263.65625 34.484375 264.582031 34.484375 C 265.507813 34.484375 266.253906 39.730469 266.253906 46.199219 C 266.253906 52.667969 265.507813 57.914063 264.582031 57.914063 C 263.65625 57.914063 262.90625 52.667969 262.90625 46.199219 Z M 263.519531 60.699219 C 262.742188 61.199219 259.273438 57.195313 255.769531 51.757813 C 252.265625 46.316406 250.054688 41.503906 250.832031 41.003906 C 251.609375 40.503906 255.078125 44.507813 258.582031 49.945313 C 262.085938 55.382813 264.296875 60.199219 263.519531 60.699219 Z M 270.5625 49.796875 C 274.0625 44.359375 277.535156 40.355469 278.3125 40.855469 C 279.089844 41.355469 276.878906 46.171875 273.375 51.609375 C 269.871094 57.050781 266.402344 61.054688 265.625 60.550781 C 264.847656 60.050781 267.058594 55.238281 270.5625 49.796875 Z M 6.648438 205.21875 L 6.453125 148.613281 L 69.765625 148.414063 C 69.765625 148.414063 63.210938 161.695313 62.039063 175.515625 C 60.316406 173.570313 57.296875 171.105469 53.460938 168.648438 C 46.273438 164.050781 38.988281 161.25 37.191406 162.402344 C 35.390625 163.550781 39.765625 168.214844 46.953125 172.816406 C 48.792969 173.992188 50.640625 175.050781 52.398438 175.957031 C 50.261719 175.816406 47.925781 175.738281 45.472656 175.738281 C 35.304688 175.738281 27.0625 177.058594 27.0625 178.683594 C 27.0625 180.3125 35.304688 181.632813 45.472656 181.632813 C 47.332031 181.632813 49.121094 181.585938 50.808594 181.503906 C 49.542969 182.203125 48.246094 182.96875 46.953125 183.796875 C 39.765625 188.398438 35.390625 193.0625 37.191406 194.210938 C 38.988281 195.363281 46.273438 192.5625 53.460938 187.964844 C 57.175781 185.585938 60.125 183.199219 61.867188 181.28125 C 62.160156 194.746094 66.804688 205.414063 66.804688 205.414063 Z M 58.078125 178.582031 C 58.078125 179.507813 52.832031 180.257813 46.359375 180.257813 C 39.890625 180.257813 34.644531 179.507813 34.644531 178.582031 C 34.644531 177.660156 39.890625 176.910156 46.359375 176.910156 C 52.832031 176.910156 58.078125 177.660156 58.078125 178.582031 Z M 49.960938 172.605469 C 44.519531 169.101563 40.515625 165.628906 41.015625 164.851563 C 41.519531 164.074219 46.332031 166.285156 51.773438 169.789063 C 57.210938 173.292969 61.214844 176.761719 60.714844 177.539063 C 60.214844 178.316406 55.398438 176.105469 49.960938 172.605469 Z M 60.863281 179.644531 C 61.363281 180.421875 57.359375 183.894531 51.917969 187.394531 C 46.480469 190.898438 41.664063 193.109375 41.164063 192.332031 C 40.664063 191.554688 44.667969 188.085938 50.109375 184.582031 C 55.546875 181.078125 60.363281 178.867188 60.863281 179.644531 Z M 264.261719 347.542969 L 205.09375 288.078125 C 205.09375 288.078125 233.945313 294.296875 262.605469 294.296875 C 260.589844 295.902344 257.890625 299.109375 255.199219 303.316406 C 250.601563 310.503906 247.800781 317.789063 248.953125 319.585938 C 250.101563 321.382813 254.765625 317.011719 259.367188 309.824219 C 260.195313 308.53125 260.960938 307.234375 261.660156 305.964844 C 261.578125 307.65625 261.53125 309.445313 261.53125 311.300781 C 261.53125 321.46875 262.851563 329.710938 264.480469 329.710938 C 266.105469 329.710938 267.425781 321.46875 267.425781 311.300781 C 267.425781 308.851563 267.347656 306.515625 267.207031 304.375 C 268.113281 306.136719 269.171875 307.980469 270.347656 309.824219 C 274.949219 317.011719 279.613281 321.382813 280.761719 319.585938 C 281.914063 317.789063 279.113281 310.503906 274.515625 303.316406 C 271.808594 299.085938 269.089844 295.847656 267.066406 294.25 C 295.546875 293.675781 324.023438 288.375 324.023438 288.375 Z M 266.253906 310.414063 C 266.253906 316.886719 265.507813 322.128906 264.582031 322.128906 C 263.65625 322.128906 262.90625 316.886719 262.90625 310.414063 C 262.90625 303.945313 263.65625 298.699219 264.582031 298.699219 C 265.507813 298.699219 266.253906 303.945313 266.253906 310.414063 Z M 265.625 296.0625 C 266.402344 295.558594 269.871094 299.566406 273.375 305.003906 C 276.878906 310.441406 279.089844 315.257813 278.3125 315.757813 C 277.535156 316.257813 274.0625 312.253906 270.5625 306.816406 C 267.058594 301.378906 264.847656 296.5625 265.625 296.0625 Z M 258.582031 306.667969 C 255.078125 312.105469 251.609375 316.109375 250.832031 315.609375 C 250.054688 315.109375 252.265625 310.292969 255.769531 304.855469 C 259.273438 299.417969 262.742188 295.414063 263.519531 295.914063 C 264.296875 296.414063 262.085938 301.230469 258.582031 306.667969 Z M 458.152344 197.40625 C 456.355469 197.730469 453.164063 201.777344 450.535156 207.230469 C 448.097656 212.292969 446.910156 216.980469 447.445313 218.910156 C 446.164063 220.734375 444.800781 222.53125 443.355469 224.304688 C 441.238281 224.632813 437.355469 227.042969 433.472656 230.609375 C 428.679688 235.007813 425.632813 239.558594 426.375 241.101563 C 424.671875 242.488281 422.917969 243.851563 421.109375 245.191406 C 419.042969 244.992188 414.640625 246.660156 410.007813 249.539063 C 405.136719 252.570313 401.585938 255.960938 401.113281 257.859375 C 399.074219 258.96875 396.992188 260.050781 394.871094 261.109375 C 393.199219 260.265625 388.226563 261.195313 382.765625 263.496094 C 377.039063 265.910156 372.769531 268.988281 372.554688 270.742188 C 370.316406 271.574219 368.050781 272.382813 365.746094 273.164063 C 364.070313 272.230469 359.117188 272.675781 353.566406 274.386719 C 348.523438 275.941406 344.480469 278.078125 343.132813 279.746094 C 341.214844 280.21875 339.28125 280.675781 337.335938 281.113281 C 336.753906 279.496094 331.164063 279.238281 324.621094 280.558594 C 318.644531 281.765625 313.910156 283.882813 313.210938 285.546875 C 311.292969 285.824219 309.363281 286.078125 307.425781 286.324219 C 306.53125 284.828125 301.230469 284.132813 294.9375 284.761719 C 288.996094 285.355469 284.152344 286.933594 283.132813 288.484375 C 280.960938 288.601563 278.773438 288.695313 276.578125 288.773438 C 276.121094 287.121094 270.785156 285.816406 264.25 285.816406 C 257.734375 285.816406 252.410156 287.113281 251.921875 288.757813 C 249.710938 288.675781 247.503906 288.574219 245.308594 288.453125 C 244.152344 286.929688 239.398438 285.40625 233.585938 284.828125 C 227.507813 284.21875 222.355469 284.847656 221.203125 286.238281 C 219.195313 285.980469 217.199219 285.707031 215.210938 285.414063 C 214.234375 283.78125 209.640625 281.785156 203.898438 280.625 C 197.667969 279.363281 192.296875 279.539063 191.296875 280.953125 C 189.210938 280.480469 187.140625 279.984375 185.085938 279.472656 C 183.496094 277.863281 179.664063 275.902344 174.957031 274.453125 C 169.8125 272.867188 165.183594 272.367188 163.195313 273.046875 C 160.71875 272.203125 158.277344 271.335938 155.867188 270.433594 C 155.160156 268.636719 151.09375 265.808594 145.753906 263.558594 C 140.726563 261.441406 136.113281 260.484375 134.109375 261.007813 C 131.757813 259.835938 129.46875 258.617188 127.214844 257.378906 C 126.289063 255.421875 122.945313 252.363281 118.511719 249.605469 C 114.359375 247.023438 110.390625 245.417969 108.125 245.257813 C 106.105469 243.769531 104.152344 242.242188 102.257813 240.691406 C 102.335938 238.816406 99.417969 234.683594 95.050781 230.671875 C 91.589844 227.496094 88.121094 225.226563 85.90625 224.539063 C 84.21875 222.488281 82.644531 220.40625 81.1875 218.304688 C 81.355469 216.085938 80.175781 211.84375 77.984375 207.296875 C 75.585938 202.3125 72.714844 198.503906 70.863281 197.632813 C 70.152344 195.382813 69.566406 193.121094 69.109375 190.847656 C 70.324219 189.171875 71.101563 184.519531 70.9375 179.054688 C 70.792969 174.113281 69.921875 169.882813 68.785156 167.933594 C 69.207031 165.527344 69.78125 163.132813 70.484375 160.746094 C 72.328125 159.964844 75.253906 156.113281 77.695313 151.046875 C 80.105469 146.042969 81.296875 141.402344 80.808594 139.429688 C 82.058594 137.597656 83.386719 135.777344 84.808594 133.980469 C 86.914063 133.695313 90.835938 131.273438 94.761719 127.671875 C 99.792969 123.046875 102.910156 118.253906 101.722656 116.957031 C 101.71875 116.953125 101.714844 116.953125 101.710938 116.949219 C 103.324219 115.613281 104.976563 114.292969 106.683594 113.003906 C 108.496094 113.539063 113.226563 111.84375 118.222656 108.738281 C 123.648438 105.363281 127.453125 101.53125 127.167969 99.828125 C 129.136719 98.746094 131.136719 97.679688 133.179688 96.648438 C 134.808594 97.535156 139.828125 96.605469 145.339844 94.28125 C 151.257813 91.789063 155.632813 88.582031 155.574219 86.859375 C 157.671875 86.070313 159.796875 85.308594 161.941406 84.566406 C 162.609375 86.160156 168.234375 85.875 174.664063 83.890625 C 180.726563 82.023438 185.355469 79.3125 185.574219 77.589844 C 187.34375 77.148438 189.121094 76.726563 190.910156 76.316406 C 191.542969 77.910156 197.101563 78.160156 203.609375 76.84375 C 209.664063 75.621094 214.433594 73.46875 215.046875 71.796875 C 216.953125 71.511719 218.875 71.246094 220.804688 70.996094 C 221.058594 72.71875 226.671875 73.566406 233.421875 72.890625 C 239.921875 72.242188 245.105469 70.414063 245.394531 68.726563 C 247.5625 68.605469 249.730469 68.507813 251.910156 68.425781 C 252.453125 70.054688 257.757813 71.335938 264.230469 71.335938 C 270.722656 71.335938 276.035156 70.050781 276.554688 68.414063 C 278.757813 68.492188 280.957031 68.589844 283.148438 68.710938 C 283.945313 70.3125 288.894531 71.96875 295.019531 72.582031 C 301.4375 73.222656 306.828125 72.488281 307.5625 70.933594 C 309.515625 71.183594 311.453125 71.449219 313.386719 71.730469 C 314.34375 73.367188 318.949219 75.371094 324.707031 76.535156 C 330.984375 77.804688 336.390625 77.621094 337.335938 76.175781 C 339.121094 76.578125 340.890625 76.996094 342.652344 77.429688 C 343.109375 79.15625 347.636719 81.765625 353.523438 83.582031 C 359.863281 85.535156 365.417969 85.84375 366.214844 84.324219 C 368.414063 85.078125 370.589844 85.855469 372.738281 86.65625 C 372.722656 86.683594 372.695313 86.707031 372.683594 86.738281 C 372.003906 88.355469 376.554688 91.820313 382.851563 94.472656 C 388.933594 97.035156 394.40625 97.898438 395.390625 96.496094 C 397.273438 97.441406 399.113281 98.414063 400.933594 99.40625 C 400.445313 101.046875 404.289063 104.976563 409.84375 108.429688 C 415.105469 111.699219 420.066406 113.40625 421.644531 112.585938 C 423.359375 113.871094 425.019531 115.191406 426.644531 116.523438 C 425.714844 117.964844 428.785156 122.617188 433.679688 127.109375 C 437.582031 130.691406 441.480469 133.105469 443.59375 133.414063 C 445.050781 135.222656 446.414063 137.050781 447.695313 138.898438 C 446.8125 140.488281 447.984375 145.519531 450.621094 150.988281 C 453.335938 156.621094 456.652344 160.75 458.40625 160.828125 C 458.964844 162.71875 459.417969 164.625 459.796875 166.53125 C 458.273438 167.410156 457.234375 172.601563 457.417969 178.847656 C 457.578125 184.238281 458.597656 188.78125 459.886719 190.441406 C 459.4375 192.785156 458.855469 195.109375 458.152344 197.40625 Z M 521.078125 205.019531 L 460.921875 205.21875 C 460.921875 205.21875 465.738281 194.148438 465.867188 180.332031 C 467.40625 182.367188 470.710938 185.175781 475.070313 187.964844 C 482.261719 192.5625 489.546875 195.363281 491.34375 194.210938 C 493.140625 193.0625 488.769531 188.398438 481.578125 183.796875 C 480.285156 182.96875 478.988281 182.203125 477.722656 181.503906 C 479.410156 181.585938 481.203125 181.632813 483.058594 181.632813 C 493.226563 181.632813 501.46875 180.3125 501.46875 178.683594 C 501.46875 177.058594 493.226563 175.738281 483.058594 175.738281 C 480.605469 175.738281 478.269531 175.816406 476.132813 175.957031 C 477.890625 175.050781 479.738281 173.992188 481.578125 172.816406 C 488.769531 168.214844 493.140625 163.550781 491.34375 162.402344 C 489.546875 161.25 482.261719 164.050781 475.070313 168.648438 C 470.625 171.496094 467.261719 174.359375 465.765625 176.40625 C 464.859375 162.203125 457.964844 148.21875 457.964844 148.21875 L 521.273438 148.414063 Z M 467.816406 177.539063 C 467.316406 176.761719 471.320313 173.292969 476.761719 169.789063 C 482.199219 166.285156 487.015625 164.074219 487.515625 164.851563 C 488.015625 165.628906 484.011719 169.101563 478.570313 172.605469 C 473.132813 176.105469 468.316406 178.316406 467.816406 177.539063 Z M 482.171875 176.910156 C 488.640625 176.910156 493.886719 177.660156 493.886719 178.582031 C 493.886719 179.507813 488.640625 180.257813 482.171875 180.257813 C 475.699219 180.257813 470.457031 179.507813 470.457031 178.582031 C 470.457031 177.660156 475.699219 176.910156 482.171875 176.910156 Z M 478.425781 184.582031 C 483.863281 188.085938 487.867188 191.554688 487.367188 192.332031 C 486.867188 193.109375 482.050781 190.898438 476.613281 187.394531 C 471.171875 183.894531 467.167969 180.421875 467.667969 179.644531 C 468.171875 178.867188 472.984375 181.078125 478.425781 184.582031 "/>
</g>
</svg>
