<?xml version="1.0" encoding="UTF-8"?>
<svg xmlns="http://www.w3.org/2000/svg" xmlns:xlink="http://www.w3.org/1999/xlink" width="524pt" height="336pt" viewBox="0 0 524 336" version="1.1">
<g id="surface1">
<path style=" stroke:none;fill-rule:nonzero;fill:rgb(0%,0%,0%);fill-opacity:1;" d="M 371.796875 71.769531 C 384.789063 71.769531 395.320313 61.238281 395.320313 48.246094 C 395.320313 35.257813 384.789063 24.726563 371.796875 24.726563 C 358.808594 24.726563 348.277344 35.257813 348.277344 48.246094 C 348.277344 61.238281 358.808594 71.769531 371.796875 71.769531 Z M 371.796875 26.863281 C 383.605469 26.863281 393.179688 36.4375 393.179688 48.246094 C 393.179688 60.054688 383.605469 69.628906 371.796875 69.628906 C 359.988281 69.628906 350.414063 60.054688 350.414063 48.246094 C 350.414063 36.4375 359.988281 26.863281 371.796875 26.863281 "/>
<path style=" stroke:none;fill-rule:nonzero;fill:rgb(0%,0%,0%);fill-opacity:1;" d="M 520.984375 209.503906 C 516.023438 206.523438 504.347656 206.0625 507.960938 203.246094 C 510.496094 199.859375 496.453125 202.007813 498.550781 199.121094 C 500.613281 196.722656 480.800781 192.171875 483.460938 188.546875 C 486.648438 185.859375 468.003906 180.898438 465.28125 180.308594 C 465.375 178.335938 465.140625 174.425781 465.480469 171.03125 C 465.558594 170.25 466.210938 170.136719 466.394531 170.824219 C 467.078125 173.339844 467.746094 175.933594 469.246094 177.957031 C 469.652344 178.503906 470.363281 178.308594 470.253906 177.707031 C 469.785156 175.128906 469.714844 172.246094 469.277344 169.53125 C 469.179688 168.933594 469.890625 168.472656 470.242188 168.933594 C 472.628906 172.042969 474.488281 176.394531 475.328125 177.53125 C 477.824219 180.796875 477.800781 176.492188 477.398438 175.597656 C 477.171875 175.105469 478.058594 174.679688 478.460938 175.199219 C 479.203125 176.160156 479.859375 177.46875 480.898438 178.042969 C 482.105469 179.253906 482.929688 178.625 482.15625 177.195313 C 481.792969 176.449219 481.304688 175.742188 480.867188 175.015625 C 480.503906 174.414063 480.949219 173.960938 481.453125 174.46875 C 483.507813 176.535156 485.765625 179.46875 488.109375 180.585938 C 490.050781 181.066406 490.632813 180.335938 489.050781 178.902344 C 487.320313 177.855469 486.195313 176.152344 488.808594 176.769531 C 491.675781 177.609375 492.660156 178.335938 493.761719 180.53125 C 497.195313 184.90625 499.316406 180.949219 500.144531 183.339844 C 501.671875 186.003906 508.449219 189.902344 506.8125 186.789063 C 505.71875 185.011719 506.914063 184.597656 508.273438 185.757813 C 510.1875 188.515625 510.445313 184.082031 512.414063 187.914063 C 514.289063 189.730469 515.226563 189.230469 516.746094 190.089844 C 518.113281 190.660156 518.410156 189.433594 517.460938 188.523438 C 516.335938 187.445313 512.972656 186.476563 514.203125 184.855469 C 516.347656 181.476563 496.710938 179.597656 497.886719 177.898438 C 499.324219 174.566406 487.1875 173.921875 489.117188 172.390625 C 491.4375 169.652344 477.304688 167.070313 472.023438 163.363281 C 471.15625 162.753906 471.507813 161.511719 472.570313 162.046875 C 474.480469 163 477.671875 163.695313 479.441406 164.40625 C 482.199219 164.742188 477.921875 161.066406 480.308594 160.992188 C 482.742188 160.949219 486.351563 160.984375 487.5 163.289063 C 490.34375 169.097656 495.644531 170.96875 494.132813 167.523438 C 492.082031 164.339844 494.488281 164.347656 496.089844 167.613281 C 497.828125 169.027344 498.136719 166.320313 502.039063 167.890625 C 508.027344 168.558594 510.015625 174.199219 512.507813 172.378906 C 514.425781 171.238281 515.347656 173.035156 516.40625 174.011719 C 517.765625 175.9375 520.191406 174.628906 517.261719 172.457031 C 514.238281 169.632813 502.59375 166.300781 506.960938 165.058594 C 511.058594 163.519531 485.207031 159.128906 487.734375 158.199219 C 492.210938 155.347656 469.03125 149.140625 467.332031 146.34375 C 467.363281 143.304688 467.753906 141.621094 467.660156 139.496094 C 467.570313 137.421875 471.070313 140.152344 472.195313 143.382813 C 472.863281 145.96875 475.570313 142.984375 475.820313 147.757813 C 478.328125 150.097656 478.347656 144.605469 480.480469 145.460938 C 483.152344 146.476563 484.796875 153.871094 485.910156 149.070313 C 486.34375 147.167969 487.164063 145.570313 488.453125 149.519531 C 489.535156 152.683594 493.652344 154.15625 492.902344 151.691406 C 491.382813 147.300781 494.914063 150.109375 495.933594 152.378906 C 496.746094 154.535156 499.363281 155.101563 499.089844 151.976563 C 499.125 147.898438 505.738281 155.84375 506.203125 150.894531 C 506.621094 149.515625 511.125 152.863281 513.636719 153.503906 C 514.59375 153.75 515.148438 152.527344 514.226563 151.980469 C 512.660156 151.054688 508.273438 150.671875 509.351563 149.078125 C 510.078125 145.816406 493.820313 149.980469 498.765625 147.175781 C 502.296875 144.355469 479.222656 135.355469 469.320313 128.855469 C 465.632813 126.617188 468.160156 123.988281 472.417969 123.03125 C 475.492188 122.703125 475.703125 126.640625 478.785156 126.15625 C 479.757813 125.492188 478.101563 124.003906 480.039063 124.484375 C 482.273438 130.476563 485.296875 122.847656 488.628906 127.160156 C 490.984375 130.488281 497.050781 131.6875 498.9375 129.914063 C 501.042969 128.523438 503.0625 130.65625 504.875 130.507813 C 507.648438 131.105469 507.914063 129.996094 505.230469 128.691406 C 502.542969 127.390625 493.878906 127.746094 494.921875 125.175781 C 495.960938 120.777344 476.164063 121.769531 480.023438 118.050781 C 484.710938 115.757813 469.578125 112.003906 468.910156 111.433594 C 468.101563 110.742188 469.070313 108.980469 469.515625 108.960938 C 471.050781 108.902344 472.851563 108.792969 473.761719 107.554688 C 473.699219 107.238281 474.484375 107.136719 474.804688 107.527344 C 475.585938 108.488281 475.859375 109.921875 477 110.53125 C 483.605469 108.5625 489.121094 119.335938 492.53125 115.804688 C 493.988281 114.511719 497.125 118.859375 499.539063 119.789063 C 501.898438 121.316406 503.40625 118.851563 500.136719 118.054688 C 499.0625 117.3125 496.804688 116.640625 499.460938 115.289063 C 502.550781 112.972656 488.132813 112.488281 492.316406 109.175781 C 500.261719 106.859375 480.75 102.050781 477.949219 101.941406 C 472.15625 101.046875 469.277344 95.96875 467.894531 93.703125 C 467.183594 92.101563 468.0625 90.023438 470.019531 90.117188 C 471.492188 90.578125 471.355469 93.472656 473.570313 93.105469 C 474.851563 92.539063 473.339844 89.640625 475.933594 91.253906 C 476.789063 93.097656 479.003906 92.730469 480.332031 92.871094 C 482.894531 93.882813 484.015625 97.644531 486.9375 97.53125 C 488.652344 97.707031 489.394531 96.578125 487.867188 95.515625 C 486.125 93.902344 483.9375 92.710938 481.792969 91.839844 C 478.117188 88.136719 473.921875 85.589844 469.472656 83.339844 C 465.417969 81.660156 466.527344 79.148438 466.726563 76.566406 C 467.246094 75.492188 468.84375 76.640625 469.210938 77.128906 C 470.898438 77.992188 472.605469 78.386719 474.484375 78.472656 C 476.183594 79.824219 478.191406 81.519531 480.34375 81.765625 C 480.976563 81.835938 482.574219 80.9375 480.789063 79.964844 C 477.664063 77.550781 474.332031 74.9375 470.464844 73.8125 C 467.90625 73.089844 466.984375 71.582031 467.996094 70.585938 C 469.226563 69.523438 470.820313 71.773438 472.128906 71.875 C 472.941406 72.1875 473.675781 70.714844 472.445313 69.980469 C 469.976563 68.351563 466.820313 65.992188 467.359375 62.914063 C 468.929688 61.605469 470.203125 63.402344 471.765625 63.496094 C 472.15625 63.519531 472.546875 62.460938 472.234375 62.136719 C 463.5625 58.507813 468.410156 56.214844 467.140625 54.113281 C 466.101563 52.3125 468.414063 50.355469 466.546875 47.78125 C 465.679688 46.777344 466.664063 42.863281 466.660156 41.996094 C 466.71875 40.011719 464.714844 38.777344 464.660156 41.597656 C 463.46875 47.035156 464.730469 53.609375 463.535156 59.050781 C 463.09375 60.128906 458.421875 61.007813 461.722656 62.652344 C 462.339844 62.917969 463.621094 62.269531 463.652344 63.292969 C 463.921875 64.324219 463.054688 64.363281 462.414063 64.648438 C 459.847656 65.097656 465.316406 68.984375 457.238281 68.40625 C 455.753906 68.605469 455.410156 69.898438 457.070313 69.972656 C 459.425781 70.578125 462.640625 68.730469 463.480469 72.074219 C 463.304688 78.160156 464.414063 85.199219 461.40625 81.238281 C 458.828125 74.238281 439.679688 72.539063 444.636719 70.570313 C 447.738281 68.570313 438.636719 66.289063 434.378906 66.71875 C 431.582031 66.617188 432.316406 64.898438 432.601563 62.714844 C 434.011719 59.402344 437.714844 62.480469 440.003906 60.46875 C 441.238281 58.976563 442.25 60.101563 441.621094 61.890625 C 440.339844 64.578125 441.949219 65.871094 443.605469 64.007813 C 445.230469 62.828125 446.996094 64.871094 449.257813 62.308594 C 450.632813 60.402344 455.113281 64.8125 457.984375 64.148438 C 459.570313 64.257813 460.105469 62.484375 458.4375 61.632813 C 454.207031 59.378906 451.105469 58.039063 446.6875 56.855469 C 443.007813 54.957031 439.65625 52.761719 435.632813 51.550781 C 435.617188 50.140625 434.007813 51.007813 433.414063 50.273438 C 432.542969 49.820313 433.777344 47.964844 433.742188 46.226563 C 433.734375 45.980469 434.699219 45.035156 435.261719 45.386719 C 435.699219 45.65625 438.445313 47.726563 440.898438 46.878906 C 443.929688 44.117188 448.589844 49.722656 454.390625 49.835938 C 456.359375 50.238281 458.121094 49.960938 455.554688 47.929688 C 451.015625 44.035156 440 43.445313 438.949219 40.953125 C 437.097656 38.59375 436.4375 40.339844 433.835938 36.714844 C 432.554688 33.304688 440.300781 35.523438 443.921875 36.945313 C 446.121094 38.070313 448.378906 35.664063 445.203125 34.730469 C 440.890625 34.609375 437.886719 29.996094 434.367188 29.753906 C 431.125 29.015625 434.570313 27.746094 431.980469 26.40625 C 430.207031 25.011719 432.386719 24.027344 433.265625 25.011719 C 434.980469 25.199219 436.824219 24.796875 438.339844 23.660156 C 439.730469 22.777344 439.316406 22.4375 438.273438 22.179688 C 436.574219 21.753906 433.203125 21.542969 433.296875 19.554688 C 433.328125 18.925781 434.105469 16.792969 436.789063 16.496094 C 437.648438 15.589844 437.164063 15.167969 436.242188 14.871094 C 434.769531 14.394531 432.171875 14.238281 432.089844 12.929688 C 431.886719 11.039063 434.816406 13.292969 435.519531 11.675781 C 434.664063 8.105469 429.636719 8.265625 430.535156 4.148438 C 432.402344 2.066406 430.839844 -1.160156 428.40625 0.910156 C 425.34375 2.152344 431.652344 14.933594 427.152344 16.078125 C 424.734375 16.691406 421.828125 17.703125 420.441406 18.597656 C 419.402344 19.265625 419.210938 19.835938 420.691406 20.015625 C 422.550781 19.953125 424.144531 19.960938 425.269531 20.105469 C 427.164063 20.347656 427.738281 20.972656 426.003906 22.300781 C 424.253906 23.941406 419.4375 26.101563 417.382813 27.433594 C 416.246094 28.167969 416.3125 29.320313 417.828125 29.324219 C 421.953125 29.726563 425.722656 26.152344 427.03125 26.109375 C 427.664063 26.085938 428.042969 26.371094 428.050781 27.183594 C 418.675781 30.777344 419.75 36.347656 409.882813 34.738281 C 406.980469 34.132813 407.511719 37.144531 410.089844 36.738281 C 415.28125 36.367188 419.929688 37.066406 424.878906 34.648438 C 426.132813 34.707031 426.523438 36.375 425.859375 37.207031 C 423.054688 41.785156 418.070313 42.652344 413.652344 44.882813 C 410.847656 45.054688 410.324219 45.199219 407.71875 45.980469 C 406.964844 46.207031 407.402344 47.46875 408.261719 47.449219 C 410.835938 47.398438 410.796875 45.945313 414.109375 46.863281 C 418.398438 48.527344 425.625 42.796875 424.054688 45.601563 C 423.816406 47.394531 426.203125 48.367188 427.359375 47.164063 C 428.691406 45.5 429.9375 47.363281 429.015625 48.65625 C 427.65625 52.570313 404.816406 53.140625 400.59375 61.574219 C 400.238281 61.882813 400.699219 63.160156 401.292969 63.074219 C 402.867188 62.84375 406.789063 57.484375 406.09375 60.617188 C 405.648438 61.695313 406.511719 63.464844 408.046875 62.4375 C 409.914063 59.460938 413.34375 63.3125 414.082031 59.261719 C 414.734375 58.742188 416.125 58.847656 416.046875 59.390625 C 415.902344 60.375 415.84375 61.28125 417.394531 60.59375 C 418.371094 60.210938 418.613281 59.289063 419.046875 58.632813 C 419.34375 57.695313 420.476563 57.789063 420.226563 58.890625 C 420.367188 59.882813 421.253906 60.734375 422.527344 59.96875 C 422.796875 57 424.105469 55.28125 425.527344 56.183594 C 426.5625 57.566406 424.089844 58.394531 425.125 59.777344 C 426.636719 61.023438 427.351563 59.171875 428.253906 58.273438 C 428.5 58.050781 429.289063 58.632813 429.332031 58.988281 C 429.359375 62.433594 428.8125 63.03125 428.117188 66.300781 C 420.480469 68.535156 398.539063 72.277344 404.640625 74.992188 C 408.425781 76.34375 398.300781 77.453125 395.421875 79.460938 C 394.070313 80.101563 395.011719 81.925781 396.648438 81.4375 C 398.347656 81.101563 401.019531 81.195313 401.859375 79.101563 C 404.632813 75.148438 407.085938 81.464844 409.847656 77.746094 C 411.300781 76.320313 411.796875 82.046875 413.480469 79.011719 C 414.132813 77.894531 413.65625 74.601563 414.980469 77.121094 C 416.804688 80.03125 418.753906 75.257813 420.59375 77.929688 C 422.011719 80.0625 423.039063 71.425781 425.019531 73.898438 C 426.644531 76.09375 420.890625 79.984375 426.410156 79.378906 C 426.921875 79.042969 428.308594 78.25 428.328125 78.808594 C 428.414063 81.621094 428.214844 84.78125 427.78125 87.054688 C 422.257813 91.113281 415 86.277344 417.347656 90.3125 C 419.503906 92.347656 401.011719 88.925781 405.449219 93.082031 C 406.707031 93.949219 404.949219 94.753906 401.988281 95.492188 C 396.828125 93.273438 389.953125 83.386719 380.109375 79.179688 C 374.195313 76.652344 363.105469 77.382813 357.980469 77.5625 C 351.726563 77.785156 340.867188 71.113281 335.960938 67.6875 C 323.660156 59.085938 303.929688 97.136719 298.5625 105.335938 C 295.902344 110.167969 292.308594 107.371094 291.5 106.753906 C 284.40625 101.347656 278.929688 88.0625 270.222656 89.273438 C 266.339844 89.769531 265.8125 96.027344 262.402344 95.839844 C 257.675781 95.574219 255.316406 101.394531 252.449219 105.6875 C 250.941406 107.949219 248.105469 106.03125 243.777344 102.976563 C 238.253906 98.269531 235.296875 108.316406 231.84375 108.410156 C 227.085938 109.246094 211.761719 94.527344 193.75 103.046875 C 185.160156 106.628906 178.828125 115.894531 165.648438 114.265625 C 162.269531 113.847656 156.914063 100.628906 145.101563 95.246094 C 139.1875 92.554688 132.214844 96.96875 126.144531 93.609375 C 110.121094 84.753906 94.605469 77.691406 90.5 83.8125 C 88.742188 86.429688 87.902344 90.207031 86.015625 90.582031 C 83.984375 91.285156 77.542969 86.429688 73.359375 96.480469 C 70.382813 99.371094 64.199219 94.222656 59.363281 96.453125 C 53.15625 99.3125 51.597656 103.308594 46.550781 108.730469 C 44.914063 110.492188 46.167969 111.628906 47.582031 110.539063 C 53.769531 104.238281 57.0625 93.8125 69.0625 99.65625 C 76.460938 102.789063 74.730469 90.945313 83.28125 92.632813 C 91.210938 94.195313 89.640625 84.167969 94.875 83.117188 C 100.199219 81.949219 113.90625 88.84375 128.214844 96.984375 C 133.707031 100.109375 138.835938 96.144531 144.523438 98.316406 C 150.785156 100.707031 153.855469 106.714844 157.265625 110.558594 C 161.402344 115.230469 163.84375 117.695313 170.941406 116.792969 C 184.753906 115.035156 191.640625 101.617188 207.183594 102.785156 C 215.222656 102.636719 222.554688 107.53125 228.605469 111.070313 C 236.269531 113.671875 238.695313 103.640625 242.636719 105.386719 C 248.476563 109.511719 251.8125 111.941406 254.261719 107.320313 C 256.515625 103.066406 258.738281 98.660156 261.992188 99.164063 C 266.347656 99.835938 266.664063 96.378906 268.421875 93.386719 C 269.507813 90.902344 273.683594 91.351563 276.242188 94.6875 C 280.78125 99.550781 283.828125 103.449219 289.667969 109.550781 C 291.605469 111.203125 295.0625 114.492188 298.921875 110.765625 C 304.878906 101.464844 308.3125 94.632813 314.335938 86.363281 C 322.480469 72.925781 328.832031 69.785156 332.464844 70.046875 C 336.855469 70.359375 351.652344 81.1875 357.847656 80.234375 C 363.398438 79.429688 373.390625 79.859375 378.632813 82.019531 C 387.128906 85.527344 393.910156 92.042969 397.953125 96.386719 C 392.921875 97.273438 385.445313 98.421875 384.34375 99.085938 C 381.921875 100.542969 383.402344 102.226563 386.324219 101.175781 C 388.03125 100.933594 395.027344 97.175781 392.679688 100.964844 C 392.792969 104.765625 401.464844 97.761719 397.992188 101.523438 C 396.03125 104.769531 397.976563 104.4375 399.925781 103.265625 C 401.519531 102.308594 402.996094 100.457031 403.371094 102.324219 C 404.496094 105.035156 406.109375 99.84375 407.285156 98.304688 C 407.917969 97.472656 408.902344 98.167969 408.457031 99.058594 C 407.019531 101.605469 409.039063 104.757813 411.308594 100.417969 C 412.894531 100.019531 411.996094 103.066406 413.976563 102.6875 C 416.207031 102.375 416.230469 100.023438 416.804688 98.898438 C 417.207031 98.109375 418.578125 98.546875 418.269531 99.335938 C 417.875 100.347656 417.472656 101.328125 417.726563 102.441406 C 422.355469 104.226563 421.222656 98.132813 423.972656 96.453125 C 427.261719 95.546875 418.101563 106.089844 424.445313 103.953125 C 427.066406 103.296875 427.949219 104.96875 424.011719 105.507813 C 416.734375 107.953125 409.714844 107.667969 412.640625 109.503906 C 414.542969 110.699219 400.175781 110.941406 390.597656 114.90625 L 383.4375 117.160156 C 383.234375 117.390625 375.40625 118.980469 371.441406 120.621094 C 368.398438 121.878906 369.382813 124.371094 373.695313 122.808594 C 376.019531 122.09375 380.605469 120.910156 380.695313 122.460938 C 380.582031 126.039063 391.550781 118.53125 393.203125 122.066406 C 394.855469 125.597656 409.164063 121.363281 412.753906 120.550781 C 416.347656 119.734375 411.007813 127.265625 416.960938 125.320313 C 425.738281 122.457031 421.035156 128.953125 421.160156 129.058594 C 416.761719 127.839844 416.929688 133.238281 416.929688 133.238281 L 90.902344 132.917969 C 90.902344 132.917969 92.359375 131.433594 89.78125 130.902344 C 89 130.152344 89.984375 129.71875 91.257813 130.234375 C 94.152344 131.402344 96.445313 130.992188 96.613281 130.117188 C 98.699219 122.59375 100.964844 124.964844 102.300781 127.195313 C 103.097656 128.535156 103.695313 127.710938 104.050781 127.289063 C 105.222656 125.898438 107.699219 125.746094 107.871094 127.207031 C 109.886719 132.246094 122.964844 131.824219 124.195313 130.648438 C 126.769531 127.738281 131.894531 127.625 133.574219 129.558594 C 136.992188 132.023438 142.730469 125.945313 145.082031 127.09375 C 150.460938 130.230469 158.605469 130.746094 164.148438 130.746094 C 166.390625 130.972656 235.894531 130.851563 254.476563 130.46875 C 260.210938 130.347656 259.800781 129.039063 254.199219 128.878906 C 235.019531 128.6875 162.507813 129.128906 162.507813 129.128906 C 162.507813 129.128906 149.980469 129.558594 146.0625 125.300781 C 145.054688 123.0625 137.800781 130.3125 134.609375 128.382813 C 131.839844 126.449219 129.066406 125.75 124.054688 128.4375 C 118.257813 132.863281 108.878906 127.207031 109.128906 125.496094 C 108.488281 120.710938 103.503906 127.09375 102.804688 124.992188 C 102.019531 122.304688 96.769531 122.699219 96.304688 125.722656 C 95.664063 129.921875 95.269531 130.035156 90.566406 128.886719 C 88.886719 128.476563 89.027344 126.171875 89.363281 125.386719 C 89.167969 122.136719 89.894531 118.46875 87.320313 122.390625 C 87.402344 134.457031 82.417969 123.761719 81.074219 119.507813 C 77.378906 115.027344 75.78125 128.242188 70.742188 120.375 C 68.390625 114.324219 67.410156 121.941406 67.160156 125.636719 C 67.15625 125.703125 67.160156 125.757813 67.160156 125.820313 C 67.410156 128.007813 64.605469 127.128906 62.484375 125.75 C 60.464844 124.058594 59.308594 127.804688 57.074219 128.003906 C 56.023438 128.097656 55.476563 124.820313 53.046875 124.855469 C 51.703125 125.078125 51.675781 126.085938 50.332031 126.644531 C 48.035156 127.851563 48.0625 120.402344 46.550781 120.375 C 44.085938 120.933594 46.214844 122.613281 44.984375 124.070313 C 43.414063 124.855469 43.667969 126.339844 41.398438 126.871094 C 38.933594 127.542969 37.480469 126.871094 39.71875 125.636719 C 44.648438 123.511719 37.144531 123.285156 39.382813 121.15625 C 40.148438 119.78125 38.984375 118.410156 37.847656 117.316406 C 37.316406 116.808594 36.40625 116.757813 36.332031 117.128906 C 35.816406 119.726563 34.175781 122.152344 36.136719 124.40625 C 36.582031 126.871094 34.195313 126.664063 34.117188 124.855469 C 34.230469 123.511719 32.214844 122.164063 33.671875 121.15625 C 34.117188 120.710938 34.566406 119.140625 33.335938 119.140625 C 33.8125 115.796875 31.355469 112.292969 30.625 108.621094 C 30.496094 107.988281 29.433594 108.050781 29.171875 108.851563 C 28.179688 111.863281 29.125 115.878906 29.300781 118.359375 C 28.742188 119.140625 27.398438 119.703125 28.855469 120.375 C 29.191406 121.15625 28.480469 122.019531 27.109375 120.796875 C 26.585938 120.199219 24.949219 120.785156 23.78125 121.144531 C 22.617188 121.507813 21.921875 121.644531 23.292969 120.148438 C 25.625 117.519531 22.824219 115.929688 24.523438 113.765625 C 26.445313 111.804688 22.246094 113.921875 22.996094 108.332031 C 22.875 106.832031 21.699219 107.089844 21.519531 108.390625 C 20.679688 110.574219 21.789063 112.992188 19.90625 114.769531 C 19.046875 115.703125 18.554688 115.835938 17.398438 114.992188 C 16.0625 113.808594 13.796875 108.644531 15.976563 109.511719 C 16.851563 110.21875 18.152344 110.269531 17.347656 108.449219 C 17.492188 106.636719 16.636719 105.921875 15.410156 104.496094 C 14.539063 102.976563 14.078125 102.25 14.351563 100.285156 C 13.988281 98.800781 12.765625 100.359375 12.765625 101.464844 C 14.554688 105.496094 8.246094 104.804688 10.710938 109.0625 C 8.246094 111.078125 11.832031 114.101563 8.246094 115.558594 C 7.261719 117.285156 7.855469 118.480469 9.949219 118.511719 C 11.40625 118.75 11.445313 119.765625 10.242188 119.589844 C 8.292969 119.679688 4.203125 120.984375 6.230469 122.054688 C 9.144531 123.847656 1.414063 125.226563 4.664063 127.207031 C 7.339844 131.042969 3.496094 130.746094 0.902344 132.007813 C -0.109375 132.605469 1.152344 133.328125 2.160156 133.105469 C 3.324219 133.144531 3.949219 132.246094 4.910156 132.285156 C 6.460938 131.742188 6.992188 132.8125 5.515625 133.671875 C 4.925781 134.375 3.875 134.585938 3.09375 134.933594 C -0.183594 137.160156 3.289063 136.519531 3.617188 136.476563 C 5.0625 136.285156 6.554688 135.921875 7.910156 134.933594 C 8.386719 134.710938 9.128906 134.683594 8.695313 135.71875 C 8.203125 137.539063 7.171875 139.394531 5.6875 140.476563 C 5.144531 140.875 5.511719 141.316406 6.292969 141.144531 C 6.992188 140.753906 8.730469 139.257813 7.910156 140.980469 C 6.679688 144.902344 13.808594 136.800781 12.726563 145.351563 C 12.75 153.847656 12.820313 160.320313 13.214844 167.800781 C 17.976563 304.757813 194.039063 338.160156 296.78125 335.925781 C 300.675781 335.839844 300.8125 332.609375 296.199219 332.789063 C 226.785156 335.480469 22.601563 312.398438 17.207031 168.757813 C 17.179688 167.597656 17.242188 167.347656 18.328125 167.972656 C 22.332031 170.285156 35.996094 172.699219 27.246094 175.109375 C 24.730469 175.265625 25.054688 175.914063 27.253906 176.257813 C 30.773438 177.003906 38.039063 177.71875 41.398438 176.039063 C 41.535156 176.003906 41.660156 175.972656 41.777344 175.945313 C 43.46875 175.578125 43.085938 176.347656 42.367188 176.992188 C 42.023438 177.304688 41.59375 177.589844 41.285156 177.699219 C 37.828125 179.714844 33.117188 180.652344 30.71875 183.714844 C 29.523438 184.84375 30.628906 186.609375 31.59375 187.410156 C 38.566406 192.667969 49.066406 191.980469 57.527344 194.628906 C 60.460938 196.027344 58.601563 196.246094 56.703125 196.542969 C 54.90625 196.71875 54.007813 197.941406 57.429688 198.628906 C 62.164063 199.578125 66.394531 199.304688 71.972656 199.445313 C 76.957031 199.445313 79.386719 200.546875 76.007813 202.246094 C 71.253906 204.648438 68.109375 202.925781 64.851563 204.726563 C 63.117188 205.683594 62.339844 206.890625 65.394531 206.550781 C 66.96875 206.414063 68.667969 206 70.40625 206.277344 C 74.296875 207.945313 79.367188 200.847656 84.292969 203.421875 C 86.851563 204.503906 82.742188 208.628906 86.085938 208.292969 C 88.761719 207.46875 87.09375 205.382813 88.550781 204.261719 C 90.488281 202.5625 99.019531 205.441406 104.417969 207.324219 C 106.535156 207.789063 107.824219 208.921875 104.992188 209.589844 C 95.984375 212.21875 73.34375 215.996094 67.992188 218.664063 C 66.472656 219.617188 63.988281 220.683594 67.300781 223.296875 C 73.738281 228.378906 78.292969 231.214844 84.070313 234.054688 C 87.738281 235.59375 87.589844 237.058594 84.144531 237.675781 C 75.613281 239.601563 87.109375 245.878906 90.554688 249.996094 C 142.808594 290.019531 273.648438 307.414063 341.558594 246.746094 C 345.675781 243.636719 353.46875 246.535156 352.628906 250.175781 C 352.410156 251.109375 350.023438 250.050781 348.675781 249.152344 C 348.226563 248.851563 348.121094 249.105469 348.53125 249.503906 C 349.230469 250.175781 350.863281 251.289063 351.722656 251.949219 C 352.078125 252.21875 351.914063 252.542969 351.535156 252.375 C 350.6875 251.996094 349.46875 251.390625 348.609375 250.847656 C 347.746094 250.398438 347.324219 250.582031 348.566406 251.265625 C 349.253906 251.738281 350.582031 252.515625 351.273438 252.992188 C 351.558594 253.191406 351.453125 253.351563 351.082031 253.207031 C 349.871094 252.734375 347.203125 251.511719 345.769531 250.925781 C 345.207031 250.695313 344.914063 250.972656 345.703125 251.230469 C 348.78125 252.8125 350.972656 253.675781 350.015625 255.222656 C 348.554688 255.472656 350.046875 259.480469 347.027344 258.433594 C 345.84375 257.734375 348.003906 261.066406 345.730469 261.542969 C 344.449219 261.652344 346.09375 263.074219 344.914063 262.75 C 343.746094 262.558594 344.339844 263.097656 344.632813 263.460938 C 344.726563 263.578125 344.632813 263.734375 344.484375 263.675781 C 343.925781 263.460938 342.644531 262.726563 341.863281 262.347656 C 341.511719 262.179688 341.46875 262.417969 341.683594 262.582031 C 342.324219 263.078125 343.40625 263.695313 343.875 264.152344 C 344.070313 264.339844 343.910156 264.621094 343.699219 264.554688 C 342.617188 264.203125 339.457031 262.769531 338.085938 262.269531 C 337.714844 262.132813 337.621094 262.308594 337.996094 262.53125 C 339.449219 263.394531 343.195313 265.261719 343.046875 265.429688 C 342.515625 266.035156 340.898438 265.636719 340.261719 266.277344 C 339.316406 267.015625 342.449219 267.554688 340.429688 268.003906 C 337.339844 268.066406 340.511719 270.101563 337.023438 271.105469 C 336.351563 270.714844 332.992188 268.492188 331.648438 267.730469 C 331.335938 267.554688 331.230469 267.722656 331.5625 268.015625 C 332.78125 269.082031 335.371094 271.09375 335.695313 272.105469 C 336.050781 272.636719 335.457031 273.121094 334.980469 272.664063 C 334.808594 272.59375 332.46875 270.269531 331.433594 269.40625 C 331.214844 269.222656 331.023438 269.246094 331.199219 269.527344 C 331.632813 270.207031 332.550781 271.511719 332.953125 272.253906 C 333.125 272.570313 332.90625 272.679688 332.695313 272.464844 C 332.164063 271.9375 331.265625 270.914063 330.683594 270.359375 C 330.421875 270.105469 330.355469 270.234375 330.503906 270.472656 C 330.945313 271.164063 331.621094 272.363281 331.894531 273.003906 C 332.492188 273.59375 329.8125 273.757813 330.550781 275.277344 C 331.5 276.054688 320.742188 277.417969 321.804688 279.871094 C 322.050781 280.519531 319.976563 281.226563 319.339844 280.949219 C 317.976563 280.105469 317.390625 281.0625 317.160156 281.398438 C 316.699219 282.214844 316.148438 282.042969 314.847656 281.898438 C 313.617188 281.867188 313.585938 282.859375 314.953125 282.660156 C 318.734375 282.523438 321.96875 280.652344 322.488281 280.929688 C 323.746094 281.929688 325.320313 280.472656 325.3125 278.953125 C 337.175781 274.984375 335.960938 278.894531 334.414063 282.339844 C 333.746094 283.613281 332.679688 282.859375 331.671875 281.839844 C 330.496094 280.65625 330.957031 281.816406 331.0625 282.273438 C 331.234375 283.03125 331.960938 286.175781 330.453125 284.710938 C 330.339844 284.601563 328.398438 282.210938 327.429688 281.058594 C 327.136719 280.710938 326.984375 280.808594 327.246094 281.242188 C 327.808594 282.160156 328.84375 283.714844 329.339844 284.554688 C 329.539063 284.898438 329.355469 285.058594 329.074219 284.910156 C 328.453125 284.578125 327.574219 284.015625 326.433594 283.402344 C 326.109375 283.226563 325.945313 283.347656 326.242188 283.625 C 326.742188 284.09375 327.554688 284.796875 328.007813 285.238281 C 328.246094 285.46875 328.121094 285.566406 327.867188 285.421875 C 327.144531 285.007813 325.785156 284.121094 325.058594 283.710938 C 324.800781 283.5625 324.570313 283.738281 324.824219 284.023438 C 325.226563 284.464844 325.886719 285.132813 326.328125 285.546875 C 326.925781 286.105469 326.3125 286.140625 326.097656 285.996094 C 325.449219 285.566406 323.015625 282.925781 324.09375 285.351563 C 324.597656 286.488281 322.464844 285.039063 321.625 285.5625 C 320.6875 286.148438 322.164063 287.097656 320.804688 287.523438 C 320.109375 287.742188 318.652344 286.742188 317.472656 286.066406 C 317.15625 285.886719 317.003906 285.996094 317.261719 286.207031 C 317.996094 286.796875 319.546875 287.898438 319.644531 287.976563 C 320 288.246094 319.675781 288.441406 319.066406 288.15625 C 318.730469 288 316.0625 287.460938 315.597656 288.195313 C 315.050781 289.046875 314.011719 289.714844 312.675781 290.121094 C 312.558594 290.15625 312.011719 289.515625 311.554688 289.023438 C 311.265625 288.707031 310.945313 288.824219 311.085938 289.207031 C 311.28125 289.746094 311.539063 290.390625 311.402344 290.410156 C 309.8125 290.667969 307.570313 289.785156 306.054688 290.113281 C 304.757813 290.398438 305.46875 291.722656 304.957031 291.445313 C 303.628906 290.722656 303.464844 291.769531 303.304688 291.796875 C 303.136719 291.828125 302.996094 290.332031 302.847656 289.425781 C 302.785156 289.023438 302.554688 289 302.507813 289.347656 C 302.433594 289.890625 302.355469 290.691406 302.28125 291.273438 C 302.226563 291.695313 301.964844 291.765625 301.78125 291.378906 C 301.578125 290.9375 300.195313 294.160156 301.855469 294.054688 C 314.667969 293.230469 335.175781 287.484375 336.96875 282.539063 C 338.5625 278.140625 355.195313 268.3125 364.839844 259.078125 C 365.398438 260.25 366.332031 262.113281 366.335938 262.320313 C 366.363281 263.410156 364.21875 265.117188 367.28125 264.253906 C 368.835938 264.09375 371.554688 262.269531 373.183594 260.59375 C 374.03125 259.144531 375.402344 261.753906 376.929688 259.136719 C 377.800781 257.589844 389.226563 253.652344 390.578125 251.765625 C 392.195313 249.871094 396.042969 247.4375 398.671875 247.542969 C 403.449219 247.894531 406.664063 248.1875 408.882813 248.328125 C 408.558594 249.316406 408.277344 250.507813 408.730469 251.53125 C 409.117188 252.398438 410.207031 253.609375 408.226563 253.097656 C 405.867188 252.488281 409.78125 255.78125 407.210938 256.859375 C 407.027344 256.9375 404.238281 254.113281 402.839844 252.851563 C 402.421875 252.46875 402.25 252.617188 402.648438 253.109375 C 403.496094 254.152344 405.046875 255.898438 405.800781 256.855469 C 406.109375 257.246094 405.90625 257.476563 405.535156 257.339844 C 404.613281 257 402.992188 256.289063 402.011719 255.917969 C 401.578125 255.757813 401.394531 255.9375 401.808594 256.230469 C 402.511719 256.726563 403.632813 257.460938 404.273438 257.925781 C 404.605469 258.171875 404.464844 258.316406 404.128906 258.179688 C 403.164063 257.792969 401.328125 256.925781 400.355469 256.535156 C 400.015625 256.402344 399.757813 256.65625 400.121094 256.964844 C 400.691406 257.445313 401.667969 258.105469 402.246094 258.597656 C 402.625 258.917969 402.324219 259.335938 402.035156 259.195313 C 401.15625 258.769531 398.851563 257.160156 399.441406 258.734375 C 399.988281 260.191406 397.371094 258.625 396.421875 259.414063 C 395.363281 260.296875 397.351563 261.222656 395.738281 261.984375 C 395.644531 262.03125 392.769531 261.144531 391.363281 260.75 C 390.929688 260.625 390.773438 260.742188 391.128906 260.953125 C 392.140625 261.5625 394.242188 262.664063 394.382813 262.742188 C 394.867188 263.015625 394.496094 263.3125 393.691406 263.066406 C 393.25 262.929688 389.859375 262.714844 389.402344 263.699219 C 388.875 264.851563 387.699219 265.855469 386.113281 266.585938 C 385.976563 266.648438 385.1875 265.949219 384.539063 265.414063 C 384.128906 265.074219 383.753906 265.269531 383.988281 265.722656 C 384.320313 266.359375 384.992188 266.894531 384.589844 267.160156 C 381.484375 269.214844 379.734375 267.035156 377.914063 267.703125 C 376.355469 268.277344 377.460938 269.796875 376.78125 269.539063 C 375.703125 269.132813 375.273438 269.464844 375.058594 269.800781 C 374.921875 270.015625 374.601563 270.019531 374.472656 269.621094 C 374.273438 269.003906 374.03125 268.066406 373.828125 267.394531 C 373.675781 266.90625 373.390625 266.917969 373.390625 267.359375 C 373.390625 268.042969 373.429688 269.046875 373.4375 269.78125 C 373.441406 270.308594 373.128906 270.445313 372.839844 269.992188 C 372.105469 268.855469 370.804688 266.660156 370.074219 265.523438 C 369.78125 265.070313 369.582031 265.148438 369.777344 265.644531 C 370.253906 266.859375 371.269531 269.085938 371.75 270.300781 C 371.949219 270.804688 371.707031 270.878906 371.40625 270.445313 C 370.882813 269.683594 370.132813 268.496094 369.65625 267.832031 C 369.4375 267.523438 369.210938 267.640625 369.339844 268.039063 C 369.597656 268.867188 370.386719 270.472656 370.613281 271.242188 C 370.714844 271.585938 370.699219 271.761719 370.480469 271.628906 C 366.976563 269.515625 364.785156 274.140625 363.585938 274.355469 C 362.242188 274.597656 362.335938 275.535156 363.484375 275.417969 C 365.265625 274.972656 373.679688 273.8125 377.488281 270.769531 C 378.511719 269.4375 380.304688 271.660156 381.386719 269.789063 C 382.070313 268.488281 394.269531 265.882813 395.851563 264.175781 C 397.691406 261.878906 401.808594 260.566406 404.40625 260.996094 C 408.023438 262.066406 415.460938 260.390625 420.839844 253.691406 C 422.558594 251.554688 425.617188 242.652344 425.355469 250.210938 C 425.242188 253.527344 430.746094 251.421875 432.683594 244.070313 C 433.546875 240.792969 438.164063 245.058594 436.570313 240.671875 C 436.058594 239.261719 447.25 234.675781 451.59375 236.890625 C 452.691406 237.515625 454.734375 238.664063 452.390625 238.824219 C 450.863281 239.394531 451.996094 241.988281 449.765625 241.214844 C 448.582031 240.515625 450.742188 243.84375 448.46875 244.324219 C 447.1875 244.433594 448.832031 245.855469 447.65625 245.53125 C 446.488281 245.339844 447.078125 245.878906 447.371094 246.238281 C 447.46875 246.355469 447.375 246.515625 447.222656 246.457031 C 446.664063 246.238281 445.386719 245.507813 444.601563 245.128906 C 444.253906 244.960938 444.207031 245.199219 444.421875 245.363281 C 445.066406 245.859375 446.148438 246.476563 446.617188 246.933594 C 446.808594 247.121094 446.648438 247.402344 446.4375 247.335938 C 445.355469 246.984375 442.199219 245.550781 440.824219 245.050781 C 440.453125 244.914063 440.363281 245.089844 440.738281 245.3125 C 442.191406 246.175781 445.933594 248.042969 445.789063 248.210938 C 445.257813 248.816406 443.636719 248.417969 443 249.058594 C 442.058594 249.796875 445.1875 250.335938 443.167969 250.785156 C 440.078125 250.84375 442.6875 255.257813 439.761719 253.886719 C 439.089844 253.496094 435.734375 251.273438 434.390625 250.511719 C 434.074219 250.335938 433.96875 250.503906 434.304688 250.792969 C 435.523438 251.863281 438.109375 253.875 438.4375 254.886719 C 438.789063 255.417969 438.199219 255.902344 437.722656 255.445313 C 437.550781 255.371094 435.207031 253.050781 434.171875 252.183594 C 433.953125 252.003906 433.761719 252.027344 433.941406 252.308594 C 434.371094 252.988281 435.289063 254.292969 435.691406 255.035156 C 435.863281 255.351563 435.648438 255.460938 435.433594 255.246094 C 434.90625 254.71875 434.003906 253.695313 433.425781 253.140625 C 433.160156 252.886719 433.09375 253.015625 433.246094 253.253906 C 433.6875 253.945313 436.476563 258.324219 437.175781 260.746094 C 437.25 261.003906 437.09375 261.449219 436.632813 261.222656 C 435.492188 260.675781 433.277344 259.511719 431.722656 258.726563 C 430.71875 258.222656 430.679688 258.480469 431.621094 259.089844 C 433.839844 260.53125 436.984375 262.75 437.546875 263.003906 C 438.890625 263.605469 439.699219 265.714844 437.40625 265.929688 C 436.175781 266.019531 435.417969 265.640625 434.410156 264.621094 C 433.234375 263.4375 433.695313 264.597656 433.800781 265.050781 C 433.972656 265.8125 434.699219 268.957031 433.191406 267.492188 C 433.082031 267.382813 431.136719 264.992188 430.167969 263.839844 C 429.875 263.492188 429.726563 263.589844 429.988281 264.023438 C 430.546875 264.941406 431.585938 266.496094 432.078125 267.335938 C 432.28125 267.675781 432.09375 267.839844 431.816406 267.691406 C 431.195313 267.359375 430.316406 266.796875 429.175781 266.179688 C 428.851563 266.007813 428.6875 266.128906 428.980469 266.40625 C 429.484375 266.875 430.292969 267.578125 430.75 268.019531 C 430.988281 268.25 430.859375 268.347656 430.605469 268.203125 C 429.882813 267.789063 428.523438 266.902344 427.796875 266.488281 C 427.539063 266.34375 427.308594 266.519531 427.5625 266.800781 C 427.964844 267.246094 428.625 267.914063 429.070313 268.328125 C 429.664063 268.886719 429.050781 268.921875 428.835938 268.777344 C 428.1875 268.347656 425.753906 265.707031 426.835938 268.132813 C 427.339844 269.269531 425.203125 267.820313 424.363281 268.34375 C 423.429688 268.925781 424.90625 269.878906 423.542969 270.304688 C 422.847656 270.523438 421.390625 269.523438 420.210938 268.847656 C 419.898438 268.667969 419.742188 268.777344 420.003906 268.984375 C 420.738281 269.578125 422.285156 270.679688 422.386719 270.757813 C 422.738281 271.027344 422.414063 271.21875 421.804688 270.9375 C 421.46875 270.78125 418.804688 270.242188 418.335938 270.976563 C 417.789063 271.828125 416.753906 272.496094 415.414063 272.902344 C 415.300781 272.9375 414.75 272.296875 414.296875 271.804688 C 414.003906 271.488281 413.6875 271.601563 413.824219 271.988281 C 414.019531 272.527344 414.277344 273.167969 414.140625 273.191406 C 412.550781 273.449219 410.308594 272.566406 408.796875 272.894531 C 407.496094 273.179688 408.207031 274.503906 407.695313 274.226563 C 406.367188 273.503906 406.203125 274.546875 406.042969 274.578125 C 405.875 274.609375 405.738281 273.113281 405.589844 272.207031 C 405.523438 271.800781 405.296875 271.78125 405.246094 272.128906 C 405.171875 272.671875 405.09375 273.472656 405.019531 274.054688 C 404.96875 274.472656 404.496094 276.121094 402.769531 274.90625 C 401.097656 273.730469 399.011719 275.980469 401.257813 277.105469 C 402.988281 277.976563 405.691406 276.347656 407.289063 278.375 C 407.960938 280.386719 408.945313 279.476563 409.664063 278.277344 C 411.074219 276.433594 416.488281 276.765625 417.414063 275.535156 C 419.621094 272.003906 422.121094 275.84375 426.519531 272.996094 C 429.949219 271.085938 435.019531 267.789063 436.179688 269.019531 C 437.800781 269.992188 439.472656 268.382813 440.132813 267.699219 C 443.742188 263.953125 441.878906 251.328125 450.335938 250.152344 C 453.121094 249.464844 452.121094 241.027344 454.648438 243.335938 C 457.167969 244.207031 458.660156 235.453125 460.722656 236.496094 C 466.5625 240.070313 469.226563 234.324219 470.664063 235.761719 C 472.101563 237.199219 473.886719 233.792969 474.761719 232.855469 C 475.636719 231.917969 477.109375 230.382813 479.425781 227.738281 C 480.625 226.375 479.984375 226.699219 479.226563 227.328125 C 476.953125 229.21875 474.378906 231.078125 471.847656 231.953125 C 471.40625 232.128906 471.304688 231.914063 471.425781 231.773438 C 473.277344 229.621094 475.75 227.664063 477.957031 225.722656 C 478.300781 225.421875 477.9375 225.164063 477.554688 225.429688 C 475.109375 227.097656 472.65625 228.875 470.28125 230.328125 C 470.148438 230.410156 469.886719 230.152344 469.96875 230.046875 C 471.285156 228.335938 473.5625 226.785156 475.394531 225.777344 C 476.839844 224.851563 476.265625 224.382813 475.019531 225.335938 C 474.832031 225.4375 474.492188 225.648438 474.128906 225.875 C 472.941406 226.601563 471.46875 227.453125 473.949219 225.171875 C 475.246094 224.011719 476.542969 222.828125 477.859375 221.65625 C 478.242188 221.320313 478.179688 221.183594 477.765625 221.460938 C 475.164063 223.167969 472.550781 224.996094 470.113281 226.972656 C 469.824219 227.171875 469.148438 226.835938 469.90625 226.03125 C 472.945313 223.429688 478.136719 218.234375 478.761719 217.609375 C 479.386719 216.984375 479.015625 216.6875 478.390625 217.1875 C 477.765625 217.6875 473.816406 221.214844 471.671875 222.921875 C 471.441406 223.105469 471.304688 222.9375 471.484375 222.683594 C 473.769531 220.367188 477.539063 214.964844 478.378906 213.566406 C 479.027344 212.484375 480.699219 213.445313 480.714844 213.347656 C 481.488281 213.878906 485.839844 217.503906 485.101563 214.898438 C 484.316406 212.117188 491.53125 217.90625 496.679688 219.015625 C 498.644531 219.667969 499.726563 217.925781 498.015625 216.507813 C 496.691406 215.453125 495.121094 214.730469 493.351563 214.734375 C 490.96875 215.328125 490.410156 212.164063 488.027344 212.757813 C 485.703125 212.679688 481.859375 209.832031 482.914063 207.96875 C 483.808594 205.550781 473.792969 203.804688 468.121094 202.601563 C 464.121094 201.34375 464.636719 201 464.941406 199.523438 C 466.410156 197.136719 472.285156 203.550781 476.972656 202.355469 C 478.492188 201.800781 478.960938 203.546875 479.960938 203.910156 C 483.480469 205.820313 487.824219 205.664063 485.429688 202.75 C 484.894531 202.488281 484.296875 201.269531 485.167969 201.640625 C 487.140625 202.261719 487.464844 205.144531 488.921875 206.648438 C 489.40625 207.148438 491.742188 207.527344 491.140625 206.136719 C 490.699219 205.128906 490.28125 204.03125 489.800781 203.019531 C 489.515625 202.421875 490.722656 201.953125 491.28125 202.53125 C 492.8125 204.117188 494.414063 206.117188 495.589844 207.828125 C 496.464844 209.101563 498.886719 208.988281 498.171875 207.265625 C 498.441406 203.585938 506.566406 213.183594 506.003906 209.355469 C 505.5625 206.496094 508 210.511719 508.339844 208.050781 C 508.441406 206.195313 516.347656 211.328125 520.53125 212.542969 C 523.269531 213.296875 524.683594 211.53125 520.984375 209.503906 Z M 83.539063 190.878906 C 81.296875 194.015625 79.367188 193.816406 73.824219 193.621094 C 65.121094 193.589844 12.105469 190.257813 46.65625 176.773438 C 47.222656 176.414063 47.648438 174.867188 46.078125 174.128906 C 44.769531 173.378906 42.917969 173.078125 41.898438 172.773438 C 41.199219 172.566406 42.011719 171.96875 42.332031 171.96875 C 44.164063 171.96875 46.210938 172.253906 47.28125 170.671875 C 49.820313 170.648438 48.167969 169.667969 47.066406 168.925781 C 45.90625 168.117188 44.257813 168.328125 43.074219 168.371094 C 41.207031 168.480469 41.632813 167.636719 43.058594 167.484375 C 43.988281 167.027344 44.996094 166.613281 45.480469 165.753906 C 45.992188 165.324219 45.773438 164.542969 44.921875 164.535156 C 44.050781 164.515625 40.171875 164.433594 39.382813 163.15625 C 39.492188 161.285156 42.667969 164.1875 44.660156 163.542969 C 45.296875 163.507813 45.398438 162.359375 44.585938 162.1875 C 40.113281 159.089844 44.363281 155.945313 40.394531 155.191406 C 39.707031 155.058594 38.777344 155.027344 40.316406 154.078125 C 44.003906 151.371094 37.960938 148.007813 38.601563 144.128906 C 38.675781 143.664063 37.84375 142.757813 37.140625 143.480469 C 34.71875 145.964844 32.359375 152.871094 34.457031 151.847656 C 35.820313 150.382813 36.121094 151.363281 35.554688 152.371094 C 34.890625 153.558594 33.667969 155.421875 34.457031 156.324219 C 35.363281 157.390625 32.214844 157.222656 31.320313 158.34375 C 30.65625 160.390625 32.300781 160.316406 33.566406 160.226563 C 35.140625 160.007813 35.664063 160.683594 34.269531 161.277344 C 24.289063 164.65625 28.925781 165.960938 29.546875 165.96875 C 31.226563 166.070313 31.84375 167.503906 29.675781 167.300781 C 29.003906 167.414063 28.40625 166.070313 27.621094 166.40625 C 26.660156 167.277344 27.230469 167.863281 28.105469 168.269531 C 30.304688 169.113281 29.835938 169.832031 27.851563 169.152344 C 23.101563 167.605469 16.886719 166.226563 16.367188 162.1875 C 16.1875 154.628906 16.121094 150.773438 16.207031 142.515625 C 15.976563 139.300781 18.304688 138.933594 18.867188 139.238281 C 19.253906 139.453125 23.078125 141.953125 25.730469 140.65625 C 26.609375 139.816406 22.984375 139.527344 24.863281 138.796875 C 27.980469 137.746094 27.832031 136.9375 25.738281 135.855469 C 25.242188 135.597656 26 135.371094 26 135.371094 L 81.578125 135.273438 C 81.578125 135.273438 86.417969 134.882813 82.105469 136.195313 C 81.351563 136.675781 80.636719 137.339844 80.488281 138.183594 C 80.824219 139.863281 82.167969 140.757813 83.734375 141.765625 C 85.46875 143.894531 76.007813 142.296875 79.253906 145.015625 C 86.730469 146.855469 68.730469 150.480469 78.914063 151.324219 C 82.535156 151.0625 82.660156 152.34375 80.820313 153.050781 C 79.613281 155.191406 75.511719 155.09375 73.261719 156.09375 C 71.265625 156.21875 70.652344 157.898438 72.808594 158.484375 C 75.113281 159.074219 78.21875 158.621094 80.191406 158.621094 C 81.703125 158.480469 82.390625 159.726563 80.8125 160.25 C 77.746094 162.589844 69.609375 162.335938 70.40625 165.511719 C 70.796875 167.386719 66.648438 166.707031 64.863281 167.496094 C 63.566406 167.898438 63.601563 169.214844 64.710938 169.550781 C 66.984375 170.222656 69.0625 168.535156 70.742188 169.207031 C 72.992188 170.375 77.789063 166.40625 81.582031 166.640625 C 82.382813 166.6875 82.765625 167.886719 82.109375 168.160156 C 77.402344 170.140625 72.652344 169.871094 68.09375 172.632813 C 67.070313 172.910156 66.929688 174.171875 68.238281 174.359375 C 72.480469 175.84375 78.367188 173.078125 82.839844 173.574219 C 84.878906 174.347656 84.300781 176.585938 81.855469 176.5625 C 80.382813 176.539063 75.488281 175.128906 76.789063 177.269531 C 79.507813 180.421875 68.039063 177.808594 63.550781 178.742188 C 61.589844 178.710938 61.292969 180.898438 62.699219 181.476563 C 64.53125 182.4375 67.410156 181.039063 68.867188 182.980469 C 69.882813 184.429688 74.648438 182.734375 77.804688 182.96875 C 79.660156 182.875 79.726563 183.855469 78.011719 184.089844 C 72.847656 185.019531 64.304688 188.535156 60.574219 188.367188 C 59.371094 188.539063 58.726563 190.328125 60.058594 190.359375 C 61.792969 191.46875 64.765625 189.359375 67.160156 190.933594 C 69.875 192.164063 81.195313 190.179688 81.792969 189.914063 C 83.183594 189.296875 85.578125 189.074219 83.539063 190.878906 Z M 85.234375 130.589844 C 83.957031 131.433594 84.519531 132.917969 84.519531 132.917969 L 40.980469 133.679688 C 40.980469 133.679688 41.148438 131.988281 42.789063 131.761719 C 43.941406 131.605469 44.261719 130.695313 42.75 130.441406 C 42.078125 130.328125 42.609375 129.136719 43.027344 128.980469 C 44.003906 128.617188 44.441406 127.875 45.542969 127.011719 C 48.453125 125.21875 51.449219 133.253906 51.816406 128.886719 C 51.796875 126.914063 54.46875 126.105469 55.09375 128.765625 C 56.046875 130.792969 58.21875 130.5625 58.3125 129.671875 C 59.285156 126.382813 65.683594 128.488281 67.242188 128.8125 C 68.578125 129.109375 69.378906 127.921875 69.425781 126.308594 C 69.824219 121.25 74.230469 129.007813 76.078125 124.542969 C 80.9375 114.652344 81.914063 129.191406 85.214844 129.007813 C 85.652344 129.382813 85.546875 130.386719 85.234375 130.589844 Z M 367.109375 261.03125 C 366.527344 260.382813 365.710938 259.390625 365.152344 258.777344 C 365.382813 258.550781 365.609375 258.328125 365.832031 258.101563 C 366.410156 259.082031 367.042969 260.140625 367.433594 260.847656 C 367.691406 261.320313 367.460938 261.425781 367.109375 261.03125 Z M 401.476563 239.226563 C 399.0625 238.917969 403.355469 241.695313 400.9375 243.089844 C 400.769531 243.1875 397.648438 240.734375 396.105469 239.65625 C 395.636719 239.328125 395.488281 239.496094 395.945313 239.933594 C 396.917969 240.863281 398.671875 242.40625 399.539063 243.257813 C 399.894531 243.605469 399.722656 243.863281 399.339844 243.773438 C 398.378906 243.550781 396.683594 243.046875 395.660156 242.804688 C 395.214844 242.695313 395.054688 242.894531 395.5 243.136719 C 396.257813 243.542969 397.464844 244.128906 398.15625 244.515625 C 398.519531 244.714844 398.398438 244.875 398.046875 244.78125 C 397.039063 244.515625 395.109375 243.886719 394.097656 243.621094 C 393.742188 243.53125 393.519531 243.816406 393.917969 244.074219 C 394.546875 244.480469 395.59375 245.011719 396.230469 245.429688 C 396.644531 245.703125 396.398438 246.152344 396.09375 246.050781 C 395.171875 245.738281 392.683594 244.429688 393.464844 245.917969 C 394.1875 247.292969 391.394531 246.066406 390.554688 246.96875 C 389.613281 247.976563 392.886719 248.710938 390.195313 249.605469 C 390.097656 249.636719 388.175781 246.152344 386.726563 245.9375 C 386.28125 245.867188 386.140625 246 386.519531 246.167969 C 387.597656 246.644531 388.867188 250.386719 388.945313 250.523438 C 389.269531 251.109375 389.003906 251.511719 388.300781 250.929688 C 387.945313 250.636719 383.222656 249.808594 383.378906 250.882813 C 383.835938 254.050781 379.808594 255.992188 379.464844 254.566406 C 378.457031 250.382813 375.757813 258.046875 373.226563 257.5 C 371.601563 257.148438 370.632813 260.332031 370.445313 260.421875 C 370.253906 260.511719 369.601563 258.75 369.128906 257.703125 C 368.921875 257.238281 368.636719 257.28125 368.691406 257.722656 C 368.777344 258.402344 368.941406 259.394531 369.039063 260.117188 C 369.113281 260.644531 368.816406 260.816406 368.472656 260.40625 C 367.902344 259.726563 367.039063 258.632813 366.265625 257.660156 C 369.015625 254.820313 370.992188 252.066406 371.523438 249.574219 C 372.984375 242.730469 388.625 239.582031 402.140625 238.125 C 403.703125 238.300781 403.09375 239.4375 401.476563 239.226563 Z M 416.816406 238.175781 C 415.902344 238.015625 414.96875 237.820313 414.027344 237.601563 C 413.554688 237.492188 413.574219 237.199219 414.035156 237.175781 C 414.691406 237.136719 415.316406 237.105469 415.910156 237.078125 C 416.203125 237.285156 416.492188 237.496094 416.757813 237.71875 C 417.132813 238.007813 417 238.207031 416.816406 238.175781 Z M 417.753906 232.269531 C 416.648438 231.992188 413.371094 228.382813 411.972656 227.226563 C 411.71875 227.019531 411.542969 226.617188 412.378906 226.917969 C 413.214844 227.21875 416.964844 230.988281 418.242188 231.636719 C 419.519531 232.285156 419.371094 232.671875 417.753906 232.269531 Z M 405.042969 193.050781 C 402.476563 193.128906 401.921875 196.054688 399.6875 195.980469 C 399.257813 195.96875 398.625 194.722656 398.886719 194.320313 C 400.179688 192.351563 402.082031 190.675781 404.113281 189.417969 C 404.589844 189.121094 405.40625 189.433594 405.277344 189.851563 C 404.949219 190.929688 404.527344 192.007813 405.042969 193.050781 Z M 397.238281 178.5625 C 399.953125 180.964844 382.539063 176.257813 387.277344 180.140625 C 389.984375 183.824219 371.707031 179.679688 374.941406 183.804688 C 379.394531 185.949219 360.410156 186.320313 364.03125 188.949219 C 367.214844 190.824219 356.65625 189.390625 357.371094 192.015625 C 357.023438 194.433594 352.621094 192.894531 351.054688 194.546875 C 347.972656 196.105469 350.578125 198.566406 352.410156 197.464844 C 353.800781 196.632813 355.300781 195.648438 356.628906 196.21875 C 358.710938 198.171875 363.230469 192.023438 366.027344 193.28125 C 369.484375 194.265625 372.324219 190.691406 374.617188 188.769531 C 376.050781 187.238281 376.902344 188.109375 376.71875 189.152344 C 375.613281 192.605469 379.179688 193.394531 379.679688 191.636719 C 379.945313 188.738281 381.210938 188.730469 383.289063 188.386719 C 384.210938 188.085938 386.046875 188.585938 385.753906 189.328125 C 385.15625 190.324219 385.582031 191.835938 387.277344 191.992188 C 388.328125 192.394531 389 191.164063 389.5625 190.503906 C 389.988281 190.003906 391.007813 189.867188 391.429688 191.007813 C 390.175781 196.574219 398.589844 191.183594 396.738281 196.117188 C 395.617188 198.265625 386.144531 196.097656 390.355469 200.0625 C 392.457031 202.671875 370.765625 200.484375 372.929688 203.488281 C 375.15625 206.273438 363.039063 206.257813 358.800781 209.003906 C 357.011719 210.035156 358.394531 211.707031 360.566406 210.699219 C 363.550781 209.742188 367.449219 207.730469 369.847656 208.996094 C 374.382813 212.214844 382.511719 203.90625 386.0625 206.296875 C 390.109375 208.683594 394.339844 203.855469 398.566406 205.777344 C 402.957031 207.554688 407.191406 205.945313 411.359375 204.097656 C 415.363281 201.773438 416.925781 202.523438 415.910156 205.199219 C 413.101563 212.183594 418.121094 210.035156 421.355469 206.835938 C 424.789063 204.40625 426.765625 204.050781 427.648438 205.503906 C 427.699219 207.265625 427.953125 208.605469 428.007813 209.066406 C 428.484375 213.285156 428.363281 219.875 428.1875 224.253906 C 428.1875 224.253906 427.980469 228.660156 427.460938 226.136719 C 426.9375 223.609375 426.5625 221.535156 426.875 220.308594 C 426.957031 219.972656 426.824219 219.929688 426.691406 220.25 C 425.695313 222.628906 425.640625 225.144531 424.984375 227.601563 C 424.851563 228.515625 424.59375 228.617188 424.496094 227.90625 C 424.382813 226.886719 424.113281 225.933594 424.074219 225.015625 C 424.0625 224.71875 423.90625 224.644531 423.886719 225.007813 C 423.863281 225.5 423.894531 226.089844 423.859375 226.625 C 423.847656 226.839844 423.632813 226.886719 423.558594 226.714844 C 422.671875 224.550781 422.269531 222.1875 421.75 219.894531 C 421.621094 219.324219 421.460938 219.378906 421.542969 219.96875 C 421.878906 222.300781 422.367188 224.636719 422.460938 226.964844 C 422.472656 227.277344 422.265625 227.367188 422.164063 227.097656 C 420.519531 222.777344 418.992188 218.3125 417.613281 213.710938 C 417.457031 213.183594 417.304688 213.199219 417.402344 213.730469 C 418.242188 218.28125 419.964844 222.652344 420.671875 227.097656 C 420.722656 227.414063 420.550781 227.59375 420.363281 227.238281 C 418.625 223.949219 413.648438 213.894531 411.867188 210.648438 C 411.167969 209.371094 410.964844 209.144531 411.644531 210.796875 C 412.199219 212.144531 417.460938 222.847656 418.136719 224.953125 C 418.363281 225.503906 418.082031 225.4375 417.914063 225.179688 C 415.769531 221.929688 413.707031 218.617188 411.511719 215.410156 C 411.144531 214.871094 411.035156 214.992188 411.371094 215.585938 C 413.3125 219.003906 415.515625 222.371094 416.90625 225.929688 C 417.015625 226.207031 416.847656 226.320313 416.660156 226.097656 C 414.429688 223.449219 412.066406 220.980469 409.296875 218.867188 C 408.761719 218.460938 408.652344 218.648438 409.15625 219.136719 C 411.746094 221.660156 414.289063 224.34375 416.105469 227.386719 C 416.242188 227.609375 416.046875 227.863281 415.828125 227.699219 C 414.308594 226.5625 412.976563 223.746094 410.761719 225.734375 C 409.667969 224.90625 408.703125 223.871094 407.71875 222.949219 C 407.140625 222.40625 407.097656 222.523438 407.644531 223.070313 C 408.632813 224.054688 409.492188 225.046875 410.367188 226.140625 C 409.636719 227.015625 409.347656 228.054688 409.195313 229.09375 C 409.15625 229.34375 409.3125 229.460938 409.421875 229.269531 C 409.867188 228.476563 410.53125 227.886719 411.308594 227.417969 C 413.28125 229.355469 415.109375 231.171875 416.757813 233.429688 C 416.898438 233.625 416.972656 233.976563 416.621094 233.765625 C 415.171875 233.023438 413.628906 231.714844 411.898438 230.824219 C 411.632813 230.6875 411.523438 230.847656 411.75 231.035156 C 412.917969 232.011719 414.199219 232.832031 415.328125 233.8125 C 408.285156 231.21875 397.621094 227.488281 398.59375 233.429688 C 398.976563 235.761719 395.433594 236.550781 395.273438 236.550781 C 392.667969 236.582031 389.476563 233.484375 388.746094 234.289063 C 387.894531 235.226563 382.78125 233.902344 382.875 235.675781 C 382.96875 237.449219 381.152344 239.3125 380.683594 237.261719 C 380.21875 235.207031 376.023438 236.238281 375.652344 234.652344 C 375.277344 233.066406 372.347656 236.324219 371.777344 235.875 C 370.292969 234.707031 369.574219 234.933594 369.667969 235.960938 C 369.761719 236.988281 368.425781 236.78125 368.515625 235.101563 C 368.609375 233.421875 366.378906 237.273438 365.632813 235.78125 C 364.886719 234.285156 363.667969 237.664063 362.527344 236.535156 C 361.984375 236 361.386719 233.800781 359.183594 234.4375 C 358.332031 234.683594 359.484375 228.410156 355.960938 229.042969 C 354.839844 222.328125 352.722656 223.429688 352.058594 227.265625 C 351.824219 228.613281 352.117188 230.851563 352.242188 232.480469 C 352.339844 233.78125 351.636719 234.035156 350.890625 233.285156 C 350.027344 232.417969 348.722656 231.183594 347.425781 229.980469 C 347.316406 229.882813 347.476563 227.121094 347.476563 227.121094 L 345.949219 227.023438 C 345.949219 227.023438 345.988281 228.660156 345.796875 228.484375 C 344.390625 227.210938 342.347656 225.878906 342.347656 225.878906 C 342.347656 225.878906 329.609375 232.515625 325.90625 234.367188 C 323.71875 235.699219 329.15625 234.667969 329.15625 234.667969 C 329.15625 234.667969 329.195313 239.746094 329.113281 241.65625 L 327.523438 241.636719 L 327.542969 240.085938 L 326.210938 240.070313 L 326.195313 241.621094 L 322.90625 241.582031 L 322.921875 240.03125 L 321.59375 240.015625 L 321.574219 241.566406 L 318.101563 241.527344 L 318.117188 240.050781 L 316.785156 240.035156 L 316.769531 241.511719 L 314.183594 241.484375 L 314.199219 240.152344 L 312.867188 240.136719 L 312.851563 241.46875 L 310.414063 241.441406 L 310.429688 240.035156 L 309.097656 240.019531 L 309.070313 242.402344 C 308.46875 242.402344 307.28125 242.730469 305.230469 243.449219 C 300.855469 244.445313 298.347656 244.222656 294.371094 244.242188 C 294.558594 245.035156 294.140625 246.101563 295.160156 246.125 C 299.421875 246.109375 302.699219 246.027344 307.074219 245.933594 C 307.644531 245.496094 309.171875 243.757813 309.273438 243.570313 L 310.390625 243.585938 L 310.402344 242.476563 L 312.839844 242.503906 L 312.828125 243.683594 L 314.15625 243.699219 L 314.171875 242.519531 L 316.757813 242.546875 L 316.746094 243.582031 L 318.078125 243.597656 L 318.089844 242.5625 L 321.5625 242.601563 L 321.550781 243.5625 L 322.882813 243.578125 L 322.894531 242.617188 L 326.183594 242.65625 L 326.171875 243.617188 L 327.503906 243.632813 L 327.511719 242.671875 C 327.511719 242.671875 334.484375 242 338.199219 242.566406 C 339.6875 242.792969 340.992188 243.417969 340.4375 243.964844 C 283.691406 299.964844 154.929688 294.609375 92.246094 248.304688 C 87.992188 244.175781 83.359375 239.867188 86.804688 239.554688 C 90.359375 237.992188 95.613281 235.546875 87.902344 232.59375 C 83.425781 230.421875 75.996094 226.03125 71.105469 222.652344 C 70.105469 221.871094 70.074219 221.128906 71.898438 220.171875 C 79.511719 216.882813 105.898438 212.386719 109.789063 209.980469 C 111.773438 209.390625 111.683594 206.84375 109.492188 206.285156 C 106.25 205.460938 101.21875 203.765625 94.734375 201.011719 C 94.113281 200.910156 94.089844 199.945313 95.007813 199.683594 C 96.398438 199.285156 97.851563 201.128906 99.414063 199.78125 C 104.453125 196.960938 108.765625 203.125 113.496094 200.980469 C 114.722656 200.421875 114.8125 198.96875 113.273438 198.828125 C 111.167969 198.550781 107.898438 200.535156 107.925781 196.980469 C 107.898438 194.882813 93.625 197.296875 90.269531 194.371094 C 89.433594 194.152344 89.945313 192.636719 90.992188 192.839844 C 94.257813 193.472656 97.695313 196.097656 97.480469 192.808594 C 97.304688 191.011719 105.953125 196.882813 110.671875 194.484375 C 111.847656 194.210938 112.214844 192.273438 110.328125 191.789063 C 107.785156 190.535156 101.1875 193.003906 100.980469 190.597656 C 100.28125 187.265625 91.96875 184.324219 90.945313 184.019531 C 89.363281 183.429688 90.285156 181.328125 91.796875 182.085938 C 98.195313 185.003906 104.871094 186.253906 111.410156 184.945313 C 112.796875 184.753906 113.300781 183.210938 111.390625 183.113281 C 110.101563 182.925781 106.941406 183.550781 107.925781 181.636719 C 108.878906 178.949219 94.207031 180.546875 94.933594 178.054688 C 96.050781 175.886719 93.566406 176.34375 91.964844 175.902344 C 90.148438 175.640625 91.113281 174.449219 92.484375 174.054688 C 97.125 172.726563 100.503906 176.484375 107.3125 176.09375 C 108.738281 175.925781 108.878906 174.160156 107.507813 173.910156 C 104.144531 172.902344 96.082031 173.65625 94.121094 167.328125 C 94.011719 166.070313 95.296875 165.511719 96.25 166.855469 C 98.546875 168.953125 104.007813 170.214844 107.480469 169.207031 C 109.144531 168.828125 108.824219 166.238281 107.03125 166.742188 C 104.679688 167.75 100.394531 166.363281 100.199219 164.726563 C 100.011719 160.363281 94.988281 163.558594 93.941406 161.414063 C 92.605469 159.011719 93.785156 158.230469 96.140625 159.371094 C 98.234375 159.460938 100.582031 160.199219 102.742188 159.835938 C 105.089844 159.859375 105.40625 157.59375 103.316406 157.148438 C 102.117188 156.867188 97.503906 158.125 95.914063 155.949219 C 94.914063 153.820313 97.757813 153.753906 98.9375 154.359375 C 100.667969 155.785156 102.644531 155.628906 103.839844 155.496094 C 105.003906 155.566406 105.59375 153.546875 104.285156 153.324219 C 102.476563 152.46875 97.808594 153.140625 99.667969 150.976563 C 100.417969 150.128906 99.722656 149.53125 97.96875 150.769531 C 96.621094 151.730469 95.339844 151.445313 95.832031 150.613281 C 97.117188 146.675781 94.074219 148.242188 92.21875 148.066406 C 91.332031 147.984375 90.347656 147.425781 90.902344 146.496094 C 91.265625 146.414063 91.652344 145.675781 92.050781 145.671875 C 94.15625 143.960938 95.910156 145.40625 97.273438 145.480469 C 98.855469 145.816406 99.6875 144.222656 97.847656 143.78125 C 92.890625 143.53125 96.613281 138.40625 90.902344 139.75 C 86.785156 140.085938 91.042969 135.71875 91.042969 135.71875 L 399.984375 136.136719 C 399.984375 136.136719 405.628906 136.34375 400.171875 136.921875 C 395.488281 137.414063 391.269531 138.195313 391.761719 139.378906 C 393.402344 142.882813 374.652344 137.695313 378.628906 141.59375 C 379.355469 144.558594 373.921875 145.484375 370.539063 145.144531 C 366.445313 145.347656 364.238281 149.558594 360.113281 148.742188 C 355.613281 147.617188 354.4375 153.289063 359.140625 151.703125 C 362.433594 150.050781 366.433594 148.484375 366.421875 150.421875 C 366.035156 152.269531 370.023438 151.824219 369.765625 148.742188 C 369.636719 147.179688 372.292969 148.421875 371.964844 150.140625 C 371.070313 154.847656 379.019531 145.554688 380.128906 146.453125 C 383.773438 149.132813 392.890625 140.949219 390.859375 145.222656 C 388.667969 149.648438 393.890625 150.441406 396.445313 146.660156 C 400.679688 146.777344 412.683594 147.964844 419.296875 144.738281 C 423.015625 143.199219 423.121094 146.808594 420.679688 147.152344 C 415.875 147.828125 410.238281 150.253906 410.699219 152.347656 C 409.425781 156.132813 391.507813 153.257813 393.0625 155.292969 C 394.378906 159.042969 382.960938 158.199219 374.578125 161.183594 C 371.230469 162.285156 368.339844 165.445313 364.816406 165.203125 C 362.496094 166.617188 359.007813 166.75 356.507813 167.886719 C 355.007813 168.566406 355.878906 170.28125 357.15625 169.800781 C 359.996094 168.730469 363.160156 168.117188 366.410156 168.105469 C 369.628906 169.824219 371.609375 164.34375 374.972656 166.226563 C 377.226563 168.449219 381.410156 162.863281 382.308594 165.46875 C 383.585938 168.351563 386.261719 166.515625 387.449219 164.609375 C 390.148438 162.222656 388.914063 168.523438 392.464844 166.488281 C 393.816406 165 395.464844 165.019531 396.769531 164.210938 C 397.378906 163.828125 397.769531 164.035156 397.367188 164.910156 C 396.695313 166.367188 396.277344 167.441406 396.644531 169.402344 C 397.363281 170.824219 398.707031 171.777344 400.765625 169.726563 C 401.464844 169.429688 402.128906 167.15625 402.753906 166.023438 C 403.628906 164.445313 409.222656 160.519531 409.503906 164.089844 C 409.746094 165.503906 411.484375 166.789063 412.535156 165.453125 C 413.304688 163.980469 414.695313 164.019531 413.230469 166.542969 C 413.15625 169.742188 421.152344 167.097656 424.019531 163.710938 C 428.316406 158.71875 430.230469 165.820313 426.230469 168.34375 C 419.054688 172.460938 406.894531 168.414063 407.058594 173.289063 C 406.25 178.902344 394.339844 175.105469 397.238281 178.5625 Z M 331.914063 233.953125 L 331.84375 238.722656 L 330.308594 238.703125 L 330.371094 234.371094 Z M 428.59375 123.691406 C 427.597656 124.824219 425.644531 122.902344 423.847656 122.738281 C 421.386719 122.78125 419.339844 120.097656 420.992188 118.367188 C 421.34375 117.84375 421.617188 117.445313 421.828125 117.152344 C 422.757813 115.871094 423.035156 116.613281 423.050781 117.546875 C 423.128906 119.730469 427.253906 120.796875 428.101563 118.269531 C 428.375 117.394531 428.828125 117.953125 428.894531 118.960938 C 428.957031 119.964844 428.882813 121.691406 428.59375 123.691406 Z M 459.226563 91.027344 C 459.953125 91.824219 460.488281 91.070313 461.140625 90.730469 C 461.355469 90.617188 461.90625 91.195313 461.925781 91.496094 C 462.089844 93.859375 461.734375 96.402344 461.6875 98.832031 C 459.617188 99.519531 457.132813 97.285156 454.671875 97.878906 C 452.363281 98.855469 447.136719 95.476563 442.859375 93.601563 C 442.347656 93.414063 442.46875 92.546875 443.0625 92.359375 C 446.421875 91.308594 450.164063 91.238281 453.597656 90.53125 C 455.511719 89.914063 457.867188 88.21875 459.226563 91.027344 Z M 432.664063 85.007813 C 431.773438 81.316406 431.992188 77.898438 431.929688 74.128906 C 431.914063 73.4375 432.542969 73.175781 432.871094 73.828125 C 433.296875 74.6875 433.757813 75.589844 434.476563 76.378906 C 435.472656 76.972656 436.96875 76.808594 437.652344 75.660156 C 436.851563 69.859375 439.496094 74.476563 440.070313 75.933594 C 440.230469 78.738281 443.027344 78.738281 443.460938 77.34375 C 442.269531 72.503906 445.375 76.074219 445.445313 78.535156 C 445.65625 80.140625 447.726563 80.132813 448.796875 79.003906 C 448.894531 76.890625 450.226563 77.554688 450.820313 79.386719 C 451.40625 82.636719 455.371094 80.128906 457.3125 81.722656 C 457.75 82.078125 457.691406 83.03125 457.289063 83.140625 C 450.785156 84.90625 444.828125 88.382813 438.378906 90.371094 C 435.808594 90.539063 435.070313 85.589844 432.664063 85.007813 Z M 435.335938 100.105469 C 435.675781 99.425781 436.195313 99.546875 436.484375 100.277344 C 437.011719 101.605469 437.433594 102.980469 438.289063 104.183594 C 442.363281 106.019531 438.4375 99.324219 442.070313 102.160156 C 444.582031 103.296875 447.753906 102.058594 448.175781 99.722656 C 448.125 97.265625 450.207031 100.679688 452.867188 100.351563 C 454.6875 99.886719 454.625 102.238281 454.277344 102.527344 C 449.867188 106.230469 443.039063 104.785156 437.871094 106.4375 C 437.105469 106.011719 436.9375 104.511719 435.78125 104.066406 C 431.535156 104.222656 434.324219 102.144531 435.335938 100.105469 Z M 434.785156 125.40625 C 434.808594 125 436.132813 123.804688 436.765625 123.75 C 439.1875 123.535156 443.078125 119.613281 444.132813 123.683594 C 444.410156 127.277344 447.464844 124.070313 449.261719 123.058594 C 451.339844 121.6875 455.761719 120.558594 453.710938 125.304688 C 453.320313 127.347656 460.738281 127.9375 455.964844 128.878906 C 454.101563 129.351563 448.914063 128.476563 451.140625 131.621094 C 451.511719 134.933594 438.808594 136.933594 434.796875 130.3125 C 434.628906 128.519531 434.695313 127.15625 434.785156 125.40625 Z M 435.367188 160.320313 C 440.929688 160.5 446.734375 158.886719 451.878906 157.945313 C 453.625 157.976563 454.140625 160.960938 454.214844 161.136719 C 454.386719 161.542969 454.128906 162.03125 453.746094 162.179688 C 452.195313 162.78125 444.921875 161.257813 446.585938 163.796875 C 448.945313 167.097656 442.300781 164.828125 435.664063 167.398438 C 435.0625 165.171875 435.890625 162.539063 435.367188 160.320313 Z M 438.996094 171.722656 C 441.382813 170.71875 445.777344 167.699219 447.320313 171.628906 C 448.972656 173.796875 450.824219 168.285156 451.25 171.496094 C 451.605469 172.296875 453.503906 174.558594 455.074219 172.667969 C 456.789063 171.671875 459.171875 169.203125 459.457031 169.746094 C 459.96875 170.734375 459.304688 173.96875 459.292969 175.792969 C 453.917969 179.390625 457.023438 182.4375 453.519531 183.453125 C 449.367188 180.894531 448.242188 177.808594 443.402344 175.648438 C 442.59375 175.183594 433.695313 172.453125 438.996094 171.722656 Z M 435.054688 143.351563 C 435.371094 143.289063 436.863281 139.382813 438.148438 143.835938 C 438.980469 146.722656 440.734375 145.695313 441 143.460938 C 441.273438 142.433594 441.640625 141.4375 442.472656 142.519531 C 444.316406 144.402344 446.179688 145.894531 447.632813 147.929688 C 447.894531 148.289063 447.617188 149.390625 447.238281 149.539063 C 443.65625 150.949219 439.941406 151.804688 436.335938 152.988281 C 434.609375 153.890625 434.492188 145.914063 435.054688 143.351563 Z M 459.761719 206.699219 C 458.816406 212.933594 458.726563 218.140625 458.621094 218.671875 C 457.675781 223.355469 454.527344 222.175781 454.6875 220.839844 C 454.929688 220.199219 454.976563 219.65625 456.289063 218.054688 C 457.707031 216.398438 457.097656 216.214844 455.761719 217.570313 C 455.300781 218.101563 454.980469 218.507813 454.289063 219.027344 C 453.855469 219.355469 453.691406 218.996094 453.882813 218.652344 C 455.460938 215.847656 454.945313 215.855469 457.621094 213.476563 C 458.007813 213.132813 457.738281 212.929688 457.226563 213.242188 C 454.644531 214.828125 455.40625 214.996094 453.195313 216.753906 C 452.953125 216.941406 452.664063 216.777344 452.757813 216.519531 C 453.847656 213.53125 455.054688 210.316406 457.175781 207.625 C 457.476563 207.238281 457.308594 207.121094 456.9375 207.464844 C 454.507813 209.722656 453.289063 212.921875 451.039063 215.460938 C 450.8125 215.710938 450.316406 215.566406 450.324219 215.257813 C 450.445313 211.199219 452.34375 207.539063 453.875 203.996094 C 454.109375 203.457031 453.953125 203.203125 453.671875 203.625 C 451.703125 206.574219 450.6875 209.933594 449.269531 213.152344 C 449.070313 213.882813 448.578125 215.511719 448.476563 212.90625 C 447.953125 209.402344 447.863281 209.304688 447.894531 207.179688 C 447.921875 205.050781 447.359375 204.882813 447.257813 207.074219 C 447.15625 209.269531 446.65625 213.457031 446.578125 213.910156 C 446.414063 214.855469 446.238281 214.660156 446.042969 213.984375 C 445.769531 213.050781 445.671875 211.078125 445.296875 210 C 444.851563 208.496094 444.308594 207.539063 444.53125 210.15625 C 444.753906 212.777344 444.625 213.308594 444.371094 214.316406 C 444.289063 214.652344 443.644531 214.773438 443.40625 214.542969 C 442.527344 213.695313 441.253906 211.261719 440.109375 209.839844 C 438.003906 207.027344 438.371094 208.859375 439.480469 210.230469 C 439.921875 210.976563 444.226563 219.359375 441.601563 222.910156 C 438.476563 226.96875 438.574219 225.324219 438.574219 225.324219 C 438.535156 221.863281 435.125 203.929688 435.269531 200.644531 C 435.304688 199.855469 435.820313 199.582031 436.117188 199.910156 C 441.289063 203.050781 438.230469 199.160156 437.511719 196.457031 C 437.296875 195.648438 438.601563 195.472656 438.808594 196.03125 C 439.472656 197.003906 441.046875 196.84375 441.929688 196.492188 C 442.378906 197.429688 443.527344 198.644531 444.558594 199.394531 C 445.820313 200.316406 446.90625 200.53125 446.300781 198.65625 C 446.289063 198.183594 445.9375 197.507813 445.6875 196.882813 C 445.351563 196.054688 446.527344 196.101563 446.703125 196.492188 C 447.53125 198.316406 448.671875 199.996094 451.261719 201.710938 C 453.488281 203.257813 455.5 201.726563 453.234375 198.570313 C 451.554688 196.679688 452.101563 195.664063 455.472656 197.652344 C 461.609375 197.796875 460.058594 202.828125 459.761719 206.699219 Z M 449.40625 114.902344 C 447.289063 114.644531 445.929688 112.867188 444.308594 111.414063 C 443.539063 110.722656 443.753906 110.078125 444.894531 109.988281 C 447.988281 109.738281 451.566406 108.632813 454.664063 109.808594 C 457.515625 110.890625 458.71875 107.972656 460.910156 108.464844 C 461.3125 108.554688 461.988281 109.507813 461.988281 109.871094 C 461.992188 110.972656 462.257813 111.984375 462.210938 112.984375 C 456.429688 112.945313 453.019531 113.214844 449.40625 114.902344 Z M 468.421875 210.148438 C 469.359375 206.894531 471.414063 213.347656 473.957031 212.683594 C 475.667969 209.621094 476.429688 213.054688 478.007813 212.628906 C 474.722656 216.726563 472.652344 220.21875 468.570313 224.195313 C 468.039063 224.609375 467.605469 224.101563 468.027344 223.628906 C 471.453125 219.710938 472.023438 218.851563 474.761719 214.785156 C 475.25 214.0625 474.84375 213.890625 474.589844 214.152344 C 473.703125 215.058594 472.894531 215.429688 468.351563 220.996094 C 465.132813 224.9375 463.167969 221.414063 463.417969 218.808594 C 463.671875 216.203125 464.519531 208.054688 464.628906 207.382813 C 464.996094 205.046875 466.660156 210.929688 468.421875 210.148438 "/>
<path style=" stroke:none;fill-rule:nonzero;fill:rgb(0%,0%,0%);fill-opacity:1;" d="M 237.125 292.625 C 236.734375 292.847656 235.542969 293.148438 234.5 293.75 C 233.390625 294.390625 234.019531 294.132813 228.164063 298.972656 C 228 299.171875 227.652344 299.050781 227.699219 298.84375 C 227.84375 298.214844 228.46875 297.46875 228.839844 296.832031 C 229.683594 295.773438 230.089844 294.667969 228.214844 296.769531 C 227.34375 297.867188 226.488281 299.566406 225.789063 300.269531 C 225.597656 300.460938 224.992188 300.554688 224.871094 300.386719 C 224.511719 299.882813 224.324219 299.613281 224.191406 298.074219 C 224.0625 296.535156 223.6875 297.214844 223.472656 298.179688 C 223.265625 298.886719 223.425781 300.027344 223.296875 300.625 C 223.199219 301.058594 223.0625 301.214844 222.792969 300.71875 C 222.664063 300.484375 221.671875 298.238281 221.296875 297.023438 C 220.921875 295.808594 220.425781 296.046875 220.726563 297.242188 C 221.023438 298.441406 220.953125 298.519531 220.921875 300.632813 C 221.164063 302.132813 220.503906 301.335938 220.222656 300.976563 C 218.511719 299.515625 217.148438 297.871094 214.964844 296.703125 C 214.652344 296.535156 214.539063 296.71875 214.824219 296.964844 C 216.683594 298.582031 218.894531 300.167969 219.523438 302.433594 C 219.570313 302.609375 219.136719 302.816406 218.894531 302.730469 C 216.503906 301.867188 214.976563 300.363281 212.457031 299.707031 C 212.070313 299.605469 211.929688 299.71875 212.257813 299.855469 C 214.550781 300.839844 216.070313 302.355469 217.453125 303.769531 C 217.574219 303.890625 217.328125 304.058594 217.082031 304.011719 C 214.824219 303.582031 212.257813 302.597656 209.683594 302.355469 C 209.175781 302.308594 208.953125 302.492188 209.351563 302.589844 C 212.113281 303.253906 214.882813 304.074219 216.691406 305.261719 C 216.910156 305.40625 216.808594 305.65625 216.367188 305.578125 C 214.941406 305.328125 212.425781 304.804688 211.046875 304.597656 C 210.015625 304.445313 209.445313 304.5625 210.625 305.007813 C 214.847656 306.03125 215.996094 308.984375 217.445313 310.535156 C 218.890625 312.085938 249.742188 311.847656 253.433594 308.082031 C 253.9375 307.332031 254.761719 306.273438 258.757813 304.0625 C 259.773438 303.320313 259.195313 303.355469 258.242188 303.78125 C 256.96875 304.347656 254.683594 305.523438 253.378906 306.144531 C 252.972656 306.335938 252.804688 306.128906 252.980469 305.929688 C 254.40625 304.300781 256.855469 302.773438 259.339844 301.390625 C 259.699219 301.191406 259.433594 301.074219 258.957031 301.257813 C 256.539063 302.175781 254.328125 303.808594 252.269531 304.828125 C 252.046875 304.9375 251.765625 304.84375 251.847656 304.695313 C 252.800781 302.960938 253.863281 301.097656 255.808594 299.535156 C 256.085938 299.3125 255.921875 299.242188 255.578125 299.445313 C 253.324219 300.753906 252.253906 302.609375 250.179688 304.078125 C 249.972656 304.226563 249.496094 304.140625 249.496094 303.960938 C 249.496094 301.609375 251.199219 299.488281 252.5625 297.433594 C 252.769531 297.121094 252.613281 296.972656 252.359375 297.21875 C 250.566406 298.929688 249.691406 300.875 248.429688 302.742188 C 248.257813 303.164063 247.835938 304.109375 247.667969 302.597656 C 247.074219 300.570313 246.980469 300.511719 246.949219 299.277344 C 246.921875 298.046875 246.378906 297.949219 246.339844 299.21875 C 246.304688 300.492188 245.949219 302.917969 245.886719 303.179688 C 245.757813 303.730469 245.585938 303.617188 245.378906 303.222656 C 245.09375 302.683594 244.941406 301.539063 244.554688 300.914063 C 244.089844 300.042969 243.546875 299.488281 243.832031 301.007813 C 244.117188 302.527344 244.007813 302.832031 243.796875 303.417969 C 243.726563 303.613281 243.117188 303.683594 242.882813 303.550781 C 242.019531 303.058594 240.738281 301.648438 239.609375 300.824219 C 237.238281 299.296875 237.925781 300.257813 239.019531 301.050781 C 242.488281 303.960938 243.769531 306.871094 244.148438 308.273438 C 234.140625 312.550781 236.402344 308.414063 232.328125 308.457031 C 232.128906 308.460938 232 308.328125 232.128906 308.257813 C 232.984375 307.785156 233.667969 307.246094 234.101563 306.847656 C 234.453125 306.523438 234.148438 306.578125 233.914063 306.726563 C 233.554688 306.960938 233.195313 307.191406 232.835938 307.421875 C 231.148438 308.382813 231.570313 307.628906 232.203125 306.785156 C 232.351563 306.578125 232.636719 306.265625 232.734375 306.113281 C 233.40625 305.101563 232.84375 305.539063 232.171875 306.085938 C 231.5625 306.585938 230.726563 307.285156 230.253906 307.386719 C 230.132813 307.355469 229.964844 307.34375 229.976563 307.203125 C 230.257813 306.84375 231.511719 305.210938 232.121094 304.269531 C 232.566406 303.589844 232.671875 303.273438 231.828125 304.066406 C 231.617188 304.265625 230.292969 305.386719 229.824219 305.855469 C 229.242188 306.351563 228.636719 306.066406 229.109375 305.285156 C 233 299.75 235.125 298.25 236.375 297.5 C 239.25 295.25 239.375 294.5 236.625 296 C 232.875 299 233.835938 297.757813 228.964844 301.648438 C 228.558594 301.890625 228.441406 301.75 228.476563 301.429688 C 231.414063 297.269531 233.855469 295.203125 235.375 294.125 L 237.125 292.625 "/>
</g>
</svg>
