<?xml version="1.0" encoding="UTF-8"?>
<svg xmlns="http://www.w3.org/2000/svg" xmlns:xlink="http://www.w3.org/1999/xlink" width="537pt" height="534pt" viewBox="0 0 537 534" version="1.1">
<g id="surface1">
<path style=" stroke:none;fill-rule:nonzero;fill:rgb(0%,0%,0%);fill-opacity:1;" d="M 520.839844 464.75 C 497.65625 474.019531 486.066406 479.429688 469.84375 474.792969 C 453.617188 470.15625 419.617188 500.292969 392.574219 484.839844 C 371.683594 472.898438 386.394531 491.792969 370.941406 487.15625 C 355.488281 482.519531 325.355469 460.113281 306.808594 460.886719 C 288.265625 461.660156 277.449219 434.613281 262.769531 433.84375 C 248.941406 433.113281 258.542969 424.667969 236.996094 416.113281 C 237.359375 415.132813 237.660156 414.308594 237.851563 413.753906 C 239.734375 408.246094 238.140625 408.828125 236.980469 411.726563 C 236.589844 412.707031 236.160156 414.09375 235.6875 415.613281 C 234.9375 415.332031 234.152344 415.050781 233.328125 414.769531 C 234.179688 412.046875 235.101563 409.300781 235.820313 407.378906 C 237.558594 402.742188 235.53125 403.613281 234.660156 406.507813 C 234.15625 408.203125 232.5625 411.46875 231.265625 414.074219 C 230.820313 413.929688 230.378906 413.78125 229.945313 413.640625 C 230.308594 411.054688 230.628906 407.953125 230.894531 406.507813 C 232.054688 400.28125 229.734375 402.308594 229.15625 405.351563 C 228.855469 406.941406 228.5625 410.503906 228.226563 413.085938 C 227.03125 412.703125 225.886719 412.34375 224.769531 411.996094 C 224.441406 409.371094 224.445313 406.382813 224.519531 405.351563 C 224.957031 399.554688 222.78125 397.238281 222.78125 402.742188 C 222.78125 404.507813 222.605469 407.6875 222.417969 411.273438 C 204.527344 405.828125 196.589844 404.660156 184.730469 396.753906 C 170.820313 387.480469 165.410156 383.617188 188.59375 385.9375 C 211.773438 388.253906 239.589844 389.027344 207.136719 378.984375 C 196.351563 375.644531 187.988281 372.71875 180.484375 369.960938 C 181.269531 367.859375 182.074219 365.894531 182.796875 364.785156 C 184.679688 361.886719 184.535156 360.875 183.378906 362.324219 C 182.21875 363.769531 181.636719 365.511719 180.625 366.523438 C 179.609375 367.539063 179.175781 367.828125 179.609375 366.234375 C 180.046875 364.640625 182.21875 359.28125 183.230469 357.105469 C 184.246094 354.933594 183.519531 354.355469 182.796875 356.09375 C 182.074219 357.832031 181.347656 359.714844 180.480469 360.730469 C 179.609375 361.742188 178.742188 361.597656 179.464844 360.148438 C 180.1875 358.699219 184.957031 345.222656 185.984375 342.910156 C 187.722656 338.996094 187.144531 337.839844 185.695313 341.027344 C 184.246094 344.214844 177.292969 358.699219 176.566406 360.148438 C 175.84375 361.597656 175.410156 361.886719 175.554688 360.003906 C 175.699219 358.121094 176.703125 348.253906 177.003906 345.953125 C 177.4375 342.621094 176.566406 343.054688 176.132813 344.9375 C 175.699219 346.820313 173.234375 355.804688 172.800781 357.976563 C 172.367188 360.148438 171.785156 362.03125 171.640625 359.714844 C 171.496094 357.398438 171.207031 355.804688 171.207031 353.050781 C 171.207031 350.296875 170.484375 349.574219 170.339844 352.183594 C 170.21875 354.328125 169.410156 361.773438 168.886719 365.632813 C 158.53125 361.746094 148.21875 357.949219 132.960938 353.484375 C 120.121094 349.726563 107.828125 345.46875 96.382813 341.066406 C 101.257813 300.953125 125.207031 271.113281 127.9375 268.878906 C 132.1875 265.402344 130.640625 268.878906 129.097656 271.96875 C 127.550781 275.058594 127.550781 273.902344 124.847656 279.695313 C 122.144531 285.492188 121.757813 285.105469 119.050781 292.445313 C 116.347656 299.785156 115.96875 299.097656 114.414063 305.195313 C 111.710938 315.816406 114.804688 313.691406 115.960938 309.441406 C 117.121094 305.195313 118.664063 302.488281 119.824219 297.082031 C 120.984375 291.671875 122.914063 294.378906 121.371094 307.125 C 119.824219 319.875 123.300781 310.988281 125.234375 304.421875 C 127.164063 297.855469 127.164063 297.082031 127.164063 290.898438 C 127.164063 284.71875 129.484375 282.101563 129.484375 286.265625 C 129.484375 290.511719 128.371094 293.511719 128.902344 299.398438 C 129.359375 304.457031 131.539063 306.121094 131.914063 299.4375 C 132.117188 295.796875 132.476563 289.089844 133.152344 284.332031 C 134.273438 276.445313 135.664063 273.515625 139.140625 264.242188 C 142.617188 254.972656 143.390625 258.835938 142.230469 264.242188 C 141.074219 269.652344 136.824219 279.308594 136.4375 280.855469 C 134.890625 287.035156 138.753906 282.015625 140.300781 277.765625 C 141.847656 273.515625 144.164063 267.71875 147.640625 260.765625 C 151.117188 253.8125 152.277344 258.0625 150.34375 261.925781 C 148.414063 265.789063 148.800781 263.46875 145.324219 272.742188 C 141.847656 282.015625 144.1875 282.449219 149.1875 274.671875 C 150.925781 271.96875 152.46875 270.035156 155.367188 266.175781 C 158.273438 262.300781 157.300781 268.878906 153.4375 275.832031 C 149.574219 282.785156 150.136719 282.109375 146.675781 287.808594 C 143.390625 293.21875 145.710938 292.636719 148.800781 288.386719 C 151.171875 285.125 154.59375 280.855469 156.140625 278.535156 C 157.6875 276.21875 157.300781 280.855469 156.140625 283.945313 C 154.980469 287.035156 152.664063 294.378906 150.34375 300.945313 C 148.027344 307.511719 151.117188 305.578125 153.050781 300.945313 C 154.980469 296.308594 156.140625 290.898438 157.300781 288.195313 C 158.457031 285.492188 159.230469 289.742188 158.457031 293.21875 C 157.6875 296.695313 154.59375 305.195313 152.664063 310.601563 C 150.730469 316.011719 154.59375 316.398438 154.980469 312.921875 C 155.367188 309.441406 159.230469 304.035156 160.390625 297.46875 C 161.550781 290.898438 162.320313 300.558594 161.933594 307.511719 C 161.550781 314.464844 163.09375 321.035156 163.09375 327.601563 C 163.09375 334.167969 165.410156 333.011719 165.027344 328.761719 C 164.640625 324.511719 166.183594 311.761719 166.183594 306.738281 C 166.183594 301.71875 170.046875 303.457031 170.046875 309.828125 C 170.046875 313.5 170.242188 313.5 169.46875 319.296875 C 168.695313 325.089844 171.980469 323.738281 172.367188 317.171875 C 172.476563 315.292969 172.84375 311.972656 173.542969 309.660156 C 192.238281 338.484375 224.695313 357.554688 261.609375 357.554688 C 319.542969 357.554688 366.507813 310.585938 366.507813 252.652344 C 366.507813 194.964844 319.9375 148.15625 262.34375 147.761719 C 253.726563 137.085938 237.964844 123.015625 212.546875 112.800781 C 204.207031 109.449219 217.566406 111.640625 223.363281 115.117188 C 229.15625 118.59375 240.070313 122.21875 231.859375 117.4375 C 229.320313 115.953125 230.652344 116.519531 219.0625 110.722656 C 207.472656 104.929688 222.203125 108.164063 228.769531 110.480469 C 235.339844 112.800781 234.902344 112.558594 239.152344 115.261719 C 243.402344 117.96875 247.316406 118.210938 239.203125 113.1875 C 231.089844 108.164063 232.875 106.425781 237.65625 108.9375 C 241.816406 111.121094 243.304688 111.738281 249.488281 115.601563 C 255.667969 119.464844 256.585938 117.824219 252.335938 115.503906 C 248.089844 113.1875 246.929688 111.253906 241.519531 107.777344 C 236.109375 104.300781 241.90625 105.460938 246.542969 107.003906 C 251.179688 108.550781 251.5625 109.710938 260.0625 113.1875 C 268.5625 116.664063 265.472656 114.347656 262.382813 112.414063 C 259.289063 110.480469 254.992188 108.117188 251.5625 105.847656 C 248.09375 103.550781 253.109375 103.914063 256.972656 105.847656 C 260.835938 107.777344 267.789063 110.097656 276.289063 113.960938 C 284.789063 117.824219 284.132813 116.289063 277.449219 112.414063 C 271.703125 109.082031 271.652344 108.550781 265.472656 105.074219 C 259.289063 101.597656 260.835938 102.367188 266.246094 103.914063 C 271.652344 105.460938 279.765625 107.777344 285.175781 110.480469 C 290.585938 113.1875 294.0625 112.800781 286.335938 108.9375 C 278.605469 105.074219 270.109375 99.664063 277.0625 101.210938 C 284.015625 102.753906 283.097656 101.984375 295.460938 105.460938 C 307.824219 108.9375 303.234375 105.796875 296.765625 103.914063 C 293.730469 103.03125 285.339844 100.621094 281.148438 98.988281 C 278.503906 97.957031 277.511719 97.304688 280.539063 97.734375 C 285.144531 98.386719 292.128906 100.050781 306.808594 102.753906 C 321.492188 105.460938 313.128906 102.679688 307.96875 101.210938 C 298.988281 98.652344 261.222656 90.777344 255.8125 90.777344 C 247.28125 90.777344 241.132813 91.164063 246.542969 89.621094 C 251.949219 88.074219 266.246094 86.914063 275.128906 88.074219 C 284.015625 89.234375 281.3125 86.53125 279.378906 86.144531 C 277.449219 85.757813 270.253906 84.695313 264.84375 84.308594 C 259.4375 83.921875 263.152344 81.121094 267.019531 81.121094 C 270.882813 81.121094 277.0625 81.121094 284.789063 81.894531 C 292.515625 82.664063 293.238281 80.976563 287.105469 79.960938 C 281.769531 79.078125 276.289063 76.871094 267.019531 75.324219 C 257.746094 73.78125 267.789063 73.394531 271.652344 73.007813 C 275.515625 72.621094 289.425781 73.007813 294.445313 73.394531 C 299.46875 73.78125 296.699219 72.101563 293.675781 71.464844 C 289.570313 70.59375 287.832031 70.429688 278.847656 70.496094 C 274.757813 70.527344 273.199219 69.53125 278.992188 67.597656 C 284.789063 65.667969 296.765625 63.734375 306.808594 62.964844 C 316.855469 62.191406 310.285156 61.03125 304.105469 61.417969 C 297.925781 61.804688 295.21875 61.804688 285.949219 62.578125 C 276.675781 63.351563 280.925781 61.804688 286.722656 59.871094 C 292.515625 57.941406 301.015625 56.78125 307.582031 56.007813 C 314.148438 55.238281 313.136719 52.628906 302.175781 54.078125 C 293.671875 55.203125 262.382813 59.484375 253.882813 61.417969 C 248.214844 62.707031 233.652344 71.019531 227.417969 74.019531 C 224.304688 75.519531 223.269531 75.695313 226.453125 73.007813 C 230.425781 69.65625 244.609375 60.644531 253.882813 54.078125 C 263.152344 47.511719 258.953125 48.1875 252.335938 52.871094 C 248.300781 55.730469 238.816406 60.257813 234.179688 62.964844 C 229.542969 65.667969 227.175781 66.390625 232.632813 60.644531 C 235.269531 57.871094 240.675781 54.007813 244.222656 50.601563 C 251.46875 43.648438 248.570313 43.886719 241.519531 50.214844 C 237.453125 53.863281 230.074219 58.664063 224.90625 64.121094 C 220.023438 69.28125 218.726563 66.441406 221.042969 63.734375 C 223.363281 61.03125 229.0625 52.339844 233.40625 46.351563 C 237.589844 40.585938 234.519531 40.941406 230.027344 47.847656 C 226.695313 52.96875 220.65625 59.871094 212.929688 66.441406 C 205.203125 73.007813 207.617188 68.179688 210.324219 64.703125 C 213.027344 61.226563 215.25 57.941406 220.65625 49.828125 C 226.066406 41.714844 223.796875 40.507813 215.105469 52.820313 C 210.738281 59.003906 197.984375 74.203125 193.542969 81.136719 C 193.078125 81.859375 191.019531 85.28125 192.335938 80.824219 C 193.21875 77.839844 194.613281 73.410156 196.320313 67.984375 C 200.566406 54.464844 185.113281 11.96875 183.957031 4.242188 C 182.796875 -3.484375 181.253906 2.308594 181.636719 5.015625 C 182.023438 7.71875 182.023438 10.421875 183.183594 18.148438 C 184.070313 24.070313 184.507813 34.308594 184.3125 37.371094 C 184.253906 38.304688 184.136719 38.574219 183.957031 37.851563 C 183.183594 34.761719 182.023438 30.511719 181.253906 25.101563 C 180.480469 19.695313 178.933594 24.714844 179.320313 29.738281 C 179.707031 34.761719 181.253906 44.03125 182.023438 49.441406 C 182.796875 54.851563 182.023438 54.464844 180.863281 52.53125 C 179.707031 50.601563 178.597656 46.398438 176.617188 39.398438 C 174.472656 31.816406 174.296875 39.011719 175.457031 43.648438 C 176.617188 48.28125 178.160156 53.691406 178.933594 58.714844 C 179.707031 63.734375 178.160156 63.351563 176.617188 60.257813 C 175.070313 57.167969 174.296875 56.78125 171.59375 51.371094 C 168.890625 45.964844 168.792969 47.800781 170.339844 53.59375 C 171.882813 59.390625 178.546875 70.304688 180.480469 80.347656 C 182.410156 90.394531 175.84375 78.804688 173.523438 73.394531 C 171.207031 67.984375 162.707031 42.875 159.230469 38.238281 C 155.753906 33.601563 121.757813 9.261719 115.574219 6.171875 C 109.171875 2.972656 108.855469 4.390625 114.707031 7.453125 C 118.53125 9.453125 123.574219 13.925781 125.644531 16.144531 C 126.503906 17.066406 125.773438 17.054688 125.371094 16.835938 C 123.507813 15.808594 120.4375 14.011719 117.894531 12.738281 C 114.804688 11.195313 116.394531 14.1875 119.824219 15.832031 C 126.609375 19.085938 131.285156 23.613281 132.558594 25.65625 C 133.050781 26.453125 133.035156 26.871094 132.429688 26.695313 C 129.917969 25.972656 129.097656 25.488281 125.234375 23.558594 C 121.371094 21.625 118.835938 22.445313 126.777344 27.035156 C 129.769531 28.761719 134.890625 30.898438 137.210938 33.214844 C 139.527344 35.535156 140.300781 37.464844 137.597656 36.691406 C 134.890625 35.921875 132.574219 35.921875 129.097656 34.761719 C 123.230469 32.804688 123.6875 35.148438 127.164063 36.304688 C 130.640625 37.464844 140.300781 42.875 144.550781 45.964844 C 148.800781 49.054688 151.117188 52.605469 147.253906 51.058594 C 143.390625 49.515625 141.074219 49.054688 134.890625 47.125 C 128.710938 45.191406 129.894531 47.871094 136.4375 50.601563 C 139.503906 51.878906 149.1875 54.851563 152.277344 57.167969 C 155.367188 59.484375 151.449219 58.632813 149.039063 58.0625 C 143.421875 56.726563 143.003906 56.78125 137.980469 55.621094 C 132.960938 54.464844 134.503906 56.78125 138.753906 57.941406 C 143.003906 59.101563 146.09375 61.03125 153.4375 64.121094 C 160.777344 67.214844 158.25 68.597656 151.890625 66.828125 C 148.246094 65.8125 147.253906 66.054688 140.300781 64.121094 C 133.347656 62.191406 135.230469 64.652344 143.390625 67.214844 C 147.707031 68.566406 153.050781 71.074219 158.457031 74.167969 C 163.867188 77.257813 161.164063 77.644531 154.980469 75.710938 C 148.800781 73.78125 144.9375 72.234375 138.367188 69.144531 C 131.800781 66.054688 134.90625 69.535156 139.140625 72.234375 C 143.355469 74.925781 149.902344 78.382813 156.140625 82.28125 C 162.320313 86.144531 157.300781 86.144531 151.890625 82.664063 C 146.480469 79.1875 136.4375 74.167969 126.394531 71.074219 C 116.347656 67.984375 90.464844 72.234375 81.578125 72.621094 C 72.691406 73.007813 75.011719 73.78125 80.03125 74.167969 C 85.054688 74.554688 102.441406 74.941406 107.074219 74.941406 C 111.710938 74.941406 114.03125 74.941406 110.554688 76.484375 C 107.074219 78.03125 105.53125 77.644531 96.644531 79.574219 C 87.757813 81.507813 95.097656 81.894531 100.121094 81.507813 C 105.144531 81.121094 119.824219 81.894531 123.6875 81.507813 C 127.550781 81.121094 130.082031 82.519531 125.234375 83.824219 C 120.210938 85.175781 117.121094 84.984375 109.394531 86.144531 C 101.742188 87.289063 106.496094 87.882813 115.382813 87.496094 C 119.628906 87.3125 124.074219 86.914063 130.257813 86.914063 C 136.4375 86.914063 136.4375 88.460938 133.347656 88.460938 C 130.257813 88.460938 127.550781 88.847656 120.984375 89.234375 C 114.414063 89.621094 116.539063 91.9375 122.914063 91.550781 C 125.644531 91.386719 130.640625 91.550781 135.277344 91.550781 C 139.914063 91.550781 143.277344 93.007813 140.6875 93.871094 C 137.789063 94.835938 135.664063 95.414063 129.097656 94.644531 C 122.527344 93.871094 123.6875 96.574219 127.9375 96.960938 C 132.1875 97.347656 137.210938 97.734375 141.460938 98.507813 C 145.710938 99.277344 146.140625 100.0625 141.074219 100.4375 C 135.859375 100.824219 132.960938 100.824219 126.394531 101.210938 C 119.824219 101.597656 119.421875 102.128906 128.324219 103.140625 C 136.824219 104.109375 139.140625 104.6875 142.617188 105.847656 C 146.09375 107.003906 155.355469 111.695313 138.753906 107.390625 C 107.460938 99.277344 71.027344 126.589844 60.328125 133.277344 C 51.058594 139.070313 52.988281 141.097656 58.207031 137.910156 C 63.421875 134.726563 67.1875 133.566406 70.953125 132.117188 C 74.71875 130.667969 80.226563 130.378906 75.300781 133.277344 C 70.375 136.171875 69.367188 137.964844 65.738281 140.230469 C 55.984375 146.3125 61.972656 146.605469 66.027344 143.996094 C 70.085938 141.390625 75.011719 138.78125 79.355469 135.882813 C 83.703125 132.984375 88.339844 132.695313 84.28125 136.171875 C 80.226563 139.648438 78.488281 141.679688 76.167969 143.128906 C 73.851563 144.574219 75.300781 147.28125 78.777344 144.382813 C 82.253906 141.484375 90.078125 137.621094 95.582031 135.304688 C 101.089844 132.984375 106.015625 132.984375 102.824219 135.304688 C 99.640625 137.621094 100.507813 137.621094 96.160156 141.097656 C 91.816406 144.574219 92.296875 148.054688 99.15625 142.742188 C 106.082031 137.378906 101.472656 140.808594 109.585938 135.59375 C 117.699219 130.378906 131.003906 124.148438 122.023438 132.261719 C 113.039063 140.375 111.734375 140.953125 107.96875 143.851563 C 104.203125 146.75 104.203125 150.082031 110.578125 145.226563 C 112.371094 143.863281 116.167969 141.050781 119.910156 138.332031 C 123.011719 136.082031 128.308594 135.214844 123.289063 139.976563 C 100.363281 161.730469 30.789063 232.753906 33.1875 311.96875 C 24.496094 307.261719 19.582031 304.246094 19.582031 304.246094 C 8.832031 300.316406 -15.421875 291.136719 17.445313 333.394531 C 20.152344 336.871094 18.617188 339.65625 14.742188 337.644531 C -25.519531 316.769531 50.285156 408.34375 56.082031 412.207031 C 61.875 416.070313 63.695313 417.867188 55.695313 415.683594 C 47.195313 413.367188 18.605469 421.480469 62.648438 446.976563 C 106.6875 472.476563 146.867188 480.203125 160.003906 483.292969 C 173.140625 486.382813 175.214844 485.222656 170.046875 491.792969 C 116.007813 560.484375 439.144531 535.390625 507.703125 483.292969 C 542.773438 456.640625 544.019531 455.476563 520.839844 464.75 Z M 230.894531 423.75 C 230.976563 423.113281 231.257813 421.929688 231.652344 420.46875 C 232.386719 420.714844 233.101563 420.96875 233.789063 421.230469 C 233.34375 422.347656 232.863281 423.371094 232.34375 424.183594 C 230.316406 427.371094 230.605469 426.066406 230.894531 423.75 Z M 146.867188 235.269531 C 142.230469 238.164063 141.074219 239.324219 135.277344 243.960938 C 129.484375 248.597656 128.902344 245.699219 133.539063 241.640625 C 138.175781 237.585938 140.589844 235.925781 145.710938 232.949219 C 149.621094 230.675781 151.503906 232.371094 146.867188 235.269531 Z M 159.230469 211.703125 C 156.140625 210.542969 153.820313 209.382813 147.640625 207.066406 C 141.460938 204.746094 144.9375 203.589844 149.574219 204.746094 C 154.210938 205.90625 157.234375 209.351563 161.933594 211.703125 C 164.253906 212.859375 162.320313 212.859375 159.230469 211.703125 Z M 148.316406 188.617188 C 149.1875 187.167969 151.117188 176.160156 151.117188 174.324219 C 151.117188 172.488281 151.890625 172.488281 151.890625 173.742188 C 151.890625 175.714844 152.277344 186.105469 152.371094 187.363281 C 152.46875 188.617188 150.441406 187.652344 149.476563 188.714844 C 148.511719 189.777344 147.449219 190.066406 148.316406 188.617188 Z M 149.765625 197.792969 C 153.039063 199.839844 157.300781 203.78125 158.554688 205.328125 C 159.8125 206.871094 160.96875 208.03125 158.363281 206.679688 C 155.753906 205.328125 150.925781 202.042969 149.378906 201.367188 C 147.835938 200.691406 148.992188 197.3125 149.765625 197.792969 Z M 256.199219 159.933594 C 263.539063 169.589844 261.996094 165.339844 261.222656 163.410156 C 260.449219 161.476563 259.675781 159.160156 256.972656 155.296875 C 254.269531 151.433594 260.0625 154.910156 266.246094 160.320313 C 272.425781 165.726563 272.8125 168.433594 270.496094 161.09375 C 269.9375 159.332031 268.574219 156.546875 266.292969 153.117188 C 319.152344 155.5625 361.265625 199.1875 361.265625 252.652344 C 361.265625 307.691406 316.644531 352.308594 261.609375 352.308594 C 226.523438 352.308594 195.695313 334.160156 177.9375 306.757813 C 177.410156 304.792969 176.597656 302.453125 175.84375 300.945313 C 173.910156 297.082031 171.980469 278.148438 174.296875 283.171875 C 176.617188 288.195313 175.84375 286.648438 177.003906 292.832031 C 178.160156 299.011719 179.320313 293.21875 177.773438 287.421875 C 176.230469 281.628906 177.390625 278.148438 175.457031 268.105469 C 173.523438 258.0625 176.476563 264.8125 177.773438 269.265625 C 179.128906 273.902344 179.128906 274.671875 180.480469 279.695313 C 181.890625 284.933594 182.796875 280.082031 182.410156 276.605469 C 182.023438 273.128906 182.023438 264.242188 182.023438 258.449219 C 182.023438 252.652344 184.25 258.132813 185.503906 265.015625 C 186.273438 269.265625 188.59375 271.96875 189.75 277.765625 C 190.910156 283.558594 192.453125 281.820313 192.070313 274.671875 C 191.839844 270.429688 192.070313 270.035156 191.296875 264.628906 C 190.523438 259.21875 193.574219 264.9375 195.546875 268.878906 C 197.476563 272.742188 203.273438 279.695313 204.816406 285.492188 C 206.363281 291.285156 206.75 285.105469 206.363281 282.015625 C 205.976563 278.921875 204.816406 276.21875 204.433594 272.742188 C 204.046875 269.265625 206.363281 273.128906 208.296875 277.765625 C 210.226563 282.398438 212.546875 282.785156 215.25 289.742188 C 217.953125 296.695313 218.339844 294.378906 218.339844 291.671875 C 218.339844 288.96875 217.953125 287.808594 215.636719 279.308594 C 213.316406 270.808594 218.917969 275.058594 220.851563 281.628906 C 222.78125 288.195313 224.136719 287.808594 227.613281 298.238281 C 231.089844 308.671875 232.503906 304.894531 230.121094 297.46875 C 228.402344 292.105469 228.191406 290.707031 227.226563 285.105469 C 226.226563 279.304688 228.382813 282.785156 230.703125 286.265625 C 233.019531 289.742188 232.246094 288.96875 236.882813 295.921875 C 241.519531 302.875 240.359375 298.625 238.816406 292.832031 C 236.160156 282.871094 204.816406 248.402344 200.566406 242.609375 C 196.320313 236.8125 204.046875 242.609375 206.75 245.699219 C 209.453125 248.789063 207.894531 247.097656 209.890625 251.011719 C 210.835938 252.867188 213.703125 256.515625 211.386719 247.628906 C 209.066406 238.746094 209.414063 238.695313 212.640625 243.1875 C 215.105469 246.617188 215.25 247.242188 217.953125 253.039063 C 220.65625 258.835938 220.898438 254.875 215.636719 242.609375 C 211.050781 231.929688 217.960938 238.890625 220.65625 245.3125 C 222.058594 248.644531 223.554688 250.382813 226.066406 256.128906 C 229.6875 264.417969 228.769531 258.0625 226.839844 251.878906 C 224.90625 245.699219 224.90625 246.085938 223.746094 242.609375 C 222.589844 239.132813 225.613281 242.109375 227.613281 245.699219 C 229.734375 249.515625 230.703125 252.121094 233.40625 256.515625 C 238.234375 264.363281 236.640625 260.476563 235.484375 256.226563 C 234.324219 251.976563 234.566406 251.878906 231.476563 244.925781 C 228.382813 237.972656 232.632813 242.992188 233.792969 245.699219 C 234.953125 248.402344 236.546875 250.046875 239.203125 254.972656 C 241.847656 259.875 243.402344 259.558594 241.132813 253.425781 C 239.5625 249.183594 239.203125 249.175781 236.882813 244.152344 C 234.566406 239.132813 238.53125 241.648438 242.679688 248.402344 C 246.445313 254.535156 244.609375 250.722656 247.699219 257.289063 C 252.03125 266.492188 253.542969 263.03125 250.40625 256.128906 C 248.472656 251.878906 248.089844 250.335938 246.15625 246.855469 C 244.222656 243.378906 248.253906 246.800781 251.179688 251.492188 C 253.496094 255.210938 254.65625 256.128906 258.132813 262.3125 C 261.609375 268.492188 263.058594 267.621094 259.289063 259.21875 C 257.171875 254.492188 256.199219 253.8125 254.269531 250.335938 C 252.335938 246.855469 255.429688 249.175781 259.675781 253.039063 C 263.925781 256.902344 265.570313 259.363281 270.589844 264.773438 C 275.613281 270.183594 275.488281 267.695313 273.199219 264.628906 C 270.640625 261.199219 268.5625 258.0625 263.539063 253.039063 C 258.519531 248.015625 263.539063 251.492188 270.882813 256.128906 C 278.222656 260.765625 277.835938 260.378906 282.472656 264.242188 C 287.105469 268.105469 286.335938 265.402344 284.402344 262.695313 C 282.472656 259.992188 234.953125 229.085938 225.292969 225.996094 C 215.636719 222.90625 222.976563 222.519531 228.382813 223.679688 C 233.792969 224.835938 235.339844 225.222656 241.90625 227.539063 C 248.472656 229.859375 243.609375 226.683594 239.203125 224.835938 C 234.710938 222.953125 232.246094 221.746094 227.226563 220.199219 C 222.203125 218.65625 229.542969 219.429688 233.792969 219.429688 C 238.042969 219.429688 243.066406 222.132813 248.089844 224.0625 C 253.109375 225.996094 252.480469 223.96875 247.699219 221.359375 C 244.484375 219.605469 243.066406 219.042969 236.109375 216.335938 C 229.15625 213.632813 238.429688 214.40625 240.746094 214.40625 C 243.066406 214.40625 251.179688 216.722656 258.519531 218.65625 C 265.859375 220.585938 262.03125 217.597656 256.585938 215.902344 C 250.695313 214.066406 246.929688 212.472656 244.222656 211.316406 C 241.519531 210.15625 247.050781 208.671875 251.949219 209.769531 C 257.117188 210.929688 263.152344 212.089844 269.722656 215.566406 C 276.289063 219.042969 274.429688 214.335938 268.5625 211.703125 C 262.429688 208.949219 260.0625 208.996094 255.429688 206.679688 C 250.792969 204.359375 255.1875 203.636719 260.210938 205.566406 C 265.230469 207.5 272.425781 207.839844 282.472656 211.703125 C 292.515625 215.566406 285.5625 209.769531 280.539063 207.839844 C 275.515625 205.90625 273.972656 205.132813 270.109375 203.976563 C 266.246094 202.816406 263.925781 202.429688 267.789063 202.042969 C 271.652344 201.65625 284.789063 203.589844 288.652344 203.589844 C 292.515625 203.589844 293.289063 202.429688 287.492188 201.65625 C 281.699219 200.882813 278.605469 200.109375 273.199219 200.109375 C 267.789063 200.109375 269.722656 198.179688 274.742188 197.019531 C 279.765625 195.863281 282.085938 195.863281 290.585938 194.316406 C 299.082031 192.769531 293.289063 191.996094 283.628906 192.769531 C 273.972656 193.542969 247.699219 197.792969 238.816406 198.953125 C 229.929688 200.109375 231.859375 198.566406 236.109375 197.019531 C 240.359375 195.476563 243.449219 195.089844 250.40625 193.542969 C 260.558594 191.285156 257.460938 189.46875 248.089844 191.226563 C 243.449219 192.09375 242.679688 191.855469 236.496094 192.769531 C 230.089844 193.722656 233.019531 191.996094 236.882813 189.679688 C 240.746094 187.363281 245.769531 185.816406 251.949219 183.886719 C 262.351563 180.636719 260.140625 179.351563 250.597656 181.710938 C 245.722656 182.921875 241.519531 184.273438 237.65625 185.046875 C 233.792969 185.816406 237.269531 183.5 241.132813 181.566406 C 244.996094 179.636719 245.769531 177.703125 255.039063 172.296875 C 264.3125 166.886719 258.132813 167.660156 252.335938 170.75 C 246.542969 173.839844 229.542969 181.953125 224.519531 185.429688 C 219.5 188.90625 220.320313 186.945313 221.816406 184.65625 C 223.460938 182.148438 224.328125 180.503906 227.175781 176.109375 C 230.300781 171.289063 229.929688 169.976563 225.292969 175 C 220.65625 180.023438 221.042969 178.863281 214.089844 187.363281 C 207.136719 195.863281 212.160156 189.292969 212.160156 181.566406 C 212.160156 173.839844 212.929688 174.226563 212.160156 170.75 C 211.90625 169.609375 211.488281 168.289063 210.949219 166.84375 C 218.46875 162.394531 226.617188 158.902344 235.242188 156.542969 C 235.539063 157.15625 235.832031 157.730469 236.109375 158.242188 C 238.429688 162.492188 238.816406 162.636719 238.429688 159.546875 C 238.339844 158.835938 238.019531 157.542969 237.574219 155.933594 C 239.328125 155.5 241.097656 155.097656 242.890625 154.757813 C 243.492188 156.078125 244.070313 157.3125 244.609375 158.386719 C 246.929688 163.023438 247.652344 160.367188 245.722656 155.730469 C 245.527344 155.265625 245.328125 154.820313 245.132813 154.378906 C 247.261719 154.023438 249.410156 153.726563 251.585938 153.507813 C 252.652344 155.117188 254.082031 157.144531 256.199219 159.933594 Z M 191.488281 223.097656 C 196.175781 222.160156 204.816406 221.359375 210.613281 222.519531 C 216.40625 223.679688 220.226563 225.410156 209.839844 224.449219 C 199.410156 223.484375 198.445313 223.679688 193.226563 225.414063 C 188.011719 227.15625 188.59375 223.679688 191.488281 223.097656 Z M 246.15625 144.914063 C 247.265625 146.394531 247.941406 147.476563 248.585938 148.574219 C 246.683594 148.808594 244.789063 149.082031 242.914063 149.417969 C 242.226563 147.714844 241.480469 145.621094 240.648438 142.742188 C 238.976563 136.929688 242.679688 140.277344 246.15625 144.914063 Z M 236.59375 139.746094 C 237.921875 143.105469 239.347656 146.609375 240.734375 149.855469 C 239.171875 150.171875 237.625 150.519531 236.089844 150.902344 C 234.570313 145.96875 232.730469 140.347656 231.859375 137.523438 C 230.316406 132.503906 233.664063 132.339844 236.59375 139.746094 Z M 204.816406 98.507813 C 210.644531 94.535156 219.886719 92.132813 229.15625 91.550781 C 238.429688 90.972656 244.222656 90.972656 233.214844 93.289063 C 222.203125 95.609375 219.113281 93.484375 207.714844 99.085938 C 199.761719 102.996094 200.566406 101.402344 204.816406 98.507813 Z M 191.296875 129.027344 C 193.226563 130.183594 192.84375 131.34375 195.933594 135.980469 C 199.023438 140.617188 196.703125 132.117188 194.386719 124.777344 C 192.070313 117.4375 199.796875 125.164063 203.273438 130.183594 C 206.75 135.207031 207.136719 135.59375 209.839844 142.546875 C 212.546875 149.503906 212.929688 145.640625 212.160156 142.546875 C 211.386719 139.457031 210.226563 136.753906 207.523438 130.183594 C 204.816406 123.617188 210.515625 126.175781 211.289063 129.652344 C 212.0625 133.132813 215.636719 141.003906 216.796875 146.023438 C 217.953125 151.046875 219.644531 148.972656 218.871094 146.265625 C 218.097656 143.5625 217.375 139.214844 215.636719 132.503906 C 213.773438 125.308594 215.699219 125.636719 219.546875 134.289063 C 221.480469 138.636719 222.058594 141.390625 223.988281 147.183594 C 225.921875 152.980469 227.75 152.839844 226.066406 147.570313 C 224.183594 141.679688 223.070313 138.539063 222.011719 134.242188 C 219.917969 125.78125 226.804688 137.703125 228.769531 141.773438 C 229.949219 144.21875 231.503906 148.074219 233.054688 151.695313 C 224.507813 154.109375 216.402344 157.578125 208.890625 161.957031 C 202.472656 147.953125 189.742188 128.09375 191.296875 129.027344 Z M 162.878906 88.800781 C 165.773438 92.277344 167.730469 92.132813 168.308594 96.769531 C 168.890625 101.402344 166.570313 102.5625 165.410156 98.507813 C 164.253906 94.449219 162.371094 92.640625 161.210938 89.742188 C 160.050781 86.84375 162.878906 88.800781 162.878906 88.800781 Z M 160.390625 178.476563 C 162.128906 173.453125 163.289063 161.671875 164.058594 156.070313 C 164.832031 150.46875 167.152344 145.058594 166.183594 152.011719 C 165.21875 158.96875 165.410156 163.988281 164.640625 169.589844 C 163.867188 175.191406 165.796875 178.476563 166.765625 170.941406 C 167.730469 163.410156 168.890625 157.613281 169.855469 152.980469 C 170.820313 148.34375 171.980469 147.183594 171.398438 152.398438 C 170.820313 157.613281 171.015625 164.570313 170.820313 167.078125 C 170.628906 169.589844 172.367188 174.613281 172.945313 168.625 C 173.523438 162.636719 175.457031 151.046875 176.035156 147.761719 C 176.617188 144.480469 178.546875 142.160156 177.582031 146.796875 C 176.617188 151.433594 176.035156 161.476563 175.457031 164.570313 C 174.878906 167.660156 176.617188 170.558594 177.773438 165.921875 C 178.933594 161.285156 179.898438 155.875 180.863281 152.398438 C 181.832031 148.921875 183.378906 144.09375 182.605469 151.046875 C 181.832031 158 181.636719 165.535156 182.21875 170.363281 C 182.796875 175.191406 184.148438 179.054688 184.921875 169.976563 C 185.695313 160.898438 185.886719 159.351563 185.886719 155.105469 C 185.886719 153.375 187.625 149.886719 187.625 157.421875 C 187.625 164.953125 187.433594 168.046875 187.625 171.714844 C 187.820313 175.386719 188.59375 178.089844 189.171875 175.191406 C 189.75 172.296875 189.363281 172.101563 190.328125 169.011719 C 191.296875 165.921875 191.488281 164.953125 191.488281 168.816406 C 191.488281 172.683594 190.71875 173.648438 190.910156 176.933594 C 191.101563 180.214844 180.671875 186.589844 180.09375 189.292969 C 179.511719 191.996094 177.582031 195.28125 177.773438 190.453125 C 177.96875 185.625 178.546875 184.078125 178.546875 178.863281 C 178.546875 173.648438 178.742188 166.886719 177.195313 175.191406 C 175.648438 183.5 175.457031 184.273438 175.070313 189.101563 C 174.683594 193.929688 173.332031 197.214844 173.140625 191.613281 C 172.945313 186.011719 172.171875 182.148438 172.171875 177.703125 C 172.171875 173.261719 171.398438 169.589844 170.820313 174.226563 C 170.242188 178.863281 170.242188 187.363281 170.242188 190.839844 C 170.242188 194.316406 169.660156 200.496094 168.503906 190.644531 C 167.34375 180.796875 166.378906 179.828125 166.378906 178.089844 C 166.378906 176.351563 164.445313 175.578125 165.027344 179.25 C 165.605469 182.921875 165.992188 187.363281 165.992188 190.261719 C 165.992188 193.15625 161.164063 185.625 160.582031 183.113281 C 160.003906 180.601563 160.390625 178.476563 160.390625 178.476563 Z M 157.589844 162.925781 C 158.167969 160.800781 158.265625 159.644531 158.363281 161.285156 C 158.476563 163.253906 158.941406 173.550781 158.84375 176.351563 C 158.746094 179.152344 159.328125 180.699219 158.265625 179.441406 C 157.203125 178.1875 156.140625 175.964844 156.621094 178.378906 C 157.105469 180.796875 163.867188 197.40625 164.253906 198.566406 C 164.640625 199.726563 164.253906 201.464844 162.417969 198.277344 C 160.582031 195.089844 155.175781 189.96875 154.59375 188.328125 C 154.015625 186.6875 157.007813 165.050781 157.589844 162.925781 Z M 154.496094 190.644531 C 155.269531 191.804688 158.265625 197.40625 160.101563 201.078125 C 161.933594 204.746094 160.292969 202.71875 158.84375 201.464844 C 157.394531 200.207031 148.398438 195.5625 149.378906 193.929688 C 149.667969 193.445313 149.667969 192.867188 149.476563 191.417969 C 149.28125 189.96875 153.726563 189.488281 154.496094 190.644531 Z M 141.847656 137.910156 C 144.164063 135.980469 146.929688 134.148438 150.730469 131.730469 C 154.980469 129.027344 153.507813 132.613281 151.117188 134.046875 C 149.1875 135.207031 148.027344 136.753906 143.390625 139.84375 C 138.613281 143.027344 139.527344 139.84375 141.847656 137.910156 Z M 126.394531 132.503906 C 127.9375 130.570313 133.347656 128.640625 138.367188 126.320313 C 143.390625 124.003906 140.6875 126.707031 137.980469 129.027344 C 135.277344 131.34375 132.042969 132.386719 129.484375 134.433594 C 127.550781 135.980469 124.847656 134.433594 126.394531 132.503906 Z M 82.351563 203.203125 C 103.105469 170.886719 124.230469 152.105469 130.640625 147.183594 C 136.722656 142.515625 143.003906 144.480469 138.753906 148.730469 C 134.503906 152.980469 133.734375 153.753906 130.640625 158.386719 C 127.550781 163.023438 127.164063 164.953125 132.960938 159.933594 C 138.753906 154.910156 140.6875 152.980469 142.617188 151.433594 C 144.550781 149.886719 147.640625 149.503906 143.390625 153.753906 C 139.140625 158 133.347656 164.953125 131.027344 168.046875 C 128.710938 171.136719 125.621094 176.933594 132.1875 170.363281 C 138.753906 163.796875 137.980469 164.183594 140.300781 161.863281 C 142.617188 159.546875 144.164063 161.09375 141.460938 164.570313 C 138.753906 168.046875 134.503906 173.453125 131.414063 177.316406 C 128.324219 181.179688 127.9375 184.65625 132.960938 179.636719 C 137.980469 174.613281 139.914063 171.910156 141.847656 170.363281 C 143.777344 168.816406 148.027344 168.816406 144.550781 171.910156 C 141.074219 175 132.945313 185.414063 129.871094 188.90625 C 124.171875 195.378906 127.164063 196.246094 130.640625 192.386719 C 134.117188 188.519531 138.296875 184.363281 139.914063 182.53125 C 145.710938 175.964844 146.480469 182.726563 140.6875 186.589844 C 134.890625 190.453125 130.640625 195.476563 134.890625 193.542969 C 139.140625 191.613281 140.6875 190.839844 142.230469 190.453125 C 143.777344 190.066406 146.097656 189.292969 139.914063 197.792969 C 133.734375 206.292969 114.804688 192.769531 89.304688 205.132813 C 79.410156 209.929688 79.089844 208.28125 82.351563 203.203125 Z M 77.328125 211.507813 C 83.125 211.507813 88.320313 207.171875 95.292969 206.871094 C 108.8125 206.292969 109.972656 209.191406 103.019531 210.929688 C 96.066406 212.667969 91.234375 213.824219 86.019531 215.566406 C 80.804688 217.304688 79.066406 220.394531 87.757813 218.074219 C 96.453125 215.757813 99.347656 216.144531 104.566406 214.40625 C 109.78125 212.667969 113.835938 214.40625 108.621094 216.144531 C 103.40625 217.882813 100.507813 219.042969 96.453125 220.78125 C 92.394531 222.519531 91.621094 225.222656 97.996094 223.484375 C 104.371094 221.746094 105.144531 221.359375 112.097656 219.621094 C 119.050781 217.882813 128.339844 217.007813 120.789063 220.78125 C 116.539063 222.90625 114.488281 223.972656 110.164063 225.996094 C 103.398438 229.164063 101.597656 232.429688 112.679688 228.3125 C 119.4375 225.800781 122.527344 224.257813 129.484375 223.097656 C 136.4375 221.9375 142.8125 219.621094 137.597656 224.257813 C 132.382813 228.894531 102.824219 245.699219 91.234375 255.550781 C 79.648438 265.402344 79.066406 269.265625 85.441406 264.628906 C 91.816406 259.992188 95.292969 259.027344 100.507813 256.128906 C 105.722656 253.230469 108.421875 254.835938 105.722656 259.027344 C 103.984375 261.730469 101.859375 264.050781 97.417969 270.035156 C 89.128906 281.207031 96.914063 276.015625 107.074219 263.855469 C 110.46875 259.792969 113.652344 257.710938 116.347656 254.777344 C 125.039063 245.3125 130.136719 245.175781 124.269531 252.652344 C 99.992188 283.585938 88.652344 312.355469 83.707031 335.996094 C 72.722656 331.441406 62.773438 326.886719 54.144531 322.699219 C 57.738281 319.371094 68.148438 308.3125 70.519531 306.691406 C 73.273438 304.808594 72.980469 303.503906 70.519531 305.386719 C 68.054688 307.269531 65.015625 308.863281 62.839844 310.457031 C 60.667969 312.050781 59.363281 312.050781 61.683594 309.441406 C 64 306.835938 73.128906 297.710938 75.878906 296.113281 C 78.632813 294.519531 78.632813 292.78125 75.589844 294.8125 C 72.546875 296.839844 66.617188 300.449219 64 303.359375 C 61.390625 306.257813 60.8125 304.953125 62.117188 302.925781 C 63.160156 301.296875 70.808594 286.351563 71.96875 284.234375 C 74.429688 279.742188 72.835938 279.164063 70.808594 283.222656 C 69.460938 285.917969 63.515625 292.894531 61.972656 295.101563 C 56.902344 302.34375 54.871094 299.15625 56.03125 296.40625 C 57.191406 293.652344 65.308594 272.871094 70.085938 263.085938 C 73.648438 255.777344 71.511719 255.972656 69.214844 260.1875 C 62.371094 272.753906 52.375 289.804688 47.785156 303.652344 C 47.394531 304.824219 46.738281 304.695313 46.761719 303.507813 C 47.75 251.363281 77.328125 211.507813 77.328125 211.507813 Z M 68.054688 340.351563 C 61.875 333.394531 55.695313 328.761719 67.285156 335.714844 C 69.777344 337.210938 75.25 339.714844 82.433594 342.738281 C 76.410156 378.941406 85.167969 401.265625 81.964844 397.527344 C 63.144531 375.574219 53.320313 353.164063 49.179688 331.851563 C 53.757813 335.742188 58.039063 339.285156 61.101563 341.121094 C 68.828125 345.757813 74.238281 347.304688 68.054688 340.351563 Z M 488.386719 485.609375 C 445.519531 515.554688 211.59375 547.246094 174.683594 510.335938 C 163.839844 499.492188 202.5 487.929688 177.003906 480.976563 C 151.503906 474.019531 78.875 459.339844 58.785156 434.613281 C 53.910156 428.617188 51.832031 418.390625 64.964844 424.570313 C 78.101563 430.753906 86.601563 430.753906 77.328125 423.023438 C 68.054688 415.296875 20.152344 357.347656 15.515625 350.394531 C 10.878906 343.441406 11.652344 339.578125 17.832031 344.214844 C 24.015625 348.847656 29.421875 351.167969 24.785156 339.578125 C 20.152344 327.988281 18.605469 325.671875 17.058594 321.804688 C 16.183594 319.609375 3.144531 307.496094 9.980469 307.035156 L 29.421875 316.398438 C 30.675781 317.078125 32.09375 318.019531 33.597656 319.101563 C 35.847656 345.363281 46.300781 372.382813 69.214844 398.6875 C 75.714844 406.148438 85.441406 418.773438 91.621094 414.140625 C 97.804688 409.503906 110.023438 424.632813 118.085938 430.367188 C 130.449219 439.15625 133.660156 452.570313 147.0625 446.976563 C 152.328125 444.78125 176.617188 455.089844 188.207031 457.410156 C 196.007813 458.96875 180.910156 448.03125 158.070313 443.5 C 128.039063 437.542969 112.871094 414.527344 112.871094 414.527344 C 98.53125 391.53125 94.484375 368.703125 95.738281 348.164063 C 121.960938 358.59375 157.421875 371.375 167.75 373.433594 C 167.570313 374.855469 166.570313 375.507813 167.875 376.953125 C 169.179688 378.402344 176.132813 380.140625 177.292969 378.257813 C 177.589844 377.777344 177.96875 376.847656 178.40625 375.6875 C 192.316406 379.125 207.035156 384.378906 185.503906 381.300781 C 158.457031 377.4375 151.503906 382.847656 170.046875 394.4375 C 187.15625 405.128906 210.171875 413.84375 222.128906 417.558594 C 221.914063 423.347656 221.914063 428.753906 222.78125 429.980469 C 224.519531 432.441406 230.027344 434.035156 231.183594 431.136719 C 231.8125 429.570313 233.394531 425.53125 234.886719 421.65625 C 240.589844 423.933594 244.484375 426.664063 244.996094 430.753906 C 245.769531 436.933594 250.199219 443.921875 259.886719 441.253906 C 272.304688 437.828125 282.855469 456.25 290.585938 462.429688 C 298.3125 468.613281 303.71875 467.066406 316.082031 468.613281 C 328.445313 470.15625 354.714844 486.382813 367.851563 491.792969 C 380.984375 497.203125 377.707031 487.039063 386.394531 491.019531 C 404.9375 499.519531 452.84375 487.15625 460.570313 481.746094 C 468.296875 476.339844 466.753906 487.15625 478.339844 482.519531 C 489.933594 477.882813 508.179688 471.785156 488.386719 485.609375 "/>
<path style=" stroke:none;fill-rule:nonzero;fill:rgb(0%,0%,0%);fill-opacity:1;" d="M 197.863281 501.695313 C 193.789063 501.695313 190.488281 502.796875 190.488281 504.15625 C 190.488281 505.511719 193.789063 506.613281 197.863281 506.613281 C 201.9375 506.613281 205.238281 505.511719 205.238281 504.15625 C 205.238281 502.796875 201.9375 501.695313 197.863281 501.695313 "/>
<path style=" stroke:none;fill-rule:nonzero;fill:rgb(0%,0%,0%);fill-opacity:1;" d="M 78.429688 435.773438 C 78.429688 434.417969 75.859375 433.316406 72.691406 433.316406 C 69.523438 433.316406 66.957031 434.417969 66.957031 435.773438 C 66.957031 437.132813 69.523438 438.234375 72.691406 438.234375 C 75.859375 438.234375 78.429688 437.132813 78.429688 435.773438 "/>
<path style=" stroke:none;fill-rule:nonzero;fill:rgb(0%,0%,0%);fill-opacity:1;" d="M 82.542969 439.109375 C 79.375 439.109375 76.808594 440.210938 76.808594 441.570313 C 76.808594 442.925781 79.375 444.027344 82.542969 444.027344 C 85.710938 444.027344 88.28125 442.925781 88.28125 441.570313 C 88.28125 440.210938 85.710938 439.109375 82.542969 439.109375 "/>
</g>
</svg>
