<?xml version="1.0" encoding="UTF-8"?>
<svg xmlns="http://www.w3.org/2000/svg" xmlns:xlink="http://www.w3.org/1999/xlink" width="347pt" height="559pt" viewBox="0 0 347 559" version="1.1">
<g id="surface1">
<path style=" stroke:none;fill-rule:nonzero;fill:rgb(0%,0%,0%);fill-opacity:1;" d="M 329.773438 308.707031 C 331.34375 310.128906 332.5625 310.738281 332.230469 306.773438 C 331.25 276.25 332.125 265.265625 332.515625 243.003906 C 332.5 234.75 334.75 228.5 330.332031 228 C 327.003906 227.621094 324.839844 227.714844 312.667969 227.714844 C 284.707031 227.71875 234.71875 227.722656 209 227.71875 C 200.332031 228.332031 194 226.699219 192 228.367188 C 189.667969 231.699219 192.332031 233 193.097656 240.996094 C 194.503906 301.585938 193.367188 392.78125 192.25 459.496094 C 194.121094 541.929688 122.546875 550.0625 105.273438 495.453125 C 98.960938 474.421875 101.875 449.921875 101.855469 413.015625 C 105.585938 336.050781 95 257.617188 168.296875 275.816406 C 168.296875 275.816406 169.308594 276.1875 169.3125 274.449219 C 169.308594 273.957031 169.273438 240.410156 169.265625 230.894531 C 169.261719 229.320313 170.222656 227.230469 163.855469 227.332031 C 145.390625 227.230469 123.230469 227.476563 114.316406 220.316406 C 96.898438 206.320313 103.449219 169.324219 104.273438 82.484375 C 107.601563 24.804688 172.4375 27.441406 172.96875 82.503906 C 174.328125 103.152344 175.292969 112.335938 173.542969 138.027344 C 173.269531 142.050781 171.109375 150.304688 172.585938 151.429688 C 174 152.5 188.75 151.449219 188.75 151.449219 L 227.75 151.496094 C 227.75 151.496094 245.550781 151.742188 247.636719 151.519531 C 250.4375 151.21875 246.75 144.5 247 135.25 C 247.15625 129.503906 247.050781 109.75 247.050781 109.75 L 247.257813 5.253906 C 246.988281 -0.988281 245.15625 -0.972656 241.183594 3.976563 C 192.394531 49.046875 169.707031 7.964844 134.121094 8.09375 C 86.746094 7.964844 65.207031 51.214844 25.863281 4.707031 C 20.523438 -1.703125 18.847656 -0.636719 19.015625 5.167969 C 19.457031 101.507813 27.539063 120.265625 2.023438 135.71875 C -0.171875 137.023438 1.535156 137.023438 3.855469 139.054688 C 43.65625 168.863281 -10.753906 244.011719 52.171875 260.355469 C 52.621094 260.472656 52.699219 261 52.285156 261.152344 C 13.96875 272.765625 18.542969 313.789063 18.320313 340.285156 C 16.710938 367.164063 26.808594 390.542969 1.191406 403.964844 C 0.09375 404.558594 0.546875 405.289063 1.414063 405.507813 C 20.179688 409.816406 16.828125 447.988281 15.515625 486.582031 C 14.996094 507.773438 14.664063 523.628906 15.898438 549.507813 C 16.101563 554.160156 16.917969 554.847656 22.105469 549.054688 C 48.738281 522.101563 105.160156 558.703125 142.980469 558.125 C 189.226563 556.964844 232.347656 520.882813 263.933594 551.257813 C 265.1875 552.070313 267.777344 556.019531 267.847656 549.617188 C 269.761719 451.648438 267.320313 380.074219 276.589844 314.914063 C 280.726563 293.75 320.1875 290.609375 329.773438 308.707031 "/>
<path style=" stroke:none;fill-rule:nonzero;fill:rgb(0%,0%,0%);fill-opacity:1;" d="M 301.042969 215.480469 C 307.8125 221.453125 308.964844 220.367188 309.226563 213.296875 C 312.867188 191.789063 334.523438 178.367188 345.136719 136.570313 C 349.253906 115.207031 345.21875 76.273438 300.316406 57.957031 C 297.3125 56.976563 294.566406 58.199219 297.878906 62.324219 C 322.933594 92.054688 306.054688 115.25 296.589844 141.089844 C 290.082031 154.988281 279.011719 191.484375 301.042969 215.480469 "/>
<path style=" stroke:none;fill-rule:nonzero;fill:rgb(0%,0%,0%);fill-opacity:1;" d="M 299.667969 312.746094 C 296.660156 311.765625 293.917969 312.984375 297.226563 317.113281 C 322.28125 346.839844 305.402344 370.039063 295.9375 395.878906 C 289.429688 409.777344 278.363281 446.269531 300.394531 470.269531 C 307.160156 476.242188 308.3125 475.152344 308.574219 468.085938 C 312.21875 446.574219 333.871094 433.15625 344.484375 391.359375 C 348.605469 369.996094 344.566406 331.0625 299.667969 312.746094 "/>
</g>
</svg>
