<?xml version="1.0" encoding="UTF-8"?>
<svg xmlns="http://www.w3.org/2000/svg" xmlns:xlink="http://www.w3.org/1999/xlink" width="538pt" height="577pt" viewBox="0 0 538 577" version="1.1">
<g id="surface1">
<path style=" stroke:none;fill-rule:nonzero;fill:rgb(0%,0%,0%);fill-opacity:1;" d="M 529.332031 3.730469 C 419.390625 64.886719 307.304688 251.320313 450.699219 461.847656 C 452.03125 463.785156 450.722656 463.039063 449.703125 462.117188 C 341.203125 364.082031 345.613281 196.515625 386.046875 108.257813 C 389.511719 101.265625 386.859375 101.265625 382.4375 107.136719 C 360.507813 135.367188 307.070313 243.71875 347.355469 331.433594 C 344.445313 369.992188 368.867188 399.675781 394.332031 427.324219 C 395.292969 428.320313 397.207031 430.089844 395.058594 429.191406 C 353.382813 415.320313 324.921875 428.007813 294.03125 444.546875 C 277.3125 453.246094 221.515625 486.257813 190.164063 479.816406 C 208.4375 448.648438 187.710938 403.113281 147.914063 398.40625 C 144.789063 398.039063 144.390625 397.277344 148.371094 396.910156 C 205.667969 393.273438 251.136719 453.480469 307.339844 416.554688 C 345.199219 389.554688 352.171875 343.476563 311.34375 305.179688 C 303.0625 297.703125 303.667969 283.757813 308.324219 270.191406 C 309.238281 267.464844 309.011719 266.78125 306.066406 267.558594 C 292.300781 271.441406 283.183594 283.929688 281 297.023438 C 242.433594 289.820313 212.132813 324.191406 216.925781 359.03125 C 222.976563 398.832031 276.667969 409.332031 285.554688 367.078125 C 287.523438 357.726563 282.296875 346.414063 268.429688 349.476563 C 251.601563 353.464844 254.785156 378.640625 274.054688 376.722656 C 267.515625 394.328125 228.019531 391.828125 223.445313 358.898438 C 218.09375 294.972656 306.59375 281.558594 329.714844 347.804688 C 341.636719 388.871094 290.027344 432.070313 254.957031 415.484375 C 211.511719 392.890625 168.199219 366.535156 127.273438 396.367188 C 83.886719 386.21875 55.089844 420.777344 51.972656 462.390625 C 30.839844 459.882813 14.164063 472.011719 2.230469 490.054688 C -1.625 496.644531 0.800781 496.035156 6.777344 492.601563 C 35.984375 477.945313 61.152344 499.292969 86.441406 519.417969 C 128.75 549.324219 203.457031 543.300781 269.308594 483.175781 C 267.289063 505.660156 270.375 517.375 284.578125 531.015625 C 293.054688 538.101563 293.019531 536.851563 290.667969 527.542969 C 277.222656 471.925781 338.226563 422.503906 392.464844 440.351563 C 466.15625 468.503906 446.449219 544.839844 403.011719 553.515625 C 338.226563 561.664063 319.355469 473.449219 379.367188 467.664063 C 410.753906 466.175781 422.121094 501.414063 398.292969 511.167969 C 397.386719 498.496094 388.015625 496.640625 381.375 499.289063 C 372.671875 503.121094 370.964844 514.601563 381.007813 521.746094 C 418.710938 542.566406 439.398438 477.097656 394.464844 462.082031 C 359.140625 452.304688 327.085938 477.996094 334.324219 524.597656 C 330.304688 530.46875 325.949219 540.746094 336.789063 554.789063 C 385.0625 608.5 475.777344 557.570313 453.265625 478.433594 C 465.546875 490.957031 479.1875 502.078125 496.722656 509.96875 C 502.832031 512.878906 503.058594 511.804688 498.484375 507.625 C 362.78125 373.683594 377.414063 127.785156 532.734375 6.945313 C 540.125 1.066406 538.753906 -1.5 529.332031 3.730469 Z M 122.824219 409.160156 C 185.441406 395.921875 198.777344 452.910156 183.515625 478.4375 C 179.1875 477.996094 164.703125 472.976563 161.683594 471.195313 C 158.839844 469.488281 156.175781 468.910156 158.804688 472.757813 C 163.222656 478.574219 168.84375 484.136719 175.929688 487.929688 C 169.980469 496.753906 128.152344 513.234375 106.078125 478.324219 C 99.613281 467.652344 108.054688 437.660156 134.972656 437.074219 C 132.921875 448.554688 144.859375 458.558594 155.601563 450.90625 C 162.820313 445.484375 164.523438 432.296875 150.695313 426.980469 C 138.351563 421.511719 114.128906 424.863281 101.058594 452.230469 C 100.441406 453.523438 100.066406 454.238281 100.257813 451.984375 C 101.921875 435.757813 108.113281 420.0625 122.824219 409.160156 Z M 254.328125 489.007813 C 215.769531 520.835938 161.566406 540.300781 111.003906 523.019531 C 57.167969 500.589844 65.304688 435.066406 107 414.980469 C 95.90625 431.53125 89.722656 454.449219 97.179688 475.910156 C 111.777344 511.644531 162.363281 511.53125 181.757813 491.007813 C 204.742188 501.164063 231.566406 497.355469 253.679688 487.621094 C 257.058594 485.953125 257.398438 486.523438 254.328125 489.007813 "/>
</g>
</svg>
