<?xml version="1.0" encoding="UTF-8"?>
<svg xmlns="http://www.w3.org/2000/svg" xmlns:xlink="http://www.w3.org/1999/xlink" width="528pt" height="329pt" viewBox="0 0 528 329" version="1.1">
<g id="surface1">
<path style=" stroke:none;fill-rule:nonzero;fill:rgb(0%,0%,0%);fill-opacity:1;" d="M 513.019531 9.816406 C 500.269531 9.558594 498.890625 20.351563 498.773438 20.351563 C 494.769531 20.40625 225.308594 20.40625 225.308594 20.40625 C 222.121094 14.886719 218.128906 1.980469 190.414063 8.289063 C 196.472656 11.332031 197.257813 17.539063 195.964844 21.269531 C 192.914063 28.007813 183.832031 27.980469 176.675781 28.191406 C 180.222656 20.847656 182.859375 12.5 181.648438 3.96875 C 168.121094 11.089844 149.226563 8.988281 134.746094 6.238281 C 132.851563 5.890625 103.019531 -0.441406 87.238281 0.398438 C 55.851563 2.875 30.363281 25.042969 17.847656 51.332031 C 12.984375 61.738281 11.835938 75.433594 1.160156 81.585938 C 7.152344 85.589844 10.460938 87.605469 16.785156 88.066406 C 13.742188 92.511719 6.03125 95.972656 0.984375 93.109375 C 6.03125 133.863281 39.003906 124.023438 44.234375 117.386719 C 78.863281 130.910156 92.175781 112.871094 99.496094 103.128906 C 104.238281 106.238281 109.570313 114.726563 111.589844 117.542969 C 119.707031 110.734375 122.519531 104.558594 120.914063 95.652344 C 117.984375 84.652344 109.625 78.460938 102.105469 78.832031 C 101.5 71.859375 90.179688 45.285156 62.667969 56.214844 C 53.769531 60.308594 49.527344 71.371094 50.132813 81.914063 C 50.28125 81.910156 58.1875 78.726563 61.363281 84.609375 C 64.589844 91.542969 59.269531 94.558594 53.785156 93.179688 C 33.234375 88.003906 41.460938 41.839844 74.246094 35.640625 C 90.019531 32.808594 102.632813 34.136719 113.386719 40.6875 C 111.558594 43.84375 108.910156 51.675781 109.515625 52.175781 C 118.605469 52.425781 131.515625 59.558594 133.945313 64.230469 C 126.078125 65.496094 121.058594 73.03125 119.199219 80.101563 C 127.617188 80.074219 136.285156 86.09375 139.085938 93.324219 C 144.566406 106.378906 137.894531 120.609375 129.152344 129.726563 C 123.050781 135.59375 116.535156 139.996094 108.628906 142.441406 C 108.074219 136.183594 102.484375 120.578125 82.496094 122.609375 C 84.117188 130.09375 80.1875 135.890625 74.125 139.324219 C 54.765625 148.902344 32.378906 140.996094 16.789063 130.746094 C 16.789063 130.746094 17.074219 306.707031 17.25 309.070313 C 11.445313 313.972656 13.023438 321.238281 13.574219 322.476563 C 16.292969 326.976563 19.539063 329.441406 24.914063 328.839844 C 36.257813 328.542969 40.398438 315.492188 31.175781 308.34375 C 31.175781 308.34375 31.214844 234.375 31.214844 234.375 C 31.425781 234 38.019531 245.570313 50.640625 244.582031 C 59.539063 243.359375 64.589844 234.203125 66.949219 226.601563 C 74.925781 191.441406 48.871094 167.023438 49.570313 165.597656 C 94.609375 177.660156 91.042969 189.902344 93.96875 198.703125 C 101.191406 195.4375 111.832031 187.503906 111.175781 163.636719 C 139.390625 156.992188 151.101563 140.304688 151.101563 140.304688 C 171.378906 153.054688 183.777344 133.878906 193.84375 124.644531 C 208.902344 106.921875 237.320313 67.429688 267.042969 75.152344 C 270.992188 76.292969 273.851563 80.058594 275.90625 82.71875 C 277.9375 74.019531 281.433594 64.835938 278.664063 56.054688 C 306.703125 40.363281 330.6875 50.558594 337.871094 55.34375 C 350.011719 63.984375 348.535156 74.8125 346.042969 79.621094 C 353.460938 75.710938 360.6875 71.890625 364.132813 61.882813 C 368.21875 48.730469 360.683594 40.46875 358.050781 35.992188 C 363.789063 36.921875 382.351563 47.890625 399.96875 52.628906 C 410.308594 55.128906 423.519531 55.058594 431.402344 49.265625 C 443.507813 39.136719 439.480469 32.707031 438.03125 30.453125 L 499.816406 30.320313 C 502.089844 35.351563 507.140625 38.808594 513.019531 38.808594 C 521.023438 38.808594 527.515625 32.316406 527.515625 24.3125 C 527.515625 16.308594 521.023438 9.980469 513.019531 9.816406 Z M 48.300781 207.804688 C 47.6875 214.226563 46.519531 219.890625 42.394531 222.894531 C 39.519531 225.058594 33.28125 225.519531 31.65625 219.296875 C 32.472656 201.84375 32.082031 165.996094 32.300781 165.914063 C 44.722656 175.691406 48.78125 201.527344 48.300781 207.804688 Z M 157.722656 131.914063 C 164.273438 123.597656 170.945313 105.015625 168.0625 79.324219 C 173.285156 83.601563 174.6875 91.09375 175.546875 97.714844 C 176.726563 110.234375 169.285156 129.742188 157.722656 131.914063 Z M 210.308594 51.863281 C 209.035156 53.746094 207.90625 55.628906 206.933594 57.648438 C 205.566406 56.359375 205.273438 53.933594 204.113281 52.195313 C 198.996094 54.265625 191.941406 67.617188 191.640625 67.480469 C 187.371094 59.988281 172.792969 56.480469 163.320313 63.734375 C 158.984375 51.898438 151.199219 39.503906 142.242188 31.863281 C 144.1875 31.566406 163.933594 44.671875 190.160156 42.339844 C 200.546875 41.445313 211.074219 37.410156 217.878906 30.269531 L 237.625 30.269531 C 228.035156 35.722656 216.738281 42.074219 210.308594 51.863281 Z M 223.828125 64.609375 C 228.355469 57.832031 234.691406 52.402344 241.222656 48.441406 C 241.441406 51.683594 244.351563 53.59375 244.429688 53.8125 C 236.8125 55.882813 230.195313 60.214844 223.828125 64.609375 Z M 264.386719 45.101563 C 265.476563 39.53125 263.003906 33.65625 258.847656 30.453125 L 282.1875 30.492188 C 274.4375 34.480469 269.394531 41.332031 264.386719 45.101563 Z M 416.578125 38.242188 C 415.433594 40.152344 412.140625 41.796875 403.359375 39.824219 C 394.109375 36.703125 386.039063 33.058594 376.214844 30.320313 C 376.355469 30.09375 403.15625 30.269531 412.457031 30.328125 C 418.144531 31.488281 418.144531 35.632813 416.578125 38.242188 "/>
</g>
</svg>
