<?xml version="1.0" encoding="UTF-8"?>
<svg xmlns="http://www.w3.org/2000/svg" xmlns:xlink="http://www.w3.org/1999/xlink" width="549pt" height="490pt" viewBox="0 0 549 490" version="1.1">
<g id="surface1">
<path style=" stroke:none;fill-rule:nonzero;fill:rgb(0%,0%,0%);fill-opacity:1;" d="M 221.765625 443.214844 C 221.753906 443.183594 221.738281 443.15625 221.726563 443.125 C 221.753906 443.191406 221.761719 443.214844 221.765625 443.214844 "/>
<path style=" stroke:none;fill-rule:nonzero;fill:rgb(0%,0%,0%);fill-opacity:1;" d="M 334.980469 444.023438 C 455.402344 433.140625 548.351563 362.484375 548.351563 276.9375 C 548.351563 183.855469 438.304688 108.394531 302.554688 108.394531 C 283.230469 108.394531 264.433594 109.925781 246.394531 112.816406 C 235.253906 108.101563 219.4375 104.902344 213.957031 98.703125 C 213.761719 98.484375 213.769531 98.035156 214.390625 98.066406 C 217.640625 98.222656 228.105469 99.082031 232.839844 103.753906 C 233.851563 104.753906 234.316406 104.464844 233.558594 103.347656 C 232.117188 101.234375 230.730469 99.027344 229.730469 97.085938 C 229.441406 96.527344 229.894531 96.203125 230.3125 96.59375 C 231.496094 97.703125 232.472656 98.953125 233.644531 100.070313 C 234.242188 100.640625 234.902344 100.429688 234.390625 99.65625 C 233.238281 97.90625 231.738281 95.71875 230.769531 93.941406 C 230.476563 93.40625 230.921875 93.078125 231.335938 93.378906 C 237.46875 97.78125 241.34375 101.617188 247.175781 105.28125 C 249.320313 106.902344 249.257813 105.640625 248.355469 104.773438 C 243.984375 100.570313 238.714844 96.871094 235.621094 91.964844 C 235.355469 91.539063 235.753906 90.96875 236.1875 91.144531 C 241.519531 93.289063 246.347656 97.457031 251.046875 101.082031 C 252.316406 102.0625 252.679688 101.617188 251.558594 100.542969 C 248.71875 97.828125 245.699219 95.261719 242.589844 92.609375 C 242.035156 92.136719 242.273438 91.699219 242.945313 92.003906 C 248.539063 94.515625 253.964844 98.847656 260.464844 102.171875 C 262.027344 102.96875 262.6875 102.59375 261.449219 101.707031 C 257.644531 98.984375 254.339844 96.230469 250.542969 93.351563 C 249.992188 92.933594 249.65625 92.238281 250.984375 92.808594 C 254.566406 94.347656 262.035156 97.914063 268.660156 100.722656 C 271.160156 101.78125 271.332031 101.085938 269.140625 99.898438 C 264.28125 97.269531 259.25 94.484375 254.730469 90.882813 C 254.109375 90.386719 254.359375 89.933594 255.089844 90.230469 C 262.894531 93.386719 270.644531 96.679688 277.996094 99.351563 C 280.40625 100.226563 280.828125 99.75 278.648438 98.769531 C 271.671875 95.617188 264.414063 92.503906 257.753906 88.710938 C 256.953125 88.257813 257.148438 87.878906 258.042969 88.171875 C 267.425781 91.222656 277.546875 94.921875 286.898438 97.644531 C 288.867188 98.214844 288.773438 97.402344 286.878906 96.558594 C 278.378906 92.753906 270.597656 89.628906 261.539063 85.828125 C 250.578125 80.335938 209.894531 82.9375 209.894531 82.9375 C 202.96875 81.914063 211.660156 79.761719 212.132813 79.734375 C 217.910156 79.402344 224.402344 80.484375 229.871094 79.835938 C 230.6875 79.738281 230.664063 78.902344 229.785156 78.71875 C 225.203125 77.761719 220.324219 77.273438 216.289063 75.335938 C 215.886719 75.144531 216.085938 74.476563 216.574219 74.378906 C 223.644531 72.96875 230.867188 74.402344 237.789063 73.644531 C 240.214844 73.378906 240.464844 72.441406 237.753906 72.464844 C 230.425781 71.628906 224.125 71.988281 216.636719 70.828125 C 216.1875 70.699219 216.320313 70.140625 216.832031 70.019531 C 226.070313 67.855469 235.589844 67.296875 245.007813 67.054688 C 246.113281 67.027344 246.179688 66.402344 245.261719 66.417969 C 238.953125 65.609375 231.589844 66.492188 225.074219 64.578125 C 224.492188 64.410156 224.628906 63.65625 225.261719 63.503906 C 234.8125 61.25 244.464844 62.238281 254.035156 61.824219 C 254.804688 61.789063 254.828125 61.335938 253.960938 61.179688 C 246.441406 59.804688 233.867188 59.363281 229.535156 58.398438 C 228.742188 58.21875 229.003906 57.578125 229.46875 57.476563 C 238.195313 55.5625 247.132813 56.003906 255.773438 55.886719 C 257.484375 55.863281 257.585938 55.308594 255.9375 55.15625 C 248.46875 54.46875 240.875 54.445313 233.65625 53.359375 C 233.035156 53.269531 233.03125 52.707031 233.65625 52.546875 C 243.992188 49.886719 255.300781 49.707031 264.621094 48.890625 C 265.707031 48.796875 265.777344 48.300781 264.773438 48.214844 C 257.597656 47.59375 250.507813 48.601563 243.335938 49.027344 C 242.699219 49.0625 242.058594 48.816406 243.484375 48.40625 C 247.765625 47.171875 257.738281 44.605469 264.636719 42.664063 C 265.859375 42.320313 265.71875 41.824219 264.589844 41.910156 C 234.714844 43.234375 206.789063 59.296875 204.246094 60.84375 C 200.996094 62.824219 199.460938 61.839844 201.714844 59.867188 C 203.113281 58.640625 207.910156 54.320313 210.683594 52.09375 C 213.023438 50.230469 213.542969 49.074219 210.339844 51.164063 C 209.09375 51.417969 205.363281 54.011719 203.003906 54.753906 C 200.800781 55.445313 202.804688 53.457031 204.738281 52.023438 C 210.257813 47.933594 214.144531 47.445313 219.785156 45.328125 C 224.449219 43.675781 222.707031 43.96875 219.125 44.765625 C 215.273438 45.625 209.304688 47.070313 206.871094 47.328125 C 205.789063 47.445313 205.410156 47.328125 206.226563 46.816406 C 213.140625 41.800781 221.003906 38.953125 228.597656 35.5625 C 231.410156 34.234375 231 33.734375 228.113281 34.6875 C 224.394531 35.945313 215.65625 39.921875 212.386719 40.886719 C 211.1875 41.238281 210.722656 41.1875 211.515625 40.445313 C 218.566406 35.023438 225.886719 29.191406 232.53125 23.902344 L 233.363281 23.726563 C 233.808594 23.285156 234.859375 22.003906 235.429688 21.363281 C 238.800781 18.148438 236.226563 19.824219 234.113281 21.105469 C 210.519531 26.59375 179.242188 68.105469 174.496094 73.664063 C 172.8125 75.269531 172.492188 74.089844 172.980469 72.816406 C 174.140625 69.804688 179.820313 62.453125 182.585938 59.402344 C 185.9375 54.507813 184.496094 56.019531 181.960938 58.851563 C 179.878906 61.175781 177.054688 64.390625 175.535156 65.683594 C 174.765625 66.335938 174.332031 66.496094 174.496094 65.800781 C 174.847656 62.226563 180.347656 55.179688 182.574219 51.898438 C 184.320313 49.441406 184.039063 48.273438 181.820313 51.15625 C 179.238281 54.582031 175.183594 60.78125 173.027344 63.316406 C 171.914063 64.621094 171.273438 64.851563 171.515625 62.953125 C 172.269531 55.867188 178.570313 40.769531 180.386719 35.140625 C 181.175781 32.691406 181.113281 32.035156 179.378906 34.613281 C 177.527344 37.996094 174.929688 43.75 173.761719 46.125 C 173.273438 47.113281 172.988281 47.363281 173.007813 46.277344 C 173.335938 37.550781 177.476563 27.453125 179.933594 22.257813 C 181.398438 18.960938 180.414063 18.175781 178.925781 21.773438 C 176.84375 25.753906 174.691406 31.625 173.128906 35.617188 C 172.40625 36.84375 171.960938 37.117188 172.058594 35.5625 C 172.613281 28.335938 176.890625 10.339844 179.4375 3.640625 C 180.785156 0.0976563 180.046875 -0.3125 178.296875 3.429688 C 170.695313 20.414063 165.984375 57.597656 163.742188 66.6875 C 163.144531 69.117188 162.675781 69.5 162.296875 66.886719 C 162.550781 49.804688 160.628906 21.574219 160.375 10.121094 C 160.265625 5.332031 160.007813 4.324219 159.3125 10.210938 C 158.445313 17.46875 159.375 33.046875 158.972656 37.28125 C 158.871094 39.363281 158.171875 39.328125 157.851563 38.640625 C 156.125 35.183594 154.96875 24.863281 153.933594 21.28125 C 153.429688 19.527344 153.074219 19.238281 152.9375 21.871094 C 152.542969 29.917969 155.839844 47.242188 156.308594 52.8125 C 156.480469 54.84375 156.277344 55.308594 155.378906 53.191406 C 153.890625 49.070313 151.847656 37.292969 150.617188 32.34375 C 149.945313 29.640625 149.515625 28.976563 149.550781 32.71875 C 150.179688 43.40625 152.441406 53.277344 152.546875 64.28125 C 152.558594 65.144531 152.175781 65.242188 151.949219 64.378906 C 147.953125 49.179688 134.410156 26.480469 129.4375 19.785156 C 127.394531 16.1875 126.492188 17.128906 128.152344 20.640625 C 130.691406 25.914063 138.273438 37.789063 140.113281 41.980469 C 141.207031 43.730469 140.730469 44.054688 139.246094 42.480469 C 137.039063 40.195313 131.042969 32.964844 127.835938 29.539063 C 125.710938 27.269531 124.8125 26.671875 127.039063 30.277344 C 129.804688 35.59375 138.539063 46.265625 140.421875 49.851563 C 141.03125 51.019531 140.347656 51.550781 139.246094 50.75 C 136.476563 48.160156 130.410156 40.800781 127.558594 38.09375 C 125.441406 35.664063 123.9375 35.386719 126.632813 38.953125 C 130.296875 44.785156 135.585938 49.9375 139.246094 55.632813 C 140.007813 56.820313 141.738281 59.160156 139.246094 57.53125 C 137.222656 56.675781 132.074219 53.394531 129.15625 51.785156 C 126.980469 50.585938 126.039063 50.3125 128.53125 52.648438 C 131.277344 55.597656 139.230469 64.199219 141.417969 67.335938 C 142.144531 68.382813 142.234375 68.820313 141.277344 68.242188 C 138.628906 66.121094 131.296875 61.589844 128.023438 60.035156 C 124.746094 57.550781 123.390625 58.464844 127.585938 60.921875 C 133.414063 64.445313 138.023438 69.597656 142.226563 75.15625 C 142.558594 75.816406 141.972656 75.839844 140.84375 75.472656 C 137.460938 74.367188 129.175781 69.769531 126.007813 68.484375 C 124.085938 67.527344 123.304688 67.867188 125.6875 69.324219 C 133.816406 74.40625 142.1875 81.988281 148.339844 90.0625 C 148.753906 90.605469 148.308594 91.003906 147.695313 90.664063 C 89.328125 58.460938 73.257813 80.976563 51.925781 80.039063 C 48.894531 80.046875 49.625 81.136719 52.304688 81.390625 C 58.597656 81.984375 76.355469 81.457031 86.972656 79.585938 C 87.863281 79.429688 88.15625 79.8125 87.507813 80.148438 C 78.507813 83.074219 73.820313 85.765625 67.070313 90.890625 C 63.484375 93.339844 65.902344 92.773438 67.925781 91.996094 C 72.195313 90.367188 82.636719 84.980469 89.398438 84.246094 C 90.171875 84.164063 91.09375 84.5 90.1875 85.101563 C 87.335938 86.988281 80.800781 91.359375 77.859375 93.800781 C 74.679688 96.253906 75.003906 97.019531 79.320313 94.644531 C 85.226563 92.046875 87.945313 89.625 97.292969 88.871094 C 100.121094 88.507813 99.714844 88.984375 98.527344 89.953125 C 94.273438 92.035156 91.867188 93.75 88.195313 96.257813 C 87.6875 96.605469 88.160156 97.195313 88.816406 96.953125 C 102.199219 92.039063 113.15625 91.453125 118.175781 92.390625 C 121.699219 93.046875 124.210938 94.832031 118.769531 95.632813 C 81.910156 100.117188 66.566406 113.277344 44.957031 124.636719 C 43.554688 125.371094 42.78125 126.003906 45.453125 125.15625 C 49.941406 123.730469 56.679688 121.679688 61.703125 119.996094 C 62.722656 119.695313 63.765625 119.773438 63.097656 120.671875 C 60.601563 124.113281 54.289063 127.34375 52.140625 129.984375 C 51.773438 130.4375 52.132813 130.839844 52.539063 130.59375 C 58.015625 127.285156 67.046875 121.714844 71.175781 119.730469 C 72.449219 119.117188 72.183594 119.960938 71.703125 120.492188 C 70.179688 122.15625 65.488281 127.214844 63.835938 128.449219 C 62.394531 129.5 62.828125 130.234375 64.550781 129.332031 C 68.269531 127.5625 77.898438 122.746094 80.667969 121.527344 C 88.398438 118.855469 84.738281 122.847656 80.667969 124.917969 C 71.742188 130.632813 47.285156 136.195313 37.121094 149.386719 C 36.21875 150.296875 37.003906 150.410156 37.644531 149.785156 C 44.238281 143.355469 53.164063 140.464844 61.261719 138.195313 C 61.90625 138.015625 62.425781 138.558594 61.984375 139.078125 C 58.253906 143.484375 51.75 151.058594 49.566406 154.671875 C 48.925781 155.730469 49.777344 155.429688 50.234375 154.828125 C 55.125 148.421875 62.898438 142.8125 70.011719 140.078125 C 70.492188 139.894531 70.78125 140.363281 70.433594 140.769531 C 68.515625 143.023438 66.410156 145.386719 64.992188 147.714844 C 64.664063 148.253906 64.640625 148.914063 65.46875 148.171875 C 68.695313 145.28125 77.066406 137.765625 83.011719 135.246094 C 83.566406 135.011719 84.070313 135.5625 83.761719 136.015625 C 80.4375 140.886719 76.628906 144.925781 72.703125 152.339844 C 72.167969 153.59375 73.054688 153.878906 74.160156 152.53125 C 77.960938 148.816406 82.085938 144.195313 86.035156 141.199219 C 86.554688 140.804688 86.980469 141.351563 86.703125 142.136719 C 85.863281 144.492188 85.167969 147.609375 84.71875 149.515625 C 84.457031 150.609375 84.941406 150.273438 85.300781 149.78125 C 88.296875 145.730469 90.824219 141.105469 94.734375 137.550781 C 96.15625 135.796875 97.210938 136.070313 96.382813 137.679688 C 93.765625 141.859375 91.769531 145.550781 89.609375 149.644531 C 89.238281 150.351563 89.273438 151.125 90.230469 149.980469 C 93.800781 145.703125 102.3125 134.78125 109.871094 128.589844 C 110.402344 128.15625 111.027344 128.488281 110.742188 129.054688 C 109.148438 132.222656 106.15625 135.355469 104.019531 138.6875 C 103.71875 139.15625 103.902344 139.863281 104.777344 139.171875 C 106.9375 137.464844 110.746094 133.945313 113.035156 132.371094 C 113.929688 131.757813 114.375 132.269531 113.796875 132.914063 C 110.5 136.605469 101.933594 147.546875 91.175781 165.472656 C 91.175781 165.472656 65.476563 165.945313 39.261719 183.898438 C 38.300781 184.503906 38.480469 184.988281 39.671875 184.535156 C 46.371094 181.996094 55.917969 178.132813 60.09375 176.578125 C 61.484375 176.0625 61.113281 176.640625 60.582031 176.988281 C 54.5625 180.910156 48.261719 184.316406 42.855469 189.078125 C 42.101563 189.746094 42.453125 190.101563 43.382813 189.535156 C 51.363281 184.648438 60.5625 178.070313 70.457031 174.066406 C 71.054688 173.824219 71.386719 174.277344 70.941406 174.722656 C 65.78125 179.886719 59.691406 184.417969 54.09375 189.410156 C 52.855469 190.511719 53.269531 190.898438 54.65625 189.902344 C 61.675781 184.859375 68.601563 179.191406 76.753906 175.542969 C 77.191406 175.347656 77.78125 175.710938 77.246094 176.324219 C 74.339844 179.675781 64.492188 187.503906 59.261719 193.078125 C 58.65625 193.722656 58.945313 194.074219 59.585938 193.640625 C 65.8125 189.441406 79.308594 179.402344 84.84375 175.265625 C 86.367188 174.125 86.429688 174.914063 85.992188 175.671875 C 77.972656 189.527344 67.847656 207.523438 64.566406 225.8125 L 63.882813 226.390625 C 62.425781 228.09375 60.972656 229.824219 59.492188 231.609375 C 58.171875 233.207031 58.445313 233.976563 59.957031 232.59375 C 61.332031 231.332031 62.714844 230.027344 64.101563 228.695313 L 63.953125 229.480469 C 61.695313 243.914063 61.265625 258.15625 61.6875 272.847656 C 61.75 274.65625 61.472656 275.742188 60.738281 274.339844 C 55.449219 262.269531 46.789063 248.085938 34.042969 241.847656 C 30.058594 240.351563 29.375 240.476563 32.398438 243.96875 C 35.382813 247.761719 39.179688 251.152344 41.210938 255.222656 C 44.117188 261.101563 42.738281 265.601563 43.734375 267.359375 C 45.195313 268.777344 45.976563 265.835938 47.042969 267.964844 C 48.066406 270.066406 44.925781 269.078125 45.050781 271.886719 C 45.886719 275.820313 48.386719 279.722656 50.976563 284.101563 C 51.804688 285.421875 53.625 282.558594 54.796875 281.234375 C 55.484375 280.460938 55.945313 280.21875 55.855469 281.660156 C 55.640625 284.601563 54.371094 290.285156 52.464844 288.984375 C 50.160156 287.628906 47.855469 286.40625 45.550781 285.050781 C 34.433594 276.914063 27.789063 292.777344 20.738281 298.203125 C 18.46875 300.273438 19.648438 300.9375 22.09375 299.695313 C 26.941406 297.390625 32.023438 297.101563 35.820313 296.015625 C 36.226563 291.269531 37.914063 292.753906 39.554688 295.796875 C 40.515625 298.074219 43.390625 297.464844 43.867188 295.285156 C 44.582031 293.226563 46.347656 293.363281 46.824219 296.75 C 47.230469 300.953125 53.882813 304.898438 53.824219 302.542969 C 53.847656 300.828125 55.808594 299.871094 55.855469 302.136719 C 55.414063 305.933594 61.386719 310.34375 63.828125 312.445313 C 65.132813 313.570313 65.421875 314.035156 63.179688 313.390625 C 45.414063 307.964844 23.027344 304.886719 2.824219 305.429688 C 0.148438 305.703125 0.53125 306.609375 2.570313 307.015625 C 10.160156 308.238281 17.078125 314.066406 24.535156 316.777344 C 25.875 317.644531 26.296875 315.558594 26.976563 314.746094 C 30.773438 311.355469 26.339844 318.636719 29.886719 318.453125 C 33.453125 318.160156 39.179688 320.847656 43.109375 322.066406 C 45.539063 323.0625 42.792969 317.53125 44.601563 317.726563 C 47.585938 318.136719 47.585938 321.253906 48.941406 323.152344 C 59.515625 326.8125 71.742188 330.355469 80.554688 338.488281 C 82.171875 339.742188 81.554688 340.21875 79.101563 339.179688 C 77 338.53125 67.8125 334.238281 63.425781 332.570313 C 60.984375 331.644531 60.03125 331.53125 62.636719 333.320313 C 69.828125 337.328125 72.59375 340.089844 69.957031 340.644531 C 58.703125 343.21875 46.90625 346.203125 38.773438 355.285156 C 37.226563 356.410156 37.890625 356.902344 40.453125 356.539063 C 44.507813 356.597656 53.199219 354.636719 60.722656 354.839844 C 65.261719 354.878906 61.378906 350.46875 62.636719 350 C 65.535156 348.589844 65.558594 356.757813 72.941406 353.390625 C 74.972656 355.015625 82.722656 357.882813 79.3125 358.269531 C 72.457031 359.15625 64.800781 361.652344 60.597656 366.667969 C 59.125 368.996094 62.4375 368.660156 65.019531 368.566406 C 70.171875 368.160156 73.890625 368.980469 77.820313 371.421875 C 79.824219 372.910156 78.292969 368.03125 81.5 368.121094 C 83.042969 368.527344 82.222656 371.914063 83.308594 372.324219 C 85.820313 373.277344 93.328125 370.527344 97.53125 369.6875 C 100.359375 369.121094 102.316406 370.59375 99.488281 375.117188 C 96.660156 379.644531 106.769531 380.507813 110.234375 377.945313 C 116.738281 373.140625 114.191406 379.078125 118.152344 380.773438 C 122.109375 382.472656 123.808594 385.863281 124.9375 392.085938 C 125.460938 394.96875 127.199219 401.488281 128.746094 406.089844 C 130.535156 411.417969 132.070313 414.164063 131.160156 405.660156 C 130.433594 398.867188 130.882813 400.050781 128.898438 386.996094 C 125.351563 363.691406 130.527344 382.324219 131.539063 386.378906 C 132.554688 390.433594 135.085938 398.03125 135.59375 402.59375 C 136.097656 407.152344 138.632813 412.726563 138.125 403.097656 C 137.621094 393.472656 137.113281 394.484375 137.621094 388.910156 C 138.125 383.339844 140.152344 383.339844 140.152344 389.925781 C 140.152344 396.511719 141.164063 399.550781 141.164063 402.59375 C 141.164063 405.632813 143.191406 411.207031 143.699219 404.113281 C 144.207031 397.019531 143.699219 395.753906 144.714844 390.433594 C 145.433594 386.640625 147.753906 387.898438 149.273438 393.980469 C 150.792969 400.058594 155.351563 403.097656 150.285156 409.683594 C 145.21875 416.273438 142.6875 416.273438 145.21875 419.3125 C 147.753906 422.351563 150.285156 426.40625 146.738281 425.898438 C 143.191406 425.390625 146.636719 428.375 145.722656 434.757813 C 144.8125 441.144531 144.886719 447.183594 146.710938 448.097656 C 148.535156 449.007813 154.007813 448.550781 152.183594 450.375 C 149.253906 453.304688 146.144531 449.195313 145.800781 453.339844 C 145.34375 458.8125 150.359375 466.792969 148.992188 472.265625 C 147.621094 477.734375 146.710938 483.664063 152.183594 476.824219 C 157.65625 469.984375 169.03125 434.003906 165.992188 425.390625 C 162.953125 416.777344 164.980469 415.257813 167.511719 420.832031 C 170.046875 426.40625 172.832031 435.777344 178.152344 437.550781 C 182.960938 439.15625 184.234375 434.511719 187.273438 435.527344 C 190.3125 436.539063 191.324219 436.539063 186.765625 441.097656 C 182.207031 445.660156 186.257813 445.660156 188.792969 456.296875 C 191.324219 466.9375 192.847656 467.445313 193.351563 471.5 C 193.859375 475.550781 196.898438 480.113281 197.40625 472.007813 C 197.914063 463.898438 207.539063 439.578125 201.964844 432.484375 C 196.394531 425.390625 198.421875 423.871094 205.007813 430.460938 C 211.59375 437.046875 214.632813 437.046875 215.140625 446.671875 C 215.644531 456.296875 217.164063 455.792969 217.671875 449.207031 C 218.179688 442.617188 216.152344 437.550781 213.113281 433.5 C 210.074219 429.445313 210.832031 423.617188 215.394531 428.683594 C 216.238281 429.628906 221.789063 443.25 221.765625 443.214844 C 225.550781 452.25 229.308594 453.476563 224.257813 442.367188 C 219.191406 431.21875 221.726563 432.992188 220.714844 429.953125 C 219.699219 426.914063 219.699219 422.859375 225.273438 429.953125 C 230.847656 437.046875 233.378906 442.113281 234.394531 451.230469 C 235.40625 460.351563 235.40625 461.367188 239.964844 461.367188 C 244.527344 461.367188 246.046875 461.367188 243.511719 465.417969 C 240.980469 469.472656 240.472656 466.9375 246.554688 475.550781 C 252.632813 484.164063 254.152344 495.3125 254.660156 485.6875 C 255.164063 476.058594 253.140625 447.179688 248.578125 441.097656 C 244.019531 435.019531 244.527344 429.953125 249.085938 436.539063 C 253.644531 443.125 256.179688 437.046875 258.207031 451.738281 C 260.234375 466.433594 262.257813 476.566406 263.78125 463.898438 C 265.300781 451.230469 263.273438 438.566406 261.753906 435.019531 C 260.234375 431.472656 264.792969 431.980469 265.804688 437.550781 C 266.820313 443.125 267.324219 449.207031 272.394531 455.792969 C 277.460938 462.378906 278.472656 461.871094 281.511719 465.417969 C 284.554688 468.964844 289.621094 469.472656 284.554688 463.898438 C 279.484375 458.324219 277.460938 454.777344 275.433594 448.699219 C 273.40625 442.617188 273.40625 437.046875 279.484375 445.152344 C 285.566406 453.257813 296.714844 460.859375 290.125 453.257813 C 283.539063 445.660156 282.527344 442.113281 287.59375 446.671875 C 292.660156 451.230469 293.671875 451.230469 295.699219 453.257813 C 297.726563 455.285156 308.871094 461.367188 298.738281 452.246094 C 288.605469 443.125 294.179688 446.671875 300.765625 447.179688 C 307.351563 447.683594 308.367188 443.125 313.433594 449.207031 C 318.5 455.285156 317.992188 453.765625 321.539063 456.804688 C 325.085938 459.84375 328.632813 460.859375 322.554688 454.777344 C 316.472656 448.699219 314.445313 442.617188 318.5 446.164063 C 322.554688 449.710938 324.074219 450.472656 328.378906 454.527344 C 332.070313 457.996094 337.5 459.339844 330.152344 453.765625 C 317.675781 444.300781 329.683594 447.933594 333.644531 448.644531 C 336.480469 449.15625 343.257813 450.34375 350.046875 452.039063 C 356.832031 453.734375 362.488281 452.605469 350.046875 449.777344 C 343.039063 448.183594 337.292969 446.59375 334.109375 445.101563 C 333.484375 444.808594 334.167969 444.09375 334.980469 444.023438 Z M 80.28125 110.785156 C 78.714844 112.554688 77.117188 114.136719 74.191406 116.046875 C 73.792969 116.261719 73.597656 116.15625 73.957031 115.808594 C 74.292969 115.484375 74.625 115.121094 74.902344 114.769531 C 75.183594 114.421875 74.84375 114.21875 74.503906 114.449219 C 73.117188 115.394531 72.199219 115.960938 70.140625 117.246094 C 69.796875 117.398438 69.589844 116.9375 69.851563 116.601563 C 74.015625 112.730469 74.015625 111.902344 78.4375 108.769531 C 78.875 108.460938 79.164063 108.605469 78.8125 109.035156 C 78.445313 110.042969 77.910156 111.128906 77.394531 111.832031 C 76.890625 112.605469 77.316406 112.769531 77.84375 112.328125 C 78.617188 111.734375 79.402344 111.117188 80.183594 110.511719 C 80.570313 110.210938 80.640625 110.382813 80.28125 110.785156 Z M 104.558594 114.933594 C 102.613281 115.898438 95.3125 118.273438 92.464844 119.089844 C 90.277344 119.859375 90.449219 119.367188 91.660156 118.410156 C 93.496094 116.96875 97.707031 114.464844 99.734375 113.652344 C 100.792969 113.226563 101.257813 113.261719 100.476563 114.152344 C 100.21875 114.449219 99.820313 114.839844 99.257813 115.339844 C 99.519531 116.15625 102.375 115.0625 103.914063 114.613281 C 104.789063 114.359375 105.238281 114.3125 104.558594 114.933594 Z M 229.175781 116.039063 C 228.984375 116.078125 228.789063 116.121094 228.597656 116.160156 C 228.746094 115.996094 228.976563 115.925781 229.175781 116.039063 Z M 223.957031 116.890625 C 224.027344 116.980469 224.089844 117.0625 224.160156 117.148438 C 223.863281 117.21875 223.570313 117.285156 223.273438 117.355469 C 223.269531 117.332031 223.261719 117.304688 223.257813 117.28125 C 223.121094 116.6875 223.636719 116.492188 223.957031 116.890625 Z M 215.636719 115.449219 C 216.363281 116.484375 217.058594 117.582031 217.734375 118.703125 C 216.773438 118.945313 215.8125 119.191406 214.859375 119.441406 C 215.320313 117.503906 215.609375 115.410156 215.636719 115.449219 Z M 205.308594 93.90625 C 206.261719 94.894531 207.949219 95.476563 208.578125 96.417969 C 207 96.050781 201.714844 94.953125 201.105469 94.742188 C 201.867188 94.300781 203.683594 93.863281 205.308594 93.90625 Z M 199.324219 110.695313 C 200.433594 111.820313 200.648438 111.007813 200.414063 110.382813 C 199.996094 109.257813 199.71875 108.382813 199.558594 107.710938 C 198.574219 103.546875 202.011719 107.089844 203.148438 107.855469 C 204.894531 109.027344 206.527344 112.792969 207.6875 121.078125 C 208.710938 121.433594 208.589844 112.875 209.539063 113.203125 C 210.765625 113.632813 212.289063 115.726563 212.945313 119.949219 C 206.132813 121.777344 199.464844 123.8125 192.960938 126.035156 C 195.382813 122.433594 197.984375 118.941406 200.566406 115.539063 C 202.003906 112.828125 201.183594 113.199219 199.238281 115.152344 C 197.503906 117.191406 196.175781 118.460938 194.46875 119.71875 C 189.589844 123.304688 190.242188 120.644531 193.511719 117.53125 C 195.605469 115.53125 195.980469 115.035156 195.535156 114.496094 C 195.230469 114.128906 192.6875 117.121094 191.007813 118.523438 C 190.277344 119.128906 189.742188 118.167969 190.222656 117.351563 C 190.6875 116.570313 191.328125 115.609375 191.984375 114.628906 C 192.191406 114.316406 189.382813 115.007813 187.578125 115.367188 C 186.675781 115.542969 186.695313 114.921875 187.265625 114.550781 C 187.722656 114.25 189.835938 113.355469 190.433594 113.015625 C 190.878906 112.761719 190.738281 111.398438 189.589844 111.324219 C 181.394531 110.789063 191.097656 109.957031 187.269531 106.488281 C 186.691406 105.96875 187.824219 105.234375 188.554688 105.640625 C 189.949219 106.414063 191.804688 107.949219 193.085938 109.015625 C 193.953125 109.738281 195.109375 109.148438 194.75 108.726563 C 193.210938 106.929688 192.800781 105.660156 192.53125 104.765625 C 191.734375 102.132813 192.183594 99.734375 196.25 106.988281 C 196.960938 108.257813 198.539063 109.898438 199.324219 110.695313 Z M 189.769531 170.082031 C 189.453125 169.769531 189.328125 169.585938 189.757813 169.730469 C 190.628906 170.339844 193.371094 172.910156 194.394531 173.941406 C 195.242188 174.699219 194.992188 174.742188 194.296875 174.445313 C 193.242188 174 191.171875 172.785156 190.34375 172.105469 C 189.914063 171.75 189.816406 171.542969 190.386719 171.667969 C 190.574219 171.710938 190.835938 171.789063 191.183594 171.910156 C 191.472656 171.605469 190.328125 170.636719 189.769531 170.082031 Z M 186.859375 143.671875 C 186.464844 143.96875 186.066406 143.765625 186.269531 143.367188 C 187.453125 141.050781 188.863281 138.753906 190.402344 136.472656 C 194.855469 134.796875 199.398438 133.214844 204.023438 131.738281 C 198.09375 135.355469 192.390625 139.496094 186.859375 143.671875 Z M 178.601563 79.285156 C 181.8125 76.535156 189.257813 70.851563 192.21875 69.34375 C 193.496094 68.695313 193.941406 68.824219 192.855469 70.296875 C 192.105469 71.3125 182.265625 78.640625 179.199219 79.9375 C 178.550781 80.210938 177.386719 80.328125 178.601563 79.285156 Z M 173.191406 125.683594 C 174.496094 123.945313 179.953125 118.546875 182.132813 116.539063 C 183.742188 114.867188 183.808594 115.382813 183.152344 116.78125 C 182.738281 117.671875 181.066406 121.28125 178.078125 124.660156 C 177.324219 125.515625 176.890625 125.691406 177.191406 124.546875 C 177.289063 124.164063 177.46875 123.636719 177.746094 122.9375 C 177.148438 122.324219 175.085938 124.585938 173.910156 125.679688 C 173.246094 126.296875 172.863281 126.542969 173.191406 125.683594 Z M 182.523438 143.257813 C 179.644531 147.671875 177.148438 152.582031 175.230469 155.425781 C 174.148438 157.023438 173.664063 157.375 174.484375 155.15625 C 174.988281 153.785156 175.988281 151.445313 177.648438 147.816406 C 178.648438 146.097656 180.304688 144.648438 181.753906 143.128906 C 182.308594 142.542969 182.820313 142.585938 182.523438 143.257813 Z M 141.671875 148.117188 C 143.527344 151.09375 146.992188 153.058594 143.953125 146.980469 C 140.914063 140.898438 141.292969 138.617188 143.574219 140.898438 C 147.183594 144.507813 150.792969 146.21875 148.894531 143.9375 C 146.929688 141.585938 148.132813 142.800781 144.714844 138.617188 C 141.292969 134.4375 140.53125 129.878906 143.191406 132.917969 C 145.851563 135.960938 146.992188 137.097656 148.894531 139.757813 C 150.792969 142.417969 153.832031 143.9375 151.171875 139.757813 C 148.511719 135.578125 146.316406 132.339844 145.472656 131.019531 C 143.097656 127.3125 144.996094 123.417969 147.277344 127.980469 C 149.558594 132.539063 150.714844 134.84375 152.121094 137.195313 C 154.117188 140.519531 157.253906 143.558594 154.59375 137.480469 C 151.933594 131.398438 150.792969 125.699219 153.832031 131.777344 C 156.871094 137.859375 155.351563 135.960938 158.394531 142.417969 C 161.433594 148.878906 161.8125 149.640625 161.8125 150.777344 C 161.8125 151.917969 161.46875 152.285156 159.914063 148.878906 C 157.917969 144.507813 155.734375 143.558594 156.871094 145.839844 C 158.011719 148.117188 158.394531 148.878906 159.152344 150.777344 C 159.914063 152.679688 158.394531 154.199219 157.632813 152.300781 C 156.871094 150.398438 155.449219 148.5 154.6875 147.359375 C 153.929688 146.21875 152.789063 145.933594 153.167969 147.453125 C 153.546875 148.972656 154.335938 150.507813 154.972656 152.300781 C 156.019531 155.242188 154.972656 157.617188 153.074219 154.960938 C 151.171875 152.300781 150.699219 149.542969 149.652344 147.359375 C 148.726563 145.421875 146.613281 145.742188 148.132813 148.023438 C 149.652344 150.304688 150.414063 152.679688 150.414063 155.339844 C 150.414063 158 148.894531 160.660156 147.753906 157.617188 C 146.613281 154.578125 146.234375 153.4375 143.191406 152.679688 C 140.152344 151.917969 138.253906 152.300781 137.113281 151.917969 C 135.972656 151.539063 135.972656 151.917969 138.253906 150.398438 C 140.53125 148.878906 136.636719 140.042969 141.671875 148.117188 Z M 127.808594 104.777344 C 130.847656 103.839844 134.429688 102.941406 136.390625 102.695313 C 138.171875 102.136719 139.429688 102.613281 136.824219 103.710938 C 133.445313 104.925781 131.507813 105.230469 128.808594 105.953125 C 118.25 108.492188 122.535156 106.398438 127.808594 104.777344 Z M 128.710938 140.808594 C 126.589844 138.339844 123.34375 133.878906 122.429688 131.488281 C 121.972656 130.457031 124.609375 130.015625 125.042969 131.070313 C 126.722656 134.929688 128.101563 136.804688 129.777344 140.667969 C 131.386719 143.84375 130.679688 143.574219 128.710938 140.808594 Z M 127.753906 144.714844 C 126.453125 143.519531 124.519531 141.140625 123.957031 140.0625 C 123.417969 139.027344 123.410156 138.457031 124.414063 139.109375 C 126.480469 140.863281 127.726563 141.648438 128.769531 144.367188 C 129.34375 145.835938 128.726563 145.605469 127.753906 144.714844 Z M 128.699219 133.941406 C 124.515625 127.597656 126.914063 129.917969 129.238281 133.003906 C 130.574219 134.78125 132.019531 136.925781 132.648438 138.15625 C 133.441406 139.195313 133.425781 140.140625 132.085938 138.683594 C 130.480469 136.75 129.820313 135.546875 128.699219 133.941406 Z M 121.195313 140.148438 C 122.328125 141.503906 123.941406 144.109375 124.359375 145.257813 C 124.757813 146.351563 124.691406 146.914063 123.78125 146.140625 C 122.242188 143.847656 121.671875 142.90625 120.144531 140.363281 C 119.332031 139.011719 120.347656 139.140625 121.195313 140.148438 Z M 120.257813 143.589844 C 121.882813 146.40625 124.246094 151.394531 124.699219 153.910156 C 125.125 155.722656 122.425781 155.640625 122.054688 153.839844 C 121.121094 149.734375 120.113281 147.636719 119.183594 143.53125 C 118.191406 140.109375 118.835938 140.503906 120.257813 143.589844 Z M 98.636719 164.71875 C 99.769531 162.738281 116.738281 137.851563 116.738281 137.851563 C 116.738281 137.851563 120.628906 155.734375 119.285156 156.441406 C 117.941406 157.148438 116.964844 149.742188 116.46875 148.1875 C 115.976563 146.632813 115.691406 146.480469 115.832031 148.53125 C 115.972656 150.582031 115.902344 156.519531 116.183594 158.640625 C 116.46875 160.761719 116.113281 162.011719 115.546875 159.253906 C 114.980469 156.496094 113.8125 151.894531 113.8125 151.894531 C 113.8125 151.894531 113.285156 150.46875 113.40625 151.980469 C 113.65625 155.214844 114.058594 160.6875 114.105469 163.230469 C 114.121094 164.355469 113.679688 163.777344 113.554688 163.421875 C 111.855469 158.601563 109.0625 151.054688 109.453125 154.46875 C 109.949219 158.78125 113.40625 165.59375 111.082031 165 C 104.71875 163.375 97.507813 166.699219 98.636719 164.71875 Z M 88.972656 181.691406 C 90.105469 179.648438 93.300781 174.296875 94.855469 172.761719 C 95.667969 171.960938 102.589844 172.933594 102.203125 173.769531 C 100.78125 175.414063 94.125 179.867188 90.894531 182.214844 C 88.488281 184.394531 87.851563 183.714844 88.972656 181.691406 Z M 86.726563 186.019531 C 86.726563 186.019531 92.226563 183.734375 97.171875 181.472656 C 97.621094 181.261719 98.179688 181.679688 97.96875 182.074219 C 95.878906 186.027344 92.242188 189.320313 89.125 192.8125 C 88.53125 193.480469 89.003906 194.171875 89.722656 193.761719 C 94.503906 191.035156 97.042969 186.40625 101.890625 183.238281 C 102.285156 182.976563 102.726563 183.222656 102.488281 183.609375 C 100.144531 187.460938 95.652344 192.4375 93.804688 194.789063 C 93.269531 195.464844 93.789063 195.988281 94.425781 195.308594 C 96.652344 193.453125 98.25 190.65625 100.898438 189.371094 C 101.214844 189.21875 101.585938 189.667969 101.425781 190 C 94.457031 199.683594 73.183594 214.582031 73.183594 214.582031 C 77.339844 205.988281 81.34375 193.09375 86.726563 186.019531 Z M 51.320313 281.316406 C 50.507813 278.0625 46.046875 275.492188 47.539063 271.832031 C 48.21875 269.664063 50.09375 268.640625 49.160156 266.328125 C 48.191406 264.410156 44.957031 266.378906 44.875 265.339844 C 45.230469 261.851563 42.714844 254.703125 42.121094 251.710938 C 41.828125 250.234375 42.007813 249.773438 43.234375 251.269531 C 54.59375 262.105469 69.574219 297.855469 66.605469 296.105469 C 63.894531 295.023438 58.695313 291.996094 56.390625 287.65625 C 57.070313 284.671875 59.171875 281.851563 56.277344 279.246094 C 54.722656 277.898438 51.863281 281.179688 51.320313 281.316406 Z M 70.5 329.929688 C 65.347656 327.492188 59.25 323.109375 51.523438 321.753906 C 50.214844 321.855469 47.042969 316.777344 45.144531 314.746094 C 42.824219 312.214844 42.917969 322.730469 40.261719 319.21875 C 37.144531 315.558594 29.957031 318.949219 30.90625 311.898438 C 31.699219 309.429688 23.367188 313.289063 18.703125 311.355469 C 17.070313 310.566406 15.089844 309.589844 13.949219 308.816406 C 12.8125 308.042969 12.519531 307.476563 14.261719 307.511719 C 27.414063 307.242188 43.519531 311.085938 56.804688 314.339844 C 60.601563 319.492188 74.191406 331.292969 70.5 329.929688 Z M 72.277344 327.695313 C 69.152344 325.335938 61.894531 318.566406 60.707031 315.03125 C 67.621094 315.167969 68.855469 322.421875 73.066406 327.523438 C 73.996094 328.800781 73.933594 329.519531 72.277344 327.695313 Z M 74.839844 320.710938 C 68.433594 307.132813 58.230469 309.515625 57.644531 302.332031 C 56.941406 296.597656 52.917969 296.324219 53.269531 298.566406 C 54.796875 304.046875 47.871094 298.144531 47.96875 296.945313 C 48.054688 293.632813 46.492188 290.3125 44.1875 290.605469 C 42.96875 290.878906 44.332031 296.441406 39.722656 292.777344 C 37.195313 290.753906 35.519531 288.441406 32.941406 289.933594 C 30.636719 291.558594 36.964844 292.601563 34.296875 293.863281 C 31.449219 294 22.332031 298.796875 25.078125 296.304688 C 30.636719 291.558594 36.738281 281.117188 45.144531 287.898438 C 57.890625 294.679688 75.089844 302.703125 77.261719 318.160156 C 77.320313 321.945313 75.386719 323.691406 74.839844 320.710938 Z M 80.261719 341.1875 C 83.777344 342.238281 86.585938 345.320313 89.558594 347.800781 C 90.023438 348.191406 89.679688 348.378906 88.992188 348.121094 C 84.945313 346.597656 80.199219 345.1875 78.230469 341.59375 C 77.003906 340.199219 79.449219 340.777344 80.261719 341.1875 Z M 68.640625 350.878906 C 66.050781 351.375 65.304688 347.3125 62.285156 347.945313 C 60.511719 348.246094 61.519531 352.710938 59.542969 352.878906 C 55.144531 353.550781 48.84375 353.570313 46.070313 353.019531 C 44.851563 352.777344 44.460938 352.40625 45.472656 351.882813 C 54.695313 345.78125 61.671875 343.261719 72.652344 341.496094 C 75.011719 341.808594 82.804688 348.253906 74.851563 350.054688 C 72.292969 350.40625 70.539063 350.742188 68.640625 350.878906 Z M 75.382813 353.390625 C 73.292969 351.375 76.714844 349.65625 81.210938 354.335938 C 81.84375 355.5625 90.140625 355.507813 93.863281 355.859375 C 95.683594 356.03125 96.40625 356.304688 94.597656 356.871094 C 88.363281 358.09375 80.261719 357.050781 75.382813 353.390625 Z M 96.152344 368.492188 C 92.675781 368.332031 90.507813 369.21875 85.839844 370.273438 C 85.128906 370.640625 83.933594 365.472656 81.109375 365.15625 C 77.804688 365.425781 78.808594 370.175781 76.488281 368.824219 C 73.871094 367.5 70.171875 366.921875 67.089844 366.929688 C 65.984375 366.871094 64.640625 366.789063 63.820313 366.621094 C 62.996094 366.453125 62.699219 366.207031 63.6875 365.816406 C 70.640625 361.542969 74.871094 360.804688 83.113281 359.503906 C 89.523438 360.363281 98.546875 368.390625 96.152344 368.492188 Z M 95.324219 315.347656 C 95.367188 316.652344 94.605469 316.851563 94.246094 315.496094 C 90.582031 301.664063 92.628906 278.6875 93.378906 269.996094 C 93.5625 267.871094 92.910156 268.730469 92.589844 269.839844 C 87.972656 285.761719 86.164063 302.652344 89.230469 319.394531 C 89.613281 321.480469 88.808594 321.507813 88.027344 319.042969 C 84.707031 308.566406 82.800781 294.210938 81.933594 287.4375 C 81.625 285.03125 81.015625 286.050781 80.925781 287.308594 C 80.460938 293.976563 81.738281 301.363281 82.777344 308.671875 C 82.957031 309.949219 82.359375 309.796875 81.96875 308.421875 C 80.234375 302.304688 79.410156 295.871094 78.699219 289.335938 C 78.601563 288.421875 77.90625 288.335938 77.710938 289.183594 C 76.671875 293.722656 76.683594 297.867188 76.996094 302.402344 C 77.117188 304.199219 76.335938 303.925781 75.839844 301.878906 C 70.453125 279.679688 64.632813 242.015625 72.335938 221.277344 L 72.972656 219.933594 C 75.890625 217.007813 78.792969 214.085938 81.632813 211.316406 C 82.300781 210.660156 82.644531 210.910156 82.132813 211.671875 C 77.839844 218.023438 77.613281 219.691406 72.753906 225.609375 C 71.234375 227.457031 71.824219 227.695313 73.597656 225.84375 C 79.003906 220.191406 79.59375 218.140625 85.191406 211.855469 C 85.714844 211.265625 86.140625 211.558594 85.800781 212.277344 C 83.34375 217.511719 80.066406 222.238281 76.878906 226.746094 C 75.4375 228.78125 75.898438 229.328125 77.671875 227.269531 C 82.371094 221.820313 87.484375 215.3125 90.015625 212.347656 C 90.953125 211.246094 90.960938 212.019531 90.648438 212.640625 C 88.523438 216.902344 86.78125 220.835938 84.574219 224.960938 C 83.855469 226.304688 84.613281 226.347656 85.664063 224.9375 C 90.015625 219.082031 92.960938 212.796875 96.863281 208.0625 C 97.332031 207.496094 97.738281 207.78125 97.449219 208.449219 C 95.839844 212.207031 94.269531 215.84375 92.925781 219.535156 C 92.394531 220.996094 92.917969 221.234375 93.621094 219.792969 C 96.230469 214.460938 98.710938 208.585938 102.539063 204.300781 C 102.855469 203.953125 103.464844 204.285156 103.410156 204.785156 C 102.816406 210.554688 99.730469 216.207031 97.667969 221.910156 C 97.246094 223.085938 97.75 224.246094 98.953125 221.84375 C 102.558594 215.972656 104.335938 210.816406 107.882813 204.152344 C 108.121094 203.699219 108.664063 203.800781 108.640625 204.410156 C 108.554688 206.429688 108.179688 209.058594 107.921875 211.132813 C 107.808594 212.058594 108.492188 211.953125 108.773438 211.175781 C 109.328125 209.65625 109.652344 208.101563 110.222656 206.585938 C 110.421875 206.050781 110.976563 206.136719 110.964844 206.765625 C 110.925781 208.953125 110.660156 211.542969 110.304688 214.074219 C 110.121094 215.410156 110.664063 215.464844 111.128906 214.121094 C 112.574219 209.9375 113.957031 205.261719 115.800781 201.226563 C 116.304688 200.636719 116.558594 200.8125 116.675781 201.394531 C 116.921875 202.640625 116.546875 205.75 116.136719 207.914063 C 116.097656 208.8125 116.316406 209.726563 117.460938 207.570313 C 119.441406 204.378906 120.9375 202.359375 122.015625 201.171875 C 124.390625 198.558594 124.734375 199.988281 123.738281 201.882813 C 123.738281 201.882813 93.761719 265.765625 95.324219 315.347656 Z M 101.898438 290.617188 C 102.152344 286.058594 102.40625 285.046875 102.914063 288.339844 C 103.683594 293.351563 103.925781 300.246094 103.671875 305.3125 C 103.421875 310.378906 101.898438 315.191406 102.152344 309.367188 C 102.40625 303.539063 101.644531 295.179688 101.898438 290.617188 Z M 100.886719 320.765625 C 100.886719 318.738281 102.152344 318.992188 102.152344 321.527344 C 102.152344 324.058594 103.671875 328.617188 104.6875 333.433594 C 105.699219 338.246094 101.898438 335.710938 100.886719 331.40625 C 99.871094 327.097656 100.886719 323.898438 100.886719 320.765625 Z M 106.207031 375.484375 C 100.378906 378.527344 102.40625 376.5 101.898438 374.21875 C 101.394531 371.9375 102.480469 371.632813 102.914063 369.910156 C 103.421875 367.886719 105.699219 369.660156 105.445313 371.433594 C 105.191406 373.203125 106.964844 371.9375 109.246094 371.433594 C 111.527344 370.925781 112.03125 372.445313 106.207031 375.484375 Z M 113.847656 337.335938 C 111.503906 334.007813 112.777344 326.773438 113.257813 319.691406 C 113.488281 317.476563 113.789063 316.453125 113.925781 319.59375 C 114.117188 324.097656 114.097656 332.972656 114.664063 337.167969 C 114.71875 337.554688 114.097656 337.691406 113.847656 337.335938 Z M 116.398438 314.828125 C 117.019531 315.476563 117.605469 316.128906 118.363281 316.777344 C 118.523438 319.988281 118.96875 331.070313 118.605469 334.511719 C 118.480469 335.664063 118.269531 335.960938 117.921875 334.808594 C 117.558594 333.59375 114.808594 318.695313 115.664063 315.203125 C 115.734375 314.917969 116.242188 314.664063 116.398438 314.828125 Z M 115.921875 309.863281 C 116.601563 304.984375 118.570313 299.136719 120.332031 294.117188 C 120.644531 293.027344 122.023438 293.042969 121.753906 294.269531 C 121.074219 299.695313 119.105469 305.0625 118.929688 310.726563 C 118.785156 313.761719 115.894531 311.710938 115.921875 309.863281 Z M 120.898438 378.273438 C 119.378906 374.726563 119.125 372.445313 117.097656 370.164063 C 115.074219 367.886719 116.339844 366.367188 117.859375 368.140625 C 120.078125 370.726563 120.644531 370.417969 121.660156 374.726563 C 122.671875 379.03125 122.421875 381.820313 120.898438 378.273438 Z M 125.144531 273.253906 C 121.210938 278.136719 125.925781 288.894531 118.332031 289.167969 C 117.542969 289.222656 116.195313 291.558594 117.820313 292.371094 C 119.445313 292.832031 116.160156 299.253906 115.238281 302.660156 C 114.855469 304.070313 113.539063 303.820313 113.6875 302.390625 C 114.761719 291.898438 118.585938 282.230469 120.734375 272.210938 C 121.683594 268.839844 126.605469 272.089844 125.144531 273.253906 Z M 122.734375 267.328125 C 123.84375 262.449219 126.285156 257.972656 128.183594 253.09375 C 129.890625 248.890625 129.984375 250.152344 129.746094 253.171875 C 129.453125 256.859375 129.070313 263.691406 126.71875 266.640625 C 125.855469 267.722656 124.21875 267.640625 122.734375 267.328125 Z M 128.125 324.101563 C 126.714844 325.105469 129.503906 327.867188 128.949219 330.128906 C 128.742188 330.832031 127.9375 330.65625 127.851563 329.972656 C 124.210938 318.496094 129.308594 298.515625 137.890625 286 C 139.109375 287.21875 144.019531 287.300781 142.226563 288.441406 C 137.785156 291.53125 141.417969 298.035156 138.726563 301.707031 C 137.808594 302.960938 135.144531 304.632813 132.480469 305.054688 C 131.988281 305.132813 131.925781 305.6875 132.3125 305.964844 C 139.492188 311.128906 131.566406 318.71875 130.023438 324.507813 C 129.601563 326.109375 128.9375 323.695313 128.125 324.101563 Z M 140.53125 281.421875 C 142.964844 275.945313 145.992188 269.484375 149.917969 264.730469 C 150.574219 263.738281 150.859375 263.972656 150.816406 264.960938 C 150.667969 268.226563 146.917969 279.683594 141.144531 281.953125 C 140.824219 282.078125 140.410156 281.695313 140.53125 281.421875 Z M 131.839844 343.179688 C 131.265625 344.394531 130.992188 344.558594 131.203125 342.945313 C 131.414063 341.363281 132.09375 338.066406 133.414063 332.371094 C 133.746094 330.855469 131.933594 329.375 130.945313 328.566406 C 130.289063 328.027344 130 327.785156 130.972656 328.03125 C 133.851563 328.910156 137.167969 325.8125 134.363281 323.152344 C 143.148438 311.484375 154.984375 298.003906 167.722656 287.617188 C 175.300781 296.242188 182.855469 307.257813 186.699219 319.339844 C 187.035156 320.367188 186.78125 320.769531 185.992188 320.035156 C 183.613281 318.351563 180.171875 314.710938 177.160156 312.28125 C 176.5625 311.566406 177.910156 307.890625 176.015625 306.265625 C 173.871094 304.828125 172.230469 309.007813 171.164063 307.964844 C 169.773438 306.820313 167.105469 302.191406 165.679688 299.457031 C 164.96875 298.214844 164.59375 296.878906 164.054688 296.707031 C 163.5625 296.738281 163.125 297.636719 162.414063 299.164063 C 160.734375 302.710938 160.203125 303.960938 155.921875 307.421875 C 154.550781 308.4375 152.46875 306.707031 151.328125 308.46875 C 150.59375 309.660156 153.742188 311.722656 152.691406 313.886719 C 151.199219 316.328125 149.144531 320.441406 147.109375 322.609375 C 145.347656 320.167969 143.160156 316.769531 140.964844 318.523438 C 139.457031 319.808594 142.6875 321.5625 140.734375 322.609375 C 137.269531 324.488281 133.710938 339.214844 131.839844 343.179688 Z M 143.90625 322.902344 C 143.84375 322.625 144.148438 322.496094 144.34375 322.691406 C 146.328125 325.273438 146.996094 325.582031 149.246094 322.867188 C 150.34375 321.542969 150.601563 321.445313 149.65625 322.925781 C 146.886719 327.269531 143.054688 334.125 141.410156 336.753906 C 140.578125 338.085938 140.304688 338.332031 141.019531 336.617188 C 141.621094 335.160156 142.933594 332.296875 145.210938 327.492188 C 144.746094 325.988281 144.285156 324.488281 143.90625 322.902344 Z M 136.488281 340.121094 C 136.269531 340.492188 135.914063 340.46875 135.957031 340.113281 C 136.546875 335.109375 138.675781 330.820313 140.972656 326.5625 C 141.074219 326.375 141.453125 326.390625 141.515625 326.605469 C 142.449219 329.914063 138.949219 335.980469 136.488281 340.121094 Z M 143.707031 342.402344 C 152.925781 336.300781 147.730469 341.417969 145.082031 344.378906 C 138.304688 351.429688 136.332031 347.210938 143.707031 342.402344 Z M 144.378906 355.523438 C 143.855469 356.140625 143.394531 355.851563 143.671875 355 C 145.164063 350.351563 146.164063 343.996094 151.449219 346.472656 C 149.289063 348.742188 147.039063 352.34375 144.378906 355.523438 Z M 151.449219 337.527344 C 154.277344 335.035156 163.519531 328.421875 181.011719 331.984375 C 181.589844 332.101563 181.609375 332.378906 181.023438 332.507813 C 177.550781 333.25 174.480469 337.171875 171.128906 336.476563 C 170.105469 336.265625 168.855469 334.796875 167.773438 335.136719 C 166.148438 336.085938 167.03125 337.277344 166.003906 338.519531 C 160.984375 343.402344 157.03125 335.507813 151.609375 337.949219 C 151.082031 338.242188 150.652344 338.097656 151.449219 337.527344 Z M 158.582031 455.347656 C 157.0625 458.578125 154.214844 468.078125 153.074219 470.546875 C 151.933594 473.019531 150.601563 475.109375 150.222656 471.117188 C 149.84375 467.128906 148.324219 454.96875 149.273438 454.210938 C 151.222656 452.648438 154.402344 453.070313 156.304688 452.878906 C 158.203125 452.6875 160.101563 452.117188 158.582031 455.347656 Z M 158.964844 447.9375 C 156.683594 449.460938 150.824219 449.636719 149.082031 445.277344 C 148.703125 444.328125 149.273438 433.6875 148.894531 430.648438 C 148.511719 427.609375 149.652344 429.320313 152.121094 430.460938 C 154.59375 431.597656 162.003906 428.179688 162.191406 430.839844 C 162.382813 433.5 161.242188 446.417969 158.964844 447.9375 Z M 162.003906 425.898438 C 160.484375 428.367188 151.363281 426.46875 151.171875 424.1875 C 150.984375 421.910156 146.335938 417.714844 148.894531 417.347656 C 150.222656 417.160156 154.023438 412.410156 156.113281 408.988281 C 158.203125 405.570313 158.773438 412.027344 159.914063 415.640625 C 161.054688 419.25 163.523438 423.429688 162.003906 425.898438 Z M 158.140625 372.699219 C 157.125 375.992188 156.871094 371.433594 155.097656 367.632813 C 153.324219 363.832031 156.03125 359.917969 158.898438 358.003906 C 160.421875 356.992188 160.421875 358.765625 158.644531 361.046875 C 156.871094 363.324219 159.152344 369.40625 158.140625 372.699219 Z M 162.953125 411.269531 C 161.242188 402.527344 160.484375 402.527344 159.53125 400.058594 C 158.582031 397.589844 159.863281 397.320313 160.484375 398.347656 C 161.765625 400.484375 164.28125 401.578125 164.472656 405.570313 C 164.664063 409.558594 164.664063 420.007813 162.953125 411.269531 Z M 185.5 432.738281 C 180.179688 434.511719 179.925781 438.058594 178.152344 433.246094 C 176.378906 428.433594 174.097656 425.390625 172.324219 423.617188 C 170.554688 421.84375 171.058594 420.832031 172.832031 421.84375 C 174.605469 422.859375 181.699219 423.367188 186.007813 423.367188 C 190.3125 423.367188 192.339844 422.859375 193.859375 427.417969 C 195.378906 431.980469 190.820313 430.964844 185.5 432.738281 Z M 179.164063 402.085938 C 182.683594 402.964844 188.285156 403.097656 189.046875 406.140625 C 189.804688 409.179688 190.566406 411.460938 187.777344 408.925781 C 184.992188 406.390625 181.953125 404.113281 179.671875 403.859375 C 177.394531 403.605469 178.152344 401.832031 179.164063 402.085938 Z M 196.394531 458.074219 C 196.140625 461.617188 196.140625 470.230469 193.859375 463.390625 C 191.578125 456.550781 188.03125 453.257813 188.539063 447.683594 C 189.046875 442.113281 195.886719 435.777344 197.40625 436.03125 C 199.90625 436.449219 196.644531 454.527344 196.394531 458.074219 Z M 219.445313 403.605469 C 218.6875 405.378906 217.925781 408.671875 217.421875 411.460938 C 216.914063 414.246094 215.140625 412.726563 215.644531 410.191406 C 216.152344 407.660156 217.105469 405.816406 218.179688 402.59375 C 218.9375 400.3125 220.207031 401.832031 219.445313 403.605469 Z M 250.351563 462.378906 C 251.367188 462.886719 252.378906 469.980469 252.886719 476.058594 C 253.394531 482.140625 252.378906 480.617188 251.113281 477.832031 C 249.847656 475.046875 245.792969 470.992188 245.539063 467.953125 C 245.285156 464.914063 248.527344 461.464844 250.351563 462.378906 Z M 248.074219 453.007813 C 248.074219 457.3125 244.78125 458.074219 241.484375 457.820313 C 238.191406 457.566406 236.164063 442.367188 235.40625 439.578125 C 234.644531 436.792969 237.433594 434.003906 238.953125 435.019531 C 243.046875 437.746094 248.074219 448.699219 248.074219 453.007813 Z M 253.394531 414.5 C 251.367188 414.246094 259.726563 401.578125 261.753906 400.820313 C 265.730469 399.328125 267.324219 400.3125 268.339844 402.339844 C 269.351563 404.367188 264.285156 413.230469 262.257813 414.753906 C 260.234375 416.273438 255.421875 414.753906 253.394531 414.5 Z M 269.605469 387.898438 C 271.886719 383.085938 279.726563 378.980469 282.019531 377.257813 C 284.046875 375.738281 283.285156 377.511719 280.5 380.046875 C 277.714844 382.578125 277.207031 391.445313 272.644531 392.710938 C 268.085938 393.980469 267.324219 392.710938 269.605469 387.898438 Z M 277.460938 428.433594 C 273.914063 429.699219 272.898438 429.953125 270.621094 429.953125 C 268.339844 429.953125 267.074219 428.683594 268.847656 428.683594 C 273.039063 428.683594 273.40625 426.660156 276.191406 426.660156 C 278.980469 426.660156 281.007813 427.164063 277.460938 428.433594 Z M 276.191406 419.566406 C 272.898438 421.59375 270.871094 420.074219 275.433594 416.527344 C 279.992188 412.980469 290.378906 402.59375 291.898438 401.832031 C 295.445313 400.058594 301.273438 404.113281 300.007813 406.898438 C 298.738281 409.683594 294.433594 417.03125 290.125 419.3125 C 285.820313 421.59375 279.484375 417.539063 276.191406 419.566406 Z M 296.460938 394.738281 C 301.019531 392.460938 306.59375 384.859375 310.140625 383.085938 C 313.6875 381.3125 315.460938 380.550781 314.445313 382.578125 C 312.308594 386.855469 308.871094 392.460938 306.59375 395.5 C 304.3125 398.539063 301.78125 397.777344 298.738281 397.527344 C 295.699219 397.273438 291.898438 397.019531 296.460938 394.738281 Z M 309.378906 437.046875 C 306.59375 437.550781 300.257813 437.046875 293.164063 437.046875 C 286.074219 437.046875 292.660156 433.753906 300.765625 431.980469 C 308.871094 430.207031 309.667969 431.703125 312.421875 433.5 C 314.339844 434.753906 312.164063 436.539063 309.378906 437.046875 Z M 312.421875 428.433594 C 309.378906 427.671875 308.621094 426.660156 314.191406 425.140625 C 319.765625 423.617188 327.367188 419.820313 328.886719 418.804688 C 330.019531 418.046875 329.394531 425.390625 327.367188 427.925781 C 325.339844 430.460938 321.03125 430.964844 318.5 431.726563 C 315.964844 432.484375 315.460938 429.191406 312.421875 428.433594 Z M 317.734375 436.722656 C 316.558594 436.773438 315.722656 435.636719 317.675781 435.222656 C 322.394531 434.226563 330.25 433.230469 330.25 426.589844 C 330.25 425.066406 330.152344 420.324219 334.714844 418.804688 C 339.273438 417.285156 338.257813 420.324219 342.3125 418.804688 C 346.367188 417.285156 348.898438 413.738281 354.472656 411.207031 C 360.046875 408.671875 358.019531 407.152344 348.898438 407.660156 C 339.78125 408.164063 306.847656 427.417969 310.898438 423.871094 C 314.953125 420.324219 320.527344 416.777344 327.113281 409.179688 C 333.699219 401.578125 332.179688 401.578125 325.59375 407.660156 C 319.007813 413.738281 313.9375 417.285156 309.378906 420.832031 C 304.820313 424.378906 299.753906 425.390625 305.324219 420.324219 C 310.898438 415.257813 308.367188 418.296875 314.445313 412.21875 C 320.527344 406.140625 315.808594 408.449219 312.421875 411.460938 C 303.300781 419.566406 300.089844 426.152344 282.019531 428.9375 C 278.015625 429.554688 282.019531 426.40625 287.59375 425.898438 C 293.164063 425.390625 294.179688 417.792969 301.273438 410.699219 C 308.367188 403.605469 303.300781 405.125 300.257813 402.59375 C 297.21875 400.058594 299.753906 400.566406 303.804688 401.074219 C 307.859375 401.578125 307.351563 401.074219 309.378906 396.003906 C 311.40625 390.9375 311.40625 388.910156 319.511719 379.792969 C 323.566406 375.230469 322.589844 374.859375 316.472656 377.257813 C 298.414063 384.34375 270.367188 419.820313 264.285156 423.871094 C 258.207031 427.925781 260.234375 423.871094 257.191406 420.832031 C 254.152344 417.792969 257.191406 418.296875 260.234375 419.820313 C 263.273438 421.339844 264.285156 414.753906 270.871094 406.140625 C 277.460938 397.527344 272.394531 401.074219 269.859375 400.058594 C 267.324219 399.046875 268.847656 396.003906 272.898438 395.5 C 276.953125 394.992188 275.433594 396.003906 278.980469 392.460938 C 282.527344 388.910156 281.15625 385.367188 287.085938 376.246094 C 290.378906 371.179688 289.113281 369.660156 282.527344 373.460938 C 269.730469 380.839844 252.632813 406.644531 249.085938 412.726563 C 245.539063 418.804688 247.058594 408.671875 250.101563 401.074219 C 253.140625 393.472656 256.6875 386.378906 260.738281 375.738281 C 264.792969 365.097656 259.21875 371.6875 257.699219 375.738281 C 256.179688 379.792969 246.554688 398.03125 243.511719 407.152344 C 240.472656 416.273438 239.460938 412.726563 239.460938 407.660156 C 239.460938 402.59375 240.980469 402.59375 245.03125 391.953125 C 249.085938 381.3125 245.539063 386.886719 242.5 392.460938 C 239.460938 398.03125 235.40625 407.152344 233.886719 412.726563 C 232.367188 418.296875 230.847656 411.710938 230.847656 406.644531 C 230.847656 401.578125 233.886719 393.472656 237.433594 385.367188 C 240.980469 377.257813 238.699219 378.527344 235.660156 384.097656 C 232.621094 389.671875 229.832031 399.046875 227.300781 406.644531 C 224.765625 414.246094 224.765625 412.21875 222.234375 412.21875 C 219.699219 412.21875 222.234375 407.660156 225.78125 399.550781 C 229.324219 391.445313 228.3125 376.246094 227.804688 368.140625 C 227.300781 360.03125 224.765625 364.085938 225.273438 368.644531 C 225.78125 373.203125 225.78125 380.804688 225.273438 387.390625 C 224.765625 393.980469 218.179688 401.578125 218.6875 397.019531 C 219.191406 392.460938 219.699219 389.417969 218.179688 380.300781 C 216.660156 371.179688 214.125 377.765625 216.152344 384.351563 C 218.179688 390.9375 213.113281 406.644531 210.578125 412.21875 C 208.046875 417.792969 208.046875 414.246094 209.058594 407.660156 C 210.074219 401.074219 209.058594 392.964844 205.007813 389.417969 C 200.953125 385.871094 195.378906 386.378906 202.980469 391.953125 C 210.578125 397.527344 205.007813 403.605469 204.5 408.164063 C 203.992188 412.726563 198.421875 409.683594 193.859375 408.671875 C 189.300781 407.660156 193.859375 405.632813 190.3125 403.097656 C 186.765625 400.566406 185.246094 401.074219 181.191406 400.058594 C 177.140625 399.046875 175.628906 397.117188 178.671875 396.609375 C 181.164063 396.195313 183.761719 397.175781 193.375 400.003906 C 202.988281 402.832031 193.375 396.046875 183.761719 393.21875 C 174.144531 390.390625 173.578125 386.996094 181.496094 388.128906 C 189.414063 389.257813 188.851563 386.996094 180.933594 384.734375 C 173.015625 382.472656 162.832031 378.511719 166.792969 378.511719 C 170.753906 378.511719 180.910156 378.335938 187.71875 378.511719 C 202.515625 378.902344 197.992188 375.683594 189.980469 375.683594 C 186.023438 375.683594 182.121094 376.640625 176.40625 375.117188 C 170.394531 373.519531 167.640625 369.179688 172.730469 367.484375 C 177.820313 365.785156 182.347656 364.371094 192.808594 364.371094 C 203.613281 364.371094 202.988281 363.808594 191.679688 361.546875 C 180.367188 359.28125 173.015625 359.847656 166.792969 361.546875 C 160.570313 363.242188 161.136719 361.546875 163.964844 358.71875 C 166.792969 355.890625 175.84375 351.929688 186.589844 353.628906 C 194.488281 354.875 194.1875 353.320313 188.851563 351.363281 C 175.894531 346.617188 158.160156 348.675781 159.4375 351.929688 C 155.140625 340.988281 156.265625 364.835938 147.257813 363.886719 C 138.550781 362.96875 155.054688 341.1875 165.140625 341.1875 C 167.835938 340.722656 167.171875 337.988281 168.648438 337.488281 C 169.851563 337.382813 171.085938 340.257813 172.464844 338.746094 C 176.667969 334.539063 182.90625 335.21875 188.058594 333.863281 C 190.207031 333.273438 189.882813 332.46875 187.261719 331.636719 C 180.355469 329.382813 158.230469 327.960938 144.429688 336.785156 C 144.191406 336.9375 143.964844 336.644531 144.089844 336.339844 C 146.652344 329.972656 149.21875 323.644531 154.082031 318.15625 C 154.371094 317.828125 154.085938 317.789063 153.734375 318.019531 C 149.226563 321.019531 154.410156 316.796875 154.914063 313.292969 C 155.074219 312.171875 153.289063 310.355469 153.355469 309.578125 C 153.8125 308.476563 155.339844 309.488281 157.074219 308.273438 C 159.332031 306.734375 162.535156 303.421875 163.273438 300.78125 C 163.765625 299.222656 164.519531 299.359375 164.867188 300.578125 C 166.703125 304.421875 167.699219 307.867188 170.566406 309.863281 C 172.496094 311.089844 174.328125 306.660156 175.445313 307.425781 C 176.433594 308.058594 174.890625 309.777344 175.425781 311.839844 C 177.335938 317.914063 185.734375 321.753906 190.089844 326 C 191.773438 327.640625 191.269531 326.15625 191.039063 325.050781 C 187.785156 309.59375 179.285156 295.355469 167.894531 283.558594 C 160.515625 287.3125 153.964844 295.394531 148.429688 300.839844 C 148.167969 301.097656 147.871094 300.816406 147.988281 300.429688 C 151.644531 288.167969 158.230469 277.054688 166.519531 266.621094 C 167.609375 265.382813 167.078125 265.070313 165.792969 266.457031 C 154.171875 279.375 145.898438 295.117188 137.347656 309.457031 C 136.398438 308.507813 135.449219 307.421875 134.363281 306.472656 C 132.566406 304.847656 137.058594 305.722656 138.207031 304.480469 C 141.460938 302.308594 145.035156 289.523438 145.046875 287.546875 C 145.054688 286.515625 144.113281 285.65625 141.277344 285.050781 C 140.371094 284.015625 146.570313 283.355469 147.109375 282.066406 C 150.226563 272.984375 154.566406 264.304688 157.820313 255.222656 C 158.433594 254.285156 158.144531 253.777344 156.242188 255.222656 C 147.066406 262.785156 141.246094 274.210938 135.546875 283.058594 C 135.019531 283.882813 134.445313 283.460938 134.707031 282.46875 C 139.609375 263.691406 140.488281 265.929688 148.351563 251.640625 C 149.394531 249.746094 149.109375 249.589844 147.859375 251.394531 C 140.039063 262.679688 139.382813 261.65625 131.894531 278.148438 C 131.589844 278.824219 131.023438 278.808594 131.074219 278.128906 C 131.859375 267.882813 136.664063 257.582031 141.375 247.910156 C 141.84375 246.949219 140.898438 246.785156 140.273438 247.6875 C 133.425781 257.550781 131.117188 269.910156 126.777344 279.726563 C 126.425781 280.523438 125.597656 280.511719 125.796875 279.699219 C 126.777344 275.75 130.769531 271.484375 125.144531 269.457031 C 124.324219 268.246094 127.992188 268.371094 129.074219 267.015625 C 130.703125 256.710938 133.414063 246.949219 137.347656 237.730469 C 138.882813 234.292969 137.753906 235.28125 136.152344 237.074219 C 120.433594 253.207031 114.164063 284.472656 111.003906 307.945313 C 110.824219 309.261719 110.078125 309.6875 109.910156 308.191406 C 102.183594 251.914063 124.503906 213.203125 129.371094 205.5625 C 129.953125 204.644531 130.613281 205.1875 130.757813 205.847656 C 131.871094 210.917969 132.285156 221.488281 132.324219 224.128906 C 132.335938 224.953125 132.847656 224.597656 132.96875 224.171875 C 134.054688 220.4375 134.253906 215.757813 135.066406 212.417969 C 135.148438 212.074219 135.542969 212.195313 135.632813 212.617188 C 136.734375 217.910156 136.351563 227.214844 136.484375 230.492188 C 136.519531 231.3125 136.964844 230.996094 137.074219 230.652344 C 138.40625 226.457031 138.214844 221.042969 139.90625 217.421875 C 140.011719 217.203125 140.59375 217.453125 140.75 217.796875 C 143.484375 223.703125 142.488281 231.03125 143.359375 236.902344 C 143.417969 237.289063 143.882813 237.304688 144.019531 236.925781 C 145.148438 231.160156 144.609375 225.863281 145.710938 221.097656 C 145.789063 220.753906 146.226563 220.828125 146.339844 221.199219 C 148.488281 228.363281 148.679688 236.910156 150.472656 243.082031 C 150.617188 243.578125 151.414063 243.371094 151.40625 242.777344 C 151.363281 237.851563 151.097656 234.554688 151.382813 230.5625 C 151.414063 230.105469 151.9375 230.003906 152.140625 230.441406 C 153.863281 234.203125 155.695313 239.820313 156.730469 243.035156 C 157.253906 244.652344 157.753906 244.628906 157.492188 242.820313 C 158.359375 206.613281 149.636719 195.636719 149.636719 195.636719 C 146.96875 192.042969 150.472656 191.796875 152.5625 194.082031 C 154.101563 195.765625 155.898438 199.132813 157.167969 204.535156 C 157.589844 205.445313 157.835938 205.222656 157.980469 204.386719 C 158.355469 202.242188 158.082031 196.082031 158.492188 194.664063 C 159.285156 192.238281 159.914063 192.75 160.269531 194.816406 C 160.761719 197.671875 160.738281 203.507813 159.921875 208.632813 C 159.96875 209.933594 160.40625 209.738281 161.03125 208.765625 C 163.03125 205.652344 166.929688 194.609375 166.074219 198.875 C 165.515625 203.273438 164.21875 207.976563 163.238281 212.292969 C 162.925781 213.683594 163.417969 213.921875 163.964844 212.6875 C 165 210.351563 166.140625 208.007813 167.261719 206.132813 C 167.582031 205.59375 168.097656 205.808594 167.988281 206.371094 C 167.671875 207.957031 167.125 209.449219 166.792969 211.035156 C 166.625 211.84375 167.152344 212.292969 167.539063 211.449219 C 168.414063 209.546875 169.484375 207.117188 170.480469 205.355469 C 170.777344 204.824219 171.292969 205.027344 171.257813 205.539063 C 170.757813 213.070313 169.542969 218.390625 169.507813 225.277344 C 169.265625 227.957031 170.304688 227.234375 170.5625 226.011719 C 171.824219 220.078125 172.1875 213.648438 174.722656 208.433594 C 174.941406 207.984375 175.636719 208.019531 175.71875 208.484375 C 176.710938 214.144531 175.71875 220.445313 175.117188 226.351563 C 174.957031 227.945313 175.527344 228.019531 175.847656 226.5 C 176.65625 222.652344 177.238281 218.734375 177.851563 214.695313 C 177.960938 213.972656 178.457031 213.945313 178.554688 214.675781 C 179.371094 220.753906 178.558594 227.648438 179.164063 234.921875 C 179.3125 236.671875 179.980469 237.03125 180.078125 235.515625 C 180.382813 230.84375 180.980469 226.585938 181.421875 221.839844 C 181.484375 221.148438 181.894531 220.496094 182.113281 221.929688 C 182.699219 225.78125 183.609375 234.007813 184.722656 241.117188 C 185.144531 243.800781 185.824219 243.578125 185.675781 241.089844 C 185.34375 235.578125 185.054688 229.832031 185.726563 224.09375 C 185.820313 223.304688 186.335938 223.277344 186.472656 224.054688 C 187.910156 232.347656 189.203125 240.667969 190.8125 248.324219 C 191.34375 250.832031 191.96875 250.941406 191.65625 248.570313 C 190.644531 240.980469 189.460938 233.175781 189.164063 225.515625 C 189.128906 224.597656 189.554688 224.5625 189.777344 225.476563 C 192.140625 235.054688 194.335938 245.605469 196.964844 254.984375 C 197.515625 256.960938 198.15625 256.449219 197.875 254.394531 C 196.621094 245.167969 195.164063 236.910156 193.613281 227.207031 C 192.492188 215 183.101563 207.632813 184.210938 196.925781 C 184.25 196.554688 184.804688 196.371094 184.988281 196.664063 C 186.5625 199.15625 186.445313 202.375 187.355469 205.128906 C 187.539063 206.039063 188.253906 205.867188 188.160156 205.011719 C 187.828125 202.039063 186.636719 195.441406 186.679688 190.9375 C 186.683594 190.480469 187.1875 190.503906 187.386719 190.933594 C 189.828125 196.179688 189.542969 201.453125 192.167969 206.296875 C 192.5625 207.019531 193.328125 206.6875 193.175781 205.804688 C 192.371094 201.191406 191.019531 196.476563 191.328125 192.011719 C 191.359375 191.566406 192.054688 191.507813 192.324219 191.925781 C 196.25 197.96875 197.582031 205.214844 200.847656 211.363281 C 201.992188 213.519531 202.949219 213.40625 201.929688 210.894531 C 199.996094 203.777344 197.339844 198.054688 195.648438 190.671875 C 195.601563 190.203125 196.167969 190.121094 196.46875 190.550781 C 201.894531 198.335938 205.933594 206.972656 209.636719 215.640625 C 210.074219 216.65625 210.675781 216.488281 210.324219 215.640625 C 208.742188 209.480469 205.203125 202.960938 204.570313 196.199219 C 204.515625 195.597656 205.265625 195.441406 205.640625 195.976563 C 211.265625 204.019531 213.910156 213.355469 217.832031 222.09375 C 218.148438 222.796875 218.578125 222.652344 218.40625 221.785156 C 216.902344 214.289063 212.667969 202.441406 211.964844 198.0625 C 211.835938 197.257813 212.527344 197.265625 212.796875 197.660156 C 217.796875 205.0625 220.691406 213.53125 223.992188 221.515625 C 224.648438 223.097656 225.199219 222.988281 224.730469 221.398438 C 222.609375 214.203125 219.828125 207.136719 218.167969 200.03125 C 218.023438 199.417969 218.546875 199.207031 218.925781 199.726563 C 225.214844 208.351563 229.5625 218.792969 233.761719 227.152344 C 234.253906 228.128906 234.738281 228.011719 234.449219 227.046875 C 232.371094 220.148438 228.816406 213.929688 225.773438 207.421875 C 225.503906 206.847656 225.492188 206.15625 226.402344 207.332031 C 229.132813 210.855469 235.199219 219.171875 239.550781 224.863281 C 240.324219 225.878906 240.734375 225.558594 240.238281 224.542969 C 229.695313 197.789063 203.636719 178.320313 200.347656 175.46875 C 200.140625 175.285156 200.460938 175.03125 200.855469 175.140625 C 204.824219 176.242188 210.46875 181.171875 212.894531 182.910156 C 213.5625 183.390625 213.578125 182.765625 213.3125 182.414063 C 210.953125 179.324219 207.304688 176.382813 205.105469 173.742188 C 204.878906 173.472656 205.210938 173.226563 205.601563 173.40625 C 210.511719 175.664063 217.769531 181.503906 220.484375 183.34375 C 221.164063 183.804688 221.175781 183.257813 220.964844 182.964844 C 218.382813 179.398438 213.910156 176.339844 212.007813 172.824219 C 211.890625 172.613281 212.441406 172.292969 212.808594 172.367188 C 219.183594 173.679688 224.488281 178.835938 229.726563 181.625 C 230.070313 181.808594 230.359375 181.441406 230.132813 181.105469 C 226.171875 176.773438 221.589844 174.058594 218.410156 170.34375 C 218.183594 170.074219 218.5 169.765625 218.867188 169.898438 C 225.90625 172.425781 232.894531 177.351563 238.921875 179.578125 C 239.40625 179.757813 239.632813 179.082031 239.230469 178.644531 C 236.429688 175.574219 232.433594 174.007813 229.394531 171.40625 C 229.046875 171.109375 229.273438 170.625 229.746094 170.726563 C 233.796875 171.574219 239.402344 173.4375 242.601563 174.515625 C 244.214844 175.058594 244.492188 174.640625 242.886719 173.777344 C 229.8125 167.023438 214.34375 162.296875 199.605469 161.6875 C 199.171875 161.671875 199.175781 161.21875 199.636719 161.066406 C 202.433594 160.140625 205.839844 160.632813 208.796875 160.910156 C 210.484375 161.070313 210.105469 160.351563 209.085938 160.101563 C 208.1875 159.773438 206.859375 159.539063 205.761719 159.082031 C 205.410156 158.9375 205.4375 158.417969 205.75 158.382813 C 208.140625 158.113281 211.324219 158.3125 213.792969 158.203125 C 214.476563 158.175781 214.378906 157.652344 213.6875 157.542969 C 210.785156 157.078125 207.363281 157.375 205.023438 156.5625 C 204.691406 156.445313 204.730469 156 205.058594 155.9375 C 208.503906 155.289063 212.578125 155.210938 215.359375 154.488281 C 215.742188 154.386719 215.613281 154.015625 215.210938 153.964844 C 210.425781 153.382813 206.253906 154.308594 201.65625 154.238281 C 201.023438 154.230469 200.925781 153.730469 201.53125 153.535156 C 207.089844 151.753906 213.023438 150.757813 218.3125 148.847656 C 219.0625 148.578125 218.992188 148.101563 218.246094 148.183594 C 212.257813 148.84375 206.917969 150.3125 201.210938 151.0625 C 200.164063 151.199219 199.996094 150.804688 201.085938 150.488281 C 209.5625 148.015625 221.738281 144.71875 226.246094 143.214844 C 227.339844 142.847656 226.734375 142.714844 226.09375 142.839844 C 215.789063 144.863281 205.816406 147.890625 195.914063 149.863281 C 195.179688 150.109375 194.746094 149.730469 195.574219 149.40625 C 197.648438 148.230469 200.179688 146.996094 201.785156 145.949219 C 203.960938 144.707031 203.78125 143.894531 201.554688 145.289063 C 199.632813 146.105469 197.65625 147.070313 195.972656 146.765625 C 195.730469 146.722656 195.714844 146.300781 195.9375 146.171875 C 199.878906 143.925781 203.921875 141.554688 207.660156 139.054688 C 208.316406 138.617188 208.140625 138.386719 207.402344 138.722656 C 203.203125 140.628906 198.835938 142.671875 194.804688 144.414063 C 194.070313 144.824219 193.871094 144.3125 194.375 143.871094 C 199.898438 139.023438 206.355469 135.527344 212.558594 131.824219 C 213.285156 131.390625 213.066406 131.105469 212.25 131.425781 C 205.441406 134.097656 199.105469 137.945313 193.027344 142.261719 C 191.835938 143.105469 191.59375 142.882813 192.699219 141.933594 C 197.84375 137.535156 203.695313 133.605469 209.6875 129.984375 C 213.789063 128.765625 217.953125 127.628906 222.171875 126.566406 C 222.304688 126.804688 222.4375 127.046875 222.570313 127.285156 C 223.273438 128.523438 223.796875 128.371094 223.371094 127.089844 C 223.289063 126.835938 223.210938 126.582031 223.128906 126.328125 C 225.320313 125.785156 227.53125 125.261719 229.757813 124.761719 C 231.667969 127.441406 233.546875 130.007813 235.945313 132.667969 C 237.566406 134.8125 237.851563 133.582031 237.21875 132.503906 C 235.597656 129.726563 233.699219 127.019531 232.023438 124.257813 C 233.398438 123.957031 234.777344 123.671875 236.164063 123.390625 C 237.765625 125.46875 239.289063 127.625 240.816406 129.6875 C 241.769531 130.976563 242.242188 130.644531 241.453125 129.308594 C 240.230469 127.21875 238.917969 125.171875 237.566406 123.109375 C 238.246094 122.976563 238.929688 122.839844 239.613281 122.707031 C 242.742188 126.03125 245.839844 129.828125 249.578125 133.304688 C 250.863281 134.5 251.601563 134.316406 250.652344 133.125 C 247.75 129.488281 245.332031 125.953125 242.488281 122.171875 C 242.785156 122.117188 243.082031 122.0625 243.378906 122.007813 C 246.515625 124.585938 252.460938 129.808594 257.855469 134.144531 C 259.976563 135.847656 260.328125 135.226563 258.546875 133.484375 C 254.710938 129.75 250.765625 125.820313 247.464844 121.304688 C 247.859375 121.242188 248.253906 121.179688 248.648438 121.113281 C 254.957031 126.035156 261.183594 131.023438 267.214844 135.378906 C 269.289063 136.878906 269.828125 136.535156 268.003906 134.996094 C 262.515625 130.371094 256.796875 125.703125 251.675781 120.636719 C 252.101563 120.574219 252.527344 120.511719 252.949219 120.445313 C 260.59375 125.632813 268.613281 131.386719 276.246094 136.164063 C 277.984375 137.253906 278.113281 136.445313 276.519531 135.113281 C 270.144531 129.773438 264.167969 125.105469 257.496094 119.804688 C 272.078125 117.847656 287.140625 116.820313 302.554688 116.820313 C 431.515625 116.820313 536.0625 188.507813 536.0625 276.9375 C 536.0625 361.871094 439.621094 431.355469 317.734375 436.722656 Z M 338.511719 413.484375 C 339.203125 410.027344 348.140625 410.191406 350.421875 409.9375 C 352.699219 409.683594 353.964844 408.925781 350.164063 411.460938 C 346.367188 413.992188 345.605469 415.003906 343.324219 416.273438 C 341.046875 417.539063 338.257813 414.753906 338.511719 413.484375 "/>
</g>
</svg>
