<?xml version="1.0" encoding="UTF-8"?>
<svg xmlns="http://www.w3.org/2000/svg" xmlns:xlink="http://www.w3.org/1999/xlink" width="542pt" height="601pt" viewBox="0 0 542 601" version="1.1">
<g id="surface1">
<path style=" stroke:none;fill-rule:nonzero;fill:rgb(0%,0%,0%);fill-opacity:1;" d="M 538.398438 562.496094 C 534.40625 565.402344 529.855469 564.375 525.328125 563.519531 C 523.777344 563.167969 518.347656 561.679688 521.574219 560.253906 C 526.839844 557.894531 522.628906 554.222656 520.609375 556.984375 C 519.699219 563.703125 508.453125 555.714844 511.53125 554.261719 C 515.5625 552.511719 512.679688 549.894531 509.335938 553.164063 C 507.335938 553.765625 506.09375 552.871094 505.722656 550.449219 C 508.195313 545.503906 505.273438 546.457031 502.375 548.132813 C 500.265625 548.695313 498.003906 548.796875 497.1875 545.910156 C 499.367188 539.738281 490.652344 546.636719 487.929688 542.644531 C 491.199219 535.746094 482.484375 541.917969 479.578125 541.191406 C 477.582031 540.828125 474.859375 539.738281 478.128906 537.921875 C 480.371094 534.25 472 534 471.472656 538.914063 C 470.441406 540.914063 462.691406 541.75 465.054688 538.648438 C 468.324219 536.652344 462.03125 533.238281 460 535 C 457.640625 535.90625 459.246094 538.648438 458.519531 540.644531 C 457.578125 542.800781 450.351563 540.644531 453.980469 536.652344 C 455.792969 535.222656 450.894531 532.707031 448.078125 535.765625 C 446.335938 538.550781 453.191406 542.5 441.113281 544.855469 C 442.367188 540.757813 435.5 534.5 434 541 C 435.046875 544 437.667969 545.632813 434.5625 546.050781 C 431.511719 546.242188 428.632813 546.101563 425.910156 545.625 C 429 537.5 421 537 420.5 544 C 418.421875 543 414.125 540.894531 412.226563 539.375 C 412.769531 536.835938 419.488281 535.925781 416.039063 532.839844 C 413.132813 530.296875 409.300781 533.097656 408.28125 536.234375 C 406.421875 535.855469 401.613281 533.613281 400.476563 531.839844 C 399.964844 530.109375 402.304688 528.636719 403.691406 527.574219 C 406.808594 524.527344 403.550781 525.019531 401.007813 526.640625 C 398.632813 528.15625 395.6875 530.207031 394.617188 529.570313 C 389.894531 529.210938 391.347656 525.214844 391.890625 523.035156 C 394.394531 517.21875 385.71875 526.304688 382.816406 526.304688 C 377.550781 527.210938 382.089844 522.855469 382.089844 521.039063 C 381.992188 517.453125 377.59375 520.78125 375.597656 520.78125 C 375.433594 517.761719 374.410156 514 373.554688 509.964844 C 373.960938 505.863281 379.253906 518.886719 379.546875 515.046875 C 379.386719 509.507813 377.640625 505.035156 373.828125 501.949219 C 371.132813 499.339844 376.308594 499.847656 381.542969 502.703125 C 386.171875 504.105469 374.398438 495.546875 366.945313 490.535156 C 363.523438 487.78125 374.859375 492.453125 373.011719 490.359375 C 368.152344 486.296875 366.4375 484.558594 358.671875 480.554688 C 353.925781 478.136719 374.121094 482.898438 366.714844 479.101563 C 359.605469 475.578125 354.988281 475.761719 349.910156 473.882813 C 345.90625 472.265625 360.289063 471.777344 357.765625 470.480469 C 351.273438 468.476563 342.546875 466.539063 345.058594 466.585938 C 346.949219 466.519531 355.640625 466.328125 350.144531 464.417969 C 343.238281 462.539063 343.492188 463.285156 339.328125 462.085938 C 333.238281 460.21875 347.949219 461.585938 344.261719 459.476563 C 340.40625 457.65625 335.40625 456.285156 330.644531 455.203125 C 326.210938 453.609375 340.464844 455.863281 336.558594 453.40625 C 332.5 450.910156 327.445313 450.574219 325.992188 450.574219 C 323.632813 450.574219 337.089844 445.601563 313.464844 449.148438 C 314.554688 442.972656 312.375 436.4375 308.199219 431.535156 C 303.546875 426.023438 295.945313 426.070313 289.597656 426.242188 C 289.257813 426.253906 289.195313 425.574219 289.4375 425.261719 C 292.375 421.398438 289.265625 420.851563 290.609375 418.667969 C 299.324219 411.40625 305.613281 421.796875 312.921875 426.273438 C 320 431.355469 331.660156 416.003906 331.074219 421.007813 C 329.441406 428.8125 323.28125 438.648438 327.261719 442.609375 C 342.183594 456.65625 359.652344 467.644531 374.746094 478.699219 C 375.257813 479.074219 375.699219 478.738281 375.40625 478.191406 C 363.242188 455.558594 348.847656 434.121094 333.070313 413.199219 C 333.914063 408.46875 333.40625 404.125 332.691406 398.210938 C 332.636719 397.769531 333.019531 397.425781 333.253906 397.710938 C 337.691406 403.222656 338.5625 410.222656 342.875 415.742188 C 349.230469 415.5625 357.289063 413.382813 363.644531 415.199219 C 368.4375 412.222656 365.351563 405.480469 366.164063 400.324219 C 366.246094 399.820313 367.152344 399.949219 367.417969 400.527344 C 369.226563 404.480469 368.789063 410.074219 372.113281 413.242188 C 386.082031 415.140625 403.277344 410.09375 414.421875 419.851563 C 416.203125 421.644531 416.609375 421.039063 415.578125 419.382813 C 410.90625 412.128906 377.320313 387.664063 311.46875 386.332031 C 301.664063 376.890625 291.316406 364.910156 280.785156 356.921875 C 287.824219 352.613281 292.132813 347.894531 295.855469 341.308594 C 295.128906 339.3125 287.71875 334.585938 293.3125 335.316406 C 300.117188 336.847656 306.605469 333.914063 311.875 329.210938 C 312.230469 328.894531 313.355469 329.410156 313.445313 330.058594 C 313.695313 331.957031 313.328125 334.152344 313.464844 336.042969 C 313.273438 353.929688 339.582031 354.429688 346.425781 361.34375 C 346.753906 361.796875 347.839844 362.558594 347.121094 360.679688 C 341.710938 346.492188 331.148438 332.847656 318.730469 322.972656 C 321.632813 320.613281 324.539063 318.613281 327.261719 315.710938 C 330.222656 313.484375 329.445313 310.730469 323.992188 314.441406 C 317.210938 319.011719 311.15625 318.160156 305.335938 315.246094 C 296.730469 310.9375 276.238281 296.523438 252.5 289.210938 C 251.464844 288.890625 252.050781 288.265625 253.425781 288.25 C 271.847656 287.378906 287.265625 288.152344 302.386719 295.417969 C 305.746094 297.308594 308.125 296.527344 303.386719 293.894531 C 276.214844 280.476563 247.492188 279.03125 234.492188 279.765625 C 235.644531 273.839844 236.648438 267.761719 238.449219 261.945313 C 238.632813 261.347656 239.664063 261.144531 239.929688 261.664063 C 242.5625 266.746094 241.503906 277.691406 245.566406 277.949219 C 255.371094 278.128906 263.539063 274.679688 273.703125 275.953125 C 275.292969 276.179688 280.488281 264.699219 284.441406 260.574219 C 287.34375 257.460938 287.054688 259.148438 285.355469 261.148438 C 271.175781 277.742188 300.902344 280.613281 308.925781 291.019531 C 309.832031 293.015625 312.011719 292.109375 312.191406 291.019531 C 315.644531 285.210938 319.636719 279.765625 324.539063 274.679688 C 325.964844 273.144531 326.175781 273.988281 325.863281 276.015625 C 325.097656 281.046875 321.136719 293.355469 324.539063 294.832031 C 345.414063 305.726563 365.386719 318.433594 385.355469 330.777344 C 386.808594 332.050781 388.625 332.230469 390.621094 332.050781 C 359.976563 292.761719 317.640625 232.558594 260.269531 245.121094 C 259.304688 245.332031 259.167969 244.691406 260.285156 244.195313 C 265.601563 241.835938 273.289063 240.070313 270.4375 233.46875 C 273.523438 230.746094 274.070313 237.464844 277.519531 238.007813 C 289.320313 237.828125 299.484375 235.828125 311.46875 234.742188 C 314.195313 234.335938 311.417969 229.882813 314.191406 228.933594 C 317.050781 228.566406 317.910156 233.023438 320 232.742188 C 333.796875 232.5625 342.59375 229.019531 361.210938 232.199219 C 370.171875 232.929688 369.429688 231.519531 363.753906 228.203125 C 330.449219 216.574219 295.828125 217.605469 258.425781 226.816406 C 257.402344 227.035156 257.316406 226.316406 258.164063 225.75 C 263.035156 222.496094 268.011719 220.199219 267.617188 217.582031 C 266.066406 213.628906 261.191406 203.910156 259.382813 195.546875 C 258.507813 193.109375 259.53125 192.496094 260.746094 194.480469 C 266.523438 200.617188 272.710938 215.996094 275.96875 213.59375 C 287.953125 207.417969 305.121094 197.246094 318.375 194.160156 C 323.054688 193.113281 313.789063 183.339844 309.242188 176.042969 C 308.714844 175.199219 309.238281 174.554688 310.046875 175.132813 C 316.164063 179.503906 325.109375 190.363281 327.804688 188.992188 C 342.148438 183.363281 386.945313 168.105469 392.734375 163.21875 C 393.136719 162.878906 392.46875 162.019531 391.746094 161.972656 C 369.722656 160.480469 299.527344 157.871094 258.183594 178.316406 C 257.421875 178.605469 256.328125 178.402344 257.734375 177.335938 C 272.6875 162.339844 289.574219 150.761719 304.757813 138.972656 C 305.730469 138.21875 305.222656 137.613281 304.019531 138.09375 C 284.082031 146.046875 266.296875 158.785156 248.835938 172.652344 C 246.445313 174.796875 242.769531 165.773438 244.296875 163.324219 C 246.65625 160.601563 253.148438 163.960938 255.691406 161.234375 C 262.558594 148.015625 270.53125 135.914063 279.589844 124.113281 C 281.019531 122.523438 282.019531 119.875 277.648438 122.160156 C 271.914063 125.210938 267.304688 128.242188 275.519531 115.828125 C 269.84375 112.445313 261.253906 100.230469 283.507813 105.296875 C 288.746094 102.933594 300.472656 83.601563 303.660156 75.34375 C 296.367188 69.617188 291.484375 58.265625 310.921875 65.539063 C 315.375 62.226563 328.878906 45.203125 330.453125 40.835938 C 323.507813 31.570313 328.835938 30.15625 338.335938 32.859375 C 344.828125 28.710938 365.746094 7.195313 368.378906 4.449219 C 373.828125 -0.347656 371.050781 -0.421875 366.105469 1.785156 C 253.792969 40.984375 225.039063 146.316406 213.132813 165.804688 C 208.371094 172.988281 211.808594 159.199219 205.898438 163.308594 C 198.871094 167.433594 187.882813 168.34375 188.246094 163.347656 C 187.921875 163.1875 188.003906 162.699219 188.359375 162.621094 C 197.730469 160.546875 208.355469 157.226563 214.886719 153.046875 C 221.601563 137.25 231.703125 121.339844 236.199219 107.347656 C 238.257813 103.878906 239.867188 99.789063 233.039063 103.300781 C 225.839844 106.980469 223.980469 106.75 214.804688 110.964844 C 207.105469 113.644531 210.832031 107.359375 212.339844 106.039063 C 219.726563 100.195313 227.539063 96.578125 235.035156 90.957031 C 245.566406 66.8125 252.445313 45.371094 269.695313 24.132813 C 277.027344 14.019531 272.792969 15.398438 266.445313 23.058594 C 238.847656 54.285156 213.433594 87.507813 194.550781 122.910156 C 189.464844 131.214844 188.253906 141.03125 182.519531 149.074219 C 182.1875 149.570313 181.449219 149.363281 181.421875 148.789063 C 180.796875 135.160156 176.433594 119.734375 173.207031 106.570313 C 172.65625 104.316406 172.445313 104.675781 172.765625 107.035156 C 175.558594 127.808594 174.925781 150.296875 172.722656 170.539063 C 172.621094 171.492188 172.136719 171.535156 172.007813 170.613281 C 167.015625 134.472656 167.773438 97.953125 135.730469 73.347656 C 132.585938 71.082031 134.109375 73.378906 134.746094 74.0625 C 147.796875 92.675781 139.621094 119.929688 147.53125 119.097656 C 166.683594 117.324219 141.90625 127.445313 144.261719 130.171875 C 151.523438 139.609375 149.527344 154.859375 148.800781 163.574219 C 148.132813 168.035156 149.710938 169.746094 154.066406 168.113281 C 165.074219 164.996094 153.160156 175.558594 151.34375 177.917969 C 151.160156 184.816406 148.257813 177.734375 147.53125 175.921875 C 146.082031 169.171875 143.003906 126.949219 65.457031 99.71875 C 59.988281 97.679688 56.375 96.136719 63.839844 101.484375 C 72.371094 108.746094 81.8125 118.007813 89.980469 126.175781 C 93.109375 128.578125 99.898438 122.492188 97.785156 126.902344 C 90.164063 141.246094 105.050781 149.050781 112.128906 157.585938 C 113.398438 154.679688 117.542969 151.339844 119.902344 152.066406 C 106.832031 164.59375 123.566406 177.554688 127.199219 188.992188 C 127.859375 191.070313 126.984375 191.433594 125.925781 190.261719 C 122.296875 185.628906 114.808594 174.8125 100.894531 167.109375 C 96.46875 164.445313 95.835938 165.320313 99.167969 169.058594 C 124.921875 190.21875 131.957031 211.265625 136.242188 223.324219 C 136.558594 224.214844 135.566406 224.289063 134.816406 223.503906 C 132.019531 220.5625 129.195313 216.746094 129.195313 212.59375 C 129.808594 209.167969 124.003906 212.328125 120.117188 205.328125 C 119.1875 202.566406 114.457031 204.117188 114.117188 208.269531 C 114.089844 208.605469 113.628906 208.777344 113.382813 208.507813 C 88.148438 181.023438 65.5 177.59375 53.855469 185.429688 C 49.6875 188.550781 51.777344 188.148438 54.054688 186.550781 C 71.773438 175.488281 95.511719 198.855469 101.136719 208.710938 C 103.121094 212.53125 101.277344 214.828125 97.785156 208.597656 C 94.894531 204.714844 92.523438 204.421875 89.253906 206.601563 C 88.136719 200.355469 83.808594 203.335938 81.449219 200.789063 C 76.378906 194.589844 59.902344 200.160156 48.769531 196.253906 C 44.945313 194.675781 38.082031 195.71875 34.480469 200.871094 C 31.492188 204.847656 33.476563 204.839844 34.6875 204.503906 C 38.179688 203.625 42.949219 204.386719 40.964844 206.601563 C 36.605469 210.957031 43.503906 212.410156 43.503906 213.863281 C 44.957031 219.308594 55.375 214.484375 54.035156 217.675781 C 52.582031 220.941406 42.433594 219.222656 47.5 222.941406 C 49.859375 224.574219 52.402344 225.300781 55.304688 224.9375 C 65.652344 224.496094 51.675781 229.296875 56.578125 234.015625 C 60.753906 236.554688 64.925781 234.921875 69.101563 235.46875 C 76.339844 237.121094 66.71875 242.050781 55.90625 236.757813 C 37.210938 229.214844 17.289063 237.292969 8.8125 244.980469 C 6.175781 247.625 7.175781 247.632813 9.5 246.171875 C 36.292969 230.699219 55.921875 242.820313 48.226563 244.546875 C 37.332031 246.722656 11.519531 248.359375 2.796875 273.039063 C 1.984375 275.117188 2.523438 275.296875 3.546875 273.339844 C 10.84375 254.0625 29.035156 252.140625 43.503906 253.621094 C 46.226563 253.984375 61.894531 254.914063 50.039063 257.617188 C 43.035156 259.113281 45.511719 263.359375 33.15625 265.105469 C 27.566406 266.234375 27.957031 267.996094 31.277344 269.054688 C 34.363281 270.035156 38.632813 271.164063 41.304688 271.273438 C 46.203125 272.28125 39.328125 279.21875 44.957031 277.949219 C 49.386719 276.84375 51.242188 282.496094 46.773438 283.03125 C 15.839844 285.191406 5.335938 310.378906 1.40625 320.246094 C -0.203125 324.714844 0.132813 325.507813 2.289063 320.914063 C 10.175781 307.261719 24.222656 292.4375 47.421875 290.59375 C 48.105469 290.707031 50.605469 290.597656 48.246094 291.910156 C 30.441406 301.472656 12.457031 317.765625 8.972656 338.757813 C 6.78125 348.363281 7.519531 349.023438 11.21875 339.085938 C 20.90625 314.8125 40.585938 300.257813 59.261719 298.269531 C 62.625 298.074219 62.542969 299.746094 59.933594 300.179688 C 57.402344 300.363281 55.53125 300.277344 54.394531 301.753906 C 52.539063 304.8125 61.390625 302.867188 57.222656 306.929688 C 54.964844 309.1875 42.085938 307.765625 45.964844 311.453125 C 59.574219 318.125 41.324219 310.820313 42.503906 317.777344 C 44.390625 320.027344 47.863281 317.609375 44.648438 321.460938 C 41.578125 323.621094 30.390625 324.675781 36.578125 326.644531 C 44.730469 328.347656 30.425781 328.980469 30.023438 332.972656 C 30.183594 337.804688 38.113281 335.523438 36.425781 338.585938 C 34.609375 341.488281 27.839844 339.054688 26.074219 342.941406 C 23.894531 347.480469 33.234375 344.960938 31.160156 347.117188 C 28.414063 350.410156 14.910156 350.457031 21.355469 353.652344 C 28.617188 356.921875 18.816406 359.824219 16.816406 362.910156 C 14.277344 365.816406 16.476563 366.089844 19.359375 365.496094 C 25.503906 364.328125 6.953125 376.238281 12.277344 377.253906 C 19.722656 378.890625 2.046875 387.175781 8.285156 388.328125 C 12.550781 389.191406 1.230469 396.027344 8.285156 395.589844 C 13.835938 395.503906 8.707031 403.519531 6.15625 409.683594 C 3.464844 415.628906 6.484375 414.835938 8.25 413.0625 C 10.75 410.640625 10.335938 406.28125 14.820313 406.664063 C 18.777344 406.976563 25.039063 401.097656 28.578125 398.371094 C 31.214844 396.34375 36.097656 391.972656 29.890625 401.398438 C 20.265625 420.644531 22.34375 440.851563 23.257813 463.53125 C 23.632813 468.738281 25.191406 468.652344 25.042969 463.53125 C 25.3125 452.449219 21.253906 414.175781 46.390625 393.945313 C 47.03125 393.15625 47.371094 393.574219 46.988281 394.585938 C 35.800781 412.722656 39.714844 445.058594 40.882813 451.292969 C 41.375 455.484375 42.40625 454.441406 41.695313 450.972656 C 41.277344 445.351563 38.539063 412.886719 57.34375 393.125 C 57.996094 392.351563 58.9375 392.609375 58.753906 393.484375 C 38.519531 427.132813 54.113281 464.835938 55.308594 469.03125 C 57.097656 473.128906 58.71875 473.984375 56.503906 468.648438 C 54.664063 461.035156 43.871094 434.457031 60.921875 408.699219 C 61.066406 408.023438 62.246094 407.976563 62.40625 408.359375 C 65.898438 416.871094 54.894531 425.308594 61.839844 432.082031 C 57.570313 442.164063 66.328125 451.765625 66.007813 462.246094 C 65.816406 465.371094 66.882813 464.902344 67.742188 463.589844 C 72.316406 454.753906 69.1875 453.191406 71.984375 447.984375 C 74.398438 443.863281 75.769531 444.007813 77.636719 448.421875 C 81.191406 458.753906 78.480469 428.4375 84.171875 427.542969 C 93.09375 426.773438 84.066406 409.917969 91.390625 409.933594 C 104.589844 411.46875 90.34375 398.859375 97.242188 393.59375 C 104.589844 387.8125 103.234375 401.21875 109.589844 393.59375 C 112.289063 389.269531 120.902344 388.785156 119.390625 392.867188 C 116.667969 400.675781 122.203125 395.738281 125.628906 393.796875 C 131.519531 390.304688 133.113281 391.578125 130.828125 394.46875 C 129.035156 396.738281 123.539063 400.132813 124.65625 402.128906 C 128.566406 405.441406 136.359375 390.746094 140.269531 394.863281 C 139.179688 397.226563 135.730469 399.402344 137 402.128906 C 142.652344 407.328125 158.753906 392.367188 155.339844 399.402344 C 153.394531 404.34375 160.609375 407.195313 154.609375 405.9375 C 130.648438 400.855469 107.410156 412.839844 88.710938 428.269531 C 86.664063 430.007813 88.082031 430.414063 89.980469 429.539063 C 92.285156 428.1875 95.0625 426.089844 94.519531 430.085938 C 94.234375 432.320313 96.550781 431.113281 99.339844 426.789063 C 101.222656 424.910156 102.726563 423.699219 101.78125 426.816406 C 99.660156 431.820313 103.03125 431.417969 105.050781 428.8125 C 108.414063 423.726563 109.15625 430.304688 114.589844 425.601563 C 124.402344 419.132813 114.820313 427.425781 118.121094 430.8125 C 115.820313 433.035156 114.796875 434.300781 112.246094 436.472656 C 111.566406 436.171875 110.222656 434.984375 109.589844 433.351563 C 108.433594 428.785156 100.453125 436.121094 109.542969 440.273438 C 107.878906 442.78125 106.210938 446.914063 104.683594 448.8125 C 102.140625 448.085938 101.039063 444.28125 96.515625 449.148438 C 93.007813 455.886719 103.839844 449.863281 103.050781 451.6875 C 101.683594 455.5625 100.726563 455.890625 99.203125 460.613281 C 92.5 458.429688 88.542969 459.519531 91.976563 466.03125 C 93.828125 467.746094 98.554688 461.761719 98.171875 464.558594 C 97.105469 467.484375 96.058594 469.910156 95.277344 473.507813 C 93.464844 472.78125 90.207031 471.976563 88.574219 474.699219 C 88.308594 480.9375 95.179688 474.941406 94.5625 476.730469 C 92.664063 481.613281 92.9375 483.5 92.105469 490.441406 C 90.835938 491.167969 88.613281 488.539063 86.976563 491.808594 C 85.894531 496.746094 90.449219 493.6875 92.074219 493.25 C 92.335938 495.082031 91.421875 501.386719 92.417969 504.902344 C 92.800781 506.261719 93.71875 505.59375 93.609375 504.535156 C 92.816406 496.71875 93.78125 487.441406 96.714844 477.089844 C 97.800781 478.90625 99.964844 480.191406 103.777344 479.101563 C 105.410156 477.832031 105.773438 476.015625 105.59375 474.019531 C 103.050781 471.296875 99.585938 475.289063 97.226563 474.019531 C 97.917969 470.515625 99.574219 468.421875 100.664063 464.605469 C 102.117188 466.421875 103.960938 468.390625 107.589844 467.484375 C 109.40625 466.03125 110.859375 464.214844 110.3125 461.492188 C 108.863281 457.496094 103.171875 461.128906 101.902344 460.949219 C 102.742188 456.632813 104.441406 455.285156 105.714844 452.199219 C 106.441406 454.015625 108.863281 456.410156 111.585938 456.226563 C 116.4375 453.816406 111.511719 449.742188 107.070313 449.273438 C 108.554688 446.5625 111.253906 443.144531 113.070313 440.785156 C 115.792969 442.054688 112.378906 444.855469 115.101563 446.125 C 120.273438 447.816406 120.101563 439.179688 115.003906 437.441406 C 116.640625 435.261719 120.878906 432.296875 122.871094 431.023438 C 121.785156 434.65625 121.234375 436.34375 123.632813 439.15625 C 126.800781 442.269531 132.417969 434.597656 127.925781 428.269531 C 130.144531 422.089844 129.964844 427.234375 131.78125 429.230469 C 134.398438 434.804688 135.976563 424.074219 140.269531 429.539063 C 142.777344 433.824219 148.015625 418.222656 147.453125 426.390625 C 148 434.378906 163.203125 419.820313 156.0625 428.8125 C 151.160156 436.257813 142.085938 440.613281 138.273438 447.875 C 136.636719 445.152344 132.824219 446.0625 130.464844 447.875 C 124.476563 452.234375 134.640625 452.234375 135.730469 451.144531 C 134.460938 453.867188 133.1875 456.773438 131.734375 459.496094 C 131.011719 458.40625 127.871094 455.996094 126.421875 456.175781 C 121.601563 457.449219 121.839844 461.128906 123.289063 462.761719 C 125.652344 464.578125 126.964844 459.949219 131.191406 460.949219 C 130.828125 463.671875 129.558594 466.574219 127.199219 468.027344 C 119.789063 470.210938 121.386719 475.835938 127.925781 473.292969 C 131.554688 480.917969 121.570313 480.554688 122.660156 486.363281 C 124.792969 490.1875 126.0625 482.496094 127.199219 484.367188 C 131.734375 489.8125 123.335938 490.945313 122.246094 495.484375 C 122.011719 503.125 128.605469 490.804688 129.464844 493.488281 C 131.644531 497.664063 129.011719 500.523438 125.925781 502.703125 C 123.566406 508.148438 130.921875 503.519531 131.648438 502.972656 C 132.371094 509.238281 133.601563 519.550781 129.246094 520.90625 C 124.25 521.679688 122 519 121.933594 514.503906 C 121.828125 507.609375 115.835938 513.722656 118.429688 516.039063 C 121 522.5 124.8125 524.363281 129.792969 523.535156 C 138.816406 521.742188 134.117188 495.738281 131.734375 478.558594 C 131.640625 475.285156 131.734375 470.75 135.003906 474.019531 C 139.183594 476.019531 143.175781 474.199219 145.535156 470.75 C 147.488281 466.164063 146.171875 464.390625 140.996094 470.023438 C 139.542969 473.109375 136.320313 471.84375 135.730469 468.753906 C 134.714844 459.273438 140.496094 448.929688 148.203125 442.867188 C 148.757813 442.429688 149.824219 442.660156 149.808594 443.183594 C 149.625 448.683594 148.824219 457.460938 159.054688 456.925781 C 163.101563 457.894531 159.398438 460 158.824219 460.515625 C 156.917969 462.226563 154.238281 463.523438 152.5625 465.898438 C 153.109375 465.898438 157.113281 465.214844 157.65625 465.214844 C 158.199219 468.484375 152.613281 470.933594 150.800781 474.019531 C 147.796875 477.742188 146.078125 479.828125 149.527344 481.824219 C 148.800781 487.453125 136.621094 500.632813 143.535156 497.4375 C 149.945313 497.570313 138.996094 511.78125 142.992188 510.511719 C 151.964844 507.628906 142.910156 517.894531 141.683594 523.417969 C 141.457031 527.125 147.839844 518.265625 148.171875 522.03125 C 148.488281 530.347656 147.574219 534.636719 148.835938 545.070313 C 150.027344 549.75 150.847656 548.03125 150.929688 544.652344 C 151.589844 535.65625 152.449219 533.746094 154.066406 524.851563 C 155.566406 519.886719 158.203125 529.027344 160.382813 529.570313 C 163.066406 533.445313 156.503906 507.6875 165.867188 517.773438 C 169.957031 521.699219 166.277344 493.1875 170.859375 503.800781 C 172.589844 506.257813 175.675781 495.824219 174.945313 503.972656 C 176.167969 515.6875 179.121094 523.21875 184.023438 531.386719 C 177.609375 533.15625 177.886719 537.605469 180.929688 539.148438 C 184.742188 540.054688 183.660156 535.019531 185.472656 533.382813 C 186.703125 534.972656 189.648438 536.46875 187.289063 538.648438 C 186.199219 539.195313 184.925781 541.917969 185.109375 543.554688 C 187.335938 547.632813 189.0625 545.101563 190.011719 540.644531 C 198.789063 552.054688 194.378906 558.164063 190.011719 558.257813 C 186.261719 558.226563 185.957031 555.789063 185.882813 553.519531 C 185.816406 551.535156 183.066406 550.675781 182.523438 553.671875 C 183.25 558.03125 190.121094 565.097656 195.808594 557.96875 C 204.839844 545.984375 179.105469 529.441406 180.753906 513.777344 C 182.023438 515.773438 183.839844 517.40625 185.472656 519.042969 C 187.289063 532.113281 202.769531 530.871094 202.9375 548.226563 C 207.789063 555.449219 205.304688 541.59375 208.347656 542.644531 C 217.246094 543.007813 209.800781 548.632813 214.886719 552.992188 C 218.695313 555.894531 216.882813 549.359375 217.425781 548.453125 C 218.695313 550.992188 221.421875 552.628906 221.421875 555.714844 C 219.605469 556.078125 218.152344 558.074219 218.695313 560.253906 C 220.148438 565.519531 222.328125 560.070313 223.234375 560.253906 C 224.054688 562.660156 226.050781 565.519531 221.78125 566.972656 C 220.644531 571.152344 222.648438 572.460938 226.640625 573.1875 C 226.640625 561.75 224.871094 548.996094 214.886719 541.191406 C 216.15625 539.375 217.0625 542.28125 218.695313 541.191406 C 222.019531 539.375 219.699219 537.242188 218.066406 535.96875 C 212.257813 530.34375 209.839844 545.414063 207.621094 536.652344 C 212.160156 528.484375 210.8125 513.257813 204.355469 514.503906 C 198 513.414063 201.085938 506.335938 195.277344 503.972656 C 190.921875 504.699219 187.652344 507.421875 185.472656 510.511719 C 182.386719 504.699219 185.292969 497.984375 188.015625 492.898438 C 195.460938 486.363281 195.820313 500.707031 203.085938 500.707031 C 209.621094 500.707031 219.9375 485.617188 218.695313 490.902344 C 217.789063 493.808594 212.566406 508.730469 222.554688 497.292969 C 225.964844 493.640625 219 517.015625 221.421875 515.046875 C 225.097656 512.320313 229.226563 503.792969 228.5 513.234375 C 229.40625 516.863281 221.601563 538.105469 232.496094 523.035156 C 236.726563 517.242188 227.894531 549.207031 231.222656 543.1875 C 239.105469 530.191406 236.769531 542.996094 235.851563 550.160156 C 235.566406 552.402344 237.039063 552.054688 237.480469 550.863281 C 239.367188 545.785156 239.21875 539.804688 241.570313 534.65625 C 241.890625 531.921875 246.210938 544.066406 246.796875 540.65625 C 248.425781 534.710938 239.574219 514.867188 248.835938 523.035156 C 252.378906 526.464844 238.917969 496.492188 246.109375 505.246094 C 252.242188 511.347656 242.925781 488.886719 247.5625 493.625 C 261.179688 501.433594 271.898438 511.953125 267.714844 529.566406 C 266.945313 533.382813 261.292969 543.800781 258.230469 531.675781 C 256.238281 526.128906 253.183594 527.433594 254.644531 532.113281 C 262.328125 551.078125 270.589844 532.902344 270.792969 523.507813 C 270.875 522.238281 272.242188 521.71875 272.628906 523.117188 C 273.773438 527.3125 274.523438 532.339844 273.703125 537.378906 C 270.117188 538.152344 261.578125 543.882813 265.578125 546.828125 C 271.484375 549.804688 268.386719 539.238281 274.25 539.917969 C 274.890625 549 275.46875 547.753906 276.609375 556.335938 C 275.519531 554.882813 265.101563 563.609375 272.652344 567.109375 C 275.882813 568.4375 276.839844 558.902344 278.347656 561.859375 C 279.34375 563 280.605469 567.878906 281.511719 568.785156 C 270.6875 573.0625 279.054688 580.378906 283.507813 571.328125 C 285.21875 573.796875 285.375 574.667969 287.589844 577.1875 C 280.710938 584.363281 289.859375 590.222656 289.546875 579.082031 C 291.457031 580.328125 293.3125 581.355469 295.128906 582.402344 C 288.894531 591.726563 299.90625 596.273438 298.171875 583.808594 C 305.796875 588.167969 313.464844 588.894531 323.269531 587.667969 C 323 596.5 331.347656 593.148438 326.269531 587.582031 C 328.433594 587.695313 331.378906 587.257813 332.878906 587.359375 C 332 594 339.886719 593.246094 335.980469 587.230469 C 337.441406 587.152344 342.089844 586.53125 343.695313 586.597656 C 342.300781 591.796875 348.273438 593.636719 346.964844 586.585938 C 350.65625 585.996094 362.398438 587.246094 360.351563 594.929688 C 358.214844 603.421875 363.765625 601.359375 363.476563 597.054688 C 363.675781 580.035156 342.914063 585.726563 337.09375 585.101563 C 339.070313 580.121094 332.300781 575.800781 332.988281 584.667969 C 330.945313 584.785156 324.460938 585.421875 322.871094 585.261719 C 323.664063 575.199219 316.265625 580.644531 318.765625 586.007813 C 315.605469 586.324219 309.796875 586.617188 307.105469 585.039063 C 313.515625 581.128906 305.839844 577.882813 302.703125 583.804688 C 299.707031 582.71875 297.578125 581.769531 293.808594 579.042969 C 300.445313 575.816406 294.234375 572.097656 291.402344 577.21875 C 289.746094 575.519531 286.464844 573.019531 285.382813 570.773438 C 287.019531 570.226563 296.035156 572.417969 293.855469 568.058594 C 290.953125 565.15625 285.3125 564.726563 284.222656 567.632813 C 280.949219 561.535156 277.855469 553.972656 277.960938 546.238281 C 277.976563 544.792969 279.0625 544.558594 279.496094 545.96875 C 282.140625 554.574219 285.714844 564.738281 295.855469 565.519531 C 304.035156 566.566406 309.214844 552.550781 297.714844 543.546875 C 292.125 540.277344 287.449219 540.691406 287.953125 544.773438 C 289.539063 547.539063 292.539063 545.777344 295.128906 545.910156 C 303.078125 547.179688 304.953125 566.753906 292.585938 562.25 C 281.019531 557.585938 285.964844 534.382813 276.652344 519.308594 C 276.652344 516.765625 272.617188 513.777344 278.242188 513.777344 C 281.695313 517.226563 286.730469 516.691406 289.320313 509.964844 C 294.777344 496.078125 288.585938 532.910156 295.316406 518.347656 C 303.304688 503.644531 295.671875 547.90625 301.664063 524.308594 C 304.480469 514.460938 305.0625 537.054688 307.65625 547.183594 C 309.46875 556.65625 308.742188 537.558594 310.921875 534.109375 C 313.371094 526.265625 317.003906 565.828125 318.003906 558.980469 C 318.730469 554.988281 317.863281 540.984375 320 547.183594 C 322.386719 552.796875 323.523438 557.859375 323.902344 563.742188 C 325.605469 570.929688 325.414063 568.738281 326.210938 563.542969 C 326.820313 553.953125 326.851563 552.867188 324.953125 543.613281 C 323.808594 538.464844 328.898438 544.191406 331.488281 548.046875 C 339.304688 555.832031 324.117188 532.597656 329.257813 535.382813 C 345.304688 542.613281 357.875 555.71875 356.671875 568.058594 C 355.890625 574.09375 340.675781 575.21875 346.867188 558.257813 C 347.144531 555.4375 343.78125 555.574219 343.601563 559.527344 C 341.648438 578.359375 353.875 570.0625 358.671875 579.210938 C 371.332031 597.644531 384.464844 591.910156 383.800781 587.113281 C 383.738281 586.289063 382.730469 586.25 382.539063 587.007813 C 378.476563 596.730469 360.964844 584.933594 359.820313 576.5625 C 359.585938 544.492188 335.171875 537.675781 331.800781 528.84375 C 345.78125 537.558594 364.296875 524.488281 375.007813 539.917969 C 371.921875 540.464844 371.621094 540.382813 368.898438 541.652344 C 364.722656 544.558594 360.785156 550.382813 365.800781 555.253906 C 377.308594 564.722656 379.496094 577.21875 394.351563 572.941406 C 397.84375 572.253906 398.492188 565.304688 405.039063 568.757813 C 421.316406 575.320313 431.953125 570.570313 436.027344 568.0625 C 440.917969 564.960938 442.742188 561.117188 434.851563 566.378906 C 433.199219 567.589844 422.320313 575.71875 402.964844 564.066406 C 404.289063 553.949219 390.257813 542.28125 383.359375 541.191406 C 372.46875 524.214844 342.800781 530.84375 335.066406 526.847656 C 331.324219 524.976563 327.464844 521.046875 325.578125 517.328125 C 325.085938 516.359375 326.621094 516 327.695313 516.6875 C 340.789063 525.070313 354.289063 527.449219 369.726563 528.121094 C 370.902344 529.519531 371.535156 530.414063 373.019531 531.824219 C 374.53125 530.242188 373.683594 530.160156 375.085938 528.164063 C 381.074219 529.433594 388.988281 529.933594 394.617188 532.839844 C 395.011719 542.015625 399.335938 538.285156 399.152344 534.65625 C 402.953125 536.976563 406.671875 539.414063 410.445313 541.59375 C 408 549 413 547 415.378906 544.246094 C 423.117188 548.050781 431.367188 550.207031 441.328125 547.769531 C 440.304688 555.972656 452.5 550.5 443.855469 546.191406 C 446.269531 544.054688 462.800781 541.640625 466.875 542.582031 C 467.707031 551.136719 471.878906 545.640625 470.320313 542.644531 C 474.3125 542.28125 477.59375 542.910156 480.933594 544.203125 C 478.523438 551.5625 486.140625 550.074219 484.136719 544.902344 C 483.519531 543.617188 490.910156 546.136719 492.53125 547.027344 C 491.628906 552.8125 498.1875 551.976563 495.019531 548.179688 C 494.359375 547.296875 498.710938 549.214844 501.242188 550.839844 C 523.714844 570.753906 537.386719 567.238281 540.941406 562.792969 C 542.703125 559.632813 539.648438 560.589844 538.398438 562.496094 Z M 334.210938 421.460938 C 345.875 436.664063 355.71875 451.585938 365.671875 467.464844 C 365.941406 467.894531 365.480469 467.941406 364.980469 467.539063 C 353.414063 458.210938 340.972656 449.609375 330.53125 439.34375 C 331.257813 433.351563 332.394531 427.273438 334.210938 421.460938 Z M 329.257813 415.199219 C 326.355469 419.191406 322.523438 421.078125 317.457031 423.550781 C 313.828125 422.640625 308.925781 420.644531 305.65625 417.011719 C 313.828125 415.378906 321.089844 414.835938 329.257813 415.199219 Z M 316.996094 326.324219 C 327.273438 332.523438 339.023438 346.367188 341.3125 353.390625 C 342.113281 355.265625 341.644531 355.5 340.039063 354.738281 C 331.558594 350.785156 312.707031 345.558594 316.996094 326.324219 Z M 329.804688 271.957031 C 343.632813 277.335938 367.019531 304.816406 382.816406 324.242188 C 364.84375 312.988281 346.144531 302.640625 327.804688 292.289063 C 328.53125 285.574219 329.257813 278.675781 329.804688 271.957031 Z M 387.34375 546.265625 C 388.792969 546.8125 395.316406 549.171875 396.390625 556.476563 C 396.640625 557.316406 396.089844 557.875 395.476563 557.40625 C 391.453125 554.335938 385.605469 553.34375 385.929688 547.214844 C 385.953125 546.800781 386.9375 546.113281 387.34375 546.265625 Z M 386.628906 558.257813 C 390.441406 559.890625 394.796875 562.070313 397.15625 565.519531 C 394.796875 572.597656 387.363281 569.96875 382.816406 566.789063 C 376.277344 562.070313 386.628906 562.792969 386.628906 558.257813 Z M 380.816406 550.992188 C 375.652344 550.042969 374.464844 553.71875 374.28125 556.257813 C 374.464844 559.34375 369.347656 556.441406 367.480469 553.375 C 364.941406 549.746094 368.25 541.707031 378.277344 543.914063 C 380.035156 546.605469 383.773438 551.320313 380.816406 550.992188 Z M 308.324219 443.394531 C 306.351563 451.40625 299.332031 442.703125 284.414063 444.417969 C 283.621094 444.308594 283.324219 443.359375 284.074219 443.078125 C 286.324219 442.234375 292.902344 441.246094 294.625 441.347656 C 293.882813 438.683594 288.253906 439.84375 285.921875 440.84375 C 285.105469 441.253906 284.953125 440.328125 285.472656 440.125 C 303.394531 428.9375 309.992188 438.925781 308.324219 443.394531 Z M 269.796875 438.253906 C 270.964844 439.785156 270.652344 443.0625 269.304688 441.992188 C 236.675781 418.972656 276.449219 403.75 274.777344 438.785156 C 274.761719 441.320313 273.289063 441.117188 273.011719 438.921875 C 272.660156 436.261719 273.078125 432.621094 269.722656 433.566406 C 266.992188 434.335938 268.28125 436.265625 269.796875 438.253906 Z M 235.71875 404.765625 C 232.898438 402.835938 227.421875 401.066406 219.859375 402.808594 C 217.574219 403.546875 214.789063 402.261719 217.609375 401.085938 C 244.398438 382.621094 251.414063 406.113281 248.109375 414.472656 C 243.925781 428.914063 229.769531 410.113281 219.96875 409.933594 C 216.777344 410.082031 217.671875 407.03125 220.765625 406.015625 C 226.300781 404.445313 230.992188 405.601563 235.761719 406.664063 C 237.53125 406.96875 237.164063 405.757813 235.71875 404.765625 Z M 197.066406 401.253906 C 198.234375 401.585938 197.902344 403.054688 196.726563 403.320313 C 173.984375 402.636719 167.082031 422.683594 163.074219 410.839844 C 159.988281 404.300781 166.089844 382.371094 194.578125 396.976563 C 195.386719 397.214844 195.277344 398.628906 193.988281 398.117188 C 190.34375 396.90625 181.699219 395.871094 180.917969 399.992188 C 183.503906 399.617188 193.5625 400.265625 197.066406 401.253906 Z M 207.261719 395.457031 C 207.394531 396.113281 206.246094 396.628906 205.683594 396.101563 C 202.71875 392.304688 201.699219 386.726563 196.769531 386.671875 C 191.484375 388.460938 200.8125 394.285156 202.878906 397.265625 C 203.34375 397.9375 202.121094 398.1875 201.035156 397.777344 C 171.746094 387.863281 201.238281 356.738281 207.261719 395.457031 Z M 208.816406 403.257813 C 212.628906 403.441406 213.421875 405.058594 214.328125 407.960938 C 214.691406 410.503906 213.453125 415.59375 211.277344 417.226563 C 208.550781 419.164063 204.804688 416.769531 202.988281 413.320313 C 201.273438 407.085938 205.1875 403.59375 208.816406 403.257813 Z M 213.238281 393.566406 C 213.101563 396.917969 210.898438 397.410156 210.554688 393.585938 C 201.628906 359.054688 244.097656 375.152344 219.226563 397.730469 C 217.328125 399.515625 216.4375 394.605469 218.007813 392.144531 C 220.039063 388.953125 221.738281 385.871094 217.519531 385.0625 C 212.332031 384.0625 213.425781 389.507813 213.238281 393.566406 Z M 202.835938 350.613281 C 198.558594 340.171875 198.59375 332.402344 199.089844 315.710938 C 209.621094 324.242188 226.683594 329.6875 239.574219 338.585938 C 234.492188 348.570313 228.136719 358.738281 223.960938 368.722656 C 221.972656 363.023438 211.660156 361.648438 202.125 364.703125 C 197.027344 365.726563 196.4375 363.234375 198.070313 362.4375 C 202.371094 358.828125 204.652344 355.695313 202.835938 350.613281 Z M 229.769531 386.332031 C 230.316406 382.699219 229.769531 376.347656 225.234375 373.261719 C 230.316406 365.816406 233.222656 357.285156 238.304688 349.839844 C 235.582031 362.003906 242.84375 377.617188 229.769531 386.332031 Z M 244.296875 341.308594 C 249.378906 343.667969 254.28125 346.753906 259.183594 349.839844 C 254.28125 354.925781 248.472656 361.824219 243.570313 367.996094 C 244.65625 359.644531 244.113281 350.203125 244.296875 341.308594 Z M 248.109375 398.132813 C 239.210938 395.773438 249.921875 391.777344 247.5625 387.601563 C 250.46875 385.785156 258.273438 389.238281 263.175781 392.324219 C 258.457031 394 253.5 395.398438 248.109375 398.132813 Z M 272.507813 447.273438 C 273.035156 444.902344 273.554688 443.5625 276.578125 443.160156 C 279.488281 443.183594 282.839844 445.699219 281.890625 450.773438 C 280.679688 453.644531 277.859375 455.800781 275.5625 454.441406 C 273.71875 453.289063 272.390625 449.320313 272.507813 447.273438 Z M 281.269531 441.011719 C 280.578125 441.34375 279.761719 441.246094 280.03125 440.777344 C 281.222656 438.703125 287.03125 434.351563 283.457031 433.472656 C 280.21875 433.78125 279.859375 437.507813 278.117188 440.167969 C 277.78125 440.546875 276.996094 440.273438 277.046875 439.832031 C 278.851563 414.03125 299.980469 432.863281 281.269531 441.011719 Z M 291.859375 387.601563 C 289.113281 388.316406 286.402344 388.566406 282.78125 388.882813 C 285.507813 385.617188 298.757813 372.535156 291.859375 387.601563 Z M 291.859375 373.261719 C 285.902344 377.628906 281.480469 385.046875 276.742188 389.886719 C 273.921875 390.113281 271.039063 390.355469 267.851563 391.039063 C 263.039063 388.125 259.726563 386.332031 255.914063 384.335938 C 257.910156 376.710938 271.832031 373.132813 261.355469 361.097656 C 266.257813 358.011719 272.070313 366.726563 277.519531 361.460938 C 282.238281 365.453125 287.683594 367.996094 291.859375 373.261719 Z M 304.933594 318.433594 C 301.480469 320.792969 296.035156 322.0625 291.859375 324.96875 C 288.410156 322.609375 284.054688 321.882813 280.242188 320.429688 C 280.019531 316.027344 278.242188 308.8125 276.246094 304.636719 C 285.6875 306.089844 295.671875 313.167969 304.933594 318.433594 Z M 275.519531 312.992188 C 275.519531 316.804688 275.703125 319.160156 274.976563 322.246094 C 278.789063 324.789063 283.328125 325.515625 287.320313 326.964844 C 279.695313 332.230469 270.617188 340.21875 263.902344 346.574219 C 247.019531 337.3125 230.859375 326.785156 213.433594 318.976563 C 214.96875 311.347656 230.039063 325.246094 231.128906 314.535156 C 230.472656 311.542969 232.0625 311.710938 234.332031 313.015625 C 241.695313 320.167969 256.574219 319.164063 266.519531 320.359375 C 269.359375 318.945313 270.839844 315.976563 272.253906 312.441406 C 273.890625 308.308594 275.703125 308.816406 275.519531 312.992188 Z M 254.097656 296.105469 C 260.089844 298.101563 266.261719 300.097656 272.253906 302.09375 C 271.347656 307.359375 267.894531 311.355469 266.445313 316.4375 C 255.550781 312.441406 232.769531 318.652344 232.496094 301.367188 C 229.363281 285.707031 247.289063 294.054688 254.097656 296.105469 Z M 231.675781 269.953125 C 229.675781 263.238281 223.417969 261.609375 220.695313 255.074219 C 226.414063 254.070313 230.316406 254.164063 235.035156 253.621094 C 237.363281 253.214844 234.503906 262.855469 231.675781 269.953125 Z M 323.992188 268.144531 C 317.640625 273.230469 314.902344 289.839844 304.386719 283.03125 C 298.394531 278.023438 293.097656 275.226563 286.777344 271.414063 C 283.207031 268.714844 292.769531 256.527344 295.855469 249.082031 C 306.382813 252.714844 317.785156 260.699219 323.992188 268.144531 Z M 290.046875 247.8125 C 284.234375 255.800781 278.789063 264.695313 272.980469 271.957031 C 264.265625 273.773438 256.460938 273.773438 248.109375 274.679688 C 245.738281 275.023438 242.84375 260.703125 240.300781 253.621094 C 256.003906 248.898438 270.476563 245.308594 290.046875 247.8125 Z M 373.753906 164.007813 C 376.96875 164.296875 377.863281 164.785156 375.554688 165.390625 C 360.121094 170.835938 343.6875 178.371094 328.4375 184.90625 C 321.539063 179.28125 317.917969 172.835938 306.289063 169.207031 C 325.710938 164.101563 364.164063 163.148438 373.753906 164.007813 Z M 299.898438 170.523438 C 305.4375 177.328125 309.386719 181.902344 313.382813 190.894531 C 302.851563 195.976563 288.140625 200.515625 277.972656 207.960938 C 273.164063 197.152344 265.582031 191.4375 258.046875 184.453125 C 269.84375 178.097656 283.507813 171.605469 299.898438 170.523438 Z M 271.679688 158.28125 C 284.226563 149.382813 285.304688 151.339844 274.09375 159.449219 C 264.902344 167.1875 251.507813 176.929688 242.789063 184.789063 C 237.953125 188.605469 239.4375 185.136719 241.027344 183.183594 C 250.074219 174.851563 262.078125 165.269531 271.679688 158.28125 Z M 205.472656 192.488281 C 216.683594 174.21875 246.535156 55.582031 354.960938 8.777344 C 360.402344 5.671875 362.328125 5.289063 357.214844 10.300781 C 353.574219 13.867188 348.195313 19.703125 336.160156 29.683594 C 331.441406 27.867188 326.496094 28.863281 322.957031 30.296875 C 323.316406 34.222656 322.214844 37.128906 325.984375 41.121094 C 326.148438 42.703125 313.070313 61.667969 309.082031 61.617188 C 304.246094 60.933594 298.890625 59.257813 292.121094 61.070313 C 292.113281 66.910156 294.875 71.945313 298.6875 76.304688 C 294.859375 87.609375 287.660156 96.117188 281.511719 102.03125 C 274.457031 100.753906 269.390625 100.484375 263.578125 102.847656 C 263.507813 108.113281 265.902344 113.550781 269.351563 117.179688 C 267.589844 122.671875 246.101563 148.226563 243.761719 146.433594 C 240.058594 144.941406 238.371094 143.09375 231.902344 144.96875 C 229.15625 153.445313 237.921875 153.707031 236.308594 155.585938 C 228.324219 168.578125 216.695313 179.953125 207.710938 193.078125 C 204.679688 196.996094 203.507813 196.949219 205.472656 192.488281 Z M 203.363281 207.222656 C 222.085938 181.5625 238.972656 154.921875 264.800781 134.914063 C 266.175781 133.742188 266.671875 134.03125 265.605469 135.378906 C 260.371094 144.597656 257.746094 152.230469 251.679688 159.851563 C 248.046875 159.488281 243.984375 159.121094 240.621094 161.667969 C 239.621094 169.875 239.84375 171.230469 242.308594 175.273438 C 238.042969 179.242188 234.855469 184.070313 234.492188 188.265625 C 230.953125 185.761719 228.832031 183.285156 223.929688 184.195313 C 221.933594 188.984375 224.144531 192.398438 224.941406 195.230469 C 218.324219 198.453125 210.53125 203.84375 203.761719 207.792969 C 203.285156 208.070313 203.03125 207.679688 203.363281 207.222656 Z M 253.601563 186.449219 C 254.402344 198.539063 257.648438 208.285156 263.175781 217.675781 C 252.644531 226.390625 238.847656 233.105469 227.957031 243.816406 C 221.808594 237.929688 217.78125 228.503906 204.367188 221.796875 C 201.546875 220.269531 201.027344 221.539063 201.277344 224.335938 C 202.546875 233.5 203.804688 237.671875 205.230469 240.917969 C 205.355469 241.265625 205.007813 241.53125 204.695313 241.292969 C 198.109375 236.351563 190.082031 231.6875 181.988281 233.191406 C 181.578125 233.269531 181.328125 232.886719 181.617188 232.597656 C 202.683594 211.492188 227.988281 197.910156 253.601563 186.449219 Z M 214.4375 243.054688 C 212.269531 244.832031 206.429688 233.644531 205.722656 228.183594 C 205.664063 227.746094 206.640625 227.355469 207.179688 227.640625 C 212.789063 230.605469 220.234375 238.578125 214.4375 243.054688 Z M 182.527344 214.4375 C 184.890625 211.773438 188.429688 209.199219 190.691406 208.527344 C 193.011719 207.859375 192.601563 209.183594 191.878906 210.8125 C 191.21875 212.1875 190.699219 213.785156 189.648438 215.820313 C 188.121094 216.542969 186.007813 217.589844 183.613281 218.675781 C 180.277344 220.34375 178.117188 218.734375 182.527344 214.4375 Z M 172.9375 253.210938 C 189.121094 260.363281 199.273438 278.128906 205.625 291.019531 C 207.441406 293.339844 209.035156 291.613281 208.347656 289.023438 C 203.371094 270.851563 195.960938 257.171875 177.628906 250.226563 C 175.382813 249.332031 175.253906 246.800781 178.816406 247.367188 C 193.480469 248.625 204.28125 259.914063 214.292969 270.59375 C 216.242188 272.367188 218.792969 271.78125 216.699219 267.417969 C 206.734375 250.945313 190.363281 243.585938 174.476563 243.644531 C 171.9375 243.875 171.984375 243.027344 173.574219 242.300781 C 186.980469 239.773438 218.339844 240.683594 225.960938 274.679688 C 228.136719 286.300781 225.597656 299.371094 218.152344 308.628906 C 215.28125 311.523438 212.753906 312.214844 208.84375 311.898438 C 197.222656 311.171875 194.1875 299.371094 187.289063 291.566406 C 178.871094 280.910156 179.070313 265.867188 168.339844 256.589844 C 166.824219 255.15625 170.011719 252.757813 172.9375 253.210938 Z M 121.933594 347.84375 C 122.246094 350.0625 119.402344 349.398438 119.390625 344.578125 C 119.730469 338.652344 117.90625 330.148438 121.976563 325.460938 C 122.53125 324.6875 123.324219 325.070313 123.292969 325.480469 C 122.710938 332.769531 121.589844 339.25 121.933594 347.84375 Z M 117.394531 323.699219 C 110.859375 328.054688 81.992188 328.855469 82.71875 307.902344 C 83.308594 298.957031 81.304688 259.539063 120.441406 248.421875 C 121.613281 247.851563 122.226563 248.46875 121.40625 249.15625 C 106.15625 261.882813 98.015625 273.039063 94.570313 290.957031 C 93.328125 299.945313 96.695313 296.886719 99.058594 289.023438 C 103.777344 273.410156 114.851563 258.160156 129.921875 249.808594 C 134.171875 247.898438 135.875 250.394531 133.734375 253.078125 C 121.386719 265.421875 116.691406 278.734375 112.699219 293.984375 C 110.988281 300.648438 114.238281 299.289063 115.398438 294.832031 C 120.660156 282.851563 124.839844 269.777344 135.003906 260.15625 C 142.054688 254.21875 143.5 264.839844 140.203125 269.011719 C 131.910156 290.785156 130.285156 317.34375 117.394531 323.699219 Z M 116.140625 346.632813 C 116.210938 347.945313 115.714844 347.984375 115.484375 346.792969 C 114.390625 341.171875 113.003906 335.648438 112.855469 329.507813 C 114.210938 329.167969 118.128906 327.203125 116.851563 329.507813 C 114.5 334.644531 115.832031 341.089844 116.140625 346.632813 Z M 101.054688 339.355469 C 100.972656 339.816406 99.761719 339.933594 99.53125 339.488281 C 98.640625 337.757813 98.824219 335.175781 95.789063 336.042969 C 91.976563 338.039063 95.789063 347.84375 89.980469 344.578125 C 89.074219 340.035156 85.671875 342.144531 83.445313 341.308594 C 79.1875 339.570313 80.820313 317.785156 89.027344 326.992188 C 89.027344 331.679688 88.96875 336.320313 91.078125 340.9375 C 91.339844 341.511719 92.046875 341.503906 92.054688 340.921875 C 92.097656 337.050781 91.417969 332.027344 92.523438 328.238281 C 97.054688 329.046875 101.441406 330.433594 106.460938 330.339844 C 107.066406 330.328125 107.261719 331.027344 106.519531 331.257813 C 104.289063 331.949219 101.191406 332.050781 101.054688 335.316406 C 100.921875 336.632813 101.269531 338.140625 101.054688 339.355469 Z M 80.355469 344.234375 C 82.5625 346.84375 83.628906 352.269531 80.175781 353.652344 C 68.480469 350.539063 75.296875 321.824219 76.644531 315.230469 C 76.738281 314.777344 77.398438 314.453125 77.617188 314.746094 C 83.175781 322.234375 75.8125 335.5 80.355469 344.234375 Z M 80.800781 243.644531 C 88.75 241.101563 99.277344 233.378906 106.289063 237.867188 C 106.550781 238.035156 106.304688 238.519531 105.890625 238.605469 C 98.203125 240.203125 82.34375 249.53125 84.257813 246.199219 C 86.289063 242.945313 75.351563 245.566406 80.800781 243.644531 Z M 77.074219 235.9375 C 84.753906 234.054688 95.253906 225.363281 101.519531 233.277344 C 101.753906 233.570313 101.484375 234.210938 101.089844 234.242188 C 93.726563 234.835938 78.085938 244.644531 80.136719 240.324219 C 82.296875 236.136719 71.792969 237.484375 77.074219 235.9375 Z M 89.253906 247.085938 C 96.699219 245.269531 110.976563 238.820313 111.585938 242.003906 C 111.949219 245.453125 109.285156 247.277344 103.050781 247.8125 C 95.207031 247.097656 93.972656 248.71875 89.253906 249.082031 C 87.207031 249.5625 86.695313 248.238281 89.253906 247.085938 Z M 135.554688 307.234375 C 132.910156 297.421875 136.246094 286.378906 147.304688 265.195313 C 149.34375 261.710938 151.964844 261.128906 149.460938 266.296875 C 142.402344 290.632813 139.90625 312.441406 146.261719 332.050781 C 147.714844 335.601563 149.351563 334.644531 148.074219 329.777344 C 145.972656 307.15625 143.949219 289.292969 154.164063 268.433594 C 155.097656 265.472656 156.972656 263.722656 157.648438 268.308594 C 163.777344 286.636719 166.394531 301.230469 166.546875 322.289063 C 167.042969 325.203125 168.546875 325.566406 169.136719 322.246094 C 170.589844 301.1875 164.234375 284.121094 162.597656 263.425781 C 161.734375 257.785156 165.324219 257.421875 166.550781 262.382813 C 172.226563 285.535156 198.472656 299.742188 192.011719 318.976563 C 186.917969 338.058594 206.339844 353.179688 186.019531 364.726563 C 183.570313 365.898438 177.46875 368.109375 161.058594 364.238281 C 147.476563 367.628906 139.222656 367.238281 132.464844 358.917969 C 121.152344 340.039063 139.003906 326.476563 135.554688 307.234375 Z M 145.042969 253.117188 C 145.230469 254.023438 144.296875 255.585938 148.230469 255.386719 C 150.789063 255.042969 153.441406 254.824219 151.316406 255.734375 C 145.214844 257.878906 142.550781 255.199219 142.457031 253.050781 C 142.691406 249.453125 145.609375 251.3125 145.042969 253.117188 Z M 144.007813 202.148438 C 144.039063 199.128906 145.5 199.203125 145.535156 200.789063 C 146.226563 209.097656 147.578125 215.070313 148.011719 222.449219 C 148.585938 225.039063 147.175781 224.289063 146.945313 223.355469 C 144.199219 217.484375 143.003906 212.300781 144.007813 202.148438 Z M 160.46875 237.78125 C 158.652344 238.878906 159.460938 227.925781 162.90625 228.253906 C 165.085938 229.371094 164.328125 231.925781 164.277344 233.960938 C 164.394531 237.910156 162.789063 236.503906 160.46875 237.78125 Z M 158.535156 249.277344 C 157.871094 248.949219 156.828125 247.199219 156.636719 251.007813 C 156.660156 253.605469 156.589844 256.222656 156.121094 253.714844 C 155.109375 246.78125 157.257813 245.773438 158.804688 246.886719 C 161.359375 249.113281 159.777344 250.820313 158.535156 249.277344 Z M 157.878906 219.671875 C 158.039063 222.035156 155.308594 222.171875 155.382813 221.285156 C 155.949219 215.699219 156.066406 209.75 156.246094 204.425781 C 156.273438 203.605469 156.8125 203.644531 157.007813 204.375 C 158.671875 210.628906 157.390625 215.121094 157.878906 219.671875 Z M 149.546875 113.675781 C 146.28125 106.410156 149.164063 98.761719 146.804688 90.957031 C 154.066406 96.222656 158.363281 108.386719 159.875 115.828125 C 157.699219 116.371094 152.089844 115.851563 149.546875 113.675781 Z M 154.609375 178.460938 C 157.699219 174.285156 166.601563 170.902344 164.414063 168.113281 C 160.695313 163.65625 151.128906 166.496094 152.796875 162.121094 C 161.328125 147.234375 139.601563 134.074219 161.148438 119.640625 C 174.761719 178.222656 165.132813 213.609375 164.902344 216.710938 C 164.761719 218.601563 163.761719 220.046875 160.601563 220.398438 C 162.597656 207.871094 157.609375 200.15625 160.695313 188.71875 C 162.730469 183.277344 151.496094 183.761719 154.609375 178.460938 Z M 148.800781 183.183594 C 154.972656 186.632813 148.4375 192.984375 153.339844 196.796875 C 152.796875 201.519531 151.886719 204.605469 152.796875 209.324219 C 152.996094 212.335938 150.660156 210.953125 150.074219 208.597656 C 148.074219 200.066406 149.890625 192.804688 147.53125 184.453125 C 146.199219 181.605469 147.320313 182.007813 148.800781 183.183594 Z M 81.140625 112.183594 C 80.582031 111.589844 80.699219 111.429688 81.332031 111.839844 C 87.113281 114.230469 92.886719 117.644531 98.515625 121.09375 C 91.304688 126.992188 86.316406 117.660156 81.140625 112.183594 Z M 118.121094 166.84375 C 115.171875 161.683594 121.378906 153.398438 125.925781 149.050781 C 126.90625 148.335938 125.507813 146.328125 123.929688 147.234375 C 119.59375 148.570313 114.972656 149.863281 111.539063 153.171875 C 108.453125 149.902344 103.234375 145.238281 100.511719 141.246094 C 96.257813 134.101563 100.394531 128.410156 102.96875 123.71875 C 143.679688 143.261719 146.226563 187.835938 145.703125 196.011719 C 145.671875 196.511719 144.664063 196.433594 144.148438 195.960938 C 141.574219 193.574219 138.089844 192.152344 139.722656 188.992188 C 140.996094 186.8125 143.535156 184.453125 141.539063 181.730469 C 132.644531 177.554688 132.730469 151.574219 124.921875 156.183594 C 121.835938 157.453125 123.304688 162.863281 127.925781 168.113281 C 131.480469 171.386719 135.519531 190.542969 139.238281 203.789063 C 139.585938 205.027344 139.042969 205.058594 138.425781 203.910156 C 131.929688 191.8125 125.253906 178.949219 118.121094 166.84375 Z M 137.253906 244.304688 C 137.507813 245.328125 137.371094 245.628906 136.371094 244.632813 C 133.761719 242.039063 129.777344 238.503906 133.1875 236.011719 C 134.800781 234.953125 131.851563 232.308594 129.195313 234.015625 C 127.5625 234.921875 127.328125 235.789063 127.925781 238.007813 C 128.285156 240.109375 121.691406 239.769531 121.933594 238.007813 C 122.371094 234.421875 123.566406 230.929688 127.199219 229.476563 C 136.773438 227.90625 135.625 237.738281 137.253906 244.304688 Z M 129.921875 222.394531 C 131.285156 223.355469 130.773438 224.144531 129.921875 223.664063 C 124.476563 220.578125 120.660156 215.496094 116.851563 211.140625 C 123.566406 208.414063 125.382813 218.582031 129.921875 222.394531 Z M 108.863281 221.371094 C 112.5 220.019531 109.953125 227.503906 113.027344 223.15625 C 116.839844 218.433594 118.765625 218.9375 115.695313 225.679688 C 114.578125 230.320313 118.261719 230.734375 119.5625 227.691406 C 121.234375 221.890625 122.175781 224.300781 121.476563 227.570313 C 120.433594 232.789063 118.601563 238.539063 116.386719 236.566406 C 108.808594 230.398438 100.410156 223.84375 108.863281 221.371094 Z M 66.082031 200.996094 C 70.078125 212.070313 75.160156 197.183594 79.152344 207.53125 C 80.96875 210.980469 81.324219 206.035156 83.523438 205.117188 C 86.167969 204.558594 87.503906 213.523438 90.226563 215.519531 C 91.242188 216.402344 93.644531 215.226563 91.5 212.25 C 89.523438 210.246094 90.253906 208.664063 92.226563 210.253906 C 93.785156 210.800781 98.257813 219.230469 101.132813 217.378906 C 103.492188 216.652344 105.871094 218.105469 106.960938 219.195313 C 103.597656 219.964844 102.445313 222.878906 102.753906 225.867188 C 89.863281 215.335938 75.339844 208.984375 60.816406 202.449219 C 55.921875 199.800781 64.863281 197.835938 66.082031 200.996094 Z M 48.769531 206.601563 C 44.96875 207.082031 40.628906 201.160156 45.066406 201.328125 C 52 200.992188 60.417969 204.683594 66.964844 208.925781 C 67.449219 209.238281 67.339844 209.84375 66.703125 209.847656 C 61.710938 209.867188 52.3125 210.304688 48.769531 206.601563 Z M 65.835938 227.480469 C 69.285156 221.488281 54.941406 222.214844 66.378906 220.398438 C 70.175781 219.230469 74.417969 219.804688 78.652344 219.671875 C 81.925781 219.921875 79.757813 217.070313 76.621094 216.441406 C 70.722656 214.898438 56.140625 221.527344 59.164063 218.359375 C 62.992188 215.539063 53.574219 213.46875 57.167969 212.710938 C 62.976563 211.984375 68.59375 210.835938 74.273438 212.753906 C 79.730469 214.8125 84.34375 218.644531 87.59375 221.65625 C 87.832031 221.878906 87.746094 222.480469 87.429688 222.574219 C 81.277344 224.453125 64.738281 229.230469 65.835938 227.480469 Z M 72.914063 229.476563 C 79.742188 228.074219 89.070313 221.601563 94.640625 227.496094 C 94.847656 227.714844 94.609375 228.191406 94.257813 228.214844 C 87.714844 228.65625 73.816406 235.960938 75.640625 232.742188 C 77.558594 229.628906 68.226563 230.628906 72.914063 229.476563 Z M 54.753906 261.351563 C 58.734375 261.136719 61.726563 264.097656 63.839844 260.15625 C 69.648438 265.242188 75.09375 258.523438 80.902344 263.425781 C 82.667969 265.503906 88.429688 258.460938 87.421875 257.691406 C 85.265625 255.535156 90.554688 255.230469 91.667969 253.878906 C 94.125 251.457031 97.707031 253.261719 94.519531 255.617188 C 89.617188 259.792969 86.714844 264.695313 83.445313 269.414063 C 74.558594 265.65625 64.386719 263.667969 54.59375 263.445313 C 51.421875 263.433594 52.238281 261.804688 54.753906 261.351563 Z M 51.074219 278.664063 C 52.351563 275.210938 61.316406 270.445313 65.074219 269.140625 C 68.15625 267.800781 68.679688 268.496094 65.835938 269.960938 C 64.070313 270.679688 56.550781 275.140625 51.8125 279.464844 C 51.015625 279.953125 50.605469 279.519531 51.074219 278.664063 Z M 61.296875 283.757813 C 59.140625 281.378906 54.199219 281.386719 56.03125 279.765625 C 61.421875 275.375 65.816406 273.382813 72.96875 272.390625 C 74.027344 272.207031 74.597656 272.714844 73.738281 273.097656 C 69.527344 275.796875 66.777344 274.488281 63.96875 279.660156 C 63.238281 281.238281 64.59375 280.601563 64.933594 280.382813 C 69.515625 277.398438 72.511719 275.996094 78.085938 274.535156 C 79.003906 274.296875 79.695313 274.773438 79.089844 275.335938 C 74.273438 279.824219 65.949219 289.632813 61.296875 283.757813 Z M 14.089844 390.214844 C 14.988281 385.335938 16.804688 379.929688 19.589844 375.828125 C 19.902344 375.371094 20.019531 373.875 19.835938 373.574219 C 16.769531 368.601563 29.699219 366.710938 23.878906 361.914063 C 20.664063 358.941406 34.957031 357.921875 28.800781 351.996094 C 26.429688 349.566406 38.25 347.25 36.425781 346.574219 C 30.253906 344.03125 41.308594 340.675781 42.234375 338.039063 C 43.503906 334.226563 38.964844 337.3125 36.96875 334.773438 C 39.691406 330.234375 55.695313 331.097656 48.253906 325.652344 C 45.863281 322.878906 59.945313 323.101563 54.035156 320.976563 C 48.222656 319.253906 53.308594 317.34375 56.03125 317.164063 C 57.417969 317.074219 60.300781 317.796875 61.890625 314.34375 C 62.980469 311.257813 57.757813 313.648438 56.488281 312.195313 C 54.367188 309.113281 67.929688 306.710938 64.566406 304.636719 C 57.96875 299.699219 67.234375 304.777344 71.101563 302.09375 C 73.035156 300.300781 65.414063 298.984375 68.378906 297.554688 C 71.828125 296.648438 74.257813 298.847656 76.183594 300.824219 C 78.914063 304.109375 74.730469 309.71875 69.648438 312.441406 C 45.714844 335.152344 26.988281 362.070313 14.933594 390.761719 C 14.464844 391.882813 13.839844 391.578125 14.089844 390.214844 Z M 22.804688 397.046875 C 18.574219 397.535156 19.894531 401.195313 16.175781 403.316406 C 15.0625 404.128906 13.679688 403.660156 14.300781 402.503906 C 18.25 394.230469 26.023438 367.214844 22.804688 397.046875 Z M 48.199219 343.789063 C 46.375 350.503906 44.707031 362.171875 47.5 370.71875 C 40.417969 372.898438 48.589844 386.878906 36.96875 383.0625 C 34.15625 382.328125 37.789063 392.324219 29.890625 389.757813 C 28.800781 389.265625 30.214844 392.671875 28.441406 393.941406 C 28.101563 394.316406 26.394531 394.933594 26.394531 393 C 26.386719 392.816406 26.492188 389.105469 26.484375 388.921875 C 26.167969 380.527344 26.359375 375.5 30.910156 368.164063 C 31.214844 367.675781 31.671875 367.804688 31.566406 368.347656 C 29.472656 372.949219 27.8125 377.671875 30.839844 383.894531 C 32.472656 386.347656 32.953125 384.894531 32.449219 383.621094 C 29.933594 373.089844 34.035156 366.828125 37.703125 358.1875 C 38.390625 356.617188 39.25 356.394531 38.6875 358.449219 C 38.359375 362.414063 37.710938 371.996094 40.164063 377.714844 C 40.402344 378.265625 40.933594 378.191406 40.917969 377.65625 C 40.601563 365.8125 40.589844 352.824219 47.585938 343.34375 C 47.960938 342.835938 48.386719 343.085938 48.199219 343.789063 Z M 50.765625 374.53125 C 45.347656 360.019531 49.355469 341.636719 60.035156 328.945313 C 60.449219 328.460938 61.109375 328.742188 61.003906 329.324219 C 59.414063 338.160156 59.003906 339.84375 60.816406 351.542969 C 61.734375 355.101563 62.816406 355.390625 62.203125 350.886719 C 62.378906 339.152344 58.667969 327.125 70.949219 318.144531 C 71.742188 317.355469 72.101563 317.996094 71.980469 318.425781 C 66.101563 333.066406 73.707031 349.109375 72.125 360.355469 C 71.023438 369.269531 69.484375 359.183594 65.15625 358.617188 C 55.257813 358.496094 52.960938 379.0625 50.765625 374.53125 Z M 66.761719 430.703125 C 66.636719 431.585938 65.347656 431.695313 65.03125 430.828125 C 61.914063 422.28125 70.65625 411.527344 65.621094 403.132813 C 63.554688 398.476563 60.175781 386.453125 66.066406 390.648438 C 71.273438 394.738281 77.9375 373.164063 75.757813 360.820313 C 75.941406 353.195313 83.308594 359.785156 84.761719 352.707031 C 85.121094 349.800781 86.21875 342.359375 89.765625 347.289063 C 75.667969 372.3125 70.296875 399.054688 66.761719 430.703125 Z M 71.320313 443.363281 C 71.023438 443.546875 70.339844 443.574219 70.328125 442.785156 C 70.109375 436.539063 70.691406 430.441406 71.964844 424.726563 C 72.09375 424.148438 72.613281 424.214844 72.765625 424.84375 C 74.359375 431.375 79.0625 438.484375 71.320313 443.363281 Z M 76.953125 426.085938 C 73.867188 420.09375 72.382813 411.972656 75.46875 405.257813 C 76.738281 408.160156 77.476563 413.671875 79.835938 418.03125 C 80.976563 420.851563 78.796875 428.359375 76.953125 426.085938 Z M 82.71875 417.738281 C 80.242188 408.820313 75.070313 397.675781 78.664063 388.082031 C 79.023438 387.128906 79.613281 386.820313 79.8125 387.777344 C 81.226563 394.535156 94.195313 406.980469 82.71875 417.738281 Z M 89.808594 401.648438 C 89.535156 402.363281 88.550781 404.113281 88.15625 401.691406 C 85.289063 390.226563 79.511719 376.050781 84.957031 364.636719 C 85.375 363.757813 86 363.796875 85.882813 364.644531 C 83.949219 378.550781 97.339844 388.8125 89.808594 401.648438 Z M 99.210938 382.777344 C 98.390625 388.394531 94.195313 390.628906 93.25 385.785156 C 91.253906 375.4375 90.890625 361.277344 91.976563 350.386719 C 92.460938 348.316406 94.082031 348.160156 93.972656 351.113281 C 94.3125 358.683594 94.75 366.011719 99.003906 372.535156 C 99.339844 373.050781 100.027344 372.78125 99.992188 372.136719 C 99.519531 363.414063 98.261719 354.042969 99.785156 344.578125 C 102.097656 336.941406 103.605469 349.28125 105.136719 354.617188 C 106.394531 358.949219 107.472656 358.65625 108.09375 355.011719 C 109.003906 346.113281 107.773438 345.121094 105.59375 336.769531 C 105.148438 333.453125 109.597656 331.703125 109.589844 336.042969 C 108.863281 344.9375 116.851563 352.5625 111.585938 360.914063 C 107.023438 366.007813 101.742188 374.996094 99.210938 382.777344 Z M 107.046875 385.0625 C 100.71875 388.507813 108.027344 363.03125 112.128906 366.726563 C 116.335938 370.917969 122.535156 367.65625 118.664063 364.726563 C 116.121094 361.824219 116.753906 358.84375 117.300781 355.574219 C 118.761719 349.710938 121.09375 349.871094 121.386719 351.65625 C 131.34375 374.9375 151.410156 376.164063 160.125 369.992188 C 164.9375 365.0625 169.484375 378.328125 198.445313 368.207031 C 208.285156 365.632813 211.476563 368.175781 208.917969 369.914063 C 207.726563 371.796875 207.902344 374.875 207.296875 377.449219 C 207.097656 378.308594 205.414063 378.390625 204.902344 377.78125 C 186.804688 366.34375 181.628906 377.996094 181.480469 384.335938 C 167.5 377.800781 129.390625 372.832031 107.046875 385.0625 Z M 179.347656 503.082031 C 179.171875 503.894531 178.558594 504.019531 178.445313 503.242188 C 177.65625 497.792969 179.328125 487.738281 182.347656 490.757813 C 181.894531 493.171875 180.214844 499.074219 179.347656 503.082031 Z M 154.609375 446.9375 C 153.996094 419.089844 185.714844 406.234375 195.261719 406.699219 C 198.671875 407.242188 199.355469 409.3125 197.820313 409.175781 C 183.847656 411.066406 171.613281 423.859375 177.964844 420.984375 C 184.863281 416.988281 187.578125 415.871094 194.917969 414.515625 C 198.480469 413.898438 200.988281 416.648438 199.089844 418.25 C 188.378906 430.414063 162.386719 473.378906 154.609375 446.9375 Z M 204.601563 496.585938 C 190.277344 501.636719 179.523438 441.683594 200.015625 422.347656 C 201.699219 419.984375 203.980469 420.855469 203.554688 423.6875 C 203.042969 429.304688 202.449219 451.800781 205.566406 451.398438 C 210.496094 450.464844 207.472656 426.210938 208.488281 423.742188 C 208.773438 420.320313 211.339844 420.992188 212.804688 422.929688 C 220.632813 430.261719 232.457031 484.449219 204.601563 496.585938 Z M 237.03125 458.949219 C 226.203125 465.179688 226.804688 437.898438 217.761719 423.171875 C 216.675781 421.378906 217.972656 420.828125 219.726563 421.6875 C 225.597656 424.027344 231.300781 426.863281 234.910156 433.6875 C 236.1875 436.992188 238.855469 425.597656 219.421875 417.011719 C 217.882813 414.878906 220.132813 414.835938 222.335938 415.164063 C 223.507813 415.335938 267.65625 429.582031 237.03125 458.949219 Z M 246.238281 459.160156 C 243.597656 453.847656 251.910156 433.457031 270.554688 444.109375 C 272.476563 444.726563 270.714844 445.726563 269.171875 445.367188 C 264.101563 444.644531 260.597656 446.109375 258.851563 447.539063 C 257.953125 448.269531 257.78125 449.089844 258.925781 448.789063 C 262.003906 447.824219 265.027344 446.804688 268.753906 447.527344 C 270.847656 448.023438 271.605469 449.980469 269.496094 450.058594 C 263.058594 450.726563 249.789063 468.425781 246.238281 459.160156 Z M 255.996094 491.4375 C 234.222656 473.824219 264.285156 454.949219 268.230469 453.632813 C 269.660156 453.292969 271.144531 453.195313 270.246094 454.6875 C 257.945313 461.410156 260.335938 468.757813 260.992188 466.511719 C 262.984375 461.824219 266.578125 459.640625 270.308594 457.777344 C 271.414063 457.113281 272.300781 457.40625 271.683594 458.644531 C 266.554688 468.832031 263.496094 498.847656 255.996094 491.4375 Z M 284.421875 506.191406 C 265.429688 499.757813 270.191406 463.464844 274.929688 458.210938 C 275.785156 456.851563 277.433594 456.269531 277.8125 458.503906 C 278.621094 460.070313 277.980469 476.1875 281.273438 476.527344 C 283.347656 476.617188 281.703125 461.855469 281.054688 458.191406 C 280.617188 456.351563 282.070313 455.652344 283.308594 457.113281 C 297.859375 468.691406 294.125 508.71875 284.421875 506.191406 Z M 283.6875 454.367188 C 282.351563 453.421875 283.847656 451.472656 286.222656 451.679688 C 291.125 452.160156 292.972656 452.746094 297.734375 454.988281 C 302.070313 456.527344 293.3125 448.796875 284.019531 448.328125 C 283.015625 448.503906 283.351563 447.105469 285.566406 446.558594 C 291.816406 445.722656 318.398438 451.953125 319.539063 470.300781 C 315.898438 488.125 291.410156 461.773438 283.6875 454.367188 Z M 358.671875 523.035156 C 357.761719 520.3125 364.117188 519.042969 359.214844 517.046875 C 353.949219 515.59375 351.589844 522.492188 346.867188 520.3125 C 343.734375 518.953125 351.71875 515.445313 347.894531 513.683594 C 343.535156 512.050781 342.496094 514.402344 336.339844 515.773438 C 330.210938 516.371094 339.714844 511.15625 334.398438 511.746094 C 330.492188 511.976563 321.8125 511.730469 327.804688 509.964844 C 333.910156 509.023438 335.050781 506.585938 331.667969 506.261719 C 324.042969 504.992188 310.421875 494.390625 315.460938 494.171875 C 318.914063 494.191406 325.183594 501.828125 323.269531 497.4375 C 320.753906 491.902344 311.46875 485.636719 303.660156 483.820313 C 304.933594 482.007813 307.023438 475.003906 307.882813 480.148438 C 309.117188 485.566406 310.644531 478.914063 312.921875 485.09375 C 315.003906 492.933594 320.414063 476.640625 321.503906 484.8125 C 322.707031 490.875 329.054688 495.769531 330.144531 496.3125 C 333.234375 499.023438 330.347656 489.449219 330.53125 487.636719 C 329.996094 478.730469 335.320313 495.59375 338.40625 500.3125 C 341.066406 504.964844 340.375 497.964844 340.746094 493.425781 C 340.84375 486.117188 343.730469 500.757813 347.722656 507.234375 C 351.023438 512.648438 350.679688 500.160156 350.679688 499.433594 C 350.332031 494.125 356.855469 509.964844 359.214844 512.507813 C 361.300781 516.148438 359.097656 503.574219 361.210938 507.242188 C 363.390625 511.054688 365.886719 514.707031 365.886719 519.425781 C 362.800781 522.679688 362.480469 524.488281 358.671875 523.035156 "/>
<path style=" stroke:none;fill-rule:nonzero;fill:rgb(0%,0%,0%);fill-opacity:1;" d="M 97.730469 311.730469 C 93.808594 312.894531 92.34375 322.152344 98.734375 322.152344 C 102.003906 321.320313 104.4375 318.902344 102.785156 316.289063 C 100.816406 313.746094 103.257813 309.96875 97.730469 311.730469 "/>
<path style=" stroke:none;fill-rule:nonzero;fill:rgb(0%,0%,0%);fill-opacity:1;" d="M 144.78125 351.097656 C 148.78125 350.445313 149.578125 346.847656 147.976563 344.273438 C 146.816406 342.238281 146.527344 337.734375 142.75 338.460938 C 138.460938 340.132813 136.613281 343.148438 137.773438 347.066406 C 139.082031 349.683594 141.332031 351.460938 144.78125 351.097656 "/>
<path style=" stroke:none;fill-rule:nonzero;fill:rgb(0%,0%,0%);fill-opacity:1;" d="M 166.046875 355.566406 C 168.953125 354.839844 171.777344 351.464844 169.242188 349.320313 C 167.207031 347.433594 169.210938 344.460938 164.59375 345.109375 C 161.835938 346.128906 161.253906 348.886719 160.816406 351.355469 C 160.816406 353.96875 163.578125 355.859375 166.046875 355.566406 "/>
<path style=" stroke:none;fill-rule:nonzero;fill:rgb(0%,0%,0%);fill-opacity:1;" d="M 176.117188 340.703125 C 178.296875 339.253906 178.296875 336.78125 178.148438 334.3125 C 178.1875 331.804688 176.445313 327.738281 173.503906 330.246094 C 171.761719 332.570313 170.160156 334.75 170.886719 338.089844 C 171.613281 340.121094 173.648438 341.140625 176.117188 340.703125 "/>
<path style=" stroke:none;fill-rule:nonzero;fill:rgb(0%,0%,0%);fill-opacity:1;" d="M 186.644531 358.605469 C 189.121094 358.671875 189.785156 356.011719 189.023438 353.421875 C 186.410156 349.027344 180.644531 353.824219 181.445313 356.996094 C 182.492188 361.515625 184.09375 358.292969 186.644531 358.605469 "/>
<path style=" stroke:none;fill-rule:nonzero;fill:rgb(0%,0%,0%);fill-opacity:1;" d="M 86.523438 299.230469 C 85.757813 301.820313 86.425781 304.480469 88.898438 304.414063 C 91.453125 304.101563 93.050781 307.324219 94.097656 302.804688 C 94.902344 299.632813 89.136719 294.835938 86.523438 299.230469 "/>
<path style=" stroke:none;fill-rule:nonzero;fill:rgb(0%,0%,0%);fill-opacity:1;" d="M 218.398438 287.171875 C 220.074219 286.070313 220.703125 284.363281 220.007813 282.78125 C 218.597656 280.4375 216.472656 280.046875 214.183594 279.648438 C 211.09375 279.804688 212.3125 283.128906 213.710938 284.566406 C 214.980469 286.085938 216.335938 287.523438 218.398438 287.171875 "/>
<path style=" stroke:none;fill-rule:nonzero;fill:rgb(0%,0%,0%);fill-opacity:1;" d="M 210.410156 307.011719 C 212.882813 307.078125 213.550781 304.421875 212.785156 301.828125 C 210.171875 297.433594 204.40625 302.230469 205.210938 305.402344 C 206.257813 309.921875 207.855469 306.699219 210.410156 307.011719 "/>
<path style=" stroke:none;fill-rule:nonzero;fill:rgb(0%,0%,0%);fill-opacity:1;" d="M 112.089844 307.585938 C 109.769531 307.734375 107.613281 307.898438 105.960938 310.078125 C 105.105469 311.578125 105.546875 313.34375 107.09375 314.617188 C 109.113281 315.183594 110.613281 313.898438 112.035156 312.527344 C 113.578125 311.242188 115.144531 308.066406 112.089844 307.585938 "/>
</g>
</svg>
