<?xml version="1.0" encoding="UTF-8"?>
<svg xmlns="http://www.w3.org/2000/svg" xmlns:xlink="http://www.w3.org/1999/xlink" width="533pt" height="346pt" viewBox="0 0 533 346" version="1.1">
<g id="surface1">
<path style=" stroke:none;fill-rule:nonzero;fill:rgb(0%,0%,0%);fill-opacity:1;" d="M 178.527344 79.53125 C 190.660156 79.976563 236.515625 78.449219 247.878906 79.308594 C 250.371094 79.496094 250.261719 80.964844 247.511719 81.019531 C 245.875 81.054688 237.964844 81.503906 234.613281 81.570313 C 225.25 81.757813 211.664063 83.363281 231.214844 85.132813 C 247.933594 84.296875 269.601563 86.410156 285.902344 86.097656 C 298.023438 84.945313 337.003906 87.140625 346.824219 86.828125 C 362.242188 88.328125 378.640625 88.628906 394.503906 89.117188 C 402.941406 89.378906 398.296875 87.667969 394.84375 87.367188 C 386.4375 86.640625 377.519531 85.929688 369.816406 83.484375 C 358.320313 80.558594 331.664063 80.859375 328.261719 80.296875 C 325.972656 79.914063 326.539063 78.277344 328.671875 78.171875 C 334.300781 77.890625 340.105469 77.78125 345.742188 77.789063 C 353.203125 77.796875 352.269531 75.914063 345.40625 75.257813 C 336.03125 74.355469 321.921875 76.308594 316.730469 75.226563 C 304.804688 72.507813 274.949219 69.515625 258.996094 75.644531 C 244.269531 71.519531 225.222656 68.15625 211.394531 74.078125 C 203.121094 77.203125 190.484375 76.507813 178.882813 76.894531 C 176.121094 76.988281 175.035156 79.402344 178.527344 79.53125 "/>
<path style=" stroke:none;fill-rule:nonzero;fill:rgb(0%,0%,0%);fill-opacity:1;" d="M 242.644531 343.144531 C 241.320313 342.96875 230.546875 343.574219 228.277344 341.308594 C 225.117188 338.144531 198.730469 338.988281 199.144531 336.238281 C 199.558594 333.488281 181.65625 336.292969 179.617188 332.257813 C 178.746094 330.527344 175.773438 333.71875 175.808594 331.519531 C 175.867188 327.75 170.8125 331.476563 170.222656 329.949219 C 170.132813 329.71875 171.921875 326.3125 173.253906 323.691406 C 174.097656 322.027344 173.421875 321.664063 172.4375 323.375 C 171.648438 324.753906 170.664063 326.609375 169.988281 327.839844 C 169.5625 328.617188 169.050781 328.40625 169.453125 327.460938 C 170.058594 326.042969 171.148438 323.886719 171.730469 321.589844 C 171.910156 320.878906 171.566406 319.5625 170.890625 321.390625 C 170.117188 323.480469 169.183594 326.523438 168.0625 327.777344 C 167.660156 328.230469 166.757813 327.976563 166.914063 327.398438 C 167.1875 326.394531 167.773438 324.835938 168.148438 323.644531 C 168.441406 322.71875 167.78125 322.539063 167.390625 323.410156 C 166.542969 325.300781 165.371094 327.949219 164.949219 328.347656 C 163.664063 329.554688 163.484375 327.070313 162.742188 325.359375 C 159.851563 318.71875 152.351563 322.078125 151.414063 321.878906 C 147.800781 321.097656 155.84375 318 147.050781 317.101563 C 144.519531 316.84375 148.878906 313.542969 146.007813 313.957031 C 145.652344 314.007813 143.992188 314.171875 142.734375 314.222656 C 141.796875 314.257813 141.769531 313.65625 142.371094 313.113281 C 143.472656 312.125 145.136719 310.503906 146.027344 308.992188 C 146.410156 308.347656 146.296875 307.226563 145.753906 307.765625 C 144.632813 308.878906 142.714844 311.101563 141.40625 312.335938 C 140.804688 312.90625 140.246094 312.628906 140.613281 311.859375 C 141.097656 310.84375 141.808594 309.464844 142.257813 308.449219 C 142.847656 307.105469 142.976563 306.398438 141.480469 308.019531 C 141.0625 308.46875 137.652344 314.28125 137.195313 311.097656 C 136.941406 309.324219 130.503906 312.296875 132.667969 308.871094 C 134.171875 306.496094 127.648438 307.023438 125.285156 306.511719 C 124.496094 306.34375 124.171875 306.058594 124.757813 305.511719 C 124.996094 305.289063 128.152344 301.222656 129.886719 298.738281 C 130.636719 297.667969 130.078125 297.179688 129.335938 297.855469 C 127.105469 299.890625 123.480469 303.460938 122.660156 303.949219 C 120.699219 305.117188 119.429688 302.898438 121.320313 301.21875 C 123.609375 299.179688 129.890625 295.492188 133.230469 292.054688 C 134 291.265625 134.128906 290.058594 132.820313 290.90625 C 129.199219 293.253906 121.890625 298.230469 119.152344 299.84375 C 118.546875 300.199219 117.449219 299.578125 117.878906 299.003906 C 119.171875 297.28125 124.03125 294.367188 126.527344 292.511719 C 127.730469 291.613281 127.894531 290.703125 125.855469 291.828125 C 122.503906 293.671875 114.988281 298.125 114.054688 298.3125 C 109.875 299.152344 109.457031 297.039063 110.332031 295.273438 C 110.964844 293.992188 116.550781 288.210938 118.320313 285.21875 C 118.808594 284.394531 118.164063 283.710938 117.554688 284.277344 C 115.59375 286.097656 111.746094 290.675781 109.59375 292.800781 C 108.796875 293.589844 108.203125 293.140625 108.710938 292.246094 C 110.289063 289.449219 114.28125 283.847656 115.929688 281 C 116.46875 280.070313 115.882813 279.425781 115.066406 280.128906 C 112.398438 282.445313 107.09375 288.566406 104.28125 291.160156 C 103.308594 292.058594 102.761719 291.582031 103.332031 290.5625 C 105.507813 286.691406 111.21875 277.3125 113.679688 273.007813 C 114.425781 271.699219 114.058594 271.28125 113.074219 272.472656 C 110.242188 275.890625 104.738281 283.5 101.996094 286.828125 C 101.066406 287.953125 100.75 287.480469 101.453125 286.5 C 102.773438 284.648438 104.953125 281.925781 106.003906 280.367188 C 106.402344 279.769531 105.996094 279.28125 105.203125 279.824219 C 103.382813 281.074219 100.171875 283.742188 98.050781 285.316406 C 96.851563 286.207031 96.539063 285.609375 97.519531 284.574219 C 99.917969 282.039063 104.449219 277.628906 106.792969 275.152344 C 107.714844 274.175781 107.351563 273.703125 106.039063 274.644531 C 103.558594 276.414063 99.628906 279.503906 97.449219 281.09375 C 96.4375 281.828125 96.332031 280.730469 96.695313 280.089844 C 99.351563 275.371094 105.96875 271.515625 106.738281 270.472656 C 107.242188 269.78125 106.949219 269.441406 106.402344 269.820313 C 103.898438 271.5625 101.1875 273.21875 98.710938 274.425781 C 98.320313 274.617188 97.746094 274.046875 97.953125 273.671875 C 98.527344 272.621094 99.617188 271.941406 100.730469 270.914063 C 101.449219 270.246094 101.050781 269.875 100.152344 270.59375 C 98.652344 271.792969 97.101563 272.859375 95.515625 273.828125 C 94.292969 274.585938 93.933594 273.960938 94.175781 273.265625 C 94.34375 272.347656 102.660156 263.140625 107.402344 259.300781 C 108.585938 258.34375 108.378906 258.09375 107.171875 258.945313 C 102.296875 262.390625 97.574219 266.199219 92.765625 269.628906 C 92.03125 270.195313 91.664063 269.707031 92.03125 269.019531 C 93.335938 265.929688 97.386719 263.773438 100.203125 261.191406 C 100.769531 260.671875 100.488281 260.34375 99.878906 260.761719 C 96.632813 262.980469 93.445313 265.710938 90.316406 267.546875 C 89.265625 268.183594 88.84375 267.371094 88.839844 267.046875 C 88.824219 266.082031 90.539063 265.046875 91.582031 263.941406 C 92.976563 262.773438 92.113281 262.566406 91.191406 263.417969 C 88.644531 265.53125 86.269531 268.296875 83.230469 269.054688 C 80.714844 270.121094 79.214844 269.140625 80.132813 268.28125 C 82.484375 265.519531 86.390625 262.835938 88.765625 261.332031 C 90.296875 260.363281 89.328125 260.464844 88.320313 261.015625 C 84.515625 262.691406 80.785156 265.945313 76.492188 266.234375 C 75.972656 266.273438 75.9375 265.351563 76.257813 265.230469 C 82.851563 262.734375 93.742188 256.992188 95.96875 255.976563 C 97.089844 256.496094 97.507813 257.015625 98.800781 257.628906 C 99.738281 258.261719 99.785156 257.582031 99.207031 256.992188 C 98.800781 256.46875 98.085938 255.789063 97.570313 255.296875 C 98.902344 254.632813 101.066406 253.6875 102.378906 253.085938 C 103.164063 252.722656 102.898438 252.253906 102.238281 252.554688 C 100.453125 253.371094 98.597656 254.167969 96.929688 254.773438 C 96.023438 254.117188 95.773438 253.890625 94.460938 253.375 C 95.640625 252.878906 97.105469 251.820313 98.410156 251.332031 C 99.132813 251.0625 99.035156 250.980469 98.367188 250.839844 C 93.953125 249.917969 87.617188 249.554688 82.300781 251.308594 C 80.660156 251.691406 81.484375 250.703125 81.828125 250.441406 C 85.640625 247.511719 89.710938 245.324219 93.507813 242.617188 C 94.15625 242.15625 94.027344 241.804688 93.335938 242.140625 C 83.734375 246.800781 75.132813 254.222656 66.195313 260.636719 C 65.03125 261.386719 64.082031 260.277344 65.148438 259.28125 C 73.695313 251.269531 83.84375 245.429688 93.8125 239.691406 C 95.195313 238.898438 94.992188 238.578125 93.539063 239.277344 C 90.644531 240.664063 74.605469 250.898438 69.378906 253.511719 C 68.769531 253.8125 68.453125 253.460938 68.921875 253.023438 C 73.304688 248.976563 78.757813 245.238281 82.722656 241.042969 C 83.546875 240.171875 83.082031 239.933594 82.125 240.679688 C 75.386719 245.921875 68.253906 250.117188 61.644531 255.792969 C 59.660156 257.160156 59.160156 255.59375 59.683594 255.035156 C 64.75 250.449219 69.554688 245.425781 74.09375 240.398438 C 74.824219 239.59375 74.554688 239.417969 73.699219 240.128906 C 70.746094 242.574219 67.765625 244.972656 64.839844 247.371094 C 59.097656 251.953125 61.429688 249.066406 63.386719 246.757813 C 63.988281 246.042969 64.558594 245.386719 64.84375 245.019531 C 65.707031 244.128906 65.746094 242.929688 64.09375 244.902344 C 61.308594 248.503906 57.140625 252.0625 53.027344 254.320313 C 52.769531 254.464844 52.300781 253.820313 52.523438 253.558594 C 56.433594 248.929688 61.078125 244.234375 65.484375 239.535156 C 66.179688 238.792969 66.054688 238.589844 65.289063 239.230469 C 60.382813 243.339844 55.039063 247.347656 49.792969 250.617188 C 49.449219 250.828125 49.019531 250.542969 49.539063 249.648438 C 53.175781 242.773438 60.605469 236.316406 66.675781 231.265625 C 67.339844 230.710938 67.082031 230.488281 66.332031 230.953125 C 60.183594 234.765625 54.609375 240.628906 48.519531 243.859375 C 48.25 244.003906 47.945313 243.53125 48.082031 243.164063 C 49.558594 239.226563 52.179688 235.832031 54.195313 232.070313 C 54.5 231.503906 54.148438 231.269531 53.71875 231.765625 C 50.953125 234.96875 48.910156 238.875 46.589844 241.558594 C 46.046875 242.269531 45.910156 241.5 46.039063 240.984375 C 47.527344 235.085938 49.730469 229.929688 52.132813 224.40625 C 54.085938 224.71875 55.90625 225.363281 57.457031 226.605469 C 57.828125 226.898438 58.046875 226.535156 57.769531 226.0625 C 56.613281 224.085938 55.179688 222.226563 52.992188 221.054688 C 53.863281 218.132813 54.792969 215.429688 55.980469 212.636719 C 56.640625 211.085938 56.460938 210.886719 55.734375 212.449219 C 54.496094 215.121094 53.394531 217.992188 51.867188 220.558594 C 45.769531 218.355469 45.378906 225.121094 43.234375 228.664063 C 42.929688 229.171875 42.332031 228.820313 42.421875 228.257813 C 43.605469 220.636719 46.546875 213.144531 49.722656 205.929688 C 50.335938 204.535156 49.960938 204.242188 49.21875 205.496094 C 45.347656 212.027344 42.589844 218.945313 40.25 226.113281 C 40.054688 226.710938 39.621094 226.621094 39.613281 225.96875 C 39.523438 217.648438 41.222656 209.054688 42.34375 200.570313 C 42.539063 199.097656 42.222656 198.9375 41.917969 200.324219 C 40.109375 208.59375 38.644531 216.964844 36.96875 225.28125 C 36.839844 225.933594 36.332031 226.296875 36.335938 225.007813 C 35.980469 220.195313 37.867188 194.296875 37.890625 191.121094 C 37.914063 187.230469 37.683594 187.855469 37.316406 191.003906 C 36.375 199.015625 34.53125 223.375 33.707031 231.429688 C 33.617188 232.304688 33.128906 232.082031 32.96875 231.402344 C 30.765625 221.851563 30.671875 211.621094 28.65625 201.746094 C 28.417969 200.59375 28.097656 200.683594 28.210938 201.878906 C 29.183594 212.289063 29.746094 222.558594 29.957031 232.621094 C 29.96875 233.246094 29.480469 233.234375 29.25 232.59375 C 27.535156 227.816406 26.621094 222.699219 25.386719 217.71875 C 25.078125 216.460938 24.707031 216.484375 24.910156 217.742188 C 25.730469 222.792969 26.851563 227.886719 26.824219 232.984375 C 26.824219 233.394531 26.34375 233.46875 26.144531 233.046875 C 25.636719 231.992188 25.214844 230.78125 24.765625 229.804688 C 24.441406 229.089844 24.179688 229.367188 24.394531 229.972656 C 25.070313 231.859375 25.554688 233.871094 25.527344 235.769531 C 25.519531 236.523438 24.917969 236.265625 24.671875 235.933594 C 21.339844 231.511719 19.175781 226.480469 15.222656 222.488281 C 14.695313 221.953125 14.460938 222.148438 14.90625 222.753906 C 17.492188 226.296875 20.074219 231.609375 22.476563 236.089844 C 22.660156 236.429688 22.84375 236.765625 23.023438 237.09375 C 23.078125 237.195313 22.601563 237.046875 21.78125 236.738281 C 19.0625 235.707031 12.597656 232.910156 9.636719 231.757813 C 8.648438 231.371094 8.523438 231.644531 9.066406 231.988281 C 12.003906 233.84375 20.824219 238.425781 24.203125 240.402344 C 24.960938 240.847656 24.925781 241.644531 23.652344 241.683594 C 20.515625 241.785156 14.324219 241.429688 11.550781 241.40625 C 10.585938 241.398438 10.738281 241.761719 11.449219 241.910156 C 15.765625 242.816406 29.269531 244.550781 29.859375 244.226563 C 35.183594 240.449219 41.214844 263.625 48.472656 264.265625 C 54.246094 264.15625 52.882813 271.839844 56.515625 272.722656 C 59.816406 273.5 64.804688 272.042969 65.410156 274.742188 C 66.027344 278.140625 70.976563 272.878906 68.3125 280.5625 C 68 282.914063 80.527344 284.214844 80.507813 287.394531 C 79.429688 291.664063 94.480469 303.859375 95.121094 301.203125 C 95.492188 299.671875 97.75 299.734375 99.058594 303.957031 C 99.957031 306.859375 101.515625 305.570313 102.78125 306.351563 C 107.078125 309.015625 112.558594 311.121094 117.175781 313.28125 C 117.367188 313.371094 114.941406 315.125 113.78125 316.246094 C 113.019531 316.984375 113.40625 317.328125 114.410156 316.765625 C 115.949219 315.902344 118.070313 314.628906 119.390625 313.917969 C 120.039063 313.566406 120.746094 313.832031 120.726563 314.398438 C 120.667969 315.859375 120.238281 318.578125 120.117188 320.246094 C 120.058594 321.039063 120.65625 321.273438 121.019531 320.578125 C 121.6875 319.292969 122.605469 317.171875 123.257813 315.933594 C 123.59375 315.296875 124.375 315.316406 124.722656 315.796875 C 125.757813 317.226563 127.421875 320.011719 128.828125 322 C 129.933594 323.554688 130.125 323.046875 129.742188 322.019531 C 129.363281 320.988281 128.828125 319.667969 128.425781 318.601563 C 127.992188 317.460938 128.578125 317.339844 129.109375 318.09375 C 130.144531 319.570313 131.707031 321.796875 132.609375 323.390625 C 133.527344 325.015625 133.917969 324.21875 133.640625 323.210938 C 133.339844 322.136719 132.902344 320.765625 132.664063 319.832031 C 132.488281 319.132813 133.4375 319.117188 133.839844 319.292969 C 140.9375 322.386719 145.929688 324.558594 146.429688 325.46875 C 148.324219 328.90625 153.140625 326.378906 153.503906 327.339844 C 154.777344 330.71875 165.3125 332.152344 169.070313 333.03125 C 198.585938 339.949219 226.714844 344.019531 240.953125 345.269531 C 245.046875 345.628906 247.332031 343.78125 242.644531 343.144531 Z M 94.824219 255.480469 C 89.71875 257.550781 84.304688 259.316406 79.226563 261.460938 C 77.660156 262.121094 77.496094 261.820313 79.027344 261.078125 C 83.671875 258.824219 87.890625 257.15625 92.113281 254.972656 C 93.554688 254.292969 94.183594 255.125 94.824219 255.480469 Z M 82.476563 252.980469 C 86.515625 250.542969 92.175781 250.675781 96.261719 251.136719 C 97.722656 251.171875 96.765625 251.5625 96.558594 251.699219 C 92.71875 254.210938 87.125 251.933594 82.742188 253.472656 C 81.535156 253.898438 81.308594 253.6875 82.476563 252.980469 Z M 77.804688 259.238281 C 80.953125 256.621094 83.992188 255.042969 87.832031 254.75 C 88.378906 254.707031 88.414063 255.085938 87.867188 255.292969 C 84.550781 256.554688 81.425781 258.464844 78.058594 259.738281 C 77.46875 259.964844 77.292969 259.605469 77.804688 259.238281 Z M 43.644531 240.800781 C 42.371094 245.269531 41.394531 245.484375 43.019531 240.472656 C 43.429688 238.707031 44.042969 236.191406 44.898438 232.757813 C 45.960938 230.046875 46.96875 226.886719 48.03125 224.175781 C 48.625 223.160156 49.058594 223.425781 50.511719 224.042969 C 49.367188 226.296875 45.464844 235.707031 43.644531 240.800781 "/>
<path style=" stroke:none;fill-rule:nonzero;fill:rgb(0%,0%,0%);fill-opacity:1;" d="M 388.710938 109.078125 C 391.042969 109.15625 390.347656 110.378906 389.132813 110.449219 C 382.753906 111.089844 375.1875 107.785156 368.0625 108.683594 C 358.511719 109.234375 361.71875 114.210938 365.234375 114.957031 C 367.917969 115.523438 432.863281 119.980469 448.003906 119.1875 C 450.84375 119.039063 449.078125 117.171875 448.066406 116.847656 C 445.277344 115.953125 441.347656 115.742188 438.9375 115.433594 C 437.738281 115.277344 437.425781 114.425781 439.148438 114.507813 C 444.496094 114.402344 447.550781 115.191406 451.96875 115.089844 C 466.40625 116.503906 482.757813 116.128906 489.574219 115.1875 C 493.402344 114.664063 494.226563 113.960938 490.019531 113.296875 C 473.53125 109.535156 437.078125 112.226563 428.914063 111.695313 C 427.84375 111.628906 428.347656 110.753906 428.890625 110.757813 C 442.507813 110.777344 440.160156 109.464844 453.191406 109.214844 C 465.988281 109.410156 470.183594 107.328125 453.273438 106.652344 C 425.859375 105.554688 401.65625 104.070313 388.585938 105.785156 C 382.207031 106.757813 385.164063 108.570313 388.710938 109.078125 "/>
<path style=" stroke:none;fill-rule:nonzero;fill:rgb(0%,0%,0%);fill-opacity:1;" d="M 295.371094 129.289063 C 280.558594 129.859375 283.21875 132.144531 295.660156 132.871094 C 321.398438 134.84375 357.277344 132.636719 376.617188 131.730469 C 386.972656 131.808594 385.894531 130.066406 377.195313 130.015625 C 371.585938 129.445313 363.460938 129.394531 356.988281 129.601563 C 350.949219 129.652344 352.335938 128.984375 355.523438 128.410156 C 363.390625 127.84375 358.875 125.203125 349.601563 126.03125 C 342.507813 126.117188 319.550781 125.019531 313.046875 123.171875 C 311.273438 122.589844 311.539063 121.738281 313.589844 121.925781 C 325.195313 121.371094 318.421875 120.390625 312.886719 120.046875 C 310.90625 119.921875 306.238281 119.457031 305.269531 119.394531 C 303.644531 119.292969 303.617188 118.421875 305.09375 118.375 C 311.839844 118.152344 338.925781 120.207031 346.117188 120.246094 C 348.183594 120.257813 347.605469 118.804688 345.972656 118.679688 C 339.117188 118.15625 331.625 118.253906 326.8125 116.195313 C 322.496094 114.128906 312.046875 114.515625 302.960938 115.144531 C 302.722656 115.160156 302.488281 114.558594 302.578125 114.226563 C 302.757813 113.570313 302.855469 112.878906 302.855469 112.164063 C 302.855469 107.871094 299.371094 104.386719 295.074219 104.386719 C 290.78125 104.386719 287.296875 107.871094 287.296875 112.164063 C 287.296875 113.175781 287.492188 114.136719 287.84375 115.019531 C 287.984375 115.375 287.484375 115.972656 287.3125 115.882813 C 278.027344 111.855469 268.933594 114.109375 264.46875 114.230469 C 261.371094 114.738281 253.070313 113.230469 247.503906 113.527344 C 243.425781 113.746094 242.828125 114.835938 247.242188 115.015625 C 250.578125 115.152344 254.007813 115.363281 257.328125 115.671875 C 258.589844 115.789063 258.882813 116.769531 257.519531 116.9375 C 255.492188 117.1875 239.730469 116.339844 232.855469 117.78125 C 228.238281 119.035156 222.945313 119.230469 217.953125 119.449219 C 215.90625 119.539063 213.113281 120.4375 218.109375 120.492188 C 227.507813 120.601563 237.214844 120.835938 246.371094 120.335938 C 249.769531 120.589844 254.695313 121.492188 260.609375 121.714844 C 261.203125 121.738281 262.148438 122.527344 260.640625 122.699219 C 256.976563 123.125 249.003906 122.976563 244.621094 124.03125 C 235.117188 123.828125 230.484375 126.425781 244.984375 126.570313 C 269.109375 127.335938 294.234375 125.410156 317.085938 127.421875 C 317.515625 127.730469 318.953125 127.574219 318.667969 127.992188 C 313.058594 129.316406 303.136719 129.445313 295.371094 129.289063 Z M 275.828125 122.109375 C 274.050781 122.269531 267.105469 122.867188 265.570313 122.394531 C 264.289063 122 265.089844 121.332031 265.742188 121.332031 C 266.628906 121.332031 268.234375 121.332031 270.875 121.332031 C 273.167969 121.332031 274.726563 121.46875 276.148438 121.585938 C 277.566406 121.699219 279.15625 121.808594 275.828125 122.109375 "/>
<path style=" stroke:none;fill-rule:nonzero;fill:rgb(0%,0%,0%);fill-opacity:1;" d="M 171.84375 100.5 C 187.46875 101.113281 215.144531 99.097656 218.90625 99.347656 C 222.671875 99.597656 223.96875 101.855469 219.566406 101.636719 C 215.933594 102.695313 209.507813 102.800781 204.476563 102.675781 C 194.886719 103.132813 196.609375 104.960938 204.664063 105.542969 C 221.335938 107.121094 244.570313 105.355469 257.097656 104.628906 C 263.800781 104.691406 263.105469 103.300781 257.46875 103.257813 C 253.839844 102.800781 248.574219 102.757813 244.382813 102.925781 C 240.472656 102.96875 239.71875 101.332031 241.785156 100.875 C 246.878906 100.417969 251.472656 98.125 240.699219 98.417969 C 236.105469 98.488281 237.8125 95.8125 220.949219 95.4375 C 201.230469 93.328125 183.183594 99.058594 171.609375 98.46875 C 165.453125 98.304688 162.453125 100.382813 171.84375 100.5 "/>
<path style=" stroke:none;fill-rule:nonzero;fill:rgb(0%,0%,0%);fill-opacity:1;" d="M 244.265625 229.734375 C 239.109375 228.125 239.078125 228.613281 240.4375 230.640625 C 240.890625 231.339844 241.421875 231.976563 242.035156 232.414063 C 246.621094 232.355469 250.445313 232.308594 254.90625 232.167969 C 255.976563 232.105469 255.496094 231.007813 255.664063 230.171875 C 251.5 230.292969 248.882813 230.617188 244.265625 229.734375 "/>
<path style=" stroke:none;fill-rule:nonzero;fill:rgb(0%,0%,0%);fill-opacity:1;" d="M 525.984375 198.441406 C 523.382813 198.363281 525.550781 197.195313 523.789063 195.800781 C 522.074219 194.441406 522.175781 197.410156 519.089844 195.984375 C 516.554688 194.8125 517.628906 198.65625 517.101563 199.261719 C 516.171875 200.320313 515.613281 195.082031 512.921875 197.375 C 510.457031 199.480469 509.996094 199.027344 510.191406 196.726563 C 510.53125 192.707031 507.445313 197.613281 505.949219 198.582031 C 504.453125 199.550781 502.957031 199.871094 501.585938 197.371094 C 500.214844 194.871094 498.21875 196 495.722656 198.664063 C 492.007813 202.628906 495.023438 197.644531 491.859375 197.9375 C 489.238281 198.179688 489.023438 197.714844 488.367188 197.128906 C 486.371094 195.355469 486.121094 198.90625 483.753906 199.308594 C 482.226563 199.566406 482.878906 198.503906 481.757813 197.855469 C 480.636719 197.210938 478.515625 199.46875 476.894531 199.226563 C 475.273438 198.984375 475.023438 197.9375 473.902344 196.726563 C 472.777344 195.515625 471.464844 198.1875 469.160156 198.824219 C 467.414063 199.308594 465.671875 199.46875 464.171875 197.855469 C 463.242188 196.851563 464.5625 195.261719 463.527344 194.925781 C 462.675781 194.652344 462.054688 196.398438 461.453125 197.503906 C 461.34375 198.113281 460.566406 198.09375 460.761719 197.59375 C 461.21875 196.089844 460.019531 195.246094 458.601563 195.015625 C 457.183594 194.785156 456.09375 193.742188 457.722656 193.925781 C 459.351563 194.109375 455.441406 190.871094 456.191406 191.234375 C 457.820313 192.011719 456.078125 189.34375 454.78125 188.828125 C 452.886719 188.894531 453.984375 190.363281 452.601563 191.234375 C 451.652344 191.828125 450.984375 194.628906 452.972656 194.128906 C 454.1875 193.523438 453.238281 197.4375 450.40625 196.589844 C 449.007813 195.75 450.304688 194.265625 449.308594 193.8125 C 446.316406 193.363281 447.6875 195.53125 446.8125 196.78125 C 445.941406 198.035156 444.5 198.589844 444.625 197.417969 C 444.75 196.246094 444.890625 195.847656 444.667969 194.65625 C 444.441406 193.445313 443.714844 192.628906 441.683594 194.273438 C 441.183594 195.152344 440.257813 195.644531 439.402344 194.601563 C 438.386719 191.953125 436.855469 193.082031 436.855469 194.734375 C 436.855469 196.390625 436.074219 195.265625 435.933594 194.589844 C 435.6875 193.414063 435.679688 190.886719 434.488281 189.847656 C 433.980469 189.414063 433.808594 189.605469 433.773438 190.09375 C 433.714844 190.992188 434.125 192.898438 433.777344 193.828125 C 433.652344 194.167969 432.707031 194.996094 432.394531 193.785156 C 432.082031 192.578125 432.621094 191.605469 431.296875 191.507813 C 430.148438 189.734375 429.164063 190.609375 429.382813 191.746094 C 429.515625 192.464844 429.921875 193.371094 430.070313 193.949219 C 430.160156 194.300781 429.707031 195.316406 429.148438 194.269531 C 428.585938 193.21875 428.503906 193.519531 428.058594 193.09375 C 427.515625 192.613281 426.527344 192.101563 427.265625 193.320313 C 427.449219 193.644531 427.699219 193.945313 427.832031 194.285156 C 429.207031 196.074219 426.886719 195.449219 426.480469 195.105469 C 426.078125 194.765625 426.726563 193.679688 425.214844 193.851563 C 425.015625 192.078125 424.378906 190.605469 423.691406 189.773438 C 422.972656 188.453125 422.175781 188.734375 421.808594 189.734375 C 421.195313 191.21875 420.195313 193.445313 421.28125 194.425781 C 422.246094 195.113281 422.332031 197.097656 420.808594 195.746094 C 418.96875 193.875 413.296875 197.542969 416.304688 194.328125 C 417.511719 193.425781 416.65625 188.886719 414.3125 189.976563 C 412.105469 191.226563 415.238281 184.765625 411.917969 186.894531 C 410.417969 187.8125 412.378906 182.957031 410.203125 184.757813 C 409.507813 185.355469 409.757813 182.820313 409.277344 181.496094 C 409.085938 180.972656 407.984375 180.683594 407.570313 181.644531 C 406.570313 183.652344 409.996094 186.203125 408.652344 185.773438 C 405.851563 184.964844 408.734375 187.683594 408.6875 188.566406 C 408.445313 190.496094 406.121094 185.546875 405.410156 187.152344 C 405.414063 188.328125 404.351563 188.480469 404.117188 189.171875 C 403.960938 190.140625 407.640625 190.835938 404.9375 190.777344 C 402.464844 190.539063 403.59375 192.195313 405.398438 192.316406 C 406.941406 192.578125 402.96875 193.472656 404.484375 196.457031 C 405.140625 198.167969 399.601563 196.269531 401.191406 195.132813 C 403.183594 193.78125 398.515625 193.617188 399.917969 192.039063 C 400.628906 189.644531 396.519531 192.082031 398.175781 193.253906 C 398.949219 193.765625 399.230469 195.296875 397.683594 194.683594 C 395.691406 194.285156 397.535156 195.394531 396.527344 196.429688 C 395.566406 197.257813 394.535156 197.402344 394.734375 196.613281 C 396.003906 194.207031 393.453125 189.679688 392.460938 192.589844 C 392.445313 193.109375 391.605469 194.035156 392.484375 194.660156 C 391.21875 194.78125 391.667969 195.792969 392.035156 196.1875 C 392.117188 196.804688 391.328125 197.105469 390.605469 196.265625 C 389.828125 195.503906 388.015625 196.039063 386.648438 196.628906 C 385.617188 196.917969 386.390625 195.867188 387.023438 195.160156 C 389.550781 192.183594 384.667969 189.234375 385.355469 193.382813 C 386.988281 194.28125 383.230469 194.945313 384.761719 195.640625 C 385.601563 196.035156 383.933594 196.339844 385.339844 196.992188 C 385.4375 197.429688 384.242188 197.859375 384.15625 197.175781 C 383.867188 196.292969 381.710938 196.632813 383.328125 195.71875 C 384.15625 195.3125 381.898438 194.75 383.113281 194.019531 C 384.808594 193.289063 382.578125 193.582031 382.996094 193.09375 C 384.136719 191.996094 383.195313 190.664063 382.527344 189.199219 C 382.210938 188.613281 381.796875 188.71875 381.683594 189.070313 C 381.984375 191.328125 380.183594 190.929688 380.84375 191.914063 C 382.269531 192.40625 381.371094 194.296875 380.476563 193.4375 C 380.046875 192.578125 380.453125 189.886719 379.273438 190.910156 C 377.710938 191.933594 378.886719 189.851563 376.191406 191.230469 C 375.523438 191.578125 375.5 191.414063 375.691406 190.976563 C 376.023438 190.21875 377.015625 188.644531 376.394531 187.574219 C 376.597656 186.652344 375.21875 186.425781 375.382813 187.386719 C 375.984375 188.339844 373.164063 188.421875 374.570313 189.8125 C 375.144531 190.128906 372.652344 190.382813 373.957031 191.917969 C 370.4375 192.636719 374.117188 194.222656 374.121094 194.902344 C 374.132813 197.230469 370.246094 198.558594 368.625 195.304688 C 368.300781 194.652344 372.484375 193.160156 369.027344 192.328125 C 370.449219 190.835938 367.980469 190.5 368.578125 190.203125 C 370.09375 188.859375 367.285156 188.6875 367.960938 187.753906 C 368.199219 186.800781 366.808594 186.980469 366.933594 187.910156 C 366.230469 188.957031 367.09375 190.5625 367.367188 191.332031 C 367.523438 191.769531 367.488281 191.9375 366.847656 191.5625 C 364.269531 190.097656 365.277344 192.21875 363.796875 191.144531 C 362.699219 190.085938 362.890625 192.785156 362.394531 193.625 C 361.433594 194.453125 360.6875 192.539063 362.148438 192.09375 C 362.886719 191.132813 361.058594 191.46875 361.535156 189.230469 C 361.449219 188.875 361.042969 188.753906 360.683594 189.328125 C 359.902344 190.769531 358.851563 192.070313 359.90625 193.203125 C 360.285156 193.703125 358.078125 193.339844 359.714844 194.121094 C 360.871094 194.890625 358.570313 195.378906 359.367188 195.8125 C 360.910156 196.777344 358.78125 196.367188 358.425781 197.242188 C 358.28125 197.921875 357.125 197.449219 357.257813 197.015625 C 358.714844 196.410156 357.070313 196.054688 357.941406 195.6875 C 359.523438 195.042969 355.824219 194.253906 357.527344 193.410156 C 358.542969 189.289063 353.429688 192.074219 355.722656 195.132813 C 356.296875 195.859375 356.984375 196.933594 355.980469 196.613281 C 354.660156 195.976563 352.894531 195.378906 352.054688 196.113281 C 351.269531 196.933594 350.503906 196.605469 350.632813 195.992188 C 351.03125 195.609375 351.5625 194.613281 350.308594 194.453125 C 351.234375 193.855469 350.46875 192.902344 350.492188 192.386719 C 349.734375 189.445313 346.828125 193.882813 347.90625 196.328125 C 348.042969 197.121094 347.023438 196.941406 346.128906 196.085938 C 345.203125 195.019531 347.132813 193.96875 345.113281 194.300781 C 343.519531 194.863281 343.921875 193.34375 344.730469 192.859375 C 346.480469 191.742188 342.570313 189.171875 343.089844 191.585938 C 344.363281 193.207031 339.691406 193.21875 341.574219 194.632813 C 343.070313 195.820313 337.386719 197.535156 338.179688 195.847656 C 339.929688 192.917969 336.035156 191.894531 337.59375 191.683594 C 339.40625 191.621094 340.664063 190.003906 338.179688 190.160156 C 335.472656 190.128906 339.203125 189.558594 339.121094 188.585938 C 338.945313 187.886719 337.898438 187.699219 337.992188 186.527344 C 337.410156 184.898438 334.695313 189.761719 334.609375 187.828125 C 334.632813 186.945313 337.726563 184.324219 334.863281 185.039063 C 333.484375 185.421875 337.109375 182.992188 336.269531 180.953125 C 335.933594 179.980469 334.808594 180.230469 334.578125 180.75 C 333.996094 182.054688 334.042969 184.597656 333.394531 183.972656 C 331.367188 182.105469 332.9375 187.015625 331.515625 186.050781 C 328.367188 183.816406 330.980469 190.371094 328.878906 189.050781 C 326.625 187.882813 325.410156 192.386719 326.542969 193.328125 C 329.292969 196.640625 323.917969 192.789063 321.933594 194.597656 C 320.820313 194.132813 321.570313 193.628906 321.566406 193.261719 C 322.726563 192.320313 321.90625 190.0625 321.414063 188.558594 C 321.121094 187.550781 320.347656 187.242188 319.527344 188.535156 C 318.777344 189.34375 318.023438 190.796875 317.683594 192.558594 C 316.1875 192.335938 316.75 193.441406 316.320313 193.769531 C 315.890625 194.097656 313.519531 194.648438 315.035156 192.902344 C 315.195313 192.570313 315.46875 192.28125 315.679688 191.960938 C 316.511719 190.765625 315.484375 191.246094 314.902344 191.707031 C 314.425781 192.117188 314.167969 192.574219 313.722656 192.84375 C 313.507813 192.976563 312.710938 192.84375 312.824219 192.496094 C 313.019531 191.921875 313.496094 191.03125 313.6875 190.316406 C 313.996094 189.1875 313.085938 188.285156 311.796875 190.019531 C 310.464844 190.070313 310.714844 191.453125 310.519531 192.257813 C 310.429688 192.609375 309.234375 192.59375 309.132813 192.253906 C 308.859375 191.308594 309.421875 189.421875 309.433594 188.523438 C 309.4375 188.035156 309.28125 187.839844 308.738281 188.25 C 307.46875 189.25 307.257813 191.777344 306.921875 192.941406 C 306.726563 193.609375 306.492188 193.832031 305.984375 193.054688 C 305.5625 190.882813 304.679688 190.226563 303.453125 192.835938 C 302.519531 193.847656 301.636719 193.328125 301.203125 192.433594 C 299.308594 190.722656 298.941406 192.394531 299.0625 192.839844 C 299.1875 193.28125 299.039063 195.4375 297.730469 192.652344 C 297.273438 191.6875 296.023438 189.980469 293.996094 191.621094 C 293.492188 192.503906 292.566406 192.992188 291.714844 191.949219 C 290.695313 189.304688 289.761719 189.929688 289.171875 192.085938 C 288.605469 192.84375 288.386719 192.617188 288.246094 191.941406 C 288 190.765625 287.992188 188.234375 286.800781 187.195313 C 286.289063 186.765625 286.117188 186.957031 286.085938 187.445313 C 286.027344 188.34375 286.4375 190.246094 286.089844 191.179688 C 285.964844 191.519531 284.765625 191.492188 284.707031 191.136719 C 284.574219 190.328125 284.933594 188.957031 283.605469 188.859375 C 282.460938 187.085938 281.476563 187.957031 281.691406 189.097656 C 281.828125 189.816406 282.234375 190.722656 282.382813 191.300781 C 282.472656 191.648438 281.660156 191.757813 281.460938 191.617188 C 281.035156 191.332031 280.816406 190.867188 280.371094 190.441406 C 279.828125 189.964844 278.839844 189.449219 279.574219 190.671875 C 279.761719 190.996094 280.011719 191.296875 280.144531 191.632813 C 281.519531 193.425781 279.195313 192.796875 278.792969 192.457031 C 278.390625 192.117188 279.039063 191.027344 277.527344 191.203125 C 277.324219 189.429688 276.6875 187.953125 276.003906 187.125 C 275.285156 185.804688 274.488281 186.085938 274.117188 187.085938 C 273.507813 188.566406 272.507813 190.796875 273.59375 191.773438 C 277.800781 196.496094 270.460938 195.003906 270 192.640625 C 269.835938 191.796875 274.230469 189.574219 269.734375 188.910156 C 271.113281 186.910156 267.96875 186.757813 268.636719 186.328125 C 270.164063 184.5 266.640625 184.585938 267.238281 183.359375 C 267.289063 182.152344 265.609375 182.523438 266.007813 183.660156 C 265.40625 185.035156 266.886719 186.933594 267.421875 187.855469 C 267.730469 188.382813 267.726563 188.59375 266.839844 188.199219 C 263.265625 186.660156 265.058594 189.179688 262.949219 188.007813 C 261.320313 186.8125 262.25 190.136719 261.851563 191.234375 C 260.871094 192.363281 259.457031 190.070313 261.152344 189.363281 C 261.816406 188.09375 259.640625 188.707031 259.65625 185.878906 C 259.457031 185.445313 258.925781 185.339844 258.625 186.09375 C 258.027344 187.964844 257.0625 189.683594 258.660156 190.976563 C 259.257813 191.554688 256.429688 191.339844 258.660156 192.136719 C 260.289063 192.964844 257.5625 193.8125 258.660156 194.265625 C 260.820313 195.300781 258.078125 195.019531 257.859375 196.136719 C 257.859375 196.996094 256.300781 196.535156 256.355469 195.984375 C 258.007813 195.078125 255.875 194.8125 256.863281 194.265625 C 258.660156 193.296875 253.871094 192.71875 255.765625 191.492188 C 255.964844 186.277344 250.347656 190.277344 253.96875 193.8125 C 254.867188 194.652344 255.996094 195.910156 254.667969 195.621094 C 252.871094 194.976563 250.527344 194.429688 249.679688 195.429688 C 248.914063 196.523438 247.882813 196.203125 247.882813 195.429688 C 248.28125 194.910156 248.683594 193.621094 247.085938 193.558594 C 248.085938 192.71875 246.886719 191.621094 246.785156 190.976563 C 245.089844 187.414063 242.628906 193.222656 244.59375 196.136719 C 244.964844 197.105469 243.65625 196.992188 242.332031 196.027344 C 240.90625 194.804688 243.027344 193.296875 240.613281 193.925781 C 238.78125 194.792969 238.890625 192.867188 239.769531 192.179688 C 241.648438 190.609375 236.144531 187.84375 237.410156 190.78125 C 239.402344 192.652344 233.617188 193.167969 236.3125 194.71875 C 238.472656 196.03125 231.871094 198.761719 232.421875 196.589844 C 233.835938 192.769531 228.746094 191.921875 230.625 191.492188 C 232.851563 191.222656 234 189.082031 230.957031 189.546875 C 227.597656 189.792969 232.070313 188.683594 231.722656 187.488281 C 231.324219 186.640625 229.976563 186.523438 229.792969 185.058594 C 228.652344 183.105469 226.539063 189.421875 225.9375 187.039063 C 225.738281 185.941406 228.894531 182.359375 225.535156 183.554688 C 223.925781 184.179688 227.792969 180.773438 226.230469 178.339844 C 225.558594 177.167969 224.234375 177.601563 224.078125 178.269531 C 223.691406 179.949219 224.40625 183.09375 223.441406 182.390625 C 220.449219 180.296875 223.65625 186.210938 221.644531 185.167969 C 217.171875 182.734375 222.09375 190.578125 219.152344 189.167969 C 216.058594 187.964844 215.710938 193.675781 217.355469 194.71875 C 221.613281 198.527344 213.964844 194.332031 211.96875 196.78125 C 210.472656 196.332031 211.269531 195.621094 211.171875 195.171875 C 212.367188 193.878906 210.773438 191.167969 209.773438 189.363281 C 209.15625 188.140625 208.117188 187.84375 207.433594 189.535156 C 206.710938 190.617188 206.148438 192.496094 206.183594 194.71875 C 204.269531 194.601563 205.253906 195.910156 204.800781 196.363281 C 204.355469 196.816406 201.558594 197.75 202.988281 195.429688 C 203.101563 194.996094 203.363281 194.609375 203.542969 194.191406 C 204.269531 192.621094 203.117188 193.328125 202.515625 193.960938 C 202.027344 194.519531 201.828125 195.113281 201.347656 195.496094 C 201.117188 195.683594 200.089844 195.601563 200.148438 195.160156 C 200.238281 194.429688 200.601563 193.273438 200.65625 192.371094 C 200.746094 190.9375 199.382813 189.914063 198.234375 192.199219 C 196.597656 192.410156 197.265625 194.097656 197.226563 195.109375 C 197.210938 195.558594 195.722656 195.667969 195.511719 195.257813 C 194.929688 194.117188 195.136719 191.71875 194.921875 190.605469 C 194.804688 189.996094 194.5625 189.769531 193.996094 190.339844 C 192.675781 191.714844 193.066406 194.867188 192.945313 196.347656 C 192.878906 197.199219 192.640625 197.496094 191.816406 196.589844 C 190.734375 193.945313 189.472656 193.222656 188.625 196.589844 C 187.726563 197.945313 186.496094 197.394531 185.730469 196.332031 C 182.941406 194.417969 180.664063 195.078125 182.074219 197.007813 C 182.453125 197.679688 182.019531 198.144531 181.253906 198.492188 C 180.121094 197.777344 162.746094 197.617188 152.886719 197.558594 C 150.148438 196.964844 146.703125 196.554688 144.273438 197.734375 C 140.972656 198.347656 140.402344 193.667969 143.867188 194.730469 C 147.582031 195.710938 144.144531 191.195313 146.679688 192.613281 C 150.519531 193.632813 154.515625 195.289063 158.570313 194.621094 C 162.371094 193.976563 158.023438 190.699219 153.160156 190.003906 C 149.78125 189.699219 144.226563 190.226563 142.488281 186.300781 C 142.28125 182.460938 148.683594 187.945313 152.410156 187.515625 C 153.582031 187.953125 154.140625 186.851563 153.621094 186.007813 C 150.101563 183.625 140.199219 184.710938 143.6875 181.402344 C 145.859375 178.230469 130.945313 179.113281 132.757813 174.464844 C 133.769531 171.945313 137.355469 174.269531 139.546875 174.382813 C 143.609375 177.550781 147.285156 177.15625 145.414063 173.457031 C 145.902344 170.75 149.351563 173.476563 149.917969 174.636719 C 152.371094 176.964844 153.078125 173.074219 151.140625 171.714844 C 146.03125 167.300781 142.035156 169.425781 138.382813 170.238281 C 136.320313 170.066406 125.910156 168.539063 124.15625 166.058594 C 122.753906 164.007813 131.308594 164.695313 133.449219 166.945313 C 136.273438 168.390625 143.25 168.242188 143.980469 167.464844 C 147.195313 167.257813 145.453125 165.328125 141.671875 165.035156 C 140.605469 164.980469 137.78125 164.949219 136.378906 161.78125 C 137.546875 159.351563 123.773438 162.925781 121.53125 158.375 C 121.332031 157.96875 121.84375 156.375 122.261719 156.230469 C 125.5 155.128906 129.070313 155.765625 133.992188 159.394531 C 137.710938 160.371094 134.269531 155.859375 136.804688 157.277344 C 140.644531 158.296875 144.640625 159.953125 148.695313 159.285156 C 152.496094 158.640625 148.148438 155.363281 143.285156 154.667969 C 139.910156 154.363281 130.523438 154.589844 128.78125 150.664063 C 128.574219 146.824219 138.808594 152.609375 142.535156 152.179688 C 143.707031 152.617188 144.265625 151.515625 143.746094 150.671875 C 142.011719 148.117188 138.015625 147.804688 134.285156 147.449219 C 130.308594 147.65625 131.585938 146.632813 132.46875 146.203125 C 135.476563 144.738281 141.964844 142.546875 142.066406 142.261719 C 156.542969 136.296875 162.726563 131.878906 165.671875 128.695313 C 166.332031 127.980469 172.046875 125.703125 174.925781 124.441406 C 184.273438 120.097656 188.675781 130.644531 194.503906 135.152344 C 196.992188 136.558594 198.476563 134.933594 199.949219 135.910156 C 205.667969 140.089844 209.242188 140.722656 216.503906 139.84375 C 223.214844 140.613281 223.214844 148.863281 229.59375 151.394531 C 236.746094 154.691406 241.101563 147.101563 247.59375 146.882813 C 252.832031 146.703125 254.222656 150.980469 258.839844 151.199219 C 263.804688 151.683594 268.617188 145.671875 271.808594 140.0625 C 274.734375 135.636719 281.707031 137.589844 286.574219 141.824219 C 294.386719 146.664063 302.648438 155.519531 311.777344 151.117188 C 314.433594 149.289063 314.355469 155.007813 318.125 154.347656 C 322.671875 153.550781 334.183594 146.519531 337.285156 148.53125 C 346.085938 153.8125 353.894531 161.621094 363.796875 164.371094 C 372.816406 167.21875 383.046875 160.027344 391.84375 164.097656 C 397.785156 166.351563 405.210938 175.347656 414.175781 175.484375 C 420.445313 175.539063 433.726563 164.976563 437.9375 167.5625 C 447.476563 175.234375 468.570313 165.363281 476.214844 162.695313 C 482.375 161.183594 497.335938 171.054688 504.046875 177.902344 C 505.75 179.828125 506.605469 179.414063 505.257813 177.902344 C 499.097656 170.863281 483.199219 159.507813 477.097656 161.292969 C 466.757813 164.484375 448.109375 172.835938 438.738281 166.515625 C 433.632813 162.757813 422.734375 172.726563 414.175781 174.273438 C 406.667969 174.273438 398.941406 164.207031 389.976563 161.84375 C 385.34375 160.847656 375.523438 163.722656 369.09375 164.253906 C 363.234375 164.273438 354.722656 159.785156 351.914063 157.332031 C 349.179688 154.941406 340.6875 150.140625 338.851563 147.894531 C 334.449219 143.777344 323.542969 152.363281 317.484375 152.492188 C 315.628906 152.671875 316.273438 147.0625 312.316406 148.972656 C 300.433594 153.703125 292.296875 142.59375 283.054688 137.53125 C 272.496094 130.769531 268.535156 143.898438 265.222656 146.691406 C 256.804688 155.121094 251.925781 141.601563 244.222656 146.222656 C 241.472656 147.542969 238.847656 148.765625 235.972656 150.183594 C 227.710938 153.179688 222.679688 140.804688 220.367188 139.363281 C 215.652344 136.53125 210.929688 141.023438 203.050781 136.898438 C 201.429688 135.890625 201.039063 134.402344 199.523438 134.355469 C 188.964844 133.585938 185.320313 117.019531 175.363281 121.691406 C 171.398438 122.964844 146.792969 138.664063 138.234375 141.464844 C 134.808594 143.214844 131.199219 142.539063 132.363281 140.28125 C 134.53125 136.105469 123.105469 137.847656 124.941406 136.4375 C 124.472656 133.394531 121.195313 134.347656 122.769531 132.472656 C 125.3125 129.4375 143.160156 139.285156 142.273438 133.617188 C 142.347656 133.238281 138.597656 129.855469 135.015625 130.945313 C 132.941406 130.929688 130.640625 131.675781 128.699219 129.339844 C 127.148438 127.398438 131.484375 125.066406 133.792969 127.144531 C 135.984375 126.96875 143.789063 127.976563 144.460938 127.144531 C 147.648438 126.691406 146.578125 125.117188 142.78125 125.113281 C 141.714844 125.136719 136.515625 120.242188 132.371094 122.660156 C 129.128906 123.523438 126.273438 119.671875 129.808594 120.464844 C 133.589844 121.160156 129.816406 116.917969 132.449219 118.144531 C 136.359375 118.863281 140.46875 120.210938 144.460938 119.238281 C 148.203125 118.300781 143.617188 115.367188 138.714844 115.046875 C 135.324219 115 129.824219 115.945313 127.789063 112.167969 C 127.292969 108.351563 134.09375 113.335938 137.777344 112.621094 C 138.976563 112.96875 139.453125 111.828125 138.867188 111.023438 C 135.179688 108.917969 125.390625 110.753906 128.613281 107.191406 C 130.535156 103.859375 115.730469 105.878906 117.1875 101.105469 C 118.003906 98.515625 121.753906 100.558594 123.949219 100.507813 C 128.242188 103.355469 131.875 102.683594 129.730469 99.136719 C 130.011719 96.398438 133.65625 98.855469 134.3125 99.96875 C 136.933594 102.101563 137.34375 98.171875 135.304688 96.964844 C 129.878906 92.953125 126.054688 95.375 122.472656 96.464844 C 120.402344 96.449219 118.097656 97.195313 116.160156 94.855469 C 114.609375 92.917969 118.945313 90.585938 121.253906 92.664063 C 123.445313 92.488281 131.25 93.492188 131.921875 92.660156 C 135.109375 92.210938 134.035156 90.636719 130.238281 90.632813 C 129.175781 90.65625 123.976563 85.761719 119.828125 88.183594 C 116.585938 89.042969 113.734375 85.1875 117.265625 85.984375 C 121.046875 86.679688 117.277344 82.4375 119.910156 83.660156 C 123.816406 84.386719 127.925781 85.730469 131.921875 84.757813 C 135.660156 83.820313 131.074219 80.886719 126.171875 80.5625 C 122.785156 80.519531 117.285156 81.464844 115.25 77.6875 C 114.75 73.871094 121.550781 78.855469 125.238281 78.140625 C 126.4375 78.488281 126.910156 77.347656 126.328125 76.546875 C 122.640625 74.4375 118.742188 76.789063 116.070313 72.710938 C 115.039063 71.542969 112.847656 74.261719 113.082031 70.960938 C 113.28125 67.699219 119.511719 69.554688 122.957031 69.347656 C 125.527344 69.191406 124.589844 66.796875 121.144531 66.941406 C 118.375 66.632813 115.664063 66.195313 113.375 64.867188 C 114.90625 63.328125 117.9375 64.007813 119.65625 62.460938 C 118.957031 59.464844 111.917969 61.640625 114.132813 57.132813 C 114.667969 55.867188 112.363281 57.738281 111.925781 55.699219 C 111.289063 52.828125 107.414063 51.1875 107.277344 55.800781 C 107.808594 60.792969 111.585938 59.421875 111.140625 61.816406 C 108.800781 63.691406 98.382813 62.277344 106.066406 64.824219 C 108.410156 65.804688 110.824219 64.460938 110.929688 66.183594 C 111.40625 67.835938 102.695313 66.941406 104.96875 68.800781 C 107.066406 70.292969 108.726563 71.710938 100.203125 70.390625 C 97.140625 69.789063 101.191406 73.652344 104.972656 72.976563 C 106.03125 72.574219 109.1875 72.058594 109.726563 73.675781 C 109.992188 74.234375 109.445313 76.382813 107.800781 75.855469 C 105.894531 74.835938 105.761719 78.039063 103.769531 77.710938 C 100.484375 76.011719 99.980469 79.367188 98.148438 78.785156 C 97.566406 78.046875 96.167969 78.328125 95.484375 78.535156 C 93.964844 78.757813 94.066406 79.613281 94.949219 79.84375 C 96.992188 81.175781 99.835938 81.253906 102.871094 79.550781 C 103.867188 78.589844 107.367188 77.929688 109.3125 79.15625 C 109.757813 79.4375 109.554688 80.628906 109.140625 80.84375 C 107.503906 81.679688 103.554688 79.246094 104.300781 81.585938 C 105.050781 84.121094 97.929688 81.027344 94.664063 85.394531 C 93.941406 86.621094 94.992188 88.199219 96.71875 86.613281 C 98.757813 85.40625 100.023438 87.550781 101.003906 84.65625 C 101.414063 83.410156 103.386719 87.109375 109.328125 84.605469 C 110.703125 84.34375 112.53125 85.554688 108.253906 86.890625 C 103.765625 87.269531 104.222656 90.273438 100.484375 89.546875 C 98.855469 89.242188 97.421875 90.238281 96.148438 90.753906 C 94.207031 92.066406 92.683594 87.636719 89.226563 87.824219 C 85.046875 88.054688 72.277344 86.320313 77.457031 84.316406 C 81.886719 82.613281 73.765625 81.867188 69.765625 80.8125 C 65.40625 78.878906 67.289063 77.890625 71.136719 79.132813 C 75.8125 81.191406 88.253906 83.195313 89.265625 82.9375 C 91.273438 81.632813 89.519531 80.34375 88.101563 80.140625 C 85.972656 79.5625 77.015625 78.914063 76.152344 75.640625 C 75.453125 71.5 64.914063 73.046875 65.847656 71.023438 C 66.867188 67.78125 71.554688 70.339844 74.300781 70.273438 C 79.664063 73.832031 84.207031 72.992188 81.527344 68.558594 C 81.875 65.140625 86.433594 68.207031 87.25 69.597656 C 90.53125 72.265625 91.039063 67.351563 88.492188 65.84375 C 81.707031 60.828125 76.929688 63.859375 72.453125 65.21875 C 69.863281 65.203125 66.984375 66.132813 64.5625 63.210938 C 62.621094 60.785156 68.042969 57.871094 70.929688 60.472656 C 73.667969 60.25 83.421875 61.507813 84.261719 60.46875 C 88.246094 59.902344 86.90625 57.933594 82.160156 57.929688 C 80.828125 57.960938 74.332031 51.839844 69.148438 54.867188 C 65.09375 55.941406 61.53125 51.125 65.945313 52.117188 C 70.671875 52.988281 65.957031 47.6875 69.25 49.21875 C 74.132813 50.121094 79.269531 51.800781 84.261719 50.585938 C 88.941406 49.414063 83.207031 45.746094 77.078125 45.34375 C 72.84375 45.289063 65.96875 46.472656 63.425781 41.746094 C 62.800781 36.980469 71.300781 43.207031 75.90625 42.3125 C 77.410156 42.746094 78.003906 41.324219 77.273438 40.320313 C 72.660156 37.683594 67.789063 40.625 64.453125 35.527344 C 63.164063 34.066406 60.421875 37.46875 60.714844 33.34375 C 64.109375 30.988281 68.75 31.582031 73.058594 31.324219 C 76.269531 31.128906 75.101563 28.136719 70.789063 28.316406 C 67.332031 27.929688 63.945313 27.382813 61.082031 25.726563 C 62.996094 23.796875 66.78125 24.648438 68.933594 22.714844 C 68.058594 18.972656 59.261719 21.691406 62.027344 16.054688 C 62.695313 14.472656 60.585938 14.835938 60.558594 13.582031 C 59.765625 9.992188 61.566406 6.460938 60.84375 2.554688 C 59.515625 -0.628906 57.414063 0.246094 58.03125 2.898438 C 60.199219 12.273438 53.386719 12.222656 54.921875 14.027344 C 56.320313 16.820313 58.84375 18.914063 58.285156 21.910156 C 55.359375 24.253906 42.339844 22.484375 51.945313 25.667969 C 54.875 26.894531 57.894531 25.214844 58.023438 27.367188 C 58.621094 29.429688 47.730469 28.316406 50.570313 30.644531 C 53.195313 32.503906 55.269531 34.277344 44.617188 32.628906 C 40.785156 31.878906 45.851563 36.703125 50.578125 35.859375 C 51.898438 35.355469 55.84375 34.714844 56.519531 36.734375 C 56.851563 37.433594 56.167969 40.117188 54.113281 39.460938 C 51.730469 38.183594 51.566406 42.1875 49.074219 41.777344 C 44.96875 39.652344 44.335938 43.851563 42.046875 43.121094 C 41.316406 42.195313 39.574219 42.550781 38.71875 42.808594 C 36.816406 43.085938 36.945313 44.15625 38.050781 44.441406 C 40.601563 46.109375 44.15625 46.207031 47.949219 44.078125 C 49.199219 42.878906 53.570313 42.054688 56.003906 43.585938 C 56.558594 43.9375 56.308594 45.425781 55.785156 45.691406 C 53.738281 46.738281 48.804688 43.695313 49.738281 46.621094 C 50.675781 49.789063 41.773438 45.921875 37.695313 51.378906 C 36.789063 52.917969 38.101563 54.886719 40.257813 52.90625 C 42.808594 51.394531 44.390625 54.078125 45.617188 50.460938 C 46.132813 48.90625 48.59375 53.527344 56.023438 50.394531 C 57.738281 50.066406 60.023438 51.578125 54.679688 53.25 C 49.070313 53.722656 49.34375 58.632813 44.667969 57.722656 C 42.066406 57.234375 40.347656 57.511719 38.183594 58.742188 C 32.914063 61.453125 39.515625 63.101563 46.125 59.648438 C 49.53125 60.980469 53 57.445313 55.71875 59.578125 C 56.632813 61.753906 57.710938 65.28125 54.410156 65.101563 C 53.546875 64.964844 51.90625 65.316406 51.621094 66.578125 C 50.769531 69.210938 43.488281 61.960938 41.53125 66.53125 C 40.804688 67.882813 34.648438 69.519531 30.402344 67.945313 C 26.023438 67.5 26.851563 72.578125 31.628906 71.183594 C 33.964844 70.5 39.257813 74.347656 42.535156 71.472656 C 45.613281 68.917969 49.242188 72.046875 53.089844 68.816406 C 54.976563 67.988281 59.511719 70.675781 54.746094 72.621094 C 53.117188 73.285156 43.640625 72.859375 37.734375 76.242188 C 36.210938 76.929688 33.878906 75.601563 32.308594 75.636719 C 26.53125 76.742188 30.492188 79.5 32.949219 79.414063 C 35.367188 78.964844 39.246094 80.363281 41.695313 77.871094 C 44.273438 75.273438 44.960938 81.0625 48.300781 78.550781 C 51.71875 74.992188 54.257813 77.234375 55.042969 77.292969 C 57.371094 77.472656 56.933594 79.835938 53.671875 80.097656 C 48.21875 79.496094 35.441406 82.019531 32.835938 84.515625 C 29.785156 84.980469 27.75 81.8125 24.664063 83.925781 C 23.542969 85.152344 23.691406 85.960938 28.09375 86.351563 C 32.808594 88.933594 35.425781 88.976563 39.722656 87.175781 C 43.914063 85.425781 48.191406 90.421875 52.417969 86.871094 C 54.78125 85.011719 58.199219 86.96875 57.511719 89.886719 C 57.058594 90.683594 53.761719 88.277344 54.714844 91.054688 C 55.753906 95.183594 51.378906 92.542969 49.78125 94.621094 C 44.875 98.804688 35.53125 96.972656 29.761719 98.5 C 29.742188 98.5 29.730469 98.5 29.710938 98.5 C 27.039063 98.566406 27.863281 100.613281 29.632813 100.128906 C 31.40625 99.640625 33.097656 98.859375 34.988281 102.582031 C 36.761719 104.578125 38.078125 101.539063 40.527344 105.636719 C 41.761719 107.351563 43.628906 106.902344 43.4375 102.984375 C 43.144531 100.941406 44.40625 101.101563 44.867188 102.347656 C 46.949219 107.472656 49.867188 102.566406 53.269531 107.191406 C 55.714844 109.957031 54.234375 101.652344 57.152344 102.3125 C 60.953125 102.617188 57.21875 110.628906 53.726563 108.878906 C 47.410156 108.140625 43.777344 114.765625 41.730469 112.304688 C 39.882813 110.464844 35.09375 114.53125 31.984375 115.050781 C 28.878906 115.570313 30.113281 118.253906 32.546875 117.527344 C 34.683594 116.890625 40.363281 118.285156 41.617188 118.554688 C 43.722656 121.328125 50.769531 116.347656 52.402344 120.257813 C 54.207031 124.660156 58.71875 115.425781 58.699219 114.488281 C 59.230469 117.035156 58.996094 119.367188 59.183594 121.742188 C 47.808594 133.753906 48.871094 127.261719 44.304688 126.585938 C 39.851563 126.085938 27.40625 130.726563 24.320313 132.136719 C 21.234375 133.546875 21.539063 135.492188 24.640625 134.75 C 29.582031 133.566406 25.109375 137.898438 29.820313 135.722656 C 31.328125 136.550781 33.339844 134.332031 34.425781 138.121094 C 35.109375 141.714844 37.246094 138.132813 37.769531 136.945313 C 39.628906 134.941406 42.378906 133.933594 43.40625 136.496094 C 45.621094 139.476563 46.765625 139.242188 49.652344 138.621094 C 51.105469 137.097656 50.199219 130.898438 52.6875 134.316406 C 53.984375 136.089844 52.324219 138.796875 55.308594 139.035156 C 56.574219 139.558594 58.390625 136.691406 58.6875 139.269531 C 59.433594 144.273438 52.542969 141.457031 49.761719 143.171875 C 49.070313 143.890625 48.160156 145.089844 46.734375 144.652344 C 45.746094 142.636719 42.707031 142.34375 40.503906 143.050781 C 37.78125 144.054688 36.015625 147.890625 32.652344 146.085938 C 30.660156 144.722656 26.59375 143.066406 22.789063 146.871094 C 19.886719 148.980469 8.960938 145.785156 9.8125 148.589844 C 12.058594 150.8125 17.949219 152.238281 21.460938 150.351563 C 24.125 150.210938 34.34375 155.589844 38.425781 151.359375 C 40.742188 149.761719 46.460938 156.1875 48.339844 152.773438 C 49.585938 150.101563 52.84375 155.175781 55.644531 153.148438 C 57.878906 150.347656 59.261719 150.238281 59.035156 153.929688 C 57.527344 156.476563 49.28125 154.996094 52.695313 157.765625 C 54.089844 159.144531 47.355469 162.992188 43.683594 161.351563 C 39.59375 158.785156 34.527344 159.976563 37.53125 163.226563 C 38.96875 165.386719 31.863281 165.632813 29.394531 163.96875 C 25.300781 162.390625 20.484375 168.648438 16.949219 165.128906 C 13.5 162.988281 11.285156 167.769531 8.796875 165.320313 C 4.546875 163.59375 -3.152344 166.285156 1.789063 167.449219 C 5.542969 168.691406 9.214844 169.625 12.785156 168.050781 C 17.109375 172.964844 28.257813 172.335938 30.101563 170.644531 C 31.125 168.710938 32.453125 166.246094 34.261719 167.539063 C 37.550781 170.597656 50.890625 165.363281 52.921875 167.328125 C 52.644531 168.746094 53.96875 170.546875 54.824219 169.21875 C 56.515625 166.617188 57.605469 167.480469 58.15625 167.546875 C 59.21875 169.246094 55.164063 169.15625 55.832031 170.945313 C 59.320313 174.652344 40.628906 170.316406 40.105469 175.871094 C 38.28125 178.265625 34.488281 177.101563 32.007813 178.335938 C 25.078125 183.757813 11.703125 183.277344 8.132813 182.917969 C 4.558594 182.558594 3.1875 185.734375 5 187.027344 C 6.8125 188.320313 9.738281 188.386719 10.386719 186.703125 C 11.03125 185.023438 12.785156 184.589844 15.105469 187.375 C 17.429688 190.164063 22.667969 187.980469 24.199219 186.375 C 25.730469 184.769531 26.410156 184.558594 27.261719 187.382813 C 27.953125 189.664063 33.433594 185.09375 35.257813 182.8125 C 36.527344 181.226563 38.21875 182.125 37.0625 183.890625 C 36.757813 184.351563 36.921875 185.0625 37.214844 185.378906 C 38.019531 186.242188 39.816406 183.355469 40.335938 184.71875 C 40.550781 185.273438 39.515625 187.1875 44.71875 183.4375 C 45.800781 182.65625 46.78125 182.628906 47.789063 184.703125 C 49.058594 187.320313 52.117188 187.753906 55.601563 187.21875 C 58.890625 186.71875 65.230469 181.59375 67.996094 181.578125 C 69.917969 181.570313 71.320313 183.011719 70.105469 183.992188 C 67.167969 186.363281 72.019531 186.644531 72.71875 187.085938 C 85.113281 194.855469 107.101563 192.285156 109.402344 193.914063 C 111.8125 195.617188 112.78125 193.949219 113.890625 192.621094 C 114.875 191 116.242188 192.109375 115.242188 193.753906 C 114.480469 195.015625 115.410156 196.59375 117.753906 195.464844 C 118.808594 194.84375 124.394531 199.023438 124.234375 196.921875 C 123.925781 193.761719 131.914063 201.144531 133.335938 201.578125 C 141.546875 205.546875 137.488281 201.039063 145.132813 200.261719 C 146.085938 200.039063 146.433594 201.664063 146.433594 201.664063 C 159.339844 217.90625 172.90625 216.257813 176.097656 235.726563 C 178.113281 241.410156 189.039063 250.945313 195.128906 255.199219 C 209.207031 266.085938 234.910156 269.71875 250.089844 277.636719 C 268.863281 285.082031 261.484375 313.621094 343.644531 305.855469 C 344.839844 308.277344 346.0625 310.542969 346.804688 311.191406 C 349.191406 312.660156 350.8125 309.578125 353.097656 310.355469 C 353.660156 310.703125 356.699219 311.695313 357.710938 309.121094 C 358.605469 307.097656 367.339844 305.078125 370.050781 304.984375 C 373.039063 304.851563 381.191406 301.097656 385.703125 302.078125 C 391.5 302.699219 396.035156 301.992188 397.617188 299.300781 C 403.429688 292.539063 409.125 294.691406 412.164063 291.191406 C 417.328125 285.25 412.136719 284.515625 420.09375 275.871094 C 422.03125 273.960938 420.644531 274.335938 419.445313 275.347656 C 415.722656 277.867188 413.246094 281.480469 409.945313 284.433594 C 409.699219 284.65625 409.1875 284.765625 409.300781 284.175781 C 409.570313 282.679688 410.265625 281.175781 411.085938 279.800781 C 411.351563 279.359375 411.1875 279.101563 410.820313 279.609375 C 410.316406 280.304688 409.796875 281.191406 409.238281 281.941406 C 409.015625 282.242188 408.652344 282.105469 408.714844 281.789063 C 409.480469 277.78125 411.148438 273.957031 412.578125 270.121094 C 412.933594 269.164063 412.644531 269.089844 412.207031 270.027344 C 410.46875 273.746094 408.957031 277.621094 406.867188 281.101563 C 406.589844 281.570313 406.203125 281.503906 406.3125 281.015625 C 407.339844 276.328125 408.488281 271.601563 409.742188 266.855469 C 437.148438 266.191406 461.335938 265.34375 467.582031 264.308594 C 471.523438 263.648438 470.496094 262.300781 468.019531 262.4375 C 465.546875 262.578125 437.460938 264.59375 410.105469 265.496094 C 410.851563 262.722656 411.621094 259.945313 412.449219 257.15625 C 412.71875 256.238281 412.484375 256.117188 412.117188 256.988281 C 410.949219 259.78125 409.984375 262.652344 409.066406 265.53125 C 407.734375 265.574219 406.394531 265.617188 405.050781 265.660156 C 405.851563 258.476563 406.707031 250.8125 406.988281 247.210938 C 407.1875 244.683594 407.101563 244.160156 406.519531 247.214844 C 406.207031 248.855469 405.003906 258.339844 403.925781 265.695313 C 403.273438 265.714844 402.621094 265.734375 401.96875 265.757813 C 401.992188 261.773438 402.011719 257.789063 401.929688 253.816406 C 401.90625 252.675781 401.632813 252.753906 401.558594 253.941406 C 401.308594 257.875 401.195313 261.863281 400.890625 265.789063 C 399.894531 265.820313 398.894531 265.847656 397.898438 265.878906 C 397.265625 262.796875 396.464844 259.75 395.398438 256.742188 C 395.011719 255.640625 394.671875 255.8125 394.9375 257 C 395.59375 259.945313 396.191406 262.929688 396.617188 265.914063 C 394.535156 265.976563 392.445313 266.035156 390.359375 266.089844 C 389.925781 264.460938 389.597656 262.789063 389.207031 261.1875 C 388.878906 259.847656 388.707031 259.976563 388.984375 261.296875 C 389.324219 262.921875 389.574219 264.496094 389.773438 266.105469 C 356.429688 267.007813 323.160156 269.597656 313.816406 266.199219 C 306.28125 263.363281 262.535156 247.515625 254.152344 249.832031 C 245.503906 252.03125 221.226563 237.394531 213.644531 233.3125 C 212.277344 232.113281 212.050781 231.316406 213.480469 231.171875 L 218.394531 230.882813 L 218.394531 231.890625 L 219.789063 231.890625 L 219.789063 230.882813 L 223.234375 230.882813 L 223.234375 231.890625 L 224.628906 231.890625 L 224.628906 230.882813 L 228.269531 230.882813 L 228.269531 231.96875 L 229.660156 231.96875 L 229.660156 230.882813 L 232.371094 230.882813 L 232.371094 232.121094 L 233.765625 232.121094 L 233.765625 230.882813 L 236.320313 230.882813 L 236.320313 232.046875 L 237.714844 232.046875 L 237.714844 228.328125 L 236.320313 228.328125 L 236.320313 229.800781 L 233.765625 229.800781 L 233.765625 228.40625 L 232.371094 228.40625 L 232.371094 229.800781 L 229.660156 229.800781 L 229.660156 228.25 L 228.269531 228.25 L 228.269531 229.800781 L 224.628906 229.800781 L 224.628906 228.171875 L 223.234375 228.171875 L 223.234375 229.800781 L 219.789063 229.800781 L 219.789063 228.171875 L 218.394531 228.171875 L 218.394531 229.800781 L 216.726563 229.800781 C 216.664063 227.796875 216.769531 222.480469 216.769531 222.480469 C 216.769531 222.480469 222.453125 223.628906 220.175781 222.203125 C 216.320313 220.21875 207.242188 214.609375 206.363281 214.3125 C 205.484375 214.019531 201.207031 216.933594 201.207031 216.933594 C 201.207031 216.933594 201.207031 215.679688 201.058594 215.679688 C 200.914063 215.679688 199.664063 215.585938 199.664063 215.742188 C 199.664063 216.179688 199.960938 217.144531 199.847656 217.710938 C 197.910156 218.847656 192.542969 221.089844 192.542969 221.089844 C 192.046875 221.335938 192.132813 222.171875 192.976563 221.953125 C 194.589844 221.894531 198.316406 220.710938 198.316406 220.710938 L 198.324219 227.890625 L 194.027344 228.46875 C 186.589844 229.921875 160.042969 215.082031 151.164063 202.871094 C 149.292969 200.015625 151.878906 200.8125 153.527344 200.371094 C 162.0625 200.257813 528.6875 200.988281 528.6875 200.988281 C 528.6875 200.988281 530.523438 200.976563 531.621094 200.972656 C 533.652344 200.742188 531.796875 198.617188 525.984375 198.441406 Z M 123.875 142.792969 C 124.160156 140.738281 128.457031 142.957031 133.144531 143.855469 C 131.179688 144.894531 129.4375 145.277344 128.011719 146.054688 C 127.460938 145.722656 127.019531 145.304688 126.722656 144.765625 C 125.785156 143.523438 123.386719 146.066406 123.875 142.792969 Z M 112.179688 146.996094 C 113.234375 147.027344 112.238281 148.425781 111.644531 148.269531 C 111.398438 148.226563 110.851563 148.011719 110.621094 147.890625 C 110.074219 147.6875 108.015625 149.785156 107.199219 148.828125 C 106.386719 147.875 107.933594 148.390625 108.960938 147.9375 C 109.992188 147.488281 109.160156 146.960938 109.875 146.550781 C 110.429688 146.324219 111.296875 145.503906 112.054688 145.253906 C 114.035156 145.199219 111.398438 146.972656 112.179688 146.996094 Z M 112.027344 108.410156 C 114.007813 108.355469 111.375 110.132813 112.15625 110.152344 C 113.210938 110.183594 112.214844 111.585938 111.621094 111.429688 C 111.371094 111.386719 110.828125 111.171875 110.597656 111.046875 C 110.050781 110.84375 107.992188 112.945313 107.175781 111.988281 C 106.359375 111.03125 107.90625 111.550781 108.9375 111.097656 C 109.964844 110.644531 109.136719 110.117188 109.851563 109.710938 C 110.402344 109.480469 111.273438 108.660156 112.027344 108.410156 Z M 100.703125 125.929688 C 102.632813 127.546875 97.667969 129.3125 90.015625 125.371094 C 85.480469 123.753906 73.480469 126.496094 70.9375 121.773438 C 70.3125 117.003906 89.238281 124.554688 93.84375 123.660156 C 95.320313 124.089844 95.910156 122.71875 95.234375 121.71875 C 93.339844 120.671875 95.496094 119.421875 96.996094 118.566406 C 100.148438 116.765625 100.339844 121.753906 104.734375 119.558594 C 109.125 117.363281 111.027344 120.453125 108.96875 121.808594 C 106.910156 123.164063 96.25 122.195313 100.703125 125.929688 Z M 65.589844 92.050781 C 64.140625 90.4375 66.246094 87.875 67.378906 89.339844 C 71.292969 91.15625 81.402344 88.535156 83.617188 92.640625 C 85.050781 93.703125 87.339844 94.199219 88.960938 93.0625 C 91.546875 91.46875 94.613281 96.988281 101.410156 92.007813 C 104.132813 93.074219 106.097656 88.957031 109.085938 91.949219 C 109.816406 93.691406 110.679688 96.515625 108.039063 96.367188 C 107.347656 96.257813 106.035156 96.539063 105.808594 97.550781 C 105.273438 100.308594 99.300781 93.855469 97.734375 97.511719 C 97.5 97.949219 95.789063 99.484375 93.863281 99.699219 C 90.824219 99.234375 89.78125 96.707031 86.808594 98.210938 C 81.671875 96.605469 76.152344 95.40625 71.992188 92.054688 C 69.59375 93.285156 68.390625 91.199219 65.589844 92.050781 Z M 72.71875 102.664063 C 85.285156 107.238281 91.359375 100.796875 94.964844 102.234375 C 96.246094 102.441406 97.515625 102.367188 98.539063 101.46875 C 101 99.421875 103.90625 101.925781 106.980469 99.34375 C 108.492188 98.679688 112.421875 102.21875 108.308594 102.386719 C 101.636719 102.652344 100.152344 105.695313 94.699219 105.28125 C 89.480469 105.667969 85.621094 107.464844 90.070313 107.621094 C 94.519531 107.773438 94.457031 105.160156 98.722656 108.722656 C 101.277344 110.847656 104.738281 108.09375 106.6875 106.496094 C 107.996094 105.421875 109.328125 105.394531 107.824219 106.675781 C 102.445313 111.246094 107.273438 116.492188 101.746094 114.921875 C 98.476563 113.996094 90.175781 112.0625 92.097656 115.9375 C 93.191406 118.144531 91.300781 119.488281 89.859375 120.324219 C 88.011719 121.386719 84.4375 120.003906 82.386719 116.875 C 81.097656 115.414063 73.625 117.75 73.917969 113.625 C 77.3125 111.269531 86.6875 112.929688 90.992188 112.667969 C 94.207031 112.476563 93.035156 109.484375 88.726563 109.664063 C 85.265625 109.277344 81.882813 108.730469 79.019531 107.070313 C 80.933594 105.144531 72.222656 106.566406 69.636719 105.058594 C 67.710938 103.9375 68.761719 101.222656 72.71875 102.664063 Z M 88.863281 141.816406 C 92.445313 143.929688 101.359375 142.855469 102.195313 141.8125 C 106.183594 141.246094 104.84375 139.28125 100.097656 139.277344 C 98.765625 139.308594 92.265625 133.1875 87.085938 136.214844 C 85.574219 136.613281 72.839844 139.40625 69.78125 134.121094 C 69.421875 130.285156 81.109375 132.84375 83.882813 133.464844 C 88.609375 134.335938 86.632813 128.839844 89.925781 130.367188 C 93.402344 132.613281 97.207031 133.148438 102.195313 131.933594 C 104.425781 131.375 99.210938 126.988281 102.734375 128.664063 C 104.3125 129.480469 105.902344 129.253906 106.777344 128.527344 C 109.800781 126.019531 111.792969 130.632813 108.433594 132.28125 C 105.074219 133.929688 99.324219 134.390625 99.109375 135.902344 C 98.886719 137.472656 101.109375 137.550781 105.527344 136.402344 C 109.941406 135.25 112.722656 139.652344 108.601563 139.335938 C 105.476563 139.09375 104.820313 147.949219 97.441406 145.496094 C 95.207031 145.097656 92.121094 145.453125 90.390625 146.566406 C 88.25 149.019531 76.882813 147.476563 74.460938 144.550781 C 72.519531 142.128906 85.980469 139.21875 88.863281 141.816406 Z M 98.292969 156.574219 C 101.34375 158.332031 96.199219 160.859375 94.703125 159.464844 C 94.046875 158.949219 92.78125 157.453125 92.304688 156.726563 C 91.015625 155.265625 81.660156 158.167969 80.78125 154.070313 C 79.898438 149.976563 83.625 153.941406 87.355469 154.246094 C 91.089844 154.550781 89.492188 151.683594 92.234375 151.621094 C 94.21875 151.828125 98.066406 150.796875 100.675781 151.257813 C 106.574219 154.234375 96.039063 155.273438 98.292969 156.574219 Z M 101.4375 165.261719 C 107.558594 164.492188 105.601563 167.621094 103.527344 167.820313 C 102.59375 167.910156 98.132813 166.84375 96.917969 167.113281 C 90.566406 166.652344 83.128906 165.496094 81.53125 162.523438 C 81.011719 158.566406 94.277344 163.859375 101.4375 165.261719 Z M 103.824219 185.722656 C 103.589844 186.773438 102.148438 189.675781 98.382813 187.8125 C 95.621094 186.445313 97.574219 191.929688 95.359375 190.6875 C 93.269531 190.257813 91.335938 189.472656 89.652344 187.960938 C 87.472656 186.523438 82.734375 189.96875 83.304688 185.839844 C 83.648438 183.359375 94.503906 180.160156 94.027344 183.355469 C 93.96875 184.605469 93.566406 185.695313 96.367188 185.507813 C 99.539063 185.296875 104.652344 182.046875 103.824219 185.722656 Z M 110.378906 174.59375 C 106.921875 174.941406 95.753906 180.898438 94.351563 180.050781 C 89.132813 175.984375 78.726563 177.214844 76.480469 173.332031 C 76.121094 169.496094 91.703125 173.59375 94.472656 174.214844 C 99.203125 175.085938 94.488281 169.785156 97.777344 171.3125 C 102.660156 172.21875 104.914063 173.445313 109.902344 172.226563 C 112.332031 171.621094 113.296875 174.792969 110.378906 174.59375 Z M 110.730469 162.8125 C 109.839844 163.316406 108.898438 163.664063 107.960938 163.925781 C 105.488281 162.953125 102.578125 162 99.660156 161.316406 C 98.722656 161.097656 98.839844 160.304688 99.351563 159.96875 C 100.273438 159.363281 100.679688 158.804688 103.339844 159.851563 C 108.351563 161.824219 104.992188 157.851563 109.394531 156.179688 C 113.800781 154.503906 114.597656 160.628906 110.730469 162.8125 Z M 120.414063 126.878906 C 120.101563 127.070313 119.394531 127.265625 118.003906 126.386719 C 116.324219 125.269531 118.363281 122.136719 120.359375 123.816406 C 121.386719 124.347656 120.261719 125.160156 121.730469 125.734375 C 123.199219 126.308594 124.609375 125.625 126.0625 127.867188 C 127.03125 129.359375 121.503906 126.265625 120.414063 126.878906 Z M 126.996094 119.941406 C 127.617188 120.445313 127.132813 120.71875 126.878906 120.71875 C 125.585938 120.714844 123.40625 118.648438 122.601563 119.464844 C 121.515625 120.820313 121.246094 118.65625 119.726563 119.492188 C 117.582031 120.53125 119.429688 117.730469 119.746094 117.292969 C 120.496094 115.867188 120.925781 116.566406 121.15625 117.777344 C 121.308594 118.839844 123.96875 117.984375 124.589844 117.480469 C 125.511719 116.800781 125.25 119.117188 126.996094 119.941406 Z M 117.042969 107.75 C 117.808594 107.964844 118.71875 108.742188 119.28125 108.941406 C 120.015625 109.316406 119.210938 109.882813 120.257813 110.285156 C 121.308594 110.6875 123.992188 111.058594 122.886719 112.402344 C 122.089844 113.371094 120.019531 110.984375 119.238281 111.414063 C 119.015625 111.550781 118.039063 112.367188 117.046875 111.753906 C 115.847656 110.96875 115.0625 107.789063 117.042969 107.75 Z M 137.410156 192.664063 C 134.089844 192.441406 129.660156 189.84375 126.230469 189.800781 C 124.328125 192.292969 122.417969 189.515625 118.710938 189.941406 C 114.289063 190.695313 113.789063 185.554688 115.992188 186.847656 C 116.683594 186.722656 117.273438 186.355469 117.328125 185.613281 C 118.328125 182.933594 119.882813 184.382813 121.261719 186.804688 C 124.597656 186.652344 129.964844 189.734375 131.234375 188.851563 C 133.144531 187.660156 135.335938 190.816406 137.648438 192.035156 C 138.160156 192.304688 138.054688 192.707031 137.410156 192.664063 Z M 139.929688 186.507813 C 138.644531 188.164063 135.054688 184.832031 134.160156 185.210938 C 133.785156 185.4375 132.894531 185.839844 132.484375 185.929688 C 131.511719 186.234375 129.738281 183.980469 131.492188 183.847656 C 132.789063 183.75 128.816406 180.363281 132.117188 180.296875 C 133.394531 180.652344 134.355469 182.59375 135.296875 182.925781 C 136.519531 183.546875 135.179688 184.492188 136.925781 185.164063 C 138.675781 185.835938 141.210938 184.851563 139.929688 186.507813 Z M 404.902344 266.96875 C 406.152344 266.941406 407.398438 266.910156 408.640625 266.882813 C 407.273438 271.21875 405.953125 275.542969 404.136719 279.589844 C 403.90625 280.101563 403.488281 280.199219 403.554688 279.5 C 403.796875 276.878906 404.328125 272.125 404.902344 266.96875 Z M 401.964844 267.035156 C 402.554688 267.023438 403.144531 267.007813 403.730469 266.996094 C 403.242188 270.246094 402.796875 272.921875 402.484375 274.050781 C 402.289063 275.0625 401.945313 274.699219 401.945313 274.167969 C 401.9375 271.789063 401.949219 269.414063 401.964844 267.035156 Z M 400.789063 267.0625 C 400.566406 269.515625 400.253906 271.941406 399.761719 274.296875 C 399.65625 274.808594 399.304688 274.8125 399.242188 274.3125 C 398.949219 271.894531 398.589844 269.496094 398.140625 267.121094 C 399.023438 267.101563 399.90625 267.082031 400.789063 267.0625 Z M 215.339844 222.5625 L 215.351563 226.195313 L 214.0625 226.195313 L 214.050781 222.199219 Z M 394.300781 285.3125 C 393.660156 281.03125 392.058594 273.039063 391.507813 271.097656 C 392.742188 270.835938 393.128906 270.695313 393.433594 271.585938 C 393.851563 273.878906 394.148438 276.511719 394.5625 278.804688 C 394.703125 281.632813 394.792969 283.703125 394.839844 285.152344 C 395.339844 289.335938 394.605469 289.019531 394.300781 285.3125 Z M 396.777344 267.148438 C 397.136719 270 397.320313 272.847656 397.207031 275.65625 C 397.1875 276.113281 396.664063 276.296875 396.503906 275.851563 C 395.371094 272.738281 396.113281 267.367188 390.984375 268.152344 C 390.882813 267.863281 390.800781 267.570313 390.710938 267.277344 C 392.734375 267.234375 394.757813 267.195313 396.777344 267.148438 Z M 178.355469 226.414063 C 182.484375 228.132813 187.554688 229.144531 191.277344 231.878906 C 188.089844 233.125 190.105469 235.652344 190.765625 236.535156 C 184.128906 236.570313 186.105469 238.878906 190.949219 238.550781 C 195.566406 238.109375 195.238281 239.871094 199.710938 240.164063 C 202.902344 240.3125 200.113281 236.9375 204.625 239.285156 C 211.519531 241.996094 214.046875 239.101563 219.070313 238.769531 C 220.0625 241.300781 247.304688 254.390625 254.746094 252.996094 C 266.984375 251.128906 305.296875 268.453125 317.375 269.277344 C 328.824219 272.441406 355.867188 267.988281 389.910156 267.292969 C 389.949219 267.652344 389.992188 268.003906 390.023438 268.367188 C 388.128906 268.945313 386.714844 270.183594 385.5 271.554688 C 385.210938 271.882813 385.324219 272.203125 385.660156 272.027344 C 387.070313 271.292969 388.597656 271.074219 390.179688 271.128906 C 391.210938 275.835938 392.140625 280.226563 392.390625 285.085938 C 392.414063 285.507813 392.1875 286.09375 391.871094 285.449219 C 390.464844 282.984375 389.46875 279.601563 387.792969 276.660156 C 387.535156 276.203125 387.222656 276.332031 387.371094 276.828125 C 388.371094 280.089844 389.902344 283.160156 390.449219 286.480469 C 390.5 286.789063 390.1875 287.113281 390 286.957031 C 385.71875 283.476563 382.257813 278.011719 378.023438 274.066406 C 377.503906 273.585938 377.265625 273.71875 377.703125 274.257813 C 381.683594 279.164063 386.515625 285.382813 388.300781 291.34375 C 388.574219 292.125 388.1875 292.28125 387.953125 292.0625 C 384.34375 288.683594 380.769531 284.710938 377.558594 280.726563 C 377.054688 280.105469 376.925781 280.242188 377.355469 280.933594 C 380.085938 285.304688 383.003906 289.707031 385.355469 293.949219 C 385.488281 294.1875 385.019531 294.621094 384.839844 294.46875 C 381.964844 292.058594 379.242188 288.621094 377.617188 285.359375 C 376.625 283.558594 376.46875 284.503906 377.007813 285.335938 C 377.175781 285.667969 377.519531 286.273438 377.882813 286.925781 C 379.0625 289.042969 380.441406 291.667969 376.648438 287.183594 C 374.722656 284.847656 372.753906 282.5 370.816406 280.125 C 370.253906 279.433594 370.015625 279.53125 370.464844 280.277344 C 373.25 284.925781 376.242188 289.609375 379.503906 293.996094 C 379.828125 294.515625 379.191406 295.667969 377.847656 294.289063 C 373.539063 288.808594 364.746094 279.925781 364.117188 279.25 C 362.664063 277.683594 362.402344 278.929688 363.285156 279.707031 C 363.832031 280.191406 369.753906 287.128906 372.566406 290.984375 C 372.867188 291.402344 373.105469 292.050781 372.132813 291.296875 C 368.066406 287.46875 358.390625 278.488281 355.378906 276.378906 C 354.347656 275.605469 354.136719 275.824219 355.101563 276.664063 C 362.035156 282.710938 369.09375 288.867188 374.558594 296.480469 C 375.238281 297.429688 374.324219 298.152344 373.527344 297.382813 C 367.507813 290.964844 361.90625 283.804688 355.09375 278.660156 C 354.601563 278.289063 354.449219 278.542969 354.886719 279.007813 C 357.445313 281.71875 362.074219 286.152344 362.839844 286.957031 C 363.941406 288.113281 363.125 287.988281 362.332031 287.566406 C 361.539063 287.140625 353.40625 284.664063 349.796875 284.707031 C 349.25 284.714844 349.160156 284.761719 349.6875 285.085938 C 350.636719 285.671875 351.617188 286.726563 352.46875 287.300781 C 351.359375 287.503906 351.128906 287.640625 350.316406 288.015625 C 349.097656 287.285156 347.765625 286.367188 346.492188 285.453125 C 346.019531 285.113281 345.738281 285.441406 346.300781 285.84375 C 347.234375 286.523438 348.789063 287.597656 349.730469 288.328125 C 349.246094 288.632813 348.585938 289.058594 348.183594 289.402344 C 347.640625 289.777344 347.566406 290.320313 348.402344 289.964844 C 349.511719 289.6875 349.921875 289.34375 350.882813 289.109375 C 352.472656 290.253906 360.128906 296.445313 364.914063 299.425781 C 367.292969 300.902344 365.503906 301.632813 364.84375 301.238281 C 364.179688 300.84375 358.828125 296.15625 356.105469 294.25 C 355.398438 293.660156 354.652344 293.429688 355.703125 294.429688 C 357.335938 295.976563 360.546875 299.816406 361.402344 301.222656 C 362.253906 302.628906 360.378906 302.460938 358.851563 301.351563 C 357.320313 300.238281 355.148438 297.742188 353.476563 295.691406 C 352.886719 294.878906 352.175781 294.90625 353.089844 296.039063 C 353.738281 297.070313 354.925781 298.148438 354.761719 298.902344 C 354.707031 299.15625 354.25 299.730469 353.523438 299.066406 C 351.355469 297.140625 349.277344 294.503906 347.070313 292.257813 C 346.65625 291.835938 346.386719 292.046875 346.75 292.542969 C 348.558594 295.007813 351.40625 297.332031 351.949219 299.957031 C 352.132813 300.550781 351.765625 300.878906 351.28125 300.320313 C 348.035156 296.882813 344.921875 293.160156 341.628906 289.703125 C 340.8125 288.847656 340.613281 289.007813 341.390625 289.945313 C 344.519531 293.695313 349.617188 302.207031 349.605469 302.953125 C 349.6875 303.539063 349.3125 303.972656 348.46875 303.1875 C 347.375 302.183594 346.324219 301.105469 345.332031 299.933594 C 344.738281 299.226563 344.367188 299.457031 344.828125 300.09375 C 345.542969 301.074219 346.292969 301.777344 346.582031 302.691406 C 346.683594 303.015625 346.148438 303.375 345.871094 303.164063 C 344.113281 301.832031 342.023438 300.296875 340.546875 298.355469 C 339.925781 297.539063 339.324219 297.914063 340.183594 298.816406 C 340.476563 299.121094 341.699219 301.839844 343.0625 304.667969 C 318.085938 306.171875 292.5625 303.0625 281.734375 298.609375 C 260.53125 289.894531 266.628906 279.433594 243.96875 272.171875 C 238.429688 269.128906 182.664063 259.445313 176.171875 227.628906 C 175.699219 226.628906 176.996094 225.847656 178.355469 226.414063 Z M 354.0625 288.917969 C 357.039063 291.285156 362.164063 294.859375 363.386719 295.738281 C 364.605469 296.617188 363.773438 296.917969 362.9375 296.316406 C 362.277344 295.84375 355.542969 291.316406 351.859375 288.898438 C 352.414063 288.71875 353.039063 288.160156 354.0625 288.917969 Z M 351.082031 285.664063 C 350.941406 285.523438 350.25 285.066406 351.402344 285.265625 C 354.679688 285.539063 360.921875 287.796875 361.9375 288.851563 C 362.949219 289.90625 362.078125 289.652344 361.578125 289.402344 C 361.078125 289.152344 353.707031 288.226563 351.082031 285.664063 Z M 357.34375 289.828125 C 356.949219 289.582031 357.035156 289.289063 357.460938 289.40625 C 360.425781 290.234375 363.953125 293.78125 364.628906 294.484375 C 365.304688 295.1875 364.886719 295.207031 364.355469 294.839844 C 363.828125 294.476563 359.753906 291.332031 357.34375 289.828125 "/>
</g>
</svg>
