<?xml version="1.0" encoding="UTF-8"?>
<svg xmlns="http://www.w3.org/2000/svg" xmlns:xlink="http://www.w3.org/1999/xlink" width="503pt" height="502pt" viewBox="0 0 503 502" version="1.1">
<g id="surface1">
<path style=" stroke:none;fill-rule:nonzero;fill:rgb(0%,0%,0%);fill-opacity:1;" d="M 217.039063 315.359375 C 219.140625 313.507813 223.964844 307.890625 222.613281 302.699219 C 221.898438 306.324219 219.378906 313.390625 215.238281 314.632813 C 216.976563 310.488281 219.050781 305.625 217.640625 302.035156 C 217.308594 307.753906 215.652344 313.222656 212.253906 316.953125 C 213.75 310.976563 213.050781 309.625 211.484375 307.410156 C 212.601563 312.027344 211.1875 317.851563 210.097656 322.339844 C 209.105469 324.660156 210.351563 319.125 206.121094 315.960938 C 208.722656 321.066406 210.398438 333.925781 204.601563 335.125 C 206.835938 330.898438 205.789063 324.164063 204.132813 319.9375 C 205.042969 325.40625 204.601563 333.976563 201.5625 340.074219 C 207.945313 337.257813 211.921875 329.964844 211.507813 322.921875 C 211.828125 319.601563 214.605469 317.507813 217.039063 315.359375 "/>
<path style=" stroke:none;fill-rule:nonzero;fill:rgb(0%,0%,0%);fill-opacity:1;" d="M 251.5 0.929688 C 113.152344 0.929688 0.992188 113.089844 0.992188 251.4375 C 0.992188 389.785156 113.152344 501.945313 251.5 501.945313 C 389.847656 501.945313 502.007813 389.785156 502.007813 251.4375 C 502.007813 113.089844 389.847656 0.929688 251.5 0.929688 Z M 251.5 496.933594 C 115.917969 496.933594 6.003906 387.019531 6.003906 251.4375 C 6.003906 115.855469 115.917969 5.941406 251.5 5.941406 C 387.082031 5.941406 496.996094 115.855469 496.996094 251.4375 C 496.996094 387.019531 387.082031 496.933594 251.5 496.933594 "/>
<path style=" stroke:none;fill-rule:nonzero;fill:rgb(0%,0%,0%);fill-opacity:1;" d="M 462.289063 284.214844 C 454.160156 281.851563 446.566406 276.328125 438.601563 275.074219 C 428.988281 273.152344 425.855469 268.078125 422.242188 265.8125 C 415.570313 261.628906 411.960938 261.429688 400.546875 260.859375 C 394.058594 260.535156 391.46875 260.550781 388.054688 258.519531 C 384.878906 256.632813 384.132813 252.082031 382.746094 248.605469 C 382.0625 246.886719 383.429688 244.953125 384.542969 244.605469 C 388.9375 245.0625 390.777344 250.226563 391.382813 251.160156 C 391.941406 252.027344 392.535156 252.867188 393.492188 253.308594 C 394.152344 253.488281 395.324219 252.722656 396.902344 251.773438 C 402.683594 248.296875 406.851563 252.367188 407.546875 254.902344 C 407.90625 256.207031 407.550781 257.828125 408.824219 258.941406 C 410.878906 260.550781 412.457031 257.007813 413.425781 258.449219 C 414.671875 260.4375 416.78125 258.941406 418.519531 259.109375 C 421.675781 259.386719 421.835938 261.179688 423.078125 262.921875 C 426.0625 267.5625 424.488281 259.125 428.503906 260.550781 C 430.90625 261.546875 431.777344 266.402344 432.691406 268.640625 C 433.226563 269.773438 435.8125 267.449219 436.007813 269.632813 C 436.390625 271.316406 437.640625 272.386719 439.152344 273.261719 C 440.25 273.894531 449.195313 278.484375 452.914063 277.808594 C 455.171875 277.398438 455.136719 277.152344 452.839844 276.855469 C 447.210938 276.125 442.011719 274.492188 437.519531 268.96875 C 436.511719 267.730469 435.851563 266.140625 433.851563 266.484375 C 432.402344 266.886719 432.589844 264.867188 432.292969 263.71875 C 430.796875 257.898438 426.699219 257.078125 425.316406 259.273438 C 424.425781 260.78125 423.4375 261.488281 422.417969 260.117188 C 420.476563 257.285156 418.203125 257.617188 416.507813 257.917969 C 415.886719 258.027344 415.289063 257.863281 414.699219 257.632813 C 411.277344 256.300781 412.964844 258.5625 409.527344 257.472656 C 408.464844 257.132813 409.316406 255.710938 408.824219 254.550781 C 406.203125 249.175781 401.222656 247.480469 395.484375 251.640625 C 394.429688 252.402344 392.746094 252.085938 392.664063 250.574219 C 392.285156 248.148438 388.417969 244.195313 385.5625 243.824219 C 384.847656 243.730469 384.460938 243.78125 385.121094 242.617188 C 392.039063 235.15625 395.398438 220.757813 388.519531 211.539063 C 388.4375 208.0625 388.6875 204.664063 388.273438 201.015625 C 392.496094 202.34375 395.980469 200.4375 398.632813 198.28125 C 405.140625 203.667969 420.003906 203.191406 424.734375 195.050781 C 427.867188 196.230469 431.386719 196.234375 434.652344 195.375 C 446.347656 192.296875 445.101563 184.265625 432.78125 182.449219 C 430.714844 182.144531 427.570313 182.945313 425.863281 184.027344 C 424.710938 184.753906 423.367188 185.417969 420.757813 184.523438 C 415.371094 182.703125 410.769531 181.625 404.433594 182.535156 C 399.460938 183.53125 394.902344 187.675781 390.09375 184.9375 C 386.875 183.074219 383.277344 184.125 380.730469 185.519531 C 387.550781 175.050781 388.089844 161.609375 379.984375 148.308594 C 378.976563 146.203125 379.746094 142.75 381.144531 141.347656 C 386.246094 143.671875 393.484375 144.628906 395.285156 141.515625 C 396.230469 139.886719 397.492188 140.269531 398.875 140.847656 C 401.285156 141.859375 404.683594 141.726563 404.433594 138.945313 C 406.902344 137.324219 410.203125 136.273438 414.175781 137.472656 C 419.644531 139.796875 423.175781 141.523438 429.707031 142.921875 C 429.109375 143.90625 427.46875 144.132813 426.582031 144.859375 C 424.847656 146.277344 424.945313 147.292969 428.828125 146.449219 C 431.808594 145.800781 430.601563 143.773438 436.003906 142.648438 C 440.128906 141.824219 441.558594 143.753906 443.214844 144.910156 C 445.601563 143.632813 448.4375 143.660156 451.09375 144.222656 C 459.257813 145.945313 459.066406 150.78125 449.875 151.136719 C 448.117188 151.203125 446.363281 151.011719 444.625 150.546875 C 438.058594 149.191406 424.257813 148.4375 415.996094 151.972656 C 411.519531 153.890625 411.554688 153.300781 406.792969 151.609375 C 404.414063 150.769531 402.070313 150.203125 399.460938 151.875 C 394.078125 156.71875 390.605469 154.667969 386.804688 154.515625 C 384.285156 154.414063 383.894531 155.375 385.914063 156.109375 C 390.15625 157.648438 395.238281 157.039063 399.046875 154.277344 C 406.152344 150.074219 407.726563 157.574219 412.96875 155.269531 C 420.261719 151.542969 432.777344 149.925781 438.410156 151.292969 C 445.191406 153.230469 452.945313 153.164063 457.886719 151.160156 C 464.839844 148.335938 460.847656 145.15625 451.25 142.199219 C 448.332031 141.300781 444.925781 141.296875 442.222656 142.59375 C 442.003906 140.550781 436.261719 140.71875 434.878906 141.15625 C 428.527344 143.164063 422.992188 137.828125 413.960938 135.960938 C 411.1875 134.886719 406.417969 135.433594 402.027344 138.613281 C 400.753906 137.925781 397.273438 137.96875 396.789063 138.117188 C 394.847656 138.710938 393.890625 141.695313 391.503906 141.765625 C 387.539063 141.84375 384.367188 138.53125 380.441406 140.066406 C 372.109375 121.507813 369.984375 123.664063 360.859375 112.867188 C 359.910156 111.746094 359.171875 110.480469 358.535156 109.230469 C 358.070313 108.316406 358.824219 112.574219 357.113281 114.914063 C 355.894531 116.21875 354.695313 117.523438 353.558594 118.847656 C 347.15625 126.289063 346.085938 131.769531 346.269531 136.945313 C 346.414063 141.105469 341.0625 145.175781 338.125 150.597656 C 329.199219 153.300781 326.78125 149.71875 325.453125 148.308594 C 325.453125 148.308594 317.992188 154.847656 311.285156 153.761719 C 304.816406 152.71875 303.621094 145.835938 309.964844 145.734375 C 311.085938 145.714844 317.824219 146.097656 320.050781 143.925781 C 325.46875 138.632813 329.609375 139.617188 333.578125 143.585938 C 335.726563 140.550781 340.207031 138.199219 343.9375 137.953125 C 344.351563 137.289063 344.269531 136.789063 343.769531 136.210938 C 339.957031 135.960938 335.980469 137.535156 333.992188 141.183594 C 332.085938 139.195313 324.25 136.875 318.035156 143.542969 C 316.019531 143.285156 313.933594 142.957031 311.949219 143.027344 C 301.058594 143.402344 300.355469 154.546875 312.023438 155.285156 C 315.921875 155.53125 321.90625 154.191406 324.625 151.425781 C 327.550781 154.347656 333.164063 153.863281 335.398438 153.117188 C 332.113281 156.816406 330.84375 162.890625 331.070313 168.558594 C 318.960938 160.253906 304.367188 155.390625 288.648438 155.390625 C 263.929688 155.390625 241.976563 167.386719 228.125 185.953125 C 227.382813 182.722656 227.371094 176.414063 227.292969 176.148438 C 227.035156 175.28125 226.382813 174.894531 225.402344 174.855469 C 225.109375 174.847656 221.953125 174.914063 221.3125 174.976563 C 220.121094 175.089844 219.085938 174.636719 218.78125 176.363281 C 218.34375 178.839844 219.117188 181.664063 218.960938 184.199219 C 218.898438 185.148438 218.972656 185.8125 218.257813 184.808594 C 210.882813 174.472656 191.445313 151.683594 190.550781 150.5625 C 183.902344 142.234375 182.941406 145.378906 177.738281 150.710938 C 169.230469 159.429688 161.289063 168.265625 152.421875 175.988281 C 137.753906 187.34375 124.492188 201.429688 110.238281 213.199219 C 105.351563 217.257813 99.546875 222.398438 96.316406 228.445313 C 92.25 236.125 102.28125 232.671875 105.265625 234.660156 C 106.261719 245.683594 105.597656 255.960938 105.597656 267.761719 C 105.746094 269.960938 105.246094 270.523438 104.519531 268.558594 C 102.230469 261.003906 94.300781 260.222656 90.613281 264.414063 C 89.589844 265.582031 88.460938 266.53125 86.621094 265.90625 C 84.574219 265.191406 84.296875 267.613281 83.199219 269.175781 C 81.597656 271.453125 80.671875 272.503906 78.640625 269.210938 C 74.046875 259.125 65.457031 260.636719 61.503906 264.285156 C 60.695313 265.027344 59.785156 265.605469 58.527344 265.65625 C 55.097656 264.511719 51.617188 266.078125 48.625 269.71875 C 44.761719 274.414063 47.984375 272.265625 50.496094 270.074219 C 52.839844 268.035156 52.671875 266.367188 57.996094 267.675781 C 59.613281 268.421875 61.195313 267.300781 62.199219 266.324219 C 70.328125 258.449219 74.632813 266.027344 77.46875 270.296875 C 80.347656 274.628906 82.171875 273.242188 83.453125 271.820313 C 84.539063 270.625 85.238281 269.054688 86.785156 268.226563 C 88.894531 269.386719 90.199219 268.230469 91.359375 266.851563 C 95.386719 262.074219 101.601563 263.488281 101.6875 269.027344 C 101.707031 270.171875 104.199219 274.125 105.597656 272.761719 C 105.597656 277.363281 106.011719 279.570313 105.597656 283.964844 C 100.761719 281.542969 94.261719 285.503906 87.871094 286.703125 C 84.261719 287.382813 80.597656 287.597656 77.007813 286.789063 C 69.648438 284.300781 63.355469 284.152344 56.492188 285.792969 C 41.292969 289.433594 43.035156 291.070313 57.699219 287.625 C 68.917969 284.988281 76.582031 287.464844 84.796875 292.507813 C 93.042969 290.714844 99.277344 294.007813 101.429688 295.109375 C 103.746094 296.296875 104.25 296.230469 102.070313 294.5625 C 99.824219 292.839844 94.597656 290.476563 84.964844 290.101563 C 94.449219 284.773438 104.496094 283.726563 105.597656 287.164063 C 106.511719 294.703125 104.9375 304.585938 105.597656 311.964844 C 100.898438 316.726563 98.027344 313.03125 91.148438 317.175781 C 87.917969 319.984375 86.039063 322.332031 79.902344 323.644531 C 76.613281 324.351563 76.261719 324.949219 79.304688 324.578125 C 83.054688 324.125 86.527344 322.71875 89.648438 320.324219 C 92.484375 318.152344 94.75 316.125 98.597656 315.953125 C 108.636719 315.277344 115.6875 306.777344 126.847656 306.527344 C 134.199219 306.527344 142.101563 303.105469 148 299.324219 C 166.640625 287.386719 171.109375 294.554688 185.238281 287.949219 C 185.5 289.375 185.699219 290.375 186.398438 292.09375 C 180.089844 306.183594 180.640625 316.25 185.933594 322.851563 C 187.304688 324.5625 188.863281 326.054688 189.628906 328.308594 C 183.191406 339.5 182.867188 344.40625 188.601563 352.304688 C 189.621094 353.707031 190.179688 355.207031 190.605469 356.746094 C 192.628906 364.121094 196.878906 372.515625 208.117188 368.832031 C 210.070313 368.191406 212.007813 367.515625 213.910156 368.914063 C 214.40625 371.066406 214.574219 373.554688 214.492188 375.625 C 211.175781 378.195313 207.695313 375.046875 203.964844 375.625 C 197.089844 375.710938 194.105469 384.574219 186.8125 383.003906 C 183.574219 381.804688 176.097656 393.476563 168.898438 392.578125 C 162.097656 391.476563 161.605469 392.421875 167.804688 393.847656 C 171.085938 394.605469 173.59375 393.507813 175.953125 392.003906 C 177.34375 391.117188 185.097656 384.375 187.640625 385.238281 C 191.355469 386.476563 193.863281 384.023438 196.585938 381.835938 C 200.90625 378.363281 201.484375 378.410156 205.054688 379.953125 C 208.296875 381.355469 214.164063 381.578125 215.296875 377.375 C 215.699219 375.875 215.742188 374.449219 217.59375 375 C 220.535156 375.871094 220.894531 374.109375 218.054688 373.636719 C 215.898438 373.777344 213.386719 372.855469 217.792969 372.5625 C 220.5 372.375 221.878906 370.738281 217.707031 370.449219 C 214.628906 370.238281 214.246094 369.1875 217.292969 368.734375 C 218.824219 368.507813 219.101563 368.015625 217.402344 367.765625 C 213.152344 367.136719 211.820313 365.859375 211.324219 365.445313 C 209.175781 363.648438 210.378906 359.714844 209.519531 356.730469 C 208.855469 359.136719 208.191406 362.367188 209.269531 364.6875 C 204.699219 367.175781 204.949219 359.769531 205.539063 356.398438 C 203.035156 359.289063 203.558594 362.894531 205.292969 365.351563 C 204.960938 365.847656 202.550781 365.523438 202.148438 365.21875 C 199.339844 363.097656 200.898438 358.375 201.3125 355.15625 C 199.601563 357.074219 198.414063 362.117188 200.570313 365.101563 C 195.210938 364.566406 197 354.375 198.746094 348.777344 C 196 350.875 194.597656 356.175781 196.011719 363.398438 C 190.945313 362.480469 192.46875 348.035156 198.164063 337.671875 C 192.5 341.777344 192.5 345.675781 192.03125 351.757813 C 188.5 346.375 191.597656 335.277344 194.601563 330.128906 C 190.597656 334.375 187.800781 342.375 189.050781 349.769531 C 185.328125 347.445313 184.324219 337.054688 194.769531 325.324219 C 199.988281 319.191406 202.144531 310.902344 201.3125 302.285156 C 199.222656 310.078125 197.109375 322.3125 192.03125 323.914063 C 192.03125 319.6875 190.300781 317.875 195.347656 311.648438 C 188.300781 314.476563 189.546875 320.515625 190.210938 326.152344 C 183.597656 319.675781 190.5 302.074219 193.605469 298.472656 C 189.5 300.574219 186.078125 307.15625 185.652344 317.617188 C 178.738281 299.316406 193.003906 295.445313 199.160156 284.550781 C 195.515625 286.953125 192.480469 291.589844 189 294.074219 C 185.117188 285.414063 196.5 279.074219 196.589844 274.027344 C 193.773438 277.839844 189.796875 280.242188 188.386719 284.964844 C 184.300781 279.855469 191.898438 274.675781 196.199219 267.175781 C 201.242188 258.71875 205.789063 260.519531 205.539063 255.296875 C 202.523438 258.839844 197.398438 259.375 193.773438 267.894531 C 192.097656 262.875 201.398438 257.867188 202.972656 251.152344 C 200.070313 256.539063 194.519531 257.699219 193.191406 263.914063 C 190.859375 250.042969 201.996094 251.9375 202.558594 242.617188 C 201.066406 244.109375 197.003906 249 196.011719 248.75 C 197.089844 243.28125 202.226563 240.296875 204.546875 235.40625 C 201.976563 237.066406 199.1875 240.417969 196.699219 242.074219 C 196.699219 240.253906 204.464844 232.09375 205.128906 229.109375 C 203.46875 230.851563 200.355469 233.46875 198.097656 234.574219 C 198.097656 229.976563 202.5 223.273438 207.898438 216.875 C 214.550781 222.171875 219.371094 230.230469 219.753906 238.367188 C 219.863281 240.644531 218.496094 244.152344 222.066406 245.300781 C 229.09375 248.160156 231.742188 258.753906 229.085938 264.96875 C 226.378906 271.300781 221.28125 277.601563 222.199219 283.140625 C 222.582031 279.679688 224.902344 276.613281 227.125 274.097656 C 228.792969 272.203125 229.222656 271.175781 229.730469 273.96875 C 229.886719 274.8125 231.640625 277.609375 232.15625 278.226563 C 240.289063 287.941406 237.816406 294.753906 234.960938 300.710938 C 234.070313 302.5625 235.722656 304.367188 236.640625 305.851563 C 242.398438 315.199219 245.707031 324.765625 239.699219 334.375 C 236.257813 337.714844 231.761719 349.050781 235.375 350.597656 C 235.789063 346.785156 236.269531 339.800781 240 338.476563 C 251.765625 355.144531 238.242188 365.625 227.171875 364.355469 C 225.804688 364.644531 224.910156 365.472656 224.289063 366.511719 C 220.886719 372.183594 224.515625 376.332031 228.539063 378.292969 C 230.496094 379.246094 232.644531 379.78125 234.796875 378.859375 C 240.042969 375.890625 243.6875 380.886719 248.222656 382.300781 C 251.34375 383.277344 252.371094 382.753906 249.195313 381.382813 C 243.558594 378.949219 237.957031 373.566406 231.398438 377.035156 C 228.984375 378.585938 222.847656 371.253906 225.5 367.976563 C 227.074219 367.3125 229.792969 366.875 231.699219 366.875 C 246.792969 364.359375 249.632813 353.101563 242.140625 337.65625 C 241.644531 336.632813 241.632813 335.734375 242.304688 334.523438 C 248.382813 323.554688 242.589844 311.121094 238.40625 304.707031 C 237.3125 303.03125 236.699219 301.894531 238.113281 298.679688 C 240.316406 293.671875 240.886719 284.046875 233.964844 278.417969 C 230.609375 275.621094 230 272.074219 231.132813 267.753906 C 233.300781 260.574219 231.871094 250.160156 222.953125 243.539063 C 221.972656 242.808594 221.144531 242.046875 221.566406 239.4375 C 223.144531 229.714844 212.109375 218.054688 206.535156 213.53125 C 205.457031 213.53125 206.601563 215.273438 205.953125 216.183594 C 203.832031 220.613281 200.753906 224.660156 198.210938 228.882813 C 192.417969 238.5 193.132813 243.011719 194.195313 249.859375 C 194.253906 250.238281 193.695313 251.683594 193.46875 252.023438 C 189.363281 258.292969 190.328125 263.277344 190.878906 267.964844 C 191.0625 269.519531 190.953125 270.964844 190.257813 271.964844 C 185.5 277.273438 184.398438 282.875 185.070313 285.960938 C 178.300781 289.726563 166.015625 289.589844 165.09375 289.6875 C 151.257813 291.167969 150.980469 295.34375 141.890625 300.011719 C 138.039063 301.992188 136.394531 303.75 130.148438 303.683594 C 125.335938 303.632813 123.347656 304.367188 119.207031 306.09375 C 115.902344 307.46875 111.941406 309.25 110.117188 308.449219 C 109.464844 308.164063 108.898438 304.023438 109.148438 303.972656 C 111.660156 303.863281 119.25 304.6875 120.597656 302.476563 C 118.789063 302.535156 109.523438 303.65625 109.109375 302.664063 C 108.863281 301.917969 108.679688 300.511719 109.261719 299.851563 C 111.058594 299.101563 119.632813 300.664063 120.472656 298.613281 C 118.402344 298.695313 110.871094 298.648438 109.003906 298.238281 C 109.003906 297.96875 108.714844 296.496094 109.375 296.289063 C 110.394531 295.96875 118.996094 296.804688 121.898438 294.898438 C 118.003906 295.398438 112.964844 294.828125 108.988281 294.742188 C 109.191406 294.273438 108.671875 292.347656 109.484375 292.238281 C 109.675781 292.214844 119.191406 292.351563 120.597656 290.773438 C 118.773438 290.773438 110.769531 290.613281 109.1875 289.832031 C 108.765625 289.625 108.789063 287.800781 109.222656 287.699219 C 112.371094 286.964844 117.929688 287.792969 120.433594 286.125 C 118.171875 285.890625 112.160156 285.585938 109.109375 285.894531 C 108.917969 285.914063 108.894531 284.953125 109.070313 284.882813 C 111.890625 283.722656 117.679688 284.949219 120.019531 283.390625 C 117.6875 283.390625 111.855469 282.445313 109.085938 283.347656 C 108.917969 283.402344 108.445313 281.355469 109.003906 280.578125 C 109.0625 280.503906 119.078125 280.933594 121.261719 279 C 118.355469 279.15625 112.472656 278.273438 109.109375 278.742188 C 108.925781 278.765625 108.703125 275.898438 108.949219 275.855469 C 112.691406 275.183594 119.21875 276.332031 122.171875 274.855469 C 119.144531 274.855469 112.648438 273.558594 109.109375 274.464844 C 108.875 274.523438 108.753906 271.359375 109.1875 271.347656 C 112.808594 271.21875 118.566406 272.480469 121.011719 270.628906 C 119.386719 270.222656 111.410156 270.277344 109.003906 270.074219 C 108.957031 270.070313 109.109375 268.4375 109.148438 268.433594 C 112.648438 268.296875 118.089844 269.113281 120.183594 267.230469 C 118.710938 267.394531 111.40625 266.921875 109.1875 266.871094 C 109.160156 266.871094 109.15625 264.855469 109.21875 264.847656 C 112.226563 264.539063 118.339844 264.511719 119.949219 263.4375 C 117.644531 263.234375 112.550781 263.515625 109.1875 263.308594 C 108.703125 263.28125 108.882813 261.804688 109.261719 261.820313 C 113.320313 262.007813 116.796875 262.375 119 260.574219 C 115.265625 260.277344 112.300781 260.867188 109.074219 260.253906 C 108.722656 260.1875 108.523438 257.910156 109.109375 257.851563 C 112.785156 258.410156 118.855469 257.160156 119.046875 256.910156 C 119.433594 256.410156 112.175781 257.339844 109.394531 256.078125 C 109.320313 256.046875 108.84375 252.84375 109.261719 252.824219 C 111.34375 252.179688 119.023438 253.472656 120.097656 252.074219 C 117.945313 251.328125 111.386719 251.453125 109.148438 251.285156 C 109.003906 250.726563 109.003906 249.75 109.109375 249 C 111.546875 249.074219 119.421875 248.675781 119.421875 247.761719 C 116.867188 247.84375 111.703125 247.609375 109.109375 247.960938 C 109.011719 247.976563 109.011719 244.441406 109.179688 244.394531 C 109.871094 244.207031 118.664063 244.558594 119.160156 243.148438 C 116.546875 243.476563 111.867188 242.5625 109.195313 243.328125 C 109.15625 243.339844 108.640625 240.441406 109.066406 240.40625 C 111.59375 240.191406 117.027344 240.835938 119.085938 239.699219 C 117.921875 238.6875 110.421875 239.382813 109.074219 239.238281 C 108.304688 239.15625 109.027344 237.179688 109.183594 237.203125 C 112.054688 237.671875 118.585938 236.769531 118.9375 236.699219 C 117.691406 236.203125 110.375 235.847656 109.074219 235.769531 C 108.394531 235.726563 108.667969 234.054688 109.113281 234.140625 C 111.230469 234.554688 118.375 234.191406 118.375 233.585938 C 115.988281 232.925781 112.214844 232.683594 109.1875 232.65625 C 108.847656 232.652344 108.757813 231.867188 109.066406 231.835938 C 110.015625 231.746094 112.636719 232.054688 113.535156 231.488281 C 111.878906 231.570313 109.113281 229.730469 108.285156 228.488281 C 109.003906 227.515625 110.144531 226.457031 110.230469 226.542969 C 111.171875 228.035156 113.394531 229.359375 114.4375 229.199219 C 115.597656 229.019531 111.347656 227.277344 111.203125 225.863281 C 111.179688 225.660156 112.359375 224.230469 112.898438 224.242188 C 113.722656 224.773438 115.710938 226.761719 118.109375 226.5 C 116.6875 225.636719 114.820313 224.085938 113.992188 223.15625 C 113.945313 223.101563 115.984375 220.949219 116.121094 221.0625 C 117.027344 221.800781 120.355469 223.8125 121.074219 223.3125 C 119.410156 222.90625 117.558594 220.0625 117.960938 219.261719 C 118.324219 218.535156 119.636719 217.671875 120.332031 217.097656 C 120.4375 217.011719 123.378906 220.324219 124.785156 219.410156 C 123.910156 218.78125 122.027344 216.570313 122.085938 215.660156 C 122.125 215.023438 122.953125 214.492188 123.8125 214.011719 C 124.390625 213.929688 125.609375 216.375 128.160156 216.335938 C 127.035156 215.0625 124.746094 213.453125 124.949219 212.640625 C 125.863281 211.3125 126.160156 211.203125 127.484375 210.375 C 128.011719 211.351563 128.835938 211.988281 131.011719 212.023438 C 129.925781 211.238281 129.214844 210.132813 128.71875 208.972656 C 129.464844 208.0625 130.707031 207.3125 131.535156 206.570313 C 132.625 207.410156 134.074219 208.027344 135.398438 207.863281 C 134.488281 207.363281 133.609375 206.402344 132.945313 205.410156 C 134.105469 204.496094 134.765625 203.238281 135.925781 202.574219 C 136.636719 203.550781 138.828125 204.082031 140.320313 204 C 139.109375 203.101563 137.960938 202.023438 137.050781 201.523438 C 137.949219 200.25 138.949219 199.351563 140.273438 198.523438 C 141.683594 199.1875 142.289063 200.015625 143.949219 200.101563 C 143.949219 199.519531 140.960938 197.90625 142.035156 196.910156 C 142.761719 196.085938 143.347656 195.503906 143.90625 195.25 C 144.746094 194.867188 146.425781 197.324219 148.035156 196.125 C 146.304688 195.761719 145.9375 194.625 145.210938 193.714844 C 146.535156 192.71875 146.890625 191.945313 148.300781 190.949219 C 149.375 191.859375 151.082031 192.429688 152.574219 192.261719 C 151.246094 191.597656 150.523438 190.910156 149.609375 189.75 C 150.6875 188.507813 151.671875 188.171875 152.5 187.011719 C 153.90625 187.757813 155.378906 188.898438 157.035156 188.398438 C 156.375 187.820313 153.742188 186.21875 153.886719 185.738281 C 154.179688 184.765625 156.328125 183.851563 156.660156 183.074219 C 157.738281 184.234375 158.160156 185.023438 160.335938 184.835938 C 159.8125 183.824219 158.472656 183.492188 157.5625 182.25 C 158.613281 181.273438 158.949219 180.578125 159.550781 180.523438 C 160.675781 180.972656 162.144531 182.496094 163.898438 181.5 C 162.738281 180.917969 161.585938 180.371094 161.085938 179.210938 C 161.769531 178.574219 162.589844 177.3125 163.433594 176.789063 C 164.128906 176.359375 165.925781 178.347656 167.050781 178.21875 C 167.941406 178.289063 165.679688 176.195313 164.835938 175.613281 C 165.554688 174.785156 166.421875 173.429688 167.507813 173.222656 C 168.054688 173.117188 171.398438 174.996094 171.316406 173.753906 C 170.902344 173.667969 168.679688 172.300781 169.019531 171.683594 C 169.441406 170.917969 170.601563 170.128906 171.148438 169.441406 C 172.394531 169.277344 173.882813 170.4375 175.292969 170.023438 C 174.214844 169.773438 173.222656 168.945313 172.722656 168.035156 C 173.773438 167.507813 175.078125 165.816406 175.148438 165.863281 C 175.699219 166.210938 177.472656 166.835938 178.078125 166.886719 C 178.988281 166.984375 177.085938 165.585938 176.320313 164.722656 C 176.207031 164.59375 178.234375 162.332031 178.757813 162.5 C 179.828125 162.847656 181 163.492188 181.839844 163.226563 C 181.246094 162.765625 180.394531 162.148438 179.738281 161.542969 C 179.566406 161.382813 180.664063 159.496094 181.519531 159.910156 C 182.382813 160.335938 183.324219 161.117188 184.242188 160.824219 C 183.617188 160.199219 182.9375 159.691406 182.390625 158.960938 C 182.285156 158.816406 183.433594 157.628906 184.261719 157.460938 C 191.804688 164.503906 196.757813 173.753906 203.304688 181.542969 C 215.238281 195.796875 227.171875 211.210938 240.511719 224.71875 C 243.496094 227.699219 247.472656 229.691406 249.464844 233.835938 C 250.953125 242.785156 249.601563 252.976563 249.601563 262.425781 C 243.5 267.074219 241 268.574219 234.152344 270.53125 C 231.203125 271.371094 232.460938 273.179688 235.800781 272.175781 C 245.742188 269.1875 273.464844 253.0625 282.585938 248.84375 C 304.589844 238.664063 317.554688 242.214844 326.394531 244.695313 C 328.277344 245.222656 329.703125 246.273438 329.847656 248.75 C 318.34375 262.121094 334.527344 273.152344 340.914063 272.28125 C 341.933594 272.140625 342.972656 271.925781 344.015625 271.84375 C 344.59375 271.800781 346.121094 272.402344 346.375 272.792969 C 347.363281 274.320313 349.214844 276.773438 353.601563 275.976563 C 353.765625 277.714844 355.496094 280.882813 354.5 282.375 C 352.402344 285.949219 350.707031 285.1875 349.117188 284.015625 C 347.1875 282.589844 339.914063 281.71875 336.699219 285.574219 C 327.222656 286.175781 323.847656 287.859375 319.214844 293.203125 C 317.019531 295.734375 314.667969 297.066406 312.09375 297.949219 C 309.492188 298.84375 309.457031 299.230469 312.101563 298.671875 C 316.589844 297.722656 320.148438 295.105469 323.300781 291.761719 C 329.113281 286.09375 333.609375 290.421875 340.628906 286.832031 C 343.480469 285.375 346.511719 284.78125 349.488281 286.789063 C 352.5 289.375 355.902344 287.574219 356.117188 284.550781 C 356.449219 281.402344 356.613281 276.761719 353.714844 274.441406 C 349.074219 275.433594 348.90625 269.550781 344.515625 269.882813 C 328.046875 271.527344 325.996094 257.660156 330 251.875 C 331.300781 250.074219 332.003906 248.921875 331.40625 247.925781 C 328.257813 241.128906 331.425781 233.59375 333.902344 230.476563 C 336.601563 226.574219 336.703125 220.496094 335.566406 220.738281 C 335.316406 222.191406 335.125 223.847656 334.734375 225.183594 C 334.167969 227.113281 333.101563 228.835938 331.117188 225.367188 C 326.636719 217.546875 325.359375 204.898438 333.101563 200.273438 C 336.914063 197.703125 334.984375 196.042969 334.570313 192.316406 C 333.824219 185.355469 343.9375 182.121094 341.367188 174.746094 C 340.597656 176.914063 339.515625 179.28125 338.097656 181.308594 C 331 174.25 331.515625 159.398438 340.21875 154.039063 C 341.867188 153.027344 342.203125 152.402344 342.585938 150.683594 C 343.328125 147.347656 343.164063 142.914063 346.152344 141.523438 C 347.050781 143.175781 348.101563 144.375 351.144531 145.574219 C 346.75 138.222656 347.175781 132.230469 352.539063 125.160156 C 354.824219 122.148438 357.5625 119.429688 358.601563 115.574219 C 359.328125 112.871094 359.269531 112.800781 360.996094 115.308594 C 361.296875 115.742188 369.714844 124.558594 371.949219 127.875 C 370.152344 126.675781 368.652344 125.023438 365.199219 124.273438 C 369.402344 127.125 382.339844 139.476563 377.167969 142.921875 C 374.847656 138.199219 371.035156 134.386719 366.644531 131.238281 C 368.113281 134.121094 370.753906 136.253906 372.847656 138.703125 C 375.210938 141.472656 381.539063 151.09375 382.96875 159.085938 C 380.066406 153.78125 375.511719 149.054688 372.027344 145.160156 C 375.382813 152.324219 377.972656 151.261719 380.941406 158.707031 C 382.308594 162.128906 382.894531 165.722656 383.496094 169.523438 C 383.867188 171.886719 383.714844 178.394531 381.726563 175.742188 C 381.726563 170.453125 378.050781 157.925781 374.765625 155.519531 C 376.171875 157.839844 380.894531 172.675781 379.320313 178.722656 C 376.585938 173.335938 375.351563 167.023438 373.355469 161.488281 C 373.355469 165.144531 374.777344 170.890625 376.902344 177.074219 C 378.320313 181.203125 379.839844 181.960938 378.160156 185.105469 C 375.511719 181.375 374.515625 176.15625 373.605469 172.011719 C 371.488281 179.464844 376.957031 189.746094 380.621094 194.109375 C 382.804688 196.703125 385.464844 199.015625 385.289063 202.257813 C 381.394531 196.042969 373.402344 192.375 370.207031 184.691406 C 370 186.222656 370.691406 187.683594 371.285156 188.960938 C 373.492188 193.691406 378.535156 196.640625 381.921875 200.855469 C 383.863281 203.277344 386.949219 206.058594 385.289063 210.214844 C 379.570313 208.226563 376.503906 202.589844 372.773438 198.28125 C 372.773438 198.28125 373.726563 204.746094 380.085938 209.050781 C 381.691406 210.140625 384.847656 211.992188 386.300781 213.578125 C 389.917969 217.523438 391.953125 220.003906 390.09375 222.3125 C 390.011719 219 387.703125 215.773438 384.957031 215.519531 C 388.753906 218.023438 391.777344 228.921875 388.933594 230.105469 C 388.023438 226.621094 387.027344 222.480469 384.292969 220.492188 C 386.808594 225.921875 388.671875 233.679688 386.117188 236.238281 C 384.789063 232.589844 385.300781 227.175781 382.140625 225.878906 C 383.464844 227.617188 384.421875 234.035156 384.5 235.273438 C 384.71875 238.636719 383.613281 242.117188 381.3125 244.359375 C 379.984375 242.121094 380.8125 239.800781 379.15625 237.644531 C 379.628906 241.066406 378.839844 245.304688 380.660156 249.191406 C 382.511719 253.140625 385.273438 256.832031 383.714844 261.511719 C 383.546875 263.003906 382.386719 262.175781 382.554688 261.097656 C 382.058594 255.378906 379.320313 249.496094 374.765625 246.347656 C 377.222656 250.273438 379.628906 254.710938 380.59375 259.355469 C 382.875 270.328125 378.347656 277.359375 376.007813 275.019531 C 377.964844 268.761719 376.902344 257.074219 372.359375 255.296875 C 376.902344 262.074219 377.421875 278.597656 370.371094 277.425781 C 372.277344 273.859375 371.101563 268.074219 367.804688 265.242188 C 369.125 267.957031 372.289063 280.085938 366.226563 277.589844 C 366.226563 274.773438 367.304688 271.539063 364.820313 269.632813 C 365.066406 273.03125 365.8125 276.761719 363.246094 279.164063 C 361.800781 280.675781 360.59375 278.914063 359.265625 278.832031 C 359.101563 281.320313 362.414063 280.40625 363.078125 282.148438 C 361.835938 282.894531 360.511719 282.394531 359.265625 282.5625 C 359.433594 284.882813 362.828125 283.886719 363.078125 285.546875 C 361.671875 286.539063 360.925781 284.632813 359.679688 284.800781 C 359.265625 286.375 361.171875 286.703125 362.085938 287.367188 C 363.945313 287.941406 365.746094 287.199219 368.007813 288.566406 C 369.023438 289.183594 375.070313 292.617188 378.5 290.375 C 385.792969 285.816406 389.515625 294.742188 397.054688 293.085938 C 401.601563 292.074219 404.03125 298.5625 408.886719 299.363281 C 412.964844 300.035156 413.359375 299.8125 409.046875 298.347656 C 406.976563 297.644531 405.03125 296.835938 403.601563 294.910156 C 400.300781 290.074219 393.503906 293.074219 389.929688 290.351563 C 387.027344 287.941406 383.378906 287.984375 379.699219 288.261719 C 373.121094 288.765625 371.089844 288.628906 367.671875 286.929688 C 364.316406 285.261719 364.546875 282.453125 367.867188 281.191406 C 370.023438 280.371094 372.398438 279.878906 372.828125 279.746094 C 376.863281 278.480469 382.101563 278.269531 381.558594 273.859375 C 380.894531 268.472656 387.359375 265.738281 386.53125 259.9375 C 389.089844 261.855469 392.132813 262.738281 395.398438 262.898438 C 407.171875 263.480469 411.070313 260.96875 421.839844 267.910156 C 425.890625 270.523438 429.699219 273.949219 434.703125 275.074219 C 438.851563 275.800781 444.132813 278.121094 449.527344 280.105469 C 453.398438 281.53125 460.179688 284.371094 462.746094 284.992188 C 464.847656 285.503906 464.53125 284.867188 462.289063 284.214844 Z M 245.320313 225.710938 C 227.585938 207.730469 214.078125 190.160156 199.324219 171.183594 C 196 167.023438 194.480469 164.796875 191.988281 161.652344 C 184.480469 152.179688 184.101563 151.519531 175.449219 160.574219 C 162.519531 174.105469 134.28125 199.109375 129.949219 203.425781 C 126.039063 207.324219 122.164063 211.265625 118.214844 215.238281 C 115.410156 218.054688 106.296875 226.574219 104.273438 229.855469 C 102.53125 230.132813 101.433594 230.144531 100.214844 230.039063 C 97.207031 229.777344 98.066406 227.84375 100.289063 226.191406 C 106.367188 221.671875 121.703125 205.832031 132.6875 196.464844 C 136.960938 192.820313 164.585938 169.15625 179.535156 152.507813 C 184.175781 147.339844 184.601563 147.449219 189.40625 152.464844 C 199.632813 163.144531 207.746094 176.035156 217.28125 186.246094 C 217.867188 186.871094 220.980469 189.511719 221.5 189.449219 C 222.753906 189.289063 224.253906 189.371094 224.019531 187.675781 C 223.523438 186.742188 221.90625 187.441406 221.269531 187.011719 C 221.058594 186.867188 220.953125 186.597656 221.039063 186.101563 C 223.449219 186.222656 223.9375 184.9375 224.019531 184.523438 C 223.339844 183.65625 221.488281 184.511719 220.816406 184.011719 C 220.59375 183.847656 220.5 183.53125 220.621094 182.949219 C 221.203125 183.613281 223.996094 182.621094 223.75 181.875 C 221.648438 181.648438 221.589844 181.640625 220.886719 180.914063 C 220.722656 180.738281 220.621094 180.445313 220.621094 179.96875 C 221.800781 180.074219 223.191406 180.628906 223.605469 179.140625 C 222.324219 178.273438 221.59375 178.671875 220.753906 178.261719 C 220.386719 178.085938 220.246094 177.660156 220.601563 176.699219 C 221.769531 177.253906 223.101563 176.832031 224.421875 176.785156 C 225.371094 176.75 225.761719 177.441406 225.746094 178.425781 C 225.660156 184.542969 225.855469 190.726563 226.695313 196.65625 C 227.152344 199.898438 227.492188 201.542969 229.699219 203.671875 C 237.648438 211.339844 244.011719 219.816406 252.996094 227.402344 C 253.179688 227.554688 254.3125 228.429688 255.25 229.429688 C 257.238281 231.558594 253.960938 234.238281 250.289063 231.84375 C 248.550781 229.855469 247.308594 227.617188 245.320313 225.710938 Z M 328.023438 242.367188 C 296.816406 231.316406 266.171875 258.789063 252.601563 260.773438 C 252.601563 256.875 252.316406 253.921875 252.25 250.824219 C 253.742188 249.335938 255.363281 247.035156 259.5 248.476563 C 260.914063 249.234375 262.601563 249.125 263 247.875 C 264.410156 244.394531 268.5625 245.632813 268.449219 242.175781 C 268.117188 239.109375 268.101563 235.023438 272.148438 234.824219 C 276.425781 234.824219 274.515625 230.128906 279.050781 228.726563 C 284.773438 226.953125 288.632813 230.652344 290.230469 236.792969 C 290.898438 239.347656 291.773438 238.234375 292.289063 237.714844 C 295.019531 234.933594 295.410156 234.886719 298.917969 236.074219 C 299.699219 236.339844 300.660156 236.03125 301.25 235.523438 C 302.773438 234.203125 304.636719 232.109375 306.953125 232.007813 C 309.785156 231.882813 313.695313 235.574219 315.648438 237.527344 C 316.484375 238.363281 317.136719 238.429688 318.207031 237.753906 C 320.335938 236.410156 320.628906 231.988281 323.800781 233.574219 C 326.949219 234.875 325.449219 227.273438 330.351563 231.425781 C 328.652344 234.476563 327.777344 238.890625 328.023438 242.367188 Z M 337.289063 182.371094 C 336.285156 183.601563 335.132813 184.648438 333.824219 185.355469 C 331.835938 186.183594 329.351563 185.933594 327.445313 187.09375 C 324.542969 188.917969 323.464844 192.148438 319.324219 190.90625 C 316.421875 190.464844 313.191406 191.402344 311.699219 194.304688 C 301.214844 193.828125 293.714844 195.878906 288.828125 201.429688 C 286.753906 204.578125 289.214844 206.84375 292.058594 206.570313 C 294.628906 206.816406 296.617188 206.238281 299.1875 205.824219 C 300.035156 205.976563 300.4375 206.636719 300.847656 207.273438 C 302.285156 209.488281 310.714844 209.667969 313.660156 207.832031 C 316.613281 205.996094 321.519531 206.980469 324.273438 206.46875 C 324.882813 206.355469 325.160156 204.664063 324.320313 204.578125 C 323.054688 204.976563 320.417969 205.253906 318.085938 205.039063 C 311.433594 204.433594 312.511719 201.304688 316.652344 199.371094 C 318.574219 198.472656 318.824219 196.824219 315.402344 197.773438 C 310.300781 200.375 310.800781 203.375 312.691406 205.574219 C 312.320313 207.066406 309.722656 207.835938 303.410156 206.816406 C 302.417969 206.152344 301.339844 205.988281 301.175781 204.578125 C 300.429688 203.75 297.777344 204 296.78125 203.835938 C 296.132813 203.746094 295.179688 203.8125 294.199219 203.835938 C 288.425781 203.960938 288.921875 201.734375 294.640625 198.761719 C 299.839844 196.0625 306.539063 196.179688 311.949219 196.871094 C 313.808594 193.789063 316.699219 192.171875 319.976563 193.132813 C 321.210938 193.496094 323 194.472656 323.632813 193.308594 C 325.703125 189.910156 329.351563 188.335938 332.582031 187.675781 C 329.972656 190.957031 334.277344 195.785156 331.292969 198.164063 C 324.175781 203.847656 323.59375 223.132813 332.121094 229.039063 C 331.371094 231.976563 328.746094 226.859375 326.617188 229.441406 C 323.550781 232.507813 319.640625 231.015625 317.902344 235.574219 C 316.601563 238.675781 312.5 232.476563 308.136719 230.683594 C 302.335938 228.613281 300.675781 236.652344 295.042969 234.414063 C 293.101563 233.476563 291.398438 238.773438 291.230469 235.820313 C 291.335938 233.328125 290.234375 231.488281 288.808594 229.867188 C 286.058594 226.753906 276.296875 225.230469 273.976563 231.738281 C 273.695313 232.527344 273.140625 232.972656 272.460938 233.285156 C 268.144531 235.277344 266.21875 237.039063 266.425781 239.574219 C 266.582031 241.480469 267.046875 243.472656 265.207031 243.613281 C 262.640625 243.363281 262.199219 247.476563 259.820313 247.011719 C 257.75 246.347656 254.304688 246.828125 252.398438 247.574219 C 252.398438 243.226563 252.765625 240.328125 252.304688 236.875 C 252.074219 235.140625 252.292969 235.371094 253.082031 235.839844 C 254.226563 236.519531 255.074219 236.226563 256.308594 235.910156 C 259.558594 235.070313 261.644531 234.199219 257.78125 230.195313 C 248.773438 220.855469 239.382813 210.90625 229.988281 201.429688 C 228.621094 197.976563 228.65625 194.753906 228.433594 190.859375 C 241.53125 171.3125 263.613281 158.148438 288.648438 158.148438 C 304.671875 158.148438 319.484375 163.734375 331.511719 172.667969 C 332.386719 177.601563 334.449219 181.589844 337.289063 182.371094 Z M 384.855469 195.027344 C 383.949219 193.464844 381.851563 190.050781 380.316406 188.503906 C 384.027344 184.875 387.445313 185.542969 391.003906 187.273438 C 392.648438 188.078125 395.34375 189.367188 398.046875 187.863281 C 406.097656 183.394531 410.019531 182.246094 422.050781 186.300781 C 425.878906 185.847656 428.359375 184.527344 430.453125 184.425781 C 440.070313 183.953125 442.996094 191.5 432.859375 192.578125 C 429.074219 192.980469 422.015625 193.226563 419.101563 189.910156 C 418.414063 190.953125 418.949219 191.71875 419.585938 192.441406 C 425.710938 199.449219 409.304688 204.601563 400.753906 196.050781 C 398.5625 194.261719 396.628906 195.300781 395.878906 196.949219 C 394.003906 200.175781 389.128906 202.375 384.855469 195.027344 "/>
<path style=" stroke:none;fill-rule:nonzero;fill:rgb(0%,0%,0%);fill-opacity:1;" d="M 151.699219 269.574219 C 152.597656 269.574219 159.972656 269.519531 162.835938 269.476563 C 165.699219 269.4375 165.410156 268.949219 165.300781 267.925781 C 165.148438 266.523438 165.300781 254.023438 165.25 251.675781 C 165.199219 249.324219 164.886719 248.964844 163.488281 249.0625 C 162.085938 249.164063 152.839844 249.046875 151.734375 249.050781 C 150.6875 249.054688 150.496094 249.332031 150.449219 250.726563 C 150.402344 252.117188 150.738281 264.410156 150.335938 266.8125 C 149.9375 269.214844 150.800781 269.574219 151.699219 269.574219 Z M 151.839844 251.269531 C 151.886719 250.707031 152.304688 250.707031 152.953125 250.707031 C 153.742188 250.707031 161.816406 250.652344 162.742188 250.707031 C 163.671875 250.765625 164.320313 250.707031 164.320313 252.003906 C 164.320313 253.296875 164.320313 266.125 164.320313 266.96875 C 164.320313 267.8125 163.8125 268.035156 162.976563 268.035156 C 162.140625 268.035156 153.882813 267.980469 152.859375 268.035156 C 151.839844 268.09375 151.886719 268.035156 151.839844 266.460938 C 151.792969 264.886719 151.792969 251.832031 151.839844 251.269531 "/>
<path style=" stroke:none;fill-rule:nonzero;fill:rgb(0%,0%,0%);fill-opacity:1;" d="M 157.199219 258.675781 C 157.648438 258.375 157.613281 252.636719 157.394531 252.199219 C 157.175781 251.761719 153.753906 251.6875 153.5 251.980469 C 153.03125 252.527344 153.183594 258.167969 153.472656 258.761719 C 153.648438 259.125 156.75 258.976563 157.199219 258.675781 "/>
<path style=" stroke:none;fill-rule:nonzero;fill:rgb(0%,0%,0%);fill-opacity:1;" d="M 157.15625 266.847656 C 157.609375 266.546875 157.574219 260.808594 157.355469 260.371094 C 157.132813 259.933594 153.710938 259.859375 153.460938 260.152344 C 152.988281 260.699219 153.140625 266.339844 153.433594 266.9375 C 153.609375 267.296875 156.707031 267.148438 157.15625 266.847656 "/>
<path style=" stroke:none;fill-rule:nonzero;fill:rgb(0%,0%,0%);fill-opacity:1;" d="M 162.675781 258.65625 C 162.96875 258.0625 163.117188 252.421875 162.648438 251.875 C 162.398438 251.582031 158.972656 251.65625 158.753906 252.09375 C 158.535156 252.527344 158.5 258.269531 158.949219 258.570313 C 159.402344 258.867188 162.5 259.019531 162.675781 258.65625 "/>
<path style=" stroke:none;fill-rule:nonzero;fill:rgb(0%,0%,0%);fill-opacity:1;" d="M 158.796875 260.265625 C 158.578125 260.699219 158.542969 266.441406 158.992188 266.742188 C 159.441406 267.039063 162.542969 267.191406 162.71875 266.828125 C 163.007813 266.234375 163.160156 260.59375 162.691406 260.046875 C 162.4375 259.753906 159.015625 259.828125 158.796875 260.265625 "/>
<path style=" stroke:none;fill-rule:nonzero;fill:rgb(0%,0%,0%);fill-opacity:1;" d="M 142.820313 269.488281 C 143.269531 269.488281 146.957031 269.429688 148.390625 269.390625 C 149.820313 269.351563 149.675781 268.863281 149.621094 267.839844 C 149.546875 266.4375 149.621094 253.9375 149.597656 251.585938 C 149.570313 249.238281 149.414063 248.875 148.714844 248.976563 C 148.015625 249.074219 143.390625 248.960938 142.839844 248.960938 C 142.3125 248.964844 142.21875 249.246094 142.195313 250.636719 C 142.171875 252.03125 142.339844 264.324219 142.140625 266.726563 C 141.9375 269.125 142.371094 269.488281 142.820313 269.488281 Z M 148.960938 265.375 C 148.960938 266.375 149.011719 268.523438 148.609375 268.523438 C 148.28125 268.523438 145.128906 268.796875 144.007813 268.671875 C 143.265625 268.589844 143.023438 268.785156 142.972656 267.675781 C 142.941406 266.914063 143.050781 265.847656 143.109375 265.226563 C 143.210938 264.175781 143.460938 264.375 143.410156 265.324219 C 143.359375 266.273438 143.410156 268.226563 143.859375 268.226563 C 144.3125 268.226563 147.109375 268.074219 147.910156 268.125 C 148.710938 268.175781 148.609375 265.976563 148.609375 265.324219 C 148.609375 264.675781 148.960938 264.375 148.960938 265.375 Z M 146.828125 254.648438 C 147.964844 254.574219 147.449219 254.863281 147.003906 255.011719 C 146.511719 255.179688 146.273438 255.714844 145.984375 255.96875 C 145.515625 256.375 144.757813 256.15625 144.78125 255.234375 C 144.792969 254.859375 144.9375 254.375 144.726563 253.960938 C 144.515625 253.539063 144.351563 252.96875 145.109375 253.824219 C 145.296875 254.035156 145.429688 254.28125 145.515625 254.523438 C 145.667969 254.28125 145.851563 254.054688 145.960938 253.921875 C 146.203125 253.628906 146.316406 253.679688 146.289063 254.097656 C 146.28125 254.273438 146.246094 254.550781 146.171875 254.8125 C 146.375 254.730469 146.59375 254.664063 146.828125 254.648438 Z M 144.734375 256.949219 C 144.886719 256.011719 145.222656 256.125 145.035156 257.023438 C 144.621094 259.019531 147.085938 260.265625 146.199219 262.726563 C 145.859375 263.660156 145.375 263.738281 145.824219 262.6875 C 146.746094 260.535156 144.324219 259.519531 144.734375 256.949219 Z M 146.125 258.9375 C 145.398438 258.929688 145.808594 257.621094 146.832031 257.121094 C 147.855469 256.617188 147.488281 257.085938 147.132813 257.390625 C 146.546875 257.894531 146.800781 258.945313 146.125 258.9375 Z M 145.074219 261.523438 C 144.398438 261.535156 144.648438 260.480469 144.066406 259.980469 C 143.710938 259.671875 143.339844 259.207031 144.363281 259.707031 C 145.390625 260.210938 145.796875 261.515625 145.074219 261.523438 Z M 143.816406 249.636719 C 144.941406 249.511719 148.097656 249.78125 148.425781 249.78125 C 148.695313 249.78125 148.761719 250.773438 148.773438 251.722656 C 148.777344 252.171875 148.4375 252.292969 148.414063 251.824219 C 148.375 251.019531 148.230469 250.152344 147.722656 250.183594 C 146.925781 250.230469 144.125 250.082031 143.675781 250.082031 C 143.417969 250.082031 143.292969 250.710938 143.238281 251.429688 C 143.199219 251.972656 142.820313 252.0625 142.792969 251.476563 C 142.78125 251.179688 142.773438 250.890625 142.785156 250.632813 C 142.835938 249.523438 143.078125 249.71875 143.816406 249.636719 "/>
<path style=" stroke:none;fill-rule:nonzero;fill:rgb(0%,0%,0%);fill-opacity:1;" d="M 167.40625 269.527344 C 168.835938 269.566406 172.523438 269.625 172.972656 269.625 C 173.425781 269.625 173.855469 269.261719 173.65625 266.863281 C 173.453125 264.464844 173.621094 252.167969 173.597656 250.773438 C 173.574219 249.382813 173.480469 249.101563 172.953125 249.101563 C 172.40625 249.097656 167.78125 249.214844 167.078125 249.113281 C 166.378906 249.011719 166.222656 249.375 166.199219 251.726563 C 166.175781 254.074219 166.25 266.574219 166.175781 267.976563 C 166.117188 269 165.972656 269.488281 167.40625 269.527344 Z M 167.398438 249.925781 C 167.726563 249.925781 170.882813 249.65625 172.003906 249.78125 C 172.742188 249.859375 172.988281 249.664063 173.035156 250.773438 C 173.046875 251.03125 173.042969 251.320313 173.027344 251.617188 C 173 252.203125 172.625 252.117188 172.585938 251.570313 C 172.53125 250.855469 172.40625 250.226563 172.148438 250.226563 C 171.699219 250.226563 168.898438 250.375 168.097656 250.324219 C 167.59375 250.292969 167.445313 251.160156 167.40625 251.96875 C 167.386719 252.4375 167.042969 252.316406 167.050781 251.867188 C 167.0625 250.914063 167.128906 249.925781 167.398438 249.925781 Z M 169.640625 262.734375 C 170.089844 263.785156 169.601563 263.710938 169.265625 262.773438 C 168.378906 260.3125 170.84375 259.066406 170.429688 257.070313 C 170.238281 256.171875 170.578125 256.058594 170.726563 256.996094 C 171.140625 259.566406 168.71875 260.578125 169.640625 262.734375 Z M 169.171875 254.144531 C 169.148438 253.726563 169.261719 253.671875 169.503906 253.96875 C 169.609375 254.101563 169.796875 254.328125 169.949219 254.570313 C 170.03125 254.328125 170.167969 254.082031 170.355469 253.871094 C 171.113281 253.015625 170.949219 253.585938 170.734375 254.007813 C 170.523438 254.421875 170.671875 254.90625 170.683594 255.28125 C 170.710938 256.203125 169.945313 256.421875 169.480469 256.015625 C 169.1875 255.761719 168.953125 255.222656 168.460938 255.058594 C 168.015625 254.910156 167.496094 254.617188 168.636719 254.695313 C 168.871094 254.710938 169.089844 254.777344 169.289063 254.859375 C 169.21875 254.597656 169.183594 254.320313 169.171875 254.144531 Z M 168.632813 257.167969 C 169.65625 257.667969 170.0625 258.972656 169.339844 258.984375 C 168.664063 258.992188 168.914063 257.941406 168.332031 257.4375 C 167.976563 257.132813 167.605469 256.664063 168.632813 257.167969 Z M 171.097656 259.753906 C 172.121094 259.253906 171.753906 259.71875 171.398438 260.023438 C 170.8125 260.527344 171.066406 261.582031 170.390625 261.570313 C 169.664063 261.5625 170.074219 260.257813 171.097656 259.753906 Z M 166.863281 265.519531 C 166.863281 264.519531 167.210938 264.816406 167.210938 265.46875 C 167.210938 266.117188 167.113281 268.316406 167.910156 268.269531 C 168.710938 268.21875 171.511719 268.367188 171.960938 268.367188 C 172.410156 268.367188 172.460938 266.417969 172.410156 265.46875 C 172.363281 264.519531 172.613281 264.316406 172.710938 265.367188 C 172.769531 265.992188 172.882813 267.054688 172.851563 267.816406 C 172.800781 268.925781 172.554688 268.730469 171.816406 268.8125 C 170.695313 268.9375 167.539063 268.667969 167.210938 268.667969 C 166.8125 268.667969 166.863281 266.519531 166.863281 265.519531 "/>
<path style=" stroke:none;fill-rule:nonzero;fill:rgb(0%,0%,0%);fill-opacity:1;" d="M 175.523438 206.125 C 176.425781 206.125 183.800781 206.066406 186.660156 206.027344 C 189.523438 205.988281 189.234375 205.5 189.125 204.476563 C 188.972656 203.074219 189.125 190.574219 189.074219 188.222656 C 189.023438 185.875 188.710938 185.511719 187.3125 185.613281 C 185.910156 185.714844 176.664063 185.59375 175.5625 185.597656 C 174.511719 185.601563 174.320313 185.882813 174.273438 187.273438 C 174.226563 188.667969 174.5625 200.960938 174.160156 203.363281 C 173.761719 205.761719 174.625 206.125 175.523438 206.125 Z M 175.664063 187.820313 C 175.710938 187.257813 176.128906 187.257813 176.777344 187.257813 C 177.566406 187.257813 185.640625 187.199219 186.570313 187.257813 C 187.496094 187.3125 188.148438 187.257813 188.148438 188.550781 C 188.148438 189.84375 188.148438 202.671875 188.148438 203.519531 C 188.148438 204.363281 187.636719 204.585938 186.800781 204.585938 C 185.964844 204.585938 177.707031 204.53125 176.6875 204.585938 C 175.664063 204.644531 175.710938 204.585938 175.664063 203.011719 C 175.617188 201.4375 175.617188 188.382813 175.664063 187.820313 "/>
<path style=" stroke:none;fill-rule:nonzero;fill:rgb(0%,0%,0%);fill-opacity:1;" d="M 181.023438 195.222656 C 181.472656 194.925781 181.4375 189.183594 181.21875 188.746094 C 181 188.3125 177.578125 188.238281 177.324219 188.53125 C 176.855469 189.078125 177.007813 194.71875 177.296875 195.3125 C 177.472656 195.675781 180.574219 195.523438 181.023438 195.222656 "/>
<path style=" stroke:none;fill-rule:nonzero;fill:rgb(0%,0%,0%);fill-opacity:1;" d="M 180.984375 203.394531 C 181.433594 203.097656 181.398438 197.355469 181.179688 196.921875 C 180.960938 196.484375 177.535156 196.410156 177.285156 196.703125 C 176.816406 197.25 176.96875 202.890625 177.257813 203.484375 C 177.433594 203.847656 180.53125 203.695313 180.984375 203.394531 "/>
<path style=" stroke:none;fill-rule:nonzero;fill:rgb(0%,0%,0%);fill-opacity:1;" d="M 186.503906 195.207031 C 186.792969 194.613281 186.945313 188.972656 186.472656 188.425781 C 186.222656 188.132813 182.800781 188.207031 182.578125 188.640625 C 182.359375 189.078125 182.324219 194.816406 182.777344 195.117188 C 183.226563 195.417969 186.324219 195.566406 186.503906 195.207031 "/>
<path style=" stroke:none;fill-rule:nonzero;fill:rgb(0%,0%,0%);fill-opacity:1;" d="M 182.621094 196.8125 C 182.402344 197.25 182.367188 202.988281 182.816406 203.289063 C 183.265625 203.589844 186.367188 203.738281 186.542969 203.378906 C 186.832031 202.785156 186.984375 197.144531 186.515625 196.597656 C 186.265625 196.304688 182.839844 196.378906 182.621094 196.8125 "/>
<path style=" stroke:none;fill-rule:nonzero;fill:rgb(0%,0%,0%);fill-opacity:1;" d="M 166.644531 206.035156 C 167.097656 206.035156 170.785156 205.980469 172.214844 205.941406 C 173.644531 205.902344 173.5 205.410156 173.445313 204.386719 C 173.371094 202.988281 173.445313 190.488281 173.421875 188.136719 C 173.394531 185.785156 173.238281 185.425781 172.539063 185.523438 C 171.839844 185.625 167.214844 185.507813 166.664063 185.511719 C 166.140625 185.515625 166.046875 185.792969 166.019531 187.1875 C 165.996094 188.578125 166.164063 200.875 165.964844 203.273438 C 165.765625 205.675781 166.195313 206.035156 166.644531 206.035156 Z M 172.785156 201.925781 C 172.785156 202.925781 172.835938 205.074219 172.4375 205.074219 C 172.109375 205.074219 168.953125 205.34375 167.832031 205.21875 C 167.09375 205.136719 166.847656 205.332031 166.800781 204.222656 C 166.765625 203.460938 166.878906 202.398438 166.9375 201.773438 C 167.035156 200.726563 167.285156 200.925781 167.238281 201.875 C 167.1875 202.824219 167.238281 204.773438 167.6875 204.773438 C 168.136719 204.773438 170.9375 204.625 171.738281 204.675781 C 172.535156 204.726563 172.4375 202.523438 172.4375 201.875 C 172.4375 201.226563 172.785156 200.925781 172.785156 201.925781 Z M 170.652344 191.199219 C 171.792969 191.121094 171.273438 191.414063 170.828125 191.5625 C 170.335938 191.726563 170.101563 192.265625 169.808594 192.519531 C 169.34375 192.925781 168.582031 192.707031 168.605469 191.78125 C 168.617188 191.410156 168.765625 190.925781 168.554688 190.507813 C 168.339844 190.089844 168.175781 189.519531 168.933594 190.371094 C 169.121094 190.585938 169.257813 190.828125 169.34375 191.074219 C 169.492188 190.832031 169.679688 190.605469 169.785156 190.472656 C 170.027344 190.175781 170.140625 190.230469 170.117188 190.648438 C 170.105469 190.820313 170.070313 191.101563 170 191.363281 C 170.199219 191.277344 170.417969 191.214844 170.652344 191.199219 Z M 168.5625 193.5 C 168.710938 192.5625 169.050781 192.675781 168.863281 193.574219 C 168.445313 195.570313 170.910156 196.816406 170.023438 199.273438 C 169.6875 200.210938 169.199219 200.285156 169.648438 199.238281 C 170.570313 197.082031 168.148438 196.070313 168.5625 193.5 Z M 169.949219 195.488281 C 169.226563 195.476563 169.632813 194.171875 170.65625 193.671875 C 171.683594 193.167969 171.3125 193.632813 170.957031 193.941406 C 170.371094 194.445313 170.625 195.496094 169.949219 195.488281 Z M 168.898438 198.074219 C 168.222656 198.085938 168.476563 197.03125 167.890625 196.527344 C 167.535156 196.222656 167.164063 195.753906 168.191406 196.257813 C 169.214844 196.761719 169.621094 198.066406 168.898438 198.074219 Z M 167.644531 186.1875 C 168.765625 186.0625 171.921875 186.332031 172.25 186.332031 C 172.519531 186.332031 172.585938 187.324219 172.597656 188.273438 C 172.605469 188.722656 172.261719 188.84375 172.238281 188.375 C 172.199219 187.566406 172.054688 186.699219 171.550781 186.730469 C 170.75 186.78125 167.949219 186.632813 167.5 186.632813 C 167.242188 186.632813 167.117188 187.261719 167.0625 187.976563 C 167.023438 188.523438 166.648438 188.609375 166.617188 188.023438 C 166.605469 187.730469 166.601563 187.4375 166.609375 187.183594 C 166.660156 186.074219 166.90625 186.269531 167.644531 186.1875 "/>
<path style=" stroke:none;fill-rule:nonzero;fill:rgb(0%,0%,0%);fill-opacity:1;" d="M 191.230469 206.078125 C 192.660156 206.117188 196.347656 206.175781 196.800781 206.175781 C 197.25 206.175781 197.679688 205.8125 197.480469 203.410156 C 197.28125 201.011719 197.449219 188.71875 197.425781 187.324219 C 197.398438 185.929688 197.304688 185.652344 196.78125 185.648438 C 196.230469 185.644531 191.605469 185.761719 190.90625 185.664063 C 190.203125 185.5625 190.050781 185.925781 190.023438 188.273438 C 190 190.625 190.074219 203.125 190 204.523438 C 189.945313 205.550781 189.800781 206.039063 191.230469 206.078125 Z M 191.222656 186.472656 C 191.550781 186.472656 194.707031 186.203125 195.828125 186.328125 C 196.570313 186.410156 196.8125 186.214844 196.863281 187.324219 C 196.875 187.578125 196.867188 187.871094 196.855469 188.167969 C 196.828125 188.753906 196.449219 188.664063 196.410156 188.121094 C 196.355469 187.402344 196.230469 186.773438 195.976563 186.773438 C 195.523438 186.773438 192.722656 186.925781 191.925781 186.875 C 191.417969 186.84375 191.273438 187.710938 191.234375 188.515625 C 191.210938 188.984375 190.867188 188.863281 190.875 188.414063 C 190.890625 187.464844 190.953125 186.472656 191.222656 186.472656 Z M 193.464844 199.285156 C 193.914063 200.335938 193.429688 200.257813 193.089844 199.320313 C 192.203125 196.863281 194.667969 195.617188 194.253906 193.621094 C 194.066406 192.722656 194.402344 192.609375 194.554688 193.546875 C 194.964844 196.117188 192.542969 197.128906 193.464844 199.285156 Z M 192.996094 190.695313 C 192.972656 190.277344 193.089844 190.222656 193.328125 190.519531 C 193.4375 190.652344 193.621094 190.878906 193.773438 191.117188 C 193.859375 190.875 193.992188 190.632813 194.183594 190.417969 C 194.9375 189.566406 194.773438 190.136719 194.5625 190.554688 C 194.351563 190.972656 194.496094 191.457031 194.507813 191.828125 C 194.535156 192.753906 193.773438 192.96875 193.304688 192.566406 C 193.015625 192.3125 192.777344 191.773438 192.285156 191.609375 C 191.839844 191.460938 191.324219 191.167969 192.460938 191.246094 C 192.695313 191.261719 192.914063 191.324219 193.117188 191.410156 C 193.042969 191.144531 193.007813 190.867188 192.996094 190.695313 Z M 192.457031 193.71875 C 193.480469 194.21875 193.890625 195.523438 193.164063 195.535156 C 192.488281 195.542969 192.742188 194.492188 192.15625 193.988281 C 191.800781 193.679688 191.433594 193.214844 192.457031 193.71875 Z M 194.925781 196.304688 C 195.949219 195.800781 195.578125 196.269531 195.222656 196.574219 C 194.640625 197.078125 194.890625 198.128906 194.214844 198.121094 C 193.492188 198.109375 193.898438 196.804688 194.925781 196.304688 Z M 190.6875 202.066406 C 190.6875 201.066406 191.035156 201.367188 191.035156 202.015625 C 191.035156 202.667969 190.9375 204.867188 191.738281 204.816406 C 192.535156 204.765625 195.335938 204.917969 195.785156 204.917969 C 196.238281 204.917969 196.285156 202.96875 196.238281 202.015625 C 196.1875 201.066406 196.4375 200.867188 196.535156 201.917969 C 196.597656 202.539063 196.710938 203.605469 196.675781 204.367188 C 196.625 205.476563 196.382813 205.28125 195.644531 205.363281 C 194.519531 205.484375 191.363281 205.21875 191.035156 205.21875 C 190.636719 205.21875 190.6875 203.066406 190.6875 202.066406 "/>
<path style=" stroke:none;fill-rule:nonzero;fill:rgb(0%,0%,0%);fill-opacity:1;" d="M 349.335938 176.949219 C 353.609375 180.761719 356.867188 185.457031 357.683594 190.433594 C 353.925781 185.550781 352.433594 185.261719 349.726563 185.113281 C 354.035156 187.105469 357.722656 191.828125 360.566406 195.46875 C 361.769531 197.6875 358.203125 193.277344 353.09375 194.625 C 358.714844 195.757813 369.835938 202.425781 367.175781 207.71875 C 365.253906 203.339844 359.320313 199.976563 354.980469 198.652344 C 359.832031 201.335938 366.273438 207.003906 369.167969 213.171875 C 370.921875 206.417969 367.675781 198.773438 361.894531 194.722656 C 359.492188 192.410156 359.578125 188.9375 359.40625 185.691406 C 359.257813 182.898438 357.851563 175.625 352.941406 173.464844 C 355.339844 176.273438 359.3125 182.636719 357.714844 186.65625 C 355.546875 182.71875 353.023438 178.074219 349.335938 176.949219 "/>
<path style=" stroke:none;fill-rule:nonzero;fill:rgb(0%,0%,0%);fill-opacity:1;" d="M 341.28125 221.722656 C 340.628906 225.597656 346.761719 230.335938 349.332031 231.945313 C 352.316406 233.808594 355.667969 235.660156 356.539063 238.242188 C 357.195313 243.621094 362.667969 249.578125 370.050781 252.300781 C 365.789063 247.347656 363.957031 240.71875 364.085938 236.589844 C 362.949219 239.695313 362.871094 244.785156 365.96875 248.230469 C 359.472656 246.804688 359.277344 237.0625 361.296875 233.355469 C 357.199219 235.425781 359.425781 239.789063 357.976563 237.917969 C 356.089844 234.371094 353.636719 229.765625 354.121094 226.316406 C 352.769531 227.882813 352.21875 228.859375 354.789063 233.585938 C 350.507813 230.421875 347.84375 226.070313 346.585938 221.644531 C 345.617188 224.28125 348.636719 228.203125 351.179688 231.542969 C 346.480469 230.226563 342.628906 224.570313 341.28125 221.722656 "/>
<path style=" stroke:none;fill-rule:nonzero;fill:rgb(0%,0%,0%);fill-opacity:1;" d="M 335.234375 248.382813 C 335.695313 252.3125 342.953125 255.886719 345.890625 257.011719 C 349.296875 258.316406 353.050781 259.539063 354.621094 261.925781 C 355.546875 264.148438 357.355469 266.316406 359.742188 268.175781 C 362.921875 270.652344 360.925781 268.039063 359.480469 266.113281 C 357.070313 262.902344 357.269531 258.777344 357.835938 256.273438 C 354.464844 259.035156 357.84375 262.9375 355.917969 261.351563 C 353.09375 258.199219 349.425781 254.105469 348.921875 250.621094 C 348.058594 252.402344 347.804688 253.460938 351.617188 257.65625 C 346.59375 255.304688 342.792969 251.496094 340.328125 247.367188 C 340.140625 250.132813 344.160156 253.453125 347.558594 256.289063 C 342.648438 255.828125 337.335938 250.949219 335.234375 248.382813 "/>
<path style=" stroke:none;fill-rule:nonzero;fill:rgb(0%,0%,0%);fill-opacity:1;" d="M 68.890625 154.722656 C 76.25 155.015625 80.898438 151.609375 83.988281 152.292969 C 87.082031 152.980469 103.167969 154.402344 108.996094 153.304688 C 114.824219 152.203125 122.980469 151.5625 125.925781 152.308594 C 128.871094 153.054688 144.023438 153.175781 148.433594 152.480469 C 152.84375 151.789063 165.804688 156.847656 170.925781 155.410156 C 175.550781 154.113281 173.585938 153.476563 170.746094 154.0625 C 167.910156 154.648438 156 152.050781 153.066406 151.585938 C 150.128906 151.121094 149.300781 150.839844 145.328125 151.148438 C 141.359375 151.457031 129.675781 152.199219 126.359375 151.550781 C 123.042969 150.902344 114.046875 150.882813 108.972656 152.140625 C 103.898438 153.402344 89.882813 152.234375 85.929688 151.804688 C 81.976563 151.367188 78.960938 152.097656 75.980469 152.910156 C 72.996094 153.722656 64.382813 154.582031 64.21875 150.3125 C 64.054688 146.039063 67.789063 145.285156 71.777344 145.949219 C 75.769531 146.617188 77.488281 146.355469 81.207031 144.777344 C 84.921875 143.195313 88.59375 142.894531 92.40625 145.890625 C 96.21875 148.886719 99.09375 142.898438 106.109375 144.699219 C 113.125 146.503906 123.324219 139.3125 129.78125 143.074219 C 136.238281 146.839844 136.355469 145.410156 133.089844 143.53125 C 129.824219 141.648438 137.144531 132.984375 146.113281 138.570313 C 155.082031 144.160156 160.15625 146.261719 154.742188 142.171875 C 151.878906 140.007813 154.617188 137.300781 158.746094 136.460938 C 162.417969 135.714844 167.242188 136.574219 169.4375 138.644531 C 174.105469 143.046875 176.589844 135.859375 181.394531 139.660156 C 186.203125 143.460938 184.257813 140.273438 181.820313 138.449219 C 179.382813 136.628906 180.855469 136.480469 183.460938 135.453125 C 195.214844 130.800781 203.925781 134.511719 206.109375 139.589844 C 208.476563 145.09375 208.542969 142.839844 207.519531 140.460938 C 206.492188 138.078125 208.410156 135.617188 212.339844 140.410156 C 216.265625 145.203125 216.292969 143.949219 214.59375 141.585938 C 210.914063 136.46875 207.757813 134.351563 206.386719 136.507813 C 206.09375 136.964844 205.855469 136.292969 204.628906 135.042969 C 200.71875 131.058594 186.65625 129.335938 180.175781 135.183594 C 177.453125 137.644531 177.394531 135.019531 174.511719 136.878906 C 171.625 138.742188 171.019531 137.988281 169.792969 137.355469 C 160.996094 132.8125 152.746094 135.554688 152.714844 138.539063 C 152.6875 140.867188 151.933594 140.582031 150.863281 139.628906 C 140.734375 130.613281 130.605469 137.757813 130.867188 141.328125 C 130.972656 142.75 130.542969 141.976563 130.121094 141.417969 C 129.699219 140.859375 123.109375 139.578125 118.492188 141.4375 C 113.878906 143.296875 111.785156 143.304688 108.773438 142.769531 C 105.761719 142.230469 100.652344 142.039063 97.101563 144.363281 C 91.71875 147.890625 90.441406 139.28125 81.179688 143.5 C 75.308594 146.175781 72.367188 145.207031 71.15625 144.839844 C 63.292969 142.445313 56.074219 154.207031 68.890625 154.722656 "/>
<path style=" stroke:none;fill-rule:nonzero;fill:rgb(0%,0%,0%);fill-opacity:1;" d="M 207.578125 153.960938 C 202.433594 155.421875 198.152344 154.789063 196.328125 154.121094 C 194.96875 153.628906 193.921875 153.875 196.199219 155.175781 C 198.480469 156.480469 206.496094 155.933594 208.503906 155.066406 C 210.507813 154.199219 215.171875 155.382813 216.722656 156.214844 C 218.277344 157.046875 217.890625 155.617188 217.203125 155.03125 C 216.515625 154.445313 212.722656 152.503906 207.578125 153.960938 "/>
<path style=" stroke:none;fill-rule:nonzero;fill:rgb(0%,0%,0%);fill-opacity:1;" d="M 239.472656 158.164063 C 245.84375 157.878906 246.351563 157.042969 246.335938 156.21875 C 246.316406 155.394531 247.082031 156.054688 247.992188 156.484375 C 248.898438 156.914063 254.699219 157.992188 259.519531 155.265625 C 262.535156 153.558594 263.640625 155.179688 264.699219 155.53125 C 267.078125 156.324219 271.179688 156.859375 275.601563 154.957031 C 282.972656 151.792969 285.5 147.5 275.863281 144.269531 C 269.972656 142.289063 267.382813 143.996094 264.847656 144.875 C 262.316406 145.753906 261.347656 145.925781 259.820313 144.832031 C 258.300781 143.738281 254.921875 143.585938 253.355469 144.144531 C 251.792969 144.699219 252.03125 144.097656 250.703125 142.921875 C 245.515625 138.335938 235.964844 139.261719 230.667969 142.519531 C 228.519531 143.84375 229.203125 144.203125 230.539063 143.5 C 233.410156 141.984375 246.777344 139.042969 251.421875 144.859375 C 252.421875 146.113281 257.308594 143.085938 260.289063 145.722656 C 263.273438 148.359375 265.515625 144.410156 269.636719 144.25 C 280.277344 143.832031 286.308594 151.578125 272.1875 154.847656 C 264.347656 156.664063 263.53125 152.492188 259.371094 154.382813 C 255.210938 156.269531 250.785156 157.324219 244.792969 154.300781 C 238.804688 151.277344 241.175781 153.476563 243.605469 154.851563 C 246.035156 156.226563 243.96875 157.769531 238.101563 157.144531 C 232.238281 156.515625 230.117188 155.585938 229.488281 154.171875 C 228.859375 152.761719 228.191406 153.226563 228.894531 154.484375 C 229.597656 155.746094 233.105469 158.449219 239.472656 158.164063 "/>
<path style=" stroke:none;fill-rule:nonzero;fill:rgb(0%,0%,0%);fill-opacity:1;" d="M 220.375 101.722656 C 222.027344 102.808594 223.445313 104.011719 222.015625 107.125 C 220.792969 109.785156 220.792969 112.246094 221.621094 114.070313 C 219.914063 115.03125 217.941406 120.039063 221.597656 124.234375 C 219.570313 128.210938 216.703125 131.242188 221.191406 135.394531 C 221.527344 135.707031 221.832031 136 222.121094 136.28125 C 217.960938 139.703125 218.820313 140.535156 220.132813 142.925781 C 220.46875 143.535156 221.015625 144.125 221.652344 144.714844 C 218.726563 146.117188 215.125 147.488281 218.5625 152.046875 C 219.953125 153.886719 221.230469 155.648438 222.199219 157.234375 C 218.019531 161.222656 219.019531 165.265625 220.953125 167.851563 C 221.984375 169.230469 221.707031 169.707031 222.1875 172.261719 C 222.476563 173.789063 222.734375 173.808594 222.714844 172.277344 C 222.664063 168.636719 221.691406 170.234375 222.773438 166.675781 C 223.304688 164.9375 224.246094 164.222656 224.660156 162.511719 C 224.964844 161.253906 224.203125 159.429688 222.886719 157.285156 C 223.78125 156.433594 224.8125 155.445313 225.859375 154.1875 C 229.789063 149.445313 225.117188 147.285156 222.445313 144.847656 C 223.480469 144.351563 224.425781 143.847656 224.9375 143.195313 C 226.476563 141.238281 226.4375 139.890625 222.789063 136.351563 C 223.085938 136.101563 223.402344 135.847656 223.757813 135.578125 C 227.960938 132.382813 225.75 128.09375 222.425781 124.222656 C 226.128906 116.933594 225.203125 116.308594 222.476563 114.003906 C 224.074219 112.921875 224.441406 108.714844 223.5625 104.984375 C 222.878906 102.09375 225.648438 101.945313 225.652344 97.894531 C 225.652344 95.222656 225.222656 95.492188 225.183594 98.046875 C 225.136719 100.917969 223.351563 101.632813 222.871094 103.226563 C 222.164063 102.234375 220.683594 101.601563 218.804688 100.136719 C 214.75 96.96875 215.789063 84.898438 216.859375 80.445313 C 218.140625 75.105469 217.730469 74.980469 216.464844 80.34375 C 215.402344 84.835938 214.644531 96.160156 218.058594 99.984375 C 218.679688 100.679688 219.554688 101.1875 220.375 101.722656 Z M 223.910156 162.359375 C 223.460938 164.230469 222.367188 164.957031 221.890625 167.050781 C 219.4375 166.316406 219.132813 160.894531 222.46875 157.6875 C 223.578125 159.589844 224.1875 161.210938 223.910156 162.359375 Z M 225.160156 154.144531 C 224.277344 155.210938 223.402344 156.078125 222.609375 156.84375 C 221.6875 155.402344 220.542969 153.828125 219.3125 152.195313 C 216.023438 147.835938 219.179688 146.390625 222.023438 145.046875 C 224.753906 147.46875 228.613281 149.984375 225.160156 154.144531 Z M 224.1875 143.046875 C 223.742188 143.613281 222.964844 144.070313 222.085938 144.507813 C 221.5625 144 221.117188 143.492188 220.828125 142.972656 C 219.515625 140.570313 219.507813 139.152344 222.464844 136.621094 C 225.359375 139.523438 225.488281 141.394531 224.1875 143.046875 Z M 223.0625 135.535156 C 222.84375 135.703125 222.640625 135.863281 222.441406 136.019531 C 222.277344 135.863281 222.117188 135.710938 221.9375 135.546875 C 218.160156 132.046875 220.375 128.097656 222.109375 124.839844 C 225.273438 128.640625 226.808594 132.683594 223.0625 135.535156 Z M 221.929688 123.585938 C 219.59375 120.328125 220.464844 116.011719 221.847656 114.511719 C 224.828125 116.234375 223.78125 119.960938 221.929688 123.585938 Z M 223.105469 106.175781 C 223.582031 109.144531 223.300781 112.171875 222.257813 113.511719 C 221.632813 111.882813 221.851563 109.808594 222.761719 107.277344 C 222.910156 106.867188 223.015625 106.511719 223.105469 106.175781 "/>
<path style=" stroke:none;fill-rule:nonzero;fill:rgb(0%,0%,0%);fill-opacity:1;" d="M 222.011719 86.210938 C 223.8125 91.109375 223.8125 91.3125 223.113281 93.511719 C 222.410156 95.710938 223.210938 95.210938 223.710938 93.3125 C 224.210938 91.410156 224.511719 89.8125 222.710938 86.109375 C 220.84375 82.265625 224.554688 78.664063 223.410156 75.8125 C 222.210938 72.8125 222.617188 74.65625 222.910156 76.210938 C 223.613281 79.910156 220.210938 81.3125 222.011719 86.210938 "/>
<path style=" stroke:none;fill-rule:nonzero;fill:rgb(0%,0%,0%);fill-opacity:1;" d="M 219.480469 98.570313 C 219.828125 99.902344 220.390625 100.25 219.898438 98.710938 C 219.410156 97.171875 219.410156 97.03125 220.671875 93.601563 C 221.929688 90.171875 219.550781 89.191406 220.039063 86.601563 C 220.246094 85.511719 220.53125 84.222656 219.6875 86.320313 C 218.890625 88.320313 221.488281 90.839844 220.179688 93.53125 C 218.921875 96.121094 219.128906 97.242188 219.480469 98.570313 "/>
</g>
</svg>
