<?xml version="1.0" encoding="UTF-8"?>
<svg xmlns="http://www.w3.org/2000/svg" xmlns:xlink="http://www.w3.org/1999/xlink" width="265pt" height="680pt" viewBox="0 0 265 680" version="1.1">
<g id="surface1">
<path style=" stroke:none;fill-rule:nonzero;fill:rgb(0%,0%,0%);fill-opacity:1;" d="M 170.261719 236.695313 C 223.949219 169.589844 230.164063 95.796875 219.886719 55.328125 C 208.839844 11.835938 164.414063 -21.191406 124.953125 19.109375 C 111.109375 33.25 102.542969 58.96875 90.902344 83.515625 C 68.347656 131.078125 41.191406 149.101563 13.417969 166.953125 C -3.34375 177.726563 -0.679688 189.652344 5.875 205.449219 C 15.316406 228.210938 28.3125 249.742188 39.996094 271.925781 C 39.996094 271.925781 -8.699219 341.496094 9.316406 397.972656 C 15.285156 416.6875 25.390625 420.96875 49.597656 423.441406 C 66.910156 424.523438 78.261719 438.109375 92.304688 447.214844 C 100.308594 452.402344 116.078125 458.464844 123.035156 446.402344 C 134.078125 477.363281 143.914063 506.402344 144.636719 540.722656 C 119.289063 559.527344 107.472656 560.976563 84.390625 567.738281 C 67.503906 572.6875 60.925781 581.746094 58.644531 591.550781 C 53.023438 615.730469 68.269531 668.34375 107.804688 679.011719 C 119.585938 682.191406 128.394531 676.539063 141.726563 663.882813 C 183.9375 623.804688 205.507813 613.050781 235.296875 595.113281 C 249.308594 586.675781 257.796875 577.480469 262.609375 545.941406 C 275.199219 463.449219 229.359375 320.464844 170.261719 236.695313 Z M 126.921875 31.660156 C 166.671875 -18.277344 216.035156 33.453125 213.742188 96.007813 C 211.738281 150.722656 180.726563 208.730469 164.554688 226.085938 C 150.878906 205.925781 138.878906 183.363281 127.355469 161.285156 C 133.613281 148.65625 142.511719 135.007813 147.917969 120.820313 C 164.941406 76.152344 138.441406 54.496094 111.035156 64.5625 C 113.847656 52.976563 119.222656 41.328125 126.921875 31.660156 Z M 108.394531 77.523438 C 124.25 64.691406 148.535156 79.859375 139.898438 110.636719 C 136.238281 123.6875 128.507813 135.886719 121.355469 147.605469 C 111.757813 124.085938 107.675781 102.964844 108.394531 77.523438 Z M 35.816406 413.148438 C 23.8125 414.699219 16.25 394.988281 15.527344 377.296875 C 14.511719 352.507813 24.582031 314.609375 43.984375 286.003906 C 65.636719 319.300781 83.195313 354.964844 83.195313 354.964844 C 79.835938 364.5625 75.757813 374.164063 73.835938 384.242188 C 65.15625 378.71875 60.042969 364.921875 49.566406 363.386719 C 30.769531 360.636719 22.839844 393.847656 30.128906 399.851563 C 34.910156 403.789063 42.15625 404.28125 47.917969 406.804688 C 45.269531 409.804688 40.007813 412.605469 35.816406 413.148438 Z M 38.316406 392.882813 C 32.667969 373.425781 54.585938 364.351563 56.617188 383.257813 C 57.109375 387.84375 55.234375 394.351563 52.917969 397.023438 C 48.597656 396.703125 43.660156 395.238281 38.316406 392.882813 Z M 104.0625 441.871094 C 91.695313 437.296875 82.300781 425.789063 70.976563 418.917969 C 64.769531 415.148438 56.554688 413.523438 56.554688 413.523438 C 60.875 408.484375 65.015625 399.132813 65.917969 391.203125 C 77.675781 403.921875 93.757813 412.5625 110.078125 413.523438 C 112.769531 419.070313 118.289063 426.605469 118.273438 433.640625 C 118.25 444.496094 111.246094 444.53125 104.0625 441.871094 Z M 91.117188 370.324219 L 106.714844 401.523438 C 99.757813 402.242188 90.4375 397.257813 85.117188 391.921875 C 84.636719 383.761719 88.957031 377.523438 91.117188 370.324219 Z M 104.023438 668.542969 C 82.113281 658.363281 62.359375 633.84375 65.863281 602.441406 C 69.460938 570.175781 101.015625 576.027344 106.949219 581.835938 C 112.402344 587.175781 107.5625 591.960938 102.957031 596.058594 C 93.617188 604.367188 80.90625 608.394531 79.835938 613.203125 C 80.316406 622.5625 87.996094 630.964844 96.15625 634.800781 C 102.609375 636.800781 106.601563 633.191406 110.59375 629.769531 C 112.835938 627.84375 136.234375 608.164063 147.277344 603.601563 C 148.25 666.90625 116.910156 674.53125 104.023438 668.542969 Z M 114.394531 601.203125 C 115.277344 617.96875 104.648438 629.242188 97.328125 625.429688 C 94.703125 624.066406 91.757813 619.253906 91.117188 615.523438 Z M 147.277344 590.644531 L 123.996094 603.601563 C 127.328125 590.070313 118.996094 575.664063 109.117188 570.003906 L 145.597656 552.722656 C 148.078125 564.941406 148.757813 577.941406 147.277344 590.644531 Z M 231.113281 586.5625 C 205.769531 603.945313 177.632813 615.488281 155.914063 639.121094 C 161.753906 587.949219 159.367188 544.375 153.078125 511.925781 C 133.871094 412.859375 53.035156 271.347656 28.855469 230.539063 C 6.089844 192.113281 5.882813 179.980469 25.007813 169.988281 C 61.042969 151.171875 74.546875 137.390625 98.078125 93.125 C 100.476563 154.6875 169.789063 249.246094 183.210938 273.03125 C 230.199219 356.308594 255.824219 451.757813 255.617188 514.972656 C 255.460938 562.800781 245.089844 576.976563 231.113281 586.5625 "/>
</g>
</svg>
