<?xml version="1.0" encoding="UTF-8"?>
<svg xmlns="http://www.w3.org/2000/svg" xmlns:xlink="http://www.w3.org/1999/xlink" width="481pt" height="646pt" viewBox="0 0 481 646" version="1.1">
<g id="surface1">
<path style=" stroke:none;fill-rule:nonzero;fill:rgb(0%,0%,0%);fill-opacity:1;" d="M 469.445313 151.90625 C 476.738281 143.886719 480.824219 133.382813 480.824219 122.589844 L 480.824219 43.242188 C 480.824219 19.320313 461.570313 0.0703125 437.648438 0.0703125 L 358.59375 0.0703125 C 346.925781 0.0703125 335.691406 4.734375 327.523438 13.050781 L 317.753906 23.261719 L 164.019531 23.261719 L 154.246094 13.195313 C 146.078125 4.882813 134.847656 0.0703125 123.179688 0.0703125 L 44.121094 0.0703125 C 20.199219 0.0703125 0.800781 19.46875 0.800781 43.390625 L 0.800781 122.589844 C 0.800781 133.382813 4.886719 143.886719 12.324219 151.90625 L 20.492188 160.511719 L 20.492188 485.488281 L 12.324219 493.945313 C 4.886719 501.96875 0.800781 512.472656 0.800781 523.265625 L 0.800781 602.609375 C 0.800781 626.53125 20.199219 645.785156 44.121094 645.785156 L 123.179688 645.785156 C 134.847656 645.785156 146.078125 641.117188 154.246094 632.804688 L 164.019531 622.59375 L 317.753906 622.738281 L 327.523438 632.804688 C 335.691406 641.261719 346.925781 645.929688 358.59375 645.929688 L 437.648438 645.929688 C 461.570313 645.929688 480.824219 626.675781 480.824219 602.609375 L 480.824219 523.410156 C 480.824219 512.617188 476.738281 502.113281 469.445313 494.09375 L 461.277344 485.632813 L 461.277344 160.367188 Z M 433.628906 120.8125 L 415.058594 140.070313 L 413.9375 141.230469 L 413.9375 504.738281 L 415.066406 505.902344 L 433.628906 525.015625 L 433.628906 598.738281 L 360.265625 598.738281 L 338.839844 576.617188 L 337.660156 575.402344 L 144.078125 575.402344 L 142.902344 576.609375 L 121.46875 598.59375 L 48.101563 598.59375 L 48.101563 525.007813 L 66.671875 505.746094 L 67.792969 504.585938 L 67.792969 141.222656 L 66.660156 140.058594 L 48.101563 120.949219 L 48.101563 47.371094 L 121.46875 47.371094 L 142.902344 69.355469 L 144.078125 70.5625 L 145.769531 70.5625 L 335.96875 70.417969 L 337.652344 70.414063 L 338.828125 69.210938 L 360.261719 47.226563 L 433.628906 47.226563 L 433.628906 120.8125 "/>
</g>
</svg>
