<?xml version="1.0" encoding="UTF-8"?>
<svg xmlns="http://www.w3.org/2000/svg" xmlns:xlink="http://www.w3.org/1999/xlink" width="537pt" height="709pt" viewBox="0 0 537 709" version="1.1">
<g id="surface1">
<path style=" stroke:none;fill-rule:nonzero;fill:rgb(0%,0%,0%);fill-opacity:1;" d="M 421.636719 656.957031 C 428.664063 663.988281 430.070313 662.113281 434.289063 664.457031 C 438.507813 666.800781 440.382813 667.738281 437.570313 661.175781 C 434.757813 654.613281 430.539063 658.832031 428.199219 651.332031 C 425.855469 643.835938 417.886719 637.742188 417.886719 644.304688 C 417.886719 650.863281 415.542969 654.144531 414.136719 646.179688 C 412.730469 638.210938 409.449219 631.179688 403.824219 633.992188 C 398.203125 636.804688 393.984375 632.117188 404.296875 628.367188 C 414.605469 624.617188 419.292969 618.992188 420.230469 626.960938 C 421.167969 634.929688 424.449219 641.023438 429.605469 630.710938 C 434.757813 620.402344 443.664063 611.027344 450.226563 618.058594 C 456.785156 625.085938 468.503906 625.085938 480.222656 629.304688 C 491.9375 633.523438 491.9375 637.742188 500.84375 642.429688 C 509.746094 647.113281 518.183594 648.050781 526.152344 648.523438 C 534.121094 648.988281 537.402344 646.179688 529.902344 645.242188 C 522.402344 644.304688 497.445313 637.039063 497.5625 628.835938 C 497.695313 619.417969 478.035156 626.242188 450.695313 609.621094 C 443.859375 605.464844 443.019531 602.589844 446.007813 597.433594 C 449.585938 591.257813 466.160156 543.535156 457.257813 514.945313 C 455.164063 508.234375 450.417969 508.050781 450.695313 500.886719 C 451.28125 485.652344 441.320313 485.886719 440.382813 492.449219 C 439.445313 499.011719 444.601563 499.949219 436.164063 496.667969 C 427.730469 493.386719 419.582031 493.644531 423.980469 499.949219 C 432.882813 512.71875 391.84375 513.941406 391.640625 548.691406 C 391.554688 563.09375 388.476563 562.636719 385.546875 555.253906 C 382.117188 546.605469 377.261719 553.472656 379.921875 544.472656 C 383.320313 532.992188 365.863281 524.320313 364.457031 535.101563 C 363.050781 545.878906 361.152344 553.726563 359.300781 546.816406 C 356.253906 535.453125 344.773438 535.570313 347.585938 547.285156 C 350.394531 559.003906 343.367188 561.816406 343.835938 569.78125 C 344.304688 577.75 346.179688 578.6875 339.148438 574.46875 C 332.117188 570.25 316.121094 564.980469 305.34375 564.039063 C 294.5625 563.105469 290.871094 563.222656 280.5625 553.847656 C 270.25 544.472656 258.535156 539.785156 252.910156 538.847656 C 247.285156 537.910156 246.347656 541.191406 248.691406 531.351563 C 251.035156 521.507813 241.660156 522.445313 235.101563 526.195313 C 228.539063 529.945313 227.097656 527.265625 224.320313 526.664063 C 212.21875 524.039063 211.898438 515.648438 216.820313 514.007813 C 221.742188 512.367188 250.765625 500.246094 264.628906 494.792969 C 278.921875 489.167969 275.640625 486.824219 265.09375 490.574219 C 253.082031 494.847656 221.445313 506.300781 213.539063 509.789063 C 204.15625 513.933594 198.976563 512.34375 210.257813 505.574219 C 219.632813 499.949219 240.527344 489.34375 253.847656 482.140625 C 268.140625 474.40625 265.09375 471.828125 253.847656 477.921875 C 242.597656 484.011719 216.820313 498.074219 207.914063 501.824219 C 199.011719 505.574219 190.574219 507.449219 204.164063 497.605469 C 217.757813 487.761719 229.46875 481.191406 244.003906 472.296875 C 259.703125 462.6875 253.847656 461.984375 246.347656 467.140625 C 238.847656 472.296875 207.804688 489.019531 201.355469 493.855469 C 191.980469 500.886719 186.355469 501.355469 192.917969 495.730469 C 199.480469 490.105469 203.921875 484.773438 217.289063 474.171875 C 237.675781 458 232.289063 457.765625 218.695313 468.078125 C 208.644531 475.703125 202.695313 481.535156 198.003906 485.570313 C 196.347656 486.992188 193.464844 487.429688 196.105469 482.925781 C 207.351563 463.722656 246.324219 407.960938 254.785156 399.648438 C 267.90625 386.761719 265.796875 386.058594 255.019531 395.433594 C 244.238281 404.804688 220.101563 430.113281 215.882813 435.738281 C 211.664063 441.363281 190.105469 420.742188 180.265625 433.394531 C 170.421875 446.050781 166.203125 443.238281 172.765625 434.800781 C 179.324219 426.363281 194.414063 395.773438 200.886719 386.527344 C 210.726563 372.464844 207.914063 373.402344 199.011719 383.714844 C 190.105469 394.027344 178.15625 412.304688 174.40625 418.632813 C 171.449219 423.617188 166.203125 427.769531 167.609375 417.929688 C 170.414063 398.304688 176.402344 336.359375 177.453125 330.753906 C 179.398438 320.375 178.960938 317.617188 182.566406 319.125 C 185.496094 320.351563 189.648438 319.988281 191.980469 319.972656 C 274 319.503906 276.597656 145.121094 266.382813 123.007813 C 260.65625 110.605469 248.050781 113.921875 254.316406 102.503906 C 260.878906 90.554688 238.117188 89.898438 235.804688 102.972656 C 234.390625 110.957031 225.335938 116.160156 224.804688 115.90625 C 210.605469 131.457031 232.871094 219.648438 197.605469 252.953125 C 190.953125 259.234375 180.308594 249.367188 185.886719 238.890625 C 196.386719 219.167969 206.410156 66.269531 208.855469 46.730469 C 210.199219 35.972656 203.695313 24.125 207.046875 15.339844 C 212.570313 0.851563 194.730469 -5.261719 191.277344 5.953125 C 187.488281 18.269531 179.664063 13.769531 176.417969 17.671875 C 146.863281 53.179688 136.054688 172.558594 134.800781 193.898438 C 133.394531 217.800781 113.242188 188.742188 116.523438 162.964844 C 119.011719 143.414063 124.6875 103.945313 116.992188 97.347656 C 113.710938 94.535156 113.976563 88.328125 118.28125 84.109375 C 123.523438 78.96875 111.863281 69.085938 109.492188 77.664063 C 108.113281 82.648438 102.460938 90.316406 101.523438 81.882813 C 100.585938 73.445313 91.820313 80.203125 95.316406 86.921875 C 96.628906 89.441406 95.894531 94.941406 90.164063 96.265625 C 75.6875 99.617188 71.144531 188.105469 73.402344 208.894531 C 75.746094 230.453125 88.566406 249.222656 110.429688 251.078125 C 127.480469 252.523438 133.28125 239.351563 130.113281 252.015625 C 125.425781 270.761719 110.429688 403.867188 109.492188 419.804688 C 108.554688 435.738281 108.554688 441.363281 103.867188 424.488281 C 99.179688 407.617188 91.683594 392.621094 86.996094 371.996094 C 82.308594 351.375 78.324219 355.710938 83.949219 374.457031 C 89.574219 393.207031 97.304688 416.992188 99.179688 433.863281 C 101.054688 450.738281 101.054688 461.046875 95.429688 442.300781 C 89.808594 423.554688 77.621094 400.117188 70.121094 386.058594 C 62.625 371.996094 59.578125 370.824219 67.078125 387.699219 C 74.574219 404.570313 89.808594 446.519531 89.808594 446.519531 C 89.808594 451.203125 93.324219 465.265625 89.105469 460.109375 C 84.886719 454.953125 86.707031 456.617188 85.121094 446.050781 C 83.363281 434.332031 57.234375 397.070313 63.5625 414.648438 C 65.316406 419.523438 67.539063 423.511719 66.035156 425.425781 C 63.9375 428.097656 58.992188 432.46875 59.34375 432.574219 C 54.65625 431.167969 48.136719 404.542969 9.195313 399.648438 C -1.484375 398.308594 -3.488281 400.5625 7.320313 403.398438 C 43.574219 412.914063 54.1875 436.207031 51.84375 442.300781 C 49.5 448.394531 39.445313 473.953125 37.785156 478.859375 C 35.558594 485.417969 39.191406 487.761719 41.53125 480.730469 C 43.875 473.703125 52.78125 448.863281 59.34375 450.269531 C 65.90625 451.675781 79.449219 472.746094 84.183594 478.859375 C 92.035156 488.992188 84.652344 489.636719 80.902344 484.011719 C 77.152344 478.390625 68.65625 469.308594 64.5 463.859375 C 60.546875 458.683594 57.46875 456.359375 61.6875 464.328125 C 65.90625 472.296875 97.320313 525.390625 100.117188 529.945313 C 104.980469 537.851563 107.382813 535.394531 107.148438 528.070313 C 106.953125 521.960938 114.808594 511.71875 115.117188 521.976563 C 116.179688 557.421875 145.660156 565.140625 149.328125 566.03125 C 157.53125 568.023438 152.210938 570.507813 149.328125 575.40625 C 137.097656 596.234375 152.472656 607.789063 159.289063 606.574219 C 162.8125 605.945313 164.679688 608.390625 163.742188 614.015625 C 162.804688 619.640625 162.453125 636.804688 168.078125 643.835938 C 173.703125 650.863281 180.730469 660.238281 181.671875 666.332031 C 182.605469 672.425781 191.132813 675.117188 192.917969 668.207031 C 196.609375 653.910156 208.925781 668.394531 211.195313 654.613281 C 212.886719 644.371094 217.464844 627.019531 215.882813 612.433594 C 215.125 605.441406 215.414063 603.996094 221.507813 597.902344 C 227.601563 591.8125 226.195313 578.6875 222.445313 573.53125 C 218.695313 568.378906 216.820313 566.96875 223.382813 562.753906 C 229.945313 558.535156 233.226563 550.566406 238.378906 556.191406 C 243.535156 561.816406 244.238281 562.636719 243.769531 554.667969 C 243.300781 546.699219 237.441406 542.597656 245.410156 545.878906 C 253.378906 549.160156 259.039063 544.917969 265.09375 553.378906 C 282.964844 578.335938 333.992188 568.199219 341.023438 585.25 C 345.441406 595.96875 339.328125 611.410156 349.460938 634.460938 C 351.367188 638.804688 346.195313 641.015625 344.304688 636.335938 C 340.847656 627.78125 330.789063 631.636719 333.054688 636.804688 C 335.75 642.957031 334.460938 642.898438 329.304688 638.679688 C 324.148438 634.460938 318.058594 633.523438 318.058594 640.085938 C 318.058594 646.648438 317.472656 648.757813 314.308594 644.304688 C 308.960938 636.777344 301.1875 652.730469 309.152344 654.613281 C 327.488281 658.949219 346.914063 640.996094 348.054688 648.226563 C 349.046875 654.554688 356.253906 652.621094 356.488281 645.710938 C 356.679688 640.050781 362.171875 637.15625 362.113281 644.773438 C 362.042969 654.015625 371.019531 652.738281 371.019531 646.179688 C 371.019531 639.617188 372.894531 636.804688 375.234375 640.554688 C 377.578125 644.304688 384.609375 641.023438 384.609375 646.179688 C 384.609375 651.332031 385.546875 654.144531 392.109375 657.894531 C 398.671875 661.644531 391.171875 665.394531 400.078125 664.925781 C 408.980469 664.457031 414.136719 671.019531 413.199219 663.988281 C 412.261719 656.957031 414.605469 649.925781 421.636719 656.957031 Z M 445.074219 565.476563 C 448.578125 554.640625 449.953125 550.570313 448.664063 545.386719 C 447.964844 542.574219 449.914063 543.089844 450.390625 545.433594 C 451.179688 549.316406 449.777344 558.09375 447.675781 565.007813 C 445.578125 571.921875 444.164063 568.285156 445.074219 565.476563 Z M 432.269531 584.253906 C 433.832031 578.789063 440.390625 556.203125 441.375 552.019531 C 442.1875 548.566406 443.589844 550.542969 442.851563 552.511719 C 441.714844 555.542969 435.382813 578.53125 433.746094 584.253906 C 432.761719 587.699219 431.285156 587.699219 432.269531 584.253906 Z M 431.480469 561.113281 C 429.855469 565.441406 420.808594 598.28125 418.472656 606.457031 C 417.066406 611.378906 414.957031 611.378906 416.363281 606.457031 C 418.59375 598.652344 427.964844 566.382813 429.367188 560.410156 C 430.53125 555.472656 432.53125 558.300781 431.480469 561.113281 Z M 428.316406 549.160156 C 423.269531 558.40625 407.566406 591.648438 406.171875 604.699219 C 405.113281 614.542969 403.710938 611.378906 403.710938 605.402344 C 403.710938 594.453125 421.988281 556.542969 425.503906 548.808594 C 429.019531 541.074219 430.425781 545.292969 428.316406 549.160156 Z M 401.195313 548.5625 C 405.9375 537.757813 413.285156 518.726563 424.136719 515.15625 C 431.742188 512.652344 428.683594 515.601563 424.230469 517.980469 C 410.976563 525.070313 408.683594 539.34375 403.957031 548.554688 C 399.785156 556.691406 397.179688 557.726563 401.195313 548.5625 Z M 242.042969 193.488281 C 242.511719 188.800781 248.605469 158.804688 248.605469 148.023438 C 248.605469 137.246094 251.882813 140.527344 251.414063 145.683594 C 250.394531 156.894531 247.664063 178.957031 244.855469 193.019531 C 242.042969 207.078125 241.574219 198.175781 242.042969 193.488281 Z M 237.507813 269.1875 C 233.246094 278.386719 220.613281 300.042969 197.425781 302.851563 C 189.515625 303.8125 188.570313 301.949219 199.378906 300.175781 C 216.644531 297.347656 231.148438 281.273438 237.699219 262.917969 C 239.898438 256.757813 241.769531 259.984375 237.507813 269.1875 Z M 233.519531 169.527344 C 234.222656 165.660156 236.328125 164.957031 235.980469 168.824219 C 235.5 174.085938 234.570313 185.34375 233.164063 190.96875 C 231.761719 196.59375 231.058594 196.59375 231.058594 192.023438 C 231.058594 187.453125 232.816406 173.394531 233.519531 169.527344 Z M 227.335938 143.808594 C 228.039063 139.941406 230.148438 139.238281 229.796875 143.105469 C 229.320313 148.367188 228.390625 159.625 226.984375 165.25 C 225.578125 170.871094 224.878906 170.871094 224.878906 166.304688 C 224.878906 161.734375 226.632813 147.675781 227.335938 143.808594 Z M 186.144531 286.417969 C 198.390625 286.417969 208.566406 278.007813 215.777344 266.425781 C 217.894531 263.027344 220.898438 262.828125 217.492188 269.050781 C 213.503906 276.332031 201.359375 289.792969 184.839844 289.449219 C 179.265625 289.335938 178.476563 286.417969 186.144531 286.417969 Z M 190.105469 112.347656 C 189.085938 123.558594 186.355469 145.621094 183.546875 159.683594 C 180.730469 173.742188 180.265625 164.839844 180.730469 160.152344 C 181.199219 155.464844 187.292969 125.46875 187.292969 114.691406 C 187.292969 103.910156 190.574219 107.191406 190.105469 112.347656 Z M 180.878906 81.355469 C 181.582031 77.488281 183.691406 76.785156 183.339844 80.652344 C 182.859375 85.914063 181.933594 97.171875 180.527344 102.796875 C 179.121094 108.421875 178.417969 108.421875 178.417969 103.851563 C 178.417969 99.28125 180.175781 85.222656 180.878906 81.355469 Z M 185.417969 294.195313 C 202.910156 294.050781 218.84375 279.894531 229.007813 263.261719 C 231.988281 258.382813 235.101563 258.574219 229.476563 267.011719 C 223.851563 275.449219 206.675781 296.832031 183.074219 296.539063 C 175.109375 296.441406 174.46875 294.285156 185.417969 294.195313 Z M 89.808594 140.703125 C 88.628906 149.4375 89.808594 154.058594 88.753906 163.902344 C 87.699219 173.742188 86.644531 169.175781 86.292969 164.253906 C 85.941406 159.332031 87.347656 151.597656 88.050781 141.054688 C 88.753906 130.507813 90.6875 134.199219 89.808594 140.703125 Z M 77.503906 453.195313 C 76.070313 451.734375 69.859375 445.523438 63.445313 441.246094 C 60.28125 439.136719 59.578125 439.136719 61.335938 437.027344 C 63.09375 434.917969 64.984375 432.9375 67.308594 430.347656 C 70.472656 426.835938 72.574219 431.394531 72.933594 432.105469 C 74.851563 435.878906 79.964844 444.058594 79.964844 452.144531 C 79.964844 456.390625 79.683594 455.421875 77.503906 453.195313 Z M 172.414063 464.09375 C 173.621094 458.914063 181.550781 436.675781 187.175781 433.863281 C 192.800781 431.050781 207.5625 441.246094 208.269531 443.707031 C 208.96875 446.167969 196.628906 461.402344 190.339844 472.53125 C 185.769531 480.613281 182.605469 479.210938 183.660156 471.476563 C 184.714844 463.742188 190.339844 456.007813 193.503906 450.386719 C 196.667969 444.761719 192.914063 445.535156 189.636719 451.441406 C 187.878906 454.601563 183.660156 461.984375 182.253906 464.796875 C 180.210938 468.882813 178.128906 469.160156 179.796875 463.742188 C 181.199219 459.171875 181.070313 457.210938 182.960938 451.089844 C 185.601563 442.523438 182.136719 442.800781 180.496094 449.683594 C 178.738281 457.0625 175.351563 465.457031 174.523438 470.421875 C 173.46875 476.75 170.609375 471.820313 172.414063 464.09375 Z M 167.492188 532.992188 C 174.171875 535.804688 191.042969 534.046875 192.800781 530.882813 C 194.558594 527.71875 198.074219 524.90625 200.183594 530.882813 C 202.292969 536.855469 206.160156 540.722656 203.699219 544.589844 C 200.402344 549.769531 195.636719 551.800781 194.910156 546.347656 C 194.207031 541.074219 190.691406 541.074219 187.878906 544.589844 C 185.066406 548.105469 176.632813 545.292969 168.195313 543.535156 C 159.757813 541.777344 155.890625 545.996094 150.617188 544.589844 C 145.347656 543.183594 147.105469 541.074219 149.566406 540.019531 C 158.761719 536.078125 160.8125 530.179688 167.492188 532.992188 Z M 160.566406 307.5625 C 164.570313 288.195313 166.636719 294.226563 163.839844 308.078125 C 161.042969 321.929688 148.046875 409.855469 147.910156 428.230469 C 147.875 433.121094 146.117188 440.425781 145.914063 425.160156 C 145.714844 409.898438 156.5625 326.925781 160.566406 307.5625 Z M 141.34375 375.300781 C 141.195313 380.191406 139.269531 387.453125 139.417969 372.1875 C 139.566406 356.921875 152.308594 274.21875 156.757813 254.953125 C 161.203125 235.6875 163.128906 241.761719 160.015625 255.546875 C 156.90625 269.328125 141.902344 356.933594 141.34375 375.300781 Z M 176.191406 124.824219 C 175.230469 133.941406 173.824219 154.175781 172.851563 160.328125 C 171.796875 167.007813 170.390625 166.128906 171.269531 158.21875 C 172.148438 150.308594 173.027344 132.910156 174.433594 125.351563 C 175.839844 117.796875 176.542969 121.484375 176.191406 124.824219 Z M 147.925781 167.652344 C 149.800781 147.96875 163.859375 65.476563 168.546875 50.949219 C 173.234375 36.421875 172.765625 43.917969 171.359375 48.605469 C 166.078125 66.203125 152.609375 154.058594 151.203125 168.121094 C 149.800781 182.179688 146.050781 187.335938 147.925781 167.652344 Z M 137.992188 294.722656 C 139.867188 275.039063 153.929688 192.550781 158.617188 178.019531 C 163.304688 163.492188 162.835938 170.992188 161.429688 175.679688 C 156.148438 193.277344 142.679688 281.132813 141.273438 295.191406 C 139.867188 309.253906 136.121094 314.40625 137.992188 294.722656 Z M 107.382813 102.386719 C 108.085938 98.519531 110.195313 97.816406 109.84375 101.683594 C 109.363281 106.945313 108.4375 118.203125 107.03125 123.828125 C 105.625 129.453125 104.921875 129.453125 104.921875 124.882813 C 104.921875 120.3125 106.679688 106.253906 107.382813 102.386719 Z M 102.460938 169.878906 C 103.339844 161.96875 104.21875 144.570313 105.625 137.011719 C 107.03125 129.453125 107.734375 133.144531 107.382813 136.484375 C 106.421875 145.601563 105.015625 165.835938 104.042969 171.988281 C 102.988281 178.664063 101.582031 177.785156 102.460938 169.878906 Z M 121.210938 234.203125 C 110.527344 230.644531 96.105469 216.578125 94.964844 205.144531 C 94.496094 200.460938 97.777344 193.898438 98.710938 206.085938 C 99.648438 218.269531 113.710938 227.644531 119.804688 230.453125 C 125.894531 233.265625 125.425781 235.609375 121.210938 234.203125 Z M 130.871094 226.390625 C 123.394531 223.898438 113.296875 214.050781 112.496094 206.046875 C 112.171875 202.769531 114.464844 198.175781 115.121094 206.703125 C 115.777344 215.234375 125.621094 221.796875 129.886719 223.765625 C 134.152344 225.734375 133.824219 227.371094 130.871094 226.390625 Z M 127.800781 329.992188 C 128.503906 319.445313 130.4375 323.136719 129.558594 329.640625 C 128.378906 338.378906 129.558594 342.996094 128.503906 352.839844 C 127.449219 362.683594 126.394531 358.113281 126.042969 353.191406 C 125.691406 348.269531 127.097656 340.535156 127.800781 329.992188 Z M 220.921875 586.773438 C 220.183594 590.34375 216.351563 595.558594 217.054688 589.9375 C 217.757813 584.3125 213.296875 573.410156 208.617188 570.601563 C 204.226563 567.964844 195.261719 569.898438 197.371094 576.578125 C 199.480469 583.257813 201.238281 595.210938 206.859375 595.558594 C 212.484375 595.910156 214.945313 596.613281 211.078125 599.074219 C 207.214844 601.535156 203.699219 606.105469 207.5625 605.050781 C 211.429688 603.996094 212.71875 607.160156 209.90625 611.378906 C 207.097656 615.597656 212.835938 637.039063 206.859375 642.3125 C 200.886719 647.585938 204.308594 647.726563 205.453125 651.800781 C 206.511719 655.550781 204.164063 656.957031 202.644531 653.207031 C 202.011719 651.652344 201.496094 646.640625 199.589844 644.21875 C 196.625 640.457031 191.824219 639.746094 191.394531 642.3125 C 190.691406 646.53125 189.285156 653.910156 189.285156 659.183594 C 189.285156 664.457031 186.355469 665.746094 185.769531 659.886719 C 185.117188 653.351563 181.539063 643.945313 180.144531 639.148438 C 179.09375 635.515625 177.335938 636.101563 174.523438 636.453125 C 171.710938 636.804688 167.492188 612.082031 171.007813 607.511719 C 174.523438 602.941406 175.578125 599.484375 168.546875 599.777344 C 160.109375 600.128906 141.480469 598.957031 155.1875 574.117188 C 160.285156 564.878906 160.109375 563.339844 152.730469 560.175781 C 143.953125 556.414063 131.75 555.410156 127.421875 537.679688 C 124.183594 524.425781 130.144531 516.117188 132.253906 512.601563 C 134.363281 509.089844 140.445313 503.347656 136.207031 512.953125 C 125.574219 537.0625 138.578125 544.160156 144.527344 548.105469 C 147.503906 550.078125 152.703125 554.8125 157.296875 552.324219 C 165.734375 547.753906 173.46875 555.136719 180.144531 554.433594 C 186.824219 553.730469 202.097656 549.277344 208.386719 550.214844 C 211.515625 550.679688 216.351563 552.324219 211.429688 553.730469 C 206.511719 555.136719 204.367188 559.410156 208.617188 557.597656 C 215.765625 554.550781 219.0625 557.03125 214.945313 559.355469 C 204.050781 565.507813 222.40625 579.578125 220.921875 586.773438 Z M 356.546875 623.679688 C 353.632813 618.824219 351.335938 606.339844 350.863281 596.027344 C 350.394531 585.71875 352.972656 590.992188 353.089844 595.210938 C 353.542969 611.472656 354.683594 616.554688 358.890625 622.917969 C 361.175781 626.375 358.304688 626.609375 356.546875 623.679688 Z M 371.488281 608.683594 C 370.082031 596.964844 366.332031 574 369.144531 566.503906 C 371.953125 559.003906 372.894531 562.988281 371.019531 567.671875 C 367.363281 576.8125 372.777344 597.085938 373.714844 607.394531 C 374.648438 617.707031 372.894531 620.402344 371.488281 608.683594 "/>
<path style=" stroke:none;fill-rule:nonzero;fill:rgb(0%,0%,0%);fill-opacity:1;" d="M 224.804688 115.90625 C 225.234375 115.433594 225.695313 115.023438 226.195313 114.691406 C 225.050781 115.453125 224.671875 115.84375 224.804688 115.90625 "/>
<path style=" stroke:none;fill-rule:nonzero;fill:rgb(0%,0%,0%);fill-opacity:1;" d="M 162.921875 571.65625 C 159.640625 573.296875 154.71875 586.1875 154.953125 590.171875 C 155.1875 594.152344 160.578125 595.796875 166.4375 593.921875 C 172.296875 592.046875 172.207031 579.039063 170.890625 573.765625 C 170.421875 571.890625 166.203125 570.015625 162.921875 571.65625 "/>
<path style=" stroke:none;fill-rule:nonzero;fill:rgb(0%,0%,0%);fill-opacity:1;" d="M 195.496094 589.46875 C 195.496094 592.046875 196.199219 595.089844 197.136719 600.480469 C 198.074219 605.871094 194.792969 608.214844 192.214844 602.355469 C 190.195313 597.765625 190.835938 594.371094 191.277344 590.40625 C 191.746094 586.1875 188.925781 586.851563 188.230469 592.046875 C 187.761719 595.558594 188.933594 599.074219 189.167969 603.996094 C 189.402344 608.917969 184.949219 608.449219 182.371094 604.230469 C 179.796875 600.011719 179.949219 598.324219 181.902344 591.8125 C 182.605469 589.46875 180.265625 588.53125 178.390625 594.621094 C 176.515625 600.714844 177.921875 611.496094 179.5625 613.605469 C 181.199219 615.714844 182.136719 617.355469 180.496094 619.226563 C 178.855469 621.101563 184.714844 632.585938 185.652344 637.273438 C 186.589844 641.960938 190.105469 641.257813 191.042969 637.507813 C 191.910156 634.035156 197.605469 635.398438 199.949219 637.507813 C 202.292969 639.617188 204.402344 636.804688 205.105469 633.992188 C 206.222656 629.515625 204.871094 618.761719 205.808594 616.652344 C 206.742188 614.542969 206.511719 612.667969 204.164063 614.542969 C 200.570313 617.417969 198.542969 592.046875 198.542969 589.234375 C 198.542969 586.421875 195.496094 586.890625 195.496094 589.46875 "/>
<path style=" stroke:none;fill-rule:nonzero;fill:rgb(0%,0%,0%);fill-opacity:1;" d="M 401.601563 672.191406 C 394.570313 670.082031 393.164063 672.191406 393.867188 677.8125 C 394.570313 683.4375 394.21875 688.359375 401.601563 686.953125 C 408.980469 685.546875 412.875 684.007813 412.847656 681.328125 C 412.800781 676.753906 408.628906 674.300781 401.601563 672.191406 "/>
<path style=" stroke:none;fill-rule:nonzero;fill:rgb(0%,0%,0%);fill-opacity:1;" d="M 536.582031 702.070313 C 535.398438 700.589844 528.144531 698.203125 520.761719 697.148438 C 513.382813 696.09375 512.328125 689.414063 511.621094 685.546875 C 510.921875 681.679688 502.835938 678.867188 499.671875 678.867188 C 496.507813 678.867188 492.640625 675.707031 491.585938 672.191406 C 490.53125 668.675781 480.691406 666.566406 479.636719 670.433594 C 478.582031 674.300781 476.824219 675.003906 472.605469 672.191406 C 468.386719 669.378906 467.683594 664.105469 464.167969 660.238281 C 460.652344 656.371094 445.890625 651.800781 444.835938 671.839844 C 444.507813 678.046875 436.75 678.164063 433.9375 672.894531 C 431.128906 667.621094 425.324219 666.691406 418.824219 669.378906 C 416.527344 670.328125 413.550781 677.464844 420.582031 676.40625 C 422.914063 676.058594 427.261719 678.515625 429.722656 683.4375 C 432.179688 688.359375 439.5625 688.359375 441.671875 683.4375 C 443.730469 678.636719 464.964844 683.972656 460.652344 688.359375 C 451.265625 697.914063 468.386719 705.582031 470.847656 699.257813 C 472.058594 696.148438 473.308594 689.765625 477.878906 690.117188 C 482.449219 690.46875 483.59375 697.011719 481.394531 701.015625 C 477.527344 708.042969 485.261719 712.261719 488.421875 706.285156 C 490.050781 703.210938 490.179688 698.554688 490.179688 694.6875 C 490.179688 690.820313 495.101563 689.765625 497.5625 693.984375 C 500.023438 698.203125 508.460938 700.3125 513.382813 699.960938 C 518.300781 699.609375 529.242188 702.695313 533.066406 704.882813 C 535.527344 706.285156 537.988281 703.824219 536.582031 702.070313 "/>
</g>
</svg>
