<?xml version="1.0" encoding="UTF-8"?>
<svg xmlns="http://www.w3.org/2000/svg" xmlns:xlink="http://www.w3.org/1999/xlink" width="492pt" height="292pt" viewBox="0 0 492 292" version="1.1">
<g id="surface1">
<path style=" stroke:none;fill-rule:nonzero;fill:rgb(0%,0%,0%);fill-opacity:1;" d="M 412.785156 192.445313 C 286.59375 193.222656 122.328125 293.472656 4.949219 203.886719 C -0.707031 199.546875 -1.136719 200.46875 4.242188 205.15625 C 65.328125 258.019531 157.757813 257.238281 208.5 245.9375 C 269.644531 233.128906 358.253906 199.261719 396.046875 199.433594 C 398.601563 199.457031 398.03125 200.003906 396.085938 200.410156 C 309.539063 216.574219 232.855469 284.941406 159.339844 267.074219 C 150.84375 265.007813 149.84375 266.640625 159.914063 269.382813 C 207.511719 282.335938 269.816406 265.824219 314.871094 243.496094 C 318.046875 250.175781 322.476563 253.542969 328.71875 254.753906 C 341.265625 256.898438 336.699219 250.980469 340.761719 244.164063 C 346.765625 233.132813 371.863281 215.417969 407.292969 209.117188 C 474.792969 197.839844 492.832031 235.03125 478.972656 255.089844 C 461.003906 278.160156 430.015625 294.386719 398.289063 284.078125 C 389.59375 280.859375 381.378906 272.644531 379.769531 263.304688 C 375.21875 240.480469 403.601563 216.929688 433.40625 223.664063 C 464.292969 231.523438 454.84375 266.578125 422.125 263.070313 C 418.699219 262.421875 419.300781 260.410156 422.058594 258.445313 C 428.761719 253.765625 427.355469 244.203125 418.199219 241.34375 C 408.433594 238.871094 401.589844 249.539063 406.269531 259.117188 C 412.15625 270.472656 435.605469 275.105469 452.085938 258.460938 C 459.863281 255.578125 467.515625 249.839844 463.234375 236.453125 C 459.605469 226.328125 427.050781 199.71875 378.382813 233.203125 C 356.796875 233.234375 353.285156 282.753906 400.394531 291.003906 C 436.011719 295.671875 467.949219 281.445313 485.894531 252.835938 C 501.710938 221.632813 473.183594 192.46875 412.785156 192.445313 "/>
<path style=" stroke:none;fill-rule:nonzero;fill:rgb(0%,0%,0%);fill-opacity:1;" d="M 85.285156 211.082031 C 136.824219 211.140625 169.113281 194.667969 199.386719 170.777344 C 223.410156 171.34375 242.335938 163.601563 266.585938 150.734375 C 259.082031 160.613281 251.058594 172.457031 242.046875 184.996094 C 236.535156 191.222656 248.34375 203.03125 257.457031 193.761719 C 288.066406 165.980469 350.769531 112.039063 352.132813 111.058594 C 355.273438 108.789063 355.601563 110.046875 353.382813 112.992188 C 343.359375 124.644531 328.289063 148.855469 325.128906 157.296875 C 320.007813 172.691406 324.769531 189.761719 343.53125 179.238281 C 351.859375 174.222656 373.25 160.125 386.125 151.875 C 387.546875 151.066406 390.21875 149.667969 390.21875 149.667969 C 390.21875 149.667969 390 151.625 390.222656 152.832031 C 390.195313 171.617188 396.769531 181.414063 419.847656 181.363281 C 430.453125 181.414063 457.964844 173.359375 468.835938 158.464844 C 470.25 154.375 470.34375 148.558594 467.714844 147.605469 C 466.511719 147.171875 464.726563 148.003906 462.621094 151.074219 C 452.550781 164.234375 434.433594 173.757813 424.550781 173.707031 C 399.320313 173.765625 405.191406 155.914063 427.679688 126.148438 C 448.402344 96.0625 476.855469 81.601563 483.867188 99.515625 C 472.191406 103.644531 466.253906 118.136719 473.589844 121.386719 C 483.363281 124.679688 493.09375 112.28125 491.382813 101.921875 C 489.304688 89.320313 478.9375 84.015625 466.25 84.066406 C 433.003906 83.984375 405.054688 113.214844 392.007813 140.914063 C 377.324219 151 363.890625 159.929688 346.664063 167.878906 C 343.628906 169.199219 340.890625 170.253906 344.320313 163.507813 C 356.027344 140.496094 380.933594 112.300781 390.644531 98.558594 C 394.355469 93.242188 387.109375 81.96875 377.515625 87.609375 C 347.386719 105.859375 318.660156 130.824219 289.976563 154.878906 C 284.648438 159.21875 283.769531 158.449219 287.714844 152.914063 C 298.628906 137.601563 312.980469 119.730469 324.824219 104.503906 C 335.574219 91.097656 326.664063 96.546875 317.925781 99.203125 C 310.953125 93.601563 306.050781 96.195313 301.503906 102.113281 C 291.019531 114.714844 283.5 126.835938 273.039063 140.855469 C 252.75 151.484375 233.582031 164.636719 207.617188 164.746094 C 239.757813 138.871094 304.171875 70.429688 304.269531 10.46875 C 304.171875 4.132813 306.09375 -2.671875 297.359375 1.601563 C 258.59375 20.566406 232.777344 32.316406 205.847656 59.105469 C 165.035156 100.238281 142.140625 138.355469 177.984375 164.101563 C 156.085938 180.691406 133.214844 195.34375 106.804688 201.144531 C -17.777344 223.621094 -23.210938 99.414063 62.035156 76.730469 C 125.878906 63.015625 155.355469 127.144531 112.667969 158.902344 C 75.023438 184.566406 44.628906 153.96875 52.679688 138.660156 C 54.457031 135.269531 55.5625 137.246094 57.234375 138.570313 C 61.707031 142.125 71.402344 142.394531 75.707031 133.636719 C 78.246094 127.800781 71.402344 116.730469 58.960938 122.042969 C 26.914063 138.066406 50.53125 185.84375 94.566406 172.023438 C 174.535156 143.433594 129.175781 39.296875 41.746094 81.167969 C -20.125 112.167969 -14.867188 211.136719 85.285156 211.082031 Z M 203.898438 71.636719 C 226.988281 48.847656 252.550781 31.589844 279.941406 19.222656 C 283.644531 17.550781 285.382813 16.683594 283.4375 22.355469 C 263.980469 73.890625 233.582031 118.742188 184.132813 159.433594 C 153.867188 142.898438 172.65625 102.636719 203.898438 71.636719 "/>
<path style=" stroke:none;fill-rule:nonzero;fill:rgb(0%,0%,0%);fill-opacity:1;" d="M 470.960938 181.871094 C 480.746094 189.5 496.203125 170.683594 487.210938 164.503906 C 479.539063 159.234375 463.535156 175.609375 470.960938 181.871094 "/>
</g>
</svg>
