<?xml version="1.0" encoding="UTF-8"?>
<svg xmlns="http://www.w3.org/2000/svg" xmlns:xlink="http://www.w3.org/1999/xlink" width="505pt" height="570pt" viewBox="0 0 505 570" version="1.1">
<g id="surface1">
<path style=" stroke:none;fill-rule:nonzero;fill:rgb(0%,0%,0%);fill-opacity:1;" d="M 502.046875 525.660156 C 497.742188 529.019531 492.511719 536.003906 487.574219 537.945313 C 485.125 540.773438 480.054688 546.832031 476.367188 549.757813 C 475.945313 550.09375 475.695313 549.878906 475.960938 549.492188 C 483.695313 538.191406 491.566406 526.707031 498.074219 515.21875 C 498.683594 514.046875 505.117188 504.476563 496.503906 514.644531 C 493.121094 517.546875 489.914063 523.441406 486.609375 527.691406 C 485.898438 528.570313 485.832031 528.386719 486.132813 527.308594 C 488.332031 519.296875 492.605469 511.46875 494.171875 502.75 C 494.292969 502.0625 493.878906 502.0625 493.570313 502.761719 C 487.226563 517.179688 480.433594 531.503906 469.917969 543.824219 C 467.765625 545.609375 466.171875 542.667969 468.34375 541.515625 C 471.808594 539.203125 468.867188 536.371094 471.386719 533.21875 C 474.117188 531.242188 472.019531 527.96875 469.917969 529.019531 C 472.542969 520.410156 477.058594 512.640625 480.101563 504.136719 C 479.769531 501.457031 481.300781 499.046875 481.992188 496.367188 C 482.515625 494.8125 481.925781 495.019531 481.46875 496.1875 C 477.019531 506.390625 472.503906 516.792969 466.871094 526.078125 C 464.828125 528.910156 465.902344 522.101563 466.875 520.175781 C 467.558594 518.828125 467.890625 518.246094 466.136719 519.988281 C 465.402344 520.515625 464.878906 523.347656 464.246094 521.460938 C 462.359375 525.03125 461.519531 522.246094 461.9375 519.988281 C 458.90625 521.644531 461.421875 516.304688 461.605469 514.449219 C 462.417969 511.910156 461.3125 513.191406 460.816406 514.726563 C 460.140625 516.808594 458.992188 520.179688 457.421875 520.722656 C 454.667969 521.589844 456.398438 518.675781 456.863281 516.945313 C 458.328125 513.742188 457.085938 513.886719 456.078125 516.640625 C 455.820313 517.894531 455.097656 519.289063 454.097656 518.640625 C 452.207031 517.699219 450.703125 524.191406 451.019531 519.988281 C 451.859375 516.839844 449.652344 520.339844 448.394531 519.710938 C 446.714844 517.503906 447.554688 515.054688 447.238281 513.164063 C 446.886719 511.1875 445.242188 516.628906 444.191406 515.054688 C 443.457031 513.792969 443.878906 511.589844 443.773438 510.539063 C 444 509.613281 444.054688 504.957031 441.566406 507.914063 C 440.992188 506.683594 441.125 505.195313 440.957031 503.75 C 440.910156 503.347656 440.230469 502.597656 440.367188 503.84375 C 440.574219 505.710938 440.941406 508.800781 439.554688 510.3125 C 437.246094 510.941406 437.570313 503.074219 437.507813 502.695313 C 437.6875 498.648438 436.804688 499.777344 436.945313 502.890625 C 437.09375 506.1875 437.484375 507.976563 435.757813 509.386719 C 434.585938 510.03125 435.949219 512.886719 434.148438 512.167969 C 431.699219 510.539063 431.382813 507.074219 431.277344 502.980469 C 430.773438 500.324219 430.523438 501.410156 430.523438 503.066406 C 430.253906 507.191406 431.898438 512.527344 430.453125 515.765625 C 430.378906 516.148438 429.914063 516.207031 429.789063 515.835938 C 428.992188 513.480469 428.035156 511.628906 427.410156 509.261719 C 426.832031 507.128906 425.835938 507.160156 425.609375 509.386719 C 424.820313 513.269531 422.84375 506.636719 422.667969 508.648438 C 422.054688 511.519531 421.582031 517.03125 418.886719 510.960938 C 418.027344 507.984375 416.417969 508.046875 416.738281 506.410156 C 417.484375 505.21875 416.867188 505.328125 416.203125 505.757813 C 413.953125 506.578125 415.382813 510.292969 413.953125 512.011719 C 410.015625 497.832031 410.601563 485.59375 411.46875 471.140625 C 411.523438 470.179688 411.28125 470.167969 411.121094 471.15625 C 410.152344 477.230469 409.566406 482.382813 409.019531 489.398438 C 408.023438 496.863281 410.515625 505.804688 407.652344 513.121094 C 407.496094 513.523438 406.972656 513.410156 406.898438 512.945313 C 405.65625 504.777344 405.875 494.441406 404.464844 486.066406 C 404.058594 483.640625 403.773438 484.070313 403.898438 486.179688 C 404.234375 491.847656 404.449219 497.964844 403.550781 503.347656 C 403.488281 503.71875 403.171875 503.804688 403.082031 503.480469 C 400.121094 492.800781 396.640625 482.34375 393.746094 471.625 C 392.890625 468.148438 392.285156 468.511719 393.078125 471.992188 C 395.71875 485.035156 399.867188 497.460938 400.722656 511.273438 C 401.371094 513.21875 399.621094 512.832031 399.148438 512.011719 C 398.726563 510.75 399.898438 505.621094 396.976563 509.453125 C 394.773438 508.421875 397.0625 506.015625 396.46875 505.769531 C 395.171875 505.230469 392.800781 507.929688 393.476563 506.023438 C 395.628906 502.648438 391.570313 505.796875 392.53125 502.070313 C 394.546875 495.648438 390.992188 499.007813 391.273438 503.398438 C 390.03125 506.113281 390.78125 499.707031 388.648438 501.511719 C 374.683594 492.164063 365.757813 478.09375 354.207031 465.601563 C 354.628906 464.65625 357.359375 459.648438 354.628906 461.398438 C 355.320313 458.011719 356.828125 454.597656 358.097656 451.4375 C 358.976563 449.550781 359.011719 448.753906 357.242188 451.328125 C 356.851563 451.921875 356.472656 452.511719 356.097656 453.105469 C 353.882813 452.257813 353.160156 461.347656 351.304688 462.839844 C 350.597656 463.410156 348.234375 461.734375 348.539063 460.246094 C 349.589844 456.570313 348.433594 458.144531 346.648438 459.507813 C 343.53125 459.824219 348.011719 457.09375 346.226563 457.199219 C 343.707031 455.625 351.269531 451.320313 347.804688 450.058594 C 346.035156 449.675781 350.636719 448.34375 348.117188 448.171875 C 342.988281 447.296875 352.492188 442.113281 345.914063 439.875 C 351.269531 427.589844 356.011719 413.625 365.984375 403.230469 C 366.089844 401.121094 368.460938 398.648438 370.183594 396.496094 C 370.757813 395.78125 370.378906 395.816406 369.777344 396.339844 C 361.875 399.035156 350.898438 425.882813 345.546875 429.558594 C 343.996094 431.039063 344.96875 429.058594 345.179688 428.847656 C 347.835938 422.917969 343.914063 427.160156 342.300781 428.488281 C 342.019531 428.722656 341.328125 429.042969 341.921875 428.253906 C 345.097656 419.148438 348.089844 409.277344 350.398438 400.363281 C 350.550781 399.773438 350.269531 399.695313 349.988281 400.242188 C 346.003906 408.023438 343.273438 416.4375 338.847656 423.554688 C 338.683594 423.816406 338.429688 423.6875 338.472656 423.390625 C 338.710938 421.816406 338.996094 420.648438 338.234375 418.78125 C 337.445313 417.644531 343.347656 413.84375 340.152344 415.179688 C 340.019531 415.234375 339.875 414.980469 339.957031 414.78125 C 342.285156 409.066406 346.109375 401.074219 346.644531 395.636719 C 346.8125 393.949219 346.421875 394.183594 345.925781 395.484375 C 345.234375 398.085938 338.8125 418.816406 330.058594 426.960938 C 329.492188 427.617188 329.085938 427.210938 329.636719 426.644531 C 333.101563 417.402344 334.628906 399.089844 334.597656 397.8125 C 334.71875 396.433594 334.363281 396.132813 334.046875 397.757813 C 332.339844 406.832031 329.378906 422.203125 327.011719 420.972656 C 325.28125 419.742188 323.96875 422.757813 323.546875 420.238281 C 323.160156 416.796875 325.195313 412.890625 327.710938 409.4375 C 328.519531 408.351563 328.71875 407.332031 327.335938 409.246094 C 326.738281 409.859375 325.179688 411.679688 325.4375 410.789063 C 327.046875 404.25 330.679688 397.328125 333.476563 391.128906 C 333.597656 390.855469 333.421875 390.695313 333.1875 390.945313 C 328.941406 395.570313 319.914063 413.308594 320.1875 408.480469 C 320.964844 402.847656 321.382813 396.769531 322.519531 391.566406 C 322.613281 391.144531 322.421875 391.109375 322.246094 391.515625 C 319.742188 397.226563 318.578125 401.390625 317.144531 409.632813 C 316.199219 414.675781 310.738281 415.933594 309.582031 420.554688 C 309.371094 421.40625 307.378906 421.394531 307.691406 419.820313 C 308.101563 418.875 309.855469 416.644531 307.761719 418.074219 C 307.648438 418.15625 307.417969 417.988281 307.441406 417.8125 C 308.089844 412.617188 310.007813 407.902344 311.5 402.992188 C 311.96875 401.453125 312.015625 401.457031 311.222656 402.878906 C 308.96875 406.9375 306.460938 410.78125 304.648438 414.882813 C 303.152344 417.71875 299.894531 421.550781 300.132813 419.085938 C 300.761719 416.144531 300.761719 414.464844 299.398438 418.664063 C 298.664063 419.164063 297.929688 419.085938 297.507813 417.929688 C 297.796875 410.703125 299.5 402.0625 300.023438 395.492188 C 300.136719 394.054688 300.027344 393.996094 299.625 395.316406 C 297.671875 401.730469 297.277344 409.253906 294.464844 414.882813 C 291.839844 407.824219 293.308594 417.195313 290.683594 415.304688 C 275.878906 407.640625 273.410156 392.414063 254.089844 387.058594 C 253.144531 383.277344 251.308594 377.085938 246.476563 374.460938 C 242.605469 355.109375 238.347656 335.070313 248.304688 311.777344 C 250.613281 303.605469 255.03125 305.226563 260.328125 296.5 C 260.585938 295.773438 261.847656 295.476563 262.101563 296.011719 C 263.230469 298.386719 263.4375 300.460938 264.378906 303.375 C 264.484375 305.578125 266.742188 307.257813 268.265625 304.109375 C 275.195313 294.972656 275.667969 285.105469 279.34375 274.710938 C 454.179688 337.65625 495.933594 174.3125 483.636719 123.824219 C 468.273438 43.359375 413.636719 6.851563 348.886719 0.554688 C 207.839844 -5.046875 186.386719 127.894531 198.492188 170.757813 C 197.757813 171.285156 198.492188 172.4375 197.757813 172.964844 C 192.925781 171.179688 188.097656 172.28125 182.636719 169.183594 C 177.648438 164.878906 176.128906 168.765625 180.328125 172.230469 C 184.503906 179.972656 187.117188 187.007813 195.886719 190.664063 C 196.519531 191.222656 196.195313 192.171875 195.398438 192.089844 C 186.652344 191.179688 181.050781 186.300781 167.253906 194.699219 C 165.730469 196.117188 173.503906 196.167969 175.390625 196.800781 C 184.84375 205.460938 197.441406 210.34375 208.046875 204.777344 C 209.945313 213.996094 220.921875 211.992188 220.804688 211.972656 C 227.628906 215.277344 192.578125 267.804688 179.023438 279.648438 C 163.75 290.503906 143.015625 254.839844 136.4375 355.558594 C 130.648438 363.964844 81.761719 334.035156 48.378906 263.695313 C 47.210938 260.121094 46.210938 258.742188 46.867188 265.152344 C 46.777344 266.75 47.675781 268.558594 47.605469 270.089844 C 47.398438 273.238281 44.878906 271.140625 43.511719 270.507813 C 43.210938 273.238281 50.113281 282.480469 49.183594 283.003906 C 48.527344 283.386719 43.867188 277.296875 44.457031 279.472656 C 46.097656 286.390625 50.441406 296.339844 56.320313 303.375 C 56.53125 304.4375 50.21875 299.921875 52.421875 302.46875 C 54.628906 305.09375 58.25 308.441406 61.675781 310.933594 C 65.351563 314.136719 55.207031 308.507813 57.476563 310.933594 C 59.578125 314.398438 74.382813 330.570313 61.257813 322.273438 C 57.28125 320.671875 65.601563 329.664063 73.332031 331.722656 C 75.746094 332.273438 73.582031 334.203125 70.351563 333.074219 C 68.355469 332.234375 61.085938 329.007813 63.632813 332.667969 C 66.925781 336.671875 71.652344 337.605469 75.957031 339.703125 C 77.164063 340.269531 76.785156 340.660156 74.90625 340.4375 C 72.085938 339.992188 66.230469 337.617188 69.972656 341.59375 C 74.683594 346.28125 90.394531 350.609375 86.5625 351.042969 C 83.308594 351.570313 80.746094 352.09375 75.957031 350.625 C 74.800781 350.007813 73.316406 349.894531 75.117188 351.699219 C 79.527344 356.53125 86.457031 357.238281 92.230469 359.757813 C 96.675781 362.078125 90.285156 362.46875 86.183594 360.261719 C 84.550781 359.460938 83.796875 360.070313 84.671875 361.230469 C 88.976563 367.003906 96.957031 365.535156 102.417969 368.054688 C 104.242188 368.710938 95.421875 368.1875 95.695313 369.523438 C 98.53125 374.355469 107.207031 370.652344 111.828125 371.492188 C 113.824219 371.46875 113.679688 372.332031 112.917969 373.09375 C 110.921875 375.089844 105.265625 373.644531 104.726563 375.613281 C 105.566406 377.398438 112.183594 376.347656 109.660156 377.503906 C 82.992188 383.175781 73.015625 420.398438 62.410156 420.238281 C 56.636719 420.238281 51.808594 424.4375 41.097656 449.007813 C 35.390625 461.90625 26.257813 449.867188 10.679688 489.539063 C 2.335938 492.042969 5.398438 501.824219 0.777344 508.230469 C -0.484375 509.84375 -0.078125 511.210938 1.511719 509.386719 C 5.1875 505.183594 5.867188 497.125 9.070313 495 C 18.324219 489.382813 18.417969 475.503906 26.1875 467.105469 C 43.933594 459.160156 47.816406 448.308594 54.433594 437.984375 C 57.6875 433.996094 59.890625 425.523438 64.617188 427.378906 C 59.996094 434.9375 63.21875 443.585938 66.191406 450.796875 C 62.550781 455.835938 59.15625 461.050781 58.945313 467.488281 C 58.855469 473.003906 54.503906 477.789063 53.769531 482.488281 C 52.960938 484.386719 53.210938 485.792969 55.019531 482.492188 C 61.054688 472.476563 60.628906 460.554688 68.398438 451.214844 C 66.820313 446.804688 64.722656 439.664063 68.816406 435.675781 C 69.867188 422.339844 77.742188 411.839844 83.9375 400.5 C 89.460938 393.296875 104.09375 385.164063 116.761719 380.023438 C 143.890625 379.292969 142.800781 373.378906 166.152344 371.886719 C 170.140625 376.507813 165.628906 380.339844 166.363281 385.800781 C 167.621094 389.894531 171.191406 390.628906 175.8125 390.628906 C 191.351563 386.429688 206.472656 389.160156 219.597656 399.027344 C 226.105469 402.492188 224.636719 391.785156 230.9375 393.777344 C 235.796875 394.914063 234.027344 386.480469 230.90625 383.53125 C 230.800781 383.265625 231.246094 383.027344 231.546875 383.191406 C 234.011719 384.554688 234.347656 386.644531 238.917969 387.269531 C 240.28125 390.105469 243.730469 390.242188 247.214844 390.3125 C 261.597656 391.152344 274.199219 404.59375 279.34375 417.195313 C 277.296875 420.34375 276.558594 423.101563 276.808594 426.644531 C 277.605469 430.6875 276.765625 434.808594 274.945313 431.105469 C 274.816406 430.84375 274.613281 430.964844 274.617188 431.316406 C 274.636719 435.96875 270.652344 436.871094 269.578125 440.1875 C 266.847656 440.398438 267.242188 445.597656 263.566406 445.492188 C 261.507813 438.753906 257.914063 432.640625 255.578125 426.035156 C 255.292969 425.230469 255.144531 425.28125 255.339844 426.121094 C 258.394531 439.257813 262.753906 452.492188 262.753906 465.914063 C 262.949219 468.003906 259.785156 471.359375 258.238281 469.378906 C 253.601563 458.109375 244.671875 441.078125 245.007813 441.890625 C 243.371094 437.921875 242.765625 438.246094 244.464844 442.320313 C 246.371094 446.882813 249.53125 451.460938 250.488281 456.078125 C 251.003906 456.890625 250.722656 457.191406 250.144531 456.421875 C 249.253906 455.5625 248.570313 454.628906 248.449219 454.460938 C 245.804688 450.488281 245.671875 451.589844 247.859375 454.703125 C 250.253906 458.175781 253.589844 463.730469 253.300781 467.804688 C 253.199219 469.90625 256.769531 472.949219 254.039063 473.472656 C 253.613281 476.863281 250.917969 470.296875 251.414063 475.363281 C 246.257813 466.679688 243.808594 455.792969 239.210938 446.96875 C 238.75 446.085938 238.453125 446.195313 238.800781 447.105469 C 241.902344 455.304688 244.871094 463.78125 246.476563 472.003906 C 247.710938 475.53125 247.519531 478.296875 247.441406 478.550781 C 247.644531 479.59375 246.851563 479 246.675781 478.84375 C 246.339844 478.109375 245.933594 476.84375 245.585938 475.925781 C 243.636719 469.9375 244.019531 472.992188 244.402344 475.394531 C 244.46875 475.804688 244.117188 475.933594 243.886719 475.636719 C 238.71875 468.980469 235.425781 461.539063 229.355469 455.292969 C 229.015625 454.945313 228.910156 455.097656 229.234375 455.558594 C 234.746094 463.453125 244.5625 479.625 245.28125 481.335938 C 245.019531 483.59375 242.105469 486.207031 241.1875 487.992188 C 236.1875 483.839844 230.078125 479.8125 224.515625 476.472656 C 223.886719 476.097656 223.703125 476.160156 224.238281 476.554688 C 229.628906 480.5625 235.226563 484.722656 239.71875 489.882813 C 236.566406 495.027344 231.671875 499.828125 229.46875 505.605469 C 223.273438 513.164063 209.621094 513.792969 213.191406 529.441406 C 201.589844 540.464844 190.195313 551.332031 181.796875 564.773438 C 180.140625 568.085938 177.941406 574.046875 183.6875 566.503906 C 192.507813 552.433594 205.632813 541.722656 216.65625 530.175781 C 215.554688 515.789063 224.953125 512.640625 232.09375 507.496094 C 234.71875 501.351563 239.179688 497.574219 242.460938 493.292969 C 248.972656 500.328125 255.71875 509.386719 259.707031 517.363281 C 261.074219 518.625 263.277344 518.414063 263.488281 516.210938 C 265.589844 516.417969 267.792969 515.371094 268.738281 513.585938 C 272.519531 515.578125 271.46875 506.339844 273.355469 512.847656 C 274.40625 513.480469 276.613281 514.84375 277.453125 513.164063 C 278.921875 512.953125 281.546875 515.054688 283.542969 514.320313 C 284.488281 509.910156 289.527344 515.160156 292.257813 511.273438 C 298.871094 513.898438 308.53125 514.320313 315.253906 512.429688 C 317.5625 512.429688 320.398438 511.695313 322.496094 513.585938 C 327.222656 512.011719 331.316406 515.054688 335.308594 512.429688 C 337.722656 510.539063 341.652344 513.054688 342.449219 513.585938 C 344.757813 516.105469 347.804688 513.480469 350.847656 514.320313 C 354.988281 515.222656 354.292969 511.0625 355.78125 509.398438 C 357.953125 506.96875 358.144531 505.75 354.628906 507.914063 C 353.28125 508.5625 353 510.609375 351.898438 509.804688 C 351.480469 507.808594 349.613281 510.03125 347.914063 510.777344 C 347.472656 510.972656 346.878906 510.953125 347.347656 510.15625 C 348.488281 508.667969 349.007813 507.023438 350.429688 505.605469 C 352.316406 502.753906 348.746094 505.816406 348.957031 503.714844 C 349.796875 502.980469 352.351563 499.847656 348.992188 501.632813 C 348.0625 502.132813 348.210938 501.808594 348.644531 501.289063 C 349.152344 500.683594 350.054688 499.816406 350.109375 499.675781 C 350.734375 498.113281 349.65625 498.632813 348.886719 499.523438 C 348.011719 500.539063 347.382813 501.957031 347.382813 499.933594 C 347.488281 490.695313 350.007813 480.824219 352.316406 471.585938 C 359.039063 490.066406 386.023438 497.519531 387.492188 512.011719 C 388.183594 514.128906 397.691406 511.640625 396.460938 520.3125 C 395.59375 524.464844 391.6875 518.855469 391.507813 518.609375 C 389.867188 516.371094 389.210938 516.542969 390.714844 518.800781 C 392.746094 522.671875 394.632813 526.359375 390.714844 530.261719 C 386.929688 533.027344 400.460938 533.890625 401.039063 533.21875 C 404.398438 530.804688 402.824219 537.050781 406.078125 535.476563 C 408.074219 537.15625 413.21875 535.425781 415.421875 536.265625 C 418.78125 543.195313 429.414063 540.28125 432.433594 546.449219 C 432.011719 547.816406 435.582031 546.660156 436.214844 547.605469 C 436.84375 550.125 435.164063 551.699219 434.742188 553.589844 C 434.394531 555.742188 440.746094 557.773438 447.046875 559.347656 C 446.730469 565.4375 452.90625 557.054688 455.53125 561.988281 C 459.734375 560.414063 460.519531 563.933594 468.761719 563.039063 C 481.992188 560.78125 489.5 537.996094 502.207031 526.867188 C 506.984375 522.964844 504.707031 523.542969 502.046875 525.660156 Z M 196.601563 204.410156 C 190.238281 203.867188 185.476563 200.945313 180.828125 196.558594 C 176.695313 194.300781 171.253906 193.121094 181.535156 193.234375 C 188.898438 195.0625 194.351563 194.933594 202.535156 196.167969 C 208.308594 193.4375 204.058594 199.371094 207.523438 201.3125 C 200.695313 202.835938 200.488281 204.203125 196.601563 204.410156 Z M 209.832031 192.285156 C 206.996094 194.277344 202.113281 185.929688 199.386719 185.195313 C 191.980469 183.359375 189.515625 179.789063 187.414063 174.960938 C 192.769531 175.695313 214.242188 177.742188 209.832031 192.285156 Z M 220.019531 204.359375 C 214.871094 211.289063 211.25 206.617188 212.457031 197.640625 C 212.039063 191.023438 219.125 192.492188 221.171875 197.953125 C 221.90625 200.160156 221.488281 202.679688 220.019531 204.359375 Z M 214.507813 189.925781 C 213.832031 182.808594 209.011719 176.871094 205.5625 174.769531 C 200.101563 146.011719 197.09375 8.53125 344.339844 7.867188 C 439.644531 7.097656 489.9375 105.660156 474.957031 170.898438 C 445.734375 308.34375 309.828125 288.113281 279.34375 267.882813 C 275.457031 261.164063 282.230469 247.410156 280.917969 237.644531 C 279.972656 233.96875 276.097656 227.964844 272.527344 225.761719 C 266.121094 218.480469 265.046875 207.683594 278.503906 203.203125 C 294.148438 198.007813 290.753906 184.269531 297.683594 171.984375 C 306.1875 164.808594 306.222656 157.421875 309.164063 146.085938 C 309.371094 143.460938 311.894531 132.890625 307.308594 131.804688 C 294.128906 128.8125 289.84375 148.742188 266.742188 151.859375 C 255.453125 151.804688 254.351563 158 247.949219 164.667969 C 238.8125 161.097656 230.308594 153.117188 219.28125 154.484375 C 204.949219 152.804688 221.382813 161.625 220.4375 166.140625 C 219.914063 173.59375 221.695313 180.417969 229.046875 183.988281 C 230.414063 188.1875 230.203125 192.546875 227.683594 195.589844 C 224.335938 191.683594 218.683594 189.84375 214.507813 189.925781 Z M 228.941406 378.660156 C 218.023438 376.242188 209.519531 373.234375 196.285156 372.988281 C 193.136719 371.097656 195.132813 369.210938 196.601563 367.320313 C 205.84375 359.863281 232.792969 342.800781 216.148438 326.316406 C 218.824219 323.703125 225.144531 316.390625 227.664063 313.242188 C 224.988281 337.175781 226.972656 353.054688 230.566406 370.792969 C 228.675781 375.9375 228.417969 373.515625 228.941406 378.660156 Z M 232.066406 230.84375 C 228.179688 224.226563 231.847656 220.007813 222.910156 211.253906 C 225.957031 209.78125 227.734375 202.234375 226.683594 199.1875 C 225.425781 197.613281 227.53125 198.308594 229.214844 200.722656 C 240.132813 216.261719 248.289063 232.617188 266.769531 236.710938 C 271.410156 238.0625 271.183594 233.648438 271.246094 230.9375 C 270.628906 228.835938 270.386719 227.488281 273.460938 230.886719 C 279.722656 238.234375 276.089844 244.257813 275.246094 249.71875 C 273.355469 264 277.976563 276.597656 269.894531 288.253906 C 269.257813 289.839844 268.507813 291.386719 267.714844 292.894531 C 267.191406 293.886719 265.449219 298.734375 264.980469 292.359375 C 260.839844 282.480469 249.90625 274.546875 243.117188 264.839844 C 238.402344 259.742188 244.113281 240.386719 232.066406 230.84375 Z M 249.894531 497.230469 C 248.667969 495.84375 246.855469 492.871094 244.371094 490.234375 C 245.074219 489.097656 245.542969 487.015625 246.898438 486.179688 C 247.972656 489.011719 249.417969 494.097656 250.113281 497.054688 C 250.164063 497.28125 250.066406 497.425781 249.894531 497.230469 Z M 286.902344 419.398438 C 287.847656 424.4375 283.753906 428.324219 284.699219 433.785156 C 283.964844 432.945313 282.808594 433.679688 282.808594 434.519531 C 282.808594 436.199219 283.855469 438.507813 281.652344 439.453125 C 277.136719 437.25 280.917969 432.945313 283.121094 429.6875 C 280.289063 424.753906 286.480469 423.496094 286.902344 419.398438 Z M 279.996094 420.632813 C 281.277344 418.539063 281.050781 420.394531 280.65625 420.835938 C 279.527344 423.105469 279.261719 425.425781 278.789063 427.722656 C 278.730469 428.007813 278.441406 427.980469 278.425781 427.574219 C 278.351563 425.511719 279.304688 421.894531 279.996094 420.632813 Z M 265.632813 479.84375 C 265.074219 479.261719 264.246094 478.78125 263.714844 480.238281 C 263.613281 480.511719 263.355469 480.5625 263.261719 480.183594 C 262.457031 477.070313 259.648438 473.160156 263.488281 469.695313 C 264.550781 472.695313 265.316406 476.253906 266.046875 479.722656 C 266.109375 480.015625 265.976563 480.199219 265.632813 479.84375 Z M 297.929688 467.804688 C 297.191406 471.164063 297.269531 477.804688 295.617188 477.675781 C 294.253906 476.941406 294.988281 474.628906 293.726563 473.472656 C 292.738281 466.757813 291.660156 460.691406 289.261719 454.3125 C 289.109375 453.910156 288.953125 453.507813 288.792969 453.105469 C 288.808594 453.613281 288.835938 454.113281 288.871094 454.609375 C 289.339844 460.890625 291.363281 466.347656 290.683594 473.160156 C 290.578125 475.46875 288.324219 476.90625 288.144531 476.128906 C 287.273438 472.371094 287.175781 468.292969 286.953125 464.1875 C 286.878906 462.769531 286.800781 462.8125 286.421875 464.105469 C 285.476563 467.3125 285.253906 462.511719 284.699219 458.773438 C 284.65625 457.949219 283.914063 457.171875 284.136719 459.136719 C 283.324219 464.75 286.996094 473.902344 285.433594 475.363281 C 281.339844 478.683594 280.75 459.691406 278.753906 455.164063 C 278.558594 454.71875 278.296875 454.734375 278.355469 455.183594 C 279.039063 460.566406 279.898438 466.476563 280.058594 472.332031 C 280.066406 472.605469 279.78125 472.675781 279.652344 472.425781 C 277.503906 468.339844 277.992188 462.632813 275.125 457.941406 C 274.90625 457.582031 274.617188 457.582031 274.714844 457.925781 C 276.28125 463.570313 276.207031 468.492188 278.1875 474.628906 C 275.5625 472.632813 278.921875 479.144531 275.980469 475.785156 C 275.316406 474.550781 274.671875 473.632813 273.390625 469.179688 C 272.910156 467.59375 272.714844 468.0625 272.9375 469.507813 C 273.117188 474.574219 276.136719 477.566406 275.246094 482.609375 C 272.386719 480.5625 274.800781 486.496094 275.011719 488.175781 C 275.773438 489.34375 274.894531 489.550781 274.40625 488.59375 C 272.148438 484.632813 272.203125 478.933594 269.578125 474.628906 C 266.324219 466.4375 266.53125 458.144531 264.957031 449.324219 C 266.609375 447.121094 268.417969 443.6875 270.871094 442.558594 C 271.175781 442.359375 271.652344 442.6875 271.519531 443.003906 C 270.804688 444.691406 269.058594 446.558594 270.5625 447.710938 C 273.265625 449.890625 271.308594 445.832031 275.246094 448.171875 C 275.941406 448.496094 276.519531 448.550781 276.71875 447.015625 C 277.769531 444.179688 278.699219 450.871094 281.429688 449.507813 C 283.214844 448.246094 287.347656 449.941406 291.652344 450.871094 C 293.542969 450.871094 294.976563 451.347656 297.441406 449.378906 C 297.140625 451.089844 299.601563 462.398438 297.121094 457.230469 C 296.628906 456.203125 296.496094 456.378906 296.664063 457.554688 C 297.15625 461.007813 299.378906 464.128906 297.929688 467.804688 Z M 304.660156 471.742188 C 304.785156 472.394531 304.21875 472.503906 304.011719 472.0625 C 303.21875 470.386719 301.347656 470.644531 302.757813 467.488281 C 303.597656 465.703125 302.863281 461.503906 302.023438 463.289063 C 301.183594 458.039063 299.1875 452.476563 298.976563 447.433594 C 301.707031 445.859375 299.011719 449.570313 302.863281 448.871094 C 303.492188 449.5 305.699219 448.484375 306.539063 448.589844 C 304.285156 456.632813 304.820313 465.175781 304.660156 471.742188 Z M 345.769531 485.414063 C 345.679688 485.84375 345.402344 485.875 345.320313 485.320313 C 345.183594 484.398438 344.980469 483.304688 344.722656 482.492188 C 344.601563 482.109375 344.046875 482.179688 343.957031 482.503906 C 342.949219 486.125 345.566406 491.472656 342.867188 494.265625 C 344.234375 489.539063 340.558594 486.703125 339.507813 482.925781 C 337.722656 487.441406 337.722656 483.238281 337.617188 481.035156 C 337.328125 477.472656 336.105469 480.097656 335.714844 482.835938 C 335.492188 484.378906 335.246094 484.351563 335.363281 482.839844 C 335.496094 481.082031 335.304688 479.511719 333.839844 480.300781 C 333.738281 473.058594 334.023438 465.621094 333.492188 458.546875 C 333.414063 457.511719 333.117188 457.558594 332.824219 458.6875 C 332.367188 460.460938 332.433594 475.96875 331.816406 479.734375 C 331.578125 485.011719 330.164063 476.097656 328.902344 481.035156 C 327.222656 481.664063 325.753906 471.792969 325.859375 479.144531 C 325.226563 482.714844 322.273438 475.679688 322.3125 479.09375 C 322.457031 481.21875 320.304688 482.097656 320.609375 481.035156 C 322.496094 476.941406 317.878906 480.824219 319.453125 476.941406 C 319.664063 475.363281 319.910156 472.476563 319.703125 469.535156 C 321.042969 465.246094 319.167969 466.417969 318.4375 468.011719 C 318.273438 468.210938 317.972656 468.054688 317.964844 467.804688 C 317.839844 464.601563 318.515625 460.863281 317.28125 458.117188 C 317.199219 457.519531 316.222656 457.164063 316.085938 458.359375 C 314.140625 464.601563 317.890625 474.355469 316.605469 473.945313 C 315.875 473.023438 311.375 470.46875 316.40625 476.097656 C 317.746094 479.8125 316.984375 481.179688 315.988281 482.609375 C 313.992188 483.660156 314.9375 478.933594 314.097656 477.253906 C 313.992188 476.835938 313.636719 475.875 311.894531 476.519531 C 312.09375 467.324219 312.277344 459.125 310.25 449.9375 C 310.171875 449.488281 309.96875 449.496094 309.953125 449.957031 C 309.738281 456.304688 309.75 463.152344 309.460938 469.121094 C 309.40625 470.21875 309.222656 470.273438 309.175781 469.246094 C 306.636719 460.300781 307.925781 455.554688 307.378906 448.171875 C 311.683594 447.328125 315.882813 448.695313 318.71875 444.808594 C 321.761719 439.035156 347.882813 467.097656 349.535156 468.90625 C 347.886719 473.953125 346.871094 480.148438 345.769531 485.414063 "/>
</g>
</svg>
