<?xml version="1.0" encoding="UTF-8"?>
<svg xmlns="http://www.w3.org/2000/svg" xmlns:xlink="http://www.w3.org/1999/xlink" width="449pt" height="577pt" viewBox="0 0 449 577" version="1.1">
<g id="surface1">
<path style=" stroke:none;fill-rule:nonzero;fill:rgb(13.729858%,12.159729%,12.548828%);fill-opacity:1;" d="M 387.257813 206.980469 C 366.40625 120.664063 396.195313 87.347656 413.128906 83.214844 C 407.878906 76.078125 379.53125 47.945313 313.703125 42.261719 C 318.742188 37.171875 318.742188 26.398438 318.816406 26 C 275.515625 26.699219 256.691406 1.859375 224.25 0.507813 C 191.808594 1.859375 172.984375 26.699219 129.683594 26 C 129.757813 26.398438 129.757813 37.171875 134.796875 42.261719 C 68.96875 47.945313 40.621094 76.078125 35.371094 83.214844 C 52.304688 87.347656 82.09375 120.664063 61.242188 206.980469 C 40.394531 293.324219 -37.867188 385.765625 22.832031 461.519531 C 36.121094 478.109375 54.3125 491.40625 74.128906 501.136719 L 74.007813 517.78125 C 131.648438 519.277344 136.371094 576.4375 224.25 576.492188 C 312.128906 576.4375 316.851563 519.277344 374.492188 517.78125 L 374.371094 501.136719 C 394.1875 491.40625 412.378906 478.109375 425.667969 461.519531 C 486.367188 385.765625 408.105469 293.324219 387.257813 206.980469 Z M 416.289063 454.011719 C 404.351563 468.910156 387.695313 481.191406 369.070313 490.339844 C 364.941406 492.371094 362.332031 496.601563 362.363281 501.210938 L 362.410156 506.820313 C 339.417969 510.398438 324.152344 522.300781 309.878906 533.238281 C 289.746094 548.652344 269.214844 564.476563 224.25 564.476563 C 179.269531 564.476563 158.738281 548.652344 138.609375 533.238281 C 124.335938 522.300781 109.066406 510.398438 86.089844 506.820313 L 86.121094 501.210938 C 86.152344 496.601563 83.542969 492.371094 79.414063 490.339844 C 60.789063 481.191406 44.132813 468.910156 32.195313 454.011719 C 17.664063 435.882813 12.191406 416.925781 12.191406 396.976563 C 12.191406 363.640625 27.3125 327.792969 44.019531 288.746094 C 54.980469 263.117188 66.503906 236.285156 72.902344 209.761719 C 78.152344 188.054688 80.378906 169.269531 80.378906 153.101563 C 80.378906 117.394531 69.160156 93.378906 55.207031 80.894531 C 67.925781 71.363281 93.160156 57.878906 135.824219 54.199219 C 144.625 53.441406 149.183594 44.082031 145.570313 36.894531 C 163.441406 34.414063 177.1875 28.15625 188.996094 22.789063 C 202.265625 16.800781 212.136719 12.503906 224.25 12.503906 C 236.363281 12.503906 246.222656 16.800781 259.488281 22.789063 C 271.3125 28.15625 285.042969 34.414063 302.933594 36.894531 C 299.300781 44.082031 303.875 53.441406 312.660156 54.199219 C 355.324219 57.878906 380.558594 71.363281 393.296875 80.894531 C 379.324219 93.378906 368.109375 117.394531 368.109375 153.101563 C 368.109375 169.269531 370.332031 188.054688 375.582031 209.761719 C 381.980469 236.285156 393.503906 263.117188 404.464844 288.746094 C 421.171875 327.792969 436.308594 363.640625 436.308594 396.976563 C 436.308594 416.925781 430.820313 435.882813 416.289063 454.011719 "/>
<path style=" stroke:none;fill-rule:nonzero;fill:rgb(13.729858%,12.159729%,12.548828%);fill-opacity:1;" d="M 401.25 291.296875 C 401.105469 290.957031 400.148438 288.71875 399.925781 288.199219 C 389.257813 263.253906 378.039063 236.839844 371.722656 210.675781 C 366.410156 188.722656 364.140625 169.59375 364.140625 153.078125 C 364.140625 119.519531 373.835938 95.480469 387.101563 81.367188 C 373.949219 72.535156 350.265625 61.402344 312.355469 58.160156 C 303.347656 57.378906 297.714844 49.796875 297.714844 42.113281 C 297.714844 41.488281 297.746094 40.808594 297.84375 40.078125 C 282.441406 37.328125 270.140625 31.957031 259.707031 27.242188 C 259.222656 27.023438 256.785156 25.890625 256.25 25.648438 C 243.761719 20.007813 234.949219 16.453125 224.28125 16.453125 C 213.585938 16.453125 204.722656 20.03125 192.183594 25.699219 C 191.6875 25.925781 189.171875 27.0625 188.589844 27.324219 C 178.21875 32.011719 165.988281 37.355469 150.722656 40.078125 C 150.800781 40.753906 150.847656 41.488281 150.847656 42.113281 C 150.847656 49.796875 145.214844 57.378906 136.191406 58.160156 C 98.28125 61.402344 74.597656 72.535156 61.460938 81.367188 C 74.710938 95.480469 84.410156 119.519531 84.410156 153.078125 C 84.410156 169.59375 82.136719 188.722656 76.824219 210.675781 C 70.539063 236.703125 59.40625 262.980469 48.785156 287.8125 C 48.507813 288.460938 47.453125 290.929688 47.316406 291.253906 C 30.6875 330.160156 16.222656 364.867188 16.222656 396.953125 C 16.222656 416.085938 21.441406 434.117188 35.347656 451.46875 C 46.835938 465.789063 62.980469 477.757813 81.207031 486.695313 C 86.695313 489.414063 90.152344 494.714844 90.152344 500.832031 L 90.136719 503.421875 C 111.476563 507.597656 126.289063 518.726563 139.414063 528.726563 C 139.753906 528.984375 141.746094 530.578125 142.007813 530.773438 C 161.574219 545.730469 181.308594 560.445313 224.28125 560.445313 C 267.0625 560.445313 286.8125 545.851563 306.300781 530.957031 C 306.640625 530.699219 308.84375 528.949219 309.210938 528.671875 C 322.3125 518.6875 337.113281 507.640625 358.410156 503.421875 L 358.394531 500.851563 C 358.394531 494.789063 361.867188 489.414063 367.339844 486.695313 C 385.566406 477.757813 401.710938 465.789063 413.203125 451.46875 C 427.105469 434.117188 432.339844 416.085938 432.339844 396.953125 C 432.339844 364.878906 417.871094 330.1875 401.25 291.296875 "/>
</g>
</svg>
