<?xml version="1.0" encoding="UTF-8"?>
<svg xmlns="http://www.w3.org/2000/svg" xmlns:xlink="http://www.w3.org/1999/xlink" width="544pt" height="114pt" viewBox="0 0 544 114" version="1.1">
<g id="surface1">
<path style=" stroke:none;fill-rule:nonzero;fill:rgb(0%,0%,0%);fill-opacity:1;" d="M 530.257813 24.71875 L 530.257813 16.261719 C 512.851563 15.351563 503.335938 10.378906 503.335938 0.0976563 L 40.984375 0.0976563 C 40.984375 10.378906 31.46875 15.351563 14.066406 16.261719 L 14.066406 24.71875 C 2.859375 28.945313 0.605469 42.210938 0.605469 56.714844 C 0.605469 71.222656 2.859375 84.484375 14.066406 88.714844 L 14.066406 97.167969 C 31.46875 98.078125 40.984375 103.054688 40.984375 113.332031 L 503.335938 113.332031 C 503.335938 103.054688 512.851563 98.078125 530.257813 97.167969 L 530.257813 88.714844 C 541.464844 84.484375 543.71875 71.222656 543.71875 56.714844 C 543.71875 42.210938 541.464844 28.945313 530.257813 24.71875 Z M 523.992188 82.214844 L 524.054688 88.445313 C 510.65625 89.84375 501.203125 94.863281 499.261719 102.585938 L 45.050781 102.585938 C 43.109375 94.863281 33.65625 89.84375 20.257813 88.445313 L 20.320313 82.214844 C 8.300781 79.332031 14.25 67.238281 14.25 56.726563 C 14.25 46.214844 8.300781 34.121094 20.320313 31.238281 L 20.257813 25.007813 C 33.65625 23.609375 43.109375 18.589844 45.050781 10.867188 L 499.261719 10.867188 C 501.203125 18.589844 510.65625 23.609375 524.054688 25.007813 L 523.992188 31.238281 C 536.011719 34.121094 530.066406 46.214844 530.066406 56.726563 C 530.066406 67.238281 536.011719 79.332031 523.992188 82.214844 "/>
</g>
</svg>
