<?xml version="1.0" encoding="UTF-8"?>
<svg xmlns="http://www.w3.org/2000/svg" xmlns:xlink="http://www.w3.org/1999/xlink" width="511pt" height="634pt" viewBox="0 0 511 634" version="1.1">
<g id="surface1">
<path style=" stroke:none;fill-rule:nonzero;fill:rgb(13.729858%,12.159729%,12.548828%);fill-opacity:1;" d="M 452.105469 121.238281 L 452.125 101.835938 L 426.871094 101.820313 L 426.855469 79.769531 C 364.964844 73.730469 320.402344 0.863281 254.691406 0.433594 C 188.984375 0.863281 145.535156 73.730469 83.648438 79.769531 L 83.628906 101.820313 L 58.378906 101.835938 L 58.394531 121.238281 C -1.714844 145.453125 -4.875 186.335938 3.449219 225.675781 L 67.589844 510.867188 C 131.820313 506.164063 158.019531 586.050781 208.558594 620.167969 C 235.835938 638.566406 274.667969 638.566406 301.941406 620.167969 C 352.480469 586.050781 378.679688 506.164063 442.914063 510.867188 L 507.054688 225.675781 C 515.375 186.335938 512.214844 145.453125 452.105469 121.238281 Z M 489.851563 221.8125 L 428.75 493.472656 C 386.320313 497.792969 358.953125 532.820313 337.027344 559.589844 C 321.628906 578.398438 308.023438 594.800781 292.0625 605.578125 C 281.609375 612.636719 268.585938 616.351563 255.230469 616.351563 C 241.871094 616.351563 228.832031 612.636719 218.378906 605.578125 C 202.4375 594.800781 188.8125 578.398438 173.433594 559.589844 C 151.503906 532.820313 124.121094 497.792969 81.695313 493.472656 L 20.59375 221.8125 C 18.605469 212.953125 17.425781 204.542969 17.425781 196.585938 C 17.425781 174.808594 25.941406 153.261719 64.941406 137.527344 L 75.972656 133.097656 L 75.972656 119.394531 L 101.191406 119.394531 L 101.210938 94.46875 C 129.15625 87.296875 153.105469 69.839844 173.785156 55.121094 C 202.945313 34.285156 226.722656 17.992188 254.667969 17.992188 C 282.683594 17.992188 306.777344 34.359375 336.253906 55.160156 C 357.125 69.914063 381.269531 87.335938 409.25 94.46875 L 409.269531 119.394531 L 434.488281 119.394531 L 434.46875 133.097656 L 445.503906 137.527344 C 484.519531 153.261719 493.019531 174.808594 493.019531 196.585938 C 493.019531 204.542969 491.839844 212.953125 489.851563 221.8125 "/>
<path style=" stroke:none;fill-rule:nonzero;fill:rgb(13.729858%,12.159729%,12.548828%);fill-opacity:1;" d="M 443.902344 141.691406 L 430.105469 136.113281 L 430.121094 123.878906 L 404.902344 123.878906 L 404.886719 97.871094 C 378.207031 90.304688 355.101563 73.859375 335.550781 60.089844 C 334.953125 59.636719 334.351563 59.238281 333.753906 58.839844 C 304.011719 37.785156 281.066406 22.421875 254.703125 22.421875 C 228.410156 22.421875 205.832031 37.726563 176.371094 58.722656 C 175.863281 59.121094 175.335938 59.464844 174.824219 59.863281 C 155.414063 73.691406 132.394531 90.191406 105.644531 97.871094 L 105.628906 123.878906 L 80.410156 123.878906 L 80.410156 136.113281 L 66.613281 141.691406 C 29.179688 156.710938 21.859375 176.742188 21.859375 196.660156 C 21.859375 204.167969 22.96875 212.25 24.921875 220.898438 L 85.335938 489.539063 C 126.796875 495.230469 154.039063 528.917969 174.859375 554.351563 C 175.527344 555.207031 176.214844 556.058594 176.863281 556.859375 C 192.371094 575.804688 205.570313 591.625 220.878906 601.980469 C 230.523438 608.523438 242.699219 611.996094 255.265625 611.996094 C 267.832031 611.996094 279.972656 608.46875 289.636719 601.980469 C 304.964844 591.625 318.160156 575.804688 333.667969 556.859375 C 334.351563 556.003906 335.039063 555.152344 335.742188 554.296875 C 356.546875 528.859375 383.769531 495.230469 425.175781 489.539063 L 485.59375 220.898438 C 487.546875 212.25 488.652344 204.167969 488.652344 196.660156 C 488.652344 176.742188 481.351563 156.710938 443.902344 141.691406 "/>
</g>
</svg>
