<?xml version="1.0" encoding="UTF-8"?>
<svg xmlns="http://www.w3.org/2000/svg" xmlns:xlink="http://www.w3.org/1999/xlink" width="547pt" height="314pt" viewBox="0 0 547 314" version="1.1">
<g id="surface1">
<path style=" stroke:none;fill-rule:nonzero;fill:rgb(0%,0%,0%);fill-opacity:1;" d="M 546.675781 157.21875 C 546.773438 107.425781 527.644531 94.226563 523.097656 76.089844 C 533.03125 55.871094 525.46875 42.234375 519.171875 33.664063 L 508.109375 18.21875 C 504.398438 12.949219 493.472656 0.5 474.5 0.5 L 72.578125 0.5 C 53.605469 0.5 42.679688 12.949219 38.96875 18.21875 L 27.90625 33.664063 C 21.609375 42.234375 14.046875 55.871094 23.980469 76.089844 C 19.429688 94.226563 0.304688 107.425781 0.402344 157.21875 C 0.304688 207.011719 19.429688 220.210938 23.980469 238.347656 C 14.046875 258.5625 21.609375 272.199219 27.90625 280.773438 L 38.96875 296.21875 C 42.679688 301.484375 53.605469 313.9375 72.578125 313.9375 L 474.5 313.9375 C 493.472656 313.9375 504.398438 301.484375 508.109375 296.21875 L 519.171875 280.773438 C 525.46875 272.199219 533.03125 258.5625 523.097656 238.347656 C 527.644531 220.210938 546.773438 207.011719 546.675781 157.21875 Z M 494.523438 207.566406 C 484.570313 228.683594 476.394531 244.789063 487.996094 255.296875 C 488.5625 255.785156 488.507813 256.84375 487.835938 257.757813 L 476.3125 273.84375 C 475.773438 274.570313 475.074219 275.058594 474.507813 275.058594 L 72.582031 275.058594 C 72.015625 275.058594 71.3125 274.570313 70.773438 273.84375 L 59.253906 257.757813 C 58.578125 256.84375 58.523438 255.785156 59.089844 255.296875 C 70.691406 244.789063 62.519531 228.683594 52.5625 207.566406 C 46.355469 194.40625 39.34375 184.121094 39.289063 157.21875 C 39.34375 130.3125 46.355469 120.03125 52.5625 106.871094 C 62.519531 85.75 70.691406 69.644531 59.089844 59.136719 C 58.523438 58.652344 58.578125 57.59375 59.253906 56.679688 L 70.773438 40.59375 C 71.3125 39.863281 72.015625 39.378906 72.582031 39.378906 L 474.507813 39.378906 C 475.074219 39.378906 475.773438 39.863281 476.3125 40.59375 L 487.835938 56.679688 C 488.507813 57.59375 488.5625 58.652344 487.996094 59.136719 C 476.394531 69.644531 484.570313 85.75 494.523438 106.871094 C 500.730469 120.03125 507.746094 130.3125 507.796875 157.21875 C 507.746094 184.121094 500.730469 194.40625 494.523438 207.566406 "/>
</g>
</svg>
