<?xml version="1.0" encoding="UTF-8"?>
<svg xmlns="http://www.w3.org/2000/svg" xmlns:xlink="http://www.w3.org/1999/xlink" width="481pt" height="578pt" viewBox="0 0 481 578" version="1.1">
<g id="surface1">
<path style=" stroke:none;fill-rule:nonzero;fill:rgb(13.729858%,12.159729%,12.548828%);fill-opacity:1;" d="M 461.757813 75.355469 C 412.292969 120.066406 322.148438 -59.285156 253.460938 22.796875 C 251.660156 24.882813 249.789063 28.484375 252.957031 30.066406 C 262.894531 34.820313 269.660156 45.042969 269.660156 56.925781 C 269.660156 73.410156 256.34375 86.804688 240.140625 86.804688 C 223.941406 86.804688 210.839844 73.410156 210.839844 56.925781 C 210.839844 45.042969 217.535156 34.820313 227.46875 30.066406 C 230.636719 28.484375 228.765625 24.882813 226.964844 22.796875 C 158.277344 -59.285156 68.132813 120.066406 18.667969 75.355469 L 0.238281 95.445313 L 0.238281 477.402344 C 71.519531 460.484375 127.679688 606.285156 217.246094 552.644531 C 223.871094 569.5625 233.589844 574.242188 240.214844 577.050781 C 246.839844 574.242188 256.558594 569.5625 263.183594 552.644531 C 352.75 606.285156 408.910156 460.484375 480.261719 477.402344 L 480.261719 95.445313 Z M 468.199219 460.0625 L 468.199219 463.808594 L 464.457031 464.070313 C 435.339844 466.019531 409.132813 487.640625 386.414063 506.625 C 385.597656 507.363281 384.78125 507.996094 383.984375 508.683594 C 355.519531 532.414063 330.5625 552.503906 302.996094 552.503906 C 292.773438 552.503906 281.6875 549.710938 269.304688 542.273438 L 257.144531 534.996094 C 252.554688 532.253906 251.53125 534.046875 251.546875 537.160156 C 251.578125 543.222656 251.976563 549.65625 248.714844 554.984375 C 246.84375 558.042969 244.777344 560.257813 242.683594 561.945313 C 241.226563 563.105469 239.148438 563.105469 237.675781 561.945313 C 235.578125 560.257813 233.546875 558.042969 231.675781 554.984375 C 228.410156 549.65625 228.8125 543.222656 228.84375 537.160156 C 228.859375 534.046875 227.835938 532.253906 223.242188 534.996094 L 211.085938 542.273438 C 198.703125 549.710938 187.613281 552.503906 177.390625 552.503906 C 149.828125 552.503906 124.867188 532.414063 96.40625 508.683594 C 95.605469 507.996094 94.789063 507.363281 93.976563 506.625 C 71.257813 487.640625 45.050781 466.019531 15.933594 464.070313 L 12.191406 463.808594 L 12.191406 99.996094 L 20.492188 91.03125 L 23.019531 91.980469 C 27.484375 93.667969 32.171875 94.566406 37.019531 94.566406 C 59.929688 94.566406 84.984375 74.683594 106.453125 57.546875 C 107.527344 56.648438 108.582031 55.804688 109.636719 54.960938 C 138.066406 32.234375 163.296875 12.933594 185.726563 12.933594 C 193.199219 12.933594 201.292969 15.148438 209.789063 22.320313 C 211.53125 23.796875 211.675781 26.433594 210.125 28.066406 C 203.085938 35.554688 198.78125 45.679688 198.78125 56.808594 C 198.78125 79.800781 217.101563 98.785156 240.121094 98.785156 C 263.144531 98.785156 281.609375 79.800781 281.609375 56.808594 C 281.609375 45.679688 277.304688 35.554688 270.265625 28.066406 C 268.714844 26.433594 268.855469 23.796875 270.601563 22.320313 C 279.097656 15.148438 287.191406 12.933594 294.660156 12.933594 C 317.09375 12.933594 342.320313 32.234375 370.753906 54.960938 C 371.808594 55.804688 372.863281 56.648438 373.9375 57.546875 C 395.40625 74.683594 420.460938 94.566406 443.371094 94.566406 C 448.21875 94.566406 452.90625 93.667969 457.367188 91.980469 L 459.898438 91.03125 L 468.199219 99.996094 L 468.199219 460.0625 "/>
<path style=" stroke:none;fill-rule:nonzero;fill:rgb(13.729858%,12.159729%,12.548828%);fill-opacity:1;" d="M 443.375 98.546875 C 417.488281 98.546875 389.796875 75.296875 368.261719 58.09375 C 339.351563 35.003906 315.371094 16.914063 294.667969 16.914063 C 289.003906 16.914063 282.859375 18.375 276.285156 22.960938 C 274.191406 24.421875 274.925781 27.234375 276.285156 29.007813 C 282.15625 36.722656 285.613281 46.367188 285.613281 56.84375 C 285.613281 81.917969 265.582031 102.769531 240.273438 102.769531 C 214.964844 102.769531 194.789063 81.917969 194.789063 56.84375 C 194.789063 46.367188 198.242188 36.722656 204.117188 29.007813 C 205.476563 27.234375 206.210938 24.421875 204.117188 22.960938 C 197.539063 18.375 191.398438 16.914063 185.734375 16.914063 C 165.03125 16.914063 141.050781 35.003906 112.140625 58.09375 C 90.605469 75.296875 62.910156 98.546875 37.027344 98.546875 C 31.699219 98.546875 26.53125 97.609375 21.601563 95.730469 L 16.195313 101.570313 L 16.195313 460.105469 C 47.984375 462.191406 76.0625 486.535156 98.972656 505.613281 C 127.785156 529.644531 151.574219 548.515625 177.398438 548.515625 C 186.820313 548.515625 197.21875 545.960938 209.042969 538.871094 L 225.25 529.175781 C 233.601563 524.171875 233.105469 530.476563 232.304688 537.152344 C 231.554688 543.40625 232.65625 549.871094 236.496094 554.980469 C 238.335938 557.429688 242.066406 557.429688 243.902344 554.980469 C 247.742188 549.871094 248.847656 543.40625 248.097656 537.152344 C 247.296875 530.476563 246.800781 524.171875 255.152344 529.175781 L 271.359375 538.871094 C 283.179688 545.960938 293.578125 548.515625 303.003906 548.515625 C 328.824219 548.515625 352.613281 529.644531 381.429688 505.613281 C 404.339844 486.535156 432.417969 462.191406 464.207031 460.105469 L 464.207031 101.570313 L 458.796875 95.730469 C 453.871094 97.609375 448.703125 98.546875 443.375 98.546875 "/>
</g>
</svg>
