<?xml version="1.0" encoding="UTF-8"?>
<svg xmlns="http://www.w3.org/2000/svg" xmlns:xlink="http://www.w3.org/1999/xlink" width="432pt" height="559pt" viewBox="0 0 432 559" version="1.1">
<g id="surface1">
<path style=" stroke:none;fill-rule:nonzero;fill:rgb(0%,0%,0%);fill-opacity:1;" d="M 431.945313 199.652344 L 431.945313 87.148438 C 317.5625 40.589844 308.757813 0.0703125 216.25 0.0703125 C 123.742188 0.0703125 115.027344 40.589844 0.554688 87.148438 L 0.554688 199.652344 C 18.710938 197.109375 22.613281 221.578125 23.25 246.84375 L 23.25 312.15625 C 22.613281 337.421875 18.710938 361.890625 0.554688 359.347656 L 0.554688 471.851563 C 115.027344 518.410156 123.742188 558.929688 216.25 558.929688 C 308.757813 558.929688 317.5625 518.410156 431.945313 471.851563 L 431.945313 359.347656 C 413.882813 361.890625 409.796875 337.421875 409.070313 312.15625 L 409.070313 246.84375 C 409.796875 221.578125 413.882813 197.109375 431.945313 199.652344 Z M 408.621094 181.882813 C 385.789063 196.71875 385.742188 235.988281 385.742188 246.839844 L 385.742188 312.15625 C 385.742188 323.011719 385.789063 362.277344 408.621094 377.113281 L 408.621094 456.363281 C 306.011719 500.980469 295.933594 535.597656 216.25 535.597656 C 136.578125 535.597656 126.628906 501.011719 23.878906 456.347656 L 23.878906 377.128906 C 46.773438 362.230469 46.570313 322.761719 46.570313 312.15625 L 46.570313 246.839844 C 46.570313 236.234375 46.773438 196.765625 23.878906 181.867188 L 23.878906 102.648438 C 126.628906 57.988281 136.578125 23.398438 216.25 23.398438 C 295.933594 23.398438 306.011719 58.019531 408.621094 102.632813 L 408.621094 181.882813 "/>
</g>
</svg>
