<?xml version="1.0" encoding="UTF-8"?>
<svg xmlns="http://www.w3.org/2000/svg" xmlns:xlink="http://www.w3.org/1999/xlink" width="451pt" height="573pt" viewBox="0 0 451 573" version="1.1">
<g id="surface1">
<path style=" stroke:none;fill-rule:nonzero;fill:rgb(0%,0%,0%);fill-opacity:1;" d="M 0.222656 0.476563 L 0.285156 572.523438 L 6.238281 572.523438 L 6.238281 6.429688 L 450.277344 6.429688 L 450.277344 0.476563 L 0.222656 0.476563 "/>
<path style=" stroke:none;fill-rule:nonzero;fill:rgb(0%,0%,0%);fill-opacity:1;" d="M 126.878906 572.523438 L 132.921875 572.523438 L 132.921875 132.976563 L 450.277344 132.976563 L 450.277344 127.023438 L 126.90625 127.023438 L 126.878906 572.523438 "/>
<path style=" stroke:none;fill-rule:nonzero;fill:rgb(0%,0%,0%);fill-opacity:1;" d="M 138.25 572.523438 L 144.222656 572.523438 L 144.222656 144.089844 L 450.277344 144.089844 L 450.277344 138.136719 L 138.207031 138.136719 L 138.25 572.523438 "/>
<path style=" stroke:none;fill-rule:nonzero;fill:rgb(0%,0%,0%);fill-opacity:1;" d="M 361.339844 16.882813 C 361.605469 15.738281 361.855469 14.589844 362.089844 13.4375 L 359.988281 13.4375 C 359.757813 14.582031 359.515625 15.726563 359.261719 16.859375 C 358.589844 20.652344 360.734375 20.664063 361.339844 16.882813 "/>
<path style=" stroke:none;fill-rule:nonzero;fill:rgb(0%,0%,0%);fill-opacity:1;" d="M 369.007813 30.597656 C 370.09375 25.976563 370.949219 21.238281 371.011719 16.652344 C 373.945313 21.039063 377.105469 25.167969 380.65625 28.660156 C 383.140625 31.433594 384.757813 29.449219 382.269531 26.707031 C 378.824219 23.3125 375.75 19.308594 372.894531 15.054688 C 376.332031 16.265625 380.09375 16.660156 383.832031 16.765625 C 386.914063 17.195313 387.558594 14.652344 384.445313 14.300781 C 381.828125 14.179688 379.183594 13.976563 376.660156 13.4375 L 368.730469 13.4375 C 369.34375 18.957031 368.203125 24.859375 366.929688 30.578125 C 366.257813 34.371094 368.402344 34.378906 369.007813 30.597656 "/>
<path style=" stroke:none;fill-rule:nonzero;fill:rgb(0%,0%,0%);fill-opacity:1;" d="M 297.382813 13.4375 L 294.9375 13.4375 C 295.417969 13.894531 295.878906 14.195313 296.289063 14.15625 C 296.65625 14.121094 297.023438 13.839844 297.382813 13.4375 "/>
<path style=" stroke:none;fill-rule:nonzero;fill:rgb(0%,0%,0%);fill-opacity:1;" d="M 308.625 13.4375 L 303.523438 13.4375 C 303.867188 14.316406 304.230469 15.03125 304.664063 15.222656 C 305.597656 15.632813 307.289063 14.164063 308.625 13.4375 "/>
<path style=" stroke:none;fill-rule:nonzero;fill:rgb(0%,0%,0%);fill-opacity:1;" d="M 172.046875 13.4375 C 174.308594 17.457031 177.820313 23.585938 177.824219 23.660156 C 178.121094 29.347656 175.917969 34.621094 173.550781 39.652344 C 172.222656 43.058594 175.203125 44.027344 176.433594 40.601563 C 178.425781 36.570313 180.105469 32.320313 180.667969 27.871094 C 184.296875 33.464844 188.265625 38.910156 192.84375 43.90625 C 196.015625 47.726563 198.472656 46.507813 195.292969 42.714844 C 190.847656 37.859375 186.984375 32.578125 183.449219 27.148438 C 188.109375 29.863281 193.300781 31.925781 198.496094 33.699219 C 202.742188 35.496094 203.894531 33.296875 199.601563 31.5625 C 192.96875 29.210938 186.214844 26.601563 180.824219 22.433594 C 180.707031 22.339844 177.746094 17.570313 175.300781 13.4375 L 172.046875 13.4375 "/>
<path style=" stroke:none;fill-rule:nonzero;fill:rgb(0%,0%,0%);fill-opacity:1;" d="M 166.75 23.773438 C 168.382813 20.476563 169.757813 17.019531 170.527344 13.4375 L 167.4375 13.4375 C 166.648438 16.679688 165.292969 19.800781 163.867188 22.828125 C 162.539063 26.234375 165.519531 27.203125 166.75 23.773438 "/>
<path style=" stroke:none;fill-rule:nonzero;fill:rgb(0%,0%,0%);fill-opacity:1;" d="M 190.351563 14.738281 C 189.164063 14.316406 187.976563 13.882813 186.792969 13.4375 L 180.398438 13.4375 C 183.28125 14.722656 186.257813 15.855469 189.242188 16.871094 C 193.488281 18.671875 194.644531 16.472656 190.351563 14.738281 "/>
<path style=" stroke:none;fill-rule:nonzero;fill:rgb(0%,0%,0%);fill-opacity:1;" d="M 252.367188 121.597656 L 257.5 121.597656 C 257.222656 121.023438 256.871094 120.589844 256.367188 120.441406 C 255.46875 120.175781 253.945313 120.855469 252.367188 121.597656 "/>
<path style=" stroke:none;fill-rule:nonzero;fill:rgb(0%,0%,0%);fill-opacity:1;" d="M 135.957031 118.332031 C 140.0625 118.316406 144.585938 120.449219 148.519531 121.597656 L 155.3125 121.597656 C 155.105469 121.269531 154.976563 121.058594 154.96875 121.03125 C 153.476563 114.382813 153.96875 107.15625 154.644531 100.152344 C 154.894531 95.527344 152.410156 95.644531 152.242188 100.25 C 151.652344 105.707031 151.324219 111.285156 151.8125 116.652344 C 148.386719 111.152344 145.234375 105.417969 142.71875 99.335938 C 140.628906 94.851563 138.484375 96.558594 140.605469 101.050781 C 143.191406 107.3125 146.445313 113.214844 149.976563 118.867188 C 145.707031 117.496094 140.8125 115.214844 136.320313 115.316406 C 132.695313 114.980469 132.308594 118.089844 135.957031 118.332031 "/>
<path style=" stroke:none;fill-rule:nonzero;fill:rgb(0%,0%,0%);fill-opacity:1;" d="M 163.570313 115.753906 C 163.359375 117.691406 163.191406 119.644531 163.074219 121.597656 L 165.492188 121.597656 C 165.613281 119.609375 165.785156 117.625 165.972656 115.65625 C 166.222656 111.03125 163.738281 111.148438 163.570313 115.753906 "/>
<path style=" stroke:none;fill-rule:nonzero;fill:rgb(0%,0%,0%);fill-opacity:1;" d="M 121.339844 182.316406 C 120.671875 182.957031 120.148438 183.578125 120.160156 184.152344 C 120.171875 185.03125 120.753906 186.066406 121.339844 187.089844 L 121.339844 182.316406 "/>
<path style=" stroke:none;fill-rule:nonzero;fill:rgb(0%,0%,0%);fill-opacity:1;" d="M 121.339844 170.816406 C 120.382813 172.21875 118.75 173.785156 118.984375 174.824219 C 119.152344 175.554688 120.21875 176.113281 121.339844 176.652344 L 121.339844 170.816406 "/>
<path style=" stroke:none;fill-rule:nonzero;fill:rgb(0%,0%,0%);fill-opacity:1;" d="M 121.339844 230.921875 C 119.316406 230.617188 117.324219 230.25 115.398438 229.753906 C 111.765625 229.03125 110.894531 231.4375 114.554688 232.144531 C 116.75 232.710938 119.023438 233.128906 121.339844 233.453125 L 121.339844 230.921875 "/>
<path style=" stroke:none;fill-rule:nonzero;fill:rgb(0%,0%,0%);fill-opacity:1;" d="M 119.972656 244.898438 C 120.425781 244.46875 120.882813 244.039063 121.339844 243.609375 L 121.339844 240.8125 C 120.511719 241.570313 119.691406 242.347656 118.886719 243.128906 C 115.953125 245.59375 117.066406 247.425781 119.972656 244.898438 "/>
<path style=" stroke:none;fill-rule:nonzero;fill:rgb(0%,0%,0%);fill-opacity:1;" d="M 33.0625 17.542969 C 35.898438 16.390625 38.703125 15.0625 41.320313 13.4375 L 36.765625 13.4375 C 35.226563 14.203125 33.652344 14.902344 32.085938 15.566406 C 29.050781 17.054688 30.070313 19.089844 33.0625 17.542969 "/>
<path style=" stroke:none;fill-rule:nonzero;fill:rgb(0%,0%,0%);fill-opacity:1;" d="M 52.113281 23.027344 C 50.699219 19.941406 49.339844 16.75 48.515625 13.4375 L 46.285156 13.4375 C 47.105469 17.035156 48.476563 20.515625 50.058594 23.828125 C 51.230469 26.988281 53.355469 26.171875 52.113281 23.027344 "/>
<path style=" stroke:none;fill-rule:nonzero;fill:rgb(0%,0%,0%);fill-opacity:1;" d="M 26.9375 32.472656 C 30.761719 30.917969 34.558594 29.074219 37.863281 26.570313 C 36.136719 31.800781 34.699219 37.101563 33.90625 42.410156 C 33.117188 46.316406 35.308594 46.734375 36.078125 42.84375 C 36.851563 37.6875 38.238281 32.535156 39.910156 27.453125 C 40.695313 31.382813 42.214844 35.164063 43.933594 38.761719 C 45.101563 41.921875 47.226563 41.105469 45.988281 37.960938 C 43.855469 33.3125 41.824219 28.441406 41.605469 23.253906 C 41.601563 23.125 43.625 17.398438 45.148438 13.4375 L 42.734375 13.4375 C 41.300781 17.027344 39.148438 22.53125 39.101563 22.578125 C 35.445313 26.269531 30.664063 28.5 25.957031 30.496094 C 22.921875 31.984375 23.945313 34.019531 26.9375 32.472656 "/>
<path style=" stroke:none;fill-rule:nonzero;fill:rgb(0%,0%,0%);fill-opacity:1;" d="M 34.707031 214.738281 C 28.074219 212.386719 21.320313 209.773438 15.929688 205.605469 C 15.863281 205.550781 14.78125 203.445313 13.183594 200.25 L 13.183594 220.136719 C 14.273438 217.519531 15.164063 214.824219 15.621094 212.039063 C 17.730469 215.820313 22.175781 223.574219 22.183594 223.660156 C 22.480469 229.34375 20.277344 234.621094 17.90625 239.652344 C 16.578125 243.058594 19.5625 244.027344 20.792969 240.597656 C 22.785156 236.570313 24.464844 232.320313 25.027344 227.867188 C 28.65625 233.464844 32.621094 238.90625 37.203125 243.90625 C 40.375 247.726563 42.828125 246.507813 39.648438 242.714844 C 35.207031 237.859375 31.34375 232.578125 27.808594 227.144531 C 32.464844 229.859375 37.660156 231.925781 42.851563 233.699219 C 47.097656 235.496094 48.253906 233.296875 43.960938 231.5625 C 37.328125 229.210938 30.574219 226.601563 25.179688 222.429688 C 25.023438 222.308594 19.761719 213.789063 17.476563 209.65625 C 22.40625 212.699219 28 214.960938 33.601563 216.871094 C 37.847656 218.671875 39.003906 216.472656 34.707031 214.738281 "/>
<path style=" stroke:none;fill-rule:nonzero;fill:rgb(0%,0%,0%);fill-opacity:1;" d="M 118.722656 319.164063 C 119.601563 319.464844 120.46875 319.816406 121.339844 320.164063 L 121.339844 317.472656 C 120.671875 317.210938 120.007813 316.933594 119.335938 316.703125 C 115.894531 315.273438 115.292969 317.761719 118.722656 319.164063 "/>
<path style=" stroke:none;fill-rule:nonzero;fill:rgb(0%,0%,0%);fill-opacity:1;" d="M 121.339844 331.46875 L 121.339844 328.921875 C 118.972656 329.832031 119.191406 331.796875 121.339844 331.46875 "/>
<path style=" stroke:none;fill-rule:nonzero;fill:rgb(0%,0%,0%);fill-opacity:1;" d="M 117.640625 481.753906 C 118.863281 482.011719 120.097656 482.230469 121.339844 482.425781 L 121.339844 480.179688 C 120.199219 479.996094 119.0625 479.785156 117.933594 479.566406 C 114.589844 479.101563 114.296875 481.359375 117.640625 481.753906 "/>
<path style=" stroke:none;fill-rule:nonzero;fill:rgb(0%,0%,0%);fill-opacity:1;" d="M 116.453125 492.355469 C 118.101563 491.6875 119.726563 490.925781 121.339844 490.132813 L 121.339844 487.652344 C 119.421875 488.628906 117.488281 489.546875 115.519531 490.347656 C 111.921875 492.011719 112.84375 494.042969 116.453125 492.355469 "/>
<path style=" stroke:none;fill-rule:nonzero;fill:rgb(0%,0%,0%);fill-opacity:1;" d="M 119.683594 253.359375 C 118.050781 253.214844 118.742188 247.929688 117.238281 247.628906 C 115.675781 247.316406 112.285156 251.648438 110.882813 251.183594 C 109.210938 250.628906 110.007813 245.398438 108.597656 244.652344 C 107.109375 243.859375 103.289063 245.304688 102.136719 244.320313 C 100.921875 243.28125 103.679688 238.085938 102.585938 237.207031 C 96.414063 232.226563 97.78125 230.042969 105.820313 226.3125 C 107.339844 225.605469 106.980469 220.203125 108.660156 219.222656 C 110.261719 218.289063 113.199219 219.855469 115.046875 219.101563 C 116.65625 218.445313 117.96875 213.265625 119.722656 212.773438 C 120.265625 212.621094 120.800781 213.070313 121.339844 213.695313 L 121.339844 191.527344 C 119.746094 192.386719 117.140625 192.941406 117.101563 194.050781 C 116.792969 202.296875 115.308594 203.925781 108.273438 198.765625 C 107.027344 197.855469 103.296875 201.269531 101.855469 200.257813 C 100.496094 199.304688 100.335938 195.433594 99.019531 194.128906 C 97.769531 192.890625 93.238281 194.4375 92.070313 192.917969 C 91.085938 191.644531 93.773438 187.757813 92.867188 186.308594 C 92 184.914063 87.316406 185.613281 86.539063 184.070313 C 85.789063 182.582031 89.117188 179.207031 88.472656 177.597656 C 87.933594 176.25 83.285156 176.410156 82.855469 175.074219 C 82.347656 173.484375 86.183594 170.738281 85.832031 169.1875 C 85.46875 167.59375 80.832031 166.808594 80.628906 165.277344 C 80.398438 163.523438 84.683594 161.496094 84.660156 159.859375 C 84.632813 157.984375 80.328125 155.914063 80.566406 154.242188 C 80.816406 152.492188 85.484375 151.9375 86.019531 150.46875 C 86.636719 148.777344 83.632813 145.144531 84.617188 143.921875 C 85.472656 142.859375 87.933594 143.964844 89.773438 144.285156 C 91.453125 149.621094 92.757813 153.65625 92.796875 153.757813 C 92.570313 158.828125 90.648438 163.613281 88.617188 168.1875 C 87.414063 171.347656 89.546875 172.136719 90.679688 168.964844 C 92.285156 165.5 93.695313 161.867188 94.460938 158.105469 C 95.765625 161.496094 98.535156 168.449219 98.53125 168.523438 C 98.378906 173.714844 96.40625 178.609375 94.328125 183.285156 C 93.125 186.441406 95.261719 187.234375 96.394531 184.058594 C 98.125 180.3125 99.644531 176.375 100.351563 172.285156 C 102.65625 177.289063 105.222656 182.140625 108.269531 186.566406 C 110.355469 189.960938 112.246094 188.769531 110.152344 185.402344 C 107.195313 181.101563 104.695313 176.390625 102.449219 171.535156 C 105.703125 173.875 109.394531 175.597656 113.105469 177.054688 C 116.117188 178.566406 117.113281 176.519531 114.0625 175.066406 C 109.328125 173.125 104.523438 170.953125 100.820313 167.308594 C 100.714844 167.199219 97.398438 159.578125 95.984375 155.867188 C 99.417969 158.496094 103.390625 160.386719 107.394531 161.960938 C 110.40625 163.46875 111.402344 161.421875 108.351563 159.972656 C 103.617188 158.03125 98.808594 155.855469 95.109375 152.214844 C 95.042969 152.148438 93.75 148.378906 92.085938 143.347656 C 92.902344 141.882813 93.53125 139.265625 94.621094 139.308594 C 96.074219 139.367188 96.667969 143.980469 98.1875 144.585938 C 99.621094 145.15625 103.164063 142.089844 104.605469 143.101563 C 105.964844 144.050781 104.480469 148.578125 105.800781 149.882813 C 107.046875 151.117188 111.578125 149.574219 112.746094 151.09375 C 113.730469 152.363281 111.046875 156.253906 111.949219 157.703125 C 112.816406 159.097656 117.503906 158.398438 118.28125 159.941406 C 119.03125 161.429688 115.699219 164.804688 116.34375 166.414063 C 116.785156 167.507813 119.949219 167.609375 121.339844 168.328125 L 121.339844 121.597656 L 132.765625 121.597656 C 132.796875 121.160156 132.765625 120.402344 132.632813 120.113281 C 131.734375 118.179688 126.597656 119.769531 125.910156 117.835938 C 125.089844 115.527344 128.976563 110.703125 128.464844 108.460938 C 127.925781 106.085938 124.324219 103.746094 124.144531 101.515625 C 123.949219 99.148438 129.191406 96.363281 128.988281 94.300781 C 127.828125 82.632813 130.175781 81.675781 138.191406 85.851563 C 139.707031 86.640625 142.894531 80.453125 144.695313 81.109375 C 146.414063 81.734375 147.480469 86.421875 149.25 87.492188 C 150.796875 88.429688 155.015625 84.179688 156.5625 85.441406 C 157.910156 86.539063 156.183594 92.785156 157.507813 94.117188 C 158.796875 95.421875 163.460938 92.128906 164.703125 93.648438 C 165.746094 94.921875 163.113281 100.660156 164.105469 102.078125 C 165.296875 103.777344 170.285156 101.472656 171.304688 103.234375 C 172.355469 105.058594 169.191406 110.542969 170.054688 112.402344 C 170.953125 114.335938 176.089844 113.125 176.777344 115.058594 C 177.332031 116.613281 175.746094 119.3125 174.808594 121.597656 L 246.570313 121.597656 C 246.183594 119.738281 246.640625 116.746094 245.285156 116.070313 C 243.734375 115.296875 238.441406 118.738281 237.027344 117.894531 C 235.347656 116.886719 237.917969 111.792969 236.441406 110.707031 C 234.929688 109.59375 229.003906 112.21875 227.71875 111.042969 C 226.246094 109.699219 229.828125 104.902344 228.675781 103.511719 C 227.355469 101.914063 220.941406 103.195313 220.070313 101.585938 C 219.160156 99.898438 224.199219 96.101563 223.808594 94.457031 C 223.363281 92.5625 217.382813 91.570313 217.6875 89.816406 C 217.953125 88.289063 221.570313 87.496094 223.925781 86.460938 C 229.535156 89.859375 233.824219 92.40625 233.9375 92.46875 C 237.15625 96.992188 238.210938 102.480469 238.992188 107.867188 C 239.765625 111.441406 242.785156 110.605469 241.921875 107.066406 C 241.402344 102.941406 240.550781 98.808594 238.855469 95.027344 C 242.699219 97.019531 250.6875 101.035156 250.738281 101.101563 C 254.121094 105.679688 255.191406 111.296875 255.988281 116.800781 C 256.761719 120.375 259.78125 119.539063 258.917969 116 C 258.359375 111.539063 257.414063 107.070313 255.429688 103.046875 C 261.542969 105.710938 267.855469 108.066406 274.429688 109.710938 C 279.183594 111.144531 280.558594 108.777344 275.816406 107.367188 C 269.433594 105.765625 263.296875 103.488281 257.351563 100.90625 C 262.734375 100.605469 268.207031 99.464844 273.515625 98.078125 C 278.050781 97.234375 277.800781 94.765625 273.261719 95.6875 C 266.433594 97.382813 259.359375 98.929688 252.558594 98.425781 C 252.363281 98.40625 243.273438 94.203125 239.089844 92.015625 C 244.878906 91.835938 250.789063 90.636719 256.519531 89.144531 C 261.050781 88.300781 260.804688 85.828125 256.265625 86.753906 C 249.4375 88.445313 242.359375 89.996094 235.5625 89.488281 C 235.441406 89.480469 231.351563 87.15625 225.964844 84.007813 C 225.910156 82.164063 224.84375 79.464844 226.136719 78.726563 C 227.859375 77.742188 231.71875 81.296875 233.898438 80.734375 C 235.957031 80.203125 237.964844 75.039063 240.335938 74.886719 C 242.5625 74.742188 243.949219 79.691406 246.375 79.878906 C 248.671875 80.054688 252.871094 75.503906 255.273438 75.976563 C 257.289063 76.371094 256.839844 81.632813 258.886719 82.238281 C 260.851563 82.820313 265.8125 78.886719 267.773438 79.660156 C 269.664063 80.40625 268.113281 85.683594 269.96875 86.609375 C 271.519531 87.386719 276.808594 83.941406 278.222656 84.785156 C 279.90625 85.792969 277.335938 90.886719 278.8125 91.972656 C 280.324219 93.085938 286.25 90.460938 287.535156 91.636719 C 289.007813 92.980469 285.421875 97.777344 286.578125 99.171875 C 287.894531 100.765625 292.6875 101.132813 293.558594 102.742188 C 294.472656 104.425781 288.816406 108.484375 289.820313 109.871094 C 295.125 117.1875 294.519531 119.652344 282.808594 120.210938 C 282.160156 120.242188 281.515625 120.816406 280.867188 121.597656 L 448.789063 121.597656 L 448.789063 13.4375 L 393.417969 13.4375 C 393.898438 13.960938 394.734375 14.695313 394.851563 15.132813 C 395.335938 16.894531 391.316406 19.808594 391.585938 21.527344 C 391.890625 23.496094 394.742188 25.210938 394.765625 27.0625 C 394.789063 29.007813 389.972656 31.480469 390.152344 33.148438 C 391.085938 41.960938 389.917969 44.257813 382.472656 41.527344 C 381.15625 41.042969 378.121094 46.082031 376.601563 45.574219 C 375.171875 45.09375 374.441406 41.070313 372.996094 40.203125 C 371.628906 39.382813 367.554688 42.757813 366.21875 41.605469 C 365.097656 40.644531 367.070313 35.507813 365.996094 34.324219 C 364.964844 33.191406 360.617188 35.734375 359.652344 34.410156 C 358.71875 33.128906 361.378906 28.285156 360.527344 26.835938 C 359.8125 25.625 355.421875 27.585938 354.816406 26.339844 C 354.097656 24.863281 357.335938 20.484375 356.765625 18.984375 C 356.1875 17.445313 351.664063 18.40625 351.246094 16.871094 C 351.019531 16.035156 351.746094 14.746094 352.542969 13.4375 L 324.691406 13.4375 C 320.445313 15.09375 316.269531 17.007813 312.226563 19.371094 C 311.796875 19.605469 311.324219 19.359375 311.144531 18.8125 C 310.964844 18.261719 311.152344 17.652344 311.578125 17.421875 C 314.125 15.941406 316.71875 14.628906 319.347656 13.4375 L 310.34375 13.4375 C 310.851563 14.40625 309.886719 16.953125 309.605469 18.742188 C 305.492188 21.945313 302.378906 24.3125 302.296875 24.320313 C 297.59375 24.75 292.996094 23.035156 288.585938 21.175781 C 285.625 20.148438 285.105469 22.722656 288.074219 23.660156 C 291.765625 25.300781 295.621094 26.632813 299.539063 26.902344 C 296.378906 29.121094 289.597656 33.371094 289.460938 33.386719 C 284.757813 33.816406 280.160156 32.101563 275.75 30.242188 C 272.789063 29.214844 272.269531 31.785156 275.238281 32.726563 C 278.660156 34.246094 282.222656 35.515625 285.84375 35.90625 C 281.433594 38.511719 276.933594 40.796875 272.359375 42.371094 C 268.929688 43.773438 269.53125 46.261719 272.972656 44.832031 C 277.679688 43.214844 282.3125 40.851563 286.851563 38.160156 C 284.929688 42.324219 283.65625 46.96875 282.644531 51.605469 C 281.558594 55.277344 283.496094 56.191406 284.527344 52.480469 C 285.847656 46.757813 287.371094 40.921875 290.320313 36.199219 C 290.367188 36.132813 296.371094 32.0625 299.269531 30.042969 C 297.582031 33.957031 296.417969 38.25 295.480469 42.539063 C 294.394531 46.210938 296.332031 47.128906 297.363281 43.414063 C 298.65625 37.816406 300.152344 32.113281 302.980469 27.445313 C 303.066406 27.382813 306.347656 24.792969 310.648438 21.328125 C 312.105469 22.441406 314.457031 23.320313 314.421875 24.914063 C 314.378906 26.746094 310.167969 27.691406 309.597656 29.660156 C 309.101563 31.367188 311.996094 35.394531 311.136719 37.140625 C 310.3125 38.804688 306.128906 37.378906 305.003906 39.023438 C 304.019531 40.457031 305.78125 45.503906 304.589844 46.882813 C 303.550781 48.089844 299.886719 45.269531 298.699219 46.410156 C 297.539063 47.519531 298.570313 52.863281 297.28125 53.886719 C 296.199219 54.746094 293.085938 51.085938 291.917969 51.871094 C 290.523438 52.808594 290.835938 58.328125 289.4375 59.078125 C 287.996094 59.859375 285.171875 55.6875 283.753906 56.269531 C 282.273438 56.867188 281.835938 62.355469 280.410156 62.738281 C 278.707031 63.199219 276.488281 58.398438 274.902344 58.546875 C 273.222656 58.710938 270.832031 62.019531 269.332031 61.835938 C 267.742188 61.640625 267.179688 55.785156 265.78125 55.652344 C 257.886719 54.902344 257.824219 52.328125 262.46875 44.78125 C 263.347656 43.355469 260.070313 39.046875 260.933594 37.304688 C 261.753906 35.640625 265.066406 35.324219 266.191406 33.683594 C 267.171875 32.246094 265.410156 27.199219 266.605469 25.820313 C 267.644531 24.617188 271.308594 27.433594 272.496094 26.296875 C 273.65625 25.183594 272.625 19.839844 273.910156 18.816406 C 274.992188 17.957031 278.109375 21.617188 279.273438 20.832031 C 280.667969 19.894531 279.984375 15.75 281.378906 15 C 282.820313 14.222656 286.019531 17.015625 287.4375 16.4375 C 288.125 16.15625 288.589844 14.824219 289.027344 13.4375 L 197.613281 13.4375 C 199.589844 14.246094 202.554688 15.136719 203.359375 16.292969 C 204.527344 17.960938 200.824219 20.382813 201.859375 22.175781 C 202.726563 23.679688 209.039063 23.722656 209.753906 25.207031 C 210.601563 26.972656 205.644531 29.804688 206.28125 31.527344 C 206.929688 33.289063 213.316406 34.367188 213.742188 36.054688 C 214.226563 37.992188 208.59375 40.015625 208.789063 41.8125 C 209.007813 43.871094 212.804688 46.820313 212.644531 48.640625 C 212.476563 50.550781 205.519531 50.816406 205.59375 52.527344 C 205.984375 61.554688 204.121094 63.277344 194.042969 57.289063 C 192.257813 56.230469 187.515625 59.796875 185.453125 58.621094 C 183.511719 57.511719 182.914063 53.261719 180.992188 51.765625 C 179.175781 50.351563 173.160156 51.832031 171.414063 50.113281 C 169.957031 48.671875 173.230469 44.53125 171.859375 42.898438 C 170.539063 41.328125 164.230469 41.878906 163.023438 40.152344 C 161.855469 38.484375 166.058594 34.9375 165.023438 33.140625 C 164.15625 31.636719 157.84375 31.59375 157.132813 30.109375 C 156.28125 28.34375 161.238281 25.511719 160.605469 23.789063 C 159.953125 22.027344 153.566406 20.949219 153.140625 19.261719 C 152.65625 17.324219 158.289063 15.230469 158.09375 13.429688 C 158.09375 13.410156 57.210938 13.4375 57.210938 13.4375 C 56.664063 13.601563 56.886719 14.273438 57.347656 14.582031 C 58.84375 15.589844 61.546875 17.871094 61.390625 19.539063 C 61.238281 21.140625 56.621094 22.152344 56.292969 23.828125 C 55.976563 25.4375 59.878906 28.128906 59.394531 29.78125 C 58.925781 31.382813 54.1875 31.574219 53.5625 33.191406 C 53.039063 34.546875 56.542969 37.601563 55.945313 38.871094 C 55.234375 40.378906 50.554688 39.765625 49.753906 41.144531 C 48.933594 42.554688 51.785156 46.292969 50.890625 47.550781 C 49.859375 48.988281 45.34375 47.546875 44.246094 48.761719 C 42.984375 50.148438 43.128906 53.808594 41.8125 54.867188 C 40.433594 55.980469 36.359375 52.808594 35.253906 53.90625 C 29.402344 59.722656 27.203125 59.902344 25.582031 51.332031 C 25.296875 49.8125 20.238281 49.761719 19.875 48.039063 C 19.53125 46.414063 22.054688 43.480469 21.984375 41.621094 C 21.914063 39.871094 17.550781 37.90625 17.730469 35.996094 C 17.882813 34.398438 22.5 33.386719 22.828125 31.710938 C 23.144531 30.101563 19.242188 27.414063 19.726563 25.757813 C 20.195313 24.15625 24.933594 23.964844 25.558594 22.34375 C 26.082031 20.992188 22.578125 17.933594 23.175781 16.667969 C 23.886719 15.15625 28.566406 15.769531 29.367188 14.394531 C 29.515625 14.140625 29.539063 13.8125 29.496094 13.4375 L 13.183594 13.4375 L 13.183594 191.730469 C 13.511719 191.535156 14.027344 191.15625 14.335938 191.175781 C 16.3125 191.308594 17.242188 196.648438 19.367188 197.382813 C 21.378906 198.078125 25.898438 194.875 27.960938 196.054688 C 29.902344 197.160156 28.328125 202.058594 30.25 203.550781 C 32.066406 204.964844 38.082031 203.480469 39.824219 205.203125 C 41.285156 206.644531 38.011719 210.785156 39.382813 212.417969 C 40.703125 213.988281 47.011719 213.441406 48.21875 215.167969 C 49.386719 216.835938 45.179688 220.378906 46.21875 222.175781 C 47.085938 223.675781 53.394531 223.722656 54.109375 225.207031 C 54.957031 226.972656 50.003906 229.804688 50.636719 231.527344 C 51.285156 233.289063 57.675781 234.367188 58.097656 236.054688 C 58.585938 237.988281 52.953125 240.011719 53.144531 241.8125 C 53.367188 243.871094 57.160156 246.816406 57 248.640625 C 56.832031 250.550781 49.875 250.816406 49.949219 252.527344 C 50.339844 261.554688 48.476563 263.277344 38.398438 257.285156 C 36.617188 256.226563 31.871094 259.796875 29.8125 258.621094 C 27.867188 257.511719 27.273438 253.261719 25.347656 251.765625 C 23.53125 250.351563 17.515625 251.832031 15.773438 250.113281 C 14.3125 248.671875 17.589844 244.53125 16.214844 242.898438 C 15.722656 242.3125 14.539063 242.023438 13.183594 241.800781 L 13.183594 280.625 C 13.164063 281.539063 13.53125 281.929688 14.503906 281.523438 C 21.820313 278.46875 23.070313 282.527344 20.679688 291.0625 C 20.230469 292.675781 24.566406 295.914063 24.21875 297.828125 C 23.890625 299.652344 20.789063 300.867188 20.160156 302.757813 C 19.613281 304.40625 22.695313 308.773438 21.929688 310.429688 C 21.261719 311.871094 16.964844 310.175781 16.136719 311.59375 C 15.328125 312.980469 17.789063 317.835938 16.835938 319.175781 C 16.339844 319.867188 14.632813 319.125 13.183594 318.703125 L 13.183594 571.09375 L 121.339844 571.09375 L 121.339844 504.054688 C 120.859375 503.816406 120.410156 503.679688 120.027344 503.757813 C 118.207031 504.125 115.945313 507.269531 114.285156 507.320313 C 112.527344 507.371094 111.285156 502.46875 109.746094 502.546875 C 101.03125 502.992188 100.6875 500.8125 104.964844 493.753906 C 105.773438 492.417969 101.730469 489.207031 102.484375 487.605469 C 103.203125 486.078125 106.796875 485.355469 107.847656 483.804688 C 108.769531 482.449219 106.304688 478.402344 107.460938 477.0625 C 108.472656 475.894531 112.777344 477.789063 113.953125 476.65625 C 115.105469 475.554688 113.40625 471.152344 114.703125 470.105469 C 115.796875 469.222656 119.59375 471.910156 120.785156 471.082031 C 121.035156 470.910156 121.210938 470.617188 121.339844 470.257813 L 121.339844 444.738281 C 119.925781 444.980469 118.203125 445.144531 116.109375 445.242188 C 114.035156 445.34375 112.046875 450.9375 109.679688 451.09375 C 107.445313 451.238281 104.605469 448.019531 102.175781 447.835938 C 99.882813 447.65625 95.679688 452.210938 93.277344 451.734375 C 91.265625 451.339844 91.710938 446.078125 89.667969 445.472656 C 87.703125 444.890625 82.742188 448.828125 80.78125 448.054688 C 78.890625 447.304688 80.441406 442.027344 78.582031 441.101563 C 77.03125 440.328125 71.742188 443.769531 70.328125 442.925781 C 68.644531 441.921875 71.21875 436.824219 69.742188 435.738281 C 68.226563 434.628906 62.300781 437.25 61.019531 436.074219 C 59.546875 434.730469 63.128906 429.9375 61.976563 428.542969 C 60.65625 426.945313 54.242188 428.226563 53.371094 426.617188 C 52.457031 424.933594 57.496094 421.132813 57.109375 419.488281 C 56.660156 417.59375 50.683594 416.605469 50.984375 414.851563 C 51.253906 413.320313 54.867188 412.527344 57.222656 411.492188 C 62.835938 414.894531 67.121094 417.441406 67.238281 417.5 C 70.453125 422.023438 71.511719 427.511719 72.289063 432.898438 C 73.0625 436.472656 76.085938 435.636719 75.21875 432.097656 C 74.703125 427.972656 73.847656 423.84375 72.15625 420.058594 C 76 422.050781 83.984375 426.066406 84.035156 426.132813 C 87.417969 430.714844 88.488281 436.328125 89.289063 441.835938 C 90.058594 445.40625 93.082031 444.570313 92.21875 441.03125 C 91.65625 436.574219 90.714844 432.101563 88.730469 428.078125 C 94.839844 430.742188 101.15625 433.097656 107.730469 434.742188 C 112.480469 436.179688 113.859375 433.808594 109.113281 432.398438 C 102.730469 430.800781 96.59375 428.523438 90.652344 425.941406 C 96.035156 425.636719 101.503906 424.496094 106.816406 423.109375 C 111.347656 422.269531 111.097656 419.796875 106.558594 420.71875 C 99.730469 422.414063 92.65625 423.960938 85.859375 423.457031 C 85.660156 423.441406 76.574219 419.234375 72.386719 417.046875 C 78.175781 416.867188 84.089844 415.671875 89.820313 414.175781 C 94.351563 413.335938 94.101563 410.863281 89.5625 411.785156 C 82.734375 413.480469 75.660156 415.027344 68.863281 414.523438 C 68.742188 414.511719 64.652344 412.1875 59.265625 409.039063 C 59.210938 407.199219 58.140625 404.496094 59.4375 403.757813 C 61.160156 402.777344 65.019531 406.328125 67.199219 405.765625 C 69.257813 405.238281 71.261719 400.074219 73.632813 399.917969 C 75.863281 399.773438 77.25 404.722656 79.675781 404.910156 C 81.96875 405.085938 86.171875 400.535156 88.574219 401.007813 C 90.585938 401.40625 90.140625 406.664063 92.183594 407.269531 C 94.152344 407.851563 99.113281 403.917969 101.070313 404.691406 C 102.964844 405.4375 101.414063 410.714844 103.269531 411.640625 C 104.820313 412.417969 110.109375 408.972656 111.523438 409.816406 C 113.203125 410.824219 110.632813 415.917969 112.109375 417.003906 C 113.625 418.117188 118.046875 414.496094 119.335938 415.667969 C 121.613281 417.753906 118.648438 422.71875 119.875 424.203125 C 120.195313 424.589844 120.71875 424.902344 121.339844 425.179688 L 121.339844 342.683594 C 120.90625 342.867188 120.03125 342.796875 119.773438 342.59375 C 118.488281 341.570313 120.019531 336.351563 118.859375 335.242188 C 117.671875 334.101563 114.007813 336.921875 112.96875 335.714844 C 111.773438 334.335938 113.535156 329.289063 112.554688 327.855469 C 111.429688 326.210938 108.117188 325.894531 107.296875 324.230469 C 106.4375 322.488281 109.714844 318.183594 108.835938 316.753906 C 104.1875 309.207031 104.25 306.632813 112.144531 305.882813 C 113.542969 305.75 114.105469 299.894531 115.695313 299.699219 C 117.195313 299.515625 119.710938 303.203125 121.390625 303.363281 C 121.414063 303.363281 121.339844 252.789063 121.339844 252.789063 C 121.011719 253.007813 119.953125 253.386719 119.683594 253.359375 Z M 402.125 62.289063 C 402.324219 60.761719 406.964844 59.976563 407.324219 58.382813 C 407.679688 56.828125 403.839844 54.085938 404.351563 52.496094 C 404.777344 51.160156 409.429688 51.316406 409.96875 49.972656 C 410.613281 48.363281 407.28125 44.988281 408.03125 43.496094 C 408.808594 41.957031 413.496094 42.65625 414.363281 41.261719 C 415.269531 39.8125 412.582031 35.921875 413.5625 34.652344 C 414.734375 33.132813 419.265625 34.675781 420.511719 33.441406 C 421.832031 32.136719 421.992188 28.265625 423.351563 27.3125 C 424.792969 26.300781 428.523438 29.714844 429.769531 28.804688 C 436.800781 23.640625 438.289063 25.273438 438.59375 33.519531 C 438.652344 35.078125 443.796875 35.542969 444.046875 37.292969 C 444.285156 38.964844 441.679688 41.542969 441.652344 43.417969 C 441.628906 45.058594 445.914063 47.085938 445.683594 48.839844 C 445.480469 50.367188 440.84375 51.152344 440.480469 52.746094 C 440.128906 54.300781 443.964844 57.042969 443.457031 58.632813 C 443.027344 59.96875 438.378906 59.8125 437.839844 61.15625 C 437.191406 62.765625 440.523438 66.140625 439.773438 67.628906 C 438.996094 69.171875 434.3125 68.472656 433.441406 69.863281 C 432.539063 71.3125 435.226563 75.203125 434.242188 76.476563 C 433.070313 77.996094 428.539063 76.453125 427.296875 77.6875 C 425.976563 78.992188 427.460938 83.515625 426.101563 84.46875 C 424.660156 85.480469 421.117188 82.410156 419.679688 82.984375 C 418.160156 83.585938 417.566406 88.203125 416.117188 88.261719 C 415.027344 88.304688 414.398438 85.6875 413.582031 84.222656 C 415.246094 79.191406 416.539063 75.421875 416.605469 75.355469 C 420.304688 71.714844 425.113281 69.539063 429.84375 67.597656 C 432.894531 66.144531 431.898438 64.097656 428.890625 65.609375 C 424.886719 67.183594 420.910156 69.074219 417.480469 71.703125 C 418.890625 67.992188 422.210938 60.367188 422.316406 60.261719 C 426.015625 56.617188 430.824219 54.445313 435.558594 52.5 C 438.609375 51.050781 437.613281 49.003906 434.601563 50.515625 C 430.890625 51.972656 427.199219 53.695313 423.945313 56.03125 C 426.191406 51.179688 428.691406 46.46875 431.648438 42.167969 C 433.742188 38.800781 431.851563 37.609375 429.765625 41.003906 C 426.71875 45.429688 424.152344 50.28125 421.847656 55.285156 C 421.140625 51.195313 419.621094 47.257813 417.886719 43.507813 C 416.757813 40.335938 414.621094 41.128906 415.824219 44.285156 C 417.902344 48.960938 419.871094 53.855469 420.027344 59.042969 C 420.027344 59.121094 417.261719 66.070313 415.957031 69.460938 C 415.191406 65.703125 413.777344 62.070313 412.175781 58.605469 C 411.042969 55.433594 408.910156 56.222656 410.109375 59.378906 C 412.144531 63.957031 414.0625 68.742188 414.289063 73.808594 C 414.253906 73.910156 412.945313 77.949219 411.269531 83.285156 C 409.429688 83.601563 406.96875 84.710938 406.109375 83.644531 C 405.125 82.421875 408.128906 78.792969 407.515625 77.101563 C 406.980469 75.632813 402.3125 75.078125 402.0625 73.328125 C 401.824219 71.652344 406.125 69.585938 406.152344 67.710938 C 406.175781 66.074219 401.894531 64.046875 402.125 62.289063 Z M 398.136719 106.921875 C 402.972656 100.183594 407.519531 93.214844 411.039063 85.6875 C 411.265625 85.230469 411.796875 85.054688 412.253906 85.28125 C 412.714844 85.507813 412.890625 86.039063 412.664063 86.496094 C 409.097656 94.082031 404.5625 101.144531 399.640625 107.925781 C 399.371094 108.339844 398.804688 108.460938 398.398438 108.171875 C 397.96875 107.894531 397.863281 107.335938 398.136719 106.921875 Z M 390.199219 111.585938 C 390.628906 111.75 390.890625 112.324219 390.753906 112.898438 C 390.644531 113.460938 390.183594 113.78125 389.753906 113.621094 C 382.359375 111.328125 375.070313 108.496094 368.140625 104.472656 C 367.714844 104.238281 367.523438 103.632813 367.703125 103.082031 C 367.886719 102.535156 368.355469 102.289063 368.785156 102.523438 C 375.644531 106.535156 382.890625 109.269531 390.199219 111.585938 Z M 322.339844 66.238281 C 323.738281 66.105469 324.300781 60.25 325.890625 60.054688 C 327.390625 59.871094 329.78125 63.183594 331.460938 63.34375 C 333.050781 63.496094 335.265625 58.695313 336.96875 59.152344 C 338.394531 59.539063 338.835938 65.023438 340.3125 65.625 C 341.730469 66.203125 344.554688 62.035156 345.996094 62.8125 C 347.394531 63.5625 347.082031 69.082031 348.476563 70.023438 C 349.644531 70.808594 352.757813 67.144531 353.84375 68.007813 C 355.128906 69.03125 354.097656 74.375 355.257813 75.484375 C 356.445313 76.621094 360.109375 73.804688 361.148438 75.011719 C 362.34375 76.390625 360.578125 81.4375 361.5625 82.871094 C 362.6875 84.515625 366.871094 83.089844 367.695313 84.753906 C 368.554688 86.496094 365.660156 90.527344 366.15625 92.230469 C 366.730469 94.203125 370.941406 95.144531 370.980469 96.976563 C 371.015625 98.574219 368.664063 99.453125 367.207031 100.5625 C 362.90625 97.101563 359.628906 94.507813 359.539063 94.449219 C 356.710938 89.777344 355.214844 84.078125 353.921875 78.476563 C 352.890625 74.765625 350.953125 75.683594 352.039063 79.355469 C 352.976563 83.644531 354.140625 87.9375 355.828125 91.851563 C 352.929688 89.828125 346.925781 85.761719 346.882813 85.691406 C 343.929688 80.96875 342.40625 75.132813 341.085938 69.410156 C 340.054688 65.699219 338.117188 66.617188 339.203125 70.289063 C 340.214844 74.925781 341.488281 79.570313 343.410156 83.734375 C 338.871094 81.042969 334.238281 78.679688 329.53125 77.0625 C 326.089844 75.632813 325.488281 78.121094 328.917969 79.519531 C 333.492188 81.097656 337.992188 83.382813 342.402344 85.988281 C 338.78125 86.378906 335.21875 87.644531 331.796875 89.164063 C 328.828125 90.105469 329.347656 92.675781 332.308594 91.652344 C 336.71875 89.789063 341.316406 88.078125 346.019531 88.507813 C 346.15625 88.519531 352.9375 92.769531 356.097656 94.992188 C 352.179688 95.261719 348.324219 96.59375 344.632813 98.230469 C 341.667969 99.171875 342.183594 101.742188 345.144531 100.71875 C 349.554688 98.855469 354.15625 97.144531 358.855469 97.574219 C 358.9375 97.582031 362.054688 99.945313 366.164063 103.148438 C 366.464844 105.066406 367.570313 107.867188 366.796875 108.652344 C 365.761719 109.699219 362.628906 106.054688 361.226563 106.667969 C 359.898438 107.25 359.261719 112.65625 357.671875 112.851563 C 356.171875 113.035156 354.527344 107.898438 352.851563 107.738281 C 351.261719 107.585938 349.046875 112.386719 347.34375 111.929688 C 345.914063 111.546875 345.476563 106.058594 344 105.457031 C 342.578125 104.878906 339.757813 109.046875 338.3125 108.269531 C 336.917969 107.515625 337.226563 101.996094 335.835938 101.058594 C 334.667969 100.273438 331.554688 103.9375 330.472656 103.078125 C 329.183594 102.054688 330.214844 96.710938 329.054688 95.597656 C 327.867188 94.460938 324.203125 97.277344 323.164063 96.074219 C 321.96875 94.691406 323.730469 89.648438 322.75 88.210938 C 321.625 86.566406 318.3125 86.253906 317.492188 84.589844 C 316.632813 82.847656 319.90625 78.539063 319.027344 77.113281 C 314.382813 69.5625 314.445313 66.988281 322.339844 66.238281 Z M 191.894531 74.1875 C 192.167969 73.648438 192.90625 73.347656 193.507813 73.515625 C 203.878906 75.851563 213.988281 78.707031 223.339844 82.699219 C 223.914063 82.933594 224.074219 83.519531 223.699219 84.039063 C 223.324219 84.5625 222.585938 84.785156 222.007813 84.554688 C 212.757813 80.578125 202.691406 77.8125 192.445313 75.449219 C 191.847656 75.285156 191.582031 74.730469 191.894531 74.1875 Z M 90.761719 142.289063 C 90.304688 142.515625 89.769531 142.339844 89.542969 141.882813 C 86.027344 134.355469 81.476563 127.386719 76.640625 120.648438 C 76.371094 120.234375 76.472656 119.675781 76.902344 119.394531 C 77.308594 119.109375 77.878906 119.226563 78.148438 119.644531 C 83.070313 126.425781 87.601563 133.488281 91.167969 141.070313 C 91.394531 141.527344 91.21875 142.0625 90.761719 142.289063 Z M 61.574219 63.15625 C 61.960938 61.515625 56.921875 57.714844 57.835938 56.027344 C 58.707031 54.421875 65.121094 55.699219 66.441406 54.105469 C 67.59375 52.710938 64.011719 47.917969 65.484375 46.570313 C 66.769531 45.398438 72.691406 48.019531 74.207031 46.90625 C 75.683594 45.820313 73.109375 40.726563 74.792969 39.722656 C 76.207031 38.875 81.496094 42.320313 83.046875 41.546875 C 84.90625 40.617188 83.355469 35.339844 85.246094 34.59375 C 87.207031 33.820313 92.167969 37.753906 94.132813 37.171875 C 96.175781 36.566406 95.730469 31.308594 97.742188 30.910156 C 100.144531 30.4375 104.347656 34.988281 106.640625 34.8125 C 109.070313 34.628906 111.914063 31.40625 114.144531 31.554688 C 116.511719 31.710938 118.503906 37.304688 120.574219 37.402344 C 132.285156 37.964844 132.890625 40.425781 127.585938 47.746094 C 126.578125 49.128906 132.234375 53.1875 131.324219 54.871094 C 130.449219 56.480469 125.660156 56.851563 124.339844 58.445313 C 123.1875 59.839844 126.769531 64.632813 125.300781 65.976563 C 124.015625 67.152344 118.089844 64.527344 116.574219 65.640625 C 115.097656 66.726563 117.671875 71.824219 115.988281 72.828125 C 114.574219 73.671875 109.285156 70.230469 107.734375 71.003906 C 105.878906 71.929688 107.429688 77.207031 105.539063 77.953125 C 103.578125 78.730469 98.617188 74.792969 96.648438 75.375 C 94.605469 75.980469 95.050781 81.242188 93.039063 81.640625 C 90.636719 82.113281 86.433594 77.558594 84.140625 77.734375 C 81.714844 77.921875 80.328125 82.875 78.097656 82.726563 C 75.726563 82.574219 73.722656 77.410156 71.664063 76.878906 C 69.484375 76.320313 65.625 79.871094 63.902344 78.890625 C 62.605469 78.152344 63.675781 75.449219 63.730469 73.609375 C 69.117188 70.460938 73.207031 68.136719 73.328125 68.125 C 80.125 67.621094 87.199219 69.167969 94.027344 70.863281 C 98.566406 71.785156 98.816406 69.3125 94.285156 68.472656 C 88.554688 66.976563 82.640625 65.777344 76.851563 65.597656 C 81.039063 63.410156 90.125 59.207031 90.324219 59.191406 C 97.121094 58.683594 104.195313 60.234375 111.023438 61.929688 C 115.5625 62.851563 115.8125 60.378906 111.28125 59.535156 C 105.96875 58.152344 100.5 57.011719 95.117188 56.707031 C 101.058594 54.125 107.195313 51.847656 113.578125 50.246094 C 118.324219 48.839844 116.945313 46.46875 112.195313 47.90625 C 105.621094 49.550781 99.304688 51.902344 93.195313 54.570313 C 95.179688 50.546875 96.121094 46.074219 96.683594 41.613281 C 97.546875 38.078125 94.523438 37.238281 93.753906 40.8125 C 92.957031 46.316406 91.886719 51.933594 88.5 56.511719 C 88.449219 56.578125 80.464844 60.59375 76.621094 62.585938 C 78.316406 58.804688 79.167969 54.671875 79.683594 50.546875 C 80.550781 47.011719 77.527344 46.171875 76.757813 49.746094 C 75.976563 55.132813 74.917969 60.621094 71.703125 65.144531 C 71.585938 65.207031 67.300781 67.753906 61.691406 71.152344 C 59.332031 70.121094 55.71875 69.324219 55.453125 67.796875 C 55.148438 66.042969 61.128906 65.054688 61.574219 63.15625 Z M 30.210938 82.164063 C 40.453125 79.800781 50.519531 77.039063 59.769531 73.058594 C 60.347656 72.828125 61.089844 73.054688 61.464844 73.574219 C 61.839844 74.097656 61.679688 74.683594 61.101563 74.914063 C 51.753906 78.90625 41.640625 81.761719 31.269531 84.101563 C 30.671875 84.265625 29.933594 83.964844 29.65625 83.429688 C 29.347656 82.882813 29.609375 82.328125 30.210938 82.164063 Z M 32.570313 160.6875 C 29.335938 168.339844 27.210938 176.386719 25.445313 184.492188 C 25.320313 184.972656 24.835938 185.269531 24.339844 185.136719 C 23.855469 185.023438 23.5625 184.523438 23.691406 184.046875 C 25.429688 175.847656 27.636719 167.753906 30.878906 160.023438 C 31.066406 159.550781 31.582031 159.324219 32.054688 159.511719 C 32.53125 159.699219 32.753906 160.214844 32.570313 160.6875 Z M 55.328125 145.15625 C 54.390625 146.492188 56.914063 150.460938 55.910156 151.636719 C 54.765625 152.980469 50.390625 151.15625 49.1875 152.273438 C 47.816406 153.550781 49.160156 158.128906 47.757813 159.074219 C 46.292969 160.0625 42.753906 156.96875 41.304688 157.554688 C 39.636719 158.230469 38.953125 162.890625 37.386719 162.980469 C 36.019531 163.054688 35.195313 160.488281 34.199219 158.90625 C 37.035156 154.085938 39.160156 150.414063 39.207031 150.316406 C 43.125 147.089844 47.964844 145.308594 52.722656 143.753906 C 55.871094 142.53125 55.03125 140.417969 51.914063 141.703125 C 48.269531 142.832031 44.625 144.21875 41.320313 146.167969 C 42.964844 142.929688 46.273438 136.21875 46.328125 136.167969 C 50.289063 132.804688 55.242188 130.992188 60.105469 129.402344 C 63.253906 128.179688 62.410156 126.066406 59.296875 127.351563 C 55.355469 128.570313 51.414063 130.085938 47.902344 132.296875 C 50.074219 127.234375 51.957031 122.078125 53.203125 116.851563 C 54.324219 113.027344 52.175781 112.421875 51.078125 116.234375 C 49.863281 121.308594 48.042969 126.320313 45.941406 131.242188 C 45.496094 127.261719 44.304688 123.363281 42.902344 119.632813 C 42.007813 116.386719 39.820313 117.015625 40.785156 120.253906 C 42.511719 125.070313 44.117188 130.09375 43.890625 135.28125 C 43.882813 135.433594 40.445313 143.003906 38.640625 146.539063 C 38.289063 142.230469 37.035156 138.011719 35.519531 133.984375 C 34.625 130.738281 32.4375 131.367188 33.402344 134.605469 C 35.132813 139.421875 36.738281 144.445313 36.511719 149.636719 C 36.503906 149.726563 34.574219 153.214844 31.953125 157.820313 C 30.320313 158.191406 27.953125 159.480469 27.253906 158.640625 C 26.328125 157.527344 29.355469 153.992188 28.789063 152.460938 C 28.25 151.011719 23.597656 150.4375 23.382813 148.6875 C 23.179688 147.042969 27.535156 145.109375 27.621094 143.257813 C 27.703125 141.507813 23.519531 139.175781 23.863281 137.289063 C 24.148438 135.710938 28.839844 135.097656 29.308594 133.453125 C 29.761719 131.875 26.105469 128.863281 26.726563 127.253906 C 27.332031 125.699219 32.066406 125.914063 32.832031 124.355469 C 33.46875 123.054688 30.234375 119.707031 30.941406 118.496094 C 31.78125 117.054688 36.390625 118.0625 37.304688 116.761719 C 38.246094 115.425781 35.722656 111.453125 36.722656 110.28125 C 37.871094 108.933594 42.246094 110.757813 43.445313 109.644531 C 44.820313 108.367188 44.988281 104.707031 46.390625 103.765625 C 47.859375 102.777344 51.648438 106.285156 52.84375 105.285156 C 59.171875 99.988281 61.378906 99.996094 62.257813 108.675781 C 62.414063 110.214844 67.449219 110.695313 67.664063 112.445313 C 67.867188 114.09375 65.101563 116.800781 65.015625 118.65625 C 64.933594 120.410156 69.113281 122.742188 68.769531 124.628906 C 68.484375 126.207031 63.796875 126.820313 63.324219 128.460938 C 62.871094 130.039063 66.53125 133.050781 65.90625 134.660156 C 65.304688 136.214844 60.566406 136 59.804688 137.558594 C 59.167969 138.863281 62.398438 142.207031 61.691406 143.421875 C 60.855469 144.863281 56.246094 143.851563 55.328125 145.15625 Z M 46.058594 296.902344 C 46.402344 295.277344 51.148438 294.871094 51.832031 293.144531 C 52.480469 291.515625 49.285156 287.949219 50.222656 286.277344 C 51.007813 284.878906 55.640625 285.824219 56.617188 284.425781 C 57.558594 283.078125 55.082031 279.039063 56.195313 277.722656 C 57.269531 276.449219 61.679688 278.191406 62.910156 276.96875 C 63.933594 275.945313 61.96875 271.726563 63.03125 270.8125 C 64.292969 269.71875 68.320313 272.175781 69.613281 271.242188 C 70.933594 270.285156 69.839844 265.710938 71.167969 264.925781 C 72.691406 264.023438 76.234375 267.171875 77.734375 266.507813 C 79.449219 265.746094 80.800781 262.34375 82.429688 261.910156 C 84.140625 261.453125 86.582031 266.003906 88.039063 265.445313 C 95.746094 262.496094 97.832031 263.222656 95.839844 271.71875 C 95.484375 273.222656 100.089844 275.316406 99.722656 277.039063 C 99.378906 278.664063 95.882813 280.324219 95.195313 282.050781 C 94.546875 283.683594 97.742188 287.246094 96.804688 288.917969 C 96.019531 290.320313 91.386719 289.371094 90.410156 290.773438 C 89.46875 292.117188 91.945313 296.15625 90.832031 297.472656 C 89.757813 298.746094 85.347656 297.003906 84.117188 298.230469 C 83.089844 299.253906 85.058594 303.46875 83.996094 304.386719 C 82.734375 305.476563 78.703125 303.023438 77.414063 303.957031 C 76.09375 304.914063 77.1875 309.488281 75.855469 310.273438 C 74.335938 311.171875 70.789063 308.023438 69.292969 308.6875 C 67.578125 309.449219 67.359375 314.214844 65.726563 314.652344 C 64.019531 315.109375 61.679688 311.03125 60.121094 311.117188 C 58.320313 311.210938 56.15625 315.398438 54.648438 314.972656 C 53.332031 314.597656 53.386719 311.902344 52.960938 310.085938 C 57.210938 306.449219 60.414063 303.667969 60.492188 303.589844 C 65.242188 301.8125 70.398438 301.703125 75.40625 301.78125 C 78.78125 301.652344 78.671875 299.378906 75.3125 299.578125 C 71.492188 299.460938 67.597656 299.585938 63.839844 300.355469 C 66.449219 297.828125 71.757813 292.558594 71.832031 292.527344 C 76.667969 290.636719 81.941406 290.535156 87.054688 290.613281 C 90.433594 290.484375 90.324219 288.210938 86.960938 288.410156 C 82.835938 288.28125 78.617188 288.429688 74.578125 289.382813 C 78.277344 285.300781 81.734375 281.035156 84.613281 276.5 C 86.917969 273.25 85.082031 271.980469 82.804688 275.226563 C 80.007813 279.628906 76.652344 283.773438 73.066406 287.746094 C 73.941406 283.835938 74.082031 279.761719 73.96875 275.777344 C 74.179688 272.414063 71.90625 272.300781 71.765625 275.675781 C 71.832031 280.792969 71.714844 286.066406 69.8125 290.898438 C 69.757813 291.039063 64.042969 297.078125 61.183594 299.832031 C 62.253906 295.644531 62.441406 291.246094 62.316406 286.945313 C 62.527344 283.585938 60.253906 283.472656 60.113281 286.847656 C 60.183594 291.960938 60.066406 297.234375 58.164063 302.066406 C 58.128906 302.152344 55.167969 304.820313 51.1875 308.324219 C 49.523438 308.144531 46.867188 308.59375 46.480469 307.574219 C 45.964844 306.214844 49.980469 303.859375 49.941406 302.226563 C 49.902344 300.683594 45.691406 298.625 46.058594 296.902344 Z M 34.84375 330.4375 C 39.15625 323.25 43.875 316.3125 49.457031 310.058594 C 49.789063 309.671875 50.347656 309.628906 50.734375 309.957031 C 51.125 310.289063 51.167969 310.847656 50.839844 311.238281 C 45.292969 317.421875 40.664063 324.335938 36.355469 331.429688 C 36.082031 331.839844 35.527344 331.964844 35.101563 331.675781 C 34.679688 331.414063 34.566406 330.847656 34.84375 330.4375 Z M 22.945313 356.066406 C 23.148438 355.515625 23.679688 355.179688 24.128906 355.28125 C 31.503906 357.378906 39.058594 359.09375 46.992188 359.527344 C 47.476563 359.570313 47.734375 360.035156 47.585938 360.59375 C 47.433594 361.148438 46.941406 361.550781 46.457031 361.511719 C 38.453125 361.046875 30.8125 359.390625 23.382813 357.222656 C 22.933594 357.121094 22.726563 356.597656 22.945313 356.066406 Z M 31.632813 534.445313 C 31.632813 534.9375 31.238281 535.347656 30.722656 535.34375 C 30.226563 535.359375 29.820313 534.945313 29.824219 534.449219 C 29.457031 526.078125 29.570313 517.6875 30.777344 509.394531 C 30.839844 508.886719 31.28125 508.542969 31.789063 508.601563 C 32.296875 508.664063 32.640625 509.109375 32.578125 509.613281 C 31.363281 517.832031 31.316406 526.152344 31.632813 534.445313 Z M 61.113281 555.457031 C 54.179688 559.484375 46.894531 562.316406 39.5 564.605469 C 39.070313 564.769531 38.609375 564.445313 38.496094 563.882813 C 38.363281 563.308594 38.621094 562.734375 39.050781 562.574219 C 46.363281 560.257813 53.605469 557.519531 60.46875 553.507813 C 60.894531 553.277344 61.367188 553.519531 61.546875 554.070313 C 61.730469 554.617188 61.539063 555.222656 61.113281 555.457031 Z M 63.097656 543.21875 C 63.59375 541.511719 60.699219 537.484375 61.558594 535.742188 C 62.378906 534.078125 66.566406 535.5 67.691406 533.855469 C 68.671875 532.421875 66.910156 527.378906 68.101563 525.996094 C 69.144531 524.792969 72.804688 527.609375 73.992188 526.46875 C 75.152344 525.359375 74.121094 520.015625 75.410156 518.992188 C 76.492188 518.132813 79.609375 521.792969 80.773438 521.007813 C 82.167969 520.070313 81.859375 514.550781 83.253906 513.796875 C 84.695313 513.019531 87.519531 517.191406 88.941406 516.613281 C 90.417969 516.011719 90.855469 510.523438 92.28125 510.140625 C 93.984375 509.679688 96.203125 514.480469 97.789063 514.332031 C 99.46875 514.171875 101.859375 510.859375 103.359375 511.042969 C 104.949219 511.238281 105.515625 517.09375 106.910156 517.226563 C 114.804688 517.976563 114.867188 520.550781 110.222656 528.097656 C 109.34375 529.527344 112.621094 533.832031 111.761719 535.574219 C 110.9375 537.238281 107.625 537.554688 106.503906 539.199219 C 105.519531 540.632813 107.28125 545.679688 106.089844 547.058594 C 105.046875 548.265625 101.386719 545.449219 100.195313 546.585938 C 99.035156 547.695313 100.066406 553.039063 98.78125 554.0625 C 97.699219 554.921875 94.582031 551.261719 93.417969 552.046875 C 92.023438 552.984375 92.335938 558.503906 90.941406 559.253906 C 89.496094 560.035156 86.671875 555.863281 85.253906 556.441406 C 83.773438 557.042969 83.335938 562.53125 81.910156 562.914063 C 80.207031 563.375 77.988281 558.574219 76.402344 558.722656 C 74.722656 558.882813 73.078125 564.023438 71.582031 563.839844 C 69.988281 563.644531 69.351563 558.238281 68.027344 557.65625 C 66.621094 557.039063 63.492188 560.6875 62.457031 559.640625 C 61.679688 558.851563 62.789063 556.050781 63.085938 554.136719 C 67.199219 550.929688 70.3125 548.566406 70.398438 548.558594 C 75.097656 548.128906 79.695313 549.84375 84.105469 551.703125 C 87.066406 552.726563 87.585938 550.15625 84.617188 549.21875 C 80.929688 547.578125 77.070313 546.246094 73.152344 545.976563 C 76.3125 543.757813 83.097656 539.507813 83.234375 539.492188 C 87.933594 539.0625 92.53125 540.777344 96.941406 542.636719 C 99.902344 543.664063 100.421875 541.089844 97.453125 540.152344 C 94.035156 538.632813 90.46875 537.363281 86.847656 536.972656 C 91.257813 534.367188 95.761719 532.082031 100.332031 530.507813 C 103.761719 529.105469 103.160156 526.617188 99.71875 528.046875 C 95.011719 529.667969 90.378906 532.027344 85.839844 534.71875 C 87.761719 530.554688 89.035156 525.910156 90.046875 521.273438 C 91.136719 517.601563 89.195313 516.683594 88.164063 520.398438 C 86.84375 526.121094 85.320313 531.957031 82.371094 536.679688 C 82.328125 536.746094 76.320313 540.816406 73.421875 542.835938 C 75.109375 538.921875 76.277344 534.628906 77.210938 530.339844 C 78.296875 526.667969 76.359375 525.753906 75.328125 529.464844 C 74.035156 535.0625 72.539063 540.765625 69.710938 545.433594 C 69.625 545.496094 66.34375 548.085938 62.042969 551.550781 C 60.585938 550.4375 58.234375 549.558594 58.269531 547.964844 C 58.3125 546.132813 62.523438 545.1875 63.097656 543.21875 Z M 54.5 454.128906 C 55.109375 455.671875 53.109375 458.988281 53.488281 460.804688 C 53.847656 462.523438 58.476563 463.734375 58.617188 465.648438 C 58.734375 467.25 54.347656 469.011719 54.304688 470.722656 C 54.261719 472.363281 58.554688 474.363281 58.351563 476.078125 C 58.15625 477.730469 53.519531 478.710938 53.167969 480.410156 C 52.878906 481.832031 56.84375 484.265625 56.464844 485.613281 C 56.011719 487.21875 51.296875 487.394531 50.734375 488.886719 C 50.160156 490.414063 53.59375 493.625 52.917969 495.011719 C 52.144531 496.601563 47.453125 495.929688 46.570313 497.3125 C 45.558594 498.890625 48.003906 502.988281 46.882813 504.253906 C 45.710938 505.574219 41.511719 503.464844 40.257813 504.394531 C 38.808594 505.46875 39.3125 510.152344 37.816406 510.628906 C 36.511719 511.042969 35.070313 508.761719 33.714844 507.480469 C 35.253906 502.105469 36.394531 498.019531 36.417969 497.910156 C 39.402344 493.808594 43.640625 490.875 47.859375 488.179688 C 50.605469 486.207031 49.261719 484.371094 46.566406 486.394531 C 43.316406 488.402344 40.136719 490.652344 37.425781 493.367188 C 38.207031 489.820313 39.730469 482.492188 39.773438 482.429688 C 42.765625 478.1875 47.109375 475.191406 51.417969 472.4375 C 54.164063 470.464844 52.820313 468.628906 50.125 470.652344 C 46.613281 472.820313 43.175781 475.269531 40.332031 478.289063 C 41.164063 472.847656 41.699219 467.382813 41.601563 462.011719 C 41.730469 458.027344 39.496094 457.980469 39.386719 461.945313 C 39.480469 467.160156 38.96875 472.46875 38.167969 477.757813 C 36.742188 474.015625 34.613281 470.539063 32.320313 467.277344 C 30.640625 464.359375 28.679688 465.515625 30.425781 468.410156 C 33.304688 472.640625 36.113281 477.101563 37.191406 482.183594 C 37.222656 482.332031 35.785156 490.523438 34.917969 494.394531 C 33.503906 490.308594 31.234375 486.539063 28.761719 483.019531 C 27.082031 480.101563 25.121094 481.257813 26.867188 484.152344 C 29.746094 488.382813 32.554688 492.847656 33.632813 497.925781 C 33.652344 498.015625 32.652344 501.875 31.265625 506.992188 C 29.777344 507.757813 27.808594 509.597656 26.921875 508.960938 C 25.746094 508.113281 27.796875 503.933594 26.863281 502.59375 C 25.980469 501.324219 21.332031 501.929688 20.683594 500.292969 C 20.078125 498.746094 23.808594 495.789063 23.429688 493.976563 C 23.074219 492.257813 18.441406 491.046875 18.300781 489.132813 C 18.183594 487.53125 22.570313 485.765625 22.613281 484.058594 C 22.660156 482.417969 18.363281 480.414063 18.566406 478.703125 C 18.761719 477.046875 23.402344 476.070313 23.75 474.371094 C 24.042969 472.949219 20.078125 470.519531 20.457031 469.167969 C 20.90625 467.5625 25.621094 467.386719 26.183594 465.898438 C 26.761719 464.367188 23.324219 461.15625 24 459.769531 C 24.773438 458.179688 29.46875 458.851563 30.351563 457.46875 C 31.359375 455.890625 30.609375 452.304688 31.730469 451.039063 C 32.90625 449.71875 37.453125 452.167969 38.359375 450.898438 C 43.164063 444.191406 45.304688 443.648438 48.324219 451.832031 C 48.859375 453.277344 53.855469 452.488281 54.5 454.128906 Z M 57 409.070313 C 56.625 409.59375 55.882813 409.816406 55.304688 409.585938 C 46.054688 405.609375 35.988281 402.847656 25.746094 400.484375 C 25.144531 400.316406 24.882813 399.765625 25.191406 399.21875 C 25.46875 398.679688 26.207031 398.382813 26.804688 398.546875 C 37.175781 400.886719 47.285156 403.742188 56.636719 407.734375 C 57.214844 407.964844 57.371094 408.550781 57 409.070313 Z M 106.191406 347.757813 C 107.410156 348.796875 104.652344 353.992188 105.746094 354.871094 C 111.914063 359.851563 110.550781 362.035156 102.511719 365.769531 C 100.992188 366.476563 101.347656 371.875 99.671875 372.855469 C 98.066406 373.789063 95.128906 372.226563 93.285156 372.976563 C 91.675781 373.632813 90.363281 378.8125 88.605469 379.304688 C 87.074219 379.738281 85.570313 375.367188 83.953125 375.660156 C 82.375 375.949219 80.285156 380.976563 78.648438 381.117188 C 77.269531 381.238281 76.691406 376.46875 75.285156 376.480469 C 73.605469 376.492188 70.820313 381.269531 69.242188 381.125 C 67.609375 380.980469 67.554688 375.945313 66.050781 375.644531 C 64.484375 375.328125 61.09375 379.664063 59.691406 379.199219 C 58.019531 378.644531 58.816406 373.414063 57.40625 372.664063 C 55.921875 371.871094 51.714844 375.253906 50.566406 374.273438 C 49.347656 373.234375 51.796875 368.371094 51.011719 367.15625 C 50.179688 365.867188 45.558594 367.183594 45.273438 365.738281 C 45.058594 364.652344 47.527344 362.929688 48.832031 361.496094 C 54.027344 361.089844 57.929688 360.835938 58.003906 360.875 C 62.164063 363.109375 65.054688 367.074219 67.707031 371.058594 C 69.613281 373.546875 71.460938 371.6875 69.503906 369.265625 C 67.332031 365.863281 64.847656 362.628906 61.726563 360.242188 C 65.589844 360.132813 73.589844 360.328125 73.714844 360.390625 C 77.871094 362.625 80.761719 366.589844 83.414063 370.574219 C 85.320313 373.0625 87.167969 371.203125 85.214844 368.78125 C 83.199219 365.628906 80.921875 362.605469 78.117188 360.28125 C 83.234375 360.542969 88.25 361.117188 92.933594 362.324219 C 96.566406 363.046875 97.433594 360.640625 93.777344 359.9375 C 88.957031 358.6875 83.789063 358.105469 78.519531 357.847656 C 82.417969 355.433594 86.042969 352.261719 89.445313 348.949219 C 92.378906 346.488281 91.265625 344.652344 88.355469 347.183594 C 84.101563 351.226563 79.613281 355.253906 74.546875 357.566406 C 74.46875 357.601563 67.214844 357.683594 63.683594 357.769531 C 67.25 355.433594 70.589844 352.496094 73.734375 349.433594 C 76.667969 346.972656 75.558594 345.136719 72.648438 347.664063 C 68.484375 351.625 64.09375 355.554688 59.15625 357.890625 C 59.050781 357.894531 54.886719 358.246094 49.386719 358.765625 C 48.785156 357.03125 47.308594 355.003906 48.21875 353.691406 C 49.261719 352.1875 53.296875 353.722656 54.859375 352.394531 C 56.214844 351.246094 56.023438 346.285156 57.699219 345.308594 C 59.304688 344.371094 62.011719 347.867188 63.855469 347.117188 C 65.464844 346.460938 66.777344 341.28125 68.53125 340.789063 C 70.066406 340.355469 71.570313 344.726563 73.1875 344.433594 C 74.765625 344.144531 76.851563 339.117188 78.492188 338.976563 C 79.867188 338.855469 80.449219 343.628906 81.855469 343.613281 C 83.535156 343.601563 86.320313 338.824219 87.898438 338.96875 C 89.53125 339.113281 89.585938 344.148438 91.089844 344.449219 C 92.65625 344.761719 96.046875 340.429688 97.449219 340.894531 C 99.121094 341.449219 98.324219 346.679688 99.730469 347.429688 C 101.222656 348.222656 105.042969 346.777344 106.191406 347.757813 "/>
</g>
</svg>
