<?xml version="1.0" encoding="UTF-8"?>
<svg xmlns="http://www.w3.org/2000/svg" xmlns:xlink="http://www.w3.org/1999/xlink" width="51pt" height="698pt" viewBox="0 0 51 698" version="1.1">
<g id="surface1">
<path style=" stroke:none;fill-rule:nonzero;fill:rgb(0%,0%,0%);fill-opacity:1;" d="M 44.828125 502.300781 C 42.972656 505.707031 37.328125 508.878906 31.488281 507.535156 C 27.289063 506.566406 20.128906 494.796875 26.234375 479.785156 C 32.449219 464.503906 47.605469 451.289063 50.808594 435.457031 C 48.414063 432 43.757813 433.261719 40.433594 432.066406 C 46.953125 421.558594 51.140625 409.523438 49.945313 398.351563 C 46.085938 395.558594 41.164063 398.550781 38.238281 399.214844 C 40.367188 384.453125 35.3125 365.433594 29.0625 352.265625 C 35.179688 356.257813 43.894531 361.84375 50.277344 359.449219 C 50.144531 347.496094 49.878906 339.28125 50.382813 328.460938 C 50.65625 322.519531 48.585938 323.066406 46.292969 326.035156 C 44.15625 328.808594 42.207031 331.046875 40.121094 332.726563 C 29.570313 341.226563 19.847656 318.367188 24.835938 307.679688 C 31.847656 292.65625 47.613281 281.25 50.078125 264.417969 C 46.886719 262.023438 43.828125 263.953125 40.101563 262.757813 C 48.347656 252.117188 51.339844 236.421875 49.746094 225.648438 C 46.019531 224.585938 41.433594 225.25 38.105469 225.78125 C 41.296875 214.167969 35.703125 189.175781 28.664063 179.496094 C 28.664063 179.496094 44.617188 189.40625 50.386719 182.289063 L 50.164063 156.550781 C 50.164063 156.550781 49.339844 146.996094 45.402344 156.414063 C 41.324219 166.867188 32.992188 164.988281 28.171875 159.515625 C 22.71875 153.320313 17.523438 141.519531 25.828125 129.199219 C 34.5625 116.234375 51.722656 106.535156 49.679688 88.925781 C 46.351563 87.0625 43.292969 88.792969 39.703125 87.59375 C 45.273438 79.199219 52.289063 64.601563 45.421875 49.691406 C 41.832031 49.425781 38.171875 50.15625 35.3125 50.621094 C 36.90625 36.292969 33.816406 19.195313 25.238281 6.53125 C 19.371094 -2.128906 18.699219 -1.292969 18.964844 8.589844 C 19.347656 22.894531 17.171875 35.160156 12.679688 48.21875 C -1.375 89.117188 -8.539063 140.589844 19.21875 173.644531 C 21.628906 191.261719 15.914063 206.296875 10.570313 222.410156 C 1.523438 249.710938 -9.789063 313.273438 19.15625 345.816406 C 22.289063 365.734375 17.222656 383.179688 11.585938 402.066406 C -0.257813 441.742188 -5.816406 484.589844 17.527344 513.8125 C 26.011719 524.4375 14.117188 556.875 11.027344 565.925781 C -2.175781 604.597656 -8.253906 661.867188 30.335938 690.386719 C 33.957031 693.0625 44.492188 699.128906 50.210938 697 L 50.332031 669.605469 C 50.332031 669.605469 48.320313 660.703125 44.789063 668.765625 C 43.242188 672.292969 38.949219 674.851563 35.742188 675.113281 C 25.902344 675.914063 22.78125 658.652344 27.691406 648.257813 C 34.144531 634.589844 45.71875 618.441406 50.34375 604.167969 C 47.816406 601.242188 42.03125 601.574219 38.441406 601.574219 C 44.886719 592.597656 50.664063 579.074219 49.832031 567.1875 C 45.132813 564.574219 40.632813 566.527344 37.308594 567.328125 C 37.308594 567.328125 43.292969 541.390625 32.519531 524.632813 C 32.519531 524.632813 44.226563 531.816406 50.34375 528.09375 L 50.34375 503.355469 C 50.34375 503.355469 49.742188 493.277344 44.828125 502.300781 "/>
</g>
</svg>
