<?xml version="1.0" encoding="UTF-8"?>
<svg xmlns="http://www.w3.org/2000/svg" xmlns:xlink="http://www.w3.org/1999/xlink" width="531pt" height="691pt" viewBox="0 0 531 691" version="1.1">
<g id="surface1">
<path style=" stroke:none;fill-rule:nonzero;fill:rgb(0%,0%,0%);fill-opacity:1;" d="M 511.875 104.753906 C 507.070313 105.386719 503.414063 107.871094 498.671875 106.003906 C 503.679688 97.140625 496.492188 92.183594 485.015625 94.046875 C 473.65625 95.886719 476.714844 80.78125 493.027344 80.089844 C 515.863281 79.125 520.539063 63.242188 504.3125 49.25 C 510.5 45.234375 516.03125 41.96875 521.488281 38.007813 C 536.132813 27.378906 528.363281 8.4375 505.871094 15.011719 C 499.226563 16.953125 492.316406 20.210938 486.363281 20.359375 C 487.859375 3.882813 480.5 0.3125 470.546875 5.3125 C 463.90625 8.648438 458.136719 14.816406 452.003906 19.164063 C 457.09375 5.828125 445.636719 5.230469 438.273438 7.207031 C 427.234375 10.167969 414.765625 22.46875 418.671875 30.277344 C 431.832031 29.421875 461.746094 32.667969 461.746094 32.667969 C 458.839844 42.070313 453.371094 50.277344 447.558594 58.480469 C 450.121094 58.480469 479.183594 43.265625 493.199219 41.386719 C 482.261719 47.710938 435.59375 68.738281 426.703125 76.941406 C 429.226563 76.941406 458.878906 101.441406 471.660156 114.550781 C 479.183594 117.285156 488.925781 115.917969 497.472656 118.824219 C 480.039063 120.019531 444.25 120.136719 417.472656 128.054688 L 418.15625 127.539063 C 430.808594 120.875 444.996094 114.550781 459.355469 110.277344 C 447.902344 98.824219 433.199219 88.738281 421.234375 77.625 C 432.175781 66.003906 449.097656 52.328125 452.515625 36.429688 L 415.59375 36.429688 C 411.660156 23.609375 410.464844 10.789063 400.894531 0.703125 C 390.203125 17.207031 366.347656 28.785156 356.523438 46.964844 C 353.933594 51.757813 351.191406 69.171875 350.464844 80.703125 C 342.945313 78.308594 335.078125 75.402344 328.242188 73.867188 C 347.636719 63.4375 342.449219 50.105469 334.398438 43.78125 C 335.765625 41.039063 338.386719 38.640625 340.757813 36.1875 C 353.007813 23.496094 342.589844 12.664063 325.640625 16.136719 C 318.136719 17.671875 311.574219 22.949219 304.824219 26.515625 C 300.0625 11.640625 290.25 12.058594 284.613281 19.40625 C 281.441406 23.535156 279.273438 29.367188 275.8125 33.742188 C 270.28125 40.730469 262.851563 37.851563 261.9375 30.832031 C 261.660156 28.695313 261.832031 26.34375 261.746094 23.4375 C 258.96875 5.09375 246.230469 8.8125 234.054688 18.480469 C 226.09375 4.828125 211.683594 6.878906 207.226563 16.992188 C 205.25 21.476563 204.40625 26.648438 200.210938 30.277344 C 200.210938 30.277344 194.308594 21.21875 179.355469 27.199219 L 173.714844 20.359375 C 158.15625 25.488281 144.140625 32.328125 129.4375 38.308594 C 124.652344 24.464844 117.644531 10.960938 105.507813 0.703125 C 87.597656 8.652344 83.019531 21.664063 77.816406 35.746094 C 65.164063 20.359375 49.269531 5.488281 30.976563 0.0195313 C 25.164063 12.839844 29.4375 28.226563 27.386719 39.507813 C 24.53125 37.835938 23.300781 38.410156 22.84375 42.78125 C 21.121094 59.167969 21.8125 77.929688 31.660156 91.8125 C 15.164063 88.414063 11.253906 96.21875 12.140625 108.40625 C 12.976563 119.847656 17.175781 130.617188 22.429688 139.847656 C 25.847656 143.523438 24.183594 144.71875 21.640625 145.765625 C 14.230469 148.816406 13.023438 154.121094 18.605469 163.84375 C 21.953125 169.671875 27.496094 174.628906 32.859375 177.96875 C 27.960938 185.503906 29.378906 196.425781 46.28125 198.554688 C 61.097656 200.421875 81.390625 219.382813 88.242188 240.019531 C 91.320313 248.054688 88.925781 258.480469 97.472656 264.121094 C 101.28125 261.6875 104.957031 263.050781 108.585938 264.078125 C 114.347656 265.714844 116.007813 262.105469 111.890625 255.644531 C 104.414063 243.898438 95.195313 233.796875 88.242188 221.558594 L 88.242188 214.890625 C 57.691406 185.285156 35.671875 159.421875 32.175781 132.328125 C 44.480469 160.019531 62.429688 186.515625 85.847656 206.855469 C 83.074219 192.660156 79.054688 178.929688 77.953125 164.035156 C 77.65625 160.007813 80.148438 158.152344 81.109375 162.695313 C 83.421875 173.660156 84.246094 185.539063 89.441406 194.550781 L 93.714844 188.394531 C 106.363281 186.6875 94.398438 176.257813 99.867188 169.933594 C 104.996094 174.207031 104.652344 181.730469 109.78125 186.515625 C 95.972656 187.808594 95.625 203.515625 104.3125 214.207031 C 96.710938 214.839844 89.792969 219.835938 94.398438 226.515625 C 94.398438 226.515625 123.132813 255.089844 126.628906 264.449219 C 129.277344 271.53125 131.410156 281.792969 117.429688 273.886719 C 114.824219 272.410156 112.34375 270.445313 109.78125 269.078125 C 107.386719 268.226563 103.113281 267.710938 101.746094 269.59375 C 116.558594 282.320313 145.335938 330.128906 149.371094 354.722656 C 149.527344 355.683594 148.683594 356.679688 148.472656 356.203125 C 134.140625 323.679688 113.621094 290.9375 83.96875 266.003906 C 79.832031 227.222656 51.898438 210.078125 20.988281 204.667969 C 12.035156 203.101563 3.75 202.734375 1.40625 209.933594 C -3.957031 233.289063 23.402344 265.824219 44.8125 271.8125 C 58.011719 275.503906 72.859375 274.480469 84.480469 283.78125 C 75.839844 288.390625 73.589844 292.96875 77.816406 301.558594 C 67.996094 304.175781 63.203125 308.003906 65.519531 313.976563 C 68.496094 321.640625 86.414063 330.355469 101.234375 339.847656 C 90.523438 342.824219 91.683594 352.328125 98.410156 355.023438 C 117.566406 362.6875 157.0625 371.457031 156.617188 407.539063 C 151.660156 413.695313 146.363281 420.019531 141.746094 426.003906 C 135.25 415.746094 133.542969 402.585938 124.480469 394.550781 C 115.59375 401.046875 107.386719 408.226563 100.550781 417.285156 C 94.398438 407.710938 91.148438 395.402344 81.40625 388.394531 C 77.300781 394.890625 71.832031 400.875 67.902344 407.539063 C 61.746094 407.539063 56.617188 403.269531 52.515625 399.507813 C 53.757813 391.210938 60.691406 388.660156 67.113281 385.589844 C 79.859375 379.5 79.371094 367.78125 66.703125 361.898438 C 77.71875 346.265625 72.308594 327.285156 52.003906 324.976563 C 51.675781 314.105469 53.882813 300.78125 42.089844 299.164063 C 32.226563 298.164063 29.203125 289.234375 23.027344 283.890625 C 11.890625 274.25 5.097656 284.992188 10.625 298.414063 C 16.253906 312.089844 24.179688 315.171875 19.351563 342.242188 C 13.402344 377.117188 5.210938 411.992188 7.023438 448.503906 C 8 468.125 10.082031 494.195313 15.449219 516 C 24.421875 552.433594 42.582031 585.339844 41.78125 624.160156 C 41.347656 645.265625 24.433594 670.042969 9.4375 688.738281 C 17.132813 687.199219 23.046875 694.523438 31.660156 686.855469 C 51.832031 668.394531 64.3125 647.371094 80.207031 626.515625 C 89.332031 617.890625 100.101563 605.523438 112.3125 602.832031 C 128.144531 599.347656 134.609375 608.277344 131.320313 615.40625 C 116.476563 636.03125 95.027344 628.859375 83.539063 638.085938 C 70.523438 648.539063 69.128906 665.210938 93.433594 665.269531 C 97.925781 665.28125 97.832031 669.816406 96.277344 676.429688 C 92.59375 692.207031 105.445313 692.855469 119.203125 677.957031 C 124.914063 671.769531 130.902344 670.761719 137.449219 673.019531 C 143.058594 674.953125 146.386719 678.558594 154.492188 678.203125 C 170.46875 677.5 180.871094 670.296875 165.734375 657.324219 C 161.058594 653.320313 160.589844 648.523438 169.394531 645.960938 C 183.398438 641.882813 180.507813 627.820313 167.328125 620.925781 C 153.910156 613.910156 164.109375 606.707031 172.09375 598.203125 C 183.640625 585.90625 181.910156 575.429688 169.1875 575.460938 C 166.921875 575.464844 164.613281 575.574219 162.773438 574.890625 C 167.285156 565.640625 172.171875 556.160156 174.332031 545.871094 C 178.988281 523.710938 169.246094 513.089844 154.738281 523.78125 C 153.542969 520.019531 154.910156 514.71875 152.175781 512.15625 C 142.429688 517.285156 131.492188 517.113281 120.210938 518.824219 C 119.660156 526.613281 116.382813 534.292969 114.566406 542.304688 C 112.039063 553.441406 108.746094 552.410156 110.550781 541.769531 C 112.089844 532.691406 113.140625 523.515625 117.132813 515.234375 C 141.484375 514.527344 173.046875 504.59375 176.15625 470.976563 C 178.679688 443.65625 168.0625 408.597656 167.144531 404.675781 C 165.800781 398.902344 164.738281 392.988281 165.851563 386.003906 C 170.292969 356.089844 171.9375 237.5625 168.691406 208.175781 C 167.152344 194.214844 160.289063 158.835938 154.054688 142.925781 C 168.585938 138.140625 184.652344 135.0625 196.617188 147.710938 C 205.664063 157.679688 215.246094 161.632813 216.550781 147.980469 C 217.285156 140.277344 223.726563 135.304688 233.308594 146.007813 C 237.570313 150.765625 241.75 155.988281 246.429688 160.351563 C 261.4375 174.355469 272.105469 167.378906 280.210938 154.550781 C 288.390625 159.707031 298.328125 165.929688 308.367188 168.929688 C 334.488281 176.742188 349.042969 155.269531 331.667969 143.046875 C 328.273438 140.660156 324.484375 138.667969 321.40625 135.402344 C 328.148438 132.914063 335.167969 122.304688 323.449219 117.519531 C 315.9375 114.449219 304.363281 112.753906 299.527344 110.402344 C 290.601563 106.0625 296.457031 102.308594 304.082031 101.265625 C 311.066406 100.3125 318.832031 98.546875 323.285156 96.089844 C 298.394531 93.320313 246.523438 96.636719 218.15625 106.003906 C 238.671875 110.105469 258.839844 113.695313 276.617188 126.855469 C 240.558594 112.257813 211.691406 111.304688 197.816406 111.472656 C 229.980469 92.0625 264.84375 82.773438 303.222656 81.871094 C 326.457031 81.324219 353.03125 88.582031 359.695313 125.660156 C 363.105469 143.605469 380.117188 162.0625 400.894531 160.019531 C 416.277344 157.96875 428.925781 167.710938 441.40625 173.011719 C 440.039063 165.148438 437.132813 157.113281 436.617188 149.59375 C 453.730469 157.199219 476.421875 166.761719 475.933594 148.394531 C 494.605469 151.8125 502.585938 139.28125 501.234375 132.328125 C 506.511719 130.863281 513.015625 129.898438 518.640625 127.621094 C 539.808594 119.042969 531.214844 102.203125 511.875 104.753906 Z M 7.046875 219.847656 C 18.667969 232.15625 36.984375 256.671875 67.386719 270.789063 C 31.066406 270.125 7.046875 219.847656 7.046875 219.847656 Z M 11.320313 217.285156 C 37.0625 227.703125 59.644531 241.402344 69.78125 263.4375 C 48.878906 251.496094 31.882813 242.726563 11.320313 217.285156 Z M 15.59375 210.617188 C 32.496094 210.820313 72.421875 229.0625 75.933594 256.769531 C 63.796875 232.667969 36.449219 224.636719 15.59375 210.617188 Z M 87.046875 286.855469 C 100.726563 292 121.234375 333.351563 136.789063 356.429688 C 129.257813 353.804688 106.191406 309.078125 87.046875 286.855469 Z M 139.867188 534.890625 C 162.703125 545.117188 152.664063 581.109375 136.0625 592.304688 C 156.757813 601.652344 137.4375 647.085938 119.695313 661.558594 C 125.855469 651.585938 150.992188 613.066406 136.617188 599.90625 C 135.660156 599.027344 128.414063 594.550781 126.363281 592.15625 C 142.785156 594.027344 159.933594 553.640625 139.867188 534.890625 Z M 170.636719 29.59375 C 172.195313 58.589844 152.253906 73.003906 132.003906 76.941406 C 138.238281 67.738281 123.285156 67.710938 123.285156 67.710938 C 123.796875 64.636719 125.164063 59.675781 122.089844 57.285156 C 135.59375 44.121094 152.34375 33.867188 170.636719 29.59375 Z M 122.089844 87.539063 C 138.15625 82.925781 163.019531 77.015625 181.746094 62.925781 C 181.359375 86.445313 150.660156 109.664063 120.890625 116.429688 C 126.875 109.078125 122.601563 96.769531 122.089844 87.539063 Z M 103.628906 8.738281 C 121.398438 24.320313 119.695313 46.371094 119.695313 49.933594 C 114.054688 48.90625 109.953125 51.128906 106.703125 55.402344 C 99.65625 43.945313 91.320313 53.695313 91.320313 53.695313 C 88.925781 50.105469 85.847656 47.882813 83.285156 44.976563 C 85.847656 31.128906 92.003906 17.113281 103.628906 8.738281 Z M 35.25 9.933594 C 49.890625 15.484375 63.058594 29.457031 74.054688 45.660156 C 71.089844 49.761719 72.515625 53.867188 73.542969 58.480469 C 69.078125 57.21875 62.644531 58.382813 64.3125 67.710938 C 55.597656 64.660156 55.082031 70.789063 55.082031 70.789063 C 38.15625 54.71875 30.804688 33.011719 35.25 9.933594 Z M 29.78125 48.738281 C 41.0625 64.636719 53.542969 79.164063 69.097656 91.128906 C 68.070313 97.96875 67.386719 105.832031 68.585938 112.667969 C 52.550781 109.132813 23.316406 78.640625 29.78125 48.738281 Z M 69.316406 154.722656 C 63.8125 162.429688 50.867188 160.496094 54.753906 148.941406 C 56.898438 142.574219 62.453125 136.152344 52.515625 131.128906 C 48.585938 131.300781 43.113281 131.300781 39.695313 128.738281 L 43.96875 109.078125 C 58.921875 119.820313 77.816406 124.976563 77.816406 124.976563 C 77.984375 132.15625 79.695313 138.480469 80.890625 145.320313 C 76.867188 147.734375 72.207031 150.675781 69.316406 154.722656 Z M 77.609375 105.21875 C 76.851563 88.472656 81.6875 74.183594 94.398438 62.925781 C 104.035156 74.898438 120.535156 87.871094 117.890625 104.082031 C 114.273438 126.253906 78.542969 125.957031 77.609375 105.21875 Z M 121.40625 406.171875 C 129.953125 416.941406 133.542969 427.710938 136.277344 440.703125 C 141.234375 434.207031 147.386719 427.199219 154.738281 422.925781 C 159.183594 440.019531 155.421875 457.628906 143.628906 470.277344 C 144.652344 456.269531 133.199219 462.242188 133.199219 462.242188 C 129.347656 452.125 127.421875 450.601563 117.816406 455.402344 C 115.828125 448.257813 109.734375 447.199219 104.824219 453.695313 C 105.164063 436.429688 101.917969 415.234375 121.40625 406.171875 Z M 66.234375 426.296875 C 69.144531 416.121094 83.285156 400.019531 83.285156 400.019531 C 90.636719 409.933594 93.542969 421.558594 97.472656 432.667969 C 88.242188 440.019531 81.0625 449.25 74.738281 458.480469 C 71.527344 448.230469 62.972656 437.707031 66.234375 426.296875 Z M 56.789063 424.121094 C 59.011719 429.078125 65.519531 449.710938 68.007813 453.816406 C 71.980469 460.375 75.195313 466.925781 69.097656 473.867188 C 69.121094 480.703125 68.882813 485.449219 71.660156 494.207031 C 50.660156 467.578125 44.992188 453.308594 56.789063 424.121094 Z M 61.234375 349.59375 C 38.839844 368.566406 28.925781 395.0625 18.15625 419.847656 C 19.183594 392.921875 46.140625 353.90625 61.234375 349.59375 Z M 38.835938 448.496094 C 39.292969 448.160156 40.914063 448.667969 40.339844 449.238281 C 28.296875 461.195313 20.148438 475.359375 22.429688 492.328125 C 15.214844 480.585938 26.210938 457.832031 38.835938 448.496094 Z M 40.207031 553.867188 C 40.890625 545.148438 32.6875 533.867188 44.480469 528.738281 C 46.019531 523.269531 49.4375 517.113281 46.363281 511.472656 C 44.3125 507.453125 40.082031 503.609375 37.175781 499.613281 C 28.980469 488.351563 39.902344 483.96875 48.53125 490.609375 C 53.167969 494.175781 57.710938 496.445313 64.3125 494.890625 L 75.933594 502.925781 L 76.617188 516.429688 C 70.464844 515.402344 65.507813 511.644531 59.867188 516.429688 C 52.003906 523.097656 61.574219 531.644531 61.234375 537.96875 C 52.34375 540.191406 47.109375 548.441406 40.207031 553.867188 Z M 54.398438 633.867188 C 57.300781 616.941406 54.910156 594.890625 50.121094 577.285156 C 62.261719 584.804688 75.546875 580.824219 83.285156 569.25 C 90.464844 555.234375 92.003906 541.046875 96.277344 525.660156 C 100.210938 517.285156 89.953125 516.257813 86.363281 510.789063 C 91.574219 511.984375 99.554688 513.035156 100.785156 517.765625 C 106.660156 540.402344 67.515625 616.105469 54.398438 633.867188 Z M 115.816406 579.0625 C 105.804688 592.183594 84.480469 604.976563 84.480469 604.976563 C 88.8125 595.867188 93.402344 584.804688 96.320313 573.605469 C 102.617188 549.40625 127.183594 564.171875 115.816406 579.0625 Z M 90.992188 500.003906 C 74.378906 491.628906 72.222656 463.699219 93.898438 444.785156 C 99.699219 439.71875 100.613281 440.09375 99.953125 446.511719 C 97.785156 467.546875 103.566406 486.382813 112.175781 503.4375 C 112.175781 503.4375 102.402344 505.757813 90.992188 500.003906 Z M 112.859375 482.585938 C 112.003906 475.917969 106.875 470.789063 107.902344 463.4375 C 114.394531 463.097656 120.210938 465.660156 123.96875 470.789063 C 123.585938 475.65625 117.132813 481.046875 112.859375 482.585938 Z M 167.558594 448.054688 C 179.339844 503.195313 119.476563 513.273438 121.40625 506.515625 C 144.140625 491.472656 154.054688 469.25 167.558594 448.054688 Z M 160.890625 279.507813 C 155.65625 254.285156 136.789063 219.507813 125.164063 188.394531 C 148.925781 213.183594 165.675781 261.988281 160.890625 279.507813 Z M 168.644531 120.933594 C 153.109375 131.5 135.335938 149.476563 136.277344 157.625 L 138.15625 166.171875 C 125.636719 153.636719 115.25 166.855469 115.25 166.855469 C 108.753906 161.558594 103.457031 149.421875 93.199219 147.199219 C 93.714844 141.558594 93.605469 135.660156 95.082031 129.933594 C 101.746094 131.128906 107.941406 128.714844 113.199219 125.746094 C 128.410156 126.945313 141.40625 122.070313 154.738281 114.550781 C 153.542969 120.53125 149.097656 127.710938 149.097656 134.207031 C 161.421875 115.71875 182.125 110.542969 195.597656 96.113281 C 208.242188 82.566406 213.148438 69.46875 222.941406 38.824219 C 225.589844 46.507813 215.421875 76.941406 203.285156 92.328125 C 203.285156 92.328125 235.421875 77.796875 252.003906 74.550781 C 258.328125 70.277344 293.949219 41.734375 308.585938 41.386719 C 293.542969 50.789063 276.789063 58.824219 264.3125 71.472656 L 265.507813 72.667969 C 279.183594 69.761719 297.152344 66.839844 309.78125 72.15625 C 254.847656 67.523438 210.644531 92.359375 168.644531 120.933594 Z M 443.96875 108.394531 C 424.121094 113.601563 401.484375 128.71875 380.628906 117.195313 C 361.355469 106.542969 365.695313 85.25 386.703125 81.34375 C 406.078125 77.742188 431.082031 88.941406 443.96875 108.394531 Z M 442.089844 44.464844 C 432.601563 54.613281 421.535156 65.917969 414.402344 69.804688 C 400.460938 77.40625 378.851563 69.933594 366.363281 80.703125 C 370.976563 64.636719 391.574219 44.273438 405.851563 45.660156 C 419.867188 47.027344 428.757813 43.097656 442.089844 44.464844 Z M 386.703125 24.636719 C 392.859375 21.558594 396.789063 16.429688 401.40625 11.128906 C 405.507813 19.335938 405.164063 29.761719 403.285156 39.507813 C 381.574219 39.847656 366.875 63.78125 359.695313 80.019531 C 352.003906 56.941406 370.292969 31.863281 386.703125 24.636719 Z M 393.332031 149.886719 C 372.753906 143.632813 362.503906 125.234375 363.285156 106.515625 C 372.867188 128.183594 398.136719 122.878906 414.246094 135.53125 C 421.53125 141.253906 425.183594 151.6875 427.902344 158.824219 C 417.539063 153.269531 404.640625 153.320313 393.332031 149.886719 "/>
</g>
</svg>
