<?xml version="1.0" encoding="UTF-8"?>
<svg xmlns="http://www.w3.org/2000/svg" xmlns:xlink="http://www.w3.org/1999/xlink" width="534pt" height="286pt" viewBox="0 0 534 286" version="1.1">
<g id="surface1">
<path style=" stroke:none;fill-rule:nonzero;fill:rgb(0%,0%,0%);fill-opacity:1;" d="M 57.09375 144.910156 C 65.714844 119.96875 86.484375 98.328125 102.304688 96.949219 C 121.378906 95.285156 119.28125 111.824219 98.84375 119.125 C 101.519531 123.253906 105.578125 126.429688 110.117188 129.171875 C 98.617188 133.078125 86.226563 131.402344 75.175781 135.199219 C 102.316406 154.335938 139.476563 171.925781 174.414063 158.527344 C 181.492188 169.066406 188.78125 176.023438 202.824219 175.328125 C 217.691406 174.589844 225.179688 165.902344 229.449219 157.300781 C 255.460938 177.28125 284.929688 189.898438 318.640625 189.898438 C 315.070313 183.421875 311.050781 176.726563 309.042969 170.25 C 328.132813 177.566406 353.023438 184.09375 374.902344 176.613281 C 372.671875 171.703125 370.613281 166.554688 367.3125 162.214844 C 367.3125 162.214844 392.3125 157.097656 411.289063 146.007813 C 412.585938 158.664063 425.269531 172.136719 442.957031 168.414063 C 457.074219 165.441406 465.671875 151.003906 462.644531 138.097656 C 460.347656 128.3125 452.546875 118.976563 435.183594 118.34375 C 438.320313 114.015625 440.878906 109.1875 442.886719 104.277344 C 435.78125 104.683594 426.753906 106.566406 419.867188 105.8125 C 439.035156 84.855469 433.253906 55.160156 415.980469 36.527344 C 395.738281 14.695313 364.925781 12.070313 338.007813 17.515625 C 322.183594 20.71875 306.714844 26.28125 291.738281 29.929688 C 293.972656 2.863281 268.128906 -2.859375 255.960938 2.710938 C 237.113281 11.332031 232.839844 31.441406 247.089844 46.453125 C 230.453125 54.378906 212.257813 60.070313 194.507813 64.089844 C 195.738281 61.632813 198.664063 58.234375 198.527344 56.5 C 189.238281 58.050781 172.941406 56.511719 172.941406 56.511719 C 180.132813 46.007813 186.695313 31.828125 184.464844 17.09375 C 184.464844 17.09375 136.460938 42.210938 128.535156 43.214844 C 130.066406 13.839844 102.097656 4.964844 87.578125 13.304688 C 67.5625 24.804688 68.472656 50.125 91.25 62.082031 C 61.894531 79.828125 51.746094 111.097656 57.09375 144.910156 Z M 192.054688 122.808594 C 189.152344 112.648438 185.355469 102.9375 179.996094 93.894531 C 191.335938 100.222656 202.992188 112.871094 211.367188 124.816406 C 206.230469 122.917969 198.753906 121.691406 192.054688 122.808594 Z M 301.277344 36.566406 C 345.726563 21.535156 392.515625 16.367188 416.171875 52.1875 C 430.671875 74.148438 414.796875 99.878906 403.480469 115.996094 C 410.738281 117.113281 417.882813 117.113281 425.917969 117.5625 C 406.226563 143.007813 381.570313 152.644531 346.433594 155.105469 C 352.15625 158.878906 358.269531 163.777344 361.621094 169.355469 C 347.410156 173.015625 309.394531 163.726563 284.484375 150.9375 C 284.929688 157.300781 296.007813 174.269531 301.339844 180.296875 C 276.222656 176.167969 254.121094 164.890625 234.25 148.148438 C 219.960938 127.832031 209.804688 103.050781 186.472656 89.429688 C 210.65625 95.414063 232.253906 107.660156 254.753906 117.8125 C 311.269531 143.308594 365.777344 151.023438 390.003906 114.070313 C 400.582031 97.9375 394.703125 81.191406 383.722656 70.898438 C 390.753906 72.015625 397.898438 73.242188 404.261719 76.144531 C 400.40625 65.859375 383.175781 28.757813 343.78125 58.695313 C 332.453125 67.300781 324.941406 76.417969 311.386719 78.15625 C 312.613281 70.898438 319.089844 66.324219 319.425781 59.289063 C 295.5 67.398438 244.882813 78.566406 222.195313 66.097656 C 237.382813 59.976563 271.890625 46.503906 301.277344 36.566406 Z M 193.28125 66.097656 C 193.28125 66.097656 207.597656 72.535156 222.394531 76.835938 C 252.761719 85.660156 277.199219 81.296875 301.339844 76.144531 C 301.339844 76.144531 298.296875 84.070313 295.585938 89.527344 C 313.796875 89.511719 331.097656 79.578125 345.390625 69.269531 C 360.398438 58.441406 375.925781 50.0625 385.398438 63.308594 C 376.351563 62.0625 362.636719 66.375 358.492188 71.347656 C 378.855469 78.976563 393.863281 98.425781 377.164063 115.691406 C 352.78125 140.902344 301.089844 129.125 259.601563 110.566406 C 236.304688 100.140625 189.757813 81.019531 179.664063 79.382813 Z M 127.90625 52.261719 C 138.058594 48.140625 164.164063 34.675781 177.652344 28.367188 C 173.636719 40.980469 168.945313 53.820313 157.558594 62.863281 C 165.003906 66 173.894531 66.472656 182.453125 66.097656 C 175.53125 73.019531 168.277344 80.945313 159.902344 84.964844 C 179.488281 100.925781 188.964844 134.042969 169.375 147.570313 C 147.625 162.59375 107.679688 148.644531 95.644531 139.203125 C 107.21875 138.949219 132.09375 136.035156 135.71875 130.164063 C 130.648438 128.21875 121.210938 123.636719 116.480469 120.796875 C 128.757813 111.152344 128.738281 99.785156 124.890625 95.667969 C 117.433594 87.695313 103.96875 86.386719 92.144531 90.351563 C 79.6875 94.527344 69.855469 108.714844 62.675781 118.007813 C 66.921875 80.761719 91.171875 67.179688 127.90625 52.261719 "/>
<path style=" stroke:none;fill-rule:nonzero;fill:rgb(0%,0%,0%);fill-opacity:1;" d="M 123.015625 262.746094 C 124.027344 261.347656 124.855469 259.789063 125.503906 258.203125 C 123.207031 258.332031 120.292969 258.941406 118.066406 258.699219 C 124.257813 251.925781 122.390625 242.335938 116.8125 236.316406 C 110.273438 229.261719 100.320313 228.414063 91.625 230.175781 C 86.511719 231.210938 81.515625 233.007813 76.675781 234.183594 C 77.398438 225.441406 69.050781 223.59375 65.121094 225.390625 C 59.03125 228.175781 57.652344 234.671875 62.253906 239.523438 C 56.878906 242.082031 51.003906 243.921875 45.269531 245.21875 C 45.664063 244.425781 46.609375 243.328125 46.566406 242.769531 C 43.566406 243.269531 38.300781 242.773438 38.300781 242.773438 C 40.625 239.378906 42.746094 234.796875 42.023438 230.039063 C 42.023438 230.039063 26.519531 238.152344 23.957031 238.476563 C 24.453125 228.988281 15.417969 226.121094 10.726563 228.816406 C 4.261719 232.527344 4.554688 240.707031 11.914063 244.570313 C 2.429688 250.304688 -0.847656 260.40625 0.878906 271.328125 C 3.664063 263.269531 10.375 256.28125 15.484375 255.835938 C 21.644531 255.296875 20.96875 260.640625 14.367188 262.996094 C 15.230469 264.332031 16.539063 265.355469 18.007813 266.242188 C 14.292969 267.503906 10.289063 266.964844 6.71875 268.191406 C 15.488281 274.371094 27.492188 280.054688 38.777344 275.726563 C 41.0625 279.132813 43.417969 281.378906 47.957031 281.152344 C 52.757813 280.914063 55.175781 278.109375 56.554688 275.328125 C 64.957031 281.785156 74.476563 285.859375 85.367188 285.859375 C 84.214844 283.769531 82.914063 281.605469 82.265625 279.511719 C 88.433594 281.875 96.472656 283.984375 103.542969 281.566406 C 102.820313 279.980469 102.15625 278.320313 101.089844 276.917969 C 101.089844 276.917969 109.164063 275.265625 115.296875 271.679688 C 115.714844 275.769531 119.8125 280.121094 125.527344 278.917969 C 130.085938 277.960938 132.863281 273.296875 131.886719 269.125 C 131.144531 265.964844 128.621094 262.949219 123.015625 262.746094 Z M 44.871094 245.867188 C 44.871094 245.867188 49.496094 247.949219 54.277344 249.335938 C 64.085938 252.1875 71.980469 250.777344 79.777344 249.113281 C 79.777344 249.113281 78.796875 251.671875 77.921875 253.4375 C 83.804688 253.429688 89.390625 250.222656 94.007813 246.890625 C 98.855469 243.394531 103.871094 240.6875 106.933594 244.96875 C 104.011719 244.5625 99.578125 245.957031 98.242188 247.5625 C 104.820313 250.027344 109.664063 256.308594 104.273438 261.890625 C 96.398438 270.03125 79.699219 266.226563 66.296875 260.230469 C 58.769531 256.867188 43.734375 250.6875 40.472656 250.160156 Z M 37.148438 272.1875 C 30.125 277.039063 17.21875 272.53125 13.332031 269.484375 C 17.070313 269.402344 25.105469 268.460938 26.277344 266.5625 C 24.640625 265.933594 21.589844 264.453125 20.0625 263.539063 C 24.03125 260.421875 24.023438 256.75 22.78125 255.421875 C 20.371094 252.84375 16.019531 252.421875 12.203125 253.703125 C 8.175781 255.050781 5 259.632813 2.683594 262.636719 C 4.054688 250.605469 11.886719 246.21875 23.753906 241.398438 C 27.03125 240.066406 35.46875 235.71875 39.824219 233.679688 C 38.527344 237.753906 37.011719 241.902344 33.332031 244.824219 C 35.738281 245.835938 38.609375 245.988281 41.375 245.867188 C 39.140625 248.105469 36.792969 250.664063 34.089844 251.964844 C 40.417969 257.117188 43.476563 267.816406 37.148438 272.1875 Z M 44.476563 264.1875 C 43.539063 260.90625 42.3125 257.769531 40.582031 254.847656 C 44.242188 256.890625 48.011719 260.976563 50.714844 264.835938 C 49.054688 264.222656 46.640625 263.828125 44.476563 264.1875 Z M 94.347656 274.621094 C 96.195313 275.839844 98.167969 277.421875 99.25 279.222656 C 94.660156 280.40625 82.378906 277.40625 74.332031 273.273438 C 74.476563 275.328125 78.054688 280.8125 79.777344 282.757813 C 71.664063 281.425781 64.527344 277.78125 58.105469 272.371094 C 53.492188 265.808594 50.210938 257.804688 42.671875 253.40625 C 50.484375 255.339844 57.460938 259.292969 64.730469 262.574219 C 82.984375 270.808594 100.59375 273.300781 108.421875 261.363281 C 111.839844 256.152344 109.9375 250.742188 106.390625 247.417969 C 108.664063 247.78125 110.972656 248.175781 113.027344 249.113281 C 111.78125 245.789063 106.214844 233.804688 93.488281 243.476563 C 89.828125 246.257813 87.402344 249.203125 83.023438 249.761719 C 83.421875 247.417969 85.511719 245.941406 85.621094 243.667969 C 77.890625 246.289063 61.539063 249.894531 54.210938 245.867188 C 59.117188 243.890625 70.265625 239.539063 79.757813 236.328125 C 94.117188 231.472656 109.230469 229.804688 116.871094 241.375 C 121.558594 248.46875 116.429688 256.78125 112.773438 261.988281 C 115.117188 262.347656 117.425781 262.347656 120.023438 262.492188 C 113.660156 270.714844 105.695313 273.824219 94.347656 274.621094 "/>
<path style=" stroke:none;fill-rule:nonzero;fill:rgb(0%,0%,0%);fill-opacity:1;" d="M 256.5625 262.632813 C 257.574219 261.234375 258.402344 259.675781 259.050781 258.089844 C 256.753906 258.222656 253.839844 258.832031 251.613281 258.585938 C 257.808594 251.816406 255.9375 242.222656 250.359375 236.207031 C 243.820313 229.152344 233.867188 228.304688 225.171875 230.066406 C 220.058594 231.097656 215.0625 232.894531 210.226563 234.074219 C 210.945313 225.332031 202.597656 223.480469 198.664063 225.28125 C 192.578125 228.066406 191.199219 234.5625 195.800781 239.410156 C 190.429688 241.972656 184.550781 243.8125 178.816406 245.109375 C 179.214844 244.316406 180.160156 243.21875 180.113281 242.65625 C 177.113281 243.15625 171.847656 242.660156 171.847656 242.660156 C 174.171875 239.265625 176.292969 234.6875 175.570313 229.925781 C 175.570313 229.925781 160.066406 238.039063 157.503906 238.367188 C 158 228.878906 148.964844 226.011719 144.273438 228.703125 C 137.808594 232.417969 138.101563 240.597656 145.460938 244.460938 C 135.976563 250.195313 132.699219 260.292969 134.425781 271.214844 C 137.210938 263.160156 143.921875 256.167969 149.03125 255.722656 C 155.191406 255.1875 154.515625 260.527344 147.914063 262.886719 C 148.777344 264.222656 150.089844 265.246094 151.554688 266.132813 C 147.839844 267.394531 143.839844 266.851563 140.269531 268.078125 C 149.035156 274.261719 161.039063 279.941406 172.324219 275.617188 C 174.609375 279.019531 176.964844 281.269531 181.503906 281.042969 C 186.304688 280.804688 188.722656 278 190.101563 275.21875 C 198.503906 281.675781 208.023438 285.75 218.914063 285.75 C 217.761719 283.65625 216.464844 281.492188 215.8125 279.402344 C 221.980469 281.765625 230.023438 283.875 237.089844 281.457031 C 236.367188 279.871094 235.703125 278.207031 234.636719 276.804688 C 234.636719 276.804688 242.714844 275.152344 248.84375 271.570313 C 249.261719 275.660156 253.359375 280.011719 259.074219 278.808594 C 263.632813 277.847656 266.410156 273.183594 265.433594 269.015625 C 264.691406 265.855469 262.171875 262.839844 256.5625 262.632813 Z M 178.421875 245.757813 C 178.421875 245.757813 183.046875 247.835938 187.824219 249.226563 C 197.632813 252.078125 205.527344 250.667969 213.324219 249.003906 C 213.324219 249.003906 212.34375 251.5625 211.46875 253.328125 C 217.351563 253.320313 222.9375 250.113281 227.554688 246.78125 C 232.402344 243.285156 237.421875 240.578125 240.480469 244.855469 C 237.558594 244.453125 233.128906 245.847656 231.789063 247.453125 C 238.367188 249.917969 243.214844 256.199219 237.820313 261.777344 C 229.941406 269.921875 213.246094 266.117188 199.84375 260.121094 C 192.316406 256.753906 177.28125 250.578125 174.019531 250.050781 Z M 170.695313 272.074219 C 163.671875 276.929688 150.769531 272.421875 146.878906 269.371094 C 150.617188 269.289063 158.652344 268.351563 159.824219 266.453125 C 158.1875 265.824219 155.136719 264.34375 153.609375 263.425781 C 157.578125 260.3125 157.570313 256.640625 156.328125 255.308594 C 153.917969 252.734375 149.566406 252.3125 145.746094 253.59375 C 141.726563 254.941406 138.550781 259.523438 136.230469 262.527344 C 137.601563 250.496094 145.433594 246.105469 157.300781 241.289063 C 160.578125 239.957031 169.015625 235.605469 173.371094 233.570313 C 172.074219 237.644531 170.558594 241.792969 166.878906 244.710938 C 169.285156 245.726563 172.15625 245.878906 174.921875 245.757813 C 172.6875 247.992188 170.34375 250.554688 167.636719 251.851563 C 173.964844 257.007813 177.023438 267.707031 170.695313 272.074219 Z M 178.023438 264.078125 C 177.085938 260.796875 175.859375 257.65625 174.128906 254.738281 C 177.789063 256.78125 181.558594 260.867188 184.261719 264.726563 C 182.601563 264.113281 180.1875 263.714844 178.023438 264.078125 Z M 227.894531 274.511719 C 229.742188 275.726563 231.714844 277.3125 232.796875 279.113281 C 228.207031 280.296875 215.925781 277.292969 207.882813 273.164063 C 208.023438 275.21875 211.601563 280.699219 213.324219 282.648438 C 205.210938 281.3125 198.070313 277.671875 191.652344 272.261719 C 187.039063 265.699219 183.757813 257.695313 176.21875 253.292969 C 184.03125 255.226563 191.007813 259.183594 198.277344 262.464844 C 216.53125 270.699219 234.140625 273.191406 241.96875 261.253906 C 245.386719 256.042969 243.484375 250.632813 239.9375 247.308594 C 242.210938 247.667969 244.519531 248.066406 246.574219 249.003906 C 245.328125 245.679688 239.761719 233.695313 227.035156 243.367188 C 223.378906 246.148438 220.949219 249.089844 216.570313 249.652344 C 216.96875 247.308594 219.058594 245.832031 219.167969 243.558594 C 211.4375 246.179688 195.089844 249.785156 187.757813 245.757813 C 192.664063 243.78125 203.8125 239.429688 213.304688 236.21875 C 227.664063 231.363281 242.777344 229.695313 250.421875 241.265625 C 255.105469 248.359375 249.976563 256.671875 246.320313 261.878906 C 248.664063 262.238281 250.972656 262.238281 253.570313 262.382813 C 247.207031 270.601563 239.242188 273.714844 227.894531 274.511719 "/>
<path style=" stroke:none;fill-rule:nonzero;fill:rgb(0%,0%,0%);fill-opacity:1;" d="M 390.3125 262.632813 C 391.324219 261.234375 392.152344 259.675781 392.800781 258.089844 C 390.503906 258.222656 387.589844 258.832031 385.363281 258.585938 C 391.554688 251.816406 389.6875 242.222656 384.109375 236.207031 C 377.570313 229.152344 367.617188 228.304688 358.921875 230.066406 C 353.808594 231.097656 348.8125 232.894531 343.976563 234.074219 C 344.695313 225.332031 336.347656 223.480469 332.414063 225.28125 C 326.328125 228.066406 324.949219 234.5625 329.550781 239.410156 C 324.175781 241.972656 318.300781 243.8125 312.566406 245.109375 C 312.964844 244.316406 313.90625 243.21875 313.863281 242.65625 C 310.863281 243.15625 305.597656 242.660156 305.597656 242.660156 C 307.921875 239.265625 310.042969 234.6875 309.320313 229.925781 C 309.320313 229.925781 293.816406 238.039063 291.253906 238.367188 C 291.75 228.878906 282.714844 226.011719 278.023438 228.703125 C 271.558594 232.417969 271.851563 240.597656 279.210938 244.460938 C 269.726563 250.195313 266.449219 260.292969 268.175781 271.214844 C 270.960938 263.160156 277.671875 256.167969 282.78125 255.722656 C 288.941406 255.1875 288.265625 260.527344 281.664063 262.886719 C 282.527344 264.222656 283.839844 265.246094 285.304688 266.132813 C 281.589844 267.394531 277.589844 266.851563 274.019531 268.078125 C 282.785156 274.261719 294.789063 279.941406 306.074219 275.617188 C 308.359375 279.019531 310.714844 281.269531 315.253906 281.042969 C 320.054688 280.804688 322.472656 278 323.851563 275.21875 C 332.253906 281.675781 341.773438 285.75 352.664063 285.75 C 351.511719 283.65625 350.214844 281.492188 349.5625 279.402344 C 355.730469 281.765625 363.769531 283.875 370.839844 281.457031 C 370.117188 279.871094 369.453125 278.207031 368.386719 276.804688 C 368.386719 276.804688 376.464844 275.152344 382.59375 271.570313 C 383.011719 275.660156 387.109375 280.011719 392.824219 278.808594 C 397.382813 277.847656 400.160156 273.183594 399.183594 269.015625 C 398.441406 265.855469 395.921875 262.839844 390.3125 262.632813 Z M 312.171875 245.757813 C 312.171875 245.757813 316.796875 247.835938 321.574219 249.226563 C 331.382813 252.078125 339.277344 250.667969 347.074219 249.003906 C 347.074219 249.003906 346.09375 251.5625 345.21875 253.328125 C 351.101563 253.320313 356.6875 250.113281 361.304688 246.78125 C 366.152344 243.285156 371.171875 240.578125 374.230469 244.855469 C 371.308594 244.453125 366.878906 245.847656 365.539063 247.453125 C 372.117188 249.917969 376.964844 256.199219 371.570313 261.777344 C 363.691406 269.921875 346.992188 266.117188 333.59375 260.121094 C 326.066406 256.753906 311.03125 250.578125 307.769531 250.050781 Z M 304.445313 272.074219 C 297.421875 276.929688 284.519531 272.421875 280.628906 269.371094 C 284.367188 269.289063 292.402344 268.351563 293.574219 266.453125 C 291.9375 265.824219 288.886719 264.34375 287.359375 263.425781 C 291.328125 260.3125 291.320313 256.640625 290.078125 255.308594 C 287.667969 252.734375 283.316406 252.3125 279.496094 253.59375 C 275.476563 254.941406 272.300781 259.523438 269.980469 262.527344 C 271.351563 250.496094 279.183594 246.105469 291.050781 241.289063 C 294.328125 239.957031 302.765625 235.605469 307.121094 233.570313 C 305.824219 237.644531 304.308594 241.792969 300.628906 244.710938 C 303.035156 245.726563 305.90625 245.878906 308.671875 245.757813 C 306.4375 247.992188 304.09375 250.554688 301.386719 251.851563 C 307.714844 257.007813 310.773438 267.707031 304.445313 272.074219 Z M 311.773438 264.078125 C 310.835938 260.796875 309.609375 257.65625 307.878906 254.738281 C 311.539063 256.78125 315.308594 260.867188 318.011719 264.726563 C 316.351563 264.113281 313.9375 263.714844 311.773438 264.078125 Z M 361.644531 274.511719 C 363.492188 275.726563 365.464844 277.3125 366.546875 279.113281 C 361.957031 280.296875 349.675781 277.292969 341.628906 273.164063 C 341.773438 275.21875 345.351563 280.699219 347.074219 282.648438 C 338.960938 281.3125 331.820313 277.671875 325.402344 272.261719 C 320.789063 265.699219 317.507813 257.695313 309.96875 253.292969 C 317.78125 255.226563 324.757813 259.183594 332.027344 262.464844 C 350.28125 270.699219 367.890625 273.191406 375.71875 261.253906 C 379.136719 256.042969 377.234375 250.632813 373.6875 247.308594 C 375.960938 247.667969 378.269531 248.066406 380.324219 249.003906 C 379.078125 245.679688 373.511719 233.695313 360.785156 243.367188 C 357.128906 246.148438 354.699219 249.089844 350.320313 249.652344 C 350.71875 247.308594 352.808594 245.832031 352.917969 243.558594 C 345.1875 246.179688 328.839844 249.785156 321.507813 245.757813 C 326.414063 243.78125 337.5625 239.429688 347.054688 236.21875 C 361.414063 231.363281 376.527344 229.695313 384.171875 241.265625 C 388.855469 248.359375 383.726563 256.671875 380.070313 261.878906 C 382.414063 262.238281 384.722656 262.238281 387.320313 262.382813 C 380.957031 270.601563 372.992188 273.714844 361.644531 274.511719 "/>
<path style=" stroke:none;fill-rule:nonzero;fill:rgb(0%,0%,0%);fill-opacity:1;" d="M 533.367188 269.015625 C 532.628906 265.855469 530.105469 262.839844 524.5 262.632813 C 525.511719 261.234375 526.339844 259.675781 526.988281 258.089844 C 524.691406 258.222656 521.777344 258.832031 519.550781 258.585938 C 525.742188 251.816406 523.875 242.222656 518.296875 236.207031 C 511.757813 229.152344 501.804688 228.304688 493.109375 230.066406 C 487.996094 231.097656 482.996094 232.894531 478.160156 234.074219 C 478.882813 225.332031 470.535156 223.480469 466.601563 225.28125 C 460.515625 228.066406 459.136719 234.5625 463.738281 239.410156 C 458.363281 241.972656 452.484375 243.8125 446.753906 245.109375 C 447.148438 244.316406 448.09375 243.21875 448.050781 242.65625 C 445.050781 243.15625 439.785156 242.660156 439.785156 242.660156 C 442.109375 239.265625 444.230469 234.6875 443.507813 229.925781 C 443.507813 229.925781 428.003906 238.039063 425.441406 238.367188 C 425.9375 228.878906 416.898438 226.011719 412.210938 228.703125 C 405.746094 232.417969 406.039063 240.597656 413.398438 244.460938 C 403.914063 250.195313 400.636719 260.292969 402.363281 271.214844 C 405.148438 263.160156 411.855469 256.167969 416.96875 255.722656 C 423.128906 255.1875 422.453125 260.527344 415.847656 262.886719 C 416.714844 264.222656 418.023438 265.246094 419.492188 266.132813 C 415.777344 267.394531 411.773438 266.851563 408.203125 268.078125 C 416.972656 274.261719 428.976563 279.941406 440.261719 275.617188 C 442.546875 279.019531 444.902344 281.269531 449.4375 281.042969 C 454.242188 280.804688 456.660156 278 458.039063 275.21875 C 466.441406 281.675781 475.960938 285.75 486.851563 285.75 C 485.699219 283.65625 484.398438 281.492188 483.75 279.402344 C 489.917969 281.765625 497.957031 283.875 505.027344 281.457031 C 504.304688 279.871094 503.640625 278.207031 502.574219 276.804688 C 502.574219 276.804688 510.648438 275.152344 516.78125 271.570313 C 517.199219 275.660156 521.296875 280.011719 527.007813 278.808594 C 531.570313 277.847656 534.347656 273.183594 533.367188 269.015625 Z M 446.355469 245.757813 C 446.355469 245.757813 450.980469 247.835938 455.761719 249.226563 C 465.570313 252.078125 473.464844 250.667969 481.261719 249.003906 C 481.261719 249.003906 480.277344 251.5625 479.402344 253.328125 C 485.285156 253.320313 490.875 250.113281 495.492188 246.78125 C 500.339844 243.285156 505.355469 240.578125 508.414063 244.855469 C 505.492188 244.453125 501.0625 245.847656 499.726563 247.453125 C 506.304688 249.917969 511.148438 256.199219 505.757813 261.777344 C 497.878906 269.921875 481.179688 266.117188 467.78125 260.121094 C 460.253906 256.753906 445.21875 250.578125 441.957031 250.050781 Z M 438.632813 272.074219 C 431.605469 276.929688 418.703125 272.421875 414.816406 269.371094 C 418.554688 269.289063 426.589844 268.351563 427.761719 266.453125 C 426.125 265.824219 423.074219 264.34375 421.546875 263.425781 C 425.511719 260.3125 425.507813 256.640625 424.265625 255.308594 C 421.855469 252.734375 417.503906 252.3125 413.683594 253.59375 C 409.660156 254.941406 406.484375 259.523438 404.164063 262.527344 C 405.539063 250.496094 413.371094 246.105469 425.238281 241.289063 C 428.515625 239.957031 436.949219 235.605469 441.308594 233.570313 C 440.011719 237.644531 438.496094 241.792969 434.816406 244.710938 C 437.222656 245.726563 440.09375 245.878906 442.859375 245.757813 C 440.621094 247.992188 438.277344 250.554688 435.574219 251.851563 C 441.898438 257.007813 444.960938 267.707031 438.632813 272.074219 Z M 445.960938 264.078125 C 445.023438 260.796875 443.796875 257.65625 442.066406 254.738281 C 445.726563 256.78125 449.492188 260.867188 452.199219 264.726563 C 450.539063 264.113281 448.121094 263.714844 445.960938 264.078125 Z M 495.828125 274.511719 C 497.679688 275.726563 499.652344 277.3125 500.734375 279.113281 C 496.144531 280.296875 483.863281 277.292969 475.816406 273.164063 C 475.960938 275.21875 479.539063 280.699219 481.261719 282.648438 C 473.148438 281.3125 466.007813 277.671875 459.589844 272.261719 C 454.976563 265.699219 451.691406 257.695313 444.15625 253.292969 C 451.96875 255.226563 458.945313 259.183594 466.214844 262.464844 C 484.46875 270.699219 502.078125 273.191406 509.902344 261.253906 C 513.320313 256.042969 511.421875 250.632813 507.875 247.308594 C 510.148438 247.667969 512.453125 248.066406 514.511719 249.003906 C 513.265625 245.679688 507.699219 233.695313 494.972656 243.367188 C 491.3125 246.148438 488.886719 249.089844 484.507813 249.652344 C 484.90625 247.308594 486.996094 245.832031 487.105469 243.558594 C 479.375 246.179688 463.023438 249.785156 455.695313 245.757813 C 460.601563 243.78125 471.75 239.429688 481.242188 236.21875 C 495.601563 231.363281 510.714844 229.695313 518.355469 241.265625 C 523.039063 248.359375 517.914063 256.671875 514.257813 261.878906 C 516.601563 262.238281 518.910156 262.238281 521.507813 262.382813 C 515.144531 270.601563 507.179688 273.714844 495.828125 274.511719 "/>
</g>
</svg>
