<?xml version="1.0" encoding="UTF-8"?>
<svg xmlns="http://www.w3.org/2000/svg" xmlns:xlink="http://www.w3.org/1999/xlink" width="377pt" height="684pt" viewBox="0 0 377 684" version="1.1">
<g id="surface1">
<path style=" stroke:none;fill-rule:nonzero;fill:rgb(0%,0%,0%);fill-opacity:1;" d="M 162.351563 40.042969 C 149.902344 43.644531 136.101563 42.292969 122.902344 41.09375 C 117.351563 35.542969 112.851563 27.894531 105.652344 24.894531 C 114.1875 25.476563 130.101563 16.191406 131.601563 13.492188 C 119.902344 7.492188 104.753906 5.992188 91.101563 7.644531 C 96.257813 19.296875 89.351563 28.878906 77.953125 33.210938 C 75.90625 33.988281 73.914063 34.226563 72.203125 32.992188 C 81.003906 31.078125 91.824219 24.066406 89.453125 12.441406 C 83.753906 3.742188 74.304688 -1.324219 63.503906 0.59375 C 55.703125 5.09375 58.554688 13.191406 56.601563 20.542969 C 45.953125 34.34375 37.101563 48.742188 37.101563 67.042969 C 45.652344 62.992188 52.101563 54.441406 59.753906 48.59375 C 61.402344 58.34375 62.753906 68.542969 66.804688 76.644531 C 73.101563 69.292969 75.503906 60.292969 78.203125 51.292969 C 84.203125 57.292969 91.101563 61.191406 98.601563 63.144531 C 98.902344 55.644531 95.304688 49.042969 94.402344 42.742188 C 107.304688 49.34375 124.402344 45.292969 138.054688 50.242188 C 119.304688 58.34375 100.253906 65.84375 83.601563 78.894531 L 81.351563 72.894531 C 70.101563 80.542969 63.503906 92.542969 56.003906 102.144531 C 53.902344 92.394531 49.253906 83.394531 42.503906 75.59375 C 39.203125 84.742188 36.503906 106.34375 36.503906 106.34375 C 29.601563 98.691406 20.453125 92.84375 12.203125 90.742188 C 12.652344 106.792969 22.101563 121.492188 36.054688 129.59375 C 40.402344 123.742188 45.953125 117.441406 53.902344 117.742188 C 70.714844 119.609375 76.554688 137.042969 73.253906 144.742188 C 71.902344 144.742188 70.851563 144.144531 70.101563 143.09375 C 74.691406 130.183594 57.246094 121.808594 55.210938 121.320313 C 47.355469 119.453125 40.09375 131.359375 37.890625 137.90625 C 35.429688 145.226563 32.375 152.910156 38.753906 158.84375 C 46.554688 161.394531 52.703125 156.742188 59.304688 154.492188 C 76.953125 162.4375 94.78125 162.816406 103.554688 156.144531 C 100.703125 154.941406 98.453125 152.242188 95.902344 150.144531 C 102.203125 148.042969 109.101563 145.941406 114.351563 142.644531 C 109.101563 138.742188 102.503906 136.792969 98.152344 132.292969 C 104.085938 130.042969 109.703125 127.191406 113.304688 121.042969 C 106.769531 116.292969 90.503906 117.742188 90.503906 117.742188 C 98.152344 110.09375 103.703125 101.542969 107.304688 92.394531 C 101.902344 92.84375 87.738281 94.894531 75.503906 99.894531 C 85.886719 83.574219 119.070313 62.085938 139.101563 59.394531 C 127.664063 75.648438 123.40625 95.191406 121.304688 115.328125 C 120.261719 125.296875 118.789063 155.496094 117.445313 160.199219 C 112.570313 177.269531 98.183594 190.753906 81.953125 197.691406 C 77.753906 190.042969 84.503906 182.84375 88.402344 176.542969 C 75.472656 176.972656 70.820313 190.660156 71.152344 196.644531 C 65.96875 193.53125 45.585938 192.746094 40.402344 202.492188 C 47.902344 210.894531 53.769531 211.976563 70.554688 208.941406 C 73.066406 213.71875 82.929688 218.5 90.503906 212.242188 C 87.511719 212.839844 75.671875 211 78.652344 204.144531 C 78.652344 204.144531 98.304688 197.109375 103.554688 195.441406 C 98.601563 208.492188 89.753906 218.242188 79.703125 229.042969 C 73.101563 229.941406 67.136719 231.726563 60.804688 234.441406 C 64.703125 227.09375 68.902344 218.691406 69.503906 211.191406 C 57.351563 214.34375 47.152344 225.894531 38.753906 234.441406 C 39.054688 224.691406 38.453125 213.894531 37.101563 204.144531 C 31.703125 210.441406 27.953125 217.492188 25.703125 225.144531 C 19.851563 214.492188 11.601563 201.742188 0.953125 196.042969 C -1.746094 212.242188 4.9375 230.542969 15.285156 243.441406 C 21.082031 240.28125 29.664063 237.195313 32.414063 239.136719 C 35.609375 241.398438 47.632813 251.558594 40.632813 264.816406 C 40.425781 265.210938 40.160156 265.222656 40.25 264.835938 C 42.808594 253.878906 38.503906 246.945313 34.8125 243.320313 C 31.402344 239.964844 29.734375 240.285156 26.363281 241.613281 C 11.1875 247.601563 7.316406 258.21875 6.90625 264.503906 C 6.644531 268.582031 12.757813 269.230469 16.101563 270.59375 C 20.304688 271.191406 26.003906 271.792969 30.054688 269.992188 C 39.054688 282.441406 52.253906 292.34375 66.804688 294.894531 C 73.101563 307.492188 85.253906 318.894531 98.601563 322.34375 C 96.953125 332.394531 92.902344 343.191406 95.902344 353.242188 C 88.253906 349.792969 81.351563 342.441406 72.804688 342.894531 C 77.152344 351.441406 85.253906 359.542969 93.804688 364.042969 C 97.535156 360.941406 101.152344 356.691406 105.652344 354.742188 C 113.304688 356.542969 120.351563 361.492188 125.601563 367.792969 C 126.804688 369.292969 126.054688 371.992188 124.554688 372.59375 C 121.902344 363.914063 108.78125 356.597656 105.761719 357.433594 C 97.019531 359.855469 93.75 380.804688 94.851563 389.84375 C 104.003906 392.84375 112.851563 390.292969 120.804688 385.644531 C 128.902344 392.84375 138.203125 400.042969 148.851563 398.542969 C 144.351563 392.242188 138.351563 386.84375 132.652344 381.742188 C 141.953125 381.894531 152.753906 382.191406 160.703125 377.542969 C 154.703125 371.394531 146.304688 370.941406 139.101563 367.792969 C 145.703125 362.394531 155.152344 354.742188 156.953125 348.292969 C 149.453125 347.84375 143.003906 351.292969 136.402344 351.59375 C 141.054688 345.441406 144.054688 338.691406 147.203125 332.09375 C 153.394531 340.527344 161.105469 348.199219 166.660156 356.789063 C 177.121094 372.96875 187.476563 411.546875 141.804688 409.941406 C 145.253906 414.144531 154.871094 422.742188 164.601563 423.441406 C 141.734375 444.761719 100.550781 425.457031 84.054688 391.042969 C 84.054688 391.042969 80.121094 429.617188 102.957031 451.378906 C 108.53125 456.6875 121.554688 466.042969 133.253906 469.34375 C 121.851563 473.542969 107.601563 472.191406 98.601563 462.292969 C 98.601563 478.113281 105.980469 488.242188 126.203125 488.242188 C 114.503906 508.941406 105.203125 530.691406 99.804688 554.09375 C 94.101563 539.394531 90.953125 523.042969 77.601563 511.941406 C 74.152344 521.542969 74.285156 541.660156 77.601563 551.84375 C 70.101563 546.441406 61.402344 543.742188 52.253906 542.242188 C 53.902344 549.144531 63.769531 573.324219 73.851563 578.84375 C 54.121094 579.125 40.851563 588.144531 40.851563 588.144531 C 55.554688 595.191406 72.953125 599.09375 90.054688 597.292969 C 83.453125 579.558594 91.722656 570.09375 100.160156 566.722656 C 109.335938 563.058594 116.351563 566.03125 115.402344 570.292969 C 102.523438 565.773438 87.636719 578.558594 92.347656 589.992188 C 97.074219 601.46875 108.476563 611.324219 120.203125 613.492188 C 123.203125 606.144531 125.453125 598.644531 126.804688 590.84375 C 135.953125 589.34375 144.503906 586.644531 152.152344 581.09375 C 159.625 593.574219 169.394531 605.972656 175.582031 619.371094 C 183.96875 637.519531 184.742188 661.902344 170.585938 669.046875 C 161.398438 673.683594 151.074219 665.753906 155.746094 658.621094 C 158.167969 654.925781 163.921875 653.152344 166.703125 650.691406 C 164.480469 648.671875 156.328125 647.847656 150.703125 651.683594 C 131.835938 664.554688 152.316406 691.375 176.34375 681.546875 C 195.800781 673.59375 191.3125 641.527344 172.101563 597.742188 C 185.625 583.648438 196.058594 567.65625 194.683594 549.34375 C 193.191406 529.496094 172.648438 516.765625 161.105469 500.710938 C 160.09375 499.300781 153.195313 494.179688 154.851563 486.59375 C 166.761719 495.992188 181.980469 495.457031 186.1875 490.183594 C 191.378906 483.667969 190.40625 470.457031 182.902344 458.542969 C 183.519531 465.234375 181.277344 469.375 178.449219 471.550781 C 172.722656 475.953125 164.042969 467.671875 165.035156 459.816406 C 167.332031 441.585938 175.167969 440.253906 178.382813 416.816406 C 180.726563 399.734375 182.457031 381.382813 178.101563 365.09375 C 176.304688 358.191406 171.652344 351.742188 171.054688 345.144531 C 186.871094 339.71875 179.242188 324.503906 174.203125 321.894531 C 173.714844 338.46875 164.488281 341.546875 155.609375 330.855469 C 150.203125 324.34375 146.527344 317.035156 145.101563 309.441406 C 164.507813 318.335938 177.3125 305.183594 181.105469 298.390625 C 189.476563 283.390625 181.621094 252.242188 164.601563 246.742188 C 167.003906 249.21875 168.539063 252.066406 169.441406 255.179688 C 176.007813 277.898438 138.878906 282.421875 139.917969 258.664063 C 140.363281 248.550781 145.683594 238.609375 150.503906 230.09375 C 159.351563 223.042969 167.152344 215.09375 171.503906 205.191406 C 173.902344 215.242188 171.953125 226.042969 171.054688 235.941406 C 182.007813 228.539063 189.207031 209.570313 191.339844 196.363281 C 195.359375 171.429688 179.785156 150.265625 166.703125 130.644531 C 166.703125 130.644531 177.644531 134.300781 185.765625 126.925781 C 195.988281 117.636719 193.980469 102.953125 185.003906 86.992188 C 185.847656 93.898438 183.609375 98.414063 180.828125 101.007813 C 177.746094 103.878906 165.59375 110.269531 167.960938 91.183594 C 169.925781 75.289063 183.46875 63.53125 196.402344 55.042969 L 197.003906 36.144531 C 178.101563 32.84375 161.902344 23.09375 147.203125 9.144531 C 149.601563 20.542969 154.703125 30.742188 162.351563 40.042969 Z M 62.929688 7.386719 C 70.792969 3.304688 77.875 6.660156 83.9375 12.667969 C 90.46875 19.144531 74.839844 30.011719 70.207031 25.800781 C 65.132813 21.191406 61.933594 14.832031 62.929688 7.386719 Z M 60.808594 144.910156 C 55.65625 150.519531 47.289063 157.996094 40.015625 155.109375 C 35.527344 146.351563 40.324219 135.535156 46.296875 129.578125 C 58.332031 117.566406 69.914063 134.996094 60.808594 144.910156 Z M 49.429688 202.398438 C 56.808594 195.761719 65.703125 201.242188 65.703125 201.242188 C 69.023438 211.207031 51.519531 206.730469 49.429688 202.398438 Z M 33.484375 264.492188 C 29.980469 266.191406 25.945313 266.585938 21.855469 266.589844 C 9.546875 266.601563 5.707031 263.894531 15.210938 252.636719 C 18.121094 249.183594 21.960938 246.480469 25.640625 244.894531 C 35.808594 240.507813 40.269531 261.210938 33.484375 264.492188 Z M 118.757813 378.675781 C 114.082031 383.6875 109.589844 387.679688 99.972656 387.703125 C 95.996094 379.789063 100.390625 370.09375 105.808594 364.773438 C 112.355469 358.339844 122.90625 374.234375 118.757813 378.675781 Z M 109.402344 476.242188 C 120.652344 478.34375 129.351563 475.34375 139.101563 472.492188 C 127.945313 484.546875 117.164063 485.339844 109.402344 476.242188 Z M 118.703125 605.84375 C 108.859375 605.84375 101.425781 596.640625 98.847656 588.609375 C 93.648438 572.417969 114.445313 570.0625 119.113281 582.6875 C 121.753906 589.832031 119.246094 598.511719 118.703125 605.84375 Z M 118.101563 556.792969 C 122.453125 541.941406 127.101563 527.242188 134.304688 513.59375 C 129.503906 513.441406 124.554688 515.542969 120.203125 517.941406 C 127.253906 505.644531 132.054688 492.441406 141.351563 481.191406 C 137.453125 499.34375 137.601563 520.792969 137.003906 538.941406 C 130.554688 544.34375 123.652344 550.042969 118.101563 556.792969 Z M 142.402344 565.34375 L 127.851563 574.644531 C 127.402344 567.894531 134.902344 561.292969 139.101563 556.191406 C 140.753906 559.042969 143.453125 562.191406 142.402344 565.34375 Z M 168.351563 591.292969 C 164.304688 586.941406 161.003906 581.242188 158.601563 575.691406 C 160.703125 568.941406 162.652344 559.941406 161.902344 551.84375 L 151.101563 561.144531 L 147.203125 550.34375 C 148.253906 545.242188 149.753906 540.59375 149.902344 535.191406 L 144.503906 534.59375 L 144.503906 526.042969 C 153.238281 539.425781 170.289063 549.980469 174.453125 564.964844 C 177.425781 575.648438 174.316406 584.667969 168.351563 591.292969 Z M 148.402344 508.191406 C 153.054688 524.84375 172.703125 535.492188 178.101563 551.84375 C 165.953125 540.894531 144.804688 528.894531 148.402344 508.191406 Z M 188.203125 558.476563 C 187.960938 559.6875 185.601563 567.59375 185.601563 567.59375 C 188.902344 538.492188 153.203125 525.59375 151.554688 498.441406 C 164.609375 517.523438 193.585938 531.804688 188.203125 558.476563 Z M 101.902344 442.792969 C 117.652344 454.644531 141.054688 452.394531 159.203125 448.792969 C 141.496094 463.40625 108.164063 459.339844 101.902344 442.792969 Z M 182.304688 474.742188 C 186.585938 493.578125 146.324219 491.714844 159.652344 463.941406 C 163.722656 481.238281 172.128906 482.882813 182.304688 474.742188 Z M 121.976563 445.238281 C 108.214844 440.847656 96.753906 429.339844 92.753906 415.34375 C 103.550781 427.710938 116.324219 437.003906 131.179688 439.433594 C 144.453125 441.601563 156.476563 439.246094 167.753906 434.242188 C 155.980469 445.019531 138.601563 450.539063 121.976563 445.238281 Z M 146.753906 66.441406 C 138.34375 93.5 161.523438 115.605469 157.636719 139.597656 C 154.695313 157.777344 143.453125 163.042969 143.453125 163.042969 C 156.351563 135.894531 138.203125 109.792969 138.054688 83.242188 C 139.851563 77.09375 141.652344 70.191406 146.753906 66.441406 Z M 133.253906 90.742188 C 134.304688 111.894531 146.753906 129.742188 141.351563 152.242188 C 130.851563 134.394531 122.753906 111.292969 133.253906 90.742188 Z M 130.554688 223.042969 C 116.527344 220.398438 111.394531 204.421875 117.054688 196.644531 C 123.953125 190.042969 135.953125 187.792969 144.054688 193.34375 C 126.023438 199.835938 122.535156 214.550781 130.554688 223.042969 Z M 106.167969 203.820313 C 108.023438 210.949219 112.183594 219.078125 118.363281 224.078125 C 126.648438 230.773438 136.1875 229.664063 136.1875 229.664063 C 118.964844 244.699219 96.089844 223.921875 106.167969 203.820313 Z M 97.554688 220.941406 C 100.148438 226.570313 104.621094 232.898438 110.34375 236.496094 C 122.964844 244.425781 134.304688 239.242188 134.304688 239.242188 C 130.925781 244.371094 128.90625 250.359375 126.542969 256.121094 C 117.132813 279.089844 94.699219 281.847656 91.101563 278.691406 C 87.054688 273.441406 94.652344 259.34375 102.953125 251.691406 C 96.054688 249.441406 88.101563 258.742188 81.351563 251.691406 C 78.804688 250.191406 72.953125 250.191406 70.554688 249.441406 C 82.851563 243.144531 87.953125 230.242188 97.554688 220.941406 Z M 132.617188 260.101563 C 133.199219 283.785156 104.058594 303.960938 95.425781 286.972656 C 101.785156 286.839844 110.273438 284.378906 117.699219 278.753906 C 127.640625 271.222656 132.617188 260.101563 132.617188 260.101563 Z M 67.851563 285.144531 L 53.902344 266.84375 C 60.804688 266.84375 69.351563 267.144531 75.953125 264.59375 C 71.753906 270.894531 68.753906 277.644531 67.851563 285.144531 Z M 76.835938 280.949219 C 85.058594 288.058594 93.445313 299.042969 104.882813 300.222656 C 119.027344 301.679688 131.277344 286.417969 131.277344 286.417969 C 121.007813 322.609375 75.410156 329.183594 76.835938 280.949219 Z M 138.054688 334.792969 C 134.753906 341.691406 132.203125 349.34375 126.203125 354.742188 C 129.652344 343.644531 130.851563 332.09375 129.503906 320.242188 C 121.703125 326.992188 115.703125 335.242188 110.601563 343.492188 C 110.152344 336.144531 109.554688 328.792969 106.703125 322.34375 C 115.851563 318.59375 126.652344 312.894531 132.203125 302.992188 C 132.953125 314.09375 143.753906 323.691406 138.054688 334.792969 Z M 181.253906 284.09375 C 182.289063 307.894531 148.902344 313.371094 138.652344 292.191406 C 146.007813 295.238281 155.785156 297.035156 164.285156 295.160156 C 175.667969 292.648438 181.253906 284.09375 181.253906 284.09375 Z M 161.816406 281.714844 C 172.296875 279.816406 177.6875 271.867188 177.6875 271.867188 C 177.824219 294.726563 147.148438 298.484375 138.507813 277.722656 C 145.121094 280.972656 153.988281 283.132813 161.816406 281.714844 Z M 179.601563 215.542969 C 180.003906 193.042969 171.054688 151.191406 171.054688 151.191406 C 184.402344 167.84375 188.902344 195.144531 179.601563 215.542969 Z M 152.4375 212.921875 C 142.359375 222.5 127.421875 217.957031 135.351563 205.792969 C 139.554688 199.492188 147.054688 198.894531 153.804688 197.09375 C 144.933594 182.214844 127.773438 178.671875 116.453125 186.292969 C 121.703125 171.144531 124.851563 155.09375 127.253906 138.742188 C 131.453125 146.75 136.914063 155.214844 135.402344 164.84375 C 135.1875 166.21875 134.753906 171.191406 130.554688 179.242188 C 145.101563 175.792969 158.304688 160.34375 164.003906 146.394531 C 168.34375 179.449219 173.320313 193.0625 152.4375 212.921875 Z M 180.203125 112.34375 L 185.601563 107.992188 C 188.289063 112.109375 186.351563 125.84375 175.402344 125.84375 C 167.375 125.84375 164.066406 118.210938 165.054688 109.644531 C 169.402344 112.191406 174.804688 113.84375 180.203125 112.34375 Z M 156.953125 102.144531 C 150.253906 86.828125 147.804688 64.023438 165.652344 52.941406 L 178.101563 52.941406 C 165.953125 67.191406 158.304688 83.394531 156.953125 102.144531 Z M 168.804688 41.09375 L 158.601563 24.894531 C 167.453125 30.742188 177.351563 34.644531 186.652344 39.441406 C 184.402344 46.042969 173.304688 41.742188 168.804688 41.09375 "/>
<path style=" stroke:none;fill-rule:nonzero;fill:rgb(0%,0%,0%);fill-opacity:1;" d="M 376.476563 406.558594 C 374.984375 386.710938 354.441406 373.980469 342.898438 357.921875 C 341.886719 356.511719 334.988281 351.390625 336.648438 343.804688 C 348.554688 353.207031 363.773438 352.667969 367.980469 347.394531 C 373.171875 340.882813 372.199219 327.671875 364.695313 315.757813 C 365.3125 322.449219 363.070313 326.585938 360.242188 328.761719 C 354.871094 332.890625 339.476563 318.910156 338.390625 310.675781 C 338.054688 308.136719 337.304688 309.507813 336.347656 310.589844 C 322.945313 325.738281 289.160156 329.148438 280.398438 319.507813 C 280.398438 335.328125 287.773438 345.457031 307.996094 345.457031 C 296.296875 366.15625 286.996094 387.90625 281.597656 411.304688 C 275.898438 396.605469 272.746094 380.257813 259.398438 369.15625 C 255.945313 378.757813 256.078125 398.871094 259.398438 409.054688 C 251.898438 403.65625 243.195313 400.957031 234.046875 399.457031 C 235.695313 406.355469 245.5625 430.539063 255.648438 436.054688 C 235.914063 436.339844 222.648438 445.355469 222.648438 445.355469 C 237.347656 452.40625 254.746094 456.304688 271.847656 454.507813 C 265.246094 436.769531 273.515625 427.308594 281.953125 423.9375 C 291.128906 420.269531 298.144531 423.242188 297.195313 427.507813 C 284.316406 422.984375 269.433594 435.769531 274.140625 447.207031 C 278.867188 458.679688 290.269531 468.539063 301.996094 470.707031 C 304.996094 463.355469 307.246094 455.855469 308.597656 448.054688 C 317.746094 446.554688 326.296875 443.855469 333.945313 438.304688 C 341.421875 450.785156 351.1875 463.1875 357.378906 476.585938 C 365.761719 494.734375 366.535156 519.113281 352.378906 526.261719 C 343.191406 530.898438 332.867188 522.96875 337.539063 515.835938 C 339.960938 512.140625 345.714844 510.367188 348.496094 507.90625 C 346.273438 505.882813 338.121094 505.0625 332.496094 508.898438 C 313.628906 521.769531 334.109375 548.585938 358.140625 538.761719 C 377.597656 530.804688 373.105469 498.738281 353.898438 454.957031 C 367.421875 440.863281 377.851563 424.867188 376.476563 406.558594 Z M 340.195313 324.03125 C 344.265625 341.324219 353.921875 340.097656 364.097656 331.957031 C 368.378906 350.789063 326.867188 351.804688 340.195313 324.03125 Z M 370 415.6875 C 369.753906 416.902344 367.398438 424.804688 367.398438 424.804688 C 370.695313 395.707031 334.996094 382.804688 333.347656 355.65625 C 346.402344 374.738281 375.378906 389.015625 370 415.6875 Z M 330.195313 365.40625 C 334.847656 382.054688 354.496094 392.707031 359.898438 409.054688 C 347.746094 398.105469 326.597656 386.105469 330.195313 365.40625 Z M 286.570313 327.957031 C 295.570313 332.179688 307.023438 334.679688 319.273438 326.957031 C 304.3125 343.113281 296.800781 339.949219 286.570313 327.957031 Z M 300.496094 463.054688 C 290.652344 463.054688 283.21875 453.851563 280.640625 445.820313 C 275.441406 429.628906 296.238281 427.277344 300.90625 439.898438 C 303.546875 447.042969 301.039063 455.726563 300.496094 463.054688 Z M 299.898438 414.007813 C 304.246094 399.15625 308.898438 384.457031 316.097656 370.804688 C 311.296875 370.65625 306.347656 372.757813 301.996094 375.15625 C 309.046875 362.855469 313.847656 349.65625 323.148438 338.40625 C 319.246094 356.554688 319.398438 378.007813 318.796875 396.15625 C 312.347656 401.554688 305.445313 407.257813 299.898438 414.007813 Z M 324.195313 422.554688 L 309.648438 431.855469 C 309.195313 425.105469 316.695313 418.507813 320.898438 413.40625 C 322.546875 416.257813 325.246094 419.40625 324.195313 422.554688 Z M 340.398438 432.90625 C 342.496094 426.15625 344.445313 417.15625 343.695313 409.054688 L 332.898438 418.355469 L 328.996094 407.554688 C 330.046875 402.457031 331.546875 397.804688 331.695313 392.40625 L 326.296875 391.804688 L 326.296875 383.257813 C 335.03125 396.640625 352.082031 407.191406 356.246094 422.179688 C 359.21875 432.859375 356.109375 441.878906 350.148438 448.507813 C 346.097656 444.15625 342.796875 438.457031 340.398438 432.90625 "/>
</g>
</svg>
