<?xml version="1.0" encoding="UTF-8"?>
<svg xmlns="http://www.w3.org/2000/svg" xmlns:xlink="http://www.w3.org/1999/xlink" width="451pt" height="539pt" viewBox="0 0 451 539" version="1.1">
<g id="surface1">
<path style=" stroke:none;fill-rule:nonzero;fill:rgb(0%,0%,0%);fill-opacity:1;" d="M 438.304688 270.40625 C 438.304688 132.210938 342.0625 18.46875 225.125 18.46875 C 108.1875 18.46875 11.945313 132.210938 11.945313 270.40625 C 11.945313 408.605469 108.1875 522.347656 225.125 522.347656 C 342.0625 522.347656 438.304688 408.605469 438.304688 270.40625 Z M 219.003906 513.167969 C 108.222656 513.167969 17.042969 402.769531 17.042969 268.636719 C 17.042969 134.5 108.222656 24.101563 219.003906 24.101563 C 329.785156 24.101563 420.964844 134.5 420.964844 268.636719 C 420.964844 402.769531 329.785156 513.167969 219.003906 513.167969 "/>
<path style=" stroke:none;fill-rule:nonzero;fill:rgb(0%,0%,0%);fill-opacity:1;" d="M 218.496094 48.046875 C 120.859375 48.046875 40.503906 148.664063 40.503906 270.917969 C 40.503906 393.171875 120.859375 493.789063 218.496094 493.789063 C 316.128906 493.789063 396.484375 393.171875 396.484375 270.917969 C 396.484375 148.664063 316.128906 48.046875 218.496094 48.046875 Z M 221.546875 488.6875 C 129.511719 488.6875 53.765625 391.277344 53.765625 272.921875 C 53.765625 154.5625 129.511719 57.152344 221.546875 57.152344 C 313.585938 57.152344 389.332031 154.5625 389.332031 272.921875 C 389.332031 391.277344 313.585938 488.6875 221.546875 488.6875 "/>
<path style=" stroke:none;fill-rule:nonzero;fill:rgb(0%,0%,0%);fill-opacity:1;" d="M 59.183594 485.699219 C 59.183594 485.699219 64.878906 479.410156 62.382813 476.914063 C 59.59375 474.125 55.417969 477.21875 53.066406 479.566406 C 53.066406 479.566406 24.953125 509.644531 10.570313 491.738281 C 6.3125 499.519531 7.5 508.0625 15.414063 512.726563 C 11.742188 514.636719 -1.578125 528.023438 1.308594 538.589844 C 11.046875 539.472656 19.066406 536.074219 27.742188 525.058594 C 32.136719 532.507813 39.90625 535.53125 49.039063 529.304688 C 32.734375 517.71875 44.328125 504.359375 59.183594 485.699219 Z M 28.257813 515.242188 C 25.59375 523.011719 11.847656 535.664063 5.03125 535.046875 C 4.394531 525.523438 21.121094 512.433594 23.691406 511.097656 C 18.167969 510.972656 10.023438 504.183594 11.902344 497.5625 C 25.152344 513.6875 48.785156 488.4375 48.785156 488.4375 C 50.273438 487.507813 52.917969 484.023438 53.863281 484.976563 C 54.414063 485.527344 50.363281 490.25 50.363281 490.25 C 38.925781 502.824219 29.226563 517.761719 43.394531 527.785156 C 37.003906 532.144531 28.0625 521.449219 28.257813 515.242188 "/>
<path style=" stroke:none;fill-rule:nonzero;fill:rgb(0%,0%,0%);fill-opacity:1;" d="M 52.523438 468.578125 C 51.347656 470.925781 51.960938 472.949219 55.777344 475.59375 C 59.742188 468.988281 69.867188 480.289063 63.265625 483.371094 C 65.023438 486.308594 66.320313 487.953125 70.136719 486.484375 C 73.660156 473.277344 58.394531 465.9375 52.523438 468.578125 "/>
<path style=" stroke:none;fill-rule:nonzero;fill:rgb(0%,0%,0%);fill-opacity:1;" d="M 62.621094 455.636719 C 62.09375 462.769531 62.722656 465.804688 58.625 467.835938 C 66.683594 467.96875 71.800781 476.105469 72.097656 481.3125 C 73.371094 477.679688 79.222656 477.023438 84.371094 477.15625 C 82.800781 473.136719 78.570313 472.195313 73.550781 472.726563 C 75.402344 468.496094 77.910156 467.574219 76.855469 463.34375 C 73.417969 462.289063 69.058594 465.0625 66.945313 466.121094 C 67.960938 462.140625 67.507813 460.523438 62.621094 455.636719 Z M 76.949219 475.832031 L 71.941406 475.386719 C 81.402344 472.363281 82.425781 478.082031 76.949219 475.832031 Z M 72.089844 467.898438 L 68.136719 471.847656 C 72.320313 461.636719 77.914063 464.847656 72.089844 467.898438 Z M 64.425781 468.136719 L 63.980469 463.128906 C 61.730469 457.652344 67.445313 458.675781 64.425781 468.136719 "/>
<path style=" stroke:none;fill-rule:nonzero;fill:rgb(0%,0%,0%);fill-opacity:1;" d="M 436.925781 510.957031 C 444.371094 506.5625 447.398438 498.792969 441.171875 489.660156 C 429.585938 505.964844 416.226563 494.371094 397.566406 479.515625 C 397.566406 479.515625 391.273438 473.820313 388.78125 476.316406 C 385.992188 479.105469 389.085938 483.28125 391.429688 485.632813 C 391.429688 485.632813 421.511719 513.746094 403.605469 528.128906 C 411.382813 532.386719 419.929688 531.199219 424.59375 523.285156 C 426.503906 526.957031 439.890625 540.277344 450.457031 537.390625 C 451.339844 527.652344 447.941406 519.632813 436.925781 510.957031 Z M 446.914063 533.667969 C 437.390625 534.304688 424.300781 517.578125 422.964844 515.007813 C 422.839844 520.53125 416.050781 528.679688 409.429688 526.796875 C 425.554688 513.546875 400.304688 489.914063 400.304688 489.914063 C 399.371094 488.425781 395.890625 485.78125 396.84375 484.835938 C 397.394531 484.285156 402.117188 488.335938 402.117188 488.335938 C 414.691406 499.773438 429.628906 509.472656 439.648438 495.304688 C 444.007813 501.699219 433.316406 510.636719 427.105469 510.441406 C 434.878906 513.105469 447.53125 526.851563 446.914063 533.667969 "/>
<path style=" stroke:none;fill-rule:nonzero;fill:rgb(0%,0%,0%);fill-opacity:1;" d="M 395.238281 475.4375 C 398.175781 473.675781 399.820313 472.378906 398.351563 468.5625 C 385.140625 465.039063 377.804688 480.304688 380.445313 486.175781 C 382.792969 487.351563 384.816406 486.738281 387.460938 482.921875 C 380.855469 478.957031 392.15625 468.832031 395.238281 475.4375 "/>
<path style=" stroke:none;fill-rule:nonzero;fill:rgb(0%,0%,0%);fill-opacity:1;" d="M 367.503906 476.078125 C 374.636719 476.605469 377.671875 475.976563 379.703125 480.074219 C 379.835938 472.015625 387.972656 466.898438 393.179688 466.601563 C 389.546875 465.328125 388.890625 459.476563 389.019531 454.328125 C 385.003906 455.898438 384.0625 460.128906 384.589844 465.148438 C 380.363281 463.296875 379.4375 460.789063 375.210938 461.84375 C 374.15625 465.28125 376.929688 469.640625 377.984375 471.753906 C 374.003906 470.738281 372.390625 471.191406 367.503906 476.078125 Z M 387.695313 461.75 L 387.253906 466.757813 C 384.230469 457.296875 389.945313 456.277344 387.695313 461.75 Z M 379.765625 466.609375 L 383.714844 470.566406 C 373.503906 466.378906 376.714844 460.78125 379.765625 466.609375 Z M 380.003906 474.273438 L 374.992188 474.71875 C 369.519531 476.96875 370.542969 471.253906 380.003906 474.273438 "/>
<path style=" stroke:none;fill-rule:nonzero;fill:rgb(0%,0%,0%);fill-opacity:1;" d="M 392.578125 53.203125 C 392.578125 53.203125 386.882813 59.492188 389.378906 61.988281 C 392.167969 64.777344 396.34375 61.683594 398.695313 59.335938 C 398.695313 59.335938 426.808594 29.253906 441.191406 47.160156 C 445.449219 39.382813 444.261719 30.839844 436.347656 26.171875 C 440.019531 24.265625 453.339844 10.875 450.453125 0.308594 C 440.714844 -0.574219 432.695313 2.824219 424.019531 13.84375 C 419.625 6.394531 411.855469 3.367188 402.71875 9.597656 C 419.027344 21.183594 407.433594 34.539063 392.578125 53.203125 Z M 423.503906 23.660156 C 426.167969 15.890625 439.914063 3.234375 446.730469 3.851563 C 447.367188 13.378906 430.640625 26.46875 428.070313 27.804688 C 433.59375 27.929688 441.738281 34.71875 439.859375 41.335938 C 426.609375 25.210938 402.976563 50.464844 402.976563 50.464844 C 401.488281 51.394531 398.84375 54.878906 397.894531 53.925781 C 397.347656 53.371094 401.398438 48.648438 401.398438 48.648438 C 412.835938 36.074219 422.535156 21.136719 408.363281 11.117188 C 414.757813 6.757813 423.699219 17.453125 423.503906 23.660156 "/>
<path style=" stroke:none;fill-rule:nonzero;fill:rgb(0%,0%,0%);fill-opacity:1;" d="M 399.238281 70.320313 C 400.414063 67.972656 399.800781 65.949219 395.984375 63.308594 C 392.019531 69.914063 381.890625 58.609375 388.496094 55.527344 C 386.734375 52.59375 385.441406 50.945313 381.625 52.414063 C 378.101563 65.625 393.367188 72.964844 399.238281 70.320313 "/>
<path style=" stroke:none;fill-rule:nonzero;fill:rgb(0%,0%,0%);fill-opacity:1;" d="M 389.140625 83.265625 C 389.667969 76.128906 389.039063 73.097656 393.136719 71.0625 C 385.078125 70.929688 379.960938 62.792969 379.660156 57.589844 C 378.386719 61.222656 372.539063 61.878906 367.386719 61.746094 C 368.960938 65.761719 373.1875 66.703125 378.210938 66.175781 C 376.359375 70.402344 373.851563 71.328125 374.90625 75.554688 C 378.339844 76.613281 382.699219 73.839844 384.8125 72.78125 C 383.800781 76.761719 384.253906 78.375 389.140625 83.265625 Z M 374.808594 63.070313 L 379.820313 63.515625 C 370.359375 66.535156 369.335938 60.820313 374.808594 63.070313 Z M 379.671875 71 L 383.628906 67.054688 C 379.441406 77.265625 373.84375 74.050781 379.671875 71 Z M 387.335938 70.761719 L 387.78125 75.773438 C 390.03125 81.246094 384.316406 80.222656 387.335938 70.761719 "/>
<path style=" stroke:none;fill-rule:nonzero;fill:rgb(0%,0%,0%);fill-opacity:1;" d="M 14.585938 27.011719 C 7.136719 31.40625 4.113281 39.175781 10.339844 48.3125 C 21.925781 32.003906 35.28125 43.597656 53.945313 58.453125 C 53.945313 58.453125 60.234375 64.148438 62.730469 61.652344 C 65.519531 58.863281 62.425781 54.6875 60.082031 52.335938 C 60.082031 52.335938 30 24.222656 47.90625 9.839844 C 40.128906 5.582031 31.582031 6.769531 26.917969 14.683594 C 25.007813 11.015625 11.621094 -2.308594 1.050781 0.578125 C 0.171875 10.316406 3.566406 18.335938 14.585938 27.011719 Z M 4.597656 4.300781 C 14.121094 3.664063 27.210938 20.390625 28.546875 22.960938 C 28.671875 17.4375 35.460938 9.289063 42.082031 11.171875 C 25.957031 24.421875 51.207031 48.054688 51.207031 48.054688 C 52.136719 49.542969 55.621094 52.1875 54.667969 53.136719 C 54.117188 53.683594 49.394531 49.632813 49.394531 49.632813 C 36.820313 38.195313 21.882813 28.496094 11.859375 42.664063 C 7.5 36.273438 18.195313 27.332031 24.402344 27.527344 C 16.632813 24.863281 3.980469 11.117188 4.597656 4.300781 "/>
<path style=" stroke:none;fill-rule:nonzero;fill:rgb(0%,0%,0%);fill-opacity:1;" d="M 71.066406 51.792969 C 68.71875 50.617188 66.695313 51.230469 64.050781 55.046875 C 70.65625 59.011719 59.355469 69.136719 56.273438 62.53125 C 53.335938 64.296875 51.691406 65.589844 53.160156 69.40625 C 66.367188 72.929688 73.707031 57.664063 71.066406 51.792969 "/>
<path style=" stroke:none;fill-rule:nonzero;fill:rgb(0%,0%,0%);fill-opacity:1;" d="M 84.007813 61.890625 C 76.875 61.363281 73.839844 61.992188 71.808594 57.894531 C 71.675781 65.953125 63.539063 71.070313 58.332031 71.367188 C 61.964844 72.644531 62.621094 78.488281 62.488281 83.644531 C 66.507813 82.070313 67.449219 77.839844 66.917969 72.820313 C 71.148438 74.671875 72.070313 77.179688 76.296875 76.125 C 77.355469 72.6875 74.582031 68.328125 73.523438 66.214844 C 77.507813 67.230469 79.121094 66.777344 84.007813 61.890625 Z M 63.816406 76.222656 L 64.257813 71.210938 C 67.28125 80.671875 61.5625 81.695313 63.816406 76.222656 Z M 71.746094 71.359375 L 67.796875 67.402344 C 78.007813 71.589844 74.796875 77.1875 71.746094 71.359375 Z M 71.507813 63.695313 L 76.515625 63.25 C 81.992188 61 80.96875 66.714844 71.507813 63.695313 "/>
<path style=" stroke:none;fill-rule:nonzero;fill:rgb(0%,0%,0%);fill-opacity:1;" d="M 8.128906 473.726563 C 10.726563 474.765625 11.425781 475.082031 15.304688 477.605469 C 15.304688 477.605469 26.753906 486.335938 41.300781 479.738281 C 45.105469 478.015625 47.898438 473.917969 46.539063 471.980469 C 41.886719 478.964844 18.617188 481 11.039063 464.023438 C 6.1875 453.160156 11.820313 439.746094 19.769531 434.535156 C 25.394531 430.851563 34.84375 429.765625 42.273438 433.179688 C 49.449219 436.476563 53.332031 445.59375 51.195313 453.546875 C 47.515625 467.265625 30.464844 469.957031 24.425781 462.667969 C 18.796875 455.878906 23.648438 450.058594 24.035156 449.085938 C 26.191406 443.699219 40.140625 441.714844 41.886719 447.921875 C 42.847656 451.34375 35.09375 451.222656 34.320313 454.324219 C 33.542969 457.429688 36.839844 460.726563 41.300781 458.011719 C 46.347656 454.9375 46.347656 446.757813 41.300781 442.101563 C 37.652344 438.734375 28.691406 436.28125 23.261719 440.355469 C 16.992188 445.058594 15.113281 452.578125 18.605469 460.339844 C 22.097656 468.097656 33.929688 476.050781 46.347656 469.070313 C 58.761719 462.085938 58.511719 451.515625 57.210938 445.011719 C 56.046875 439.191406 51.066406 429.882813 43.5 426.582031 C 36.980469 423.742188 34.449219 423.738281 24.8125 424.902344 C 29.273438 421.925781 31.289063 413.546875 31.601563 410.09375 C 31.992188 405.824219 30.050781 395.15625 19.964844 392.050781 C 9.875 388.945313 8.515625 384.097656 10.261719 382.738281 C 12.40625 381.070313 10.457031 379.828125 8.324219 380.023438 C 7.160156 382.351563 4.054688 387.589844 12.203125 391.855469 C 12.203125 391.855469 3.085938 393.019531 1.144531 403.691406 C -0.417969 412.292969 6.578125 418.242188 6.578125 418.242188 C 9.097656 420.761719 9.097656 424.644531 7.546875 428.328125 C 12.007813 427.164063 11.425781 420.375 10.070313 419.015625 C 16.277344 419.40625 22.289063 415.71875 22.679688 411.449219 C 23.066406 407.183594 22.667969 403.851563 17.636719 402.527344 C 13.949219 401.558594 6.382813 406.214844 12.203125 408.734375 C 15.96875 410.367188 17.058594 401.574219 18.992188 406.40625 C 21.320313 412.226563 10.578125 418.324219 5.414063 408.929688 C 3.277344 405.050781 6.382813 398.648438 12.007813 397.484375 C 17.742188 396.296875 21.988281 397.542969 25.589844 403.109375 C 27.722656 406.40625 28.109375 412.421875 24.230469 418.433594 C 21.378906 422.855469 17.34375 426.679688 11.039063 432.984375 C 9.097656 434.925781 -2.929688 448.699219 5.996094 469.261719 C 3.859375 469.261719 -0.796875 474.113281 1.53125 479.738281 C 1.53125 479.738281 4.25 472.171875 8.128906 473.726563 "/>
<path style=" stroke:none;fill-rule:nonzero;fill:rgb(0%,0%,0%);fill-opacity:1;" d="M 2.335938 381.335938 C 3.921875 382.808594 8.074219 381.507813 9.089844 376.269531 C 13.308594 382.554688 13.71875 381.019531 15.84375 380.285156 C 17.871094 379.585938 17.015625 372.660156 16.351563 370.683594 C 15 366.667969 11.789063 363.699219 8.582031 358.636719 C 7.753906 357.328125 5.882813 359.160156 7.230469 361.953125 C 8.414063 364.398438 4.023438 369.285156 2.503906 372.429688 C 0.984375 375.570313 0.644531 379.761719 2.335938 381.335938 Z M 9.796875 366.136719 C 14.324219 368.585938 15.03125 377.113281 10.664063 374.082031 C 8.34375 372.46875 7.5625 377.484375 5.375 375.222656 C 3.515625 373.300781 9.667969 369.972656 9.796875 366.136719 "/>
<path style=" stroke:none;fill-rule:nonzero;fill:rgb(0%,0%,0%);fill-opacity:1;" d="M 157.292969 529.339844 C 155.933594 531.085938 151.085938 529.726563 147.980469 519.640625 C 144.878906 509.550781 134.207031 507.609375 129.9375 508 C 126.484375 508.3125 118.105469 510.328125 115.128906 514.789063 C 116.292969 505.152344 116.289063 502.617188 113.449219 496.101563 C 110.152344 488.535156 100.839844 483.554688 95.019531 482.390625 C 88.519531 481.089844 77.945313 480.839844 70.964844 493.253906 C 63.976563 505.671875 71.933594 517.503906 79.691406 520.996094 C 87.453125 524.488281 94.972656 522.609375 99.675781 516.339844 C 103.75 510.910156 101.296875 501.949219 97.929688 498.296875 C 93.273438 493.253906 85.09375 493.253906 82.019531 498.296875 C 79.304688 502.761719 82.601563 506.058594 85.707031 505.28125 C 88.808594 504.507813 88.6875 496.753906 92.109375 497.71875 C 98.316406 499.464844 96.335938 513.410156 90.945313 515.566406 C 89.972656 515.953125 84.15625 520.800781 77.363281 515.175781 C 70.074219 509.136719 72.765625 492.085938 86.484375 488.40625 C 94.4375 486.269531 103.554688 490.152344 106.851563 497.328125 C 110.265625 504.757813 109.179688 514.207031 105.496094 519.832031 C 100.285156 527.78125 86.871094 533.414063 76.007813 528.5625 C 59.03125 520.984375 61.070313 497.71875 68.050781 493.0625 C 66.113281 491.703125 62.019531 494.496094 60.292969 498.296875 C 53.695313 512.847656 62.425781 524.292969 62.425781 524.292969 C 64.949219 528.175781 65.269531 528.875 66.304688 531.472656 C 67.859375 535.351563 60.292969 538.070313 60.292969 538.070313 C 65.917969 540.398438 70.769531 535.742188 70.769531 533.605469 C 91.332031 542.53125 105.105469 530.503906 107.046875 528.5625 C 113.351563 522.257813 117.175781 518.222656 121.597656 515.371094 C 127.609375 511.492188 133.625 511.878906 136.921875 514.011719 C 142.488281 517.613281 143.734375 521.859375 142.550781 527.59375 C 141.386719 533.21875 134.984375 536.324219 131.101563 534.1875 C 121.707031 529.023438 127.804688 518.28125 133.625 520.609375 C 138.457031 522.542969 129.664063 523.632813 131.296875 527.398438 C 133.820313 533.21875 138.476563 525.652344 137.503906 521.96875 C 136.179688 516.933594 132.847656 516.535156 128.582031 516.921875 C 124.3125 517.3125 120.628906 523.324219 121.015625 529.53125 C 119.65625 528.175781 112.867188 527.59375 111.703125 532.054688 C 115.390625 530.503906 119.269531 530.503906 121.789063 533.023438 C 121.789063 533.023438 127.738281 540.019531 136.339844 538.457031 C 147.011719 536.515625 148.175781 527.398438 148.175781 527.398438 C 152.441406 535.546875 157.679688 532.441406 160.007813 531.277344 C 160.203125 529.144531 158.960938 527.195313 157.292969 529.339844 "/>
<path style=" stroke:none;fill-rule:nonzero;fill:rgb(0%,0%,0%);fill-opacity:1;" d="M 181.109375 531.375 C 176.046875 528.164063 173.078125 524.957031 169.0625 523.605469 C 167.085938 522.941406 160.15625 522.085938 159.460938 524.113281 C 158.726563 526.238281 157.1875 526.644531 163.476563 530.867188 C 158.238281 531.878906 156.933594 536.035156 158.410156 537.621094 C 159.984375 539.308594 164.171875 538.972656 167.316406 537.453125 C 170.460938 535.933594 175.347656 531.542969 177.792969 532.722656 C 180.585938 534.074219 182.414063 532.199219 181.109375 531.375 Z M 164.855469 535.316406 C 162.59375 533.128906 167.605469 532.347656 165.996094 530.027344 C 162.964844 525.660156 171.488281 526.367188 173.941406 530.894531 C 170.105469 531.023438 166.777344 537.175781 164.855469 535.316406 "/>
<path style=" stroke:none;fill-rule:nonzero;fill:rgb(0%,0%,0%);fill-opacity:1;" d="M 389.472656 523.394531 C 389.472656 523.394531 398.203125 511.945313 391.605469 497.398438 C 389.882813 493.59375 385.785156 490.800781 383.84375 492.160156 C 390.828125 496.816406 392.867188 520.082031 375.890625 527.660156 C 365.027344 532.511719 351.609375 526.878906 346.402344 518.929688 C 342.71875 513.304688 341.632813 503.855469 345.046875 496.425781 C 348.34375 489.25 357.460938 485.367188 365.414063 487.503906 C 379.132813 491.183594 381.824219 508.234375 374.53125 514.273438 C 367.742188 519.902344 361.921875 515.050781 360.953125 514.664063 C 355.5625 512.507813 353.582031 498.5625 359.789063 496.816406 C 363.214844 495.851563 363.089844 503.605469 366.191406 504.382813 C 369.296875 505.15625 372.59375 501.859375 369.878906 497.398438 C 366.804688 492.351563 358.625 492.351563 353.96875 497.398438 C 350.601563 501.046875 348.148438 510.007813 352.222656 515.4375 C 356.925781 521.707031 364.445313 523.585938 372.203125 520.09375 C 379.964844 516.601563 387.921875 504.769531 380.9375 492.351563 C 373.953125 479.9375 363.378906 480.1875 356.878906 481.488281 C 351.058594 482.652344 341.746094 487.632813 338.449219 495.199219 C 335.609375 501.71875 335.605469 504.25 336.769531 513.886719 C 333.792969 509.425781 325.414063 507.410156 321.960938 507.097656 C 317.691406 506.710938 307.019531 508.648438 303.917969 518.738281 C 300.8125 528.824219 295.964844 530.183594 294.605469 528.4375 C 292.9375 526.292969 291.695313 528.242188 291.890625 530.375 C 294.21875 531.542969 299.453125 534.644531 303.722656 526.496094 C 303.722656 526.496094 304.886719 535.613281 315.558594 537.554688 C 324.160156 539.117188 330.105469 532.125 330.105469 532.125 C 332.628906 529.601563 336.507813 529.601563 340.195313 531.152344 C 339.03125 526.691406 332.242188 527.273438 330.882813 528.632813 C 331.269531 522.421875 327.585938 516.410156 323.316406 516.019531 C 319.050781 515.632813 315.71875 516.03125 314.394531 521.066406 C 313.421875 524.75 318.078125 532.316406 320.601563 526.496094 C 322.234375 522.730469 313.441406 521.640625 318.273438 519.707031 C 324.09375 517.378906 330.191406 528.121094 320.796875 533.289063 C 316.914063 535.421875 310.515625 532.316406 309.351563 526.691406 C 308.164063 520.957031 309.410156 516.710938 314.976563 513.109375 C 318.273438 510.976563 324.289063 510.589844 330.300781 514.46875 C 334.722656 517.320313 338.546875 521.355469 344.851563 527.660156 C 346.789063 529.601563 360.566406 541.628906 381.128906 532.707031 C 381.128906 534.839844 385.980469 539.496094 391.605469 537.167969 C 391.605469 537.167969 384.039063 534.449219 385.589844 530.570313 C 386.628906 527.972656 386.949219 527.273438 389.472656 523.394531 "/>
<path style=" stroke:none;fill-rule:nonzero;fill:rgb(0%,0%,0%);fill-opacity:1;" d="M 288.136719 529.609375 C 294.421875 525.390625 292.886719 524.980469 292.152344 522.855469 C 291.453125 520.828125 284.527344 521.683594 282.550781 522.347656 C 278.53125 523.699219 275.566406 526.910156 270.503906 530.117188 C 269.195313 530.945313 271.027344 532.816406 273.820313 531.46875 C 276.261719 530.285156 281.152344 534.675781 284.296875 536.195313 C 287.4375 537.714844 291.628906 538.054688 293.199219 536.363281 C 294.675781 534.777344 293.375 530.625 288.136719 529.609375 Z M 287.089844 533.324219 C 285.167969 535.183594 281.839844 529.03125 278.003906 528.902344 C 280.453125 524.375 288.980469 523.667969 285.949219 528.035156 C 284.335938 530.355469 289.351563 531.136719 287.089844 533.324219 "/>
<path style=" stroke:none;fill-rule:nonzero;fill:rgb(0%,0%,0%);fill-opacity:1;" d="M 431.503906 390.71875 C 421.417969 393.824219 419.476563 404.492188 419.867188 408.761719 C 420.179688 412.214844 422.191406 420.59375 426.65625 423.570313 C 417.019531 422.40625 414.484375 422.410156 407.96875 425.25 C 400.402344 428.550781 395.421875 437.859375 394.257813 443.679688 C 392.957031 450.179688 392.703125 460.753906 405.121094 467.738281 C 417.539063 474.71875 429.371094 466.765625 432.863281 459.007813 C 436.355469 451.246094 434.476563 443.726563 428.207031 439.023438 C 422.773438 434.949219 413.816406 437.402344 410.164063 440.769531 C 405.121094 445.425781 405.117188 453.605469 410.164063 456.679688 C 414.628906 459.394531 417.925781 456.097656 417.148438 452.992188 C 416.371094 449.890625 408.621094 450.015625 409.585938 446.589844 C 411.328125 440.382813 425.277344 442.363281 427.433594 447.753906 C 427.820313 448.722656 432.671875 454.542969 427.042969 461.335938 C 421.003906 468.625 403.953125 465.933594 400.269531 452.21875 C 398.136719 444.261719 402.019531 435.144531 409.195313 431.847656 C 416.625 428.433594 426.074219 429.519531 431.699219 433.203125 C 439.648438 438.410156 445.277344 451.828125 440.429688 462.691406 C 432.851563 479.667969 409.585938 477.632813 404.929688 470.648438 C 403.570313 472.585938 406.359375 476.683594 410.164063 478.40625 C 424.714844 485.003906 436.160156 476.273438 436.160156 476.273438 C 440.039063 473.75 440.742188 473.433594 443.339844 472.394531 C 447.21875 470.839844 449.9375 478.40625 449.9375 478.40625 C 452.265625 472.78125 447.605469 467.929688 445.472656 467.929688 C 454.398438 447.367188 442.371094 433.59375 440.429688 431.652344 C 434.125 425.347656 430.089844 421.523438 427.238281 417.101563 C 423.355469 411.089844 423.746094 405.074219 425.878906 401.777344 C 429.480469 396.210938 433.726563 394.964844 439.460938 396.152344 C 445.085938 397.316406 448.1875 403.71875 446.054688 407.597656 C 440.890625 416.992188 430.148438 410.894531 432.476563 405.074219 C 434.410156 400.242188 435.5 409.035156 439.265625 407.402344 C 445.085938 404.882813 437.519531 400.226563 433.835938 401.195313 C 428.800781 402.519531 428.402344 405.851563 428.789063 410.117188 C 429.175781 414.386719 435.191406 418.074219 441.398438 417.683594 C 440.039063 419.042969 439.460938 425.832031 443.921875 426.996094 C 442.371094 423.3125 442.371094 419.429688 444.890625 416.910156 C 444.890625 416.910156 451.886719 410.960938 450.324219 402.359375 C 448.382813 391.6875 439.265625 390.523438 439.265625 390.523438 C 447.414063 386.257813 444.308594 381.019531 443.144531 378.691406 C 441.011719 378.496094 439.0625 379.738281 441.203125 381.40625 C 442.953125 382.765625 441.59375 387.613281 431.503906 390.71875 "/>
<path style=" stroke:none;fill-rule:nonzero;fill:rgb(0%,0%,0%);fill-opacity:1;" d="M 444.589844 360.90625 C 445.941406 358.113281 444.066406 356.285156 443.238281 357.589844 C 440.03125 362.652344 436.824219 365.621094 435.472656 369.636719 C 434.808594 371.617188 433.953125 378.542969 435.980469 379.238281 C 438.105469 379.972656 438.511719 381.511719 442.734375 375.222656 C 443.746094 380.460938 447.902344 381.765625 449.488281 380.289063 C 451.175781 378.714844 450.839844 374.527344 449.320313 371.382813 C 447.800781 368.238281 443.410156 363.351563 444.589844 360.90625 Z M 447.183594 373.84375 C 444.996094 376.105469 444.214844 371.09375 441.894531 372.703125 C 437.527344 375.738281 438.234375 367.210938 442.761719 364.757813 C 442.890625 368.59375 449.042969 371.921875 447.183594 373.84375 "/>
<path style=" stroke:none;fill-rule:nonzero;fill:rgb(0%,0%,0%);fill-opacity:1;" d="M 445.183594 120.660156 C 442.664063 118.136719 442.664063 114.257813 444.214844 110.570313 C 439.753906 111.734375 440.335938 118.523438 441.691406 119.882813 C 435.484375 119.496094 429.46875 123.183594 429.082031 127.449219 C 428.695313 131.71875 429.09375 135.050781 434.128906 136.371094 C 437.8125 137.34375 445.378906 132.6875 439.558594 130.164063 C 435.792969 128.535156 434.703125 137.324219 432.769531 132.492188 C 430.441406 126.671875 441.183594 120.578125 446.347656 129.972656 C 448.480469 133.851563 445.378906 140.253906 439.753906 141.417969 C 434.019531 142.605469 429.773438 141.355469 426.171875 135.789063 C 424.039063 132.492188 423.648438 126.480469 427.53125 120.464844 C 430.382813 116.042969 434.417969 112.21875 440.722656 105.914063 C 442.664063 103.976563 454.691406 90.203125 445.765625 69.636719 C 447.898438 69.636719 452.558594 64.789063 450.230469 59.160156 C 450.230469 59.160156 447.511719 66.726563 443.632813 65.175781 C 441.035156 64.136719 440.335938 63.816406 436.453125 61.296875 C 436.453125 61.296875 425.007813 52.566406 410.460938 59.160156 C 406.652344 60.886719 403.863281 64.980469 405.21875 66.921875 C 409.878906 59.9375 433.144531 57.898438 440.722656 74.875 C 445.570313 85.738281 439.941406 99.15625 431.992188 104.363281 C 426.367188 108.050781 416.917969 109.136719 409.488281 105.722656 C 402.3125 102.421875 398.429688 93.304688 400.5625 85.351563 C 404.246094 71.636719 421.296875 68.941406 427.335938 76.234375 C 432.964844 83.023438 428.113281 88.84375 427.722656 89.8125 C 425.570313 95.203125 411.621094 97.1875 409.878906 90.976563 C 408.914063 87.554688 416.664063 87.679688 417.441406 84.574219 C 418.21875 81.472656 414.921875 78.175781 410.460938 80.890625 C 405.410156 83.960938 405.414063 92.140625 410.460938 96.796875 C 414.109375 100.167969 423.066406 102.617188 428.5 98.542969 C 434.769531 93.84375 436.648438 86.320313 433.15625 78.5625 C 429.664063 70.800781 417.828125 62.847656 405.414063 69.832031 C 392.996094 76.816406 393.25 87.386719 394.550781 93.886719 C 395.714844 99.707031 400.695313 109.019531 408.261719 112.316406 C 414.777344 115.160156 417.3125 115.164063 426.949219 114 C 422.484375 116.972656 420.472656 125.355469 420.15625 128.808594 C 419.769531 133.074219 421.710938 143.746094 431.796875 146.851563 C 441.886719 149.953125 443.246094 154.804688 441.496094 156.160156 C 439.355469 157.828125 441.304688 159.070313 443.4375 158.878906 C 444.601563 156.550781 447.707031 151.3125 439.558594 147.042969 C 439.558594 147.042969 448.675781 145.878906 450.617188 135.210938 C 452.179688 126.609375 445.183594 120.660156 445.183594 120.660156 "/>
<path style=" stroke:none;fill-rule:nonzero;fill:rgb(0%,0%,0%);fill-opacity:1;" d="M 449.425781 157.566406 C 447.839844 156.089844 443.683594 157.394531 442.671875 162.628906 C 438.449219 156.34375 438.042969 157.882813 435.917969 158.613281 C 433.890625 159.3125 434.746094 166.238281 435.410156 168.21875 C 436.761719 172.234375 439.96875 175.203125 443.179688 180.265625 C 444.003906 181.570313 445.878906 179.738281 444.527344 176.949219 C 443.347656 174.503906 447.738281 169.613281 449.257813 166.472656 C 450.777344 163.328125 451.113281 159.140625 449.425781 157.566406 Z M 441.964844 172.765625 C 437.4375 170.3125 436.730469 161.785156 441.09375 164.816406 C 443.414063 166.429688 444.199219 161.414063 446.386719 163.679688 C 448.242188 165.597656 442.09375 168.925781 441.964844 172.765625 "/>
<path style=" stroke:none;fill-rule:nonzero;fill:rgb(0%,0%,0%);fill-opacity:1;" d="M 294.46875 9.5625 C 295.828125 7.816406 300.675781 9.175781 303.78125 19.261719 C 306.882813 29.351563 317.554688 31.289063 321.820313 30.902344 C 325.277344 30.589844 333.65625 28.574219 336.632813 24.113281 C 335.46875 33.746094 335.472656 36.28125 338.3125 42.800781 C 341.609375 50.367188 350.921875 55.347656 356.742188 56.511719 C 363.242188 57.808594 373.8125 58.0625 380.796875 45.644531 C 387.78125 33.230469 379.828125 21.394531 372.066406 17.902344 C 364.308594 14.410156 356.789063 16.289063 352.085938 22.558594 C 348.011719 27.992188 350.464844 36.949219 353.832031 40.601563 C 358.488281 45.644531 366.667969 45.648438 369.738281 40.601563 C 372.457031 36.140625 369.15625 32.84375 366.054688 33.617188 C 362.949219 34.394531 363.074219 42.144531 359.652344 41.183594 C 353.445313 39.4375 355.425781 25.492188 360.816406 23.335938 C 361.785156 22.949219 367.605469 18.097656 374.394531 23.722656 C 381.6875 29.765625 378.996094 46.816406 365.277344 50.496094 C 357.324219 52.628906 348.207031 48.75 344.90625 41.570313 C 341.496094 34.144531 342.578125 24.695313 346.265625 19.066406 C 351.472656 11.117188 364.890625 5.488281 375.753906 10.339844 C 392.730469 17.914063 390.691406 41.183594 383.710938 45.839844 C 385.648438 47.199219 389.742188 44.40625 391.46875 40.601563 C 398.0625 26.050781 389.335938 14.605469 389.335938 14.605469 C 386.8125 10.726563 386.492188 10.023438 385.453125 7.429688 C 383.902344 3.546875 391.46875 0.832031 391.46875 0.832031 C 385.84375 -1.496094 380.992188 3.160156 380.992188 5.292969 C 360.429688 -3.628906 346.652344 8.398438 344.714844 10.339844 C 338.410156 16.640625 334.585938 20.675781 330.164063 23.53125 C 324.148438 27.410156 318.136719 27.023438 314.839844 24.886719 C 309.273438 21.285156 308.027344 17.042969 309.214844 11.308594 C 310.375 5.683594 316.777344 2.578125 320.65625 4.710938 C 330.054688 9.878906 323.957031 20.621094 318.136719 18.292969 C 313.304688 16.359375 322.097656 15.269531 320.464844 11.503906 C 317.941406 5.683594 313.285156 13.246094 314.257813 16.933594 C 315.582031 21.96875 318.914063 22.367188 323.179688 21.976563 C 327.449219 21.589844 331.132813 15.574219 330.746094 9.367188 C 332.105469 10.726563 338.894531 11.308594 340.058594 6.847656 C 336.371094 8.398438 332.492188 8.398438 329.96875 5.875 C 329.96875 5.875 324.019531 -1.121094 315.421875 0.445313 C 304.75 2.382813 303.585938 11.503906 303.585938 11.503906 C 299.316406 3.355469 294.078125 6.457031 291.753906 7.621094 C 291.558594 9.757813 292.800781 11.707031 294.46875 9.5625 "/>
<path style=" stroke:none;fill-rule:nonzero;fill:rgb(0%,0%,0%);fill-opacity:1;" d="M 270.652344 7.527344 C 275.714844 10.734375 278.683594 13.945313 282.699219 15.296875 C 284.679688 15.960938 291.605469 16.816406 292.300781 14.789063 C 293.035156 12.664063 294.570313 12.253906 288.285156 8.035156 C 293.523438 7.019531 294.824219 2.867188 293.347656 1.28125 C 291.777344 -0.410156 287.589844 -0.0703125 284.445313 1.449219 C 281.300781 2.96875 276.414063 7.359375 273.96875 6.175781 C 271.175781 4.828125 269.347656 6.699219 270.652344 7.527344 Z M 286.90625 3.582031 C 289.167969 5.769531 284.152344 6.554688 285.765625 8.875 C 288.796875 13.242188 280.269531 12.53125 277.820313 8.007813 C 281.65625 7.878906 284.984375 1.726563 286.90625 3.582031 "/>
<path style=" stroke:none;fill-rule:nonzero;fill:rgb(0%,0%,0%);fill-opacity:1;" d="M 62.039063 14.578125 C 62.039063 14.578125 53.308594 26.023438 59.90625 40.570313 C 61.628906 44.378906 65.726563 47.167969 67.664063 45.8125 C 60.679688 41.152344 58.644531 17.886719 75.621094 10.308594 C 86.484375 5.460938 99.898438 11.089844 105.109375 19.039063 C 108.792969 24.664063 109.878906 34.113281 106.464844 41.542969 C 103.167969 48.71875 94.050781 52.601563 86.09375 50.464844 C 72.378906 46.785156 69.6875 29.734375 76.976563 23.695313 C 83.769531 18.066406 89.589844 22.917969 90.558594 23.308594 C 95.949219 25.460938 97.929688 39.40625 91.722656 41.152344 C 88.296875 42.117188 88.421875 34.363281 85.320313 33.589844 C 82.214844 32.8125 78.917969 36.109375 81.632813 40.570313 C 84.707031 45.617188 92.886719 45.617188 97.542969 40.570313 C 100.910156 36.921875 103.363281 27.960938 99.289063 22.53125 C 94.585938 16.261719 87.066406 14.382813 79.304688 17.875 C 71.546875 21.367188 63.589844 33.199219 70.574219 45.617188 C 77.558594 58.03125 88.132813 57.78125 94.632813 56.480469 C 100.453125 55.316406 109.765625 50.335938 113.0625 42.769531 C 115.902344 36.253906 115.90625 33.71875 114.742188 24.082031 C 117.71875 28.546875 126.097656 30.558594 129.550781 30.871094 C 133.820313 31.261719 144.488281 29.320313 147.59375 19.230469 C 150.699219 9.144531 155.546875 7.785156 156.90625 9.53125 C 158.574219 11.675781 159.816406 9.726563 159.621094 7.59375 C 157.292969 6.429688 152.054688 3.324219 147.789063 11.472656 C 147.789063 11.472656 146.625 2.355469 135.953125 0.414063 C 127.351563 -1.148438 121.402344 5.847656 121.402344 5.847656 C 118.882813 8.367188 115.003906 8.367188 111.316406 6.816406 C 112.480469 11.277344 119.269531 10.695313 120.628906 9.339844 C 120.238281 15.546875 123.925781 21.5625 128.195313 21.949219 C 132.460938 22.335938 135.792969 21.9375 137.117188 16.902344 C 138.089844 13.21875 133.433594 5.652344 130.910156 11.472656 C 129.277344 15.238281 138.070313 16.328125 133.238281 18.261719 C 127.417969 20.589844 121.320313 9.851563 130.714844 4.683594 C 134.597656 2.546875 140.996094 5.652344 142.160156 11.277344 C 143.347656 17.011719 142.101563 21.257813 136.535156 24.859375 C 133.238281 26.992188 127.222656 27.378906 121.210938 23.5 C 116.789063 20.648438 112.964844 16.613281 106.660156 10.308594 C 104.71875 8.367188 90.945313 -3.660156 70.382813 5.265625 C 70.382813 3.128906 65.53125 -1.523438 59.90625 0.804688 C 59.90625 0.804688 67.472656 3.519531 65.917969 7.398438 C 64.878906 9.996094 64.5625 10.695313 62.039063 14.578125 "/>
<path style=" stroke:none;fill-rule:nonzero;fill:rgb(0%,0%,0%);fill-opacity:1;" d="M 163.375 8.359375 C 157.089844 12.578125 158.628906 12.988281 159.359375 15.113281 C 160.058594 17.140625 166.984375 16.285156 168.964844 15.621094 C 172.980469 14.269531 175.945313 11.0625 181.011719 7.851563 C 182.316406 7.023438 180.484375 5.152344 177.691406 6.503906 C 175.246094 7.683594 170.359375 3.292969 167.214844 1.773438 C 164.074219 0.253906 159.882813 -0.0859375 158.3125 1.605469 C 156.835938 3.191406 158.136719 7.347656 163.375 8.359375 Z M 164.421875 4.644531 C 166.34375 2.785156 169.671875 8.9375 173.511719 9.066406 C 171.058594 13.59375 162.53125 14.300781 165.5625 9.9375 C 167.175781 7.613281 162.160156 6.832031 164.421875 4.644531 "/>
<path style=" stroke:none;fill-rule:nonzero;fill:rgb(0%,0%,0%);fill-opacity:1;" d="M 43.542969 112.71875 C 51.109375 109.421875 56.089844 100.109375 57.253906 94.289063 C 58.554688 87.785156 58.804688 77.214844 46.390625 70.230469 C 33.972656 63.246094 22.140625 71.203125 18.648438 78.960938 C 15.15625 86.722656 17.035156 94.242188 23.304688 98.945313 C 28.734375 103.019531 37.695313 100.566406 41.34375 97.199219 C 46.390625 92.542969 46.390625 84.363281 41.34375 81.289063 C 36.882813 78.574219 33.585938 81.871094 34.359375 84.976563 C 35.136719 88.078125 42.890625 87.953125 41.925781 91.378906 C 40.179688 97.585938 26.234375 95.605469 24.078125 90.214844 C 23.691406 89.242188 18.839844 83.425781 24.46875 76.632813 C 30.507813 69.34375 47.558594 72.035156 51.238281 85.753906 C 53.375 93.707031 49.492188 102.824219 42.316406 106.121094 C 34.886719 109.535156 25.4375 108.449219 19.8125 104.765625 C 11.863281 99.554688 6.230469 86.140625 11.082031 75.277344 C 18.660156 58.300781 41.925781 60.339844 46.582031 67.320313 C 47.941406 65.382813 45.148438 61.285156 41.34375 59.5625 C 26.796875 52.964844 15.347656 61.695313 15.347656 61.695313 C 11.46875 64.21875 10.769531 64.535156 8.171875 65.578125 C 4.292969 67.128906 1.574219 59.5625 1.574219 59.5625 C -0.753906 65.1875 3.902344 70.039063 6.039063 70.039063 C -2.886719 90.601563 9.140625 104.375 11.082031 106.316406 C 17.386719 112.621094 21.421875 116.445313 24.273438 120.867188 C 28.152344 126.878906 27.765625 132.894531 25.632813 136.191406 C 22.03125 141.757813 17.785156 143.003906 12.050781 141.816406 C 6.425781 140.652344 3.320313 134.253906 5.457031 130.371094 C 10.621094 120.976563 21.363281 127.074219 19.035156 132.894531 C 17.101563 137.726563 16.011719 128.933594 12.246094 130.566406 C 6.425781 133.089844 13.992188 137.742188 17.675781 136.773438 C 22.710938 135.449219 23.109375 132.117188 22.722656 127.851563 C 22.332031 123.582031 16.320313 119.894531 10.109375 120.285156 C 11.46875 118.925781 12.050781 112.136719 7.589844 110.972656 C 9.140625 114.65625 9.140625 118.539063 6.621094 121.058594 C 6.621094 121.058594 -0.375 127.007813 1.1875 135.609375 C 3.128906 146.28125 12.246094 147.445313 12.246094 147.445313 C 4.097656 151.710938 7.203125 156.949219 8.363281 159.277344 C 10.5 159.472656 12.449219 158.230469 10.304688 156.5625 C 8.558594 155.203125 9.917969 150.355469 20.003906 147.25 C 30.09375 144.144531 32.035156 133.476563 31.644531 129.207031 C 31.332031 125.753906 29.316406 117.375 24.855469 114.398438 C 34.492188 115.5625 37.027344 115.558594 43.542969 112.71875 "/>
<path style=" stroke:none;fill-rule:nonzero;fill:rgb(0%,0%,0%);fill-opacity:1;" d="M 6.917969 177.0625 C 5.570313 179.851563 7.445313 181.683594 8.269531 180.378906 C 11.480469 175.316406 14.6875 172.347656 16.039063 168.332031 C 16.703125 166.351563 17.558594 159.425781 15.53125 158.730469 C 13.40625 157.996094 13 156.460938 8.777344 162.742188 C 7.765625 157.507813 3.609375 156.203125 2.023438 157.679688 C 0.335938 159.253906 0.671875 163.441406 2.191406 166.585938 C 3.710938 169.730469 8.101563 174.617188 6.917969 177.0625 Z M 4.328125 164.125 C 6.515625 161.863281 7.296875 166.878906 9.617188 165.265625 C 13.984375 162.230469 13.277344 170.757813 8.75 173.210938 C 8.621094 169.371094 2.46875 166.046875 4.328125 164.125 "/>
</g>
</svg>
