<?xml version="1.0" encoding="UTF-8"?>
<svg xmlns="http://www.w3.org/2000/svg" xmlns:xlink="http://www.w3.org/1999/xlink" width="464pt" height="462pt" viewBox="0 0 464 462" version="1.1">
<g id="surface1">
<path style=" stroke:none;fill-rule:nonzero;fill:rgb(0%,0%,0%);fill-opacity:1;" d="M 170.195313 448.558594 L 158.277344 448.558594 C 155.847656 448.558594 154.984375 446.832031 153.921875 444.324219 C 153.339844 442.945313 148.222656 442.546875 148.1875 444.324219 C 148.0625 450.914063 152.824219 453.21875 156.304688 453.21875 L 173.109375 453.21875 C 176.589844 453.21875 181.640625 450.59375 181.550781 443.796875 L 181.550781 432.1875 C 181.492188 426.179688 177.820313 424.867188 173.109375 424.867188 L 100.511719 424.867188 C 96.050781 424.867188 92.113281 426.574219 92.070313 432.1875 L 92.070313 443.796875 C 91.980469 450.59375 97.03125 453.21875 100.511719 453.21875 L 117.320313 453.21875 C 120.796875 453.21875 125.5625 450.914063 125.433594 444.324219 C 125.398438 442.546875 120.28125 442.945313 119.699219 444.324219 C 118.636719 446.832031 117.773438 448.558594 115.347656 448.558594 L 103.425781 448.558594 C 99.949219 448.558594 97.085938 447.527344 97.085938 443.226563 L 97.085938 436.320313 C 97.097656 430.378906 98.019531 429.722656 103.425781 429.789063 L 170.195313 429.789063 C 175.324219 429.722656 176.507813 430.644531 176.535156 436.320313 L 176.535156 443.226563 C 176.535156 447.527344 173.671875 448.558594 170.195313 448.558594 "/>
<path style=" stroke:none;fill-rule:nonzero;fill:rgb(0%,0%,0%);fill-opacity:1;" d="M 265.746094 448.558594 L 253.824219 448.558594 C 251.398438 448.558594 250.535156 446.832031 249.472656 444.324219 C 248.890625 442.945313 243.773438 442.546875 243.738281 444.324219 C 243.609375 450.914063 248.375 453.21875 251.851563 453.21875 L 268.660156 453.21875 C 272.140625 453.21875 277.191406 450.59375 277.101563 443.796875 L 277.101563 432.1875 C 277.191406 425.917969 272.140625 424.867188 268.660156 424.867188 L 196.0625 424.867188 C 192.582031 424.867188 187.53125 425.917969 187.621094 432.1875 L 187.621094 443.796875 C 187.53125 450.59375 192.582031 453.21875 196.0625 453.21875 L 212.867188 453.21875 C 216.347656 453.21875 221.109375 450.914063 220.984375 444.324219 C 220.949219 442.546875 215.832031 442.945313 215.246094 444.324219 C 214.1875 446.832031 213.324219 448.558594 210.894531 448.558594 L 198.976563 448.558594 C 195.5 448.558594 192.636719 447.527344 192.636719 443.226563 L 192.636719 436.320313 C 192.765625 429.730469 193.652344 430.101563 198.976563 429.789063 L 265.746094 429.789063 C 271.070313 430.101563 271.957031 429.730469 272.085938 436.320313 L 272.085938 443.226563 C 272.085938 447.527344 269.222656 448.558594 265.746094 448.558594 "/>
<path style=" stroke:none;fill-rule:nonzero;fill:rgb(0%,0%,0%);fill-opacity:1;" d="M 361.296875 448.558594 L 349.378906 448.558594 C 346.949219 448.558594 346.085938 446.832031 345.023438 444.324219 C 344.441406 442.945313 339.320313 442.546875 339.289063 444.324219 C 339.160156 450.914063 343.925781 453.21875 347.402344 453.21875 L 364.210938 453.21875 C 367.6875 453.21875 372.742188 450.59375 372.652344 443.796875 L 372.652344 432.1875 C 372.59375 425.917969 369.574219 424.867188 364.210938 424.867188 L 291.609375 424.867188 C 287.019531 424.867188 283.34375 425.917969 283.171875 432.1875 L 283.171875 443.796875 C 283.082031 450.59375 288.132813 453.21875 291.609375 453.21875 L 308.421875 453.21875 C 311.898438 453.21875 316.660156 450.914063 316.535156 444.324219 C 316.5 442.546875 311.382813 442.945313 310.800781 444.324219 C 309.734375 446.832031 308.875 448.558594 306.445313 448.558594 L 294.527344 448.558594 C 291.050781 448.558594 288.1875 447.527344 288.1875 443.226563 L 288.1875 436.320313 C 288.3125 429.730469 289.117188 429.722656 294.527344 429.789063 L 361.296875 429.789063 C 367.34375 429.722656 367.507813 429.730469 367.636719 436.320313 L 367.636719 443.226563 C 367.636719 447.527344 364.773438 448.558594 361.296875 448.558594 "/>
<path style=" stroke:none;fill-rule:nonzero;fill:rgb(0%,0%,0%);fill-opacity:1;" d="M 411.988281 433.269531 L 395.179688 433.269531 C 391.699219 433.269531 386.9375 435.574219 387.0625 442.164063 C 387.097656 443.9375 392.214844 443.539063 392.800781 442.160156 C 393.863281 439.652344 394.722656 437.925781 397.152344 437.925781 L 409.070313 437.925781 C 412.546875 437.925781 415.410156 438.957031 415.410156 443.261719 L 415.410156 450.164063 C 415.285156 456.753906 414.199219 456.761719 409.070313 456.695313 L 342.300781 456.695313 C 336.976563 456.382813 336.089844 456.753906 335.964844 450.164063 L 335.964844 443.261719 C 335.964844 438.957031 338.824219 437.925781 342.300781 437.925781 L 354.222656 437.925781 C 356.648438 437.925781 357.511719 439.652344 358.574219 442.160156 C 359.15625 443.539063 364.273438 443.9375 364.308594 442.164063 C 364.4375 435.574219 359.671875 433.269531 356.195313 433.269531 L 339.386719 433.269531 C 335.90625 433.269531 330.855469 435.894531 330.945313 442.6875 L 330.945313 454.296875 C 330.855469 460.566406 335.90625 461.617188 339.386719 461.617188 L 411.988281 461.617188 C 415.464844 461.617188 420.515625 460.566406 420.425781 454.296875 L 420.425781 442.6875 C 420.515625 435.894531 415.464844 433.269531 411.988281 433.269531 "/>
<path style=" stroke:none;fill-rule:nonzero;fill:rgb(0%,0%,0%);fill-opacity:1;" d="M 316.4375 433.269531 L 299.628906 433.269531 C 296.148438 433.269531 291.386719 435.574219 291.511719 442.164063 C 291.546875 443.9375 296.664063 443.539063 297.25 442.160156 C 298.3125 439.652344 299.171875 437.925781 301.601563 437.925781 L 313.519531 437.925781 C 316.996094 437.925781 319.859375 438.957031 319.859375 443.261719 L 319.859375 450.164063 C 319.734375 456.753906 318.847656 456.382813 313.519531 456.695313 L 246.753906 456.695313 C 241.425781 456.382813 240.539063 456.753906 240.410156 450.164063 L 240.410156 443.261719 C 240.410156 438.957031 243.273438 437.925781 246.753906 437.925781 L 258.671875 437.925781 C 261.101563 437.925781 261.960938 439.652344 263.023438 442.160156 C 263.605469 443.539063 268.726563 443.9375 268.757813 442.164063 C 268.886719 435.574219 264.121094 433.269531 260.644531 433.269531 L 243.835938 433.269531 C 240.359375 433.269531 235.304688 435.894531 235.394531 442.6875 L 235.394531 454.296875 C 235.304688 460.566406 240.359375 461.617188 243.835938 461.617188 L 316.4375 461.617188 C 319.914063 461.617188 324.964844 460.566406 324.878906 454.296875 L 324.878906 442.6875 C 324.964844 435.894531 319.914063 433.269531 316.4375 433.269531 "/>
<path style=" stroke:none;fill-rule:nonzero;fill:rgb(0%,0%,0%);fill-opacity:1;" d="M 220.886719 433.269531 L 204.078125 433.269531 C 200.601563 433.269531 195.835938 435.574219 195.964844 442.164063 C 195.996094 443.9375 201.113281 443.539063 201.699219 442.160156 C 202.761719 439.652344 203.621094 437.925781 206.050781 437.925781 L 217.96875 437.925781 C 221.449219 437.925781 224.308594 438.957031 224.308594 443.261719 L 224.308594 450.164063 C 224.183594 456.753906 223.296875 456.382813 217.96875 456.695313 L 151.203125 456.695313 C 145.875 456.382813 144.988281 456.753906 144.863281 450.164063 L 144.863281 443.261719 C 144.863281 438.957031 147.722656 437.925781 151.203125 437.925781 L 163.121094 437.925781 C 165.550781 437.925781 166.410156 439.652344 167.472656 442.160156 C 168.058594 443.539063 173.175781 443.9375 173.210938 442.164063 C 173.335938 435.574219 168.570313 433.269531 165.09375 433.269531 L 148.285156 433.269531 C 144.808594 433.269531 139.757813 435.894531 139.847656 442.6875 L 139.847656 454.296875 C 139.757813 460.566406 144.808594 461.617188 148.285156 461.617188 L 220.886719 461.617188 C 224.363281 461.617188 229.414063 460.566406 229.324219 454.296875 L 229.324219 442.6875 C 229.414063 435.894531 224.363281 433.269531 220.886719 433.269531 "/>
<path style=" stroke:none;fill-rule:nonzero;fill:rgb(0%,0%,0%);fill-opacity:1;" d="M 125.335938 433.269531 L 108.527344 433.269531 C 105.050781 433.269531 100.285156 435.574219 100.414063 442.164063 C 100.445313 443.9375 105.5625 443.539063 106.148438 442.160156 C 107.210938 439.652344 108.070313 437.925781 110.5 437.925781 L 122.421875 437.925781 C 125.898438 437.925781 128.761719 438.957031 128.761719 443.261719 L 128.761719 450.164063 C 128.632813 456.753906 127.746094 456.382813 122.421875 456.695313 L 55.652344 456.695313 C 50.507813 456.761719 49.324219 456.628906 49.3125 450.164063 L 49.3125 443.261719 C 49.3125 438.957031 52.171875 437.925781 55.652344 437.925781 L 67.570313 437.925781 C 70 437.925781 70.859375 439.652344 71.921875 442.160156 C 72.507813 443.539063 77.625 443.9375 77.660156 442.164063 C 77.785156 435.574219 73.023438 433.269531 69.542969 433.269531 L 52.734375 433.269531 C 49.257813 433.269531 44.207031 435.894531 44.296875 442.6875 L 44.296875 454.296875 C 44.207031 460.566406 49.257813 461.617188 52.734375 461.617188 L 125.335938 461.617188 C 128.8125 461.617188 133.867188 460.566406 133.777344 454.296875 L 133.777344 442.6875 C 133.867188 435.894531 128.8125 433.269531 125.335938 433.269531 "/>
<path style=" stroke:none;fill-rule:nonzero;fill:rgb(0%,0%,0%);fill-opacity:1;" d="M 426.417969 363.359375 C 426.417969 366.839844 427.46875 371.890625 433.738281 371.800781 L 445.347656 371.800781 C 452.144531 371.890625 454.769531 366.839844 454.769531 363.359375 L 454.769531 346.550781 C 454.769531 343.074219 452.464844 338.308594 445.871094 338.4375 C 444.097656 338.46875 444.496094 343.589844 445.871094 344.171875 C 448.382813 345.234375 450.109375 346.097656 450.109375 348.523438 L 450.109375 360.445313 C 450.109375 363.921875 449.078125 366.785156 444.773438 366.785156 L 437.871094 366.785156 C 431.28125 366.65625 431.652344 365.769531 431.339844 360.445313 L 431.339844 293.675781 C 431.652344 288.351563 431.28125 287.460938 437.871094 287.335938 L 444.773438 287.335938 C 449.078125 287.335938 450.109375 290.199219 450.109375 293.675781 L 450.109375 305.59375 C 450.109375 308.023438 448.382813 308.882813 445.871094 309.945313 C 444.496094 310.53125 444.097656 315.648438 445.871094 315.683594 C 452.464844 315.808594 454.769531 311.046875 454.769531 307.566406 L 454.769531 290.757813 C 454.769531 287.28125 452.144531 282.230469 445.347656 282.320313 L 433.738281 282.320313 C 427.46875 282.230469 426.417969 287.28125 426.417969 290.757813 L 426.417969 363.359375 "/>
<path style=" stroke:none;fill-rule:nonzero;fill:rgb(0%,0%,0%);fill-opacity:1;" d="M 426.417969 267.808594 C 426.417969 271.285156 427.46875 276.339844 433.738281 276.25 L 445.347656 276.25 C 452.144531 276.339844 454.769531 271.285156 454.769531 267.808594 L 454.769531 251 C 454.769531 247.523438 452.464844 242.757813 445.871094 242.886719 C 444.097656 242.921875 444.496094 248.039063 445.871094 248.621094 C 448.382813 249.683594 450.109375 250.546875 450.109375 252.972656 L 450.109375 264.894531 C 450.109375 268.371094 449.078125 271.234375 444.773438 271.234375 L 437.871094 271.234375 C 431.28125 271.105469 431.652344 270.21875 431.339844 264.894531 L 431.339844 198.125 C 431.652344 192.800781 431.28125 191.910156 437.871094 191.785156 L 444.773438 191.785156 C 449.078125 191.785156 450.109375 194.648438 450.109375 198.125 L 450.109375 210.042969 C 450.109375 212.472656 448.382813 213.335938 445.871094 214.398438 C 444.496094 214.980469 444.097656 220.097656 445.871094 220.132813 C 452.464844 220.257813 454.769531 215.496094 454.769531 212.015625 L 454.769531 195.210938 C 454.769531 191.730469 452.144531 186.679688 445.347656 186.769531 L 433.738281 186.769531 C 427.46875 186.679688 426.417969 191.730469 426.417969 195.210938 L 426.417969 267.808594 "/>
<path style=" stroke:none;fill-rule:nonzero;fill:rgb(0%,0%,0%);fill-opacity:1;" d="M 445.347656 91.21875 L 433.738281 91.21875 C 427.46875 91.128906 426.417969 96.179688 426.417969 99.660156 L 426.417969 172.257813 C 426.417969 175.738281 427.46875 180.789063 433.738281 180.699219 L 445.347656 180.699219 C 452.144531 180.789063 454.769531 175.738281 454.769531 172.257813 L 454.769531 155.449219 C 454.769531 151.972656 452.464844 147.210938 445.871094 147.335938 C 444.097656 147.371094 444.496094 152.488281 445.871094 153.070313 C 448.382813 154.132813 450.109375 154.996094 450.109375 157.425781 L 450.109375 169.34375 C 450.109375 172.820313 449.078125 175.683594 444.773438 175.683594 L 437.871094 175.683594 C 431.28125 175.554688 431.652344 174.667969 431.339844 169.34375 L 431.339844 102.574219 C 431.652344 97.25 431.28125 96.363281 437.871094 96.234375 L 444.773438 96.234375 C 449.078125 96.234375 450.109375 99.097656 450.109375 102.574219 L 450.109375 114.492188 C 450.109375 116.921875 448.382813 117.785156 445.871094 118.847656 C 444.496094 119.429688 444.097656 124.546875 445.871094 124.582031 C 452.464844 124.710938 454.769531 119.945313 454.769531 116.46875 L 454.769531 99.660156 C 454.769531 96.179688 452.144531 91.128906 445.347656 91.21875 "/>
<path style=" stroke:none;fill-rule:nonzero;fill:rgb(0%,0%,0%);fill-opacity:1;" d="M 451.714844 127.90625 L 444.8125 127.90625 C 440.507813 127.90625 439.476563 125.046875 439.476563 121.566406 L 439.476563 109.648438 C 439.476563 107.21875 441.203125 106.359375 443.710938 105.296875 C 445.089844 104.710938 445.488281 99.59375 443.710938 99.5625 C 437.121094 99.433594 434.816406 104.199219 434.816406 107.675781 L 434.816406 124.484375 C 434.816406 127.960938 437.441406 133.015625 444.238281 132.925781 L 455.847656 132.925781 C 462.117188 133.015625 463.167969 127.960938 463.167969 124.484375 L 463.167969 51.882813 C 463.167969 48.40625 462.117188 43.355469 455.847656 43.441406 L 444.238281 43.441406 C 437.441406 43.355469 434.816406 48.40625 434.816406 51.882813 L 434.816406 68.691406 C 434.816406 72.171875 437.121094 76.933594 443.710938 76.808594 C 445.488281 76.773438 445.089844 71.65625 443.710938 71.070313 C 441.203125 70.007813 439.476563 69.148438 439.476563 66.71875 L 439.476563 54.800781 C 439.476563 51.320313 440.507813 48.460938 444.8125 48.460938 L 451.714844 48.460938 C 458.304688 48.585938 457.933594 49.472656 458.246094 54.800781 L 458.246094 121.566406 C 457.933594 126.894531 458.304688 127.78125 451.714844 127.90625 "/>
<path style=" stroke:none;fill-rule:nonzero;fill:rgb(0%,0%,0%);fill-opacity:1;" d="M 463.167969 147.433594 C 463.167969 143.957031 462.117188 138.902344 455.847656 138.992188 L 444.238281 138.992188 C 437.441406 138.902344 434.816406 143.957031 434.816406 147.433594 L 434.816406 164.242188 C 434.816406 167.71875 437.121094 172.484375 443.710938 172.355469 C 445.488281 172.324219 445.089844 167.203125 443.710938 166.621094 C 441.203125 165.558594 439.476563 164.699219 439.476563 162.269531 L 439.476563 150.351563 C 439.476563 146.871094 440.507813 144.011719 444.8125 144.011719 L 451.714844 144.011719 C 458.304688 144.136719 457.933594 145.023438 458.246094 150.351563 L 458.246094 217.117188 C 457.933594 222.445313 458.304688 223.332031 451.714844 223.457031 L 444.8125 223.457031 C 440.507813 223.457031 439.476563 220.597656 439.476563 217.117188 L 439.476563 205.199219 C 439.476563 202.769531 441.203125 201.910156 443.710938 200.847656 C 445.089844 200.261719 445.488281 195.144531 443.710938 195.109375 C 437.121094 194.984375 434.816406 199.746094 434.816406 203.226563 L 434.816406 220.035156 C 434.816406 223.511719 437.441406 228.5625 444.238281 228.476563 L 455.847656 228.476563 C 462.117188 228.5625 463.167969 223.511719 463.167969 220.035156 L 463.167969 147.433594 "/>
<path style=" stroke:none;fill-rule:nonzero;fill:rgb(0%,0%,0%);fill-opacity:1;" d="M 463.167969 242.984375 C 463.167969 239.507813 462.117188 234.453125 455.847656 234.542969 L 444.238281 234.542969 C 437.441406 234.453125 434.816406 239.507813 434.816406 242.984375 L 434.816406 259.792969 C 434.816406 263.269531 437.121094 268.035156 443.710938 267.90625 C 445.488281 267.871094 445.089844 262.757813 443.710938 262.171875 C 441.203125 261.109375 439.476563 260.246094 439.476563 257.820313 L 439.476563 245.898438 C 439.476563 242.421875 440.507813 239.5625 444.8125 239.5625 L 451.714844 239.5625 C 458.304688 239.6875 457.933594 240.574219 458.246094 245.898438 L 458.246094 312.667969 C 457.933594 317.992188 458.304688 318.882813 451.714844 319.007813 L 444.8125 319.007813 C 440.507813 319.007813 439.476563 316.144531 439.476563 312.667969 L 439.476563 300.75 C 439.476563 298.320313 441.203125 297.460938 443.710938 296.398438 C 445.089844 295.8125 445.488281 290.695313 443.710938 290.660156 C 437.121094 290.535156 434.816406 295.296875 434.816406 298.777344 L 434.816406 315.585938 C 434.816406 319.0625 437.441406 324.113281 444.238281 324.023438 L 455.847656 324.023438 C 462.117188 324.113281 463.167969 319.0625 463.167969 315.585938 L 463.167969 242.984375 "/>
<path style=" stroke:none;fill-rule:nonzero;fill:rgb(0%,0%,0%);fill-opacity:1;" d="M 443.710938 391.949219 C 445.089844 391.363281 445.488281 386.246094 443.710938 386.210938 C 437.121094 386.085938 434.816406 390.847656 434.816406 394.328125 L 434.816406 411.136719 C 434.816406 414.613281 437.441406 419.664063 444.238281 419.574219 L 455.847656 419.574219 C 462.117188 419.664063 463.167969 414.613281 463.167969 411.136719 L 463.167969 338.535156 C 463.167969 335.058594 462.117188 330.003906 455.847656 330.09375 L 444.238281 330.09375 C 437.441406 330.003906 434.816406 335.058594 434.816406 338.535156 L 434.816406 355.34375 C 434.816406 358.820313 437.121094 363.585938 443.710938 363.457031 C 445.488281 363.421875 445.089844 358.304688 443.710938 357.722656 C 441.203125 356.660156 439.476563 355.796875 439.476563 353.371094 L 439.476563 341.449219 C 439.476563 337.972656 440.507813 335.109375 444.8125 335.109375 L 451.714844 335.109375 C 458.304688 335.238281 457.933594 336.125 458.246094 341.449219 L 458.246094 408.21875 C 457.933594 413.542969 458.304688 414.433594 451.714844 414.558594 L 444.8125 414.558594 C 440.507813 414.558594 439.476563 411.695313 439.476563 408.21875 L 439.476563 396.300781 C 439.476563 393.871094 441.203125 393.011719 443.710938 391.949219 "/>
<path style=" stroke:none;fill-rule:nonzero;fill:rgb(0%,0%,0%);fill-opacity:1;" d="M 293.59375 13.726563 L 305.511719 13.726563 C 307.941406 13.726563 308.800781 15.453125 309.863281 17.960938 C 310.449219 19.339844 315.566406 19.734375 315.601563 17.960938 C 315.726563 11.371094 310.964844 9.066406 307.484375 9.066406 L 290.675781 9.066406 C 287.199219 9.066406 282.148438 11.691406 282.234375 18.484375 L 282.234375 30.097656 C 282.292969 36.105469 285.96875 37.417969 290.675781 37.417969 L 363.277344 37.417969 C 367.738281 37.417969 371.675781 35.710938 371.71875 30.097656 L 371.71875 18.484375 C 371.808594 11.691406 366.753906 9.066406 363.277344 9.066406 L 346.46875 9.066406 C 342.992188 9.066406 338.226563 11.371094 338.355469 17.960938 C 338.386719 19.734375 343.503906 19.339844 344.089844 17.960938 C 345.152344 15.453125 346.011719 13.726563 348.441406 13.726563 L 360.359375 13.726563 C 363.839844 13.726563 366.699219 14.757813 366.699219 19.058594 L 366.699219 25.964844 C 366.6875 31.902344 365.769531 32.5625 360.359375 32.496094 L 293.59375 32.496094 C 288.464844 32.5625 287.28125 31.640625 287.253906 25.964844 L 287.253906 19.058594 C 287.253906 14.757813 290.113281 13.726563 293.59375 13.726563 "/>
<path style=" stroke:none;fill-rule:nonzero;fill:rgb(0%,0%,0%);fill-opacity:1;" d="M 198.042969 13.726563 L 209.960938 13.726563 C 212.390625 13.726563 213.25 15.453125 214.3125 17.960938 C 214.898438 19.339844 220.015625 19.734375 220.050781 17.960938 C 220.175781 11.371094 215.410156 9.066406 211.933594 9.066406 L 195.125 9.066406 C 191.648438 9.066406 186.597656 11.691406 186.6875 18.484375 L 186.6875 30.097656 C 186.597656 36.367188 191.648438 37.417969 195.125 37.417969 L 267.726563 37.417969 C 271.203125 37.417969 276.257813 36.367188 276.167969 30.097656 L 276.167969 18.484375 C 276.257813 11.691406 271.203125 9.066406 267.726563 9.066406 L 250.917969 9.066406 C 247.441406 9.066406 242.675781 11.371094 242.804688 17.960938 C 242.839844 19.734375 247.953125 19.339844 248.539063 17.960938 C 249.601563 15.453125 250.464844 13.726563 252.890625 13.726563 L 264.8125 13.726563 C 268.289063 13.726563 271.148438 14.757813 271.148438 19.058594 L 271.148438 25.964844 C 271.023438 32.554688 270.136719 32.183594 264.8125 32.496094 L 198.042969 32.496094 C 192.71875 32.183594 191.828125 32.554688 191.703125 25.964844 L 191.703125 19.058594 C 191.703125 14.757813 194.566406 13.726563 198.042969 13.726563 "/>
<path style=" stroke:none;fill-rule:nonzero;fill:rgb(0%,0%,0%);fill-opacity:1;" d="M 102.492188 13.726563 L 114.410156 13.726563 C 116.839844 13.726563 117.699219 15.453125 118.765625 17.960938 C 119.347656 19.339844 124.464844 19.734375 124.5 17.960938 C 124.625 11.371094 119.863281 9.066406 116.382813 9.066406 L 99.574219 9.066406 C 96.097656 9.066406 91.046875 11.691406 91.136719 18.484375 L 91.136719 30.097656 C 91.195313 36.367188 94.210938 37.417969 99.574219 37.417969 L 172.175781 37.417969 C 176.769531 37.417969 180.445313 36.367188 180.617188 30.097656 L 180.617188 18.484375 C 180.707031 11.691406 175.652344 9.066406 172.175781 9.066406 L 155.367188 9.066406 C 151.890625 9.066406 147.125 11.371094 147.253906 17.960938 C 147.285156 19.734375 152.40625 19.339844 152.988281 17.960938 C 154.050781 15.453125 154.914063 13.726563 157.339844 13.726563 L 169.261719 13.726563 C 172.738281 13.726563 175.601563 14.757813 175.601563 19.058594 L 175.601563 25.964844 C 175.472656 32.554688 174.667969 32.5625 169.261719 32.496094 L 102.492188 32.496094 C 96.445313 32.5625 96.277344 32.554688 96.152344 25.964844 L 96.152344 19.058594 C 96.152344 14.757813 99.015625 13.726563 102.492188 13.726563 "/>
<path style=" stroke:none;fill-rule:nonzero;fill:rgb(0%,0%,0%);fill-opacity:1;" d="M 51.800781 29.015625 L 68.609375 29.015625 C 72.085938 29.015625 76.851563 26.710938 76.722656 20.121094 C 76.691406 18.347656 71.574219 18.746094 70.988281 20.121094 C 69.925781 22.628906 69.066406 24.359375 66.636719 24.359375 L 54.71875 24.359375 C 51.238281 24.359375 48.378906 23.328125 48.378906 19.023438 L 48.378906 12.121094 C 48.503906 5.53125 49.585938 5.523438 54.71875 5.589844 L 121.484375 5.589844 C 126.8125 5.902344 127.699219 5.53125 127.824219 12.121094 L 127.824219 19.023438 C 127.824219 23.328125 124.964844 24.359375 121.484375 24.359375 L 109.566406 24.359375 C 107.136719 24.359375 106.277344 22.628906 105.214844 20.121094 C 104.628906 18.746094 99.511719 18.347656 99.476563 20.121094 C 99.351563 26.710938 104.113281 29.015625 107.59375 29.015625 L 124.402344 29.015625 C 127.878906 29.015625 132.929688 26.390625 132.839844 19.597656 L 132.839844 7.984375 C 132.929688 1.71875 127.878906 0.667969 124.402344 0.667969 L 51.800781 0.667969 C 48.324219 0.667969 43.269531 1.71875 43.359375 7.984375 L 43.359375 19.597656 C 43.269531 26.390625 48.324219 29.015625 51.800781 29.015625 "/>
<path style=" stroke:none;fill-rule:nonzero;fill:rgb(0%,0%,0%);fill-opacity:1;" d="M 147.351563 29.015625 L 164.160156 29.015625 C 167.636719 29.015625 172.402344 26.710938 172.273438 20.121094 C 172.238281 18.347656 167.121094 18.746094 166.539063 20.121094 C 165.476563 22.628906 164.613281 24.359375 162.1875 24.359375 L 150.265625 24.359375 C 146.789063 24.359375 143.925781 23.328125 143.925781 19.023438 L 143.925781 12.121094 C 144.054688 5.53125 144.941406 5.902344 150.265625 5.589844 L 217.035156 5.589844 C 222.359375 5.902344 223.246094 5.53125 223.375 12.121094 L 223.375 19.023438 C 223.375 23.328125 220.511719 24.359375 217.035156 24.359375 L 205.117188 24.359375 C 202.6875 24.359375 201.828125 22.628906 200.765625 20.121094 C 200.179688 18.746094 195.0625 18.347656 195.027344 20.121094 C 194.902344 26.710938 199.664063 29.015625 203.144531 29.015625 L 219.953125 29.015625 C 223.429688 29.015625 228.480469 26.390625 228.390625 19.597656 L 228.390625 7.984375 C 228.480469 1.71875 223.429688 0.667969 219.953125 0.667969 L 147.351563 0.667969 C 143.871094 0.667969 138.820313 1.71875 138.910156 7.984375 L 138.910156 19.597656 C 138.820313 26.390625 143.871094 29.015625 147.351563 29.015625 "/>
<path style=" stroke:none;fill-rule:nonzero;fill:rgb(0%,0%,0%);fill-opacity:1;" d="M 242.902344 29.015625 L 259.710938 29.015625 C 263.1875 29.015625 267.953125 26.710938 267.824219 20.121094 C 267.789063 18.347656 262.671875 18.746094 262.089844 20.121094 C 261.027344 22.628906 260.164063 24.359375 257.734375 24.359375 L 245.816406 24.359375 C 242.339844 24.359375 239.476563 23.328125 239.476563 19.023438 L 239.476563 12.121094 C 239.605469 5.53125 240.492188 5.902344 245.816406 5.589844 L 312.585938 5.589844 C 317.910156 5.902344 318.800781 5.53125 318.925781 12.121094 L 318.925781 19.023438 C 318.925781 23.328125 316.0625 24.359375 312.585938 24.359375 L 300.667969 24.359375 C 298.238281 24.359375 297.378906 22.628906 296.3125 20.121094 C 295.730469 18.746094 290.613281 18.347656 290.578125 20.121094 C 290.453125 26.710938 295.214844 29.015625 298.691406 29.015625 L 315.503906 29.015625 C 318.980469 29.015625 324.03125 26.390625 323.941406 19.597656 L 323.941406 7.984375 C 324.03125 1.71875 318.980469 0.667969 315.503906 0.667969 L 242.902344 0.667969 C 239.421875 0.667969 234.371094 1.71875 234.460938 7.984375 L 234.460938 19.597656 C 234.371094 26.390625 239.421875 29.015625 242.902344 29.015625 "/>
<path style=" stroke:none;fill-rule:nonzero;fill:rgb(0%,0%,0%);fill-opacity:1;" d="M 338.453125 29.015625 L 355.261719 29.015625 C 358.738281 29.015625 363.503906 26.710938 363.375 20.121094 C 363.339844 18.347656 358.222656 18.746094 357.640625 20.121094 C 356.578125 22.628906 355.714844 24.359375 353.285156 24.359375 L 341.367188 24.359375 C 337.890625 24.359375 335.027344 23.328125 335.027344 19.023438 L 335.027344 12.121094 C 335.15625 5.53125 336.042969 5.902344 341.367188 5.589844 L 408.136719 5.589844 C 413.28125 5.523438 414.464844 5.652344 414.476563 12.121094 L 414.476563 19.023438 C 414.476563 23.328125 411.613281 24.359375 408.136719 24.359375 L 396.21875 24.359375 C 393.789063 24.359375 392.925781 22.628906 391.863281 20.121094 C 391.28125 18.746094 386.164063 18.347656 386.128906 20.121094 C 386.003906 26.710938 390.765625 29.015625 394.242188 29.015625 L 411.050781 29.015625 C 414.53125 29.015625 419.582031 26.390625 419.492188 19.597656 L 419.492188 7.984375 C 419.582031 1.71875 414.53125 0.667969 411.050781 0.667969 L 338.453125 0.667969 C 334.972656 0.667969 329.921875 1.71875 330.011719 7.984375 L 330.011719 19.597656 C 329.921875 26.390625 334.972656 29.015625 338.453125 29.015625 "/>
<path style=" stroke:none;fill-rule:nonzero;fill:rgb(0%,0%,0%);fill-opacity:1;" d="M 37.371094 98.925781 C 37.371094 95.445313 36.320313 90.394531 30.050781 90.484375 L 18.441406 90.484375 C 11.644531 90.394531 9.019531 95.445313 9.019531 98.925781 L 9.019531 115.734375 C 9.019531 119.210938 11.324219 123.976563 17.914063 123.847656 C 19.6875 123.8125 19.292969 118.695313 17.914063 118.113281 C 15.40625 117.050781 13.679688 116.1875 13.679688 113.761719 L 13.679688 101.839844 C 13.679688 98.363281 14.710938 95.5 19.011719 95.5 L 25.917969 95.5 C 32.507813 95.628906 32.136719 96.515625 32.449219 101.839844 L 32.449219 168.609375 C 32.136719 173.933594 32.507813 174.820313 25.917969 174.949219 L 19.011719 174.949219 C 14.710938 174.949219 13.679688 172.085938 13.679688 168.609375 L 13.679688 156.691406 C 13.679688 154.261719 15.40625 153.402344 17.914063 152.339844 C 19.292969 151.753906 19.6875 146.636719 17.914063 146.601563 C 11.324219 146.476563 9.019531 151.238281 9.019531 154.71875 L 9.019531 171.523438 C 9.019531 175.003906 11.644531 180.054688 18.441406 179.964844 L 30.050781 179.964844 C 36.320313 180.054688 37.371094 175.003906 37.371094 171.523438 L 37.371094 98.925781 "/>
<path style=" stroke:none;fill-rule:nonzero;fill:rgb(0%,0%,0%);fill-opacity:1;" d="M 37.371094 194.476563 C 37.371094 190.996094 36.320313 185.945313 30.050781 186.035156 L 18.441406 186.035156 C 11.644531 185.945313 9.019531 190.996094 9.019531 194.476563 L 9.019531 211.285156 C 9.019531 214.761719 11.324219 219.523438 17.914063 219.398438 C 19.6875 219.363281 19.292969 214.246094 17.914063 213.664063 C 15.40625 212.601563 13.679688 211.738281 13.679688 209.308594 L 13.679688 197.390625 C 13.679688 193.914063 14.710938 191.050781 19.011719 191.050781 L 25.917969 191.050781 C 32.507813 191.179688 32.136719 192.066406 32.449219 197.390625 L 32.449219 264.160156 C 32.136719 269.484375 32.507813 270.371094 25.917969 270.5 L 19.011719 270.5 C 14.710938 270.5 13.679688 267.636719 13.679688 264.160156 L 13.679688 252.242188 C 13.679688 249.8125 15.40625 248.949219 17.914063 247.886719 C 19.292969 247.304688 19.6875 242.1875 17.914063 242.152344 C 11.324219 242.023438 9.019531 246.789063 9.019531 250.265625 L 9.019531 267.074219 C 9.019531 270.554688 11.644531 275.605469 18.441406 275.515625 L 30.050781 275.515625 C 36.320313 275.605469 37.371094 270.554688 37.371094 267.074219 L 37.371094 194.476563 "/>
<path style=" stroke:none;fill-rule:nonzero;fill:rgb(0%,0%,0%);fill-opacity:1;" d="M 17.914063 343.4375 C 19.292969 342.855469 19.6875 337.738281 17.914063 337.703125 C 11.324219 337.574219 9.019531 342.339844 9.019531 345.816406 L 9.019531 362.625 C 9.019531 366.105469 11.644531 371.15625 18.441406 371.066406 L 30.050781 371.066406 C 36.320313 371.15625 37.371094 366.105469 37.371094 362.625 L 37.371094 290.023438 C 37.371094 286.546875 36.320313 281.496094 30.050781 281.585938 L 18.441406 281.585938 C 11.644531 281.496094 9.019531 286.546875 9.019531 290.023438 L 9.019531 306.835938 C 9.019531 310.3125 11.324219 315.074219 17.914063 314.949219 C 19.6875 314.914063 19.292969 309.796875 17.914063 309.214844 C 15.40625 308.148438 13.679688 307.289063 13.679688 304.859375 L 13.679688 292.941406 C 13.679688 289.464844 14.710938 286.601563 19.011719 286.601563 L 25.917969 286.601563 C 32.507813 286.730469 32.136719 287.617188 32.449219 292.941406 L 32.449219 359.710938 C 32.136719 365.035156 32.507813 365.921875 25.917969 366.050781 L 19.011719 366.050781 C 14.710938 366.050781 13.679688 363.1875 13.679688 359.710938 L 13.679688 347.789063 C 13.679688 345.363281 15.40625 344.5 17.914063 343.4375 "/>
<path style=" stroke:none;fill-rule:nonzero;fill:rgb(0%,0%,0%);fill-opacity:1;" d="M 7.941406 418.839844 L 19.550781 418.839844 C 26.34375 418.929688 28.96875 413.878906 28.96875 410.402344 L 28.96875 393.59375 C 28.96875 390.113281 26.664063 385.351563 20.074219 385.476563 C 18.300781 385.511719 18.699219 390.628906 20.074219 391.214844 C 22.585938 392.277344 24.3125 393.136719 24.3125 395.566406 L 24.3125 407.484375 C 24.3125 410.960938 23.28125 413.824219 18.976563 413.824219 L 12.074219 413.824219 C 5.484375 413.699219 5.855469 412.808594 5.542969 407.484375 L 5.542969 340.71875 C 5.855469 335.390625 5.484375 334.503906 12.074219 334.378906 L 18.976563 334.378906 C 23.28125 334.378906 24.3125 337.238281 24.3125 340.71875 L 24.3125 352.636719 C 24.3125 355.0625 22.585938 355.925781 20.074219 356.988281 C 18.699219 357.570313 18.300781 362.691406 20.074219 362.722656 C 26.664063 362.851563 28.96875 358.085938 28.96875 354.609375 L 28.96875 337.800781 C 28.96875 334.324219 26.34375 329.269531 19.550781 329.359375 L 7.941406 329.359375 C 1.667969 329.269531 0.621094 334.324219 0.621094 337.800781 L 0.621094 410.402344 C 0.621094 413.878906 1.667969 418.929688 7.941406 418.839844 "/>
<path style=" stroke:none;fill-rule:nonzero;fill:rgb(0%,0%,0%);fill-opacity:1;" d="M 7.941406 323.289063 L 19.550781 323.289063 C 26.34375 323.378906 28.96875 318.328125 28.96875 314.851563 L 28.96875 298.042969 C 28.96875 294.566406 26.664063 289.800781 20.074219 289.925781 C 18.300781 289.960938 18.699219 295.078125 20.074219 295.664063 C 22.585938 296.726563 24.3125 297.585938 24.3125 300.015625 L 24.3125 311.933594 C 24.3125 315.410156 23.28125 318.273438 18.976563 318.273438 L 12.074219 318.273438 C 5.484375 318.148438 5.855469 317.261719 5.542969 311.933594 L 5.542969 245.164063 C 5.855469 239.839844 5.484375 238.953125 12.074219 238.828125 L 18.976563 238.828125 C 23.28125 238.828125 24.3125 241.6875 24.3125 245.164063 L 24.3125 257.085938 C 24.3125 259.515625 22.585938 260.375 20.074219 261.4375 C 18.699219 262.023438 18.300781 267.140625 20.074219 267.171875 C 26.664063 267.300781 28.96875 262.535156 28.96875 259.058594 L 28.96875 242.25 C 28.96875 238.773438 26.34375 233.722656 19.550781 233.808594 L 7.941406 233.808594 C 1.667969 233.722656 0.621094 238.773438 0.621094 242.25 L 0.621094 314.851563 C 0.621094 318.328125 1.667969 323.378906 7.941406 323.289063 "/>
<path style=" stroke:none;fill-rule:nonzero;fill:rgb(0%,0%,0%);fill-opacity:1;" d="M 7.941406 227.742188 L 19.550781 227.742188 C 26.34375 227.828125 28.96875 222.777344 28.96875 219.300781 L 28.96875 202.492188 C 28.96875 199.015625 26.664063 194.25 20.074219 194.378906 C 18.300781 194.410156 18.699219 199.527344 20.074219 200.113281 C 22.585938 201.175781 24.3125 202.035156 24.3125 204.464844 L 24.3125 216.382813 C 24.3125 219.863281 23.28125 222.722656 18.976563 222.722656 L 12.074219 222.722656 C 5.484375 222.597656 5.855469 221.710938 5.542969 216.382813 L 5.542969 149.617188 C 5.855469 144.289063 5.484375 143.402344 12.074219 143.277344 L 18.976563 143.277344 C 23.28125 143.277344 24.3125 146.136719 24.3125 149.617188 L 24.3125 161.535156 C 24.3125 163.964844 22.585938 164.824219 20.074219 165.886719 C 18.699219 166.472656 18.300781 171.589844 20.074219 171.621094 C 26.664063 171.75 28.96875 166.984375 28.96875 163.507813 L 28.96875 146.699219 C 28.96875 143.222656 26.34375 138.171875 19.550781 138.261719 L 7.941406 138.261719 C 1.667969 138.171875 0.621094 143.222656 0.621094 146.699219 L 0.621094 219.300781 C 0.621094 222.777344 1.667969 227.828125 7.941406 227.742188 "/>
<path style=" stroke:none;fill-rule:nonzero;fill:rgb(0%,0%,0%);fill-opacity:1;" d="M 7.941406 132.191406 L 19.550781 132.191406 C 26.34375 132.28125 28.96875 127.226563 28.96875 123.75 L 28.96875 106.941406 C 28.96875 103.464844 26.664063 98.699219 20.074219 98.828125 C 18.300781 98.859375 18.699219 103.980469 20.074219 104.5625 C 22.585938 105.625 24.3125 106.484375 24.3125 108.914063 L 24.3125 120.835938 C 24.3125 124.3125 23.28125 127.175781 18.976563 127.175781 L 12.074219 127.175781 C 5.484375 127.046875 5.855469 126.160156 5.542969 120.835938 L 5.542969 54.066406 C 5.855469 48.738281 5.484375 47.851563 12.074219 47.726563 L 18.976563 47.726563 C 23.28125 47.726563 24.3125 50.589844 24.3125 54.066406 L 24.3125 65.984375 C 24.3125 68.414063 22.585938 69.273438 20.074219 70.335938 C 18.699219 70.921875 18.300781 76.039063 20.074219 76.074219 C 26.664063 76.199219 28.96875 71.4375 28.96875 67.957031 L 28.96875 51.148438 C 28.96875 47.671875 26.34375 42.621094 19.550781 42.710938 L 7.941406 42.710938 C 1.667969 42.621094 0.621094 47.671875 0.621094 51.148438 L 0.621094 123.75 C 0.621094 127.226563 1.667969 132.28125 7.941406 132.191406 "/>
<path style=" stroke:none;fill-rule:nonzero;fill:rgb(0%,0%,0%);fill-opacity:1;" d="M 80.9375 436.332031 L 80.9375 443.234375 C 80.9375 447.539063 78.074219 448.570313 74.597656 448.570313 L 63.730469 448.570313 C 61.300781 448.570313 60.441406 446.84375 59.375 444.335938 C 58.792969 442.957031 53.675781 442.558594 53.640625 444.335938 C 53.515625 450.921875 58.277344 453.230469 61.757813 453.230469 L 77.515625 453.230469 C 80.992188 453.230469 85.945313 450.988281 85.953125 443.808594 L 85.953125 432.199219 C 85.945313 425.785156 82.792969 424.867188 77.515625 424.84375 L 37.402344 424.84375 L 37.402344 385.738281 C 37.464844 382.261719 36.332031 377.207031 30.0625 377.296875 L 18.449219 377.296875 C 11.65625 377.207031 9.03125 382.261719 9.03125 385.738281 L 9.03125 402.546875 C 9.03125 406.023438 11.335938 410.789063 17.925781 410.660156 C 19.699219 410.628906 19.300781 405.507813 17.925781 404.925781 C 15.417969 403.863281 13.691406 403.003906 13.691406 400.574219 L 13.691406 388.652344 C 13.625 384.574219 14.71875 382.3125 19.023438 382.3125 L 25.925781 382.3125 C 32 382.34375 32.523438 383 32.515625 388.785156 L 32.515625 424.84375 L 8.589844 424.84375 C 4.4375 424.867188 0.5 426.179688 0.542969 432.199219 L 0.542969 452.207031 C 0.5 458.992188 3.253906 461.355469 8.589844 461.628906 L 29.597656 461.628906 C 32.964844 461.628906 37.292969 458.023438 37.402344 451.90625 L 37.402344 429.910156 L 74.597656 429.910156 C 79.90625 429.855469 80.957031 430.25 80.9375 436.332031 Z M 32.515625 451.914063 C 32.523438 454.792969 30.554688 456.628906 27.492188 456.640625 L 11.375 456.640625 C 6.144531 456.628906 5.164063 455.9375 5.164063 451.636719 L 5.164063 436.332031 C 5.292969 429.742188 5.878906 429.855469 11.503906 429.910156 L 32.515625 429.910156 L 32.515625 451.914063 "/>
<path style=" stroke:none;fill-rule:nonzero;fill:rgb(0%,0%,0%);fill-opacity:1;" d="M 455.460938 0.917969 L 434.453125 0.917969 C 431.085938 0.917969 426.757813 4.523438 426.648438 10.640625 L 426.648438 32.636719 L 389.453125 32.636719 C 384.144531 32.691406 383.09375 32.296875 383.113281 26.214844 L 383.113281 19.3125 C 383.113281 15.007813 385.976563 13.976563 389.453125 13.976563 L 400.320313 13.976563 C 402.75 13.976563 403.609375 15.703125 404.675781 18.214844 C 405.257813 19.589844 410.375 19.988281 410.410156 18.214844 C 410.535156 11.625 405.773438 9.320313 402.296875 9.320313 L 386.535156 9.320313 C 383.058594 9.320313 378.105469 11.5625 378.097656 18.738281 L 378.097656 30.347656 C 378.105469 36.761719 381.257813 37.679688 386.535156 37.703125 L 426.648438 37.703125 L 426.648438 76.808594 C 426.585938 80.285156 427.71875 85.339844 433.988281 85.25 L 445.601563 85.25 C 452.394531 85.339844 455.019531 80.285156 455.019531 76.808594 L 455.019531 61.050781 C 455.019531 57.574219 452.714844 52.808594 446.125 52.9375 C 444.351563 52.96875 444.746094 58.085938 446.125 58.671875 C 448.632813 59.734375 450.359375 60.59375 450.359375 63.023438 L 450.359375 73.894531 C 450.425781 77.972656 449.328125 80.234375 445.027344 80.234375 L 438.121094 80.234375 C 432.050781 80.203125 431.527344 79.546875 431.53125 73.761719 L 431.53125 37.703125 L 455.460938 37.703125 C 459.613281 37.679688 463.550781 36.367188 463.507813 30.347656 L 463.507813 10.339844 C 463.550781 3.554688 460.796875 1.191406 455.460938 0.917969 Z M 458.886719 26.214844 C 458.757813 32.804688 458.171875 32.691406 452.546875 32.636719 L 431.53125 32.636719 L 431.53125 10.632813 C 431.527344 7.753906 433.496094 5.917969 436.558594 5.90625 L 452.675781 5.90625 C 457.90625 5.917969 458.886719 6.609375 458.886719 10.910156 L 458.886719 26.214844 "/>
<path style=" stroke:none;fill-rule:nonzero;fill:rgb(0%,0%,0%);fill-opacity:1;" d="M 453.707031 424.78125 L 431.714844 424.78125 L 431.714844 387.585938 C 431.65625 382.277344 432.050781 381.226563 438.132813 381.246094 L 445.035156 381.246094 C 449.339844 381.246094 450.371094 384.105469 450.371094 387.585938 L 450.371094 399.503906 C 450.371094 401.933594 448.644531 402.792969 446.136719 403.855469 C 444.757813 404.441406 444.359375 409.558594 446.136719 409.59375 C 452.726563 409.71875 455.03125 404.957031 455.03125 401.476563 L 455.03125 384.667969 C 455.03125 381.191406 452.789063 376.238281 445.609375 376.230469 L 434 376.230469 C 427.589844 376.238281 426.667969 379.390625 426.644531 384.667969 L 426.644531 424.78125 L 387.539063 424.78125 C 384.0625 424.71875 379.011719 425.851563 379.097656 432.121094 L 379.097656 443.730469 C 379.011719 450.527344 384.0625 453.152344 387.539063 453.152344 L 403.296875 453.152344 C 406.773438 453.152344 411.539063 450.847656 411.414063 444.257813 C 411.378906 442.484375 406.261719 442.878906 405.675781 444.257813 C 404.613281 446.765625 403.753906 448.492188 401.324219 448.492188 L 390.453125 448.492188 C 386.375 448.558594 384.117188 447.460938 384.117188 443.160156 L 384.117188 436.257813 C 384.144531 430.183594 384.800781 429.660156 390.585938 429.664063 L 426.644531 429.664063 L 426.644531 453.59375 C 426.667969 457.746094 427.980469 461.683594 434 461.640625 L 454.011719 461.640625 C 460.796875 461.683594 463.15625 458.925781 463.429688 453.59375 L 463.429688 432.585938 C 463.429688 429.21875 459.824219 424.890625 453.707031 424.78125 Z M 458.441406 450.808594 C 458.433594 456.039063 457.738281 457.019531 453.4375 457.019531 L 438.132813 457.019531 C 431.542969 456.890625 431.65625 456.300781 431.714844 450.679688 L 431.714844 429.664063 L 453.714844 429.664063 C 456.59375 429.660156 458.433594 431.628906 458.441406 434.691406 L 458.441406 450.808594 "/>
<path style=" stroke:none;fill-rule:nonzero;fill:rgb(0%,0%,0%);fill-opacity:1;" d="M 10.71875 37.648438 L 32.710938 37.648438 L 32.710938 74.847656 C 32.769531 80.152344 32.375 81.203125 26.292969 81.1875 L 19.390625 81.1875 C 15.085938 81.1875 14.054688 78.324219 14.054688 74.847656 L 14.054688 63.976563 C 14.054688 61.546875 15.78125 60.6875 18.289063 59.625 C 19.667969 59.039063 20.066406 53.921875 18.289063 53.886719 C 11.703125 53.761719 9.394531 58.527344 9.394531 62.003906 L 9.394531 77.761719 C 9.394531 81.238281 11.636719 86.191406 18.816406 86.203125 L 30.425781 86.203125 C 36.839844 86.191406 37.757813 83.039063 37.78125 77.761719 L 37.78125 37.648438 L 76.886719 37.648438 C 80.363281 37.714844 85.414063 36.578125 85.328125 30.308594 L 85.328125 18.699219 C 85.414063 11.902344 80.363281 9.277344 76.886719 9.277344 L 60.078125 9.277344 C 56.601563 9.277344 51.835938 11.585938 51.964844 18.171875 C 51.996094 19.949219 57.113281 19.550781 57.699219 18.171875 C 58.761719 15.664063 59.621094 13.9375 62.050781 13.9375 L 73.96875 13.9375 C 78.050781 13.871094 80.308594 14.96875 80.308594 19.269531 L 80.308594 26.175781 C 80.28125 32.246094 79.625 32.773438 73.839844 32.765625 L 37.78125 32.765625 L 37.78125 8.835938 C 37.757813 4.683594 36.445313 0.746094 30.425781 0.789063 L 10.414063 0.789063 C 3.632813 0.746094 1.269531 3.503906 0.996094 8.835938 L 0.996094 29.84375 C 0.996094 33.210938 4.601563 37.542969 10.71875 37.648438 Z M 5.980469 11.621094 C 5.992188 6.390625 6.6875 5.410156 10.988281 5.410156 L 26.292969 5.410156 C 32.882813 5.539063 32.769531 6.128906 32.710938 11.753906 L 32.710938 32.765625 L 10.710938 32.765625 C 7.832031 32.773438 5.992188 30.804688 5.980469 27.738281 L 5.980469 11.621094 "/>
</g>
</svg>
