<?xml version="1.0" encoding="UTF-8"?>
<svg xmlns="http://www.w3.org/2000/svg" xmlns:xlink="http://www.w3.org/1999/xlink" width="562pt" height="212pt" viewBox="0 0 562 212" version="1.1">
<g id="surface1">
<path style=" stroke:none;fill-rule:nonzero;fill:rgb(0%,0%,0%);fill-opacity:1;" d="M 274.089844 145.066406 C 275.484375 143.398438 277.15625 141.625 278.507813 139.6875 C 284.683594 130.835938 279.804688 122.859375 263.851563 123.503906 C 243.230469 124.339844 226.261719 136.933594 206.9375 141.957031 C 205.214844 139.054688 203.921875 136.09375 201.386719 133.078125 C 234.292969 122.226563 234.964844 76.710938 222.144531 54.046875 C 187.867188 -4.683594 116.234375 -4.847656 86.886719 5.339844 C 42.667969 20.683594 12.566406 53.589844 3.550781 88.867188 C -7.394531 131.6875 14.402344 188.253906 68.5 200.296875 C 81.597656 203.210938 94.65625 203.175781 105.761719 201.566406 C 120.757813 199.394531 111.851563 183.785156 99.390625 187.714844 C 66.257813 198.15625 37.777344 183.316406 23.140625 163.382813 C 4.449219 137.929688 -1.851563 80.519531 46.023438 43.527344 C 79.289063 17.828125 130.558594 11.78125 171.304688 34.710938 C 207.980469 55.351563 235.210938 106.914063 192.617188 122.308594 C 177.101563 104.140625 158.433594 88.410156 138.851563 75.703125 C 136.097656 73.917969 129.429688 72.753906 136.671875 78.023438 C 130.902344 77.800781 125.019531 75.023438 119.910156 72.359375 C 111.765625 69.304688 109.300781 73.121094 115.492188 76.152344 C 140.109375 88.203125 163.554688 104.082031 184.625 123.976563 C 182.070313 124.753906 179.128906 125.363281 176.632813 125.085938 C 166.863281 115.207031 155.652344 106.769531 143.445313 100.332031 C 139.355469 102.550781 135.695313 100.265625 131.960938 98.347656 C 125.371094 94.964844 124.863281 99.074219 130.039063 102.230469 C 142.425781 109.785156 155.769531 115.507813 166.644531 125.972656 C 156.574219 127.632813 157.375 126.550781 148.558594 124.238281 C 127.308594 118.664063 113.890625 116.1875 103.773438 118.835938 C 80.113281 125.027344 85.0625 157.460938 101.089844 168.050781 C 132.265625 188.652344 168.425781 172.5 200.164063 161.492188 C 205.550781 168.132813 209.355469 175.519531 212.441406 183.152344 C 214.101563 187.257813 215.660156 186.460938 214.707031 181.777344 C 213.910156 177.847656 208.175781 163.660156 205.824219 158.71875 C 208.175781 157.921875 210.296875 157.253906 210.210938 157.183594 C 218.207031 169.667969 227.652344 188.652344 229.621094 207.15625 C 230.335938 213.847656 232.9375 212.984375 232.34375 206.027344 C 231.207031 192.746094 225.933594 175.867188 215.816406 154.722656 C 231.230469 148.320313 246.28125 139.945313 262.808594 136.367188 C 270.886719 134.621094 277.355469 136.09375 272.289063 142.503906 C 269.109375 146.523438 258.320313 157.082031 237.027344 159.527344 C 231.457031 160.164063 232.160156 162.996094 237.21875 163.109375 C 261.214844 163.644531 465.882813 163.003906 561.894531 162.179688 L 561.894531 144.972656 Z M 107.769531 158.9375 C 86.320313 150.667969 92.246094 124.867188 106.652344 121.671875 C 131.78125 116.101563 152.910156 137 178.964844 136.296875 C 183.183594 140.847656 186.84375 143.511719 190.175781 148.285156 C 166.382813 157.347656 133.835938 168.980469 107.769531 158.9375 Z M 196.613281 145.953125 L 188.175781 136.296875 C 190.230469 135.539063 192.265625 135.351563 192.953125 134.816406 C 196.148438 137.203125 198.652344 141.144531 201.386719 143.957031 C 200.164063 144.84375 198.277344 145.398438 196.613281 145.953125 "/>
</g>
</svg>
