<?xml version="1.0" encoding="UTF-8"?>
<svg xmlns="http://www.w3.org/2000/svg" xmlns:xlink="http://www.w3.org/1999/xlink" width="517pt" height="100pt" viewBox="0 0 517 100" version="1.1">
<g id="surface1">
<path style=" stroke:none;fill-rule:nonzero;fill:rgb(0%,0%,0%);fill-opacity:1;" d="M 516.203125 85.355469 C 512.648438 85.355469 430.296875 85.453125 417.722656 85.429688 C 398.257813 29.949219 309.039063 32.476563 287.9375 85.355469 C 281.4375 85.355469 273.96875 85.355469 267.621094 85.355469 C 281.136719 58.328125 323.039063 40.644531 358.765625 38.226563 C 364.277344 37.855469 365.035156 36.078125 359.414063 33.753906 C 339.839844 25.664063 314.089844 23.5 288.929688 33.253906 C 284.164063 21.460938 274.015625 9.167969 262.265625 2.035156 C 258.175781 -0.445313 258.363281 -0.574219 254.234375 1.933594 C 242.484375 9.066406 232.335938 21.359375 227.570313 33.15625 C 202.410156 23.402344 176.660156 25.566406 157.085938 33.65625 C 151.464844 35.976563 152.222656 37.753906 157.734375 38.128906 C 193.460938 40.546875 235.363281 58.230469 248.878906 85.257813 C 242.53125 85.257813 235.0625 85.257813 228.5625 85.257813 C 207.464844 32.378906 118.242188 29.851563 98.777344 85.332031 C 86.203125 85.355469 3.851563 85.257813 0.296875 85.257813 C 0.210938 87.542969 0.183594 97.78125 0.269531 99.476563 C 8.210938 99.476563 508.289063 99.574219 516.230469 99.574219 C 516.316406 97.882813 516.289063 87.640625 516.203125 85.355469 "/>
</g>
</svg>
