<?xml version="1.0" encoding="UTF-8"?>
<svg xmlns="http://www.w3.org/2000/svg" xmlns:xlink="http://www.w3.org/1999/xlink" width="534pt" height="681pt" viewBox="0 0 534 681" version="1.1">
<g id="surface1">
<path style=" stroke:none;fill-rule:nonzero;fill:rgb(0%,0%,0%);fill-opacity:1;" d="M 533.753906 48.769531 C 525.4375 45.8125 516.566406 44.335938 509.171875 39.527344 C 512.5 34.167969 512.5 27.144531 515.085938 21.601563 C 492.910156 22.339844 473.6875 31.394531 455.207031 41.5625 L 449.847656 37.496094 C 453.175781 35 457.332031 32.714844 459.90625 29.308594 C 469.164063 17.054688 457.242188 9.007813 449.324219 8.382813 C 440.246094 7.664063 430.046875 10.269531 431.367188 17.535156 C 439.898438 10.601563 448.691406 18.417969 446.796875 22.742188 C 445.621094 25.429688 443.023438 27.863281 439.3125 28.253906 C 414.363281 21.785156 384.238281 18.460938 363.355469 36.203125 C 360.949219 33.613281 360.210938 30.289063 358.734375 27.515625 C 351.15625 30.84375 343.578125 34.722656 337.480469 41.5625 C 334.894531 36.015625 334.707031 29.546875 332.859375 23.449219 C 330.828125 23.632813 323.488281 25.484375 322.214844 24.355469 C 318.429688 21 318.253906 12.164063 315.488281 8.296875 C 304.953125 24.003906 288.320313 13.285156 273.535156 13.46875 C 273.535156 13.46875 278.390625 35.417969 278.371094 36.171875 C 278.265625 40.152344 271.15625 40.007813 268.359375 41.5625 C 270.023438 42.484375 270.023438 44.148438 270.945313 45.441406 C 264.847656 45.074219 258.378906 40.636719 252.28125 38.234375 C 254.128906 25.667969 258.5625 13.46875 257.640625 0.902344 C 245.070313 1.824219 221.527344 12.203125 220.5 12.175781 C 213.304688 11.96875 206.816406 2.105469 199.054688 0.164063 C 195.171875 6.816406 193.324219 14.578125 189.074219 20.121094 C 185.378906 18.644531 181.3125 15.132813 178.539063 14.949219 C 172.625 28.992188 174.472656 46.183594 173.179688 62.074219 C 163.753906 60.226563 153.589844 60.597656 145.273438 56.714844 C 148.042969 50.617188 152.109375 44.148438 150.445313 36.757813 C 147.035156 19.695313 120.40625 23.691406 116.625 36.757813 C 122.488281 33.441406 137.007813 30.808594 139.910156 39.527344 C 141.835938 44.582031 138.617188 56.4375 131.957031 60.066406 C 126.050781 63.28125 117.890625 62.761719 112.003906 64.109375 C 111.820313 57.824219 109.789063 52.097656 108.679688 46.183594 C 98.328125 49.878906 89.457031 57.085938 80.03125 62.816406 L 78.738281 56.714844 C 85.023438 45.074219 93.339844 33.984375 94.632813 20.121094 C 94.632813 20.121094 84.503906 21.402344 82.800781 20.882813 C 75.859375 18.757813 79.128906 5.355469 73.933594 0.902344 L 58.777344 10.882813 C 49.167969 7.371094 39.925781 3.488281 29.394531 2.195313 L 31.425781 23.449219 L 15.53125 36.203125 C 21.445313 39.898438 27.730469 44.886719 32.71875 49.507813 C 31.425781 54.496094 26.988281 58.75 26.804688 63.371094 C 36.230469 65.585938 45.472656 64.664063 53.972656 66.695313 L 53.417969 86.65625 L 40.667969 85.363281 C 41.222656 91.460938 49.722656 115.117188 50.09375 121.402344 C 40.851563 121.957031 30.503906 124.175781 26.804688 133.230469 C 24.117188 140.957031 28.28125 154.191406 36.785156 153.191406 C 36.785156 153.191406 28.539063 142.679688 35.492188 135.261719 C 53 115.128906 77 158.929688 75.964844 169.269531 C 59.066406 165.675781 45.472656 175.921875 45.472656 191.261719 C 51.59375 214.222656 69.023438 213.742188 73.933594 211.222656 C 64.816406 208.882813 61.734375 206.785156 57.300781 200.503906 C 47.855469 178.183594 74.1875 170.894531 87.085938 190.058594 C 95.664063 202.8125 94.214844 224.667969 83.359375 235.0625 L 68.757813 224.527344 C 60.257813 231.367188 59.703125 241.160156 53.972656 249.109375 C 48.984375 248.925781 44.730469 246.890625 40.113281 245.78125 C 38.265625 266.851563 46.582031 283.667969 58.777344 299.007813 C 56.375 308.988281 54.710938 330.980469 54.710938 330.980469 C 47.320313 320.816406 36.96875 318.414063 29.394531 308.988281 C 22.480469 300.625 28.273438 291.726563 46.027344 292.910156 C 35.941406 279.941406 25.773438 277.265625 16.425781 286.820313 C 11.261719 292.097656 9.253906 300.703125 19.414063 312.316406 C 31.609375 325.808594 52.125 335.601563 56.007813 352.789063 C 43.625 346.320313 28.46875 340.039063 13.5 345.582031 C 13.683594 349.277344 15.53125 352.234375 16.824219 355.5625 C 12.699219 361.539063 5.550781 367.207031 0.746094 373.488281 L 11.464844 379.402344 C 8.878906 387.71875 8.140625 396.222656 6.84375 404.722656 L 27.359375 396.777344 C 30.6875 399.179688 31.425781 402.691406 33.460938 405.460938 C 33.460938 405.460938 46.03125 398.636719 49.203125 392.109375 C 52.253906 391.9375 54.988281 396.546875 58.039063 397.515625 C 62.84375 387.71875 59.886719 373.488281 60.625 362.769531 C 60.625 362.769531 73.515625 372.578125 77.261719 401.394531 C 75.597656 406.570313 64.207031 407.335938 63.464844 406.734375 C 61.238281 404.941406 58.363281 403.800781 56.007813 402.136719 C 52.679688 406.203125 40.113281 421.355469 40.113281 421.355469 C 38.449219 420.0625 31.054688 416.921875 28.839844 417.476563 C 33.273438 424.3125 28.652344 435.03125 30.132813 443.351563 C 29.394531 457.578125 38.632813 468.300781 42.144531 479.941406 C 36.71875 475.722656 25.765625 473.980469 16.824219 480.683594 C 8.496094 487.132813 7.371094 506 20.707031 506.554688 C 9.433594 493.59375 18.117188 480.378906 31.425781 484.007813 C 42.699219 488.445313 50.460938 501.011719 51.386719 511.914063 L 37.339844 506.554688 L 36.785156 523.191406 C 27.730469 522.636719 18.859375 524.113281 10.726563 524.484375 C 14.238281 528.363281 17.195313 532.429688 18.859375 537.234375 L 2.78125 552.390625 C 8.324219 557.011719 14.421875 559.597656 20.152344 563.847656 L 19.414063 577.710938 C 29.394531 579.742188 49.539063 563.847656 49.351563 583.808594 C 44.730469 586.765625 41.035156 592.679688 36.046875 595.082031 L 16.824219 586.398438 C 10.171875 603.953125 8.507813 628.535156 20.152344 644.242188 C 12.757813 655.886719 5.921875 667.714844 2.226563 680.835938 L 19.414063 680.835938 C 21.628906 672.519531 23.847656 664.203125 28.097656 656.996094 C 44.917969 666.792969 62.289063 676.402344 83.359375 674.183594 C 81.878906 668.453125 78.183594 662.726563 78.738281 656.996094 C 90.195313 650.527344 103.132813 646.09375 113.300781 637.589844 C 109.417969 632.96875 104.980469 628.71875 102.023438 623.730469 C 107.386719 613.933594 112.746094 604.507813 115.332031 593.789063 C 104.242188 591.203125 92.597656 590.648438 81.328125 588.984375 C 83.914063 568.46875 83.175781 552.207031 78.738281 532.429688 C 77.261719 524.851563 73.378906 518.570313 72.640625 510.621094 C 78.894531 495.335938 100.222656 499.085938 99.253906 525.222656 C 103.503906 518.9375 106.460938 510.4375 103.320313 502.492188 C 99.628906 493.4375 79.292969 482.535156 65.984375 505.261719 C 61.734375 500.089844 60.257813 493.988281 59.332031 487.335938 C 71.5625 487.714844 102.082031 480.109375 104.613281 471.257813 C 101.839844 469.222656 98.515625 467.746094 95.925781 464.605469 C 102.949219 456.839844 107.015625 447.785156 112.558594 439.285156 C 107.753906 437.804688 102.394531 437.25 97.960938 434.664063 L 99.253906 402.691406 C 94.449219 402.136719 88.347656 404.355469 84.652344 400.84375 C 83.726563 374.96875 64.507813 354.453125 70.605469 328.210938 C 77.984375 311.242188 91.09375 313.238281 95.925781 323.589844 C 98.328125 331.90625 92.230469 338.558594 89.273438 345.582031 C 107.726563 342.742188 113.289063 320.644531 99.992188 307.695313 L 115.332031 296.976563 L 106.644531 286.257813 L 123.277344 272.394531 L 111.265625 261.675781 C 115.332031 251.882813 116.8125 240.792969 117.917969 229.703125 L 99.992188 229.703125 C 101.257813 222.59375 102.386719 213.453125 101.761719 206.449219 C 100.710938 194.636719 95.332031 183.863281 97.601563 173.285156 C 101.09375 157.035156 117.433594 152.007813 125.867188 173.890625 C 128.085938 168.714844 124.941406 164.09375 123.835938 159.289063 C 114.222656 140.066406 90.78125 150.246094 83.914063 155.222656 L 84.652344 143.949219 C 101.839844 136.003906 119.214844 128.792969 133.8125 114.746094 C 128.453125 112.714844 122.726563 110.683594 117.179688 108.648438 L 131.964844 82.773438 C 127.160156 80.1875 121.617188 78.894531 117.917969 75.382813 C 149.46875 59.609375 182.425781 71.273438 180.386719 93.308594 C 178.90625 106.617188 164.121094 103.289063 155.804688 105.324219 C 172.039063 114.824219 198.234375 111.914063 197.757813 80.742188 C 240.582031 121.570313 293.339844 110.800781 322.140625 84.070313 C 330.273438 97.929688 343.949219 115.855469 360.027344 118.074219 C 362.246094 92.941406 383.867188 115.855469 397.359375 108.648438 L 388.671875 92.015625 C 395.984375 85.921875 405.265625 82.617188 415.429688 84.417969 C 438.015625 88.414063 444.785156 60.511719 447.554688 47.28125 C 447.6875 46.652344 451.878906 47.84375 451.878906 50.800781 C 446.152344 65.402344 443.378906 80.558594 446.519531 97.375 C 452.988281 95.34375 459.457031 93.308594 465.925781 91.460938 L 479.234375 116.597656 L 495.867188 99.964844 L 528.394531 106.617188 C 525.253906 92.570313 521.1875 78.710938 519.152344 64.109375 Z M 53.417969 384.761719 C 52.515625 386.753906 50.070313 385.378906 45.472656 383.46875 L 36.785156 395.480469 L 29.394531 386.796875 C 23.847656 390.308594 19.226563 396.035156 12.757813 397.515625 C 12.207031 388.089844 29.394531 372.75 10.726563 369.421875 L 24.773438 359.445313 L 20.152344 350.941406 C 45.859375 343.230469 59.636719 360.933594 53.417969 384.761719 Z M 102.578125 600.441406 C 102.023438 610.792969 91.121094 619.847656 85.390625 629.644531 C 90.195313 632.230469 95.371094 633.894531 99.992188 637.035156 C 90.382813 643.875 78.738281 649.417969 65.429688 648.863281 C 65.429688 654.410156 70.421875 659.582031 71.347656 665.496094 C 33.019531 659.109375 12.261719 632.882813 18.859375 595.636719 C 26.25 595.636719 32.535156 602.289063 39.371094 605.617188 C 43.808594 598.222656 50.460938 591.570313 58.039063 587.136719 L 65.429688 600.441406 C 77.261719 599.332031 91.859375 596.375 102.578125 600.441406 Z M 73.378906 558.488281 C 73.75 568.101563 75.410156 579.558594 72.085938 588.429688 C 67.464844 586.953125 67.09375 581.222656 64.691406 577.710938 C 64.691406 570.132813 70.421875 564.957031 73.378906 558.488281 Z M 56.007813 572.351563 C 50.09375 554.054688 36.96875 570.6875 26.804688 571.058594 C 32.535156 559.042969 18.859375 558.121094 12.207031 552.390625 C 9.0625 547.769531 24.402344 538.714844 26.066406 535.757813 L 21.445313 528.550781 C 28.839844 527.070313 36.414063 528.363281 43.4375 529.84375 C 42.882813 524.851563 44.546875 517.460938 42.144531 512.472656 C 61.445313 521.046875 71.40625 538.34375 56.007813 572.351563 Z M 89.273438 410.820313 C 93.152344 418.398438 90.75 429.671875 88.71875 437.988281 L 99.992188 443.351563 C 96.664063 451.480469 88.71875 454.808594 82.621094 461.277344 L 92.597656 471.996094 C 80.160156 480.484375 64.890625 484.042969 51.695313 473.277344 C 29.460938 455.140625 35.492188 423.390625 35.492188 423.390625 C 38.820313 425.238281 41.777344 427.640625 45.472656 428.75 L 55.453125 410.082031 C 58.160156 414.660156 60.078125 415.699219 63.640625 420.175781 C 71.050781 420.09375 81.933594 410.703125 89.273438 410.820313 Z M 68.019531 321.558594 L 68.019531 306.957031 C 70.421875 308.066406 72.230469 307.960938 75.410156 310.28125 Z M 111.265625 239.683594 L 102.023438 268.328125 L 109.234375 271.101563 C 106.460938 277.199219 97.960938 282.007813 92.046875 286.257813 C 96.109375 290.878906 101.285156 293.28125 105.351563 298.269531 C 86.203125 308.605469 49.546875 298.46875 48.058594 257.796875 C 52.496094 258.351563 56.929688 259.089844 61.367188 259.644531 C 61.550781 250.773438 65.429688 241.53125 70.605469 233.769531 L 83.914063 247.074219 C 92.597656 243.5625 101.285156 240.238281 111.265625 239.683594 Z M 36.046875 56.714844 L 43.992188 42.117188 L 28.839844 36.203125 L 42.699219 26.222656 L 38.078125 10.882813 C 46.394531 11.804688 52.863281 16.796875 60.625 18.828125 C 63.03125 16.242188 65.617188 14.210938 68.757813 12.914063 C 71.53125 16.980469 72.867188 27.914063 73.261719 28.042969 C 77.367188 29.363281 81.796875 25.714844 86.683594 26.222656 C 84.46875 36.386719 78.554688 44.886719 71.347656 52.835938 C 60.441406 56.160156 48.796875 57.453125 36.046875 56.714844 Z M 119.953125 86.65625 C 117.179688 95.710938 110.15625 103.105469 103.871094 110.683594 C 107.753906 113.640625 113.300781 115.671875 118.660156 116.597656 C 106.644531 128.238281 90.9375 134.339844 73.933594 135.261719 C 60.625 126.390625 52.496094 110.496094 48.796875 95.34375 C 53.519531 93.488281 56.957031 94.757813 61.574219 94.121094 C 61.941406 93.902344 62.660156 68.175781 62.660156 68.175781 C 68.203125 71.316406 73.378906 75.199219 79.292969 77.414063 C 85.390625 68.175781 93.707031 62.628906 102.578125 56.714844 L 103.320313 83.328125 Z M 183.714844 64.109375 C 180.570313 52.28125 177.613281 36.386719 186.484375 26.222656 L 192.398438 32.875 C 197.203125 26.777344 199.238281 18.273438 202.378906 10.882813 C 207.425781 13.027344 212.46875 19.851563 217.765625 22.585938 C 221.589844 24.5625 240.820313 12.359375 247.660156 12.175781 C 246.734375 21.785156 247.660156 32.503906 241.746094 40.082031 C 247.660156 43.410156 254.128906 45.257813 260.226563 48.214844 C 252.09375 54.128906 241.929688 58.195313 231.765625 60.042969 L 241.007813 70.023438 C 225.480469 74.089844 200.347656 72.054688 183.714844 64.109375 Z M 270.207031 98.667969 C 274.273438 90.722656 279.261719 82.222656 276.304688 72.054688 C 274.050781 65.9375 263.035156 61.214844 258.933594 64.109375 C 263.40625 68.101563 278.507813 84.078125 259.671875 96.636719 C 242.484375 102.734375 228.253906 92.386719 216.980469 81.480469 C 226.773438 80.925781 240.636719 79.265625 251.726563 76.121094 C 251.355469 71.871094 248.398438 67.25 246.921875 62.816406 C 255.421875 58.5625 264.664063 55.792969 271.6875 48.214844 C 276.492188 55.976563 289.613281 63.371094 282.960938 74.828125 C 293.679688 77.230469 302.921875 75.9375 313.453125 74.828125 C 303.289063 89.796875 287.578125 97.746094 270.207031 98.667969 Z M 318.003906 62.363281 C 315.710938 64.511719 292.9375 67.4375 292.9375 67.4375 L 292.9375 54.867188 C 289.613281 52.28125 282.589844 51.171875 282.960938 47.476563 L 289.613281 40.082031 C 285.914063 34.539063 283.882813 28.253906 282.960938 21.601563 C 289.464844 18.414063 296.757813 28.246094 303.085938 28.214844 C 305.925781 28.203125 311.671875 20.613281 312.019531 20.925781 C 315.855469 24.382813 318.761719 39.5625 319.863281 39.871094 C 321.597656 40.367188 324.191406 39.429688 328.238281 36.203125 C 325.792969 44.222656 324.378906 56.394531 318.003906 62.363281 Z M 378.695313 88.136719 L 384.792969 101.996094 C 376.476563 101.257813 368.714844 98.484375 360.765625 96.636719 C 358.179688 99.777344 359.84375 104.582031 358.734375 108.09375 C 343.949219 102.179688 336.1875 86.472656 330.085938 73.351563 C 333.230469 59.304688 343.210938 45.074219 356.144531 38.234375 C 356.886719 42.300781 356.886719 46.921875 358.734375 50.800781 C 367.972656 48.03125 378.324219 48.03125 388.671875 48.214844 C 387.378906 53.574219 383.683594 59.859375 380.726563 65.402344 C 384.976563 70.207031 391.632813 71.871094 396.621094 76.675781 C 391.074219 81.296875 384.421875 83.515625 378.695313 88.136719 Z M 435.984375 62.074219 C 433.15625 73.042969 419.183594 75.964844 410.664063 71.503906 C 404.753906 68.359375 407.894531 60.78125 408.078125 56.160156 C 408.078125 56.160156 398.839844 58.378906 396.066406 62.816406 C 389.78125 62.261719 398.097656 43.410156 398.097656 43.410156 C 390.707031 40.082031 383.3125 42.300781 376.105469 38.789063 C 392.183594 21.351563 442.542969 29.941406 435.984375 62.074219 Z M 518.414063 96.082031 C 509.726563 94.972656 501.597656 92.941406 493.835938 89.984375 L 481.265625 104.769531 C 476.089844 96.265625 472.765625 86.839844 468.515625 78.15625 L 451.878906 88.136719 C 455.234375 73.121094 454.675781 52.59375 466.894531 42.769531 C 470.167969 40.140625 494.574219 33.058594 502.519531 32.136719 L 500.488281 49.507813 C 505.660156 51.910156 512.5 50.246094 518.414063 50.800781 L 511.207031 65.402344 C 513.238281 75.753906 517.675781 85.179688 518.414063 96.082031 "/>
</g>
</svg>
