<?xml version="1.0" encoding="UTF-8"?>
<svg xmlns="http://www.w3.org/2000/svg" xmlns:xlink="http://www.w3.org/1999/xlink" width="551pt" height="681pt" viewBox="0 0 551 681" version="1.1">
<g id="surface1">
<path style=" stroke:none;fill-rule:nonzero;fill:rgb(0%,0%,0%);fill-opacity:1;" d="M 468.828125 643.628906 C 494.710938 633.582031 528.71875 648.675781 550.40625 624.019531 C 550.40625 624.019531 536.730469 628.800781 518.289063 627.296875 C 498.375 625.675781 476.550781 625.152344 458.878906 634.042969 C 451.042969 637.988281 436.519531 652.15625 436.519531 652.15625 C 437.519531 645.496094 441.515625 639.667969 442.511719 633.007813 C 447.339844 622.351563 439.515625 606.535156 451.503906 598.878906 C 466.65625 584.226563 462.160156 561.582031 464.65625 541.933594 C 470.8125 534.960938 479.667969 532.609375 489.300781 540.101563 C 489.300781 547.429688 493.796875 553.589844 494.628906 559.914063 C 495.625 575.734375 489.300781 588.554688 483.804688 601.875 C 489.796875 598.378906 495.625 592.714844 500.121094 587.390625 C 508.226563 602.441406 524.796875 622.671875 543.246094 617.359375 C 552.570313 600.542969 544.242188 580.894531 536.585938 565.910156 C 539.914063 563.746094 543.578125 563.078125 546.242188 559.25 C 530.089844 561.214844 520.453125 549.203125 511.238281 538.199219 C 502.761719 528.078125 481.339844 519.617188 462.824219 533.441406 C 463.800781 526.742188 467.878906 523.847656 472.945313 521.957031 C 496.578125 519.175781 497.039063 507.703125 499.453125 496.3125 C 480.808594 496.144531 465.988281 510.132813 457.496094 525.117188 C 451.671875 515.128906 440.515625 509.964844 431.691406 507.636719 C 452.773438 525.34375 465.179688 573.691406 446.175781 595.214844 C 449.171875 561.082031 438.683594 529.613281 422.699219 501.640625 C 422.699219 501.640625 452.957031 457.039063 410.210938 423.21875 C 419.535156 439.371094 425.195313 462.347656 416.703125 480.660156 C 404.371094 462.703125 385.042969 403.234375 416.703125 382.425781 C 423.363281 384.757813 429.027344 389.253906 435.851563 390.753906 C 441.679688 407.234375 426.527344 419.058594 424.53125 430.378906 C 430.523438 427.546875 436.019531 422.054688 440.679688 417.226563 C 440.679688 417.226563 460.441406 434.421875 468.191406 455.039063 C 472.273438 465.894531 473.148438 478.039063 476.644531 489.152344 C 485.636719 482.328125 489.464844 472.835938 495.292969 465.175781 C 501.785156 468.175781 510.777344 469.339844 517.4375 468.675781 L 518.105469 449.527344 C 527.59375 446.03125 538.25 445.03125 546.742188 438.703125 C 514.773438 424.550781 505.449219 388.089844 475.480469 369.773438 C 483.972656 366.777344 493.628906 359.617188 497.125 350.625 C 486.800781 355.785156 476.8125 363.277344 464.65625 362.113281 C 471.152344 351.789063 474.648438 337.804688 473.148438 326.648438 C 473.148438 326.648438 468.042969 359.679688 438.347656 364.453125 C 428.839844 365.984375 406.011719 378.21875 395.726563 391.417969 C 397.148438 365.816406 414.828125 329.273438 428.359375 322.421875 C 442.921875 315.050781 449.722656 331.484375 447.839844 349.460938 C 459.703125 330.296875 451.074219 317.855469 435.351563 311.664063 C 435.351563 311.664063 443.792969 303.792969 446.960938 302.179688 C 472.828125 289.003906 493.117188 333.835938 521.601563 323.152344 C 507.113281 318.988281 499.121094 302.839844 486.800781 293.183594 C 476.8125 285.523438 460.496094 286.023438 450.339844 291.351563 C 462.105469 262.269531 465.324219 235.242188 466.488281 217.59375 C 486.945313 192.019531 518.875 221.121094 507.996094 248.652344 C 504.574219 257.320313 497.441406 265.039063 493.460938 272.703125 C 516.605469 260.984375 529.472656 240.582031 525.753906 222.308594 C 520.835938 198.160156 500.722656 191.945313 467.652344 196.613281 C 479.144531 179.796875 498.789063 176.964844 512.609375 164.8125 C 539.894531 136.496094 506.472656 111.019531 496.460938 106.703125 C 508.410156 120.019531 520.296875 139.9375 504.371094 156.480469 C 492.457031 168.855469 469.539063 174.59375 458.664063 189.453125 C 457.664063 184.957031 441.371094 158.148438 445.117188 149.910156 C 453.039063 132.496094 493.082031 128.394531 489.796875 160.648438 C 515.648438 129.628906 463.792969 102.332031 437.183594 142 C 437.183594 142 426.105469 101.023438 446.523438 84.164063 C 452.714844 82.234375 462.113281 81.648438 465.824219 73.734375 C 474.980469 83.558594 471.484375 99.210938 468.820313 110.863281 C 480.144531 98.871094 483.558594 93.570313 476.644531 69.574219 C 487.46875 69.574219 496.125 75.734375 503.617188 82.0625 C 503.617188 82.0625 503.324219 65.074219 488.132813 59.914063 C 494.128906 55.421875 499.953125 50.257813 505.449219 44.433594 C 513.773438 35.109375 515.105469 19.957031 510.777344 8.46875 C 494.128906 1.640625 465.378906 16.015625 449.671875 40.769531 C 445.011719 32.777344 446.507813 22.453125 443.679688 13.796875 C 438.683594 26.617188 437.683594 42.101563 444.34375 54.589844 C 442.179688 58.585938 438.796875 72.265625 440.707031 78.046875 C 432 88.023438 423.246094 108.339844 426.859375 142.667969 C 417.371094 131.679688 408.546875 121.6875 397.558594 111.53125 C 395.226563 105.371094 392.730469 99.378906 388.566406 94.050781 C 397.890625 89.71875 410.046875 88.054688 418.535156 86.390625 C 408.214844 80.730469 380.242188 81.5625 380.242188 81.5625 C 382.90625 70.074219 391.230469 59.417969 401.71875 52.757813 C 390.230469 54.753906 379.574219 58.75 371.25 68.40625 C 359.261719 51.925781 339.78125 50.925781 324.464844 41.933594 C 317.304688 32.109375 316.304688 19.121094 313.640625 7.800781 C 303.484375 17.625 299.488281 29.78125 293.828125 41.433594 C 284.503906 37.4375 273.847656 34.441406 265.023438 32.445313 C 267.355469 43.101563 277.675781 65.410156 277.675781 65.410156 C 269.6875 69.90625 261.691406 73.734375 254.367188 79.730469 C 245.210938 80.5625 235.554688 78.898438 227.894531 74.402344 C 206.035156 58.105469 199.175781 33.496094 241.714844 19.121094 C 241.714844 19.121094 233.152344 13.546875 223.304688 13.964844 C 210.589844 14.507813 187.683594 32.613281 201.0625 60.265625 C 207.15625 72.863281 220.363281 81.632813 232.722656 86.890625 C 226.730469 90.054688 220.402344 92.550781 214.738281 96.546875 C 203.585938 91.050781 190.265625 84.558594 184.769531 71.902344 C 189.933594 68.574219 194.484375 68.519531 200.921875 70.074219 C 200.921875 70.074219 195.558594 62.8125 181.339844 61.714844 C 181.8125 58.453125 178.691406 55.375 174.832031 53.644531 C 174.359375 52.109375 174.515625 50.410156 174.871094 48.609375 C 177.871094 33.496094 174.828125 15.472656 155.464844 7.136719 C 155.464844 7.136719 138.980469 35.355469 160.128906 58.085938 C 159.464844 62.578125 161.292969 66.078125 163.125 69.574219 C 163.125 69.574219 149.539063 81.140625 163.125 92.382813 C 163.125 92.382813 162.183594 73.265625 173.949219 76.066406 C 182.605469 85.058594 191.597656 93.550781 200.921875 101.375 C 176.699219 109.851563 138.804688 103.3125 123.664063 94.714844 C 133.65625 94.382813 144.8125 93.214844 154.800781 91.050781 C 146.476563 84.726563 134.152344 86.222656 124.164063 85.058594 C 131.65625 78.230469 142.3125 74.402344 149.472656 70.738281 C 137.816406 66.574219 124.828125 69.90625 115.839844 77.398438 C 106.015625 77.730469 112.066406 62.414063 106.183594 58.085938 C 86.535156 43.933594 65.390625 24.949219 63.058594 0.640625 C 56.566406 7.636719 51.402344 15.292969 47.574219 23.453125 L 22.265625 23.453125 L 28.925781 44.929688 C 19.4375 48.261719 9.613281 51.257813 3.117188 60.582031 C 18.496094 62.261719 26.019531 62.933594 33.59375 70.964844 C 49.027344 87.34375 67.027344 99.667969 89.53125 95.382813 C 92.53125 100.042969 97.191406 103.039063 102.019531 104.871094 C 97.359375 118.523438 106.015625 136.671875 101.519531 149.328125 C 101.519531 149.328125 111.746094 138.398438 113.882813 130.289063 C 116.234375 121.371094 113.894531 110.5625 117.003906 101.875 C 139.980469 109.53125 164.957031 117.027344 190.097656 113.863281 C 164.289063 134.007813 135.820313 148.160156 103.1875 152.324219 C 55.292969 156.855469 13.835938 151.40625 12.316406 118.230469 C 11.230469 94.542969 46.585938 88.628906 46.90625 113.519531 C 46.996094 120.488281 44.09375 127.714844 41.582031 132.511719 C 41.582031 132.511719 52.609375 127.476563 57.359375 118.488281 C 67.371094 99.542969 39.0625 70.121094 12.109375 90.453125 C -11.03125 107.910156 -5.46875 168.695313 79.289063 164.519531 C 110.410156 162.984375 152.53125 148.894531 177.296875 132.601563 C 198.6875 118.53125 218.621094 100.894531 243.546875 95.382813 C 253.238281 93.585938 261.195313 93.382813 267.519531 96.546875 C 246.210938 102.707031 242.378906 126.128906 227.894531 140.835938 C 205.933594 161.445313 186.933594 161.148438 164.957031 154.65625 C 178.109375 165.476563 194.09375 171.304688 212.410156 167.808594 C 233.035156 163.109375 242.378906 144.832031 253.035156 130.679688 C 249.753906 141.554688 256.035156 155.632813 267.582031 160.46875 C 279.722656 165.554688 296.699219 162.929688 303.984375 148.660156 C 299.066406 152.964844 283.207031 160.625 268.910156 146.695313 C 261.425781 139.402344 260.796875 128.726563 264.523438 121.6875 C 266.855469 114.859375 273.847656 105.203125 281.339844 104.871094 C 280.175781 114.695313 282.171875 123.1875 287.835938 130.011719 C 292.679688 122.09375 306.039063 112.707031 308.640625 111.570313 C 323.886719 104.917969 340.691406 117.871094 356.765625 115.027344 C 357.765625 125.019531 363.09375 136.507813 372.414063 139.671875 C 368.753906 131.84375 364.257813 122.851563 366.921875 113.863281 C 372.914063 119.023438 383.238281 119.191406 390.398438 116.359375 C 398.722656 123.351563 407.214844 130.179688 411.878906 139.003906 C 395.894531 139.171875 388.269531 153.101563 369.917969 154.65625 C 359.261719 155.152344 350.269531 150.492188 342.945313 142.667969 C 342.945313 142.667969 342.296875 161.8125 363.425781 168.972656 C 359.761719 193.617188 374.246094 213.261719 389.730469 229.578125 C 377.613281 233.207031 377.246094 252.222656 378.410156 258.382813 C 381.738281 250.390625 387.566406 240.902344 396.390625 237.90625 C 406.546875 233.242188 410.210938 249.558594 420.367188 244.566406 C 441.160156 258.660156 444.972656 285.746094 431.191406 300.84375 C 428.320313 274.691406 417.777344 260.628906 390.917969 267.785156 C 371.441406 272.972656 368.546875 311.9375 392.230469 309.832031 C 381.394531 298.484375 384.796875 280.421875 395.945313 277.519531 C 405.371094 275.066406 417.152344 278.527344 420.867188 293.183594 C 425.253906 317.0625 407.402344 334.316406 403.046875 340.886719 C 384.355469 369.085938 382.898438 407.652344 391.265625 440.933594 C 394.851563 455.207031 406.328125 474.128906 410.710938 494.480469 C 396.390625 486.324219 389.730469 471.671875 386.234375 457.351563 C 385.078125 479.347656 395.617188 498.699219 412.382813 512.242188 C 421.152344 519.324219 422.746094 520.554688 427.683594 530.355469 C 435.019531 544.921875 438.84375 561.011719 437.683594 578.398438 C 425.363281 559.914063 395.058594 546.597656 401.71875 520.953125 C 392.429688 535.132813 395.097656 555.664063 414.160156 572.960938 C 425.53125 583.277344 430.957031 583.640625 435.589844 597.824219 C 445.257813 627.417969 421.742188 654.355469 408.378906 679.128906 C 432.523438 684.292969 450.339844 666.808594 470.152344 658.152344 C 484.636719 652.988281 495.625 663.644531 506.117188 671.96875 C 497.828125 650.074219 484.984375 645.433594 458.164063 650.992188 C 458.164063 649.128906 463.476563 645.707031 468.828125 643.628906 Z M 539.582031 607.867188 C 535.253906 589.886719 527.761719 573.070313 517.4375 557.417969 C 535.085938 567.074219 544.464844 593.828125 539.582031 607.867188 Z M 533.089844 603.039063 C 518.4375 589.554688 511.445313 572.070313 505.449219 554.421875 C 521.101563 566.242188 527.09375 585.558594 533.089844 603.039063 Z M 531.757813 612.03125 C 512.109375 603.539063 502.617188 583.226563 502.453125 563.410156 C 511.777344 579.894531 518.769531 597.210938 531.757813 612.03125 Z M 494.628906 502.972656 C 490.796875 512.964844 480.308594 514.796875 471.316406 516.128906 C 475.8125 507.636719 485.136719 502.972656 494.628906 502.972656 Z M 446.175781 394.414063 C 454.835938 408.066406 465.65625 422.21875 479.640625 432.210938 C 479.640625 432.210938 456.832031 398.410156 449.671875 380.097656 C 467.15625 386.757813 500.121094 425.550781 500.121094 425.550781 C 497.132813 403.355469 461.660156 376.433594 461.660156 376.433594 C 482.140625 375.933594 491.566406 393.230469 503.007813 408.371094 C 507.894531 414.832031 518.316406 431.78125 535.421875 437.539063 L 510.277344 441.699219 C 508.945313 448.359375 512.773438 455.019531 511.445313 461.515625 C 504.785156 460.683594 497.125 456.519531 489.796875 454.355469 C 485.636719 461.515625 486.96875 471.003906 479.144531 476.5 C 477.476563 464.511719 475.980469 451.523438 468.820313 441.203125 C 461.328125 430.378906 453.503906 419.722656 443.179688 410.066406 C 443.179688 405.738281 445.011719 399.742188 446.175781 394.414063 Z M 477.8125 56.917969 L 468.820313 58.75 C 483.140625 50.09375 497.625 39.4375 508.445313 25.117188 C 506.449219 40.269531 491.964844 53.089844 477.8125 56.917969 Z M 503.617188 17.460938 C 500.386719 32.234375 476.34375 50.265625 465.824219 53.421875 C 474.035156 32.351563 503.617188 17.460938 503.617188 17.460938 Z M 497.125 14.460938 C 480.640625 26.949219 464.824219 40.933594 451.503906 56.917969 C 456.164063 36.273438 477.644531 19.457031 497.125 14.460938 Z M 166.789063 56.421875 C 149.121094 44.289063 158.964844 14.460938 158.964844 14.460938 C 166.453125 22.953125 171.671875 42.101563 166.789063 56.421875 Z M 98.523438 71.40625 C 90.699219 59.914063 78.542969 51.589844 66.054688 47.429688 C 66.054688 47.429688 83.871094 65.242188 89.53125 76.066406 C 75.214844 74.234375 63.390625 66.742188 51.738281 58.75 C 51.738281 58.75 66.277344 80.730469 87.699219 87.554688 C 57.398438 98.710938 43.746094 56.585938 16.273438 54.589844 C 23.097656 49.09375 33.921875 51.925781 40.914063 54.589844 C 39.25 46.597656 34.921875 38.4375 31.257813 30.613281 C 37.917969 29.78125 44.742188 31.609375 51.070313 33.609375 C 55.066406 27.949219 54.902344 19.289063 60.726563 13.796875 C 64.058594 20.289063 63.226563 29.613281 68.554688 35.941406 C 73.480469 42.316406 79.976563 46.28125 86.1875 50.761719 C 100.871094 61.359375 98.523438 71.40625 98.523438 71.40625 Z M 305.316406 103.039063 C 299.488281 106.867188 294.992188 109.367188 290.332031 115.027344 C 287.667969 108.199219 287.167969 100.042969 290.832031 93.550781 L 263.859375 81.5625 C 272.347656 75.734375 281.671875 72.238281 291.496094 69.574219 C 285.003906 60.414063 277.34375 51.925781 274.015625 41.433594 C 282.171875 44.433594 292.328125 48.761719 302.320313 50.425781 C 304.648438 42.433594 304.316406 33.277344 309.480469 26.449219 C 311.476563 30.277344 315.804688 47.816406 323.796875 52.089844 L 311.808594 65.910156 L 296.324219 58.085938 C 293.660156 59.914063 308.3125 74.402344 308.3125 74.402344 C 302.320313 75.234375 296.660156 77.066406 291.496094 79.730469 L 309.480469 81.5625 C 305.816406 88.386719 304.316406 95.046875 305.316406 103.039063 Z M 311.3125 101.375 C 311.976563 96.378906 313.976563 92.050781 317.304688 88.054688 C 316.640625 78.0625 316.972656 66.410156 325.628906 59.914063 C 326.628906 68.242188 332.121094 75.734375 338.78125 82.0625 C 328.792969 86.554688 318.96875 92.71875 311.3125 101.375 Z M 366.921875 92.382813 C 357.765625 96.878906 347.441406 93.382813 337.617188 93.550781 C 344.277344 98.210938 351.769531 102.871094 360.429688 104.371094 C 348.273438 110.199219 332.457031 104.039063 318.96875 102.539063 C 327.296875 95.046875 338.117188 91.050781 347.273438 84.558594 C 342.777344 75.402344 329.125 67.742188 335.285156 56.421875 C 350.9375 59.582031 366.421875 70.40625 371.75 86.390625 C 364.425781 79.230469 353.269531 70.238281 341.78125 70.738281 C 350.4375 77.398438 358.929688 84.558594 366.921875 92.382813 Z M 369.917969 185.789063 C 375.746094 201.941406 388.398438 216.925781 400.554688 228.414063 C 372.519531 221.617188 369.917969 185.789063 369.917969 185.789063 Z M 381.449219 196.648438 C 377.804688 189.664063 376.578125 184.625 376.578125 184.625 C 390.230469 192.949219 397.558594 206.9375 403.550781 219.921875 C 392.5 216.699219 386.5625 206.460938 381.449219 196.648438 Z M 374.246094 174.96875 C 408.011719 181.636719 410.210938 216.425781 410.210938 216.425781 C 401.886719 200.941406 387.734375 187.621094 374.246094 174.96875 Z M 426.859375 236.738281 C 428.191406 230.410156 425.195313 225.585938 421.535156 221.253906 C 427.195313 214.09375 435.6875 211.597656 441.847656 204.4375 C 434.1875 203.4375 425.695313 203.4375 419.203125 206.769531 C 419.535156 200.441406 422.53125 192.949219 425.695313 186.457031 C 420.867188 186.957031 416.371094 191.949219 411.878906 194.78125 C 401.21875 182.128906 388.066406 172.46875 372.914063 168.972656 C 388.734375 160.816406 405.882813 149.992188 426.363281 155.320313 C 458.710938 183.046875 454.257813 242.46875 446.175781 266.710938 C 441.347656 256.554688 435.6875 244.730469 426.859375 236.738281 "/>
</g>
</svg>
