<?xml version="1.0" encoding="UTF-8"?>
<svg xmlns="http://www.w3.org/2000/svg" xmlns:xlink="http://www.w3.org/1999/xlink" width="491pt" height="583pt" viewBox="0 0 491 583" version="1.1">
<g id="surface1">
<path style=" stroke:none;fill-rule:nonzero;fill:rgb(0%,0%,0%);fill-opacity:1;" d="M 0.367188 0.601563 L 0.367188 582.011719 L 490.636719 582.011719 L 490.636719 0.601563 Z M 333.328125 14.953125 C 338.628906 6.808594 347.65625 6.734375 354.257813 9.15625 C 359.285156 10.664063 363.058594 18.363281 363.71875 21.128906 C 368.085938 25.277344 370.441406 26.851563 372.515625 28.074219 C 376.101563 29.332031 381.316406 29.488281 384.460938 26.976563 C 386.785156 25.59375 390.085938 23.394531 390.210938 17.863281 C 390.085938 15.660156 387.855469 12.644531 385.652344 11.953125 C 380.480469 10.183594 378.476563 12.195313 376.980469 13.335938 C 375.847656 14.277344 375.472656 16.511719 375.28125 17.769531 C 375.472656 21.191406 380.5 22.292969 381.914063 20.691406 C 378.300781 17.265625 386.628906 16.007813 385.8125 20.785156 C 385.214844 23.550781 381.789063 24.617188 379.335938 24.117188 C 375.15625 23.078125 372.957031 20.09375 372.988281 16.511719 C 373.113281 13.617188 374.6875 10.914063 377.324219 9.472656 C 381.757813 7.363281 387.195313 7.648438 390.777344 11.230469 C 392.035156 12.300781 392.285156 13.746094 393.164063 14.875 C 396.054688 11.480469 396.683594 10.191406 400.738281 9.910156 C 404.699219 9.25 403.914063 13.023438 400.894531 11.703125 C 396.558594 12.519531 395.050781 14.8125 393.792969 19.527344 C 393.039063 25.058594 387.445313 29.835938 382.480469 31.597656 C 379.714844 32.476563 376.066406 32.476563 373.304688 31.785156 C 370.347656 34.488281 365.886719 34.988281 361.988281 34.046875 C 360.542969 33.480469 359.097656 32.664063 358.027344 31.46875 C 355.453125 33.605469 350.578125 34.359375 347.4375 33.167969 C 344.984375 32.285156 342.253906 29.519531 342.1875 26.820313 L 342.945313 24.714844 C 344.199219 21.980469 349.542969 22.605469 349.480469 25.625 C 349.386719 26.851563 349.230469 29.050781 346.808594 28.957031 C 348.128906 30.527344 350.265625 31.03125 352.152344 31.09375 C 354.039063 30.777344 357.085938 28.484375 358.09375 26.851563 C 358.910156 25.027344 359.128906 20.722656 358.1875 18.300781 C 355.796875 13.398438 350.328125 11.921875 345.679688 12.457031 C 342.03125 13.085938 338.105469 17.328125 337.097656 20.785156 C 335.242188 25.4375 336.1875 29.679688 338.007813 33.167969 C 340.742188 37.691406 346.085938 42.5625 359.191406 44.324219 C 382.742188 47.488281 407.9375 20.910156 428.488281 13.054688 C 441.148438 7.535156 454.953125 5.109375 468.316406 8.363281 C 477.769531 10.664063 483.425781 16.949219 483.796875 22.164063 C 485.3125 31.40625 475.570313 35.492188 473.722656 29.304688 C 472.109375 24.179688 479.96875 21.980469 479.144531 28.316406 C 483.425781 25.121094 480.28125 17.578125 475.0625 15.265625 C 458.289063 7.828125 434.269531 13.308594 419.3125 22.734375 C 413.027344 26.691406 406.269531 30.621094 405.421875 36.875 C 405.640625 40.519531 408.628906 41.9375 410.574219 42.375 C 415.539063 43.664063 423.398438 40.207031 425.191406 34.519531 C 425.597656 32.351563 423.617188 30.402344 422.738281 29.898438 C 419.945313 29.511719 416.011719 29.519531 414.472656 34.046875 C 414.222656 34.425781 416.484375 34.078125 417.175781 35.871094 C 417.898438 38.636719 413.183594 40.050781 412.023438 36.089844 C 412.085938 33.605469 412.242188 32.351563 413.8125 30.589844 C 416.203125 27.636719 421.355469 25.75 425.222656 27.257813 C 428.113281 24.335938 435.65625 22.765625 437.226563 25.75 C 440.527344 23.550781 446.183594 23.078125 449.484375 24.367188 C 460.203125 28.300781 458.28125 36.121094 465.921875 31.25 L 467.839844 31.46875 C 466.925781 33.605469 463.878906 34.738281 461.238281 34.925781 C 458.660156 34.800781 456.867188 34.078125 454.890625 32.035156 C 454.511719 33.921875 453.035156 37.378906 450.960938 38.257813 C 448.320313 39.515625 446.183594 39.894531 443.796875 38.414063 C 441.15625 35.964844 446.027344 32.035156 447.660156 37.15625 C 449.421875 37.285156 451.117188 36.277344 452.25 33.953125 C 453.097656 31.722656 450.269531 28.265625 448.257813 27.511719 C 443.796875 26.191406 439.113281 27.320313 435.71875 30.496094 C 430.941406 34.769531 427.042969 40.710938 421.574219 43.222656 C 419.628906 44.136719 417.898438 44.292969 415.980469 44.730469 C 410.953125 46.050781 405.671875 44.796875 402.214844 41.148438 C 398.320313 43.601563 392.035156 43.601563 387.886719 41.148438 C 374.34375 49.011719 343.90625 51.191406 333.609375 36.96875 C 331.628906 34.234375 326.914063 24.808594 333.328125 14.953125 Z M 438.78125 52.457031 L 438.78125 528.585938 L 52.222656 528.585938 L 52.222656 52.457031 Z M 171.476563 14.953125 C 176.773438 6.808594 185.804688 6.734375 192.40625 9.15625 C 197.433594 10.664063 201.203125 18.363281 201.863281 21.128906 C 206.234375 25.277344 208.589844 26.851563 210.664063 28.074219 C 214.246094 29.332031 219.464844 29.488281 222.605469 26.976563 C 224.933594 25.59375 228.234375 23.394531 228.359375 17.863281 C 228.234375 15.660156 226.003906 12.644531 223.800781 11.953125 C 218.628906 10.183594 216.621094 12.195313 215.128906 13.335938 C 213.996094 14.277344 213.617188 16.511719 213.429688 17.769531 C 213.617188 21.191406 218.648438 22.292969 220.0625 20.691406 C 216.449219 17.265625 224.777344 16.007813 223.960938 20.785156 C 223.363281 23.550781 219.9375 24.617188 217.484375 24.117188 C 213.304688 23.078125 211.105469 20.09375 211.136719 16.511719 C 211.261719 13.617188 212.832031 10.914063 215.472656 9.472656 C 219.90625 7.363281 225.34375 7.648438 228.925781 11.230469 C 230.183594 12.300781 230.433594 13.746094 231.3125 14.875 C 234.203125 11.480469 234.832031 10.191406 238.886719 9.910156 C 242.847656 9.25 242.0625 13.023438 239.042969 11.703125 C 234.707031 12.519531 233.199219 14.8125 231.941406 19.527344 C 231.1875 25.058594 225.59375 29.835938 220.628906 31.597656 C 217.863281 32.476563 214.214844 32.476563 211.449219 31.785156 C 208.496094 34.488281 204.035156 34.988281 200.136719 34.046875 C 198.691406 33.480469 197.246094 32.664063 196.175781 31.46875 C 193.601563 33.605469 188.726563 34.359375 185.585938 33.167969 C 183.132813 32.285156 180.398438 29.519531 180.335938 26.820313 L 181.089844 24.714844 C 182.347656 21.980469 187.691406 22.605469 187.628906 25.625 C 187.535156 26.851563 187.378906 29.050781 184.957031 28.957031 C 186.277344 30.527344 188.414063 31.03125 190.300781 31.09375 C 192.183594 30.777344 195.234375 28.484375 196.238281 26.851563 C 197.058594 25.027344 197.277344 20.722656 196.335938 18.300781 C 193.945313 13.398438 188.476563 11.921875 183.824219 12.457031 C 180.179688 13.085938 176.253906 17.328125 175.246094 20.785156 C 173.390625 25.4375 174.335938 29.679688 176.15625 33.167969 C 178.890625 37.691406 184.234375 42.5625 197.339844 44.324219 C 220.890625 47.488281 246.085938 20.910156 266.636719 13.054688 C 279.296875 7.535156 293.101563 5.109375 306.464844 8.363281 C 315.914063 10.664063 321.574219 16.949219 321.945313 22.164063 C 323.460938 31.40625 313.714844 35.492188 311.871094 29.304688 C 310.257813 24.179688 318.117188 21.980469 317.292969 28.316406 C 321.574219 25.121094 318.429688 17.578125 313.210938 15.265625 C 296.4375 7.828125 272.417969 13.308594 257.460938 22.734375 C 251.175781 26.691406 244.417969 30.621094 243.570313 36.875 C 243.789063 40.519531 246.773438 41.9375 248.722656 42.375 C 253.6875 43.664063 261.546875 40.207031 263.339844 34.519531 C 263.746094 32.351563 261.765625 30.402344 260.886719 29.898438 C 258.09375 29.511719 254.160156 29.519531 252.621094 34.046875 C 252.371094 34.425781 254.632813 34.078125 255.324219 35.871094 C 256.046875 38.636719 251.332031 40.050781 250.171875 36.089844 C 250.230469 33.605469 250.390625 32.351563 251.960938 30.589844 C 254.347656 27.636719 259.503906 25.75 263.367188 27.257813 C 266.261719 24.335938 273.804688 22.765625 275.375 25.75 C 278.675781 23.550781 284.332031 23.078125 287.632813 24.367188 C 298.351563 28.300781 296.429688 36.121094 304.066406 31.25 L 305.984375 31.46875 C 305.074219 33.605469 302.023438 34.738281 299.386719 34.925781 C 296.808594 34.800781 295.015625 34.078125 293.035156 32.035156 C 292.660156 33.921875 291.183594 37.378906 289.109375 38.257813 C 286.46875 39.515625 284.332031 39.894531 281.941406 38.414063 C 279.304688 35.964844 284.175781 32.035156 285.808594 37.15625 C 287.566406 37.285156 289.265625 36.277344 290.398438 33.953125 C 291.246094 31.722656 288.417969 28.265625 286.40625 27.511719 C 281.941406 26.191406 277.261719 27.320313 273.867188 30.496094 C 269.089844 34.769531 265.191406 40.710938 259.722656 43.222656 C 257.773438 44.136719 256.046875 44.292969 254.128906 44.730469 C 249.101563 46.050781 243.820313 44.796875 240.363281 41.148438 C 236.46875 43.601563 230.183594 43.601563 226.03125 41.148438 C 212.492188 49.011719 182.054688 51.191406 171.757813 36.96875 C 169.777344 34.234375 165.0625 24.808594 171.476563 14.953125 Z M 9.777344 15.269531 C 15.078125 7.121094 24.109375 7.050781 30.710938 9.472656 C 35.738281 10.980469 39.507813 18.679688 40.167969 21.445313 C 44.539063 25.59375 46.894531 27.164063 48.96875 28.390625 C 52.550781 29.648438 57.769531 29.804688 60.910156 27.289063 C 63.238281 25.90625 66.535156 23.707031 66.664063 18.175781 C 66.535156 15.976563 64.304688 12.960938 62.105469 12.269531 C 56.933594 10.496094 54.925781 12.507813 53.433594 13.648438 C 52.300781 14.59375 51.921875 16.824219 51.734375 18.082031 C 51.921875 21.507813 56.953125 22.605469 58.367188 21.003906 C 54.753906 17.578125 63.082031 16.320313 62.261719 21.097656 C 61.664063 23.863281 58.238281 24.933594 55.789063 24.429688 C 51.609375 23.394531 49.410156 20.40625 49.441406 16.824219 C 49.566406 13.933594 51.136719 11.230469 53.777344 9.785156 C 58.210938 7.679688 63.644531 7.960938 67.226563 11.546875 C 68.484375 12.613281 68.738281 14.058594 69.617188 15.191406 C 72.507813 11.796875 73.136719 10.507813 77.191406 10.226563 C 81.152344 9.566406 80.367188 13.335938 77.347656 12.015625 C 73.011719 12.832031 71.503906 15.128906 70.246094 19.84375 C 69.492188 25.371094 63.898438 30.148438 58.929688 31.910156 C 56.164063 32.789063 52.519531 32.789063 49.753906 32.097656 C 46.800781 34.800781 42.339844 35.304688 38.441406 34.359375 C 36.996094 33.796875 35.550781 32.980469 34.480469 31.785156 C 31.902344 33.921875 27.03125 34.675781 23.890625 33.480469 C 21.4375 32.601563 18.703125 29.835938 18.640625 27.132813 L 19.394531 25.027344 C 20.652344 22.292969 25.996094 22.921875 25.933594 25.9375 C 25.839844 27.164063 25.679688 29.363281 23.261719 29.269531 C 24.582031 30.839844 26.71875 31.34375 28.605469 31.40625 C 30.488281 31.09375 33.539063 28.796875 34.542969 27.164063 C 35.359375 25.34375 35.582031 21.035156 34.636719 18.617188 C 32.25 13.714844 26.78125 12.234375 22.128906 12.769531 C 18.484375 13.398438 14.554688 17.640625 13.550781 21.097656 C 11.695313 25.75 12.640625 29.992188 14.460938 33.480469 C 17.195313 38.007813 22.539063 42.878906 35.644531 44.636719 C 59.195313 47.800781 84.386719 21.226563 104.941406 13.367188 C 117.601563 7.847656 131.40625 5.421875 144.769531 8.675781 C 154.222656 10.980469 159.878906 17.265625 160.25 22.476563 C 161.761719 31.722656 152.019531 35.808594 150.175781 29.617188 C 148.5625 24.492188 156.421875 22.292969 155.597656 28.628906 C 159.878906 25.4375 156.734375 17.894531 151.515625 15.578125 C 134.742188 8.144531 110.722656 13.625 95.765625 23.046875 C 89.480469 27.007813 82.722656 30.9375 81.875 37.191406 C 82.09375 40.835938 85.078125 42.25 87.027344 42.6875 C 91.992188 43.976563 99.851563 40.519531 101.640625 34.832031 C 102.050781 32.664063 100.070313 30.714844 99.191406 30.214844 C 96.398438 29.824219 92.464844 29.835938 90.925781 34.359375 C 90.671875 34.738281 92.9375 34.394531 93.628906 36.183594 C 94.351563 38.949219 89.636719 40.363281 88.472656 36.402344 C 88.535156 33.921875 88.695313 32.664063 90.265625 30.902344 C 92.652344 27.949219 97.808594 26.0625 101.671875 27.574219 C 104.566406 24.648438 112.105469 23.078125 113.679688 26.0625 C 116.980469 23.863281 122.636719 23.394531 125.9375 24.683594 C 136.652344 28.617188 134.734375 36.4375 142.371094 31.5625 L 144.289063 31.785156 C 143.378906 33.921875 140.328125 35.054688 137.691406 35.242188 C 135.113281 35.117188 133.320313 34.394531 131.339844 32.351563 C 130.964844 34.234375 129.488281 37.691406 127.414063 38.574219 C 124.773438 39.828125 122.636719 40.207031 120.246094 38.730469 C 117.605469 36.277344 122.480469 32.351563 124.113281 37.472656 C 125.871094 37.597656 127.570313 36.59375 128.699219 34.265625 C 129.550781 32.035156 126.722656 28.578125 124.710938 27.824219 C 120.246094 26.503906 115.5625 27.636719 112.171875 30.808594 C 107.394531 35.085938 103.496094 41.023438 98.027344 43.539063 C 96.078125 44.449219 94.351563 44.605469 92.433594 45.046875 C 87.40625 46.367188 82.125 45.109375 78.667969 41.464844 C 74.773438 43.914063 68.484375 43.914063 64.335938 41.464844 C 50.792969 49.328125 20.359375 51.503906 10.0625 37.285156 C 8.082031 34.550781 3.367188 25.121094 9.777344 15.269531 Z M 7.101563 71.097656 C 9.402344 61.644531 15.6875 55.988281 20.902344 55.617188 C 30.144531 54.105469 34.230469 63.847656 28.042969 65.691406 C 22.917969 67.304688 20.71875 59.445313 27.054688 60.269531 C 23.859375 55.988281 16.316406 59.132813 14.003906 64.351563 C 6.566406 81.125 12.046875 105.144531 21.46875 120.101563 C 25.429688 126.386719 29.359375 133.144531 35.613281 133.992188 C 39.257813 133.773438 40.671875 130.785156 41.113281 128.839844 C 42.402344 123.871094 38.945313 116.015625 33.257813 114.226563 C 31.089844 113.816406 29.140625 115.796875 28.636719 116.675781 C 28.25 119.46875 28.257813 123.402344 32.785156 124.941406 C 33.160156 125.191406 32.816406 122.929688 34.609375 122.238281 C 37.375 121.515625 38.789063 126.230469 34.828125 127.394531 C 32.34375 127.328125 31.089844 127.171875 29.328125 125.601563 C 26.375 123.214844 24.488281 118.058594 25.996094 114.191406 C 23.074219 111.300781 21.503906 103.757813 24.488281 102.1875 C 22.289063 98.886719 21.816406 93.230469 23.105469 89.929688 C 27.039063 79.210938 34.859375 81.132813 29.988281 73.492188 L 30.207031 71.578125 C 32.34375 72.488281 33.476563 75.535156 33.664063 78.175781 C 33.539063 80.753906 32.816406 82.546875 30.773438 84.523438 C 32.660156 84.902344 36.117188 86.378906 36.996094 88.453125 C 38.253906 91.09375 38.75 93.875 37.152344 95.621094 C 34.703125 98.257813 30.773438 93.386719 35.894531 91.753906 C 36.023438 89.992188 35.015625 88.296875 32.691406 87.164063 C 30.460938 86.316406 27.003906 89.144531 26.246094 91.15625 C 24.925781 95.621094 26.058594 100.300781 29.234375 103.695313 C 33.507813 108.472656 39.449219 112.371094 41.960938 117.839844 C 42.871094 119.785156 43.03125 121.515625 43.46875 123.433594 C 44.789063 128.460938 43.53125 133.742188 39.886719 137.199219 C 42.339844 141.09375 42.339844 147.382813 39.886719 151.527344 C 47.75 165.070313 49.929688 195.507813 35.707031 205.804688 C 32.972656 207.785156 23.542969 212.5 13.691406 206.089844 C 5.546875 200.785156 5.472656 191.757813 7.894531 185.15625 C 9.402344 180.128906 17.101563 176.355469 19.867188 175.695313 C 24.015625 171.328125 25.589844 168.972656 26.8125 166.898438 C 28.070313 163.316406 28.226563 158.097656 25.714844 154.953125 C 24.332031 152.628906 22.132813 149.328125 16.597656 149.203125 C 14.398438 149.328125 11.382813 151.5625 10.691406 153.761719 C 8.921875 158.933594 10.933594 160.941406 12.074219 162.433594 C 13.015625 163.566406 15.246094 163.941406 16.503906 164.132813 C 19.929688 163.941406 21.03125 158.914063 19.429688 157.5 C 16.003906 161.113281 14.746094 152.785156 19.523438 153.605469 C 22.289063 154.199219 23.355469 157.625 22.851563 160.078125 C 21.816406 164.257813 18.832031 166.457031 15.246094 166.425781 C 12.355469 166.300781 9.652344 164.730469 8.207031 162.089844 C 6.101563 157.65625 6.386719 152.222656 9.96875 148.636719 C 11.035156 147.382813 12.480469 147.128906 13.613281 146.25 C 10.21875 143.359375 8.929688 142.730469 8.648438 138.675781 C 7.988281 134.714844 11.761719 135.5 10.441406 138.519531 C 11.257813 142.855469 13.550781 144.363281 18.265625 145.621094 C 23.796875 146.375 28.574219 151.96875 30.332031 156.933594 C 31.214844 159.699219 31.214844 163.347656 30.523438 166.113281 C 33.226563 169.066406 33.726563 173.527344 32.785156 177.425781 C 32.21875 178.871094 31.402344 180.316406 30.207031 181.386719 C 32.34375 183.964844 33.097656 188.835938 31.90625 191.976563 C 31.023438 194.429688 28.257813 197.160156 25.554688 197.226563 L 23.449219 196.472656 C 20.71875 195.214844 21.34375 189.871094 24.363281 189.933594 C 25.589844 190.027344 27.789063 190.1875 27.695313 192.605469 C 29.265625 191.285156 29.769531 189.148438 29.832031 187.261719 C 29.515625 185.378906 27.222656 182.328125 25.589844 181.324219 C 23.765625 180.507813 19.460938 180.285156 17.039063 181.230469 C 12.136719 183.617188 10.660156 189.085938 11.195313 193.738281 C 11.824219 197.382813 16.066406 201.3125 19.523438 202.316406 C 24.171875 204.171875 28.417969 203.226563 31.90625 201.40625 C 36.429688 198.671875 41.300781 193.328125 43.0625 180.222656 C 46.222656 156.671875 19.648438 131.480469 11.789063 110.925781 C 6.273438 98.265625 3.847656 84.460938 7.101563 71.097656 Z M 6.316406 232.378906 C 8.617188 222.925781 14.902344 217.269531 20.117188 216.898438 C 29.359375 215.382813 33.445313 225.128906 27.257813 226.972656 C 22.132813 228.585938 19.929688 220.726563 26.269531 221.550781 C 23.074219 217.269531 15.53125 220.410156 13.21875 225.632813 C 5.78125 242.40625 11.261719 266.425781 20.683594 281.382813 C 24.644531 287.667969 28.574219 294.425781 34.828125 295.273438 C 38.472656 295.054688 39.886719 292.066406 40.328125 290.117188 C 41.617188 285.152344 38.160156 277.296875 32.46875 275.503906 C 30.300781 275.097656 28.351563 277.078125 27.851563 277.957031 C 27.464844 280.75 27.472656 284.683594 32 286.222656 C 32.375 286.472656 32.03125 284.210938 33.820313 283.519531 C 36.589844 282.796875 38.003906 287.511719 34.042969 288.671875 C 31.558594 288.609375 30.300781 288.453125 28.542969 286.882813 C 25.589844 284.492188 23.703125 279.339844 25.210938 275.472656 C 22.289063 272.582031 20.71875 265.039063 23.703125 263.46875 C 21.503906 260.167969 21.03125 254.511719 22.320313 251.210938 C 26.253906 240.492188 34.074219 242.410156 29.203125 234.773438 L 29.421875 232.859375 C 31.558594 233.769531 32.691406 236.816406 32.878906 239.457031 C 32.753906 242.035156 32.03125 243.824219 29.988281 245.804688 C 31.875 246.183594 35.332031 247.660156 36.210938 249.734375 C 37.46875 252.375 37.84375 254.511719 36.367188 256.898438 C 33.917969 259.539063 29.988281 254.667969 35.109375 253.035156 C 35.234375 251.273438 34.230469 249.578125 31.90625 248.445313 C 29.671875 247.597656 26.214844 250.425781 25.460938 252.4375 C 24.140625 256.898438 25.273438 261.582031 28.449219 264.976563 C 32.722656 269.753906 38.660156 273.652344 41.175781 279.121094 C 42.085938 281.066406 42.246094 282.796875 42.683594 284.714844 C 44.003906 289.742188 42.746094 295.023438 39.101563 298.480469 C 41.554688 302.375 41.554688 308.660156 39.101563 312.808594 C 46.964844 326.351563 49.144531 356.785156 34.921875 367.085938 C 32.1875 369.066406 22.757813 373.78125 12.90625 367.367188 C 4.761719 362.066406 4.6875 353.035156 7.109375 346.4375 C 8.617188 341.410156 16.316406 337.636719 19.082031 336.976563 C 23.230469 332.609375 24.800781 330.253906 26.027344 328.179688 C 27.285156 324.597656 27.441406 319.378906 24.925781 316.234375 C 23.542969 313.910156 21.34375 310.609375 15.8125 310.484375 C 13.613281 310.609375 10.597656 312.84375 9.90625 315.039063 C 8.136719 320.214844 10.148438 322.222656 11.289063 323.714844 C 12.230469 324.847656 14.460938 325.222656 15.71875 325.410156 C 19.144531 325.222656 20.246094 320.195313 18.644531 318.78125 C 15.21875 322.394531 13.960938 314.066406 18.738281 314.882813 C 21.503906 315.480469 22.570313 318.90625 22.066406 321.359375 C 21.03125 325.539063 18.046875 327.738281 14.460938 327.707031 C 11.570313 327.582031 8.867188 326.011719 7.421875 323.371094 C 5.316406 318.9375 5.601563 313.503906 9.183594 309.917969 C 10.25 308.660156 11.695313 308.410156 12.828125 307.53125 C 9.433594 304.640625 8.144531 304.011719 7.863281 299.957031 C 7.203125 295.996094 10.972656 296.78125 9.65625 299.800781 C 10.472656 304.136719 12.765625 305.644531 17.480469 306.902344 C 23.011719 307.65625 27.789063 313.25 29.546875 318.214844 C 30.425781 320.980469 30.425781 324.628906 29.734375 327.394531 C 32.4375 330.347656 32.941406 334.808594 32 338.707031 C 31.433594 340.152344 30.617188 341.597656 29.421875 342.664063 C 31.558594 345.242188 32.3125 350.113281 31.117188 353.257813 C 30.238281 355.710938 27.472656 358.441406 24.769531 358.507813 L 22.664063 357.753906 C 19.929688 356.496094 20.558594 351.152344 23.578125 351.214844 C 24.800781 351.308594 27.003906 351.464844 26.90625 353.886719 C 28.480469 352.566406 28.980469 350.429688 29.042969 348.542969 C 28.730469 346.65625 26.4375 343.609375 24.800781 342.605469 C 22.980469 341.785156 18.671875 341.566406 16.253906 342.507813 C 11.351563 344.898438 9.875 350.367188 10.40625 355.019531 C 11.035156 358.664063 15.28125 362.59375 18.738281 363.597656 C 23.386719 365.453125 27.632813 364.507813 31.117188 362.6875 C 35.644531 359.953125 40.515625 354.609375 42.277344 341.503906 C 45.4375 317.953125 18.863281 292.757813 11.003906 272.203125 C 5.488281 259.546875 3.0625 245.742188 6.316406 232.378906 Z M 25.242188 479.503906 C 23.859375 477.175781 21.660156 473.878906 16.128906 473.753906 C 13.929688 473.878906 10.910156 476.109375 10.21875 478.308594 C 8.449219 483.480469 10.460938 485.488281 11.601563 486.980469 C 12.546875 488.113281 14.777344 488.492188 16.035156 488.679688 C 19.460938 488.492188 20.558594 483.464844 18.957031 482.046875 C 15.53125 485.664063 14.273438 477.335938 19.050781 478.152344 C 21.816406 478.746094 22.886719 482.175781 22.382813 484.625 C 21.34375 488.804688 18.359375 491.003906 14.777344 490.972656 C 11.886719 490.847656 9.183594 489.277344 7.738281 486.636719 C 5.632813 482.203125 5.914063 476.769531 9.496094 473.1875 C 10.566406 471.929688 12.011719 471.675781 13.144531 470.796875 C 9.75 467.90625 8.460938 467.277344 8.175781 463.222656 C 7.515625 459.261719 11.289063 460.050781 9.96875 463.066406 C 10.785156 467.402344 13.078125 468.910156 17.792969 470.167969 C 23.324219 470.921875 28.101563 476.515625 29.863281 481.484375 C 30.742188 484.25 30.742188 487.894531 30.050781 490.660156 C 32.753906 493.613281 33.257813 498.078125 32.3125 501.972656 C 31.746094 503.417969 30.929688 504.863281 29.734375 505.933594 C 31.875 508.511719 32.628906 513.382813 31.433594 516.523438 C 30.554688 518.976563 27.789063 521.710938 25.085938 521.773438 L 22.980469 521.019531 C 20.246094 519.761719 20.875 514.417969 23.890625 514.480469 C 25.117188 514.578125 27.316406 514.734375 27.222656 517.152344 C 28.792969 515.832031 29.296875 513.695313 29.359375 511.808594 C 29.042969 509.925781 26.75 506.875 25.117188 505.871094 C 23.292969 505.054688 18.988281 504.832031 16.566406 505.777344 C 11.664063 508.164063 10.1875 513.632813 10.722656 518.285156 C 11.351563 521.929688 15.59375 525.859375 19.050781 526.863281 C 23.703125 528.71875 27.945313 527.777344 31.433594 525.953125 C 35.960938 523.21875 40.832031 517.875 42.589844 504.769531 C 45.753906 481.21875 19.175781 456.027344 11.320313 435.472656 C 5.800781 422.816406 3.375 409.007813 6.628906 395.644531 C 8.929688 386.195313 15.21875 380.535156 20.429688 380.164063 C 29.671875 378.652344 33.757813 388.394531 27.570313 390.238281 C 22.445313 391.851563 20.246094 383.992188 26.582031 384.816406 C 23.386719 380.535156 15.84375 383.679688 13.53125 388.898438 C 6.09375 405.671875 11.578125 429.691406 21 444.648438 C 24.960938 450.933594 28.886719 457.691406 35.140625 458.539063 C 38.789063 458.320313 40.203125 455.335938 40.640625 453.386719 C 41.929688 448.421875 38.472656 440.5625 32.785156 438.773438 C 30.617188 438.363281 28.667969 440.34375 28.164063 441.222656 C 27.777344 444.015625 27.789063 447.949219 32.3125 449.488281 C 32.691406 449.742188 32.34375 447.476563 34.136719 446.785156 C 36.902344 446.0625 38.316406 450.777344 34.355469 451.941406 C 31.875 451.878906 30.617188 451.722656 28.855469 450.148438 C 25.902344 447.761719 24.015625 442.605469 25.523438 438.742188 C 22.601563 435.851563 21.03125 428.308594 24.015625 426.734375 C 21.816406 423.4375 21.34375 417.777344 22.632813 414.480469 C 26.570313 403.761719 34.386719 405.679688 29.515625 398.042969 L 29.734375 396.125 C 31.875 397.035156 33.003906 400.085938 33.195313 402.726563 C 33.066406 405.300781 32.34375 407.09375 30.300781 409.074219 C 32.1875 409.449219 35.644531 410.929688 36.523438 413.003906 C 37.78125 415.640625 38.160156 417.777344 36.683594 420.167969 C 34.230469 422.808594 30.300781 417.9375 35.425781 416.300781 C 35.550781 414.542969 34.542969 412.84375 32.21875 411.714844 C 29.988281 410.863281 26.53125 413.691406 25.777344 415.703125 C 24.457031 420.167969 25.589844 424.851563 28.761719 428.242188 C 33.035156 433.019531 38.976563 436.917969 41.488281 442.386719 C 42.402344 444.335938 42.558594 446.0625 43 447.980469 C 44.320313 453.007813 43.0625 458.289063 39.414063 461.746094 C 41.867188 465.644531 41.867188 471.929688 39.414063 476.078125 C 47.28125 489.621094 49.457031 520.054688 35.234375 530.351563 C 32.503906 532.332031 23.074219 537.046875 13.222656 530.636719 C 5.074219 525.335938 5.003906 516.304688 7.421875 509.707031 C 8.929688 504.675781 16.632813 500.90625 19.398438 500.246094 C 23.542969 495.875 25.117188 493.519531 26.34375 491.445313 C 27.597656 487.863281 27.757813 482.644531 25.242188 479.503906 Z M 157.425781 568.550781 C 152.125 576.699219 143.097656 576.769531 136.496094 574.351563 C 131.46875 572.84375 127.695313 565.140625 127.035156 562.375 C 122.667969 558.226563 120.3125 556.65625 118.234375 555.429688 C 114.652344 554.171875 109.4375 554.015625 106.292969 556.53125 C 103.96875 557.914063 100.667969 560.113281 100.542969 565.644531 C 100.667969 567.84375 102.898438 570.863281 105.101563 571.554688 C 110.273438 573.324219 112.277344 571.3125 113.773438 570.171875 C 114.90625 569.226563 115.28125 566.996094 115.472656 565.738281 C 115.28125 562.3125 110.253906 561.214844 108.839844 562.816406 C 112.453125 566.242188 104.125 567.5 104.941406 562.722656 C 105.539063 559.957031 108.964844 558.886719 111.414063 559.390625 C 115.597656 560.429688 117.796875 563.414063 117.765625 566.996094 C 117.640625 569.886719 116.066406 572.589844 113.429688 574.035156 C 108.996094 576.140625 103.558594 575.859375 99.976563 572.277344 C 98.71875 571.207031 98.46875 569.761719 97.589844 568.632813 C 94.695313 572.023438 94.070313 573.3125 90.015625 573.597656 C 86.054688 574.257813 86.839844 570.484375 89.855469 571.804688 C 94.195313 570.988281 95.703125 568.695313 96.960938 563.980469 C 97.714844 558.449219 103.308594 553.671875 108.273438 551.910156 C 111.039063 551.03125 114.683594 551.03125 117.449219 551.722656 C 120.40625 549.019531 124.867188 548.515625 128.765625 549.460938 C 130.210938 550.027344 131.65625 550.84375 132.726563 552.035156 C 135.300781 549.898438 140.171875 549.144531 143.316406 550.339844 C 145.765625 551.21875 148.5 553.984375 148.5625 556.6875 L 147.808594 558.792969 C 146.554688 561.527344 141.210938 560.898438 141.273438 557.882813 C 141.367188 556.65625 141.523438 554.457031 143.945313 554.550781 C 142.625 552.980469 140.488281 552.476563 138.601563 552.414063 C 136.714844 552.726563 133.667969 555.023438 132.660156 556.65625 C 131.84375 558.480469 131.625 562.785156 132.566406 565.207031 C 134.957031 570.109375 140.425781 571.585938 145.074219 571.050781 C 148.722656 570.421875 152.648438 566.179688 153.65625 562.722656 C 155.511719 558.070313 154.566406 553.828125 152.742188 550.339844 C 150.011719 545.816406 144.667969 540.941406 131.5625 539.183594 C 108.011719 536.019531 82.816406 562.597656 62.265625 570.453125 C 49.605469 575.972656 35.796875 578.398438 22.4375 575.144531 C 12.984375 572.84375 7.328125 566.554688 6.957031 561.34375 C 5.441406 552.097656 15.183594 548.015625 17.03125 554.203125 C 18.640625 559.328125 10.785156 561.527344 11.609375 555.191406 C 7.328125 558.386719 10.46875 565.929688 15.691406 568.242188 C 32.464844 575.679688 56.484375 570.195313 71.441406 560.773438 C 77.726563 556.8125 84.484375 552.886719 85.332031 546.632813 C 85.113281 542.984375 82.125 541.570313 80.175781 541.132813 C 75.210938 539.84375 67.355469 543.300781 65.5625 548.988281 C 65.15625 551.15625 67.136719 553.105469 68.015625 553.609375 C 70.808594 553.996094 74.738281 553.984375 76.28125 549.460938 C 76.53125 549.082031 74.269531 549.429688 73.578125 547.636719 C 72.855469 544.871094 77.570313 543.457031 78.730469 547.417969 C 78.667969 549.898438 78.511719 551.15625 76.941406 552.917969 C 74.550781 555.871094 69.398438 557.757813 65.53125 556.246094 C 62.640625 559.171875 55.097656 560.742188 53.527344 557.757813 C 50.226563 559.957031 44.570313 560.429688 41.269531 559.140625 C 30.550781 555.207031 32.46875 547.386719 24.832031 552.257813 L 22.914063 552.035156 C 23.828125 549.898438 26.875 548.769531 29.515625 548.582031 C 32.09375 548.707031 33.882813 549.429688 35.863281 551.472656 C 36.242188 549.585938 37.71875 546.128906 39.792969 545.25 C 42.433594 543.992188 44.570313 543.613281 46.957031 545.089844 C 49.597656 547.542969 44.726563 551.472656 43.09375 546.347656 C 41.332031 546.222656 39.636719 547.226563 38.503906 549.554688 C 37.65625 551.785156 40.484375 555.242188 42.496094 555.996094 C 46.957031 557.316406 51.640625 556.183594 55.035156 553.011719 C 59.8125 548.738281 63.710938 542.796875 69.175781 540.28125 C 71.125 539.371094 72.855469 539.214844 74.773438 538.773438 C 79.800781 537.453125 85.082031 538.710938 88.535156 542.355469 C 92.433594 539.90625 98.71875 539.90625 102.867188 542.355469 C 116.410156 534.492188 146.847656 532.316406 157.144531 546.535156 C 159.125 549.273438 163.839844 558.699219 157.425781 568.550781 Z M 317.921875 568.550781 C 312.621094 576.699219 303.589844 576.769531 296.992188 574.351563 C 291.964844 572.84375 288.191406 565.140625 287.53125 562.375 C 283.164063 558.226563 280.804688 556.65625 278.730469 555.429688 C 275.148438 554.171875 269.933594 554.015625 266.789063 556.53125 C 264.464844 557.914063 261.164063 560.113281 261.039063 565.644531 C 261.164063 567.84375 263.394531 570.863281 265.59375 571.554688 C 270.765625 573.324219 272.773438 571.3125 274.269531 570.171875 C 275.398438 569.226563 275.777344 566.996094 275.964844 565.738281 C 275.777344 562.3125 270.75 561.214844 269.335938 562.816406 C 272.949219 566.242188 264.621094 567.5 265.4375 562.722656 C 266.035156 559.957031 269.460938 558.886719 271.910156 559.390625 C 276.09375 560.429688 278.289063 563.414063 278.261719 566.996094 C 278.132813 569.886719 276.5625 572.589844 273.921875 574.035156 C 269.492188 576.140625 264.054688 575.859375 260.472656 572.277344 C 259.214844 571.207031 258.964844 569.761719 258.085938 568.632813 C 255.191406 572.023438 254.5625 573.3125 250.507813 573.597656 C 246.550781 574.257813 247.335938 570.484375 250.351563 571.804688 C 254.6875 570.988281 256.199219 568.695313 257.453125 563.980469 C 258.210938 558.449219 263.804688 553.671875 268.769531 551.910156 C 271.535156 551.03125 275.179688 551.03125 277.945313 551.722656 C 280.898438 549.019531 285.363281 548.515625 289.261719 549.460938 C 290.703125 550.027344 292.152344 550.84375 293.21875 552.035156 C 295.796875 549.898438 300.667969 549.144531 303.8125 550.339844 C 306.261719 551.21875 308.996094 553.984375 309.058594 556.6875 L 308.304688 558.792969 C 307.046875 561.527344 301.703125 560.898438 301.769531 557.882813 C 301.863281 556.65625 302.019531 554.457031 304.4375 554.550781 C 303.121094 552.980469 300.980469 552.476563 299.097656 552.414063 C 297.210938 552.726563 294.164063 555.023438 293.15625 556.65625 C 292.339844 558.480469 292.121094 562.785156 293.0625 565.207031 C 295.449219 570.109375 300.921875 571.585938 305.570313 571.050781 C 309.214844 570.421875 313.144531 566.179688 314.152344 562.722656 C 316.003906 558.070313 315.0625 553.828125 313.238281 550.339844 C 310.503906 545.816406 305.160156 540.941406 292.058594 539.183594 C 268.503906 536.019531 243.3125 562.597656 222.757813 570.453125 C 210.101563 575.972656 196.292969 578.398438 182.933594 575.144531 C 173.480469 572.84375 167.824219 566.554688 167.453125 561.34375 C 165.9375 552.097656 175.679688 548.015625 177.523438 554.203125 C 179.136719 559.328125 171.28125 561.527344 172.105469 555.191406 C 167.824219 558.386719 170.964844 565.929688 176.1875 568.242188 C 192.957031 575.679688 216.976563 570.195313 231.9375 560.773438 C 238.222656 556.8125 244.976563 552.886719 245.828125 546.632813 C 245.605469 542.984375 242.621094 541.570313 240.671875 541.132813 C 235.707031 539.84375 227.851563 543.300781 226.058594 548.988281 C 225.648438 551.15625 227.628906 553.105469 228.511719 553.609375 C 231.304688 553.996094 235.234375 553.984375 236.773438 549.460938 C 237.027344 549.082031 234.765625 549.429688 234.074219 547.636719 C 233.351563 544.871094 238.0625 543.457031 239.226563 547.417969 C 239.164063 549.898438 239.007813 551.15625 237.4375 552.917969 C 235.046875 555.871094 229.894531 557.757813 226.027344 556.246094 C 223.136719 559.171875 215.59375 560.742188 214.023438 557.757813 C 210.722656 559.957031 205.066406 560.429688 201.765625 559.140625 C 191.046875 555.207031 192.964844 547.386719 185.328125 552.257813 L 183.410156 552.035156 C 184.324219 549.898438 187.371094 548.769531 190.011719 548.582031 C 192.589844 548.707031 194.378906 549.429688 196.359375 551.472656 C 196.738281 549.585938 198.214844 546.128906 200.289063 545.25 C 202.929688 543.992188 205.066406 543.613281 207.453125 545.089844 C 210.09375 547.542969 205.222656 551.472656 203.589844 546.347656 C 201.828125 546.222656 200.132813 547.226563 199 549.554688 C 198.152344 551.785156 200.980469 555.242188 202.992188 555.996094 C 207.453125 557.316406 212.136719 556.183594 215.53125 553.011719 C 220.308594 548.738281 224.203125 542.796875 229.671875 540.28125 C 231.621094 539.371094 233.351563 539.214844 235.265625 538.773438 C 240.296875 537.453125 245.574219 538.710938 249.03125 542.355469 C 252.929688 539.90625 259.214844 539.90625 263.363281 542.355469 C 276.90625 534.492188 307.339844 532.316406 317.640625 546.535156 C 319.617188 549.273438 324.332031 558.699219 317.921875 568.550781 Z M 480.1875 568.238281 C 474.886719 576.382813 465.859375 576.457031 459.257813 574.035156 C 454.230469 572.527344 450.457031 564.828125 449.796875 562.0625 C 445.429688 557.914063 443.074219 556.34375 440.996094 555.117188 C 437.414063 553.859375 432.199219 553.703125 429.054688 556.21875 C 426.730469 557.597656 423.429688 559.800781 423.304688 565.332031 C 423.429688 567.53125 425.660156 570.546875 427.863281 571.238281 C 433.035156 573.011719 435.039063 571 436.535156 569.855469 C 437.667969 568.914063 438.046875 566.683594 438.234375 565.425781 C 438.046875 562 433.015625 560.898438 431.601563 562.503906 C 435.214844 565.929688 426.886719 567.183594 427.703125 562.40625 C 428.300781 559.644531 431.726563 558.574219 434.179688 559.078125 C 438.359375 560.113281 440.558594 563.097656 440.527344 566.683594 C 440.402344 569.574219 438.828125 572.277344 436.191406 573.722656 C 431.757813 575.828125 426.320313 575.542969 422.738281 571.960938 C 421.480469 570.894531 421.230469 569.449219 420.351563 568.316406 C 417.460938 571.710938 416.828125 573 412.777344 573.28125 C 408.816406 573.941406 409.601563 570.171875 412.617188 571.492188 C 416.957031 570.671875 418.464844 568.378906 419.722656 563.664063 C 420.476563 558.132813 426.070313 553.355469 431.035156 551.597656 C 433.800781 550.71875 437.445313 550.71875 440.214844 551.410156 C 443.167969 548.707031 447.628906 548.203125 451.527344 549.144531 C 452.972656 549.710938 454.417969 550.527344 455.488281 551.722656 C 458.0625 549.585938 462.933594 548.832031 466.078125 550.027344 C 468.527344 550.90625 471.265625 553.671875 471.324219 556.375 L 470.570313 558.480469 C 469.316406 561.214844 463.972656 560.585938 464.035156 557.570313 C 464.128906 556.34375 464.285156 554.144531 466.707031 554.238281 C 465.386719 552.664063 463.25 552.164063 461.363281 552.097656 C 459.476563 552.414063 456.429688 554.707031 455.425781 556.34375 C 454.605469 558.164063 454.386719 562.472656 455.328125 564.890625 C 457.71875 569.792969 463.1875 571.269531 467.839844 570.734375 C 471.484375 570.109375 475.410156 565.863281 476.417969 562.40625 C 478.273438 557.757813 477.328125 553.515625 475.507813 550.027344 C 472.773438 545.5 467.429688 540.628906 454.324219 538.867188 C 430.773438 535.707031 405.578125 562.28125 385.027344 570.140625 C 372.367188 575.65625 358.5625 578.085938 345.199219 574.832031 C 335.746094 572.527344 330.089844 566.242188 329.71875 561.027344 C 328.203125 551.785156 337.945313 547.699219 339.792969 553.886719 C 341.402344 559.015625 333.546875 561.214844 334.371094 554.878906 C 330.089844 558.070313 333.234375 565.613281 338.453125 567.925781 C 355.226563 575.363281 379.246094 569.882813 394.203125 560.460938 C 400.488281 556.5 407.246094 552.570313 408.09375 546.316406 C 407.875 542.671875 404.886719 541.257813 402.9375 540.816406 C 397.972656 539.527344 390.117188 542.984375 388.324219 548.675781 C 387.917969 550.84375 389.898438 552.789063 390.777344 553.292969 C 393.570313 553.683594 397.503906 553.671875 399.042969 549.144531 C 399.292969 548.769531 397.03125 549.113281 396.339844 547.324219 C 395.617188 544.558594 400.332031 543.144531 401.492188 547.101563 C 401.429688 549.585938 401.273438 550.84375 399.703125 552.601563 C 397.3125 555.554688 392.160156 557.441406 388.292969 555.933594 C 385.402344 558.855469 377.859375 560.429688 376.289063 557.441406 C 372.988281 559.644531 367.332031 560.113281 364.03125 558.824219 C 353.3125 554.890625 355.230469 547.070313 347.59375 551.941406 L 345.679688 551.722656 C 346.589844 549.585938 349.636719 548.453125 352.277344 548.265625 C 354.855469 548.390625 356.644531 549.113281 358.628906 551.15625 C 359.003906 549.273438 360.480469 545.816406 362.554688 544.933594 C 365.195313 543.675781 367.332031 543.300781 369.71875 544.777344 C 372.359375 547.226563 367.488281 551.15625 365.855469 546.035156 C 364.09375 545.910156 362.398438 546.914063 361.265625 549.238281 C 360.417969 551.472656 363.246094 554.929688 365.257813 555.683594 C 369.71875 557.003906 374.402344 555.871094 377.796875 552.695313 C 382.574219 548.421875 386.472656 542.484375 391.941406 539.96875 C 393.886719 539.058594 395.617188 538.902344 397.535156 538.460938 C 402.5625 537.140625 407.84375 538.398438 411.300781 542.042969 C 415.195313 539.589844 421.480469 539.589844 425.628906 542.042969 C 439.171875 534.179688 469.609375 532 479.90625 546.222656 C 481.886719 548.957031 486.601563 558.386719 480.1875 568.238281 Z M 482.824219 512.476563 C 480.523438 521.929688 474.238281 527.585938 469.023438 527.960938 C 459.78125 529.472656 455.695313 519.730469 461.882813 517.886719 C 467.007813 516.273438 469.207031 524.128906 462.871094 523.304688 C 466.066406 527.585938 473.609375 524.445313 475.921875 519.222656 C 483.359375 502.453125 477.878906 478.433594 468.453125 463.476563 C 464.492188 457.1875 460.566406 450.433594 454.3125 449.585938 C 450.664063 449.804688 449.253906 452.789063 448.8125 454.738281 C 447.523438 459.703125 450.980469 467.558594 456.667969 469.351563 C 458.835938 469.761719 460.785156 467.78125 461.289063 466.898438 C 461.675781 464.105469 461.664063 460.175781 457.140625 458.636719 C 456.761719 458.382813 457.109375 460.644531 455.316406 461.335938 C 452.550781 462.058594 451.136719 457.347656 455.097656 456.183594 C 457.578125 456.246094 458.835938 456.402344 460.597656 457.976563 C 463.550781 460.363281 465.4375 465.515625 463.929688 469.382813 C 466.851563 472.273438 468.421875 479.816406 465.4375 481.386719 C 467.636719 484.6875 468.109375 490.34375 466.820313 493.644531 C 462.886719 504.363281 455.066406 502.445313 459.9375 510.082031 L 459.71875 512 C 457.578125 511.085938 456.449219 508.039063 456.261719 505.398438 C 456.386719 502.824219 457.109375 501.03125 459.152344 499.050781 C 457.265625 498.671875 453.808594 497.195313 452.929688 495.121094 C 451.671875 492.480469 451.296875 490.34375 452.773438 487.957031 C 455.222656 485.316406 459.152344 490.1875 454.027344 491.824219 C 453.902344 493.582031 454.910156 495.28125 457.234375 496.410156 C 459.464844 497.257813 462.921875 494.429688 463.675781 492.417969 C 464.996094 487.957031 463.867188 483.273438 460.691406 479.878906 C 456.417969 475.101563 450.476563 471.207031 447.964844 465.738281 C 447.050781 463.789063 446.894531 462.058594 446.453125 460.144531 C 445.136719 455.113281 446.390625 449.835938 450.039063 446.378906 C 447.585938 442.480469 447.585938 436.195313 450.039063 432.046875 C 442.175781 418.503906 439.996094 388.070313 454.21875 377.769531 C 456.953125 375.789063 466.378906 371.078125 476.230469 377.488281 C 484.378906 382.789063 484.449219 391.820313 482.03125 398.417969 C 480.523438 403.449219 472.824219 407.21875 470.058594 407.878906 C 465.910156 412.246094 464.335938 414.605469 463.109375 416.679688 C 461.855469 420.261719 461.695313 425.480469 464.210938 428.621094 C 465.59375 430.945313 467.792969 434.246094 473.324219 434.371094 C 475.523438 434.246094 478.542969 432.015625 479.234375 429.816406 C 481.003906 424.644531 478.992188 422.636719 477.851563 421.140625 C 476.90625 420.011719 474.675781 419.632813 473.421875 419.445313 C 469.992188 419.632813 468.894531 424.660156 470.496094 426.074219 C 473.921875 422.460938 475.179688 430.789063 470.402344 429.972656 C 467.636719 429.375 466.566406 425.949219 467.070313 423.496094 C 468.109375 419.320313 471.09375 417.117188 474.675781 417.148438 C 477.566406 417.277344 480.269531 418.847656 481.714844 421.488281 C 483.820313 425.917969 483.539063 431.355469 479.957031 434.9375 C 478.886719 436.195313 477.441406 436.445313 476.3125 437.328125 C 479.703125 440.21875 480.992188 440.847656 481.277344 444.902344 C 481.9375 448.859375 478.164063 448.074219 479.484375 445.058594 C 478.667969 440.722656 476.375 439.210938 471.660156 437.953125 C 466.128906 437.199219 461.351563 431.605469 459.589844 426.640625 C 458.710938 423.875 458.710938 420.230469 459.402344 417.464844 C 456.699219 414.511719 456.195313 410.046875 457.140625 406.148438 C 457.707031 404.703125 458.523438 403.257813 459.71875 402.191406 C 457.578125 399.613281 456.824219 394.742188 458.019531 391.597656 C 458.898438 389.148438 461.664063 386.414063 464.367188 386.351563 L 466.472656 387.105469 C 469.207031 388.363281 468.578125 393.703125 465.5625 393.640625 C 464.335938 393.546875 462.136719 393.390625 462.230469 390.972656 C 460.660156 392.289063 460.15625 394.429688 460.09375 396.3125 C 460.410156 398.199219 462.703125 401.246094 464.335938 402.253906 C 466.160156 403.070313 470.464844 403.289063 472.886719 402.347656 C 477.789063 399.960938 479.265625 394.492188 478.730469 389.839844 C 478.101563 386.195313 473.859375 382.265625 470.402344 381.261719 C 465.75 379.40625 461.507813 380.347656 458.019531 382.171875 C 453.496094 384.90625 448.621094 390.246094 446.863281 403.351563 C 443.699219 426.90625 470.277344 452.097656 478.132813 472.652344 C 483.652344 485.308594 486.078125 499.117188 482.824219 512.476563 Z M 482.824219 351.195313 C 480.523438 360.648438 474.238281 366.304688 469.023438 366.679688 C 459.78125 368.191406 455.695313 358.449219 461.882813 356.605469 C 467.007813 354.992188 469.207031 362.847656 462.871094 362.027344 C 466.066406 366.304688 473.609375 363.164063 475.921875 357.945313 C 483.359375 341.171875 477.878906 317.152344 468.453125 302.195313 C 464.492188 295.90625 460.566406 289.152344 454.3125 288.304688 C 450.664063 288.523438 449.253906 291.507813 448.8125 293.457031 C 447.523438 298.421875 450.980469 306.277344 456.667969 308.070313 C 458.835938 308.480469 460.785156 306.5 461.289063 305.617188 C 461.675781 302.828125 461.664063 298.894531 457.140625 297.355469 C 456.761719 297.101563 457.109375 299.363281 455.316406 300.058594 C 452.550781 300.78125 451.136719 296.066406 455.097656 294.902344 C 457.578125 294.964844 458.835938 295.121094 460.597656 296.695313 C 463.550781 299.082031 465.4375 304.234375 463.929688 308.101563 C 466.851563 310.992188 468.421875 318.535156 465.4375 320.105469 C 467.636719 323.40625 468.109375 329.0625 466.820313 332.363281 C 462.886719 343.082031 455.066406 341.164063 459.9375 348.800781 L 459.71875 350.71875 C 457.578125 349.808594 456.449219 346.757813 456.261719 344.117188 C 456.386719 341.539063 457.109375 339.75 459.152344 337.769531 C 457.265625 337.394531 453.808594 335.914063 452.929688 333.839844 C 451.671875 331.203125 451.296875 329.0625 452.773438 326.675781 C 455.222656 324.035156 459.152344 328.90625 454.027344 330.539063 C 453.902344 332.300781 454.910156 333.996094 457.234375 335.128906 C 459.464844 335.980469 462.921875 333.148438 463.675781 331.140625 C 464.996094 326.675781 463.867188 321.992188 460.691406 318.597656 C 456.417969 313.820313 450.476563 309.925781 447.964844 304.457031 C 447.050781 302.507813 446.894531 300.78125 446.453125 298.863281 C 445.136719 293.835938 446.390625 288.554688 450.039063 285.097656 C 447.585938 281.199219 447.585938 274.914063 450.039063 270.765625 C 442.175781 257.222656 439.996094 226.789063 454.21875 216.488281 C 456.953125 214.511719 466.378906 209.796875 476.230469 216.207031 C 484.378906 221.507813 484.449219 230.539063 482.03125 237.136719 C 480.523438 242.167969 472.824219 245.9375 470.058594 246.597656 C 465.910156 250.964844 464.335938 253.324219 463.109375 255.398438 C 461.855469 258.980469 461.695313 264.199219 464.210938 267.339844 C 465.59375 269.664063 467.792969 272.964844 473.324219 273.09375 C 475.523438 272.964844 478.542969 270.734375 479.234375 268.535156 C 481.003906 263.363281 478.992188 261.355469 477.851563 259.859375 C 476.90625 258.730469 474.675781 258.351563 473.421875 258.164063 C 469.992188 258.351563 468.894531 263.378906 470.496094 264.796875 C 473.921875 261.179688 475.179688 269.507813 470.402344 268.691406 C 467.636719 268.09375 466.566406 264.667969 467.070313 262.21875 C 468.109375 258.035156 471.09375 255.839844 474.675781 255.867188 C 477.566406 255.996094 480.269531 257.566406 481.714844 260.207031 C 483.820313 264.636719 483.539063 270.074219 479.957031 273.65625 C 478.886719 274.914063 477.441406 275.164063 476.3125 276.046875 C 479.703125 278.9375 480.992188 279.566406 481.277344 283.621094 C 481.9375 287.578125 478.164063 286.792969 479.484375 283.777344 C 478.667969 279.441406 476.375 277.933594 471.660156 276.675781 C 466.128906 275.921875 461.351563 270.324219 459.589844 265.359375 C 458.710938 262.59375 458.710938 258.949219 459.402344 256.183594 C 456.699219 253.230469 456.195313 248.765625 457.140625 244.871094 C 457.707031 243.425781 458.523438 241.976563 459.71875 240.910156 C 457.578125 238.332031 456.824219 233.460938 458.019531 230.316406 C 458.898438 227.867188 461.664063 225.132813 464.367188 225.070313 L 466.472656 225.824219 C 469.207031 227.082031 468.578125 232.425781 465.5625 232.359375 C 464.335938 232.265625 462.136719 232.109375 462.230469 229.691406 C 460.660156 231.011719 460.15625 233.148438 460.09375 235.03125 C 460.410156 236.917969 462.703125 239.96875 464.335938 240.972656 C 466.160156 241.789063 470.464844 242.007813 472.886719 241.066406 C 477.789063 238.679688 479.265625 233.210938 478.730469 228.558594 C 478.101563 224.914063 473.859375 220.984375 470.402344 219.980469 C 465.75 218.125 461.507813 219.066406 458.019531 220.890625 C 453.496094 223.625 448.621094 228.96875 446.863281 242.074219 C 443.699219 265.625 470.277344 290.816406 478.132813 311.371094 C 483.652344 324.027344 486.078125 337.835938 482.824219 351.195313 Z M 483.296875 188.929688 C 480.992188 198.382813 474.707031 204.039063 469.496094 204.410156 C 460.253906 205.925781 456.164063 196.183594 462.355469 194.335938 C 467.480469 192.726563 469.679688 200.582031 463.34375 199.757813 C 466.535156 204.039063 474.078125 200.894531 476.394531 195.675781 C 483.828125 178.902344 478.347656 154.882813 468.925781 139.925781 C 464.964844 133.640625 461.035156 126.882813 454.78125 126.035156 C 451.136719 126.253906 449.722656 129.242188 449.28125 131.191406 C 447.996094 136.15625 451.453125 144.011719 457.140625 145.804688 C 459.308594 146.210938 461.257813 144.230469 461.761719 143.351563 C 462.148438 140.558594 462.136719 136.628906 457.613281 135.085938 C 457.234375 134.835938 457.578125 137.097656 455.789063 137.789063 C 453.023438 138.511719 451.609375 133.796875 455.570313 132.636719 C 458.050781 132.699219 459.308594 132.855469 461.070313 134.425781 C 464.023438 136.816406 465.910156 141.96875 464.398438 145.835938 C 467.324219 148.726563 468.894531 156.269531 465.910156 157.839844 C 468.109375 161.140625 468.578125 166.796875 467.289063 170.097656 C 463.355469 180.816406 455.535156 178.898438 460.410156 186.535156 L 460.1875 188.449219 C 458.050781 187.539063 456.921875 184.492188 456.730469 181.851563 C 456.855469 179.273438 457.578125 177.484375 459.621094 175.503906 C 457.738281 175.125 454.28125 173.648438 453.398438 171.574219 C 452.144531 168.933594 451.765625 166.796875 453.242188 164.410156 C 455.695313 161.769531 459.621094 166.640625 454.5 168.273438 C 454.375 170.035156 455.378906 171.730469 457.707031 172.863281 C 459.9375 173.710938 463.394531 170.882813 464.148438 168.871094 C 465.46875 164.410156 464.335938 159.726563 461.164063 156.332031 C 456.890625 151.554688 450.949219 147.65625 448.433594 142.1875 C 447.523438 140.242188 447.367188 138.511719 446.925781 136.59375 C 445.605469 131.566406 446.863281 126.285156 450.507813 122.828125 C 448.058594 118.933594 448.058594 112.648438 450.507813 108.5 C 442.644531 94.957031 440.46875 64.519531 454.6875 54.222656 C 457.421875 52.242188 466.851563 47.527344 476.703125 53.941406 C 484.851563 59.242188 484.921875 68.269531 482.503906 74.871094 C 480.992188 79.898438 473.292969 83.671875 470.527344 84.332031 C 466.378906 88.699219 464.808594 91.058594 463.582031 93.132813 C 462.324219 96.714844 462.167969 101.929688 464.683594 105.074219 C 466.066406 107.398438 468.265625 110.699219 473.796875 110.824219 C 475.996094 110.699219 479.015625 108.46875 479.703125 106.269531 C 481.476563 101.09375 479.464844 99.089844 478.320313 97.59375 C 477.378906 96.460938 475.148438 96.085938 473.890625 95.894531 C 470.464844 96.085938 469.367188 101.113281 470.96875 102.527344 C 474.394531 98.914063 475.652344 107.242188 470.875 106.425781 C 468.109375 105.828125 467.039063 102.402344 467.542969 99.949219 C 468.578125 95.769531 471.566406 93.570313 475.148438 93.601563 C 478.039063 93.726563 480.742188 95.300781 482.1875 97.9375 C 484.292969 102.371094 484.011719 107.808594 480.429688 111.390625 C 479.359375 112.648438 477.914063 112.898438 476.78125 113.777344 C 480.175781 116.671875 481.464844 117.300781 481.746094 121.351563 C 482.40625 125.3125 478.636719 124.527344 479.957031 121.511719 C 479.140625 117.171875 476.84375 115.664063 472.132813 114.40625 C 466.601563 113.652344 461.824219 108.058594 460.0625 103.09375 C 459.183594 100.328125 459.183594 96.683594 459.875 93.914063 C 457.171875 90.960938 456.667969 86.5 457.613281 82.601563 C 458.175781 81.15625 458.996094 79.710938 460.1875 78.644531 C 458.050781 76.066406 457.296875 71.195313 458.492188 68.050781 C 459.371094 65.601563 462.136719 62.867188 464.839844 62.804688 L 466.945313 63.558594 C 469.679688 64.8125 469.050781 70.15625 466.035156 70.09375 C 464.808594 70 462.609375 69.84375 462.703125 67.421875 C 461.132813 68.742188 460.628906 70.878906 460.566406 72.765625 C 460.878906 74.652344 463.175781 77.699219 464.808594 78.703125 C 466.632813 79.523438 470.9375 79.742188 473.355469 78.800781 C 478.261719 76.410156 479.738281 70.941406 479.203125 66.289063 C 478.574219 62.644531 474.332031 58.71875 470.875 57.710938 C 466.222656 55.855469 461.980469 56.800781 458.492188 58.621094 C 453.964844 61.355469 449.09375 66.699219 447.335938 79.804688 C 444.171875 103.355469 470.746094 128.550781 478.605469 149.105469 C 484.125 161.761719 486.550781 175.570313 483.296875 188.929688 "/>
<path style=" stroke:none;fill-rule:nonzero;fill:rgb(0%,0%,0%);fill-opacity:1;" d="M 25.996094 104.890625 C 24.488281 105.644531 26.375 110.359375 27.789063 112.148438 C 28.574219 111.144531 29.832031 110.671875 31.90625 110.484375 C 30.460938 108.726563 26.941406 106.839844 25.996094 104.890625 "/>
<path style=" stroke:none;fill-rule:nonzero;fill:rgb(0%,0%,0%);fill-opacity:1;" d="M 37.75 138.394531 C 36.179688 138.707031 34.417969 138.394531 32.785156 138.078125 C 35.300781 141.472656 36.554688 144.425781 38.628906 147.820313 C 39.574219 144.457031 39.195313 141.410156 37.75 138.394531 "/>
<path style=" stroke:none;fill-rule:nonzero;fill:rgb(0%,0%,0%);fill-opacity:1;" d="M 28.980469 179.375 C 29.800781 178.808594 29.832031 178.304688 30.332031 177.613281 C 31.714844 174.910156 30.773438 171.707031 29.453125 169.316406 C 28.257813 172.398438 26.46875 174.1875 24.332031 176.828125 C 26.84375 176.828125 28.101563 178.398438 28.980469 179.375 "/>
<path style=" stroke:none;fill-rule:nonzero;fill:rgb(0%,0%,0%);fill-opacity:1;" d="M 36.761719 299.46875 C 35.1875 299.78125 33.429688 299.46875 31.792969 299.15625 C 34.308594 302.550781 35.566406 305.503906 37.640625 308.898438 C 38.582031 305.535156 38.207031 302.484375 36.761719 299.46875 "/>
<path style=" stroke:none;fill-rule:nonzero;fill:rgb(0%,0%,0%);fill-opacity:1;" d="M 25.320313 429.234375 C 23.8125 429.988281 25.699219 434.703125 27.113281 436.492188 C 27.898438 435.488281 29.15625 435.015625 31.230469 434.828125 C 29.785156 433.066406 26.265625 431.183594 25.320313 429.234375 "/>
<path style=" stroke:none;fill-rule:nonzero;fill:rgb(0%,0%,0%);fill-opacity:1;" d="M 32.109375 462.421875 C 34.625 465.816406 35.878906 468.769531 37.953125 472.164063 C 38.898438 468.800781 38.519531 465.753906 37.074219 462.734375 C 35.503906 463.050781 33.742188 462.734375 32.109375 462.421875 "/>
<path style=" stroke:none;fill-rule:nonzero;fill:rgb(0%,0%,0%);fill-opacity:1;" d="M 28.304688 503.71875 C 29.125 503.152344 29.15625 502.648438 29.65625 501.957031 C 31.039063 499.253906 30.097656 496.050781 28.777344 493.660156 C 27.582031 496.742188 25.792969 498.53125 23.65625 501.171875 C 26.167969 501.171875 27.425781 502.742188 28.304688 503.71875 "/>
<path style=" stroke:none;fill-rule:nonzero;fill:rgb(0%,0%,0%);fill-opacity:1;" d="M 25.210938 266.171875 C 23.703125 266.925781 25.589844 271.640625 27.003906 273.429688 C 27.789063 272.425781 29.042969 271.953125 31.117188 271.765625 C 29.671875 270.003906 26.152344 268.121094 25.210938 266.171875 "/>
<path style=" stroke:none;fill-rule:nonzero;fill:rgb(0%,0%,0%);fill-opacity:1;" d="M 27.992188 340.449219 C 28.808594 339.886719 28.839844 339.382813 29.34375 338.691406 C 30.726563 335.988281 29.785156 332.78125 28.464844 330.394531 C 27.269531 333.472656 25.476563 335.265625 23.339844 337.90625 C 25.855469 337.90625 27.113281 339.476563 27.992188 340.449219 "/>
<path style=" stroke:none;fill-rule:nonzero;fill:rgb(0%,0%,0%);fill-opacity:1;" d="M 464.398438 155.136719 C 465.910156 154.382813 464.023438 149.667969 462.609375 147.878906 C 461.824219 148.882813 460.566406 149.355469 458.492188 149.542969 C 459.9375 151.304688 463.457031 153.1875 464.398438 155.136719 "/>
<path style=" stroke:none;fill-rule:nonzero;fill:rgb(0%,0%,0%);fill-opacity:1;" d="M 452.644531 121.636719 C 454.21875 121.320313 455.976563 121.636719 457.613281 121.949219 C 455.097656 118.554688 453.839844 115.601563 451.765625 112.207031 C 450.824219 115.570313 451.199219 118.617188 452.644531 121.636719 "/>
<path style=" stroke:none;fill-rule:nonzero;fill:rgb(0%,0%,0%);fill-opacity:1;" d="M 461.210938 80.449219 C 460.394531 81.015625 460.359375 81.519531 459.859375 82.210938 C 458.476563 84.910156 459.417969 88.117188 460.738281 90.507813 C 461.933594 87.425781 463.722656 85.636719 465.859375 82.996094 C 463.347656 82.996094 462.089844 81.425781 461.210938 80.449219 "/>
<path style=" stroke:none;fill-rule:nonzero;fill:rgb(0%,0%,0%);fill-opacity:1;" d="M 463.722656 478.480469 C 465.234375 477.726563 463.347656 473.011719 461.933594 471.222656 C 461.148438 472.226563 459.890625 472.699219 457.816406 472.886719 C 459.261719 474.648438 462.78125 476.53125 463.722656 478.480469 "/>
<path style=" stroke:none;fill-rule:nonzero;fill:rgb(0%,0%,0%);fill-opacity:1;" d="M 451.96875 444.980469 C 453.539063 444.664063 455.300781 444.980469 456.9375 445.292969 C 454.421875 441.898438 453.164063 438.945313 451.089844 435.550781 C 450.148438 438.914063 450.523438 441.960938 451.96875 444.980469 "/>
<path style=" stroke:none;fill-rule:nonzero;fill:rgb(0%,0%,0%);fill-opacity:1;" d="M 460.738281 403.996094 C 459.921875 404.5625 459.890625 405.066406 459.386719 405.757813 C 458.003906 408.460938 458.945313 411.664063 460.265625 414.054688 C 461.460938 410.976563 463.253906 409.183594 465.390625 406.542969 C 462.875 406.542969 461.617188 404.972656 460.738281 403.996094 "/>
<path style=" stroke:none;fill-rule:nonzero;fill:rgb(0%,0%,0%);fill-opacity:1;" d="M 463.722656 317.199219 C 465.234375 316.445313 463.347656 311.730469 461.933594 309.941406 C 461.148438 310.945313 459.890625 311.417969 457.816406 311.605469 C 459.261719 313.367188 462.78125 315.253906 463.722656 317.199219 "/>
<path style=" stroke:none;fill-rule:nonzero;fill:rgb(0%,0%,0%);fill-opacity:1;" d="M 451.96875 283.699219 C 453.539063 283.382813 455.300781 283.699219 456.9375 284.011719 C 454.421875 280.617188 453.164063 277.664063 451.089844 274.269531 C 450.148438 277.632813 450.523438 280.679688 451.96875 283.699219 "/>
<path style=" stroke:none;fill-rule:nonzero;fill:rgb(0%,0%,0%);fill-opacity:1;" d="M 460.738281 242.71875 C 459.921875 243.28125 459.890625 243.785156 459.386719 244.476563 C 458.003906 247.179688 458.945313 250.386719 460.265625 252.773438 C 461.460938 249.695313 463.253906 247.902344 465.390625 245.261719 C 462.875 245.261719 461.617188 243.691406 460.738281 242.71875 "/>
<path style=" stroke:none;fill-rule:nonzero;fill:rgb(0%,0%,0%);fill-opacity:1;" d="M 105.382813 33.480469 C 107.140625 32.035156 109.027344 28.515625 110.976563 27.574219 C 110.222656 26.0625 105.507813 27.949219 103.714844 29.363281 C 104.722656 30.148438 105.191406 31.40625 105.382813 33.480469 "/>
<path style=" stroke:none;fill-rule:nonzero;fill:rgb(0%,0%,0%);fill-opacity:1;" d="M 77.472656 39.328125 C 77.160156 37.753906 77.472656 35.996094 77.789063 34.359375 C 74.394531 36.875 71.441406 38.132813 68.046875 40.207031 C 71.410156 41.148438 74.457031 40.773438 77.472656 39.328125 "/>
<path style=" stroke:none;fill-rule:nonzero;fill:rgb(0%,0%,0%);fill-opacity:1;" d="M 38.253906 31.910156 C 40.957031 33.292969 44.160156 32.351563 46.550781 31.03125 C 43.46875 29.835938 41.675781 28.042969 39.039063 25.90625 C 39.039063 28.421875 37.46875 29.679688 36.492188 30.558594 C 37.058594 31.375 37.5625 31.40625 38.253906 31.910156 "/>
<path style=" stroke:none;fill-rule:nonzero;fill:rgb(0%,0%,0%);fill-opacity:1;" d="M 428.929688 33.167969 C 430.691406 31.722656 432.574219 28.203125 434.523438 27.257813 C 433.769531 25.75 429.054688 27.636719 427.265625 29.050781 C 428.269531 29.835938 428.742188 31.09375 428.929688 33.167969 "/>
<path style=" stroke:none;fill-rule:nonzero;fill:rgb(0%,0%,0%);fill-opacity:1;" d="M 401.023438 39.011719 C 400.707031 37.441406 401.023438 35.679688 401.335938 34.046875 C 397.941406 36.5625 394.988281 37.816406 391.59375 39.894531 C 394.957031 40.835938 398.003906 40.457031 401.023438 39.011719 "/>
<path style=" stroke:none;fill-rule:nonzero;fill:rgb(0%,0%,0%);fill-opacity:1;" d="M 361.800781 31.597656 C 364.503906 32.980469 367.710938 32.035156 370.097656 30.714844 C 367.015625 29.519531 365.226563 27.730469 362.585938 25.59375 C 362.585938 28.105469 361.015625 29.363281 360.039063 30.242188 C 360.605469 31.0625 361.109375 31.09375 361.800781 31.597656 "/>
<path style=" stroke:none;fill-rule:nonzero;fill:rgb(0%,0%,0%);fill-opacity:1;" d="M 267.078125 33.167969 C 268.839844 31.722656 270.722656 28.203125 272.671875 27.257813 C 271.917969 25.75 267.203125 27.636719 265.410156 29.050781 C 266.417969 29.835938 266.890625 31.09375 267.078125 33.167969 "/>
<path style=" stroke:none;fill-rule:nonzero;fill:rgb(0%,0%,0%);fill-opacity:1;" d="M 239.171875 39.011719 C 238.855469 37.441406 239.171875 35.679688 239.484375 34.046875 C 236.089844 36.5625 233.136719 37.816406 229.742188 39.894531 C 233.105469 40.835938 236.152344 40.457031 239.171875 39.011719 "/>
<path style=" stroke:none;fill-rule:nonzero;fill:rgb(0%,0%,0%);fill-opacity:1;" d="M 199.949219 31.597656 C 202.652344 32.980469 205.855469 32.035156 208.246094 30.714844 C 205.164063 29.519531 203.371094 27.730469 200.734375 25.59375 C 200.734375 28.105469 199.160156 29.363281 198.1875 30.242188 C 198.753906 31.0625 199.257813 31.09375 199.949219 31.597656 "/>
<path style=" stroke:none;fill-rule:nonzero;fill:rgb(0%,0%,0%);fill-opacity:1;" d="M 384.382813 549.820313 C 382.621094 551.265625 380.734375 554.785156 378.785156 555.730469 C 379.542969 557.238281 384.257813 555.351563 386.046875 553.9375 C 385.039063 553.152344 384.570313 551.894531 384.382813 549.820313 "/>
<path style=" stroke:none;fill-rule:nonzero;fill:rgb(0%,0%,0%);fill-opacity:1;" d="M 412.289063 543.976563 C 412.605469 545.546875 412.289063 547.308594 411.976563 548.941406 C 415.367188 546.425781 418.324219 545.167969 421.71875 543.09375 C 418.355469 542.152344 415.304688 542.53125 412.289063 543.976563 "/>
<path style=" stroke:none;fill-rule:nonzero;fill:rgb(0%,0%,0%);fill-opacity:1;" d="M 451.511719 551.394531 C 448.808594 550.011719 445.601563 550.953125 443.214844 552.273438 C 446.292969 553.46875 448.085938 555.257813 450.726563 557.394531 C 450.726563 554.882813 452.296875 553.625 453.269531 552.742188 C 452.703125 551.925781 452.203125 551.894531 451.511719 551.394531 "/>
<path style=" stroke:none;fill-rule:nonzero;fill:rgb(0%,0%,0%);fill-opacity:1;" d="M 61.621094 550.136719 C 59.859375 551.582031 57.972656 555.101563 56.027344 556.042969 C 56.78125 557.550781 61.492188 555.667969 63.285156 554.253906 C 62.28125 553.46875 61.808594 552.210938 61.621094 550.136719 "/>
<path style=" stroke:none;fill-rule:nonzero;fill:rgb(0%,0%,0%);fill-opacity:1;" d="M 89.527344 544.289063 C 89.839844 545.859375 89.527344 547.621094 89.214844 549.253906 C 92.605469 546.742188 95.5625 545.484375 98.957031 543.410156 C 95.59375 542.46875 92.542969 542.84375 89.527344 544.289063 "/>
<path style=" stroke:none;fill-rule:nonzero;fill:rgb(0%,0%,0%);fill-opacity:1;" d="M 128.75 551.707031 C 126.046875 550.324219 122.839844 551.265625 120.453125 552.585938 C 123.53125 553.78125 125.324219 555.574219 127.964844 557.710938 C 127.964844 555.195313 129.535156 553.9375 130.507813 553.058594 C 129.941406 552.242188 129.441406 552.210938 128.75 551.707031 "/>
<path style=" stroke:none;fill-rule:nonzero;fill:rgb(0%,0%,0%);fill-opacity:1;" d="M 222.113281 550.136719 C 220.355469 551.582031 218.46875 555.101563 216.519531 556.042969 C 217.273438 557.550781 221.988281 555.667969 223.78125 554.253906 C 222.773438 553.46875 222.304688 552.210938 222.113281 550.136719 "/>
<path style=" stroke:none;fill-rule:nonzero;fill:rgb(0%,0%,0%);fill-opacity:1;" d="M 250.023438 544.289063 C 250.335938 545.859375 250.023438 547.621094 249.707031 549.253906 C 253.101563 546.742188 256.054688 545.484375 259.449219 543.410156 C 256.089844 542.46875 253.039063 542.84375 250.023438 544.289063 "/>
<path style=" stroke:none;fill-rule:nonzero;fill:rgb(0%,0%,0%);fill-opacity:1;" d="M 289.242188 551.707031 C 286.539063 550.324219 283.335938 551.265625 280.945313 552.585938 C 284.027344 553.78125 285.816406 555.574219 288.460938 557.710938 C 288.460938 555.195313 290.03125 553.9375 291.003906 553.058594 C 290.4375 552.242188 289.9375 552.210938 289.242188 551.707031 "/>
</g>
</svg>
