<?xml version="1.0" encoding="UTF-8"?>
<svg xmlns="http://www.w3.org/2000/svg" xmlns:xlink="http://www.w3.org/1999/xlink" width="511pt" height="634pt" viewBox="0 0 511 634" version="1.1">
<g id="surface1">
<path style=" stroke:none;fill-rule:nonzero;fill:rgb(0%,0%,0%);fill-opacity:1;" d="M 172.4375 594.925781 C 177.589844 587.257813 176.585938 574.492188 167.726563 571.359375 C 160.730469 570.410156 154.171875 572.945313 148.441406 576.3125 C 150.59375 563.1875 165.957031 565.316406 169.226563 552.800781 C 169.609375 536.226563 153.339844 532.679688 144.636719 538.789063 C 138.128906 544.96875 139.796875 553.441406 142.136719 561.117188 C 132.878906 568.082031 122.125 572.933594 110.992188 577.113281 C 113.703125 569.359375 122.402344 567.152344 124.40625 559.203125 C 127.140625 537.929688 102.746094 540.253906 97.183594 549.941406 C 92.5 555.679688 92.4375 564.65625 96.027344 571.089844 C 91.636719 574.941406 87.980469 579.5625 82.957031 582.292969 C 55.742188 579.839844 27.9375 590.867188 9.09375 608.183594 L 10.316406 624.960938 C 10.316406 624.960938 27.019531 615.003906 32.425781 612.230469 C 55.011719 600.628906 82.742188 594.730469 108.058594 594.710938 C 103.230469 605.621094 105.257813 620.164063 110.144531 631.078125 C 116.394531 624.453125 122.136719 617.347656 127.53125 609.726563 C 135.488281 618.542969 147.835938 624.332031 159.59375 623.765625 C 156.496094 614.328125 154.675781 604.226563 150.421875 595.683594 C 156.324219 597.519531 163.773438 603.953125 172.4375 594.925781 Z M 138.96875 610.46875 C 132.148438 604.917969 128.019531 597.429688 125.523438 588.953125 C 122.574219 604.769531 118.734375 612.285156 113.414063 617.316406 C 110.210938 611.140625 112.789063 603.160156 114.378906 596.457031 C 116.308594 592.757813 119.757813 584.109375 119.757813 584.109375 C 93.617188 595.140625 67.824219 588.269531 40.753906 599.886719 C 31.890625 603.371094 24.429688 608.90625 17.253906 614.632813 C 15.757813 612.519531 16.820313 609.488281 16.988281 606.964844 C 35.289063 589.835938 66.574219 583.519531 89.171875 586.46875 C 94.589844 581.503906 99.8125 575.992188 105.675781 571.601563 C 103.710938 575.972656 99.542969 580.945313 96.972656 585.183594 C 112.480469 582.707031 127.050781 577.039063 139.828125 569.1875 C 141.910156 567.910156 147.585938 564.777344 148.007813 563.53125 C 147.796875 568.800781 142.445313 572.84375 138.410156 575.546875 C 138.410156 575.546875 144.34375 579.527344 146.761719 581.707031 C 146.761719 581.707031 126.890625 581.128906 126.21875 581.925781 C 130.574219 588.769531 136.242188 594.484375 139.617188 596.894531 C 144.265625 601.957031 147.570313 607.78125 149.851563 614.308594 C 146.238281 614.933594 142.699219 611.726563 138.96875 610.46875 "/>
<path style=" stroke:none;fill-rule:nonzero;fill:rgb(0%,0%,0%);fill-opacity:1;" d="M 141.519531 114.894531 C 154.238281 118.074219 167.09375 120.976563 180.78125 121.808594 C 181.347656 124.992188 181.609375 130.792969 183.269531 134.800781 C 177.324219 139.085938 170.550781 142.128906 165.851563 148.210938 C 158.945313 157.28125 166.800781 184.765625 200.269531 178.070313 C 207.734375 190.234375 220.039063 195.488281 233.035156 196.457031 C 226.386719 212.546875 235.429688 236.542969 259.4375 234.335938 C 261.09375 244.472656 277.542969 245.773438 289.296875 235.855469 C 292.339844 232.8125 293.445313 228.113281 294.273438 223.828125 C 299.664063 225.625 304.089844 230.324219 308.234375 233.78125 C 312.796875 253.824219 309.066406 275.53125 301.738281 293.085938 C 294.6875 311.472656 283.90625 329.441406 278.378906 347.277344 C 289.714844 340.226563 324.121094 312.890625 325.261719 310.578125 C 332.289063 296.332031 327.921875 276.070313 335.054688 261.707031 C 348.878906 267.648438 364.777344 272.628906 379.84375 271.660156 C 373.347656 254.515625 363.945313 238.621094 351.503906 223.828125 C 363.671875 213.046875 372.933594 200.1875 375.835938 185.121094 C 359.523438 184.015625 346.941406 188.578125 332.566406 190.511719 C 345.40625 179.128906 345.925781 171.46875 341.515625 161.640625 C 337.246094 152.117188 355.753906 149.128906 353.992188 138.8125 C 353.300781 131.347656 348.1875 125.402344 342.519531 120.425781 C 331.597656 114.34375 319.15625 118.074219 309.757813 124.847656 C 291.226563 120.214844 278.347656 123.742188 277.410156 140.746094 L 261.371094 121.808594 C 269.390625 118.902344 279.757813 114.894531 282.386719 105.496094 C 280.4375 98.355469 288.054688 96.71875 292.058594 92.4375 C 293.171875 91.246094 295.613281 82.664063 295.828125 80.21875 C 298.21875 53.167969 265.222656 47.023438 249.484375 59.183594 C 243.125 53.101563 249.347656 42.183594 246.027344 34.300781 C 243.816406 27.804688 237.042969 22.414063 230.546875 21.308594 C 218.320313 21.308594 206.570313 25.394531 206.101563 38.121094 C 205.890625 43.773438 207.511719 49.800781 202.761719 54.207031 C 200.964844 48.402344 199.855469 41.765625 198.199219 36.238281 C 198.335938 32.226563 201.652344 28.496094 202.761719 24.347656 C 204.695313 16.328125 201.347656 9.242188 194.742188 4.441406 C 174.992188 -7.660156 162.867188 9.714844 165.449219 19.714844 C 167.023438 25.800781 172.144531 31.199219 176.355469 36.238281 C 176.355469 36.238281 154.238281 26.699219 141.519531 30.292969 C 148.015625 41.765625 155.203125 52.824219 164.328125 63.195313 C 159.628906 62.363281 152.441406 60.152344 147.464844 63.195313 C 139.816406 68.382813 139.546875 82.316406 151.007813 87.109375 C 157.554688 89.84375 165.058594 86.382813 169.304688 83.515625 L 178.289063 90.980469 C 164.328125 94.988281 150.230469 101.347656 141.519531 114.894531 Z M 200.6875 98.03125 L 201.652344 96.925781 C 191.5625 89.046875 180.226563 83.238281 170.828125 74.527344 C 177.460938 75.082031 183.820313 79.089844 189.765625 82.546875 C 194.1875 85.589844 198.75 88.492188 203.175781 91.53125 C 201.238281 85.449219 196.675781 79.089844 194.1875 72.59375 C 179.398438 64.023438 162.945313 54.621094 152.992188 38.726563 C 169.167969 38.726563 180.363281 51.859375 191.699219 62.640625 C 190.59375 55.867188 187.828125 48.402344 188.246094 40.246094 C 193.636719 53.515625 197.367188 67.339844 204.140625 80.058594 C 206.769531 70.796875 210.226563 61.398438 216.585938 54.207031 C 213.402344 65.269531 208.980469 75.773438 207.183594 87.523438 C 213.957031 98.859375 223.910156 107.984375 233.035156 117.9375 C 233.035156 117.9375 235.9375 100.65625 238.011719 93.054688 C 234.96875 86.417969 225.292969 81.71875 226.121094 73.148438 C 228.085938 66.160156 233.847656 59.480469 244.375 66.710938 C 247.679688 68.976563 250.484375 72.535156 250.453125 77.570313 C 254.601563 73.285156 255.980469 65.960938 262.480469 63.195313 C 282.914063 59.714844 284.410156 73.453125 277.71875 81.550781 C 273.324219 86.863281 264.96875 86.972656 264.96875 86.972656 C 269.390625 90.980469 273.261719 96.785156 270.910156 103.421875 C 269.683594 108.945313 253.816406 119.617188 242.574219 98.03125 C 241.328125 108.121094 242.15625 118.902344 244.507813 128.304688 C 262.0625 145.308594 281.695313 163.695313 294.273438 183.046875 C 296.015625 176.992188 301.324219 164.109375 304.226563 159.132813 C 293.1875 151.378906 287.292969 138.085938 298.269531 133.285156 C 302.285156 131.53125 308.585938 133.183594 313.628906 137.289063 C 319.570313 133.558594 322.199219 124.019531 330.632813 124.296875 C 341.042969 124.804688 357.007813 138.292969 341 150.699219 C 338.371094 153.324219 332.429688 149.316406 331.046875 154.15625 C 330.1875 175.179688 327.289063 175.476563 317.902344 171.601563 C 313.441406 169.761719 309.253906 166.570313 305.746094 163.140625 C 300.3125 171.425781 306.164063 200.464844 306.164063 200.464844 C 310.863281 208.761719 313.214844 217.746094 316.667969 226.316406 C 325.378906 210.28125 342.105469 200.742188 358.003906 196.042969 C 354.378906 213.828125 342.859375 210.011719 330.632813 226.316406 C 344.316406 233.921875 357.863281 247.46875 363.945313 261.707031 C 348.1875 256.039063 332.703125 249.265625 319.15625 238.34375 C 318.605469 241.523438 321.269531 251.925781 321.480469 253.519531 C 323.804688 270.90625 319.871094 287.210938 318.605469 304.558594 L 296.210938 326.953125 C 305.472656 304.421875 319.570313 279.125 316.667969 250.230469 L 312.660156 230.324219 L 282.800781 206.410156 C 281.972656 206.546875 280.863281 206.132813 280.3125 206.964844 C 282.996094 209.851563 283.519531 213.667969 283.902344 217.484375 C 284.636719 224.804688 272.410156 237.433594 266.371094 232.324219 C 265.308594 231.425781 262.347656 226.65625 263.859375 219.957031 C 259.707031 221.617188 255.921875 223.773438 252.015625 223.5 C 244.046875 222.9375 234.390625 207.945313 246.613281 197.910156 C 250.898438 194.394531 256.199219 194.183594 259.992188 197.976563 C 261.097656 196.457031 259.851563 192.722656 260.960938 190.511719 C 261.441406 184.734375 273.175781 179.367188 280.863281 187.054688 C 287.183594 193.824219 286.394531 201.019531 289.296875 207.929688 C 296.070313 211.246094 303.121094 213.320313 309.203125 217.882813 L 310.171875 216.914063 C 300.21875 198.117188 290.128906 179.316406 273.816406 163.140625 C 263.027344 159.398438 243.039063 154.800781 228.710938 149.605469 C 226.066406 157.589844 229.09375 162.460938 230.417969 168.875 C 232.839844 180.601563 210.289063 187.03125 205.246094 174.0625 C 205.523438 170.605469 204.558594 165.90625 204.140625 162.726563 C 193.324219 176.464844 181.601563 173.03125 177.324219 161.621094 C 176.910156 157.886719 177.601563 153.1875 180.78125 150.285156 C 185.339844 146.96875 190.457031 145.445313 195.710938 143.785156 C 193.222656 139.226563 188.382813 135.078125 190.316406 129.273438 C 192.253906 125.679688 195.847656 124.15625 199.71875 123.882813 C 211.117188 125.78125 213.667969 138.441406 222.097656 143.742188 L 251.003906 152.773438 L 252.527344 151.667969 C 237.734375 137.566406 209.660156 103.019531 208.878906 102.296875 C 203.417969 97.238281 197.507813 107.792969 191.699219 108.398438 C 180.78125 111.578125 167.921875 113.238281 156.863281 108.949219 C 169.167969 100.65625 184.789063 96.925781 200.6875 98.03125 "/>
<path style=" stroke:none;fill-rule:nonzero;fill:rgb(0%,0%,0%);fill-opacity:1;" d="M 0.847656 391.359375 C 7.84375 393.109375 14.914063 394.703125 22.441406 395.160156 C 22.753906 396.910156 22.898438 400.101563 23.808594 402.308594 C 20.539063 404.664063 16.816406 406.335938 14.230469 409.683594 C 10.433594 414.671875 14.753906 429.785156 33.160156 426.105469 C 37.265625 432.796875 44.035156 435.6875 51.179688 436.21875 C 47.527344 445.066406 52.5 458.265625 65.703125 457.050781 C 66.613281 462.628906 75.660156 463.34375 82.125 457.886719 C 83.796875 456.214844 84.40625 453.628906 84.863281 451.273438 C 87.828125 452.261719 90.261719 454.847656 92.542969 456.746094 C 95.050781 467.769531 93 479.710938 88.96875 489.363281 C 85.089844 499.476563 79.160156 509.359375 76.121094 519.167969 C 82.355469 515.292969 101.277344 500.257813 101.90625 498.984375 C 105.773438 491.148438 103.367188 480.007813 107.292969 472.105469 C 114.894531 475.375 123.640625 478.113281 131.925781 477.578125 C 128.355469 468.152344 123.183594 459.40625 116.339844 451.273438 C 123.03125 445.34375 128.125 438.269531 129.722656 429.984375 C 120.75 429.375 113.832031 431.882813 105.925781 432.949219 C 112.984375 426.6875 113.273438 422.472656 110.847656 417.070313 C 108.496094 411.832031 118.679688 410.1875 117.710938 404.511719 C 117.328125 400.40625 114.515625 397.136719 111.398438 394.402344 C 105.390625 391.054688 98.546875 393.109375 93.378906 396.835938 C 83.1875 394.285156 76.105469 396.226563 75.585938 405.578125 L 66.769531 395.160156 C 71.175781 393.5625 76.878906 391.359375 78.324219 386.1875 C 77.253906 382.261719 81.441406 381.363281 83.644531 379.007813 C 84.257813 378.351563 85.601563 373.632813 85.71875 372.285156 C 87.03125 357.40625 68.886719 354.03125 60.230469 360.71875 C 56.730469 357.371094 60.152344 351.367188 58.328125 347.03125 C 57.109375 343.460938 53.386719 340.492188 49.8125 339.886719 C 43.089844 339.886719 36.625 342.132813 36.367188 349.132813 C 36.253906 352.242188 37.144531 355.558594 34.53125 357.980469 C 33.542969 354.789063 32.933594 351.136719 32.019531 348.097656 C 32.097656 345.890625 33.921875 343.839844 34.53125 341.558594 C 35.59375 337.148438 33.753906 333.25 30.121094 330.609375 C 19.257813 323.953125 12.589844 333.511719 14.007813 339.011719 C 14.875 342.355469 17.691406 345.328125 20.007813 348.097656 C 20.007813 348.097656 7.84375 342.851563 0.847656 344.828125 C 4.421875 351.136719 8.375 357.222656 13.394531 362.921875 C 10.808594 362.46875 6.855469 361.25 4.117188 362.921875 C -0.0898438 365.777344 -0.238281 373.441406 6.066406 376.078125 C 9.667969 377.582031 13.792969 375.675781 16.128906 374.101563 L 21.074219 378.207031 C 13.394531 380.410156 5.636719 383.90625 0.847656 391.359375 Z M 33.390625 382.085938 L 33.921875 381.476563 C 28.371094 377.140625 22.136719 373.949219 16.964844 369.15625 C 20.617188 369.460938 24.113281 371.667969 27.382813 373.566406 C 29.816406 375.242188 32.324219 376.835938 34.757813 378.511719 C 33.695313 375.164063 31.183594 371.667969 29.816406 368.09375 C 21.679688 363.378906 12.632813 358.210938 7.160156 349.464844 C 16.054688 349.464844 22.214844 356.6875 28.449219 362.617188 C 27.839844 358.894531 26.320313 354.789063 26.546875 350.300781 C 29.511719 357.601563 31.566406 365.203125 35.289063 372.199219 C 36.734375 367.105469 38.636719 361.933594 42.132813 357.980469 C 40.382813 364.0625 37.953125 369.84375 36.964844 376.304688 C 40.6875 382.539063 46.164063 387.558594 51.179688 393.03125 C 51.179688 393.03125 52.777344 383.527344 53.917969 379.347656 C 52.246094 375.695313 46.921875 373.113281 47.378906 368.398438 C 48.460938 364.554688 51.628906 360.882813 57.417969 364.855469 C 59.234375 366.105469 60.777344 368.0625 60.761719 370.828125 C 63.042969 368.472656 63.800781 364.445313 67.375 362.921875 C 78.617188 361.011719 79.4375 368.566406 75.757813 373.019531 C 73.34375 375.941406 68.742188 376 68.742188 376 C 71.175781 378.207031 73.304688 381.398438 72.015625 385.046875 C 71.339844 388.085938 62.609375 393.957031 56.425781 382.085938 C 55.742188 387.632813 56.199219 393.5625 57.492188 398.734375 C 67.148438 408.085938 77.945313 418.199219 84.863281 428.84375 C 85.820313 425.511719 88.742188 418.425781 90.335938 415.6875 C 84.265625 411.425781 81.023438 404.113281 87.0625 401.476563 C 89.269531 400.507813 92.734375 401.417969 95.507813 403.675781 C 98.777344 401.625 100.222656 396.378906 104.859375 396.53125 C 110.585938 396.808594 119.367188 404.230469 110.5625 411.050781 C 109.117188 412.496094 105.847656 410.289063 105.089844 412.953125 C 104.617188 424.515625 103.023438 424.679688 97.859375 422.546875 C 95.40625 421.535156 93.101563 419.78125 91.171875 417.894531 C 88.183594 422.449219 91.402344 438.421875 91.402344 438.421875 C 93.988281 442.984375 95.28125 447.925781 97.179688 452.640625 C 101.96875 443.820313 111.171875 438.574219 119.914063 435.988281 C 117.921875 445.773438 111.585938 443.675781 104.859375 452.640625 C 112.386719 456.824219 119.839844 464.273438 123.183594 472.105469 C 114.515625 468.988281 106 465.261719 98.546875 459.257813 C 98.246094 461.003906 99.710938 466.726563 99.828125 467.601563 C 101.105469 477.164063 98.941406 486.132813 98.246094 495.675781 L 85.925781 507.992188 C 91.023438 495.597656 98.777344 481.6875 97.179688 465.796875 L 94.976563 454.847656 L 78.550781 441.691406 C 78.097656 441.769531 77.488281 441.539063 77.183594 441.996094 C 78.660156 443.585938 78.949219 445.683594 79.160156 447.785156 C 79.5625 451.808594 72.835938 458.753906 69.519531 455.945313 C 68.929688 455.449219 67.304688 452.828125 68.136719 449.144531 C 65.851563 450.058594 63.769531 451.242188 61.621094 451.09375 C 57.238281 450.785156 51.925781 442.539063 58.648438 437.019531 C 61.003906 435.085938 63.921875 434.96875 66.007813 437.054688 C 66.617188 436.21875 65.929688 434.164063 66.539063 432.949219 C 66.804688 429.769531 73.261719 426.820313 77.488281 431.046875 C 80.960938 434.769531 80.53125 438.726563 82.125 442.527344 C 85.851563 444.355469 89.730469 445.492188 93.074219 448.003906 L 93.605469 447.472656 C 88.132813 437.128906 82.582031 426.789063 73.609375 417.894531 C 67.675781 415.835938 56.683594 413.308594 48.804688 410.449219 C 47.347656 414.839844 49.011719 417.519531 49.742188 421.046875 C 51.074219 427.496094 38.671875 431.035156 35.898438 423.902344 C 36.050781 422 35.519531 419.414063 35.289063 417.664063 C 29.339844 425.222656 22.894531 423.332031 20.539063 417.058594 C 20.3125 415.003906 20.691406 412.421875 22.441406 410.824219 C 24.949219 409 27.761719 408.160156 30.652344 407.25 C 29.285156 404.742188 26.621094 402.460938 27.6875 399.265625 C 28.75 397.289063 30.726563 396.453125 32.855469 396.300781 C 39.125 397.347656 40.53125 404.308594 45.164063 407.226563 L 61.066406 412.191406 L 61.902344 411.585938 C 53.765625 403.828125 38.324219 384.828125 37.898438 384.429688 C 34.890625 381.648438 31.640625 387.453125 28.449219 387.785156 C 22.441406 389.535156 15.371094 390.445313 9.289063 388.089844 C 16.054688 383.527344 24.644531 381.476563 33.390625 382.085938 "/>
<path style=" stroke:none;fill-rule:nonzero;fill:rgb(0%,0%,0%);fill-opacity:1;" d="M 329.953125 596.738281 C 335.101563 589.070313 334.097656 576.304688 325.238281 573.175781 C 318.242188 572.226563 311.683594 574.761719 305.953125 578.128906 C 308.105469 565.003906 323.46875 567.132813 326.738281 554.617188 C 327.121094 538.042969 310.851563 534.492188 302.148438 540.605469 C 295.644531 546.78125 297.308594 555.253906 299.644531 562.929688 C 290.390625 569.898438 279.636719 574.75 268.503906 578.929688 C 271.214844 571.175781 279.914063 568.96875 281.921875 561.019531 C 284.652344 539.746094 260.261719 542.070313 254.695313 551.757813 C 250.011719 557.492188 249.949219 566.472656 253.539063 572.90625 C 249.148438 576.757813 245.492188 581.378906 240.46875 584.109375 C 213.253906 581.652344 185.449219 592.679688 166.605469 610 L 167.828125 626.777344 C 167.828125 626.777344 184.53125 616.820313 189.9375 614.042969 C 212.523438 602.441406 240.253906 596.542969 265.570313 596.523438 C 260.742188 607.4375 262.769531 621.980469 267.65625 632.890625 C 273.90625 626.265625 279.648438 619.160156 285.042969 611.542969 C 293 620.355469 305.347656 626.148438 317.105469 625.582031 C 314.007813 616.144531 312.1875 606.042969 307.933594 597.496094 C 313.835938 599.335938 321.285156 605.765625 329.953125 596.738281 Z M 296.480469 612.285156 C 289.660156 606.734375 285.53125 599.242188 283.035156 590.769531 C 280.085938 606.585938 276.246094 614.101563 270.925781 619.132813 C 267.722656 612.953125 270.304688 604.976563 271.890625 598.269531 C 273.820313 594.570313 277.269531 585.921875 277.269531 585.921875 C 251.128906 596.957031 225.335938 590.085938 198.265625 601.699219 C 189.402344 605.183594 181.941406 610.71875 174.765625 616.449219 C 173.269531 614.332031 174.335938 611.300781 174.503906 608.777344 C 192.804688 591.648438 224.085938 585.335938 246.683594 588.28125 C 252.101563 583.316406 257.324219 577.804688 263.1875 573.414063 C 261.222656 577.785156 257.054688 582.757813 254.484375 587 C 269.988281 584.523438 284.5625 578.851563 297.34375 571 C 299.421875 569.722656 305.097656 566.589844 305.519531 565.34375 C 305.308594 570.617188 299.960938 574.65625 295.925781 577.359375 C 295.925781 577.359375 301.855469 581.339844 304.273438 583.523438 C 304.273438 583.523438 284.402344 582.945313 283.730469 583.742188 C 288.085938 590.585938 293.753906 596.296875 297.132813 598.707031 C 301.777344 603.769531 305.082031 609.597656 307.359375 616.121094 C 303.75 616.75 300.214844 613.542969 296.480469 612.285156 "/>
<path style=" stroke:none;fill-rule:nonzero;fill:rgb(0%,0%,0%);fill-opacity:1;" d="M 123.335938 509.007813 L 130.515625 517.476563 C 130.515625 517.476563 135.542969 505.671875 137.34375 502.085938 C 144.871094 487.113281 157.359375 473.179688 170.847656 463.316406 C 172.519531 471.011719 179.261719 477.976563 186.109375 481.890625 C 186.863281 475.925781 187.160156 469.902344 187.070313 463.742188 C 194.742188 465.34375 203.578125 463.628906 209.625 458.75 C 204.300781 454.925781 199.402344 450.246094 193.808594 447.347656 C 197.667969 446.03125 204.144531 446.5625 205.25 438.375 C 205.011719 432.285156 199.507813 425.871094 193.566406 427.648438 C 189.46875 429.863281 186.960938 433.769531 185.214844 437.792969 C 181.253906 429.960938 190.273438 425.117188 187.144531 417.171875 C 180.898438 408.1875 170.847656 412.625 168.585938 419.269531 C 167.519531 425.097656 171.703125 428.964844 175.9375 432.144531 C 173.714844 439.460938 169.871094 446.234375 165.5625 452.792969 C 163.992188 447.605469 167.769531 443.042969 165.746094 438.023438 C 158.921875 425.621094 146.824219 436.351563 147.628906 443.683594 C 147.363281 448.5625 150.824219 453.371094 155.242188 455.40625 C 154.402344 459.167969 154.25 463.054688 152.632813 466.464844 C 137.171875 475.746094 126.640625 492.445313 123.335938 509.007813 Z M 157.570313 466.269531 C 158.527344 461.515625 159.167969 456.546875 160.585938 451.925781 C 161.238281 455.019531 160.949219 459.289063 161.230469 462.550781 C 168.53125 455.195313 174.09375 446.503906 177.851563 437.347656 C 178.464844 435.855469 180.269531 431.976563 180.007813 431.148438 C 181.949219 434.039063 180.667969 438.277344 179.570313 441.285156 C 179.570313 441.285156 184.28125 441.101563 186.417969 441.320313 C 186.417969 441.320313 175.601563 448.746094 175.550781 449.433594 C 180.539063 451.386719 185.78125 452.226563 188.519531 452.195313 C 192.96875 453.085938 196.996094 454.90625 200.75 457.5 C 199.070313 459.238281 195.9375 458.90625 193.457031 459.6875 C 187.660156 459.382813 182.546875 456.996094 177.914063 453.449219 C 182.5 463.03125 183.378906 468.53125 182.5 473.28125 C 178.386719 471.238281 176.65625 465.980469 174.894531 461.785156 C 174.484375 459.0625 172.957031 453.113281 172.957031 453.113281 C 163.316406 469.164063 146.894531 475.539063 136.980469 492.265625 C 133.613281 497.574219 131.789063 503.425781 130.191406 509.273438 C 128.574219 508.726563 127.960938 506.695313 127.070313 505.285156 C 130.160156 489.035156 144.378906 473.492188 157.570313 466.269531 "/>
<path style=" stroke:none;fill-rule:nonzero;fill:rgb(0%,0%,0%);fill-opacity:1;" d="M 483.128906 573.59375 C 476.136719 572.644531 469.578125 575.179688 463.847656 578.546875 C 466 565.421875 481.359375 567.550781 484.628906 555.035156 C 485.015625 538.460938 468.746094 534.910156 460.042969 541.023438 C 453.535156 547.203125 455.199219 555.671875 457.539063 563.351563 C 448.28125 570.316406 437.53125 575.167969 426.398438 579.347656 C 429.109375 571.59375 437.804688 569.386719 439.8125 561.4375 C 442.546875 540.164063 418.152344 542.488281 412.589844 552.175781 C 407.90625 557.914063 407.84375 566.890625 411.433594 573.324219 C 407.042969 577.175781 403.386719 581.796875 398.359375 584.527344 C 371.144531 582.074219 343.34375 593.097656 324.5 610.417969 L 325.722656 627.195313 C 325.722656 627.195313 342.425781 617.238281 347.828125 614.464844 C 370.414063 602.863281 398.144531 596.964844 423.464844 596.945313 C 418.636719 607.855469 420.664063 622.402344 425.546875 633.3125 C 431.800781 626.6875 437.542969 619.582031 442.9375 611.964844 C 450.894531 620.777344 463.238281 626.566406 475 626 C 471.898438 616.5625 470.082031 606.460938 465.828125 597.917969 C 471.730469 599.753906 479.179688 606.1875 487.84375 597.160156 C 492.992188 589.492188 491.988281 576.726563 483.128906 573.59375 Z M 454.371094 612.703125 C 447.554688 607.152344 443.425781 599.664063 440.929688 591.1875 C 437.980469 607.003906 434.140625 614.523438 428.820313 619.550781 C 425.613281 613.375 428.195313 605.394531 429.785156 598.691406 C 431.714844 594.992188 435.160156 586.34375 435.160156 586.34375 C 409.019531 597.375 383.230469 590.503906 356.15625 602.121094 C 347.296875 605.605469 339.832031 611.140625 332.65625 616.867188 C 331.164063 614.753906 332.226563 611.722656 332.394531 609.199219 C 350.695313 592.070313 381.980469 585.753906 404.578125 588.703125 C 409.992188 583.734375 415.21875 578.226563 421.078125 573.835938 C 419.117188 578.207031 414.945313 583.175781 412.378906 587.417969 C 427.882813 584.941406 442.453125 579.273438 455.234375 571.421875 C 457.316406 570.144531 462.992188 567.011719 463.410156 565.765625 C 463.199219 571.035156 457.851563 575.078125 453.816406 577.78125 C 453.816406 577.78125 459.746094 581.761719 462.167969 583.941406 C 462.167969 583.941406 442.296875 583.363281 441.621094 584.160156 C 445.980469 591.003906 451.644531 596.71875 455.023438 599.125 C 459.671875 604.191406 462.976563 610.015625 465.253906 616.542969 C 461.640625 617.167969 458.105469 613.960938 454.371094 612.703125 "/>
<path style=" stroke:none;fill-rule:nonzero;fill:rgb(0%,0%,0%);fill-opacity:1;" d="M 377.988281 415.152344 C 371.746094 406.164063 361.691406 410.605469 359.429688 417.25 C 358.367188 423.074219 362.550781 426.941406 366.785156 430.125 C 364.5625 437.441406 360.71875 444.210938 356.410156 450.773438 C 354.835938 445.585938 358.613281 441.023438 356.589844 436.003906 C 349.769531 423.601563 337.671875 434.332031 338.476563 441.660156 C 338.210938 446.539063 341.671875 451.351563 346.089844 453.382813 C 345.246094 457.144531 345.09375 461.03125 343.476563 464.445313 C 328.015625 473.726563 317.484375 490.421875 314.179688 506.988281 L 321.359375 515.457031 C 321.359375 515.457031 326.390625 503.648438 328.191406 500.066406 C 335.71875 485.089844 348.203125 471.15625 361.691406 461.292969 C 363.363281 468.988281 370.105469 475.953125 376.953125 479.871094 C 377.710938 473.90625 378.007813 467.882813 377.917969 461.722656 C 385.589844 463.324219 394.425781 461.605469 400.472656 456.726563 C 395.148438 452.902344 390.246094 448.226563 384.652344 445.328125 C 388.515625 444.011719 394.988281 444.539063 396.09375 436.355469 C 395.855469 430.265625 390.355469 423.851563 384.414063 425.628906 C 380.316406 427.84375 377.804688 431.746094 376.0625 435.773438 C 372.101563 427.9375 381.117188 423.09375 377.988281 415.152344 Z M 377.265625 439.300781 C 377.265625 439.300781 366.445313 446.726563 366.398438 447.414063 C 371.382813 449.367188 376.628906 450.207031 379.367188 450.175781 C 383.8125 451.066406 387.84375 452.886719 391.597656 455.476563 C 389.914063 457.21875 386.78125 456.886719 384.300781 457.667969 C 378.507813 457.363281 373.390625 454.976563 368.761719 451.429688 C 373.34375 461.007813 374.222656 466.507813 373.34375 471.261719 C 369.230469 469.214844 367.503906 463.957031 365.742188 459.765625 C 365.328125 457.042969 363.804688 451.089844 363.804688 451.089844 C 354.160156 467.144531 337.738281 473.519531 327.828125 490.246094 C 324.460938 495.550781 322.636719 501.40625 321.039063 507.25 C 319.417969 506.707031 318.808594 504.675781 317.914063 503.265625 C 321.003906 487.011719 335.222656 471.472656 348.414063 464.25 C 349.371094 459.496094 350.011719 454.523438 351.429688 449.902344 C 352.085938 452.996094 351.796875 457.269531 352.074219 460.53125 C 359.378906 453.175781 364.9375 444.480469 368.695313 435.324219 C 369.308594 433.835938 371.113281 429.953125 370.855469 429.128906 C 372.792969 432.019531 371.515625 436.253906 370.414063 439.265625 C 370.414063 439.265625 375.125 439.078125 377.265625 439.300781 "/>
<path style=" stroke:none;fill-rule:nonzero;fill:rgb(0%,0%,0%);fill-opacity:1;" d="M 267.121094 518.667969 C 273.355469 514.792969 292.277344 499.757813 292.90625 498.484375 C 296.773438 490.648438 294.367188 479.507813 298.292969 471.605469 C 305.894531 474.875 314.640625 477.613281 322.925781 477.078125 C 319.355469 467.652344 314.183594 458.90625 307.339844 450.773438 C 314.03125 444.84375 319.125 437.769531 320.722656 429.484375 C 311.75 428.875 304.832031 431.382813 296.925781 432.449219 C 303.984375 426.1875 304.273438 421.972656 301.847656 416.570313 C 299.496094 411.332031 309.679688 409.6875 308.710938 404.011719 C 308.328125 399.90625 305.515625 396.636719 302.398438 393.902344 C 296.390625 390.554688 289.550781 392.609375 284.378906 396.335938 C 274.1875 393.785156 267.105469 395.726563 266.589844 405.078125 L 257.769531 394.660156 C 262.175781 393.0625 267.878906 390.859375 269.324219 385.6875 C 268.253906 381.761719 272.441406 380.863281 274.644531 378.507813 C 275.257813 377.851563 276.601563 373.132813 276.71875 371.785156 C 278.03125 356.90625 259.886719 353.53125 251.230469 360.21875 C 247.730469 356.871094 251.152344 350.867188 249.328125 346.53125 C 248.109375 342.960938 244.386719 339.992188 240.8125 339.386719 C 234.089844 339.386719 227.628906 341.632813 227.367188 348.632813 C 227.253906 351.742188 228.144531 355.058594 225.53125 357.480469 C 224.539063 354.289063 223.933594 350.636719 223.019531 347.597656 C 223.097656 345.390625 224.921875 343.339844 225.53125 341.058594 C 226.59375 336.648438 224.753906 332.75 221.121094 330.109375 C 210.257813 323.453125 203.589844 333.011719 205.007813 338.511719 C 205.875 341.855469 208.691406 344.828125 211.007813 347.597656 C 211.007813 347.597656 198.84375 342.351563 191.847656 344.328125 C 195.421875 350.636719 199.375 356.722656 204.394531 362.421875 C 201.808594 361.96875 197.855469 360.75 195.117188 362.421875 C 190.910156 365.277344 190.761719 372.941406 197.066406 375.578125 C 200.664063 377.082031 204.792969 375.175781 207.128906 373.601563 L 212.070313 377.707031 C 204.394531 379.910156 196.636719 383.40625 191.847656 390.859375 C 198.84375 392.609375 205.914063 394.203125 213.441406 394.660156 C 213.753906 396.410156 213.898438 399.601563 214.808594 401.808594 C 211.539063 404.164063 207.8125 405.835938 205.230469 409.183594 C 201.433594 414.171875 205.753906 429.285156 224.160156 425.605469 C 228.265625 432.296875 235.035156 435.1875 242.179688 435.71875 C 238.523438 444.566406 243.5 457.765625 256.703125 456.550781 C 257.613281 462.128906 266.660156 462.84375 273.125 457.386719 C 274.800781 455.714844 275.40625 453.128906 275.863281 450.773438 C 278.828125 451.761719 281.261719 454.347656 283.542969 456.246094 C 286.050781 467.269531 284 479.210938 279.96875 488.863281 C 276.089844 498.976563 270.160156 508.859375 267.121094 518.667969 Z M 288.179688 465.296875 L 285.976563 454.347656 L 269.554688 441.191406 C 269.097656 441.269531 268.488281 441.039063 268.183594 441.496094 C 269.660156 443.085938 269.949219 445.183594 270.160156 447.285156 C 270.5625 451.308594 263.839844 458.253906 260.519531 455.445313 C 259.933594 454.949219 258.304688 452.328125 259.136719 448.644531 C 256.851563 449.558594 254.769531 450.742188 252.621094 450.59375 C 248.238281 450.285156 242.929688 442.039063 249.648438 436.519531 C 252.003906 434.585938 254.921875 434.46875 257.007813 436.554688 C 257.617188 435.71875 256.929688 433.664063 257.539063 432.449219 C 257.804688 429.269531 264.261719 426.320313 268.488281 430.546875 C 271.960938 434.269531 271.527344 438.226563 273.125 442.027344 C 276.851563 443.855469 280.730469 444.992188 284.074219 447.503906 L 284.605469 446.972656 C 279.132813 436.628906 273.582031 426.289063 264.609375 417.394531 C 258.675781 415.335938 247.683594 412.808594 239.804688 409.949219 C 238.347656 414.339844 240.011719 417.019531 240.742188 420.546875 C 242.074219 426.996094 229.671875 430.535156 226.898438 423.402344 C 227.050781 421.5 226.519531 418.914063 226.289063 417.164063 C 220.339844 424.722656 213.894531 422.832031 211.539063 416.558594 C 211.3125 414.503906 211.691406 411.921875 213.441406 410.324219 C 215.949219 408.5 218.761719 407.660156 221.652344 406.75 C 220.285156 404.242188 217.621094 401.960938 218.6875 398.765625 C 219.753906 396.789063 221.730469 395.953125 223.855469 395.800781 C 230.125 396.847656 231.527344 403.808594 236.164063 406.726563 L 252.066406 411.691406 L 252.902344 411.085938 C 244.765625 403.328125 229.324219 384.328125 228.894531 383.929688 C 225.890625 381.148438 222.640625 386.953125 219.445313 387.285156 C 213.441406 389.035156 206.371094 389.945313 200.285156 387.589844 C 207.054688 383.027344 215.644531 380.976563 224.390625 381.585938 L 224.921875 380.976563 C 219.371094 376.640625 213.136719 373.449219 207.964844 368.65625 C 211.617188 368.960938 215.113281 371.167969 218.382813 373.066406 C 220.816406 374.742188 223.324219 376.335938 225.757813 378.011719 C 224.695313 374.664063 222.183594 371.167969 220.816406 367.59375 C 212.679688 362.878906 203.632813 357.710938 198.160156 348.964844 C 207.054688 348.964844 213.214844 356.1875 219.445313 362.117188 C 218.839844 358.394531 217.316406 354.289063 217.546875 349.800781 C 220.511719 357.101563 222.566406 364.703125 226.289063 371.699219 C 227.734375 366.605469 229.636719 361.433594 233.132813 357.480469 C 231.382813 363.5625 228.953125 369.34375 227.964844 375.804688 C 231.6875 382.039063 237.164063 387.058594 242.179688 392.53125 C 242.179688 392.53125 243.777344 383.027344 244.917969 378.847656 C 243.246094 375.195313 237.921875 372.613281 238.378906 367.898438 C 239.460938 364.054688 242.628906 360.382813 248.417969 364.355469 C 250.234375 365.605469 251.777344 367.5625 251.761719 370.328125 C 254.042969 367.972656 254.800781 363.945313 258.375 362.421875 C 269.617188 360.511719 270.4375 368.066406 266.757813 372.519531 C 264.34375 375.441406 259.742188 375.5 259.742188 375.5 C 262.175781 377.707031 264.304688 380.898438 263.015625 384.546875 C 262.339844 387.585938 253.609375 393.457031 247.425781 381.585938 C 246.742188 387.132813 247.199219 393.0625 248.492188 398.234375 C 258.148438 407.585938 268.945313 417.699219 275.863281 428.34375 C 276.820313 425.011719 279.742188 417.925781 281.339844 415.1875 C 275.265625 410.925781 272.023438 403.613281 278.0625 400.976563 C 280.269531 400.007813 283.734375 400.917969 286.507813 403.175781 C 289.777344 401.125 291.222656 395.878906 295.859375 396.03125 C 301.585938 396.308594 310.367188 403.730469 301.5625 410.550781 C 300.117188 411.996094 296.847656 409.789063 296.089844 412.453125 C 295.617188 424.015625 294.023438 424.179688 288.859375 422.046875 C 286.40625 421.035156 284.101563 419.28125 282.175781 417.394531 C 279.183594 421.949219 282.402344 437.921875 282.402344 437.921875 C 284.988281 442.484375 286.28125 447.425781 288.179688 452.140625 C 292.96875 443.320313 302.171875 438.074219 310.914063 435.488281 C 308.921875 445.273438 302.585938 443.175781 295.859375 452.140625 C 303.386719 456.324219 310.839844 463.773438 314.183594 471.605469 C 305.515625 468.488281 297 464.761719 289.550781 458.757813 C 289.246094 460.503906 290.710938 466.226563 290.828125 467.101563 C 292.105469 476.664063 289.941406 485.632813 289.246094 495.175781 L 276.929688 507.492188 C 282.023438 495.097656 289.777344 481.1875 288.179688 465.296875 "/>
<path style=" stroke:none;fill-rule:nonzero;fill:rgb(0%,0%,0%);fill-opacity:1;" d="M 494.777344 444.445313 C 501.46875 438.515625 506.5625 431.445313 508.160156 423.15625 C 499.1875 422.550781 492.269531 425.058594 484.363281 426.121094 C 491.421875 419.859375 491.710938 415.648438 489.285156 410.242188 C 486.933594 405.003906 497.117188 403.363281 496.144531 397.6875 C 495.765625 393.582031 492.953125 390.3125 489.835938 387.574219 C 483.828125 384.230469 476.984375 386.28125 471.816406 390.007813 C 461.625 387.460938 454.539063 389.398438 454.023438 398.75 L 445.203125 388.335938 C 449.613281 386.738281 455.316406 384.53125 456.761719 379.363281 C 455.691406 375.4375 459.878906 374.535156 462.082031 372.179688 C 462.691406 371.527344 464.039063 366.808594 464.15625 365.460938 C 465.46875 350.582031 447.320313 347.203125 438.664063 353.890625 C 435.167969 350.546875 438.589844 344.539063 436.765625 340.207031 C 435.550781 336.632813 431.824219 333.667969 428.25 333.058594 C 421.527344 333.058594 415.0625 335.308594 414.804688 342.308594 C 414.691406 345.417969 415.582031 348.730469 412.96875 351.15625 C 411.980469 347.960938 411.371094 344.3125 410.460938 341.269531 C 410.535156 339.066406 412.359375 337.011719 412.96875 334.730469 C 414.03125 330.320313 412.191406 326.421875 408.558594 323.785156 C 397.695313 317.128906 391.027344 326.683594 392.445313 332.183594 C 393.3125 335.53125 396.128906 338.5 398.445313 341.269531 C 398.445313 341.269531 386.28125 336.023438 379.285156 338.003906 C 382.859375 344.3125 386.8125 350.394531 391.828125 356.097656 C 389.246094 355.640625 385.292969 354.425781 382.554688 356.097656 C 378.347656 358.949219 378.199219 366.617188 384.503906 369.25 C 388.105469 370.753906 392.230469 368.851563 394.566406 367.273438 L 399.511719 371.378906 C 391.828125 373.585938 384.074219 377.082031 379.285156 384.53125 C 386.28125 386.28125 393.351563 387.878906 400.878906 388.335938 C 401.191406 390.085938 401.335938 393.277344 402.246094 395.480469 C 398.976563 397.839844 395.253906 399.511719 392.667969 402.855469 C 388.871094 407.847656 393.191406 422.960938 411.597656 419.28125 C 415.703125 425.972656 422.472656 428.859375 429.617188 429.390625 C 425.964844 438.242188 430.9375 451.4375 444.140625 450.226563 C 445.050781 455.800781 454.097656 456.515625 460.5625 451.0625 C 462.234375 449.390625 462.84375 446.804688 463.300781 444.445313 C 466.265625 445.433594 468.699219 448.019531 470.980469 449.921875 C 473.488281 460.945313 471.4375 472.882813 467.40625 482.539063 C 463.527344 492.652344 457.597656 502.535156 454.558594 512.34375 C 460.792969 508.464844 479.714844 493.433594 480.34375 492.160156 C 484.210938 484.324219 481.808594 473.179688 485.730469 465.28125 C 493.332031 468.550781 502.078125 471.285156 510.363281 470.753906 C 506.789063 461.324219 501.621094 452.582031 494.777344 444.445313 Z M 476.984375 452.429688 C 476.683594 454.179688 478.148438 459.898438 478.265625 460.777344 C 479.542969 470.339844 477.378906 479.308594 476.683594 488.847656 L 464.363281 501.164063 C 469.460938 488.773438 477.214844 474.859375 475.617188 458.96875 L 473.414063 448.019531 L 456.988281 434.867188 C 456.535156 434.941406 455.925781 434.714844 455.621094 435.171875 C 457.097656 436.761719 457.386719 438.859375 457.597656 440.957031 C 458 444.984375 451.273438 451.929688 447.953125 449.121094 C 447.367188 448.625 445.742188 446.003906 446.574219 442.316406 C 444.289063 443.230469 442.207031 444.417969 440.058594 444.265625 C 435.675781 443.957031 430.363281 435.710938 437.089844 430.191406 C 439.441406 428.257813 442.359375 428.140625 444.445313 430.230469 C 445.054688 429.390625 444.367188 427.339844 444.976563 426.121094 C 445.242188 422.945313 451.695313 419.992188 455.925781 424.222656 C 459.398438 427.945313 458.96875 431.902344 460.5625 435.703125 C 464.289063 437.527344 468.167969 438.667969 471.511719 441.175781 L 472.046875 440.644531 C 466.570313 430.304688 461.019531 419.964844 452.046875 411.066406 C 446.113281 409.011719 435.121094 406.480469 427.242188 403.625 C 425.785156 408.015625 427.449219 410.695313 428.179688 414.222656 C 429.511719 420.671875 417.109375 424.207031 414.335938 417.074219 C 414.488281 415.175781 413.957031 412.589844 413.726563 410.839844 C 407.777344 418.398438 401.332031 416.507813 398.976563 410.230469 C 398.75 408.179688 399.128906 405.59375 400.878906 403.996094 C 403.386719 402.171875 406.199219 401.335938 409.089844 400.425781 C 407.722656 397.914063 405.058594 395.632813 406.125 392.441406 C 407.1875 390.464844 409.164063 389.628906 411.296875 389.476563 C 417.5625 390.519531 418.96875 397.484375 423.605469 400.398438 L 439.503906 405.367188 L 440.339844 404.757813 C 432.203125 397.003906 416.761719 378.003906 416.335938 377.605469 C 413.328125 374.824219 410.078125 380.628906 406.886719 380.960938 C 400.878906 382.710938 393.808594 383.621094 387.726563 381.265625 C 394.492188 376.703125 403.082031 374.648438 411.828125 375.257813 L 412.359375 374.648438 C 406.808594 370.316406 400.574219 367.121094 395.402344 362.332031 C 399.054688 362.636719 402.550781 364.839844 405.820313 366.742188 C 408.253906 368.414063 410.761719 370.011719 413.195313 371.683594 C 412.132813 368.339844 409.621094 364.839844 408.253906 361.269531 C 400.117188 356.554688 391.070313 351.382813 385.597656 342.640625 C 394.492188 342.640625 400.648438 349.863281 406.886719 355.792969 C 406.277344 352.066406 404.757813 347.960938 404.984375 343.476563 C 407.949219 350.773438 410.003906 358.378906 413.726563 365.371094 C 415.171875 360.277344 417.074219 355.109375 420.570313 351.15625 C 418.820313 357.238281 416.390625 363.015625 415.398438 369.480469 C 419.125 375.714844 424.601563 380.730469 429.617188 386.207031 C 429.617188 386.207031 431.214844 376.703125 432.355469 372.519531 C 430.683594 368.871094 425.359375 366.285156 425.816406 361.570313 C 426.898438 357.730469 430.066406 354.054688 435.855469 358.03125 C 437.671875 359.277344 439.214844 361.234375 439.199219 364.003906 C 441.480469 361.648438 442.238281 357.617188 445.8125 356.097656 C 457.054688 354.183594 457.875 361.742188 454.195313 366.191406 C 451.777344 369.113281 447.183594 369.175781 447.183594 369.175781 C 449.613281 371.378906 451.742188 374.574219 450.449219 378.222656 C 449.777344 381.261719 441.050781 387.132813 434.863281 375.257813 C 434.179688 380.808594 434.636719 386.738281 435.929688 391.910156 C 445.585938 401.261719 456.382813 411.371094 463.300781 422.015625 C 464.257813 418.6875 467.179688 411.601563 468.773438 408.863281 C 462.703125 404.601563 459.460938 397.289063 465.5 394.648438 C 467.707031 393.683594 471.171875 394.589844 473.945313 396.851563 C 477.214844 394.796875 478.660156 389.550781 483.296875 389.703125 C 489.023438 389.984375 497.804688 397.402344 489 404.226563 C 487.554688 405.671875 484.285156 403.464844 483.523438 406.128906 C 483.054688 417.691406 481.460938 417.851563 476.296875 415.722656 C 473.84375 414.710938 471.539063 412.953125 469.609375 411.066406 C 466.621094 415.625 469.839844 431.597656 469.839844 431.597656 C 472.425781 436.160156 473.71875 441.101563 475.617188 445.816406 C 480.40625 436.996094 489.609375 431.75 498.351563 429.164063 C 496.359375 438.945313 490.023438 436.847656 483.296875 445.816406 C 490.824219 449.996094 498.273438 457.449219 501.621094 465.28125 C 492.953125 462.160156 484.4375 458.4375 476.984375 452.429688 "/>
</g>
</svg>
