<?xml version="1.0" encoding="UTF-8"?>
<svg xmlns="http://www.w3.org/2000/svg" xmlns:xlink="http://www.w3.org/1999/xlink" width="499pt" height="337pt" viewBox="0 0 499 337" version="1.1">
<g id="surface1">
<path style=" stroke:none;fill-rule:nonzero;fill:rgb(0%,0%,0%);fill-opacity:1;" d="M 430.871094 160.320313 C 428.742188 161.527344 413.292969 167.054688 406.078125 167.863281 C 404.460938 166.0625 402.117188 164.800781 404.460938 162.371094 C 409.5 160.210938 414.808594 158.863281 419.398438 155.890625 C 442.023438 152.828125 465.164063 137.871094 470.71875 131.394531 C 474.441406 127.058594 478.277344 122.453125 477.71875 116.652344 C 473.507813 118.644531 461.9375 121.449219 460.855469 121.746094 C 452.1875 124.125 447.917969 126.597656 441.183594 130.980469 C 434.566406 135.289063 408.867188 158.320313 399.328125 159.132813 C 398.8125 159.132813 396.503906 159.203125 396.613281 158.597656 C 396.933594 156.773438 396.695313 154.902344 396.359375 153.28125 C 398.019531 152.019531 399.664063 150.753906 401.308594 149.492188 C 403.761719 147.605469 414.519531 141.714844 417.382813 140.09375 C 431.71875 131.976563 457.453125 105.996094 452.15625 97.570313 C 449.546875 98.382813 440.6875 102.8125 438.742188 103.824219 C 419.992188 113.601563 402.878906 130.078125 395.097656 150.3125 C 393.839844 151.570313 388.890625 157.101563 387.878906 156.328125 C 386.4375 155.230469 383.765625 153.523438 381.628906 153.578125 C 381.445313 152.726563 382.25 151.726563 382.761719 150.796875 C 383.269531 149.867188 381.183594 148.890625 380.886719 149.238281 C 379.996094 150.289063 380.375 152.152344 379.292969 153.164063 C 377.960938 152.996094 377.230469 153.59375 376.863281 153.152344 C 376.246094 152.414063 376.613281 150.726563 376.710938 149.429688 C 376.761719 148.738281 375.082031 148.566406 374.976563 149.308594 C 374.773438 150.710938 375.375 152.671875 374.667969 153.550781 C 372.417969 151.480469 359.671875 149.0625 356.414063 148.773438 C 339.453125 147.257813 320.738281 146.714844 307.980469 157.511719 C 307.257813 155.890625 306.179688 154.632813 304.378906 154.273438 C 306.988281 147.253906 310.859375 107.4375 310.976563 106.238281 C 311.613281 99.480469 310.824219 92.5 308.609375 86.230469 C 307.980469 86.230469 300.25 96.871094 298.460938 100.125 C 291.617188 112.546875 291.769531 122.152344 293.742188 131.109375 C 294.953125 136.617188 300.6875 152.742188 303.117188 154.902344 C 299.1875 156.015625 301.246094 159.265625 301.941406 161.632813 C 302.089844 162.140625 299.878906 165.160156 298.890625 163.632813 C 300.6875 160.570313 296.007813 161.921875 295.648438 159.761719 C 293.488281 150.222656 292.5 140.140625 288.808594 131.230469 C 286.738281 122.863281 281.878906 115.753906 279.449219 107.5625 C 277.546875 101.085938 273.601563 95.683594 272.96875 97.570313 C 270.359375 102.972656 271.351563 117.691406 271.527344 118.945313 C 273.796875 135.058594 275.703125 142.707031 286.085938 151.789063 C 288.605469 154 291.109375 156.226563 292.679688 159.132813 C 292.949219 160.300781 293.757813 162.460938 292.050781 163.273438 C 292.140625 164.261719 291.777344 165.433594 292.410156 166.242188 C 295.46875 167.863281 293.667969 170.742188 291.777344 172.09375 C 288.449219 169.84375 284.128906 173.980469 281.339844 169.480469 C 273.058594 148.0625 256.859375 130.152344 240.210938 112.78125 C 240.210938 112.78125 237.429688 117.480469 241.03125 127.964844 C 244.003906 136.605469 248.78125 144.535156 253.800781 151.933594 C 261.546875 162.210938 263.726563 161.996094 275.796875 167.449219 C 278.71875 168.769531 281.511719 170.191406 282.289063 173.117188 C 283.890625 179.113281 283.089844 175.867188 287.550781 179.832031 C 287.1875 184.0625 283.230469 186.761719 283.320313 191.171875 C 281.070313 192.160156 279.089844 189.550781 276.480469 191.171875 C 274.5 192.609375 270.796875 194.835938 272.339844 197.289063 C 276.570313 201.519531 268.019531 201.160156 270.359375 205.753906 L 267.480469 207.730469 C 266.3125 212.398438 269.972656 217.09375 272.117188 216.769531 C 273.449219 216.566406 274.71875 215.488281 276.210938 215.832031 C 282.6875 214.929688 276.378906 226.078125 282.960938 226.179688 C 284.398438 234.550781 286.558594 243.460938 288.808594 250.75 C 289.257813 252.28125 289.527344 254.710938 288.539063 255.972656 C 285.660156 253.722656 280.710938 253.359375 277.46875 254.980469 C 264.339844 240.046875 253.507813 241.28125 247.320313 259.839844 C 241.71875 276.855469 251.054688 286.925781 254.796875 289.867188 C 262.730469 296.101563 272.964844 292.359375 279.089844 278.652344 L 281.714844 280.175781 C 281.714844 280.175781 286.199219 279.550781 287.820313 278.652344 C 288.917969 279.644531 290.070313 280.5 291.269531 281.253906 C 314.699219 295.964844 368.390625 296.765625 386.1875 283.691406 C 387.289063 282.882813 388.347656 282.070313 389.609375 282.25 C 389.699219 287.109375 389.070313 291.25 393.117188 294.21875 C 408.371094 302.453125 421.136719 287.703125 426.507813 272.800781 C 427.324219 264.621094 423.339844 256.5625 412.769531 259.152344 C 408.230469 260.265625 403.90625 262.769531 400.320313 266.050781 C 398.628906 259.578125 396.371094 254.621094 384.117188 254.980469 C 383.273438 247.386719 398.933594 227.222656 401.464844 225.8125 C 402.277344 225.355469 401.171875 224.179688 400.355469 224.679688 C 397.90625 226.179688 396.402344 229.554688 393.839844 231.3125 C 392.667969 231.851563 392.21875 230.5 391.5 230.050781 C 395.640625 228.070313 396.628906 223.480469 399.960938 220.960938 C 403.257813 221.0625 402.539063 218.6875 402.492188 216.585938 C 402.433594 213.90625 406.09375 212.785156 408.335938 213.734375 C 410.605469 214.695313 412.238281 217.105469 409.679688 218.082031 C 408.238281 219.25 407.429688 217.179688 405.808594 217.722656 C 406.078125 219.972656 408.597656 219.972656 410.308594 220.332031 C 409.589844 221.410156 410.308594 222.582031 410.667969 223.570313 C 408.328125 226.8125 406.710938 221.5 404.1875 223.210938 C 404.277344 224.472656 405.089844 224.5625 405.808594 225.550781 C 408.058594 228.070313 411.566406 224.652344 413.546875 226.453125 C 417.078125 229.039063 419.804688 225.347656 417.777344 222.3125 C 424.546875 222.460938 422.671875 213.585938 419.398438 213.851563 C 419.398438 213.851563 420.671875 201.210938 410.039063 211.871094 C 405.359375 212.050781 409.410156 207.640625 407.699219 205.390625 C 409.15625 204.019531 411.007813 204.0625 412.886719 204.128906 C 417.285156 204.28125 424.03125 201.378906 423.898438 196.03125 C 423.507813 188.96875 417.535156 184.003906 412.289063 185.050781 C 410.21875 181.003906 406.980469 177.039063 404.1875 173.710938 C 403.917969 172.09375 405.988281 171.371094 406.4375 170.113281 C 411.839844 169.933594 415.710938 167.863281 421.019531 168.492188 C 427.847656 170.042969 436.058594 168.914063 446.578125 166.242188 C 457.46875 161.472656 468.898438 158.050781 477.71875 150.3125 C 485.859375 145.621094 488.066406 135.101563 488.066406 135.101563 C 481.046875 137.441406 462.519531 144.328125 459.714844 145.402344 C 451.195313 148.667969 437.820313 156.382813 430.871094 160.320313 Z M 449.503906 130.046875 C 456.046875 126.238281 467.175781 122.90625 473.488281 120.882813 C 463.859375 140.953125 414.421875 156.835938 407.699219 158.140625 C 412.878906 154.480469 435.40625 138.246094 449.503906 130.046875 Z M 410.453125 129.882813 C 411.453125 128.820313 434.921875 105.585938 448.558594 101.441406 C 449.457031 102.433594 436.769531 119.890625 429.480469 126.011719 C 420.210938 136.003906 407.878906 138.792969 398.699219 148.691406 C 398.316406 147.09375 405.007813 135.667969 410.453125 129.882813 Z M 290.789063 153.550781 C 284.53125 145.15625 276.980469 136.566406 275.429688 126.082031 C 275.152344 124.203125 275.578125 105.3125 275.578125 105.3125 C 276.75 110.621094 290.519531 141.671875 291.777344 153.550781 Z M 265.859375 159.761719 C 254.339844 151.480469 250.199219 139.0625 243.449219 128.351563 C 242.371094 125.113281 241.648438 121.152344 241.558594 117.910156 C 246.148438 125.113281 265.296875 137.585938 276.839844 165.613281 C 273.148438 163.632813 269.460938 161.652344 265.859375 159.761719 Z M 273.351563 278.402344 C 271.5 284.078125 266.175781 291.816406 259.40625 289.257813 C 245.117188 283.851563 246.480469 251.570313 259.648438 248.230469 C 276.203125 247.738281 276.867188 267.617188 273.351563 278.402344 Z M 415.796875 225.191406 C 414.539063 225.28125 413.460938 223.929688 412.917969 222.941406 C 412.917969 222.941406 414.246094 222.242188 414.953125 222.3125 C 415.664063 222.378906 416.339844 222.535156 416.789063 223.210938 C 416.789063 224.019531 416.519531 224.742188 415.796875 225.191406 Z M 417.148438 220.332031 C 415.4375 220.421875 413.367188 220.421875 412.558594 219.070313 C 413.460938 216.550781 415.710938 216.640625 417.777344 215.832031 C 421.828125 215.832031 419.398438 219.972656 417.148438 220.332031 Z M 414.960938 209.828125 C 416.402344 209.265625 418.800781 209.386719 417.296875 212.277344 C 416.238281 214.316406 413.050781 215.199219 412.289063 213.222656 C 412.136719 211.179688 413.589844 210.367188 414.960938 209.828125 Z M 399.597656 166.511719 C 400.410156 167.230469 399.238281 167.953125 399.597656 168.851563 L 397.980469 168.851563 C 397.796875 167.863281 398.25 166.691406 399.597656 166.511719 Z M 398.339844 172.09375 C 400.949219 173.621094 402.570313 176.683594 404.1875 179.203125 C 401.9375 179.5625 399.507813 178.570313 397.347656 177.582031 Z M 377.128906 156.929688 C 385.71875 156.929688 392.683594 163.65625 392.683594 171.953125 C 392.683594 180.253906 385.71875 186.980469 377.128906 186.980469 C 368.535156 186.980469 361.570313 180.253906 361.570313 171.953125 C 361.570313 163.65625 368.535156 156.929688 377.128906 156.929688 Z M 370.800781 153.910156 L 370.800781 154.542969 C 367.199219 155.890625 363.867188 157.960938 361.078125 160.390625 C 358.109375 157.78125 355.410156 154.453125 354.597656 150.671875 C 360.449219 150.761719 365.398438 152.832031 370.800781 153.910156 Z M 302.128906 143.832031 L 301.140625 143.832031 C 298.476563 131.179688 293.023438 127.902344 298.335938 112.386719 C 298.683594 111.375 300.921875 97.210938 306.628906 91.992188 C 307.527344 94.152344 307.527344 95.953125 307.980469 98.472656 C 308.699219 114.671875 302.757813 127.453125 302.128906 143.832031 Z M 291.777344 177.222656 C 305.421875 153.335938 330.703125 147.78125 351.71875 150.3125 C 345.128906 155.828125 341.378906 159.578125 335.160156 162.371094 C 332.421875 161.085938 329.960938 160.664063 327.960938 161.285156 C 326.769531 161.65625 325.257813 160.558594 325.128906 158.675781 C 325.117188 158.511719 322.632813 158.480469 322.640625 158.828125 C 322.660156 159.863281 323.933594 161.132813 323.460938 162.011719 L 319.589844 163.992188 C 318.597656 163.003906 318.328125 161.203125 316.710938 161.023438 C 316.167969 161.5625 315.359375 162.101563 315.71875 163.003906 L 318.328125 164.890625 C 318.058594 165.523438 317.429688 165.882813 317.339844 166.511719 C 316.164063 165.613281 314.617188 164.925781 313.144531 164.820313 C 312.703125 164.789063 311.871094 166.789063 312.949219 167.046875 C 314.027344 167.304688 315.367188 167.394531 315.628906 168.183594 C 315.730469 168.492188 314.367188 172.453125 313.738281 173.980469 C 306.628906 177.039063 299.519531 177.222656 291.777344 178.84375 Z M 337.789063 173.953125 C 337.789063 179.539063 333.015625 184.066406 327.128906 184.066406 C 321.238281 184.066406 316.464844 179.539063 316.464844 173.953125 C 316.464844 168.371094 321.238281 163.84375 327.128906 163.84375 C 333.015625 163.84375 337.789063 168.371094 337.789063 173.953125 Z M 273.238281 214.839844 L 271.351563 214.839844 L 271.351563 213.222656 L 274.589844 213.222656 C 274.140625 213.761719 274.140625 214.753906 273.238281 214.839844 Z M 272.96875 211.601563 C 271.351563 211.78125 270.089844 210.519531 269.371094 209.351563 C 269.101563 208.539063 269.503906 207.253906 270.359375 207.730469 C 271.621094 208.539063 273.601563 206.742188 274.589844 208.632813 C 274.769531 209.980469 274.5 211.601563 272.96875 211.601563 Z M 274.589844 206.109375 C 273.960938 205.753906 273.148438 205.480469 272.609375 204.761719 C 272.160156 203.589844 272.339844 202.332031 273.601563 201.519531 C 276.480469 201.972656 276.390625 204.402344 274.589844 206.109375 Z M 280.492188 213.285156 C 280.339844 213.589844 280.4375 214.480469 280.4375 214.480469 C 279.71875 215.5625 278.007813 214.03125 276.480469 214.480469 C 275.671875 213.492188 275.671875 211.78125 276.210938 210.609375 C 276.660156 208.902344 283.050781 210.160156 280.078125 206.742188 C 279.628906 206.921875 279.089844 207.101563 278.460938 207.011719 C 278.007813 206.203125 278.007813 204.761719 278.820313 204.132813 C 280.710938 202.871094 282.238281 204.941406 282.960938 206.382813 C 283.433594 209.152344 281.613281 211.085938 280.492188 213.285156 Z M 282.058594 216.460938 C 284.488281 218.351563 286.289063 221.589844 288.539063 224.203125 L 285.570313 226.453125 C 283.410156 223.570313 282.507813 220.0625 282.058594 216.460938 Z M 288.539063 237.160156 C 288.179688 236.171875 287.640625 235 287.820313 234.28125 L 291.421875 233.652344 C 290.609375 234.550781 289.800781 236.082031 288.539063 237.160156 Z M 281.699219 278.019531 C 278.007813 276.492188 280.710938 272.171875 280.4375 269.289063 C 282.335938 270.585938 282.238281 275.769531 281.699219 278.019531 Z M 387.988281 280.632813 C 387.089844 279.640625 390.335938 274.417969 392.847656 271.539063 L 394.46875 269.5625 C 397.078125 272.800781 387.988281 280.632813 387.988281 280.632813 Z M 412.917969 289.359375 C 411.480469 286.570313 410.039063 283.871094 408.417969 281.261719 L 409.320313 280.269531 C 411.296875 282.429688 413.640625 285.132813 414.539063 288.011719 Z M 416.519531 286.390625 L 410.667969 279.011719 C 414.089844 275.050781 419.691406 268.265625 423.269531 269.289063 C 427.421875 272 419.230469 283.679688 416.519531 286.390625 Z M 415.796875 259.839844 C 418.949219 261.910156 421.648438 263.441406 423.269531 266.953125 C 419.308594 267.941406 415.4375 270.011719 412.289063 272.171875 C 410.21875 269.382813 407.429688 267.3125 404.820313 265.332031 C 405.628906 263.980469 412.917969 260.203125 415.796875 259.839844 Z M 407.429688 282.519531 L 411.660156 289.632813 C 402.570313 294.890625 400.320313 294.636719 400.320313 291.25 C 402.570313 288.460938 407.429688 282.519531 407.429688 282.519531 Z M 397.800781 266.003906 C 398.269531 266.140625 398.339844 266.953125 398.699219 267.3125 C 398.609375 267.941406 396.996094 268.855469 396.84375 268.742188 C 396.558594 268.527344 396.324219 268.175781 396.089844 267.941406 C 395.820313 266.953125 397.679688 265.96875 397.800781 266.003906 Z M 386.007813 258.582031 C 389.25 259.929688 394.648438 260.5625 396.089844 264.703125 L 390.867188 270.191406 C 386.1875 274.871094 385.828125 284.050781 377.910156 284.5 C 350.097656 293.949219 317.25 291.339844 292.050781 278.019531 C 291.421875 277.300781 290.878906 274.960938 289.4375 276.039063 C 287.910156 276.582031 286.648438 277.570313 284.9375 277.660156 C 284.9375 273.703125 284.171875 263.417969 279.71875 260.203125 C 277.921875 260.472656 277.378906 258.582031 278.101563 257.230469 C 280.347656 254.441406 283.5 257.050781 285.929688 257.589844 C 287.953125 259.078125 289.214844 260.582031 290.351563 262.179688 C 300.703125 276.738281 359.804688 282.574219 372.410156 267.859375 C 376.1875 263.449219 379.511719 257.75 386.007813 258.582031 Z M 303.390625 250.121094 L 300.035156 245.328125 C 301.433594 245.445313 303.578125 245.371094 305.0625 245.761719 Z M 307.582031 261.109375 L 303.375 265.175781 C 303.273438 263.773438 302.863281 261.664063 303.015625 260.140625 Z M 318.019531 256.101563 L 320.628906 259.972656 L 314.777344 259.972656 C 315.679688 258.894531 316.847656 257.09375 318.019531 256.101563 Z M 315.203125 250.269531 C 315.632813 248.933594 316.042969 246.824219 316.757813 245.46875 L 320.628906 248.078125 Z M 330.058594 266.664063 C 330.488281 265.328125 330.898438 263.21875 331.613281 261.863281 L 335.480469 264.472656 Z M 337.585938 252.800781 L 341.941406 251.128906 L 340.628906 256.828125 C 339.777344 255.710938 338.285156 254.164063 337.585938 252.800781 Z M 350.367188 266.953125 L 352.980469 263.082031 C 354.148438 264.070313 355.320313 265.871094 356.21875 266.953125 Z M 357.347656 251.515625 C 358.832031 251.125 360.976563 251.199219 362.378906 251.078125 L 359.023438 255.871094 Z M 366.984375 259.734375 L 370.398438 256.550781 L 371.316406 262.328125 C 370.105469 261.609375 368.144531 260.734375 366.984375 259.734375 Z M 371.878906 244.378906 C 373.105469 243.460938 375.121094 242.726563 376.378906 242.089844 L 375.0625 247.789063 Z M 379.398438 250.792969 L 382.5 248.859375 C 382.085938 250 381.90625 251.722656 381.144531 253.195313 C 380.4375 252.410156 379.5 251.527344 379.398438 250.792969 Z M 382.640625 239.316406 L 383.609375 234.75 C 385.0625 235.230469 386.824219 236.460938 388.0625 237.125 Z M 406.796875 182.441406 C 407.519531 183.421875 408.617188 184.5 408.75 185.773438 C 408.800781 186.253906 408.574219 188.433594 408.855469 188.527344 C 409.714844 188.808594 410.710938 187.367188 411.660156 187.300781 C 424.972656 188.71875 421.8125 199.023438 417.148438 200.890625 C 413.816406 203.410156 406.347656 198.191406 405.449219 204.132813 C 405.988281 206.472656 405.988281 210.070313 404.1875 211.242188 C 402.296875 211.152344 400.859375 212.679688 399.960938 214.210938 L 399.597656 218.710938 C 382.980469 237.976563 357.847656 245.523438 335.878906 244.324219 C 311.433594 242.988281 298.515625 228.519531 283.320313 213.222656 C 284.488281 210.789063 286.558594 208.453125 285.300781 205.390625 C 283.140625 203.589844 281.429688 200.53125 278.101563 201.882813 C 276.480469 200.441406 275.851563 197.742188 276.210938 195.671875 C 277.109375 194.230469 278.101563 193.152344 279.71875 192.433594 C 281.789063 192.253906 283.410156 195.761719 285.300781 193.152344 C 285.929688 189.460938 288.988281 186.132813 290.160156 182.441406 C 298.128906 181.828125 313.46875 176.230469 313.46875 176.230469 C 314.261719 182.230469 321.527344 187.304688 327.679688 186.679688 C 332.492188 186.1875 337.96875 183.976563 340.496094 179.613281 C 344.25 173.144531 339.027344 165.613281 339.027344 165.613281 C 343.710938 162.460938 348.570313 158.320313 352.347656 154.273438 C 352.550781 157.984375 359.386719 160.230469 359.371094 163.359375 C 356.863281 168.414063 357.296875 174.449219 359.144531 179.324219 C 364.003906 192.125 382.179688 193.292969 390.738281 186.902344 C 394.277344 184.257813 396.359375 179.832031 396.359375 179.832031 C 399.597656 181.273438 402.929688 182.53125 406.796875 182.441406 Z M 470.246094 152.921875 C 454.496094 161.097656 430.425781 170.320313 421.019531 166.511719 C 451.921875 150.835938 483.839844 138.972656 483.839844 138.972656 C 481.859375 145.003906 474.929688 148.601563 470.246094 152.921875 "/>
<path style=" stroke:none;fill-rule:nonzero;fill:rgb(0%,0%,0%);fill-opacity:1;" d="M 436.730469 201.382813 C 434.851563 205.164063 433.441406 209.285156 432.988281 213.222656 C 433.46875 213.703125 438.972656 207.222656 440.234375 202.929688 C 442.054688 196.734375 438.96875 196.878906 436.730469 201.382813 "/>
<path style=" stroke:none;fill-rule:nonzero;fill:rgb(0%,0%,0%);fill-opacity:1;" d="M 413.277344 199.902344 L 413.277344 199.632813 C 414.089844 198.011719 414.808594 195.3125 417.148438 196.390625 C 419 191.992188 410.652344 192.328125 407.699219 197.019531 C 407.699219 197.019531 409.949219 196.570313 410.667969 195.671875 C 412.46875 196.660156 410.847656 199.632813 413.277344 199.902344 "/>
<path style=" stroke:none;fill-rule:nonzero;fill:rgb(0%,0%,0%);fill-opacity:1;" d="M 373.679688 203.769531 C 364.859375 208.722656 354.6875 210.160156 344.25 211.242188 C 326.070313 209.980469 310.679688 202.78125 298.527344 188.921875 C 295.109375 186.402344 299.429688 184.960938 299.878906 182.441406 C 296.097656 184.242188 292.589844 186.851563 288.808594 188.5625 C 290.339844 190.539063 292.859375 187.753906 294.300781 187.570313 C 295.269531 203.140625 300.132813 213.550781 304.996094 220.175781 C 327.957031 251.488281 387.402344 238.554688 397.3125 198.5 C 398.09375 195.347656 397.769531 186.71875 401.558594 186.628906 C 403.605469 186.578125 404.195313 185.652344 402.171875 184.835938 C 400.457031 184.144531 398.203125 183.207031 396.71875 183.070313 C 398.074219 187.414063 382.203125 199.035156 373.679688 203.769531 Z M 321.210938 229.421875 C 324.089844 226.089844 328.589844 223.660156 332.910156 225.191406 C 336.867188 224.742188 338.578125 234.730469 342 228.429688 C 345.328125 227.621094 348.300781 225.640625 351.71875 227.800781 L 353.609375 229.421875 C 343.710938 233.742188 332.007813 232.300781 321.210938 229.421875 Z M 323.675781 218.875 C 327.097656 219.097656 330.433594 219.960938 334.527344 219.726563 C 334.527344 221.078125 334.335938 221.523438 333.796875 222.335938 C 331.644531 222.535156 325.296875 222.097656 323.171875 221.085938 C 321.46875 220.273438 323.1875 218.84375 323.675781 218.875 Z M 353.265625 221.835938 C 351.257813 222.8125 344.980469 223.15625 344.78125 223.160156 C 343.378906 223.175781 343.722656 221.027344 342.617188 220.398438 C 346.488281 219.050781 349.097656 220.488281 352.96875 219.140625 L 354.859375 219.410156 C 354.652344 220.722656 354.070313 221.441406 353.265625 221.835938 Z M 369.285156 220.921875 C 368.921875 221.570313 361.171875 222.300781 361.261719 218.972656 L 361.261719 218.339844 C 364.230469 218.519531 367.109375 218.160156 369.722656 217.351563 C 369.722656 218.175781 369.855469 219.902344 369.285156 220.921875 Z M 308.71875 202.113281 C 328.398438 216.851563 351.667969 217.410156 380.261719 203.183594 L 386.191406 199.160156 C 381.710938 218.203125 317.714844 225.738281 308.71875 202.113281 "/>
<path style=" stroke:none;fill-rule:nonzero;fill:rgb(0%,0%,0%);fill-opacity:1;" d="M 345.238281 199.902344 C 345.238281 198.65625 344.847656 197.558594 344.242188 196.542969 C 341.832031 192.503906 342.28125 188.101563 347.324219 185.953125 C 350.996094 184.390625 355.144531 185.265625 357.480469 187.933594 C 360 190.453125 360.628906 192.882813 359.820313 196.390625 C 359.617188 197.449219 358.882813 198.0625 358.070313 198.570313 C 355.917969 199.914063 358.476563 202.117188 360.019531 200.910156 C 363.636719 198.078125 363.378906 193.390625 362.339844 189.550781 C 359.378906 182.566406 350.652344 180.550781 344.835938 183.078125 C 337.078125 186.445313 338.589844 197.800781 345.238281 199.902344 "/>
<path style=" stroke:none;fill-rule:nonzero;fill:rgb(0%,0%,0%);fill-opacity:1;" d="M 279.71875 197.652344 C 278.820313 197.472656 278.640625 197.472656 277.828125 198.011719 C 279 198.371094 279.359375 199.632813 280.078125 200.53125 C 282.507813 200.082031 281.609375 197.109375 282.328125 195.402344 C 280.4375 193.601563 281.25 197.109375 279.71875 197.652344 "/>
<path style=" stroke:none;fill-rule:nonzero;fill:rgb(0%,0%,0%);fill-opacity:1;" d="M 252.898438 259.570313 C 249.355469 268.664063 254.804688 284.441406 260.640625 286.292969 C 265.566406 287.851563 272.621094 280.875 271.9375 268.316406 C 270.960938 250.433594 259.96875 243.15625 252.898438 259.570313 Z M 262.621094 282.882813 C 258.839844 283.242188 257.398438 279.640625 256.140625 277.03125 C 255.78125 276.132813 263.160156 273.339844 266.488281 273.160156 C 266.851563 272.800781 266.488281 271.179688 266.488281 271.179688 C 262.710938 271.722656 258.929688 271.902344 255.78125 273.789063 L 255.148438 272.171875 C 259.289063 270.460938 264.601563 269.019531 268.738281 270.191406 C 268.109375 274.960938 266.9375 280.179688 262.621094 282.882813 Z M 268.378906 267.3125 C 263.699219 267.492188 259.738281 269.5625 254.789063 269.289063 C 254.058594 265.277344 255.628906 254.410156 261 252.730469 C 267.253906 250.40625 268.601563 264.882813 268.378906 267.3125 "/>
<path style=" stroke:none;fill-rule:nonzero;fill:rgb(0%,0%,0%);fill-opacity:1;" d="M 215.640625 181.8125 C 214.828125 179.742188 212.398438 180.28125 210.78125 179.472656 C 212.128906 177.3125 213.839844 174.523438 212.671875 172.09375 C 209.339844 165.253906 201.058594 165.703125 195.210938 165.882813 C 191.519531 152.382813 179.460938 140.050781 167.039063 134.113281 C 166.5 133.03125 172.800781 131.503906 173.519531 129.253906 C 172.890625 129.070313 165.328125 129.703125 162.449219 128.351563 C 162.898438 126.28125 166.230469 124.121094 166.050781 123.132813 C 162.449219 123.851563 158.761719 124.210938 155.339844 125.382813 C 153.269531 121.960938 158.851563 122.683594 159.570313 119.890625 C 154.621094 119.171875 150.480469 122.230469 145.980469 123.492188 C 145.710938 121.421875 145.980469 119.441406 146.609375 117.28125 C 142.109375 117.820313 139.140625 121.871094 134.910156 123.132813 C 131.761719 122.050781 128.699219 118.8125 125.191406 120.523438 L 128.789063 126.371094 C 128.25 126.910156 127.441406 127.722656 126.8125 127.003906 C 117.238281 111.097656 92.492188 107.058594 83.699219 132.492188 C 81.269531 132.3125 78.390625 132.761719 75.960938 133.480469 C 74.253906 127.453125 70.503906 126.253906 66.601563 125.113281 C 58.746094 123.511719 49.378906 130.277344 52.019531 139.960938 C 53.191406 143.921875 55.710938 146.800781 59.402344 148.691406 C 56.789063 162.011719 58.320313 172.722656 62.011719 185.320313 C 60.210938 186.671875 57.960938 186.671875 56.160156 187.933594 C 54.453125 183.882813 54.367188 173.289063 54.210938 171.984375 C 53.914063 169.542969 53.957031 167.039063 50.671875 167.863281 C 49.5 166.601563 47.429688 166.0625 47.160156 164.261719 L 49.410156 162.011719 C 51.292969 165.101563 58.054688 163.835938 56.519531 161.382813 C 55.082031 162.011719 52.921875 163.003906 51.660156 161.382813 C 50 156.402344 53.867188 157.886719 56.882813 158.410156 L 57.511719 155.53125 C 58.589844 152.652344 57.152344 149.773438 54.539063 148.421875 C 52.5625 147.792969 50.503906 147.753906 49.679688 149.683594 C 48.78125 153.910156 44.460938 149.503906 42.570313 152.652344 C 41.492188 154.453125 43.203125 155.890625 43.921875 157.511719 C 42.210938 158.59375 39.0625 159.132813 39.332031 162.011719 C 39.871094 163.722656 44.210938 165.351563 44.953125 166.054688 C 46.71875 167.738281 48.386719 170.195313 51.300781 169.753906 C 54.179688 175.601563 51.121094 182.710938 53.910156 188.5625 C 46.082031 191.800781 52.382813 199.992188 52.289063 205.390625 C 46.710938 209.800781 43.109375 215.472656 38.703125 220.691406 C 41.492188 224.382813 38.609375 228.429688 39.960938 232.300781 C 38.070313 233.109375 35.28125 232.03125 33.480469 233.289063 C 33.003906 228.585938 30.25 224.636719 29.632813 223.667969 C 23.8125 214.523438 11.023438 212.636719 5.671875 220.332031 C -3.058594 229.601563 2.972656 242.832031 5.941406 252.371094 C 8.550781 256.601563 24.003906 260.328125 26.101563 254.710938 C 27.269531 252.460938 27.453125 249.851563 29.609375 248.230469 C 31.953125 246.523438 31.953125 250.210938 33.839844 250.480469 C 38.25 250.210938 40.410156 257.320313 45.8125 255.609375 C 64.679688 276.304688 135.253906 286.917969 150.480469 273.429688 L 156.328125 274.78125 C 162.179688 269.652344 166.769531 263.171875 171.179688 256.601563 C 171.808594 257.050781 171.898438 257.589844 171.898438 258.222656 C 170.640625 261.011719 170.28125 264.429688 169.558594 266.953125 C 169.46875 268.660156 171.539063 269.472656 172.171875 270.910156 C 177.28125 273.894531 184.488281 274.617188 190.054688 272.015625 C 200.550781 267.105469 207.675781 255.25 200.070313 245.890625 C 191.628906 238.664063 183.386719 245.621094 175.410156 252.730469 C 174.601563 252.101563 172.710938 251.382813 173.519531 249.851563 C 176.761719 247.152344 171.628906 245.082031 170.550781 243.640625 C 171.808594 241.300781 177.210938 231.761719 178.019531 229.0625 C 179.585938 223.585938 186.570313 217 188.730469 214.839844 C 193.589844 210.070313 197.550781 204.851563 201.328125 199.632813 L 205.921875 201.882813 C 209.992188 202.804688 211.175781 198.21875 214.402344 197.582031 C 217.585938 199.003906 219.609375 196.917969 217.644531 194.1875 C 216.304688 192.324219 218.203125 190.90625 219.511719 189.191406 C 220.5 184.691406 212.941406 187.03125 215.640625 181.8125 Z M 53.28125 149.683594 C 55.710938 150.851563 56.609375 153.371094 55.261719 155.890625 C 53.640625 155.53125 51.660156 155.441406 51.03125 153.550781 C 50.492188 151.753906 51.503906 149.328125 53.28125 149.683594 Z M 44.820313 153.550781 C 47.003906 152.078125 49.050781 154.453125 50.039063 156.523438 C 49.320313 157.601563 47.972656 158.230469 46.800781 157.511719 C 45.722656 156.34375 43.753906 155.203125 44.820313 153.550781 Z M 44.109375 163.105469 C 41.109375 163.628906 40.882813 161.421875 42.496094 160.273438 C 43.714844 159.40625 45.160156 158.847656 46.441406 159.132813 C 47.957031 159.28125 47.621094 160.707031 47.105469 161.800781 C 47.035156 161.945313 45.609375 162.84375 44.109375 163.105469 Z M 10.171875 220.332031 C 13.140625 219.429688 14.941406 221.589844 16.382813 223.570313 C 18.269531 227.980469 19.441406 232.390625 18.632813 237.160156 C 14.582031 238.0625 10.082031 235.089844 5.671875 237.789063 C 2.613281 236.171875 6.660156 222.402344 10.171875 220.332031 Z M 13.410156 254.710938 C 8.460938 253 7.472656 247.421875 6.300781 243.011719 C 10.171875 242.742188 15.121094 241.929688 18.632813 243.640625 C 18.378906 248.328125 19.503906 255.078125 13.410156 254.710938 Z M 18.902344 241.03125 C 14.671875 240.402344 10.171875 241.390625 5.671875 241.03125 C 4.320313 239.320313 15.929688 238.960938 19.261719 239.773438 Z M 21.242188 227.441406 C 19.53125 224.5625 18.8125 220.601563 15.03125 219.070313 C 15.085938 218.394531 15.742188 218.246094 16.355469 218.34375 C 16.726563 218.398438 21.960938 220.0625 23.761719 221.953125 C 25.109375 223.839844 26.550781 225.550781 27 227.800781 C 24.128906 227.578125 22.679688 227.980469 21.242188 227.441406 Z M 35.820313 249.132813 C 34.652344 249.3125 33.570313 248.589844 33.210938 247.511719 C 34.109375 246.882813 36.722656 247.691406 36.722656 245.621094 C 35.371094 245.171875 32.582031 244.992188 30.960938 245.890625 C 28.871094 242.582031 34.214844 239.222656 36.453125 242.023438 C 38.160156 243.550781 39.691406 248.679688 35.820313 249.132813 Z M 194.578125 264.703125 C 192.601563 263.53125 190.53125 261.191406 189 259.210938 C 191.339844 256.691406 195.75 253.269531 199.710938 254.710938 C 202.878906 257.328125 197.371094 262 194.578125 264.703125 Z M 197.820313 247.242188 C 202.859375 252.820313 194.398438 251.921875 191.96875 253.992188 C 190.710938 251.742188 188.28125 249.582031 186.121094 248.230469 C 189.628906 246.882813 194.488281 245.082031 197.820313 247.242188 Z M 192.238281 266.320313 L 191.609375 266.953125 C 188.730469 266.320313 188.011719 263.082031 186.121094 261.191406 C 188.640625 260.921875 190.710938 264.160156 192.238281 266.320313 Z M 182.488281 262.554688 C 185.078125 264.292969 186.507813 268.042969 187.878906 270.828125 C 184.355469 271.792969 180.097656 273.351563 176.925781 270.613281 C 174.222656 266.546875 179.347656 264.613281 182.488281 262.554688 Z M 211.410156 181.09375 C 215.910156 181.453125 212.488281 186.039063 211.050781 187.300781 C 208.351563 189.640625 206.550781 185.773438 203.941406 185.683594 C 204.570313 181.8125 208.003906 181.703125 211.410156 181.09375 Z M 107.035156 116.746094 C 117.574219 117.691406 130.59375 130.925781 124.5625 147.070313 C 119.25 147.792969 114.390625 151.300781 112.230469 156.523438 C 106.289063 159.851563 99.667969 156.253906 95.402344 152.292969 C 91.566406 147.910156 88.636719 142.296875 87.921875 136.335938 C 86.828125 127.214844 95.402344 115.707031 107.035156 116.746094 Z M 53.28125 192.160156 C 55.710938 190.09375 58.859375 188.289063 62.371094 187.933594 C 62.730469 188.921875 64.171875 189.460938 63.632813 190.8125 C 60.390625 191.171875 56.789063 192.433594 53.910156 194.769531 C 53.191406 194.320313 52.5625 193.0625 53.28125 192.160156 Z M 42.300781 221.953125 C 43.109375 220.0625 43.921875 218.171875 46.171875 217.722656 C 68.558594 236.425781 118.007813 253.152344 166.628906 241.34375 C 167.386719 241.160156 167.320313 244.035156 166.601563 244.234375 C 124.628906 262.078125 59.253906 236.691406 42.300781 221.953125 Z M 155.699219 271.539063 C 157.859375 265.332031 161.820313 260.289063 166.679688 255.609375 L 168.660156 256.332031 C 163.621094 261.101563 161.011719 268.300781 155.699219 271.539063 Z M 170.910156 251.742188 C 171.675781 252.253906 173.078125 252.671875 173.632813 253.582031 C 173.859375 253.953125 172.992188 255.15625 172.601563 255.09375 C 171.429688 254.902344 170.28125 253.992188 168.929688 253.992188 C 168.929688 253 170.101563 252.191406 170.910156 251.742188 Z M 173.519531 231.039063 C 136.824219 250.476563 43.753906 223.953125 54.421875 206.796875 C 55.410156 205.210938 55.335938 203.109375 55.261719 201.253906 C 58.050781 199.8125 66.332031 197.472656 67.230469 196.660156 C 68.578125 199.195313 68.414063 202.960938 70.128906 205.328125 C 80.519531 219.71875 95.285156 224.976563 109.878906 227.578125 C 133.703125 231.828125 158.628906 227.078125 169.238281 221.039063 C 170.355469 220.503906 171.457031 219.863281 172.53125 219.070313 C 173.339844 220.960938 176.039063 222.761719 176.398438 225.191406 Z M 63 176.230469 C 60.210938 166.960938 61.289063 156.882813 62.011719 147.792969 C 59.492188 145.992188 56.609375 143.742188 56.160156 140.320313 C 54.722656 136.183594 57.152344 132.761719 59.132813 129.613281 C 64.03125 126.269531 70.84375 126.761719 74.980469 135.34375 C 78.503906 134.585938 80.667969 134.253906 83.429688 134.472656 C 84.253906 141.058594 86.652344 148.070313 91.183594 152.914063 C 96.820313 158.949219 103.09375 160.941406 111.242188 159.132813 C 110.429688 162.460938 112.410156 164.800781 114.210938 167.230469 C 115.019531 167.410156 115.652344 166.421875 115.828125 165.882813 C 115.117188 164.632813 114.441406 163.34375 114.195313 161.859375 C 112.800781 153.421875 127.039063 147.199219 133.550781 150.742188 C 141.597656 155.121094 142.253906 163.554688 138.78125 168.132813 C 136.441406 170.289063 132.929688 171.101563 129.78125 172.09375 C 129.511719 172.902344 130.5 173.53125 131.039063 173.710938 C 141.480469 175.128906 146.878906 166.90625 143.339844 156.648438 C 141.183594 150.398438 135.179688 147.433594 127.441406 147.433594 C 129.867188 138.933594 130.125 137.863281 128.429688 130.242188 C 136.726563 124.816406 175.589844 127.238281 193.589844 168.851563 C 207.242188 166.476563 214.753906 171.378906 208.800781 179.832031 C 203.941406 180.730469 200.160156 184.332031 195.839844 186.671875 C 194.671875 188.472656 193.5 190.902344 194.851563 193.152344 C 168.5625 234.921875 79.1875 245.035156 63 176.230469 Z M 179.28125 217.722656 C 179.910156 216.460938 178.019531 215.289063 180 214.480469 C 182.339844 214.210938 181.621094 216.820313 182.519531 218.082031 C 182.878906 218.890625 178.796875 220.710938 179.28125 217.722656 Z M 207.984375 199.730469 C 204.996094 200.21875 203.335938 197.21875 201.300781 196.347656 C 200.625 196.054688 189.898438 209.890625 184.5 215.472656 C 183.238281 214.367188 182.816406 213.503906 182.917969 212.769531 C 183.21875 210.570313 197.121094 195.988281 197.40625 195.777344 C 198.4375 195.019531 198.101563 192.859375 197.820313 191.800781 C 197.1875 190.535156 197.25 189.550781 198.246094 188.660156 C 200.554688 186.601563 206.820313 186.535156 206.820313 190.539063 C 206.730469 191.53125 207.269531 192.972656 205.921875 193.152344 C 203.671875 193.78125 201.78125 188.289063 200.339844 192.160156 C 202.945313 195.660156 206.90625 193.925781 209.214844 196.226563 C 210.695313 197.699219 210.136719 199.378906 207.984375 199.730469 Z M 214.921875 196.390625 C 212.398438 196.84375 210.421875 195.492188 209.160156 193.78125 C 211.320313 193.511719 213.390625 194.320313 215.640625 193.152344 C 216.449219 194.140625 216.359375 195.851563 214.921875 196.390625 Z M 216.621094 189.199219 C 216.058594 190.109375 214.902344 190.613281 214.289063 191.53125 L 210.421875 191.53125 C 209.71875 188.570313 213.269531 189.792969 214.527344 188.011719 C 215.683594 186.367188 217.761719 187.347656 216.621094 189.199219 "/>
<path style=" stroke:none;fill-rule:nonzero;fill:rgb(0%,0%,0%);fill-opacity:1;" d="M 201.691406 180.460938 C 204.300781 180.910156 205.648438 178.753906 206.820313 177.222656 L 201.960938 177.582031 C 201.421875 178.570313 199.890625 179.832031 201.691406 180.460938 "/>
<path style=" stroke:none;fill-rule:nonzero;fill:rgb(0%,0%,0%);fill-opacity:1;" d="M 198.449219 219.070313 C 197.011719 220.421875 196.109375 222.402344 196.46875 224.203125 C 196.46875 224.203125 202.679688 219.339844 204.929688 216.460938 C 202.5 215.652344 200.429688 217.8125 198.449219 219.070313 "/>
<path style=" stroke:none;fill-rule:nonzero;fill:rgb(0%,0%,0%);fill-opacity:1;" d="M 192.601563 217.453125 C 191.609375 218.082031 191.519531 220.601563 193.230469 220.332031 C 194.488281 217.539063 197.550781 216.460938 198.449219 213.492188 C 198.449219 213.492188 195.417969 214.070313 192.601563 217.453125 "/>
<path style=" stroke:none;fill-rule:nonzero;fill:rgb(0%,0%,0%);fill-opacity:1;" d="M 194.21875 179.203125 C 195.121094 179.023438 197.011719 179.203125 196.46875 177.582031 L 189.988281 177.222656 C 188.101563 176.503906 186.839844 174.433594 184.859375 173.980469 C 184.410156 175.960938 186.121094 176.140625 187.109375 177.582031 C 186.84375 178.691406 185.691406 179.777344 183.855469 180.8125 C 164.34375 191.808594 105.359375 200.507813 71.730469 143.5625 C 71.191406 140.683594 76.230469 141.222656 77.21875 139.332031 C 75.242188 139.242188 73.171875 139.242188 71.730469 140.59375 C 68.222656 141.492188 64.351563 140.59375 61.019531 139.960938 C 60.90625 140.832031 61.238281 141.257813 61.738281 141.53125 C 62.421875 141.90625 66.332031 141.492188 67.230469 143.203125 C 67.230469 143.203125 66.355469 147.441406 66.292969 149.085938 C 62.746094 244.527344 165.246094 228.0625 185.488281 195.671875 C 187.828125 190.8125 190.078125 185.953125 190.980469 180.460938 C 190.800781 178.480469 193.050781 179.382813 194.21875 179.203125 Z M 93.152344 189.191406 C 90.359375 188.109375 87.660156 187.03125 85.050781 185.683594 C 83.609375 184.242188 84.511719 182.710938 84.691406 181.09375 C 87.300781 183.34375 90.539063 185.230469 93.421875 187.300781 Z M 109.980469 212.859375 C 106.378906 211.78125 102.691406 211.152344 99.269531 209.621094 C 100.621094 207.371094 103.320313 205.300781 106.378906 205.753906 C 109.53125 207.011719 109.53125 211.152344 112.589844 211.871094 C 115.472656 210.160156 117.179688 207.550781 120.691406 207.011719 C 125.101563 207.371094 126.539063 212.410156 128.429688 215.472656 C 121.769531 214.570313 116.550781 214.753906 109.980469 212.859375 Z M 104.128906 192.433594 C 107.28125 192.160156 110.339844 194.140625 113.578125 194.769531 C 113.035156 195.378906 112.773438 196.964844 112.058594 197.496094 C 111.710938 197.753906 106.203125 196.371094 104.804688 195.117188 C 104.222656 194.597656 103.917969 193.78125 104.128906 192.433594 Z M 135.898438 203.503906 C 132.121094 203.589844 128.878906 202.242188 125.550781 201.253906 L 125.960938 196.996094 C 127.761719 197.671875 133.628906 198.996094 136.550781 198.734375 C 138.226563 199.289063 138.601563 200.597656 135.898438 203.503906 Z M 158.59375 203.222656 C 156.9375 203.914063 150.898438 202.6875 150.433594 202.164063 C 150.21875 201.921875 150.480469 199.902344 150.480469 199.902344 L 159.570313 199.902344 C 160.109375 201.859375 159.585938 202.804688 158.59375 203.222656 Z M 84.378906 166.828125 C 99.671875 186.078125 134.859375 197.828125 166.128906 191.328125 L 173.886719 187.445313 C 163.472656 207.066406 86.988281 191.121094 84.378906 166.828125 "/>
<path style=" stroke:none;fill-rule:nonzero;fill:rgb(0%,0%,0%);fill-opacity:1;" d="M 171.898438 149.410156 C 173.519531 149.050781 174.328125 146.351563 172.800781 144.820313 C 171 143.921875 168.300781 142.390625 166.679688 143.5625 C 168.03125 145.632813 172.53125 145.722656 171.898438 149.410156 "/>
<path style=" stroke:none;fill-rule:nonzero;fill:rgb(0%,0%,0%);fill-opacity:1;" d="M 100.261719 110.53125 C 100.53125 111.34375 101.429688 112.0625 102.511719 111.792969 C 104.039063 109.453125 107.191406 109.722656 109.351563 108.191406 C 111.871094 107.472656 113.578125 109.542969 115.472656 109.183594 L 115.472656 107.292969 C 110.972656 105.671875 104.3125 106.933594 100.261719 110.53125 "/>
<path style=" stroke:none;fill-rule:nonzero;fill:rgb(0%,0%,0%);fill-opacity:1;" d="M 62.355469 134.945313 C 62.195313 135.5625 62.242188 136.074219 63 136.453125 L 64.621094 135.101563 C 65.519531 135.640625 65.519531 136.632813 65.882813 137.351563 C 72.488281 136.984375 66.660156 129.710938 59.761719 131.59375 L 59.761719 132.222656 C 61.289063 131.773438 62.28125 132.761719 63.359375 133.480469 C 63.359375 133.480469 62.425781 134.6875 62.355469 134.945313 "/>
<path style=" stroke:none;fill-rule:nonzero;fill:rgb(0%,0%,0%);fill-opacity:1;" d="M 41.941406 182.082031 C 41.941406 182.082031 35.503906 185.917969 44.191406 194.769531 C 44.191406 194.769531 45.359375 185.050781 41.941406 182.082031 "/>
<path style=" stroke:none;fill-rule:nonzero;fill:rgb(0%,0%,0%);fill-opacity:1;" d="M 32.878906 186.886719 C 31.699219 188.382813 31.679688 190.609375 32.222656 192.433594 C 33.480469 194.859375 34.5625 198.28125 37.441406 199.269531 C 37.441406 199.269531 37.335938 184.417969 32.878906 186.886719 "/>
<path style=" stroke:none;fill-rule:nonzero;fill:rgb(0%,0%,0%);fill-opacity:1;" d="M 150.644531 107.074219 C 160.167969 104.285156 157.171875 99.09375 157.171875 99.09375 C 153.621094 99.832031 150.644531 107.074219 150.644531 107.074219 "/>
<path style=" stroke:none;fill-rule:nonzero;fill:rgb(0%,0%,0%);fill-opacity:1;" d="M 164.175781 111.796875 C 166.574219 112.230469 168.664063 110.261719 170.492188 109.058594 C 171.582031 107.996094 172.4375 106.433594 172.195313 104.929688 C 170.050781 101.464844 164.175781 111.796875 164.175781 111.796875 "/>
<path style=" stroke:none;fill-rule:nonzero;fill:rgb(0%,0%,0%);fill-opacity:1;" d="M 108.171875 140.425781 C 109.554688 140.425781 110.679688 139.304688 110.679688 137.917969 C 110.679688 136.53125 109.554688 135.410156 108.171875 135.410156 C 106.785156 135.410156 105.660156 136.53125 105.660156 137.917969 C 105.660156 139.304688 106.785156 140.425781 108.171875 140.425781 "/>
<path style=" stroke:none;fill-rule:nonzero;fill:rgb(0%,0%,0%);fill-opacity:1;" d="M 163.296875 284.652344 C 162.710938 285.105469 160.695313 286.398438 158.039063 288.066406 C 157.625 287.285156 157.246094 286.425781 156.921875 285.566406 C 159.277344 283.828125 161.292969 282.15625 162.671875 280.835938 C 167.097656 276.582031 162.875 277.414063 160.75 279.789063 C 159.578125 281.097656 158.214844 282.5 156.386719 283.992188 C 156.132813 283.148438 155.949219 282.359375 155.859375 281.710938 C 155.484375 278.960938 154.054688 280.417969 154.171875 282.585938 C 154.195313 283.070313 154.414063 284.054688 154.789063 285.222656 C 153.636719 286.066406 152.335938 286.933594 150.796875 287.835938 C 149.480469 288.605469 148.269531 289.238281 147.109375 289.792969 C 146.847656 289.304688 146.621094 288.835938 146.457031 288.40625 C 145.457031 285.78125 144.171875 286.335938 144.671875 287.960938 C 144.789063 288.34375 145.171875 289.289063 145.730469 290.421875 C 142.902344 291.664063 140.257813 292.519531 136.992188 293.734375 C 132.675781 295.347656 131.703125 297.414063 139.453125 295.164063 C 141.652344 294.527344 144.117188 293.429688 146.621094 292.101563 C 147.046875 292.84375 147.515625 293.582031 148.019531 294.257813 C 143.261719 297.164063 138.980469 299.738281 137.878906 300.339844 C 135.394531 301.703125 136.296875 302.710938 140.921875 300.585938 C 142.714844 299.761719 145.953125 297.976563 149.5 295.886719 C 149.96875 296.289063 150.445313 296.585938 150.921875 296.710938 C 153.796875 297.460938 153.765625 296.535156 152.171875 295.835938 C 151.839844 295.691406 151.4375 295.390625 151.007813 294.992188 C 153.257813 293.648438 155.5625 292.222656 157.652344 290.867188 C 158.085938 291.378906 158.550781 291.804688 159.046875 292.085938 C 161.921875 293.710938 162.296875 292.210938 160.296875 290.960938 C 159.917969 290.726563 159.539063 290.347656 159.171875 289.875 C 161.265625 288.484375 163.042969 287.222656 164.175781 286.277344 C 168.589844 282.585938 165.421875 283.027344 163.296875 284.652344 Z M 149.496094 293.351563 C 148.988281 292.726563 148.484375 292.035156 148.027344 291.335938 C 150.539063 289.921875 153.046875 288.316406 155.324219 286.714844 C 155.636719 287.503906 156.011719 288.3125 156.433594 289.070313 C 154.285156 290.40625 151.871094 291.898438 149.496094 293.351563 "/>
<path style=" stroke:none;fill-rule:nonzero;fill:rgb(0%,0%,0%);fill-opacity:1;" d="M 39.660156 276.65625 C 38.597656 275.855469 36.742188 273.148438 35.09375 270.605469 C 35.691406 270.160156 36.25 269.75 36.730469 269.398438 C 39.292969 267.523438 38.417969 266.898438 36.042969 268.773438 C 35.667969 269.070313 35.171875 269.445313 34.613281 269.863281 C 33.667969 268.386719 32.835938 267.058594 32.320313 266.28125 C 32.953125 265.523438 33.421875 264.867188 33.65625 264.414063 C 34.53125 262.726563 34 261.785156 32.625 264.410156 C 32.472656 264.703125 32.167969 265.0625 31.753906 265.472656 C 30.871094 264.234375 30.003906 262.101563 28.945313 260.632813 C 27.820313 259.070313 25.480469 260.148438 26.542969 261.773438 C 27.027344 262.507813 28.445313 264.902344 29.808594 267.15625 C 28.628906 268.09375 27.203125 269.132813 25.71875 270.171875 C 25.125 269.242188 24.316406 268.175781 23.554688 266.703125 C 22.679688 265.015625 21.199219 265.546875 22.140625 267.3125 C 22.488281 267.964844 23.394531 269.496094 24.40625 271.089844 C 20.703125 273.648438 17.027344 276.042969 16.367188 276.71875 C 15.128906 277.976563 17.148438 279.0625 18.273438 277.75 C 19.398438 276.4375 19.742188 274.984375 24.242188 272.796875 C 24.558594 272.644531 24.875 272.476563 25.183594 272.300781 C 25.925781 273.425781 26.664063 274.476563 27.246094 275.171875 C 26.503906 275.699219 25.914063 276.117188 25.605469 276.335938 C 24.398438 277.199219 25.855469 278.273438 27.667969 276.523438 C 27.804688 276.394531 27.960938 276.25 28.121094 276.101563 C 30.457031 278.378906 34.898438 281.890625 37.835938 282.765625 C 40.773438 283.640625 40.679688 283.445313 37.554688 281.882813 C 34.457031 280.335938 31.53125 277.640625 29.308594 275.085938 C 30.417969 274.167969 31.78125 273.105469 33.117188 272.089844 C 34.1875 273.21875 36.847656 276.324219 38.355469 277.402344 C 40.105469 278.652344 41.660156 278.15625 39.660156 276.65625 Z M 28.582031 274.222656 C 27.769531 273.234375 27.078125 272.292969 26.535156 271.46875 C 27.996094 270.492188 29.34375 269.355469 30.472656 268.257813 C 31.335938 269.667969 32.09375 270.878906 32.492188 271.417969 C 31.1875 272.363281 29.792969 273.359375 28.582031 274.222656 "/>
<path style=" stroke:none;fill-rule:nonzero;fill:rgb(0%,0%,0%);fill-opacity:1;" d="M 383.804688 302.195313 C 384.816406 300.601563 385.71875 299.070313 386.066406 298.417969 C 387.007813 296.652344 385.527344 296.121094 384.652344 297.808594 C 383.890625 299.28125 383.085938 300.347656 382.488281 301.28125 C 381.003906 300.238281 379.578125 299.199219 378.398438 298.265625 C 379.765625 296.007813 381.183594 293.613281 381.664063 292.878906 C 382.726563 291.253906 380.390625 290.171875 379.265625 291.734375 C 378.207031 293.207031 377.335938 295.339844 376.457031 296.578125 C 376.039063 296.167969 375.210938 294.84375 375.050781 294.609375 C 374.085938 293.175781 373.800781 294.074219 374.554688 295.519531 C 374.785156 295.972656 375.253906 296.628906 375.890625 297.386719 C 375.371094 298.164063 374.539063 299.492188 373.59375 300.96875 C 373.035156 300.550781 372.539063 300.175781 372.164063 299.878906 C 369.789063 298.003906 368.914063 298.628906 371.476563 300.503906 C 371.957031 300.855469 372.515625 301.265625 373.113281 301.710938 C 371.46875 304.253906 369.613281 306.960938 368.546875 307.761719 C 366.546875 309.261719 368.101563 309.757813 369.851563 308.507813 C 371.359375 307.429688 374.019531 304.324219 375.089844 303.195313 C 376.425781 304.210938 377.789063 305.273438 378.898438 306.191406 C 376.675781 308.746094 373.753906 311.441406 370.652344 312.988281 C 367.527344 314.550781 367.433594 314.746094 370.371094 313.871094 C 373.308594 312.996094 377.753906 309.484375 380.085938 307.207031 C 380.25 307.355469 381.164063 308.15625 381.453125 308.308594 C 382.78125 309.003906 383.597656 308.152344 382.601563 307.441406 C 382.292969 307.222656 381.703125 306.804688 380.964844 306.28125 C 381.546875 305.582031 382.28125 304.53125 383.023438 303.40625 C 383.335938 303.582031 388.8125 307.542969 389.9375 308.855469 C 391.0625 310.167969 393.078125 309.082031 391.84375 307.824219 C 391.179688 307.148438 387.503906 304.753906 383.804688 302.195313 Z M 379.628906 305.328125 C 378.414063 304.464844 377.019531 303.46875 375.714844 302.523438 C 376.113281 301.984375 376.871094 300.773438 377.734375 299.359375 C 378.863281 300.464844 380.210938 301.601563 381.671875 302.574219 C 381.128906 303.398438 380.4375 304.339844 379.628906 305.328125 "/>
<path style=" stroke:none;fill-rule:nonzero;fill:rgb(0%,0%,0%);fill-opacity:1;" d="M 295.09375 296.339844 C 295.507813 296.015625 295.863281 295.78125 296.140625 295.675781 C 298.636719 294.734375 297.851563 294.15625 296.25 294.753906 C 295.820313 294.914063 295.183594 295.257813 294.4375 295.742188 C 293.800781 295.195313 292.703125 294.308594 291.488281 293.300781 C 291.921875 292.847656 292.3125 292.449219 292.617188 292.144531 C 294.554688 290.226563 294.089844 289.378906 292.136719 291.460938 C 291.769531 291.851563 291.339844 292.304688 290.878906 292.792969 C 288.789063 291.042969 286.570313 289.085938 285.972656 288.050781 C 284.855469 286.097656 284.238281 287.433594 285.164063 289.132813 C 285.960938 290.597656 288.445313 293.316406 289.335938 294.394531 C 288.28125 295.476563 287.183594 296.578125 286.242188 297.46875 C 284.203125 295.199219 282.117188 292.296875 281.070313 289.355469 C 280.019531 286.394531 279.855469 286.289063 280.316406 289.007813 C 280.777344 291.730469 283.425781 296.082031 285.203125 298.414063 C 285.054688 298.546875 284.910156 298.667969 284.777344 298.773438 C 283.015625 300.203125 283.816406 301.625 284.71875 300.636719 C 284.949219 300.386719 285.386719 299.90625 285.9375 299.300781 C 286.496094 299.898438 287.355469 300.671875 288.277344 301.457031 C 288.085938 301.714844 287.902344 301.976563 287.730469 302.242188 C 285.28125 306.023438 283.945313 306.175781 282.652344 307.035156 C 281.355469 307.898438 282.105469 309.820313 283.367188 308.851563 C 284.039063 308.332031 286.582031 305.3125 289.273438 302.285156 C 290.589844 303.367188 291.855469 304.339844 292.402344 304.722656 C 293.875 305.757813 294.511719 304.492188 293.097656 303.527344 C 291.867188 302.683594 291.003906 301.847656 290.234375 301.210938 C 291.328125 300 292.414063 298.839844 293.378906 297.890625 C 295.242188 299.355469 297.226563 300.886719 297.832031 301.394531 C 299.164063 302.523438 300.386719 300.554688 299.113281 299.378906 C 297.917969 298.273438 296.105469 297.261719 295.09375 296.339844 Z M 289.171875 300.339844 C 288.492188 299.765625 287.726563 299.046875 286.929688 298.214844 C 287.835938 297.222656 288.878906 296.089844 289.867188 295.027344 C 290.304688 295.441406 291.304688 296.253906 292.46875 297.175781 C 291.363281 298.066406 290.199219 299.144531 289.171875 300.339844 "/>
<path style=" stroke:none;fill-rule:nonzero;fill:rgb(0%,0%,0%);fill-opacity:1;" d="M 137.675781 95.964844 C 136.730469 97.160156 136.71875 98.941406 137.152344 100.398438 C 138.160156 102.34375 139.023438 105.078125 141.328125 105.871094 C 141.328125 105.871094 141.242188 93.988281 137.675781 95.964844 "/>
<path style=" stroke:none;fill-rule:nonzero;fill:rgb(0%,0%,0%);fill-opacity:1;" d="M 353.261719 124.105469 C 362.78125 121.3125 359.785156 116.121094 359.785156 116.121094 C 356.238281 116.859375 353.261719 124.105469 353.261719 124.105469 "/>
<path style=" stroke:none;fill-rule:nonzero;fill:rgb(0%,0%,0%);fill-opacity:1;" d="M 371.355469 126.074219 C 373.753906 126.507813 375.878906 125.578125 377.671875 123.335938 C 378.757813 122.273438 379.617188 120.710938 379.375 119.207031 C 377.226563 115.742188 371.355469 126.074219 371.355469 126.074219 "/>
<path style=" stroke:none;fill-rule:nonzero;fill:rgb(0%,0%,0%);fill-opacity:1;" d="M 337.945313 112.378906 C 337.945313 112.378906 334.949219 117.570313 344.472656 120.359375 C 344.472656 120.359375 341.492188 113.117188 337.945313 112.378906 "/>
<path style=" stroke:none;fill-rule:nonzero;fill:rgb(0%,0%,0%);fill-opacity:1;" d="M 23.132813 51.222656 C 23.132813 51.222656 23.769531 60.328125 23.898438 67.328125 C 24.03125 74.328125 27.167969 81.496094 27.167969 81.496094 L 43.671875 73.78125 L 39.960938 45.730469 L 59.636719 17.5625 L 45.8125 6.132813 L 27.789063 31.855469 L 14.042969 8.472656 L 0.453125 14.234375 C 0.453125 14.234375 6.308594 26.210938 10.4375 32.769531 C 14.566406 39.328125 23.132813 51.222656 23.132813 51.222656 "/>
<path style=" stroke:none;fill-rule:nonzero;fill:rgb(0%,0%,0%);fill-opacity:1;" d="M 47.789063 47.980469 C 47.789063 47.980469 47.992188 56.324219 49.046875 63.324219 C 50.105469 70.324219 51.292969 76.113281 51.292969 76.113281 L 62.847656 73.835938 L 60.121094 44.742188 L 47.789063 47.980469 "/>
<path style=" stroke:none;fill-rule:nonzero;fill:rgb(0%,0%,0%);fill-opacity:1;" d="M 55.351563 30.691406 C 52.015625 30.691406 49.308594 33.398438 49.308594 36.738281 C 49.308594 40.074219 52.015625 42.78125 55.351563 42.78125 C 58.691406 42.78125 61.398438 40.074219 61.398438 36.738281 C 61.398438 33.398438 58.691406 30.691406 55.351563 30.691406 "/>
<path style=" stroke:none;fill-rule:nonzero;fill:rgb(0%,0%,0%);fill-opacity:1;" d="M 154.742188 75.96875 L 172.171875 74.53125 L 173.160156 59.953125 C 173.160156 59.953125 162.601563 62.085938 162.351563 59.085938 C 162.101563 56.085938 170.28125 54.730469 170.28125 54.730469 L 168.929688 44.742188 C 168.929688 44.742188 162.09375 46.332031 161.84375 43.082031 C 161.59375 39.832031 170.910156 38.894531 170.910156 38.894531 L 170.128906 19.953125 L 149.488281 25.574219 C 149.488281 25.574219 150.359375 41.582031 150.921875 49.332031 C 151.488281 57.082031 154.742188 75.96875 154.742188 75.96875 "/>
<path style=" stroke:none;fill-rule:nonzero;fill:rgb(0%,0%,0%);fill-opacity:1;" d="M 179.414063 73.9375 L 196.890625 73.332031 L 198.617188 57.4375 C 198.617188 57.4375 187.96875 59.1875 187.867188 55.890625 C 187.769531 52.597656 196.007813 51.566406 196.007813 51.566406 L 195.164063 40.5625 C 195.164063 40.5625 188.253906 41.921875 188.167969 38.351563 C 188.085938 34.785156 197.4375 34.273438 197.4375 34.273438 L 197.613281 13.511719 L 176.71875 18.515625 C 176.71875 18.515625 176.773438 36.078125 176.945313 44.585938 C 177.117188 53.097656 179.414063 73.9375 179.414063 73.9375 "/>
<path style=" stroke:none;fill-rule:nonzero;fill:rgb(0%,0%,0%);fill-opacity:1;" d="M 202.695313 48.230469 L 218.328125 45.59375 C 218.328125 45.59375 217.410156 39.339844 216.945313 37.558594 C 216.476563 35.78125 214.695313 31.449219 214.695313 31.449219 L 201.214844 34.183594 C 201.214844 34.183594 200.878906 38.078125 201.378906 41.828125 C 201.878906 45.578125 202.695313 48.230469 202.695313 48.230469 "/>
<path style=" stroke:none;fill-rule:nonzero;fill:rgb(0%,0%,0%);fill-opacity:1;" d="M 247.128906 45.078125 C 241.378906 30.328125 245.128906 20.078125 254.378906 17.828125 C 263.628906 15.578125 266.855469 14.363281 266.855469 14.363281 L 266.757813 1.003906 C 266.757813 1.003906 253.308594 -0.5 240.558594 6.25 C 227.808594 13 222.230469 20.335938 227.980469 37.085938 C 233.980469 54.558594 231.03125 57.59375 222.859375 59.3125 L 225.378906 78.578125 C 225.378906 78.578125 239.539063 76.746094 243.789063 72.246094 C 248.039063 67.746094 252.878906 59.828125 247.128906 45.078125 "/>
<path style=" stroke:none;fill-rule:nonzero;fill:rgb(0%,0%,0%);fill-opacity:1;" d="M 255.210938 53.078125 C 255.554688 65.078125 258.378906 79.828125 258.378906 79.828125 L 268.546875 76.101563 L 269.101563 61.210938 L 278.128906 76.328125 L 288.628906 71.328125 L 278.101563 49.871094 L 294.128906 31.828125 L 286.75 17.449219 L 271.226563 36.234375 L 269.371094 22.691406 L 254.789063 26.921875 C 254.789063 26.921875 254.863281 41.078125 255.210938 53.078125 "/>
<path style=" stroke:none;fill-rule:nonzero;fill:rgb(0%,0%,0%);fill-opacity:1;" d="M 308.722656 63.324219 L 310.734375 23.550781 L 298.042969 24.753906 C 298.042969 24.753906 296.890625 43.640625 296.804688 50.71875 C 296.714844 57.800781 296.949219 63.703125 296.949219 63.703125 L 308.722656 63.324219 "/>
<path style=" stroke:none;fill-rule:nonzero;fill:rgb(0%,0%,0%);fill-opacity:1;" d="M 305.597656 17.71875 C 308.894531 18.257813 312 16.023438 312.539063 12.730469 C 313.078125 9.4375 310.847656 6.328125 307.554688 5.789063 C 304.261719 5.25 301.152344 7.480469 300.613281 10.777344 C 300.070313 14.070313 302.304688 17.179688 305.597656 17.71875 "/>
<path style=" stroke:none;fill-rule:nonzero;fill:rgb(0%,0%,0%);fill-opacity:1;" d="M 329.1875 68.851563 L 328.878906 43.578125 C 328.878906 43.578125 339.378906 42.277344 344.878906 35.328125 C 351.589844 26.847656 352.144531 13.898438 341.628906 6.078125 C 329.953125 -2.601563 317.628906 4.828125 317.628906 4.828125 C 317.628906 4.828125 315.808594 29.246094 314.726563 40.265625 C 313.648438 51.285156 312.59375 71.179688 312.59375 71.179688 Z M 326.894531 22.78125 C 327.289063 20.980469 329.261719 19.875 331.304688 20.320313 C 333.34375 20.765625 334.683594 22.585938 334.289063 24.390625 C 333.898438 26.195313 331.921875 27.296875 329.882813 26.855469 C 327.839844 26.410156 326.503906 24.585938 326.894531 22.78125 "/>
<path style=" stroke:none;fill-rule:nonzero;fill:rgb(0%,0%,0%);fill-opacity:1;" d="M 346.464844 52.941406 C 345.5625 59.785156 344.679688 72.136719 344.679688 72.136719 L 358.554688 70.691406 L 358.292969 55 C 358.292969 55 367.074219 54.191406 371.667969 49.875 C 377.277344 44.605469 377.742188 36.566406 368.953125 31.710938 C 359.195313 26.320313 348.890625 30.933594 348.890625 30.933594 C 348.890625 30.933594 347.367188 46.097656 346.464844 52.941406 Z M 356.636719 42.085938 C 356.964844 40.964844 358.613281 40.277344 360.320313 40.554688 C 362.027344 40.828125 363.144531 41.960938 362.816406 43.082031 C 362.488281 44.203125 360.839844 44.886719 359.132813 44.613281 C 357.425781 44.335938 356.308594 43.203125 356.636719 42.085938 "/>
<path style=" stroke:none;fill-rule:nonzero;fill:rgb(0%,0%,0%);fill-opacity:1;" d="M 392.507813 72.53125 L 396.742188 58.546875 C 396.742188 58.546875 385.976563 58.257813 386.402344 55.277344 C 386.832031 52.300781 395.105469 52.8125 395.105469 52.8125 L 396.03125 42.773438 C 396.03125 42.773438 389.011719 42.789063 389.496094 39.566406 C 389.980469 36.34375 399.269531 37.515625 399.269531 37.515625 L 402.753906 18.882813 L 381.382813 19.734375 C 381.382813 19.734375 378.640625 35.527344 377.453125 43.207031 C 376.265625 50.886719 375.199219 70.023438 375.199219 70.023438 L 392.507813 72.53125 "/>
<path style=" stroke:none;fill-rule:nonzero;fill:rgb(0%,0%,0%);fill-opacity:1;" d="M 398.511719 71.390625 L 415.683594 74.71875 L 420.929688 59.613281 C 420.929688 59.613281 410.15625 58.933594 410.796875 55.699219 C 411.441406 52.464844 419.699219 53.308594 419.699219 53.308594 L 421.34375 42.394531 C 421.34375 42.394531 414.308594 42.171875 415.023438 38.671875 C 415.742188 35.175781 424.96875 36.777344 424.96875 36.777344 L 429.796875 16.578125 L 408.3125 16.773438 C 408.3125 16.773438 404.429688 33.898438 402.691406 42.230469 C 400.949219 50.5625 398.511719 71.390625 398.511719 71.390625 "/>
<path style=" stroke:none;fill-rule:nonzero;fill:rgb(0%,0%,0%);fill-opacity:1;" d="M 424.03125 67.332031 C 423.460938 70.824219 425.828125 74.117188 429.316406 74.691406 C 432.808594 75.261719 436.105469 72.894531 436.675781 69.402344 C 437.25 65.910156 434.882813 62.617188 431.390625 62.046875 C 427.898438 61.472656 424.605469 63.839844 424.03125 67.332031 "/>
<path style=" stroke:none;fill-rule:nonzero;fill:rgb(0%,0%,0%);fill-opacity:1;" d="M 439.238281 54.828125 C 439.238281 54.828125 441.175781 49.035156 446.128906 38.828125 C 451.078125 28.621094 467.128906 4.328125 467.128906 4.328125 L 445.628906 0.578125 C 445.628906 0.578125 438.316406 12.832031 433.628906 29.078125 C 428.9375 45.328125 427.324219 52.699219 427.324219 52.699219 L 439.238281 54.828125 "/>
<path style=" stroke:none;fill-rule:nonzero;fill:rgb(0%,0%,0%);fill-opacity:1;" d="M 445.34375 69.039063 C 444.1875 72.378906 445.953125 76.03125 449.296875 77.191406 C 452.640625 78.351563 456.289063 76.578125 457.449219 73.238281 C 458.609375 69.894531 456.839844 66.246094 453.496094 65.085938 C 450.15625 63.925781 446.503906 65.695313 445.34375 69.039063 "/>
<path style=" stroke:none;fill-rule:nonzero;fill:rgb(0%,0%,0%);fill-opacity:1;" d="M 451.085938 55.183594 L 462.460938 59.3125 C 462.460938 59.3125 465.359375 53.9375 471.980469 44.726563 C 478.597656 35.511719 498.558594 14.316406 498.558594 14.316406 L 478.015625 6.949219 C 478.015625 6.949219 468.722656 17.773438 461.328125 32.984375 C 453.933594 48.195313 451.085938 55.183594 451.085938 55.183594 "/>
<path style=" stroke:none;fill-rule:nonzero;fill:rgb(0%,0%,0%);fill-opacity:1;" d="M 325.796875 174.816406 C 324.523438 174.816406 323.496094 175.609375 323.496094 176.585938 C 323.496094 177.5625 324.523438 178.351563 325.796875 178.351563 C 327.0625 178.351563 328.09375 177.5625 328.09375 176.585938 C 328.09375 175.609375 327.0625 174.816406 325.796875 174.816406 "/>
<path style=" stroke:none;fill-rule:nonzero;fill:rgb(0%,0%,0%);fill-opacity:1;" d="M 373.296875 179.1875 C 374.722656 179.1875 375.882813 178.132813 375.882813 176.835938 C 375.882813 175.535156 374.722656 174.484375 373.296875 174.484375 C 371.867188 174.484375 370.710938 175.535156 370.710938 176.835938 C 370.710938 178.132813 371.867188 179.1875 373.296875 179.1875 "/>
<path style=" stroke:none;fill-rule:nonzero;fill:rgb(0%,0%,0%);fill-opacity:1;" d="M 443.421875 204.160156 C 441.539063 207.941406 440.132813 212.066406 439.679688 216 C 440.160156 216.480469 445.664063 210.003906 446.925781 205.707031 C 448.742188 199.511719 445.660156 199.65625 443.421875 204.160156 "/>
<path style=" stroke:none;fill-rule:nonzero;fill:rgb(0%,0%,0%);fill-opacity:1;" d="M 263.816406 193.050781 C 263.363281 189.117188 261.953125 184.992188 260.074219 181.214844 C 257.835938 176.710938 254.75 176.566406 256.570313 182.761719 C 257.832031 187.054688 263.335938 193.53125 263.816406 193.050781 "/>
<path style=" stroke:none;fill-rule:nonzero;fill:rgb(0%,0%,0%);fill-opacity:1;" d="M 249.882813 185.539063 C 251.140625 189.832031 256.644531 196.3125 257.128906 195.828125 C 256.671875 191.894531 255.265625 187.769531 253.386719 183.988281 C 251.144531 179.488281 248.0625 179.34375 249.882813 185.539063 "/>
<path style=" stroke:none;fill-rule:nonzero;fill:rgb(0%,0%,0%);fill-opacity:1;" d="M 163.960938 169.839844 C 170.730469 169.839844 176.21875 164.984375 176.21875 158.996094 C 176.21875 153.007813 170.730469 148.152344 163.960938 148.152344 C 157.191406 148.152344 151.703125 153.007813 151.703125 158.996094 C 151.703125 164.984375 157.191406 169.839844 163.960938 169.839844 Z M 163.960938 150.246094 C 168.90625 150.246094 172.917969 153.941406 172.917969 158.496094 C 172.917969 163.050781 168.90625 166.746094 163.960938 166.746094 C 159.015625 166.746094 155.003906 163.050781 155.003906 158.496094 C 155.003906 153.941406 159.015625 150.246094 163.960938 150.246094 "/>
<path style=" stroke:none;fill-rule:nonzero;fill:rgb(0%,0%,0%);fill-opacity:1;" d="M 162.671875 161.636719 C 163.972656 161.636719 165.027344 160.792969 165.027344 159.753906 C 165.027344 158.710938 163.972656 157.867188 162.671875 157.867188 C 161.367188 157.867188 160.3125 158.710938 160.3125 159.753906 C 160.3125 160.792969 161.367188 161.636719 162.671875 161.636719 "/>
<path style=" stroke:none;fill-rule:nonzero;fill:rgb(0%,0%,0%);fill-opacity:1;" d="M 189.503906 171.09375 C 190.28125 171.09375 190.914063 170.5 190.914063 169.765625 C 190.914063 169.035156 190.28125 168.441406 189.503906 168.441406 C 188.722656 168.441406 188.089844 169.035156 188.089844 169.765625 C 188.089844 170.5 188.722656 171.09375 189.503906 171.09375 "/>
<path style=" stroke:none;fill-rule:nonzero;fill:rgb(0%,0%,0%);fill-opacity:1;" d="M 194.054688 172.960938 C 194.695313 172.960938 195.21875 172.378906 195.21875 171.660156 C 195.21875 170.941406 194.695313 170.359375 194.054688 170.359375 C 193.410156 170.359375 192.890625 170.941406 192.890625 171.660156 C 192.890625 172.378906 193.410156 172.960938 194.054688 172.960938 "/>
<path style=" stroke:none;fill-rule:nonzero;fill:rgb(0%,0%,0%);fill-opacity:1;" d="M 190.292969 173.847656 C 190.292969 174.445313 190.804688 174.929688 191.433594 174.929688 C 192.0625 174.929688 192.574219 174.445313 192.574219 173.847656 C 192.574219 173.246094 192.0625 172.761719 191.433594 172.761719 C 190.804688 172.761719 190.292969 173.246094 190.292969 173.847656 "/>
<path style=" stroke:none;fill-rule:nonzero;fill:rgb(0%,0%,0%);fill-opacity:1;" d="M 123.253906 166.566406 C 125.398438 166.566406 127.140625 164.867188 127.140625 162.765625 C 127.140625 160.667969 125.398438 158.96875 123.253906 158.96875 C 121.105469 158.96875 119.363281 160.667969 119.363281 162.765625 C 119.363281 164.867188 121.105469 166.566406 123.253906 166.566406 "/>
<path style=" stroke:none;fill-rule:nonzero;fill:rgb(0%,0%,0%);fill-opacity:1;" d="M 131.003906 165.828125 C 132.113281 166.625 134.074219 165.789063 135.382813 163.964844 C 136.6875 162.136719 136.847656 160.011719 135.734375 159.21875 C 134.621094 158.421875 132.664063 159.257813 131.355469 161.082031 C 130.050781 162.910156 129.890625 165.035156 131.003906 165.828125 "/>
<path style=" stroke:none;fill-rule:nonzero;fill:rgb(0%,0%,0%);fill-opacity:1;" d="M 348.816406 192.644531 C 347.496094 192.644531 346.429688 193.691406 346.429688 194.984375 C 346.429688 196.28125 347.496094 197.328125 348.816406 197.328125 C 350.132813 197.328125 351.199219 196.28125 351.199219 194.984375 C 351.199219 193.691406 350.132813 192.644531 348.816406 192.644531 "/>
<path style=" stroke:none;fill-rule:nonzero;fill:rgb(0%,0%,0%);fill-opacity:1;" d="M 353.050781 194.640625 C 353.050781 196.105469 353.742188 197.292969 354.597656 197.292969 C 355.449219 197.292969 356.144531 196.105469 356.144531 194.640625 C 356.144531 193.179688 355.449219 191.992188 354.597656 191.992188 C 353.742188 191.992188 353.050781 193.179688 353.050781 194.640625 "/>
<path style=" stroke:none;fill-rule:nonzero;fill:rgb(0%,0%,0%);fill-opacity:1;" d="M 73.886719 83.636719 L 89.859375 78.5625 L 85.320313 53.699219 C 85.320313 53.699219 95.457031 50.660156 99.710938 42.886719 C 104.90625 33.398438 103.285156 20.542969 91.609375 14.59375 C 78.648438 7.992188 67.738281 17.382813 67.738281 17.382813 C 67.738281 17.382813 70.035156 41.761719 70.816406 52.804688 C 71.59375 63.847656 73.886719 83.636719 73.886719 83.636719 Z M 83.816406 30.363281 C 85.902344 30.460938 87.527344 32.03125 87.441406 33.878906 C 87.355469 35.722656 85.59375 37.140625 83.507813 37.042969 C 81.421875 36.945313 79.796875 35.375 79.882813 33.53125 C 79.964844 31.683594 81.726563 30.269531 83.816406 30.363281 "/>
<path style=" stroke:none;fill-rule:nonzero;fill:rgb(0%,0%,0%);fill-opacity:1;" d="M 115.753906 82.527344 L 131.726563 77.449219 L 127.1875 52.589844 C 127.1875 52.589844 137.320313 49.550781 141.578125 41.777344 C 146.773438 32.289063 145.152344 19.433594 133.476563 13.484375 C 120.515625 6.882813 109.605469 16.273438 109.605469 16.273438 C 109.605469 16.273438 111.902344 40.648438 112.683594 51.691406 C 113.460938 62.734375 115.753906 82.527344 115.753906 82.527344 Z M 125.683594 29.253906 C 127.769531 29.347656 129.394531 30.921875 129.308594 32.765625 C 129.222656 34.609375 127.460938 36.027344 125.375 35.933594 C 123.289063 35.835938 121.664063 34.261719 121.75 32.417969 C 121.835938 30.574219 123.59375 29.15625 125.683594 29.253906 "/>
<path style=" stroke:none;fill-rule:nonzero;fill:rgb(0%,0%,0%);fill-opacity:1;" d="M 105.355469 309.480469 C 106.203125 308.652344 106.695313 307.609375 106.640625 306.507813 C 106.519531 304.050781 103.765625 302.214844 100.492188 302.40625 C 99.621094 302.457031 98.804688 302.648438 98.070313 302.945313 C 98.070313 302.90625 98.074219 302.867188 98.074219 302.828125 C 97.855469 298.449219 92.59375 295.191406 86.324219 295.558594 C 79.414063 295.964844 74.761719 301.171875 75.449219 304.902344 C 74.480469 304.679688 73.425781 304.585938 72.332031 304.648438 C 67.761719 304.917969 64.191406 307.769531 64.351563 311.023438 C 64.683594 317.703125 73.269531 316.417969 73.960938 316.316406 C 73.648438 318.210938 74.867188 324.476563 82.746094 324.015625 C 84.429688 323.917969 85.972656 323.421875 87.261719 322.652344 C 88.449219 324.257813 90.496094 325.257813 92.777344 325.121094 C 95.90625 324.941406 98.386719 322.699219 98.742188 319.933594 C 104.269531 320.625 109.121094 318.585938 109.628906 315.328125 C 109.96875 313.125 108.222656 310.921875 105.355469 309.480469 Z M 106.355469 314.722656 C 105.976563 317.167969 100.203125 318.378906 96.058594 317.859375 C 95.792969 319.933594 94.179688 322.695313 91.835938 322.832031 C 90.125 322.933594 88.335938 321.101563 87.449219 319.898438 C 86.480469 320.476563 84.753906 321.714844 83.542969 322.085938 C 78.503906 323.628906 73.96875 319.308594 77.46875 315.148438 C 76.953125 315.222656 67.3125 315.753906 67.066406 310.746094 C 66.945313 308.304688 71.898438 306.179688 75.324219 305.976563 C 76.144531 305.929688 77.863281 306.03125 78.589844 306.195313 C 78.074219 303.398438 80.96875 298.121094 86.148438 297.820313 C 90.851563 297.542969 95.394531 301.746094 95.554688 305.03125 C 95.558594 305.0625 95.554688 305.089844 95.554688 305.117188 C 96.101563 304.894531 96.71875 304.75 97.371094 304.714844 C 99.824219 304.570313 101.890625 305.945313 101.980469 307.789063 C 102.023438 308.617188 101.65625 309.398438 101.019531 310.019531 C 104.066406 310.152344 106.609375 313.070313 106.355469 314.722656 "/>
<path style=" stroke:none;fill-rule:nonzero;fill:rgb(0%,0%,0%);fill-opacity:1;" d="M 343.890625 315.992188 C 342.796875 315.929688 341.742188 316.023438 340.769531 316.242188 C 341.460938 312.511719 336.808594 307.304688 329.898438 306.902344 C 323.628906 306.535156 318.367188 309.789063 318.148438 314.171875 C 318.148438 314.210938 318.152344 314.25 318.152344 314.289063 C 317.417969 313.992188 316.601563 313.796875 315.730469 313.746094 C 312.457031 313.554688 309.703125 315.394531 309.582031 317.847656 C 309.527344 318.953125 310.019531 319.992188 310.867188 320.824219 C 307.996094 322.265625 306.253906 324.464844 306.59375 326.671875 C 307.101563 329.929688 311.953125 331.96875 317.480469 331.277344 C 317.835938 334.042969 320.316406 336.28125 323.441406 336.464844 C 325.726563 336.597656 327.773438 335.597656 328.960938 333.996094 C 330.246094 334.765625 331.792969 335.261719 333.476563 335.359375 C 341.355469 335.820313 342.574219 329.550781 342.261719 327.660156 C 342.953125 327.761719 351.539063 329.042969 351.871094 322.367188 C 352.03125 319.113281 348.460938 316.261719 343.890625 315.992188 Z M 338.753906 326.488281 C 342.253906 330.652344 337.71875 334.972656 332.679688 333.429688 C 331.46875 333.058594 329.738281 331.816406 328.773438 331.242188 C 327.886719 332.445313 326.097656 334.277344 324.386719 334.175781 C 322.042969 334.039063 320.429688 331.277344 320.164063 329.203125 C 316.019531 329.722656 310.246094 328.511719 309.867188 326.066406 C 309.609375 324.414063 312.152344 321.496094 315.203125 321.363281 C 314.566406 320.738281 314.199219 319.960938 314.242188 319.132813 C 314.332031 317.289063 316.394531 315.914063 318.851563 316.054688 C 319.503906 316.09375 320.117188 316.238281 320.667969 316.460938 C 320.667969 316.433594 320.664063 316.402344 320.664063 316.375 C 320.828125 313.089844 325.367188 308.886719 330.074219 309.164063 C 335.253906 309.464844 338.148438 314.742188 337.628906 317.539063 C 338.359375 317.375 340.078125 317.273438 340.898438 317.320313 C 344.324219 317.523438 349.277344 319.648438 349.15625 322.089844 C 348.90625 327.097656 339.269531 326.566406 338.753906 326.488281 "/>
</g>
</svg>
