<?xml version="1.0" encoding="UTF-8"?>
<svg xmlns="http://www.w3.org/2000/svg" xmlns:xlink="http://www.w3.org/1999/xlink" width="541pt" height="515pt" viewBox="0 0 541 515" version="1.1">
<g id="surface1">
<path style=" stroke:none;fill-rule:nonzero;fill:rgb(0%,0%,0%);fill-opacity:1;" d="M 540.183594 318.648438 C 537.785156 295.050781 518.484375 292.800781 511.785156 292.75 C 513.285156 287.351563 513.683594 279.351563 511.382813 273.351563 C 508.882813 265.449219 501.183594 258.648438 493.085938 257.449219 C 475.878906 254.882813 461.359375 271.800781 464.984375 285.148438 C 467.371094 292.949219 472.800781 300.621094 472.898438 308.925781 C 472.949219 313.023438 471.777344 319.414063 465.472656 321.261719 C 457.207031 323.679688 454.703125 330.554688 455.445313 338.816406 C 455.992188 344.894531 458.203125 347.203125 460.28125 352.085938 C 461.003906 353.78125 461.246094 355.484375 460.285156 357.148438 C 457.882813 361.75 462.882813 364.148438 464.285156 367.648438 C 465.019531 369.253906 464.574219 370.703125 463.800781 372.144531 C 462.984375 382.300781 436.980469 408.601563 425.589844 404.644531 C 414.390625 400.757813 407.71875 389 410.445313 380.269531 C 416.003906 362.484375 431.597656 289.914063 419.984375 279.449219 C 414.785156 275.75 397.484375 264.050781 381.085938 258.550781 C 380.382813 252.351563 387.984375 199.449219 391.183594 193.75 C 392.183594 191.199219 394.210938 190.375 396.460938 189.875 C 424.703125 183.597656 423.910156 161.917969 412.5625 148.980469 C 398.027344 132.410156 371.734375 134.550781 351.984375 139.800781 C 335.734375 144.550781 317.761719 145.324219 303.484375 141.71875 C 287.183594 138.515625 274.785156 127.648438 260.882813 118.851563 C 221.480469 94.925781 181.007813 109.523438 151.273438 140.179688 C 119.246094 173.195313 137.816406 200.382813 160.785156 199.851563 C 162.382813 206.148438 173.585938 226.351563 169.382813 230.148438 C 157.152344 229.71875 145.976563 229.742188 135.152344 231.382813 C 130.078125 232.152344 62.882813 275.148438 61.085938 277.949219 C 59.785156 296.550781 84.984375 373.949219 85.882813 377.351563 C 75.738281 382.085938 56.785156 389.050781 46.683594 401.148438 C 42.746094 401.148438 41.855469 398.449219 37.285156 402.148438 C 32.71875 394.003906 7.820313 387.84375 7.382813 399.351563 C 7.285156 404.351563 13.683594 406.550781 16.785156 409.351563 C 12.382813 412.148438 6.085938 412.351563 1.683594 416.25 C -4.859375 423.363281 10.484375 432.050781 19.285156 427.75 C 17.128906 430.578125 14.839844 433.8125 14.183594 437.300781 C 12.003906 448.886719 22.328125 450.40625 28.515625 444.367188 C 31.546875 441.410156 34.191406 436.925781 35.484375 431.75 C 38.785156 432.449219 37.882813 436.75 39.085938 439.25 C 38.800781 442.410156 39.855469 445.058594 41.421875 447.433594 C 46.886719 455.722656 60.222656 455.96875 55.476563 441.070313 C 54.648438 438.46875 54.148438 435.871094 56.382813 433.550781 C 61 433.386719 60.371094 421.246094 53.085938 418.050781 C 53.183594 416.449219 54.585938 415.351563 54.585938 413.75 C 52.085938 407.050781 85.585938 392.75 89.882813 391.75 C 91.085938 392.148438 107.585938 433.550781 108.585938 436.351563 C 107.382813 436.648438 96.683594 443.949219 96.683594 443.949219 C 81.402344 461.273438 178.210938 504.109375 183.042969 505.320313 C 216.484375 521.050781 357.390625 516.089844 359.484375 500.050781 C 359.152344 495.050781 357.984375 489.152344 354.484375 485.050781 C 367.984375 469.152344 391.226563 429.597656 401.585938 409.351563 C 403.535156 419.800781 421.585938 422.550781 428.585938 420.148438 C 429.882813 421.050781 430.285156 422.351563 431.085938 423.449219 C 436.511719 426.324219 442.703125 424.519531 440.882813 416.25 C 455.605469 412.980469 473.835938 391.449219 474.683594 378.449219 C 476.785156 376.25 479.882813 376.851563 482.285156 375.148438 C 496.035156 378.050781 501.585938 370.550781 502.382813 367.648438 C 512.960938 369.984375 527.417969 363.75 526.882813 348.550781 C 526.882813 348.550781 541.359375 344.300781 534.085938 334.148438 C 538.382813 330.25 540.585938 323.949219 540.183594 318.648438 Z M 182.523438 122.148438 C 189.472656 117.652344 215.03125 103.605469 239.984375 117.050781 C 261.441406 128.5625 292.109375 150.597656 324.835938 149.042969 C 342.09375 148.222656 367.949219 135.515625 396.832031 144.988281 C 408.921875 148.953125 431.148438 174.851563 388.984375 187.949219 C 381.285156 197.050781 375.683594 257.449219 375.683594 257.449219 C 351.152344 248.050781 271.152344 232.050781 200.484375 228.71875 C 200.984375 220.015625 187.484375 186.75 185.585938 177.949219 C 184.984375 175.449219 182.585938 175.050781 181.285156 173.550781 C 171.214844 165.746094 169.121094 160.921875 166.183594 150.148438 C 165.464844 139.882813 171.421875 129.324219 182.523438 122.148438 Z M 167.285156 198.050781 L 165.785156 201.351563 C 164.085938 200.648438 164.785156 198.449219 163.683594 197.351563 C 169.285156 193.148438 173.882813 188.449219 179.882813 184.75 L 181.683594 186.148438 C 177.382813 190.648438 171.785156 194.25 167.285156 198.050781 Z M 39.484375 406.550781 C 40.285156 405.050781 41.285156 402.75 43.085938 402.550781 C 44.183594 405.148438 40.585938 407.949219 43.085938 410.449219 C 45.785156 412.148438 48.382813 416.148438 51.683594 414.050781 C 51.484375 415.648438 50.785156 417.351563 49.183594 418.050781 C 44.578125 419.480469 34.722656 413.585938 39.484375 406.550781 Z M 55.984375 426.351563 C 56.984375 431.949219 48.585938 429.648438 49.882813 435.351563 C 49.683594 440.25 56.683594 447.351563 49.484375 450.050781 C 45.585938 448.648438 42.382813 444.75 41.984375 440.351563 C 41.183594 436.25 40.984375 431.75 37.984375 428.851563 C 34.683594 428.148438 32.285156 431.148438 30.785156 433.148438 C 28.882813 437.449219 26.382813 441.949219 21.785156 443.949219 C 19.683594 444.25 19.882813 441.648438 19.285156 440.351563 C 19.683594 432.851563 25.683594 427.75 31.882813 424.148438 C 31.785156 422.550781 30.484375 420.75 28.683594 421.949219 C 20.558594 426.304688 4.976563 425.097656 5.984375 418.050781 C 7.882813 415.550781 11.183594 416.851563 13.484375 415.550781 C 17.882813 414.449219 28.683594 412.949219 28.984375 411.949219 C 29.882813 409.148438 27.785156 408.050781 25.785156 407.550781 C 20.984375 406.351563 15.085938 404.851563 13.183594 399.648438 C 19.074219 392.777344 28.460938 398.621094 34.785156 401.148438 C 37.683594 402.949219 33.984375 404.550781 34.085938 406.550781 C 33.085938 410.75 39.035156 425.550781 51.285156 420.550781 C 52.285156 422.949219 55.683594 423.550781 55.984375 426.351563 Z M 49.183594 410.449219 C 47.882813 410.148438 46.382813 409.75 45.882813 408.351563 C 72.09375 376.523438 115.816406 370.71875 141.683594 366.550781 C 143.585938 367.851563 147.285156 367.949219 147.085938 371.25 C 147.085938 373.351563 145.984375 376.351563 143.882813 377.75 C 114.882813 376.195313 71.265625 389.75 49.183594 410.449219 Z M 151.707031 375.792969 C 156.535156 367.460938 146.957031 361.996094 140.585938 364.050781 C 139.785156 364.949219 138.484375 364.75 137.382813 364.75 C 136.085938 362.648438 139.484375 361.449219 140.285156 360.050781 C 153.898438 357.328125 161.773438 367.925781 153.347656 380.847656 C 149.769531 386.332031 144.328125 388.613281 143.085938 382.75 C 147.375 380.8125 150.238281 378.328125 151.707031 375.792969 Z M 185.984375 501.148438 C 180.984375 501.648438 177.683594 498.351563 172.984375 497.949219 C 173.585938 495.351563 178.757813 492.261719 179.097656 492.40625 C 181.582031 493.484375 184.132813 492.679688 186.683594 494.351563 C 184.484375 496.550781 186.183594 498.851563 185.984375 501.148438 Z M 404.28125 377.304688 C 390.558594 412.394531 357.816406 473.382813 344.484375 484.382813 C 328.859375 497.273438 215.910156 492.132813 201.160156 491.230469 C 191.925781 490.664063 182.664063 489.109375 174.855469 484.550781 C 172.824219 483.367188 133.484375 455.148438 115.382813 442.148438 C 112.285156 432.25 100.882813 396.351563 94.882813 391.050781 C 95.285156 388.851563 112.785156 384.050781 120.085938 383.449219 C 126.484375 400.050781 130.285156 413.949219 136.984375 429.148438 C 140.382813 433.050781 144.285156 433.75 149.285156 432.75 C 154.585938 426.851563 133.785156 381.351563 133.785156 381.351563 C 135.09375 380.675781 136.328125 381.792969 137.703125 383.476563 C 142.621094 389.523438 144.660156 391.375 149.597656 391.507813 C 163.558594 391.886719 168.191406 364.628906 152.085938 357.148438 C 147.871094 354.835938 140.523438 355.253906 134.878906 360.648438 C 133.691406 361.789063 131.527344 362.511719 131.21875 360.480469 C 129.292969 347.8125 120.796875 314.265625 118.984375 311.851563 C 121.683594 309.25 132.882813 304.25 133.382813 302.148438 C 134.882813 299.050781 136.183594 294.550781 140.285156 293.851563 C 141.984375 292.648438 140.683594 291.25 140.984375 289.851563 L 129.484375 274.050781 C 124.984375 271.949219 121.183594 276.050781 116.882813 276.550781 C 114.847656 274.511719 116.34375 270.957031 115.429688 268.402344 C 115.269531 267.949219 104.484375 268.148438 102.785156 273.351563 C 102.585938 276.050781 102.984375 279.550781 103.882813 282.351563 C 95.785156 286.851563 87.183594 290.351563 79.085938 294.949219 C 75.371094 299.535156 78.96875 308.515625 80.886719 310.449219 C 81.917969 311.492188 97.183594 317.75 103.183594 321.148438 C 104.285156 320.449219 105.382813 319.351563 106.785156 319.050781 C 109.484375 325.550781 115.085938 357.550781 116.285156 366.550781 C 116.285156 366.550781 97.984375 373.050781 89.882813 375.148438 C 81.527344 359.902344 65.152344 280.71875 65.152344 280.71875 C 66.050781 277.917969 135.382813 237.851563 137.785156 236.050781 C 192.433594 224.550781 381.351563 250.570313 412.808594 281.21875 C 417.1875 285.484375 417.585938 290.710938 417.203125 297.519531 C 415.96875 319.628906 407.859375 368.15625 404.28125 377.304688 Z M 122.984375 287.351563 C 122.984375 287.351563 124.984375 295.75 120.785156 295.949219 C 117.585938 295.550781 95.785156 304.449219 88.085938 307.550781 C 88.085938 304.25 82.683594 301.851563 86.285156 298.550781 C 90.382813 296.148438 116.683594 280.550781 121.183594 279.449219 C 124.484375 280.449219 122.285156 284.25 122.984375 287.351563 Z M 109.683594 303.148438 C 113.285156 303.449219 115.785156 301.148438 118.984375 300.648438 C 122.039063 300.488281 126.996094 300.742188 125.882813 303.148438 C 117.882813 307.050781 110.382813 312.648438 102.785156 316.550781 L 89.882813 311.449219 C 89.984375 309.851563 104.382813 306.148438 109.683594 303.148438 Z M 128.382813 282.351563 C 131.585938 283.148438 133.484375 287.648438 136.285156 290.550781 C 133.984375 293.148438 129.085938 299.550781 129.085938 299.550781 C 128.785156 293.851563 128.085938 287.851563 128.382813 282.351563 Z M 464.265625 391.886719 C 457.09375 402.171875 445.226563 414.164063 436.484375 414.050781 C 435.484375 414.851563 434.585938 416.148438 435.484375 417.351563 C 435.882813 418.648438 438.285156 419.648438 436.882813 421.25 C 432.984375 423.449219 432.882813 418.050781 430.382813 416.550781 C 412.558594 419.695313 404.449219 412.71875 404.085938 402.148438 C 404.882813 399.351563 406.683594 396.550781 408.785156 394.949219 C 411.382813 401.648438 417.484375 405.550781 423.183594 408.351563 C 433.210938 412.097656 447.425781 401.882813 456.0625 392.273438 C 458.179688 389.921875 466.984375 378.949219 468.183594 375.949219 C 473.558594 376.910156 468.792969 385.390625 464.265625 391.886719 Z M 465.285156 362.949219 C 468.585938 362.148438 471.484375 364.148438 474.285156 365.449219 C 475.984375 368.148438 478.085938 370.351563 480.785156 371.949219 C 474.183594 372.851563 469.785156 367.449219 465.285156 362.949219 Z M 479.683594 367.25 C 475.382813 360.949219 466.382813 358.050781 463.882813 350.351563 C 459.785156 343.25 459.285156 332.75 463.183594 325.851563 C 463.984375 325.148438 464.285156 323.648438 465.683594 323.75 C 466.085938 324.648438 466.085938 325.851563 467.484375 325.851563 C 471.785156 324.851563 474.585938 321.050781 476.085938 317.25 C 483.585938 301.851563 463.382813 288.148438 472.484375 272.550781 C 478.6875 256.007813 506.929688 261.726563 506.683594 279.75 C 504.585938 291.75 505.382813 306.949219 492.285156 312.550781 C 489.085938 313.648438 487.785156 316.550781 485.882813 319.050781 C 483.984375 323.550781 488.984375 326.25 490.484375 329.851563 C 486.882813 331.25 487.382813 335.050781 485.882813 337.75 C 486.183594 341.75 490.382813 344.25 493.085938 346.351563 C 491.285156 347.148438 489.382813 348.949219 488.683594 350.75 C 489.042969 356.660156 492.035156 365.050781 499.183594 366.148438 C 496.84375 374.339844 484.589844 374.261719 479.683594 367.25 Z M 499.882813 360.75 C 495.734375 358.425781 493.882813 354.351563 494.484375 349.648438 C 498.683594 345.050781 507.285156 356.050781 520.085938 349.25 C 521.316406 348.859375 522.363281 351.230469 522.371094 353.550781 C 522.394531 357.863281 512.070313 366.019531 499.882813 360.75 Z M 494.882813 341.351563 C 493.183594 339.351563 490.984375 337.25 492.285156 334.550781 C 512.785156 340.300781 515.660156 340.550781 524.859375 338.550781 C 526.984375 338.050781 529.882813 334.75 531.585938 337.351563 C 531.171875 348.960938 505.53125 349.992188 494.882813 341.351563 Z M 533.382813 326.949219 C 529.734375 335.675781 500.179688 338.050781 491.285156 322.648438 C 489.324219 320.519531 491.15625 317.738281 495.085938 316.449219 C 507.136719 312.492188 521.808594 318.300781 520.785156 312.148438 C 519.984375 308.550781 514.984375 308.75 511.785156 307.851563 L 507.085938 307.550781 C 508.285156 304.75 510.183594 301.851563 510.683594 299.25 C 520.972656 293.417969 539.160156 311.746094 533.382813 326.949219 "/>
<path style=" stroke:none;fill-rule:nonzero;fill:rgb(0%,0%,0%);fill-opacity:1;" d="M 514.984375 235.550781 C 514.183594 234.351563 512.683594 235.851563 511.382813 235.851563 C 508.984375 238.351563 507.285156 242.050781 508.484375 245.25 C 508.683594 244.75 515.085938 239.351563 514.984375 235.550781 "/>
<path style=" stroke:none;fill-rule:nonzero;fill:rgb(0%,0%,0%);fill-opacity:1;" d="M 488.683594 245.949219 C 488.085938 241.949219 487.085938 238.25 486.882813 234.050781 C 486.382813 232.851563 486.085938 229.75 484.085938 230.851563 C 478.585938 234.019531 483.382813 246.777344 488.683594 245.949219 "/>
<path style=" stroke:none;fill-rule:nonzero;fill:rgb(0%,0%,0%);fill-opacity:1;" d="M 469.285156 251.75 C 469.59375 243.574219 463.777344 235.09375 457.382813 237.648438 C 458.785156 243.75 469.285156 251.75 469.285156 251.75 "/>
<path style=" stroke:none;fill-rule:nonzero;fill:rgb(0%,0%,0%);fill-opacity:1;" d="M 403.785156 89.351563 C 408.683594 86.851563 449.882813 34.148438 448.382813 31.75 C 447.683594 30.648438 427.785156 21.449219 421.085938 14.148438 C 418.484375 13.449219 401.183594 59.148438 391.882813 79.648438 C 393.183594 83.25 403.085938 90.148438 403.785156 89.351563 "/>
<path style=" stroke:none;fill-rule:nonzero;fill:rgb(0%,0%,0%);fill-opacity:1;" d="M 426.085938 88.648438 C 421.085938 92.949219 416.585938 98.75 414.183594 104.851563 C 416.152344 107.050781 425.382813 95.550781 430.785156 90.75 C 434.367188 87.21875 429.867188 85.550781 426.085938 88.648438 "/>
<path style=" stroke:none;fill-rule:nonzero;fill:rgb(0%,0%,0%);fill-opacity:1;" d="M 388.984375 324.050781 C 387.785156 323.851563 386.882813 324.25 386.085938 325.148438 C 385.382813 329.949219 388.484375 333.050781 390.484375 336.648438 C 390.585938 339.050781 388.882813 340.648438 387.585938 342.449219 C 317.316406 396.320313 237.796875 384.480469 190.464844 310.96875 C 188.542969 307.988281 186.5625 305.035156 185.285156 301.75 C 190.683594 298.550781 191.183594 292.148438 191.683594 286.949219 C 191.484375 285.75 191.085938 283.148438 189.183594 283.75 C 187.785156 284.351563 185.984375 285.148438 186.683594 287.351563 C 185.382813 294.949219 177.882813 302.851563 170.085938 304.949219 C 168.183594 306.351563 165.882813 303.75 164.382813 306.050781 C 164.183594 307.351563 164.585938 308.449219 165.484375 309.351563 C 170.484375 311.75 175.683594 308.148438 180.585938 306.75 C 180.585938 306.75 184.46875 320.859375 186.683594 329.449219 C 189.148438 334.441406 190.367188 346.800781 191.144531 361.347656 C 192.058594 378.351563 192.367188 398.34375 193.359375 413.035156 C 196.769531 463.453125 220.085938 475.367188 258.828125 478.921875 C 325.976563 485.085938 347.328125 452.710938 362.683594 402.550781 C 369.785156 379.050781 379.984375 365.648438 384.683594 360.449219 C 385.984375 358.949219 396.785156 348.449219 398.382813 343.148438 L 404.085938 344.25 C 404.984375 343.851563 404.984375 342.648438 404.484375 342.050781 C 393.984375 342.050781 393.785156 330.148438 388.984375 324.050781 Z M 358.054688 398.460938 C 349.070313 425.40625 337.882813 448.234375 326.191406 457.433594 C 290.429688 485.566406 217.589844 479.757813 202.550781 440.222656 C 196.550781 424.449219 195.4375 370.9375 194.632813 351.363281 C 194.523438 348.75 196.382813 351.050781 196.382813 351.050781 C 197.546875 358.691406 199.339844 373.6875 200.875 387.675781 C 208.054688 453.097656 210.59375 460.652344 263.816406 466.71875 C 305.492188 471.46875 327.109375 454.8125 335.816406 439.050781 C 341.765625 428.285156 355.390625 392.261719 359.117188 385.699219 C 361.796875 380.984375 364.46875 377.351563 366.683594 377.351563 C 362.855469 384.996094 360.230469 391.933594 358.054688 398.460938 Z M 234.882813 395.351563 C 239.183594 394.949219 261.785156 400.148438 263.683594 401.851563 C 262.882813 405.851563 261.585938 410.148438 257.285156 411.949219 C 253.585938 411.648438 237.585938 409.648438 234.585938 405.75 C 234.683594 402.75 234.285156 398.550781 234.882813 395.351563 Z M 249.683594 434.949219 C 257.816406 436.050781 262.484375 445.050781 264.484375 451.148438 C 270.019531 444.210938 279.015625 440.820313 286.113281 440.242188 C 298.773438 439.210938 306.734375 446.179688 306.585938 454.050781 C 282.847656 464.160156 222.1875 448.648438 227.683594 442.148438 C 232.984375 435.550781 241.585938 433.25 249.683594 434.949219 Z M 273.832031 403.671875 C 279.671875 405.515625 294.035156 406.644531 296.085938 407.949219 C 296.085938 411.449219 293.785156 414.050781 291.484375 416.550781 C 287.585938 420.050781 272.882813 416.148438 271.683594 412.949219 C 272.085938 409.25 273.398438 403.535156 273.832031 403.671875 Z M 301.183594 409.351563 C 306.585938 407.648438 325.285156 410.148438 325.285156 410.148438 C 324.785156 425.550781 296.535156 417.800781 301.183594 409.351563 Z M 300.113281 403.554688 C 276.0625 401.894531 247.515625 396.136719 227.789063 386.722656 C 210 378.230469 202.953125 363.378906 203.59375 356.144531 C 218.945313 380.246094 303.902344 416.03125 354.671875 381.71875 C 352.273438 388.816406 332.421875 405.785156 300.113281 403.554688 Z M 386.8125 351.710938 C 336.753906 411.742188 236.058594 400.644531 194.984375 335.949219 C 192.683594 332.050781 190.785156 328.050781 189.585938 323.75 C 189.785156 323.351563 190.484375 323.148438 190.285156 322.648438 C 194.902344 328.433594 200.550781 335.636719 206.433594 342.128906 C 250.339844 390.613281 335.691406 404.320313 385.691406 348.738281 C 392.476563 341.195313 395.199219 341.648438 386.8125 351.710938 "/>
<path style=" stroke:none;fill-rule:nonzero;fill:rgb(0%,0%,0%);fill-opacity:1;" d="M 329.285156 103.75 C 332.882813 103.148438 349.484375 102.050781 350.882813 97.949219 C 352.484375 93.75 351.882813 88.648438 354.085938 84.648438 C 387.480469 83.332031 395.242188 59.976563 389.855469 43.703125 C 380.449219 15.292969 353.007813 22.410156 339.683594 27.449219 C 336.585938 49.148438 323.382813 101.449219 329.285156 103.75 Z M 360.882813 45.75 C 376.402344 46.390625 368.515625 61.507813 357.683594 58.050781 C 357.785156 53.449219 359.484375 50.382813 360.882813 45.75 "/>
<path style=" stroke:none;fill-rule:nonzero;fill:rgb(0%,0%,0%);fill-opacity:1;" d="M 387.183594 162.449219 C 380.085938 161.050781 383.535156 169.550781 378.183594 180.75 C 381.285156 183.800781 391.382813 168.351563 387.183594 162.449219 "/>
<path style=" stroke:none;fill-rule:nonzero;fill:rgb(0%,0%,0%);fill-opacity:1;" d="M 372.484375 164.550781 C 371.484375 161.800781 368.234375 162.800781 368.484375 165.648438 C 367.484375 169.851563 363.484375 173.148438 363.484375 177.148438 C 363.484375 177.148438 372.882813 170.648438 372.484375 164.550781 "/>
<path style=" stroke:none;fill-rule:nonzero;fill:rgb(0%,0%,0%);fill-opacity:1;" d="M 354.085938 289.550781 C 356.714844 286.4375 367.703125 281.945313 364.183594 301.351563 C 368.816406 303.382813 372.183594 292.050781 369.585938 286.949219 C 368.484375 283.75 364.433594 281.25 360.734375 281.550781 C 356.335938 282.148438 351.882813 284.050781 349.382813 287.75 C 347.984375 290.675781 352.234375 291.800781 354.085938 289.550781 "/>
<path style=" stroke:none;fill-rule:nonzero;fill:rgb(0%,0%,0%);fill-opacity:1;" d="M 329.566406 336.285156 C 336.574219 350.105469 359.121094 348.890625 363.785156 339.949219 C 363.984375 337.449219 361.484375 336.050781 359.882813 334.148438 C 360.597656 331.027344 361.308594 327.546875 360.953125 324.328125 C 359.730469 313.265625 342.109375 310.285156 335.773438 317.203125 C 333.03125 320.195313 331.210938 324.402344 330.285156 328.75 C 328.585938 329.949219 325.484375 331.25 326.683594 333.75 C 326.996094 334.035156 328.683594 334.550781 329.566406 336.285156 Z M 354.484375 318.71875 C 358.886719 321.359375 358.179688 328.640625 356.285156 331.25 C 348.683594 328.050781 341.882813 327.75 333.585938 328.050781 C 334.875 316.445313 347.496094 314.523438 354.484375 318.71875 Z M 359.484375 339.71875 C 357.902344 341.070313 353.511719 343.589844 348.820313 343.765625 C 340.863281 344.070313 329.582031 336.355469 331.382813 332.75 C 338.816406 328.382813 356.390625 332.6875 359.484375 339.71875 "/>
<path style=" stroke:none;fill-rule:nonzero;fill:rgb(0%,0%,0%);fill-opacity:1;" d="M 210.484375 312.148438 C 219.875 337.394531 254 347.0625 275.617188 327.390625 C 277.015625 326.121094 278.539063 325 280.683594 325.550781 C 283.183594 324.148438 285.785156 321.550781 286.085938 318.648438 C 286.085938 316.550781 283.183594 315.648438 282.785156 313.648438 C 284.75 310.027344 285.617188 301.9375 284.492188 293.480469 C 280.164063 260.929688 238.882813 255.800781 217.1875 279.003906 C 211.726563 284.84375 208.351563 291.886719 209.683594 298.550781 C 207.183594 300.550781 203.085938 300.050781 201.785156 303.550781 C 202.085938 308.148438 206.585938 311.050781 210.484375 312.148438 Z M 236.417969 271.355469 C 254.671875 265.296875 274.011719 272.242188 279.554688 291.53125 C 281.878906 299.625 281.3125 307.492188 279.183594 310.050781 C 255.535156 292.800781 220.535156 294.800781 212.285156 297.449219 C 213.4375 286.351563 222.648438 275.925781 236.417969 271.355469 Z M 280.683594 319.050781 C 280.285156 320.148438 279.785156 321.449219 278.484375 321.949219 C 275.933594 320.183594 274.367188 322.011719 272.914063 323.851563 C 265.578125 333.15625 247.363281 336.945313 232.773438 330.484375 C 222.265625 325.832031 212.957031 315.546875 211.183594 304.949219 C 210.433594 306.074219 209.121094 306.976563 208.089844 306.425781 C 207.746094 306.242188 205.382813 303.148438 205.382813 303.148438 C 229.816406 295.050781 274.816406 305.382813 280.683594 319.050781 "/>
<path style=" stroke:none;fill-rule:nonzero;fill:rgb(0%,0%,0%);fill-opacity:1;" d="M 243.183594 90.449219 C 242.382813 81.851563 237.683594 74.949219 237.085938 66.351563 C 239.285156 64.550781 256.753906 54.449219 261.351563 48.351563 C 268.976563 38.238281 272.789063 25.761719 268.785156 16.949219 C 265.285156 9.949219 259.484375 1.351563 250.382813 0.75 C 231.085938 -2.050781 188.382813 19.949219 187.785156 25.949219 C 196.484375 50.148438 203.683594 75.949219 214.382813 99.75 C 218.882813 105.050781 238.984375 96.550781 243.183594 90.449219 Z M 220.183594 31.75 C 230.644531 25.3125 241.46875 33.246094 225.183594 43.648438 C 222.785156 42.648438 219.484375 34.148438 220.183594 31.75 "/>
<path style=" stroke:none;fill-rule:nonzero;fill:rgb(0%,0%,0%);fill-opacity:1;" d="M 238.183594 259.648438 C 239.996094 260.933594 242.445313 258.992188 244.425781 256.996094 C 252.492188 248.859375 262.113281 249.957031 265.585938 260.726563 C 266.371094 263.164063 268.839844 262.515625 269.582031 260.714844 C 271.164063 256.867188 270.664063 251.914063 268.085938 248.851563 C 260.910156 239.484375 245.621094 248.414063 237.785156 255.648438 C 236.882813 256.851563 236.882813 258.648438 238.183594 259.648438 "/>
<path style=" stroke:none;fill-rule:nonzero;fill:rgb(0%,0%,0%);fill-opacity:1;" d="M 196.785156 154.550781 L 203.585938 162.050781 L 205.382813 162.050781 C 205.382813 162.050781 203.183594 152.550781 198.585938 152.351563 C 197.585938 152.648438 196.984375 153.648438 196.785156 154.550781 "/>
<path style=" stroke:none;fill-rule:nonzero;fill:rgb(0%,0%,0%);fill-opacity:1;" d="M 193.183594 140.851563 L 198.585938 140.851563 C 201.484375 137.851563 192.984375 137.050781 191.683594 138.351563 C 191.484375 139.449219 192.183594 140.550781 193.183594 140.851563 "/>
<path style=" stroke:none;fill-rule:nonzero;fill:rgb(0%,0%,0%);fill-opacity:1;" d="M 191.683594 162.050781 C 192.484375 162.75 190.585938 154.949219 188.484375 151.949219 C 188.183594 149.851563 185.882813 149.449219 184.484375 150.949219 C 183.683594 155.851563 188.183594 159.050781 191.683594 162.050781 "/>
<path style=" stroke:none;fill-rule:nonzero;fill:rgb(0%,0%,0%);fill-opacity:1;" d="M 185.585938 81.75 C 187.183594 83.75 187.183594 87.050781 189.183594 88.25 C 188.855469 82.050781 188.453125 76.808594 186.40625 71.675781 C 183.425781 64.207031 179.65625 65.023438 181.074219 72.542969 C 181.722656 75.960938 183.855469 78.785156 185.585938 81.75 "/>
<path style=" stroke:none;fill-rule:nonzero;fill:rgb(0%,0%,0%);fill-opacity:1;" d="M 145.984375 255.648438 C 145.984375 255.648438 142.683594 259.25 142.785156 261.75 C 153.046875 295.101563 182.273438 412.59375 180.882813 469.851563 C 181.683594 472.449219 187.382813 474.550781 187.382813 474.550781 C 195.078125 448.253906 162.621094 292.179688 145.984375 255.648438 "/>
<path style=" stroke:none;fill-rule:nonzero;fill:rgb(0%,0%,0%);fill-opacity:1;" d="M 179.085938 92.550781 C 178.085938 85.648438 177.285156 78.449219 172.285156 73.550781 C 166.652344 69.324219 167.046875 72.097656 168.9375 76.035156 C 171.132813 80.613281 176.285156 91.050781 179.085938 92.550781 "/>
<path style=" stroke:none;fill-rule:nonzero;fill:rgb(0%,0%,0%);fill-opacity:1;" d="M 134.160156 193.015625 C 134.886719 193.054688 135.585938 192.355469 135.585938 191.550781 C 132.183594 185.648438 127.585938 180.25 125.882813 173.550781 C 125.882813 173.550781 121.945313 167.960938 122.585938 177.550781 C 123.601563 184.449219 131.277344 192.871094 134.160156 193.015625 "/>
<path style=" stroke:none;fill-rule:nonzero;fill:rgb(0%,0%,0%);fill-opacity:1;" d="M 127.683594 200.25 C 129.035156 200.925781 130.035156 199.300781 128.683594 198.050781 C 121.285156 193.050781 118.183594 184.851563 112.882813 178.25 C 111.160156 177.175781 110.183594 178.449219 109.285156 179.75 C 110.585938 189.25 119.085938 196.851563 127.683594 200.25 "/>
<path style=" stroke:none;fill-rule:nonzero;fill:rgb(0%,0%,0%);fill-opacity:1;" d="M 422.871094 194.316406 C 425.753906 194.167969 433.429688 185.75 434.445313 178.851563 C 435.085938 169.257813 431.148438 174.851563 431.148438 174.851563 C 429.445313 181.550781 424.847656 186.949219 421.445313 192.851563 C 421.445313 193.65625 422.144531 194.355469 422.871094 194.316406 "/>
<path style=" stroke:none;fill-rule:nonzero;fill:rgb(0%,0%,0%);fill-opacity:1;" d="M 444.148438 179.550781 C 438.847656 186.148438 435.746094 194.351563 428.347656 199.351563 C 426.996094 200.601563 427.996094 202.226563 429.347656 201.550781 C 437.945313 198.148438 446.445313 190.550781 447.746094 181.050781 C 446.847656 179.75 445.871094 178.476563 444.148438 179.550781 "/>
<path style=" stroke:none;fill-rule:nonzero;fill:rgb(0%,0%,0%);fill-opacity:1;" d="M 293.035156 99.472656 C 309.632813 99.472656 323.085938 85.070313 323.085938 67.300781 C 323.085938 49.53125 309.632813 35.128906 293.035156 35.128906 C 276.4375 35.128906 262.980469 49.53125 262.980469 67.300781 C 262.980469 85.070313 276.4375 99.472656 293.035156 99.472656 Z M 292.535156 60.980469 C 297.023438 60.980469 300.664063 64.144531 300.664063 68.050781 C 300.664063 71.953125 297.023438 75.121094 292.535156 75.121094 C 288.042969 75.121094 284.402344 71.953125 284.402344 68.050781 C 284.402344 64.144531 288.042969 60.980469 292.535156 60.980469 "/>
<path style=" stroke:none;fill-rule:nonzero;fill:rgb(0%,0%,0%);fill-opacity:1;" d="M 378.367188 101.300781 C 378.367188 108.132813 383.589844 113.675781 390.035156 113.675781 C 396.476563 113.675781 401.703125 108.132813 401.703125 101.300781 C 401.703125 94.464844 396.476563 88.925781 390.035156 88.925781 C 383.589844 88.925781 378.367188 94.464844 378.367188 101.300781 "/>
<path style=" stroke:none;fill-rule:nonzero;fill:rgb(0%,0%,0%);fill-opacity:1;" d="M 430.285156 106.300781 C 432.683594 104.09375 435.640625 103.023438 437.4375 101.425781 C 441.023438 97.890625 436.523438 96.226563 432.738281 99.324219 C 427.738281 103.625 423.238281 109.425781 420.839844 115.523438 C 422.816406 116.71875 425.472656 110.726563 430.285156 106.300781 "/>
<path style=" stroke:none;fill-rule:nonzero;fill:rgb(0%,0%,0%);fill-opacity:1;" d="M 442.882813 339.898438 C 442.285156 335.898438 441.285156 332.199219 441.085938 328 C 440.585938 326.800781 440.285156 323.699219 438.285156 324.800781 C 435.683594 326.300781 437.085938 331.199219 436.785156 333.800781 C 438.382813 335.898438 439.683594 340.398438 442.882813 339.898438 "/>
<path style=" stroke:none;fill-rule:nonzero;fill:rgb(0%,0%,0%);fill-opacity:1;" d="M 447.183594 325.949219 C 444.585938 327.449219 445.984375 332.351563 445.683594 334.949219 C 447.285156 337.050781 448.585938 341.550781 451.785156 341.050781 C 451.183594 337.050781 450.183594 333.351563 449.984375 329.148438 C 449.484375 327.949219 449.183594 324.851563 447.183594 325.949219 "/>
<path style=" stroke:none;fill-rule:nonzero;fill:rgb(0%,0%,0%);fill-opacity:1;" d="M 346.910156 327.679688 C 348.570313 327.679688 349.914063 326.335938 349.914063 324.675781 C 349.914063 323.015625 348.570313 321.671875 346.910156 321.671875 C 345.25 321.671875 343.902344 323.015625 343.902344 324.675781 C 343.902344 326.335938 345.25 327.679688 346.910156 327.679688 "/>
<path style=" stroke:none;fill-rule:nonzero;fill:rgb(0%,0%,0%);fill-opacity:1;" d="M 248.785156 296.449219 C 251.714844 296.449219 254.089844 294.3125 254.089844 291.675781 C 254.089844 289.039063 251.714844 286.902344 248.785156 286.902344 C 245.855469 286.902344 243.480469 289.039063 243.480469 291.675781 C 243.480469 294.3125 245.855469 296.449219 248.785156 296.449219 "/>
<path style=" stroke:none;fill-rule:nonzero;fill:rgb(0%,0%,0%);fill-opacity:1;" d="M 208.035156 184.171875 C 209.597656 184.171875 210.863281 183.222656 210.863281 182.050781 C 210.863281 180.878906 209.597656 179.929688 208.035156 179.929688 C 206.472656 179.929688 205.207031 180.878906 205.207031 182.050781 C 205.207031 183.222656 206.472656 184.171875 208.035156 184.171875 "/>
<path style=" stroke:none;fill-rule:nonzero;fill:rgb(0%,0%,0%);fill-opacity:1;" d="M 207.308594 201.925781 C 207.308594 203.390625 208.417969 204.578125 209.785156 204.578125 C 211.152344 204.578125 212.257813 203.390625 212.257813 201.925781 C 212.257813 200.460938 211.152344 199.273438 209.785156 199.273438 C 208.417969 199.273438 207.308594 200.460938 207.308594 201.925781 "/>
<path style=" stroke:none;fill-rule:nonzero;fill:rgb(0%,0%,0%);fill-opacity:1;" d="M 208.484375 211.75 C 207.546875 211.75 206.785156 212.589844 206.785156 213.625 C 206.785156 214.660156 207.546875 215.5 208.484375 215.5 C 209.421875 215.5 210.179688 214.660156 210.179688 213.625 C 210.179688 212.589844 209.421875 211.75 208.484375 211.75 "/>
<path style=" stroke:none;fill-rule:nonzero;fill:rgb(0%,0%,0%);fill-opacity:1;" d="M 362.785156 228.078125 C 364.152344 228.078125 365.257813 226.890625 365.257813 225.425781 C 365.257813 223.960938 364.152344 222.773438 362.785156 222.773438 C 361.417969 222.773438 360.308594 223.960938 360.308594 225.425781 C 360.308594 226.890625 361.417969 228.078125 362.785156 228.078125 "/>
<path style=" stroke:none;fill-rule:nonzero;fill:rgb(0%,0%,0%);fill-opacity:1;" d="M 508.183594 394.25 C 506.445313 394.25 504.066406 393.582031 501.511719 392.585938 C 503.714844 390.410156 505.328125 388.464844 505.867188 387.050781 C 508.03125 381.382813 505.617188 377.550781 504.117188 382.71875 C 503.425781 385.101563 501.308594 388.164063 498.5625 391.328125 C 497.503906 390.839844 496.441406 390.320313 495.414063 389.789063 C 496.359375 388.433594 497.128906 387.066406 497.617188 385.71875 C 500.449219 377.882813 495.515625 375.570313 493.234375 379.808594 C 492.054688 382 491.078125 384.371094 490.042969 386.761719 C 488.296875 385.683594 486.988281 384.753906 486.449219 384.21875 C 484.617188 382.382813 481.761719 383.027344 485.785156 387.050781 C 486.554688 387.820313 487.609375 388.632813 488.851563 389.441406 C 487.714844 391.878906 486.421875 394.273438 484.695313 396.46875 C 483.15625 395.210938 481.914063 394.140625 481.285156 393.550781 C 478.785156 391.21875 477.285156 391.382813 480.617188 395.21875 C 481.332031 396.035156 482.265625 397.019531 483.332031 398.058594 C 481.230469 400.300781 478.554688 402.257813 474.957031 403.726563 C 466.789063 407.0625 470.285156 408.71875 476.617188 405.382813 C 478.972656 404.144531 482.089844 402.1875 485.21875 399.820313 C 486 400.519531 486.824219 401.21875 487.671875 401.898438 C 484.050781 404.9375 480.816406 407.226563 479.210938 407.871094 C 475.042969 409.535156 472.527344 412.796875 478.425781 409.890625 C 480.621094 408.808594 484.6875 406.152344 489.035156 402.949219 C 491.890625 405.074219 494.902344 406.800781 497.40625 407.179688 C 502.90625 408.011719 501.285156 405.382813 498.117188 405.21875 C 496.789063 405.148438 494.035156 403.472656 491.113281 401.394531 C 494.003906 399.195313 496.902344 396.835938 499.371094 394.597656 C 502.382813 395.71875 505.316406 396.535156 507.582031 396.792969 C 513.890625 397.511719 514.183594 394.25 508.183594 394.25 Z M 489.566406 400.273438 C 488.71875 399.644531 487.878906 399.003906 487.070313 398.367188 C 489.441406 396.445313 491.722656 394.316406 493.605469 392.113281 C 494.582031 392.59375 495.589844 393.054688 496.609375 393.492188 C 494.398438 395.84375 491.945313 398.183594 489.566406 400.273438 "/>
</g>
</svg>
