<?xml version="1.0" encoding="UTF-8"?>
<svg xmlns="http://www.w3.org/2000/svg" xmlns:xlink="http://www.w3.org/1999/xlink" width="362pt" height="682pt" viewBox="0 0 362 682" version="1.1">
<g id="surface1">
<path style=" stroke:none;fill-rule:nonzero;fill:rgb(0%,0%,0%);fill-opacity:1;" d="M 339.699219 647.5625 C 331.183594 648.621094 322.679688 645.230469 314.296875 644.417969 C 311.46875 645.164063 309.234375 645.164063 306.257813 644.417969 C 306.40625 638.019531 300.007813 634.597656 298.816406 628.792969 C 310.277344 619.542969 302.140625 607.222656 298.828125 596.40625 C 294.878906 583.503906 298.355469 559.855469 290.78125 551.257813 C 280.335938 539.40625 288.929688 522.613281 283.1875 508.769531 C 280.304688 501.824219 280.769531 455.191406 278.746094 443.644531 C 275.851563 427.132813 270.128906 402.554688 266.667969 396.75 C 275.300781 387.074219 284.828125 376.804688 282.148438 363.109375 C 285.71875 355.519531 288.695313 347.929688 289.738281 339.445313 C 300.605469 335.574219 309.496094 324.300781 312.808594 315.335938 C 316.855469 303.636719 323.199219 292.878906 327.789063 281.316406 C 331.777344 271.285156 342.847656 224.085938 326.253906 208.707031 C 322.546875 205.273438 295.988281 194.773438 287.058594 197.453125 C 290.539063 178.519531 303.003906 163.363281 313.371094 147.230469 C 314.089844 146.117188 315.304688 142.6875 315.316406 142.15625 C 315.441406 136.023438 324.328125 135.1875 325.011719 129.433594 C 331.5625 128.984375 337.21875 126.753906 342.277344 122.4375 C 345.355469 127.972656 340.144531 143.347656 333.050781 140.742188 C 334.195313 138.554688 335.761719 136.300781 336.238281 133.835938 C 336.796875 130.9375 333.539063 129.9375 332.921875 133.003906 C 332.605469 134.566406 326.984375 137.023438 325.628906 138.066406 C 322.882813 140.171875 324.546875 141.078125 327.773438 142.410156 C 328.945313 142.894531 329.921875 143.925781 330.917969 144.816406 C 337.183594 150.433594 346.523438 136.507813 348.109375 127.402344 C 348.539063 124.929688 348.417969 118.714844 344.921875 118.527344 C 347.933594 114.847656 348.417969 105.132813 347.449219 102.304688 C 361.859375 100.53125 362.425781 78.496094 360.890625 73.644531 C 358.101563 64.835938 351.195313 57.105469 345.605469 54.464844 C 343.097656 53.277344 340.171875 52.378906 338.410156 50.101563 C 340.484375 43.53125 331.835938 38.917969 327.847656 36.53125 C 315.835938 29.347656 312.398438 6.453125 295.097656 14.824219 C 289.546875 14.4375 285.140625 11.433594 280.886719 8.113281 C 265 -4.277344 245.953125 -0.34375 234.257813 14.742188 C 226.898438 24.242188 228.847656 30.105469 238.835938 33.578125 C 233.597656 39.144531 234.070313 53.804688 247.808594 53.410156 C 250.078125 53.34375 251.933594 49.90625 248.015625 49.453125 C 236.148438 48.078125 238.152344 33.054688 250.039063 31.101563 C 252.214844 30.746094 251.128906 27.4375 248.910156 27.644531 C 247.597656 27.765625 246.386719 28.09375 245.234375 28.667969 C 240.714844 31.09375 228.695313 28.761719 236.917969 17.992188 C 244.695313 7.808594 261.761719 0.804688 276.050781 11.035156 C 283.113281 16.09375 290.347656 21.089844 299.519531 20.234375 C 305.648438 19.664063 309.332031 21.027344 312.472656 25.925781 C 314.90625 29.726563 322.230469 39.097656 327.328125 41.917969 C 329.828125 43.304688 334.933594 46.777344 333.59375 52.714844 C 333.46875 53.261719 335.199219 56.453125 336.902344 56.59375 C 341.960938 57.007813 346.269531 60.496094 345.40625 64.539063 C 345.851563 66.027344 347.339844 66.917969 348.679688 67.21875 C 357.496094 71.246094 359.984375 81.699219 354.546875 88.96875 C 351.871094 92.539063 347.859375 95.3125 346 99.402344 C 341.683594 93.785156 334.09375 93.5625 331.359375 93.394531 C 324.726563 92.988281 321.230469 90.117188 320.53125 84.78125 C 320.25 82.660156 320.25 80.242188 318.167969 78.527344 C 315.785156 78.675781 314.890625 81.207031 313.851563 82.84375 C 312.363281 81.953125 311.617188 79.273438 309.535156 80.164063 C 306.707031 83.738281 310.574219 89.542969 308.9375 92.964844 C 305.839844 91.359375 305.132813 88.074219 304.355469 84.949219 C 303.601563 81.910156 300.019531 81.742188 300.660156 85.78125 C 301.007813 87.988281 301.734375 90.484375 298.222656 90.882813 C 299.265625 95.496094 298.371094 100.707031 300.902344 104.726563 C 303.132813 104.871094 303.730469 103.273438 304.214844 101.636719 C 305.207031 98.273438 306.539063 98.535156 307.894531 99.554688 C 310.292969 101.359375 312.890625 96.894531 315.488281 98.324219 C 314 99.8125 315.039063 101.523438 315.933594 102.640625 C 322.320313 97.4375 337.828125 94.945313 342.726563 105.320313 C 346.453125 116.035156 338.699219 121.394531 328.882813 124.074219 C 326.351563 124.519531 323.078125 121.097656 321.886719 124.667969 C 323.363281 127.550781 321.953125 129.234375 319.804688 130.621094 C 315.679688 133.277344 312.914063 136.628906 311.640625 140.304688 C 309.425781 146.707031 304.847656 152.175781 300.503906 157.453125 C 295.082031 164.039063 284.621094 184.410156 282.871094 195.355469 C 282.359375 198.578125 281.710938 201.6875 279.46875 203.851563 C 274.46875 209.773438 265.507813 210.226563 258.152344 208.503906 C 252.691406 207.226563 252.59375 204 256.058594 199.136719 C 258.996094 195.007813 261.527344 184.035156 253.625 181.78125 C 241.640625 178.359375 221.992188 165.316406 227.078125 157.265625 C 236.699219 162.640625 281.03125 153.839844 285.851563 130.378906 C 286.292969 128.230469 285.804688 126.101563 283.339844 124.074219 C 281.851563 124.074219 280.660156 125.117188 279.46875 125.710938 C 282.0625 130.199219 280.175781 133.6875 277.574219 136.796875 C 271.15625 144.46875 244.707031 155.296875 228.84375 152.476563 C 208.65625 148.886719 208.664063 129.328125 213.835938 119.773438 C 216.402344 115.039063 224.273438 118.550781 226.480469 112.316406 C 226.332031 111.570313 226.929688 110.527344 225.886719 110.082031 C 221.875 112.933594 217.1875 112.640625 212.839844 111.589844 C 200.542969 108.621094 205.578125 99.25 209.953125 97.328125 C 218.558594 93.550781 229.40625 95.859375 234.058594 98.011719 C 236.605469 99.1875 238.507813 97.878906 237.367188 95.558594 C 236.324219 93.429688 233.902344 92.121094 231.839844 90.882813 C 231.167969 90.578125 231.804688 89.761719 232.21875 89.367188 C 234.527344 87.179688 235.054688 86.699219 233.964844 83.328125 C 233.183594 80.898438 229.558594 83.148438 227.078125 84.480469 C 226.035156 83.738281 225.738281 82.84375 225.886719 81.804688 C 229.589844 71.992188 241.34375 70.796875 246.695313 75.742188 C 248.285156 77.207031 249.347656 76.726563 250.097656 74.910156 C 251 72.722656 248.914063 68.609375 245.414063 67.628906 C 235.414063 64.824219 221.9375 71.933594 223.320313 83.828125 C 223.953125 89.289063 220.082031 90.375 215.445313 91.085938 C 207 92.382813 201.554688 94.886719 200.347656 102.898438 C 199.191406 110.546875 203.46875 112.664063 210.40625 117.078125 C 208.679688 119.914063 207.796875 123.339844 207.40625 126.921875 C 205.636719 143.191406 209.839844 151.339844 221.824219 156.699219 C 220.613281 163.550781 222.265625 174.800781 252.296875 188.050781 C 256.617188 189.953125 256.554688 192.765625 253.097656 199.507813 C 252.320313 201.027344 251.183594 202.523438 249.550781 203.851563 C 247.914063 202.660156 248.359375 200.726563 247.320313 199.089844 C 240.769531 198.644531 235.261719 203.40625 231.839844 208.167969 C 220.527344 211.890625 209.363281 215.609375 199.09375 221.5625 C 189.570313 219.480469 181.53125 210.699219 171.261719 208.765625 C 169.230469 207.746094 168.03125 206.238281 167.085938 204.574219 C 164.476563 199.957031 157.902344 197.109375 155.453125 193.742188 C 145.609375 180.234375 115.203125 163.789063 108.003906 160.984375 C 119.644531 158.015625 127.078125 154.175781 132.257813 144.757813 C 139.546875 131.503906 136.609375 114.160156 134.796875 100.558594 C 139.183594 100.039063 143.503906 93.507813 143.902344 87.453125 C 144.539063 77.769531 136.070313 72.878906 128.394531 75.851563 C 129.027344 69.339844 116.160156 58.125 115.054688 57.371094 C 112.28125 55.480469 110.53125 58.273438 113.335938 61.339844 C 117.222656 65.582031 124.085938 71.742188 125.269531 76.445313 C 124.378906 77.1875 122.148438 80.070313 121.820313 80.855469 C 121.359375 81.953125 124.488281 83.597656 125.191406 82.820313 C 127.71875 80.023438 134.132813 77.5625 138.988281 82.351563 C 143.105469 86.410156 137.625 98.074219 131.179688 96.285156 C 130.609375 96.128906 128.441406 97.96875 129.824219 99.570313 C 130.824219 100.726563 131.980469 103.148438 132.222656 109.414063 C 133.605469 144.996094 125.769531 153.542969 105.175781 157.003906 C 99.667969 160.429688 99.667969 164.261719 97.882813 169.617188 C 97.722656 172.675781 99.5625 173.035156 101.566406 173.40625 C 107.21875 174.441406 105.757813 178.957031 103.121094 180.835938 C 97.175781 185.070313 86.421875 180.632813 84.015625 173.121094 C 83.414063 171.242188 83.375 169.246094 85.246094 168.003906 C 86.753906 166.996094 87.503906 160.976563 85.082031 159.496094 C 59.273438 162.984375 43.46875 148.617188 41.027344 130.472656 L 38.347656 129.433594 C 37.082031 131.21875 35.332031 131.738281 33.511719 131.8125 C 23.828125 132.210938 23.097656 121.585938 28.785156 116.464844 C 33.050781 112.621094 38.597656 110.199219 44.300781 111.273438 C 46.382813 112.464844 46.382813 115.441406 49.0625 115.441406 C 49.957031 113.65625 49.957031 110.976563 49.0625 109.039063 C 51.59375 106.0625 54.71875 108.59375 57.101563 106.957031 C 57.554688 101.515625 52.167969 92.941406 45.566406 84.855469 C 43.707031 82.574219 40 84.15625 42.003906 87.40625 C 44.191406 90.953125 52.066406 95.460938 50.699219 101.597656 L 45.34375 99.367188 C 44.003906 102.046875 46.683594 104.277344 48.023438 106.363281 C 45.453125 109.191406 39.835938 104.726563 36.261719 107.402344 C 35.410156 105.761719 31.769531 106.316406 30.109375 105.640625 C 22.191406 102.425781 25.226563 95.464844 28.539063 92.589844 C 31.351563 90.148438 35.9375 88.648438 37.902344 85.972656 C 40.878906 81.953125 36.859375 77.933594 37.902344 73.171875 C 38.539063 71.851563 39.507813 70.710938 40.617188 69.667969 C 43.136719 67.300781 54.007813 58.484375 57.074219 55.984375 C 71.972656 43.832031 88.179688 29.980469 107.558594 39.980469 C 111.414063 41.8125 116.34375 40.882813 119.367188 43.617188 C 122.488281 46.441406 122.496094 37.804688 119.242188 37.828125 C 109.941406 37.890625 103.070313 31.875 93.9375 31.523438 C 80.015625 30.984375 60.363281 43.679688 43.707031 63.050781 C 43.707031 63.050781 24.988281 70.195313 34.625 82.84375 C 31.164063 84.183594 28.289063 87.535156 25.5625 90.378906 C 19.488281 96.71875 18.753906 109.257813 27.628906 112.316406 C 22.660156 115.359375 19.382813 121.574219 20.441406 127.460938 C 21.742188 134.726563 27.277344 138 36.261719 134.789063 C 37.589844 135.675781 38.300781 136.960938 38.789063 138.398438 C 43.207031 151.316406 53.226563 163.925781 77.746094 163.46875 C 82.214844 163.382813 81.246094 166.804688 77.5625 167.027344 C 48.574219 168.769531 20.664063 178.960938 9.691406 191.675781 C 6.875 194.941406 4.445313 199.859375 8.429688 205.042969 C 1.363281 209.832031 -2.925781 219.992188 2.660156 228.191406 C 8.3125 236.480469 21.464844 242.964844 23.882813 243.976563 C 28.421875 245.875 33.183594 246.871094 38.347656 244.632813 C 45.933594 253.46875 40.574219 261.804688 35.691406 270.527344 C 28.875 282.710938 25.113281 307.304688 41.621094 321.285156 C 38.496094 323.074219 39.390625 327.09375 39.984375 329.769531 C 44.746094 340.933594 52.933594 354.777344 66.328125 356.5625 C 70.644531 367.128906 82.402344 366.980469 90.441406 372.191406 C 90.511719 376.214844 87.503906 377.089844 84.65625 377.949219 C 78.71875 379.734375 79.082031 382.738281 81.730469 387.355469 C 90.460938 402.570313 79.4375 423.585938 94.25 435.449219 C 99.214844 439.425781 103.089844 442.101563 111.519531 435.441406 C 112.597656 434.589844 116.175781 432.945313 117.609375 430.632813 C 118.699219 428.882813 118.003906 426.351563 117.230469 425.773438 C 112.695313 433.414063 100.824219 435.097656 96.757813 432.171875 C 82.535156 421.949219 95.148438 398.292969 84.488281 383.949219 C 87.761719 382.015625 92.078125 378.886719 92.523438 374.871094 C 94.792969 376.246094 102.042969 379.273438 104.519531 379.699219 C 107.921875 380.285156 111.289063 380.675781 113.957031 382.3125 C 111.503906 384.765625 108.667969 386.835938 106.328125 389.347656 C 101.695313 394.316406 104.546875 412.671875 114.082031 417.03125 C 123.84375 421.496094 121.214844 435.304688 129.4375 442.296875 C 128.753906 448.761719 129.835938 454.710938 131.503906 460.496094 C 133.472656 467.335938 138.285156 481.171875 138.546875 489.234375 C 139.253906 511.300781 158.824219 525.574219 164.859375 545.738281 C 172.152344 566.875 194.035156 578.632813 206.089844 596.640625 C 207.726563 598.875 205.644531 600.066406 204.007813 600.957031 C 202.21875 602.148438 202.816406 606.019531 203.410156 608.996094 C 203.910156 611.042969 197.8125 611.472656 194.414063 610.941406 C 190.15625 610.28125 152.472656 610.558594 141.789063 627.152344 C 134.347656 622.6875 106.222656 627.058594 100.355469 628.34375 C 95.894531 629.324219 96.648438 631.984375 101.203125 631.136719 C 111.96875 629.125 140.003906 628.792969 139.707031 632.511719 C 134.945313 634.597656 122.25 637.027344 120.941406 636.863281 C 113.886719 635.976563 116.308594 642.125 121.863281 641.035156 C 129.003906 639.632813 136.160156 638.230469 143.429688 636.828125 C 155.835938 638.972656 169.351563 637.355469 182.683594 637.285156 C 186.945313 637.265625 209.910156 639.726563 211.976563 639.859375 C 213.214844 639.941406 214.21875 640.457031 214.722656 642.1875 C 208.796875 645.996094 201.511719 647.472656 195.871094 651.597656 C 187.054688 658.042969 184.214844 674.425781 192.695313 679.25 C 209.792969 687.277344 259.320313 672.625 277.980469 661.535156 C 285.308594 663.105469 291.773438 660.617188 298.28125 658.039063 C 312.238281 652.5 315.957031 653.269531 324.402344 655.832031 C 326.1875 656.375 329.777344 654.765625 328.882813 652.457031 C 332.53125 650.894531 337.316406 653.207031 341.148438 651.015625 C 343.507813 649.667969 344.203125 647.003906 339.699219 647.5625 Z M 276.707031 369.6875 C 276.109375 377.527344 261.683594 397.269531 245.753906 402.242188 C 237.082031 404.953125 211.035156 406.78125 185.300781 401.835938 C 178.9375 400.609375 163.648438 401.394531 157.417969 388.265625 C 176.472656 368.617188 191.207031 345.847656 187.335938 316.972656 C 203.527344 329.222656 225.449219 328.285156 242.386719 339.109375 C 252.808594 345.773438 271.152344 345.308594 284.378906 342.71875 C 283.351563 351.722656 277.433594 360.164063 276.707031 369.6875 Z M 277.09375 210.472656 C 279.320313 208.960938 281.484375 207.453125 283.785156 207.128906 C 283.785156 207.128906 281.160156 216.855469 269.703125 222.785156 C 264.949219 225.246094 258.324219 228.207031 258.5 220.539063 C 258.554688 218.105469 259.003906 215.386719 258.035156 213.527344 C 266.054688 214.960938 270.441406 214.980469 277.09375 210.472656 Z M 237.214844 209.136719 C 242.363281 197.867188 249.550781 210.402344 249.550781 210.402344 C 244.492188 214.195313 238.835938 215.90625 232.882813 214.570313 C 235.039063 213.117188 236.230469 211.292969 237.214844 209.136719 Z M 223.800781 216.207031 C 227.117188 215.296875 227.441406 216.886719 228 218.53125 C 230.113281 224.746094 235.152344 222.671875 243.578125 219.128906 C 246.53125 217.886719 249.476563 216.574219 252.675781 216.207031 C 252.976563 219.003906 253.421875 223.488281 254.675781 226.882813 C 256.804688 232.636719 261.875 231.316406 266.628906 229.3125 C 277.527344 224.726563 288.09375 212.847656 289.738281 203.851563 C 311.640625 204.089844 326.960938 214.402344 328.726563 232.578125 C 330.382813 249.617188 327.433594 273.460938 320.796875 285.265625 C 317.84375 290.519531 310.054688 308.757813 308.214844 312.359375 C 302.695313 323.175781 295.355469 333.195313 282.742188 336.765625 C 263.246094 343.019531 244.042969 336.023438 228.566406 326.050781 C 208.324219 323.074219 191.207031 312.507813 174.980469 299.855469 C 167.390625 296.730469 157.417969 295.984375 153.101563 288.097656 C 150.550781 275.621094 159.746094 266.386719 167.054688 257.695313 C 170.121094 254.046875 183.019531 255.351563 183.019531 255.351563 C 186.144531 260.113281 178.851563 265.324219 185.253906 268.746094 C 196.980469 266.921875 202.777344 263.300781 208.128906 270.578125 C 210.59375 273.929688 214.164063 276.859375 217.402344 278.867188 C 225.847656 276.414063 236.789063 276.832031 243.488281 283.769531 C 246.15625 286.527344 252.421875 289.621094 256.546875 292.261719 C 258.480469 291.382813 258.910156 289.828125 259.121094 288.179688 C 259.945313 281.699219 268.746094 280.582031 272.433594 282.6875 C 276.753906 285.152344 280.875 280.820313 278.425781 278.867188 C 274.433594 275.359375 277.453125 273.066406 280.351563 270.519531 C 285.777344 265.75 286.59375 261.953125 287.542969 254.335938 C 287.984375 250.796875 288.910156 247.519531 292.863281 245.675781 C 296.449219 244.097656 292.519531 238.734375 290.183594 241.359375 C 287.429688 244.558594 281.550781 247.460938 282.148438 252.671875 C 281.402344 254.457031 279.023438 253.863281 277.980469 253.265625 C 276.195313 251.628906 275.597656 248.058594 272.621094 248.355469 C 267.992188 251.132813 276.90625 259.070313 280.0625 259.070313 C 280.808594 265.917969 270.238281 268.003906 270.390625 275.148438 C 258.703125 273.027344 254.351563 284.410156 254.351563 284.410156 C 250.59375 282.851563 247.128906 279.59375 243.484375 276.722656 C 232.570313 268.117188 223.273438 272.1875 217.402344 272.019531 C 208.148438 262.503906 202.964844 259.554688 192.453125 259.292969 C 198.328125 252.429688 206.796875 248.390625 209.441406 240.9375 C 210.59375 237.691406 206.761719 237.414063 205.042969 239.632813 C 198.597656 247.9375 192.277344 249.046875 188.378906 256.988281 C 186.84375 251.511719 185.871094 249.613281 180.078125 249.652344 C 175.882813 249.679688 167.035156 250.550781 163.820313 252.671875 C 163.074219 251.628906 161.660156 250.847656 160.84375 249.769531 C 178.4375 235.667969 213.402344 219.824219 223.800781 216.207031 Z M 128.761719 275.378906 C 126.925781 274.085938 125.195313 272.019531 123.632813 275.148438 C 123.355469 282.335938 120.492188 292.660156 114.296875 297.546875 C 108.195313 302.359375 105.546875 300.414063 105.425781 297.253906 C 105.269531 293.101563 108.617188 286.476563 109.757813 284.800781 C 110.375 283.898438 110.960938 282.902344 111.382813 281.863281 C 114.28125 274.785156 111.558594 272.539063 108.355469 278.292969 C 104.355469 285.46875 98.875 292.585938 91.976563 296.394531 C 86.015625 299.683594 83.609375 296.203125 86.28125 291.539063 C 91.292969 282.78125 106.515625 271.425781 106.515625 271.425781 C 106.515625 269.492188 106.515625 267.109375 104.28125 266.664063 C 96.394531 271.210938 87.183594 274.613281 79.5625 278.226563 C 74.609375 280.578125 70.46875 276.960938 75.355469 272.140625 C 78.863281 268.683594 98.792969 262.253906 104.414063 258.515625 C 105.082031 254.828125 100.5625 255.351563 100.5625 255.351563 C 102.496094 252.523438 104.28125 249.398438 104.28125 245.675781 C 111.875 242.550781 119.019531 245.082031 125.714844 244.039063 C 130.03125 241.359375 128.992188 236.449219 127.355469 232.875 C 125.304688 229.097656 122.3125 225.402344 121.847656 221.042969 C 120.550781 209.003906 129.65625 212.652344 133.90625 217.722656 C 137.828125 222.410156 140.855469 227.511719 142.433594 233.152344 C 144.804688 241.648438 151.386719 251.28125 160.097656 256.988281 C 157.417969 262.941406 150.386719 268.300781 148.898438 274.847656 C 143.984375 280.804688 129.371094 275.808594 128.761719 275.378906 Z M 146.703125 283.78125 L 146.703125 284.820313 C 140.75 284.226563 133.753906 286.011719 127.949219 285.417969 C 126.90625 284.226563 127.613281 280.46875 128.507813 279.871094 C 135.355469 283.445313 140.003906 280.804688 146.703125 283.78125 Z M 86.960938 242.066406 C 86.308594 239.648438 87.054688 239.277344 87.984375 241.601563 C 88.601563 243.148438 89.953125 248.816406 92.171875 251.089844 C 97.425781 256.476563 88.179688 255.796875 89.195313 252.578125 C 90.371094 248.847656 87.613281 244.484375 86.960938 242.066406 Z M 147.746094 230.195313 C 155.039063 230.644531 160.097656 236.597656 166.945313 238.234375 C 163.519531 240.46875 160.097656 244.335938 156.230469 246.273438 C 150.871094 242.402344 149.234375 236.003906 147.746094 230.195313 Z M 190.3125 224.167969 C 184.171875 227.40625 180.191406 229.863281 173.792969 233.917969 C 167.09375 231.984375 160.992188 229.75 155.1875 225.285156 C 158.90625 221.117188 162.777344 216.949219 164.859375 211.890625 C 173.644531 214.269531 182.128906 220.300781 190.3125 224.167969 Z M 77.789063 171.589844 C 82.914063 187.992188 98.65625 190.097656 104.125 186.066406 C 109.867188 181.835938 111.605469 173.898438 105.605469 169.585938 C 100.699219 166.0625 104.058594 164.085938 108.378906 165.972656 C 112.804688 168.203125 127.726563 177.246094 130.554688 179.777344 C 133.53125 181.414063 158.722656 200.910156 161.550781 205.15625 C 159.132813 214.457031 154.332031 218.550781 150.945313 224.058594 C 145.039063 230.308594 137.5625 211.441406 131.628906 208.734375 C 125.589844 205.664063 118.773438 208.699219 117.144531 216.976563 C 115.253906 226.601563 119.1875 225.738281 122.460938 235.351563 C 123.554688 238.570313 121.144531 239.761719 117.726563 240.003906 C 107.714844 240.707031 104.3125 240.734375 97.382813 233.972656 C 96.316406 232.933594 97.882813 232.277344 99.179688 232.882813 C 101.738281 234.066406 105.414063 234.6875 107.304688 235.007813 C 114.003906 236.132813 117.019531 231.011719 114.191406 224.964844 C 111.019531 218.179688 101.605469 216.191406 93.976563 214.160156 C 96.449219 212.324219 100.914063 209.125 103.285156 205.507813 C 105.949219 201.445313 99.539063 195.496094 94.464844 198.089844 C 86.25 202.289063 80.652344 207.085938 74.75 213.015625 C 70.078125 217.710938 56.027344 219.089844 48.386719 212.453125 C 37.621094 203.105469 27.683594 201.570313 11.554688 199.089844 C 12.253906 184.234375 50.054688 173.941406 77.789063 171.589844 Z M 23.878906 238.753906 C 15.554688 234.851563 6.945313 230.109375 5.332031 221.726563 C 4.136719 215.515625 8.582031 210.8125 13.519531 207.675781 C 17.972656 204.84375 30.46875 207.191406 35.859375 210.859375 C 37.648438 212.074219 51.75 220.808594 58.027344 220.890625 C 67.402344 221.011719 70.824219 221.183594 75.203125 216.820313 C 77.273438 214.757813 86.421875 205.109375 93.511719 202.199219 C 99.378906 199.789063 101.304688 201.605469 97.734375 205.121094 C 95.839844 206.988281 93.390625 208.699219 91.484375 209.804688 C 89.84375 211.292969 86.421875 214.421875 89.25 216.800781 C 91.632813 218.4375 95.800781 218.585938 98.925781 219.480469 C 102.945313 221.265625 107.558594 223.054688 110.238281 226.921875 C 111.726563 228.558594 110.089844 231.386719 108.003906 231.238281 C 102.496094 231.386719 97.734375 229.75 93.566406 226.476563 C 91.78125 226.027344 90.589844 226.921875 90.441406 228.558594 C 91.566406 234.566406 99.113281 236.679688 100.515625 242.511719 C 101.574219 246.9375 98.183594 254.269531 93.625 249.152344 C 91.523438 246.792969 90 241.421875 87.65625 238.128906 C 86.15625 236.019531 84.035156 237.832031 84.816406 240.085938 C 87.363281 247.417969 87.613281 254.1875 84.492188 261.246094 C 82.222656 266.375 77.265625 260.265625 78.945313 254.367188 C 79.898438 251.011719 81.558594 247.859375 78.085938 245.230469 C 77.046875 245.824219 75.558594 245.824219 75.40625 247.3125 C 75.027344 249.335938 74.21875 252.109375 74.257813 254.90625 C 74.324219 259.632813 68.976563 262.769531 68.539063 257.71875 C 67.878906 250.082031 73.492188 239.894531 64.097656 236.003906 C 59.269531 236.171875 54.101563 237.449219 49.039063 238.382813 C 39.898438 240.066406 31.167969 242.171875 23.878906 238.753906 Z M 38.441406 275.71875 C 42.726563 266.089844 49.59375 255.199219 44.96875 244.1875 C 51.257813 241.042969 63.214844 238.003906 64.691406 246.273438 C 64.5 249.058594 61.824219 249.613281 59.671875 250.777344 C 57.152344 252.140625 54.621094 258.101563 60.292969 262.121094 C 60.644531 262.371094 64.667969 263.109375 66.171875 263.472656 C 68.933594 264.140625 71.625 264.792969 75.40625 262.792969 C 76.300781 262.792969 76.898438 263.984375 77.492188 264.429688 C 77.902344 265.605469 77.617188 266.109375 77.078125 266.386719 C 76.246094 266.8125 70.925781 271.359375 69.347656 273.339844 C 65.417969 278.261719 70.417969 286.839844 79.4375 282.835938 C 85.605469 280.101563 92.148438 275.796875 96.566406 274.316406 C 96.765625 274.253906 96.957031 274.933594 97.148438 274.878906 C 97.535156 274.769531 81.511719 287.648438 80.765625 292.859375 C 66.476563 298.925781 55.601563 288.507813 43.726563 283.503906 C 38.082031 281.125 36.988281 278.984375 38.441406 275.71875 Z M 65.695313 252.226563 C 65.398438 253.863281 65.4375 257.992188 65.210938 259.519531 C 57.984375 260.261719 57.519531 251.347656 65.695313 252.226563 Z M 63.648438 349.121094 C 55.265625 350.566406 43.792969 335.109375 45.230469 325.046875 C 47.128906 327.800781 58.8125 333.679688 64.691406 334.085938 C 62.90625 338.554688 63.5 343.910156 63.648438 349.121094 Z M 46.15625 318.875 C 34.296875 306.960938 32.238281 290.101563 35.667969 285.863281 C 41.976563 286.710938 47.09375 290.777344 52.335938 294.328125 C 59.152344 298.945313 70.402344 300.128906 74.605469 299.71875 C 77.199219 299.46875 79.792969 299.421875 81.457031 301.0625 C 83.476563 303.054688 88.164063 304.929688 92.328125 301.742188 C 94.871094 299.796875 97.246094 297.277344 99.96875 296.132813 C 99.371094 299.40625 101.007813 301.640625 102.644531 304.171875 C 105.324219 307.148438 109.9375 307.296875 112.914063 304.617188 C 117.976563 301.195313 120.953125 295.984375 124.078125 291.222656 L 148.191406 291.222656 C 156.078125 303.128906 171.558594 303.574219 181.976563 312.65625 C 180.941406 320.957031 181.824219 329.484375 181.28125 338.238281 C 180.460938 351.421875 165.449219 378.453125 145.511719 389.308594 C 140.152344 389.011719 133.753906 384.171875 131.371094 380.003906 C 145.703125 374.964844 158.335938 368.3125 164.921875 355.980469 C 169.40625 347.582031 163.820313 343.761719 163.820313 343.761719 C 168.136719 342.125 170.964844 338.554688 173.492188 334.683594 C 175.390625 331.035156 171.410156 324.464844 165.003906 325.359375 C 151.050781 326.882813 135.800781 332.941406 121.175781 333.753906 C 113.199219 334.335938 106.042969 333.316406 115.703125 329.539063 C 118.628906 327.933594 122.417969 322.722656 123.460938 317.964844 C 124.730469 312.15625 115.671875 306.40625 109.578125 309.992188 C 99.304688 316.035156 87.652344 319.449219 78.535156 327.09375 C 75.265625 329.792969 71.792969 329.574219 68.261719 328.773438 C 56.082031 326.003906 53.84375 326.597656 46.15625 318.875 Z M 143.429688 394.664063 C 136.203125 395.375 128.707031 390.554688 124.664063 384.3125 C 123.21875 382.078125 125.664063 379.34375 127.726563 382.183594 C 131.929688 387.960938 136 391.445313 143.429688 394.664063 Z M 73.769531 355.519531 C 71.390625 354.480469 67.816406 353.882813 67.371094 350.757813 C 66.925781 346.738281 67.964844 343.167969 68.414063 339.445313 C 69.304688 343.464844 70.867188 350.011719 74.886719 353.882813 Z M 88.804688 365.789063 C 85.863281 363.261719 77.195313 363.410156 75.40625 358.199219 C 75.40625 358.199219 83.742188 357.902344 83.890625 356.5625 C 80.789063 355.941406 78.347656 354.113281 76.617188 351.714844 C 72.550781 346.078125 72.429688 337.304688 76.964844 333.699219 C 84.425781 327.769531 103.140625 319.753906 109.253906 316.027344 C 115.699219 312.101563 120.074219 315.5 117.8125 319.769531 C 115.945313 323.289063 112.394531 326.113281 108.679688 328.28125 C 104.8125 330.539063 103.875 338.433594 111.589844 339.375 C 118.003906 340.15625 128.949219 337.773438 131.160156 337.394531 C 140.421875 335.824219 152.527344 332.367188 159.421875 331.335938 C 167.269531 330.164063 171.5 333.101563 162.753906 338.867188 C 154.039063 344.609375 134.546875 347.617188 123.347656 345.980469 C 121.082031 345.648438 119.710938 349.679688 122.765625 350.226563 C 125.746094 350.761719 143.75 348.496094 148.433594 347.296875 C 153.414063 346.019531 155.046875 347.691406 150.535156 350.957031 C 138.113281 359.945313 122.308594 362.917969 117.546875 360.816406 C 115.015625 359.703125 112.039063 362.664063 113.988281 364.171875 C 119.671875 368.570313 141.792969 362.621094 155.234375 352.078125 C 162.117188 346.6875 164.515625 349.730469 161.253906 355.722656 C 154.820313 367.527344 131.320313 376.421875 120.546875 376.597656 C 108.878906 376.789063 97.441406 373.707031 88.804688 365.789063 Z M 125.382813 424.894531 C 123.84375 420.175781 121.898438 415.628906 117.800781 413.152344 C 108.785156 407.703125 107.097656 404.421875 108.601563 392.582031 C 111.875 389.308594 115.78125 387.519531 117.679688 381.269531 C 120.515625 380.902344 120.707031 383.015625 121.058594 385.179688 C 121.914063 390.472656 128.308594 394.613281 136.5 398.445313 C 144.941406 402.390625 158.632813 419.011719 159.832031 428.089844 C 161.160156 438.148438 154.207031 458.304688 139.902344 448.199219 C 131.351563 442.160156 127.488281 431.335938 125.382813 424.894531 Z M 298.367188 651.210938 C 293.132813 654.902344 283.214844 655.816406 274.109375 656.625 C 253.917969 669.855469 229.164063 675.136719 205.214844 676.734375 C 190.109375 677.746094 193.179688 658.945313 202.644531 653.738281 C 219.8125 644.285156 237.464844 635.984375 256.914063 632.003906 C 265.230469 630.300781 263.988281 624.476563 263.988281 624.476563 C 267.113281 625.21875 271.878906 625.964844 273.066406 621.796875 C 273.8125 618.605469 270.753906 619.472656 267.710938 619.523438 C 266.351563 619.542969 254.613281 618.222656 252.230469 614.355469 C 253.421875 610.335938 250.777344 606.316406 247.320313 605.722656 C 236.601563 604.699219 233.460938 596.21875 233.460938 588.121094 C 233.460938 575.195313 223.113281 566.566406 215.421875 556.832031 C 202.566406 540.5625 198.457031 498.054688 194.925781 463.726563 C 195.507813 461.40625 197.117188 459.003906 194.933594 457.144531 C 194.59375 456.855469 189.570313 456.582031 186.292969 455.242188 C 184.359375 454.351563 184.804688 451.671875 182.574219 451.96875 C 181.070313 453.472656 181.40625 455.214844 181.894531 456.96875 C 182.992188 460.902344 188.96875 464.8125 189.570313 464.917969 C 191.996094 500.789063 199.304688 546.378906 211.636719 561.539063 C 218.890625 570.460938 228.992188 577.597656 227.558594 590.171875 C 227.203125 593.289063 228.824219 603.128906 242.578125 610.097656 C 249.15625 613.429688 253.695313 627.40625 249.347656 628.660156 C 248.507813 628.902344 232.136719 633.851563 224.84375 636.382813 C 219.449219 635.898438 212.886719 634.578125 211.742188 634.308594 C 194.195313 630.21875 176.03125 632.199219 158.132813 633.414063 C 153.152344 633.75 141.558594 631.25 151.015625 624.160156 C 163.46875 614.828125 193.015625 615.160156 206.667969 616.101563 C 210.402344 616.359375 213.953125 616.507813 214.128906 611.675781 C 214.386719 608.140625 205.792969 611.824219 207.726563 605.722656 C 209.660156 603.785156 214.277344 605.722656 214.722656 602 C 214.816406 599.65625 213.660156 598.578125 212.449219 597.617188 C 211.234375 596.660156 208.703125 591.933594 208.09375 590.960938 C 197.363281 573.800781 175.9375 564.980469 169.175781 544.695313 C 165.734375 533.394531 159.246094 523.867188 153.15625 514.15625 C 145.121094 501.335938 145.558594 500.472656 143.53125 488.378906 C 142.078125 479.695313 140.304688 471.125 137.121094 463.128906 C 136.417969 461.363281 132.859375 452.117188 134.347656 449.289063 C 152.035156 462.097656 160.460938 456.761719 163.492188 436.855469 C 167.191406 412.601563 145.511719 398.980469 145.511719 398.980469 C 149.195313 396.675781 152.023438 393.4375 152.023438 393.4375 C 159.855469 412.03125 229.636719 413.800781 248.957031 407.464844 C 254.238281 405.867188 257.441406 402.257813 262.351563 401.660156 C 273.589844 426.503906 275.871094 470.488281 277.382813 506.59375 C 285.617188 521.074219 276.246094 540.839844 286.992188 554.128906 C 291.320313 559.480469 291.996094 577.5 292.574219 585.519531 C 293.285156 595.355469 294.445313 605.164063 298.816406 613.757813 C 300.007813 617.925781 299.5625 621.050781 296.136719 624.027344 C 293.609375 625.816406 290.183594 628.492188 292.417969 632.066406 C 297.515625 636.71875 304.96875 646.554688 298.367188 651.210938 Z M 255.355469 622.984375 C 257.589844 623.023438 259.523438 622.539063 260.714844 624.476563 C 260.191406 624.625 257.699219 626 255.726563 625.628906 L 255.355469 622.984375 "/>
<path style=" stroke:none;fill-rule:nonzero;fill:rgb(0%,0%,0%);fill-opacity:1;" d="M 263.476563 38.804688 C 260.378906 40.324219 257.285156 45.1875 258.34375 49.246094 C 260.292969 56.695313 273.5625 50.859375 276.789063 49.058594 C 281.730469 54.871094 288.328125 52.839844 293.90625 51.617188 C 296.628906 51.019531 298.613281 52.277344 298.234375 54.902344 C 297.742188 58.332031 300.746094 62.480469 303.132813 60.816406 C 309.484375 56.71875 312.804688 69.582031 313.707031 72.695313 C 314.042969 73.859375 317.378906 75.019531 318.3125 73.644531 C 321.121094 69.515625 319.480469 62.484375 318.132813 62.320313 C 313.867188 61.792969 314.445313 60.304688 314.289063 57.6875 C 314.058594 53.714844 311.308594 54.953125 308.28125 55.875 C 303.867188 57.214844 301.535156 57.386719 301.996094 52.28125 C 302.375 48.074219 298.5625 46.9375 293.550781 47.449219 C 289.285156 47.886719 285.019531 49.207031 283.785156 48.015625 C 281.527344 45.761719 285.003906 44.871094 285.777344 43.082031 C 287.265625 39.648438 282.53125 40.136719 278.296875 44.21875 C 274.703125 47.683594 265.664063 49.800781 263.046875 48.21875 C 259.746094 46.226563 263.605469 43.464844 265.636719 40.769531 C 267.324219 38.535156 265.046875 38.03125 263.476563 38.804688 "/>
<path style=" stroke:none;fill-rule:nonzero;fill:rgb(0%,0%,0%);fill-opacity:1;" d="M 106.960938 49.226563 C 104.210938 50.996094 105.566406 54.507813 110.507813 53.757813 C 115.40625 53.015625 119.347656 54.527344 122.648438 58.648438 C 123.652344 59.898438 124.660156 61.070313 125.96875 61.617188 C 127.113281 62.09375 127.726563 58.5625 126.625 57.105469 C 121.730469 50.625 111.972656 45.996094 106.960938 49.226563 "/>
<path style=" stroke:none;fill-rule:nonzero;fill:rgb(0%,0%,0%);fill-opacity:1;" d="M 114.164063 68.449219 C 108.753906 72.011719 100.117188 65.242188 96.683594 62.195313 C 94.820313 60.539063 91.414063 61.6875 93.773438 63.832031 C 95.203125 65.132813 97.289063 66.695313 96.246094 68.40625 C 90.746094 68.546875 86.007813 66.648438 81.328125 64.601563 C 79.761719 63.914063 78.792969 65.789063 80.335938 67.824219 C 82.519531 70.707031 87.628906 71.058594 90.441406 72.128906 C 85.441406 75.953125 83.015625 76.90625 78.941406 74.75 C 68.722656 69.339844 57.445313 75.578125 47.742188 79.09375 C 45.929688 79.75 47.722656 83.402344 49.574219 82.640625 C 54.320313 80.679688 63.148438 78.9375 66.535156 77.308594 C 70.339844 75.480469 73.976563 77.820313 77.792969 79.402344 C 82.511719 81.355469 92.199219 78.769531 91.667969 72.40625 C 95.761719 73.226563 107.15625 75.339844 113.675781 73.460938 C 114.621094 73.1875 115.210938 71.71875 116.234375 69.953125 C 116.925781 68.761719 116.292969 67.046875 114.164063 68.449219 "/>
<path style=" stroke:none;fill-rule:nonzero;fill:rgb(0%,0%,0%);fill-opacity:1;" d="M 245.214844 97.597656 C 246.167969 106.476563 252.722656 115.84375 263.828125 107.523438 C 263.882813 107.484375 263.9375 107.445313 263.988281 107.402344 C 272.117188 101.5625 276.882813 92.035156 276.445313 82.0625 C 276.039063 72.835938 266.539063 67.910156 257.0625 74.75 C 248.757813 80.742188 244.527344 91.210938 245.214844 97.597656 Z M 272.789063 84.949219 C 272.789063 92.238281 267.398438 98.175781 262.183594 102.953125 C 256.109375 108.519531 250.398438 103.441406 249.703125 98.351563 C 248.746094 91.300781 252.164063 85.066406 257.445313 80.535156 C 264.21875 74.730469 272.792969 76.574219 272.789063 84.949219 "/>
<path style=" stroke:none;fill-rule:nonzero;fill:rgb(0%,0%,0%);fill-opacity:1;" d="M 114.414063 85.96875 C 111.765625 78.605469 98.605469 77.597656 93.457031 83.351563 C 89.425781 87.859375 90.082031 96.710938 95.800781 102.640625 C 97.765625 104.433594 95.820313 105.089844 94.339844 106.09375 C 91.742188 107.855469 94.265625 112.050781 97.714844 110.066406 C 100.859375 108.257813 105.421875 104.308594 107.554688 108.984375 C 111.269531 117.144531 101.578125 124.847656 95.304688 121.558594 C 93.253906 120.480469 92.347656 123.921875 94.261719 125.453125 C 97.820313 128.308594 110.308594 125.832031 112.53125 115.269531 C 113.515625 110.601563 112.550781 105.429688 108.003906 102.046875 C 113.136719 99.222656 116.792969 92.578125 114.414063 85.96875 Z M 104.859375 99.761719 C 96.644531 102.628906 93.496094 93.621094 94.863281 89.261719 C 96.933594 82.636719 105.441406 81.355469 109.757813 86.621094 C 112.632813 90.128906 110.582031 97.769531 104.859375 99.761719 "/>
<path style=" stroke:none;fill-rule:nonzero;fill:rgb(0%,0%,0%);fill-opacity:1;" d="M 133.753906 90.433594 C 135.457031 90.8125 136.921875 87.921875 135.1875 86.75 C 133.011719 85.277344 128.125 86.03125 127.355469 88.203125 C 127.484375 92.535156 131.03125 89.820313 133.753906 90.433594 "/>
<path style=" stroke:none;fill-rule:nonzero;fill:rgb(0%,0%,0%);fill-opacity:1;" d="M 99.832031 92.210938 C 100.445313 96.515625 104.261719 97.027344 104.335938 92.390625 C 104.390625 89.089844 99.292969 88.445313 99.832031 92.210938 "/>
<path style=" stroke:none;fill-rule:nonzero;fill:rgb(0%,0%,0%);fill-opacity:1;" d="M 254.453125 89.898438 C 250.871094 90.914063 252.40625 97.839844 254.3125 99.367188 C 259.648438 96.542969 259.121094 88.578125 254.453125 89.898438 "/>
<path style=" stroke:none;fill-rule:nonzero;fill:rgb(0%,0%,0%);fill-opacity:1;" d="M 78.878906 118.019531 C 90.292969 115.113281 92.03125 101.644531 86.648438 95.582031 C 79.957031 88.046875 67.042969 90.160156 64.597656 100.5 C 62.386719 109.859375 69.875 120.3125 78.878906 118.019531 Z M 68.769531 101.8125 C 69.972656 95.601563 77.542969 94.59375 81.375 97.191406 C 86.730469 100.824219 85.777344 109.546875 80.621094 112.363281 C 73.070313 116.492188 67.324219 109.246094 68.769531 101.8125 "/>
<path style=" stroke:none;fill-rule:nonzero;fill:rgb(0%,0%,0%);fill-opacity:1;" d="M 78.570313 105.226563 C 78.640625 101.804688 74.199219 100.851563 74.589844 105.421875 C 74.882813 108.816406 78.488281 109.027344 78.570313 105.226563 "/>
<path style=" stroke:none;fill-rule:nonzero;fill:rgb(0%,0%,0%);fill-opacity:1;" d="M 328.882813 112.316406 C 331.136719 112.53125 334.3125 108.046875 327.105469 107.039063 C 322.832031 106.441406 318.757813 107.859375 315.488281 110.082031 C 314.183594 111.085938 313.738281 113.914063 315.933594 113.355469 C 321.589844 112.910156 317.71875 119.90625 322.335938 120.800781 C 323.921875 118.230469 325.25 115.765625 323.972656 113.953125 C 324.863281 111.867188 327.097656 112.316406 328.882813 112.316406 "/>
<path style=" stroke:none;fill-rule:nonzero;fill:rgb(0%,0%,0%);fill-opacity:1;" d="M 39.355469 115.753906 C 37.070313 116.21875 35.046875 118.203125 33.070313 119.886719 C 31.390625 121.3125 31.394531 124.296875 33.519531 126.195313 C 34.335938 126.925781 35.105469 125.695313 35.238281 124.65625 C 35.632813 121.554688 39.128906 120.894531 41.019531 118.90625 C 42.402344 117.453125 41.550781 115.308594 39.355469 115.753906 "/>
<path style=" stroke:none;fill-rule:nonzero;fill:rgb(0%,0%,0%);fill-opacity:1;" d="M 90.964844 146.324219 C 80.226563 145.214844 70.78125 138.445313 69.164063 130.886719 C 68.539063 127.980469 64.410156 129.027344 64.703125 131.546875 C 65.425781 137.714844 75.65625 148.707031 89.664063 150.484375 C 103.570313 152.246094 125.605469 141.929688 119.722656 128.570313 C 118.707031 126.261719 116.949219 127.753906 117.210938 129.597656 C 119.003906 142.289063 96.851563 146.933594 90.964844 146.324219 "/>
<path style=" stroke:none;fill-rule:nonzero;fill:rgb(0%,0%,0%);fill-opacity:1;" d="M 356.121094 641.144531 C 346.59375 637.125 334.390625 633.109375 324.566406 636.382813 C 321.144531 639.0625 314.59375 632.808594 314.296875 639.507813 C 314.742188 641.292969 316.679688 641.890625 318.167969 642.1875 C 330.222656 636.085938 344.066406 641.890625 355.675781 645.460938 L 356.714844 644.417969 C 356.566406 643.230469 357.015625 641.890625 356.121094 641.144531 "/>
</g>
</svg>
