<?xml version="1.0" encoding="UTF-8"?>
<svg xmlns="http://www.w3.org/2000/svg" xmlns:xlink="http://www.w3.org/1999/xlink" width="390pt" height="626pt" viewBox="0 0 390 626" version="1.1">
<g id="surface1">
<path style=" stroke:none;fill-rule:nonzero;fill:rgb(0%,0%,0%);fill-opacity:1;" d="M 389.238281 597.511719 C 386.804688 591.742188 380.503906 592.804688 375.792969 592.347656 C 368.882813 589.460938 364.097656 581.792969 355.589844 583.007813 C 354.035156 583.335938 353.269531 582.699219 352.5625 581.929688 C 348.964844 578.015625 342.347656 574.132813 335.617188 577.84375 C 335.617188 577.84375 331.746094 574.027344 328.78125 574.578125 C 333.257813 564.472656 334.085938 559.082031 330.800781 552.527344 C 324.742188 540.4375 310.6875 540.335938 305.222656 542.203125 C 293.488281 546.210938 280.484375 554.398438 276.832031 573.4375 C 273.1875 577.140625 269.285156 577.980469 264.839844 578.230469 C 263.355469 578.316406 257.101563 578.765625 254.730469 580.273438 C 257.988281 566.484375 254.617188 562.246094 248.101563 548.832031 C 246.4375 545.402344 245.269531 541.800781 245.691406 537.664063 C 250.136719 517.15625 254.199219 507.773438 251.996094 487.804688 C 251.714844 485.257813 252.019531 482.78125 254.425781 480.777344 C 274.933594 474.023438 279.765625 459.28125 284.804688 446.90625 C 284.804688 446.90625 326.511719 446.804688 327.976563 446.859375 C 327.882813 430.28125 327.90625 409.992188 328.058594 392.753906 C 338.386719 390.550781 344.425781 381.816406 350.957031 373.84375 C 353.3125 372.171875 357.09375 370.546875 358.855469 368.675781 C 363.207031 364.230469 369.550781 359.652344 373.367188 353.921875 C 377.738281 347.355469 377.835938 335.6875 370.933594 333.664063 C 375.382813 331.828125 380.34375 317.855469 377.535156 312.875 C 374.269531 307.082031 371.246094 307.972656 365.691406 306.625 C 371.316406 302.46875 370.820313 291.695313 367.972656 288.871094 C 364.183594 285.105469 363.582031 279.984375 361.738281 275.449219 C 354.917969 258.671875 334.285156 267.511719 328 275.214844 C 328.089844 271.414063 328.046875 269.507813 328.015625 266.039063 C 324.855469 266.097656 316.507813 265.992188 312.808594 266 C 311.589844 252.125 302.882813 245.414063 292.191406 244.839844 C 277.351563 244.039063 268.582031 254.84375 267.035156 266.066406 C 246.042969 266.203125 226.257813 265.996094 207.640625 266.066406 C 198.847656 252.453125 200.046875 235.082031 198.679688 219.664063 C 198.679688 219.664063 199.394531 219.734375 200.230469 219.828125 C 211.457031 221.070313 226.15625 223.546875 235.957031 219.601563 C 256.894531 211.171875 268.175781 194.1875 270.746094 174.515625 C 274.328125 147.117188 266.664063 123.628906 238.019531 114.398438 C 234.566406 113.253906 233.714844 110.242188 233.085938 106.726563 C 231.261719 97.6875 226.78125 88.042969 217.820313 83.257813 C 216.070313 76.726563 210.070313 72.703125 204.375 70.652344 C 214.808594 67.355469 229.101563 64.984375 240.09375 70.761719 C 263.699219 83.160156 279.828125 79.503906 283.335938 61.789063 C 287.910156 38.683594 258.851563 8.046875 242.984375 2.453125 C 217.6875 -6.460938 203.136719 9.792969 208.792969 35.9375 C 209.820313 40.683594 209.023438 42.5 206.808594 45.773438 C 200.910156 54.488281 186.390625 54.617188 179.539063 64.121094 C 177.371094 38.125 155.828125 21.597656 132.734375 27.238281 C 126.242188 28.820313 117.777344 31.605469 111.019531 31.796875 C 105.785156 29.636719 97.777344 26.738281 89.296875 28.546875 C 77.003906 31.171875 73.886719 39.789063 74.675781 48.925781 C 77.015625 75.96875 95.28125 89.601563 131.691406 94.421875 C 124.171875 101.941406 127.515625 112.652344 118.019531 119.335938 C 113.84375 121.992188 110.882813 127.082031 106.476563 129.96875 C 77.277344 144.230469 80.347656 171.109375 87.511719 190.304688 C 92.074219 202.53125 94.640625 209.71875 104.535156 216.074219 C 112.554688 221.230469 126.1875 226.992188 143.269531 225.308594 C 151.4375 224.503906 159.320313 222.664063 167.234375 222.09375 C 167.234375 222.09375 167.71875 250.765625 158.683594 266.046875 C 143.546875 266.023438 121.773438 266.121094 105.367188 266.046875 C 108.214844 255.289063 103.371094 247.183594 93.769531 244.746094 C 80.554688 241.394531 65.898438 251.933594 66.703125 266.046875 C 66.703125 266.046875 46.75 266.09375 46.066406 266.015625 C 45.9375 266.78125 46.136719 268.121094 46.121094 268.925781 C 46.121094 268.925781 44.15625 268.535156 42.550781 268.042969 C 28.835938 263.847656 24.085938 270.828125 20.945313 277.460938 C 18.464844 282.710938 14.652344 287.59375 10.808594 291.609375 C 3.265625 299.5 4.242188 300.277344 7.820313 312.09375 C -1.222656 316.433594 -2.085938 327.234375 6.207031 333.277344 C 9.714844 335.835938 13.78125 338.210938 15.183594 342.171875 C 1.414063 349.792969 6.90625 361.214844 15.128906 365.175781 C 19.917969 367.480469 32.835938 377.335938 34.816406 379.324219 C 38.195313 382.71875 41.707031 386.136719 46.019531 387.285156 C 46.019531 387.285156 45.976563 433.53125 46.035156 446.800781 C 47.761719 446.898438 102.148438 446.824219 102.148438 446.824219 C 112.007813 465.277344 123.175781 470.898438 137.703125 478.203125 C 141.230469 479.972656 144.632813 481.96875 147.488281 485.410156 C 152.867188 510.351563 170.394531 526.621094 181.636719 537.851563 C 185.214844 541.425781 190.84375 554.601563 193.011719 561.84375 C 195.152344 569.011719 206.761719 588.148438 208.476563 591.511719 C 204.519531 590.65625 199.492188 587.40625 196.164063 585.085938 C 189.664063 580.550781 182.761719 576.738281 174.605469 579.210938 C 169.816406 574.273438 167.007813 566.828125 159.792969 565.234375 C 155.3125 562.273438 154.78125 556.273438 149.691406 553.539063 C 135.175781 546.578125 120.496094 560.460938 117.355469 565.976563 C 114.785156 570.5 114.394531 575.804688 115.515625 581.109375 C 109.589844 577.800781 104.019531 580.15625 101.640625 583.804688 C 98.214844 589.046875 90.957031 587.296875 85.890625 589.871094 C 85.554688 590.042969 81.375 590.121094 79.882813 589.066406 C 74.355469 585.171875 69.878906 588.902344 66.234375 594.492188 C 59.476563 604.863281 63.117188 616.660156 71.207031 618.320313 C 74.296875 618.957031 78.601563 618.855469 78.601563 618.855469 C 83.941406 623.355469 94.519531 625.671875 100.25 619.160156 C 108.148438 623.261719 117.035156 622.121094 124.855469 618.550781 C 134.957031 623.03125 144.148438 617.183594 154.628906 618.324219 C 165.957031 624.566406 181.808594 626.074219 195.109375 618.019531 C 202.554688 613.308594 210.832031 616.5 218.882813 617.488281 C 231.675781 627.65625 243.441406 622.285156 254.425781 618.324219 C 266.632813 625.6875 284.449219 629.460938 297.640625 619.160156 C 303.945313 620.90625 309.339844 619.386719 315.109375 618.324219 C 322.15625 626.828125 336.042969 626.273438 344.957031 618.324219 C 351.320313 621.902344 363.492188 622.160156 368.730469 617.183594 C 377.625 617.183594 386.1875 613.398438 388.527344 608.308594 C 390.136719 604.804688 390.585938 600.617188 389.238281 597.511719 Z M 372.527344 339.96875 C 376.132813 352.964844 361.742188 359.257813 355.058594 367.613281 C 343.667969 371.640625 340.742188 387.664063 328.058594 389.714844 L 328.058594 388.878906 C 332.765625 387.664063 336.941406 382.753906 340.664063 379.5625 C 341.195313 378.425781 339.84375 377.046875 338.703125 378.480469 C 336.890625 380.328125 333.992188 381.605469 331.285156 380.980469 C 330.527344 378.09375 332.027344 376.425781 333.820313 374.808594 C 335.617188 373.195313 338.621094 367.558594 339.019531 366.894531 C 340.828125 363.910156 344.777344 360.589844 346.261719 364.375 C 346.726563 365.5625 347.128906 366.640625 349.058594 364.878906 C 348.914063 364.230469 348.832031 363.738281 348.753906 363.210938 C 349.554688 362.867188 352.488281 362.738281 354.0625 362.214844 C 355.652344 361.6875 354.960938 360.425781 354.488281 360.230469 C 353.453125 359.804688 352.855469 359.105469 352.855469 359.105469 C 357.035156 356.980469 361.363281 354.324219 365.464844 351.4375 C 365.464844 350.90625 365.390625 350.449219 364.855469 350.070313 C 358.703125 351.132813 353.996094 357.210938 347.390625 355.308594 C 348.90625 352.652344 352.554688 350.449219 352.324219 346.804688 C 351.566406 346.195313 350.425781 345.664063 349.589844 346.273438 C 347.769531 350.601563 343.742188 355.839844 338.652344 356.070313 C 332.046875 356.070313 326.957031 361.613281 324.148438 367.007813 L 324.679688 367.84375 C 326.882813 364.273438 330.90625 361.6875 334.554688 359.941406 C 335.84375 363.4375 334.703125 368.523438 332.652344 371.410156 C 328.855469 376.042969 322.78125 376.195313 317.617188 375.511719 C 312.300781 374.296875 306.148438 372.246094 302.804688 366.777344 C 301.285156 361.765625 302.957031 356.753906 305.539063 352.804688 C 310.171875 347.941406 315.71875 342.777344 322.476563 345.738281 C 322.933594 347.488281 319.515625 349.234375 317.84375 350.601563 L 317.007813 351.4375 L 318.679688 352.804688 C 321.566406 350.90625 326.199219 350.523438 326.882813 346.273438 C 334.078125 337.707031 338.632813 335.222656 347.601563 336.714844 C 353.320313 337.671875 359.734375 338.078125 365.160156 336.398438 C 367.589844 336.777344 371.539063 336.472656 372.527344 339.96875 Z M 370.675781 311.527344 C 380.191406 314.125 372.890625 329.644531 367.058594 332.296875 C 362.1875 332.59375 357.734375 334.9375 353.300781 334.378906 C 352.066406 334.222656 348.453125 333.132813 348.453125 333.132813 C 349.667969 331.917969 356.492188 329.890625 357.5625 329.554688 C 359.613281 328.910156 361.996094 328.8125 363.792969 327.664063 C 363.945313 326.828125 363.566406 326.222656 362.957031 325.765625 C 358.703125 325.308594 354.90625 327.816406 350.652344 325.765625 C 350.652344 325.765625 355.542969 320.523438 355.894531 319.585938 C 356.246094 318.632813 353.714844 317.816406 353.140625 318.628906 C 348.265625 325.554688 338.253906 328.570313 332.351563 327.359375 C 333.640625 326.828125 335.53125 325.960938 336.246094 324.992188 C 334.496094 322.710938 326.945313 326.476563 325.421875 327.589844 C 320.769531 330.984375 317.132813 336.480469 310.78125 335.335938 C 311.464844 336.929688 313.515625 337.765625 315.414063 337.765625 C 318.679688 337.613281 321.035156 335.03125 323.84375 333.664063 C 326.027344 339.335938 317.414063 341.136719 310.953125 340.667969 C 301.492188 339.980469 293.460938 333.832031 295.359375 323.6875 C 297.5625 311.910156 308.324219 310.335938 317.230469 312.648438 C 317.820313 312.800781 317.808594 313.0625 317.175781 313.160156 C 314.261719 313.617188 310.777344 315.988281 308.273438 318.402344 C 308.089844 318.578125 308.203125 320.46875 308.546875 320.425781 C 309.585938 320.304688 310.429688 319.5 311.277344 318.699219 C 313.507813 316.59375 317.070313 315.597656 321.109375 315.359375 C 320.25 316.777344 318.714844 317.386719 317.628906 318.285156 C 317.085938 318.734375 317.996094 320.640625 318.746094 320.300781 C 319.328125 320.039063 327.109375 314.449219 328.78125 310.726563 C 337.796875 305.5 343.335938 303.175781 349.738281 306.292969 C 356.054688 309.367188 364.324219 309.792969 370.675781 311.527344 Z M 321.945313 310.953125 C 322.960938 310.222656 324.957031 308.269531 325.03125 310.953125 C 325.03125 312.246094 324.261719 313.214844 322.78125 313.15625 C 322.566406 312.421875 322.296875 311.777344 321.945313 310.953125 Z M 328.203125 307.398438 C 330.195313 305.121094 335.617188 298.652344 335.390625 295.386719 C 337.589844 294.625 341.464844 293.5625 342.453125 296.523438 C 340.058594 301.234375 331.671875 307.132813 328.203125 307.398438 Z M 344.316406 299.644531 L 344.703125 301.640625 C 343.914063 301.566406 342.414063 301.351563 342.414063 301.351563 Z M 333.921875 274.277344 C 341.964844 268.058594 354.46875 264.652344 358.433594 277.453125 C 359.894531 282.160156 361.359375 286.898438 364.855469 290.539063 C 367.386719 293.175781 369.679688 299.949219 363.261719 305.488281 C 359.921875 306.09375 356.578125 304.804688 353.691406 303.589844 C 353.464844 302.296875 356.761719 299.433594 358.628906 298.652344 C 356.578125 295.765625 353.238281 298.652344 350.121094 297.285156 L 346.019531 294.324219 C 348.148438 292.726563 352.171875 292.953125 352.324219 289.6875 C 349.972656 288.171875 348.222656 291.132813 345.71875 291.058594 C 340.378906 291.058594 332.167969 290.390625 327.96875 295.625 C 325.839844 298.28125 321.71875 301.992188 321.71875 301.992188 C 326.046875 304.273438 328.554688 295.6875 332.046875 296.753906 C 329.074219 301.40625 324.996094 306.503906 319.492188 307.867188 C 309.964844 310.234375 301.695313 304.449219 299.917969 295.296875 C 296.988281 280.203125 312.066406 277.140625 318.679688 278.753906 C 315.273438 279.433594 312.847656 282.375 310.082031 284.5625 C 309.761719 284.8125 310.5 286.199219 310.992188 285.652344 C 311.53125 285.050781 318.773438 279.984375 321.945313 280.652344 C 320.957031 281.257813 319.742188 281.5625 318.984375 282.550781 L 319.742188 283.386719 C 325.578125 282.34375 329.503906 277.691406 333.921875 274.277344 Z M 292.085938 248.480469 C 303.0625 249.183594 307.246094 253.863281 309.109375 265.96875 L 278.949219 265.984375 C 276.171875 264.277344 279.015625 258.691406 280.164063 257.699219 C 282.101563 256.035156 280.460938 254.4375 278.476563 255.585938 C 275.175781 257.492188 272.902344 263.164063 270.527344 265.613281 C 271.261719 256.785156 279.214844 247.652344 292.085938 248.480469 Z M 206.574219 122.328125 C 199.226563 127.785156 190.488281 124.015625 186.90625 114.703125 C 203.257813 121.621094 212.871094 102.976563 210.375 77.488281 C 223.597656 92.019531 217.523438 114.195313 206.574219 122.328125 Z M 207.066406 80.535156 C 209.046875 94.0625 202.78125 114.773438 188.960938 111.273438 C 183.941406 110.003906 183.769531 100.824219 185.457031 94.097656 C 185.722656 93.042969 186.324219 93.394531 186.320313 94.496094 C 186.289063 102.03125 191.261719 106.484375 196.464844 99.089844 C 198.398438 96.34375 201.734375 88.910156 201.152344 85.171875 C 200.789063 82.835938 200.328125 82.023438 198.089844 83.78125 C 195.152344 86.085938 192.964844 86.375 194.425781 81.863281 C 195.265625 79.273438 194.132813 78.792969 192.628906 79.480469 C 191.738281 79.886719 190.703125 80.523438 190.703125 80.523438 C 192.835938 71.308594 206.113281 74.027344 207.066406 80.535156 Z M 217.820313 63.816406 C 221.996094 61.386719 224.519531 61.761719 228.738281 62.542969 C 229.121094 62.921875 230.351563 63.890625 230.652344 64.347656 C 225.566406 63.890625 222.832031 64.195313 217.820313 63.816406 Z M 210.542969 21.101563 C 212.769531 7.699219 228.824219 -3.316406 248.117188 8.808594 C 259.3125 15.847656 281.835938 42 280.648438 57.503906 C 279.476563 72.820313 267.449219 75.636719 255.027344 73.144531 C 228.375 67.796875 208.625 32.65625 210.542969 21.101563 Z M 212.578125 43.003906 L 214.046875 45.308594 C 213.511719 45.761719 205.941406 52.640625 207.109375 54.246094 C 209.167969 53.480469 209.921875 52.421875 211.515625 51.816406 C 215.039063 49.675781 220.875 54.414063 218.046875 56.144531 C 213.484375 58.554688 208.617188 60.789063 204.609375 64.578125 C 203.867188 65.28125 204.390625 66.621094 206.050781 65.847656 C 209.324219 64.324219 213.796875 61.996094 215.84375 64.121094 C 209.769531 65.105469 206.042969 66.839844 200.953125 70.179688 C 196.019531 70.636719 183.035156 80.753906 183.035156 80.753906 C 182.046875 72.246094 192.375 58.042969 192.375 58.042969 C 200.046875 55.386719 209.3125 51.207031 212.578125 43.003906 Z M 185.816406 61.5625 L 181.824219 68.101563 C 180.285156 65.75 183.988281 61.878906 185.816406 61.5625 Z M 82.703125 65.496094 C 71.964844 46.53125 82.175781 29.480469 98.589844 31.945313 C 105.808594 33.03125 113.164063 36.84375 120.148438 38.675781 C 121.496094 39.367188 121.515625 37.308594 121.515625 37.308594 L 115.816406 34.574219 C 121.703125 34.167969 127.535156 32.011719 133.40625 30.664063 C 160.351563 24.476563 178.46875 47.320313 175.96875 78.019531 C 174.5625 77.246094 172.554688 77.035156 171.339844 76.652344 C 172.554688 68.449219 165.601563 54.226563 165.117188 53.117188 C 163.972656 50.488281 162.378906 51.277344 162.996094 53.484375 C 164.175781 57.675781 166.191406 62.992188 165.695313 66.976563 C 165.617188 67.605469 165.085938 67.597656 164.988281 67.011719 C 163.949219 60.691406 162.09375 53.585938 156.972656 49.234375 C 146.539063 40.367188 139.894531 52.347656 139.894531 52.347656 C 136.839844 50.980469 133.726563 46.832031 129.84375 45.429688 C 129.191406 45.191406 128.519531 46.113281 128.992188 46.570313 C 147.675781 64.535156 149.953125 84.019531 141.925781 88.480469 C 130.707031 94.722656 93.25 84.113281 82.703125 65.496094 Z M 156.746094 100.015625 C 159.703125 96.445313 161.945313 92.375 162.027344 87.714844 C 162.105469 83.476563 161.742188 81.679688 158.730469 83.488281 C 157.667969 84.320313 157.894531 86.144531 156.300781 86.222656 C 154.25 86.601563 154.53125 83.945313 155.691406 80.753906 C 155.3125 80.378906 154.476563 80.144531 154.097656 79.386719 C 161.453125 71.59375 168.019531 77.480469 167.660156 84.226563 C 166.761719 101.214844 159.191406 115.820313 146.8125 110.246094 C 142.335938 108.230469 142.65625 95.785156 144.527344 91.6875 L 146.957031 89.488281 C 144.324219 99.355469 148.847656 109.558594 156.746094 100.015625 Z M 143.386719 55.917969 C 143.046875 52.167969 149.394531 45.730469 156.214844 53.066406 C 159.601563 56.714844 162.09375 65.085938 161.160156 72.550781 C 157.667969 73.308594 154.097656 75.132813 151.363281 76.421875 C 151.515625 68.753906 147.488281 62.144531 143.386719 55.917969 Z M 171.035156 83.789063 C 174.324219 87.855469 174.496094 114.402344 161.828125 120.875 C 153.796875 124.980469 147.871094 119.867188 145.589844 114.398438 C 160.980469 121.433594 169.578125 105.304688 171.035156 83.789063 Z M 141.699219 201.066406 C 144.480469 199.472656 150.394531 199.660156 154.839844 201.234375 C 160.238281 203.144531 161.179688 207.082031 156.527344 210.625 C 149.253906 214.175781 140.121094 216.625 131.921875 217.234375 C 124.15625 216.324219 117.746094 214.257813 110.964844 211.382813 C 110.382813 211.136719 109.90625 211.714844 110.386719 212.085938 C 121.871094 220.964844 140.003906 221.746094 148.386719 219.828125 C 154.617188 218.402344 160.574219 216.375 167.234375 217.460938 L 167.234375 218.601563 C 152.882813 220.121094 137.84375 224.90625 123.1875 220.726563 C 100.964844 214.089844 94.988281 205.429688 88.003906 182.472656 C 83.496094 167.652344 84.441406 149.488281 103.652344 135.527344 C 109.03125 131.617188 121.515625 119.5625 121.515625 119.5625 C 119.539063 124.804688 116.425781 129.4375 113.921875 134.371094 L 114.984375 134.902344 C 128.957031 123.664063 124.097656 106.042969 136.019531 94.421875 C 137.691406 94.347656 139.136719 93.816406 140.652344 93.589844 C 139.054688 102.554688 138.816406 114.207031 146.625 121.75 C 152.347656 127.277344 158.230469 127.613281 163.917969 124.015625 C 169.390625 120.554688 182.484375 107.199219 174.070313 81.054688 C 175.96875 81.488281 178.890625 81.945313 179.574219 84.828125 C 179.574219 87.335938 176.757813 89.109375 179.1875 90.78125 C 181.574219 86.527344 183.339844 85.992188 183.339844 85.992188 C 182.3125 88.726563 181.75 91.34375 181.421875 94.085938 C 178.746094 116.371094 187.570313 132.269531 202.585938 128.144531 C 213.691406 125.097656 226.574219 109.296875 219.71875 88.726563 C 228.902344 94.773438 229.476563 104.773438 231.683594 114.195313 C 234.324219 125.46875 238.332031 129.886719 243.84375 133.210938 C 244.265625 133.46875 245.058594 132.632813 244.742188 132.324219 C 240.496094 128.136719 236.792969 122.933594 235.589844 117.132813 C 255.296875 123.050781 269.097656 138.109375 268.417969 164.246094 C 267.667969 193.066406 250.316406 208.929688 237.945313 214.816406 C 229.28125 218.933594 217.496094 220.773438 208.535156 217.90625 C 208.152344 217.785156 202.097656 216.171875 198.679688 216.09375 L 198.679688 215.046875 C 202.808594 214.347656 206.6875 215.609375 210.566406 216.328125 C 216.257813 217.382813 230.378906 216.894531 231.1875 214.195313 C 225.984375 215.34375 219.941406 212.648438 214.179688 212.089844 C 208.355469 211.527344 203.742188 208.5625 205.390625 204.046875 C 206.199219 201.828125 214.515625 200.507813 219.1875 201.890625 C 221.5 202.4375 221.117188 200.363281 220.167969 199.636719 C 216.035156 196.480469 205.425781 198.601563 197.851563 201.910156 C 185.367188 207.363281 178.035156 208.664063 167.035156 201.835938 C 160.042969 197.492188 148.128906 193.460938 140.386719 199.890625 C 139.261719 200.828125 140.21875 201.914063 141.699219 201.066406 Z M 170.339844 212.75 C 170.296875 211.960938 170.699219 211.785156 170.910156 212.488281 C 173.8125 222.121094 171.898438 232.851563 171.386719 243.492188 C 171.367188 243.855469 173.3125 243.820313 173.351563 243.597656 C 174.984375 233.9375 175.742188 223.867188 179.34375 215.039063 C 181.714844 209.234375 188.085938 209.320313 189.640625 214.195313 C 191.175781 218.382813 191.6875 223.019531 193.054688 227.277344 C 193.175781 227.652344 194.441406 226.847656 194.371094 226.546875 C 193.023438 220.761719 193.316406 212.894531 195.339844 206.828125 L 195.945313 206.828125 C 194.050781 223.683594 196.832031 254.378906 203.3125 266.066406 C 192.027344 266.066406 180.269531 266.035156 170.730469 266.066406 C 170.121094 263.484375 171.640625 259.6875 172.703125 256.878906 L 171.035156 254.371094 C 169.296875 256.285156 166.097656 265.945313 162.832031 265.953125 C 168.710938 249.113281 171.191406 229.808594 170.339844 212.75 Z M 90.835938 247.929688 C 99.363281 249.375 104.828125 253.539063 101.84375 266.066406 L 78.070313 266.03125 C 75.640625 263.03125 76.886719 259.742188 78.46875 257.34375 C 79.257813 256.148438 78.871094 253.921875 76.726563 255.214844 C 74.511719 256.546875 71.476563 261.488281 70.933594 266.03125 L 69.867188 266.03125 C 70.105469 253.886719 79.71875 246.050781 90.835938 247.929688 Z M 12.570313 293.753906 C 16.363281 290.039063 20.234375 285.679688 22.480469 280.941406 C 27.417969 270.523438 33.78125 266.816406 45.007813 273.480469 C 49.75 276.289063 52.738281 278.402344 57.644531 276.207031 C 66.761719 272.125 77.929688 273.699219 81.339844 283.375 C 85.359375 294.789063 77.007813 300.855469 77.007813 300.855469 C 70.25 300.929688 62.199219 301.964844 55.363281 299.789063 L 55.136719 298.566406 C 61.285156 300.996094 64.78125 295.234375 68.804688 292.121094 C 69.710938 291.382813 69.269531 290.441406 68.199219 290.449219 C 65.5625 290.945313 63.28125 293.464844 60.765625 294.714844 C 54.914063 297.621094 49.644531 290.230469 44.425781 289.082031 L 49.667969 282.855469 C 47.496094 281.296875 46.117188 282.847656 44.65625 284.5 C 40.867188 288.78125 28.472656 290.910156 26.835938 289.710938 C 25.425781 288.675781 24.398438 289.480469 24.601563 290.25 C 25.25 292.671875 28.855469 293.332031 31.589844 292.953125 C 28.011719 297.375 14.652344 307.234375 10.25 310.195313 C 9.878906 305.757813 3.9375 302.222656 12.570313 293.753906 Z M 51.792969 299.488281 L 48.945313 298.683594 L 48.945313 295.949219 C 50.394531 296.640625 52.1875 296.34375 51.792969 299.488281 Z M 46.089844 294.863281 L 46.089844 297.066406 C 44.34375 296.152344 37.667969 292.652344 34.628906 293.789063 C 34.933594 291.816406 39.824219 291.328125 40.6875 291.59375 C 42.796875 292.25 45.28125 293.730469 46.089844 294.863281 Z M 10.492188 332.015625 C 0.941406 325.59375 1.527344 320.503906 9.449219 314.535156 C 10.375 313.839844 22.558594 305.550781 27.058594 301.535156 C 29.675781 299.195313 35.535156 295.101563 40.589844 297.847656 C 44.546875 299.996094 51.121094 304.304688 55.652344 303.433594 C 63.613281 301.898438 66.941406 311.402344 74.042969 309.800781 C 75.066406 309.570313 74.917969 308.011719 73.976563 307.738281 C 70.71875 306.796875 68.804688 304.726563 68.804688 304.726563 C 74.730469 304.5 81.148438 303.808594 85.210938 310.195313 C 92.929688 323.0625 86.078125 332.5 80.503906 336.703125 C 76.921875 334.171875 73.089844 333.898438 69.253906 333.925781 C 64.527344 333.960938 62.523438 333.304688 59.421875 330.671875 C 57.554688 329.089844 55.683594 327.953125 54.832031 325.460938 C 60.5625 327.367188 66.671875 330.210938 71.769531 324.09375 C 69.109375 321.511719 65.097656 325.726563 62.199219 324.625 C 55.835938 322.171875 44.242188 315.960938 39.546875 315.28125 C 37.457031 314.980469 35.636719 314.390625 35.019531 312.113281 C 34.179688 309.011719 31.476563 310.953125 32.601563 314.003906 C 33.023438 315.136719 32.589844 316.367188 31.285156 317.789063 C 25.96875 323.105469 11.785156 327.355469 11.355469 327.476563 C 10.890625 327.609375 11 329.148438 11.675781 329.015625 C 12.808594 328.792969 24.527344 325.992188 28.855469 323.257813 L 31.058594 325.765625 C 25.363281 327.664063 21.488281 335.335938 17.386719 339.664063 C 16.507813 337.339844 12.703125 333.503906 10.492188 332.015625 Z M 57.566406 333.808594 C 54.832031 334.265625 51.828125 332.601563 48.945313 331.765625 L 48.945313 322.195313 C 50.105469 322.238281 50.28125 323.296875 50.425781 324.472656 C 50.800781 327.570313 54.53125 331.816406 57.566406 333.808594 Z M 40.707031 347.140625 C 38.304688 347.050781 35.617188 346.222656 33.109375 345.453125 C 30.9375 344.785156 30.449219 346.058594 31.285156 347.105469 C 32.503906 348.625 35.996094 349.84375 35.996094 349.84375 C 33.347656 354.578125 27.761719 355.097656 23.457031 357.554688 C 23.070313 357.777344 23.21875 359.851563 24.453125 359.410156 C 28.550781 357.738281 33.640625 357.664063 36.527344 353.640625 C 39.566406 357.4375 37.363281 361.84375 38.425781 366.246094 C 39.71875 367.007813 40.550781 366.324219 41.160156 365.105469 C 41.085938 362.675781 40.695313 357.96875 41.835938 355.917969 L 42.832031 356.675781 C 43.628906 361.457031 44.511719 375.914063 37.78125 371.332031 C 35.839844 370.011719 34.574219 367.714844 32.410156 369.480469 C 33.140625 371.667969 34.507813 372.707031 35.53125 374.394531 C 35.789063 374.816406 35.417969 375.203125 35.003906 374.878906 C 30.160156 371.136719 23.90625 366.046875 17.59375 362.867188 C 5.339844 356.699219 9.777344 348.738281 17.085938 344.070313 C 17.691406 344.601563 17.917969 347.03125 19.589844 345.738281 C 21.730469 343.519531 23.347656 340.203125 25.039063 337.054688 C 30.695313 326.511719 37.4375 327.101563 41.246094 331.039063 C 45.777344 335.722656 50.441406 335.960938 56.199219 336.566406 C 59.8125 336.945313 63.253906 337.78125 65.554688 340.816406 C 67.757813 343.722656 71.652344 346.316406 71.652344 346.316406 C 71.652344 346.316406 73.375 345.28125 72.609375 344.761719 C 70.820313 343.539063 69.941406 342.996094 68.816406 340.839844 C 67.957031 339.1875 67.457031 337.367188 65.464844 336.398438 C 85.34375 335.371094 91.082031 355.597656 76.894531 365.585938 C 70.910156 369.796875 60.722656 370.523438 54.527344 362.675781 C 56.824219 362.585938 59.566406 362.355469 62.28125 361.96875 C 67.527344 361.222656 66.125 359.105469 61.234375 359.660156 C 55.902344 360.265625 51.65625 358.421875 48.898438 354.105469 C 46.058594 349.664063 43.203125 347.230469 40.707031 347.140625 Z M 48.945313 443.867188 L 48.945313 359.410156 C 56.75 370.679688 68.640625 378.625 81.773438 366.320313 C 88.234375 360.265625 94.863281 348.910156 82.476563 338.070313 C 97.503906 329.445313 96.101563 309.375 81.109375 301.992188 C 88.636719 293.90625 86.84375 283.46875 83.0625 278.277344 C 76.675781 269.523438 63.0625 269.378906 57.332031 272.480469 C 54.671875 273.921875 52.832031 272.867188 48.914063 270.566406 L 49.042969 268.8125 C 49.042969 268.8125 316.867188 268.8125 325.167969 268.878906 L 325.25 275.457031 C 316.222656 276.191406 296.1875 273.664063 295.972656 293.488281 C 296.121094 300.625 300.222656 305.867188 305.539063 309.589844 C 286.5625 313.914063 290.230469 327.949219 292.429688 332.941406 C 294.898438 338.546875 301.34375 342.898438 310.171875 344.371094 C 305.324219 347.859375 300.4375 353.066406 298.847656 358.980469 C 296.191406 368.855469 305.921875 381.59375 321.109375 379.917969 L 325.136719 379.484375 C 325.136719 379.484375 325.378906 423.746094 325.226563 443.949219 C 308.363281 443.789063 48.945313 443.867188 48.945313 443.867188 Z M 141.390625 476.738281 C 126.734375 470.765625 115.398438 460.003906 106.25 446.90625 L 107.617188 446.90625 C 117.941406 461.558594 131.644531 469.910156 141.394531 476.214844 C 142.078125 476.65625 142.050781 477.003906 141.390625 476.738281 Z M 70.804688 615.800781 L 69.035156 613.082031 C 71.761719 614.527344 74.804688 614.222656 74.804688 614.222656 L 75.640625 615.816406 C 74.273438 617.261719 72.011719 616.675781 70.804688 615.800781 Z M 73.4375 610.957031 C 71.234375 612.398438 68.25 610.949219 67.4375 609.589844 C 63.308594 602.828125 65.203125 592.78125 75.867188 590.449219 C 80.957031 596.070313 88.933594 591.4375 94.171875 590.144531 C 91.5625 593.613281 87.542969 594.519531 83.6875 595.617188 C 75.898438 597.84375 71.648438 603.085938 73.4375 610.957031 Z M 77.769531 612.324219 C 75.308594 606.460938 78.265625 600.960938 84.972656 598.96875 C 90.609375 597.296875 97.683594 592.75 100.980469 588.691406 C 105.519531 583.097656 112.601563 579.574219 115.816406 585.742188 C 115.816406 585.742188 112.1875 593.597656 100.210938 597.671875 C 91.109375 600.765625 91.074219 607.640625 93.945313 613.917969 C 92.925781 615.875 86.445313 617.621094 82.476563 613.917969 L 81.109375 613.917969 C 84.480469 619.261719 87.382813 619.371094 97.210938 617.488281 C 92.316406 623.101563 82.714844 622.140625 77.769531 612.324219 Z M 135.492188 599.625 C 132.339844 601.878906 128.515625 610.609375 127.96875 611.316406 C 119.828125 621.820313 107.765625 618.800781 103.992188 617.441406 C 103.5 617.261719 104.097656 616.523438 104.277344 616.574219 C 108.824219 617.765625 113.550781 617.414063 117.71875 615.589844 C 117.640625 614.335938 117.035156 614.164063 116.234375 614.222656 C 112.816406 614.464844 103.363281 615.613281 100.96875 609.441406 C 100.425781 608.042969 99.792969 606.773438 97.742188 606.855469 C 96.90625 609.742188 98.957031 613.082031 101.007813 615.285156 L 99.945313 615.285156 C 92.734375 609.015625 95.007813 602.746094 101.9375 600.785156 C 108.210938 599.011719 114.707031 595.9375 117.414063 589.308594 C 117.945313 588.171875 118.726563 587.761719 119.617188 588.246094 C 119.007813 589.539063 117.488281 590.449219 117.71875 592.042969 C 118.554688 593.183594 119.691406 593.335938 120.984375 593.410156 C 124.019531 595.84375 127.285156 599.03125 125.921875 602.980469 C 125.351563 604.453125 125.539063 605.5625 126.984375 606.246094 C 130.636719 605.316406 131.558594 599.96875 135.144531 599 C 135.652344 598.863281 135.898438 599.339844 135.492188 599.625 Z M 216.683594 604.234375 C 213.933594 608.757813 197.3125 608.496094 196.007813 608.410156 C 194.664063 609.511719 194.996094 611.550781 199.0625 610.960938 C 201.894531 610.550781 205.214844 610.160156 207.851563 611.09375 C 208.484375 611.320313 209.539063 611.988281 207.589844 611.886719 C 201.445313 611.558594 196.109375 613.886719 190.769531 616.242188 C 176.214844 622.667969 166.71875 621.8125 158.007813 616.445313 C 152.558594 613.089844 150.492188 606.867188 151.589844 602.449219 C 152.351563 601.765625 153.308594 601.667969 154.324219 601.613281 C 154.820313 602.203125 154.59375 602.921875 154.359375 603.730469 C 152.183594 611.210938 165.609375 620.335938 179.160156 618.996094 C 181.726563 618.742188 181.492188 614.753906 178.640625 615.972656 C 177.453125 616.476563 159.246094 613.683594 157.667969 604.121094 C 161.386719 604.578125 165.261719 604.578125 168.832031 602.980469 L 167.769531 601.917969 C 164.425781 601.160156 160.171875 602.527344 157.667969 599.714844 C 160.21875 598.332031 163.816406 598.484375 166.316406 596.417969 C 166.96875 595.882813 166.683594 594.917969 165.324219 595.195313 C 123.210938 603.6875 115.984375 584.527344 119.085938 570.472656 C 121.660156 558.722656 137.757813 555.089844 140.25 554.472656 C 144.234375 553.488281 149.863281 556.347656 151.5 558.945313 C 153.589844 562.269531 154.515625 566.242188 158.730469 567.4375 C 166.933594 569.410156 167.769531 580.042969 175.96875 583.007813 C 177.855469 583.527344 179.855469 583.878906 181.296875 585.070313 C 181.539063 585.269531 183.269531 583.546875 183.074219 583.417969 C 181.738281 582.527344 180.164063 582.167969 178.703125 581.640625 C 184.273438 580.132813 188.949219 583.070313 193.433594 586.222656 C 200.277344 591.039063 206.480469 594.03125 216.453125 595.082031 C 217.894531 595.460938 217.695313 602.570313 216.683594 604.234375 Z M 302.273438 611.714844 C 304.554688 611.335938 308.046875 609.285156 309.945313 606.550781 C 311.007813 608.980469 305.394531 614.457031 302.273438 611.714844 Z M 337.265625 619.867188 C 329.808594 623.167969 324.535156 621.667969 317.007813 615.285156 C 316.933594 613.652344 315.945313 612.570313 315.035156 611.449219 C 312.925781 608.855469 313.558594 601.5625 316.78125 598.652344 C 317.3125 597.664063 316.933594 596.144531 315.640625 596.144531 L 312.90625 597.816406 C 313.363281 595.691406 316.019531 593.792969 315.109375 591.816406 C 312.832031 592.195313 312.148438 594.777344 311.007813 596.449219 C 310.355469 595.332031 308.90625 595.074219 308.617188 595.367188 C 307.410156 596.617188 307.125 598.234375 306.863281 599.851563 C 305.976563 605.304688 304.261719 606.976563 299.167969 607.207031 C 296.640625 607.320313 293.734375 605.824219 292.273438 607.992188 C 294.632813 610.4375 297.035156 609.359375 299.84375 610.652344 L 299.34375 611.570313 C 290.378906 608.304688 286.476563 617.714844 278.199219 617.792969 C 272.734375 617.761719 273.332031 620.96875 277.726563 620.839844 C 279.742188 620.78125 291.753906 618.003906 298.703125 614.222656 C 284.910156 628.136719 266.984375 622.242188 258.320313 616.757813 C 257.320313 616.128906 258.03125 614.347656 258.984375 614.902344 C 260.757813 615.929688 262.304688 617.839844 264.527344 617.792969 C 265.71875 617.570313 265.941406 616.652344 265.058594 616.121094 C 261.835938 614.339844 259.351563 611.550781 256.632813 609.34375 C 252.308594 605.828125 247.941406 606.054688 244.554688 605.714844 C 243.945313 606.246094 243.414063 607.15625 244.019531 607.917969 C 247.742188 609.96875 253.589844 609.285156 255.261719 614.222656 C 250.0625 609.890625 240.917969 611.90625 239.066406 613.238281 C 236.117188 615.355469 231.996094 615.96875 228.753906 614.449219 C 227.921875 614.527344 227.160156 615.285156 227.085938 616.121094 C 230.160156 618.539063 240.6875 616.929688 242.855469 616.273438 C 245.179688 615.566406 247.648438 615.171875 249.792969 616.121094 C 240.027344 620.660156 224.074219 622.925781 220.25 612.019531 C 218.273438 605.5625 222.300781 599.410156 224.046875 593.410156 C 224.199219 594.777344 224.625 596.820313 225.71875 596.980469 C 230.054688 590.140625 224.636719 579.773438 221.179688 576.058594 C 216.898438 571.460938 215.019531 564.636719 215.558594 556.589844 C 215.738281 553.871094 215.707031 550.3125 215.085938 547.765625 C 216.4375 550.066406 218.089844 552.722656 219.078125 555.476563 C 219.90625 557.78125 222.460938 557.140625 221.257813 554.148438 C 220.816406 553.058594 215.617188 540.625 216.984375 535.460938 C 216.453125 534.777344 215.691406 534.472656 214.78125 534.625 C 213.035156 536.675781 213.488281 539.257813 213.414063 541.460938 C 207.1875 531.589844 194.226563 509.710938 197.3125 493.613281 L 198.101563 492.808594 C 198.863281 501.390625 198.832031 512.449219 204.90625 519.894531 C 205.589844 520.121094 206.199219 519.589844 206.273438 519.058594 C 202.019531 510.246094 204.527344 499.386719 208.476563 491.410156 C 211.058594 487.539063 216.285156 489.703125 219.1875 485.941406 C 223.4375 480.09375 228.222656 475.765625 234.984375 473.410156 C 229.15625 469.878906 213.699219 482.757813 210.1875 485.257813 C 200.488281 492.171875 188.96875 486.828125 179.882813 481.527344 C 171.046875 476.371094 168.816406 475.363281 159.792969 477.210938 C 159.867188 478.195313 162.683594 478.25 163.285156 478.25 C 173.683594 478.261719 188.070313 492.800781 194.273438 506.449219 C 196.703125 512.449219 197.539063 517.613281 196.703125 524.222656 C 198.171875 528.035156 209.390625 538.910156 207.523438 549.839844 C 207.28125 551.277344 209.09375 557.109375 209.960938 558.328125 C 211.609375 560.644531 215.996094 577.386719 216.984375 583.613281 C 216.222656 585.058594 214.628906 584.980469 213.414063 584.144531 C 210.660156 582.425781 208.65625 579.144531 207.285156 576.058594 C 206.183594 573.566406 202.761719 574.664063 204.679688 577.539063 C 208.171875 582.171875 210.90625 586.546875 213.269531 591.382813 L 212.882813 592.347656 C 210.679688 590.527344 205.964844 582.4375 205.027344 581.117188 C 199.640625 573.496094 195.574219 564.855469 193.4375 555.664063 L 198.5625 560.320313 C 198.5625 560.320313 199.476563 559.203125 199.191406 558.917969 C 192.085938 551.675781 186.617188 541.609375 185.007813 531.894531 C 184.875 530 183.140625 529.125 182.339844 531.152344 C 181.996094 532.019531 182.394531 533.199219 182.273438 534.09375 C 161.785156 517.035156 154.160156 493.6875 145.273438 471.441406 C 143.570313 467.171875 140.210938 464.085938 137.367188 466.324219 C 136.808594 466.765625 136.253906 467.210938 135.488281 467.105469 C 128.980469 461.351563 129.121094 455.902344 135.53125 453.035156 C 142.40625 449.953125 153.464844 451.765625 155.824219 452.363281 C 163.640625 454.339844 169.644531 452.179688 176.113281 450.246094 C 183.8125 447.941406 207.636719 445.664063 221.921875 449.335938 C 231.054688 449.957031 240.503906 451.273438 249.8125 450.46875 C 270.296875 448.695313 274.222656 456.34375 263.648438 465.800781 C 262.351563 466.960938 260.890625 468.171875 260.730469 469.84375 C 263.714844 472.347656 278.90625 455.347656 279.871094 446.90625 L 280.933594 446.90625 C 277.738281 459.402344 265.613281 473.582031 256.023438 476.367188 C 255.589844 476.496094 255.203125 476.039063 255.710938 475.8125 C 257.226563 475.132813 259.875 474.722656 259.363281 472.042969 C 258.875 471.613281 258.242188 471.441406 257.632813 471.273438 C 255.335938 470.640625 255.175781 469.34375 255.308594 467.203125 C 255.394531 465.835938 255.046875 463.71875 253.363281 465.738281 C 248.648438 472.152344 246.890625 483.648438 249.148438 488.863281 C 252.546875 496.714844 246.386719 524.882813 243.488281 534.929688 C 242.628906 532.203125 242.910156 530.203125 243.265625 528.695313 C 243.488281 527.730469 241.53125 527.578125 241.121094 528.480469 C 238.164063 534.972656 242.773438 541.976563 241.429688 548.90625 C 241.285156 549.644531 240.382813 552.597656 240.609375 554.515625 C 240.683594 555.15625 242.574219 554.710938 242.664063 553.496094 C 242.871094 550.777344 244.019531 547.765625 244.019531 547.765625 C 252.265625 562.550781 255.285156 568.644531 251.894531 581.132813 C 249.75 589.039063 241.820313 591.816406 241.820313 591.816406 C 242.121094 592.5 242.351563 593.488281 243.1875 593.714844 C 251.691406 593.488281 253.058594 582.625 261.261719 581.410156 C 265.820313 580.957031 270.90625 581.640625 275.464844 578.675781 C 275.390625 579.695313 274.414063 580.507813 273.664063 581.339844 C 271.679688 583.542969 274.191406 584.75 276.042969 583.511719 C 279.988281 580.875 279.898438 576.1875 280.800781 571.929688 C 284.503906 554.4375 306.617188 539.484375 321.695313 548.199219 C 328.914063 552.371094 332.542969 561.003906 325.140625 573.753906 C 317.558594 586.808594 300.058594 590.976563 287.433594 588.148438 C 282.566406 587.054688 280.085938 588.945313 285.199219 592.914063 C 286.617188 594.019531 288 595.199219 287.769531 597.285156 C 287.707031 598.773438 291.066406 599.269531 291.523438 598.148438 C 292.183594 596.542969 292.511719 594.457031 294.070313 595.082031 C 293.351563 596.332031 293.046875 597.574219 293.003906 598.691406 C 292.9375 600.335938 294.828125 600.496094 295.679688 599.132813 C 297.648438 595.980469 308.230469 591.0625 309.601563 590.484375 C 316.035156 587.78125 322.652344 583.792969 327.414063 577.84375 C 331.949219 577.472656 332.820313 580.367188 333.257813 584.492188 C 334.003906 591.609375 339.328125 596.578125 344.5625 601.21875 C 352.554688 608.300781 344.953125 616.464844 337.265625 619.867188 Z M 368.703125 612.945313 C 361.828125 620.4375 355.582031 619.007813 347.691406 616.121094 L 348.753906 614.449219 C 352.371094 617.597656 361.890625 616.351563 364.742188 613.78125 C 365.4375 613.15625 363.527344 611.144531 362.671875 611.441406 C 354.03125 614.414063 351.792969 608.753906 351.792969 608.753906 C 353.722656 601.945313 346.714844 598.339844 341.839844 593.617188 C 338.46875 590.351563 337.660156 584.960938 336.753906 580.042969 C 341.828125 576.816406 347.308594 580.40625 350.597656 585.820313 C 354.136719 591.640625 356.480469 598.796875 363.792969 600.246094 C 372.804688 601.636719 372.453125 608.855469 368.703125 612.945313 Z M 386.121094 605.035156 C 384.921875 610.484375 379.476563 614.316406 372.300781 614.449219 L 373.058594 613.082031 C 373.058594 613.082031 380.808594 611.574219 383.613281 606.503906 C 383.753906 606.25 382.71875 605.074219 382.457031 605.25 C 379.910156 606.949219 376.484375 608.289063 375.261719 606.550781 C 374.882813 603.359375 373.210938 600.09375 370.324219 598.347656 C 365.921875 596.449219 361.285156 597.058594 358.324219 592.042969 C 357.339844 589.765625 355.820313 587.714844 354.527344 585.511719 C 359.847656 584.4375 363.4375 587.832031 367.183594 590.886719 C 371.808594 594.660156 374.339844 595.050781 381.050781 595.683594 C 386.683594 596.21875 387.128906 600.472656 386.121094 605.035156 "/>
<path style=" stroke:none;fill-rule:nonzero;fill:rgb(0%,0%,0%);fill-opacity:1;" d="M 250.953125 65.117188 C 257.996094 68.507813 283.589844 71.421875 270.671875 47.847656 C 270.136719 46.867188 268.550781 47.097656 269.058594 48.558594 C 274.195313 63.328125 261.214844 64.269531 250.929688 59.757813 C 244.964844 57.140625 231.777344 44.757813 228.957031 33.5 C 225.589844 20.070313 229.171875 6.957031 245.113281 15.160156 C 246.089844 15.664063 246.828125 14.136719 246.429688 13.777344 C 236.75 5.015625 221.5625 5.839844 221.265625 23.96875 C 221.023438 38.695313 227.082031 53.628906 250.953125 65.117188 "/>
<path style=" stroke:none;fill-rule:nonzero;fill:rgb(0%,0%,0%);fill-opacity:1;" d="M 138.078125 71.921875 C 134.566406 55.789063 114.164063 43.484375 102.363281 40.324219 C 87.21875 36.269531 82.03125 42.335938 85.597656 54.175781 C 87.03125 58.925781 89.503906 63.363281 93.828125 66.570313 C 94.207031 66.851563 95.433594 66.332031 95.070313 65.960938 C 86.777344 57.546875 88.117188 51.617188 95.195313 50.398438 C 100.238281 49.527344 105.21875 49.566406 109.816406 52.574219 C 112.097656 60.777344 121.4375 64.421875 128.351563 66.550781 C 134.628906 75.726563 133.546875 86.257813 120.984375 81.054688 C 120.148438 81.285156 119.386719 81.589844 119.617188 82.652344 C 134.472656 90.597656 140.707031 84.007813 138.078125 71.921875 "/>
<path style=" stroke:none;fill-rule:nonzero;fill:rgb(0%,0%,0%);fill-opacity:1;" d="M 156.660156 137.796875 C 160.550781 136.722656 164.355469 134.113281 167.464844 131.335938 C 167.996094 132.320313 168.085938 133.535156 169.605469 133.839844 C 171.191406 132.863281 171.171875 130.910156 171.878906 129.078125 C 172.050781 128.628906 170.59375 126.835938 169.992188 127.003906 C 164.773438 128.464844 161.144531 134.675781 156.253906 136.972656 C 155.632813 137.261719 156.085938 137.957031 156.660156 137.796875 "/>
<path style=" stroke:none;fill-rule:nonzero;fill:rgb(0%,0%,0%);fill-opacity:1;" d="M 182.273438 132.703125 C 185.207031 135.636719 189.234375 137.671875 193.230469 138.097656 C 194.558594 138.238281 195.03125 136.972656 193.714844 136.457031 C 190.632813 135.25 185.664063 131.78125 185.132813 131.128906 C 183.332031 128.917969 181.894531 126.226563 178.703125 127.765625 C 177.414063 129.890625 177.855469 131.933594 178.992188 133.683594 C 180.132813 133.832031 181.664063 133.234375 182.273438 132.703125 "/>
<path style=" stroke:none;fill-rule:nonzero;fill:rgb(0%,0%,0%);fill-opacity:1;" d="M 155.160156 156.890625 C 160.320313 153.597656 166.542969 157.523438 169.605469 158.84375 C 175.421875 161.359375 180.464844 155.527344 185.769531 154.042969 C 189.226563 152.921875 192.402344 154.621094 195.390625 156.09375 C 204.730469 160.6875 215.367188 160.394531 220.121094 158.773438 C 222.253906 158.046875 223.527344 160.632813 225.296875 162.019531 C 225.75 162.378906 227.226563 160.996094 226.9375 160.582031 C 225.027344 157.839844 221.714844 155.941406 222.289063 152.652344 C 222.378906 152.140625 221.3125 150.988281 220.554688 152.144531 C 220.019531 153.207031 219.488281 154.953125 220.554688 155.941406 C 208.871094 157.890625 203.308594 156.738281 191.519531 150.46875 C 181.449219 145.109375 162.050781 149.925781 153.851563 155.027344 C 146.773438 159.429688 139.167969 158.082031 130.855469 156.472656 C 126.925781 155.699219 129.628906 153.851563 130.058594 151.882813 C 130.617188 149.339844 128.273438 149.34375 127.589844 149.941406 C 125.929688 154.46875 125.359375 155.65625 121.65625 157.871094 C 121.035156 158.246094 121.859375 159.921875 122.53125 159.773438 C 124.0625 159.441406 125.503906 158.140625 126.984375 157.613281 C 136.1875 161.351563 146.890625 162.164063 155.160156 156.890625 "/>
<path style=" stroke:none;fill-rule:nonzero;fill:rgb(0%,0%,0%);fill-opacity:1;" d="M 172.347656 252.539063 C 172.980469 250.257813 173.597656 248.296875 172.402344 245.640625 C 170.917969 247.203125 170.773438 249.578125 170.347656 252.007813 C 170.300781 252.265625 172.257813 252.863281 172.347656 252.539063 "/>
<path style=" stroke:none;fill-rule:nonzero;fill:rgb(0%,0%,0%);fill-opacity:1;" d="M 317.675781 299.71875 C 315.113281 301.808594 313.105469 301.921875 311.574219 299.171875 C 310.734375 297.660156 309.046875 296.25 308.761719 299.480469 C 308.566406 301.675781 313.765625 308.570313 319.515625 301.386719 C 319.746094 298.140625 318.914063 298.707031 317.675781 299.71875 "/>
<path style=" stroke:none;fill-rule:nonzero;fill:rgb(0%,0%,0%);fill-opacity:1;" d="M 305.007813 328.195313 C 304.25 328.804688 304.25 330.171875 303.945313 331.234375 C 305.007813 334.042969 307.710938 334.652344 309.640625 334.804688 C 310.78125 334.042969 310.78125 332.863281 309.945313 331.765625 C 306.605469 332.753906 305.867188 329.734375 305.007813 328.195313 "/>
<path style=" stroke:none;fill-rule:nonzero;fill:rgb(0%,0%,0%);fill-opacity:1;" d="M 317.3125 368.371094 C 316.855469 368.828125 316.019531 369.664063 316.25 370.574219 C 318.863281 373.363281 325.179688 374.324219 330.679688 369.738281 C 331.855469 368.679688 333.1875 365.789063 332.351563 363.511719 C 324.867188 369.40625 325.933594 371.152344 317.3125 368.371094 "/>
<path style=" stroke:none;fill-rule:nonzero;fill:rgb(0%,0%,0%);fill-opacity:1;" d="M 176.804688 525.359375 C 178.707031 526.558594 178.585938 529.519531 180.859375 529.945313 C 181.039063 529.976563 182.664063 526.859375 182.484375 526.117188 C 182.011719 524.15625 179.472656 522.324219 178.019531 521.941406 C 174.128906 520.925781 171.050781 515.433594 168.300781 512.753906 C 168.453125 517.992188 171.867188 522.777344 176.804688 525.359375 "/>
<path style=" stroke:none;fill-rule:nonzero;fill:rgb(0%,0%,0%);fill-opacity:1;" d="M 152.433594 593.035156 C 148.40625 592.28125 143.734375 591.695313 139.285156 592.347656 C 132.679688 591.589844 128.273438 585.058594 122.652344 582.246094 C 122.160156 583.347656 122.882813 584.222656 123.8125 585.09375 C 129.519531 590.453125 137.875 598.277344 151.3125 594.710938 C 152.648438 594.355469 154.695313 593.460938 152.433594 593.035156 "/>
<path style=" stroke:none;fill-rule:nonzero;fill:rgb(0%,0%,0%);fill-opacity:1;" d="M 338.652344 612.324219 C 331.953125 616.792969 322.726563 614.128906 318.761719 606.273438 C 317.648438 604.0625 315.855469 604.003906 315.941406 607.09375 C 316.097656 612.777344 330.46875 625.921875 340.25 613.386719 C 339.871094 612.777344 339.1875 612.550781 338.652344 612.324219 "/>
</g>
</svg>
