<?xml version="1.0" encoding="UTF-8"?>
<svg xmlns="http://www.w3.org/2000/svg" xmlns:xlink="http://www.w3.org/1999/xlink" width="430pt" height="674pt" viewBox="0 0 430 674" version="1.1">
<g id="surface1">
<path style=" stroke:none;fill-rule:nonzero;fill:rgb(0%,0%,0%);fill-opacity:1;" d="M 428.820313 140.023438 C 423.539063 135.34375 412.6875 137.386719 405.621094 135.929688 C 401.136719 135.113281 400.570313 138.058594 399.027344 140.621094 C 397.738281 144.355469 393.082031 143.8125 392.003906 141.425781 C 388.640625 134.605469 372.09375 132.160156 364.6875 135.667969 C 362.996094 141.648438 362.605469 149.445313 364.164063 155.941406 C 368.066406 164.648438 379.503906 154.511719 384.699219 162.179688 C 385.609375 170.238281 384.308594 180.742188 383.140625 184.664063 C 376.644531 192.460938 377.8125 204.546875 375.992188 214.296875 C 372.355469 214.164063 368.324219 214.425781 364.6875 215.203125 C 355.980469 217.285156 347.921875 224.300781 345.710938 232.617188 C 343.113281 238.988281 344.933594 247.046875 342.59375 253.542969 C 340.644531 254.191406 339.34375 255.101563 339.214844 257.3125 C 341.554688 260.949219 337.785156 262.640625 335.703125 265.109375 C 334.292969 264.8125 333.519531 263.496094 332.675781 262.277344 C 332.046875 261.363281 329.617188 261.210938 328.714844 262.566406 C 327.945313 263.503906 327.164063 264.476563 326.738281 265.757813 C 324.660156 266.796875 323.878906 263.808594 322.96875 262.640625 C 310.753906 255.492188 296.976563 246.003906 292.949219 232.617188 C 292.039063 230.800781 293.859375 227.421875 291.390625 226.382813 C 288.269531 225.601563 282.941406 225.992188 285.539063 220.792969 C 285 219.40625 284.632813 217.152344 282.421875 217.671875 C 280.863281 217.671875 278.78125 220.792969 278.003906 218.582031 C 281.253906 215.984375 278.261719 213.253906 276.832031 210.785156 C 264.226563 200 241.570313 188.972656 229.867188 189.035156 C 228.8125 189.082031 227.839844 189.015625 227.449219 187.78125 C 237.324219 180.375 243.042969 170.238281 246.8125 159.0625 C 253.441406 152.304688 264.355469 146.976563 264.878906 136.320313 C 265.917969 136.1875 267.347656 137.855469 269.839844 136.890625 C 278.035156 134.824219 267.523438 124.03125 270.855469 117.605469 C 272.546875 116.433594 275.144531 117.476563 276.441406 115.394531 C 277.742188 111.234375 273.453125 108.765625 270.59375 106.296875 C 267.214844 103.050781 273.324219 97.851563 268.386719 94.859375 C 280.730469 92.78125 295.15625 93.5625 303.863281 84.464844 C 305.035156 81.863281 303.34375 79.527344 301.785156 77.707031 C 292.039063 68.089844 277.09375 70.039063 265.527344 64.191406 C 257.46875 44.046875 239.925781 27.28125 220.691406 17.144531 C 203.796875 10.90625 188.070313 1.679688 168.835938 0.898438 C 125.949219 5.96875 94.757813 47.035156 83.714844 84.464844 C 83.0625 87.453125 83.453125 89.230469 85.53125 90.703125 C 86.808594 91.503906 89.429688 92.003906 89.039063 94.210938 C 83.582031 99.929688 77.476563 104.996094 69.675781 106.296875 C 68.507813 110.066406 70.066406 113.703125 73.054688 115.65625 C 76.046875 116.953125 82.585938 114.570313 80.855469 118.515625 C 75.527344 123.453125 73.835938 131.121094 75.65625 138.527344 C 76.175781 143.464844 72.148438 147.753906 73.054688 152.824219 C 74.226563 155.554688 76.957031 155.292969 79.292969 155.683594 C 81.765625 155.8125 83.0625 151.652344 85.273438 153.472656 C 85.144531 161.660156 90.992188 167.898438 96.839844 173.097656 C 98.269531 175.175781 101.777344 174.785156 102.167969 171.796875 C 109.316406 176.347656 119.0625 176.734375 124.519531 183.363281 C 125.820313 185.964844 122.050781 186.09375 120.492188 186.871094 C 117.890625 189.34375 112.433594 186.222656 110.875 189.992188 C 96.578125 197.789063 81.113281 204.546875 68.378906 214.554688 C 51.222656 227.160156 36.539063 242.757813 30.429688 262.640625 C 29 267.058594 35.367188 265.238281 34.71875 269.136719 C 33.679688 270.957031 31.46875 271.476563 29.390625 271.605469 C 27.960938 274.855469 31.988281 274.207031 31.988281 276.933594 C 37.1875 283.304688 25.882813 282.394531 28.21875 288.761719 C 35.238281 295.777344 34.71875 307.867188 31.339844 316.832031 C 29.390625 328.007813 36.277344 336.71875 41.347656 344.902344 C 51.351563 358.550781 64.738281 376.484375 85.273438 374.273438 C 89.429688 379.992188 97.230469 380.773438 103.988281 382.332031 C 105.9375 385.710938 106.847656 390 108.664063 393.640625 C 103.46875 428.597656 89.429688 460.046875 83.453125 494.617188 C 83.972656 498.90625 88.652344 500.074219 91.769531 501.246094 C 90.339844 502.804688 88.261719 503.195313 86.183594 503.453125 C 85.011719 504.234375 84.363281 505.796875 84.621094 507.484375 C 85.144531 509.304688 87.222656 510.214844 88.652344 511.253906 C 93.199219 513.070313 88 517.492188 87.480469 520.609375 C 86.050781 528.148438 81.632813 534.777344 80.335938 542.054688 C 78.644531 557.648438 73.835938 572.074219 71.238281 587.28125 C 69.546875 594.945313 62.53125 588.449219 58.109375 590.398438 C 54.863281 596.898438 51.351563 603.65625 52.78125 611.582031 C 53.671875 614.375 54.863281 617.949219 58.109375 618.46875 C 71.105469 618.988281 83.324219 623.277344 95.929688 625.617188 C 107.496094 629.386719 111.523438 641.214844 120.492188 647.839844 C 121.140625 648.921875 122.007813 650.222656 121.789063 651.867188 C 121.660156 656.027344 118.671875 658.628906 116.203125 661.484375 C 110.875 667.335938 101.648438 668.113281 93.980469 666.164063 C 64.089844 659.535156 30.039063 684.097656 7.296875 659.015625 C 1.351563 648.316406 5.164063 638.890625 11.648438 637 C 16.363281 635.625 22.597656 637.644531 27.308594 634.972656 C 31.339844 634.453125 35.367188 628.21875 39.398438 633.15625 C 41.867188 634.453125 41.734375 630.945313 43.425781 630.035156 C 46.675781 630.296875 48.492188 634.195313 51.222656 634.972656 C 54.472656 633.15625 49.144531 630.945313 50.703125 628.476563 C 52.261719 629.257813 53.042969 629.777344 54.34375 631.335938 C 56.550781 632.113281 56.550781 637.832031 60.058594 635.625 C 59.929688 629.515625 56.941406 623.539063 54.082031 618.46875 C 52.914063 618.46875 52.652344 618.597656 51.871094 619.378906 C 52.78125 622.238281 54.730469 624.578125 55.382813 627.566406 C 53.433594 628.21875 52.003906 625.617188 50.3125 624.707031 C 47.972656 623.667969 48.882813 618.988281 46.023438 619.769531 C 44.855469 621.847656 45.375 624.839844 46.285156 626.917969 C 44.59375 628.738281 42.644531 624.839844 41.347656 626.65625 C 40.828125 631.335938 37.058594 627.4375 34.457031 628.21875 C 27.691406 632.882813 18.9375 632.628906 10.917969 634.125 C -2.730469 636.671875 -6.164063 662.011719 16.914063 670.582031 C 37.96875 678.902344 59.019531 669.542969 80.59375 669.023438 C 92.421875 668.375 105.027344 673.574219 114.902344 666.816406 C 120.753906 662.265625 125.171875 656.675781 124.519531 649.011719 C 129.070313 649.269531 130.757813 645.5 132.316406 642.253906 C 135.308594 637.054688 134.265625 629.386719 139.207031 626.007813 C 143.496094 614.179688 147.914063 602.484375 145.183594 588.578125 C 147.914063 579.871094 149.730469 571.425781 152.332031 562.71875 C 152.980469 558.429688 156.488281 554.660156 156.101563 549.589844 C 155.582031 548.8125 154.605469 547.769531 152.980469 547.121094 C 145.054688 542.183594 158.308594 544.78125 158.828125 540.882813 C 160.519531 536.59375 156.359375 534.257813 153.890625 531.785156 C 156.488281 529.316406 160.777344 534.257813 161.6875 530.226563 C 166.628906 505.015625 177.023438 482.789063 182.222656 457.578125 C 183.78125 454.589844 184.5625 450.171875 188.199219 449.132813 C 189.585938 449.328125 190.5625 450.953125 191.058594 452.902344 C 196.257813 469.015625 200.808594 485.519531 203.144531 502.804688 C 205.484375 513.722656 210.164063 523.730469 210.035156 535.554688 C 210.035156 538.675781 213.414063 536.726563 214.714844 538.675781 C 212.503906 540.363281 208.992188 541.402344 207.175781 543.613281 C 204.703125 551.800781 217.570313 547.640625 216.53125 555.4375 C 213.023438 568.695313 218.351563 581.429688 222.769531 592.609375 C 224.589844 597.675781 218.742188 597.027344 217.183594 600.144531 C 216.792969 610.542969 224.71875 620.03125 228.488281 629.125 C 230.957031 632.246094 233.945313 635.625 238.753906 633.804688 C 248.761719 626.65625 259.289063 618.988281 271.765625 616.261719 C 280.34375 616.910156 292.6875 622.5 299.574219 615.089844 C 301.136719 606.773438 300.226563 597.285156 293.597656 591.699219 C 292.167969 581.820313 286.96875 573.242188 283.589844 564.535156 C 281.640625 557.128906 283.851563 547.902344 281.773438 540.492188 C 281.253906 537.503906 277.871094 538.675781 276.183594 537.113281 C 275.402344 535.164063 278.003906 535.164063 278.652344 533.996094 C 281.253906 528.925781 273.585938 529.96875 273.0625 526.199219 C 277.222656 523.859375 278.394531 518.53125 277.742188 513.332031 C 273.453125 495.789063 272.546875 476.164063 267.734375 458.488281 C 270.464844 456.671875 273.84375 458.75 277.351563 457.1875 C 293.273438 452.1875 292.191406 441.3125 293.339844 412.613281 C 293.078125 400.917969 295.546875 387.402344 291.128906 377.132813 C 287.230469 368.6875 278.132813 363.230469 269.035156 363.097656 C 266.695313 357.769531 266.828125 351.011719 262.148438 347.113281 C 262.148438 343.085938 263.96875 339.707031 267.734375 338.144531 C 269.554688 335.285156 261.886719 332.816406 267.734375 331.90625 C 269.945313 320.472656 265.136719 307.734375 265.917969 295.390625 C 265.9375 293.914063 267.085938 292.789063 268.386719 292.53125 C 280.082031 303.1875 293.988281 308.253906 306.074219 317.871094 C 309.324219 319.5625 312.832031 320.472656 316.339844 318.78125 C 318.808594 323.070313 324.269531 322.160156 327.90625 323.070313 C 340.902344 320.992188 353.121094 314.363281 361.957031 304.746094 C 364.554688 305.136719 365.855469 302.40625 368.453125 301.628906 C 371.964844 300.71875 371.183594 297.597656 370.402344 294.738281 C 371.183594 293.699219 372.222656 293.308594 373.523438 293.441406 C 377.8125 291.492188 375.601563 285.121094 376.644531 280.964844 C 375.601563 276.546875 378.722656 271.867188 376.253906 267.578125 C 376.644531 267.058594 377.292969 267.316406 377.8125 267.316406 C 381.0625 270.4375 385.175781 272.257813 389.378906 271.996094 C 397.046875 269.398438 397.632813 260.234375 400.230469 253.738281 C 408.023438 255.75 411.386719 248.320313 408.09375 242.625 C 409.78125 241.457031 412.121094 239.378906 411.472656 236.777344 C 408.480469 234.308594 410.820313 231.839844 411.472656 228.980469 C 411.601563 225.730469 409.390625 223.261719 406.792969 221.441406 C 407.441406 210.394531 410.300781 194.929688 404.324219 185.3125 C 402.394531 180.203125 399.515625 169.328125 404.324219 162.441406 C 411.992188 164.910156 421.480469 166.339844 428.367188 161.269531 C 429.664063 155.03125 430.664063 142.1875 428.820313 140.023438 Z M 262.148438 297.597656 C 224.328125 293.570313 187.160156 295.257813 150.121094 299.679688 C 138.6875 301.238281 126.859375 301.886719 115.164063 302.796875 C 116.203125 292.921875 118.671875 281.484375 115.554688 271.605469 C 119.582031 269.917969 124.910156 270.046875 129.589844 269.136719 C 159.351563 263.808594 190.019531 261.730469 220.691406 260.171875 C 231.089844 260.820313 242.914063 261.988281 253.699219 263.808594 C 257.730469 273.296875 265.527344 282.652344 262.148438 293.441406 C 262.148438 294.871094 263.578125 296.429688 262.148438 297.597656 Z M 208.214844 343.34375 C 211.335938 344.382813 214.0625 343.214844 215.363281 340.226563 C 218.871094 338.277344 221.988281 341.136719 225.367188 341.523438 C 227.710938 345.554688 224.980469 355.691406 224.328125 356.210938 C 219.519531 356.859375 215.363281 354.910156 210.945313 355.5625 C 209.773438 360.109375 210.554688 365.699219 210.292969 370.246094 C 206.003906 370.246094 201.847656 370.246094 197.558594 370.246094 C 197.382813 369.292969 197.039063 368.167969 198.207031 368.035156 C 199.765625 368.945313 202.496094 368.945313 204.054688 368.035156 C 204.835938 367.515625 205.226563 366.738281 205.09375 365.828125 C 203.40625 363.097656 199.507813 366.089844 197.816406 363.359375 C 197.6875 356.992188 204.1875 364.398438 206.914063 360.238281 C 207.046875 356.082031 201.328125 359.328125 199.765625 356.210938 C 199.898438 353.871094 199.765625 351.964844 196.90625 351.53125 C 195.21875 351.660156 195.347656 353.742188 193.527344 354.261719 C 189.5 354.652344 186.511719 352.703125 183.261719 351.53125 C 182.09375 346.074219 182.351563 339.316406 184.820313 334.378906 C 188.71875 332.816406 200.417969 335.15625 201.976563 335.546875 C 201.195313 339.835938 205.746094 341.65625 208.214844 343.34375 Z M 145.445313 335.546875 C 136.21875 338.277344 127.507813 341.914063 117.761719 343.085938 C 115.421875 342.566406 114.121094 340.617188 113.992188 338.40625 C 113.605469 332.949219 115.554688 329.308594 117.113281 324.628906 C 125.691406 321.640625 134.136719 320.34375 143.625 320.34375 C 145.183594 320.449219 145.941406 321.640625 146.09375 323.460938 C 145.964844 327.488281 150.773438 333.078125 145.445313 335.546875 Z M 89.039063 89.144531 C 83.886719 88.039063 88.910156 81.996094 89.300781 78.617188 C 101.386719 45.996094 124.648438 15.195313 161.949219 5.578125 C 164.351563 5.082031 166.757813 4.667969 169.226563 4.410156 C 193.269531 7.917969 214.582031 16.886719 234.335938 30.269531 C 246.554688 40.277344 257.46875 52.234375 262.148438 66.398438 C 271.765625 73.679688 286.0625 71.339844 295.808594 77.96875 C 298.375 79.347656 303.492188 81.132813 300.226563 83.945313 C 291 88.882813 279.953125 89.664063 269.035156 90.441406 C 231.738281 93.300781 193.398438 92.910156 155.710938 92.003906 C 135.828125 91.09375 108.925781 92.910156 89.039063 89.144531 Z M 96.1875 165.558594 C 95.148438 168.550781 99.566406 167.898438 99.046875 170.238281 C 94.371094 167.769531 90.210938 162.960938 88.390625 157.761719 C 88.261719 155.292969 89.039063 151.914063 86.574219 150.613281 C 82.414063 146.976563 78.90625 156.074219 75.265625 151.003906 C 76.957031 147.234375 78.515625 143.464844 78.773438 139.046875 C 76.046875 131.511719 79.164063 124.363281 83.714844 119.164063 C 84.535156 117.714844 86.140625 114.90625 82.152344 113.574219 C 78.773438 111.886719 72.277344 114.746094 71.496094 109.15625 C 80.335938 107.335938 86.574219 100.578125 92.160156 93.820313 C 141.933594 96.03125 193.398438 97.722656 244.34375 96.03125 C 250.320313 95.25 258.117188 95.25 264.878906 94.859375 C 264.097656 97.199219 266.566406 97.070313 267.476563 98.238281 C 267.867188 101.230469 264.355469 103.179688 266.4375 106.039063 C 268.257813 109.027344 272.285156 110.847656 273.324219 113.574219 C 271.113281 113.445313 268.644531 114.613281 267.996094 116.695313 C 266.4375 121.503906 267.996094 126.703125 270.203125 130.730469 C 270.203125 132.289063 270.726563 133.980469 268.644531 134.109375 C 262.019531 135.410156 264.488281 127.09375 258.378906 126.3125 C 253.3125 125.140625 251.621094 130.210938 249.671875 133.460938 C 247.980469 138.007813 247.980469 142.6875 243.042969 144.765625 C 243.433594 137.617188 232.90625 134.890625 238.105469 126.570313 C 239.160156 125.238281 237.050781 123.210938 235.894531 123.453125 C 232.714844 123.269531 230.425781 125.566406 227.867188 126.699219 C 223.496094 128.632813 223.054688 127.589844 225.128906 123.582031 C 226.144531 121.621094 227.839844 119.847656 228.746094 117.863281 C 229.398438 114.613281 231.476563 110.71875 229.398438 107.335938 C 227.320313 103.308594 223.03125 101.488281 218.742188 100.058594 C 209.253906 98.628906 205.226563 120.074219 195.738281 106.949219 C 193.660156 109.15625 190.28125 111.757813 186.640625 112.015625 C 186.285156 104.769531 180.179688 98.289063 171.304688 102.917969 C 168.707031 107.207031 165.457031 112.925781 159.480469 113.835938 C 156.554688 114.03125 153.503906 111.757813 151.421875 109.417969 C 149.34375 110.976563 147.003906 114.226563 143.625 113.835938 C 142.714844 110.328125 142.910156 107.128906 139.597656 104.738281 C 134.261719 101.492188 129.027344 105.257813 126.753906 110.378906 C 123.710938 117.25 123.980469 125.722656 124.910156 133.460938 C 125.300781 139.308594 127.378906 145.027344 126.078125 150.613281 C 124.261719 150.226563 121.402344 149.835938 120.492188 152.175781 C 118.933594 155.8125 124 157.890625 120.882813 159.972656 C 113.214844 159.582031 104.246094 148.144531 97.488281 158.152344 C 96.058594 160.621094 98.917969 164 96.1875 165.558594 Z M 105.546875 169.976563 C 102.167969 167.507813 98.789063 165.039063 100.21875 159.710938 C 102.167969 156.59375 106.066406 157.761719 108.925781 158.410156 C 113.214844 161.011719 117.632813 165.039063 122.960938 163.089844 C 125.949219 161.789063 125.039063 157.890625 123.609375 154.121094 C 125.558594 154.382813 128.027344 154.382813 129.199219 152.5625 C 130.238281 139.179688 124.390625 124.363281 129.589844 110.976563 C 132.621094 104.570313 139.984375 106.558594 140.117188 111.625 C 139.285156 117.433594 144.886719 120.246094 151.421875 114.097656 C 154.152344 115.914063 158.441406 118.644531 162.597656 116.695313 C 167.496094 115.597656 170.007813 109.980469 173.074219 107.050781 C 175.460938 104.777344 180.679688 104.203125 182.613281 108.507813 C 182.222656 111.105469 183.132813 113.1875 184.171875 114.746094 C 188.199219 117.214844 192.878906 113.964844 195.738281 112.015625 C 197.816406 113.964844 201.195313 115.65625 204.703125 114.484375 C 211.59375 111.886719 215.101563 97.851563 224.328125 106.6875 C 225.109375 107.726563 225.890625 108.378906 226.539063 109.417969 C 227.96875 117.214844 220.429688 120.984375 220.949219 128.519531 C 221.988281 130.988281 225.367188 132.160156 227.839844 130.730469 C 230.308594 130.078125 232.128906 127.609375 234.726563 127.222656 C 230.046875 136.058594 240.183594 138.527344 239.925781 146.585938 C 240.703125 148.40625 243.304688 148.40625 244.992188 147.886719 C 252.921875 144.507813 249.671875 134.109375 256.171875 130.078125 C 260.589844 129.949219 259.808594 134.238281 261.496094 136.96875 C 261.238281 149.054688 245.644531 149.964844 242.523438 160.882813 C 239.144531 175.828125 224.980469 187.523438 210.945313 193.371094 C 202.496094 199.21875 195.738281 210.65625 182.613281 207.40625 C 175.464844 206.628906 168.316406 203.507813 163.898438 198.050781 C 155.191406 195.839844 145.835938 195.320313 138.035156 191.160156 C 127.640625 183.105469 119.84375 172.058594 105.546875 169.976563 Z M 125.820313 191.160156 C 127.964844 190.921875 130.238281 191.03125 132.707031 191.550781 C 141.15625 198.699219 152.203125 199.347656 162.597656 201.816406 C 167.925781 208.835938 177.542969 211.175781 186.640625 211.824219 C 191.644531 212.042969 203.535156 206.757813 208.214844 200.257813 C 211.335938 197.921875 214.453125 195.710938 218.089844 194.019531 C 227.710938 192.871094 237.84375 190.773438 246.8125 196.75 C 248.632813 197.789063 251.101563 199.089844 253.050781 199.867188 C 251.882813 205.066406 252.660156 211.824219 252.402344 217.671875 C 227.058594 216.632813 198.597656 217.414063 172.34375 215.855469 C 155.0625 218.714844 135.046875 219.621094 117.761719 217.414063 C 116.699219 217.347656 113.34375 217.78125 112.695313 215.203125 C 111.785156 208.316406 109.964844 201.949219 107.105469 195.839844 C 112.433594 191.941406 119.191406 191.8125 125.820313 191.160156 Z M 55.382813 229.890625 C 59.800781 225.859375 65.257813 221.570313 69.675781 218.0625 C 72.148438 218.972656 73.316406 223.261719 75.65625 224.820313 C 91.769531 233.007813 94.5 248.214844 104.636719 261.730469 C 105.113281 263.699219 106.324219 265.367188 106.457031 267.578125 C 102.167969 271.476563 99.828125 277.195313 96.449219 282.003906 C 83.714844 270.828125 67.859375 263.027344 50.964844 259.78125 C 46.285156 258.222656 41.214844 255.621094 37.835938 252.894531 C 42.386719 244.703125 49.402344 237.167969 55.382813 229.890625 Z M 53.171875 354.261719 C 49.273438 351.792969 47.714844 348.023438 44.984375 344.644531 C 38.617188 335.9375 31.988281 325.671875 35.628906 313.714844 C 38.226563 313.195313 39.007813 310.59375 41.347656 309.683594 C 52.394531 304.746094 65.257813 299.546875 78.125 303.445313 C 82.023438 303.835938 86.832031 301.367188 90.601563 303.1875 C 92.441406 303.554688 92.117188 305.070313 89.953125 304.746094 C 84.882813 305.394531 78.644531 304.226563 75.65625 308.515625 C 75.265625 311.246094 77.863281 313.84375 80.335938 314.363281 C 64.867188 321.511719 56.550781 337.886719 53.171875 354.261719 Z M 79.945313 310.335938 C 82.566406 307.449219 89.070313 309.210938 92.253906 307.507813 C 93.804688 306.679688 95.257813 303.988281 93.71875 301.628906 C 92.160156 301.109375 94.371094 300.066406 94.890625 300.066406 C 98.65625 290.191406 100.738281 277.84375 108.925781 271.085938 C 110.09375 270.695313 111.609375 270.523438 111.785156 271.347656 C 116.722656 284.601563 109.054688 297.210938 111.523438 310.59375 C 104.765625 310.984375 102.167969 317.351563 99.957031 322.550781 C 99.046875 320.34375 96.320313 318.261719 93.71875 318.132813 C 93.332031 314.882813 91.25 312.152344 88.132813 311.246094 C 85.144531 311.632813 82.671875 310.59375 79.945313 310.335938 Z M 99.308594 378.304688 C 94.371094 376.875 89.953125 375.574219 86.574219 371.15625 C 83.582031 359.851563 81.632813 342.433594 91.769531 335.027344 C 100.203125 334.089844 102.085938 326.257813 105.597656 320.308594 C 110.820313 311.449219 117.421875 312.257813 113.992188 322.8125 C 111.132813 328.789063 108.796875 337.105469 112.433594 343.34375 C 119.320313 350.234375 128.9375 344.515625 136.734375 342.824219 C 139.550781 342.109375 137.710938 345.144531 135.4375 346.855469 C 133.355469 348.671875 130.238281 350.753906 130.238281 354.261719 C 131.796875 358.808594 135.566406 364.269531 131.796875 369.335938 C 125.171875 379.863281 110.851563 380.339844 99.308594 378.304688 Z M 107.753906 382.980469 C 111.652344 382.332031 116.203125 381.941406 120.230469 380.773438 C 128.289063 391.691406 131.796875 405.464844 139.597656 417.292969 C 141.414063 421.710938 143.234375 427.6875 142.066406 433.535156 C 138.164063 435.617188 134.265625 438.734375 129.589844 437.566406 C 126.988281 435.355469 125.691406 432.628906 124.519531 429.769531 C 128.417969 429.636719 132.839844 429.378906 134.917969 426 C 133.878906 420.800781 129.804688 425.824219 127.121094 425.738281 C 124.128906 426.257813 121.921875 425.347656 121.789063 422.359375 C 121.660156 420.539063 124.390625 421.96875 125.558594 421.0625 C 127.378906 420.28125 129.71875 418.851563 130.238281 416.640625 C 128.679688 412.742188 125.558594 417.941406 122.699219 417.683594 C 120.492188 417.292969 119.320313 416.121094 118.933594 413.914063 C 122.050781 413.652344 126.339844 412.742188 127.640625 409.492188 C 128.027344 408.714844 127.121094 408.453125 126.730469 407.933594 C 123.742188 408.324219 121.011719 410.402344 117.761719 409.234375 C 117.113281 407.933594 116.203125 406.765625 116.203125 405.203125 C 119.191406 404.6875 122.050781 403.386719 124 400.785156 C 124.605469 400.265625 124.78125 397.929688 122.960938 398.316406 C 120.363281 399.097656 118.410156 401.566406 115.164063 401.046875 C 113.992188 399.355469 113.214844 398.1875 113.34375 395.847656 C 116.074219 396.238281 119.0625 395.460938 121.140625 393.25 C 121.269531 392.339844 120.882813 391.691406 120.230469 391.171875 C 117.242188 391.558594 113.34375 392.988281 110.875 391.171875 C 112.042969 389.738281 115.03125 390 116.722656 388.570313 C 118.28125 387.660156 118.152344 385.453125 116.203125 385.191406 C 113.992188 386.511719 111.394531 385.84375 108.925781 386.101563 C 108.144531 385.105469 107.625 384.28125 107.753906 382.980469 Z M 128.027344 643.160156 C 126.859375 645.109375 124.390625 646.539063 122.050781 644.980469 C 114.253906 637.964844 108.144531 626.265625 97.488281 622.886719 C 84.621094 619.769531 72.015625 616.261719 58.5 615.089844 C 55.121094 611.84375 55.773438 604.824219 57.460938 600.664063 C 58.761719 598.324219 59.152344 593.386719 62.53125 593.257813 C 64.738281 595.597656 68.636719 594.6875 71.238281 593.90625 C 88.132813 593.777344 103.335938 597.417969 115.554688 607.292969 C 122.179688 611.84375 129.589844 615.871094 133.878906 622.5 C 133.746094 629.777344 130.238281 636.40625 128.027344 643.160156 Z M 293.597656 595.988281 C 296.457031 600.664063 297.367188 607.164063 296.457031 613.140625 C 293.597656 616.519531 287.359375 614.699219 283.589844 614.699219 C 265.398438 609.113281 251.101563 620.808594 237.453125 630.296875 C 233.167969 631.855469 232.257813 627.308594 230.308594 625.097656 C 226.929688 617.039063 221.46875 610.800781 220.949219 601.707031 C 223.679688 600.925781 234.855469 595.46875 238.363281 594.816406 C 253.570313 585.070313 272.933594 592.089844 289.570313 593.519531 C 291.605469 593.582031 293.230469 594.773438 293.597656 595.988281 Z M 273.972656 512.160156 C 274.625 515.539063 274.234375 519.570313 272.414063 522.171875 C 270.984375 524.769531 264.878906 522.949219 266.828125 527.367188 C 269.035156 529.058594 272.285156 530.355469 274.234375 532.4375 C 273.324219 533.996094 271.113281 535.296875 272.414063 537.765625 C 273.714844 539.714844 275.402344 541.402344 278.003906 541.792969 C 279.433594 550.242188 278.914063 559.339844 280.863281 567.65625 C 284.632813 574.804688 287.359375 581.042969 289.308594 589.230469 C 274.882813 589.230469 262.148438 583.769531 247.464844 586.628906 C 240.703125 590.007813 233.296875 592.476563 226.539063 595.46875 C 226.277344 591.699219 224.71875 588.1875 223.160156 584.808594 C 221.46875 576.234375 217.183594 567.007813 219.652344 558.558594 C 220.820313 555.699219 220.300781 552.96875 219.132813 550.242188 C 217.183594 547.253906 213.414063 547.253906 210.683594 545.820313 C 212.113281 542.183594 221.210938 543.222656 218.480469 537.113281 C 217.3125 535.6875 215.492188 534.777344 213.804688 534.257813 C 212.113281 518.53125 206.003906 504.625 204.054688 489.03125 C 201.714844 475.382813 198.078125 461.996094 192.878906 449.78125 C 191.191406 448.222656 190.28125 443.804688 186.640625 445.101563 C 176.765625 452.121094 177.675781 466.285156 173.253906 476.941406 C 169.226563 494.617188 161.429688 509.953125 158.308594 528.019531 C 154.410156 528.019531 150.640625 526.199219 148.953125 530.226563 C 148.5625 535.164063 156.359375 534.777344 155.191406 539.585938 C 151.941406 539.714844 148.953125 540.363281 146.742188 542.703125 C 145.726563 543.871094 146.375 546.90625 147.945313 547.722656 C 148.53125 548.382813 151.898438 548.636719 152.332031 550.242188 C 152.589844 554.921875 149.082031 558.816406 148.5625 563.628906 C 145.703125 570.902344 144.273438 579.351563 141.414063 587.019531 C 143.496094 598.714844 140.765625 610.410156 137.644531 620.679688 C 134.527344 618.597656 132.707031 614.960938 129.199219 612.621094 C 113.085938 600.277344 96.710938 589.230469 74.355469 590.398438 C 75.003906 577.664063 80.203125 567.007813 81.894531 554.269531 C 83.191406 545.5625 84.492188 536.984375 88.390625 529.316406 C 87.742188 521.648438 101.386719 511.253906 88.390625 507.09375 C 89.691406 505.796875 92.421875 505.40625 94.371094 504.363281 C 95.800781 503.453125 96.320313 501.636719 95.929688 500.335938 C 93.980469 495.789063 84.363281 498.257813 87.480469 491.238281 C 91.511719 468.757813 100.21875 450.042969 104.246094 427.558594 C 104.636719 427.6875 108.40625 410.015625 110.875 401.695313 C 117.371094 414.304688 117.371094 430.546875 127.640625 440.683594 C 132.621094 444.019531 139.597656 438.734375 144.792969 436.394531 C 147.523438 432.757813 147.78125 428.640625 146.09375 423.921875 C 140.375 409.625 132.707031 397.40625 126.078125 383.371094 C 119.320313 378.304688 130.238281 379.34375 131.796875 375.835938 C 135.695313 371.804688 138.554688 366.867188 136.476563 360.890625 C 136.21875 358.160156 132.707031 356.082031 134.917969 353.09375 C 138.425781 349.84375 142.324219 345.683594 142.714844 340.617188 C 146.355469 339.835938 149.214844 338.664063 151.03125 335.546875 C 151.292969 334.765625 151.421875 333.988281 151.683594 333.078125 C 161.167969 333.078125 181.789063 330.414063 181.703125 332.167969 C 179.492188 338.796875 176.632813 348.542969 181.3125 354.652344 C 185.730469 356.082031 190.410156 358.421875 195.089844 357.378906 C 195.867188 358.679688 194.960938 360.109375 194.4375 361.148438 C 181.183594 359.199219 167.667969 359.980469 153.890625 360.238281 C 148.304688 358.421875 141.933594 356.601563 136.476563 353.351563 C 135.308594 353.871094 135.4375 355.171875 135.4375 356.210938 C 143.496094 360.628906 152.203125 363.746094 160.777344 366.738281 C 171.304688 369.46875 182.09375 371.675781 192.878906 373.625 C 201.714844 373.105469 208.734375 373.363281 217.832031 373.363281 C 217.703125 378.304688 217.703125 384.152344 219.132813 388.960938 C 203.535156 391.039063 186.25 388.050781 170.785156 385.453125 C 160.257813 382.851563 149.992188 379.734375 139.855469 376.09375 C 138.425781 375.703125 137.777344 374.015625 136.085938 374.015625 C 135.4375 375.054688 134.65625 376.613281 135.828125 377.652344 C 150.902344 383.503906 165.976563 389.089844 182.613281 391.171875 C 184.820313 392.46875 191.839844 389.609375 189.109375 395.460938 C 190.800781 400.785156 188.589844 406.894531 189.761719 411.964844 C 189.371094 416.511719 191.058594 420.929688 194.699219 422.878906 C 197.039063 424.179688 200.15625 424.4375 202.886719 423.921875 C 211.722656 416.773438 210.554688 404.816406 210.945313 393.25 C 214.777344 394.078125 218.695313 392.179688 222.164063 393.289063 C 223.050781 393.570313 229.226563 393.878906 231.21875 400.136719 C 234.335938 414.171875 235.117188 428.988281 237.84375 443.152344 C 242.914063 451.339844 253.699219 455.5 263.707031 457.578125 C 269.425781 474.734375 268.644531 494.746094 273.972656 512.160156 Z M 198.855469 411.703125 C 196.519531 410.554688 194.960938 408.84375 192.878906 407.933594 C 192.339844 405.230469 193.285156 404.957031 194.6875 405.195313 C 196.648438 405.527344 199.507813 406.863281 200.417969 403.90625 C 199.246094 400.527344 191.578125 403.257813 192.878906 397.929688 C 195.089844 399.878906 198.46875 399.746094 201.328125 399.226563 C 202.496094 398.96875 203.144531 397.40625 202.496094 396.367188 C 200.675781 394.417969 193.335938 394.574219 192.824219 394.496094 C 192.261719 394.414063 192.359375 392.339844 192.878906 392.078125 C 197.6875 392.597656 202.757813 394.289063 207.175781 393.640625 C 206.394531 402.085938 208.734375 415.210938 200.027344 420.410156 C 197.382813 421.167969 193.917969 419.976563 193.789063 417.292969 C 193.789063 416.121094 193.789063 415.082031 193.789063 413.914063 C 194.570313 415.082031 196.410156 414.996094 197.816406 414.5625 C 198.597656 413.78125 198.988281 412.742188 198.855469 411.703125 Z M 246.8125 388.960938 C 239.535156 390.78125 230.566406 393.507813 223.421875 390.128906 C 221.46875 384.800781 220.5625 378.304688 221.859375 372.457031 C 224.71875 371.546875 228.746094 371.546875 232.128906 371.15625 C 237.453125 370.765625 242.523438 369.597656 247.203125 367.777344 C 249.542969 371.027344 250.453125 376.09375 249.933594 381.164063 C 249.542969 384.023438 251.230469 388.828125 246.8125 388.960938 Z M 289.828125 383.632813 C 290.78125 399.503906 289.839844 415.199219 288.613281 430.585938 C 287.839844 440.324219 288.648438 449.9375 277.742188 453.160156 C 265.265625 455.628906 252.921875 451.210938 243.691406 444.453125 C 245.511719 444.0625 249.023438 444.324219 249.28125 441.59375 C 246.421875 439.515625 240.964844 441.074219 239.925781 436.914063 C 239.015625 431.457031 244.214844 437.695313 246.8125 435.746094 C 247.980469 434.835938 248.761719 432.628906 246.554688 432.628906 C 243.824219 430.9375 237.976563 431.457031 238.753906 426.648438 C 240.964844 427.558594 245.121094 428.726563 247.722656 427.039063 C 249.28125 425.609375 248.113281 424.050781 246.554688 423.921875 C 243.824219 423.53125 240.964844 423.660156 239.015625 421.320313 C 240.445313 421.191406 244.085938 421.96875 244.601563 419.5 C 243.304688 417.03125 237.84375 418.203125 238.105469 413.914063 C 239.796875 414.304688 241.355469 415.992188 243.042969 415.082031 C 243.5625 414.433594 244.863281 414.042969 244.34375 413.003906 C 241.742188 411.574219 239.535156 409.234375 236.285156 409.492188 C 235.507813 404.554688 234.464844 399.878906 233.167969 395.199219 C 237.585938 396.628906 242.914063 390.519531 245.644531 396.757813 C 255.910156 399.097656 271.503906 401.4375 278.394531 391.171875 C 282.679688 387.789063 284.5 381.554688 282.679688 375.835938 C 281.382813 371.027344 277.742188 369.46875 273.714844 367.386719 C 282.421875 368.6875 287.75 376.09375 289.828125 383.632813 Z M 270.855469 370.894531 C 274.234375 371.9375 279.171875 372.976563 279.953125 377.132813 C 281.382813 379.863281 279.953125 383.113281 278.652344 385.453125 C 272.285156 395.980469 259.679688 395.199219 249.023438 394.289063 C 247.960938 394.3125 246.421875 394.160156 246.554688 392.730469 C 249.800781 392.339844 252.660156 390.390625 253.699219 387.011719 C 253.699219 386.621094 253.699219 386.230469 253.699219 385.84375 C 260.976563 382.59375 269.554688 379.863281 270.855469 370.894531 Z M 262.796875 353.742188 C 264.746094 359.328125 265.65625 365.4375 267.476563 371.15625 C 265.527344 376.875 258.898438 379.605469 253.699219 381.421875 C 255 375.574219 251.621094 371.675781 251.230469 366.476563 C 257.078125 363.359375 258.25 357.25 261.496094 352.441406 C 262.40625 352.3125 262.019531 353.351563 262.796875 353.742188 Z M 258.117188 351.53125 C 255.390625 354 254.480469 362.320313 249.671875 361.148438 C 238.886719 364.527344 224.980469 364.007813 213.804688 362.710938 C 213.804688 361.667969 213.804688 360.628906 213.804688 359.589844 C 216.851563 358.480469 221.804688 360.65625 225.257813 359.8125 C 226.65625 359.46875 232.515625 344.125 227.449219 339.316406 C 223.289063 337.496094 218.871094 335.15625 213.804688 336.585938 C 211.851563 337.628906 211.464844 342.046875 208.214844 339.964844 C 203.144531 338.796875 207.953125 332.558594 202.496094 331.90625 C 200.464844 331.808594 195.421875 331.789063 193.050781 331.605469 C 192.386719 331.554688 192.457031 331.035156 193.164063 330.902344 C 197.671875 330.066406 205.851563 330.234375 210.683594 330.347656 C 225.5 330.089844 239.535156 330.867188 253.441406 328.398438 C 255.390625 330.089844 268.515625 327.230469 260.847656 332.167969 C 259.808594 334.246094 262.40625 335.675781 263.96875 336.195313 C 258.640625 339.054688 260.066406 346.464844 258.117188 351.53125 Z M 279.5625 296.558594 C 279.300781 296.820313 279.171875 296.949219 278.914063 297.210938 C 275.792969 294.351563 270.855469 290.839844 267.085938 287.851563 C 266.175781 281.875 264.355469 276.023438 261.496094 271.085938 C 263.316406 257.050781 271.765625 246.394531 278.394531 235.476563 C 279.5625 232.230469 279.691406 229.238281 281.773438 226.769531 C 283.722656 230.539063 292.6875 226.511719 290.21875 233.660156 C 292.039063 238.726563 295.15625 243.40625 298.015625 247.304688 C 288.53125 262.378906 280.601563 277.84375 279.5625 296.558594 Z M 320.109375 318.394531 C 316.730469 308.644531 316.210938 296.167969 316.992188 284.472656 C 318.160156 278.753906 319.71875 274.074219 322.96875 269.136719 C 324.007813 270.046875 325.179688 270.695313 326.738281 270.4375 C 327.992188 269.332031 329.726563 267.578125 330.765625 265.367188 C 335.964844 267.449219 334.796875 273.6875 336.613281 277.84375 C 339.605469 289.019531 347.53125 297.597656 357.277344 304.355469 C 347.53125 312.933594 334.40625 322.160156 320.109375 318.394531 Z M 373.523438 234.828125 C 373.132813 244.574219 372.613281 255.230469 375.082031 264.199219 C 374.59375 268.496094 372.5625 268.703125 370.054688 267.8125 C 357.34375 267.492188 349.113281 258.503906 345.453125 254.191406 C 347.011719 246.523438 345.84375 237.945313 349.480469 231.058594 C 352.46875 223.132813 361.046875 220.011719 368.84375 218.0625 C 371.25 217.949219 377.394531 216.808594 382.101563 218.136719 C 387.566406 219.683594 391.953125 226.859375 382.492188 229.5 C 379.242188 230.671875 374.5625 230.539063 373.523438 234.828125 Z M 400.554688 250.421875 C 399.253906 249.773438 400.554688 247.5625 400.554688 246.136719 C 402.765625 246.394531 406.011719 241.585938 406.792969 246.394531 C 407.59375 249.621094 402.765625 251.59375 400.554688 250.421875 Z M 397.738281 242.148438 C 396.382813 242.1875 395.179688 241.558594 394.96875 239.507813 C 394.578125 232.359375 401.984375 237.816406 405.234375 234.828125 C 406.402344 234.828125 407.832031 234.828125 408.09375 236.128906 C 408.953125 241.800781 401.914063 242.03125 397.738281 242.148438 Z M 408.09375 227.03125 C 409.261719 229.890625 406.011719 230.929688 404.0625 231.710938 C 401.238281 232.097656 398.191406 231.757813 396.078125 230.082031 C 391.230469 226.238281 394.640625 222.570313 398.820313 222.695313 C 402.640625 222.808594 405.46875 224.519531 408.09375 227.03125 Z M 425.507813 158.410156 C 419.917969 162.699219 411.210938 161.011719 404.972656 158.800781 C 401.855469 157.371094 401.203125 160.882813 400.296875 162.441406 C 397.304688 173.355469 400.425781 186.09375 404.324219 195.578125 C 404.453125 203.636719 404.453125 211.824219 403.152344 219.234375 C 399.578125 217.996094 394.058594 217.285156 391.199219 220.53125 C 394.1875 224.300781 388.988281 228.328125 393.148438 231.710938 C 395.746094 233.398438 391.589844 235.21875 391.847656 237.296875 C 391.066406 241.714844 393.925781 243.796875 396.914063 245.746094 C 397.304688 254.320313 395.488281 262.378906 390.289063 267.96875 C 385.503906 269.332031 380.019531 266.019531 378.203125 262.25 C 380.929688 261.730469 385.351563 263.808594 386 259.78125 C 383.269531 258.351563 379.503906 258.871094 377.160156 257.050781 C 377.03125 256.140625 376.382813 255.492188 376.644531 254.453125 C 377.03125 253.671875 378.722656 255.101563 379.761719 255.492188 C 380.953125 255.578125 385.480469 256.789063 386.910156 253.933594 C 386.128906 250.292969 382.101563 252.632813 379.371094 251.074219 C 377.703125 250.164063 375.992188 250.035156 376.644531 247.695313 C 379.632813 247.5625 383.789063 250.164063 386 247.046875 C 384.828125 243.535156 380.152344 244.703125 377.160156 243.535156 C 375.992188 243.144531 376.773438 241.324219 376.644531 240.15625 C 379.890625 241.066406 384.308594 244.445313 387.558594 241.066406 C 388.078125 238.726563 385.503906 238.359375 384.441406 238.335938 C 381.320313 238.855469 379.113281 237.425781 377.160156 235.476563 C 380.410156 233.398438 385.21875 233.269531 388.078125 230.800781 C 391.457031 228.71875 391.066406 223.910156 390.289063 220.144531 C 389.019531 216.925781 385.5625 215.390625 382.265625 214.550781 C 381.164063 214.269531 381.195313 214.175781 382.359375 214.089844 C 383.628906 213.992188 384.933594 213.722656 386.058594 213.273438 C 386.453125 213.117188 388.316406 210.316406 385.496094 210.191406 C 382.394531 210.050781 378.035156 211.570313 379.371094 207.148438 C 381.191406 207.148438 383.398438 208.058594 385.351563 208.707031 C 387.007813 208.609375 388.808594 208.878906 390.265625 208.195313 C 390.75 207.96875 391.121094 204.886719 390.171875 204.632813 C 388.316406 204.132813 385.117188 205.234375 383.398438 204.289063 C 382.230469 203.636719 381.839844 203.246094 380.671875 202.46875 C 379.371094 196.101563 384.179688 200.648438 386.519531 201.167969 C 390.910156 202.070313 397.058594 203.066406 401.496094 201.289063 C 402.179688 201.015625 402.113281 198.179688 401.203125 197.398438 C 394.707031 198.699219 387.167969 198.179688 382.230469 194.28125 C 382.878906 189.730469 387.167969 187.003906 386.910156 181.804688 C 387.167969 179.335938 388.523438 165.339844 387.671875 161.378906 C 387.164063 159 385.851563 157.078125 382.878906 156.203125 C 377.941406 155.683594 372.09375 156.074219 367.804688 155.941406 C 364.6875 151.132813 367.285156 144.375 366.894531 139.046875 C 372.09375 136.1875 378.027344 136.882813 383.398438 138.789063 C 386.128906 139.699219 387.820313 142.558594 389.640625 144.117188 C 391.589844 146.324219 399.253906 147.0625 400.964844 144.34375 C 401.84375 142.273438 401.941406 139.515625 404.136719 139.386719 C 404.800781 139.347656 418.425781 139.804688 423.949219 141.648438 C 428.234375 145.804688 426.417969 152.953125 425.507813 158.410156 "/>
<path style=" stroke:none;fill-rule:nonzero;fill:rgb(0%,0%,0%);fill-opacity:1;" d="M 142.976563 61.722656 C 143.125 60.855469 140.203125 60.855469 140.085938 61.660156 C 139.878906 66.378906 136.722656 72.175781 135.84375 73.066406 C 133.6875 75.238281 132.707031 74.921875 132.707031 72.636719 C 136.085938 52.363281 144.664063 34.820313 156.359375 20.003906 C 158.570313 17.535156 162.597656 14.546875 164.15625 11.167969 C 164.570313 10.277344 162.511719 8.980469 161.949219 9.609375 C 144.015625 25.984375 136.21875 46.777344 129.847656 69.257813 C 129.046875 72.878906 128.808594 77.316406 131.148438 80.175781 C 138.945313 77.058594 141.675781 69.519531 142.976563 61.722656 "/>
<path style=" stroke:none;fill-rule:nonzero;fill:rgb(0%,0%,0%);fill-opacity:1;" d="M 189.703125 62.464844 C 190.007813 64.742188 189.628906 66.488281 187.589844 63.734375 C 186.320313 62.015625 185.734375 59.089844 182.871094 60.160156 C 181.703125 63.671875 185.992188 65.878906 187.550781 68.351563 C 190.019531 70.710938 193.269531 70.277344 193.527344 67.050781 C 191.058594 48.464844 189.5 28.453125 179.492188 14.027344 C 177.933594 12.726563 177.023438 15.066406 177.285156 16.234375 C 185.347656 30.257813 187.492188 45.816406 189.703125 62.464844 "/>
<path style=" stroke:none;fill-rule:nonzero;fill:rgb(0%,0%,0%);fill-opacity:1;" d="M 193.140625 18.054688 C 203.640625 22.628906 212.027344 30.371094 217.855469 38.9375 C 219.972656 42.054688 219.273438 42.863281 215.796875 39.738281 C 214.234375 38.957031 212.328125 40.601563 214.101563 41.875 C 215.75 43.253906 217.824219 44.664063 220.039063 45.578125 C 222.539063 46.613281 226.949219 47.714844 223.808594 43.007813 C 218.351563 31.179688 206.136719 19.875 193.789063 14.675781 C 192.230469 14.9375 191.859375 17.535156 193.140625 18.054688 "/>
<path style=" stroke:none;fill-rule:nonzero;fill:rgb(0%,0%,0%);fill-opacity:1;" d="M 216.273438 68.871094 C 216.792969 73.15625 220.171875 76.015625 223.808594 77.316406 C 228.359375 78.507813 233.773438 77.316406 236.546875 73.546875 C 238.496094 69.390625 241.875 65.101563 239.664063 59.511719 C 238.363281 56.914063 235.246094 53.792969 232.777344 52.753906 C 227.1875 49.503906 222.898438 54.183594 219.132813 57.433594 C 216.140625 60.160156 216.140625 65.101563 216.273438 68.871094 Z M 227.1875 55.222656 C 231.605469 54.183594 234.746094 56.632813 236.546875 60.8125 C 237.714844 63.410156 237.324219 65.878906 235.636719 67.960938 C 234.597656 68.738281 233.035156 69 232.515625 70.167969 C 234.265625 73.953125 227.925781 76.824219 221.601563 73.027344 C 219.390625 71.078125 218.089844 68.351563 218.480469 65.230469 C 219.261719 60.292969 222.511719 56.78125 227.1875 55.222656 "/>
<path style=" stroke:none;fill-rule:nonzero;fill:rgb(0%,0%,0%);fill-opacity:1;" d="M 247.347656 69.882813 C 248.363281 69.652344 249.417969 68.703125 250.582031 68.871094 C 253.535156 68.34375 256.375 69.597656 258.042969 68.257813 C 258.445313 67.9375 258.078125 65.566406 257.261719 65.453125 C 255.898438 65.265625 254.089844 65.734375 252.789063 65.488281 C 250.886719 65.511719 247.488281 65.140625 246.140625 66.785156 C 245.691406 67.332031 246.769531 70.015625 247.347656 69.882813 "/>
<path style=" stroke:none;fill-rule:nonzero;fill:rgb(0%,0%,0%);fill-opacity:1;" d="M 206.808594 72.457031 C 177.988281 79.398438 147.121094 82.335938 117.371094 86.023438 C 116.160156 86.414063 116.464844 88.882813 118.023438 88.882813 C 147.394531 85.113281 179.105469 83.164063 207.824219 75.757813 C 208.972656 75.152344 208.105469 72.335938 206.808594 72.457031 "/>
<path style=" stroke:none;fill-rule:nonzero;fill:rgb(0%,0%,0%);fill-opacity:1;" d="M 186.902344 139.046875 C 186.511719 133.460938 187.03125 127.09375 191.320313 123.453125 C 192.878906 122.933594 194.699219 120.464844 196.257813 122.542969 C 194.960938 125.660156 193.917969 128.78125 194.179688 132.550781 C 194.410156 138.574219 200.402344 142.210938 206.914063 138.136719 C 209.910156 131.480469 205.941406 122.152344 198.207031 119.425781 C 189.691406 116.585938 183.414063 126.984375 183.78125 136.320313 C 183.390625 138.136719 184.820313 140.476563 186.902344 139.046875 "/>
<path style=" stroke:none;fill-rule:nonzero;fill:rgb(0%,0%,0%);fill-opacity:1;" d="M 145.183594 142.816406 C 142.910156 133.199219 148.179688 120.097656 156.75 123.453125 C 155.320313 127.609375 155.320313 132.289063 155.449219 136.96875 C 156.554688 142.714844 165.046875 143.308594 167.277344 138.527344 C 168.445313 135.539063 165.976563 122.152344 158.308594 120.335938 C 145.355469 118.101563 138.210938 131.144531 142.714844 142.816406 C 143.625 143.078125 144.402344 143.855469 145.183594 142.816406 "/>
<path style=" stroke:none;fill-rule:nonzero;fill:rgb(0%,0%,0%);fill-opacity:1;" d="M 175.984375 148.796875 C 178.324219 148.144531 180.664063 148.796875 182.871094 149.054688 C 183.523438 149.039063 184.5625 148.664063 184.171875 147.496094 C 183.023438 143.667969 175.832031 145.90625 172.34375 147.234375 C 171.175781 147.625 171.175781 149.445313 171.695313 150.355469 C 173.644531 151.265625 174.683594 149.445313 175.984375 148.796875 "/>
<path style=" stroke:none;fill-rule:nonzero;fill:rgb(0%,0%,0%);fill-opacity:1;" d="M 148.304688 171.796875 C 165 187.855469 207.847656 184.679688 213.152344 155.03125 C 213.824219 150.441406 211.5 150.316406 210.207031 153.039063 C 209.011719 155.550781 208.292969 158.285156 207.175781 160.621094 C 199.765625 178.035156 179.363281 179.464844 162.339844 175.957031 C 151.8125 173.355469 146.613281 163.871094 142.066406 155.683594 C 141.285156 154.722656 138.945313 155.292969 139.207031 157.242188 C 141.675781 162.050781 144.273438 167.769531 148.304688 171.796875 "/>
<path style=" stroke:none;fill-rule:nonzero;fill:rgb(0%,0%,0%);fill-opacity:1;" d="M 394.164063 177.535156 C 392.867188 177.667969 391.304688 178.316406 391.046875 179.355469 C 390.265625 181.4375 390.785156 184.296875 393.515625 183.773438 C 395.074219 182.996094 395.335938 182.085938 395.984375 180.65625 C 396.503906 179.640625 395.3125 178.230469 394.164063 177.535156 "/>
<path style=" stroke:none;fill-rule:nonzero;fill:rgb(0%,0%,0%);fill-opacity:1;" d="M 256.820313 365.828125 C 255.910156 367.257813 255.390625 369.726563 256.558594 371.15625 C 259.417969 372.976563 261.714844 371.132813 262.796875 370.246094 C 263.835938 369.46875 264.097656 368.296875 263.96875 367.128906 C 263.1875 366.21875 262.796875 365.957031 261.757813 365.179688 C 260.199219 364.527344 258.25 365.179688 256.820313 365.828125 "/>
<path style=" stroke:none;fill-rule:nonzero;fill:rgb(0%,0%,0%);fill-opacity:1;" d="M 149.214844 374.925781 C 151.25 374.710938 153.632813 374.144531 153.632813 371.414063 C 152.589844 368.167969 149.730469 367.648438 146.742188 367.128906 C 144.792969 367.90625 144.015625 369.335938 143.882813 371.414063 C 144.664063 373.753906 147.003906 374.40625 149.214844 374.925781 "/>
<path style=" stroke:none;fill-rule:nonzero;fill:rgb(0%,0%,0%);fill-opacity:1;" d="M 227.957031 374.871094 C 227.308594 377.988281 228.996094 381.109375 228.867188 384.488281 C 231.597656 387.996094 235.886719 384.488281 239.785156 385.136719 C 244.464844 385.398438 242.511719 379.9375 242.511719 377.339844 C 240.433594 368.503906 233.15625 378.511719 227.957031 374.871094 Z M 239.648438 381.828125 C 237.179688 382.609375 234.578125 383 231.851563 382.738281 C 231.199219 381.699219 231.722656 380.140625 231.199219 379.101563 C 234.839844 379.488281 240.6875 374.8125 239.648438 381.828125 "/>
<path style=" stroke:none;fill-rule:nonzero;fill:rgb(0%,0%,0%);fill-opacity:1;" d="M 171.695313 381.8125 C 172.734375 381.421875 174.554688 380.253906 173.90625 378.695313 C 171.824219 376.613281 170.394531 373.625 167.015625 374.273438 C 165.457031 375.054688 164.808594 376.742188 165.066406 378.695313 C 166.105469 381.164063 169.097656 381.554688 171.695313 381.8125 "/>
<path style=" stroke:none;fill-rule:nonzero;fill:rgb(0%,0%,0%);fill-opacity:1;" d="M 192.878906 384.28125 C 194.570313 383.371094 197.6875 383.371094 197.558594 380.511719 C 196.386719 377.394531 193.140625 376.613281 190.019531 377.132813 C 187.941406 377.652344 187.421875 379.472656 187.289063 381.421875 C 188.199219 383.371094 190.671875 384.28125 192.878906 384.28125 "/>
<path style=" stroke:none;fill-rule:nonzero;fill:rgb(0%,0%,0%);fill-opacity:1;" d="M 282.03125 393.898438 C 281.511719 395.589844 281.773438 397.929688 283.070313 398.96875 C 285.019531 400.265625 286.578125 397.929688 288.011719 397.40625 C 288.789063 394.550781 286.96875 392.988281 285.152344 391.691406 C 283.851563 391.691406 282.550781 393.117188 282.03125 393.898438 "/>
<path style=" stroke:none;fill-rule:nonzero;fill:rgb(0%,0%,0%);fill-opacity:1;" d="M 271.503906 401.695313 C 268.644531 402.085938 268.257813 405.203125 269.035156 407.675781 C 270.984375 409.882813 273.972656 408.714844 276.832031 408.585938 C 278.78125 407.804688 277.871094 405.59375 278.652344 404.554688 C 277.222656 402.085938 274.234375 401.308594 271.503906 401.695313 "/>
<path style=" stroke:none;fill-rule:nonzero;fill:rgb(0%,0%,0%);fill-opacity:1;" d="M 245.253906 402.605469 C 243.824219 404.816406 243.824219 407.023438 245.253906 409.492188 C 247.332031 411.964844 250.34375 410.230469 251.882813 409.234375 C 253.441406 408.066406 254.21875 406.503906 253.441406 404.554688 C 250.972656 403.90625 248.371094 400.527344 245.253906 402.605469 "/>
<path style=" stroke:none;fill-rule:nonzero;fill:rgb(0%,0%,0%);fill-opacity:1;" d="M 348.253906 637.320313 C 339.421875 632.417969 325.933594 634.65625 316.339844 630.6875 C 313.09375 629.386719 315.039063 625.488281 313.613281 623.148438 C 310.363281 622.367188 312.3125 627.566406 309.582031 628.476563 C 308.023438 628.867188 306.855469 631.726563 305.164063 629.777344 C 305.8125 626.65625 307.765625 623.929688 308.023438 620.9375 C 307.503906 620.160156 306.722656 618.597656 305.425781 619.378906 C 303.34375 622.109375 300.746094 624.316406 298.277344 626.65625 C 297.496094 627.046875 296.457031 628.085938 295.546875 627.175781 C 297.367188 625.097656 298.535156 622.628906 301.136719 620.9375 C 302.304688 619.769531 303.085938 616.910156 300.484375 616.652344 C 297.105469 620.160156 294.378906 623.277344 291.128906 627.175781 C 290.609375 628.605469 288.140625 631.335938 290.867188 632.894531 C 293.988281 633.15625 296.976563 631.464844 299.574219 629.386719 C 305.425781 624.839844 299.445313 632.894531 302.695313 634.066406 C 306.074219 634.585938 309.191406 632.636719 312.050781 630.945313 C 313.09375 632.636719 315.171875 633.285156 316.730469 634.714844 C 326.609375 638.742188 337.003906 635.625 346.621094 640.304688 C 358.152344 648.539063 353.023438 662.960938 346.363281 664.996094 C 326.738281 669.023438 303.996094 668.375 285.152344 663.046875 C 273.84375 660.835938 262.539063 664.734375 251.492188 663.4375 C 245.644531 662.65625 237.195313 663.304688 234.726563 656.289063 C 231.605469 649.660156 237.84375 643.941406 236.546875 636.273438 C 235.722656 635.710938 234.335938 634.453125 233.425781 636.015625 C 234.726563 643.292969 228.617188 648.621094 230.566406 656.289063 C 233.558594 660.707031 237.195313 666.035156 243.691406 666.164063 C 256.558594 667.203125 270.984375 665.515625 284.632813 666.554688 C 298.664063 670.324219 314.78125 672.273438 329.855469 670.84375 C 337.785156 670.0625 347.011719 670.84375 352.859375 664.085938 C 361.242188 653.582031 355.558594 641.375 348.253906 637.320313 "/>
<path style=" stroke:none;fill-rule:nonzero;fill:rgb(0%,0%,0%);fill-opacity:1;" d="M 76.566406 628.476563 C 82.542969 629.777344 88.261719 633.804688 94.628906 632.246094 C 95.539063 631.59375 95.539063 630.035156 94.628906 629.386719 C 86.183594 629.125 79.035156 625.488281 71.238281 623.539063 C 70.585938 624.058594 70.199219 624.707031 70.328125 625.617188 C 71.625 627.828125 74.226563 627.957031 76.566406 628.476563 "/>
<path style=" stroke:none;fill-rule:nonzero;fill:rgb(0%,0%,0%);fill-opacity:1;" d="M 281.511719 632.246094 C 283.460938 630.816406 286.710938 628.867188 286.449219 626.007813 C 285.671875 622.109375 283.070313 624.96875 282.679688 627.175781 C 279.5625 629.515625 276.054688 630.945313 271.765625 630.296875 C 266.046875 630.554688 260.589844 630.425781 256.558594 626.917969 C 254.609375 625.488281 254.351563 628.085938 253.960938 629.125 C 255 630.945313 256.949219 631.984375 258.640625 632.894531 C 266.828125 634.066406 273.714844 634.84375 281.511719 632.246094 "/>
<path style=" stroke:none;fill-rule:nonzero;fill:rgb(0%,0%,0%);fill-opacity:1;" d="M 24.453125 657.199219 C 23.800781 655.898438 24.320313 654.339844 25.101563 653.167969 C 26.011719 649.53125 25.101563 645.632813 22.242188 643.421875 C 20.550781 641.601563 17.5625 640.824219 15.355469 640.042969 C 13.792969 644.980469 21.074219 644.332031 21.980469 647.839844 C 23.542969 649.660156 21.851563 651.738281 21.074219 653.429688 C 19.902344 656.546875 21.460938 659.796875 24.191406 661.226563 C 52.003906 664.605469 80.59375 659.40625 108.664063 656.546875 C 110.484375 655.898438 111.914063 654.339844 111.785156 652.128906 C 111.914063 650.179688 109.574219 649.402344 108.015625 650.308594 C 107.234375 651.21875 108.40625 652.910156 106.847656 653.429688 C 84.753906 655.898438 62.398438 658.757813 40.304688 659.40625 C 35.886719 658.628906 29 659.796875 24.453125 657.199219 "/>
<path style=" stroke:none;fill-rule:nonzero;fill:rgb(0%,0%,0%);fill-opacity:1;" d="M 244.992188 647.191406 C 242.785156 645.371094 242.132813 647.710938 242.523438 649.660156 C 243.953125 652.128906 247.203125 652.910156 249.933594 653.429688 C 272.546875 659.925781 296.71875 661.355469 320.109375 660.964844 C 326.089844 660.964844 332.585938 661.355469 337.003906 658.105469 C 339.214844 654.339844 335.703125 652.128906 334.144531 649.011719 C 333.886719 645.109375 337.785156 647.449219 339.734375 646.28125 C 339.734375 645.371094 340.125 643.941406 339.214844 643.8125 C 338.175781 642.902344 337.003906 642.253906 335.445313 642.511719 C 333.886719 643.292969 332.066406 644.59375 331.414063 645.890625 C 329.46875 649.53125 333.367188 652.648438 334.144531 655.25 C 332.847656 657.328125 330.378906 656.546875 328.558594 657.199219 C 303.476563 658.105469 279.300781 657.589844 256.820313 651.21875 C 253.050781 649.53125 247.59375 651.21875 244.992188 647.191406 "/>
</g>
</svg>
