<?xml version="1.0" encoding="UTF-8"?>
<svg xmlns="http://www.w3.org/2000/svg" xmlns:xlink="http://www.w3.org/1999/xlink" width="499pt" height="537pt" viewBox="0 0 499 537" version="1.1">
<g id="surface1">
<path style=" stroke:none;fill-rule:nonzero;fill:rgb(0%,0%,0%);fill-opacity:1;" d="M 70.050781 28.039063 C 71.222656 16.589844 88.789063 2.125 102.359375 3.4375 C 104.4375 3.640625 105.28125 2.261719 102.851563 1.015625 C 92.488281 -4.300781 63.425781 16.070313 67.3125 29 C 67.980469 31.226563 69.839844 30.109375 70.050781 28.039063 "/>
<path style=" stroke:none;fill-rule:nonzero;fill:rgb(0%,0%,0%);fill-opacity:1;" d="M 95.261719 14.425781 C 99.996094 11.519531 111.699219 8.179688 115.449219 11.667969 C 116.589844 12.730469 117.710938 12.277344 117.867188 10.976563 C 118.585938 5.011719 102.113281 6.960938 93.75 11.253906 C 90.378906 12.980469 91.8125 16.539063 95.261719 14.425781 "/>
<path style=" stroke:none;fill-rule:nonzero;fill:rgb(0%,0%,0%);fill-opacity:1;" d="M 107.054688 17.300781 C 106.195313 19.160156 107.203125 20.070313 109.257813 19.277344 C 114.175781 17.375 116.070313 17.632813 118.53125 18.632813 C 121.386719 19.792969 118.882813 22.121094 115.21875 21.882813 C 113.035156 21.738281 111.339844 23.269531 113.90625 25.835938 C 110.667969 28.265625 106.191406 28.101563 102.808594 27.394531 C 89.671875 24.65625 81.609375 36.46875 74.152344 45.019531 C 72.359375 47.074219 74.441406 50.246094 76.203125 47.765625 C 79.96875 42.472656 84.183594 36.90625 89.714844 33.117188 C 92.25 31.679688 95.050781 31.417969 97.945313 31.492188 C 104.910156 31.679688 113.339844 31.941406 115.007813 28.738281 C 115.554688 27.691406 117.054688 26.636719 118.082031 25.953125 C 121.179688 23.890625 122.941406 22.601563 121.53125 21.027344 C 120.800781 20.210938 121.363281 19.542969 121.871094 18.785156 C 122.734375 17.511719 122.648438 16.585938 121.550781 15.671875 C 117.980469 12.695313 107.8125 15.664063 107.054688 17.300781 "/>
<path style=" stroke:none;fill-rule:nonzero;fill:rgb(0%,0%,0%);fill-opacity:1;" d="M 59.484375 48.9375 C 60.773438 49.425781 61.535156 47.070313 59.363281 45.71875 C 53.332031 41.964844 55.671875 39.222656 59.027344 34.089844 C 59.714844 36.144531 60.3125 38.359375 61.878906 39.828125 C 63.3125 41.175781 64.347656 38.777344 63.308594 36.878906 C 60.792969 32.28125 63.941406 27.742188 64.519531 24.066406 C 64.804688 22.242188 63.191406 21.523438 62.171875 22.871094 C 60.226563 25.453125 60.019531 27.148438 59.15625 30.371094 C 55.167969 32.683594 50.425781 40.734375 53.179688 45.25 C 54.4375 47.3125 57.238281 48.09375 59.484375 48.9375 "/>
<path style=" stroke:none;fill-rule:nonzero;fill:rgb(0%,0%,0%);fill-opacity:1;" d="M 264.175781 43.546875 C 262.816406 42.984375 261.25 43.34375 260.152344 44.359375 C 258.167969 46.199219 258.847656 47.761719 261.703125 46.863281 C 265.332031 45.722656 267.898438 50.722656 266.488281 54.785156 C 265.945313 56.359375 264.203125 57.441406 262.585938 58.496094 C 260.105469 60.117188 261.816406 62.5 264.191406 61.0625 C 273.671875 55.316406 270.394531 46.125 264.175781 43.546875 "/>
<path style=" stroke:none;fill-rule:nonzero;fill:rgb(0%,0%,0%);fill-opacity:1;" d="M 73.292969 66.789063 C 77.09375 64.515625 77.203125 56.140625 73.632813 52.136719 C 71.839844 50.121094 69.058594 51.816406 71.121094 54.351563 C 73.660156 57.46875 74.140625 61.210938 71.652344 64.328125 C 69.882813 66.546875 71.640625 67.777344 73.292969 66.789063 "/>
<path style=" stroke:none;fill-rule:nonzero;fill:rgb(0%,0%,0%);fill-opacity:1;" d="M 248.976563 69.46875 C 249.789063 68.402344 251.363281 67.59375 251.617188 67.445313 C 257.214844 64.179688 262.394531 58.550781 256.3125 52.996094 C 253.84375 50.742188 252.128906 51.597656 253.828125 54.628906 C 254.40625 55.65625 256.15625 57.011719 255.707031 58.808594 C 254.851563 62.242188 250.796875 66.171875 249.0625 64.683594 C 248.453125 64.160156 248.144531 63.253906 247.71875 62.4375 C 246.46875 60.027344 242.609375 60.519531 244.257813 63.742188 C 246.753906 68.632813 243.257813 74.78125 237.398438 69.613281 C 235.625 68.050781 233.175781 69.734375 235.023438 71.835938 C 239.304688 76.695313 235.109375 86.09375 231.933594 82.429688 C 230.757813 81.074219 231.101563 79.164063 231.238281 77.328125 C 231.4375 74.609375 228.296875 74.140625 227.828125 77.445313 C 226.007813 90.261719 241.089844 88.839844 240.464844 75.117188 C 244.164063 76.324219 247.074219 71.960938 248.976563 69.46875 "/>
<path style=" stroke:none;fill-rule:nonzero;fill:rgb(0%,0%,0%);fill-opacity:1;" d="M 65.890625 62.847656 C 64.492188 65.207031 68.15625 66.089844 68.378906 63.761719 C 68.628906 61.144531 69.484375 57.660156 68.09375 55.433594 C 67.242188 54.0625 65.195313 53.527344 65.519531 56.941406 C 65.707031 58.878906 67.023438 60.9375 65.890625 62.847656 "/>
<path style=" stroke:none;fill-rule:nonzero;fill:rgb(0%,0%,0%);fill-opacity:1;" d="M 50.640625 70.433594 C 51.316406 70.679688 52.015625 70.136719 51.152344 68.058594 C 50.117188 65.550781 52.3125 60.757813 56.597656 61.007813 C 58.402344 61.109375 58.933594 59.074219 57.765625 57.660156 C 56.007813 55.535156 52.683594 57.617188 49.613281 61.445313 C 46.867188 64.871094 46.148438 68.8125 50.640625 70.433594 "/>
<path style=" stroke:none;fill-rule:nonzero;fill:rgb(0%,0%,0%);fill-opacity:1;" d="M 282.453125 70.082031 C 289.183594 61.050781 294.605469 63.6875 294.78125 69.753906 C 294.792969 70.199219 294.792969 71.199219 294.355469 70.804688 C 290.070313 69.355469 287.09375 74.984375 291.816406 77.582031 C 290.609375 78.535156 288.132813 80.402344 287.164063 81.234375 C 285.261719 82.867188 287.769531 85.6875 289.640625 84.011719 C 297.878906 76.644531 310.371094 75.566406 312.980469 81.242188 C 316.015625 87.847656 309.902344 95.855469 300.121094 94.925781 C 295.777344 94.511719 294.132813 98.746094 298.425781 99.054688 C 300.9375 99.230469 304.367188 98.066406 306.210938 99.644531 C 310.035156 120.050781 289.355469 127.289063 273.507813 125.070313 C 268.828125 123.984375 268.214844 120.191406 267.015625 116.769531 C 264.84375 110.5625 258.429688 111.367188 256.382813 117.589844 C 253.453125 126.496094 259.089844 136.941406 264.308594 142.976563 C 268.5 147.824219 273.539063 150.257813 279.082031 147.425781 C 282.214844 145.824219 289.027344 144.726563 279.28125 157.820313 C 275.269531 163.210938 276.210938 164.421875 275.25 170.71875 C 274.679688 174.460938 278.144531 172.738281 278.183594 169.027344 C 278.253906 162.378906 283.9375 157.972656 286.535156 152.296875 C 288.886719 147.160156 286.953125 139.515625 282.234375 142.320313 C 275.535156 146.296875 271.628906 145.457031 265.890625 140.414063 L 267.90625 136.382813 C 269.585938 133.246094 266.003906 129.4375 269.472656 127.085938 C 291.21875 133.265625 315.621094 121.265625 309.457031 97.292969 C 315.890625 93.199219 318.359375 88.058594 316.636719 80.898438 C 314.253906 71 300.898438 72.753906 297.433594 74.851563 C 298.523438 70.121094 298.316406 66.164063 296.605469 63.75 C 291.726563 56.878906 280.644531 63.867188 279.671875 69.980469 C 279.230469 72.769531 279.980469 73.394531 282.453125 70.082031 "/>
<path style=" stroke:none;fill-rule:nonzero;fill:rgb(0%,0%,0%);fill-opacity:1;" d="M 259.066406 74.167969 C 255.738281 80.046875 255.785156 85.21875 259.371094 90.277344 C 264.070313 96.910156 271.1875 95.753906 275.011719 91.53125 C 278.097656 88.121094 278.683594 79.289063 276.636719 72.855469 C 274.113281 64.914063 264.019531 65.414063 259.066406 74.167969 Z M 274.605469 78.058594 C 274.53125 78.613281 274.085938 78.34375 273.480469 77.894531 C 266.785156 72.925781 263.890625 89.792969 272.121094 85.761719 C 272.945313 85.359375 273.5 85.28125 273.304688 86.78125 C 272.742188 91.136719 266.496094 94.445313 261.84375 88.160156 C 258.597656 83.78125 259.832031 79.066406 262.601563 74.890625 C 267.132813 68.046875 275.179688 70.171875 274.605469 78.058594 "/>
<path style=" stroke:none;fill-rule:nonzero;fill:rgb(0%,0%,0%);fill-opacity:1;" d="M 61.492188 85.195313 C 62.914063 85.285156 63.984375 86.082031 65.039063 87.136719 C 66.84375 88.941406 70.65625 87.070313 70.707031 85.585938 C 70.730469 84.949219 70.472656 84.148438 69.890625 84.300781 C 67.066406 84.90625 66.988281 82.5625 66.28125 80.980469 C 65.027344 78.15625 56.144531 84.011719 56.90625 88.53125 C 57.230469 90.476563 60.449219 90.683594 60.257813 87.980469 C 60.175781 86.847656 60.148438 85.644531 61.492188 85.195313 "/>
<path style=" stroke:none;fill-rule:nonzero;fill:rgb(0%,0%,0%);fill-opacity:1;" d="M 232.660156 96.882813 C 235.527344 99.035156 236.570313 95.265625 234.703125 93.613281 C 225.394531 85.382813 207.046875 96.683594 207.410156 111.34375 C 207.652344 121.078125 218.679688 123.445313 222.214844 120.410156 C 224.074219 118.816406 222.457031 116.445313 220.230469 117.960938 C 218.09375 119.410156 210.269531 116.484375 210.21875 110.929688 C 210.125 101.074219 224.523438 90.765625 232.660156 96.882813 "/>
<path style=" stroke:none;fill-rule:nonzero;fill:rgb(0%,0%,0%);fill-opacity:1;" d="M 225.507813 104.316406 C 227.113281 103.984375 226.648438 101.398438 225.226563 101.230469 C 218.257813 100.398438 216.261719 109.097656 219.109375 111.121094 C 221.457031 112.789063 222.476563 110.652344 221.882813 109.152344 C 220.632813 106 223.414063 104.746094 225.507813 104.316406 "/>
<path style=" stroke:none;fill-rule:nonzero;fill:rgb(0%,0%,0%);fill-opacity:1;" d="M 205.425781 142.265625 C 204.695313 147.886719 202.402344 150.847656 198.253906 153.367188 C 195.625 154.964844 197.203125 156.863281 199.792969 155.582031 C 206.289063 152.367188 208.460938 146.621094 208.59375 142.296875 C 208.722656 138.109375 205.878906 138.769531 205.425781 142.265625 "/>
<path style=" stroke:none;fill-rule:nonzero;fill:rgb(0%,0%,0%);fill-opacity:1;" d="M 201.539063 160.027344 C 198.855469 159.167969 197.976563 160.882813 201.011719 162.257813 C 207.925781 165.691406 219.519531 151.675781 215.210938 141.972656 C 214.347656 140.03125 212.78125 140.683594 213.078125 142.601563 C 214.703125 153.148438 205.46875 161.285156 201.539063 160.027344 "/>
<path style=" stroke:none;fill-rule:nonzero;fill:rgb(0%,0%,0%);fill-opacity:1;" d="M 136.015625 190.035156 C 131.9375 181.898438 124.597656 188.078125 128.035156 194.035156 C 131.691406 200.363281 138.90625 195.796875 136.015625 190.035156 "/>
<path style=" stroke:none;fill-rule:nonzero;fill:rgb(0%,0%,0%);fill-opacity:1;" d="M 146.164063 235.683594 C 148.191406 241.183594 154.910156 239.769531 154.53125 233.425781 C 154.070313 225.808594 143.492188 228.441406 146.164063 235.683594 "/>
<path style=" stroke:none;fill-rule:nonzero;fill:rgb(0%,0%,0%);fill-opacity:1;" d="M 498.023438 127.226563 C 497.480469 126.136719 495.65625 124.578125 494.691406 123.898438 C 491.066406 121.34375 493.597656 119.433594 494.230469 117.664063 C 495.941406 113.894531 491.847656 111.203125 489.375 112.234375 C 486.988281 113.230469 485.867188 115.191406 484.640625 116.644531 C 482.402344 119.285156 480.460938 118.945313 476.992188 115.484375 C 471.777344 110.847656 466.621094 109.34375 453.195313 113.242188 C 448.136719 114.710938 446.320313 111.753906 451.445313 110.71875 C 456.066406 109.789063 461.199219 106.527344 463.308594 100.09375 C 464.480469 96.527344 468.390625 97.148438 468.574219 93.429688 C 468.675781 91.351563 469.707031 89.660156 470.996094 88.070313 C 475.347656 82.707031 477.710938 76.894531 474.011719 69.714844 C 473.015625 67.707031 475.460938 66.585938 477.40625 67.339844 C 483.953125 69.863281 494.503906 64.433594 492.796875 59.949219 C 491.65625 56.957031 490.304688 58.738281 489.828125 60.453125 C 488.964844 63.578125 485.0625 64.664063 482.832031 64.589844 C 478.9375 64.15625 480.710938 61.726563 481.386719 59.335938 C 483.09375 53.316406 470.390625 52.699219 473.046875 60.355469 C 473.789063 62.507813 474.921875 64.535156 471.519531 65.035156 C 464.261719 54.277344 450.226563 55.003906 442.773438 56.847656 C 440.117188 48.148438 427.484375 50.992188 425.488281 60.109375 C 421.730469 56.269531 416.417969 54.574219 411.121094 54.460938 C 402.445313 54.277344 400.503906 60.519531 401.9375 63.199219 C 403.601563 66.304688 407.824219 68.382813 410.761719 69.351563 C 406.628906 72.921875 404.765625 80.433594 408.648438 83.109375 C 410.421875 84.335938 412.808594 84.855469 414.808594 85.769531 C 418.589844 87.503906 420.78125 86.496094 424.960938 84.421875 C 428.109375 82.855469 429.4375 83.511719 427.964844 87.046875 C 425.726563 92.40625 417.957031 93.121094 412.597656 92.160156 C 407.75 91.296875 406.019531 95.335938 410.050781 102.363281 C 411.433594 104.671875 408.910156 106.855469 407.078125 104.320313 C 401.101563 96.058594 388.308594 86.894531 386.066406 85.980469 C 380.925781 84.117188 377.636719 86.214844 374.621094 89.195313 C 371.359375 92.417969 365.664063 98.503906 361.917969 101.316406 C 360.550781 102.339844 359.152344 102.640625 357.585938 102.46875 C 351.792969 101.839844 346.144531 101.253906 342.144531 104.09375 C 338.589844 106.617188 339.335938 111.855469 345.109375 111.300781 C 350.394531 110.792969 350.289063 111.652344 345.484375 113.570313 C 343.570313 114.335938 340.4375 116.0625 341.054688 118.949219 C 342.238281 122.347656 344.582031 122.066406 346.8125 121.199219 C 347.96875 120.75 350.875 117.144531 351.90625 117.257813 C 352.019531 117.582031 349.9375 120.105469 348.578125 122.53125 C 347.453125 124.539063 350.203125 128 354.722656 124.480469 C 355.632813 123.773438 356.785156 120.625 358.25 118.695313 C 359.296875 117.320313 359.554688 118.246094 359.386719 119.0625 C 359.183594 120.0625 358.832031 121.460938 358.726563 122.75 C 358.476563 125.746094 362.746094 126.492188 366.132813 123.550781 C 367.546875 122.320313 370.539063 117.40625 370.644531 115.339844 C 370.683594 114.597656 371.128906 113.695313 371.8125 113.117188 C 374.871094 110.535156 380.3125 107.894531 384.042969 108.652344 C 385.789063 109.011719 390.472656 114.378906 390.058594 119.40625 C 389.914063 121.164063 389.222656 123.058594 387.730469 125.058594 C 386.410156 126.824219 381.707031 133.148438 381.925781 136.261719 C 378.40625 137.878906 367.371094 143.46875 361.117188 147.621094 C 357.828125 149.851563 356.859375 150.5 359.449219 146.847656 C 361.367188 144.144531 365.089844 139.839844 366.148438 138.394531 C 370.503906 132.445313 366.472656 127.390625 358.753906 130.222656 C 353.65625 132.089844 344.699219 146.742188 342.179688 152.289063 C 340.542969 155.890625 340.289063 158.574219 335.886719 161.089844 C 329.84375 164.546875 298.378906 176.03125 286.109375 179.234375 C 284.746094 179.589844 279.90625 179.867188 279.570313 178.273438 C 279.074219 175.902344 275.898438 176.308594 273.433594 176.785156 C 269.632813 177.519531 265.519531 179.140625 262.347656 178.882813 C 257.953125 178.523438 257.769531 176.617188 257.042969 173.003906 C 254.171875 158.863281 254.304688 154 243.339844 144.605469 C 241.15625 142.734375 239.3125 140.660156 238.964844 137.820313 C 237.839844 128.664063 232.941406 131.589844 229.765625 124.890625 C 229.207031 123.710938 227.375 122.917969 226.996094 125.011719 C 226.457031 127.996094 230.507813 131.269531 232.675781 132.242188 C 236.53125 133.96875 235.15625 139.660156 235.984375 142.765625 C 232.675781 144.972656 231.472656 145.679688 226.878906 145.867188 C 225.554688 145.921875 224.535156 145.402344 223.371094 142.539063 C 221.347656 137.558594 217.644531 130.972656 213.199219 129.96875 C 211.503906 129.589844 205.15625 128.054688 203.335938 126.9375 C 196.511719 122.75 194.226563 109.355469 193.652344 103.527344 C 192.398438 90.851563 205.191406 82.765625 208.601563 71.382813 C 209.265625 69.160156 210.28125 66.898438 213.378906 65.429688 C 218.4375 63.035156 222.066406 62.660156 222.332031 59.808594 C 222.578125 57.179688 224.367188 56.355469 226.476563 55.820313 C 230.5625 54.785156 232.339844 53.375 233.300781 51.753906 C 234.675781 49.4375 238.683594 50.035156 240.019531 47.675781 C 247.113281 32.605469 263.765625 29.015625 273.042969 34.75 C 276.621094 36.960938 280.316406 44.371094 276.953125 48.28125 C 274.605469 51.011719 276.976563 54.089844 278.777344 50.980469 C 281.78125 45.796875 282.28125 38.152344 276.136719 33.265625 C 264.769531 24.222656 247.289063 28.472656 241.003906 40.917969 C 240.054688 42.796875 239.195313 44.707031 237.21875 45.660156 C 233.046875 46.902344 222.679688 52.59375 221.257813 55.898438 C 219.988281 58.84375 217.3125 60.160156 214.433594 61.382813 C 210.121094 63.21875 206.597656 65.71875 205.84375 68.886719 C 205.148438 71.800781 198.886719 81.894531 197.242188 84.601563 C 193.246094 91.195313 190.464844 95.597656 190.816406 101.40625 C 191.15625 106.980469 193.308594 123.402344 199.699219 128.316406 C 195.609375 131.539063 196.019531 136.777344 195.984375 141.867188 C 195.929688 150.304688 191.128906 155.511719 185.730469 155.355469 C 182.488281 155.261719 181.070313 159.324219 185.269531 158.691406 C 190.226563 157.941406 198.214844 155.75 198.785156 141.730469 C 199.003906 136.488281 198.863281 133.097656 203.203125 131.179688 C 204.867188 130.441406 213.324219 132.691406 215.335938 135.234375 C 217.613281 138.113281 221.800781 142.382813 221.964844 150.40625 C 222.132813 158.859375 213.210938 166.167969 199.160156 164.972656 C 196.007813 164.703125 196.503906 167.886719 199.304688 167.824219 C 215.15625 167.457031 225.46875 162.765625 225.121094 149.710938 C 227.472656 150.15625 236.210938 147.582031 239.683594 145.675781 C 249.386719 151.414063 253.097656 161.757813 252.40625 172.679688 C 252.179688 176.25 252.199219 180.15625 253.792969 181.964844 C 250.300781 185.457031 245.925781 186.945313 241.308594 187.886719 C 239.558594 188.242188 223.441406 191.933594 220.304688 198.429688 C 219.109375 196.171875 214.648438 191.222656 211.644531 189.800781 C 208.164063 188.152344 204.085938 187.230469 200.984375 184.691406 C 200.40625 184.21875 188.945313 175.132813 181.21875 176.253906 C 174.335938 170.257813 157.601563 160.921875 147.972656 159.878906 C 145.863281 159.652344 143.753906 159.378906 141.714844 158.496094 C 139.269531 152.609375 135.136719 148.835938 126.878906 148.8125 C 121.582031 148.796875 124.449219 139.261719 128.039063 133.15625 C 132.242188 126.011719 129.429688 118.292969 120.441406 122.34375 C 112.59375 125.882813 107.921875 123.808594 107.4375 118.34375 C 106.882813 112.042969 107.996094 109.824219 112.683594 111.191406 C 122.488281 114.050781 151.445313 108.261719 142.914063 75.453125 C 155.0625 67.101563 153.519531 59.769531 150.113281 53.898438 C 146.804688 48.199219 139.15625 47.921875 133.308594 49.042969 C 131.03125 49.480469 130.554688 48.222656 131.15625 45.191406 C 132.785156 36.972656 121.726563 31.167969 117.175781 40.371094 C 115.753906 43.246094 114.851563 46.730469 113.496094 48.292969 C 108.390625 38.355469 99.390625 41.726563 96.570313 49.046875 C 93.46875 57.105469 95.476563 65.117188 99.417969 69 C 104.964844 74.460938 110.820313 72.71875 113.460938 66.183594 C 114.890625 62.644531 115.015625 58.261719 114.691406 54.0625 C 117.945313 51.566406 117.464844 46.257813 119.335938 42.902344 C 122.425781 37.347656 130.339844 39.148438 128.019531 47.675781 C 125.445313 43.6875 121.40625 47.960938 122.769531 50.6875 C 123.566406 52.285156 122.4375 54.09375 121.164063 55.328125 C 119.449219 56.992188 122.597656 59.871094 123.828125 58.101563 C 127.097656 53.394531 141.191406 49.558594 147.191406 55.519531 C 151.097656 59.398438 149.285156 73.445313 132.667969 73.042969 C 130.351563 72.988281 129.09375 75.070313 131.492188 76.597656 C 133.554688 77.910156 137.144531 76.546875 139.664063 77.132813 C 144.550781 92.058594 137.621094 107.867188 114.242188 108.15625 C 109.0625 108.578125 107.863281 104.492188 106.105469 101.09375 C 103.015625 95.113281 95.882813 98.03125 95.679688 105.746094 C 95.230469 122.863281 108.441406 132.277344 120.582031 126.378906 C 122.492188 125.449219 124.394531 124.761719 126.339844 126.636719 C 123.988281 133.691406 117.714844 139.742188 120.738281 148.476563 C 120.878906 150.320313 120.203125 151.523438 119.15625 152.429688 C 115.679688 155.429688 103.929688 159.667969 96.097656 150.492188 C 100.507813 138.882813 96.117188 133.144531 89.070313 125.402344 C 85.410156 121.378906 81.84375 117.316406 79.050781 112.777344 C 77.269531 109.882813 66.167969 100.820313 65.058594 98.324219 C 64.855469 97.871094 64.488281 97.460938 64.628906 96.84375 C 60.707031 97.40625 57.234375 100.09375 52.980469 98.414063 C 49.171875 97.292969 46.820313 93.261719 47.378906 89.230469 C 50.179688 81.390625 57.570313 73.886719 66.304688 73.4375 C 68.648438 72.519531 71.914063 73.453125 74.085938 75.566406 C 74.804688 76.265625 76.335938 72.921875 75.601563 72.101563 C 66.171875 61.535156 42.917969 77.21875 44.871094 92.152344 C 46.148438 101.886719 51.480469 105.0625 62.484375 102.242188 C 63.375 103.355469 60.175781 106.875 58.296875 107.597656 C 56.871094 108.324219 57.460938 110.84375 59.027344 110.171875 C 62.292969 108.789063 64.296875 105.90625 65.734375 106.113281 C 66.398438 106.207031 67.839844 107.566406 68.421875 108.679688 C 67.710938 110.09375 66.230469 110.867188 64.972656 111.40625 C 62.324219 112.117188 63.945313 115.507813 66.601563 114.03125 C 67.125 113.742188 69.148438 113.375 72.074219 111.238281 C 72.730469 113.042969 71.210938 115.4375 69.300781 117.132813 C 66.292969 119.792969 67.351563 123.433594 70.574219 120.78125 C 71.726563 119.832031 72.601563 118.363281 73.351563 116.902344 C 75.699219 112.339844 76.546875 113.511719 78.25 116.644531 C 81.167969 122.027344 85.4375 127.074219 90.269531 131.527344 C 95.417969 136.273438 95.398438 143.355469 93.746094 152.0625 C 86.546875 153.820313 82.617188 164.203125 85.683594 168.1875 C 80.828125 168.75 79.410156 173.714844 74.371094 173.902344 C 63.402344 174.523438 55.207031 181.929688 45.011719 184.554688 C 37.855469 186.398438 28.464844 195.210938 19.207031 203.402344 C 4.460938 216.457031 -6.605469 230.835938 5.914063 251.765625 C 11.148438 260.511719 15.460938 263.9375 26.703125 269.429688 C 36.429688 274.179688 41.125 278.347656 44.574219 283.046875 C 48.253906 288.066406 55.375 285.414063 61.082031 285.730469 C 61.605469 285.761719 69.554688 286.125 71.90625 289.148438 C 73.453125 291.3125 72.796875 294.175781 68.878906 293.027344 C 66.054688 292.199219 62.679688 290.292969 59.417969 290.464844 C 55.222656 290.804688 51.9375 291.101563 49.054688 292.441406 C 44.972656 294.347656 42.96875 299.289063 48.90625 300.421875 C 50.859375 300.792969 50.730469 301.8125 48.953125 301.683594 C 47.828125 301.601563 46.457031 301.582031 44.886719 301.882813 C 37.011719 303.382813 39.613281 311.984375 46.863281 310.804688 C 50.5 310.214844 56.398438 309.046875 59.710938 308.378906 C 61.847656 307.945313 61.964844 308.320313 59.972656 308.914063 C 56.902344 309.832031 51.589844 310.964844 48.195313 311.746094 C 39.488281 313.753906 42.214844 324.679688 51.347656 323.011719 C 53.421875 322.632813 62.085938 318.589844 65.921875 317.402344 C 69.207031 316.464844 67.886719 319.136719 66.703125 319.761719 C 64.265625 321.042969 59.675781 321.066406 56.289063 322.410156 C 48.148438 325.632813 50.175781 332.664063 56.214844 333.351563 C 59.144531 333.679688 63.890625 332.683594 71.660156 329.09375 C 72.457031 330.90625 62.75 333.386719 62.4375 333.472656 C 53.386719 335.886719 57.984375 341.8125 64.90625 341.941406 C 84.089844 342.296875 96.726563 324.109375 100.269531 310.613281 C 106.730469 285.960938 102.089844 278.800781 89.34375 269.628906 C 86.667969 267.703125 84.808594 265.398438 85.683594 261.371094 C 86.265625 258.480469 81.53125 257.699219 80.421875 255.394531 C 78.558594 251.519531 74.722656 237.109375 72.953125 234.558594 C 71.617188 232.636719 70.152344 230.78125 69.242188 228.691406 C 67.28125 224.167969 69.867188 220.449219 72.800781 220.113281 C 76.117188 219.730469 79.984375 216.738281 77.460938 213.980469 C 76.195313 212.605469 71.144531 214.433594 69.890625 217.355469 C 61.714844 221.5 53.988281 226.429688 46.484375 232.363281 C 44.335938 234 46.671875 235.035156 48.21875 235.140625 C 51.292969 235.347656 52.246094 237.523438 50.179688 238.75 C 48.332031 241.121094 48.84375 242.046875 51.957031 242.523438 C 58 243.449219 60.5 250.09375 65.523438 253.308594 C 67.539063 254.203125 71.234375 252.972656 71.90625 255.660156 C 65.480469 260.480469 56.359375 262.402344 54.363281 271.042969 C 53.816406 273.410156 54.667969 273.078125 55.71875 271.859375 C 60.648438 266.152344 67.324219 259.1875 79.636719 259.355469 C 81.652344 260.925781 83.332031 263.277344 81.988281 265.742188 C 76.179688 271.546875 70.285156 275.3125 64.125 280.074219 C 56.753906 285.773438 49.316406 282.328125 44 277.65625 C 38.777344 273.0625 34.015625 269.171875 29.421875 266.964844 C 10.398438 257.835938 2.859375 245.585938 4.738281 232.382813 C 7.453125 213.292969 27.550781 200.121094 42.449219 188.796875 C 47.667969 188.613281 51.898438 186.066406 56.140625 183.558594 C 62.660156 179.695313 66.957031 178.425781 72.261719 177.535156 C 75.546875 176.984375 78.894531 176.558594 81.363281 174.007813 C 82.71875 172.605469 84.140625 170.328125 88.484375 171.4375 C 91.230469 173.960938 93.980469 177.277344 97.085938 179.644531 C 102.015625 183.402344 106.363281 180.992188 106.339844 174.421875 C 106.316406 168.078125 106.757813 164.035156 109.746094 162.054688 C 111.8125 160.683594 114.273438 163.972656 116.257813 160.574219 C 122.085938 160.859375 126.523438 164.566406 131.457031 167.039063 C 136.132813 169.386719 139.546875 166.085938 141.234375 160.910156 C 153.636719 162.609375 171.265625 171.855469 180.433594 179.054688 C 189.84375 178.046875 196.449219 186.558594 204.625 190.027344 C 215.941406 192.179688 224.519531 214.460938 224.6875 219.976563 C 224.914063 227.367188 219.976563 234.007813 216.722656 240.429688 C 212.304688 242.964844 213.085938 247.828125 211.734375 251.664063 C 210.035156 256.484375 203.789063 258.417969 194.097656 262.605469 C 192.640625 259.859375 187.320313 241.492188 184.800781 233.484375 C 186.257813 232.140625 187.265625 228.78125 190.515625 229.902344 C 191.96875 227.773438 189.953125 225.195313 190.066406 222.621094 C 190.867188 222.5625 193.035156 221.691406 193.1875 221.441406 C 193.71875 220.589844 193.207031 218.703125 192.160156 218.828125 C 188.550781 219.269531 184.101563 218.828125 180.769531 217.355469 C 176.90625 216.140625 176.117188 212.9375 175.800781 209.359375 C 175.335938 204.128906 174.730469 199.886719 172.667969 198.339844 C 170.855469 196.980469 170.527344 195.324219 170.550781 193.527344 C 170.578125 191.445313 171.082031 189.164063 170.308594 186.929688 C 169.8125 185.492188 167.46875 186.109375 167.46875 187.578125 C 167.464844 189.753906 168.390625 191.023438 167.238281 191.90625 C 165.726563 193.066406 164.230469 190.265625 162.460938 189.191406 C 161.292969 188.480469 159.429688 190.523438 160.117188 191.519531 C 161.019531 192.816406 163.980469 193.566406 164.644531 195.179688 L 163.859375 196.078125 C 163.859375 197.085938 164.304688 197.867188 165.089844 198.429688 C 166.320313 198.765625 167.21875 197.980469 168.339844 197.644531 C 173.828125 202.347656 172.59375 210.523438 173.9375 217.355469 C 181.160156 226.148438 184.90625 247.0625 186.046875 249.589844 C 189.820313 257.960938 194.457031 277.847656 189.617188 290.378906 C 189.925781 291.667969 190.578125 292.9375 191.3125 294.195313 C 193.523438 297.976563 196.507813 301.691406 193.3125 305.722656 C 192.753906 307.292969 193.285156 308.886719 193.734375 310.457031 C 195.953125 318.21875 190.3125 323.363281 180.480469 326.152344 C 154.320313 333.566406 143.394531 328.699219 127.3125 330.585938 C 118.753906 331.589844 109.089844 331.628906 99.09375 326.0625 C 96.566406 324.652344 94.972656 328.527344 97.855469 329.695313 C 114.539063 336.445313 128.0625 332.148438 144.722656 334.105469 C 152.539063 335.023438 184.34375 331.199219 191.296875 323.867188 C 198.535156 337.3125 187.484375 360.214844 180.21875 371.71875 C 176.875 377.011719 176.449219 385.199219 175.855469 391.636719 C 175.234375 398.359375 169.003906 413.144531 168.214844 415.25 C 163.117188 428.828125 149.53125 456.941406 145.265625 464.988281 C 143.632813 469.265625 144.699219 475.972656 142.390625 480.347656 C 140.929688 483.117188 132.011719 487.140625 128.355469 485.148438 C 126.636719 462.628906 143.1875 427.671875 145.265625 413.804688 C 146.316406 409.597656 148.90625 397.382813 150.179688 394.785156 C 153.046875 388.953125 157.035156 383.542969 154.226563 376.285156 C 156.242188 374.941406 159.378906 374.378906 160.273438 371.46875 C 157.8125 369.789063 151.3125 374.828125 148.515625 370.234375 C 144.328125 371.433594 148.332031 373.519531 150.53125 375.5 C 154.226563 379.867188 151.984375 383.789063 150.53125 387.148438 C 145.601563 396.050781 142.65625 407.167969 142.714844 410.109375 C 142.878906 418.445313 139.339844 425.242188 136.359375 432.25 C 134.304688 437.082031 123.988281 476.1875 125.554688 486.714844 L 120.289063 498.8125 C 115.074219 505.867188 108.503906 503.636719 104.164063 506.089844 C 93.085938 510.914063 77.707031 503.625 76.3125 499.453125 C 76.007813 498.542969 76.125 497.535156 77.171875 496.796875 C 87.941406 504.683594 103.472656 493.554688 105.253906 493.015625 C 108.179688 492.132813 105.347656 488.273438 102.898438 490.363281 C 94.742188 497.332031 81.644531 496.839844 77.214844 493.003906 C 75.433594 491.460938 74.042969 488.566406 76.628906 483.3125 C 80.832031 474.769531 85.707031 476.671875 85.632813 460.929688 C 85.5625 445.253906 86.570313 441.519531 94.617188 424.316406 C 97.335938 418.5 98.488281 410.574219 97.636719 399.421875 C 97.351563 395.699219 96.300781 366.761719 93.570313 360.816406 C 89.714844 352.433594 94.503906 337.878906 95.804688 332.96875 C 96.464844 330.476563 93.316406 330.671875 93.03125 332.523438 C 91.644531 341.613281 86.714844 350.0625 89.714844 359.371094 C 94.472656 369.414063 92.53125 384.761719 94.6875 398.699219 C 96.535156 410.65625 92.085938 421.488281 87.992188 432.167969 C 83.71875 443.335938 81.515625 443.496094 82.570313 455.183594 C 83.273438 462.96875 83.414063 467.835938 78.984375 473.726563 C 73.441406 481.109375 70.25 486.105469 73.171875 497.222656 C 73.691406 499.195313 74.851563 501.128906 72.136719 501.703125 C 70.707031 502.003906 45.832031 504.445313 35.695313 507.210938 C 9.617188 514.320313 20.75 533.109375 49.257813 535.171875 C 61.378906 536.046875 74.023438 528.660156 86.019531 525.804688 C 90.722656 532.972656 119.394531 524.011719 126.339844 521.773438 C 135.296875 525.578125 145.828125 521.773438 155.796875 523.003906 C 163.941406 524.507813 173.816406 529.695313 182.78125 529.5 C 207.53125 528.960938 205.640625 501.792969 183.683594 498.492188 C 172.019531 496.742188 162.816406 488.578125 150.195313 490.410156 C 143.363281 491.195313 149.746094 484.476563 144.929688 482.683594 C 147.226563 481.003906 148.390625 475.449219 148.464844 474.496094 C 150.101563 453.390625 175.871094 416.152344 178.28125 395.296875 C 179.171875 387.574219 179.222656 379.492188 182.800781 372.855469 C 190.191406 359.128906 201.503906 346.238281 194.882813 318.605469 C 199.363281 315.132813 194.65625 308.746094 197.347656 304.941406 C 213.667969 308.496094 233.269531 299.277344 235.695313 286.402344 C 236.199219 283.738281 233.972656 279.425781 231.089844 279.257813 C 228.074219 279.085938 221.929688 285.785156 218.210938 288.859375 C 217.199219 289.695313 216.851563 289.394531 217.738281 288.347656 C 220.523438 285.050781 225.28125 281.738281 227.484375 278.960938 C 229.324219 276.640625 226.078125 270.953125 222.398438 272.328125 C 218.917969 273.632813 218.007813 276.945313 215.316406 279.816406 C 214.171875 281.042969 213.324219 280.871094 214.378906 279.316406 C 215.167969 278.15625 218.003906 274.117188 218.65625 272.570313 C 219.894531 269.621094 217.039063 266.851563 213.890625 269.4375 C 212.433594 270.640625 209.351563 273.40625 207.828125 274.207031 C 205.742188 275.308594 205.601563 275.25 207.128906 273.175781 C 208.894531 270.773438 213.839844 268.929688 210.59375 264.859375 C 209.480469 263.46875 207.945313 261.957031 207.5 261.484375 C 206.941406 260.894531 207.132813 259.894531 210.226563 258.125 C 214.855469 255.734375 215.351563 249.539063 215.492188 248.460938 C 215.671875 247.074219 216.058594 245.742188 217.507813 244.796875 C 221.300781 244.617188 220.425781 259.832031 228.835938 266.394531 C 236.207031 272.144531 236.699219 274.144531 238.683594 281.285156 C 239.765625 285.191406 240.117188 296.125 235.671875 301.484375 C 228.976563 309.554688 224.476563 315.613281 229.601563 322.636719 C 222.550781 327.855469 220.179688 335.046875 218.238281 342.394531 C 214.1875 357.714844 213.910156 370.355469 208.792969 383.925781 C 206.015625 391.289063 206.210938 394.582031 211.882813 396.730469 C 217.582031 398.894531 236.019531 400.539063 239.683594 401.261719 C 240.054688 409.804688 239.578125 417.960938 237.296875 425.414063 C 230.140625 448.808594 224.277344 477.847656 213.738281 483.589844 C 210.039063 485.601563 207.574219 490.230469 212.777344 494.902344 C 215.382813 497.238281 228.078125 498.875 234.605469 498.550781 C 246.140625 502.226563 259.914063 508.230469 270.195313 514.9375 C 278.902344 520.613281 277.847656 533.421875 267.363281 532.046875 C 259.679688 531.042969 237.980469 525.964844 233.613281 518.425781 C 232.050781 515.726563 229.488281 514.398438 226.777344 513.226563 C 220.816406 510.648438 209.105469 504.085938 205.261719 501.101563 C 203.441406 499.691406 204.277344 497.371094 206.367188 494.148438 C 207.621094 492.207031 202.363281 491.933594 200.605469 493.582031 C 198.910156 495.175781 198.074219 497.496094 201.589844 501.617188 C 206.222656 507.046875 214.894531 512.832031 228.371094 517.738281 C 236.238281 530.449219 259.007813 535.597656 266.96875 536.003906 C 282.46875 536.800781 284.328125 524.445313 273.953125 512.585938 C 278.222656 512.269531 282.671875 513.109375 287.304688 513.8125 C 295.664063 515.078125 298.117188 514.582031 304.78125 512.660156 C 310.21875 511.09375 316.117188 509.746094 321.890625 510.914063 C 325.136719 511.570313 324.890625 508.019531 321.859375 507.511719 C 318.148438 506.886719 313.773438 508.167969 310.578125 507.324219 C 313.101563 502.59375 310.195313 498.300781 304.785156 495.917969 C 295.007813 491.617188 267.402344 488.789063 264.617188 488.773438 C 261.828125 488.761719 259.394531 488.339844 258.609375 485.148438 C 273.402344 470.355469 281.769531 465.289063 286.722656 452.769531 C 287.859375 449.894531 289.417969 447.199219 291.152344 444.582031 C 303.148438 426.5 314.652344 416.234375 319.875 392.746094 C 323.390625 391.464844 328.039063 390.730469 332.039063 388.847656 C 340.046875 385.085938 340.996094 380.507813 341.109375 370.347656 C 341.324219 351.292969 332.769531 321.03125 323.40625 313.402344 C 323.125 313.175781 321.433594 311.871094 321.679688 310.34375 C 322.257813 306.773438 320.320313 295.984375 316.234375 289.898438 C 312.445313 284.246094 308.140625 277.898438 306.613281 268.007813 C 305.511719 260.875 312.582031 259.496094 318.328125 256.777344 C 328.96875 251.738281 329.71875 239.902344 325.136719 227.101563 C 335.183594 224.511719 345.230469 220.199219 352.796875 212.480469 C 355.382813 209.84375 356.386719 209.203125 354.636719 205.429688 C 354.148438 204.375 353.695313 203.59375 354.035156 203.523438 C 360.335938 201.84375 379.386719 193.304688 381.585938 191.148438 C 382.398438 195.414063 383.488281 196.535156 385.734375 198.621094 C 387.75 200.496094 388.152344 203.253906 388.089844 206.128906 C 388.007813 209.816406 388.957031 220.09375 390.089844 224.617188 C 392.628906 234.753906 402.195313 233.960938 405.820313 237.238281 C 398.949219 244.148438 393.738281 250.808594 395.613281 257.257813 C 396.714844 260.714844 402.527344 260.085938 405.25 257.09375 C 406.28125 255.957031 406.976563 255.125 406.246094 258.902344 C 405.753906 260.375 409.851563 263.929688 412.855469 259.007813 C 414.210938 256.785156 414.476563 255.027344 415.457031 257.46875 C 416.03125 258.902344 416.988281 260.679688 418.949219 260.175781 C 425.089844 258.59375 424.878906 253.3125 424.523438 252.386719 C 422.085938 245.953125 430.042969 232.089844 428.976563 228.460938 C 429.917969 229.835938 433.5 230.210938 434.585938 230.5 C 437.453125 231.265625 436.835938 233.308594 435.273438 236.886719 C 431.46875 245.589844 428.324219 253.507813 430.003906 255.648438 C 432.230469 258.488281 436.296875 257.371094 436.789063 254.40625 C 437.300781 251.328125 438.328125 252.238281 438.71875 254.132813 C 439.660156 258.703125 444.304688 259.070313 445.210938 254.917969 C 445.398438 254.058594 445.300781 253.640625 446.328125 253.355469 C 446.839844 253.214844 447.574219 254.101563 448.351563 255.300781 C 449.644531 257.304688 452.171875 255.878906 452.363281 254.289063 C 452.492188 253.25 452.492188 252.171875 452.339844 251.222656 C 453.015625 251.230469 454.511719 252.15625 455.015625 252.046875 C 458.242188 251.332031 458.082031 248.324219 456.691406 245.609375 C 454.835938 241.992188 451.636719 238.339844 453.714844 235.949219 C 454.191406 235.382813 454.636719 234.820313 455.050781 234.261719 C 462.988281 223.546875 459.402344 214.4375 451.234375 217.121094 C 447.523438 218.34375 446.753906 217.980469 446.371094 215.09375 C 445.484375 208.398438 446.484375 203.941406 449.617188 199.542969 C 454.457031 192.757813 453.25 184.726563 449.679688 177.484375 C 452.144531 174.515625 451.921875 159.40625 456.140625 156.574219 C 460.898438 153.378906 458.078125 139.777344 451.863281 138.144531 C 455.082031 126.886719 469.710938 126.796875 471.222656 127.207031 C 471.800781 127.363281 472.105469 128.292969 472.289063 129.480469 C 472.558594 131.214844 472.570313 133.492188 472.816406 134.726563 C 473.445313 137.933594 476.539063 141.34375 478.550781 137.257813 C 479.402344 135.523438 479.980469 133.378906 480.761719 133.023438 C 482.039063 132.441406 481.648438 135.945313 481.894531 137.738281 C 482.316406 140.796875 487.257813 140.910156 488.324219 136.40625 C 488.949219 133.753906 487.839844 131.417969 489.195313 130.511719 C 489.796875 130.105469 490.675781 132.027344 491.90625 133.625 C 493.972656 136.308594 500.105469 132.433594 498.023438 127.226563 Z M 475.96875 60.023438 C 476.835938 57.324219 478.832031 59.097656 478.3125 61.105469 C 477.847656 62.890625 475.441406 61.65625 475.96875 60.023438 Z M 110.914063 63.199219 C 109.382813 67.972656 104.066406 68.738281 100.789063 65.386719 C 97.269531 61.777344 98.554688 52.074219 99.847656 50.085938 C 102.0625 46.679688 106.949219 44.695313 110.226563 50.519531 C 111.566406 52.902344 112.199219 59.179688 110.914063 63.199219 Z M 76.386719 254.878906 C 74.707031 250.507813 70.449219 250.285156 66.644531 249.613281 C 61.894531 247.132813 60.972656 240.800781 55.945313 240.703125 C 55.519531 240.695313 53.585938 240.085938 54.132813 238.832031 C 54.53125 237.90625 54.925781 236.886719 54.464844 236.257813 C 50.261719 231.859375 59.277344 227.96875 63.84375 224.636719 C 65.855469 224.925781 66.113281 226.828125 66.25 228.804688 C 66.519531 232.730469 70.832031 236.316406 71.675781 241.144531 C 72.308594 244.757813 78.089844 248.070313 76.386719 254.878906 Z M 67.539063 281.085938 L 82.433594 270.667969 C 100.894531 278.210938 101.957031 293.164063 97.660156 308.988281 C 94.082031 322.175781 78.8125 340.488281 63.480469 338.800781 C 59.65625 338.382813 59.480469 335.117188 63.035156 334.289063 C 66.550781 333.472656 70.226563 332.859375 72.917969 330.203125 C 75.21875 327.933594 73.46875 325.570313 70.542969 327.335938 C 66.679688 329.671875 60.273438 331.246094 56.78125 330.953125 C 52.355469 330.585938 51.617188 324.820313 57.625 324.507813 C 61.75 324.289063 66.574219 323.316406 69.722656 320.824219 C 71.304688 319.574219 72.175781 314.546875 68.6875 314.523438 C 65.949219 314.503906 54.742188 318.378906 52.378906 319.613281 C 45.730469 323.074219 43.328125 314.699219 49.703125 312.921875 C 53.382813 311.894531 59.195313 311.269531 62.757813 310.011719 C 66.589844 308.535156 63.984375 304.707031 60.949219 305.847656 C 58.433594 306.789063 52.613281 308.835938 48.527344 309.15625 C 42.8125 309.601563 42.121094 305.207031 47.808594 303.238281 C 50.503906 302.304688 58.320313 303.1875 61.003906 301.921875 C 62.164063 301.375 62.519531 300.160156 60.988281 300.246094 C 59.058594 300.351563 54.535156 300.351563 52.449219 300.054688 C 49.082031 299.582031 46.785156 296.71875 53 295.007813 C 54.628906 294.558594 56.28125 294.300781 57.34375 294.367188 C 61.675781 294.644531 68.710938 296.503906 72.902344 296.972656 C 77.78125 297.523438 79.078125 288.941406 75.429688 286.230469 C 73.75 284.984375 71.390625 284.359375 69.292969 283.703125 C 65.449219 282.5 67.539063 281.085938 67.539063 281.085938 Z M 106.03125 161.5625 C 103.800781 163.648438 103.601563 168.339844 103.792969 172.53125 C 104.078125 178.707031 101.230469 179.3125 96.410156 175.351563 C 93.234375 172.746094 90.925781 168.960938 88.902344 165.375 C 86.453125 161.023438 92.554688 156.261719 95.316406 154.859375 C 98.785156 156.878906 102.820313 157.886719 106.964844 158.558594 C 107.871094 159.832031 106.972656 160.679688 106.03125 161.5625 Z M 131.558594 163.464844 C 127.257813 161.746094 124.035156 157.414063 119.058594 157.324219 C 120.179688 154.523438 122.980469 154.859375 124.769531 152.0625 C 128.496094 152.257813 133.761719 152.109375 136.296875 155.898438 C 138.910156 159.804688 136.304688 165.359375 131.558594 163.464844 Z M 180.769531 221.390625 C 183.121094 221.277344 185.054688 222.636719 186.957031 222.71875 C 187.628906 225.296875 186.355469 227.6875 183.570313 228.667969 C 182.742188 226.597656 180.769531 223.742188 180.769531 221.390625 Z M 117.335938 519.789063 C 109.613281 522.6875 101.066406 525.671875 92.070313 525.117188 C 87.597656 524.84375 87.5625 520.054688 83.277344 522.671875 C 79.660156 524.878906 52.570313 537.296875 34.449219 527.792969 C 24.527344 522.585938 24.03125 517.28125 34.894531 511.644531 C 42.832031 507.53125 53.59375 508.085938 62.609375 506.089844 C 63.082031 506.71875 62.726563 507.515625 62.742188 508.316406 C 62.785156 510.339844 66.605469 511.820313 66.8125 509.363281 C 67.28125 503.710938 70.492188 504.625 71.175781 506.855469 C 71.875 509.132813 72.082031 512.039063 75.601563 510.570313 C 76.8125 509.417969 76.050781 508.425781 75.292969 507.421875 C 74.511719 506.382813 73.730469 505.332031 75.15625 504.074219 C 84.867188 511.472656 101.828125 511.910156 116.257813 506.539063 C 124.535156 509.921875 125.660156 516.664063 117.335938 519.789063 Z M 151.980469 493.640625 C 160.03125 494.054688 167.359375 495.816406 174.480469 499.378906 C 181.035156 502.660156 185.652344 499.695313 193.433594 508.652344 C 204.945313 521.910156 183.535156 527.984375 174.433594 524.695313 C 158.207031 518.832031 150.46875 518.628906 137.417969 519.777344 C 133.527344 520.121094 129.464844 520.261719 126.785156 517.738281 C 130.019531 510.683594 120.738281 504.859375 120.738281 504.859375 L 128.019531 489.964844 C 133.035156 489.457031 138.679688 488.441406 142.78125 485.789063 C 144.199219 484.871094 144.339844 486.082031 143.824219 487.359375 C 142.515625 490.613281 139.28125 492.257813 136.417969 493.996094 C 136.082031 495.339844 136.980469 496.570313 138.097656 496.796875 C 140.058594 496.746094 141.414063 495.414063 142.746094 494.238281 C 144.460938 492.722656 150.984375 493.589844 151.980469 493.640625 Z M 207.777344 270.257813 C 206.777344 271.011719 205.566406 272.332031 204.925781 273.855469 C 204.515625 274.839844 204.832031 277.628906 208.144531 276.027344 C 209.679688 275.289063 212.523438 272.425781 213.800781 271.613281 C 215.96875 270.230469 218.957031 270.65625 216.632813 273.691406 C 215.425781 275.265625 213.128906 278.1875 212.53125 280.660156 C 212.21875 281.941406 212.695313 283.941406 215.179688 281.863281 C 217.3125 280.074219 219.019531 277.03125 220.902344 275.402344 C 224.980469 271.878906 226.542969 276.113281 225.722656 278.171875 C 224.113281 282.21875 219.628906 283.644531 216.433594 286.863281 C 213.988281 289.324219 217.265625 293.175781 219.476563 290.636719 C 221.824219 287.929688 224.5 284.949219 227.472656 283.242188 C 231.179688 281.109375 233.253906 282.019531 232.75 285.585938 C 231.40625 295.0625 217.011719 302.921875 198.578125 301.691406 C 196.320313 298.210938 195.011719 294.414063 193.652344 290.566406 C 196.195313 283.953125 194.546875 266.1875 194.546875 266.1875 C 196.574219 264.089844 201.390625 263.140625 204.472656 263.527344 C 207.769531 263.941406 212.023438 267.050781 207.777344 270.257813 Z M 430.417969 64.589844 C 434.761719 64.078125 436.46875 60.550781 431.558594 58.351563 C 435.769531 56.25 439.730469 58.738281 438.710938 61.882813 C 437.609375 65.28125 435.300781 68.617188 431.199219 66.15625 C 430.472656 65.710938 430.082031 65.261719 430.417969 64.589844 Z M 226.328125 488.257813 C 223.441406 488.148438 222.195313 491.148438 225.023438 491.777344 C 226.808594 492.179688 229.054688 492.441406 230.9375 492.34375 C 235.019531 492.140625 230.996094 497.339844 227.164063 496.492188 C 225.449219 496.109375 221.378906 495.304688 218.855469 494.558594 C 212.253906 492.601563 212.488281 489.105469 217.652344 486.066406 C 224.136719 482.253906 246.328125 419.984375 244.277344 401.589844 C 249.109375 401.835938 271.222656 401.835938 277.609375 401.382813 C 280.339844 412.203125 265.652344 445.175781 261.152344 452.460938 C 256.335938 460.253906 245.953125 477.011719 239.589844 483.523438 C 235.648438 487.554688 230.519531 488.417969 226.328125 488.257813 Z M 304.242188 499.703125 C 309.589844 502.527344 307.121094 506.992188 300.9375 509.488281 C 291.996094 513.097656 277.148438 507.011719 267.457031 508.890625 C 258.835938 503.851563 249.203125 501.050781 240.019531 497.242188 C 233.34375 494.816406 237.980469 487.109375 243.265625 487.667969 C 245.804688 487.933594 249.101563 488.949219 254.203125 488.039063 C 255.5625 487.796875 256.539063 488.464844 255.355469 489.152344 C 254.128906 489.867188 252.300781 490.078125 251.25 490.613281 C 249.015625 491.742188 251.65625 493.976563 253.496094 493.441406 C 264.535156 490.238281 293.453125 494.003906 304.242188 499.703125 Z M 295.878906 431.925781 C 291.988281 436.902344 288.019531 441.78125 285.628906 447.546875 C 279.976563 461.167969 269.882813 470.824219 257.085938 481.269531 C 253.429688 484.25 249.539063 486.492188 244.050781 485.484375 C 255.132813 468.140625 282.113281 429.269531 282.800781 400.8125 C 285.679688 400.074219 310.511719 396.214844 315.058594 394.765625 C 315.789063 404.441406 300.609375 425.867188 295.878906 431.925781 Z M 336.785156 377.851563 C 333.648438 385.691406 312.160156 390.53125 308.566406 390.78125 C 302.609375 391.199219 296.578125 391.054688 291.269531 393.539063 C 284.617188 396.65625 232.828125 399.484375 216.199219 394.042969 C 210.933594 392.320313 210.519531 387.347656 213.039063 382.886719 C 223.464844 364.402344 214.351563 338.285156 234.03125 326.011719 C 269.113281 338.113281 304.914063 332.472656 320.601563 317.769531 C 324.527344 321.71875 340.21875 349.140625 336.785156 377.851563 Z M 325.136719 223.070313 C 320.484375 218.058594 319.09375 222.046875 319.9375 224.847656 C 326.261719 245.851563 324.960938 247.84375 310.464844 256.472656 C 304.960938 259.746094 302.402344 263.003906 303.339844 269.207031 C 304.460938 276.652344 306.433594 284.128906 311.519531 290.324219 C 317.089844 297.105469 319.328125 306.691406 316.625 313.789063 C 305.414063 329.886719 257.433594 329.382813 237.429688 322.613281 C 235.15625 321.84375 233.183594 320.558594 231.953125 318.15625 C 230.191406 311.308594 235.6875 307.460938 239.476563 303.097656 C 244.574219 297.226563 246.933594 276.351563 234.023438 265.703125 C 224.339844 257.714844 227.015625 252.714844 221.539063 241.996094 C 222.171875 235.980469 225.882813 231.082031 227.449219 225.5625 C 229.242188 219.25 226.753906 207.195313 221.875 201.230469 C 231.84375 190.925781 247.632813 193.164063 258.609375 184.765625 C 261.742188 185.601563 274.515625 178.828125 276.304688 179.949219 C 271.117188 187.011719 269.082031 192.929688 267.121094 205.15625 C 264.886719 219.085938 261.847656 223.953125 255.503906 225.160156 C 252.675781 225.699219 236.664063 228.917969 235.980469 228.691406 C 234.660156 228.246094 233.234375 230.886719 233.800781 231.425781 C 237.429688 234.902344 248.089844 231.253906 254.765625 229.816406 C 262.449219 228.164063 265.246094 225.925781 267.457031 219.820313 C 270.621094 223.207031 273.757813 226.664063 276.9375 229.988281 C 285.066406 238.492188 299.613281 235.355469 295.496094 218.832031 C 294.015625 212.886719 290.964844 207.644531 285.265625 204.925781 C 289.074219 202.574219 294.113281 201.339844 298.480469 199.660156 C 311.261719 203.769531 331.136719 197.085938 345.746094 189.132813 C 345.519531 192.332031 346.566406 202.285156 350.5625 205.261719 C 347.984375 216.238281 334.769531 220.15625 325.136719 223.070313 Z M 270.574219 209.671875 C 271.449219 208.582031 278.210938 207.054688 281.234375 206.4375 C 287.421875 208.714844 289.84375 215.085938 291.601563 220.773438 C 293.886719 228.15625 285.765625 233.824219 279.023438 227.070313 C 276.046875 224.085938 271.527344 219.019531 269.34375 215.9375 C 269.671875 214.574219 270.304688 210.988281 270.574219 209.671875 Z M 309.984375 194.9375 C 316.691406 192.644531 339.363281 184.300781 344.332031 183.199219 C 345.160156 183.015625 345.539063 184.675781 344.839844 185.210938 C 334.140625 193.445313 317.953125 196.679688 310.203125 197.296875 C 305.558594 197.667969 306.777344 196.03125 309.984375 194.9375 Z M 352.167969 199.699219 C 349.589844 195.21875 348.769531 188.273438 350.898438 183.980469 C 358.738281 184.09375 366.660156 181.40625 372.933594 177.933594 C 376.292969 179.390625 378.5625 185.550781 382.453125 187.199219 C 382.453125 187.199219 362.828125 196.421875 352.167969 199.699219 Z M 376.269531 175.046875 C 375.519531 172.871094 374.421875 171.605469 371.058594 173.902344 C 364.898438 178.492188 359.546875 179.203125 352.269531 178.753906 C 351.597656 177.96875 347.539063 177.632813 346.195313 177.410156 C 327.9375 183.792969 311.027344 190.140625 293.328125 197.644531 C 289.195313 199.257813 271.152344 204.140625 271.152344 204.140625 C 271.46875 197.117188 272.992188 190.308594 281.234375 183.980469 C 299.539063 180.929688 336.601563 167.933594 341.507813 162.5625 C 343.136719 160.78125 343.617188 158.542969 344.148438 156.308594 C 345.488281 150.671875 351.011719 141.042969 357.917969 135.59375 C 364.535156 130.371094 364.003906 134.78125 362.410156 137.609375 C 360.609375 140.8125 358.378906 143.804688 356.261719 146.867188 C 353.640625 150.652344 356.238281 153.21875 361.742188 150.339844 C 369.414063 146.328125 380.316406 140.882813 387.449219 138.878906 C 393.855469 137.078125 400.773438 138.808594 405.613281 140.496094 C 410.613281 142.238281 409.5625 145.914063 403.820313 147.21875 C 401.496094 147.746094 394.257813 147.113281 388.15625 147.476563 C 379.828125 147.972656 382.910156 154.710938 388.128906 155.597656 C 394.261719 156.644531 400.796875 156.207031 405.140625 157.734375 C 409.78125 159.371094 408.578125 164.742188 401.519531 163.539063 C 397.359375 162.636719 390.566406 161.695313 385.390625 160.125 C 381.195313 158.855469 381.023438 163.804688 385.832031 165.234375 C 390.539063 166.636719 395.957031 167.019531 399.355469 169.738281 C 403.574219 173.113281 401.289063 176.835938 395.882813 175.402344 C 391.21875 174.164063 390.460938 172.535156 386.140625 170.152344 C 383.1875 168.527344 382.289063 171.820313 384.460938 173.558594 C 387.640625 176.105469 386.980469 175.320313 389.414063 177.996094 C 391.292969 180.0625 391.734375 185.746094 385.082031 184.308594 C 381.855469 183.609375 377.074219 177.378906 376.269531 175.046875 Z M 452.972656 154.734375 C 449.144531 158.742188 448.203125 169.667969 447.609375 173.453125 C 447.011719 177.253906 442.277344 177.382813 443.519531 174.0625 C 444.554688 171.296875 443.5625 168.882813 441.460938 170.21875 C 439.921875 171.195313 438.769531 173.285156 437.261719 174.046875 C 434.789063 175.296875 433.089844 172.691406 434.179688 170.652344 C 435.242188 168.660156 438.277344 167.5625 440.4375 166.316406 C 442.433594 165.167969 440.890625 162.648438 438.683594 163.210938 C 437.511719 163.511719 436.324219 163.945313 435.121094 164.296875 C 429.894531 165.828125 428.585938 161.285156 433.226563 158.78125 C 435.296875 157.660156 437.152344 156.796875 439.132813 156.097656 C 442.238281 155.003906 441.425781 150.945313 438.34375 151.210938 C 436.453125 151.371094 434.84375 151.148438 433.5625 150.714844 C 429.285156 149.277344 429.375 146.472656 433.492188 144.175781 C 439.195313 140.988281 448.390625 140.683594 451.097656 141.363281 C 453.355469 141.933594 457.203125 150.304688 452.972656 154.734375 Z M 491.585938 130.539063 C 490.757813 129.125 490.21875 127.402344 488.179688 128.359375 C 486.65625 129.503906 487.023438 133.015625 486.894531 135.433594 C 486.761719 137.96875 483.203125 138.191406 483.28125 135.640625 C 483.484375 129.046875 480.144531 129.523438 477.816406 134.550781 C 476.640625 137.089844 474.75 138.164063 474.339844 133.335938 C 474.136719 130.9375 475.003906 123.941406 469.671875 124.507813 C 462.609375 125.261719 452.03125 127.765625 449.957031 134.394531 C 449.316406 136.4375 448.617188 138.273438 445.648438 137.949219 C 438.445313 138.164063 424.03125 140.921875 427.238281 149.582031 C 428.371094 152.273438 432.066406 153.34375 435.484375 153.460938 C 438.855469 153.574219 438.554688 154.984375 434.945313 155.472656 C 430.816406 156.03125 427.203125 159.34375 427.164063 162.730469 C 427.121094 165.910156 430.316406 167.359375 433.628906 166.320313 C 434.507813 166.046875 437.007813 165.171875 437.5 165.089844 C 438.695313 164.890625 438.800781 165.234375 437.992188 166.007813 C 437.679688 166.308594 434.082031 167.863281 433.507813 168.28125 C 428.324219 172.085938 434.203125 179.351563 438.539063 175.09375 C 439.230469 174.417969 439.816406 173.578125 440.398438 172.972656 C 442.316406 170.984375 442.804688 172.035156 442.160156 173.628906 C 440.691406 177.253906 443.628906 179.800781 445.929688 179.878906 C 449.46875 185.105469 449.722656 191.675781 446.371094 196.285156 C 442.207031 202.023438 439.933594 211.375 443.324219 218.792969 C 444.519531 221.398438 445.539063 222.429688 450.527344 221.824219 C 451.726563 221.679688 452.949219 221.464844 454.160156 221.390625 C 456.289063 222.398438 455.28125 225.195313 454.945313 226.652344 C 453.039063 231.132813 447.328125 235.054688 450.128906 240.429688 L 454.972656 247.652344 C 455.796875 248.4375 455.5 250.582031 454.179688 250.414063 C 452.554688 250.210938 449.808594 247.84375 450.914063 251.292969 C 452.273438 254.285156 449.554688 254.558594 448.21875 252.046875 C 447.703125 251.074219 447.019531 250.621094 444.878906 251.222656 C 444.230469 251.714844 444.257813 252.824219 444.101563 253.859375 C 443.738281 256.265625 440.566406 256.03125 440.105469 253.976563 C 439.023438 249.175781 435.84375 250.804688 435.546875 253.027344 C 435 257.085938 430.6875 255.953125 431.382813 252.007813 C 432.304688 246.0625 435.695313 241.3125 438.773438 236.15625 C 440.804688 232.761719 438.527344 228.714844 436.128906 228.308594 C 434.769531 228.074219 429.496094 226.808594 428.484375 225.40625 C 427.160156 223.421875 425.964844 222.007813 425.285156 220.679688 C 421.835938 213.902344 425.402344 205.546875 426.121094 198.695313 C 426.285156 197.113281 427.039063 195.523438 424.703125 194.84375 C 425.746094 191.308594 423.792969 185.941406 428.34375 183.308594 C 429.839844 182.445313 428.355469 179.753906 426.578125 180.375 C 424.714844 181.023438 423.566406 183.277344 422.351563 184.316406 C 421.457031 182.859375 419.664063 181.070313 417.871094 182.300781 C 416.496094 183.640625 418.449219 185.5625 419.972656 187.667969 C 421.316406 189.527344 421.617188 192.816406 419.117188 195.226563 C 412.539063 201.570313 408.703125 214.878906 412.191406 216.902344 C 415.992188 219.113281 417.652344 224.734375 422.328125 225.140625 C 425.320313 225.402344 426.59375 226.496094 426.320313 229.574219 C 425.867188 234.726563 419.179688 247.402344 421.457031 252.523438 C 424.546875 258.089844 417.433594 260.25 416.90625 256.382813 C 416.554688 253.773438 413.300781 253.71875 411.363281 258.21875 C 410.132813 261.082031 406.683594 259.488281 408.324219 256.585938 C 410.140625 253.367188 406.097656 251.960938 405.171875 253.96875 C 402.167969 260.484375 396.839844 257.445313 397.492188 254.433594 C 398.761719 248.542969 404.800781 241.910156 409.359375 237.515625 C 411.546875 235.152344 407.835938 232.398438 405.863281 232.085938 C 400.664063 231.257813 396.953125 229.699219 395.222656 226.867188 C 391.65625 221.035156 390.199219 210.839844 392.128906 203.863281 C 392.886719 201.121094 388.839844 197.078125 387.4375 196.15625 C 385.054688 194.589844 383.878906 190.234375 386.625 187.648438 C 392.679688 188.199219 394.875 180.683594 392.589844 178.328125 C 391.410156 177.113281 389.542969 175.515625 387.855469 174.132813 C 386.300781 172.859375 386.371094 172.292969 388.472656 173.460938 C 392.753906 175.839844 394.769531 177.960938 397.683594 177.894531 C 404.238281 177.746094 404.777344 174.433594 403.308594 170.921875 C 401.59375 166.820313 393.644531 165.832031 389.015625 164.242188 C 385.875 163.164063 386.078125 162.710938 389.164063 163.339844 C 395.179688 164.566406 404.109375 167.367188 407.589844 165.433594 C 411.542969 163.238281 413.28125 156.800781 407.613281 155.507813 C 403.035156 154.464844 396.210938 154.160156 391.496094 153.199219 C 386.910156 152.265625 387.507813 150.507813 391.664063 150.417969 C 396.085938 150.324219 401.289063 151.085938 405.503906 150.425781 C 413.117188 149.230469 414.21875 139.835938 407.511719 136.5 C 401.972656 133.746094 393.335938 132.320313 386.402344 134.699219 C 386.457031 132.574219 387.71875 130.863281 389.1875 129.242188 C 392.640625 125.425781 395.011719 114.597656 392.847656 112.816406 C 390.03125 110.496094 387.921875 107.054688 386.066406 104.125 C 379.457031 105.46875 373.746094 108.71875 367.921875 111.742188 C 368.746094 114.96875 367.019531 118.503906 365.40625 120.582031 C 362.769531 123.980469 359.886719 123.851563 360.800781 120.46875 C 361.289063 118.660156 362.21875 117.78125 360.152344 116.222656 C 356.246094 116.222656 356.253906 119.835938 353.902344 122.277344 C 350.601563 125.710938 349.828125 122.503906 352.347656 119.484375 C 356.785156 114.164063 353.0625 114.074219 351.234375 115.464844 C 347.160156 117.621094 348.132813 118.945313 346.3125 119.484375 C 343.601563 120.289063 342.382813 118.335938 344.191406 116.382813 C 345.816406 114.628906 347.976563 113.816406 350.285156 112.863281 C 353.621094 111.488281 352.410156 110.191406 350.527344 109.726563 C 349.84375 109.558594 345.601563 109.582031 344.34375 109.554688 C 340.972656 109.472656 341.496094 107.125 343.84375 106.144531 C 347.601563 104.574219 354.40625 103.960938 357.546875 105.089844 C 358.960938 105.484375 359.996094 105.132813 360.925781 104.566406 C 362.152344 103.820313 368.53125 100.390625 370.265625 98.699219 C 375.351563 93.730469 379.683594 86.480469 386.617188 90.453125 C 387.382813 90.890625 399.882813 99.300781 403.8125 106.546875 C 405.871094 110.339844 411.667969 109.195313 415.320313 107.699219 C 418.207031 106.519531 418.65625 104.796875 418.65625 102.894531 C 414.429688 101.773438 410.507813 102.25 411.574219 95.585938 C 422.265625 97.324219 431.855469 92.683594 433.085938 83.90625 C 433.523438 80.777344 430.035156 77.9375 426.160156 79.660156 C 423.742188 80.738281 421.101563 82.9375 418.261719 83.15625 C 414.59375 83.445313 410.878906 81.273438 409.808594 77.917969 C 409.152344 72.890625 410.964844 73.269531 414.589844 70.464844 C 416.132813 69.269531 414.046875 66.496094 412.402344 66.292969 C 409.960938 65.992188 407.609375 65.214844 406.042969 63.222656 C 402.457031 58.667969 415.488281 53.402344 420.671875 62.125 C 421.679688 63.355469 423.65625 63.355469 425.152344 62.125 L 425.488281 61.789063 C 426.730469 75.6875 442.652344 71.742188 443.226563 59.058594 C 450.617188 58.722656 461.777344 58.429688 467.039063 65.371094 C 466.082031 66.171875 465.148438 65.476563 464.25 64.875 C 462.203125 63.503906 459.992188 64.785156 461.742188 67.707031 C 463.5625 70.738281 469.839844 69.40625 469.839844 69.40625 C 470.136719 71.285156 471.199219 73.230469 471.945313 75.164063 C 473.859375 80.136719 470.621094 84.351563 467.824219 85.980469 C 465.195313 81.246094 459.503906 82.34375 455.390625 80.359375 C 454.835938 80.09375 451.648438 81.152344 453.378906 83.964844 C 456.066406 85.867188 459.761719 85.195313 462.671875 86.765625 C 465.730469 88.632813 466.113281 92.570313 463.363281 94.109375 C 460.761719 95.570313 460.296875 95.273438 458.316406 93.082031 C 457.179688 91.824219 453.265625 94.207031 453.964844 96.183594 C 454.675781 98.195313 458.957031 97.371094 459 99.835938 C 459.070313 104.066406 454.640625 105.484375 449.25 107.714844 C 445.757813 109.15625 442.972656 110.929688 444.082031 115.773438 C 445.40625 119.242188 447.367188 118.910156 449.433594 117.980469 C 451.03125 117.257813 464.949219 112.246094 469.355469 114.257813 C 475.902344 116.707031 479.949219 123.066406 483.867188 119.820313 C 485.65625 118.859375 487.230469 116.414063 488.878906 114.90625 C 491.101563 112.871094 493.566406 114.800781 492.5 116.789063 C 491.597656 118.476563 488.84375 123.328125 491.769531 124.609375 C 493.554688 125.394531 495.375 126.972656 496.210938 128.484375 C 498.027344 131.773438 493.238281 133.371094 491.585938 130.539063 Z M 421.710938 221.054688 C 418.898438 219.359375 414.203125 213.492188 414.328125 209.347656 C 414.464844 204.914063 418.324219 204.65625 421.121094 199.214844 C 423.726563 199.410156 418.964844 214.332031 421.710938 221.054688 "/>
<path style=" stroke:none;fill-rule:nonzero;fill:rgb(0%,0%,0%);fill-opacity:1;" d="M 102.5625 57.554688 C 101.507813 61.941406 108.082031 62.578125 108.027344 57.871094 C 107.996094 55.140625 103.476563 53.75 102.5625 57.554688 "/>
<path style=" stroke:none;fill-rule:nonzero;fill:rgb(0%,0%,0%);fill-opacity:1;" d="M 150.839844 278.230469 C 150.929688 285.929688 161.894531 284.621094 160.640625 276.230469 C 159.617188 269.378906 150.765625 271.589844 150.839844 278.230469 "/>
<path style=" stroke:none;fill-rule:nonzero;fill:rgb(0%,0%,0%);fill-opacity:1;" d="M 326.871094 514.917969 C 323.058594 515.664063 319.589844 515.988281 315.6875 515.644531 C 313.078125 515.414063 311.730469 518.058594 314.171875 519.003906 C 316.464844 519.886719 324.996094 518.125 327.855469 517.59375 C 330.710938 517.066406 329.238281 514.453125 326.871094 514.917969 "/>
<path style=" stroke:none;fill-rule:nonzero;fill:rgb(0%,0%,0%);fill-opacity:1;" d="M 344.035156 521.128906 C 341.71875 521.433594 339.640625 522.097656 337.53125 522.09375 C 335.089844 522.085938 334.992188 524.082031 337.183594 524.828125 C 339.148438 525.5 343.882813 525.628906 345.558594 523.5625 C 346.828125 521.996094 345.914063 520.882813 344.035156 521.128906 "/>
</g>
</svg>
