<?xml version="1.0" encoding="UTF-8"?>
<svg xmlns="http://www.w3.org/2000/svg" xmlns:xlink="http://www.w3.org/1999/xlink" width="314pt" height="631pt" viewBox="0 0 314 631" version="1.1">
<g id="surface1">
<path style=" stroke:none;fill-rule:nonzero;fill:rgb(0%,0%,0%);fill-opacity:1;" d="M 313.351563 232.644531 C 313.84375 229.816406 310.402344 230.0625 309.171875 228.832031 C 309.910156 227.96875 311.507813 227.601563 311.261719 226.125 C 311.140625 224.15625 309.414063 223.050781 307.695313 222.066406 C 291.703125 202.632813 286.046875 175.570313 264.890625 160.074219 C 263.046875 158.84375 258.203125 158.1875 257.09375 156.097656 C 260.09375 150.597656 265.214844 139.394531 269.878906 131.597656 C 273.09375 128.347656 275.480469 125.453125 276.941406 119.851563 C 277.800781 111.980469 271.898438 105.585938 265.992188 102.140625 C 259.226563 98.820313 247.789063 96.851563 241.515625 102.757813 C 238.441406 106.445313 237.335938 111.980469 239.179688 116.65625 C 242.253906 123.050781 248.25 126.214844 255.628906 125.847656 C 257.476563 126.828125 261.335938 126.144531 260.84375 129.097656 C 257.34375 135.097656 249.824219 153.074219 249.34375 153.070313 C 248.59375 152.097656 246.34375 150.097656 243.644531 149.484375 C 235.535156 145.992188 225.359375 148.214844 218.273438 142.976563 C 219.257813 141.5 218.765625 139.65625 219.75 138.179688 C 219.871094 133.507813 217.90625 129.445313 213.847656 127.234375 C 217.90625 123.050781 219.628906 117.640625 221.839844 112.226563 C 227.867188 108.046875 235.003906 102.511719 236.847656 94.515625 C 239.0625 94.636719 240.535156 92.179688 241.644531 90.949219 C 245.703125 85.414063 242.75 77.171875 241.027344 71.144531 C 242.75 69.914063 246.6875 71.636719 247.792969 68.5625 C 246.070313 61.429688 245.824219 53.1875 240.167969 48.144531 C 239.800781 43.714844 239.921875 38.796875 237.460938 35.476563 C 237.09375 32.398438 230.820313 29.324219 234.878906 26.863281 C 236.96875 22.4375 231.558594 19.238281 228.976563 16.535156 C 219.257813 12.105469 208.804688 8.785156 199.945313 2.757813 C 189.984375 2.878906 178.667969 -1.792969 169.933594 3.25 C 164.769531 -3.636719 155.296875 0.910156 150.746094 5.09375 C 144.472656 10.136719 134.386719 4.480469 129.714844 12.105469 C 127.992188 15.179688 127.992188 18.503906 129.714844 21.328125 C 116.0625 26.496094 108.433594 40.394531 103.144531 52.941406 C 98.347656 62.65625 82.234375 71.390625 91.707031 83.320313 C 92.816406 84.058594 95.027344 82.828125 95.765625 84.429688 C 95.027344 90.578125 94.414063 97.46875 96.382813 102.757813 C 101.425781 106.9375 99.210938 116.902344 106.097656 119.359375 C 108.066406 120.222656 110.15625 118.992188 111.757813 118.992188 C 112.492188 122.191406 115.691406 125.019531 119.136719 125.511719 C 121.597656 126.496094 125.410156 124.648438 127.132813 126.988281 C 126.640625 127.972656 125.285156 127.972656 124.425781 128.710938 C 123.441406 130.429688 122.578125 132.398438 122.949219 134.613281 C 123.195313 135.964844 121.472656 136.089844 120.859375 135.226563 C 114.953125 133.261719 106.714844 133.382813 102.285156 137.933594 C 98.71875 134.121094 92.445313 132.398438 87.28125 133.136719 C 83.21875 132.277344 78.421875 140.515625 76.332031 132.644531 C 71.535156 128.832031 64.523438 128.585938 59.234375 130.554688 C 53.453125 134.367188 42.628906 137.933594 41.523438 146.421875 C 39.800781 148.019531 37.832031 144.820313 35.621094 144.945313 C 21.964844 143.347656 8.683594 148.390625 0.6875 159.703125 C 0.5625 164.871094 2.164063 169.546875 6.960938 172.496094 C 15.695313 174.464844 23.195313 169.175781 30.824219 167.699219 C 35.375 174.835938 36.355469 184.796875 39.433594 192.792969 C 37.21875 194.882813 33.527344 194.636719 30.578125 195.496094 C 29.714844 195.621094 28.730469 194.269531 29.960938 193.652344 C 31.558594 191.683594 35.128906 191.808594 36.480469 189.59375 C 36.097656 188.117188 35.375 187.378906 33.773438 187.75 C 30.207031 189.59375 25.410156 191.683594 25.535156 196.113281 C 26.148438 197.589844 27.992188 198.449219 29.714844 198.695313 C 40.417969 197.589844 50.011719 192.914063 60.097656 191.316406 C 63.664063 190.210938 67.351563 188.734375 70.675781 188.117188 C 62.679688 202.140625 61.203125 219.976563 55.667969 234.734375 C 56.53125 237.5625 59.972656 236.824219 62.1875 237.933594 C 61.820313 239.65625 59.972656 240.148438 58.867188 241.253906 C 58.621094 245.191406 62.554688 245.066406 65.140625 246.542969 C 66.371094 251.21875 64.523438 256.753906 65.140625 262.164063 C 72.273438 275.078125 89.492188 278.644531 104.007813 279.628906 C 108.558594 280.492188 113.109375 277.785156 117.660156 279.628906 C 116.554688 291.929688 116.429688 304.597656 114.339844 316.527344 C 113.476563 321.941406 113.96875 328.214844 111.757813 332.765625 C 111.265625 336.085938 111.757813 338.671875 114.953125 339.53125 C 113.601563 344.820313 120.242188 343.710938 122.949219 346.296875 C 126.269531 370.402344 118.398438 393.402344 118.273438 417.144531 C 117.414063 420.09375 118.765625 424.152344 117.046875 426.367188 C 114.214844 422.679688 114.339844 417.511719 112.371094 413.574219 C 101.671875 376.429688 82.851563 342.605469 74.855469 305.828125 C 73.378906 301.894531 69.9375 299.0625 70.429688 294.636719 C 72.273438 292.296875 76.210938 289.960938 75.101563 286.640625 C 73.625 285.039063 71.042969 285.039063 68.953125 285.535156 C 66.613281 283.074219 72.027344 283.195313 71.535156 280.246094 C 69.9375 276.679688 65.632813 276.921875 62.433594 275.816406 C 59.605469 270.035156 57.390625 263.640625 54.191406 257.488281 C 51.484375 252.691406 52.714844 245.804688 47.425781 242.730469 C 48.164063 241.378906 47.917969 239.65625 48.902344 238.300781 C 49.640625 235.351563 48.902344 232.398438 46.445313 230.554688 C 44.96875 229.078125 43.121094 230.921875 41.769531 231.167969 C 38.695313 231.289063 35.375 232.644531 32.914063 230.0625 C 30.945313 215.671875 16.429688 206.9375 21.351563 190.699219 C 23.441406 185.902344 29.839844 185.65625 34.144531 183.074219 C 34.511719 181.96875 33.945313 180.890625 32.914063 180.738281 C 27.746094 181.476563 22.703125 183.691406 19.015625 186.886719 C 17.046875 192.175781 16.429688 199.433594 18.398438 204.96875 C 24.304688 213.703125 27.253906 223.050781 31.191406 232.398438 C 34.636719 235.351563 40.910156 235.351563 44.96875 233.503906 C 47.058594 236.703125 43 239.777344 44.105469 243.34375 C 44.84375 244.574219 46.320313 244.820313 47.425781 245.929688 C 49.886719 257.488281 56.160156 267.328125 60.097656 277.785156 C 61.695313 279.875 65.140625 278.769531 67.476563 279.875 C 67.476563 282.335938 62.679688 283.566406 62.1875 286.148438 C 63.292969 289.839844 68.828125 287.503906 71.535156 288.117188 C 69.8125 290.824219 66.984375 293.160156 66.859375 296.480469 C 74.488281 306.320313 73.625 320.957031 78.667969 331.535156 C 92.324219 364.128906 102.777344 398.816406 114.953125 431.289063 C 117.660156 434.117188 118.273438 438.300781 117.046875 442.234375 C 115.816406 447.402344 121.105469 447.894531 123.5625 450.84375 C 120.980469 453.183594 117.660156 455.148438 117.90625 458.839844 C 119.503906 460.316406 122.703125 460.683594 124.671875 460.808594 C 125.164063 462.285156 123.808594 463.023438 123.195313 464.128906 C 120.488281 467.820313 120.859375 473.476563 122.949219 477.414063 C 123.070313 484.671875 119.136719 490.203125 120.613281 498.078125 C 119.136719 518.25 120.734375 537.929688 121.472656 557.730469 C 121.226563 562.652344 121.351563 568.554688 115.570313 569.539063 C 115.078125 577.78125 113.355469 587.496094 115.324219 596.105469 C 115.324219 596.96875 117.414063 597.582031 117.046875 599.058594 C 112.984375 603.242188 108.558594 607.914063 107.574219 614.679688 C 107.082031 619.355469 106.835938 624.398438 110.894531 627.105469 C 115.691406 629.808594 121.351563 630.425781 126.761719 628.824219 C 127.132813 626.980469 125.65625 625.996094 125.285156 624.398438 C 125.164063 623.167969 124.179688 619.722656 126.148438 620.214844 C 127.253906 623.414063 127.5 626.121094 129.46875 628.824219 C 133.527344 630.179688 132.664063 624.027344 135.617188 622.921875 C 136.109375 624.273438 135.863281 625.875 135.988281 627.347656 C 138.9375 632.636719 145.582031 628.457031 150.746094 629.6875 C 154.4375 630.546875 157.511719 630.792969 161.078125 630.054688 C 165.136719 630.179688 170.425781 632.144531 174.609375 630.546875 C 176.945313 627.964844 179.773438 630.179688 182.605469 628.824219 C 182.726563 627.226563 180.019531 610.128906 175.222656 604.964844 C 175.59375 603.980469 176.085938 603.933594 177.316406 604.347656 C 179.28125 600.660156 178.175781 594.386719 179.652344 589.835938 C 180.019531 584.792969 182.234375 576.550781 175.46875 574.828125 C 175.347656 570.648438 175.59375 566.585938 176.332031 562.652344 C 176.699219 560.683594 182.234375 530.550781 179.28125 516.894531 C 177.191406 512.222656 180.882813 507.671875 179.652344 503.367188 C 179.527344 498.9375 183.957031 498.078125 184.941406 493.894531 C 182.234375 490.695313 176.699219 492.789063 173.992188 490.941406 C 175.714844 489.222656 178.667969 490.695313 180.265625 488.605469 C 180.757813 485.039063 176.207031 484.300781 174.363281 482.457031 C 175.347656 475.199219 178.503906 463.65625 179.28125 460.808594 C 181.128906 453.429688 182.851563 446.171875 183.710938 438.421875 C 185.800781 430.917969 185.925781 421.941406 190.84375 416.28125 C 192.445313 418.863281 192.074219 422.308594 192.9375 425.136719 C 191.089844 446.417969 190.230469 467.695313 190.230469 488.851563 C 189.246094 489.34375 189.078125 490.003906 188.753906 490.695313 C 187.769531 493.28125 190.230469 493.648438 191.707031 494.511719 C 199.332031 496.96875 188.140625 496.96875 189.367188 500.660156 C 196.871094 508.777344 190.597656 520.09375 187.894531 528.457031 C 185.0625 539.28125 190.722656 549.367188 188.753906 561.175781 C 190.476563 566.21875 183.589844 566.339844 183.710938 570.648438 C 184.324219 578.886719 186.664063 586.515625 187.03125 594.878906 C 187.03125 597.089844 186.785156 599.429688 188.753906 600.78125 C 190.230469 609.023438 180.636719 617.632813 189.121094 624.644531 C 194.289063 627.839844 201.175781 625.996094 206.464844 627.105469 C 206.464844 623.414063 204.742188 619.246094 205.851563 616.773438 C 207.148438 617.699219 207.328125 619.605469 207.867188 621.332031 C 209.382813 626.207031 210.765625 624.96875 212.40625 621.734375 C 213.25 620.070313 213.671875 617.640625 215.074219 616.773438 C 216.058594 620.214844 215.320313 625.011719 217.660156 627.347656 C 224.054688 625.382813 229.960938 627.226563 236.355469 627.964844 C 238.9375 627.105469 237.09375 624.519531 237.214844 622.675781 C 238.324219 620.832031 239.429688 624.519531 240.78125 625.011719 C 244.226563 624.519531 242.382813 619.476563 244.597656 617.632813 C 246.070313 620.09375 245.335938 623.78125 246.316406 626.121094 C 253.820313 631.902344 263.785156 629.6875 272.886719 630.546875 C 275.960938 630.917969 279.035156 631.65625 280.882813 628.824219 C 282.972656 616.894531 274.484375 604.777344 266.121094 601.027344 C 259.601563 599.183594 251.359375 600.414063 246.316406 595.492188 C 246.808594 593.15625 247.792969 591.066406 247.792969 588.726563 C 246.316406 582.207031 250.378906 572.984375 243.121094 569.171875 C 240.535156 568.0625 241.644531 563.757813 242.257813 561.542969 C 239.0625 552.441406 239.429688 541.863281 240.78125 532.023438 C 240.414063 527.597656 245.210938 524.277344 242.257813 519.847656 C 234.019531 517.632813 245.824219 515.910156 242.503906 510.992188 C 242.011719 508.410156 239.308594 507.179688 238.078125 505.089844 C 240.90625 503.488281 244.226563 500.90625 244.84375 497.707031 C 247.546875 475.074219 243.367188 451.953125 245.210938 429.566406 C 248.410156 404.84375 248.53125 378.765625 249.640625 353.058594 C 250.5 351.707031 252.34375 352.566406 252.835938 350.722656 C 253.453125 347.523438 253.082031 344.082031 251.359375 341.621094 C 250.132813 332.027344 255.910156 322.433594 247.546875 315.914063 C 248.65625 314.316406 250.992188 315.667969 251.976563 313.578125 C 252.714844 310.625 251.390625 308.902344 249.421875 307.425781 C 248.191406 306.8125 248.65625 306.121094 249.886719 306.199219 C 254.558594 304.476563 250.867188 299.308594 250.746094 296.109375 C 249.886719 283.566406 249.394531 269.421875 253.453125 258.351563 C 253.820313 256.015625 256.28125 256.382813 257.878906 256.015625 C 262.308594 260.8125 266.613281 265.238281 271.164063 270.40625 C 278.789063 275.078125 288.753906 279.015625 298.59375 276.921875 C 306.464844 276.554688 310.644531 268.683594 312.738281 262.53125 C 312.121094 254.535156 315.9375 243.714844 309.539063 237.933594 C 308.800781 235.472656 313.476563 235.226563 313.351563 232.644531 Z M 249.511719 122.558594 C 245.328125 121.945313 242.253906 119.074219 240.902344 115.179688 C 240.164063 110.257813 242.867188 105.832031 246.191406 103.371094 C 256.03125 100.417969 267.222656 103.863281 272.511719 112.226563 C 274.601563 116.53125 273.742188 122.558594 271.035156 126.371094 C 263.285156 127.480469 257.261719 122.3125 249.511719 122.558594 Z M 249.710938 165.339844 C 250.671875 170.507813 248.015625 176.40625 248.410156 181.597656 C 249.269531 188.734375 252.097656 196.359375 256.648438 201.402344 C 257.140625 205.339844 253.453125 208.042969 251.113281 211.363281 C 247.792969 213.332031 243.980469 216.039063 239.800781 214.070313 C 236.230469 208.042969 229.34375 204.96875 223.5625 201.402344 C 221.71875 197.34375 220.855469 192.300781 222.085938 187.75 C 224.179688 181.722656 230.328125 178.03125 236.601563 176.308594 C 240.199219 174.441406 239.671875 168.605469 240.621094 164.640625 C 240.507813 160.597656 248.332031 157.90625 249.710938 165.339844 Z M 115.816406 120.835938 C 114.953125 118.132813 113.109375 116.164063 110.894531 114.5625 C 108.804688 114.808594 106.714844 118.007813 104.992188 115.179688 C 103.882813 106.570313 96.257813 100.296875 98.472656 90.703125 C 99.210938 88.609375 99.210938 85.78125 98.71875 83.566406 C 98.472656 79.015625 91.953125 82.460938 92.199219 77.664063 C 92.199219 76.1875 92.199219 74.589844 92.570313 73.234375 C 97.980469 66.71875 100.6875 60.074219 106.714844 54.417969 C 111.265625 40.886719 119.503906 28.339844 133.894531 22.808594 C 135.003906 22.066406 134.632813 20.222656 133.894531 19.238281 C 133.035156 18.378906 131.3125 18.007813 131.558594 16.902344 C 131.804688 8.785156 141.277344 12.964844 145.949219 10.382813 C 153.328125 9.277344 157.636719 1.28125 165.753906 3.863281 C 167.722656 4.972656 168.949219 8.292969 171.902344 6.570313 C 186.171875 2.878906 203.269531 4.601563 214.460938 14.195313 C 220.855469 16.902344 227.621094 17.394531 232.171875 23.667969 C 232.664063 26.496094 228.359375 24.160156 228.359375 26.863281 C 230.328125 32.03125 236.230469 35.351563 236.847656 41.378906 C 235.003906 51.957031 246.316406 55.894531 244.226563 67.085938 C 242.136719 66.964844 238.570313 66.964844 238.078125 69.667969 C 238.570313 74.835938 242.011719 79.632813 240.78125 85.414063 C 240.414063 88.117188 238.691406 90.085938 236.601563 91.5625 C 235.738281 89.71875 235.003906 87.257813 232.789063 86.519531 C 227.253906 86.152344 224.792969 91.5625 220.117188 92.179688 C 219.75 87.503906 223.808594 80.246094 217.660156 77.664063 C 216.183594 77.171875 214.339844 77.417969 212.738281 77.417969 C 211.261719 75.574219 210.523438 73.234375 208.3125 72.128906 C 205.480469 70.53125 202.777344 73.972656 200.316406 71.515625 C 198.71875 68.191406 196.257813 66.59375 193.183594 64.996094 C 190.351563 64.871094 186.664063 64.871094 184.078125 66.226563 C 181.867188 67.945313 182.605469 72.496094 179.28125 72.988281 C 173.992188 72.988281 172.886719 64.378906 167.230469 67.945313 C 160.710938 68.4375 156.773438 58.601563 148.902344 61.429688 C 142.753906 63.273438 138.324219 69.667969 136.480469 75.574219 C 136.480469 78.894531 140.046875 80 139.183594 83.566406 C 135.863281 88.980469 129.34375 79.015625 127.621094 87.382813 C 125.902344 90.578125 127.378906 95.253906 126.515625 98.328125 C 122.210938 99.433594 120.121094 92.671875 115.324219 95.128906 C 112.492188 98.695313 109.417969 102.019531 111.140625 107.554688 C 112.984375 114.316406 118.765625 118.378906 124.425781 122.3125 C 121.597656 122.804688 118.027344 122.804688 115.816406 120.835938 Z M 114.339844 101.648438 C 115.445313 99.925781 116.429688 97.714844 119.136719 98.082031 C 121.597656 100.789063 123.195313 103.863281 127.992188 102.140625 C 134.265625 98.941406 125.777344 83.691406 137.464844 88.855469 C 139.800781 87.628906 143.367188 86.152344 142.996094 82.707031 C 143.734375 78.894531 138.078125 77.785156 140.90625 73.851563 C 144.472656 70.898438 145.457031 64.503906 151.609375 64.996094 C 158.617188 64.996094 162.925781 75.203125 170.796875 71.144531 C 173.378906 73.726563 177.070313 77.171875 181.742188 76.804688 C 186.171875 74.464844 184.816406 66.226563 192.320313 68.5625 C 197.734375 70.160156 199.085938 79.015625 205.851563 75.328125 C 210.15625 75.203125 208.433594 81.476563 212.984375 81.230469 C 214.585938 81.476563 216.675781 80.492188 217.660156 82.09375 C 218.398438 86.273438 213.476563 93.039063 218.644531 95.992188 C 224.914063 97.714844 226.761719 90.210938 232.417969 90.332031 C 234.878906 92.425781 232.910156 95.375 232.417969 97.714844 C 228.730469 102.386719 224.671875 106.570313 219.136719 109.890625 C 216.550781 112.226563 217.042969 116.410156 215.320313 119.359375 C 209.417969 129.199219 198.226563 133.996094 192.074219 143.222656 C 186.046875 148.265625 176.578125 151.09375 168.949219 147.652344 C 153.820313 139.53125 133.894531 137.195313 127.132813 120.46875 C 120.613281 115.425781 112.863281 111.242188 114.339844 101.648438 Z M 113.847656 137.320313 C 119.996094 136.703125 125.53125 140.023438 128.851563 144.699219 C 129.46875 148.757813 131.558594 153.308594 130.328125 157.984375 C 125.039063 159.703125 119.75 161.550781 114.707031 163.886719 C 112.371094 164.132813 113.230469 160.6875 112.003906 159.703125 C 109.910156 157.492188 108.679688 152.816406 104.621094 152.695313 C 99.824219 152.941406 98.226563 157.738281 94.289063 159.460938 C 90.90625 160.058594 94.414063 156.507813 93.675781 154.785156 C 97.242188 146.667969 103.636719 137.8125 113.847656 137.320313 Z M 136.480469 174.835938 C 133.402344 176.308594 136.480469 172.496094 135.003906 171.265625 C 133.894531 168.5625 134.019531 164.503906 130.574219 163.640625 C 126.269531 165.976563 120.980469 166.714844 116.800781 168.929688 C 115.078125 171.019531 117.167969 173.726563 116.429688 176.554688 C 117.167969 177.910156 118.519531 179.878906 120.242188 178.648438 C 124.300781 176.800781 128.730469 176.1875 133.28125 175.695313 C 127.652344 179.429688 120.488281 182.707031 113.476563 182.828125 C 110.773438 180.121094 110.28125 176.0625 109.417969 172.496094 C 113.109375 166.59375 120.121094 165.976563 125.65625 163.273438 C 129.960938 162.902344 139.0625 157 139.429688 165.363281 C 140.539063 168.808594 141.890625 174.710938 136.480469 174.835938 Z M 145.335938 184.796875 C 147.425781 186.148438 146.441406 188.363281 146.320313 190.453125 C 144.226563 195.375 137.832031 193.285156 133.527344 193.40625 C 128.730469 192.421875 124.671875 188.855469 121.71875 185.164063 C 126.023438 183.074219 130.820313 180.984375 135.371094 178.894531 C 136.109375 183.199219 141.523438 184.183594 145.335938 184.796875 Z M 132.050781 170.652344 C 132.050781 171.019531 132.050781 171.511719 132.050781 171.882813 C 127.867188 172.742188 123.5625 173.605469 119.382813 174.464844 C 118.96875 173.742188 118.734375 173.050781 119.136719 172.128906 C 122.335938 169.667969 126.515625 170.160156 129.714844 167.699219 C 132.296875 166.960938 130.574219 169.285156 132.050781 170.652344 Z M 80.390625 148.511719 C 81.621094 145.558594 81.867188 142.730469 81.375 139.410156 C 86.417969 136.335938 94.660156 134.980469 99.332031 139.410156 C 99.210938 142.238281 96.136719 142.730469 95.152344 145.558594 C 92.816406 150.355469 88.878906 155.523438 90.476563 161.796875 C 87.03125 164.625 84.328125 168.5625 81.375 171.511719 C 79.898438 166.222656 87.28125 156.015625 78.421875 155.03125 C 75.839844 152.324219 80.269531 151.21875 80.390625 148.511719 Z M 77.441406 170.035156 C 74.363281 171.144531 70.675781 171.882813 67.105469 172.742188 C 66.125 172.742188 65.386719 174.21875 64.523438 173.605469 C 64.15625 169.054688 60.589844 166.347656 60.710938 161.796875 C 65.632813 160.441406 70.429688 160.320313 74.242188 156.261719 C 76.085938 156.628906 77.070313 158.230469 78.914063 159.214844 C 79.652344 162.65625 77.929688 166.46875 77.441406 170.035156 Z M 42.382813 191.929688 C 38.203125 182.953125 39.308594 170.773438 31.191406 164.503906 C 29.714844 165.238281 28.117188 165.976563 26.394531 166.59375 C 20.367188 168.070313 14.585938 171.019531 7.820313 169.789063 C 5.730469 167.824219 2.777344 165.117188 3.148438 161.550781 C 11.636719 151.957031 23.566406 144.820313 36.726563 148.882813 C 39.554688 149.742188 41.648438 152.203125 43 154.785156 C 43.246094 157.121094 46.199219 159.460938 43.859375 161.796875 C 42.382813 163.886719 38.570313 164.257813 40.046875 167.453125 C 42.015625 175.203125 42.875 183.199219 46.199219 190.699219 C 45.335938 191.5625 44.167969 192.113281 42.382813 191.929688 Z M 46.199219 164.503906 C 49.886719 166.960938 51.363281 171.511719 52.714844 175.078125 C 50.75 176.554688 48.042969 176.0625 45.953125 176.925781 C 45.582031 172.867188 41.277344 166.960938 46.199219 164.503906 Z M 47.058594 180.367188 C 49.394531 179.753906 51.855469 179.507813 53.824219 178.402344 C 55.054688 178.277344 55.300781 179.632813 55.667969 180.367188 C 55.914063 180.859375 55.851563 181.277344 55.300781 181.351563 C 52.714844 181.722656 50.257813 182.582031 47.671875 183.074219 C 47.550781 182.214844 46.691406 181.105469 47.058594 180.367188 Z M 50.378906 190.210938 C 49.273438 189.226563 48.902344 187.503906 48.535156 186.027344 C 52.222656 186.886719 57.511719 181.476563 58.867188 187.257813 C 56.777344 189.226563 53.332031 189.347656 50.378906 190.210938 Z M 63.046875 186.886719 C 59.851563 184.921875 59.605469 180.367188 58.003906 177.171875 C 58.496094 176.433594 59.480469 175.203125 58.25 174.464844 C 57.511719 174.21875 56.777344 173.972656 55.914063 173.605469 C 53.453125 169.300781 52.714844 164.132813 48.289063 161.796875 C 48.65625 154.414063 39.800781 148.882813 46.8125 142.363281 C 54.4375 137.566406 62.1875 130.554688 71.90625 133.753906 C 74.363281 134.859375 75.59375 136.582031 77.195313 138.550781 C 79.160156 142.363281 77.441406 146.789063 75.472656 149.988281 C 71.90625 154.414063 65.632813 157.859375 59.480469 157.738281 C 58.003906 158.230469 56.285156 159.582031 56.777344 161.796875 C 57.882813 169.175781 61.941406 173.605469 63.292969 180.738281 C 63.292969 182.460938 67.230469 186.886719 63.046875 186.886719 Z M 68.089844 176.308594 C 68.953125 175.570313 77.5625 173.726563 71.535156 176.554688 C 69.9375 177.292969 67.230469 178.894531 66 177.417969 C 65.140625 174.835938 67.351563 177.539063 68.089844 176.308594 Z M 67.722656 183.074219 C 66.371094 180.613281 68.828125 181.722656 70.058594 180.984375 C 71.78125 180.984375 79.652344 175.449219 74.488281 181.597656 C 72.152344 181.722656 69.074219 186.519531 67.722656 183.074219 Z M 81.867188 272.863281 C 76.703125 269.664063 69.199219 267.699219 67.476563 260.441406 C 66.738281 255.277344 70.058594 249.742188 66.859375 245.3125 C 65.878906 243.097656 61.695313 243.960938 62.679688 241.5 C 64.402344 240.023438 67.722656 239.039063 67.105469 236.210938 C 65.386719 232.644531 55.300781 237.808594 60.097656 230.554688 C 64.402344 214.5625 67.351563 198.449219 75.71875 185.164063 C 76.378906 184.273438 76.917969 183.273438 78.054688 181.84375 C 84.082031 175.203125 87.402344 167.332031 95.765625 162.410156 C 99.332031 160.441406 101.179688 155.644531 106.46875 156.507813 C 108.3125 159.214844 110.28125 162.042969 111.140625 165.609375 C 109.417969 167.578125 107.574219 168.929688 105.851563 170.652344 C 108.3125 175.941406 107.695313 182.582031 113.230469 186.273438 C 121.351563 183.320313 122.335938 193.285156 128.851563 195.496094 C 130.328125 198.574219 137.585938 194.636719 135.003906 200.539063 C 131.3125 200.417969 132.789063 204.601563 131.191406 206.445313 C 127.621094 212.71875 124.792969 220.097656 117.289063 223.171875 C 115.445313 223.050781 113.601563 222.433594 112.617188 220.835938 C 115.445313 210.996094 120.257813 202.410156 120.75 190.96875 C 120.351563 187.964844 118.046875 189.195313 117.90625 190.699219 C 117.535156 197.21875 115.199219 202.878906 113.847656 209.027344 C 112.617188 208.90625 113.109375 206.199219 111.140625 206.691406 C 108.3125 216.039063 109.910156 227.476563 104.007813 235.351563 C 104.375 236.089844 104.375 237.070313 105.238281 237.6875 C 107.449219 237.441406 109.050781 235.84375 111.140625 235.351563 C 110.527344 236.949219 108.558594 239.65625 110.527344 241.5 C 113.847656 242.484375 115.9375 240.269531 118.273438 237.6875 C 118.519531 234.242188 120.121094 232.765625 123.5625 232.644531 C 127.5 234.488281 131.066406 231.660156 135.003906 231.78125 C 147.796875 228.339844 162.1875 223.417969 174.855469 227.601563 C 177.316406 228.707031 177.390625 231.9375 180.054688 231.96875 C 181.742188 231.78125 181.632813 229.695313 180.691406 228.789063 C 163.964844 211.324219 142.015625 230.429688 121.71875 229.691406 C 120.367188 230.921875 117.90625 229.691406 116.429688 230.921875 C 116.183594 233.628906 116.0625 236.824219 113.847656 238.300781 C 112.863281 237.808594 114.339844 235.71875 114.707031 234.488281 C 114.585938 231.660156 111.265625 232.027344 109.664063 232.027344 C 110.648438 229.691406 110.15625 226.738281 111.140625 224.402344 C 113.476563 225.511719 116.429688 227.109375 119.382813 226.492188 C 128.238281 222.3125 131.4375 212.71875 135.003906 204.96875 C 138.078125 203.492188 137.339844 200.050781 138.324219 197.589844 C 141.277344 197.097656 144.84375 197.34375 146.8125 195.496094 C 149.023438 192.667969 150.007813 188.980469 149.515625 185.410156 C 147.550781 181.597656 142.996094 180.613281 139.183594 179.507813 C 138.691406 179.015625 138.9375 178.15625 138.9375 177.417969 C 140.539063 176.433594 143.242188 175.695313 143.613281 173.359375 C 143.859375 167.578125 141.277344 162.410156 138.9375 158.230469 C 137.464844 157.121094 134.632813 158.105469 133.28125 157.367188 C 133.527344 149.371094 132.421875 140.761719 125.285156 136.457031 C 125.285156 134.242188 124.671875 129.691406 128.605469 129.9375 C 139.0625 141.871094 155.542969 143.714844 168.703125 151.21875 C 177.316406 154.539063 187.03125 151.832031 194.042969 146.789063 C 200.070313 140.394531 204.496094 134.242188 211.753906 129.9375 C 214.585938 129.816406 215.8125 132.03125 216.550781 134.121094 C 217.660156 138.304688 214.339844 141.625 215.9375 145.3125 C 222.457031 150.234375 230.941406 149.003906 238.9375 150.847656 C 242.382813 152.203125 244.597656 154.171875 248.164063 155.277344 C 247.546875 160.074219 239.0625 156.628906 238.078125 161.796875 C 235.738281 165.976563 238.324219 172.867188 232.417969 174.835938 C 225.777344 176.1875 221.59375 180.738281 218.890625 186.886719 C 217.78125 192.914063 217.90625 200.296875 222.085938 204.355469 C 221.226563 206.8125 219.257813 208.90625 218.273438 211.363281 C 216.550781 208.78125 213.355469 204.148438 210.03125 207.304688 C 206.464844 211.609375 204.253906 217.882813 198.472656 219.976563 C 192.445313 221.695313 189.492188 228.214844 183.710938 230.0625 C 180.757813 233.011719 184.695313 235.964844 183.710938 239.410156 C 183.957031 244.574219 181.867188 249.496094 183.464844 254.535156 C 179.652344 261.671875 169.8125 262.65625 161.941406 262.777344 C 165.507813 258.964844 166.121094 254.535156 165.136719 249.25 C 164.277344 247.894531 162.515625 248.019531 161.941406 249.25 C 162.0625 251.339844 162.925781 254.414063 162.1875 256.875 C 159.972656 261.550781 155.296875 263.640625 150.378906 264.253906 C 130.328125 274.710938 105.359375 280.613281 81.867188 272.863281 Z M 186.171875 233.011719 C 193.304688 223.542969 206.34375 223.417969 210.648438 211.117188 C 211.304688 208.453125 214.378906 208.660156 214.707031 213.457031 C 215.691406 218.746094 209.417969 222.1875 212.125 227.109375 C 215.074219 230.921875 222.824219 230.308594 220.609375 237.441406 C 217.167969 244.945313 214.09375 253.800781 206.21875 257.734375 C 199.824219 260.113281 193.183594 258.105469 187.277344 255.644531 C 185.1875 249.125 187.769531 239.65625 186.171875 233.011719 Z M 118.519531 341.253906 C 119.011719 339.285156 122.335938 339.53125 122.089844 336.824219 C 120.980469 335.347656 119.503906 334.855469 117.660156 335.101563 C 117.058594 335.691406 116.429688 335.949219 115.570313 335.71875 C 114.953125 334.242188 115.445313 331.78125 116.183594 330.058594 C 118.644531 313.824219 119.257813 296.851563 120.613281 280.246094 C 120.878906 279.679688 120.65625 278.90625 121.226563 278.398438 C 138.324219 277.171875 150.871094 263.023438 168.949219 265.976563 C 174.855469 264.746094 181.621094 264.007813 185.1875 258.351563 C 186.910156 260.074219 192.320313 258.226563 190.597656 262.164063 C 183.34375 279.507813 174.117188 295.496094 166.984375 311.730469 C 161.449219 311.242188 159.84375 314.847656 156.28125 319.113281 C 152.59375 329.074219 147.550781 337.316406 143.367188 346.910156 C 141.03125 348.261719 141.644531 344.449219 139.429688 344.574219 C 132.421875 343.710938 124.054688 346.785156 118.519531 341.253906 Z M 148.039063 359.949219 C 146.074219 358.59375 145 358.5 143.75 356.5 C 146 356.5 147.671875 358.472656 150.378906 356.011719 C 150.796875 354.875 147.617188 352.613281 147.25 352 C 147.863281 352 152.222656 350.96875 153.085938 350.722656 C 152.960938 349.617188 149.121094 347.984375 149 347 C 150.476563 346.386719 153 346.75 156.035156 346.296875 C 155.914063 345.3125 151.109375 343.34375 150.25 341.5 C 153 341.5 154.75 341.75 158.5 340.75 C 158.5 339.5 156.25 337 154.75 335.25 C 156.25 335.5 159.5 335 161.078125 334.488281 C 159.75 331.75 159.5 332 157 330.5 C 159.707031 329.023438 163.75 328 164.277344 325.632813 C 163.414063 325.632813 158.46875 323.800781 158.5 323 C 163.75 319.5 169.5 320.5 172.273438 323.046875 C 166.246094 337.316406 158.128906 351.828125 149.761719 364.867188 C 148.410156 366.222656 146.6875 364.867188 145.089844 364.867188 C 135.949219 359.703125 146.511719 363.308594 147.179688 362.53125 C 148.285156 362.039063 149.25 361 148.039063 359.949219 Z M 176.085938 611.359375 C 177.5625 615.789063 177.5625 620.953125 178.789063 625.628906 C 174.730469 627.472656 173.992188 624.273438 171.902344 622.0625 C 170.917969 620.953125 169.320313 619.355469 168.089844 620.585938 C 166.121094 623.167969 169.195313 625.382813 169.320313 627.59375 C 159.355469 626.363281 150.378906 626.363281 139.429688 626.488281 C 138.691406 623.414063 140.167969 617.632813 135.988281 616.773438 C 132.910156 617.753906 132.175781 620.09375 130.945313 622.921875 C 129.097656 620.832031 128.730469 616.402344 125.65625 615.296875 C 123.5625 614.679688 122.273438 616.464844 122.089844 617.878906 C 121.027344 623.167969 127.5 627.71875 119.75 626.488281 C 116.183594 626.734375 113.601563 625.011719 111.140625 622.921875 C 109.1875 615.941406 111.632813 607.546875 118.273438 603.980469 C 120.734375 603.117188 119.382813 600.167969 120.613281 598.445313 C 128.605469 592.910156 139.308594 590.574219 148.65625 594.878906 C 155.667969 598.691406 163.90625 600.167969 170.796875 604.59375 C 172.519531 606.441406 174.484375 609.390625 176.085938 611.359375 Z M 252.222656 604.347656 C 252.097656 606.441406 249.640625 608.777344 251.359375 611.113281 C 254.558594 616.15625 258.988281 610.5 262.921875 610.253906 C 264.152344 609.390625 263.046875 607.792969 262.554688 607.300781 C 259.726563 605.824219 257.511719 608.652344 254.929688 608.777344 C 254.804688 607.300781 256.402344 604.964844 255.542969 602.871094 C 265.996094 601.398438 271.902344 610.007813 276.453125 616.773438 C 276.453125 620.339844 280.390625 624.890625 276.453125 627.59375 C 267.226563 625.996094 257.511719 628.703125 249.269531 624.398438 C 248.039063 620.09375 248.65625 614.558594 244.226563 611.972656 C 239.800781 611.605469 242.011719 617.140625 240.167969 619.355469 C 238.199219 617.878906 236.722656 614.433594 233.402344 614.925781 C 233.527344 617.632813 233.773438 620.953125 234.511719 623.78125 C 234.265625 624.027344 234.140625 624.519531 233.648438 624.398438 C 228.730469 624.519531 224.179688 621.445313 219.503906 623.78125 C 217.90625 619.230469 220.980469 610.128906 213.847656 609.390625 C 212.371094 611.605469 212.125 614.804688 210.648438 617.261719 C 208.3125 613.941406 207.328125 608.40625 202.039063 607.914063 C 201.421875 613.082031 203.269531 617.878906 202.652344 623.535156 C 199.085938 621.570313 191.582031 625.382813 189.613281 620.214844 C 188.140625 613.941406 193.304688 608.40625 192.320313 601.398438 C 204.253906 599.058594 213.601563 590.082031 227.746094 593.15625 C 232.296875 595.371094 237.832031 594.878906 242.75 595.738281 C 241.644531 597.582031 239.429688 598.9375 239.800781 601.398438 C 239.800781 603.855469 240.78125 606.5625 243.121094 607.300781 C 246.808594 607.914063 248.65625 603.363281 252.222656 604.347656 Z M 245.703125 599.058594 C 247.179688 598.9375 247.546875 600.167969 248.410156 600.78125 C 246.808594 601.644531 245.457031 602.75 243.734375 603.117188 C 243.121094 601.027344 244.351563 599.796875 245.703125 599.058594 Z M 240.78125 443.097656 C 243.121094 459.945313 242.382813 479.628906 241.273438 497.214844 C 240.167969 500.535156 236.847656 501.519531 233.894531 503.121094 C 232.789063 504.105469 233.402344 506.070313 234.511719 506.5625 C 236.476563 508.039063 238.9375 509.640625 239.308594 511.976563 C 239.0625 515.421875 232.417969 515.664063 234.511719 519.847656 C 235.125 523.046875 240.167969 519.480469 239.554688 523.167969 C 236.109375 535.222656 234.511719 548.628906 238.691406 560.929688 C 237.460938 563.265625 238.570313 565.234375 237.832031 567.695313 C 225.40625 567.203125 212.125 563.265625 200.929688 568.925781 C 198.71875 570.648438 199.945313 572.246094 200.929688 573.96875 C 204.621094 579.132813 210.523438 573.722656 215.320313 576.304688 C 218.441406 576.949219 219.746094 573.003906 216.183594 572.492188 C 212.738281 572.492188 207.820313 572.246094 204.375 572.738281 C 202.992188 572.644531 203.835938 571.109375 204.988281 571.015625 C 217.414063 567.324219 230.574219 570.03125 242.75 572.121094 C 244.351563 578.519531 244.964844 585.898438 243.367188 591.925781 C 233.28125 592.171875 224.671875 587.867188 214.214844 589.835938 C 206.589844 592.910156 198.964844 595.859375 190.84375 597.582031 C 189.246094 588.972656 189.367188 579.625 187.277344 571.261719 C 191.460938 568.554688 192.199219 564.25 192.566406 559.453125 C 193.921875 548.382813 187.523438 537.4375 192.320313 526.734375 C 195.027344 518.988281 198.71875 508.164063 193.183594 501.027344 C 194.65625 499.183594 198.964844 499.0625 198.226563 495.738281 C 196.996094 494.019531 195.394531 492.910156 193.183594 492.171875 C 194.535156 470.15625 194.042969 447.402344 195.886719 424.523438 C 195.148438 419.234375 194.410156 413.820313 189.613281 410.992188 C 178.914063 426.859375 180.636719 450.351563 173.378906 468.1875 C 172.148438 473.355469 171.410156 478.890625 170.425781 484.179688 C 172.027344 486.144531 174.609375 485.40625 176.332031 486.882813 C 173.992188 487.253906 171.042969 487.375 169.933594 490.082031 C 169.933594 491.804688 171.410156 493.28125 172.886719 494.265625 C 175.101563 495.003906 178.175781 493.894531 180.265625 495.125 C 177.808594 497.707031 174.484375 501.765625 176.699219 506.070313 C 173.132813 513.574219 177.070313 521.570313 176.699219 529.6875 C 175.59375 543.710938 173.011719 557.238281 171.902344 571.261719 C 163.785156 565.726563 152.59375 565.972656 142.136719 565.355469 C 142.492188 564.265625 142.167969 563.511719 140.660156 563.265625 C 137.585938 564.375 133.773438 561.175781 130.574219 563.636719 C 128.976563 564.742188 126.023438 566.339844 125.65625 568.554688 C 129.34375 571.507813 134.386719 569.910156 138.570313 568.554688 C 157.773438 569.738281 174.355469 570.972656 176.945313 583.929688 C 176.207031 589.835938 174.976563 595.617188 174.609375 601.644531 C 164.523438 598.9375 155.914063 593.15625 145.703125 590.695313 C 136.847656 586.515625 127.132813 590.574219 119.75 595.125 C 118.765625 595.246094 118.027344 594.261719 117.90625 593.402344 C 117.90625 586.144531 117.90625 578.027344 119.136719 571.015625 C 120.859375 569.417969 124.671875 569.539063 124.425781 566.21875 C 125.410156 552.320313 124.054688 537.929688 123.195313 524.03125 C 123.933594 512.46875 124.300781 500.78125 124.179688 488.851563 C 125.65625 483.195313 127.621094 476.796875 124.425781 471.140625 C 124.671875 466.710938 130.328125 463.390625 127.378906 458.839844 C 126.023438 457.242188 123.441406 458.226563 122.335938 456.75 C 124.425781 454.535156 128.238281 452.691406 127.378906 449.367188 C 125.410156 446.539063 119.875 447.277344 120.613281 442.851563 C 121.105469 415.296875 125.039063 388.730469 127.378906 362.285156 C 126.148438 357.980469 127.253906 352.8125 126.515625 348.386719 C 131.558594 349.003906 137.464844 345.558594 141.523438 350.109375 C 139.675781 353.429688 138.9375 358.226563 136.847656 361.054688 C 138.570313 365.359375 143.734375 368.679688 148.65625 368.804688 C 157.144531 366.589844 157.144531 356.503906 162.800781 351.339844 C 179.898438 354.78125 199.578125 352.8125 216.796875 349.617188 C 227.128906 347.03125 237.585938 348.507813 246.070313 354.042969 C 245.578125 384.300781 243.859375 413.945313 240.78125 443.097656 Z M 252.222656 253.921875 C 244.964844 265.730469 246.441406 282.210938 247.546875 296.480469 C 247.792969 299.1875 250.992188 303.859375 245.703125 304.351563 C 244.226563 305.335938 242.011719 304.96875 241.027344 306.441406 C 240.414063 308.78125 242.996094 309.027344 244.226563 309.765625 C 246.070313 309.640625 247.792969 309.640625 249.023438 310.871094 C 248.53125 313.699219 244.351563 311.363281 243.980469 314.4375 C 243.980469 318.375 247.917969 320.21875 249.023438 323.539063 C 250.5 329.691406 246.195313 333.75 248.164063 340.144531 C 248.65625 343.097656 250.867188 346.050781 249.640625 349.003906 C 245.335938 353.429688 241.890625 347.03125 237.832031 346.664063 C 224.792969 342.972656 210.523438 346.785156 197.609375 349.003906 C 187.03125 350.476563 175.46875 350.109375 164.890625 348.140625 C 169.566406 339.285156 173.378906 330.183594 177.5625 320.957031 C 177.808594 318.621094 174.363281 317.269531 176.085938 314.683594 C 183.34375 296.597656 192.84375 279.847656 200.929688 261.917969 C 204.128906 260.566406 209.050781 261.058594 211.753906 258.351563 C 217.78125 250.726563 225.039063 242.976563 223.5625 232.027344 C 221.964844 230.859375 219.550781 228.703125 219.59375 227.597656 C 219.640625 226.488281 227.09375 213.097656 229.59375 208.597656 C 231.5625 211.300781 238.078125 216.898438 241.027344 217.882813 C 241.519531 228.953125 246.441406 237.933594 251.359375 247.15625 C 251.605469 249.371094 258.863281 253.800781 252.222656 253.921875 Z M 309.171875 263.023438 C 308.34375 267.597656 305.605469 269.664063 302.773438 272.496094 C 297.363281 274.464844 291.089844 275.203125 285.554688 273.109375 C 272.269531 271.757813 266.734375 260.8125 258.125 251.832031 C 251.484375 241.867188 245.457031 230.675781 244.226563 217.882813 C 251.851563 216.898438 257.1875 211.105469 260.722656 202.109375 C 266.011719 206.78125 271.902344 209.890625 276.699219 214.933594 C 276.574219 216.40625 277.066406 217.636719 278.175781 218.5 C 280.882813 220.097656 280.511719 215.300781 282.972656 217.023438 C 283.710938 218.375 284.078125 220.34375 282.601563 221.695313 C 281.863281 222.433594 281.496094 224.15625 282.109375 225.265625 C 284.203125 228.339844 289.367188 226.371094 291.460938 229.445313 C 293.671875 231.660156 292.074219 237.5625 296.871094 237.441406 C 297.363281 233.503906 295.027344 229.078125 292.441406 225.878906 C 290.597656 224.035156 282.234375 225.265625 287.03125 220.222656 C 287.03125 217.144531 285.554688 214.6875 282.601563 213.210938 C 278.050781 214.6875 275.714844 207.921875 272.269531 206.9375 C 268.210938 204.476563 264.769531 200.664063 259.972656 198.695313 C 259.492188 199.34375 258.1875 200.1875 257.511719 199.066406 C 248.070313 181.847656 251.933594 169.636719 257.511719 160.074219 C 270.796875 164.871094 277.804688 176.925781 284.449219 188.363281 C 290.84375 201.648438 297.976563 213.578125 307.203125 225.265625 C 307.203125 226.738281 300.683594 228.339844 303.882813 231.535156 C 304.621094 232.765625 306.339844 233.011719 307.695313 233.257813 C 306.21875 234.121094 305.113281 236.089844 305.972656 237.933594 C 314.214844 243.589844 307.695313 254.535156 309.171875 263.023438 "/>
<path style=" stroke:none;fill-rule:nonzero;fill:rgb(0%,0%,0%);fill-opacity:1;" d="M 147.179688 96.851563 C 147.917969 94.636719 148.65625 92.425781 149.515625 90.085938 C 151.535156 84.433594 158.710938 82.878906 160.738281 85.710938 C 156.714844 88.335938 155.230469 96.101563 159.601563 97.714844 C 166.859375 99.558594 168.703125 87.949219 162.9375 84.027344 C 160.09375 82.03125 158.710938 81.800781 156.035156 82.09375 C 149.148438 83.566406 147.550781 90.085938 145.703125 95.992188 C 145.703125 96.605469 146.441406 97.097656 147.179688 96.851563 "/>
<path style=" stroke:none;fill-rule:nonzero;fill:rgb(0%,0%,0%);fill-opacity:1;" d="M 188.507813 98.082031 C 187.722656 91.011719 196.148438 82.03125 199.085938 86.519531 C 195.84375 90.179688 193.175781 99.269531 199.453125 98.929688 C 205.835938 98.558594 207.441406 88.058594 200.742188 83.753906 C 199.585938 83.007813 198.101563 82.589844 196.132813 82.707031 C 190.105469 84.796875 187.648438 90.703125 186.417969 96.238281 C 186.230469 97.714844 187.03125 98.941406 188.507813 98.082031 "/>
<path style=" stroke:none;fill-rule:nonzero;fill:rgb(0%,0%,0%);fill-opacity:1;" d="M 171.65625 109.890625 C 174.484375 111.242188 177.808594 110.136719 180.265625 108.414063 C 182.605469 102.878906 176.332031 108.90625 174.363281 107.800781 C 168.472656 105.632813 170.242188 109.703125 171.65625 109.890625 "/>
<path style=" stroke:none;fill-rule:nonzero;fill:rgb(0%,0%,0%);fill-opacity:1;" d="M 174.363281 132.644531 C 185.433594 132.277344 195.027344 126.371094 200.316406 117.515625 C 201.421875 116.164063 199.609375 114.164063 198.839844 115.179688 C 189.132813 131.855469 164.023438 137.082031 148.285156 117.886719 C 146.53125 115.710938 145.796875 112.800781 144.429688 110.769531 C 142.210938 107.484375 140.722656 108.433594 142.574219 111.890625 C 149.332031 126.078125 161.078125 133.015625 174.363281 132.644531 "/>
<path style=" stroke:none;fill-rule:nonzero;fill:rgb(0%,0%,0%);fill-opacity:1;" d="M 131.804688 183.074219 C 130.574219 183.320313 130.035156 184.660156 130.574219 185.78125 C 131.3125 186.886719 132.664063 187.503906 133.894531 187.257813 C 134.511719 186.886719 135.648438 186.195313 135.617188 184.550781 C 135.742188 182.460938 133.265625 182.582031 131.804688 183.074219 "/>
<path style=" stroke:none;fill-rule:nonzero;fill:rgb(0%,0%,0%);fill-opacity:1;" d="M 149.515625 597.214844 C 142.628906 593.523438 136.355469 598.074219 128.851563 596.351563 C 127.132813 597.460938 127.484375 598.953125 128.851563 599.550781 C 134.632813 603.488281 143.734375 599.304688 149.515625 603.117188 C 144.84375 604.71875 138.9375 603.609375 134.140625 605.210938 C 133.15625 612.835938 143.367188 608.777344 147.425781 611.972656 C 151.09375 614.726563 152.742188 612.035156 148.902344 609.636719 C 146.6875 608.40625 143.613281 608.40625 141.523438 607.300781 C 144.84375 606.070313 149.269531 607.300781 152.46875 606.070313 C 160.957031 602.625 147.179688 601.765625 149.515625 597.214844 "/>
<path style=" stroke:none;fill-rule:nonzero;fill:rgb(0%,0%,0%);fill-opacity:1;" d="M 117.90625 613.203125 C 116.722656 613.480469 116.722656 615.25 118.273438 615.542969 C 122.578125 616.527344 124.425781 612.464844 127.621094 611.359375 C 129.097656 610.867188 131.929688 611.605469 132.050781 609.636719 C 127.132813 605.578125 122.335938 611.726563 117.90625 613.203125 "/>
<path style=" stroke:none;fill-rule:nonzero;fill:rgb(0%,0%,0%);fill-opacity:1;" d="M 256.035156 622.675781 C 261.078125 624.644531 263.785156 618.863281 266.367188 616.15625 C 267.71875 614.925781 271.488281 616.617188 271.164063 614.066406 C 269.863281 612.957031 268.613281 612.574219 267.417969 612.679688 C 263.964844 612.980469 260.964844 617.324219 258.59375 619.972656 C 253.265625 618.539063 254.574219 621.769531 256.035156 622.675781 "/>
<path style=" stroke:none;fill-rule:nonzero;fill:rgb(0%,0%,0%);fill-opacity:1;" d="M 192.566406 616.773438 C 191.136719 617.324219 192.367188 618.554688 193.550781 618.492188 C 195.148438 618.863281 197.609375 619.109375 199.085938 618.246094 C 200.316406 613.820313 194.535156 616.035156 192.566406 616.773438 "/>
</g>
</svg>
