<?xml version="1.0" encoding="UTF-8"?>
<svg xmlns="http://www.w3.org/2000/svg" xmlns:xlink="http://www.w3.org/1999/xlink" width="523pt" height="443pt" viewBox="0 0 523 443" version="1.1">
<g id="surface1">
<path style=" stroke:none;fill-rule:nonzero;fill:rgb(0%,0%,0%);fill-opacity:1;" d="M 146 311.007813 C 148.039063 307.859375 145.730469 303.507813 142.125 303.523438 C 140.070313 303.53125 139.675781 305.949219 142.113281 306.121094 C 144.308594 306.28125 144.628906 308.902344 143.308594 309.941406 C 136.480469 315.328125 126.402344 308.355469 123.746094 306.546875 C 115.179688 300.714844 105.621094 297.300781 95.601563 294.917969 C 86.976563 292.867188 70.074219 285.824219 71.25 275.726563 C 72.414063 265.746094 67.828125 260.449219 58.433594 255.292969 C 47.457031 249.265625 44.660156 242.265625 42.773438 232.398438 C 41.132813 223.828125 36.675781 214.320313 28.164063 212.054688 C 23.226563 210.742188 5.03125 204.488281 3.042969 198.507813 C 2.40625 196.589844 0.707031 196.863281 0.703125 198.648438 C 0.679688 206.457031 18.851563 211.183594 28.484375 214.824219 C 33.71875 216.800781 38.847656 223.101563 40.179688 232.710938 C 41.773438 244.199219 45.578125 252.183594 57.585938 258.144531 C 63.628906 261.148438 69.820313 266.53125 68.800781 275.90625 C 67.410156 288.703125 86.03125 295.980469 96.824219 298.324219 C 106.234375 300.367188 114.835938 304.425781 123.007813 309.449219 C 128.652344 312.914063 141.601563 317.792969 146 311.007813 "/>
<path style=" stroke:none;fill-rule:nonzero;fill:rgb(0%,0%,0%);fill-opacity:1;" d="M 22.433594 165.179688 C 25.5 165.546875 26.136719 168.398438 27.136719 170.761719 C 27.367188 171.308594 29.339844 171.105469 28.972656 170.140625 C 26.933594 164.78125 26.078125 164.054688 20.8125 162.300781 C 19.574219 161.808594 18.140625 163.457031 18.832031 164.550781 C 19.914063 165.988281 20.902344 164.820313 22.433594 165.179688 "/>
<path style=" stroke:none;fill-rule:nonzero;fill:rgb(0%,0%,0%);fill-opacity:1;" d="M 34.402344 174.898438 C 36.335938 171.160156 31.589844 167.535156 32.648438 162.734375 C 32.929688 161.453125 33.082031 160.304688 31.164063 159.960938 C 28.277344 163.355469 30.710938 172.128906 34.402344 174.898438 "/>
<path style=" stroke:none;fill-rule:nonzero;fill:rgb(0%,0%,0%);fill-opacity:1;" d="M 44.125 176.890625 C 61.972656 176.84375 78.800781 175.746094 83.144531 185.589844 C 84.027344 187.589844 86.007813 186.769531 85.683594 185.136719 C 82.675781 170.039063 46.636719 174.929688 41.792969 174.308594 C 37.628906 173.773438 40.011719 166.386719 41.039063 164.730469 C 41.996094 163.1875 42.71875 161.777344 40.882813 160.320313 C 35.933594 165.800781 33.433594 176.921875 44.125 176.890625 "/>
<path style=" stroke:none;fill-rule:nonzero;fill:rgb(0%,0%,0%);fill-opacity:1;" d="M 81.378906 118.96875 C 83.996094 119.789063 87.101563 120.621094 88.054688 123.820313 C 86.839844 126.789063 84.730469 129.804688 83.097656 132.546875 C 80.949219 136.15625 82.035156 140.113281 87.4375 137.628906 C 84.570313 144.367188 88.742188 147.730469 93.066406 144.683594 C 89.539063 152.054688 99.378906 157.824219 103.703125 150.0625 C 104.746094 148.191406 105.011719 143.308594 105.980469 141.441406 C 106.863281 142.660156 107.539063 147.785156 107.714844 149.3125 C 108.523438 156.488281 118.910156 154.304688 118.34375 146.390625 C 117.828125 139.125 113.21875 132.960938 107.664063 128.28125 C 107.660156 125.992188 110.003906 122.160156 113.152344 124.320313 C 121.195313 118.960938 125.203125 110.519531 128.820313 102.371094 C 130.515625 98.554688 131.652344 98.875 133.628906 101.394531 C 135.644531 103.96875 137.382813 106.859375 140.332031 108.480469 C 141.144531 109.921875 138.558594 110.242188 138.714844 112.351563 C 139.28125 114.949219 138.65625 117.054688 137.785156 119.0625 C 136.726563 121.5 123.820313 152.136719 123.863281 168.421875 C 117.925781 174.960938 119.796875 192.882813 127.101563 199.199219 C 126.292969 200.371094 125.480469 200.460938 124.132813 200.191406 C 121.613281 203.25 119.542969 206.941406 120.894531 211.171875 C 114.824219 215.5625 112.433594 216.328125 108.5625 211.171875 C 107.753906 209.820313 108.070313 208.058594 109.597656 208.058594 C 111.492188 207.691406 111.570313 204.5 110.523438 202.738281 C 109.683594 201.328125 111.046875 199.550781 110.902344 198.839844 C 111.175781 195.582031 109.847656 189.378906 107.855469 187.078125 C 104.351563 183.03125 98.589844 184.0625 93.632813 187.40625 C 81.164063 195.804688 77.132813 213.902344 79.953125 225.753906 C 81.378906 231.730469 87.277344 235.773438 93.0625 228.582031 C 94.277344 227.074219 95.214844 225.269531 96.324219 223.859375 C 97.660156 229.214844 98.988281 236.121094 103.355469 237.378906 C 111.9375 239.855469 126.035156 232.570313 126.28125 232.382813 C 127.613281 231.347656 128.933594 232.121094 130.320313 233.195313 C 135.136719 236.921875 150.738281 236.320313 154.644531 230.339844 C 168.503906 225.480469 181.101563 217.828125 193.523438 209.550781 C 196.601563 207.371094 196.671875 204.328125 197.660156 201.449219 C 199.183594 201.347656 200.734375 200.445313 202.21875 200.015625 C 205.890625 198.953125 208.152344 204.832031 206.351563 211.140625 C 205.921875 212.636719 204.46875 219.347656 204.449219 221.394531 C 204.429688 223.675781 204.316406 225.90625 203.320313 227.746094 C 201.789063 230.558594 202.105469 232.289063 203.511719 234.210938 L 200.273438 238.4375 C 197.84375 241.6875 202.746094 247.804688 205.285156 247.9375 C 206.316406 247.992188 206.902344 248.628906 207.40625 249.429688 C 209.929688 253.460938 211.828125 253.832031 217.460938 252.027344 C 227.722656 247.890625 238.972656 241.769531 245.003906 231.238281 C 246.144531 229.113281 244.171875 226.617188 245.488281 224.691406 C 247.027344 222.4375 243.957031 215.328125 241.6875 214.734375 C 235.476563 213.105469 231.894531 214.847656 227.855469 217.195313 C 226.394531 218.050781 224.953125 218.941406 223.3125 219.269531 C 222.261719 208.074219 225.285156 197.066406 226.417969 185.984375 C 227.6875 173.546875 217.820313 172.097656 211.523438 174.09375 C 208.214844 175.144531 204.96875 176.871094 201.890625 177.78125 C 200.992188 172.828125 189.710938 176.023438 188.695313 176.535156 C 187.84375 176.964844 186.996094 177.25 186.050781 176.878906 C 182.789063 168.726563 181.804688 165.703125 186.003906 154.714844 C 188.246094 148.851563 190.738281 143 189.5625 136.378906 C 190.460938 135.75 191.183594 134.851563 192.171875 134.398438 C 197.222656 144.5 216.542969 151.71875 223.78125 148.292969 C 233.351563 143.769531 237.117188 132.394531 240.503906 123.058594 C 243.144531 123.363281 241.984375 120.875 242.714844 119.484375 C 242.855469 119.214844 245.039063 116.082031 245.492188 114.320313 C 245.898438 112.730469 246.851563 112.308594 248.953125 112.03125 C 251.246094 111.730469 253.882813 111.707031 255.925781 111.269531 C 260.925781 110.199219 263.476563 105.953125 257.996094 104.035156 C 259.445313 103.351563 262.492188 100.472656 262.734375 99.996094 C 264.40625 96.679688 262.757813 93.496094 258.855469 95.007813 C 258.273438 95.234375 257.179688 95.8125 256.105469 96.53125 C 255.566406 96.890625 255.445313 96.472656 255.753906 96.113281 C 256.949219 94.699219 258.367188 92.578125 258.441406 91.644531 C 258.5625 85.875 254.992188 84.867188 251.851563 87.789063 C 250.652344 88.902344 248.160156 93.242188 247.066406 93.898438 C 246.566406 92.53125 247.703125 88.546875 248.394531 85.382813 C 249.832031 78.820313 241.496094 77.164063 239.1875 85.171875 C 238.585938 87.636719 238.8125 90.511719 238.4375 92.976563 C 237.964844 96.085938 234.859375 100.105469 232.300781 96.109375 C 231.40625 94.714844 230.742188 92.855469 230.285156 91.339844 C 227.898438 83.402344 217.027344 88.058594 220.078125 95.617188 C 221.175781 98.339844 223.617188 101.535156 225.785156 103.984375 C 228.664063 107.234375 229.183594 109.53125 225.5625 112.351563 C 221.542969 112.300781 221.421875 114.996094 221.191406 117.8125 C 220.738281 123.359375 218.695313 125.402344 215.832031 124.757813 C 213.878906 124.316406 212.136719 121.382813 209.722656 124.050781 C 209.121094 123.222656 208.800781 122.285156 208.535156 121.339844 C 206.925781 115.589844 195.457031 102.921875 186.929688 96.574219 C 185.820313 95.75 181.5 94.304688 180.011719 93.859375 C 177.566406 93.125 177.300781 89.832031 181.253906 89.699219 C 200.835938 89.058594 212.414063 53.828125 203.691406 45.453125 C 203.09375 44.878906 202.574219 44.308594 202.921875 43.488281 C 203.882813 41.234375 205.085938 37.058594 201.378906 32.894531 C 197.660156 28.722656 192.265625 29.8125 188.300781 35.582031 C 185.464844 30.335938 176.714844 28.878906 173.363281 38.191406 C 171.761719 42.621094 172.851563 46.636719 175.972656 50.160156 C 176.75 50.886719 177.679688 51.582031 178.773438 51.957031 C 181.804688 52.992188 185.429688 50.769531 187.941406 47.28125 C 188.933594 47.640625 191.050781 48.054688 191.050781 49.40625 C 190.441406 50.566406 189.230469 50.5 188.230469 50.644531 C 185.890625 50.988281 185.921875 55.875 189.476563 53.683594 C 195.242188 50.125 200.804688 54.320313 200.652344 57.015625 C 200.253906 63.925781 191.554688 65.5 190.246094 63.273438 C 189.460938 61.945313 187.679688 63.335938 188.078125 64.535156 C 189.859375 69.945313 199.929688 64.789063 202.179688 61.558594 C 203.257813 60.015625 203.859375 58.605469 203.003906 62.289063 C 201.433594 73.800781 192.0625 84.949219 182.5 86.898438 C 174.632813 88.503906 173.605469 93.210938 175.636719 95.21875 C 177.695313 97.253906 175.738281 100.371094 173.867188 100.683594 C 168.96875 101.5 166.777344 97.175781 165.605469 93.988281 C 165.246094 93.011719 166.828125 89.171875 167.121094 88.199219 C 167.566406 86.71875 167.859375 85.339844 166.882813 83.550781 C 157.96875 74.777344 156.585938 69.636719 156.175781 60.476563 C 156.0625 58 155.738281 55.371094 154.578125 53.539063 C 147.492188 54.757813 147.277344 50.613281 148.378906 48.398438 C 151.652344 41.832031 156.53125 39.746094 159.886719 42.382813 C 160.855469 43.140625 161.882813 43.796875 163.371094 43.050781 C 162.472656 40.800781 162.867188 37.890625 165.203125 37.082031 C 166.824219 34.921875 165.265625 32.269531 167.601563 30.089844 C 174.089844 23.84375 183.117188 19.898438 187.089844 23 C 191.046875 26.085938 195.628906 28.425781 200.902344 26.222656 C 201.621094 25.140625 201.261719 23.339844 200.003906 22.980469 C 195.023438 26.875 191.855469 22.484375 188.023438 19.921875 C 181.800781 15.757813 170.660156 21.570313 165.976563 27.933594 C 165.03125 29.214844 163.550781 31.421875 162.261719 29.175781 C 161.660156 28.132813 161.3125 26.550781 159.503906 26.851563 C 158.964844 25.394531 158.886719 23.480469 160.042969 22.222656 C 161.042969 21.132813 158.0625 17.601563 157.492188 21.433594 C 157.222656 23.253906 155.746094 24.835938 157.160156 26.492188 C 155.109375 26.972656 154.710938 29.503906 154.507813 30.050781 C 153.96875 31.488281 152.464844 32.316406 151.089844 33.257813 C 145.75 36.914063 149.875 39.105469 151.402344 41.070313 C 141.597656 48.613281 143.554688 55.710938 151.949219 56.1875 C 152.753906 56.390625 153.023438 59.492188 153.113281 61.898438 C 153.414063 70.054688 158.492188 78.453125 163.632813 84.371094 C 164.96875 85.914063 165.621094 87.554688 163.640625 89.671875 C 157.972656 87.871094 145.488281 73.207031 142.847656 70.84375 C 137.285156 65.863281 133.191406 67.261719 127.460938 70.9375 C 120.53125 75.386719 114.804688 82.769531 108.628906 92.949219 C 107.691406 94.5 101.003906 105.691406 96.324219 107.21875 C 95.242188 109.828125 98.03125 111.71875 95.332031 113.96875 C 92.425781 113.34375 90.132813 111.164063 87.488281 109.832031 C 81.316406 106.722656 73.632813 116.546875 81.378906 118.96875 Z M 182.050781 48.648438 C 177.359375 50.542969 173.960938 43.222656 175.589844 38.382813 C 177.253906 33.441406 184.074219 33.28125 185.878906 37.308594 C 187.644531 41.238281 186.207031 46.972656 182.050781 48.648438 Z M 190.769531 37.238281 C 192.707031 31.261719 199.070313 32.515625 200.875 38.066406 C 201.867188 41.125 200.304688 44.980469 197.136719 46.546875 C 192.746094 48.714844 188.488281 44.265625 190.769531 37.238281 Z M 202.378906 53.527344 C 201.027344 52.085938 199.425781 50.382813 196.398438 49.910156 C 196.578125 48.019531 199.523438 48.789063 201.011719 46.65625 C 201.640625 47.464844 203.234375 49.875 203.542969 51.769531 C 203.851563 55.285156 202.878906 54.285156 202.378906 53.527344 Z M 155.371094 33.878906 C 156.851563 33.433594 158.378906 33.175781 157.503906 31.332031 C 156.441406 29.089844 157.800781 28.066406 158.535156 28.410156 C 160.339844 29.253906 160.429688 31.117188 161.917969 31.914063 C 164.390625 32.804688 163.289063 40.300781 153.921875 39.179688 C 150.980469 36.484375 153.246094 34.515625 155.371094 33.878906 Z M 93.925781 216.570313 C 95.542969 222.886719 88.851563 230.066406 85.199219 228.5 C 83.777344 227.890625 82.683594 226.742188 82.371094 225.121094 C 80.714844 212.011719 84.480469 197.210938 96.152344 189.769531 C 104.488281 184.453125 107.59375 190.679688 108.292969 197.21875 C 104.964844 197.761719 99.742188 197.21875 97.941406 200.820313 C 97.441406 202.324219 99.09375 202.773438 101.0625 202.128906 C 102.851563 201.539063 104.5625 200.441406 106.347656 200.234375 L 106.042969 201.179688 C 103.164063 202.351563 98.84375 204.148438 98.84375 207.929688 C 96.460938 208.722656 93.507813 214.933594 93.925781 216.570313 Z M 107.265625 205.238281 C 106.917969 207.132813 104.316406 207.210938 103.074219 207.660156 C 102.183594 207.027344 102.429688 206.550781 103.003906 206.121094 C 104.980469 204.644531 107.523438 203.84375 107.265625 205.238281 Z M 123.164063 230.691406 C 116.503906 232.671875 109.867188 237.730469 102.441406 233.851563 C 99.292969 227.730469 95.601563 215.671875 103.074219 211.171875 C 104.957031 210.167969 105.910156 211.128906 106.773438 212.574219 C 109.78125 217.621094 113.988281 217.683594 118.425781 215.671875 C 120.59375 214.691406 122.242188 214.511719 122.242188 218.640625 C 122.398438 221.644531 122.550781 225.179688 124.570313 227.773438 C 125.386719 228.816406 124.910156 230.171875 123.164063 230.691406 Z M 206.121094 229.351563 C 208.371094 227.550781 210.890625 226.378906 213.59375 225.480469 C 211.792969 228.269531 209.003906 229.4375 206.480469 231.601563 C 205.402344 231.507813 205.429688 229.972656 206.121094 229.351563 Z M 236.628906 237.089844 C 229.867188 242.335938 222.753906 246.722656 214.789063 249.050781 C 210.941406 250.175781 209.152344 246.863281 210.980469 243.570313 C 215.152344 237.035156 228.300781 227.050781 238.21875 226.078125 C 247.160156 225.207031 239.214844 235.085938 236.628906 237.089844 Z M 239.371094 218.101563 C 242.90625 217.847656 244.523438 220.566406 243.023438 222.871094 C 232.574219 220.960938 208.519531 235.800781 207.382813 244.921875 C 205.941406 245.640625 203.640625 245.265625 203.242188 243.570313 C 202.296875 239.269531 204.480469 236.53125 207.46875 234.300781 C 211.058594 231.621094 216.621094 228.277344 219.300781 225.820313 C 221.328125 223.960938 227.8125 218.933594 239.371094 218.101563 Z M 204.609375 179.839844 C 210.71875 176.042969 215.828125 173.925781 220.132813 176.636719 C 224.039063 179.101563 224.269531 181.875 223.589844 186.902344 C 222.179688 197.316406 220.417969 208.335938 220.34375 218.640625 C 216.023438 221.609375 211.070313 223.140625 206.480469 225.480469 C 206.09375 220.785156 208.199219 215.78125 209.339844 210.972656 C 211.367188 202.394531 206.378906 194.015625 200.445313 197.203125 C 199.371094 197.78125 198.371094 198.128906 197.390625 196.949219 C 199.253906 191.433594 199.40625 183.070313 204.609375 179.839844 Z M 188.542969 180.371094 C 191.800781 178.414063 197.945313 177.3125 198.117188 180.054688 C 198.175781 181.023438 197.851563 182.007813 197.46875 183.015625 C 196.945313 184.375 194.578125 194.359375 194.316406 198.160156 C 194.144531 200.710938 193.921875 203.1875 193.160156 205.320313 C 180.652344 214.769531 167.0625 221.789063 153.023438 227.371094 C 146.757813 236.265625 132.757813 232.371094 130.117188 229.824219 C 128.019531 227.800781 126.53125 224.882813 125.480469 222.511719 C 126.382813 215.851563 120.621094 209.550781 125.480469 203.699219 C 127.28125 203.699219 128.8125 202.621094 130.34375 201.808594 C 135.5625 204.78125 142.941406 203.339844 147.800781 200.460938 C 160.402344 198.210938 171.742188 193.171875 182.8125 187.5 C 186.613281 185.496094 185.976563 181.910156 188.542969 180.371094 Z M 223.546875 97.035156 C 219.480469 91.410156 227.535156 88.199219 228.511719 92.886719 C 229.261719 96.492188 230.277344 98.320313 233.523438 100.308594 C 238.253906 102.0625 240.789063 95.539063 240.894531 93.398438 C 241.03125 90.695313 241.183594 87.976563 242.152344 85.703125 C 243.789063 81.859375 246.644531 82.332031 246.347656 86.480469 C 246.257813 87.738281 245.914063 89.097656 245.363281 90.660156 C 244.746094 92.84375 244.765625 95.113281 244.960938 96.90625 C 245.28125 99.878906 246.519531 99.339844 247.710938 97.480469 C 249.101563 95.3125 250.367188 93.035156 252.144531 91.164063 C 255.125 88.023438 256.722656 90.363281 255.640625 93.070313 C 254.71875 95.367188 252.761719 97.871094 250.980469 99.320313 C 247.902344 101.820313 248.660156 103.703125 252.085938 100.867188 C 253.636719 99.578125 255.628906 97.914063 257.3125 97.324219 C 261.019531 96.023438 261.746094 98.058594 259.492188 100.265625 C 258.046875 101.679688 255.1875 103.175781 253.199219 104.214844 C 251.988281 104.847656 251.972656 105.746094 253.292969 105.648438 C 254.273438 105.578125 255.433594 105.488281 256.457031 105.539063 C 259.808594 105.703125 259.824219 107.953125 256.304688 108.554688 C 254.242188 108.902344 251.425781 108.980469 249.285156 109.246094 C 246.46875 109.597656 243.855469 110.980469 243.773438 112.3125 C 243.605469 115.140625 241.996094 116.378906 240.773438 118.828125 C 237.105469 120.226563 229.792969 117.4375 229.792969 112.351563 C 231.140625 110.820313 231.933594 107.578125 230.765625 105.777344 C 230.125 103.566406 225.863281 100.238281 223.546875 97.035156 Z M 123.859375 77.550781 C 131.398438 70.324219 136.160156 68.636719 144.347656 76.011719 C 150.328125 81.394531 155.121094 88.230469 161.390625 92.640625 C 163.011719 97.589844 167.78125 103.890625 173.363281 104.609375 C 178.191406 105.230469 179.742188 98.515625 179.570313 97.5 C 187.132813 95.847656 204.828125 116.851563 205.949219 123.84375 C 206.234375 125.628906 206.660156 127.257813 208.816406 128.078125 C 210.433594 127.71875 211.160156 126.210938 213.230469 126.929688 C 213.863281 127.648438 215.035156 128.5 216.296875 128.410156 C 219.265625 127.601563 221.511719 126.570313 222.953125 123.421875 C 223.761719 120.988281 224.480469 118.558594 225.5625 116.21875 C 228.53125 117.300781 231.019531 121.644531 236.273438 122.699219 C 234.921875 129.808594 231.863281 137.011719 226.550781 142.859375 C 218.671875 150.742188 194.332031 140.777344 192.171875 126.929688 C 191.632813 126.210938 190.910156 125.851563 189.921875 125.941406 C 188.210938 127.109375 189.023438 129.628906 189.292969 131.160156 C 188.121094 133.410156 185.535156 133.898438 186.886719 136.78125 C 187.84375 138.808594 186.953125 141.601563 186.683594 143.488281 C 183.414063 152.621094 177.964844 163.230469 181.796875 173.292969 C 182.828125 176.003906 185.617188 180.273438 183.308594 182.148438 C 176.460938 187.710938 165.652344 192.683594 161.390625 193.261719 C 150.320313 194.765625 140.378906 203.953125 128.992188 197.578125 C 122.574219 191.941406 122.195313 176.921875 125.46875 170.816406 C 125.726563 170.335938 126.640625 166.582031 126.785156 165.144531 C 127.015625 162.820313 135.714844 130.828125 141.5625 117.507813 C 141.382813 115.167969 140.964844 113.160156 143.300781 111.359375 C 144.472656 111.449219 146.988281 111.335938 147.050781 110.898438 C 147.328125 109.003906 145.734375 107.953125 143.867188 106.894531 C 139.621094 104.492188 138.386719 103.515625 137.09375 99.796875 C 136.535156 98.191406 130.921875 93.070313 129.117188 95.222656 C 126.34375 98.527344 124.921875 102.535156 123.277344 106.476563 C 121.042969 111.839844 115.730469 120.3125 111.53125 120.179688 C 108.832031 116.851563 109.28125 111.628906 104.421875 109.738281 L 101.453125 108.480469 C 110.890625 98.695313 114.046875 86.957031 123.859375 77.550781 Z M 86.300781 113.039063 C 89.753906 114.71875 93.054688 117.203125 96.59375 117.570313 C 98.074219 116.726563 98.746094 114.078125 99.886719 112.824219 C 101.652344 110.878906 105.042969 114.058594 106.078125 116.378906 C 106.769531 117.929688 107.058594 119.636719 107.933594 121.078125 C 107.507813 122.351563 106.503906 123.445313 105.648438 124.578125 C 103.253906 127.742188 105.886719 131.011719 108.609375 133.742188 C 111.519531 136.664063 114.195313 139.78125 115.257813 143.527344 C 117.257813 150.582031 110.675781 153.347656 109.574219 146.460938 C 109.039063 143.089844 108.53125 139.683594 106.546875 136.890625 C 105.949219 136.050781 103.558594 135.273438 103.550781 137.0625 C 103.542969 138.40625 102.652344 145.941406 101.664063 147.917969 C 99.089844 153.0625 93.828125 149.839844 95.261719 145.105469 C 96.0625 142.460938 97.4375 140.121094 98.929688 137.476563 C 100.679688 134.375 97.34375 131.429688 96.0625 135.402344 C 95.875 135.988281 94.003906 140.203125 91.988281 142.347656 C 89.265625 145.246094 87.363281 141.082031 89.53125 137.523438 C 91.003906 135.113281 93.351563 132.886719 94.511719 130.546875 C 95.136719 129.28125 94.960938 126.824219 92.59375 128.859375 C 91.25 130.015625 90.398438 131.914063 89.25 133.507813 C 86.0625 137.910156 82.933594 137.160156 86.085938 131.503906 C 87.394531 129.160156 89.609375 126.398438 90.460938 125.644531 C 91.945313 124.328125 89.652344 120.414063 88.78125 119.660156 C 87.113281 118.222656 85.144531 117.335938 83.121094 116.660156 C 78.648438 115.171875 82.046875 110.972656 86.300781 113.039063 "/>
<path style=" stroke:none;fill-rule:nonzero;fill:rgb(0%,0%,0%);fill-opacity:1;" d="M 114.027344 270.453125 C 110.597656 272.121094 110.941406 275.722656 115.867188 275.078125 C 117.023438 274.929688 117.691406 275.671875 117.644531 277.210938 C 117.558594 280.105469 123.003906 281.441406 126.996094 280.996094 C 134.710938 280.132813 145.425781 277.449219 146.183594 272.730469 C 145.820313 272.367188 145.433594 272.152344 144.921875 272.097656 C 137.828125 276.929688 127.070313 280.414063 120.894531 277.589844 C 122.269531 273.804688 126.601563 273.226563 130.4375 273.105469 C 132.066406 273.050781 131.066406 269.488281 128.003906 269.488281 C 125.214844 271.828125 121.074219 273.179688 117.652344 272.097656 C 118.367188 270.082031 120.964844 269.101563 122.589844 267.484375 C 131.023438 259.09375 117.351563 263.96875 115.402344 262.378906 C 116.210938 260.15625 121.496094 260.199219 119.113281 256.984375 C 118.027344 255.523438 112.082031 256.847656 108.59375 257.777344 C 107.089844 258.179688 97.761719 261.210938 94.703125 258.148438 C 94.308594 257.527344 93.300781 259.195313 93.984375 260.128906 C 98.566406 264.5625 113.609375 257.175781 114.773438 259.5 C 111.316406 261.640625 107.933594 263.777344 103.941406 264.472656 C 101.625 264.875 100.625 266.117188 102.082031 267.867188 C 102.082031 267.867188 117.453125 263.082031 119.902344 265.257813 C 118.871094 267.738281 116.46875 269.269531 114.027344 270.453125 "/>
<path style=" stroke:none;fill-rule:nonzero;fill:rgb(0%,0%,0%);fill-opacity:1;" d="M 328.539063 366.5625 C 332.046875 362.539063 331.269531 353.964844 323.75 356.339844 C 321.523438 357.824219 320.96875 355.96875 320.296875 354.414063 C 318.695313 350.714844 312.382813 346.722656 304.273438 349.832031 C 303.734375 349.167969 303.96875 348.355469 304.316406 347.488281 C 305.117188 345.488281 305.816406 343.996094 304.210938 342.628906 C 302.167969 340.894531 295.355469 339.925781 292.339844 345 C 289.585938 343.007813 285.304688 343.875 282.84375 347.101563 C 280.644531 349.980469 281.167969 359.277344 287.710938 361.21875 C 290.21875 361.964844 293.308594 359.386719 294.859375 355.347656 C 296.640625 355.304688 303.675781 353.234375 305.511719 352.769531 C 314.109375 350.578125 318.839844 353.90625 318.769531 358.3125 C 318.683594 363.785156 318.984375 365.144531 323.121094 368.308594 C 321.496094 377.738281 301.628906 380.078125 291.980469 377.757813 C 289.535156 376.652344 287.992188 374 285.941406 371.996094 C 282.660156 368.796875 280.792969 368.648438 280.230469 372.050781 C 279.316406 377.570313 286.425781 383.082031 290.332031 384.804688 C 293.148438 386.046875 291.851563 386.75 289.960938 386.800781 C 285.105469 386.9375 279.859375 386.746094 276.410156 382.890625 C 272.8125 383.160156 269.753906 380.277344 268.039063 377.398438 C 266.589844 374.800781 266.695313 371.945313 268.300781 369.542969 C 270.414063 366.386719 271.4375 359.261719 266.691406 353.457031 C 253.703125 349.328125 253.894531 342.742188 259.453125 340.308594 C 266.03125 337.425781 272.792969 342.179688 276.140625 348.238281 L 277.402344 346.976563 C 278.035156 344.238281 277.789063 340.890625 276.621094 338.101563 C 274.183594 332.273438 274.035156 329.339844 279.378906 329.164063 C 285.578125 328.960938 283.667969 335.222656 282.535156 338.3125 C 281.828125 340.238281 281.042969 342.105469 281.003906 344.007813 C 281.089844 344.640625 281.8125 345.269531 282.621094 345 C 284.144531 339.179688 287.324219 335.164063 285.761719 330.65625 C 285.46875 329.800781 285.304688 328.996094 286.132813 328.167969 L 287.480469 329.429688 C 290.003906 332.578125 293.242188 330.328125 296.480469 330.058594 C 303.640625 338.722656 311.804688 336.75 321.039063 336.113281 C 328.144531 335.625 333.09375 335.613281 335.359375 336.269531 C 341.878906 338.320313 353.0625 339.03125 356.78125 333.660156 L 362.269531 340.769531 C 362.8125 342.480469 362.539063 345.359375 364.882813 346.617188 L 363.261719 349.226563 C 362 352.109375 363.800781 355.167969 366.140625 356.339844 C 365.421875 358.320313 361.527344 357.304688 361.136719 356.992188 C 358.894531 355.199219 358.398438 358.300781 358.679688 358.851563 C 359.589844 360.621094 366.71875 361.285156 367.132813 356.96875 C 374.488281 359.09375 378.75 360.449219 382.886719 357.832031 C 389.921875 353.386719 395.402344 345.988281 400.484375 339.246094 C 404.332031 334.140625 401.136719 327.363281 393.96875 328.53125 C 388.8125 329.367188 384.742188 333.613281 380.089844 334.648438 C 379.371094 327.71875 374.332031 322.859375 368.75 319.4375 C 370.46875 316.886719 369.691406 313.570313 367.679688 311.59375 C 363.804688 307.792969 357.789063 308.960938 352.910156 308.730469 C 353.480469 307.546875 353.570313 304.472656 353.496094 303.988281 C 352.660156 298.546875 359.132813 294.90625 361.28125 290.277344 C 364.699219 289.558594 366.949219 294.417969 369.742188 295.410156 C 373.917969 303.011719 385.324219 303.800781 387.878906 303.675781 C 391.382813 303.507813 393.667969 302.335938 396.9375 298.785156 C 401.824219 293.484375 407.195313 286.042969 408.066406 284.417969 C 408.792969 283.066406 409.660156 282.054688 410.988281 282.039063 C 413.1875 282.015625 416.332031 281.261719 418.648438 278.246094 C 420.789063 275.464844 419.574219 273.707031 416.191406 273.746094 C 419.066406 269.074219 416.203125 267.550781 412.359375 268.296875 C 414.761719 262.160156 408.558594 261.929688 406.621094 263.726563 C 405.128906 265.113281 403.789063 266.992188 402.453125 268.367188 C 400.945313 268.179688 401.539063 266.328125 401.453125 264.886719 C 401.1875 260.378906 394.8125 260.960938 393.734375 266.003906 C 392.855469 270.121094 394.40625 274.9375 395.589844 278.617188 C 392.347656 280.867188 389.167969 284.484375 386.105469 287.097656 C 384.398438 285.207031 380.179688 283.347656 382.699219 280.199219 C 378.652344 273.898438 371.8125 268.769531 369.382813 261.75 C 370.003906 261.625 370.574219 261.34375 371.261719 261.671875 C 383.859375 267.660156 396.070313 257.53125 398.101563 251.25 C 398.609375 249.6875 399.214844 248.230469 400.882813 247.800781 C 406.949219 247.53125 413.640625 237.632813 408.371094 233.578125 C 407.695313 232.953125 405.214844 231.820313 403.441406 231.375 C 402.277344 231.082031 402.246094 230.597656 402.644531 229.703125 C 403.425781 227.945313 405.238281 222.730469 400.519531 219.628906 C 401.421875 218.550781 401.640625 216.878906 401.28125 215.261719 C 398.066406 207.714844 392.046875 209.074219 385.460938 209.375 C 378.15625 209.707031 378.253906 209 373.9375 205.609375 C 371.234375 203.488281 369.839844 204.214844 371.394531 206.753906 C 374.816406 212.332031 385.789063 212.964844 389.457031 212.640625 C 392.878906 212.34375 396.132813 212.390625 398.539063 216.03125 C 399.171875 217.199219 400.417969 218.664063 399.425781 219.566406 C 396.1875 218.574219 394.222656 221.519531 391.789063 222.511719 C 386.921875 218.527344 381.476563 220.132813 377.730469 226.113281 C 375.289063 230.007813 375.519531 241.460938 383.347656 241.65625 C 389.964844 241.824219 392.984375 235.695313 393.410156 225.75 C 394.492188 223.589844 396.921875 222.570313 398.902344 222.871094 C 402.242188 223.382813 401.367188 226.820313 400.792969 228.730469 C 399.691406 225.199219 396.734375 227.132813 396.71875 228.894531 C 396.710938 230.101563 396.964844 231.621094 398.390625 232.0625 C 396.949219 232.421875 394.761719 232.769531 393.679688 233.851563 C 393.5 234.839844 393.882813 235.714844 394.402344 236.101563 C 397.617188 235.773438 400.601563 233.328125 403.363281 234.03125 C 408.457031 235.324219 408.371094 240.800781 405.257813 242.964844 C 404.113281 243.761719 402.160156 244.785156 400.984375 245.308594 C 397.382813 247.199219 395.132813 241.570313 392.421875 241.949219 C 392.871094 243.929688 393.679688 245.820313 395.660156 246.808594 C 396.699219 247.253906 396.59375 248.167969 396.160156 249.171875 C 391.933594 258.898438 378.601563 263.824219 370.871094 258.519531 C 369.230469 257.394531 367.984375 255.675781 366.597656 254.085938 C 364.304688 251.464844 362.695313 245.234375 365.714844 242.488281 C 367.199219 241.140625 366.675781 238.492188 364.605469 239.378906 C 357.964844 242.21875 363.855469 256.089844 366.046875 258.480469 C 357.761719 259.039063 357.410156 245.550781 357.140625 239.070313 C 356.984375 236.921875 353.773438 236.0625 351.507813 233.84375 C 349.785156 232.15625 347.789063 233.816406 349.703125 235.234375 C 351.839844 236.816406 351.703125 238.75 354.339844 239.984375 C 354.949219 240.328125 354.152344 243.144531 353.902344 244.558594 C 350.210938 242.039063 346.070313 239.519531 346.429688 234.480469 C 346.738281 230.570313 342.570313 228.636719 339.453125 230.554688 C 338.734375 230.996094 338.050781 231.355469 337.339844 230.339844 C 336.570313 228.9375 335.574219 227.449219 334.359375 226.164063 C 329.28125 220.777344 326.375 222.890625 322.082031 226.238281 C 316.019531 230.964844 309.441406 237.550781 308.675781 238.449219 C 307.246094 240.121094 304.515625 242.554688 302.652344 243.417969 C 302.199219 243.628906 293.644531 248.453125 291.996094 250.183594 C 290.054688 252.222656 291.84375 257.582031 296.464844 255.632813 C 294.964844 257.34375 293.476563 261.265625 299.546875 260.078125 C 300.171875 259.957031 301.074219 259.519531 301.546875 259.675781 C 298.222656 263.316406 302.015625 266.085938 304.207031 265.558594 C 307.519531 264.757813 307.535156 263.222656 308.933594 261.394531 C 309.757813 260.316406 310.207031 259.921875 310.316406 260.976563 C 310.730469 264.972656 314.300781 265.714844 316.378906 263.203125 C 319.339844 259.621094 318.246094 253.382813 313.578125 249.503906 C 316.546875 246.351563 319.609375 241.769531 323.75 240.058594 C 322.496094 244.515625 326.464844 246.546875 329.535156 249.152344 C 334.511719 253.375 333.898438 260.117188 327.980469 265.980469 C 316.640625 275.699219 300.53125 288.117188 304.582031 304.859375 C 302.960938 306.929688 296.558594 306.640625 296.039063 306.695313 C 290.789063 307.222656 292.761719 314.382813 288.109375 312.597656 C 286.878906 312.136719 285.589844 311.070313 285.859375 309.71875 C 289.320313 307.214844 290.03125 301.980469 287.257813 300.136719 C 279.574219 295.03125 268.351563 297.296875 265.210938 299.882813 C 261.011719 303.34375 256.597656 307.476563 258.320313 313.589844 C 260.753906 320.878906 269.84375 316.019531 274.789063 316.46875 C 275.511719 319.4375 274.433594 323.128906 277.039063 325.199219 C 277.519531 326.367188 276.378906 326.449219 275.398438 327.023438 C 271.066406 329.546875 270.761719 333.46875 273.449219 337.933594 C 273.894531 338.675781 274.144531 339.421875 273.171875 340.140625 C 270.460938 338.996094 268.085938 337.175781 265.199219 336.515625 C 260.96875 335.546875 254.257813 338.890625 253.3125 342.945313 C 251.976563 348.683594 257.5625 353.25 264.664063 355.410156 C 267.109375 359.175781 269.46875 365.21875 265.070313 368.9375 C 263.0625 368.605469 260.054688 368.613281 258.230469 371.601563 C 252.335938 375.234375 244.21875 373.859375 236.902344 374.160156 C 231.578125 374.203125 225.246094 374.882813 219.546875 374.175781 C 211.464844 373.179688 205.945313 370.699219 203.789063 360.414063 C 202.925781 356.300781 203.222656 351.722656 202.332031 347.636719 C 201.109375 342.046875 198.042969 341.921875 195.023438 347.136719 C 191.117188 353.886719 192.0625 363.226563 194.421875 369.929688 C 192.890625 371.726563 191.273438 370.648438 189.292969 370.558594 C 187.222656 370.378906 184.648438 363.996094 185.515625 362.566406 C 186.660156 360.664063 188.527344 358.75 186.683594 356.339844 C 184.3125 354.933594 181.445313 354.574219 178.621094 354.285156 C 172.433594 353.65625 165.441406 350.675781 158 354.316406 C 153.191406 356.671875 153.855469 363.148438 161.101563 363.933594 C 163.746094 364.222656 166.59375 363.730469 168.503906 365.429688 C 166.160156 367.5 154.851563 368.300781 152.625 367.902344 C 149.101563 367.269531 145.433594 368.46875 143.820313 371.335938 C 140.664063 376.941406 145.628906 380.695313 148.867188 382.082031 C 153.023438 383.855469 159.753906 382.015625 161.730469 381.199219 C 163.339844 380.535156 164.960938 380.179688 166.613281 381.628906 C 166.226563 385.164063 165.84375 388.898438 167.3125 392.269531 C 171.59375 402.101563 183.261719 401.746094 188.699219 400.992188 C 194.574219 400.171875 198.679688 397.046875 204.121094 398.414063 C 208.363281 399.480469 213.699219 399.5 216.398438 403.628906 C 222.113281 412.367188 232.117188 416.527344 249.226563 412.046875 C 249.710938 411.921875 250.699219 412.59375 252.019531 413.757813 C 259.496094 420.347656 264.90625 430.902344 272.183594 431.21875 C 279.753906 431.644531 287.859375 423.011719 287.425781 420.234375 C 286.523438 414.488281 294.90625 413.121094 295.582031 407.820313 C 295.671875 406.578125 295.851563 404.953125 296.019531 403.664063 C 296.75 398.058594 292.0625 397.492188 288.585938 399.582031 C 286.632813 400.753906 284.785156 402.539063 282.890625 403.679688 C 279.289063 399.269531 273.800781 397.828125 269.300781 394.859375 C 269.054688 392.183594 270.171875 392.398438 271.597656 392.894531 C 275.953125 394.398438 277.816406 392.117188 278.390625 388.109375 C 286.910156 391.140625 296.292969 388.34375 297.585938 386.339844 C 298.398438 385.082031 296.609375 384.140625 295.625 384.164063 C 291.707031 384.269531 285.285156 379.882813 283.890625 376.804688 C 283.074219 375.007813 283.535156 373.859375 285.613281 375.90625 C 289.074219 379.3125 292.34375 381.480469 299.207031 381.40625 C 308.945313 381.296875 319.675781 379.53125 324.195313 372.804688 C 325.742188 370.503906 326.851563 368.492188 328.539063 366.5625 Z M 324.996094 360.710938 C 326.257813 358.132813 328.90625 359.925781 327.71875 362.316406 C 326.496094 364.777344 323.511719 363.75 324.996094 360.710938 Z M 292.226563 354.457031 C 291.816406 350.679688 289.027344 350.835938 288.335938 352.386719 C 287.703125 354.277344 289.0625 356.691406 290.71875 356.484375 C 290.628906 358.585938 285.984375 359.554688 284.445313 355.066406 C 283.132813 351.234375 285.273438 346.097656 289.835938 347.601563 C 292.621094 348.519531 293.058594 352.070313 292.226563 354.457031 Z M 302.117188 348.210938 C 300.40625 345.601563 297.816406 348.664063 299.371094 351.3125 C 298.730469 351.789063 297.898438 351.777344 296.210938 352.46875 C 294.640625 351.59375 296.371094 348.777344 294.589844 347.191406 C 295.449219 342.265625 304.449219 341.730469 302.117188 348.210938 Z M 380.957031 237.082031 C 379.257813 234.945313 378.242188 231.492188 380.5625 227.96875 C 382.691406 224.730469 388.207031 221.546875 389.699219 226.648438 C 391.785156 233.777344 385.539063 242.851563 380.957031 237.082031 Z M 392.4375 334.03125 C 397.726563 330.492188 400.265625 332.273438 398.472656 336.570313 C 396.042969 342.390625 389.835938 346.996094 385.746094 352.261719 C 383.1875 355.5625 378.058594 357.445313 377.589844 355.070313 C 376.40625 349.097656 388.515625 336.652344 392.4375 334.03125 Z M 381.558594 337.753906 C 384.378906 335.5 385.789063 335.667969 383.179688 338.609375 C 379.265625 343.019531 375.066406 348.777344 373.609375 355.078125 C 369.246094 353.832031 363.265625 352.640625 367.066406 348.917969 C 371.609375 344.472656 376.925781 341.445313 381.558594 337.753906 Z M 377.277344 334.585938 C 377.359375 334.9375 377.480469 336.539063 377.480469 336.539063 L 367.132813 345 C 364.519531 343.378906 365.511719 340.410156 364.25 338.160156 C 362.449219 334.917969 357.320313 333.117188 359.660156 328.800781 C 361.28125 326.277344 363.351563 324.210938 365.871094 322.679688 C 371.539063 323.695313 376.015625 329.082031 377.277344 334.585938 Z M 387.5625 289.917969 C 390.800781 286.679688 393.949219 281.910156 398.269531 280.558594 C 400.066406 278.8125 399.320313 277.402344 398.265625 275.996094 C 396.167969 273.203125 395.339844 270.511719 395.910156 266.972656 C 396.554688 263 400.078125 263.734375 400.289063 266.976563 C 400.347656 267.902344 400.0625 268.878906 399.828125 269.800781 C 399.300781 271.90625 402.375 272.03125 403.121094 270.867188 C 404.347656 268.960938 405.671875 266.984375 407.28125 265.714844 C 409.71875 263.789063 412.332031 265.160156 410.789063 267.5625 C 410.078125 268.664063 409.023438 269.707031 408.476563 270.738281 C 408.054688 271.53125 408.007813 273.136719 409.644531 272.09375 C 410.3125 271.671875 411.425781 270.796875 412.519531 270.265625 C 415.335938 268.90625 416.445313 271.019531 414.5625 272.859375 C 413.71875 273.683594 412.496094 274.386719 411.84375 275.1875 C 410.890625 276.351563 411.621094 277.230469 412.914063 276.761719 C 413.453125 276.566406 414.433594 275.699219 415.046875 275.488281 C 418.050781 274.441406 418.660156 276.730469 415.574219 278.699219 C 413.898438 279.769531 411.445313 280.265625 410.597656 279.871094 C 408.6875 278.992188 407.105469 281.664063 406.371094 282.8125 C 403.914063 286.648438 394.835938 300.234375 389.457031 300.253906 C 383.550781 300.273438 375.878906 301.164063 372.621094 294.148438 C 373.699219 291 375.859375 288.117188 378.832031 286.050781 C 382.25 286.050781 383.960938 291.449219 387.5625 289.917969 Z M 312.976563 247.328125 C 311.308594 248.960938 311.128906 250.507813 313.511719 252.816406 C 315.664063 254.902344 316.707031 258.628906 315.730469 260.492188 C 314.164063 263.464844 311.515625 263.449219 311.894531 259.824219 C 312.039063 258.394531 312.800781 257.441406 310.410156 255.527344 C 308.972656 256.222656 309.3125 257.425781 308.964844 258.367188 C 307.960938 261.074219 306.605469 262.25 304.539063 263.378906 C 302.480469 264.507813 300.765625 262.832031 302.75 260.601563 C 304.128906 259.050781 305.753906 257.679688 304.984375 256.300781 C 304.816406 256.003906 301.941406 257.996094 299.640625 258.535156 C 297.648438 259.003906 295.828125 257.445313 298.183594 255.613281 C 299.363281 254.699219 301.039063 253.78125 301.894531 253.175781 C 303.335938 252.152344 302.351563 250.238281 300.566406 251.113281 C 299.175781 251.796875 297.914063 253.113281 296.628906 253.820313 C 293.765625 255.394531 292.945313 252.644531 295.285156 250.386719 C 297.722656 248.035156 301.242188 245.941406 304.394531 244.78125 C 311.035156 239.46875 317.746094 233.921875 324.289063 228.3125 C 326.703125 226.242188 328.742188 224.214844 331.164063 226.695313 C 332.246094 227.804688 333.070313 229.46875 333.914063 230.808594 C 334.546875 231.8125 335.777344 233.15625 333.851563 233.835938 C 331.070313 234.816406 328.609375 237.203125 326 237.449219 C 325.46875 230.515625 316.171875 244.207031 312.976563 247.328125 Z M 306.65625 298.886719 C 307.636719 287.8125 319.429688 277.421875 323.257813 274.121094 C 338.867188 260.660156 337.273438 251.65625 329.578125 245.535156 C 326.292969 242.921875 327.191406 241.164063 330.355469 239.359375 C 333.164063 237.757813 336.328125 236.988281 338.953125 234.972656 C 341.53125 232.996094 343.203125 234.410156 343.632813 236.414063 C 344.820313 241.976563 348.972656 246.214844 354.171875 248.429688 C 355.539063 258.859375 363.65625 262.683594 365.871094 262.019531 C 369.472656 268.410156 373.699219 273.898438 378.199219 279.570313 C 379.289063 280.902344 377.246094 283.101563 375.890625 284.085938 C 373.386719 285.90625 371.140625 288.542969 370.101563 291.179688 C 367.089844 292.429688 360.511719 283.648438 359.390625 284.070313 C 357.859375 285.148438 358.039063 286.679688 359.03125 287.9375 C 357.050781 291.71875 353.8125 295.230469 350.929688 298.378906 C 350.839844 302.25 351.382813 306.300781 349.3125 309.359375 C 346.054688 310.261719 343.019531 311.863281 339.847656 313.164063 C 333.640625 315.714844 321.953125 317.449219 312.429688 309.578125 C 307.4375 305.453125 306.082031 305.363281 306.65625 298.886719 Z M 296.898438 310.902344 C 300.046875 309.617188 303.648438 310.652344 306.5625 309 C 319.722656 322.378906 338.417969 320.445313 351.921875 311.339844 C 357.410156 312.058594 362.902344 310.617188 366.5 315.210938 C 365.511719 319.527344 360.5625 321.148438 358.039063 325.199219 C 355.972656 328.710938 354.261719 335.097656 348.679688 334.289063 C 336.261719 332.757813 324.472656 331.859375 311.0625 333.660156 C 299.609375 332.75 295.34375 324.523438 294.304688 317.964844 C 293.617188 313.605469 294.691406 311.804688 296.898438 310.902344 Z M 290.359375 315.480469 C 290.179688 319.617188 292.972656 322.679688 294.230469 326.1875 C 293.195313 329.148438 290.886719 328.488281 288.976563 327.765625 C 288.007813 327.398438 286.035156 326.765625 284.953125 327.488281 C 283.433594 326.484375 282.15625 325.300781 280.28125 325.558594 C 277.457031 322.476563 277.5625 318.433594 278.542969 314.667969 C 279.953125 309.242188 282.890625 309.359375 282.890625 309.359375 C 281.929688 312.789063 288.226563 316.441406 290.359375 315.480469 Z M 275.78125 311.96875 C 271.820313 314.039063 266.871094 314.667969 262.191406 313.859375 C 260.199219 313.613281 260.933594 309.898438 261.5625 308.367188 C 266.667969 298.457031 273.144531 299.542969 283.148438 301.519531 C 285.289063 301.941406 286.136719 303.785156 283.707031 304.8125 C 280.179688 306.300781 275.476563 306.953125 275.78125 311.96875 Z M 164.609375 361.121094 C 158.058594 360.773438 158.105469 357.898438 160.183594 356.523438 C 163.316406 354.445313 167.355469 355.796875 170.761719 356.535156 C 174.601563 357.367188 178.703125 357.21875 182.535156 357.820313 C 184.589844 357.863281 183.785156 360.859375 182.875 361.898438 C 180.980469 364.054688 185.503906 373.101563 188.046875 373.785156 C 188.390625 373.878906 188.660156 374.25 188.933594 374.519531 C 188.570313 376.046875 182.242188 376.242188 180.460938 376.035156 C 178.625 375.824219 177.097656 375.050781 176.960938 372.539063 C 176.871094 367.679688 169.761719 367.046875 171.472656 361.828125 C 169.355469 361.0625 166.949219 361.242188 164.609375 361.121094 Z M 278.496094 425.757813 C 274.953125 428.570313 271.433594 429.628906 267.320313 425.367188 C 262.371094 419.070313 255.351563 414.65625 250.851563 407.820313 C 249.871094 407.511719 249.222656 408 248.566406 408.511719 C 244.800781 411.460938 224.972656 411.378906 219.082031 402.328125 C 215.246094 396.144531 201.84375 393.914063 195.402344 396.222656 C 181.449219 401.222656 167.886719 397.898438 169.496094 383.820313 C 170.148438 378.101563 164.109375 377.1875 162.390625 377.554688 C 156.933594 378.730469 151.664063 381.191406 147.3125 377.128906 C 145.265625 375.214844 146.691406 372.414063 149.636719 371.878906 C 155.359375 370.835938 161.398438 371.535156 167.4375 369.417969 C 171.355469 368.042969 172.765625 370.335938 174.398438 374.21875 C 175.699219 377.316406 177.210938 382.03125 180.835938 380.238281 C 181.394531 379.960938 181.949219 379.648438 182.453125 379.648438 C 187.941406 379.738281 193.882813 378.929688 196.402344 373.796875 C 197.480469 373.796875 198.832031 374.789063 199.640625 373.527344 C 199.820313 371.367188 198.382813 369.390625 196.402344 368.667969 C 196.136719 363.523438 194.230469 357.285156 195.847656 352.277344 C 197.59375 346.867188 200.367188 346.960938 200.367188 352.648438 C 200.371094 360.964844 201.414063 370.96875 211.21875 375.546875 C 212.046875 375.9375 225.648438 378.75 231.5625 377.769531 C 235.441406 377.128906 238.679688 376.902344 244.460938 377.269531 C 248.851563 377.546875 253.183594 377.679688 257.332031 375.777344 C 257.910156 376.9375 257.941406 378.441406 258.019531 379.976563 C 258.285156 385.398438 261.425781 387.609375 265.757813 391 C 266.953125 391.9375 263.8125 395.578125 263.8125 395.578125 C 263.78125 397.796875 261.59375 399.839844 260.476563 399.277344 C 258.578125 398.328125 256.605469 395.945313 255.980469 400.078125 C 257.4375 401.992188 259.574219 403.515625 261.609375 405.105469 C 266.277344 408.757813 268.453125 411.578125 269.296875 417.230469 C 269.640625 419.535156 269.964844 421.597656 273.171875 420.148438 L 278.863281 414.980469 C 279.066406 415.46875 279.132813 416.175781 279.292969 416.898438 C 279.550781 418.070313 281.839844 419.480469 284.703125 418.40625 C 284.300781 420.644531 281.078125 423.707031 278.496094 425.757813 Z M 283.519531 407.820313 C 286.035156 406.445313 288.035156 403.78125 290.558594 402.34375 C 293.167969 400.855469 293.703125 406.109375 291.816406 408.085938 C 289.652344 410.351563 287.855469 412.804688 285.371094 414.390625 C 283.6875 415.464844 282.136719 415.21875 281.800781 413.433594 C 281.652344 412.65625 281.453125 411.914063 280.640625 411.417969 C 277.039063 411.058594 275.152344 414.386719 272.183594 415.648438 C 271.191406 411.957031 266.085938 404.53125 265.515625 404.144531 C 264.617188 403.527344 263.757813 402.96875 263.8125 401.699219 L 267.683594 397.46875 C 273.082031 400.527344 278.933594 402.6875 283.519531 407.820313 Z M 274.257813 389.847656 C 267.742188 392.652344 257.800781 382.90625 261.175781 374.46875 C 262.230469 371.832031 263.640625 371.609375 264.109375 375.328125 C 264.546875 378.773438 269.238281 385.753906 275.152344 385.859375 C 276.402344 386.820313 276.261719 388.984375 274.257813 389.847656 "/>
<path style=" stroke:none;fill-rule:nonzero;fill:rgb(0%,0%,0%);fill-opacity:1;" d="M 155.996094 318.828125 C 157.4375 314.820313 154.644531 306.28125 154.222656 305.140625 C 153.734375 303.820313 151.625 304.96875 151.945313 306.148438 C 153.050781 310.210938 154.378906 314.652344 154.082031 318.734375 C 153.988281 320.027344 155.535156 320.113281 155.996094 318.828125 "/>
<path style=" stroke:none;fill-rule:nonzero;fill:rgb(0%,0%,0%);fill-opacity:1;" d="M 153.65625 46.632813 C 152.050781 48.011719 150.886719 50.339844 153.921875 51.152344 C 154.726563 48.242188 158.0625 48.722656 158.511719 46.5625 C 158.378906 45.289063 155.480469 45.066406 153.65625 46.632813 "/>
<path style=" stroke:none;fill-rule:nonzero;fill:rgb(0%,0%,0%);fill-opacity:1;" d="M 163.371094 26.222656 C 163.671875 23.621094 164.765625 21.386719 164.984375 18.816406 C 165.160156 16.796875 163.511719 17.328125 162.867188 18.394531 C 161.964844 19.894531 161.460938 22.1875 161.390625 24.242188 C 161.355469 25.535156 162.023438 26.3125 163.371094 26.222656 "/>
<path style=" stroke:none;fill-rule:nonzero;fill:rgb(0%,0%,0%);fill-opacity:1;" d="M 247.5625 255.964844 C 245.21875 252.609375 232.953125 255.484375 229.328125 256.851563 C 215.601563 262.027344 188.960938 255.679688 182.894531 246.6875 C 179.296875 241.359375 167.828125 233.464844 165.296875 232.929688 C 163.273438 232.5 163.339844 233.953125 164.429688 234.9375 C 171.929688 241.730469 175.550781 241.367188 180.171875 247.671875 C 190.835938 262.222656 216.40625 262.390625 226.210938 259.984375 C 231.855469 258.597656 237.410156 256.75 243.871094 257.210938 C 245.40625 256.976563 248.894531 257.871094 247.5625 255.964844 "/>
<path style=" stroke:none;fill-rule:nonzero;fill:rgb(0%,0%,0%);fill-opacity:1;" d="M 166.894531 63.628906 C 160.890625 81.863281 178.085938 90.875 188.214844 80.484375 C 188.957031 79.726563 191.300781 77.730469 189.292969 75.722656 C 188.09375 76.484375 187.378906 77.925781 185.730469 79.25 C 178.527344 85.039063 166.519531 81.445313 169.214844 64.285156 C 169.589844 61.90625 167.671875 61.273438 166.894531 63.628906 "/>
<path style=" stroke:none;fill-rule:nonzero;fill:rgb(0%,0%,0%);fill-opacity:1;" d="M 169.714844 16.378906 C 172.15625 6.890625 183.238281 7.105469 190.28125 3.539063 C 194.535156 1.839844 197.003906 2.769531 198.515625 4.421875 C 198.96875 4.921875 200.105469 5.25 200.1875 4.226563 C 200.304688 2.765625 199.640625 0.871094 195.707031 0.328125 C 191.648438 -0.234375 173.246094 3.363281 168.824219 12.371094 C 168.019531 14.011719 166.515625 15.621094 167.34375 17.328125 C 168.257813 19.21875 169.449219 17.40625 169.714844 16.378906 "/>
<path style=" stroke:none;fill-rule:nonzero;fill:rgb(0%,0%,0%);fill-opacity:1;" d="M 208.621094 428.992188 C 208.980469 428.136719 209.585938 427.214844 209.363281 426.359375 C 207.921875 422.667969 203.78125 425.277344 201.261719 424.019531 C 201.261719 424.019531 201.824219 420.113281 199.03125 419.175781 C 190.226563 416.21875 184.210938 419.128906 178.941406 421.496094 C 178.222656 422.488281 178.761719 424.378906 180.203125 424.378906 C 185.691406 422.398438 191.902344 418.796875 198.023438 421.136719 C 198.316406 423.1875 194.597656 424.515625 192.628906 425.222656 C 190.648438 425.929688 192.960938 428.972656 193.898438 428.753906 C 197.722656 427.847656 200.796875 426.195313 205.492188 426.628906 C 206.6875 427.613281 206.082031 428.421875 205.53125 429.308594 C 203.464844 432.636719 207.222656 435.054688 211.476563 434.039063 C 217.65625 432.558594 223.894531 431.078125 230.0625 429.597656 C 230.652344 428.773438 230.0625 427.707031 229.433594 426.988281 C 223.804688 427.644531 206.511719 434 208.621094 428.992188 "/>
<path style=" stroke:none;fill-rule:nonzero;fill:rgb(0%,0%,0%);fill-opacity:1;" d="M 178.851563 43.5 C 179.589844 46.257813 182.929688 45.253906 182.671875 42.480469 C 182.382813 39.351563 178.027344 40.40625 178.851563 43.5 "/>
<path style=" stroke:none;fill-rule:nonzero;fill:rgb(0%,0%,0%);fill-opacity:1;" d="M 196.402344 316.828125 C 191.902344 318.089844 188.300781 321.867188 184.433594 324.929688 C 184.253906 326.007813 184.882813 327.269531 186.050781 327.179688 C 188.570313 324.390625 191.8125 321.6875 195.140625 320.070313 C 197.480469 323.039063 195.089844 326.96875 197.660156 330.777344 C 199.207031 332.722656 201.695313 333.105469 204.042969 333.03125 C 208.167969 332.90625 209.117188 332.660156 210.835938 336.332031 C 215.285156 345.855469 227.414063 350.683594 230.265625 346.378906 C 231.03125 345.214844 230.730469 343.738281 229.433594 343.738281 C 226.167969 347.503906 215.941406 340.367188 213.488281 335.546875 C 208.789063 326.320313 207.386719 331.949219 201.261719 329.789063 C 195.773438 327.628906 201.441406 319.4375 196.402344 316.828125 "/>
<path style=" stroke:none;fill-rule:nonzero;fill:rgb(0%,0%,0%);fill-opacity:1;" d="M 191.542969 10.019531 C 190.910156 10.921875 191.542969 12.269531 192.53125 12.902344 L 196.402344 10.652344 C 199.878906 8.976563 207.527344 11.289063 206.121094 15.78125 C 204.425781 15.78125 202.519531 13.820313 199.652344 15.621094 C 198.847656 16.128906 199.761719 18.457031 201.382813 17.925781 C 201.195313 17.984375 206.910156 16.40625 203.835938 23.09375 C 208.253906 21.152344 206.660156 25.949219 208.730469 26.492188 C 209.542969 25.320313 210.3125 23.046875 209.054688 22.09375 C 206.695313 20.914063 208.074219 18.636719 206.480469 16.5 C 206.753906 15.511719 207.921875 16.140625 208.371094 15.511719 C 211.375 7.867188 196.433594 5.128906 191.542969 10.019531 "/>
<path style=" stroke:none;fill-rule:nonzero;fill:rgb(0%,0%,0%);fill-opacity:1;" d="M 262.808594 347.691406 C 264.046875 349.453125 265.664063 349.011719 267.050781 348.238281 C 269.121094 348.777344 270.289063 350.398438 271.910156 351.476563 C 272.363281 350.308594 272.363281 348.6875 271.910156 347.609375 C 271.242188 347.449219 269.792969 346.507813 268.34375 345.863281 C 265.609375 344.648438 261.71875 346.136719 262.808594 347.691406 "/>
<path style=" stroke:none;fill-rule:nonzero;fill:rgb(0%,0%,0%);fill-opacity:1;" d="M 274.363281 267.933594 C 276.726563 272.699219 279.9375 272.625 284.210938 272.589844 C 288.894531 272.550781 293.859375 272.160156 297.203125 276.960938 C 298.460938 276.777344 299.269531 275.929688 298.460938 274.710938 C 295.605469 270.285156 288.785156 269.050781 284.851563 269.34375 C 281.6875 269.578125 273.0625 267.996094 275.613281 263.921875 C 276.789063 262.050781 279.449219 260.230469 279.652344 258.148438 C 276.230469 256.347656 275.691406 261.210938 272.902344 262.738281 C 271.804688 261.421875 273.085938 260.046875 273.605469 258.558594 C 274.410156 256.25 272.585938 254.929688 271.605469 257.339844 C 270.910156 259.046875 270.234375 260.746094 270 262.648438 C 269.433594 267.289063 272.445313 263.871094 274.363281 267.933594 "/>
<path style=" stroke:none;fill-rule:nonzero;fill:rgb(0%,0%,0%);fill-opacity:1;" d="M 346.324219 351.894531 C 343.839844 352.292969 344.230469 354.09375 346.703125 354.5 C 350.207031 355.078125 356.355469 353.976563 357.726563 353.757813 C 359.535156 353.46875 359.398438 351.34375 357.375 351.34375 C 355.660156 351.34375 353.519531 352.066406 352.449219 351.785156 C 352.3125 351.199219 352.234375 350.015625 352.347656 349.5 C 354.277344 340.621094 344.851563 346.796875 340.582031 345 C 338.964844 342.035156 328.296875 341.320313 320.726563 343.058594 C 318.152344 343.648438 318.867188 346.121094 321.371094 345.925781 C 326.839844 345.492188 331.90625 343.335938 334.796875 346.0625 C 335.9375 347.140625 336.820313 348.953125 340.503906 348.273438 C 347.238281 347.035156 348.984375 347.101563 350.929688 351.476563 C 349.75 352.324219 347.734375 351.667969 346.324219 351.894531 "/>
<path style=" stroke:none;fill-rule:nonzero;fill:rgb(0%,0%,0%);fill-opacity:1;" d="M 404.121094 416.636719 C 400.609375 417.71875 397.910156 420.597656 395.03125 423.117188 C 394.492188 423.570313 393.410156 423.570313 393.050781 422.757813 C 393.050781 422.757813 394.632813 414.414063 396.945313 411.730469 C 398.4375 410.003906 396.316406 408.421875 395.4375 409.195313 C 393.039063 411.292969 392.574219 414.488281 391.925781 417.621094 C 391.09375 421.636719 388.460938 426.3125 385.3125 424.738281 C 382.855469 421.113281 379.050781 420.667969 375.230469 420.273438 C 369.359375 419.671875 364.195313 419.25 360.15625 412.035156 C 355.875 404.390625 350.105469 399.515625 341.839844 396.207031 C 337.3125 390.855469 331.503906 387.839844 324.691406 388.46875 C 322.234375 388.695313 323.195313 391.578125 325.539063 391.636719 C 330.503906 391.761719 335.695313 392.652344 338.960938 397.46875 C 346.605469 400.667969 354.691406 406.792969 358.210938 413.390625 C 362.636719 421.6875 369.316406 422.660156 375.867188 423.382813 C 378.660156 423.691406 381.371094 424.234375 383.332031 426.988281 C 385.171875 429.855469 389.269531 427.617188 391.429688 425.996094 L 392.421875 427.617188 C 396.921875 425.367188 400.699219 421.496094 405.019531 418.886719 C 406.035156 418.230469 404.839844 416.679688 404.121094 416.636719 "/>
<path style=" stroke:none;fill-rule:nonzero;fill:rgb(0%,0%,0%);fill-opacity:1;" d="M 356.589844 233.570313 C 357.59375 233.949219 358.617188 234.140625 359.660156 233.851563 C 360.382813 233.398438 360.652344 232.769531 360.652344 231.960938 C 359.738281 231.390625 358.6875 231.179688 357.621094 230.988281 C 352.035156 229.988281 352.878906 226.570313 356.164063 223.777344 C 360.207031 220.347656 365.34375 219.574219 369.382813 225.75 C 370.820313 225.390625 370.902344 223.941406 370.398438 222.675781 C 369.679688 221.234375 368.480469 220.261719 367.132813 219.628906 C 367.132813 217.027344 368.40625 217.59375 369.929688 218.140625 C 372.335938 219.003906 373.730469 217.9375 374.601563 215.761719 C 376.691406 215.316406 381.511719 217.292969 383.0625 215.398438 C 383.476563 214.84375 383.289063 213.121094 382.339844 213.421875 C 376.933594 215.136719 366.351563 211.347656 365.320313 205.058594 C 365.132813 203.894531 363.230469 204.605469 363.230469 205.648438 C 363.226563 209.328125 366.617188 212.128906 369.304688 214.214844 C 370.460938 215.109375 369.703125 215.402344 369.03125 215.28125 C 365.679688 214.679688 363.488281 211.941406 362.117188 209.023438 C 361.464844 207.636719 359.777344 208.242188 359.972656 209.738281 C 360.273438 212.105469 362.933594 213.933594 364.25 216.03125 C 362.628906 217.921875 360.445313 215.554688 358.777344 212.40625 C 357.851563 210.65625 356.175781 211.949219 356.558594 213.4375 C 356.953125 214.972656 357.820313 216.339844 359.085938 217.363281 C 360.339844 218.371094 358.476563 219.773438 357.3125 218.628906 C 356.257813 217.59375 356.304688 215.839844 355.160156 214.769531 C 352.75 215.503906 352.195313 217.992188 353.789063 219.835938 C 354.894531 221.117188 353.925781 222.121094 352.886719 223.160156 C 350.121094 225.925781 349.621094 230.941406 356.589844 233.570313 "/>
<path style=" stroke:none;fill-rule:nonzero;fill:rgb(0%,0%,0%);fill-opacity:1;" d="M 358.761719 228.71875 C 359.050781 230.667969 360.335938 229.402344 361.339844 228.441406 C 362.746094 227.085938 365.285156 226.890625 366.859375 228.988281 C 368.03125 228.179688 367.832031 225.296875 366.445313 224.949219 C 363.890625 224.3125 358.046875 225.152344 358.761719 228.71875 "/>
<path style=" stroke:none;fill-rule:nonzero;fill:rgb(0%,0%,0%);fill-opacity:1;" d="M 385.007813 233.148438 C 384.945313 236.128906 388.3125 236.636719 388.699219 233.144531 C 389.070313 229.777344 385.070313 230.007813 385.007813 233.148438 "/>
<path style=" stroke:none;fill-rule:nonzero;fill:rgb(0%,0%,0%);fill-opacity:1;" d="M 493.433594 327.21875 C 493.992188 324.640625 490.992188 326.488281 490.75 326.695313 C 478.425781 337.3125 455.15625 330.449219 445.585938 318.433594 C 441.566406 313.386719 417.320313 300.546875 409.539063 300.570313 C 406.589844 300.578125 404.464844 300.96875 401.78125 300 C 400.738281 299.488281 400.523438 301.382813 401.277344 302.703125 C 403.105469 305.910156 406.316406 302.777344 411.941406 304.609375 C 419.730469 307.148438 439.539063 314.234375 444.605469 321.097656 C 450.90625 329.632813 463.152344 334.328125 468.695313 335.378906 C 477.511719 337.050781 492.464844 331.671875 493.433594 327.21875 "/>
<path style=" stroke:none;fill-rule:nonzero;fill:rgb(0%,0%,0%);fill-opacity:1;" d="M 519.917969 362.273438 C 514.078125 360.917969 505.230469 359.519531 502.914063 351.300781 C 501.535156 346.410156 498.96875 346.835938 492.214844 346.257813 C 490.328125 346.097656 489.910156 349.53125 493.140625 349.398438 C 496.230469 349.269531 499.800781 348.882813 500.222656 351.976563 C 501.128906 358.601563 512.464844 365.589844 520.039063 365.761719 C 522.808594 365.824219 523.820313 363.175781 519.917969 362.273438 "/>
<path style=" stroke:none;fill-rule:nonzero;fill:rgb(0%,0%,0%);fill-opacity:1;" d="M 197.195313 41.261719 C 196.902344 38.128906 192.550781 39.183594 193.375 42.28125 C 194.109375 45.039063 197.449219 44.035156 197.195313 41.261719 "/>
<path style=" stroke:none;fill-rule:nonzero;fill:rgb(0%,0%,0%);fill-opacity:1;" d="M 171.09375 312.617188 C 170.757813 313.53125 169.1875 318.492188 170.339844 321.699219 C 170.710938 322.726563 171.949219 322.660156 171.871094 321.621094 C 171.636719 318.359375 172.03125 316.671875 172.914063 313.421875 C 173.171875 312.476563 171.484375 311.5625 171.09375 312.617188 "/>
<path style=" stroke:none;fill-rule:nonzero;fill:rgb(0%,0%,0%);fill-opacity:1;" d="M 162.890625 311.445313 C 162.484375 312.539063 160.601563 318.496094 161.984375 322.34375 C 162.425781 323.574219 163.914063 323.496094 163.820313 322.253906 C 163.535156 318.335938 164.011719 316.3125 165.070313 312.410156 C 165.382813 311.277344 163.359375 310.175781 162.890625 311.445313 "/>
<path style=" stroke:none;fill-rule:nonzero;fill:rgb(0%,0%,0%);fill-opacity:1;" d="M 178.371094 316.578125 C 178.035156 317.492188 176.46875 322.453125 177.617188 325.660156 C 177.988281 326.6875 179.226563 326.621094 179.148438 325.585938 C 178.914063 322.320313 179.308594 320.632813 180.191406 317.386719 C 180.449219 316.4375 178.765625 315.523438 178.371094 316.578125 "/>
<path style=" stroke:none;fill-rule:nonzero;fill:rgb(0%,0%,0%);fill-opacity:1;" d="M 239.535156 307.359375 C 240.976563 303.351563 238.179688 294.8125 237.757813 293.671875 C 237.269531 292.351563 235.164063 293.496094 235.484375 294.679688 C 236.589844 298.742188 237.917969 303.183594 237.621094 307.265625 C 237.527344 308.558594 239.074219 308.644531 239.535156 307.359375 "/>
<path style=" stroke:none;fill-rule:nonzero;fill:rgb(0%,0%,0%);fill-opacity:1;" d="M 247.359375 310.78125 C 247.074219 306.863281 247.550781 304.84375 248.609375 300.941406 C 248.921875 299.808594 246.894531 298.707031 246.429688 299.976563 C 246.023438 301.070313 244.140625 307.027344 245.519531 310.871094 C 245.964844 312.105469 247.449219 312.027344 247.359375 310.78125 "/>
<path style=" stroke:none;fill-rule:nonzero;fill:rgb(0%,0%,0%);fill-opacity:1;" d="M 239.816406 345.722656 C 239.480469 346.636719 237.910156 351.597656 239.0625 354.804688 C 239.429688 355.832031 240.671875 355.765625 240.59375 354.726563 C 240.355469 351.464844 240.753906 349.777344 241.636719 346.53125 C 241.894531 345.582031 240.207031 344.667969 239.816406 345.722656 "/>
<path style=" stroke:none;fill-rule:nonzero;fill:rgb(0%,0%,0%);fill-opacity:1;" d="M 247.09375 349.683594 C 246.757813 350.597656 245.1875 355.558594 246.339844 358.765625 C 246.710938 359.792969 247.949219 359.726563 247.871094 358.691406 C 247.636719 355.425781 248.03125 353.738281 248.914063 350.488281 C 249.171875 349.542969 247.484375 348.628906 247.09375 349.683594 "/>
<path style=" stroke:none;fill-rule:nonzero;fill:rgb(0%,0%,0%);fill-opacity:1;" d="M 251.976563 259.859375 C 253.414063 255.851563 250.617188 247.3125 250.195313 246.171875 C 249.710938 244.851563 247.601563 245.996094 247.921875 247.179688 C 249.027344 251.242188 250.355469 255.683594 250.058594 259.765625 C 249.964844 261.058594 251.515625 261.144531 251.976563 259.859375 "/>
<path style=" stroke:none;fill-rule:nonzero;fill:rgb(0%,0%,0%);fill-opacity:1;" d="M 266.316406 262.730469 C 266.6875 263.757813 267.925781 263.691406 267.847656 262.652344 C 267.609375 259.390625 268.007813 257.703125 268.890625 254.453125 C 269.148438 253.507813 267.464844 252.59375 267.070313 253.648438 C 266.734375 254.5625 265.164063 259.523438 266.316406 262.730469 "/>
<path style=" stroke:none;fill-rule:nonzero;fill:rgb(0%,0%,0%);fill-opacity:1;" d="M 258.867188 252.476563 C 258.460938 253.570313 256.578125 259.527344 257.960938 263.371094 C 258.402344 264.605469 259.890625 264.527344 259.796875 263.28125 C 259.511719 259.363281 259.988281 257.34375 261.050781 253.441406 C 261.359375 252.308594 259.335938 251.207031 258.867188 252.476563 "/>
<path style=" stroke:none;fill-rule:nonzero;fill:rgb(0%,0%,0%);fill-opacity:1;" d="M 164.621094 272.882813 C 162.472656 276.5 160.203125 280.542969 157.0625 283.164063 C 156.066406 283.996094 157.082031 285.171875 158.328125 284.609375 C 162.207031 282.855469 166.402344 274.910156 166.929688 273.816406 C 167.539063 272.546875 165.25 271.828125 164.621094 272.882813 "/>
<path style=" stroke:none;fill-rule:nonzero;fill:rgb(0%,0%,0%);fill-opacity:1;" d="M 175.757813 276.261719 C 174.6875 276.730469 169.101563 279.519531 167.296875 283.1875 C 166.714844 284.363281 167.808594 285.375 168.640625 284.445313 C 171.257813 281.515625 173.039063 280.453125 176.578125 278.503906 C 177.609375 277.9375 176.996094 275.71875 175.757813 276.261719 "/>
<path style=" stroke:none;fill-rule:nonzero;fill:rgb(0%,0%,0%);fill-opacity:1;" d="M 82.953125 328.292969 C 84.054688 332.355469 85.382813 336.792969 85.085938 340.875 C 84.992188 342.171875 86.542969 342.253906 87.003906 340.96875 C 88.441406 336.960938 85.648438 328.425781 85.226563 327.285156 C 84.738281 325.964844 82.628906 327.109375 82.953125 328.292969 "/>
<path style=" stroke:none;fill-rule:nonzero;fill:rgb(0%,0%,0%);fill-opacity:1;" d="M 102.101563 334.757813 C 101.761719 335.671875 100.195313 340.632813 101.34375 343.839844 C 101.714844 344.867188 102.953125 344.800781 102.878906 343.765625 C 102.640625 340.5 103.035156 338.8125 103.917969 335.566406 C 104.175781 334.617188 102.488281 333.703125 102.101563 334.757813 "/>
<path style=" stroke:none;fill-rule:nonzero;fill:rgb(0%,0%,0%);fill-opacity:1;" d="M 93.894531 333.585938 C 93.488281 334.679688 91.605469 340.636719 92.988281 344.484375 C 93.429688 345.71875 94.917969 345.636719 94.828125 344.394531 C 94.539063 340.476563 95.015625 338.453125 96.078125 334.554688 C 96.386719 333.417969 94.363281 332.320313 93.894531 333.585938 "/>
<path style=" stroke:none;fill-rule:nonzero;fill:rgb(0%,0%,0%);fill-opacity:1;" d="M 109.378906 338.71875 C 109.039063 339.632813 107.472656 344.59375 108.621094 347.800781 C 108.992188 348.828125 110.230469 348.761719 110.15625 347.726563 C 109.917969 344.460938 110.3125 342.777344 111.195313 339.527344 C 111.453125 338.578125 109.769531 337.664063 109.378906 338.71875 "/>
<path style=" stroke:none;fill-rule:nonzero;fill:rgb(0%,0%,0%);fill-opacity:1;" d="M 241.878906 433.886719 C 241.109375 434.480469 237.140625 437.851563 236.410156 441.175781 C 236.179688 442.242188 237.265625 442.84375 237.75 441.925781 C 239.285156 439.035156 240.515625 437.820313 242.992188 435.539063 C 243.714844 434.871094 242.773438 433.199219 241.878906 433.886719 "/>
<path style=" stroke:none;fill-rule:nonzero;fill:rgb(0%,0%,0%);fill-opacity:1;" d="M 251.4375 434.277344 C 250.667969 434.871094 246.699219 438.242188 245.96875 441.566406 C 245.734375 442.632813 246.820313 443.234375 247.308594 442.316406 C 248.84375 439.425781 250.074219 438.210938 252.550781 435.925781 C 253.269531 435.261719 252.328125 433.589844 251.4375 434.277344 "/>
<path style=" stroke:none;fill-rule:nonzero;fill:rgb(0%,0%,0%);fill-opacity:1;" d="M 261.785156 216.792969 C 262.890625 220.855469 264.21875 225.292969 263.921875 229.375 C 263.824219 230.671875 265.375 230.753906 265.835938 229.46875 C 267.273438 225.460938 264.480469 216.925781 264.058594 215.785156 C 263.570313 214.464844 261.464844 215.609375 261.785156 216.792969 "/>
<path style=" stroke:none;fill-rule:nonzero;fill:rgb(0%,0%,0%);fill-opacity:1;" d="M 281.710938 232.265625 C 281.472656 229 281.867188 227.3125 282.753906 224.066406 C 283.011719 223.117188 281.324219 222.203125 280.933594 223.257813 C 280.59375 224.171875 279.027344 229.132813 280.179688 232.339844 C 280.546875 233.367188 281.785156 233.300781 281.710938 232.265625 "/>
<path style=" stroke:none;fill-rule:nonzero;fill:rgb(0%,0%,0%);fill-opacity:1;" d="M 273.660156 232.894531 C 273.375 228.976563 273.847656 226.953125 274.910156 223.054688 C 275.21875 221.917969 273.195313 220.820313 272.726563 222.085938 C 272.320313 223.179688 270.441406 229.136719 271.820313 232.984375 C 272.261719 234.21875 273.75 234.136719 273.660156 232.894531 "/>
<path style=" stroke:none;fill-rule:nonzero;fill:rgb(0%,0%,0%);fill-opacity:1;" d="M 288.988281 236.226563 C 288.75 232.960938 289.144531 231.277344 290.03125 228.027344 C 290.289063 227.078125 288.601563 226.164063 288.210938 227.21875 C 287.871094 228.132813 286.304688 233.09375 287.453125 236.300781 C 287.824219 237.328125 289.0625 237.261719 288.988281 236.226563 "/>
<path style=" stroke:none;fill-rule:nonzero;fill:rgb(0%,0%,0%);fill-opacity:1;" d="M 406.363281 423.980469 C 405.59375 424.574219 401.625 427.945313 400.894531 431.273438 C 400.660156 432.339844 401.746094 432.941406 402.234375 432.023438 C 403.769531 429.132813 405 427.914063 407.476563 425.632813 C 408.195313 424.96875 407.257813 423.296875 406.363281 423.980469 "/>
<path style=" stroke:none;fill-rule:nonzero;fill:rgb(0%,0%,0%);fill-opacity:1;" d="M 415.921875 424.371094 C 415.152344 424.964844 411.183594 428.335938 410.453125 431.664063 C 410.21875 432.730469 411.304688 433.332031 411.792969 432.414063 C 413.324219 429.523438 414.558594 428.304688 417.035156 426.023438 C 417.753906 425.359375 416.8125 423.6875 415.921875 424.371094 "/>
<path style=" stroke:none;fill-rule:nonzero;fill:rgb(0%,0%,0%);fill-opacity:1;" d="M 439.585938 302.457031 C 439.492188 303.753906 441.039063 303.835938 441.503906 302.554688 C 442.941406 298.546875 440.148438 290.007813 439.726563 288.867188 C 439.238281 287.546875 437.128906 288.691406 437.449219 289.875 C 438.558594 293.9375 439.882813 298.378906 439.585938 302.457031 "/>
<path style=" stroke:none;fill-rule:nonzero;fill:rgb(0%,0%,0%);fill-opacity:1;" d="M 457.378906 305.347656 C 457.140625 302.085938 457.535156 300.398438 458.417969 297.148438 C 458.675781 296.203125 456.988281 295.285156 456.601563 296.34375 C 456.261719 297.253906 454.695313 302.21875 455.84375 305.425781 C 456.214844 306.453125 457.453125 306.382813 457.378906 305.347656 "/>
<path style=" stroke:none;fill-rule:nonzero;fill:rgb(0%,0%,0%);fill-opacity:1;" d="M 449.328125 305.976563 C 449.039063 302.058594 449.515625 300.035156 450.578125 296.136719 C 450.886719 295.003906 448.863281 293.902344 448.394531 295.167969 C 447.988281 296.265625 446.105469 302.21875 447.488281 306.066406 C 447.929688 307.300781 449.417969 307.21875 449.328125 305.976563 "/>
<path style=" stroke:none;fill-rule:nonzero;fill:rgb(0%,0%,0%);fill-opacity:1;" d="M 464.65625 309.308594 C 464.417969 306.046875 464.8125 304.359375 465.695313 301.109375 C 465.953125 300.164063 464.269531 299.246094 463.878906 300.304688 C 463.539063 301.214844 461.972656 306.179688 463.121094 309.386719 C 463.492188 310.410156 464.730469 310.34375 464.65625 309.308594 "/>
<path style=" stroke:none;fill-rule:nonzero;fill:rgb(0%,0%,0%);fill-opacity:1;" d="M 491.636719 338.921875 C 490.785156 339.394531 486.367188 342.144531 485.15625 345.328125 C 484.769531 346.347656 485.753906 347.105469 486.371094 346.269531 C 488.3125 343.632813 489.710938 342.609375 492.492188 340.714844 C 493.304688 340.164063 492.621094 338.371094 491.636719 338.921875 "/>
<path style=" stroke:none;fill-rule:nonzero;fill:rgb(0%,0%,0%);fill-opacity:1;" d="M 490.121094 335.046875 C 489.191406 335.332031 484.289063 337.089844 482.4375 339.945313 C 481.84375 340.863281 482.644531 341.808594 483.425781 341.121094 C 485.878906 338.953125 487.460938 338.246094 490.582031 336.984375 C 491.488281 336.617188 491.199219 334.71875 490.121094 335.046875 "/>
</g>
</svg>
