<?xml version="1.0" encoding="UTF-8"?>
<svg xmlns="http://www.w3.org/2000/svg" xmlns:xlink="http://www.w3.org/1999/xlink" width="371pt" height="462pt" viewBox="0 0 371 462" version="1.1">
<g id="surface1">
<path style=" stroke:none;fill-rule:nonzero;fill:rgb(0%,0%,0%);fill-opacity:1;" d="M 367.066406 26.296875 C 358.734375 11.960938 343.089844 1.605469 333.726563 1.019531 C 319.453125 0.121094 317.261719 5.355469 326.027344 19.480469 C 319.890625 22.6875 319.878906 27.300781 319.726563 31.554688 C 315.347656 31.769531 311.234375 35.046875 311.21875 41.125 C 301.171875 38.195313 299.492188 44.773438 300.28125 50.695313 C 293.65625 49.589844 288.722656 51.527344 289.117188 59.429688 C 274.101563 58.96875 262.757813 89.089844 248.332031 114.113281 C 245.703125 95.230469 230.914063 77.292969 220.398438 70.929688 L 221.296875 67.933594 C 222.21875 62.894531 224.183594 58.277344 227.039063 54.03125 C 238.191406 37.433594 271.585938 24.375 290.179688 20.617188 C 292.316406 26.03125 293.878906 28.273438 300.132813 29.71875 C 306.390625 31.160156 313.128906 25.324219 312.871094 17.78125 C 312.617188 10.34375 308.226563 2.269531 298.496094 3.46875 C 294.476563 3.960938 290.402344 7.710938 290.484375 12.386719 C 270.269531 15.769531 238.515625 27.417969 217.191406 46.820313 C 212.332031 48.796875 208.15625 47.351563 203.75 50.390625 C 201.621094 48.035156 198.890625 45.835938 196.15625 44.390625 C 193.378906 30.863281 186.535156 17.957031 172.476563 15.457031 C 159.578125 13.164063 142.585938 19.046875 133.269531 35.351563 C 129.851563 36.796875 120.992188 44.070313 119.621094 44.742188 C 116.636719 46.199219 112.886719 45.765625 110.027344 47.429688 C 104.558594 44.46875 95.917969 46.957031 89.523438 43.554688 C 72.054688 33.378906 53.371094 23.808594 32.863281 23.582031 C 31.070313 19.9375 28.160156 17.472656 24.292969 16.535156 C 14.226563 14.089844 9.78125 23.382813 9.640625 30.691406 C 9.359375 45.722656 23.238281 44.074219 27.386719 42.367188 C 32.285156 40.351563 34.542969 36.148438 35.066406 32.390625 C 45.898438 32.6875 84.949219 49.765625 88.15625 59.734375 C 88.15625 59.734375 77.613281 66.765625 73.054688 71.550781 C 39.066406 99.542969 39.664063 135.140625 58.078125 157.328125 C 35.859375 172.53125 34.28125 200.4375 48.507813 212.847656 C 42.660156 219.53125 38.925781 224.863281 33.378906 231.695313 C 12.679688 233.398438 0.59375 252.980469 0.570313 266.039063 C 0.527344 292.179688 24.550781 296.746094 36.328125 293.726563 C 45.652344 291.335938 55.015625 279.472656 60.207031 279 C 60.808594 295.480469 81.210938 307.886719 93.320313 288.035156 L 96.890625 295.632813 C 98.863281 300.644531 96.8125 308.089844 102.890625 310.671875 C 110.589844 313.402344 116.332031 309.378906 122.863281 308.238281 C 123.195313 320.480469 131.90625 333.1875 135.304688 338.386719 C 137.796875 342.199219 138.703125 346.425781 139.144531 350.777344 C 139.359375 352.953125 139.132813 364.921875 141.238281 368.613281 C 141.941406 369.847656 142.882813 371.046875 141.816406 372.242188 C 136.703125 377.964844 135.4375 394.03125 142.839844 403.402344 C 142.230469 405.378906 142.078125 408.570313 142.535156 410.773438 C 111.4375 391.148438 80.300781 387.542969 47.546875 404.351563 C 7.515625 424.894531 6.609375 463.878906 40.234375 461.269531 C 62.359375 459.554688 116.152344 455.546875 143.320313 458.371094 C 149.746094 459.039063 196.625 459.601563 215.824219 458.085938 C 232.695313 457.484375 308.949219 461.5625 317.160156 456.265625 C 325.804688 450.6875 332.359375 420.207031 307.6875 402.109375 C 285.917969 386.136719 243.660156 389.816406 207.246094 410.429688 C 206.738281 410.71875 206.296875 410.207031 206.726563 409.769531 C 218.800781 397.511719 224.039063 385.695313 214.992188 372.492188 C 214.992188 372.492188 247.214844 345.414063 251.902344 326.847656 C 257.554688 312.882813 261.226563 300.886719 260.097656 293.421875 C 259.875 291.96875 259.675781 290.675781 260 289.207031 C 261.496094 282.488281 263.273438 269.148438 257.371094 263.65625 C 258.585938 260.085938 257.371094 255.910156 257.371094 252.492188 C 257.371094 252.492188 263.144531 241.707031 266.941406 236.847656 C 279.746094 241.285156 289.132813 230.511719 289.648438 223.175781 C 289.648438 223.175781 296.605469 225.273438 301.421875 222.113281 C 306.765625 228.488281 323.933594 228.691406 330.867188 222.617188 C 333.714844 220.121094 336.507813 218.554688 333.925781 214.214844 C 339.238281 210.160156 342.230469 205.277344 341.664063 198.53125 C 341.425781 195.703125 341.554688 193.464844 344.027344 190.972656 C 356.632813 175.507813 353.726563 164.433594 344.5625 163.632813 C 345.660156 155.054688 340.382813 149.828125 332.027344 151.023438 C 330.207031 151.632813 328.460938 150.71875 326.789063 150.1875 C 329.296875 143.921875 335.21875 140.304688 339.691406 135.78125 C 347.539063 127.835938 344.117188 113.589844 327.925781 113.277344 C 323.675781 109.175781 321.625 104.238281 321.09375 98.542969 C 324.660156 94.367188 327.242188 89.050781 324.660156 84.339844 C 328.609375 80.542969 327.625 75.835938 325.726563 71.429688 C 331.046875 71.429688 335.320313 69.132813 333.394531 58.0625 C 339.492188 57.574219 341.839844 56.164063 341.941406 50.117188 C 341.972656 48.261719 342.078125 46.652344 343.773438 46.316406 C 347.085938 45.652344 349.855469 43.242188 350.332031 37.859375 C 353.445313 38.96875 360.546875 39.390625 363.171875 39.46875 C 374.222656 39.796875 370.445313 32.105469 367.066406 26.296875 Z M 299.15625 5.996094 C 304.390625 4.714844 310.835938 11.355469 309.421875 19.039063 C 307.742188 28.15625 299.101563 29.34375 295.421875 23.554688 C 290.550781 15.894531 293.734375 7.320313 299.15625 5.996094 Z M 21.980469 40.675781 C 14.253906 40.898438 10.199219 33.308594 14.40625 24.332031 C 18.402344 15.816406 27.5625 19.429688 30.296875 24.710938 C 35.589844 34.921875 27.886719 40.507813 21.980469 40.675781 Z M 224.144531 45.507813 C 239.632813 32.933594 251.191406 24.171875 289.648438 15.984375 L 289.648438 17.582031 C 267.308594 23.230469 226.230469 37.714844 218.714844 64.90625 C 217.640625 68.796875 216.367188 73.515625 212.257813 72.566406 L 211.757813 69.820313 C 214.40625 71.089844 219.734375 55.925781 226.761719 47.714844 C 226.761719 47.105469 226.335938 47.003906 225.648438 46.699219 C 220.714844 50.117188 213.394531 66.566406 211.421875 67.632813 C 210.128906 62.085938 208.914063 56.542969 205.117188 52.0625 C 211.628906 50.996094 218.550781 50.050781 224.144531 45.507813 Z M 191.367188 69.941406 C 186.90625 84.878906 163.265625 107.578125 142.003906 89.199219 C 151.953125 91.785156 163.648438 87.605469 170.40625 78.566406 C 184.371094 56.605469 177.929688 25.144531 158.636719 19.78125 C 176.871094 11.914063 201.851563 34.828125 191.367188 69.941406 Z M 136.3125 36.503906 C 146.558594 19.199219 159.53125 16.128906 170.714844 37.539063 C 176.324219 48.273438 175.289063 84.078125 149.828125 86.246094 C 128.675781 88.042969 125.355469 55.023438 136.3125 36.503906 Z M 116.453125 48.394531 C 115.828125 49.429688 115.199219 50.066406 114.660156 50.390625 L 112.953125 49.070313 Z M 34.839844 29.65625 L 34.230469 26.085938 C 55.941406 27.605469 67.300781 33.867188 80.175781 41.199219 C 86.992188 45.078125 93.808594 49.269531 102.054688 48.796875 C 105.851563 48.644531 110.710938 49.554688 113.292969 53.429688 C 109.050781 66.871094 109.574219 71.390625 102.710938 73.855469 C 96.15625 76.214844 94.289063 72.6875 91.800781 62.421875 C 87.089844 42.980469 43.917969 29.78125 34.839844 29.65625 Z M 88.914063 63.226563 C 88.761719 71.078125 95.085938 79.308594 100.6875 78.035156 C 100.078125 79.023438 99.167969 79.59375 98.324219 80.171875 C 97.476563 80.753906 98.761719 82.011719 99.152344 81.824219 C 109.257813 76.9375 113.71875 66.488281 116.320313 56.558594 C 117.617188 51.613281 123.96875 42.863281 130.535156 39.984375 C 123.402344 62.074219 125.292969 79.027344 139.972656 92.761719 C 160.457031 111.921875 204.027344 90.648438 196.914063 49.023438 C 206.632813 56.519531 208.039063 68.203125 210.238281 79.261719 C 211.164063 83.921875 214.84375 89.347656 219.257813 92.476563 C 220.445313 93.316406 221.5 91.230469 220.285156 90.148438 C 216.054688 86.386719 213.71875 81.484375 213.09375 76.136719 C 215.144531 76.367188 216.507813 74.847656 218.027344 73.632813 C 230.984375 78.769531 243.9375 103.898438 245.597656 115.78125 C 245.863281 117.148438 245.378906 119.914063 245.09375 121.0625 C 244.808594 122.214844 237.851563 140.269531 236.863281 155.429688 C 222.1875 174.144531 216.289063 182.011719 197.75 187.101563 C 194.105469 185.503906 191.976563 182.011719 188.484375 180.035156 C 186.421875 179.003906 184.769531 179.3125 183.015625 180.796875 C 183.621094 183.757813 185.066406 186.265625 185.445313 189.300781 C 181.574219 192.871094 161.902344 193.28125 157.574219 191.503906 C 155.902344 186.414063 157.953125 180.113281 152.636719 177.304688 C 149.941406 177.347656 147.8125 178.753906 145.683594 180.175781 C 143.578125 181.578125 135.933594 186.148438 129.394531 184.671875 C 112.578125 150.808594 77.429688 146.90625 60.507813 155.65625 C 32.339844 122.980469 60.042969 79.34375 88.914063 63.226563 Z M 245.351563 169.421875 C 245.082031 164.84375 250.230469 164.390625 250.230469 164.390625 C 255.015625 173.65625 249.394531 184.214844 256.308594 192.566406 C 233.421875 194.164063 235.652344 213.398438 237.660156 218.488281 C 238.113281 219.636719 237.835938 220.183594 236.933594 219.4375 C 235.734375 218.441406 234.265625 217.109375 232.261719 215.582031 C 245.179688 185.949219 232.578125 174.257813 229.160156 171.761719 C 228.660156 171.394531 230.226563 170.132813 230.46875 170.378906 C 238.535156 178.460938 245.6875 175.203125 245.351563 169.421875 Z M 251.597656 269.960938 C 245.523438 274.972656 238.003906 276.492188 231.09375 279.53125 C 225.621094 270.417969 216.390625 277.570313 208.640625 275.976563 C 210.808594 260.515625 206.617188 239.660156 199.117188 221.277344 C 199.117188 221.277344 188.664063 198.78125 187.648438 184.136719 C 192.585938 187.554688 195.53125 192.035156 202.441406 191.277344 C 202.441406 191.277344 205.9375 195.804688 207.621094 197.808594 C 218.71875 213.316406 237.019531 221.394531 247.183594 236.585938 C 253.300781 245.726563 259.300781 262.53125 251.597656 269.960938 Z M 249.199219 233.398438 C 254.890625 234.769531 257.570313 237.722656 255.472656 245.351563 C 253.800781 241.859375 251.324219 236.738281 249.199219 233.398438 Z M 173.222656 226.585938 C 190.8125 245.066406 200.789063 276.796875 200.789063 276.796875 C 194.773438 277.890625 184.308594 273.53125 182.484375 282.796875 C 175.039063 281.277344 167.371094 281.429688 159.773438 279.53125 C 162.660156 276.492188 167.050781 273 164.105469 268.59375 C 159.546875 261.929688 154.199219 255.570313 152.148438 247.824219 C 149.90625 239.351563 145.207031 237.523438 140.332031 236.847656 C 138.28125 227.960938 133.453125 196.882813 130.761719 187.9375 C 138.507813 188.617188 144.890625 184.441406 151.039063 180.566406 C 152.636719 180.566406 152.84375 185.613281 152.992188 186.75 C 154.992188 201.972656 162.476563 215.296875 173.222656 226.585938 Z M 160.308594 201.074219 C 163.269531 196.519531 176.949219 198.179688 178.839844 198.960938 C 182.6875 200.550781 185.628906 205.492188 188.855469 212.941406 C 190.3125 216.300781 191.769531 219.59375 193.953125 222.414063 C 202.992188 237.066406 207.960938 261.382813 205.40625 277.007813 L 203.523438 277.101563 C 201.671875 260.871094 189.667969 238.449219 173.246094 220.640625 C 172.59375 219.933594 161.019531 206.632813 160.308594 201.074219 Z M 152.941406 258.71875 L 160.609375 269.960938 C 160.6875 273.074219 158.484375 275.976563 156.738281 277.632813 C 152.710938 276.492188 152.941406 258.71875 152.941406 258.71875 Z M 162.738281 290.164063 C 166.003906 289.328125 169.726563 289.785156 172.308594 288.035156 C 172.609375 286.289063 162.230469 284.859375 158.566406 283.902344 C 158.234375 283.816406 158.144531 281.667969 158.582031 281.78125 C 166.914063 283.929688 174.886719 284.617188 183.546875 286.0625 C 184.992188 295.023438 187.191406 302.695313 189.015625 311.503906 C 181.878906 312.949219 161.78125 308.226563 155.371094 301.707031 C 157.742188 298.59375 159.394531 291.453125 162.738281 290.164063 Z M 186.585938 280.367188 C 199.648438 280.289063 211.039063 278.769531 223.726563 278.164063 C 225.394531 279.605469 227.824219 280.289063 228.660156 282.570313 C 229.269531 285 227.597656 286.59375 226.992188 288.570313 C 225.472656 298.746094 222.8125 308.847656 220.15625 318.339844 C 213.472656 320.238281 205.039063 319.554688 198.28125 319.707031 C 195.925781 307.785156 194.40625 295.554688 191.21875 283.9375 Z M 229.246094 190.714844 C 225.816406 195.171875 226.53125 204.488281 218.257813 201.910156 C 215.902344 199.785156 209.839844 191.460938 210.054688 186.566406 C 215.976563 183.757813 221.75 179.199219 225.925781 174.566406 C 242.800781 184.996094 232.574219 204.175781 230.457031 214.070313 C 230.394531 214.367188 228.679688 212.609375 228.828125 212.117188 C 231.046875 204.8125 231.554688 198.523438 232.628906 191.402344 C 232.910156 189.53125 230.125 189.570313 229.246094 190.714844 Z M 233.066406 169.3125 C 230.621094 164.40625 238.746094 161.535156 238.746094 161.535156 C 241.308594 164.601563 241.6875 165.757813 242.042969 169.160156 C 242.496094 173.515625 236.6875 173.949219 233.066406 169.3125 Z M 47.773438 207.371094 C 35.84375 195.765625 42.636719 170.796875 61.339844 159.429688 C 73.632813 151.953125 104.191406 153.078125 122.878906 179.789063 C 131.824219 192.574219 132.882813 221.683594 137.371094 236.316406 C 132.066406 235.921875 126.960938 240.714844 125.171875 235.144531 C 120.175781 219.597656 123.550781 197.234375 106.902344 178.960938 C 105.230469 177.121094 102.453125 174.03125 100.625 177.53125 C 118.414063 193.175781 120.3125 240.171875 120.3125 240.171875 C 119.855469 240.171875 118.15625 241.480469 117.621094 241.253906 C 114.199219 226.628906 114.679688 193.421875 100.664063 180.300781 C 88.457031 168.871094 69.355469 169.789063 58.550781 185.144531 C 55.425781 189.582031 49.054688 198.261719 49.542969 186.703125 C 49.699219 182.941406 52.144531 178.117188 53.542969 173.847656 C 54.167969 171.945313 51.660156 170.90625 50.558594 172.289063 C 44.449219 179.992188 41.855469 195.234375 48.742188 206.488281 C 49.386719 207.539063 48.570313 208.144531 47.773438 207.371094 Z M 54.007813 206.632813 C 57.761719 195.035156 60.191406 186.484375 66.972656 181.855469 C 73.769531 177.21875 102.285156 171.648438 106.6875 201.304688 C 108.222656 211.511719 91.703125 217.367188 89.359375 219.535156 C 88.945313 219.921875 90.324219 222.101563 90.980469 221.90625 C 96.222656 220.363281 105.414063 217.324219 109.191406 213.410156 L 109.191406 215.277344 C 107.355469 220.441406 92.097656 223.628906 91.53125 223.933594 C 88.535156 225.539063 83.835938 230.992188 82.6875 233.351563 L 79.148438 233.898438 C 79.421875 231.207031 84.0625 229.46875 85.339844 226.570313 C 86.03125 225.007813 83.269531 225.785156 81.941406 227.363281 C 76.472656 233.855469 67.917969 236.214844 63.777344 244.289063 C 59.445313 237.453125 52.230469 234.035156 44.941406 232.519531 C 48.765625 226.320313 60.339844 219.078125 60.8125 206.011719 C 61.132813 202.53125 63.316406 194.9375 63.316406 194.9375 C 63.316406 194.9375 61.328125 193.5 60.972656 193.992188 C 56.589844 200.128906 59.234375 211.238281 52.839844 216.507813 C 47.566406 221.140625 44.074219 225.652344 39.136719 231.425781 L 36.433594 231.683594 C 43.722656 224.085938 48.160156 214.761719 54.007813 206.632813 Z M 107.824219 244.519531 C 105.167969 245.734375 102.355469 246.566406 99.320313 247.023438 C 96.984375 232.3125 85.953125 233.351563 85.953125 233.351563 C 87.378906 230.9375 88.929688 228.71875 91.054688 227.960938 C 98.046875 231.753906 102.980469 236.535156 107.824219 244.519531 Z M 50.230469 282.707031 C 41.628906 290.082031 15.355469 285.675781 8.828125 268.429688 C 8.515625 267.601563 7.125 266.492188 6.941406 268.117188 C 5.589844 280.15625 23.195313 291.015625 37.4375 289.636719 C 39.46875 289.441406 39.792969 290.128906 37.925781 290.8125 C 25.019531 295.554688 -0.722656 289 4.664063 260.105469 C 10.246094 230.183594 49.667969 230.257813 59.976563 244.820313 C 43.121094 239.234375 25.320313 240.867188 19.714844 260.527344 C 15.027344 276.984375 29.554688 283.859375 44.25 280.800781 C 50.421875 279.515625 54.804688 275.710938 59.71875 274.941406 L 59.976563 277.632813 C 56.164063 277.921875 53.152344 280.203125 50.230469 282.707031 Z M 59.976563 263.125 C 50.179688 267.945313 46.539063 276.265625 33.324219 270.085938 C 30.804688 268.90625 27.976563 269.832031 30.113281 271.835938 C 33.390625 274.90625 41.90625 277.421875 43.390625 277.421875 C 45.09375 277.421875 45.171875 278.097656 43.5625 278.417969 C 31.523438 280.820313 21.96875 271.558594 22.535156 263.429688 C 24.15625 250.664063 39.804688 242.546875 52.070313 245.902344 C 55.742188 246.910156 59.40625 248.277344 63.242188 248.617188 C 61.421875 253.175781 60.128906 257.960938 59.976563 263.125 Z M 87.347656 291.15625 C 83.941406 295.984375 74.054688 296.023438 68.574219 290.882813 C 61.222656 283.992188 60.121094 267.675781 66.050781 251.980469 C 70.054688 241.394531 78.605469 233.117188 89.050781 236.941406 C 92.144531 238.074219 96.542969 243.519531 95.523438 247.785156 C 94.1875 248.269531 87.410156 250.457031 85.207031 249.394531 C 85.8125 248.488281 86.929688 247.621094 87.839844 246.984375 C 88.296875 246.660156 86.875 244.644531 86.421875 244.742188 C 83.273438 245.417969 81.449219 248.074219 79.714844 250.664063 C 71.003906 263.679688 65.785156 282.761719 81.074219 283.902344 C 82.3125 283.996094 88.347656 284.9375 82.925781 287.816406 C 80.777344 288.957031 74.902344 289.402344 70.195313 284.929688 C 68.9375 283.734375 66.925781 284.929688 68.160156 286.445313 C 73.210938 292.648438 83.476563 292.964844 86.695313 290.582031 C 87.34375 290.101563 87.835938 290.46875 87.347656 291.15625 Z M 76.078125 273 C 79.316406 272.085938 85.421875 271.175781 85.421875 275.429688 C 82.6875 274.136719 79.085938 274.261719 76.125 275.097656 Z M 103.191406 306.871094 C 100.230469 300.71875 101.445313 292.898438 96.890625 287.429688 C 96.355469 282.644531 110.105469 286.972656 111.621094 290.164063 C 112.546875 292.800781 110.382813 295.433594 110.734375 298.367188 C 111.035156 300.863281 114.089844 300.410156 113.992188 297.816406 C 113.597656 287.484375 122.925781 290.5 128.613281 292.375 C 129.152344 292.550781 130.761719 291 129.925781 290.46875 C 125.292969 285.984375 117.167969 288.71875 115.191406 281.203125 C 117.894531 279.273438 121.519531 278.867188 124.734375 278.421875 C 125.316406 278.339844 125.21875 276.566406 124.460938 276.265625 C 113.902344 274.441406 105.242188 286.59375 94.382813 280.0625 C 90.773438 278.09375 88.804688 272.402344 86.789063 267.53125 C 84.585938 267.226563 78.769531 268.261719 76.382813 269.65625 C 77.085938 263.46875 80 257.28125 83.1875 252.113281 C 106.175781 250.667969 120.964844 242.769531 135.699219 239.582031 C 139.96875 238.515625 145.953125 240.644531 147.699219 245.886719 C 148.761719 247.707031 149.160156 262.242188 149.265625 264.734375 C 149.542969 271.394531 150.320313 277.65625 153.472656 282.796875 C 154.988281 287.203125 149.75 288.035156 147.472656 290.46875 C 142.722656 285.582031 144.460938 276.144531 144.320313 268.875 C 144.238281 264.757813 140.8125 266.101563 140.253906 270.136719 C 138.726563 281.125 144.433594 293.503906 144.433594 293.503906 C 137.371094 299.808594 108.660156 310.746094 103.191406 306.871094 Z M 169.039063 456.417969 C 158.855469 455.726563 150.28125 456.699219 140.734375 455.847656 C 110.347656 453.136719 61.585938 457.785156 33.699219 458.921875 C 17.78125 454.078125 17.996094 442.625 24.445313 430.050781 C 35.980469 407.566406 61.136719 399.929688 87.296875 397.765625 C 110.648438 395.832031 138 408.941406 157.820313 428.25 C 160.105469 430.476563 162.671875 428.714844 160.601563 425.976563 C 159.25 424.191406 148.410156 406.667969 158.40625 406.667969 C 159.925781 406.441406 160.15625 404.40625 158.636719 404.238281 C 154.382813 401.980469 148.851563 399.71875 146.921875 394.917969 C 146.648438 394.230469 144.277344 393.207031 144.355469 394.136719 C 144.597656 396.917969 146.984375 401.546875 147.859375 402.785156 C 148.671875 403.933594 148.003906 405.164063 147.015625 403.949219 C 134.1875 393.070313 142.292969 369.019531 153.167969 362.390625 C 158.730469 359.351563 157.011719 355.660156 154.003906 357.453125 C 147.078125 362.070313 147.039063 346.914063 147.808594 338.636719 C 147.871094 337.964844 145.523438 337.882813 145.5 338.621094 C 145.261719 346.410156 145.140625 354.71875 145.839844 362.660156 C 145.898438 363.308594 144.210938 364.863281 144.121094 363.945313 C 142.941406 351.9375 143.9375 329.121094 140.636719 329.050781 C 137.523438 330.796875 139.726563 335.429688 138.738281 338.011719 C 133.761719 329.03125 127.972656 320.175781 127.078125 310.1875 C 126.992188 309.195313 127.578125 309.152344 127.863281 310.269531 C 129.4375 316.480469 132.785156 324.90625 136.761719 328.214844 C 137.675781 328.441406 139.039063 327.835938 138.738281 327.074219 C 136.144531 316.015625 149.054688 309.074219 154.535156 309.074219 C 164.910156 313.070313 189.320313 314.238281 189.320313 314.238281 C 190.929688 319.328125 193.726563 322.078125 196.15625 322.441406 C 204.28125 322.214844 211.953125 321.910156 220.460938 321.605469 C 223.34375 319.785156 224.789063 317.125 224.863281 313.707031 C 232.574219 310.453125 241.097656 308.824219 247.992188 303.785156 C 248.976563 303.066406 249.644531 303.519531 248.578125 304.625 C 242.703125 310.710938 228.558594 317.472656 226.390625 320.183594 C 216.597656 332.429688 211.6875 339.792969 205.632813 342.339844 C 203.292969 343.320313 201.023438 340.554688 198.890625 338.316406 C 192.28125 331.253906 176.953125 315.738281 176.441406 315.332031 C 175.265625 314.394531 172.269531 316.457031 173.066406 317.078125 C 180.726563 323 196.0625 339.976563 199.953125 345.683594 C 202.839844 352.820313 192.507813 373.402344 190.078125 376.898438 C 189.320313 375.238281 188.886719 372.75 187.875 371.113281 C 185.90625 367.9375 182.414063 369.699219 184.609375 373.28125 C 190.933594 383.589844 183.523438 403.050781 175.414063 411.519531 C 175.0625 411.886719 175.632813 414.3125 177.015625 413.503906 L 180.738281 411.863281 L 177.546875 422.011719 C 175.726563 426.1875 173.292969 430.214844 172.609375 434.847656 C 172.125 434.1875 171.4375 433.261719 170.65625 432.664063 C 168.246094 430.820313 166.476563 433.789063 168.730469 435.941406 C 174.421875 441.359375 173.507813 450.835938 169.039063 456.417969 Z M 145.574219 406.367188 C 146.691406 406.347656 147.199219 406.570313 147.386719 406.933594 C 147.566406 407.28125 148.554688 410.648438 148.988281 413.035156 C 149.1875 414.113281 148.097656 414.675781 147.632813 414.144531 C 145.890625 412.160156 144.492188 408.808594 145.574219 406.367188 Z M 224.683594 361.070313 C 220.546875 365.765625 212.269531 370.851563 208.691406 376.085938 C 208.394531 376.523438 209.203125 377.648438 209.484375 377.398438 C 210.679688 376.347656 212.109375 375.863281 213.09375 374.390625 C 219.332031 381.636719 217.230469 396.332031 207.621094 406.136719 C 198.882813 412.902344 191.214844 419.074219 184.839844 426.910156 C 182.234375 430.117188 180.597656 433.371094 182.484375 434.316406 C 184.992188 434.847656 184.808594 432.464844 186.8125 430.441406 C 209.019531 407.945313 247.566406 388.832031 293.976563 398.769531 C 316.054688 403.246094 329.570313 438.183594 315.625 453.683594 C 307.039063 456.417969 224.378906 455.335938 208.4375 455.765625 C 206.617188 455.8125 185.144531 456.039063 178.914063 448.214844 C 178.535156 444.644531 177.472656 441 176.710938 437.808594 C 178.308594 427.328125 186.890625 417.605469 192.585938 407.734375 C 189.703125 397.886719 189.429688 387.25 197.21875 378.265625 C 199.347656 364.691406 199.363281 354.84375 211.195313 343.199219 C 212.84375 341.574219 225.394531 327.984375 226.992188 322.972656 C 237.773438 315.683594 250.15625 309.605469 256.839844 297.304688 C 255.359375 322.429688 243.078125 340.847656 224.683594 361.070313 Z M 256.839844 290.769531 C 250.703125 300.074219 238.078125 308.695313 233.296875 305.503906 C 233.902344 302.085938 234.207031 297.152344 235.191406 293.203125 C 238.972656 289.214844 243.4375 284.980469 248.023438 281.621094 C 249.433594 280.589844 248.273438 278.847656 246.171875 279.527344 C 242.90625 280.589844 235.597656 282.949219 232.230469 283.9375 C 231.621094 282.339844 232.097656 281.636719 232.933594 281.238281 C 233.769531 280.839844 246.175781 276.460938 251.597656 273.757813 C 254.621094 271.964844 256.535156 267.226563 256.535156 267.226563 C 259.648438 270.644531 258.964844 287.355469 256.839844 290.769531 Z M 260.960938 241.277344 L 256.839844 249.984375 L 256.003906 246.492188 C 257.710938 244.351563 259.40625 242.203125 260.59375 240.699219 C 261.570313 239.457031 260.960938 241.277344 260.960938 241.277344 Z M 283.085938 230.066406 C 281.199219 232.535156 267.386719 244.742188 244.652344 222.585938 C 235.5625 213.722656 237.347656 200.5 250.203125 196.296875 C 256.792969 194.140625 260.367188 196.089844 254.09375 200.589844 C 252.980469 201.386719 251.917969 202.195313 251.507813 203.496094 C 246.445313 219.460938 270.015625 225.660156 273.785156 222.882813 C 274.308594 222.5 276.539063 223.035156 276.421875 223.546875 C 273.871094 234.40625 236.8125 219.347656 245.4375 204.039063 C 245.582031 203.785156 244.199219 202.371094 243.941406 202.609375 C 236.832031 209.273438 243.785156 220.664063 251.664063 226.390625 C 270.03125 239.742188 278.542969 232.367188 282.132813 229.175781 C 282.550781 228.804688 283.835938 229.085938 283.085938 230.066406 Z M 260.40625 197.808594 C 264.601563 199.039063 257.507813 204.765625 254.941406 206.542969 C 252.628906 204.355469 260.40625 197.808594 260.40625 197.808594 Z M 292.078125 212.847656 C 289.5625 213.351563 287.097656 212.496094 284.945313 211.199219 C 284.5 210.929688 283.535156 212.410156 283.535156 212.410156 L 291.636719 218.222656 C 291.636719 218.222656 292.394531 220.9375 291.523438 220.738281 C 285.410156 219.359375 278.195313 211.40625 273.777344 205.707031 C 270.316406 203.210938 267.105469 203.609375 269.023438 207.335938 C 270.421875 210.035156 271.324219 211.980469 270.332031 214.851563 C 270.113281 215.488281 272.113281 216.730469 272.605469 215.71875 C 273.40625 214.058594 274.074219 212.066406 275.675781 212.679688 L 276.8125 214.441406 C 272.761719 225.277344 260.164063 218.496094 256.308594 210.113281 C 259.421875 206.164063 269.089844 199.929688 270.203125 199.996094 C 271.488281 200.074219 272.710938 200.09375 272.710938 198.339844 C 252.984375 195.421875 257.070313 174.5625 254.386719 165.222656 C 252.464844 158.535156 255.363281 153.804688 262.917969 154.300781 C 266.605469 154.542969 270.554688 154.847656 273.386719 151.785156 C 276.582031 148.324219 282.144531 147.039063 285.25 150.21875 C 291.714844 156.835938 303.289063 156.398438 306.089844 156.714844 C 315.820313 157.820313 307.144531 177.191406 296.804688 175.519531 C 288.5625 174.1875 276.320313 167.722656 274.609375 165.757813 C 273.441406 168.539063 270.433594 169.253906 268.003906 168.796875 C 263.210938 166.554688 262.558594 169.796875 266.636719 171.835938 C 278.699219 172.144531 285.492188 181.519531 282.28125 192.871094 C 294.089844 195.628906 298.035156 211.996094 292.078125 212.847656 Z M 303.257813 117.96875 C 306.675781 119.554688 312.582031 121.886719 303.015625 132.1875 C 295.152344 133.191406 290.070313 132.019531 287.21875 124.429688 C 286.976563 123.78125 284.191406 124.753906 284.238281 125.257813 C 285.199219 135.578125 297.6875 136.835938 306.902344 134.730469 C 307.429688 134.609375 307.367188 135.789063 306.894531 135.941406 C 298.496094 138.675781 284.660156 138.507813 282.980469 128.675781 C 281.597656 120.585938 285.394531 113.589844 298.6875 115.175781 C 300.585938 114.113281 302.710938 112.671875 304.6875 112.441406 C 304.535156 114.644531 299.539063 115.691406 303.257813 117.96875 Z M 306.28125 139.253906 C 305.722656 140.5625 304.839844 141.835938 303.546875 142.820313 C 303.273438 141.929688 303.441406 140.605469 303.851563 139.785156 Z M 293.21875 140.390625 L 300.28125 140.390625 C 300.90625 142.472656 300.890625 144.871094 298.382813 145.253906 C 296 145.476563 293.21875 140.390625 293.21875 140.390625 Z M 297.585938 148.109375 C 297.367188 148.628906 297.023438 149.167969 296.582031 149.511719 L 294.972656 147.320313 C 296.265625 147.777344 296.988281 147.9375 297.585938 148.109375 Z M 290.179688 142.820313 C 289.441406 143.726563 287.351563 141.851563 288.511719 140.617188 Z M 291.546875 187.402344 C 287.902344 185.582031 287.082031 180.75 287.144531 179.199219 C 289.800781 181.175781 291.789063 184.820313 291.546875 187.402344 Z M 300.585938 214.746094 C 297.167969 206.769531 297.410156 199.039063 292.382813 189.835938 L 293.691406 188.253906 C 298.398438 194.710938 301.953125 211.175781 301.953125 211.175781 Z M 329.007813 220.09375 C 328.714844 218.621094 327.097656 216.746094 325.726563 216.113281 C 331.042969 213.148438 333.109375 217.785156 329.007813 220.09375 Z M 332.5625 212.542969 C 329.421875 212.855469 329.980469 207.570313 331.3125 203.839844 C 331.882813 202.242188 330.804688 200.796875 328.742188 202.929688 C 327.160156 204.570313 326.789063 211.707031 326.789063 211.707031 C 319.789063 215.746094 313.832031 215.054688 315.449219 208.773438 C 315.71875 207.726563 311.96875 206.625 311.015625 207.335938 C 302.972656 213.308594 307.871094 223.28125 320.285156 221.78125 C 320.722656 221.730469 320.902344 222.613281 320.355469 222.8125 C 315.140625 224.703125 303.769531 224.777344 303.015625 217.707031 C 303.242188 215.960938 307.953125 207.152344 309.851563 205.175781 C 324.566406 201.957031 329.523438 192.339844 329.523438 192.339844 C 343.128906 196.113281 341.121094 204.195313 332.5625 212.542969 Z M 348.183594 169.132813 C 352.511719 176.765625 344.441406 185.6875 340.214844 192.324219 C 338.941406 191.839844 336.707031 192.554688 336.660156 190.136719 C 336.433594 187.859375 341.136719 181.550781 342.128906 180.039063 C 342.457031 179.535156 341.464844 178.726563 341 179.039063 C 333.605469 183.984375 329.296875 185.503906 329.296875 185.503906 C 324.351563 199.449219 310.226563 204.902344 306.28125 200.238281 C 302.710938 196.214844 308.332031 193.253906 308.257813 189.300781 C 307.953125 186.492188 308.484375 184.0625 309.851563 181.9375 C 316 180.472656 319.121094 178.324219 323.511719 171.140625 C 331.203125 158.5625 347.636719 168.171875 348.183594 169.132813 Z M 333.742188 153.558594 C 342.554688 154.871094 341.824219 163.128906 341.824219 163.128906 C 331.375 160.535156 327.605469 161.433594 321.46875 170.289063 C 317.851563 175.507813 301.707031 184.808594 298.914063 182.164063 C 296.613281 183.507813 300.011719 186.925781 303.320313 186.265625 C 304.960938 186.296875 304.09375 188.484375 302.789063 188.664063 C 300.28125 189.121094 295.875 185.746094 294.054688 183.316406 L 296.179688 179.199219 C 308.246094 180.007813 319.835938 165.480469 310.382813 155.125 C 312.660156 154.136719 314.5625 152.769531 317.21875 152.085938 C 323.148438 153.472656 329.976563 153 333.742188 153.558594 Z M 335.007813 136.082031 C 331.078125 140.265625 326.042969 144.6875 324.054688 149.351563 L 318.585938 148.59375 C 336.214844 130.617188 330.359375 116.542969 330.359375 116.542969 C 340.851563 116.796875 344.625 125.839844 335.007813 136.082031 Z M 328.15625 120.644531 C 328.535156 123.378906 328.171875 125.367188 327.09375 128.617188 C 324.660156 127.707031 319.726563 129.152344 319.421875 129.152344 C 319.890625 124.730469 320.332031 121.175781 318.359375 118.214844 C 319.117188 117.226563 327.777344 114.949219 328.15625 120.644531 Z M 324.054688 111.910156 C 321.652344 111.863281 317.203125 112.015625 315.09375 113.050781 L 315.320313 112.746094 C 314.703125 110.078125 313.449219 107.257813 311.5 105.445313 C 308.582031 102.730469 309.007813 99.820313 312.542969 102.898438 C 314.988281 104.261719 317.898438 103.132813 319.359375 102.355469 C 320.820313 106.152344 324.128906 111.378906 324.054688 111.910156 Z M 313.179688 100.707031 C 311.070313 99.753906 309.0625 97.074219 306.890625 98.238281 C 305.675781 99.835938 305.628906 101.867188 307.117188 104.542969 C 314.265625 110.832031 320.9375 129.699219 315.03125 137.570313 C 312.394531 141.085938 304.414063 150.019531 302.484375 153.453125 L 297.546875 152.921875 C 316.484375 140.054688 315.882813 115.21875 304.703125 106.9375 C 300.441406 103.78125 293.929688 103.328125 291.058594 105.394531 C 290.292969 105.945313 290.988281 108.066406 291.660156 107.769531 C 292.5 107.402344 293.355469 106.8125 294.28125 107.277344 C 294.660156 108.949219 291.925781 110.011719 292.078125 111.910156 C 281.144531 110.402344 278.046875 119.941406 280.078125 131.582031 L 268.566406 146.953125 C 264.234375 151.511719 256.566406 148.746094 252.464844 154.136719 C 251.097656 155.960938 249.09375 158.921875 249.472656 161.429688 C 246.738281 161.351563 243.910156 161.976563 241.800781 162.492188 C 233.039063 141.210938 260.847656 94.15625 273.636719 76.308594 C 279.601563 67.980469 283.6875 61.574219 289.34375 63.226563 C 292.984375 70.785156 303.324219 82.972656 314.789063 85.933594 C 315.128906 90.550781 318.683594 92.976563 322.15625 89.503906 C 323.382813 95.648438 315.144531 101.59375 313.179688 100.707031 Z M 318.359375 86.769531 C 319.113281 86.890625 321.042969 86.871094 321.769531 86.589844 L 322.15625 87.835938 C 320.765625 88.933594 319.039063 89.734375 318.359375 86.769531 Z M 321.320313 82.671875 C 306.9375 83.605469 289.128906 65.34375 292.609375 55.632813 C 295.105469 51.589844 301.933594 52.910156 301.648438 55.328125 C 297.308594 56.566406 294.140625 64.78125 302.789063 68.996094 C 303.394531 68.996094 304.078125 69.148438 304.382813 68.46875 C 303.925781 67.507813 303.082031 66.367188 302.789063 65.199219 C 303.925781 65.429688 307.117188 64.898438 308.789063 63.53125 C 311.738281 65.789063 313.359375 67.253906 313.953125 69.835938 L 314.789063 73.632813 C 313.117188 73.78125 311.597656 73.253906 310.15625 74.769531 C 320.265625 84.132813 321.320313 70.671875 321.320313 70.671875 C 324.535156 71.773438 327.203125 80.121094 321.320313 82.671875 Z M 328.992188 67.328125 C 320.175781 69.414063 305.449219 56.0625 303.785156 51.300781 C 301.972656 46.113281 305.222656 39.285156 312.359375 45.226563 C 308.085938 45.402344 306.40625 47.507813 308.257813 50.863281 C 310.195313 54.378906 312.605469 56.679688 316.460938 56.996094 C 315.789063 55.640625 315.277344 54.675781 315.574219 53.222656 C 315.960938 52.765625 316.6875 52.367188 316.992188 52.0625 C 319.648438 54.722656 324.386719 55.191406 323.1875 59.1875 C 321.949219 59.238281 319.878906 59.808594 318.890625 60.265625 C 321.910156 66.789063 331.8125 64.171875 328.15625 58.0625 L 330.128906 58.367188 C 331.507813 59.710938 333.320313 65.65625 328.992188 67.328125 Z M 334.691406 54.457031 C 327.179688 55.714844 314.765625 48.769531 313.910156 41.128906 C 313.308594 35.742188 317.335938 32.382813 321.320313 35.65625 C 313.617188 36.976563 316.25 47.339844 325.402344 48.84375 C 326.105469 48.957031 327.011719 46.320313 326.46875 46.226563 C 325.777344 46.105469 323.902344 44.984375 323.296875 44.390625 L 327.09375 41.960938 C 331.503906 42.414063 332.925781 46.6875 332.925781 46.6875 C 331.683594 47.304688 327.265625 48.40625 328.90625 50.015625 C 333.898438 54.921875 338.527344 50.710938 337.726563 46.59375 L 338.863281 46.59375 C 340.425781 50.195313 340.433594 53.496094 334.691406 54.457031 Z M 343.496094 43.328125 C 335.871094 43.183594 327.226563 39.839844 322.851563 32.324219 C 319.269531 26.183594 325.179688 19.921875 328.761719 23.582031 C 325.125 27.027344 326.359375 30.066406 329.640625 33.589844 C 332.046875 36.171875 335.324219 34.519531 333.09375 31.554688 L 334.992188 29.351563 L 338.027344 31.78125 C 339.597656 33.070313 338.222656 34.070313 337.382813 34.796875 C 332.316406 39.152344 343.226563 42.632813 344.863281 36.492188 C 350.113281 35.34375 347.945313 43.277344 343.496094 43.328125 Z M 355.453125 35.539063 C 342.660156 33.429688 331.832031 27.699219 325.988281 13.414063 C 320.78125 0.6875 332.84375 2.847656 337.085938 4.589844 C 348.652344 9.339844 355.324219 14.042969 363.765625 26.105469 C 370.316406 35.46875 368.285156 37.65625 355.453125 35.539063 "/>
<path style=" stroke:none;fill-rule:nonzero;fill:rgb(0%,0%,0%);fill-opacity:1;" d="M 360.867188 29.796875 C 359.53125 35.296875 338.824219 26.476563 333.917969 16.8125 C 332.453125 13.925781 331.003906 9.34375 333.648438 8.132813 C 335.410156 7.324219 333.273438 4.761719 331.496094 6.113281 C 321.886719 16.445313 344.027344 34.125 358.140625 34.351563 C 360.269531 34.382813 362.6875 34.476563 361.988281 29.976563 C 361.71875 28.234375 361.140625 28.667969 360.867188 29.796875 "/>
<path style=" stroke:none;fill-rule:nonzero;fill:rgb(0%,0%,0%);fill-opacity:1;" d="M 306.347656 21.09375 C 306.722656 18.746094 305.085938 17.0625 303.546875 19.480469 C 301.476563 22.683594 299.230469 18.652344 298.402344 14.652344 C 297.761719 11.550781 295.039063 11.925781 295.15625 14.777344 C 295.550781 24.589844 305.160156 28.496094 306.347656 21.09375 "/>
<path style=" stroke:none;fill-rule:nonzero;fill:rgb(0%,0%,0%);fill-opacity:1;" d="M 349.8125 21.945313 C 350.878906 20.199219 350.015625 18.769531 347.441406 20.425781 C 345.507813 21.664063 341.164063 19.996094 343.351563 18.414063 C 345.171875 17.40625 344.429688 15.28125 342.242188 15.902344 C 340.863281 16.292969 339.710938 16.652344 339.59375 18.648438 C 339.375 22.355469 347.40625 25.894531 349.8125 21.945313 "/>
<path style=" stroke:none;fill-rule:nonzero;fill:rgb(0%,0%,0%);fill-opacity:1;" d="M 25.269531 34.289063 C 20.546875 37.777344 18.613281 35.058594 16.144531 29.949219 C 15.285156 28.164063 14.050781 28.140625 14.003906 30.304688 C 13.925781 33.828125 16.636719 37.5625 19.496094 38.921875 C 21.867188 39.964844 26.550781 37.621094 27.726563 36.207031 C 29.371094 34.21875 27.375 33.234375 25.269531 34.289063 "/>
<path style=" stroke:none;fill-rule:nonzero;fill:rgb(0%,0%,0%);fill-opacity:1;" d="M 149.277344 68.464844 C 162.347656 68.355469 163.992188 48.171875 160.566406 38.800781 C 159.316406 35.375 158.175781 35.304688 155.875 39.046875 C 153.191406 43.40625 147.015625 45 146.925781 35.863281 C 146.898438 33.066406 145.242188 31.71875 142.804688 35.695313 C 136.070313 46.691406 134.675781 68.589844 149.277344 68.464844 "/>
<path style=" stroke:none;fill-rule:nonzero;fill:rgb(0%,0%,0%);fill-opacity:1;" d="M 106.070313 70.945313 C 105.921875 67.222656 101.25 70.820313 100.6875 68.695313 C 97.824219 59.324219 90.402344 48.476563 82.417969 45.867188 L 82.855469 47.703125 C 88.824219 50.925781 94.804688 61.519531 95.699219 65.734375 C 97.203125 72.832031 100.6875 72.371094 106.070313 70.945313 "/>
<path style=" stroke:none;fill-rule:nonzero;fill:rgb(0%,0%,0%);fill-opacity:1;" d="M 292.214844 72.777344 C 293.738281 72.351563 292.132813 70.894531 291.285156 70.734375 C 288.363281 70.179688 288.410156 68.957031 287.335938 66.34375 C 286.523438 64.378906 284.992188 66.058594 284.527344 67.414063 C 282.980469 71.9375 286.691406 74.304688 292.214844 72.777344 "/>
<path style=" stroke:none;fill-rule:nonzero;fill:rgb(0%,0%,0%);fill-opacity:1;" d="M 279.242188 71.199219 C 268.105469 85.71875 239.625 139.746094 242.691406 153.804688 C 242.984375 155.152344 244.828125 155.636719 246.324219 150.8125 C 252.527344 130.847656 273.640625 88.835938 283.878906 84.566406 C 285.625 81.683594 281.976563 80.316406 281.445313 78.035156 C 280.878906 75.273438 282.054688 71.65625 279.242188 71.199219 "/>
<path style=" stroke:none;fill-rule:nonzero;fill:rgb(0%,0%,0%);fill-opacity:1;" d="M 296.179688 77.199219 C 295.648438 76.519531 294.890625 76.214844 293.976563 76.367188 C 291.472656 78.644531 289.117188 75.453125 286.382813 75.835938 C 284.292969 77.1875 285.53125 81.886719 290.035156 81.886719 C 290.511719 81.886719 297.167969 80.011719 296.179688 77.199219 "/>
<path style=" stroke:none;fill-rule:nonzero;fill:rgb(0%,0%,0%);fill-opacity:1;" d="M 298.394531 81.222656 C 295.191406 83.355469 297.285156 84.726563 293.90625 85.269531 C 292.410156 85.511719 290.820313 85.445313 291.242188 87.605469 C 293.441406 93.097656 299.421875 88.703125 301.121094 83.664063 C 301.59375 82.265625 300.765625 79.640625 298.394531 81.222656 "/>
<path style=" stroke:none;fill-rule:nonzero;fill:rgb(0%,0%,0%);fill-opacity:1;" d="M 305.875 88.421875 C 307.152344 85.394531 305.527344 84.148438 304.28125 84.636719 C 302.175781 85.46875 299.449219 93.09375 302.789063 94.972656 C 304.15625 95.582031 305.824219 96.265625 306.890625 94.441406 C 307.34375 93.074219 306.128906 92.164063 305.75 91.402344 C 305.285156 90.417969 305.484375 89.347656 305.875 88.421875 "/>
<path style=" stroke:none;fill-rule:nonzero;fill:rgb(0%,0%,0%);fill-opacity:1;" d="M 312.40625 88.886719 C 312.113281 88.011719 311.933594 87.121094 310.6875 87.074219 C 307.398438 88.636719 308.976563 95.8125 314.789063 96.339844 C 315.546875 94.820313 315.546875 94.671875 315.851563 93.074219 C 314.257813 93 312.59375 89.453125 312.40625 88.886719 "/>
<path style=" stroke:none;fill-rule:nonzero;fill:rgb(0%,0%,0%);fill-opacity:1;" d="M 90.054688 114.949219 C 90.8125 115.78125 91.761719 121.570313 91.296875 123.480469 C 90.589844 126.378906 88.691406 129.238281 88.59375 132.09375 C 88.414063 137.140625 91.105469 138.964844 97.421875 135.453125 C 103.878906 131.503906 108.054688 139.402344 114.355469 137.050781 C 104.710938 133.328125 96.453125 122.710938 92.351563 113.75 C 93.5625 112.933594 95.722656 111.996094 95.816406 109.613281 C 95.863281 108.472656 95.128906 108.542969 94.335938 109.214844 C 91.742188 111.410156 87.21875 114.492188 85.886719 111.8125 C 85.457031 110.945313 84.058594 111.464844 84.40625 112.410156 C 85.203125 114.59375 87.867188 115.273438 90.054688 114.949219 "/>
<path style=" stroke:none;fill-rule:nonzero;fill:rgb(0%,0%,0%);fill-opacity:1;" d="M 234.808594 168.148438 C 235.789063 170.386719 237.558594 170.574219 238.601563 169.757813 C 239.644531 168.945313 239.96875 167.128906 238.054688 165.363281 C 236.417969 163.855469 234.089844 166.5 234.808594 168.148438 "/>
<path style=" stroke:none;fill-rule:nonzero;fill:rgb(0%,0%,0%);fill-opacity:1;" d="M 192.921875 445.035156 C 190.105469 426.871094 231.183594 406.832031 237.644531 405.359375 C 241.9375 404.386719 240.027344 401.734375 236.964844 402.765625 C 210.53125 411.660156 178.660156 432.777344 188.117188 446.898438 C 191.015625 451.226563 193.332031 447.695313 192.921875 445.035156 "/>
<path style=" stroke:none;fill-rule:nonzero;fill:rgb(0%,0%,0%);fill-opacity:1;" d="M 90.121094 448.304688 C 35.226563 446.828125 18.679688 436.886719 56.4375 410.839844 C 59.015625 409.75 56.136719 407.566406 54.105469 408.375 C 14.492188 424.167969 19.699219 459.183594 60.917969 453.523438 C 62.988281 453.238281 82.625 451.195313 90.378906 451.230469 C 91.46875 451.234375 91.648438 448.347656 90.121094 448.304688 "/>
</g>
</svg>
