<?xml version="1.0" encoding="UTF-8"?>
<svg xmlns="http://www.w3.org/2000/svg" xmlns:xlink="http://www.w3.org/1999/xlink" width="453pt" height="683pt" viewBox="0 0 453 683" version="1.1">
<g id="surface1">
<path style=" stroke:none;fill-rule:nonzero;fill:rgb(0%,0%,0%);fill-opacity:1;" d="M 448.085938 573.167969 C 442.40625 566.992188 433.472656 562.300781 431.785156 554.390625 C 430.871094 552.683594 428.996094 552.058594 427.285156 553.265625 C 410.160156 562.765625 399.410156 579.140625 386.410156 592.515625 C 378.535156 587.890625 376.285156 580.515625 372.910156 573.015625 C 373.160156 572.765625 386.703125 568.515625 386.785156 561.265625 C 385.285156 553.015625 382.660156 543.765625 378.910156 536.140625 C 377.410156 531.890625 371.785156 533.390625 368.410156 531.265625 C 364.285156 521.515625 358.910156 512.765625 354.410156 502.515625 C 347.410156 496.265625 356.285156 482.890625 346.535156 478.515625 C 346.535156 475.640625 350.285156 474.140625 350.410156 471.640625 C 348.910156 470.515625 347.160156 469.515625 345.035156 469.515625 C 346.785156 467.640625 348.785156 467.390625 348.410156 464.390625 C 341.785156 455.890625 341.660156 443.265625 336.910156 433.765625 C 335.660156 432.515625 337.160156 429.640625 335.410156 428.765625 C 336.160156 421.640625 337.160156 414.640625 338.410156 407.765625 C 339.828125 396.222656 333.285156 386.515625 327.410156 377.765625 C 320.785156 370.640625 327.160156 358.640625 318.910156 352.515625 C 312.410156 347.515625 306.035156 340.265625 302.160156 332.390625 C 300.285156 330.140625 296.410156 328.140625 297.910156 324.265625 C 296.285156 322.890625 293.660156 322.640625 291.660156 322.765625 C 293.910156 320.140625 298.660156 321.265625 300.660156 318.015625 C 301.535156 315.140625 299.410156 314.015625 297.910156 312.015625 C 300.785156 310.890625 300.910156 308.140625 303.660156 307.515625 C 309.535156 310.765625 316.535156 313.140625 322.910156 315.890625 C 331.160156 323.015625 341.910156 325.890625 347.410156 335.765625 C 349.160156 338.515625 356.285156 336.890625 353.410156 342.265625 C 356.035156 346.015625 359.035156 340.640625 361.910156 341.140625 C 359.660156 348.140625 367.660156 342.515625 369.910156 345.890625 C 369.011719 353.824219 374.671875 359.089844 377.152344 366.003906 C 381.285156 374.765625 373.660156 386.265625 374.160156 393.015625 C 375.507813 398.730469 380.433594 399.585938 385.707031 394.191406 C 388.199219 391.640625 389.746094 387.949219 390.910156 384.890625 C 392.238281 383.25 392.835938 380.878906 393.765625 378.808594 C 395.140625 375.757813 396.117188 373.824219 397.796875 378.910156 C 399.75 383.351563 400.910156 388.765625 400.910156 388.765625 C 404.253906 397.457031 409.621094 399.679688 412.304688 390.652344 C 413.011719 388.273438 413.785156 381.847656 411.757813 373.863281 C 410.246094 369.140625 412.121094 369.140625 414.035156 371.765625 C 416.078125 373.097656 419.203125 376.015625 423.160156 377.890625 C 431.949219 382.738281 432.894531 378.019531 431.5 373.578125 C 429.964844 368.691406 425.515625 364.605469 423.035156 360.265625 C 422.410156 357.265625 426.160156 360.015625 426.910156 359.140625 C 432.417969 360.8125 438.699219 361.632813 444.234375 360.082031 C 451.382813 358.074219 449.441406 354.140625 446.871094 352.324219 C 442.257813 349.070313 436.210938 347.996094 430.910156 346.265625 C 422.953125 343.933594 426.285156 341.847656 427.9375 340.992188 C 432.214844 338.023438 437.09375 335.550781 439.921875 331.496094 C 445.871094 322.96875 441.496094 320.390625 429.910156 323.765625 C 419.160156 327.515625 408.410156 333.015625 396.660156 328.265625 C 396.785156 326.140625 395.535156 324.640625 393.410156 324.015625 C 386.660156 318.515625 377.410156 312.515625 371.785156 305.140625 C 371.160156 301.265625 367.285156 297.640625 364.535156 294.890625 C 362.785156 293.140625 359.035156 294.890625 358.285156 292.265625 C 358.410156 290.515625 360.535156 289.515625 359.785156 287.390625 C 356.660156 284.390625 354.160156 289.265625 351.035156 288.015625 C 351.785156 287.140625 358.003906 282.890625 350.410156 270.890625 C 349.535156 263.640625 345.410156 257.765625 343.535156 250.515625 C 343.535156 250.265625 343.660156 250.015625 343.910156 249.890625 C 350.996094 255.5 365.867188 251.449219 369.910156 240.890625 C 370.160156 238.265625 369.660156 235.765625 368.410156 233.765625 C 361.785156 225.390625 348.160156 220.390625 339.410156 218.765625 C 319.160156 215.390625 304.535156 199.265625 291.910156 184.265625 C 287.410156 176.390625 279.910156 169.390625 276.410156 161.140625 C 272.285156 150.515625 262.660156 142.640625 259.910156 130.515625 C 254.285156 115.765625 253.910156 98.140625 252.660156 82.515625 C 253.910156 59.265625 257.910156 30.390625 238.910156 15.265625 C 233.910156 11.015625 225.410156 9.890625 219.035156 12.640625 C 209.160156 18.515625 209.035156 30.265625 207.910156 40.515625 C 207.910156 51.140625 209.035156 62.015625 210.410156 71.390625 C 211.535156 75.265625 211.285156 79.265625 213.910156 81.890625 C 212.285156 83.265625 212.035156 85.765625 209.785156 86.390625 C 204.160156 75.015625 204.410156 61.515625 203.785156 47.765625 C 203.472656 41.484375 204.660156 28.265625 206.160156 23.765625 C 212.035156 6.765625 230.972656 3.359375 247.285156 3.890625 C 257.285156 5.015625 265.660156 10.640625 273.910156 15.265625 C 285.160156 23.765625 292.910156 36.765625 303.035156 45.640625 C 305.285156 47.640625 309.910156 50.640625 304.910156 53.140625 C 301.128906 54.921875 306.785156 60.265625 308.160156 63.640625 C 309.660156 67.890625 303.910156 65.015625 303.035156 68.390625 C 301.910156 76.640625 308.035156 83.515625 312.035156 89.765625 C 314.535156 94.390625 319.160156 97.265625 320.785156 102.265625 C 320.160156 105.515625 324.285156 107.015625 324.035156 110.140625 C 322.222656 111.953125 322.910156 117.390625 318.910156 117.640625 C 314.160156 113.890625 306.597656 112.421875 300.660156 114.015625 C 292.304688 119.695313 293.765625 124.917969 297.910156 129.890625 C 295.285156 133.140625 294.410156 137.265625 294.035156 141.265625 C 295.566406 155.019531 306.59375 158.261719 316.910156 150.890625 C 314.722656 163.671875 316.910156 170.859375 321.910156 172.765625 C 324.285156 174.140625 326.285156 172.890625 328.535156 173.140625 C 330.910156 175.390625 332.035156 179.515625 336.035156 180.265625 C 341.160156 181.015625 345.160156 176.390625 346.910156 173.390625 C 350.285156 167.265625 348.160156 160.015625 347.410156 153.265625 C 350.660156 152.640625 354.035156 152.390625 357.035156 151.265625 C 363.410156 150.140625 363.941406 159.140625 364.535156 160.765625 C 365.410156 164.890625 365.347656 171.171875 366.910156 174.015625 C 369.035156 178.390625 371.160156 183.140625 373.910156 186.890625 C 374.535156 190.640625 377.160156 194.015625 379.535156 197.765625 C 380.660156 198.890625 382.910156 198.890625 384.035156 197.765625 C 401.597656 214.765625 400.160156 229.890625 393.660156 237.265625 C 384.652344 250.300781 367.894531 255.136719 351.585938 254.324219 C 347.378906 254.140625 345.816406 256.328125 351.035156 257.140625 C 369.160156 258.640625 389.035156 252.140625 397.285156 237.015625 C 407.773438 221.632813 395.660156 204.765625 387.910156 197.765625 C 388.035156 197.265625 387.285156 196.765625 387.910156 196.515625 C 388.285156 196.640625 388.910156 196.265625 389.160156 196.765625 C 391.785156 196.890625 392.160156 193.390625 394.535156 192.015625 C 396.535156 191.140625 399.160156 191.390625 400.535156 189.640625 C 400.910156 187.765625 400.160156 186.390625 399.410156 185.140625 C 398.660156 181.640625 403.535156 182.390625 404.785156 180.640625 C 404.535156 176.140625 399.160156 175.640625 398.410156 171.265625 C 398.660156 171.640625 399.035156 171.640625 399.410156 171.640625 C 404.285156 175.265625 414.878906 175.078125 416.160156 171.890625 C 417.285156 167.015625 412.160156 165.640625 409.910156 162.265625 C 412.910156 160.890625 416.660156 158.890625 417.660156 155.140625 C 414.535156 152.140625 408.785156 153.515625 404.785156 151.515625 C 412.410156 144.765625 426.285156 127.890625 426.660156 109.765625 C 430.285156 88.390625 418.160156 69.640625 402.410156 57.890625 C 398.410156 55.890625 394.160156 54.765625 390.035156 53.140625 C 382.066406 51.171875 363.941406 49.921875 349.910156 57.890625 C 350.785156 54.390625 351.753906 49.296875 347.160156 48.265625 C 344.910156 46.890625 342.035156 48.640625 339.910156 48.265625 C 339.285156 48.015625 339.910156 47.390625 340.285156 47.140625 C 344.691406 40.09375 335.660156 38.097656 333.035156 41.140625 C 329.035156 44.390625 331.910156 51.140625 330.660156 55.765625 C 328.535156 50.640625 330.285156 44.515625 326.785156 40.265625 C 321.988281 36.878906 315.960938 38.402344 318.410156 47.390625 C 317.660156 48.515625 317.035156 50.640625 315.035156 49.765625 C 313.285156 47.015625 312.285156 47.640625 309.660156 46.265625 C 300.410156 38.390625 291.535156 28.640625 283.535156 18.265625 C 272.660156 8.765625 259.410156 1.140625 243.910156 0.640625 C 224.878906 0.234375 208.785156 10.078125 204.035156 19.765625 C 198.910156 29.765625 201.410156 41.265625 200.785156 52.265625 C 201.285156 65.890625 201.285156 78.640625 207.660156 88.765625 C 208.910156 93.140625 204.160156 93.015625 202.535156 95.765625 C 204.785156 99.390625 210.410156 97.015625 213.660156 96.890625 C 213.660156 98.390625 213.660156 99.640625 213.660156 101.140625 C 217.035156 106.265625 211.535156 109.265625 210.410156 114.015625 C 204.253906 123.203125 193.160156 108.140625 185.785156 116.765625 C 185.347656 118.359375 185.660156 121.015625 186.410156 123.015625 C 185.285156 128.265625 183.160156 133.984375 175.910156 135.015625 C 173.910156 137.015625 175.972656 139.140625 176.785156 141.015625 C 180.816406 147.808594 189.191406 150.039063 197.230469 149.863281 C 199.253906 149.453125 200.347656 149.609375 198.257813 151.582031 C 193.472656 157.578125 187.058594 160.101563 179.785156 161.140625 C 176.597656 161.484375 175.285156 165.390625 176.410156 168.265625 C 177.535156 171.015625 180.035156 172.140625 182.410156 173.765625 C 183.160156 177.140625 182.410156 180.515625 181.535156 183.640625 C 181.128906 189.765625 182.410156 193.640625 187.535156 196.515625 C 193.910156 199.640625 203.035156 198.640625 208.910156 195.015625 C 217.535156 191.140625 220.285156 198.390625 225.035156 202.515625 C 229.535156 208.640625 218.785156 205.390625 218.160156 209.765625 C 217.921875 212.144531 216.867188 212.566406 215.46875 212.378906 C 208.785156 209.921875 205.769531 213.808594 203.160156 219.890625 C 196.484375 218.222656 187.796875 222.976563 189.035156 232.265625 C 187.660156 231.140625 185.410156 231.890625 183.660156 231.640625 C 175.890625 234.691406 175.390625 241.671875 178.535156 245.390625 C 175.535156 247.015625 171.160156 251.765625 167.785156 254.765625 C 164.910156 258.640625 159.410156 255.265625 156.410156 258.890625 C 156.160156 260.140625 156.535156 261.265625 157.285156 262.265625 C 158.785156 265.515625 154.285156 263.390625 152.785156 264.015625 C 148.285156 264.515625 152.410156 268.640625 151.535156 270.890625 C 144.410156 273.140625 139.785156 280.765625 132.410156 282.890625 C 123.910156 290.390625 113.660156 292.015625 104.410156 298.515625 C 100.660156 299.515625 96.535156 303.640625 91.910156 303.015625 C 90.191406 302.578125 88.910156 304.140625 89.410156 306.265625 C 87.535156 308.515625 83.785156 304.453125 81.660156 306.890625 C 81.160156 309.265625 82.285156 310.765625 83.160156 312.640625 C 76.785156 312.890625 78.410156 321.015625 71.410156 320.140625 C 68.285156 322.140625 63.285156 322.265625 59.160156 323.390625 C 49.910156 329.515625 39.410156 334.015625 34.285156 345.265625 C 26.035156 353.140625 27.535156 367.140625 17.160156 374.390625 C 15.160156 375.390625 11.660156 375.890625 11.785156 378.640625 C 12.410156 382.765625 16.128906 385.078125 20.410156 385.515625 C 20.160156 386.640625 20.035156 387.890625 19.285156 388.765625 C 16.910156 396.015625 13.285156 405.015625 11.785156 413.765625 C 9.410156 419.515625 11.410156 427.390625 9.910156 433.265625 C 11.035156 440.640625 9.035156 449.015625 10.535156 456.640625 C 11.285156 460.015625 10.285156 463.265625 11.410156 466.515625 C 11.285156 473.390625 13.535156 479.890625 10.535156 486.015625 C 1.910156 505.765625 1.285156 530.015625 0.660156 552.015625 C 0.0351563 561.015625 1.660156 579.265625 6.410156 588.015625 C 15.660156 600.890625 33.410156 599.765625 48.410156 598.265625 C 56.035156 596.015625 64.160156 594.515625 71.160156 590.765625 C 85.285156 583.765625 104.285156 592.640625 117.410156 582.890625 C 126.035156 578.015625 128.535156 568.640625 127.535156 558.015625 C 124.410156 536.140625 118.160156 514.265625 106.535156 497.390625 C 99.410156 484.015625 85.535156 475.640625 75.410156 463.765625 C 77.285156 441.890625 80.785156 419.640625 76.910156 398.765625 C 76.660156 394.765625 73.660156 390.765625 74.785156 387.265625 C 76.785156 390.140625 81.410156 389.640625 84.410156 388.765625 C 87.035156 388.015625 88.285156 385.390625 88.535156 382.515625 C 88.660156 379.765625 86.160156 378.015625 84.660156 375.890625 C 83.660156 369.390625 79.660156 363.765625 77.785156 357.890625 C 79.785156 351.140625 87.160156 347.015625 93.910156 346.515625 C 96.910156 346.015625 99.660156 342.765625 102.660156 344.140625 C 107.410156 344.390625 112.660156 339.640625 116.160156 335.765625 C 121.535156 330.265625 130.910156 329.765625 137.785156 324.265625 C 139.660156 321.890625 135.035156 320.515625 136.285156 317.765625 C 138.160156 318.265625 139.660156 321.515625 141.910156 321.890625 C 145.160156 322.140625 141.910156 317.640625 144.660156 318.265625 C 146.285156 318.140625 146.160156 319.765625 147.410156 320.390625 C 153.160156 322.640625 156.035156 317.640625 159.035156 314.140625 C 161.785156 315.140625 165.535156 314.890625 167.785156 312.890625 C 170.285156 311.640625 170.410156 308.265625 171.035156 305.765625 C 171.785156 304.890625 172.910156 305.765625 173.160156 306.640625 C 172.660156 311.890625 170.035156 317.140625 170.160156 321.640625 C 167.660156 334.015625 171.160156 348.515625 169.535156 360.640625 C 170.660156 368.390625 174.160156 376.015625 177.035156 382.265625 C 180.535156 385.265625 179.535156 390.640625 178.910156 394.515625 C 182.410156 415.390625 174.535156 443.265625 194.785156 456.015625 C 194.535156 456.765625 195.535156 457.265625 194.785156 457.765625 C 192.660156 459.640625 188.660156 460.640625 188.785156 464.140625 C 189.160156 467.015625 192.535156 467.015625 194.410156 468.265625 C 194.660156 469.015625 194.285156 470.015625 193.535156 470.140625 C 196.535156 489.015625 193.285156 507.890625 191.785156 526.765625 C 190.285156 535.640625 195.285156 546.265625 188.410156 553.765625 C 186.785156 555.265625 182.660156 553.265625 180.910156 555.640625 C 177.410156 559.515625 177.785156 564.640625 178.285156 570.015625 C 178.035156 576.390625 175.910156 585.140625 178.910156 590.765625 C 182.410156 598.890625 192.535156 595.015625 199.535156 596.390625 C 199.910156 612.640625 189.828125 636.640625 183.035156 645.640625 C 174.035156 652.265625 162.285156 649.765625 152.410156 654.640625 C 139.683594 661.582031 143.375 677.226563 149.160156 678.015625 C 156.285156 678.308594 190.785156 678.515625 201.410156 677.390625 C 218.578125 677.683594 229.410156 669.972656 231.035156 665.140625 C 234.785156 654.265625 242.035156 646.015625 250.285156 638.390625 C 254.160156 635.765625 259.621094 630.808594 264.035156 633.640625 C 269.785156 643.640625 265.347656 660.910156 263.785156 669.265625 C 262.535156 673.015625 261.285156 677.890625 261.410156 681.640625 C 267.410156 682.765625 273.785156 682.765625 279.660156 682.765625 C 282.535156 673.640625 281.785156 663.015625 281.410156 653.765625 C 281.621094 648.09375 281.832031 641.757813 283.425781 636.136719 C 285.246094 627.890625 296.078125 622.578125 299.832031 607.863281 C 301.238281 602.382813 300.972656 596.386719 297.660156 589.765625 C 294.410156 584.765625 289.285156 580.765625 285.035156 575.390625 C 284.175781 574.53125 282.847656 574.609375 281.785156 575.390625 C 274.285156 580.890625 264.785156 584.015625 258.660156 591.265625 C 257.160156 592.515625 256.785156 590.515625 257.785156 589.765625 C 258.785156 586.265625 256.910156 582.390625 259.285156 579.640625 C 260.035156 572.515625 261.035156 565.265625 263.160156 558.890625 C 257.785156 548.765625 263.285156 538.640625 261.910156 528.015625 C 260.785156 526.015625 259.910156 524.890625 257.785156 524.140625 C 258.660156 523.265625 259.785156 523.015625 260.785156 522.265625 C 262.035156 518.390625 257.535156 517.890625 255.910156 515.765625 C 256.535156 515.390625 257.035156 515.015625 257.785156 515.140625 C 264.910156 507.515625 266.535156 496.265625 272.160156 486.890625 C 279.785156 491.015625 280.785156 498.765625 283.910156 505.765625 C 287.035156 517.890625 289.285156 531.515625 301.535156 536.390625 C 304.410156 537.640625 300.160156 539.265625 300.410156 541.515625 C 300.785156 545.515625 305.660156 543.890625 307.910156 546.015625 C 305.285156 555.140625 313.535156 560.765625 315.660156 568.765625 C 316.535156 570.890625 314.910156 573.640625 313.910156 575.390625 C 312.660156 577.765625 314.660156 580.015625 315.410156 581.765625 C 321.160156 585.265625 322.285156 592.265625 329.785156 593.390625 C 331.910156 592.390625 333.160156 591.390625 335.160156 590.140625 C 339.035156 586.265625 339.785156 591.765625 341.410156 594.015625 C 348.578125 613.722656 346.535156 632.390625 345.410156 634.765625 C 344.828125 635.808594 342.121094 635.808594 341.410156 636.015625 C 331.394531 641.589844 315.878906 641.164063 307.550781 649.15625 C 303.148438 653.386719 298.128906 666.632813 305.410156 670.765625 C 315.535156 675.890625 327.035156 671.515625 337.535156 671.140625 C 352.410156 667.390625 372.535156 672.265625 381.660156 656.390625 C 384.785156 653.390625 386.285156 647.515625 389.410156 643.765625 C 393.160156 635.390625 398.910156 628.765625 405.035156 621.890625 C 408.410156 619.765625 415.871094 613.308594 416.785156 621.015625 C 416.660156 627.390625 418.910156 649.640625 417.910156 655.265625 C 418.910156 657.765625 416.160156 659.640625 417.910156 661.765625 C 422.121094 662.683594 428.949219 662.613281 432.953125 661.640625 C 434.625 660.488281 435.101563 658.503906 435.035156 656.390625 C 433.285156 647.140625 434.410156 638.015625 435.410156 628.765625 C 435.265625 619.074219 440.941406 613.132813 445.601563 606.535156 C 451.730469 597.855469 456.464844 582.273438 448.085938 573.167969 Z M 318.910156 142.265625 C 315.816406 146.796875 309.660156 153.515625 303.035156 150.265625 C 299.910156 147.265625 298.160156 144.515625 297.660156 140.390625 C 298.410156 136.765625 299.285156 132.515625 303.410156 131.140625 C 304.535156 130.640625 306.785156 130.515625 306.410156 128.390625 C 305.035156 123.765625 298.785156 129.015625 298.285156 123.890625 C 298.660156 121.390625 299.660156 119.140625 301.910156 117.890625 C 307.785156 116.265625 314.910156 117.890625 319.535156 121.515625 C 319.285156 124.765625 320.660156 129.640625 315.910156 129.015625 C 312.410156 131.640625 309.660156 134.390625 307.910156 138.015625 C 307.660156 139.765625 308.472656 145.078125 313.535156 137.140625 C 315.785156 135.640625 316.535156 132.390625 319.535156 133.265625 C 320.785156 136.390625 322.035156 139.765625 318.910156 142.265625 Z M 342.660156 173.140625 C 340.535156 174.890625 337.910156 177.140625 334.285156 175.765625 C 330.910156 173.765625 332.160156 168.640625 327.910156 168.015625 C 325.910156 169.140625 323.910156 169.765625 321.660156 168.640625 C 318.535156 165.015625 319.722656 146.484375 323.785156 143.390625 C 326.785156 145.265625 329.535156 148.765625 333.035156 150.265625 C 328.941406 156.171875 332.410156 164.015625 333.910156 165.890625 C 335.160156 166.265625 336.660156 165.515625 336.410156 164.140625 C 334.910156 160.390625 333.910156 156.140625 336.035156 152.390625 C 338.785156 152.015625 341.910156 152.890625 344.160156 153.890625 C 346.035156 159.765625 346.785156 168.015625 342.660156 173.140625 Z M 411.660156 156.265625 C 412.535156 157.890625 410.160156 158.890625 408.660156 159.015625 C 406.535156 157.640625 403.003906 158.359375 404.785156 161.390625 C 405.035156 165.890625 410.785156 165.640625 412.535156 169.765625 C 410.285156 171.515625 407.535156 171.515625 404.410156 171.015625 C 401.035156 168.265625 396.285156 166.265625 392.160156 168.015625 C 392.910156 172.515625 396.410156 175.015625 399.660156 178.515625 C 397.660156 179.640625 395.535156 182.640625 395.785156 185.140625 C 396.035156 186.015625 396.535156 186.765625 396.410156 187.765625 C 393.535156 188.890625 390.535156 189.265625 389.410156 192.265625 C 385.910156 191.015625 388.285156 185.890625 383.160156 186.015625 C 382.910156 188.390625 381.035156 191.015625 382.285156 193.265625 C 381.910156 195.265625 380.035156 193.765625 379.910156 192.890625 C 376.910156 183.890625 369.910156 177.515625 369.660156 167.140625 C 368.160156 161.015625 366.285156 154.765625 363.410156 149.390625 C 363.003906 148.203125 364.878906 147.890625 365.410156 148.515625 C 367.285156 153.140625 374.234375 172.480469 377.78125 175.925781 C 379.085938 177.195313 380.726563 178.0625 382.910156 178.265625 C 384.785156 178.140625 384.910156 176.515625 385.910156 175.265625 C 387.160156 169.515625 383.535156 165.765625 382.285156 161.140625 C 381.285156 159.296875 379.535156 159.515625 378.660156 161.390625 C 379.910156 164.390625 381.535156 167.765625 381.910156 171.265625 C 383.003906 175.234375 380.910156 174.765625 379.910156 172.515625 C 374.285156 164.140625 372.535156 154.890625 369.660156 145.265625 C 371.035156 144.265625 371.160156 142.640625 372.410156 141.890625 C 377.660156 144.515625 381.160156 150.765625 385.285156 155.765625 C 387.054688 157.238281 390.433594 154.8125 387.910156 152.765625 C 382.660156 148.390625 379.910156 143.265625 374.785156 139.515625 C 374.660156 138.890625 375.160156 137.015625 376.535156 136.515625 C 385.785156 141.515625 392.847656 154.609375 411.660156 156.265625 Z M 349.910156 62.140625 C 358.535156 58.390625 366.535156 56.015625 376.285156 54.890625 C 387.691406 54.765625 406.285156 60.890625 412.910156 72.890625 C 423.660156 84.140625 425.285156 102.890625 421.535156 118.265625 C 419.035156 130.890625 409.660156 143.890625 397.535156 148.265625 C 390.535156 142.765625 384.910156 138.515625 377.785156 132.890625 C 378.785156 131.265625 378.910156 126.140625 381.910156 128.390625 C 386.660156 131.515625 391.535156 133.765625 397.285156 132.265625 C 408.304688 130.183594 412.648438 117.875 407.613281 112.976563 C 406.195313 111.59375 404.359375 110.648438 406.285156 108.640625 C 407.378906 103.828125 405.035156 100.640625 400.285156 99.890625 C 392.285156 98.390625 385.535156 102.265625 380.160156 107.390625 C 379.722656 103.359375 375.410156 97.765625 372.035156 95.765625 C 379.160156 90.765625 383.285156 82.515625 381.660156 72.890625 C 380.734375 62.226563 375.257813 67.679688 369.910156 65.390625 C 368.285156 63.140625 367.847656 60.546875 364.285156 59.765625 C 357.554688 55.558594 350.980469 69.765625 348.410156 74.765625 C 348.035156 71.890625 348.910156 66.140625 349.910156 62.140625 Z M 395.160156 114.015625 C 391.535156 110.765625 386.410156 110.765625 381.910156 112.265625 C 381.785156 111.640625 381.160156 111.140625 381.410156 110.390625 C 386.660156 105.890625 395.285156 100.640625 402.410156 105.265625 C 403.410156 106.390625 402.910156 108.515625 402.035156 109.515625 C 400.660156 110.390625 399.535156 112.640625 401.160156 113.765625 C 402.910156 114.390625 405.535156 113.765625 405.910156 116.765625 C 406.660156 123.265625 400.660156 128.515625 396.035156 128.765625 C 391.160156 129.515625 384.160156 128.140625 381.035156 123.640625 C 382.035156 121.265625 381.535156 118.265625 382.535156 115.765625 C 386.785156 114.390625 389.660156 114.515625 393.660156 116.390625 C 394.660156 116.015625 395.285156 115.015625 395.160156 114.015625 Z M 361.910156 75.265625 C 360.347656 74.140625 358.785156 75.078125 359.410156 76.515625 C 362.410156 80.515625 359.035156 84.265625 358.910156 88.515625 C 357.410156 87.890625 355.285156 88.640625 353.785156 87.890625 C 356.285156 83.515625 348.160156 83.890625 351.035156 78.265625 C 353.269531 75.382813 354.519531 69.726563 356.917969 66.332031 C 362.464844 58.488281 364.507813 61.675781 366.179688 68.03125 C 366.523438 69.335938 367.078125 70.453125 368.785156 70.515625 C 376.324219 68.53125 379.410156 70.234375 377.410156 80.140625 C 376.160156 85.640625 372.035156 89.890625 368.160156 92.765625 C 366.410156 90.640625 358.160156 91.015625 363.410156 86.765625 C 363.035156 83.015625 366.535156 77.640625 361.910156 75.265625 Z M 374.160156 104.390625 C 378.410156 110.390625 378.910156 119.515625 375.910156 126.640625 C 373.003906 134.765625 366.832031 145.859375 351.035156 149.140625 C 341.785156 150.265625 331.660156 148.265625 327.035156 140.390625 C 323.285156 135.390625 323.785156 122.109375 324.660156 119.140625 C 327.160156 110.015625 334.035156 102.890625 344.160156 101.765625 C 351.535156 103.140625 360.535156 103.890625 363.910156 111.890625 C 366.160156 118.640625 365.535156 125.640625 360.910156 130.765625 C 357.410156 134.390625 352.660156 136.390625 347.160156 135.890625 C 341.660156 134.890625 337.285156 132.640625 335.410156 127.265625 C 333.535156 121.640625 337.160156 117.640625 340.535156 114.265625 C 349.050781 109.839844 356.648438 116.941406 354.410156 124.265625 C 353.035156 126.515625 351.410156 129.515625 348.035156 129.265625 C 343.652344 127.074219 344.191406 123.398438 348.78125 123.535156 C 350.664063 123.59375 352.355469 124.027344 350.785156 120.890625 C 348.292969 117.628906 341.105469 119.519531 341.410156 126.890625 C 341.785156 130.265625 344.410156 132.015625 347.160156 133.265625 C 352.910156 133.890625 355.535156 129.140625 357.660156 125.390625 C 362.53125 116.625 351.082031 107.238281 341.160156 109.765625 C 330.566406 109.984375 325.839844 130.210938 338.160156 136.765625 C 345.035156 140.765625 354.910156 141.140625 361.535156 136.515625 C 367.785156 130.640625 371.660156 121.765625 368.160156 113.140625 C 367.8125 99.804688 343.972656 93.9375 332.410156 101.140625 C 332.785156 97.640625 336.535156 95.140625 339.410156 93.265625 C 351.054688 86.871094 364.976563 92.910156 374.160156 104.390625 Z M 311.160156 51.640625 C 314.035156 52.640625 317.410156 53.765625 319.910156 51.640625 C 321.59375 49.769531 321.039063 47.199219 321.070313 44.609375 C 321.132813 39.613281 323.652344 41.222656 325.285156 44.765625 C 325.535156 51.890625 328.035156 58.890625 327.910156 66.640625 C 327.535156 69.609375 330.035156 69.515625 331.535156 68.140625 C 335.519531 62.941406 334.804688 54.417969 334.152344 47.589844 C 333.757813 43.464844 335.808594 43.285156 336.28125 47.40625 C 336.539063 49.644531 337 51.355469 338.160156 53.765625 C 341.535156 54.765625 342.285156 49.515625 345.660156 51.265625 C 346.285156 57.015625 345.910156 63.640625 344.785156 69.265625 C 342.847656 70.859375 342.910156 81.640625 344.160156 87.015625 C 342.035156 87.265625 339.910156 87.765625 338.160156 88.765625 C 337.480469 85.351563 337.613281 81.234375 336.890625 77.773438 C 335.828125 72.710938 334.253906 72.421875 333.410156 78.015625 C 333.910156 82.765625 333.535156 86.015625 333.660156 90.640625 C 333.035156 92.765625 330.785156 93.265625 329.410156 95.140625 C 326.910156 91.015625 324.910156 86.515625 322.910156 82.515625 C 321.597656 79.609375 321.785156 77.015625 324.410156 79.515625 C 325.410156 80.890625 325.535156 84.140625 328.535156 83.390625 C 329.660156 80.765625 327.660156 77.390625 326.410156 75.640625 C 323.515625 69.019531 318.644531 71.722656 318.035156 76.265625 C 319.410156 84.640625 321.910156 91.390625 327.660156 97.765625 C 327.410156 99.890625 327.160156 103.265625 325.535156 105.265625 C 321.785156 93.890625 308.035156 83.015625 306.035156 69.890625 C 307.910156 67.265625 312.535156 71.171875 312.660156 66.640625 C 312.160156 61.890625 302.066406 51.796875 311.160156 51.640625 Z M 405.410156 333.890625 C 411.285156 333.722656 424.035156 328.699219 431.910156 326.640625 C 437.695313 325.128906 441.660156 325.648438 435.746094 331.105469 C 430.882813 335.59375 422.527344 337.046875 421.535156 344.765625 C 425.648438 350.570313 434.324219 350.058594 440.769531 353.074219 C 446.285156 354.765625 443.785156 357.890625 439.203125 357.132813 C 433.21875 357.078125 427.582031 354.789063 421.285156 355.265625 C 418.285156 356.390625 418.160156 360.183594 419.410156 362.390625 C 421.035156 364.265625 422.816406 366.421875 424.394531 368.6875 C 430.101563 376.878906 427.121094 380.390625 417.910156 371.140625 C 413.433594 366.105469 410.179688 363.617188 408.300781 368.699219 C 406.589844 373.328125 409.039063 379.109375 410.160156 383.390625 C 410.871094 393.308594 403.996094 393.097656 402.996094 385.589844 C 402.238281 381.878906 401.953125 377.96875 400.054688 374.578125 C 399.21875 370.933594 392.953125 371.433594 391.910156 374.765625 C 389.292969 380.292969 387.804688 386.347656 383.941406 390.535156 C 380.03125 394.769531 376.660156 394.015625 377.785156 388.765625 C 378.785156 384.890625 382.746094 377.058594 381.410156 370.515625 C 382.160156 360.890625 372.910156 357.140625 374.160156 348.265625 C 372.953125 340.808594 382.328125 326.222656 392.410156 330.640625 C 395.785156 331.765625 401.035156 334.640625 405.410156 333.890625 Z M 347.785156 242.140625 C 356.128906 245.390625 357.691406 242.109375 360.410156 240.015625 C 361.285156 236.015625 356.535156 237.890625 355.285156 236.140625 C 352.285156 233.515625 347.535156 230.765625 348.035156 225.890625 C 355.035156 228.640625 363.535156 230.640625 366.410156 238.265625 C 359.332031 256.667969 343.660156 247.390625 342.410156 247.265625 C 342.410156 244.640625 339.910156 241.640625 339.910156 239.390625 C 342.410156 239.890625 345.410156 240.765625 347.785156 242.140625 Z M 299.160156 220.515625 C 301.660156 220.890625 304.910156 222.265625 307.910156 221.765625 C 310.769531 229.386719 305.429688 231.6875 297.910156 227.390625 C 296.660156 225.640625 295.660156 223.359375 299.160156 220.515625 Z M 292.222656 226.640625 C 290.597656 231.453125 282.410156 232.238281 282.410156 228.890625 C 277.324219 219.445313 295.660156 217.421875 292.222656 226.640625 Z M 265.910156 210.890625 C 272.535156 212.140625 288.035156 218.015625 288.035156 218.765625 C 284.660156 218.515625 281.410156 219.765625 279.410156 222.265625 C 279.410156 219.515625 277.160156 216.890625 274.910156 215.765625 C 272.410156 212.765625 264.910156 217.015625 265.910156 210.890625 Z M 269.785156 217.515625 C 271.910156 218.140625 275.535156 218.140625 275.785156 221.140625 C 276.894531 228.335938 270.929688 229.402344 267.910156 227.390625 C 264.253906 223.671875 264.175781 220.96875 269.785156 217.515625 Z M 263.160156 214.265625 C 262.285156 217.390625 258.535156 218.515625 255.660156 219.265625 C 254.410156 219.640625 253.660156 218.140625 253.535156 217.265625 C 253.035156 214.140625 254.160156 212.015625 255.910156 210.265625 C 260.890625 208.121094 262.269531 210.691406 263.160156 214.265625 Z M 256.285156 206.390625 C 256.660156 207.265625 254.285156 207.265625 253.285156 207.640625 C 252.140625 208.355469 251.773438 209.234375 251.296875 209.972656 C 250.347656 211.953125 249.410156 211.484375 250.28125 209.625 C 250.527344 208.144531 250.339844 206.191406 249.410156 205.265625 C 241.285156 196.265625 252.066406 205.546875 256.285156 206.390625 Z M 212.785156 67.515625 C 212.285156 54.765625 209.660156 42.765625 212.785156 30.265625 C 216.972656 13.515625 219.808594 13.308594 232.535156 15.265625 C 240.742188 19.601563 251.082031 32.058594 249.410156 42.640625 C 250.160156 50.140625 249.035156 56.890625 250.285156 64.515625 C 250.503906 66.328125 225.347656 66.328125 216.410156 79.515625 C 213.410156 76.390625 214.160156 71.890625 212.785156 67.515625 Z M 240.410156 207.265625 C 238.910156 205.640625 233.660156 208.390625 234.910156 204.890625 C 237.535156 202.109375 240.410156 202.140625 243.035156 203.390625 C 244.410156 204.515625 245.535156 204.890625 246.410156 206.390625 C 246.910156 209.890625 243.003906 208.828125 240.410156 207.265625 Z M 217.535156 191.140625 C 208.160156 187.640625 201.785156 199.015625 191.410156 194.140625 C 186.535156 193.390625 184.722656 188.984375 185.160156 185.765625 C 185.410156 181.265625 187.160156 176.890625 186.035156 172.265625 C 185.535156 170.578125 183.316406 169.640625 181.660156 168.578125 C 179.410156 167.890625 178.472656 164.921875 180.660156 164.140625 C 188.660156 163.015625 195.410156 158.765625 201.660156 153.265625 C 203.160156 151.328125 205.910156 149.015625 204.660156 145.515625 C 201.785156 143.765625 201.441406 146.796875 197.410156 147.015625 C 191.597656 147.109375 184.097656 144.765625 179.722656 140.390625 C 177.503906 138.4375 178.941406 137.265625 180.851563 136.625 C 185.585938 133.3125 189.773438 129.140625 189.660156 122.765625 C 189.535156 121.265625 188.535156 119.765625 189.410156 118.265625 C 193.316406 115.859375 197.785156 118.765625 201.660156 119.765625 C 205.035156 120.390625 213.035156 119.390625 214.535156 113.765625 C 217.066406 105.234375 219.878906 99.296875 227.160156 93.890625 C 228.160156 92.015625 230.160156 93.640625 228.910156 95.390625 C 227.285156 99.140625 226.128906 101.953125 221.410156 104.765625 C 220.910156 106.390625 222.066406 106.953125 223.285156 107.390625 C 227.285156 108.140625 229.285156 106.265625 232.285156 104.765625 C 233.585938 104.511719 234.996094 107.785156 235.808594 112.246094 C 244 141 210.496094 160.011719 200.976563 159.683594 C 198.941406 159.453125 195.503906 158.828125 198.660156 164.390625 C 203.535156 170.640625 232.660156 194.726563 240.625 198.746094 C 241.335938 199.105469 241.160156 199.234375 240.347656 199.179688 C 237.375 198.976563 231.753906 199.609375 231.6875 203.390625 C 231.207031 204.773438 230.539063 205.980469 229.535156 203.390625 C 227.160156 198.640625 221.910156 193.765625 217.535156 191.140625 Z M 222.691406 209.453125 C 223.691406 208.453125 228.660156 208.640625 227.160156 210.640625 C 225.035156 212.140625 222.910156 213.515625 220.535156 214.515625 C 219.785156 212.140625 220.941406 210.453125 222.691406 209.453125 Z M 206.785156 219.890625 C 207.160156 216.640625 210.035156 214.140625 213.035156 214.515625 C 214.535156 215.140625 216.035156 215.390625 217.285156 216.265625 C 214.535156 218.640625 211.285156 220.765625 208.285156 222.890625 C 206.285156 224.140625 206.285156 221.015625 206.785156 219.890625 Z M 196.441406 222.890625 C 199.066406 221.390625 203.410156 222.515625 204.410156 225.265625 C 199.910156 228.140625 196.410156 231.765625 192.035156 234.015625 C 191.035156 228.515625 192.691406 225.015625 196.441406 222.890625 Z M 180.035156 237.109375 C 182.160156 234.734375 188.035156 232.640625 189.035156 236.390625 C 186.160156 239.390625 183.035156 241.265625 180.035156 243.015625 C 178.535156 241.265625 179.035156 238.609375 180.035156 237.109375 Z M 74.410156 420.015625 C 74.035156 435.265625 73.160156 448.890625 71.785156 464.140625 C 75.910156 472.015625 83.660156 476.640625 89.785156 482.390625 C 102.785156 497.015625 114.410156 513.640625 117.910156 532.765625 C 122.035156 544.765625 125.160156 555.890625 123.410156 569.140625 C 121.785156 579.140625 110.410156 582.265625 102.410156 584.390625 C 93.285156 585.390625 81.910156 583.390625 72.910156 587.390625 C 63.410156 590.140625 54.910156 594.140625 44.410156 595.515625 C 33.035156 597.140625 19.535156 596.140625 10.910156 588.265625 C 8.285156 584.140625 5.410156 579.390625 5.785156 574.265625 C 2.785156 555.890625 4.785156 534.890625 6.410156 515.390625 C 7.910156 498.640625 18.660156 485.890625 15.035156 468.265625 C 13.660156 447.265625 10.535156 423.265625 17.785156 403.515625 C 19.535156 399.640625 21.410156 393.640625 22.285156 388.765625 C 23.285156 386.765625 24.785156 384.265625 27.660156 384.015625 C 28.910156 387.140625 31.910156 391.015625 30.660156 395.390625 C 29.785156 402.890625 26.285156 409.015625 26.785156 417.015625 C 26.285156 417.265625 26.285156 417.890625 25.910156 418.265625 C 24.785156 434.890625 26.410156 451.515625 26.785156 466.515625 C 26.808594 472.265625 30.453125 479.871094 33.660156 479.765625 C 43.160156 480.640625 54.285156 482.640625 60.910156 474.640625 C 62.410156 471.640625 61.910156 467.390625 62.410156 463.765625 C 64.535156 439.515625 64.785156 415.515625 56.410156 393.640625 C 60.410156 390.265625 58.410156 383.015625 62.785156 380.765625 C 65.785156 379.390625 65.660156 382.765625 67.285156 384.265625 C 72.410156 390.140625 73.410156 399.265625 74.410156 408.015625 C 75.285156 412.390625 75.410156 416.015625 74.410156 420.015625 Z M 55.535156 467.765625 C 54.160156 462.765625 49.097656 460.285156 43.910156 459.890625 C 40.535156 459.765625 33.160156 467.015625 33.910156 469.265625 C 33.785156 472.371094 35.410156 474.265625 36.410156 476.765625 C 34.660156 476.515625 32.285156 476.140625 32.160156 474.265625 C 29.660156 455.140625 28.035156 436.640625 30.035156 416.765625 C 30.035156 408.890625 33.160156 402.765625 35.410156 396.015625 C 39.160156 397.890625 42.660156 394.640625 45.660156 398.140625 C 45.910156 399.765625 50.035156 400.234375 52.347656 397.328125 C 53.503906 396.328125 54.535156 395.890625 55.285156 398.390625 C 56.285156 406.515625 58.160156 414.640625 58.285156 422.765625 C 60.410156 439.640625 59.410156 454.765625 57.910156 471.640625 C 57.910156 473.390625 55.910156 474.140625 54.660156 474.890625 C 55.535156 473.390625 56.285156 470.140625 55.535156 467.765625 Z M 51.03125 469.441406 C 51.03125 472.695313 48.179688 475.332031 44.667969 475.332031 C 41.152344 475.332031 38.300781 472.695313 38.300781 469.441406 C 38.300781 466.1875 41.152344 463.546875 44.667969 463.546875 C 48.179688 463.546875 51.03125 466.1875 51.03125 469.441406 Z M 74.410156 355.265625 C 74.035156 357.140625 73.785156 360.390625 74.785156 362.390625 C 79.910156 367.515625 78.910156 377.140625 84.910156 381.640625 C 85.503906 383.671875 84.785156 385.265625 82.535156 385.765625 C 73.035156 387.140625 70.160156 373.890625 60.035156 376.765625 C 55.808594 380.230469 56.097656 387.183594 53.367188 391.359375 C 51.910156 395.234375 48.472656 396.171875 46.535156 394.765625 C 43.285156 389.390625 33.660156 396.140625 33.410156 387.265625 C 32.378906 383.984375 32.035156 380.140625 28.285156 379.515625 C 25.867188 380.183594 22.78125 382.074219 20.027344 381.921875 C 16.597656 381.953125 12.535156 378.984375 18.894531 377.179688 C 20.316406 376.347656 21.941406 375.636719 22.910156 374.390625 C 30.785156 363.640625 33.660156 347.765625 43.285156 338.140625 C 52.535156 331.265625 60.910156 325.265625 72.660156 324.015625 C 77.785156 321.515625 84.535156 320.390625 89.160156 324.265625 C 92.660156 327.265625 97.535156 330.765625 98.785156 335.140625 C 98.785156 336.640625 99.410156 337.890625 99.660156 339.265625 C 90.785156 345.140625 78.410156 344.015625 74.410156 355.265625 Z M 179.160156 379.765625 C 178.660156 377.890625 177.535156 376.265625 176.410156 374.140625 C 170.660156 361.765625 173.785156 347.515625 172.535156 333.015625 C 172.910156 323.390625 173.660156 313.640625 178.285156 306.015625 C 187.910156 303.765625 194.285156 297.265625 203.410156 293.765625 C 212.285156 289.015625 222.910156 287.515625 231.660156 281.140625 C 237.535156 279.515625 243.910156 277.265625 249.410156 274.765625 C 255.660156 268.390625 265.160156 262.515625 262.535156 251.390625 C 261.535156 250.390625 261.285156 246.140625 258.410156 248.140625 C 255.910156 249.640625 259.035156 251.015625 258.910156 252.640625 C 260.660156 261.890625 252.160156 266.765625 246.660156 271.765625 C 237.160156 275.890625 226.660156 277.765625 217.910156 284.140625 C 213.285156 285.265625 208.410156 287.515625 203.785156 289.515625 C 196.910156 294.140625 187.660156 295.765625 180.910156 301.515625 C 178.035156 302.015625 175.160156 304.015625 172.285156 302.140625 C 171.160156 300.765625 170.285156 299.890625 168.660156 299.390625 C 165.410156 302.140625 169.285156 309.015625 164.160156 310.765625 C 161.410156 312.140625 159.160156 309.515625 156.410156 310.765625 C 155.410156 313.765625 153.660156 316.015625 150.910156 317.765625 C 145.660156 319.640625 145.660156 305.890625 141.410156 314.765625 C 141.660156 315.890625 140.410156 316.390625 140.410156 317.390625 C 138.035156 316.015625 137.535156 312.640625 134.160156 312.890625 C 130.660156 315.265625 134.410156 319.015625 134.160156 322.265625 C 134.160156 323.140625 132.785156 324.140625 132.035156 323.765625 C 123.785156 327.390625 113.785156 330.140625 108.035156 338.765625 C 106.035156 340.640625 104.410156 339.015625 102.660156 337.515625 C 101.535156 326.890625 91.160156 320.640625 82.285156 317.140625 C 83.410156 315.640625 86.660156 317.765625 87.660156 315.265625 C 87.535156 313.765625 85.535156 312.515625 85.910156 310.515625 C 88.035156 310.140625 90.785156 313.640625 92.160156 310.265625 C 90.660156 305.390625 95.660156 307.015625 97.910156 305.390625 C 104.785156 302.390625 111.410156 298.390625 118.285156 294.890625 C 123.410156 294.140625 127.910156 289.765625 132.410156 287.140625 C 138.910156 283.640625 144.785156 279.640625 149.785156 275.140625 C 151.535156 273.515625 154.535156 274.765625 156.035156 272.765625 C 155.285156 271.015625 153.910156 268.765625 154.910156 267.015625 C 157.160156 266.265625 157.910156 268.765625 160.285156 267.890625 C 162.660156 264.890625 158.660156 262.640625 160.910156 260.140625 C 162.910156 260.015625 165.160156 261.640625 166.910156 259.765625 C 171.410156 256.265625 183.035156 246.890625 183.410156 246.015625 C 200.785156 232.765625 216.785156 219.140625 235.910156 210.265625 C 239.722656 209.765625 246.160156 211.140625 249.660156 214.515625 C 249.285156 218.390625 251.035156 221.140625 253.910156 222.890625 C 257.410156 224.515625 260.035156 221.265625 262.535156 221.765625 C 263.664063 228.542969 267.449219 233.820313 273.410156 231.265625 C 274.785156 229.890625 276.785156 229.265625 277.910156 227.765625 C 282.132813 235.78125 291.484375 235.832031 294.660156 229.265625 C 301.703125 234.164063 311.785156 234.410156 311.785156 222.640625 C 319.660156 225.640625 325.660156 231.390625 333.035156 235.515625 C 336.753906 237.578125 346.910156 267.640625 348.410156 275.390625 C 351.035156 277.265625 351.496094 281.433594 350.785156 283.765625 C 349.160156 285.890625 346.035156 286.015625 345.660156 289.265625 C 345.785156 290.515625 347.660156 291.640625 348.910156 291.890625 C 351.160156 291.890625 352.910156 290.890625 354.910156 290.390625 C 353.785156 292.890625 355.285156 296.015625 358.285156 296.390625 C 363.410156 296.015625 365.785156 301.390625 367.535156 304.515625 C 373.535156 313.265625 382.410156 319.265625 390.410156 326.390625 C 390.535156 326.890625 390.035156 327.015625 389.785156 327.265625 C 387.410156 324.640625 384.535156 327.640625 381.910156 327.890625 C 377.910156 331.390625 372.535156 333.890625 372.035156 340.265625 C 369.660156 339.640625 366.035156 342.765625 365.410156 339.640625 C 365.785156 338.015625 367.035156 335.015625 364.535156 334.265625 C 360.910156 333.390625 360.410156 339.640625 357.410156 338.390625 C 358.035156 337.390625 358.660156 335.640625 357.910156 334.265625 C 357.410156 333.515625 356.535156 332.890625 355.910156 333.640625 C 355.160156 334.890625 352.660156 334.765625 351.660156 333.890625 C 346.285156 330.140625 343.410156 322.765625 336.410156 321.640625 C 328.410156 312.890625 315.910156 309.890625 305.410156 304.515625 C 306.785156 298.265625 312.160156 292.390625 314.410156 286.265625 C 317.785156 280.765625 321.160156 272.765625 323.785156 266.390625 C 324.03125 262.824219 325.585938 259.628906 326.410156 256.253906 C 326.859375 254.421875 327.535156 243.722656 321.910156 257.140625 C 318.410156 274.140625 309.035156 288.890625 301.285156 303.265625 C 299.660156 307.640625 295.285156 310.015625 291.035156 311.765625 C 289.203125 313.308594 289.828125 316.015625 293.582031 315.621094 C 295.570313 315.578125 297.699219 315.15625 297.035156 317.140625 C 292.910156 318.640625 286.410156 319.015625 285.660156 324.265625 C 285.410156 326.515625 287.953125 327.058594 290.160156 326.765625 C 291.660156 326.765625 293.285156 325.390625 294.660156 326.765625 C 295.035156 331.890625 300.660156 333.265625 302.160156 337.765625 C 305.410156 346.640625 314.785156 351.640625 319.535156 359.390625 C 321.496094 362.058594 319.410156 363.097656 318.660156 361.765625 C 310.910156 353.640625 297.910156 354.640625 287.160156 351.890625 C 258.285156 348.515625 226.410156 351.140625 202.285156 364.765625 C 195.035156 371.140625 187.660156 375.140625 180.910156 381.015625 C 180.035156 381.265625 179.785156 380.140625 179.160156 379.765625 Z M 183.035156 590.390625 C 178.535156 582.640625 184.285156 572.265625 181.535156 563.390625 C 182.410156 561.640625 182.285156 559.265625 184.285156 558.265625 C 189.660156 558.890625 195.785156 555.890625 201.035156 558.640625 C 207.035156 559.640625 213.535156 559.015625 218.785156 561.640625 C 228.910156 565.390625 240.410156 567.015625 249.410156 573.015625 C 254.535156 575.890625 254.410156 581.515625 254.160156 587.390625 C 253.910156 591.140625 252.785156 595.390625 250.535156 598.765625 C 246.285156 602.515625 240.910156 599.765625 236.785156 597.640625 C 234.410156 595.015625 230.910156 592.890625 227.410156 591.890625 C 220.160156 592.390625 214.035156 590.390625 207.035156 592.765625 C 199.410156 591.140625 189.660156 593.890625 183.035156 590.390625 Z M 237.410156 603.015625 C 239.285156 603.140625 242.832031 603.832031 244.332031 604.332031 C 241.667969 606.332031 238.332031 609 237.332031 610.332031 C 236.707031 609.082031 237.535156 605.140625 237.410156 603.015625 Z M 191.785156 636.265625 C 196.160156 628.640625 198.410156 618.765625 201.410156 610.265625 C 201.035156 606.140625 204.160156 597.515625 204.035156 597.015625 C 212.660156 596.265625 221.285156 592.472656 229.910156 597.015625 C 238.410156 599.140625 232.160156 608.015625 235.285156 612.890625 C 234.410156 616.390625 239.285156 616.390625 236.785156 619.265625 C 225.285156 629.515625 213.160156 637.390625 199.910156 645.890625 C 196.160156 647.265625 194.621094 649.972656 187.535156 649.765625 C 183.996094 650.433594 186.496094 646.433594 191.785156 636.265625 Z M 283.285156 579.015625 C 284.285156 578.765625 284.535156 580.140625 285.410156 580.265625 C 293.535156 586.265625 299.660156 597.390625 296.410156 607.765625 C 294.410156 619.042969 283.25 624.902344 279.800781 635.382813 C 278.472656 648.203125 278.785156 675.058594 277.535156 678.308594 C 275.785156 679.058594 265.230469 678.492188 264.96875 676.230469 C 264.90625 675.710938 275.035156 644.347656 266.160156 630.890625 C 261.285156 626.640625 254.035156 632.265625 249.035156 635.390625 C 240.785156 643.265625 232.910156 651.515625 228.910156 662.390625 C 226.285156 667.683594 219.621094 671.433594 214.910156 672.640625 C 207.035156 674.765625 198.160156 673.765625 189.410156 674.390625 C 176.535156 675.140625 163.285156 674.347656 150.035156 674.972656 C 146.285156 675.183594 146.660156 669.890625 147.035156 667.265625 C 148.160156 662.015625 151.535156 657.640625 156.910156 656.140625 C 165.160156 653.515625 173.910156 653.140625 182.410156 650.390625 C 189.160156 656.140625 197.660156 650.140625 204.035156 647.390625 C 213.535156 641.390625 221.160156 635.390625 230.410156 629.390625 C 243.535156 616.640625 276.496094 589.972656 283.285156 579.015625 Z M 312.410156 546.640625 C 312.160156 542.515625 307.660156 542.765625 305.160156 541.265625 C 306.160156 539.015625 310.410156 536.515625 307.910156 533.390625 C 301.285156 534.890625 297.910156 530.265625 294.660156 526.265625 C 285.910156 512.890625 288.535156 492.640625 273.910156 484.265625 C 275.785156 481.140625 278.035156 476.890625 275.785156 473.390625 C 271.285156 471.890625 277.535156 471.640625 278.410156 470.140625 C 279.035156 469.390625 280.035156 468.015625 279.035156 467.390625 C 280.285156 465.390625 276.660156 464.890625 276.660156 463.515625 C 285.160156 458.765625 286.535156 449.640625 291.910156 442.765625 C 296.660156 434.015625 299.660156 423.890625 300.910156 413.140625 C 300.535156 412.140625 299.660156 411.515625 298.535156 411.640625 C 296.285156 413.890625 296.785156 417.265625 296.160156 420.265625 C 292.910156 434.390625 285.410156 446.765625 277.285156 458.140625 C 275.285156 460.765625 269.410156 459.765625 270.035156 465.015625 C 271.160156 466.515625 273.285156 466.390625 274.285156 467.765625 C 271.660156 468.515625 269.410156 469.515625 267.910156 471.890625 C 268.535156 473.640625 269.035156 475.890625 271.535156 475.765625 C 272.035156 475.640625 272.410156 476.140625 272.785156 476.390625 C 272.160156 479.890625 268.660156 482.140625 268.285156 485.765625 C 264.785156 494.640625 261.035156 504.140625 255.035156 511.515625 C 253.160156 511.640625 250.535156 510.890625 249.660156 513.265625 C 249.535156 515.140625 249.785156 516.890625 251.160156 518.140625 C 252.535156 518.515625 254.660156 518.515625 255.035156 520.265625 C 253.285156 520.765625 251.285156 521.265625 250.285156 522.890625 C 249.660156 524.765625 251.035156 526.015625 252.660156 527.140625 C 259.910156 524.390625 256.910156 531.765625 257.785156 534.890625 C 255.910156 541.265625 256.160156 550.640625 258.910156 556.515625 C 257.535156 562.015625 256.910156 567.890625 255.910156 573.640625 C 252.535156 572.140625 250.160156 569.015625 246.660156 567.265625 C 236.410156 563.765625 226.410156 558.515625 215.160156 556.765625 C 212.785156 555.640625 209.660156 555.390625 207.410156 554.765625 C 202.535156 555.640625 199.160156 553.015625 194.160156 553.515625 C 192.660156 551.890625 195.410156 551.015625 195.410156 549.265625 C 194.285156 530.015625 197.035156 513.640625 198.910156 495.640625 C 197.910156 488.390625 200.035156 479.515625 197.160156 472.265625 C 198.410156 470.890625 201.785156 471.265625 200.410156 468.640625 C 198.535156 466.390625 196.035156 464.390625 193.285156 463.515625 C 195.035156 460.640625 200.035156 461.765625 199.535156 457.265625 C 198.160156 452.140625 191.035156 449.140625 189.410156 444.890625 C 183.160156 433.515625 183.785156 421.265625 183.035156 408.015625 C 183.410156 398.890625 178.785156 385.015625 188.160156 380.140625 C 200.785156 371.515625 214.910156 360.515625 231.035156 357.890625 C 255.035156 352.140625 284.785156 354.390625 308.785156 359.390625 C 315.285156 360.515625 315.285156 366.390625 320.410156 369.015625 C 320.660156 374.609375 335.035156 391.328125 335.191406 400.703125 C 336.824219 414.09375 331.042969 423.261719 332.410156 431.390625 C 336.410156 441.765625 339.035156 455.390625 344.410156 464.765625 C 344.410156 465.140625 343.785156 466.140625 343.535156 465.640625 C 342.035156 467.640625 337.160156 468.140625 339.035156 471.640625 C 339.785156 474.640625 346.660156 471.890625 342.910156 475.765625 C 341.535156 480.640625 345.785156 481.390625 347.410156 484.515625 C 345.160156 501.765625 356.910156 511.390625 361.285156 525.265625 C 363.910156 530.140625 365.285156 535.640625 372.035156 536.140625 C 376.21875 535.722656 375.816406 537.972656 371.53125 538.574219 C 369.105469 538.914063 366.457031 538.59375 363.910156 539.390625 C 346.285156 543.097656 318.996094 568.515625 318.660156 564.890625 C 316.660156 559.015625 308.785156 553.640625 312.410156 546.640625 Z M 328.910156 589.265625 C 327.910156 588.640625 326.785156 588.515625 325.910156 587.765625 C 324.035156 583.515625 316.285156 581.015625 318.410156 575.140625 C 325.285156 560.265625 342.660156 554.265625 356.410156 546.640625 C 362.785156 544.265625 370.160156 541.390625 377.785156 542.140625 C 380.285156 548.765625 381.410156 554.765625 382.535156 561.890625 C 374.910156 569.390625 356.660156 572.765625 356.160156 573.015625 C 345.910156 576.890625 338.785156 585.890625 328.910156 589.265625 Z M 341.160156 588.015625 C 341.703125 583.515625 359.035156 575.515625 369.910156 573.890625 C 373.660156 583.015625 378.410156 593.390625 389.160156 597.640625 C 391.285156 598.515625 389.828125 599.972656 387.746094 601.433594 C 376.496094 612.433594 348.578125 641.015625 349.535156 633.015625 C 350.410156 617.265625 348.035156 601.015625 341.160156 588.015625 Z M 433.910156 616.765625 C 431.535156 626.640625 429.785156 637.265625 429.660156 647.390625 C 430.410156 650.515625 430.660156 653.890625 430.535156 657.265625 C 428.035156 658.390625 425.246094 658.933594 421.910156 657.640625 C 421.535156 644.515625 421.285156 634.140625 420.910156 620.765625 C 420.453125 612.265625 410.453125 613.722656 405.035156 616.765625 C 383.035156 630.265625 384.785156 666.890625 353.785156 665.390625 C 340.660156 666.890625 327.785156 668.640625 314.410156 669.640625 C 301.703125 669.140625 305.496094 651.640625 313.785156 648.515625 C 323.285156 643.890625 333.035156 643.890625 342.910156 639.640625 C 353.785156 640.015625 357.496094 633.390625 365.246094 627.890625 C 373.578125 620.183594 414.621094 589.558594 429.910156 561.265625 C 431.660156 562.765625 433.285156 565.140625 435.035156 567.015625 C 440.160156 570.765625 446.410156 575.515625 448.285156 581.390625 C 449.910156 596.015625 440.660156 606.140625 433.910156 616.765625 "/>
<path style=" stroke:none;fill-rule:nonzero;fill:rgb(0%,0%,0%);fill-opacity:1;" d="M 215.777344 123.214844 C 218.34375 121.445313 218.785156 115.546875 222.847656 114.765625 C 225.347656 114.453125 227.066406 115.546875 227.160156 117.890625 C 224.535156 119.140625 223.003906 121.953125 222.035156 124.515625 C 221.132813 129.640625 225.347656 130.546875 227.785156 129.015625 C 230.347656 126.953125 233.003906 121.640625 230.410156 116.390625 C 228.941406 113.984375 226.128906 111.953125 222.410156 112.765625 C 218.285156 113.765625 215.035156 118.265625 213.410156 121.765625 C 213.410156 122.359375 214.253906 124.140625 215.777344 123.214844 "/>
<path style=" stroke:none;fill-rule:nonzero;fill:rgb(0%,0%,0%);fill-opacity:1;" d="M 214.535156 328.765625 C 216.285156 328.390625 217.660156 330.890625 219.035156 329.390625 C 222.910156 332.890625 214.410156 330.765625 216.035156 336.015625 C 217.160156 339.015625 216.535156 344.140625 220.535156 344.390625 C 223.910156 342.640625 219.535156 340.265625 219.410156 338.765625 C 216.785156 333.015625 223.910156 333.890625 224.785156 330.015625 C 223.660156 327.390625 220.660156 327.140625 218.160156 326.765625 C 218.785156 324.515625 222.785156 323.640625 225.410156 322.765625 C 225.160156 318.515625 220.160156 319.015625 217.285156 316.765625 C 219.660156 309.265625 223.535156 302.890625 224.160156 294.015625 C 223.660156 293.515625 223.285156 293.015625 222.660156 292.765625 C 221.535156 294.015625 221.035156 296.015625 221.160156 297.890625 C 218.785156 303.515625 217.910156 310.390625 214.535156 315.640625 C 211.160156 320.890625 219.160156 318.890625 220.535156 321.890625 C 218.535156 323.765625 216.785156 323.265625 214.535156 324.640625 C 214.160156 325.765625 212.785156 328.015625 214.535156 328.765625 "/>
<path style=" stroke:none;fill-rule:nonzero;fill:rgb(0%,0%,0%);fill-opacity:1;" d="M 79.285156 547.765625 C 84.035156 559.765625 88.285156 576.015625 102.410156 580.265625 C 106.660156 580.140625 110.660156 579.640625 113.410156 576.015625 C 114.285156 570.515625 117.035156 564.640625 114.660156 558.890625 C 114.410156 556.953125 110.785156 557.765625 110.160156 559.265625 C 113.785156 563.015625 110.785156 569.015625 110.410156 573.640625 C 106.695313 584.417969 93.960938 573.488281 88.910156 563.390625 C 81.035156 542.890625 74.410156 522.265625 75.910156 498.265625 C 76.285156 493.265625 76.660156 488.640625 75.910156 483.890625 C 75.453125 481.847656 73.265625 481.746094 72.660156 483.640625 C 73.535156 499.265625 72.035156 516.640625 75.035156 530.390625 C 75.535156 536.640625 78.160156 542.765625 79.285156 547.765625 "/>
</g>
</svg>
