<?xml version="1.0" encoding="UTF-8"?>
<svg xmlns="http://www.w3.org/2000/svg" xmlns:xlink="http://www.w3.org/1999/xlink" width="549pt" height="557pt" viewBox="0 0 549 557" version="1.1">
<g id="surface1">
<path style=" stroke:none;fill-rule:nonzero;fill:rgb(0%,0%,0%);fill-opacity:1;" d="M 523.128906 205.382813 C 516.097656 196.148438 509.957031 187.621094 505.691406 175.808594 C 498.191406 154.855469 496.363281 140.796875 493.648438 116.191406 C 493.363281 113.800781 492.664063 111.410156 491.726563 109.300781 C 489.148438 103.441406 483.148438 97.394531 475.460938 97.394531 C 471.382813 97.394531 467.445313 99.035156 464.351563 102.175781 L 413.171875 154.015625 L 397 137.84375 L 450.574219 84.738281 C 453.667969 81.644531 455.308594 77.992188 455.308594 73.867188 C 455.308594 66.039063 449.636719 60.132813 443.167969 57.320313 C 440.964844 56.382813 438.667969 55.726563 436.324219 55.445313 C 411.953125 52.773438 397.890625 50.898438 376.941406 43.402344 C 365.128906 39.136719 356.554688 32.996094 347.367188 26.152344 C 347.273438 26.105469 347.226563 26.058594 347.132813 26.011719 C 330.585938 13.730469 313.292969 0.703125 274.8125 0.703125 C 236.332031 0.703125 218.660156 13.777344 202.117188 26.058594 C 202.023438 26.105469 201.976563 26.152344 201.882813 26.199219 C 192.695313 33.042969 184.117188 39.183594 172.308594 43.449219 C 151.355469 50.945313 137.296875 52.820313 112.921875 55.492188 C 110.578125 55.773438 108.28125 56.429688 106.078125 57.367188 C 99.613281 60.179688 93.941406 66.085938 93.941406 73.914063 C 93.941406 78.035156 95.582031 81.695313 98.675781 84.785156 L 152.246094 137.890625 L 136.078125 154.0625 L 84.894531 102.222656 C 81.800781 99.082031 77.863281 97.441406 73.785156 97.441406 C 66.101563 97.441406 60.101563 103.488281 57.523438 109.347656 C 56.585938 111.457031 55.882813 113.847656 55.601563 116.234375 C 52.882813 140.84375 51.054688 154.902344 43.554688 175.855469 C 39.289063 187.664063 33.152344 196.195313 26.121094 205.429688 C 13.558594 221.835938 0.53125 240.066406 0.53125 278.453125 C 0.53125 316.839844 13.699219 334.929688 26.261719 351.335938 C 33.292969 360.570313 39.429688 369.097656 43.695313 380.910156 C 51.195313 401.859375 53.023438 415.921875 55.742188 440.527344 C 56.023438 442.917969 56.726563 445.308594 57.664063 447.417969 C 60.242188 453.277344 66.242188 459.324219 73.925781 459.324219 C 78.003906 459.324219 81.941406 457.683594 85.035156 454.542969 L 136.21875 402.703125 L 152.386719 418.875 L 98.816406 471.976563 C 95.722656 475.074219 94.082031 478.726563 94.082031 482.851563 C 94.082031 490.679688 99.753906 496.585938 106.222656 499.398438 C 108.421875 500.335938 110.71875 500.992188 113.0625 501.273438 C 137.4375 503.945313 151.496094 505.820313 172.449219 513.316406 C 184.257813 517.582031 192.835938 523.722656 202.023438 530.566406 C 202.117188 530.613281 202.164063 530.660156 202.257813 530.707031 C 218.800781 542.984375 236.472656 556.0625 274.953125 556.0625 C 313.433594 556.0625 330.726563 543.035156 347.273438 530.753906 C 347.367188 530.707031 347.414063 530.660156 347.507813 530.613281 C 356.691406 523.769531 365.269531 517.628906 377.082031 513.363281 C 398.03125 505.863281 412.09375 503.992188 436.464844 501.320313 C 438.808594 501.039063 441.105469 500.382813 443.308594 499.445313 C 449.777344 496.632813 455.449219 490.726563 455.449219 482.898438 C 455.449219 478.773438 453.808594 475.117188 450.714844 472.027344 L 397.140625 418.921875 L 413.3125 402.753906 L 464.492188 454.589844 C 467.585938 457.730469 471.523438 459.371094 475.601563 459.371094 C 483.289063 459.371094 489.289063 453.324219 491.867188 447.464844 C 492.804688 445.355469 493.507813 442.964844 493.789063 440.574219 C 496.503906 415.96875 498.335938 401.90625 505.832031 380.957031 C 510.097656 369.144531 516.238281 360.617188 523.269531 351.382813 C 535.828125 334.980469 549 316.886719 549 278.5 C 549 240.113281 535.6875 221.789063 523.128906 205.382813 Z M 410.152344 160.503906 L 381.824219 189.007813 L 377.667969 184.3125 L 405.621094 155.976563 Z M 398.105469 148.316406 L 402.636719 152.847656 L 374.683594 181.183594 L 369.773438 176.65625 Z M 366.886719 173.882813 L 361.972656 169.523438 L 390.683594 140.847656 L 395.214844 145.378906 Z M 103.335938 80.066406 C 95.628906 73.207031 103.976563 63.339844 113.609375 62.066406 C 138.226563 59.492188 152.78125 57.351563 174.617188 49.65625 C 209.9375 37.03125 217.640625 7.058594 274.796875 7.273438 C 331.949219 7.058594 339.3125 36.992188 374.632813 49.621094 C 396.46875 57.316406 411.023438 59.457031 435.640625 62.03125 C 445.273438 63.300781 453.621094 73.171875 445.914063 80.03125 L 410.167969 115.121094 C 408.667969 113.632813 407.171875 112.324219 405.671875 111.273438 C 404.386719 110.1875 403.101563 109.132813 401.820313 108.261719 C 401.175781 107.828125 400.535156 107.644531 400.105469 107.210938 L 433.070313 74.660156 C 408.882813 71.867188 393.257813 69.941406 370.351563 61.8125 C 355.582031 56.480469 344.878906 48.53125 335.890625 41.710938 C 320.476563 30.351563 307.117188 20.121094 274.796875 20.121094 C 242.472656 20.121094 228.773438 30.390625 213.359375 41.746094 C 204.371094 48.570313 193.667969 56.515625 178.898438 61.851563 C 155.992188 69.980469 140.367188 71.902344 116.175781 74.695313 L 149.144531 107.246094 C 148.714844 107.679688 148.070313 107.863281 147.429688 108.296875 C 146.144531 109.167969 144.859375 110.222656 143.578125 111.308594 C 142.078125 112.363281 140.578125 113.667969 139.082031 115.15625 Z M 396.375 104.445313 C 394.234375 102.734375 392.09375 101.234375 389.527344 99.738281 C 388.242188 98.667969 386.742188 97.8125 385.246094 96.738281 C 352.066406 76.40625 311.824219 66.558594 274.574219 66.558594 C 237.328125 66.558594 197.085938 76.40625 163.90625 96.738281 C 162.410156 97.8125 160.910156 98.667969 159.628906 99.738281 C 157.058594 101.234375 154.917969 102.734375 152.777344 104.445313 L 125.589844 77.902344 C 145.070313 75.546875 159.839844 73.191406 180.390625 65.914063 C 195.375 60.5625 206.289063 52.429688 215.28125 45.792969 L 215.925781 45.152344 C 230.90625 34.019531 243.753906 24.386719 274.789063 24.386719 C 305.828125 24.386719 318.246094 34.019531 333.230469 45.152344 L 333.871094 45.792969 C 342.859375 52.429688 353.777344 60.5625 368.761719 65.914063 C 389.3125 73.191406 404.082031 75.546875 423.5625 77.902344 Z M 141.863281 118.386719 C 143.363281 117.078125 144.859375 115.808594 146.144531 114.722656 C 147.429688 113.667969 148.929688 112.578125 150.214844 111.527344 C 153.851563 108.734375 157.917969 105.9375 161.984375 103.183594 C 163.269531 102.3125 164.769531 101.441406 166.265625 100.386719 C 198.589844 80.464844 238.0625 70.8125 274.667969 70.8125 C 311.269531 70.8125 350.660156 80.429688 382.980469 100.351563 C 384.480469 101.402344 385.980469 102.273438 387.261719 103.144531 C 391.328125 105.902344 395.398438 108.699219 399.035156 111.492188 C 400.320313 112.542969 401.820313 113.632813 403.101563 114.683594 C 404.386719 115.773438 405.886719 117.042969 407.386719 118.351563 L 379.34375 145.746094 C 377.84375 144.441406 376.558594 143.386719 375.0625 142.300781 C 373.777344 141.246094 372.492188 140.378906 371.210938 139.324219 C 367.140625 136.527344 363.074219 133.953125 359.007813 131.378906 C 357.296875 130.542969 355.796875 129.671875 354.296875 128.835938 C 329.894531 115.992188 301.210938 109.785156 274.667969 109.785156 C 248.125 109.785156 219.355469 116.027344 194.949219 128.871094 C 193.453125 129.707031 191.953125 130.578125 190.242188 131.414063 C 186.175781 133.988281 182.109375 136.566406 178.039063 139.359375 C 176.757813 140.410156 175.472656 141.28125 174.1875 142.335938 C 172.6875 143.425781 171.40625 144.476563 169.90625 145.78125 Z M 361.699219 138.269531 L 343.074219 156.675781 C 322.738281 145.117188 299.40625 138.695313 274.574219 138.695313 C 249.746094 138.695313 226.414063 145.117188 206.078125 156.675781 L 187.453125 138.269531 C 189.167969 137.195313 190.664063 136.128906 192.378906 135.269531 C 193.875 134.414063 195.375 133.558594 197.085938 132.703125 C 220.632813 120.074219 248.675781 114.078125 274.574219 114.078125 C 300.476563 114.078125 328.519531 120.074219 352.066406 132.703125 C 353.777344 133.558594 355.277344 134.414063 356.773438 135.269531 C 358.488281 136.128906 359.984375 137.195313 361.699219 138.269531 Z M 187.273438 169.570313 L 182.363281 173.929688 L 154.03125 145.425781 L 158.5625 140.894531 Z M 151.144531 148.367188 L 179.472656 176.703125 L 174.5625 181.230469 L 146.609375 152.894531 Z M 143.625 156.023438 L 171.578125 184.363281 L 167.425781 189.058594 L 139.09375 160.550781 Z M 139.234375 396.207031 L 167.566406 367.699219 L 171.722656 372.394531 L 143.769531 400.734375 Z M 151.285156 408.390625 L 146.75 403.863281 L 174.703125 375.527344 L 179.617188 380.054688 Z M 182.503906 382.828125 L 187.414063 387.1875 L 158.707031 415.859375 L 154.171875 411.332031 Z M 446.058594 476.726563 C 453.761719 483.585938 445.414063 493.453125 435.78125 494.722656 C 411.164063 497.300781 396.609375 499.441406 374.773438 507.132813 C 339.453125 519.761719 332.09375 549.699219 274.9375 549.480469 C 217.785156 549.699219 210.078125 519.726563 174.757813 507.097656 C 152.925781 499.40625 138.367188 497.265625 113.75 494.6875 C 104.117188 493.417969 95.769531 483.546875 103.476563 476.691406 L 139.222656 441.601563 C 140.722656 443.089844 142.21875 444.394531 143.71875 445.445313 C 145.003906 446.535156 146.289063 447.585938 147.570313 448.457031 C 148.214844 448.894531 148.855469 449.074219 149.285156 449.511719 L 116.320313 482.058594 C 140.507813 484.855469 156.132813 486.777344 179.039063 494.90625 C 193.808594 500.238281 204.511719 508.1875 213.503906 515.007813 C 228.914063 526.367188 242.613281 536.636719 274.9375 536.636719 C 307.261719 536.636719 320.617188 526.402344 336.03125 515.046875 C 345.019531 508.222656 355.722656 500.277344 370.492188 494.941406 C 393.398438 486.8125 409.023438 484.890625 433.214844 482.097656 L 400.246094 449.546875 C 400.675781 449.109375 401.320313 448.929688 401.960938 448.496094 C 403.246094 447.621094 404.527344 446.570313 405.8125 445.480469 C 407.3125 444.429688 408.8125 443.125 410.308594 441.636719 Z M 152.917969 452.308594 C 155.058594 454.023438 157.199219 455.519531 159.769531 457.019531 C 161.054688 458.089844 162.550781 458.945313 164.050781 460.015625 C 197.230469 480.351563 237.472656 490.199219 274.71875 490.199219 C 311.964844 490.199219 352.207031 480.351563 385.386719 460.015625 C 386.886719 458.945313 388.382813 458.089844 389.667969 457.019531 C 392.238281 455.519531 394.378906 454.023438 396.519531 452.308594 L 423.703125 478.851563 C 404.222656 481.207031 389.453125 483.5625 368.902344 490.839844 C 353.921875 496.191406 343.003906 504.328125 334.011719 510.960938 L 333.371094 511.605469 C 318.386719 522.734375 305.972656 532.367188 274.933594 532.367188 C 243.894531 532.367188 231.050781 522.734375 216.066406 511.605469 L 215.421875 510.960938 C 206.433594 504.328125 195.515625 496.191406 180.53125 490.839844 C 159.980469 483.5625 145.210938 481.207031 125.734375 478.851563 Z M 407.527344 438.40625 C 406.027344 439.714844 404.527344 440.984375 403.246094 442.070313 C 401.960938 443.125 400.464844 444.210938 399.179688 445.265625 C 395.539063 448.058594 391.472656 450.851563 387.40625 453.609375 C 386.121094 454.480469 384.621094 455.351563 383.121094 456.40625 C 350.800781 476.328125 311.414063 485.941406 274.808594 485.941406 C 238.203125 485.941406 198.730469 476.289063 166.410156 456.367188 C 164.910156 455.316406 163.410156 454.445313 162.128906 453.574219 C 158.0625 450.816406 153.992188 448.023438 150.355469 445.226563 C 149.070313 444.175781 147.570313 443.089844 146.289063 442.035156 C 145.003906 440.945313 143.503906 439.675781 142.007813 438.371094 L 170.046875 410.972656 C 171.546875 412.28125 172.832031 413.332031 174.328125 414.421875 C 175.613281 415.472656 176.898438 416.34375 178.183594 417.394531 C 182.25 420.191406 186.316406 422.765625 190.382813 425.34375 C 192.097656 426.179688 193.59375 427.046875 195.09375 427.882813 C 219.496094 440.730469 248.265625 446.96875 274.808594 446.96875 C 301.351563 446.96875 330.035156 440.765625 354.4375 427.921875 C 355.9375 427.085938 357.4375 426.214844 359.148438 425.378906 C 363.214844 422.804688 367.28125 420.226563 371.351563 417.433594 C 372.636719 416.378906 373.917969 415.507813 375.203125 414.457031 C 376.703125 413.367188 377.984375 412.316406 379.484375 411.011719 Z M 187.597656 418.488281 L 206.21875 400.078125 C 226.554688 411.640625 249.886719 418.0625 274.71875 418.0625 C 299.550781 418.0625 322.882813 411.640625 343.21875 400.078125 L 361.839844 418.488281 C 360.128906 419.558594 358.628906 420.628906 356.917969 421.484375 C 355.417969 422.34375 353.921875 423.199219 352.207031 424.054688 C 328.660156 436.683594 300.621094 442.675781 274.71875 442.675781 C 248.816406 442.675781 220.773438 436.683594 197.230469 424.054688 C 195.515625 423.199219 194.019531 422.34375 192.519531 421.484375 C 190.808594 420.628906 189.308594 419.558594 187.597656 418.488281 Z M 362.117188 387.234375 L 367.027344 382.875 L 395.359375 411.378906 L 390.824219 415.90625 Z M 398.246094 408.4375 L 369.914063 380.101563 L 374.824219 375.574219 L 402.78125 403.910156 Z M 405.761719 400.78125 L 377.808594 372.441406 L 381.964844 367.746094 L 410.296875 396.253906 Z M 499.558594 378.710938 C 491.851563 400.519531 489.710938 415.070313 487.144531 439.925781 C 485.859375 449.324219 476.011719 457.671875 469.378906 449.980469 L 380.96875 361.148438 C 373.265625 370.980469 364.488281 379.761719 354.640625 387.058594 L 376.261719 408.246094 C 374.761719 409.300781 373.90625 410.171875 372.621094 411.007813 C 371.335938 412.09375 370.050781 412.929688 368.769531 413.800781 C 367.910156 414.453125 366.628906 415.507813 365.984375 416.160156 L 343.722656 394.53125 C 323.386719 406.941406 299.96875 413.765625 274.710938 413.765625 C 249.449219 413.765625 226.117188 406.90625 205.78125 394.496094 L 183.519531 416.121094 C 182.878906 415.46875 181.59375 414.417969 180.738281 413.765625 C 179.453125 412.894531 178.167969 412.058594 176.886719 410.96875 C 175.601563 410.136719 174.742188 409.265625 173.246094 408.210938 L 194.867188 387.019531 C 185.019531 379.726563 176.242188 370.945313 168.535156 361.113281 L 80.128906 449.941406 C 73.492188 457.636719 63.648438 449.289063 62.363281 439.890625 C 59.792969 415.035156 57.652344 400.484375 49.949219 378.675781 C 37.316406 343.328125 6.921875 335.636719 7.136719 278.484375 C 6.921875 221.332031 37.1875 213.421875 49.820313 178.078125 C 57.523438 156.269531 59.664063 141.71875 62.234375 116.863281 C 63.519531 107.464844 73.363281 99.117188 80 106.8125 L 168.40625 195.640625 C 176.113281 185.808594 184.890625 177.027344 194.738281 169.734375 L 173.117188 148.539063 C 174.617188 147.488281 175.472656 146.617188 176.757813 145.78125 C 178.039063 144.695313 179.324219 143.859375 180.609375 142.988281 C 181.464844 142.335938 182.75 141.28125 183.390625 140.628906 L 205.652344 162.257813 C 225.988281 149.847656 249.324219 142.988281 274.582031 142.988281 C 299.839844 142.988281 323.257813 149.8125 343.59375 162.222656 L 365.855469 140.59375 C 366.5 141.246094 367.78125 142.300781 368.640625 142.953125 C 369.925781 143.824219 371.210938 144.65625 372.492188 145.746094 C 373.777344 146.582031 374.632813 147.453125 376.132813 148.503906 L 354.511719 169.695313 C 364.359375 176.988281 373.136719 185.769531 380.839844 195.605469 L 469.246094 106.773438 C 475.882813 99.082031 485.730469 107.425781 487.015625 116.824219 C 489.585938 141.683594 491.726563 156.234375 499.429688 178.042969 C 512.058594 213.386719 542.585938 221.371094 542.371094 278.523438 C 542.585938 335.675781 512.1875 343.367188 499.558594 378.710938 "/>
<path style=" stroke:none;fill-rule:nonzero;fill:rgb(0%,0%,0%);fill-opacity:1;" d="M 507.578125 217.027344 C 500.726563 208.027344 492.59375 197.320313 487.242188 182.335938 C 479.109375 159.4375 477.183594 143.796875 474.398438 119.8125 L 388.988281 207.191406 C 401.832031 227.949219 409.667969 252.585938 409.667969 278.496094 C 409.667969 304.40625 401.960938 328.789063 389.117188 349.546875 L 474.527344 436.925781 C 477.308594 412.941406 479.238281 397.300781 487.371094 374.402344 C 492.722656 359.417969 500.855469 348.710938 507.707031 339.714844 C 519.265625 324.546875 529.539063 310.609375 529.539063 278.496094 C 529.539063 246.382813 519.136719 232.195313 507.578125 217.027344 Z M 504.28125 337.175781 C 497.429688 346.164063 488.867188 357.296875 483.304688 372.921875 C 476.023438 393.472656 473.671875 408.242188 471.316406 427.507813 L 395.324219 348.519531 C 407.097656 327.96875 413.949219 303.78125 413.949219 278.523438 C 413.949219 253.261719 406.882813 228.859375 395.109375 208.308594 L 471.101563 129.320313 C 473.457031 148.585938 475.8125 163.355469 483.089844 183.90625 C 488.65625 199.535156 497.21875 210.664063 504.066406 219.65625 C 515.410156 234.640625 525.257813 247.695313 525.257813 278.523438 C 525.257813 309.347656 515.625 322.191406 504.28125 337.175781 "/>
<path style=" stroke:none;fill-rule:nonzero;fill:rgb(0%,0%,0%);fill-opacity:1;" d="M 160.273438 207.257813 L 74.863281 119.878906 C 72.078125 143.863281 70.152344 159.503906 62.019531 182.398438 C 56.667969 197.386719 48.53125 208.089844 41.683594 217.089844 C 30.125 232.257813 19.976563 246.339844 19.976563 278.453125 C 19.976563 310.566406 30.25 324.5 41.8125 339.667969 C 48.660156 348.667969 56.796875 359.371094 62.148438 374.359375 C 70.28125 397.257813 72.207031 412.894531 74.988281 436.882813 L 160.398438 349.503906 C 147.558594 328.746094 139.851563 304.359375 139.851563 278.453125 C 139.851563 252.542969 147.429688 228.011719 160.273438 207.257813 Z M 154.277344 348.492188 L 78.285156 427.480469 C 75.933594 408.214844 73.578125 393.445313 66.300781 372.898438 C 60.734375 357.269531 52.171875 346.140625 45.320313 337.148438 C 33.976563 322.164063 24.34375 309.320313 24.34375 278.496094 C 24.34375 247.671875 33.761719 234.613281 45.109375 219.628906 C 51.957031 210.640625 60.519531 199.507813 66.085938 183.882813 C 73.363281 163.332031 75.71875 148.5625 78.074219 129.296875 L 154.0625 208.285156 C 142.289063 228.835938 135.226563 253.238281 135.226563 278.496094 C 135.226563 303.753906 142.503906 327.945313 154.277344 348.492188 "/>
<path style=" stroke:none;fill-rule:nonzero;fill:rgb(0%,0%,0%);fill-opacity:1;" d="M 139.613281 210.28125 L 86.242188 154.832031 C 84.304688 165.089844 81.609375 175.488281 77.210938 187.828125 C 71.113281 204.988281 61.753906 217.230469 55.042969 226.117188 C 54.851563 226.355469 54.664063 226.542969 54.523438 226.78125 C 43.933594 240.773438 36.179688 251.316406 36.179688 278.496094 C 36.179688 305.585938 44.027344 315.890625 54.757813 330.023438 C 54.898438 330.214844 55.042969 330.449219 55.230469 330.640625 C 61.992188 339.527344 71.351563 351.769531 77.449219 368.929688 C 81.796875 381.269531 84.492188 391.667969 86.429688 401.972656 L 139.800781 346.476563 C 129.589844 326.101563 123.398438 302.84375 123.398438 278.496094 C 123.398438 254.246094 129.402344 230.75 139.613281 210.28125 "/>
<path style=" stroke:none;fill-rule:nonzero;fill:rgb(0%,0%,0%);fill-opacity:1;" d="M 494.628906 226.78125 C 494.488281 226.589844 494.347656 226.355469 494.15625 226.164063 C 487.398438 217.277344 478.039063 205.035156 471.9375 187.875 C 467.589844 175.535156 464.894531 165.136719 462.957031 154.832031 L 409.585938 210.328125 C 419.796875 230.796875 425.753906 254.246094 425.753906 278.542969 C 425.753906 302.746094 419.9375 326.054688 409.777344 346.523438 L 463.148438 401.972656 C 465.085938 391.714844 467.78125 381.316406 472.175781 368.976563 C 478.273438 351.816406 487.632813 339.574219 494.347656 330.6875 C 494.535156 330.449219 494.726563 330.261719 494.867188 330.023438 C 505.550781 315.9375 513.445313 305.585938 513.445313 278.542969 C 513.445313 251.457031 505.410156 240.960938 494.628906 226.78125 "/>
<path style=" stroke:none;fill-rule:nonzero;fill:rgb(0%,0%,0%);fill-opacity:1;" d="M 388.210938 316.101563 C 387.507813 314.828125 392.429688 310.460938 390.671875 306.824219 C 389.96875 305.550781 394.714844 301.1875 392.957031 297.546875 C 391.726563 295.183594 396.648438 290.636719 394.714844 287.546875 C 393.660156 285.546875 396.648438 280.269531 395.59375 278.269531 C 395.066406 276.269531 397.175781 269.722656 395.066406 267.539063 C 392.957031 265.175781 395.945313 258.992188 393.484375 256.445313 C 391.902344 254.988281 393.132813 248.441406 390.847656 246.078125 C 389.792969 244.984375 389.441406 237.53125 387.507813 236.4375 C 385.746094 235.527344 385.746094 229.164063 383.109375 226.800781 C 381.703125 225.527344 381.179688 220.070313 378.539063 218.433594 C 376.78125 217.160156 375.902344 210.976563 372.914063 209.519531 C 371.335938 208.609375 370.453125 202.609375 367.289063 201.519531 C 365.003906 200.609375 363.597656 194.605469 360.082031 193.695313 C 357.972656 193.152344 356.390625 187.878906 352.699219 186.785156 C 350.941406 186.421875 347.425781 180.238281 343.558594 180.238281 C 342.152344 180.238281 339.160156 174.238281 335.996094 174.601563 C 333.535156 174.78125 331.074219 168.78125 327.03125 169.507813 C 325.625 169.691406 320.703125 164.597656 318.066406 165.507813 C 316.484375 166.234375 311.914063 161.507813 308.925781 162.597656 C 306.464844 163.324219 301.539063 159.140625 299.078125 160.050781 C 296.796875 160.960938 292.574219 156.960938 289.058594 158.777344 C 287.300781 159.503906 281.675781 155.6875 278.160156 158.230469 C 277.457031 158.777344 270.425781 155.503906 267.964844 158.050781 C 266.558594 159.324219 260.230469 156.414063 257.769531 159.140625 C 257.066406 160.050781 248.097656 158.230469 246.691406 161.140625 C 246.164063 162.414063 237.550781 162.050781 236.320313 165.144531 C 235.617188 166.597656 228.761719 164.960938 227.003906 168.417969 C 226.300781 169.507813 218.214844 169.871094 217.511719 172.964844 C 216.984375 174.601563 209.246094 174.601563 208.71875 178.054688 C 208.546875 180.238281 201.335938 180.601563 201.160156 183.695313 C 201.160156 185.511719 193.601563 186.421875 193.601563 190.96875 C 193.601563 192.425781 186.570313 193.335938 186.570313 197.882813 C 186.570313 198.972656 179.1875 202.972656 179.714844 205.699219 C 180.066406 208.066406 173.734375 211.519531 174.4375 214.066406 C 174.789063 215.523438 168.8125 219.160156 169.515625 221.886719 C 169.867188 223.707031 164.066406 227.707031 164.945313 230.980469 C 165.296875 232.074219 160.375 238.074219 161.605469 240.4375 C 162.308594 241.710938 157.386719 246.078125 159.144531 249.714844 C 159.847656 250.988281 155.101563 255.355469 156.859375 258.992188 C 158.089844 261.355469 153.167969 265.902344 155.101563 268.992188 C 156.15625 270.996094 152.289063 276.632813 154.222656 278.269531 C 155.101563 279.542969 152.640625 286.816406 154.75 289 C 156.859375 291.363281 153.871094 297.546875 156.332031 300.09375 C 157.914063 301.550781 156.683594 308.097656 158.96875 310.460938 C 160.023438 311.554688 160.375 319.011719 162.308594 320.101563 C 164.066406 321.011719 164.066406 327.375 166.703125 329.738281 C 168.109375 331.011719 168.636719 336.46875 171.273438 338.105469 C 173.03125 339.378906 173.910156 345.5625 176.902344 347.019531 C 178.484375 347.929688 179.363281 353.929688 182.527344 355.019531 C 184.8125 355.929688 186.21875 361.933594 189.734375 362.84375 C 191.84375 363.386719 193.425781 368.660156 197.117188 369.753906 C 198.875 370.117188 202.390625 376.300781 206.257813 376.300781 C 207.664063 376.300781 210.652344 382.300781 213.816406 381.9375 C 216.28125 381.757813 218.738281 387.757813 222.785156 387.03125 C 224.191406 386.851563 229.113281 391.941406 231.75 391.03125 C 233.332031 390.304688 237.902344 395.035156 240.890625 393.941406 C 243.351563 393.214844 248.273438 397.398438 250.734375 396.488281 C 253.019531 395.578125 257.238281 399.578125 260.757813 397.761719 C 262.515625 397.035156 268.140625 400.855469 271.65625 398.308594 C 272.359375 397.761719 279.390625 401.035156 281.851563 398.488281 C 283.257813 397.214844 289.585938 400.125 292.046875 397.398438 C 292.753906 396.488281 301.71875 398.308594 303.121094 395.398438 C 303.652344 394.125 312.265625 394.488281 313.496094 391.394531 C 314.199219 389.941406 321.054688 391.578125 322.8125 388.121094 C 323.515625 387.03125 331.601563 386.667969 332.304688 383.574219 C 332.835938 381.9375 340.570313 381.9375 341.097656 378.484375 C 341.273438 376.300781 348.480469 375.9375 348.65625 372.84375 C 348.65625 371.027344 356.214844 370.117188 356.214844 365.570313 C 356.214844 364.113281 363.246094 363.203125 363.246094 358.660156 C 363.246094 357.566406 370.628906 353.566406 370.101563 350.839844 C 369.75 348.472656 376.078125 345.019531 375.378906 342.472656 C 375.023438 341.015625 381.003906 337.378906 380.300781 334.652344 C 379.949219 332.832031 385.746094 328.832031 384.871094 325.558594 C 384.519531 324.464844 389.441406 318.464844 388.210938 316.101563 Z M 390.804688 303.679688 C 390.492188 304.585938 389.109375 302.527344 387.566406 300.507813 C 385.503906 297.816406 384.703125 296.628906 384.042969 295.144531 C 383.523438 293.988281 383.574219 293.496094 383.507813 292.039063 C 383.386719 289.84375 383.5625 285.695313 384.332031 286.703125 C 386.472656 289.53125 387.761719 291.246094 390.378906 293.914063 C 392.480469 296.089844 391.457031 301.707031 390.804688 303.679688 Z M 392.460938 293.890625 C 392.207031 294.820313 390.691406 292.871094 389.023438 290.972656 C 386.792969 288.4375 385.914063 287.316406 385.15625 285.886719 C 384.566406 284.773438 384.585938 284.28125 384.425781 282.832031 C 384.257813 281.476563 384.160156 279.355469 384.308594 278.171875 C 386.628906 279.273438 388.878906 281.949219 391.398438 284.1875 C 393.640625 286.199219 392.980469 291.878906 392.460938 293.890625 Z M 393.714844 283.914063 C 393.542969 284.863281 391.871094 283.058594 390.046875 281.316406 C 388.601563 279.933594 387.257813 278.980469 386.542969 278.144531 C 382.167969 275.628906 383.550781 270.023438 384.535156 270.792969 C 387.269531 272.953125 388.921875 274.261719 392.082031 276.136719 C 392.828125 276.585938 393.230469 277.179688 393.609375 278.144531 C 393.988281 280.320313 393.914063 282.738281 393.714844 283.914063 Z M 394.542969 274.855469 C 394.519531 275.824219 392.597656 274.347656 390.535156 272.960938 C 387.777344 271.109375 386.664063 270.261719 385.597656 269.085938 C 384.757813 268.167969 384.664063 267.683594 384.167969 266.324219 C 383.394531 264.285156 382.328125 260.289063 383.359375 260.984375 C 386.230469 262.933594 387.960938 264.113281 391.234375 265.753906 C 393.878906 267.09375 394.574219 272.769531 394.542969 274.855469 Z M 393.207031 263.1875 C 393.332031 263.722656 393.34375 264.890625 392.566406 264.445313 L 387.464844 261.496094 C 384.019531 259.519531 383.492188 258.109375 382.289063 254.941406 C 381.953125 254.136719 381.027344 252.082031 381.460938 251.890625 C 381.507813 251.851563 387.636719 254.703125 390.53125 256.335938 C 391.269531 256.753906 391.824219 257.476563 392.035156 258.347656 Z M 391.492188 254.027344 C 391.605469 254.984375 389.492188 253.851563 387.253906 252.824219 C 384.261719 251.460938 383.039063 250.808594 381.808594 249.824219 C 380.851563 249.054688 380.6875 248.597656 379.992188 247.335938 C 378.941406 245.449219 377.296875 241.6875 378.417969 242.199219 C 381.539063 243.644531 383.425781 244.519531 386.894531 245.589844 C 389.695313 246.472656 391.21875 251.960938 391.492188 254.027344 Z M 388.457031 243.644531 C 388.664063 244.582031 386.453125 243.691406 384.121094 242.925781 C 381.015625 241.898438 379.738281 241.386719 378.414063 240.546875 C 377.390625 239.894531 377.179688 239.453125 376.367188 238.28125 C 375.136719 236.519531 373.136719 232.957031 374.300781 233.347656 C 377.539063 234.429688 379.503906 235.09375 383.0625 235.765625 C 385.9375 236.332031 387.984375 241.617188 388.457031 243.644531 Z M 385.003906 234.144531 C 385.269531 235.0625 383.003906 234.339844 380.632813 233.746094 C 377.464844 232.957031 376.15625 232.546875 374.78125 231.804688 C 373.714844 231.226563 373.480469 230.804688 372.589844 229.691406 C 371.246094 228.03125 369.019531 224.628906 370.207031 224.925781 C 373.515625 225.769531 375.511719 226.277344 379.105469 226.683594 C 382.007813 227.03125 384.394531 232.15625 385.003906 234.144531 Z M 380.78125 224.734375 C 381.136719 225.621094 378.8125 225.152344 376.394531 224.832031 C 373.167969 224.402344 371.824219 224.136719 370.390625 223.554688 C 369.273438 223.101563 368.992188 222.707031 368.003906 221.699219 C 366.503906 220.195313 363.960938 217.0625 365.167969 217.226563 C 368.535156 217.691406 370.574219 217.980469 374.1875 217.980469 C 377.109375 218 379.984375 222.828125 380.78125 224.734375 Z M 375.988281 216.234375 C 376.402344 217.089844 374.054688 216.800781 371.617188 216.660156 C 368.375 216.472656 367.015625 216.308594 365.546875 215.828125 C 364.40625 215.460938 364.097656 215.089844 363.046875 214.160156 C 361.453125 212.769531 358.707031 209.839844 359.925781 209.910156 C 363.316406 210.125 365.367188 210.257813 368.972656 209.988281 C 371.890625 209.792969 375.070313 214.394531 375.988281 216.234375 Z M 370.3125 207.898438 C 370.777344 208.722656 368.417969 208.609375 365.980469 208.648438 C 362.730469 208.703125 361.363281 208.644531 359.863281 208.277344 C 358.703125 207.996094 358.375 207.648438 357.269531 206.796875 C 355.585938 205.535156 352.65625 202.8125 353.875 202.789063 C 357.273438 202.746094 359.328125 202.730469 362.90625 202.195313 C 365.804688 201.777344 369.277344 206.128906 370.3125 207.898438 Z M 364.074219 199.875 C 364.597656 200.664063 362.230469 200.726563 359.804688 200.945313 C 356.5625 201.246094 355.199219 201.285156 353.683594 201.03125 C 352.5 200.839844 352.152344 200.519531 350.988281 199.753906 C 349.230469 198.613281 346.132813 196.121094 347.347656 196.007813 C 350.734375 195.714844 352.785156 195.539063 356.316406 194.738281 C 359.179688 194.105469 362.925781 198.1875 364.074219 199.875 Z M 357.046875 192.554688 C 357.613281 193.296875 355.261719 193.535156 352.855469 193.941406 C 349.640625 194.480469 348.28125 194.621094 346.753906 194.484375 C 345.566406 194.378906 345.195313 194.085938 343.984375 193.410156 C 342.15625 192.40625 338.902344 190.144531 340.105469 189.945313 C 343.464844 189.398438 345.496094 189.070313 348.96875 188.003906 C 351.785156 187.160156 355.789063 190.953125 357.046875 192.554688 Z M 349.40625 185.839844 C 350.023438 186.539063 347.695313 186.953125 345.320313 187.535156 C 342.148438 188.3125 340.800781 188.558594 339.265625 188.535156 C 338.074219 188.519531 337.683594 188.25 336.433594 187.664063 C 334.546875 186.804688 331.152344 184.796875 332.339844 184.503906 C 335.65625 183.707031 337.660156 183.226563 341.054688 181.90625 C 343.8125 180.851563 348.054688 184.335938 349.40625 185.839844 Z M 341.210938 179.832031 C 341.875 180.488281 339.574219 181.074219 337.242188 181.832031 C 334.132813 182.847656 332.804688 183.191406 331.269531 183.28125 C 330.078125 183.355469 329.675781 183.117188 328.390625 182.628906 C 326.449219 181.90625 322.933594 180.15625 324.097656 179.777344 C 327.355469 178.734375 329.324219 178.109375 332.625 176.535156 C 335.304688 175.28125 339.761719 178.4375 341.210938 179.832031 Z M 332.914063 174.035156 C 333.640625 174.609375 331.40625 175.453125 329.164063 176.46875 C 326.167969 177.824219 324.882813 178.316406 323.367188 178.578125 C 322.1875 178.785156 321.761719 178.59375 320.4375 178.25 C 318.4375 177.75 314.769531 176.402344 315.894531 175.894531 C 319.027344 174.496094 320.929688 173.648438 324.054688 171.71875 C 326.59375 170.167969 331.339844 172.808594 332.914063 174.035156 Z M 324.128906 169.671875 C 324.886719 170.191406 322.71875 171.199219 320.542969 172.378906 C 317.644531 173.957031 316.394531 174.542969 314.898438 174.914063 C 313.734375 175.207031 313.300781 175.050781 311.957031 174.808594 C 309.925781 174.460938 306.179688 173.390625 307.269531 172.800781 C 310.304688 171.167969 312.144531 170.183594 315.140625 168.023438 C 317.570313 166.285156 322.476563 168.566406 324.128906 169.671875 Z M 314.785156 165.800781 C 315.574219 166.265625 313.476563 167.433594 311.386719 168.773438 C 308.59375 170.5625 307.386719 171.238281 305.917969 171.726563 C 304.78125 172.105469 304.332031 171.980469 302.972656 171.839844 C 300.929688 171.644531 297.121094 170.855469 298.167969 170.183594 C 301.089844 168.328125 302.859375 167.210938 305.710938 164.828125 C 308.023438 162.914063 313.0625 164.824219 314.785156 165.800781 Z M 305.550781 163.148438 C 306.367188 163.550781 304.347656 164.871094 302.351563 166.363281 C 299.683594 168.359375 298.519531 169.121094 297.089844 169.71875 C 295.976563 170.183594 295.519531 170.089844 294.160156 170.050781 C 292.105469 170.007813 288.253906 169.507813 289.257813 168.761719 C 292.054688 166.691406 293.746094 165.441406 296.429688 162.851563 C 298.617188 160.773438 303.765625 162.300781 305.550781 163.148438 Z M 296.136719 160.808594 C 296.980469 161.152344 295.054688 162.617188 293.15625 164.257813 C 290.625 166.445313 289.515625 167.296875 288.128906 168 C 287.046875 168.542969 286.589844 168.488281 285.226563 168.546875 C 283.171875 168.660156 279.304688 168.449219 280.25 167.628906 C 282.90625 165.355469 284.515625 163.980469 287.023438 161.199219 C 289.070313 158.960938 294.304688 160.101563 296.136719 160.808594 Z M 286.460938 159.652344 C 287.324219 159.929688 285.496094 161.535156 283.710938 163.316406 C 281.332031 165.683594 280.277344 166.617188 278.9375 167.421875 C 277.898438 168.046875 277.4375 168.023438 276.078125 168.1875 C 274.039063 168.449219 270.164063 168.527344 271.058594 167.640625 C 273.558594 165.175781 275.070313 163.683594 277.394531 160.722656 C 279.289063 158.335938 284.589844 159.078125 286.460938 159.652344 Z M 267.171875 160.832031 C 268.964844 158.359375 274.289063 158.867188 276.1875 159.355469 C 277.0625 159.597656 275.292969 161.285156 273.585938 163.140625 C 271.296875 165.617188 270.28125 166.597656 268.972656 167.453125 C 267.953125 168.125 267.492188 168.121094 266.148438 168.351563 C 264.121094 168.703125 260.246094 168.957031 261.105469 168.027344 C 263.507813 165.453125 264.96875 163.898438 267.171875 160.832031 Z M 256.585938 162.21875 C 258.171875 159.585938 263.515625 159.597656 265.445313 159.902344 C 266.335938 160.0625 264.714844 161.90625 263.160156 163.917969 C 261.082031 166.597656 260.152344 167.667969 258.917969 168.644531 C 257.964844 169.40625 257.5 169.453125 256.179688 169.800781 C 254.1875 170.347656 250.347656 170.957031 251.128906 169.953125 C 253.308594 167.164063 254.640625 165.476563 256.585938 162.21875 Z M 254.96875 160.828125 C 255.871094 160.867188 254.472656 162.910156 253.164063 165.105469 C 251.402344 168.039063 250.597656 169.222656 249.488281 170.355469 C 248.625 171.234375 248.171875 171.335938 246.898438 171.859375 C 244.984375 172.65625 241.246094 173.765625 241.902344 172.671875 C 243.753906 169.617188 244.878906 167.769531 246.4375 164.277344 C 247.714844 161.460938 253.019531 160.773438 254.96875 160.828125 Z M 236.148438 167.636719 C 237.195313 164.714844 242.421875 163.53125 244.371094 163.402344 C 245.269531 163.355469 244.039063 165.523438 242.910156 167.835938 C 241.398438 170.921875 240.699219 172.175781 239.679688 173.414063 C 238.890625 174.371094 238.453125 174.515625 237.222656 175.148438 C 235.382813 176.121094 231.746094 177.574219 232.316406 176.421875 C 233.910156 173.203125 234.871094 171.261719 236.148438 167.636719 Z M 234.417969 166.996094 C 235.304688 166.851563 234.300781 169.140625 233.398438 171.5625 C 232.199219 174.804688 231.617188 176.128906 230.734375 177.46875 C 230.039063 178.511719 229.613281 178.699219 228.453125 179.476563 C 226.71875 180.652344 223.246094 182.5 223.699219 181.285156 C 224.96875 177.910156 225.742188 175.871094 226.652344 172.128906 C 227.40625 169.101563 232.492188 167.335938 234.417969 166.996094 Z M 217.871094 176.441406 C 218.421875 173.367188 223.382813 171.230469 225.277344 170.742188 C 226.15625 170.53125 225.300781 172.890625 224.5625 175.378906 C 223.574219 178.699219 223.085938 180.066406 222.285156 181.46875 C 221.660156 182.558594 221.25 182.78125 220.144531 183.640625 C 218.488281 184.941406 215.148438 187.046875 215.519531 185.800781 C 216.566406 182.339844 217.199219 180.246094 217.871094 176.441406 Z M 209.171875 181.921875 C 209.320313 178.800781 213.953125 175.941406 215.769531 175.175781 C 216.609375 174.835938 216.070313 177.300781 215.660156 179.871094 C 215.117188 183.308594 214.804688 184.734375 214.195313 186.242188 C 213.722656 187.421875 213.34375 187.699219 212.355469 188.714844 C 210.886719 190.246094 207.851563 192.835938 208.058594 191.546875 C 208.644531 187.960938 209.007813 185.789063 209.171875 181.921875 Z M 201.570313 187.929688 C 201.46875 184.800781 205.847656 181.519531 207.597656 180.589844 C 208.40625 180.179688 208.066406 182.679688 207.867188 185.28125 C 207.605469 188.753906 207.414063 190.203125 206.925781 191.761719 C 206.550781 192.976563 206.195313 193.292969 205.296875 194.394531 C 203.957031 196.058594 201.144531 198.917969 201.246094 197.617188 C 201.539063 193.988281 201.71875 191.796875 201.570313 187.929688 Z M 200.0625 186.542969 C 200.84375 186.066406 200.671875 188.589844 200.640625 191.203125 C 200.601563 194.6875 200.507813 196.144531 200.121094 197.742188 C 199.828125 198.976563 199.496094 199.324219 198.667969 200.480469 C 197.445313 202.25 194.824219 205.308594 194.839844 204.003906 C 194.894531 200.359375 194.929688 198.160156 194.527344 194.316406 C 194.226563 191.199219 198.382813 187.597656 200.0625 186.542969 Z M 192.652344 193.257813 C 193.382813 192.691406 193.460938 195.226563 193.683594 197.824219 C 193.988281 201.292969 194.027344 202.753906 193.804688 204.382813 C 193.636719 205.648438 193.335938 206.027344 192.632813 207.273438 C 191.582031 209.171875 189.269531 212.503906 189.164063 211.203125 C 188.863281 207.578125 188.6875 205.382813 187.914063 201.605469 C 187.300781 198.539063 191.085938 194.496094 192.652344 193.257813 Z M 185.742188 200.316406 C 186.414063 199.675781 186.738281 202.1875 187.214844 204.742188 C 187.851563 208.160156 188.042969 209.609375 187.976563 211.253906 C 187.929688 212.53125 187.664063 212.941406 187.089844 214.261719 C 186.230469 216.265625 184.257813 219.839844 184.019531 218.5625 C 183.371094 214.984375 182.980469 212.820313 181.84375 209.152344 C 180.9375 206.171875 184.308594 201.730469 185.742188 200.316406 Z M 179.351563 209.050781 C 179.957031 208.335938 180.519531 210.800781 181.246094 213.289063 C 182.214844 216.621094 182.546875 218.035156 182.640625 219.675781 C 182.714844 220.957031 182.496094 221.390625 182.054688 222.765625 C 181.390625 224.855469 179.777344 228.636719 179.417969 227.386719 C 178.425781 223.90625 177.824219 221.796875 176.335938 218.273438 C 175.140625 215.414063 178.058594 210.613281 179.351563 209.050781 Z M 173.78125 217.046875 C 174.3125 216.269531 175.113281 218.652344 176.078125 221.050781 C 177.367188 224.25 177.835938 225.625 178.085938 227.246094 C 178.289063 228.511719 178.113281 228.964844 177.804688 230.390625 C 177.351563 232.539063 176.117188 236.476563 175.636719 235.277344 C 174.308594 231.925781 173.503906 229.894531 171.679688 226.558594 C 170.21875 223.847656 172.648438 218.746094 173.78125 217.046875 Z M 169.078125 225.390625 C 169.5625 224.578125 170.515625 226.894531 171.632813 229.214844 C 173.121094 232.308594 173.679688 233.644531 174.039063 235.246094 C 174.320313 236.488281 174.175781 236.960938 173.960938 238.398438 C 173.648438 240.574219 172.675781 244.601563 172.117188 243.4375 C 170.574219 240.195313 169.640625 238.230469 167.601563 235.035156 C 165.964844 232.4375 168.058594 227.171875 169.078125 225.390625 Z M 164.921875 233.828125 C 165.347656 232.976563 166.449219 235.21875 167.714844 237.449219 C 169.40625 240.425781 170.046875 241.714844 170.507813 243.285156 C 170.875 244.5 170.757813 244.984375 170.632813 246.4375 C 170.46875 248.632813 169.757813 252.71875 169.125 251.597656 C 167.375 248.480469 166.316406 246.585938 164.074219 243.554688 C 162.273438 241.085938 164.019531 235.675781 164.921875 233.828125 Z M 161.691406 243.058594 C 162.058594 242.171875 163.304688 244.324219 164.710938 246.457031 C 166.59375 249.304688 167.316406 250.546875 167.882813 252.074219 C 168.324219 253.261719 168.238281 253.746094 168.210938 255.210938 C 168.1875 257.410156 167.742188 261.535156 167.042969 260.46875 C 165.089844 257.488281 163.914063 255.683594 161.480469 252.824219 C 159.519531 250.5 160.910156 244.972656 161.691406 243.058594 Z M 159.101563 252.792969 C 159.414063 251.890625 160.800781 253.945313 162.339844 255.964844 C 164.40625 258.65625 165.207031 259.84375 165.867188 261.328125 C 166.386719 262.484375 166.335938 262.972656 166.402344 264.433594 C 166.523438 266.628906 166.347656 270.777344 165.578125 269.769531 C 163.4375 266.941406 162.144531 265.226563 159.53125 262.558594 C 157.429688 260.382813 158.453125 254.765625 159.101563 252.792969 Z M 157.414063 262.664063 C 157.667969 261.738281 159.179688 263.683594 160.847656 265.585938 C 163.078125 268.117188 163.957031 269.238281 164.714844 270.671875 C 165.308594 271.785156 165.285156 272.277344 165.449219 273.726563 C 165.613281 275.082031 165.714844 277.203125 165.5625 278.382813 C 163.585938 276.164063 160.992188 274.605469 158.472656 272.371094 C 156.230469 270.359375 156.894531 264.675781 157.414063 262.664063 Z M 156.167969 272.632813 C 156.339844 271.683594 158.011719 273.484375 159.835938 275.230469 C 161.28125 276.609375 163.71875 277.316406 164.433594 278.152344 C 164.8125 278.738281 164.585938 279.324219 164.890625 280.367188 C 165.523438 282.457031 166.332031 286.519531 165.347656 285.753906 C 162.613281 283.59375 160.960938 282.285156 157.804688 280.410156 C 157.054688 279.957031 156.601563 279.320313 156.191406 278.34375 C 155.824219 276.1875 155.96875 273.808594 156.167969 272.632813 Z M 155.316406 281.660156 C 155.34375 280.695313 157.265625 282.171875 159.328125 283.558594 C 162.082031 285.410156 163.195313 286.257813 164.265625 287.4375 C 165.101563 288.351563 165.195313 288.835938 165.691406 290.195313 C 166.464844 292.234375 167.535156 296.230469 166.503906 295.535156 C 163.632813 293.589844 161.898438 292.40625 158.628906 290.765625 C 155.984375 289.425781 155.285156 283.75 155.316406 281.660156 Z M 156.605469 293.285156 C 156.484375 292.753906 156.46875 291.585938 157.246094 292.027344 L 162.351563 294.976563 C 165.792969 296.953125 166.320313 298.363281 167.527344 301.53125 C 167.863281 302.335938 168.789063 304.390625 168.351563 304.585938 C 168.304688 304.621094 162.175781 301.769531 159.285156 300.136719 C 158.542969 299.722656 157.988281 298.996094 157.777344 298.125 Z M 158.320313 302.492188 C 158.207031 301.535156 160.320313 302.671875 162.5625 303.695313 C 165.550781 305.0625 166.773438 305.710938 168.003906 306.695313 C 168.960938 307.464844 169.128906 307.921875 169.820313 309.183594 C 170.875 311.070313 172.519531 314.832031 171.398438 314.320313 C 168.277344 312.878906 166.390625 312 162.917969 310.929688 C 160.121094 310.050781 158.59375 304.558594 158.320313 302.492188 Z M 161.355469 312.828125 C 161.148438 311.890625 163.363281 312.78125 165.691406 313.546875 C 168.800781 314.574219 170.078125 315.085938 171.398438 315.925781 C 172.425781 316.578125 172.636719 317.019531 173.445313 318.191406 C 174.679688 319.953125 176.679688 323.515625 175.515625 323.125 C 172.273438 322.042969 170.308594 321.382813 166.753906 320.710938 C 163.878906 320.140625 161.828125 314.855469 161.355469 312.828125 Z M 164.859375 322.328125 C 164.59375 321.410156 166.859375 322.132813 169.230469 322.726563 C 172.398438 323.515625 173.707031 323.929688 175.078125 324.671875 C 176.144531 325.246094 176.382813 325.667969 177.273438 326.78125 C 178.613281 328.441406 180.84375 331.84375 179.65625 331.546875 C 176.347656 330.703125 174.347656 330.191406 170.757813 329.785156 C 167.855469 329.4375 165.464844 324.316406 164.859375 322.328125 Z M 169.035156 331.644531 C 168.679688 330.757813 171 331.226563 173.421875 331.546875 C 176.648438 331.976563 177.988281 332.242188 179.425781 332.824219 C 180.539063 333.277344 180.820313 333.671875 181.8125 334.679688 C 183.308594 336.183594 185.855469 339.3125 184.648438 339.152344 C 181.277344 338.683594 179.238281 338.398438 175.628906 338.398438 C 172.703125 338.378906 169.828125 333.550781 169.035156 331.644531 Z M 173.871094 340.144531 C 173.460938 339.289063 175.808594 339.578125 178.242188 339.71875 C 181.488281 339.90625 182.847656 340.070313 184.316406 340.550781 C 185.457031 340.914063 185.761719 341.285156 186.816406 342.214844 C 188.410156 343.605469 191.152344 346.539063 189.933594 346.46875 C 186.546875 346.253906 184.492188 346.121094 180.890625 346.386719 C 177.972656 346.585938 174.789063 341.984375 173.871094 340.144531 Z M 179.550781 348.527344 C 179.082031 347.703125 181.445313 347.816406 183.882813 347.777344 C 187.132813 347.722656 188.496094 347.78125 189.996094 348.148438 C 191.160156 348.429688 191.488281 348.777344 192.59375 349.628906 C 194.277344 350.890625 197.207031 353.613281 195.988281 353.636719 C 192.585938 353.675781 190.53125 353.695313 186.957031 354.230469 C 184.058594 354.648438 180.585938 350.296875 179.550781 348.527344 Z M 185.785156 356.503906 C 185.265625 355.714844 187.632813 355.652344 190.058594 355.429688 C 193.296875 355.132813 194.664063 355.089844 196.179688 355.347656 C 197.359375 355.539063 197.710938 355.859375 198.871094 356.625 C 200.628906 357.761719 203.730469 360.257813 202.511719 360.367188 C 199.128906 360.660156 197.078125 360.839844 193.546875 361.640625 C 190.683594 362.273438 186.9375 358.191406 185.785156 356.503906 Z M 192.769531 363.871094 C 192.199219 363.128906 194.554688 362.886719 196.960938 362.484375 C 200.171875 361.945313 201.53125 361.804688 203.0625 361.941406 C 204.25 362.046875 204.621094 362.339844 205.828125 363.015625 C 207.660156 364.019531 210.914063 366.28125 209.710938 366.480469 C 206.347656 367.027344 204.316406 367.355469 200.84375 368.421875 C 198.03125 369.265625 194.023438 365.472656 192.769531 363.871094 Z M 200.410156 370.585938 C 199.789063 369.886719 202.121094 369.46875 204.496094 368.890625 C 207.664063 368.109375 209.011719 367.867188 210.546875 367.890625 C 211.742188 367.90625 212.128906 368.175781 213.382813 368.757813 C 215.269531 369.621094 218.660156 371.628906 217.476563 371.921875 C 214.15625 372.71875 212.152344 373.199219 208.757813 374.519531 C 206.003906 375.574219 201.761719 372.089844 200.410156 370.585938 Z M 208.601563 376.640625 C 207.941406 375.984375 210.238281 375.398438 212.574219 374.640625 C 215.683594 373.628906 217.011719 373.28125 218.542969 373.191406 C 219.738281 373.117188 220.140625 373.355469 221.425781 373.84375 C 223.367188 374.566406 226.882813 376.316406 225.714844 376.695313 C 222.460938 377.738281 220.488281 378.363281 217.1875 379.9375 C 214.511719 381.191406 210.054688 378.035156 208.601563 376.640625 Z M 216.945313 382.390625 C 216.222656 381.8125 218.453125 380.972656 220.699219 379.957031 C 223.691406 378.601563 224.980469 378.109375 226.496094 377.847656 C 227.671875 377.640625 228.101563 377.832031 229.425781 378.175781 C 231.425781 378.675781 235.09375 380.019531 233.96875 380.53125 C 230.835938 381.929688 228.933594 382.773438 225.808594 384.707031 C 223.269531 386.257813 218.523438 383.617188 216.945313 382.390625 Z M 225.6875 386.710938 C 224.929688 386.1875 227.097656 385.179688 229.269531 383.996094 C 232.167969 382.421875 233.421875 381.835938 234.917969 381.464844 C 236.078125 381.171875 236.515625 381.328125 237.855469 381.570313 C 239.890625 381.917969 243.636719 382.988281 242.546875 383.578125 C 239.511719 385.210938 237.671875 386.195313 234.675781 388.355469 C 232.242188 390.09375 227.339844 387.8125 225.6875 386.710938 Z M 235.078125 390.625 C 234.285156 390.160156 236.386719 388.992188 238.476563 387.652344 C 241.269531 385.863281 242.476563 385.183594 243.941406 384.699219 C 245.082031 384.320313 245.53125 384.445313 246.886719 384.589844 C 248.933594 384.78125 252.738281 385.570313 251.695313 386.242188 C 248.769531 388.097656 247 389.214844 244.152344 391.597656 C 241.835938 393.511719 236.796875 391.601563 235.078125 390.625 Z M 244.265625 393.277344 C 243.449219 392.875 245.464844 391.554688 247.464844 390.0625 C 250.132813 388.066406 251.296875 387.304688 252.726563 386.710938 C 253.839844 386.242188 254.292969 386.335938 255.652344 386.375 C 257.710938 386.417969 261.558594 386.917969 260.558594 387.664063 C 257.757813 389.734375 256.070313 390.984375 253.386719 393.574219 C 251.195313 395.652344 246.050781 394.125 244.265625 393.277344 Z M 253.722656 395.570313 C 252.882813 395.226563 254.808594 393.761719 256.703125 392.121094 C 259.234375 389.929688 260.347656 389.082031 261.734375 388.378906 C 262.816406 387.835938 263.273438 387.890625 264.636719 387.828125 C 266.6875 387.71875 270.558594 387.929688 269.609375 388.75 C 266.953125 391.023438 265.347656 392.394531 262.839844 395.179688 C 260.792969 397.417969 255.558594 396.277344 253.722656 395.570313 Z M 263.398438 396.726563 C 262.539063 396.449219 264.363281 394.84375 266.148438 393.0625 C 268.53125 390.691406 269.585938 389.761719 270.925781 388.960938 C 271.964844 388.332031 272.425781 388.355469 273.78125 388.191406 C 275.820313 387.925781 279.699219 387.851563 278.804688 388.738281 C 276.304688 391.203125 274.789063 392.695313 272.46875 395.65625 C 270.574219 398.042969 265.273438 397.300781 263.398438 396.726563 Z M 282.691406 395.59375 C 280.898438 398.0625 275.574219 397.558594 273.675781 397.070313 C 272.800781 396.828125 274.566406 395.140625 276.277344 393.28125 C 278.566406 390.808594 279.582031 389.828125 280.890625 388.972656 C 281.90625 388.300781 282.367188 388.300781 283.714844 388.074219 C 285.738281 387.71875 289.613281 387.46875 288.757813 388.398438 C 286.355469 390.972656 284.894531 392.523438 282.691406 395.59375 Z M 293.230469 394.207031 C 291.644531 396.839844 286.296875 396.828125 284.367188 396.523438 C 283.480469 396.363281 285.101563 394.515625 286.652344 392.507813 C 288.730469 389.828125 289.664063 388.757813 290.894531 387.78125 C 291.851563 387.015625 292.3125 386.972656 293.636719 386.625 C 295.628906 386.078125 299.464844 385.46875 298.6875 386.472656 C 296.503906 389.261719 295.175781 390.949219 293.230469 394.207031 Z M 294.84375 395.597656 C 293.941406 395.558594 295.339844 393.515625 296.652344 391.320313 C 298.414063 388.386719 299.214844 387.203125 300.328125 386.070313 C 301.191406 385.191406 301.644531 385.089844 302.917969 384.566406 C 304.828125 383.769531 308.570313 382.660156 307.910156 383.757813 C 306.0625 386.808594 304.9375 388.65625 303.378906 392.148438 C 302.101563 394.964844 296.792969 395.652344 294.84375 395.597656 Z M 313.664063 388.789063 C 312.621094 391.710938 307.394531 392.894531 305.445313 393.023438 C 304.546875 393.066406 305.773438 390.902344 306.902344 388.589844 C 308.417969 385.507813 309.117188 384.25 310.136719 383.011719 C 310.921875 382.054688 311.363281 381.910156 312.59375 381.277344 C 314.433594 380.304688 318.066406 378.847656 317.5 380.007813 C 315.90625 383.222656 314.941406 385.164063 313.664063 388.789063 Z M 315.394531 389.382813 C 314.511719 389.527344 315.515625 387.238281 316.414063 384.8125 C 317.617188 381.574219 318.199219 380.253906 319.082031 378.90625 C 319.773438 377.867188 320.199219 377.675781 321.359375 376.902344 C 323.097656 375.726563 326.570313 373.878906 326.113281 375.09375 C 324.84375 378.464844 324.070313 380.507813 323.160156 384.253906 C 322.410156 387.277344 317.324219 389.042969 315.394531 389.382813 Z M 331.945313 380.03125 C 331.390625 383.105469 326.433594 385.242188 324.535156 385.730469 C 323.660156 385.941406 324.511719 383.582031 325.253906 381.097656 C 326.238281 377.773438 326.730469 376.40625 327.527344 375.003906 C 328.152344 373.914063 328.5625 373.691406 329.671875 372.832031 C 331.328125 371.53125 334.664063 369.425781 334.296875 370.671875 C 333.246094 374.132813 332.613281 376.226563 331.945313 380.03125 Z M 340.640625 374.457031 C 340.492188 377.578125 335.863281 380.4375 334.046875 381.203125 C 333.203125 381.546875 333.742188 379.078125 334.15625 376.503906 C 334.695313 373.066406 335.011719 371.644531 335.617188 370.132813 C 336.09375 368.957031 336.472656 368.679688 337.460938 367.664063 C 338.929688 366.132813 341.964844 363.542969 341.757813 364.832031 C 341.171875 368.414063 340.808594 370.589844 340.640625 374.457031 Z M 348.242188 368.445313 C 348.347656 371.578125 343.964844 374.855469 342.21875 375.789063 C 341.410156 376.199219 341.746094 373.699219 341.945313 371.097656 C 342.210938 367.625 342.398438 366.175781 342.890625 364.613281 C 343.265625 363.402344 343.617188 363.085938 344.515625 361.984375 C 345.859375 360.320313 348.671875 357.460938 348.566406 358.761719 C 348.273438 362.390625 348.09375 364.585938 348.242188 368.445313 Z M 349.800781 369.882813 C 349.019531 370.359375 349.191406 367.835938 349.222656 365.222656 C 349.261719 361.738281 349.355469 360.277344 349.738281 358.683594 C 350.03125 357.449219 350.367188 357.101563 351.191406 355.941406 C 352.414063 354.175781 355.039063 351.117188 355.023438 352.421875 C 354.96875 356.0625 354.929688 358.265625 355.332031 362.109375 C 355.636719 365.226563 351.480469 368.824219 349.800781 369.882813 Z M 349.421875 355.316406 C 349.1875 357.230469 343.296875 357.707031 342.835938 361.171875 C 342.488281 363.445313 335.671875 363.324219 335.097656 367.386719 C 334.75 369.777344 328.972656 368.105469 327.355469 372.289063 C 326.199219 375.277344 320.308594 373.007813 319.152344 376.113281 C 318.113281 379.101563 311.296875 376.828125 310.027344 380.414063 C 309.101563 383.046875 303.671875 378.863281 301.363281 382.925781 C 299.976563 385.4375 296.28125 381.371094 292.351563 385.195313 C 289.925781 387.824219 285.882813 383.164063 282.414063 386.035156 C 279.761719 388.183594 276.0625 384.480469 273.40625 386.035156 C 270.863281 387.824219 266.589844 384.480469 263.933594 386.035156 C 261.621094 387.46875 259.773438 383.285156 257 384.480469 C 252.265625 386.511719 250.183594 381.851563 246.71875 382.925781 C 242.675781 384.480469 241.984375 378.621094 238.632813 379.699219 C 235.167969 380.894531 234.242188 375.035156 230.660156 376.589844 C 227.3125 378.023438 226.15625 371.929688 221.765625 372.289063 C 217.492188 372.648438 217.492188 366.671875 214.027344 366.910156 C 210.675781 367.269531 209.058594 360.21875 206.285156 360.816406 C 203.050781 361.53125 202.589844 353.644531 199.355469 354.121094 C 196.8125 354.480469 196.582031 348.027344 193.117188 347.546875 C 191.382813 347.308594 189.535156 340.617188 187.800781 340.378906 C 185.605469 340.257813 186.414063 333.445313 182.71875 332.609375 C 180.40625 332.132813 181.5625 326.273438 179.023438 325.316406 C 176.710938 324.480469 177.289063 317.90625 174.863281 316.355469 C 172.785156 315.039063 174.285156 308.945313 171.28125 307.390625 C 168.164063 305.71875 171.859375 300.9375 169.664063 298.785156 C 168.046875 297.589844 170.703125 292.929688 167.816406 289.34375 C 166.082031 287.191406 168.855469 282.890625 166.777344 279.660156 C 166.546875 279.304688 166.429688 278.824219 166.546875 278.226563 C 167.007813 276.914063 168.277344 275.71875 167.46875 274.523438 C 165.734375 272.132813 170.703125 267.949219 168.738281 265.082031 C 166.890625 262.332031 171.511719 259.703125 169.894531 256.355469 C 168.855469 253.964844 173.9375 251.8125 172.554688 248.46875 C 171.628906 245.957031 176.828125 241.65625 175.902344 238.667969 C 175.324219 236.515625 179.601563 234.605469 179.601563 231.617188 C 179.601563 228.746094 183.875 225.640625 183.757813 222.890625 C 183.644531 220.621094 189.304688 218.589844 188.84375 215.121094 C 188.609375 212.972656 193.578125 212.132813 194.386719 207.953125 C 194.847656 205.320313 200.046875 204.964844 200.507813 201.257813 C 200.742188 199.347656 206.632813 198.867188 207.09375 195.402344 C 207.441406 193.132813 214.257813 193.25 214.835938 189.1875 C 215.179688 186.796875 220.957031 188.46875 222.574219 184.285156 C 223.730469 181.300781 229.621094 183.570313 230.777344 180.460938 C 231.816406 177.472656 238.632813 179.746094 239.902344 176.160156 C 240.828125 173.53125 246.257813 177.714844 248.566406 173.648438 C 249.953125 171.140625 253.652344 175.203125 257.578125 171.378906 C 260.003906 168.75 264.046875 173.410156 267.515625 170.542969 C 270.171875 168.390625 273.867188 172.097656 276.523438 170.542969 C 279.066406 168.75 283.339844 172.097656 285.996094 170.542969 C 288.308594 169.109375 290.15625 173.289063 292.929688 172.097656 C 297.664063 170.0625 299.746094 174.726563 303.210938 173.648438 C 307.253906 172.097656 307.945313 177.953125 311.296875 176.875 C 314.761719 175.679688 315.6875 181.539063 319.269531 179.984375 C 322.617188 178.550781 323.773438 184.644531 328.164063 184.285156 C 332.4375 183.929688 332.4375 189.902344 335.902344 189.664063 C 339.253906 189.304688 340.871094 196.359375 343.644531 195.761719 C 346.878906 195.042969 347.339844 202.929688 350.574219 202.453125 C 353.117188 202.09375 353.347656 208.550781 356.8125 209.027344 C 358.546875 209.265625 360.394531 215.960938 362.128906 216.199219 C 364.324219 216.316406 363.515625 223.128906 367.210938 223.964844 C 369.523438 224.445313 368.367188 230.300781 370.90625 231.257813 C 373.21875 232.09375 372.640625 238.667969 375.066406 240.222656 C 377.144531 241.535156 375.644531 247.632813 378.648438 249.183594 C 381.769531 250.859375 378.070313 255.640625 380.265625 257.789063 C 381.882813 258.984375 379.226563 263.644531 382.113281 267.230469 C 383.847656 269.382813 380.613281 273.6875 382.574219 276.914063 C 383.039063 277.269531 382.460938 277.628906 382.34375 278.226563 C 381.882813 279.542969 381.652344 280.855469 382.460938 282.054688 C 384.195313 284.441406 379.226563 288.625 381.191406 291.492188 C 383.039063 294.242188 378.417969 296.871094 380.035156 300.21875 C 381.074219 302.609375 375.992188 304.761719 377.378906 308.105469 C 378.300781 310.617188 373.101563 314.921875 374.027344 317.90625 C 374.605469 320.058594 370.328125 321.972656 370.328125 324.960938 C 370.328125 327.828125 366.054688 330.933594 366.171875 333.683594 C 366.285156 335.953125 360.625 337.988281 361.089844 341.453125 C 361.320313 343.605469 356.351563 344.441406 355.542969 348.625 C 355.082031 351.253906 349.882813 351.613281 349.421875 355.316406 Z M 357.160156 363.171875 C 356.429688 363.734375 356.351563 361.199219 356.128906 358.601563 C 355.828125 355.132813 355.785156 353.671875 356.007813 352.042969 C 356.179688 350.777344 356.480469 350.398438 357.183594 349.152344 C 358.230469 347.253906 360.542969 343.921875 360.648438 345.222656 C 360.949219 348.847656 361.128906 351.042969 361.902344 354.820313 C 362.511719 357.886719 358.730469 361.929688 357.160156 363.171875 Z M 364.117188 356.0625 C 363.445313 356.703125 363.121094 354.191406 362.648438 351.632813 C 362.011719 348.21875 361.820313 346.769531 361.886719 345.125 C 361.933594 343.84375 362.195313 343.4375 362.773438 342.117188 C 363.628906 340.113281 365.601563 336.539063 365.839844 337.816406 C 366.488281 341.394531 366.882813 343.558594 368.019531 347.226563 C 368.925781 350.203125 365.554688 354.648438 364.117188 356.0625 Z M 370.511719 347.375 C 369.90625 348.089844 369.339844 345.625 368.613281 343.136719 C 367.648438 339.804688 367.316406 338.390625 367.222656 336.746094 C 367.144531 335.46875 367.363281 335.035156 367.808594 333.660156 C 368.472656 331.570313 370.082031 327.789063 370.445313 329.039063 C 371.4375 332.519531 372.035156 334.628906 373.523438 338.152344 C 374.71875 341.007813 371.800781 345.8125 370.511719 347.375 Z M 376.078125 339.425781 C 375.550781 340.203125 374.75 337.820313 373.785156 335.421875 C 372.496094 332.222656 372.027344 330.847656 371.773438 329.226563 C 371.574219 327.960938 371.75 327.507813 372.058594 326.082031 C 372.511719 323.933594 373.742188 319.996094 374.226563 321.195313 C 375.554688 324.546875 376.359375 326.578125 378.179688 329.914063 C 379.644531 332.625 377.214844 337.726563 376.078125 339.425781 Z M 380.828125 331.128906 C 380.347656 331.941406 379.390625 329.625 378.277344 327.308594 C 376.785156 324.210938 376.230469 322.875 375.871094 321.273438 C 375.589844 320.03125 375.730469 319.5625 375.949219 318.121094 C 376.257813 315.945313 377.234375 311.921875 377.792969 313.082031 C 379.335938 316.324219 380.269531 318.289063 382.308594 321.484375 C 383.941406 324.082031 381.847656 329.347656 380.828125 331.128906 Z M 384.941406 322.691406 C 384.515625 323.546875 383.410156 321.304688 382.148438 319.070313 C 380.457031 316.09375 379.816406 314.804688 379.351563 313.234375 C 378.988281 312.019531 379.105469 311.535156 379.230469 310.085938 C 379.390625 307.890625 380.105469 303.804688 380.738281 304.921875 C 382.488281 308.039063 383.546875 309.933594 385.789063 312.964844 C 387.589844 315.4375 385.84375 320.84375 384.941406 322.691406 Z M 385.101563 310.015625 C 383.21875 307.171875 382.5 305.929688 381.929688 304.398438 C 381.492188 303.210938 381.578125 302.726563 381.605469 301.265625 C 381.628906 299.0625 382.070313 294.9375 382.773438 296.003906 C 384.722656 298.984375 385.902344 300.789063 388.332031 303.648438 C 390.292969 305.972656 388.90625 311.503906 388.121094 313.414063 C 387.753906 314.300781 386.511719 312.148438 385.101563 310.015625 "/>
</g>
</svg>
