<?xml version="1.0" encoding="UTF-8"?>
<svg xmlns="http://www.w3.org/2000/svg" xmlns:xlink="http://www.w3.org/1999/xlink" width="358pt" height="720pt" viewBox="0 0 358 720" version="1.1">
<g id="surface1">
<path style=" stroke:none;fill-rule:nonzero;fill:rgb(0%,0%,0%);fill-opacity:1;" d="M 318.71875 261.164063 C 341.742188 233.320313 342.242188 214.484375 327.671875 177.871094 C 323.9375 168.492188 318.964844 169.628906 320.265625 180.160156 C 321.949219 193.777344 313.71875 231.414063 302.578125 238.140625 C 301.976563 238.503906 301.328125 237.660156 301.570313 237.015625 C 306.609375 223.671875 298.613281 210.535156 302.394531 197.945313 C 305.804688 186.601563 297.574219 164.460938 289.335938 143.144531 C 285.386719 132.9375 281.578125 122.609375 279.28125 111.398438 C 275.472656 93.636719 270.273438 78.761719 267.851563 66.042969 C 264.058594 46.117188 264.785156 27.8125 266.355469 7.328125 C 267.09375 -1.929688 263.199219 -2.484375 261.269531 6.273438 C 256.105469 32.382813 255.558594 68.703125 259.367188 89.15625 C 265.234375 120.65625 248.433594 157.222656 249.824219 179.542969 C 250.691406 191.535156 241.210938 204.3125 238.714844 216.046875 C 237.355469 221.304688 233.351563 219.980469 229.359375 218.480469 C 240.300781 181.519531 230.632813 145.265625 220.664063 111.570313 C 215.78125 95.0625 210.40625 95.632813 213.601563 113.300781 C 218.867188 142.414063 216.632813 176.449219 204.855469 200.902344 C 195.90625 219.480469 192.191406 213.667969 173.195313 216.734375 C 165.664063 203.5 162.515625 186.71875 155.546875 173.636719 C 150.644531 164.433594 146.769531 167.671875 149.402344 177.472656 C 152.945313 190.667969 152.816406 203.515625 153.507813 217.621094 C 150.605469 218.488281 145.988281 219.230469 143.242188 219.730469 C 142.878906 206.320313 139.4375 169.757813 125.269531 163.316406 C 123.0625 168.839844 123.527344 175.96875 123.535156 182.96875 C 123.546875 188.621094 122.773438 210.492188 116.785156 213.738281 C 114.226563 200.351563 118.886719 177.519531 121.851563 167.714844 C 126.777344 151.425781 113.949219 139.152344 112.042969 124.378906 C 108.453125 103.472656 99.722656 104.621094 102.355469 125.296875 C 103.066406 130.867188 104.238281 136.527344 103.054688 141.851563 C 99.847656 153.363281 92.644531 161.984375 86.851563 171.390625 C 78.945313 184.238281 75.859375 199.28125 77.125 212.625 C 77.929688 221.105469 78.359375 229.148438 69.609375 232.960938 C 67.699219 231.207031 66.703125 229.152344 65.453125 227.179688 C 59 219.171875 55.882813 221.246094 58.207031 230.097656 C 60.355469 238.289063 57.707031 240.667969 53.621094 248.242188 C 50.023438 254.914063 45.050781 260.699219 40.160156 266.53125 C 5.984375 307.277344 2.746094 344.429688 7.207031 391.710938 C -8.597656 414.132813 4.621094 478.78125 13.695313 501.789063 C 13.386719 507.226563 10.175781 511.695313 7.132813 516.039063 C -9.804688 540.230469 8.515625 595.210938 24.9375 597.226563 C 30.777344 597.941406 51.253906 606.054688 52.464844 606.832031 C 66.847656 616.089844 72.71875 631.023438 75.59375 647.367188 C 78.757813 665.359375 82.628906 675.734375 95.640625 687.488281 C 104.101563 695.128906 115.617188 701.28125 122.773438 709.214844 C 131.9375 721.902344 154.753906 719.730469 174.726563 719.167969 C 198.617188 718.496094 214.546875 720.109375 228.816406 710.476563 C 236.03125 705.605469 242.125 699.917969 250.324219 697.234375 C 268.046875 689.496094 277.574219 673.023438 278.320313 654.050781 C 279.242188 632.886719 283.414063 607.734375 304.878906 595.34375 C 318.335938 587.578125 334.96875 573.082031 337.058594 557.695313 C 339.574219 539.222656 336.222656 519.847656 333.195313 501.289063 C 352.316406 461.171875 356.773438 407.472656 357.484375 372.136719 C 358.441406 324.945313 348.628906 298.148438 318.71875 261.164063 Z M 307.175781 260.351563 C 310.894531 246.582031 322.871094 234.476563 326.695313 219.070313 C 326.886719 218.300781 327.480469 218.3125 327.574219 219.085938 C 329.617188 235.8125 318.875 249.128906 308.015625 260.800781 C 307.589844 261.257813 307.011719 260.953125 307.175781 260.351563 Z M 252.289063 305.691406 C 258.789063 293.480469 253.703125 278.78125 251.015625 258.347656 C 247.132813 228.871094 259.222656 206.644531 268.65625 186.160156 C 281.277344 158.761719 272.753906 134.53125 269.644531 109.496094 C 269.394531 107.484375 270.382813 107.28125 271.023438 109.226563 C 281.25 140.207031 297.476563 186.296875 290.511719 206 C 294.257813 215.234375 297.003906 230.464844 288.265625 238.949219 C 286.898438 240.171875 285.460938 241.320313 284.007813 242.441406 C 270.3125 253.03125 265.132813 261.039063 271.78125 274.707031 C 276.574219 284.558594 278.132813 290.011719 275.242188 297.855469 C 273.089844 303.699219 270.226563 309.328125 268.453125 315.125 C 263.734375 330.5625 272.660156 337.804688 285.246094 332.96875 C 294.5625 329.386719 301.691406 321.570313 305.097656 311.996094 C 305.234375 311.613281 305.808594 311.699219 305.945313 312.140625 C 309.9375 325.023438 301.902344 344.601563 287.449219 358.726563 C 281.582031 364.464844 275.167969 369.503906 269.546875 377.234375 C 270.792969 387.71875 265.800781 393.957031 262.308594 402.445313 C 260.007813 408.050781 267.550781 413.152344 273.203125 408.457031 C 278.792969 403.808594 284.296875 392.402344 283.273438 407.9375 C 280.277344 425.160156 263.804688 434.394531 258.8125 449.871094 C 260.558594 462.601563 267.699219 491.570313 259.3125 498.792969 C 253.320313 503.285156 246.332031 498.046875 240.339844 498.792969 C 246.332031 473.335938 224.222656 451.332031 228.359375 429.902344 C 230.355469 418.917969 229.855469 408.183594 226.363281 397.703125 C 227.359375 383.722656 243.320313 365.402344 230.605469 352.773438 C 217.464844 340.359375 223.066406 318.21875 225.207031 302.3125 C 225.261719 301.902344 225.820313 301.828125 226.046875 302.179688 C 237.023438 319.167969 245.550781 318.347656 252.289063 305.691406 Z M 223.019531 169.515625 C 223.28125 167.6875 223.929688 167.757813 224.054688 169.667969 C 225.6875 195.367188 219.753906 226.617188 208.539063 248.441406 C 208.328125 248.859375 207.667969 248.847656 207.5625 248.429688 C 200.761719 220.910156 219.34375 195.179688 223.019531 169.515625 Z M 158.277344 244.785156 C 161.355469 238.386719 163.65625 228.59375 163.3125 220.257813 C 163.261719 219.027344 163.992188 219.015625 164.378906 220.308594 C 170.542969 241.046875 160.324219 255.097656 153.476563 273.644531 C 148.660156 267.222656 150 261.976563 158.277344 244.785156 Z M 70.992188 254.691406 C 71.433594 252.292969 73.105469 252.027344 73.089844 254.574219 C 73.078125 256.441406 74.714844 261.464844 74.644531 264.804688 C 74.605469 266.773438 73.082031 267.078125 72.511719 265.984375 C 70.980469 263.027344 70.269531 258.582031 70.992188 254.691406 Z M 51.636719 333.550781 C 65.484375 326.351563 66.234375 314.515625 63.546875 305.339844 C 60.808594 295.988281 60.351563 287.238281 60.589844 275.546875 C 60.597656 275.085938 61.109375 275.027344 61.367188 275.464844 C 73.71875 296.210938 90.351563 285.671875 86.628906 261.738281 C 84.960938 251.03125 83.929688 240.054688 89.828125 231.210938 C 84.21875 207.324219 98.371094 190.339844 108.335938 173.519531 C 108.574219 173.113281 109.058594 173.382813 109.058594 173.929688 C 109.050781 186.308594 106.921875 201.078125 108.671875 215.015625 C 111.355469 236.378906 121.769531 228.714844 125.359375 220.660156 C 127.132813 216.6875 130.132813 207.175781 131.925781 202.214844 C 132.132813 201.644531 132.898438 201.464844 133.0625 201.871094 C 134.984375 206.601563 133.605469 213.101563 132.613281 217.398438 C 129.09375 232.613281 123.261719 247.246094 123.835938 263.796875 C 124.21875 274.714844 117.484375 304.132813 107.320313 320.804688 C 103.589844 326.921875 101.796875 337.210938 103.980469 343.359375 C 106.703125 351.03125 115.574219 351.933594 119.777344 348.027344 C 122.652344 345.15625 124.34375 342.117188 125.269531 338.492188 C 126.015625 335.050781 126.773438 335.398438 127.566406 338.585938 C 131.730469 355.3125 128.203125 374.058594 120.527344 387.96875 C 114.34375 399.027344 129.894531 409.535156 125.234375 422.265625 C 116.550781 445.988281 119.808594 466.519531 139 467.84375 C 139.996094 477.578125 135.753906 484.566406 130.015625 490.554688 C 122.277344 499.292969 110.292969 496.796875 102.558594 504.785156 C 94.570313 507.53125 88.578125 500.289063 82.089844 499.542969 C 83.050781 490.378906 74.148438 468.9375 60.621094 464.847656 C 56.488281 456.578125 57.636719 444.71875 62.320313 437.625 C 74.394531 419.335938 68.210938 401.796875 57.746094 376.855469 C 53.882813 367.65625 46.144531 336.796875 51.636719 333.550781 Z M 44.332031 274.894531 C 44.519531 274.644531 44.964844 274.867188 45 275.226563 C 46.667969 291.421875 52.605469 309.375 40.152344 322.070313 C 35.3125 327.039063 42.15625 343.132813 41.90625 354.617188 C 38.722656 355.363281 36.609375 357.171875 35.480469 355.851563 C 32.097656 351.898438 34.378906 325.496094 35.195313 321.140625 C 36.316406 315.144531 31.328125 312.320313 28.207031 317.539063 C 21.855469 328.152344 23.28125 343.011719 23.628906 359.433594 C 23.84375 369.71875 23.347656 379.683594 18.6875 387.96875 C 13.171875 377.898438 6.136719 325.796875 44.332031 274.894531 Z M 39.335938 366.742188 C 37.132813 368.214844 36.179688 365.628906 37.425781 363.566406 C 37.871094 362.824219 42.121094 359.4375 42.992188 360.578125 C 43.546875 361.308594 45.199219 369.324219 46.644531 371.992188 C 45.136719 373.5 42.136719 375.195313 39.578125 375.148438 C 39.171875 375.140625 38.882813 374.535156 39.101563 374.304688 C 42.957031 370.203125 42.625 364.664063 39.335938 366.742188 Z M 333.695313 343.785156 C 332.320313 345.023438 330.03125 345.050781 328.171875 345.617188 C 325.203125 346.523438 322.96875 349.480469 326.476563 351.015625 C 327.933594 351.652344 330.265625 351.605469 331.636719 351.078125 C 332.78125 350.679688 332.789063 351.726563 331.949219 353.269531 C 326.207031 354.269531 321.714844 358.015625 316.222656 361.757813 C 313.222656 364.207031 315.097656 368.8125 318.851563 367.445313 C 321.40625 366.425781 326.09375 365.570313 328.632813 365.242188 C 329.53125 365.128906 329.679688 366.097656 328.902344 366.5 C 323.789063 369.144531 316.285156 371.253906 311.460938 375.21875 C 307.679688 378.328125 307.867188 383.980469 314.476563 381.476563 C 318.273438 379.914063 321.871094 377.949219 325.804688 377.019531 C 326.269531 376.90625 326.667969 377.503906 326.371094 377.863281 C 321.574219 383.691406 311.929688 385.53125 305.707031 390.273438 C 301.695313 393.328125 304.210938 397.128906 308.746094 395.453125 C 313.480469 393.699219 317.585938 390.5625 322.960938 389.964844 C 322.464844 392.445313 320.609375 393.570313 318.472656 394.472656 C 316.3125 395.386719 302.742188 400.695313 300.246094 404.941406 C 299.773438 413.480469 305.011719 420.019531 309.613281 427.027344 C 314.757813 434.871094 320.382813 445.710938 314.867188 457.183594 C 313.316406 460.410156 311.316406 463.515625 309.699219 466.789063 C 307.695313 470.839844 310.085938 475.527344 313.777344 471.835938 C 315.132813 470.476563 319.703125 463.097656 321.714844 464.097656 C 324.363281 483.960938 301.644531 502.253906 281.429688 512.722656 C 275.359375 515.867188 281.0625 523.613281 286.910156 520.941406 C 288.21875 520.34375 311.859375 506.574219 318.71875 498.792969 C 321.066406 496.34375 322.429688 499.925781 320.464844 501.789063 C 314.003906 506.527344 312.933594 514.804688 311.957031 521.953125 C 311.316406 526.660156 313.519531 535.558594 317.84375 527.820313 C 318.773438 526.148438 319.398438 524.414063 321.214844 523.503906 C 322.960938 539.230469 331.949219 562.195313 315.222656 573.175781 C 314.726563 567.1875 306.988281 573.925781 309.734375 566.6875 C 307.601563 560.296875 299.410156 570.066406 300.0625 562.152344 C 300.4375 559.769531 299 559.449219 297.472656 560.136719 C 282.175781 567.21875 254.53125 587.492188 254.152344 588.085938 C 250.585938 593.597656 253.992188 598.480469 258.886719 595.316406 C 261.722656 593.488281 264.304688 590.257813 264.304688 597.140625 C 268.046875 598.886719 271.292969 600.386719 270.792969 605.628906 C 268.046875 619.355469 273.667969 633.765625 266.550781 646.8125 C 263.269531 653.03125 267.53125 666.160156 258.3125 671.523438 C 259.03125 657.902344 248.992188 639.472656 259.09375 628.070313 C 263.035156 623.621094 264.710938 615.871094 263.796875 604.765625 C 263.375 599.636719 259.417969 598.546875 258.269531 603.882813 C 256.535156 611.921875 257.9375 619.152344 252.074219 623.734375 C 244.191406 629.898438 246.078125 638.054688 247.9375 647.023438 C 250.601563 659.863281 250.578125 672.039063 240.339844 676.765625 C 240.421875 668.207031 237.84375 660.539063 237.347656 652.304688 C 239.472656 652.910156 240.949219 652.226563 242.0625 651.089844 C 245 648.097656 242.703125 644.972656 239.207031 646.835938 C 237.179688 647.917969 235.40625 647.15625 234.898438 644.863281 C 233.867188 640.207031 236.007813 628.914063 235.367188 622.488281 C 234.695313 615.761719 229.550781 615.300781 228.609375 622.019531 C 227.386719 630.753906 228.820313 634.414063 229.949219 641.621094 C 231.390625 650.851563 231.019531 690.605469 227.457031 694.628906 C 224.75 697.683594 219.136719 697.484375 215.128906 696.484375 C 212.136719 683.007813 216.378906 668.777344 211.386719 655.796875 C 211.386719 652.925781 214.613281 651.210938 216.300781 649.367188 C 219.179688 646.230469 216.609375 644.316406 213.804688 645.664063 C 209.230469 647.859375 207.671875 643.910156 207.890625 638.574219 C 208.121094 630.089844 209.191406 622.027344 210.914063 614.191406 C 212.832031 605.464844 202.269531 604.742188 202.507813 613.644531 C 202.796875 624.265625 198.808594 634.214844 201.609375 645 C 204.410156 655.796875 204.503906 686.3125 203.648438 700.230469 C 198.90625 699.230469 192.980469 698.34375 188.171875 699.480469 C 189.171875 686 188.671875 669.277344 188.671875 655.796875 C 190.171875 653.96875 192.332031 652.582031 193.460938 650.527344 C 195.554688 646.714844 193.371094 642.839844 189.96875 646.714844 C 189.042969 647.765625 188 648.792969 186.425781 648.058594 C 183.183594 638.53125 185.867188 627.355469 181.636719 619.078125 C 177.675781 611.328125 174.460938 613.578125 175.238281 622.332031 C 177.683594 649.789063 182.894531 677.078125 178.039063 694.347656 C 176.4375 700.042969 167.433594 698.351563 166.988281 695.421875 C 166.203125 690.28125 163.203125 664.132813 161.214844 654.550781 C 162.355469 652.980469 165.292969 651.738281 167.179688 650.027344 C 170.84375 646.703125 168.011719 641.695313 163.6875 643.980469 C 162.429688 644.648438 161.171875 645.5625 159.96875 645.5625 C 160.867188 635.433594 159.128906 626.523438 157.496094 617.550781 C 156.484375 611.972656 150.359375 610.4375 150.773438 616.714844 C 152.746094 646.820313 155.710938 677.714844 158.21875 700.726563 C 151.421875 701.453125 148.011719 695.484375 141.996094 694.238281 C 137.753906 690.242188 136.253906 663.285156 136.003906 654.050781 C 138.117188 652.425781 140.445313 650.585938 141.878906 648.191406 C 144.429688 644.164063 142.726563 641.269531 138.960938 642.59375 C 138.007813 642.898438 137.007813 643.113281 136.003906 642.570313 C 135.316406 632.457031 133.144531 622.765625 131.636719 612.914063 C 130.933594 608.328125 125.816406 606.671875 124.917969 610.695313 C 122.660156 620.8125 128.914063 631.039063 127.519531 641.570313 C 125.019531 657.296875 129.515625 676.015625 130.511719 691.242188 C 124.523438 693.988281 122.027344 685.503906 118.53125 682.257813 C 115.105469 668.378906 113.578125 641.449219 113.308594 637.679688 C 112.695313 629.054688 112.003906 620.992188 109.703125 616.265625 C 106.933594 610.5625 103.402344 612.367188 103.359375 617.910156 C 103.3125 623.929688 106.15625 629.804688 104.804688 636.578125 C 104.046875 635.820313 102.820313 634.96875 101.488281 634.390625 C 96.746094 632.324219 95.945313 635.175781 97.90625 639.722656 C 99.839844 644.207031 103.402344 648.503906 105.550781 652.800781 C 105.898438 661.214844 106.828125 670.371094 108.546875 678.015625 C 81.207031 669.140625 90.734375 636.296875 81.558594 615.140625 C 80.070313 611.703125 79.808594 610.015625 82.214844 608.386719 C 93.054688 601.046875 101.785156 591.695313 114.539063 588.152344 C 118.515625 587.050781 111.863281 581.082031 107.859375 582.558594 C 98.703125 586.660156 81.914063 600.167969 74.847656 604.878906 C 73.601563 603.878906 72.851563 602.132813 71.855469 600.632813 C 83.835938 592.894531 93.820313 581.664063 107.796875 577.421875 C 109.988281 576.820313 107.601563 570.171875 102.457031 571.933594 C 90.609375 575.734375 70.355469 590.035156 64.617188 595.394531 C 62.867188 595.394531 60.203125 593.355469 62.867188 591.148438 C 75.347656 581.414063 88.828125 573.425781 104.304688 566.6875 C 109.476563 564.203125 103.511719 556.019531 98.3125 558.699219 C 81.589844 568.933594 51.136719 589.402344 50.386719 589.902344 C 48.746094 589.289063 46.664063 588.070313 45.773438 587.210938 C 55.882813 580.472656 74.765625 568.644531 83.679688 562.3125 C 89.703125 558.035156 85.011719 554.40625 78.203125 557.003906 C 74.144531 558.546875 52.066406 575.132813 40.769531 582.4375 C 39.386719 583.332031 37.515625 582.175781 39.148438 580.320313 C 44.464844 574.28125 58.539063 564.710938 66.371094 559.363281 C 69.070313 557.554688 66.339844 552.949219 61.121094 554.707031 C 55.378906 556.953125 35.410156 572.179688 30.667969 577.421875 C 27.671875 575.671875 28.167969 568.890625 25.421875 567.613281 C 10.589844 561.132813 17.6875 541.226563 10.199219 527 C 12.636719 522.601563 15.941406 516.515625 20.433594 513.269531 C 20.988281 516.484375 19.527344 520.582031 18.667969 524.320313 C 16.609375 533.285156 23.839844 534.0625 25.847656 527.625 C 28.496094 519.117188 29.425781 509.96875 25.675781 501.289063 C 25.675781 498.296875 25.675781 494.300781 28.171875 493.550781 C 37.332031 504.273438 42.691406 520.992188 56.414063 527.964844 C 63.054688 531.339844 71.402344 526.554688 62.390625 520.019531 C 49.90625 510.964844 36.121094 486.773438 33.203125 471.261719 C 31.257813 460.9375 33.605469 447.582031 31.667969 441.382813 C 28.421875 431.648438 35.410156 421.664063 33.664063 412.679688 C 30.917969 412.429688 24.179688 417.921875 27.671875 410.929688 C 31.167969 405.191406 42.898438 402.195313 37.65625 393.957031 C 41.902344 392.460938 45.144531 389.214844 46.644531 384.972656 C 40.402344 383.722656 45.144531 380.976563 47.394531 378.480469 C 50.316406 383.304688 50.996094 389.953125 52.136719 395.203125 C 49.234375 398.410156 44.5625 399.65625 41.199219 401.851563 C 35.902344 405.304688 38.367188 410.710938 43.742188 407.828125 C 46.421875 406.394531 49.039063 403.972656 52.136719 403.691406 C 53.105469 409.59375 55.769531 423.292969 47.898438 427.230469 C 25.046875 438.660156 46.890625 501.949219 79.328125 509.339844 C 82.292969 510.015625 85.207031 511.535156 88.101563 512.851563 C 98.269531 517.480469 108.433594 511.410156 116.363281 507.558594 C 121.035156 505.289063 125.414063 502.777344 130.015625 501.289063 C 130.015625 504.632813 127.886719 508.066406 127.121094 511.199219 C 125.382813 518.335938 133.5 516.332031 134.683594 514.734375 C 137.839844 510.464844 145.113281 502.601563 152.710938 500.359375 C 153.132813 500.234375 153.433594 500.863281 153.128906 501.289063 C 149.863281 505.84375 144.039063 511.378906 138.378906 515.058594 C 134.730469 517.429688 134.570313 522.097656 138.863281 521.175781 C 143.566406 520.164063 147.367188 515.316406 151.480469 512.773438 C 152.308594 518.738281 146.316406 521.734375 143.214844 525.335938 C 139.695313 529.433594 142.5 532.777344 145.964844 529.765625 C 147.535156 528.398438 148.96875 526.789063 150.980469 526.5 C 153.277344 529.832031 151.398438 532.003906 149.527344 533.835938 C 145.328125 537.945313 150.078125 541.550781 153.101563 538.773438 C 158.285156 534.007813 160.085938 531.75 161.765625 522.761719 C 163.964844 511.007813 164.964844 498.882813 167.703125 487.5625 C 171.199219 472.644531 155.128906 435.835938 154.199219 434.085938 C 150.265625 426.667969 144.695313 429.027344 147 436.371094 C 148.257813 440.371094 152.441406 453.550781 153.476563 458.855469 C 150.074219 464.027344 148.082031 461.628906 146.570313 457.773438 C 143.960938 451.121094 142.367188 436.710938 133.507813 433.644531 C 137.960938 424.742188 137.730469 413.144531 132.976563 404.039063 C 128.554688 395.566406 131.117188 388.117188 136.144531 374.742188 C 142.796875 357.054688 135.082031 336.777344 130.601563 326.707031 C 126.246094 316.921875 123.453125 316.636719 119.511719 324.980469 C 118.308594 327.523438 117.054688 329.96875 116.042969 332.636719 C 113.929688 338.210938 112.535156 337.839844 113.921875 331.816406 C 114.65625 328.632813 136.929688 283.902344 135.503906 268.152344 C 134.257813 255.425781 134.757813 241.195313 141.496094 230.464844 C 145.953125 229.628906 150.675781 228.539063 152.441406 227.980469 C 152.441406 232.605469 147.453125 240.414063 144.539063 248.140625 C 135.40625 272.359375 143.46875 287.328125 155.722656 291.617188 C 161.171875 287.476563 160.722656 279.726563 164.171875 274.5 C 172.480469 261.914063 177.191406 241.703125 177.675781 226.613281 C 184.667969 225.761719 188.589844 226.445313 195.910156 227.46875 C 193.40625 241.347656 200.238281 256.882813 198.0625 271.8125 C 196.035156 285.730469 204.027344 288.683594 209.550781 275.515625 C 213.652344 265.738281 224.863281 236.703125 226.363281 234.207031 C 230.191406 235.3125 234.863281 236.195313 237.800781 238.066406 C 237.921875 244.285156 238.523438 252.679688 239.632813 257.800781 C 242.160156 269.433594 243.984375 282.054688 243.589844 293.441406 C 243.3125 301.359375 237.339844 304.78125 235.460938 296.90625 C 234.460938 292.707031 235.195313 287.847656 234.820313 283.886719 C 233.144531 266.28125 227.972656 267.027344 223.300781 281.4375 C 217.574219 298.566406 213.480469 314.421875 212.632813 336.546875 C 208.421875 338.574219 202.554688 339.921875 198.984375 343.144531 C 193.246094 348.328125 196.78125 354.394531 203.824219 351.035156 C 207.871094 349.101563 211.796875 345.636719 214.957031 345.394531 C 215.355469 346.816406 216.210938 348.523438 216.878906 349.777344 C 205.957031 355.734375 192.980469 362.007813 183.105469 370.984375 C 177.425781 376.144531 179.484375 378.9375 186.671875 375.539063 C 190.648438 373.65625 212.632813 359.261719 221.621094 359.261719 C 222.617188 361.257813 224.734375 363.867188 223.367188 364.753906 C 205.035156 373.128906 184.03125 381.910156 167.808594 393.898438 C 162.726563 397.652344 165.835938 402.667969 171.644531 399.386719 C 187.191406 390.605469 204.453125 382.0625 221.039063 375.507813 C 221.480469 375.335938 221.742188 375.839844 221.449219 376.285156 C 214.953125 386.210938 215.8125 402.699219 219.871094 413.925781 C 215.359375 422.054688 221.664063 436.714844 213.863281 441.84375 C 197.113281 452.851563 191.765625 487.640625 202.398438 513.269531 C 203.648438 514.269531 205.394531 513.769531 206.644531 513.769531 C 206.644531 515.230469 206.265625 516.6875 206.097656 518.011719 C 205.492188 522.816406 210.273438 523.628906 212.285156 519.09375 C 214.730469 513.59375 216.34375 503.710938 216.710938 502.476563 C 217.394531 500.179688 219.394531 501.828125 218.882813 503.660156 C 217.164063 509.785156 213.972656 518.246094 213.652344 523.964844 C 213.324219 529.835938 216.175781 531.085938 218.597656 525.328125 C 221.1875 519.175781 222.730469 508.566406 225.496094 505.097656 C 225.773438 504.753906 226.324219 505.253906 226.285156 505.734375 C 225.671875 513.496094 221.871094 520.996094 220.410156 529.128906 C 219.175781 535.992188 225.574219 537.554688 226.726563 530.578125 C 227.9375 523.242188 231.738281 516.304688 232.355469 508.527344 C 242.835938 510.773438 257.066406 515.019531 265.300781 506.03125 C 269.695313 500.878906 274.8125 499.808594 279.214844 498.027344 C 299.339844 489.902344 311.859375 448.433594 285.769531 430.648438 C 298.265625 417.707031 294.320313 385.910156 282.773438 382.726563 C 282.441406 383.730469 281.433594 384.957031 280.503906 385.65625 C 280.046875 386.003906 279.546875 385.488281 279.691406 385.132813 C 282.519531 378.105469 287.960938 373.347656 293.242188 368.4375 C 320.652344 342.953125 319.152344 317.472656 311.308594 291.589844 C 309.355469 285.128906 302.472656 285.0625 302.507813 292.601563 C 302.566406 304.8125 300.09375 315.785156 279.78125 322.816406 C 277.28125 312.085938 286.019531 302.601563 287.519531 292.863281 C 290.035156 277.59375 269.296875 267.902344 284.023438 256.171875 C 289.265625 256.921875 292.511719 259.167969 296.003906 261.664063 C 294.820313 267.070313 295.238281 273.164063 297.261719 278.007813 C 301.152344 287.34375 305.847656 284.679688 307.097656 277.566406 C 307.503906 275.261719 308.085938 272.96875 310.230469 271.898438 C 320.214844 286.460938 333 315.105469 332.445313 328.0625 C 329.140625 327.589844 327.484375 329.855469 330.867188 334.265625 C 332.824219 336.816406 335.261719 339.089844 333.695313 343.785156 Z M 318.398438 405.707031 C 315.898438 407.863281 311.347656 408.707031 307.984375 410.183594 C 305.550781 410.925781 304.105469 407.667969 306.300781 406.882813 C 306.746094 406.726563 315.722656 401.945313 319.96875 400.695313 C 320.203125 403.214844 319.546875 404.714844 318.398438 405.707031 "/>
<path style=" stroke:none;fill-rule:nonzero;fill:rgb(0%,0%,0%);fill-opacity:1;" d="M 54.285156 194.234375 C 52.640625 214.859375 58.421875 213.757813 65.699219 198.132813 C 68.203125 192.75 68.867188 185.117188 71.855469 180.789063 C 83.457031 162.039063 80.148438 133.332031 68.921875 110.683594 C 66.914063 106.636719 63.152344 94.140625 61.636719 89.894531 C 55.820313 73.59375 46.664063 75.996094 52.027344 92.332031 C 54.789063 100.753906 53.246094 109.644531 50.332031 121.945313 C 43.882813 149.191406 42.917969 162.261719 50.136719 176.984375 C 52.644531 182.097656 54.777344 188.019531 54.285156 194.234375 Z M 60.378906 123.171875 C 60.457031 122.824219 61.0625 122.640625 61.273438 122.898438 C 72.949219 137.179688 67.640625 160.414063 61.886719 176.554688 C 61.796875 176.800781 61.371094 176.835938 61.253906 176.605469 C 52.664063 160.105469 56.285156 140.636719 60.378906 123.171875 "/>
<path style=" stroke:none;fill-rule:nonzero;fill:rgb(0%,0%,0%);fill-opacity:1;" d="M 234.851563 538.480469 C 236.085938 534.269531 238.148438 528.101563 234.960938 523.113281 C 234.777344 522.824219 234.203125 522.828125 234.121094 523.113281 C 232.679688 528.019531 229.191406 532.542969 230.605469 537.734375 C 231.214844 539.480469 233.601563 541.726563 234.851563 538.480469 "/>
<path style=" stroke:none;fill-rule:nonzero;fill:rgb(0%,0%,0%);fill-opacity:1;" d="M 188.671875 531.242188 C 185.691406 528.058594 181.769531 530.441406 182.183594 535.484375 C 184.429688 555.953125 185.675781 576.421875 185.175781 597.640625 C 194.046875 603.585938 202.230469 603.757813 203.648438 597.140625 C 203.648438 583.410156 204.648438 575.425781 200.152344 563.691406 C 197.796875 557.722656 195.160156 539.230469 188.671875 531.242188 "/>
<path style=" stroke:none;fill-rule:nonzero;fill:rgb(0%,0%,0%);fill-opacity:1;" d="M 165.457031 532.492188 C 163.960938 536.984375 159.71875 538.980469 159.96875 544.472656 C 160.042969 549.238281 158.8125 554.1875 157.390625 559.136719 C 154.046875 570.816406 152.316406 588.414063 160.328125 591.546875 C 165.503906 593.574219 162.957031 602.503906 169.453125 601.382813 C 170.347656 597.277344 172.546875 593.847656 170.535156 589.765625 C 168.398438 585.425781 173.820313 583.769531 173.695313 577.921875 C 172.945313 564.691406 172.945313 549.714844 171.449219 535.984375 C 171.199219 533.683594 166.425781 530.101563 165.457031 532.492188 "/>
<path style=" stroke:none;fill-rule:nonzero;fill:rgb(0%,0%,0%);fill-opacity:1;" d="M 275.347656 560.257813 C 270.214844 563.429688 248.394531 577.675781 244.722656 581.292969 C 240.1875 585.757813 245.71875 590.847656 249.589844 587.1875 C 258.519531 578.742188 269.046875 571.871094 278.980469 565.78125 C 281.835938 564.03125 280.945313 556.800781 275.347656 560.257813 "/>
<path style=" stroke:none;fill-rule:nonzero;fill:rgb(0%,0%,0%);fill-opacity:1;" d="M 112.515625 592.457031 C 111.300781 593.257813 110.035156 594.519531 108.796875 595.574219 C 105.359375 598.503906 109.636719 601.8125 113.183594 599.757813 C 114.65625 598.902344 115.863281 597.960938 116.671875 596.679688 C 118.53125 593.734375 115.871094 590.246094 112.515625 592.457031 "/>
<path style=" stroke:none;fill-rule:nonzero;fill:rgb(0%,0%,0%);fill-opacity:1;" d="M 255.679688 561.164063 C 250.546875 564.335938 238.71875 571.398438 235.042969 575.015625 C 230.507813 579.480469 234.453125 583.808594 239.4375 580.339844 C 247.070313 574.433594 249.378906 572.777344 259.3125 566.6875 C 262.167969 564.9375 261.277344 557.707031 255.679688 561.164063 "/>
<path style=" stroke:none;fill-rule:nonzero;fill:rgb(0%,0%,0%);fill-opacity:1;" d="M 235.476563 562.328125 C 233.140625 563.757813 231.042969 565.738281 228.484375 567.441406 C 225.417969 569.65625 230.03125 574.648438 232.757813 572.773438 C 235.484375 571.066406 236.328125 569.828125 238.714844 568.464844 C 241.570313 566.714844 238.03125 560.792969 235.476563 562.328125 "/>
</g>
</svg>
