<?xml version="1.0" encoding="UTF-8"?>
<svg xmlns="http://www.w3.org/2000/svg" xmlns:xlink="http://www.w3.org/1999/xlink" width="517pt" height="668pt" viewBox="0 0 517 668" version="1.1">
<g id="surface1">
<path style=" stroke:none;fill-rule:nonzero;fill:rgb(0%,0%,0%);fill-opacity:1;" d="M 513.949219 143.9375 C 518.710938 119.527344 513.335938 98.613281 503.253906 83.351563 C 480.894531 49.496094 449.789063 15.207031 406.667969 17.246094 C 397.597656 17.675781 388.199219 17.351563 379.238281 14.273438 C 360.769531 7.929688 314.386719 11.074219 290.449219 9.136719 C 277.546875 8.089844 229.261719 5.585938 223.144531 2.496094 C 212.03125 -3.117188 186.339844 2.765625 175.039063 6.671875 C 161.925781 11.203125 149.253906 16.621094 136.488281 21.007813 C 124.164063 25.242188 114.183594 30.085938 103.566406 42.304688 C 97.855469 48.878906 92.710938 56.015625 86.75 62.339844 C 44.617188 100.351563 24.386719 136.066406 7.972656 193.894531 C 2.425781 213.4375 3.304688 217.179688 12.75 238.9375 C 16.449219 246.886719 16.042969 253.414063 12.796875 259.9375 C 7.53125 270.515625 0.519531 299.730469 2.75 326.738281 C -2.050781 336.386719 3.097656 350.328125 7.023438 354.4375 C 9.542969 356.652344 13.542969 357.960938 16.148438 354.457031 C 17.710938 352.535156 18.832031 351.269531 19.949219 354.136719 C 23.148438 363.339844 26.148438 374.9375 22.75 385.339844 C 9.148438 392.539063 19.949219 413.886719 9.949219 422.339844 C 3.648438 427.238281 2.148438 434.839844 1.949219 442.863281 C 1.503906 460.710938 -4.007813 517.382813 20.347656 530.738281 C 23.949219 546.539063 37.523438 575.566406 38.367188 577.304688 C 45.546875 592.085938 50.949219 613.917969 53.457031 631.316406 C 57.5 659.398438 92.949219 673.113281 114.816406 665.238281 C 122.171875 662.585938 129.171875 658.539063 135.148438 656.9375 C 155.972656 651.796875 171.066406 637.796875 186.894531 624.324219 C 213.539063 601.644531 248.59375 587.335938 285.46875 566.921875 C 319.660156 547.992188 331.023438 529.40625 321.179688 457.105469 C 317.308594 428.660156 335.816406 400.589844 345.597656 391.398438 C 348.050781 388.945313 349.6875 381.839844 353.753906 377.578125 C 358.328125 372.78125 366.871094 370.121094 368.949219 363.738281 C 371.949219 355.730469 377.199219 352.636719 385.558594 350.445313 C 443.199219 333.386719 446.96875 316.171875 461.804688 304.945313 C 477.960938 292.722656 485.726563 268.472656 495.585938 253.5625 C 504.445313 240.164063 506.453125 221.933594 512.171875 206.378906 C 515.683594 196.824219 519.324219 163.71875 513.949219 143.9375 Z M 45.621094 134.339844 C 47.457031 131.550781 49.449219 131.886719 47.957031 135.453125 C 38.699219 154.636719 30.546875 183.738281 29.070313 185.789063 C 27.585938 187.695313 28.78125 188.839844 30.628906 187.304688 C 34.558594 184.039063 38.078125 172.96875 39.601563 167.046875 C 43.246094 152.859375 50.726563 139.902344 56.257813 125.757813 C 62.5625 109.628906 95.136719 69.175781 113.019531 58.9375 C 116.726563 56.816406 167.933594 38.417969 187.886719 30.730469 C 193.265625 28.660156 192.640625 26.480469 186.910156 28.003906 C 162.945313 34.703125 143.164063 43.378906 120.695313 52.632813 C 118.128906 53.6875 117.183594 52.308594 119.355469 50.753906 C 129.671875 43.371094 140.285156 38.746094 152.347656 32.136719 C 168.292969 24.304688 189.757813 19.304688 204.453125 19.996094 C 211.363281 20.320313 218.199219 22.757813 221.996094 29.84375 C 225.457031 36.304688 231.339844 39.941406 239.304688 45.226563 C 246.027344 49.6875 255.214844 63.90625 253.238281 70.550781 C 250.0625 81.242188 252.023438 92.171875 262.023438 96.722656 C 268.664063 99.742188 269.402344 108.296875 270.949219 116.539063 C 271.304688 119.113281 273.453125 121.636719 275.855469 123.046875 C 278.746094 124.136719 278.441406 121.925781 277.085938 120.734375 C 274.351563 118.335938 274.449219 116.886719 274.449219 114.636719 C 275.128906 104.414063 270.339844 94.65625 263.699219 93.136719 C 255.515625 91.265625 255.847656 76.789063 259.125 69.851563 C 262.355469 63.015625 250.472656 50.378906 244.546875 44.539063 C 241.191406 41.238281 228.734375 33.753906 224.578125 26.960938 C 224.210938 26.355469 224.898438 25.339844 225.507813 25.414063 C 246.914063 28.105469 297.160156 26.804688 329.457031 24.007813 C 342.007813 22.917969 351.234375 24.789063 360.117188 26.972656 C 374.222656 30.4375 388.921875 28.46875 403.425781 27.324219 C 426.679688 25.492188 447.027344 38.386719 461.546875 53.136719 C 433.40625 62.328125 409.976563 73.921875 390.628906 92.816406 C 383.3125 99.960938 332.957031 120.304688 289.746094 130.101563 C 286.699219 130.453125 283.550781 130.011719 281.867188 127.523438 C 279.949219 125.636719 278.199219 126.636719 280.546875 129.539063 C 281.347656 130.339844 282.148438 130.9375 282.546875 131.9375 C 270.679688 148.078125 260.464844 160.519531 235.953125 168.40625 C 224.652344 172.042969 217.550781 182.40625 208.871094 197.238281 C 204.964844 203.917969 201.003906 210.636719 195.632813 217.242188 C 186.105469 228.949219 181.390625 252.152344 182.746094 273.539063 C 174.476563 278.019531 163.976563 281.90625 153.9375 279.441406 C 141.171875 276.304688 127.164063 277.964844 112.148438 284.9375 C 106.394531 285.636719 101.019531 284.824219 95.699219 284.59375 C 94.914063 284.5625 94.695313 283.523438 95.359375 283.023438 C 101.191406 278.636719 106.515625 274.519531 109.746094 267.339844 C 112.199219 262.636719 107.949219 262.136719 108.347656 260.539063 C 110.058594 247.628906 110.324219 232.738281 101.113281 223.222656 C 100.617188 222.710938 100.753906 221.640625 101.46875 221.738281 C 103.507813 222.027344 106.082031 223.023438 108.621094 223.867188 C 111.679688 224.878906 113.441406 223.449219 111.414063 220.410156 C 103.839844 209.054688 85.75 202.425781 62.75 207.449219 C 54.667969 209.757813 30.949219 213.136719 20.347656 207.738281 C 21.195313 188.261719 34.042969 151.921875 45.621094 134.339844 Z M 212.949219 263.9375 C 207.949219 266.9375 199.746094 267.9375 193.746094 268.738281 C 191.347656 269.738281 188.949219 270.738281 186.546875 271.539063 C 187.148438 257.136719 190.546875 242.539063 194.746094 228.9375 C 197.347656 225.339844 200.746094 222.539063 202.746094 218.339844 C 205.949219 224.539063 206.949219 232.339844 211.949219 237.9375 C 220.148438 244.738281 209.347656 253.9375 212.949219 263.9375 Z M 506.894531 151.140625 C 506.835938 154.265625 505.113281 155.628906 504.195313 151.828125 C 501.398438 140.265625 496.953125 133.074219 485.820313 121.769531 C 481.746094 117.628906 472.023438 107.027344 465.617188 100.722656 C 463.105469 98.253906 461.917969 98.960938 463.613281 102.050781 C 469.324219 112.746094 473.558594 123.101563 484.148438 131.339844 C 487.148438 141.738281 494.746094 152.539063 495.148438 162.539063 C 495.699219 173.136719 497.347656 182.539063 502.746094 189.9375 C 500.546875 207.136719 494.148438 223.339844 491.746094 240.9375 C 490.789063 246.847656 485.753906 250.585938 482.84375 255.316406 C 482.117188 256.496094 481.199219 258.886719 480.546875 258.003906 C 479.464844 256.535156 478.34375 257.777344 478.777344 261.070313 C 479.011719 262.851563 478.597656 264.238281 476.949219 265.738281 C 475.699219 266.386719 471.949219 259.136719 472.546875 265.738281 C 473.148438 272.136719 472.148438 276.339844 467.746094 280.136719 C 467.132813 278.785156 466.441406 277.808594 465.628906 276.746094 C 464.636719 275.453125 463.5 275.394531 463.226563 277.890625 C 462.652344 283.117188 463.894531 288.378906 457.148438 291.339844 C 456.546875 290.238281 455.746094 289.539063 454.898438 288.863281 C 452.539063 286.988281 451.535156 287.734375 451.851563 290.648438 C 452.203125 293.941406 452.199219 296.636719 449.699219 298.136719 C 447.699219 299.386719 447.050781 297.605469 446.199219 296.136719 C 444.929688 293.941406 442.949219 294.636719 442.867188 297.027344 C 442.292969 298.75 442.019531 300.652344 442.347656 302.738281 C 437.246094 306.320313 431.957031 310.382813 426.410156 313.738281 C 423.910156 315.25 422.578125 313.902344 424.492188 311.925781 C 443.167969 292.644531 461.917969 269.585938 477.160156 247.863281 C 490.402344 228.988281 483.886719 199.78125 475.410156 179.050781 C 471.773438 170.152344 470.222656 171.214844 470.988281 180.136719 C 474.195313 217.550781 474.796875 232.269531 450.546875 264.339844 C 448.199219 266.386719 449.347656 261.738281 446.746094 262.539063 C 444.699219 263.636719 447.347656 269.339844 443.347656 269.738281 C 442.746094 269.339844 440.746094 264.339844 439.546875 268.136719 C 438.546875 270.9375 439.546875 274.539063 436.546875 276.339844 C 434.949219 276.386719 436.148438 272.539063 433.746094 272.136719 C 430.410156 271.699219 432.011719 277.59375 431.226563 281.199219 C 431.121094 281.695313 430.027344 281.996094 429.679688 281.65625 C 428.082031 280.089844 426.664063 277.644531 425.363281 275.695313 C 424.871094 274.980469 424.300781 275.253906 424.175781 275.628906 C 423.382813 278.027344 422.601563 280.835938 421.882813 283.371094 C 421.628906 284.273438 420.882813 284.503906 420.648438 283.820313 C 419.507813 280.507813 416.921875 277.648438 415.257813 274.851563 C 414.996094 274.414063 414.171875 274.390625 414.035156 274.835938 C 413.234375 277.429688 413.453125 280.449219 412.605469 283.023438 C 412.476563 283.40625 412 283.390625 411.898438 283.027344 C 410.867188 279.230469 408.15625 276.210938 406.308594 272.828125 C 406.183594 272.601563 405.710938 272.601563 405.59375 272.839844 C 404.246094 275.679688 403.402344 279.21875 403.074219 282.753906 C 403.015625 283.347656 402.449219 283.222656 402.328125 282.714844 C 400.984375 277.21875 398.351563 272.453125 395.261719 268.058594 C 395.089844 267.816406 394.609375 267.929688 394.542969 268.226563 C 393.703125 272.046875 393.316406 275.988281 393.300781 280.136719 C 393.296875 281.125 392.765625 281.210938 392.515625 280.273438 C 390.703125 273.519531 387.925781 267.640625 384.046875 261.945313 C 383.816406 261.609375 383.167969 261.742188 383.113281 262.242188 C 382.566406 267.160156 384.140625 277.9375 384.617188 284.007813 C 384.691406 284.988281 384.140625 285.195313 383.875 284.492188 C 381.472656 278.132813 380.96875 270.101563 377.546875 264.339844 C 375.453125 261.277344 373.492188 257.960938 372.179688 254.695313 C 371.367188 252.671875 370.34375 252.796875 370.105469 254.878906 C 368.144531 272.128906 368.566406 294.230469 370.664063 305.144531 C 373.394531 319.324219 373.234375 332.445313 365.535156 338.96875 C 358.214844 345.164063 353.191406 352.53125 348.421875 360.246094 C 348.195313 360.609375 347.769531 360.460938 347.78125 360.015625 C 348.09375 349.996094 349.601563 337.226563 346.347656 325.738281 C 342.691406 315.722656 339.667969 304.949219 335.96875 294.925781 C 333.734375 288.863281 332.640625 289.246094 333.203125 295.648438 C 334.480469 310.253906 339.546875 325.636719 339.546875 340.738281 C 335.046875 353.675781 336.523438 370.304688 327.664063 380.570313 C 318.664063 391 311.804688 406.109375 298.785156 417.507813 C 285.296875 429.316406 273.460938 430.109375 253.449219 423.015625 C 237.484375 417.359375 217.984375 399.277344 217.746094 383.339844 C 218.042969 379.082031 216.820313 374.335938 215.25 369.914063 C 215.085938 369.453125 215.492188 369.152344 215.871094 369.476563 C 219.21875 372.34375 222.886719 376.089844 226.496094 378.828125 C 228.949219 380.636719 229.890625 379.332031 228.164063 377.167969 C 225.949219 373.761719 221.199219 358.261719 209.949219 354.539063 C 211.949219 353.539063 215.199219 351.886719 216.746094 353.738281 C 226.015625 364.691406 249.074219 389.636719 268.574219 388.636719 C 275.371094 388.238281 282.347656 384.738281 288.347656 381.9375 C 290.574219 380.511719 289.324219 379.011719 286.746094 380.136719 C 272.152344 387.4375 252.027344 374.277344 244.132813 363.5625 C 243.929688 363.285156 244.359375 362.976563 244.792969 363.109375 C 256.792969 366.769531 272.914063 369.429688 279.972656 359.78125 C 280.171875 359.511719 279.90625 359.113281 279.558594 359.199219 C 275.210938 360.261719 268.238281 360.871094 264.347656 357.539063 C 255.738281 349.707031 245.203125 340.320313 232.808594 338.875 C 220.570313 337.445313 159.390625 341.191406 128.480469 368.160156 C 116.902344 378.257813 103.195313 380.507813 93.757813 391.960938 C 92.992188 392.890625 93.796875 393.957031 95.085938 393.289063 C 97.722656 391.921875 100.574219 389.511719 103.546875 389.136719 C 115.886719 387.734375 126.714844 379.929688 135.898438 373.746094 C 142.941406 369.003906 150.042969 364.507813 158.101563 361.15625 C 158.773438 360.875 159.179688 361.277344 158.605469 361.796875 C 155.429688 364.679688 150.59375 368.5625 146.632813 372.574219 C 144.8125 374.503906 145.21875 375.152344 147.964844 374.058594 C 162.417969 368.296875 178.03125 362.003906 193.148438 356.539063 C 206.640625 356.539063 208.355469 373.636719 208.421875 383.386719 C 208.558594 403.777344 226.871094 415.402344 242.09375 428.742188 C 256.683594 441.527344 289.066406 437.066406 303.140625 430.757813 C 305.835938 429.550781 308.507813 428.269531 311.347656 427.539063 C 304.476563 446.703125 307.578125 471.429688 311.191406 491.515625 C 312.085938 496.476563 313.835938 509.460938 313.148438 516.339844 C 312.769531 516.433594 312.433594 516.03125 312.078125 515.734375 C 311.6875 515.40625 310.746094 515.9375 311.386719 516.902344 C 314.109375 521.589844 312.402344 527.601563 310.347656 531.339844 C 309.105469 531.5625 308.757813 530.574219 308.289063 529.78125 C 307.3125 528.121094 306.09375 529.367188 306.4375 531.289063 C 307.074219 534.855469 310.652344 538.203125 306.546875 540.339844 C 305.355469 540.734375 304.558594 540.046875 303.789063 539.425781 C 302.007813 537.988281 301.226563 538.160156 302.011719 541.03125 C 302.890625 544.257813 301.574219 547.148438 297.949219 548.136719 C 296.996094 547.980469 296.292969 547.222656 295.65625 546.550781 C 293.4375 544.222656 291.257813 546.746094 293.046875 548.539063 C 293.546875 549.039063 294.574219 549.886719 293.546875 550.539063 C 256.988281 564.835938 171.535156 603.394531 155.082031 626.269531 C 153.5 628.46875 153.855469 629.65625 156.898438 628.015625 C 161.183594 625.707031 168.148438 620.59375 175.8125 618.359375 C 176.652344 618.117188 176.953125 618.691406 176.265625 619.179688 C 165.339844 626.980469 155.769531 637.210938 143.054688 642.46875 C 128.785156 648.367188 105.25 658.304688 90.273438 653.671875 C 87.539063 652.824219 73.699219 647.011719 70.75 643.136719 C 70.28125 638.371094 70.96875 634.144531 71.582031 629.90625 C 72.371094 624.464844 73.601563 613.195313 66.949219 608.9375 C 66.949219 613.421875 64.9375 617.570313 63.671875 621.464844 C 63.242188 622.785156 62.730469 622.796875 62.625 621.507813 C 62.136719 615.660156 59.117188 599.035156 56.695313 591.429688 C 56.4375 590.621094 56.917969 590.222656 57.402344 590.683594 C 59.894531 593.070313 62.269531 595.757813 63.933594 598.703125 C 64.597656 599.875 65.386719 599.667969 65.101563 598.410156 C 63.476563 591.25 57.804688 585.589844 54.53125 579.03125 C 53.726563 577.414063 45.042969 559.265625 41.828125 547.832031 C 40.667969 543.707031 38.667969 533.976563 36.75 531.339844 C 38.546875 528.539063 39.605469 526.925781 41.949219 525.539063 C 42.949219 535.136719 51.347656 541.738281 53.546875 552.339844 C 54.128906 555.28125 55.976563 557.523438 57.117188 559.722656 C 58.285156 561.984375 59.464844 561.21875 58.835938 558.921875 C 55.21875 545.683594 46.527344 531.4375 53.949219 517.738281 C 56.429688 518.730469 57.953125 521.636719 58.292969 524.878906 C 58.824219 529.957031 63.058594 542.21875 66.625 549.53125 C 67.882813 551.972656 68.753906 551.648438 68.199219 548.761719 C 66.707031 541.046875 62.09375 529.394531 62.75 523.136719 C 65.546875 523.9375 70.148438 523.539063 72.347656 523.539063 C 70.339844 535.03125 77.652344 542.53125 80.621094 552.410156 C 82.804688 559.667969 84.007813 564.410156 87.226563 568.589844 C 89.84375 571.984375 92.335938 570.910156 90.546875 566.738281 C 87.75 560.339844 87.949219 549.9375 86.75 541.339844 C 83.949219 533.539063 80.347656 527.339844 80.347656 518.339844 C 84.734375 515.597656 88.285156 512.6875 89.628906 507.777344 C 89.753906 507.316406 90.289063 507.304688 90.515625 507.789063 C 94.617188 516.609375 109.492188 519.964844 113.949219 508.136719 C 116.949219 510.539063 116.347656 516.9375 116.347656 520.738281 C 116.328125 529.503906 119.921875 537.746094 120.386719 546.398438 C 120.460938 547.769531 121.535156 547.660156 121.6875 546.511719 C 122.675781 539.085938 122.796875 528.671875 123.882813 524.027344 C 125.925781 515.316406 122.632813 507.328125 121.671875 504.355469 C 120.484375 500.671875 120.09375 496.949219 122.746094 493.339844 C 130.4375 499.238281 134.132813 484.511719 140.117188 487.90625 C 144.042969 490.136719 147.351563 507.648438 144.480469 515.273438 C 143.214844 518.632813 141.441406 526.308594 141.410156 529.511719 C 141.328125 538.378906 139.023438 547.1875 140.28125 555.414063 C 140.816406 558.929688 142.769531 557.71875 142.714844 554.765625 C 142.503906 543.328125 144.226563 533.105469 151.6875 525.992188 C 159.984375 518.082031 153.542969 498.03125 146.746094 483.738281 C 153.546875 480.9375 160.148438 475.539063 161.546875 467.9375 C 164.324219 469.636719 171.328125 469.433594 174.546875 468.339844 C 175.871094 478.363281 175.230469 488.921875 170.082031 497.144531 C 165.101563 505.101563 164.320313 517.933594 169.71875 529.628906 C 170.265625 530.8125 171.285156 530.292969 171.148438 529.019531 C 169.933594 517.671875 168.777344 513.40625 177.753906 500.050781 C 188.15625 484.570313 179.574219 477.636719 179.347656 465.539063 C 181.429688 462.992188 195.558594 458.40625 198.429688 457.796875 C 203.066406 456.804688 208.234375 454.960938 211.546875 452.539063 C 218.449219 457.011719 218.039063 467.820313 211.988281 479.035156 C 203.714844 494.359375 203.113281 504.929688 212.28125 513.433594 C 213.53125 514.589844 215.382813 515.261719 214.785156 512.269531 C 213.402344 505.375 209.699219 495.261719 216.347656 491.339844 C 219.699219 489.261719 219.949219 485.136719 221.546875 481.738281 C 230.445313 486.449219 239.953125 490.703125 248.609375 495.828125 C 251.570313 497.640625 252.789063 496.535156 251.339844 493.496094 C 242.402344 474.800781 237.574219 479.636719 224.347656 469.339844 C 224.347656 460.339844 220.746094 453.539063 215.746094 446.738281 C 219.746094 437.738281 224.949219 422.738281 216.746094 414.136719 C 214.992188 412.703125 214.199219 411.589844 213.347656 409.964844 C 211.539063 406.503906 209.605469 407.414063 210.953125 410.617188 C 213.023438 415.550781 217.402344 419.746094 215.722656 425.269531 C 215.445313 426.1875 211.148438 437.738281 209.148438 442.9375 C 202.746094 446.738281 196.148438 451.539063 188.347656 452.9375 C 189.066406 439.128906 178.683594 429.660156 181.871094 416.742188 C 182.238281 415.257813 181.863281 414.714844 181.113281 416.28125 C 176.074219 426.765625 178.320313 431.542969 181.164063 441.0625 C 182.214844 444.578125 183.085938 448.097656 180.746094 451.136719 C 174.546875 457.339844 167.949219 458.539063 160.148438 461.136719 C 158.175781 457.738281 154.574219 454.941406 151.335938 451.886719 C 143.1875 444.214844 146.214844 440.363281 141.75 430.046875 C 140.058594 426.136719 137.921875 427.046875 138.355469 431.011719 C 139.003906 437 140.21875 442.683594 143.746094 447.339844 C 147.347656 453.136719 154.148438 459.339844 151.546875 468.339844 C 144.875 476.308594 133.046875 478.09375 125.300781 486.117188 C 124.691406 486.75 123.734375 486.195313 123.800781 485.253906 C 125.160156 464.945313 116.964844 454.609375 108.914063 443.378906 C 106.261719 439.671875 105.667969 440.078125 106.785156 444.523438 C 108.996094 453.300781 114.671875 461.289063 114.726563 471.011719 C 114.746094 474.179688 114.257813 492.535156 114.546875 495.738281 C 111.746094 497.738281 112.699219 502.511719 113.148438 505.339844 C 106.429688 511.160156 104.601563 511.980469 98.148438 510.136719 C 97.234375 504.285156 94.648438 499.105469 95.128906 492.757813 C 95.519531 487.585938 88.617188 473.21875 83.136719 461.605469 C 80.949219 456.972656 77.40625 457.769531 79.949219 463.136719 C 85.148438 475.136719 85.347656 490.339844 89.148438 504.339844 C 82.75 510.738281 76.546875 514.9375 68.949219 519.339844 C 66.574219 520.386719 62.75 517.539063 59.75 516.339844 C 49.382813 490.234375 49.578125 481.015625 48.238281 457.648438 C 48.078125 454.792969 46.949219 454.601563 46.144531 457.378906 C 43.441406 466.691406 42.515625 500.601563 53.148438 516.9375 C 47.347656 518.9375 40.75 517.539063 35.75 514.9375 C 31.480469 508.804688 26.75 482.9375 26.75 474.539063 C 26.699219 473.136719 30.199219 464.511719 29.507813 456.265625 C 29.429688 454.925781 28.476563 454.867188 28.210938 456.113281 C 27.179688 461.011719 26.691406 466.554688 24.171875 470.574219 C 18.484375 479.65625 23.71875 493.476563 26.808594 511.265625 C 27.9375 517.765625 30.824219 520.511719 26.75 520.136719 C 15.644531 510.621094 12.121094 481.761719 12.261719 472.761719 C 12.289063 471.023438 12.402344 467.78125 12.402344 466.386719 C 13 457.789063 7.949219 447.636719 14.75 441.9375 C 20.296875 437.347656 26.027344 432.203125 24.9375 423.890625 C 24.890625 423.511719 25.386719 423.246094 25.683594 423.53125 C 29.519531 427.234375 30.621094 434.265625 31.546875 438.539063 C 37.207031 434.703125 32.371094 427.539063 33.003906 422.363281 C 33.710938 416.574219 28.9375 414.902344 24.492188 409.972656 C 22.742188 408.035156 21.65625 405.882813 22.441406 402.976563 C 24.273438 396.175781 30.421875 390.46875 36.359375 381.914063 C 46.113281 367.867188 42.0625 355.539063 35.75 355.539063 C 35.910156 358.816406 35.671875 361.6875 34.921875 364.378906 C 34.757813 364.972656 34.058594 364.992188 33.933594 364.390625 C 31.988281 355.144531 27.828125 341.472656 16.546875 338.339844 C 15.949219 319.738281 17.347656 299.738281 20.949219 281.738281 C 24.492188 277.550781 28.726563 273.882813 31.546875 269.496094 C 39.445313 257.222656 31.414063 237.703125 25.835938 226.945313 C 22.707031 220.90625 20.929688 218.261719 21.347656 211.136719 C 27.578125 215.535156 49.546875 219.738281 52.148438 220.136719 C 55.476563 229.398438 59.359375 252.574219 60.21875 262.867188 C 60.796875 269.785156 63.421875 270.023438 64.660156 263.382813 C 66.65625 252.679688 66.84375 232.316406 64.546875 223.136719 C 75.335938 226.824219 75.960938 237.601563 76.164063 248.140625 C 76.34375 257.644531 75.597656 269.21875 79.148438 276.097656 C 80.171875 278.078125 80.910156 280.351563 77.527344 281.710938 C 61.972656 287.953125 43.265625 316.867188 35.964844 336.894531 C 33.480469 343.710938 34.8125 344.46875 39.191406 338.84375 C 48.445313 326.960938 62.488281 306.304688 66.949219 302.738281 C 68.949219 300.886719 68.480469 303.777344 67.949219 306.539063 C 64.546875 318.136719 70.949219 331.339844 65.949219 341.136719 C 53.507813 367.222656 60.609375 384.472656 70.851563 395.75 C 72.867188 397.96875 73.945313 395.878906 72.492188 393.460938 C 64.320313 379.847656 72.457031 361.859375 74.75 347.339844 C 77.449219 334.136719 75.148438 317.738281 77.546875 304.738281 C 79.199219 296.886719 85.148438 296.738281 90.546875 294.539063 C 99.546875 292.136719 103.449219 304.136719 112.546875 297.9375 C 129.746094 285.339844 150.449219 303.136719 167.746094 294.539063 C 188.679688 283.960938 217.613281 271.4375 235.394531 278.023438 C 247.808594 282.621094 262.035156 286.105469 269.546875 295.539063 C 274.148438 302.339844 282.546875 305.339844 287.347656 311.9375 C 289.667969 315.03125 292.644531 320.660156 295.261719 325 C 296.03125 326.273438 297.324219 325.644531 297.410156 324.65625 C 297.820313 319.96875 298.949219 319.386719 302.226563 322.605469 C 311.601563 331.308594 317.035156 345.519531 314.691406 362.101563 C 313.964844 367.246094 315.609375 367.921875 317.441406 362.636719 C 328.503906 330.722656 318.597656 310.386719 286.746094 296.539063 C 265.398438 269.667969 243.097656 259.476563 220.148438 263.9375 C 217.949219 257.386719 222.699219 247.136719 219.546875 239.339844 C 215.949219 230.339844 210.746094 220.539063 209.148438 210.539063 C 219.460938 191.011719 234.269531 176.976563 252.28125 168.289063 C 262.3125 163.449219 280.058594 143.726563 285.949219 132.9375 C 298.546875 132.539063 330.199219 125.886719 338.746094 122.738281 C 357.753906 115.6875 391.230469 103.933594 401.75 88.5 C 405.992188 82.273438 447.679688 62.460938 465.347656 56.136719 C 501.871094 94.777344 507.726563 105.054688 506.894531 151.140625 "/>
<path style=" stroke:none;fill-rule:nonzero;fill:rgb(0%,0%,0%);fill-opacity:1;" d="M 384.703125 126.628906 C 383.0625 125.9375 382.4375 127.078125 383.65625 128.089844 C 395.332031 137.828125 405.304688 150.246094 414.582031 162.789063 C 430.921875 184.875 436.824219 190.097656 439.980469 220.007813 C 440.351563 223.527344 441.039063 223.511719 441.203125 219.882813 C 442.546875 190.53125 439.074219 183.945313 421.238281 159.144531 C 413.9375 148.988281 397.773438 132.109375 384.703125 126.628906 "/>
<path style=" stroke:none;fill-rule:nonzero;fill:rgb(0%,0%,0%);fill-opacity:1;" d="M 447.046875 163.269531 C 454.574219 187.632813 453.542969 214.941406 453.050781 239.136719 C 453.011719 241.023438 453.777344 241.128906 454.203125 239.234375 C 459.203125 217.019531 464.613281 187.28125 448.207031 162.757813 C 447.4375 161.605469 446.640625 161.949219 447.046875 163.269531 "/>
<path style=" stroke:none;fill-rule:nonzero;fill:rgb(0%,0%,0%);fill-opacity:1;" d="M 109.238281 197.246094 C 117.625 199.730469 133.09375 233.398438 125.949219 249.539063 C 123.523438 256.085938 122.566406 263.386719 122.582031 269.136719 C 122.585938 270.503906 123.566406 270.417969 124.101563 269.007813 C 128.394531 257.699219 137.328125 240.582031 132.347656 234.136719 C 127.492188 227.269531 127.40625 217.460938 125.402344 208.898438 C 121.742188 193.242188 111.886719 191.851563 102.714844 187.359375 C 96.171875 184.15625 96.523438 185.820313 99.664063 189.621094 C 101.578125 191.9375 108.304688 196.972656 109.238281 197.246094 "/>
<path style=" stroke:none;fill-rule:nonzero;fill:rgb(0%,0%,0%);fill-opacity:1;" d="M 147.191406 385.996094 C 153.820313 386.296875 161.734375 384.945313 167.199219 387.636719 C 177.253906 392.585938 188.957031 396.328125 198.035156 401.226563 C 198.828125 401.65625 199.324219 401.128906 198.835938 400.46875 C 197.195313 398.25 195.769531 396.351563 194.746094 394.539063 C 186.039063 380.121094 172.964844 378.855469 158.085938 382.183594 C 154.140625 383.066406 150.386719 384.238281 146.945313 385.121094 C 146.058594 385.351563 146.214844 385.953125 147.191406 385.996094 "/>
<path style=" stroke:none;fill-rule:nonzero;fill:rgb(0%,0%,0%);fill-opacity:1;" d="M 122.464844 618.167969 C 120.742188 619.734375 121.433594 620.5 123.503906 619.269531 C 138.128906 610.566406 171.347656 590.550781 173.359375 589.140625 C 175.730469 587.472656 178.191406 586.25 180.746094 585.539063 C 196.320313 580.027344 238.582031 557.28125 261.539063 541.710938 C 266.316406 538.46875 265.097656 538.246094 260.804688 540.730469 C 237.332031 554.289063 207.453125 566.085938 186.828125 571.414063 C 173.367188 574.890625 143.117188 599.40625 122.464844 618.167969 "/>
</g>
</svg>
