<?xml version="1.0" encoding="UTF-8"?>
<svg xmlns="http://www.w3.org/2000/svg" xmlns:xlink="http://www.w3.org/1999/xlink" width="562pt" height="617pt" viewBox="0 0 562 617" version="1.1">
<g id="surface1">
<path style=" stroke:none;fill-rule:nonzero;fill:rgb(0%,0%,0%);fill-opacity:1;" d="M 537.292969 416.824219 C 540.691406 396.640625 551.820313 380.1875 554.683594 358.769531 C 556.691406 343.753906 563.328125 318.195313 560.929688 303.503906 C 559.523438 294.902344 560.035156 285.632813 557.726563 277.796875 C 552.683594 260.664063 519.839844 247.726563 507.367188 249.289063 C 503.425781 249.78125 499.1875 249.335938 495.035156 248.757813 C 486.433594 247.5625 474.964844 245.945313 464.578125 247.1875 C 455.285156 248.296875 446.375 250.6875 437.480469 252.160156 C 429.820313 253.429688 426.902344 253.628906 422.109375 258.882813 C 418.777344 262.53125 416.347656 267.171875 412.125 271.628906 C 404.585938 279.414063 403.054688 294.90625 403.925781 312.421875 C 404.308594 320.113281 405.800781 329.554688 405.234375 331.890625 C 404.363281 335.496094 405.257813 338.824219 406.460938 342.234375 C 409.105469 349.738281 410.039063 355.78125 408.066406 361.113281 C 404.253906 371.414063 428.332031 431.390625 429.246094 434.210938 C 430.386719 437.738281 430.71875 441.804688 426.730469 441.972656 C 395.644531 443.296875 364.03125 443.621094 332.75 440.191406 C 330.546875 439.949219 330.136719 438.898438 332.539063 438.5625 C 339.570313 437.574219 359.671875 409.476563 364.605469 397.984375 C 365.828125 395.132813 367.652344 392.804688 369.546875 390.527344 C 374.097656 385.074219 376.683594 382.097656 376.882813 377.054688 C 377.097656 371.730469 378.539063 366.847656 380.15625 361.992188 C 384.890625 347.792969 386.003906 339.492188 385.472656 328.878906 C 384.636719 312.160156 393.328125 299.535156 397.011719 284.222656 C 415.355469 266.675781 419.496094 233.785156 411.046875 208.585938 C 409.277344 203.308594 407.429688 198.144531 408.300781 195.84375 C 411.941406 186.273438 414.441406 155.546875 403.011719 143.457031 C 400.179688 140.460938 397.480469 135.796875 396.644531 130.929688 C 396.167969 128.160156 397.847656 125.921875 401.527344 125.289063 C 408.816406 124.035156 410.074219 122.816406 417.65625 112.179688 C 421.726563 106.46875 419.238281 101.171875 421.4375 89.597656 C 422.574219 83.628906 425.882813 69.726563 425.757813 63.488281 C 425.695313 60.507813 427.609375 46.519531 428.636719 42.136719 C 429.855469 36.9375 431.097656 31.910156 429.632813 27.398438 C 428.367188 23.5 428.28125 22.683594 425.214844 23.167969 C 422.824219 23.542969 420.894531 22.304688 419.171875 21.027344 C 416.652344 19.164063 412.164063 18.371094 409.101563 18.671875 C 398.367188 19.734375 387.875 21.496094 376.628906 21.667969 C 369.644531 21.769531 368.355469 21.464844 361.894531 16.933594 C 352.382813 10.269531 331.613281 5.703125 313.828125 5.785156 C 308.644531 5.808594 303.90625 4.78125 299.296875 3.652344 C 285.910156 0.367188 269.660156 -0.3125 255.835938 3.367188 C 247.410156 5.609375 239.355469 8.136719 230.910156 8.851563 C 214.800781 10.214844 162.738281 38.832031 155.441406 53.003906 C 152.324219 59.058594 147.554688 64.863281 142.324219 70.0625 C 138.363281 74.003906 136.679688 75.199219 138.222656 81.34375 C 138.953125 84.273438 133.785156 91.367188 129.457031 94.589844 C 125.28125 97.695313 120.8125 103.964844 117.15625 105.539063 C 116.890625 105.65625 116.539063 105.253906 116.632813 104.96875 C 119.804688 95.140625 129.28125 77.929688 134.511719 72.566406 C 138.816406 68.152344 139.90625 63.484375 138.097656 59.847656 C 135.699219 55.035156 133.257813 55.953125 130.457031 60.285156 C 128.230469 63.730469 127.046875 68.113281 124.558594 72.011719 C 116.792969 83.765625 113.433594 99.300781 106.296875 110.84375 C 104.828125 108.324219 103.066406 105.964844 100.835938 104.136719 C 100.636719 82.785156 104.613281 65.277344 104.828125 44.242188 C 104.863281 40.703125 105.03125 37.386719 98.878906 36.769531 C 92.292969 36.105469 90.601563 37.203125 91.34375 43.25 C 93.453125 60.375 91.289063 80.570313 93.089844 97.585938 C 93.378906 100.355469 93.015625 101.203125 90.054688 101.183594 C 74.921875 101.089844 67.964844 106.53125 63.730469 121.425781 C 59.023438 137.972656 61.675781 145.773438 71.125 155.226563 C 73.796875 157.898438 74.03125 158.539063 72.433594 161.78125 C 70.019531 166.703125 66.871094 170.953125 63.5 175.007813 C 53.632813 186.855469 44.894531 194.871094 43.710938 204.882813 C 42.542969 214.792969 26.492188 246.269531 16.316406 267.496094 C 11.878906 276.75 7.886719 303.21875 17.164063 310.179688 C 20.425781 312.625 24.367188 314.671875 24.492188 318.769531 C 24.582031 321.773438 27.089844 327.417969 29.191406 328.238281 C 30.679688 328.820313 31.441406 329.59375 30.289063 332.007813 C 28.335938 336.097656 25.679688 337.664063 21.898438 338.738281 C 14.617188 340.804688 5.320313 342.691406 4.832031 351.570313 C 4.347656 360.339844 6.902344 366.722656 2.585938 371.195313 C -1.3125 375.238281 0.351563 379.1875 3.164063 382.945313 C 9.28125 391.128906 11.476563 400.789063 12.855469 410.925781 C 15.96875 433.78125 17.988281 447.070313 26.261719 470.863281 C 34.691406 495.09375 36.90625 506.453125 36.339844 533.292969 C 36.070313 546.117188 37.21875 555.539063 45.425781 562.761719 C 46.4375 563.777344 46.886719 565.109375 47.140625 566.484375 C 47.617188 569.070313 51.679688 582.75 53.246094 587.609375 C 55.085938 593.335938 56.476563 593.023438 57.023438 587.597656 C 57.671875 581.210938 53.082031 574 56.550781 568.21875 C 57.433594 568.703125 57.855469 569.425781 58.207031 570.082031 C 59.28125 572.101563 61.253906 572.226563 61.171875 568.996094 C 61.078125 565.160156 58.769531 562.386719 56.6875 559.667969 C 48.511719 548.988281 45.476563 533.378906 49.050781 512.035156 C 50.242188 504.933594 51.8125 498.003906 52.984375 491.816406 C 69.335938 498.734375 88.496094 497.507813 103.160156 494.835938 C 109.1875 493.734375 115.421875 492.1875 118.714844 495.070313 C 123.894531 499.605469 128.199219 511.453125 127.398438 523.398438 C 126.441406 537.613281 127.808594 544.203125 131.179688 555.109375 C 132.484375 559.324219 134.511719 558.484375 133.546875 554.386719 C 130.753906 542.480469 131.257813 531.847656 133.164063 522.042969 C 135.265625 521.203125 137.78125 523.929688 139.042969 526.03125 C 139.273438 531.601563 143.4375 553.859375 145.175781 559.25 C 147.480469 566.40625 148.179688 574.578125 150.757813 580.867188 C 153.027344 586.398438 154.546875 585.847656 153.804688 580.089844 C 152.238281 567.960938 146.183594 555.589844 146.164063 544.050781 C 146.164063 543.710938 146.53125 543.597656 146.710938 543.886719 C 153.777344 555.351563 160.804688 570.683594 166.210938 584.496094 C 168.347656 589.960938 171.367188 586.886719 169.828125 581.796875 C 168.175781 576.320313 167.046875 569.769531 166.4375 563.390625 C 165.410156 552.582031 162.628906 548.878906 157.828125 540.394531 C 149.742188 526.105469 144.953125 510.128906 143.660156 492.65625 C 149.996094 492.65625 172.238281 491.136719 177.214844 490.152344 C 197.089844 486.234375 217.101563 492.167969 236.789063 486.785156 C 243.023438 485.085938 345.648438 483.0625 394.074219 483.628906 C 402.433594 483.832031 407.339844 481.121094 414.90625 483.945313 C 415.164063 484.042969 415.148438 484.5 414.875 484.625 C 408.417969 487.5625 401.785156 491.789063 394.074219 491.816406 C 370.328125 491.816406 346.230469 495.546875 323.082031 492.714844 C 306.082031 490.636719 276.792969 488.148438 259.488281 491.027344 C 255.996094 491.609375 249.660156 492.738281 245.652344 492.539063 C 230.980469 491.796875 224.3125 491.519531 214.738281 495.753906 C 209.25 498.183594 190.246094 509.164063 185.3125 511.105469 C 172.394531 516.191406 162.203125 521.199219 163.503906 531.023438 C 164.359375 534.800781 166.230469 534.320313 168.109375 531.246094 C 171.644531 525.46875 182.519531 523.078125 191.714844 524.921875 C 193.761719 525.332031 194.105469 526.394531 192.804688 528.070313 C 188.738281 533.304688 184.273438 538.191406 182.410156 544.796875 C 181.113281 549.398438 182.597656 551.128906 185.597656 546.167969 C 202.648438 517.976563 245.019531 507.328125 257.300781 511.585938 C 261.4375 513.019531 266.238281 509.59375 270.019531 512.804688 C 263.09375 518.472656 253.074219 516.199219 245.882813 521.410156 C 239.277344 526.734375 231.992188 531.171875 224.757813 535.570313 C 213.800781 542.234375 196.5625 553.550781 190.421875 561.199219 C 187.027344 565.421875 188.378906 566.769531 192.675781 564.109375 C 198.203125 560.695313 202.367188 556.960938 207.40625 553.566406 C 207.636719 553.414063 207.949219 553.609375 207.867188 553.855469 C 203.542969 567.449219 193.742188 575.175781 189 588.371094 C 186.367188 590.417969 183.839844 590.835938 181.269531 591.964844 C 177.410156 593.65625 177.550781 596.007813 182.214844 595.5 C 184.011719 595.304688 185.910156 594.652344 187.359375 594.492188 C 187.566406 594.46875 187.734375 594.917969 187.628906 595.148438 C 185.082031 600.484375 181.546875 605.734375 179.492188 611.246094 C 177.238281 617.28125 178.675781 618 182.523438 612.886719 C 187.546875 606.214844 195.71875 588.910156 202.8125 583.886719 C 221.3125 570.785156 232.085938 550.242188 255.539063 545.550781 C 270.601563 542.4375 288.910156 534.84375 306.964844 532.957031 C 357.011719 527.203125 398.675781 512.375 434.375 490.136719 C 436.734375 488.71875 437.976563 489.132813 438.8125 490.269531 C 440.84375 493.023438 442.761719 496.445313 442.84375 499.210938 C 443.148438 509.429688 455.335938 515.035156 460.613281 522.460938 C 464.421875 527.832031 475.734375 525.796875 480.59375 521.023438 C 484.65625 517.027344 488.890625 514.355469 493.023438 511.699219 C 502.464844 505.628906 507.855469 501.269531 510.28125 493.652344 C 511.449219 489.980469 512.445313 485.847656 515.394531 483.210938 C 527.957031 479.722656 539.347656 481.835938 542.84375 457.820313 C 544.234375 448.277344 541.753906 443.8125 535.140625 440.152344 C 531.148438 437.941406 530.984375 434.675781 532.070313 431.019531 C 533.785156 425.257813 536.46875 421.714844 537.292969 416.824219 Z M 403.269531 91.652344 C 403.082031 92.035156 402.621094 91.960938 402.589844 91.554688 C 402.046875 84.285156 401.789063 79.621094 402.21875 73.0625 C 402.964844 72.640625 405.675781 71.664063 406.304688 71.664063 C 406.699219 78.96875 406.21875 85.59375 403.269531 91.652344 Z M 405.550781 32.308594 C 411.039063 32.410156 412.863281 32.953125 412.972656 39.835938 C 413.347656 51.578125 408.992188 66.933594 402.003906 65.210938 C 402.820313 58.769531 405.015625 37.144531 405.550781 32.308594 Z M 266.300781 532.328125 C 260.171875 534.523438 251.816406 534.332031 245.882813 537.996094 C 229.488281 548.652344 218.695313 560.507813 205.105469 572 C 204.777344 572.28125 204.355469 572.070313 204.484375 571.691406 C 209.636719 556.28125 221.300781 542.710938 237.445313 535.046875 C 237.734375 534.90625 238.117188 535.25 238.089844 535.535156 C 237.882813 537.523438 239.953125 538.683594 241.476563 537.996094 C 248.644531 535.304688 257.96875 532.277344 265.882813 531.070313 C 267.773438 530.78125 268.054688 531.699219 266.300781 532.328125 Z M 284.296875 520.992188 C 274.707031 524.128906 263.8125 523.792969 254.984375 526.113281 C 253.1875 526.589844 252.78125 526.214844 254.308594 525.535156 C 262.855469 521.738281 272.785156 521.273438 282.761719 518.601563 C 286.570313 517.511719 287.589844 519.746094 284.296875 520.992188 Z M 350.742188 511.429688 C 348.871094 512.265625 344.703125 512.53125 344.367188 512.554688 C 341.871094 512.714844 342.40625 512.296875 343.988281 511.742188 C 345.550781 511.191406 348.132813 510.515625 349.820313 510.140625 C 352.003906 509.53125 352.539063 510.605469 350.742188 511.429688 Z M 381.875 499.132813 C 372.027344 501.75 351.542969 502.664063 341.246094 503.941406 C 329.777344 505.382813 317.132813 503.648438 305.226563 502.863281 C 291.183594 501.941406 268.945313 504.214844 262.222656 502.609375 C 256.382813 501.21875 249.617188 501.738281 241.578125 501.226563 C 221.902344 499.976563 209.164063 505.835938 195.507813 517.421875 C 192.882813 519.671875 189.085938 518.742188 186.058594 517.769531 C 185.699219 517.652344 185.609375 517.179688 185.90625 517.054688 C 198.578125 511.722656 219.699219 494.183594 234.324219 497.636719 C 242.132813 499.480469 253.558594 498.710938 257.890625 497.320313 C 277.761719 490.945313 325.609375 500.691406 347.589844 498.960938 C 359.351563 498.03125 371.574219 497.488281 381.6875 498.117188 C 382.617188 498.175781 382.828125 498.878906 381.875 499.132813 Z M 379.9375 301.988281 C 377.769531 309.445313 377.164063 317.238281 376.75 325.007813 C 375.636719 346.042969 372.316406 373.128906 358.6875 389.84375 C 354.277344 395.257813 332.984375 425.617188 315.472656 437.855469 C 313.570313 439.1875 312.320313 438.347656 313.890625 436.402344 C 317.195313 432.179688 321.949219 429.5625 324.914063 425.597656 C 326.382813 423.632813 325.097656 421.746094 323.25 423.132813 C 317.066406 427.78125 310.144531 433.402344 304.863281 438.289063 C 302.382813 438.480469 299.035156 438.152344 296.085938 437.933594 C 295.789063 437.910156 295.703125 437.550781 295.949219 437.390625 C 302.601563 432.988281 307.378906 427.835938 314.710938 424.523438 C 317.707031 423.167969 316.632813 420.070313 313.605469 421.449219 C 304.726563 425.492188 295.792969 430.386719 288.703125 437.871094 C 286.988281 437.554688 285.390625 437.332031 283.707031 437.027344 C 283.347656 436.964844 283.210938 436.347656 283.519531 436.109375 C 286.910156 433.484375 291.15625 430.703125 293.414063 427.28125 C 294.851563 425.109375 294.140625 424.464844 291.554688 425.847656 C 286.171875 428.722656 280.648438 432.5625 277.15625 436.402344 C 272.527344 436.386719 265.867188 435.980469 262.464844 435.773438 C 262.777344 432.960938 261.253906 430.488281 258.226563 431.988281 C 255.46875 433.355469 255.996094 426.582031 251.96875 429.265625 C 248.820313 431.574219 246.09375 435.5625 241.894531 434.304688 C 237.371094 432.433594 243.363281 429.265625 239.375 426.746094 C 236.835938 425.441406 236.015625 427.796875 234.339844 429.265625 C 232.542969 429.027344 231.496094 428.035156 230.65625 426.800781 C 227.886719 422.71875 199.15625 400.976563 195.003906 397.160156 C 184.441406 387.453125 185.230469 383.488281 186.230469 368.566406 C 187.335938 352.082031 189.253906 336.195313 189.019531 320.707031 C 189.015625 320.296875 189.414063 320.191406 189.617188 320.546875 C 199.371094 337.597656 201.644531 359.089844 224.261719 365.875 C 220.695313 382.035156 225.941406 394.84375 231.398438 408.695313 C 232.964844 412.214844 236.941406 410.496094 235.992188 406.808594 C 232.847656 394.203125 226.519531 383.433594 229.71875 369.234375 C 231.398438 363.777344 239.585938 372.171875 242.3125 365.875 C 244.695313 367.066406 243.242188 368.253906 241.738281 369.496094 C 236.929688 373.464844 240.652344 385.136719 243.085938 393.929688 C 244.570313 399.292969 245.964844 404.738281 245.96875 410.574219 C 245.972656 415.78125 249.304688 418.3125 251.863281 413.277344 C 253.808594 409.460938 248.007813 387.484375 247.824219 386.9375 C 246.652344 383.453125 245.910156 379.578125 246.800781 375.96875 C 246.941406 375.394531 248.820313 366.925781 254.488281 371.332031 C 257.0625 384.609375 261.699219 395.265625 262.914063 408.777344 C 263.425781 414.429688 268.410156 412.796875 267.988281 407.164063 C 267.058594 394.863281 263.597656 385.039063 261.625 372.800781 C 268.550781 374.0625 272.75 369.023438 279.257813 368.8125 C 274.847656 380.988281 271.488281 395.890625 275.058594 408.695313 C 276.316406 409.746094 277.789063 409.746094 279.257813 409.113281 C 278.878906 396.515625 280.496094 383.269531 284.546875 372.847656 C 285.335938 370.820313 286.21875 369.050781 288.703125 368.8125 C 292.859375 370.925781 293.796875 371.707031 293.949219 376.730469 C 294.261719 386.746094 290.316406 395.253906 292.273438 404.222656 C 293.703125 410.765625 297.660156 405.054688 297.550781 398.777344 C 297.410156 390.464844 302.167969 383.769531 300.246094 375.320313 C 305.914063 372.800781 310.742188 372.800781 316.410156 370.910156 C 315.589844 380.132813 306.105469 389.585938 306.777344 399.953125 C 307.269531 404.582031 308.75 403.941406 310.203125 400.617188 C 312.21875 396.019531 312.613281 390.625 316.21875 387.074219 C 319.664063 383.679688 323.039063 374.980469 324.664063 367.585938 C 325.113281 365.542969 331.699219 362.871094 334.832031 359.878906 C 335.082031 359.640625 335.453125 359.839844 335.417969 360.179688 C 333.78125 376.324219 324.980469 388.128906 319.257813 401.65625 C 317.371094 406.109375 320.558594 408.894531 323.773438 404.515625 C 332.085938 393.1875 338.777344 376.726563 341.597656 361.675781 C 344.746094 358.316406 346.636719 353.492188 348.734375 349.082031 C 362.589844 341.945313 356.082031 325.574219 367.835938 316.96875 C 371.847656 321.824219 375.605469 313.527344 374.539063 309.113281 C 373.753906 305.84375 377.859375 303.828125 379.695313 301.617188 C 380.03125 301.214844 380.09375 301.453125 379.9375 301.988281 Z M 397.011719 271 C 393.652344 271 392.183594 276.878906 390.085938 274.566406 C 391.34375 271 396.171875 271.628906 397.011719 268.0625 C 397.851563 268.269531 398.902344 270.578125 397.011719 271 Z M 394.734375 100.222656 C 391.378906 101.109375 374.90625 105.003906 367.835938 107.90625 C 367.914063 97.257813 373.082031 87.753906 378.960938 79.570313 C 385.808594 77.558594 392.203125 74.847656 396.304688 74.351563 C 396.871094 78.972656 398.683594 97.15625 394.734375 100.222656 Z M 162.316406 137.367188 C 165.757813 142.851563 170.15625 150.636719 172.417969 153.246094 C 164.828125 156.835938 141.777344 162.851563 133.164063 162.691406 C 136.734375 155.554688 140.09375 147.785156 142.609375 140.648438 C 147.476563 139.730469 158.441406 137.867188 162.316406 137.367188 Z M 146.347656 132.613281 C 148.28125 127.15625 150.242188 120.867188 153.214844 115.710938 C 153.382813 115.414063 153.757813 115.4375 153.804688 115.753906 C 154.464844 120.433594 156.617188 126.71875 157.566406 129.886719 C 157 130.628906 149.683594 132.660156 146.71875 133.035156 C 146.519531 133.0625 146.292969 132.773438 146.347656 132.613281 Z M 170.921875 138.34375 C 169.945313 136.402344 170.0625 135.121094 172.53125 134.140625 C 173.253906 133.855469 186.160156 130.554688 192.082031 129.214844 C 192.25 129.175781 192.390625 129.445313 192.304688 129.617188 C 188.585938 136.761719 184.539063 142.84375 180.394531 150.097656 C 178.261719 148.625 172.578125 141.632813 170.921875 138.34375 Z M 177.261719 178.765625 C 176.863281 180.730469 180.507813 186.960938 181.378906 188.445313 C 182.308594 190.027344 183.300781 191.574219 183.09375 193.617188 C 182.863281 195.902344 186.023438 198.273438 188.792969 200.128906 C 190.214844 201.078125 191.378906 202.328125 191.550781 204.558594 C 191.945313 209.640625 201.011719 211.621094 206.660156 212.875 C 215.289063 214.789063 216.101563 217.40625 206.941406 217.226563 C 196.503906 217.019531 191.726563 214.820313 189.347656 207.710938 C 187.820313 203.140625 185.453125 198.753906 181.292969 196.519531 C 176.539063 193.96875 175.1875 186.96875 174.472656 178.34375 C 174.21875 175.292969 178.085938 174.726563 177.261719 178.765625 Z M 190.46875 149.257813 C 193.195313 141.699219 196.765625 134.984375 201.171875 127.007813 C 206.855469 124.964844 213.714844 123.277344 220.613281 121.441406 C 226.726563 128.976563 231.242188 132.957031 236.855469 138.550781 C 226.992188 140.859375 195.714844 147.785156 190.46875 149.257813 Z M 210.972656 105.507813 C 211.085938 105.277344 211.40625 105.226563 211.5 105.40625 C 213.183594 108.644531 217.113281 114.191406 215.210938 116.34375 C 214.539063 117.101563 207.828125 118.0625 206.9375 118.121094 C 201.582031 118.621094 209.15625 109.144531 210.972656 105.507813 Z M 256.589844 105.386719 C 244.832031 108.117188 234.546875 110.003906 223.214844 113.363281 C 217.546875 105.808594 215.445313 92.582031 217.125 81.667969 C 235.808594 77.261719 251.761719 73.691406 269.601563 69.074219 C 270.652344 71.171875 260.367188 96.570313 256.589844 105.386719 Z M 271.394531 85.300781 C 271.496094 84.9375 271.828125 84.9375 271.898438 85.316406 C 272.785156 90.089844 274.328125 95.445313 275.6875 99.71875 C 274.289063 100.71875 269.742188 101.746094 266.308594 102.675781 C 266.070313 102.742188 265.734375 102.460938 265.792969 102.257813 C 267.636719 96.050781 269.660156 91.460938 271.394531 85.300781 Z M 228.257813 119.914063 C 228.117188 119.761719 228.296875 119.324219 228.542969 119.257813 C 234.019531 117.769531 244.632813 114.761719 251.4375 113.074219 C 251.617188 113.03125 251.851563 113.335938 251.792969 113.527344 C 249.625 120.574219 246.648438 126.976563 243.992188 133.515625 C 238.589844 130.035156 233.75 125.859375 228.257813 119.914063 Z M 240.273438 155.425781 C 241.257813 154.761719 266.027344 143.734375 281.53125 140.523438 C 282.492188 140.324219 282.640625 140.859375 281.804688 141.277344 C 269.699219 147.355469 256.640625 153.386719 243.714844 158.753906 C 241.339844 159.738281 236.496094 157.976563 240.273438 155.425781 Z M 251.96875 134.984375 C 254.277344 127.847656 257.925781 118.121094 261.992188 110.480469 C 267.046875 109.574219 274.792969 107.472656 278.878906 106.609375 C 283.683594 112.980469 289.210938 119.875 295.675781 124.496094 C 295.867188 124.636719 295.796875 125.027344 295.542969 125.09375 C 286.621094 127.34375 263.195313 132.261719 251.96875 134.984375 Z M 319.558594 88.175781 C 309.902344 90.902344 290.511719 96.148438 282.75 97.578125 C 277.109375 88.410156 281 78.019531 277.890625 69.339844 C 277.46875 68.160156 277.960938 67.398438 279.085938 67.105469 C 291.421875 63.851563 319.320313 55.75 330.054688 53.960938 C 329.996094 58.429688 326.625 77.253906 319.558594 88.175781 Z M 333.617188 74.199219 C 333.789063 73.777344 334.15625 73.761719 334.28125 74.128906 C 335.25 76.964844 338.691406 80.511719 338.988281 82.632813 C 336.695313 83.445313 331.984375 84.308594 329.316406 84.609375 C 329.085938 84.636719 328.800781 84.367188 328.878906 84.195313 C 329.988281 81.734375 332.445313 77.0625 333.617188 74.199219 Z M 287.234375 103.917969 C 296.890625 101.398438 306.335938 98.878906 315.988281 96.359375 C 312.804688 105.34375 308.664063 112.742188 307.382813 122.390625 C 302.535156 120.054688 290.578125 111.050781 287.234375 103.917969 Z M 325.015625 93.84375 C 331.25 91.671875 336.140625 90.484375 342.648438 88.804688 C 349.363281 94.890625 358.808594 109.585938 358.808594 110.425781 C 343.613281 114.140625 330.738281 118.324219 315.359375 121.550781 C 316.515625 112.3125 322.285156 103.289063 325.015625 93.84375 Z M 350.621094 87.125 C 356.566406 84.847656 362.328125 83.765625 367.800781 82.796875 C 367.953125 82.769531 368.082031 83.078125 367.992188 83.261719 C 365.726563 87.925781 362.945313 92.820313 361.328125 98.878906 C 357.59375 94.890625 354.402344 91.113281 350.621094 87.125 Z M 383.054688 70.46875 C 386.699219 63.703125 389.453125 57.5 394.695313 51.890625 C 394.839844 51.738281 395.15625 51.804688 395.171875 51.988281 C 395.589844 57.011719 395.472656 65.019531 394.566406 66.492188 C 392.355469 70.082031 387.703125 70.128906 383.378906 70.902344 C 383.171875 70.9375 382.953125 70.652344 383.054688 70.46875 Z M 395.851563 34.496094 C 396.15625 34.394531 396.328125 34.710938 396.199219 34.949219 C 388.523438 48.898438 379.691406 60.496094 373.292969 74.53125 C 363.636719 77.050781 356.289063 77.890625 347.265625 81.667969 C 340.546875 73.273438 334.039063 62.355469 339.710938 51.441406 C 346.96875 48.617188 388.351563 37.070313 395.851563 34.496094 Z M 148.570313 83.070313 C 155.664063 68.171875 164.054688 53.289063 179.65625 44.074219 C 183.605469 41.742188 206.914063 26.296875 215.238281 22.128906 C 224.003906 17.738281 236.925781 13.800781 245.546875 13.683594 C 252.121094 13.59375 258.617188 11.246094 265.308594 10.320313 C 277.183594 8.671875 295.714844 16.199219 310.699219 19.234375 C 311.640625 19.421875 311.675781 20.253906 310.714844 20.320313 C 307.867188 20.515625 304.730469 19.753906 302 19.191406 C 295.796875 17.914063 274.636719 21.773438 257.484375 25.550781 C 247.976563 27.640625 238.578125 30.933594 236.320313 30.390625 C 232.769531 29.53125 231.96875 33.359375 235.757813 34.15625 C 242.570313 35.585938 259.730469 30.375 261.304688 29.972656 C 285.699219 23.738281 310.300781 26.328125 335.980469 27.113281 C 348.164063 27.488281 354.761719 27.617188 363.847656 32.339844 C 345.796875 43.878906 322.492188 48.675781 300.832031 54.191406 C 251.015625 66.875 202.152344 79.699219 152.695313 92.53125 C 143.144531 95.011719 145.59375 89.328125 148.570313 83.070313 Z M 133.585938 102.867188 C 147.511719 103.9375 190.414063 88.804688 206.210938 84.1875 C 209.585938 83.265625 210.019531 84.933594 209.703125 87.277344 C 209.367188 89.742188 199.703125 111.265625 196.554688 120.5 C 195.507813 121.550781 175.566406 126.585938 165.910156 128.476563 C 161.886719 121.664063 161.566406 114.402344 160.144531 107.070313 C 159.136719 101.878906 153.320313 101.691406 150.054688 105.910156 C 146.191406 110.90625 138.414063 134.144531 136.523438 138.132813 C 135.054688 137.921875 135.578125 135.972656 136.105469 134.5625 C 138.511719 129.34375 134.179688 126.171875 131.867188 122.164063 C 128 115.46875 133.714844 111.449219 133.585938 102.867188 Z M 136.878906 177.707031 C 138.121094 174.785156 140.058594 175.324219 146.597656 174.863281 C 146.617188 197.261719 154.199219 227.015625 167.296875 223.75 C 170.714844 222.898438 173.363281 219.402344 167.039063 217.726563 C 158.484375 215.453125 152.894531 190.796875 154.15625 173.394531 C 157.722656 172.554688 160.871094 171.085938 164.230469 170.246094 C 167.480469 176.667969 168.277344 184.816406 169.238281 192.847656 C 172.023438 216.117188 180.378906 226.636719 189.503906 222.253906 C 190.769531 221.644531 191.78125 221.5625 191.921875 223.164063 C 192.609375 231.085938 225.722656 233.933594 237.324219 213.53125 C 240.621094 207.734375 243.132813 200.671875 246.183594 194.410156 C 248.386719 189.894531 250.6875 185.960938 253.898438 183.976563 C 282.484375 166.324219 314.390625 152.148438 345.164063 136.660156 C 348.128906 135.105469 349.339844 136.542969 350.375 137.808594 C 353.671875 141.828125 360.457031 138.058594 364.109375 135.410156 C 367.660156 132.835938 376.734375 128.332031 384.417969 125.535156 C 385.445313 131.664063 390.433594 135.085938 387.105469 142.65625 C 385.160156 147.082031 387.007813 150.414063 389.863281 148.566406 C 392.296875 146.996094 393.589844 148.046875 394.4375 150.21875 C 396.011719 154.238281 396.984375 160.832031 399.109375 164.367188 C 403.53125 174.507813 394.730469 197.582031 393.332031 202.941406 C 390.023438 215.636719 384.503906 220.121094 371.605469 226.679688 C 361.992188 231.566406 360.550781 235.671875 356.589844 244.234375 C 354.949219 247.769531 358.710938 250.445313 361.679688 248.550781 C 365.824219 245.902344 363.832031 238.730469 371.402344 237.414063 C 371.402344 242.753906 375.964844 244.601563 377.390625 238.90625 C 378.660156 233.855469 376.976563 231.796875 381.722656 228.980469 C 392.148438 222.800781 395.769531 223.054688 399.984375 207.265625 C 400.890625 203.863281 401.683594 204.675781 402.578125 207.355469 C 405.519531 216.121094 409.335938 242.21875 402.941406 251.113281 C 401.507813 253.109375 398.589844 256.226563 395.960938 265.121094 C 393.300781 264.417969 391.28125 265.144531 389.4375 266.425781 C 386.335938 268.589844 365.242188 285.296875 357.695313 291.054688 C 355.332031 293.105469 355.332031 290.460938 356.195313 289.84375 C 366.066406 282.757813 377.769531 272.195313 387.863281 265.082031 C 394.214844 260.605469 390.351563 253.765625 383.078125 260.703125 C 371.464844 271.785156 366.929688 276.515625 354.09375 284.003906 C 354.09375 283.582031 354.09375 283.160156 354.09375 282.53125 C 364.207031 276.664063 370.054688 268.128906 379.363281 261.269531 C 382.054688 259.289063 379.554688 254.214844 376.460938 256.09375 C 368.078125 261.195313 359.601563 271.980469 352.003906 277.371094 C 351.792969 277.519531 351.582031 277.261719 351.699219 276.996094 C 354.722656 270.105469 364.144531 264.871094 369.507813 258.214844 C 371.722656 255.46875 370.707031 252.761719 367.597656 254.902344 C 360.132813 260.050781 353.351563 266.910156 347.265625 272.050781 C 342.039063 269.621094 341.285156 276.890625 341.71875 281.992188 C 342.714844 293.78125 349.324219 302.636719 348.734375 314.449219 C 343.3125 312.78125 345.675781 322.886719 347.824219 327.523438 C 348.671875 329.351563 349.609375 331.210938 348.105469 332.5 C 345.585938 334.808594 345.585938 339.847656 341.179688 339.636719 C 339.8125 333.839844 341.082031 327.210938 337.777344 322.675781 C 334.769531 318.546875 330.878906 319.570313 333.589844 324.855469 C 335.707031 328.988281 336.0625 350.027344 331.945313 354.839844 C 329.949219 357.179688 329.125 356.296875 329.167969 353.609375 C 329.433594 336.796875 322.96875 323.695313 320.472656 308.34375 C 319.441406 301.984375 313.144531 302.644531 314.695313 310.058594 C 316.398438 318.195313 325.117188 343.933594 322.078125 357.269531 C 318.929688 361.886719 312.421875 367.132813 306.964844 365.875 C 305.535156 343.222656 305.496094 321.960938 304.914063 299.195313 C 304.816406 295.316406 300.277344 294.390625 300.175781 298.554688 C 299.625 320.972656 299.640625 344.761719 300.222656 366.515625 C 300.230469 366.792969 299.871094 366.9375 299.617188 366.726563 C 297.226563 364.746094 291.195313 362.488281 290.433594 361.734375 C 287.578125 358.921875 287.445313 354.496094 287.621094 349.742188 C 287.839844 343.835938 287.171875 332.671875 285.480469 324.269531 C 283.871094 316.253906 281.792969 308.019531 282.195313 300.386719 C 282.785156 295.078125 277.960938 294.871094 278.144531 300.167969 C 278.546875 311.914063 283.921875 334.925781 283.246094 354.121094 C 282.980469 357.488281 282.335938 359.363281 280.511719 360.011719 C 277.441406 361.097656 272.59375 359.773438 270.066406 362.742188 C 268.277344 364.84375 264.835938 365.710938 263.59375 364.027344 C 263.160156 363.441406 261.878906 355.757813 261.78125 355.226563 C 260.027344 345.628906 255.179688 316.984375 253.589844 309.957031 C 252.253906 304.058594 249.1875 305.632813 249.667969 310.605469 C 251.347656 328.082031 253.023438 345.582031 257.007813 358.539063 C 257.453125 359.996094 257.953125 361.476563 257.050781 362.925781 C 255.785156 364.953125 249.277344 364.136719 246.171875 362.355469 C 243.328125 360.730469 240.011719 353.675781 239.582031 351.957031 C 236.164063 338.222656 238.40625 323.734375 236.214844 308.765625 C 235.289063 302.441406 230.855469 304.207031 231.71875 310.394531 C 234.21875 328.378906 229.671875 352.878906 236.4375 360.207031 C 232.867188 362.515625 227.910156 356.300781 226.363281 353.28125 C 220.574219 338.714844 225.222656 323.386719 220.464844 308.5625 C 218.332031 302.644531 215.222656 302.84375 215.757813 308.878906 C 216.496094 317.15625 218.492188 347.582031 221.742188 358.316406 C 218.875 358.789063 216.199219 354.726563 214.003906 350.621094 C 208.179688 339.742188 213.636719 327.5 209.507813 316.304688 C 208.726563 314.183594 205.160156 304.324219 204.53125 300.804688 C 207.136719 300.359375 209.53125 300.683594 211.140625 300.644531 C 214.902344 300.5625 213.796875 296.300781 210.363281 295.648438 C 198.855469 293.460938 184.339844 296.804688 173.425781 292.113281 C 172.957031 291.910156 172.957031 291.421875 173.429688 291.402344 C 185.34375 290.953125 201.179688 290.777344 213.1875 291.742188 C 219.820313 292.277344 220.179688 286.890625 213.1875 286.464844 C 194.03125 285.292969 176.957031 286.929688 158.230469 286.726563 C 156.703125 286.296875 155.691406 285.871094 154.589844 285.296875 C 154.3125 285.152344 154.261719 284.6875 154.554688 284.613281 C 162.972656 282.519531 186.140625 282.164063 202.109375 282.570313 C 209.574219 282.757813 209.808594 277.085938 201.59375 277.085938 C 183.960938 276.667969 165.699219 277.714844 148.699219 280.234375 C 148.015625 278.984375 147.128906 277.96875 146.078125 276.082031 C 161.566406 274.671875 179.652344 272.644531 195.542969 272.664063 C 200.1875 272.671875 199.316406 266.835938 194.578125 267.203125 C 177.445313 268.535156 161.53125 269.140625 144.710938 271 C 143.847656 270.324219 142.421875 268.519531 142.421875 267.046875 C 152.566406 266.109375 164.878906 265.140625 175.324219 263.59375 C 179.847656 262.925781 177.855469 259.929688 173.820313 260.265625 C 163.785156 261.105469 155.835938 261.714844 146.292969 262.945313 C 139.476563 263.828125 138.695313 259.351563 135.894531 247.980469 C 132.035156 232.308594 129.074219 208.84375 128.546875 197.113281 C 135.886719 196.136719 134.511719 184.082031 136.878906 177.707031 Z M 73.089844 143.136719 C 64.128906 133.539063 71.488281 113.945313 83.582031 108.183594 C 91.574219 104.375 94.09375 107.800781 92.234375 110.84375 C 89 115.695313 94.585938 120.105469 100.761719 119.949219 C 103.429688 119.878906 103.839844 120.867188 102.644531 122.898438 C 100.730469 126.15625 103.953125 129.183594 107.976563 126.585938 C 109.480469 125.609375 110.070313 123.367188 110.5625 121.171875 C 112.191406 113.890625 115.132813 114.265625 118.71875 119.785156 C 121.914063 124.707031 124.125 130.394531 126.277344 136.015625 C 129.085938 143.339844 122.511719 151.324219 119.105469 149.703125 C 115.421875 147.949219 112.425781 143.011719 117.578125 139.914063 C 120.027344 138.445313 118.574219 135.066406 116.085938 133.621094 C 110.15625 130.183594 98.011719 132.417969 90.929688 129.617188 C 86.527344 127.839844 81.214844 130.296875 84.230469 135.050781 C 85.371094 136.84375 87.863281 137.425781 90.273438 137.496094 C 90.4375 137.5 90.582031 137.941406 90.492188 138.164063 C 88.035156 144.089844 85.195313 150.722656 82.160156 156.183594 C 81.449219 157.394531 80.699219 157.367188 80.648438 156.148438 C 80.695313 151.492188 77.335938 147.679688 73.089844 143.136719 Z M 120.992188 192.914063 C 120.804688 194.597656 120.449219 196.113281 120.523438 197.90625 C 120.53125 198.128906 120.253906 198.320313 120.089844 198.1875 C 115.382813 194.28125 110.089844 189.664063 104.828125 184.519531 C 105.039063 182 104.871094 179.621094 105.457031 177.382813 C 110.707031 182.632813 115.539063 187.90625 120.992188 192.914063 Z M 68.363281 362.054688 C 66.871094 359.945313 65.441406 357.773438 65.15625 354.75 C 69.523438 351.902344 72.980469 349.34375 77.75 347.195313 C 80.378906 355.007813 82.410156 394.71875 83.964844 400.085938 C 87.640625 412.75 89.414063 425.863281 91.183594 437.871094 C 84.046875 434.933594 65.753906 437.484375 59.488281 442.277344 C 57.253906 431.089844 63.242188 398.636719 67.007813 388.046875 C 70.984375 376.859375 73.601563 369.46875 68.363281 362.054688 Z M 90 387.019531 C 89.90625 387.179688 89.636719 387.050781 89.597656 386.824219 C 87.164063 372.964844 83.636719 350.414063 84.257813 341.105469 C 80.898438 341.554688 79.75 340.269531 79.441406 338.335938 C 76.5625 320.34375 76.988281 308.714844 81.339844 282.550781 C 81.597656 280.992188 82.105469 281.039063 82.015625 282.753906 C 81.246094 297.351563 77.601563 321.710938 83.488281 325.234375 C 85.820313 326.632813 85.425781 329.03125 84.925781 331.367188 C 83.566406 337.71875 86.308594 339.128906 89.972656 334.921875 C 95.496094 328.574219 93.605469 325.246094 88.660156 319.535156 C 86.25 316.75 86.882813 285.140625 88.964844 252.316406 C 90.269531 231.695313 94.699219 177.996094 99.148438 154.347656 C 99.847656 150.636719 100.886719 150.671875 100.726563 154.355469 C 100.414063 161.523438 97.320313 244.191406 99.636719 255.648438 C 100.808594 261.449219 101.703125 288.433594 101.792969 295.21875 C 102.078125 316.605469 104.257813 348.878906 107.347656 360.207031 C 102.742188 369.527344 95.828125 377.390625 90 387.019531 Z M 89.214844 159.265625 C 90.894531 155.496094 92.160156 155.425781 91.675781 160.054688 C 90.804688 168.378906 85.230469 222.652344 82.183594 249.542969 C 81.050781 259.535156 74.449219 289.914063 72.535156 317.488281 C 71.957031 325.773438 71.945313 334.089844 73.132813 342.574219 C 67.6875 347.050781 54.140625 348.878906 59.070313 357.6875 C 60.882813 361.3125 63.945313 365.089844 65.152344 369.296875 C 65.34375 369.964844 65.460938 373.847656 64.25 373.707031 C 60.589844 372.753906 46.933594 367.160156 38.917969 365.246094 C 40.886719 354.421875 48.390625 345.996094 46.035156 334.4375 C 45.65625 332.574219 45.738281 318.730469 45.886719 317.269531 C 46.886719 307.535156 48.894531 299.082031 45.847656 289.261719 C 45.214844 287.910156 43.535156 288.839844 42.488281 288.632813 C 41.609375 285.3125 42.230469 282.3125 43.164063 279.375 C 44.238281 275.996094 48.363281 260.503906 49.414063 255.886719 C 51.203125 256.335938 52.671875 257.308594 54.347656 257.613281 C 58.144531 258.300781 59.597656 253.785156 55.71875 251.847656 C 53.988281 250.980469 52.164063 250.398438 51.785156 249.003906 C 51.554688 248.167969 54.421875 240.671875 55.785156 239.121094 C 56.878906 237.882813 58.441406 237.324219 60.960938 238.253906 C 63.171875 239.089844 65.214844 236.402344 62.269531 234.058594 C 60.757813 232.8125 59.085938 231.453125 58.019531 229.859375 C 66.835938 205.8125 78.332031 183.683594 89.214844 159.265625 Z M 30.777344 311.515625 C 30.132813 308.964844 27.167969 307.421875 24.855469 306.261719 C 23.816406 302.972656 23.207031 299.398438 23.144531 295.65625 C 23.113281 294.046875 24.253906 294.269531 25.429688 294.464844 C 28.019531 294.898438 29.1875 293.644531 27.007813 290.625 C 26.324219 289.679688 25.484375 288.839844 24.855469 288.210938 C 31.007813 260.089844 48.972656 218.855469 64.164063 196.417969 C 64.996094 195.191406 65.519531 195.648438 64.964844 197.03125 C 53.847656 224.660156 39.175781 265.082031 36.136719 282.964844 C 35.246094 288.210938 35.875 293.039063 41.4375 295.769531 C 40.808594 304.792969 40.390625 314.027344 39.96875 323.054688 C 33.929688 323.054688 32.183594 317.082031 30.777344 311.515625 Z M 17.28125 378.675781 C 17.164063 377.761719 17.648438 377.269531 18.761719 377.589844 C 22.609375 378.699219 27.925781 379.839844 30.902344 380.9375 C 31.265625 382.273438 31.234375 383.613281 31.234375 385.011719 C 27.242188 384.441406 21.257813 382.953125 17.71875 382.457031 C 17.574219 380.835938 17.425781 379.820313 17.28125 378.675781 Z M 18.140625 389.992188 C 18.027344 389.097656 18.5 388.613281 19.589844 388.925781 C 23.363281 390.011719 28.574219 391.132813 31.488281 392.207031 C 31.84375 393.515625 31.816406 394.828125 31.816406 396.199219 C 27.902344 395.640625 22.035156 394.183594 18.570313 393.699219 C 18.429688 392.105469 18.28125 391.113281 18.140625 389.992188 Z M 22.523438 414.796875 C 22.4375 413.824219 22.347656 413.214844 22.261719 412.527344 C 22.191406 411.980469 22.480469 411.683594 23.152344 411.875 C 25.460938 412.539063 30.1875 413.515625 31.976563 414.175781 C 32.195313 414.976563 32.175781 415.78125 32.175781 416.617188 C 29.78125 416.277344 24.648438 415.09375 22.523438 414.796875 Z M 20.054688 404.847656 C 19.917969 403.304688 19.777344 402.339844 19.640625 401.253906 C 19.53125 400.386719 19.988281 399.914063 21.046875 400.222656 C 24.703125 401.273438 29.753906 402.359375 32.582031 403.402344 C 32.925781 404.671875 32.894531 405.945313 32.894531 407.273438 C 29.101563 406.730469 23.417969 405.316406 20.054688 404.847656 Z M 32.445313 363.074219 C 26.722656 362.023438 26.074219 365.011719 31.152344 366.8125 C 31.234375 369.632813 31.179688 371.472656 31.363281 373.851563 C 26.957031 372.382813 21.707031 372.800781 17.71875 370.910156 C 16.25 363.566406 20.910156 357.050781 17.71875 352.230469 C 16.460938 350.550781 16.933594 349.34375 18.058594 348.453125 C 20.9375 346.179688 28.1875 346.3125 31.175781 342.792969 C 33.058594 340.574219 34.296875 338.261719 37.871094 337.117188 C 41.859375 346.773438 32.65625 353.628906 32.445313 363.074219 Z M 38.289063 369.234375 C 47.902344 372.320313 54.625 375.664063 62.742188 378.34375 C 62.203125 380.171875 61.558594 382.105469 60.960938 383.925781 C 53.402344 381.617188 45.847656 378.46875 37.871094 376.789063 C 37.578125 374.363281 37.449219 371.542969 38.289063 369.234375 Z M 37.839844 383.375 C 40.339844 383.054688 55.710938 388.753906 58.441406 390.433594 C 58.011719 391.246094 57.796875 392.011719 57.796875 392.429688 C 51.066406 390.992188 44.300781 388.144531 37.871094 386.863281 C 37.867188 385.796875 37.726563 384.613281 37.839844 383.375 Z M 54.789063 411.527344 C 49.40625 410.375 43.992188 408.097656 38.847656 407.074219 C 38.847656 406.21875 38.734375 405.273438 38.824219 404.28125 C 40.828125 404.023438 53.121094 408.585938 55.304688 409.929688 C 54.960938 410.578125 54.789063 411.191406 54.789063 411.527344 Z M 38.253906 397.03125 C 38.25 396.070313 38.125 395.003906 38.226563 393.890625 C 40.476563 393.601563 54.308594 398.730469 56.765625 400.242188 C 56.378906 400.976563 56.183594 401.660156 56.183594 402.039063 C 50.128906 400.742188 44.039063 398.183594 38.253906 397.03125 Z M 91.566406 480.292969 C 89.371094 481.558594 89.515625 487.054688 83.628906 484.679688 C 78.003906 488.335938 66.511719 488.675781 67.875 483.394531 C 68.433594 481.238281 73.175781 479.253906 75.828125 481.296875 C 78.8125 483.597656 80.890625 482.640625 82.261719 479.828125 C 84.042969 476.195313 89.390625 478.113281 91.597656 479.578125 C 91.855469 479.746094 91.765625 480.175781 91.566406 480.292969 Z M 109.433594 482.261719 C 106.859375 481.769531 103.726563 482.921875 101.15625 483.472656 C 95.464844 484.691406 95.570313 479.929688 97.851563 478.09375 C 100.75 475.761719 100.480469 474.601563 97.609375 473.539063 C 94.941406 472.550781 92.167969 470.945313 91.183594 470.617188 C 91.511719 466.859375 89.085938 466.304688 86.558594 468.554688 C 83.28125 471.359375 79.320313 472.175781 72.714844 472.503906 C 73.710938 469.40625 71.363281 469.632813 68.878906 471.320313 C 64.738281 474.125 61.574219 479.464844 56.550781 475.652344 C 56.503906 471.464844 56.613281 464.800781 59.070313 463.058594 C 61.144531 463.867188 63.789063 462.269531 66.027344 461.253906 C 71.496094 458.777344 75.78125 464.386719 81.988281 457.484375 C 84.285156 454.933594 83.003906 450.753906 78.667969 453.203125 C 75.582031 454.949219 72.953125 457.804688 68.515625 455.921875 C 65.773438 454.730469 62.765625 455.160156 60.066406 455.714844 C 59.726563 455.78125 59.351563 455.351563 59.496094 455.054688 C 60.421875 453.132813 61.449219 450.890625 62.804688 448.925781 C 67.46875 442.144531 88.453125 442.117188 91.691406 443.449219 C 96.144531 454.855469 102.714844 471.804688 109.796875 481.636719 C 110.027344 481.960938 109.800781 482.332031 109.433594 482.261719 Z M 116.957031 441.144531 C 116.976563 441.03125 117.199219 441.132813 117.289063 441.292969 C 121.339844 448.460938 115.066406 455.226563 113.015625 461.589844 C 107.023438 456.011719 115.878906 448.195313 116.957031 441.144531 Z M 118.050781 476.074219 C 113.855469 471.035156 119.519531 465.789063 120.992188 460.960938 C 124.347656 464.738281 119.519531 471.453125 118.050781 476.074219 Z M 133.515625 467.453125 C 129.570313 465.226563 126.195313 458.90625 126.449219 454.871094 C 130.480469 456.027344 130.121094 462.097656 134.371094 462.480469 C 136.359375 462.65625 135.484375 468.566406 133.515625 467.453125 Z M 135.242188 454.0625 C 129.148438 449.945313 125.363281 443.289063 122.429688 432.246094 C 122.296875 431.75 122.695313 431.535156 123.023438 431.949219 C 127.46875 437.539063 132.171875 444.871094 136.289063 451.574219 C 136.867188 452.519531 137.046875 455.230469 135.242188 454.0625 Z M 128.546875 410.585938 C 125.398438 409.113281 127.265625 404.828125 128.128906 404.078125 C 132.054688 402.664063 131.996094 405.71875 132.53125 409.203125 C 133.160156 412.773438 130.160156 411.25 128.546875 410.585938 Z M 136.269531 427.277344 C 136.832031 429.960938 135.769531 430.289063 134.101563 428.601563 C 132.28125 426.757813 129.925781 423.300781 128.96875 421.289063 C 126.628906 417.230469 128.691406 417.855469 131.050781 419.492188 C 135.261719 422.414063 135.367188 423.050781 136.269531 427.277344 Z M 138.570313 384.558594 C 132.703125 379.210938 122.316406 365.601563 121.933594 363.730469 C 121.164063 359.949219 116.574219 333.296875 114.007813 324.339844 C 112.4375 318.871094 107.8125 289.816406 106.925781 279.1875 C 113.089844 276.535156 112.640625 273.886719 107.945313 271.585938 C 105.699219 270.484375 106.757813 262.457031 106.925781 260.085938 C 108.816406 260.757813 110.53125 261.953125 112.460938 262.496094 C 117.53125 263.929688 118.21875 257.039063 113.984375 255.589844 C 107.523438 253.375 104.953125 249.671875 104.710938 244.039063 C 104.410156 236.992188 107.632813 243.011719 111.296875 246.664063 C 118.3125 253.667969 123.089844 248.089844 115.167969 241.386719 C 111.25 238.066406 104.464844 233.5 104.414063 229.742188 C 104.007813 222.097656 104.414063 216.453125 104.78125 208.980469 C 104.796875 208.667969 105.183594 208.5625 105.378906 208.835938 C 107.949219 212.351563 112.769531 216.261719 117.34375 218.605469 C 124.53125 222.28125 123.882813 216.433594 118.007813 211.894531 C 114.585938 209.25 111.519531 206.304688 108.140625 202.941406 C 104.679688 199.496094 104.785156 197.707031 104.820313 193.605469 C 104.824219 193.253906 105.253906 193.140625 105.488281 193.453125 C 108.613281 197.632813 114.394531 200.867188 118.800781 204.746094 C 121.269531 206.917969 122.6875 209.03125 123.550781 211.867188 C 123.996094 213.328125 136.136719 274.515625 140.140625 294.367188 C 141.910156 303.136719 141.789063 310.496094 135.433594 310.0625 C 129.035156 309.621094 128.957031 319.539063 133.484375 326.882813 C 140.105469 337.609375 136.992188 360.433594 138.992188 384.375 C 139.007813 384.574219 138.730469 384.703125 138.570313 384.558594 Z M 138.757813 320.453125 C 133.628906 317.074219 137.171875 315.816406 139.847656 315.363281 C 146.929688 314.167969 148.417969 309.980469 148.476563 306.507813 C 148.5 305.179688 146.882813 293.519531 145.675781 288.789063 C 145.441406 287.886719 145.804688 287.710938 146.425781 288.425781 C 152.578125 295.53125 163.320313 297.527344 170.945313 300.386719 C 178.558594 319.691406 175.570313 341.359375 174.375 362.535156 C 173.617188 375.917969 172.613281 390.667969 179.921875 395.863281 C 187.382813 401.167969 193.222656 408.113281 198.503906 415.402344 C 206.320313 426.195313 208.082031 429.898438 218.683594 436.269531 C 219.003906 436.460938 218.917969 436.808594 218.554688 436.800781 C 194.164063 436.269531 173.046875 434.9375 149.746094 437.242188 C 149.355469 426.308594 147.921875 415.054688 146.648438 403.632813 C 145.105469 389.820313 144.441406 347.484375 143.78125 337.59375 C 143.4375 332.417969 142.316406 322.796875 138.757813 320.453125 Z M 228.460938 475.085938 C 225.480469 475.503906 221.363281 476.550781 219.644531 473.136719 C 218.394531 470.636719 215.6875 471.679688 213.09375 474.496094 C 211.097656 476.660156 207.898438 475.699219 204.53125 476.074219 C 204.53125 472.410156 200.5625 471.289063 199.492188 475.023438 C 199.414063 475.660156 197.535156 476.382813 195.859375 476.5625 C 188.835938 477.316406 154.765625 479.726563 146.179688 481.109375 C 141.5625 483.210938 142.609375 477.375 142.609375 474.226563 C 149.1875 473.898438 180.507813 473.398438 196.929688 470.320313 C 204.394531 468.921875 222.605469 467.953125 230.757813 470.664063 C 232.304688 471.175781 230.980469 474.730469 228.460938 475.085938 Z M 299.414063 462.753906 C 279.035156 463.304688 249.953125 465.609375 236.605469 463.832031 C 226.289063 462.460938 215.761719 460.914063 205.621094 462.171875 C 197.808594 463.144531 157.339844 467.675781 143.238281 467.046875 C 143.496094 465.335938 144.144531 463.507813 144.574219 462.109375 C 147.925781 461.351563 206.863281 460.53125 223.597656 455.832031 C 227.15625 454.832031 226.101563 450.246094 221.917969 450.976563 C 209.464844 453.15625 169.945313 454.421875 145.757813 456.554688 C 146.617188 453.292969 147.261719 449.53125 148.277344 445.429688 C 167.113281 444.390625 230.957031 443.730469 266.296875 443.273438 C 275.152344 443.160156 353.714844 447.449219 372.871094 446.898438 C 393.441406 446.269531 411.496094 448.367188 431.855469 446.898438 C 432.21875 447.914063 432.542969 448.992188 432.90625 449.835938 C 428.078125 453.195313 400.992188 451.769531 392.644531 451.101563 C 383.257813 450.347656 355.757813 447.511719 348.382813 449.835938 C 343.089844 451.503906 337.335938 451.203125 331.566406 450.421875 C 318.929688 448.703125 282.816406 447.914063 270.652344 448.367188 C 269.601563 449.625 269.390625 451.09375 270.019531 452.355469 C 278.417969 455.714844 310.394531 455.507813 316.746094 456.296875 C 325.757813 457.417969 339.472656 459.195313 352.195313 457.136719 C 378.917969 452.808594 408.171875 463.726563 434.792969 456.972656 C 435.445313 458.886719 436.410156 461.464844 437.3125 463.058594 C 390.28125 461.851563 345.097656 461.511719 299.414063 462.753906 Z M 447.195313 463.054688 C 444.777344 460.789063 440.09375 450.519531 439.773438 449.835938 C 438.398438 446.910156 441.144531 446.484375 444.246094 446.859375 C 446.710938 447.15625 449.5625 446.898438 451.375 446.898438 C 451.695313 441.445313 465.75 441.945313 467.539063 443.960938 C 466.664063 449.210938 469.585938 453.003906 472.164063 457.285156 C 474.554688 461.253906 475.921875 459.421875 475.65625 457.578125 C 474.988281 452.964844 471.980469 449.183594 472.15625 443.960938 C 477.402344 442.488281 479.714844 445.21875 485.171875 444.796875 C 485.292969 446.527344 484.398438 447.382813 483.429688 448.265625 C 480.929688 450.542969 480.476563 457.714844 481.183594 462.429688 C 478.664063 461.746094 476.683594 461.808594 475.792969 463.710938 C 474.410156 466.664063 468.148438 468.851563 466.328125 464.40625 C 465.054688 461.289063 465.316406 452.949219 461.367188 447.453125 C 458.78125 443.859375 455.636719 444.746094 457.285156 448.921875 C 458.152344 451.125 459.4375 453.289063 457.890625 455.144531 C 455.5 458.015625 461.683594 462.109375 459.695313 465.003906 C 457.464844 468.664063 456.414063 460.929688 453.894531 462.429688 C 450.640625 464.597656 448.636719 464.402344 447.195313 463.054688 Z M 453.503906 425.308594 C 451.695313 425.25 451.378906 424.515625 453.234375 424.195313 C 465.089844 422.15625 501.3125 418.039063 509.933594 419.21875 C 511.164063 419.386719 511.210938 420.171875 510.394531 420.28125 C 497.894531 421.960938 467.113281 425.757813 453.503906 425.308594 Z M 507.421875 426.746094 C 494.917969 428.425781 473.570313 431.378906 459.964844 430.925781 C 458.15625 430.867188 457.839844 430.132813 459.691406 429.8125 C 471.550781 427.773438 498.339844 424.507813 506.960938 425.683594 C 508.191406 425.851563 508.234375 426.636719 507.421875 426.746094 Z M 448.027344 418.882813 C 444.738281 419.148438 444.164063 418.539063 447.464844 417.660156 C 466.503906 412.929688 502.246094 409.738281 515.464844 410.609375 C 517.710938 410.753906 517.320313 411.679688 515.671875 411.847656 C 496.542969 413.773438 461 417.835938 448.027344 418.882813 Z M 481.035156 407.109375 C 467.375 408.617188 454.359375 411.179688 446.515625 410.816406 C 441.09375 410.5625 441.339844 409.570313 446.097656 409.15625 C 457.722656 408.152344 469.671875 406.15625 480.828125 406.328125 C 482.648438 406.355469 482.753906 406.917969 481.035156 407.109375 Z M 477.714844 480.703125 C 474.824219 480.9375 470.660156 479.953125 467.699219 479.699219 C 464.0625 479.523438 464.160156 478.246094 467.382813 478.265625 C 470.808594 478.28125 474.371094 477.910156 477.59375 478.386719 C 480.859375 478.867188 481.347656 480.40625 477.714844 480.703125 Z M 498.8125 496.855469 C 497.136719 498.226563 491.363281 499.335938 492.054688 502.835938 C 492.28125 503.980469 491.484375 504.765625 490.289063 505.449219 C 485.0625 508.449219 482.429688 511.472656 477.613281 515.324219 C 477.070313 515.597656 476.179688 516.238281 475.210938 516.808594 C 473.398438 517.878906 471.324219 518.6875 470.804688 516.3125 C 470.265625 513.847656 469.644531 513.667969 468.394531 515.511719 C 465.34375 520 463.332031 513.535156 459.496094 510.308594 C 459.3125 510.152344 459.253906 509.691406 459.402344 509.601563 C 463.257813 507.183594 459.863281 503.226563 455.632813 504.484375 C 453.546875 505.105469 451.679688 506.246094 451.375 502.730469 C 454.828125 503.464844 455.882813 501.589844 456.878906 499.601563 C 459.675781 494.003906 463.351563 493.917969 467.539063 494.753906 C 467.328125 496.015625 466.539063 497.117188 466.015625 498.242188 C 464.191406 502.164063 467.882813 504.445313 472.589844 500.007813 C 474.96875 497.765625 477.019531 495.050781 479.441406 497.148438 C 481.339844 498.796875 482.628906 498.9375 484.03125 497.257813 C 484.824219 496.304688 485.507813 495.257813 486.640625 495.175781 C 490.839844 494.753906 495.453125 494.753906 499.234375 493.285156 C 501.148438 492.433594 500.289063 495.660156 498.8125 496.855469 Z M 503.925781 467.855469 C 502.050781 472.234375 499.75 470.523438 499.769531 466.84375 C 499.773438 465.894531 499.824219 464.910156 499.816406 464.046875 C 499.765625 459.691406 496.511719 461.074219 496.300781 463.402344 C 495.988281 466.914063 491.46875 465.875 489.15625 465.996094 C 487.058594 460.960938 488.949219 455.082031 489.789063 449.835938 C 490.628906 446.269531 495.453125 444.589844 498.8125 446.898438 C 497.710938 453.875 507.054688 460.535156 503.925781 467.855469 Z M 524.847656 444.679688 C 524.429688 447.136719 522.34375 461.160156 519.761719 467.015625 C 518.441406 470.003906 512.683594 471.128906 512.433594 466.195313 C 512.285156 463.265625 512.738281 460.078125 512.191406 457.257813 C 511.871094 455.601563 511.242188 455.300781 510.304688 456.320313 C 508.78125 457.980469 508.175781 456.875 507.683594 455.160156 C 506.628906 451.457031 504.457031 446.964844 507.832031 445.105469 C 510.625 443.566406 520.933594 441.324219 521.789063 441.273438 C 524.792969 441.097656 525.203125 442.59375 524.847656 444.679688 Z M 531.589844 444.691406 C 531.582031 444.445313 531.96875 444.328125 532.171875 444.523438 C 535.550781 447.753906 538.886719 453.082031 537.015625 458.441406 C 535.546875 461.589844 534.707031 467.886719 530.507813 467.046875 C 528.683594 459.335938 531.761719 451.820313 531.589844 444.691406 Z M 530.199219 415.042969 C 529.070313 419.617188 523.941406 431.140625 524.421875 435.351563 C 518.75 436.742188 517.953125 434.925781 518.558594 432.214844 C 520.542969 423.289063 531.242188 408.113281 526.082031 402.121094 C 523.988281 399.6875 522.464844 396.566406 524.003906 394.003906 C 525.238281 391.898438 525.96875 389.5 525.882813 387.15625 C 525.691406 381.992188 522.089844 380.703125 519.644531 387.738281 C 518.851563 390.023438 516.847656 395.871094 516.445313 399.039063 C 514.136719 399.039063 511.828125 399.039063 509.308594 399.039063 C 510.359375 396.941406 510.609375 392.96875 507.421875 392.53125 C 483.109375 390.285156 459.398438 392.015625 437.25 396.171875 C 433.257813 396.921875 435.804688 401.957031 439.621094 401.359375 C 456.113281 398.765625 490.058594 395.363281 501.503906 397.875 C 502.445313 398.082031 502.332031 398.710938 501.578125 398.753906 C 485.148438 399.753906 454.140625 402.214844 441.253906 403.21875 C 436.976563 403.554688 435.4375 403.210938 435.140625 405.429688 C 434.363281 411.222656 435.113281 416.382813 435.417969 421.800781 C 435.679688 426.414063 435.203125 426.796875 433.230469 422.414063 C 432.523438 420.84375 424.164063 392.335938 417.566406 375.410156 C 414.785156 368.273438 414.546875 365.617188 416.28125 357.261719 C 417.25 352.613281 416.046875 348.367188 414.597656 346.035156 C 410.835938 339.96875 411.410156 333.199219 412.078125 326.207031 C 413.351563 312.894531 407.621094 288.847656 415.207031 279.074219 C 419.226563 273.898438 421.472656 265.621094 426.890625 262.636719 C 431.707031 259.980469 437.578125 257.835938 439.796875 261.492188 C 440.808594 263.160156 442.066406 264.703125 444.449219 265.121094 C 448.710938 266.285156 447.8125 262.96875 447.628906 260.28125 C 447.40625 257.078125 451.359375 255.648438 454.523438 255.46875 C 463.265625 255.085938 471.664063 258.148438 479.253906 255.460938 C 489.132813 251.957031 495.3125 258.921875 506.371094 258.40625 C 508.113281 260.519531 507.789063 263.230469 508.199219 265.78125 C 508.972656 270.59375 514.246094 271.171875 514.425781 265.648438 C 514.570313 261.167969 512.652344 257.15625 518.964844 258.40625 C 528.777344 260.734375 538.328125 265.171875 545.003906 272.34375 C 551.636719 279.472656 554.160156 299.539063 553.003906 319.734375 C 552.632813 326.234375 547.214844 358.675781 544.625 367.707031 C 540.632813 381.632813 533.679688 400.898438 530.199219 415.042969 "/>
<path style=" stroke:none;fill-rule:nonzero;fill:rgb(0%,0%,0%);fill-opacity:1;" d="M 292.691406 188.929688 C 290.464844 197.28125 297.429688 203.664063 302.117188 210.839844 C 306.738281 217.902344 319.070313 217.742188 331.996094 218.589844 C 334.902344 218.660156 335.65625 219.519531 332.992188 221.277344 C 331.867188 221.988281 330.636719 222.390625 329.550781 223.003906 C 326.332031 224.820313 327.765625 228.128906 331.4375 226.726563 C 334.304688 225.628906 346.46875 217.4375 349.691406 215.96875 C 357.035156 212.617188 364.984375 210.839844 371.429688 206.105469 C 377.40625 201.710938 379.636719 198.824219 381.109375 192.390625 C 383.175781 183.382813 382.6875 175.640625 384.34375 169.695313 C 385.195313 166.632813 380.929688 156.886719 380.867188 155.214844 C 380.664063 149.746094 377.351563 147.851563 370.878906 150.585938 C 367.546875 151.992188 364.570313 153.761719 364.753906 150.382813 C 364.972656 146.34375 361.707031 145.035156 356.316406 147.289063 C 354.714844 147.957031 344.367188 151.023438 341.179688 155.761719 C 340.757813 155.34375 339.628906 153.027344 339.273438 152.445313 C 337.503906 149.527344 333.1875 151.929688 329.960938 154.355469 C 327.195313 156.4375 324.214844 158.59375 319.976563 157.652344 C 315.59375 156.558594 313.265625 158.859375 310.660156 161.289063 C 308.421875 163.378906 298.070313 170.570313 294.371094 163.738281 C 288.492188 171.085938 295.011719 180.269531 292.691406 188.929688 "/>
<path style=" stroke:none;fill-rule:nonzero;fill:rgb(0%,0%,0%);fill-opacity:1;" d="M 167.378906 248.960938 C 165.75 252.011719 167.328125 253.832031 172.3125 252.855469 C 174.375 252.449219 176.128906 253.769531 178.171875 254.675781 C 182.15625 256.449219 187.679688 252.617188 181.4375 250.542969 C 171.015625 247.078125 143.011719 226.695313 137.847656 215.730469 C 135.089844 209.878906 132.015625 213.21875 133.914063 217.636719 C 139.820313 231.355469 155.269531 239.542969 167.378906 248.960938 "/>
<path style=" stroke:none;fill-rule:nonzero;fill:rgb(0%,0%,0%);fill-opacity:1;" d="M 283.605469 277.796875 C 283.613281 280.488281 285.007813 280.703125 285.664063 278.421875 C 286.003906 277.152344 287.300781 276.777344 288.75 277.523438 C 299.269531 282.949219 303.199219 273.578125 297.882813 262.871094 C 295.109375 257.277344 292.246094 251.410156 291.851563 245.390625 C 290.960938 236.316406 287.507813 227.546875 284.304688 219.714844 C 282.503906 215.3125 280.949219 215.019531 281.777344 220.203125 C 282.996094 239.71875 283.035156 259.234375 283.605469 277.796875 "/>
<path style=" stroke:none;fill-rule:nonzero;fill:rgb(0%,0%,0%);fill-opacity:1;" d="M 262.652344 280.386719 C 263.4375 279.152344 264 279.003906 264.570313 280.5625 C 265.210938 282.296875 265.671875 285.253906 266.46875 287.496094 C 267.6875 290.902344 270.0625 290.929688 269.855469 287.257813 C 269 273.617188 264.792969 228.824219 263.179688 221.992188 C 262.175781 217.738281 258.789063 218.675781 259.808594 222.78125 C 261.140625 228.148438 259.027344 240.039063 255.863281 248.054688 C 251.835938 258.246094 250.21875 263.519531 251.71875 273.507813 C 253.132813 282.925781 261.152344 283.0625 262.652344 280.386719 "/>
<path style=" stroke:none;fill-rule:nonzero;fill:rgb(0%,0%,0%);fill-opacity:1;" d="M 460.085938 265.726563 C 464.921875 268.148438 471.570313 268.714844 476.617188 267.320313 C 480.003906 266.382813 480.332031 262.644531 476.414063 263.394531 C 471.253906 264.378906 468.253906 263.898438 461.988281 261.941406 C 456.433594 260.203125 456.042969 263.695313 460.085938 265.726563 "/>
<path style=" stroke:none;fill-rule:nonzero;fill:rgb(0%,0%,0%);fill-opacity:1;" d="M 546.191406 301.792969 C 545.445313 293.863281 540.984375 285.203125 540.183594 277.910156 C 539.789063 274.339844 538.003906 270.503906 535.570313 267.789063 C 533.203125 265.136719 525.203125 266.105469 523.746094 268.777344 C 521.148438 273.542969 533.164063 270.0625 534.496094 275.199219 C 536.796875 283.628906 541.019531 292.9375 543.496094 302.15625 C 544.308594 305.179688 546.488281 304.964844 546.191406 301.792969 "/>
<path style=" stroke:none;fill-rule:nonzero;fill:rgb(0%,0%,0%);fill-opacity:1;" d="M 428.671875 273.933594 C 421.238281 276.230469 416.972656 281.210938 416.121094 294.039063 C 415.488281 303.648438 414.65625 310.835938 417.296875 321.941406 C 418.203125 325.757813 419.144531 329.480469 419.519531 333.019531 C 419.902344 336.667969 424.460938 333.484375 424.214844 330.28125 C 423.367188 319.273438 418.464844 312.800781 420.996094 306.519531 C 422.519531 302.730469 422.230469 298.171875 422.253906 293.714844 C 422.300781 284.027344 425.320313 281.085938 430.105469 278.074219 C 434.21875 275.484375 433.089844 272.566406 428.671875 273.933594 "/>
<path style=" stroke:none;fill-rule:nonzero;fill:rgb(0%,0%,0%);fill-opacity:1;" d="M 487.117188 292.738281 C 486.675781 289.855469 484.40625 289.839844 483.742188 292.457031 C 482.882813 295.855469 481.53125 299.6875 484.75 302.90625 C 486.96875 300.132813 487.609375 295.964844 487.117188 292.738281 "/>
<path style=" stroke:none;fill-rule:nonzero;fill:rgb(0%,0%,0%);fill-opacity:1;" d="M 519.191406 324.285156 C 519.710938 322.808594 521.730469 314.644531 522.855469 312.097656 C 525.242188 306.675781 520.613281 304.601563 518.007813 308.46875 C 515.820313 311.710938 513.765625 319.082031 513.960938 324.144531 C 514.199219 330.390625 517.90625 327.949219 519.191406 324.285156 "/>
<path style=" stroke:none;fill-rule:nonzero;fill:rgb(0%,0%,0%);fill-opacity:1;" d="M 482.976563 320.027344 C 486.242188 320.121094 485.566406 316.984375 485.191406 313.054688 C 484.859375 309.570313 480.558594 308.703125 481.144531 313.503906 C 481.605469 317.289063 480.636719 319.960938 482.976563 320.027344 "/>
<path style=" stroke:none;fill-rule:nonzero;fill:rgb(0%,0%,0%);fill-opacity:1;" d="M 538.183594 316.902344 C 532.484375 310.941406 530.265625 316.660156 534.097656 321.207031 C 537.8125 325.609375 541.804688 320.6875 538.183594 316.902344 "/>
<path style=" stroke:none;fill-rule:nonzero;fill:rgb(0%,0%,0%);fill-opacity:1;" d="M 442.527344 322.730469 C 441.078125 316.527344 436.683594 318.457031 436.683594 322.949219 C 436.683594 329.042969 443.972656 328.914063 442.527344 322.730469 "/>
<path style=" stroke:none;fill-rule:nonzero;fill:rgb(0%,0%,0%);fill-opacity:1;" d="M 522.886719 355.578125 C 511.710938 352.851563 497.363281 353.691406 486.414063 353.503906 C 486.308594 351.890625 485.96875 347.714844 485.644531 345.132813 C 492.0625 345.132813 505.4375 346.484375 510.710938 347.304688 C 514.132813 347.835938 513.542969 342.800781 510.191406 342.433594 C 501.769531 341.511719 493.003906 339.929688 485.234375 340.707031 C 485.125 339.09375 485.019531 337.589844 484.8125 336.214844 C 497.921875 335.867188 505.078125 339.113281 506.636719 330.511719 C 506.796875 324.453125 503.695313 326.234375 502.296875 328.535156 C 501.714844 329.496094 501.261719 330.597656 501.074219 331.472656 C 488.671875 331.472656 439.3125 331.71875 433.824219 332.921875 C 428.644531 334.058594 429.757813 338.695313 434.917969 338.410156 C 449.460938 337.617188 463.621094 335.6875 478.132813 336.460938 C 478.242188 337.804688 478.242188 339.203125 478.242188 340.6875 C 462.253906 341.6875 446.632813 342.078125 432.433594 343.550781 C 428.742188 343.929688 429.914063 348.957031 433.84375 348.433594 C 447.539063 346.613281 464.996094 346.019531 478.460938 345.117188 C 478.890625 348.664063 478.996094 350.386719 479.082031 353.699219 C 470.4375 354.078125 443.613281 354.828125 433.296875 356.632813 C 429.660156 357.265625 430.714844 360.925781 434.050781 360.757813 C 448.578125 360.023438 464.597656 358.195313 479.640625 358.988281 C 480.285156 363.074219 480.71875 366.191406 481.183594 369.863281 C 468.488281 370.371094 443.449219 372.492188 432.789063 374.183594 C 431.160156 374.441406 431.46875 378.558594 434.15625 377.914063 C 447.273438 375.871094 501.792969 373.9375 504.695313 373.613281 C 508.621094 373.175781 508.066406 370.167969 504.167969 370.175781 C 501.710938 370.183594 490.921875 370.039063 488.566406 369.632813 C 487.921875 365.226563 487.796875 361.707031 487.167969 358.558594 C 498.652344 359.351563 512.09375 358.433594 522.214844 360.441406 C 525.65625 361.125 526.929688 356.566406 522.886719 355.578125 "/>
<path style=" stroke:none;fill-rule:nonzero;fill:rgb(0%,0%,0%);fill-opacity:1;" d="M 537.644531 340.058594 C 533.027344 346.773438 532.609375 355.800781 527.988281 362.726563 C 528.621094 365.453125 524.632813 367.554688 527.570313 369.863281 C 531.140625 372.171875 530.507813 367.34375 533.027344 365.875 C 534.289063 364.40625 532.609375 361.675781 535.128906 360.835938 C 536.175781 355.589844 538.066406 350.132813 540.164063 345.722656 C 541.425781 342.996094 542.265625 332.5 537.644531 340.058594 "/>
<path style=" stroke:none;fill-rule:nonzero;fill:rgb(0%,0%,0%);fill-opacity:1;" d="M 509.03125 381.066406 C 495.332031 379.410156 451.019531 383.402344 443.523438 384.984375 C 442.097656 385.285156 442.753906 387.65625 444.261719 387.515625 C 458.527344 386.238281 498.246094 383.613281 509.683594 384.554688 C 510.464844 384.617188 512.269531 381.523438 509.03125 381.066406 "/>
<path style=" stroke:none;fill-rule:nonzero;fill:rgb(0%,0%,0%);fill-opacity:1;" d="M 238.234375 448.03125 C 234.429688 448.246094 231.625 448.878906 232.238281 452.355469 C 232.898438 455.835938 237.984375 454.515625 240.015625 451.503906 C 241.195313 449.75 241.71875 447.835938 238.234375 448.03125 "/>
<path style=" stroke:none;fill-rule:nonzero;fill:rgb(0%,0%,0%);fill-opacity:1;" d="M 471.785156 504.90625 C 471.183594 505.960938 469.992188 506.894531 469.21875 507.816406 C 467.484375 509.894531 471.4375 512.675781 472.535156 510.769531 C 473.089844 509.8125 475.125 507.917969 475.449219 505.984375 C 475.664063 503.183594 473.621094 501.6875 471.785156 504.90625 "/>
</g>
</svg>
