<?xml version="1.0" encoding="UTF-8"?>
<svg xmlns="http://www.w3.org/2000/svg" xmlns:xlink="http://www.w3.org/1999/xlink" width="528pt" height="712pt" viewBox="0 0 528 712" version="1.1">
<g id="surface1">
<path style=" stroke:none;fill-rule:nonzero;fill:rgb(0%,0%,0%);fill-opacity:1;" d="M 502.152344 360.339844 C 505.523438 344.449219 505.128906 326.246094 505.761719 308.335938 C 506.261719 294.082031 508.820313 278.035156 511.507813 268.128906 C 526.070313 214.464844 512.523438 141.660156 482.855469 94.339844 C 467.5625 69.953125 449.855469 64.839844 438.632813 56.390625 C 416.171875 39.800781 404.648438 28.359375 382.507813 22.9375 C 368.597656 19.53125 323.152344 10.589844 313.863281 9.042969 C 284.535156 4.15625 255.292969 -4.445313 226.386719 2.976563 C 221.804688 4.152344 207.113281 7.699219 203.34375 7.472656 C 196.164063 7.035156 199.5625 13.136719 204.367188 14 C 222.121094 17.183594 241.785156 21.96875 250.554688 38.738281 C 289.160156 58.234375 300.007813 97.085938 312.0625 136.101563 C 315.003906 145.621094 314.398438 149.800781 308.1875 154.9375 C 290.582031 169.503906 271.695313 195.097656 247.753906 194.339844 C 222.507813 193.996094 196.382813 190.746094 170.632813 195.011719 C 166.191406 195.746094 166.890625 196.71875 171.351563 196.898438 C 182.21875 197.335938 191.996094 200.535156 201.605469 203.9375 C 210.855469 207.214844 258.035156 216.476563 263.117188 217.242188 C 268.839844 218.105469 273.972656 219.855469 276.554688 225.9375 C 232.105469 237.839844 159.597656 236.675781 109.351563 233.867188 C 107.484375 233.761719 106.964844 235.203125 109.039063 236.007813 C 129.714844 244.046875 179.167969 250.492188 186.101563 255.464844 C 190.632813 258.710938 199.152344 259.6875 210.660156 262.621094 C 220.898438 265.230469 230.328125 269.164063 236.953125 276.738281 C 245.0625 287.546875 255.449219 293.222656 268.117188 294.726563 C 270.453125 295.003906 292.152344 295.140625 294.554688 302.738281 C 284.152344 308.738281 272.953125 313.539063 262.152344 319.140625 C 263.035156 327.082031 256.542969 328.867188 257.339844 335.367188 C 257.453125 336.292969 259.84375 341.671875 261.070313 343.609375 C 264.640625 349.242188 268.425781 346.230469 270.640625 340.101563 C 274.964844 328.132813 292.496094 322.558594 302.660156 320.058594 C 314.171875 317.230469 321.621094 307.664063 334.953125 308.339844 C 346.390625 308.695313 350.800781 329.699219 347.433594 334.644531 C 336.34375 350.921875 316.804688 354.699219 299.195313 362.304688 C 290.40625 366.101563 287.480469 368.09375 279.710938 363.65625 C 274.761719 360.828125 269.785156 358.289063 264.152344 360.339844 C 256.953125 367.140625 267.855469 368.839844 267.753906 377.539063 C 267.753906 391.539063 273.226563 420.558594 274.328125 423.351563 C 275.851563 427.222656 278.269531 430.226563 283.355469 428.339844 C 288.628906 426.457031 291.683594 429.003906 294.441406 432.773438 C 298.78125 438.695313 302.894531 444.4375 308.453125 445.679688 C 311.421875 446.339844 313.980469 448.433594 315.949219 450.71875 C 322.140625 457.914063 334.25 456.519531 340.28125 451.03125 C 347.347656 444.597656 356.640625 456.425781 360.953125 461.140625 C 353.355469 464.738281 331.007813 463.375 329.597656 463.527344 C 325.105469 463.839844 324.40625 465.578125 328.589844 467.128906 C 339.324219 471.105469 352.210938 475.101563 365.359375 475.375 C 374.019531 475.554688 381.363281 477.292969 380.953125 487.9375 C 375.113281 493.488281 367.570313 495.199219 360.652344 498.207031 C 353.703125 501.230469 349.414063 502.773438 339.160156 498.457031 C 335.425781 496.886719 331.679688 495.378906 327.355469 497.539063 C 328.152344 500.738281 332.554688 502.738281 334.953125 505.140625 C 341.421875 512.339844 334.160156 515.59375 328.535156 509.652344 C 315.222656 495.589844 289.480469 461.003906 284.953125 450.792969 C 282.914063 446.191406 281.605469 447.089844 282.609375 452.394531 C 289.78125 483.644531 308.425781 513.527344 302.554688 549.539063 C 318.554688 580.339844 307.355469 617.9375 312.152344 651.140625 C 309.753906 656.339844 304.953125 661.140625 299.355469 659.9375 C 301.460938 646.121094 306.148438 602.15625 299.328125 590.105469 C 290.285156 574.117188 284.015625 554.070313 285.894531 536.867188 C 286.03125 535.605469 284.847656 535.628906 284.339844 536.71875 C 276.8125 552.859375 278.199219 574.140625 275.304688 594.367188 C 270.980469 624.566406 264.230469 684.304688 274.457031 688.058594 C 277.539063 689.1875 279.421875 691.96875 281.457031 694.765625 C 288.640625 704.617188 294.164063 703.34375 299.679688 697.664063 C 310.230469 686.789063 323.339844 682.761719 325.074219 677.003906 C 326.296875 672.9375 329.304688 671.992188 332.84375 671.28125 C 345.195313 668.800781 351.636719 659.378906 354.488281 646.8125 C 355.269531 643.363281 358.859375 631.511719 361.128906 626.851563 C 365.367188 618.148438 367.5625 616.902344 375.390625 612.914063 C 393.714844 603.574219 409.476563 587.929688 427.226563 576.886719 C 437.789063 570.316406 461.878906 547.535156 465.753906 522.339844 C 445.667969 530.007813 427.25 537.34375 405.632813 542.214844 C 396.589844 544.253906 396.335938 538.820313 405.164063 536.308594 C 424.871094 530.703125 445.054688 524.210938 463.664063 516.996094 C 475.0625 512.578125 497.226563 504.996094 504.089844 491.960938 C 511.445313 477.996094 514.695313 462.984375 522.152344 450.339844 C 539.355469 417.539063 512.953125 385.539063 502.152344 360.339844 Z M 326.734375 570.339844 C 326.640625 572.089844 325.46875 572.34375 324.65625 570.679688 C 321.207031 563.246094 318.851563 553.488281 320.554688 546.339844 C 330.890625 549.441406 327.421875 561.445313 326.734375 570.339844 Z M 329.355469 650.339844 C 331.605469 632.089844 327.515625 618.304688 328.226563 603.082031 C 328.519531 596.882813 330.257813 596.207031 331.578125 602.09375 C 334.917969 616.949219 333.8125 633.085938 334.152344 646.339844 C 334.355469 649.339844 329.105469 652.839844 329.355469 650.339844 Z M 401.003906 438.148438 C 391.035156 440.445313 376.273438 437.289063 364.265625 431.007813 C 362.324219 429.988281 363.105469 428.964844 364.625 429.09375 C 374.875 429.945313 383.566406 425.636719 391.105469 432.339844 C 392.734375 433.785156 396.984375 434.972656 400.632813 435.992188 C 402.605469 436.589844 402.191406 437.875 401.003906 438.148438 Z M 411.558594 313.066406 C 417.460938 301.835938 430.21875 309.445313 439.679688 313.496094 C 440.390625 313.800781 440.515625 314.824219 439.894531 314.996094 C 431.671875 317.253906 423.03125 311.578125 412.566406 313.917969 C 412.035156 314.035156 411.347656 313.464844 411.558594 313.066406 Z M 451.019531 425.503906 C 440.203125 432.191406 425.5625 434.878906 416.1875 437.171875 C 412.074219 438.179688 411.371094 437.027344 415.4375 435.339844 C 417.746094 434.382813 440.964844 429.195313 449.019531 424.003906 C 453.929688 421.210938 455.074219 422.296875 451.019531 425.503906 Z M 451.015625 394.03125 C 446.363281 401.386719 442.136719 400.195313 445.328125 391.800781 C 451.726563 374.984375 449.722656 367.847656 445.972656 353.308594 C 443.894531 345.269531 451.375 342.980469 453.15625 351.578125 C 456.046875 365.007813 460.609375 378.867188 451.015625 394.03125 "/>
<path style=" stroke:none;fill-rule:nonzero;fill:rgb(0%,0%,0%);fill-opacity:1;" d="M 24.09375 345.261719 C 32.144531 334.136719 28.304688 317.160156 27.050781 302.367188 C 24.761719 275.351563 50.152344 238.03125 81.753906 230.738281 C 82.625 226.972656 83.253906 224.59375 83.355469 219.9375 C 78.359375 219.132813 75.183594 216.316406 72.75 212.742188 C 58.074219 191.175781 59.433594 167.515625 71.808594 136.671875 C 75.132813 128.390625 78.945313 120.234375 82.554688 111.539063 C 87.699219 76.261719 111.75 55.835938 134.855469 32.589844 C 139.8125 27.601563 138.152344 26.339844 131.863281 28.859375 C 112.441406 37.839844 79.152344 72.761719 70.242188 81.972656 C 53.296875 99.480469 50.121094 127.890625 40.152344 147.140625 C 5.753906 212.117188 -9.328125 274.394531 7.273438 320.617188 C 8.46875 323.941406 15.507813 339.101563 16.042969 343.59375 C 16.738281 349.460938 21.542969 348.785156 24.09375 345.261719 "/>
<path style=" stroke:none;fill-rule:nonzero;fill:rgb(0%,0%,0%);fill-opacity:1;" d="M 206.105469 353.089844 C 212.105469 350.890625 212.988281 342.738281 212.589844 336.339844 C 212.285156 331.773438 209.230469 331.839844 206.234375 332.660156 C 199.484375 334.507813 143.320313 316.128906 135.742188 313.40625 C 113.871094 305.554688 101.476563 299.800781 85.621094 303.902344 C 57.496094 311.183594 47.859375 318.804688 43.867188 343.300781 C 40.167969 365.996094 37.023438 374.746094 54.160156 388.09375 C 66.574219 397.757813 101.242188 419.300781 117.003906 424.289063 C 120.226563 425.308594 122.949219 426.695313 123.191406 430.316406 C 123.625 436.773438 136.25 436.003906 146.347656 435.824219 C 154.8125 435.675781 159.136719 438.433594 153.535156 445.285156 C 144.160156 456.753906 154.742188 464.027344 165.476563 456.257813 C 182.355469 444.039063 198.226563 427.246094 206.554688 409.140625 C 200.800781 395.636719 208.394531 393.035156 216.804688 390.421875 C 239.761719 383.289063 233.746094 370.234375 232.363281 357.941406 C 231.777344 352.722656 229.984375 352.070313 224.683594 354.757813 C 217.0625 358.617188 206.074219 365.570313 201.753906 362.339844 C 195.753906 356.738281 202.105469 354.289063 206.105469 353.089844 "/>
<path style=" stroke:none;fill-rule:nonzero;fill:rgb(0%,0%,0%);fill-opacity:1;" d="M 234.152344 505.140625 C 226.953125 477.140625 235.355469 451.9375 238.152344 424.738281 C 234.152344 421.539063 235.355469 407.140625 227.355469 413.9375 C 230.296875 418.777344 228.710938 423.390625 226.480469 427.902344 C 215.410156 450.324219 201.484375 468.984375 208.152344 502.339844 C 210.605469 512.339844 218.953125 506.339844 224.554688 509.140625 C 229.355469 511.589844 235.355469 509.589844 234.152344 505.140625 "/>
<path style=" stroke:none;fill-rule:nonzero;fill:rgb(0%,0%,0%);fill-opacity:1;" d="M 278.503906 507.664063 C 287.105469 489.878906 279.304688 465.785156 272.554688 451.539063 C 269.355469 445.339844 269.105469 429.839844 264.953125 421.539063 C 257.355469 408.339844 257.570313 422.605469 256.152344 429.539063 C 260.371094 438.421875 259.289063 447.429688 258.039063 456.832031 C 256.34375 469.613281 254.0625 487.675781 257.511719 499.6875 C 258.640625 503.617188 262.953125 509.140625 262.976563 511.605469 C 263.445313 515.121094 274.988281 514.929688 278.503906 507.664063 "/>
<path style=" stroke:none;fill-rule:nonzero;fill:rgb(0%,0%,0%);fill-opacity:1;" d="M 177.757813 580.328125 C 177.816406 579.773438 174.296875 540.703125 168.976563 531.519531 C 161.332031 518.320313 157.363281 502.789063 146.953125 492.738281 C 152.269531 488.132813 160.40625 491.6875 166.644531 488.667969 C 173.394531 485.402344 171.285156 479.882813 164.351563 478.597656 C 153.570313 476.59375 142.578125 478.371094 131.851563 479.820313 C 114.6875 482.132813 105.890625 480.46875 82.433594 472.328125 C 71.898438 468.675781 61.558594 464.546875 50.953125 461.140625 C 37.625 455.988281 31.636719 444.644531 23.4375 437.53125 C 14.871094 430.101563 13.496094 431.332031 15.832031 440.09375 C 22.386719 464.683594 69.078125 494.785156 72.3125 496.902344 C 78.671875 501.058594 84.851563 505.574219 90.152344 511.140625 C 87.75 513.199219 68.230469 510.246094 57.449219 506.328125 C 42.179688 500.785156 36.527344 506.355469 47.109375 516.835938 C 52.980469 522.644531 59.328125 527.851563 66.152344 531.140625 C 79.886719 537.625 86.480469 568.332031 88.21875 578.863281 C 91.816406 600.640625 95.550781 617.652344 111.523438 632.175781 C 120.121094 639.988281 131.257813 641.136719 130.675781 626.578125 C 129.824219 605.207031 125.96875 598.488281 139.113281 584.855469 C 140.246094 583.679688 149.300781 576.828125 153.335938 568.578125 C 153.820313 567.585938 154.628906 567.679688 154.898438 568.882813 C 156.566406 576.28125 163.601563 586.453125 166.058594 587.914063 C 172.234375 591.59375 176.96875 587.765625 177.757813 580.328125 "/>
<path style=" stroke:none;fill-rule:nonzero;fill:rgb(0%,0%,0%);fill-opacity:1;" d="M 253 636.847656 C 254.148438 621.585938 248.484375 606.550781 246.140625 590.371094 C 245.425781 585.460938 245.949219 564.828125 243.636719 551.375 C 241.402344 538.371094 236.726563 538.152344 238.402344 552.355469 C 241.910156 594.984375 235.003906 636.941406 234.214844 677.335938 C 233.980469 689.339844 234.160156 692.363281 240.953125 703.78125 C 247.089844 714.085938 260.4375 715.25 260.242188 698.835938 C 260.105469 687.449219 252.09375 648.902344 253 636.847656 "/>
<path style=" stroke:none;fill-rule:nonzero;fill:rgb(0%,0%,0%);fill-opacity:1;" d="M 223.777344 643.335938 C 223.972656 628.902344 222.730469 615.25 212.953125 605.9375 C 208.328125 615.195313 212.191406 625.914063 205.410156 638.484375 C 201.289063 646.125 192.589844 680.347656 204.609375 692.332031 C 211.746094 699.449219 217.871094 693.640625 221.160156 683.4375 C 224.792969 672.160156 223.609375 655.597656 223.777344 643.335938 "/>
<path style=" stroke:none;fill-rule:nonzero;fill:rgb(0%,0%,0%);fill-opacity:1;" d="M 182.554688 613.539063 C 177.839844 605.289063 174.960938 608.96875 175.699219 615.105469 C 176.589844 622.503906 173.816406 632.953125 170.769531 641.894531 C 167.078125 652.738281 164.992188 668.917969 169.519531 675.472656 C 172.859375 680.3125 181.164063 683.078125 186.472656 675.171875 C 190.359375 669.390625 191.644531 658.050781 191.082031 653.589844 C 189.210938 638.734375 189.46875 625.988281 182.554688 613.539063 "/>
<path style=" stroke:none;fill-rule:nonzero;fill:rgb(0%,0%,0%);fill-opacity:1;" d="M 143.453125 620.566406 C 143.257813 624.132813 140.464844 645.070313 141.605469 650.574219 C 143.441406 659.421875 154.214844 658.890625 155.488281 651.570313 C 157.367188 640.789063 156.496094 626.582031 151.660156 619.726563 C 147.839844 614.3125 143.785156 614.515625 143.453125 620.566406 "/>
</g>
</svg>
