<?xml version="1.0" encoding="UTF-8"?>
<svg xmlns="http://www.w3.org/2000/svg" xmlns:xlink="http://www.w3.org/1999/xlink" width="531pt" height="519pt" viewBox="0 0 531 519" version="1.1">
<g id="surface1">
<path style=" stroke:none;fill-rule:nonzero;fill:rgb(0%,0%,0%);fill-opacity:1;" d="M 14.226563 0.292969 L 199.023438 186.199219 L 293.691406 186.09375 L 293.691406 286.492188 L 188.570313 286.386719 L 188.601563 204.339844 L 0.210938 16.515625 L 0.210938 518.699219 L 94.464844 518.699219 L 94.191406 380.066406 L 390.828125 380.597656 L 390.828125 94.5625 L 530.289063 94.835938 L 530.289063 0.300781 Z M 517.570313 81.546875 L 207.398438 81.550781 L 221.394531 95.09375 L 378.191406 95.09375 L 378.011719 368.359375 L 94.996094 368.074219 L 94.996094 227.808594 L 80.644531 213.265625 L 80.171875 505.917969 L 12.988281 505.921875 L 12.988281 47.339844 L 174.945313 209.417969 L 174.800781 301.21875 L 308.769531 301.078125 L 308.769531 170.210938 L 205.671875 170.207031 L 49.011719 13.550781 L 517.570313 13.558594 L 517.570313 81.546875 "/>
</g>
</svg>
