<?xml version="1.0" encoding="UTF-8"?>
<svg xmlns="http://www.w3.org/2000/svg" xmlns:xlink="http://www.w3.org/1999/xlink" width="334pt" height="721pt" viewBox="0 0 334 721" version="1.1">
<g id="surface1">
<path style=" stroke:none;fill-rule:nonzero;fill:rgb(0%,0%,0%);fill-opacity:1;" d="M 59.015625 479.628906 C 61.988281 477.335938 67.617188 477.414063 68.355469 481.433594 C 69.808594 489.367188 73.867188 500.855469 83.617188 505.785156 C 94.175781 511.128906 100.300781 506.035156 106.507813 497.195313 C 109.328125 493.171875 115.09375 489.589844 120.589844 491.976563 C 123.28125 493.144531 136.664063 492.761719 141.800781 490.910156 C 143.46875 492.519531 142.210938 495.164063 142.757813 497.246094 C 143.488281 500.703125 145 503.628906 147.042969 506.929688 C 147.722656 507.96875 148.65625 506.097656 148.097656 505.363281 C 146.351563 503.175781 146.882813 501.019531 147.195313 498.609375 C 148.019531 492.292969 145.671875 489.4375 140.992188 488.90625 C 138.574219 488.632813 135.695313 488.273438 132.171875 489.148438 C 130.609375 489.535156 128.074219 490.019531 127.175781 489.285156 C 117.402344 482.03125 109.660156 484.71875 100.921875 491.867188 C 90.125 500.703125 83.398438 500.273438 75.964844 486.523438 C 71.152344 477.625 68.996094 473.894531 60.535156 476.226563 C 58.03125 476.917969 55.582031 477.839844 53.308594 477.984375 C 49.34375 473.910156 44.40625 472.230469 39.847656 468.9375 C 33.375 465.65625 32.054688 458.617188 27.300781 454.082031 C 23.839844 444.3125 10.132813 443.292969 9.789063 431.679688 C 11.539063 421.429688 15.269531 410.078125 14.894531 399.007813 C 16.261719 393.539063 16.824219 386.007813 20.226563 381.34375 C 24.425781 375.589844 30.550781 373.277344 37.148438 372.925781 C 47.542969 372.378906 51.535156 365.605469 49.789063 358.980469 C 47.929688 360.730469 46.910156 363.675781 44.320313 364.636719 C 44.078125 364.726563 43.765625 364.378906 43.894531 364.144531 C 47.664063 357.320313 51.261719 354.835938 46.855469 347.832031 C 41.777344 339.753906 41.332031 336.566406 47.382813 332.996094 C 47.5625 332.890625 47.777344 333.132813 47.667969 333.453125 C 47.21875 334.773438 46.496094 337.003906 46.375 338.617188 C 46.257813 340.148438 47.117188 340.007813 47.839844 338.578125 C 50.648438 333.03125 60.863281 326.953125 64.101563 326 C 73.03125 323.363281 71.96875 316.410156 66.910156 311.261719 C 65.632813 306.855469 62.21875 304.191406 59.003906 301.523438 C 54.277344 297.605469 52.027344 293.894531 52.136719 289.878906 C 52.277344 288.414063 51.53125 288.347656 50.96875 289.4375 C 48.808594 293.628906 53.832031 300.492188 55.925781 302.738281 C 58.289063 305.273438 60.921875 307.480469 61.070313 310.886719 C 58.3125 309.207031 55.582031 307.121094 52.53125 305.835938 C 48.121094 303.832031 49.007813 297.015625 44.617188 293.1875 C 45.753906 283.378906 41.324219 276.238281 36.386719 271.164063 C 27.578125 262.109375 31.8125 243.351563 36.308594 237.96875 C 49.847656 229.992188 58.9375 218.734375 63.824219 203.90625 C 64.148438 202.917969 66.203125 192.066406 68.570313 185.386719 C 72.261719 174.941406 94.234375 171.363281 100.855469 170.375 C 107.992188 169.3125 112.722656 168.988281 117.628906 162.398438 C 118.539063 161.175781 125.566406 148.347656 129.804688 144.625 C 140.039063 135.640625 141.078125 130.195313 154.609375 129.265625 C 163.96875 128.628906 172.320313 131.117188 183.023438 135.160156 C 187.078125 136.691406 196.503906 133.484375 198.003906 130.554688 C 201.445313 122.917969 217.027344 114.371094 227.824219 118.042969 C 234.28125 120.238281 238.035156 127.304688 245.011719 129.082031 C 250.613281 125.703125 253.503906 120.472656 257.871094 115.863281 C 260.164063 113.441406 265.953125 110.011719 269.011719 108.117188 C 274.015625 105.019531 279.140625 92.628906 277.539063 89.855469 C 276.207031 85.132813 281.140625 82.050781 283.117188 79.441406 C 285.535156 81.695313 285.683594 87.203125 284.058594 90.273438 C 284.433594 93.210938 285.242188 96.429688 285.523438 99.609375 C 285.941406 104.265625 288.953125 105.207031 288.6875 100.800781 C 288.339844 95.085938 285.203125 89.242188 287.542969 82.726563 C 288.109375 81.027344 286.527344 79.421875 285.75 77.714844 C 284.070313 74.03125 285.964844 65.398438 288.496094 59.9375 C 291.074219 54.382813 292.382813 51.644531 298.589844 49.527344 C 306.492188 46.835938 313.113281 35.492188 309.261719 28.453125 C 308.199219 26.511719 306.925781 27.847656 307.730469 29.515625 C 309.558594 33.304688 309.410156 36.777344 303.667969 39.851563 C 298.296875 35.648438 299.375 29.503906 302.914063 26.867188 C 305.195313 25.171875 308.847656 24.746094 310.164063 21.589844 C 314.410156 18.917969 320.289063 20.019531 324.175781 17.167969 C 330.078125 12.835938 324.058594 7.425781 320.328125 6.527344 C 313.75 4.945313 306.40625 4.953125 303.996094 1.183594 C 302.972656 -0.414063 300.910156 -0.5 302.296875 1.855469 C 305.703125 7.027344 312.40625 9.074219 318.644531 11.730469 C 320.199219 12.390625 321.578125 13.558594 318.238281 14.746094 C 312.933594 16.640625 306.914063 17.5625 302.132813 20.308594 C 290.140625 27.195313 295.9375 35.597656 301.664063 41.359375 C 297.847656 43.558594 294.4375 43.113281 291.679688 47.242188 C 286.085938 55.625 280.226563 63.855469 281.15625 76.042969 C 276.523438 80.242188 273.847656 85.800781 274.089844 92.632813 C 274.355469 99.058594 267.3125 99.609375 263.636719 102.460938 C 258.421875 106.519531 255.335938 112.3125 251.625 117.652344 C 246.5625 124.933594 245.003906 125.402344 240.476563 119.632813 C 231.878906 108.671875 208.261719 111.015625 200.007813 122.898438 C 195.453125 129.460938 186.730469 131.046875 179.617188 128.1875 C 155.046875 118.308594 142.882813 121.34375 129.03125 139.539063 C 122.957031 147.523438 118.003906 156.289063 109.871094 162.929688 C 97.65625 162.003906 74.140625 171.058594 68.5625 180.699219 C 65.304688 186.324219 63.910156 193.097656 61.753906 199.304688 C 56.121094 215.539063 49.832031 217.367188 37.152344 231.203125 C 32.578125 235.511719 30.644531 241.753906 29.0625 247.828125 C 25.777344 260.453125 26.25 265.0625 30.914063 275.738281 C 32.777344 280.003906 33.964844 286.636719 35.316406 290.859375 C 38.242188 299.984375 42.496094 305.332031 51.027344 311.210938 C 54.960938 313.917969 58.800781 316.703125 60.804688 321.367188 C 57.886719 324.734375 53.585938 325.980469 49.578125 327.507813 C 31.976563 334.226563 39.523438 347.167969 42.507813 351.378906 C 42.851563 351.863281 43.355469 352.570313 42.925781 353.355469 C 40.921875 356.90625 39.710938 360.921875 37.300781 364.449219 C 29.992188 362.339844 16.714844 374.460938 13.703125 381.285156 C 8.238281 393.671875 11.246094 409.480469 3.308594 420.625 C -5.925781 433.597656 9.796875 450.929688 13.914063 454.3125 C 18.65625 458.203125 22.429688 463.15625 27.078125 467.347656 C 34.457031 474 52.800781 484.429688 59.015625 479.628906 "/>
<path style=" stroke:none;fill-rule:nonzero;fill:rgb(0%,0%,0%);fill-opacity:1;" d="M 329.722656 298.664063 C 322.589844 291.640625 321.933594 277.894531 325.066406 269.128906 C 327.84375 261.359375 326.394531 256.015625 322.195313 253.226563 C 319.578125 251.484375 317.988281 248.574219 316.171875 245.914063 C 314.5625 243.558594 312.777344 241.398438 309.9375 240.421875 C 306.269531 239.15625 296.25 234.277344 295.644531 225.890625 C 295.296875 221.070313 287.804688 220.613281 286.207031 215.738281 C 289.3125 207.757813 283.039063 203.535156 279.820313 198.417969 C 280.683594 190.472656 273.222656 182.207031 269.84375 175.664063 C 266.484375 169.160156 264.664063 162.480469 269.089844 155.449219 C 273.90625 148.398438 271.023438 138.121094 276.214844 131.636719 C 294.347656 133.019531 316.050781 128.429688 319.429688 110.085938 C 321.183594 100.554688 316.824219 93.617188 310.570313 88.40625 C 307.4375 85.796875 302.453125 81.488281 302.464844 75.503906 C 304.226563 70.863281 303.546875 67.203125 304.175781 63.75 C 308.796875 61.867188 314.0625 60.570313 318.726563 60.1875 C 324.316406 59.6875 331.824219 48.878906 327.136719 44.046875 C 323.136719 39.921875 323.085938 34.65625 327.894531 30.230469 C 331.722656 26.699219 333.441406 23.664063 332.882813 16.171875 C 332.710938 13.847656 332.625 11.53125 333.453125 9.3125 C 335.160156 6.152344 332.308594 4.617188 329.828125 3.410156 C 325.113281 1.164063 312.988281 2.902344 310.8125 0.976563 C 309.574219 0.0429688 308.902344 0.179688 309.8125 1.65625 C 312.1875 4.878906 321.179688 4.738281 325.320313 4.820313 C 328.449219 4.886719 330.339844 5.945313 330.152344 9.453125 C 329.957031 13.097656 330.097656 17.0625 330.546875 20.582031 C 322.730469 23.792969 310.570313 40.714844 314.070313 47.75 C 316.132813 46.046875 317.234375 42.730469 318.847656 40.265625 C 320.367188 37.9375 321.378906 38.335938 321.457031 40.5 C 321.535156 42.613281 321.941406 44.6875 323.277344 46.195313 C 324.816406 47.9375 324.726563 53.171875 316.15625 54.199219 C 297.25 56.0625 293.128906 69.863281 298.886719 73.910156 C 297.929688 79.121094 302.660156 87.230469 307.039063 90.585938 C 311.226563 93.789063 311.675781 99.535156 315.726563 102.542969 C 315.53125 111.128906 315.386719 114.117188 306.828125 119.632813 C 298.882813 124.753906 288.507813 126.015625 278.871094 125.316406 C 273.339844 124.914063 270.078125 129.902344 269.941406 135.421875 C 269.800781 141.285156 270.832031 144.953125 267.019531 148.316406 C 262.691406 152.128906 260.433594 157.882813 261.039063 162.890625 C 261.265625 164.71875 261.683594 166.578125 261.714844 168.339844 C 263.28125 182.078125 276.878906 189.089844 278.175781 202.8125 C 280.972656 205.992188 282.980469 209.257813 282.960938 213.757813 C 282.988281 219.90625 287.949219 224.878906 291.523438 225.945313 C 293.199219 226.445313 293.476563 228.113281 293.699219 229.828125 C 294.613281 236.859375 299.21875 239.8125 307.304688 242.972656 C 310.660156 244.285156 313.710938 245.988281 315.109375 249.78125 C 316.304688 253.222656 322.972656 256.835938 320.425781 262.535156 C 317.527344 268.246094 318.625 281.6875 320.253906 286.578125 C 325.066406 301.109375 328.296875 301.449219 327.292969 313.277344 C 326.496094 323.910156 313.371094 332.28125 302.035156 340.582031 C 284.105469 342.261719 263.246094 362.78125 269.273438 377.066406 C 270.675781 380.703125 274.808594 382.195313 275.539063 385.652344 C 269.433594 383.171875 260.464844 380.582031 259.183594 375.847656 C 255.863281 363.597656 258.609375 357.238281 251.773438 343.890625 C 252.695313 335.90625 242.984375 336.371094 239.539063 330.558594 C 228.246094 328.058594 231.03125 314.464844 226.296875 307.476563 C 223.445313 298.839844 234.953125 304.351563 238.476563 300.488281 C 248.574219 302.503906 253.324219 313.445313 264.960938 310.648438 C 272.753906 315.058594 279.601563 312.484375 283.285156 303.910156 C 285.6875 298.316406 287.324219 295.09375 286.589844 291.777344 C 285.246094 285.695313 285.425781 278.941406 282.058594 273.839844 C 280.460938 264.734375 271.855469 258.589844 262.582031 256.492188 C 257.523438 252.484375 252.054688 248.449219 248.484375 242.492188 C 246.191406 237.914063 246.585938 233.0625 249.179688 229.3125 C 252.414063 224.628906 251.859375 213.558594 245.179688 206.960938 C 242.988281 201.230469 240.289063 195.671875 236.371094 190.738281 C 233.285156 186.847656 235.859375 180.050781 238.3125 177.871094 C 244.960938 171.964844 243.773438 161.574219 247.65625 154.003906 C 247.972656 153.390625 247.4375 152.996094 246.945313 153.5 C 244.785156 155.695313 244.273438 159.285156 243.71875 162.832031 C 242.851563 168.421875 240.648438 170.886719 237.246094 175.410156 C 232.449219 181.789063 230.777344 187.144531 236.15625 195.429688 C 236.570313 196.0625 242.816406 208.910156 247.238281 214.011719 C 250.386719 218.011719 245.898438 225.554688 242.558594 233.320313 C 240.847656 237.191406 244.601563 244.804688 248.785156 248.378906 C 255.703125 254.023438 261.179688 262.800781 271.128906 263.621094 C 273.449219 263.8125 275.316406 265.585938 276.277344 267.957031 C 276.949219 269.609375 280.488281 281.238281 282.390625 285.589844 C 287.359375 293.136719 279.691406 300.003906 278.269531 307.277344 C 273.566406 314.613281 267.4375 306.035156 261.382813 306.871094 C 256.539063 302.578125 251.339844 299.398438 245.847656 296.3125 C 241.917969 294.105469 227.066406 290.613281 223.128906 299.5 C 215.617188 304.894531 221.074219 310.710938 224.539063 316.5 C 225.492188 318.09375 227.316406 323.175781 227.6875 324.167969 C 228.796875 327.148438 230.292969 330.132813 233.929688 330.878906 C 239.503906 331.726563 241.507813 336.851563 246.34375 338.773438 C 247.777344 339.34375 248.152344 340.335938 248.582031 342.027344 C 250.097656 347.976563 254.777344 359.769531 253.871094 362.691406 C 252.023438 368.667969 254.496094 381.894531 264.800781 386.441406 C 268.984375 388.289063 274.914063 389.816406 279.65625 392.523438 C 288.242188 397.425781 286.484375 405.128906 277.738281 414.03125 C 274.21875 417.609375 270.535156 421.070313 268.734375 425.714844 C 262.859375 439.664063 247.203125 433.390625 232.953125 429.015625 C 215.808594 423.753906 212.214844 426.109375 203.640625 436.734375 C 202.5625 438.070313 202.863281 438.285156 204.160156 437.378906 C 206.316406 435.785156 207.175781 436.011719 207.113281 438.113281 C 206.847656 442.242188 205.601563 445.851563 205.0625 449.800781 C 204.761719 452.003906 205.246094 452.558594 206.714844 450.386719 C 210.335938 445.03125 209.03125 435.832031 215.019531 431.804688 C 216.703125 430.992188 218.738281 431.226563 219.441406 433.042969 C 211.269531 437.179688 209.882813 445.894531 208.765625 454.292969 C 207.433594 464.339844 206.921875 465.53125 200.632813 469.652344 C 197.527344 471.6875 194.941406 474.726563 192.28125 477.601563 C 184.710938 485.785156 178.875 487.53125 172.539063 483.53125 C 166.828125 479.925781 155.574219 486.523438 157.417969 496.824219 C 158.121094 500.761719 155.480469 504.015625 154.78125 507.429688 C 154.695313 508.222656 155.886719 508.136719 156.160156 507.246094 C 157.277344 504.691406 159.726563 500.210938 158.863281 496.996094 C 157.679688 492.578125 160.953125 487.234375 163.976563 486.761719 C 165.917969 486.460938 167.40625 488.34375 169.101563 489.988281 C 176.601563 497.269531 184.75 493.144531 193.496094 483.066406 C 196.050781 480.125 197.34375 478.542969 200.613281 477.226563 C 209.015625 473.851563 210.746094 470.917969 210.550781 462.890625 C 210.28125 451.875 213.34375 446.777344 218.660156 440.902344 C 229.433594 443.746094 251.855469 443.457031 261.136719 437.773438 C 270.558594 439.679688 287.214844 420.445313 289.566406 411.375 C 292.183594 400.359375 287.496094 392.695313 279.128906 387.109375 C 279.085938 385.449219 278.199219 383.898438 277.222656 382.277344 C 271.421875 372.667969 288.0625 355.359375 299.714844 351.96875 C 303.800781 350.777344 321.691406 334.46875 330.109375 320.296875 C 332.6875 315.953125 329.785156 313.667969 332.664063 311.734375 C 335.738281 309.449219 333.082031 301.972656 329.722656 298.664063 Z M 301.285156 64.921875 C 300.566406 66.777344 302.101563 69.585938 300.574219 71.695313 C 298.964844 71.320313 298.460938 68.558594 298.871094 66.40625 C 299.464844 64.652344 302.34375 61.171875 301.285156 64.921875 Z M 271.488281 377.390625 C 270.152344 375.746094 270.027344 372.984375 270.578125 370.765625 C 271.097656 368.675781 271.972656 368.679688 271.496094 370.925781 C 271.054688 373.019531 271.335938 375.195313 271.882813 377.15625 C 271.964844 377.449219 271.675781 377.628906 271.488281 377.390625 "/>
<path style=" stroke:none;fill-rule:nonzero;fill:rgb(0%,0%,0%);fill-opacity:1;" d="M 267.652344 118.121094 C 261.945313 118.230469 258.066406 121.480469 253.726563 129.054688 C 249.742188 136 245.941406 143.707031 240.148438 138.683594 C 237.902344 136.738281 235.59375 134.214844 232.714844 135.789063 C 234.082031 137.121094 235.007813 138.777344 236.109375 140.28125 C 240.753906 146.617188 245.640625 145.324219 251.492188 137.460938 C 256.152344 131.199219 258.777344 121.316406 269.015625 121.789063 C 282.515625 122.414063 286.003906 113.164063 285.652344 106.238281 C 285.59375 105.113281 285.34375 104.488281 284.59375 106.128906 C 284.523438 106.285156 284.234375 106.210938 284.167969 105.984375 C 282.953125 101.765625 282.109375 97.308594 280.625 93.332031 C 280.464844 92.902344 279.839844 92.949219 279.738281 93.378906 C 279.039063 96.402344 279.644531 99.136719 280.429688 101.902344 C 283.402344 112.398438 282.964844 117.832031 267.652344 118.121094 "/>
<path style=" stroke:none;fill-rule:nonzero;fill:rgb(0%,0%,0%);fill-opacity:1;" d="M 215.851563 134.226563 C 210.414063 135.835938 204.921875 138.246094 205.894531 147.085938 C 206.449219 152.082031 209.253906 156.449219 209.472656 162.113281 C 202.382813 168.476563 204.296875 178.964844 205.53125 187.359375 C 207.339844 199.476563 195.371094 203.207031 189.925781 211.585938 C 187.144531 215.605469 182.609375 215.582031 177.996094 215.09375 C 169.449219 214.1875 166.886719 216.949219 162.214844 220.769531 C 152.851563 228.417969 145.640625 222.953125 147.667969 215.210938 C 149.707031 207.4375 147.371094 198.855469 150.324219 191.796875 C 153.699219 183.738281 145.921875 176.769531 142.164063 176.054688 C 138.757813 174.839844 138.796875 171.878906 138.207031 169.335938 C 136.59375 162.347656 124.324219 163.625 120.585938 164.050781 C 118.34375 164.308594 119.015625 165.710938 121.011719 165.59375 C 122.851563 165.480469 124.679688 165.328125 126.742188 165.648438 C 130.832031 166.21875 132.769531 168.476563 133.554688 171.21875 C 134.648438 175.042969 138.183594 176.425781 141.320313 178.085938 C 144.976563 180.019531 147.695313 182.46875 146.1875 186.570313 C 143.246094 194.5625 146.390625 204.410156 143.570313 212.628906 C 140.554688 221.414063 148.703125 233.402344 159.867188 224.964844 C 166.1875 220.1875 165.921875 218.394531 172.816406 219 C 187.058594 220.246094 200.542969 208.652344 207.78125 198.960938 C 213.5625 190.085938 203.238281 178.3125 210.183594 171.007813 C 213.800781 167.199219 212.558594 161.007813 209.683594 153.382813 C 208.328125 149.792969 206.707031 143.28125 209.53125 140.410156 C 211.363281 138.546875 214.207031 137.3125 216.394531 135.808594 C 218.164063 134.59375 217.773438 133.65625 215.851563 134.226563 Z M 200.710938 203.976563 C 199.5625 205.011719 197.355469 206.960938 195.976563 208.007813 C 194.796875 208.898438 194.695313 208.570313 195.390625 207.574219 C 197.199219 205.183594 197.910156 203.960938 200.539063 203.632813 C 200.789063 203.601563 200.953125 203.757813 200.710938 203.976563 "/>
<path style=" stroke:none;fill-rule:nonzero;fill:rgb(0%,0%,0%);fill-opacity:1;" d="M 76.570313 243.832031 C 68.027344 243.285156 67.164063 253.117188 72.394531 262.949219 C 76.472656 270.613281 82.804688 281.042969 78.320313 291.539063 C 77.113281 294.367188 75.558594 297.089844 74.859375 300.046875 C 74.234375 302.894531 74.742188 303.320313 76.542969 300.523438 C 78.261719 297.707031 80.945313 295.910156 79.84375 299.746094 C 79.496094 300.949219 79.96875 301.394531 80.90625 300.140625 C 82.902344 297.371094 87.386719 285.015625 89.789063 282.050781 C 97.453125 271.8125 97.742188 258.835938 99.125 249.582031 C 101.21875 235.605469 105.207031 231.238281 112.730469 223.328125 C 123.238281 212.285156 117.371094 197.640625 111.175781 193.429688 C 105.8125 189.792969 96.191406 192.554688 93.835938 194.167969 C 89.207031 197.339844 83.519531 199.785156 78.898438 202.976563 C 72.980469 207.0625 71.53125 209.171875 71.277344 215.886719 C 70.863281 226.816406 60.648438 230.957031 53.660156 237.449219 C 49.734375 240.976563 51.324219 248.34375 52.085938 253.4375 C 50.113281 260.511719 45.117188 271.789063 51.894531 277.191406 C 52.484375 277.65625 53.089844 277 52.621094 276.105469 C 50.453125 271.9375 49.691406 267.679688 52.316406 262.550781 C 54.269531 258.746094 53.949219 257.355469 53.246094 254.070313 C 51.3125 245.046875 59.167969 239.769531 64.394531 234.035156 C 65.726563 232.570313 74.660156 220.527344 74.535156 213.972656 C 74.449219 211.113281 73.648438 212.589844 72.914063 213.867188 C 72.5 214.585938 72.015625 213.941406 72.234375 213.433594 C 74.355469 208.503906 82.347656 204.753906 87.234375 205.246094 C 87.246094 209.730469 84.996094 217.980469 78.074219 225.582031 C 73.714844 230.367188 75.371094 238.355469 77.925781 240.421875 C 79.417969 241.625 78.402344 243.867188 76.570313 243.832031 "/>
<path style=" stroke:none;fill-rule:nonzero;fill:rgb(0%,0%,0%);fill-opacity:1;" d="M 159.105469 456.089844 C 160.675781 453.421875 162.144531 450.378906 164.808594 449.160156 C 169.378906 449.835938 173.378906 452.144531 177.472656 454.089844 C 193.621094 461.761719 200.527344 456.074219 200.652344 438.988281 C 200.691406 433.78125 200.609375 428.488281 202.382813 424.71875 C 204.363281 423.617188 205.945313 422.355469 207.773438 421.519531 C 213.484375 421.421875 216.652344 417.578125 219.664063 413.800781 C 220.183594 413.152344 219.953125 412.886719 219.238281 413.273438 C 215.605469 415.246094 210.632813 415.382813 206.519531 415.574219 C 199.175781 419.699219 188.671875 421.511719 181.351563 417.328125 C 177.734375 415.261719 174.695313 412.238281 170.089844 411.589844 C 162.824219 407.988281 155.523438 402.742188 149.699219 397.867188 C 146.917969 395.742188 143.707031 395.953125 140.722656 396.800781 C 139.523438 397.140625 139.746094 397.535156 141.089844 397.566406 C 142.867188 397.605469 144.675781 397.957031 146.109375 398.59375 C 148.753906 399.855469 145.59375 402.242188 146.472656 403.523438 C 149.480469 407.671875 152.996094 410.21875 157.339844 412.679688 C 144.972656 420.476563 159.726563 434.925781 150.699219 443.753906 C 149.691406 453.097656 138.625 455.523438 134.078125 462.59375 C 130.398438 464.675781 125.535156 463.953125 121.855469 466.035156 C 120.417969 466.714844 118.117188 466.886719 117.28125 465.058594 C 119.371094 462.855469 121.664063 460.941406 123.8125 458.976563 C 132.640625 450.890625 133.804688 441.730469 131.691406 433.296875 C 130.875 430.039063 129.734375 426.882813 129.109375 423.273438 C 132.359375 420.53125 136.78125 418.824219 139.355469 416.371094 C 140.238281 415.597656 140.128906 415.253906 138.726563 415.671875 C 136.976563 416.21875 135.230469 416.800781 133.351563 416.921875 C 125.515625 417.417969 124.324219 425.308594 125.890625 433.113281 C 127.582031 441.523438 127.574219 446.074219 123.847656 451.621094 C 117.007813 461.796875 110.074219 464.605469 98.570313 461.261719 C 98.78125 460.109375 99.847656 459.566406 100.78125 458.90625 C 105.105469 455.84375 102.761719 449.683594 105.503906 444.660156 C 110.554688 434.355469 108.882813 421.800781 113.589844 411.378906 C 114.191406 410.050781 113.625 409.59375 113.097656 410.316406 C 111.074219 413.03125 109.304688 414.882813 107.242188 417.636719 C 106.539063 409.890625 98.554688 408.046875 94.664063 402.71875 C 94.144531 402.007813 93.695313 402.207031 94.054688 403.007813 C 96.511719 408.496094 104.261719 410.777344 104.664063 417.46875 C 104.308594 421.558594 104.234375 426.03125 103.507813 430.171875 C 103.144531 432.214844 99.914063 442.324219 99.847656 443.0625 C 99.105469 451.058594 92.304688 455.71875 86.773438 460.230469 C 83.820313 459.492188 80.894531 458.351563 78.273438 456.683594 C 81.019531 454.269531 84.839844 454.242188 87.660156 452.785156 C 86.289063 450.789063 81.886719 452.171875 80.550781 450.964844 C 78.730469 449.101563 74.363281 449.660156 71.941406 450.398438 C 70.914063 450.710938 69.828125 450.816406 69.144531 450.230469 C 73.171875 442.71875 74.582031 433.535156 79.15625 426.054688 C 81.785156 421.179688 87.160156 414.949219 84.695313 408.792969 C 84.214844 407.757813 84.464844 406.296875 84.292969 405.132813 C 84.160156 404.207031 83.609375 404.347656 83.519531 405.203125 C 83.367188 406.671875 82.972656 408.027344 82.285156 409.210938 C 79.3125 404.621094 77.394531 399.863281 74.984375 395.703125 C 74.292969 394.507813 73.15625 394.535156 74.039063 395.988281 C 76.742188 400.453125 77.554688 405.890625 79.871094 410.691406 C 74.515625 417.546875 72.316406 425.949219 69.753906 434.460938 C 68.128906 439.859375 62.972656 450.898438 51.171875 449.753906 C 46.5625 446.441406 41.925781 442.050781 40.914063 438.980469 C 39.175781 433.703125 40.167969 427.140625 42.457031 422.054688 C 41.925781 412.148438 44.671875 403.195313 50.679688 397.316406 C 50.980469 397.023438 50.824219 396.722656 50.445313 396.871094 C 44.65625 399.15625 40.84375 404.183594 39.828125 409.378906 C 38.535156 415.984375 35.226563 421.785156 32.980469 427.308594 C 32.644531 426.195313 32.167969 425.074219 31.832031 423.964844 C 34.914063 418.433594 36.238281 411.429688 33.492188 405.390625 C 32.492188 402.402344 33.90625 398.78125 34.699219 396.722656 C 34.90625 396.183594 34.304688 396.039063 34.011719 396.371094 C 29.59375 401.339844 34.796875 407.9375 28.914063 414.230469 C 25.824219 417.710938 28.40625 422.105469 26.792969 425.957031 C 25.265625 422.175781 23.625 417.980469 23.796875 413.21875 C 23.964844 409.21875 31.828125 393.230469 33.746094 389.992188 C 49.335938 380.121094 56.339844 371.015625 58.449219 356.8125 C 59.46875 349.957031 65.015625 346.695313 70.503906 340.882813 C 73.769531 337.421875 79.878906 328.945313 80.65625 322.71875 C 81.625 314.90625 87.675781 311.085938 88.699219 303.253906 C 93.953125 297.863281 99.308594 295.210938 105.335938 290.550781 C 107.6875 284.453125 113.851563 282.457031 115.457031 276.203125 C 117.21875 269.355469 123.742188 260.214844 131.0625 255.253906 C 139.386719 249.226563 159.921875 235.960938 160.617188 235.636719 C 162.199219 234.902344 161.839844 233.574219 159.992188 235.023438 C 150.582031 242.328125 137.261719 243.355469 130.6875 252.636719 C 120.128906 259.867188 113.40625 273.207031 103.824219 282.273438 C 100.65625 291.203125 86.296875 293.960938 84.382813 304.613281 C 75.339844 311.667969 75.414063 325.308594 69.378906 334.328125 C 60.582031 339.628906 56.488281 346.046875 54.871094 356.304688 C 52.683594 369.121094 44.832031 380.890625 32.433594 385 C 27.59375 394.507813 17.871094 403.5625 18.730469 415.617188 C 20.253906 419.535156 19.757813 425.09375 21.695313 428.902344 C 23.003906 438.257813 33 439.722656 36.59375 447.453125 C 43.972656 451.472656 49.710938 459.753906 59.851563 456.859375 C 66.195313 459.996094 72.558594 462.859375 79.695313 464.273438 C 95.976563 479.664063 104.261719 480.1875 123.003906 474.480469 C 130.503906 472.199219 137.75 467.753906 141.953125 467.328125 C 149.066406 466.609375 157.121094 459.457031 159.105469 456.089844 "/>
<path style=" stroke:none;fill-rule:nonzero;fill:rgb(0%,0%,0%);fill-opacity:1;" d="M 130.820313 289.738281 C 125.445313 295.320313 122.707031 296.808594 116.398438 298.476563 C 100.488281 302.6875 96.941406 322.203125 84.996094 331.109375 C 72.226563 340.769531 68.496094 359.042969 70.652344 375.390625 C 71.355469 380.011719 73.300781 379.621094 73.289063 375.222656 C 73.359375 361.453125 80.613281 350.464844 91.398438 343.929688 C 98.46875 340.019531 103.089844 333.910156 110.269531 330.417969 C 127.222656 321.863281 138.304688 305.902344 149.503906 290.804688 C 154.269531 283.84375 162.4375 282.636719 168.875 278.003906 C 174.691406 273.410156 179.550781 267.941406 181.355469 264.425781 C 182.742188 261.730469 185.117188 259.914063 187.621094 258.167969 C 192.972656 254.4375 194.550781 253.65625 197.074219 248.554688 C 197.4375 247.820313 197.1875 247.628906 196.648438 248.289063 C 194.699219 250.660156 192.230469 252.96875 189.433594 254.679688 C 179.675781 260.644531 174.695313 270.964844 162.894531 275.574219 C 147.949219 272.421875 137.535156 282.761719 130.820313 289.738281 "/>
<path style=" stroke:none;fill-rule:nonzero;fill:rgb(0%,0%,0%);fill-opacity:1;" d="M 222.835938 365.484375 C 220.511719 354.972656 217.71875 345.382813 211.285156 337.328125 C 207.644531 334.65625 205.058594 331.453125 202.800781 327.980469 C 196.671875 318.558594 195.972656 316.222656 187.359375 307.40625 C 181.828125 301.742188 174.085938 296.222656 166.886719 300.378906 C 168.230469 302.5 171.066406 302.898438 173.449219 304.003906 C 176.640625 305.480469 174 306.675781 171.125 308.035156 C 160.65625 312.988281 144.824219 310.9375 140.609375 316.6875 C 135.730469 323.820313 129.15625 329.15625 122.28125 334.015625 C 106.769531 344.976563 98.136719 350.9375 96.003906 370.089844 C 95.566406 373.992188 95.464844 378.011719 94.800781 381.570313 C 94.703125 382.101563 95.1875 382.425781 95.519531 381.996094 C 98.453125 378.195313 99.839844 370.59375 100.71875 366.484375 C 107.84375 359.582031 116.355469 352.355469 124.769531 348.804688 C 133.582031 343.238281 144.933594 342.738281 152.101563 335.15625 C 163.269531 333.285156 171.121094 323.5625 175.375 314.699219 C 179.628906 305.835938 184.976563 316.421875 192.621094 315.808594 C 197.671875 320.863281 198.410156 331.15625 182.925781 335.09375 C 172.269531 337.546875 165.628906 347.480469 160.578125 356.019531 C 159.523438 353.003906 158.023438 349.574219 157.878906 347.039063 C 157.894531 346.109375 157.324219 345.757813 156.8125 346.78125 C 149.777344 360.761719 161.128906 393.65625 181.0625 397.648438 C 186.710938 398.78125 188.730469 404.941406 195.097656 404.765625 C 196.234375 404.734375 196.617188 405.3125 195.554688 405.726563 C 191.886719 407.160156 187.867188 407.699219 184.21875 408.246094 C 183.753906 408.316406 183.871094 408.714844 184.371094 408.902344 C 187.429688 410.050781 190.078125 412.488281 193.566406 412.414063 C 196.226563 412.355469 204.980469 407.886719 209.859375 399.695313 C 210.324219 396.726563 210.289063 393.042969 209.105469 390.238281 C 214.746094 383.101563 224.460938 376.226563 222.835938 365.484375 "/>
<path style=" stroke:none;fill-rule:nonzero;fill:rgb(0%,0%,0%);fill-opacity:1;" d="M 149.820313 514.609375 C 147.835938 513.664063 147.117188 512.117188 146.425781 510.164063 C 145.410156 509.636719 144.980469 510.351563 144.488281 511.085938 C 142.683594 513.566406 124.746094 517.070313 112.417969 523.09375 C 108.453125 525.03125 100.734375 529.027344 100.109375 532.683594 C 105.363281 533.703125 111.148438 534.164063 114.8125 533.085938 C 124.328125 530.058594 152.414063 523.914063 160.21875 521.460938 C 170.941406 518.261719 179.449219 512.902344 190.351563 503.582031 C 191.1875 502.863281 192.378906 502.609375 193.136719 502.671875 C 193.992188 502.695313 193.398438 500.484375 192.582031 500.726563 C 181.523438 504.015625 169.855469 505.433594 159.03125 509.238281 C 156.488281 510.132813 154.355469 510.265625 155.121094 512.769531 C 154.1875 513.835938 151.71875 515.199219 149.820313 514.609375 "/>
<path style=" stroke:none;fill-rule:nonzero;fill:rgb(0%,0%,0%);fill-opacity:1;" d="M 217.980469 595.316406 C 212.621094 594.527344 208.523438 591.019531 204.265625 588.210938 C 196.695313 582.949219 202.527344 575.007813 199.703125 568.007813 C 205.175781 561.710938 205.699219 554.363281 202.351563 548.5625 C 199.117188 542.949219 194.417969 538.417969 199.957031 532.292969 C 207.6875 523.789063 198.457031 513.242188 194.949219 504.152344 C 188.355469 509.183594 183.425781 515.820313 176.203125 519.992188 C 161.441406 521.65625 146.695313 526.964844 133.453125 533.363281 C 130.421875 534.828125 130.90625 535.929688 129.820313 539.597656 C 128.074219 545.488281 130.855469 552.257813 129.578125 557.898438 C 126.929688 563.046875 131.160156 569.320313 125.992188 573.351563 C 123.96875 575.238281 125.507813 580.324219 126.820313 582.257813 C 128.570313 584.835938 127.664063 588.953125 129.046875 591.550781 C 131.984375 597.191406 124.730469 599.316406 125.3125 605.082031 C 122.632813 608.59375 115.527344 608.816406 114.253906 613.78125 C 116.585938 613.519531 118.238281 611.171875 120.683594 611.328125 C 121.863281 611.566406 120.992188 612.851563 121.078125 613.675781 C 121.730469 617.542969 124.921875 617.953125 127.050781 619.804688 C 128.558594 621.117188 129.15625 622.128906 127.972656 625.164063 C 125.355469 623.496094 121.269531 621.007813 120.183594 619.070313 C 119.027344 616.921875 117.511719 616.566406 117.101563 617.863281 C 116.015625 621.320313 112.71875 621.457031 109.617188 622.199219 C 104.375 623.449219 101.597656 628.847656 103.519531 632.179688 C 102.636719 642.246094 112.761719 645.027344 117.902344 641.070313 C 120.367188 639.167969 122.71875 636.796875 125.855469 636.890625 C 123.492188 643.675781 117.253906 647.203125 110.183594 647.339844 C 110.550781 650.011719 112.507813 653.074219 115.011719 652.832031 C 116.726563 652.59375 118.015625 654.628906 115.757813 655.929688 C 113.382813 657.296875 102.6875 663.675781 97.230469 667.902344 C 94.320313 670.152344 92.972656 672.382813 91.976563 676.765625 C 90.535156 683.121094 82.738281 684.65625 75.507813 686.015625 C 67.050781 686.019531 58.667969 690.925781 53.394531 696.707031 C 52.03125 698.484375 52.796875 699.578125 54.976563 698.96875 C 63.492188 696.589844 73.214844 700.378906 81.699219 702.097656 C 94.894531 704.488281 107.4375 702.003906 119.179688 705.78125 C 122.976563 707 124.445313 708.441406 130.320313 707.351563 C 134.050781 706.660156 138.054688 706.363281 139.085938 703.300781 C 140.652344 698.648438 140.949219 693.589844 140.75 688.878906 C 140.234375 676.640625 140.371094 663.671875 142.851563 652.371094 C 142.976563 651.808594 144.640625 645.085938 142.40625 643.242188 C 140.84375 641.953125 134.539063 641.386719 127.832031 636.332031 C 126.507813 635.332031 128.476563 632.65625 129.6875 634.753906 C 130.957031 636.949219 138.152344 639.046875 141.019531 640.015625 C 145.339844 641.472656 151.246094 636.648438 151.667969 631.132813 C 152.304688 622.738281 149.945313 615.925781 154.734375 613.160156 C 157.738281 611.425781 159.5625 611.117188 162.011719 611.132813 C 165.847656 611.152344 169.515625 609.476563 173.253906 608.171875 C 176.386719 607.230469 176.90625 602.269531 181.035156 603.761719 C 184.59375 599.355469 189.878906 602.011719 194.207031 602.5625 C 201.09375 597.28125 206.410156 606.890625 212.300781 605.363281 C 215.511719 604.507813 212.960938 609.695313 213.914063 612.015625 C 216.105469 618.292969 210.105469 620.359375 208.703125 625.179688 C 206.777344 630.851563 210.574219 638.980469 216.84375 636.476563 C 222.601563 631.414063 221.804688 620.496094 223.335938 618.214844 C 225.269531 615.695313 224.304688 611.832031 225.730469 609.648438 C 228.804688 604.9375 223.972656 596.195313 217.980469 595.316406 "/>
<path style=" stroke:none;fill-rule:nonzero;fill:rgb(0%,0%,0%);fill-opacity:1;" d="M 124.925781 553.917969 C 125.363281 551.355469 126.359375 548.554688 124.863281 546.414063 C 123.90625 544.96875 124.378906 540.136719 125.238281 537.757813 C 126.128906 535.304688 119.574219 532.183594 116.601563 534.945313 C 111.808594 539.398438 101.621094 533.570313 98.589844 537.222656 C 94.019531 542.519531 90.390625 550.195313 93.601563 557.492188 C 90.917969 564.394531 92.5 570.804688 92.136719 577.289063 C 91.847656 582.382813 90.476563 587.835938 82.300781 591.132813 C 71.300781 595.867188 69.113281 621.074219 82.28125 623.175781 C 81.601563 625.886719 81.246094 628.167969 81.628906 630.039063 C 81.867188 631.191406 82.476563 631.21875 83.128906 630.050781 C 83.929688 628.617188 84.855469 627.300781 85.34375 626.730469 C 87.003906 624.804688 89.390625 627.5 87.101563 628.804688 C 82.589844 631.105469 85.132813 638.222656 84.84375 642.707031 C 84.78125 644.824219 80.527344 647.886719 82.417969 650.730469 C 83.234375 651.851563 83.886719 653.527344 84.757813 654.976563 C 88.175781 660.652344 95.980469 658.785156 98.855469 653.269531 C 100.628906 649.871094 99.789063 646.011719 98.789063 642.085938 C 97.113281 635.5 96.316406 634.089844 98.988281 629.09375 C 101.121094 625.105469 102.699219 620.847656 103.625 616.660156 C 105.019531 610.367188 114.46875 607.28125 119.015625 604.925781 C 122.378906 603.179688 119.882813 595.25 119.753906 594.214844 C 118.628906 585.148438 119.738281 574.523438 122.992188 565.953125 C 124.136719 562.929688 124.191406 558.292969 124.925781 553.917969 "/>
<path style=" stroke:none;fill-rule:nonzero;fill:rgb(0%,0%,0%);fill-opacity:1;" d="M 212.523438 696.660156 C 209.984375 696.570313 210.328125 695.722656 211.710938 694.433594 C 214.289063 692.039063 220.484375 688.113281 218.371094 684.714844 C 208.316406 682.023438 197.730469 679.160156 188.65625 673.9375 C 186.378906 666.972656 179.472656 664.074219 174.148438 659.910156 C 172.644531 658.519531 174.75 651.089844 175.835938 649.445313 C 182.09375 639.980469 186.984375 628.878906 194.882813 621.699219 C 200.472656 619.605469 209.085938 617.160156 209.359375 610.765625 C 205.664063 605.160156 197.910156 607.433594 192.308594 606.296875 C 189.265625 605.679688 188.359375 605.519531 186.332031 606.710938 C 177.246094 612.046875 165.675781 610.839844 156.660156 615.964844 C 153.710938 621.503906 155.132813 629.09375 154.476563 635.050781 C 153.371094 639.480469 149.753906 640.363281 146.816406 643.582031 C 145.8125 644.335938 145.625 650.769531 145.605469 651.878906 C 145.457031 661.816406 144.488281 694.582031 147.140625 702.355469 C 145.796875 704.179688 142.828125 703.714844 142 705.980469 C 157.925781 710.6875 178.003906 701.386719 186.890625 701.371094 C 190.675781 701.386719 193.363281 698.242188 196.773438 700.371094 C 192.058594 703.300781 174.050781 707.328125 159.554688 708.566406 C 136.714844 710.523438 117.101563 712.613281 99.066406 707.71875 C 88.496094 704.757813 75.5 704.816406 65.253906 700.367188 C 62.78125 699.296875 58.339844 699.5625 55.777344 700.628906 C 53.796875 701.457031 53.320313 703.996094 56.59375 705.207031 C 68.566406 709.617188 77.050781 713.074219 90.734375 714.289063 C 99.96875 715.109375 108.15625 716.421875 117.542969 719.40625 C 131.492188 723.554688 156.261719 716.960938 166.246094 714.996094 C 181.496094 711.992188 196.527344 709.933594 211.695313 705.832031 C 217.203125 704 225.929688 701.589844 222.101563 696.683594 C 220.191406 694.753906 213.5625 696.695313 212.523438 696.660156 "/>
</g>
</svg>
