<?xml version="1.0" encoding="UTF-8"?>
<svg xmlns="http://www.w3.org/2000/svg" xmlns:xlink="http://www.w3.org/1999/xlink" width="514pt" height="276pt" viewBox="0 0 514 276" version="1.1">
<g id="surface1">
<path style=" stroke:none;fill-rule:nonzero;fill:rgb(0%,0%,0%);fill-opacity:1;" d="M 513.382813 0.398438 C 508.742188 0.542969 502.46875 0.492188 496.988281 0.484375 C 490.84375 9.90625 482.539063 14.519531 471.761719 19.121094 C 468.195313 18.230469 462.929688 20.847656 461.316406 23.761719 C 411.859375 23.761719 361.480469 23.761719 311.472656 23.761719 C 304.171875 23.761719 304.886719 40.539063 310.710938 40.539063 C 351.496094 40.539063 439.882813 40.539063 444.496094 40.539063 C 444.679688 42.753906 444.339844 45.152344 444.339844 47.183594 C 429.578125 47.183594 315.714844 47.183594 304.460938 47.183594 C 304.460938 65.820313 304.460938 84.089844 304.460938 101.804688 C 302.246094 101.804688 297.261719 101.804688 294.863281 101.804688 C 294.9375 85.039063 294.972656 66.1875 294.882813 47.875 C 294.863281 42.9375 290.988281 43.488281 290.988281 47.183594 C 253.894531 47.183594 182.585938 47.183594 175.011719 47.183594 C 175.011719 48.84375 175.011719 52.347656 175.011719 53.824219 C 206.578125 53.824219 237.472656 53.824219 269.027344 53.824219 C 269.027344 59.730469 269.304688 64.71875 269.027344 70.066406 C 236.917969 70.066406 206.285156 70.066406 174.90625 70.066406 C 174.835938 75.972656 174.90625 84.460938 174.90625 88.519531 C 205.835938 88.519531 238.765625 88.519531 269.027344 88.519531 C 269.027344 91.472656 269.027344 99.222656 269.027344 101.804688 C 235.628906 101.804688 199.578125 101.644531 164.949219 101.804688 C 164.949219 88.519531 164.949219 49.027344 164.949219 40.539063 C 200.378906 40.539063 238.027344 40.539063 273.640625 40.539063 C 277.148438 38.691406 279.179688 37.21875 282.316406 35.195313 C 287.480469 34.992188 290.25 35.117188 294.863281 35.542969 C 298.367188 35.886719 305.011719 37.21875 304.402344 34.988281 C 303.492188 31.339844 301.554688 27.027344 298.921875 23.761719 C 296.960938 23.304688 294.796875 24.726563 294.863281 27.074219 C 287.488281 27.835938 281.777344 28.671875 274.941406 28.902344 C 275.050781 26.5625 275.117188 23.761719 272.929688 23.761719 C 237.65625 23.761719 201.304688 24.042969 164.949219 23.761719 C 159.695313 23.761719 161.589844 33.816406 161.449219 38.125 C 159.414063 38.324219 158.835938 43.75 158.859375 47.183594 C 156.644531 47.183594 153.878906 47.183594 151.476563 47.183594 C 151.992188 43.960938 154.59375 38.160156 152.597656 34.640625 C 151.292969 32.234375 146.09375 31.085938 143.421875 34.207031 C 136.738281 34.429688 128.4375 34.578125 122.390625 32.847656 C 120.289063 32.234375 121.199219 35.136719 119.53125 36.140625 C 118.425781 36.628906 113.113281 34.527344 112.578125 32.539063 C 112.039063 30.554688 111.617188 28.507813 110.585938 27.058594 C 107.550781 22.589844 106.316406 29.5625 102.625 27.585938 C 100.546875 21.902344 97.226563 27.328125 96.089844 28.535156 C 93.554688 28.777344 94.746094 25.648438 92.980469 24.84375 C 89.066406 23.753906 91.25 27.945313 89.554688 29.488281 C 87.257813 30.941406 87.925781 25.804688 85.011719 26.386719 C 82.089844 27.066406 83.9375 30.203125 82.273438 30.945313 C 80.613281 31.867188 79.066406 27.421875 75.632813 27.621094 C 73.417969 28.175781 74.363281 30.390625 73.9375 31.8125 C 66.585938 33.46875 63.160156 35.492188 58.523438 42.332031 C 56.699219 45.640625 59.949219 48.105469 62.398438 46.953125 C 76.371094 41.304688 94.824219 40.015625 110.484375 44.363281 C 103.847656 51.261719 100.046875 62.984375 103.578125 72.164063 C 95.507813 78.296875 87.121094 80.554688 81.128906 85.332031 C 77.53125 88.199219 76.585938 89.992188 77.460938 94.367188 C 19.003906 121.816406 2.515625 214.703125 0.476563 257.738281 C 0.117188 265.292969 1.074219 268.417969 9.027344 268.691406 C 31.78125 269.476563 52.578125 274.15625 76.738281 275.105469 C 86.003906 275.472656 86.785156 278.292969 88.28125 269.242188 C 96.058594 270.335938 105.082031 271.925781 112.546875 273.398438 C 117.667969 274.40625 121.742188 260.253906 125.160156 252.976563 C 127.921875 247.09375 126.953125 244.753906 126.683594 238.175781 C 125.839844 217.539063 124.257813 194.136719 129.695313 174.695313 C 133.554688 160.894531 138.894531 163.105469 142.160156 165.527344 C 150.925781 172.023438 161.257813 177.464844 169.804688 181.328125 C 175.042969 183.046875 225.59375 180.1875 230.574219 177.359375 C 235.132813 174.519531 239.367188 170.742188 243.410156 166.96875 C 260.234375 151.269531 275.492188 134.59375 304.648438 134.941406 C 309.945313 135.003906 310.839844 134.394531 311.816406 126.101563 C 312.019531 124.382813 314.789063 121.683594 317.019531 121.039063 C 321.742188 119.667969 326.90625 118.316406 330.820313 116.660156 C 337.382813 100.019531 347.546875 87.265625 363.804688 79.023438 C 376.0625 79.03125 388.609375 79.105469 401.15625 78.921875 C 404.695313 74.035156 406.9375 72.179688 413.890625 70.066406 C 426.4375 70.066406 440.464844 70.066406 454.671875 70.40625 C 458.296875 66.25 464.640625 65.589844 469.59375 65.140625 C 477.003906 65.21875 490.84375 65.082031 490.84375 65.082031 L 490.871094 59.761719 L 484.382813 59.730469 L 484.433594 50.136719 L 495.890625 50.199219 L 495.824219 47.183594 L 484.382813 47.183594 L 484.382813 37.402344 C 484.382813 37.402344 493.796875 37.769531 493.636719 33.140625 C 493.609375 27.4375 499.523438 24.863281 504.582031 22.84375 C 511.828125 18.316406 513.90625 8.359375 513.382813 0.398438 Z M 76.703125 163.570313 C 90.015625 167.160156 101.632813 171.613281 112.214844 175.171875 C 111.617188 177.097656 111.0625 179.863281 110.695313 182.449219 C 103.496094 180.234375 79.875 172.738281 73.460938 171.171875 C 74.652344 168.167969 75.824219 166.265625 76.703125 163.570313 Z M 68.175781 179.933594 C 83.753906 184.105469 97.40625 188.167969 110.480469 192.761719 C 110.257813 197.4375 110.019531 202.476563 109.824219 206.613281 C 93.71875 200.71875 78.390625 196.46875 61.984375 192.625 C 64.914063 187.648438 66.171875 184.167969 68.175781 179.933594 Z M 57.574219 201.972656 C 72.496094 203.300781 95.195313 209.390625 109.789063 214.90625 C 109.792969 218.691406 109.773438 222.308594 109.777344 226.625 C 90.027344 220.648438 71.96875 217.800781 51.921875 214.683594 C 53.476563 210.214844 55.703125 206.210938 57.574219 201.972656 Z M 47.03125 223.414063 C 56.1875 224.210938 101.527344 233.265625 109.96875 237.8125 C 110.378906 240.535156 110.507813 243.53125 111.015625 246.15625 C 88.734375 240.667969 66.070313 235.730469 42.382813 233.347656 C 44.230469 229.804688 45.625 226.0625 47.03125 223.414063 Z M 112.679688 264.265625 C 97.203125 259.28125 54.742188 249.953125 38.992188 247.789063 C 39.261719 246.109375 40.121094 244 41.03125 242.839844 C 67.1875 246.421875 88.9375 251.105469 113.070313 259.28125 C 112.75 260.914063 112.726563 262.722656 112.679688 264.265625 Z M 114.199219 165.285156 C 103.128906 162.148438 93.71875 158.460938 81.953125 155.523438 C 83.726563 152.039063 84.492188 149.414063 86.722656 146.195313 C 97.574219 150.753906 108.320313 154.613281 118.953125 158.542969 C 117.152344 159.933594 115.308594 162.335938 114.199219 165.285156 Z M 133.128906 147.445313 C 120.640625 142.636719 106.601563 137.789063 94.824219 134.652344 C 95.933594 133.175781 96.71875 131.75 97.753906 130.308594 C 109.761719 134.140625 123.269531 138.886719 134.410156 144.234375 C 133.945313 144.988281 133.378906 147.144531 133.128906 147.445313 Z M 146.230469 44.886719 C 139.554688 46.664063 137.96875 48.585938 141.15625 50.105469 C 144.929688 51.910156 137.703125 54.996094 141.972656 57.21875 C 138.328125 65.492188 129.828125 74.273438 123.039063 81.488281 C 119.898438 84.828125 121.566406 87.308594 124.976563 84.929688 C 132.648438 79.574219 137.117188 75.070313 142.167969 68.0625 C 143.109375 66.753906 143.628906 67.316406 142.6875 69.039063 C 134.902344 83.328125 120.125 97.152344 108.03125 107.535156 C 104.261719 103.046875 100.558594 100.445313 98.425781 96.03125 C 93.667969 86.167969 103.859375 82.492188 108.675781 79.867188 C 124.164063 71.355469 129.542969 58.5625 135.003906 56.292969 C 139.367188 54.480469 137.457031 51.101563 135.230469 49.59375 C 133.679688 48.539063 132.398438 47.578125 135.148438 45.171875 C 137.53125 43.394531 141.617188 42.101563 145.449219 42.339844 C 148.46875 42.53125 149.300781 44.070313 146.230469 44.886719 Z M 179.496094 113.8125 C 197.054688 113.339844 221.476563 114.066406 238.015625 115.253906 C 242.054688 115.539063 242.132813 116.363281 238.207031 116.429688 C 220.515625 116.722656 195.652344 116.773438 179.351563 116.867188 C 179.394531 115.96875 179.445313 114.890625 179.496094 113.8125 Z M 224.175781 167.859375 C 208.933594 169.839844 192.664063 170.691406 176.808594 170.480469 C 171.691406 160.503906 167.140625 150.007813 163.070313 140.800781 C 171.292969 138.484375 179.160156 137.789063 187.5625 137.632813 C 191.757813 150.949219 195.949219 151.234375 200.757813 140.5625 C 202.242188 137.265625 204.148438 134.777344 208.695313 136.832031 C 201.519531 149.335938 197.664063 159.320313 207.195313 164.664063 C 211.34375 166.988281 213.976563 162.648438 211.992188 158.277344 C 206.800781 146.828125 218.21875 141.683594 223.632813 139.449219 C 231.621094 136.15625 240.230469 139.496094 248.714844 140.894531 C 242.101563 151.039063 232.675781 166.578125 224.175781 167.859375 Z M 444.339844 56.59375 C 427.175781 56.59375 409.644531 56.59375 391.929688 56.59375 C 391.007813 53.273438 387.316406 53.273438 386.023438 56.59375 C 384.222656 56.695313 381.671875 56.71875 380.121094 56.59375 C 378.460938 53.273438 375.320313 53.824219 374.03125 56.855469 C 372.652344 56.90625 370.894531 56.699219 369.550781 56.863281 C 367.941406 53.085938 364.617188 52.902344 363.144531 56.660156 C 352.070313 56.808594 339.519531 56.878906 327.496094 56.671875 C 327.570313 55.101563 327.390625 51.605469 327.410156 50.289063 C 340.398438 50.1875 420.351563 50.320313 444.339844 50.136719 C 444.523438 52.136719 444.261719 54.425781 444.339844 56.59375 Z M 465.101563 40.636719 L 469.4375 40.636719 L 469.4375 47.183594 L 465.101563 47.183594 Z M 469.542969 56.59375 L 465.269531 56.59375 L 465.269531 50.265625 L 469.542969 50.265625 L 469.542969 56.59375 "/>
</g>
</svg>
