<?xml version="1.0" encoding="UTF-8"?>
<svg xmlns="http://www.w3.org/2000/svg" xmlns:xlink="http://www.w3.org/1999/xlink" width="508pt" height="97pt" viewBox="0 0 508 97" version="1.1">
<g id="surface1">
<path style=" stroke:none;fill-rule:nonzero;fill:rgb(0%,0%,0%);fill-opacity:1;" d="M 498.339844 78.789063 C 496.421875 78.347656 402.683594 62.8125 400.699219 61.277344 C 406.269531 61.210938 478.277344 72.007813 482.5 72.648438 C 483.011719 72.265625 483 72.148438 482.429688 71.902344 C 475.902344 70.429688 407.867188 60.636719 406.398438 59.867188 C 399.164063 59.226563 392.125 57.882813 385.019531 56.796875 C 382.269531 56.921875 379.644531 55.261719 376.765625 56.539063 C 376.765625 58.140625 374.910156 59.804688 376.894531 60.828125 C 383.867188 61.789063 396.167969 63.148438 397.949219 63.707031 C 397.832031 64.648438 386.171875 65.371094 381.179688 63.582031 C 378.621094 62.554688 375.421875 63.132813 372.925781 61.914063 C 367.867188 61.210938 362.492188 60.378906 358.652344 57.882813 C 363.644531 58.460938 368.894531 58.460938 373.054688 55.582031 C 373.628906 53.789063 371.132813 54.171875 370.941406 52.699219 C 371.195313 52.507813 371.453125 52.316406 371.835938 52.378906 C 372.925781 51.933594 372.667969 50.652344 371.835938 50.078125 C 372.09375 49.179688 373.246094 49.308594 373.054688 48.347656 C 373.246094 47.066406 371.644531 47.835938 371.390625 47.003906 C 371.453125 46.300781 371.390625 45.597656 370.621094 45.46875 C 371.324219 45.019531 370.363281 43.675781 371.710938 44.378906 C 372.667969 45.46875 373.820313 44.445313 374.78125 45.277344 C 375.230469 45.789063 376.1875 45.722656 376.574219 45.148438 C 376.765625 44.445313 376.316406 44.058594 376.125 43.484375 C 375.613281 42.203125 374.203125 42.074219 373.054688 41.628906 C 372.09375 39.898438 369.660156 39.964844 368.125 39.132813 C 365.246094 38.363281 362.046875 39.261719 359.421875 38.109375 C 361.339844 37.210938 363.835938 36.636719 366.140625 36.253906 C 372.925781 36.125 393.726563 39.898438 397.308594 40.988281 C 399.613281 42.332031 402.683594 42.714844 404.414063 44.253906 C 397.949219 44.1875 391.742188 43.164063 385.660156 42.714844 C 383.421875 42.714844 381.308594 42.652344 379.644531 42.523438 C 377.085938 43.804688 380.925781 45.789063 378.429688 46.8125 C 377.851563 47.835938 378.425781 48.703125 379 49.148438 C 377.273438 49.597656 376.445313 50.652344 375.675781 52.058594 C 375.332031 54.648438 381.832031 54.984375 385.339844 55.003906 C 393.085938 55.773438 400.765625 57.691406 408.382813 58.078125 C 407.484375 55.386719 403.390625 56.027344 401.148438 54.8125 C 405.308594 54.363281 409.148438 55.453125 412.988281 56.21875 C 428.09375 57.757813 480.0625 63.773438 491.199219 64.21875 C 492.667969 64.484375 492.5 62.984375 491.167969 62.984375 C 490.332031 63.148438 406.523438 53.277344 406.523438 53.148438 C 397.886719 52.1875 389.886719 51.417969 381.691406 50.203125 C 381.628906 50.269531 379.773438 49.882813 379.964844 48.988281 C 385.980469 49.242188 392.0625 49.691406 398.589844 49.757813 C 398.589844 49.5625 398.589844 49.308594 398.589844 49.117188 C 396.605469 48.667969 394.558594 48.347656 392.699219 47.582031 C 392.699219 46.941406 391.484375 46.746094 392.253906 46.042969 C 398.011719 46.234375 450.464844 55.019531 470.625 56.941406 C 471.625 56.941406 471.5 56.066406 470.78125 56.027344 C 468.15625 55.324219 412.734375 45.914063 412.222656 45.597656 C 404.539063 41.949219 397.628906 37.789063 388.414063 37.339844 C 385.726563 37.019531 383.613281 36.378906 381.054688 35.804688 C 372.222656 34.84375 360.5 33.316406 354.300781 39.132813 C 354.234375 39.066406 360.167969 32.148438 360.445313 30.875 C 359.421875 29.53125 356.988281 30.8125 355.710938 30.425781 C 355.644531 29.085938 357.117188 28.058594 357.5625 26.84375 C 359.230469 24.921875 360.316406 22.042969 362.492188 20.570313 C 394.238281 20.699219 425.660156 21.660156 457.214844 20.890625 C 459.667969 20.484375 457.667969 19.648438 455.390625 19.929688 C 441.246094 19.292969 420.734375 19.355469 405.308594 18.714844 C 406.972656 17.757813 409.339844 17.820313 410.238281 16.09375 C 405.4375 13.722656 400.253906 12.1875 395.003906 9.820313 C 391.867188 8.539063 388.582031 7.816406 385.660156 6.621094 C 377.277344 4.316406 366 0.734375 352.507813 0.921875 C 347.195313 0.476563 341.820313 0.859375 339.261719 6.425781 C 338.234375 9.753906 341.246094 11.613281 342.972656 13.53125 C 340.09375 18.140625 334.84375 22.621094 331.773438 27.164063 C 311.738281 24.539063 253.691406 19.484375 245.4375 19.164063 C 240.253906 18.140625 233.789063 19.355469 228.859375 18.714844 C 227.707031 16.476563 226.042969 14.363281 224.378906 12.253906 C 222.332031 8.921875 219.257813 7.132813 217.019531 3.804688 C 216.625 3.375 215.867188 3.546875 215.609375 4.125 C 216.058594 5.851563 215.75 15.566406 216.058594 17.949219 C 216.058594 18.332031 210.5 17.984375 207.929688 18.269531 C 193.851563 17.179688 178.683594 18.589844 167.097656 25.308594 C 163.449219 27.546875 160.761719 30.234375 158.972656 34.074219 C 150.011719 34.589844 140.539063 35.484375 131.324219 36.253906 C 126.140625 37.019531 120.761719 37.722656 115.769531 38.554688 C 107.386719 39.835938 99.515625 41.371094 91.386719 43.164063 C 87.097656 43.738281 83.003906 44.570313 78.90625 45.789063 C 76.984375 45.980469 76.28125 47.582031 75.515625 49.117188 C 67.898438 51.613281 61.050781 54.042969 53.882813 57.5625 C 52.15625 58.269531 51.835938 59.996094 52.347656 61.597656 C 55.800781 65.949219 61.820313 66.84375 66.488281 69.085938 C 67.835938 69.789063 96.667969 77.484375 123.324219 80.476563 C 129.210938 81.050781 134.585938 81.179688 140.796875 81.566406 C 144.699219 82.714844 167.417969 82.078125 167.546875 82.140625 C 183.546875 82.332031 199.738281 79.964844 214.84375 77.085938 C 228.539063 73.308594 242.875 71.132813 257.53125 71.261719 C 259.773438 71.003906 263.101563 71.003906 264.957031 71.261719 C 269.820313 70.8125 274.234375 71.964844 278.78125 72.027344 C 289.402344 73.117188 300.347656 74.460938 310.84375 76.316406 C 313.019531 76.507813 321.46875 78.429688 321.789063 78.492188 C 327.804688 79.003906 333.371094 80.605469 338.941406 82.140625 C 338.171875 87.132813 333.050781 82.84375 330.363281 85.210938 C 321.53125 85.722656 312.699219 85.339844 303.933594 85.210938 C 301.050781 85.46875 297.46875 85.46875 294.394531 85.210938 C 290.109375 85.917969 287.164063 82.90625 283.515625 82.460938 C 281.722656 82.714844 280.1875 84.507813 278.269531 84.957031 C 264.378906 86.109375 250.746094 85.148438 236.21875 85.40625 C 228.285156 85.597656 220.921875 85.722656 212.730469 85.210938 C 211.769531 85.148438 211.386719 83.675781 210.554688 83.421875 C 208.890625 82.972656 207.355469 83.804688 205.945313 84.636719 C 195.644531 86.300781 185.722656 84.636719 175.097656 85.40625 C 174.394531 85.597656 147.257813 85.46875 134.074219 85.210938 C 131.195313 85.789063 130.8125 82.394531 128.699219 81.566406 C 128.058594 81.820313 125.867188 82.324219 125.386719 82.355469 C 121.996094 82.554688 118.699219 83.714844 115.449219 83.996094 C 108.089844 85.660156 100.027344 84.765625 92.730469 84.765625 C 92.667969 85.019531 70.457031 80.925781 69.5625 81.242188 C 66.554688 83.613281 63.160156 83.613281 59.707031 84.765625 C 59.515625 84.445313 40.378906 84.445313 39.609375 84.765625 C 27.386719 84.445313 14.96875 85.40625 2.875 85.085938 C 0.167969 85.148438 0.582031 87.734375 1.976563 87.707031 C 10.808594 87.515625 20.089844 88.027344 29.304688 87.835938 C 37.433594 87.707031 44.792969 88.027344 52.792969 88.15625 C 55.417969 87.582031 58.683594 87.964844 61.242188 87.835938 C 63.546875 86.683594 65.785156 88.285156 68.027344 87.070313 C 69.371094 85.597656 70.585938 87.898438 72.1875 87.707031 C 73.976563 86.941406 75.578125 88.605469 77.5625 88.285156 C 78.011719 88.414063 85.242188 88.414063 88.316406 88.15625 C 93.304688 88.476563 98.363281 88.09375 103.035156 88.476563 C 110.972656 87.964844 118.90625 89.117188 125.945313 86.300781 C 128.058594 85.53125 129.019531 87.515625 130.554688 88.605469 C 138.042969 89.179688 145.914063 88.21875 154.042969 88.476563 C 154.300781 88.414063 154.363281 88.859375 154.617188 88.796875 C 173.050781 87.773438 211.066406 88.09375 211.453125 88.605469 C 216.699219 89.050781 253.4375 88.667969 267.515625 88.476563 C 272.378906 88.859375 277.117188 87.515625 281.980469 88.027344 C 282.621094 86.875 284.027344 87.582031 285.050781 87.386719 C 286.78125 88.347656 288.828125 87.261719 290.429688 88.476563 C 302.203125 88.476563 313.980469 88.476563 325.757813 88.476563 C 329.148438 88.09375 332.347656 89.5625 335.101563 88.15625 C 340.925781 89.242188 347.324219 88.027344 353.277344 88.285156 C 356.285156 87.898438 359.101563 86.621094 362.171875 86.746094 C 362.941406 87.324219 363.835938 87.835938 364.925781 87.835938 C 365.949219 85.789063 367.933594 88.09375 369.085938 86.300781 C 369.789063 86.8125 369.914063 87.707031 370.941406 87.515625 C 373.5 85.980469 374.71875 89.242188 377.53125 87.707031 C 377.660156 85.210938 379.390625 87.324219 380.734375 86.941406 C 381.757813 86.746094 381.820313 84.699219 382.71875 86.492188 C 383.996094 86.746094 384.765625 85.980469 385.53125 85.210938 C 386.171875 85.46875 386.238281 86.234375 387.070313 86.171875 C 388.222656 86.300781 388.734375 85.40625 389.371094 84.636719 C 391.164063 83.292969 391.101563 85.597656 392.125 86.171875 C 392.445313 85.40625 393.789063 84.378906 393.019531 83.421875 C 392.1875 82.269531 389.949219 83.867188 389.820313 82.011719 C 389.246094 81.179688 388.332031 80.984375 387.324219 80.15625 C 387.332031 79.316406 392.316406 77.277344 395.515625 77.53125 C 397.886719 76.574219 400.1875 78.363281 402.109375 76.1875 C 402.429688 77.148438 401.339844 77.597656 401.019531 78.492188 C 400.574219 79.324219 401.148438 80.285156 401.660156 80.796875 C 403.195313 80.15625 405.628906 80.796875 406.84375 80.15625 C 408.699219 80.347656 409.597656 77.660156 411.324219 79.261719 C 411.261719 80.15625 410.109375 80.605469 410.558594 81.691406 C 411.324219 82.652344 412.027344 83.867188 413.308594 83.421875 C 413.246094 83.804688 413.179688 84.058594 413.179688 84.316406 C 412.414063 84.1875 411.835938 85.917969 411.132813 84.636719 C 411.132813 81.949219 408.125 84.316406 407.035156 82.90625 C 405.5 82.140625 403.773438 80.605469 401.789063 81.882813 C 400.125 80.988281 398.398438 82.011719 396.734375 82.78125 C 396.222656 83.164063 396.539063 83.675781 396.859375 83.996094 C 397.308594 83.996094 397.886719 84.125 398.269531 83.867188 C 399.035156 84.378906 399.550781 85.277344 399.933594 86.171875 C 402.109375 85.660156 400.1875 88.347656 401.789063 88.605469 C 403.070313 88.605469 404.539063 88.796875 405.5 87.835938 C 406.910156 86.429688 407.484375 89.050781 408.699219 89.242188 C 409.339844 88.925781 409.339844 88.15625 409.148438 87.707031 C 410.300781 86.875 410.941406 88.859375 412.222656 88.605469 C 412.988281 87.707031 414.972656 88.605469 415.164063 87.261719 C 416.382813 83.867188 416.1875 88.988281 418.046875 87.835938 C 418.238281 86.363281 418.8125 87.453125 419.582031 87.707031 C 420.667969 87.898438 421.4375 87.453125 422.203125 86.941406 C 423.355469 86.875 424.1875 85.980469 425.148438 85.210938 C 426.8125 84.574219 427.390625 86.363281 428.796875 86.621094 C 430.332031 85.210938 431.675781 88.667969 433.277344 86.621094 C 435.582031 88.605469 437.691406 87.324219 440.507813 87.707031 C 440.699219 88.027344 441.277344 87.707031 441.40625 88.15625 C 443.582031 86.171875 444.734375 91.101563 446.203125 87.386719 C 446.78125 87.835938 447.804688 87.132813 448.1875 88.027344 C 448.765625 88.347656 450.238281 89.371094 450.621094 88.285156 C 451.390625 87.453125 451.390625 86.234375 450.621094 85.40625 C 450.238281 83.421875 447.613281 84.765625 446.332031 83.867188 C 445.117188 84.378906 444.734375 85.660156 443.261719 85.210938 C 442.683594 84.253906 441.214844 83.804688 441.597656 82.332031 C 441.339844 81.566406 440.316406 81.242188 439.421875 81.371094 C 437.308594 82.652344 435.453125 81.820313 432.828125 81.882813 C 432.253906 82.332031 431.867188 82.84375 432.0625 83.546875 C 430.589844 83.292969 428.796875 85.40625 427.453125 83.546875 C 425.851563 83.035156 424.1875 83.035156 422.972656 84.316406 C 420.242188 83.324219 417.328125 81.316406 414.238281 82.363281 C 415 81.234375 413.6875 79.855469 415.933594 80.347656 C 418.621094 79.003906 421.117188 76.378906 424.507813 77.085938 C 424.957031 79.070313 425.851563 80.476563 427.902344 80.925781 C 430.269531 78.875 432.636719 77.085938 435.902344 76.636719 C 436.734375 76.574219 437.246094 77.660156 437.246094 78.171875 C 439.804688 77.53125 440.253906 74.078125 442.8125 73.882813 C 443.324219 73.820313 443.964844 72.730469 444.667969 73.117188 C 444.859375 76.378906 447.933594 73.242188 449.277344 74.011719 C 450.046875 74.714844 449.148438 75.101563 448.765625 75.738281 C 448.507813 76.765625 446.652344 78.554688 448.765625 79.070313 C 450.109375 78.109375 451.582031 76.699219 453.246094 76.1875 C 453.949219 78.621094 456.574219 78.109375 458.492188 77.722656 C 460.222656 79.003906 462.71875 79.582031 463.550781 81.691406 C 464.828125 83.292969 466.238281 81.371094 467.710938 81.566406 C 469.691406 85.210938 475.070313 82.140625 477.503906 83.996094 C 477.820313 83.226563 476.539063 82.589844 476.15625 82.011719 C 474.046875 80.027344 470.78125 82.84375 469.246094 80.15625 C 468.027344 79.070313 466.171875 79.644531 464.894531 80.15625 C 463.484375 78.683594 462.269531 77.46875 460.476563 76.316406 C 458.8125 74.652344 456.125 76.957031 454.910156 74.972656 C 453.949219 74.011719 452.796875 74.332031 451.582031 74.460938 C 451.070313 73.820313 450.300781 73.117188 450.621094 72.347656 C 459.195313 73.371094 493.105469 78.890625 498.167969 79.648438 C 499.144531 79.796875 498.976563 78.933594 498.339844 78.789063 Z M 395.515625 18.394531 C 396.027344 18.78125 396.796875 18.394531 397.308594 18.714844 C 396.832031 19.316406 384.5 19.148438 378.300781 18.394531 C 380.5 17.898438 391.417969 17.816406 395.515625 18.394531 Z M 346.492188 5.53125 C 350.972656 5.148438 355.195313 5.46875 359.996094 5.851563 C 362.667969 6.148438 365.5625 6.621094 368.316406 7.066406 C 372.925781 7.578125 381.886719 9.882813 382.140625 9.949219 C 384.445313 10.140625 386.75 11.292969 388.414063 11.996094 C 377.851563 11.546875 368.574219 12.507813 358.332031 11.996094 C 357.117188 11.675781 347.324219 10.714844 345.277344 8.410156 C 344.125 7.261719 345.214844 5.59375 346.492188 5.53125 Z M 220.21875 12.765625 C 222.589844 15.324219 223.546875 17.949219 225.914063 20.570313 C 224.253906 21.148438 220.75 20.816406 220.167969 20.445313 C 220.25 19.316406 220.410156 15.324219 220.21875 12.765625 Z M 219.769531 22.875 C 235.578125 23.578125 265.914063 25.882813 266.171875 25.308594 C 281.277344 26.460938 297.277344 27.226563 312.570313 28.890625 C 317.179688 28.957031 320.636719 30.425781 325.308594 30.425781 C 325 36.816406 319.25 45.316406 314.875 48.667969 C 310.011719 48.730469 306.300781 47.582031 301.628906 46.683594 C 285.5625 44.058594 269.5625 41.371094 252.925781 40.09375 C 244.027344 39.066406 220.476563 38.300781 218.234375 37.597656 C 217.75 32.816406 218.300781 22.746094 219.769531 22.875 Z M 272.125 44.699219 C 265.789063 45.339844 259.453125 45.597656 253.691406 48.09375 C 244.859375 45.722656 236.21875 43.417969 227.003906 41.757813 C 227.003906 41.628906 222.375 41.191406 221.949219 40.539063 C 227.875 39.691406 262.140625 42.90625 272.125 44.699219 Z M 163.257813 34.84375 C 167.226563 29.339844 172.851563 25.730469 179.25 24.066406 C 187.890625 22.464844 197.5 22.171875 206.269531 22.554688 C 208.699219 23.003906 211.769531 23.003906 214.269531 22.554688 C 217.210938 22.8125 215.609375 26.78125 216.253906 28.890625 C 215.867188 31.964844 216.253906 33.4375 215.929688 36.699219 C 215.484375 36.957031 215.484375 37.402344 215.289063 37.597656 C 202.042969 37.148438 188.730469 36.1875 175.675781 35.484375 C 171.75 35.566406 162.363281 36.445313 163.257813 34.84375 Z M 97.210938 45.148438 C 91 47.484375 89.078125 47.140625 85.242188 48.539063 C 83.835938 48.347656 82.554688 49.5 80.890625 49.308594 C 85 46.066406 91 44.316406 97.210938 45.148438 Z M 90.875 49.117188 C 99.324219 47.898438 106.8125 44.957031 115.324219 43.933594 C 124.988281 42.332031 146.105469 39.132813 146.042969 39.003906 C 169.785156 36.570313 192.441406 38.554688 216.058594 41.4375 C 227.132813 43.738281 238.972656 46.109375 249.402344 49.117188 C 187.578125 53.148438 123.066406 54.8125 60.472656 58.332031 C 70.011719 54.042969 80.570313 51.996094 90.875 49.117188 Z M 250.621094 58.078125 C 238.140625 64.988281 224.570313 67.546875 210.554688 71.707031 C 207.996094 72.796875 179.964844 77.789063 175.996094 77.722656 C 149.242188 79.195313 121.851563 77.722656 95.996094 71.902344 C 92.21875 71.261719 84.859375 69.210938 84.601563 69.085938 C 75.066406 66.714844 65.210938 64.605469 56.632813 60.507813 C 58.75 59.316406 78.332031 59.738281 78.332031 59.613281 C 104.828125 58.90625 158.074219 56.027344 158.203125 55.898438 C 182.652344 55.195313 207.097656 53.789063 231.164063 52.378906 C 238.269531 52.1875 244.859375 51.546875 252.347656 51.164063 C 252.15625 53.46875 251.453125 55.835938 250.621094 58.078125 Z M 300.09375 59.738281 C 283.898438 56.921875 269.949219 55.324219 253.691406 57.5625 C 252.859375 58.269531 254.589844 52.699219 255.226563 50.652344 C 255.421875 50.078125 255.996094 49.4375 256.636719 49.308594 C 263.421875 47.003906 270.269531 47.324219 277.5 46.683594 C 286.652344 47.003906 295.164063 48.921875 304.125 49.757813 C 307.386719 50.269531 310.269531 51.738281 313.789063 52.058594 C 318.203125 50.589844 320.058594 45.402344 323.453125 42.84375 C 326.714844 38.621094 336.636719 28.507813 337.914063 26.589844 C 341.5 22.941406 343.867188 19.417969 347.386719 16.285156 C 350.78125 17.433594 354.683594 17.179688 358.332031 17.628906 C 354.171875 22.683594 342.140625 41.4375 340.027344 45.277344 C 337.914063 47.773438 336.378906 51.101563 334.972656 54.234375 C 335.035156 55.964844 336.507813 57.050781 337.914063 57.4375 C 341.949219 59.101563 346.621094 59.417969 350.78125 60.957031 C 347.898438 66.078125 344.828125 71.003906 342.203125 76.316406 C 329.46875 67.613281 315.898438 62.746094 300.09375 59.738281 Z M 349.4375 46.554688 C 349.4375 47.835938 347.964844 48.988281 348.476563 50.652344 C 349.882813 52.378906 350.84375 54.683594 352.507813 56.027344 C 349.691406 55.773438 347.261719 54.875 344.828125 53.914063 C 345.789063 51.355469 348.347656 49.179688 349.4375 46.554688 Z M 338.683594 55.003906 C 337.402344 55.261719 337.277344 54.109375 337.722656 53.277344 C 338.683594 51.546875 346.171875 39.324219 349.246094 35.804688 C 350.078125 35.613281 350.589844 36.125 351.421875 35.929688 C 350.652344 37.597656 342.589844 50.332031 338.683594 55.003906 Z M 350.011719 86.492188 C 348.5 86.316406 345.597656 86.234375 342.972656 86.492188 C 344.894531 83.226563 345.789063 79.070313 348.15625 75.996094 C 350.011719 76.507813 352.0625 76.765625 353.53125 77.722656 C 352.894531 80.796875 351.25 83.816406 350.011719 86.492188 Z M 438.203125 75.421875 C 435.515625 72.859375 432.316406 75.421875 429.886719 76.636719 C 429.246094 77.148438 428.222656 78.683594 427.132813 78.300781 C 426.8125 76.574219 425.660156 74.972656 423.933594 74.460938 C 421.117188 74.523438 418.941406 75.996094 416.699219 77.40625 C 417.597656 76.765625 417.851563 75.804688 418.363281 74.78125 C 417.980469 72.730469 415.867188 72.925781 414.84375 71.386719 C 414.140625 71.066406 413.179688 70.746094 412.414063 71.132813 C 411.132813 72.027344 409.789063 73.5 409.46875 75.101563 C 406.910156 74.011719 406.460938 78.621094 404.539063 75.226563 C 404.539063 74.203125 403.515625 73.179688 402.558594 72.925781 C 398.972656 72.347656 395.964844 74.589844 392.445313 74.011719 C 390.460938 74.460938 389.628906 76.828125 387.195313 76.1875 C 383.867188 75.035156 381.691406 78.8125 378.75 77.722656 C 375.230469 78.492188 373.117188 81.242188 369.085938 80.605469 C 368.0625 82.203125 366.078125 80.796875 364.476563 81.242188 C 361.597656 81.820313 356.21875 84.445313 355.710938 84.445313 C 356.796875 81.371094 359.035156 78.109375 360.765625 75.546875 C 359.546875 74.140625 351.164063 73.308594 349.5625 71.902344 C 349.371094 71.515625 356.925781 59.933594 356.925781 59.738281 C 361.789063 62.746094 367.933594 63.261719 373.5 64.667969 C 380 67.316406 394.621094 66.78125 394.558594 66.652344 C 397.820313 65.628906 401.46875 66.714844 404.539063 65.757813 C 409.597656 65.371094 415.164063 66.523438 420.222656 67.421875 C 427.964844 68.699219 435.773438 69.789063 443.390625 71.261719 C 441.53125 71.964844 439.675781 74.011719 438.203125 75.421875 "/>
<path style=" stroke:none;fill-rule:nonzero;fill:rgb(0%,0%,0%);fill-opacity:1;" d="M 468.285156 93.085938 C 466.300781 92.378906 463.742188 93.148438 461.820313 92.765625 C 455.230469 91.738281 447.996094 94.554688 442.363281 90.332031 C 441.085938 90.140625 440.125 90.589844 439.101563 91.101563 C 432.253906 91.804688 425.851563 92.765625 418.683594 92.765625 C 418.171875 93.085938 417.277344 92.125 416.828125 92.765625 C 411.070313 92.125 404.859375 93.597656 399.804688 91.546875 C 398.523438 91.164063 397.820313 88.988281 396.09375 89.050781 C 390.78125 90.140625 385.46875 91.101563 379.835938 91.355469 C 371.578125 92.0625 362.621094 93.339844 354.171875 92.636719 C 350.078125 93.019531 345.597656 92.574219 341.5625 91.867188 C 339.132813 92.1875 335.933594 93.277344 333.757813 91.546875 C 328.316406 92.699219 322.429688 93.40625 316.21875 92.445313 C 313.660156 92.636719 312.058594 89.5 309.308594 91.101563 C 297.851563 93.980469 284.027344 92.636719 271.996094 92.765625 C 270.589844 93.277344 269.949219 91.867188 268.605469 92.125 C 267.578125 91.804688 267.066406 89.757813 265.53125 89.820313 C 261.371094 91.164063 257.277344 90.972656 252.925781 92.445313 C 244.15625 92.574219 234.683594 92.828125 226.042969 92.636719 C 223.035156 92.507813 220.21875 92.316406 217.339844 91.355469 C 216.828125 90.714844 215.996094 90.394531 215.164063 90.332031 C 206.777344 92.253906 197.753906 92.316406 189.050781 92.636719 C 185.46875 93.851563 183.097656 89.757813 179.195313 90.78125 C 176.890625 92.316406 173.753906 92.0625 170.9375 92.445313 C 169.339844 91.613281 168.25 90.972656 166.460938 90.90625 C 162.105469 92.699219 156.476563 91.933594 151.546875 92.125 C 145.339844 93.210938 138.042969 92.699219 131.132813 92.636719 C 128.316406 91.738281 124.859375 91.484375 122.875 89.242188 C 118.585938 87.898438 115.324219 90.78125 111.609375 91.867188 C 109.882813 92.253906 107.644531 92.445313 106.234375 92.765625 C 100.796875 92.507813 86.84375 92.890625 84.730469 92.765625 C 82.9375 92.699219 81.722656 91.164063 79.675781 90.90625 C 75.960938 91.867188 70.90625 90.269531 66.9375 91.675781 C 44.984375 92.765625 26.910156 93.199219 5.625 92.125 C 1.167969 91.898438 2.617188 95.707031 5.175781 95.386719 C 13.5625 95.644531 22.714844 95.515625 31.160156 95.515625 C 33.722656 95.582031 36.664063 96.734375 38.523438 96.15625 C 40.507813 96.476563 42.683594 95.324219 44.984375 95.515625 C 56.632813 95.707031 68.15625 95.195313 80.121094 95.386719 C 86.265625 96.539063 94.140625 95.644531 100.730469 96.15625 C 102.972656 95.773438 107.449219 96.285156 109.945313 95.707031 C 113.914063 93.789063 118.523438 94.941406 122.683594 93.53125 C 132.476563 98.332031 144.570313 95.324219 155.257813 95.515625 C 158.585938 94.941406 161.53125 96.15625 164.601563 95.070313 C 172.089844 98.078125 180.089844 93.019531 187.386719 96.476563 C 190.84375 95.773438 193.914063 96.476563 197.179688 95.835938 C 201.082031 96.15625 205.113281 95.324219 208.699219 94.75 C 218.9375 94.429688 226.425781 97.179688 236.796875 95.964844 C 239.035156 96.859375 241.53125 95.644531 244.027344 95.835938 C 252.347656 97.820313 260.21875 91.933594 268.15625 95.515625 C 277.5 97.179688 287.292969 95.582031 296.253906 96.285156 C 296.378906 96.15625 304.957031 95.195313 309.179688 94.75 C 310.589844 93.789063 311.738281 95.324219 313.148438 95.195313 C 318.203125 96.21875 323.515625 96.539063 328.507813 96.15625 C 332.730469 94.554688 337.339844 96.605469 342.011719 96.15625 C 343.101563 95.324219 346.941406 95.261719 347.261719 96.15625 C 360.378906 97.050781 373.246094 95.195313 385.980469 94.75 C 389.371094 94.171875 392.636719 94.171875 395.644531 93.085938 C 402.429688 98.523438 411.644531 95.453125 419.773438 96.285156 C 423.164063 95.898438 426.363281 96.09375 429.4375 95.386719 C 433.53125 95.707031 436.988281 94.171875 440.828125 94.300781 C 449.726563 98.011719 461.566406 96.15625 470.78125 96.476563 C 471.804688 96.09375 472.507813 94.941406 471.996094 93.660156 C 470.972656 93.019531 469.4375 93.019531 468.285156 93.085938 "/>
<path style=" stroke:none;fill-rule:nonzero;fill:rgb(0%,0%,0%);fill-opacity:1;" d="M 160.953125 74.332031 C 160.828125 74.460938 146.9375 74.269531 140.21875 73.691406 C 139.066406 73.308594 138.617188 74.394531 138.234375 75.101563 C 138.9375 76.316406 140.539063 75.355469 141.5625 75.867188 C 148.667969 75.804688 154.746094 77.277344 161.722656 76.507813 C 161.851563 76.574219 184.75 76.566406 202.234375 71.761719 C 220.5 68.316406 242.5 60.066406 247.292969 58.332031 C 248.332031 57.984375 247.292969 56.949219 247.292969 56.757813 C 246.5 56.066406 245.25 56.066406 243.707031 56.347656 C 233.597656 58.269531 224.507813 62.875 214.84375 65.4375 C 197 70.066406 177.082031 75.421875 160.953125 74.332031 "/>
<path style=" stroke:none;fill-rule:nonzero;fill:rgb(0%,0%,0%);fill-opacity:1;" d="M 179.835938 33.628906 C 182.140625 31.773438 184.890625 29.46875 187.964844 28.890625 C 191.738281 27.613281 194.875 26.269531 199.035156 26.074219 C 199.355469 25.5625 199.097656 24.921875 198.585938 24.539063 C 194.363281 24.476563 191 24.316406 186.105469 25.050781 C 182.011719 25.820313 178.363281 26.523438 174.460938 27.929688 C 172.347656 28.957031 168.953125 29.660156 168.761719 32.410156 C 169.722656 33.308594 177.339844 33.882813 179.835938 33.628906 Z M 175.226563 30.425781 C 178 28.816406 183 27.316406 185.082031 27.613281 C 182.714844 28.636719 180.667969 30.300781 178.425781 31.644531 C 177.46875 31.453125 170.554688 32.21875 175.226563 30.425781 "/>
<path style=" stroke:none;fill-rule:nonzero;fill:rgb(0%,0%,0%);fill-opacity:1;" d="M 211.324219 36.253906 C 212.027344 36.378906 213.179688 36.636719 213.753906 35.929688 C 213.882813 33.371094 214.589844 25.4375 213.753906 24.410156 C 211.523438 24.125 209.136719 24.25 207.007813 24.691406 C 205.25 24.898438 205.5 25.898438 206.613281 25.917969 C 207.695313 26.089844 209.003906 25.691406 209.914063 26.269531 C 209.851563 27.164063 208.890625 27.417969 209.46875 28.378906 C 212.28125 29.53125 207.996094 31.195313 209.660156 32.730469 C 208.507813 35.996094 203.707031 33.371094 201.339844 34.394531 C 201.210938 34.714844 199.289063 33.949219 199.929688 35.292969 C 203.125 36.441406 208.125 36.441406 211.324219 36.253906 "/>
<path style=" stroke:none;fill-rule:nonzero;fill:rgb(0%,0%,0%);fill-opacity:1;" d="M 243.261719 33.757813 C 243.003906 35.417969 241.46875 36.445313 242.042969 38.109375 C 248.445313 37.722656 254.972656 36.378906 261.371094 36.253906 C 263.613281 36.765625 260.605469 38.042969 260.796875 39.003906 C 261.179688 40.292969 262.09375 40.199219 263.097656 39.957031 C 263.933594 39.753906 279.292969 38.109375 286.269531 37.597656 C 286.84375 38.941406 284.285156 40.15625 285.179688 41.628906 C 288.636719 41.371094 322.5 36.648438 321.46875 36.519531 C 314.042969 33.960938 296.828125 34.203125 296.699219 33.949219 C 297.5 33.316406 299.964844 31.003906 299.515625 30.234375 C 291.324219 30.300781 282.554688 31.964844 274.171875 32.21875 C 274.554688 30.554688 278.394531 30.109375 276.605469 28.125 C 274.234375 28.316406 255.546875 30.683594 253.5625 31.195313 C 254.269531 30.042969 255.804688 28.570313 256.316406 27.164063 C 255.933594 26.78125 255.546875 26.332031 254.972656 26.394531 C 250.429688 26.84375 245.820313 27.929688 241.277344 28.570313 C 233.597656 30.875 225.332031 31.832031 218.875 34.269531 C 219.75 35.316406 238.652344 32.605469 243.261719 33.757813 "/>
<path style=" stroke:none;fill-rule:nonzero;fill:rgb(0%,0%,0%);fill-opacity:1;" d="M 282.875 47.898438 C 279.292969 47.898438 275.835938 47.324219 271.996094 47.582031 C 270.714844 48.285156 261.75 48.816406 257.53125 50.394531 C 257.277344 52.1875 254.269531 54.300781 255.996094 56.539063 C 264.507813 55.195313 272.507813 55.964844 281.53125 55.261719 C 282.363281 54.8125 281.914063 53.722656 281.851563 53.148438 C 283.917969 52.734375 284.75 52.734375 286.140625 52.699219 C 287.292969 52.378906 289.277344 52.1875 288.765625 50.523438 C 289.46875 49.242188 284.21875 48.347656 282.875 47.898438 "/>
<path style=" stroke:none;fill-rule:nonzero;fill:rgb(0%,0%,0%);fill-opacity:1;" d="M 391.484375 5.339844 C 393.667969 5.148438 468.859375 6.300781 503.804688 5.980469 C 508.332031 6.484375 508 3.816406 504.0625 4.316406 C 465.980469 2.972656 429.4375 3.035156 391.804688 2.460938 C 390.972656 2.78125 389 4.484375 391.484375 5.339844 "/>
<path style=" stroke:none;fill-rule:nonzero;fill:rgb(0%,0%,0%);fill-opacity:1;" d="M 414.71875 11.675781 C 410.75 11.566406 410.5 13.066406 414.078125 13.980469 C 443.132813 14.300781 473.339844 15.132813 501.757813 15.066406 C 506.25 15.566406 506.5 13.816406 502 13.816406 C 501.511719 13.675781 425.660156 12.058594 414.71875 11.675781 "/>
<path style=" stroke:none;fill-rule:nonzero;fill:rgb(0%,0%,0%);fill-opacity:1;" d="M 506.414063 31.796875 C 504.691406 31.671875 398.203125 30.363281 394.109375 30.875 C 392.167969 30.648438 390.832031 32.648438 394.238281 33.179688 C 427.53125 33.179688 494.734375 33.402344 506.417969 33.316406 C 507.445313 33.308594 507.007813 31.839844 506.414063 31.796875 "/>
</g>
</svg>
