<?xml version="1.0" encoding="UTF-8"?>
<svg xmlns="http://www.w3.org/2000/svg" xmlns:xlink="http://www.w3.org/1999/xlink" width="496pt" height="393pt" viewBox="0 0 496 393" version="1.1">
<g id="surface1">
<path style=" stroke:none;fill-rule:nonzero;fill:rgb(0%,0%,0%);fill-opacity:1;" d="M 494.09375 61.855469 C 486.125 40.964844 459.304688 39.355469 451.636719 44.925781 C 446.691406 48.523438 440.71875 50.355469 435.726563 53.882813 C 417.722656 66.605469 423.269531 88.699219 426.519531 93.796875 C 435.035156 107.15625 458.363281 117.042969 472.699219 109.214844 C 493.347656 96.050781 499.328125 75.578125 494.09375 61.855469 Z M 489.808594 76.378906 C 487.441406 97.472656 474.351563 106.285156 463.433594 106.886719 C 444.421875 107.9375 422.328125 96.269531 428.605469 72.511719 C 431.605469 61.15625 439.738281 53.273438 450.519531 51.363281 C 457.96875 50.042969 456.710938 43.203125 472.703125 50.195313 C 487.894531 56.835938 491.511719 61.191406 489.808594 76.378906 "/>
<path style=" stroke:none;fill-rule:nonzero;fill:rgb(0%,0%,0%);fill-opacity:1;" d="M 469.65625 64.035156 C 468.769531 63.761719 467.128906 63.578125 466.609375 64.78125 C 466.066406 68.175781 475.539063 74.050781 476.6875 75.195313 C 480.644531 79.144531 478.546875 85.941406 472.78125 90.09375 C 471.8125 89.925781 468.992188 84.652344 468.179688 83.417969 C 465.355469 86.039063 469.214844 89.664063 469.066406 93.199219 C 466.167969 97.320313 461.078125 98.453125 455.382813 98.355469 C 450.285156 98.265625 450.402344 101.933594 455.621094 102.5625 C 468.871094 104.167969 490.441406 85.222656 479.15625 72.875 C 476.300781 69.746094 471.996094 67.402344 469.65625 64.035156 "/>
<path style=" stroke:none;fill-rule:nonzero;fill:rgb(0%,0%,0%);fill-opacity:1;" d="M 465.507813 84.121094 C 465.703125 81.8125 463.46875 82.179688 461.886719 82.464844 C 455.359375 90.117188 446.996094 90.058594 440.238281 89.996094 C 439.425781 89.988281 438.121094 92.824219 438.953125 93.390625 C 448.523438 94.714844 458.714844 91.6875 465.507813 84.121094 "/>
<path style=" stroke:none;fill-rule:nonzero;fill:rgb(0%,0%,0%);fill-opacity:1;" d="M 450.046875 80.460938 C 450.988281 79.992188 451.835938 79.050781 451.929688 78.121094 C 451.960938 77.8125 450.003906 73.535156 448.675781 72.554688 C 447.507813 71.695313 445.332031 72.828125 444.988281 75.554688 C 446.347656 77.386719 447.519531 80.003906 450.046875 80.460938 "/>
<path style=" stroke:none;fill-rule:nonzero;fill:rgb(0%,0%,0%);fill-opacity:1;" d="M 441.496094 85.347656 C 443.136719 84.949219 444.425781 83.941406 445.921875 83.332031 C 443.183594 82.285156 437.476563 79.117188 436.496094 78.867188 C 434.769531 78.425781 432.992188 80.335938 435.011719 82.394531 C 437.007813 84.433594 441.085938 85.445313 441.496094 85.347656 "/>
<path style=" stroke:none;fill-rule:nonzero;fill:rgb(0%,0%,0%);fill-opacity:1;" d="M 432.222656 128.425781 C 424.792969 134.367188 394.691406 151.882813 379.59375 160.449219 C 375.382813 162.839844 349.226563 179.695313 339.964844 187.160156 C 337.261719 189.339844 339.78125 191.898438 342.429688 189.796875 C 370.613281 167.4375 401.855469 150.511719 432.296875 132.222656 C 434.511719 130.613281 436.007813 127.496094 432.222656 128.425781 "/>
<path style=" stroke:none;fill-rule:nonzero;fill:rgb(0%,0%,0%);fill-opacity:1;" d="M 411.578125 127.328125 C 410.910156 127.558594 359.476563 152.449219 335.886719 171.636719 C 332.570313 174.335938 334.210938 176.902344 337.554688 174.3125 C 361.15625 156.042969 411.164063 130.417969 411.851563 130.132813 C 414.140625 129.183594 413.503906 126.660156 411.578125 127.328125 "/>
<path style=" stroke:none;fill-rule:nonzero;fill:rgb(0%,0%,0%);fill-opacity:1;" d="M 407.296875 103.75 C 381.46875 118.257813 356.121094 133.660156 331.023438 149.507813 C 326.910156 154.113281 329.027344 155.800781 333.597656 152.449219 C 344.050781 144.78125 396.609375 111.777344 408.570313 107.070313 C 409.570313 106.675781 408.398438 103.429688 407.296875 103.75 "/>
<path style=" stroke:none;fill-rule:nonzero;fill:rgb(0%,0%,0%);fill-opacity:1;" d="M 309.695313 157.425781 C 338.035156 140.144531 387.386719 105.308594 404.441406 96.59375 C 404.832031 96.132813 403.214844 93.496094 402.007813 93.734375 C 369.265625 111.679688 339.609375 135.210938 307.730469 154.558594 C 302.351563 157.824219 303.175781 161.398438 309.695313 157.425781 "/>
<path style=" stroke:none;fill-rule:nonzero;fill:rgb(0%,0%,0%);fill-opacity:1;" d="M 310.761719 197.765625 C 308.980469 197.980469 309.21875 199.945313 309.480469 201.34375 C 316.238281 204.003906 323.984375 206.542969 330 212.285156 C 330.644531 212.113281 332.863281 208.296875 332.113281 207.339844 C 330.328125 205.0625 315.019531 198.394531 310.761719 197.765625 "/>
<path style=" stroke:none;fill-rule:nonzero;fill:rgb(0%,0%,0%);fill-opacity:1;" d="M 296.519531 200.726563 C 288.394531 188.53125 306.476563 178.890625 317.59375 177.835938 C 318.816406 176.601563 318.578125 174.960938 316.863281 174.121094 C 291.496094 178.046875 280.277344 153.925781 290.507813 138.304688 C 291.886719 136.199219 293.363281 134.121094 291.929688 131.949219 C 286.023438 133.316406 264.195313 146.480469 255.796875 141.421875 C 255.183594 142.636719 254.359375 143.683594 254.515625 144.996094 C 264.882813 148.980469 276.644531 142.605469 285.460938 137.652344 L 286.289063 138.808594 C 277.933594 161.621094 287.75 172.808594 300.160156 177.550781 C 297.097656 184.699219 283.363281 186.636719 292.65625 203.742188 C 291.609375 204.53125 291.414063 206.078125 291.703125 206.898438 C 292.96875 208.742188 295.574219 209.855469 297.871094 209.960938 C 300.246094 206.382813 298.429688 203.585938 296.519531 200.726563 "/>
<path style=" stroke:none;fill-rule:nonzero;fill:rgb(0%,0%,0%);fill-opacity:1;" d="M 309.703125 226.070313 C 314.347656 229.246094 319.453125 238.300781 319.613281 245.382813 C 319.738281 246.414063 321.101563 247.484375 322.238281 247.445313 C 327.632813 243.378906 317.085938 226.515625 311.550781 220.964844 C 308.105469 220.046875 306.226563 223.6875 309.703125 226.070313 "/>
<path style=" stroke:none;fill-rule:nonzero;fill:rgb(0%,0%,0%);fill-opacity:1;" d="M 301.25 242.726563 C 300.101563 241.628906 297.558594 244.605469 297.558594 244.605469 C 299.234375 246.6875 300.605469 256.09375 302.011719 256.410156 C 303.753906 256.808594 306.082031 254.746094 305.800781 251.984375 C 305.597656 249.992188 303.664063 245.03125 301.25 242.726563 "/>
<path style=" stroke:none;fill-rule:nonzero;fill:rgb(0%,0%,0%);fill-opacity:1;" d="M 281.246094 214.046875 C 275.253906 213.464844 271.894531 215.605469 269.046875 218.972656 C 268.160156 220.023438 267.242188 220.816406 265.890625 219.980469 C 265.789063 214.382813 263.925781 209.945313 261.429688 205.777344 C 258.453125 203.1875 249.730469 203.789063 249.078125 203.851563 C 247.046875 204.035156 244.792969 204.984375 243.117188 204.15625 C 241.9375 203.570313 240.269531 197.289063 242.609375 194.726563 C 251.097656 194.941406 257.402344 188.859375 262.09375 182.785156 C 264.019531 181.410156 266.234375 183.238281 267.324219 180.445313 C 265.976563 176.328125 264.84375 172.9375 265.113281 168.351563 C 265.285156 165.480469 267.953125 165.0625 269.363281 163.371094 C 269.789063 160.5625 268.761719 157.550781 267.695313 155.015625 C 266.714844 154.753906 264.984375 154.578125 264.367188 155.792969 C 265.941406 159.40625 263.304688 162.769531 262.128906 165.664063 C 260.097656 166.953125 260.378906 164.105469 259.039063 162.898438 C 249.191406 153.71875 239.722656 143.730469 232.152344 132.941406 C 226.566406 126.578125 219.039063 131.828125 216.898438 135.484375 C 214.035156 140.371094 214.0625 146.667969 214.351563 152.574219 C 216.386719 157.542969 219.574219 161.382813 222.894531 165.394531 C 224.175781 166.945313 231.316406 176.683594 231.117188 181.367188 C 232.304688 182.554688 233.683594 182.960938 235.351563 182.570313 C 236.667969 181.632813 236.335938 180.546875 235.394531 178.433594 C 231.054688 168.6875 223.746094 160.785156 218.335938 151.714844 C 218.410156 147.285156 216.84375 142.339844 219.457031 138.5625 C 221.882813 135.054688 223.402344 133.382813 228.605469 135.078125 C 233.980469 141.851563 249.183594 159.824219 251.597656 162.085938 C 255.929688 166.144531 260.628906 169.988281 260.003906 176.472656 C 256.160156 184.066406 248.113281 185.722656 241.832031 190.632813 C 238.621094 193.207031 236.867188 189.679688 233.238281 190.335938 C 230.089844 187.859375 227.859375 184.324219 227.164063 180.128906 C 226.960938 179.203125 228.539063 176.539063 226.402344 176.132813 L 221.121094 180.472656 C 221.011719 181.914063 222.089844 183.78125 220.902344 184.96875 C 217.808594 183.078125 216.539063 184.9375 215.144531 186.820313 C 204.6875 200.988281 176.425781 208.441406 151.960938 217.097656 C 151.972656 215.589844 153.144531 214.015625 153.371094 212.898438 C 153.960938 210.011719 153.207031 207.671875 150.941406 206.328125 C 148.148438 204.667969 144.152344 207.578125 140.804688 207.605469 C 138.878906 207.585938 138.871094 206.917969 139.289063 206.078125 C 142.535156 196.546875 141.292969 195.273438 140.671875 187.3125 C 139.640625 174.128906 149.792969 163.941406 154.074219 152.582031 C 154.515625 149.449219 156.386719 150.296875 158.332031 151.09375 C 164.050781 153.425781 167.800781 153.683594 172.601563 146.933594 C 179.78125 150.515625 197.117188 149.839844 207.5625 145.117188 C 211.976563 142.757813 212.199219 139.101563 211.960938 135.300781 C 211.367188 125.710938 213.761719 105.699219 218.652344 99.257813 C 223.414063 92.992188 232.449219 82.710938 233.011719 78.769531 C 233.707031 73.902344 231.792969 72.195313 226.523438 73.214844 C 226.148438 64.226563 222.714844 63.339844 217.578125 65.371094 C 218.492188 57.03125 210.679688 54.859375 206.316406 61.460938 C 201.921875 68.113281 198.78125 77.332031 198.027344 81.382813 C 194.308594 80.328125 189.832031 81.234375 186.039063 82.582031 C 179.519531 84.902344 179.042969 90.25 183.816406 93.0625 C 187.488281 95.226563 192.5 96.179688 194.824219 95.867188 C 193.960938 101.972656 195.664063 109.722656 193.800781 115.515625 C 191.0625 124.03125 185.9375 124.222656 177.945313 122.929688 C 174.320313 122.339844 176.027344 116.289063 172.785156 114.394531 C 167.535156 115.027344 142.542969 106.476563 141.1875 105.789063 C 137.949219 104.152344 136.253906 107.226563 137.996094 109.730469 C 146.996094 113.402344 157.042969 113.148438 165.910156 117.3125 C 167.40625 117.996094 169.921875 117.390625 170.949219 118.859375 C 172.085938 120.480469 171.859375 146.921875 163.90625 148.570313 C 159.875 149.332031 155.839844 147.050781 152.589844 145.9375 C 149.167969 144.765625 146.195313 146.246094 149.414063 148.59375 C 150.464844 149.355469 151.492188 150.234375 150.949219 151.910156 C 150.949219 151.910156 140.367188 170.609375 139.804688 171.765625 C 135.867188 179.855469 137.496094 199.265625 137.519531 200.003906 C 137.617188 203.371094 136.28125 206.511719 133.402344 208.496094 C 127.949219 209.8125 124.167969 210.441406 117.59375 210.675781 C 108.640625 217.964844 83.632813 214.15625 76.09375 210.761719 C 73.515625 209.601563 61.894531 206.535156 59.785156 204.429688 C 54.8125 199.472656 56.4375 186.457031 60.230469 177.730469 C 68.035156 159.761719 84.382813 132.273438 87.226563 128.75 C 87.957031 125.335938 85.992188 122.433594 88.105469 119.425781 C 88.734375 118.136719 89.875 118.871094 90.691406 119.6875 C 90.960938 119.960938 97.273438 124.503906 99.707031 121.835938 C 100.464844 121.144531 99.964844 119.496094 99.054688 118.773438 C 94.21875 118.878906 92.460938 112.148438 87.417969 113.707031 C 80.160156 111.058594 71.070313 112.148438 65.878906 105.355469 C 66.0625 103.71875 80.308594 88.371094 85.015625 82.769531 C 88.425781 78.710938 88.527344 81.175781 92.21875 83.363281 C 99.105469 87.449219 103.003906 94.816406 110.039063 99.394531 C 113.421875 104.585938 116.066406 110.617188 120.859375 114.886719 C 129.304688 122.40625 133.898438 117.105469 132.4375 109.351563 C 132.109375 107.394531 130.714844 105.277344 131.472656 103.664063 C 138.589844 103.574219 153.679688 96.097656 154.242188 95.386719 C 154.789063 94.6875 155.054688 93.863281 154.589844 93.054688 C 162.867188 92.351563 188.566406 79.488281 190.984375 64.007813 C 198 61.332031 205.328125 57.351563 201.273438 45.707031 C 199.308594 40.058594 193.316406 38.71875 189.535156 39.960938 C 188.457031 40.3125 187.417969 40.710938 186.371094 39.84375 C 188.253906 35.71875 186.941406 31.121094 184.265625 27.828125 C 182.773438 26.488281 177.179688 28.988281 176.183594 29.597656 C 175.183594 30.203125 174.46875 30.953125 175.238281 32.621094 C 176.753906 34.148438 177.824219 33.449219 178.890625 32.527344 C 180.492188 31.144531 182.160156 31.046875 183.421875 32.542969 C 184.742188 34.105469 185.011719 35.914063 182.414063 37.613281 C 181.238281 38.378906 181.390625 41.195313 181.722656 41.394531 C 184.042969 42.804688 181.738281 46.378906 183.933594 48.027344 C 185.582031 48.304688 186.644531 46.84375 187.070313 45.652344 C 190.828125 42.941406 194.859375 42.742188 197.261719 46.507813 C 201.632813 53.34375 199.28125 59.257813 187.523438 59.402344 C 184.988281 59.433594 181.9375 60.328125 183.332031 62.835938 C 186.339844 63.328125 186.957031 65.246094 186.21875 66.644531 C 183.210938 72.351563 168.851563 89.703125 150.644531 88.226563 C 135.144531 86.972656 135.578125 73.875 137.816406 62.828125 C 138.734375 58.316406 136.1875 54.742188 134.179688 58.085938 C 127.421875 74.074219 129.246094 99.519531 146.753906 91.5625 C 148.347656 91.226563 149.9375 91.183594 149.707031 93.207031 C 144.644531 96.191406 139.761719 99.191406 133.316406 100.152344 C 131.800781 99.238281 129.050781 98.871094 127.332031 98.738281 C 122.15625 98.335938 117.304688 91.4375 118.996094 85.292969 C 120.59375 79.496094 122.003906 72.132813 119.324219 66.238281 C 117.984375 63.289063 114.695313 63.777344 116.582031 67.730469 C 119.164063 73.144531 114.367188 86.367188 115.980469 91.835938 C 114.199219 92.046875 113.003906 93.449219 111.855469 94.707031 C 106.703125 90.101563 103.808594 85.996094 97.691406 82.050781 C 94.585938 79.949219 91.324219 79.089844 88.402344 75.9375 C 85.046875 74.914063 83.484375 77.765625 81.683594 80.167969 C 75.554688 74.246094 67.429688 69.136719 59.742188 65.304688 C 57.921875 64.382813 55.34375 65.074219 54.117188 66.742188 C 42.652344 86.265625 25.273438 100.789063 9.207031 115.601563 C 3.039063 121.292969 3.085938 126.148438 6.300781 130.160156 C 6.953125 130.976563 9.328125 135.019531 8.679688 137.011719 C 7.027344 142.101563 1.914063 149.277344 1.164063 151.941406 C -0.496094 157.835938 3.394531 162.359375 7.09375 159.023438 C 8.421875 159.710938 8.109375 162.230469 8.210938 163.519531 C 8.664063 169.433594 15.359375 173.179688 20.519531 162.722656 C 23.792969 173.675781 30.316406 171.753906 33.664063 165.363281 C 35.824219 161.246094 39.367188 151.140625 39.367188 151.140625 C 48.261719 162.003906 58.121094 157.800781 57.242188 149.503906 C 55.835938 136.21875 50.710938 129.261719 36.503906 127.550781 C 32.730469 127.097656 29.773438 126.808594 34.398438 122.519531 C 40.292969 117.046875 56.105469 97.109375 63.960938 100.453125 C 64 102.351563 62.011719 104.015625 60.742188 105.308594 C 64.550781 112.328125 75.648438 116.210938 80.316406 115.964844 C 82.214844 115.867188 84.03125 115.878906 84.527344 118.140625 C 82.957031 120.898438 83.464844 125.113281 84.351563 127.765625 C 73.617188 141.316406 64.925781 156.050781 59.140625 171.199219 C 53.4375 180.726563 52.875 192.675781 54.753906 203.574219 C 55.683594 208.523438 52.367188 207.472656 52.921875 211.304688 C 54.042969 234.597656 56.199219 238.207031 78.523438 250.054688 C 87.269531 254.695313 97.429688 258.160156 106.789063 257.84375 C 109.332031 257.757813 111.777344 257.628906 114.035156 258.402344 C 114.789063 258.660156 115.371094 260.589844 114.964844 261.175781 C 113.566406 263.175781 112.324219 265.523438 111.230469 267.859375 C 106.761719 277.429688 92.40625 284.933594 82.46875 272.128906 C 80.953125 268.980469 74.523438 271.6875 74.210938 271.960938 C 70.859375 274.921875 69.050781 269.695313 65.957031 267.753906 C 63.917969 266.476563 59.351563 266.902344 57.917969 269.558594 C 54.851563 278.863281 48.886719 286.996094 42.394531 294.714844 C 23.511719 302.617188 18.492188 314.078125 24.203125 319.8125 C 32.386719 328.007813 46.621094 323.46875 56.449219 319.785156 C 63.144531 317.273438 70.0625 311.34375 76.042969 297.808594 C 76.332031 297.070313 77.050781 297.496094 77.402344 298.027344 C 78.714844 299.484375 79.6875 297.277344 80.617188 296.308594 C 95.125 312.164063 112.1875 305.300781 131.058594 291.96875 C 141.523438 284.253906 146.28125 271.980469 148.007813 260.171875 C 149.191406 252.0625 150.128906 252.40625 152.691406 249.628906 C 177.78125 243.195313 200.960938 230.335938 221.34375 214.011719 C 221.996094 214.691406 222.296875 215.605469 222.324219 216.648438 C 225.3125 223.226563 236.933594 218.574219 233.308594 213.90625 C 231.929688 213.5 229.546875 215.023438 229.359375 212.667969 C 233.898438 210.886719 238.453125 208.4375 243.605469 208.582031 C 245.359375 208.941406 245.855469 210.6875 246.398438 212.050781 C 246.988281 213.363281 248.925781 212.164063 249.820313 210.886719 C 253.902344 205.066406 259.164063 208.042969 261.085938 214.296875 C 262.5 218.914063 262.863281 224.011719 261.796875 228.644531 C 262.609375 229.878906 263.972656 230.953125 265.699219 230.269531 C 268.515625 224.417969 273.804688 217.792969 281.105469 218.4375 C 283.753906 220.6875 283.277344 224.644531 286.195313 226.765625 C 293.4375 226.816406 285.191406 216.226563 281.246094 214.046875 Z M 175.890625 126.003906 C 179.792969 125.25 183.785156 127.621094 188.226563 126.613281 C 197.269531 122.847656 198.207031 112.613281 197.792969 107.78125 C 197.445313 103.71875 196.949219 97.121094 197.929688 93.53125 C 198.152344 92.710938 193.136719 93.289063 188.734375 91.925781 C 180.425781 89.351563 182.273438 86.410156 190.367188 84.535156 C 192.9375 83.941406 196.851563 82.90625 199.886719 83.898438 C 199.933594 83.230469 203.53125 70.941406 208.460938 63.351563 C 211.046875 59.363281 216.160156 58.992188 214.890625 66.195313 C 214.285156 69.636719 212.820313 73.953125 211.636719 77.457031 C 209.960938 82.421875 211.242188 83.324219 213.433594 78.980469 C 214.996094 75.878906 216.117188 71.996094 218.292969 69.019531 C 220.445313 66.070313 223.953125 65.945313 223.4375 72.566406 C 223.21875 75.378906 221.792969 78.5625 220.53125 81.300781 C 218.84375 84.980469 218.675781 85.808594 221.640625 82.199219 C 223.039063 80.5 224.828125 77.960938 226.550781 76.65625 C 230.839844 73.394531 232.089844 77.085938 229.359375 80.6875 C 223.59375 88.289063 215.605469 96.777344 212.523438 105.160156 C 209.726563 114.339844 208.765625 124.867188 209.175781 134.609375 C 210.238281 144.925781 188.523438 148.78125 173.3125 144.382813 C 175.902344 139.03125 174.867188 131.734375 175.890625 126.003906 Z M 116.839844 95.820313 C 118.710938 96.007813 119.457031 97.6875 120.40625 99.324219 C 121.21875 100.71875 125.269531 105.074219 126.613281 105.960938 C 129.355469 107.4375 130.242188 112.152344 127.894531 113.953125 C 120.539063 113.875 112.761719 99.878906 116.839844 95.820313 Z M 59 96.132813 C 52.566406 99.445313 27.863281 118.585938 27.371094 124.953125 C 27.191406 127.300781 28.136719 131.078125 30.90625 130.710938 C 43.355469 129.058594 51.628906 136.226563 53.648438 147.90625 C 54.847656 154.855469 46.886719 155.050781 42.78125 150.144531 C 40.519531 147.441406 39.667969 143.945313 38.847656 140.421875 C 38.695313 139.753906 36.425781 138.78125 36.199219 140.894531 C 35.574219 146.777344 36.878906 154.234375 32.40625 161.980469 C 28.652344 168.46875 24.070313 166.53125 23.984375 160.964844 C 23.898438 155.644531 27.144531 151.136719 27.921875 146.230469 C 28.292969 143.886719 27.351563 142.773438 26.003906 146.1875 C 24.097656 151.023438 21.011719 158.882813 17.769531 162.945313 C 14.574219 166.945313 9.675781 162.988281 11.859375 158.390625 C 13.613281 154.695313 17.261719 150.773438 17.988281 148.375 C 17.863281 146.019531 16.980469 146.402344 15.667969 147.816406 C 14.246094 149.347656 12.324219 152.078125 10.308594 153.890625 C 5.878906 157.871094 3.320313 155.289063 6.207031 148.777344 C 7.648438 145.523438 9.917969 141.789063 12.011719 138.6875 C 14.265625 135.347656 8.890625 128.785156 6.851563 125.71875 C 5.246094 123.308594 10.03125 118.753906 12.359375 116.996094 C 14.023438 115.742188 46.207031 89.558594 55.378906 71.722656 C 59.832031 66.054688 78.261719 80.957031 77.605469 85.789063 C 74.539063 89.582031 72.183594 92.90625 68.992188 96.425781 C 65.28125 94.019531 62.074219 94.550781 59 96.132813 Z M 39.609375 320.042969 C 36.464844 320.320313 28.917969 320.65625 26.597656 316.769531 C 25.707031 311.738281 29.242188 307.132813 33.238281 303.992188 C 47.867188 300.714844 55.464844 284.78125 61.320313 272.574219 C 66.125 269.8125 67.480469 277.160156 71.519531 277.53125 C 72.183594 282.300781 71.242188 286.308594 70.375 290.976563 C 71.09375 292.222656 72.625 293.085938 74.03125 292.914063 C 74.265625 305.824219 57.847656 318.445313 39.609375 320.042969 Z M 77.578125 290.777344 C 73.753906 289.710938 74.996094 285.214844 75.152344 282.105469 C 75.265625 279.769531 76.601563 279.683594 77.148438 281.925781 C 77.925781 285.085938 79.945313 290.171875 77.578125 290.777344 Z M 125.589844 290.402344 C 103.25 304.925781 99.679688 306.078125 82.308594 292.96875 C 83.671875 286.910156 79.339844 282.484375 78.878906 276.265625 C 85.515625 276.285156 93.519531 286.570313 101.789063 281.789063 C 109.949219 278.523438 121.222656 266.542969 118.671875 259.285156 C 127.539063 257.898438 144.050781 254.46875 144.050781 254.46875 C 142.082031 276.660156 136.578125 283.261719 125.589844 290.402344 Z M 88.226563 249.015625 C 75.230469 243.261719 56.117188 237.941406 57.59375 212.101563 C 57.703125 210.257813 58.703125 209.023438 60.484375 210.113281 C 68.648438 215.105469 93.726563 221.101563 104.175781 218.261719 C 111.578125 216.253906 137.941406 214.359375 146.726563 210.984375 C 149.609375 210.449219 148.867188 213.769531 148.285156 215.265625 C 146.132813 219.515625 146.492188 239.15625 149.042969 244.554688 C 146.902344 255.585938 106.980469 257.324219 88.226563 249.015625 Z M 230.234375 200.203125 C 223.023438 213.007813 174.824219 240.425781 154.226563 244.976563 C 150.289063 238.320313 150.894531 229.878906 151.515625 222.390625 C 167.953125 215.949219 184.390625 209.507813 200.835938 203.160156 C 208.273438 200.226563 221.433594 186.234375 221.433594 186.234375 C 222.878906 186.609375 223.191406 187.941406 223.480469 189.289063 C 224.070313 192.03125 231.246094 198.40625 230.234375 200.203125 Z M 237.757813 205.066406 C 237.417969 205.679688 232.535156 207.4375 230.4375 207.402344 C 232.175781 204.964844 234.863281 203.070313 236.140625 200.253906 C 237.367188 199.894531 238.734375 203.296875 237.757813 205.066406 Z M 238.011719 196.875 L 236.390625 196.800781 C 235.621094 195.941406 235.679688 194.035156 237.097656 193.960938 C 238.382813 194.375 239.164063 196.164063 238.011719 196.875 "/>
<path style=" stroke:none;fill-rule:nonzero;fill:rgb(0%,0%,0%);fill-opacity:1;" d="M 260.820313 243.5 C 258.296875 266.921875 232.339844 304.574219 195.164063 329.4375 C 190.117188 332.316406 191.957031 335.25 197.683594 331.957031 C 207.558594 326.277344 255.714844 291.523438 263.863281 243.515625 C 263.300781 241.96875 261.621094 242.261719 260.820313 243.5 "/>
<path style=" stroke:none;fill-rule:nonzero;fill:rgb(0%,0%,0%);fill-opacity:1;" d="M 155.554688 324.96875 C 193.464844 310.667969 221.257813 282.320313 230.992188 265.597656 C 237.863281 253.789063 247.730469 242.746094 247.765625 229 C 247.078125 228.035156 245.722656 227.816406 244.96875 228.667969 C 240.003906 264.488281 190.785156 312.894531 153.292969 322.765625 C 152.605469 324.179688 154.242188 325.125 155.554688 324.96875 "/>
<path style=" stroke:none;fill-rule:nonzero;fill:rgb(0%,0%,0%);fill-opacity:1;" d="M 218.5625 248.046875 C 218.980469 247.234375 218.765625 246.394531 217.253906 245.6875 C 207.703125 250.417969 180.617188 259.863281 172.109375 251.386719 C 170.769531 250.503906 169.519531 251.984375 169.1875 253.164063 C 172.058594 265.421875 215.109375 254.726563 218.5625 248.046875 "/>
<path style=" stroke:none;fill-rule:nonzero;fill:rgb(0%,0%,0%);fill-opacity:1;" d="M 219.253906 376.460938 C 217.804688 379.480469 213.550781 381.273438 213.734375 384.871094 C 213.863281 387.433594 215.816406 387.085938 216.683594 385.792969 C 218.652344 382.851563 221.3125 380.210938 221.6875 376.929688 C 221.175781 375.851563 220.023438 375.957031 219.253906 376.460938 "/>
<path style=" stroke:none;fill-rule:nonzero;fill:rgb(0%,0%,0%);fill-opacity:1;" d="M 137.796875 20.683594 C 141.820313 19.175781 148.535156 21.929688 148.882813 22.25 C 150.65625 23.90625 153.488281 23.898438 155.804688 24.398438 C 156.621094 23.257813 156.671875 22.109375 156.058594 20.945313 C 157.726563 18.058594 160.519531 20.332031 163.054688 21.394531 C 163.875 21.734375 165.652344 20.128906 165.066406 19.34375 C 164.496094 18.578125 160.339844 14.632813 160.886719 12.855469 C 167.320313 13.21875 171.417969 18.425781 173.378906 22.632813 C 175.296875 26.753906 178.703125 24.515625 177.34375 21.609375 C 172.609375 11.46875 163.835938 7.671875 156.96875 8.535156 C 143.832031 10.199219 129.140625 5.0625 123.367188 1.308594 C 121.136719 -0.140625 119.335938 2.265625 121.03125 3.671875 C 126.398438 8.128906 140.589844 11.4375 141.511719 11.574219 C 143.445313 11.863281 144.640625 13.507813 142.0625 14.703125 C 138.054688 16.570313 119.40625 12.730469 118.515625 4.09375 C 118.210938 1.546875 115.210938 3.210938 114.847656 4.175781 C 112.574219 10.230469 124.769531 16.601563 133.53125 18.316406 C 134.117188 18.429688 132.539063 19.722656 132.300781 19.640625 C 127.425781 18.039063 121.515625 19.804688 117.445313 15.3125 C 111.765625 9.273438 108.609375 11.039063 112.730469 15.652344 C 119.613281 23.351563 131.582031 23.015625 137.796875 20.683594 Z M 147.1875 15.164063 C 150.539063 14.574219 155.320313 14 157.636719 16.667969 C 155.257813 16.835938 152.714844 18.269531 150.816406 19.171875 C 149.976563 19.308594 146.480469 16.390625 147.1875 15.164063 "/>
<path style=" stroke:none;fill-rule:nonzero;fill:rgb(0%,0%,0%);fill-opacity:1;" d="M 159.34375 45.308594 C 157.882813 52.082031 159.4375 65.222656 170.96875 61.980469 C 181.953125 58.890625 182.617188 42.6875 172.917969 34.953125 C 164.984375 28.628906 161.664063 34.574219 159.34375 45.308594 Z M 167.910156 58.3125 C 161.683594 58.96875 162.160156 46.117188 164.144531 40.585938 C 165.464844 36.890625 168.425781 35.410156 171.660156 39.265625 C 177.6875 46.445313 178.117188 57.242188 167.910156 58.3125 "/>
<path style=" stroke:none;fill-rule:nonzero;fill:rgb(0%,0%,0%);fill-opacity:1;" d="M 170.316406 51.5 C 173.027344 52.746094 175.179688 48.046875 172.410156 46.6875 C 169.046875 45.039063 166.921875 49.941406 170.316406 51.5 "/>
<path style=" stroke:none;fill-rule:nonzero;fill:rgb(0%,0%,0%);fill-opacity:1;" d="M 207.054688 369.082031 C 207.671875 367.867188 208.222656 365.332031 205.992188 365.789063 C 198.550781 369.53125 188.65625 376.613281 188.960938 386.277344 C 189.613281 386.957031 190.421875 387.335938 191.429688 387.027344 C 192.757813 379.070313 200.410156 372.351563 207.054688 369.082031 "/>
<path style=" stroke:none;fill-rule:nonzero;fill:rgb(0%,0%,0%);fill-opacity:1;" d="M 205.792969 378.933594 C 204.78125 379.433594 197.402344 384.503906 198.378906 387.902344 C 200.027344 388.976563 200.941406 388.8125 201.578125 388.109375 C 202.828125 386.722656 203.019531 383.246094 205.617188 382.917969 C 209.492188 382.429688 209.914063 376.90625 205.792969 378.933594 "/>
<path style=" stroke:none;fill-rule:nonzero;fill:rgb(0%,0%,0%);fill-opacity:1;" d="M 172.945313 267.070313 L 173.304688 270.070313 C 177.136719 273.402344 182.046875 274.753906 185.527344 273.757813 C 186.40625 273.503906 185.96875 270.972656 185.363281 270.945313 C 180.019531 270.730469 176.882813 265.898438 172.945313 267.070313 "/>
<path style=" stroke:none;fill-rule:nonzero;fill:rgb(0%,0%,0%);fill-opacity:1;" d="M 139.21875 23.253906 C 138.46875 24.105469 138.183594 24.898438 138.199219 25.847656 C 141.621094 28.195313 145.765625 27.886719 149.792969 28.164063 C 150.832031 27.859375 150.824219 25.035156 149.355469 24.507813 C 146.019531 23.671875 142.210938 25.175781 139.21875 23.253906 "/>
<path style=" stroke:none;fill-rule:nonzero;fill:rgb(0%,0%,0%);fill-opacity:1;" d="M 110.730469 47.304688 C 107.347656 48.945313 107.589844 52.472656 110.824219 54.421875 C 113.269531 54.984375 116.304688 56.523438 118.726563 54.519531 C 116.191406 50.828125 121.832031 51.863281 121.449219 48.679688 C 120.132813 47.21875 118.128906 47.9375 116.46875 47.566406 C 113.683594 45.550781 109.554688 35.539063 116.320313 29.976563 C 122.417969 24.960938 131.007813 24.175781 140.402344 35.472656 C 142.773438 36.230469 142.742188 33.574219 142.382813 32.191406 C 139.71875 28.992188 136.519531 26.902344 132.96875 25.046875 C 128.113281 22.589844 120.417969 22.65625 115.976563 26.042969 C 113.410156 27.65625 112.984375 24.46875 111.390625 23.476563 C 109.410156 22.246094 107.472656 23.410156 109.214844 25.933594 C 110.015625 27.085938 111.886719 28.007813 112.316406 29.617188 C 108.5 34.261719 108.933594 41.054688 111.546875 46.160156 C 111.550781 46.757813 111.183594 47.085938 110.730469 47.304688 Z M 112.230469 49.5 C 113.1875 47.273438 115.761719 51.007813 113.464844 52.09375 C 112.660156 51.914063 112.050781 50.378906 112.230469 49.5 "/>
<path style=" stroke:none;fill-rule:nonzero;fill:rgb(0%,0%,0%);fill-opacity:1;" d="M 174.371094 375.957031 C 173.433594 374.058594 171.519531 373.207031 170.84375 376.496094 C 170.394531 378.664063 171.78125 381.535156 172.027344 383.96875 C 172.378906 387.414063 176.304688 388.144531 175.628906 383.882813 C 175.582031 383.59375 175.699219 378.648438 174.371094 375.957031 "/>
<path style=" stroke:none;fill-rule:nonzero;fill:rgb(0%,0%,0%);fill-opacity:1;" d="M 125.96875 36.496094 C 124.980469 37.074219 119.398438 40.226563 119.222656 42.722656 C 119.390625 45.644531 120.6875 45.300781 121.949219 44.910156 C 123.699219 41.277344 127.601563 40.523438 128.917969 37.230469 C 128.03125 35.605469 127.039063 35.871094 125.96875 36.496094 "/>
<path style=" stroke:none;fill-rule:nonzero;fill:rgb(0%,0%,0%);fill-opacity:1;" d="M 151.523438 387.445313 C 146.976563 387.726563 146.886719 391.773438 151.640625 391.148438 C 157.691406 390.355469 163.625 388.511719 169.058594 388.378906 L 169.011719 385.628906 C 163.1875 384.003906 157.339844 387.085938 151.523438 387.445313 "/>
<path style=" stroke:none;fill-rule:nonzero;fill:rgb(0%,0%,0%);fill-opacity:1;" d="M 142.320313 382.652344 C 136.753906 383.792969 131.703125 386.109375 126.148438 387.347656 C 125.046875 386.929688 125.265625 386.300781 125.621094 385.683594 C 127.324219 382.742188 124.246094 382.613281 121.339844 383.78125 C 119.914063 384.351563 111.941406 385.792969 109.480469 386.183594 C 102.921875 387.222656 103.925781 391.886719 109.742188 390.59375 C 113.601563 389.734375 116.976563 387.859375 120.632813 387.34375 C 121.4375 387.257813 121.90625 388.425781 121.492188 388.953125 C 120.054688 391.796875 120.378906 393.761719 125.054688 391.503906 C 129.539063 389.335938 140.058594 386.375 140.808594 386.300781 C 142.203125 386.160156 143.644531 386.128906 144.253906 384.511719 C 144.457031 383.425781 143.28125 382.617188 142.320313 382.652344 "/>
<path style=" stroke:none;fill-rule:nonzero;fill:rgb(0%,0%,0%);fill-opacity:1;" d="M 109.828125 379.703125 C 105.402344 377.667969 99.671875 380.636719 94.925781 381.492188 C 91.734375 381.019531 94.933594 377.59375 92.589844 376.257813 C 86.578125 376.882813 80.519531 377.898438 74.152344 379.515625 C 71.914063 378.871094 73.738281 376.933594 72.871094 375.734375 C 72.746094 375.5625 63.074219 375.140625 58.484375 377.308594 C 55.261719 375.792969 59.644531 372.699219 56.722656 371.339844 C 44.945313 373.796875 34.085938 378.023438 23.082031 382.195313 C 20.777344 379.621094 21.816406 374.386719 20.484375 371.21875 C 18.390625 366.589844 13.3125 368.8125 16.046875 372.066406 C 16.339844 372.414063 19.519531 379.796875 18.574219 383.808594 L 10.296875 386.132813 C 9.875 385.804688 5.566406 378.429688 1.425781 377.976563 C 0.00390625 378.8125 0.164063 380.816406 0.796875 381.472656 C 3.351563 383.734375 10.722656 390.191406 11.019531 390.214844 C 12.632813 390.339844 37.644531 379.523438 49.523438 376.292969 L 50.550781 376.929688 C 49.21875 380.890625 36.761719 387.859375 33.246094 388.300781 C 28.488281 388.898438 27.898438 394.089844 33.363281 392.96875 C 43.328125 388.0625 52.179688 381.011719 63.828125 379.042969 C 64.554688 379.144531 65.371094 380 65.105469 380.980469 C 60.761719 385.972656 52.816406 384.738281 47.890625 388.847656 C 47.453125 389.945313 48.21875 391.566406 49.65625 391.679688 C 61.109375 386.5 73.625 382.242188 86.617188 380.398438 L 87.445313 381.722656 C 85.09375 384.242188 82.039063 386.269531 78.882813 387.101563 C 74.597656 388.230469 73.6875 391.976563 78.664063 390.953125 C 87.28125 385.925781 98.203125 384.238281 108.503906 382.90625 C 110.003906 382.726563 110.175781 380.992188 109.828125 379.703125 "/>
</g>
</svg>
