<?xml version="1.0" encoding="UTF-8"?>
<svg xmlns="http://www.w3.org/2000/svg" xmlns:xlink="http://www.w3.org/1999/xlink" width="217pt" height="389pt" viewBox="0 0 217 389" version="1.1">
<g id="surface1">
<path style=" stroke:none;fill-rule:nonzero;fill:rgb(0%,0%,0%);fill-opacity:1;" d="M 215.839844 363.25 L 108.101563 103.277344 L 115.136719 100.609375 L 144.3125 74.917969 L 145.199219 40.855469 L 129.722656 11.015625 L 84.777344 0.277344 L 38.277344 15.386719 L 0.886719 50.851563 L 10.140625 80.765625 L 21.691406 104.757813 L 66.636719 115.863281 L 79.523438 112.234375 L 165.488281 378.652344 C 169.414063 390.71875 183.703125 389.164063 194.070313 387.09375 C 205.769531 384.722656 221.613281 377.242188 215.839844 363.25 Z M 6.28125 52.382813 L 40.785156 19.507813 L 85.136719 5.140625 L 126.753906 15.136719 L 139.339844 39.277344 L 102.316406 61.195313 L 59.964844 74.671875 L 13.609375 76.152344 Z M 65.230469 111.421875 L 25.023438 100.980469 L 16.285156 79.878906 L 61.378906 78.84375 L 103.585938 64.773438 L 138.757813 43.890625 L 139.644531 72.917969 L 112.769531 96.613281 L 106.253906 98.535156 L 100.328125 86.394531 C 94.257813 68.84375 67.007813 77.214844 73.597656 95.355469 L 78.113281 107.792969 Z M 170 377.417969 L 78.035156 94.417969 C 74.335938 79.90625 92.699219 78.71875 96.695313 87.53125 L 209.320313 363.570313 C 202.878906 348.246094 171.039063 379.863281 170 377.417969 Z M 209.257813 374.515625 C 192.671875 386.511719 178.453125 385.546875 172.679688 381.03125 C 173.046875 380.511719 187.5625 370.664063 191.117188 368.960938 C 194.300781 367.40625 201.925781 363.628906 205.628906 364.445313 C 209.773438 365.40625 212.144531 372.738281 209.257813 374.515625 "/>
</g>
</svg>
