<?xml version="1.0" encoding="UTF-8"?>
<svg xmlns="http://www.w3.org/2000/svg" xmlns:xlink="http://www.w3.org/1999/xlink" width="185pt" height="516pt" viewBox="0 0 185 516" version="1.1">
<g id="surface1">
<path style=" stroke:none;fill-rule:nonzero;fill:rgb(0%,0%,0%);fill-opacity:1;" d="M 142.703125 422.832031 C 145.460938 428.488281 154 429 154.121094 420.460938 C 154.121094 419.472656 123.800781 332.140625 123.800781 332.140625 L 168.625 85.445313 L 155.585938 69.246094 L 142.085938 64.105469 L 134.835938 103.726563 L 98.265625 89.203125 L 103.28125 63.710938 L 89.703125 46.917969 L 75.738281 43.359375 L 57.917969 142.648438 L 34.925781 76.0625 C 34.113281 73.792969 19.78125 39.378906 29.402344 1.867188 C 29.835938 0.175781 29.226563 -0.0585938 28.554688 1.609375 C 21.535156 19.09375 21.179688 42.742188 21.039063 54.921875 C 12.9375 49.585938 3.988281 57.488281 2.136719 63.8125 C -1.875 77.148438 4.375 86.039063 5.6875 89.398438 C 6.425781 90.414063 11.035156 100.019531 14.042969 105.160156 C 15.125 107.015625 15.828125 106.371094 15.3125 104.785156 C 13.113281 98 8.683594 85.367188 8.308594 83.769531 C 7.617188 80.210938 8.851563 77.148438 10.394531 75.171875 C 14.558594 69.9375 22.738281 78.628906 23.355469 83.074219 L 53.519531 167.644531 L 3.527344 433.207031 L 19.34375 440.320313 C 22.351563 432.710938 30.992188 435.578125 31.839844 441.800781 L 34.464844 442.097656 L 46.113281 378.96875 L 82.296875 392.800781 L 69.027344 467.882813 L 83.144531 473.710938 C 86.460938 466.300781 94.332031 468.378906 95.410156 475.09375 L 98.265625 475.390625 L 119.25 356.738281 C 119.25 356.738281 141.929688 421.546875 142.703125 422.832031 Z M 133.617188 108.222656 L 128.570313 136.453125 L 92.003906 122.003906 L 97.308594 94.445313 Z M 59.8125 300.804688 L 65.703125 269.101563 L 92.3125 278.984375 L 98.910156 298.816406 L 96.171875 315.335938 Z M 94.996094 320.339844 L 89.886719 349.433594 L 53.429688 334.890625 L 58.800781 306.363281 Z M 66.578125 263.234375 L 72.089844 232.679688 L 77.003906 234.414063 L 89.910156 272.429688 Z M 91.746094 240.058594 L 108.730469 246.382813 L 103.636719 273.75 Z M 89.417969 234.082031 L 76.984375 198.0625 L 114.957031 212.566406 L 109.433594 241.824219 Z M 79.464844 192.796875 L 84.738281 161.246094 L 121.644531 175.191406 L 115.527344 207.191406 Z M 85.945313 156.089844 L 90.898438 127.738281 L 127.511719 141.550781 L 122.609375 170.554688 Z M 89.65625 51.453125 L 99.78125 65.3125 L 95.503906 88.097656 L 89.910156 85.945313 L 89.128906 91.535156 L 94.53125 93.46875 L 89.710938 121.300781 L 83.925781 119.042969 L 83.042969 124.632813 L 88.539063 126.675781 L 83.289063 154.9375 L 77.789063 152.894531 L 76.894531 158.589844 L 82.402344 160.523438 L 76.429688 191.902344 L 74.664063 191.257813 L 68.035156 171.914063 Z M 43.984375 370.890625 L 38.308594 368.527344 L 37.296875 374.328125 L 42.6875 376.585938 L 32.59375 436.226563 C 31.566406 431.390625 24.703125 429.027344 20.820313 432.574219 L 63.402344 195.730469 L 71.589844 218.835938 L 70.25 225.175781 L 64.769531 222.8125 L 63.671875 228.507813 L 69.472656 230.65625 L 63.757813 261.175781 L 57.972656 259.023438 L 56.984375 264.613281 L 62.871094 266.871094 L 56.957031 298.894531 L 51.46875 296.636719 L 50.371094 302.4375 L 56.070313 304.480469 L 50.90625 332.957031 L 45.21875 330.703125 L 44.308594 336.613281 L 49.8125 338.652344 Z M 46.84375 372.320313 L 52.585938 339.84375 L 89.285156 353.773438 L 83.414063 386.765625 Z M 95.859375 466.785156 C 93.785156 463.667969 87.046875 462.269531 83.960938 466.03125 L 155.457031 72.941406 L 155.445313 73.050781 L 165.507813 84.980469 L 95.859375 466.785156 "/>
<path style=" stroke:none;fill-rule:nonzero;fill:rgb(0%,0%,0%);fill-opacity:1;" d="M 76.242188 486.117188 L 71.800781 508.902344 L 70.945313 490.183594 L 67.699219 491.414063 L 68.125 510.75 L 59.242188 485.011719 L 55.144531 486.117188 L 66.503906 513.089844 L 55.910156 513.089844 L 55.910156 515.921875 L 79.488281 515.921875 L 78.289063 513.089844 L 72.570313 513.582031 L 81.109375 487.84375 L 76.242188 486.117188 "/>
<path style=" stroke:none;fill-rule:nonzero;fill:rgb(0%,0%,0%);fill-opacity:1;" d="M 151.507813 459.746094 L 147.0625 482.53125 L 146.210938 463.808594 L 142.964844 465.042969 L 143.390625 484.378906 L 134.507813 458.636719 L 130.40625 459.746094 L 141.769531 486.71875 L 131.175781 486.71875 L 131.175781 489.550781 L 154.753906 489.550781 L 153.554688 486.71875 L 147.832031 487.210938 L 156.375 461.46875 L 151.507813 459.746094 "/>
<path style=" stroke:none;fill-rule:nonzero;fill:rgb(0%,0%,0%);fill-opacity:1;" d="M 176.226563 414.714844 L 184.769531 388.976563 L 179.902344 387.253906 L 175.460938 410.035156 L 174.605469 391.316406 L 171.359375 392.546875 L 171.785156 411.882813 L 162.902344 386.144531 L 158.800781 387.253906 L 170.164063 414.222656 L 159.570313 414.222656 L 159.570313 417.054688 L 183.148438 417.054688 L 181.949219 414.222656 L 176.226563 414.714844 "/>
<path style=" stroke:none;fill-rule:nonzero;fill:rgb(0%,0%,0%);fill-opacity:1;" d="M 35.449219 448.890625 L 31.007813 471.675781 L 30.152344 452.957031 L 26.90625 454.1875 L 27.335938 473.523438 L 18.453125 447.78125 L 14.351563 448.890625 L 25.710938 475.863281 L 15.121094 475.863281 L 15.121094 478.695313 L 40.667969 479 L 38.667969 476.667969 L 31.777344 476.355469 L 40.320313 450.617188 L 35.449219 448.890625 "/>
<path style=" stroke:none;fill-rule:nonzero;fill:rgb(0%,0%,0%);fill-opacity:1;" d="M 154.945313 108.453125 C 153.136719 108.222656 151.507813 110.078125 151.324219 112.394531 C 151.144531 114.714844 152.59375 116.800781 154.402344 117.03125 C 156.214844 117.265625 157.84375 115.410156 158.023438 113.089844 C 158.203125 110.773438 156.757813 108.6875 154.945313 108.453125 "/>
<path style=" stroke:none;fill-rule:nonzero;fill:rgb(0%,0%,0%);fill-opacity:1;" d="M 149.601563 138.230469 C 147.789063 137.996094 146.160156 139.851563 145.980469 142.171875 C 145.800781 144.488281 147.246094 146.578125 149.058594 146.808594 C 150.867188 147.039063 152.496094 145.1875 152.679688 142.867188 C 152.859375 140.546875 151.410156 138.460938 149.601563 138.230469 "/>
<path style=" stroke:none;fill-rule:nonzero;fill:rgb(0%,0%,0%);fill-opacity:1;" d="M 142.796875 175.683594 C 140.984375 175.453125 139.355469 177.308594 139.175781 179.625 C 138.996094 181.945313 140.441406 184.03125 142.253906 184.261719 C 144.0625 184.492188 145.691406 182.640625 145.875 180.320313 C 146.054688 178.003906 144.605469 175.914063 142.796875 175.683594 "/>
<path style=" stroke:none;fill-rule:nonzero;fill:rgb(0%,0%,0%);fill-opacity:1;" d="M 135.699219 211.746094 C 133.890625 211.515625 132.261719 213.367188 132.078125 215.6875 C 131.898438 218.003906 133.347656 220.09375 135.15625 220.324219 C 136.96875 220.554688 138.597656 218.699219 138.777344 216.382813 C 138.960938 214.0625 137.511719 211.976563 135.699219 211.746094 "/>
<path style=" stroke:none;fill-rule:nonzero;fill:rgb(0%,0%,0%);fill-opacity:1;" d="M 129.414063 247.386719 C 127.605469 247.152344 125.976563 249.007813 125.796875 251.328125 C 125.613281 253.644531 127.0625 255.730469 128.871094 255.964844 C 130.683594 256.195313 132.3125 254.339844 132.492188 252.023438 C 132.675781 249.703125 131.226563 247.617188 129.414063 247.386719 "/>
<path style=" stroke:none;fill-rule:nonzero;fill:rgb(0%,0%,0%);fill-opacity:1;" d="M 116.878906 318.40625 C 115.066406 318.171875 113.4375 320.027344 113.257813 322.347656 C 113.074219 324.664063 114.523438 326.753906 116.335938 326.984375 C 118.144531 327.214844 119.773438 325.359375 119.953125 323.042969 C 120.136719 320.722656 118.6875 318.636719 116.878906 318.40625 "/>
<path style=" stroke:none;fill-rule:nonzero;fill:rgb(0%,0%,0%);fill-opacity:1;" d="M 122.839844 281.273438 C 121.027344 281.042969 119.398438 282.898438 119.21875 285.21875 C 119.035156 287.535156 120.484375 289.621094 122.296875 289.855469 C 124.105469 290.085938 125.734375 288.230469 125.914063 285.910156 C 126.097656 283.59375 124.648438 281.507813 122.839844 281.273438 "/>
<path style=" stroke:none;fill-rule:nonzero;fill:rgb(0%,0%,0%);fill-opacity:1;" d="M 109.359375 356.765625 C 107.550781 356.535156 105.921875 358.390625 105.738281 360.707031 C 105.558594 363.027344 107.007813 365.113281 108.816406 365.34375 C 110.628906 365.578125 112.257813 363.722656 112.4375 361.402344 C 112.617188 359.085938 111.171875 356.996094 109.359375 356.765625 "/>
<path style=" stroke:none;fill-rule:nonzero;fill:rgb(0%,0%,0%);fill-opacity:1;" d="M 102.976563 392.40625 C 101.167969 392.175781 99.539063 394.027344 99.355469 396.347656 C 99.175781 398.664063 100.625 400.753906 102.433594 400.984375 C 104.246094 401.214844 105.875 399.363281 106.054688 397.042969 C 106.234375 394.726563 104.789063 392.636719 102.976563 392.40625 "/>
</g>
</svg>
