<?xml version="1.0" encoding="UTF-8"?>
<svg xmlns="http://www.w3.org/2000/svg" xmlns:xlink="http://www.w3.org/1999/xlink" width="181pt" height="249pt" viewBox="0 0 181 249" version="1.1">
<g id="surface1">
<path style=" stroke:none;fill-rule:nonzero;fill:rgb(0%,0%,0%);fill-opacity:1;" d="M 175.238281 158.054688 C 160.550781 120.988281 149.722656 95.019531 153.378906 76.28125 C 157.035156 57.546875 155.492188 60.128906 152.460938 44.628906 C 149.148438 27.683594 145.609375 34.75 148.121094 44.371094 C 149.648438 50.214844 151.273438 67.375 136.492188 82.59375 C 121.710938 97.8125 107.722656 102.109375 104.914063 112.496094 C 102.105469 122.882813 100.476563 116.558594 99.96875 107.230469 C 99.464844 97.90625 95.4375 80.019531 87.046875 58.835938 C 78.652344 37.652344 89.554688 19.605469 94.160156 10.695313 C 100.597656 -1.757813 95.757813 -1.464844 91.382813 4.746094 C 87.003906 10.957031 69.691406 39.820313 69.058594 59.835938 C 68.429688 79.851563 67.515625 102.535156 60.300781 109.003906 C 53.085938 115.472656 44.566406 134.148438 46.261719 143.269531 C 47.878906 151.945313 42.707031 149.335938 42.21875 141.011719 C 41.734375 132.683594 50.375 113.1875 47.390625 95.90625 C 44.402344 78.625 31.058594 67.113281 24.078125 50.238281 C 17.097656 33.367188 17.210938 39.363281 19.019531 47 C 20.824219 54.632813 32.050781 86.738281 27.242188 102.140625 C 22.429688 117.542969 22.226563 137.046875 18.667969 147.445313 C 16.507813 153.761719 1.109375 171.441406 0.910156 196.78125 C 0.757813 216.125 9.007813 238.304688 27.445313 243.632813 C 45.878906 248.960938 142.628906 253.308594 156.433594 240.175781 C 172.785156 224.617188 189.925781 195.125 175.238281 158.054688 Z M 152.984375 236.550781 C 141.863281 247.136719 48.238281 244.4375 28.832031 238.832031 C 12.890625 234.222656 5.773438 213.824219 5.910156 196.820313 C 6.027344 181.753906 13.042969 169.691406 18.164063 160.886719 C 21.632813 154.925781 23.457031 152.253906 24.945313 148.660156 C 28.773438 139.425781 27.394531 120.617188 32.011719 98.109375 C 34.480469 86.070313 27.882813 71.402344 26.601563 62.453125 C 26.871094 62.808594 27.140625 63.164063 27.40625 63.515625 C 31.25 68.570313 40.972656 88.136719 42.460938 96.757813 C 44.167969 106.644531 41.585938 117.773438 39.511719 126.714844 C 38.109375 132.738281 37.007813 137.5 37.226563 141.300781 C 37.496094 145.863281 39.164063 151.359375 43.050781 153.113281 C 45.046875 154.011719 47.335938 153.746094 49.023438 152.421875 C 52.539063 149.660156 51.515625 144.160156 51.179688 142.355469 C 49.941406 135.699219 57.160156 118.535156 63.636719 112.726563 C 71.988281 105.242188 73.261719 85.292969 74.058594 59.992188 C 74.253906 53.800781 76.507813 38.777344 81.199219 31.023438 C 80.707031 37.632813 79.363281 53.019531 82.398438 60.675781 C 90.53125 81.210938 94.511719 98.933594 94.976563 107.503906 C 95.414063 115.542969 96.222656 122.246094 101.726563 122.824219 C 107.144531 123.398438 108.835938 117.152344 109.742188 113.800781 C 110.886719 109.554688 116.441406 105.613281 123.148438 100.574219 C 127.847656 97.046875 133.695313 92.652344 140.078125 86.078125 C 143.835938 82.210938 148.195313 73.152344 150.246094 69.253906 C 147.773438 93.304688 154.738281 119.957031 168.636719 154.972656 L 170.589844 159.898438 C 186.582031 200.265625 161.160156 228.777344 152.984375 236.550781 "/>
<path style=" stroke:none;fill-rule:nonzero;fill:rgb(0%,0%,0%);fill-opacity:1;" d="M 39.453125 230.492188 C 30.894531 227.402344 28.085938 206.320313 34.398438 194.453125 C 40.714844 182.585938 33.601563 159.589844 31.59375 152.53125 C 30.292969 147.964844 29.9375 146.5 28.8125 155.175781 C 24.605469 187.617188 18.511719 182.398438 13.464844 198.160156 C 7.1875 217.78125 33.40625 231.914063 38.507813 233.511719 C 44.546875 235.402344 48.011719 233.585938 39.453125 230.492188 Z M 17.90625 196.523438 C 24.578125 185.953125 27.828125 178.964844 28.65625 172.207031 C 28.984375 169.535156 29.820313 166.828125 30.679688 164.699219 C 32.757813 173.808594 34.464844 185.808594 30.867188 192.574219 C 25.765625 202.164063 26.160156 215.351563 29.179688 223.753906 C 21.921875 218.207031 11.007813 207.460938 17.90625 196.523438 "/>
<path style=" stroke:none;fill-rule:nonzero;fill:rgb(0%,0%,0%);fill-opacity:1;" d="M 140.71875 176.117188 C 146.679688 174.003906 165.460938 161.90625 158.292969 139.285156 C 151.121094 116.664063 142.21875 108.328125 142.054688 99.578125 C 141.894531 90.828125 140.3125 92.425781 139.179688 97.035156 C 137.433594 104.164063 131.175781 127.40625 137.921875 139.035156 C 144.667969 150.660156 148.101563 169.726563 139.664063 173.136719 C 131.222656 176.539063 134.757813 178.226563 140.71875 176.117188 Z M 141.382813 137.027344 C 137.535156 130.398438 138.804688 118.34375 140.539063 109.160156 C 141.480469 111.257813 142.621094 113.449219 143.871094 115.835938 C 147.023438 121.859375 150.949219 129.359375 154.480469 140.492188 C 158.386719 152.820313 152.320313 165.042969 145.269531 170.855469 C 147.976563 162.347656 146.835938 146.421875 141.382813 137.027344 "/>
<path style=" stroke:none;fill-rule:nonzero;fill:rgb(0%,0%,0%);fill-opacity:1;" d="M 64.371094 165.910156 C 60.515625 160.773438 64.820313 142.285156 71.894531 136.699219 C 80.058594 130.253906 81 115.730469 80.898438 105.695313 C 80.859375 101.953125 80.839844 100.316406 78.730469 106.644531 C 76.621094 112.96875 69.792969 116.238281 60.625 130.464844 C 51.457031 144.691406 60.308594 164.335938 63.101563 167.753906 C 65.898438 171.167969 68.230469 171.050781 64.371094 165.910156 Z M 63.082031 131.980469 C 67.148438 125.675781 70.65625 121.863281 73.472656 118.800781 C 74.585938 117.589844 77.421875 114.140625 78.324219 113.03125 C 76.402344 118.390625 79.691406 126.132813 70.296875 133.421875 C 65.113281 137.445313 61.757813 148.175781 61.332031 154.527344 C 59.046875 148.710938 58.582031 138.964844 63.082031 131.980469 "/>
<path style=" stroke:none;fill-rule:nonzero;fill:rgb(0%,0%,0%);fill-opacity:1;" d="M 131.519531 165.535156 C 138.410156 145.902344 122.203125 134.949219 119.351563 129.253906 C 116.492188 123.554688 113.285156 126.621094 117.191406 135.054688 C 121.097656 143.480469 119.25 151.007813 115.710938 162.324219 C 112.167969 173.640625 104.414063 187.167969 107.023438 193.121094 C 109.636719 199.074219 109.4375 201.949219 104.335938 196.289063 C 99.230469 190.632813 96.832031 174.535156 101.304688 154.089844 C 105.777344 133.640625 91.386719 116.476563 88.753906 111.074219 C 87.1875 107.863281 85.96875 108.863281 88.136719 118.074219 C 90.308594 127.285156 84.917969 146.890625 78.917969 160.503906 C 72.917969 174.117188 76.988281 181.230469 84.109375 191.414063 C 91.230469 201.597656 85.449219 202.640625 74.855469 197.835938 C 58.851563 190.570313 58.386719 172.382813 44.207031 162.894531 C 37.703125 158.539063 36.496094 161.066406 39.753906 165.476563 C 49.71875 178.964844 47.441406 192.570313 43.371094 207.394531 C 39.296875 222.222656 48.714844 231.074219 57.765625 233.65625 C 64.332031 235.53125 85.671875 228.390625 92.707031 230.261719 C 99.746094 232.132813 133.84375 237.253906 145.003906 232.296875 C 156.164063 227.339844 144.5625 208.300781 138.683594 201.40625 C 132.804688 194.515625 124.632813 185.164063 131.519531 165.535156 Z M 145.523438 226.144531 C 145.25 227.347656 144.609375 228.09375 143.382813 228.640625 C 134.183594 232.726563 102.265625 228.664063 93.734375 226.394531 C 89.46875 225.261719 82.804688 226.59375 75.089844 228.140625 C 69.664063 229.226563 61.597656 230.433594 59.308594 229.964844 C 52.167969 228.507813 43.765625 221.054688 47.226563 208.457031 L 48.46875 204.074219 C 51.085938 194.976563 51.929688 180.636719 48.371094 172.210938 C 50.667969 175.09375 52.550781 178.332031 54.492188 181.675781 C 58.882813 189.226563 63.421875 197.039063 73.203125 201.476563 C 81.792969 205.375 87.089844 205.632813 89.867188 202.285156 C 93.519531 197.894531 89.0625 191.523438 87.386719 189.125 C 80.652344 179.492188 77.378906 173.914063 82.578125 162.117188 C 86.726563 152.707031 91.867188 137.128906 92.542969 125.453125 C 96.351563 132.890625 99.714844 142.652344 97.398438 153.234375 C 93.042969 173.136719 94.636719 191.515625 101.363281 198.96875 C 103.140625 200.941406 106.839844 205.039063 110.566406 202.628906 C 114.460938 200.113281 112.007813 194.519531 110.6875 191.515625 C 109.570313 188.964844 112.886719 180.769531 115.308594 174.78125 C 116.8125 171.058594 118.371094 167.210938 119.527344 163.519531 C 122.332031 154.554688 124.210938 147.503906 123.019531 140.390625 C 127.460938 146.152344 131.4375 153.691406 127.746094 164.210938 C 120.152344 185.847656 129.386719 196.671875 135.496094 203.832031 L 135.640625 204.003906 C 140.578125 209.792969 146.757813 220.707031 145.523438 226.144531 "/>
<path style=" stroke:none;fill-rule:nonzero;fill:rgb(0%,0%,0%);fill-opacity:1;" d="M 163.734375 169.785156 C 162.488281 162.316406 159.785156 166.25 160.117188 169.296875 C 160.683594 174.441406 145.105469 182.898438 146.386719 192.308594 C 147.671875 201.722656 159.355469 203.171875 157.214844 207.375 C 155.070313 211.578125 158.164063 217.046875 162.207031 207.28125 C 166.722656 196.375 153.738281 195.792969 157.761719 188.226563 C 161.785156 180.65625 164.984375 177.257813 163.734375 169.785156 Z M 154.695313 192.859375 C 156.769531 196.882813 160.164063 195.675781 159.988281 203.679688 C 159.972656 204.390625 159.390625 204.003906 159.328125 203.582031 C 159.265625 203.164063 158.824219 202.523438 157.386719 201.382813 C 154.511719 199.101563 147.296875 198.414063 149.015625 187.632813 C 149.527344 184.421875 160.296875 174.769531 160.753906 173.414063 C 161.863281 170.140625 163.695313 174.609375 161.34375 178.152344 C 158.992188 181.695313 152.101563 187.824219 154.695313 192.859375 "/>
</g>
</svg>
