<?xml version="1.0" encoding="UTF-8"?>
<svg xmlns="http://www.w3.org/2000/svg" xmlns:xlink="http://www.w3.org/1999/xlink" width="540pt" height="571pt" viewBox="0 0 540 571" version="1.1">
<g id="surface1">
<path style=" stroke:none;fill-rule:nonzero;fill:rgb(0%,0%,0%);fill-opacity:1;" d="M 521.640625 417.878906 C 513.996094 417.527344 503.996094 423.492188 501.171875 425.953125 C 500.9375 426.066406 500.816406 426.1875 500.464844 426.535156 C 473.523438 418.113281 449.289063 401.964844 425.054688 384.882813 C 427.289063 378.566406 421.644531 372.480469 420.9375 371.546875 C 419.996094 370.492188 412.703125 361.132813 404.585938 367.21875 L 397.644531 361.953125 C 376.585938 344.519531 346.234375 312.8125 311.765625 274.785156 C 339.996094 238.867188 372.113281 199.085938 406.9375 155.679688 L 423.527344 135.671875 C 427.289063 137.894531 433.171875 137.894531 436.585938 133.683594 L 439.996094 129.46875 C 443.761719 125.023438 442.230469 119.757813 439.40625 116.601563 L 449.40625 104.664063 C 455.523438 97.296875 464.582031 92.613281 474.699219 89.574219 C 483.523438 87.230469 499.171875 81.382813 506.933594 72.140625 C 514.230469 63.363281 513.757813 52.484375 502.347656 42.886719 L 502.113281 42.773438 C 496.347656 37.855469 488.9375 36.804688 484.113281 35.984375 C 481.40625 35.515625 479.289063 35.164063 477.289063 34.464844 C 476.816406 34.347656 476.230469 33.996094 475.996094 33.761719 C 475.523438 33.527344 475.054688 33.175781 474.816406 32.941406 C 474.699219 32.824219 474.113281 32.359375 473.640625 31.890625 C 473.40625 31.65625 472.9375 31.070313 472.699219 30.601563 C 471.761719 28.730469 471.054688 26.742188 470.113281 24.167969 C 468.464844 19.605469 466.230469 12.585938 460.347656 7.671875 L 460.113281 7.4375 C 448.820313 -2.039063 437.761719 -0.636719 430.347656 8.140625 C 422.820313 17.265625 419.761719 33.644531 418.9375 42.652344 C 417.761719 53.300781 414.585938 63.011719 408.351563 70.382813 L 398.585938 82.316406 C 394.9375 80.09375 389.410156 79.511719 385.644531 83.957031 L 382.230469 88.050781 C 378.585938 92.148438 379.527344 97.878906 382.46875 101.273438 L 365.761719 120.929688 C 334.113281 155.5625 301.175781 193.003906 269.882813 228.101563 C 238.703125 193.003906 205.882813 155.910156 174.355469 121.277344 L 157.648438 101.621094 C 160.589844 98.230469 161.53125 92.496094 157.882813 88.402344 L 154.472656 84.308594 C 150.707031 79.859375 145.179688 80.445313 141.53125 82.667969 L 131.765625 70.734375 C 125.53125 63.363281 122.355469 53.652344 121.179688 43.003906 C 120.355469 33.996094 117.296875 17.617188 109.765625 8.488281 C 102.355469 -0.285156 91.296875 -1.691406 80.003906 7.789063 L 79.769531 8.019531 C 73.886719 12.9375 71.652344 19.957031 70.003906 24.519531 C 69.0625 27.09375 68.355469 29.082031 67.414063 30.953125 C 67.179688 31.421875 66.710938 32.007813 66.472656 32.242188 C 66.003906 32.710938 65.414063 33.175781 65.296875 33.292969 C 65.0625 33.527344 64.589844 33.878906 64.121094 34.113281 C 63.886719 34.347656 63.296875 34.699219 62.828125 34.816406 C 60.828125 35.515625 58.710938 35.867188 56.003906 36.335938 C 51.179688 37.15625 43.769531 38.210938 38.003906 43.121094 L 37.769531 43.238281 C 26.355469 52.832031 25.886719 63.714844 33.179688 72.488281 C 40.945313 81.734375 56.59375 87.585938 65.414063 89.921875 C 75.53125 92.964844 84.589844 97.644531 90.710938 105.015625 L 100.710938 116.949219 C 97.886719 120.109375 96.355469 125.375 100.121094 129.820313 L 103.53125 134.03125 C 106.945313 138.246094 112.824219 138.246094 116.589844 136.023438 L 133.179688 156.03125 C 167.882813 199.320313 199.882813 238.980469 228 274.785156 C 193.648438 312.578125 163.53125 344.285156 142.472656 361.601563 L 135.53125 366.867188 C 127.414063 360.78125 120.121094 370.140625 119.179688 371.195313 C 118.472656 372.132813 112.824219 378.214844 115.0625 384.53125 C 90.828125 401.613281 66.589844 417.761719 39.652344 426.1875 C 39.296875 425.835938 39.179688 425.71875 38.945313 425.601563 C 36.121094 423.144531 26.121094 417.175781 18.476563 417.527344 C 3.417969 418.464844 -2.464844 435.195313 2.945313 447.832031 C 12.476563 469.710938 42.472656 502.9375 64.828125 521.777344 C 87.296875 540.613281 125.0625 564.246094 148.238281 569.511719 C 155.296875 571.265625 164.941406 572.085938 170.707031 565.183594 C 176.117188 558.980469 175.882813 546.582031 165.648438 546.113281 C 164.355469 546.113281 163.179688 545.878906 161.648438 545.761719 C 161.882813 545.292969 161.765625 544.824219 161.765625 544.355469 C 162.589844 510.777344 176.117188 479.539063 190.941406 448.183594 C 197.53125 449.351563 202.589844 442.683594 203.296875 441.863281 C 204.234375 440.8125 212.234375 431.917969 204.707031 425.015625 L 208.824219 417.292969 C 222.824219 393.074219 243.765625 363.355469 269.882813 328.722656 C 296.234375 363.589844 317.175781 393.308594 331.292969 417.644531 L 335.410156 425.367188 C 327.882813 432.269531 335.878906 441.160156 336.820313 442.214844 C 337.527344 443.035156 342.585938 449.703125 349.175781 448.53125 C 363.996094 479.890625 377.527344 511.128906 378.351563 544.707031 C 378.351563 545.175781 378.230469 545.644531 378.46875 546.113281 C 376.9375 546.230469 375.761719 546.464844 374.46875 546.464844 C 364.230469 546.929688 363.996094 559.332031 369.410156 565.535156 C 375.175781 572.4375 384.820313 571.617188 391.878906 569.863281 C 415.054688 564.597656 452.820313 540.964844 475.289063 522.128906 C 497.640625 503.289063 527.640625 470.0625 537.171875 448.183594 C 542.582031 435.546875 536.699219 418.816406 521.640625 417.878906 Z M 521.191406 425.621094 C 521.191406 425.621094 518.765625 435.894531 517.621094 435.636719 L 505.378906 432.765625 C 503.914063 432.472656 515.300781 425.375 521.191406 425.621094 Z M 414.371094 75.238281 C 421.9375 66.363281 425.355469 54.957031 426.511719 43.453125 C 428.089844 27.808594 435.617188 -3.867188 455.785156 13.265625 C 461.917969 18.480469 462.847656 27.03125 466.378906 33.90625 C 467.003906 35.0625 467.804688 36.191406 468.542969 36.960938 C 469.28125 37.730469 470.179688 38.484375 470.363281 38.636719 C 470.539063 38.789063 471.265625 39.390625 472.144531 39.992188 C 473.035156 40.578125 474.289063 41.171875 475.53125 41.585938 C 482.917969 43.863281 491.507813 43.292969 497.707031 48.4375 C 518.066406 65.316406 488.1875 78.234375 473.046875 82.503906 C 461.929688 85.644531 451.285156 90.984375 443.859375 99.976563 L 432.335938 113.792969 L 417.417969 101.242188 L 402.769531 88.984375 Z M 387.507813 92.738281 L 391.050781 88.632813 C 391.980469 87.652344 393.457031 87.65625 394.546875 88.5625 L 413.90625 104.863281 L 433.476563 121.230469 C 434.558594 122.140625 434.816406 123.597656 434.015625 124.683594 L 430.578125 128.886719 C 429.675781 129.957031 427.683594 129.964844 426.691406 129.128906 L 407.304688 112.800781 L 387.945313 96.613281 C 386.953125 95.78125 386.601563 93.820313 387.507813 92.738281 Z M 346.664063 152.953125 C 355.03125 143.824219 363.328125 134.816406 371.625 125.574219 L 389.828125 104.046875 L 404.5 116.332031 L 419.578125 129.085938 L 401.523438 150.613281 C 393.871094 160.441406 386.363281 170.152344 378.960938 179.980469 L 308.144531 268.785156 L 275.699219 232.980469 Z M 96.171875 100.359375 C 88.746094 91.363281 78.101563 86.023438 66.984375 82.886719 C 51.847656 78.613281 21.964844 65.699219 42.328125 48.820313 C 48.523438 43.671875 57.113281 44.242188 64.503906 41.964844 C 65.742188 41.554688 66.996094 40.957031 67.890625 40.371094 C 68.765625 39.769531 69.492188 39.167969 69.671875 39.015625 C 69.855469 38.863281 70.753906 38.109375 71.488281 37.339844 C 72.230469 36.574219 73.03125 35.441406 73.652344 34.289063 C 77.183594 27.410156 78.113281 18.859375 84.25 13.644531 C 104.414063 -3.484375 111.941406 28.1875 113.519531 43.832031 C 114.679688 55.335938 118.09375 66.742188 125.660156 75.621094 L 137.261719 89.367188 L 122.613281 101.625 L 107.699219 114.171875 Z M 113.4375 129.507813 C 112.441406 130.34375 110.449219 130.335938 109.546875 129.269531 L 106.113281 125.066406 C 105.308594 123.976563 105.570313 122.519531 106.652344 121.609375 L 126.21875 105.242188 L 145.582031 88.941406 C 146.671875 88.035156 148.148438 88.03125 149.078125 89.011719 L 152.621094 93.117188 C 153.523438 94.199219 153.175781 96.164063 152.183594 96.992188 L 132.824219 113.179688 Z M 34.75 432.382813 L 22.507813 435.257813 C 21.363281 435.515625 18.9375 425.242188 18.9375 425.242188 C 24.828125 424.992188 36.214844 432.09375 34.75 432.382813 Z M 165.910156 553.605469 L 167.558594 553.691406 C 167.910156 553.761719 167.558594 555.117188 167.558594 555.710938 C 165.910156 579.480469 103.441406 542.402344 70.382813 516.140625 C 38.738281 488.109375 -8.910156 432.773438 14.148438 427.007813 C 14.738281 426.859375 15.914063 426.265625 16.148438 426.644531 L 16.503906 428.203125 C 25.089844 462.289063 47.445313 483.539063 76.03125 509.34375 C 106.5 532.984375 130.851563 551.058594 165.910156 553.605469 Z M 154.769531 544.351563 C 154.738281 545.542969 154.707031 546.738281 154.578125 547.789063 L 151.988281 546.972656 C 127.332031 540.480469 99.085938 520.144531 79.316406 504.917969 C 60.882813 488.085938 35.777344 463.648438 25.097656 440.496094 L 23.84375 438.082031 C 24.851563 437.777344 26.027344 437.539063 27.191406 437.304688 C 62.574219 430.21875 92.832031 409.832031 121.757813 389.175781 C 122.152344 388.898438 144.050781 409.105469 152.832031 416.933594 C 162.070313 424.222656 185.949219 442.4375 185.746094 442.871094 C 170.425781 474.945313 155.605469 508.285156 154.769531 544.351563 Z M 197.777344 437.550781 C 195.367188 440.417969 192.984375 442.539063 190.640625 440.570313 L 155.945313 413.261719 L 123.230469 384.011719 C 120.890625 382.050781 122.558594 379.324219 124.96875 376.457031 C 127.304688 373.679688 129.558594 371.90625 131.757813 373.691406 L 164.738281 402.808594 L 199.324219 430.390625 C 201.46875 432.242188 200.113281 434.769531 197.777344 437.550781 Z M 247.640625 348.230469 C 231.644531 369.40625 215.410156 390.347656 202.574219 413.632813 L 197.886719 422.289063 C 196.960938 423.929688 177.546875 407.316406 167.460938 398.890625 C 157.375 390.464844 138.027344 374.4375 139.488281 373.265625 L 147.300781 367.183594 C 167.84375 350.453125 185.777344 330.910156 203.773438 311.492188 C 212.457031 302.011719 223.164063 290.664063 231.53125 281.421875 L 265.84375 324.828125 C 258.109375 334.539063 255.347656 338.050781 247.640625 348.230469 Z M 337.554688 414.011719 C 324.71875 390.730469 308.484375 369.785156 292.488281 348.609375 L 213.757813 246.933594 L 161.167969 180.359375 C 153.761719 170.53125 146.257813 160.820313 138.605469 150.992188 L 120.550781 129.464844 L 135.628906 116.710938 L 150.300781 104.425781 L 168.503906 125.953125 C 176.800781 135.195313 185.097656 144.207031 193.460938 153.332031 L 249.949219 216.632813 L 270.289063 239.09375 L 310.609375 283.671875 C 318.976563 292.914063 327.671875 302.394531 336.355469 311.871094 C 354.351563 331.292969 372.28125 350.832031 392.828125 367.5625 L 400.640625 373.648438 C 402.097656 374.816406 382.753906 390.847656 372.667969 399.269531 C 362.582031 407.695313 343.167969 424.308594 342.238281 422.671875 Z M 342.351563 437.835938 C 340.015625 435.054688 338.660156 432.527344 340.804688 430.671875 L 375.390625 403.09375 L 408.367188 373.976563 C 410.570313 372.191406 412.824219 373.964844 415.160156 376.742188 C 417.570313 379.609375 419.238281 382.335938 416.894531 384.296875 L 384.183594 413.546875 L 349.488281 440.855469 C 347.140625 442.824219 344.761719 440.703125 342.351563 437.835938 Z M 354.378906 443.253906 C 354.175781 442.816406 378.058594 424.601563 387.296875 417.3125 C 396.078125 409.484375 417.976563 389.277344 418.371094 389.554688 C 447.296875 410.210938 477.554688 430.597656 512.933594 437.683594 C 514.097656 437.917969 515.277344 438.160156 516.28125 438.464844 L 515.027344 440.875 C 504.351563 464.03125 479.246094 488.464844 460.8125 505.296875 C 441.042969 520.523438 412.796875 540.859375 388.136719 547.351563 L 385.546875 548.167969 C 385.421875 547.117188 385.386719 545.921875 385.355469 544.730469 C 384.523438 508.664063 369.703125 475.328125 354.378906 443.253906 Z M 469.742188 516.519531 C 436.6875 542.78125 374.21875 579.863281 372.570313 556.089844 C 372.570313 555.496094 372.21875 554.140625 372.570313 554.074219 L 374.21875 553.984375 C 409.273438 551.441406 433.628906 533.367188 464.097656 509.722656 C 492.683594 483.917969 515.039063 462.667969 523.625 428.582031 L 523.976563 427.027344 C 524.214844 426.644531 525.390625 427.242188 525.976563 427.386719 C 549.035156 433.152344 501.390625 488.488281 469.742188 516.519531 "/>
</g>
</svg>
