<?xml version="1.0" encoding="UTF-8"?>
<svg xmlns="http://www.w3.org/2000/svg" xmlns:xlink="http://www.w3.org/1999/xlink" width="529pt" height="700pt" viewBox="0 0 529 700" version="1.1">
<g id="surface1">
<path style=" stroke:none;fill-rule:nonzero;fill:rgb(0%,0%,0%);fill-opacity:1;" d="M 520.003906 545.773438 C 510.082031 536.589844 496.902344 544.628906 485.648438 550.511719 L 481.503906 552.664063 C 476.914063 557.691406 408.5 489.074219 398.726563 468.832031 C 412.496094 447.585938 386.4375 421.03125 367.332031 432.371094 C 341.121094 394.472656 317.726563 359.160156 296.105469 324.851563 C 320.09375 272.023438 344.085938 222.496094 369.554688 167.085938 C 391.320313 173.257813 408.644531 147.132813 391.171875 128.039063 L 392.949219 124.164063 C 396.503906 114.976563 403.019531 105.074219 406.574219 99.042969 C 411.015625 91.722656 417.679688 80.238281 427.453125 79.808594 C 441.816406 79.089844 456.03125 58.417969 463.882813 48.65625 C 435.152344 41.765625 406.722656 26.261719 378.734375 0.996094 C 371.328125 9.324219 369.996094 20.664063 368.8125 29.132813 C 367.183594 43.203125 378.140625 56.550781 375.03125 70.476563 L 354.597656 108.515625 C 326.464844 100.046875 310.765625 135.074219 332.683594 150.433594 C 310.023438 193.070313 287.8125 232.976563 264.121094 272.597656 C 240.429688 233.121094 218.363281 193.5 195.707031 150.867188 C 217.621094 135.503906 201.925781 100.480469 173.789063 108.949219 L 153.355469 70.90625 C 150.246094 56.984375 161.203125 43.632813 159.574219 29.566406 C 158.390625 21.097656 157.058594 9.753906 149.652344 1.429688 C 121.664063 26.695313 93.234375 42.195313 64.507813 49.085938 C 72.355469 58.847656 86.570313 79.519531 100.9375 80.238281 C 110.710938 80.667969 117.371094 92.152344 121.816406 99.472656 C 125.367188 105.503906 131.882813 115.40625 135.4375 124.59375 L 137.214844 128.472656 C 119.742188 147.5625 137.066406 173.691406 158.835938 167.515625 C 184.15625 222.496094 208.738281 271.449219 232.578125 323.84375 C 210.8125 358.296875 187.414063 393.753906 161.054688 431.9375 C 141.953125 420.597656 115.890625 447.15625 129.664063 468.402344 C 119.890625 488.644531 51.476563 557.261719 46.886719 552.234375 L 42.738281 550.082031 C 31.484375 544.195313 18.304688 536.15625 8.382813 545.347656 C 0.09375 552.808594 -1.09375 568.171875 1.574219 577.929688 C 11.34375 617.839844 40.074219 645.113281 75.761719 665.929688 C 115.449219 688.753906 160.761719 710.285156 205.480469 691.335938 C 228.285156 681.144531 227.246094 649.132813 206.21875 637.363281 C 204.296875 636.785156 201.925781 635.78125 200.445313 633.34375 C 198.816406 631.765625 198.222656 629.035156 198.816406 622.289063 C 201.480469 587.835938 208.886719 555.25 218.511719 521.660156 C 242.203125 526.398438 249.609375 495.820313 230.210938 484.765625 C 241.613281 453.613281 252.867188 425.050781 264.121094 398.0625 C 275.375 425.050781 286.628906 453.757813 298.179688 485.195313 C 278.78125 496.25 286.183594 526.828125 309.878906 522.089844 C 319.503906 555.679688 326.90625 588.265625 329.570313 622.71875 C 330.164063 629.464844 329.570313 632.195313 327.941406 633.773438 C 326.464844 636.214844 324.09375 637.21875 322.167969 637.792969 C 301.140625 649.5625 300.105469 681.574219 322.90625 691.769531 C 367.628906 710.714844 412.941406 689.183594 452.628906 666.359375 C 488.3125 645.542969 517.042969 618.269531 526.816406 578.363281 C 529.480469 568.601563 528.296875 553.238281 520.003906 545.773438 Z M 372.96875 443.683594 C 388.3125 433.878906 392.890625 456.234375 385.753906 464.863281 C 367.3125 488.136719 361.390625 492.449219 346.988281 498.59375 C 343.351563 500.292969 339.449219 501.992188 338.910156 500.816406 L 336.355469 496.894531 C 337.027344 496.632813 337.566406 496.503906 337.699219 496.109375 C 343.488281 493.101563 332.855469 489.703125 333.796875 485.910156 C 334.199219 484.996094 335.144531 484.34375 336.21875 483.949219 C 342.546875 480.160156 352.371094 473.753906 360.582031 463.425781 C 364.890625 458.195313 366.234375 448.128906 372.96875 443.683594 Z M 381.316406 17.207031 L 385.886719 21.171875 C 387.285156 22.734375 391.746094 27.054688 392.625 27.394531 L 401.511719 35.792969 L 409.21875 40.359375 C 412.308594 42.105469 410.621094 47.808594 406.246094 45.988281 L 375.226563 28.46875 C 372.058594 26.609375 378.632813 14.457031 381.316406 17.207031 Z M 374.355469 32.121094 C 374.554688 31.40625 387.757813 40.09375 393.847656 43.996094 C 401.425781 48.734375 407.976563 52.953125 416.507813 55.929688 C 418.09375 56.488281 419.449219 58.445313 418.730469 59.875 C 418.730469 59.875 414.820313 66.160156 410.808594 68.597656 C 409.398438 69.566406 407.925781 69.925781 406.800781 71.136719 C 406.617188 71.332031 406.066406 77.390625 406.082031 77.324219 C 405.554688 84.949219 393.546875 75.988281 387.820313 73.308594 C 385.355469 72.148438 382.875 71.039063 380.378906 69.992188 C 380.457031 68.746094 380.761719 58.460938 379.296875 54.683594 C 376.5 47.488281 372.546875 43.667969 374.355469 32.121094 Z M 352.875 128.308594 C 355.066406 110.894531 367.378906 94.746094 377.523438 75.992188 C 379.253906 72.804688 392.757813 81.203125 399.472656 84.230469 C 400.394531 84.742188 398.183594 86.890625 398.183594 86.890625 C 384.332031 104.78125 381.257813 107.980469 374.71875 122.003906 C 370.964844 130.042969 370.910156 143.101563 368.675781 141.992188 L 359.992188 137.003906 C 356.648438 135.113281 352.304688 132.804688 352.875 128.308594 Z M 347.5 114.269531 C 348.53125 114.378906 349.554688 114.539063 350.5625 114.742188 C 350.074219 116.085938 349.390625 118.386719 349.339844 118.414063 C 345.597656 127.332031 343.730469 133.824219 358.652344 141.1875 C 360.515625 142.230469 362.0625 142.878906 363.742188 143.835938 C 365.246094 144.683594 367.847656 145.765625 366.703125 147.878906 L 360.128906 160.03125 L 345.273438 151.640625 C 343.285156 150.367188 336.089844 146.308594 333.574219 143.492188 C 321.722656 130.949219 332.335938 112.582031 347.5 114.269531 Z M 337.84375 153.035156 L 354.800781 162.367188 C 353.320313 166.386719 351.570313 170.40625 349.6875 174.570313 C 346.054688 180.886719 342.554688 187.632813 336.496094 191.9375 C 335.824219 192.226563 333.804688 198.398438 330.574219 207.15625 C 328.6875 213.039063 327.074219 218.78125 321.6875 223.949219 C 318.996094 226.820313 316.304688 231.703125 314.824219 235.289063 C 312.9375 241.175781 310.519531 251.082031 307.824219 255.820313 C 302.574219 265.292969 296.519531 261.417969 293.691406 272.757813 C 291.671875 282.234375 287.769531 300.03125 283.058594 303.046875 C 283.191406 302.761719 270.269531 283.667969 267.847656 279.933594 C 290.730469 240.746094 318.460938 191.363281 337.84375 153.035156 Z M 118.542969 40.707031 L 126.25 36.144531 L 135.136719 27.742188 C 136.019531 27.40625 140.480469 23.082031 141.878906 21.523438 L 146.449219 17.558594 C 149.132813 14.808594 155.703125 26.957031 152.539063 28.816406 L 121.519531 46.339844 C 117.140625 48.15625 115.457031 42.453125 118.542969 40.707031 Z M 121.796875 77.789063 C 121.8125 77.855469 121.261719 71.796875 121.078125 71.601563 C 119.953125 70.390625 118.480469 70.03125 117.070313 69.0625 C 113.058594 66.625 109.152344 60.339844 109.152344 60.339844 C 108.429688 58.910156 109.785156 56.953125 111.371094 56.394531 C 119.902344 53.417969 126.453125 49.199219 134.03125 44.460938 C 140.125 40.558594 153.324219 31.871094 153.523438 32.589844 C 155.335938 44.132813 151.378906 47.953125 148.585938 55.148438 C 147.117188 58.925781 147.707031 63.089844 147.476563 67.085938 C 147.414063 68.09375 147.425781 69.210938 147.503906 70.460938 C 145.003906 71.503906 142.523438 72.613281 140.058594 73.773438 C 134.335938 76.453125 122.324219 85.414063 121.796875 77.789063 Z M 153.277344 122.46875 C 146.738281 108.445313 143.664063 105.246094 129.8125 87.355469 C 129.8125 87.355469 127.601563 85.210938 128.523438 84.695313 C 135.238281 81.667969 148.742188 73.269531 150.472656 76.460938 C 160.617188 95.214844 172.929688 111.359375 175.121094 128.773438 C 175.691406 133.269531 171.347656 135.578125 168.003906 137.46875 L 159.320313 142.457031 C 157.085938 143.566406 157.03125 130.507813 153.277344 122.46875 Z M 161.058594 148.34375 C 159.914063 146.230469 162.519531 145.148438 164.019531 144.300781 C 165.703125 143.34375 167.25 142.695313 169.109375 141.652344 C 184.03125 134.289063 182.167969 127.796875 178.425781 118.878906 C 178.371094 118.851563 177.691406 116.550781 177.199219 115.207031 C 178.210938 115.007813 179.230469 114.847656 180.265625 114.734375 C 195.425781 113.046875 206.039063 131.414063 194.191406 143.960938 C 185.75 152.25 167.636719 160.5 167.636719 160.5 Z M 154.914063 443.21875 C 161.644531 447.664063 162.988281 457.730469 167.296875 462.960938 C 175.507813 473.289063 185.335938 479.695313 191.660156 483.484375 C 192.738281 483.878906 193.679688 484.53125 194.082031 485.445313 C 195.023438 489.238281 184.390625 492.636719 190.179688 495.644531 C 190.3125 496.035156 190.851563 496.167969 191.523438 496.429688 L 188.96875 500.351563 C 188.429688 501.527344 184.527344 499.828125 180.890625 498.128906 C 166.488281 491.984375 160.566406 487.671875 142.125 464.398438 C 134.992188 455.769531 139.566406 433.414063 154.914063 443.21875 Z M 114.472656 667.621094 C 72.121094 654.679688 30.511719 619.378906 12.59375 576.238281 C 7.410156 563.425781 6.964844 541.332031 28.140625 551.527344 C 28.882813 551.921875 38.953125 555.972656 39.246094 556.496094 C 38.800781 556.757813 32.289063 556.628906 29.179688 557.148438 C 24.4375 558.980469 22.960938 565.257813 30.214844 578.589844 C 53.613281 624.609375 87.964844 642.910156 112.546875 652.980469 C 117.433594 654.941406 118.914063 655.332031 120.839844 655.984375 Z M 191.335938 535.550781 C 187.433594 543.015625 177.742188 543.304688 173.703125 549.617188 C 169.800781 555.648438 174.242188 563.976563 167.105469 565.695313 C 163.472656 566.847656 160.914063 570.867188 161.183594 574.742188 C 161.183594 579.621094 161.589844 586.800781 159.703125 591.105469 C 157.953125 593.835938 156.476563 598.425781 152.4375 595.84375 C 148.128906 593.835938 140.589844 585.796875 136.285156 594.121094 C 132.785156 600.722656 135.878906 602.589844 141.53125 605.746094 C 146.648438 608.761719 147.050781 614.933594 145.839844 620.246094 L 143.6875 632.019531 C 142.207031 637.472656 146.515625 642.066406 150.28125 645.367188 C 152.972656 647.953125 154.589844 653.40625 152.703125 656.707031 C 150.417969 659.578125 145.164063 658.863281 136.554688 655.558594 C 128.34375 652.976563 125.515625 643.933594 125.648438 643.933594 L 118.785156 640.058594 C 118.515625 641.0625 117.304688 642.929688 117.304688 642.929688 C 112.996094 650.679688 72.882813 621.683594 56.464844 602.734375 C 46.367188 590.820313 32.90625 572.730469 36.945313 565.554688 C 38.964844 561.964844 42.734375 563.546875 44.753906 564.40625 L 46.097656 565.265625 L 50.945313 561.246094 C 60.636719 553.78125 70.460938 545.027344 79.75 536.699219 C 95.765625 521.484375 111.113281 505.691406 125.515625 489.328125 C 128.878906 485.453125 133.320313 479.996094 138.167969 473.679688 C 139.648438 475.402344 141.53125 477.84375 142.070313 478.273438 C 161.589844 496.648438 169.800781 500.8125 178.550781 504.832031 C 183.933594 506.554688 192.414063 510.429688 196.855469 511.578125 C 201.972656 513.445313 195.238281 528.085938 191.335938 535.550781 Z M 238.503906 392.910156 C 221.675781 400.519531 224.773438 435.257813 213.871094 442.292969 C 201.488281 449.613281 205.121094 470.429688 203.238281 474.160156 C 200.8125 477.894531 193.679688 481.769531 179.546875 467.988281 C 168.914063 457.078125 165.011719 446.742188 165.277344 439.710938 C 165.277344 439.710938 216.429688 359.03125 235.675781 329.316406 C 235.8125 328.886719 245.503906 354.152344 250.078125 362.335938 C 246.175781 375.253906 244.964844 389.894531 238.503906 392.910156 Z M 324.640625 474.628906 C 322.757813 470.894531 326.390625 450.078125 314.007813 442.757813 C 303.105469 435.726563 306.203125 400.984375 289.378906 393.375 C 279.953125 389.070313 287.761719 351.027344 270.53125 346.578125 C 243.207031 327.484375 238.898438 301.074219 236.476563 280.398438 C 233.785156 269.058594 225.304688 265.757813 220.054688 256.285156 C 217.363281 251.546875 214.941406 241.640625 213.054688 235.757813 C 211.574219 232.167969 208.882813 227.285156 206.191406 224.414063 C 200.804688 219.246094 199.191406 213.507813 197.308594 207.621094 C 194.078125 198.863281 192.058594 192.691406 191.382813 192.402344 C 185.324219 188.097656 181.828125 181.351563 178.191406 175.035156 C 176.308594 170.871094 174.558594 166.851563 173.078125 162.832031 L 190.039063 153.5 C 212.652344 198.289063 244.6875 257.144531 269.992188 298.488281 C 283.183594 318.730469 310.507813 362.65625 337.296875 404.714844 C 344.296875 415.484375 362.601563 440.175781 362.601563 440.175781 C 362.867188 447.207031 358.964844 457.546875 348.332031 468.453125 C 334.199219 482.234375 327.066406 478.359375 324.640625 474.628906 Z M 391.558594 656.140625 C 382.945313 659.445313 377.695313 660.160156 375.40625 657.289063 C 373.523438 653.988281 375.140625 648.53125 377.828125 645.949219 C 381.597656 642.648438 385.90625 638.054688 384.425781 632.597656 L 382.273438 620.828125 C 381.058594 615.515625 381.464844 609.34375 386.578125 606.332031 C 392.234375 603.171875 395.328125 601.304688 391.828125 594.703125 C 387.519531 586.375 379.984375 594.414063 375.675781 596.425781 C 371.636719 599.007813 370.15625 594.414063 368.40625 591.6875 C 366.523438 587.382813 366.929688 580.203125 366.929688 575.324219 C 367.195313 571.445313 364.636719 567.425781 361.003906 566.277344 C 353.871094 564.554688 358.3125 556.230469 354.410156 550.199219 C 350.371094 543.886719 340.679688 543.597656 336.777344 536.132813 C 332.871094 528.667969 326.140625 514.027344 331.257813 512.160156 C 335.699219 511.011719 344.179688 507.136719 349.5625 505.410156 C 358.3125 501.394531 366.523438 497.230469 386.039063 478.855469 C 386.578125 478.425781 388.464844 475.984375 389.945313 474.261719 C 394.789063 480.578125 399.230469 486.035156 402.597656 489.910156 C 417 506.273438 432.34375 522.066406 448.363281 537.28125 C 457.648438 545.605469 467.476563 554.363281 477.167969 561.828125 L 482.011719 565.847656 L 483.359375 564.988281 C 485.378906 564.128906 489.148438 562.546875 491.167969 566.136719 C 495.203125 573.3125 481.746094 591.402344 471.648438 603.316406 C 455.230469 622.265625 415.117188 651.261719 410.808594 643.511719 C 410.808594 643.511719 409.597656 641.644531 409.328125 640.640625 L 402.464844 644.515625 C 402.597656 644.515625 399.769531 653.558594 391.558594 656.140625 Z M 515.171875 576.703125 C 497.253906 619.84375 455.640625 655.144531 413.289063 668.085938 L 406.925781 656.453125 C 408.847656 655.796875 410.328125 655.40625 415.214844 653.445313 C 439.796875 643.378906 474.152344 625.074219 497.546875 579.054688 C 504.804688 565.722656 503.324219 559.445313 498.585938 557.613281 C 495.476563 557.09375 488.960938 557.222656 488.515625 556.960938 C 488.8125 556.4375 498.882813 552.386719 499.621094 551.992188 C 520.796875 541.796875 520.355469 563.890625 515.171875 576.703125 "/>
</g>
</svg>
