<?xml version="1.0" encoding="UTF-8"?>
<svg xmlns="http://www.w3.org/2000/svg" xmlns:xlink="http://www.w3.org/1999/xlink" width="376pt" height="285pt" viewBox="0 0 376 285" version="1.1">
<g id="surface1">
<path style=" stroke:none;fill-rule:nonzero;fill:rgb(0%,0%,0%);fill-opacity:1;" d="M 219.015625 15.402344 C 143 44.164063 32.964844 127.398438 7.386719 190.292969 C -21.492188 261.289063 44.21875 310.6875 166.320313 270.632813 C 222.046875 252.351563 352.050781 193.664063 372.664063 101.855469 C 389.992188 24.695313 327.617188 -25.6875 219.015625 15.402344 Z M 332.109375 86.269531 C 318.757813 133.128906 286.492188 162.386719 252.699219 189.386719 C 209.613281 223.816406 152.238281 245.96875 116.414063 252.988281 C 53.265625 265.359375 33.636719 245.535156 56.457031 195.925781 C 93.460938 141.109375 163.011719 87.40625 221.515625 55.789063 C 303.472656 11.503906 348.832031 27.578125 332.109375 86.269531 "/>
</g>
</svg>
