<?xml version="1.0" encoding="UTF-8"?>
<svg xmlns="http://www.w3.org/2000/svg" xmlns:xlink="http://www.w3.org/1999/xlink" width="506pt" height="253pt" viewBox="0 0 506 253" version="1.1">
<g id="surface1">
<path style=" stroke:none;fill-rule:nonzero;fill:rgb(0%,0%,0%);fill-opacity:1;" d="M 380.03125 162.222656 L 315.710938 126.691406 L 380.347656 89.207031 L 350.910156 39.421875 L 287.714844 76.367188 L 287.714844 0.667969 L 221.902344 0.667969 L 221.902344 76.367188 L 158.726563 39.421875 L 129.269531 89.207031 L 193.910156 126.691406 L 129.574219 162.222656 L 158.820313 213.609375 L 221.617188 179.777344 L 221.617188 252.601563 L 287.984375 252.601563 L 287.984375 179.777344 L 350.796875 213.609375 L 380.03125 162.222656 "/>
<path style=" stroke:none;fill-rule:nonzero;fill:rgb(0%,0%,0%);fill-opacity:1;" d="M 362.089844 126.695313 L 426.726563 89.210938 L 397.289063 39.429688 L 369.613281 55.601563 L 391.339844 92.386719 L 332.476563 126.507813 L 391.035156 158.878906 L 368.628906 198.238281 L 397.195313 213.617188 L 426.410156 162.230469 L 362.089844 126.695313 "/>
<path style=" stroke:none;fill-rule:nonzero;fill:rgb(0%,0%,0%);fill-opacity:1;" d="M 116.753906 158.878906 L 175.3125 126.507813 L 116.449219 92.386719 L 138.175781 55.601563 L 110.5 39.429688 L 81.0625 89.210938 L 145.699219 126.695313 L 81.378906 162.230469 L 110.59375 213.617188 L 139.160156 198.238281 L 116.753906 158.878906 "/>
<path style=" stroke:none;fill-rule:nonzero;fill:rgb(0%,0%,0%);fill-opacity:1;" d="M 462.4375 89.210938 L 433 39.429688 L 413.320313 50.933594 L 437.636719 92.054688 L 378.203125 126.523438 L 437.269531 159.183594 L 412.546875 202.664063 L 432.90625 213.617188 L 462.121094 162.230469 L 397.800781 126.695313 L 462.4375 89.210938 "/>
<path style=" stroke:none;fill-rule:nonzero;fill:rgb(0%,0%,0%);fill-opacity:1;" d="M 129.585938 126.523438 L 70.152344 92.054688 L 94.464844 50.933594 L 74.789063 39.429688 L 45.347656 89.210938 L 109.988281 126.695313 L 45.667969 162.230469 L 74.882813 213.617188 L 95.242188 202.664063 L 70.519531 159.183594 L 129.585938 126.523438 "/>
<path style=" stroke:none;fill-rule:nonzero;fill:rgb(0%,0%,0%);fill-opacity:1;" d="M 8.433594 157.054688 L 63.246094 126.585938 L 63.453125 126.472656 L 8.449219 93.574219 L 35.03125 45.363281 L 28.175781 41.695313 L 0.765625 92.84375 L 56.4375 126.695313 L 56.660156 126.839844 L 0.308594 158.59375 L 28.632813 212.011719 L 35.949219 207.902344 L 8.542969 157.261719 L 8.433594 157.054688 "/>
<path style=" stroke:none;fill-rule:nonzero;fill:rgb(0%,0%,0%);fill-opacity:1;" d="M 448.839844 126.839844 L 449.0625 126.695313 L 504.734375 92.84375 L 477.324219 41.695313 L 470.46875 45.363281 L 497.050781 93.574219 L 442.046875 126.472656 L 442.253906 126.585938 L 497.066406 157.054688 L 496.957031 157.261719 L 469.550781 207.902344 L 476.863281 212.011719 L 505.191406 158.59375 L 448.839844 126.839844 "/>
<path style=" stroke:none;fill-rule:nonzero;fill:rgb(0%,0%,0%);fill-opacity:1;" d="M 295.609375 252.460938 L 299.910156 252.476563 L 334.378906 252.476563 L 334.378906 215.5 L 295.609375 193.820313 L 295.609375 252.460938 "/>
<path style=" stroke:none;fill-rule:nonzero;fill:rgb(0%,0%,0%);fill-opacity:1;" d="M 173.429688 252.476563 L 207.898438 252.476563 L 212.199219 252.460938 L 212.199219 193.820313 L 173.429688 215.5 L 173.429688 252.476563 "/>
<path style=" stroke:none;fill-rule:nonzero;fill:rgb(0%,0%,0%);fill-opacity:1;" d="M 212.578125 0.8125 L 174.078125 0.8125 L 173.980469 38.105469 L 173.980469 38.234375 L 212.578125 60.417969 L 212.578125 0.8125 "/>
<path style=" stroke:none;fill-rule:nonzero;fill:rgb(0%,0%,0%);fill-opacity:1;" d="M 334.203125 38.105469 L 334.109375 0.8125 L 295.609375 0.8125 L 295.609375 60.417969 L 334.203125 38.234375 L 334.203125 38.105469 "/>
<path style=" stroke:none;fill-rule:nonzero;fill:rgb(0%,0%,0%);fill-opacity:1;" d="M 146.285156 43.058594 L 155.160156 28.058594 L 165.742188 34.25 L 165.757813 0.8125 L 137.988281 0.8125 L 138.035156 38.011719 L 146.285156 43.058594 "/>
<path style=" stroke:none;fill-rule:nonzero;fill:rgb(0%,0%,0%);fill-opacity:1;" d="M 352.628906 28.058594 L 361.5 43.058594 L 369.753906 38.011719 L 369.800781 0.8125 L 342.027344 0.8125 L 342.046875 34.25 L 352.628906 28.058594 "/>
<path style=" stroke:none;fill-rule:nonzero;fill:rgb(0%,0%,0%);fill-opacity:1;" d="M 146.886719 210.546875 L 137.714844 215.5 L 137.714844 252.476563 L 165.488281 252.476563 L 165.488281 219.148438 L 154.996094 224.800781 L 146.886719 210.546875 "/>
<path style=" stroke:none;fill-rule:nonzero;fill:rgb(0%,0%,0%);fill-opacity:1;" d="M 352.792969 224.800781 L 342.300781 219.148438 L 342.300781 252.476563 L 370.074219 252.476563 L 370.074219 215.5 L 360.902344 210.546875 L 352.792969 224.800781 "/>
<path style=" stroke:none;fill-rule:nonzero;fill:rgb(0%,0%,0%);fill-opacity:1;" d="M 130.054688 0.808594 L 114.183594 0.808594 L 114.105469 32.339844 L 130.070313 41.609375 L 130.054688 0.808594 "/>
<path style=" stroke:none;fill-rule:nonzero;fill:rgb(0%,0%,0%);fill-opacity:1;" d="M 393.605469 0.808594 L 377.734375 0.808594 L 377.71875 41.609375 L 393.683594 32.339844 L 393.605469 0.808594 "/>
<path style=" stroke:none;fill-rule:nonzero;fill:rgb(0%,0%,0%);fill-opacity:1;" d="M 378.011719 252.476563 L 393.882813 252.476563 L 393.882813 220.847656 L 378.011719 212.292969 L 378.011719 252.476563 "/>
<path style=" stroke:none;fill-rule:nonzero;fill:rgb(0%,0%,0%);fill-opacity:1;" d="M 113.90625 252.476563 L 129.773438 252.476563 L 129.773438 212.292969 L 113.90625 220.847656 L 113.90625 252.476563 "/>
<path style=" stroke:none;fill-rule:nonzero;fill:rgb(0%,0%,0%);fill-opacity:1;" d="M 401.824219 221.546875 L 401.777344 252.429688 L 409.761719 252.476563 L 409.761719 220.847656 L 403.984375 217.738281 L 401.824219 221.546875 "/>
<path style=" stroke:none;fill-rule:nonzero;fill:rgb(0%,0%,0%);fill-opacity:1;" d="M 404.160156 35.464844 L 409.554688 32.339844 L 409.476563 0.808594 L 401.539063 0.808594 L 401.617188 31.183594 L 404.160156 35.464844 "/>
<path style=" stroke:none;fill-rule:nonzero;fill:rgb(0%,0%,0%);fill-opacity:1;" d="M 106.167969 31.183594 L 106.246094 0.808594 L 98.3125 0.808594 L 98.234375 32.339844 L 103.628906 35.464844 L 106.167969 31.183594 "/>
<path style=" stroke:none;fill-rule:nonzero;fill:rgb(0%,0%,0%);fill-opacity:1;" d="M 103.824219 217.738281 L 98.046875 220.847656 L 98.046875 252.476563 L 106.03125 252.429688 L 105.984375 221.546875 L 103.824219 217.738281 "/>
</g>
</svg>
