<?xml version="1.0" encoding="UTF-8"?>
<svg xmlns="http://www.w3.org/2000/svg" xmlns:xlink="http://www.w3.org/1999/xlink" width="512pt" height="438pt" viewBox="0 0 512 438" version="1.1">
<g id="surface1">
<path style=" stroke:none;fill-rule:nonzero;fill:rgb(0%,0%,0%);fill-opacity:1;" d="M 504.238281 17.667969 C 481.039063 32.429688 449.664063 25.792969 433.238281 14.667969 C 422.90625 7.667969 403.238281 5 388.574219 5 C 354.695313 5 316.730469 8 276.90625 8 C 252.90625 8 144.90625 2 125.90625 0.667969 C 106.90625 -0.667969 104.238281 7.332031 101.574219 14 C 98.90625 20.667969 84.085938 59.609375 80.574219 69.332031 C 76.238281 81.332031 79.238281 88.332031 92.574219 83.667969 C 117.332031 75 180.148438 69.886719 217.238281 71.332031 C 242.90625 72.332031 238.574219 82.332031 230.574219 95.332031 C 222.574219 108.332031 101.238281 287.332031 89.238281 306 C 81.136719 318.605469 38.902344 386.503906 23.90625 395 C -1.78125 409.554688 -7.738281 423.332031 10.90625 423.332031 C 21.238281 423.332031 113.90625 424 121.238281 424 C 128.574219 424 130.238281 423.667969 137.574219 421.332031 C 144.90625 419 154.574219 416 161.90625 419.332031 C 171.640625 423.757813 188.617188 429.6875 203.238281 428 C 214.855469 426.660156 227.628906 425.671875 236.90625 433 C 243.238281 438 245.574219 435.667969 239.90625 429.667969 C 230.535156 419.742188 208.390625 419.589844 186.90625 414.667969 C 159.164063 408.308594 157.800781 383.257813 184.238281 388.667969 C 198.90625 391.667969 209.574219 403.667969 219.90625 412.667969 C 236.84375 427.417969 240.304688 427.804688 260.90625 426.332031 C 279.328125 425.019531 296.148438 426.207031 305.574219 435 C 310.574219 439.667969 315.238281 438.332031 309.574219 432.667969 C 301.097656 424.191406 284.605469 417.476563 263.90625 418 C 218.726563 419.144531 235.511719 378.402344 281.90625 409.332031 C 293.90625 417.332031 309.238281 422.332031 319.238281 417 C 334.132813 409.058594 351.65625 407.792969 366.90625 416.667969 C 375.019531 421.386719 377.574219 418.667969 369.90625 413 C 358.222656 404.363281 338.257813 403.75 315.90625 407 C 290.980469 410.625 287.167969 383.707031 330.90625 397.667969 C 346.574219 402.667969 372.238281 398 380.574219 392.667969 C 388.90625 387.332031 385.90625 384.667969 378.90625 389 C 367.378906 396.136719 339.769531 393.085938 322.238281 386 C 306.574219 379.667969 277.90625 387 258.238281 389 C 232.203125 391.648438 224.277344 359.90625 265.238281 375 C 277.429688 379.492188 302.605469 380.84375 318.574219 374 C 327.90625 370 325.90625 366.667969 316.574219 370.332031 C 304.195313 375.195313 280.507813 375.359375 264.90625 366 C 247.957031 355.832031 240.523438 356.058594 215.90625 362 C 185.148438 369.421875 176.546875 331.722656 202.238281 332.332031 C 216.238281 332.667969 233.574219 346.667969 247.90625 353.667969 C 262.238281 360.667969 285.910156 356.765625 293.90625 354.332031 C 304.566406 351.089844 325.914063 351.910156 336.90625 357.667969 C 343.90625 361.332031 347.574219 359.332031 338.238281 353.667969 C 324.761719 345.484375 292.382813 344.183594 270.90625 348 C 243.28125 352.910156 243.835938 323.980469 278.90625 337.667969 C 292.574219 343 312.238281 342.332031 323.90625 337.332031 C 335.574219 332.332031 334.238281 329.667969 321.574219 334.332031 C 308.90625 339 288.574219 334 277.574219 328.667969 C 266.574219 323.332031 253.90625 321.332031 238.574219 322.667969 C 194.195313 326.523438 212.617188 272.917969 251.574219 308.332031 C 271.550781 326.496094 289.816406 321.835938 312.90625 314.332031 C 326.238281 310 345.238281 315.667969 351.574219 320 C 357.90625 324.332031 361.238281 322 354.238281 317 C 335.464844 303.589844 312.351563 304.96875 287.574219 309 C 262.699219 313.046875 261.167969 286.507813 294.238281 299 C 308.734375 304.476563 336.414063 303.414063 347.90625 297.667969 C 357.238281 293 353.574219 291 345.238281 294.667969 C 336.90625 298.332031 315.238281 299 299.90625 290.667969 C 284.574219 282.332031 268.90625 284.667969 248.574219 285.332031 C 218.761719 286.3125 231.609375 242.578125 263.238281 267.332031 C 278.574219 279.332031 291.574219 281 308.90625 277 C 326.238281 273 338.90625 275.667969 346.574219 281.332031 C 354.238281 287 360.574219 286 349.238281 276.667969 C 333.082031 263.359375 303.75 272.460938 291.90625 267.667969 C 269.753906 258.699219 284.472656 238.292969 301.90625 250.667969 C 312.238281 258 333.238281 260.332031 343.90625 256.332031 C 358.554688 250.839844 380.148438 243.492188 399.90625 256.667969 C 405.90625 260.667969 409.574219 258.667969 402.238281 252.667969 C 378.027344 232.855469 350.007813 251.585938 327.238281 246.332031 C 309.058594 242.136719 316.425781 227.171875 334.574219 236 C 346.90625 242 380.574219 238.667969 390.574219 234 C 400.574219 229.332031 398.238281 225 388.90625 229.332031 C 375.4375 235.585938 353.261719 232.191406 338.238281 225.332031 C 322.90625 218.332031 309.238281 223 294.238281 225.332031 C 260.703125 230.550781 269.109375 179.339844 314.574219 206.332031 C 325.238281 212.667969 339.238281 213.667969 348.238281 209.332031 C 358.503906 204.390625 383.195313 204.277344 397.238281 216.667969 C 402.90625 221.667969 406.574219 220 400.574219 214 C 389.019531 202.445313 363.238281 199 338.238281 200.667969 C 309.035156 202.613281 312.558594 165.71875 348.90625 187.332031 C 361.238281 194.667969 370.90625 196 385.238281 191.667969 C 400.753906 186.976563 426.945313 187.355469 440.238281 195.332031 C 445.238281 198.332031 446.574219 195.667969 441.90625 192 C 431.9375 184.167969 407.765625 178.945313 377.238281 182.667969 C 351.140625 185.851563 358.5625 161.929688 382.574219 173.332031 C 395.90625 179.667969 423.238281 180.667969 434.574219 176.667969 C 445.90625 172.667969 442.574219 168.667969 434.90625 172 C 421.953125 177.632813 397.503906 172.832031 382.90625 162 C 372.574219 154.332031 345.238281 163 332.90625 163.667969 C 304.917969 165.179688 315.785156 125.375 343.574219 142.667969 C 363.226563 154.894531 379.921875 150.550781 393.574219 146 C 404.324219 142.414063 421.597656 141.695313 429.574219 150.667969 C 434.90625 156.667969 437.574219 154.667969 433.574219 148.667969 C 425.316406 136.277344 395.609375 134.722656 377.90625 138 C 368.90625 139.667969 356.90625 139.667969 352.238281 132 C 345.984375 121.722656 363.828125 113.5 379.238281 125.667969 C 389.222656 133.546875 407.589844 132.230469 420.574219 126.667969 C 429.90625 122.667969 444.574219 125.667969 451.238281 129.332031 C 457.90625 133 459.238281 130.332031 453.238281 126 C 443.898438 119.253906 422.914063 116.859375 403.90625 120.332031 C 381.191406 124.484375 381.359375 99.988281 409.574219 110.332031 C 428.195313 117.160156 447.0625 120.617188 462.574219 111.667969 C 471.238281 106.667969 468.574219 104.332031 461.574219 108.332031 C 452.183594 113.699219 429.742188 112.523438 412.238281 103.332031 C 396.246094 94.9375 391.453125 95.394531 370.574219 99.667969 C 325.335938 108.921875 344.480469 62.191406 387.90625 87.332031 C 405.691406 97.628906 411.121094 94.816406 428.90625 89.667969 C 444.644531 85.109375 459.058594 86 470.574219 92.332031 C 477.238281 96 477.90625 92.667969 472.574219 89 C 463.921875 83.050781 437.890625 78.503906 421.238281 82.667969 C 406.886719 86.253906 395.855469 80.460938 405.90625 74 C 410.574219 71 420.574219 70.667969 431.238281 76 C 445.585938 83.171875 469.449219 78.828125 483.238281 70 C 491.574219 64.667969 488.90625 63 480.90625 67 C 459.773438 77.566406 439.261719 67.765625 419.238281 63 C 405.238281 59.667969 394.238281 63 384.238281 65.667969 C 346.789063 75.652344 361.246094 36.457031 382.90625 46 C 397.5625 52.457031 409.914063 55.613281 426.90625 48.332031 C 438.820313 43.226563 453.4375 40.21875 462.574219 46.667969 C 468.238281 50.667969 470.238281 49 465.238281 44.332031 C 458.128906 37.699219 437.90625 35.96875 420.574219 40 C 396.628906 45.570313 393.511719 27.632813 409.238281 22.667969 C 415.574219 20.667969 424.90625 20 440.90625 28.332031 C 458.050781 37.261719 493.320313 31.515625 507.90625 20 C 514.238281 15 511.574219 13 504.238281 17.667969 Z M 505.476563 19.933594 C 490.816406 30.097656 457.78125 35.429688 441.601563 27.003906 C 424.320313 18.003906 414.597656 19.402344 408.789063 21.234375 C 400.203125 23.949219 397.023438 30.171875 398.324219 34.917969 C 399.722656 40.035156 406.480469 44.816406 420.914063 41.460938 C 437.859375 37.519531 457.5625 38.839844 464.09375 44.929688 C 465.460938 46.207031 465.191406 46.679688 463.4375 45.441406 C 452.398438 37.648438 435.441406 43.042969 426.316406 46.953125 C 410.410156 53.769531 398.578125 51.261719 383.511719 44.628906 C 374.765625 40.773438 367.425781 44.28125 363.472656 48.847656 C 359.449219 53.496094 358.488281 59.402344 361.078125 63.546875 C 363.050781 66.699219 368.730469 71.355469 384.628906 67.117188 L 386.15625 66.707031 C 395.441406 64.210938 405.96875 61.382813 418.894531 64.460938 C 422.710938 65.367188 426.640625 66.488281 430.4375 67.570313 C 446.933594 72.273438 463.988281 77.136719 481.578125 68.34375 C 483.796875 67.234375 484.328125 67.523438 482.433594 68.738281 C 469.222656 77.191406 445.769531 81.585938 431.910156 74.65625 C 420.394531 68.898438 409.9375 69.625 405.097656 72.738281 C 399.914063 76.070313 400.230469 79.082031 400.878906 80.578125 C 402.785156 84.996094 411.890625 86.550781 421.605469 84.121094 C 438.292969 79.949219 463.871094 84.835938 471.722656 90.234375 C 474.179688 91.925781 473.890625 92.445313 471.296875 91.019531 C 459.464844 84.511719 444.660156 83.546875 428.488281 88.226563 L 424.800781 89.304688 C 410.097656 93.640625 404.597656 95.261719 388.65625 86.035156 C 368.496094 74.359375 353.574219 77.667969 346.925781 84.046875 C 343.210938 87.609375 342.117188 92.140625 344.070313 95.871094 C 347.261719 101.949219 357.28125 103.917969 370.875 101.136719 C 391.4375 96.929688 395.804688 96.398438 411.542969 104.660156 C 428.707031 113.671875 449.414063 114.9375 459.972656 110.75 C 462.949219 109.570313 463.214844 110.054688 460.730469 111.355469 C 448.242188 117.886719 431.921875 116.929688 410.089844 108.925781 C 394.605469 103.246094 388.941406 108.125 387.574219 109.757813 C 385.820313 111.851563 385.597656 114.644531 386.996094 117.050781 C 389.007813 120.503906 394.574219 123.5625 404.175781 121.808594 C 422.691406 118.425781 443.40625 120.75 452.363281 127.214844 C 454.621094 128.847656 454.351563 129.332031 451.964844 128.019531 C 444.921875 124.144531 429.890625 121.042969 419.980469 125.289063 C 407.789063 130.511719 389.695313 132.007813 380.171875 124.488281 C 369.910156 116.390625 358.011719 116.65625 352.433594 121.59375 C 349.0625 124.578125 348.511719 128.761719 350.960938 132.78125 C 356.753906 142.300781 371.925781 140.632813 378.179688 139.476563 C 395.890625 136.195313 424.5625 137.855469 432.324219 149.496094 C 433.859375 151.800781 432.855469 152.101563 430.695313 149.671875 C 421.828125 139.695313 403.355469 141.160156 393.097656 144.578125 C 378.730469 149.367188 363.128906 153.066406 344.367188 141.394531 C 331.296875 133.261719 323.257813 137.902344 320.40625 140.277344 C 315.613281 144.265625 313.785156 150.933594 315.96875 156.484375 C 318.3125 162.460938 324.515625 165.621094 332.988281 165.164063 C 336.605469 164.96875 341.503906 164.097656 346.6875 163.175781 C 359.371094 160.921875 375.15625 158.117188 382.011719 163.203125 C 397.144531 174.433594 422.144531 179.183594 435.503906 173.375 C 437.699219 172.421875 438.132813 173.628906 435.867188 174.570313 C 435.328125 174.789063 434.734375 175.019531 434.074219 175.253906 C 423.292969 179.058594 396.175781 178.136719 383.21875 171.980469 C 372.195313 166.742188 364.527344 168.695313 361.308594 171.953125 C 359.296875 173.996094 358.765625 176.730469 359.925781 179.09375 C 362.015625 183.34375 368.554688 185.238281 377.421875 184.15625 C 408.023438 180.425781 430.976563 185.761719 440.488281 192.804688 C 443.035156 194.691406 442.957031 195.097656 440.046875 193.492188 C 426.015625 185.757813 400.445313 185.503906 384.804688 190.230469 C 371.058594 194.386719 361.863281 193.292969 349.671875 186.042969 C 337.003906 178.511719 326.039063 176.941406 320.351563 181.851563 C 317.253906 184.519531 316.355469 188.679688 318.007813 192.699219 C 320.09375 197.792969 326.53125 202.949219 338.339844 202.164063 C 366.679688 200.273438 389.546875 205.097656 399.511719 215.0625 C 400.8125 216.359375 399.871094 216.988281 398.230469 215.542969 C 383.933594 202.925781 358.6875 202.636719 347.589844 207.980469 C 338.855469 212.1875 325.289063 210.953125 315.339844 205.042969 C 299.449219 195.609375 285.195313 194.347656 277.203125 201.664063 C 272.351563 206.109375 270.929688 212.921875 273.667969 218.621094 C 276.867188 225.28125 284.644531 228.34375 294.472656 226.816406 C 297.152344 226.398438 299.8125 225.902344 302.386719 225.425781 C 314.238281 223.21875 325.433594 221.136719 337.617188 226.699219 C 352.78125 233.621094 375.488281 237.21875 389.539063 230.695313 C 394.902344 228.203125 395.550781 230.023438 389.9375 232.640625 C 380.746094 236.929688 347.261719 240.503906 335.230469 234.652344 C 326.636719 230.472656 320.460938 231.449219 317.546875 233.757813 C 315.675781 235.234375 314.890625 237.347656 315.382813 239.546875 C 316.226563 243.292969 320.425781 246.300781 326.902344 247.796875 C 335.816406 249.851563 345.199219 248.398438 355.132813 246.855469 C 370.691406 244.445313 386.773438 241.953125 401.289063 253.828125 C 404.960938 256.832031 404.304688 257.796875 400.738281 255.417969 C 379.621094 241.339844 356.046875 250.179688 343.378906 254.929688 C 333.699219 258.558594 313.058594 256.742188 302.773438 249.441406 C 296.507813 244.996094 289.703125 244.042969 284.574219 246.894531 C 281.054688 248.855469 279.011719 252.40625 279.242188 256.164063 C 279.5625 261.375 283.972656 266.074219 291.34375 269.058594 C 296.117188 270.988281 303.132813 270.8125 311.253906 270.605469 C 324.109375 270.28125 338.679688 269.910156 348.285156 277.824219 C 351.84375 280.753906 350.214844 282.160156 347.464844 280.128906 C 338.445313 273.460938 324.632813 271.832031 308.570313 275.539063 C 290.324219 279.75 278.289063 277.203125 264.164063 266.152344 C 249.070313 254.339844 239.640625 258.585938 236.28125 260.957031 C 231.179688 264.566406 228.980469 271.160156 230.941406 276.996094 C 233.109375 283.449219 239.71875 287.125 248.621094 286.832031 L 257.511719 286.460938 C 273.726563 285.703125 286.53125 285.105469 299.191406 291.984375 C 314.675781 300.402344 336.800781 300.019531 345.84375 296.039063 C 347.832031 295.164063 348.757813 295.566406 347.234375 296.324219 C 335.78125 302.050781 308.324219 302.71875 294.769531 297.597656 C 282.617188 293.003906 273.03125 292.96875 269.132813 297.503906 C 267.367188 299.550781 267.144531 302.257813 268.535156 304.742188 C 270.640625 308.492188 276.949219 312.25 287.8125 310.480469 C 314.5625 306.128906 335.945313 305.777344 353.367188 318.222656 C 354.820313 319.257813 354.105469 319.914063 352.421875 318.761719 C 345.902344 314.304688 326.429688 308.359375 312.441406 312.90625 C 288.589844 320.660156 271.535156 324.453125 252.582031 307.222656 C 232.992188 289.414063 220.707031 295.148438 217.410156 297.328125 C 212.222656 300.757813 209.988281 307.128906 211.976563 312.824219 C 213.058594 315.9375 218.191406 325.945313 238.703125 324.160156 C 253.617188 322.863281 266.117188 324.78125 276.917969 330.015625 C 287.054688 334.929688 308.28125 340.828125 322.09375 335.742188 C 324.324219 334.917969 324.757813 335.390625 322.1875 336.414063 C 310.234375 341.175781 291.71875 341.054688 279.453125 336.269531 C 264.003906 330.242188 254.859375 332.304688 251.449219 336.246094 C 249.515625 338.484375 249.246094 341.378906 250.726563 343.988281 C 252.898438 347.808594 259.558594 351.539063 271.167969 349.476563 C 292.566406 345.671875 324.3125 346.964844 337.460938 354.949219 C 339.625 356.261719 339.359375 357.257813 337.601563 356.339844 C 326.132813 350.328125 304.460938 349.554688 293.46875 352.898438 C 285.03125 355.464844 262.007813 358.882813 248.566406 352.320313 C 244.203125 350.1875 239.613281 347.433594 234.753906 344.515625 C 223.742188 337.90625 212.355469 331.074219 202.277344 330.835938 C 192.433594 330.601563 188.488281 335.554688 187.015625 338.527344 C 184.367188 343.863281 185.449219 350.8125 189.773438 356.226563 C 192.511719 359.660156 200.582031 367.242188 216.257813 363.457031 C 240.242188 357.667969 247.535156 357.328125 264.136719 367.285156 C 279.851563 376.714844 303.875 376.933594 317.121094 371.730469 C 319.574219 370.765625 320.167969 371.683594 317.980469 372.621094 C 303.039063 379.027344 278.464844 378.273438 265.757813 373.59375 C 251.527344 368.347656 240.972656 368.042969 236.796875 372.753906 C 234.816406 374.988281 234.578125 378.160156 236.160156 381.242188 C 238.859375 386.511719 246.96875 391.65625 258.390625 390.492188 C 263.40625 389.980469 268.929688 389.140625 274.773438 388.246094 C 291.453125 385.699219 310.359375 382.816406 321.679688 387.390625 C 339.988281 394.792969 367.671875 397.71875 379.695313 390.277344 C 381.390625 389.226563 381.710938 390.160156 379.765625 391.402344 C 371.414063 396.746094 346.40625 401.039063 331.363281 396.238281 C 314.339844 390.804688 301.597656 390.738281 297.28125 396.058594 C 295.714844 397.992188 295.550781 400.394531 296.832031 402.652344 C 299.089844 406.621094 305.929688 409.96875 316.121094 408.484375 C 341.15625 404.84375 358.953125 406.769531 369.015625 414.207031 C 372.664063 416.90625 371.808594 417.78125 367.660156 415.371094 C 352.902344 406.785156 334.996094 406.894531 318.535156 415.675781 C 308.523438 421.015625 292.996094 414.921875 282.738281 408.085938 C 261.097656 393.65625 245.855469 394.449219 239.382813 399.515625 C 236.242188 401.96875 235.105469 405.480469 236.339844 408.910156 C 238.277344 414.320313 246.546875 419.941406 263.945313 419.5 C 285.761719 418.945313 301.273438 426.488281 308.511719 433.726563 C 310.96875 436.183594 309.539063 436.652344 306.597656 433.902344 C 298.21875 426.085938 283.667969 423.203125 260.800781 424.835938 C 240.609375 426.28125 237.398438 425.910156 220.890625 411.535156 C 219.09375 409.96875 217.316406 408.339844 215.433594 406.613281 C 206.8125 398.710938 197.042969 389.753906 184.539063 387.199219 C 171.105469 384.449219 165.046875 389.421875 163.941406 394.515625 C 162.273438 402.207031 170.28125 412.394531 186.570313 416.128906 C 192.882813 417.574219 199.191406 418.601563 205.292969 419.597656 C 219.90625 421.980469 232.523438 424.035156 238.816406 430.695313 C 240.992188 433 240.28125 433.75 237.835938 431.824219 C 228.328125 424.316406 215.445313 425.082031 203.066406 426.511719 C 187.414063 428.316406 169.503906 421.136719 162.527344 417.96875 C 154.570313 414.351563 144.484375 417.558594 137.117188 419.902344 C 129.984375 422.171875 128.480469 422.5 121.238281 422.5 L 73.699219 422.210938 L 10.90625 421.832031 C 5.566406 421.832031 2.183594 420.617188 1.625 418.492188 C 0.613281 414.664063 7.386719 406.085938 24.648438 396.304688 C 37.191406 389.195313 66.585938 344.417969 87.605469 311.355469 L 90.503906 306.8125 C 96.089844 298.117188 125.210938 254.921875 156.039063 209.1875 C 191.203125 157.023438 227.566406 103.082031 231.851563 96.121094 C 236.308594 88.875 240.082031 81.945313 237.328125 76.785156 C 235.035156 72.484375 228.671875 70.277344 217.296875 69.835938 C 179.953125 68.378906 117.121094 73.484375 92.078125 82.25 C 86.921875 84.054688 83.285156 84.089844 81.566406 82.351563 C 79.628906 80.398438 79.777344 75.953125 81.984375 69.84375 C 85.40625 60.363281 103.175781 14.035156 103.175781 14.035156 C 105.734375 7.597656 108.386719 0.941406 125.800781 2.164063 C 144.484375 3.472656 252.996094 9.5 276.90625 9.5 C 297.652344 9.5 317.804688 8.691406 337.292969 7.90625 C 355.320313 7.183594 372.347656 6.5 388.574219 6.5 C 402.382813 6.5 422.148438 8.964844 432.398438 15.910156 C 450.480469 28.15625 481.890625 33.410156 504.699219 19.148438 C 507.816406 17.203125 508.90625 17.554688 505.476563 19.933594 "/>
</g>
</svg>
