<?xml version="1.0" encoding="UTF-8"?>
<svg xmlns="http://www.w3.org/2000/svg" xmlns:xlink="http://www.w3.org/1999/xlink" width="471pt" height="441pt" viewBox="0 0 471 441" version="1.1">
<g id="surface1">
<path style=" stroke:none;fill-rule:nonzero;fill:rgb(0%,0%,0%);fill-opacity:1;" d="M 269.9375 194.703125 C 261.789063 167.464844 254.097656 141.738281 253.097656 138.078125 C 252.433594 135.636719 251.03125 134.238281 249.355469 134.34375 C 248.5 134.398438 246.445313 134.984375 245.832031 139.261719 C 245.546875 141.277344 241.347656 164.644531 236.90625 189.382813 C 230.976563 222.40625 224.253906 259.839844 223.5 264.921875 L 223.089844 267.554688 C 222.429688 271.621094 222.035156 274.074219 223.464844 275.898438 C 224.75 277.53125 227.121094 278.03125 230.53125 278.304688 C 238.40625 278.933594 274.363281 280.640625 283.316406 280.640625 C 287.945313 280.640625 290.503906 279.890625 291.875 278.136719 C 293.558594 275.980469 292.945313 272.796875 292.105469 269.445313 C 291.179688 265.734375 280.378906 229.625 269.9375 194.703125 Z M 283.316406 279.140625 C 274.652344 279.140625 238.984375 277.476563 230.652344 276.808594 C 222.316406 276.140625 223.652344 274.140625 224.984375 265.140625 C 226.316406 256.140625 246.652344 144.140625 247.316406 139.476563 C 247.984375 134.808594 250.652344 134.808594 251.652344 138.476563 C 253.886719 146.675781 288.984375 263.140625 290.652344 269.808594 C 292.316406 276.476563 291.984375 279.140625 283.316406 279.140625 "/>
<path style=" stroke:none;fill-rule:nonzero;fill:rgb(0%,0%,0%);fill-opacity:1;" d="M 463.316406 428.808594 C 457.984375 426.808594 455.316406 424.808594 451.316406 418.140625 C 447.316406 411.476563 433.316406 376.808594 424.652344 358.808594 C 415.984375 340.808594 427.984375 344.140625 445.316406 344.140625 C 462.652344 344.140625 457.316406 332.808594 453.984375 324.808594 C 450.652344 316.808594 453.316406 281.476563 455.984375 269.476563 C 458.652344 257.476563 453.984375 252.140625 446.652344 260.140625 C 439.316406 268.140625 425.316406 272.140625 415.316406 274.140625 C 405.316406 276.140625 403.984375 276.808594 397.316406 260.140625 C 390.652344 243.476563 335.984375 45.808594 327.316406 22.140625 C 318.652344 -1.523438 307.316406 0.476563 291.984375 1.476563 C 276.652344 2.476563 223.484375 6.640625 213.316406 7.140625 C 203.152344 7.640625 202.152344 11.308594 197.652344 18.308594 C 193.152344 25.308594 183.484375 30.640625 171.984375 24.308594 C 156.757813 15.921875 145.101563 22.917969 126.816406 28.808594 C 111.816406 33.640625 100.984375 29.140625 95.984375 26.140625 C 90.984375 23.140625 89.320313 23.808594 94.484375 28.476563 C 103.367188 36.496094 125.269531 38.339844 144.316406 32.308594 C 170.570313 23.996094 173.234375 54.066406 130.152344 43.808594 C 115 40.199219 97.96875 42.414063 90.984375 49.140625 C 86.484375 53.476563 87.320313 55.140625 92.820313 50.808594 C 101.9375 43.621094 124.363281 47.882813 136.316406 53.140625 C 145.675781 57.257813 161.347656 57.800781 167.984375 51.808594 C 192.59375 29.582031 208.597656 59.980469 179.484375 66.308594 C 171.816406 67.976563 165.816406 68.308594 153.984375 63.308594 C 142.152344 58.308594 128.484375 63.976563 118.316406 68.476563 C 102.308594 75.5625 86.882813 71.332031 80.152344 68.808594 C 74.820313 66.808594 70.652344 67.808594 77.820313 70.976563 C 86.191406 74.675781 112.390625 80.832031 127.484375 75.476563 C 167.433594 61.300781 148.703125 98.929688 124.652344 88.640625 C 116.445313 85.132813 91.351563 76.078125 63.984375 84.976563 C 57.320313 87.140625 57.320313 89.808594 64.820313 87.808594 C 77.464844 84.4375 98.785156 87.234375 113.984375 94.976563 C 124.589844 100.375 143.4375 101.964844 157.652344 95.140625 C 213.003906 68.574219 192.300781 125.320313 165.484375 112.140625 C 153.125 106.066406 131.789063 100.4375 113.652344 110.140625 C 101.441406 116.671875 84.195313 113.222656 74.820313 108.808594 C 69.152344 106.140625 67.152344 107.476563 72.652344 111.140625 C 80.574219 116.425781 102.117188 122.691406 120.316406 118.140625 C 151.484375 110.351563 147.875 135.101563 115.316406 125.140625 C 96.640625 119.429688 69.832031 123.855469 60.152344 129.476563 C 54.984375 132.476563 57.820313 134.140625 62.652344 132.140625 C 72.820313 127.933594 94.863281 126.953125 114.652344 133.640625 C 126.3125 137.582031 141.160156 138.367188 155.152344 130.976563 C 195.035156 109.902344 197.046875 159.210938 159.316406 147.476563 C 142.867188 142.355469 136.769531 143.816406 126.984375 148.476563 C 111.925781 155.644531 94.265625 152.859375 85.484375 148.808594 C 78.984375 145.808594 76.984375 146.640625 84.820313 151.808594 C 93.503906 157.535156 111.078125 160.746094 122.152344 158.808594 C 128.816406 157.640625 138.816406 154.140625 145.484375 156.976563 C 152.152344 159.808594 160.316406 162.308594 168.484375 162.976563 C 193.105469 164.984375 180.890625 192.144531 152.652344 179.476563 C 139.652344 173.640625 121.316406 174.976563 110.816406 178.640625 C 94.464844 184.351563 69.171875 182.375 61.820313 178.140625 C 56.320313 174.976563 54.320313 177.640625 60.152344 181.140625 C 69.363281 186.671875 88.328125 191.558594 106.984375 188.976563 C 140.445313 184.34375 133.859375 206.273438 103.984375 195.640625 C 88.808594 190.238281 66.273438 193.152344 50.320313 201.308594 C 42.820313 205.140625 46.484375 206.976563 52.320313 203.640625 C 65.605469 196.046875 91.972656 197.902344 108.984375 204.476563 C 118.363281 208.097656 123.605469 210.460938 135.316406 204.808594 C 169.382813 188.363281 168.808594 233.921875 132.984375 218.640625 C 121.652344 213.808594 111.816406 217.140625 103.816406 219.976563 C 89.835938 224.929688 64.96875 221.96875 55.320313 217.140625 C 50.320313 214.640625 47.484375 216.808594 53.820313 219.976563 C 65.96875 226.050781 88.945313 231.511719 108.484375 228.308594 C 128.8125 224.976563 125.714844 244.195313 106.652344 236.308594 C 95.808594 231.820313 77.269531 232.070313 66.984375 233.476563 C 59.652344 234.476563 47.320313 239.808594 39.820313 243.476563 C 32.320313 247.140625 34.984375 250.808594 40.652344 247.140625 C 50.398438 240.835938 73.40625 237.003906 87.820313 241.808594 C 99.152344 245.585938 117.039063 252.476563 129.484375 247.140625 C 174.722656 227.753906 164.804688 287.195313 123.484375 263.308594 C 112.816406 257.140625 97.984375 259.640625 90.652344 263.640625 C 81.191406 268.800781 63.386719 269.761719 56.152344 266.140625 C 50.152344 263.140625 46.652344 264.308594 53.652344 268.976563 C 60.652344 273.640625 85.484375 276.308594 94.820313 272.808594 C 104.152344 269.308594 114.484375 271.640625 119.652344 275.140625 C 124.816406 278.640625 134.152344 285.308594 143.484375 284.640625 C 162.121094 283.3125 157.398438 299.71875 139.652344 301.808594 C 127.574219 303.230469 114.394531 295.886719 102.316406 290.976563 C 89.179688 285.628906 75.457031 287.484375 61.320313 293.140625 C 46.675781 299 33.628906 297.839844 24.652344 295.308594 C 18.152344 293.476563 16.320313 295.808594 22.484375 298.140625 C 31.300781 301.476563 53.003906 304.195313 68.484375 300.640625 C 105.234375 292.207031 99.789063 319.355469 63.652344 307.308594 C 49.742188 302.671875 20.003906 308 4.984375 316.308594 C -2.847656 320.640625 1.652344 322.308594 6.152344 319.640625 C 23.769531 309.203125 46.644531 310.859375 70.484375 317.976563 C 91.933594 324.378906 97.648438 317.238281 120.816406 315.308594 C 137.945313 313.882813 135.246094 324.570313 128.316406 330.308594 C 116.753906 339.890625 128.210938 345.640625 150.316406 345.640625 C 158.152344 345.640625 298.152344 344.140625 311.652344 345.640625 C 337.386719 348.5 324.800781 371.394531 298.316406 357.476563 C 281.894531 348.84375 267.855469 352.441406 255.484375 359.476563 C 243.390625 366.351563 223.410156 363.820313 213.484375 359.640625 C 207.152344 356.976563 206.316406 358.976563 211.984375 362.140625 C 222.183594 367.839844 242.617188 370.21875 257.816406 367.476563 C 294.300781 360.886719 298.890625 381.171875 250.484375 372.476563 C 229.152344 368.640625 208.816406 376.140625 202.816406 379.976563 C 196.816406 383.808594 199.316406 384.976563 204.816406 382.640625 C 221.195313 375.695313 233.773438 374.421875 259.152344 383.476563 C 274.054688 388.792969 289.1875 386.414063 299.316406 379.808594 C 323.5625 363.996094 336.96875 385.144531 311.152344 395.808594 C 303.484375 398.976563 286.652344 399.640625 276.316406 394.476563 C 265.984375 389.308594 251.152344 388.808594 241.484375 393.140625 C 226.789063 399.730469 213.289063 399.164063 204.484375 396.476563 C 198.484375 394.640625 195.816406 396.308594 202.816406 398.808594 C 213.550781 402.640625 231.808594 404.753906 246.984375 400.808594 C 273.941406 393.800781 272.140625 417.039063 241.484375 409.476563 C 221.597656 404.566406 201.59375 408.714844 186.652344 415.476563 C 179.652344 418.640625 181.152344 420.976563 188.652344 418.140625 C 213.179688 408.875 222.902344 415.351563 257.484375 420.476563 C 275.484375 423.140625 298.652344 412.140625 312.816406 408.976563 C 326.984375 405.808594 330.652344 414.140625 315.984375 424.140625 C 301.316406 434.140625 315.984375 440.140625 323.984375 440.140625 C 331.984375 440.140625 454.984375 440.523438 462.984375 439.859375 C 475.347656 438.828125 469.621094 431.171875 463.316406 428.808594 Z M 468.78125 435.953125 C 468.648438 436.890625 467.027344 438.015625 462.859375 438.363281 C 456.035156 438.933594 363.691406 438.726563 333.34375 438.660156 L 323.984375 438.640625 C 318.945313 438.640625 312.328125 436.195313 311.355469 433.042969 C 310.53125 430.359375 313.878906 427.394531 316.828125 425.382813 C 324.6875 420.023438 328.1875 414.640625 326.441406 410.605469 C 324.902344 407.058594 319.6875 405.902344 312.492188 407.511719 C 308.304688 408.445313 303.332031 410.058594 298.066406 411.769531 C 285.617188 415.804688 270.125 420.832031 257.703125 418.992188 C 249.160156 417.726563 242.183594 416.386719 236.023438 415.203125 C 217.285156 411.601563 206.964844 409.621094 188.121094 416.738281 C 187.328125 417.035156 186.644531 417.261719 186.054688 417.433594 C 186.414063 417.246094 186.808594 417.050781 187.269531 416.839844 C 197.527344 412.203125 218.160156 405.265625 241.125 410.929688 C 255.675781 414.523438 263.855469 411.390625 266.4375 407.617188 C 267.730469 405.722656 267.753906 403.523438 266.492188 401.726563 C 264.324219 398.644531 257.964844 396.402344 246.605469 399.355469 C 234.152344 402.59375 219.710938 401.644531 209.253906 399.128906 C 216.464844 400.371094 228.28125 400.703125 242.097656 394.511719 C 251.398438 390.34375 265.820313 390.902344 275.648438 395.816406 C 286.695313 401.339844 304.105469 400.34375 311.722656 397.195313 C 320.660156 393.503906 326.230469 387.925781 326.628906 382.273438 C 326.855469 378.976563 325.289063 376.085938 322.320313 374.34375 C 316.601563 370.980469 307.695313 372.554688 298.5 378.550781 C 287.882813 385.476563 272.996094 386.820313 259.65625 382.0625 C 233.335938 372.671875 220.34375 374.425781 204.230469 381.261719 C 203.675781 381.496094 203.183594 381.679688 202.746094 381.828125 C 203.007813 381.644531 203.292969 381.453125 203.625 381.238281 C 209.617188 377.410156 229.671875 370.257813 250.21875 373.953125 C 269.59375 377.433594 284.015625 376.796875 286.960938 372.328125 C 287.679688 371.230469 287.671875 369.964844 286.9375 368.847656 C 284.546875 365.226563 273.6875 363.085938 257.550781 366 C 243.160156 368.597656 223.796875 366.492188 213.625 361.316406 C 223.8125 365.335938 243.78125 367.855469 256.226563 360.777344 C 271.023438 352.363281 284.175781 351.738281 297.621094 358.800781 C 310.441406 365.542969 319.96875 363.84375 324.230469 360.34375 C 326.753906 358.273438 327.769531 355.390625 326.949219 352.628906 C 325.625 348.164063 320.109375 345.074219 311.816406 344.152344 C 300.496094 342.894531 201.480469 343.722656 164.210938 344.035156 L 150.316406 344.140625 C 133.535156 344.140625 126.402344 340.863281 125.390625 338.058594 C 124.613281 335.910156 127.074219 333.285156 129.273438 331.464844 C 133.117188 328.28125 136.453125 322.902344 134.703125 318.609375 C 133.628906 315.980469 130.324219 313.011719 120.695313 313.8125 C 112.554688 314.492188 106.574219 315.796875 101.296875 316.949219 C 91.574219 319.074219 84.550781 320.609375 70.914063 316.535156 C 43.441406 308.335938 22.265625 308.769531 6.222656 317.867188 C 3.761719 319.261719 3.5625 318.523438 5.882813 317.269531 C 20.242188 309.492188 49.375 304.128906 63.175781 308.730469 C 79.503906 314.175781 90.371094 312.050781 93.898438 307.535156 C 95.261719 305.789063 95.40625 303.6875 94.277344 301.921875 C 91.933594 298.234375 83.835938 295.578125 68.148438 299.179688 C 54.171875 302.386719 34.238281 300.527344 24.578125 297.523438 C 22.464844 296.867188 23.308594 296.511719 25.066406 296.976563 C 33.679688 299.265625 46.816406 300.558594 61.875 294.535156 C 77.214844 288.398438 90.257813 287.6875 101.753906 292.363281 C 104.035156 293.292969 106.308594 294.285156 108.71875 295.339844 C 119.007813 299.84375 129.644531 304.496094 139.828125 303.296875 C 151.011719 301.980469 157.382813 295.3125 156.871094 289.890625 C 156.519531 286.1875 152.792969 282.472656 143.378906 283.144531 C 134.96875 283.746094 126.34375 277.878906 121.191406 274.375 L 120.492188 273.898438 C 114.675781 269.960938 103.808594 267.835938 94.292969 271.402344 C 85.246094 274.796875 60.792969 271.933594 54.484375 267.726563 C 53.625 267.152344 54.28125 266.882813 55.480469 267.484375 C 63.40625 271.445313 81.855469 270.148438 91.371094 264.960938 C 98.199219 261.230469 112.449219 258.660156 122.734375 264.605469 C 139.078125 274.058594 150.941406 270.78125 156.597656 264.566406 C 161.226563 259.480469 162.035156 252.203125 158.519531 247.265625 C 156.191406 243.996094 148.640625 237.300781 128.894531 245.761719 C 117.957031 250.449219 102.429688 245.179688 91.089844 241.328125 L 88.292969 240.386719 C 74.285156 235.71875 52.964844 239.144531 41.753906 244.828125 C 38.542969 246.457031 38.578125 245.734375 41.480469 244.335938 C 49.886719 240.289063 60.757813 235.839844 67.1875 234.960938 C 76.949219 233.628906 95.359375 233.257813 106.078125 237.695313 C 114.546875 241.199219 120.09375 239.628906 122.457031 236.992188 C 124.046875 235.21875 124.339844 232.855469 123.226563 230.820313 C 121.195313 227.113281 115.597656 225.621094 108.242188 226.828125 C 89.769531 229.855469 67.09375 225.1875 54.363281 218.820313 C 53.386719 218.332031 53.65625 217.988281 54.648438 218.484375 C 64.308594 223.316406 89.425781 226.664063 104.320313 221.390625 C 111.933594 218.691406 121.410156 215.335938 132.394531 220.019531 C 150.261719 227.640625 157.699219 220.148438 159.550781 217.671875 C 162.664063 213.511719 162.632813 207.921875 159.46875 204.082031 C 157.726563 201.96875 150.789063 195.671875 134.664063 203.457031 C 123.910156 208.648438 119.113281 206.789063 110.402344 203.414063 L 109.523438 203.074219 C 99.234375 199.101563 85.285156 196.746094 72.78125 197.277344 C 64.800781 197.613281 62.003906 198.769531 55.90625 201.074219 C 51.117188 202.882813 50.566406 202.625 55.519531 200.285156 C 61.386719 197.875 68.351563 196.339844 72.78125 195.578125 C 83.875 193.667969 95.066406 194.058594 103.480469 197.054688 C 117.132813 201.914063 126.660156 200.238281 129.738281 196.628906 C 131.007813 195.136719 131.226563 193.34375 130.335938 191.71875 C 128.488281 188.351563 121.332031 185.472656 106.777344 187.488281 C 89.105469 189.9375 70.332031 185.5 60.921875 179.855469 C 59.542969 179.027344 59.730469 178.671875 61.070313 179.441406 C 68.824219 183.90625 94.417969 185.957031 111.3125 180.058594 C 121.9375 176.347656 139.820313 175.363281 152.039063 180.84375 C 165.171875 186.734375 174.882813 184.25 179.589844 179.960938 C 182.753906 177.078125 183.976563 173.121094 182.785156 169.625 C 181.226563 165.058594 176.058594 162.089844 168.605469 161.480469 C 159.71875 160.753906 151.445313 157.878906 146.070313 155.59375 C 140.429688 153.195313 132.785156 154.933594 126.640625 156.328125 C 124.9375 156.714844 123.324219 157.078125 121.894531 157.332031 C 112.078125 159.046875 96.8125 156.503906 87.972656 151.914063 C 86.539063 151.167969 86.613281 150.945313 88.210938 151.507813 C 98.71875 155.207031 114.402344 156.128906 127.628906 149.828125 C 137.027344 145.355469 142.824219 143.914063 158.871094 148.90625 C 177.171875 154.601563 184.191406 146.171875 185.90625 143.453125 C 188.941406 138.640625 188.472656 132.695313 184.738281 128.664063 C 182.546875 126.300781 173.886719 119.378906 154.449219 129.648438 C 138.519531 138.066406 122.976563 134.871094 115.132813 132.222656 C 95.519531 125.589844 74.054688 126.308594 63.085938 130.363281 C 60.917969 131.160156 60.238281 131.007813 62.597656 129.886719 C 73.082031 124.914063 97.488281 121.257813 114.878906 126.574219 C 129.480469 131.042969 139.15625 128.824219 142.265625 124.648438 C 143.578125 122.886719 143.671875 120.796875 142.511719 119.058594 C 140.300781 115.738281 133.210938 113.371094 119.953125 116.6875 C 104.519531 120.546875 85.546875 116.300781 76.050781 111.390625 C 75.09375 110.894531 75.570313 110.796875 76.296875 111.097656 C 87.230469 115.59375 103.078125 117.496094 114.359375 111.464844 C 134.953125 100.449219 158.191406 110.226563 164.824219 113.488281 C 175.46875 118.722656 184.867188 113.613281 189.683594 107.648438 C 194.4375 101.753906 195.425781 94.691406 192.082031 90.46875 C 189.183594 86.808594 180.777344 82.378906 157.003906 93.789063 C 142.949219 100.535156 124.699219 98.746094 114.664063 93.636719 C 99.691406 86.015625 78.515625 82.878906 65.039063 86.222656 C 69.898438 84.175781 73.574219 83.953125 77.699219 83.394531 C 98.539063 80.574219 116.453125 86.765625 124.0625 90.019531 C 134.734375 94.585938 144.695313 90.34375 149.4375 84.476563 C 152.410156 80.792969 153.050781 76.800781 151.109375 74.054688 C 149.300781 71.503906 143.761719 68.109375 126.984375 74.0625 C 119.230469 76.8125 108.578125 76.441406 99.03125 74.964844 C 95.945313 74.488281 93.78125 73.941406 89.410156 72.898438 C 84.914063 71.828125 84.910156 71.648438 89.394531 72.53125 C 93.09375 73.257813 96.722656 73.863281 98.714844 73.890625 C 104.933594 73.984375 111.867188 72.96875 118.925781 69.847656 C 127.453125 66.074219 141.722656 59.757813 153.402344 64.691406 C 165.058594 69.613281 171.4375 69.59375 179.804688 67.773438 C 189.40625 65.6875 195.660156 60.625 196.535156 54.234375 C 197.121094 49.9375 194.96875 45.824219 191.046875 43.753906 C 184.574219 40.332031 175.578125 42.929688 166.980469 50.695313 C 160.984375 56.109375 145.898438 55.71875 136.921875 51.769531 C 126.421875 47.148438 108.347656 43.253906 97.125 46.933594 C 103.242188 43.429688 118.101563 42.480469 129.804688 45.269531 C 149.789063 50.027344 160.445313 46.296875 163.753906 41.21875 C 165.382813 38.710938 165.296875 35.820313 163.523438 33.488281 C 161.023438 30.203125 154.378906 27.550781 143.863281 30.878906 C 126.273438 36.449219 104.171875 34.894531 96.328125 28.066406 C 102.015625 31.179688 112.78125 34.90625 127.277344 30.234375 C 130.441406 29.21875 133.371094 28.175781 136.210938 27.171875 C 149.578125 22.429688 159.238281 19.003906 171.261719 25.621094 C 183.234375 32.21875 193.777344 27.109375 198.914063 19.121094 L 200.351563 16.828125 C 203.660156 11.484375 205.171875 9.042969 213.390625 8.640625 C 219.222656 8.351563 238.902344 6.882813 257.933594 5.460938 L 292.082031 2.972656 L 294.257813 2.824219 C 308.582031 1.832031 318.042969 1.179688 325.910156 22.65625 C 330.222656 34.433594 346.175781 90.191406 361.605469 144.113281 C 377.527344 199.742188 392.5625 252.289063 395.925781 260.699219 C 402.480469 277.085938 404.425781 277.859375 414.976563 275.738281 L 415.613281 275.613281 C 430.964844 272.542969 441.777344 267.679688 447.757813 261.15625 C 450.117188 258.582031 452.332031 257.375 453.539063 258.003906 C 455.03125 258.78125 455.976563 262.601563 454.519531 269.148438 C 452.050781 280.265625 448.980469 316.703125 452.601563 325.386719 L 452.933594 326.179688 C 454.847656 330.746094 457.230469 336.429688 455.144531 339.5625 C 453.785156 341.605469 450.480469 342.640625 445.316406 342.640625 C 442.84375 342.640625 440.507813 342.574219 438.253906 342.507813 C 429.796875 342.265625 423.6875 342.085938 421.238281 345.863281 C 419.457031 348.605469 420.09375 352.800781 423.300781 359.460938 C 427.363281 367.902344 432.726563 380.296875 437.453125 391.230469 C 443.039063 404.144531 447.863281 415.296875 450.03125 418.914063 C 454.375 426.152344 457.351563 428.171875 462.789063 430.214844 C 466.421875 431.574219 468.992188 434.417969 468.78125 435.953125 "/>
</g>
</svg>
