<?xml version="1.0" encoding="UTF-8"?>
<svg xmlns="http://www.w3.org/2000/svg" xmlns:xlink="http://www.w3.org/1999/xlink" width="444pt" height="488pt" viewBox="0 0 444 488" version="1.1">
<g id="surface1">
<path style=" stroke:none;fill-rule:nonzero;fill:rgb(0%,0%,0%);fill-opacity:1;" d="M 283.707031 21.480469 C 250.875 43.574219 218.640625 95.222656 178.34375 152.054688 C 125.679688 154.542969 62.023438 159.214844 49.226563 161.695313 C 39.851563 163.511719 40.210938 171.050781 41.183594 191.410156 C 42.152344 211.769531 50.253906 216.871094 64.777344 224.328125 C 72.871094 228.484375 97.316406 230.359375 121.808594 231.835938 C 61.738281 316.648438 6.953125 394.199219 2.601563 401.03125 C -4.140625 411.621094 5.4375 439.386719 20.164063 459.730469 C 40.046875 487.203125 44.289063 497.78125 62.253906 473.457031 C 76.921875 453.589844 150.6875 342.300781 223.644531 235.773438 C 261.238281 234.261719 305.222656 230.902344 315.480469 230.390625 C 331.78125 229.578125 328.675781 229.875 326.847656 222.554688 C 325.015625 215.234375 321.296875 190.503906 317.070313 171.734375 C 314.429688 160.007813 300.984375 154.988281 281.226563 152.648438 C 289.179688 141.335938 330.371094 95.851563 346.148438 83.410156 C 393.726563 45.898438 363.777344 108.5625 353.78125 127.015625 C 343.785156 145.46875 355.851563 149.449219 369.425781 159.445313 C 382.996094 169.4375 388.335938 169.632813 392.363281 165.175781 C 396.390625 160.714844 403.863281 155.246094 434.058594 101.261719 C 478.640625 21.558594 361.390625 -30.78125 283.707031 21.480469 "/>
<path style=" stroke:none;fill-rule:nonzero;fill:rgb(0%,0%,0%);fill-opacity:1;" d="M 283.707031 21.480469 C 250.875 43.574219 218.640625 95.222656 178.34375 152.054688 C 125.679688 154.542969 62.023438 159.214844 49.226563 161.695313 C 39.851563 163.511719 40.210938 171.050781 41.183594 191.410156 C 42.152344 211.769531 50.253906 216.871094 64.777344 224.328125 C 72.871094 228.484375 97.316406 230.359375 121.808594 231.835938 C 61.738281 316.648438 6.953125 394.199219 2.601563 401.03125 C -4.140625 411.621094 5.4375 439.386719 20.164063 459.730469 C 40.046875 487.203125 44.289063 497.78125 62.253906 473.457031 C 76.921875 453.589844 150.6875 342.300781 223.644531 235.773438 C 261.238281 234.261719 305.222656 230.902344 315.480469 230.390625 C 331.78125 229.578125 328.675781 229.875 326.847656 222.554688 C 325.015625 215.234375 321.296875 190.503906 317.070313 171.734375 C 314.429688 160.007813 300.984375 154.988281 281.226563 152.648438 C 289.179688 141.335938 330.371094 95.851563 346.148438 83.410156 C 393.726563 45.898438 363.777344 108.5625 353.78125 127.015625 C 343.785156 145.46875 355.851563 149.449219 369.425781 159.445313 C 382.996094 169.4375 388.335938 169.632813 392.363281 165.175781 C 396.390625 160.714844 403.863281 155.246094 434.058594 101.261719 C 478.640625 21.558594 361.390625 -30.78125 283.707031 21.480469 "/>
</g>
</svg>
