<?xml version="1.0" encoding="UTF-8"?>
<svg xmlns="http://www.w3.org/2000/svg" xmlns:xlink="http://www.w3.org/1999/xlink" width="471pt" height="519pt" viewBox="0 0 471 519" version="1.1">
<g id="surface1">
<path style=" stroke:none;fill-rule:nonzero;fill:rgb(0%,0%,0%);fill-opacity:1;" d="M 277.84375 206.277344 C 275.988281 207.730469 276.605469 209.816406 279.289063 207.738281 C 290.425781 201.066406 297.851563 188.5625 308.367188 180.640625 C 345.496094 133.53125 386.332031 85.796875 433.769531 44.941406 C 442.433594 26.183594 466.5625 22.640625 470.894531 1.378906 C 470.6875 1.171875 470.277344 0.753906 470.277344 0.546875 C 461.40625 3.878906 453.980469 11.59375 443.464844 7.421875 C 390.664063 15.136719 345.699219 42.023438 301.5625 71.207031 C 278.875 86.839844 260.3125 111.644531 239.273438 128.945313 C 224.21875 138.328125 210.8125 156.253906 196.167969 168.757813 C 194.726563 168.550781 193.691406 166.46875 191.835938 167.300781 C 181.9375 174.179688 176.988281 181.683594 168.738281 190.4375 C 148.113281 206.90625 139.863281 232.335938 124.1875 252.761719 C 122.949219 252.761719 121.710938 252.761719 120.472656 252.761719 C 106.242188 267.144531 96.960938 284.445313 85.617188 301.539063 C 62.722656 327.804688 45.191406 357.609375 32.199219 388.667969 C 31.375 390.753906 34.878906 391.378906 33.644531 393.878906 C 33.4375 398.464844 28.28125 394.089844 26.835938 397.632813 C 20.855469 412.429688 15.492188 427.648438 11.367188 443.28125 C 11.78125 443.90625 12.191406 444.324219 12.8125 444.949219 C 14.460938 445.367188 15.285156 443.90625 16.523438 443.28125 C 19.207031 447.660156 15.082031 452.871094 14.253906 457.664063 C 11.160156 455.996094 7.304688 459.640625 13.59375 459.332031 C 15.96875 460.777344 9.511719 463.082031 8.273438 465.792969 C 6.832031 464.542969 7.242188 460.582031 3.941406 462.039063 C -0.800781 466.628906 0.4375 474.757813 0.230469 481.636719 C 1.878906 482.886719 2.292969 488.304688 5.386719 485.386719 C 5.179688 482.46875 5.179688 477.050781 8.273438 477.882813 C 9.097656 480.800781 9.925781 483.300781 10.542969 486.21875 C 16.523438 496.851563 25.1875 504.5625 34.261719 513.945313 C 43.957031 521.65625 55.09375 518.945313 64.785156 513.109375 C 68.707031 514.570313 72.832031 516.238281 76.75 517.695313 C 85.824219 519.78125 91.1875 509.566406 99.023438 504.980469 C 103.5625 490.390625 117.585938 481.425781 130.167969 474.964844 C 132.230469 478.925781 138.007813 476.421875 140.480469 477.050781 C 170.800781 468.917969 188.125 435.777344 211.84375 418.683594 C 211.636719 418.476563 211.226563 418.058594 211.019531 417.851563 C 213.453125 413.648438 215.515625 410.445313 220.257813 410.863281 C 221.144531 412.007813 225.210938 409.832031 222.011719 408.078125 C 225.929688 405.5 228.964844 402.007813 232.675781 402.007813 C 223.394531 420.144531 206.894531 435.152344 197.613281 453.078125 C 200.707031 453.496094 199.882813 456.621094 199.261719 458.289063 C 200.707031 458.289063 202.5625 458.289063 203.59375 459.121094 C 206.070313 444.324219 222.15625 441.40625 231.023438 431.398438 C 266.5 388.253906 301.5625 351.148438 334.355469 306.75 C 338.480469 304.664063 345.289063 304.664063 350.652344 303.832031 C 352.300781 302.582031 357.871094 299.660156 353.539063 296.953125 C 363.851563 290.492188 377.464844 291.53125 388.601563 287.363281 C 389.425781 285.695313 395.820313 284.65625 391.488281 282.777344 C 406.957031 273.816406 422.425781 281.109375 438.925781 279.027344 C 444.761719 275.871094 454.972656 279.996094 458.375 278.242188 C 457.859375 276.078125 453.15625 276.109375 450.0625 275.273438 C 377.671875 268.394531 301.355469 269.4375 228.964844 271.523438 C 215.96875 275.484375 202.355469 277.777344 189.566406 281.945313 C 178.429688 275.691406 182.554688 291.949219 172.449219 290.28125 C 168.941406 291.757813 171.417969 293.410156 175.335938 293.199219 C 180.699219 294.035156 174.101563 298.203125 178.429688 300.078125 C 190.804688 292.574219 184.410156 314.253906 196.167969 308.210938 C 200.707031 310.917969 210.398438 305.707031 211.019531 312.796875 C 208.957031 315.886719 213.082031 314.867188 215.554688 314.253906 C 240.71875 312.585938 269.800781 309.25 297.230469 303.832031 C 298.058594 304.664063 299.914063 302.996094 300.945313 305.289063 C 266.707031 334.472656 229.167969 363.863281 196.992188 394.503906 C 162.960938 417.015625 130.375 444.113281 93.660156 463.707031 C 87.886719 467.042969 85.617188 473.714844 78.8125 474.964844 C 70.5625 481.425781 61.484375 473.296875 57.359375 465.792969 C 58.394531 454.535156 49.523438 445.78125 50.761719 433.691406 C 50.96875 427.230469 52.207031 419.101563 58.1875 417.015625 C 64.582031 399.507813 74.273438 383.25 84.175781 366.78125 C 122.949219 316.339844 151 261.515625 192.457031 212.324219 C 242.367188 141.660156 313.730469 94.554688 381.175781 52.445313 C 385.714844 51.613281 390.457031 46.402344 395.199219 50.152344 C 375.605469 73.082031 354.363281 94.34375 335.800781 116.855469 C 331.882813 120.988281 339.308594 116.660156 337.242188 118.523438 C 333.945313 124.359375 324.25 128.945313 324.664063 135.617188 C 316.207031 143.328125 299.082031 150.539063 299.082031 159.890625 C 302.929688 162.640625 310.632813 163.1875 306.925781 168.757813 C 291.042969 175.636719 290.632813 195.023438 277.84375 206.277344 "/>
</g>
</svg>
