<?xml version="1.0" encoding="UTF-8"?>
<svg xmlns="http://www.w3.org/2000/svg" xmlns:xlink="http://www.w3.org/1999/xlink" width="390pt" height="485pt" viewBox="0 0 390 485" version="1.1">
<g id="surface1">
<path style=" stroke:none;fill-rule:nonzero;fill:rgb(0%,0%,0%);fill-opacity:1;" d="M 384.925781 81.871094 C 371.902344 88.539063 357.125 86.859375 346.765625 83.464844 C 327.085938 77.019531 317.699219 71.882813 297.960938 76.351563 C 286.882813 78.855469 283.105469 82.265625 272.59375 80.980469 C 251.53125 78.410156 262.476563 59.460938 279.726563 64.285156 C 296.003906 68.839844 302.238281 67.921875 313.054688 60.25 C 322.710938 53.402344 322.1875 49.527344 340.609375 55.144531 C 353.21875 58.988281 360.230469 58.707031 371.492188 52.769531 C 378.992188 48.8125 378.457031 47.097656 370.4375 49.71875 C 356.847656 54.160156 350.25 52.074219 341.144531 46.574219 C 327.601563 38.394531 321.761719 39.441406 308.960938 47.003906 C 293.050781 56.398438 267.214844 57.535156 288.121094 29.371094 C 292.648438 23.277344 298.355469 17.800781 302.007813 10.921875 C 305.582031 2.1875 299.65625 -3.757813 285.917969 3.128906 C 268.808594 11.707031 115.960938 91.195313 107.507813 98.234375 C 90.570313 111.96875 99.113281 115.976563 114.394531 113.128906 C 123.238281 111.480469 133.691406 115.027344 134.726563 128.222656 C 129.078125 177.898438 80.207031 385.941406 30.832031 441.734375 C 24.730469 448.625 17.65625 454.734375 10.5625 460.734375 C -1.03125 470.535156 -4.582031 483.910156 13.023438 484.328125 C 22.898438 484.5625 106.542969 482.785156 137.015625 480.253906 C 143.878906 477.726563 150.984375 474.835938 158.089844 473.390625 C 168.695313 470.578125 183.863281 486.757813 200.605469 482.300781 C 216.542969 477.417969 237.425781 476.574219 251.964844 484.34375 C 256.308594 486.664063 258.144531 483.925781 254.058594 480.464844 C 245.027344 472.699219 226.910156 468.195313 215.980469 468.035156 C 204.117188 467.863281 191.761719 469.277344 180.972656 465.5625 C 162.824219 457.671875 166.609375 440.691406 183.070313 444.664063 C 190.800781 446.53125 196.910156 452.074219 202.652344 457.132813 C 216.285156 467.824219 239.484375 463.453125 259.636719 463.4375 C 269.660156 463.425781 281.046875 464.390625 288.265625 468.996094 C 292.4375 471.65625 294.617188 469.433594 289.132813 466.066406 C 275.023438 458.246094 254.578125 451.054688 236.734375 453.398438 C 229.460938 454.335938 223.652344 455.164063 218.949219 452.867188 C 209.003906 448 215.925781 440.457031 226.121094 442.671875 C 235.746094 444.765625 244.527344 447.796875 253.871094 449.707031 C 276.203125 454.265625 291.148438 451.578125 304.480469 446.21875 C 308.972656 444.414063 308.917969 442.300781 304.234375 443.324219 C 290.886719 446.234375 290.070313 447.148438 272.933594 445.355469 C 259.492188 443.949219 247.238281 440.480469 236.132813 434.609375 C 218.308594 425.335938 195.90625 436.054688 176.878906 428.828125 C 159.546875 421.25 170.007813 407.203125 184.359375 408.03125 C 211.140625 409.574219 214.085938 424.957031 233.5625 429.542969 C 250.804688 433.609375 280.273438 418.15625 303.023438 429.378906 C 308.90625 432.277344 310.90625 430.6875 305.203125 427.199219 C 294.027344 420.363281 286.175781 417.785156 269.25 417.199219 C 257.695313 416.800781 244.714844 422.394531 234.445313 417.269531 C 225.550781 412.078125 230.21875 402.035156 242.515625 405.707031 C 272.738281 413.457031 291.648438 415.363281 314.535156 404.503906 C 318.949219 402.410156 318.65625 399.902344 314.042969 401.863281 C 301.800781 407.066406 283.058594 407.457031 264.78125 401.957031 C 255.308594 399.101563 247.765625 393.320313 237.816406 391.253906 C 222.28125 388.484375 207.347656 400.769531 192.773438 391.855469 C 172.785156 379.574219 183.503906 357.128906 202.652344 366.445313 C 217.578125 374.460938 228.390625 388.359375 254.679688 382.582031 C 268.328125 378.699219 284.226563 379.824219 296.625 385.207031 C 301.628906 387.378906 303.542969 385.230469 297.980469 382.128906 C 288.1875 376.925781 282.371094 375.171875 269.101563 373.804688 C 257.425781 372.601563 244.101563 373.90625 233.503906 369.386719 C 213.796875 360.980469 220.402344 345.457031 239.195313 354.835938 C 248.058594 359.257813 255.144531 368.816406 267.324219 366.082031 C 290.636719 360.296875 316.050781 364.695313 323.976563 370.238281 C 328.230469 373.132813 331.144531 370.808594 325.402344 366.804688 C 311.871094 358.144531 303.070313 357.035156 287.964844 355.371094 C 280.769531 354.582031 272.941406 355.308594 265.933594 354.402344 C 240.363281 351.09375 245.914063 337.3125 270.160156 344 C 281.382813 347.09375 292.625 351.007813 304.964844 351.394531 C 317.039063 351.773438 328.300781 349.25 339.953125 342.675781 C 345.851563 339.347656 345.445313 336.855469 338.96875 339.402344 C 315.554688 348.597656 306.074219 346.191406 288.371094 340.058594 C 273.113281 334.773438 266.761719 330.058594 256.5 330.722656 C 233.984375 332.175781 225.914063 340.410156 205.234375 333.226563 C 180.289063 324.566406 196.480469 303.882813 219.839844 308.34375 C 235.824219 311.398438 247.027344 325.503906 265.035156 323.085938 C 301.652344 316.398438 302.613281 313.542969 332.695313 323.621094 C 338.5625 325.589844 339.542969 324.496094 334.089844 321.351563 C 313.703125 309.597656 290.566406 308.894531 277.921875 310.585938 C 271.894531 311.390625 265.859375 312.820313 260.023438 312.296875 C 238.929688 310.40625 240.804688 294.617188 264.828125 300.410156 C 273.394531 302.476563 300.308594 309.3125 320.050781 297.847656 C 324.210938 295.429688 323.730469 294.144531 318.339844 295.988281 C 303.6875 300.992188 279.457031 300.558594 256.605469 289.847656 C 247.210938 284.789063 234.203125 288.039063 225.414063 291.292969 C 205.863281 296.105469 192.246094 265.519531 224.484375 269.589844 C 244.277344 272.089844 243.574219 278.066406 261.523438 273.390625 C 269.617188 271.277344 287.269531 266.765625 300.835938 276.613281 C 305.109375 280.097656 307.488281 277.964844 302.507813 274.019531 C 291.132813 265.632813 274.457031 261.398438 259.253906 264.917969 C 245.722656 267.683594 239.144531 259.136719 228.90625 256.847656 C 225.03125 256.179688 220.785156 256.882813 217.113281 256.410156 C 198.695313 254.023438 205.601563 238.542969 221.710938 240 C 230.726563 240.8125 239.09375 243.480469 246.8125 247.109375 C 264.679688 255.515625 275.882813 260.644531 293.710938 257.335938 C 315.847656 253.230469 328.9375 250.367188 343.011719 259.289063 C 347.578125 262.1875 349.453125 260.222656 345.027344 256.65625 C 335.257813 248.777344 315.78125 247.550781 301.265625 247.152344 C 293.890625 246.949219 286.460938 246.738281 279.597656 245.621094 C 269.554688 243.988281 271.179688 233.8125 281.664063 234.382813 C 289.742188 234.820313 297.378906 237.820313 305.183594 239.210938 C 318.019531 241.492188 334.910156 239.960938 349.066406 231.804688 C 355.925781 227.851563 353.886719 224.886719 347.289063 227.824219 C 335.355469 232.785156 330.300781 236.277344 308.648438 230.945313 C 294.605469 227.484375 281.765625 218.097656 266.238281 222.765625 C 252.1875 227.316406 241.488281 226.671875 231.183594 222.832031 C 211.625 215.546875 222.070313 200.433594 242.65625 203.636719 C 269.667969 206.984375 268.679688 213.492188 294.679688 206.378906 C 307.128906 202.96875 315.84375 202.046875 323.675781 204.15625 C 328.859375 205.550781 330.019531 203.976563 324.679688 201.898438 C 313.648438 197.609375 302.414063 195.597656 286.113281 199.402344 C 266.441406 201.402344 263.320313 191.144531 241.707031 188.578125 C 228.84375 187.050781 229.621094 171.433594 244.804688 172.421875 C 255.328125 173.171875 262.871094 178.15625 270.539063 182.445313 C 280.1875 187.847656 285.226563 189.777344 303.304688 185.964844 C 314.042969 183.699219 331.300781 181.554688 347.417969 190.417969 C 352.824219 193.859375 354.128906 191.578125 348.632813 188.140625 C 330.320313 176.6875 321.222656 174.066406 302 174.546875 C 297.765625 174.652344 293.484375 174.921875 289.234375 174.816406 C 274.460938 174.460938 276.050781 163.773438 289.601563 165.09375 C 301.890625 166.289063 312.550781 171.597656 324.53125 171.941406 C 335.703125 172.117188 346.566406 170.261719 355.339844 165.53125 C 360.851563 162.5625 359.402344 160.953125 353.332031 163.21875 C 337.871094 168.984375 329.246094 168.335938 313.261719 162.703125 C 293.984375 155.910156 289.246094 148.242188 269.207031 152.003906 C 257.242188 154.246094 254.773438 155.527344 247.441406 153.328125 C 231.976563 148.695313 237.179688 129.148438 254.851563 130.703125 C 272.40625 132.246094 269.066406 138.941406 286.484375 136.726563 C 304.738281 134.410156 322.054688 123.960938 339.234375 132.746094 C 344.53125 135.453125 347.035156 133.519531 342.316406 130.835938 C 327.808594 123.121094 311.746094 120.757813 296.640625 124.160156 C 286.59375 126.421875 279.441406 125.851563 268.890625 121.730469 C 253.058594 115.542969 260.621094 97.238281 279.949219 101.570313 C 289.417969 103.691406 292.367188 106.503906 299.339844 110.050781 C 310.179688 115.5625 320.988281 112.359375 332.140625 108.738281 C 350.617188 102.734375 370.910156 103.949219 380.992188 109.171875 C 384.820313 111.152344 386.566406 108.808594 382.675781 106.730469 C 370.996094 100.488281 354.785156 95.535156 331.390625 98.789063 C 320.433594 100.3125 316.148438 101.25 310.539063 99.636719 C 294.167969 94.929688 300.691406 85.21875 316.066406 85.960938 C 321.300781 86.214844 326.335938 86.976563 331.433594 87.988281 C 349.683594 91.601563 365.34375 96.207031 387.046875 84.265625 C 391.078125 82.046875 389.222656 79.671875 384.925781 81.871094 Z M 336.035156 87.222656 L 331.757813 86.355469 C 325.824219 85.179688 320.863281 84.527344 316.148438 84.300781 C 307.058594 83.859375 300.167969 86.855469 299.382813 91.585938 C 299.070313 93.472656 299.488281 98.191406 310.078125 101.238281 C 315.371094 102.757813 319.59375 102.152344 328.011719 100.949219 L 331.621094 100.4375 C 348.433594 98.101563 367.816406 100.535156 376.542969 105.613281 C 365.648438 102.199219 348.433594 101.695313 331.628906 107.152344 C 321.8125 110.339844 310.683594 113.953125 300.09375 108.566406 C 298.3125 107.660156 296.804688 106.804688 295.347656 105.980469 C 291.167969 103.613281 287.558594 101.566406 280.3125 99.945313 C 268.90625 97.390625 261.019531 102.335938 259.125 108.539063 C 257.609375 113.503906 259.851563 119.984375 268.285156 123.28125 C 279.039063 127.480469 286.554688 128.136719 297.007813 125.78125 C 309.265625 123.023438 327.636719 124.871094 334.589844 129.101563 C 323.824219 125.84375 312.988281 128.714844 302.457031 131.519531 C 297.175781 132.929688 291.710938 134.386719 286.277344 135.078125 C 277.078125 136.246094 274.058594 134.84375 270.238281 133.070313 C 266.890625 131.519531 263.09375 129.757813 254.996094 129.046875 C 244.195313 128.097656 238.007813 134.28125 236.828125 140.433594 C 235.792969 145.824219 238.527344 152.394531 246.964844 154.925781 C 253.40625 156.855469 256.519531 156.230469 264.035156 154.714844 L 269.515625 153.636719 C 283.160156 151.078125 289.308594 153.960938 298.617188 158.328125 C 302.539063 160.171875 306.988281 162.257813 312.707031 164.273438 C 326.941406 169.289063 335.832031 170.742188 350.175781 166.074219 C 343.628906 169.804688 334.25 170.429688 324.558594 170.277344 C 318.316406 170.097656 312.46875 168.53125 306.277344 166.871094 C 301.011719 165.460938 295.566406 164.003906 289.765625 163.4375 C 284.230469 162.898438 279.816406 164.207031 277.960938 166.941406 C 276.960938 168.417969 276.84375 170.160156 277.648438 171.722656 C 279.128906 174.605469 283.339844 176.339844 289.191406 176.484375 C 292.199219 176.554688 295.238281 176.445313 298.179688 176.335938 L 302.039063 176.210938 C 318.742188 175.796875 327.699219 177.820313 341.976563 186.074219 C 330.789063 181.730469 317.972656 181.167969 302.960938 184.335938 C 285.054688 188.113281 280.59375 186.164063 271.351563 180.992188 L 268.742188 179.511719 C 261.800781 175.550781 254.625 171.453125 244.921875 170.761719 C 236.003906 170.179688 231.488281 174.9375 231.058594 179.605469 C 230.632813 184.21875 234.089844 189.351563 241.511719 190.230469 C 250.949219 191.351563 256.617188 193.914063 262.101563 196.390625 C 268.726563 199.378906 274.984375 202.207031 286.28125 201.058594 L 286.386719 201.046875 L 286.488281 201.023438 C 300.53125 197.746094 310.453125 199.011719 318.707031 201.5625 C 312.210938 200.898438 304.667969 201.917969 294.242188 204.769531 C 277.296875 209.40625 272.121094 208.121094 262.726563 205.789063 C 257.917969 204.597656 251.933594 203.109375 242.859375 201.984375 C 229.667969 199.929688 220.902344 205.019531 219.378906 210.855469 C 217.984375 216.195313 222.179688 221.253906 230.605469 224.394531 C 242.191406 228.707031 253.339844 228.695313 266.753906 224.347656 C 277.082031 221.246094 286.144531 224.703125 295.738281 228.363281 C 299.785156 229.910156 303.972656 231.507813 308.25 232.5625 C 317.71875 234.894531 324.121094 235.574219 329.296875 235.191406 C 335.25 234.753906 347.089844 229.308594 351.015625 228.367188 C 349.320313 230.144531 339.78125 234.53125 335.144531 235.882813 C 325.625 238.648438 315.207031 239.300781 305.472656 237.570313 C 302.554688 237.050781 299.574219 236.277344 296.691406 235.53125 C 291.882813 234.289063 286.910156 233 281.753906 232.71875 C 275.058594 232.355469 271.609375 235.855469 271.242188 239.261719 C 270.886719 242.53125 273.25 246.277344 279.332031 247.265625 C 286.351563 248.40625 293.910156 248.613281 301.21875 248.816406 C 308.035156 249.003906 315.542969 249.394531 322.5625 250.429688 C 331.050781 251.6875 338.644531 252.875 343.820313 257.835938 C 337.417969 254.402344 330.046875 251.757813 322.429688 251.734375 C 314.816406 251.714844 306.3125 253.296875 295.714844 255.269531 L 293.40625 255.699219 C 275.890625 258.949219 264.605469 253.640625 247.519531 245.601563 C 238.769531 241.484375 230.375 239.109375 221.859375 238.339844 C 211.882813 237.4375 205.074219 242.621094 204.492188 247.9375 C 204.046875 251.996094 207.070313 256.789063 216.898438 258.058594 C 218.714844 258.296875 220.636719 258.261719 222.496094 258.230469 C 224.558594 258.191406 226.6875 258.15625 228.621094 258.488281 C 231.960938 259.238281 234.949219 260.742188 238.109375 262.332031 C 244.089844 265.339844 250.273438 268.453125 259.589844 266.550781 C 266.230469 265.011719 273.457031 265.003906 280.460938 266.351563 C 286.269531 267.46875 292.199219 268.402344 296.960938 272.394531 C 291.613281 269.824219 285.953125 268.914063 280.636719 268.863281 C 272.59375 268.785156 265.332031 270.675781 261.101563 271.777344 C 250.351563 274.578125 246.710938 273.433594 240.675781 271.535156 C 236.929688 270.359375 232.269531 268.894531 224.691406 267.9375 C 211.101563 266.222656 206.34375 270.65625 204.71875 273.453125 C 202.621094 277.058594 203.265625 281.898438 206.398438 286.082031 C 209.785156 290.601563 216.898438 295.105469 225.8125 292.910156 L 225.902344 292.886719 L 225.992188 292.855469 C 234.828125 289.585938 247.179688 286.664063 255.816406 291.3125 C 278.292969 301.851563 300.078125 302.175781 313.976563 298.949219 C 295.871094 306.203125 273.550781 300.808594 265.742188 298.917969 L 265.21875 298.792969 C 255.683594 296.492188 248.148438 297.253906 245.070313 300.828125 C 243.71875 302.398438 243.386719 304.394531 244.164063 306.3125 C 245.808594 310.363281 251.679688 313.222656 259.875 313.953125 C 264.488281 314.367188 269.203125 313.621094 273.761719 312.894531 C 275.199219 312.667969 276.6875 312.429688 278.144531 312.234375 C 291.691406 310.425781 311.949219 311.863281 329.765625 320.90625 C 306.5625 313.371094 301.03125 314.441406 278.460938 318.839844 L 264.738281 321.449219 C 254.59375 322.808594 246.71875 318.601563 238.378906 314.148438 C 232.707031 311.117188 226.84375 307.984375 220.152344 306.707031 C 205.578125 303.921875 193.511719 310.558594 191.382813 318.503906 C 189.59375 325.195313 194.566406 331.285156 204.6875 334.800781 C 218.492188 339.59375 227.148438 337.675781 237.175781 335.457031 C 242.605469 334.253906 248.761719 332.890625 256.609375 332.382813 C 263.359375 331.949219 268.347656 333.980469 275.902344 337.058594 C 279.289063 338.441406 283.128906 340.003906 287.824219 341.632813 C 303.355469 347.011719 312.710938 349.660156 330.566406 344.140625 C 333.347656 343.28125 336.332031 342.226563 339.578125 340.949219 C 339.601563 340.941406 339.617188 340.9375 339.640625 340.925781 C 336.628906 343.433594 328.25 346.246094 326.914063 346.6875 C 319.929688 348.992188 312.765625 349.972656 305.019531 349.730469 C 295.039063 349.417969 285.621094 346.703125 276.511719 344.074219 L 270.605469 342.394531 C 260.472656 339.601563 251.886719 340.003906 248.730469 343.417969 C 247.566406 344.679688 247.226563 346.300781 247.796875 347.867188 C 249.214844 351.78125 255.746094 354.765625 265.722656 356.054688 C 269.453125 356.535156 273.429688 356.566406 277.273438 356.597656 C 280.777344 356.628906 284.398438 356.65625 287.78125 357.027344 C 298.828125 358.242188 306.539063 359.09375 315.539063 363.234375 C 317.425781 364.105469 324.253906 366.855469 326.136719 369.542969 C 325.785156 369.390625 319.164063 365.839844 314.746094 364.648438 C 302.765625 361.414063 284.191406 360.179688 266.921875 364.46875 C 258.992188 366.246094 253.414063 362.308594 247.503906 358.136719 C 245.089844 356.433594 242.59375 354.671875 239.9375 353.347656 C 232.820313 349.792969 226.5625 349.257813 222.769531 351.878906 C 220.707031 353.304688 219.667969 355.566406 219.925781 358.09375 C 220.40625 362.878906 225.238281 367.671875 232.847656 370.914063 C 240.527344 374.191406 249.46875 374.515625 258.113281 374.832031 C 261.890625 374.972656 265.453125 375.101563 268.929688 375.460938 C 277.222656 376.316406 282.476563 377.28125 287.777344 379.242188 C 289.976563 380.058594 292.179688 381.042969 294.613281 382.265625 C 295.445313 382.679688 295.402344 382.894531 294.433594 382.535156 C 292.183594 381.710938 289.847656 381.011719 287.449219 380.445313 C 276.652344 377.898438 264.640625 378.015625 254.222656 380.980469 C 234.59375 385.292969 224.191406 378.363281 213.179688 371.027344 C 210.0625 368.949219 206.84375 366.804688 203.4375 364.976563 C 193.046875 359.917969 185.222656 363.5 182.050781 369.277344 C 178.390625 375.945313 180.601563 386.332031 191.902344 393.273438 C 200.960938 398.8125 210.125 396.699219 218.988281 394.652344 C 225.070313 393.246094 231.359375 391.792969 237.527344 392.894531 C 242.832031 393.996094 247.410156 396.199219 252.257813 398.53125 C 256.058594 400.359375 259.988281 402.253906 264.300781 403.550781 C 279.175781 408.027344 294.886719 408.769531 307.246094 405.804688 C 302.695313 407.765625 298.800781 408.582031 294.601563 409.335938 C 279.539063 412.046875 264.175781 409.542969 242.929688 404.09375 C 235.3125 401.816406 230.289063 404.445313 228.722656 408.0625 C 227.378906 411.160156 228.367188 415.652344 233.605469 418.707031 C 240.75 422.277344 248.847656 421.097656 256.679688 419.960938 C 260.867188 419.355469 265.191406 418.726563 269.191406 418.863281 C 280.359375 419.25 287.453125 420.585938 293.804688 423.140625 C 296.257813 424.128906 298.671875 424.953125 301.027344 426.671875 C 298.441406 425.640625 295.785156 424.90625 293.089844 424.410156 C 281.847656 422.34375 269.886719 424.417969 259.015625 426.300781 C 249.546875 427.941406 240.601563 429.492188 233.941406 427.921875 C 226.042969 426.0625 221.003906 422.371094 215.667969 418.460938 C 208.167969 412.96875 200.414063 407.289063 184.453125 406.367188 C 175.855469 405.871094 167.9375 410.425781 166.425781 416.734375 C 165.820313 419.277344 165.554688 425.695313 176.210938 430.355469 C 185.636719 433.9375 195.703125 433.3125 205.445313 432.714844 C 216.21875 432.046875 226.390625 431.417969 235.363281 436.085938 C 246.484375 441.964844 258.71875 445.539063 272.761719 447.011719 C 283.386719 448.121094 287.929688 448.195313 292.878906 447.421875 C 295.121094 447.070313 301.152344 445.714844 301.152344 445.714844 C 299.828125 446.542969 296.113281 447.457031 293.28125 448.175781 C 283.632813 450.617188 271.335938 451.574219 254.207031 448.074219 C 249.386719 447.089844 244.804688 445.828125 239.953125 444.488281 C 235.613281 443.292969 231.125 442.054688 226.476563 441.046875 C 220.167969 439.675781 214.136719 441.746094 212.738281 445.765625 C 212.328125 446.953125 211.503906 451.078125 218.21875 454.363281 C 223.246094 456.824219 229.046875 456.070313 236.390625 455.121094 L 236.945313 455.050781 C 254.320313 452.769531 277.082031 460.863281 282.605469 464.589844 C 276.796875 462.691406 269.207031 461.761719 259.636719 461.769531 C 255.09375 461.777344 250.328125 462.003906 245.726563 462.222656 C 230.019531 462.96875 213.777344 463.742188 203.679688 455.820313 C 203.75 455.882813 203.210938 455.40625 203.210938 455.40625 C 197.652344 450.503906 191.351563 444.949219 183.460938 443.046875 C 174.082031 440.78125 169.140625 444.796875 167.757813 448.917969 C 165.96875 454.261719 169.128906 462.226563 180.308594 467.089844 L 180.367188 467.113281 L 180.429688 467.136719 C 188.949219 470.070313 198.40625 469.910156 207.550781 469.753906 C 210.320313 469.707031 213.179688 469.660156 215.953125 469.699219 C 226.695313 469.855469 242.964844 474.082031 251.730469 480.726563 C 252.613281 481.394531 254.078125 482.609375 254.535156 483.523438 C 254.164063 483.476563 251.199219 482.078125 250.40625 481.714844 C 234.570313 474.492188 213.675781 476.554688 200.117188 480.710938 C 191.417969 483.023438 182.847656 479.222656 175.285156 475.867188 C 168.933594 473.046875 162.929688 470.382813 157.664063 471.78125 C 151.644531 473.003906 145.570313 475.277344 139.695313 477.480469 L 136.648438 478.613281 C 106.886719 481.058594 23.289063 482.90625 13.0625 482.664063 C 9.074219 482.570313 4.054688 481.710938 2.804688 478.171875 C 1.414063 474.226563 5.046875 467.578125 11.640625 462.003906 C 18.917969 455.851563 25.957031 449.753906 32.078125 442.839844 C 82.109375 386.300781 130.894531 176.699219 136.378906 128.410156 L 136.398438 128.253906 L 136.386719 128.09375 C 135.929688 122.269531 133.648438 117.625 129.785156 114.664063 C 125.71875 111.546875 119.996094 110.390625 114.089844 111.492188 C 105.4375 113.105469 100.714844 112.148438 99.988281 110.574219 C 99.757813 110.078125 99.089844 107.203125 108.554688 99.527344 C 116.890625 92.589844 268.765625 13.59375 286.664063 4.617188 C 292.84375 1.519531 297.878906 0.914063 300.128906 3.003906 C 301.625 4.390625 301.757813 7.085938 300.492188 10.21875 C 300.507813 10.191406 300.523438 10.164063 300.539063 10.140625 L 300.46875 10.289063 C 300.476563 10.265625 300.484375 10.242188 300.492188 10.21875 C 298.183594 14.539063 294.949219 18.398438 291.820313 22.132813 C 290.128906 24.152344 288.378906 26.238281 286.785156 28.378906 C 278.675781 39.308594 276.582031 47.09375 280.570313 51.527344 C 285.71875 57.242188 299.753906 54.375 309.808594 48.4375 C 322.21875 41.105469 327.410156 40.226563 340.28125 48 C 349.832031 53.769531 356.84375 55.769531 370.328125 51.492188 C 361.699219 56.847656 353.394531 57.304688 341.09375 53.550781 C 325.8125 48.890625 322.78125 50.460938 316.277344 55.683594 C 315.082031 56.644531 313.730469 57.730469 312.089844 58.890625 C 301.515625 66.394531 295.847656 67.066406 280.175781 62.683594 C 271.691406 60.308594 265.09375 63.34375 262.023438 66.667969 C 259.597656 69.292969 258.769531 72.5625 259.816406 75.410156 C 260.632813 77.636719 263.351563 81.53125 272.394531 82.636719 C 279.890625 83.550781 284.171875 82.179688 289.589844 80.445313 C 292.050781 79.65625 294.84375 78.761719 298.328125 77.972656 C 314.746094 74.257813 323.59375 77.304688 338.253906 82.347656 L 346.246094 85.050781 C 352.265625 87.019531 366.933594 90.648438 381.347656 85.265625 C 369.875 92.816406 351.117188 90.308594 336.035156 87.222656 "/>
</g>
</svg>
