<?xml version="1.0" encoding="UTF-8"?>
<svg xmlns="http://www.w3.org/2000/svg" xmlns:xlink="http://www.w3.org/1999/xlink" width="536pt" height="247pt" viewBox="0 0 536 247" version="1.1">
<g id="surface1">
<path style=" stroke:none;fill-rule:nonzero;fill:rgb(0%,0%,0%);fill-opacity:1;" d="M 534.152344 83.890625 C 525.464844 90.738281 491.363281 135.039063 406.855469 110.945313 C 397.0625 107.816406 388.601563 105.417969 374.441406 101.238281 C 375.050781 98.019531 384.734375 42.808594 330.046875 53.558594 C 263.027344 73.574219 227.675781 167.164063 218.445313 192.707031 C 218.25 193.25 217.992188 193.164063 218.054688 192.574219 C 225.609375 51.496094 202.746094 10.371094 202.851563 10.269531 C 195.429688 -5.765625 185.578125 -0.765625 189.664063 11.082031 C 202.011719 33.078125 209.339844 117.464844 201.429688 150.832031 C 194.027344 175.066406 177.800781 202.957031 149.507813 205.289063 C 139.0625 205.1875 130.339844 198.292969 125.472656 189.570313 C 150.019531 193.6875 171.65625 180.792969 176.179688 165.839844 C 181.960938 147.550781 172.808594 137.539063 171.171875 135.011719 C 208.714844 82.855469 169.292969 22.828125 127.101563 57.464844 C 111.003906 70.683594 80.804688 107.394531 106.332031 159.53125 C 106.664063 160.207031 106.839844 160.429688 106.089844 159.867188 C 105.339844 159.304688 99.148438 152.140625 93.40625 148.894531 C 87.828125 145.546875 80.824219 142.835938 74.535156 143.242188 C 68.515625 143.507813 62.167969 148.203125 68.425781 149.394531 C 80.042969 151.804688 97.285156 154.765625 106.523438 162.21875 C 110.089844 165.097656 112.003906 167.195313 115.382813 169.019531 C 115.464844 169.0625 115.554688 169.3125 115.535156 170.308594 C 115.535156 170.308594 78.964844 149.921875 60.644531 154.15625 C 53.539063 156.277344 44.679688 162.03125 59.832031 163.6875 C 64.734375 164.410156 100.789063 165.855469 115.914063 172.921875 C 116.097656 173.007813 116.214844 174.246094 116.34375 174.964844 C 107.519531 173.242188 46.929688 156.972656 30.851563 173.851563 C 29.734375 175.167969 28.082031 179.101563 31.664063 178.210938 C 58.613281 169.058594 104.527344 175.535156 117.023438 178.625 C 117.132813 178.992188 117.179688 179.070313 117.253906 179.523438 C 22.246094 164.457031 6.101563 209.617188 1.105469 223.171875 C -0.234375 226.800781 0.261719 227.207031 1.78125 223.691406 C 28.460938 162.898438 83.132813 190.484375 121.570313 189.976563 C 126.640625 200.117188 137.640625 207.011719 148.085938 208.230469 C 172.222656 209.042969 190.578125 186.527344 199.605469 167.257813 C 210.746094 144.480469 210.863281 114.792969 209.835938 88.183594 C 209.808594 87.425781 210.03125 87.378906 210.171875 88.109375 C 218.265625 131.722656 210.761719 215.429688 202.851563 237.742188 C 198.949219 247.660156 207.824219 249.515625 210.152344 241.089844 C 229.105469 154.15625 275.460938 85.824219 319.679688 61.789063 C 371.980469 36.703125 373.515625 88.214844 370.082031 100.527344 C 367.242188 99.816406 364.621094 99.800781 361.664063 98.703125 C 295.539063 83.863281 293.382813 124.546875 299.890625 137.789063 C 317.742188 168.035156 362.578125 135.574219 371.90625 113.609375 C 384.785156 117.769531 398.882813 120.304688 412.777344 122.738281 C 497.660156 133.140625 531.046875 89.117188 534.867188 84.402344 C 536.234375 82.925781 535.808594 82.324219 534.152344 83.890625 Z M 115.226563 164.417969 C 106.585938 157.035156 86.253906 114.039063 114.6875 75.675781 C 159.574219 15.117188 203.246094 75.15625 164.789063 127.941406 C 159.425781 122.074219 120.300781 111.394531 115.226563 164.417969 Z M 118.457031 170.375 C 118.457031 170.375 119.632813 170.996094 120.621094 171.285156 C 121.140625 171.4375 120.808594 171.640625 120.574219 171.597656 C 119.652344 171.417969 118.503906 171.015625 118.457031 170.875 C 118.394531 170.6875 118.457031 170.375 118.457031 170.375 Z M 119.722656 175.800781 C 119.425781 174.71875 119.527344 175.101563 119.222656 173.785156 C 135.449219 181.289063 156.910156 178.921875 169.992188 165.839844 C 173.632813 161.144531 169.710938 157.085938 167.761719 159.652344 C 157.113281 169.792969 137.632813 180.703125 118.167969 166.546875 C 120.429688 118.222656 156.269531 122.058594 162.878906 130.289063 C 159.296875 135.820313 152.445313 140.28125 151.027344 147.179688 C 150.648438 151.179688 154.300781 151.1875 158.632813 148.699219 C 163.296875 146.265625 167.105469 141.742188 169.742188 137.683594 C 175.726563 146.40625 176.960938 155.378906 172.933594 166.953125 C 168.953125 176 150.253906 190.15625 119.722656 175.800781 Z M 121.207031 180.125 C 121.082031 179.875 120.957031 179.625 120.894531 179.25 C 120.894531 179.25 124.347656 180.171875 126.285156 180.703125 C 127.152344 180.941406 126.894531 180.972656 126.273438 180.902344 C 124.441406 180.683594 121.3125 180.332031 121.207031 180.125 Z M 304.671875 138.863281 C 299.382813 132.15625 292.867188 106.382813 328.398438 103.0625 C 342.292969 102.65625 353.882813 109.179688 366.359375 112.117188 C 362.636719 129.796875 319.550781 160.832031 304.671875 138.863281 "/>
</g>
</svg>
