<?xml version="1.0" encoding="UTF-8"?>
<svg xmlns="http://www.w3.org/2000/svg" xmlns:xlink="http://www.w3.org/1999/xlink" width="346pt" height="322pt" viewBox="0 0 346 322" version="1.1">
<g id="surface1">
<path style=" stroke:none;fill-rule:nonzero;fill:rgb(0%,0%,0%);fill-opacity:1;" d="M 334.640625 26.34375 C 319.019531 15.878906 302.890625 16.042969 297.265625 29.542969 C 291.640625 43.042969 290.949219 38.6875 287.574219 26.3125 C 279.671875 -2.65625 207.558594 -10.152344 165.800781 21.28125 C 123.433594 53.171875 70.0625 105.160156 71.1875 140.035156 C 72.3125 174.910156 114.523438 217.558594 157.273438 238.933594 C 192.179688 256.386719 160.777344 278.136719 139.28125 267.390625 C 110.03125 252.765625 67.433594 206.648438 59.558594 193.148438 C 51.683594 179.648438 36.527344 188.726563 24.414063 193.273438 C 12.304688 197.824219 -13.761719 207.0625 10.988281 236.3125 C 35.738281 265.5625 78.085938 321.152344 127.585938 321.152344 C 177.085938 321.152344 251.894531 277.125 218.144531 228.75 C 184.394531 180.375 129.835938 149.578125 153.460938 115.828125 C 177.085938 82.078125 234.640625 35.941406 257.140625 48.316406 C 279.640625 60.691406 234.023438 119.816406 223.898438 132.191406 C 213.773438 144.566406 228.363281 161.980469 240.238281 170.257813 C 252.113281 178.535156 258.742188 175.523438 268.539063 164.523438 C 283.390625 147.851563 328.613281 84.734375 337.613281 68.984375 C 346.613281 53.234375 350.261719 36.804688 334.640625 26.34375 "/>
</g>
</svg>
