<?xml version="1.0" encoding="UTF-8"?>
<svg xmlns="http://www.w3.org/2000/svg" xmlns:xlink="http://www.w3.org/1999/xlink" width="530pt" height="375pt" viewBox="0 0 530 375" version="1.1">
<g id="surface1">
<path style=" stroke:none;fill-rule:nonzero;fill:rgb(0%,0%,0%);fill-opacity:1;" d="M 155.996094 226.855469 C 155.972656 225.945313 155.011719 226.085938 155.097656 226.628906 C 155.183594 227.167969 154.867188 227.3125 154.496094 227.019531 C 154.128906 226.726563 153.453125 227.039063 153.980469 227.644531 C 154.507813 228.253906 155.921875 229.300781 156.367188 229.867188 C 156.808594 230.433594 156.960938 229.976563 156.746094 229.398438 C 156.511719 228.761719 156.023438 227.769531 155.996094 226.855469 "/>
<path style=" stroke:none;fill-rule:nonzero;fill:rgb(0%,0%,0%);fill-opacity:1;" d="M 162.960938 229.886719 C 163.378906 229.300781 164.742188 228.183594 165.238281 227.550781 C 165.734375 226.921875 165.046875 226.640625 164.691406 226.953125 C 164.335938 227.261719 164.011719 227.132813 164.074219 226.589844 C 164.132813 226.042969 163.164063 225.949219 163.183594 226.863281 C 163.199219 227.773438 162.761719 228.789063 162.558594 229.4375 C 162.378906 230.027344 162.546875 230.476563 162.960938 229.886719 "/>
<path style=" stroke:none;fill-rule:nonzero;fill:rgb(0%,0%,0%);fill-opacity:1;" d="M 165.109375 251.945313 C 164.0625 254.355469 165.199219 254.714844 165.828125 252.535156 C 165.980469 252.007813 166.328125 252.011719 166.539063 252.433594 C 166.75 252.855469 167.492188 252.859375 167.273438 252.089844 C 167.054688 251.316406 166.21875 249.765625 166.058594 249.0625 C 165.898438 248.359375 165.566406 248.710938 165.515625 249.324219 C 165.453125 250.003906 165.472656 251.105469 165.109375 251.945313 "/>
<path style=" stroke:none;fill-rule:nonzero;fill:rgb(0%,0%,0%);fill-opacity:1;" d="M 157.199219 246.8125 C 156.664063 247.238281 155.878906 248.015625 155.023438 248.328125 C 152.554688 249.230469 153.078125 250.300781 155.089844 249.253906 C 155.574219 249.003906 155.8125 249.253906 155.652344 249.699219 C 155.492188 250.144531 156.003906 250.683594 156.410156 249.992188 C 156.816406 249.304688 157.363281 247.628906 157.761719 247.027344 C 158.160156 246.425781 157.679688 246.429688 157.199219 246.8125 "/>
<path style=" stroke:none;fill-rule:nonzero;fill:rgb(0%,0%,0%);fill-opacity:1;" d="M 148.964844 233.394531 C 149.683594 233.261719 150.539063 233.476563 151.078125 233.550781 C 151.566406 233.621094 151.898438 233.429688 151.382813 233.175781 C 150.863281 232.925781 149.804688 231.992188 149.242188 231.683594 C 148.679688 231.371094 148.546875 231.953125 148.839844 232.191406 C 149.128906 232.433594 149.070313 232.703125 148.632813 232.730469 C 146.820313 232.824219 146.894531 233.777344 148.964844 233.394531 "/>
<path style=" stroke:none;fill-rule:nonzero;fill:rgb(0%,0%,0%);fill-opacity:1;" d="M 152.089844 241.171875 C 151.375 241.257813 149.632813 240.996094 148.828125 241.050781 C 148.03125 241.105469 148.285156 241.800781 148.753906 241.859375 C 149.222656 241.914063 149.339844 242.238281 148.898438 242.5625 C 148.453125 242.882813 149.03125 243.660156 149.695313 243.035156 C 150.359375 242.410156 151.40625 242.058594 152.027344 241.773438 C 152.585938 241.515625 152.804688 241.085938 152.089844 241.171875 "/>
<path style=" stroke:none;fill-rule:nonzero;fill:rgb(0%,0%,0%);fill-opacity:1;" d="M 172.769531 246.304688 C 173.132813 247.144531 173.976563 246.65625 173.695313 246.1875 C 173.414063 245.714844 173.652344 245.464844 174.105469 245.601563 C 174.558594 245.734375 175.070313 245.195313 174.355469 244.828125 C 173.644531 244.460938 171.9375 244.007813 171.316406 243.644531 C 170.695313 243.28125 170.726563 243.761719 171.136719 244.21875 C 171.589844 244.726563 172.410156 245.46875 172.769531 246.304688 "/>
<path style=" stroke:none;fill-rule:nonzero;fill:rgb(0%,0%,0%);fill-opacity:1;" d="M 170.867188 235.699219 C 171.539063 235.796875 172.644531 235.839844 173.460938 236.246094 C 174.273438 236.65625 174.609375 235.746094 174.089844 235.566406 C 173.574219 235.382813 173.597656 235.035156 174.03125 234.851563 C 174.464844 234.664063 174.507813 233.921875 173.726563 234.097656 C 172.941406 234.273438 171.347656 235.019531 170.636719 235.140625 C 169.925781 235.261719 170.257813 235.609375 170.867188 235.699219 "/>
<path style=" stroke:none;fill-rule:nonzero;fill:rgb(0%,0%,0%);fill-opacity:1;" d="M 143.867188 233.613281 C 143.019531 234.519531 144.535156 238.066406 147.246094 236.527344 C 150.292969 234.796875 152.433594 235.046875 153.347656 235.996094 C 154.265625 236.945313 154.570313 238.738281 152.425781 238.164063 C 150.277344 237.59375 145.800781 238.828125 144.734375 240.886719 C 143.667969 242.941406 144.40625 245.445313 145.824219 244.917969 C 147.242188 244.394531 146.023438 247.324219 146.714844 247.515625 C 149.828125 248.367188 151.828125 243.203125 154.183594 243.199219 C 156.53125 243.195313 157.53125 243.804688 155.785156 245.007813 C 154.039063 246.210938 149.71875 247.421875 149.238281 251.28125 C 149.058594 252.730469 151.84375 252.175781 151.753906 254.101563 C 151.632813 256.675781 158.980469 253.023438 159.738281 249.195313 C 160.496094 245.367188 162.175781 246.382813 162.679688 248.023438 C 163.191406 249.6875 164.320313 253.046875 162.179688 255.53125 C 160.039063 258.019531 162.742188 259.640625 163.648438 259.222656 C 164.554688 258.800781 165.609375 260.332031 167.0625 259.46875 C 171.28125 256.96875 170.710938 249.074219 168.332031 247.484375 C 166.023438 245.941406 165.671875 243.613281 168.269531 244.929688 C 170.867188 246.242188 171.746094 250.195313 172.664063 251.363281 C 173.582031 252.527344 176.226563 252.214844 176.914063 249.785156 C 177.234375 248.660156 179.109375 248.042969 179.179688 246.789063 C 179.382813 243.125 173.1875 240.753906 171.851563 240.765625 C 169.390625 240.789063 167.414063 237.71875 170.402344 237.769531 C 172.269531 237.804688 176.445313 240.042969 178.066406 239.199219 C 179.714844 238.339844 179.660156 234.972656 178.457031 234.054688 C 177.671875 233.460938 179.21875 231.335938 177.207031 230.691406 C 174.949219 229.96875 169.996094 231.351563 167.464844 233.539063 C 165.628906 235.125 163.476563 232.683594 165.394531 230.679688 C 167.3125 228.679688 168.65625 226.484375 168.601563 225.421875 C 168.527344 224.046875 167.011719 222.199219 165.914063 222.933594 C 164.8125 223.660156 164.808594 221.136719 163.222656 221.644531 C 160.730469 222.441406 160.710938 224.523438 160.210938 228.070313 C 159.839844 230.707031 158.878906 230.953125 158.726563 229.238281 C 158.570313 227.519531 158.046875 222.828125 156.015625 222.03125 C 154.746094 221.535156 153.035156 221.992188 152.644531 223.246094 C 152.253906 224.503906 150.109375 223.042969 149.660156 225.371094 C 149.253906 227.480469 152.605469 229.140625 154.308594 231.003906 C 156.007813 232.871094 154.722656 232.730469 153.355469 231.617188 C 150.421875 229.222656 144.34375 229.035156 143.5 230.898438 C 142.695313 232.675781 145.023438 232.378906 143.867188 233.613281 Z M 169.777344 242.359375 C 170.839844 242.722656 175.382813 244.105469 176.765625 244.808594 C 178.152344 245.515625 176.488281 246.027344 175.878906 245.714844 C 175.265625 245.402344 174.445313 246.242188 175.425781 246.933594 C 176.40625 247.628906 175.144531 248.019531 174.464844 247.460938 C 173.78125 246.902344 173.257813 247.183594 174.125 248.566406 C 174.988281 249.949219 173.074219 249.308594 172.316406 247.574219 C 171.816406 246.441406 169.222656 243.320313 168.78125 242.816406 C 168.234375 242.179688 168.710938 241.996094 169.777344 242.359375 Z M 168.792969 234.613281 C 169.84375 234.207031 174.210938 232.351563 175.726563 232.003906 C 177.242188 231.65625 176.296875 233.113281 175.625 233.269531 C 174.953125 233.421875 174.863281 234.59375 176.0625 234.492188 C 177.257813 234.394531 176.539063 235.507813 175.660156 235.515625 C 174.785156 235.523438 174.558594 236.074219 176.109375 236.578125 C 177.660156 237.085938 175.78125 237.820313 174.089844 236.980469 C 172.980469 236.433594 168.984375 235.703125 168.324219 235.597656 C 167.496094 235.46875 167.746094 235.019531 168.792969 234.613281 Z M 159.546875 245.011719 C 159.480469 247.289063 157.660156 251.015625 155.890625 252.617188 C 154.734375 253.660156 154.675781 252.828125 154.972656 252.207031 C 155.265625 251.585938 154.402344 250.789063 153.738281 251.789063 C 153.074219 252.789063 152.644531 251.539063 153.183594 250.84375 C 153.71875 250.148438 153.425781 249.632813 152.070313 250.535156 C 150.714844 251.441406 151.203125 249.265625 153.007813 248.699219 C 154.605469 248.199219 158.570313 244.484375 159.0625 244.03125 C 159.679688 243.464844 159.578125 243.886719 159.546875 245.011719 Z M 168.722656 254.757813 C 168.683594 256.3125 168.039063 255.785156 167.792969 255.140625 C 167.546875 254.5 166.375 254.578125 166.644531 255.746094 C 166.910156 256.917969 165.710938 256.367188 165.574219 255.496094 C 165.441406 254.628906 164.863281 254.484375 164.585938 256.09375 C 164.304688 257.699219 163.066406 255.84375 163.898438 254.148438 C 164.640625 252.644531 164.679688 247.210938 164.691406 246.542969 C 164.703125 245.703125 164.941406 246.070313 165.734375 246.867188 C 167.339844 248.484375 168.785156 252.371094 168.722656 254.757813 Z M 161.789063 232.019531 C 161.851563 231.355469 162.15625 227.300781 161.902344 226.09375 C 161.515625 224.242188 162.703125 222.609375 162.800781 224.234375 C 162.898438 225.863281 163.488281 225.785156 163.71875 224.9375 C 163.949219 224.089844 165.203125 223.675781 164.808594 224.808594 C 164.410156 225.941406 165.566406 226.152344 165.882813 225.539063 C 166.199219 224.929688 167.851563 224.382813 167.132813 225.761719 C 166.414063 227.140625 163.519531 230.898438 162.859375 231.8125 C 162.203125 232.726563 161.707031 232.855469 161.789063 232.019531 Z M 160.523438 235.257813 C 161.304688 236.277344 162.441406 235.484375 163.589844 234.847656 C 164.734375 234.207031 166.003906 235.242188 166.167969 236.140625 C 166.332031 237.039063 166.421875 238.804688 167.121094 239.804688 C 167.824219 240.800781 166.464844 242.503906 165.222656 241.703125 C 163.980469 240.90625 162.898438 242.121094 161.8125 242.820313 C 160.726563 243.519531 159.355469 243.078125 159.316406 242.0625 C 159.273438 241.046875 156.976563 241.519531 155.957031 240.511719 C 154.9375 239.503906 155.214844 237.332031 155.6875 237.578125 C 156.160156 237.828125 157.253906 236.617188 157.625 235.789063 C 157.996094 234.957031 159.839844 234.367188 160.523438 235.257813 Z M 151.472656 226.617188 C 150.445313 225.449219 152.179688 225.589844 152.632813 226.105469 C 153.085938 226.621094 154.15625 226.144531 153.503906 225.136719 C 152.847656 224.132813 154.164063 224.234375 154.589844 225.003906 C 155.015625 225.773438 155.605469 225.707031 155.3125 224.101563 C 155.019531 222.496094 156.5625 223.800781 156.628906 225.691406 C 156.671875 226.925781 157.933594 230.789063 158.152344 231.421875 C 158.429688 232.210938 157.917969 232.203125 157.0625 231.472656 C 156.207031 230.742188 152.496094 227.785156 151.472656 226.617188 Z M 154.527344 240.699219 C 153.988281 241.097656 150.78125 243.59375 150.050781 244.589844 C 148.9375 246.117188 146.933594 246.335938 148.074219 245.167969 C 149.214844 244.003906 148.761719 243.621094 147.980469 244.015625 C 147.195313 244.414063 146.046875 243.761719 147.152344 243.296875 C 148.257813 242.828125 147.640625 241.832031 146.972656 242.007813 C 146.308594 242.179688 144.796875 241.324219 146.300781 240.933594 C 147.804688 240.539063 152.535156 240.167969 153.652344 240.042969 C 154.769531 239.917969 155.199219 240.199219 154.527344 240.699219 Z M 145.902344 233.96875 C 147.195313 233.789063 147.097656 233.324219 146.40625 233.195313 C 145.714844 233.0625 145.308594 232.085938 146.234375 232.332031 C 147.164063 232.578125 147.261719 231.644531 146.753906 231.429688 C 146.246094 231.214844 145.84375 230.683594 147.085938 230.695313 C 148.996094 230.714844 152.0625 231.980469 153.308594 233.308594 C 153.925781 233.964844 154.210938 234.164063 153.542969 234.152344 C 153.007813 234.140625 148.660156 234.019531 147.4375 234.570313 C 146.058594 235.191406 144.609375 234.148438 145.902344 233.96875 "/>
<path style=" stroke:none;fill-rule:nonzero;fill:rgb(0%,0%,0%);fill-opacity:1;" d="M 157.980469 239.460938 C 158.554688 240.785156 160.871094 241.851563 161.429688 240.84375 C 161.679688 240.386719 163.234375 240.035156 164.734375 239.765625 C 166.230469 239.488281 164.273438 237.554688 164.003906 236.824219 C 163.71875 236.039063 161.921875 236.25 161.496094 236.78125 C 161.070313 237.3125 160.347656 237.539063 159.097656 237.339844 C 157.84375 237.136719 157.40625 238.136719 157.980469 239.460938 "/>
<path style=" stroke:none;fill-rule:nonzero;fill:rgb(0%,0%,0%);fill-opacity:1;" d="M 82.515625 321.46875 C 85.101563 317.203125 84.980469 310.519531 80.769531 306.59375 C 73.875 300.164063 72.964844 304.367188 74.234375 310.894531 C 74.957031 314.613281 73.664063 318.105469 72.964844 320.738281 C 71.339844 326.828125 79.203125 326.949219 82.515625 321.46875 Z M 79.40625 311.0625 C 81.457031 312.15625 78.777344 323.402344 77.542969 321.695313 C 75.386719 318.707031 77.351563 309.964844 79.40625 311.0625 "/>
<path style=" stroke:none;fill-rule:nonzero;fill:rgb(0%,0%,0%);fill-opacity:1;" d="M 110.132813 321.175781 C 114.613281 318.984375 117.914063 313.351563 116.714844 307.71875 C 115.304688 301.121094 112.707031 301.613281 110.246094 307.789063 C 108.839844 311.308594 104.511719 313.554688 102.496094 315.390625 C 97.835938 319.636719 104.382813 323.988281 110.132813 321.175781 Z M 113.148438 310.738281 C 114.28125 312.769531 105.941406 320.777344 105.828125 318.675781 C 105.632813 314.996094 112.015625 308.707031 113.148438 310.738281 "/>
<path style=" stroke:none;fill-rule:nonzero;fill:rgb(0%,0%,0%);fill-opacity:1;" d="M 204.785156 279.488281 C 202.167969 282.226563 198.570313 283.191406 196.019531 284.140625 C 190.109375 286.339844 194.554688 292.824219 200.945313 292.359375 C 205.917969 292 211.300781 288.039063 212.070313 282.332031 C 213.332031 272.992188 209.375 274.675781 204.785156 279.488281 Z M 197.882813 288.433594 C 199.078125 284.945313 207.34375 281.496094 207.636719 283.804688 C 207.929688 286.109375 197.203125 290.425781 197.882813 288.433594 "/>
<path style=" stroke:none;fill-rule:nonzero;fill:rgb(0%,0%,0%);fill-opacity:1;" d="M 137.828125 259.917969 C 141.53125 260.726563 144.222656 263.300781 146.363281 264.988281 C 151.3125 268.894531 154.539063 261.726563 150.824219 256.507813 C 147.929688 252.445313 141.75 249.90625 136.472656 252.214844 C 127.835938 255.992188 131.335938 258.496094 137.828125 259.917969 Z M 140.03125 255.238281 C 141.851563 253.785156 151.113281 260.710938 149.058594 261.164063 C 145.460938 261.957031 138.214844 256.6875 140.03125 255.238281 "/>
<path style=" stroke:none;fill-rule:nonzero;fill:rgb(0%,0%,0%);fill-opacity:1;" d="M 136.859375 282.195313 C 140.648438 282.242188 144.300781 285.476563 146.734375 286.699219 C 152.371094 289.523438 154.085938 281.851563 149.390625 277.492188 C 145.734375 274.097656 139.292969 273.039063 134.46875 276.183594 C 128.816406 279.871094 130.210938 282.117188 136.859375 282.195313 Z M 138.566406 278.425781 C 140.054688 276.640625 150.523438 281.546875 148.605469 282.40625 C 145.238281 283.910156 137.078125 280.214844 138.566406 278.425781 "/>
<path style=" stroke:none;fill-rule:nonzero;fill:rgb(0%,0%,0%);fill-opacity:1;" d="M 181.847656 232.15625 C 183.683594 233.742188 184.414063 236.011719 185.101563 237.613281 C 186.695313 241.320313 190.699219 238.273438 190.199219 234.203125 C 189.8125 231.035156 187.109375 227.722656 183.4375 227.410156 C 177.425781 226.898438 178.628906 229.375 181.847656 232.15625 Z M 184.519531 230.199219 C 185.984375 229.9375 189.082031 236.65625 187.789063 236.285156 C 185.519531 235.632813 183.050781 230.460938 184.519531 230.199219 "/>
<path style=" stroke:none;fill-rule:nonzero;fill:rgb(0%,0%,0%);fill-opacity:1;" d="M 168.378906 316.5 C 162.734375 319.527344 162.445313 327.386719 168.613281 326.082031 C 171.28125 325.515625 174.835938 324.40625 178.511719 325.320313 C 184.964844 326.925781 189.207031 326.234375 183.144531 319.015625 C 179.4375 314.609375 172.773438 314.144531 168.378906 316.5 Z M 167.894531 321.453125 C 166.253906 320.136719 177.625 318.042969 178.613281 320.148438 C 179.597656 322.253906 170.769531 323.761719 167.894531 321.453125 "/>
<path style=" stroke:none;fill-rule:nonzero;fill:rgb(0%,0%,0%);fill-opacity:1;" d="M 246.277344 255.007813 C 244.921875 253.0625 240.144531 251.160156 236.800781 251.367188 C 234.386719 251.515625 234.152344 248.265625 236.890625 247.835938 C 239.628906 247.40625 242.03125 246.480469 242.632813 245.597656 C 243.40625 244.464844 243.320313 242.078125 242.003906 241.992188 C 240.6875 241.90625 242.214844 239.894531 240.644531 239.335938 C 238.175781 238.457031 236.902344 240.101563 234.351563 242.621094 C 232.460938 244.488281 231.542969 244.105469 232.464844 242.644531 C 233.382813 241.1875 235.8125 237.136719 234.679688 235.273438 C 233.96875 234.109375 232.335938 233.433594 231.261719 234.195313 C 230.191406 234.953125 229.371094 232.496094 227.601563 234.074219 C 225.996094 235.503906 227.660156 238.859375 227.878906 241.371094 C 228.101563 243.886719 227.160156 242.996094 226.753906 241.28125 C 225.871094 237.597656 221.148438 233.765625 219.351563 234.730469 C 217.632813 235.65625 219.664063 236.835938 217.996094 237.113281 C 216.773438 237.324219 215.828125 241.0625 218.917969 241.480469 C 222.386719 241.953125 223.9375 243.449219 224.089844 244.761719 C 224.242188 246.070313 223.398438 247.683594 222.039063 245.925781 C 220.679688 244.164063 216.371094 242.433594 214.277344 243.421875 C 212.179688 244.410156 211.25 246.851563 212.695313 247.292969 C 214.144531 247.734375 211.394531 249.324219 211.832031 249.894531 C 213.789063 252.460938 218.515625 249.566406 220.386719 250.992188 C 222.257813 252.414063 222.683594 253.503906 220.5625 253.402344 C 218.445313 253.300781 214.277344 251.640625 211.550781 254.421875 C 210.53125 255.464844 213.078125 256.710938 211.84375 258.1875 C 210.1875 260.164063 218.242188 261.714844 221.164063 259.128906 C 224.089844 256.546875 224.808594 258.371094 224.214844 259.980469 C 223.613281 261.617188 222.476563 264.96875 219.265625 265.648438 C 216.054688 266.328125 217.222656 269.257813 218.195313 269.472656 C 219.171875 269.6875 219.082031 271.546875 220.761719 271.742188 C 225.628906 272.3125 229.964844 265.6875 229.039063 262.980469 C 228.136719 260.355469 229.269531 258.289063 230.539063 260.910156 C 231.804688 263.527344 230.109375 267.203125 230.128906 268.6875 C 230.152344 270.175781 232.445313 271.527344 234.46875 270.011719 C 235.402344 269.3125 237.265625 269.960938 238.082031 269.003906 C 240.46875 266.214844 236.980469 260.570313 235.910156 259.769531 C 233.941406 258.300781 234.230469 254.660156 236.574219 256.511719 C 238.039063 257.667969 240 261.984375 241.800781 262.296875 C 243.632813 262.613281 245.632813 259.898438 245.230469 258.441406 C 244.96875 257.492188 247.488281 256.742188 246.277344 255.007813 Z M 229.519531 236.460938 C 229.566406 237.144531 230.707031 237.414063 230.796875 236.21875 C 230.886719 235.019531 231.871094 235.902344 231.746094 236.769531 C 231.617188 237.640625 232.125 237.945313 232.867188 236.492188 C 233.605469 235.039063 234.042969 237.011719 232.949219 238.554688 C 232.234375 239.5625 230.894531 243.398438 230.6875 244.035156 C 230.425781 244.832031 230.023438 244.515625 229.785156 243.414063 C 229.546875 242.316406 228.394531 237.714844 228.285156 236.164063 C 228.175781 234.609375 229.472656 235.773438 229.519531 236.460938 Z M 216.257813 249.59375 C 214.445313 250.132813 212.71875 249.085938 214.335938 248.855469 C 215.945313 248.621094 215.820313 248.039063 214.957031 247.878906 C 214.09375 247.722656 213.574219 246.503906 214.738281 246.804688 C 215.898438 247.105469 216.011719 245.9375 215.378906 245.671875 C 214.742188 245.40625 214.058594 243.808594 215.492188 244.410156 C 216.925781 245.011719 220.914063 247.585938 221.878906 248.160156 C 222.84375 248.738281 223.011719 249.222656 222.175781 249.214844 C 221.507813 249.203125 217.441406 249.242188 216.257813 249.59375 Z M 223.550781 255.6875 C 222.117188 257.460938 218.414063 259.316406 216.03125 259.515625 C 214.480469 259.644531 214.9375 258.949219 215.550781 258.632813 C 216.160156 258.316406 215.957031 257.160156 214.820313 257.554688 C 213.6875 257.945313 214.105469 256.691406 214.953125 256.464844 C 215.804688 256.238281 215.882813 255.648438 214.257813 255.546875 C 212.628906 255.441406 214.339844 254.007813 216.113281 254.652344 C 217.6875 255.226563 223.097656 254.675781 223.761719 254.613281 C 224.59375 254.535156 224.257813 254.8125 223.550781 255.6875 Z M 220.257813 240.039063 C 218.78125 239.699219 218.261719 237.988281 219.398438 238.632813 C 220.535156 239.273438 220.738281 238.84375 220.269531 238.320313 C 219.800781 237.796875 220.066406 236.773438 220.65625 237.53125 C 221.246094 238.289063 221.886719 237.605469 221.617188 237.128906 C 221.34375 236.648438 221.34375 235.984375 222.324219 236.746094 C 223.832031 237.921875 225.503906 240.785156 225.6875 242.597656 C 225.78125 243.492188 225.886719 243.824219 225.363281 243.410156 C 224.941406 243.078125 221.558594 240.347656 220.257813 240.039063 Z M 224.9375 269 C 223.964844 270.214844 223.773438 269.402344 223.964844 268.742188 C 224.160156 268.082031 223.179688 267.433594 222.683594 268.527344 C 222.183594 269.617188 221.566406 268.453125 221.984375 267.679688 C 222.40625 266.90625 222.035156 266.445313 220.835938 267.550781 C 219.640625 268.660156 219.78125 266.433594 221.472656 265.589844 C 222.972656 264.84375 226.300781 260.546875 226.714844 260.023438 C 227.234375 259.363281 227.199219 259.800781 227.347656 260.914063 C 227.644531 263.175781 226.433594 267.140625 224.9375 269 Z M 228.40625 257.257813 C 227.4375 258 225.679688 256.714844 226.425781 255.441406 C 227.167969 254.167969 225.910156 253.136719 225.164063 252.078125 C 224.421875 251.023438 224.804688 249.636719 225.816406 249.554688 C 226.828125 249.46875 226.265625 247.195313 227.226563 246.132813 C 228.191406 245.070313 230.371094 245.253906 230.144531 245.738281 C 229.917969 246.222656 231.171875 247.261719 232.015625 247.601563 C 232.859375 247.9375 233.53125 249.75 232.667969 250.472656 C 231.679688 251.296875 232.523438 252.402344 233.207031 253.519531 C 233.894531 254.636719 232.914063 255.945313 232.023438 256.148438 C 231.132813 256.351563 229.371094 256.515625 228.40625 257.257813 Z M 237.367188 265.96875 C 238.039063 267.371094 236.40625 266.769531 236.109375 266.148438 C 235.8125 265.527344 234.652344 265.699219 235.011719 266.84375 C 235.371094 267.992188 234.128906 267.535156 233.925781 266.679688 C 233.722656 265.824219 233.136719 265.726563 232.988281 267.351563 C 232.835938 268.976563 231.703125 267.304688 232.148438 265.46875 C 232.441406 264.265625 232.269531 260.207031 232.226563 259.539063 C 232.175781 258.703125 232.667969 258.847656 233.292969 259.78125 C 233.921875 260.714844 236.691406 264.566406 237.367188 265.96875 Z M 234.191406 247.203125 C 233.113281 247.53125 232.644531 247.328125 233.214844 246.714844 C 233.667969 246.226563 236.363281 243.1875 236.898438 242.070313 C 237.714844 240.363281 239.644531 239.785156 238.738281 241.140625 C 237.828125 242.492188 238.34375 242.789063 239.039063 242.253906 C 239.738281 241.71875 240.988281 242.152344 239.984375 242.8125 C 238.984375 243.472656 239.773438 244.339844 240.398438 244.046875 C 241.019531 243.753906 242.664063 244.320313 241.257813 244.980469 C 239.847656 245.640625 235.265625 246.871094 234.191406 247.203125 Z M 243.457031 256.097656 C 242.832031 255.8125 242.050781 256.691406 243.0625 257.339844 C 244.074219 257.984375 242.828125 258.433594 242.125 257.90625 C 241.421875 257.382813 240.910156 257.683594 241.835938 259.027344 C 242.761719 260.367188 240.820313 259.8125 239.984375 258.121094 C 239.4375 257.011719 236.699219 254.007813 236.238281 253.523438 C 235.660156 252.917969 236.128906 252.710938 237.210938 253.023438 C 238.289063 253.339844 242.886719 254.511719 244.304688 255.15625 C 245.722656 255.796875 244.085938 256.382813 243.457031 256.097656 "/>
<path style=" stroke:none;fill-rule:nonzero;fill:rgb(0%,0%,0%);fill-opacity:1;" d="M 230.367188 241.699219 C 230.445313 242.414063 230.8125 242.105469 230.941406 241.5 C 231.078125 240.835938 231.1875 239.734375 231.644531 238.945313 C 232.101563 238.15625 231.210938 237.769531 231 238.273438 C 230.785156 238.78125 230.441406 238.738281 230.28125 238.292969 C 230.121094 237.847656 229.382813 237.757813 229.511719 238.550781 C 229.640625 239.34375 230.289063 240.980469 230.367188 241.699219 "/>
<path style=" stroke:none;fill-rule:nonzero;fill:rgb(0%,0%,0%);fill-opacity:1;" d="M 238.425781 244.273438 C 237.957031 244.347656 237.753906 244.070313 238.089844 243.636719 C 238.429688 243.207031 237.65625 242.617188 237.191406 243.402344 C 236.726563 244.1875 235.816406 244.816406 235.304688 245.261719 C 234.835938 245.664063 234.746094 246.136719 235.40625 245.855469 C 236.070313 245.574219 237.820313 245.347656 238.574219 245.070313 C 239.328125 244.796875 238.890625 244.195313 238.425781 244.273438 "/>
<path style=" stroke:none;fill-rule:nonzero;fill:rgb(0%,0%,0%);fill-opacity:1;" d="M 225.632813 262.328125 C 225.222656 262.871094 224.65625 263.820313 223.90625 264.339844 C 221.746094 265.835938 222.523438 266.742188 224.203125 265.222656 C 224.613281 264.855469 224.90625 265.039063 224.863281 265.511719 C 224.816406 265.980469 225.449219 266.375 225.671875 265.605469 C 225.890625 264.832031 225.996094 263.074219 226.230469 262.394531 C 226.464844 261.710938 226 261.835938 225.632813 262.328125 "/>
<path style=" stroke:none;fill-rule:nonzero;fill:rgb(0%,0%,0%);fill-opacity:1;" d="M 221.34375 255.417969 C 220.667969 255.496094 219.589844 255.742188 218.695313 255.558594 C 216.121094 255.023438 216.003906 256.210938 218.265625 256.378906 C 218.8125 256.421875 218.878906 256.761719 218.507813 257.054688 C 218.136719 257.347656 218.285156 258.074219 218.996094 257.703125 C 219.707031 257.332031 221.058594 256.195313 221.710938 255.898438 C 222.363281 255.597656 221.957031 255.347656 221.34375 255.417969 "/>
<path style=" stroke:none;fill-rule:nonzero;fill:rgb(0%,0%,0%);fill-opacity:1;" d="M 223.519531 239.257813 C 223.207031 238.695313 222.789063 239.121094 222.910156 239.476563 C 223.027344 239.835938 222.835938 240.035156 222.449219 239.824219 C 220.859375 238.953125 220.421875 239.796875 222.382813 240.5625 C 223.0625 240.828125 223.675781 241.464844 224.09375 241.8125 C 224.472656 242.128906 224.855469 242.140625 224.550781 241.652344 C 224.242188 241.164063 223.832031 239.816406 223.519531 239.257813 "/>
<path style=" stroke:none;fill-rule:nonzero;fill:rgb(0%,0%,0%);fill-opacity:1;" d="M 220.0625 248.160156 C 219.410156 247.859375 218.070313 246.714844 217.359375 246.339844 C 216.652344 245.964844 216.5 246.691406 216.867188 246.984375 C 217.238281 247.28125 217.164063 247.617188 216.621094 247.65625 C 216.074219 247.695313 216.152344 248.664063 217.046875 248.484375 C 217.941406 248.304688 219.019531 248.554688 219.695313 248.640625 C 220.304688 248.714844 220.714844 248.464844 220.0625 248.160156 "/>
<path style=" stroke:none;fill-rule:nonzero;fill:rgb(0%,0%,0%);fill-opacity:1;" d="M 232.929688 261.988281 C 233.046875 262.65625 233.351563 263.71875 233.21875 264.621094 C 233.082031 265.523438 234.054688 265.554688 234.0625 265.007813 C 234.074219 264.460938 234.410156 264.371094 234.722656 264.726563 C 235.035156 265.078125 235.753906 264.890625 235.34375 264.203125 C 234.933594 263.511719 233.722656 262.230469 233.386719 261.59375 C 233.050781 260.957031 232.820313 261.378906 232.929688 261.988281 "/>
<path style=" stroke:none;fill-rule:nonzero;fill:rgb(0%,0%,0%);fill-opacity:1;" d="M 241.621094 255.097656 C 240.863281 254.835938 239.109375 254.628906 238.445313 254.355469 C 237.777344 254.085938 237.875 254.554688 238.347656 254.953125 C 238.867188 255.390625 239.785156 256.007813 240.261719 256.785156 C 240.734375 257.5625 241.5 256.964844 241.15625 256.535156 C 240.8125 256.109375 241.015625 255.828125 241.480469 255.898438 C 241.949219 255.96875 242.378906 255.359375 241.621094 255.097656 "/>
<path style=" stroke:none;fill-rule:nonzero;fill:rgb(0%,0%,0%);fill-opacity:1;" d="M 230.527344 249.136719 C 230.675781 247.875 229.660156 247.480469 228.363281 248.109375 C 227.0625 248.738281 226.097656 251.101563 227.125 251.613281 C 227.59375 251.84375 228.007813 253.382813 228.34375 254.867188 C 228.679688 256.355469 230.53125 254.316406 231.25 254.019531 C 232.019531 253.699219 231.734375 251.914063 231.1875 251.507813 C 230.640625 251.105469 230.382813 250.394531 230.527344 249.136719 "/>
<path style=" stroke:none;fill-rule:nonzero;fill:rgb(0%,0%,0%);fill-opacity:1;" d="M 183.828125 214.921875 C 185.660156 215.773438 187.367188 215.53125 188.832031 214.675781 C 191.226563 213.28125 200.179688 212.59375 200.863281 211.773438 C 201.742188 210.714844 201.882813 208.332031 200.578125 208.121094 C 199.277344 207.910156 200.988281 206.054688 199.480469 205.347656 C 197.105469 204.242188 194.9375 205.074219 192.902344 208.023438 C 186.636719 217.117188 189.964844 209.234375 191.019531 207.867188 C 192.074219 206.503906 194.875 202.703125 193.925781 200.738281 C 193.328125 199.515625 191.765625 198.6875 190.625 199.34375 C 189.484375 199.996094 188.902344 197.472656 186.992188 198.875 C 185.261719 200.144531 186.273438 203.660156 186.578125 206.164063 C 188.101563 218.703125 185.414063 214.1875 185.464844 205.96875 C 185.488281 202.183594 180.601563 197.953125 178.71875 198.746094 C 176.921875 199.503906 178.828125 200.871094 177.140625 200.992188 C 175.90625 201.082031 174.609375 204.714844 177.644531 205.425781 C 181.054688 206.222656 181.722656 208.101563 182.484375 209.179688 C 187.488281 216.261719 182.839844 214.109375 180.332031 210.144531 C 179.144531 208.265625 175.019531 206.132813 172.839844 206.917969 C 170.660156 207.703125 169.503906 210.042969 170.902344 210.621094 C 172.300781 211.195313 169.414063 212.519531 169.792969 213.128906 C 171.496094 215.867188 181.699219 213.925781 183.828125 214.921875 Z M 191.378906 211.992188 C 191.878906 211.546875 194.851563 208.777344 195.488281 207.71875 C 196.460938 206.097656 198.441406 205.703125 197.410156 206.964844 C 196.375 208.226563 196.859375 208.570313 197.605469 208.101563 C 198.351563 207.636719 199.554688 208.183594 198.492188 208.746094 C 197.433594 209.3125 198.136719 210.25 198.785156 210.015625 C 199.433594 209.78125 201.015625 210.5 199.554688 211.027344 C 198.089844 211.550781 193.410156 212.34375 192.308594 212.566406 C 191.207031 212.792969 190.753906 212.550781 191.378906 211.992188 Z M 188.675781 201.429688 C 188.65625 202.117188 189.769531 202.496094 189.972656 201.3125 C 190.171875 200.128906 191.070313 201.097656 190.863281 201.953125 C 190.652344 202.808594 191.128906 203.160156 192.003906 201.78125 C 192.878906 200.40625 193.125 202.410156 191.890625 203.839844 C 191.085938 204.777344 189.386719 208.46875 189.121094 209.082031 C 188.785156 209.851563 188.414063 209.5 188.28125 208.382813 C 188.148438 207.265625 187.4375 202.574219 187.476563 201.019531 C 187.515625 199.464844 188.691406 200.742188 188.675781 201.429688 Z M 183.878906 207.953125 C 183.492188 207.585938 180.382813 204.546875 179.113281 204.117188 C 177.679688 203.636719 177.324219 201.886719 178.394531 202.632813 C 179.464844 203.378906 179.710938 202.972656 179.289063 202.40625 C 178.875 201.839844 179.234375 200.847656 179.75 201.660156 C 180.265625 202.472656 180.96875 201.851563 180.742188 201.347656 C 180.519531 200.847656 180.582031 200.183594 181.484375 201.035156 C 182.875 202.347656 184.269531 205.355469 184.28125 207.179688 C 184.289063 208.078125 184.363281 208.421875 183.878906 207.953125 Z M 172.382813 212.328125 C 174.011719 212.25 173.941406 211.660156 173.097656 211.421875 C 172.25 211.179688 171.851563 209.917969 172.980469 210.328125 C 174.109375 210.738281 174.328125 209.585938 173.722656 209.261719 C 173.117188 208.9375 172.585938 207.28125 173.957031 208.015625 C 175.328125 208.75 179.054688 211.6875 179.960938 212.355469 C 180.867188 213.023438 180.988281 213.519531 180.152344 213.433594 C 179.488281 213.359375 175.441406 213.011719 174.226563 213.25 C 172.371094 213.613281 170.753906 212.410156 172.382813 212.328125 "/>
<path style=" stroke:none;fill-rule:nonzero;fill:rgb(0%,0%,0%);fill-opacity:1;" d="M 189.613281 206.585938 C 189.8125 205.933594 190.023438 204.851563 190.554688 204.105469 C 191.085938 203.367188 190.234375 202.894531 189.976563 203.378906 C 189.71875 203.863281 189.378906 203.785156 189.261719 203.328125 C 189.144531 202.871094 188.417969 202.710938 188.46875 203.511719 C 188.523438 204.3125 189.015625 206.007813 189.023438 206.726563 C 189.035156 207.445313 189.429688 207.171875 189.613281 206.585938 "/>
<path style=" stroke:none;fill-rule:nonzero;fill:rgb(0%,0%,0%);fill-opacity:1;" d="M 193.648438 211.34375 C 194.335938 211.128906 196.097656 211.0625 196.871094 210.863281 C 197.648438 210.660156 197.269531 210.023438 196.800781 210.054688 C 196.328125 210.085938 196.152344 209.785156 196.527344 209.390625 C 196.90625 208.992188 196.191406 208.332031 195.652344 209.070313 C 195.117188 209.804688 194.152344 210.347656 193.597656 210.742188 C 193.097656 211.097656 192.960938 211.558594 193.648438 211.34375 "/>
<path style=" stroke:none;fill-rule:nonzero;fill:rgb(0%,0%,0%);fill-opacity:1;" d="M 182.4375 203.648438 C 182.179688 203.058594 181.722656 203.441406 181.808594 203.808594 C 181.894531 204.175781 181.683594 204.355469 181.320313 204.109375 C 179.820313 203.089844 179.304688 203.894531 181.179688 204.839844 C 181.832031 205.171875 182.382813 205.859375 182.765625 206.246094 C 183.113281 206.597656 183.496094 206.644531 183.234375 206.128906 C 182.976563 205.617188 182.699219 204.234375 182.4375 203.648438 "/>
<path style=" stroke:none;fill-rule:nonzero;fill:rgb(0%,0%,0%);fill-opacity:1;" d="M 175.121094 212.21875 C 176.027344 212.125 177.074219 212.476563 177.738281 212.625 C 178.339844 212.757813 178.773438 212.550781 178.152344 212.183594 C 177.53125 211.820313 176.304688 210.554688 175.636719 210.113281 C 174.964844 209.671875 174.742188 210.382813 175.082031 210.710938 C 175.421875 211.039063 175.320313 211.371094 174.773438 211.355469 C 174.226563 211.34375 174.214844 212.3125 175.121094 212.21875 "/>
<path style=" stroke:none;fill-rule:nonzero;fill:rgb(0%,0%,0%);fill-opacity:1;" d="M 528.917969 273.988281 C 528.054688 261.675781 520.738281 259.894531 521.28125 272.148438 C 522.675781 303.523438 513.335938 361.144531 462.542969 362.972656 C 419.78125 364.511719 395.527344 332.292969 384.257813 284.777344 C 367.390625 213.652344 412.394531 74.4375 440.980469 27.507813 C 448.722656 27.296875 455.808594 24.246094 443.339844 20.242188 C 370.402344 -3.191406 291.769531 247.476563 284.710938 307.492188 C 283.4375 318.3125 282.425781 308.46875 282.484375 307.726563 C 287.082031 249.035156 289.597656 209.0625 254.222656 108.976563 C 260.613281 83.015625 266.539063 47.464844 256.828125 22.574219 C 246.136719 -4.824219 227.144531 -9.992188 220.863281 29.371094 C 217.007813 53.554688 225.800781 95.945313 236.351563 131.835938 C 225.484375 164.261719 214.769531 192.820313 203.359375 217.621094 C 202.734375 217.398438 201.925781 217.199219 200.867188 217.042969 C 197.039063 216.476563 193.476563 219.210938 192.316406 222.355469 C 190.824219 226.394531 194.179688 230.472656 196.703125 227.070313 C 197.75 225.65625 199.007813 223.640625 201.105469 222.441406 C 199.066406 226.753906 197.003906 230.964844 194.90625 235.042969 C 193.390625 230.296875 191.292969 225.621094 188.5625 221.113281 C 188.027344 220.226563 190.996094 220.855469 191.765625 219.0625 C 192.535156 217.269531 191.125 216.496094 190.484375 215.984375 C 189.84375 215.472656 188.179688 217.269531 186.769531 217.394531 C 185.359375 217.523438 183.4375 215.984375 182.667969 216.242188 C 181.621094 216.589844 181.296875 219.414063 181.898438 220.214844 C 182.667969 221.238281 185.496094 220.273438 186.128906 221.238281 C 189.660156 226.632813 192.078125 232.082031 193.636719 237.492188 C 189.003906 246.359375 184.21875 254.625 179.25 262.359375 C 169.339844 260.453125 164.585938 261.753906 161.679688 266.113281 C 157.953125 271.710938 159.984375 277.496094 166.640625 274.867188 C 169.066406 273.910156 171.105469 270.734375 174.449219 269.578125 C 169.886719 276.175781 165.164063 282.351563 160.230469 288.050781 C 153.390625 274.621094 155.597656 265.023438 159.472656 256.738281 C 161.753906 251.863281 158.183594 251.996094 156.886719 256.144531 C 154.386719 264.152344 149.757813 272.859375 157.640625 291.003906 C 151.746094 297.53125 145.566406 303.441406 139.035156 308.738281 C 130.089844 315.992188 121.089844 322.113281 112.128906 326.902344 C 111.386719 326.585938 110.648438 326.265625 109.917969 325.898438 C 83.3125 312.523438 72.460938 334.140625 72.300781 338.539063 C 32.179688 339.449219 -27.222656 292.628906 38.214844 215.085938 C 46.125 205.714844 39.242188 202.660156 31.042969 211.886719 C -31.664063 282.429688 10.855469 347.777344 71.933594 351.425781 C 72.5625 354.308594 73.507813 357.484375 76.40625 359.761719 C 80.40625 362.90625 83.265625 361.476563 80.121094 358.046875 C 77.667969 355.367188 76.785156 354.742188 76.242188 351.621094 C 87.691406 351.757813 99.703125 349.757813 111.734375 345.21875 C 113.757813 347.0625 116.222656 349.316406 117.003906 352.101563 C 118.882813 358.824219 121.539063 359.632813 123.746094 352.902344 C 125.136719 348.671875 123.964844 344.175781 121.484375 340.980469 C 126.183594 338.660156 130.925781 335.90625 135.695313 332.671875 C 149.074219 330.789063 161.621094 326.433594 165.800781 312.976563 C 177.238281 306.71875 186.488281 296.035156 192.089844 283.28125 C 197.894531 274.90625 207.242188 268.234375 218.804688 263.398438 C 221.296875 262.359375 219.207031 260.851563 216.859375 261.929688 C 208.40625 265.828125 200.234375 270.582031 194.507813 276.960938 C 196.425781 271.128906 197.589844 264.972656 197.914063 258.703125 C 216.921875 224.4375 231.507813 185.566406 242.261719 151.011719 C 268.730469 235.980469 272.734375 267.246094 269.425781 324.785156 C 268.324219 343.929688 288.789063 344.859375 292.320313 321.523438 C 308.191406 216.671875 380.488281 44.90625 427.65625 30.578125 C 404.546875 71.871094 370.546875 157.109375 365.164063 236.136719 C 357.136719 353.941406 434.070313 378.523438 466.179688 374.8125 C 505.429688 370.28125 533.308594 336.570313 528.917969 273.988281 Z M 194.28125 225.0625 C 192.867188 225.132813 197.65625 219.011719 199.089844 219.632813 C 200.527344 220.253906 196.753906 224.945313 194.28125 225.0625 Z M 163.6875 270.941406 C 161.515625 270.53125 171.007813 262.964844 172.964844 264.425781 C 174.921875 265.890625 167.492188 271.65625 163.6875 270.941406 Z M 91.445313 335.484375 C 90.015625 334.167969 88.746094 332.414063 88.679688 330.996094 C 88.621094 329.761719 92.335938 332.316406 94.3125 334.582031 C 93.355469 334.894531 92.398438 335.207031 91.445313 335.484375 Z M 97.515625 333.472656 C 96.292969 331.1875 94.308594 329.375 92.066406 328.542969 C 87.019531 326.675781 81.917969 330.867188 86.167969 334.023438 C 86.980469 334.625 88.179688 335.265625 89.390625 336.027344 C 84.742188 337.246094 80.125 338.066406 75.554688 338.390625 C 79.359375 330.90625 85.785156 320.300781 107.71875 329.152344 C 104.308594 330.808594 100.90625 332.234375 97.515625 333.472656 Z M 120.363281 349.347656 C 119.359375 350.765625 116.070313 347.5 114.46875 344.121094 C 115.433594 343.726563 116.402344 343.328125 117.371094 342.898438 C 119.300781 345.253906 121.105469 348.304688 120.363281 349.347656 Z M 141.179688 328.746094 C 148.289063 323.382813 155.433594 316.929688 162.539063 309.214844 C 162.109375 322.960938 149.628906 326.625 141.179688 328.746094 Z M 166.519531 309.535156 C 166.707031 308.035156 166.71875 306.417969 166.554688 304.703125 C 172.371094 297.976563 178.152344 290.410156 183.851563 281.867188 C 187.699219 276.101563 191.378906 270.09375 194.925781 263.941406 C 190.734375 288.242188 173.476563 307.433594 166.519531 309.535156 Z M 247.8125 90.816406 C 241.464844 72.3125 236.277344 54.257813 233.335938 34.1875 C 229.238281 6.246094 243.800781 -3.363281 250.210938 32.097656 C 253.414063 49.816406 252.570313 68.429688 247.8125 90.816406 "/>
</g>
</svg>
