<?xml version="1.0" encoding="UTF-8"?>
<svg xmlns="http://www.w3.org/2000/svg" xmlns:xlink="http://www.w3.org/1999/xlink" width="390pt" height="458pt" viewBox="0 0 390 458" version="1.1">
<g id="surface1">
<path style=" stroke:none;fill-rule:nonzero;fill:rgb(0%,0%,0%);fill-opacity:1;" d="M 57.253906 177.824219 C 55.574219 177.824219 54.199219 179.199219 54.199219 180.875 C 54.199219 182.554688 55.574219 183.929688 57.253906 183.929688 C 58.929688 183.929688 60.304688 182.554688 60.304688 180.875 C 60.304688 179.199219 58.929688 177.824219 57.253906 177.824219 "/>
<path style=" stroke:none;fill-rule:nonzero;fill:rgb(0%,0%,0%);fill-opacity:1;" d="M 125.453125 278.425781 C 123.773438 278.425781 122.398438 279.796875 122.398438 281.476563 C 122.398438 283.15625 123.773438 284.527344 125.453125 284.527344 C 127.132813 284.527344 128.503906 283.15625 128.503906 281.476563 C 128.503906 279.796875 127.132813 278.425781 125.453125 278.425781 "/>
<path style=" stroke:none;fill-rule:nonzero;fill:rgb(0%,0%,0%);fill-opacity:1;" d="M 90.511719 161.1875 C 90.121094 157.636719 86.925781 155.070313 83.375 155.460938 C 79.824219 155.847656 77.660156 158.273438 77.585938 161.996094 C 77.566406 162.953125 77.703125 163.695313 77.953125 164.769531 C 80.347656 165.445313 81.984375 166.136719 83.894531 168.679688 C 84.378906 168.742188 84.753906 168.6875 85.261719 168.628906 C 88.8125 168.242188 90.898438 164.734375 90.511719 161.1875 Z M 81.753906 165.472656 C 81.574219 165.308594 81.59375 165.007813 81.757813 164.988281 C 85.035156 164.628906 87.199219 161.6875 84.472656 157.910156 C 84.089844 157.484375 83.980469 157.222656 84.492188 157.144531 C 93.066406 155.820313 90.027344 172.722656 81.753906 165.472656 "/>
<path style=" stroke:none;fill-rule:nonzero;fill:rgb(0%,0%,0%);fill-opacity:1;" d="M 111.113281 187.351563 C 111.601563 187.410156 111.972656 187.355469 112.480469 187.300781 C 116.03125 186.910156 118.117188 183.40625 117.730469 179.855469 C 117.339844 176.304688 114.144531 173.742188 110.597656 174.132813 C 107.046875 174.519531 104.878906 176.945313 104.804688 180.667969 C 104.785156 181.625 104.921875 182.367188 105.175781 183.441406 C 107.777344 184.175781 109.261719 184.882813 111.113281 187.351563 Z M 108.976563 183.660156 C 113.789063 183.132813 113.480469 178.867188 111.460938 176.269531 C 111.167969 176.007813 111.335938 175.742188 111.738281 175.6875 C 120.800781 174.511719 116.800781 191.425781 108.902344 184.078125 C 108.75 183.9375 108.816406 183.679688 108.976563 183.660156 "/>
<path style=" stroke:none;fill-rule:nonzero;fill:rgb(0%,0%,0%);fill-opacity:1;" d="M 113.175781 229.003906 C 113.175781 226.777344 111.375 224.976563 109.148438 224.976563 C 106.925781 224.976563 105.121094 226.777344 105.121094 229.003906 C 105.121094 231.230469 106.925781 233.03125 109.148438 233.03125 C 111.375 233.03125 113.175781 231.230469 113.175781 229.003906 "/>
<path style=" stroke:none;fill-rule:nonzero;fill:rgb(0%,0%,0%);fill-opacity:1;" d="M 63.617188 183.96875 C 61.9375 183.96875 60.566406 185.339844 60.566406 187.019531 C 60.566406 188.699219 61.9375 190.070313 63.617188 190.070313 C 65.296875 190.070313 66.667969 188.699219 66.667969 187.019531 C 66.667969 185.339844 65.296875 183.96875 63.617188 183.96875 "/>
<path style=" stroke:none;fill-rule:nonzero;fill:rgb(0%,0%,0%);fill-opacity:1;" d="M 112.527344 251.574219 C 110.847656 251.574219 109.476563 252.949219 109.476563 254.628906 C 109.476563 256.308594 110.847656 257.679688 112.527344 257.679688 C 114.207031 257.679688 115.578125 256.308594 115.578125 254.628906 C 115.578125 252.949219 114.207031 251.574219 112.527344 251.574219 "/>
<path style=" stroke:none;fill-rule:nonzero;fill:rgb(0%,0%,0%);fill-opacity:1;" d="M 264.484375 21.109375 C 265.011719 20.933594 266.277344 20.816406 266.867188 20.726563 C 268.351563 20.5 270.46875 20.589844 271.59375 20.96875 C 272.03125 20.742188 272.304688 20.484375 272.691406 20.152344 C 275.398438 17.820313 275.132813 13.75 272.800781 11.042969 C 270.46875 8.339844 266.386719 8.035156 263.679688 10.367188 C 260.972656 12.699219 260.5625 15.925781 262.609375 19.035156 C 263.136719 19.835938 263.671875 20.367188 264.484375 21.109375 Z M 265.445313 11.269531 C 271.542969 6.304688 278.757813 19.503906 268.304688 19.574219 C 268.128906 19.554688 267.957031 19.53125 267.796875 19.507813 C 267.640625 19.480469 267.621094 19.242188 267.746094 19.136719 C 272.238281 15.261719 269.300781 12.609375 265.449219 11.59375 C 265.390625 11.578125 265.363281 11.339844 265.445313 11.269531 "/>
<path style=" stroke:none;fill-rule:nonzero;fill:rgb(0%,0%,0%);fill-opacity:1;" d="M 223.878906 20.183594 C 223.972656 20.273438 224.421875 20.394531 224.578125 20.363281 C 226.351563 20.003906 228.628906 19.90625 230.867188 20.230469 C 231.039063 20.253906 231.496094 20.203125 231.589844 20.144531 C 231.867188 19.960938 232.097656 19.753906 232.386719 19.503906 C 235.09375 17.171875 234.828125 13.101563 232.496094 10.394531 C 230.164063 7.6875 226.078125 7.386719 223.371094 9.71875 C 220.667969 12.050781 220.257813 15.277344 222.304688 18.386719 C 222.761719 19.082031 223.226563 19.574219 223.878906 20.183594 Z M 225.140625 10.621094 C 231.746094 4.519531 237.957031 20.300781 227.382813 18.839844 C 227.265625 18.820313 227.3125 18.59375 227.4375 18.488281 C 230.882813 15.519531 229.222656 12.191406 225.261719 10.980469 C 225.160156 10.949219 225.0625 10.695313 225.140625 10.621094 "/>
<path style=" stroke:none;fill-rule:nonzero;fill:rgb(0%,0%,0%);fill-opacity:1;" d="M 210.316406 60.15625 C 210.316406 61.5 211.414063 62.597656 212.757813 62.597656 C 214.101563 62.597656 215.199219 61.5 215.199219 60.15625 C 215.199219 58.8125 214.101563 57.714844 212.757813 57.714844 C 211.414063 57.714844 210.316406 58.8125 210.316406 60.15625 "/>
<path style=" stroke:none;fill-rule:nonzero;fill:rgb(0%,0%,0%);fill-opacity:1;" d="M 210.011719 52.4375 C 211.355469 52.4375 212.453125 51.339844 212.453125 49.996094 C 212.453125 48.652344 211.355469 47.554688 210.011719 47.554688 C 208.671875 47.554688 207.570313 48.652344 207.570313 49.996094 C 207.570313 51.339844 208.671875 52.4375 210.011719 52.4375 "/>
<path style=" stroke:none;fill-rule:nonzero;fill:rgb(0%,0%,0%);fill-opacity:1;" d="M 288.652344 51.039063 C 286.976563 51.039063 285.601563 52.414063 285.601563 54.09375 C 285.601563 55.769531 286.976563 57.144531 288.652344 57.144531 C 290.332031 57.144531 291.703125 55.769531 291.703125 54.09375 C 291.703125 52.414063 290.332031 51.039063 288.652344 51.039063 "/>
<path style=" stroke:none;fill-rule:nonzero;fill:rgb(0%,0%,0%);fill-opacity:1;" d="M 296.785156 68.0625 C 298.464844 68.0625 299.839844 66.6875 299.839844 65.007813 C 299.839844 63.328125 298.464844 61.957031 296.785156 61.957031 C 295.109375 61.957031 293.734375 63.328125 293.734375 65.007813 C 293.734375 66.6875 295.109375 68.0625 296.785156 68.0625 "/>
<path style=" stroke:none;fill-rule:nonzero;fill:rgb(0%,0%,0%);fill-opacity:1;" d="M 207.445313 60.609375 C 207.445313 58.421875 205.417969 56.648438 202.917969 56.648438 C 200.421875 56.648438 198.394531 58.421875 198.394531 60.609375 C 198.394531 62.796875 200.421875 64.570313 202.917969 64.570313 C 205.417969 64.570313 207.445313 62.796875 207.445313 60.609375 "/>
<path style=" stroke:none;fill-rule:nonzero;fill:rgb(0%,0%,0%);fill-opacity:1;" d="M 208.578125 74.011719 C 208.578125 72.667969 207.476563 71.566406 206.132813 71.566406 C 204.792969 71.566406 203.691406 72.667969 203.691406 74.011719 C 203.691406 75.351563 204.792969 76.453125 206.132813 76.453125 C 207.476563 76.453125 208.578125 75.351563 208.578125 74.011719 "/>
<path style=" stroke:none;fill-rule:nonzero;fill:rgb(0%,0%,0%);fill-opacity:1;" d="M 284.640625 66.796875 C 282.140625 66.796875 280.117188 68.570313 280.117188 70.757813 C 280.117188 72.945313 282.140625 74.71875 284.640625 74.71875 C 287.140625 74.71875 289.167969 72.945313 289.167969 70.757813 C 289.167969 68.570313 287.140625 66.796875 284.640625 66.796875 "/>
<path style=" stroke:none;fill-rule:nonzero;fill:rgb(0%,0%,0%);fill-opacity:1;" d="M 211.453125 81.714844 C 208.953125 81.714844 206.925781 83.488281 206.925781 85.675781 C 206.925781 87.863281 208.953125 89.636719 211.453125 89.636719 C 213.953125 89.636719 215.976563 87.863281 215.976563 85.675781 C 215.976563 83.488281 213.953125 81.714844 211.453125 81.714844 "/>
<path style=" stroke:none;fill-rule:nonzero;fill:rgb(0%,0%,0%);fill-opacity:1;" d="M 246.15625 29.527344 C 247.410156 29.003906 248.015625 27.550781 247.492188 26.296875 C 246.972656 25.039063 245.519531 24.4375 244.261719 24.960938 C 243.007813 25.480469 242.40625 26.933594 242.925781 28.1875 C 243.445313 29.445313 244.902344 30.046875 246.15625 29.527344 "/>
<path style=" stroke:none;fill-rule:nonzero;fill:rgb(0%,0%,0%);fill-opacity:1;" d="M 252.765625 29.386719 C 254.019531 28.867188 254.621094 27.414063 254.101563 26.15625 C 253.582031 24.902344 252.128906 24.300781 250.871094 24.820313 C 249.613281 25.34375 249.015625 26.796875 249.535156 28.050781 C 250.054688 29.308594 251.507813 29.910156 252.765625 29.386719 "/>
<path style=" stroke:none;fill-rule:nonzero;fill:rgb(0%,0%,0%);fill-opacity:1;" d="M 270.652344 25.015625 C 268.152344 25.015625 266.128906 26.789063 266.128906 28.976563 C 266.128906 29.558594 266.339844 30.648438 266.597656 31.144531 C 266.640625 31.230469 266.628906 31.476563 266.574219 31.515625 C 254.117188 40.613281 243.042969 40.375 229.96875 30.757813 C 229.933594 30.730469 229.640625 30.398438 229.75 30.222656 C 231.171875 27.894531 229.480469 25.015625 225.453125 25.015625 C 222.953125 25.015625 220.925781 26.789063 220.925781 28.976563 C 220.925781 31.164063 222.953125 32.9375 225.453125 32.9375 C 226.617188 32.9375 227.679688 32.546875 228.480469 31.914063 C 228.566406 31.847656 228.882813 31.8125 228.960938 31.867188 C 240.996094 41.324219 253.277344 43.984375 267.664063 32.292969 C 267.742188 32.230469 268.027344 32.195313 268.09375 32.238281 C 268.824219 32.675781 269.703125 32.9375 270.652344 32.9375 C 273.152344 32.9375 275.179688 31.164063 275.179688 28.976563 C 275.179688 26.789063 273.152344 25.015625 270.652344 25.015625 "/>
<path style=" stroke:none;fill-rule:nonzero;fill:rgb(0%,0%,0%);fill-opacity:1;" d="M 389.785156 173.566406 L 386.335938 108.820313 L 330.722656 108.820313 C 320.667969 105.527344 306.28125 100.859375 300.121094 100.476563 C 296.503906 100.25 293.972656 100.285156 296.519531 98.476563 C 304.121094 93.074219 319.171875 58 308.320313 46.277344 C 299.808594 37.078125 294.734375 40.265625 290.785156 38.210938 C 285.480469 35.441406 282.652344 29.40625 284.652344 23.277344 C 286.902344 16.371094 282.152344 2.746094 267.851563 2.542969 C 260.8125 2.441406 256.300781 9.292969 256.253906 11.675781 C 256.234375 12.601563 255.683594 12.851563 254.761719 13.140625 C 251.449219 14.164063 245.777344 14.625 242.585938 13.210938 C 241.59375 12.773438 240.886719 12.320313 240.652344 11.542969 C 240.742188 11.839844 239.996094 -0.730469 226.320313 1.140625 C 214.46875 2.765625 210.984375 20.542969 213.652344 27.542969 C 218.257813 39.632813 210.101563 42.007813 206.71875 42.007813 C 202.542969 42.007813 200.414063 40.941406 191.652344 49.875 C 181.707031 60.019531 199.882813 93.238281 201.320313 95.675781 C 202.851563 98.277344 203.734375 101.519531 199.71875 101.675781 C 190.503906 102.035156 184.15625 105.6875 180.628906 108.820313 L 147.332031 108.820313 L 146.929688 122.984375 C 146.929688 122.984375 198.304688 111.511719 197.941406 168.847656 L 197.941406 330.34375 C 197.941406 330.34375 197.042969 330.707031 196.589844 330.476563 C 193.320313 328.820313 189.820313 328.183594 186.445313 325.324219 C 178.230469 318.355469 175.714844 307.265625 169.941406 298.160156 C 163.007813 287.230469 154.5 280.214844 144.980469 272.394531 C 144.894531 272.324219 144.863281 271.902344 144.910156 271.753906 C 153.347656 245.808594 152.703125 227.941406 147.554688 216.167969 C 140.640625 200.355469 126.785156 193.777344 121.539063 190.648438 C 121.378906 190.554688 121.589844 190.144531 121.660156 190.046875 C 128.925781 180.523438 122.789063 156.707031 100.558594 172.859375 C 99.8125 173.648438 93.890625 169.304688 94.429688 168.0625 C 102.761719 157.214844 87.277344 135.644531 72.097656 160.289063 C 52.175781 162.332031 39.234375 182.976563 45.839844 194.398438 C 47.242188 200.800781 60.351563 212.527344 65.535156 216.636719 C 66.007813 217.007813 66.003906 217.59375 65.320313 217.695313 C 58.503906 218.714844 31.761719 224.066406 17.515625 198.769531 C 15.050781 194.386719 9.890625 198.460938 12.519531 204.148438 C 13.078125 204.890625 13.082031 205.683594 11.585938 205.554688 C 5.894531 205.058594 1.273438 205.632813 7.429688 211.828125 C 7.765625 212.164063 7.628906 212.835938 7.257813 212.964844 C 0.929688 215.164063 2.5625 218.46875 8.242188 219.90625 C 13.144531 221.015625 17.15625 219.769531 19.347656 219.980469 C 40.425781 226.769531 46.410156 228.710938 59.589844 233.402344 C 65.164063 235.390625 61.570313 236.023438 57.996094 237.175781 C 53.613281 238.585938 45.667969 242.269531 39.085938 242.894531 C 27.726563 243.972656 16.03125 239.847656 5.453125 244.832031 C -0.414063 247.53125 -1.285156 252.464844 3.574219 252.832031 C 6.105469 253.019531 8.058594 253.257813 9.128906 253.113281 C 9.609375 253.011719 10.78125 253.035156 9.960938 253.847656 C 8.929688 255.535156 7.902344 257.023438 6.429688 258.984375 C 4.851563 261.007813 5.90625 264.324219 9.308594 263.054688 C 10.691406 262.34375 11.792969 261.867188 11.792969 261.867188 C 12.554688 261.902344 12.3125 262.230469 11.882813 262.769531 C 10.398438 264.617188 9.429688 268.71875 15.703125 267.742188 C 18.730469 267.273438 22.402344 264.652344 25.453125 260.875 C 31.910156 254.238281 44.460938 256.527344 54.886719 256.289063 C 61.054688 256.148438 65.792969 255.382813 67.824219 259.515625 C 76.46875 277.246094 83.902344 277.476563 89.757813 278.5 C 90.40625 278.582031 90.410156 279.480469 90.367188 279.699219 C 86.855469 307.214844 131.230469 321.484375 145.835938 326.769531 C 149.179688 328.527344 150.484375 330.058594 147.277344 332.828125 C 127.921875 349.09375 145.144531 355.605469 150.640625 351.019531 C 150.84375 350.851563 151.34375 350.722656 151.550781 351.03125 C 153.027344 353.210938 158.859375 360.464844 165.617188 352.589844 C 166.152344 351.800781 167.054688 351.804688 167.664063 352.679688 C 171.914063 358.804688 176.839844 363.082031 181.390625 353.714844 C 181.722656 352.503906 181.972656 351.664063 182.890625 352.902344 C 189.898438 362.335938 194.890625 356.21875 195.121094 349.140625 C 194.472656 346.734375 195.464844 347.582031 196.03125 348.078125 C 196.679688 348.464844 197.011719 348.6875 197.589844 348.71875 C 197.695313 348.726563 197.941406 349.144531 197.941406 349.144531 L 197.941406 398.382813 C 198.015625 452.875 147.332031 443.792969 147.332031 443.792969 L 147.332031 457.730469 L 293.933594 457.730469 L 293.933594 443.792969 C 293.933594 443.792969 245.753906 450.648438 243.351563 398.382813 L 243.351563 288.671875 L 296.632813 288.671875 C 358.484375 286.859375 351.488281 323.371094 351.488281 323.371094 L 368.800781 323.371094 L 368.800781 239.808594 L 351.488281 239.808594 C 351.488281 239.808594 362.019531 275.523438 296.632813 274.507813 L 243.351563 274.507813 L 243.351563 126.355469 L 291.6875 126.355469 C 380.304688 127.957031 375.769531 173.566406 375.769531 173.566406 Z M 20.9375 218.566406 C 15.800781 216.660156 11.613281 218.382813 9.453125 217.992188 C 5.863281 217.347656 6.539063 215.441406 9.296875 214.671875 C 10.332031 214.382813 11.59375 214.226563 12.5625 214.039063 C 15.210938 213.523438 13.554688 212.429688 12.746094 212.019531 C 11.59375 211.441406 9.941406 210.882813 8.785156 210.210938 C 6.519531 208.898438 6.910156 207.546875 9.449219 207.394531 C 10.960938 207.304688 13.007813 207.621094 14.507813 207.773438 C 16.789063 208.003906 17.339844 207.851563 16.542969 205.878906 C 16.09375 204.761719 15.015625 203.449219 14.160156 202.023438 C 12.785156 199.734375 15.183594 199.484375 16.316406 200.839844 C 19.703125 204.695313 22.132813 209.597656 26.417969 212.882813 C 34.457031 219.011719 44.425781 220.054688 53.9375 220.5625 C 58.53125 220.8125 61.796875 220.289063 66.28125 221.035156 C 64.351563 223.777344 64.152344 230.277344 64.722656 232.796875 C 64.722656 232.796875 49.304688 229.082031 20.9375 218.566406 Z M 160.617188 352.582031 C 156.113281 355.511719 154.082031 350.460938 153.125 347.96875 C 152.289063 345.78125 151.554688 345.242188 149.660156 347.863281 C 148.308594 349.742188 147.046875 351.421875 143.664063 349.28125 C 141.023438 347.609375 140.996094 344.621094 142.582031 342.066406 C 144.746094 338.886719 148.699219 338.121094 150.6875 334.734375 C 154.042969 329.011719 152.878906 325.378906 146.105469 324.433594 C 134.09375 322.761719 87.132813 300.1875 92.667969 281.066406 C 92.882813 280.535156 93.597656 280.191406 94.25 280.355469 C 97.027344 281.039063 101.734375 281.921875 104.613281 281.273438 C 105.398438 281.109375 105.820313 281.589844 105.882813 281.804688 C 112.773438 305.492188 157.902344 309.308594 160.886719 323.746094 C 161.769531 328.03125 160.78125 332.21875 160.121094 336.488281 C 159.589844 339.921875 160.730469 343.050781 161.164063 346.410156 C 161.417969 348.34375 162.703125 351.226563 160.617188 352.582031 Z M 167.039063 340.734375 C 166.378906 342.09375 165.621094 343.882813 165.09375 342.550781 C 164.328125 340.628906 163.765625 338.480469 165.359375 331.378906 C 165.820313 329.335938 163.753906 323.535156 162.933594 320.074219 C 162.300781 317.394531 162.40625 316.113281 165.003906 319.054688 C 166.050781 320.242188 177.136719 329.746094 173.222656 332.917969 C 170.257813 335.148438 168.367188 338.445313 167.039063 340.734375 Z M 197.273438 344.757813 C 196.339844 344.089844 194.039063 341.304688 192.117188 338.726563 C 189.835938 335.667969 187.15625 338.320313 188.074219 341.476563 C 188.074219 341.476563 194.269531 349.921875 189.191406 352.742188 C 185.25 353.558594 183.746094 349.660156 182.792969 347.191406 C 182.027344 345.210938 178.695313 342.09375 178.101563 347.734375 C 177.886719 349.746094 178.742188 352.234375 177.214844 353.527344 C 175.121094 355.304688 171.226563 352.585938 169.527344 350.25 C 164.503906 341.886719 175.582031 333.746094 175.5625 333.6875 C 177.574219 331.925781 178.628906 328.683594 167.753906 318.050781 C 164.828125 315.203125 161.417969 313.089844 157.554688 311.820313 C 148.066406 308.71875 139.011719 305.894531 130.3125 300.652344 C 122.402344 295.871094 113.601563 288.414063 111.59375 281.246094 C 109.8125 274.875 106.609375 276.3125 106.609375 276.3125 C 82.902344 280.023438 72.757813 265.710938 70.179688 257.449219 C 69.878906 256.488281 70.328125 256.335938 71.117188 256.289063 C 72.691406 256.199219 75.753906 256.253906 77.757813 255.945313 C 80.675781 255.496094 80.277344 253.859375 77.722656 253.910156 C 72.550781 254.019531 35.804688 252.578125 27.335938 256.347656 C 24.171875 257.757813 21.019531 263.460938 17.25 265.402344 C 14.898438 266.613281 11.472656 266.011719 13.8125 263.375 C 14.503906 262.597656 15.402344 261.71875 16.113281 260.871094 C 18.796875 257.648438 16.316406 256.796875 13.117188 259.199219 C 9.617188 261.820313 7.917969 260.507813 11.011719 256.988281 C 12.628906 255.144531 14.300781 253.535156 14.546875 253.273438 C 16.125 251.589844 14.292969 250.519531 12.519531 250.519531 C 10.8125 250.519531 10.140625 250.542969 8.25 250.660156 C 3.367188 250.972656 2.167969 248.636719 7.472656 246.5625 C 12.777344 244.484375 23.167969 243.894531 34.683594 245.640625 C 43.285156 246.945313 55.507813 240.976563 63.835938 237.691406 C 65.097656 237.195313 70.042969 235.152344 72.496094 233.523438 C 74.589844 232.179688 74.4375 230.519531 71.558594 231.207031 C 70.601563 231.4375 69.464844 232.046875 68.660156 232.261719 C 68.167969 232.390625 67.550781 232.078125 67.253906 231.476563 C 65.9375 227.847656 68.253906 219.976563 72.117188 220.746094 C 78.621094 222.035156 95.292969 221.710938 103.769531 216.679688 C 106.007813 215.351563 104.765625 213.480469 102.058594 215.222656 C 99.488281 216.570313 77.707031 225.582031 61.96875 210.648438 C 59.226563 208.046875 54.386719 202.820313 53.253906 200.375 C 52.957031 199.738281 53.441406 199.328125 53.953125 199.617188 C 57.535156 201.640625 73.792969 209.277344 91.066406 201.882813 C 94.09375 200.585938 92.800781 198.824219 91.703125 199.503906 C 78.476563 207.667969 46.660156 200.847656 46.917969 188.410156 C 47.308594 169.757813 67.378906 163.273438 73.921875 161.671875 C 87.804688 138.550781 99.105469 160.800781 90.921875 168.101563 C 90.261719 168.691406 90.355469 169.535156 90.917969 170.476563 C 92.265625 172.722656 96.289063 175.496094 99.011719 176.578125 C 100.207031 177.054688 101.148438 177.203125 101.507813 176.839844 C 118.101563 159.867188 127.503906 178.28125 116.203125 189.578125 C 116.125 189.65625 116.03125 189.902344 116.183594 190.046875 C 119.441406 191.882813 128.1875 197.742188 134.203125 204.875 C 134.300781 204.976563 134.234375 205.269531 134.101563 205.328125 C 131.96875 206.335938 127.636719 209.550781 127.636719 211.839844 C 127.636719 215.019531 130.210938 217.597656 133.390625 217.597656 C 135.796875 217.597656 139.019531 214.683594 140.011719 212.429688 C 140.070313 212.296875 140.335938 212.253906 140.417969 212.363281 C 143.464844 216.292969 146.191406 221.703125 147.46875 226.523438 C 147.519531 226.71875 147.296875 226.921875 147.09375 226.84375 C 145.636719 226.296875 142.90625 226.335938 141.53125 226.335938 C 137.398438 226.335938 134.046875 229.683594 134.046875 233.816406 C 134.046875 237.945313 137.398438 241.296875 141.53125 241.296875 C 143.675781 241.296875 145.605469 240.390625 146.972656 238.945313 C 147.0625 238.847656 147.242188 238.832031 147.246094 238.925781 C 147.5 249.796875 143.238281 260.316406 138.835938 270.210938 C 137.703125 272.855469 139.125 273.679688 140.539063 274.863281 C 145.824219 279.296875 152.207031 283.234375 157.105469 288.484375 C 160.335938 291.945313 162.636719 294.894531 165.460938 298.863281 C 170.699219 306.238281 173.246094 314.335938 178.613281 321.613281 C 183.089844 327.6875 188.808594 331.074219 195.144531 334.558594 C 196.027344 335.039063 197.023438 335.878906 197.941406 336.878906 L 197.941406 344.34375 C 197.941406 344.34375 198.207031 345.421875 197.273438 344.757813 Z M 320.320313 108.820313 L 275.933594 108.820313 C 272.914063 105.519531 265.238281 97.230469 264.785156 94.074219 C 264.253906 90.34375 269.652344 78.757813 271.71875 75.144531 C 272.785156 73.277344 270.921875 71.941406 269.054688 74.609375 C 267.1875 77.277344 262.386719 91.410156 262.921875 94.609375 C 263.335938 97.101563 269.242188 104.4375 273.222656 108.570313 C 273.304688 108.65625 273.121094 108.820313 273.121094 108.820313 L 266.964844 108.820313 C 266.148438 106.765625 264.980469 103.820313 264.539063 102.535156 C 264.019531 101.019531 262.035156 102.019531 262.488281 103.027344 C 262.808594 103.742188 263.996094 106.949219 264.625 108.820313 L 260.734375 108.820313 C 259.921875 106.769531 258.777344 103.882813 258.339844 102.609375 C 257.820313 101.097656 255.835938 102.097656 256.289063 103.105469 C 256.605469 103.808594 257.765625 106.9375 258.402344 108.820313 L 253.566406 108.820313 C 253.464844 106.703125 253.351563 104.082031 253.351563 102.875 C 253.351563 101.277344 251.152344 101.574219 251.253906 102.675781 C 251.324219 103.453125 251.40625 106.839844 251.390625 108.820313 L 247.941406 108.820313 C 247.773438 99.429688 247.226563 75.710938 247.453125 74.34375 C 247.71875 72.742188 243.984375 71.410156 244.253906 74.074219 C 244.667969 78.226563 244.566406 101.648438 244.699219 108.820313 L 242.152344 108.820313 C 242.125 106.894531 242.214844 103.222656 242.285156 102.410156 C 242.386719 101.308594 240.1875 101.007813 240.1875 102.609375 C 240.1875 103.867188 240.0625 106.660156 239.960938 108.820313 L 235.144531 108.820313 C 235.796875 106.957031 236.710938 104.515625 236.984375 103.90625 C 237.4375 102.898438 235.453125 101.898438 234.933594 103.410156 C 234.550781 104.523438 233.625 106.875 232.855469 108.820313 L 229.640625 108.820313 C 230.273438 107.035156 231.066406 104.925781 231.316406 104.359375 C 231.769531 103.351563 229.789063 102.355469 229.265625 103.867188 C 228.914063 104.894531 228.101563 106.976563 227.371094 108.820313 L 222.1875 108.820313 C 222.1875 108.820313 222.039063 108.710938 222.09375 108.652344 C 226.070313 104.484375 231.8125 97.328125 232.21875 94.875 C 232.753906 91.675781 227.953125 77.542969 226.085938 74.875 C 224.558594 72.691406 223.144531 73.359375 223.246094 74.667969 C 223.257813 74.785156 223.078125 74.992188 222.785156 74.980469 C 221.839844 74.9375 219.921875 75.515625 219.972656 78.171875 C 219.996094 79.511719 221.472656 80.011719 222.8125 80.011719 C 223.609375 80.011719 224.265625 79.398438 224.695313 78.726563 C 224.785156 78.585938 225.046875 78.53125 225.101563 78.652344 C 227.515625 83.601563 230.773438 91.402344 230.351563 94.34375 C 229.914063 97.414063 222.613281 105.359375 219.449219 108.820313 L 186.386719 108.820313 C 186.386719 108.820313 185.359375 108.871094 186.261719 108.496094 C 187.800781 107.859375 189.714844 107.125 192.117188 106.476563 C 204.5 103.128906 212.117188 104.875 208.917969 101.277344 C 207.109375 99.238281 199.464844 86.558594 195.132813 74.269531 C 195.101563 74.183594 195.265625 74.046875 195.386719 74.046875 C 197.0625 74.046875 198.4375 72.671875 198.4375 70.992188 C 198.4375 69.3125 197.0625 67.941406 195.386719 67.941406 C 194.730469 67.941406 194.128906 68.15625 193.632813 68.515625 C 193.554688 68.570313 193.359375 68.511719 193.335938 68.421875 C 191.5 61.230469 191.414063 54.828125 195.117188 51.675781 C 205.917969 42.476563 208.867188 46.066406 213.519531 43.609375 C 218.1875 41.144531 218.429688 31.835938 216.453125 26.542969 C 212.371094 15.621094 221.351563 4.714844 226.253906 4.140625 C 238.527344 2.710938 235.765625 12.027344 239.253906 14.742188 C 241.8125 16.734375 257.011719 15.765625 257.652344 14.941406 C 259.320313 12.796875 261.738281 5.421875 267.753906 5.375 C 280.671875 5.28125 283.46875 16.015625 281.453125 24.074219 C 278.582031 35.5625 287.730469 41.691406 296.261719 44.042969 C 296.382813 44.074219 296.558594 44.320313 296.53125 44.410156 C 296.445313 44.6875 296.402344 44.976563 296.402344 45.277344 C 296.402344 46.953125 297.773438 48.328125 299.453125 48.328125 C 300.808594 48.328125 301.964844 47.429688 302.359375 46.199219 C 302.390625 46.101563 302.652344 46.015625 302.757813 46.078125 C 304.785156 47.328125 306.199219 49.65625 307.035156 52.660156 C 307.089844 52.855469 307.0625 53.382813 306.386719 53.183594 C 303.988281 52.472656 301.859375 54.953125 301.859375 57.144531 C 301.859375 59.328125 303.886719 61.101563 306.386719 61.101563 C 306.804688 61.101563 307.207031 61.050781 307.589844 60.957031 C 307.722656 60.925781 307.972656 61.042969 307.972656 61.144531 C 307.8125 70.480469 304.492188 81.867188 298.640625 89.515625 C 298.601563 89.570313 298.226563 89.617188 298.199219 89.464844 C 297.96875 88.011719 296.703125 86.890625 295.1875 86.890625 C 293.507813 86.890625 292.132813 88.265625 292.132813 89.941406 C 292.132813 93.15625 295.464844 92.984375 295.601563 92.960938 C 295.78125 92.933594 295.929688 93.105469 295.832031 93.242188 C 288.878906 102.757813 290.242188 103.339844 295.71875 102.875 C 300.640625 102.460938 312.023438 105.394531 320.183594 108.347656 C 320.625 108.503906 320.320313 108.820313 320.320313 108.820313 "/>
<path style=" stroke:none;fill-rule:nonzero;fill:rgb(0%,0%,0%);fill-opacity:1;" d="M 126.878906 241.179688 C 124.65625 241.179688 122.851563 242.984375 122.851563 245.210938 C 122.851563 247.433594 124.65625 249.238281 126.878906 249.238281 C 129.105469 249.238281 130.910156 247.433594 130.910156 245.210938 C 130.910156 242.984375 129.105469 241.179688 126.878906 241.179688 "/>
<path style=" stroke:none;fill-rule:nonzero;fill:rgb(0%,0%,0%);fill-opacity:1;" d="M 126.472656 228.28125 C 128.699219 228.28125 130.5 226.476563 130.5 224.253906 C 130.5 222.027344 128.699219 220.222656 126.472656 220.222656 C 124.246094 220.222656 122.445313 222.027344 122.445313 224.253906 C 122.445313 226.476563 124.246094 228.28125 126.472656 228.28125 "/>
<path style=" stroke:none;fill-rule:nonzero;fill:rgb(0%,0%,0%);fill-opacity:1;" d="M 139.496094 282.035156 C 137.816406 282.035156 136.441406 283.410156 136.441406 285.089844 C 136.441406 286.765625 137.816406 288.140625 139.496094 288.140625 C 141.171875 288.140625 142.546875 286.765625 142.546875 285.089844 C 142.546875 283.410156 141.171875 282.035156 139.496094 282.035156 "/>
<path style=" stroke:none;fill-rule:nonzero;fill:rgb(0%,0%,0%);fill-opacity:1;" d="M 128.507813 259.25 C 126.828125 259.25 125.457031 260.621094 125.457031 262.300781 C 125.457031 263.980469 126.828125 265.351563 128.507813 265.351563 C 130.1875 265.351563 131.558594 263.980469 131.558594 262.300781 C 131.558594 260.621094 130.1875 259.25 128.507813 259.25 "/>
<path style=" stroke:none;fill-rule:nonzero;fill:rgb(0%,0%,0%);fill-opacity:1;" d="M 140.511719 248.464844 C 140.511719 246.785156 139.140625 245.414063 137.460938 245.414063 C 135.78125 245.414063 134.40625 246.785156 134.40625 248.464844 C 134.40625 250.144531 135.78125 251.515625 137.460938 251.515625 C 139.140625 251.515625 140.511719 250.144531 140.511719 248.464844 "/>
<path style=" stroke:none;fill-rule:nonzero;fill:rgb(0%,0%,0%);fill-opacity:1;" d="M 118.742188 210.414063 C 117.0625 210.414063 115.6875 211.789063 115.6875 213.46875 C 115.6875 215.148438 117.0625 216.519531 118.742188 216.519531 C 120.421875 216.519531 121.792969 215.148438 121.792969 213.46875 C 121.792969 211.789063 120.421875 210.414063 118.742188 210.414063 "/>
</g>
</svg>
