<?xml version="1.0" encoding="UTF-8"?>
<svg xmlns="http://www.w3.org/2000/svg" xmlns:xlink="http://www.w3.org/1999/xlink" width="338pt" height="509pt" viewBox="0 0 338 509" version="1.1">
<g id="surface1">
<path style=" stroke:none;fill-rule:nonzero;fill:rgb(0%,0%,0%);fill-opacity:1;" d="M 330.355469 487.902344 C 312.65625 476.578125 295.035156 467.050781 294.902344 446.375 C 294.589844 397.277344 293.0625 335.800781 295.3125 295.675781 C 296.488281 274.746094 317.417969 273.277344 327.417969 272.652344 C 336.203125 272.105469 338.015625 266.070313 326.777344 263.820313 C 314.277344 261.320313 291.972656 254.527344 291.800781 222.652344 C 291.628906 190.773438 292.902344 131.734375 292.652344 75.734375 C 292.527344 47.226563 290.453125 28.335938 311.3125 22.128906 C 340.050781 13.578125 345.96875 0.125 323.78125 0.125 C 314.40625 0.125 167.28125 0.125 156.03125 0.125 C 134.46875 0.125 124.609375 10.226563 139.777344 17.066406 C 155.714844 24.253906 192.535156 23.882813 192.535156 52.632813 C 192.535156 81.382813 192.519531 156.050781 192.859375 166 C 193.203125 175.949219 192.785156 172.617188 184.195313 166.878906 C 123.371094 126.253906 52.398438 183.65625 35.816406 243.351563 C 29.1875 267.21875 13.160156 263.652344 6.542969 264.445313 C -0.660156 265.3125 -1.558594 272.480469 7.816406 274.042969 C 18.550781 275.832031 26.621094 282.585938 26.019531 297.953125 C 25.027344 323.125 24.492188 397.644531 46.578125 441.773438 C 60.691406 469.976563 83.996094 507.480469 129.277344 508.25 C 166.152344 508.875 181.742188 491.789063 187.761719 485.792969 C 193.777344 479.796875 195.261719 479.773438 198.386719 484.773438 C 201.511719 489.773438 206.152344 503.542969 226.152344 503.421875 C 246.152344 503.300781 309.355469 503.539063 320.527344 503.539063 C 331.699219 503.539063 348.058594 499.222656 330.355469 487.902344 Z M 129.417969 413.664063 C 120.273438 384.863281 118.730469 341.746094 118.519531 317.492188 C 118.265625 288.246094 126.703125 276.832031 142.03125 271.3125 C 149.84375 268.5 147.96875 265.3125 140.765625 264.445313 C 135.046875 263.757813 120.347656 260.679688 122.234375 245.539063 C 127.953125 197.503906 194.902344 186.539063 194.902344 235.628906 C 194.902344 251.265625 194.277344 383.039063 194.902344 395.125 C 196.957031 434.855469 145.039063 462.871094 129.417969 413.664063 "/>
</g>
</svg>
