<?xml version="1.0" encoding="UTF-8"?>
<svg xmlns="http://www.w3.org/2000/svg" xmlns:xlink="http://www.w3.org/1999/xlink" width="412pt" height="375pt" viewBox="0 0 412 375" version="1.1">
<g id="surface1">
<path style=" stroke:none;fill-rule:nonzero;fill:rgb(0%,0%,0%);fill-opacity:1;" d="M 117.570313 237.738281 C 118.78125 238.097656 119.539063 237.46875 119.183594 238.410156 C 118.90625 239.234375 119.453125 240.621094 119.855469 239.6875 C 120.394531 238.140625 121.605469 237.132813 122.75 235.988281 C 123.421875 235.652344 124.230469 234.441406 125.035156 234.710938 C 124.632813 236.59375 123.21875 237.46875 122.613281 239.351563 C 122.4375 239.992188 121.808594 241.167969 123.21875 240.828125 C 124.632813 239.285156 125.84375 237.601563 127.792969 236.929688 C 127.390625 238.546875 126.046875 240.023438 126.3125 242.109375 C 127.792969 241.972656 128.53125 239.21875 130.347656 239.21875 C 129.8125 239.957031 129.40625 240.765625 129.40625 241.773438 C 131.964844 241.101563 134.453125 239.753906 137.613281 240.496094 C 136.871094 242.175781 134.722656 242.644531 132.90625 242.914063 C 131.828125 243.320313 130.550781 244.261719 131.289063 245.671875 C 132.90625 246.078125 133.914063 244.933594 135.324219 244.867188 C 136 244.53125 137.140625 243.65625 137.746094 244.058594 C 136.871094 247.019531 133.710938 247.355469 131.15625 247.757813 C 130.617188 247.691406 130.59375 248.101563 130.347656 248.429688 C 130.148438 248.835938 129.945313 249.707031 130.683594 250.046875 C 133.242188 250.246094 135.527344 249.707031 137.746094 249.238281 C 138.117188 249.152344 138.199219 249.320313 137.949219 249.507813 C 137.074219 250.113281 136.132813 250.582031 135.191406 250.851563 C 134.335938 251.046875 134.046875 251.859375 133.710938 252.9375 C 149.945313 252.734375 153.71875 237.222656 147.164063 234.375 C 144.339844 232.828125 147.511719 231.339844 146.625 228.523438 C 143.765625 221.914063 134.992188 218.972656 127.59375 228.050781 C 126.648438 228.59375 125.703125 228.402344 124.757813 228.21875 C 121.167969 227.515625 118.832031 229.132813 116.964844 233.363281 C 117.167969 234.84375 115.6875 236.929688 117.570313 237.738281 "/>
<path style=" stroke:none;fill-rule:nonzero;fill:rgb(0%,0%,0%);fill-opacity:1;" d="M 123.21875 252.265625 C 125.105469 251.054688 126.785156 249.707031 127.59375 247.621094 C 128.0625 246.414063 127.523438 245.269531 126.785156 244.394531 C 124.496094 242.378906 120.800781 243.789063 119.183594 245.335938 C 118.378906 246.683594 119.707031 247.597656 120.195313 248.566406 C 122.078125 248.902344 122.277344 246.882813 123.554688 246.144531 C 124.027344 245.738281 125.085938 245.453125 125.507813 246.007813 C 126.222656 247.933594 124.363281 249.238281 123.21875 250.851563 C 122.816406 251.121094 122.75 252.128906 123.21875 252.265625 "/>
<path style=" stroke:none;fill-rule:nonzero;fill:rgb(0%,0%,0%);fill-opacity:1;" d="M 113.871094 248.699219 C 112.796875 250.046875 112.054688 251.464844 112.59375 252.9375 C 113.335938 254.28125 114.878906 255.558594 116.628906 255.359375 C 117.816406 255.207031 120.195313 254.484375 120.664063 252.128906 C 118.914063 251.1875 115.890625 254.6875 114.546875 251.660156 C 115.554688 249.976563 117.503906 251.523438 118.578125 250.3125 C 118.644531 249.507813 118.511719 248.835938 117.90625 248.230469 C 116.832031 246.078125 114.914063 247.722656 113.871094 248.699219 "/>
<path style=" stroke:none;fill-rule:nonzero;fill:rgb(0%,0%,0%);fill-opacity:1;" d="M 118.914063 257.308594 C 119.855469 258.585938 121.335938 259.324219 122.949219 259.527344 C 124.582031 259.746094 126.648438 257.511719 126.984375 255.359375 C 126.851563 254.148438 126.648438 252.464844 125.507813 252.601563 C 124.96875 252.871094 124.496094 253.339844 124.699219 254.078125 C 125.128906 256.132813 124.328125 256.507813 123.421875 256.972656 C 121.671875 257.441406 120.464844 256.300781 119.386719 255.492188 C 118.914063 255.964844 118.847656 256.566406 118.914063 257.308594 "/>
<path style=" stroke:none;fill-rule:nonzero;fill:rgb(0%,0%,0%);fill-opacity:1;" d="M 136.671875 277.617188 C 147.601563 274.496094 151.4375 263.949219 138.085938 256.636719 C 135.847656 255.628906 130.214844 253.878906 127.792969 257.308594 C 129.140625 258.226563 131.328125 257.972656 132.824219 258.6875 C 133.242188 258.921875 133.402344 259.0625 132.945313 259.15625 C 130.523438 259.589844 126.90625 258.960938 125.640625 261.613281 C 127.082031 264.429688 130.734375 265.730469 133.183594 267.90625 C 133.539063 268.21875 133.492188 268.488281 132.914063 268.328125 C 128.976563 267.757813 125.746094 264.460938 122.277344 262.757813 C 121.203125 264.839844 124.09375 266.65625 124.230469 268.605469 C 122.019531 269.078125 120.933594 264.570313 118.914063 262.957031 C 118.578125 264.503906 118.039063 266.789063 118.714844 268.605469 C 118.863281 268.949219 118.65625 269.078125 118.378906 268.875 C 116.425781 267.734375 116.832031 265.042969 116.765625 262.757813 C 114.476563 263.292969 114.957031 265.714844 115.015625 267.261719 C 115.214844 271.566406 117.234375 274.929688 120.800781 277.148438 C 124.027344 278.292969 125.574219 275.132813 128.398438 275.199219 C 130.886719 276.746094 133.511719 278.292969 136.671875 277.617188 "/>
<path style=" stroke:none;fill-rule:nonzero;fill:rgb(0%,0%,0%);fill-opacity:1;" d="M 128.734375 288.109375 C 126.046875 287.640625 122.414063 288.449219 119.992188 286.832031 C 120.261719 285.152344 121.554688 286.5625 123.085938 286.496094 C 124.429688 286.226563 126.515625 286.496094 126.785156 285.015625 C 125.171875 283.941406 123.285156 283.539063 121.335938 283.269531 C 118.3125 281.988281 118.378906 278.898438 117.101563 276.140625 C 115.082031 275.667969 115.957031 272.507813 113.535156 272.441406 C 112.863281 275.265625 116.089844 277.820313 115.148438 280.511719 C 114.273438 285.824219 116.964844 289.925781 119.855469 293.625 C 121.671875 294.367188 122.949219 298.265625 125.371094 295.84375 C 125.976563 294.566406 124.296875 294.5 124.363281 293.425781 C 124.96875 293.019531 125.976563 293.019531 126.3125 292.28125 C 124.160156 289.589844 129.003906 290.398438 128.734375 288.109375 "/>
<path style=" stroke:none;fill-rule:nonzero;fill:rgb(0%,0%,0%);fill-opacity:1;" d="M 129.070313 296.046875 C 132.972656 294.703125 134.746094 291.089844 134.519531 287.4375 C 133.847656 284.546875 133.242188 281.722656 130.683594 279.90625 C 129.609375 279.90625 128.195313 277.082031 127.457031 279.097656 C 127.105469 280.175781 129.476563 281.386719 130.484375 282.125 C 132.570313 284.480469 132.164063 288.378906 130.820313 291.207031 C 130.011719 292.886719 128.195313 293.960938 127.59375 295.710938 C 127.859375 296.316406 128.53125 296.191406 129.070313 296.046875 "/>
<path style=" stroke:none;fill-rule:nonzero;fill:rgb(0%,0%,0%);fill-opacity:1;" d="M 190.488281 315.429688 C 193.523438 315.769531 195.167969 313 196.691406 311.03125 C 197.578125 309.964844 196.257813 308.871094 195.277344 309.285156 C 194.261719 309.660156 193.273438 310.53125 191.8125 309.730469 C 190.585938 309.089844 189.472656 308.371094 188.753906 306.914063 C 189.585938 305.480469 191.097656 307.542969 192.433594 306.265625 C 192.117188 305.667969 191.390625 305.664063 190.871094 305.359375 C 188.34375 303.964844 188.121094 300.808594 188.417969 298.441406 C 189.703125 298.5625 190.027344 300.523438 191.28125 300.101563 C 191.214844 298.535156 190.0625 297.761719 190.09375 296.214844 C 190.972656 295.960938 191.578125 297.007813 192.417969 297.425781 C 193.800781 296.59375 191.90625 295.285156 191.148438 294.394531 C 189.152344 292.085938 186.101563 290.871094 183.054688 291.746094 C 180.636719 293.335938 178.664063 295.597656 178.472656 298.617188 C 178.5625 302.425781 179.9375 306.109375 183.445313 308.148438 C 182.730469 312.078125 186.847656 315.890625 190.488281 315.429688 "/>
<path style=" stroke:none;fill-rule:nonzero;fill:rgb(0%,0%,0%);fill-opacity:1;" d="M 201.039063 319.121094 C 204.03125 326.636719 212.371094 323.652344 213.371094 318.417969 C 214.492188 318.652344 215.035156 318.375 216.097656 318.15625 C 219.652344 316.949219 220.4375 313.617188 221.296875 310.882813 C 221.726563 308.101563 220.625 305.207031 218.679688 303.34375 C 216.773438 300.574219 213.144531 299.578125 210.324219 300.304688 C 208.902344 300.835938 207.550781 301.964844 206.816406 303.171875 C 206.539063 303.625 207.203125 303.679688 207.515625 303.519531 C 208.765625 302.882813 210.621094 301.71875 211.71875 303.652344 C 210.070313 304.574219 207.9375 305.492188 206.789063 307.296875 C 206.628906 307.589844 206.886719 307.824219 207.421875 307.722656 C 209.121094 307.492188 210.097656 308.902344 210.515625 310.640625 C 210.753906 311.371094 211.210938 312.921875 210.015625 313.0625 C 209.386719 312.347656 209.261719 311.546875 208.722656 310.851563 C 207.933594 309.953125 206.980469 309.421875 206.007813 309.902344 C 206.59375 311.285156 207.777344 312.597656 206.984375 314.085938 C 206.726563 313.691406 204.800781 311.738281 203.824219 312.460938 C 204.019531 314.105469 205.019531 315.136719 204.914063 316.816406 C 204.800781 317.375 204.757813 318.042969 204.066406 318.09375 C 203.578125 317.992188 203.59375 317.5625 203.527344 317.183594 C 203.34375 316.210938 202.363281 311.972656 200.589844 311.0625 C 199.835938 310.644531 198.585938 311.265625 199.074219 311.71875 C 201.539063 313.882813 199.992188 316.910156 201.039063 319.121094 "/>
<path style=" stroke:none;fill-rule:nonzero;fill:rgb(0%,0%,0%);fill-opacity:1;" d="M 197.882813 305.742188 C 197.460938 304.734375 196.605469 304.410156 195.636719 304.160156 C 194.683594 303.871094 194.230469 302.511719 194.683594 301.488281 C 195.507813 300.460938 196.472656 301.519531 197.433594 300.648438 C 197.484375 299.867188 196.410156 299.769531 195.40625 299.644531 C 191.867188 299.699219 191.472656 305.753906 196.324219 307.167969 C 197.234375 307.222656 197.820313 306.507813 197.882813 305.742188 "/>
<path style=" stroke:none;fill-rule:nonzero;fill:rgb(0%,0%,0%);fill-opacity:1;" d="M 200.671875 306.804688 C 199.683594 306.894531 199.273438 307.648438 199.9375 308.257813 C 200.640625 308.839844 201.328125 309.515625 202.445313 309.503906 C 204.3125 309.40625 205.242188 307.847656 205.300781 306.5 C 205.246094 304.6875 203.273438 301.476563 200.921875 303.019531 C 200.695313 303.996094 202.316406 303.796875 202.816406 304.433594 C 203.480469 305.203125 203.605469 306.007813 203.582031 306.828125 C 203.027344 308.800781 201.753906 306.980469 200.671875 306.804688 "/>
<path style=" stroke:none;fill-rule:nonzero;fill:rgb(0%,0%,0%);fill-opacity:1;" d="M 201.949219 291.722656 C 200.371094 293.484375 199.066406 295.789063 199.335938 298.03125 C 201.074219 297.128906 201.550781 295.527344 202.566406 294.378906 C 203.222656 293.785156 203.695313 292.667969 204.519531 292.695313 C 204.914063 293.726563 204.070313 295.5625 202.890625 296.339844 C 201.875 297.136719 201.871094 299.046875 203.136719 298.429688 C 204.390625 297.765625 205.660156 297.253906 207.0625 297.054688 C 207.070313 298.417969 204.761719 299.3125 205.433594 300.460938 C 207.777344 299 210.105469 296.910156 211.40625 294.605469 C 212.394531 292.636719 211.136719 289.339844 209.121094 287.574219 C 206.582031 285.300781 203.871094 286.167969 200.878906 284.460938 C 199.535156 284.378906 198.003906 284.738281 196.804688 285.851563 C 192.4375 288.882813 196.289063 293.03125 196.355469 296.929688 C 199.007813 296.554688 198.371094 293.996094 199.835938 292.550781 C 200.628906 291.871094 201.355469 291.066406 201.949219 291.722656 "/>
<path style=" stroke:none;fill-rule:nonzero;fill:rgb(0%,0%,0%);fill-opacity:1;" d="M 223.628906 307.652344 C 223.207031 307.847656 223.53125 308.121094 223.832031 308.25 C 226.683594 308.546875 229.664063 306.105469 231.152344 303.839844 C 233.097656 303.367188 235.296875 303.53125 236.746094 301.695313 C 236.992188 300.03125 230.894531 299.894531 229.222656 296.980469 C 226.820313 296.144531 225.722656 293.246094 222.980469 293.113281 C 219.386719 292.417969 216.164063 295.539063 213.4375 297.453125 C 214.214844 298.632813 215.140625 297.269531 216.480469 297.0625 C 218.789063 296.570313 221.671875 299.304688 223.035156 302.011719 C 224.03125 300.957031 222.511719 299.136719 222.890625 298.242188 C 224.824219 299.46875 224.953125 302.363281 227.015625 303.421875 C 227.917969 302.585938 226.921875 301.652344 227.671875 300.496094 C 228.488281 301.003906 229.089844 301.585938 229.765625 302.582031 C 229.410156 305.835938 225.980469 306.570313 223.628906 307.652344 "/>
<path style=" stroke:none;fill-rule:nonzero;fill:rgb(0%,0%,0%);fill-opacity:1;" d="M 104.324219 305.601563 C 107.085938 303.1875 106.972656 297.578125 103.558594 295.5 C 104.371094 291.523438 102.53125 288.046875 99.742188 285.453125 C 97.363281 283.585938 94.359375 283.558594 91.566406 284.308594 C 88.886719 286.003906 87.769531 289.089844 88.164063 292.117188 C 88.328125 293.277344 88.042969 295.5625 89.585938 295.078125 C 89.832031 294.175781 89.453125 293.023438 90.226563 292.539063 C 91.402344 293.546875 91.214844 294.917969 92.34375 296.007813 C 93.488281 295.351563 92.238281 293.808594 93.003906 292.765625 C 94.96875 294.117188 97.179688 296.378906 96.542969 299.195313 C 96.421875 299.785156 95.941406 300.332031 96.183594 300.964844 C 98.023438 300.820313 97.488281 298.316406 99.109375 298.648438 C 99.726563 300.152344 99.519531 301.460938 99.183594 302.804688 C 98.8125 304.429688 97.5 304.585938 96.546875 305.097656 C 95.589844 305.554688 95.527344 307.269531 96.914063 307.316406 C 99.398438 307.484375 102.554688 308.097656 104.324219 305.601563 "/>
<path style=" stroke:none;fill-rule:nonzero;fill:rgb(0%,0%,0%);fill-opacity:1;" d="M 80.449219 325.597656 C 83.0625 326.777344 86.078125 328.402344 89.339844 326.550781 C 90.210938 325.902344 90.777344 325.679688 91.347656 324.691406 C 95.921875 327.417969 103.695313 323.167969 100.066406 315.9375 C 99.113281 313.6875 95.820313 312.832031 95.84375 309.550781 C 95.832031 308.886719 94.535156 309.410156 94.34375 310.246094 C 93.847656 312.175781 96.363281 315.730469 96.96875 316.511719 C 97.203125 316.8125 97.539063 317.089844 97.289063 317.523438 C 96.792969 318.003906 96.261719 317.589844 95.769531 317.300781 C 94.445313 316.265625 94.339844 314.832031 93.238281 313.59375 C 92.054688 313.84375 92.230469 316.582031 92.355469 317.035156 C 90.714844 316.640625 90.523438 314.882813 89.878906 313.523438 C 88.875 313.933594 88.636719 314.996094 88.78125 316.1875 C 88.945313 317.046875 89.460938 317.675781 89.578125 318.621094 C 88.675781 319.417969 87.820313 318.046875 87.433594 317.386719 C 86.414063 315.917969 86.007813 314.25 87.308594 313.132813 C 87.742188 312.800781 87.734375 312.453125 87.410156 312.375 C 85.300781 312.039063 83.195313 313.023438 81.414063 313.640625 C 80.695313 311.535156 82.800781 310.921875 84.105469 310.410156 C 84.429688 310.285156 84.835938 309.753906 84.3125 309.65625 C 82.921875 309.40625 81.179688 309.664063 79.839844 310.371094 C 77.421875 311.996094 75.75 315.371094 76.558594 318.636719 C 76.652344 321.328125 78.089844 324.074219 80.449219 325.597656 "/>
<path style=" stroke:none;fill-rule:nonzero;fill:rgb(0%,0%,0%);fill-opacity:1;" d="M 92.167969 304.691406 C 92.78125 305.152344 93.707031 305.191406 94.269531 304.472656 C 96.4375 299.90625 91.648438 296.179688 89.261719 298.785156 C 88.683594 299.621094 88.046875 300.488281 88.660156 300.96875 C 89.949219 300.832031 89.800781 299.40625 91.113281 299.472656 C 92.183594 299.8125 92.898438 301.054688 92.480469 301.960938 C 92.023438 302.847656 91.695313 303.703125 92.167969 304.691406 "/>
<path style=" stroke:none;fill-rule:nonzero;fill:rgb(0%,0%,0%);fill-opacity:1;" d="M 88.117188 305.152344 C 85.398438 305.882813 86.484375 309.492188 87.804688 310.738281 C 88.851563 311.589844 90.632813 311.929688 91.949219 310.597656 C 92.699219 309.769531 92.648438 308.808594 92.683594 307.894531 C 92.667969 306.992188 91.832031 306.800781 91.109375 307.484375 C 90.523438 308.40625 91.03125 310.566406 89.191406 309.667969 C 88.5625 309.140625 88.042969 308.515625 87.914063 307.503906 C 87.769531 306.707031 88.992188 305.632813 88.117188 305.152344 "/>
<path style=" stroke:none;fill-rule:nonzero;fill:rgb(0%,0%,0%);fill-opacity:1;" d="M 68.636719 328.285156 C 71.316406 328.679688 75.125 328.074219 76.796875 325.742188 C 76.902344 325.4375 76.914063 325.011719 76.488281 325.195313 C 74.113281 326.234375 71.285156 328.308594 68.617188 326.410156 C 68.324219 325.246094 68.289063 324.410156 68.453125 323.460938 C 69.816406 323.667969 69.851563 325.035156 71.074219 324.914063 C 71.652344 322.667969 69.578125 320.652344 69.945313 318.394531 C 70.863281 318.703125 71.214844 321.046875 72.667969 321.003906 C 71.550781 318.1875 71.421875 314.21875 73.324219 312.820313 C 74.371094 311.957031 76.003906 312.167969 75.636719 310.804688 C 72.394531 311.574219 67.921875 311.902344 66.054688 315.050781 C 64.328125 317.1875 65.765625 319.933594 64.792969 322.285156 C 65.859375 325.472656 61.90625 330.117188 63.316406 331.039063 C 65.652344 331.175781 66.992188 329.425781 68.636719 328.285156 "/>
<path style=" stroke:none;fill-rule:nonzero;fill:rgb(0%,0%,0%);fill-opacity:1;" d="M 66.984375 283.246094 C 65.835938 286.074219 66.136719 289.347656 68.292969 291.664063 C 70.097656 292.699219 72.113281 293.335938 74.132813 293.183594 C 73.308594 296.246094 71.113281 297.757813 71.125 301.015625 C 71.105469 303.691406 72.730469 306.824219 74.859375 307.394531 C 77.445313 307.953125 80.554688 307.601563 83.203125 306.824219 C 82.792969 305.558594 80.589844 306.6875 79.578125 305.777344 C 80.65625 304.859375 81.882813 304.25 83.214844 303.753906 C 84.515625 303.222656 83.085938 301.953125 81.816406 302.179688 C 80.453125 302.546875 78.519531 301.960938 78.007813 300.976563 C 78.535156 300.34375 79.683594 300.734375 80.5625 300.636719 C 82.097656 300.640625 83.609375 301.351563 85.441406 300.648438 C 83.945313 298.960938 81.355469 298.402344 78.992188 298.414063 C 78.894531 297.535156 79.980469 297.519531 81.011719 297.382813 C 83.066406 297.246094 84.554688 299.425781 86.597656 297.691406 C 84.011719 295.308594 83.285156 290.542969 79.386719 290.535156 C 81.25 288.828125 82.582031 286.648438 82.734375 283.886719 C 86.566406 282.742188 88.101563 277.347656 86.042969 274.308594 C 84.964844 271.449219 81.753906 271.238281 79.308594 270.773438 C 77.957031 270.464844 77.582031 272.136719 78.390625 272.824219 C 79.183594 273.558594 80.410156 274.046875 80.359375 275.710938 C 80.34375 277.09375 80.210938 278.414063 79.234375 279.714844 C 77.582031 279.621094 78.734375 277.335938 76.988281 276.726563 C 76.597656 277.277344 76.921875 277.929688 76.890625 278.53125 C 76.789063 281.414063 74.078125 283.039063 71.832031 283.847656 C 71.359375 282.648438 72.960938 281.472656 72.019531 280.546875 C 70.648438 281.3125 70.480469 282.691406 69.089844 283.363281 C 68.464844 282.699219 69.121094 281.679688 69.113281 280.746094 C 67.746094 279.886719 67.4375 282.167969 66.984375 283.246094 "/>
<path style=" stroke:none;fill-rule:nonzero;fill:rgb(0%,0%,0%);fill-opacity:1;" d="M 85.023438 254.667969 C 83.390625 252.832031 80.726563 251.863281 78.339844 252.554688 C 78.039063 251.453125 77.546875 251.09375 76.871094 250.242188 C 74.1875 247.621094 70.855469 248.429688 68.03125 248.90625 C 65.359375 249.78125 63.273438 252.074219 62.496094 254.652344 C 60.886719 257.605469 61.644531 261.289063 63.570313 263.476563 C 64.6875 264.503906 66.308594 265.195313 67.714844 265.304688 C 68.246094 265.347656 67.992188 264.730469 67.710938 264.523438 C 66.578125 263.699219 64.695313 262.570313 65.925781 260.714844 C 67.492188 261.769531 69.277344 263.253906 71.40625 263.460938 C 71.738281 263.46875 71.832031 263.136719 71.5 262.703125 C 70.523438 261.292969 71.339844 259.785156 72.699219 258.625 C 73.242188 258.082031 74.417969 256.972656 75.085938 257.972656 C 74.734375 258.859375 74.074219 259.335938 73.699219 260.128906 C 73.257813 261.238281 73.214844 262.328125 74.082031 262.980469 C 75.050781 261.828125 75.683594 260.175781 77.371094 260.210938 C 77.136719 260.617188 76.269531 263.222656 77.351563 263.765625 C 78.726563 262.847656 79.195313 261.488281 80.738281 260.820313 C 81.289063 260.671875 81.90625 260.402344 82.265625 260.996094 C 82.398438 261.476563 82.003906 261.660156 81.699219 261.890625 C 80.914063 262.492188 77.578125 265.289063 77.570313 267.28125 C 77.539063 268.140625 78.660156 268.976563 78.84375 268.335938 C 79.582031 265.4375 82.46875 265.171875 84.101563 263.683594 C 84.199219 263.855469 84.226563 264.078125 84.347656 264.234375 C 85.625 266.859375 89.324219 267.058594 92.082031 267.800781 C 92.28125 270.421875 93.359375 272.640625 94.972656 274.390625 C 97.183594 278.441406 106.847656 277.820313 112.257813 264.839844 C 114.589844 259.433594 112.527344 254.953125 110.980469 253.40625 C 110.441406 255.894531 108.828125 258.183594 108.691406 260.671875 C 107.820313 262.21875 106.878906 264.976563 104.65625 264.839844 C 105.398438 263.496094 106.070313 262.152344 106.945313 260.804688 C 105.867188 259.191406 109.902344 255.492188 106.136719 256.300781 C 105.710938 256.425781 105.875 255.796875 106.273438 255.695313 C 107.054688 255.542969 107.097656 254.28125 106.472656 254.351563 C 104.390625 254.820313 102.167969 254.820313 100.015625 255.019531 C 98.734375 255.175781 97.328125 255.828125 96.320313 255.492188 C 98.804688 253.8125 101.765625 253.542969 104.65625 252.601563 C 106.472656 251.996094 109.433594 252.734375 110.039063 250.515625 C 109.902344 250.046875 109.230469 250.046875 108.894531 249.84375 C 108.828125 248.230469 107.214844 247.960938 106.472656 246.816406 C 107.480469 246.210938 108.625 247.21875 109.835938 247.085938 C 112.054688 246.480469 110.441406 245.269531 109.835938 244.394531 C 109.367188 243.183594 107.75 243.050781 107.886719 241.773438 C 108.558594 242.347656 109.332031 242.957031 110.207031 243.308594 C 111.273438 243.734375 113.1875 243.308594 111.410156 241.5625 C 110.582031 240.75 110.777344 239.933594 111.84375 240.335938 C 113.214844 240.859375 113.988281 243.097656 115.484375 241.972656 C 116.132813 241.460938 115.839844 240.453125 115.351563 240.023438 C 109.097656 234.734375 100.953125 230.671875 93.359375 238.410156 C 92.148438 240.359375 91.675781 243.589844 92.550781 246.007813 C 92.957031 247.152344 93.964844 247.558594 94.367188 248.699219 C 91.007813 250.164063 86.953125 251.433594 85.023438 254.667969 "/>
<path style=" stroke:none;fill-rule:nonzero;fill:rgb(0%,0%,0%);fill-opacity:1;" d="M 71.710938 276.882813 C 70.421875 276.613281 70.925781 275.273438 69.71875 274.816406 C 69 275.121094 69.394531 276.121094 69.742188 277.074219 C 71.390625 280.207031 76.96875 277.816406 76.03125 272.847656 C 75.667969 272.011719 74.765625 271.8125 74.054688 272.105469 C 73.34375 272.9375 73.445313 273.847656 73.660156 274.824219 C 73.835938 275.804688 72.828125 276.828125 71.710938 276.882813 "/>
<path style=" stroke:none;fill-rule:nonzero;fill:rgb(0%,0%,0%);fill-opacity:1;" d="M 71.371094 265.148438 C 69.777344 266.019531 67.808594 269.230469 70.25 270.628906 C 71.222656 270.386719 70.308594 269.035156 70.652344 268.300781 C 71.035156 267.359375 71.695313 266.882813 72.4375 266.53125 C 74.449219 266.132813 73.40625 268.09375 73.738281 269.136719 C 74.265625 269.976563 75.121094 270.003906 75.363281 269.136719 C 75.566406 268.242188 75.859375 267.324219 75.339844 266.332031 C 74.40625 264.714844 72.597656 264.589844 71.371094 265.148438 "/>
<path style=" stroke:none;fill-rule:nonzero;fill:rgb(0%,0%,0%);fill-opacity:1;" d="M 52.765625 270.316406 C 51.890625 273.609375 53.890625 275.632813 53.722656 279.074219 C 54.257813 280.308594 55.277344 281.511719 56.808594 282.078125 C 61.488281 284.597656 63.441406 279.285156 66.886719 277.460938 C 65.351563 275.265625 63.359375 276.992188 61.40625 276.339844 C 60.441406 275.941406 59.398438 275.65625 59.714844 274.828125 C 62 275.4375 64.644531 275.554688 66.523438 274.304688 C 64.929688 273.160156 63.285156 273.460938 61.800781 273.078125 C 60.972656 272.761719 59.765625 272.84375 59.414063 272.101563 C 60.15625 271.277344 62.175781 271.199219 63.402344 271.902344 C 64.574219 272.445313 66.277344 271.578125 65.15625 270.734375 C 63.996094 269.917969 62.960938 269.015625 62.152344 267.855469 C 63.363281 267.230469 65.207031 268.886719 65.921875 267.765625 C 63.5625 266.339844 60.644531 265.210938 58 265.09375 C 55.796875 265.101563 53.425781 267.71875 52.765625 270.316406 "/>
<path style=" stroke:none;fill-rule:nonzero;fill:rgb(0%,0%,0%);fill-opacity:1;" d="M 59.328125 295.867188 C 57.34375 295.597656 55.355469 294.640625 53.339844 295.824219 C 52.5 297.285156 58.128906 299.632813 58.621094 302.957031 C 60.550781 304.613281 60.519531 307.714844 63.023438 308.835938 C 66.117188 310.792969 70.253906 309.0625 73.492188 308.277344 C 73.199219 306.894531 71.839844 307.824219 70.515625 307.527344 C 68.1875 307.144531 66.503906 303.546875 66.222656 300.53125 C 64.910156 301.152344 65.65625 303.398438 64.980469 304.089844 C 63.628906 302.246094 64.5625 299.503906 63.027344 297.765625 C 61.882813 298.214844 62.46875 299.449219 61.351563 300.25 C 60.777344 299.480469 60.425781 298.71875 60.160156 297.546875 C 61.679688 294.644531 65.140625 295.210938 67.726563 295.0625 C 68.191406 295.035156 67.984375 294.660156 67.753906 294.433594 C 65.207031 293.113281 61.539063 294.300781 59.328125 295.867188 "/>
<path style=" stroke:none;fill-rule:nonzero;fill:rgb(0%,0%,0%);fill-opacity:1;" d="M 253.355469 333.671875 C 255.933594 330.976563 257.136719 325.640625 255.671875 319.671875 C 254.996094 316.925781 253.664063 314.5 251.53125 312.867188 C 246.328125 309.316406 237.277344 312.300781 233.003906 307.132813 C 232.832031 309.480469 233.652344 311.15625 235.140625 312.953125 C 237.464844 315.28125 242.132813 315.082031 242.296875 319.34375 C 240.972656 321.113281 238.730469 321.863281 236.65625 322.835938 C 228.859375 326.488281 230.347656 334.585938 233.015625 337.28125 C 235.175781 339.460938 233.160156 340.472656 231.378906 341.617188 C 229.398438 342.894531 227.550781 344.722656 226.894531 346.539063 C 226.273438 353.171875 221.957031 357.847656 216.605469 360.960938 C 215.605469 361.644531 216.96875 362.132813 218.847656 361.664063 C 222.355469 360.597656 225.59375 357.355469 226.742188 353.828125 C 227.78125 350.632813 227.011719 348.074219 232.035156 345.148438 C 235.777344 342.96875 236.960938 340.875 235.015625 336.449219 C 233.023438 331.925781 231.25 328.875 238.613281 325.507813 C 243.503906 323.273438 245.820313 319.578125 242.597656 315.5 C 241.136719 313.648438 238.941406 312.484375 236.695313 311.988281 C 235.957031 311.808594 235.261719 311.277344 235.652344 310.5625 C 239.257813 312.914063 244.472656 311.675781 248.746094 313.136719 C 252.804688 315.789063 255.316406 320.15625 254.820313 325.109375 C 254.710938 327.792969 252.988281 329.546875 251.632813 331.496094 C 250.132813 333.652344 248.679688 338.140625 250.808594 340.378906 C 252.636719 342.289063 255.777344 343.445313 255.53125 346.808594 C 254.066406 353.984375 246.730469 355.605469 241.046875 358.699219 C 231.511719 360.902344 221.960938 361.488281 214.1875 367.261719 C 215.625 367.90625 217.324219 366.8125 218.785156 366.179688 C 226.085938 362.261719 234.429688 363.40625 242.34375 361.21875 C 245.796875 360.105469 249.039063 358.523438 251.871094 356.457031 C 256.902344 352.78125 260.09375 345.535156 253.253906 338.382813 C 251.53125 336.582031 251.703125 335.398438 253.355469 333.671875 "/>
<path style=" stroke:none;fill-rule:nonzero;fill:rgb(0%,0%,0%);fill-opacity:1;" d="M 241.886719 347.160156 C 237.277344 348.375 233.746094 351.492188 230.046875 354.1875 C 229.332031 354.691406 229.421875 355.246094 229.851563 354.980469 C 232.003906 354.128906 241.699219 350.652344 243.492188 349.164063 C 246.207031 347.070313 246.464844 342.285156 245.152344 340.25 C 240.816406 333.023438 249.070313 331.390625 249.789063 325.6875 C 250.0625 322.992188 249.800781 320.898438 247.941406 319.550781 C 247.425781 320.1875 247.8125 321.363281 248.238281 322 C 249.359375 325.03125 247.472656 326.894531 245.46875 328.769531 C 241.917969 332.085938 239.621094 338.597656 242.226563 341.429688 C 242.96875 342.230469 243.804688 343.0625 243.855469 344.203125 C 243.753906 345.609375 243.0625 346.757813 241.886719 347.160156 "/>
<path style=" stroke:none;fill-rule:nonzero;fill:rgb(0%,0%,0%);fill-opacity:1;" d="M 183.085938 348.789063 C 176.984375 340.84375 167.761719 337.695313 159.019531 339.980469 C 153.816406 341.179688 150.007813 335.503906 144.320313 337.078125 C 141.160156 338.546875 137.886719 338.066406 134.863281 336.589844 C 133.828125 336 133.226563 336.46875 133.714844 337.046875 C 137.699219 340.773438 143.050781 339.242188 147.570313 339.078125 C 156.117188 345.78125 165.371094 338.324219 174.261719 344.320313 C 178.605469 349.195313 183.890625 351.945313 190.316406 351.621094 C 191.214844 351.535156 191.316406 350.734375 190.472656 350.625 C 187.863281 350.34375 185.152344 350.25 183.085938 348.789063 "/>
<path style=" stroke:none;fill-rule:nonzero;fill:rgb(0%,0%,0%);fill-opacity:1;" d="M 407.582031 345.066406 C 400.710938 345.066406 392.359375 348.996094 381.0625 348.996094 C 347.675781 348.996094 330.976563 325.914063 304.953125 287.121094 C 280.402344 250.785156 261.738281 216.90625 234.242188 195.296875 C 296.605469 174.179688 329.996094 137.351563 329.996094 97.578125 C 329.996094 42.578125 275.980469 0.351563 192.503906 0.351563 C 141.433594 0.351563 96.75 16.066406 63.847656 43.070313 C 33.402344 68.117188 17.6875 98.558594 17.6875 129.003906 C 17.6875 170.746094 46.167969 199.71875 88.402344 199.71875 C 120.316406 199.71875 145.851563 182.527344 145.851563 177.621094 C 145.851563 175.652344 144.378906 174.179688 141.921875 174.179688 C 137.503906 174.179688 119.824219 190.386719 89.871094 190.386719 C 55.007813 190.386719 31.433594 167.304688 31.433594 129.984375 C 31.433594 96.105469 49.113281 64.675781 81.035156 41.597656 C 109.515625 20.976563 150.269531 7.71875 194.953125 7.71875 C 263.703125 7.71875 305.441406 41.105469 305.441406 89.722656 C 305.441406 133.425781 275.492188 171.726563 223.925781 188.421875 C 211.160156 182.035156 199.867188 179.09375 190.539063 178.601563 C 192.996094 131.460938 196.921875 94.632813 204.777344 66.644531 C 212.144531 40.613281 226.382813 29.8125 226.382813 25.390625 C 226.382813 24.410156 225.402344 22.9375 223.925781 22.9375 C 209.195313 22.9375 171.386719 75.480469 165.984375 180.074219 C 149.777344 182.035156 140.941406 189.402344 140.941406 197.753906 C 140.941406 206.101563 148.800781 211.007813 164.019531 211.5 C 162.082031 251.441406 152.140625 282.410156 135.917969 303.570313 C 132.683594 301.339844 130.246094 299.097656 128.191406 297.746094 C 127.523438 297.269531 127.175781 298.023438 127.71875 298.6875 C 129.265625 300.632813 131.453125 303.015625 134.550781 305.316406 C 134.058594 305.933594 133.550781 306.535156 133.046875 307.132813 C 123.394531 305.175781 113.453125 306.488281 104.558594 308.753906 C 93.171875 311.648438 99.078125 312.960938 103.804688 311.59375 C 115.316406 308.269531 124.398438 307.496094 131.757813 308.652344 C 115.441406 327.109375 93.636719 336.722656 67.773438 336.722656 C 32.417969 336.722656 9.339844 315.113281 9.339844 284.179688 C 9.339844 259.625 22.597656 246.367188 22.597656 242.4375 C 22.597656 240.472656 21.125 239.003906 19.652344 239.003906 C 14.253906 239.003906 0.992188 258.640625 0.992188 285.648438 C 0.992188 321.5 27.019531 346.046875 67.28125 346.046875 C 86.027344 346.046875 103.605469 341.605469 119.261719 333.191406 C 119.234375 333.160156 119.484375 332.957031 119.875 332.667969 C 120.332031 333.1875 124.429688 338.664063 126.496094 340.664063 C 131.414063 345.359375 137.601563 350.882813 144.640625 348.09375 C 146.3125 347.597656 148.097656 346.058594 149.949219 346.328125 C 154.328125 349.015625 154.496094 356.152344 160.480469 356.535156 C 163.910156 356.402344 168.484375 355.808594 170.449219 352.035156 C 173.550781 354.371094 176.089844 359.773438 180.515625 360.113281 C 186.367188 360.296875 191.175781 355.5625 197.050781 353.992188 C 201.238281 354.0625 204.957031 356.355469 208.390625 358.742188 C 210.613281 360.378906 211.441406 358.632813 209.953125 357.300781 C 208.574219 356.066406 206.847656 355.410156 205.269531 354.554688 C 201.789063 352.214844 196.613281 351.605469 192.839844 352.832031 C 188.8125 354.761719 185.617188 358.132813 181.09375 358.394531 C 177.898438 358.257813 176.425781 355.527344 175.269531 353.921875 C 172.332031 350.40625 169.074219 348.183594 166.984375 351.648438 C 165.476563 353.570313 163.125 354.914063 160.519531 354.253906 C 155.910156 351.226563 155.3125 344.035156 148.792969 344.261719 C 145.894531 344.074219 143.898438 346.75 140.996094 346.847656 C 133.019531 346 122.523438 332.625 124.570313 333.355469 C 129.597656 334.390625 133.761719 332.792969 137.855469 329.671875 C 141.300781 328.300781 145.964844 327.996094 149.007813 331.042969 C 151.808594 332.582031 153.777344 330.464844 155.882813 328.675781 C 159.351563 325.730469 164.207031 326.078125 169.933594 331.222656 C 171.855469 332.945313 174.339844 335.339844 177.4375 333.195313 C 179.09375 332.050781 180.738281 330.695313 182.796875 331.34375 C 187.90625 333.421875 187.695313 338.523438 189.816406 342.746094 C 192.554688 346.925781 196.65625 349.039063 201.257813 349.921875 C 203.175781 350.371094 204.726563 353.117188 206.609375 353.089844 C 207.886719 353.070313 208.394531 352.574219 207.765625 351.199219 C 206.21875 347.832031 201.6875 347.167969 198.320313 346.214844 C 192.027344 344.160156 191.382813 337.015625 188.464844 332.355469 C 186.042969 328.433594 180.363281 327.039063 176.9375 329.703125 C 174.289063 331.742188 173.492188 330.949219 170.644531 328.757813 C 164.59375 324.101563 158.460938 323.707031 154.835938 326.640625 C 153.695313 327.5625 152.652344 328.683594 151.601563 329.46875 C 148.058594 328.03125 145.039063 326.460938 141.082031 327.015625 C 138.035156 327.125 135.414063 329.078125 132.746094 330.582031 C 130.65625 331.753906 126.476563 332.234375 122.800781 330.597656 C 129.011719 326.285156 141.769531 317.511719 147.375 311.59375 C 150.253906 312.453125 169.726563 314.765625 175.085938 315.832031 C 206.359375 322.046875 216.648438 338.089844 214.546875 353.570313 C 214.480469 354.046875 214.277344 354.171875 214.210938 353.769531 C 213.183594 349.96875 211.941406 346.539063 209.316406 344.253906 C 204.382813 341.355469 199.398438 337.742188 196.972656 332.601563 C 196.191406 330.949219 194.914063 325.371094 194.441406 324.679688 C 194.019531 323.867188 193.386719 323.195313 193.226563 324.042969 C 193.023438 325.726563 193.039063 327.710938 193.46875 329.078125 C 195.488281 334.863281 197.867188 338.636719 202.441406 342.472656 C 205.398438 344.21875 209.023438 346.1875 210.789063 349.128906 C 216.101563 359.554688 208.023438 366.683594 202.105469 373.746094 C 201.332031 374.644531 202.972656 374.980469 204.390625 374.550781 C 211.195313 369.761719 221.84375 354.066406 216.730469 342.09375 C 204.734375 309.976563 162.789063 312.234375 149.316406 309.535156 C 170.59375 285.96875 184.652344 251.664063 187.589844 208.558594 C 196.429688 207.574219 205.761719 204.625 215.582031 201.191406 C 230.316406 214.9375 249.464844 247.839844 281.875 292.035156 C 311.828125 332.789063 335.394531 357.34375 374.1875 357.34375 C 398.253906 357.34375 411.507813 352.921875 411.507813 347.523438 C 411.507813 346.046875 410.035156 345.066406 407.582031 345.066406 Z M 164.019531 204.132813 C 162.550781 204.132813 161.566406 204.132813 160.09375 204.132813 C 152.726563 204.132813 148.800781 201.683594 148.800781 197.261719 C 148.800781 193.335938 154.199219 189.402344 165.003906 187.929688 Z M 188.082031 201.191406 L 189.554688 186.460938 C 190.046875 186.460938 190.539063 186.460938 191.027344 186.460938 C 197.410156 186.460938 203.796875 188.910156 210.179688 194.808594 C 202.8125 198.242188 195.445313 200.207031 188.082031 201.191406 "/>
</g>
</svg>
