<?xml version="1.0" encoding="UTF-8"?>
<svg xmlns="http://www.w3.org/2000/svg" xmlns:xlink="http://www.w3.org/1999/xlink" width="367pt" height="558pt" viewBox="0 0 367 558" version="1.1">
<g id="surface1">
<path style=" stroke:none;fill-rule:nonzero;fill:rgb(0%,0%,0%);fill-opacity:1;" d="M 357.507813 373.058594 C 354.851563 365.914063 342.019531 337.324219 338.566406 329.921875 C 327.488281 306.164063 328.917969 291.851563 329.085938 270.496094 C 329.328125 240.011719 329.125 87.433594 329.125 71.953125 C 339.796875 63.480469 349.59375 44.246094 357.089844 36.609375 C 366.976563 27.070313 359.972656 17.171875 349.171875 24.730469 C 335.492188 35.171875 329.207031 32.015625 312.335938 19.71875 C 300.273438 10.929688 294.53125 10.203125 281.597656 21.613281 C 274.199219 28.136719 243.597656 54.714844 236.808594 62.273438 C 227.304688 70.527344 235.261719 78.804688 245.746094 72.695313 C 256.46875 66.445313 271.050781 63.25 271.011719 74.894531 C 270.691406 88.8125 270.691406 289.332031 270.691406 294.371094 C 265.585938 299.167969 258.972656 305.871094 252.878906 311.496094 C 249.046875 315.035156 243.574219 315.894531 235.773438 309.683594 C 211.703125 290.519531 196.667969 276.933594 162.546875 296.277344 C 158.871094 298.488281 157.578125 296.546875 160.9375 293.699219 C 185.097656 273.234375 192.230469 274.230469 192.230469 230.292969 C 192.230469 201.042969 192.230469 111.492188 192.230469 92.769531 C 192.230469 79.273438 194.960938 75.765625 199.488281 69.0625 C 202.808594 64.148438 235.476563 24.664063 242.34375 17.609375 C 249.152344 10.335938 241.171875 4.210938 234.457031 11.832031 C 214.359375 35.742188 173.433594 21.308594 148.703125 10.210938 C 93.648438 -14.5 26.953125 4.820313 5.050781 59.523438 C -4.480469 83.328125 -0.125 119.34375 20.027344 137.898438 C 44.53125 160.460938 82.152344 163.597656 102.3125 136.597656 C 108.445313 128.832031 105.277344 123.933594 95.398438 131.980469 C 82.992188 142.351563 56.925781 137.789063 48.527344 117.414063 C 37.546875 90.773438 51.929688 66.140625 78.777344 64.539063 C 100.40625 63.25 130.753906 75.046875 154.398438 68.25 C 165.59375 65.03125 187 52.722656 192.863281 49.367188 C 194.730469 48.300781 195.660156 48.980469 193.875 50.488281 C 189.585938 54.109375 150.019531 83.9375 146.191406 87.4375 C 140.980469 92.210938 136.410156 98.261719 136.410156 105.730469 C 136.410156 110.410156 136.410156 134.890625 136.410156 155.949219 C 120.082031 155.785156 113.597656 156.070313 107.539063 162.730469 C 100.339844 170.648438 79.460938 198.011719 74.421875 208.089844 C 67.789063 221.351563 74.644531 225.300781 82.652344 215.289063 C 101.027344 192.324219 114.414063 195.074219 136.53125 195.609375 C 136.476563 198.652344 136.550781 204.410156 136.523438 207.441406 C 122.597656 207.699219 113.296875 206.691406 105.542969 215.222656 C 98.34375 223.140625 79.535156 249.523438 74.496094 259.605469 C 67.867188 272.867188 74.40625 276.816406 82.414063 266.804688 C 99.886719 244.96875 114.515625 247.128906 136.410156 247.570313 C 136.410156 272.320313 137.101563 297.832031 130.023438 310.980469 C 124.628906 321.179688 116.34375 331.863281 108.65625 340.429688 C 100.140625 348.78125 104.957031 355.132813 115.890625 349.09375 C 148.054688 331.328125 155.253906 320.714844 197.542969 350.984375 C 218.339844 365.871094 224.152344 366.269531 241.492188 349.425781 C 248.671875 342.453125 264.183594 324.660156 270.695313 317.636719 C 273.210938 337.570313 287.539063 365.339844 298.003906 379.691406 C 302.34375 385.644531 315.609375 407.894531 318.105469 413.417969 C 339.410156 460.589844 320.761719 510.878906 264.960938 522.039063 C 191.355469 536.761719 141.710938 441.148438 179.109375 384.511719 C 187.207031 372.886719 186.230469 368.972656 173.925781 371.746094 C 93.367188 389.910156 75.605469 511.542969 173.894531 546.972656 C 308.402344 595.460938 397.160156 479.566406 357.507813 373.058594 "/>
</g>
</svg>
