<?xml version="1.0" encoding="UTF-8"?>
<svg xmlns="http://www.w3.org/2000/svg" xmlns:xlink="http://www.w3.org/1999/xlink" width="327pt" height="350pt" viewBox="0 0 327 350" version="1.1">
<g id="surface1">
<path style=" stroke:none;fill-rule:nonzero;fill:rgb(0%,0%,0%);fill-opacity:1;" d="M 260.921875 107.28125 C 237.855469 103.210938 239.886719 112.242188 258.03125 115.050781 C 327.730469 125.84375 356.855469 41.179688 286.773438 9.867188 C 235.742188 -12.933594 134.410156 4.101563 111.808594 74.453125 C 107.203125 88.78125 106.714844 105.078125 115.667969 121.625 C 122.515625 134.285156 129.726563 142.011719 137.1875 147.097656 C 119.941406 155.699219 103.199219 167.5625 88.714844 182.960938 C 88.757813 182.707031 88.78125 182.445313 88.765625 182.175781 C 88.546875 178.128906 92.125 172.386719 93.859375 172.296875 C 95.59375 172.203125 95.132813 169.558594 91.277344 170.835938 C 87.421875 172.113281 84.949219 178.136719 84.175781 179.519531 C 83.402344 180.898438 78.296875 180.777344 77.425781 182.828125 C 76.554688 184.882813 75.015625 186.859375 73.472656 188.011719 C 71.929688 189.167969 71.796875 186.363281 73.535156 184.664063 C 75.273438 182.964844 78.898438 177.578125 78.082031 174.320313 C 77.84375 173.371094 80.851563 173.492188 83.328125 169.894531 C 85.417969 166.859375 83.78125 162.027344 82.738281 160.699219 C 81.390625 158.980469 81.480469 160.355469 81.253906 161.929688 C 81.027344 163.503906 79.671875 166.519531 78.324219 166.324219 C 76.972656 166.128906 76.398438 163.75 75.085938 162.527344 C 73.769531 161.304688 73.320313 162.84375 74.054688 164.101563 C 74.789063 165.351563 75.082031 166.941406 73.4375 168.371094 C 71.792969 169.800781 68.375 168.484375 68.890625 166.496094 C 69.410156 164.503906 67 165.394531 66.980469 167.78125 C 66.960938 170.527344 68.410156 174.414063 71.402344 174.5 C 73.421875 174.558594 74.746094 177.058594 71.277344 182.410156 C 64.550781 192.773438 66.046875 205.183594 67.8125 213.617188 C 64.613281 221.195313 62.410156 229.285156 61.34375 237.570313 C 54.007813 229.691406 53.40625 216.105469 52.804688 213.464844 C 52.832031 213.425781 52.851563 213.382813 52.878906 213.347656 C 54.628906 211.023438 62.25 205.320313 63.617188 200.300781 C 64.980469 195.285156 61.082031 197.816406 59.726563 196.148438 C 58.375 194.480469 64.226563 189.132813 65.535156 185.550781 C 66.84375 181.972656 59.511719 184.808594 58.378906 183.449219 C 57.246094 182.089844 57.675781 175.265625 60.335938 172.269531 C 62.996094 169.269531 60.945313 168.988281 59.476563 169.78125 C 58.007813 170.570313 48.648438 174.996094 47.167969 179.632813 C 45.683594 184.269531 44.496094 178.449219 44.578125 176.835938 C 44.660156 175.222656 38.667969 179.660156 40.640625 188.027344 C 42.613281 196.394531 39.570313 190.714844 38.65625 189.660156 C 37.746094 188.609375 35.230469 190.078125 36.726563 194.75 C 38.21875 199.421875 40.167969 202.542969 43.765625 205.394531 C 50.894531 211.035156 52.492188 222.777344 53.238281 228.445313 C 53.519531 230.558594 53.285156 231.578125 51.8125 230.605469 C 49.015625 228.769531 38.875 213.429688 32.058594 211.398438 C 27.078125 209.910156 29.519531 213.878906 27.820313 215.191406 C 26.125 216.507813 20.90625 210.539063 17.355469 209.148438 C 13.804688 207.757813 16.480469 215.152344 15.09375 216.253906 C 13.707031 217.355469 6.441406 217.773438 3.238281 215.363281 C 0.949219 213.636719 -0.125 214.980469 0.632813 216.46875 C 1.390625 217.953125 6.425781 225.792969 11.027344 227.378906 C 15.632813 228.964844 9.785156 230.023438 8.175781 229.902344 C 6.5625 229.785156 10.867188 235.878906 19.277344 234.09375 C 27.683594 232.304688 21.9375 235.222656 20.863281 236.113281 C 19.792969 237 21.203125 239.546875 25.90625 238.15625 C 30.609375 236.765625 33.777344 234.890625 36.707031 231.355469 C 39.472656 228.019531 42.855469 225.773438 44.226563 225.488281 C 47.46875 231.460938 54.6875 237.574219 60.921875 241.515625 C 57.859375 277.871094 76.980469 316.957031 131.148438 332.351563 C 135.59375 333.617188 140.09375 334.648438 144.625 335.480469 C 150.488281 340.777344 156.972656 345.476563 163.296875 347.585938 C 173.988281 351.148438 181.054688 349.066406 164.773438 344.625 C 159.808594 343.269531 154.984375 340.289063 150.34375 336.414063 C 214.316406 345.601563 283.125 313.78125 300.207031 266.480469 C 319.015625 214.394531 281.554688 196.898438 255.859375 201.375 C 234.15625 205.160156 243.738281 211.332031 255.769531 209.945313 C 322.410156 202.265625 300.4375 302.378906 218.449219 322.167969 C 185.429688 330.136719 156.253906 327.226563 133.5 317.257813 C 123.550781 308.5625 112.160156 290.769531 112.734375 282.109375 C 113.242188 274.449219 112.808594 267.164063 120.796875 264.167969 C 126.121094 262.175781 135.695313 263.109375 139.300781 262.941406 C 139.335938 262.972656 139.375 263 139.40625 263.035156 C 141.386719 265.164063 145.660156 273.671875 150.363281 275.894531 C 155.0625 278.121094 153.253906 273.835938 155.132813 272.796875 C 157.011719 271.757813 161.25 278.457031 164.546875 280.375 C 167.839844 282.292969 166.335938 274.578125 167.871094 273.699219 C 169.410156 272.824219 176.050781 274.445313 178.535156 277.589844 C 181.019531 280.734375 181.660156 278.765625 181.136719 277.183594 C 180.617188 275.597656 177.902344 265.605469 173.597656 263.332031 C 169.292969 261.058594 175.234375 260.910156 176.808594 261.273438 C 178.382813 261.640625 175.0625 254.960938 166.480469 255.433594 C 157.898438 255.90625 164.023438 253.90625 165.21875 253.191406 C 166.417969 252.480469 165.414063 249.746094 160.550781 250.398438 C 155.6875 251.046875 152.273438 252.417969 148.835938 255.460938 C 143.503906 260.183594 126.28125 261.492188 125.074219 259.804688 C 134.238281 257.636719 149.199219 250.363281 156.832031 245.628906 C 162.042969 242.394531 165.148438 243.003906 167.691406 242.703125 C 173.902344 241.964844 178.03125 243.132813 181.878906 243.695313 C 185.136719 244.175781 189.597656 243.898438 195.382813 240.992188 C 199.214844 239.066406 199.078125 236.996094 197.863281 236.933594 C 196.644531 236.867188 191.089844 237.804688 197.929688 234.683594 C 204.769531 231.566406 204.628906 225.042969 203.558594 225.964844 C 202.488281 226.886719 197.824219 229.183594 200.234375 225.675781 C 202.648438 222.164063 200.691406 213.320313 200.453125 211.882813 C 200.214844 210.445313 198.921875 209.179688 198.273438 212.625 C 197.625 216.070313 193.136719 220.019531 191.589844 219.96875 C 190.042969 219.910156 188.078125 213.324219 186.304688 216.148438 C 184.527344 218.972656 183.96875 225.882813 182.089844 225.839844 C 180.210938 225.796875 179.871094 221.746094 177.132813 225.378906 C 174.417969 228.980469 174.535156 237.191406 173.882813 239.722656 C 168.792969 241.027344 161.363281 240.410156 165.660156 235.300781 C 173.921875 225.472656 167.933594 212.257813 165.089844 204.820313 C 165.996094 203.753906 169.589844 201.863281 173.847656 201.042969 C 178.355469 200.171875 181.519531 198.296875 184.996094 194.835938 C 188.476563 191.375 186.921875 188.914063 185.625 189.429688 C 184.332031 189.945313 179.011719 193.585938 184.617188 187.066406 C 190.21875 180.546875 186.941406 173.847656 186.273438 175.316406 C 185.605469 176.785156 181.867188 181.40625 182.6875 176.609375 C 183.28125 173.136719 181.113281 167.902344 179.511719 164.746094 C 197.316406 169.039063 213.476563 169.210938 226.554688 167.847656 C 266.46875 163.683594 260.433594 138.03125 228.007813 131.226563 C 206.015625 126.613281 181.148438 129.015625 151.136719 140.871094 C 141.253906 133.519531 132.84375 122.007813 131.820313 103.882813 C 128.308594 41.894531 177.164063 8.1875 252.492188 11.632813 C 339.773438 15.628906 327.03125 118.945313 260.921875 107.28125 Z M 51.417969 207.40625 C 51.933594 209.210938 50.601563 209.082031 50.347656 207.863281 C 49.609375 204.3125 49.125 200.84375 45.375 196.839844 C 43.78125 195.132813 44.929688 194.054688 46.132813 195.515625 C 47.339844 196.980469 47.996094 198.660156 48.828125 199.484375 C 49.660156 200.308594 50.742188 192.207031 50.355469 189.070313 C 49.964844 185.933594 52.28125 185.757813 52.484375 187.765625 C 52.6875 189.769531 51.773438 197.058594 50.953125 199.199219 C 50.132813 201.339844 51.589844 201.382813 52.628906 200.015625 C 53.664063 198.648438 54.59375 198.121094 55.132813 197.578125 C 55.671875 197.03125 57.484375 197.441406 56.417969 198.378906 C 55.355469 199.3125 52.910156 201.101563 51.890625 202.921875 C 50.871094 204.746094 51.070313 206.195313 51.417969 207.40625 Z M 36.714844 223.441406 C 33.292969 224.648438 29.917969 225.589844 26.449219 229.839844 C 24.972656 231.648438 23.75 230.652344 25.039063 229.261719 C 26.328125 227.871094 27.90625 227 28.609375 226.0625 C 29.316406 225.128906 21.144531 225.136719 18.085938 225.9375 C 15.03125 226.742188 14.550781 224.46875 16.511719 224 C 18.472656 223.53125 25.816406 223.46875 28.046875 223.996094 C 30.277344 224.523438 30.125 223.074219 28.632813 222.226563 C 27.140625 221.382813 26.492188 220.535156 25.882813 220.070313 C 25.273438 219.605469 25.4375 217.753906 26.503906 218.6875 C 27.570313 219.621094 29.671875 221.800781 31.613281 222.570313 C 33.554688 223.339844 34.964844 222.949219 36.121094 222.445313 C 37.835938 221.691406 37.886719 223.03125 36.714844 223.441406 Z M 145.246094 261.503906 C 148.875 261.402344 152.375 261.53125 156.976563 258.546875 C 158.933594 257.277344 159.796875 258.59375 158.144531 259.527344 C 156.492188 260.457031 154.722656 260.804688 153.765625 261.480469 C 152.808594 262.15625 160.59375 264.644531 163.75 264.8125 C 166.90625 264.976563 166.671875 267.289063 164.660156 267.140625 C 162.648438 266.984375 155.632813 264.804688 153.671875 263.621094 C 151.710938 262.441406 151.410156 263.867188 152.574219 265.128906 C 153.738281 266.390625 154.09375 267.394531 154.535156 268.023438 C 154.976563 268.652344 154.253906 270.359375 153.519531 269.148438 C 152.789063 267.9375 151.453125 265.214844 149.839844 263.890625 C 148.226563 262.566406 146.765625 262.507813 145.507813 262.636719 C 143.644531 262.832031 144.003906 261.539063 145.246094 261.503906 Z M 178.757813 237.617188 C 179.78125 237.210938 180.890625 236.570313 181.605469 234.890625 C 182.316406 233.207031 182.246094 230.558594 182.320313 229.320313 C 182.394531 228.085938 183.648438 229.117188 183.5625 229.78125 C 183.476563 230.449219 183.609375 231.371094 183.21875 232.820313 C 182.832031 234.269531 183.640625 235.253906 184.679688 233.539063 C 185.71875 231.828125 190.269531 227.289063 191.765625 226.355469 C 193.261719 225.421875 194.382813 227.117188 192.003906 228.527344 C 189.628906 229.9375 184.605469 235.027344 185.621094 235.160156 C 186.640625 235.296875 188.152344 234.847656 189.808594 234.898438 C 191.464844 234.949219 191.335938 236.320313 189.300781 236.132813 C 184.523438 235.6875 181.867188 237.210938 179.015625 238.601563 C 178.039063 239.082031 177.234375 238.226563 178.757813 237.617188 Z M 70.910156 198.523438 C 71.761719 193.453125 77.738281 187.808594 79.984375 188.136719 C 81.085938 188.292969 83.257813 187.835938 85.167969 186.859375 C 78.855469 194.015625 75.722656 197.492188 70.441406 207.929688 C 70.253906 205.113281 70.324219 202.003906 70.910156 198.523438 Z M 123.746094 312.3125 C 105.242188 301.628906 92.148438 285.804688 86.292969 267.523438 C 93.96875 276.683594 98.824219 275.800781 103.199219 280.269531 C 104.992188 282.097656 107.792969 283.570313 109.828125 289.355469 C 112.355469 296.542969 117.933594 305.367188 123.746094 312.3125 Z M 93.140625 253.984375 C 92.171875 251.394531 94.109375 250.777344 94.6875 252.441406 C 95.269531 254.105469 95.96875 260.492188 95.707031 262.480469 C 95.441406 264.46875 96.691406 264.207031 97.296875 262.835938 C 97.902344 261.460938 98.582031 260.824219 98.929688 260.253906 C 99.28125 259.679688 100.90625 259.660156 100.191406 260.671875 C 99.472656 261.683594 97.757813 263.703125 97.257813 265.457031 C 96.757813 267.214844 97.222656 268.410156 97.765625 269.371094 C 98.570313 270.796875 97.410156 270.960938 96.949219 269.976563 C 95.597656 267.101563 94.480469 264.25 90.480469 261.605469 C 88.777344 260.476563 89.535156 259.324219 90.859375 260.324219 C 92.179688 261.324219 93.078125 262.621094 93.957031 263.152344 C 94.832031 263.683594 94.109375 256.574219 93.140625 253.984375 Z M 177.441406 191.316406 C 172.050781 192.320313 169.601563 194.828125 166.902344 197.253906 C 165.976563 198.082031 164.824219 197.394531 166.3125 196.25 C 167.3125 195.480469 168.328125 194.429688 168.585938 192.355469 C 168.84375 190.285156 167.9375 187.394531 167.632813 186.011719 C 167.328125 184.625 169.03125 185.367188 169.144531 186.128906 C 169.257813 186.886719 169.691406 187.863281 169.71875 189.578125 C 169.742188 191.292969 170.941406 192.121094 171.550781 189.910156 C 172.15625 187.703125 175.738281 181.289063 177.09375 179.796875 C 178.445313 178.300781 180.210938 179.8125 178.035156 182.109375 C 175.863281 184.402344 171.933594 191.570313 173.09375 191.398438 C 174.253906 191.230469 175.773438 190.265625 177.613281 189.804688 C 179.453125 189.339844 179.738281 190.890625 177.441406 191.316406 Z M 229.273438 138.785156 C 241.316406 142.035156 256.042969 158.140625 228.566406 160.144531 C 208.261719 161.628906 178.015625 158.050781 159.890625 146.929688 C 182.882813 136.71875 207.738281 132.976563 229.273438 138.785156 Z M 147.847656 152.964844 C 157.464844 157.890625 166.863281 161.390625 175.875 163.824219 C 175.882813 163.890625 175.855469 163.945313 175.886719 164.003906 C 178.605469 169.140625 172.609375 174.148438 170.980469 174.832031 C 169.347656 175.519531 164.144531 169.625 163.65625 173.40625 C 163.171875 177.1875 165.90625 184.628906 163.933594 185.488281 C 161.964844 186.34375 159.660156 182.296875 158.570313 187.382813 C 157.078125 194.335938 165.664063 210.597656 165.9375 213.933594 C 166.078125 215.695313 165.070313 215.40625 163.355469 214.148438 C 158.738281 210.769531 149.207031 203.730469 147.683594 194.769531 C 146.910156 190.242188 145.105469 187.035156 141.726563 183.480469 C 138.34375 179.925781 135.851563 181.429688 136.335938 182.734375 C 136.824219 184.039063 140.34375 189.4375 133.949219 183.6875 C 127.558594 177.941406 120.785156 181.066406 122.242188 181.769531 C 123.695313 182.46875 128.230469 186.308594 123.453125 185.382813 C 118.671875 184.457031 110.296875 190.539063 108.898438 191.449219 C 107.496094 192.359375 106.761719 194.289063 110.671875 193.398438 C 114.578125 192.503906 120.765625 195.402344 121.414063 197.050781 C 122.0625 198.695313 116.054688 203.765625 119.824219 204.335938 C 123.59375 204.90625 131.097656 202.34375 131.910156 204.328125 C 132.722656 206.316406 128.628906 208.523438 133.683594 209.734375 C 138.742188 210.949219 147.40625 207 150.285156 206.582031 C 150.328125 206.574219 150.375 206.578125 150.421875 206.574219 C 153.128906 208.964844 161.171875 214.238281 164.070313 219.128906 C 173.140625 234.441406 145.390625 251.910156 126.398438 256.433594 C 129.898438 251.367188 142.554688 247.707031 144.980469 242.878906 C 147.320313 238.234375 142.988281 239.941406 141.988281 238.039063 C 140.992188 236.136719 147.785156 232.050781 149.777344 228.800781 C 151.769531 225.546875 144.019531 226.882813 143.179688 225.324219 C 142.339844 223.765625 143.203125 216.539063 146.140625 213.808594 C 148.242188 211.859375 147.105469 210.566406 145.507813 211.050781 C 143.914063 211.535156 135.3125 215.113281 132.941406 219.367188 C 130.574219 223.621094 130.558594 217.679688 130.957031 216.113281 C 131.355469 214.550781 124.605469 217.714844 124.882813 226.308594 C 125.164063 234.898438 123.304688 228.730469 122.617188 227.515625 C 121.929688 226.304688 119.179688 227.246094 119.71875 232.121094 C 120.257813 236.996094 121.550781 240.441406 124.515625 243.949219 C 130.058594 250.496094 125.507813 254.246094 121.015625 257.925781 C 114.09375 263.589844 109.210938 265.828125 109.421875 275.769531 C 109.566406 282.449219 103.394531 278.269531 100.246094 274.0625 C 101.324219 271.683594 106.5625 265.359375 106.703125 260.847656 C 106.847656 256.304688 104.039063 259.25 102.550781 258.105469 C 101.0625 256.960938 104.953125 251.222656 105.34375 247.910156 C 105.730469 244.597656 100.066406 248.5 98.828125 247.570313 C 97.589844 246.644531 96.570313 240.753906 98.226563 237.664063 C 99.878906 234.574219 98.078125 234.746094 96.992188 235.71875 C 95.902344 236.691406 88.835938 242.355469 88.515625 246.601563 C 88.195313 250.847656 86 246.136719 85.746094 244.746094 C 85.488281 243.355469 82.878906 247.539063 86.253906 254.257813 C 89.238281 260.203125 86.492188 261.976563 83.808594 257.195313 C 78.300781 223.566406 96.292969 183.898438 147.847656 152.964844 Z M 138.796875 198.097656 C 136.527344 197.789063 129.695313 195.09375 128.03125 193.953125 C 126.371094 192.808594 127.636719 190.859375 130.199219 192.710938 C 132.765625 194.554688 140.390625 197.5 140.066406 196.371094 C 139.742188 195.242188 138.585938 193.863281 137.882813 192.105469 C 137.179688 190.34375 138.675781 189.855469 139.40625 192.074219 C 141.117188 197.28125 143.925781 199.375 146.691406 201.730469 C 147.636719 202.535156 147.105469 203.765625 145.777344 202.445313 C 144.878906 201.558594 143.703125 200.6875 141.613281 200.710938 C 139.527344 200.730469 136.78125 202.011719 135.449219 202.5 C 134.121094 202.984375 134.632813 201.199219 135.367188 200.984375 C 136.105469 200.773438 137.011719 200.210938 138.710938 199.960938 C 140.40625 199.703125 141.066406 198.40625 138.796875 198.097656 Z M 133.121094 226.570313 C 132.863281 223.417969 135.1875 223.347656 135.304688 225.359375 C 135.421875 227.371094 134.195313 234.613281 133.28125 236.714844 C 132.371094 238.816406 133.824219 238.925781 134.921875 237.601563 C 136.015625 236.28125 136.964844 235.796875 137.527344 235.273438 C 138.09375 234.753906 139.886719 235.242188 138.78125 236.128906 C 137.675781 237.015625 135.15625 238.703125 134.058594 240.476563 C 132.960938 242.253906 133.097656 243.710938 133.390625 244.9375 C 133.832031 246.757813 132.503906 246.574219 132.304688 245.347656 C 131.71875 241.765625 131.382813 238.28125 127.8125 234.117188 C 126.289063 232.347656 127.484375 231.316406 128.628906 232.828125 C 129.769531 234.34375 130.351563 236.046875 131.148438 236.90625 C 131.945313 237.769531 133.375 229.71875 133.121094 226.570313 "/>
<path style=" stroke:none;fill-rule:nonzero;fill:rgb(0%,0%,0%);fill-opacity:1;" d="M 35.132813 161.105469 C 45.722656 164.566406 44.730469 163.757813 48.53125 158.113281 C 52.332031 152.464844 57.703125 156.472656 59.414063 160.605469 C 61.128906 164.734375 63.675781 166.039063 64.703125 166.878906 C 65.730469 167.714844 66.375 166.429688 65.191406 163.507813 C 64.007813 160.582031 68.183594 161.070313 69.785156 163.480469 C 71.386719 165.894531 72.574219 165.605469 71.9375 162.875 C 71.300781 160.144531 76.921875 158.546875 77.722656 160.960938 C 78.519531 163.367188 80.546875 160.449219 80.90625 157.976563 C 81.265625 155.503906 84.152344 156.953125 85.046875 159.492188 C 85.691406 161.316406 91.296875 148.007813 90.921875 142.675781 C 90.546875 137.34375 97.613281 134.507813 100.753906 137.375 C 103.898438 140.238281 111.535156 139.460938 112.601563 136.058594 C 113.667969 132.65625 111.199219 129.695313 109.769531 127.996094 C 108.34375 126.300781 110.742188 124.660156 106.410156 119.871094 C 104.648438 117.921875 99.832031 118.378906 99.03125 116.769531 C 98.230469 115.160156 97.894531 109.519531 93.828125 110.074219 C 89.761719 110.625 81.339844 112.949219 82.550781 119.664063 C 83.757813 126.378906 77.359375 118.9375 75.863281 122.253906 C 74.367188 125.570313 72.828125 132.941406 75.128906 137.636719 C 77.433594 142.328125 74.414063 140.609375 73.164063 138.9375 C 71.914063 137.265625 73.128906 126.101563 66.453125 123.070313 C 59.777344 120.039063 61.980469 126.210938 59.574219 125.402344 C 57.167969 124.59375 53.710938 113.40625 46.179688 121.839844 C 38.648438 130.273438 46.070313 138.296875 46.789063 140.476563 C 47.503906 142.636719 46.011719 144.546875 44.058594 141.789063 C 42.765625 139.960938 41.914063 137.519531 39.769531 136.996094 C 33.796875 135.53125 27.363281 141.050781 28.800781 145.390625 C 30.238281 149.730469 24.542969 157.644531 35.132813 161.105469 Z M 77.296875 146.441406 C 79.121094 149.6875 79.441406 153.699219 78.503906 155.5625 C 77.535156 157.488281 77.054688 156.847656 77.667969 154.183594 C 78.285156 151.515625 75.53125 145.953125 74.925781 144.605469 C 74.316406 143.253906 75.472656 143.191406 77.296875 146.441406 "/>
</g>
</svg>
