<?xml version="1.0" encoding="UTF-8"?>
<svg xmlns="http://www.w3.org/2000/svg" xmlns:xlink="http://www.w3.org/1999/xlink" width="441pt" height="464pt" viewBox="0 0 441 464" version="1.1">
<g id="surface1">
<path style=" stroke:none;fill-rule:nonzero;fill:rgb(0%,0%,0%);fill-opacity:1;" d="M 338.046875 106.441406 L 338.046875 119.890625 C 338.046875 119.890625 370.355469 113.449219 374.410156 162.796875 L 374.410156 321.832031 C 373.261719 480.207031 205.128906 478.4375 205.128906 311.585938 L 205.128906 162.796875 C 205.621094 151.140625 209.0625 142.621094 213.648438 136.40625 C 229.152344 137.863281 242.222656 135.871094 256.191406 128.1875 C 261.753906 133.296875 275.824219 129.917969 277.890625 125.160156 C 278.082031 124.210938 278.566406 124.882813 279.496094 125.472656 C 286.179688 129.691406 322.070313 137.878906 321.808594 104.242188 C 321.667969 86.046875 299.132813 78.695313 281 87.832031 C 280.722656 87.972656 279.933594 87.859375 279.773438 87.671875 C 270.90625 77.164063 260.835938 76.398438 252.089844 83.445313 C 251.792969 83.683594 251.105469 83.707031 251.027344 83.476563 C 246.886719 70.777344 232.511719 60.949219 220.480469 66.847656 C 219.964844 67.101563 219.449219 66.8125 219.6875 66.40625 C 229.386719 49.953125 213.277344 23.191406 183.953125 33.730469 C 183.730469 33.808594 183.253906 33.558594 183.230469 33.347656 C 178.894531 -8.1875 112.089844 -11.085938 108.09375 30.808594 C 108.0625 31.117188 107.46875 31.414063 107.191406 31.277344 C 96.316406 25.785156 77.855469 27.105469 68.566406 42.644531 C 68.414063 42.898438 67.621094 43.25 67.347656 43.160156 C 46.246094 36.328125 20.652344 43.5 26.074219 71.769531 C 33.734375 111.71875 74.226563 98.972656 81.289063 93.210938 C 81.480469 93.054688 82.085938 92.941406 82.246094 93.035156 C 87.59375 96.054688 102.566406 99.042969 114.417969 90.359375 C 114.613281 90.214844 115.484375 90.078125 115.730469 90.152344 C 126.058594 93.464844 136.335938 96.144531 151.550781 96.273438 C 173.410156 96.453125 189.738281 91.074219 201.210938 84.101563 C 201.472656 83.941406 201.765625 84.136719 201.664063 84.398438 C 200.609375 87.097656 200.132813 90.03125 200.464844 93.210938 C 200.496094 93.492188 200.089844 93.957031 199.84375 93.910156 C 192.257813 92.460938 181.273438 95.355469 178.027344 106.441406 L 117.71875 106.441406 L 117.71875 119.890625 C 117.71875 119.890625 162.222656 117.003906 162.222656 162.796875 L 162.222656 219.410156 C 162.222656 219.410156 162 219.558594 161.890625 219.488281 C 138.765625 205.765625 104.453125 193.84375 68.789063 206.8125 C 68.789063 206.8125 66.59375 207.648438 63.007813 209.511719 C 62.867188 209.585938 62.753906 209.464844 62.828125 209.324219 C 63.683594 207.722656 63.515625 205.695313 62.242188 204.257813 C 60.601563 202.410156 57.777344 202.242188 55.929688 203.882813 C 54.082031 205.519531 53.914063 208.347656 55.554688 210.191406 C 56.351563 211.09375 57.433594 211.578125 58.546875 211.660156 C 58.726563 211.675781 58.765625 211.859375 58.601563 211.953125 C 39.441406 223.179688 -0.0859375 254.480469 0.246094 321.761719 C 0.25 322.652344 0.460938 322.96875 1.21875 322.074219 C 4.324219 318.40625 14.382813 302.003906 24.003906 300.546875 C 38.359375 298.371094 42.777344 320.671875 44.179688 319.808594 C 45.820313 318.796875 56.84375 288.832031 65.667969 285.71875 C 79.882813 280.703125 87.90625 302.285156 93.820313 302.539063 C 94.535156 302.570313 96.585938 300.152344 97.5 298.488281 C 97.78125 297.976563 98.5 297.855469 98.726563 298.226563 C 106.710938 311.308594 129.894531 356.09375 134.394531 372.199219 C 136.761719 380.664063 132.363281 391.816406 117.710938 379.605469 C 114.109375 376.605469 108.960938 379.46875 112.921875 384.386719 C 127.164063 402.082031 145.445313 389.707031 141.78125 373.207031 C 136.914063 351.296875 107.140625 297.203125 100.304688 286.042969 C 101.800781 278.433594 104.121094 269.800781 109.320313 266.152344 C 122.183594 257.128906 145.246094 274.53125 145.921875 271.035156 C 146.59375 267.539063 147.421875 255.519531 156.230469 245.464844 C 157.6875 243.804688 159.636719 242.722656 161.847656 242.027344 C 161.96875 241.988281 162.222656 242.210938 162.222656 242.210938 L 162.222656 311.585938 C 162.222656 516.085938 403.277344 514.601563 400.878906 304.328125 L 400.878906 162.796875 C 401.625 113.28125 440.585938 119.890625 440.585938 119.890625 L 440.585938 106.441406 Z M 162.222656 224.058594 C 162.222656 224.058594 161.910156 224.382813 161.75 224.328125 C 160.339844 223.828125 158.777344 223.691406 157.203125 224.035156 C 152.691406 225.019531 149.84375 229.457031 150.828125 233.96875 C 151.371094 236.460938 153.839844 238.808594 156.007813 239.953125 C 156.125 240.015625 156.191406 240.234375 156.070313 240.328125 C 154.570313 241.476563 149.269531 246.574219 148.414063 250.125 C 148.386719 250.238281 148.03125 250.386719 147.847656 250.351563 C 147.15625 250.207031 146.261719 250.0625 145.378906 250.105469 C 140.769531 250.335938 137.949219 256.183594 138.933594 260.695313 C 139.511719 263.351563 141.472656 266.007813 143.152344 266.820313 C 143.644531 266.992188 143.984375 267.425781 143.304688 267.476563 C 141.394531 268.25 128.980469 257.933594 114.210938 261.621094 C 114.058594 261.660156 113.9375 261.484375 114.023438 261.355469 C 115.238281 259.539063 115.761719 257.273438 115.261719 254.964844 C 114.277344 250.453125 109.839844 247.605469 105.328125 248.589844 C 100.816406 249.574219 97.96875 254.011719 98.953125 258.523438 C 99.65625 261.742188 102.117188 264.113281 105.109375 264.847656 C 105.269531 264.886719 105.363281 265.152344 105.253906 265.257813 C 102.695313 267.664063 100.75 271.328125 99.210938 275.234375 C 98.652344 275.257813 97.867188 275.414063 96.710938 275.667969 C 92.8125 276.519531 89.351563 281.089844 90.335938 285.601563 C 90.902344 288.191406 92.09375 290.304688 93.566406 291.296875 C 93.644531 291.351563 93.738281 291.589844 93.699219 291.679688 C 93.390625 292.429688 92.863281 294.046875 92.5 294.734375 C 92.40625 294.90625 92.074219 295.027344 91.910156 294.914063 C 89.46875 293.183594 76.707031 276.5625 63.597656 282.460938 C 61.589844 283.367188 59.417969 285.480469 57.398438 288.390625 C 57.28125 288.558594 57.027344 288.5625 56.992188 288.386719 C 56.007813 283.878906 51.566406 281.027344 47.058594 282.011719 C 42.546875 282.996094 39.699219 287.433594 40.683594 291.945313 C 41.664063 296.453125 46.105469 299.304688 50.613281 298.320313 C 50.910156 298.257813 51.199219 298.171875 51.476563 298.070313 C 51.664063 298.007813 51.816406 298.296875 51.710938 298.511719 C 48.742188 304.644531 46.523438 310.257813 45.835938 310.679688 C 45.078125 311.148438 41.734375 305.101563 36.386719 300.671875 L 36.203125 297.835938 C 35.21875 293.324219 32.089844 290.613281 26.269531 291.457031 C 23.019531 291.929688 19.855469 296.515625 19.109375 299.496094 C 10.882813 302.261719 5.503906 313.628906 3.929688 315.925781 C 3.347656 316.78125 3.25 316.371094 3.246094 315.710938 C 3.199219 308.539063 3.902344 301.800781 4.878906 295.464844 C 4.90625 295.285156 5.222656 295.226563 5.371094 295.351563 C 5.957031 295.851563 6.761719 296.140625 7.851563 296.113281 C 12.46875 296.011719 15.210938 290.691406 14.226563 286.183594 C 13.464844 282.691406 11.320313 279.601563 8.875 279.878906 C 8.714844 279.894531 8.496094 279.597656 8.554688 279.410156 C 12.726563 265.699219 19.09375 254.328125 26.191406 245 C 26.335938 244.808594 26.644531 244.820313 26.660156 245.015625 C 26.6875 245.296875 26.726563 245.578125 26.785156 245.859375 C 27.769531 250.367188 32.210938 253.21875 36.71875 252.234375 C 41.230469 251.25 44.078125 246.8125 43.09375 242.304688 C 42.210938 238.242188 38.523438 235.566406 34.503906 235.785156 C 34.320313 235.796875 34.203125 235.566406 34.332031 235.433594 C 46.453125 222.660156 59.070313 215.070313 65.914063 211.527344 C 66.089844 211.433594 66.222656 211.59375 66.125 211.765625 C 65.167969 213.480469 64.804688 215.535156 65.257813 217.609375 C 66.242188 222.117188 70.679688 224.96875 75.191406 223.984375 C 79.699219 223 82.550781 218.5625 81.566406 214.050781 C 80.90625 211.019531 78.671875 208.753906 75.910156 207.890625 C 75.699219 207.820313 75.753906 207.5625 76 207.488281 C 81.96875 205.730469 87.925781 204.695313 93.808594 204.25 C 95.703125 207.960938 98.914063 209.773438 102.855469 208.914063 C 106.613281 208.097656 108.019531 206.550781 108.546875 204.304688 C 115.085938 204.835938 121.4375 205.996094 127.507813 207.597656 C 127.703125 207.648438 127.683594 207.84375 127.515625 207.890625 C 123.304688 209.089844 120.707031 213.359375 121.652344 217.695313 C 122.636719 222.203125 127.074219 225.054688 131.585938 224.070313 C 136.097656 223.085938 138.945313 218.648438 137.960938 214.136719 C 137.648438 212.710938 136.980469 211.460938 136.082031 210.4375 C 135.96875 210.304688 136.113281 210.183594 136.308594 210.25 C 146.089844 213.613281 154.878906 217.949219 162.222656 222.285156 Z M 200.820313 80.402344 C 191.957031 86.679688 172.703125 91.480469 150.210938 91.480469 C 136.050781 91.480469 123.207031 89.566406 113.59375 86.457031 C 108.761719 89.980469 102.828125 92.082031 96.390625 92.082031 C 90.636719 92.082031 85.289063 90.398438 80.765625 87.535156 C 75.835938 92.523438 68.722656 95.679688 60.785156 95.679688 C 43.421875 95.679688 30.574219 83.558594 30.574219 68.203125 C 30.574219 36.378906 65.4375 46.441406 70.125 48.03125 C 70.410156 48.125 71.214844 47.90625 71.339844 47.695313 C 81.867188 30.285156 98.753906 30.136719 111.386719 37.703125 C 114.214844 -5.921875 172.773438 -4.5 177.335938 38.003906 C 177.359375 38.257813 177.710938 38.65625 177.9375 38.597656 C 183.410156 37.148438 218.203125 29.535156 214.886719 58.667969 C 213.824219 67.996094 211.460938 72.535156 200.820313 80.402344 Z M 185.824219 106.441406 C 185.824219 106.441406 185.390625 105.949219 185.480469 105.714844 C 188.632813 97.328125 202.386719 96.703125 206.222656 96.957031 C 206.613281 96.984375 206.992188 96.53125 206.964844 96.269531 C 203.589844 65.316406 240.054688 58.84375 249.683594 88.503906 C 249.777344 88.78125 250.417969 88.929688 250.6875 88.71875 C 262.3125 79.695313 267.964844 80.742188 277.535156 91.914063 C 277.691406 92.097656 278.367188 92.246094 278.554688 92.148438 C 297.726563 82.027344 316.835938 89.222656 318.132813 103.347656 C 319.972656 123.46875 295.265625 133.5 277.882813 120.738281 C 269.769531 128.777344 266.132813 129.867188 255.371094 124.257813 C 241.9375 131.644531 228.605469 132.746094 218.488281 132 C 218.140625 132 218.019531 131.425781 218.308594 131.15625 C 228.800781 121.273438 241.707031 119.890625 241.707031 119.890625 L 241.707031 106.441406 L 185.824219 106.441406 "/>
<path style=" stroke:none;fill-rule:nonzero;fill:rgb(0%,0%,0%);fill-opacity:1;" d="M 100.132813 214.96875 C 95.621094 215.953125 92.769531 220.390625 93.753906 224.902344 C 94.734375 229.386719 99.175781 232.261719 103.6875 231.277344 C 108.195313 230.292969 111.039063 225.828125 110.0625 221.34375 C 109.078125 216.835938 104.640625 213.984375 100.132813 214.96875 "/>
<path style=" stroke:none;fill-rule:nonzero;fill:rgb(0%,0%,0%);fill-opacity:1;" d="M 125.007813 232.339844 C 120.523438 233.316406 117.648438 237.761719 118.632813 242.269531 C 119.613281 246.78125 124.078125 249.625 128.5625 248.648438 C 133.074219 247.664063 135.921875 243.226563 134.941406 238.714844 C 133.957031 234.203125 129.519531 231.355469 125.007813 232.339844 "/>
<path style=" stroke:none;fill-rule:nonzero;fill:rgb(0%,0%,0%);fill-opacity:1;" d="M 67.488281 237.621094 C 66.503906 233.113281 62.066406 230.265625 57.554688 231.246094 C 53.042969 232.230469 50.195313 236.671875 51.179688 241.179688 C 52.164063 245.691406 56.601563 248.539063 61.113281 247.554688 C 65.621094 246.570313 68.46875 242.132813 67.488281 237.621094 "/>
<path style=" stroke:none;fill-rule:nonzero;fill:rgb(0%,0%,0%);fill-opacity:1;" d="M 73.402344 263.027344 C 68.917969 264.003906 66.042969 268.449219 67.027344 272.960938 C 68.007813 277.46875 72.472656 280.3125 76.957031 279.335938 C 81.46875 278.351563 84.316406 273.910156 83.335938 269.402344 C 82.351563 264.890625 77.910156 262.042969 73.402344 263.027344 "/>
<path style=" stroke:none;fill-rule:nonzero;fill:rgb(0%,0%,0%);fill-opacity:1;" d="M 83.160156 239.972656 C 78.652344 240.953125 75.800781 245.394531 76.785156 249.902344 C 77.769531 254.414063 82.207031 257.261719 86.71875 256.277344 C 91.226563 255.296875 94.078125 250.855469 93.09375 246.347656 C 92.109375 241.835938 87.671875 238.988281 83.160156 239.972656 "/>
<path style=" stroke:none;fill-rule:nonzero;fill:rgb(0%,0%,0%);fill-opacity:1;" d="M 23.414063 263.679688 C 18.902344 264.660156 16.054688 269.101563 17.035156 273.609375 C 18.023438 278.121094 22.460938 280.96875 26.96875 279.988281 C 31.480469 279.003906 34.328125 274.5625 33.34375 270.054688 C 32.363281 265.546875 27.921875 262.695313 23.414063 263.679688 "/>
<path style=" stroke:none;fill-rule:nonzero;fill:rgb(0%,0%,0%);fill-opacity:1;" d="M 47.113281 256.800781 C 42.601563 257.785156 39.753906 262.222656 40.738281 266.734375 C 41.71875 271.246094 46.160156 274.09375 50.667969 273.109375 C 55.179688 272.125 58.027344 267.6875 57.042969 263.179688 C 56.0625 258.667969 51.621094 255.816406 47.113281 256.800781 "/>
<path style=" stroke:none;fill-rule:nonzero;fill:rgb(0%,0%,0%);fill-opacity:1;" d="M 91.5 145.242188 C 99.308594 143.421875 100.835938 124.261719 100.890625 119.34375 C 100.898438 118.542969 100.453125 118.902344 100.273438 119.234375 C 89 139.761719 78.101563 130.625 78.535156 136.132813 C 79.027344 142.375 82.632813 147.316406 91.5 145.242188 Z M 80.796875 136.273438 C 81.789063 132.542969 87.257813 142.488281 98.375 124.289063 C 98.554688 123.996094 99.152344 123.628906 99.09375 124.679688 C 98.851563 128.9375 96.605469 141.746094 91.292969 143.59375 C 85.144531 145.730469 79.496094 141.164063 80.796875 136.273438 "/>
<path style=" stroke:none;fill-rule:nonzero;fill:rgb(0%,0%,0%);fill-opacity:1;" d="M 48.84375 166.527344 C 49.285156 172.128906 54.234375 177.683594 61.273438 176.035156 C 68.71875 174.300781 70.808594 156.539063 71.136719 150.550781 C 71.207031 149.234375 70.464844 149.847656 70.132813 150.433594 C 59.019531 169.914063 48.417969 161.089844 48.84375 166.527344 Z M 51.105469 166.664063 C 52.09375 162.949219 57.53125 172.816406 68.574219 154.859375 C 68.789063 154.511719 69.453125 153.980469 69.40625 154.949219 C 69.207031 159.074219 66.96875 172.121094 61.601563 173.988281 C 55.453125 176.125 49.804688 171.558594 51.105469 166.664063 "/>
<path style=" stroke:none;fill-rule:nonzero;fill:rgb(0%,0%,0%);fill-opacity:1;" d="M 67.167969 115.894531 C 55.871094 136.574219 44.933594 127.390625 45.367188 132.910156 C 45.898438 139.664063 50.132813 143.933594 58.328125 142.019531 C 66.125 140.199219 67.660156 121.097656 67.722656 116.144531 C 67.730469 115.328125 67.328125 115.597656 67.167969 115.894531 Z M 58.125 140.371094 C 51.972656 142.507813 46.328125 137.941406 47.628906 133.050781 C 48.617188 129.335938 54.042969 139.183594 65.070313 121.289063 C 65.292969 120.925781 65.972656 120.324219 65.933594 121.214844 C 65.773438 125.203125 63.542969 138.488281 58.125 140.371094 "/>
</g>
</svg>
