<?xml version="1.0" encoding="UTF-8"?>
<svg xmlns="http://www.w3.org/2000/svg" xmlns:xlink="http://www.w3.org/1999/xlink" width="357pt" height="365pt" viewBox="0 0 357 365" version="1.1">
<g id="surface1">
<path style=" stroke:none;fill-rule:nonzero;fill:rgb(0%,0%,0%);fill-opacity:1;" d="M 154.921875 127.6875 C 153.320313 129.921875 153.839844 132.472656 155.90625 134 C 160.921875 137.707031 169.339844 132.125 166.152344 127.335938 C 165.214844 125.921875 163.0625 124.988281 160.082031 125.886719 C 157.105469 126.78125 159.710938 129.492188 161.957031 128.703125 C 163.5625 128.140625 164.070313 130.488281 160.8125 131.578125 C 157.558594 132.667969 156.1875 129.246094 156.632813 128.265625 C 157.078125 127.28125 156.527344 125.453125 154.921875 127.6875 "/>
<path style=" stroke:none;fill-rule:nonzero;fill:rgb(0%,0%,0%);fill-opacity:1;" d="M 149.136719 129.113281 C 150.054688 129.679688 153.308594 130.628906 152.375 129.394531 C 151.019531 127.597656 152.503906 123.953125 155.175781 122.773438 C 159.367188 120.921875 163.648438 124.796875 165.140625 122.550781 C 165.734375 121.652344 163.085938 120.09375 160.554688 119.144531 C 158.027344 118.195313 156.355469 115.8125 160.328125 116.625 C 164.300781 117.4375 169.105469 121.191406 170.671875 125.136719 C 172.25 129.105469 176.132813 126.550781 176.996094 125.246094 C 177.863281 123.941406 181.183594 117.710938 177.675781 114.027344 C 171.394531 107.4375 166.019531 111.011719 164.074219 110.523438 C 162.125 110.035156 159.550781 106.574219 155.933594 104.542969 C 152.316406 102.511719 142.167969 102.285156 137.902344 112.582031 C 133.632813 122.875 146.53125 127.519531 149.136719 129.113281 "/>
<path style=" stroke:none;fill-rule:nonzero;fill:rgb(0%,0%,0%);fill-opacity:1;" d="M 167.464844 137.015625 C 164.03125 138.0625 164.53125 139.730469 166.953125 140.394531 C 169.375 141.058594 171.011719 139.472656 172.113281 138.785156 C 173.210938 138.101563 174.273438 139.09375 173.472656 140.210938 C 172.671875 141.324219 170.441406 143.769531 168.433594 143.84375 C 166.425781 143.921875 167.851563 145.828125 169.527344 145.605469 C 171.210938 145.378906 174.214844 143.621094 175.460938 142.609375 C 176.710938 141.597656 177.199219 144.285156 176.289063 144.957031 C 175.382813 145.628906 171.71875 149.394531 168.164063 148.96875 C 164.609375 148.542969 167.40625 150.203125 169.101563 150.378906 C 170.796875 150.554688 175.824219 151.648438 178.808594 147.675781 C 181.789063 143.699219 180.621094 133.96875 176.308594 131.386719 C 171.996094 128.800781 167.453125 128.332031 168.730469 130.292969 C 170.003906 132.234375 170.894531 135.964844 167.464844 137.015625 "/>
<path style=" stroke:none;fill-rule:nonzero;fill:rgb(0%,0%,0%);fill-opacity:1;" d="M 152.738281 134.6875 C 149.472656 137.546875 148.886719 145.367188 151.035156 148.902344 C 153.179688 152.4375 158.507813 155.046875 163.773438 153.902344 C 167.328125 153.128906 166.074219 152.628906 163.882813 151.800781 C 161.691406 150.976563 160.042969 150.117188 161.972656 148.929688 C 165.113281 146.996094 162.984375 146.03125 160.917969 146.671875 C 158.851563 147.316406 156.800781 146.1875 158.226563 145.652344 C 159.652344 145.113281 162.546875 143.859375 164.105469 142.59375 C 165.667969 141.328125 162.074219 141.519531 160.480469 141.542969 C 158.886719 141.570313 155.921875 139.796875 156.320313 137.613281 C 156.71875 135.425781 153.6875 133.855469 152.738281 134.6875 "/>
<path style=" stroke:none;fill-rule:nonzero;fill:rgb(0%,0%,0%);fill-opacity:1;" d="M 179.535156 133.09375 C 180.847656 135.859375 182.054688 137.773438 182.644531 136.59375 C 186.972656 127.902344 184.757813 137.363281 183.519531 140.15625 C 182.28125 142.953125 182.796875 145.140625 186.191406 143.128906 C 189.585938 141.121094 186.445313 145.613281 180.949219 149.039063 C 178.785156 150.390625 179.554688 151.167969 182.796875 151.847656 C 186.039063 152.527344 184.796875 154.921875 179.5 153.117188 C 174.203125 151.308594 164.96875 156.363281 162.910156 156.648438 C 160.851563 156.933594 163.296875 158.824219 164.953125 159.542969 C 166.605469 160.265625 168.4375 165.046875 172.980469 169.6875 C 177.519531 174.328125 182.203125 169.492188 183.117188 167.773438 C 184.03125 166.050781 187.882813 169.054688 195.589844 162.488281 C 203.300781 155.921875 200.304688 146.367188 199.535156 144.824219 C 198.769531 143.28125 198.925781 140.402344 200.214844 138.632813 C 201.5 136.859375 202.242188 126.421875 193.359375 121.21875 C 184.476563 116.011719 177.804688 125.953125 177.261719 128.238281 C 176.710938 130.554688 178.222656 130.328125 179.535156 133.09375 "/>
<path style=" stroke:none;fill-rule:nonzero;fill:rgb(0%,0%,0%);fill-opacity:1;" d="M 126.292969 150.320313 C 127.648438 152.117188 120.15625 159.5625 130.84375 165.585938 C 141.527344 171.605469 145.09375 167.460938 149.867188 168.242188 C 154.644531 169.023438 157.96875 174.527344 163.050781 172.886719 C 168.132813 171.242188 167.222656 162.3125 162.195313 159.539063 C 153.511719 154.757813 145.675781 156.671875 142.367188 157.617188 C 139.058594 158.566406 139.664063 156.15625 143 155.320313 C 146.335938 154.484375 151.011719 154.613281 153.511719 154.757813 C 156.007813 154.902344 152.4375 151.902344 148.867188 151.078125 C 145.296875 150.246094 141.933594 148.527344 140.402344 148.425781 C 138.871094 148.324219 142.527344 147.21875 146.601563 148.671875 C 150.679688 150.121094 149.179688 146.210938 147.316406 143.789063 C 145.453125 141.367188 145.546875 137.9375 147.046875 137.234375 C 148.550781 136.535156 151.960938 134.605469 149.359375 132.246094 L 149.203125 132.019531 C 148.070313 129.730469 137.199219 124.585938 131.808594 125.597656 C 125.585938 126.769531 118.722656 131.554688 118.539063 139.359375 C 118.359375 147.164063 124.9375 148.519531 126.292969 150.320313 "/>
<path style=" stroke:none;fill-rule:nonzero;fill:rgb(0%,0%,0%);fill-opacity:1;" d="M 348.851563 334.050781 C 338.054688 354.253906 290.539063 385.40625 280.617188 299.820313 C 293.28125 303.390625 309.003906 299.511719 314.554688 290.214844 C 320.464844 280.304688 311.4375 261.558594 303.804688 252.34375 C 302.714844 251.027344 294.683594 241.941406 293.84375 241.046875 C 288.988281 235.871094 283.792969 231.289063 278.242188 227.265625 C 277.066406 210.320313 281.152344 152.457031 285.925781 112.785156 C 314.347656 74.109375 347.347656 3.066406 322.765625 0.351563 C 301.296875 -2.023438 267.046875 78.421875 263.785156 128.367188 C 242.753906 159.464844 218.289063 194.769531 211.1875 204.953125 C 203.011719 204.355469 194.429688 204.246094 185.417969 204.605469 C 183.640625 200.558594 181.511719 196.53125 178.992188 192.574219 C 176.726563 189.011719 188.910156 184.296875 191.28125 183.46875 C 193.652344 182.644531 197.867188 179.664063 198.753906 174.886719 C 199.644531 170.109375 199.125 167.101563 201.011719 165.804688 C 202.902344 164.507813 203.660156 162.117188 199.542969 162.808594 C 195.421875 163.5 193.4375 169.402344 193.625 171.464844 C 193.8125 173.527344 189.085938 176.132813 186.710938 176.640625 C 184.335938 177.148438 180.039063 183.46875 179.28125 186.179688 C 178.527344 188.890625 176.488281 188.753906 176.785156 187.160156 C 177.078125 185.570313 175.359375 179.066406 176.324219 176.816406 C 178.414063 171.933594 172.953125 174.511719 169.976563 172.097656 C 167.21875 169.859375 168.238281 175.527344 169.53125 177.097656 C 170.824219 178.667969 173.785156 183.804688 171.746094 185.578125 C 169.703125 187.355469 165.292969 178.363281 162.566406 176.335938 C 159.839844 174.308594 155.101563 176.214844 153.1875 175.605469 C 151.273438 174.996094 148.910156 171.003906 145.722656 170.097656 C 142.53125 169.1875 135.5 171.308594 133.929688 172.597656 C 132.359375 173.890625 134.867188 174.46875 136.28125 173.339844 C 137.695313 172.207031 139.824219 172.964844 141.226563 174.246094 C 142.570313 175.476563 143.644531 180.976563 148.292969 184.25 C 152.945313 187.519531 166.152344 183.476563 174.238281 192.351563 C 177.488281 195.914063 180.152344 200.128906 182.28125 204.742188 C 169.769531 205.378906 156.460938 206.863281 142.289063 209.148438 C 108.277344 214.640625 112.964844 220.730469 135.816406 217.511719 C 151.761719 215.269531 168.589844 213.246094 185.269531 212.535156 C 187.632813 220.152344 188.765625 228.429688 188.757813 236.554688 C 179.34375 248.785156 167.527344 262.714844 153.789063 275.5625 C 153.132813 273.976563 152.15625 272.214844 150.753906 270.1875 C 153.503906 265.234375 156.035156 260.1875 153.386719 255.417969 C 151.214844 250.070313 144.839844 248.417969 142.125 243.8125 C 139.628906 239.585938 139.449219 241.871094 138.96875 243.574219 C 137.097656 250.210938 134.558594 255.574219 139.371094 260.71875 C 138.738281 265.316406 142.175781 267.957031 146.253906 269.917969 C 148.964844 272.960938 150.632813 275.464844 151.578125 277.605469 C 149.089844 279.875 146.542969 282.101563 143.9375 284.277344 C 138.09375 275.523438 130.605469 265.632813 116.269531 262.285156 C 118.175781 256.269531 115.167969 249.640625 110.378906 245.554688 C 107.253906 241.257813 103.675781 236.773438 105.496094 232.097656 C 106.675781 228.765625 104.054688 228.417969 102.097656 229.976563 C 97.753906 234.835938 95.050781 242.042969 96.65625 249.949219 C 97.523438 253.269531 102.746094 260.535156 108.640625 264.25 C 105.417969 265.566406 99.03125 267.695313 96.570313 267.921875 C 85.757813 268.921875 78.699219 271.671875 76.949219 280.085938 C 75.800781 286.554688 73.660156 288.632813 72.632813 291.398438 C 71.367188 294.796875 73.277344 293.664063 75.351563 292.972656 C 82.238281 290.675781 89.488281 292.835938 94.59375 285.035156 C 97.003906 280.441406 96.078125 274.519531 100.699219 270.859375 C 121.371094 257.304688 136.484375 277.152344 141.582031 286.21875 C 139.660156 287.777344 137.710938 289.300781 135.726563 290.789063 C 135.105469 289.175781 133.65625 284.972656 129.300781 281.363281 C 119.359375 273.042969 112.128906 278.992188 103.945313 280.695313 C 99.5625 281.605469 99.046875 282.027344 102.980469 284.285156 C 107.777344 287.035156 115.535156 290.90625 120.144531 292.152344 C 123.300781 293.789063 127.832031 292.128906 130.019531 289.414063 C 131.464844 289.324219 132.507813 290.753906 132.179688 293.394531 C 112.984375 307.132813 91.230469 317.101563 67.835938 318 C -9.441406 320.972656 14.0625 246.058594 27.371094 234.644531 C 42.34375 221.800781 26.625 218.605469 11.183594 237.878906 C -20.023438 276.828125 21.28125 352.976563 90.59375 330.371094 C 117.414063 337.167969 130.441406 331.515625 153.449219 327.28125 C 158.789063 326.296875 173.339844 332.015625 175.035156 309.746094 C 175.445313 304.363281 174.101563 303.566406 172.617188 308.367188 C 169.148438 315.367188 156.410156 309.640625 152.628906 324.179688 C 150.375 326.558594 145.746094 326.691406 142 326.390625 C 141.136719 326.320313 140.59375 325.199219 141.070313 324.78125 C 144.519531 321.777344 146.910156 318.03125 148.355469 313.96875 C 154.992188 306.335938 161.03125 300.894531 157.84375 288.589844 C 158.6875 287.828125 159.542969 287.019531 160.40625 286.1875 C 169.445313 286.367188 177.433594 281.164063 183.199219 272.585938 C 185.574219 270.832031 188.441406 270.042969 190.785156 273.320313 C 192.339844 275.496094 191.535156 279.476563 199.210938 280.488281 C 206.882813 281.496094 202.15625 276.914063 204.070313 277.921875 C 207.222656 279.582031 208.214844 278.914063 209.222656 278.453125 C 210.277344 277.96875 209.519531 277.574219 208.691406 277.347656 C 207.816406 277.109375 206.582031 276.011719 205.707031 272.742188 C 204.832031 269.476563 200.613281 261.324219 185.34375 269.039063 C 188.597656 263.089844 190.894531 255.894531 191.945313 247.972656 C 199.867188 237.042969 208.007813 225.117188 216.09375 213.015625 C 230.367188 214.242188 243.992188 217.085938 256.265625 222.277344 C 256.394531 243.769531 257.914063 264.890625 261.179688 284.25 C 230.9375 269.375 226.855469 275.871094 263.378906 295.761719 C 270.945313 331.074219 284.933594 361.578125 307.9375 364.46875 C 325.960938 366.734375 345.035156 352.820313 353.25 337.425781 C 359.675781 325.375 354.433594 323.605469 348.851563 334.050781 Z M 297.675781 46.074219 C 308.199219 13.300781 316.289063 8.847656 320.335938 15.320313 C 324.382813 21.796875 308.328125 68.648438 288.839844 90.621094 C 291.527344 71.964844 294.550781 55.820313 297.675781 46.074219 Z M 163.132813 182.839844 C 161.203125 181.277344 155.28125 182.519531 153.863281 181.703125 C 152.480469 180.902344 150.664063 177.101563 153.234375 179.289063 C 155.808594 181.480469 159.582031 178.757813 161.664063 180.160156 C 163.75 181.5625 165.058594 184.402344 163.132813 182.839844 Z M 149.808594 261.867188 C 149.226563 269.253906 147.59375 261.328125 146.878906 259.597656 C 145.90625 257.378906 143.703125 255.3125 143.128906 252.820313 C 142.703125 250.25 143.832031 251.824219 144.628906 252.71875 C 146.953125 255.328125 150.304688 257.464844 149.808594 261.867188 Z M 91.683594 276.902344 C 90.050781 278.878906 87.15625 279.738281 85.300781 281.289063 C 83.886719 282.519531 78.882813 288.878906 81.660156 282.011719 C 83.1875 277.847656 87.140625 277.4375 90.386719 276.140625 C 91.5 275.699219 93.210938 274.792969 91.683594 276.902344 Z M 108.859375 256.039063 C 104.746094 254.386719 104.449219 250.425781 103.253906 247.144531 C 102.84375 246.015625 101.992188 244.277344 104.054688 245.867188 C 105.976563 247.558594 106.753906 250.476563 108.246094 252.378906 C 109.433594 253.832031 115.640625 259.023438 108.859375 256.039063 Z M 126.445313 286.25 C 123.886719 286.164063 121.4375 284.394531 119.074219 283.867188 C 117.238281 283.496094 109.148438 283.410156 116.285156 281.425781 C 120.515625 280.097656 123.253906 282.972656 126.257813 284.757813 C 127.289063 285.367188 129.050781 286.171875 126.445313 286.25 Z M 162.480469 320.097656 C 164.421875 318.652344 165.933594 316.039063 168.230469 314.910156 C 170.640625 313.917969 169.359375 315.371094 168.671875 316.351563 C 166.65625 319.207031 165.335938 322.953125 160.933594 323.46875 C 153.609375 324.578125 160.957031 321.191406 162.480469 320.097656 Z M 97.167969 327.980469 C 109.839844 322.972656 122.089844 315.703125 133.269531 307.851563 C 130.664063 324.804688 114.011719 331.882813 97.167969 327.980469 Z M 124.433594 329.082031 C 123.171875 329.25 122.046875 328.242188 122.984375 327.84375 C 131.691406 324.171875 136.222656 313.929688 137.125 305.089844 C 140.261719 302.804688 143.304688 300.488281 146.234375 298.183594 C 151.175781 321.316406 131.46875 328.132813 124.433594 329.082031 Z M 149.269531 310.847656 C 150.191406 306.859375 150.507813 301.8125 149.347656 296.058594 C 151.132813 294.613281 155.820313 290.359375 156.042969 290.171875 C 156.902344 295.558594 156.214844 302.863281 149.269531 310.847656 Z M 194.378906 268.59375 C 198.277344 268.722656 199.714844 271.910156 201.691406 274.265625 C 202.371094 275.074219 203.597656 276.253906 201.414063 275.558594 C 199.3125 274.742188 197.796875 272.558594 195.984375 271.4375 C 194.566406 270.59375 187.875 268.167969 194.378906 268.59375 Z M 163.480469 283.117188 C 170.664063 275.703125 178.496094 266.074219 186.640625 255.175781 C 183.0625 270.214844 175.058594 281.855469 163.480469 283.117188 Z M 192.34375 231.824219 C 191.839844 225.503906 190.566406 218.96875 188.410156 212.410156 C 194.355469 212.214844 200.265625 212.203125 206.105469 212.417969 C 202.640625 217.523438 198.003906 224.242188 192.34375 231.824219 Z M 256.273438 214.996094 C 245.515625 210.519531 233.71875 207.535156 220.828125 205.902344 C 235.226563 184.179688 249.253906 162.390625 261.261719 145.179688 C 258.285156 167.4375 256.46875 191.335938 256.273438 214.996094 Z M 278.183594 235.570313 C 321.109375 271.753906 318.121094 304.761719 279.691406 290.484375 C 278.121094 271.652344 276.460938 252.949219 278.183594 235.570313 "/>
</g>
</svg>
