<?xml version="1.0" encoding="UTF-8"?>
<svg xmlns="http://www.w3.org/2000/svg" xmlns:xlink="http://www.w3.org/1999/xlink" width="309pt" height="460pt" viewBox="0 0 309 460" version="1.1">
<g id="surface1">
<path style=" stroke:none;fill-rule:nonzero;fill:rgb(0%,0%,0%);fill-opacity:1;" d="M 100.179688 405.503906 C 98.527344 406.734375 94.785156 408.851563 95.613281 410.265625 C 96.441406 411.675781 101.578125 410.097656 102.847656 408.476563 C 104.117188 406.851563 101.628906 404.421875 100.179688 405.503906 "/>
<path style=" stroke:none;fill-rule:nonzero;fill:rgb(0%,0%,0%);fill-opacity:1;" d="M 105.382813 407.035156 C 103.753906 407.574219 102.953125 409.523438 104.90625 410.324219 C 106.855469 411.125 112.140625 408.535156 112.910156 405.03125 C 113.679688 401.527344 109.242188 396.914063 105.953125 396.007813 C 99.992188 394.367188 98.242188 400.273438 97.660156 401.519531 C 96.53125 403.9375 98.453125 403.183594 101.492188 401.820313 C 104.53125 400.453125 107.011719 406.496094 105.382813 407.035156 "/>
<path style=" stroke:none;fill-rule:nonzero;fill:rgb(0%,0%,0%);fill-opacity:1;" d="M 145.765625 410.070313 C 148.554688 409.054688 150.28125 401.730469 141.5625 399.898438 C 137.550781 399.058594 130.078125 407.789063 126.25 405.679688 C 122.421875 403.574219 116.566406 402.980469 119.699219 408.085938 C 122.832031 413.191406 123.660156 414.605469 126.875 415.589844 C 131.039063 416.863281 129.015625 413.316406 126.671875 411.683594 C 124.324219 410.050781 128.195313 408.289063 130.257813 408.332031 C 132.320313 408.371094 140.398438 402.574219 141.1875 404.238281 C 141.980469 405.902344 141.859375 410.277344 137.332031 412.976563 C 132.804688 415.679688 141.6875 420.332031 134.851563 421.144531 C 128.015625 421.957031 120.644531 419.335938 117.734375 412.710938 C 114.824219 406.085938 112.394531 408.574219 113.796875 411.359375 C 114.882813 413.515625 119.007813 423.488281 129.746094 424.277344 C 140.484375 425.0625 144.1875 419.144531 142.242188 416.535156 C 140.296875 413.925781 142.21875 411.363281 145.765625 410.070313 "/>
<path style=" stroke:none;fill-rule:nonzero;fill:rgb(0%,0%,0%);fill-opacity:1;" d="M 133.054688 375.792969 C 126.003906 376.320313 125.558594 366.953125 119.300781 374.4375 C 113.042969 381.925781 115.921875 395.003906 112.304688 394.996094 C 108.6875 394.984375 109.101563 396.59375 110.921875 397.378906 C 112.671875 398.128906 121.335938 404.835938 132.050781 399.550781 C 142.769531 394.261719 135.1875 390.445313 138.71875 387.472656 C 142.253906 384.496094 140.109375 375.273438 133.054688 375.792969 Z M 136.664063 384.71875 C 136.078125 388.765625 132.699219 387.113281 132.042969 389.859375 C 131.382813 392.605469 136.21875 397.570313 128.585938 398.527344 C 120.953125 399.484375 121.730469 398.5625 124.917969 397.089844 C 128.105469 395.617188 129.34375 392.4375 125.632813 393.964844 C 121.921875 395.492188 116.652344 398.855469 119.570313 395.664063 C 122.488281 392.472656 123.910156 388.933594 124.621094 386.710938 C 125.332031 384.488281 124.601563 379.730469 122.800781 384.121094 C 121 388.507813 120.050781 392.375 117.078125 394.140625 C 114.109375 395.902344 115.34375 394.53125 116.429688 393.269531 C 118.449219 390.929688 118.574219 375.882813 121.882813 375.332031 C 125.195313 374.78125 127.0625 378.796875 129.449219 379.277344 C 131.835938 379.75 137.253906 380.667969 136.664063 384.71875 "/>
<path style=" stroke:none;fill-rule:nonzero;fill:rgb(0%,0%,0%);fill-opacity:1;" d="M 106.214844 365.816406 C 102.59375 361.414063 94.886719 363.78125 94.402344 367.972656 C 94.171875 370.003906 88.589844 371.519531 87.457031 376.652344 C 86.324219 381.78125 96.566406 392.675781 98.367188 394 C 101.867188 396.578125 104.042969 394.050781 102.421875 392.78125 C 100.796875 391.511719 101.308594 389.777344 102.277344 385.785156 C 103.246094 381.789063 101.25 377.753906 100.167969 383.410156 C 99.085938 389.066406 97.550781 381.867188 97.957031 378.179688 C 98.363281 374.492188 95.585938 379.382813 95.578125 382.097656 C 95.570313 384.808594 96.882813 388.226563 95.726563 387.285156 C 94.574219 386.34375 92.503906 381.90625 91.785156 380.640625 C 91.066406 379.371094 90.058594 376.511719 93.15625 375.671875 C 96.25 374.832031 97.132813 367.851563 100.515625 367.699219 C 103.898438 367.546875 104.917969 371.183594 108.402344 372.980469 C 111.886719 374.78125 110.050781 385.625 107.941406 389.453125 C 105.835938 393.277344 107.425781 393.898438 108.714844 392.148438 C 110.003906 390.398438 111.78125 387.941406 113.359375 378.871094 C 114.9375 369.796875 109.839844 370.21875 106.214844 365.816406 "/>
<path style=" stroke:none;fill-rule:nonzero;fill:rgb(0%,0%,0%);fill-opacity:1;" d="M 292.625 381.839844 C 291 380.570313 288.570313 383.058594 289.652344 384.507813 C 290.886719 386.160156 293.003906 389.902344 294.417969 389.074219 C 295.828125 388.246094 294.25 383.105469 292.625 381.839844 "/>
<path style=" stroke:none;fill-rule:nonzero;fill:rgb(0%,0%,0%);fill-opacity:1;" d="M 291.183594 379.304688 C 291.722656 380.929688 293.675781 381.730469 294.476563 379.78125 C 295.273438 377.832031 292.683594 372.546875 289.175781 371.777344 C 285.671875 371.011719 281.0625 375.449219 280.15625 378.738281 C 278.519531 384.699219 284.425781 386.449219 285.671875 387.03125 C 288.09375 388.15625 287.335938 386.238281 285.96875 383.199219 C 284.601563 380.15625 290.644531 377.675781 291.183594 379.304688 "/>
<path style=" stroke:none;fill-rule:nonzero;fill:rgb(0%,0%,0%);fill-opacity:1;" d="M 300.664063 342.441406 C 298.058594 344.390625 295.496094 342.46875 294.199219 338.921875 C 293.183594 336.132813 285.859375 334.410156 284.03125 343.128906 C 283.191406 347.140625 291.925781 354.609375 289.820313 358.4375 C 287.714844 362.265625 287.121094 368.121094 292.226563 364.988281 C 297.335938 361.851563 298.746094 361.023438 299.730469 357.808594 C 301.003906 353.644531 297.453125 355.667969 295.824219 358.015625 C 294.191406 360.363281 292.429688 356.488281 292.46875 354.429688 C 292.507813 352.367188 286.703125 344.292969 288.371094 343.5 C 290.035156 342.707031 294.410156 342.824219 297.113281 347.351563 C 299.8125 351.878906 304.460938 342.992188 305.277344 349.828125 C 306.09375 356.664063 303.476563 364.035156 296.851563 366.949219 C 290.230469 369.863281 292.71875 372.292969 295.507813 370.886719 C 297.660156 369.800781 307.628906 365.671875 308.414063 354.933594 C 309.195313 344.195313 303.273438 340.496094 300.664063 342.441406 "/>
<path style=" stroke:none;fill-rule:nonzero;fill:rgb(0%,0%,0%);fill-opacity:1;" d="M 281.523438 373.769531 C 282.273438 372.023438 288.976563 363.351563 283.6875 352.636719 C 278.394531 341.925781 274.578125 349.507813 271.605469 345.976563 C 268.628906 342.445313 259.402344 344.59375 259.929688 351.644531 C 260.457031 358.699219 251.09375 359.148438 258.582031 365.402344 C 266.070313 371.65625 279.148438 368.773438 279.140625 372.390625 C 279.132813 376.003906 280.742188 375.59375 281.523438 373.769531 Z M 270.851563 360.078125 C 268.628906 359.367188 263.871094 360.097656 268.261719 361.898438 C 272.652344 363.695313 276.519531 364.644531 278.28125 367.613281 C 280.046875 370.582031 278.675781 369.351563 277.414063 368.265625 C 275.070313 366.246094 260.027344 366.128906 259.472656 362.820313 C 258.921875 359.507813 262.9375 357.636719 263.414063 355.253906 C 263.886719 352.867188 264.804688 347.445313 268.851563 348.03125 C 272.902344 348.617188 271.246094 351.996094 273.996094 352.652344 C 276.742188 353.3125 281.703125 348.476563 282.664063 356.105469 C 283.625 363.738281 282.703125 362.960938 281.230469 359.773438 C 279.753906 356.589844 276.574219 355.355469 278.101563 359.0625 C 279.632813 362.773438 283 368.039063 279.808594 365.121094 C 276.613281 362.207031 273.074219 360.785156 270.851563 360.078125 "/>
<path style=" stroke:none;fill-rule:nonzero;fill:rgb(0%,0%,0%);fill-opacity:1;" d="M 276.929688 382.273438 C 275.660156 383.898438 273.929688 383.386719 269.933594 382.421875 C 265.941406 381.453125 261.90625 383.453125 267.5625 384.53125 C 273.21875 385.609375 266.019531 387.148438 262.332031 386.742188 C 258.644531 386.339844 263.539063 389.113281 266.25 389.121094 C 268.960938 389.125 272.382813 387.8125 271.4375 388.96875 C 270.496094 390.125 266.0625 392.195313 264.796875 392.914063 C 263.527344 393.636719 260.667969 394.640625 259.828125 391.546875 C 258.984375 388.453125 252.007813 387.570313 251.851563 384.191406 C 251.695313 380.808594 255.332031 379.785156 257.128906 376.300781 C 258.925781 372.816406 269.769531 374.648438 273.597656 376.753906 C 277.429688 378.859375 278.046875 377.269531 276.296875 375.980469 C 274.542969 374.695313 272.089844 372.917969 263.015625 371.34375 C 253.941406 369.769531 254.367188 374.867188 249.964844 378.492188 C 245.566406 382.113281 247.933594 389.824219 252.128906 390.300781 C 254.160156 390.535156 255.675781 396.113281 260.808594 397.246094 C 265.941406 398.378906 276.828125 388.128906 278.152344 386.328125 C 280.726563 382.824219 278.199219 380.648438 276.929688 382.273438 "/>
<path style=" stroke:none;fill-rule:nonzero;fill:rgb(0%,0%,0%);fill-opacity:1;" d="M 253.027344 264.304688 C 254.394531 262.761719 255.019531 257.421875 253.480469 256.863281 C 251.941406 256.304688 250.535156 260.367188 249.621094 262.214844 C 248.820313 263.835938 251.660156 265.84375 253.027344 264.304688 "/>
<path style=" stroke:none;fill-rule:nonzero;fill:rgb(0%,0%,0%);fill-opacity:1;" d="M 255.21875 265.992188 C 254.078125 264.21875 252.304688 265.355469 252.070313 267.054688 C 251.835938 268.753906 245.441406 267.410156 246.234375 264.171875 C 247.03125 260.933594 247.425781 258.910156 245.25 260.453125 C 244.128906 261.253906 238.636719 264.039063 241.328125 269.609375 C 242.8125 272.679688 248.148438 276.210938 251.457031 274.820313 C 254.765625 273.433594 256.359375 267.765625 255.21875 265.992188 "/>
<path style=" stroke:none;fill-rule:nonzero;fill:rgb(0%,0%,0%);fill-opacity:1;" d="M 262.34375 306.226563 C 262.976563 302.503906 265.148438 300.148438 268.066406 301.59375 C 270.984375 303.035156 276.136719 298.324219 273.425781 287.90625 C 270.710938 277.484375 260.15625 275.226563 257.84375 274.550781 C 254.847656 273.675781 252.839844 276.511719 259.878906 278.179688 C 266.921875 279.847656 270.832031 286.621094 271.265625 293.492188 C 271.699219 300.363281 265.519531 292.46875 263.683594 297.40625 C 261.84375 302.347656 257.5625 303.253906 255.78125 302.777344 C 254 302.300781 258.246094 293.308594 257.835938 291.289063 C 257.421875 289.269531 258.453125 285.140625 260.484375 287.152344 C 262.515625 289.164063 266.367188 290.515625 264.363281 286.652344 C 262.8125 283.664063 261.277344 283.105469 255.6875 280.945313 C 250.097656 278.789063 251.738281 284.441406 254.503906 287.824219 C 257.269531 291.210938 250.03125 300.132813 251.582031 303.929688 C 254.957031 312.171875 261.847656 309.15625 262.34375 306.226563 "/>
<path style=" stroke:none;fill-rule:nonzero;fill:rgb(0%,0%,0%);fill-opacity:1;" d="M 226.339844 299.914063 C 227.097656 306.945313 236.558594 307.386719 238.84375 303.378906 C 241.132813 299.363281 246.253906 306.132813 249.519531 294.640625 C 252.785156 283.144531 244.621094 275.832031 243.570313 274.246094 C 242.472656 272.597656 240.8125 272.480469 241.476563 276.035156 C 242.136719 279.589844 228.753906 279.121094 222.519531 286.628906 C 216.285156 294.136719 225.578125 292.882813 226.339844 299.914063 Z M 240.523438 280.40625 C 241.570313 279.109375 242.695313 277.648438 241.496094 280.886719 C 240.296875 284.128906 236.667969 285.757813 232.675781 288.324219 C 228.683594 290.886719 233.492188 290.746094 235.550781 289.644531 C 237.609375 288.546875 240.835938 286.507813 243.445313 283.0625 C 246.058594 279.613281 243.699219 285.40625 242.867188 289.332031 C 242.035156 293.253906 244.9375 291.464844 245.8125 288.066406 C 246.6875 284.664063 247.453125 283.730469 247.890625 291.410156 C 248.328125 299.089844 242.570313 295.234375 239.988281 296.378906 C 237.40625 297.519531 239.640625 300.542969 235.765625 301.851563 C 231.890625 303.164063 230.007813 297.996094 229.109375 295.738281 C 228.210938 293.476563 223.921875 292.363281 223.863281 289.007813 C 223.8125 285.652344 238.585938 282.8125 240.523438 280.40625 "/>
<path style=" stroke:none;fill-rule:nonzero;fill:rgb(0%,0%,0%);fill-opacity:1;" d="M 241.519531 369.566406 C 238.914063 363.125 235.472656 364.082031 235.914063 370.78125 C 236.148438 374.375 228.96875 382.199219 223.515625 383.101563 C 218.058594 384.003906 206.875 394.574219 208.558594 400.011719 C 210.242188 405.449219 199.894531 405.453125 197.628906 405.738281 C 195.359375 406.023438 195 404.203125 197.3125 402.589844 C 199.007813 401.402344 203.609375 389.867188 205.261719 381.039063 C 214.808594 357.546875 228.746094 341.695313 253.886719 355.089844 C 256.195313 356.320313 259.136719 354.761719 253.355469 351.75 C 237.824219 343.664063 227.015625 349.335938 226.742188 349.4375 C 223.996094 350.425781 222.621094 351.308594 222.777344 349.375 C 223.132813 345.003906 223.890625 336.898438 238.917969 340.757813 C 246.246094 342.636719 252.007813 337.59375 254.855469 336.632813 C 257.707031 335.671875 258.488281 337.792969 264.523438 335.972656 C 270.558594 334.152344 272.796875 325.46875 276.984375 324.910156 C 281.175781 324.355469 282.585938 321.101563 278.105469 320.882813 C 275.589844 320.757813 265.222656 315.757813 258.988281 314.390625 C 238.085938 309.808594 232.3125 327.089844 231.226563 331.101563 C 230.582031 333.464844 229.066406 334.964844 226.972656 336.761719 C 224.847656 338.589844 223.203125 341.066406 221.757813 343.742188 C 221.355469 344.488281 220.742188 344.550781 220.785156 343.765625 C 220.964844 340.40625 220.6875 336.441406 219.398438 331.929688 C 217.917969 326.753906 220.152344 314.054688 224.9375 306.753906 C 227.164063 303.351563 224.785156 301.148438 222.671875 304.234375 C 216.628906 313.046875 214.398438 326.839844 216.125 331.675781 C 220.289063 343.339844 218.886719 352.582031 213.746094 357.996094 C 211.148438 360.734375 208.667969 365.34375 206.726563 370.585938 C 206.363281 371.5625 205.355469 371.320313 205.4375 370.34375 C 205.996094 363.492188 212.679688 354.480469 210.085938 348.515625 C 208.984375 345.984375 209.625 343.648438 210.738281 341.464844 C 212.519531 337.964844 219.15625 322.878906 204.21875 312.246094 C 205.984375 283.03125 204.695313 253.929688 205.152344 228.804688 C 206.066406 229.257813 206.882813 229.734375 207.523438 230.210938 C 214.363281 235.257813 221.703125 232.390625 226.488281 233.636719 C 231.273438 234.886719 233.792969 231.300781 230.398438 230.210938 C 227.003906 229.121094 226.214844 222.308594 220.90625 215.117188 C 219.203125 212.808594 217.191406 211.023438 215.007813 209.679688 C 226.804688 187.824219 233.980469 167.679688 235.886719 153.609375 C 239.746094 125.136719 212.753906 117.871094 201.222656 145.296875 C 192.40625 166.265625 189.101563 191.714844 187.835938 213.054688 C 185.210938 216.046875 183.855469 219.902344 184.652344 224.308594 C 185.300781 227.902344 179 232.730469 175.609375 236.078125 C 172.039063 239.597656 168.511719 235.824219 165.734375 233.6875 C 163.921875 232.296875 156.804688 227.480469 161.101563 223.746094 C 165.394531 220.011719 161.363281 205.238281 157.292969 201.496094 C 147.222656 192.230469 155.019531 174.628906 149.121094 180.507813 C 147.386719 182.234375 140.140625 188.285156 135.144531 195.109375 C 130.144531 201.929688 133.746094 217.429688 138.335938 222.671875 C 143.433594 228.492188 154.488281 228.996094 159.472656 232.082031 C 162.917969 234.21875 167.941406 239.203125 166.738281 244.972656 C 165.773438 249.582031 165.777344 255.050781 167.394531 260.910156 C 151.234375 278.179688 129.105469 297.042969 105.863281 306.382813 C 23.714844 339.402344 -28.78125 238.835938 75.882813 99.972656 C 133.121094 24.03125 174.554688 11.59375 208.117188 12.46875 C 282.101563 14.390625 287.914063 75.664063 267.746094 89.078125 C 248.8125 101.667969 219.601563 96.992188 213.671875 72.535156 C 210.648438 60.074219 200.34375 64.914063 202.59375 74.546875 C 207.375 95.011719 238.125 112.96875 268.046875 98.210938 C 300.535156 82.195313 295.980469 26.40625 239.347656 6.828125 C 180.152344 -13.636719 120.855469 17.464844 75.933594 67.875 C 48.800781 98.324219 21.050781 143.339844 8.113281 187.515625 C -8.417969 243.980469 -2.753906 307.496094 65.453125 321.910156 C 107.484375 330.792969 148.65625 297.5 172.003906 271.441406 C 175.300781 276.878906 180.175781 282.414063 187.074219 287.738281 C 187.007813 293.121094 186.890625 298.679688 186.695313 304.347656 C 184.839844 303.597656 183.417969 302.9375 182.871094 302.402344 C 179.621094 299.199219 178.265625 302.914063 180.996094 306.140625 C 183.726563 309.363281 179.550781 317.300781 182.796875 322.703125 C 183.816406 324.402344 184.714844 325.460938 185.511719 326.199219 C 185.1875 330.445313 184.804688 334.695313 184.351563 338.929688 C 178.097656 334.371094 170.589844 330.996094 162.472656 331.617188 C 151.585938 332.449219 157.105469 328.898438 148.890625 324.136719 C 135.230469 316.21875 122.796875 316.628906 109.855469 328.976563 C 106.335938 332.339844 109.351563 333.53125 112.605469 332.984375 C 126.476563 330.644531 123.125 340.683594 131.992188 345.652344 C 140.863281 350.617188 149.09375 349.074219 155.65625 341.734375 C 159.996094 336.882813 167.867188 337.507813 174.65625 339.222656 C 178.054688 340.078125 181.089844 341.40625 183.851563 343.292969 C 183.070313 349.816406 182.09375 356.265625 180.90625 362.542969 C 175.136719 358.664063 168.316406 357.027344 162.8125 360.671875 C 155.359375 365.605469 149.707031 369.863281 146.246094 369.003906 C 142.785156 368.140625 143.507813 371.457031 147.765625 373.972656 C 152.433594 376.738281 163.636719 387.5625 175.855469 383.402344 C 174.320313 388.441406 172.574219 393.253906 170.597656 397.777344 C 161.96875 391.136719 150.414063 389.640625 145.886719 390.585938 C 141.355469 391.527344 143.8125 393.984375 147.210938 393.414063 C 148.980469 393.121094 160.84375 393.503906 169.285156 400.65625 C 164.847656 410.027344 154.492188 423.851563 141.105469 434.507813 C 137.542969 434.421875 136.953125 434.792969 131.910156 434.136719 C 125.527344 433.304688 123.585938 439.132813 131.632813 439.132813 C 132.6875 439.132813 133.726563 439.148438 134.742188 439.171875 C 131.035156 441.644531 127.152344 443.824219 123.140625 445.570313 C 92.582031 458.863281 61.808594 450.191406 56.410156 429.238281 C 53.320313 417.257813 56.46875 402.625 63.039063 391.945313 C 75.476563 371.738281 62.425781 367.324219 52.75 383.871094 C 13.992188 450.152344 89.300781 484.914063 148.003906 441.066406 C 178.042969 439.507813 187.238281 421.359375 194.601563 410.21875 C 196.949219 406.667969 202.351563 407.957031 205.550781 407.957031 C 211.414063 407.957031 221.644531 418.960938 226.996094 413.367188 C 232.347656 407.777344 230.550781 404.21875 232.859375 402.601563 C 235.171875 400.988281 246.363281 397.769531 245.707031 389.335938 C 245.054688 380.90625 242.4375 371.835938 241.519531 369.566406 Z M 233.496094 331.902344 C 242.386719 315.496094 259.441406 315.917969 265.027344 320.367188 C 269.789063 324.15625 269.785156 326.539063 265.664063 325.492188 C 261.539063 324.445313 261.878906 330.738281 249.066406 335.617188 C 239.425781 339.289063 234.902344 338.628906 240.972656 332.703125 C 243.457031 330.28125 251.730469 325.5 254.945313 325.101563 C 262.570313 324.152344 257.863281 321.925781 254.984375 322.726563 C 252.105469 323.527344 241.445313 325.8125 238.617188 330.546875 C 237.21875 332.890625 232.398438 333.933594 233.496094 331.902344 Z M 214.226563 145.804688 C 218.183594 134.296875 230.230469 136.097656 225.941406 156.460938 C 222.921875 170.808594 217.257813 188.9375 206.101563 205.679688 C 207.695313 175.183594 209.03125 160.921875 214.226563 145.804688 Z M 208.363281 219.851563 C 210.066406 220.304688 211.527344 220.820313 212.328125 221.347656 C 218.113281 225.140625 218.203125 222.164063 213.742188 219.742188 C 212.953125 219.316406 211.425781 218.605469 209.613281 217.8125 C 210.535156 216.308594 211.394531 214.902344 212.1875 213.597656 C 217.761719 216.121094 219.914063 221.253906 222.007813 223.976563 C 226.132813 229.339844 224.179688 230.835938 220.46875 229.90625 C 217.328125 229.121094 213.671875 232.363281 204.609375 225.902344 C 205.910156 223.820313 207.171875 221.78125 208.363281 219.851563 Z M 151.675781 219.257813 C 149.828125 216.320313 145.511719 207.878906 145.414063 204.636719 C 145.183594 196.953125 143.3125 201.398438 143.054688 204.378906 C 142.679688 208.761719 144.859375 218.144531 149.308594 221.402344 C 151.511719 223.019531 152.796875 226.675781 150.640625 225.722656 C 133.566406 218.191406 136.691406 199.300781 141.644531 194.15625 C 145.863281 189.769531 148.234375 189.996094 146.808594 194.003906 C 145.378906 198.011719 151.675781 198.265625 155.335938 211.476563 C 158.089844 221.417969 158.839844 230.632813 151.675781 219.257813 Z M 148.3125 332.242188 C 144.667969 328.101563 138.140625 327.667969 135.164063 327.40625 C 132.1875 327.140625 127.960938 330.183594 135.636719 329.730469 C 138.867188 329.539063 143.503906 332.859375 146.386719 334.792969 C 153.433594 339.515625 150.039063 345.035156 139.890625 343.175781 C 126.40625 340.707031 126.882813 330.015625 122.632813 330.183594 C 116.683594 330.417969 115.425781 328.90625 120.128906 326.484375 C 126.476563 323.210938 141.867188 318.128906 153.59375 332.644531 C 155.042969 334.441406 150.113281 334.292969 148.3125 332.242188 Z M 203.808594 314.9375 C 209.335938 320.007813 213.515625 328.660156 208.792969 339.386719 C 207.84375 341.542969 206.730469 338.027344 206.863281 335.300781 C 207.0625 331.109375 205.238281 327.054688 203.050781 323.34375 C 203.335938 320.386719 203.59375 317.523438 203.808594 314.9375 Z M 202.378906 330.011719 C 202.980469 332.132813 203.445313 334.09375 203.664063 335.316406 C 205.121094 343.367188 203.589844 343.804688 201.113281 340.839844 C 201.535156 337.621094 201.96875 333.871094 202.378906 330.011719 Z M 200.726563 344.710938 C 210.648438 349.613281 206.953125 355.953125 204.71875 360.675781 C 204.121094 361.941406 203.109375 360.636719 201.742188 358.058594 C 201.292969 357.214844 200.367188 355.734375 199.039063 353.902344 C 199.660156 350.859375 200.222656 347.792969 200.726563 344.710938 Z M 186.167969 221.914063 C 186.417969 219.648438 187.679688 216.125 187.679688 218.136719 C 187.679688 219.398438 187.425781 221.410156 187.425781 223.929688 C 187.425781 226.445313 185.914063 224.179688 186.167969 221.914063 Z M 171.984375 255.871094 C 171.363281 247.847656 175.144531 238.894531 187.179688 229.605469 C 187.121094 232.15625 187.085938 234.585938 187.0625 236.863281 C 183.417969 242.171875 178.269531 248.785156 171.984375 255.871094 Z M 175.738281 267.15625 C 180.503906 261.546875 184.328125 256.433594 187.027344 252.375 C 187.070313 260.480469 187.179688 269.960938 187.136719 280.253906 C 183.035156 276.71875 178.722656 272.269531 175.738281 267.15625 Z M 183.398438 313.296875 C 183.363281 310.21875 183.5 307.144531 183.269531 306.1875 C 182.800781 304.203125 185.871094 305.503906 186.292969 307.695313 C 186.472656 308.621094 186.011719 320.1875 186.011719 321.195313 C 186.011719 323.671875 183.476563 320.742188 183.398438 313.296875 Z M 177.570313 426.015625 C 172.511719 430.988281 163.445313 434.199219 156.304688 434.269531 C 164.195313 427.214844 170.828125 419.457031 176.386719 411.148438 C 177.734375 415.15625 178.269531 420.046875 177.570313 426.015625 Z M 176.609375 380.421875 C 176.554688 380.410156 163.070313 382.96875 153.628906 375.101563 C 150.359375 372.378906 150.679688 371.484375 157.027344 367.539063 C 161.734375 364.609375 170.835938 360.949219 180.15625 366.242188 C 179.890625 367.484375 179.601563 368.746094 179.300781 370.015625 C 176.597656 368.917969 173.847656 368.617188 172.0625 368.457031 C 169.085938 368.195313 164.863281 371.238281 172.535156 370.785156 C 174.3125 370.679688 176.511719 371.644531 178.613281 372.851563 C 177.921875 375.621094 177.222656 378.246094 176.609375 380.421875 Z M 180.835938 423 C 181.429688 416.910156 180.503906 411.867188 178.613281 407.710938 C 181.648438 402.847656 184.332031 397.808594 186.71875 392.628906 C 189.675781 405.378906 186.480469 420.039063 180.835938 423 Z M 194.023438 402.042969 C 188.902344 412.15625 190.171875 406.710938 190.636719 402.101563 C 191.246094 396.035156 188.761719 388.328125 191.203125 385.613281 C 193.027344 383.59375 193.359375 380.8125 192.625 377.800781 C 194.484375 372.351563 196.078125 366.792969 197.433594 361.144531 C 204.984375 373.96875 199.988281 390.257813 194.023438 402.042969 Z M 237.695313 394.832031 C 235.460938 396.078125 228.449219 401.292969 226.808594 404.769531 C 224.128906 410.441406 220.644531 411.0625 214.617188 408.871094 C 212.449219 408.082031 215.714844 405.804688 218.359375 405.121094 C 221.003906 404.4375 231.195313 396.96875 233.332031 394.878906 C 235.46875 392.789063 235.902344 387.597656 231.257813 393.722656 C 229.300781 396.304688 221.015625 401.066406 217.675781 402 C 215.296875 402.664063 213.785156 404.421875 213.515625 399.265625 C 213.246094 394.109375 217.613281 391.851563 221.640625 390.335938 C 225.667969 388.820313 234.300781 385.03125 235.460938 380.9375 C 236.621094 376.847656 240.453125 373.675781 241.804688 383.785156 C 242.609375 389.820313 239.929688 393.585938 237.695313 394.832031 "/>
<path style=" stroke:none;fill-rule:nonzero;fill:rgb(0%,0%,0%);fill-opacity:1;" d="M 227.890625 266.191406 C 222.523438 268.273438 226.855469 269.511719 230.605469 267.835938 C 234.359375 266.160156 235.972656 265.347656 237.515625 266.714844 C 239.054688 268.082031 241.148438 265.484375 237.980469 262.507813 C 236.351563 260.976563 223.789063 252.867188 218.949219 254.910156 C 214.105469 256.949219 213.621094 262.710938 211.667969 263.308594 C 207.628906 264.539063 206.695313 272.546875 211.679688 275.316406 C 216.664063 278.085938 217.167969 283.175781 225.808594 279.984375 C 234.445313 276.792969 236.539063 274.601563 238.027344 273.019531 C 239.515625 271.4375 238.621094 269.984375 235.234375 272.746094 C 231.851563 275.511719 221.519531 279.273438 219.121094 276.171875 C 216.722656 273.070313 212.960938 272.722656 212.503906 269.367188 C 212.042969 266.015625 218.742188 263.886719 219.011719 260.691406 C 219.28125 257.496094 222.277344 257.96875 223.652344 258.445313 C 225.027344 258.925781 229.765625 260.15625 230.902344 261.125 C 232.035156 262.089844 228.4375 261.417969 225.769531 261.914063 C 223.101563 262.410156 218.792969 266.027344 222.347656 264.960938 C 225.898438 263.894531 233.257813 264.105469 227.890625 266.191406 "/>
</g>
</svg>
