<?xml version="1.0" encoding="UTF-8"?>
<svg xmlns="http://www.w3.org/2000/svg" xmlns:xlink="http://www.w3.org/1999/xlink" width="172pt" height="710pt" viewBox="0 0 172 710" version="1.1">
<g id="surface1">
<path style=" stroke:none;fill-rule:nonzero;fill:rgb(0%,0%,0%);fill-opacity:1;" d="M 169.066406 330.960938 C 148.152344 317.1875 121.996094 311.140625 95.648438 310.15625 C 88.398438 309.886719 78.894531 310.535156 72.011719 310.78125 C 72.652344 308.320313 73.246094 306.113281 73.726563 304.761719 C 77.929688 302.316406 80.914063 300.523438 85.886719 296.195313 C 121.535156 265.160156 118.5625 215.769531 115.472656 171.597656 C 114.875 163.035156 112.953125 147.769531 108.558594 146.71875 C 103.699219 148.71875 99.230469 156.941406 95.507813 164.683594 C 87.695313 180.949219 81.210938 196.730469 74.476563 215.761719 C 83.152344 166.550781 89.882813 132.890625 87.125 113.890625 C 84.800781 97.894531 79.589844 86.65625 65.738281 80.425781 C 58.679688 77.25 51.949219 76.890625 44.660156 77.648438 C 42.664063 47.539063 39.429688 21.253906 38.242188 14.464844 C 37.394531 9.589844 35.359375 0.496094 32.730469 0.4375 C 28.613281 0.351563 26.359375 8.09375 25.378906 15.945313 C 13.332031 112.621094 14.058594 217.941406 20.246094 314.328125 C 13.980469 315.054688 5.691406 309.964844 0.589844 314.890625 C 3.953125 320.867188 14.964844 320.496094 20.84375 320.828125 C 25.597656 347.167969 25.394531 375.585938 34.304688 400.324219 C 36.265625 395.148438 36.574219 388.660156 37.171875 382.675781 C 38.515625 361.945313 40.164063 340.832031 40.617188 320.386719 C 43.253906 320.554688 46.769531 320.246094 48.6875 320.132813 C 46.347656 335.925781 44.671875 345.144531 44.097656 361.839844 C 43.941406 366.378906 46.5 367.34375 47.023438 361.800781 C 48.402344 347.234375 51.121094 332.859375 54.605469 319.054688 C 57.046875 318.761719 59.550781 318.066406 61.277344 318.0625 C 32.671875 441.179688 15.871094 571.90625 21.425781 704.371094 C 21.515625 706.175781 21.824219 708.484375 23.503906 709.324219 C 26.421875 710.785156 28.042969 707.769531 27.988281 705.863281 C 21.34375 573.773438 51.953125 454.179688 81.960938 335.121094 C 94.136719 336.773438 141.179688 344.242188 169.015625 335.214844 C 171.625 334.367188 172.332031 333.113281 169.066406 330.960938 Z M 32.113281 351.214844 C 30.917969 340.964844 30.40625 330.804688 29.5 320.757813 C 30.410156 320.882813 31.519531 320.902344 32.15625 320.730469 C 32.082031 330.5625 32.496094 340.601563 32.113281 351.214844 Z M 31.96875 313.847656 C 30.808594 314.054688 29.328125 314.121094 28.546875 314.015625 C 22.601563 226.390625 26.566406 144.414063 32.941406 44.894531 C 36.285156 74.394531 36.722656 229.097656 31.96875 313.847656 Z M 77.21875 291.324219 C 84.746094 265.59375 90.425781 238.941406 98.929688 213.816406 C 99.878906 219.394531 98.242188 239.339844 96.273438 247.671875 C 92.613281 263.136719 87.941406 279.90625 77.21875 291.324219 Z M 50.183594 308.953125 C 47.5625 310.753906 44.613281 311.507813 41.449219 312.1875 C 45.558594 220.183594 47.253906 160.996094 45.253906 83.960938 C 53.453125 84.777344 58.257813 85.210938 64.355469 90.253906 C 78.203125 101.703125 79.714844 126.621094 75.410156 154.347656 C 67.214844 207.140625 59.886719 249.710938 50.183594 308.953125 Z M 57.882813 306.113281 C 69.175781 256.15625 84.386719 207.464844 104.5625 161.496094 C 107.269531 198.03125 111.320313 241.207031 95.535156 271.582031 C 101.800781 255.449219 106.699219 220.675781 102.292969 195.683594 C 101.984375 193.941406 101.273438 192.453125 100.125 192.359375 C 98.976563 192.269531 97.386719 192.9375 95.878906 197.046875 C 83.273438 231.339844 73.90625 266.527344 64.433594 302.257813 C 62.289063 304.078125 59.867188 305.234375 57.882813 306.113281 Z M 99.453125 330.164063 C 92.582031 329.453125 82.039063 326.578125 79.25 326.960938 C 73.605469 327.734375 72.511719 338.132813 65.78125 365.285156 C 54.019531 412.726563 50.351563 433.15625 39.636719 483.714844 C 46.816406 427.390625 55.675781 381.355469 70.199219 317.410156 C 98.207031 315.230469 136.5625 318.859375 160.140625 330.980469 C 146.425781 335.839844 118.105469 332.160156 99.453125 330.164063 "/>
</g>
</svg>
