<?xml version="1.0" encoding="UTF-8"?>
<svg xmlns="http://www.w3.org/2000/svg" xmlns:xlink="http://www.w3.org/1999/xlink" width="364pt" height="669pt" viewBox="0 0 364 669" version="1.1">
<g id="surface1">
<path style=" stroke:none;fill-rule:nonzero;fill:rgb(0%,0%,0%);fill-opacity:1;" d="M 107.101563 418.785156 C 106.914063 419.144531 106.542969 418.453125 106.542969 418.453125 L 106.726563 1.003906 C 106.726563 0.761719 106.332031 0.589844 106.132813 0.746094 C 88.339844 18.484375 42.25 48.699219 1.511719 58.4375 C 1.265625 58.492188 1.238281 58.847656 1.410156 58.964844 C 14.238281 68.183594 19.027344 73.753906 19.027344 84.546875 C 19.25 84.546875 18.902344 635.015625 18.902344 635.015625 C 18.902344 635.015625 20.671875 653.851563 0.441406 666.753906 C -0.488281 667.347656 -0.4375 667.933594 0.566406 667.667969 C 52.039063 656.585938 61.238281 656.984375 106.171875 666.984375 C 106.113281 637.933594 106.066406 637.449219 106.101563 636.066406 C 234.039063 731.785156 328.078125 593.488281 354.472656 494.515625 C 409.363281 288.714844 213.59375 217.089844 107.101563 418.785156 Z M 260.867188 500.589844 C 227.355469 663.015625 100.4375 673.121094 107.75 545.386719 C 108.484375 531.753906 106.839844 477.917969 122.3125 448.1875 C 201.601563 314.121094 291.253906 342.601563 260.867188 500.589844 "/>
</g>
</svg>
