<?xml version="1.0" encoding="UTF-8"?>
<svg xmlns="http://www.w3.org/2000/svg" xmlns:xlink="http://www.w3.org/1999/xlink" width="195pt" height="571pt" viewBox="0 0 195 571" version="1.1">
<g id="surface1">
<path style=" stroke:none;fill-rule:nonzero;fill:rgb(0%,0%,0%);fill-opacity:1;" d="M 193.847656 543.003906 C 155.785156 543.574219 145.035156 542.128906 144.886719 517.019531 C 145.066406 499.882813 144.992188 4.671875 144.992188 4.671875 C 144.914063 -1.589844 142.855469 -0.277344 141.039063 4.671875 C 113.695313 69.660156 37.785156 128.265625 2.507813 144.523438 C 0.503906 145.445313 0.316406 146.570313 1.660156 147.425781 C 25.382813 158.945313 46.882813 159.695313 64.785156 152.824219 C 65.292969 182.921875 64.859375 516.621094 64.859375 516.621094 C 64.847656 544 52.960938 543.128906 17.855469 543.15625 C 19.074219 551.574219 19.074219 563.226563 18.042969 570.589844 C 84.0625 570.507813 126.3125 570.539063 194.183594 570.574219 C 193.167969 565.078125 192.40625 549.324219 193.847656 543.003906 "/>
</g>
</svg>
