<?xml version="1.0" encoding="UTF-8"?>
<svg xmlns="http://www.w3.org/2000/svg" xmlns:xlink="http://www.w3.org/1999/xlink" width="526pt" height="220pt" viewBox="0 0 526 220" version="1.1">
<g id="surface1">
<path style=" stroke:none;fill-rule:nonzero;fill:rgb(0%,0%,0%);fill-opacity:1;" d="M 523.628906 91.558594 C 518.785156 90.066406 173.175781 20.289063 173.175781 20.289063 C 173.175781 20.289063 74.023438 -0.941406 34.738281 1.574219 C 23.761719 2.277344 1.941406 3.8125 1.9375 6.386719 C 1.9375 6.75 2.285156 7.175781 2.285156 7.175781 C 17.246094 9.730469 32.476563 13.972656 47.5625 19.140625 C 62.351563 25.78125 76.671875 31.523438 89.453125 40.222656 C 87.367188 116.234375 114.859375 154.488281 140.199219 175.132813 C 157.515625 188.601563 178.695313 200.214844 201.675781 205.539063 C 277 223 350.59375 193.25 372.691406 191 C 382.5 190 434 176 495.371094 203.027344 C 496.214844 202.972656 497.3125 203.511719 497.960938 202.832031 C 497.917969 202.378906 497.726563 201.757813 498.316406 201.496094 C 498.34375 200.304688 497.308594 199.738281 496.5 199.148438 C 449.90625 170.933594 407.257813 174.089844 379.441406 178.441406 L 319.757813 189 C 289.125 193.5625 258.503906 195.453125 227.714844 190.882813 C 191.460938 186.042969 156.722656 166.738281 142.089844 134.667969 C 135.8125 120.910156 124.902344 100.539063 133.6875 48.558594 C 141.5 48 154.527344 49.628906 165.019531 50.605469 C 165.019531 50.605469 517.691406 92.050781 518.386719 92.113281 C 520.347656 92.28125 523.746094 92.378906 523.746094 92.378906 C 523.746094 92.378906 524.828125 92.527344 524.875 92.203125 C 524.933594 91.773438 523.628906 91.558594 523.628906 91.558594 Z M 128.261719 43.441406 C 108.0625 162.585938 190.15625 188.976563 221.261719 194.269531 C 254.875 200.265625 288.339844 197.683594 321.820313 192.8125 L 380.960938 182.257813 C 403.308594 178.890625 425.695313 178.65625 448.203125 183.710938 C 411.039063 178.40625 374.074219 185.375 337.175781 194.109375 C 315.742188 199.195313 294.289063 203.171875 272.730469 204.929688 C 139.671875 214.761719 87.550781 131.878906 94.644531 37 C 62.25 13.5 15.085938 6.835938 15.085938 6.835938 C 59.5 -4.25 291.316406 50.273438 291.316406 50.273438 L 419.621094 75.636719 L 428.164063 77.546875 C 428.164063 77.546875 128.324219 42.6875 128.261719 43.441406 "/>
<path style="fill:none;stroke-width:10;stroke-linecap:butt;stroke-linejoin:miter;stroke:rgb(50%,50%,50%);stroke-opacity:1;stroke-miterlimit:4;" d="M 5236.289063 1284.414063 C 5187.851563 1299.335938 1731.757813 1997.109375 1731.757813 1997.109375 C 1731.757813 1997.109375 740.234375 2209.414063 347.382813 2184.257813 C 237.617188 2177.226563 19.414063 2161.875 19.375 2136.132813 C 19.375 2132.5 22.851563 2128.242188 22.851563 2128.242188 C 172.460938 2102.695313 324.765625 2060.273438 475.625 2008.59375 C 623.515625 1942.1875 766.71875 1884.765625 894.53125 1797.773438 C 873.671875 1037.65625 1148.59375 655.117188 1401.992188 448.671875 C 1575.15625 313.984375 1786.953125 197.851563 2016.757813 144.609375 C 2770 -30 3505.9375 267.5 3726.914063 290 C 3825 300 4340 440 4953.710938 169.726563 C 4962.148438 170.273438 4973.125 164.882813 4979.609375 171.679688 C 4979.179688 176.210938 4977.265625 182.421875 4983.164063 185.039063 C 4983.4375 196.953125 4973.085938 202.617188 4965 208.515625 C 4499.0625 490.664063 4072.578125 459.101563 3794.414063 415.585938 L 3197.578125 310 C 2891.25 264.375 2585.039063 245.46875 2277.148438 291.171875 C 1914.609375 339.570313 1567.226563 532.617188 1420.898438 853.320313 C 1358.125 990.898438 1249.023438 1194.609375 1336.875 1714.414063 C 1415 1720 1545.273438 1703.710938 1650.195313 1693.945313 C 1650.195313 1693.945313 5176.914063 1279.492188 5183.867188 1278.867188 C 5203.476563 1277.1875 5237.460938 1276.210938 5237.460938 1276.210938 C 5237.460938 1276.210938 5248.28125 1274.726563 5248.75 1277.96875 C 5249.335938 1282.265625 5236.289063 1284.414063 5236.289063 1284.414063 Z M 1282.617188 1765.585938 C 1080.625 574.140625 1901.5625 310.234375 2212.617188 257.304688 C 2548.75 197.34375 2883.398438 223.164063 3218.203125 271.875 L 3809.609375 377.421875 C 4033.085938 411.09375 4256.953125 413.4375 4482.03125 362.890625 C 4110.390625 415.9375 3740.742188 346.25 3371.757813 258.90625 C 3157.421875 208.046875 2942.890625 168.28125 2727.304688 150.703125 C 1396.71875 52.382813 875.507813 881.210938 946.445313 1830 C 622.5 2065 150.859375 2131.640625 150.859375 2131.640625 C 595 2242.5 2913.164063 1697.265625 2913.164063 1697.265625 L 4196.210938 1443.632813 L 4281.640625 1424.53125 C 4281.640625 1424.53125 1283.242188 1773.125 1282.617188 1765.585938 Z M 1282.617188 1765.585938 " transform="matrix(0.1,0,0,-0.1,0,220)"/>
<path style=" stroke:none;fill-rule:nonzero;fill:rgb(0%,0%,0%);fill-opacity:1;" d="M 221.492188 216.578125 C 214.175781 215.699219 206.828125 214.449219 199.472656 212.878906 C 163.816406 206.359375 66.53125 165.488281 81.980469 45.941406 C 82.175781 42.632813 81.25 41.25 79.796875 40.886719 C 77.835938 40.804688 76.476563 43.796875 75.714844 45.46875 C 69.441406 60.726563 67.542969 76.105469 68.492188 91.339844 C 69.609375 124.503906 95.757813 209.664063 212.289063 218.96875 C 215.464844 219.21875 218.265625 218.769531 221.550781 218.574219 C 222.699219 218.503906 223.761719 218.234375 223.816406 217.285156 C 223.851563 216.730469 222.199219 216.664063 221.492188 216.578125 Z M 72.792969 70.183594 C 73.386719 64.433594 74.890625 57.824219 77.585938 53.285156 C 64.6875 160.398438 148.507813 200.5 175.273438 209.347656 C 131.550781 199.847656 64.246094 153.121094 72.792969 70.183594 "/>
<path style="fill:none;stroke-width:10;stroke-linecap:butt;stroke-linejoin:miter;stroke:rgb(50%,50%,50%);stroke-opacity:1;stroke-miterlimit:4;" d="M 2214.921875 34.21875 C 2141.757813 43.007813 2068.28125 55.507813 1994.726563 71.210938 C 1638.164063 136.40625 665.3125 545.117188 819.804688 1740.585938 C 821.757813 1773.671875 812.5 1787.5 797.96875 1791.132813 C 778.359375 1791.953125 764.765625 1762.03125 757.148438 1745.3125 C 694.414063 1592.734375 675.429688 1438.945313 684.921875 1286.601563 C 696.09375 954.960938 957.578125 103.359375 2122.890625 10.3125 C 2154.648438 7.8125 2182.65625 12.304688 2215.507813 14.257813 C 2226.992188 14.960938 2237.617188 17.65625 2238.164063 27.148438 C 2238.515625 32.695313 2221.992188 33.359375 2214.921875 34.21875 Z M 727.929688 1498.164063 C 733.867188 1555.664063 748.90625 1621.757813 775.859375 1667.148438 C 646.875 596.015625 1485.078125 195 1752.734375 106.523438 C 1315.507813 201.523438 642.460938 668.789063 727.929688 1498.164063 Z M 727.929688 1498.164063 " transform="matrix(0.1,0,0,-0.1,0,220)"/>
</g>
</svg>
