<?xml version="1.0" encoding="UTF-8"?>
<svg xmlns="http://www.w3.org/2000/svg" xmlns:xlink="http://www.w3.org/1999/xlink" width="452pt" height="661pt" viewBox="0 0 452 661" version="1.1">
<g id="surface1">
<path style=" stroke:none;fill-rule:nonzero;fill:rgb(0%,0%,0%);fill-opacity:1;" d="M 385.535156 75.808594 C 387 75.808594 388.191406 74.621094 388.191406 73.152344 C 388.191406 71.6875 387 70.496094 385.535156 70.496094 C 384.066406 70.496094 382.878906 71.6875 382.878906 73.152344 C 382.878906 74.621094 384.066406 75.808594 385.535156 75.808594 "/>
<path style=" stroke:none;fill-rule:nonzero;fill:rgb(0%,0%,0%);fill-opacity:1;" d="M 393.933594 81.308594 C 395.933594 81.308594 397.558594 79.6875 397.558594 77.6875 C 397.558594 75.6875 395.933594 74.0625 393.933594 74.0625 C 391.933594 74.0625 390.3125 75.6875 390.3125 77.6875 C 390.3125 79.6875 391.933594 81.308594 393.933594 81.308594 "/>
<path style=" stroke:none;fill-rule:nonzero;fill:rgb(0%,0%,0%);fill-opacity:1;" d="M 402.855469 88 C 405.316406 88 407.308594 86.007813 407.308594 83.546875 C 407.308594 81.089844 405.316406 79.097656 402.855469 79.097656 C 400.398438 79.097656 398.40625 81.089844 398.40625 83.546875 C 398.40625 86.007813 400.398438 88 402.855469 88 "/>
<path style=" stroke:none;fill-rule:nonzero;fill:rgb(0%,0%,0%);fill-opacity:1;" d="M 421.925781 334.640625 C 460.21875 262.460938 465.839844 136.199219 413.761719 90.878906 C 410.003906 87.609375 409.09375 87.785156 411.644531 92.296875 C 417.078125 101.882813 420.671875 123.226563 417.523438 134.488281 C 393.972656 64.523438 271.652344 60.914063 264.296875 143.226563 C 257.414063 124.773438 263.09375 95.859375 274.859375 82.777344 C 272.660156 78.867188 266.5625 72.960938 263.820313 70.996094 C 268.910156 63.953125 273.628906 56.113281 282.148438 53.148438 C 288.65625 50.78125 287.230469 44.257813 279.734375 46.535156 C 269.511719 50.054688 264.871094 59.558594 259.558594 67.863281 C 258.355469 67.035156 256.761719 65.976563 254.984375 65.132813 C 256.507813 59.035156 259.578125 52.847656 262.640625 48.785156 C 266.351563 43.484375 258.671875 42.4375 254.300781 47.125 C 252.289063 49.28125 249.632813 57.960938 248.761719 62.40625 C 244.980469 60.722656 242.355469 59.910156 237.46875 59.171875 C 237.523438 48.066406 232.0625 21.027344 227.480469 2.960938 C 226.617188 -0.253906 225.835938 -0.191406 224.988281 3.148438 C 220.414063 21.226563 215.09375 47.660156 215.144531 58.742188 C 210.34375 59.429688 207.542969 60.222656 203.4375 61.886719 C 202.566406 57.4375 200.210938 49.347656 198.199219 47.191406 C 193.828125 42.503906 186.148438 43.554688 189.859375 48.851563 C 192.921875 52.914063 195.726563 58.59375 197.253906 64.6875 C 195.472656 65.535156 193.953125 66.535156 192.75 67.367188 C 187.4375 59.0625 182.988281 50.121094 172.765625 46.601563 C 165.269531 44.324219 163.84375 50.851563 170.351563 53.21875 C 178.871094 56.179688 183.324219 63.609375 188.414063 70.648438 C 185.671875 72.617188 179.839844 78.933594 177.640625 82.84375 C 189.402344 95.925781 195.085938 124.84375 188.203125 143.292969 C 180.847656 60.984375 58.527344 64.589844 34.972656 134.558594 C 31.828125 123.296875 35.421875 101.949219 40.851563 92.363281 C 43.40625 87.855469 42.496094 87.675781 38.738281 90.945313 C -13.339844 136.265625 -7.714844 262.53125 30.574219 334.710938 C 20.722656 367.140625 51.214844 399.695313 71.835938 421.761719 C 66.652344 456.855469 121.964844 487.761719 132.648438 495.894531 C 156.707031 514.523438 183.339844 541.722656 193.28125 570.882813 C 187.1875 570.882813 181.386719 570.882813 175.359375 570.882813 C 174.433594 564.019531 169.183594 541.796875 162.789063 534.25 C 160.605469 531.671875 158.378906 532.492188 160.003906 535.449219 C 163.308594 541.472656 166.117188 560.871094 164.503906 570.875 C 159.671875 570.828125 154.925781 570.871094 150.21875 570.917969 C 154.75 565.453125 158.003906 553.882813 153.664063 541.71875 C 145.15625 517.847656 114.394531 509.28125 98.417969 524.167969 C 77.851563 543.550781 99.476563 578.371094 122.683594 566.550781 C 124.003906 565.878906 123.722656 565.230469 122.292969 565.453125 C 100.214844 568.910156 90.691406 541.085938 105.660156 529.070313 C 120.050781 517.523438 145.191406 530.898438 147.578125 547.589844 C 141.503906 542.824219 136.675781 541.703125 131.207031 544.683594 C 130.324219 545.242188 130.464844 545.871094 131.308594 545.960938 C 154.308594 548.289063 149.351563 577.339844 123.765625 584.085938 C 122.5625 584.375 122.539063 585.539063 123.867188 585.539063 C 136.023438 585.519531 148.160156 585.628906 161.253906 585.542969 C 159.441406 596.847656 149.945313 608.195313 140.894531 614.039063 C 135.054688 617.8125 138.15625 625.765625 144.726563 622.152344 C 159.210938 614.179688 163.703125 600.53125 166.738281 585.542969 C 167.144531 585.589844 171.714844 585.589844 172.425781 585.542969 C 173.429688 596.9375 169.046875 606.867188 164.097656 615.671875 C 161.003906 621.179688 166.109375 626.386719 170.570313 620.703125 C 176.898438 612.640625 178.1875 605.957031 177.300781 585.582031 C 180.742188 585.535156 193.976563 585.507813 198.007813 585.507813 C 209.097656 619.195313 179.121094 649.890625 158.589844 652.566406 C 156.863281 652.789063 156.578125 653.773438 158.582031 654.019531 C 171.664063 655.617188 208.726563 638.703125 215.902344 592.011719 C 215.996094 591.40625 216.308594 591.4375 216.34375 592.109375 C 217.210938 609.738281 218.699219 631.15625 225.042969 656.800781 C 226.144531 661.253906 226.40625 660.984375 227.464844 656.703125 C 233.800781 631.074219 235.289063 609.664063 236.15625 592.042969 C 236.191406 591.371094 236.503906 591.339844 236.597656 591.945313 C 243.773438 638.632813 280.835938 655.546875 293.917969 653.949219 C 295.921875 653.707031 295.636719 652.722656 293.910156 652.5 C 273.378906 649.824219 243.402344 619.128906 254.492188 585.4375 C 258.523438 585.4375 271.757813 585.46875 275.199219 585.515625 C 274.3125 605.890625 275.601563 612.574219 281.929688 620.636719 C 286.390625 626.316406 291.496094 621.109375 288.402344 615.601563 C 283.453125 606.800781 279.070313 596.871094 280.074219 585.476563 C 280.785156 585.523438 285.355469 585.523438 285.761719 585.476563 C 288.796875 600.464844 293.289063 614.109375 307.773438 622.082031 C 314.34375 625.699219 317.445313 617.742188 311.605469 613.972656 C 302.554688 608.125 293.058594 596.78125 291.246094 585.476563 C 304.339844 585.5625 316.476563 585.453125 328.632813 585.472656 C 329.960938 585.472656 329.9375 584.308594 328.734375 584.015625 C 303.148438 577.273438 298.191406 548.222656 321.191406 545.890625 C 322.035156 545.804688 322.175781 545.175781 321.292969 544.617188 C 315.824219 541.632813 310.996094 542.757813 304.921875 547.519531 C 307.308594 530.828125 332.449219 517.457031 346.839844 529.003906 C 361.808594 541.015625 352.285156 568.84375 330.207031 565.386719 C 328.777344 565.160156 328.496094 565.808594 329.816406 566.484375 C 353.023438 578.304688 374.648438 543.484375 354.082031 524.097656 C 338.105469 509.214844 307.34375 517.78125 298.835938 541.652344 C 294.496094 553.816406 297.75 565.382813 302.28125 570.851563 C 297.574219 570.800781 292.828125 570.761719 287.996094 570.808594 C 286.382813 560.804688 289.191406 541.40625 292.496094 535.382813 C 294.121094 532.425781 291.894531 531.605469 289.710938 534.183594 C 283.316406 541.730469 278.066406 563.949219 277.140625 570.8125 C 271.113281 570.8125 265.3125 570.8125 259.21875 570.8125 C 269.160156 541.652344 295.792969 514.457031 319.851563 495.828125 C 330.535156 487.695313 385.847656 456.789063 380.664063 421.695313 C 401.285156 399.625 431.777344 367.074219 421.925781 334.640625 Z M 162.539063 580.386719 C 161.925781 580.441406 141.335938 580.410156 140.128906 580.382813 C 142.023438 579.03125 143.851563 577.992188 145.34375 576.164063 C 151.316406 576.191406 157.890625 576.066406 163.511719 576.132813 C 163.171875 577.972656 163.019531 578.972656 162.539063 580.386719 Z M 169.050781 561.128906 C 169.007813 560.628906 169.308594 560.59375 169.441406 561.070313 C 170.394531 564.441406 170.664063 567.761719 171.003906 570.875 C 170.328125 570.875 169.488281 570.890625 168.941406 570.933594 C 169.335938 568.277344 169.347656 564.640625 169.050781 561.128906 Z M 167.652344 580.542969 C 167.839844 579.046875 168.09375 578.195313 168.359375 576.054688 C 169.484375 576.054688 170.726563 576.054688 171.574219 576.054688 C 171.914063 577.894531 171.980469 578.910156 172.164063 580.542969 C 170.246094 580.542969 169.121094 580.542969 167.652344 580.542969 Z M 307.15625 576.09375 C 308.648438 577.921875 310.476563 578.960938 312.371094 580.316406 C 311.164063 580.34375 290.574219 580.375 289.960938 580.316406 C 289.480469 578.90625 289.328125 577.90625 288.988281 576.066406 C 294.609375 575.996094 301.183594 576.125 307.15625 576.09375 Z M 283.058594 561.003906 C 283.191406 560.527344 283.492188 560.5625 283.449219 561.058594 C 283.152344 564.574219 283.164063 568.210938 283.558594 570.867188 C 283.011719 570.820313 282.171875 570.808594 281.496094 570.808594 C 281.835938 567.695313 282.105469 564.375 283.058594 561.003906 Z M 280.925781 575.988281 C 281.773438 575.988281 283.015625 575.988281 284.140625 575.988281 C 284.40625 578.125 284.660156 578.980469 284.847656 580.472656 C 283.378906 580.472656 282.253906 580.472656 280.335938 580.472656 C 280.519531 578.84375 280.585938 577.828125 280.925781 575.988281 Z M 415.5625 145.1875 C 398.035156 205.8125 310.070313 216.351563 278.664063 172.382813 C 286.371094 177.53125 300.84375 183.523438 309.574219 184.207031 C 312.375 184.425781 312.015625 183.019531 309.960938 182.089844 C 289.398438 172.78125 288.632813 148.066406 304.34375 137.835938 C 307.683594 135.65625 308.132813 134.09375 303.355469 133.953125 C 298.753906 133.824219 294.664063 135.957031 291.246094 138.6875 C 296.203125 120.449219 319.515625 113.582031 329.554688 124.765625 C 345.449219 142.839844 325.96875 168.617188 307.96875 156 C 305.101563 153.992188 303.96875 153.765625 304.445313 157.613281 C 306.726563 175.960938 317.722656 184.257813 336.082031 184.257813 C 343.078125 184.371094 372.113281 180.253906 376.304688 181.5 C 387.074219 184.699219 384.652344 175.09375 374.917969 173.753906 C 369.890625 173.058594 353.921875 176.484375 350.90625 177.070313 C 338.441406 179.496094 331.464844 180.671875 321.804688 176.570313 C 320.300781 175.929688 320.390625 175.101563 322.199219 175.457031 C 327.683594 176.535156 333.105469 175.808594 338.484375 174.71875 C 345.132813 173.371094 351.601563 171.6875 357.054688 172.632813 C 361.539063 173.410156 364.890625 170.484375 359.554688 166.765625 C 354.101563 162.960938 345.0625 166.378906 333.609375 170.066406 C 324.230469 172.40625 311.820313 172.972656 309.121094 161.574219 C 341.609375 173.761719 361.609375 134.433594 334.363281 117.769531 C 300.765625 97.222656 262.277344 141.148438 293.886719 175.253906 C 285.441406 171.136719 278.160156 166.398438 272.578125 159.226563 C 253.15625 86.84375 383.140625 53.6875 415.5625 145.1875 Z M 261.21875 76.003906 C 264.183594 78.371094 265.605469 79.910156 268.578125 83.15625 C 267.328125 84.554688 266.808594 85.621094 265.859375 86.90625 C 263.355469 84.597656 261.144531 83.164063 258.371094 81.402344 C 259.28125 79.34375 259.957031 78.035156 261.21875 76.003906 Z M 253.546875 70.523438 C 255.136719 71.253906 255.851563 72.050781 256.921875 72.703125 C 255.585938 74.953125 254.804688 76.980469 253.875 78.9375 C 253.222656 78.613281 252.597656 78.160156 251.761719 77.902344 C 252.261719 75.621094 252.921875 72.660156 253.546875 70.523438 Z M 249.878906 87.703125 C 250.101563 85.824219 250.316406 84.382813 250.628906 82.625 C 251.132813 82.859375 251.65625 83.113281 251.996094 83.367188 C 251.460938 84.488281 250.808594 86.339844 250.261719 87.921875 C 250.042969 88.539063 249.8125 88.285156 249.878906 87.703125 Z M 256.285156 85.992188 C 259.078125 88.023438 260.722656 89.296875 263.097656 91.355469 C 251.417969 117.101563 252.261719 145.324219 267.847656 164.015625 C 272.140625 174.496094 280.382813 184.433594 287.03125 189.273438 C 288.226563 190.144531 287.839844 190.339844 286.589844 189.8125 C 244.199219 171.808594 238.550781 138.316406 238.007813 77.964844 C 241.296875 78.832031 243.730469 79.410156 245.980469 80.488281 C 244.363281 90.320313 244.21875 100.65625 243.769531 110.800781 C 243.40625 118.988281 246.464844 121.300781 248.554688 112.066406 C 250.609375 102.980469 252.390625 94.214844 256.285156 85.992188 Z M 247.871094 67.519531 C 247.449219 70.226563 246.832031 73.246094 246.621094 75.84375 C 244.078125 75.183594 240.917969 73.972656 237.859375 73.480469 C 237.773438 70.785156 237.757813 66.617188 237.5625 64.066406 C 240.789063 64.5 245.199219 66.03125 247.871094 67.519531 Z M 225.125 28.957031 C 225.964844 25.917969 226.5625 25.964844 227.347656 28.785156 C 235.734375 58.925781 232.75 152.300781 227.160156 181.976563 C 226.445313 185.769531 226.121094 186.152344 225.371094 182.21875 C 219.769531 152.769531 216.753906 59.261719 225.125 28.957031 Z M 214.964844 64.070313 C 214.859375 67.222656 214.757813 70.476563 214.671875 73.132813 C 212.054688 73.65625 208.210938 74.703125 205.671875 75.363281 C 205.460938 72.769531 204.824219 70.335938 204.402344 67.628906 C 208.1875 65.433594 211.667969 64.535156 214.964844 64.070313 Z M 202.621094 87.773438 C 202.6875 88.355469 202.457031 88.609375 202.238281 87.988281 C 201.691406 86.40625 201.039063 84.554688 200.503906 83.4375 C 200.84375 83.183594 201.363281 82.929688 201.871094 82.691406 C 202.183594 84.449219 202.398438 85.890625 202.621094 87.773438 Z M 198.785156 70.601563 C 199.410156 72.738281 200.011719 75.121094 200.511719 77.402344 C 199.675781 77.660156 199.246094 77.898438 198.390625 78.414063 C 197.390625 76.269531 196.910156 74.816406 195.570313 72.566406 C 196.800781 71.816406 197.445313 71.21875 198.785156 70.601563 Z M 186.605469 86.785156 C 185.65625 85.5 185.171875 84.621094 183.921875 83.226563 C 186.609375 79.796875 188.316406 78.1875 191.28125 75.820313 C 192.542969 77.851563 192.835938 78.871094 193.746094 80.925781 C 190.972656 82.6875 188.839844 84.414063 186.605469 86.785156 Z M 189.488281 91.628906 C 191.363281 89.457031 193.417969 88.085938 196.210938 86.054688 C 200.101563 94.273438 201.890625 103.050781 203.945313 112.136719 C 206.035156 121.367188 209.09375 119.058594 208.730469 110.867188 C 208.28125 100.726563 208.113281 90.386719 206.496094 80.554688 C 209.179688 79.574219 211.492188 78.832031 214.5 78.148438 C 213.957031 138.503906 208.300781 171.878906 165.910156 189.878906 C 164.660156 190.410156 164.273438 190.214844 165.46875 189.34375 C 172.117188 184.503906 180.359375 174.566406 184.652344 164.082031 C 200.238281 145.390625 201.167969 117.375 189.488281 91.628906 Z M 179.921875 159.292969 C 174.339844 166.464844 167.058594 171.207031 158.613281 175.320313 C 190.222656 141.214844 151.734375 97.289063 118.136719 117.839844 C 90.890625 134.5 110.890625 173.828125 143.378906 161.640625 C 140.679688 173.039063 128.269531 172.476563 118.890625 170.132813 C 107.4375 166.445313 98.398438 163.027344 92.945313 166.832031 C 87.609375 170.554688 90.960938 173.476563 95.445313 172.699219 C 100.898438 171.753906 107.367188 173.441406 114.015625 174.785156 C 119.394531 175.875 124.816406 176.605469 130.300781 175.523438 C 132.109375 175.167969 132.199219 175.996094 130.695313 176.636719 C 121.035156 180.742188 114.058594 179.566406 101.59375 177.136719 C 98.578125 176.550781 82.609375 173.128906 77.582031 173.820313 C 67.84375 175.160156 65.425781 184.769531 76.195313 181.566406 C 80.386719 180.320313 109.421875 184.4375 116.417969 184.324219 C 134.777344 184.324219 145.773438 176.027344 148.054688 157.683594 C 148.53125 153.832031 147.398438 154.058594 144.53125 156.066406 C 126.53125 168.683594 107.050781 142.910156 122.945313 124.835938 C 132.984375 113.648438 156.296875 120.515625 161.253906 138.753906 C 157.835938 136.023438 153.746094 133.890625 149.144531 134.023438 C 144.367188 134.160156 144.816406 135.726563 148.15625 137.902344 C 163.867188 148.136719 163.101563 172.851563 142.539063 182.15625 C 140.484375 183.089844 140.125 184.496094 142.925781 184.273438 C 151.65625 183.589844 166.128906 177.597656 173.835938 172.453125 C 142.429688 216.417969 54.464844 205.878906 36.9375 145.257813 C 69.359375 53.757813 199.34375 86.910156 179.921875 159.292969 Z M 34.09375 155.039063 C 58.667969 234.226563 206.859375 225.4375 216.367188 141.070313 C 216.484375 140.011719 216.835938 140 216.878906 141.074219 C 217.824219 164.371094 219.933594 188.234375 224.902344 204.519531 C 225.738281 207.257813 226.589844 207.765625 227.609375 204.417969 C 232.570313 188.132813 234.675781 164.289063 235.621094 141.007813 C 235.664063 139.933594 236.015625 139.945313 236.132813 141.003906 C 245.640625 225.371094 393.828125 234.160156 418.40625 154.972656 C 448.59375 283.902344 387.015625 361.554688 318.074219 428.566406 C 316.941406 429.667969 316.484375 429.800781 317.847656 428.34375 C 333.410156 411.671875 385.382813 359.769531 357.785156 324.726563 C 355.246094 321.546875 353.863281 322.230469 355.234375 326.234375 C 367.585938 362.304688 304.105469 416.019531 281.121094 440.710938 C 281.191406 427.980469 281.121094 211.136719 281.121094 211.136719 L 171.378906 211.203125 C 171.378906 211.203125 171.308594 428.046875 171.378906 440.777344 C 148.394531 416.089844 84.914063 362.371094 97.265625 326.300781 C 98.636719 322.296875 97.253906 321.613281 94.714844 324.792969 C 67.117188 359.835938 119.089844 411.742188 134.652344 428.410156 C 136.015625 429.867188 135.558594 429.734375 134.425781 428.636719 C 65.484375 361.621094 3.90625 283.972656 34.09375 155.039063 Z M 263.628906 459.632813 C 259.699219 463.832031 254.582031 470.507813 251.332031 475.042969 C 251.332031 465.976563 251.390625 215.441406 251.390625 215.441406 L 263.644531 215.449219 C 263.644531 215.449219 263.519531 434.980469 263.628906 459.632813 Z M 233.726563 215.511719 C 233.726563 215.511719 233.726563 487.796875 233.726563 502.578125 C 231.355469 506.894531 226.199219 518.71875 226.199219 518.71875 C 226.199219 518.71875 221.144531 506.964844 218.773438 502.644531 C 218.773438 487.863281 218.773438 215.511719 218.773438 215.511719 Z M 201.167969 475.109375 C 197.917969 470.574219 192.800781 463.898438 188.871094 459.703125 C 188.980469 435.050781 188.855469 215.515625 188.855469 215.515625 L 201.109375 215.507813 C 201.109375 215.507813 201.167969 466.042969 201.167969 475.109375 Z M 190.878906 553.410156 C 180.378906 534.679688 168.464844 518.871094 148.582031 502.335938 C 126.574219 481.683594 79.179688 463.0625 75.9375 425.101563 C 93.1875 441.664063 141.914063 485.605469 152.765625 496.914063 C 168.617188 513.429688 183.304688 532.847656 191.214844 553.109375 C 191.578125 554.042969 191.34375 554.238281 190.878906 553.410156 Z M 176.8125 580.386719 C 176.695313 578.90625 176.53125 577.550781 176.210938 576.027344 C 179.5 576.054688 192.042969 576.152344 194.917969 576.046875 C 195.628906 577.3125 196.15625 579.355469 196.570313 580.414063 C 190.476563 580.414063 182.902344 580.316406 176.8125 580.386719 Z M 204.4375 578.824219 C 195.714844 527.644531 158.035156 491.621094 117.988281 456.453125 C 80.011719 421.253906 32.570313 382.378906 33.824219 341.546875 C 42.554688 368.152344 103.648438 428.65625 127.484375 453.679688 C 152.4375 479.867188 202.710938 522.597656 204.859375 578.820313 C 204.898438 579.847656 204.613281 579.851563 204.4375 578.824219 Z M 210.253906 594.71875 C 209.871094 596.390625 209.632813 596.3125 209.917969 594.386719 C 212.046875 580.007813 208.542969 555.515625 199.054688 534.386719 C 190.058594 514.359375 177.785156 499.28125 167.394531 486.730469 C 145.484375 460.265625 117.769531 438.1875 70.449219 383.511719 C 4.085938 306.835938 -9.507813 180.191406 28.578125 114.65625 C 28.921875 114.0625 29.191406 114.199219 29.027344 114.992188 C 27.347656 123.265625 29.597656 140.96875 30.371094 145.136719 C -1.960938 259.820313 41.539063 340.761719 96.660156 397.464844 C 110.242188 411.4375 124.539063 424.933594 137.691406 438.238281 C 154.957031 455.773438 171.410156 474.191406 184.34375 495.113281 C 193.710938 509.433594 201.238281 526.011719 206.203125 543.371094 C 209.511719 554.953125 214.300781 577.125 210.253906 594.71875 Z M 216.34375 559.695313 C 216.269531 560.429688 215.996094 560.378906 215.898438 559.691406 C 208.558594 508.324219 163.644531 453.4375 147.65625 435.71875 C 130.867188 417.117188 106.023438 389.191406 100.089844 373.328125 C 99.902344 372.824219 100.179688 372.675781 100.496094 373.097656 C 113.699219 390.738281 158.046875 436.492188 167.550781 445.210938 C 190.640625 467.894531 213.695313 500.191406 222.667969 525.074219 C 219.613281 533.179688 217.328125 549.519531 216.34375 559.695313 Z M 227.109375 623.484375 C 226.511719 626.320313 226.210938 626.488281 225.390625 623.550781 C 221.367188 604.480469 219.769531 559.035156 225.347656 539.226563 C 226.179688 536.269531 226.449219 536.601563 227.121094 539.058594 C 232.734375 558.8125 231.136719 604.382813 227.109375 623.484375 Z M 236.15625 559.628906 C 235.171875 549.453125 232.886719 533.113281 229.832031 525.007813 C 238.804688 500.125 261.859375 467.828125 284.949219 445.144531 C 294.453125 436.425781 338.800781 390.671875 352.003906 373.027344 C 352.320313 372.605469 352.597656 372.757813 352.410156 373.261719 C 346.476563 389.125 321.632813 417.050781 304.84375 435.652344 C 288.855469 453.371094 243.941406 508.253906 236.601563 559.625 C 236.503906 560.308594 236.230469 560.359375 236.15625 559.628906 Z M 242.246094 594.652344 C 238.199219 577.058594 242.988281 554.886719 246.296875 543.304688 C 251.261719 525.945313 258.789063 509.363281 268.15625 495.046875 C 281.089844 474.125 297.542969 455.707031 314.808594 438.171875 C 327.960938 424.863281 342.257813 411.367188 355.839844 397.398438 C 410.960938 340.691406 454.460938 259.753906 422.128906 145.070313 C 422.902344 140.898438 425.152344 123.199219 423.472656 114.925781 C 423.3125 114.128906 423.578125 113.996094 423.921875 114.589844 C 462.007813 180.125 448.410156 306.769531 382.054688 383.445313 C 334.730469 438.121094 307.015625 460.199219 285.105469 486.660156 C 274.714844 499.210938 262.441406 514.292969 253.445313 534.316406 C 243.957031 555.449219 240.453125 579.9375 242.582031 594.320313 C 242.867188 596.246094 242.628906 596.320313 242.246094 594.652344 Z M 276.289063 575.960938 C 275.96875 577.484375 275.804688 578.835938 275.691406 580.316406 C 269.597656 580.25 262.023438 580.347656 255.929688 580.347656 C 256.34375 579.289063 256.871094 577.246094 257.582031 575.980469 C 260.457031 576.085938 273 575.988281 276.289063 575.960938 Z M 303.917969 502.269531 C 284.035156 518.800781 272.121094 534.609375 261.621094 553.34375 C 261.15625 554.171875 260.921875 553.976563 261.285156 553.042969 C 269.195313 532.78125 283.882813 513.363281 299.734375 496.847656 C 310.585938 485.535156 359.3125 441.597656 376.5625 425.035156 C 373.320313 462.996094 325.925781 481.617188 303.917969 502.269531 Z M 334.511719 456.382813 C 294.464844 491.554688 256.785156 527.578125 248.0625 578.757813 C 247.886719 579.78125 247.601563 579.78125 247.640625 578.753906 C 249.789063 522.53125 300.0625 479.800781 325.015625 453.609375 C 348.851563 428.589844 409.945313 368.085938 418.675781 341.480469 C 419.929688 382.308594 372.488281 421.1875 334.511719 456.382813 "/>
<path style=" stroke:none;fill-rule:nonzero;fill:rgb(0%,0%,0%);fill-opacity:1;" d="M 66.964844 75.878906 C 68.433594 75.878906 69.621094 74.6875 69.621094 73.222656 C 69.621094 71.753906 68.433594 70.566406 66.964844 70.566406 C 65.5 70.566406 64.308594 71.753906 64.308594 73.222656 C 64.308594 74.6875 65.5 75.878906 66.964844 75.878906 "/>
<path style=" stroke:none;fill-rule:nonzero;fill:rgb(0%,0%,0%);fill-opacity:1;" d="M 58.566406 81.378906 C 60.566406 81.378906 62.1875 79.753906 62.1875 77.753906 C 62.1875 75.753906 60.566406 74.132813 58.566406 74.132813 C 56.566406 74.132813 54.941406 75.753906 54.941406 77.753906 C 54.941406 79.753906 56.566406 81.378906 58.566406 81.378906 "/>
<path style=" stroke:none;fill-rule:nonzero;fill:rgb(0%,0%,0%);fill-opacity:1;" d="M 49.644531 88.066406 C 52.101563 88.066406 54.09375 86.074219 54.09375 83.617188 C 54.09375 81.15625 52.101563 79.164063 49.644531 79.164063 C 47.183594 79.164063 45.191406 81.15625 45.191406 83.617188 C 45.191406 86.074219 47.183594 88.066406 49.644531 88.066406 "/>
</g>
</svg>
