<?xml version="1.0" encoding="UTF-8"?>
<svg xmlns="http://www.w3.org/2000/svg" xmlns:xlink="http://www.w3.org/1999/xlink" width="359pt" height="220pt" viewBox="0 0 359 220" version="1.1">
<g id="surface1">
<path style=" stroke:none;fill-rule:nonzero;fill:rgb(0%,0%,0%);fill-opacity:1;" d="M 357.992188 205.050781 C 325.300781 184.429688 280.414063 185.488281 251.949219 189.507813 C 249.339844 189.878906 207.960938 197.175781 185.28125 200.617188 C 129.964844 209.007813 81.429688 190.3125 60.898438 157.332031 C 34.164063 114.378906 27.101563 45.679688 57.898438 20.019531 C 83.730469 -1.5 126.542969 15.796875 137.753906 44.765625 C 140.125 44.441406 142.402344 43.722656 144.242188 42.84375 C 140.558594 30.988281 136.875 19.214844 134.070313 7.042969 C 130.257813 10.128906 118.539063 8.625 114.085938 7.019531 C 72.976563 -7.800781 34.886719 3.078125 13.769531 39.703125 C -10.738281 82.207031 0.839844 126.65625 32.671875 159.652344 C 69.816406 198.152344 122.621094 216.898438 185.609375 219.632813 C 212.488281 220.800781 245.789063 215.1875 263.035156 211.757813 C 301.632813 204.082031 334.742188 196.738281 357.585938 205.664063 C 358.957031 206.199219 359.238281 205.835938 357.992188 205.050781 "/>
</g>
</svg>
