<?xml version="1.0" encoding="UTF-8"?>
<svg xmlns="http://www.w3.org/2000/svg" xmlns:xlink="http://www.w3.org/1999/xlink" width="231pt" height="386pt" viewBox="0 0 231 386" version="1.1">
<g id="surface1">
<path style=" stroke:none;fill-rule:nonzero;fill:rgb(0%,0%,0%);fill-opacity:1;" d="M 220.609375 259.421875 C 198.410156 285.222656 165.777344 296.957031 130.265625 288.621094 C 130.234375 274.996094 130.527344 112.035156 130.402344 79.160156 C 125.882813 79.144531 120.75 79.121094 115.777344 79.121094 C 115.777344 141.621094 115.777344 276.148438 115.777344 281.023438 C 55.109375 236.230469 31.722656 145.753906 86.394531 90.40625 C 102.011719 74.597656 128.054688 70.238281 150.019531 76.636719 C 177.539063 84.652344 199.804688 100.777344 215.8125 126.023438 C 218.609375 124.421875 221.484375 122.746094 224.410156 121.222656 C 218.148438 101.871094 211.742188 82.425781 204.382813 63.488281 C 203.511719 61.246094 202.859375 61.246094 201.453125 62.84375 C 198.296875 66.355469 181.367188 63.945313 172.992188 62.332031 C 160.203125 59.871094 147.074219 56.207031 130.339844 56.023438 C 130.257813 52.4375 130.402344 15.871094 130.402344 0.371094 C 125.601563 0.371094 120.109375 0.246094 115.777344 0.371094 C 115.777344 17.871094 115.777344 40.207031 115.777344 55.832031 C 70.464844 55.292969 27.574219 93.300781 10.109375 142.074219 C -22.609375 233.441406 35.777344 318.957031 115.867188 323.222656 C 115.921875 344.246094 115.777344 366.371094 115.847656 385.222656 C 120.847656 385.023438 125.464844 385.203125 130.265625 385.203125 C 130.265625 361.003906 130.265625 331.222656 130.265625 306.421875 C 130.199219 303.734375 131.859375 302.871094 132.570313 305.945313 C 133.902344 311.675781 134.886719 316.960938 136.609375 322.222656 C 167.363281 317.238281 220.445313 290.957031 230.609375 265.222656 C 228.8125 261.824219 224.8125 259.222656 220.609375 259.421875 "/>
</g>
</svg>
