<?xml version="1.0" encoding="UTF-8"?>
<svg xmlns="http://www.w3.org/2000/svg" xmlns:xlink="http://www.w3.org/1999/xlink" width="461pt" height="146pt" viewBox="0 0 461 146" version="1.1">
<g id="surface1">
<path style=" stroke:none;fill-rule:nonzero;fill:rgb(0%,0%,0%);fill-opacity:1;" d="M 458.710938 104.367188 C 426.910156 73.324219 356.179688 92.707031 351.769531 87.113281 C 327.851563 91.113281 310.164063 103.582031 281.59375 106.960938 C 282.203125 105.992188 282.449219 104.785156 282.839844 103.46875 C 299.082031 100.109375 345.601563 81.214844 368.859375 78.863281 C 370.25 78.40625 367.230469 74.792969 361.660156 73.90625 C 331.980469 70.226563 308.964844 90.207031 283.523438 99.328125 C 283.9375 97.128906 283.996094 95.976563 284.148438 94.128906 C 302.71875 85.066406 317.839844 77.542969 331.160156 73.605469 C 331.882813 72.40625 330.152344 69.554688 328.789063 69.15625 C 321.8125 66.945313 302.707031 69.371094 283.214844 86.75 C 283.066406 86.292969 283.023438 85.828125 283.03125 85.5 C 294.753906 76.539063 314.429688 37.953125 261.742188 7.664063 C 216.351563 -14.785156 182.074219 21.40625 191.421875 40.785156 C 194.460938 48.703125 202.859375 55.746094 211.019531 57.265625 C 223.980469 60.863281 240.78125 60.304688 249.898438 50.066406 C 250.300781 49.425781 250.539063 48.144531 249.660156 47.746094 C 235.339844 45.90625 226.5625 59.503906 211.519531 54.945313 C 203.359375 52.824219 180.132813 36.097656 201.183594 15.875 C 212.023438 4.417969 232.644531 -3.320313 260.300781 9.863281 C 303.992188 32.175781 298.613281 69.34375 281.953125 82.554688 C 280.367188 72.089844 257.28125 50.917969 235.75 68.25 C 221 62 208.011719 59.550781 193.488281 60.886719 C 173.128906 60.519531 28.128906 106.941406 3.75 69.21875 C 0.414063 64.714844 -0.769531 66.378906 2.21875 71.34375 C 10.539063 83.265625 22.910156 89.183594 35.789063 91.746094 C 86.660156 102.195313 163.769531 67.085938 181.660156 67.34375 C 182.339844 67.316406 182.746094 67.726563 182.21875 67.90625 C 168.980469 73.695313 100.378906 100.066406 60.699219 98.386719 C 59.339844 98.863281 59.75 101.964844 62.460938 103.34375 C 82.460938 115.464844 175.382813 74.03125 179.316406 72.953125 C 180.578125 72.609375 180.816406 73.464844 179.632813 74.015625 C 142.734375 95.546875 111.5 107.164063 95.019531 109.773438 C 89.640625 111.085938 97.671875 114.886719 102.460938 114.546875 C 129.523438 116.03125 159.785156 88.363281 187.546875 75.359375 C 193.933594 72.367188 194.039063 73.34375 188.445313 76.390625 C 135.65625 112.878906 196.820313 155.785156 246.738281 136.550781 C 260.097656 131.519531 271.335938 125.503906 280.140625 110.785156 C 317.101563 108.863281 349.261719 93.585938 384.699219 89.746094 C 410.636719 88.222656 439.480469 89.257813 457.742188 105.574219 C 461.269531 108.84375 461.183594 106.824219 458.710938 104.367188 Z M 234.335938 75.273438 C 241.625 77.160156 247.3125 81.285156 251.339844 87.746094 C 252.140625 89.464844 255.90625 89.453125 255.101563 85.746094 C 253.75 78 238.941406 70.386719 238.941406 70.226563 C 257.140625 57.144531 277.976563 74.976563 279.136719 84.925781 C 243.253906 115.105469 221.140625 85.863281 234.335938 75.273438 Z M 246.0625 134.023438 C 199.773438 153.726563 137.207031 110.621094 192.859375 77.105469 C 198.210938 73.835938 217.339844 70.386719 229.742188 74.226563 C 213.753906 102.390625 256.460938 111.34375 275.820313 111.34375 C 268.871094 123.644531 257.703125 129.351563 246.0625 134.023438 Z M 277.835938 107.148438 C 274.007813 107.902344 270.910156 107.839844 267.628906 107.738281 C 266.726563 107.714844 266.582031 107.203125 267.449219 106.980469 C 271.347656 105.96875 275.285156 105.066406 278.886719 104.410156 C 278.644531 105.210938 278.074219 106.429688 277.835938 107.148438 Z M 279.773438 100.269531 C 272.230469 102.589844 265.640625 104.847656 257.710938 104.472656 C 256.574219 104.421875 256.304688 103.863281 257.511719 103.597656 C 265.964844 101.734375 279.066406 96.183594 280.324219 95.761719 C 280.40625 96.882813 280.011719 99.230469 279.773438 100.269531 "/>
<path style=" stroke:none;fill-rule:nonzero;fill:rgb(0%,0%,0%);fill-opacity:1;" d="M 161.761719 96.992188 C 153.765625 101.519531 139.363281 110.574219 136.460938 113.652344 C 135.003906 115.777344 135.8125 118.039063 138.519531 116.855469 C 151.238281 110.019531 155.085938 107.660156 163.5 101.023438 C 169.304688 96.273438 164.710938 94.429688 161.761719 96.992188 "/>
<path style=" stroke:none;fill-rule:nonzero;fill:rgb(0%,0%,0%);fill-opacity:1;" d="M 185.957031 137.191406 C 183.636719 137.429688 182.917969 141.273438 185.957031 140.871094 C 186.757813 140.472656 187.957031 139.59375 187.957031 138.632813 C 188.035156 137.59375 186.917969 137.03125 185.957031 137.191406 "/>
<path style=" stroke:none;fill-rule:nonzero;fill:rgb(0%,0%,0%);fill-opacity:1;" d="M 192.859375 139.789063 C 192.058594 139.867188 190.78125 140.75 191.179688 141.867188 C 191.820313 142.667969 192.621094 143.308594 193.738281 142.988281 C 194.539063 142.75 195.179688 141.949219 194.941406 140.988281 C 194.699219 140.1875 193.820313 139.628906 192.859375 139.789063 "/>
<path style=" stroke:none;fill-rule:nonzero;fill:rgb(0%,0%,0%);fill-opacity:1;" d="M 198.71875 141.570313 C 197.824219 141.761719 197.4375 143.167969 198.269531 143.679688 C 199.359375 144.320313 200.640625 143.617188 200.382813 142.273438 C 200 141.570313 199.296875 141.824219 198.71875 141.570313 "/>
<path style=" stroke:none;fill-rule:nonzero;fill:rgb(0%,0%,0%);fill-opacity:1;" d="M 205.144531 142.503906 C 204.699219 142.695313 203.929688 143.207031 204.25 143.910156 C 204.378906 144.550781 205.082031 145 205.851563 144.808594 C 206.296875 144.613281 207.128906 144.101563 207.003906 143.464844 C 207.066406 142.4375 205.914063 142.4375 205.144531 142.503906 "/>
<path style=" stroke:none;fill-rule:nonzero;fill:rgb(0%,0%,0%);fill-opacity:1;" d="M 162.152344 110.820313 C 158.238281 113.226563 152.039063 117.515625 150.644531 119.105469 C 149.039063 120.859375 150.84375 122.777344 152.171875 122.136719 C 158.40625 118.488281 160.117188 117.25 164.203125 113.78125 C 167.015625 111.300781 163.578125 109.488281 162.152344 110.820313 "/>
<path style=" stroke:none;fill-rule:nonzero;fill:rgb(0%,0%,0%);fill-opacity:1;" d="M 165.96875 121.777344 C 163.777344 123.453125 160.339844 126.390625 159.605469 127.421875 C 158.753906 128.570313 160.445313 130.519531 161.535156 129.558594 C 165.03125 127 165.644531 126.320313 167.871094 124 C 169.398438 122.347656 166.738281 120.894531 165.96875 121.777344 "/>
<path style=" stroke:none;fill-rule:nonzero;fill:rgb(0%,0%,0%);fill-opacity:1;" d="M 172.683594 128.242188 C 171.058594 129.734375 168.527344 132.316406 168.015625 133.191406 C 167.414063 134.164063 168.902344 135.601563 169.703125 134.757813 C 172.308594 132.46875 172.746094 131.886719 174.359375 129.878906 C 175.460938 128.457031 173.234375 127.484375 172.683594 128.242188 "/>
<path style=" stroke:none;fill-rule:nonzero;fill:rgb(0%,0%,0%);fill-opacity:1;" d="M 178.691406 133.523438 C 177.585938 134.898438 175.894531 137.246094 175.59375 138 C 175.238281 138.84375 176.589844 139.796875 177.117188 139.03125 C 178.902344 136.910156 179.183594 136.394531 180.214844 134.617188 C 180.910156 133.355469 179.035156 132.855469 178.691406 133.523438 "/>
<path style=" stroke:none;fill-rule:nonzero;fill:rgb(0%,0%,0%);fill-opacity:1;" d="M 211.03125 143.066406 C 210.585938 143.257813 209.816406 143.769531 210.136719 144.476563 C 210.265625 145.113281 210.96875 145.5625 211.734375 145.371094 C 212.183594 145.179688 213.015625 144.667969 212.886719 144.027344 C 212.953125 143.003906 211.800781 143.003906 211.03125 143.066406 "/>
</g>
</svg>
