<?xml version="1.0" encoding="UTF-8"?>
<svg xmlns="http://www.w3.org/2000/svg" xmlns:xlink="http://www.w3.org/1999/xlink" width="85pt" height="711pt" viewBox="0 0 85 711" version="1.1">
<g id="surface1">
<path style=" stroke:none;fill-rule:nonzero;fill:rgb(0%,0%,0%);fill-opacity:1;" d="M 81.210938 109.046875 C 73.488281 64.445313 60.6875 30.957031 39.898438 0.210938 C 39.964844 22.644531 39.972656 115.03125 39.714844 130.0625 C 39.457031 145.097656 39.085938 177.035156 32.375 222.324219 C 30.660156 233.882813 25.40625 269.914063 17.746094 293.132813 C 16.476563 296.988281 15.394531 301.585938 18.007813 302.109375 C 22.195313 288.296875 31.921875 265.101563 39.84375 247.507813 C 39.625 251.964844 40.0625 255.636719 39.863281 259.433594 C 39.863281 259.433594 22.984375 305.242188 19.691406 313.402344 C 16.398438 321.5625 6.113281 351.269531 2.109375 372.300781 C 0.269531 381.945313 -0.0390625 392.699219 2.460938 401.617188 L 3.609375 403.351563 C 7.121094 404.8125 8.300781 395.335938 8.429688 390.855469 C 9.515625 353.613281 18.90625 330.988281 28.949219 302.941406 C 32.734375 293.984375 35.910156 284.257813 39.699219 275.484375 C 40.109375 286.109375 39.851563 296.582031 39.628906 307.773438 C 39.628906 307.773438 20.492188 369.320313 17.617188 383.542969 C 14.738281 397.761719 10.621094 424.472656 21.488281 439.867188 C 23.679688 442.875 26.085938 447.355469 29.800781 448.109375 C 37.371094 449.128906 27.457031 425.304688 26.53125 415.8125 C 23.4375 384.207031 31.398438 353.730469 39.78125 325.996094 C 39.804688 338.140625 39.78125 360.445313 39.78125 360.445313 L 39.480469 710.488281 L 45.574219 710.488281 L 45.230469 366.613281 L 45.28125 307.328125 C 46.625 301.011719 48.558594 295.507813 50.445313 289.628906 C 50.308594 304.082031 50.601563 329.855469 50.601563 329.855469 L 50.644531 710.488281 L 56.160156 710.488281 L 56.191406 309.957031 L 56.222656 276.480469 C 63.238281 258.484375 70.34375 239.980469 74.9375 221.019531 C 84.378906 186.511719 87.566406 145.777344 81.210938 109.046875 Z M 27.800781 266.160156 C 33.660156 244.304688 36.9375 221.648438 39.238281 199.339844 C 38.671875 211.925781 39.25 223.84375 39.566406 236.597656 Z M 45.144531 19.628906 C 47.210938 23.050781 50.53125 31.03125 50.53125 31.03125 C 50.414063 60.589844 51.003906 174.027344 51.003906 209.074219 C 49.40625 213.507813 47.398438 218.398438 45.746094 222.78125 C 45.746094 222.78125 45.15625 171.285156 45.015625 157.695313 C 44.726563 129.660156 45.089844 37.851563 45.144531 19.628906 Z M 50.523438 273.632813 L 45.140625 290.207031 L 45.160156 258.484375 L 50.789063 242.554688 C 50.992188 252.078125 51.324219 263.535156 50.523438 273.632813 Z M 45.652344 242.289063 L 45.695313 233.464844 L 50.976563 220.914063 C 52.371094 229.945313 47.707031 234.480469 45.652344 242.289063 Z M 56.121094 254.28125 C 56.96875 237.433594 58.015625 220.203125 60.378906 209.992188 C 66.6875 182.738281 61.652344 157.34375 61.652344 157.34375 C 60.691406 168.644531 58.378906 190.269531 56.113281 192.632813 C 55.679688 144.128906 55.84375 72.4375 55.734375 40.035156 C 59.382813 56.378906 68.289063 105.6875 67.628906 154.820313 C 67.289063 180.148438 64.386719 214.257813 59.0625 242.1875 Z M 67.683594 232.488281 C 65.109375 240.984375 61.222656 251.484375 61.222656 251.484375 C 76.058594 191.285156 74.136719 140.3125 72.984375 124.742188 C 71.566406 105.609375 68.128906 77.011719 61.664063 51.058594 C 81.878906 106.113281 85.328125 174.257813 67.683594 232.488281 "/>
</g>
</svg>
