<?xml version="1.0" encoding="UTF-8"?>
<svg xmlns="http://www.w3.org/2000/svg" xmlns:xlink="http://www.w3.org/1999/xlink" width="237pt" height="668pt" viewBox="0 0 237 668" version="1.1">
<g id="surface1">
<path style=" stroke:none;fill-rule:nonzero;fill:rgb(0%,0%,0%);fill-opacity:1;" d="M 220.15625 337.925781 C 223.5625 322.335938 220.128906 306.484375 214.648438 293.027344 C 228.867188 272.789063 239.851563 250.984375 236.449219 223.976563 C 226.164063 166.234375 156.414063 172.328125 165.15625 228.925781 C 169.039063 255.453125 195.027344 272.332031 205.519531 295.523438 C 198.425781 301.019531 191.089844 306.039063 181.730469 306.253906 C 190.199219 260.269531 151.144531 246.554688 136.449219 279.359375 C 127.976563 262.535156 128.035156 243.214844 126.652344 224.011719 C 125.855469 168.089844 129.726563 116.742188 134.085938 63.355469 C 133.847656 61.234375 131.570313 62.027344 130.605469 62.867188 C 123.738281 72.566406 123.941406 84.445313 123.671875 95.726563 C 123.183594 138.441406 122.195313 188.238281 122.3125 230.117188 C 123.816406 249.800781 125.4375 269.488281 135.109375 285.835938 C 130.597656 310.179688 135.324219 335.035156 150.988281 353.320313 C 137.816406 388.675781 128.425781 425.640625 124.023438 464.648438 C 123.171875 472.191406 121.441406 472.292969 121.226563 464.628906 C 119.488281 403.328125 121.109375 339.859375 124.8125 278.003906 C 124.835938 270.566406 121.613281 264.4375 121.035156 257.234375 C 117.1875 177.542969 121.394531 94.15625 123.429688 14.125 C 121.535156 -3.996094 115.789063 -3.847656 113.070313 14.125 C 115.105469 94.15625 119.3125 177.542969 115.464844 257.234375 C 114.886719 264.4375 111.664063 270.566406 111.6875 278.003906 C 115.390625 339.859375 117.011719 403.328125 115.273438 464.628906 C 115.058594 472.292969 113.328125 472.191406 112.476563 464.648438 C 108.074219 425.640625 98.683594 388.675781 85.511719 353.320313 C 101.175781 335.035156 105.902344 310.179688 101.390625 285.835938 C 111.0625 269.488281 112.683594 249.800781 114.1875 230.117188 C 114.304688 188.238281 113.316406 138.441406 112.828125 95.726563 C 112.558594 84.445313 112.761719 72.566406 105.894531 62.867188 C 104.929688 62.027344 102.652344 61.234375 102.414063 63.355469 C 106.773438 116.742188 110.644531 168.089844 109.847656 224.011719 C 108.464844 243.214844 108.523438 262.535156 100.050781 279.359375 C 85.355469 246.554688 46.300781 260.269531 54.773438 306.253906 C 45.410156 306.039063 38.078125 301.019531 30.980469 295.523438 C 41.472656 272.332031 67.460938 255.453125 71.34375 228.925781 C 80.085938 172.328125 10.335938 166.234375 0.0507813 223.976563 C -3.351563 250.984375 7.632813 272.789063 21.851563 293.027344 C 16.371094 306.484375 12.941406 322.335938 16.34375 337.925781 C -12.601563 361.980469 19.113281 400.914063 47.285156 413.433594 C 65.074219 424.566406 76.738281 441.863281 79.632813 461.5 C 80.125 464.824219 80.992188 464.558594 80.820313 461.132813 C 79.734375 439.09375 65.597656 420.261719 50.179688 403.589844 C 38.28125 383.433594 -1.621094 368.765625 17.683594 344.398438 C 30.042969 373.296875 50.300781 378.296875 68.75 367.53125 C 100.714844 426.179688 114.042969 507.074219 112.023438 555.320313 C 111.433594 558.921875 116.59375 558.664063 116.003906 561.425781 C 115.246094 562.109375 114.0625 561.746094 113.078125 561.835938 C 110.851563 562.484375 110.429688 566.085938 113.015625 566.589844 C 114.109375 567.222656 115.480469 567.6875 116.382813 568.265625 C 115.546875 569.109375 114.222656 568.632813 113.023438 568.753906 C 110.113281 569.238281 109.601563 573.503906 112.761719 573.480469 C 114.597656 574.308594 121.902344 574.308594 123.738281 573.480469 C 126.898438 573.503906 126.386719 569.238281 123.476563 568.753906 C 122.277344 568.632813 120.953125 569.109375 120.117188 568.265625 C 121.019531 567.6875 122.390625 567.222656 123.484375 566.589844 C 126.070313 566.085938 125.648438 562.484375 123.421875 561.835938 C 122.4375 561.746094 121.253906 562.109375 120.496094 561.425781 C 119.90625 558.664063 125.066406 558.921875 124.476563 555.320313 C 122.457031 507.074219 135.785156 426.179688 167.746094 367.53125 C 186.199219 378.296875 206.457031 373.296875 218.816406 344.398438 C 238.121094 368.765625 198.21875 383.433594 186.316406 403.589844 C 170.898438 420.261719 156.765625 439.09375 155.679688 461.132813 C 155.507813 464.558594 156.378906 464.824219 156.867188 461.5 C 159.761719 441.863281 171.425781 424.566406 189.214844 413.433594 C 217.386719 400.914063 249.101563 361.980469 220.15625 337.925781 Z M 84.660156 349.84375 C 77.542969 337.265625 71.261719 323.484375 63.785156 310.546875 C 77.457031 308.464844 90.640625 302.664063 98.761719 290.160156 C 103.148438 311.75 96.488281 332.890625 84.660156 349.84375 Z M 97.421875 283.207031 C 91.34375 297.625 76.609375 305.585938 61.609375 306.230469 C 44.125 267.355469 89.425781 249.542969 97.421875 283.207031 Z M 8.6875 209.1875 C 25.488281 171.449219 78.484375 184.953125 66.667969 230.257813 C 58.332031 252.722656 35.574219 265.867188 24.835938 287.378906 C 10.875 274.179688 -3.722656 238.246094 8.6875 209.1875 Z M 21.636719 342.230469 C 43.839844 332 58.613281 353.289063 66.582031 364.175781 C 52.039063 375.710938 26.277344 364.078125 21.636719 342.230469 Z M 20.65625 334.910156 C 20.023438 323.152344 22.625 310.425781 28.355469 300.328125 C 37.367188 307.304688 49.097656 310.199219 55.625 311.050781 C 60.113281 327.597656 68.796875 342.449219 77.359375 357.183594 C 75.324219 358.628906 73.53125 360.554688 71.375 361.523438 C 54.210938 332.484375 33.195313 332.773438 20.65625 334.910156 Z M 105.058594 449.347656 C 98.011719 419.644531 90.5625 390.273438 73.902344 364.515625 C 75.699219 363.1875 77.375 361.984375 79.050781 360.660156 C 90.875 382.105469 96.585938 406.085938 103.015625 429.707031 C 104.402344 435.996094 105.59375 442.328125 106.566406 448.738281 C 107.304688 453.574219 106.167969 454.03125 105.058594 449.347656 Z M 169.832031 230.257813 C 158.015625 184.953125 211.011719 171.449219 227.8125 209.1875 C 240.222656 238.246094 225.621094 274.179688 211.664063 287.378906 C 200.925781 265.867188 178.164063 252.722656 169.832031 230.257813 Z M 174.890625 306.230469 C 159.890625 305.585938 145.15625 297.625 139.078125 283.207031 C 147.070313 249.542969 192.375 267.355469 174.890625 306.230469 Z M 137.738281 290.160156 C 145.859375 302.664063 159.042969 308.464844 172.714844 310.546875 C 165.238281 323.484375 158.957031 337.265625 151.839844 349.84375 C 140.011719 332.890625 133.351563 311.75 137.738281 290.160156 Z M 131.441406 449.347656 C 130.332031 454.03125 129.195313 453.574219 129.933594 448.738281 C 130.90625 442.328125 132.097656 435.996094 133.484375 429.707031 C 139.914063 406.085938 145.625 382.105469 157.449219 360.660156 C 159.125 361.984375 160.800781 363.1875 162.597656 364.515625 C 145.9375 390.273438 138.488281 419.644531 131.441406 449.347656 Z M 169.917969 364.175781 C 177.886719 353.289063 192.660156 332 214.863281 342.230469 C 210.222656 364.078125 184.460938 375.710938 169.917969 364.175781 Z M 215.84375 334.910156 C 203.308594 332.773438 182.289063 332.484375 165.125 361.523438 C 162.96875 360.554688 161.175781 358.628906 159.140625 357.183594 C 167.703125 342.449219 176.386719 327.597656 180.875 311.050781 C 187.402344 310.199219 199.132813 307.304688 208.144531 300.328125 C 213.875 310.425781 216.476563 323.152344 215.84375 334.910156 "/>
<path style=" stroke:none;fill-rule:nonzero;fill:rgb(0%,0%,0%);fill-opacity:1;" d="M 113.445313 588.015625 C 114.636719 608.300781 117.109375 631.566406 116.410156 652.746094 C 116.433594 656.871094 116.570313 660.167969 116.777344 662.59375 C 117.335938 669.039063 118.851563 668.996094 119.257813 662.722656 C 119.582031 660.210938 119.4375 657.304688 119.65625 652.75 C 119.148438 631.496094 121.5625 608.300781 122.753906 588.015625 C 123.992188 570.214844 113.007813 571.015625 113.445313 588.015625 "/>
</g>
</svg>
