<?xml version="1.0" encoding="UTF-8"?>
<svg xmlns="http://www.w3.org/2000/svg" xmlns:xlink="http://www.w3.org/1999/xlink" width="555pt" height="102pt" viewBox="0 0 555 102" version="1.1">
<g id="surface1">
<path style=" stroke:none;fill-rule:nonzero;fill:rgb(0%,0%,0%);fill-opacity:1;" d="M 76.257813 37.675781 C 97.867188 34.808594 120.621094 30.96875 143.066406 33.777344 C 157.667969 35.605469 170.070313 39.925781 170.367188 38.496094 C 170.613281 37.328125 129.003906 23.019531 81.695313 27.972656 C 78.839844 28.714844 72.289063 30.542969 70.597656 35.175781 C 70.570313 37.902344 74.613281 37.902344 76.257813 37.675781 "/>
<path style=" stroke:none;fill-rule:nonzero;fill:rgb(0%,0%,0%);fill-opacity:1;" d="M 103.617188 20.640625 C 112.585938 23.359375 122.757813 22.40625 132.578125 23.949219 C 152.980469 27.15625 172.628906 35.816406 172.929688 34.429688 C 173.285156 32.757813 133.53125 17.039063 112.070313 13.585938 C 110.445313 13.464844 101.191406 12.113281 98.691406 16.746094 C 98.132813 17.96875 102.082031 20.355469 103.617188 20.640625 "/>
<path style=" stroke:none;fill-rule:nonzero;fill:rgb(0%,0%,0%);fill-opacity:1;" d="M 164.382813 16.324219 C 170.53125 19.070313 177.238281 23.019531 177.613281 22.128906 C 177.988281 21.238281 153.0625 4.269531 153.0625 4.269531 C 152.0625 3.820313 148.65625 2.726563 146.523438 3.972656 C 145.816406 4.554688 145.90625 5.746094 146.230469 6.769531 C 151.078125 12.425781 161.332031 14.957031 164.382813 16.324219 "/>
<path style=" stroke:none;fill-rule:nonzero;fill:rgb(0%,0%,0%);fill-opacity:1;" d="M 128.808594 14.742188 C 160.332031 21.734375 173.839844 29.636719 174.304688 28.339844 C 174.773438 27.042969 153.503906 14.964844 142.40625 9.964844 C 138.925781 8.503906 130.5 5.703125 124.179688 7.539063 C 123.855469 7.953125 122.710938 8.714844 123.003906 9.816406 C 123.664063 12.609375 127.796875 14.519531 128.808594 14.742188 "/>
<path style=" stroke:none;fill-rule:nonzero;fill:rgb(0%,0%,0%);fill-opacity:1;" d="M 168.332031 9.136719 C 178.800781 13.371094 184.128906 16.679688 184.523438 15.992188 C 184.917969 15.300781 177.722656 9.007813 173.753906 6.289063 C 171.164063 4.738281 168.117188 2.28125 165.578125 3.644531 C 164.925781 4.183594 164.835938 5.011719 164.972656 5.554688 C 165.199219 6.941406 166.945313 8.59375 168.332031 9.136719 "/>
<path style=" stroke:none;fill-rule:nonzero;fill:rgb(0%,0%,0%);fill-opacity:1;" d="M 181.976563 8.183594 C 185.503906 10.15625 190.097656 12.914063 190.566406 12.425781 C 190.925781 11.996094 184.835938 3.222656 179.910156 3.367188 C 179.164063 3.542969 178.890625 4.371094 179.085938 5.039063 C 179.257813 5.65625 181.003906 7.675781 181.976563 8.183594 "/>
<path style=" stroke:none;fill-rule:nonzero;fill:rgb(0%,0%,0%);fill-opacity:1;" d="M 191.210938 5.777344 C 193.636719 7.402344 195.613281 8.871094 196.035156 8.613281 C 196.4375 8.367188 194.003906 2.980469 191.578125 2.539063 C 191.203125 2.53125 190.40625 3.570313 190.414063 4.277344 C 190.421875 4.890625 190.867188 5.550781 191.210938 5.777344 "/>
<path style=" stroke:none;fill-rule:nonzero;fill:rgb(0%,0%,0%);fill-opacity:1;" d="M 554.078125 43.113281 C 553.410156 43.085938 552.007813 46.613281 550.828125 48.257813 C 543.359375 59.769531 531 66.75 517.917969 67.515625 C 484.695313 67.441406 457.429688 52.890625 429.058594 41.203125 C 386.722656 22.164063 331.117188 11.34375 283.414063 26.484375 C 283.011719 25.90625 281.789063 24.03125 280.144531 22.3125 C 287.421875 19.886719 295.328125 18.820313 302.949219 17.808594 C 319.089844 15.667969 331.082031 18.785156 344.53125 17.019531 L 345.78125 16.359375 C 346.46875 15.761719 346.808594 14.375 346.296875 13.34375 C 343.796875 10.183594 339.828125 9.964844 336.078125 9.449219 C 315.132813 8.421875 294.917969 12.242188 276.617188 19.152344 C 266.179688 9.597656 253.152344 5.074219 239.425781 4.671875 C 216.46875 4.003906 197.632813 8.78125 186.453125 17.296875 C 175.492188 25.226563 174.203125 35.882813 177.402344 40.425781 C 181.511719 45.597656 192.855469 55.359375 240.824219 39.4375 C 232.664063 47.230469 225.902344 56.710938 225.828125 68.398438 C 217.230469 67.660156 214.996094 58.484375 206.203125 54.945313 C 200.847656 52.789063 173.878906 45.832031 173.878906 45.832031 C 137.042969 36.050781 96.195313 35.914063 60.527344 48.179688 C 43.925781 53.890625 25.367188 63.628906 17.519531 69.125 C 10.625 73.957031 -0.171875 83.472656 0.699219 84.566406 C 1.570313 85.660156 8.789063 77.484375 18.300781 71.316406 C 37.3125 58.984375 69.652344 42.679688 121.019531 41.570313 C 146.011719 41.027344 167.398438 52.667969 189.152344 61.855469 C 198.855469 65.605469 208.261719 71.117188 219.433594 70.160156 C 221.714844 69.574219 223.917969 71.042969 226.195313 71.558594 C 226.933594 78.027344 230.3125 83.539063 234.796875 88.316406 C 245 99 263.125 103.125 285.953125 101.691406 C 306.480469 100.40625 327 92.875 334.214844 76.246094 C 336.722656 69.457031 336.625 61.5 331.300781 54.578125 C 320.277344 42.378906 304.253906 40.980469 288.597656 40.171875 L 288.230469 37.820313 C 288.230469 36.128906 286.90625 34.441406 287.347656 32.898438 C 305.796875 29.957031 325.054688 32.015625 342.398438 35.910156 C 368.199219 40.90625 389.441406 58.328125 417.738281 55.679688 C 433.171875 61.929688 449.046875 70.527344 467.863281 68.03125 C 483.003906 72.953125 500.792969 75.746094 517.550781 72.441406 C 530.945313 69.5 545.929688 61.976563 552.417969 48.453125 C 553.210938 46.800781 554.75 43.140625 554.078125 43.113281 Z M 191.0625 45.246094 C 164.28125 38.640625 186.71875 17.285156 199.515625 13.125 C 224.183594 5.105469 254.128906 4.304688 273.238281 20.402344 C 270.738281 21.652344 268.09375 22.53125 265.519531 23.5625 C 266.402344 21.871094 265.253906 19.804688 263.242188 19.152344 C 261.117188 18.976563 257.949219 19.59375 255.597656 21.429688 C 236.78125 35.910156 216.128906 47.964844 191.0625 45.246094 Z M 266.402344 27.238281 L 276.25 23.5625 C 277.648438 24.519531 278.894531 26.0625 279.632813 27.605469 C 266.546875 32.75 254.199219 39.660156 242.953125 49.140625 C 242.191406 49.894531 240.402344 51.457031 240.824219 51.933594 C 241.21875 52.382813 242.761719 51.519531 242.761719 51.519531 C 255.109375 42.550781 268.238281 37.378906 282.9375 34 C 284.113281 35.910156 284.410156 38.1875 284.703125 40.46875 C 269.710938 42.746094 255.671875 47.300781 244.496094 58.84375 C 242.742188 60.871094 239.988281 64.363281 240.601563 67.148438 C 240.90625 68.40625 242.660156 68.839844 243.835938 68.542969 C 247.703125 68.222656 251.5625 62.160156 253.796875 60.828125 C 270.855469 48.5625 284.703125 47.375 284.703125 47.375 C 284.480469 56.417969 276.472656 64.207031 268.828125 68.175781 C 257.359375 74.792969 240.4375 73.429688 228.164063 69.242188 C 228.164063 69.242188 226.113281 44.519531 266.402344 27.238281 Z M 288.964844 46.125 C 305.769531 43.785156 323.230469 48.382813 329.773438 59.480469 C 333.015625 66.144531 332.25 73.625 327.878906 80.238281 C 314.5 96.625 298.625 98.5 282.425781 99.265625 C 265.386719 100.074219 247.75 97.3125 236.398438 86.660156 C 232.125 82.375 229.578125 77.4375 228.621094 72.21875 C 247.585938 78.613281 271.03125 75.96875 284.1875 59.578125 C 287.203125 55.679688 288.523438 51.125 288.964844 46.125 Z M 361.804688 38.410156 C 343.253906 32.207031 319.246094 28.855469 306.605469 28.855469 C 344.386719 27.53125 378.414063 38.628906 410.535156 52.667969 C 392.675781 50.90625 377.972656 44.289063 361.804688 38.410156 Z M 378.5625 36.550781 C 356.417969 30.226563 334.242188 25.472656 310.28125 25.695313 C 348.941406 22.386719 383.632813 32.75 415.972656 46.640625 L 454.046875 63.253906 L 455.148438 63.621094 C 427.878906 59.871094 406.464844 44.519531 378.5625 36.550781 Z M 448.976563 56.929688 L 409.652344 40.171875 C 385.148438 31.105469 361.585938 23.414063 334.683594 22.164063 C 366.40625 20.816406 411.488281 35.691406 445.960938 51.933594 C 465.292969 59.722656 484.253906 68.691406 505.9375 70.160156 C 485.429688 70.601563 466.6875 64.28125 448.976563 56.929688 "/>
<path style=" stroke:none;fill-rule:nonzero;fill:rgb(0%,0%,0%);fill-opacity:1;" d="M 204.554688 6.128906 C 204.878906 5.929688 204.109375 1.613281 200.988281 1.269531 C 200.253906 1.429688 200.054688 2.09375 200.058594 2.660156 C 200.066406 3.148438 200.480469 3.589844 200.695313 3.859375 C 202.136719 5.5625 204.109375 6.4375 204.554688 6.128906 "/>
<path style=" stroke:none;fill-rule:nonzero;fill:rgb(0%,0%,0%);fill-opacity:1;" d="M 212.949219 4.914063 C 213.207031 4.753906 213.390625 0.738281 210.097656 1.027344 C 209.503906 1.152344 209.347656 1.683594 209.351563 2.136719 C 209.355469 2.527344 209.6875 2.878906 209.859375 3.097656 C 211.011719 4.460938 212.59375 5.160156 212.949219 4.914063 "/>
<path style=" stroke:none;fill-rule:nonzero;fill:rgb(0%,0%,0%);fill-opacity:1;" d="M 220.441406 3.574219 C 220.878906 3.265625 220.648438 -0.222656 218.160156 0.464844 C 217.753906 0.695313 217.5625 0.992188 217.5625 1.355469 C 217.566406 1.667969 217.835938 1.949219 217.972656 2.121094 C 218.894531 3.214844 219.914063 3.957031 220.441406 3.574219 "/>
</g>
</svg>
