<?xml version="1.0" encoding="UTF-8"?>
<svg xmlns="http://www.w3.org/2000/svg" xmlns:xlink="http://www.w3.org/1999/xlink" width="50pt" height="659pt" viewBox="0 0 50 659" version="1.1">
<g id="surface1">
<path style=" stroke:none;fill-rule:nonzero;fill:rgb(0%,0%,0%);fill-opacity:1;" d="M 44.363281 305.707031 C 36.367188 312.261719 29.300781 312.902344 23.589844 308.546875 C 23.101563 321.160156 19.175781 337.324219 19.175781 337.324219 L 19.167969 291.929688 C 22.089844 297.488281 26.488281 302.152344 32.792969 302.0625 C 38.230469 301.992188 40.902344 299.449219 43.503906 295.746094 C 55.980469 271.527344 43.289063 239.234375 35.132813 213.789063 C 28.460938 194.96875 26.894531 174.710938 31.40625 152.214844 C 32.824219 145.15625 34.351563 138.371094 35.578125 130.984375 C 36.230469 127.320313 32.929688 122.484375 27.804688 123.648438 C 21.480469 125.136719 19.078125 136.707031 19.078125 136.707031 C 19.078125 136.707031 18.402344 78.988281 18.765625 58.191406 C 18.765625 58.191406 19.710938 31.238281 14.671875 12.746094 C 12.058594 3.144531 9.78125 0.339844 9.78125 0.339844 C 9.78125 0.339844 7.496094 2.964844 5.230469 12.746094 C 1.453125 28.683594 0.753906 52.941406 0.753906 58.191406 C 0.753906 63.441406 0.96875 103.992188 0.96875 103.992188 L 0.96875 659.292969 L 6.035156 659.292969 L 6.035156 103.992188 C 6.035156 103.992188 6.355469 63.691406 6.4375 58.191406 C 6.6875 41.691406 6.960938 24.847656 9.917969 16.621094 C 12.390625 23.765625 13.675781 40.941406 13.925781 58.191406 C 14.007813 63.941406 13.972656 103.992188 13.972656 103.992188 L 13.972656 659.292969 L 19.160156 659.292969 L 19.019531 443.332031 C 19.019531 443.332031 22.355469 456.8125 26.703125 465.589844 C 27.472656 467.144531 29.457031 469.082031 30.738281 470.003906 C 33.355469 471.417969 37.160156 470.496094 38.296875 467.984375 C 42.214844 458.210938 35.523438 449.332031 32.371094 440.773438 C 24.464844 418.234375 19.101563 392.8125 24.257813 366.921875 C 28.207031 347.105469 43.378906 320.753906 44.363281 305.707031 Z M 33.300781 295.480469 C 27.074219 296.023438 20.964844 284.324219 19.65625 269.347656 C 18.34375 254.367188 22.328125 241.785156 28.550781 241.238281 C 34.777344 240.695313 40.886719 252.394531 42.195313 267.371094 C 43.507813 282.351563 39.523438 294.933594 33.300781 295.480469 Z M 28.421875 128.460938 C 29.34375 126.457031 31.136719 128.585938 30.066406 131.789063 C 27.273438 148.542969 22.359375 166.359375 23.855469 183.789063 C 24.246094 184.296875 24.03125 185.089844 24.023438 185.691406 C 19.035156 167.699219 20.933594 144.832031 28.421875 128.460938 Z M 19.128906 191.121094 C 19.128906 191.121094 29.800781 221.296875 36.148438 235.808594 C 24.894531 226.820313 19.085938 239.433594 19.085938 239.433594 Z M 33.953125 459.007813 C 34.71875 461.011719 35.472656 464.117188 33.148438 464.859375 C 32.535156 465.125 31.246094 463.628906 30.789063 462.550781 C 24.285156 447.125 20.351563 430.363281 18.851563 413.136719 C 21.972656 429.191406 27.710938 444.195313 33.953125 459.007813 Z M 27.726563 317.277344 C 29.878906 318.367188 32.683594 318.457031 35.238281 316.949219 C 34.171875 325.628906 27.097656 336.476563 24.128906 346.324219 C 22.25 340.886719 28.011719 323.003906 27.726563 317.277344 "/>
<path style=" stroke:none;fill-rule:nonzero;fill:rgb(0%,0%,0%);fill-opacity:1;" d="M 29.527344 228.988281 C 27.496094 226.125 24.890625 218.636719 24.136719 216.121094 C 23.511719 214.003906 22.648438 211.6875 22.648438 211.6875 L 22.648438 230.449219 C 22.648438 230.449219 25.675781 227.203125 29.527344 228.988281 "/>
<path style=" stroke:none;fill-rule:nonzero;fill:rgb(0%,0%,0%);fill-opacity:1;" d="M 29.890625 259.511719 C 27.167969 259.75 25.316406 264.046875 25.761719 269.101563 C 26.203125 274.160156 28.769531 278.066406 31.492188 277.828125 C 34.214844 277.589844 36.066406 273.296875 35.621094 268.238281 C 35.179688 263.183594 32.613281 259.273438 29.890625 259.511719 "/>
</g>
</svg>
