<?xml version="1.0" encoding="UTF-8"?>
<svg xmlns="http://www.w3.org/2000/svg" xmlns:xlink="http://www.w3.org/1999/xlink" width="509pt" height="348pt" viewBox="0 0 509 348" version="1.1">
<g id="surface1">
<path style=" stroke:none;fill-rule:nonzero;fill:rgb(0%,0%,0%);fill-opacity:1;" d="M 500.21875 211.746094 C 408.914063 255.128906 323.210938 221.910156 245.269531 193.5625 C 229.945313 169.425781 202.355469 159.84375 174.515625 159.972656 C 160.554688 155.4375 144.140625 155.699219 129.335938 157.3125 C 128.296875 157.429688 128.011719 156.011719 128.851563 155.179688 C 177.289063 107.210938 115.90625 62.304688 70.550781 99.816406 C 26.101563 137.34375 10.726563 185.558594 13.152344 240.335938 C 13.84375 245.8125 12.351563 247.503906 11.160156 240.183594 C 4.816406 195.265625 19.207031 163.421875 30.191406 126.894531 C 40.535156 89.34375 54.074219 38.128906 24.1875 5.558594 C 13.5 -3.59375 12.699219 1.773438 17.445313 7.1875 C 56.46875 64.882813 -37.203125 201.015625 19.589844 269.046875 C 22.65625 275.050781 24.316406 280.796875 28.785156 285.523438 C 31.722656 286.800781 36.640625 284.949219 34.789063 281.820313 C 23.804688 272.238281 22.015625 256.65625 18.695313 243.757813 C 15.375 193.308594 29.039063 146.308594 64.675781 110.417969 C 116.3125 56.691406 171.851563 116.714844 125.726563 150.394531 C 70.890625 171.527344 55.253906 189.089844 57.777344 247.335938 C 58.671875 250.464844 60.972656 250.335938 61.355469 247.84375 C 58.152344 171.035156 128.25 159.636719 154.046875 162.097656 C 156.070313 162.058594 155.855469 164.484375 154.308594 165.007813 C 87.738281 182.355469 75.316406 239.316406 97.835938 268.003906 C 115.351563 290.3125 149.9375 300.113281 186.183594 274.125 C 226.335938 284.4375 261.191406 256.5625 252.679688 210.550781 C 353.65625 260.617188 432.535156 255.027344 501.964844 213.902344 C 511.703125 207.898438 510.800781 206.71875 500.21875 211.746094 Z M 237.097656 190.371094 C 228.539063 188.839844 217.9375 187.5625 207.59375 188.070313 C 202.230469 178.746094 194.183594 171.722656 185.113281 166.488281 C 204.785156 166.488281 223.429688 174.40625 237.097656 190.371094 Z M 101.304688 264.480469 C 80.46875 235.628906 93.648438 180.792969 170.425781 165.59375 C 182.945313 168.914063 194.4375 178.109375 201.207031 189.476563 C 143.726563 197.390625 139.566406 254.195313 181.285156 272.15625 C 152.488281 292.640625 115.632813 285.933594 101.304688 264.480469 Z M 185.496094 269.046875 C 138.503906 251.65625 155.863281 197.457031 205.296875 195.480469 C 222.300781 222.644531 200.339844 257.503906 185.496094 269.046875 Z M 190.097656 270.324219 C 211.042969 250.65625 223.046875 223.195313 211.808594 195.863281 C 224.324219 196.757813 233.328125 201.867188 244.1875 206.71875 C 255.019531 246.152344 228.519531 280.082031 190.097656 270.324219 "/>
<path style=" stroke:none;fill-rule:nonzero;fill:rgb(0%,0%,0%);fill-opacity:1;" d="M 40.152344 287.117188 C 36.832031 285.714844 28.785156 289.035156 32.363281 292.609375 C 35.683594 294.015625 38.746094 292.355469 41.046875 289.929688 C 41.046875 288.90625 41.300781 287.757813 40.152344 287.117188 "/>
<path style=" stroke:none;fill-rule:nonzero;fill:rgb(0%,0%,0%);fill-opacity:1;" d="M 122.113281 346.332031 C 99.703125 341.429688 68.714844 318.820313 51.367188 298.578125 C 43.628906 290.613281 35.9375 293.953125 44.878906 304.808594 C 67.441406 324.910156 92.957031 343.582031 121.574219 347.777344 C 127.140625 348.59375 127.414063 347.488281 122.113281 346.332031 "/>
</g>
</svg>
