<?xml version="1.0" encoding="UTF-8"?>
<svg xmlns="http://www.w3.org/2000/svg" xmlns:xlink="http://www.w3.org/1999/xlink" width="555pt" height="409pt" viewBox="0 0 555 409" version="1.1">
<g id="surface1">
<path style=" stroke:none;fill-rule:nonzero;fill:rgb(0%,0%,0%);fill-opacity:1;" d="M 99.960938 181.089844 C 97.265625 183.71875 94.816406 185.910156 92.472656 187.859375 C 90.128906 189.808594 87.886719 191.511719 85.609375 193.160156 C 85.160156 193.484375 84.910156 193.828125 84.972656 193.988281 C 85.03125 194.144531 85.394531 194.109375 86.167969 193.679688 C 87.230469 193.085938 91.722656 191.652344 96.679688 189.117188 C 101.636719 186.582031 107.058594 182.945313 109.976563 177.949219 C 110.546875 176.847656 110.449219 176.402344 110.097656 176.269531 C 109.746094 176.136719 109.140625 176.316406 108.6875 176.472656 C 107.613281 176.871094 106.566406 177.019531 105.222656 177.574219 C 103.878906 178.128906 102.234375 179.085938 99.960938 181.089844 "/>
<path style=" stroke:none;fill-rule:nonzero;fill:rgb(0%,0%,0%);fill-opacity:1;" d="M 289.164063 312.660156 C 272.632813 306.671875 254.191406 304.257813 236.824219 302.636719 C 232.675781 303.1875 228.351563 303.335938 224.027344 303.496094 C 219.699219 303.660156 215.375 303.835938 211.226563 304.4375 C 210.476563 304.734375 209.5 304.734375 208.574219 304.746094 C 207.652344 304.761719 206.777344 304.785156 206.226563 305.136719 C 194.476563 306.886719 182.964844 309.289063 171.5625 311.96875 C 160.164063 314.644531 148.875 317.597656 137.574219 320.449219 C 137.527344 320.398438 137.59375 320.042969 137.65625 319.683594 C 137.722656 319.328125 137.789063 318.972656 137.738281 318.921875 C 148.890625 314.773438 160.1875 311.5 171.695313 308.765625 C 183.203125 306.03125 194.925781 303.835938 206.925781 301.835938 C 217.675781 299.835938 228.777344 299.460938 239.964844 299.6875 C 251.152344 299.910156 262.425781 300.734375 273.527344 301.136719 C 274.226563 301.335938 274.949219 301.234375 275.5 300.910156 C 276.050781 300.585938 276.425781 300.035156 276.425781 299.335938 C 275.027344 296.585938 272.625 295.1875 269.890625 294.324219 C 267.152344 293.460938 264.074219 293.136719 261.324219 292.535156 C 239.226563 292.1875 218.078125 294.832031 197.605469 299.230469 C 177.136719 303.625 157.339844 309.773438 137.9375 316.421875 C 137.949219 316.136719 138.011719 315.707031 138.054688 315.289063 C 138.097656 314.871094 138.125 314.460938 138.074219 314.210938 C 143.476563 311.710938 148.890625 309.542969 154.402344 307.585938 C 159.914063 305.628906 165.527344 303.886719 171.324219 302.234375 C 180.125 299.734375 189.226563 297.886719 198.363281 296.097656 C 207.5 294.3125 216.675781 292.585938 225.625 290.335938 C 225.925781 290.035156 226.074219 289.5625 226.074219 289.085938 C 226.074219 288.609375 225.925781 288.136719 225.625 287.835938 C 209.175781 283.835938 194.300781 286.886719 180.039063 292.246094 C 165.777344 297.609375 152.125 305.285156 138.125 310.535156 C 138.125 309.933594 138.148438 309.347656 138.136719 308.738281 C 138.121094 308.128906 138.074219 307.496094 137.9375 306.8125 C 144.4375 303.761719 150.9375 300.71875 157.445313 297.722656 C 163.953125 294.730469 170.476563 291.785156 177.027344 288.9375 C 177.027344 288.734375 177.027344 288.5625 177.027344 288.386719 C 177.027344 288.210938 177.027344 288.035156 177.027344 287.835938 C 176.027344 286.984375 174.949219 286.761719 173.851563 286.722656 C 172.75 286.6875 171.625 286.835938 170.527344 286.734375 C 164.027344 286.6875 158.285156 288.15625 152.871094 290.402344 C 147.453125 292.652344 142.363281 295.671875 137.164063 298.722656 C 137.113281 298.269531 137.011719 297.828125 136.910156 297.371094 C 136.804688 296.910156 136.699219 296.433594 136.644531 295.902344 C 137.339844 294.921875 138.679688 294.179688 139.8125 293.320313 C 140.945313 292.460938 141.867188 291.488281 141.726563 290.035156 C 140.527344 290.085938 139.402344 290.011719 138.238281 289.996094 C 137.074219 289.984375 135.875 290.035156 134.527344 290.335938 C 132.527344 285.734375 130.074219 280.859375 127.039063 276.347656 C 124 271.835938 120.375 267.6875 116.027344 264.535156 C 121.574219 230.285156 111.984375 211.679688 99.828125 202.382813 C 87.667969 193.085938 72.941406 193.105469 68.21875 196.101563 C 68.042969 196.109375 67.921875 195.96875 67.871094 195.796875 C 67.820313 195.621094 67.84375 195.410156 67.96875 195.285156 C 75.179688 188.085938 84.222656 180.453125 91.625 171.378906 C 99.027344 162.308594 104.785156 151.796875 105.425781 138.835938 C 105.613281 137.636719 105.324219 136.84375 104.859375 136.644531 C 104.394531 136.449219 103.75 136.847656 103.226563 138.035156 C 102.175781 142.035156 100.289063 144.699219 98.121094 147.730469 C 95.953125 150.761719 93.5 154.160156 91.328125 159.636719 C 88.125 167.285156 79.695313 177.644531 71.949219 186.199219 C 64.199219 194.753906 57.136719 201.511719 56.675781 201.953125 C 55.953125 202.605469 55.613281 202.75 55.582031 202.601563 C 55.546875 202.449219 55.8125 202.011719 56.289063 201.492188 C 61.238281 196.164063 68.46875 187.4375 76.175781 176.386719 C 83.882813 165.335938 92.066406 151.960938 98.925781 137.335938 C 106.863281 122.121094 108.621094 109.859375 108.1875 100.382813 C 107.757813 90.902344 105.140625 84.210938 104.324219 80.136719 C 103.6875 77.761719 102.925781 76.84375 102.34375 76.839844 C 101.757813 76.835938 101.351563 77.746094 101.425781 79.035156 C 101.875 82.285156 102.199219 85.136719 102.339844 87.910156 C 102.476563 90.6875 102.425781 93.386719 102.125 96.335938 C 102.226563 101.4375 100.851563 105.9375 99.203125 110.324219 C 97.550781 114.710938 95.625 118.984375 94.625 123.636719 C 94.125 125.785156 93.925781 128.011719 93.589844 130.160156 C 93.25 132.3125 92.777344 134.386719 91.726563 136.234375 C 87.875 151.035156 80.636719 164.46875 71.757813 177.222656 C 62.878906 189.980469 52.363281 202.0625 41.964844 214.160156 C 41.695313 214.453125 41.472656 214.550781 41.375 214.484375 C 41.28125 214.417969 41.308594 214.1875 41.539063 213.824219 C 50.925781 201.921875 63.773438 187.265625 74.933594 165.785156 C 86.097656 144.308594 95.578125 116.011719 98.226563 76.835938 C 98.375 62.386719 95.390625 51.824219 92.175781 44.675781 C 88.964844 37.527344 85.523438 33.792969 84.769531 32.996094 C 83.164063 31.316406 81.910156 31.085938 81.289063 31.574219 C 80.671875 32.058594 80.6875 33.261719 81.625 34.4375 C 87.078125 40.484375 88.953125 48.136719 89.289063 56.199219 C 89.625 64.261719 88.425781 72.734375 87.726563 80.4375 C 88.875 85.285156 89.328125 90.410156 89.488281 95.636719 C 89.652344 100.859375 89.527344 106.1875 89.527344 111.4375 C 87.027344 130.136719 80.800781 147.261719 72.289063 163.4375 C 63.777344 179.609375 52.976563 194.835938 41.328125 209.734375 C 40.933594 210.21875 40.640625 210.40625 40.539063 210.332031 C 40.441406 210.257813 40.539063 209.917969 40.925781 209.335938 C 55.652344 185.609375 69.328125 165.6875 77.207031 141.71875 C 85.089844 117.746094 87.175781 89.734375 78.726563 49.835938 C 78.226563 40.035156 75.152344 30.585938 70.050781 22.335938 C 64.953125 14.085938 57.828125 7.035156 49.226563 2.035156 C 47.75 1.285156 46.019531 0.742188 44.808594 0.695313 C 43.601563 0.648438 42.914063 1.097656 43.527344 2.335938 C 44.828125 3.234375 46.101563 4.234375 47.402344 5.1875 C 48.703125 6.136719 50.027344 7.035156 51.425781 7.734375 C 58.277344 11.835938 61.5 17.761719 63.464844 24.285156 C 65.425781 30.8125 66.125 37.9375 67.925781 44.4375 C 71.375 52.335938 74.226563 60.4375 76.277344 68.859375 C 78.328125 77.285156 79.578125 86.035156 79.828125 95.234375 C 81.164063 113.246094 77.921875 131.433594 69.628906 151.945313 C 61.335938 172.460938 47.992188 195.300781 29.125 222.636719 C 28.726563 222.347656 28.402344 222.121094 28.113281 221.90625 C 27.828125 221.691406 27.578125 221.484375 27.328125 221.234375 C 31.277344 213.984375 45.765625 196.972656 54.53125 176.28125 C 63.300781 155.585938 66.351563 131.210938 47.425781 109.234375 C 45.652344 107.335938 43.601563 105.710938 41.40625 104.746094 C 39.214844 103.785156 36.875 103.484375 34.527344 104.234375 C 33.890625 104.535156 33.4375 104.875 33.410156 105.371094 C 33.382813 105.867188 33.777344 106.515625 34.828125 107.4375 C 40.277344 111.285156 44.328125 116.285156 47.101563 121.972656 C 49.875 127.660156 51.375 134.035156 51.726563 140.636719 C 52.777344 156.335938 47.585938 170.410156 38.339844 182.746094 C 29.09375 195.085938 15.792969 205.6875 0.625 214.4375 C 0.527344 214.734375 0.625 214.984375 0.789063 215.210938 C 0.953125 215.4375 1.175781 215.636719 1.324219 215.835938 C 5.175781 216.1875 8.902344 216.785156 12.464844 217.761719 C 16.027344 218.734375 19.425781 220.085938 22.625 221.9375 C 11.953125 234.1875 6.476563 255.511719 6.808594 275.9375 C 7.136719 296.359375 13.277344 315.886719 25.828125 324.535156 C 23.625 332.535156 22.902344 341.410156 24.214844 349.886719 C 25.527344 358.359375 28.875 366.433594 34.828125 372.835938 C 41.027344 379.535156 48.402344 384.085938 56.476563 386.523438 C 64.550781 388.960938 73.328125 389.285156 82.328125 387.535156 C 93.726563 385.183594 105.335938 378.671875 114.816406 369.371094 C 124.300781 360.074219 131.65625 347.984375 134.550781 334.484375 C 149.902344 327.734375 165.820313 321.824219 182.226563 317.246094 C 198.632813 312.671875 215.527344 309.433594 232.824219 308.035156 C 243.226563 307.6875 253.75 308.410156 263.976563 310.023438 C 274.199219 311.636719 284.125 314.136719 293.324219 317.335938 C 300.375 319.546875 307.019531 323.476563 313.050781 328.402344 C 319.085938 333.328125 324.511719 339.253906 329.128906 345.460938 C 331.417969 348.65625 332.414063 349.519531 332.453125 348.984375 C 332.496094 348.453125 331.582031 346.523438 330.054688 344.132813 C 320.316406 328.210938 305.695313 318.648438 289.164063 312.660156 Z M 135.601563 309.824219 C 135.613281 310.304688 135.625 310.730469 135.625 311.234375 C 130.960938 313.535156 127.238281 315.429688 123.5625 317.246094 C 119.882813 319.0625 116.246094 320.804688 111.75 322.800781 C 111.179688 323.054688 110.867188 323.09375 110.835938 322.992188 C 110.804688 322.890625 111.058594 322.640625 111.609375 322.316406 C 116.007813 319.75 119.804688 317.589844 123.601563 315.371094 C 127.398438 313.15625 131.191406 310.878906 135.574219 308.085938 C 135.574219 308.8125 135.589844 309.34375 135.601563 309.824219 Z M 134.363281 299.476563 C 134.460938 299.949219 134.550781 300.410156 134.570313 300.765625 C 133.835938 301.558594 125.867188 307.570313 116.257813 314.03125 C 106.648438 320.496094 95.402344 327.410156 88.101563 330.011719 C 87.519531 330.179688 87.058594 330.195313 86.921875 330.097656 C 86.78125 329.996094 86.964844 329.785156 87.664063 329.496094 C 96.414063 326.246094 103.972656 320.878906 111.371094 315.085938 C 118.765625 309.292969 126 303.074219 134.101563 298.121094 C 134.15625 298.519531 134.265625 299.003906 134.363281 299.476563 Z M 125.539063 278.410156 C 128.199219 282.3125 130.277344 286.535156 132.027344 290.734375 C 125.476563 292.785156 119.175781 296.460938 113.351563 301.109375 C 107.527344 305.761719 102.175781 311.386719 97.527344 317.335938 C 95.828125 319.886719 93.703125 322.484375 91.265625 324.585938 C 88.828125 326.683594 86.078125 328.285156 83.125 328.835938 C 82.3125 328.972656 81.757813 329.035156 81.183594 328.90625 C 80.605469 328.78125 80.015625 328.460938 79.125 327.835938 C 89.527344 320.636719 97.453125 311.359375 103.363281 301.046875 C 109.277344 290.734375 113.175781 279.386719 115.527344 268.035156 C 119.625 270.9375 122.875 274.511719 125.539063 278.410156 Z M 75.125 325.636719 C 70.277344 322.683594 67.125 318.234375 65.1875 313.324219 C 63.25 308.410156 62.527344 303.035156 62.527344 298.234375 C 63.125 291.484375 64.953125 284.734375 68.238281 278.871094 C 71.527344 273.011719 76.277344 268.035156 82.726563 264.835938 C 87.277344 262.535156 92.777344 261.484375 98.164063 261.761719 C 103.550781 262.035156 108.824219 263.636719 112.925781 266.636719 C 110.675781 278.136719 106.800781 289.910156 100.699219 300.296875 C 94.601563 310.683594 86.277344 319.683594 75.125 325.636719 Z M 91.277344 200.535156 C 108.046875 208.507813 120.226563 232.339844 113.324219 263.664063 C 107.925781 260.214844 101.027344 258.757813 94.203125 259.125 C 87.375 259.492188 80.625 261.6875 75.527344 265.535156 C 68.578125 271.136719 64.460938 278.699219 61.625 286.597656 C 55.800781 302.828125 64.203125 317.308594 66.0625 319.972656 C 67.925781 322.636719 70.078125 325.035156 72.328125 326.734375 C 66.078125 329.835938 58.75 330.886719 51.5625 330.273438 C 44.375 329.660156 37.328125 327.386719 31.625 323.835938 C 52.441406 287.402344 54.929688 265.039063 52.230469 251.554688 C 49.527344 238.070313 41.636719 233.472656 41.695313 232.5625 C 53.152344 200.449219 74.511719 192.5625 91.277344 200.535156 Z M 15.25 215.9375 C 12.226563 215.035156 9.125 214.335938 6.027344 213.636719 C 21.609375 204.753906 33.121094 194.960938 41.144531 184.148438 C 49.167969 173.335938 53.703125 161.503906 55.328125 148.535156 C 55.445313 145.566406 55.421875 142.660156 55.265625 139.8125 C 55.109375 136.96875 54.8125 134.183594 54.382813 131.457031 C 54.261719 130.695313 54.273438 130.304688 54.367188 130.285156 C 54.457031 130.269531 54.625 130.625 54.808594 131.355469 C 58.96875 147.910156 55.707031 163.316406 49.238281 177.84375 C 42.769531 192.367188 33.09375 206.011719 24.425781 219.035156 C 24.375 219.085938 24.300781 219.160156 24.226563 219.234375 C 24.152344 219.3125 24.078125 219.386719 24.027344 219.4375 C 21.226563 217.9375 18.277344 216.835938 15.25 215.9375 Z M 11.550781 258.875 C 11.425781 258.824219 11.496094 258.121094 11.839844 256.769531 C 13.1875 250.40625 14.839844 244.757813 17.035156 239.378906 C 19.234375 234.003906 21.984375 228.902344 25.527344 223.636719 C 25.945313 223.886719 26.28125 224.164063 26.609375 224.441406 C 26.933594 224.71875 27.25 224.992188 27.625 225.234375 C 24.332031 229.085938 21.425781 234.460938 18.898438 240.160156 C 16.375 245.859375 14.226563 251.886719 12.449219 257.050781 C 12 258.320313 11.675781 258.925781 11.550781 258.875 Z M 13.480469 269.960938 C 16.757813 251.417969 25.09375 234.554688 30.40625 229.363281 C 30.558594 229.238281 30.6875 229.222656 30.757813 229.277344 C 30.824219 229.335938 30.832031 229.460938 30.742188 229.613281 C 28.195313 233.828125 25.558594 238.351563 23.667969 243.21875 C 21.777344 248.085938 20.628906 253.292969 21.070313 258.878906 C 21.46875 261.554688 22.980469 263.878906 24.886719 264.808594 C 26.792969 265.738281 29.097656 265.269531 31.089844 262.351563 C 32.746094 259.925781 34.425781 256.582031 35.957031 252.316406 C 37.484375 248.050781 38.867188 242.859375 39.925781 236.734375 C 48.277344 248.585938 48.800781 263.328125 45.351563 278.222656 C 41.902344 293.117188 34.476563 308.167969 26.925781 320.636719 C 11.988281 308.722656 10.203125 288.5 13.480469 269.960938 Z M 113.675781 366.699219 C 104.933594 375.503906 94.078125 382.234375 83.125 385.035156 C 74.976563 386.886719 66.527344 386.785156 58.664063 384.609375 C 50.800781 382.433594 43.527344 378.183594 37.726563 371.734375 C 32.175781 366.234375 29.101563 358.859375 28.050781 351.097656 C 27 343.335938 27.976563 335.183594 30.527344 328.136719 C 36.777344 331.886719 44.777344 334.160156 52.839844 334.546875 C 60.902344 334.933594 69.027344 333.433594 75.527344 329.636719 C 81.277344 332.785156 87.527344 334.984375 94.113281 336.234375 C 100.699219 337.484375 107.625 337.785156 114.726563 337.136719 C 117.425781 337.933594 120.40625 338.003906 123.324219 337.683594 C 126.246094 337.367188 129.101563 336.660156 131.550781 335.910156 C 129.050781 347.011719 122.421875 357.890625 113.675781 366.699219 Z M 135.222656 320.277344 C 135.191406 320.4375 135.164063 320.585938 135.175781 320.820313 C 129.890625 323.234375 125.378906 325.175781 120.996094 326.808594 C 116.617188 328.445313 112.367188 329.769531 107.605469 330.957031 C 106.984375 331.113281 106.660156 331.128906 106.644531 331.046875 C 106.628906 330.96875 106.921875 330.792969 107.539063 330.570313 C 112.109375 328.910156 116.734375 327.183594 121.378906 325.375 C 126.019531 323.566406 130.675781 321.675781 135.304688 319.695313 C 135.292969 319.957031 135.253906 320.121094 135.222656 320.277344 Z M 135.640625 316.1875 C 135.621094 316.480469 135.59375 316.773438 135.550781 317.085938 C 132.824219 318.269531 127.644531 320.253906 122.585938 322.152344 C 117.523438 324.046875 112.578125 325.859375 110.316406 326.695313 C 109.925781 326.839844 109.71875 326.847656 109.703125 326.769531 C 109.6875 326.691406 109.863281 326.527344 110.242188 326.335938 C 112.503906 325.191406 117.625 323.117188 122.800781 320.988281 C 127.980469 318.859375 133.210938 316.675781 135.699219 315.308594 C 135.675781 315.609375 135.660156 315.898438 135.640625 316.1875 "/>
<path style=" stroke:none;fill-rule:nonzero;fill:rgb(0%,0%,0%);fill-opacity:1;" d="M 104.726563 169.734375 C 106.324219 165.648438 106.976563 163.421875 106.4375 163.011719 C 105.894531 162.601563 104.164063 164.003906 100.996094 167.179688 C 99.683594 168.175781 98.421875 169.222656 97.273438 170.457031 C 96.121094 171.6875 95.085938 173.105469 94.226563 174.835938 C 91.910156 178.695313 88.808594 181.980469 85.375 184.863281 C 81.941406 187.746094 78.171875 190.230469 74.519531 192.492188 C 74.152344 192.722656 74.007813 192.90625 74.050781 192.996094 C 74.097656 193.085938 74.332031 193.082031 74.722656 192.925781 C 84.28125 189.148438 91.207031 184.503906 96.027344 180.226563 C 100.851563 175.949219 103.574219 172.039063 104.726563 169.734375 "/>
<path style=" stroke:none;fill-rule:nonzero;fill:rgb(0%,0%,0%);fill-opacity:1;" d="M 165.925781 283.136719 C 173.269531 281.046875 176.722656 279.425781 179.515625 277.929688 C 182.3125 276.433594 184.445313 275.058594 189.152344 273.457031 C 204.714844 268.160156 224.230469 263.128906 244.695313 259.332031 C 265.15625 255.539063 286.5625 252.984375 305.902344 252.648438 C 309.78125 252.582031 311.660156 252.378906 311.585938 252.140625 C 311.507813 251.90625 309.476563 251.636719 305.527344 251.4375 C 289.03125 251.074219 268.90625 252.625 248.234375 255.554688 C 227.566406 258.480469 206.355469 262.78125 187.699219 267.910156 C 183.222656 269.140625 179.519531 269.878906 175.691406 270.925781 C 171.863281 271.976563 167.914063 273.335938 162.949219 275.808594 C 155.207031 279.714844 153.269531 282.304688 154.605469 283.535156 C 155.945313 284.773438 160.558594 284.652344 165.925781 283.136719 "/>
<path style=" stroke:none;fill-rule:nonzero;fill:rgb(0%,0%,0%);fill-opacity:1;" d="M 468.363281 290.511719 C 410.152344 267.109375 327.121094 255.324219 234.277344 270.96875 C 227.761719 272.066406 221.570313 272.300781 215.148438 273.171875 C 208.730469 274.046875 202.078125 275.5625 194.640625 279.222656 C 192.390625 280.320313 191.316406 281.476563 191.429688 282.351563 C 191.539063 283.230469 192.839844 283.835938 195.339844 283.835938 C 205.613281 283.875 212.289063 282.535156 218.003906 280.933594 C 223.714844 279.328125 228.457031 277.464844 234.855469 276.460938 C 345.746094 259.0625 428.648438 274.503906 481.78125 299.710938 C 534.914063 324.917969 558.28125 359.886719 550.101563 381.535156 C 542.554688 403.335938 528.082031 408.5 514.59375 405.949219 C 501.105469 403.394531 488.601563 393.128906 484.980469 384.070313 C 482.164063 377.578125 483.703125 368.667969 489.109375 361.546875 C 494.519531 354.421875 503.789063 349.085938 516.441406 349.734375 C 521.289063 349.335938 523.589844 348.230469 523.355469 347.011719 C 523.117188 345.792969 520.339844 344.460938 515.039063 343.609375 C 499.21875 342.203125 489.4375 349.292969 484.488281 358.539063 C 479.539063 367.785156 479.414063 379.183594 482.898438 386.394531 C 489.226563 398.953125 504.296875 408.058594 519.078125 408.644531 C 533.863281 409.226563 548.359375 401.289063 553.546875 379.761719 C 559.972656 348.9375 526.578125 313.914063 468.363281 290.511719 "/>
<path style=" stroke:none;fill-rule:nonzero;fill:rgb(0%,0%,0%);fill-opacity:1;" d="M 435.539063 323.570313 C 408.011719 305.839844 361.371094 290.003906 284.464844 283.199219 C 279.890625 282.976563 270.726563 281.910156 261.78125 281.3125 C 252.835938 280.714844 244.105469 280.585938 240.40625 282.234375 C 234.398438 283.773438 234.828125 285.296875 236.550781 286.371094 C 238.273438 287.449219 241.289063 288.082031 240.453125 287.835938 C 246.023438 289.011719 254.652344 288.679688 263.015625 288.050781 C 271.378906 287.425781 279.472656 286.503906 283.984375 286.511719 C 323.550781 288.527344 369.152344 296.625 405.199219 311.167969 C 441.242188 325.714844 467.734375 346.703125 469.085938 374.503906 C 470.085938 392.070313 456.160156 403.671875 440.921875 406.125 C 425.683594 408.578125 409.132813 401.875 404.890625 382.835938 C 404.289063 377.550781 406.269531 373.003906 409.421875 369.222656 C 412.578125 365.445313 416.90625 362.433594 421.007813 360.234375 C 422.855469 359.285156 424.929688 358.484375 426.855469 357.511719 C 428.78125 356.535156 431.570313 355.222656 431.804688 353.734375 C 430.65625 351.933594 428.632813 351.410156 426.46875 351.410156 C 424.304688 351.410156 422.007813 351.933594 420.304688 352.234375 C 415.707031 354.183594 411.554688 357.558594 408.382813 361.648438 C 405.207031 365.734375 403.007813 370.535156 402.304688 375.335938 C 400.515625 397.230469 417.441406 408.402344 435.054688 408.511719 C 452.664063 408.617188 470.964844 397.664063 471.917969 375.316406 C 471.476563 360.925781 463.066406 341.300781 435.539063 323.570313 "/>
<path style=" stroke:none;fill-rule:nonzero;fill:rgb(0%,0%,0%);fill-opacity:1;" d="M 327.789063 305.046875 C 318.816406 302.042969 312.027344 299.410156 306.519531 297.90625 C 301.011719 296.402344 296.789063 296.027344 292.941406 297.535156 C 291.570313 298.128906 290.261719 298.839844 289.902344 299.757813 C 289.539063 300.671875 290.128906 301.789063 292.554688 303.191406 C 298.488281 304.96875 303.050781 305.496094 307.890625 306.082031 C 312.730469 306.671875 317.851563 307.320313 324.894531 309.34375 C 379.867188 328.066406 395.003906 349.945313 393.644531 366.976563 C 392.285156 384.007813 374.429688 396.195313 363.425781 395.53125 C 353.351563 394.484375 346.292969 389.253906 341.996094 383.074219 C 337.703125 376.890625 336.171875 369.753906 337.152344 364.890625 C 339.402344 358.839844 343.855469 355.367188 349.164063 353.277344 C 354.480469 351.191406 360.652344 350.492188 366.355469 349.992188 C 367.105469 349.789063 367.480469 349.316406 367.652344 348.714844 C 367.828125 348.117188 367.804688 347.390625 367.753906 346.691406 C 367.238281 344.722656 362.855469 343.941406 359.992188 343.964844 C 357.128906 343.992188 354.152344 344.691406 351.554688 345.289063 C 347.855469 346.742188 344.054688 349.066406 341.003906 352.066406 C 337.953125 355.066406 335.652344 358.742188 334.953125 362.890625 C 333.625 373.484375 337.085938 381.796875 342.613281 387.65625 C 348.140625 393.515625 355.734375 396.921875 362.675781 397.695313 C 373.472656 398.84375 393.0625 387.1875 395.800781 369.488281 C 398.535156 351.789063 384.414063 328.050781 327.789063 305.046875 "/>
<path style=" stroke:none;fill-rule:nonzero;fill:rgb(0%,0%,0%);fill-opacity:1;" d="M 106.070313 187.9375 C 103.902344 189.75 101.945313 191.25 100.082031 192.574219 C 98.21875 193.898438 96.445313 195.042969 94.648438 196.144531 C 94.292969 196.363281 94.089844 196.609375 94.125 196.730469 C 94.160156 196.851563 94.433594 196.847656 95.035156 196.566406 C 95.863281 196.183594 99.304688 195.367188 103.15625 193.753906 C 107.007813 192.140625 111.269531 189.730469 113.738281 186.15625 C 114.226563 185.367188 114.179688 185.027344 113.921875 184.910156 C 113.667969 184.789063 113.203125 184.890625 112.859375 184.980469 C 112.03125 185.21875 111.242188 185.269531 110.203125 185.609375 C 109.164063 185.945313 107.882813 186.566406 106.070313 187.9375 "/>
<path style=" stroke:none;fill-rule:nonzero;fill:rgb(0%,0%,0%);fill-opacity:1;" d="M 112.554688 194.050781 C 111.742188 194.144531 110.707031 194.410156 109.171875 195.148438 C 107.308594 196.160156 105.648438 196.976563 104.082031 197.671875 C 102.515625 198.367188 101.042969 198.949219 99.558594 199.492188 C 99.265625 199.601563 99.078125 199.75 99.085938 199.84375 C 99.09375 199.9375 99.296875 199.976563 99.78125 199.859375 C 100.445313 199.699219 103.097656 199.609375 106.167969 198.992188 C 109.238281 198.378906 112.730469 197.238281 115.070313 194.976563 C 115.546875 194.46875 115.5625 194.210938 115.394531 194.085938 C 115.222656 193.960938 114.867188 193.964844 114.601563 193.980469 C 113.957031 194.03125 113.367188 193.953125 112.554688 194.050781 "/>
<path style=" stroke:none;fill-rule:nonzero;fill:rgb(0%,0%,0%);fill-opacity:1;" d="M 112.734375 201.183594 C 111.339844 201.945313 110.09375 202.554688 108.917969 203.078125 C 107.742188 203.601563 106.636719 204.035156 105.523438 204.441406 C 105.304688 204.523438 105.164063 204.636719 105.171875 204.707031 C 105.175781 204.777344 105.328125 204.804688 105.691406 204.71875 C 106.191406 204.597656 108.179688 204.53125 110.480469 204.070313 C 112.785156 203.605469 115.402344 202.753906 117.160156 201.054688 C 117.515625 200.675781 117.527344 200.480469 117.402344 200.386719 C 117.273438 200.292969 117.007813 200.296875 116.804688 200.308594 C 116.324219 200.347656 115.882813 200.289063 115.273438 200.359375 C 114.664063 200.429688 113.886719 200.628906 112.734375 201.183594 "/>
<path style=" stroke:none;fill-rule:nonzero;fill:rgb(0%,0%,0%);fill-opacity:1;" d="M 115.496094 206.757813 C 114.449219 207.328125 113.515625 207.785156 112.632813 208.175781 C 111.753906 208.566406 110.925781 208.894531 110.089844 209.199219 C 109.925781 209.261719 109.820313 209.34375 109.824219 209.398438 C 109.828125 209.449219 109.941406 209.472656 110.214844 209.40625 C 110.589844 209.316406 112.078125 209.265625 113.808594 208.921875 C 115.535156 208.574219 117.496094 207.933594 118.816406 206.660156 C 119.085938 206.375 119.09375 206.230469 118.996094 206.160156 C 118.902344 206.089844 118.699219 206.09375 118.550781 206.101563 C 118.1875 206.128906 117.855469 206.085938 117.398438 206.140625 C 116.941406 206.191406 116.359375 206.339844 115.496094 206.757813 "/>
<path style=" stroke:none;fill-rule:nonzero;fill:rgb(0%,0%,0%);fill-opacity:1;" d="M 115.304688 211.839844 C 114.261719 212.121094 113.296875 212.632813 112.261719 213.457031 C 112.160156 213.539063 112.125 213.6875 112.171875 213.820313 C 112.214844 213.957031 112.335938 214.078125 112.542969 214.109375 C 112.917969 214.167969 114.035156 214.179688 115.308594 213.933594 C 116.578125 213.6875 118.007813 213.191406 118.996094 212.238281 C 119.195313 212.023438 119.203125 211.867188 119.128906 211.769531 C 119.058594 211.667969 118.90625 211.625 118.796875 211.632813 C 117.460938 211.519531 116.34375 211.5625 115.304688 211.839844 "/>
<path style=" stroke:none;fill-rule:nonzero;fill:rgb(0%,0%,0%);fill-opacity:1;" d="M 115.03125 217.710938 C 114.953125 217.773438 114.929688 217.886719 114.964844 217.984375 C 114.996094 218.089844 115.089844 218.179688 115.242188 218.203125 C 115.523438 218.246094 116.363281 218.253906 117.316406 218.070313 C 118.273438 217.886719 119.339844 217.515625 120.082031 216.800781 C 120.234375 216.636719 120.238281 216.523438 120.183594 216.445313 C 120.128906 216.371094 120.015625 216.339844 119.933594 216.34375 C 118.929688 216.257813 118.09375 216.292969 117.3125 216.5 C 116.53125 216.710938 115.808594 217.09375 115.03125 217.710938 "/>
<path style=" stroke:none;fill-rule:nonzero;fill:rgb(0%,0%,0%);fill-opacity:1;" d="M 119.433594 222.535156 C 119.433594 221.609375 118.722656 220.855469 117.84375 220.855469 C 116.964844 220.855469 116.253906 221.609375 116.253906 222.535156 C 116.253906 223.464844 116.964844 224.214844 117.84375 224.214844 C 118.722656 224.214844 119.433594 223.464844 119.433594 222.535156 "/>
<path style=" stroke:none;fill-rule:nonzero;fill:rgb(0%,0%,0%);fill-opacity:1;" d="M 118.78125 228.960938 C 119.414063 228.960938 119.929688 228.40625 119.929688 227.722656 C 119.929688 227.039063 119.414063 226.484375 118.78125 226.484375 C 118.144531 226.484375 117.632813 227.039063 117.632813 227.722656 C 117.632813 228.40625 118.144531 228.960938 118.78125 228.960938 "/>
<path style=" stroke:none;fill-rule:nonzero;fill:rgb(0%,0%,0%);fill-opacity:1;" d="M 118.105469 232.535156 C 118.105469 233.316406 118.660156 233.949219 119.34375 233.949219 C 120.027344 233.949219 120.578125 233.316406 120.578125 232.535156 C 120.578125 231.753906 120.027344 231.121094 119.34375 231.121094 C 118.660156 231.121094 118.105469 231.753906 118.105469 232.535156 "/>
<path style=" stroke:none;fill-rule:nonzero;fill:rgb(0%,0%,0%);fill-opacity:1;" d="M 149.183594 288.550781 C 150.640625 287.984375 151.4375 286.996094 150.941406 285.722656 C 150.449219 284.449219 149.039063 284.316406 147.582031 284.882813 C 146.125 285.445313 145.171875 286.492188 145.667969 287.769531 C 146.160156 289.042969 147.726563 289.113281 149.183594 288.550781 "/>
<path style=" stroke:none;fill-rule:nonzero;fill:rgb(0%,0%,0%);fill-opacity:1;" d="M 181.328125 284.722656 C 181.328125 286.089844 182.738281 286.890625 184.238281 286.558594 C 185.761719 286.21875 186.984375 286.089844 186.984375 284.722656 C 186.984375 283.355469 185.71875 282.25 184.15625 282.25 C 182.59375 282.25 181.328125 283.355469 181.328125 284.722656 "/>
<path style=" stroke:none;fill-rule:nonzero;fill:rgb(0%,0%,0%);fill-opacity:1;" d="M 233.628906 286.972656 C 233.628906 285.800781 232.273438 285.222656 230.90625 285.222656 C 229.539063 285.222656 228.679688 285.800781 228.679688 286.972656 C 228.679688 288.144531 229.871094 288.722656 231.238281 288.722656 C 232.605469 288.722656 233.628906 288.144531 233.628906 286.972656 "/>
<path style=" stroke:none;fill-rule:nonzero;fill:rgb(0%,0%,0%);fill-opacity:1;" d="M 287.113281 298.972656 C 287.113281 297.878906 285.789063 296.992188 284.15625 296.992188 C 282.523438 296.992188 281.199219 297.878906 281.199219 298.972656 C 281.199219 300.066406 282.523438 300.953125 284.15625 300.953125 C 285.789063 300.953125 287.113281 300.066406 287.113281 298.972656 "/>
</g>
</svg>
