<?xml version="1.0" encoding="UTF-8"?>
<svg xmlns="http://www.w3.org/2000/svg" xmlns:xlink="http://www.w3.org/1999/xlink" width="514pt" height="306pt" viewBox="0 0 514 306" version="1.1">
<g id="surface1">
<path style=" stroke:none;fill-rule:nonzero;fill:rgb(0%,0%,0%);fill-opacity:1;" d="M 377.035156 223.449219 C 376.417969 222.152344 375.753906 220.878906 375.117188 219.632813 C 345.285156 178.53125 260.316406 176.628906 197.566406 180.8125 C 197.28125 179.757813 196.5625 178.71875 195.8125 177.359375 C 223.132813 172.855469 250.289063 171.3125 278.476563 173.039063 C 280.488281 173.230469 282.597656 172.367188 281.929688 169.96875 C 261.308594 156.480469 216.316406 163.933594 191.53125 171.210938 C 190.554688 169.878906 189.574219 168.914063 188.441406 167.289063 C 203.011719 161.921875 218.363281 157.984375 233.992188 155.398438 C 236.519531 155.117188 239.144531 153.574219 233.609375 152.1875 C 215.488281 148.160156 198.730469 155.371094 183.390625 162.085938 C 180.710938 159.277344 178.140625 157.617188 175.347656 155.613281 C 187.039063 133.882813 186.28125 103.175781 152.363281 82.46875 C 147.902344 70.121094 129.945313 46.15625 94.210938 52.910156 C 37.949219 68.441406 6.890625 151.144531 13.179688 209.476563 C 13.492188 212.863281 12.058594 213.25 11.230469 209.777344 C -0.464844 159.167969 23.996094 108.054688 28.632813 86.753906 C 34.113281 62.335938 35.535156 29.804688 16.167969 9.480469 C 2.125 -7.371094 3.324219 5.070313 3.800781 6.316406 C 10.992188 16.476563 15.402344 27.695313 18.277344 39.488281 C 21.25 58.277344 20.484375 78.507813 16.167969 96.4375 C 9.363281 132.769531 -8.851563 171.984375 6.582031 210.332031 C 10.609375 225 23.839844 237.367188 34.195313 247.914063 C 35.472656 251.414063 42.117188 248.679688 37.644531 244.464844 C -15.015625 206.285156 38.367188 42.898438 116.261719 56.359375 C 129.585938 58.277344 142.339844 69.015625 147.324219 81.191406 C 140.242188 77.824219 127.523438 77.722656 118.675781 83.320313 C 105.871094 91.421875 94.292969 114.484375 125.273438 131.238281 C 121.34375 133.441406 56.257813 147.667969 63.53125 204.484375 C 35.617188 234.851563 60.925781 288.109375 95.933594 296.554688 C 143.910156 304.855469 161.398438 256.265625 148.121094 228.203125 C 149.257813 226.972656 150.6875 225.328125 152.214844 223.46875 C 203.402344 253.0625 205.117188 203.890625 202.929688 195.6875 C 264.191406 189.261719 346.09375 179.59375 375.652344 225.066406 C 377.195313 227.4375 379.953125 229.433594 377.035156 223.449219 Z M 191.792969 178.398438 C 192.464844 179.261719 193.304688 180.5625 193.601563 181.46875 C 183.4375 182.617188 172.242188 186.660156 161.695313 186.660156 C 161.507813 185.792969 161.335938 185.316406 161.027344 184.261719 C 171.382813 182.441406 181.039063 180.066406 191.792969 178.398438 Z M 185.015625 168.914063 C 186.257813 169.992188 186.828125 171.132813 187.714844 172.183594 C 178.605469 175.660156 169.113281 177.761719 159.714844 179.855469 C 159.402344 179.089844 158.734375 178.402344 158.542969 177.730469 C 167.867188 175.15625 176.078125 172.75 185.015625 168.914063 Z M 179.738281 163.640625 C 172.070313 167.378906 163.8125 170.257813 155.953125 173.421875 C 155.609375 172.796875 155.09375 172.03125 154.804688 171.453125 C 156.628906 170.121094 166.90625 165.847656 173.035156 158.351563 C 175.433594 159.597656 177.632813 161.625 179.738281 163.640625 Z M 129.394531 154.054688 C 144.300781 142.589844 162.632813 150.347656 170.40625 156.722656 C 165.710938 162.378906 159.320313 166.695313 152.800781 168.804688 C 146.089844 162.1875 138.894531 156.597656 129.394531 154.054688 Z M 152.328125 174.792969 C 150.265625 175.730469 147.191406 176.011719 144.941406 176.089844 C 143.550781 176.136719 144.007813 175.84375 144.957031 175.585938 C 147.085938 175.007813 149.25 174.066406 151.226563 173.160156 C 151.664063 173.773438 151.898438 174.644531 152.328125 174.792969 Z M 148.859375 170.457031 C 143.300781 173.8125 136.105469 174.378906 130.066406 170.929688 C 127.890625 167.269531 125.941406 168.4375 125.273438 168.914063 C 123.835938 165.464844 123.449219 161.148438 125.65625 157.890625 C 134.378906 158.5625 142.148438 163.84375 148.859375 170.457031 Z M 142.132813 179.824219 C 146.46875 180.285156 149.835938 179.804688 154.59375 178.96875 C 154.804688 179.648438 155.070313 180.246094 155.28125 180.722656 C 151.304688 181.386719 145.6875 181.820313 141.816406 180.382813 C 141.207031 180.15625 141.488281 179.757813 142.132813 179.824219 Z M 147.933594 184.625 C 150.382813 184.683594 155.273438 185.101563 156.988281 184.71875 C 157.386719 185.6875 157.484375 186.351563 157.644531 187.039063 C 156.574219 187.160156 151.183594 186.390625 147.890625 185.242188 C 147.386719 185.066406 147.214844 184.605469 147.933594 184.625 Z M 148.007813 83.75 C 155.835938 95.898438 148.167969 124.296875 134.570313 126.445313 C 91.832031 118.726563 111.140625 70.796875 148.007813 83.75 Z M 135.628906 137.46875 C 141.285156 139.140625 153.632813 143.285156 160.535156 140.769531 C 166.621094 139.140625 163.613281 133.113281 160.457031 132.292969 C 155.566406 130.949219 149.738281 130.339844 144.5625 129.378906 C 151.375 118.484375 160.070313 107.441406 153.9375 86.367188 C 181.773438 106.222656 184.65625 129.398438 172.570313 153.554688 C 160.109375 144.726563 138.890625 139.648438 124.375 152.902344 C 119.195313 152.613281 116.261719 152.042969 110.796875 152.328125 C 119.296875 147.835938 127.535156 144.335938 135.628906 137.46875 Z M 102.167969 294.335938 C 73.226563 293.453125 38.289063 243.101563 64.203125 208.605469 C 67.078125 213.59375 68.132813 219.917969 73.886719 223.082031 C 76.570313 222.890625 77.144531 221.359375 76.28125 218.960938 C 71.488281 215.414063 69.953125 209.851563 68.996094 204.484375 C 72.832031 201.226563 77.335938 199.882813 82.128906 199.308594 C 79.566406 223.152344 107.914063 246.621094 143.199219 231.039063 C 155.746094 247.890625 143.316406 298.855469 102.167969 294.335938 Z M 145.765625 223.738281 C 139.839844 212.195313 122.847656 193.902344 109.070313 190.964844 C 106.019531 190.351563 104.492188 193.828125 107.089844 195.199219 C 119.457031 204.117188 132.632813 213.605469 140.589844 227.507813 C 115.195313 243.773438 81.800781 223.175781 85.964844 199.59375 C 98.429688 199.976563 106.769531 213.59375 116.261719 221.359375 C 118.847656 222.890625 120.574219 220.109375 122.492188 219.25 C 122.300781 211.484375 114.152344 204.675781 107.632813 200.648438 C 101.59375 197.007813 94.976563 194.992188 87.691406 194.417969 C 107.34375 164.347656 143.871094 217.425781 148.378906 220.972656 C 147.058594 222.707031 147.035156 222.484375 145.765625 223.738281 Z M 101.113281 180.996094 C 93.441406 181.953125 86.347656 187.992188 83.472656 195.089844 C 78.199219 195.855469 73.117188 197.582031 68.707031 200.265625 C 68.898438 185.597656 76.953125 172.558594 88.648438 164.027344 C 98.332031 158.371094 110.125 156.738281 121.820313 157.121094 C 113.851563 171.003906 132.941406 189.082031 158.558594 193.789063 C 159.570313 201.890625 157.582031 206.304688 154.992188 212.058594 C 139.078125 198.15625 125.175781 176.011719 101.113281 180.996094 Z M 158.0625 214.457031 C 160.648438 208.222656 162.949219 201.511719 162.566406 194.417969 C 173.6875 195.953125 187.710938 197.300781 199.023438 196.34375 C 204.65625 214.855469 184.882813 243.175781 158.0625 214.457031 "/>
<path style=" stroke:none;fill-rule:nonzero;fill:rgb(0%,0%,0%);fill-opacity:1;" d="M 513.621094 259.84375 C 511.417969 229.453125 481.152344 208.03125 456.609375 193.746094 C 392.757813 156.546875 277.902344 147.703125 248.851563 151.347656 C 243.925781 152.28125 242.609375 156.753906 251.164063 157.433594 C 292.546875 154.582031 422.300781 160.925781 492.175781 223.082031 C 527.515625 256.847656 510.617188 303.3125 469.132813 303 C 455.039063 302.808594 442.523438 294.898438 436.484375 281.574219 C 446.117188 272.816406 448.777344 259.933594 446.425781 245.664063 C 452.386719 241.046875 470.078125 240.074219 481.253906 250.566406 C 485.710938 254.789063 493.53125 253.371094 491.121094 249.640625 C 484.285156 239.234375 458.515625 234.214844 445.398438 242.367188 C 433.59375 197.316406 338.808594 164.929688 294.390625 168.53125 C 291.609375 169.011719 285.726563 174.378906 292.066406 175.375 C 333.164063 175.644531 428.578125 190.410156 442.800781 244.175781 C 432.257813 253.667969 428.132813 267.472656 433.117188 280.414063 C 394.539063 311.398438 360.351563 266.785156 391.03125 246.574219 C 400.332031 241.394531 410.683594 248.203125 419.984375 250.3125 C 422.289063 250.242188 422.910156 247.464844 421.710938 245.132813 C 419.21875 241.300781 415.285156 239.476563 411.355469 238.230469 C 404.835938 235.929688 397.453125 237.847656 391.703125 240.722656 C 374.078125 249.773438 373.019531 271.617188 384.296875 283.996094 C 393.539063 294.140625 412.066406 298.828125 434.558594 283.097656 C 452.097656 322.371094 517.242188 307.117188 513.621094 259.84375 Z M 443.386719 247.398438 C 446.644531 256.5625 442.316406 273.875 435.316406 278.535156 C 431.238281 266.652344 435.714844 254.398438 443.386719 247.398438 "/>
</g>
</svg>
