<?xml version="1.0" encoding="UTF-8"?>
<svg xmlns="http://www.w3.org/2000/svg" xmlns:xlink="http://www.w3.org/1999/xlink" width="502pt" height="115pt" viewBox="0 0 502 115" version="1.1">
<g id="surface1">
<path style=" stroke:none;fill-rule:nonzero;fill:rgb(0%,0%,0%);fill-opacity:1;" d="M 499.53125 80.167969 C 455.441406 40.699219 412.171875 26.804688 351.71875 12.351563 C 266.558594 -9.921875 172.75 1.164063 143.140625 27.804688 C 139.828125 30.609375 140.578125 31.640625 143.140625 34.601563 C 181.136719 78.570313 252.796875 108.3125 308.953125 110.039063 C 311.109375 110.105469 311.226563 110.625 309.152344 110.78125 C 285.8125 112.574219 264.296875 109.007813 241.125 103.945313 C 223.160156 100.589844 178.789063 89.6875 159.316406 84.773438 C 134.285156 78.539063 89.246094 65.804688 54.667969 70.972656 C 35.898438 73.242188 16.664063 82.320313 4.222656 97.417969 C -1.652344 104.546875 -1.234375 105.023438 5.980469 99.589844 C 33.363281 78.429688 85.429688 83.574219 101.945313 85.753906 C 123.796875 89.277344 146.671875 93.890625 167.953125 98.542969 C 201.050781 104.757813 233.5 112.671875 267.902344 114.4375 C 315.378906 116.921875 361.53125 111.757813 391.507813 81.953125 C 397.964844 75.53125 397.359375 74.363281 390.152344 80.109375 C 364.675781 100.421875 323.851563 114.777344 283.058594 104.023438 C 248.324219 93.785156 206.828125 76.3125 162.921875 37.023438 C 155.804688 30.65625 157.230469 32.21875 163.816406 28.40625 C 208.027344 2.792969 304.390625 6.898438 355.839844 17.863281 C 420.585938 29.097656 459.484375 51.632813 498.730469 81.84375 C 501.574219 84.035156 502.152344 82.515625 499.53125 80.167969 Z M 274.238281 113.015625 C 246.484375 112.65625 195.746094 101.875 167.714844 96.519531 C 122.960938 88.015625 82.183594 75.714844 34.808594 84.285156 C 27.953125 85.351563 23.4375 86.808594 18.050781 89.492188 C 12.789063 92.113281 12.773438 91.90625 17.472656 88.324219 C 35.210938 74.785156 57.125 70.261719 81.136719 72.382813 C 109.304688 74.382813 134.792969 81.480469 161.578125 87.441406 C 179.59375 91.847656 246.296875 108 274.625 111.859375 C 287.632813 112.714844 280.765625 113.097656 274.238281 113.015625 Z M 351.347656 15.164063 C 289.132813 4.484375 204.730469 0.414063 157.484375 29.304688 C 154.445313 30.847656 153.941406 31.628906 157.304688 34.632813 C 202.75 75.300781 248.464844 96.429688 280.613281 105.160156 C 282.957031 105.714844 283.191406 106.292969 280.640625 105.90625 C 254.652344 101.953125 183.597656 79.144531 144.757813 33.800781 C 142.460938 31.117188 142.296875 30.824219 144.785156 28.925781 C 188.960938 -4.804688 293.117188 -2.265625 351.546875 14.402344 C 355.777344 15.453125 355.84375 15.9375 351.347656 15.164063 "/>
</g>
</svg>
