<?xml version="1.0" encoding="UTF-8"?>
<svg xmlns="http://www.w3.org/2000/svg" xmlns:xlink="http://www.w3.org/1999/xlink" width="338pt" height="711pt" viewBox="0 0 338 711" version="1.1">
<g id="surface1">
<path style=" stroke:none;fill-rule:nonzero;fill:rgb(0%,0%,0%);fill-opacity:1;" d="M 194.417969 262.859375 C 174.769531 221.148438 130.175781 226.304688 126.933594 225.222656 C 121.417969 219.707031 119.976563 194.472656 128.230469 177.527344 C 102.671875 189.425781 104.003906 221.003906 104.546875 230.195313 C 91.855469 234.847656 79.023438 252.042969 74.695313 258.207031 C 14.707031 205.285156 4.105469 85.507813 80.210938 67.972656 C 137.277344 58.203125 147.371094 152.652344 104.546875 152.003906 C 72.925781 154.015625 61.714844 120.75 85.238281 105.984375 C 86.175781 105.394531 85.90625 104.390625 84.722656 104.535156 C 67.238281 106.285156 63.027344 114.199219 59.664063 127.671875 C 54.113281 154.492188 127.082031 187.351563 138.726563 128.671875 C 147.34375 85.246094 110.601563 53.878906 80.210938 60.941406 C 80.210938 60.941406 91.855469 12.058594 53.390625 0.160156 C 81.039063 39.457031 31.652344 84.628906 24.621094 112.855469 C 18.3125 123.8125 12.546875 212.496094 72.101563 262.316406 C 72.101563 262.316406 46.433594 319.203125 98.597656 330.886719 C 120.695313 335.789063 134.71875 319.097656 133.421875 318.121094 C 74.550781 340.113281 64.457031 288.203125 77.074219 267.507813 L 82.808594 272.699219 C 131.800781 321.367188 254.441406 373.28125 248.601563 411.132813 C 247.410156 409.292969 136.558594 333.804688 97.300781 367.980469 C -13.230469 379.230469 -5.117188 481.972656 7.96875 501.113281 C 8.617188 503.058594 31.652344 558.757813 86.375 553.566406 C 86.375 553.566406 83.082031 590.769531 106.34375 615.664063 C 152.902344 661.398438 246.15625 667.425781 243.410156 573.574219 C 244.707031 545.238281 210.101563 516.578125 194.417969 534.640625 C 150.078125 530.097656 141.964844 583.089844 159.808594 601.367188 C 180.898438 623.648438 216.046875 602.019531 210.964844 580.28125 C 200.367188 599.3125 173.328125 605.804688 162.1875 586.011719 C 151.15625 560.921875 173.328125 538.75 191.28125 540.046875 C 235.515625 536.046875 239.300781 598.773438 218.753906 617.699219 C 174.949219 665.285156 85.347656 615.414063 96 552.808594 C 130.070313 552.808594 162.515625 504.683594 157.753906 471.265625 C 219.835938 457.097656 292.292969 524.148438 276.179688 593.039063 C 240.382813 747.480469 33.816406 657.714844 42.035156 598.988281 C 6.777344 639.328125 37.058594 675.667969 49.496094 685.941406 C 114.386719 734.5 251.195313 703.679688 263.960938 663.339844 C 264.933594 659.121094 313.902344 618.210938 333.902344 542.671875 C 347.53125 476.105469 326.902344 252.152344 194.417969 262.859375 Z M 79.671875 263.183594 C 80.535156 258.316406 94.019531 240.617188 104.546875 237.441406 C 104.835938 249.988281 131.90625 288.273438 149.429688 303.632813 C 149.429688 303.632813 218.03125 351.648438 224.699219 367.441406 C 179.816406 325.371094 122.714844 307.957031 79.671875 263.183594 Z M 96 545.238281 C 95.351563 543.617188 104.652344 490.621094 148.453125 473.859375 C 150.617188 520.90625 110.601563 545.78125 96 545.238281 Z M 217.453125 469.964844 C 199.5 462.71875 177.871094 462.070313 158.296875 465.640625 C 158.730469 464.558594 148.996094 407.347656 95.460938 404.320313 C 46.792969 413.835938 57.175781 458.070313 57.066406 457.855469 C 57.066406 457.855469 103.570313 381.390625 147.914063 468.234375 C 96 486.839844 89.730469 538.964844 88.429688 545.238281 C 84.863281 548.375 79.347656 545.996094 74.695313 546.320313 C 54.472656 544.699219 35.871094 534.207031 24.40625 517.984375 C 36.84375 518.960938 51.171875 519.933594 60.203125 498.519531 C 57.714844 496.246094 21.109375 497.140625 16.835938 450.824219 C 16.945313 422.488281 36.195313 399.453125 59.878906 386.472656 C 105.085938 363.65625 161.324219 378.6875 200.042969 404.859375 C 219.183594 418.703125 235.40625 434.492188 248.386719 452.339844 C 269.148438 483.59375 283.859375 521.878906 282.886719 563.730469 C 282.019531 560.488281 282.453125 556.8125 281.585938 553.566406 C 276.179688 517.335938 252.820313 483.160156 217.453125 469.964844 Z M 280.507813 630.675781 C 305.273438 586.335938 323.65625 476.023438 262.660156 444.550781 C 271.746094 388.421875 217.886719 347.324219 187.929688 324.613281 C 157.214844 299.523438 134.285156 269.996094 127.148438 231.496094 C 167.5625 225.476563 186.308594 262.644531 186.308594 262.644531 C 173.003906 261.992188 160.027344 266.429688 150.292969 274.863281 C 150.292969 274.863281 432.890625 403.5625 280.507813 630.675781 "/>
</g>
</svg>
