<?xml version="1.0" encoding="UTF-8"?>
<svg xmlns="http://www.w3.org/2000/svg" xmlns:xlink="http://www.w3.org/1999/xlink" width="533pt" height="330pt" viewBox="0 0 533 330" version="1.1">
<g id="surface1">
<path style=" stroke:none;fill-rule:nonzero;fill:rgb(0%,0%,0%);fill-opacity:1;" d="M 494.199219 162.914063 C 509.367188 116.683594 497.011719 70.050781 464.636719 36.59375 C 417.773438 -11.835938 334.792969 -13.320313 285.832031 40.738281 C 275.050781 38.886719 258.503906 35.179688 244.75 39.207031 C 232.203125 42.878906 232.675781 52.925781 236.160156 58.976563 C 243.296875 71.378906 245.21875 90.683594 244.277344 100.917969 C 243.800781 106.109375 244.085938 109.980469 240.269531 111.292969 C 237.585938 112.214844 236.90625 114.230469 237.410156 116.632813 C 238.621094 122.378906 246.792969 133.492188 255.160156 141.214844 C 256.933594 154.417969 261.964844 170.257813 268.59375 182.003906 C 248.625 175.621094 196.253906 164.925781 178.128906 163.214844 C 113.597656 157.121094 40.414063 172.351563 3.433594 204.527344 C -2.269531 209.492188 -0.171875 213.226563 6.613281 208.9375 C 25.953125 195.929688 78.148438 200.355469 95.734375 216.253906 C 90.296875 221.503906 81.730469 236.921875 79.554688 247.355469 C 77.890625 255.339844 78.105469 256.738281 86.09375 254.898438 C 123.40625 246.308594 184.496094 249.945313 222.066406 258.191406 C 265.214844 267.660156 306.695313 283.285156 346.175781 299.847656 C 371.613281 310.519531 434.359375 336.324219 458.0625 327.320313 C 464.828125 324.75 465.375 321.40625 459.765625 316.023438 C 462.921875 299.292969 478.4375 276.425781 504.527344 257.773438 C 511 253.640625 532.757813 252.523438 532.769531 232.132813 C 532.757813 211.460938 519.820313 187.535156 494.199219 162.914063 Z M 456.890625 34.527344 C 488.152344 63.402344 501.773438 103.238281 495.328125 142.539063 C 488.632813 183.347656 461.71875 219.8125 419.195313 235.667969 C 402.5625 229.695313 389.371094 224.71875 377.09375 219.535156 C 377.910156 217.414063 381.214844 219.210938 382.207031 217.089844 C 382.980469 215.265625 383.863281 213.363281 385.742188 213.28125 C 389.167969 213.226563 397.800781 217.035156 399.175781 215.347656 C 401.039063 213.09375 402.453125 209.980469 405.234375 209.191406 C 411.605469 207.789063 413.261719 214.640625 416.90625 212.085938 C 419.90625 210.214844 421.960938 214.105469 422.910156 216.371094 C 423.957031 218.867188 425.816406 223.972656 429.675781 226.574219 C 431.785156 227.996094 432.398438 227.414063 432.621094 224.507813 C 432.800781 222.160156 433.429688 219.277344 431.808594 217.46875 C 423.328125 207.605469 423.972656 204.871094 430.523438 197.609375 C 431.566406 196.453125 439.710938 188.128906 436.757813 182.226563 C 435.601563 179.980469 437.03125 179.097656 436.757813 177.65625 C 436.433594 175.808594 435.671875 173.957031 435.996094 172.054688 C 436.867188 173.414063 436.648438 176.460938 438.988281 176.078125 C 440.304688 175.902344 440.488281 173.117188 439.277344 171.886719 C 438.402344 171.003906 437.285156 170.339844 439.261719 170.097656 C 442.335938 169.714844 440.621094 166.179688 441.601563 164.058594 C 442.308594 162.589844 442.742188 160.605469 444.210938 160.144531 C 445.625 159.871094 447.691406 159.925781 448.398438 158.074219 C 449.132813 155.980469 445.679688 152.691406 449.050781 151.820313 C 451.308594 151.222656 450.289063 142.589844 456.992188 140.074219 C 459.121094 139.382813 459.839844 139.511719 458.246094 141.65625 C 456.960938 143.390625 455.765625 145.285156 456.71875 147.46875 C 458.96875 151.175781 460.59375 144.285156 463.027344 141.378906 C 464.800781 139.570313 468.140625 138.496094 467.054688 135.070313 C 466.128906 132.1875 457.765625 135.992188 457.15625 135.070313 C 456.71875 134.199219 457.289063 130.757813 451.769531 131.589844 C 453.074219 129.792969 454.925781 129.304688 456.339844 127.78125 C 457.117188 126.722656 454.8125 123.832031 451.585938 125.902344 C 449.636719 127.152344 447.839844 130.417969 445.515625 130.011719 C 448.5625 127.726563 447.855469 123.15625 450.738281 121.253906 C 454.109375 119.460938 458.351563 119.675781 461.289063 117.066406 C 462.214844 115.867188 462.117188 113.21875 462.757813 112.496094 C 464.171875 110.757813 466.292969 109.613281 466.292969 106.894531 C 466.292969 105.425781 465.789063 103.359375 464.171875 103.632813 C 462.105469 103.957031 462.050781 100.964844 459.765625 102.054688 C 457.765625 103.089844 458.582031 106.757813 456.066406 107.003906 C 455.902344 104.445313 460.011719 99.824219 456.066406 99.0625 C 452.3125 98.246094 447.855469 99.445313 445.515625 96.070313 C 443.808594 93.097656 441.496094 88.347656 438.226563 88.890625 C 435.46875 89.355469 435.128906 98.261719 431.539063 97.757813 C 432.40625 95.90625 430.613281 94.386719 429.742188 93.078125 C 429.742188 92.046875 430.230469 90.6875 429.578125 89.652344 C 427.378906 86.566406 423.105469 87.421875 420.332031 84.976563 C 418.742188 83.644531 417.246094 86.636719 415.765625 86.554688 C 414.542969 86.445313 410.191406 85.703125 411.195313 88.890625 C 411.902344 90.796875 416.496094 96.5625 414.296875 97.648438 C 412.882813 98.410156 411.945313 99.824219 412.992188 101.019531 C 415.273438 103.46875 420.171875 107.984375 418.210938 110.429688 C 417.179688 111.628906 415.820313 112.933594 415.21875 114.453125 C 414.59375 116.140625 418.675781 120.21875 418.628906 126.476563 C 418.515625 129.617188 416.324219 129.316406 415.246094 128.410156 C 412.980469 126.511719 410.992188 120.773438 411.46875 116.957031 C 409.511719 115.761719 406.679688 114.78125 404.398438 115.761719 C 403.171875 116.34375 403.144531 114.5625 402.058594 114.347656 C 399.027344 114.238281 396.230469 111.574219 394.242188 110.695313 C 392.972656 110.136719 391.820313 109.816406 390.039063 110.539063 C 389.167969 110.921875 388.894531 109.941406 388.839844 109.398438 C 388.554688 107.304688 388.488281 104.039063 386.230469 104.554688 C 382.914063 105.371094 385.496094 102.40625 385.089844 101.292969 C 383.292969 96.507813 386.230469 93.132813 389.386719 90.304688 C 392.160156 87.722656 396.617188 84.539063 396.566406 79.863281 C 396.578125 78.613281 397.394531 77.320313 398.523438 77.414063 C 401.675781 77.6875 403.582031 74.261719 403.363281 72.957031 C 403.035156 70.398438 400.863281 59.507813 398.414063 62.511719 C 396.292969 65.179688 398.796875 69.421875 396.675781 71.921875 C 395.015625 73.511719 395.96875 64.605469 392.269531 66.429688 C 390.964844 67.191406 392.105469 69.585938 390.800781 69.691406 C 389.101563 69.636719 388.285156 65.898438 388.730469 65.015625 C 389.386719 63.871094 390.867188 61.953125 389.492188 61.207031 C 386.992188 59.792969 388.242188 54.300781 383.890625 55.335938 C 383.074219 57.507813 381.5 59.957031 382.859375 62.402344 C 383.59375 63.449219 386.855469 66.101563 385.089844 67.355469 C 382.4375 67.800781 382.097656 60.664063 378.671875 64.089844 C 376.453125 66.511719 379.582031 68.957031 378.289063 70.617188 C 376.589844 72.695313 373.53125 67.871094 371.871094 68.386719 C 370.238281 68.878906 359.730469 69.910156 358.4375 68.386719 C 357.132813 66.863281 360.953125 65.96875 358.980469 64.578125 C 354.738281 61.695313 352.347656 57.019531 346.417969 56.53125 C 345.015625 56.386719 344.984375 54.3125 344.628906 52.816406 C 344.195313 51.027344 339.320313 48.613281 337.0625 50.871094 C 335.429688 50.820313 333.800781 49.621094 332.222656 50.65625 C 331.582031 51.144531 331.40625 50.382813 330.859375 49.472656 C 327.269531 43.542969 325.042969 38.527344 323.464844 31.835938 C 321.945313 25.289063 314.457031 23.722656 311.335938 23.769531 C 356.535156 -6.101563 417.246094 -1.746094 456.890625 34.527344 Z M 455.628906 223.546875 C 454.730469 222.882813 455.476563 221.996094 456.511719 222.585938 C 464.308594 227.003906 474.003906 239.527344 475.238281 247.792969 C 474.765625 247.9375 474.566406 247.957031 474.160156 247.957031 C 471.363281 235.09375 460.78125 227.296875 455.628906 223.546875 Z M 465.734375 246.839844 C 456.542969 246.199219 434.71875 241.441406 424.628906 237.589844 C 433.019531 234.175781 441.199219 229.558594 447.007813 225.382813 C 454.535156 228.9375 462.875 237.511719 466.269531 245.390625 C 466.648438 246.273438 466.511719 246.949219 465.734375 246.839844 Z M 419.027344 159.652344 C 418.597656 161.515625 418.074219 163.246094 417.375 165.113281 C 417.277344 165.375 417.496094 165.660156 417.703125 165.535156 C 419.863281 164.253906 421.703125 163.035156 424.25 162.265625 C 425.269531 161.964844 425.988281 160.851563 425.175781 159.871094 C 424.386719 159.039063 422.6875 159.039063 423.976563 158.183594 C 424.792969 157.53125 432.273438 152.988281 432.84375 153.617188 C 433.007813 158.566406 425.066406 157.042969 426.589844 162.265625 C 427.242188 164.480469 420.007813 168.191406 416.144531 169.441406 C 414.867188 169.917969 412.488281 169.648438 413.804688 167.703125 C 415.382813 165.035156 417.394531 162.589844 417.179688 159.21875 C 417.109375 158.226563 416.578125 157.695313 415.871094 157.695313 C 414.730469 157.804688 414.621094 160.035156 413.152344 158.835938 C 411.683594 157.585938 415.003906 153.398438 411.578125 151.550781 C 410.71875 151.289063 409.550781 152.105469 409.222656 153.195313 C 408.953125 154.214844 409.292969 155.246094 407.933594 155.574219 C 407.496094 155.574219 407.0625 155.085938 406.628906 155.464844 C 405.050781 157.53125 406.246094 161.011719 406.628906 163.570313 C 406.898438 164.710938 407.183594 166.996094 405.320313 166.667969 C 404.289063 164.328125 403.472656 161.503906 404.015625 158.835938 C 404.125 157.613281 401.609375 159.109375 401.132813 158.347656 C 399.832031 155.332031 403.714844 152.84375 405.757813 152.449219 C 407.167969 152.179688 408.535156 152.054688 409.5625 150.882813 C 410.1875 149.984375 409.347656 149.101563 408.3125 148.773438 C 404.601563 148.09375 402.492188 152.3125 400.589844 148.773438 C 399.84375 147.347656 397.9375 150.339844 396.457031 150.515625 C 391.492188 150.941406 390.125 148.585938 393.976563 147.027344 C 395.414063 146.445313 397.175781 146.160156 397.871094 144.640625 C 398.46875 143.390625 398.523438 141.921875 399.9375 141.378906 C 401.203125 141.023438 402.085938 141.230469 402.984375 141.867188 C 404.179688 142.628906 403.851563 145.511719 405.8125 144.476563 C 408.542969 143.132813 409.726563 147.035156 411.195313 148.664063 C 412.621094 150.203125 414.730469 150.570313 416.6875 149.699219 C 419.652344 147.921875 420.6875 151.132813 422.019531 153.886719 C 422.414063 154.691406 421.597656 155.710938 420.984375 155.085938 C 420.332031 154.324219 419.082031 154.621094 418.484375 155.191406 C 417.289063 156.605469 419.421875 157.886719 419.027344 159.652344 Z M 358.914063 212.6875 C 346.402344 207.933594 334.328125 202.871094 325.25 199.355469 C 325.019531 199.265625 325.421875 198.390625 325.59375 198.457031 C 335.878906 202.472656 346.742188 205.703125 359.039063 212.304688 C 359.84375 212.738281 359.75 213.003906 358.914063 212.6875 Z M 322.238281 198.082031 C 321.382813 197.792969 320.976563 197.746094 320.023438 197.339844 C 320.242188 196.90625 320.570313 196.230469 320.855469 195.550781 C 321.886719 196.039063 322.144531 197.171875 322.238281 198.082031 Z M 287.042969 44.949219 C 287.453125 44.523438 287.753906 44.8125 287.441406 45.261719 C 284.289063 49.824219 280.15625 55.050781 277.234375 59.902344 C 276.960938 60.390625 276.445313 60.390625 275.847656 60.28125 C 277.847656 56.769531 283.464844 48.65625 287.042969 44.949219 Z M 240.953125 50.144531 C 243.257813 41.808594 273.792969 44.480469 280.117188 47.230469 C 279.84375 47.679688 279.640625 47.949219 279.328125 48.273438 C 271.210938 46.183594 245.707031 43.59375 242.535156 50.550781 C 241.769531 52.234375 243.636719 55.855469 245.023438 58.5625 C 245.625 59.730469 245.453125 60.070313 244.558594 58.914063 C 242.621094 56.410156 240.164063 53 240.953125 50.144531 Z M 247.144531 119.738281 C 246.8125 119.058594 247.160156 118.863281 247.542969 119.417969 C 252.117188 126.054688 257.539063 130.765625 263.867188 136.742188 C 265.09375 137.917969 266.261719 136.582031 265.09375 135.382813 C 262.34375 132.558594 253.566406 121.253906 250.910156 109.777344 C 250.746094 108.730469 251.886719 107.929688 252.703125 107.820313 C 254.011719 107.660156 256.390625 107.984375 255.96875 106.621094 C 255.640625 105.535156 252.445313 102.136719 254.007813 101.566406 C 257.164063 100.53125 259.503906 103.578125 262.492188 103.359375 C 262.820313 103.25 263.050781 103.019531 262.875 102.707031 C 259.449219 98.464844 256.621094 94.003906 255.859375 88.511719 C 255.710938 87.246094 256.59375 86.839844 257.652344 86.769531 C 262.441406 86.605469 266.683594 88.183594 271.25 89.273438 C 272.433594 89.558594 272.976563 88.402344 272.011719 87.859375 C 259.292969 80.300781 248.898438 76.054688 243.683594 68.316406 C 243.414063 67.914063 243.636719 67.703125 244.003906 68.007813 C 256.78125 78.671875 279.804688 90.0625 292.789063 93.839844 C 285.554688 102.925781 277.261719 110.496094 265.296875 116.144531 C 270.722656 126.996094 279.171875 142.445313 290.070313 150.078125 C 279.972656 151.105469 254.367188 134.328125 247.144531 119.738281 Z M 259.675781 145.292969 C 259.71875 144.832031 260.191406 145.015625 260.820313 145.570313 C 266.960938 150.429688 289.925781 160.761719 296.4375 153.738281 C 298.261719 151.769531 297.570313 151.101563 295.375 150.488281 C 285.183594 147.648438 272.53125 127.144531 267.714844 116.957031 C 278.105469 112.171875 287.097656 103.328125 294.441406 94.679688 C 294.675781 94.453125 295.277344 93.832031 296.039063 93.847656 C 298.472656 93.695313 299.695313 91.53125 296.226563 90.332031 C 291.253906 88.375 272.1875 81.617188 267.464844 76.105469 C 269.414063 71.632813 271.890625 66.511719 274.515625 62.402344 C 278.484375 60.9375 283.925781 65.070313 286.371094 60.28125 C 286.984375 58.828125 293.714844 57.726563 295.945313 58.703125 C 296.597656 60.988281 294.09375 58.917969 293.332031 59.789063 C 291.945313 61.5 288.871094 61.535156 289.90625 64.199219 C 291.210938 65.179688 292.84375 65.992188 294.476563 65.230469 C 295.683594 64.605469 296.433594 63.164063 297.902344 63.816406 C 298.335938 64.742188 299.640625 65.886719 300.347656 66.429688 C 300.566406 69.636719 302.089844 72.628906 305.082031 74.53125 C 306.003906 75.125 305.609375 78.136719 305.78125 79.625 C 306.160156 82.234375 309.488281 83.019531 310.03125 85.628906 C 310.539063 89.070313 310.835938 94.089844 310.085938 97.242188 C 309.476563 99.800781 309.214844 104.277344 311.335938 106.785156 C 311.867188 107.4375 311.933594 107.820313 311.335938 108.582031 C 308.808594 111.109375 310.246094 114.617188 310.140625 117.609375 C 308.261719 117.90625 307.953125 119.339844 308.179688 120.710938 C 308.507813 123.265625 310.683594 124.625 310.792969 127.238281 C 312.066406 129.785156 314.449219 129.972656 315.089844 128.054688 C 315.605469 125.863281 313.15625 122.53125 314.21875 122.015625 C 315.695313 121.480469 318.832031 130.941406 316.285156 135.886719 C 314.382813 136.945313 315.253906 131.75 313.675781 131.425781 C 311.933594 131.03125 310.914063 131.847656 311.0625 133.382813 C 311.566406 138.453125 307.71875 145.921875 304.808594 149.972656 C 302.199219 153.617188 303.386719 166.472656 303.695313 167.644531 C 305.476563 173.863281 303.300781 177.328125 304.15625 179.613281 C 305.351563 182.007813 306.769531 185.054688 309.867188 185.976563 C 313.234375 186.953125 314.351563 192.90625 314.4375 195.277344 C 309.378906 193.917969 287.253906 187.472656 273.625 183.335938 C 266.449219 170.871094 261.5 156.714844 259.675781 145.292969 Z M 497.691406 257.347656 C 484.074219 259.515625 470.390625 256.6875 463.261719 255.363281 C 460.628906 254.878906 460.4375 256.683594 462.855469 257.328125 C 466.246094 258.230469 470.136719 258.925781 472.941406 260.800781 C 483.617188 267.929688 465.539063 291.425781 451.390625 293.941406 C 449.675781 294.402344 449.269531 295.492188 450.738281 296.171875 C 452.367188 296.933594 454.597656 297.640625 455.195313 299.542969 C 453.308594 303.757813 442.371094 302.402344 439.53125 303.242188 C 437.980469 303.378906 438.445313 304.601563 439.097656 305.308594 C 442.132813 306.785156 445.234375 308.261719 448.019531 310.292969 C 451.394531 312.757813 450.402344 314.59375 446.058594 314.445313 C 438.28125 313.847656 430.777344 313.792969 423.324219 312.488281 C 418.972656 314.988281 413.425781 313.121094 409.074219 312.144531 C 407.660156 311.980469 407.117188 312.796875 408.421875 313.558594 C 415.632813 317.300781 437.585938 320.496094 446.710938 321.910156 C 448.320313 322.15625 447.890625 323.097656 446.679688 323.117188 C 427.867188 323.421875 399.921875 313.675781 385.769531 308.410156 C 381.847656 306.949219 339.320313 289.582031 333.691406 287.332031 C 300.03125 273.894531 259.285156 259.449219 221.53125 250.808594 C 177.335938 240.699219 132.046875 238.515625 82.652344 250.863281 C 82.195313 244.359375 92.5 224.1875 98.125 218.257813 C 100.082031 216.191406 99.648438 214.6875 97.441406 213.066406 C 78.066406 198.84375 45.457031 194.054688 18.617188 200.359375 C 17.945313 200.519531 17.53125 200.160156 18.175781 199.761719 C 48.855469 180.652344 97.902344 169.042969 144.6875 168.375 C 189.222656 167.738281 252.566406 184.179688 291.5 196.753906 C 321.941406 206.585938 351.761719 218.160156 383.628906 230.535156 C 423.285156 245.925781 464.601563 256.828125 497.675781 256.453125 C 498.960938 256.441406 498.976563 257.144531 497.691406 257.347656 Z M 508.808594 247.4375 C 507.632813 247.792969 507.484375 247.507813 508.574219 246.992188 C 513.949219 244.441406 524.164063 240.683594 522.867188 225.597656 C 521.878906 214.15625 510.523438 190.042969 490.878906 173.375 C 491.0625 172.898438 491.46875 172.21875 491.742188 171.617188 C 512.226563 190.246094 522.996094 212.15625 524.46875 225.253906 C 525.558594 234.914063 522.058594 243.457031 508.808594 247.4375 "/>
</g>
</svg>
