<?xml version="1.0" encoding="UTF-8"?>
<svg xmlns="http://www.w3.org/2000/svg" xmlns:xlink="http://www.w3.org/1999/xlink" width="429pt" height="632pt" viewBox="0 0 429 632" version="1.1">
<g id="surface1">
<path style=" stroke:none;fill-rule:nonzero;fill:rgb(0%,0%,0%);fill-opacity:1;" d="M 382.070313 175.886719 C 378.15625 174.46875 382.277344 171.445313 379.640625 168.976563 C 375.863281 165.421875 379.269531 160.039063 373.523438 157.015625 C 373.523438 112.3125 347.464844 89.71875 286.109375 64.207031 C 254.363281 51.007813 203.140625 30.90625 189.265625 3.003906 C 186.453125 -2.648438 185.074219 1.882813 185.042969 4.6875 C 184.976563 10.8125 188.570313 15.871094 190.816406 20.929688 C 180.996094 19.402344 165.144531 15.304688 156.960938 23.148438 C 153.964844 27.070313 162.957031 26.699219 164.953125 29.363281 C 156.308594 32.246094 122.5625 33.042969 114.558594 48.011719 C 117.558594 51.011719 123.105469 49.679688 126.324219 52.34375 C 103.027344 59.808594 76.226563 73.023438 66.019531 97.816406 C 64.164063 101.8125 68.382813 103.289063 70.605469 103.734375 C 74.527344 104.214844 32.347656 129.191406 26.648438 148.800781 C 25.6875 152.5 35.304688 150.835938 35.972656 153.242188 C 28.867188 160.789063 20.691406 172.851563 20.542969 180.214844 C 19.433594 196.085938 5.78125 207.410156 7.445313 224.726563 C -1.679688 238.410156 -1.726563 268.8125 7.222656 284.109375 C 7.113281 294.988281 8.675781 305.199219 12.453125 314.414063 C 15.1875 321.035156 18.324219 316.742188 20.765625 318.410156 C 18.542969 344.136719 23.839844 367.878906 41.300781 379.238281 C 42.964844 388.339844 47.960938 396.554688 53.289063 403.65625 C 55.65625 406.320313 59.058594 401.4375 61.835938 399.992188 C 63.5 410.207031 68.605469 418.640625 74.601563 426.632813 C 78.226563 431.109375 81.925781 421.492188 86.921875 422.304688 C 90.15625 439.703125 106.363281 466.023438 117.003906 468.925781 C 120.960938 469.777344 122.996094 456.085938 125.992188 456.714844 C 134.808594 473.085938 145.738281 481.421875 157.257813 492.121094 C 159.507813 494.214844 161.660156 494.382813 162.84375 491.570313 C 164.511719 486.796875 165.285156 481.578125 166.839844 476.695313 C 178.964844 489.386719 192.617188 498.425781 205.746094 508.789063 C 218.199219 518.621094 222.222656 521.652344 227.785156 532.726563 C 230.351563 537.832031 232.277344 538.320313 234.210938 532.1875 C 237.164063 522.8125 237.515625 512.257813 239.214844 502.78125 C 253.824219 521.660156 267.824219 546.589844 265.398438 563.589844 C 264.769531 568.011719 267.164063 570.648438 270.65625 565.863281 C 278.253906 555.457031 284.496094 524.300781 282.171875 506.554688 C 297.8125 529.859375 301.992188 555.390625 304.449219 569.09375 C 305.035156 570.710938 307.984375 570.722656 307.660156 571.34375 C 307.113281 572.375 304.160156 573.007813 305.046875 575.816406 C 309.671875 591.472656 302.476563 614.554688 284.96875 625.515625 C 279.21875 629.113281 281.054688 633.648438 287.050781 631.714844 C 320.164063 621.035156 340.675781 585.371094 340.914063 552.839844 C 340.949219 547.582031 341.117188 542.683594 342.332031 539.519531 C 345.328125 545.710938 346.347656 553.964844 345.632813 561.375 C 344.898438 569.039063 346.765625 571.363281 350.371094 562.835938 C 362.726563 533.640625 370.859375 501.453125 368.75 471.921875 C 374.597656 479.210938 378.171875 489.039063 378.929688 499.355469 C 379.472656 506.679688 382.277344 507.417969 385.84375 499.90625 C 400.410156 469.222656 400.910156 426.601563 372.527344 392.320313 C 370.636719 390.113281 368.085938 389.78125 367.085938 389.003906 C 365.902344 387.449219 368.492188 386.710938 367.183594 384.328125 C 366.503906 382.953125 359.875 375.347656 357.570313 373.585938 C 355.171875 371.726563 354.800781 373.574219 352.765625 372.578125 C 350.546875 371.355469 353.136719 368.949219 351.226563 366.789063 C 338.71875 354.082031 330.753906 347.480469 316.199219 340.878906 C 313.546875 339.351563 310.445313 340.988281 310.199219 340.691406 C 309.601563 339.972656 309.363281 337.390625 307.546875 336.136719 C 277.464844 316.222656 257.625 318.1875 248.738281 297.566406 C 234.332031 264.140625 259.871094 229.671875 294.714844 243.039063 C 297.265625 244.074219 293.566406 251.289063 298.191406 248.515625 C 302.039063 245.753906 305.363281 242.796875 310.132813 241.140625 C 320.296875 237.617188 366.042969 258.117188 382.851563 267.925781 C 398.882813 277.277344 406.355469 287.332031 407.304688 299.207031 C 407.710938 304.941406 409.492188 305.140625 413.253906 300.496094 C 442.226563 264.730469 428.445313 192.769531 382.070313 175.886719 Z M 314.890625 114.859375 C 328.476563 126.460938 334.601563 142.9375 334.722656 159.714844 C 334.730469 160.773438 334.046875 160.890625 333.804688 159.882813 C 329.988281 143.980469 324.925781 127.910156 314.46875 115.5625 C 313.515625 114.4375 313.847656 113.972656 314.890625 114.859375 Z M 324.859375 167.703125 C 325.113281 168.949219 324.527344 169.214844 323.984375 168.097656 C 315.03125 149.730469 302.441406 131.703125 296.265625 111.503906 C 311.140625 126.902344 320.578125 146.847656 324.859375 167.703125 Z M 308.03125 157.015625 C 304.53125 164.96875 293.007813 160.632813 288.015625 153.980469 C 283.742188 148.289063 281.980469 140.042969 282.726563 133.59375 C 283.019531 131.78125 283.761719 131.78125 284.5 133.261719 C 287.640625 147.058594 296.507813 159.726563 308.03125 157.015625 Z M 297.0625 144.453125 C 297.0625 143.226563 297.941406 142.230469 299.023438 142.230469 C 300.105469 142.230469 300.984375 143.226563 300.984375 144.453125 C 300.984375 145.679688 300.105469 146.675781 299.023438 146.675781 C 297.941406 146.675781 297.0625 145.679688 297.0625 144.453125 Z M 312.25 157.238281 C 313.359375 155.832031 314.285156 157.3125 313.804688 158.570313 C 302.832031 177.558594 283.160156 178.820313 275.632813 165.964844 C 270.890625 157.871094 271.265625 149.808594 272.078125 138.636719 C 272.144531 137.679688 273.023438 137.523438 273.328125 138.464844 C 275.890625 146.363281 275.875 155.660156 280.097656 162.613281 C 285.957031 172.269531 298.53125 172.953125 312.25 157.238281 Z M 299.484375 130.929688 C 301.335938 130.671875 302.261719 133.261719 300.484375 133.59375 C 291.050781 134.585938 274.113281 127.742188 264.203125 115.054688 C 263.367188 113.984375 263.890625 113.410156 264.910156 114.230469 C 276.964844 123.914063 289.140625 131.289063 299.484375 130.929688 Z M 242.765625 185.210938 C 235.289063 187.097656 226.039063 206.152344 224.117188 206.519531 C 220.980469 207.195313 216.964844 188.320313 221.027344 181.164063 C 221.421875 180.46875 222.367188 180.523438 222.320313 181.175781 C 221.871094 187.574219 221.34375 200.246094 223.5625 200.75 C 227.667969 197.863281 236.03125 178.03125 245.652344 183.101563 C 245.316406 187.429688 246.058594 192.570313 245.28125 197.457031 C 245.652344 200.75 250.535156 193.273438 251.015625 195.421875 C 253.4375 202.886719 259.179688 211.671875 267.003906 214.636719 C 267.785156 214.933594 267.714844 216.566406 266.726563 216.421875 C 255.085938 215.03125 250.277344 203.746094 248.535156 200.972656 C 247.871094 200.082031 243.765625 209.960938 242.210938 204.410156 C 242.097656 198.863281 244.207031 184.875 242.765625 185.210938 Z M 209.6875 170.113281 C 207.46875 169.113281 205.507813 175.8125 204.582031 171.445313 C 203.65625 165.082031 206.246094 156.386719 210.464844 153.574219 C 210.464844 157.902344 208.222656 162.121094 207.445313 166.117188 C 208.855469 167.855469 211.242188 166.5625 212.351563 166.894531 C 214.386719 167.117188 213.054688 173.738281 213.832031 174.515625 C 215.679688 175.625 219.453125 172.445313 223.007813 173 C 227.152344 173.222656 213.460938 181.546875 210.796875 181.769531 C 207.800781 177.4375 213.238281 172.886719 209.6875 170.113281 Z M 227.558594 316.632813 C 229.1875 317.890625 230.296875 318.261719 230.777344 315.746094 C 231.460938 311.144531 231.199219 306.113281 232.496094 301.789063 C 232.671875 301.210938 233.714844 301.234375 233.644531 301.796875 C 232.640625 309.683594 233.191406 317.660156 233.441406 325.402344 C 227.152344 322.144531 221.84375 313.183594 218.003906 305.898438 C 217.273438 304.519531 218.53125 303.242188 219.527344 305.046875 C 221.738281 309.070313 224.027344 313.472656 227.558594 316.632813 Z M 223.132813 261.484375 C 223.238281 256.335938 225.925781 245.148438 227.789063 242.480469 C 228.28125 241.621094 229.53125 241.941406 229.222656 242.898438 C 227.558594 247.464844 225.046875 256.339844 223.742188 261.617188 C 223.574219 262.296875 223.113281 262.324219 223.132813 261.484375 Z M 231.449219 278.050781 C 231.628906 269.46875 235.621094 254.527344 238.726563 250.082031 C 239.546875 248.648438 241.628906 249.183594 241.117188 250.78125 C 238.34375 258.386719 234.640625 269.476563 232.464844 278.269531 C 232.183594 279.40625 231.417969 279.453125 231.449219 278.050781 Z M 243.765625 346.160156 C 243.800781 343.789063 247.316406 344.9375 247.761719 342.941406 C 247.085938 340.011719 246.410156 337.539063 245.527344 335.011719 C 245.105469 333.800781 245.5625 333.230469 246.261719 334.320313 C 248.410156 337.667969 250.28125 341.667969 251.199219 345.605469 C 250.757813 347.269531 246.761719 346.566406 247.761719 348.824219 C 251.976563 360.699219 252.644531 376.351563 247.203125 388.007813 C 240.101563 384.675781 232.109375 374.132813 228.113281 364.808594 C 225.871094 362.835938 224.574219 367.835938 222.8125 366.074219 C 221.039063 364.300781 218.945313 359.078125 220.121094 357.59375 C 221.972656 355.632813 223.082031 364.882813 228.113281 358.367188 C 231.410156 363.949219 235.496094 371.378906 239.742188 377.578125 C 242.667969 381.855469 245.820313 379.960938 246.289063 374.863281 C 246.664063 370.746094 245.761719 351.152344 243.765625 346.160156 Z M 217.71875 324.179688 C 215.875 338.132813 208.644531 374.140625 206.800781 384.230469 C 203.839844 383.566406 201.527344 381.621094 199.898438 379.425781 C 197.285156 375.90625 198.289063 374.945313 201.753906 378.441406 C 203.984375 380.699219 205.546875 379.617188 205.964844 373.582031 C 206.359375 367.953125 212.394531 337.546875 216.359375 323.925781 C 217 321.726563 218.09375 321.351563 217.71875 324.179688 Z M 211.574219 317.410156 C 204.949219 314.191406 198.917969 286.8125 202.472656 286.21875 C 203.558594 290.496094 204.5625 304.84375 209.464844 310.972656 C 211.242188 312.894531 212.164063 308.824219 213.683594 308.308594 C 214.015625 312.339844 213.90625 315.078125 211.574219 317.410156 Z M 151.152344 326.28125 C 152.015625 331.078125 159.941406 321.074219 159.886719 325.144531 C 159.886719 332.726563 160.40625 358.023438 163.769531 358.996094 C 165.535156 359.507813 168.210938 355.113281 169.136719 356.222656 C 169.875 357.886719 167.566406 359.933594 164.800781 361.472656 C 155.335938 366.359375 158.828125 330.195313 156.703125 329.695313 C 153.667969 329.359375 151.449219 334.835938 148.710938 332.136719 C 146.085938 329.285156 148.117188 311.230469 153.816406 306.496094 C 154.410156 310.859375 150.042969 319.066406 151.152344 326.28125 Z M 148.339844 297.726563 C 143.699219 301.042969 142.703125 299 146.707031 296.269531 C 154.59375 290.894531 172.875 271.089844 178.066406 262.144531 C 179.554688 259.578125 180.734375 259.722656 179.050781 263.019531 C 173.527344 273.84375 156.355469 291.996094 148.339844 297.726563 Z M 124.070313 270.1875 C 124.933594 274.984375 132.859375 264.980469 132.800781 269.050781 C 132.800781 276.632813 133.320313 301.933594 136.6875 302.90625 C 138.449219 303.414063 141.125 299.019531 142.050781 300.132813 C 142.789063 301.796875 140.480469 303.84375 137.71875 305.382813 C 128.25 310.269531 131.746094 274.101563 129.617188 273.601563 C 126.585938 273.269531 124.363281 278.746094 121.628906 276.042969 C 119 273.195313 121.035156 255.140625 126.734375 250.402344 C 127.324219 254.769531 122.960938 262.972656 124.070313 270.1875 Z M 118.554688 239.859375 C 112.609375 239.941406 111.628906 237.5625 112.105469 232.597656 C 112.914063 224.230469 116.171875 214.855469 121.304688 207.105469 C 122.105469 205.898438 122.84375 206.285156 122.3125 207.882813 C 119.273438 217.035156 116.640625 228.683594 116.5625 231.640625 C 116.484375 234.753906 119.070313 236 122.5625 235.347656 C 136.617188 232.714844 152.867188 223.792969 164.039063 215.722656 C 165.300781 214.8125 165.902344 215.25 164.601563 216.589844 C 157.054688 224.378906 139.382813 238.191406 118.554688 239.859375 Z M 68.199219 248.15625 C 68.613281 250.082031 69.921875 251.277344 72.089844 251.140625 C 75.039063 250.957031 92.613281 244.4375 101.648438 241.0625 C 103.226563 240.472656 103.636719 241.195313 102.460938 242.039063 C 94.90625 247.457031 79.628906 254.515625 71.296875 255.632813 C 66.355469 256.292969 64.902344 255.363281 64.765625 249.417969 C 65.308594 236.832031 66.605469 230.921875 68.683594 226.496094 C 70.054688 223.582031 71.554688 224.753906 70.710938 226.96875 C 68.796875 232.003906 68.015625 247.320313 68.199219 248.15625 Z M 74.6875 191.390625 C 76.253906 191.363281 87.128906 189.558594 91.105469 188.238281 C 91.988281 187.941406 92.277344 189.199219 91.523438 189.578125 C 84.671875 193.054688 78.128906 196.074219 70.355469 196.941406 C 67.945313 197.210938 66.089844 195.484375 66.605469 192.894531 C 69.609375 177.839844 74.578125 154.867188 85.257813 144.804688 C 86.441406 143.6875 87.429688 144.511719 86.632813 145.351563 C 78.191406 154.28125 74.710938 174.332031 70.828125 186.910156 C 70 190.5625 72.074219 191.4375 74.6875 191.390625 Z M 148.132813 140.265625 C 132.4375 151.519531 116.503906 169.859375 109.292969 188.128906 C 106.507813 195.1875 110.972656 195.875 115.113281 194.753906 C 125.523438 191.929688 135.371094 187.328125 144.410156 181.292969 C 146.492188 179.90625 147.6875 180.570313 145.601563 182.6875 C 138.566406 189.835938 121.582031 198.617188 108.914063 201.425781 C 104.992188 202.292969 102.175781 200.910156 102.769531 196.734375 C 106.585938 169.910156 135.160156 144.464844 147.207031 138.660156 C 151.15625 136.761719 151.726563 137.6875 148.132813 140.265625 Z M 162 184.777344 C 163.410156 183.914063 164.171875 185.386719 162.957031 186.539063 C 156.863281 191.871094 147.367188 202.183594 141.226563 208.847656 C 140.433594 209.703125 139.742188 209.378906 140.441406 208.164063 C 144.730469 200.726563 157.136719 187.179688 162 184.777344 Z M 144.140625 160.175781 C 139.875 163.910156 133.226563 171.128906 128.929688 175.789063 C 128.375 176.390625 127.890625 176.160156 128.382813 175.3125 C 131.382813 170.105469 140.066406 160.625 143.472656 158.941406 C 144.457031 158.339844 144.992188 159.367188 144.140625 160.175781 Z M 111.4375 150.113281 C 108.449219 152.726563 103.796875 157.78125 100.789063 161.046875 C 100.402344 161.464844 100.0625 161.304688 100.40625 160.710938 C 102.507813 157.066406 107.78125 150.429688 110.164063 149.253906 C 110.855469 148.828125 112.03125 149.550781 111.4375 150.113281 Z M 113.820313 203.117188 C 115.230469 202.253906 116.316406 203.722656 115.097656 204.878906 C 109.003906 210.210938 100.152344 218.589844 94.011719 225.253906 C 93.222656 226.109375 92.53125 225.785156 93.230469 224.570313 C 97.515625 217.132813 108.960938 205.519531 113.820313 203.117188 Z M 102.875 275.144531 C 103.703125 266.601563 109.570313 248.347656 113.007813 244.148438 C 113.929688 242.78125 115.964844 243.472656 115.335938 245.027344 C 111.992188 252.402344 106.707031 266.835938 103.871094 275.441406 C 103.503906 276.550781 102.738281 276.539063 102.875 275.144531 Z M 166.96875 228.054688 C 168.105469 226.851563 170 227.867188 169.125 229.296875 C 164.625 236.027344 157.054688 249.40625 152.851563 257.433594 C 152.308594 258.46875 151.558594 258.332031 151.917969 256.980469 C 154.128906 248.683594 162.894531 231.632813 166.96875 228.054688 Z M 169.273438 206.675781 C 163.023438 200.746094 166.121094 191.769531 168.730469 187.675781 C 169.308594 186.773438 170.011719 187.21875 169.890625 188.03125 C 169.105469 193.214844 168.792969 200.460938 172.132813 204.957031 C 174.035156 207.152344 179.324219 209.386719 183.082031 211.210938 C 184.21875 211.761719 183.964844 212.476563 182.929688 212.296875 C 178.035156 211.445313 172.574219 209.808594 169.273438 206.675781 Z M 189.152344 74.652344 C 198.476563 73.507813 216.730469 73.050781 218.269531 73.085938 C 225.519531 73.238281 234.789063 74.230469 243.847656 78.972656 C 245.34375 79.753906 245.347656 80.632813 243.742188 80.210938 C 229.605469 76.464844 209.734375 76.722656 196.367188 76.539063 C 194.480469 77.871094 197.144531 84.53125 197.144531 86.195313 C 188.265625 87.527344 180.273438 83.867188 172.390625 83.199219 C 169.945313 87.917969 181.375 98.5625 188.589844 105.398438 C 189.816406 106.5625 189.179688 107.238281 187.875 106.535156 C 176.894531 100.636719 166.976563 91.660156 169.171875 80.3125 C 171.097656 78.6875 185.601563 82.757813 192.925781 83.3125 C 193.664063 82.015625 190.261719 77.648438 189.152344 74.652344 Z M 251.34375 109.753906 C 244.652344 104.820313 210.5 83.496094 196.144531 113.28125 C 193.480469 113.945313 185.664063 112.0625 186.265625 114.390625 C 187.152344 118.496094 191.816406 118.089844 193.703125 121.828125 C 194.589844 124.011719 190.371094 121.605469 189.929688 123.714844 C 189.816406 125.933594 195.8125 128.820313 196.589844 129.597656 C 196.8125 130.375 195.8125 130.929688 195.257813 131.152344 C 194.257813 131.484375 187.191406 127.378906 184.972656 124.382813 C 184.046875 122.53125 189.707031 121.605469 189.707031 120.828125 C 186.378906 117.496094 181.9375 115.5 180.9375 111.503906 C 183.304688 109.765625 193.246094 113.582031 199.140625 104.101563 C 209.488281 88.445313 231.695313 92.382813 252.617188 108.554688 C 253.480469 109.222656 252.480469 110.589844 251.34375 109.753906 Z M 254.753906 114.167969 C 256.890625 114.253906 258.277344 115.222656 258.75 116.277344 C 245.332031 116.128906 232.621094 127.007813 230.519531 138.078125 C 230.347656 138.988281 229.597656 139.179688 229.382813 138.390625 C 225.257813 123.109375 245.394531 114.203125 254.753906 114.167969 Z M 225.671875 139.921875 C 222.269531 146.722656 194.328125 142.515625 187.820313 134.148438 C 189.152344 132.59375 191.816406 131.410156 193.703125 132.484375 C 194.222656 140.847656 217.636719 140.574219 225.671875 139.921875 Z M 180.160156 186.097656 C 174.425781 173.222656 182.824219 164.5625 179.273438 162.34375 C 177.828125 162.566406 176.277344 162.898438 174.832031 163.121094 C 172.097656 157.484375 177.601563 150.125 183.929688 146.128906 C 184.953125 145.480469 185.484375 146.214844 184.640625 147.171875 C 180.328125 152.042969 175.503906 158.003906 179.273438 159.679688 C 180.492188 160.011719 181.9375 159.902344 183.269531 159.902344 C 186.265625 163.601563 181.605469 173.332031 182.492188 181.214844 C 183.492188 184.320313 186.449219 180.066406 188.375 181.546875 C 190.152344 184.136719 190.707031 201.859375 194.480469 207.851563 C 196.8125 210.222656 199.585938 200.75 202.472656 199.640625 C 204.949219 199.121094 205.320313 203.375 203.582031 203.855469 C 200.511719 205.597656 198.808594 211.070313 196.367188 213.179688 C 186.449219 209.664063 188.300781 185.984375 186.488281 185.46875 C 184.085938 184.855469 181.972656 189.785156 180.160156 186.097656 Z M 263.1875 152.796875 C 261.523438 153.464844 260.082031 174.699219 257.859375 179.105469 C 252.496094 177.105469 246.316406 166.117188 245.097656 157.015625 C 244.726563 154.351563 240.839844 159.53125 240.101563 155.90625 C 239.988281 153.90625 238.214844 149.578125 236.328125 149.578125 C 233.21875 150.242188 228.632813 161.75 228.074219 152.6875 C 227.742188 149.910156 228.445313 148.984375 230.664063 150.097656 C 233.664063 151.648438 238.992188 140.105469 239.914063 145.472656 C 240.65625 148.246094 242.988281 153.574219 246.207031 151.574219 C 247.203125 150.6875 252.3125 172.296875 256.335938 173.066406 C 258.714844 173.203125 258.34375 155.054688 262.117188 148.617188 C 264.519531 148.105469 269.292969 153.90625 268.296875 155.90625 C 266.628906 154.90625 265.410156 152.6875 263.1875 152.796875 Z M 200.378906 26.875 C 211.078125 35.160156 223.625 42.269531 236.1875 48.722656 C 243.496094 52.445313 269.464844 62.871094 278.351563 67.121094 C 280.261719 68.039063 279.054688 68.394531 277.8125 68.082031 C 254.890625 62.367188 211.824219 41.980469 199.757813 27.484375 C 199.027344 26.609375 199.546875 26.230469 200.378906 26.875 Z M 162.84375 24.59375 C 169.617188 23.1875 178.390625 25.699219 185.15625 32.027344 C 182.9375 32.695313 177.757813 33.273438 179.273438 35.714844 C 186.488281 38.710938 193.8125 42.574219 198.808594 48.898438 C 196.144531 49.898438 192.816406 49.679688 189.929688 50.453125 C 188.484375 51.121094 188.820313 52.230469 189.484375 53.117188 C 194.8125 58.003906 204.582031 63.144531 205.136719 68.882813 C 197.476563 61.222656 188.375 54.5625 178.273438 51.5625 C 181.160156 47.789063 189.734375 48.386719 191.816406 46.679688 C 186.378906 41.90625 180.605469 39.019531 173.945313 35.804688 C 173.78125 34.699219 175.144531 33.65625 175.992188 32.71875 C 178.3125 29.660156 166.507813 27.253906 162.84375 24.59375 Z M 170.160156 102.617188 C 171.433594 102.523438 172 103.730469 170.820313 104.246094 C 167.296875 105.796875 163.675781 107.316406 161.179688 110.394531 C 161.402344 113.171875 166.839844 112.539063 165.730469 114.390625 C 163.179688 117.832031 159.292969 119.828125 158.515625 124.269531 C 162.289063 125.378906 165.914063 127.15625 168.617188 129.042969 C 168.285156 131.484375 159.8125 142.511719 156.851563 152.6875 C 152.742188 167.570313 154.519531 177.191406 160.167969 175.402344 C 162.765625 174.582031 163.769531 177 161.800781 178.332031 C 159.765625 179.710938 155.785156 180.101563 154.757813 179.640625 C 149.363281 177.238281 150.128906 147.703125 162.289063 133.59375 C 166.285156 129.191406 158.035156 129.265625 155 125.859375 C 152.671875 122.976563 160.097656 116.898438 161.429688 115.789063 C 160.652344 113.015625 156.628906 113.503906 154.851563 111.503906 C 159.191406 106.289063 163.296875 103.105469 170.160156 102.617188 Z M 126.308594 47.238281 C 127.992188 47.09375 134.171875 46.792969 136.648438 49.121094 C 134.761719 53.007813 133.875 57.335938 133.539063 61.886719 C 134.316406 64.328125 153.519531 62.960938 162.84375 66.660156 C 165.175781 67.585938 160.519531 72.035156 159.257813 74.429688 C 157.886719 77.769531 158.828125 79.132813 160.402344 80.3125 C 158.886719 81.460938 153.890625 79.609375 154.519531 77.871094 C 155.296875 75.207031 159.625 70.175781 158.410156 68.890625 C 156.773438 67.757813 135.390625 67.03125 129.546875 64.550781 C 128.769531 59.335938 131.53125 56.488281 132.085938 51.828125 C 131.753906 50.089844 129.257813 49.519531 126.546875 49.121094 C 121.941406 48.402344 123.390625 47.492188 126.308594 47.238281 Z M 128.851563 99.277344 C 136.316406 101.441406 137.398438 105.417969 123.519531 101.386719 C 120.222656 100.332031 119.890625 97.371094 120.40625 94.78125 C 123.179688 82.757813 124.53125 78.757813 135.207031 68.695313 C 136.390625 67.578125 138.015625 69.070313 137.222656 69.910156 C 128.777344 78.839844 127.992188 81.460938 124.105469 92.5625 C 123.660156 96.519531 124.289063 97.925781 128.851563 99.277344 Z M 109.078125 75.421875 C 114.527344 72.316406 119.960938 68.640625 125.992188 66.992188 C 128.730469 66.289063 130.988281 67.214844 130.878906 69.101563 C 122.601563 70.957031 116.453125 73.984375 109.414063 76.21875 C 108.164063 76.613281 107.914063 76.089844 109.078125 75.421875 Z M 118.828125 103.820313 C 115.84375 106.433594 111.996094 110.199219 108.984375 113.464844 C 108.597656 113.882813 108.261719 113.722656 108.601563 113.128906 C 110.703125 109.484375 115.175781 104.136719 117.558594 102.957031 C 118.246094 102.535156 119.425781 103.253906 118.828125 103.820313 Z M 106.714844 138.625 C 110.1875 121.226563 135.3125 100.746094 154.996094 98.632813 C 157.132813 98.40625 157.441406 99.746094 155.332031 100.382813 C 129.5625 108.164063 118.945313 123.664063 113.5625 134.1875 C 110.046875 141.054688 122.378906 141.515625 128.671875 141.710938 C 132.429688 141.585938 132.390625 143.796875 129.644531 145.1875 C 124.203125 147.808594 104.785156 147.3125 106.714844 138.625 Z M 78.382813 137.511719 C 81.386719 122.457031 92.707031 109.835938 103.382813 99.773438 C 104.566406 98.65625 104.914063 99.480469 104.117188 100.320313 C 95.671875 109.25 89.5625 120.1875 83.960938 131.128906 C 82.1875 134.597656 83.851563 136.054688 86.464844 136.007813 C 88.03125 135.980469 98.90625 134.175781 102.878906 132.855469 C 103.765625 132.5625 104.054688 133.816406 103.300781 134.195313 C 96.449219 137.671875 89.90625 140.691406 82.132813 141.558594 C 79.71875 141.828125 77.867188 140.101563 78.382813 137.511719 Z M 43.296875 165.835938 C 46.300781 150.785156 59.390625 138.160156 70.066406 128.101563 C 71.253906 126.984375 71.917969 127.804688 71.121094 128.648438 C 62.679688 137.574219 54.476563 148.515625 48.875 159.457031 C 47.101563 162.925781 48.765625 165.1875 51.375 165.140625 C 52.945313 165.109375 63.820313 164.433594 67.792969 163.113281 C 68.679688 162.816406 68.964844 164.074219 68.214844 164.453125 C 61.363281 167.929688 54.820313 169.015625 47.042969 169.886719 C 44.632813 170.15625 42.78125 168.425781 43.296875 165.835938 Z M 51.542969 179.355469 C 52.71875 177.898438 53.222656 178.441406 52.476563 179.804688 C 45.835938 191.882813 42.003906 206.128906 41.109375 220.402344 C 40.890625 223.945313 42.445313 226.359375 45.523438 225.902344 C 56.566406 224.257813 74.070313 205.886719 84.339844 201.011719 C 85.855469 200.289063 86.332031 200.976563 85.230469 201.917969 C 72.863281 212.496094 62.082031 226.671875 45.121094 230.445313 C 40.25 231.527344 38.726563 230.726563 38.078125 224.8125 C 37.1875 203.9375 44.738281 187.796875 51.542969 179.355469 Z M 23.207031 188.207031 C 24.433594 190.746094 23.585938 195.636719 25.519531 198.566406 C 27.441406 201.480469 30.535156 201.101563 35.75 200.195313 C 36.914063 200.066406 37.015625 201.09375 36.179688 201.980469 C 34.570313 203.6875 23.433594 206.804688 22.011719 201.070313 C 21.136719 197.539063 22.027344 191.828125 23.207031 188.207031 Z M 22.226563 208.71875 C 23.253906 206.890625 25.289063 206.871094 24.28125 209.0625 C 19.148438 220.230469 15.199219 232.394531 16.816406 245.789063 C 17.183594 248.839844 15.386719 248.785156 15 245.933594 C 13.277344 233.207031 16.011719 219.824219 22.226563 208.71875 Z M 20.609375 312.667969 C 16.203125 314.511719 15.125 312.800781 14 307.84375 C 10.261719 291.371094 7.308594 260.25 13.839844 259.019531 C 12.023438 268.253906 12.054688 290.339844 16.753906 306.863281 C 17.152344 308.261719 17.625 310.238281 20.609375 309.152344 C 25.214844 306.605469 25.230469 310.738281 20.609375 312.667969 Z M 19.160156 274 C 16.886719 253.230469 23.351563 238.558594 29.582031 229.679688 C 30.65625 228.152344 31.199219 228.660156 30.539063 230.070313 C 24.714844 242.558594 21.839844 257.03125 21.894531 271.332031 C 21.90625 274.882813 28.167969 275.324219 36.585938 270.617188 C 38.054688 269.800781 38.570313 270.449219 37.535156 271.464844 C 30.890625 277.960938 20.199219 279.859375 19.160156 274 Z M 49.566406 391.984375 C 42.625 378.976563 41.597656 356 44.710938 342.894531 C 45.296875 340.277344 46.304688 340.359375 46.160156 342.519531 C 45.125 357.796875 47.367188 377.574219 50.640625 391.46875 C 50.941406 392.75 50.171875 393.113281 49.566406 391.984375 Z M 42.519531 335.652344 C 38.113281 337.492188 37.035156 335.785156 35.910156 330.824219 C 32.171875 314.355469 29.21875 283.234375 35.75 282 C 33.9375 291.234375 33.964844 313.320313 38.664063 329.84375 C 39.066406 331.246094 39.535156 333.21875 42.519531 332.136719 C 47.128906 329.585938 46.515625 331.558594 50.847656 328.25 C 52.285156 330.785156 47.140625 333.71875 42.519531 335.652344 Z M 52.027344 292.628906 C 47.371094 294.414063 45.746094 293.84375 44.238281 288.089844 C 40.300781 267.570313 45.40625 250.5 50.90625 241.152344 C 51.851563 239.539063 52.433594 240.003906 51.890625 241.460938 C 47.089844 254.378906 45.386719 269.035156 46.59375 283.285156 C 46.890625 286.824219 48.785156 288.984375 51.761719 288.078125 C 54.59375 287.21875 65.121094 281.578125 73.132813 276.210938 C 74.53125 275.273438 75.097656 275.882813 74.148438 276.976563 C 68.046875 283.984375 59.878906 289.621094 52.027344 292.628906 Z M 71.292969 414.039063 C 64.351563 401.03125 64.164063 383.027344 65.011719 368.5625 C 65.125 366.636719 67.089844 366.027344 66.941406 368.1875 C 65.910156 383.464844 69.09375 399.628906 72.363281 413.523438 C 72.664063 414.804688 71.894531 415.167969 71.292969 414.039063 Z M 67.832031 361.445313 C 63.304688 362.976563 60.070313 361.964844 59.292969 356.9375 C 56.714844 340.246094 56.011719 306.75 62.613281 305.976563 C 60.15625 315.0625 58.578125 339.339844 62.113281 356.152344 C 62.410156 357.578125 64.109375 359.644531 67.164063 358.773438 C 71.9375 356.554688 77.042969 355.816406 81.59375 352.820313 C 82.851563 355.445313 72.574219 359.84375 67.832031 361.445313 Z M 84.023438 328.511719 C 76.601563 308.980469 78.683594 291.28125 82.484375 281.125 C 83.140625 279.375 83.792969 279.730469 83.511719 281.261719 C 81.011719 294.8125 81.863281 309.542969 85.511719 323.371094 C 86.417969 326.804688 88.652344 328.605469 91.433594 327.199219 C 94.070313 325.867188 103.46875 318.492188 110.433594 311.820313 C 111.648438 310.660156 112.3125 311.160156 111.566406 312.398438 C 106.765625 320.359375 99.691406 327.320313 92.480469 331.636719 C 88.199219 334.199219 86.5 333.921875 84.023438 328.511719 Z M 96.765625 438.84375 C 89.824219 425.832031 87.921875 411.722656 88.769531 397.257813 C 88.882813 395.328125 90.363281 394.722656 90.21875 396.882813 C 89.183594 412.15625 94.566406 424.433594 97.835938 438.324219 C 98.136719 439.609375 97.367188 439.972656 96.765625 438.84375 Z M 104.054688 396.769531 C 99.839844 399.015625 96.484375 398.546875 94.898438 393.714844 C 89.625 377.667969 83.457031 344.738281 89.84375 342.898438 C 88.90625 352.261719 91.3125 376.46875 97.546875 392.480469 C 98.078125 393.835938 100.089844 395.601563 102.960938 394.242188 C 107.304688 391.269531 112.082031 388.746094 116.222656 386.007813 C 117.894531 388.394531 108.472656 394.410156 104.054688 396.769531 Z M 131.359375 455.679688 C 122.046875 444.246094 116.066406 415.3125 114.117188 400.957031 C 113.855469 399.042969 115.191406 398.160156 115.464844 400.308594 C 117.390625 415.5 126.429688 441.960938 132.3125 454.964844 C 132.855469 456.164063 132.167969 456.671875 131.359375 455.679688 Z M 140.214844 435.492188 C 132.65625 422.972656 128.855469 408.960938 126.90625 394.605469 C 126.644531 392.691406 128.851563 390.882813 129.121094 393.03125 C 131.046875 408.21875 135.605469 421.773438 141.488281 434.777344 C 142.03125 435.980469 141.980469 438.324219 140.214844 435.492188 Z M 137.425781 383.9375 C 133.210938 386.183594 127.914063 383.589844 126.324219 378.757813 C 121.054688 362.710938 118.785156 313.78125 125.171875 311.941406 C 124.230469 321.304688 124.023438 361.453125 130.257813 377.460938 C 132.109375 380.421875 134 381.410156 136.871094 380.050781 C 141.21875 377.082031 144.527344 374.5 148.527344 370.800781 C 149.265625 374.871094 142.695313 381.125 137.425781 383.9375 Z M 162.03125 445.171875 C 152.71875 433.738281 149.546875 416.015625 147.597656 401.65625 C 147.335938 399.746094 148.671875 398.863281 148.945313 401.011719 C 150.867188 416.203125 157.101563 431.453125 162.984375 444.457031 C 163.527344 445.65625 162.839844 446.164063 162.03125 445.171875 Z M 176.464844 412.511719 C 169.835938 415.933594 172.28125 390.617188 170.792969 390.269531 C 168.671875 390.035156 167.117188 393.867188 165.199219 391.976563 C 163.359375 389.984375 164.785156 377.34375 168.773438 374.027344 C 169.1875 377.085938 166.132813 382.828125 166.910156 387.878906 C 167.511719 391.234375 173.0625 384.234375 173.019531 387.082031 C 173.019531 392.390625 173.386719 410.097656 175.742188 410.78125 C 176.976563 411.136719 178.847656 408.0625 179.496094 408.839844 C 180.015625 410.003906 178.398438 411.4375 176.464844 412.511719 Z M 180.910156 283.164063 C 180.304688 292.234375 175.746094 310.207031 171.613281 317.019531 C 168.65625 321.898438 166.933594 320.414063 169.539063 316.328125 C 174.671875 308.28125 178.414063 293.019531 179.660156 282.75 C 180.019531 279.804688 181.15625 279.472656 180.910156 283.164063 Z M 179.449219 248.007813 C 176.820313 245.15625 178.855469 227.101563 184.554688 222.367188 C 185.148438 226.730469 180.78125 234.132813 181.890625 241.347656 C 182.558594 245.046875 190.511719 236.90625 190.4375 242.125 C 190.4375 249.707031 191.09375 271.617188 194.457031 272.589844 C 196.222656 273.101563 198.640625 269.277344 199.207031 271.09375 C 199.945313 273.535156 198.304688 275.804688 195.539063 277.34375 C 186.070313 282.230469 189.566406 246.066406 187.441406 245.566406 C 184.40625 245.230469 182.1875 250.707031 179.449219 248.007813 Z M 185.898438 340.390625 C 183.609375 337.265625 187.65625 319.550781 193.851563 315.484375 C 193.949219 319.890625 188.6875 327.554688 188.980469 334.847656 C 189.300781 339.710938 198.300781 330.660156 197.785156 334.695313 C 197.0625 341.105469 195.273438 360.28125 196.742188 366.703125 C 198.820313 375.796875 195.75 378.347656 193.722656 366.753906 C 192.144531 357.75 195.585938 339.390625 194.113281 338.863281 C 191.136719 338.191406 188.316406 343.382813 185.898438 340.390625 Z M 252.390625 514 C 244.503906 501.921875 229 488.648438 232.421875 471.644531 C 232.917969 469.171875 231.855469 465.203125 229.890625 466.261719 C 227.667969 467.816406 226.78125 470.921875 224.339844 472.144531 C 218.0625 467.570313 213.664063 460.160156 212.839844 452.535156 C 212.535156 448.6875 214.941406 439.992188 212.574219 438.289063 C 208.910156 436.402344 205.988281 446.058594 203.65625 439.066406 C 203.210938 436.957031 185.15625 389.300781 187.265625 383.675781 C 191.585938 383.675781 203.410156 430.238281 204.679688 433.792969 C 206.601563 439.175781 209.5625 436.347656 210.746094 434.40625 C 213.089844 430.570313 213.660156 425.492188 215.570313 421.304688 C 219.9375 422.230469 215.539063 450.21875 217.601563 454.109375 C 219.273438 457.265625 223.042969 466.703125 226.636719 463.757813 C 228.722656 462.046875 232.554688 449.832031 233.441406 446.613281 C 238.25 447.207031 233.421875 477.03125 238.152344 485.476563 C 243.378906 494.796875 250.320313 504.015625 253.34375 513.277344 C 253.796875 514.660156 253.144531 515.152344 252.390625 514 Z M 314.242188 574.28125 C 312.25 578.480469 313.175781 595.019531 309.808594 597.90625 C 310.253906 593.246094 309.191406 575.875 309.757813 574.71875 C 310.980469 572.238281 316.589844 568.019531 315.148438 566.5 C 314.097656 565.011719 310.734375 566.164063 308.808594 566.714844 C 302.457031 528.605469 285.652344 505.089844 274.695313 487.164063 C 260.503906 463.949219 238.003906 427.84375 237.933594 414.644531 C 237.929688 413.539063 240.65625 406.691406 238.066406 405.765625 C 235.179688 405.210938 234.550781 412.980469 232.554688 408.207031 C 228.667969 398.996094 224.007813 389.894531 220.566406 380.789063 C 218.824219 377.277344 219.679688 374.6875 221.601563 377.90625 C 225.265625 386.5625 228.445313 393.1875 231.777344 402.066406 C 233.441406 405.765625 236.675781 403.125 237.925781 400.925781 C 239.257813 398.585938 241.378906 397.066406 241.976563 402.878906 C 242.421875 408.070313 241.109375 413.953125 241.921875 419.277344 C 243.628906 430.40625 267.886719 469.792969 284.277344 496.898438 C 285.054688 498.007813 286.277344 497.230469 286.941406 496.675781 C 289.605469 492.347656 289.273438 486.796875 291.492188 482.246094 C 293.75 486.242188 290.929688 492.65625 289.605469 500.449219 C 291.382813 504.445313 292.382813 509.441406 294.933594 512.660156 C 297.636719 516.210938 300.410156 495.675781 303.148438 495.566406 C 304.480469 500.117188 301.371094 513.214844 298.929688 521.429688 C 304.851563 534.339844 309.105469 558.945313 310.976563 561.5625 C 314.640625 559.785156 316.46875 557.945313 318.355469 554.171875 C 321.132813 559.132813 316.976563 568.046875 314.242188 574.28125 Z M 335.972656 527.730469 C 332.097656 516.039063 322.503906 474.320313 314.65625 469.035156 C 308.21875 465.09375 302.230469 464.351563 301.039063 459.933594 C 304.589844 460.121094 313.621094 458.949219 311.953125 455.230469 C 311.039063 453.191406 297.488281 444.171875 292.269531 440.953125 C 293.011719 438.511719 300.226563 439.621094 300.957031 437.398438 C 301.671875 433.601563 285.347656 412.421875 270.882813 400.3125 C 270.203125 399.742188 270.390625 398.785156 271.167969 399.042969 C 273.503906 399.8125 275.898438 401.519531 278.394531 402.101563 C 281.355469 402.621094 279.316406 399.035156 278.246094 397.328125 C 274.726563 393.105469 270.832031 388.085938 268.742188 383.496094 C 268.199219 382.300781 268.90625 381.84375 269.601563 382.761719 C 283.023438 400.550781 296.527344 419.875 305.8125 439.398438 C 306.699219 441.65625 303.355469 443 302.816406 444.640625 C 302.460938 447.148438 308.367188 446.464844 309.808594 447.945313 C 313.027344 451.609375 315.027344 455.828125 316.800781 460.15625 C 317.800781 462.5625 312.65625 460.933594 312.992188 464.039063 C 313.546875 466.519531 317.984375 464.597656 319.6875 467.371094 C 328.214844 486.214844 334.246094 506.058594 336.929688 527.277344 C 337.074219 528.433594 336.574219 529.542969 335.972656 527.730469 Z M 310.769531 371.171875 C 315.582031 373.945313 304.835938 376.050781 309.273438 377.902344 C 324.089844 383.382813 328.714844 387.636719 339.074219 407.0625 C 340 408.910156 335.117188 410.550781 335.117188 412.980469 C 338.78125 416.199219 341.414063 413.757813 346.113281 419.085938 C 351.871094 426.664063 363.0625 450.574219 364.5 458.011719 C 364.730469 459.207031 364.027344 459.988281 363.320313 458.703125 C 359.464844 451.703125 347.171875 421.453125 339.933594 418.433594 C 337.214844 417.277344 323.722656 412.796875 324.015625 408.539063 C 327.234375 408.429688 333.636719 409.503906 334.265625 407.0625 C 335.542969 402.164063 316.695313 382.375 309.851563 381.484375 C 305.800781 380.960938 290.976563 379.867188 293.601563 376.238281 C 297.710938 375.90625 305.589844 372.835938 302.925781 370.910156 C 277.320313 355.90625 245.160156 332.710938 237.4375 310.972656 C 236.429688 306.882813 239.191406 306.773438 240.199219 308.964844 C 254.648438 340.476563 296.011719 362.394531 310.769531 371.171875 Z M 250.371094 241.609375 C 246.304688 251.457031 225.605469 221.59375 223.660156 222.585938 C 221.128906 224.289063 222.972656 229.90625 219.136719 229.613281 C 215.289063 229.136719 205.179688 214.039063 206.46875 206.742188 C 209.742188 209.691406 211.1875 218.160156 216.699219 222.953125 C 219.597656 225.34375 220.410156 213.992188 223.722656 218.023438 C 228.621094 223.8125 243.277344 240.113281 246.476563 238.683594 C 248.152344 237.933594 247.527344 233.449219 249.132813 234.46875 C 251.277344 235.855469 251.488281 238.648438 250.371094 241.609375 Z M 262.191406 240.152344 C 257.492188 238.15625 267.851563 235.269531 262.96875 232.9375 C 260.265625 231.679688 256.011719 234.457031 254.421875 233.714844 C 249.945313 229.824219 252.679688 217.992188 257.085938 217.730469 C 256.863281 221.394531 252.753906 226.5 255.753906 230.273438 C 259.414063 229.386719 263.855469 229.609375 267.183594 231.050781 C 270.8125 232.605469 265.632813 232.535156 266.554688 236.121094 C 274.140625 233.714844 280.984375 234.640625 282.171875 237.710938 C 276.5 236.914063 267.644531 237.675781 262.191406 240.152344 Z M 296.898438 229.640625 C 285.433594 225.546875 271.929688 215.605469 271.859375 205.824219 C 271.816406 199.394531 277.65625 195.605469 279.726563 198.527344 C 272.652344 208.433594 284.5625 219.625 297.402344 228.523438 C 298.539063 229.3125 298.242188 230.121094 296.898438 229.640625 Z M 291.714844 197.195313 C 305.808594 192.824219 316.238281 180.546875 318.6875 168.78125 C 321.351563 172.109375 323.128906 177.21875 324.792969 181.769531 C 319.546875 196.34375 308.367188 200.972656 291.714844 197.195313 Z M 318.6875 225.722656 C 316.800781 224.835938 317.691406 222.503906 318.132813 221.171875 C 322.324219 212.796875 338.652344 211.171875 341 219.617188 C 332.785156 217.285156 326.792969 225.390625 318.6875 225.722656 Z M 344.144531 160.636719 C 343.957031 155.871094 343.703125 150.117188 342.929688 145.046875 C 342.847656 144.515625 343.351563 144.152344 343.652344 144.578125 C 346.214844 148.179688 346.808594 155.605469 345.09375 160.59375 C 344.851563 161.304688 344.171875 161.300781 344.144531 160.636719 Z M 371.414063 159.679688 C 373.671875 158.789063 375.707031 166.5625 373.523438 168.226563 C 364.644531 173.441406 353.320313 173.222656 344.996094 179.105469 C 348.511719 170.816406 361.3125 164.894531 371.414063 159.679688 Z M 347.175781 181.300781 C 352.167969 178.03125 367.226563 174.578125 374.300781 171.34375 C 377.042969 170.089844 377.710938 175.285156 374.300781 175.664063 C 365.5625 178 355.890625 178.660156 347.761719 182.078125 C 347.011719 182.394531 346.246094 181.90625 347.175781 181.300781 Z M 404.71875 272.472656 C 397.507813 260.976563 383.609375 259.464844 378.664063 244.632813 C 377.554688 241.078125 375.300781 235.964844 371.96875 233.964844 C 363.679688 229.628906 353.242188 242.472656 347.703125 233.851563 C 347.332031 233.277344 347.789063 232.828125 348.375 233.191406 C 357.160156 238.636719 369.042969 224.53125 376.109375 233.710938 C 380.628906 239.589844 382.054688 252.679688 399.261719 263.339844 C 402.691406 265.464844 404.792969 268.550781 405.722656 271.914063 C 406.03125 273.035156 405.277344 273.363281 404.71875 272.472656 "/>
</g>
</svg>
