<?xml version="1.0" encoding="UTF-8"?>
<svg xmlns="http://www.w3.org/2000/svg" xmlns:xlink="http://www.w3.org/1999/xlink" width="526pt" height="532pt" viewBox="0 0 526 532" version="1.1">
<g id="surface1">
<path style=" stroke:none;fill-rule:nonzero;fill:rgb(0%,0%,0%);fill-opacity:1;" d="M 498.125 170.953125 C 489.78125 162.363281 461.785156 123.261719 447.46875 112.4375 C 445.503906 111.050781 450.773438 108.179688 448.21875 106.160156 C 446.816406 104.558594 445.058594 103.261719 447.183594 101.140625 C 449.816406 99.320313 442.394531 96.0625 440.09375 93.097656 C 439.902344 91.753906 446.941406 92.136719 444.019531 87.828125 C 431.53125 71.476563 415.304688 52.183594 394.320313 44.832031 C 391.878906 43.777344 397.148438 41.863281 392.558594 38.808594 C 372.921875 24.953125 331.519531 14.175781 310.449219 11.222656 C 278.40625 6.730469 237.628906 -2.351563 209.703125 1.464844 C 201.574219 2.574219 190.285156 4.554688 185.988281 6.167969 C 178.871094 8.839844 155.589844 6.191406 148.21875 19.742188 C 144.0625 18.910156 126.910156 27.054688 121.789063 39.566406 C 110.773438 40.332031 100.769531 46.652344 94.402344 54.695313 C -3.132813 54.792969 -28.777344 178.929688 37.542969 218.378906 C 46.054688 223.4375 56.6875 219.910156 48.941406 210.878906 C 45.511719 206.875 43.589844 204.855469 42.992188 201.4375 C 40.171875 185.238281 47.949219 174.753906 57.914063 171.046875 C 67.324219 168.273438 77.816406 171.519531 87.128906 174.953125 C 101.5 180.25 116.765625 180.601563 137.417969 182.921875 C 149.339844 184.261719 155.019531 185.011719 164.304688 195.847656 C 165.644531 196.996094 167.847656 193.070313 168.710938 192.113281 C 170.722656 194.3125 171.964844 196.710938 173.019531 199.484375 C 173.90625 201.902344 175.988281 199.199219 177.136719 198.144531 C 180.488281 197.953125 177.617188 211.550781 181.734375 211.265625 C 184.796875 211 185.371094 206.667969 186.617188 203.890625 C 188.820313 207.242188 189.683594 211.265625 191.214844 214.902344 C 193.414063 219.378906 195.8125 211.839844 197.820313 210.496094 C 201.171875 213.945313 200.980469 218.351563 203.183594 222.277344 C 204.429688 224.285156 204.90625 221.296875 205.675781 222.46875 C 214.054688 236.691406 225.484375 268.480469 228.214844 280.5625 C 228.90625 283.636719 230.402344 283.839844 231.664063 281.128906 C 232.726563 279.351563 233.394531 278.152344 234.59375 276.285156 C 238.089844 290.109375 217.824219 326.34375 206.652344 333.496094 C 202.007813 336.472656 202.632813 338.722656 206.824219 338.789063 C 208.101563 338.800781 211.421875 339.105469 211.609375 339.679688 C 196.578125 353.277344 156.4375 376.707031 153.324219 378.714844 C 82.511719 424.375 95.292969 486.578125 122.890625 529.738281 C 125.199219 533.351563 127.34375 532.636719 126.6875 527.804688 C 126.003906 522.996094 123.03125 505.34375 143.144531 507.738281 C 144.078125 499.121094 149.558594 485.535156 153.242188 482.414063 C 157.085938 479.152344 154.4375 476.804688 150.46875 478.996094 C 149.320313 479.632813 143.859375 484.515625 143.144531 480.160156 C 141.492188 467.175781 155.78125 452.78125 172.207031 446.214844 C 175.90625 444.734375 179.574219 447.234375 176.867188 454.339844 C 173.597656 462.929688 176.675781 463.582031 181.808594 459.035156 C 186.355469 455.011719 192.140625 450.578125 199.738281 449.996094 C 199.066406 452.773438 198.300781 454.6875 196.960938 457.175781 C 195.09375 460.816406 199.640625 462.011719 201.554688 459.472656 C 206.101563 452.9375 216.269531 450.304688 228.382813 448.722656 C 243.691406 445.734375 250.394531 434.578125 257.382813 430.269531 C 258.152344 431.800781 255.445313 438.648438 254.691406 440.214844 C 253.195313 443.328125 255.820313 444.917969 260.640625 443.839844 C 276.96875 440.226563 283.980469 430.96875 294.636719 420.597656 C 295 423.28125 297.078125 428.257813 299.863281 424.441406 C 311.921875 410.539063 313.597656 407.191406 321.734375 389.761719 C 323.890625 389.234375 325.328125 396.414063 328.867188 387.046875 C 331.929688 379.328125 333.535156 370.570313 334.855469 362.660156 C 336.050781 364.144531 336.84375 366.898438 337.65625 369.113281 C 339.003906 372.785156 341.605469 372.714844 342.515625 368.96875 C 342.9375 366.8125 342.8125 364.214844 343.570313 362.183594 C 344.957031 362.898438 348.546875 371.519531 350.5 365.78125 C 351.546875 362.894531 355.492188 349.253906 355.539063 340.15625 C 358.050781 341.054688 361.882813 347.730469 365.097656 351.621094 C 369.015625 356.371094 371.039063 354.085938 370.863281 349.503906 C 370.734375 346.164063 368.769531 343.207031 369.039063 341.304688 C 372.007813 339.917969 381.871094 350.882813 386.566406 356.914063 C 389.246094 359.308594 388.769531 354.519531 390.203125 354.140625 C 392.445313 355.890625 396.222656 355.917969 397.769531 354.617188 C 408.636719 354.28125 416.777344 381.335938 419.066406 370.800781 C 419.890625 366.492188 418.3125 360.253906 418.261719 355.574219 C 421.085938 356.4375 428.269531 372.476563 432.703125 365.371094 C 435.070313 361.433594 436.484375 356.832031 438.277344 352.605469 C 446.605469 352.835938 457.363281 348.191406 464.226563 329.625 C 466.8125 331.539063 464.179688 338.003906 465.855469 339.679688 C 470.066406 341.402344 470.929688 335.082031 472.582031 335.808594 C 473.992188 336.804688 470.882813 347.578125 475.910156 344.085938 C 479.980469 339.679688 482.804688 327.230469 483.570313 318.132813 C 483.570313 314.0625 487.402344 314.78125 489.984375 313.058594 C 503.855469 302.359375 506.054688 282.90625 502.59375 266.398438 C 502.398438 265.472656 503.554688 264.835938 504.398438 265.941406 C 506.085938 268.15625 507.859375 271.488281 509.519531 274.464844 C 510.863281 275.996094 512.777344 274.464844 513.828125 273.988281 C 515.171875 276.285156 515.746094 279.15625 516.894531 281.359375 C 518.042969 283.660156 520.199219 283.660156 520.535156 279.445313 C 521.554688 261.464844 520.5625 244.335938 516.894531 224.765625 C 519.574219 226.296875 524.027344 236.976563 525.410156 226.179688 C 527.277344 203.539063 512.847656 186.105469 498.125 170.953125 Z M 432.019531 88.949219 C 429.921875 88.152344 428.101563 86.550781 423.378906 84.679688 C 423.058594 84.554688 422.960938 84.097656 423.320313 84.109375 C 425.851563 84.175781 430.464844 85.644531 432.675781 88.117188 C 433.476563 89.226563 432.9375 89.253906 432.019531 88.949219 Z M 421.765625 73.988281 C 423.03125 74.019531 425.335938 74.683594 426.441406 75.921875 C 426.84375 76.476563 426.574219 76.488281 426.113281 76.339844 C 425.066406 75.941406 424.15625 75.695313 421.792969 74.757813 C 421.632813 74.695313 421.582031 73.980469 421.765625 73.988281 Z M 381.011719 86.011719 C 387.332031 87.734375 392.644531 89.601563 398.582031 92.378906 C 402.414063 94.410156 399.0625 88.546875 402.914063 89.273438 C 408.476563 90.484375 419.519531 95.410156 425.089844 99.488281 C 425.964844 100.128906 425.738281 100.789063 424.75 100.394531 C 418.171875 97.753906 405.761719 91.910156 404.949219 93.574219 C 404.378906 95.394531 405.910156 96.351563 405.429688 98.171875 C 389.367188 90.105469 385.65625 90.105469 383.804688 93.730469 C 381.9375 92.875 379.875 92.4375 378.714844 91.46875 C 380.746094 90.34375 381.492188 88.449219 381.011719 86.011719 Z M 359.414063 75.617188 C 364.1875 76.703125 371.363281 80.5 374.59375 83.902344 C 376.199219 85.554688 375.839844 86.992188 374.785156 86.394531 C 370.550781 84.316406 363.503906 79.636719 359.074219 76.347656 C 358.597656 75.996094 358.8125 75.480469 359.414063 75.617188 Z M 333.417969 80.648438 C 330.832031 80.167969 328.4375 78.851563 326.332031 77.488281 C 327.71875 76.339844 333.226563 78.015625 333.417969 80.648438 Z M 307.894531 80.621094 C 313.054688 82.171875 321.277344 85.464844 326.058594 86.832031 C 326.5 86.957031 326.484375 87.445313 326.0625 87.539063 C 320.683594 88.738281 313.128906 84.757813 307.480469 81.261719 C 306.773438 80.820313 306.972656 80.34375 307.894531 80.621094 Z M 289.753906 81.414063 C 288.476563 84.851563 292.480469 86.507813 294.316406 87.347656 C 296.003906 88.121094 297.25 89.371094 298.5625 90.988281 C 301.042969 90.824219 301.722656 89.203125 301.722656 86.679688 C 306.507813 89.816406 317.617188 98.144531 317.617188 100.183594 C 314.195313 98.722656 308.902344 95.394531 305.167969 91.753906 C 301.242188 92.328125 304.976563 97.285156 303.539063 98.648438 C 296.839844 95.105469 293.605469 88.785156 283.621094 86.011719 C 290.296875 81.503906 266.347656 72.785156 250.394531 73.023438 C 248.960938 73.046875 234.714844 75.980469 228.65625 74.230469 C 248.128906 67.648438 271.933594 69.8125 289.753906 81.414063 Z M 301.050781 108.703125 C 298.273438 110.09375 293.773438 109.855469 290.902344 107.554688 C 293.007813 105.1875 300.1875 104.707031 301.050781 108.703125 Z M 290.039063 103.4375 C 287.621094 105.664063 282.953125 105.546875 280.847656 103.917969 C 283.800781 103.449219 287.261719 102.191406 290.039063 103.4375 Z M 282.070313 99.355469 C 285.039063 97.765625 290.59375 96.316406 289.558594 99.800781 C 287.136719 99.382813 285.183594 99.417969 282.339844 99.800781 C 281.925781 99.859375 281.671875 99.570313 282.070313 99.355469 Z M 247.164063 77.777344 C 257.804688 76.054688 268.925781 78.277344 277.878906 82.753906 C 281.546875 84.554688 272.179688 84.957031 275.292969 87.351563 C 278.453125 89.648438 282.089844 91.851563 284.964844 94.722656 C 281.753906 97.164063 273.039063 100.816406 266.789063 94.535156 C 261.214844 88.929688 258.328125 81.324219 249.71875 80.664063 C 249.023438 80.613281 213.988281 83.628906 211.605469 83.464844 C 206.734375 83.125 202.152344 81.0625 199.257813 77.007813 C 212.40625 78.019531 240.410156 78.871094 247.164063 77.777344 Z M 289.367188 196.324219 C 292.816406 200.058594 297.125 203.125 298.273438 208.199219 C 294.070313 204.316406 288.027344 201.210938 283.621094 195.847656 C 279.121094 194.027344 275.101563 190.675781 272.132813 187.324219 C 278.046875 187.179688 286.164063 187.746094 290.710938 191.921875 C 293.128906 193.882813 287.140625 193.765625 289.367188 196.324219 Z M 276.847656 174.613281 C 273.078125 172.511719 268.402344 168.113281 267.585938 164.570313 C 267.324219 163.132813 269.476563 162.65625 270.074219 164.28125 C 271.800781 168.050781 274.191406 171.070313 277.191406 173.847656 C 277.851563 174.460938 277.722656 175.097656 276.847656 174.613281 Z M 275.960938 137.71875 C 274.933594 138.222656 271.699219 137.265625 272.992188 140.019531 C 269.664063 142.054688 260.351563 131.210938 252.789063 128.910156 C 255.539063 126.730469 279.601563 136.066406 275.960938 137.71875 Z M 202.082031 114.808594 C 202.519531 115.511719 202.1875 115.804688 201.570313 115.3125 C 198.136719 112.585938 194.347656 109.46875 192.074219 105.734375 C 196.460938 104.484375 199.402344 110.480469 202.082031 114.808594 Z M 185.398438 97.847656 C 183.71875 97.320313 183.550781 96.703125 185.136719 96.40625 C 186.484375 96.15625 190.902344 95.847656 194.183594 97.214844 C 191.742188 99.679688 188.269531 98.230469 185.398438 97.847656 Z M 211.609375 89.171875 C 212.28125 89.554688 213.046875 90.34375 213.527344 90.988281 C 209.3125 96.640625 204.621094 100.46875 198.777344 104.585938 C 197.964844 105.304688 196.769531 103.988281 197.4375 103.628906 C 202.992188 101.042969 207.492188 93.863281 211.609375 89.171875 Z M 189.777344 82.273438 C 193.882813 84.621094 198.394531 86.394531 203.183594 87.351563 C 204.789063 87.828125 204.789063 90.460938 203.566406 90.796875 C 199.738281 91.753906 191.382813 86.511719 189.777344 82.273438 Z M 199.609375 131.152344 C 200.21875 135.042969 200.972656 137.601563 203.003906 140.910156 C 203.453125 141.640625 203.167969 142.191406 202.492188 141.519531 C 199.589844 138.632813 197.09375 134.226563 197.257813 130.777344 C 197.386719 129.394531 199.480469 129.511719 199.609375 131.152344 Z M 202.90625 133.679688 C 203.027344 132.367188 205.019531 132.476563 205.140625 134.035156 C 205.722656 137.730469 206.4375 140.160156 208.367188 143.308594 C 208.792969 144 208.523438 144.523438 207.882813 143.886719 C 205.121094 141.140625 202.753906 136.957031 202.90625 133.679688 Z M 206.152344 129.195313 C 203.664063 128.046875 201.554688 126.132813 200.886719 123.644531 C 200.367188 121.941406 195.453125 120.867188 198.972656 118.378906 C 202.03125 122.058594 214.652344 129.375 218.304688 130.820313 C 218.285156 130.785156 218.28125 130.773438 218.3125 130.824219 C 218.3125 130.824219 218.308594 130.820313 218.304688 130.820313 C 218.507813 131.191406 221.308594 135.800781 221.570313 136.761719 C 216.304688 135.996094 213.238281 130.539063 209.601563 127.570313 C 207 125.75 209.695313 130.683594 206.152344 129.195313 Z M 224.371094 139.519531 C 225.394531 137.359375 224.339844 134.957031 223.867188 132.355469 C 225.6875 131.6875 227.492188 130.792969 228.847656 129.195313 C 231.050781 130.539063 238.996094 131.976563 239.957031 132.164063 C 240.699219 137.984375 250.585938 138.390625 252.980469 143.179688 C 253.863281 145.164063 253.148438 145.285156 251.828125 145.285156 C 249.914063 145.570313 246.660156 145.476563 244.9375 147.105469 C 244.554688 148.445313 247.042969 150.648438 247.042969 151.511719 C 239.476563 150.839844 231.050781 149.882813 225.402344 143.179688 C 223.964844 142.796875 222.433594 143.847656 222.433594 144.996094 C 220.230469 145.40625 214.484375 139.0625 214.675781 137.242188 C 216.78125 139.253906 223.390625 140.878906 224.371094 139.519531 Z M 245.894531 130.824219 C 250.632813 130.441406 259.777344 136.761719 261.789063 137.433594 C 259.96875 139.421875 250.871094 136.09375 247.042969 135.136719 C 246.945313 134.082031 247.328125 131.78125 245.894531 130.824219 Z M 241.535156 156.980469 C 243.261719 160.746094 245.652344 163.765625 248.652344 166.546875 C 249.3125 167.15625 249.183594 167.796875 248.308594 167.308594 C 244.539063 165.207031 239.863281 160.808594 239.046875 157.265625 C 238.78125 155.828125 240.9375 155.351563 241.535156 156.980469 Z M 248.339844 158.78125 C 248.074219 157.34375 250.230469 156.863281 250.828125 158.492188 C 252.554688 162.261719 254.945313 165.28125 257.945313 168.058594 C 258.605469 168.671875 258.476563 169.308594 257.601563 168.820313 C 253.832031 166.722656 249.15625 162.324219 248.339844 158.78125 Z M 257.050781 161.097656 C 256.789063 159.660156 258.941406 159.183594 259.542969 160.8125 C 261.269531 164.578125 263.65625 167.601563 266.660156 170.378906 C 267.320313 170.988281 267.1875 171.628906 266.3125 171.140625 C 262.546875 169.039063 257.871094 164.644531 257.050781 161.097656 Z M 237.566406 122.574219 C 227.292969 123.378906 220.101563 121.894531 213.71875 114.449219 C 215.441406 113.875 225.675781 122.40625 241.320313 119.453125 C 256.859375 116.675781 263.289063 103.804688 259.875 97.882813 C 258.894531 96.328125 260.089844 95.132813 261.789063 96.542969 C 265.476563 99.679688 267.820313 103.917969 267.726563 108.511719 C 263.679688 113.566406 244.527344 121.824219 237.566406 122.574219 Z M 234.113281 114.28125 C 238.878906 114.964844 253.011719 111.742188 255.871094 102.664063 C 256.027344 102.171875 256.546875 102.167969 256.613281 102.671875 C 257.648438 110.570313 244.269531 116.617188 233.832031 116.316406 C 222.421875 115.988281 214.59375 107.140625 216.414063 97.503906 C 216.503906 97.03125 217.171875 96.449219 217.3125 97.410156 C 217.890625 101.480469 218.722656 113.371094 234.113281 114.28125 Z M 231.121094 95.488281 C 231.9375 95.144531 233.015625 95.835938 233.527344 97.035156 C 234.039063 98.238281 233.789063 99.496094 232.976563 99.84375 C 232.160156 100.1875 231.082031 99.496094 230.570313 98.296875 C 230.058594 97.09375 230.304688 95.835938 231.121094 95.488281 Z M 255.972656 89.300781 C 245.753906 86.203125 221.792969 90.929688 217.835938 89.457031 C 214.085938 87.933594 213.9375 87.222656 215.199219 86.855469 C 216.859375 86.375 234.015625 84.316406 242.589844 83.601563 C 250.40625 82.945313 252.746094 85.1875 256.1875 88.382813 C 256.851563 88.996094 256.878906 89.574219 255.972656 89.300781 Z M 193.414063 70.234375 C 191.414063 70.445313 189.273438 68.386719 189.105469 65.996094 C 190.449219 66.378906 192.554688 68.316406 193.414063 70.234375 Z M 197.351563 92.617188 C 198.40625 92.976563 197.726563 94.171875 196.960938 94.054688 C 191.585938 93.53125 186.664063 91.796875 183.097656 88.453125 C 182.722656 88.105469 182.910156 87.75 183.363281 87.941406 C 187.664063 89.769531 192.589844 91.230469 197.351563 92.617188 Z M 160.800781 64.382813 C 161.375 61.605469 159.902344 57.546875 162.484375 56.132813 C 162.753906 62.695313 171.226563 71.675781 173.515625 70.304688 C 175.222656 69.273438 169.835938 62.8125 172.828125 59.964844 C 177.136719 56.035156 180.210938 65.574219 181.742188 65.765625 C 185.953125 61.839844 182.597656 70.59375 182.019531 72.410156 C 179.769531 72.269531 181.160156 64.65625 176.46875 64.367188 C 173.664063 64.367188 177.039063 73.847656 180.203125 76.816406 C 179.410156 80.167969 169.570313 72.21875 166.796875 68.007813 C 165.765625 66.523438 164.59375 68.007813 164.304688 69.15625 C 163.851563 71.070313 167.441406 74.304688 168.421875 76.050781 C 166.964844 77.414063 163.253906 71.671875 161.972656 72.214844 C 160.996094 72.664063 160.90625 74.136719 159.039063 73.5625 C 157.644531 73.175781 159.78125 77.773438 157.65625 77.132813 C 156.074219 76.824219 154.132813 77.734375 155.113281 79.976563 C 156.667969 82.800781 164.6875 85.675781 166.125 87.542969 C 163.609375 88.425781 153.867188 85.242188 148.695313 82.5625 C 146.335938 81.226563 147.042969 84.152344 147.554688 85.257813 C 149.015625 88.441406 153.1875 88.414063 156.605469 89.585938 C 158.15625 90.25 158.464844 93.335938 156.308594 93.8125 C 154.394531 94.195313 149.558594 96.351563 148.027344 97.5 C 146.851563 98.480469 147.691406 100.277344 149.367188 100.46875 C 151.855469 100.660156 153.578125 99.03125 155.78125 99.992188 C 157.386719 100.515625 149.367188 104.226563 153.292969 105.257813 C 156.933594 104.492188 164.089844 100.277344 164.113281 102.960938 C 164.089844 104.226563 163.121094 105.808594 165.886719 106.023438 C 168.160156 106.199219 172.46875 103.988281 173.496094 105.734375 C 169.953125 106.886719 166.605469 108.296875 163.15625 109.855469 C 161.457031 110.691406 162.773438 112.246094 164.570313 111.890625 C 167.574219 110.519531 167.171875 112.082031 165.644531 113.566406 C 164.398438 114.777344 159.660156 117.15625 163.15625 120.484375 C 167.847656 117.035156 173.308594 115.695313 178.574219 113.78125 C 180.011719 113.203125 179.292969 115.601563 180.203125 116.269531 C 182.285156 117.992188 185.039063 112.726563 185.945313 114.738281 C 184.320313 116.269531 184.796875 118.378906 185.945313 120.003906 C 186.832031 121.226563 191.382813 114.402344 193.035156 116.269531 C 191.882813 119.046875 188.875 122.160156 187.097656 124.792969 C 186.234375 125.773438 185.757813 122.878906 184.511719 123.164063 C 182.691406 123.644531 181.542969 126.132813 179.722656 126.898438 C 178.636719 124.640625 182.8125 122.378906 181.261719 120.695313 C 178.703125 117.917969 170.59375 123.078125 164.976563 125.941406 C 163.253906 126.132813 163.96875 122.542969 161.527344 123.164063 C 160.5 123.621094 158.34375 127.6875 157.21875 125.75 C 154.730469 120.003906 156.738281 114.066406 158.082031 108.703125 C 158.464844 106.980469 157.027344 106.023438 155.589844 107.078125 C 153.867188 108.320313 152.621094 110.140625 151.472656 111.671875 C 149.847656 113.683594 150.085938 107.21875 147.480469 108.46875 C 145.109375 109.929688 144.601563 113.621094 143.621094 115.886719 C 140.113281 114.417969 143.691406 109.964844 141.460938 108.378906 C 139.3125 106.980469 138.234375 109.972656 136.726563 109.660156 C 135.222656 99.515625 141.820313 98.308594 146.398438 94.4375 C 144.578125 92.042969 140.558594 93.382813 137.875 93.285156 C 138.066406 91.179688 140.078125 90.605469 141.132813 89.171875 C 139.503906 87.828125 138.257813 86.679688 136.535156 86.199219 C 133.328125 85.316406 137.792969 83.941406 137.488281 81.699219 C 137.183594 79.4375 134.671875 76.628906 133.949219 75.1875 C 135.839844 74.183594 138.796875 78.511719 140.480469 79.550781 C 141.488281 80.171875 146.015625 79.210938 145.441406 77.488281 C 143.429688 72.601563 139.910156 64.246094 142.664063 61.589844 C 143.429688 66.761719 146.972656 71.550781 151.1875 75.378906 C 152.429688 75.953125 153.964844 75.570313 154.921875 74.519531 C 155.015625 72.796875 154.441406 69.824219 156.261719 68.964844 C 158.226563 67.960938 153.316406 65.925781 155.589844 64.847656 C 157.699219 63.890625 160.03125 67.015625 160.800781 64.382813 Z M 159.230469 21.851563 C 158.226563 24.148438 146.492188 24.628906 143.429688 25.777344 C 139.550781 27.261719 149.847656 29.894531 146.878906 31.234375 C 127.421875 30.261719 122.816406 48.820313 129.222656 65.429688 C 129.554688 66.296875 128.804688 66.851563 128.140625 66.210938 C 113.242188 51.910156 127.332031 17.863281 159.230469 21.851563 Z M 100.433594 69.15625 C 102.445313 67 103.367188 74.59375 105.796875 73.464844 C 113.523438 69.535156 129.699219 83.078125 124.277344 97.023438 C 118.867188 86.933594 113.539063 73.035156 104.375 77.324219 C 100.414063 79.097656 106.371094 87.835938 110.648438 93.46875 C 112.074219 95.347656 111.597656 95.941406 110.335938 95.023438 C 102.097656 89.03125 92.203125 81.625 100.433594 69.15625 Z M 90.953125 66.476563 C 88.835938 75.859375 88.550781 80.949219 94.914063 86.480469 C 115.992188 104.8125 118.761719 112.316406 111.925781 133.316406 C 112.914063 133.847656 129.433594 140.847656 136.855469 143.316406 C 138.777344 143.957031 138.410156 144.929688 136.4375 144.796875 C 127.558594 144.210938 101.964844 136.90625 105.699219 131.015625 C 114.367188 117.273438 111.023438 105.742188 87.777344 86.949219 C 80 80.664063 87.363281 67.71875 90.953125 66.476563 Z M 71.417969 69.824219 C 72.632813 68.648438 79.078125 66.089844 80.898438 66.1875 C 78.21875 71.453125 75.917969 76.910156 74.003906 82.5625 C 70.554688 82.464844 67.730469 83.039063 64.523438 84.382813 C 66.054688 79.449219 67.773438 73.355469 71.417969 69.824219 Z M 57.589844 88.226563 C 31.617188 109.550781 13.605469 143.609375 20.664063 179.472656 C 11.042969 169.847656 13.851563 127.042969 33.785156 105.546875 C 35.410156 103.867188 27.75 96.445313 39.050781 90.128906 C 41.875 88.785156 42.59375 97.40625 45.753906 94.914063 C 49.011719 92.234375 52.363281 88.785156 56.097656 86.394531 C 58.394531 84.957031 59.832031 86.632813 57.589844 88.226563 Z M 138.136719 155.785156 C 125.453125 159.527344 117.929688 156.464844 104.628906 153.308594 C 90.566406 149.972656 76.183594 147.734375 61.683594 159.121094 C 60.257813 160.238281 59.757813 159.765625 61.003906 158.429688 C 74.648438 143.761719 93.417969 146.296875 106.632813 149.714844 C 117.679688 152.570313 127.65625 155.828125 136.917969 151.867188 C 147.679688 147.269531 160.472656 138.519531 185.398438 143.847656 C 205.167969 148.265625 239.4375 158.621094 242.003906 173.492188 C 242.253906 176.167969 240.101563 176.167969 239.1875 173.742188 C 234.277344 159.808594 203.867188 151.664063 183.355469 147.503906 C 163.003906 142.773438 151.632813 151.804688 138.136719 155.785156 Z M 172.503906 174.820313 C 168.976563 170.867188 165.195313 167.160156 162.007813 163.382813 C 162.671875 159.738281 170.34375 166.714844 173.308594 174.445313 C 173.570313 175.128906 173.003906 175.375 172.503906 174.820313 Z M 181.320313 183.113281 C 178.453125 178.484375 174.925781 172.863281 172.953125 166.988281 C 172.808594 166.554688 173.117188 166.226563 173.394531 166.507813 C 177.839844 171.046875 180.226563 177.3125 181.804688 182.597656 C 182.054688 183.433594 181.730469 183.773438 181.320313 183.113281 Z M 185.570313 179.921875 C 183.175781 178.007813 179.148438 169.417969 178.574219 166.640625 C 179.890625 166.113281 186.289063 178.726563 185.570313 179.921875 Z M 185.277344 169.585938 C 187.574219 170.0625 188.148438 173.414063 188.53125 175.878906 C 187.433594 176.046875 185.277344 171.609375 185.277344 169.585938 Z M 182.523438 162.761719 C 175.710938 160.425781 162.296875 155.9375 162.964844 154 C 168.160156 153.066406 179.769531 155.820313 186.808594 158.597656 C 188.820313 159.554688 236.796875 181.769531 245.414063 183.878906 C 251.804688 182.535156 252.703125 188.253906 249.820313 189.621094 C 244.886719 191.25 191.191406 165.949219 182.523438 162.761719 Z M 239.753906 198.6875 C 239.46875 197.480469 240.28125 196.925781 240.9375 197.953125 C 244.027344 202.78125 246.050781 206.574219 246.921875 209.085938 C 242.566406 208.148438 241.136719 204.59375 239.753906 198.6875 Z M 259.011719 213.394531 C 251.613281 210.914063 249.003906 204.492188 247.679688 198.703125 C 247.378906 197.390625 248.128906 197.355469 248.71875 198.550781 C 251.921875 205.03125 259.503906 212.453125 259.011719 213.394531 Z M 276 226.597656 C 273.207031 220.84375 269.832031 215.855469 264.277344 211.957031 C 260.472656 209.324219 255.597656 200.507813 254.515625 195.683594 C 254.269531 194.589844 254.898438 194.394531 255.300781 195.320313 C 257.34375 199.992188 261.832031 208.171875 265.835938 210.164063 C 270.910156 213.019531 275.707031 219.191406 276.726563 226.441406 C 276.828125 227.152344 276.316406 227.253906 276 226.597656 Z M 286 230.007813 C 282.539063 222.785156 279.554688 215.863281 273.136719 211.359375 C 268.785156 208.347656 262.1875 198.230469 260.859375 192.671875 C 260.539063 191.332031 261.285156 191.0625 261.777344 192.175781 C 264.15625 197.5625 270.339844 206.996094 274.9375 209.28125 C 280.789063 212.574219 285.421875 220.90625 286.84375 229.785156 C 286.988281 230.683594 286.394531 230.835938 286 230.007813 Z M 299.230469 223.425781 C 292.71875 211.683594 280.929688 206.089844 274.140625 195.199219 C 273.84375 194.722656 274.097656 194.363281 274.519531 194.675781 C 284.332031 201.933594 300.070313 211.238281 299.230469 223.425781 Z M 307.160156 169.390625 C 304.816406 166.699219 301.863281 164.773438 299.519531 162.25 C 298.105469 160.570313 299.796875 160.550781 301.664063 161.453125 C 303.132813 162.160156 306.445313 166.363281 307.710938 169.234375 C 307.949219 169.773438 307.527344 169.8125 307.160156 169.390625 Z M 310.429688 163.433594 C 308.042969 159.695313 304.757813 156.789063 302.335938 153.257813 C 300.902344 150.929688 302.988281 151.21875 305.121094 152.667969 C 306.800781 153.804688 310.105469 159.582031 311.132813 163.34375 C 311.328125 164.054688 310.804688 164.019531 310.429688 163.433594 Z M 314.066406 154.898438 C 310.84375 151.191406 306.769531 148.539063 303.539063 145.0625 C 301.589844 142.746094 303.921875 142.71875 306.496094 143.960938 C 308.523438 144.9375 313.085938 150.730469 314.824219 154.683594 C 315.15625 155.433594 314.574219 155.480469 314.066406 154.898438 Z M 319.4375 141.359375 C 318.480469 140.496094 317.042969 139.445313 315.511719 140.210938 C 313.214844 140.976563 316.230469 143.847656 314.839844 144.996094 C 310.242188 140.878906 305.074219 138.199219 299.421875 136.570313 C 295.402344 136.1875 302.199219 143.65625 298.082031 145.476563 C 285.886719 135.539063 267.085938 125.96875 253.734375 125.128906 C 252.851563 125.074219 252.78125 124.058594 253.667969 123.539063 C 261.421875 119.023438 272.914063 114.398438 283.425781 114.652344 C 291.976563 114.855469 318.835938 121.726563 322.691406 138.582031 C 322.933594 140.976563 322.308594 144.230469 319.4375 141.359375 Z M 325.863281 166.261719 C 325.785156 166.832031 325.417969 166.644531 325.332031 166.109375 C 324.773438 162.703125 323.316406 159.613281 322.671875 156.339844 C 322.363281 154.238281 323.765625 155.082031 324.847656 156.777344 C 325.695313 158.105469 326.28125 163.253906 325.863281 166.261719 Z M 302.679688 112.4375 C 305.023438 111.617188 307.238281 109.800781 309.359375 110.015625 C 310.964844 110.09375 318.671875 115.40625 321.734375 115.601563 C 323.050781 115.601563 321.496094 112.128906 323.074219 112.820313 C 329.289063 115.289063 332.917969 116.953125 333.898438 116.269531 C 334.875 115.585938 331.191406 111.171875 333.898438 112.152344 C 337.058594 113.324219 338.683594 114.355469 340.792969 116.078125 C 342.5625 117.632813 337.894531 117.15625 337.824219 118.566406 C 337.535156 120.867188 344 123.859375 343.089844 125.75 C 332.746094 125.175781 304.257813 113.804688 302.679688 112.4375 Z M 332.238281 164.308594 C 331.09375 160.472656 328.964844 157.136719 327.738281 153.472656 C 327.074219 151.097656 328.8125 151.863281 330.304688 153.648438 C 331.476563 155.054688 332.910156 160.886719 332.871094 164.40625 C 332.867188 165.070313 332.417969 164.910156 332.238281 164.308594 Z M 337.28125 155.253906 C 335.054688 151.414063 331.894531 148.371094 329.625 144.742188 C 328.289063 142.355469 330.363281 142.730469 332.433594 144.269531 C 334.0625 145.480469 337.117188 151.390625 337.988281 155.191406 C 338.15625 155.910156 337.632813 155.851563 337.28125 155.253906 Z M 344.199219 142.988281 C 340.972656 139.277344 336.898438 136.628906 333.671875 133.152344 C 331.722656 130.835938 334.054688 130.808594 336.628906 132.050781 C 338.652344 133.023438 343.214844 138.816406 344.957031 142.769531 C 345.285156 143.519531 344.707031 143.566406 344.199219 142.988281 Z M 329.777344 94.722656 C 326.644531 95.609375 322.324219 94.605469 324.503906 93.238281 C 337.625 85.804688 350.464844 82.984375 366.089844 87.476563 C 367.15625 87.785156 367.117188 88.335938 366.023438 88.300781 C 353.242188 87.90625 341.511719 91.8125 329.777344 94.722656 Z M 403.550781 136.625 C 389.585938 116.902344 370.859375 99.8125 349.507813 93.285156 C 349.746094 90.222656 372.847656 97.882813 376.703125 105.734375 C 384.011719 104.015625 389.964844 114.640625 391.640625 119.527344 C 405.765625 128.648438 424.773438 165.394531 436.648438 178.132813 C 431.261719 179.039063 413.175781 150.222656 403.550781 136.625 Z M 436.613281 102.78125 C 433.28125 100.550781 430.761719 97.027344 423.296875 91.871094 C 422.792969 91.519531 422.746094 90.929688 423.371094 91.09375 C 427.75 92.230469 435.234375 96.398438 438.085938 101.59375 C 439.03125 103.847656 438.085938 103.675781 436.613281 102.78125 "/>
</g>
</svg>
