<?xml version="1.0" encoding="UTF-8"?>
<svg xmlns="http://www.w3.org/2000/svg" xmlns:xlink="http://www.w3.org/1999/xlink" width="203pt" height="709pt" viewBox="0 0 203 709" version="1.1">
<g id="surface1">
<path style=" stroke:none;fill-rule:nonzero;fill:rgb(0%,0%,0%);fill-opacity:1;" d="M 12.742188 19.742188 C 10.808594 -7.054688 4.5625 -4.382813 3.007813 18.898438 C -5.195313 142.019531 5.542969 637.621094 11.726563 698.613281 C 13.089844 712.054688 13.496094 711.820313 14.078125 698.507813 C 15.597656 653.292969 13.253906 584.558594 15.28125 538.117188 C 18.984375 453.300781 25.503906 228.035156 20.613281 133.214844 C 18.617188 94.457031 15.492188 57.894531 12.742188 19.742188 Z M 11.019531 530.792969 C 10.949219 533.734375 10.542969 533.804688 10.480469 530.90625 C 9.464844 482.027344 4.445313 90.34375 9.308594 38.085938 C 9.613281 34.804688 9.90625 34.863281 10.167969 38.171875 C 14.019531 86.84375 15.863281 188.386719 16.089844 261.636719 C 16.164063 285.425781 12.140625 483.058594 11.019531 530.792969 "/>
<path style=" stroke:none;fill-rule:nonzero;fill:rgb(0%,0%,0%);fill-opacity:1;" d="M 189.964844 413.527344 C 155.21875 449.84375 147.699219 460.144531 100.097656 471.65625 C 100.460938 469.988281 101.1875 466.007813 101.691406 463.367188 C 157.5625 437.605469 209.578125 397.808594 198.160156 337.988281 C 196.109375 327.25 190.179688 323.816406 188.5 337.496094 C 180.265625 404.65625 132.671875 441.195313 106.464844 455.238281 C 104.914063 456.070313 104.820313 456.023438 106.15625 454.863281 C 152.722656 414.453125 211 322.128906 180.503906 194.546875 C 164.8125 128.898438 119.957031 77.636719 96.605469 67.738281 C 78.152344 103.101563 69.1875 158.773438 81.335938 234.738281 C 100.125 352.21875 107.039063 354.921875 98.175781 455.714844 C 94.964844 458.464844 92.058594 460.332031 88.890625 462.496094 C 94.671875 352.796875 88.078125 285.652344 38.742188 210.527344 C 32.984375 201.757813 31.015625 199.480469 30.929688 210.53125 C 30.671875 244.050781 28.136719 317.871094 26.359375 390.949219 C 24.917969 450.246094 22.527344 531.023438 23.894531 576.0625 C 24.054688 581.285156 24.421875 581.480469 25 575.953125 C 26.230469 564.265625 35.117188 277.476563 35.324219 216.355469 C 91.554688 288.960938 87.191406 401.007813 83.941406 465.652344 C 78.457031 469.25 70.527344 473.214844 63.945313 475.644531 C 60.15625 477.351563 60.328125 477.707031 64.542969 477.082031 C 71.316406 476.078125 77.851563 473.480469 83.59375 471.105469 C 81.191406 510.15625 70.832031 546.113281 58.832031 581.523438 C 52.8125 599.273438 47.152344 619.585938 38.550781 633.449219 C 32.964844 642.449219 35.355469 643.917969 41.660156 635.179688 C 72.921875 591.851563 89.871094 547.4375 99.65625 475.191406 C 129.066406 471.660156 181.976563 457.027344 199.71875 422.089844 C 206.644531 408.445313 200.554688 402.460938 189.964844 413.527344 Z M 97.609375 197.230469 C 89.421875 153.949219 85.292969 125.621094 98.632813 78.480469 C 99.644531 74.902344 99.09375 74.789063 101.886719 77.113281 C 124.914063 96.3125 161.574219 141.851563 175.164063 196.148438 C 203.808594 310.628906 148.375 410.292969 103.65625 450.964844 C 119.359375 353.273438 117.5 302.375 97.609375 197.230469 Z M 57.855469 600.941406 C 55.515625 604.925781 55.324219 604.929688 57.148438 600.703125 C 74.382813 560.769531 85.457031 508.433594 88.390625 469.144531 C 91.230469 467.941406 94.242188 466.554688 97.007813 465.386719 C 93.363281 494.675781 82.949219 558.265625 57.855469 600.941406 "/>
<path style=" stroke:none;fill-rule:nonzero;fill:rgb(0%,0%,0%);fill-opacity:1;" d="M 185.519531 449.125 C 161.4375 467.921875 146.972656 477.65625 119.476563 477.820313 C 113.675781 477.855469 113.558594 481.492188 118.613281 481.613281 C 146.191406 482.269531 178.726563 473.585938 191.546875 452.46875 C 194.660156 447.34375 191.859375 444.175781 185.519531 449.125 "/>
</g>
</svg>
