<?xml version="1.0" encoding="UTF-8"?>
<svg xmlns="http://www.w3.org/2000/svg" xmlns:xlink="http://www.w3.org/1999/xlink" width="367pt" height="699pt" viewBox="0 0 367 699" version="1.1">
<g id="surface1">
<path style=" stroke:none;fill-rule:nonzero;fill:rgb(0%,0%,0%);fill-opacity:1;" d="M 366.316406 542.988281 C 364.179688 477.453125 319.425781 411.277344 270.957031 378.425781 C 154.714844 299.003906 87.359375 204.015625 141.011719 107.347656 C 157.300781 84.15625 184.867188 68.71875 214.246094 72.566406 C 291.789063 81.214844 319.648438 202.289063 254.339844 258.148438 C 184.9375 299.003906 140.898438 196.242188 182.480469 152.703125 C 175.4375 216.96875 237.613281 205.742188 238.617188 172.136719 C 238.476563 124.570313 178.027344 126.296875 164.394531 168.480469 C 148.667969 191.925781 157.304688 286.914063 238.910156 273.011719 C 238.910156 273.011719 249.699219 315.410156 275.78125 307.347656 C 264.636719 292.242188 268.027344 269.214844 275.007813 253.863281 C 301.332031 227.785156 333.464844 103.847656 225.246094 65.523438 C 242.792969 19.222656 206.585938 0.898438 206.585938 0.898438 C 220.339844 30.445313 187.226563 57.542969 167.828125 70.371094 C 51.089844 125.433594 114.488281 294.921875 148.753906 326.714844 C 121.035156 341.316406 107.300781 380.351563 108.734375 384.152344 C 149.53125 349.949219 338.691406 406.625 344.246094 544.0625 C 337.945313 633.578125 305.238281 674.9375 214.183594 683.894531 C 162 688.902344 106.03125 666.046875 73.082031 618.160156 C 3.230469 504.746094 74.507813 409.535156 146.53125 411.90625 C 301.402344 417.003906 294.640625 578.511719 219.476563 613.324219 C 178.765625 632.183594 151.835938 597.050781 149.785156 587.929688 C 183.210938 610.734375 243.65625 544.242188 197.574219 508.730469 C 156.441406 476.886719 111.539063 535.609375 131.332031 576.523438 C 158.152344 631.058594 192.421875 639.308594 222.339844 626.707031 C 299.164063 594.355469 329.15625 418.425781 151.015625 399.136719 C 107.066406 394.378906 -13.222656 456.332031 51.558594 603.71875 C 7.914063 612.460938 0.761719 659.09375 0.761719 659.09375 C 53.679688 609.007813 111.398438 704.675781 217.347656 698.550781 C 324.824219 692.339844 368.621094 613.800781 366.316406 542.988281 "/>
</g>
</svg>
