<?xml version="1.0" encoding="UTF-8"?>
<svg xmlns="http://www.w3.org/2000/svg" xmlns:xlink="http://www.w3.org/1999/xlink" width="94pt" height="720pt" viewBox="0 0 94 720" version="1.1">
<g id="surface1">
<path style=" stroke:none;fill-rule:nonzero;fill:rgb(0%,0%,0%);fill-opacity:1;" d="M 44.71875 174.554688 C 7.433594 141.929688 20.296875 52.382813 42.90625 5.242188 C 45.421875 -1.640625 43.886719 -1.28125 39.984375 4.003906 C 6.0625 49.949219 -20.257813 127.664063 24.234375 176.578125 C 27.851563 180.320313 31.742188 180.089844 28.867188 175.886719 C 16.542969 157.871094 5.824219 112.144531 14.230469 80.425781 C 15.757813 74.660156 16.457031 75.558594 15.152344 80.589844 C 10.980469 96.667969 17.6875 140.152344 25.320313 155.421875 C 30.546875 168 35.683594 180.402344 33.207031 196.257813 C 25.355469 231.742188 0.503906 453.074219 25.144531 481.128906 C 21.1875 511.691406 30.226563 553.050781 36.523438 574.039063 C 38.441406 609.492188 41.398438 702.023438 42.515625 714.492188 C 43.054688 720.570313 44.453125 720.726563 44.695313 714.6875 C 44.984375 674.378906 44.65625 188.609375 44.71875 174.554688 Z M 17.769531 53 C 7.742188 86.621094 6.0625 107.113281 10.386719 137.3125 C 10.488281 138.039063 10.011719 138.117188 9.730469 137.414063 C 2.21875 118.59375 4.746094 78.742188 17.191406 52.773438 C 17.882813 51.335938 18.40625 50.863281 17.769531 53 Z M 32.972656 268.308594 C 31.164063 324.480469 25.777344 447.609375 25.78125 459.753906 C 25.78125 461.554688 25.183594 461.824219 25.007813 460.195313 C 21.503906 427.804688 26.980469 325.84375 31.210938 268.296875 C 31.800781 260.304688 33.261719 259.300781 32.972656 268.308594 Z M 37.824219 550.285156 C 37.574219 553.164063 36.917969 552.769531 36.871094 550.488281 C 36.09375 512.378906 36.386719 311.871094 37.261719 290.839844 C 37.40625 287.324219 38.152344 287.964844 38.328125 290.820313 C 39.96875 317.101563 40.835938 515.652344 37.824219 550.285156 "/>
<path style=" stroke:none;fill-rule:nonzero;fill:rgb(0%,0%,0%);fill-opacity:1;" d="M 60.519531 196.242188 C 58.039063 180.386719 63.175781 167.984375 68.402344 155.40625 C 76.039063 140.136719 82.742188 96.652344 78.574219 80.570313 C 77.269531 75.542969 77.96875 74.644531 79.492188 80.410156 C 87.898438 112.128906 77.179688 157.851563 64.859375 175.871094 C 61.984375 180.074219 65.871094 180.304688 69.488281 176.558594 C 113.980469 127.648438 87.664063 49.933594 53.738281 3.984375 C 49.839844 -1.296875 48.300781 -1.65625 50.820313 5.222656 C 73.425781 52.367188 86.292969 141.910156 49.003906 174.539063 C 49.070313 188.59375 48.738281 674.359375 49.027344 714.671875 C 49.269531 720.707031 50.667969 720.554688 51.210938 714.476563 C 52.324219 702.003906 55.28125 609.476563 57.203125 574.023438 C 63.5 553.035156 72.535156 511.675781 68.578125 481.109375 C 93.21875 453.058594 68.367188 231.726563 60.519531 196.242188 Z M 76.53125 52.757813 C 88.980469 78.726563 91.507813 118.578125 83.992188 137.398438 C 83.714844 138.101563 83.234375 138.023438 83.339844 137.296875 C 87.660156 107.09375 85.984375 86.601563 75.957031 52.984375 C 75.320313 50.847656 75.84375 51.320313 76.53125 52.757813 Z M 56.851563 550.472656 C 56.804688 552.753906 56.148438 553.148438 55.898438 550.269531 C 52.890625 515.636719 53.753906 317.082031 55.394531 290.804688 C 55.574219 287.945313 56.316406 287.308594 56.460938 290.824219 C 57.339844 311.855469 57.628906 512.363281 56.851563 550.472656 Z M 67.941406 459.734375 C 67.949219 447.59375 62.5625 324.460938 60.753906 268.292969 C 60.464844 259.28125 61.925781 260.285156 62.511719 268.28125 C 66.746094 325.824219 72.21875 427.785156 68.714844 460.179688 C 68.539063 461.808594 67.941406 461.539063 67.941406 459.734375 "/>
</g>
</svg>
