<?xml version="1.0" encoding="UTF-8"?>
<svg xmlns="http://www.w3.org/2000/svg" xmlns:xlink="http://www.w3.org/1999/xlink" width="461pt" height="264pt" viewBox="0 0 461 264" version="1.1">
<g id="surface1">
<path style=" stroke:none;fill-rule:nonzero;fill:rgb(0%,0%,0%);fill-opacity:1;" d="M 358.738281 131.320313 C 359.589844 132.207031 359.789063 131.851563 359.652344 131.21875 C 346.96875 117.800781 327.527344 95.3125 238.816406 115.214844 C 238.675781 115.074219 238.597656 114.371094 238.390625 114.164063 C 290.417969 101.8125 298.1875 104.386719 306.65625 103.78125 C 309.921875 103.636719 311.3125 100.886719 309.761719 100.28125 C 307.734375 99.40625 303.199219 98.578125 295.855469 99.234375 C 281.398438 100.53125 258.964844 105.453125 237.710938 112.109375 C 237.363281 111.691406 237.296875 111.019531 236.941406 110.570313 C 241.34375 108.785156 255.644531 104.574219 268.113281 102.21875 C 283.746094 99.085938 272.570313 93.90625 262.421875 97.480469 C 253.183594 100.839844 244.363281 103.453125 235.472656 107.652344 C 235.148438 107.28125 234.828125 106.746094 234.210938 105.8125 C 240.265625 102.199219 245.625 100.984375 251.570313 98.460938 C 252.28125 97.761719 250.300781 95.519531 243.496094 96.757813 C 238.945313 97.671875 234.71875 99.972656 230.703125 102.117188 C 230.285156 101.625 229.523438 101.089844 228.945313 100.519531 C 231.808594 98.769531 234.140625 97.902344 236.730469 96.992188 C 237.941406 96.414063 235.691406 94.242188 232.617188 94.746094 C 229.71875 94.761719 227.09375 96.28125 224.550781 97.492188 C 223.15625 96.859375 198.46875 82.246094 188.292969 102.03125 C 182.507813 100.410156 175.621094 99.390625 169.390625 99.722656 C 162.972656 65.992188 127.820313 65.894531 117.898438 76.707031 C 108.683594 71.59375 94.726563 69.96875 83.222656 82.082031 C 76.574219 76.761719 67.753906 74.871094 59.28125 74.03125 C 57.113281 66.472656 53.109375 59.269531 47.421875 52.609375 C 78.128906 14.582031 118.703125 4.441406 129.449219 4.621094 C 160.554688 1.597656 168.015625 37.953125 146.222656 55.132813 C 137.734375 61.617188 123.820313 64.582031 114.230469 57.441406 C 106.742188 52.679688 95.683594 53.589844 87.492188 55.621094 C 79.054688 54.996094 71.746094 56.042969 65.167969 59.375 C 63.152344 60.394531 63.429688 61.152344 65.546875 60.136719 C 73.332031 56.953125 92.742188 56.25 100.371094 61.222656 C 110.3125 64.019531 118.371094 66.390625 130.757813 63.042969 C 169.410156 60.796875 176.148438 -8.703125 118.992188 3.472656 C 84.871094 11.800781 61.902344 32.03125 45.828125 50.976563 C 43.636719 48.792969 37.808594 44.8125 36.425781 44.027344 C 38.066406 37.222656 38.214844 26.992188 36.394531 21.109375 C 32.007813 10.589844 29.191406 12.632813 29.8125 16.070313 C 31.851563 21.78125 32.683594 37.5625 31.351563 42.039063 C 29.828125 41.527344 28.433594 41.195313 26.84375 40.863281 C 26.386719 23.546875 22.113281 5.640625 10.144531 0.949219 C 6.742188 -0.347656 4.917969 2.242188 7.132813 5.011719 C 18.824219 13.339844 21.773438 27.46875 22.054688 40.488281 C -2.265625 42.824219 -6.492188 71.003906 9.808594 81.765625 C -4.375 112.894531 0.304688 128.199219 7.445313 137.789063 C 5.800781 147.933594 4.574219 165.78125 29.042969 179.660156 C -13.875 224.066406 14.152344 255.328125 19.261719 261.203125 C 23.179688 265.703125 21.234375 262.003906 20.328125 260.835938 C 12.261719 250.464844 8.886719 238.707031 10.144531 224.738281 C 11.894531 207.171875 27.421875 196.59375 37.644531 183.015625 C 55.265625 190.085938 80.46875 172.480469 78.460938 144.871094 C 79.195313 144.40625 79.988281 143.703125 80.703125 143.121094 C 90.710938 151.449219 101.492188 164.75 115.492188 158.238281 C 116.542969 157.539063 120.253906 156.351563 117.730469 154.460938 C 103.800781 154.949219 91.117188 152.074219 81.597656 142.414063 C 82.578125 141.433594 83.488281 140.679688 84.480469 139.550781 C 95.332031 148.578125 119.160156 158.101563 134.882813 140.8125 C 136.863281 138.289063 134.582031 137.03125 132.390625 139.070313 C 119.964844 149.464844 98.863281 147.914063 85.503906 138.539063 C 86.273438 137.351563 86.792969 136.609375 87.773438 135.5625 C 99.878906 142.046875 119.640625 148.582031 135.527344 128.574219 C 139.445313 128.574219 140.503906 128.910156 144.003906 128.492188 C 138.945313 166.058594 191.070313 165.054688 202.140625 139.28125 C 221.296875 150.421875 237.355469 139.34375 239.585938 124.929688 C 310.726563 100.292969 348.625 120.75 358.738281 131.320313 Z M 235.191406 111.0625 C 235.4375 111.582031 235.808594 111.964844 235.933594 112.359375 C 231.328125 113.714844 226.824219 114.921875 222.070313 116.109375 C 220.683594 116.457031 220.597656 116.234375 221.9375 115.761719 C 226.429688 114.179688 230.664063 112.515625 235.191406 111.0625 Z M 232.183594 106.578125 C 232.703125 107.316406 233.589844 108.121094 233.589844 108.328125 C 225.472656 111.386719 217.96875 115.164063 209.753906 117.28125 C 207.625 117.832031 207.589844 117.476563 209.671875 116.777344 C 217.425781 114.183594 224.335938 109.75 232.183594 106.578125 Z M 227.320313 101.601563 C 227.738281 101.742188 228.648438 102.808594 229.171875 103.289063 C 221.5 108.40625 214.160156 113.128906 205.820313 115.78125 C 204.800781 116.109375 204.714844 115.707031 205.695313 115.203125 C 213.195313 111.363281 219.890625 106.617188 227.320313 101.601563 Z M 189.0625 106.578125 C 191.863281 107.421875 195.082031 108.75 196.410156 111.621094 C 195.640625 113.441406 193.402344 114.839844 191.582031 115.609375 C 189.273438 113.089844 188.78125 109.730469 189.0625 106.578125 Z M 166.660156 100 C 155.835938 101.296875 149.230469 105.601563 139.921875 108.328125 C 138.871094 96.289063 131.800781 84.320313 120.253906 78.089844 C 134.785156 64.921875 163.683594 77.003906 166.660156 100 Z M 118.78125 79.351563 C 129.773438 85.089844 137.332031 96.570313 137.890625 108.328125 C 121.003906 109.59375 107.054688 91.6875 118.78125 79.351563 Z M 83.710938 87.121094 C 91.480469 94.050781 93.863281 103.710938 93.300781 113.089844 C 83.535156 108.574219 79.21875 93.410156 83.710938 87.121094 Z M 59.941406 106.078125 C 50.882813 100.761719 31.601563 103.859375 29.324219 122.679688 C 22.8125 123.589844 17.925781 124.28125 12.171875 131.011719 C 7.75 113.960938 22.320313 88.863281 24.980469 85.226563 C 34.042969 84.421875 38.746094 85.226563 58.167969 81.429688 C 60.082031 88.472656 60.148438 99.851563 59.941406 106.078125 Z M 48.140625 141.28125 C 52.535156 135.746094 57.625 127.242188 59.074219 121.699219 C 66.535156 125.8125 73.46875 136.441406 74.457031 144.714844 C 67.175781 148.84375 57.464844 150.609375 49.203125 147.878906 C 49.363281 145.050781 48.640625 142.90625 48.140625 141.28125 Z M 38.144531 144.589844 C 32.261719 147.53125 13.464844 145.046875 13.152344 133.53125 C 15.832031 129.148438 20.832031 126.355469 29.042969 125.199219 C 28.761719 132.761719 32.683594 139.550781 38.144531 144.589844 Z M 32.050781 125.199219 C 39.050781 125.96875 43.394531 133.8125 45.214844 140.039063 C 44.09375 141.230469 42.761719 142.5625 41.152344 143.121094 C 35.132813 139.480469 30.933594 132.269531 32.050781 125.199219 Z M 46.246094 143.121094 C 46.507813 144.449219 46.644531 145.335938 46.472656 146.898438 C 45.421875 146.339844 44.300781 145.988281 43.394531 145.078125 C 44.164063 144.3125 45.40625 143.75 46.246094 143.121094 Z M 32.050781 122.679688 C 32.589844 110.964844 49.492188 101.863281 59.355469 110.757813 C 59.042969 111.914063 58.953125 113.042969 58.300781 114.839844 C 55.238281 113.117188 51.753906 111.628906 47.941406 111.828125 C 47.03125 112.320313 46.050781 113.300781 46.472656 114.628906 C 49.589844 117.152344 53.664063 117.960938 56.761719 120.441406 C 54.242188 126.8125 51.964844 131.96875 47.171875 138.078125 C 44.933594 131.570313 40.03125 123.519531 32.050781 122.679688 Z M 56.761719 74.03125 C 46.191406 75.222656 37.082031 78.578125 26.792969 81.308594 C 33.304688 70.746094 38.65625 62.894531 45.726563 54.703125 C 50.554688 60.511719 54.75 67.601563 56.761719 74.03125 Z M 35.832031 46.800781 C 39.191406 48.875 42.046875 50.859375 44.164063 53.101563 C 36.953125 61.082031 24.367188 80.703125 23.878906 81.402344 C 22.984375 81.3125 22.167969 81.542969 21.117188 81.402344 C 27.136719 69.992188 32.472656 59.332031 35.832031 46.800781 Z M 30.824219 44.71875 C 29.703125 53.328125 20.371094 77.859375 17.921875 81.289063 C 16.730469 81.007813 15.53125 80.882813 14.226563 80.308594 C 20.457031 69.179688 25.09375 56.25 26.773438 43.582031 C 28.421875 43.816406 29.421875 44.089844 30.824219 44.71875 Z M 22.097656 43.132813 C 22.710938 53.917969 14.164063 72.523438 11.152344 78.894531 C -6.207031 68.148438 2.953125 42.0625 22.097656 43.132813 Z M 5.386719 121.941406 C 5.304688 123.664063 4.847656 123.53125 4.601563 122.085938 C 2.222656 108.074219 7.867188 95.3125 12.941406 83.132813 C 13.714844 83.691406 14.566406 83.835938 16.578125 84.371094 C 12.910156 90.195313 5.9375 110.386719 5.386719 121.941406 Z M 19.734375 84.789063 C 20.714844 84.882813 21.335938 84.980469 22.253906 85.066406 C 9.957031 103.65625 8.886719 121.097656 9.5625 130.6875 C 9.660156 132.058594 9.128906 132.355469 8.84375 131.261719 C 5.484375 118.25 13.132813 94.558594 19.734375 84.789063 Z M 31.5625 177.351563 C 16.722656 171.820313 5.800781 156 9.933594 140.601563 C 24.820313 153.039063 39.332031 147.320313 40.664063 146.339844 C 42.484375 147.8125 44.441406 149.140625 46.683594 149.628906 C 47.734375 161.53125 42.132813 171.679688 31.5625 177.351563 Z M 39.839844 180.328125 C 47.347656 168.542969 49.203125 158.660156 49.203125 150.398438 C 58.371094 152.078125 67.410156 150.703125 74.832031 146.921875 C 79.316406 171.089844 51.914063 187.300781 39.839844 180.328125 Z M 84.042969 137.226563 C 80.996094 134.902344 78.386719 131.972656 77.792969 132.71875 C 76.667969 133.789063 81.515625 136.769531 82.890625 138.289063 C 82.398438 138.921875 81.417969 140.117188 80.304688 140.789063 C 79.433594 140.285156 79.148438 138.964844 78.523438 139.6875 C 77.796875 140.160156 78.914063 140.933594 79.328125 141.609375 C 78.984375 142 78.476563 142.367188 78.308594 142.476563 C 75.925781 132.675781 70.703125 121.925781 61.324219 116.046875 C 61.632813 115.082031 61.910156 113.640625 62.242188 112.777344 C 67.078125 119.105469 78.363281 129.929688 85.78125 134.550781 C 85.21875 135.429688 84.394531 136.457031 84.042969 137.226563 Z M 62.851563 107.5625 C 62.992188 98.878906 62.78125 89.289063 61.03125 80.820313 C 68.382813 79.699219 76.222656 81.242188 81.472656 85.652344 C 72.460938 102.3125 89.59375 116.3125 92.8125 118.410156 C 92.460938 121.699219 91.148438 124.507813 89.886719 127.378906 C 80.085938 121.566406 73.492188 111.902344 62.851563 107.5625 Z M 134.671875 124.21875 C 129.632813 123.101563 124.03125 121.492188 119.273438 119.390625 C 116.527344 118.929688 115.351563 121.910156 115.773438 122.679688 C 119.691406 127.019531 127.070313 127.34375 132.601563 128.324219 C 122.765625 142.484375 101.679688 138.511719 91.738281 128.699219 C 93.351563 126.039063 95.007813 122.4375 95.425781 119.285156 C 98.957031 120.433594 103.199219 122.636719 107.277344 121.640625 C 110.199219 121.164063 112.546875 117.617188 107.445313 117.132813 C 103.554688 116.492188 101.097656 116.171875 96.4375 114.339844 C 96.925781 102.371094 93.792969 91.949219 85.253906 83.339844 C 94.667969 71.242188 111.867188 75.0625 116.472656 78.300781 C 103.828125 95.9375 122.621094 113.066406 137.933594 111.746094 C 137.921875 116.699219 136.503906 120.035156 134.671875 124.21875 Z M 136.574219 124.617188 C 138.320313 120.585938 139.882813 116.253906 140.085938 111.828125 C 149.257813 111.902344 157.632813 112.179688 165.613281 109.101563 C 165.050781 111.0625 164.210938 112.878906 163.09375 114.628906 C 156.652344 114.421875 149.421875 115.953125 144.757813 125.035156 C 142.257813 125.835938 137.8125 124.890625 136.574219 124.617188 Z M 160.570313 117.640625 C 157.070313 120.578125 152.683594 123.378906 148.273438 124.21875 C 148.925781 121.0625 157.042969 116.988281 160.570313 117.640625 Z M 146.992188 128.699219 C 156.855469 126.039063 159.871094 122.609375 164.351563 117.921875 C 179.191406 117.527344 193.242188 136.160156 199.683594 138.539063 C 185.230469 165.40625 140.128906 157.839844 146.992188 128.699219 Z M 201.546875 132.519531 C 190.207031 124.960938 180.382813 115.75 166.382813 114.628906 C 167.78125 112.601563 168.015625 110.691406 169.390625 108.050781 C 174.921875 106.53125 182.34375 105.390625 187.3125 106.789063 C 186.941406 109.179688 187.457031 113.144531 189.550781 116.101563 C 186.050781 116.871094 188.675781 120.246094 191.1875 119.265625 C 194.535156 122.671875 199.351563 123.589844 201.660156 124.710938 C 202.140625 127.871094 202.085938 129.578125 201.546875 132.519531 Z M 203.398438 113.164063 C 208.078125 109.464844 212.316406 104.898438 216.011719 100.28125 C 216.921875 99.089844 211.578125 98.578125 209.222656 100.769531 C 205.976563 102.851563 205.675781 106.703125 202.980469 109.136719 C 202.59375 109.480469 202.222656 109.203125 202.441406 108.742188 C 203.464844 106.5625 204.277344 104.0625 204.460938 101.75 C 204.902344 98.453125 202.300781 99.53125 201.171875 100.980469 C 199.421875 103.289063 198.371094 106.230469 198.160156 108.820313 C 196.132813 105.878906 193.332031 103.640625 190.113281 102.800781 C 194.820313 90.828125 209.289063 90.675781 223.113281 98.5 C 222.296875 98.984375 210.117188 109.148438 203.738281 113.511719 C 202.945313 114.054688 202.757813 113.671875 203.398438 113.164063 Z M 203.953125 134.117188 C 204.371094 131.316406 204.417969 127.953125 204.183594 125.199219 C 212.136719 127.636719 224.296875 130.449219 237.222656 125.691406 C 233.066406 140.863281 217.832031 143.128906 203.953125 134.117188 "/>
<path style=" stroke:none;fill-rule:nonzero;fill:rgb(0%,0%,0%);fill-opacity:1;" d="M 241.210938 93.699219 C 268.625 78.875 283.644531 78 301.136719 77.332031 C 302.683594 77.207031 302.960938 76.6875 301.441406 76.605469 C 278.921875 75.414063 246.984375 83.945313 238.710938 91.328125 C 236.6875 93.847656 237.523438 96.164063 241.210938 93.699219 "/>
<path style=" stroke:none;fill-rule:nonzero;fill:rgb(0%,0%,0%);fill-opacity:1;" d="M 459.730469 142.859375 C 450.609375 98.109375 368.9375 79.308594 307.128906 83.289063 C 286.292969 84.628906 268.742188 86.285156 254.535156 93.039063 C 250.242188 94.496094 255.214844 97.300781 260.527344 96.082031 C 274.039063 91.042969 291.773438 89.371094 307.640625 88.140625 C 404.824219 82.050781 442.851563 111.054688 454.917969 134.335938 C 468.375 160.539063 443.371094 202.660156 415.371094 182.179688 C 422.171875 176.980469 428.808594 171.261719 425.449219 155.160156 C 429.300781 153.269531 433.640625 152.898438 437.769531 153.410156 C 443.5 153.691406 446.800781 148.503906 438.847656 148.105469 C 435.699219 147.832031 429.410156 148.03125 424.191406 150.398438 C 414.949219 128.070313 372.222656 81.910156 282.113281 94.480469 C 277.03125 95.78125 281.570313 98.910156 292.171875 97.480469 C 384.390625 84.300781 418.449219 139.96875 422.929688 151.171875 C 409.25 159.070313 406.910156 175.019531 412.082031 181.621094 C 386.871094 193.6875 377.886719 169.566406 377.851563 166.289063 C 382.441406 163.84375 386.824219 158.398438 390.171875 151.171875 C 396.332031 149.070313 401.441406 152.710938 407.320313 152.921875 C 408.230469 152.429688 409.71875 150.121094 407.820313 148.730469 C 403.1875 145.214844 396.0625 145.511719 390.441406 147.566406 C 391.640625 139.035156 385.992188 102.859375 322.867188 100.375 C 314.378906 100.339844 312.441406 103.214844 322.617188 104.230469 C 385.179688 105.472656 388.761719 139.21875 388.140625 148.160156 C 377.472656 151.019531 375.066406 161.558594 375.488281 164.148438 C 366.886719 169.519531 347.074219 165.402344 351.882813 150.679688 C 356.289063 143.050781 365.25 143.261719 373.019531 143.609375 C 373.929688 143.050781 374.351563 141.929688 373.789063 141.089844 C 371.691406 139.480469 369.242188 138.921875 366.722656 138.570313 C 359.300781 138.851563 351.460938 143.820313 349.082031 150.890625 C 346.175781 166.488281 362.804688 171.351563 375.644531 167.101563 C 377.914063 175.144531 387.980469 194.671875 413.621094 183.441406 C 432.503906 200.882813 465.902344 179.417969 459.730469 142.859375 Z M 387.328125 151.660156 C 385.289063 156.167969 383.15625 160.390625 377.683594 163.386719 C 377.8125 155.914063 386.011719 151.878906 387.328125 151.660156 Z M 423.699219 155.71875 C 427.9375 170.855469 416.53125 179.527344 414.109375 180.359375 C 409.300781 173.945313 413.015625 161.472656 423.699219 155.71875 "/>
<path style=" stroke:none;fill-rule:nonzero;fill:rgb(0%,0%,0%);fill-opacity:1;" d="M 80.132813 154.347656 C 79.640625 152.921875 79.277344 154.363281 79.355469 154.542969 C 83.226563 163.414063 86.214844 175.433594 97.558594 175.664063 C 98.496094 175.539063 101.386719 175.960938 100.3125 173.859375 C 90.945313 169.671875 83.457031 163.691406 80.132813 154.347656 "/>
<path style=" stroke:none;fill-rule:nonzero;fill:rgb(0%,0%,0%);fill-opacity:1;" d="M 78.476563 162.953125 C 78.175781 161.859375 77.832031 162.921875 77.882813 163.0625 C 80.351563 169.890625 82 179.03125 90.476563 179.757813 C 91.1875 179.707031 93.332031 180.164063 92.628906 178.539063 C 85.820313 174.949219 80.507813 170.109375 78.476563 162.953125 "/>
<path style=" stroke:none;fill-rule:nonzero;fill:rgb(0%,0%,0%);fill-opacity:1;" d="M 75.675781 168.933594 C 75.535156 168.09375 75.199219 168.863281 75.222656 168.96875 C 76.558594 174.25 77.105469 181.195313 83.382813 182.367188 C 83.914063 182.382813 85.476563 182.886719 85.078125 181.617188 C 80.265625 178.429688 76.65625 174.425781 75.675781 168.933594 "/>
<path style=" stroke:none;fill-rule:nonzero;fill:rgb(0%,0%,0%);fill-opacity:1;" d="M 72.992188 173.9375 C 72.960938 173.300781 72.640625 173.839844 72.652344 173.925781 C 73.175781 177.972656 72.964844 183.195313 77.535156 184.625 C 77.929688 184.6875 79.050781 185.199219 78.863281 184.21875 C 75.5625 181.417969 73.234375 178.113281 72.992188 173.9375 "/>
<path style=" stroke:none;fill-rule:nonzero;fill:rgb(0%,0%,0%);fill-opacity:1;" d="M 81.101563 146.128906 C 80.296875 144.503906 80.082031 146.277344 80.207031 146.480469 C 86.191406 156.433594 91.605469 170.277344 105.144531 168.789063 C 106.238281 168.496094 109.746094 168.550781 108.140625 166.214844 C 96.34375 162.683594 86.503906 156.730469 81.101563 146.128906 "/>
<path style=" stroke:none;fill-rule:nonzero;fill:rgb(0%,0%,0%);fill-opacity:1;" d="M 69.34375 177.652344 C 69.476563 180.914063 68.949219 185.0625 72.488281 186.519531 C 72.800781 186.59375 73.65625 187.082031 73.578125 186.289063 C 71.140625 183.828125 69.515625 181.03125 69.609375 177.6875 C 69.632813 177.175781 69.339844 177.585938 69.34375 177.652344 "/>
<path style=" stroke:none;fill-rule:nonzero;fill:rgb(0%,0%,0%);fill-opacity:1;" d="M 65.703125 180.769531 C 65.8125 183.382813 65.390625 186.699219 68.222656 187.863281 C 68.46875 187.925781 69.15625 188.316406 69.09375 187.679688 C 67.144531 185.710938 65.84375 183.472656 65.917969 180.796875 C 65.933594 180.390625 65.703125 180.71875 65.703125 180.769531 "/>
<path style=" stroke:none;fill-rule:nonzero;fill:rgb(0%,0%,0%);fill-opacity:1;" d="M 62.261719 182.738281 C 62.347656 184.828125 62.011719 187.480469 64.277344 188.414063 C 64.476563 188.460938 65.023438 188.773438 64.972656 188.265625 C 63.414063 186.691406 62.371094 184.902344 62.433594 182.761719 C 62.445313 182.433594 62.261719 182.695313 62.261719 182.738281 "/>
<path style=" stroke:none;fill-rule:nonzero;fill:rgb(0%,0%,0%);fill-opacity:1;" d="M 59.007813 184.3125 C 59.078125 185.984375 58.804688 188.105469 60.621094 188.851563 C 60.777344 188.890625 61.21875 189.140625 61.175781 188.734375 C 59.929688 187.472656 59.097656 186.042969 59.144531 184.332031 C 59.15625 184.070313 59.007813 184.277344 59.007813 184.3125 "/>
<path style=" stroke:none;fill-rule:nonzero;fill:rgb(0%,0%,0%);fill-opacity:1;" d="M 227.335938 92.035156 C 248.214844 78.414063 260.136719 76.730469 274.035156 75.050781 C 275.261719 74.847656 275.449219 74.414063 274.234375 74.453125 C 256.199219 74.980469 231.296875 83.878906 225.183594 90.308594 C 223.738281 92.449219 224.554688 94.242188 227.335938 92.035156 "/>
<path style=" stroke:none;fill-rule:nonzero;fill:rgb(0%,0%,0%);fill-opacity:1;" d="M 217.378906 88.621094 C 216.320313 90.398438 217.054688 91.792969 219.171875 89.902344 C 235.230469 78.070313 244.671875 76.183594 255.699219 74.207031 C 256.667969 73.988281 256.800781 73.636719 255.828125 73.71875 C 241.449219 74.964844 221.964844 83.207031 217.378906 88.621094 "/>
<path style=" stroke:none;fill-rule:nonzero;fill:rgb(0%,0%,0%);fill-opacity:1;" d="M 212.019531 89.179688 C 224.355469 79.0625 231.820313 77.160156 240.546875 75.121094 C 241.3125 74.90625 241.402344 74.621094 240.632813 74.726563 C 229.195313 76.320313 213.972656 83.714844 210.53125 88.230469 C 209.761719 89.695313 210.402344 90.777344 212.019531 89.179688 "/>
</g>
</svg>
