<?xml version="1.0" encoding="UTF-8"?>
<svg xmlns="http://www.w3.org/2000/svg" xmlns:xlink="http://www.w3.org/1999/xlink" width="487pt" height="647pt" viewBox="0 0 487 647" version="1.1">
<g id="surface1">
<path style=" stroke:none;fill-rule:nonzero;fill:rgb(0%,0%,0%);fill-opacity:1;" d="M 472.539063 643.511719 C 455.25 639.75 432.921875 632.949219 415.765625 629.777344 C 408.53125 628.441406 401.242188 627.792969 393.601563 630.585938 C 374.5 627.25 358.722656 624.742188 343.574219 628.226563 C 327.5 626.292969 298.511719 621.171875 273.226563 627.867188 C 245 625.75 216 623 193.140625 629.871094 C 160.957031 628.660156 136.007813 624.757813 112.011719 634.964844 C 70.621094 633.824219 16.839844 635.582031 0.730469 646.652344 C 155 646 337.601563 646 482.496094 646.652344 C 485.097656 646.664063 480.5 645.246094 472.539063 643.511719 Z M 369.847656 634.046875 C 380.058594 635.175781 390.3125 636.738281 400.496094 638.085938 C 360.617188 636.316406 322.289063 630.96875 282.820313 628.503906 C 313.398438 625.039063 341.816406 630.945313 369.847656 634.046875 Z M 231.703125 643.175781 C 231.605469 643.175781 118.285156 643.753906 61.484375 643.34375 C 46.378906 643.628906 30.574219 643.902344 15.171875 644.082031 C 66.519531 633.914063 121.460938 638.5 176.050781 639.480469 C 227.945313 640.421875 284.035156 641.421875 334.910156 643.449219 C 297.808594 643.320313 268.21875 642.496094 231.703125 643.175781 Z M 121.808594 635.105469 C 140.210938 628.066406 175.910156 631.878906 203.097656 632.914063 C 264.871094 635.273438 296.785156 637.902344 344.554688 640.585938 C 269.378906 638.3125 197.800781 636.289063 121.808594 635.105469 Z M 204.535156 630.273438 C 230.75 625.5 276.5 631 324.425781 634.511719 C 371.816406 637.988281 396.0625 640.347656 418.632813 642.445313 C 346.269531 639.410156 277.160156 632.511719 204.535156 630.273438 Z M 350.5625 629.324219 C 359.613281 627.679688 374.882813 629.265625 383.898438 630.914063 C 403.5 634.5 420.808594 637.574219 440.273438 640.152344 C 411.207031 637.636719 379.21875 632.632813 350.5625 629.324219 Z M 398.691406 631.160156 C 409.109375 628.28125 432 635.5 448.484375 639.671875 C 436.855469 638.15625 415.15625 633.894531 398.691406 631.160156 "/>
<path style=" stroke:none;fill-rule:nonzero;fill:rgb(0%,0%,0%);fill-opacity:1;" d="M 486.007813 0.753906 C 466.101563 20.5 468.75 76.25 470.789063 150.425781 C 460.398438 173.25 462.867188 194.15625 464.410156 237.15625 C 457.570313 251.5 458.539063 270.5 461.421875 316.457031 C 453.980469 334 458.5 358 460.511719 385.796875 C 456.75 406 458 418.75 462.78125 447.925781 C 459.5 454.5 460.75 470.75 463.003906 485.835938 C 468.9375 525.5625 474.25 547 478.898438 586.082031 C 482.957031 620.199219 484.851563 641.75 486.007813 642.886719 C 485.175781 449.308594 485.816406 203 486.007813 0.753906 Z M 462.183594 325.121094 C 465.324219 377.851563 473.382813 439.558594 475.640625 492.835938 C 473.925781 479.230469 468.730469 434.78125 467.292969 421.140625 C 463.34375 383.691406 457.085938 348 462.183594 325.121094 Z M 461.832031 395.136719 C 467 435.5 472.4375 487.644531 475.640625 526.476563 C 472.355469 500.472656 467.601563 466.699219 463.785156 440.355469 C 460.402344 417.011719 459.75 405.5 461.832031 395.136719 Z M 463.753906 455.777344 C 467.5 480.5 472.550781 518 476.328125 552.449219 C 471.050781 523 459.75 467.25 463.753906 455.777344 Z M 468.847656 375.070313 C 464.09375 308 458.78125 268.75 465.21875 247.035156 C 469.25 343.25 475.5 411.5 476.992188 468.316406 C 475.5 450.5 473.242188 437.132813 468.847656 375.070313 Z M 467.992188 246.117188 C 466 203.25 464.199219 175.75 470.976563 161.015625 C 473.25 262.25 477.5 361.5 479.082031 439.847656 C 474.25 375.75 471.824219 328.605469 467.992188 246.117188 Z M 482.613281 426.214844 C 478.398438 338 477.800781 303.300781 476.257813 233.78125 C 473.386719 104.292969 467.300781 39.5 482.675781 14.046875 C 482.703125 67.398438 482.449219 376.648438 482.613281 426.214844 "/>
<path style=" stroke:none;fill-rule:nonzero;fill:rgb(0%,0%,0%);fill-opacity:1;" d="M 378.65625 619.570313 C 385.25 580.25 419 543.5 462.121094 539.695313 C 467.425781 539.226563 469.875 535.046875 461.585938 535.605469 C 418.75 538.5 382 574.5 374.375 618.308594 C 373.609375 622.699219 377.96875 623.671875 378.65625 619.570313 "/>
<path style=" stroke:none;fill-rule:nonzero;fill:rgb(0%,0%,0%);fill-opacity:1;" d="M 464.167969 552.691406 C 429.25 554.5 397.75 586.75 391.839844 621.777344 C 391.226563 625.417969 394.765625 626.214844 395.390625 622.824219 C 401.5 589.75 430 558.75 464.613281 556.078125 C 469.015625 555.738281 471.050781 552.332031 464.167969 552.691406 "/>
</g>
</svg>
