<?xml version="1.0" encoding="UTF-8"?>
<svg xmlns="http://www.w3.org/2000/svg" xmlns:xlink="http://www.w3.org/1999/xlink" width="516pt" height="483pt" viewBox="0 0 516 483" version="1.1">
<g id="surface1">
<path style=" stroke:none;fill-rule:nonzero;fill:rgb(0%,0%,0%);fill-opacity:1;" d="M 513.425781 427.003906 C 511.550781 424.957031 516.203125 423.519531 514.566406 420.585938 C 513.347656 418.066406 512.453125 415.0625 510.503906 413.355469 C 508.144531 411.40625 509.519531 407.269531 510.503906 404.824219 C 512.207031 400.515625 506.132813 398.382813 506.359375 395.074219 C 506.683594 389.792969 508.757813 383.738281 504.8125 379.636719 C 503.1875 377.765625 503.839844 375.085938 504.246094 372.808594 C 505.628906 365.578125 502.457031 358.347656 503.269531 350.382813 C 504.015625 346.414063 504.015625 344.46875 504.40625 342.746094 C 506.195313 335.839844 504.246094 329.746094 506.601563 323.488281 C 507.230469 320.9375 504.734375 316.746094 505.222656 313.496094 C 509.039063 307.5625 505.628906 301.550781 504.652344 295.375 C 506.4375 288.550781 506.519531 281.644531 503.027344 275.46875 C 502.070313 273.628906 504.246094 265.394531 501.726563 260.84375 C 500.507813 253.691406 503.171875 245.695313 498.558594 238.660156 C 494.902344 231.917969 499.53125 221.597656 494.902344 215.664063 C 490.757813 210.386719 494.578125 202.339844 489.78125 197.464844 C 485.3125 193.808594 484.339844 187.632813 483.527344 181.863281 C 481.738281 180.644531 480.824219 175.445313 481.414063 173.738281 C 482.875 169.109375 485.070313 164.800781 485.3125 159.683594 C 486.695313 153.183594 483.363281 146.4375 485.882813 140.183594 C 487.34375 135.667969 485.476563 112.882813 485.3125 99.230469 C 485.058594 92.417969 481.65625 85.824219 479.871094 79.160156 C 476.457031 67.542969 475.96875 54.785156 469.714844 44.386719 C 467.949219 38.574219 463.519531 33.695313 462.335938 27.761719 C 461.332031 22.738281 457.402344 20.496094 453.230469 21.292969 C 449.726563 21.960938 446.636719 28.074219 448.425781 33.660156 C 450.269531 39.6875 447.648438 47.476563 448.832031 49.097656 C 450.539063 51.210938 447.308594 54.839844 449.074219 56.328125 C 452.976563 58.765625 447.730469 63.21875 450.050781 64.699219 C 453.542969 66.566406 449.679688 69.820313 452.730469 72.90625 C 455.167969 75.585938 450.355469 77.773438 453.542969 81.109375 C 454.925781 82.492188 452.132813 84.714844 453.136719 86.148438 C 455.25 88.261719 451.796875 90.894531 453.300781 92.972656 C 456.714844 95.085938 452.242188 99.3125 455.65625 101.585938 C 455.65625 102.886719 454.761719 104.59375 453.707031 105.648438 C 452.472656 106.976563 453.867188 108.980469 455.089844 110.117188 C 456.46875 115.238281 449.644531 118.40625 452.976563 122.792969 C 452.082031 127.019531 449.132813 130.117188 446.210938 133.042969 C 445.722656 133.449219 445.382813 134.820313 445.90625 135.875 C 446.636719 137.90625 444.117188 139.613281 442.816406 140.589844 C 440.878906 141.761719 434.878906 143.269531 432.660156 142.863281 C 431.28125 142.699219 431.058594 145.738281 428.761719 143.515625 C 426.730469 141.5625 425.8125 145.230469 423.480469 143.839844 C 422.078125 142.164063 420.472656 142.578125 418.875 143.046875 C 417.140625 143.554688 408.628906 141.253906 406.90625 141.15625 C 404.628906 141.074219 402.84375 141.96875 400.890625 142.699219 C 397.886719 143.433594 395.773438 141.320313 392.847656 142.296875 C 389.109375 140.019531 381.546875 142.523438 376.679688 141.15625 C 375.054688 140.914063 373.671875 141.480469 372.617188 142.132813 C 370.964844 143.03125 361.566406 138.230469 357.179688 140.34375 C 354.984375 138.230469 351.734375 139.449219 348.972656 139.9375 C 346.941406 138.394531 344.828125 140.34375 342.796875 140.589844 C 340.441406 139.695313 331.695313 139.222656 328.738281 140.183594 C 327.519531 140.589844 326.300781 140.183594 325.246094 139.777344 C 321.621094 138.882813 301.226563 139.898438 297.441406 138.71875 C 294.660156 137.75 286.007813 136.257813 280.964844 137.257813 C 277.792969 137.988281 274.054688 138.558594 271.375 136.6875 C 269.261719 133.601563 264.710938 134.820313 262.84375 131.8125 C 259.1875 132.058594 257.238281 127.507813 253.660156 128.238281 C 252.359375 126.371094 250.609375 123.988281 249.191406 123.769531 C 244.886719 123.039063 244.398438 117.433594 239.765625 116.945313 C 236.898438 116.621094 237.070313 111.207031 233.496094 110.34375 C 229.761719 109.371094 229.601563 104.6875 227.335938 101.910156 C 225.386719 99.71875 224.328125 102.886719 222.054688 102.15625 C 219.289063 99.394531 218.316406 94.925781 213.847656 93.949219 C 213.523438 89.96875 210.355469 88.179688 207.429688 86.3125 C 204.503906 80.136719 200.359375 76.234375 196.539063 70.546875 C 196.054688 66.324219 192.316406 63.804688 189.714844 61.203125 C 188.171875 55.273438 181.996094 53.160156 179.722656 47.714844 C 177.039063 41.605469 170.871094 40.28125 167.359375 35.152344 C 165.351563 32.21875 160.21875 27.628906 152.988281 23.910156 C 149.496094 21.796875 144.703125 20.414063 141.125 18.304688 C 137.410156 15.007813 126.703125 11.417969 121.21875 12.453125 C 119.351563 8.632813 116.019531 5.789063 112.6875 3.839844 C 108.164063 -2.992188 93.050781 1.257813 88.164063 4.398438 C 83.796875 7.203125 82.984375 10.371094 82.785156 15.785156 C 77.585938 16.757813 72.957031 21.148438 67.835938 23.585938 C 58.585938 18.675781 53.375 19.960938 47.933594 25.496094 C 45.328125 28.148438 43.003906 31.207031 39.011719 31.597656 C 36.179688 31.875 34.15625 32.160156 31.671875 34.871094 C 29.390625 37.363281 27.328125 40.089844 25.097656 39.914063 C 23.339844 40.175781 22.101563 41.140625 21.046875 42.371094 C 17.457031 46.574219 16.777344 47.703125 12.753906 50.039063 C 9.085938 52.171875 10.839844 57.609375 6.003906 59.011719 C 4.652344 59.433594 6.003906 61.367188 7.140625 61.367188 C 8.035156 63.640625 6.328125 65.59375 7.707031 67.621094 C 8.144531 68.285156 7.492188 69.003906 6.742188 69.855469 C 3.441406 73.613281 -1.75 90.363281 2.273438 97.660156 C 2.863281 98.726563 3.898438 98.652344 4.476563 98.40625 C 7.339844 97.203125 4.828125 103.675781 6.976563 105.082031 C 7.957031 105.789063 9.414063 105.082031 10.066406 105.488281 C 9.984375 109.226563 9.730469 115.355469 12.257813 115.808594 C 16.160156 115.96875 12.863281 121.871094 15.183594 123.605469 C 18.597656 126.042969 17.132813 131.246094 19.410156 134.496094 C 19.570313 138.476563 19.816406 142.457031 21.359375 145.789063 C 21.523438 148.144531 21.683594 151.070313 23.554688 152.613281 C 23.542969 155.8125 22.414063 159.601563 24.933594 161.796875 C 31.355469 160.992188 32.789063 155.765625 35.011719 148.144531 C 35.464844 147.023438 35.171875 145.546875 36.636719 145.789063 C 37.324219 145.824219 37.445313 147.328125 37.121094 147.816406 C 36.546875 148.773438 38.425781 149.886719 38.910156 148.390625 C 39.640625 144.652344 41.347656 140.589844 44.027344 137.824219 C 44.273438 138.636719 43.949219 139.695313 43.621094 140.589844 C 42.824219 142.605469 44.347656 143.621094 45.003906 142.539063 C 47.523438 138.476563 53.914063 125.933594 55.160156 122.792969 C 58.144531 125.339844 58.738281 121.023438 59.0625 119.464844 C 59.222656 118.164063 60.441406 118.40625 61.011719 119.136719 C 62.039063 120.6875 64.992188 114.992188 65.640625 112.882813 C 71.492188 111.582031 71.734375 104.511719 73.847656 99.960938 C 80.207031 99.960938 82.773438 96.5625 86.6875 91.023438 C 89.292969 91.992188 91.617188 91.226563 92.332031 90.714844 C 94.136719 89.429688 95.566406 88.027344 99.035156 89.238281 C 112.769531 92.972656 111.46875 108.582031 116.75 118.894531 C 118.375 122.0625 120.4375 124.664063 121.058594 128.644531 C 123.089844 141.402344 126.90625 153.507813 129.832031 165.9375 C 132.433594 176.175781 136.773438 193.222656 136.65625 196.328125 C 136.011719 203.546875 136.171875 211.765625 136.820313 219.160156 C 134.707031 224.277344 138.214844 231.476563 137.0625 233.949219 C 135.355469 236.792969 133.894531 242.3125 135.277344 243.941406 C 137.632813 246.785156 135.683594 250.035156 134.871094 253.042969 C 134.148438 255.34375 137.796875 260.597656 135.683594 264.742188 C 134.382813 268.238281 138.550781 271.59375 137.796875 273.355469 C 135.589844 278.195313 139.144531 283.699219 137.796875 285.460938 C 137.226563 286.4375 136.496094 293.101563 136.820313 295.375 C 137.390625 299.355469 132.710938 302.574219 133.730469 306.101563 C 134.949219 310 135.335938 313.660156 133.730469 318.371094 C 131.945313 323.976563 135.765625 329.664063 131.945313 334.378906 C 130.679688 335.921875 130.171875 347.601563 131.214844 349.816406 C 131.746094 350.878906 131.707031 351.875 131.445313 352.847656 C 130.519531 356.316406 128.382813 360.035156 129.019531 364.195313 C 129.75 371.589844 124.714844 377.277344 125.527344 384.671875 C 123.414063 387.679688 123.089844 391.417969 122.195313 394.828125 C 118.78125 397.753906 117.644531 401.898438 117.15625 406.367188 C 114.394531 409.046875 112.6875 412.625 112.851563 416.6875 C 108.367188 418.25 110.664063 433.589844 115.207031 435.210938 C 117.644531 435.863281 117.96875 438.785156 119.269531 440.085938 C 121.453125 441.96875 125.769531 438.585938 125.117188 440.65625 C 121.878906 451.703125 128.21875 458.917969 141.53125 458.042969 C 148.492188 462.019531 169.511719 461.867188 176.390625 458.207031 C 184.722656 460.664063 196.429688 446.953125 195.890625 438.542969 C 195.679688 436.46875 198.976563 434.480469 199.222656 431.878906 C 199.464844 426.355469 204.910156 422.859375 204.503906 417.253906 C 204.230469 413.277344 210.109375 407.667969 210.191406 402.058594 C 211.574219 398.324219 214.660156 394.585938 213.441406 389.792969 C 211.679688 382.046875 218.558594 381.503906 216.203125 375.164063 C 215.570313 373.585938 217.992188 372.078125 218.964844 370.289063 C 220.429688 368.015625 217.179688 366.050781 218.152344 364.195313 C 220.882813 360.390625 218.34375 355.253906 220.242188 351.585938 C 221.625 348.90625 225.351563 339.5625 224.003906 336.328125 C 223.273438 334.820313 224.710938 332.535156 225.386719 331.046875 C 226.035156 329.257813 224.457031 327.371094 225.953125 325.84375 C 226.929688 324.789063 225.546875 323.164063 227.09375 322.675781 C 232.699219 326.65625 239.609375 323.054688 245.050781 318.613281 C 249.519531 320.808594 254.636719 318.9375 258.292969 316.421875 C 261.460938 317.800781 265.59375 317.636719 267.476563 316.257813 C 271.457031 312.765625 277.863281 315.691406 281.53125 312.765625 C 284.457031 310.246094 291.574219 312.898438 293.394531 310.40625 C 295.914063 306.425781 303.425781 310.527344 305.5 307.320313 C 308.503906 302.65625 313.707031 305.777344 316.632813 302.199219 C 318.152344 300.285156 320.671875 300.585938 322.890625 300.480469 C 331.777344 299.523438 334.148438 294.191406 337.269531 294.808594 C 346.210938 296.351563 350.921875 289.117188 359.535156 289.523438 C 361.769531 289.363281 363.371094 287.777344 365.078125 286.570313 C 366.785156 285.359375 373.503906 284.375 375.539063 286.601563 C 379.847656 290.824219 380.578125 297.570313 379.195313 303.582031 C 377.90625 307.820313 384.226563 331.515625 386.996094 333.808594 C 393.742188 339.496094 388.214844 349.816406 394.066406 356.070313 C 397.5625 359.484375 395.171875 366.980469 397.152344 369.316406 C 399.996094 372.242188 399.148438 378.578125 401.054688 380.609375 C 405.929688 384.996094 404.222656 392.066406 408.285156 396.78125 C 410.066406 399.398438 412.914063 415.453125 412.242188 419.128906 C 411.539063 422.964844 408.265625 433.042969 414.136719 435.375 C 413.960938 439.941406 414.929688 442.136719 421.003906 444.554688 C 422.378906 445.101563 423.632813 445.867188 424.292969 447.480469 C 425.269531 448.210938 426.8125 448.535156 427.785156 448.050781 C 430.46875 449.675781 433.3125 452.273438 437.375 451.789063 C 436.8125 455.257813 438.675781 461.945313 440.300781 464.300781 C 438.085938 475.003906 454.96875 483.613281 468.898438 482.011719 C 472.277344 481.410156 473.632813 479.296875 475.96875 479.25 C 481.574219 478.761719 485.394531 473.96875 488.644531 469.742188 C 492.789063 468.199219 495.722656 465.078125 498.558594 461.132813 C 502.214844 459.507813 503.433594 455.117188 505.789063 452.195313 C 510.90625 451.4375 514.121094 444.878906 512.613281 440.65625 C 513.265625 440.007813 515.378906 440.492188 515.25 438.644531 C 515.1875 434.355469 516.484375 430.277344 513.425781 427.003906 Z M 295.992188 151.3125 C 296.238281 147.414063 295.554688 143.453125 292.417969 140.589844 C 298.347656 139.390625 300.929688 148.277344 295.992188 151.3125 Z M 269.753906 150.664063 C 272.285156 148.273438 275.105469 147.144531 274.222656 143.261719 C 273.914063 142.050781 276.820313 141.550781 277.1875 143.285156 C 277.480469 146.496094 276.214844 150.464844 272.195313 152.257813 C 269.273438 153.667969 268.195313 152.140625 269.753906 150.664063 Z M 270.246094 156.996094 C 270.539063 160.210938 269.226563 165.1875 265.203125 166.976563 C 262.285156 168.390625 261.535156 167.625 263.09375 166.152344 C 265.949219 163.453125 268.46875 159.535156 267.878906 156.65625 C 267.566406 155.445313 269.878906 155.261719 270.246094 156.996094 Z M 259.078125 140.90625 C 261.144531 139.300781 263.335938 138.660156 262.953125 135.691406 C 262.808594 134.765625 264.742188 134.828125 264.890625 136.148438 C 264.878906 138.574219 263.734375 140.628906 260.597656 141.675781 C 258.3125 142.523438 257.808594 141.898438 259.078125 140.90625 Z M 257.808594 153.605469 C 257.796875 156.027344 256.648438 158.082031 253.511719 159.132813 C 251.226563 159.976563 250.722656 159.351563 251.992188 158.363281 C 254.058594 156.753906 256.25 156.113281 255.867188 153.144531 C 255.726563 152.21875 257.65625 152.28125 257.808594 153.605469 Z M 250.332031 148.136719 C 252.394531 146.527344 254.589844 145.886719 254.207031 142.917969 C 254.0625 141.992188 255.996094 142.054688 256.144531 143.378906 C 256.132813 145.804688 254.988281 147.855469 251.851563 148.902344 C 249.566406 149.75 249.0625 149.125 250.332031 148.136719 Z M 235.59375 124.992188 C 237.046875 125.734375 240.59375 127.550781 241.960938 126.289063 C 242.738281 125.765625 243.503906 127.542969 242.367188 128.238281 C 240.03125 129.320313 237.167969 128.402344 235.542969 126.695313 C 233.285156 123.964844 234.15625 124.261719 235.59375 124.992188 Z M 226.929688 118.589844 C 228.648438 117.148438 229.597656 114.351563 229.265625 111.664063 C 229.21875 111.28125 229.652344 111.007813 229.914063 111.253906 C 234.203125 115.296875 230.929688 120.085938 227.082031 119.421875 C 226.761719 119.363281 226.675781 118.804688 226.929688 118.589844 Z M 215.246094 98.738281 C 214.925781 97.480469 215.316406 96.480469 216.367188 98.011719 C 218.972656 104.097656 214.03125 109.867188 211.492188 106.054688 C 213.660156 105.207031 216.082031 101.996094 215.246094 98.738281 Z M 197.425781 87.554688 C 200.742188 90.519531 204.902344 92.398438 207.472656 90.878906 C 209.105469 89.917969 209.574219 91.273438 208.292969 92.269531 C 204.078125 95.546875 197.4375 92.910156 196.621094 87.777344 C 196.570313 87.433594 197.121094 87.285156 197.425781 87.554688 Z M 193.964844 162.328125 C 194.164063 165.136719 193.191406 166.1875 191.601563 167.210938 C 189.296875 168.6875 188.253906 172.0625 187.390625 174.398438 C 187.1875 174.957031 186.664063 174.769531 186.636719 174.261719 C 186.402344 169.855469 187.925781 166.964844 191.089844 165.660156 C 192.125 165.238281 193.097656 164.839844 192.804688 163.175781 C 191.957031 159.957031 191.910156 156.515625 194.589844 154.808594 C 195.851563 154.203125 197.375 153.609375 196.703125 152.453125 C 195.1875 149.554688 194.019531 147.300781 194.746094 144.699219 C 194.875 144.234375 195.464844 144.320313 195.679688 144.84375 C 196.472656 146.796875 198.355469 148.585938 198.816406 148.863281 C 200.464844 149.875 201.605469 153.710938 198.269531 155.132813 C 195.574219 156.28125 193.644531 157.863281 193.964844 162.328125 Z M 196.132813 124.742188 C 198.304688 126.949219 199.742188 131.519531 197.839844 134.496094 C 197.554688 131.753906 195.851563 127.117188 196.132813 124.742188 Z M 194.28125 109.972656 C 195.6875 111.828125 197.347656 113.300781 199.464844 114.261719 C 202.027344 115.40625 197.117188 118.09375 195.648438 121.136719 C 195.503906 121.441406 195.128906 121.203125 195.210938 120.746094 C 195.53125 118.894531 197.460938 116.863281 196.78125 115.777344 C 195.613281 113.441406 194.242188 112.265625 193.570313 110.191406 C 193.398438 109.664063 193.90625 109.480469 194.28125 109.972656 Z M 193.117188 104.109375 C 193.003906 104.734375 192.632813 104.679688 192.542969 104.003906 C 192.210938 101.542969 191.710938 99.796875 189.941406 97.746094 C 188.527344 96.113281 187.097656 94.488281 186.582031 92.40625 C 186.445313 91.847656 186.777344 91.785156 187.054688 92.289063 C 188.011719 94.039063 189.535156 95.238281 190.964844 96.539063 C 194.203125 99.472656 193.683594 100.914063 193.117188 104.109375 Z M 189.347656 70.050781 C 190.519531 70.074219 189.335938 67.871094 190.691406 68.597656 C 191.449219 68.972656 192.113281 70.523438 191.421875 70.710938 C 189.804688 71.070313 190.101563 72.496094 190.125 73.882813 C 190.164063 76.277344 187.640625 75.996094 185.949219 75.234375 C 182.816406 73.882813 187.152344 70.214844 189.347656 70.050781 Z M 186.023438 88.691406 C 186.015625 89.078125 185.527344 89.238281 185.273438 88.941406 C 182.9375 86.199219 179.34375 85.109375 179.316406 81.679688 C 185.035156 80.453125 186.144531 83.546875 186.023438 88.691406 Z M 184.164063 156.074219 C 183.664063 157.164063 183.425781 157.078125 183.496094 155.894531 C 183.59375 154.25 184.191406 151.304688 185.003906 150.664063 C 186.203125 150.816406 184.347656 155.566406 184.164063 156.074219 Z M 179.558594 52.996094 C 179.9375 51.875 181.800781 53.484375 181.671875 54.378906 C 178.84375 56.820313 181.308594 61.402344 184.128906 64.277344 C 184.417969 64.570313 184.265625 65.023438 183.910156 64.925781 C 179.980469 63.832031 177.199219 58.054688 179.558594 52.996094 Z M 177.796875 169.25 C 178.09375 168.804688 178.808594 169.109375 178.804688 169.691406 C 178.753906 178.945313 173.15625 183.78125 166.066406 185.214844 C 159.417969 186.5625 157.109375 190.753906 154.835938 200.996094 C 154.242188 203.683594 151.894531 214.898438 145.59375 213.714844 C 144.132813 213.472656 142.183594 215.828125 141.53125 213.714844 C 142.753906 210.660156 145.566406 209.136719 148.878906 208.625 C 151.933594 208.152344 152.839844 196.273438 153.589844 192.789063 C 155.171875 185.453125 160.035156 182.507813 165.890625 181.542969 C 172.6875 180.425781 173.488281 175.679688 177.796875 169.25 Z M 148.113281 306.671875 C 150.144531 314.335938 145.675781 317.394531 147.546875 323.246094 C 148.792969 326.1875 144.898438 332.535156 145.210938 341.996094 C 145.320313 343.113281 144.613281 342.851563 144.519531 341.925781 C 144.371094 340.511719 143.769531 339.085938 143.289063 337.640625 C 141.929688 333.546875 140.703125 328.742188 143.308594 323.398438 C 144.804688 320.320313 145.039063 315.484375 143.320313 311.734375 C 141.546875 307.585938 143.421875 303.324219 147.644531 300.074219 C 148.746094 298.988281 148.519531 296.1875 148.765625 293.992188 C 152.9375 297.832031 147.140625 301.957031 148.113281 306.671875 Z M 146.023438 365.179688 C 146.066406 364.902344 146.511719 364.742188 146.671875 364.917969 C 147.785156 366.136719 149.835938 365.300781 151.148438 365.054688 C 152.082031 364.878906 152.292969 365.410156 151.414063 366.050781 C 148.980469 368.035156 145.523438 368.300781 146.023438 365.179688 Z M 147.097656 378.660156 C 144.664063 380.648438 141.207031 380.914063 141.707031 377.789063 C 141.753906 377.511719 142.195313 377.355469 142.355469 377.527344 C 143.46875 378.75 145.519531 377.914063 146.835938 377.664063 C 147.765625 377.492188 147.976563 378.019531 147.097656 378.660156 Z M 139.339844 235.328125 C 140.476563 233.542969 139.339844 231.105469 141.9375 230.292969 C 147.097656 228.9375 147.789063 236.710938 145.839844 234.761719 C 143.796875 232.914063 142.105469 236.21875 139.339844 235.328125 Z M 148.765625 291.3125 C 145.828125 287.59375 148.519531 282.699219 148.925781 280.992188 C 154.292969 283.527344 149.046875 288.269531 148.765625 291.3125 Z M 165.339844 43.652344 C 163.5 53.871094 167.378906 56.339844 172.488281 63.886719 C 173.167969 64.824219 172.5625 65.148438 171.890625 64.835938 C 166.527344 61.667969 162.757813 55.175781 163.390625 49.503906 C 163.796875 46.742188 163.714844 43.328125 161.195313 41.296875 C 162.671875 40.195313 165.71875 40.789063 165.339844 43.652344 Z M 156.324219 84.292969 C 157.257813 89.03125 156.15625 89.117188 155.183594 85.578125 C 154.125 81.246094 155.675781 80.796875 156.324219 84.292969 Z M 82.625 18.871094 C 83.207031 21.140625 83.117188 23.019531 82.644531 24.992188 C 82.527344 25.488281 82.03125 25.546875 81.96875 25.050781 C 81.710938 22.929688 81.769531 20.6875 81.242188 18.710938 C 81.730469 18.140625 82.351563 18.105469 82.625 18.871094 Z M 81.796875 31.914063 C 81.917969 31.507813 82.402344 31.511719 82.453125 31.898438 C 82.632813 33.246094 81.917969 35.402344 81.359375 36.652344 C 81.261719 36.878906 80.707031 36.9375 80.71875 36.476563 C 80.738281 35.351563 81.402344 33.230469 81.796875 31.914063 Z M 9.902344 72.90625 C 9.308594 73.710938 8.207031 73.476563 7.546875 72.90625 C 6.9375 72.1875 8.460938 71.183594 8.925781 70.710938 C 9.648438 70.074219 10.226563 71.929688 9.902344 72.90625 Z M 21.984375 111.636719 C 22.019531 110.585938 22.179688 108.800781 21.765625 108.167969 C 18.902344 103.871094 16.960938 99.847656 21.113281 96.1875 C 24.300781 93.375 23.355469 92.242188 20.980469 90.613281 C 13.730469 85.648438 15.753906 78.015625 18.679688 76.804688 C 18.707031 83.785156 17.691406 86.621094 23.65625 89.710938 C 27.761719 91.835938 27.230469 93.988281 24.273438 95.863281 C 20.527344 98.234375 20.671875 101.449219 22.929688 106.976563 C 23.828125 109.171875 23.363281 109.933594 22.554688 111.695313 C 22.019531 112.867188 21.960938 112.5 21.984375 111.636719 Z M 27.835938 146.332031 C 27.792969 147.042969 27.316406 147.203125 27.167969 146.519531 C 26.011719 141.238281 24.820313 135.628906 23.308594 130.59375 C 22.851563 128.980469 23.691406 129.324219 23.96875 130.6875 C 24.441406 132.980469 28.355469 137.550781 27.835938 146.332031 Z M 35.253906 132.789063 C 35.207031 129.65625 32.863281 125.359375 32.160156 123.648438 C 31.140625 121.164063 30.699219 118.285156 31.515625 115.398438 C 31.738281 114.507813 32.898438 114.425781 32.707031 115.714844 C 32.214844 118.839844 31.582031 122.421875 34.167969 124.589844 C 35.710938 125.886719 37.476563 130.273438 35.253906 132.789063 Z M 50.042969 125.3125 C 48.660156 122.386719 45.410156 118.570313 47.523438 114.832031 C 51.121094 116.214844 52.628906 122.554688 50.042969 125.3125 Z M 51.421875 102.886719 C 50.359375 105.367188 48.253906 105.566406 47.359375 107.4375 C 43.542969 102.316406 53.78125 101.910156 49.066406 96.710938 C 46.792969 94.601563 44.191406 93.136719 45.003906 89.886719 C 45.328125 89.316406 45.957031 89.453125 46.546875 90.050781 C 49.71875 93.21875 53.234375 98.003906 51.421875 102.886719 Z M 51.421875 37.398438 C 50.019531 37.316406 50.445313 40.449219 48.335938 39.183594 C 46.820313 38.226563 44.800781 39.457031 43.949219 40.117188 C 34.378906 47.558594 27.710938 64.609375 29.402344 73.066406 C 29.707031 73.882813 30.636719 74.8125 31.351563 73.878906 C 32.226563 72.46875 32.324219 70.503906 33.292969 69.269531 C 33.496094 69.007813 33.800781 69.324219 33.683594 69.734375 C 31.792969 76.421875 30.1875 90.730469 32.492188 89.480469 C 35.714844 87.675781 33.464844 91.835938 33.871094 92.566406 C 34.445313 93.433594 35.011719 93.21875 35.414063 92.972656 C 36.554688 91.675781 35.578125 88.992188 37.773438 88.667969 C 39.316406 92.324219 42.160156 96.0625 40.699219 100.207031 C 39.359375 104.128906 37.449219 108.007813 37.933594 112.882813 C 34.699219 112.308594 34.921875 108.472656 34.625 106.789063 C 34.359375 105.316406 33.742188 104.335938 31.351563 105.242188 C 28.589844 106.84375 27.324219 109.941406 26.097656 112.960938 C 25.953125 113.316406 25.460938 113.285156 25.425781 112.921875 C 25.183594 110.351563 26.925781 107.78125 24.933594 105.648438 C 23.273438 103.757813 23.714844 101.992188 23.960938 100.207031 C 24.382813 98.269531 26.371094 97.734375 27.757813 96.8125 C 29.523438 95.632813 30.019531 91.371094 26.234375 88.667969 C 20.574219 85.363281 19.441406 77.96875 23.148438 73.878906 C 22.660156 73.066406 19.976563 72.824219 19.246094 73.066406 C 17.773438 73.203125 17.773438 71.171875 18.433594 70.953125 C 18.839844 70.953125 19.328125 70.953125 19.652344 70.710938 C 19.570313 64.78125 27.589844 62.625 27.859375 59.417969 C 28.265625 55.761719 28.101563 50.886719 32.085938 49.667969 C 34.371094 48.785156 35.113281 46.472656 32.75 45.714844 C 29.117188 44.550781 21.160156 51.28125 21.601563 55.355469 C 21.882813 61.664063 20.367188 64.558594 17.703125 66.078125 C 17.296875 65.023438 18.109375 63.804688 16.726563 63.152344 C 13.191406 61.824219 12.980469 66.183594 10.449219 62.851563 C 9.785156 61.980469 8.832031 60.714844 8.203125 60.210938 C 10.152344 58.421875 12.664063 56.574219 12.585938 53.402344 C 12.273438 51.707031 19.804688 49.335938 20.058594 47.714844 C 20.949219 42.691406 27.125 43.472656 30.34375 40.101563 C 32.203125 38.148438 33.984375 34.125 37.054688 33.515625 C 38.136719 33.296875 39.78125 33.5625 40.144531 34.878906 C 40.328125 35.546875 41.078125 35.433594 42.527344 34.460938 C 44.402344 33.203125 46.378906 35.164063 48.472656 35.640625 C 52.085938 36.457031 52.988281 33.414063 55.460938 30.394531 C 56.558594 29.054688 57.890625 28.515625 60.261719 29.363281 C 62.96875 30.210938 61.375 25.574219 58.65625 24.152344 C 55.179688 22.648438 50.867188 27.019531 48.835938 29.679688 C 48.046875 30.714844 47.0625 31.511719 45.410156 31.546875 C 48.410156 27.078125 53.308594 21.140625 61.171875 23.179688 C 66.707031 23.828125 70.632813 29.015625 71.65625 31.882813 C 72.0625 33.007813 71.347656 32.832031 70.355469 32.523438 C 64.316406 30.414063 58.746094 30.078125 55.722656 34.660156 C 54.746094 36.144531 53.757813 37.5625 51.421875 37.398438 Z M 65.058594 36 C 65.058594 36.585938 64.585938 37.0625 64 37.0625 C 63.414063 37.0625 62.941406 36.585938 62.941406 36 C 62.941406 35.414063 63.414063 34.9375 64 34.9375 C 64.585938 34.9375 65.058594 35.414063 65.058594 36 Z M 60.828125 105.085938 C 59.839844 106.042969 59.558594 105.796875 60.417969 104.511719 C 62.609375 101.21875 61.96875 101.039063 60.285156 95.59375 C 59.0625 91.640625 59.9375 86.8125 62.71875 85.011719 C 64.238281 86.578125 62.257813 90.199219 61.578125 92.972656 C 61.207031 94.5625 61.90625 96.039063 62.640625 97.449219 C 65.40625 102.742188 62.558594 103.554688 60.828125 105.085938 Z M 58.085938 42.433594 C 54.671875 41.621094 57.214844 38.925781 58.246094 38.777344 C 60.28125 43.859375 70.265625 43.480469 72.0625 40.484375 C 72.28125 39.855469 73.210938 40.027344 72.875 40.730469 C 69.785156 45.117188 62.886719 43.496094 58.085938 42.433594 Z M 68.40625 98.011719 C 67.023438 96.792969 67.59375 93.867188 69.378906 93.136719 C 72.195313 96.902344 79.472656 89.964844 81.242188 91.59375 C 77.949219 96.480469 72.0625 94.355469 68.40625 98.011719 Z M 100.632813 29.191406 C 99.886719 29.371094 99.617188 30.460938 100.175781 31.382813 C 101.394531 32.664063 96.824219 32.980469 95.203125 34.683594 C 90.304688 39.832031 85.726563 43.5625 79.128906 44.222656 C 79.285156 42.570313 79.050781 40.195313 81.242188 40.484375 C 83.804688 40.769531 99.265625 32.472656 102.9375 23.746094 C 103.257813 22.929688 103.914063 22.609375 104.480469 22.367188 C 103.667969 24.882813 103.722656 28.867188 100.632813 29.191406 Z M 105.457031 29.699219 C 111.140625 27.71875 114.882813 23.910156 117.5625 22.609375 C 119.421875 21.660156 116.121094 13.449219 114.800781 13.429688 C 112.414063 13.632813 112.757813 11.738281 112.355469 10.390625 C 111.875 8.765625 109.527344 9.183594 109.507813 10.574219 C 109.472656 12.855469 107.964844 17.367188 106.023438 18.304688 C 103.847656 19.019531 102.417969 20.421875 101.203125 22.066406 C 97.804688 27.398438 93.675781 30.574219 92.007813 31.910156 C 90.34375 33.242188 90.179688 32.6875 91.238281 31.140625 C 92.863281 28.867188 95.882813 25.347656 98.238281 23.394531 C 104.355469 17.597656 108.273438 8.273438 104.644531 2.296875 C 106.726563 1.9375 109.84375 3.191406 110.738281 5.382813 C 116.261719 8.226563 119.917969 14.320313 122.195313 20.007813 C 122.640625 20.984375 123.230469 21.320313 124.144531 20.820313 C 125.261719 20.390625 125.347656 21.238281 124.144531 22.203125 C 119.441406 25.433594 106.023438 32.035156 102.53125 32.117188 C 103.011719 30.949219 104.140625 30.007813 105.457031 29.699219 Z M 105.457031 51.617188 C 102.917969 50.605469 102.324219 49.082031 102.695313 46.742188 C 103.65625 40.609375 106.234375 34.308594 108.949219 34.308594 C 107.195313 39.140625 105.640625 42.789063 106.777344 47.503906 C 108.421875 51.960938 112.605469 51.941406 113.417969 54.378906 C 113.753906 55.683594 113.007813 55.871094 112.207031 55.027344 C 111.671875 54.46875 106.429688 52.023438 105.457031 51.617188 Z M 116.816406 97.738281 C 116.378906 98.050781 115.867188 97.726563 116.285156 97.066406 C 117.859375 94.605469 120.785156 90.871094 120.082031 89.074219 C 119.167969 87 119.421875 85.308594 120.242188 84.199219 C 122.546875 90.914063 124.765625 92.128906 116.816406 97.738281 Z M 119.589844 80.144531 C 119.675781 81.273438 118.828125 80.992188 118.863281 80.136719 C 118.78125 75.261719 121.371094 71.257813 124.957031 68.761719 C 122.214844 66.773438 119.703125 66.671875 119.863281 62.199219 C 119.847656 60.679688 117.945313 61.796875 117.054688 62.203125 C 115.585938 62.628906 113.414063 62.792969 111.714844 62.179688 C 111.296875 60.679688 111.550781 58.222656 112.851563 57.0625 C 114.078125 58.492188 116.023438 61.609375 118.5 60.359375 C 119.980469 59.609375 120.863281 59.746094 121.058594 61.9375 C 121.300781 65.265625 125.40625 67.136719 127.800781 68.296875 C 125.179688 71.171875 119.566406 74.753906 119.589844 80.144531 Z M 125.933594 125.558594 C 124.875 123.605469 124.414063 119.753906 126.339844 119.707031 C 131.117188 118.671875 132.6875 117.171875 133.773438 112.46875 C 134.183594 110.6875 135.25 110.277344 135.84375 112.3125 C 136.65625 115.238281 135.757813 118.738281 134.140625 120.113281 C 131.699219 122.144531 127.070313 121.980469 125.933594 125.558594 Z M 135.277344 166.914063 C 130.027344 157.683594 140.625 150.019531 147.648438 143.742188 C 152.773438 139.160156 155.921875 135.03125 155.648438 127.035156 C 155.226563 123.308594 154.800781 118.148438 157.703125 115.96875 C 161.976563 113.074219 160.867188 108.011719 160.136719 103.519531 C 160.007813 102.714844 160.730469 102.546875 161.125 103.308594 C 162.90625 106.746094 164.449219 111.882813 162.007813 114.589844 C 158.433594 118.976563 157.332031 124.578125 157.703125 130.433594 C 158.1875 136.089844 157.378906 142.863281 152.988281 146.765625 C 146.894531 152.371094 137.632813 158.464844 135.277344 166.914063 Z M 129.019531 426.597656 C 123.195313 431.109375 124.488281 433.347656 124.550781 437.972656 C 119.269531 435.476563 120.886719 425.222656 123.980469 423.671875 C 126.234375 421.816406 128.183594 420.117188 127.359375 417.347656 C 126.757813 415.320313 126.371094 413.347656 127.882813 411.972656 C 134.484375 407.320313 127.574219 397.398438 133.523438 392.582031 C 136.988281 390.105469 133.246094 378.902344 136.820313 373.621094 C 138.636719 370.789063 140.941406 363.46875 138.816406 358.441406 C 136.011719 350.914063 140.691406 346.890625 143.078125 346.890625 C 142.019531 351.660156 144.304688 359.449219 142.914063 361.921875 C 141.613281 365.089844 141.207031 368.992188 141.695313 372.402344 C 140.117188 375.164063 137.503906 379.835938 139.988281 384.511719 C 138.28125 387.515625 136.007813 390.117188 136.65625 394.261719 C 137.796875 397.753906 135.757813 401.9375 134.871094 402.871094 C 132.027344 406.285156 134.996094 410.992188 130.808594 415.546875 C 128.289063 418.636719 128.855469 422.617188 129.019531 426.597656 Z M 148.945313 425.71875 C 148.246094 423.242188 147.136719 423.203125 146.453125 424.875 C 144.765625 429.007813 132.019531 427.894531 131.742188 421.757813 C 136.960938 424.710938 140.789063 424.8125 146.328125 421.886719 C 147.65625 421 148.210938 421.3125 149.785156 422.589844 C 150.617188 423.261719 154.453125 426.289063 157.257813 424.84375 C 156.347656 427.996094 150.71875 430.816406 148.945313 425.71875 Z M 154.632813 407.484375 C 154.074219 405.503906 152.640625 405.765625 152.09375 407.101563 C 150.296875 411.492188 140.425781 407.925781 140.210938 403.199219 C 144.386719 405.5625 148.109375 406.761719 152.539063 404.421875 C 153.601563 403.710938 154.046875 403.960938 155.308594 404.980469 C 155.972656 405.519531 159.039063 407.941406 161.28125 406.785156 C 160.558594 409.308594 156.054688 411.566406 154.632813 407.484375 Z M 170.785156 330.476563 C 164.195313 339.363281 152.441406 337.773438 149.960938 331.320313 C 149.679688 330.585938 150.519531 330.023438 151.085938 330.484375 C 156.464844 334.867188 164.722656 334.101563 168.246094 329.210938 C 169.671875 327.230469 172.039063 328.695313 170.785156 330.476563 Z M 152.445313 314.070313 C 154.964844 317.5625 159.433594 318.375 163.332031 318.78125 C 158.351563 324.59375 148.074219 318.980469 152.445313 314.070313 Z M 166.476563 314.308594 C 168.996094 317.800781 173.464844 318.613281 177.363281 319.019531 C 172.382813 324.832031 162.109375 319.21875 166.476563 314.308594 Z M 178.867188 215.757813 C 174.992188 219.289063 173.757813 220.925781 174.910156 224.351563 C 176.25 228.339844 176 232.414063 171.4375 233.609375 C 168.207031 234.457031 166.511719 237.53125 164.609375 240.355469 C 162.429688 243.597656 154.644531 242.996094 150.726563 238.855469 C 149.339844 237.390625 150.125 234.507813 152.507813 236.375 C 156.496094 239.503906 159.175781 242.378906 164.113281 237.230469 C 165.933594 235.335938 168.671875 231.917969 171.351563 231.023438 C 173.066406 230.5625 172.132813 227.296875 171.660156 224.195313 C 170.9375 219.484375 170.058594 217.957031 174.25 215.863281 C 178.15625 213.917969 179.292969 211.285156 178.554688 205.0625 C 177.761719 198.417969 173.664063 192.160156 182.890625 185.195313 C 183.917969 184.25 182.972656 183.328125 182.238281 182.679688 C 182.972656 181.054688 183.769531 178.929688 184.253906 177.222656 C 184.40625 176.640625 185.355469 176.714844 185.164063 177.394531 C 184.5 179.171875 184.351563 181.796875 185.40625 182.160156 C 187.195313 182.773438 186.351563 183.984375 184.027344 186.578125 C 178.097656 194.226563 179.144531 197.765625 181.914063 205.105469 C 183.585938 210.324219 181.804688 213.085938 178.867188 215.757813 Z M 182.238281 355.097656 C 183.460938 355.179688 190.996094 360.859375 197.839844 353.144531 C 200.703125 359.730469 185.128906 365.597656 182.238281 355.097656 Z M 202.574219 393.492188 C 202.015625 391.511719 201.128906 391.484375 200.582031 392.820313 C 199.230469 396.125 189.035156 395.234375 188.8125 390.328125 C 192.988281 392.6875 196.050781 392.769531 200.480469 390.429688 C 201.542969 389.71875 201.988281 389.96875 203.246094 390.992188 C 203.910156 391.53125 206.980469 393.949219 209.222656 392.796875 C 208.496094 395.316406 203.996094 397.574219 202.574219 393.492188 Z M 204.5625 376.199219 C 203.863281 373.726563 202.753906 373.6875 202.070313 375.355469 C 200.382813 379.492188 187.636719 378.375 187.359375 372.242188 C 192.578125 375.191406 196.40625 375.296875 201.945313 372.371094 C 203.273438 371.480469 203.828125 371.796875 205.402344 373.070313 C 206.234375 373.746094 210.070313 376.769531 212.871094 375.328125 C 211.964844 378.480469 206.335938 381.300781 204.5625 376.199219 Z M 215.390625 361.515625 C 210.296875 361.988281 210.980469 357.574219 209.84375 357.246094 C 208.582031 357.015625 208.453125 358.535156 206.910156 358.941406 C 203.078125 359.625 199.800781 357.699219 200.765625 354.851563 C 203.636719 356.460938 207.136719 356.683594 210.070313 353.976563 C 212.628906 357.054688 214.246094 358.941406 216.503906 358.378906 C 217.664063 358.1875 218.308594 361.085938 215.390625 361.515625 Z M 207.835938 292.695313 C 207.191406 290.929688 204.277344 292.710938 205.074219 293.882813 C 207.890625 298.03125 190.546875 301.273438 189.472656 293.425781 C 194.914063 297.324219 199.199219 293.949219 204.203125 289.3125 C 211.257813 291.132813 219.789063 290.460938 221.242188 281.5625 C 221.171875 280.855469 221.417969 279.78125 222.730469 278.964844 C 225.742188 277.085938 227.804688 273.46875 229.484375 270.074219 C 230.242188 268.542969 231.625 268.324219 231.234375 270.269531 C 230.761719 275.480469 227.277344 281.730469 223.140625 282.101563 C 222.015625 282.203125 221.535156 283.355469 222.664063 284.976563 C 225.699219 289.324219 214.671875 297.605469 207.835938 292.695313 Z M 255.859375 298.691406 C 254.742188 298.511719 253.996094 299.511719 254.695313 301.359375 C 256.570313 306.316406 243.851563 311.644531 238.425781 305.207031 C 238.234375 303.339844 234.972656 304.351563 235.460938 305.683594 C 237.171875 310.394531 219.5625 309.289063 220.441406 301.414063 C 224.765625 306.53125 229.746094 304.308594 235.730469 301.039063 C 242.125 304.53125 250.5625 305.972656 254.152344 297.699219 C 254.253906 297 254.757813 296.015625 256.230469 295.546875 C 259.609375 294.460938 262.496094 291.460938 264.960938 288.582031 C 266.070313 287.285156 267.460938 287.410156 266.609375 289.199219 C 264.871094 294.136719 259.964844 299.339844 255.859375 298.691406 Z M 268.285156 312.902344 C 266.660156 308.921875 261.949219 309.652344 258.535156 308.191406 C 256.550781 307.125 257.453125 302.609375 262.4375 302.339844 C 261.496094 305.355469 262.523438 308.253906 266.828125 308.519531 C 268.140625 308.601563 269.34375 308.910156 269.992188 310.304688 C 270.429688 311.75 269.300781 312.765625 268.285156 312.902344 Z M 286.242188 308.296875 C 284.617188 304.3125 279.90625 305.046875 276.492188 303.582031 C 274.507813 302.515625 275.410156 298.003906 280.394531 297.730469 C 279.453125 300.746094 280.480469 303.644531 284.789063 303.910156 C 286.097656 303.996094 287.300781 304.304688 287.949219 305.695313 C 288.386719 307.144531 287.257813 308.160156 286.242188 308.296875 Z M 286.839844 223.054688 C 285.710938 223.15625 285.234375 224.308594 286.363281 225.929688 C 289.394531 230.277344 278.371094 238.554688 271.53125 233.644531 C 270.890625 231.878906 267.976563 233.660156 268.773438 234.835938 C 271.589844 238.980469 254.242188 242.226563 253.167969 234.378906 C 258.613281 238.277344 262.898438 234.898438 267.898438 230.265625 C 274.953125 232.085938 283.484375 231.410156 284.9375 222.515625 C 284.867188 221.808594 285.117188 220.734375 286.425781 219.914063 C 289.441406 218.035156 291.503906 214.417969 293.183594 211.023438 C 293.941406 209.496094 295.320313 209.277344 294.933594 211.21875 C 294.460938 216.433594 290.976563 222.679688 286.839844 223.054688 Z M 302.140625 300.714844 C 300.515625 296.734375 295.804688 297.464844 292.390625 296.003906 C 290.40625 294.9375 291.308594 290.421875 296.292969 290.152344 C 295.347656 293.167969 296.378906 296.066406 300.6875 296.332031 C 301.996094 296.414063 303.199219 296.722656 303.847656 298.113281 C 304.285156 299.5625 303.15625 300.578125 302.140625 300.714844 Z M 316.289063 288.605469 C 316.101563 289.15625 314.28125 295.390625 315.734375 297.648438 C 316.085938 298.1875 315.988281 298.992188 315.03125 298.4375 C 312.648438 297.058594 313.464844 292.738281 313.921875 290.214844 C 314.109375 288.746094 311.226563 289.371094 310.789063 288.183594 C 310.007813 285.753906 309.476563 281.90625 312.035156 279.363281 C 311.707031 278.894531 308.589844 279.378906 307.773438 278.019531 C 305.636719 274.175781 308.238281 271.660156 310.21875 268.160156 C 310.441406 267.765625 311.363281 267.75 311.070313 268.546875 C 308.847656 273.058594 310.203125 276.289063 314.128906 278.191406 C 313.617188 281.449219 312.183594 285.808594 315.011719 286.582031 C 316.339844 286.945313 316.726563 287.34375 316.289063 288.605469 Z M 318.746094 166.265625 C 319.640625 162.28125 317.769531 158.382813 314.683594 155.945313 C 319.253906 150.394531 319.351563 142.835938 312.730469 141.890625 C 313.421875 139.589844 320.769531 142.804688 321.101563 148.144531 C 321.101563 151.070313 319.152344 153.589844 317.203125 155.214844 C 323.652344 158.800781 323.148438 166.941406 318.746094 166.265625 Z M 337.816406 164.5 C 338.53125 161.316406 337.035156 158.195313 334.566406 156.246094 C 338.222656 151.804688 338.300781 145.757813 333.007813 145 C 333.558594 143.160156 339.433594 145.734375 339.699219 150.003906 C 339.699219 152.34375 338.140625 154.359375 336.582031 155.660156 C 341.742188 158.53125 341.339844 165.042969 337.816406 164.5 Z M 359.148438 149.410156 C 359.441406 151.734375 358.140625 153.925781 356.753906 155.410156 C 362.230469 157.617188 362.640625 164.128906 359.078125 164.03125 C 359.390625 160.78125 357.519531 157.871094 354.828125 156.242188 C 357.90625 151.382813 357.234375 145.371094 351.886719 145.277344 C 352.203125 143.382813 358.355469 145.207031 359.148438 149.410156 Z M 364.246094 261.453125 C 362.667969 262.421875 366.375 262.988281 365.5625 264.34375 C 363.808594 267.007813 360.644531 271.710938 356.160156 271.207031 C 356.324219 272.1875 356.960938 273.820313 359.039063 273.960938 C 357.238281 278.402344 353.175781 280.6875 346.671875 281.753906 C 346.117188 281.847656 345.375 280.960938 346.382813 280.621094 C 352.519531 279.253906 354.601563 275.398438 353.382813 270.085938 C 356.957031 268.03125 362.324219 266.015625 360.859375 262.648438 C 360.425781 261.648438 361.050781 261.289063 361.886719 260.988281 C 362.570313 260.742188 370.011719 256.464844 371.070313 253.277344 C 371.324219 252.511719 372.183594 251.976563 372.394531 253.34375 C 372.859375 256.402344 368.917969 258.910156 364.246094 261.453125 Z M 467.230469 232.296875 C 467.914063 231.695313 474.617188 223.316406 474.390625 219.125 C 474.335938 218.117188 475.09375 217.101563 475.960938 218.597656 C 478.121094 222.316406 472.765625 228.6875 470.1875 231.757813 C 468.796875 233.605469 473.371094 232.566406 473.046875 234.515625 C 472.222656 238.417969 470.6875 245.335938 465.246094 246.800781 C 465.328125 247.691406 467.367188 249.476563 469.851563 248.6875 C 469.777344 255.554688 464.429688 260.195313 459.027344 263.410156 C 458.425781 263.773438 457.15625 263.078125 458.175781 262.222656 C 464.6875 257.828125 465.347656 252.394531 461.5 246.769531 C 464.71875 242.746094 470.039063 237.941406 466.800781 234.699219 C 465.835938 233.734375 466.398438 233.027344 467.230469 232.296875 Z M 473.121094 297.550781 C 468.464844 302.480469 459.980469 303.332031 456.691406 296.132813 C 455.554688 293.613281 458.316406 292.109375 459.421875 294.257813 C 462.140625 298.761719 466.996094 299.621094 472.730469 296.671875 C 473.359375 296.347656 473.695313 296.945313 473.121094 297.550781 Z M 462.832031 114.101563 C 463.1875 114.457031 462.933594 115.0625 462.574219 115.027344 C 460.503906 114.824219 458.503906 115.667969 456.785156 117.105469 C 456.496094 117.347656 456.121094 117.160156 456.21875 116.832031 C 457.8125 111.550781 461.132813 112.40625 462.832031 114.101563 Z M 456.246094 92.3125 C 457.859375 92.742188 459.546875 92.335938 461.089844 91.421875 C 461.347656 91.269531 461.621094 91.46875 461.5 91.710938 C 459.558594 95.675781 457.046875 94.570313 455.925781 93.007813 C 455.691406 92.683594 455.972656 92.238281 456.246094 92.3125 Z M 454.25 125.664063 C 458.21875 121.828125 460.699219 124.199219 461.355469 126.511719 C 461.488281 126.992188 460.972656 127.398438 460.679688 127.191406 C 458.96875 126.003906 456.8125 125.761719 454.613281 126.179688 C 454.242188 126.25 454.007813 125.898438 454.25 125.664063 Z M 451.613281 135.324219 C 459.347656 132.207031 460.304688 138.570313 458.988281 141.320313 C 457.730469 138.398438 455.007813 136.734375 451.789063 136.089844 C 451.328125 135.996094 451.21875 135.480469 451.613281 135.324219 Z M 453.136719 401.246094 C 449.816406 404.347656 443.910156 404.023438 440.375 402.371094 C 438.320313 401.414063 439.019531 400.652344 440.621094 400.695313 C 444.714844 400.808594 447.992188 401.152344 452.367188 398.160156 C 452.921875 398.664063 453.503906 400.296875 453.136719 401.246094 Z M 437.980469 295.046875 C 440.699219 299.550781 445.554688 300.410156 451.289063 297.460938 C 451.917969 297.136719 452.253906 297.738281 451.683594 298.339844 C 447.023438 303.269531 438.539063 304.121094 435.25 296.921875 C 434.113281 294.402344 436.878906 292.898438 437.980469 295.046875 Z M 433.035156 316.742188 C 435.753906 321.242188 440.613281 322.105469 446.34375 319.152344 C 446.972656 318.828125 447.308594 319.429688 446.738281 320.03125 C 442.078125 324.964844 433.597656 325.816406 430.304688 318.613281 C 429.167969 316.09375 431.933594 314.589844 433.035156 316.742188 Z M 416.148438 290.460938 C 419.496094 295.972656 424.085938 297.78125 428.757813 295.363281 C 430.820313 294.105469 432.390625 296.835938 430.105469 298.386719 C 423.535156 302.804688 416.75 297.644531 415.355469 291.007813 C 415.183594 290.191406 415.78125 289.855469 416.148438 290.460938 Z M 424.542969 319.363281 C 419.882813 324.296875 411.402344 325.144531 408.109375 317.945313 C 406.972656 315.425781 409.738281 313.921875 410.839844 316.074219 C 413.558594 320.574219 418.414063 321.4375 424.148438 318.484375 C 424.777344 318.160156 425.113281 318.761719 424.542969 319.363281 Z M 399.105469 156.757813 C 398.234375 152.621094 397.628906 148.136719 393.496094 145.058594 C 400.132813 143.335938 403.6875 152.175781 399.105469 156.757813 Z M 383.699219 168.382813 C 384.414063 165.195313 382.921875 162.078125 380.449219 160.128906 C 384.105469 155.6875 384.183594 149.636719 378.890625 148.882813 C 379.441406 147.039063 385.316406 149.613281 385.585938 153.886719 C 385.585938 156.226563 384.023438 158.242188 382.464844 159.542969 C 387.625 162.410156 387.222656 168.921875 383.699219 168.382813 Z M 386.984375 249.996094 C 386.429688 250.085938 385.6875 249.199219 386.695313 248.863281 C 392.828125 247.496094 394.914063 243.640625 393.695313 238.328125 C 397.269531 236.273438 402.632813 234.253906 401.171875 230.890625 C 400.738281 229.890625 401.363281 229.53125 402.195313 229.230469 C 402.882813 228.984375 410.320313 224.707031 411.382813 221.519531 C 411.636719 220.753906 412.496094 220.21875 412.703125 221.585938 C 413.226563 224.988281 407.371094 228.164063 404.554688 229.695313 C 402.980469 230.664063 406.089844 230.800781 405.875 232.585938 C 405.414063 235.03125 400.953125 239.953125 396.472656 239.445313 C 396.273438 240.136719 398.136719 241.464844 399.351563 242.199219 C 397.285156 247.292969 391.945313 249.183594 386.984375 249.996094 Z M 437.828125 435.332031 C 437.746094 436.285156 437.0625 436.472656 436.730469 435.585938 C 434.941406 430.824219 433.050781 423.9375 434.207031 422.699219 C 437.535156 418.039063 437.261719 411.480469 433.472656 407.910156 C 431.363281 405.960938 429 402.953125 430.304688 399.136719 C 431.769531 393.609375 426.507813 391.085938 423.886719 387.839844 C 420.636719 383.941406 424.941406 377.441406 420.148438 373.945313 C 411.28125 367.96875 413.539063 357.472656 412.1875 355.828125 C 410.277344 353.144531 404.398438 347.542969 405.765625 338.683594 C 406.90625 330.476563 398.644531 326.890625 395.773438 320.96875 C 394.039063 316.433594 395.054688 312.628906 395.902344 308.714844 C 397.617188 300.816406 394.128906 290.742188 388.949219 285.054688 C 398.417969 282.539063 399.132813 310.3125 399.347656 317.394531 C 399.59375 324.058594 404.960938 326.214844 407.878906 332.832031 C 409.992188 338.601563 407.878906 345.835938 412.996094 350.382813 C 415.355469 352.574219 415.546875 354.628906 415.460938 356.59375 C 415.1875 362.730469 418.429688 367.96875 423.316406 371.265625 C 426.855469 373.726563 423.886719 380.855469 426.8125 383.941406 C 428.925781 385.972656 430.222656 388.246094 432.09375 390.523438 C 434.304688 393.472656 431.605469 399.949219 436.15625 401.898438 C 438.703125 403.066406 436.398438 409.941406 438.917969 413.355469 C 441.441406 415.648438 438.496094 427.609375 437.828125 435.332031 Z M 451.757813 440.898438 C 448.070313 442.664063 443.675781 441.523438 441.085938 439.152344 C 439.578125 437.773438 440.386719 437.308594 441.75 437.78125 C 445.234375 438.980469 448.050781 439.238281 452.617188 437.847656 C 452.5625 438.664063 452.328125 440.183594 451.757813 440.898438 Z M 455.410156 419.488281 C 452.089844 422.589844 447.152344 423.59375 443.617188 421.945313 C 441.5625 420.984375 442.261719 420.222656 443.867188 420.269531 C 447.960938 420.382813 449.164063 419.109375 453.542969 416.117188 C 454.730469 416.832031 455.777344 418.539063 455.410156 419.488281 Z M 468.429688 434.328125 C 466.804688 437.875 462.386719 440.300781 457.851563 440.085938 C 456.957031 439.597656 456.46875 438.785156 456.0625 437.972656 C 461.339844 437.425781 464.109375 435.945313 467.15625 433.210938 C 468.351563 432.140625 469.378906 432.269531 468.429688 434.328125 Z M 473.488281 410.976563 C 471.699219 414.878906 466.359375 418.300781 461.367188 418.0625 C 460.382813 417.527344 459.921875 416.15625 459.882813 414.988281 C 465.6875 414.382813 468.734375 412.757813 472.085938 409.75 C 473.398438 408.570313 474.53125 408.710938 473.488281 410.976563 Z M 486.921875 359.449219 C 485.964844 365.65625 477.015625 364.417969 473.761719 360.238281 C 472.734375 358.917969 472.644531 358.019531 474.847656 359.3125 C 478.828125 361.648438 483.53125 361.527344 486.125 357.046875 C 491.152344 359.957031 495.226563 358.835938 498.394531 357.777344 C 498.160156 362.945313 492.5 364.300781 486.921875 359.449219 Z M 494.65625 431.71875 C 494 431.730469 493.925781 430.335938 494.65625 430.175781 C 498.257813 429.25 500.578125 427.609375 502.714844 424.714844 C 506.023438 430.3125 500.71875 432.054688 494.65625 431.71875 Z M 504.703125 423.976563 C 503.269531 423.105469 504.074219 422.171875 505.171875 422.132813 C 506.457031 422.089844 508.1875 422.148438 509.691406 421.304688 C 510.089844 421.082031 510.757813 421.648438 510.679688 422.152344 C 510.015625 426.492188 507.320313 425.5 504.703125 423.976563 "/>
</g>
</svg>
