<?xml version="1.0" encoding="UTF-8"?>
<svg xmlns="http://www.w3.org/2000/svg" xmlns:xlink="http://www.w3.org/1999/xlink" width="528pt" height="343pt" viewBox="0 0 528 343" version="1.1">
<g id="surface1">
<path style=" stroke:none;fill-rule:nonzero;fill:rgb(0%,0%,0%);fill-opacity:1;" d="M 527.214844 229.976563 C 527.734375 224.710938 522.792969 222.597656 521.492188 217.363281 C 520.683594 212.523438 518.242188 202.285156 517.855469 199.554688 C 518.449219 184.5625 516.523438 137.710938 514.148438 122.332031 C 514.085938 117.132813 512.363281 101.273438 511.855469 98.03125 C 509.304688 81.8125 504.515625 55.234375 485.234375 43.878906 C 476.492188 38.730469 472.742188 35.796875 448.171875 37.632813 C 443.613281 34.980469 420.78125 30.871094 408.390625 31.191406 C 376.945313 31.492188 329.820313 39.859375 323.664063 41.402344 C 316.007813 43.273438 308.4375 41.828125 297.238281 40.585938 C 283.992188 37.828125 253.996094 34.015625 232.882813 32.640625 C 212.542969 31.3125 209.53125 30.152344 196.316406 15.082031 C 184.777344 2.871094 168.53125 -4.085938 153.257813 5.164063 C 150.585938 6.78125 133.496094 18.261719 130.699219 18.261719 C 125.632813 16.785156 117.238281 10.261719 115.296875 8.964844 C 106.703125 3.238281 100.386719 3.28125 88.546875 10.523438 C 79.898438 15.8125 68.625 22.378906 61.863281 28.078125 C 45.273438 34.011719 20.003906 35.542969 3.996094 29.539063 C -0.636719 27.914063 -1.492188 29.597656 3.386719 32.480469 C 16.875 40.445313 47.8125 49.5625 59.523438 44.980469 C 58.757813 52.027344 56.765625 61.339844 53.21875 66.71875 C 50.097656 71.449219 44.4375 80.023438 39.097656 82.644531 C 36.792969 83.777344 36.59375 85.921875 36.890625 88.289063 C 38.503906 101.117188 41.703125 102.554688 50.511719 104.875 C 53.640625 105.429688 56.484375 110.144531 60.464844 109.863281 C 64.121094 109.574219 71.742188 105.691406 74.34375 107.640625 C 76.636719 110.546875 78.53125 113.929688 79.679688 117.414063 C 79.996094 118.378906 85.847656 136.308594 87.148438 139.035156 C 88.773438 142.871094 91.113281 146.253906 94.949219 147.617188 C 98.136719 149.894531 102.230469 149.566406 106.195313 150.28125 C 114.175781 151.03125 114.03125 152.285156 120.039063 162.242188 C 122.316406 166.339844 125.386719 166.9375 126.800781 173.8125 C 130.597656 190.730469 136.109375 195.449219 145.976563 206.574219 C 151.796875 212.863281 158.996094 213.597656 167.238281 214.753906 C 170.730469 215.242188 173.835938 218.480469 175.292969 222.304688 C 176.203125 227.570313 175.878906 233.808594 177.761719 238.878906 C 174.914063 242.609375 171.6875 251.59375 175.617188 257.144531 C 178.132813 261.457031 176.578125 265.515625 176.105469 271.113281 C 175.734375 275.503906 170.644531 301.898438 167.703125 308.707031 C 164.144531 316.714844 160.542969 319.480469 154.554688 327.679688 C 149.285156 334.898438 145.621094 338.25 153.113281 340.683594 C 155.832031 341.566406 174.710938 343.085938 178.4375 341.777344 C 190.332031 337.605469 190.203125 330.53125 187.878906 326.757813 C 186.945313 325.246094 186.019531 323.761719 186.863281 321.886719 C 194.207031 322.132813 194.242188 315.871094 193.9375 313.511719 C 192.714844 304.503906 192.53125 300.730469 195.445313 290.9375 C 197.328125 284.605469 201.101563 271.660156 203.839844 265.632813 C 205.613281 261.734375 207.214844 255.300781 206.007813 249.472656 C 204.832031 243.804688 206.109375 236.988281 210.394531 230.886719 C 212.214844 231.664063 213.453125 238.527344 213.703125 240.148438 C 214.5625 245.78125 211.171875 249.847656 215.601563 255.484375 C 216.566406 256.714844 221.867188 261.992188 223.019531 264.046875 C 225.628906 268.703125 230.304688 286.4375 230.464844 293.121094 C 230.675781 301.84375 223.296875 310.863281 218.90625 316.6875 C 214.695313 322.273438 214.992188 323.648438 218.058594 324.78125 C 226.113281 327.753906 233.585938 328.550781 244.933594 325.972656 C 252.304688 324.296875 251.074219 317.292969 250.996094 313.105469 C 250.972656 311.78125 252.035156 306.707031 252.710938 306.125 C 255.652344 303.578125 257.664063 299.960938 254.441406 293.878906 C 250.003906 285.503906 248.980469 281.5 247.199219 272.566406 C 244.800781 260.511719 249.464844 263.132813 245.085938 251.109375 C 241.957031 242.519531 236.199219 228.75 240.816406 212.8125 C 253.605469 213.089844 278.582031 218.015625 285.277344 221.265625 C 294.894531 224.386719 305.296875 227.375 316.605469 226.53125 C 319.339844 227.527344 317.714844 233.808594 321.027344 233.421875 C 327.78125 232.203125 333.484375 228.035156 339.734375 224.46875 C 342.804688 222.714844 383.234375 199.878906 387.136719 196.5625 C 391.421875 196.179688 402.863281 194.417969 406.179688 197.863281 C 410.554688 207.664063 412.664063 213.804688 422.105469 217.363281 C 428.054688 240.878906 433.035156 242.902344 427.578125 265.160156 C 425.351563 274.234375 420.820313 291.066406 418.335938 295.953125 C 408.960938 300.355469 400.105469 309.476563 399.078125 310.621094 C 391.160156 319.457031 399.667969 321.246094 402.808594 321.941406 C 410.609375 323.667969 422.039063 323.570313 429.007813 319.976563 C 431.078125 318.910156 436.097656 318.230469 437.382813 308.105469 C 444.53125 308.363281 444.304688 300.113281 443.898438 294.019531 C 443.574219 291.335938 443.164063 287.679688 443.972656 285.066406 C 444.140625 283.953125 452.023438 258.1875 457.792969 246.355469 C 461.804688 252.132813 466.679688 280.933594 467.421875 295.238281 C 467.964844 305.667969 465.265625 310.917969 460.78125 314.542969 C 458.324219 317.320313 456.335938 319.917969 453.160156 323.855469 C 449.40625 328.507813 447.375 332.71875 451.320313 334.976563 C 458.578125 339.132813 476.457031 335.824219 482.648438 333.292969 C 488.585938 330.824219 489.214844 323.507813 489.046875 318.230469 C 488.925781 314.480469 487.875 312.5 492.734375 311.335938 C 499.785156 309.648438 492.644531 294.9375 491.574219 291.015625 C 487.898438 277.53125 486.914063 249.988281 489.476563 241.714844 C 493.761719 227.886719 488.910156 228.496094 483.800781 224.628906 C 478.648438 220.730469 474.933594 206.960938 478.269531 198.902344 C 482.363281 192.210938 484.441406 184.214844 490.097656 178.167969 C 498.257813 167.507813 498.808594 151.320313 499.914063 146.96875 C 502.15625 139.636719 503.488281 109.589844 503.230469 106.277344 C 503.878906 108.550781 505.160156 119.976563 505.371094 127.46875 C 505.765625 135.980469 507.910156 167.507813 508.363281 174.59375 C 510.054688 185.1875 508.492188 196.695313 508.039063 208.132813 C 506.804688 211.382813 501.277344 229.519531 502.773438 236.34375 C 503.375 239.824219 504.023438 241.367188 507.128906 235.890625 C 507.777344 236.605469 508.429688 237.320313 508.234375 238.425781 C 507.324219 240.3125 506.089844 242.324219 505.894531 244.664063 C 507.777344 250.449219 504.203125 256.691406 505.566406 261.957031 C 506.054688 262.980469 507.84375 263.777344 507.910156 265.402344 C 507.257813 269.691406 501.667969 273.054688 502.578125 276.777344 C 504.269531 282.074219 501.863281 290.101563 501.472656 293.808594 C 501.796875 294.457031 502.644531 294.457031 503.359375 294.390625 C 507.257813 292.832031 505.503906 287.566406 507.257813 284.445313 C 509.226563 281.992188 511.160156 283.148438 511.027344 285.226563 C 512.003906 289.320313 510.199219 291.5 511.9375 296.148438 C 513.042969 300.4375 513.101563 301.394531 514.929688 305.507813 C 519.03125 314.738281 517.984375 299.074219 517.074219 294.390625 C 517.910156 291.882813 519.132813 290.527344 520.519531 291.140625 C 520.648438 292.183594 520.761719 298.40625 522.535156 297.835938 C 524.988281 296.132813 523.363281 286.304688 522.859375 280.546875 C 522.402344 277.621094 521.820313 274.371094 522.273438 271.445313 C 526.824219 270.082031 521.625 264.945313 523.964844 262.28125 C 525.199219 262.632813 527.992188 264.035156 526.953125 259.289063 C 525.914063 255.910156 521.65625 242.261719 522.859375 236.085938 C 524.90625 236.164063 524.824219 238.359375 526.796875 237.144531 C 526.988281 234.804688 524.613281 231.015625 527.214844 229.976563 Z M 426.542969 315.09375 C 424.917969 316.808594 416.828125 317.613281 413.410156 316.839844 C 408.871094 315.804688 409.394531 314.898438 410.664063 312.949219 C 411.226563 312.085938 414.648438 308.398438 416.972656 306.417969 C 419.765625 306.613281 426.359375 308.953125 427.074219 309.460938 C 428.679688 310.597656 428.238281 313.300781 426.542969 315.09375 Z M 275.914063 45.5625 C 279.035156 46.148438 310.003906 51.433594 313.335938 52.980469 C 314.046875 53.308594 313.890625 53.996094 313.234375 53.925781 C 305.023438 53.0625 286.945313 50.175781 286.707031 50.113281 C 278.777344 48.8125 271.234375 47.710938 263.4375 46.214844 C 249.703125 45.871094 237.679688 41.566406 234.121094 41.210938 C 237.839844 38.398438 272.601563 45.5625 275.914063 45.5625 Z M 187.03125 49.402344 C 197.28125 48.839844 219.007813 47.726563 229.363281 46.070313 C 231.175781 45.78125 231.355469 47.210938 229.625 47.648438 C 219.539063 50.210938 197.074219 51.230469 186.765625 51.039063 C 184.203125 50.992188 184.378906 49.550781 187.03125 49.402344 Z M 153.863281 16.902344 C 161.605469 7.699219 171.859375 14.070313 173.40625 18.71875 C 176.78125 27.152344 170.289063 31.328125 171.394531 34.96875 C 172.511719 37.203125 174.628906 36.699219 175.617188 36.203125 C 175.03125 39.0625 175.164063 42.640625 177.632813 44.328125 C 179.0625 45.5625 182.574219 43.679688 181.859375 46.539063 C 181.011719 47.125 182.703125 49.984375 182.636719 50.4375 C 178.28125 49.652344 168.855469 45.824219 165.800781 43.09375 C 163.65625 41.566406 156.183594 37.375 153.453125 34.839844 C 150.574219 32.058594 148.121094 30.679688 146.300781 29.507813 C 147.148438 24.566406 151.03125 20.570313 153.863281 16.902344 Z M 51.363281 42.402344 C 42.835938 42.953125 30.417969 40.277344 22.175781 36.734375 C 21.675781 36.519531 21.828125 36.132813 22.523438 36.164063 C 29.070313 36.460938 43.257813 36.777344 47.238281 35.292969 C 50.683594 33.539063 62.253906 28.808594 61.082031 31.71875 C 60.238281 33.992188 58.660156 41.738281 51.363281 42.402344 Z M 79.480469 55.703125 C 78.441406 62.921875 63.714844 75.773438 63.878906 80.078125 C 64.527344 82.679688 67.519531 81.964844 69.078125 83.65625 C 75.980469 90.464844 76.316406 100.804688 68.429688 104.390625 C 66.152344 105.625 63.097656 105.691406 61.082031 107.054688 C 59.574219 107.21875 59.003906 106.324219 59.960938 104.746094 C 61.902344 102.199219 68.460938 102.097656 64.984375 98.152344 C 60.304688 99.824219 55.023438 102.261719 50.066406 101.625 C 45.609375 101.503906 40.710938 98.183594 42.269531 94.203125 C 43.296875 91.589844 43.726563 89.097656 41.699219 88.488281 C 39.921875 88.066406 39.96875 87.230469 41.15625 86.210938 C 42.359375 85.175781 51.851563 79.835938 55.296875 79.429688 C 56.402344 78.453125 55.023438 77.074219 52.179688 77.21875 C 54.195313 74.101563 59.4375 63.902344 60.105469 61.921875 C 61.046875 59.132813 64.59375 46.863281 66.542969 44.003906 C 69.570313 43.292969 72.671875 42.691406 75.125 41.859375 C 75.011719 47.578125 81.363281 50.960938 79.480469 55.703125 Z M 83.378906 40.300781 C 83.378906 34.578125 90.042969 25.882813 90.296875 21.742188 C 90.300781 20.742188 90.085938 19.863281 88.578125 19.824219 C 87.058594 20.386719 79.347656 25.542969 77.007813 27.949219 C 74.800781 30.546875 70.378906 36.203125 69.859375 38.21875 C 68.757813 38.214844 67 38.738281 66.542969 37.632813 C 62.847656 30.722656 79.253906 23.226563 82.015625 21.382813 C 83.835938 20.667969 89.28125 17.386719 91.050781 14.558594 C 95.792969 10.851563 100.800781 9.164063 107.429688 9.554688 C 111.53125 10.652344 114.972656 14.621094 114.449219 19.042969 C 111.816406 22.390625 98.574219 26.777344 92.15625 35.617188 C 90.335938 38.023438 83.363281 48.738281 83.378906 40.300781 Z M 97.355469 47.253906 C 95.898438 49.027344 93.574219 49.070313 95.109375 46.09375 C 98.859375 38.832031 110.355469 39.777344 111.574219 44.492188 C 103.0625 41.871094 101.261719 42.6875 97.355469 47.253906 Z M 98.238281 57.859375 C 96.746094 59.808594 91.074219 62.714844 89.96875 62.972656 C 91.59375 60.242188 91.769531 57.214844 93.523438 54.355469 C 94.792969 56.140625 96.355469 57.304688 98.238281 57.859375 Z M 104.984375 49.339844 C 103.382813 49.734375 101.894531 49.273438 101.660156 48.320313 C 101.425781 47.363281 102.535156 46.273438 104.140625 45.882813 C 105.742188 45.488281 107.230469 45.945313 107.464844 46.902344 C 107.699219 47.859375 106.589844 48.949219 104.984375 49.339844 Z M 102.4375 55.464844 C 108.4375 55.117188 110.179688 54.175781 113.242188 45.816406 C 116.257813 49.636719 110.054688 59.363281 102.003906 57.953125 C 98.707031 57.378906 100.148438 55.550781 102.4375 55.464844 Z M 113.800781 141.507813 C 107.078125 145.59375 101.578125 142.5625 98.980469 140.140625 C 100.800781 139.753906 103.011719 140.335938 105.089844 140.140625 C 110.160156 139.621094 114.320313 136.828125 116.789063 132.472656 C 116.53125 134.925781 116.921875 139.621094 113.800781 141.507813 Z M 119.453125 92.691406 C 116.464844 94.445313 112.953125 94.902344 109.769531 96.589844 C 105.058594 96.300781 96.882813 95.019531 90.535156 96.433594 C 89.789063 96.597656 89.738281 96.171875 90.484375 95.761719 C 95.902344 92.796875 103.535156 90.898438 106.519531 93.339844 C 112.371094 91.261719 118.9375 91 120.757813 83.65625 C 121.277344 81.25 124.007813 78.585938 125.371094 77.21875 C 124.070313 82.550781 119.78125 86.90625 119.453125 92.691406 Z M 123.160156 35.097656 C 127.304688 37.171875 132.214844 39 136.074219 41.914063 C 136.695313 42.386719 136.8125 42.851563 135.945313 42.394531 C 132.605469 40.632813 126.421875 37.515625 124.460938 37.308594 C 124.070313 36.789063 123.679688 35.683594 123.160156 35.097656 Z M 132.695313 160.382813 C 132.292969 162.492188 134.015625 164.191406 133.039063 165.234375 C 128.148438 161.253906 133.300781 151.386719 131.9375 144.820313 C 132 143.71875 132.78125 142.96875 133.496094 142.613281 C 132.5 148.257813 133.53125 154.605469 132.695313 160.382813 Z M 130.050781 103.480469 C 129.207031 103.351563 128.816406 102.699219 128.359375 102.050781 C 129.53125 99.839844 134.015625 91.453125 134.730469 89.113281 C 138.109375 83.65625 138.46875 69.191406 143.3125 66.820313 C 139.410156 75.855469 142.367188 89.910156 130.050781 103.480469 Z M 124.914063 49.660156 C 124.980469 49.140625 125.242188 48.75 125.695313 48.359375 C 131.15625 48.796875 141.425781 47.710938 142.078125 46.214844 C 143.414063 46.625 144.027344 47.1875 144.871094 47.578125 C 141.160156 52.347656 128.257813 52.191406 124.914063 49.660156 Z M 127.9375 29.839844 C 123.675781 24.121094 126.371094 20.324219 131.972656 24.722656 C 132.796875 25.371094 159.183594 43.402344 163.277344 45.574219 C 172.105469 50.261719 178.144531 52.910156 183.96875 53.59375 C 189.152344 54.195313 194.171875 53.050781 200.789063 53.363281 C 205.398438 53.601563 206.027344 54.21875 201.257813 55.382813 C 190.675781 57.957031 185.316406 58.515625 169.832031 55.117188 C 160.757813 52.777344 131.078125 34.054688 127.9375 29.839844 Z M 149.550781 50.113281 C 154.691406 53.160156 164.15625 59.222656 174.511719 61.386719 C 177.351563 61.980469 183.507813 62.503906 186.40625 62.367188 C 195.390625 62.496094 224.460938 55.878906 234.121094 51.683594 C 234.644531 51.457031 234.832031 51.816406 234.308594 52.214844 C 227.390625 57.453125 198.632813 62.527344 192.976563 63.335938 C 169.671875 65.859375 166.746094 59.929688 147.863281 50.894531 C 148.058594 50.375 148.800781 50.140625 149.550781 50.113281 Z M 169.183594 190.648438 C 169.003906 185.671875 170.15625 175.796875 172.496094 175.828125 C 172.433594 183.304688 171.308594 195.214844 172.171875 200.789063 C 169.34375 198.953125 170.871094 193.964844 169.183594 190.648438 Z M 172.953125 201.570313 C 173.730469 203.324219 173.992188 205.535156 174.511719 207.484375 C 172.921875 206.671875 171.003906 201.894531 172.953125 201.570313 Z M 170.964844 338.074219 C 167.738281 337.9375 158.375 338.300781 158.261719 335.605469 C 158.945313 331.394531 163.851563 327.738281 167.492188 325.007813 C 170.480469 325.789063 174.121094 326.699219 175.164063 329.949219 C 176.136719 331.054688 178.347656 332.484375 179.972656 333.070313 C 180.574219 337.578125 172.765625 338.152344 170.964844 338.074219 Z M 184.976563 272.550781 C 184.457031 281.328125 182.832031 289.972656 182.769531 299.074219 C 182.507813 304.792969 181.402344 309.863281 181.664063 315.777344 C 179.84375 318.574219 176.332031 318.636719 175.421875 321.367188 C 173.601563 320.394531 171.195313 319.9375 169.050781 320.589844 C 170.15625 318.378906 171.699219 316.929688 173 314.65625 C 176.382813 314.917969 176.332031 310.59375 176.984375 308.757813 C 178.671875 303.621094 179.453125 297.578125 179.972656 291.726563 C 180.101563 284.121094 183.289063 277.6875 183.871094 270.210938 C 185.109375 270.210938 185.027344 271.269531 184.976563 272.550781 Z M 183.417969 249.605469 C 184.523438 250.90625 184.132813 253.441406 183.546875 255.066406 C 181.613281 254.9375 182.265625 250.871094 183.417969 249.605469 Z M 187.121094 237.320313 C 185.886719 237.058594 186.214844 236.085938 185.886719 234.980469 C 184.589844 231.796875 184.328125 227.894531 186.082031 224.839844 C 187.707031 224.839844 189.722656 224.644531 190.4375 226.203125 C 188.617188 229.648438 190.371094 234.914063 187.121094 237.320313 Z M 224.5625 219.511719 C 220.988281 219.3125 215.089844 226.253906 213.058594 225.945313 C 214.210938 220.1875 231.949219 214.671875 235.226563 214.246094 C 230.863281 218.570313 227.53125 220.070313 224.5625 219.511719 Z M 224.5625 179.597656 C 228.074219 181.289063 226.175781 185.628906 226.644531 189.285156 C 226.253906 192.472656 225.6875 200.027344 221.640625 201.765625 C 223.914063 196.5 225.816406 185.789063 224.5625 179.597656 Z M 241.253906 322.675781 C 238.261719 322.960938 233.335938 323.679688 231.453125 321.367188 C 231.78125 318.421875 234.242188 312.3125 236.449219 312.914063 C 236.890625 313.035156 241.238281 313.84375 242.523438 314.855469 C 243.980469 316.003906 243.445313 320.914063 241.253906 322.675781 Z M 243.023438 288.476563 C 244.585938 291.335938 247.183594 298.746094 247.511719 299.074219 C 248.078125 303.6875 245.105469 307.847656 244.261719 308.628906 C 243.414063 308.433594 241.253906 308.480469 240.511719 307.421875 C 241.289063 305.5 243.609375 302.0625 243.804688 301.738281 C 243.480469 297.511719 241.464844 294.003906 240.488281 290.035156 C 238.734375 284.253906 238.410156 277.492188 235.808594 271.964844 C 238.164063 272.160156 240.945313 283.015625 243.023438 288.476563 Z M 387.34375 155.976563 C 384.960938 154.46875 384 151.507813 382.324219 149.308594 C 380.789063 142.871094 378.664063 135.527344 380.1875 128.632813 C 380.339844 127.933594 380.800781 127.902344 380.824219 128.589844 C 381.101563 136.105469 382.0625 144.476563 387.003906 149.957031 C 388.238281 151.84375 389.996094 153.46875 390.710938 155.546875 C 390.464844 157.140625 388.472656 156.691406 387.34375 155.976563 Z M 392.789063 189.285156 C 396.171875 185.839844 402.863281 181.566406 407.414063 180.703125 C 410.117188 179.800781 416.390625 182.082031 418.203125 187.203125 C 419.894531 188.960938 421.847656 190.84375 423.210938 192.859375 C 421 192.144531 419.375 190.519531 416.777344 190.0625 C 414.242188 188.960938 410.339844 187.902344 407.414063 187.984375 C 404.425781 188.179688 397.257813 188.390625 392.789063 189.285156 Z M 416.449219 202.804688 C 414.890625 200.855469 412.152344 198.75 410.078125 197.992188 C 409.039063 197.488281 409.300781 196.757813 409.949219 196.757813 C 410.664063 197.605469 417.085938 199.601563 422.105469 206.445313 C 423.40625 210.734375 428.28125 212.097656 430.6875 215.609375 C 423.867188 215.34375 421.339844 208.335938 416.449219 202.804688 Z M 442.191406 258.964844 C 440.242188 269.234375 436.472656 278.402344 432.832031 287.828125 C 432.167969 289.761719 431.226563 291.578125 430.476563 293.460938 C 429.898438 294.910156 429.003906 294.371094 429.449219 293.027344 C 429.710938 291.921875 435.105469 276.648438 435.820313 269.625 C 436.472656 266.179688 438.355469 262.800781 437.835938 259.289063 C 438.453125 256.621094 443.265625 257.058594 442.191406 258.964844 Z M 443.492188 243.234375 C 441.476563 242.585938 440.566406 241.089844 439.394531 239.660156 C 439.199219 239.011719 439.722656 238.230469 440.046875 237.644531 C 441.410156 238.101563 443.882813 239.59375 445.3125 241.21875 C 445.570313 242.648438 444.246094 242.5625 443.492188 243.234375 Z M 454.542969 242 C 450.382813 239.398438 449.015625 235.824219 444.855469 233.226563 C 442.839844 231.617188 437.902344 226.984375 436.730469 224.191406 C 434.746094 222.519531 430.429688 221.328125 428.105469 220.394531 C 426.714844 219.832031 426.894531 219.164063 428.289063 219.53125 C 429.246094 219.785156 430.203125 220.035156 431.140625 220.289063 C 436.082031 218.46875 437.121094 224.773438 440.175781 226.726563 C 444.402344 231.40625 449.796875 236.28125 454.085938 239.789063 C 454.949219 240.636719 455.777344 242 454.542969 242 Z M 440.828125 203.453125 C 437.835938 200.464844 436.992188 195.71875 435.367188 191.753906 C 436.082031 191.949219 437.25 191.949219 438.03125 192.402344 C 440.046875 193.378906 442.386719 194.355469 444.078125 195.523438 C 444.464844 196.628906 445.183594 196.953125 445.960938 197.667969 C 447.195313 199.035156 448.691406 199.878906 448.628906 202.023438 C 450.578125 203.714844 451.226563 206.703125 451.550781 209.238281 C 453.890625 211.773438 453.632813 215.675781 453.632813 219.054688 C 449.40625 216.390625 445.246094 211.382813 442.515625 206.898438 C 442.972656 205.46875 441.214844 204.625 440.828125 203.453125 Z M 479.847656 329.191406 C 478.996094 332.75 467.21875 333.398438 465.773438 333.453125 C 459.011719 333.695313 457.863281 333.617188 461.378906 327.386719 C 463.867188 322.976563 470.644531 322.558594 476.425781 322.898438 C 481.765625 323.210938 480.921875 324.675781 479.847656 329.191406 Z M 483.726563 289.128906 C 485.253906 296.210938 486.472656 305.554688 485.417969 307.976563 C 483.921875 308.105469 481.714844 308.238281 480.609375 309.082031 C 480.347656 310.511719 480.21875 313.4375 481.191406 314.996094 C 477.75 316.511719 474.640625 318.234375 470.792969 318.28125 C 468.171875 318.316406 467.703125 317.261719 469.472656 315.285156 C 472.550781 311.84375 476.847656 308.917969 475.925781 303.296875 C 478.136719 299.074219 474.496094 295.042969 475.277344 290.6875 C 475.472656 286.65625 474.171875 273.785156 472.613281 271.964844 C 473.144531 264.003906 478.78125 267.976563 481.714844 273.980469 C 481.84375 275.085938 482.492188 284.96875 483.726563 289.128906 Z M 480.738281 231.078125 C 484.054688 233.226563 482.363281 237.578125 481.714844 240.570313 C 480.804688 241.738281 480.21875 241.609375 478.851563 241.023438 C 477.878906 240.050781 476.773438 239.140625 475.277344 238.683594 C 474.5625 238.878906 473.71875 239.464844 473.394531 240.113281 C 472.871094 243.300781 475.863281 246.289063 473.914063 249.019531 C 470.207031 249.152344 470.792969 244.664063 468.453125 243.105469 C 468.648438 240.765625 466.566406 238.554688 468.453125 236.996094 C 468.648438 235.761719 469.167969 234.199219 470.597656 233.875 C 473.949219 231.523438 473.46875 227.675781 473.300781 223.738281 C 473.328125 221.957031 474.203125 221.785156 474.691406 223.28125 C 476.1875 226.53125 477.488281 229.324219 480.738281 231.078125 Z M 506.671875 231.078125 C 504.917969 231.859375 505.40625 230.074219 505.894531 228.738281 C 506.738281 225.359375 508.429688 215.738281 509.015625 214.828125 C 510.183594 214.894531 509.988281 216.585938 509.792969 217.496094 C 510.3125 221.65625 507.601563 225.765625 506.671875 231.078125 Z M 512.265625 241.023438 C 512.476563 243.722656 512.636719 246.566406 512.132813 249.019531 C 511.484375 250.839844 511.160156 253.246094 510.25 254.480469 C 509.859375 254.089844 509.273438 253.441406 508.492188 253.699219 C 509.636719 250.074219 510.640625 243.234375 512.265625 241.023438 Z M 508.039063 276.777344 C 508.039063 277.621094 507.519531 278.273438 506.933594 278.988281 C 506.671875 277.554688 508.410156 271.269531 511.484375 267.546875 C 511.59375 266.828125 511.808594 266.375 512.394531 265.53125 C 513.042969 268.421875 510.574219 273.589844 508.039063 276.777344 Z M 510.808594 150.113281 C 509.539063 142.257813 509.855469 131.550781 508.6875 123.109375 C 508.558594 107.769531 507.777344 92.496094 502.773438 78.195313 C 500.238281 69.226563 493.867188 60.644531 488.214844 53.558594 C 483.339844 48.554688 477.226563 48.097656 471.570313 44.328125 C 469.710938 44.328125 469.222656 45.589844 470.371094 47.023438 C 471.519531 48.449219 477.554688 52.0625 478.722656 53.039063 C 483.078125 56.355469 485.222656 60.839844 489.316406 65.0625 C 492.828125 70.265625 502.316406 84.628906 502.578125 92.039063 C 502.449219 90.9375 499.78125 85.929688 499.003906 84.109375 C 485.25 60.90625 474.386719 49.828125 459.351563 43.417969 C 458.070313 42.777344 457.285156 44.582031 458.535156 47.480469 C 459.371094 49.425781 463.640625 54.859375 465.136719 55.574219 C 473.003906 57.265625 476.839844 65.0625 480.933594 70.851563 C 485.417969 78.585938 487.105469 87.070313 488.539063 96.589844 C 491.78125 118.152344 489.058594 128.507813 486.066406 134.03125 C 485.742188 135.460938 484.964844 136.695313 484.183594 137.933594 C 481.191406 137.152344 481.0625 140.335938 479.503906 141.507813 C 478.074219 145.730469 478.332031 151.257813 473.914063 153.207031 C 471.441406 154.703125 464.664063 160.894531 462.34375 160.683594 C 450.03125 159.570313 469.230469 147.8125 472.613281 144.628906 C 477.03125 142.546875 480.671875 137.605469 481.519531 132.34375 C 481.761719 124.25 478.21875 122.207031 473.589844 128.898438 C 471.636719 135.398438 465.464844 138.972656 459.222656 139.492188 C 456.363281 139.558594 453.242188 140.46875 451.421875 143.261719 C 449.40625 146.445313 446.480469 151.0625 442.0625 150.738281 C 441.019531 151.320313 434.148438 151.90625 436.601563 146.058594 C 441.074219 144.445313 440.632813 134.863281 434.390625 137.023438 C 431.402344 137.476563 425.28125 141.652344 421.132813 137.933594 C 419.894531 135.332031 418.335938 132.082031 415.085938 131.5625 C 413.394531 131.367188 411.25 129.808594 409.625 131.042969 C 411.25 133.1875 412.484375 136.695313 411.316406 139.363281 C 406.847656 141.425781 404.042969 137.910156 401.046875 134.160156 C 396.207031 123.363281 395.242188 97.761719 402.410156 91.128906 C 402.996094 90.414063 404.878906 88.789063 403.058594 88.011719 C 400.785156 86.320313 367.199219 86.070313 359.25 104.847656 C 357.199219 110.402344 345.652344 111.148438 347.027344 119.210938 C 351.652344 125.609375 342.691406 136.875 332.207031 132.34375 C 315.246094 132.546875 304.222656 157.65625 275.785156 159.121094 C 271.160156 158.507813 266.324219 157.007813 261.875 152.425781 C 252.921875 144.964844 250.761719 141.996094 254.53125 134.941406 C 253.03125 121.902344 240.488281 129.480469 235.679688 128.246094 C 231.519531 127.46875 228.722656 124.996094 224.757813 124.019531 C 210.363281 119.738281 203.125 131.304688 202.269531 143.390625 C 201.835938 163.8125 184.53125 158.863281 175.617188 137.933594 C 173.796875 133.773438 172.042969 128.703125 167.035156 128.117188 C 164.695313 127.53125 155.53125 132.738281 151.4375 122.785156 C 146.480469 109.214844 148.601563 88.15625 159.367188 87.359375 C 158.945313 91.375 160.277344 95.289063 161.578125 94.574219 C 163.070313 93.796875 164.957031 93.992188 166.386719 94.378906 C 169.28125 96.652344 164.371094 101.269531 163.917969 105.171875 C 164.621094 111.269531 169.519531 108.886719 170.9375 107.382813 C 173.34375 104 178.769531 90.722656 187.902344 82.875 C 188.246094 84.847656 189.414063 89.585938 191.996094 88.921875 C 198.757813 86.96875 196.742188 78.066406 202.464844 75.203125 C 204.671875 75.855469 207.792969 75.203125 208.703125 78 C 208.769531 80.859375 206.816406 85.34375 210.394531 87.101563 C 213.382813 86.96875 214.164063 83.65625 216.179688 82.226563 C 219.105469 78.261719 222.890625 71.46875 232.558594 65.84375 C 233.339844 66.105469 233.289063 67.890625 231.585938 70.523438 C 230.15625 72.085938 228.414063 77.644531 231.910156 76.636719 C 231.84375 79.363281 232.234375 82.289063 231.453125 85.019531 C 230.527344 88.613281 234.898438 88.464844 236.136719 88.140625 C 241.921875 82.160156 245.070313 67.972656 252.96875 65.519531 C 253.554688 67.859375 251.019531 70.851563 254.074219 72.28125 C 255.554688 72.28125 257.78125 67.46875 259.859375 66.171875 C 260.429688 67.648438 257.339844 76.585938 256.738281 79.886719 C 256.230469 82.632813 257.269531 86.867188 261.09375 86.320313 C 266.199219 83.980469 268.179688 77.480469 268.894531 76.308594 C 270.324219 74.230469 272.40625 70.460938 275.589844 70.980469 C 276.566406 72.148438 277.152344 73.449219 278.582031 73.96875 C 280.660156 72.734375 281.832031 70.460938 284.171875 69.613281 C 284.886719 71.109375 285.015625 74.101563 287.484375 74.101563 C 290.476563 74.035156 293.402344 71.046875 296.652344 73.058594 C 298.40625 72.539063 299.96875 71.695313 301.785156 71.5 C 301.65625 72.929688 303.152344 72.671875 303.996094 73.191406 C 306.46875 73.253906 309.78125 74.621094 311.796875 72.539063 C 314.527344 71.238281 314.722656 67.273438 318.363281 67.40625 C 322.003906 67.988281 323.953125 65.324219 326.941406 64.285156 C 328.699219 63.179688 331.492188 63.113281 334.09375 62.726563 C 339.855469 67.007813 347.050781 64.3125 351.710938 59.019531 C 353.007813 56.679688 353.398438 53.949219 356.257813 53.039063 C 368.242188 52.320313 366.789063 45.738281 377.1875 44.980469 C 381.480469 42.507813 397.664063 40.167969 401.046875 39.324219 C 410.144531 38.609375 418.140625 39.777344 426.914063 39.195313 C 429.109375 38.398438 447.066406 41.925781 447.195313 41.859375 C 454.378906 41.078125 468.109375 41.484375 472.9375 42.640625 C 505.75 51.546875 510.769531 94.445313 510.03125 107.402344 C 510.339844 110.902344 512.253906 137.894531 512.78125 149.902344 C 512.851563 151.53125 511.027344 151.453125 510.808594 150.113281 Z M 514.734375 220.613281 C 515.238281 221.296875 515.1875 224.320313 515.253906 226.53125 C 513.367188 225.945313 514.179688 221.460938 514.734375 220.613281 Z M 515.058594 227.308594 C 515.449219 230.363281 518.570313 234.003906 517.269531 237.449219 C 517.1875 238.441406 516.863281 240.390625 515.886719 237.871094 C 513.695313 233.242188 514.261719 228.609375 515.058594 227.308594 Z M 515.382813 283.148438 C 514.472656 280.675781 514.34375 277.296875 515.515625 274.761719 C 517.203125 277.101563 516.488281 280.613281 515.382813 283.148438 Z M 517.722656 262.605469 C 516.878906 259.617188 515.238281 252.742188 517.269531 250.710938 C 517.203125 254.609375 518.765625 258.964844 517.722656 262.605469 Z M 519.609375 221.394531 C 520.390625 222.566406 521.753906 228.21875 522.078125 229.976563 C 520.390625 228.480469 519.609375 225.488281 519.152344 222.953125 C 518.8125 221.867188 518.765625 219.964844 519.609375 221.394531 Z M 523.183594 255.390625 C 520.0625 258.382813 521.363281 252.53125 520.84375 251.492188 C 519.738281 249.605469 519.867188 247.296875 520.195313 245.707031 C 520.972656 247.070313 521.492188 248.761719 521.949219 250.386719 C 522.597656 251.945313 522.535156 253.832031 523.183594 255.390625 "/>
<path style=" stroke:none;fill-rule:nonzero;fill:rgb(0%,0%,0%);fill-opacity:1;" d="M 53.738281 90.480469 C 47.628906 91.941406 50.226563 94.949219 49.578125 97.371094 C 49.496094 98.28125 50.359375 99.320313 51.59375 98.800781 C 51.851563 95.550781 55.234375 96.394531 57.378906 95.8125 C 61.890625 94.003906 61.835938 90.703125 61.277344 88.660156 C 59.652344 88.335938 56.566406 91.292969 53.738281 90.480469 "/>
<path style=" stroke:none;fill-rule:nonzero;fill:rgb(0%,0%,0%);fill-opacity:1;" d="M 434.261719 46.019531 C 429.59375 42.109375 414.488281 44.277344 408.976563 46.667969 C 407.675781 49.269531 403.710938 48.8125 402.929688 52.257813 C 400.65625 54.015625 403.515625 56.679688 401.5 58.5 C 402.996094 61.296875 406.828125 59.214844 409.300781 59.148438 C 412.875 60.1875 416.710938 58.238281 419.3125 56.027344 C 422.949219 52.714844 429.0625 54.144531 433.15625 52.453125 C 434.390625 52.453125 441.78125 57.402344 444.726563 54.144531 C 445.832031 53.558594 445.703125 51.867188 445.507813 50.699219 C 443.035156 47.058594 437.707031 48.292969 434.261719 46.019531 "/>
<path style=" stroke:none;fill-rule:nonzero;fill:rgb(0%,0%,0%);fill-opacity:1;" d="M 458.3125 117.78125 C 459.285156 119.339844 468.90625 117.78125 471.703125 115.3125 C 472.546875 115.246094 473.003906 115.699219 473.394531 116.414063 C 476.707031 118.039063 477.8125 113.621094 479.957031 112.644531 C 480.738281 112.125 483.726563 106.601563 483.402344 104.390625 C 483.988281 101.597656 483.699219 93.402344 479.371094 95.679688 C 478.464844 97.109375 480.28125 106.902344 473.71875 104.847656 C 471.035156 103.238281 469.574219 104.941406 467.347656 108.617188 C 465.136719 108.550781 463.773438 107.574219 461.691406 107.054688 C 460.003906 109.394531 459.09375 112.125 457.53125 114.53125 C 454.28125 115.179688 457.46875 117.195313 458.3125 117.78125 "/>
</g>
</svg>
