<?xml version="1.0" encoding="UTF-8"?>
<svg xmlns="http://www.w3.org/2000/svg" xmlns:xlink="http://www.w3.org/1999/xlink" width="536pt" height="260pt" viewBox="0 0 536 260" version="1.1">
<g id="surface1">
<path style=" stroke:none;fill-rule:nonzero;fill:rgb(0%,0%,0%);fill-opacity:1;" d="M 535.554688 83.652344 C 535.246094 83.425781 534.976563 83.332031 534.765625 83.335938 C 531.898438 84.652344 484.257813 104.523438 480.113281 102.277344 C 480.378906 101.808594 499.078125 82.925781 500.597656 74.714844 C 491.667969 76.570313 450.351563 103.964844 447.503906 104.203125 C 443.363281 104.550781 440.882813 104.585938 440.027344 104.296875 C 439.273438 103.035156 408.902344 43.050781 406.933594 41.921875 C 399.554688 37.820313 392.746094 44.722656 392.746094 44.722656 C 392.359375 45.007813 382.402344 42.269531 376.988281 48.027344 C 369.0625 45.445313 358.753906 48.429688 355.929688 46.734375 C 260.433594 -19.351563 235.035156 3.765625 231.359375 5.070313 C 208.976563 15.585938 171.394531 65.730469 165.140625 74.855469 C 160.488281 81.632813 98.761719 175.988281 2.402344 110.664063 C 1.761719 110.664063 1.261719 110.929688 0.945313 111.492188 C 47.304688 244.597656 164.257813 145.351563 164.710938 145.019531 C 165.132813 144.960938 165.542969 145.097656 165.945313 145.4375 C 169.273438 154.074219 150.851563 171.226563 156.417969 184.941406 C 156.785156 185.621094 176.578125 211.882813 167.363281 227.40625 C 165.351563 231.683594 162.753906 240.191406 163.738281 241.917969 C 163.738281 241.917969 167.15625 247.878906 167.140625 250.871094 C 167.839844 251.050781 168.304688 251.042969 168.574219 250.851563 C 168.574219 250.851563 172.867188 247.820313 174.648438 246.738281 C 175.125 247.164063 178.859375 251.546875 179.476563 251.722656 C 180.347656 250.769531 183.867188 246.539063 184.511719 246.21875 C 184.96875 246.726563 191.222656 255.585938 192.4375 257.019531 C 193.378906 256.535156 196.355469 246.980469 196.414063 246.839844 C 198.152344 246.785156 207.246094 254.921875 207.703125 255.15625 C 208.332031 254.207031 211.089844 247.28125 211.574219 246.632813 C 212.777344 247.03125 218.953125 253.679688 219.410156 254.476563 C 223.164063 244.703125 216.753906 234.355469 215.921875 233.007813 C 215.285156 231.992188 213.003906 215.90625 205.46875 204.320313 C 205.105469 202.933594 201.164063 189.828125 201.222656 183.777344 C 207.070313 174.824219 204.53125 161.273438 210.382813 157.21875 C 217.234375 153.226563 221.988281 145.230469 222.226563 144.988281 C 226.128906 151.53125 244.492188 164.226563 244.492188 164.226563 C 250.691406 162.96875 260.089844 153.816406 261.125 152.46875 C 241.800781 152.378906 223.511719 131.433594 223.777344 129.753906 C 223.871094 129.195313 238.835938 84.617188 222.605469 61.953125 C 226.128906 95.628906 199.449219 127.816406 198.019531 155.289063 C 197.625 157.023438 199.871094 191.765625 183.921875 183.925781 C 192.25 183.292969 193.476563 168.996094 192.988281 166.570313 C 192.855469 167.304688 185.050781 182.023438 177.808594 177.679688 C 189.710938 172.707031 194.195313 151.160156 195.671875 144.152344 C 199.027344 116.382813 225.707031 93.933594 217.144531 57.644531 C 213.425781 51.585938 198.144531 52.371094 197.386719 52.058594 C 198.871094 51.121094 232.058594 44.808594 237.773438 82.917969 C 238.117188 82.261719 245.1875 59.632813 255.410156 46.980469 C 255.492188 46.660156 234.816406 45.101563 230.402344 44.484375 C 231.9375 43.84375 241.800781 40.574219 258.601563 43.828125 C 262.21875 40.796875 264.488281 38.675781 265.4375 37.453125 C 253.65625 29.140625 226.882813 32.355469 226.183594 31.882813 C 228.824219 28.722656 261.28125 24.902344 268.710938 36.769531 C 268.5 37.097656 237.988281 65.5625 238.125 124.753906 C 237.429688 122.992188 234.832031 109.445313 234.808594 105.871094 C 234.585938 106.132813 228.863281 128.214844 228.730469 129.207031 C 250.691406 153.226563 276.464844 144.589844 277.625 142.058594 C 277.625 142.058594 271.867188 56.5625 314.003906 77 C 272.1875 75.617188 286.96875 130.480469 282.667969 140.097656 C 282.78125 140.410156 298.867188 135.96875 308.550781 136.921875 C 308.339844 136.363281 292.515625 103.886719 308.957031 93.53125 C 309.007813 94.066406 299.820313 125.167969 320.257813 140.007813 C 348.734375 142.003906 352.703125 177.894531 372.777344 193.269531 C 355.246094 190.917969 343.652344 147.878906 329.507813 147.574219 C 329.519531 147.996094 333.808594 154.710938 332.042969 158.867188 C 325.867188 141.6875 311.9375 139.898438 310.046875 140.074219 C 310.046875 140.074219 268.058594 139.25 257.644531 161.195313 C 250.269531 178.214844 273.40625 216.953125 274.453125 220.035156 C 279.398438 234.527344 282.558594 250.179688 283.359375 251.1875 C 283.40625 251.238281 288.984375 257.324219 289.644531 257.90625 C 290.046875 257.042969 291.78125 251.175781 291.992188 250.574219 C 293.476563 251.441406 299.535156 257.535156 300.136719 258.050781 C 300.5625 258.25 301.0625 258.195313 301.644531 257.871094 C 301.851563 256.933594 302.609375 251.046875 302.859375 250.285156 C 304.445313 251.398438 312.472656 259.242188 312.472656 259.242188 C 312.671875 259.425781 312.648438 249.042969 312.785156 248.292969 C 315.199219 248.964844 326.828125 254.433594 327.894531 254.664063 C 327.910156 253.714844 326.820313 247.75 326.757813 247.085938 C 328.324219 247.023438 339.921875 251.636719 341.128906 251.941406 C 341.113281 242.054688 329.007813 238.21875 328.851563 238.128906 C 324.277344 235.386719 320.789063 225.972656 320.449219 225.421875 C 318.878906 223.316406 305.21875 236.023438 299.105469 230.191406 C 309.984375 230.304688 316.601563 223.839844 318.164063 222.550781 C 316.972656 210.609375 301.855469 182.65625 301.148438 182.296875 C 301.148438 182.296875 289.972656 172.179688 274.066406 165.558594 C 288.386719 166.460938 293.761719 173.234375 298.628906 177.15625 C 320.785156 191.554688 348.546875 191.398438 348.929688 191.785156 C 348.929688 191.785156 363.347656 200.128906 380.707031 205.535156 C 380.789063 205.746094 379.863281 213.152344 385.753906 223.910156 C 384.945313 256.667969 413.25 245.421875 416.589844 244.355469 C 429.730469 238.5625 447.957031 244.957031 448.066406 244.980469 C 448.015625 242.898438 448.472656 232.84375 432.851563 228.277344 C 432.804688 228.226563 431.160156 225.5 427.929688 220.101563 C 426.210938 217.242188 425.066406 215.714844 424.480469 215.539063 C 424.480469 215.539063 404.636719 199.175781 385.121094 197.132813 C 385.359375 197.144531 398.601563 191.554688 424.800781 211.871094 C 426 211.996094 440.214844 209.65625 447.316406 214.84375 C 468.050781 228.226563 472.121094 230.804688 488.960938 228.398438 C 496.75 226.703125 502.035156 238.59375 502.765625 238.824219 C 528.300781 215.695313 507.222656 179.738281 507.164063 179.300781 C 507.128906 179.054688 517.289063 160.847656 511.160156 147.128906 C 510.929688 146.890625 510.628906 146.761719 510.246094 146.742188 C 509.621094 147.578125 496.539063 166.355469 480.066406 154.574219 C 479.433594 153.992188 470.664063 144.003906 469.1875 141.722656 C 473.457031 136.074219 473.652344 126.496094 474.398438 125.796875 C 474.703125 125.503906 528.511719 106.21875 535.554688 83.652344 Z M 201.59375 226.6875 C 203.789063 230.09375 185.683594 235.28125 180.769531 230.820313 C 193.097656 231.046875 200.71875 225.328125 201.59375 226.6875 Z M 37.480469 154.238281 L 37.5 153.855469 C 98.761719 178.847656 147.828125 132.523438 147.972656 132.554688 C 148.433594 132.648438 148.992188 133.429688 149.652344 134.894531 C 98.761719 185.835938 41.207031 156.929688 37.480469 154.238281 Z M 173.839844 140.441406 C 159.214844 136.710938 149.566406 124.21875 149.628906 122.953125 C 149.628906 122.953125 161.75 129.972656 162.996094 130.992188 C 162.996094 130.992188 154.980469 113.839844 159.621094 109.175781 C 159.808594 108.410156 159.640625 118.074219 166.996094 130.8125 C 166.996094 130.8125 167.703125 124.960938 167.5625 122.488281 C 165.992188 98.171875 179.550781 77.75 179.550781 77.75 C 179.628906 77.917969 163.027344 123.578125 173.839844 140.441406 Z M 485.410156 89.3125 C 485.410156 89.3125 476.632813 98.59375 435.4375 131.28125 C 435.359375 131.289063 435.3125 131.328125 435.300781 131.40625 C 427.824219 126.757813 417.179688 133.46875 413.925781 134.929688 C 446.566406 109.394531 485.339844 89.3125 485.410156 89.3125 Z M 320.046875 44.113281 C 320.015625 44.707031 269.75 -0.929688 219.09375 23.59375 C 218.972656 23.542969 260.011719 -15.328125 320.066406 43.726563 Z M 320.355469 44.371094 C 320.226563 44.367188 320.164063 44.320313 320.167969 44.234375 L 320.183594 43.976563 L 320.390625 44.117188 Z M 414.726563 187.398438 C 413.949219 187.660156 409.492188 188.929688 409.492188 188.929688 C 405.273438 188.21875 404.171875 179.71875 403.949219 179.109375 C 400.578125 179.820313 398.632813 180.125 398.105469 180.027344 C 389.550781 179.960938 387.804688 158.835938 378.90625 160.351563 C 378.90625 160.351563 362.074219 173.605469 366.414063 154.84375 C 366.085938 154.253906 365.597656 153.851563 364.957031 153.636719 C 346.671875 161.0625 352.621094 144.308594 352.855469 143.601563 C 337.617188 145.65625 342.835938 133.160156 342.835938 133.160156 C 329.519531 131.203125 336.246094 120.714844 336.226563 120.324219 C 336.1875 116.753906 326.183594 115.164063 325.753906 112.4375 C 324.117188 107.859375 332.535156 102.777344 331.132813 99.800781 C 331.09375 99.714844 317.605469 86.578125 336.28125 83.355469 C 336.269531 83.289063 336.253906 83.214844 336.246094 83.144531 C 330.152344 65.136719 347.402344 73.222656 347.90625 72.882813 C 350.640625 71.171875 346.671875 66.40625 348.097656 64.261719 C 350.324219 56.878906 360.171875 67.203125 363.492188 63.003906 C 363.492188 63.003906 362.789063 49.171875 373.195313 57.0625 C 378.117188 61.007813 378.726563 53.589844 378.726563 53.589844 C 383.199219 43.539063 391.933594 55.289063 394.066406 54.164063 C 394.386719 53.742188 396.539063 45.125 402.089844 46.589844 C 403.46875 48.960938 404.519531 51.03125 405.242188 52.808594 C 405.183594 52.882813 405.15625 52.96875 405.164063 53.0625 C 400.191406 53.066406 390.242188 56.554688 387.738281 57.4375 C 387.484375 71.914063 417.707031 110.320313 417.695313 110.523438 C 417.695313 110.523438 398.074219 99.441406 380.683594 59.390625 C 363.980469 62.597656 339.1875 85.734375 339.210938 86.472656 C 352.121094 104.945313 404.507813 129.773438 406.570313 131.261719 C 374.144531 128.449219 337.027344 92.726563 336.800781 93.171875 C 333.488281 108.546875 346.304688 130.917969 352.949219 139.070313 C 365.886719 156.402344 413.320313 146.238281 407.601563 165.507813 C 407.507813 165.5 396.167969 158.730469 388.789063 161.058594 C 389.136719 161.582031 396.0625 176.464844 408.398438 175.285156 C 408.675781 175.882813 411.246094 181.550781 412.070313 182.144531 C 412.9375 182.769531 419.726563 180.753906 421.90625 188.03125 L 431.257813 189.03125 L 431.351563 189.136719 L 431.429688 189.25 L 431.496094 189.367188 C 421.632813 199.019531 416.605469 190.511719 414.726563 187.398438 Z M 423.472656 143.605469 C 425.203125 141.632813 429.140625 139.878906 430.789063 144.050781 L 423.597656 143.675781 L 423.511719 143.652344 Z M 417.519531 141.28125 C 416.195313 142.285156 414.363281 144.035156 412.019531 146.539063 C 411.941406 133.746094 431.492188 136.070313 431.492188 136.070313 C 445.929688 138.507813 434.109375 150.039063 433.804688 149.992188 C 433.734375 149.980469 439.894531 131.203125 417.519531 141.28125 Z M 433.183594 154.726563 C 437.988281 151.851563 447.519531 146.769531 441.277344 132.863281 L 441.414063 132.742188 C 454.507813 149.308594 433.183594 154.726563 433.183594 154.726563 Z M 497.558594 226.890625 C 482.773438 207.222656 444.871094 207.222656 444.871094 207.222656 L 470.648438 204.363281 C 469.859375 187.953125 443.175781 169.320313 449.378906 154.238281 C 450.164063 170.800781 473.667969 189.011719 474.054688 205.558594 C 474.21875 205.667969 493.148438 212.515625 497.578125 226.503906 Z M 471.101563 181.328125 C 471.890625 183.46875 474.597656 189.804688 483.539063 193.367188 C 484.273438 194.726563 484.34375 195.527344 483.746094 195.769531 C 477.375 196.238281 468.320313 186.242188 469.082031 183.027344 C 469.113281 182.898438 472.484375 176.558594 472.738281 176.410156 C 479.597656 173.925781 490.8125 179.601563 490.863281 179.617188 C 491.503906 179.414063 492.089844 181.371094 491.441406 181.550781 C 491.167969 181.628906 475.230469 174.085938 471.101563 181.328125 Z M 490.289063 193.523438 C 490.289063 193.523438 481.105469 191.394531 479.976563 183.839844 C 488.09375 182.976563 489.707031 190.472656 490.289063 193.523438 Z M 503.714844 220.5 L 503.457031 220.484375 L 503.550781 218.6875 C 514.113281 174.402344 467.953125 162.121094 458.316406 143.550781 C 478.117188 165.929688 520.042969 174.402344 503.714844 220.5 Z M 468.929688 121.832031 C 468.480469 118.285156 465.429688 114.824219 465.429688 114.824219 C 471.550781 110.132813 515.386719 96.054688 523.699219 91.707031 L 523.65625 92.476563 C 507.972656 106.535156 468.929688 121.832031 468.929688 121.832031 "/>
</g>
</svg>
