<?xml version="1.0" encoding="UTF-8"?>
<svg xmlns="http://www.w3.org/2000/svg" xmlns:xlink="http://www.w3.org/1999/xlink" width="529pt" height="441pt" viewBox="0 0 529 441" version="1.1">
<g id="surface1">
<path style=" stroke:none;fill-rule:nonzero;fill:rgb(0%,0%,0%);fill-opacity:1;" d="M 528.019531 375.5 C 528.816406 372.300781 527.519531 369.699219 527.316406 366.300781 C 523.117188 357.5 518.117188 347 522.21875 336.800781 C 523.617188 332.601563 520.21875 329.601563 517.917969 326.699219 C 510.617188 325.101563 507.816406 317.800781 506.417969 311.601563 C 503.617188 304.5 487.347656 305.785156 484.117188 299.898438 C 477.019531 299.101563 480.21875 290.300781 474.71875 287.898438 C 456.683594 279.117188 455.316406 261.300781 453.816406 256.898438 C 448.71875 251.101563 442.117188 245.5 437.519531 238.898438 L 437.71875 230.699219 C 434.71875 220.199219 421.21875 213.898438 424.117188 201.199219 C 428.617188 198.5 478.683594 204.453125 474.21875 184.199219 C 471.015625 168.285156 418.519531 176 409.917969 175.5 C 403.519531 176.300781 381.519531 175.800781 377.316406 174.800781 C 361.71875 173.898438 329.019531 169.398438 328.519531 168.300781 C 313.019531 166.300781 298.21875 163.898438 282.71875 161.101563 C 273.71875 160.199219 203.515625 143.785156 187.417969 127.800781 C 179.417969 122.398438 171.71875 116.800781 168.21875 107.601563 C 150.917969 85.800781 148.71875 57.5 136.117188 33.898438 C 128.917969 19.800781 117.617188 6 101.519531 3.5 C 92.21875 2.300781 82.21875 -0.800781 72.21875 1.101563 C 69.117188 -0.5 66.519531 1.898438 63.316406 1.800781 C 60.71875 2.5 58.21875 4.101563 55.917969 3.5 C 46.515625 6.285156 45.21875 19.800781 43.917969 25.5 C 41.519531 29.398438 36.71875 30 32.117188 30.601563 C 24.117188 34.199219 3.765625 27.785156 0.21875 38 C -0.0820313 40.5 0.71875 43.101563 1.917969 45.199219 C -6.316406 70.453125 33.347656 96.785156 49.417969 102.601563 C 52.21875 103.5 50.316406 114.800781 48.71875 117.898438 C 50.617188 121.601563 47.617188 122.898438 46.316406 125.898438 C 44.21875 126.101563 43.816406 129 41.71875 129.199219 C 33.015625 133.453125 37.417969 148.699219 37.71875 151.800781 C 32.617188 157.300781 33.019531 165.601563 33.816406 172.898438 C 32.417969 179.800781 36.816406 185.300781 39.316406 190.398438 C 40.71875 193.101563 43.417969 189.300781 44.117188 192.601563 C 46.117188 195.199219 50.617188 193.800781 52.816406 192.800781 C 52.816406 192.800781 51.683594 196.117188 58.316406 198.800781 C 58.917969 202.398438 60.21875 206.300781 59.019531 210.101563 C 54.316406 224.398438 44.347656 249.785156 47.519531 269.101563 C 48.71875 268.699219 50.417969 269.101563 51.117188 267.898438 C 51.117188 267.898438 53.015625 279.785156 50.117188 299.398438 C 51.316406 299.699219 53.617188 299.898438 54.917969 299.101563 C 58.71875 300.800781 57.816406 306 57.617188 309.699219 C 59.417969 313.101563 58.417969 316.800781 59.71875 320.5 C 63.917969 321.699219 68.019531 323.300781 69.617188 327.699219 C 73.21875 328.699219 71.417969 333.5 73.917969 335.398438 C 79.71875 339 73.917969 345.800781 76.316406 350.699219 C 83.117188 351.398438 81.816406 359.699219 83.316406 364.699219 C 85.816406 368.601563 81.816406 372.800781 83.519531 376.898438 C 83.519531 376.898438 89.347656 377.785156 86.417969 387.199219 C 89.117188 389.601563 89.117188 393.199219 90.71875 396.101563 C 96.617188 401.800781 92.71875 412.699219 100.316406 417.5 C 103.21875 421.101563 99.816406 424.398438 100.519531 428.300781 C 103.21875 429.699219 101.71875 433.5 104.417969 435 C 107.71875 434.601563 110.71875 437.398438 113.71875 434.5 C 117.71875 433.199219 119.316406 437.101563 121.71875 438.601563 C 124.816406 439.101563 128.816406 441.800781 131.519531 438.800781 C 134.316406 436.300781 137.21875 438.898438 140.117188 437.398438 C 142.917969 438.699219 145.617188 437.898438 148.816406 438.101563 C 149.417969 439.601563 150.117188 438 150.917969 438.101563 C 153.117188 440.898438 155.917969 437.699219 158.617188 439.300781 C 160.71875 435.199219 162.917969 439.398438 165.816406 437.398438 C 168.917969 439.601563 170.519531 435.398438 174.019531 436.699219 C 176.917969 433.699219 180.816406 438.5 183.316406 435.199219 C 185.117188 432.898438 187.917969 436.800781 189.816406 433.800781 C 194.417969 434.898438 206.683594 431.785156 205.71875 417.699219 C 203.519531 410.699219 212.816406 407.300781 209.519531 400.199219 C 209.519531 400.199219 216.347656 394.785156 215.71875 384.800781 C 225.019531 383 217.019531 373.898438 219.816406 368 C 224.519531 364.398438 223.117188 357.800781 221.71875 352.699219 C 220.519531 352.398438 219.71875 351.898438 219.316406 350.699219 C 223.347656 347.117188 223.71875 354.601563 223.71875 356.699219 C 224.617188 356.601563 225.917969 357.199219 226.316406 356.300781 C 229.519531 356.101563 232.316406 354.898438 234.917969 352.699219 C 237.519531 353.699219 234.816406 357 237.316406 357.199219 C 239.019531 358.199219 240.21875 356.601563 241.417969 355.800781 C 242.617188 353.5 245.917969 353.300781 247.21875 351.5 C 249.019531 351.199219 249.617188 348.5 250.519531 347.101563 C 253.816406 347.601563 253.417969 351.300781 256.117188 352.699219 C 257.316406 352.300781 258.21875 355.398438 259.21875 352.898438 C 262.519531 354.300781 258.519531 359.101563 262.519531 359.601563 C 264.917969 359 266.617188 357.101563 268.117188 355.300781 C 268.816406 353.398438 270.917969 356 271.917969 354.101563 C 271.617188 350.101563 276.019531 348.601563 276.71875 345 C 278.917969 344.300781 281.117188 348.5 280.816406 349.101563 C 280.816406 349.101563 282.617188 348.398438 282.519531 348.800781 C 283.21875 348.300781 296.683594 351.453125 299.316406 344.5 C 303.21875 346.398438 303.617188 351.300781 308.417969 352.199219 C 310.519531 352.199219 313.816406 354.601563 314.117188 351 C 314.117188 351 326.519531 360.601563 332.617188 358.898438 C 336.21875 356.101563 339.71875 360.199219 343.417969 359.101563 C 344.316406 361.699219 344.71875 364.398438 344.917969 367.300781 C 346.71875 367.398438 348.21875 366.898438 349.71875 366.101563 C 351.21875 367.800781 350.519531 371.300781 352.816406 373.101563 C 354.21875 372.800781 359.617188 373 360.71875 374.300781 C 361.21875 377.398438 361.417969 380.898438 363.316406 383.101563 C 368.417969 383.300781 369.21875 389 374.917969 387.699219 C 378.917969 389.300781 375.519531 396.601563 380.917969 396.800781 C 382.117188 397.300781 382.519531 398.5 382.519531 399.699219 C 381.019531 403.300781 383.816406 407.5 380.617188 410.699219 C 381.21875 412.699219 382.117188 414.601563 384.21875 415.300781 C 384.019531 420.601563 391.71875 418.5 392.417969 422.699219 C 396.316406 425.101563 400.417969 427.101563 405.316406 426.601563 C 406.21875 428.101563 408.617188 426.601563 409.417969 427.800781 C 412.019531 427.5 416.417969 425.101563 417.617188 428 C 421.519531 427.101563 425.816406 425.800781 430.519531 426.300781 C 432.019531 427.199219 434.417969 427.800781 435.617188 427.300781 C 442.117188 429.800781 450.519531 427.699219 457.71875 427.300781 L 458.617188 426.300781 C 469.117188 425.101563 478.117188 429.300781 486.519531 425.101563 C 492.617188 429.601563 499.816406 422.601563 506.617188 425.601563 C 507.316406 426.601563 509.519531 426.800781 510.917969 426.300781 C 513.617188 424.199219 517.019531 421.601563 518.117188 418.398438 C 516.21875 417.199219 516.417969 407.398438 516.917969 405 C 517.71875 401.5 520.417969 402.199219 523.21875 401.398438 C 524.316406 400.800781 521.816406 390.800781 522.019531 386.300781 C 522.816406 384.800781 526.117188 377.800781 528.019531 375.5 Z M 10.519531 39.199219 C 9.917969 37.800781 9.117188 37 7.71875 36.300781 C 5.417969 37.398438 8.519531 42.898438 4.117188 42.101563 C 1.515625 37.035156 6.917969 34.601563 9.617188 34.398438 C 9.917969 36 10.816406 37.398438 10.519531 39.199219 Z M 122.617188 81.699219 C 123.316406 82.300781 124.21875 83.300781 124.316406 84.300781 C 115.515625 83.035156 123.265625 70.535156 118.816406 66.101563 L 115.917969 64.199219 C 128.015625 64.285156 118.316406 77.300781 122.617188 81.699219 Z M 106.117188 50.300781 C 106.015625 59.535156 112.417969 62.601563 113.316406 63 C 104.265625 61.035156 105.816406 54.101563 106.117188 50.300781 Z M 91.71875 130.199219 C 95.515625 152.535156 78.015625 151.035156 78.71875 166.398438 C 80.316406 167.300781 79.519531 169.300781 80.417969 170.5 C 78.621094 173.894531 83.492188 174.199219 81.132813 177.679688 C 81.128906 177.6875 81.132813 177.699219 81.128906 177.710938 C 84.753906 180.785156 81.117188 181.101563 81.117188 181.101563 C 80.519531 180.277344 81.09375 178.953125 81.128906 177.710938 C 81.125 177.707031 81.121094 177.703125 81.117188 177.699219 C 81.121094 177.691406 81.125 177.6875 81.132813 177.679688 C 81.140625 177.269531 81.089844 176.867188 80.917969 176.5 C 76.21875 172 72.765625 154.035156 83.019531 151.101563 C 90.917969 147.601563 91.71875 130.199219 91.71875 130.199219 Z M 38.617188 39 C 38.316406 38.898438 47.765625 22.285156 53.71875 34.398438 C 52.417969 35.601563 50.917969 33.398438 49.21875 33.5 C 46.417969 35.199219 41.917969 35.398438 42.019531 39.699219 C 43.519531 40.398438 44.917969 39.5 46.117188 38.699219 C 47.316406 40.300781 44.917969 40.5 44.917969 41.898438 C 46.765625 45.285156 58.265625 51.285156 54.21875 37.101563 C 56.117188 39.300781 56.617188 43.398438 55.71875 46.199219 C 55.71875 46.199219 48.515625 52.285156 38.617188 39 Z M 51.117188 40.398438 C 50.117188 39.898438 50.019531 38.300781 49.917969 37.101563 C 51.417969 37.101563 51.617188 39.199219 51.117188 40.398438 Z M 53.71875 93.199219 C 52.316406 87.199219 53.019531 80.398438 55.917969 75 C 59.316406 62.898438 75.015625 54.285156 75.117188 43.101563 C 82.015625 51.035156 59.71875 69 54.917969 79.101563 C 52.71875 83.300781 55.21875 89 53.71875 93.199219 Z M 60.019531 127.5 C 58.417969 127.699219 58.21875 130.199219 56.917969 131.101563 C 60.617188 124.398438 56.519531 116.398438 59.019531 109.300781 C 61.71875 106.199219 65.316406 102.601563 65.019531 97.800781 C 66.019531 97 67.816406 96.800781 67.917969 95.398438 C 68.816406 100.800781 63.519531 104.898438 64.117188 110.699219 L 61.21875 114.101563 C 59.71875 118.699219 62.21875 123.199219 60.019531 127.5 Z M 67.417969 164.699219 C 67.21875 159 61.917969 156 64.519531 149.601563 C 65.765625 142.035156 78.515625 143.035156 79.71875 119.898438 C 86.265625 141.285156 64.917969 146.199219 67.21875 154.898438 L 69.117188 163.101563 C 61.765625 175.785156 65.316406 181.5 65.316406 181.5 C 56.765625 177.535156 66.71875 166.398438 67.417969 164.699219 Z M 68.617188 205.5 C 68.316406 206 67.417969 206.601563 66.71875 206.699219 C 63.015625 205.285156 63.617188 200 63.617188 200 C 65.417969 201.898438 79.015625 207.285156 88.816406 192.601563 C 88.117188 195.5 86.515625 204.035156 68.617188 205.5 Z M 96.015625 310.117188 C 89.683594 297.453125 57.683594 288.453125 81.125 263.933594 C 65.347656 297.117188 98.015625 291.117188 96.015625 310.117188 Z M 105.316406 389.601563 C 93.683594 376.453125 106.316406 362.398438 107.316406 362 C 104.617188 366 99.347656 379.785156 105.316406 389.601563 Z M 107.316406 176.699219 C 102.21875 173.398438 99.019531 185.398438 97.71875 188 C 96.019531 189.898438 91.71875 192.300781 91.71875 192.300781 C 97.917969 188 98.21875 179 102.21875 173.398438 C 106.765625 175.535156 111.816406 166.898438 111.816406 166.898438 C 111.316406 170.5 110.417969 174.601563 107.316406 176.699219 Z M 121.21875 345.5 C 121.019531 342.601563 125.015625 333.453125 119.71875 326 C 128.347656 332.453125 123.019531 342.898438 121.21875 345.5 Z M 128.917969 127.5 C 122.265625 130.035156 123.617188 142.699219 123.617188 142.699219 C 124.816406 143.398438 123.417969 144.199219 123.316406 145.101563 C 124.519531 148.398438 123.21875 151.800781 122.617188 154.898438 C 119.816406 154.800781 119.417969 158.898438 116.417969 158.699219 C 114.21875 160.898438 113.316406 163.699219 112.117188 165.5 C 113.019531 162.199219 113.21875 158.398438 113.71875 155.398438 C 122.617188 154.898438 123.816406 138.398438 121.21875 131.101563 C 125.765625 126.285156 126.917969 115.101563 126.917969 115.101563 C 128.117188 119 129.617188 123.398438 128.917969 127.5 Z M 126.519531 111.699219 C 121.71875 106.199219 135.515625 97.035156 127.71875 87.699219 C 138.265625 93.035156 125.515625 104.785156 126.519531 111.699219 Z M 136.519531 374.300781 C 157.683594 331.453125 129.347656 333.785156 143.71875 320.300781 C 138.683594 333.785156 163.015625 348.785156 136.519531 374.300781 Z M 151.347656 404.453125 C 147.015625 389.117188 182.683594 389.117188 167.347656 357.683594 C 187.683594 374.785156 167.683594 386.453125 151.347656 404.453125 Z M 176.917969 318.300781 C 174.316406 326.898438 174.21875 337.601563 177.617188 346.699219 C 167.347656 333.453125 175.117188 320.601563 176.917969 318.300781 Z M 333.117188 311.101563 L 341.316406 323.101563 C 328.683594 318.785156 335.417969 314.898438 333.117188 311.101563 Z M 351.316406 339.898438 C 351.519531 336.800781 351.816406 333.199219 350.617188 330.101563 C 352.617188 330.601563 355.683594 336.785156 351.316406 339.898438 Z M 387.816406 335.101563 C 387.816406 335.101563 390.21875 343.5 393.816406 345.5 C 398.019531 351.101563 413.683594 352.785156 410.417969 366.800781 C 406.683594 349.785156 381.683594 348.453125 387.816406 335.101563 Z M 408.71875 364.699219 C 409.519531 367.199219 410.117188 369.601563 409.71875 372.601563 C 406.683594 369.453125 408.816406 366.898438 408.71875 364.699219 Z M 410.117188 387.898438 C 407.015625 383.785156 410.71875 378 409.417969 373.300781 C 409.417969 373.300781 413.683594 382.453125 410.117188 387.898438 Z M 431.71875 253.800781 C 438.015625 259.785156 433.417969 273.699219 435.316406 275.898438 C 438.617188 278.101563 451.015625 277.785156 450.917969 287.601563 C 445.347656 277.117188 433.347656 282.453125 432.21875 271.5 C 432.21875 271.5 435.21875 259.5 429.117188 256.398438 C 420.617188 252.898438 413.117188 245.300781 412.519531 235.300781 C 413.617188 240.601563 421.347656 251.453125 431.71875 253.800781 Z M 450.21875 374.699219 C 450.21875 374.699219 447.015625 352.453125 434.917969 345.898438 C 454.015625 352.117188 450.019531 374.699219 450.21875 374.699219 Z M 434.917969 296.5 C 435.417969 290 428.117188 286.601563 423.816406 283.800781 C 411.015625 275.785156 412.71875 263.898438 413.519531 260.699219 C 414.617188 263.300781 418.683594 279.453125 432.019531 284.300781 C 432.019531 287.898438 438.347656 283.785156 436.816406 303.898438 C 441.417969 307 444.015625 308.785156 452.117188 315.5 C 431.015625 311.785156 432.816406 301.5 434.917969 296.5 Z M 492.917969 393.699219 C 483.585938 388.515625 490.816406 374.699219 490.816406 374.699219 C 485.417969 369 479.015625 355.785156 485.316406 351 C 485.117188 359.199219 487.617188 367.5 492.917969 374 C 494.617188 380.101563 487.015625 381.785156 492.917969 393.699219 Z M 503.019531 368 C 503.019531 368 505.683594 349.117188 499.71875 345.199219 C 496.015625 334.117188 471.347656 325.117188 476.417969 320 C 478.117188 321 501.347656 333.117188 504.019531 347.601563 C 505.519531 354 506.683594 359.117188 503.019531 368 "/>
</g>
</svg>
