<?xml version="1.0" encoding="UTF-8"?>
<svg xmlns="http://www.w3.org/2000/svg" xmlns:xlink="http://www.w3.org/1999/xlink" width="531pt" height="531pt" viewBox="0 0 531 531" version="1.1">
<g id="surface1">
<path style=" stroke:none;fill-rule:nonzero;fill:rgb(0%,0%,0%);fill-opacity:1;" d="M 298.820313 328.179688 L 205.015625 347.066406 C 195.734375 348.9375 197.375 357.078125 206.65625 355.210938 L 300.460938 336.320313 C 306.5 335.105469 304.859375 326.960938 298.820313 328.179688 "/>
<path style=" stroke:none;fill-rule:nonzero;fill:rgb(0%,0%,0%);fill-opacity:1;" d="M 154.738281 190.390625 C 152.964844 190.34375 151.15625 191.929688 150.703125 193.933594 C 150.246094 195.933594 151.320313 197.59375 153.09375 197.640625 C 154.867188 197.6875 156.671875 196.101563 157.128906 194.097656 C 157.582031 192.097656 156.511719 190.4375 154.738281 190.390625 "/>
<path style=" stroke:none;fill-rule:nonzero;fill:rgb(0%,0%,0%);fill-opacity:1;" d="M 528.375 195.890625 C 530.535156 190.78125 524.445313 188.425781 524.839844 183.414063 C 525.234375 178.796875 519.632813 180.664063 519.632813 176.835938 C 519.339844 170.449219 510.097656 172.808594 509.714844 168.09375 C 509.320313 161.414063 501.558594 165.636719 498.613281 161.710938 C 495.585938 156.589844 491.492188 154.578125 489.183594 154.933594 C 485.941406 155.226563 482.015625 154.441406 480.246094 151.394531 C 483.289063 138.332031 478.535156 128.855469 467.253906 106.3125 C 467.136719 104.417969 467.296875 102.558594 467.59375 100.722656 C 468.554688 94.808594 477.191406 50.101563 477.410156 43.933594 C 479.316406 -9.445313 461.488281 -15.261719 413.921875 31.359375 C 394.277344 50.613281 347.496094 93.445313 322.484375 106.945313 C 285.65625 126.824219 259.085938 128.742188 229.230469 117.667969 C 192.652344 104.101563 170.269531 100.929688 154.441406 109.652344 C 144.128906 108.570313 134.992188 113.972656 126.449219 118.097656 C 119.964844 116.820313 114.464844 122.125 108.769531 122.617188 C 102.578125 123.152344 101.792969 131.160156 96.195313 133.222656 C 93.886719 133.957031 91.777344 136.761719 91.480469 139.609375 C 91.1875 141.277344 89.515625 142.949219 87.746094 143.636719 C 80.917969 145.890625 85.488281 155.226563 78.808594 157.484375 C 75.664063 158.414063 76.746094 162.199219 76.453125 164.851563 C 74.09375 166.230469 71.09375 167.246094 69.050781 167.914063 C 60.988281 171.574219 51.683594 173.445313 43.539063 177.417969 C 25.785156 186.078125 21.890625 198.6875 43.195313 218.929688 C 44.253906 219.933594 44.925781 221.757813 44.628906 222.117188 C 41.386719 225.847656 36.082031 227.714844 34.019531 232.722656 C 31.859375 236.457031 26.851563 233.3125 23.902344 235.277344 C 22.703125 236.210938 21.964844 237.265625 21.363281 238.386719 C 18.800781 243.152344 18.5 243.429688 13.445313 244.515625 C 9.902344 245.273438 2.605469 251.007813 3.570313 257.671875 C 1.804688 259.734375 -0.75 261.894531 0.328125 265.726563 C 2.394531 270.34375 -0.75 274.175781 0.328125 278.691406 C 2.546875 286.308594 10.511719 290.183594 12.511719 293.03125 C 15.847656 298.042969 23.425781 305.222656 26.457031 304.132813 C 30.089844 302.953125 33.335938 306.839844 36.867188 305.507813 C 42.957031 303.640625 52.203125 303.925781 54.746094 305.113281 C 60.148438 307.570313 63.183594 303.394531 68.097656 306.441406 C 69.175781 307.378906 71.242188 306.34375 72.621094 306.292969 C 71.429688 309.101563 69.707031 311.820313 67.808594 314.464844 C 40.328125 352.742188 26.730469 382.34375 56.132813 444.476563 C 78.175781 491.054688 78.878906 503.984375 156.414063 522.425781 C 205.867188 534.1875 245.960938 534.261719 287.925781 516.488281 C 293.972656 524.042969 298.925781 522.492188 303.441406 513.085938 C 337.636719 497.019531 351.015625 503.492188 370.421875 459.144531 C 391.847656 400.222656 370.121094 372.859375 368.382813 317.289063 C 368.101563 308.367188 368.074219 293.65625 369.648438 283.113281 C 372.59375 282.519531 376.621094 280.652344 380.058594 282.226563 C 387.621094 284.09375 394.691406 284 402.058594 281.246094 C 408.148438 279.671875 417.390625 284.597656 421.3125 282.226563 C 428.777344 278.890625 437.910156 281.640625 445.574219 280.753906 C 451.761719 280.066406 455.492188 277.023438 462.074219 277.21875 C 465.710938 278.109375 467.570313 272.59375 471.308594 272.996094 C 475.039063 273.386719 476.808594 268.960938 480.441406 269.753906 C 485.058594 268.871094 488.003906 263.359375 491.539063 262.386719 C 500.496094 259.730469 515.21875 245.308594 517.472656 235.082031 C 521.695313 222.019531 535.25 211.507813 528.375 195.890625 Z M 448.746094 169.46875 L 450.453125 166.070313 C 459.691406 172.5 469.398438 149.605469 458.933594 149.1875 L 460.644531 145.789063 C 475.257813 147.441406 463.0625 177.71875 448.746094 169.46875 Z M 457.652344 126.644531 C 458.878906 122.101563 458.832031 117.300781 463.203125 113.183594 C 463.492188 112.910156 464.15625 112.730469 463.917969 113.523438 C 463.070313 116.339844 460.324219 123.511719 457.652344 126.644531 Z M 442.722656 119.632813 C 456.628906 101.269531 472.863281 66.136719 472.777344 33.5625 C 472.769531 31.179688 473.382813 30.628906 473.628906 32.992188 C 476.246094 58.125 463.863281 102.632813 443.792969 121.296875 C 442.832031 122.191406 442.265625 120.234375 442.722656 119.632813 Z M 426.691406 139.085938 C 431.132813 135.195313 430.902344 140.222656 430.226563 141.765625 C 427.996094 146.867188 423.910156 150.617188 419.1875 153.480469 C 404.378906 162.445313 372.5625 166.535156 343.027344 161.316406 C 386.644531 154.046875 405.648438 157.507813 426.691406 139.085938 Z M 170.550781 141.535156 C 165.605469 147.949219 159.421875 153.851563 153.753906 159.15625 C 157.59375 152.035156 163.578125 145.988281 170.003906 140.84375 C 170.316406 140.59375 170.917969 141.058594 170.550781 141.535156 Z M 165.816406 127.640625 C 164.839844 131.902344 164.265625 135.527344 156.890625 147.808594 C 156.429688 148.574219 155.902344 148.34375 156.289063 147.34375 C 158.253906 142.265625 162.433594 136.148438 163.960938 129.761719 C 165.203125 124.5625 164.890625 121.945313 162.691406 116.230469 C 166.390625 119.652344 166.738281 123.613281 165.816406 127.640625 Z M 156.597656 114.09375 C 161.375 118.335938 161.933594 126.609375 159.433594 133.746094 C 155.804688 144.117188 150.359375 150.089844 143.925781 161.425781 C 139.78125 168.722656 135.699219 176.804688 132.886719 185.199219 C 132.585938 186.097656 132.148438 186.300781 132.242188 185.5 C 133.433594 175.542969 139.773438 163.570313 143.023438 158.1875 C 147.160156 151.347656 152.253906 144.269531 155.710938 136.703125 C 158.621094 130.34375 161.335938 121.132813 157.089844 116.867188 C 155.582031 115.351563 153.757813 113.988281 152.378906 112.203125 C 154.039063 112.351563 155.460938 113.082031 156.597656 114.09375 Z M 151.886719 116.035156 C 149.433594 115.742188 146.585938 114.953125 144.128906 113.875 C 146.78125 113.578125 149.921875 114.265625 151.886719 116.035156 Z M 58.476563 177.523438 C 62.410156 176.152344 66.511719 175.203125 70.226563 173.257813 C 70.503906 173.113281 72.128906 172.804688 71.445313 174.476563 C 70.953125 175.460938 61.871094 178.070313 56.90625 178.996094 C 51.503906 180.175781 57.300781 178.210938 58.476563 177.523438 Z M 58.085938 193.53125 C 60.246094 192.15625 62.601563 190.980469 65.15625 189.996094 C 64.078125 196.085938 58.578125 199.035156 54.546875 202.273438 C 52.683594 203.0625 52.78125 204.382813 51.011719 206.105469 C 51.898438 201.292969 55.335938 196.972656 58.085938 193.53125 Z M 6.417969 256.984375 C 6.617188 253.253906 9.269531 248.632813 12.511719 248.046875 C 18.109375 247.457031 23.019531 244.214844 25.082031 239.304688 C 26.941406 236.453125 33.332031 239.207031 35.691406 234.785156 C 37.167969 230.316406 41.316406 229.304688 44.449219 227.101563 C 46.5625 225.617188 50.515625 223.992188 53.074219 221.132813 C 63.320313 210.804688 72.296875 182.417969 72.484375 179.835938 C 72.828125 177.652344 72.6875 175.1875 74.585938 173.988281 C 79.988281 169.859375 77.925781 160.726563 84.410156 156.992188 C 87.5625 155.039063 83.804688 149.136719 89.417969 146.191406 C 93.152344 144.8125 97.191406 142.265625 96.488281 138.429688 C 96.882813 136.464844 98.160156 135.285156 100.222656 135.089844 C 103.855469 129.589844 109.160156 124.972656 116.035156 124.285156 C 116.820313 123.796875 117.707031 122.910156 118.589844 123.597656 C 119.28125 124.878906 125.5625 121.136719 129.003906 123.597656 C 130.671875 124.777344 133.621094 122.3125 135.089844 124.285156 C 136.269531 125.957031 139.21875 123.894531 140.59375 125.957031 C 141.324219 127.464844 142.683594 127.671875 144.140625 127.769531 C 152.210938 128.316406 149.625 136.523438 146.984375 140.617188 C 145.210938 143.371094 135.359375 159.65625 132.519531 165.324219 C 127.316406 175.710938 127.527344 180.492188 127.789063 186.324219 C 128.359375 197.070313 128.121094 213.164063 127.628906 217.878906 C 126.839844 221.613281 125.859375 225.742188 126.152344 231.25 C 108.695313 227.828125 105.277344 254.378906 122.421875 257.96875 C 121.890625 263.007813 118.21875 262.960938 114.171875 263.425781 C 110.285156 263.875 106.273438 263.648438 102.753906 264.726563 C 100.753906 265.339844 99.691406 263.683594 99.691406 259.441406 C 99.390625 248.417969 101.042969 207.476563 101.578125 202.71875 C 104.640625 175.820313 113.316406 164.542969 113.449219 159.304688 C 113.671875 150.335938 104.082031 143.332031 95.347656 153.511719 C 94.277344 154.761719 81.699219 179.207031 79.691406 181.238281 C 77.261719 183.695313 74.632813 186.136719 74.09375 189.308594 C 70.855469 202.765625 54.367188 225.546875 50.03125 228.203125 C 43.351563 232.625 44.046875 241.460938 33.332031 243.332031 C 25.664063 244.101563 6.132813 261.980469 3.375 265.726563 C 1.605469 261.796875 6.414063 261.109375 6.417969 256.984375 Z M 160.644531 239.972656 L 163.9375 241.875 C 161.609375 255.359375 131.800781 242.613281 140.992188 228.617188 L 144.285156 230.519531 C 136.285156 240.695313 159.585938 250.738281 160.644531 239.972656 Z M 192.070313 312.066406 C 194.191406 321.5625 196.691406 329.742188 199.808594 340.589844 L 194.726563 341.730469 C 191.816406 330.171875 189.484375 321.429688 187.238281 311.367188 C 181.097656 283.875 196.515625 262.253906 212.238281 253.660156 L 213.523438 258.566406 C 199.796875 266.382813 186.238281 285.949219 192.070313 312.066406 Z M 181.539063 270.460938 C 179.867188 269.960938 180.148438 268.863281 181.765625 268.925781 C 183.859375 269.5 185.25 269.796875 189.101563 270.273438 C 190.125 270.4375 189.835938 271.777344 188.53125 271.628906 C 184.460938 271.085938 185.398438 271.3125 181.539063 270.460938 Z M 200.703125 245.003906 C 180.878906 243.617188 169.402344 243.171875 157.535156 234.316406 C 156.730469 233.71875 156.398438 232.988281 157.105469 233.277344 C 173.761719 241.980469 198.554688 242.328125 199.96875 242.554688 C 201.855469 242.859375 203.476563 244.925781 200.703125 245.003906 Z M 176.273438 269.476563 C 172.203125 268.933594 168.109375 268.417969 164.25 267.566406 C 162.578125 267.066406 162.859375 265.96875 164.476563 266.03125 C 166.570313 266.605469 172.992188 267.640625 176.84375 268.121094 C 177.863281 268.285156 177.578125 269.621094 176.273438 269.476563 Z M 158.503906 194.132813 C 157.855469 196.992188 155.273438 199.257813 152.742188 199.195313 C 150.207031 199.128906 148.675781 196.757813 149.324219 193.898438 C 149.972656 191.035156 152.554688 188.773438 155.089844 188.835938 C 157.625 188.902344 159.152344 191.273438 158.503906 194.132813 Z M 157.53125 266.179688 C 153.507813 265.375 149.457031 264.59375 145.660156 263.496094 C 144.023438 262.890625 144.375 261.808594 145.984375 261.976563 C 148.039063 262.6875 154.378906 264.136719 158.191406 264.863281 C 159.199219 265.09375 158.824219 266.410156 157.53125 266.179688 Z M 139.699219 260.539063 C 140.683594 260.863281 140.1875 262.136719 138.921875 261.789063 C 134.988281 260.613281 131.027344 259.464844 127.347656 258.023438 C 125.773438 257.265625 126.222656 256.222656 127.8125 256.539063 C 129.789063 257.4375 135.972656 259.464844 139.699219 260.539063 Z M 124.9375 262.898438 C 125.246094 261.484375 126.710938 262.828125 126.429688 263.410156 C 114.566406 298.691406 96.457031 345.027344 96.105469 369.34375 C 95.929688 373.058594 95.023438 373.402344 95.015625 369.863281 C 94.941406 329.714844 112.402344 302 124.9375 262.898438 Z M 109.652344 294.015625 C 106.3125 293.621094 98.867188 287.621094 90.105469 289.496094 C 92.953125 284.585938 98.847656 275.773438 101.195313 268.773438 C 104.925781 266.214844 114.171875 266.609375 119.570313 266.90625 C 117.019531 276.628906 112.597656 285.078125 109.652344 294.015625 Z M 122.429688 239.136719 C 119.644531 239.734375 117.566406 241.972656 117.566406 244.652344 C 117.566406 247.335938 119.644531 249.570313 122.429688 250.171875 L 122.429688 252.664063 C 118.132813 252.03125 114.851563 248.691406 114.851563 244.652344 C 114.851563 240.617188 118.132813 237.277344 122.429688 236.644531 Z M 122.933594 242.21875 L 122.109375 248.296875 C 120.558594 247.785156 119.527344 246.375 119.730469 244.878906 C 119.933594 243.386719 121.296875 242.300781 122.933594 242.21875 Z M 136.609375 266.585938 C 136.917969 265.171875 138.378906 266.519531 138.101563 267.097656 C 124.167969 303.5625 107.828125 356.703125 107.480469 381.019531 C 107.304688 384.734375 106.398438 385.078125 106.390625 381.539063 C 106.316406 341.390625 124.964844 300.066406 136.609375 266.585938 Z M 66.117188 302.5625 C 64.578125 302.359375 63.050781 302.242188 61.621094 302.757813 C 57.007813 304.539063 50.71875 303.640625 45.121094 301.578125 C 40.207031 299.507813 36.179688 303.542969 32.351563 300.792969 C 28.53125 296.445313 24.011719 306.226563 17.222656 294.703125 C 15.160156 289.789063 9.5625 288.316406 6.417969 284.585938 C 0.371094 275.824219 2.046875 270.542969 11.132813 262.878906 C 17.125 257.28125 25.179688 255.609375 29.992188 249.421875 C 32.230469 244.898438 44.230469 246.296875 48.359375 234.097656 C 49.433594 230.757813 53.953125 227.90625 57.300781 225.355469 C 71.136719 213.523438 73.171875 201.90625 78.808594 187.441406 C 80.167969 183.210938 82.234375 183.730469 87.746094 174.476563 C 92.070313 168.289063 94.328125 160.921875 98.550781 154.933594 C 99.628906 152.765625 103.394531 152.324219 104.25 154.441406 C 105.230469 156.308594 107.296875 156.210938 108.769531 156.109375 C 110.804688 155.394531 112.113281 159.671875 110.144531 161.511719 C 105.921875 165.933594 101.402344 170.058594 100.222656 176.640625 C 99.609375 182.289063 102.1875 184.496094 100.515625 188.621094 C 98.816406 191.882813 96.390625 196.578125 98.550781 201.390625 C 100.296875 205 94.132813 206.105469 95.507813 210.328125 C 96.242188 212.613281 100.105469 215.09375 97.863281 217.597656 C 93.9375 221.328125 95.355469 227.296875 97.667969 231.25 C 100.320313 236.0625 91.675781 240.285156 97.375 244.511719 C 99.347656 245.800781 92.5625 254.726563 97.667969 257.671875 C 99.679688 258.917969 95.164063 263.453125 95.230469 267.210938 C 95.308594 271.628906 96.199219 273.414063 93.953125 277.390625 C 89.710938 284.882813 80.714844 290.824219 77.140625 298.238281 C 73.84375 303.730469 71.113281 303.226563 66.117188 302.5625 Z M 223.785156 524.050781 C 203.585938 526.59375 157.578125 521.734375 122.171875 509.386719 C 96.496094 500.429688 87.960938 492.605469 78.644531 478.269531 C 61.59375 452.035156 42.941406 409.164063 43.851563 380.917969 C 43.433594 361.574219 54.988281 335 62.503906 326.035156 C 65.253906 321.617188 76.941406 304.4375 79.433594 300.707031 C 86.898438 289.535156 98.085938 298.296875 104.742188 307.472656 C 74.371094 374.640625 72.855469 411.128906 127.511719 473.636719 C 147.035156 495.960938 192.726563 518.546875 224.402344 520.226563 C 241.453125 521.128906 231.148438 523.726563 223.785156 524.050781 Z M 282.695313 503.132813 C 276.863281 492.132813 245.714844 392.28125 244.378906 370.851563 C 244.242188 368.628906 245.019531 367.964844 245.679688 370.546875 C 251.4375 392.996094 271.984375 465.789063 284.164063 502.230469 C 284.648438 503.667969 283.371094 504.40625 282.695313 503.132813 Z M 289.800781 509.035156 C 284.5625 495.722656 248.34375 381.121094 246.179688 355.992188 C 251.386719 354.617188 256.195313 354.328125 262.386719 353.144531 C 263.027344 354.609375 294.335938 477.796875 299.109375 503.769531 C 301.480469 516.660156 295.039063 522.34375 289.800781 509.035156 Z M 301.070313 339.339844 L 207.265625 358.226563 C 192.328125 361.234375 189.472656 347.058594 204.410156 344.050781 L 298.214844 325.160156 C 309.964844 322.796875 312.816406 336.972656 301.070313 339.339844 Z M 255.316406 331.046875 C 250.011719 332.320313 244.609375 333.203125 239.109375 333.796875 C 235.476563 315.425781 222.3125 253.351563 219.5625 242.152344 C 224.867188 241.171875 230.171875 240.285156 235.574219 239.304688 C 236.464844 245.21875 255.019531 325.839844 255.316406 331.046875 Z M 239.867188 245.164063 C 257.523438 244.941406 274.800781 252.832031 287.53125 272.613281 C 294.585938 283.566406 297.09375 302.886719 302.066406 320.785156 L 296.402344 322.054688 C 291.925781 305.699219 289.964844 287.699219 283.496094 277.652344 C 270.765625 257.871094 257.226563 250.269531 241.34375 250.511719 Z M 232.621094 314.597656 C 232.894531 316.78125 231.816406 316.851563 231.292969 315.378906 C 226.160156 300.9375 217.003906 255.707031 215.3125 245.972656 C 215.152344 245.046875 216.5 244.945313 216.777344 245.882813 C 219.535156 255.226563 230.808594 300.28125 232.621094 314.597656 Z M 337.507813 221.097656 C 326.730469 224.332031 314.65625 225.3125 304.820313 231.25 C 300.3125 234.609375 298.265625 236.835938 301.421875 239.535156 C 302.535156 240.488281 305.089844 240.925781 304.132813 243.136719 C 302.246094 246.226563 299.71875 250.539063 300.675781 254.285156 C 301.390625 257.085938 300.683594 258.464844 299.199219 255.910156 C 298.964844 255.511719 296.761719 253.359375 296.570313 250.601563 C 296.765625 247.457031 296.167969 238.945313 291.855469 235.769531 C 299.035156 228.671875 324.308594 222.398438 337.210938 220.078125 C 338.625 219.824219 338.679688 220.746094 337.507813 221.097656 Z M 316.351563 209.109375 C 309.285156 207.804688 299.605469 212.890625 296.421875 214.933594 C 270.183594 231.78125 262.933594 235.238281 240.679688 239.136719 C 239.984375 239.257813 239.871094 238.261719 240.5 238.085938 C 270.503906 229.726563 276.601563 222.980469 294.675781 211.59375 C 302.050781 206.949219 306.964844 204.4375 316.71875 205.78125 C 357.0625 208.597656 382.652344 200.515625 403.777344 192.796875 C 418.964844 187.246094 428.003906 181.5625 439.140625 170.179688 C 448.539063 160.570313 452.042969 151.671875 454.933594 143.386719 C 455.886719 140.640625 454.980469 141.226563 454.066406 142.933594 C 448.105469 154.085938 428.796875 184.097656 393.371094 187.355469 C 374.222656 189.117188 349.148438 184.109375 323.296875 171.007813 C 297.914063 158.140625 275.242188 146.542969 252.871094 139.316406 C 223.589844 129.859375 204.269531 124.585938 189.773438 136.109375 C 184.652344 140.1875 163.335938 166.535156 161.277344 168.644531 C 155.957031 174.089844 150.21875 178.964844 145.046875 184.371094 C 135.914063 193.917969 134.035156 204.421875 141.226563 217.480469 C 142.527344 219.84375 144.027344 222.421875 145.109375 224.105469 C 147.289063 227.496094 146.644531 227.765625 144.074219 224.636719 C 139.566406 219.15625 137.976563 217.242188 135.878906 212.882813 C 136.234375 225.894531 130.121094 236.722656 128.765625 249.328125 C 128.382813 252.890625 126.621094 252.65625 127.464844 249.167969 C 128.476563 245.003906 130.421875 236.941406 131.828125 229.347656 C 133.246094 221.695313 134.5625 217.742188 134.207031 212.390625 C 133.113281 201.65625 135.8125 195.671875 136.816406 193.761719 C 141.335938 185.164063 144.464844 182.753906 149.621094 177.699219 C 167.722656 159.960938 171.101563 146.800781 190.4375 132.40625 C 205.339844 121.308594 234.054688 130.128906 250.128906 134.839844 C 266.703125 139.691406 287.933594 150.046875 302.976563 157.808594 C 328.402344 170.925781 350.628906 182.648438 377.066406 184.046875 C 421.335938 186.386719 440.695313 161.785156 456.660156 133.734375 C 458.839844 129.90625 458.738281 132.207031 458.503906 135.046875 C 457.246094 150.1875 449.875 165.703125 432.878906 179.425781 C 402.425781 204.023438 344.65625 214.335938 316.351563 209.109375 Z M 415.90625 195.28125 L 419.46875 193.9375 C 428.804688 204.71875 399.675781 219.253906 394.675781 203.296875 L 398.234375 201.953125 C 400.878906 213.871094 422.292969 201.652344 415.90625 195.28125 Z M 521.171875 219.894531 C 515.703125 225.269531 516.648438 235.042969 511.0625 240.804688 C 504.386719 247.683594 499.007813 257.769531 488.496094 259.832031 C 485.375 260.589844 485.355469 266.21875 481.425781 266.609375 C 475.941406 267.078125 475.554688 267.589844 472.484375 270.148438 C 470.796875 271.796875 467.476563 268.871094 465.90625 271.324219 C 464.242188 274.234375 461.78125 275.84375 458.34375 272.996094 C 456.160156 271.046875 456.265625 277.078125 450.976563 276.824219 C 449.503906 276.628906 446.359375 275.84375 445.378906 277.710938 C 443.773438 280.6875 433.785156 275.863281 428.582031 276.824219 C 423.277344 277.808594 418.167969 279.871094 412.375 277.710938 C 409.523438 276.628906 406.285156 278.398438 403.4375 277.511719 C 398.136719 275.441406 391.453125 282.523438 385.757813 278.199219 C 383.621094 275.6875 380.15625 276.824219 377.699219 277.511719 C 375.148438 278.59375 372.644531 279.015625 369.449219 279.574219 C 370.234375 263.761719 376.421875 228.964844 376.886719 225.863281 C 378.386719 215.828125 379.6875 217.375 386.96875 215.296875 C 393.199219 213.984375 398.316406 213.941406 404 213.855469 C 412.78125 213.714844 461.703125 199.503906 472.484375 177.816406 C 475.363281 178.523438 480.835938 177.71875 480.246094 182.53125 C 483.375 183.90625 484.605469 186.464844 485.691406 189.242188 C 486.003906 190.039063 487.960938 194.296875 486.628906 195.203125 C 484.863281 195.890625 482.816406 197.605469 484.46875 199.722656 C 485.058594 201.292969 486.53125 202.6875 484.960938 205.320313 C 481.914063 209.640625 474.746094 209.9375 473.859375 215.929688 C 473.507813 218.578125 465.246094 218.75 462.367188 223.785156 C 458.933594 228.894531 451.171875 228.5 445.082031 228.695313 C 439.878906 228.742188 435.945313 236.261719 429.367188 234.785156 C 424.257813 233.988281 418.226563 234.292969 413.425781 236.585938 C 408.214844 239.074219 411.574219 240.472656 416.363281 239.074219 C 421.28125 237.636719 426.769531 237.667969 431.722656 238.324219 C 439.316406 240.03125 443.3125 230.757813 450.582031 231.742188 C 456.378906 232.625 462.761719 229.089844 465.609375 224.179688 C 468.503906 219.800781 477.199219 220.347656 478.085938 214.355469 C 477.679688 211.039063 485.429688 213.109375 486.335938 208.660156 C 487.121094 206.105469 489.871094 204.238281 488.496094 200.898438 C 487.808594 199.597656 487.144531 198.195313 488.003906 197.855469 C 489.578125 196.972656 490.65625 195.203125 490.855469 193.140625 C 491.640625 188.914063 486.730469 187.640625 487.316406 183.414063 C 486.53125 180.960938 482.503906 182.238281 483.78125 178.996094 C 481.71875 174.183594 474.972656 179.050781 474.480469 173.84375 C 477.523438 168.539063 478.945313 161.734375 479.828125 155.472656 C 484.050781 161.757813 490.65625 155.816406 494.882813 161.710938 C 497.535156 166.691406 506.535156 164.726563 506.863281 168.585938 C 506.863281 174.183594 515.488281 171.75 515.605469 176.148438 C 515.757813 180.277344 520.386719 181.480469 522.03125 184.496094 C 522.535156 185.425781 524.523438 189.117188 525.046875 189.984375 C 527.003906 193.230469 524.960938 198.664063 526.902344 202.078125 C 529.121094 206.226563 525.503906 215.632813 521.171875 219.894531 "/>
<path style=" stroke:none;fill-rule:nonzero;fill:rgb(0%,0%,0%);fill-opacity:1;" d="M 232.996094 261.992188 C 231.148438 261.992188 229.648438 263.300781 229.648438 264.921875 C 229.648438 266.535156 231.148438 267.847656 232.996094 267.847656 C 234.84375 267.847656 236.34375 266.535156 236.34375 264.921875 C 236.34375 263.300781 234.84375 261.992188 232.996094 261.992188 "/>
<path style=" stroke:none;fill-rule:nonzero;fill:rgb(0%,0%,0%);fill-opacity:1;" d="M 235.121094 288.589844 C 235.121094 290.203125 236.621094 291.515625 238.46875 291.515625 C 240.320313 291.515625 241.816406 290.203125 241.816406 288.589844 C 241.816406 286.96875 240.320313 285.660156 238.46875 285.660156 C 236.621094 285.660156 235.121094 286.96875 235.121094 288.589844 "/>
<path style=" stroke:none;fill-rule:nonzero;fill:rgb(0%,0%,0%);fill-opacity:1;" d="M 240.449219 314.03125 C 240.449219 315.648438 241.945313 316.960938 243.796875 316.960938 C 245.644531 316.960938 247.144531 315.648438 247.144531 314.03125 C 247.144531 312.414063 245.644531 311.101563 243.796875 311.101563 C 241.945313 311.101563 240.449219 312.414063 240.449219 314.03125 "/>
<path style=" stroke:none;fill-rule:nonzero;fill:rgb(0%,0%,0%);fill-opacity:1;" d="M 260.53125 366.691406 C 260.53125 365.074219 259.03125 363.765625 257.183594 363.765625 C 255.335938 363.765625 253.835938 365.074219 253.835938 366.691406 C 253.835938 368.308594 255.335938 369.621094 257.183594 369.621094 C 259.03125 369.621094 260.53125 368.308594 260.53125 366.691406 "/>
<path style=" stroke:none;fill-rule:nonzero;fill:rgb(0%,0%,0%);fill-opacity:1;" d="M 266.003906 390.359375 C 266.003906 388.742188 264.503906 387.433594 262.65625 387.433594 C 260.808594 387.433594 259.308594 388.742188 259.308594 390.359375 C 259.308594 391.976563 260.808594 393.289063 262.65625 393.289063 C 264.503906 393.289063 266.003906 391.976563 266.003906 390.359375 "/>
<path style=" stroke:none;fill-rule:nonzero;fill:rgb(0%,0%,0%);fill-opacity:1;" d="M 267.980469 412.875 C 266.132813 412.875 264.632813 414.1875 264.632813 415.804688 C 264.632813 417.421875 266.132813 418.730469 267.980469 418.730469 C 269.828125 418.730469 271.328125 417.421875 271.328125 415.804688 C 271.328125 414.1875 269.828125 412.875 267.980469 412.875 "/>
</g>
</svg>
