<?xml version="1.0" encoding="UTF-8"?>
<svg xmlns="http://www.w3.org/2000/svg" xmlns:xlink="http://www.w3.org/1999/xlink" width="514pt" height="430pt" viewBox="0 0 514 430" version="1.1">
<g id="surface1">
<path style=" stroke:none;fill-rule:nonzero;fill:rgb(0%,0%,0%);fill-opacity:1;" d="M 508.894531 124.957031 C 505.109375 118.550781 502.257813 111.585938 498.980469 104.910156 C 496.320313 99.488281 496.09375 95.996094 498.378906 87.691406 C 499.355469 84.136719 500.199219 82.632813 498.550781 78.597656 C 495.890625 72.097656 486.570313 56.820313 481.808594 49.257813 C 483.425781 41.898438 482.609375 38.070313 480.519531 34.222656 C 476.710938 27.203125 478.25 13.59375 481.15625 9.660156 C 483.183594 6.917969 480.441406 6.007813 477.863281 8.035156 C 467.769531 15.972656 464.640625 31.613281 461.335938 37.3125 C 460.695313 38.410156 459.777344 39.273438 458.40625 39.605469 C 455.53125 38.769531 448.492188 39.648438 446.535156 41.058594 C 445.792969 41.632813 444.886719 40.386719 444.089844 39.230469 C 439.914063 33.183594 433.199219 12.9375 438.058594 4.417969 C 440.601563 -0.0390625 438.121094 -1.011719 434.546875 1.59375 C 426.699219 7.3125 412.324219 34.433594 408.875 45.757813 C 403.921875 46.867188 400.507813 52.074219 399.394531 57.027344 C 391.347656 62.3125 380.8125 70.3125 372.664063 79.445313 C 364.515625 88.578125 358.757813 98.839844 354.113281 103.671875 C 335.984375 122.539063 279.519531 134.183594 239.148438 129.816406 C 208.96875 126.550781 155.554688 125.761719 128.222656 135.074219 C 124.753906 136.253906 108.078125 141.085938 102.820313 141.121094 C 79.175781 141.273438 64.78125 160.636719 48.769531 198.894531 C 38.253906 224.019531 35.996094 231.28125 18.980469 252.722656 C 8.40625 266.050781 3.996094 277.226563 0.921875 302.574219 C 0.0507813 309.734375 4.550781 315.53125 7.179688 308.613281 C 13.46875 292.070313 19.820313 277.847656 36.855469 262.660156 C 51.664063 249.464844 58.5 233.328125 63.753906 213.339844 C 67.429688 199.34375 75.628906 185.367188 88.925781 177.027344 C 89.445313 176.699219 89.855469 177.152344 89.542969 177.738281 C 82.378906 191.128906 79.902344 220.152344 79.179688 245.679688 C 78.230469 279.132813 67.953125 299.007813 52.25 319.269531 C 48 324.753906 48.355469 326.75 49.046875 333.5 C 49.597656 338.894531 46.332031 384.519531 47.347656 392.066406 C 48.65625 401.757813 52.273438 410.53125 56.808594 416.300781 C 60.660156 421.199219 70.527344 424.648438 74.535156 423.308594 C 76.589844 422.691406 78.464844 422.625 80.300781 422.6875 C 85.207031 422.859375 91.503906 422.953125 92.832031 418.0625 C 94.378906 412.382813 93.964844 406.761719 85.085938 401.625 C 79.511719 398.402344 76.28125 395.460938 75.71875 389.527344 C 73.792969 369.265625 77.65625 350.292969 86.234375 341.496094 C 89.394531 351.574219 91.617188 362.078125 93.578125 372.667969 C 94.476563 376.507813 94.941406 380.207031 96.953125 383.113281 C 100.222656 387.832031 111.714844 387.804688 119.648438 391.246094 C 124.320313 393.195313 128.683594 391.324219 132.027344 389.097656 C 133.3125 388.246094 134.609375 388.761719 136.109375 388.492188 C 140.894531 387.628906 139.574219 374.21875 129.597656 370.035156 C 124.992188 368.105469 119.34375 367.6875 115.785156 364.46875 C 115.644531 355.246094 114.878906 345.738281 115.878906 336.859375 C 117.164063 325.433594 120.003906 319.105469 128.324219 312.210938 C 133.496094 307.925781 162.550781 281.359375 164.71875 271.382813 C 167.335938 269.351563 174.445313 266.414063 176.417969 264.636719 C 183.488281 269.589844 190.863281 275.566406 199.652344 276.914063 C 209.054688 278.351563 213.804688 274.796875 214.335938 265.0625 C 222.164063 265.007813 256.179688 271.082031 261.914063 272.914063 C 294.210938 283.230469 305.664063 289.953125 327.488281 305.03125 C 331.992188 319.253906 335.53125 368.601563 329.058594 379.601563 C 327.003906 383.09375 332.378906 385.261719 335.089844 389.0625 C 337.480469 392.566406 340.347656 406.421875 340.546875 409.210938 C 340.789063 412.566406 342.855469 416.136719 346.3125 416.800781 C 349.820313 417.085938 347.644531 420.832031 349.179688 422.285156 C 355.53125 430.515625 372.253906 432.195313 373.777344 428.175781 C 377.570313 428.738281 379.636719 428.613281 381.050781 427.550781 C 381.691406 427.070313 382.507813 427.085938 383.375 427.210938 C 387.757813 427.839844 390.652344 425.214844 389.390625 421.515625 C 387.03125 414.585938 380.171875 408.445313 371.726563 405.632813 C 368.019531 404.378906 370.964844 398.582031 368.113281 394.6875 C 363.160156 387.039063 367.789063 359.339844 368.371094 352.226563 C 368.59375 349.5 371.472656 296.714844 375.65625 291.449219 C 377.019531 295.039063 379.15625 298.539063 381.972656 301.359375 C 382.046875 310.132813 383.472656 332.960938 383.867188 336.871094 C 384.671875 344.785156 385.003906 351.882813 383.574219 354.5625 C 381.78125 357.933594 383.5625 360.859375 386.007813 363.996094 C 387.492188 365.902344 388 367.664063 388.519531 370 C 389.835938 375.949219 390.839844 380.128906 391.765625 386.390625 C 392.335938 390.25 393.835938 397.332031 399.269531 396.800781 C 401.085938 396.625 400.992188 398.429688 401.222656 400.113281 C 402.046875 406.0625 416.222656 406.242188 421.101563 403.984375 C 422.363281 403.402344 423.6875 403.316406 425.058594 403.355469 C 433.800781 403.621094 439.660156 404.34375 439.671875 396.144531 C 439.671875 393.585938 438.535156 391.34375 436.847656 389.535156 C 433.824219 386.304688 418.644531 380.476563 416.648438 375.910156 C 416.285156 361.039063 417.996094 332.277344 420.71875 320.003906 C 422.125 313.664063 431.148438 257.695313 430.558594 250.546875 C 430.386719 248.476563 430.160156 246.429688 431.257813 244.867188 C 435.574219 238.710938 439.007813 229.1875 439.191406 219.039063 C 439.269531 214.496094 439.703125 210.246094 441.902344 205.449219 C 446.152344 196.1875 445.734375 187.550781 443.65625 178.652344 C 442.554688 173.925781 440.566406 169.214844 441.414063 163.609375 C 441.839844 161.386719 443.121094 159.253906 442.863281 157.03125 C 447.539063 156.070313 453.117188 158.605469 457.078125 160.886719 C 468.007813 167.179688 490.835938 168.351563 496.582031 156.859375 C 501.402344 157.664063 506.328125 154.710938 507.636719 148.226563 C 507.988281 146.460938 511.722656 141.558594 512.578125 139.734375 C 515.320313 133.898438 511.710938 129.726563 508.894531 124.957031 Z M 55.320313 331.84375 C 54.476563 329.703125 54.039063 325.695313 56.945313 326.550781 C 57.027344 328.34375 57.027344 330.90625 55.320313 331.84375 Z M 87.089844 409.730469 C 89.863281 413.347656 90.238281 415.105469 89.308594 418.953125 C 89.171875 419.601563 88.714844 419.527344 88.710938 418.953125 C 88.484375 416.171875 88.285156 412.890625 86.660156 410.328125 C 86.273438 409.84375 86.730469 409.230469 87.089844 409.730469 Z M 84.855469 417.191406 C 85.046875 417 85.359375 417.140625 85.371094 417.464844 C 85.417969 418.652344 85.660156 419.773438 86.066406 420.574219 C 85.019531 420.988281 82.445313 420.539063 82.078125 419.449219 C 81.613281 417.851563 83.53125 418.523438 84.855469 417.191406 Z M 72.929688 421.203125 C 70.609375 421.351563 68.03125 420.667969 66.167969 419.378906 C 65.6875 416.550781 67.613281 415.605469 68.472656 417.292969 C 69.273438 418.863281 72.058594 419.992188 72.390625 416.253906 C 72.511719 414.871094 72.382813 413.238281 72.195313 411.667969 C 72.058594 410.515625 72.789063 410.140625 73.15625 411.367188 C 73.835938 413.628906 74.742188 416.359375 74.90625 418.679688 C 75.054688 420.730469 74.542969 421.101563 72.929688 421.203125 Z M 135.0625 381.304688 C 135.730469 381.835938 136.449219 383.226563 136.660156 384.582031 C 136.835938 385.671875 136.269531 385.269531 135.769531 384.445313 C 135.234375 383.570313 134.640625 382.792969 133.78125 382.148438 C 132.914063 381.160156 134.289063 380.691406 135.0625 381.304688 Z M 126.984375 383.164063 C 128.09375 383.78125 129.191406 384.792969 129.265625 385.964844 C 129.347656 387.34375 128.789063 388.269531 127.761719 388.652344 C 127.5625 388.726563 127.257813 388.324219 127.304688 388.015625 C 127.476563 386.890625 127.398438 385.273438 126.601563 383.710938 C 126.433594 383.371094 126.640625 382.972656 126.984375 383.164063 Z M 121.367188 384.511719 C 122.300781 385.554688 122.597656 387.335938 123.300781 388.808594 C 123.789063 389.863281 121.976563 389.441406 121.195313 388.875 C 120.847656 388.621094 121.03125 386.839844 120.804688 384.910156 C 120.765625 384.589844 121.164063 384.28125 121.367188 384.511719 Z M 141.636719 257.839844 C 141.050781 259.359375 133.414063 273.34375 130.757813 279.089844 C 127.414063 286.320313 121.914063 298.816406 114.03125 310.546875 C 105.714844 322.914063 94.695313 334.4375 89.332031 338.578125 C 88.632813 339.117188 88.328125 338.675781 88.847656 338.023438 C 94.304688 331.167969 103.207031 321.902344 110.1875 311.65625 C 119.09375 298.578125 128.179688 278.308594 132.253906 271.066406 C 136.261719 263.9375 140.878906 257.519531 140.925781 257.460938 C 142.335938 255.460938 142.222656 256.324219 141.636719 257.839844 Z M 238.253906 266.214844 C 225.015625 262.214844 207.984375 248.5625 195.882813 242.402344 C 183.996094 236.355469 170.058594 233.351563 158.898438 239.660156 C 158.109375 240.105469 157.8125 239.6875 158.476563 239.21875 C 172.144531 229.546875 181.972656 227.742188 200.183594 239.78125 C 213.105469 248.324219 222.136719 259.035156 238.417969 265.175781 C 239.972656 265.761719 239.964844 266.734375 238.253906 266.214844 Z M 336.964844 314.054688 C 334.277344 304.933594 328.335938 295.808594 323.519531 292.296875 C 319.578125 289.429688 317.644531 283.597656 318.332031 278.542969 C 318.414063 277.9375 318.753906 277.941406 318.894531 278.695313 C 319.394531 281.371094 320.636719 285.023438 320.789063 285.5625 C 322.007813 289.804688 327.746094 293.933594 330.992188 296.40625 C 336.765625 300.898438 336.816406 307.347656 338.074219 313.777344 C 338.628906 316.609375 338.109375 317.945313 336.964844 314.054688 Z M 340.300781 339.46875 C 340.246094 340.230469 339.554688 340.199219 339.542969 339.539063 C 339.464844 334.628906 338.652344 328.710938 338.238281 323.613281 C 338.15625 322.578125 338.617188 322.3125 339.039063 323.40625 C 340.855469 328.101563 340.65625 334.445313 340.300781 339.46875 Z M 350.386719 117.34375 C 349.09375 122.113281 345.136719 123.832031 341.363281 125.804688 C 336.421875 128.386719 334.679688 134.25 333.210938 137.730469 C 332.867188 138.390625 331.953125 138.238281 332.015625 137.730469 C 333.859375 131.09375 335.703125 126.964844 340.695313 123.761719 C 343.660156 121.859375 347.03125 120.40625 349.019531 116.730469 C 349.816406 115.25 350.84375 115.65625 350.386719 117.34375 Z M 352.253906 113.136719 C 350.957031 113.519531 350.28125 113.152344 350.042969 112.535156 C 349.746094 111.773438 351.242188 108.808594 353.28125 108.269531 C 354.132813 109.464844 353.226563 112.695313 352.253906 113.136719 Z M 384.523438 419 C 386.625 420.066406 387.445313 423.671875 386.753906 424.601563 C 386.480469 424.96875 385.964844 425.25 385.050781 425.359375 C 383.554688 424.011719 384.675781 421.359375 384.007813 419.515625 C 383.597656 418.78125 384.03125 418.6875 384.523438 419 Z M 368.90625 420.234375 C 370.1875 422.113281 369.742188 424.386719 370.425781 426.605469 C 370.65625 427.386719 369.617188 428.144531 369.078125 427.40625 C 367.96875 425.613281 368.140625 423.050781 367.882813 420.832031 C 367.714844 420.289063 368.476563 419.753906 368.90625 420.234375 Z M 367.03125 403.582031 C 363.90625 402.132813 360.460938 401.410156 357.488281 402.578125 C 356.226563 403.070313 354.835938 402.761719 356.78125 401.789063 C 358.410156 400.84375 360.113281 399.992188 362.332031 400.507813 C 363.824219 400.996094 362.949219 398.578125 362.632813 397.582031 C 361.109375 392.839844 363.558594 391.332031 364.78125 393.015625 C 366.925781 395.976563 366.871094 400.160156 367.03125 403.582031 Z M 432.1875 392.308594 C 433.519531 395.613281 435.789063 396.917969 435.148438 399.785156 C 434.953125 400.652344 434.347656 400.53125 433.898438 399.625 C 432.867188 397.542969 431.8125 393.242188 431.421875 392.136719 C 431.304688 391.617188 431.992188 391.773438 432.1875 392.308594 Z M 425.753906 397.074219 C 427 397.246094 428.753906 398.890625 427.921875 400.933594 C 426.96875 400.707031 425.003906 400.839844 423.855469 400.46875 C 421.566406 399.71875 424.09375 396.84375 425.753906 397.074219 Z M 420.027344 49.105469 C 421.523438 42.554688 424.871094 36.808594 426.640625 30.554688 C 427.644531 32.253906 429.8125 35.523438 427.480469 37.496094 C 423.894531 40.949219 422.585938 44.691406 425.273438 47.378906 C 425.355469 50.964844 422.710938 53.441406 421.941406 56.601563 C 418.933594 54.835938 419.484375 51.488281 420.027344 49.105469 Z M 419.625 66.316406 C 422.933594 65.773438 424.359375 63.394531 424.378906 59.777344 C 424.410156 54.257813 428.332031 53.371094 431.421875 52.929688 C 429.304688 55.601563 426.96875 54.363281 426.695313 58.867188 C 426.542969 61.386719 427.058594 64.261719 424.71875 65.789063 C 420.246094 68.71875 418.132813 68.371094 417.511719 74.105469 C 417.472656 74.453125 417.199219 74.550781 417.085938 74.203125 C 416.058594 70.984375 415.085938 67.066406 419.625 66.316406 Z M 407.742188 49.027344 C 406.234375 54.542969 405.289063 62.066406 406.996094 65.996094 C 405.886719 66.519531 405.21875 66.429688 404.796875 66.003906 C 402.523438 63.71875 403.320313 51.085938 407.742188 49.027344 Z M 393.703125 326.34375 C 393.246094 327.320313 392.589844 328.066406 392.4375 326.207031 C 392.058594 321.46875 389.953125 305.144531 389.703125 301.800781 C 388.96875 292.078125 389.410156 281.320313 390.726563 278.761719 C 391.304688 277.636719 391.605469 277.964844 391.785156 278.699219 C 392.796875 282.839844 391.503906 290.179688 390.769531 296.683594 C 390.34375 300.441406 392.398438 313.703125 393.214844 316.449219 C 394.175781 319.703125 395.140625 322.84375 393.703125 326.34375 Z M 418.726563 381.703125 C 419.167969 382.195313 418.894531 382.410156 418.648438 382.476563 C 416.046875 383.191406 416.144531 385.300781 410.640625 385.429688 C 408.542969 385.527344 406.148438 385.738281 404.160156 386.277344 C 403.652344 386.414063 403.375 386.09375 403.738281 385.8125 C 406.285156 383.859375 410.03125 383.542969 413.144531 382.65625 C 414.835938 382.164063 412.546875 379.496094 414.171875 379.242188 C 416.816406 378.960938 417.277344 380.355469 418.726563 381.703125 Z M 437.144531 205.027344 C 430.652344 212.542969 435.265625 224.070313 432.445313 232.867188 C 429.628906 236.882813 428.003906 241.320313 425.871094 245.59375 C 421.769531 249.433594 417.886719 256.730469 409.898438 252.507813 C 412.460938 248.582031 412.015625 243.847656 419.136719 238.78125 C 428.230469 232.410156 431.265625 218.949219 427.410156 214.496094 C 426.421875 213.351563 424.171875 213.785156 425.316406 215.457031 C 428.3125 219.832031 423.882813 232.21875 417.167969 236.785156 C 408.660156 242.398438 407.765625 255.070313 401.703125 257.035156 C 395.066406 259.375 393.453125 265.28125 390.617188 270.277344 C 387.71875 275.394531 384.210938 277.1875 380.683594 278.105469 C 380.285156 278.210938 380.125 277.671875 380.445313 277.320313 C 383.550781 273.902344 387.066406 270.65625 389.5625 266.285156 C 394.332031 257.945313 396.664063 247.449219 394.527344 237.8125 C 392.660156 229.402344 393.058594 225.765625 397.710938 220.324219 C 406.898438 209.578125 402.289063 193.824219 396.242188 184.796875 C 390.644531 176.4375 388.28125 168.355469 397.578125 158.878906 C 406.933594 149.34375 406.429688 132.578125 392.371094 122.984375 C 387.03125 119.339844 382.15625 114.300781 385.574219 106.757813 C 386.242188 105.285156 392.09375 96.699219 392.644531 95.058594 C 394.023438 90.953125 388.664063 89.285156 385.558594 90.589844 C 382.410156 91.914063 379.964844 94.078125 376.71875 94.414063 C 373.6875 94.726563 372.582031 93.070313 374.03125 89.226563 C 378.984375 77.695313 388.378906 71.289063 397.945313 64.371094 C 398.96875 68.046875 401.53125 69.242188 402.300781 73 C 403.035156 78.84375 401.46875 84.460938 400.316406 90.285156 C 396.96875 107.242188 402.878906 129.339844 427.921875 138.160156 C 430.160156 138.925781 428.773438 142.515625 428.6875 144.5625 C 427.816406 149.4375 434.363281 159.207031 439.191406 158.058594 C 438.851563 165.316406 437.785156 171.941406 440.816406 178.722656 C 443.546875 187.09375 442.351563 197.9375 437.144531 205.027344 Z M 440.21875 93.664063 C 438.035156 90.292969 440.71875 87.613281 444.027344 87.085938 C 445.847656 86.796875 446.863281 85.414063 447.714844 84.1875 C 452.320313 77.527344 456.847656 78.839844 462.761719 77.953125 C 463.328125 78.765625 464.136719 80.078125 464.785156 81.125 C 465.335938 82.011719 465.507813 82.65625 464.390625 82.457031 C 458.851563 81.464844 454.367188 83.722656 450.890625 88.539063 C 450.339844 89.371094 449.042969 89.828125 448.003906 90.433594 C 446.058594 91.570313 446.605469 93.050781 447.699219 93.078125 C 448.898438 93.109375 450.058594 93.726563 451.363281 95 C 456.484375 99.992188 461.40625 104.195313 468.953125 99.992188 C 474.792969 96.738281 472.8125 91.011719 470.445313 86.265625 C 470.1875 85.753906 470.726563 85.167969 471.152344 85.605469 C 473.238281 87.734375 475.539063 94.84375 474.289063 98.558594 C 472.371094 104.28125 468.230469 105.371094 464.097656 105.9375 C 462.117188 106.210938 460.292969 106.761719 459.433594 108.867188 C 455.324219 101.5625 446.890625 94.167969 440.21875 93.664063 Z M 468.058594 93.921875 C 469.011719 93.203125 470.039063 95.3125 468.910156 95.972656 C 461.589844 99.792969 456.660156 97.605469 452.6875 90.847656 C 453.027344 90.25 453.28125 89.90625 453.964844 89.566406 C 457.6875 95.160156 461.617188 97.839844 468.058594 93.921875 Z M 468.65625 69.925781 C 470.246094 71.914063 472.296875 77.085938 470.363281 80.34375 C 468.144531 77.523438 469.082031 72.914063 466.265625 70.949219 C 465.496094 68.8125 467.90625 69.082031 468.65625 69.925781 Z M 460.121094 86.644531 C 461.550781 85.355469 462.324219 87.242188 461.355469 89.878906 C 461.160156 90.40625 459.59375 90.660156 459.433594 89.824219 C 459.21875 88.753906 459.371094 87.320313 460.121094 86.644531 Z M 498.375 139.183594 C 497.109375 138.988281 494.871094 139.355469 494.105469 137.730469 C 494.53125 136.195313 497.007813 136.449219 498.375 136.707031 C 499.058594 137.390625 498.886719 138.585938 498.375 139.183594 Z M 499.058594 153.957031 C 501.277344 151.824219 501.191406 146.953125 505.207031 147.382813 C 505.921875 149.523438 501.683594 154.632813 499.058594 153.957031 Z M 490.757813 131.363281 C 488.496094 134.589844 489.964844 140.308594 494.46875 145 C 497.441406 148.09375 499.921875 151.066406 494.273438 154.8125 C 490.222656 157.625 479.734375 156.757813 476.464844 155.566406 C 473.007813 154.300781 468.796875 154.050781 464.984375 154.8125 C 464.917969 156.382813 465.464844 157.148438 466.683594 157.113281 C 469.835938 157.105469 472.640625 157.378906 475.382813 158.125 C 480.328125 159.472656 485.84375 159.585938 490.929688 158.8125 C 491.25 158.761719 491.382813 159.113281 491.117188 159.328125 C 483.742188 165.242188 468.191406 163.273438 462.230469 160.417969 C 456.160156 157.507813 450.65625 153.453125 447.605469 154.664063 C 446.832031 154.972656 446.5625 153.84375 447.300781 153.457031 C 448.632813 152.761719 450.449219 152.546875 452.207031 152.242188 C 462.492188 150.453125 464.65625 142.488281 463.164063 133.285156 C 462.261719 128.480469 466.53125 128.632813 467.289063 126.117188 C 468.226563 123.214844 469.9375 120.140625 468.65625 116.894531 C 469.679688 115.101563 471.472656 112.625 474.035156 112.796875 C 475.988281 113 476.980469 115.976563 478.902344 113.820313 C 480.789063 111.933594 483.382813 114.296875 484.027344 111.941406 C 483.257813 108.097656 484.625 104.851563 482.40625 101.265625 C 481.636719 100.328125 481.105469 93.949219 480.757813 91.898438 C 477.03125 69.828125 470.765625 53.308594 454.734375 42.425781 C 456.101563 41.65625 460.515625 41.433594 462.414063 41.480469 C 464.9375 41.570313 475.8125 47.097656 480.953125 52.332031 C 485.5625 62.921875 493.421875 70.605469 496.753906 81.625 C 497.148438 82.867188 495.914063 83.992188 493.457031 83.527344 C 491.722656 83.199219 491.164063 83.914063 491.320313 85.777344 C 491.9375 93.296875 493.6875 98.644531 496.195313 104.535156 C 497.3125 107.167969 504.097656 121.078125 506.402344 125.261719 C 500.101563 124.328125 494.15625 126.511719 490.757813 131.363281 "/>
</g>
</svg>
