<?xml version="1.0" encoding="UTF-8"?>
<svg xmlns="http://www.w3.org/2000/svg" xmlns:xlink="http://www.w3.org/1999/xlink" width="516pt" height="517pt" viewBox="0 0 516 517" version="1.1">
<g id="surface1">
<path style=" stroke:none;fill-rule:nonzero;fill:rgb(0%,0%,0%);fill-opacity:1;" d="M 503.007813 94.304688 C 503.820313 86.722656 509.507813 79.542969 506.933594 71.960938 C 505.039063 68.710938 500.839844 68.167969 500.164063 64.511719 C 503.414063 57.605469 506.796875 52.324219 508.558594 44.335938 C 511.402344 32.6875 517.632813 20.363281 513.839844 7.230469 C 513.105469 5.425781 512.113281 3.570313 511.152344 2.144531 C 508.300781 -2.109375 506.5625 2.015625 506.113281 2.769531 C 496.988281 18.058594 488.632813 34.5625 476.058594 46.230469 C 467.253906 46.503906 458.316406 46.773438 450.058594 48.53125 C 438.816406 35.804688 431.367188 21.449219 426.359375 6.011719 C 424.734375 0.808594 421.082031 1.675781 418.402344 4.351563 C 416.777344 6.113281 416.667969 9.75 416.5625 11.03125 C 415.699219 21.390625 414.921875 32.585938 416.609375 42.710938 C 417.964844 53.8125 424.597656 64.105469 430.285156 72.90625 C 424.597656 82.253906 417.691406 91.191406 412.003906 100.535156 C 412.273438 103.242188 417.421875 103.785156 418.910156 106.355469 C 413.085938 114.074219 408.210938 121.253906 401.984375 128.835938 C 402.929688 131.410156 405.773438 132.628906 405.910156 135.609375 C 402.253906 142.648438 396.160156 146.710938 390.605469 151.585938 C 378.015625 149.015625 364.605469 148.609375 351.605469 146.984375 C 322.628906 143.460938 299.742188 153.210938 271.03125 151.179688 C 221.332031 149.421875 175.289063 130.867188 124.777344 136.015625 C 105.546875 136.148438 91.464844 146.304688 73.996094 150.910156 C 62.078125 153.484375 49.347656 155.109375 37.027344 155.785156 C 20.640625 154.972656 14.597656 170.746094 7.773438 180.433594 C 4.796875 187.339844 2.898438 194.378906 0.867188 201.964844 C 4.117188 201.964844 6.960938 199.390625 10.078125 198.308594 C 10.515625 197.984375 10.769531 198.238281 10.617188 198.984375 C 9.265625 206.433594 7.773438 215.234375 9.398438 222.683594 C 12.515625 219.566406 14.816406 218.351563 18.203125 215.640625 C 21.316406 221.328125 24.972656 229.453125 28.492188 233.109375 C 32.285156 220.785156 34.046875 207.652344 38.242188 195.464844 C 39.328125 193.296875 40.816406 192.347656 41.902344 190.183594 C 43.796875 200.203125 33.640625 211.714844 41.902344 220.109375 C 40.953125 221.871094 39.867188 223.632813 38.921875 225.390625 C 37.429688 228.777344 40.140625 231.351563 41.492188 234.058594 C 38.515625 239.609375 37.027344 245.839844 34.046875 251.390625 C 32.097656 255.539063 38.242188 257.214844 40.546875 260.464844 C 38.785156 265.746094 37.027344 271.164063 34.992188 276.308594 C 38.652344 278.339844 42.578125 280.507813 45.828125 282.808594 C 45.015625 289.039063 43.390625 295.269531 42.171875 300.683594 C 45.828125 301.769531 49.753906 302.445313 53.277344 303.933594 C 54.359375 309.21875 54.902344 314.496094 56.527344 319.644531 C 58.152344 326.957031 63.703125 332.371094 63.027344 340.363281 C 56.390625 349.570313 44.339844 353.5 37.027344 361.894531 C 36.484375 365.6875 36.753906 370.425781 36.617188 374.21875 C 34.859375 376.113281 33.640625 378.957031 32.152344 381.394531 C 32.152344 390.738281 32.152344 400.21875 32.152344 409.5625 C 33.179688 434.308594 28.570313 455.253906 18.199219 474.609375 C 15.882813 478.933594 14.839844 482.277344 18.398438 485.402344 C 23.210938 489.625 31.65625 488.183594 33.777344 496.097656 C 34.316406 499.886719 33.777344 503.003906 36.617188 505.847656 C 44.90625 508.113281 52.542969 514.550781 60.945313 516.046875 C 65.867188 516.925781 72.804688 517.109375 72.710938 510.042969 C 72.6875 508.570313 72.585938 506.992188 73.046875 505.441406 C 73.996094 504.542969 74.839844 503.867188 75.910156 503.324219 C 77.378906 502.597656 84.578125 498.089844 75.058594 489.261719 C 70.324219 484.867188 62.507813 483.5 56.121094 482.417969 C 53.277344 478.085938 50.296875 476.324219 47.453125 471.992188 C 45.558594 466.710938 45.964844 460.617188 44.472656 455.0625 C 49.214844 427.03125 57.746094 397.105469 83.472656 381.9375 C 84.152344 381.648438 84.40625 382.664063 84.421875 383.289063 C 86.320313 397.917969 88.621094 412.40625 89.972656 427.167969 C 91.058594 436.78125 90.246094 447.34375 94.171875 455.742188 C 95.410156 457.992188 102.773438 459.941406 105.277344 459.398438 C 116.515625 456.28125 113.132813 469.960938 121.121094 472.398438 C 127.253906 472.789063 133.03125 474.015625 139.167969 474.375 C 144.742188 474.703125 148.027344 474.96875 151.089844 470.34375 C 151.699219 469.421875 152.324219 468.507813 153.078125 467.792969 C 154.976563 467.523438 157.550781 467.253906 158.226563 465.492188 C 161.269531 459.402344 157.492188 452.859375 150.957031 450.0625 C 143.839844 447.015625 135.335938 447.296875 127.351563 446.398438 C 112.996094 445.3125 115.164063 429.46875 110.152344 420.667969 C 106.632813 401.300781 99.183594 381.53125 103.921875 360.8125 C 113.402344 352.28125 120.445313 339.144531 133.578125 334.8125 C 137.644531 331.695313 141.570313 336.707031 145.902344 335.488281 C 149.828125 328.175781 153.621094 321.132813 158.226563 314.769531 C 162.832031 315.445313 166.894531 317.070313 171.226563 318.289063 C 174.476563 316.9375 177.863281 315.851563 180.976563 314.09375 C 182.871094 313.6875 185.3125 315.988281 186.800781 317.613281 C 190.863281 325.871094 196.957031 315.988281 202.101563 316.664063 C 206.03125 320.726563 208.0625 325.0625 213.207031 328.3125 C 217.8125 328.851563 221.875 324.246094 226.207031 322.21875 C 229.1875 324.113281 230.675781 327.363281 233.25 328.988281 C 238.125 325.0625 243.8125 321.8125 249.230469 318.5625 C 251.125 321.132813 252.34375 324.382813 254.105469 326.6875 C 257.488281 326.007813 259.925781 323.164063 263.175781 322.21875 C 262.363281 335.621094 255.1875 348.894531 259.25 363.113281 C 262.90625 380.988281 272.65625 396.5625 269.40625 416.738281 C 271.574219 432.179688 259.519531 440.167969 258.300781 453.84375 C 259.519531 460.617188 266.15625 463.867188 271.710938 467.523438 C 271.300781 472.398438 271.84375 476.597656 274.960938 479.441406 C 283.625 483.367188 294.054688 484.992188 304.210938 483.773438 C 309.085938 481.605469 317.617188 484.449219 319.105469 478.222656 C 319.257813 475.058594 319.28125 471.730469 318.644531 468.863281 C 317.734375 464.757813 313.554688 462.574219 309.792969 462.078125 C 302.542969 461.117188 294.769531 460.847656 291.480469 453.84375 C 280.238281 426.21875 285.25 389.65625 297.710938 366.09375 C 302.585938 358.644531 300.28125 347.269531 300.960938 338.0625 C 301.011719 337.058594 301.773438 336.164063 302.585938 336.164063 C 305.5625 341.3125 310.03125 345.78125 312.605469 351.46875 C 314.367188 356.34375 317.753906 350.519531 320.460938 350.113281 C 320.867188 350.519531 321.304688 350.925781 321.457031 351.933594 C 322.539063 361.683594 320.59375 372.1875 321.679688 381.9375 C 324.792969 395.210938 334.8125 404.011719 338.878906 416.738281 C 339.6875 422.023438 339.960938 427.574219 341.179688 432.71875 C 344.023438 447.480469 339.28125 465.355469 344.15625 479.441406 C 347.410156 484.585938 354.855469 483.773438 359.730469 487.023438 C 360.84375 492 364.648438 494.207031 369.035156 495.675781 C 372.652344 496.886719 383.519531 499.738281 385.308594 500.261719 C 391.472656 502.066406 393.59375 501.59375 394.847656 495.148438 C 395.132813 493.691406 395.648438 492.503906 397.378906 492.441406 C 401.035156 492.441406 402.21875 488.714844 401.984375 486.347656 C 401.371094 482.367188 397.785156 478.085938 392.910156 476.867188 C 387.085938 473.886719 378.554688 476.597656 374.085938 471.042969 C 374.355469 461.96875 364.335938 458.992188 360.410156 452.492188 C 354.722656 438.679688 349.035156 421.480469 355.128906 405.363281 C 361.222656 386 345.785156 370.425781 347.003906 350.789063 C 349.847656 349.570313 353.503906 350.519531 356.480469 349.4375 C 361.492188 343.070313 366.503906 338.0625 371.378906 331.96875 C 373.003906 331.695313 374.492188 331.15625 375.980469 330.613281 C 380.855469 321.945313 386.410156 313.550781 391.554688 305.019531 C 395.347656 306.777344 399.679688 307.996094 403.609375 308.539063 C 407.671875 301.089844 410.242188 292.019531 411.460938 283.488281 C 412.546875 282.269531 414.441406 283.078125 415.929688 282.808594 C 417.285156 277.121094 421.214844 271.570313 420.128906 265.609375 C 424.054688 266.019531 427.578125 267.371094 431.234375 268.183594 C 431.929688 266.371094 433.230469 260.660156 433.789063 258.078125 C 434.601563 254.339844 434.957031 250.585938 435.839844 247.058594 C 440.035156 247.195313 443.152344 249.632813 447.753906 248.683594 C 448.578125 241.289063 450.097656 234.222656 451.140625 226.945313 C 451.808594 222.253906 452.496094 208.902344 452.1875 207.28125 C 454.972656 206.542969 457.996094 208.617188 461.433594 207.785156 C 461.566406 199.527344 461.160156 192.347656 461.839844 184.359375 C 464.953125 185.441406 468.472656 186.390625 471.859375 185.984375 C 471.722656 175.964844 470.53125 167.980469 469.585938 158.367188 C 469.421875 157.359375 470.234375 157.140625 471.496094 157.804688 C 473.691406 159.230469 475.113281 161.585938 477.410156 162.964844 C 478.496094 159.171875 479.851563 155.109375 481.609375 152.265625 C 481.339844 147.929688 488.382813 138.179688 479.714844 138.859375 C 471.316406 129.648438 458.996094 140.617188 449.378906 133.984375 C 441.527344 130.460938 434.617188 123.828125 432.183594 115.835938 C 431.335938 112.417969 430.691406 106.492188 432.183594 102.835938 C 435.972656 111.773438 438.410156 123.421875 447.484375 128.835938 C 454.390625 133.710938 464.003906 131.816406 472.128906 130.460938 C 469.421875 125.722656 466.171875 120.441406 462.378906 116.105469 C 461.972656 115.699219 461.839844 114.617188 462.378906 114.210938 C 465.359375 115.566406 466.847656 117.730469 468.878906 120.035156 C 471.316406 129.242188 480.167969 138.078125 490.007813 139.535156 C 495.800781 140.390625 503.871094 135.269531 505.308594 131.679688 C 508.695313 122.878906 509.507813 112.855469 509.914063 102.835938 C 510.996094 97.960938 505.171875 97.011719 503.007813 94.304688 Z M 63.296875 274.144531 C 65.597656 265.882813 66.683594 258.027344 69.121094 250.039063 C 66.953125 246.921875 63.027344 246.652344 60.453125 244.214844 C 64.390625 233.933594 68.207031 221.980469 74.132813 212.269531 C 74.53125 211.625 75.132813 211.714844 75.003906 212.386719 C 73.257813 221.546875 69.222656 230.402344 66.953125 239.609375 C 69.121094 242.589844 71.421875 245.433594 73.722656 248.414063 C 71.421875 255.859375 71.015625 264.121094 68.578125 271.433594 C 71.203125 273.429688 74.925781 272.636719 77.464844 274.074219 C 77.980469 274.753906 78.417969 276.230469 78.328125 277.664063 C 79.953125 284.839844 80.089844 292.558594 81.847656 299.738281 C 85.25 300.222656 89.597656 301.269531 93.292969 301.480469 C 93.71875 301.507813 93.8125 302.003906 93.414063 302.238281 C 89.285156 304.65625 81.507813 305.445313 78.3125 304.96875 C 76.550781 296.164063 76.433594 288.089844 75.621094 279.019531 C 71.457031 276.699219 61.890625 279.492188 63.296875 274.144531 Z M 112.851563 337.117188 C 110.421875 335.753906 107.824219 332.859375 105.953125 332.644531 C 101.621094 334.945313 97.289063 336.84375 93.222656 339.6875 C 89.296875 335.894531 86.046875 330.070313 82.527344 326.144531 C 79.261719 327.191406 76.199219 328.84375 72.816406 329.628906 C 72.269531 329.757813 72.027344 329.1875 72.46875 328.832031 C 76.453125 325.640625 80.765625 323.300781 84.421875 319.644531 C 87.132813 324.113281 91.003906 329.640625 93.304688 334.109375 C 97.773438 331.804688 102.433594 330.613281 106.902344 326.414063 C 110.558594 328.445313 114.351563 331.96875 118.277344 334.269531 C 120.714844 336.199219 115.890625 338.992188 112.851563 337.117188 Z M 125.453125 242.183594 C 127.078125 249.765625 129.839844 257.773438 130.785156 266.035156 C 131.125 267.980469 131.550781 271.703125 131.277344 274.144531 C 128.246094 275.175781 123.59375 274.328125 120.207031 272.976563 C 118.851563 276.765625 118.277344 281.050781 117.328125 285.113281 C 116.652344 288.621094 115.59375 292.316406 114.238281 295.808594 C 113.96875 296.496094 113.351563 296.21875 113.347656 295.402344 C 113.308594 286.253906 115.058594 276.742188 116.921875 267.914063 C 120.714844 267.644531 123.683594 270.230469 127.339844 268.46875 C 124.089844 258.582031 121.796875 248.277344 119.226563 237.984375 C 124.234375 237.445313 129.109375 239.339844 134.121094 239.609375 C 131.953125 231.078125 126.402344 222.277344 127.621094 211.984375 C 127.316406 209.648438 127.851563 207.464844 128.535156 205.605469 C 128.765625 204.984375 129.285156 204.964844 129.324219 205.507813 C 130.351563 220.5625 138.988281 230.714844 139.25 246.398438 C 133.96875 245.316406 130.464844 243.671875 125.453125 242.183594 Z M 167.976563 197.765625 C 164.050781 213.339844 157.957031 228.777344 160.800781 246.515625 C 161.339844 258.300781 163.910156 268.941406 166.46875 281.195313 C 162.539063 283.226563 159.582031 283.621094 155.246094 284.839844 C 153.894531 287.363281 155.652344 297.941406 155.652344 302.511719 C 155.652344 303.21875 155.003906 303.375 154.710938 302.742188 C 151.71875 296.285156 151.558594 288.394531 148.476563 281.609375 C 152.539063 280.523438 157.175781 280.140625 160.832031 279.054688 C 159.882813 271.199219 158.363281 265.746094 157.277344 257.484375 C 154.027344 237.714844 153.722656 209.074219 167.300781 196.683594 C 168.195313 196.039063 168.195313 196.886719 167.976563 197.765625 Z M 252.480469 270.894531 C 255.050781 260.871094 258.707031 251.796875 262.230469 241.914063 C 259.113281 241.101563 254.8125 241.03125 251.429688 239.8125 C 255.691406 231.035156 261.089844 225.449219 267.457031 217.25 C 267.964844 216.597656 268.476563 216.71875 268.160156 217.488281 C 265.691406 223.574219 261.230469 230.757813 257.625 236.765625 C 259.925781 238.257813 263.042969 239.070313 266.15625 239.339844 C 264.394531 248.546875 260.199219 257.621094 257.625 266.964844 C 260.875 267.234375 263.988281 265.339844 267.375 264.933594 C 264.800781 275.089844 261.550781 285.789063 258.707031 296.214844 C 258.589844 296.589844 258.082031 296.671875 258.03125 296.214844 C 258.707031 287.414063 260.0625 279.019531 262.230469 270.894531 C 259.113281 270.351563 255.324219 271.839844 252.480469 270.894531 Z M 287.28125 335.894531 C 284.4375 329.9375 284.710938 322.082031 283.355469 315.71875 C 280.375 317.746094 276.988281 318.96875 273.605469 320.1875 C 272.519531 313.550781 269.8125 306.898438 269.675781 299.71875 C 265.210938 299.3125 262.5 300.007813 258.300781 301.089844 C 257.050781 301.515625 256.175781 299.265625 258.03125 298.519531 C 261.050781 297.765625 264.015625 296.347656 267.136719 295.402344 C 269.765625 294.609375 272.410156 294.640625 272.65625 299.464844 C 274.011719 305.152344 275.144531 309.742188 277.039063 315.292969 C 279.207031 313.53125 282.8125 312.871094 285.25 311.789063 C 287.417969 318.832031 288.9375 325.890625 290.125 333.1875 C 290.425781 335.015625 288.128906 337.300781 287.28125 335.894531 Z M 356.230469 323.019531 C 354.230469 335.230469 346.117188 342.1875 339.425781 352.890625 C 338.800781 353.890625 337.472656 353.972656 336.304688 352.6875 C 332.648438 347.269531 329.855469 339.972656 326.46875 334.421875 C 323.761719 336.046875 322.761719 341.988281 320.054688 344.019531 C 318.699219 340.769531 320.207031 337.214844 321.679688 334.539063 C 323.710938 331.425781 324.269531 328.394531 326.300781 325.28125 C 331.121094 332.007813 333.78125 340.09375 338.65625 346.863281 C 345.183594 339.441406 348.875 330.976563 355.320313 322.71875 C 355.699219 322.234375 356.324219 322.445313 356.230469 323.019531 Z M 369.210938 247.734375 C 363.929688 245.703125 360.046875 242.957031 355.574219 239.300781 C 355.019531 238.808594 354.230469 239.289063 354.316406 240.558594 C 354.695313 259.515625 349.730469 275.699219 340.675781 290.199219 C 339.644531 291.851563 339.214844 291.546875 339.710938 289.71875 C 343.863281 274.554688 351.039063 260.183594 350.660156 242.859375 C 350.660156 240.152344 350.558594 236.191406 351.097656 233.617188 C 356.023438 235.820313 360.484375 238.945313 365.648438 242.34375 C 366.597656 231.371094 365.554688 220.785156 363.929688 210.089844 C 363.253906 206.433594 361.652344 195.613281 361.421875 194.007813 C 361.238281 192.730469 361.757813 192.125 362.265625 193.121094 C 370.25 208.859375 372.902344 229.015625 369.210938 247.734375 Z M 404.886719 223.132813 C 405.972656 232.070313 406.179688 241.777344 407.128906 250.714844 C 405.691406 251.644531 402.960938 251.402344 401.320313 252.140625 C 400.441406 252.492188 399.34375 252.832031 399.511719 254.015625 C 401.542969 267.015625 397.648438 279.152344 390.605469 288.089844 C 389.101563 288.632813 382.71875 286.246094 379.199219 285.839844 C 377.980469 297.757813 375.847656 308.269531 371.785156 318.96875 C 371.496094 319.609375 370.988281 319.523438 371.105469 318.96875 C 372.054688 306.507813 374.492188 294.589844 375.304688 282.269531 C 380.585938 282.402344 385.191406 283.757813 390.335938 284.164063 C 395.617188 273.738281 393.992188 258.703125 392.910156 246.515625 C 396.023438 245.433594 399.140625 248.007813 402.929688 247.058594 C 402.390625 237.308594 401.710938 226.746094 399.679688 217.265625 C 402.117188 217.402344 404.828125 217.808594 407.128906 217.265625 C 404.285156 201.015625 397.378906 186.253906 391.285156 171.765625 C 390.453125 169.871094 390.777344 168.820313 392.300781 170.765625 C 403.539063 185.933594 408.484375 203.285156 414.578125 220.753906 C 410.648438 223.191406 409.121094 220.847656 404.886719 223.132813 Z M 501.109375 74.535156 C 503.007813 75.753906 503.820313 77.917969 503.414063 80.355469 C 501.652344 77.648438 497.183594 76.429688 493.933594 77.511719 C 492.726563 78.132813 491.359375 78.324219 490.410156 79.410156 C 492.445313 84.824219 495.289063 89.023438 498.132813 94.035156 C 498.539063 94.726563 497.097656 95.742188 496.234375 94.980469 C 490.382813 88.492188 486.085938 79.855469 486.148438 70.523438 C 486.152344 69.921875 486.710938 69.632813 486.910156 70.128906 C 487.929688 72.640625 488.265625 75.679688 489.734375 78.054688 C 493.121094 74.941406 497.777344 72.722656 501.109375 74.535156 Z M 489.675781 113.125 C 486.203125 111.523438 484.441406 107.859375 481.128906 105.433594 C 481.128906 103.230469 484.488281 103.613281 485.535156 104.730469 C 487.679688 107.234375 489.089844 109.734375 490.875 112.421875 C 491.117188 112.785156 490.464844 113.488281 489.675781 113.125 Z M 480.660156 53.136719 C 482.691406 55.167969 485.535156 57.0625 488.109375 57.605469 C 488.660156 55.464844 489.175781 53.277344 489.699219 51.085938 C 491.761719 42.480469 499.300781 23.292969 503.414063 21.585938 C 504.632813 21.007813 507.070313 20.5 507.882813 22.261719 C 508.695313 24.902344 505.445313 23.210938 504.359375 24.429688 C 498.03125 35.652344 495.480469 46.851563 490.007813 58.960938 C 490.207031 59.960938 492.214844 61.257813 493.40625 62.1875 C 494.632813 63.140625 494.558594 64.429688 491.632813 63.15625 C 484.589844 60.449219 479.851563 56.386719 474.839844 50.835938 C 476.734375 50.5625 478.984375 51.5625 480.660156 53.136719 Z M 460.859375 88.800781 C 460.214844 87.804688 459.859375 87.703125 459.460938 88.25 C 456.386719 90.835938 453.132813 94.238281 449.109375 93.355469 C 445.996094 92.949219 444.234375 90.648438 443.285156 87.804688 C 445.183594 87.535156 446.808594 89.699219 448.839844 89.835938 C 452.800781 90.140625 455.746094 87.804688 457.910156 84.960938 C 455.066406 81.980469 451.953125 78.730469 447.484375 78.460938 C 444.234375 79.410156 439.902344 78.867188 437.734375 81.304688 C 435.839844 80.085938 436.414063 78.394531 438.003906 77.511719 C 441.527344 75.886719 445.722656 74.941406 449.785156 75.886719 C 453.171875 77.121094 459.402344 80.898438 461.433594 85.910156 C 461.769531 86.445313 462.003906 87.046875 462.15625 87.699219 C 462.625 89.707031 461.921875 90.65625 460.859375 88.800781 Z M 455.539063 69.84375 C 450.9375 68.761719 444.910156 66.679688 440.714844 69.929688 C 438.867188 70.097656 438.953125 68.574219 440.984375 67.761719 C 443.015625 66.949219 445.132813 66.882813 447.214844 65.460938 C 434.753906 54.085938 427.847656 38.917969 425.003906 21.585938 C 422.449219 24.308594 423.546875 32.773438 423.109375 36.210938 C 420.503906 32.265625 418.773438 24.292969 421.753906 19.011719 C 423.207031 16.484375 427.027344 16.433594 428.253906 22.261719 C 432.316406 38.375 438.683594 54.355469 450.058594 65.730469 C 458.757813 63.664063 465.191406 72.554688 469.964844 78.460938 C 471.941406 82.90625 474.367188 86.90625 474.984375 91.683594 C 475.042969 92.144531 474.601563 92.257813 474.351563 91.839844 C 469.367188 83.429688 465.191406 72.214844 455.539063 69.84375 Z M 500.839844 127.210938 C 497.046875 130.460938 493.121094 131.800781 488.109375 130.734375 C 482.664063 129.0625 480.308594 125.777344 477.378906 121.8125 C 473.90625 116.648438 469.960938 111.578125 464.003906 108.929688 C 461.839844 108.003906 462.492188 106.113281 464.769531 106.316406 C 467.421875 106.550781 473.515625 109.9375 475.9375 113.855469 C 479.855469 120.183594 482.117188 128.117188 491.632813 128.6875 C 492.675781 128.390625 492.441406 125.285156 492.632813 122.921875 C 492.917969 120.636719 493.660156 118.613281 493.78125 118.207031 C 494.070313 117.210938 495.574219 116.988281 495.523438 118.425781 C 495.460938 120.40625 495.242188 122.96875 495.0625 125.195313 C 494.980469 126.226563 495.140625 127.566406 496.613281 127.039063 C 497.742188 126.636719 498.757813 125.988281 499.773438 125.570313 C 501.328125 124.773438 502.09375 125.960938 500.839844 127.210938 Z M 506.5 103.09375 C 504.941406 106.816406 502.300781 108.722656 498.988281 110.933594 C 498.054688 111.523438 497.351563 109.453125 498.539063 108.390625 C 501.027344 106.253906 502.683594 103.1875 505.601563 102.183594 C 506.476563 101.882813 506.878906 102.191406 506.5 103.09375 "/>
</g>
</svg>
