<?xml version="1.0" encoding="UTF-8"?>
<svg xmlns="http://www.w3.org/2000/svg" xmlns:xlink="http://www.w3.org/1999/xlink" width="474pt" height="624pt" viewBox="0 0 474 624" version="1.1">
<g id="surface1">
<path style=" stroke:none;fill-rule:nonzero;fill:rgb(0%,0%,0%);fill-opacity:1;" d="M 473.445313 593.171875 C 474.777344 588.957031 470.335938 587.179688 471.558594 583.070313 C 467.339844 574.96875 460.125 570.417969 455.019531 563.09375 C 454.464844 562.535156 455.128906 561.871094 455.019531 561.207031 C 452.578125 559.207031 454.019531 555.433594 451.800781 553.214844 C 450.46875 549.773438 446.914063 547.550781 443.585938 545.996094 C 438.921875 543.667969 438.8125 537.894531 437.925781 533.234375 C 434.816406 529.015625 435.261719 522.6875 434.484375 517.25 C 435.148438 493.714844 439.367188 467.742188 433.929688 444.765625 C 432.039063 436.996094 431.265625 428.335938 428.601563 420.566406 C 425.382813 399.699219 417.609375 380.050781 411.617188 360.070313 C 405.621094 348.75 402.738281 334.542969 396.964844 323.332031 C 394.632813 319.558594 393.96875 314.894531 391.082031 311.566406 C 389.527344 305.238281 384.199219 300.242188 381.535156 294.582031 C 368.328125 282.59375 363.554688 263.503906 349.566406 254.289063 C 339.355469 242.1875 328.699219 231.535156 313.605469 225.539063 C 305.722656 222.542969 297.621094 220.210938 289.628906 217.878906 C 280.414063 214.328125 270.757813 212.109375 262.101563 207.445313 C 257.769531 206.335938 254.664063 200.785156 249.890625 202.339844 C 236.789063 192.460938 225.136719 180.027344 221.917969 163.710938 C 219.808594 158.050781 223.691406 153.609375 222.695313 148.28125 C 221.363281 144.285156 221.472656 139.292969 218.476563 136.074219 C 216.144531 127.96875 214.148438 120.421875 209.707031 113.097656 C 208.265625 112.320313 208.042969 110.433594 207.820313 108.878906 C 207.597656 107.214844 209.039063 106.546875 210.484375 106.4375 C 212.039063 105.660156 213.28125 109.617188 213.472656 106.769531 C 210.25 101.277344 207.042969 97.445313 201.714844 96.335938 C 191.390625 86.34375 188.171875 68.808594 191.058594 53.488281 C 190.726563 49.714844 189.949219 45.164063 186.507813 43.609375 C 181.402344 40.945313 180.515625 34.394531 180.847656 28.402344 C 173.410156 23.851563 177.40625 13.75 177.40625 6.535156 C 176.738281 5.3125 176.519531 3.203125 176.628906 1.207031 C 175.242188 -1.382813 175.257813 3.128906 173.863281 3.871094 C 172.714844 15.730469 164.140625 20.933594 155.09375 30.289063 C 149.433594 37.949219 147.101563 49.605469 141.773438 58.261719 C 140.777344 58.59375 140.222656 59.703125 140.109375 60.925781 C 135.226563 66.363281 129.011719 70.695313 121.460938 71.027344 C 117.578125 74.910156 112.804688 73.246094 107.921875 72.914063 C 105.144531 74.46875 103.035156 77.355469 99.371094 76.6875 C 93.046875 74.578125 89.9375 80.019531 85.277344 82.015625 C 73.511719 83.570313 63.632813 77.910156 54.640625 73.46875 C 47.757813 66.921875 38.210938 64.589844 29.332031 61.703125 C 17.675781 60.371094 8.1875 54.347656 2.640625 44.6875 C 2.195313 43.6875 2.027344 41.390625 0.582031 41.5 C -0.277344 44.636719 2.671875 50.707031 5.910156 52.933594 C 10.019531 62.589844 18.011719 69.804688 21.894531 80.128906 C 25.335938 94.226563 33.773438 104.214844 37.878906 117.425781 C 38.210938 121.421875 41.765625 124.527344 39.65625 128.636719 C 38.988281 131.964844 40.988281 134.296875 40.988281 137.40625 C 38.765625 140.957031 36.65625 143.84375 37.324219 148.617188 C 37.324219 151.28125 40.210938 151.390625 40.210938 154.164063 C 38.988281 159.9375 35.882813 165.597656 37.878906 171.703125 C 39.210938 175.699219 42.761719 178.140625 46.871094 178.917969 C 46.980469 186.355469 54.972656 189.132813 60.523438 192.238281 C 63.296875 192.128906 64.660156 194.347656 66.546875 195.457031 C 60.777344 198.675781 55.4375 201.664063 50.664063 206.769531 C 40.683594 215.285156 33.039063 230.101563 21.113281 234.238281 C 19.574219 234.996094 19.585938 236.1875 21.261719 235.472656 C 22.390625 234.992188 26.933594 233.265625 29.28125 231.675781 C 42.488281 220.355469 50.53125 203.761719 67.628906 196.4375 C 70.484375 199.777344 64.296875 206.003906 63.964844 210.886719 C 63.074219 213.550781 60.632813 218.878906 64.964844 220.210938 C 63.851563 224.984375 60.433594 229.980469 62.429688 235.640625 C 60.433594 241.476563 55.109375 260.078125 46.589844 263.261719 C 45.515625 263.730469 46.125 264.972656 47.046875 264.511719 C 51.886719 262.714844 60.367188 251.703125 62.632813 239.191406 C 63.632813 241.523438 65.296875 243.519531 65.851563 246.074219 C 61.410156 254.398438 63.964844 265.164063 64.1875 274.601563 C 65.519531 279.820313 67.628906 284.925781 71.402344 288.921875 C 71.734375 301.796875 73.289063 313.230469 77.285156 324.886719 C 83.722656 337.429688 89.273438 349.859375 93.269531 363.847656 C 101.816406 386.933594 115.136719 406.691406 117.800781 432.335938 C 120.550781 453.835938 123.238281 474.847656 123.902344 497.046875 C 122.90625 498.710938 120.683594 498.269531 118.796875 498.378906 C 114.246094 504.59375 106.144531 499.933594 101.261719 505.261719 C 97.929688 511.367188 89.492188 510.476563 86.273438 516.25 C 81.167969 521.246094 79.949219 529.679688 82.613281 535.898438 C 79.613281 539.78125 82.5 545 84.5 548.441406 C 82.277344 554.65625 86.71875 559.984375 90.046875 564.421875 C 103.925781 575.523438 120.128906 584.847656 139.886719 583.070313 C 141.554688 580.851563 144.550781 582.960938 147.101563 582.515625 C 157.980469 588.957031 170.746094 593.507813 183.066406 597.722656 C 189.0625 599.390625 195.722656 602.277344 202.160156 600.386719 C 204.15625 601.609375 205.710938 602.496094 207.488281 603.828125 C 223.140625 612.820313 242.5625 614.484375 261.65625 612.597656 C 275.308594 615.929688 286.742188 618.703125 301.0625 616.371094 C 307.941406 618.039063 315.714844 616.261719 322.039063 618.480469 C 331.363281 616.816406 340.464844 622.808594 349.789063 619.589844 C 353.5625 620.035156 357.339844 618.480469 361 620.921875 C 367.882813 623.03125 374.652344 623.363281 381.757813 622.808594 C 382.644531 622.367188 383.367188 624.382813 384.199219 622.476563 C 389.195313 621.476563 394.523438 620.035156 399.628906 619.8125 C 413.613281 623.921875 430.042969 620.699219 443.253906 616.371094 C 448.359375 613.265625 455.574219 612.152344 459.792969 607.046875 C 465.785156 603.386719 470.316406 599.984375 473.890625 594.230469 C 473.777344 594.007813 473.554688 593.394531 473.445313 593.171875 Z M 110.332031 522 C 110.109375 521.558594 109.605469 521.398438 109.253906 521.023438 C 110.25 518.359375 110.140625 514.917969 112.914063 513.585938 C 111.582031 515.804688 115.234375 522.804688 110.332031 522 Z M 386.53125 372.835938 C 387.195313 376.167969 389.195313 379.054688 392.191406 380.386719 C 392.636719 384.601563 393.414063 388.710938 393.523438 393.148438 C 396.1875 395.035156 394.191406 401.140625 399.074219 400.03125 C 402.847656 402.917969 402.292969 408.800781 404.957031 412.355469 C 404.957031 413.019531 405.179688 414.683594 406.511719 414.683594 C 409.398438 413.796875 409.175781 417.128906 410.507813 418.125 C 410.617188 421.675781 412.171875 425.339844 414.835938 427.78125 C 417.5 428.003906 417.722656 431.554688 418.277344 433.886719 C 419.609375 437.992188 419.527344 441.289063 418.832031 446.652344 C 418.054688 445.542969 418.054688 443.65625 417.722656 442.101563 C 416.945313 438.992188 415.503906 435.328125 411.839844 434.664063 C 408.84375 434.886719 411.507813 439.546875 407.84375 438.992188 C 406.289063 432 404.625 425.117188 403.070313 418.125 C 401.183594 414.460938 398.296875 420.011719 397.519531 416.347656 C 397.632813 412.796875 398.742188 408.023438 395.078125 405.914063 C 394.410156 404.804688 392.859375 405.691406 391.859375 406.136719 C 391.082031 402.472656 391.191406 398.144531 388.195313 395.480469 C 388.195313 394.148438 388.308594 392.707031 387.085938 392.039063 C 385.3125 392.59375 386.308594 395.703125 384.199219 395.257813 C 382.757813 392.484375 382.535156 388.820313 382.3125 385.378906 C 383.089844 381.382813 382.3125 376.5 379.871094 373.171875 C 378.539063 373.28125 376.984375 373.835938 376.207031 373.945313 C 375.390625 371.742188 377.121094 370.09375 375.320313 368.398438 C 374.988281 366.84375 375.652344 365.179688 377.539063 365.734375 C 380.871094 367.953125 382.535156 371.839844 386.53125 372.835938 Z M 388.972656 457.640625 C 387.640625 456.085938 388.308594 453.644531 387.308594 452.3125 C 388.863281 450.980469 389.769531 449.09375 390.882813 447.984375 C 391.101563 448.207031 391.414063 448.316406 391.636719 448.539063 C 390.859375 450.980469 390.636719 454.644531 392.191406 456.753906 C 392.96875 457.308594 393.96875 457.421875 394.855469 458.085938 C 392.859375 461.082031 391.191406 464.410156 388.417969 466.078125 C 388.527344 463.300781 388.195313 460.527344 388.972656 457.640625 Z M 370.546875 320.113281 C 371.65625 318.335938 371.65625 316.671875 373.210938 315.339844 C 377.429688 316.449219 374.988281 322.441406 378.316406 324.664063 C 376.539063 326.882813 375.984375 322.554688 374.320313 322.777344 C 373.320313 324.109375 372.210938 324.773438 370.546875 325.21875 C 369.769531 323.554688 372.210938 321.777344 370.546875 320.113281 Z M 357.003906 355.519531 C 355.339844 356.742188 353.5625 355.964844 351.898438 355.078125 C 347.902344 353.410156 350.457031 345.753906 344.460938 346.753906 C 342.019531 345.863281 341.019531 348.195313 340.242188 349.414063 C 335.359375 346.53125 332.917969 361.402344 332.253906 349.972656 C 330.921875 339.535156 330.363281 328.4375 330.585938 317.78125 C 331.683594 319.015625 332.898438 318.84375 333.585938 317.78125 C 336.914063 323.109375 345.351563 324.886719 344.683594 332.65625 C 345.683594 334.097656 346.238281 335.761719 346.347656 337.429688 C 353.898438 340.867188 349.902344 351.96875 357.003906 355.519531 Z M 331.363281 270.605469 C 334.582031 271.382813 338.136719 272.160156 341.574219 272.9375 C 342.90625 274.15625 342.132813 275.601563 342.351563 277.488281 C 345.917969 280.160156 344.429688 285.195313 345.453125 290.714844 C 346.003906 292.453125 345.394531 292.710938 344.828125 290.824219 C 342.078125 284.242188 339.3125 273.054688 329.808594 273.492188 C 329.589844 272.824219 330.144531 270.9375 331.363281 270.605469 Z M 316.710938 412.019531 C 320.265625 410.6875 322.929688 414.683594 326.035156 413.351563 C 334.25 409.023438 336.804688 401.476563 341.796875 394.703125 C 343.242188 395.148438 343.796875 396.367188 345.015625 397.367188 C 349.347656 398.035156 351.675781 393.148438 355.117188 390.484375 C 355.230469 391.816406 356.894531 392.707031 358.003906 393.371094 C 360.003906 394.703125 362.222656 393.148438 364.441406 393.703125 C 364.332031 396.703125 367.992188 399.144531 365.550781 402.140625 C 367.660156 405.804688 367.105469 411.464844 365.996094 415.238281 C 365.328125 415.792969 365.328125 416.792969 364.441406 417.347656 C 361.777344 415.015625 358.671875 412.574219 354.5625 413.128906 C 352.898438 416.015625 349.347656 414.128906 347.125 415.792969 C 344.90625 413.90625 340.910156 413.683594 338.355469 415.015625 C 335.582031 416.347656 333.585938 419.566406 330.585938 420.566406 C 327.8125 420.011719 323.371094 418.125 321.261719 421.121094 C 320.042969 422.121094 318.597656 424.339844 316.710938 423.453125 C 315.714844 423.453125 314.9375 421.898438 313.605469 421.898438 C 311.382813 423.453125 308.054688 422.230469 305.613281 423.007813 C 295.179688 425.785156 289.960938 437.105469 283.746094 443.765625 C 283.410156 446.429688 279.972656 447.761719 278.085938 449.09375 C 274.089844 453.757813 274.753906 462.082031 267.984375 464.746094 C 267.761719 468.296875 265.097656 471.074219 267.203125 474.625 C 267.429688 479.0625 262.433594 480.394531 260.769531 484.28125 C 258.214844 492.941406 254.441406 503.597656 244.339844 505.261719 C 243.230469 506.925781 242.34375 508.367188 240.789063 509.257813 C 239.566406 505.039063 242.785156 501.929688 244.339844 498.046875 C 248.003906 495.160156 249.003906 489.5 250.664063 485.28125 C 254.328125 485.503906 256.105469 481.507813 258.4375 479.398438 C 263.320313 474.515625 261.324219 466.078125 267.761719 461.859375 C 267.984375 457.085938 273.089844 456.308594 273.867188 451.980469 C 276.753906 447.984375 279.414063 443.65625 281.304688 438.660156 C 285.519531 435.773438 288.074219 431.890625 291.183594 428.003906 C 293.625 428.113281 292.957031 424.894531 295.398438 424.007813 C 299.617188 425.117188 299.175781 418.789063 302.949219 419.789063 C 304.28125 418.457031 307.054688 417.238281 307.722656 415.238281 C 312.605469 417.128906 311.9375 406.691406 316.710938 412.019531 Z M 350.011719 463.414063 C 349.457031 469.40625 344.085938 471.46875 343.683594 478.621094 C 342.261719 479.183594 343.996094 480.484375 342.90625 481.285156 C 339.355469 482.949219 339.578125 487.277344 337.578125 490.386719 C 339.910156 492.496094 336.46875 493.605469 336.46875 495.382813 C 334.914063 498.046875 334.914063 501.820313 336.46875 504.484375 C 333.695313 506.148438 334.582031 511.03125 330.585938 510.589844 C 330.144531 512.363281 329.589844 514.585938 327.921875 515.363281 C 325.59375 515.695313 326.8125 512.363281 326.925781 511.144531 C 328.589844 502.042969 330.585938 492.050781 335.359375 484.503906 C 336.027344 483.171875 336.582031 481.507813 335.914063 479.953125 C 334.359375 479.398438 332.695313 479.0625 331.363281 478.066406 C 334.25 470.738281 342.351563 465.746094 347.902344 459.972656 C 351.011719 458.753906 349.679688 461.96875 350.011719 463.414063 Z M 318.378906 476.734375 C 317.933594 478.621094 318.15625 480.730469 318.042969 482.617188 C 314.160156 486.503906 311.160156 491.71875 312.492188 497.601563 C 311.71875 500.265625 309.273438 498.046875 307.386719 498.601563 C 305.945313 498.378906 307.164063 495.714844 305.058594 496.492188 C 304.058594 497.601563 303.058594 498.488281 301.617188 498.046875 C 304.613281 490.609375 309.273438 483.617188 313.050781 476.734375 C 312.9375 473.734375 315.492188 472.738281 316.710938 470.628906 C 322.707031 468.742188 317.488281 474.515625 318.378906 476.734375 Z M 295.734375 258.285156 C 297.285156 259.949219 302.28125 257.953125 300.726563 262.28125 C 302.503906 265.609375 302.613281 269.941406 304.722656 273.269531 C 303.835938 276.265625 305.277344 278.929688 306.054688 281.261719 C 307.609375 283.148438 310.496094 282.484375 310.050781 285.480469 C 307.140625 287.191406 309.136719 290.136719 307.722656 294.027344 C 306.113281 289.476563 304.738281 285.402344 303.390625 282.261719 C 304.167969 279.820313 303.28125 276.601563 303.171875 273.824219 C 303.390625 267.941406 296.289063 268.828125 295.953125 263.613281 C 296.289063 261.726563 294.179688 260.171875 295.734375 258.285156 Z M 277.308594 371.28125 C 278.972656 371.28125 279.414063 374.613281 281.304688 372.835938 C 285.519531 369.285156 282.078125 363.511719 284.300781 359.074219 C 283.855469 348.417969 285.078125 337.429688 291.402344 329.769531 C 293.511719 328.882813 294.066406 330.988281 294.957031 332.101563 C 299.0625 349.414063 301.503906 371.28125 290.960938 385.714844 C 287.519531 391.707031 282.636719 397.699219 276.53125 402.140625 C 272.421875 402.585938 270.3125 407.46875 267.761719 409.6875 C 261.324219 418.570313 251.777344 425.339844 248.78125 436.550781 C 246.226563 441.546875 246.78125 448.316406 241.34375 451.757813 C 239.453125 456.976563 239.121094 463.078125 235.015625 467.1875 C 231.351563 475.621094 226.914063 482.394531 226.46875 492.273438 C 225.359375 499.265625 227.6875 507.371094 228.023438 515.140625 C 228.023438 517.25 230.574219 517.691406 229.6875 520.246094 C 234.128906 523.6875 235.570313 533.453125 243.007813 529.570313 C 243.785156 531.234375 241.675781 531.679688 240.566406 532.457031 C 234.128906 533.011719 229.6875 528.570313 223.804688 527.683594 C 219.476563 527.015625 214.703125 526.683594 210.484375 526.90625 C 210.816406 525.574219 210.484375 522.578125 212.816406 523.6875 C 213.8125 519.246094 213.492188 514.253906 213.824219 509.589844 C 214.046875 509.589844 214.371094 509.367188 214.480469 509.257813 C 214.148438 495.269531 218.253906 481.730469 217.144531 468.742188 C 218.933594 454.109375 220.324219 437.871094 223.492188 423.683594 C 223.664063 422.910156 223.925781 422.847656 223.871094 423.597656 C 223.105469 434.457031 222.15625 447.757813 224.027344 458.972656 C 225.246094 460.75 223.691406 464.96875 226.46875 465.632813 C 227.578125 466.632813 227.246094 469.074219 229.355469 469.074219 C 232.464844 467.964844 231.574219 461.746094 235.792969 462.414063 C 238.347656 459.085938 237.679688 454.089844 237.902344 449.871094 C 238.789063 445.320313 238.234375 440.324219 240.34375 436.328125 C 243.117188 437.4375 243.007813 432.886719 244.339844 431.222656 C 246.894531 426.671875 245.78125 420.566406 247.226563 415.460938 C 249.113281 415.460938 248.335938 417.792969 249.667969 418.679688 C 252.777344 416.683594 252.441406 412.019531 254.996094 409.355469 C 256.773438 406.691406 256.882813 403.695313 257.882813 400.808594 C 260.65625 401.03125 260.769531 408.023438 264.765625 404.359375 C 266.097656 401.808594 266.652344 398.367188 267.429688 395.8125 C 269.3125 396.367188 267.984375 398.8125 269.871094 399.808594 C 272.976563 397.257813 273.089844 393.703125 275.199219 390.484375 C 275.53125 383.605469 275.421875 377.5 277.308594 371.28125 Z M 196.054688 329.4375 C 204.269531 329.65625 211.152344 324.550781 217.699219 320.445313 C 218.144531 321.445313 216.699219 321.777344 216.589844 322.554688 C 212.703125 326.773438 207.710938 331.179688 201.160156 329.738281 C 199.828125 331.402344 199.496094 333.875 197.386719 334.542969 C 194.777344 332.976563 196.402344 331.414063 196.054688 329.4375 Z M 258.660156 265.277344 C 260.324219 265.722656 261.546875 266.609375 263.210938 265.5 C 265.984375 263.835938 266.429688 260.503906 268.316406 257.839844 C 270.203125 260.835938 269.757813 264.835938 271.757813 267.941406 C 272.757813 273.492188 269.3125 282.148438 274.644531 285.8125 C 273.867188 286.144531 272.976563 286.144531 272.3125 286.8125 C 270.648438 291.695313 273.753906 297.800781 269.3125 301.242188 C 266.652344 304.238281 265.320313 308.566406 261.101563 309.457031 C 262.210938 301.351563 262.101563 292.804688 263.210938 284.703125 C 261.101563 279.929688 262.210938 273.714844 258.105469 270.050781 C 259.214844 268.496094 257.105469 266.164063 258.660156 265.277344 Z M 255.996094 331.878906 C 259.324219 338.316406 265.097656 346.863281 259.769531 354.523438 C 254.773438 357.742188 257.105469 364.957031 253.886719 369.394531 C 249.003906 367.066406 250.554688 373.171875 248.003906 374.722656 C 244.007813 380.386719 237.015625 383.714844 235.015625 390.484375 C 232.019531 396.035156 228.011719 400.699219 226.234375 407.023438 C 226.125 407.023438 225.800781 407.023438 225.691406 407.023438 C 225.027344 404.140625 224.691406 401.253906 224.804688 398.144531 C 226.355469 390.707031 233.683594 386.15625 234.683594 378.496094 C 238.121094 374.503906 237.789063 368.285156 240.011719 363.847656 C 239.898438 360.183594 241.34375 357.742188 240.789063 354.1875 C 244.246094 352.359375 244.210938 349.398438 242.675781 347.863281 C 244.671875 344.421875 243.894531 339.535156 247.449219 336.871094 C 252.109375 336.429688 255.660156 314.894531 255.996094 331.878906 Z M 251.578125 264.363281 C 251.992188 263.558594 252.507813 263.34375 252.082031 264.328125 C 250.859375 269.847656 247.902344 275.792969 243.007813 277.488281 C 240.898438 279.484375 241.898438 284.480469 237.679688 283.925781 C 237.347656 285.8125 237.347656 287.921875 237.347656 290.253906 C 235.683594 294.136719 232.464844 295.582031 229.355469 298.246094 C 226.914063 298.800781 225.136719 301.242188 222.140625 300.6875 C 221.808594 298.132813 223.804688 295.582031 224.582031 292.917969 C 227.136719 288.921875 233.128906 287.476563 234.460938 282.261719 C 239.679688 282.925781 237.015625 274.933594 242.453125 276.15625 C 245.402344 273.023438 249.566406 268.308594 251.578125 264.363281 Z M 217.148438 157.714844 C 212.933594 161.929688 219.144531 175.589844 222.472656 181.914063 C 222.914063 185.136719 220.808594 187.355469 218.476563 188.796875 C 215.035156 192.460938 209.597656 188.574219 205.378906 189.019531 C 204.378906 190.90625 205.269531 192.460938 204.601563 194.347656 C 203.824219 197.011719 200.828125 197.566406 200.828125 200.5625 C 197.054688 193.238281 190.886719 184.976563 183.46875 180.734375 C 185.242188 181.402344 189.0625 181.25 191.058594 180.804688 C 196.496094 178.476563 198.71875 173.035156 201.160156 168.261719 C 205.046875 166.710938 208.820313 164.15625 210.707031 160.605469 C 212.144531 159.195313 217.453125 150.296875 217.148438 157.714844 Z M 184.84375 207.445313 C 185.84375 208.667969 187.285156 210.554688 188.839844 210.109375 C 189.839844 211.773438 192.171875 210.886719 193.390625 212.21875 C 192.390625 213.441406 190.394531 215.550781 188.0625 214.328125 C 187.730469 213.773438 186.730469 213.21875 185.953125 213.882813 C 185.175781 214.773438 186.398438 216.882813 184.84375 216.992188 C 182.402344 205.78125 177.074219 196.234375 168.082031 188.574219 C 168.746094 187.242188 170.558594 188.9375 172.410156 188.242188 C 177.851563 188.910156 178.4375 183.460938 181.433594 181.128906 C 189.871094 185.789063 194.453125 192.640625 200.382813 201.894531 C 200.304688 202.898438 199.71875 203.339844 199.050781 204.003906 C 198.71875 203.449219 198.605469 202.785156 197.941406 202.339844 C 195.722656 204.226563 192.503906 205.671875 189.171875 204.226563 C 188.0625 204.003906 187.175781 202.453125 185.953125 203.449219 C 184.066406 204.117188 185.5625 205.933594 184.84375 207.445313 Z M 160.089844 272.714844 C 156.425781 272.605469 152.984375 273.269531 150.765625 270.828125 C 148.101563 270.496094 145.4375 266.941406 142.773438 269.828125 C 143.21875 272.492188 140.109375 272.605469 139.332031 274.269531 C 137.558594 274.714844 136.113281 273.714844 135.558594 272.160156 C 135.558594 271.828125 135.78125 271.269531 135.335938 271.160156 C 133.78125 271.9375 134.117188 274.601563 132.894531 276.15625 C 131.230469 276.488281 130.34375 278.265625 128.675781 278.597656 C 127.011719 276.820313 124.015625 278.265625 122.570313 275.933594 C 121.128906 273.382813 125.570313 269.605469 121.796875 269.828125 C 117.023438 270.605469 117.464844 276.265625 112.472656 276.933594 C 109.808594 277.265625 107.363281 276.820313 106.03125 274.601563 C 105.921875 273.9375 106.367188 273.046875 105.476563 272.714844 C 103.703125 275.269531 100.261719 277.488281 96.488281 276.710938 C 91.824219 275.269531 95.488281 269.941406 93.269531 267.386719 C 90.042969 273.292969 86.269531 270.855469 86.152344 270.726563 C 85.042969 266.398438 85.054688 261.503906 84.164063 256.953125 C 85.660156 259.265625 87.242188 260.503906 89.574219 261.28125 C 92.460938 259.726563 94.488281 263.390625 96.929688 260.949219 C 100.59375 257.953125 105.699219 255.507813 110.25 258.0625 C 116.578125 258.507813 123.792969 257.0625 126.789063 251.179688 C 127.121094 249.070313 125.457031 244.1875 123.570313 244.742188 C 122.570313 246.074219 121.574219 247.183594 120.683594 248.738281 C 117.800781 249.40625 114.800781 249.628906 111.582031 249.515625 C 109.472656 248.851563 109.695313 245.628906 106.808594 246.628906 C 104.257813 248.851563 104.8125 254.179688 99.59375 252.957031 C 96.820313 252.179688 95.488281 250.734375 94.601563 247.960938 C 94.488281 245.964844 95.15625 243.519531 92.933594 242.632813 C 87.71875 241.855469 89.050781 249.070313 83.945313 248.515625 C 82.945313 248.183594 83.722656 246.1875 82.054688 246.628906 C 80.613281 242.746094 81.859375 231.492188 83.609375 226.871094 C 84.832031 225.871094 84.941406 227.871094 85.277344 228.535156 C 87.828125 227.980469 88.9375 224.871094 91.601563 225.316406 C 95.488281 228.648438 100.816406 232.199219 106.03125 230.3125 C 110.585938 229.3125 112.027344 222.542969 116.910156 223.984375 C 116.132813 225.539063 117.242188 227.316406 118.574219 227.648438 C 121.90625 228.425781 123.570313 226.648438 126.011719 224.984375 C 130.121094 224.539063 134.226563 223.210938 137.445313 220.988281 C 138.222656 220.878906 139.445313 221.320313 139.554688 220.210938 C 138.554688 217.992188 135.113281 220.65625 133.449219 218.324219 C 130.5625 215.882813 128.789063 219.546875 126.566406 220.765625 C 124.792969 221.320313 122.570313 220.765625 120.90625 221.542969 C 117.242188 220.433594 116.246094 216.992188 114.023438 214.328125 C 109.472656 213.660156 107.585938 219.324219 103.148438 218.324219 C 100.261719 218.546875 96.265625 217.4375 94.042969 215.214844 C 94.15625 213.660156 92.933594 212.664063 91.601563 212.550781 C 89.714844 212.550781 89.605469 214.996094 88.160156 214.882813 C 88.605469 211.21875 90.1875 209.027344 92.933594 205.335938 C 96.929688 205.449219 101.261719 205.226563 104.921875 204.003906 C 109.140625 206.890625 114.023438 209.335938 119.574219 210.664063 C 129.230469 212.328125 139.109375 211.664063 146.214844 205.003906 C 149.988281 200.898438 151.917969 194.953125 157.578125 191.734375 C 163.351563 195.066406 171.710938 213.472656 172.632813 220.988281 C 168.527344 221.878906 163.421875 221.988281 160.089844 219.210938 C 158.535156 221.878906 163.53125 220.878906 161.421875 223.652344 C 158.3125 228.09375 152.320313 229.644531 146.546875 228.535156 C 144.105469 228.648438 141.886719 225.984375 140.109375 226.871094 C 142.773438 234.085938 153.210938 233.242188 158.203125 231.976563 C 160.3125 230.089844 162.53125 230.3125 164.640625 228.535156 C 167.636719 228.425781 170.523438 228.648438 173.742188 228.203125 C 175.046875 233.585938 165.402344 257.878906 173.742188 267.609375 C 173.964844 269.828125 170.96875 266.496094 169.96875 268.71875 C 166.859375 270.71875 165.085938 263.390625 162.753906 268.164063 C 163.199219 270.382813 161.089844 271.269531 160.089844 272.714844 Z M 82.835938 220.210938 C 82.945313 218.214844 86.496094 216.328125 84.5 214.660156 C 80.945313 216.546875 76.171875 216.882813 72.511719 214.328125 C 71.402344 213.996094 71.402344 212.21875 72.179688 211.996094 C 74.621094 208.335938 76.285156 203.5625 80.726563 201.007813 C 83.609375 203.449219 87.628906 203.867188 91.207031 205.238281 C 86.65625 210.898438 85.023438 219.753906 82.835938 226.09375 C 80.835938 224.539063 83.277344 222.320313 82.835938 220.210938 Z M 82.53125 197.816406 C 82.085938 196.039063 75.617188 192.015625 80.945313 191.683594 C 85.386719 193.347656 87.308594 187.550781 91.554688 191.179688 C 92 191.179688 93.046875 191.683594 93.488281 191.683594 C 88.335938 193.355469 84.566406 196.171875 82.53125 197.816406 Z M 96.609375 196.011719 C 96.832031 196.011719 97.265625 196.011719 97.484375 196.011719 C 97.375 198.675781 94.378906 200.675781 92.933594 203.449219 C 89.828125 202.785156 85.71875 202.230469 83.390625 199.453125 C 83.390625 199.375 83.390625 199.289063 83.390625 199.199219 C 83.390625 198.988281 88.328125 194.554688 92.949219 193.660156 C 93.125 193.664063 93.296875 193.679688 93.46875 193.703125 C 94.679688 193.871094 95.53125 195.179688 96.609375 196.011719 Z M 79.949219 199.675781 C 76.507813 202.671875 72.953125 207.222656 70.84375 211.996094 C 69.292969 212.441406 70.84375 210.222656 69.292969 210.664063 C 68.070313 207.003906 71.066406 205.003906 72.511719 202.339844 C 74.285156 201.007813 76.171875 200.007813 77.839844 198.34375 C 78.949219 198.234375 79.394531 199.230469 79.949219 199.675781 Z M 114.578125 180.804688 C 112.914063 179.917969 106.808594 180.796875 110.027344 177.132813 C 110.027344 176.910156 110.027344 176.488281 110.027344 176.15625 C 107.144531 175.265625 104.144531 176.921875 101.261719 176.03125 C 99.59375 173.035156 103.257813 172.59375 104.921875 171.703125 C 108.03125 171.480469 110.25 173.148438 113.46875 172.59375 C 116.800781 170.59375 121.238281 167.597656 125.457031 169.59375 C 125.789063 170.371094 125.015625 170.703125 124.902344 171.261719 C 123.570313 173.589844 118.796875 174.035156 120.90625 176.808594 C 122.570313 177.921875 119.796875 179.253906 118.796875 180.25 C 117.800781 180.363281 117.800781 182.25 116.46875 181.914063 C 115.46875 180.140625 116.355469 177.363281 114.578125 176.253906 C 113.804688 177.476563 114.914063 179.140625 114.578125 180.804688 Z M 123.902344 174.921875 C 124.902344 172.371094 128.453125 170.59375 126.566406 167.707031 C 127.898438 165.042969 126.902344 160.9375 128.675781 158.160156 C 134.449219 149.835938 144.328125 157.386719 152.652344 154.722656 C 158.425781 153.054688 166.195313 150.945313 171.855469 154.386719 C 172.523438 158.273438 176.074219 158.9375 179.292969 160.050781 C 182.179688 160.9375 184.953125 159.382813 187.839844 160.269531 C 188.726563 161.714844 186.175781 161.714844 187.0625 163.269531 C 189.171875 165.933594 192.390625 167.265625 195.832031 167.484375 C 196.277344 171.703125 192.28125 174.035156 189.949219 176.808594 C 186.285156 177.921875 181.957031 179.253906 178.183594 177.363281 C 175.121094 174.617188 172.628906 174.429688 167.976563 172.355469 C 167.027344 171.640625 166.363281 170.621094 166.195313 169.039063 C 165.640625 168.375 165.085938 167.820313 164.085938 168.039063 C 162.496094 170.378906 166.859375 169.59375 165.75 172.035156 C 161.089844 171.261719 156.09375 171.371094 151.542969 170.371094 C 150.433594 169.929688 150.402344 168.484375 148.960938 169.371094 C 148.847656 170.816406 150.210938 171.480469 151.320313 171.703125 C 155.761719 172.8125 161.421875 172.703125 166.195313 173.925781 C 166.972656 178.03125 165.195313 181.140625 163.53125 184.246094 C 160.089844 182.472656 153.210938 178.855469 149.433594 177.585938 C 150.542969 174.699219 149.777344 172.460938 148.003906 170.128906 C 147.445313 169.90625 147.113281 169.464844 146.671875 169.019531 C 144.117188 171.351563 149.101563 171.59375 148.878906 174.144531 C 148.878906 176.621094 148.1875 177.578125 146.546875 179.253906 C 145.550781 179.472656 145.328125 178.253906 144.105469 178.695313 C 143.441406 178.917969 143.441406 179.917969 143.882813 180.25 C 145.769531 180.25 144.773438 182.582031 144.660156 183.46875 C 142.773438 185.355469 141.21875 187.578125 138.554688 185.910156 C 137.433594 185.988281 138.222656 187.242188 138.222656 187.242188 C 140.296875 188.15625 141.21875 188.574219 142.550781 187.464844 C 143.429688 186.269531 144.445313 185.4375 145.734375 185.472656 C 148.410156 185.234375 153.539063 188.464844 156.425781 190.351563 C 148.433594 196.902344 135.226563 198.234375 124.902344 194.347656 C 122.015625 191.90625 118.132813 190.242188 117.464844 185.355469 C 117.6875 180.585938 124.570313 179.585938 123.902344 174.921875 Z M 143.105469 138.960938 C 145.132813 139.007813 148.554688 138.050781 149.195313 134.886719 C 151.277344 128.890625 149.214844 124.972656 145.328125 120.3125 C 151.542969 120.421875 154.429688 123.972656 159.535156 126.75 C 161.089844 130.078125 158.203125 133.074219 156.871094 136.074219 C 154.425781 140.039063 147.546875 142.953125 141.21875 142.398438 C 138.335938 142.179688 136.445313 140.402344 134.558594 138.402344 C 134.449219 136.074219 135.234375 134.0625 135.558594 131.742188 C 135.765625 130.3125 136.476563 130.605469 136.667969 131.742188 C 138.113281 134.296875 139 139.070313 143.105469 138.960938 Z M 141.027344 123.886719 C 142.503906 123.65625 142.082031 125.753906 141.847656 127.058594 C 141.691406 127.90625 140.878906 127.4375 139.679688 126.152344 C 138.96875 125.394531 139.230469 124.171875 141.027344 123.886719 Z M 190.726563 149.394531 C 194.054688 151.613281 196.832031 154.621094 200.828125 154.84375 C 201.382813 155.398438 201.605469 155.984375 201.382813 156.828125 C 200.796875 158.644531 199.523438 158.179688 199.273438 156.609375 C 195.5 154.722656 191.171875 151.390625 187.0625 153.945313 C 185.84375 153.832031 184.175781 153.167969 185.175781 151.722656 C 186.507813 150.945313 184.84375 149.726563 184.066406 149.613281 C 183.066406 149.394531 181.847656 148.394531 182.734375 147.285156 C 185.84375 147.0625 189.839844 144.953125 190.726563 149.394531 Z M 194.5 134.742188 C 198.828125 133.410156 203.824219 134.40625 206.710938 130.746094 C 208.265625 131.078125 208.265625 132.855469 207.820313 134.40625 C 206.046875 137.960938 202.53125 138.523438 200.050781 142.398438 C 199.0625 136.328125 182.84375 141.402344 194.5 134.742188 Z M 176.851563 143.511719 C 174.894531 144.304688 174.1875 142.289063 172.855469 142.398438 C 174.078125 137.847656 177.960938 133.1875 182.511719 130.96875 C 183.066406 136.40625 181.511719 140.511719 176.851563 143.511719 Z M 176.074219 177.363281 C 176.40625 183.136719 170.300781 184.246094 166.195313 186.355469 C 163.53125 186.132813 165.640625 183.359375 165.972656 182.136719 C 167.527344 179.917969 167.414063 176.921875 168.082031 174.367188 C 170.855469 175.035156 173.964844 175.699219 176.074219 177.363281 Z M 162.324219 186.167969 C 161.214844 187.5 159.425781 188.910156 157.757813 189.90625 C 153.875 187.578125 150.433594 184.578125 145.992188 184.023438 C 147.214844 182.691406 145.660156 180.027344 148.101563 179.472656 C 148.546875 179.351563 148.960938 179.292969 149.359375 179.285156 C 152.5625 179.21875 162.433594 184.171875 162.324219 186.167969 Z M 125.457031 198.898438 C 127.679688 195.679688 130.785156 198.121094 133.78125 197.898438 C 139.777344 199.121094 145.105469 196.902344 150.542969 195.679688 C 150.765625 197.234375 149.210938 197.898438 148.878906 199.230469 C 144.992188 206.78125 136.890625 210.441406 127.898438 209.886719 C 119.90625 210.554688 113.691406 207.03125 106.589844 203.671875 C 110.363281 202.894531 113.914063 201.5625 116.910156 198.675781 C 119.574219 199.898438 122.792969 200.898438 125.457031 198.898438 Z M 159.070313 190.988281 C 160.328125 190.15625 162.882813 187.558594 163.308594 187.617188 C 167.921875 188.242188 170.765625 193.789063 174.21875 197.34375 C 178.546875 202.671875 182.265625 209.75 183.289063 215.992188 C 182.402344 216.105469 182.644531 214.773438 181.757813 215.214844 C 181.644531 217.214844 180.703125 219.460938 178.183594 220.210938 C 176.109375 219.722656 175.628906 221.210938 173.964844 220.765625 C 171.191406 209.664063 166.730469 198.539063 159.070313 190.988281 Z M 203.492188 101.441406 C 205.378906 101.996094 206.933594 102.996094 208.597656 103.773438 C 207.820313 105.105469 204.378906 104.550781 205.378906 107.324219 C 204.378906 108.546875 205.8125 110.652344 206.035156 112.320313 C 207.972656 116.195313 210.753906 119.742188 212.816406 123.753906 C 211.816406 124.085938 210.40625 124.085938 209.628906 124.863281 C 209.960938 122.640625 207.046875 120.753906 208.601563 118.757813 C 205.605469 116.425781 203.714844 114.09375 199.828125 115.539063 C 197.71875 117.980469 194.722656 118.3125 192.058594 119.3125 C 190.839844 116.757813 195.386719 115.425781 194.722656 112.652344 C 192.058594 108.546875 186.730469 115.09375 185.175781 110.433594 C 186.730469 105.105469 193.058594 103.773438 197.941406 101.441406 C 200.160156 100.664063 202.046875 102.996094 203.492188 101.441406 Z M 174.519531 12.753906 C 176.050781 18.160156 170.96875 26.847656 178.183594 28.179688 C 179.847656 31.953125 178.070313 37.171875 180.847656 40.390625 C 183.511719 44.71875 190.949219 47.605469 188.0625 54.042969 C 187.507813 59.703125 188.0625 64.699219 188.617188 70.25 C 188.0625 73.800781 189.726563 76.355469 189.726563 79.574219 C 186.839844 79.90625 185.507813 75.910156 182.734375 76.910156 C 182.066406 74.023438 178.738281 77.132813 177.738281 74.246094 C 176.296875 74.910156 174.964844 75.6875 173.1875 75.355469 C 173.1875 74.136719 173.1875 72.691406 172.078125 72.136719 C 169.859375 71.914063 168.527344 73.578125 166.527344 73.691406 C 165.972656 72.246094 168.082031 71.804688 167.304688 70.25 C 165.417969 69.917969 163.753906 69.695313 161.976563 70.472656 C 160.867188 71.582031 159.867188 72.691406 158.535156 72.914063 C 159.089844 70.804688 161.421875 69.25 159.3125 66.808594 C 156.871094 64.257813 155.09375 68.140625 152.652344 68.140625 C 150.433594 68.695313 148.546875 70.25 146.546875 71.359375 C 147.324219 69.25 147.878906 67.140625 149.210938 65.144531 C 153.207031 64.257813 159.425781 65.699219 160.421875 59.816406 C 162.53125 59.039063 164.308594 57.597656 165.195313 55.375 C 165.085938 52.269531 163.421875 54.597656 161.753906 53.15625 C 159.425781 52.269531 156.539063 51.15625 155.539063 48.9375 C 158.203125 46.9375 164.753906 48.160156 164.085938 42.5 C 166.304688 42.5 167.414063 40.835938 168.414063 39.390625 C 167.527344 34.953125 175.074219 33.398438 171.300781 28.402344 C 171.855469 22.964844 172.523438 17.636719 174.519531 12.753906 Z M 140.441406 65.476563 C 149.765625 54.265625 150.101563 36.0625 161.976563 26.292969 C 166.085938 23.296875 168.535156 18.273438 172.078125 15.636719 C 170.746094 19.96875 168.636719 25.515625 170.191406 29.511719 C 172.855469 34.617188 165.417969 33.285156 167.082031 38.28125 C 166.417969 41.835938 162.089844 40.058594 160.644531 42.832031 C 162.089844 42.945313 163.308594 44.71875 161.753906 45.496094 C 159.089844 46.386719 153.097656 46.050781 154.539063 50.269531 C 156.980469 53.15625 160.3125 54.488281 163.308594 55.375 C 162.421875 56.929688 160.976563 57.816406 159.089844 58.039063 C 157.648438 58.484375 154.429688 56.929688 155.871094 59.371094 C 156.425781 59.816406 157.757813 59.484375 157.757813 60.371094 C 158.09375 61.703125 156.539063 61.925781 155.871094 62.480469 C 152.542969 62.925781 146.992188 61.371094 146.546875 64.921875 C 143.550781 69.363281 141.664063 74.136719 138.777344 78.464844 C 138.890625 78.90625 139 79.351563 139.332031 79.574219 C 143.550781 75.023438 150.101563 69.695313 156.648438 68.363281 C 156.980469 68.140625 156.980469 67.253906 157.757813 67.585938 C 158.867188 70.914063 151.988281 73.691406 156.871094 76.132813 C 160.757813 76.6875 161.421875 72.027344 164.640625 71.804688 C 164.972656 73.578125 161.644531 75.246094 164.421875 76.6875 C 166.859375 76.242188 169.191406 74.246094 171.523438 74.246094 C 173.078125 77.464844 166.527344 79.90625 168.859375 82.460938 C 172.300781 81.351563 174.519531 78.242188 178.738281 79.796875 C 178.515625 80.90625 177.738281 82.347656 179.515625 82.460938 C 181.402344 81.90625 184.730469 81.238281 186.175781 83.015625 C 188.839844 84.902344 189.726563 87.566406 190.726563 90.453125 C 189.394531 96.890625 182.84375 99.996094 178.183594 104.882813 C 176.074219 105.769531 174.742188 105.4375 172.855469 104.660156 C 172.410156 103.4375 171.191406 101.664063 169.746094 101.996094 C 165.417969 102.21875 165.527344 107.65625 160.644531 107.324219 C 159.644531 105.660156 158.09375 104.660156 156.425781 103.550781 C 153.761719 104.328125 151.765625 104.660156 148.878906 104.105469 C 149.878906 101.996094 151.542969 99.441406 150.542969 96.667969 C 149.765625 95.113281 147.546875 95.113281 145.992188 95.558594 C 142.886719 96.667969 140.554688 103.21875 136.667969 100.332031 C 136.226563 95.226563 143.441406 91.007813 139.554688 85.679688 C 133.449219 86.121094 133.226563 93.117188 128.898438 96.335938 C 126.125 83.570313 132.339844 73.578125 140.441406 65.476563 Z M 139.886719 111.765625 C 140.777344 115.09375 144.21875 112.097656 145.992188 112.652344 C 147.214844 111.984375 152.765625 108.433594 150.210938 113.652344 C 151.652344 117.757813 155.316406 114.316406 157.757813 114.984375 C 158.757813 115.425781 159.867188 112.984375 160.421875 114.984375 C 159.980469 119.3125 161.53125 121.644531 165.417969 123.53125 C 167.414063 123.972656 168.527344 125.527344 170.523438 125.085938 C 170.191406 126.972656 167.859375 127.082031 166.195313 127.527344 C 159.535156 125.085938 154.539063 118.867188 147.101563 117.648438 C 142.550781 117.980469 137.558594 119.644531 135.890625 123.53125 C 133.449219 128.414063 131.894531 134.1875 131.117188 140.070313 C 129.453125 140.957031 128.453125 144.730469 126.011719 144.066406 C 125.679688 131.078125 130.34375 119.3125 139.886719 111.765625 Z M 118.019531 76.910156 C 120.128906 81.128906 118.910156 86.679688 116.910156 90.453125 C 115.800781 91.339844 114.539063 90.195313 114.023438 88.898438 C 114.136719 84.347656 115.578125 80.460938 118.019531 76.910156 Z M 105.8125 78.242188 C 107.253906 79.019531 105.144531 80.238281 105.476563 81.460938 C 105.589844 84.902344 106.808594 88.566406 104.480469 91.339844 C 102.257813 87.34375 103.925781 81.792969 105.8125 78.242188 Z M 100.484375 132.855469 C 100.371094 132.410156 101.148438 132.632813 101.480469 132.632813 C 102.59375 134.742188 102.480469 138.292969 104.699219 139.292969 C 105.8125 135.738281 104.921875 131.742188 104.480469 128.304688 C 105.589844 127.414063 107.363281 130.96875 109.253906 129.414063 C 109.585938 130.410156 110.695313 130.96875 111.914063 130.746094 C 113.582031 128.304688 111.472656 125.304688 112.914063 122.753906 C 113.46875 122.976563 114.246094 123.640625 114.800781 122.976563 C 115.355469 126.082031 115.691406 129.636719 117.464844 132.078125 C 120.574219 129.078125 118.796875 122.976563 123.128906 120.867188 C 123.128906 121.753906 123.015625 123.308594 122.570313 124.308594 C 122.238281 126.414063 123.035156 127.96875 123.371094 129.636719 C 124.367188 129.300781 124.367188 128.351563 125.234375 127.527344 C 125.292969 133.207031 123.09375 137.945313 124.125 146.730469 C 123.902344 150.28125 129.785156 148.0625 128.453125 152.613281 C 127.566406 157.496094 125.789063 162.046875 125.457031 167.265625 C 120.351563 166.710938 115.691406 167.707031 112.136719 170.371094 C 108.808594 169.707031 104.257813 169.371094 100.925781 170.703125 C 100.433594 171.015625 100.484375 169.929688 100.484375 169.628906 C 100.59375 163.964844 99.929688 157.605469 100.925781 152.058594 C 100.433594 150.320313 100.484375 149.171875 100.925781 148.0625 C 98.375 142.953125 102.59375 138.070313 100.484375 132.855469 Z M 99.371094 175.257813 C 100.371094 175.257813 99.707031 176.253906 99.929688 176.808594 C 101.59375 179.363281 106.808594 177.03125 106.589844 180.804688 C 110.140625 182.027344 115.023438 180.140625 115.910156 184.800781 C 115.578125 188.6875 121.128906 191.238281 119.132813 194.902344 C 113.359375 201.894531 103.8125 203.5625 94.824219 203.671875 C 95.820313 200.898438 100.371094 197.898438 99.371094 194.347656 C 97.820313 195.234375 95.933594 194.125 95.378906 192.792969 C 96.042969 192.128906 97.707031 191.574219 98.039063 190.683594 C 96.152344 191.683594 94.710938 188.574219 92.714844 190.351563 C 90.160156 190.464844 91.160156 187.132813 88.496094 187.6875 C 87.71875 186.910156 88.9375 185.023438 87.386719 184.800781 C 85.277344 186.578125 89.714844 190.128906 85.277344 189.90625 C 82.722656 189.90625 80.503906 190.683594 78.0625 191.238281 C 74.398438 177.699219 88.71875 170.925781 96.488281 163.269531 C 97.265625 162.269531 98.039063 156.609375 99.152344 161.601563 C 99.59375 166.265625 99.261719 170.371094 99.371094 175.257813 Z M 76.730469 148.839844 C 78.21875 150.84375 80.816406 150.65625 82.277344 149.394531 C 85.164063 146.285156 84.832031 141.066406 83.609375 136.851563 C 83.269531 136.003906 83.519531 135.503906 84.367188 136.09375 C 88.363281 139.425781 90.714844 144.285156 92.15625 149.394531 C 90.9375 153.390625 85.609375 152.988281 82.054688 153.390625 C 76.285156 153.945313 70.957031 151.058594 68.515625 146.175781 C 67.515625 141.066406 70.289063 137.070313 74.621094 134.964844 C 74.507813 139.625 74.398438 144.953125 76.730469 148.839844 Z M 78.855469 135.300781 C 80.3125 135.621094 79.15625 137.425781 78.464844 138.554688 C 78.011719 139.289063 77.421875 138.554688 76.773438 136.921875 C 76.390625 135.957031 77.078125 134.910156 78.855469 135.300781 Z M 96.488281 148.0625 C 91.160156 140.734375 85.609375 130.410156 75.617188 131.742188 C 69.402344 133.1875 65.519531 138.960938 63.964844 144.285156 C 62.296875 144.621094 60.410156 146.0625 58.859375 145.0625 C 59.96875 142.066406 59.855469 137.628906 62.078125 134.964844 C 64.964844 133.1875 69.179688 133.410156 70.84375 129.636719 C 71.957031 128.414063 70.511719 123.417969 73.511719 125.085938 C 74.621094 126.195313 74.507813 127.96875 76.171875 128.636719 C 79.058594 128.523438 81.167969 125.972656 82.054688 123.53125 C 83.832031 124.308594 82.945313 126.75 83.945313 128.082031 C 87.71875 132.078125 93.601563 130.855469 96.152344 136.296875 C 98.039063 139.070313 98.949219 143.066406 99.171875 146.949219 C 99.390625 148.8125 98.46875 148.929688 96.488281 148.0625 Z M 94.824219 78.242188 C 95.15625 78.242188 95.597656 78.242188 95.933594 78.242188 C 95.820313 81.351563 97.042969 83.410156 96.929688 86.40625 C 97.152344 86.628906 97.363281 87.445313 97.585938 87.664063 C 96.617188 89.617188 97.929688 92.78125 95.597656 93.671875 C 93.710938 93.894531 94.042969 91.449219 93.269531 90.230469 C 92.601563 86.121094 93.15625 81.570313 94.824219 78.242188 Z M 63.964844 89.121094 C 66.515625 91.230469 68.625 91.894531 71.179688 93.449219 C 72.335938 92.507813 71.179688 91.894531 71.402344 91.007813 C 64.566406 86.546875 62.839844 80.21875 56.675781 76.332031 C 55.917969 75.972656 56.195313 75.355469 57.03125 75.921875 C 65.347656 80.34375 75.6875 85.105469 86.09375 83.257813 C 87.425781 88.695313 93.933594 94.226563 90.046875 100.109375 C 87.828125 99.664063 87.941406 96.890625 86.828125 95.335938 C 85.71875 93.339844 84.5 91.230469 82.277344 90.453125 C 77.949219 97.667969 86.941406 101.664063 85.496094 108.324219 C 81.835938 109.101563 82.167969 99 78.28125 105.992188 C 78.171875 110.433594 79.949219 114.429688 77.839844 118.425781 C 75.953125 119.199219 75.617188 116.316406 75.175781 114.984375 C 73.621094 113.316406 71.289063 112.984375 70.289063 110.988281 C 68.292969 112.207031 65.628906 113.652344 64.964844 116.316406 C 63.964844 119.757813 66.515625 126.195313 61.855469 127.527344 C 58.523438 128.636719 61.964844 133.632813 57.859375 133.964844 C 57.304688 131.300781 56.082031 129.078125 55.417969 126.195313 C 54.304688 124.972656 43.652344 123.417969 52.199219 121.644531 C 52.976563 119.976563 54.75 118.089844 52.976563 116.316406 C 52.753906 112.320313 46.425781 116.648438 47.425781 112.652344 C 50.753906 109.878906 54.304688 106.769531 59.191406 108.65625 C 59.96875 108.101563 59.746094 106.878906 59.414063 106.214844 C 56.414063 103.105469 52.976563 102.773438 49.3125 101.109375 C 50.53125 98 54.972656 100.886719 56.527344 97.113281 C 53.972656 92.5625 48.644531 89.898438 43.207031 89.121094 C 44.703125 88.226563 50.53125 85.011719 53.53125 88.675781 C 55.195313 88.898438 54.527344 93.339844 56.527344 90.785156 C 51.53125 78.019531 38.65625 71.691406 28.222656 64.921875 C 42.734375 65.449219 55.195313 78.6875 63.964844 89.121094 Z M 23.449219 79.351563 C 21.007813 71.691406 16.011719 64.589844 11.683594 58.261719 C 27 63.921875 38.878906 74.910156 50.644531 85.125 C 49.535156 86.898438 47.09375 85.234375 45.316406 86.234375 C 42.652344 86.234375 40.542969 88.121094 38.65625 89.453125 C 39.433594 91.894531 42.761719 90.339844 44.761719 91.007813 C 48.644531 91.5625 52.308594 94.113281 54.640625 96.667969 C 54.75 98.332031 52.640625 97.777344 51.421875 98 C 49.535156 98.554688 47.757813 99.664063 47.203125 101.664063 C 50.421875 103.773438 54.640625 103.992188 57.527344 106.4375 C 53.195313 106.546875 47.3125 109.433594 44.984375 113.652344 C 45.09375 117.648438 51.089844 114.429688 50.308594 118.425781 C 47.535156 120.421875 43.984375 121.089844 41.542969 123.53125 C 40.210938 106.65625 27.445313 94.449219 23.449219 79.351563 Z M 43.652344 173.589844 C 41.652344 172.371094 40.875 169.707031 41.320313 166.929688 C 41.429688 161.601563 46.871094 165.933594 47.425781 168.261719 C 48.867188 172.035156 44.933594 169.742188 43.652344 173.589844 Z M 48.757813 141.957031 C 48.980469 140.179688 50.421875 138.960938 51.976563 137.40625 C 53.195313 137.292969 53.753906 138.402344 54.640625 138.960938 C 52.640625 139.292969 51.421875 142.621094 48.757813 141.957031 Z M 64.519531 191.460938 C 62.855469 190.683594 61.964844 188.574219 61.300781 187.242188 C 61.410156 186.023438 63.296875 183.246094 60.746094 183.246094 C 58.082031 182.914063 55.75 184.023438 53.863281 181.914063 C 51.976563 179.363281 54.863281 176.699219 55.417969 174.367188 C 60.078125 173.035156 62.855469 181.027344 67.960938 177.03125 C 73.066406 175.8125 73.621094 167.929688 79.949219 168.261719 C 82.5 168.261719 84.609375 169.371094 87.164063 169.371094 C 81.058594 174.8125 73.730469 182.027344 76.730469 191.683594 C 72.621094 192.683594 67.738281 197.011719 64.519531 191.460938 Z M 66.074219 232.753906 C 64.964844 229.089844 66.738281 226.648438 67.628906 223.429688 C 71.84375 225.871094 76.515625 229.089844 82.179688 227.425781 C 77.929688 238.859375 81.503906 252.179688 82.277344 255.953125 C 80.835938 255.953125 80.28125 254.289063 79.613281 253.289063 C 78.984375 248.6875 78.746094 245.1875 78.96875 241.300781 C 77.828125 240.449219 77.511719 238.972656 76.171875 239.96875 C 74.175781 240.414063 74.066406 244.1875 71.621094 243.410156 C 69.957031 238.96875 73.84375 235.640625 71.402344 231.976563 C 69.625 231.753906 66.960938 236.195313 66.074219 232.753906 Z M 70.625 275.933594 C 68.070313 269.605469 68.179688 261.613281 68.960938 254.289063 C 72.84375 256.175781 79.1875 259.496094 82.273438 258.539063 C 83.761719 259.730469 83.667969 267.328125 85.027344 272.160156 C 83.359375 275.933594 79.949219 277.820313 76.507813 279.375 C 73.621094 279.820313 71.957031 277.820313 70.625 275.933594 Z M 76.171875 298.800781 C 75.507813 295.914063 77.0625 294.136719 79.394531 293.25 C 83.167969 291.695313 85.054688 288.808594 88.160156 286.589844 C 88.089844 289.359375 88.828125 290.253906 90.824219 290.585938 C 95.042969 290.140625 97.820313 289.699219 100.925781 287.367188 C 101.261719 284.925781 103.8125 286.144531 104.699219 286.8125 C 105.589844 289.144531 109.140625 287.921875 111.140625 288.144531 C 114.800781 286.8125 118.132813 284.257813 122.238281 284.148438 C 122.570313 285.8125 122.238281 287.589844 124.460938 288.144531 C 128.898438 289.253906 132.230469 286.257813 134.78125 283.59375 C 138.890625 282.261719 141.332031 287.367188 145.4375 284.480469 C 146.769531 282.371094 148.546875 281.152344 151.097656 282.039063 C 153.652344 283.59375 156.980469 282.039063 159.867188 281.816406 C 162.644531 279.929688 164.863281 275.488281 168.859375 276.488281 C 170.300781 278.820313 173.742188 277.488281 175.851563 278.597656 C 177.738281 277.933594 180.070313 277.933594 181.179688 275.933594 C 182.289063 274.046875 180.960938 270.9375 183.289063 269.828125 C 188.394531 270.160156 190.726563 266.609375 193.167969 262.835938 C 194.167969 261.28125 193.5 259.285156 192.835938 257.839844 C 191.726563 257.507813 191.945313 255.621094 190.503906 256.730469 C 189.839844 258.617188 192.171875 259.617188 190.171875 261.28125 C 187.730469 262.390625 184.84375 264.5 181.957031 262.835938 C 181.070313 260.503906 179.183594 262.503906 177.738281 262.613281 C 176.738281 264.609375 175.296875 265.066406 174.742188 267.0625 C 167.25 256.6875 175.335938 240.46875 175.042969 227.980469 C 178.039063 226.425781 182.179688 226.980469 183.511719 223.429688 C 184.078125 222.875 184.523438 223.191406 184.84375 224.539063 C 186.175781 233.976563 187.730469 243.632813 196.054688 248.960938 C 196.746094 249.035156 196.835938 248.425781 196.386719 247.960938 C 188.507813 241.96875 187.597656 232.863281 186.15625 223.652344 C 190.703125 221.878906 196.164063 221.210938 199.273438 216.992188 C 201.605469 214.773438 202.257813 210.378906 205.699219 209.269531 C 209.363281 213.597656 209.585938 217.039063 214.332031 221.117188 C 214.976563 221.472656 215.410156 220.941406 215.109375 220.4375 C 210.78125 217.21875 210.0625 212.191406 206.621094 208.636719 C 207.507813 206.417969 210.816406 205.558594 211.261719 202.894531 C 217.035156 202.5625 224.027344 200.34375 226.46875 194.679688 C 228.132813 195.789063 229.6875 197.121094 230.132813 199.230469 C 230.574219 201.339844 230.796875 204.003906 229.132813 205.558594 C 225.691406 208.222656 217.8125 206.226563 218.476563 212.996094 C 219.03125 214.550781 220.917969 215.550781 219.808594 217.546875 C 217.765625 219.589844 218.03125 223.144531 214.148438 222.320313 C 212.816406 224.871094 209.597656 221.878906 207.820313 223.984375 C 205.378906 223.097656 202.382813 224.207031 199.496094 224.207031 C 193.945313 223.539063 199.71875 233.53125 193.722656 228.757813 C 192.28125 229.203125 190.394531 230.203125 191.058594 232.199219 C 190.394531 235.195313 191.835938 237.859375 194.167969 238.859375 C 198.605469 239.859375 203.046875 237.640625 206.488281 234.640625 C 209.929688 233.644531 215.367188 235.53125 216.8125 230.867188 C 220.140625 232.199219 222.695313 229.867188 226.136719 230.644531 C 229.242188 228.09375 234.015625 225.539063 234.683594 221.320313 C 237.789063 221.210938 239.566406 218.324219 241.675781 216.769531 C 242.230469 216.4375 242.230469 217.992188 243.007813 218.324219 C 245.007813 222.984375 243.339844 229.203125 244.5625 234.085938 C 243.007813 242.1875 243.453125 253.511719 233.90625 255.953125 C 231.019531 258.617188 235.238281 262.28125 231.796875 264.722656 C 228.023438 272.824219 219.03125 273.824219 211.039063 275.933594 C 208.042969 277.042969 211.703125 279.375 209.375 280.929688 C 204.046875 288.367188 193.835938 273.714844 192.613281 286.257813 C 184.289063 296.578125 171.746094 306.460938 157.203125 302.242188 C 156.09375 305.570313 152.210938 305.792969 149.210938 306.238281 C 144.773438 308.011719 138.777344 300.242188 136.445313 307.347656 C 133.117188 308.902344 130.785156 303.128906 127.898438 306.570313 C 126.566406 308.125 123.792969 308.125 122.015625 307.125 C 120.574219 306.347656 120.128906 305.238281 118.574219 304.90625 C 116.910156 306.460938 115.136719 307.789063 112.914063 307.902344 C 109.585938 311.011719 103.367188 308.902344 100.148438 307.570313 C 99.816406 307.125 99.371094 307.015625 98.816406 307.125 C 98.484375 309.789063 98.261719 313.117188 95.15625 314.007813 C 89.605469 316.449219 84.941406 312.453125 81.28125 309.234375 C 78.394531 306.238281 80.613281 301.132813 76.171875 298.800781 Z M 189.984375 299.242188 C 187.46875 304.707031 184.175781 304.570313 180.070313 306.238281 C 183.308594 301.933594 185.648438 299.070313 189.726563 296.910156 C 190.171875 297.46875 188.429688 298.246094 189.984375 299.242188 Z M 83.1875 323.632813 C 81.585938 321.878906 82.875 321.703125 82.613281 319.890625 C 86.527344 323.871094 89.828125 326.4375 95.15625 326.550781 C 99.152344 325.21875 104.480469 325.550781 105.476563 320.445313 C 108.03125 320.554688 110.917969 322.332031 113.246094 320.667969 C 115.355469 319.777344 115.246094 315.78125 118.242188 318.003906 C 126.011719 320.554688 137.003906 321.554688 142.550781 314.5625 C 146.992188 314.5625 152.652344 313.894531 155.871094 310.011719 C 158.3125 311.011719 161.53125 309.121094 163.308594 310.566406 C 167.75 311.453125 172.1875 310.34375 175.519531 308.457031 C 175.1875 310.011719 174.519531 313.675781 171.300781 313.453125 C 167.414063 314.117188 163.53125 314.671875 160.089844 316.117188 C 161.089844 318.003906 159.867188 320.890625 158.757813 322.554688 C 155.09375 322.441406 153.875 328.4375 149.988281 324.664063 C 148.546875 323.886719 147.65625 325.773438 146.214844 326.550781 C 145.4375 328.324219 146.546875 330.546875 147.324219 332.433594 C 150.988281 335.875 155.429688 334.429688 160.089844 333.988281 C 164.195313 333.210938 166.417969 328.660156 170.746094 329.4375 C 174.742188 329.769531 178.847656 333.542969 182.734375 330.214844 C 183.398438 330.546875 183.289063 331.210938 183.289063 331.878906 C 177.296875 335.097656 167.972656 332.320313 164.863281 340.425781 C 165.527344 345.199219 171.410156 345.863281 173.964844 349.75 C 175.519531 349.859375 177.851563 349.082031 178.183594 351.082031 C 179.515625 353.855469 175.742188 352.300781 174.742188 352.414063 C 172.855469 351.414063 169.96875 352.191406 168.636719 350.191406 C 165.640625 349.414063 162.421875 349.195313 159.867188 351.082031 C 158.203125 351.96875 157.871094 353.746094 158.535156 355.300781 C 159.535156 358.296875 164.195313 355.742188 164.085938 359.515625 C 162.863281 360.515625 159.757813 358.628906 159.867188 361.183594 C 159.535156 364.84375 165.863281 362.402344 164.085938 367.066406 C 164.753906 367.398438 164.640625 368.0625 164.640625 368.617188 C 157.757813 372.171875 153.207031 365.398438 146.546875 366.175781 C 144.105469 370.507813 139.664063 364.402344 136.890625 368.617188 C 134.671875 369.507813 134.449219 367.066406 132.671875 366.730469 C 123.238281 366.175781 124.902344 353.410156 114.800781 353.410156 C 108.917969 350.859375 108.917969 343.976563 105.257813 339.535156 C 105.476563 337.871094 103.925781 336.871094 103.148438 335.539063 C 98.707031 338.316406 98.929688 330.546875 95.597656 333.433594 C 88.71875 334.875 86.40625 328.074219 83.1875 323.632813 Z M 94.601563 349.414063 C 93.15625 347.308594 91.9375 345.421875 92.492188 342.757813 C 96.929688 342.089844 99.371094 344.976563 101.480469 348.417969 C 100.148438 350.304688 96.597656 349.082031 94.601563 349.414063 Z M 126.789063 535.34375 C 130.453125 536.339844 133.671875 538.339844 134.558594 542.003906 C 131.894531 541.445313 127.457031 537.785156 126.789063 535.34375 Z M 141.21875 535.898438 C 142.109375 534.121094 144.550781 537.007813 146.214844 537.5625 C 147.101563 539.339844 147.992188 541.445313 149.433594 542.890625 C 145.324219 541.882813 142.441406 539.117188 141.21875 535.898438 Z M 159.226563 572.859375 C 155.527344 571.914063 152.445313 569.9375 150.765625 567.863281 C 154.746094 567.183594 156.730469 570.695313 159.410156 572.503906 C 159.796875 572.761719 159.6875 572.976563 159.226563 572.859375 Z M 166.195313 527.347656 C 165.308594 526.683594 164.085938 524.351563 161.976563 525.242188 C 160.089844 527.683594 156.425781 527.238281 153.429688 527.683594 C 148.546875 527.792969 146.214844 518.914063 140.886719 524.464844 C 136.667969 525.90625 131.117188 526.574219 127.566406 522.910156 C 124.570313 520.578125 121.90625 517.472656 121.796875 513.253906 C 123.570313 513.140625 124.550781 511.144531 124.660156 509.589844 C 125.464844 489.589844 123.816406 469.558594 121.238281 450.648438 C 119.90625 444.097656 119.5625 437.328125 118.675781 430.667969 C 117.011719 417.570313 112.914063 404.359375 107.144531 393.371094 C 103.8125 386.046875 101.59375 377.722656 97.265625 370.507813 C 99.152344 368.839844 95.820313 365.066406 98.039063 363.289063 C 101.480469 358.960938 105.476563 367.398438 109.472656 364.84375 C 110.472656 363.734375 110.585938 362.070313 111.582031 360.847656 C 120.796875 362.625 118.355469 373.390625 127.34375 375.058594 C 132.894531 374.390625 134.449219 379.054688 136.890625 382.492188 C 137.777344 387.265625 142.21875 392.59375 138.222656 397.367188 C 136.226563 401.695313 129.230469 400.699219 128.675781 406.691406 C 126.902344 408.691406 123.792969 408.023438 122.570313 411.019531 C 122.128906 413.351563 122.460938 416.792969 125.457031 417.347656 C 127.566406 418.457031 130.230469 415.128906 131.894531 418.125 C 132.785156 417.902344 133.5625 417.460938 134.558594 417.679688 C 135.226563 419.125 137.558594 419.011719 139.109375 419.789063 C 141.21875 417.679688 143.996094 421.675781 145.769531 418.457031 C 145.992188 418.457031 146.316406 418.457031 146.648438 418.457031 C 146.710938 423.511719 155.429688 424.339844 151.875 430.113281 C 150.988281 434.996094 142.664063 432.664063 143.328125 438.992188 C 144.550781 442.769531 149.988281 442.433594 152.652344 444.765625 C 152.875 447.871094 149.546875 448.429688 147.546875 450.09375 C 144.773438 450.980469 141.441406 451.425781 139.886719 454.089844 C 139.886719 456.199219 140.554688 458.195313 142.550781 459.195313 C 145.882813 460.304688 149.101563 456.976563 151.542969 459.972656 C 154.539063 459.417969 157.535156 460.640625 158.535156 463.191406 C 160.089844 467.632813 156.09375 465.632813 153.984375 466.964844 C 152.210938 467.855469 149.878906 469.074219 149.433594 471.40625 C 149.324219 472.738281 149.660156 473.636719 150.765625 474.402344 C 152.652344 474.515625 154.207031 473.070313 155.871094 473.625 C 154.207031 479.398438 162.53125 478.953125 162.53125 484.726563 C 168.636719 497.15625 164.421875 510.382813 164.085938 523.8125 C 164.195313 524.699219 164.863281 525.070313 165.417969 524.738281 C 166.527344 508.089844 168.859375 493.050781 164.863281 476.511719 C 164.863281 453.757813 160.644531 432.222656 156.09375 410.6875 C 154.871094 407.800781 156.09375 404.472656 156.09375 401.363281 C 156.316406 396.035156 155.429688 390.042969 157.980469 385.714844 C 156.761719 383.160156 159.867188 381.160156 158.535156 379.054688 C 158.648438 377.054688 161.421875 378.496094 162.753906 378.496094 C 165.085938 377.832031 168.082031 378.386719 170.523438 379.054688 C 183.734375 378.386719 196.164063 374.503906 206.488281 367.285156 C 209.152344 366.953125 211.371094 368.617188 213.703125 367.066406 C 214.257813 368.175781 212.816406 370.394531 211.816406 371.503906 C 208.042969 374.722656 200.828125 375.167969 202.160156 382.160156 C 200.714844 384.492188 198.71875 380.828125 196.609375 382.492188 C 191.058594 382.9375 190.949219 389.375 189.394531 393.371094 C 189.503906 395.703125 190.0625 398.257813 192.058594 399.253906 C 196.164063 399.699219 200.273438 397.8125 201.9375 394.703125 C 203.824219 393.59375 202.492188 396.8125 204.046875 397.367188 C 206.046875 398.367188 207.042969 399.808594 209.707031 399.253906 C 210.707031 398.367188 212.148438 396.589844 212.59375 397.367188 C 211.816406 400.144531 211.152344 403.472656 208.042969 404.804688 C 203.714844 405.359375 199.050781 402.472656 194.5 405.136719 C 190.949219 405.472656 188.507813 408.691406 185.175781 409.355469 C 180.625 409.023438 174.1875 408.578125 172.855469 414.128906 C 171.523438 414.019531 171.523438 415.128906 170.523438 415.460938 C 170.300781 417.460938 172.742188 418.125 173.742188 419.234375 C 177.628906 419.011719 181.625 419.011719 184.621094 416.570313 C 187.175781 415.90625 185.621094 418.679688 187.507813 419.234375 C 193.058594 419.679688 196.832031 415.015625 202.714844 417.128906 C 206.046875 419.125 209.929688 420.234375 212.59375 423.230469 C 211.816406 424.5625 211.816406 427.003906 212.59375 428.335938 C 214.035156 429.113281 213.371094 431.113281 213.148438 432.335938 C 212.703125 433.777344 211.152344 433.664063 209.929688 433.332031 C 206.046875 438.214844 200.496094 430.222656 197.941406 437.105469 C 195.277344 438.328125 189.617188 435.328125 189.949219 440.546875 C 190.0625 441.324219 190.394531 442.210938 191.28125 442.433594 C 193.390625 443.433594 195.722656 443.101563 197.941406 442.433594 C 200.050781 441.988281 199.386719 444.765625 200.605469 445.320313 C 203.046875 446.652344 205.710938 447.316406 207.820313 449.09375 C 207.597656 451.980469 204.269531 449.09375 202.492188 450.425781 C 199.71875 454.644531 190.503906 450.316406 189.949219 457.308594 C 188.394531 458.863281 183.84375 455.089844 184.398438 459.417969 C 180.847656 460.085938 176.40625 457.976563 173.742188 461.304688 C 173.410156 462.859375 174.1875 464.746094 175.074219 465.855469 C 175.296875 466.632813 176.1875 466.078125 176.628906 466.632813 C 181.402344 465.746094 186.839844 465.964844 190.726563 463.191406 C 191.835938 463.636719 193.5 461.082031 193.722656 463.414063 C 192.390625 466.519531 195.722656 465.632813 196.832031 466.964844 C 197.71875 466.632813 198.386719 466.519531 199.050781 466.410156 C 198.164063 469.960938 192.390625 468.742188 192.835938 473.292969 C 193.835938 474.289063 195.386719 475.84375 197.164063 474.957031 C 198.605469 473.960938 199.386719 472.070313 201.714844 472.738281 C 202.046875 475.402344 207.378906 472.738281 205.378906 476.289063 C 203.824219 476.398438 203.378906 478.066406 201.714844 477.066406 C 199.71875 475.066406 197.71875 478.398438 195.5 477.289063 C 191.503906 479.507813 185.730469 474.070313 184.066406 480.507813 C 184.511719 482.171875 185.621094 484.613281 183.289063 485.28125 C 181.847656 485.945313 180.734375 487.390625 179.292969 487.945313 C 180.515625 490.71875 175.1875 492.605469 179.292969 494.050781 C 184.84375 496.9375 189.394531 486.058594 192.835938 494.050781 C 190.726563 497.601563 186.175781 499.710938 187.507813 504.261719 C 189.839844 503.375 192.722656 503.707031 194.722656 502.042969 C 195.5 502.707031 196.71875 503.816406 195.832031 505.261719 C 194.390625 506.261719 192.835938 507.59375 193.722656 509.589844 C 196.164063 511.367188 199.164063 506.261719 200.828125 509.589844 C 198.828125 511.589844 196.164063 513.695313 197.71875 517.25 C 199.9375 517.914063 201.382813 519.46875 203.824219 518.914063 C 204.378906 518.359375 205.933594 517.582031 206.15625 519.136719 C 207.042969 522.464844 204.601563 524.132813 206.15625 527.128906 C 203.601563 528.347656 202.9375 532.675781 199.496094 533.234375 C 195.609375 533.898438 192.390625 533.566406 189.394531 530.902344 C 186.730469 531.011719 184.066406 528.347656 181.957031 530.015625 C 176.519531 529.679688 171.632813 527.90625 166.195313 527.347656 Z M 226.136719 578.519531 C 226.46875 582.074219 222.695313 579.632813 221.140625 579.632813 C 220.695313 579.410156 220.363281 579.851563 220.03125 580.1875 C 220.253906 582.292969 224.359375 583.292969 223.027344 585.957031 C 212.261719 585.957031 200.9375 584.847656 192.613281 579.296875 C 189.171875 578.1875 186.839844 575.191406 183.066406 574.523438 C 182.066406 573.414063 182.734375 572.527344 182.511719 571.085938 C 184.175781 571.527344 186.507813 572.636719 188.0625 571.085938 C 192.503906 571.75 196.386719 574.191406 201.160156 573.96875 C 204.15625 576.300781 207.710938 574.082031 211.039063 573.96875 C 211.484375 573.527344 211.816406 572.527344 211.261719 571.859375 C 207.378906 567.976563 200.714844 569.640625 197.164063 565.976563 C 197.609375 565.535156 198.394531 565.816406 198.496094 564.644531 C 197.386719 561.648438 194.5 559.429688 191.28125 557.984375 C 191.835938 557.210938 194.609375 557.429688 195.5 557.765625 C 198.605469 556.210938 203.378906 555.878906 203.492188 551.882813 C 200.605469 549.550781 196.832031 549.21875 193.722656 547.332031 C 194.054688 544.554688 195.277344 548.25 196.832031 547.914063 C 203.269531 546.140625 203.824219 554.542969 209.375 554.324219 C 212.371094 555.433594 215.367188 557.765625 218.699219 556.210938 C 217.476563 549.550781 223.472656 556.988281 224.804688 552.214844 C 223.691406 550.328125 220.03125 549.550781 220.03125 546.332031 C 222.695313 545.109375 225.027344 548.660156 227.46875 546.332031 C 224.804688 542.667969 225.136719 536.5625 219.253906 536.453125 C 218.253906 536.007813 219.03125 535.34375 219.253906 534.898438 C 221.363281 533.566406 223.359375 535.898438 225.359375 536.453125 C 229.242188 535.898438 232.683594 538.78125 236.015625 537.007813 C 244.339844 536.230469 252.996094 537.5625 259.769531 542.003906 C 267.648438 540.667969 269.09375 553.769531 275.976563 547.109375 C 278.859375 544.554688 282.078125 547.441406 285.078125 547.664063 C 290.070313 551.769531 297.398438 550.328125 302.613281 553.988281 C 303.726563 554.765625 304.390625 555.433594 305.613281 555.65625 C 307.164063 553.433594 300.726563 550.214844 306.390625 549.992188 C 320.597656 551.660156 333.917969 555.878906 347.125 559.871094 C 348.679688 559.984375 349.347656 563.3125 350.898438 561.207031 C 351.121094 560.316406 350.121094 559.652344 350.898438 558.875 C 360.003906 556.875 364.773438 565.203125 372.988281 565.535156 C 375.875 567.753906 379.648438 567.644531 383.089844 568.640625 C 389.640625 570.972656 396.300781 572.859375 403.070313 574.304688 C 405.066406 576.078125 408.398438 574.191406 410.839844 574.859375 C 412.171875 573.859375 413.839844 573.527344 415.058594 572.195313 C 414.503906 567.199219 409.953125 567.421875 407.066406 564.203125 C 404.179688 563.648438 401.628906 562.316406 400.183594 559.871094 C 402.960938 557.875 407.398438 559.429688 410.839844 558.539063 C 411.839844 556.988281 411.171875 555.542969 411.0625 553.769531 C 406.179688 551.660156 407.175781 545.441406 401.515625 544.222656 C 396.410156 540.667969 390.972656 538.007813 384.199219 538.894531 C 380.535156 542.445313 375.542969 543 370.546875 543.335938 C 368.882813 543.113281 370.546875 541.113281 369.214844 540.449219 C 363.332031 537.230469 355.671875 539.226563 350.566406 542.890625 C 343.019531 541.003906 337.023438 547.21875 329.03125 545.777344 C 327.8125 545.222656 324.703125 545 325.8125 543.113281 C 332.140625 541.113281 336.914063 534.011719 343.90625 533.234375 C 345.351563 533.121094 346.128906 531.457031 347.679688 531.679688 C 347.902344 532.675781 346.902344 535.230469 348.679688 535.675781 C 353.785156 534.898438 359.890625 534.898438 364.996094 535.675781 C 365.664063 537.671875 367.992188 536.230469 369.214844 535.898438 C 371.433594 534.566406 374.652344 535.230469 377.207031 535.34375 C 383.199219 537.007813 387.308594 532.566406 393.523438 533.011719 C 395.1875 529.570313 399.519531 534.675781 399.851563 530.347656 C 405.511719 528.679688 402.960938 521.46875 407.289063 518.582031 C 407.953125 517.359375 407.621094 515.363281 408.175781 513.808594 C 409.507813 511.921875 410.285156 510.367188 411.839844 508.703125 C 414.152344 509.101563 412.839844 511.03125 414.503906 511.921875 C 417.945313 508.257813 419.609375 502.042969 422.273438 497.824219 C 423.273438 498.046875 423.9375 498.378906 424.382813 499.15625 C 425.160156 505.148438 424.714844 511.808594 420.609375 515.695313 C 419.277344 524.574219 425.160156 529.902344 428.378906 536.230469 C 431.710938 538.117188 431.929688 543.964844 437.148438 543.113281 C 437.925781 545 434.371094 543.890625 433.484375 545.222656 C 429.265625 545.554688 426.714844 542.222656 425.160156 538.894531 C 423.828125 538.671875 422.164063 539.226563 422.273438 540.667969 C 421.605469 549.328125 429.597656 551.324219 432.375 557.984375 C 437.589844 561.648438 440.921875 566.644531 446.25 571.085938 C 451.578125 575.300781 454.6875 581.628906 455.574219 588.957031 C 454.90625 591.175781 453.796875 593.839844 451.800781 594.839844 C 448.914063 595.28125 445.472656 594.617188 443.03125 596.390625 C 443.695313 598.5 449.136719 599.5 445.914063 602.496094 C 440.589844 604.382813 435.261719 601.496094 429.933594 600.941406 C 423.273438 599.722656 417.390625 598.945313 410.507813 598.277344 C 406.511719 596.613281 403.050781 595.910156 397.519531 595.613281 C 395.855469 597.121094 393.855469 595.28125 394.523438 597.722656 C 398.1875 604.9375 388.863281 599.5 385.976563 600.386719 C 378.09375 598.722656 372.878906 593.394531 365.773438 590.507813 C 361 589.511719 356.007813 589.621094 352.675781 593.171875 C 351.898438 595.171875 355.5625 598.835938 351.34375 599.054688 C 343.351563 595.835938 334.914063 593.617188 326.589844 591.0625 C 317.933594 587.621094 308.277344 586.511719 299.394531 583.292969 C 298.398438 583.070313 297.285156 583.628906 297.285156 584.625 C 296.621094 587.402344 301.851563 587.582031 300.507813 588.957031 C 295.734375 587.84375 289.960938 582.183594 285.632813 587.621094 C 285.742188 590.84375 291.070313 591.617188 291.183594 595.058594 C 285.855469 596.058594 281.304688 592.617188 276.53125 590.84375 C 265.761719 586.957031 255.4375 583.183594 245.894531 577.1875 C 241.675781 576.191406 237.347656 571.304688 232.796875 575.082031 C 232.464844 576.078125 232.523438 577.269531 233.351563 578.519531 C 231.6875 578.1875 228.246094 576.96875 226.136719 578.519531 Z M 327.144531 550.882813 C 331.585938 549.882813 338.355469 550.4375 343.90625 550.328125 C 350.34375 551.324219 355.894531 553.710938 361 557.816406 C 362.332031 558.371094 364.375 558.359375 365.21875 560.207031 C 362.816406 560.613281 361.113281 558.207031 358.890625 557.765625 C 355.894531 557.320313 353.121094 555.320313 349.789063 556.429688 C 347.902344 560.648438 344.683594 555.433594 341.574219 555.320313 C 336.804688 554.210938 332.378906 552.984375 327.144531 550.882813 Z M 397.21875 555.878906 C 395.441406 552.546875 392.414063 550.328125 391.082031 546.332031 C 395.300781 547.886719 398.40625 542.113281 401.738281 545.996094 C 402.402344 546.773438 403.847656 546.886719 403.847656 547.886719 C 402.183594 552.214844 408.84375 551.324219 409.507813 554.878906 C 409.617188 559.316406 405.179688 555.210938 402.515625 556.429688 C 400.515625 556.542969 399.078125 557.40625 398.246094 559.902344 C 399.859375 567.117188 408.953125 566.199219 413.171875 571.085938 C 411.507813 574.414063 406.511719 572.527344 403.292969 572.636719 C 399.628906 572.859375 396.855469 570.417969 393.523438 569.753906 C 387.777344 568.140625 380.726563 567.402344 375.5 564.824219 C 375.316406 564.734375 375.414063 564.421875 375.648438 564.417969 C 383.539063 564.285156 390.835938 569.007813 395.6875 562.535156 C 397.683594 560.984375 397.550781 558.097656 397.21875 555.878906 Z M 467.785156 597.945313 C 465.5625 599.722656 462.898438 602.054688 459.570313 602.277344 C 457.792969 605.160156 454.796875 607.046875 451.578125 608.378906 C 446.472656 606.492188 443.140625 611.933594 437.703125 611.597656 C 435.480469 613.375 432.261719 612.488281 429.710938 613.484375 C 423.828125 615.261719 417.390625 614.375 411.0625 614.484375 C 407.953125 609.378906 406.84375 618.8125 402.847656 614.484375 C 399.628906 614.261719 395.1875 615.152344 392.191406 613.707031 C 391.304688 611.597656 395.964844 611.265625 393.523438 609.710938 C 388.417969 612.375 383.535156 609.488281 379.09375 608.15625 C 377.652344 610.601563 375.875 610.824219 372.988281 611.265625 C 366.441406 612.152344 361.777344 607.824219 355.894531 607.824219 C 351.566406 607.9375 347.679688 606.050781 344.683594 603.273438 C 342.242188 604.828125 346.792969 605.382813 345.238281 607.269531 C 339.246094 607.046875 333.585938 604.71875 327.699219 603.273438 C 321.375 599.832031 313.605469 599.832031 306.390625 598.5 C 305.390625 601.496094 307.722656 603.941406 310.050781 604.9375 C 309.054688 606.828125 306.054688 605.828125 304.28125 605.714844 C 301.394531 603.605469 295.519531 608.136719 294.957031 603.605469 C 293.511719 605.714844 292.179688 601.609375 291.183594 604.160156 C 283.300781 602.832031 278.195313 597.613281 270.980469 595.28125 C 269.3125 593.507813 267.203125 592.507813 264.765625 592.394531 C 264.320313 594.28125 268.648438 596.613281 265.320313 597.722656 C 253.664063 598.5 245.339844 590.398438 235.792969 586.511719 C 237.015625 585.847656 239.34375 584.515625 238.457031 581.738281 C 237.789063 579.519531 234.460938 580.964844 235.015625 577.964844 C 236.347656 575.636719 238.902344 577.964844 240.789063 577.964844 C 250.113281 581.40625 257.992188 588.289063 267.984375 590.285156 C 275.753906 592.953125 283.078125 598.058594 291.738281 597.167969 C 294.066406 595.949219 291.738281 594.0625 291.960938 592.394531 C 290.960938 590.285156 287.742188 590.507813 287.40625 587.84375 C 288.183594 587.84375 288.851563 587.84375 289.628906 587.84375 C 294.066406 589.175781 298.285156 591.953125 303.171875 591.617188 C 304.613281 591.0625 303.523438 589.824219 303.746094 588.824219 C 303.191406 587.933594 302.28125 587.511719 301.839844 586.847656 C 312.171875 588.277344 325.703125 591.617188 337.246094 595.835938 C 341.464844 597.722656 345.238281 598.5 349.566406 600.609375 C 351.34375 600.832031 353.5625 601.496094 355.339844 600.164063 C 357.894531 597.945313 352.453125 594.171875 357.003906 593.949219 C 358.226563 591.0625 362 591.285156 364.441406 592.171875 C 375.210938 595.949219 383.421875 605.9375 396.410156 602.832031 C 397.632813 601.832031 398.519531 600.054688 397.519531 598.835938 C 397.1875 598.613281 397.1875 598.167969 397.519531 597.945313 C 402.515625 596.945313 406.398438 599.609375 411.617188 599.832031 C 417.277344 600.722656 423.828125 602.496094 429.710938 602.277344 C 433.152344 603.605469 437.035156 604.9375 441.144531 605.160156 C 445.140625 605.492188 448.800781 602.941406 450.46875 600.164063 C 450.355469 598.722656 448.578125 598.390625 448.136719 597.503906 C 450.800781 597.390625 453.796875 596.835938 455.019531 594.28125 C 460.457031 586.402344 454.464844 578.855469 449.914063 572.195313 C 443.140625 562.648438 430.714844 556.886719 426.269531 546.332031 C 431.0625 549.601563 434.371094 547.332031 438.8125 547.109375 C 444.253906 551.324219 449.136719 554.324219 452.132813 560.648438 C 457.570313 572.636719 471.558594 578.1875 471.558594 592.617188 C 468.894531 593.839844 470.113281 596.613281 467.785156 597.945313 "/>
</g>
</svg>
