<?xml version="1.0" encoding="UTF-8"?>
<svg xmlns="http://www.w3.org/2000/svg" xmlns:xlink="http://www.w3.org/1999/xlink" width="476pt" height="553pt" viewBox="0 0 476 553" version="1.1">
<g id="surface1">
<path style=" stroke:none;fill-rule:nonzero;fill:rgb(0%,0%,0%);fill-opacity:1;" d="M 451.214844 493.34375 C 433.386719 490.398438 413.082031 491.792969 396.1875 487.765625 C 376.347656 487.457031 362.242188 474.898438 350.464844 462.035156 C 341.628906 445.296875 338.992188 424.214844 334.03125 405.613281 C 332.328125 394.453125 328.761719 383.449219 327.367188 372.753906 C 322.871094 365.78125 323.957031 357.410156 321.011719 349.816406 C 308.921875 313.390625 293.578125 281.460938 270.171875 252.628906 C 251.574219 236.664063 231.269531 222.09375 205.691406 219.148438 C 200.269531 214.1875 189.882813 219.304688 187.09375 210.3125 C 173.605469 198.378906 162.292969 183.964844 151.753906 169.394531 C 145.242188 162.265625 145.515625 148.777344 145.050781 139.480469 C 148.640625 141.015625 150.105469 149.664063 151.578125 152.851563 C 151.886719 153.515625 152.40625 153.257813 152.246094 152.515625 C 150 142.160156 147.941406 139.269531 144.960938 135.507813 C 144.808594 129.773438 143.847656 128.164063 144.003906 122.894531 C 142.140625 111.890625 146.480469 100.730469 141.832031 90.035156 C 142.296875 89.105469 143.226563 89.570313 143.691406 88.640625 C 146.015625 85.847656 146.792969 81.199219 145.863281 77.015625 C 139.660156 68.023438 156.867188 67.09375 153.613281 56.554688 C 155.316406 53.300781 150.203125 49.578125 154.078125 46.945313 C 153.921875 43.070313 155.9375 40.898438 157.332031 37.953125 C 161.207031 28.34375 159.503906 19.199219 158.882813 8.96875 C 157.882813 3.53125 152.550781 -1.554688 148.507813 0.441406 C 140.902344 2.640625 115.328125 29.738281 106.027344 40.277344 C 96.417969 44.464844 86.1875 38.730469 75.492188 39.503906 C 71.773438 41.363281 68.050781 40.277344 64.796875 43.222656 C 56.425781 44.773438 48.988281 39.660156 41.703125 36.09375 C 32.867188 25.089844 22.480469 18.578125 10.082031 12.6875 C 8.53125 12.535156 6.671875 11.757813 5.277344 11.914063 C 2.953125 9.898438 1.246094 11.605469 0.472656 14.238281 C -1.234375 29.273438 5.121094 43.070313 10.855469 54.382813 C 19.226563 62.445313 17.675781 74.070313 22.015625 83.058594 C 27.753906 91.894531 22.949219 105.226563 27.597656 115.453125 C 28.683594 119.640625 29.457031 123.050781 30.230469 126.925781 C 6.945313 131.167969 4.703125 163.234375 1.527344 177.128906 C 1.152344 178.828125 1.84375 179.015625 2.324219 177.488281 C 4.984375 166.765625 7.96875 132.042969 30.628906 128.371094 C 32.167969 130.15625 34.347656 133.25 35.484375 134.832031 C 26.847656 143.101563 19.128906 162.730469 19.472656 171.890625 C 19.441406 173.042969 19.917969 173.226563 20.125 172.089844 C 20.699219 161.101563 28.160156 143.375 36.898438 137 C 37.820313 137.394531 39.78125 141.113281 39.78125 141.726563 C 30.730469 153.378906 33.808594 180.511719 34.207031 182.847656 C 34.394531 183.980469 35.035156 183.808594 35.003906 182.761719 C 34.730469 173.027344 33.535156 149.800781 40.925781 145.214844 C 42.785156 148.160156 42.941406 152.1875 43.871094 155.910156 C 42.941406 163.351563 47.59375 169.703125 45.421875 177.453125 C 46.660156 189.078125 42.167969 198.378906 40.617188 208.765625 C 34.574219 219.148438 34.574219 233.875 36.433594 246.273438 C 39.222656 259.140625 39.53125 272.3125 46.199219 283.9375 C 47.128906 291.378906 51.46875 298.664063 52.550781 306.570313 C 54.101563 309.050781 54.101563 313.699219 55.496094 316.953125 C 59.0625 325.171875 60.457031 333.230469 64.332031 341.910156 C 67.585938 352.761719 71.617188 363.609375 75.183594 374.613281 C 77.660156 383.296875 82.3125 392.90625 83.707031 402.203125 C 89.132813 413.054688 88.976563 426.386719 91.921875 437.855469 C 91.148438 438.164063 92.078125 439.09375 91.148438 439.40625 C 93.78125 453.664063 91.300781 468.542969 88.976563 482.183594 C 89.644531 489.425781 89.1875 496.234375 85.796875 501.089844 C 83.957031 503.722656 82.453125 505.128906 79.988281 505.28125 C 77.816406 505.28125 76.265625 503.730469 74.097656 503.730469 C 67.847656 503.5 64.96875 508.277344 61.847656 512.070313 C 58.761719 515.816406 56.292969 519.6875 59.21875 526.515625 C 60.613281 533.800781 68.980469 530.699219 73.632813 533.488281 C 86.808594 533.957031 101.378906 535.503906 110.832031 526.515625 C 115.328125 515.820313 122.921875 508.070313 124.628906 495.515625 C 126.332031 489.933594 127.417969 483.425781 128.035156 476.914063 C 130.363281 471.335938 129.433594 463.894531 131.757813 458.003906 C 132.222656 445.605469 135.476563 435.066406 134.390625 422.355469 C 134.546875 421.578125 135.320313 420.960938 135.785156 420.496094 C 134.855469 413.828125 137.648438 408.714844 137.648438 402.515625 C 139.042969 400.035156 137.488281 390.441406 139.347656 388.578125 C 140.097656 389.429688 141.914063 394.90625 142.175781 395.957031 C 145.101563 406.414063 143.226563 427.933594 144.3125 439.40625 C 142.453125 464.824219 143.847656 484.664063 140.28125 509.308594 C 137.335938 514.269531 130.515625 511.636719 127.570313 516.75 C 125.53125 520.148438 124.40625 524.375 124.1875 528.402344 C 123.441406 535.464844 125.667969 537.832031 126.566406 538.753906 C 128.742188 540.980469 131.722656 542.042969 135.011719 542.480469 C 140.117188 543.320313 147.652344 542.667969 153.925781 542.230469 C 157.605469 541.972656 167.613281 542.214844 172.214844 539.84375 C 180.117188 535.660156 181.355469 526.980469 183.0625 519.074219 C 185.230469 521.089844 185.230469 524.964844 186.78125 527.601563 C 190.8125 530.234375 191.898438 534.886719 198.71875 533.488281 C 206.46875 533.957031 214.0625 535.96875 222.121094 534.574219 C 236.847656 535.195313 250.332031 528.996094 264.902344 530.234375 C 268.003906 530.234375 273.273438 528.53125 276.371094 530.234375 C 288.617188 528.066406 300.242188 526.824219 311.714844 524.191406 C 322.097656 521.089844 332.792969 517.527344 342.246094 513.496094 C 349.378906 512.71875 358.214844 514.425781 366.117188 515.355469 C 373.421875 517.589844 381.011719 515.238281 387.648438 517.261719 C 387.914063 517.34375 387.921875 517.699219 387.660156 517.785156 C 377.945313 520.96875 367.234375 521.585938 356.816406 522.792969 C 352.324219 526.050781 346.742188 523.570313 342.246094 526.824219 C 330.339844 527.085938 318.984375 531.65625 309.394531 538.203125 C 307.625 539.410156 305.914063 540.6875 304.273438 542.015625 C 288.929688 551.589844 307.371094 552.246094 311.09375 552.554688 C 338.371094 552.554688 365.1875 551.316406 390.296875 549.144531 C 394.019531 548.058594 397.117188 548.523438 400.683594 546.976563 C 420.367188 544.183594 441.914063 541.394531 460.511719 533.488281 C 466.558594 529.769531 472.914063 527.289063 475.394531 520.46875 C 479.734375 503.417969 460.511719 500.320313 451.214844 493.34375 Z M 149.273438 4.472656 C 153.71875 2.617188 155.296875 6.699219 156.539063 9.644531 C 157.46875 15.070313 156.402344 22.453125 156.246094 28.652344 C 155.007813 31.597656 154.230469 34.699219 154.078125 37.953125 C 148.808594 45.238281 151.90625 53.453125 149.890625 61.515625 C 148.34375 65.699219 144.46875 67.714844 141.832031 69.574219 C 140.128906 69.882813 139.042969 69.417969 138.730469 67.714844 C 138.886719 65.390625 137.648438 62.597656 136.871094 59.964844 C 135.785156 57.328125 130.941406 50.347656 131.757813 45.394531 C 141.523438 45.238281 134.546875 35.320313 136.5625 29.894531 C 141.941406 26.988281 144.183594 21.695313 144.792969 16.191406 C 145.0625 13.761719 146.945313 5.09375 149.273438 4.472656 Z M 141.367188 132.503906 C 140.1875 131.5 139.417969 130.730469 138.546875 130.328125 C 139.320313 128.777344 139.371094 126.808594 140.59375 125.0625 C 142.472656 127.003906 141.058594 130.023438 141.367188 132.503906 Z M 103.082031 129.09375 C 102.773438 130.488281 100.910156 129.558594 100.136719 130.335938 C 98.742188 130.953125 97.65625 128.9375 96.726563 130.644531 C 96.105469 132.503906 98.277344 132.351563 99.363281 132.503906 C 110.367188 127.234375 117.652344 140.71875 122.765625 145.523438 C 121.371094 148.46875 118.273438 150.328125 116.101563 152.652344 C 115.015625 153.234375 114.28125 153.226563 113.734375 152.859375 C 112.101563 151.761719 107.507813 136.835938 93.472656 132.503906 C 93.160156 130.800781 95.175781 129.6875 95.953125 129.53125 C 97.714844 128.410156 99.945313 128.261719 103.082031 129.09375 Z M 100.445313 124.753906 L 102.222656 123.980469 C 105.476563 123.515625 107.820313 121.625 111.980469 122.519531 C 111.050781 124.6875 109.28125 127.390625 107.113281 128.785156 C 105.253906 129.402344 105.253906 127.699219 103.855469 127.234375 C 102.460938 127.078125 98.277344 126.613281 100.445313 124.753906 Z M 109.4375 130.644531 C 111.261719 128.921875 111.824219 124.554688 113.855469 123.074219 C 117.808594 121.785156 134.578125 129.796875 135.019531 131.058594 C 135.175781 131.511719 135.113281 132.078125 134.703125 132.8125 C 130.980469 134.984375 130.363281 141.027344 125.09375 140.71875 C 124.800781 143.285156 124.300781 143.976563 123.652344 143.683594 C 122.226563 143.039063 115.746094 132.507813 109.4375 130.644531 Z M 101.445313 122.429688 L 99.671875 122.894531 C 96.882813 122.273438 99.207031 127.078125 96.417969 126.148438 C 95.796875 131.417969 93.007813 123.824219 91.148438 128.476563 C 93.628906 129.867188 91.300781 131.882813 90.371094 133.277344 C 89.285156 134.828125 86.1875 131.417969 86.652344 134.675781 C 87.152344 136.28125 88.953125 136.097656 90.28125 135.714844 C 92.097656 134.460938 95.097656 133.394531 90.761719 136.804688 C 86.574219 138.976563 82.003906 138.394531 77.042969 138.085938 C 72.546875 138.238281 68.515625 135.605469 66.191406 131.730469 C 66.347656 127.390625 73.476563 127.699219 73.011719 122.429688 C 74.097656 120.570313 76.265625 116.851563 75.957031 113.128906 C 76.886719 112.199219 77.199219 111.113281 77.042969 109.875 C 79.058594 100.730469 86.808594 110.027344 92.699219 107.550781 C 100.601563 106.617188 112.535156 105.226563 115.792969 95.613281 C 116.878906 94.21875 116.722656 90.035156 120.597656 91.585938 C 122.300781 94.0625 122.921875 97.007813 124.628906 99.335938 C 128.65625 102.433594 134.390625 103.828125 138.730469 105.6875 C 139.042969 111.425781 140.4375 115.609375 139.972656 121.652344 C 137.183594 123.203125 139.351563 127.390625 136.5625 129.09375 C 126.175781 124.132813 113.226563 116.851563 101.445313 122.429688 Z M 58.753906 120.257813 C 62.75 117.445313 65.539063 120.414063 70.910156 120.296875 C 71.164063 120.292969 71.328125 120.585938 71.085938 120.726563 C 69.414063 121.703125 65.882813 122.042969 66.96875 124.753906 C 69.910156 126.613281 66.328125 125.839844 65.574219 128.007813 C 62.9375 124.871094 58.597656 125.375 61.078125 121.652344 C 60.300781 121.34375 59.371094 121.035156 58.753906 120.257813 Z M 77.042969 141.804688 C 79.523438 141.183594 82.46875 141.183594 84.792969 141.804688 C 84.171875 145.214844 80.140625 146.300781 77.351563 148.933594 C 73.011719 149.554688 67.121094 150.640625 62.160156 149.242188 C 57.355469 146.917969 53.480469 145.367188 51.3125 140.71875 C 56.425781 142.425781 59.683594 137 64.796875 141.027344 C 68.363281 139.167969 73.167969 140.5625 77.042969 141.804688 Z M 92.699219 97.472656 C 95.175781 97.785156 97.191406 96.078125 97.8125 93.753906 C 98.121094 90.652344 98.898438 89.105469 98.585938 85.695313 C 101.222656 85.847656 103.238281 87.242188 105.253906 88.640625 C 104.632813 93.289063 101.378906 97.472656 96.726563 99.335938 C 91.613281 101.503906 86.03125 99.179688 82.3125 96.390625 C 82.933594 93.289063 84.480469 91.273438 86.652344 88.949219 C 88.667969 92.203125 88.511719 96.542969 92.699219 97.472656 Z M 91.320313 88.445313 C 91.320313 87.613281 93.359375 85.652344 94.421875 87.671875 C 94.808594 88.40625 95.097656 89.609375 93.355469 90.1875 C 92.675781 90.417969 91.320313 89.277344 91.320313 88.445313 Z M 88.511719 102.070313 C 91.757813 102.6875 94.246094 102.957031 96.726563 102.492188 C 102.445313 100.5 105.273438 99.394531 108.660156 91.273438 C 110.988281 91.894531 112.226563 89.878906 114.242188 90.035156 C 114.085938 91.738281 113.15625 92.203125 112.691406 93.753906 C 108.972656 99.488281 104.632813 102.433594 98.277344 103.828125 C 88.414063 104.042969 83.765625 103.171875 81.074219 99.335938 C 83.085938 99.359375 85.945313 100.9375 88.511719 102.070313 Z M 91.148438 43.535156 C 95.074219 42.660156 98.320313 45.339844 101.394531 43.878906 C 101.597656 43.78125 101.734375 44.078125 101.566406 44.320313 C 99.554688 47.230469 94.378906 47.253906 94.09375 50.972656 C 96.261719 51.128906 97.65625 50.972656 99.671875 49.890625 C 116.101563 35.9375 126.175781 22.144531 141.058594 7.574219 C 144.773438 4.414063 145.828125 5.21875 142.140625 10.054688 C 139.507813 11.140625 142.453125 13.617188 142.453125 15.015625 C 142.917969 18.269531 142.140625 21.523438 140.28125 23.539063 C 136.871094 24.933594 135.320313 27.722656 132.84375 29.894531 C 131.910156 34.542969 135.167969 36.402344 135.011719 40.589844 C 132.53125 41.828125 128.503906 42.292969 127.570313 45.394531 C 125.558594 48.492188 132.378906 49.113281 131.292969 53.300781 C 123.695313 46.789063 114.242188 56.398438 105.253906 52.214844 C 104.476563 54.847656 107.886719 56.863281 110.210938 57.328125 C 116.257813 57.328125 122.300781 51.128906 128.035156 55.46875 C 129.433594 57.640625 133.925781 58.105469 133.152344 61.515625 C 140.128906 64.613281 130.671875 69.882813 135.785156 74.070313 C 138.578125 77.167969 141.523438 79.804688 140.28125 84.917969 C 136.097656 90.035156 141.832031 95.613281 141.058594 101.660156 C 138.113281 103.210938 136.097656 100.417969 133.617188 99.800781 C 128.503906 95.925781 129.433594 88.949219 128.347656 83.367188 C 125.246094 81.972656 122.148438 78.253906 118.273438 80.734375 C 115.945313 82.75 115.945313 80.269531 113.15625 80.734375 C 110.058594 77.632813 108.195313 74.070313 103.390625 72.675781 C 102.460938 73.140625 101.066406 74.535156 100.136719 72.984375 C 98.898438 70.8125 99.828125 66.164063 96.417969 66.628906 C 95.640625 68.488281 94.867188 69.265625 94.09375 71.125 C 90.835938 71.125 91.457031 67.402344 91.921875 65.234375 C 92.230469 63.527344 93.160156 60.894531 91.148438 59.652344 C 87.273438 59.964844 90.21875 66.164063 85.566406 65.234375 C 86.808594 61.359375 88.355469 57.328125 89.285156 53.609375 C 87.425781 52.679688 87.117188 53.917969 85.257813 54.074219 C 85.566406 49.578125 88.511719 46.167969 91.148438 43.535156 Z M 81.074219 42.140625 C 82.3125 41.054688 82.988281 42.527344 84.792969 42.140625 C 83.242188 45.859375 82.46875 49.269531 80.761719 52.523438 C 78.824219 50.179688 80.917969 45.550781 81.074219 42.140625 Z M 78.128906 41.675781 C 78.746094 44.152344 76.421875 45.085938 76.730469 47.253906 C 75.957031 47.410156 75.820313 48.628906 74.40625 48.027344 C 76.113281 45.628906 72.546875 39.503906 78.128906 41.675781 Z M 67.742188 73.757813 C 71.460938 75 71.152344 58.722656 72.546875 70.347656 C 73.785156 71.898438 74.40625 73.605469 76.730469 73.292969 C 77.507813 70.347656 77.660156 66.628906 80.761719 64.769531 C 82.15625 67.402344 80.761719 72.054688 84.480469 73.292969 C 85.722656 71.742188 87.117188 70.8125 89.285156 71.898438 C 88.046875 74.378906 89.90625 76.238281 91.613281 77.480469 C 95.640625 75.464844 101.378906 76.238281 105.253906 78.253906 C 106.800781 81.972656 112.070313 82.59375 113.15625 86.3125 C 114.242188 86.625 114.550781 87.398438 115.015625 88.175781 C 112.226563 89.414063 107.886719 88.792969 105.71875 86.003906 C 102.925781 81.042969 96.261719 83.058594 91.148438 82.285156 C 77.660156 86.003906 79.367188 104.292969 73.632813 114.214844 C 72.238281 114.835938 69.449219 114.988281 67.433594 115.453125 C 64.796875 117.777344 60.921875 114.214844 57.667969 115.453125 C 56.117188 109.101563 56.117188 103.210938 56.273438 96.855469 C 55.03125 90.964844 51.777344 86.3125 46.199219 84.144531 C 40.925781 83.523438 35.347656 82.75 31.316406 86.777344 C 30.078125 84.765625 32.09375 84.453125 33.953125 82.59375 C 37.671875 82.59375 39.6875 78.5625 42.011719 77.789063 C 42.011719 74.070313 46.042969 74.222656 48.058594 75.152344 C 49.296875 76.703125 51.46875 77.015625 53.171875 76.394531 C 54.257813 71.742188 58.597656 67.714844 60.613281 63.683594 C 63.558594 66.007813 60.457031 75.773438 67.742188 73.757813 Z M 44.648438 99.800781 C 49.410156 100.207031 49.222656 92.042969 50.011719 91.378906 C 50.558594 90.921875 51.207031 91.289063 51.777344 93.445313 C 52.550781 96.699219 54.878906 99.800781 53.636719 103.519531 C 48.210938 100.109375 39.6875 102.898438 36.121094 96.855469 C 34.574219 94.375 33.488281 91.738281 32.710938 88.949219 C 34.574219 88.484375 36.433594 86.777344 39.066406 87.554688 C 38.910156 88.792969 38.703125 98.3125 44.648438 99.800781 Z M 43.367188 89.800781 C 43.367188 88.703125 44.484375 88.929688 45.015625 88.929688 C 45.542969 88.929688 46.46875 89.285156 46.46875 90.382813 C 46.46875 91.480469 46.566406 92.609375 45.015625 92.902344 C 44.496094 93 43.367188 90.898438 43.367188 89.800781 Z M 61.851563 46.945313 C 62.007813 49.425781 62.78125 50.972656 61.851563 53.609375 C 59.835938 54.382813 58.285156 50.972656 55.808594 52.214844 C 50.847656 50.199219 46.757813 44.65625 45.421875 40.589844 C 50.691406 43.222656 55.496094 46.015625 61.851563 46.945313 Z M 18.605469 61.824219 C 15.199219 54.847656 8.996094 49.425781 8.222656 41.675781 C 4.347656 33.613281 2.488281 24.777344 2.640625 15.015625 C 4.191406 13.152344 5.898438 15.789063 7.449219 16.097656 C 10.703125 21.214844 15.507813 22.917969 15.972656 28.652344 C 15.507813 33.613281 26.203125 29.585938 21.550781 35.007813 C 21.863281 37.335938 23.722656 38.882813 25.738281 39.8125 C 27.90625 39.503906 30.078125 40.433594 30.542969 42.449219 C 31.316406 47.410156 20.699219 55.992188 30.851563 56.554688 C 29.300781 61.203125 30.230469 68.023438 24.652344 69.574219 C 19.828125 70.621094 19.730469 64.710938 18.605469 61.824219 Z M 24.652344 83.058594 C 22.015625 81.507813 25.273438 78.253906 25.273438 75.617188 C 33.023438 69.882813 29.765625 58.414063 38.757813 53.609375 C 41.082031 53.144531 43.71875 53.765625 45.730469 55.160156 C 46.507813 55.003906 47.28125 55.46875 47.59375 54.695313 C 46.042969 52.058594 42.785156 49.734375 39.066406 50.664063 C 35.65625 51.75 32.558594 56.242188 28.683594 54.074219 C 30.699219 49.578125 34.574219 44.773438 32.09375 39.503906 C 29.921875 38.730469 28.0625 37.179688 25.738281 37.335938 C 24.808594 36.402344 25.738281 35.472656 26.046875 34.699219 C 26.046875 31.597656 23.722656 29.738281 20.46875 29.117188 C 20.15625 28.964844 18.605469 29.429688 19.691406 28.652344 C 19.691406 23.230469 13.957031 22.300781 11.167969 17.492188 C 6.050781 12.070313 15.042969 16.71875 16.4375 17.960938 C 27.597656 22.453125 33.488281 33.925781 41.390625 40.589844 C 44.335938 47.097656 49.605469 50.199219 55.03125 56.242188 C 54.878906 61.359375 53.015625 65.234375 51.003906 69.265625 C 46.660156 68.023438 47.59375 62.289063 42.011719 63.683594 C 38.910156 66.320313 40.925781 73.449219 36.898438 76.703125 C 32.246094 77.789063 26.511719 78.71875 24.652344 83.058594 Z M 27.597656 88.175781 C 31.160156 88.949219 29.765625 94.21875 31.628906 96.855469 C 33.007813 99.730469 34.007813 102.394531 39.675781 103.730469 C 43.171875 105.070313 45.113281 103.984375 47.28125 105.378906 C 46.972656 106.773438 42.785156 105.84375 40.617188 106.152344 C 36.839844 105.894531 33.023438 103.828125 30.542969 100.882813 C 25.273438 99.023438 28.527344 91.585938 27.597656 88.175781 Z M 30.230469 110.183594 C 30.851563 109.410156 32.613281 110.046875 32.09375 107.789063 C 38.910156 109.183594 48.058594 113.128906 53.949219 109.101563 C 56.273438 110.960938 54.101563 114.835938 56.273438 116.851563 C 54.410156 119.175781 56.425781 120.878906 55.808594 123.203125 C 58.285156 127.234375 66.191406 127.855469 63.710938 134.363281 C 60.921875 137.308594 57.355469 138.464844 53.171875 138 C 51.621094 137.070313 49.917969 135.914063 49.453125 134.675781 C 51.214844 134.363281 53.171875 137.773438 54.722656 135.449219 C 52.550781 134.519531 51.621094 133.277344 51.003906 130.644531 C 50.226563 131.265625 48.523438 131.265625 48.367188 129.867188 C 46.507813 129.25 47.902344 127.234375 46.972656 126.148438 C 42.324219 128.9375 37.828125 124.289063 32.402344 125.839844 C 29.613281 121.5 30.230469 115.609375 30.230469 110.183594 Z M 37.273438 133.839844 C 36.808594 131.667969 32.558594 128.9375 34.574219 127.234375 C 37.828125 126.769531 39.6875 129.25 40.925781 131.417969 C 39.621094 132.464844 39.132813 133.21875 37.273438 133.839844 Z M 38.292969 135.449219 C 39.609375 134.984375 40.847656 133.820313 42.070313 133.222656 C 43.289063 132.621094 44.492188 132.582031 45.730469 134.363281 C 44.613281 136.128906 42.910156 137.652344 41.703125 139.167969 C 40.246094 138.945313 38.972656 135.960938 38.292969 135.449219 Z M 182.289063 513.03125 C 179.03125 519.074219 181.511719 529.304688 175.621094 534.574219 C 169.730469 538.914063 161.980469 540.464844 154.078125 539.070313 C 146.117188 536.839844 156.558594 529.304688 150.667969 530.234375 C 148.496094 531.785156 146.171875 535.039063 147.722656 538.292969 C 148.34375 539.070313 149.273438 539.535156 148.808594 540.621094 C 145.085938 542.171875 140.300781 540.441406 137.820313 538.425781 C 134.566406 535.015625 138.578125 530.699219 138.421875 526.824219 C 137.800781 526.207031 136.871094 526.515625 136.253906 526.515625 C 133.460938 529.925781 132.066406 534.265625 134.390625 538.292969 C 135.476563 539.378906 137.183594 541.550781 133.925781 540.15625 C 130.828125 539.226563 126.796875 537.984375 125.710938 534.265625 C 124.605469 530.984375 126.488281 523.261719 129.121094 518.609375 C 131.445313 515.199219 134.390625 515.042969 137.648438 513.496094 C 141.523438 514.269531 138.578125 516.128906 137.335938 517.527344 C 137.335938 518.144531 138.113281 518.609375 138.421875 519.074219 C 140.59375 515.199219 145.242188 517.214844 148.03125 518.300781 C 152.371094 517.679688 153.457031 527.601563 157.023438 522.019531 C 159.8125 519.695313 162.757813 520.160156 166.011719 520.160156 C 167.097656 521.089844 166.632813 522.792969 168.492188 522.332031 C 169.578125 520.003906 167.097656 518.609375 165.238281 517.527344 L 159.65625 518.300781 C 157.796875 518.765625 156.402344 520.160156 154.851563 520.933594 C 152.992188 513.03125 133.925781 518.609375 142.453125 507.449219 C 141.367188 496.910156 146.328125 488.074219 144.003906 478.15625 C 146.015625 450.71875 148.34375 421.425781 144.777344 393.988281 C 143.691406 390.425781 141.988281 386.394531 143.226563 382.828125 C 142.296875 381.589844 141.988281 379.265625 142.140625 377.25 C 138.113281 366.246094 138.421875 357.101563 130.671875 348.574219 C 129.277344 347.023438 128.8125 344.390625 128.035156 342.375 L 122.507813 336.0625 L 117.339844 331.230469 C 108.660156 324.054688 106.234375 317.984375 100.136719 307.65625 C 99.515625 305.484375 98.277344 303.625 97.503906 300.988281 C 94.246094 300.679688 95.953125 304.710938 95.953125 306.261719 C 96.046875 307.390625 97.394531 308.65625 97.394531 309.429688 C 101.886719 319.972656 111.230469 324.832031 116.101563 334.160156 C 119.203125 338.191406 125.402344 341.289063 126.175781 346.714844 C 131.136719 351.828125 132.222656 358.648438 135.785156 364.695313 C 135.476563 364.851563 135.320313 365.160156 135.011719 365.316406 C 137.183594 371.359375 140.902344 378.335938 136.253906 383.914063 C 139.351563 396.316406 131.910156 407.320313 133.925781 420.03125 C 131.601563 423.285156 133.925781 428.246094 132.066406 431.65625 C 133.308594 436.769531 129.898438 440.488281 130.671875 444.984375 C 130.671875 455.523438 127.570313 461.878906 127.570313 472.574219 C 124.316406 479.707031 125.246094 489.933594 121.683594 497.066406 C 121.257813 503.148438 118.738281 507.292969 117.1875 511.945313 L 111.085938 522.011719 C 107.59375 528.664063 102.828125 529.464844 101.53125 530.234375 C 96.417969 532.09375 81.410156 532.949219 74.871094 531.320313 C 73.011719 530.910156 70.519531 523.859375 79.671875 520.476563 C 80.316406 519.71875 78.175781 517.867188 77.511719 518.195313 C 75.886719 518.996094 73.757813 519.902344 71.773438 521.554688 C 69.757813 523.878906 69.757813 527.601563 70.378906 530.542969 C 67.742188 529.769531 64.488281 530.699219 62.472656 528.375 C 60.488281 523.523438 64.382813 520.320313 67.300781 517.089844 C 68.484375 515.777344 65.726563 514.582031 64.023438 515.355469 C 62.628906 516.59375 60.765625 518.609375 59.992188 520.160156 C 57.824219 517.214844 60.246094 516.25 62.160156 514.582031 C 67.585938 510.394531 69.910156 502.488281 78.128906 506.675781 C 79.832031 507.761719 82.3125 506.363281 84.171875 505.28125 C 88.976563 502.488281 89.441406 496.753906 90.835938 491.484375 C 90.21875 481.875 93.316406 472.886719 93.78125 463.273438 C 92.542969 461.414063 93.007813 460.019531 93.472656 458.003906 C 93.78125 458.160156 93.9375 457.738281 94.09375 457.582031 C 93.472656 438.363281 91.921875 419.71875 87.117188 402.203125 C 82.933594 389.960938 80.917969 377.25 74.40625 365.316406 C 73.476563 357.566406 68.515625 352.296875 67.433594 344.234375 C 66.96875 341.601563 65.417969 337.878906 64.332031 334.933594 L 63.710938 329.664063 C 60.457031 323.621094 58.285156 315.40625 55.808594 308.429688 C 55.496094 306.261719 55.03125 305.484375 54.722656 303.3125 C 47.746094 287.8125 44.183594 271.695313 39.53125 254.179688 L 39.84375 251.234375 C 39.996094 245.808594 38.449219 240.230469 36.898438 235.113281 C 38.292969 213.105469 48.988281 197.296875 47.59375 174.507813 C 48.832031 172.648438 44.648438 162.574219 51.3125 167.535156 C 54.101563 166.140625 55.808594 168 57.355469 169.703125 C 57.824219 173.113281 61.851563 172.492188 64.332031 173.113281 C 67.121094 174.355469 70.785156 172.242188 71.460938 170.789063 C 66.96875 168.773438 60.148438 174.042969 58.753906 166.292969 C 55.496094 163.039063 48.832031 167.070313 46.972656 161.488281 C 47.128906 155.132813 45.265625 148.003906 42.785156 141.804688 C 43.40625 139.789063 45.113281 137.308594 47.28125 136.226563 C 49.917969 136.070313 48.058594 139.015625 49.453125 139.945313 C 50.691406 147.382813 57.824219 149.863281 64.796875 151.878906 C 73.476563 152.808594 83.085938 150.484375 86.34375 143.976563 C 87.117188 139.167969 93.007813 140.101563 94.558594 136.226563 C 103.121094 135.96875 111.761719 152.1875 112.070313 154.050781 C 108.972656 155.910156 105.5625 156.527344 101.996094 156.992188 C 100.601563 158.078125 101.066406 159.628906 102.773438 159.628906 C 106.027344 159.785156 109.4375 158.234375 112.382813 156.683594 C 114.707031 160.714844 116.078125 167.4375 117.1875 173.113281 C 118.117188 173.113281 118.351563 172.808594 118.316406 172.363281 C 118.265625 171.617188 116.433594 162.09375 114.828125 155.785156 C 117.671875 154.664063 122.007813 149.386719 124.65625 148.007813 C 126.246094 147.804688 130.863281 158.875 132.066406 165.210938 C 132.40625 166.609375 133.824219 165.753906 133.617188 164.898438 C 132.53125 161.476563 130.039063 152.683594 127.125 146.699219 C 127.28125 145.222656 127.882813 144.039063 129.121094 143.355469 C 132.222656 139.789063 134.828125 136.652344 137.773438 132.777344 C 138.882813 133.214844 140.253906 134.390625 141.242188 135.285156 C 140.933594 139.777344 139.972656 146.144531 141.367188 150.328125 C 140.902344 154.667969 143.691406 158.234375 143.691406 161.953125 C 150.976563 179.003906 170.816406 189.390625 163.378906 212.796875 C 164.773438 216.359375 158.882813 216.359375 161.515625 219.925781 C 163.066406 218.683594 165.082031 215.894531 167.871094 218.0625 C 176.242188 228.914063 169.886719 243.019531 164.152344 252.320313 L 164.773438 254.179688 C 166.941406 251.234375 168.492188 247.515625 171.59375 245.65625 C 176.707031 245.1875 181.046875 248.601563 183.371094 252.628906 C 186.164063 256.96875 185.386719 266.578125 189.726563 271.230469 C 190.347656 273.089844 191.277344 276.5 192.363281 278.671875 C 197.476563 292.308594 185.230469 302.851563 188.953125 315.871094 C 190.8125 322.691406 192.050781 327.648438 193.136719 334.46875 C 196.238281 343.925781 196.394531 351.054688 201.972656 359.113281 C 201.972656 362.214844 202.4375 365.625 200.113281 367.949219 C 199.027344 373.53125 198.253906 379.574219 195.308594 383.914063 C 192.980469 391.355469 192.671875 399.726563 189.726563 407.011719 C 192.671875 414.914063 187.558594 422.976563 188.953125 431.964844 C 187.867188 460.484375 185.695313 486.058594 182.289063 513.03125 Z M 190.8125 485.90625 C 191.277344 487.609375 192.519531 489.316406 193.136719 490.710938 C 191.277344 491.640625 189.882813 491.792969 187.867188 491.175781 C 188.023438 488.851563 187.09375 477.378906 190.8125 485.90625 Z M 338.21875 512.71875 C 324.269531 518.765625 309.386719 523.261719 293.113281 526.050781 C 284.277344 528.375 274.667969 527.136719 265.679688 527.910156 C 261.957031 527.289063 256.222656 527.601563 251.574219 527.601563 C 244.597656 528.53125 238.089844 531.628906 231.421875 532.09375 C 228.632813 531.320313 226.773438 530.542969 223.980469 529.769531 C 220.105469 532.714844 216.078125 533.027344 211.273438 532.714844 C 209.414063 531.628906 207.398438 530.699219 206.933594 528.683594 C 206.621094 522.949219 209.414063 519.230469 212.511719 515.355469 C 212.667969 514.113281 212.203125 513.339844 211.273438 512.71875 C 207.707031 514.113281 204.605469 516.90625 202.746094 520.46875 C 198.40625 524.191406 208.949219 536.28125 197.941406 531.628906 C 196.855469 529.925781 193.449219 528.53125 193.136719 526.050781 C 192.050781 519.230469 195.617188 515.355469 199.492188 511.636719 C 199.183594 510.550781 200.113281 509.15625 198.71875 508.535156 C 193.449219 512.71875 187.558594 515.820313 189.417969 524.65625 C 188.953125 530.390625 187.402344 522.792969 186.472656 522.332031 C 183.683594 515.664063 189.261719 511.636719 192.671875 507.449219 C 197.324219 504.503906 202.4375 505.433594 207.550781 504.816406 C 210.808594 505.746094 214.371094 504.96875 217.316406 504.195313 C 221.65625 503.886719 225.53125 501.40625 230.339844 503.417969 C 251.726563 504.195313 270.328125 500.476563 289.394531 507.140625 C 297.453125 508.691406 304.117188 510.238281 312.953125 510.085938 C 318.53125 506.519531 326.59375 510.085938 329.691406 502.644531 C 327.832031 502.800781 325.816406 504.816406 323.648438 505.589844 C 308.457031 509.308594 289.703125 506.054688 276.371094 499.699219 C 266.453125 500.628906 257.308594 499.390625 247.851563 499.234375 C 240.722656 497.839844 234.523438 493.808594 230.339844 488.539063 C 229.882813 488.1875 228.789063 486.679688 228.011719 488.539063 C 227.394531 490.398438 228.476563 493.035156 228.476563 493.035156 C 228.476563 493.035156 229.195313 493.625 230.339844 493.65625 C 232.929688 497.253906 236.0625 498.695313 240.375 501.042969 C 240.640625 501.210938 240.644531 501.542969 240.378906 501.535156 C 231.644531 501.253906 222.378906 501.230469 215.457031 495.515625 C 210.808594 494.738281 207.398438 489.316406 202.746094 487.457031 C 195.152344 480.945313 194.066406 472.886719 190.191406 464.359375 C 191.121094 435.996094 189.417969 403.753906 201.664063 378.023438 C 201.351563 372.753906 205.226563 368.261719 205.382813 362.835938 C 199.339844 349.816406 195.925781 336.796875 193.914063 323.308594 C 192.519531 317.730469 189.882813 312.148438 192.363281 306.261719 C 193.757813 295.101563 199.492188 286.109375 193.136719 274.949219 C 186.164063 262.703125 191.589844 245.964844 174.070313 241.933594 C 176.707031 233.253906 174.070313 223.488281 170.351563 216.203125 C 162.601563 213.570313 172.214844 206.59375 168.492188 200.550781 C 166.167969 190.9375 173.144531 203.496094 175.621094 204.269531 C 178.566406 209.382813 181.976563 213.570313 181.511719 219.925781 C 183.257813 224.3125 183.371094 222.09375 184.148438 220.234375 C 184.007813 219.3125 183.839844 216.824219 185.230469 218.375 C 188.953125 220.234375 192.257813 232.5625 193.136719 225.195313 C 197.324219 223.953125 199.957031 228.605469 203.523438 227.054688 C 206.933594 227.828125 209.257813 229.535156 211.738281 231.859375 C 214.992188 230.929688 209.722656 229.070313 213.597656 229.226563 C 219.175781 231.703125 220.726563 236.820313 227.703125 237.4375 C 228.011719 238.058594 229.71875 237.59375 228.789063 238.523438 C 232.664063 241.46875 234.367188 245.964844 238.089844 248.136719 C 242.117188 251.546875 243.507813 258.0625 246.007813 258.3125 C 246.824219 255.078125 242.425781 249.839844 242.894531 248.601563 C 246.921875 249.53125 250.175781 251.699219 251.882813 255.574219 C 252.40625 257.136719 253.007813 254.5625 252.65625 251.855469 C 254.671875 253.09375 257.617188 256.8125 259.011719 258.984375 C 260.71875 262.238281 262.421875 265.648438 264.902344 268.285156 C 266.453125 265.804688 263.664063 264.101563 263.042969 261.621094 C 266.144531 261.308594 268.46875 265.496094 270.171875 267.976563 C 272.1875 271.539063 274.667969 277.738281 277.148438 280.996094 C 279.164063 279.753906 275.132813 276.34375 278.699219 276.5 C 282.726563 283.011719 285.007813 286.5625 285.671875 299.128906 C 287.996094 303.3125 289.859375 309.050781 292.804688 311.375 C 293.578125 309.050781 292.492188 308.121094 292.804688 305.484375 C 297.609375 307.5 297.296875 314.941406 298.691406 318.816406 C 299.933594 321.449219 300.863281 325.324219 301.019531 328.113281 C 302.257813 327.625 302.445313 325.625 303.1875 324.394531 C 307.527344 324.859375 307.0625 331.371094 308.769531 334.933594 C 309.699219 339.273438 311.558594 342.996094 312.488281 347.953125 C 315.742188 345.785156 315.433594 351.675781 316.984375 353.070313 C 318.222656 358.648438 318.6875 365.625 322.253906 370.273438 C 322.871094 378.953125 328.144531 385.929688 327.832031 395.074219 C 329.691406 398.640625 328.453125 402.359375 330.3125 405.613281 C 332.949219 416.308594 334.03125 427.46875 337.441406 436.769531 C 339.613281 442.351563 339.613281 450.566406 344.574219 455.371094 C 343.796875 459.398438 353.464844 464.515625 344.882813 467.304688 C 346.589844 468.542969 344.882813 470.25 344.109375 471.335938 C 342.714844 474.28125 332.171875 469.011719 338.21875 475.832031 C 338.0625 479.550781 334.1875 476.605469 332.171875 476.914063 C 330.777344 472.730469 325.199219 475.832031 322.253906 473.96875 C 318.996094 471.644531 312.953125 470.40625 313.261719 464.667969 C 312.179688 462.5 311.246094 465.445313 311.402344 465.753906 C 312.023438 475.363281 323.027344 475.675781 329.691406 478.773438 C 333.566406 486.679688 330.15625 499.082031 339.613281 504.195313 C 340.851563 507.140625 340.851563 510.238281 338.21875 512.71875 Z M 424.199219 511.792969 C 418.082031 513.535156 411.539063 510.976563 405.488281 514.582031 C 396.34375 516.90625 385.492188 514.734375 376.8125 514.582031 C 365.964844 514.582031 354.027344 512.101563 343.796875 508.226563 C 346.433594 502.335938 339.457031 500.628906 337.753906 496.289063 C 346.121094 497.21875 354.339844 499.855469 360.539063 504.195313 C 362.398438 503.730469 365.496094 505.125 366.429688 502.957031 C 364.257813 501.871094 361.621094 500.011719 366.117188 500.011719 C 373.246094 499.542969 383.011719 499.699219 386.886719 507.140625 C 388.746094 505.589844 392.621094 510.550781 392.15625 505.589844 C 399.597656 503.417969 409.363281 505.746094 414.789063 511.167969 C 416.648438 508.535156 419.128906 509.308594 422.226563 510.085938 C 423.429688 509.683594 425.511719 511.417969 424.199219 511.792969 "/>
</g>
</svg>
