<?xml version="1.0" encoding="UTF-8"?>
<svg xmlns="http://www.w3.org/2000/svg" xmlns:xlink="http://www.w3.org/1999/xlink" width="494pt" height="391pt" viewBox="0 0 494 391" version="1.1">
<g id="surface1">
<path style=" stroke:none;fill-rule:nonzero;fill:rgb(0%,0%,0%);fill-opacity:1;" d="M 485.167969 348.882813 C 487.65625 347.285156 491.382813 347.019531 493.25 345.0625 C 493.339844 344.085938 492.359375 344.53125 491.917969 343.820313 C 486.765625 343.199219 485.613281 337.871094 482.328125 334.40625 C 482.328125 334.230469 482.328125 333.863281 482.328125 333.683594 C 485.59375 330.878906 488.28125 332.078125 491.117188 329.523438 C 492.007813 328.546875 490.140625 326.949219 490.496094 326.328125 C 485.523438 325.4375 482.859375 320.644531 478.953125 318.246094 C 478.597656 316.558594 476.730469 315.492188 475.933594 314.160156 C 474.066406 307.855469 468.472656 301.195313 472.734375 294.179688 C 473.980469 293.46875 473.980469 295.421875 474.867188 294.179688 C 474.335938 292.492188 474.15625 290.71875 474.246094 288.851563 C 473.089844 281.480469 473.800781 274.199219 473.625 267.273438 C 475.398438 264.699219 473.003906 262.214844 473.179688 259.371094 C 473.625 256.085938 471.136719 251.289063 474.511719 248.535156 C 475.046875 239.925781 476.121094 230.867188 475.410156 221.453125 C 475.234375 221.542969 474.945313 221.265625 474.765625 221.175781 C 475.566406 214.78125 472.914063 208.933594 472.382813 202.539063 C 472.734375 199.519531 469.804688 194.28125 474.511719 193.125 C 475.398438 188.417969 473.800781 184.15625 473.445313 179.71875 C 473.179688 178.296875 471.226563 176.699219 472.558594 175.453125 C 474.246094 166.839844 469.804688 159.46875 466.164063 152.453125 C 463.058594 145.972656 459.0625 139.3125 455.066406 132.5625 C 451.601563 129.542969 450.003906 124.304688 446.539063 121.109375 C 435.972656 107.964844 421.054688 99.617188 406.667969 92.960938 C 396.191406 88.785156 384.378906 84.257813 375.765625 76.351563 C 374.878906 73.953125 373.367188 71.734375 373.011719 69.335938 C 368.039063 62.855469 360.582031 57.261719 351.96875 55.839844 C 350.367188 47.582031 344.6875 41.988281 337.847656 37.367188 C 333.40625 35.414063 328.878906 32.574219 323.996094 31.152344 C 320.355469 24.316406 314.226563 16.589844 306.945313 13.039063 C 304.105469 10.195313 301.882813 7.175781 299.042969 4.070313 C 298.507813 3.003906 295.757813 2.914063 296.734375 1.140625 C 294.15625 -0.195313 291.316406 1.761719 288.207031 1.140625 C 285.988281 1.492188 283.679688 2.113281 281.636719 2.203125 C 278.972656 3.269531 275.953125 4.246094 273.289063 4.691406 C 266.628906 4.511719 260.148438 5.222656 254.109375 4.070313 C 249.136719 4.601563 243.363281 6.734375 237.945313 7.710938 C 232.351563 7.355469 227.113281 8.507813 221.519531 7.53125 C 218.410156 5.667969 214.59375 4.15625 211.308594 3.003906 C 205.003906 2.113281 198.964844 -0.726563 193.367188 2.203125 C 194.613281 7.089844 198.429688 10.730469 201.449219 14.546875 C 205.003906 17.742188 198.609375 16.855469 199.140625 19.429688 C 199.320313 20.585938 197.898438 21.828125 198.875 22.628906 C 199.140625 23.160156 199.40625 24.136719 198.695313 24.582031 C 191.414063 25.113281 198.253906 32.660156 193.546875 35.414063 C 193.101563 37.367188 193.367188 40.03125 194.613281 41.808594 C 196.300781 44.117188 195.589844 46.871094 194.257813 49.089844 C 194.433594 50.421875 195.410156 50.6875 196.121094 51.578125 C 197.453125 52.820313 195.5 54.683594 195.5 56.105469 C 195.410156 58.324219 197.097656 59.480469 197.808594 61.167969 C 198.875 64.363281 196.03125 65.253906 196.121094 68.273438 C 196.210938 72.003906 197.363281 75.464844 199.140625 78.21875 C 199.675781 79.992188 197.277344 79.28125 196.742188 80.792969 C 194.613281 83.988281 195.324219 89.40625 197.011719 92.78125 C 189.304688 98.558594 183.042969 105.464844 181.574219 111.152344 C 181.363281 111.972656 182.179688 112.0625 182.382813 111.511719 C 183.9375 105.6875 192.769531 96.671875 197.808594 94.203125 C 199.140625 96.15625 200.652344 97.398438 201.894531 99.351563 C 197.171875 104.582031 192.472656 114.214844 191.960938 118.007813 C 191.941406 118.796875 192.867188 118.757813 192.972656 118.140625 C 194.160156 111.140625 198.636719 105.414063 202.828125 100.105469 C 203.53125 101.105469 205.960938 102.585938 207.410156 103.371094 C 202.960938 109.515625 200.199219 119.777344 200.5625 122.761719 C 200.582031 123.554688 201.375 123.460938 201.445313 122.691406 C 201.664063 120.410156 203.714844 109.203125 209.175781 104.058594 C 210.226563 104.664063 212.921875 104.242188 214.34375 104.925781 C 213.539063 108.339844 220.097656 116.578125 224.273438 119.15625 C 220.363281 123.773438 218.945313 129.8125 219.386719 136.203125 C 218.5 146.328125 222.496094 156.539063 228.355469 163.289063 C 229.335938 165.507813 229.601563 168.882813 231.554688 169.859375 C 228.179688 173.589844 227.023438 178.917969 224.273438 182.648438 C 222.585938 188.242188 220.363281 191.882813 218.5 197.386719 C 217.433594 201.5625 215.570313 204.9375 215.125 209.285156 C 216.636719 210.976563 215.65625 213.992188 215.925781 216.390625 C 217.078125 217.546875 216.722656 219.320313 216.191406 220.386719 C 216.636719 222.875 214.238281 226.070313 216.636719 227.402344 C 216.902344 228.910156 216.191406 230.15625 215.570313 231.042969 C 210.507813 235.660156 207.578125 242.589844 204.648438 248.359375 C 201.804688 257.152344 196.921875 264.699219 193.367188 273.046875 C 189.460938 275.621094 192.390625 281.925781 189.105469 285.210938 C 186.796875 286.542969 184.488281 287.519531 181.824219 288.585938 C 176.230469 289.296875 170.902344 288.675781 166.285156 285.835938 C 161.3125 284.324219 157.761719 279.796875 152.433594 278.550781 C 149.769531 276.421875 146.304688 279.085938 143.109375 277.929688 C 141.511719 280.0625 139.113281 278.285156 137.070313 279.441406 C 130.144531 278.109375 123.039063 276.863281 116.023438 276.421875 C 108.476563 278.816406 101.902344 276.066406 94.445313 278.816406 C 93.203125 279.617188 90.625 280.0625 89.382813 281.570313 C 86.007813 282.28125 83.523438 285.210938 79.792969 284.945313 C 70.203125 288.054688 59.28125 289.207031 52.265625 297.109375 C 48.535156 301.816406 42.320313 299.777344 38.234375 303.503906 C 36.28125 304.394531 37.347656 307.234375 35.214844 308.390625 C 31.839844 309.988281 27.84375 310.34375 24.558594 312.296875 C 19.054688 313.71875 14.167969 317.359375 10.707031 322.0625 C 10.113281 322.714844 10.285156 323.058594 10.707031 323.308594 C 11.683594 323.75 11.949219 322.242188 12.660156 321.886719 C 13.371094 321.355469 14.703125 319.933594 15.589844 320.554688 C 9.019531 325.972656 4.84375 333.429688 2.449219 340.800781 C 2.714844 343.464844 1.117188 345.597656 0.9375 347.816406 C 1.738281 348.527344 2.625 346.574219 3.511719 347.816406 C 2.625 351.457031 1.117188 354.832031 0.9375 358.738281 C -0.839844 361.9375 0.582031 365.84375 1.117188 369.128906 C 2.179688 370.195313 3.246094 372.503906 5.644531 371.703125 C 7.332031 373.125 10.171875 373.480469 12.214844 375.523438 C 17.542969 376.765625 23.136719 377.386719 28.644531 378.363281 C 34.503906 377.566406 41.074219 379.695313 47.203125 379.785156 C 53.507813 379.253906 58.835938 380.671875 65.050781 381.117188 C 67.804688 381.117188 69.667969 383.515625 72.511719 383.25 C 80.769531 385.914063 90.449219 386.976563 99.152344 386.445313 C 104.480469 385.914063 108.652344 383.25 113.894531 385.824219 C 118.863281 388.222656 124.546875 387.15625 130.054688 388.308594 C 132.273438 387.777344 134.40625 386.710938 136.714844 386.179688 C 143.640625 393.726563 154.5625 386.886719 163.355469 389.640625 C 172.058594 388.84375 180.671875 386.710938 189.550781 387.511719 C 199.675781 388.222656 211.394531 388.398438 221.074219 390.707031 C 227.824219 391.0625 233.949219 390.53125 240.433594 387.953125 C 242.566406 388.308594 244.695313 388.753906 246.828125 389.199219 C 251.265625 388.929688 256.238281 388.753906 259.882813 387.6875 C 266.273438 388.574219 272.933594 387.15625 279.238281 386.445313 C 285.632813 390.085938 291.761719 386.445313 298.242188 385.824219 C 300.195313 386.535156 301.882813 386 303.746094 387.066406 C 312.539063 386.710938 321.863281 387.242188 330.65625 385.558594 C 336.515625 386.355469 342.019531 383.871094 346.371094 381.117188 C 352.320313 384.046875 360.226563 382.894531 365.820313 380.496094 C 368.484375 379.519531 371.769531 377.917969 374.34375 378.542969 C 382.070313 378.363281 389.796875 378.453125 396.457031 375.167969 C 397.789063 375.257813 398.5 373.746094 400.097656 373.835938 C 404.804688 375.523438 408.976563 371.261719 413.949219 372.148438 C 416.171875 373.214844 419.632813 371.703125 421.410156 373.390625 C 426.292969 373.65625 431.355469 373.214844 435.707031 371.703125 C 440.144531 366.640625 447.429688 369.925781 453.554688 367.441406 C 457.730469 363.800781 463.058594 364.957031 468.296875 363.179688 C 471.402344 362.824219 471.316406 359.003906 474.867188 359.183594 C 476.996094 355.898438 480.996094 356.074219 483.390625 353.144531 C 483.925781 351.367188 480.996094 350.835938 480.90625 349.328125 C 482.148438 348.261719 483.570313 348.792969 485.167969 348.882813 Z M 299.484375 39.855469 C 300.535156 41.308594 302.355469 41.570313 303.128906 43.050781 C 299.148438 42.785156 296.007813 44.574219 296.554688 40.921875 C 297.089844 40.386719 298.152344 39.324219 297.621094 38.433594 C 293.09375 37.367188 288.828125 38.789063 284.835938 37.101563 C 284.835938 36.125 286.34375 35.683594 287.144531 34.972656 C 288.121094 33.640625 290.695313 33.019531 291.226563 30.976563 C 293.179688 31.0625 293.625 31.332031 294.78125 32.660156 C 293.890625 33.726563 291.761719 33.019531 291.582031 34.792969 C 293.714844 37.722656 301.351563 33.726563 299.484375 39.855469 Z M 289.097656 4.957031 C 291.492188 5.136719 293.359375 2.824219 295.488281 3.625 C 294.957031 4.867188 293.625 5.578125 292.292969 6.199219 C 289.453125 8.597656 283.855469 7.265625 282.703125 11.527344 C 282.171875 14.28125 283.058594 16.144531 285.453125 17.121094 C 288.296875 18.101563 291.9375 19.074219 292.648438 22.007813 C 288.652344 25.46875 285.1875 18.808594 280.75 20.320313 C 278.261719 22.804688 282.4375 24.136719 284.121094 25.382813 C 284.300781 25.46875 284.746094 25.824219 284.566406 26.269531 C 281.726563 26.800781 278.796875 23.871094 275.242188 24.316406 C 273.46875 23.515625 273.554688 20.941406 271.78125 19.875 C 272.933594 10.640625 281.992188 8.066406 289.097656 4.957031 Z M 200.382813 19.609375 C 202.160156 15.523438 205.445313 21.652344 206.601563 16.855469 C 206.335938 13.925781 205.269531 10.996094 205.535156 8.152344 C 206.511719 8.066406 207.222656 8.597656 207.84375 7.53125 C 212.640625 7.976563 217.078125 9.042969 221.695313 9.839844 C 222.050781 10.195313 221.964844 10.816406 221.695313 11.085938 C 219.832031 14.191406 217.789063 17.300781 214.679688 19.609375 C 210.597656 20.40625 213.261719 14.191406 209.796875 14.992188 C 209.441406 18.722656 207.398438 22.449219 204.46875 24.316406 C 203.316406 24.582031 201.894531 24.847656 200.828125 24.582031 C 200.027344 23.070313 200.5625 21.296875 200.382813 19.609375 Z M 197.453125 55.039063 C 197.898438 53.621094 199.320313 52.199219 197.808594 50.957031 C 197.1875 50.421875 196.210938 50.15625 195.945313 49.269531 C 196.476563 47.316406 198.164063 45.804688 197.1875 43.761719 C 196.210938 41.011719 193.28125 38.613281 195.324219 35.59375 C 197.011719 34.617188 197.277344 32.308594 196.742188 30.53125 C 196.300781 29.644531 195.855469 28.488281 196.566406 27.511719 C 197.1875 26.445313 198.609375 26.179688 199.761719 25.824219 C 200.652344 27.511719 202.871094 26.269531 204.203125 26.003906 C 206.335938 24.226563 210.261719 22.058594 210.417969 18.808594 C 211.476563 19.71875 211.90625 21.539063 213.171875 21.5625 C 218.144531 20.675781 221.519531 14.636719 223.382813 10.460938 C 228.535156 9.042969 233.949219 8.863281 239.191406 8.953125 C 243.898438 7.621094 248.601563 6.46875 253.488281 5.578125 C 258.816406 6.023438 263.941406 7.316406 269.914063 5.757813 C 266.628906 8.964844 262.277344 11.171875 259.4375 15.347656 C 258.460938 18.367188 262.011719 15.523438 261.566406 17.921875 C 264.765625 17.476563 267.960938 19.253906 269.914063 21.5625 C 270.804688 25.292969 275.332031 26.269531 277.550781 29.644531 C 279.507813 31.242188 282.613281 29.023438 282.878906 32.21875 C 284.390625 32.484375 285.988281 31.773438 287.765625 32.039063 C 287.144531 34.4375 281.902344 34.171875 282.703125 37.722656 C 286.078125 41.011719 290.960938 38.523438 295.046875 39.855469 C 294.691406 40.921875 294.15625 41.898438 294.425781 43.050781 C 295.488281 45.894531 299.664063 44.117188 302.0625 45.183594 C 304.636719 43.050781 307.300781 47.492188 309.699219 44.117188 C 311.207031 44.5625 312.097656 43.40625 313.160156 42.695313 C 313.714844 41.308594 314.40625 43.761719 314.847656 44.382813 C 316.890625 48.824219 321.242188 51.664063 325.0625 55.039063 C 328.789063 56.550781 330.390625 59.390625 333.140625 61.878906 C 339.179688 67.5625 328.96875 62.765625 327.457031 62.675781 C 325.414063 60.8125 323.460938 63.476563 321.863281 63.742188 C 323.285156 65.429688 326.039063 66.851563 328.257813 68.003906 C 329.410156 70.046875 331.808594 71.558594 332.519531 73.777344 C 329.058594 73.867188 324.261719 71.46875 322.484375 75.019531 C 323.105469 79.636719 327.371094 83.191406 328.523438 88.074219 C 328.878906 89.585938 329.855469 92.78125 327.191406 93.136719 C 322.394531 94.734375 320 87.363281 315.734375 92.070313 C 313.339844 94.289063 314.492188 98.90625 310.765625 99.53125 C 308.453125 99.796875 306.414063 100.0625 304.191406 99.351563 C 304.015625 97.132813 305.4375 95.710938 304.636719 93.847656 C 304.636719 90.738281 303.304688 86.386719 300.816406 83.988281 C 298.953125 82.925781 296.644531 81.679688 294.601563 82.480469 C 293.542969 82.792969 293.105469 84.414063 294.640625 84.179688 C 295.785156 84.003906 296.238281 83.535156 297.621094 84.257813 C 302.949219 87.007813 303.480469 92.78125 302.683594 98.730469 C 299.308594 106.988281 290.429688 110.894531 282.4375 112.316406 C 276.664063 103.792969 268.761719 95.976563 258.371094 92.335938 C 257.128906 91.714844 257.839844 89.851563 256.863281 88.871094 C 255.617188 87.628906 254.285156 86.121094 257.304688 86.121094 C 259.96875 86.652344 262.011719 84.789063 263.523438 82.480469 C 266.007813 81.414063 262.8125 77.683594 266.273438 77.597656 C 271.601563 77.0625 277.730469 77.417969 281.371094 73.601563 C 280.75 72.089844 279.238281 73.777344 278.175781 72.890625 C 277.375 72.355469 276.042969 72.445313 275.597656 71.203125 C 277.464844 69.605469 280.925781 69.160156 281.191406 66.316406 C 280.660156 63.652344 276.664063 64.898438 276.042969 62.5 C 276.753906 59.480469 274 58.59375 272.222656 56.90625 C 267.960938 56.285156 274.53125 55.21875 272.046875 52.910156 C 269.472656 52.464844 266.984375 50.066406 264.320313 51.84375 C 262.1875 52.109375 260.769531 53.886719 258.550781 53.976563 C 257.21875 51.3125 259.347656 48.824219 259.257813 46.25 C 257.839844 45.09375 255.796875 46.78125 254.285156 46.515625 C 252.421875 49.621094 249.492188 50.777344 247.09375 53.53125 C 246.203125 53.351563 244.871094 54.0625 244.339844 52.910156 C 243.363281 51.3125 245.316406 49.890625 244.519531 48.203125 C 242.386719 47.046875 242.476563 50.335938 240.257813 49.089844 C 238.746094 45.359375 240.433594 42.519531 240.433594 38.433594 C 241.144531 37.367188 241.144531 35.59375 240.433594 34.527344 C 236.171875 34.4375 234.128906 46.960938 230.042969 38.433594 C 230.308594 35.058594 229.421875 31.152344 230.84375 28.578125 C 230.664063 27.867188 231.375 26.535156 230.222656 26.445313 C 229.246094 26.359375 229.859375 27.609375 228.976563 27.777344 C 226.757813 32.308594 226.757813 37.722656 223.207031 41.808594 C 222.851563 41.898438 222.761719 41.453125 222.316406 41.632813 C 221.695313 39.765625 219.921875 38.789063 219.386719 36.925781 C 218.675781 36.835938 218.054688 36.925781 217.699219 37.546875 C 217.789063 40.121094 221.695313 41.71875 220.632813 45.007813 C 220.363281 46.160156 219.652344 47.671875 218.765625 48.203125 C 217.878906 48.113281 216.8125 48.292969 216.8125 49.269531 C 217.789063 51.042969 217.789063 53.886719 216.8125 55.660156 C 216.101563 57.4375 214.238281 58.148438 212.105469 57.792969 C 210.0625 56.105469 207.753906 55.484375 207.046875 52.910156 C 206.335938 52.289063 205.535156 52.199219 204.914063 52.644531 C 205.179688 53.621094 206.15625 55.929688 204.914063 57.171875 C 204.289063 58.59375 203.492188 59.746094 201.894531 60.101563 C 201.273438 59.925781 200.917969 59.304688 200.207031 59.480469 C 199.585938 60.011719 199.675781 61.257813 198.695313 60.8125 C 198.34375 59.035156 196.386719 57.347656 197.453125 55.039063 Z M 269.648438 140.46875 C 260.148438 146.414063 249.847656 152.101563 241.941406 160.09375 C 239.367188 162.84375 236.4375 165.597656 233.683594 166.929688 C 233.0625 153.519531 233.171875 140.070313 244.804688 133.410156 C 247.199219 132.523438 247.539063 129.367188 248.601563 127.503906 C 249.71875 128.722656 246.855469 133.058594 247.910156 133.855469 C 250.160156 133.992188 249.378906 126.96875 251.390625 131.496094 C 256.1875 128.480469 260.589844 126.171875 266.007813 123.683594 C 266.1875 123.0625 267.164063 121.464844 267.339844 122.972656 C 269.417969 126.25 269.027344 133.628906 269.027344 135.40625 C 266.71875 136.824219 265.386719 138.335938 263.253906 139.84375 C 264.589844 142.507813 267.339844 139.222656 269.648438 140.46875 Z M 249.847656 117.644531 C 253.308594 110.984375 251.265625 125.015625 249.847656 125.105469 C 249.226563 122.351563 252.066406 119.6875 249.847656 117.644531 Z M 248.78125 97.222656 C 249.757813 100.417969 250.378906 104.589844 250.734375 108.496094 C 248.960938 108.765625 247.183594 108.144531 245.585938 107.433594 C 246.515625 105.011719 247.378906 97.589844 248.160156 95.976563 C 248.960938 95.710938 248.246094 96.867188 248.78125 97.222656 Z M 250.023438 96.597656 C 249.667969 95.710938 250.585938 96.203125 250.46875 95.265625 C 252.15625 96.597656 254.90625 98.199219 255.175781 100.417969 C 259.171875 103.4375 261.214844 107.164063 263.253906 111.519531 C 259.347656 111.695313 256.59375 109.5625 252.597656 109.386719 C 251.445313 105.214844 251.535156 100.417969 250.023438 96.597656 Z M 253.222656 95.265625 C 254.402344 94.121094 255.441406 94.644531 256.238281 93.578125 C 257.21875 94.734375 256.152344 95.976563 256.238281 97.222656 C 255.175781 97.398438 254.199219 96.15625 253.222656 95.265625 Z M 258.195313 94.644531 C 267.074219 97.574219 274.976563 104.058594 280.128906 112.316406 C 275.242188 113.558594 270.046875 111.628906 265.609375 111.804688 C 263.164063 107.109375 261.390625 103.703125 257.75 99.972656 C 257.21875 98.199219 258.636719 96.6875 258.195313 94.644531 Z M 266.945313 115.644531 C 269.128906 115.921875 270.320313 119.464844 270.410156 121.59375 C 270.230469 121.773438 269.839844 121.859375 269.664063 122.039063 C 268.421875 119.996094 268.1875 117.6875 266.945313 115.644531 Z M 280.75 114.09375 C 280.925781 114.09375 281.28125 114.105469 281.371094 114.371094 C 283.902344 118.011719 286.34375 122.882813 286.964844 126.878906 C 285.988281 128.566406 283.234375 127.589844 281.992188 128.746094 C 278.175781 129.898438 274.398438 132.476563 270.492188 133.894531 C 270.328125 130.773438 270.570313 126.261719 269.871094 123.695313 C 274.933594 122.628906 278.441406 118.089844 280.75 114.09375 Z M 229.15625 82.300781 C 228.710938 83.457031 227.203125 83.8125 226.226563 84.609375 C 223.472656 83.722656 224.449219 79.015625 220.632813 80.792969 C 220.003906 77.015625 228.796875 74.507813 233.863281 78.039063 C 233.597656 79.015625 233.152344 79.550781 232.175781 80.171875 C 230.488281 80.96875 228.621094 78.484375 227.914063 80.792969 C 227.914063 81.679688 228.535156 81.859375 229.15625 82.300781 Z M 228.535156 56.550781 C 227.085938 52.585938 226.046875 48.378906 227.289063 44.117188 C 228 44.382813 228.355469 45.449219 229.15625 46.070313 C 229.066406 49.621094 229.6875 53.191406 228.535156 56.550781 Z M 233.683594 48.023438 C 233.773438 46.871094 234.21875 45.09375 234.929688 45.007813 C 234.929688 46.515625 234.929688 48.023438 234.929688 49.445313 C 236.703125 51.664063 236.171875 55.574219 235.371094 57.972656 C 232.53125 56.285156 233.597656 50.777344 233.683594 48.023438 Z M 237.503906 75.730469 C 237.769531 75.820313 239.101563 76.972656 239.8125 77.417969 C 242.121094 76.886719 243.539063 74.933594 244.519531 73.15625 C 245.851563 74.933594 246.382813 77.417969 247.894531 79.28125 C 249.933594 80.527344 252.511719 82.125 255.351563 82.125 C 258.195313 81.238281 260.589844 80.96875 262.632813 78.660156 C 264.589844 79.992188 261.835938 80.792969 261.746094 82.300781 C 259.527344 85.054688 257.128906 84.34375 254.109375 84.257813 C 249.933594 83.457031 244.339844 80.613281 239.367188 79.992188 C 238.214844 79.550781 236.703125 79.816406 235.371094 79.726563 C 236.347656 78.304688 235.015625 76.351563 237.503906 75.730469 Z M 243.273438 62.5 C 242.742188 61.613281 242.476563 60.28125 242.832031 59.035156 C 243.984375 58.058594 244.519531 54.507813 247.269531 55.21875 C 250.558594 52.289063 253.574219 50.777344 256.238281 47.582031 C 256.59375 47.582031 256.949219 47.582031 257.304688 47.582031 C 257.128906 49.890625 255.886719 52.019531 256.683594 54.417969 C 257.660156 55.21875 258.28125 56.550781 259.613281 55.839844 C 262.457031 53.53125 266.453125 52.378906 270.09375 54.152344 C 269.472656 55.394531 266.539063 55.039063 267.519531 57.347656 C 268.585938 58.238281 269.914063 58.414063 271.335938 58.414063 C 276.308594 59.304688 272.933594 66.140625 278.441406 66.316406 C 278.972656 66.230469 279.351563 66.40625 279.261719 66.941406 C 276.777344 69.070313 273.554688 70.3125 270.269531 69.691406 C 266.894531 68.359375 265.828125 64.453125 263.253906 61.613281 C 260.679688 59.480469 256.949219 56.90625 252.867188 58.859375 C 248.246094 61.96875 243.808594 64.898438 242.386719 70.578125 C 241.855469 72.089844 240.964844 73.421875 239.632813 74.664063 C 238.125 75.109375 237.859375 73.953125 238.300781 72.890625 C 239.722656 70.3125 239.917969 67.761719 243.714844 65.875 C 244.167969 64.117188 243.820313 63.683594 243.273438 62.5 Z M 252.867188 73.601563 C 258.167969 75.851563 262.699219 69.054688 258.371094 62.945313 C 259.257813 62.765625 260.589844 63.566406 261.125 64.363281 C 262.742188 66.15625 264.410156 66.941406 265.386719 69.070313 C 264.410156 72.089844 263.34375 75.464844 260.503906 77.417969 C 258.460938 78.484375 256 79.0625 253.664063 78.484375 C 250.203125 77.417969 246.914063 74.488281 246.203125 70.757813 C 246.203125 68.003906 247.527344 66.140625 249.125 64.1875 C 248.261719 67.398438 249.515625 72.136719 252.867188 73.601563 Z M 251.535156 62.675781 C 253.664063 61.433594 257.21875 63.300781 255.796875 66.761719 C 255.707031 67.828125 254.464844 68.003906 253.664063 67.5625 C 252.15625 66.585938 251.535156 64.632813 251.535156 62.675781 Z M 264.6875 76.269531 C 267.113281 72.839844 265.976563 68.019531 269.101563 70.363281 C 269.503906 70.667969 273.734375 72.003906 274.976563 73.15625 C 275.777344 73.15625 276.339844 73.308594 276.929688 73.953125 C 271.042969 74.75 269.230469 75.484375 264.855469 76.667969 C 264.679688 76.699219 264.574219 76.433594 264.6875 76.269531 Z M 202.960938 97.84375 C 201.539063 96.867188 200.132813 94.828125 198.890625 93.410156 C 199.867188 91.722656 205.199219 89.628906 206.65625 89.851563 C 207.488281 89.761719 208.289063 89.894531 208.910156 90.648438 C 209.265625 90.648438 209.621094 90.648438 209.976563 90.648438 C 209.976563 90.828125 209.976563 91.003906 209.976563 91.269531 C 207.3125 93.402344 205.003906 95.355469 202.960938 97.84375 Z M 208.269531 101.535156 C 207.675781 101.785156 206.824219 101.820313 205.855469 101.164063 C 204.785156 100.375 203.492188 99.886719 204.023438 98.464844 C 205.996094 95.949219 208.820313 92.78125 212.726563 91.714844 C 214.035156 92.761719 214.425781 93.710938 213.90625 94.773438 C 213.722656 95.15625 209.316406 100.542969 208.269531 101.535156 Z M 210.242188 102.105469 C 211.660156 99.441406 213.792969 97.222656 216.367188 94.46875 C 217.699219 95.179688 218.765625 94.203125 219.832031 93.578125 C 220.363281 90.914063 216.722656 93.578125 215.304688 92.070313 C 213.171875 91.183594 216.8125 89.851563 214.679688 88.695313 C 213.171875 89.585938 211.308594 88.785156 209.53125 88.695313 C 208.464844 88.429688 208.996094 85.320313 207.222656 87.007813 C 207.3125 87.675781 207.046875 87.984375 206.644531 88.164063 C 205.371094 88.152344 200.675781 90.550781 198.519531 91.894531 C 197.988281 91.804688 197.808594 91.359375 197.632813 91.003906 C 196.921875 88.164063 196.121094 83.546875 198.253906 81.238281 C 199.496094 80.261719 200.917969 80.527344 202.070313 79.28125 C 201.714844 77.773438 200.207031 76.796875 199.140625 75.910156 C 197.898438 72.890625 196.742188 67.296875 199.320313 64.808594 C 199.941406 66.140625 201.449219 66.585938 202.960938 66.941406 C 204.113281 72.621094 205.003906 78.484375 211.308594 79.992188 C 211.839844 80.792969 209.265625 80.96875 208.289063 81.414063 C 205.980469 82.300781 203.847656 86.742188 200.828125 84.433594 C 200.472656 83.902344 199.40625 82.746094 198.695313 83.8125 C 197.988281 85.941406 200.382813 85.5 201.449219 86.566406 C 206.066406 87.539063 207.046875 82.214844 211.308594 82.125 C 212.371094 82.570313 213.703125 82.125 214.679688 81.679688 C 216.367188 81.59375 217.433594 84.609375 218.765625 82.300781 C 218.855469 81.148438 217.523438 80.792969 216.8125 80.347656 C 219.121094 78.484375 222.835938 74.480469 222.761719 71.167969 C 222.585938 66.816406 221.339844 62.765625 217.257813 61.167969 C 215.835938 60.011719 213.972656 60.035156 212.105469 60.746094 C 210.597656 62.257813 207.933594 63.742188 205.535156 64.363281 C 204.203125 63.921875 202.691406 63.566406 201.894531 62.234375 C 201.984375 61.699219 202.714844 61.675781 203.683594 61.613281 C 205.851563 60.734375 205.535156 58.238281 206.777344 56.726563 C 209.796875 58.503906 213.261719 61.257813 216.636719 58.679688 C 219.921875 60.28125 222.46875 63.15625 223 67.0625 C 224.152344 69.28125 223.789063 72.097656 223.308594 75.019531 C 222.507813 75.464844 221.71875 75.820313 221.277344 76.53125 C 221.453125 78.039063 216.746094 79.601563 219.765625 81.824219 C 220.492188 83.628906 222.230469 82.214844 222.761719 83.546875 C 223.828125 84.609375 225.160156 86.742188 227.023438 86.742188 C 227.824219 84.609375 231.019531 84.609375 231.285156 82.300781 C 234.21875 81.058594 238.65625 81.945313 242.210938 82.300781 C 247.269531 84.523438 254.285156 85.765625 256.0625 91.269531 C 254.640625 90.914063 252.953125 90.117188 251.535156 91.003906 C 251.355469 92.425781 253.042969 92.246094 253.488281 92.960938 C 252.6875 93.3125 251.621094 93.136719 250.734375 93.136719 C 248.960938 92.515625 249.492188 89.242188 247.269531 91.105469 C 246.117188 91.726563 247.804688 92.601563 246.648438 93.136719 C 245.585938 92.78125 247.03125 90.652344 245.40625 91.269531 C 244.339844 92.425781 245.585938 92.335938 245.140625 93.847656 C 243.1875 94.023438 240.789063 94.558594 240.078125 92.515625 C 239.367188 92.515625 238.480469 92.515625 238.570313 93.402344 C 238.480469 94.46875 239.8125 95.089844 240.433594 95.976563 C 242.566406 96.066406 244.695313 95.710938 246.472656 95.535156 C 245.9375 99.261719 245.476563 103.605469 244.074219 106.988281 C 238.125 106.101563 233.0625 102.015625 228.976563 98.730469 C 227.714844 96.929688 227.113281 91.894531 228.089844 88.074219 C 227.644531 87.628906 227.023438 87.539063 226.402344 87.808594 C 225.78125 90.117188 225.605469 93.3125 226.578125 95.535156 C 226.34375 97.128906 225.738281 97.589844 225.339844 97.84375 C 221.101563 102.359375 214.859375 103.96875 210.242188 102.105469 Z M 217.433594 72.710938 C 219.386719 70.578125 219.832031 68.09375 219.566406 65.253906 C 220.222656 65.625 220.898438 67.027344 220.898438 68.273438 C 221.074219 71.914063 221.074219 75.820313 216.988281 77.597656 C 214.679688 78.75 212.195313 77.417969 210.597656 76.085938 C 207.933594 73.6875 206.335938 70.9375 206.15625 66.941406 C 207.3125 66.496094 208.199219 65.339844 209.53125 65.429688 C 208.707031 69.820313 212.71875 76.640625 217.433594 72.710938 Z M 212.726563 62.945313 C 213.527344 61.613281 215.925781 61.699219 216.367188 63.121094 C 216.722656 65.164063 215.75 67.4375 214.679688 68.003906 C 213.882813 68.273438 213.261719 67.382813 213.171875 66.761719 C 212.640625 65.609375 212.726563 64.277344 212.726563 62.945313 Z M 216.8125 108.941406 C 216.191406 107.699219 216.101563 106.191406 216.191406 104.679688 C 218.707031 105.167969 220.671875 102.46875 222.566406 102.679688 C 225.890625 105.925781 228.976563 104.503906 231.109375 104.058594 C 231.582031 103.78125 232.097656 103.765625 232.625 103.910156 C 233.789063 105.664063 240.964844 108.410156 243.628906 109.121094 C 242.9375 112.863281 241.898438 116.3125 240.359375 119.527344 C 239.984375 120.3125 240.574219 121.019531 241.347656 119.984375 C 242.964844 117.585938 244.519531 112.105469 244.957031 109.449219 C 246.847656 110.238281 249.621094 109.742188 250.769531 110.808594 C 250.859375 111.484375 251.003906 112.203125 250.910156 113.648438 C 249.226563 116.492188 246.203125 118.179688 243.007813 119.421875 C 241.410156 119.777344 242.953125 122.566406 240.878906 121.953125 C 239.546875 123.640625 236.820313 130.585938 235.363281 132.175781 C 234.871094 132.605469 234.078125 132.105469 234.347656 131.460938 C 235.847656 127.890625 238.652344 123.269531 238.890625 120.84375 C 238.976563 119.15625 237.601563 120.101563 236.613281 120.21875 C 228.179688 122.351563 221.253906 115.070313 216.8125 108.941406 Z M 20.296875 370.195313 C 16.476563 370.636719 11.949219 373.300781 8.398438 370.460938 C 6.886719 372.058594 4.933594 370.105469 3.246094 369.839844 C 1.382813 367.972656 1.558594 364.957031 1.117188 362.378906 C 2.09375 359.980469 1.738281 356.875 3.070313 354.921875 C 3.78125 349.328125 7.507813 343.730469 11.773438 340.355469 C 11.859375 339.824219 11.773438 339.203125 11.148438 339.113281 C 7.777344 340.800781 6.007813 342.6875 2.800781 345.953125 C 3.691406 335.207031 10.261719 327.835938 16.921875 320.820313 C 17.988281 320.554688 19.054688 319.867188 19.675781 318.890625 C 18.699219 317.292969 17.097656 318.957031 15.589844 318.691406 C 18.519531 315.847656 22.425781 313.183594 26.511719 312.917969 C 28.109375 312.03125 29.710938 311.054688 31.839844 311.40625 C 37.703125 310.785156 36.8125 304.304688 41.875 302.882813 C 53.953125 302.085938 58.746094 289.03125 71.003906 289.03125 C 70.378906 290.628906 70.734375 291.515625 71.269531 293.113281 C 71.355469 293.203125 69.402344 293.648438 69.9375 294.359375 C 70.648438 295.867188 71.800781 294.179688 72.777344 294.980469 C 73.753906 295.511719 75.796875 295.335938 75.53125 297.109375 C 75.085938 298.53125 72.957031 298.710938 71.710938 299.507813 C 63.542969 300.929688 55.371094 303.238281 47.382813 305.636719 C 45.425781 305.636719 43.828125 306.703125 42.675781 308.65625 C 42.675781 309.722656 44.273438 309.988281 45.25 310.164063 C 49.601563 311.054688 54.929688 308.035156 58.660156 311.851563 C 58.660156 312.117188 58.660156 312.386719 58.660156 312.652344 C 50.222656 316.46875 40.632813 315.40625 32.640625 320.109375 C 32.285156 320.109375 32.019531 320.109375 31.574219 320.109375 C 28.199219 321.796875 26.421875 324.371094 23.9375 326.949219 C 23.492188 328.367188 24.648438 329.347656 25.625 329.703125 C 32.996094 329.703125 39.300781 330.410156 46.136719 331.65625 C 46.847656 332.011719 47.648438 332.808594 47.382813 333.785156 C 40.1875 337.691406 30.242188 336.359375 25.179688 344.265625 C 24.558594 346.574219 25.179688 348.617188 27.132813 349.949219 C 31.308594 352.167969 35.925781 351.011719 40.808594 351.457031 C 43.828125 351.191406 46.316406 352.789063 49.335938 352.96875 C 50.957031 354.480469 48.355469 355.007813 47.382813 355.542969 C 42.585938 358.117188 35.660156 358.292969 30.332031 360.25 C 26.246094 360.515625 22.160156 363 20.917969 366.640625 C 21.984375 367.796875 20.386719 368.953125 20.296875 370.195313 Z M 410.527344 144.523438 C 409.871094 143.550781 409.234375 142.554688 408.621094 141.53125 C 406.667969 139.757813 406.046875 137.890625 403.914063 135.761719 C 409.863281 137.980469 414.128906 141.265625 419.722656 144.285156 C 424.519531 148.191406 428.691406 151.390625 431.886719 156.449219 C 434.109375 155.742188 431.976563 153.164063 432.242188 151.390625 C 429.757813 146.949219 427.980469 141.265625 425.492188 136.648438 C 427.625 137.269531 429.488281 139.667969 431.886719 138.601563 C 434.109375 136.382813 431.976563 133.273438 432.507813 130.433594 C 436.148438 132.296875 439.347656 136.558594 442.898438 138.335938 C 444.765625 141.886719 446.894531 144.285156 448.492188 147.746094 C 449.027344 147.660156 449.824219 147.394531 449.558594 146.414063 C 448.316406 144.105469 449.292969 140.820313 448.492188 138.335938 C 449.027344 137.449219 450.09375 138.511719 450.625 138.78125 C 453.910156 143.132813 457.019531 147.480469 460.835938 151.566406 C 463.410156 156.183594 466.964844 159.382813 467.675781 164.796875 C 468.207031 165.597656 469.804688 166.394531 470.25 164.796875 C 470.871094 167.285156 472.46875 170.125 471.316406 172.703125 C 472.46875 174.300781 469.984375 174.035156 469.804688 175.1875 C 472.824219 179.804688 473.714844 186.199219 473.179688 191.882813 C 468.5625 195.347656 471.136719 203.070313 472.113281 207.867188 C 472.382813 212.128906 474.867188 216.035156 473.625 220.386719 C 474.246094 229.445313 474.421875 238.859375 473.445313 247.472656 C 472.382813 249.246094 469.984375 251.734375 471.671875 253.863281 C 470.78125 258.839844 473.445313 262.835938 472.382813 267.273438 C 472.558594 274.46875 471.847656 282.015625 473.003906 288.851563 C 472.558594 289.917969 473.359375 290.539063 472.734375 291.605469 C 471.316406 289.296875 469.539063 286.542969 469.984375 283.523438 C 469.273438 282.546875 469.804688 280.503906 468.738281 279.617188 C 468.386719 278.550781 468.296875 277.398438 467.40625 276.421875 C 465.542969 277.484375 468.996094 286.109375 468.109375 287.886719 C 468.648438 307.960938 475.960938 315.992188 475.671875 315.648438 C 477.535156 317.425781 476.914063 320.355469 478.867188 322.308594 C 480.113281 323.730469 481.265625 325.328125 482.6875 326.570313 C 479.667969 328.789063 479.929688 328.449219 476.910156 328.183594 C 475.757813 326.761719 474.425781 327.292969 474.160156 325.429688 C 473.894531 324.898438 473.449219 325.429688 473.269531 325.609375 C 472.117188 326.941406 473.628906 328.09375 473.449219 329.425781 C 476.378906 335.554688 481.574219 335.558594 484.417969 341.6875 C 484.683594 342.21875 487.5 345.058594 487.675781 345.855469 C 484.65625 346.035156 478.785156 347.378906 475.585938 346.9375 C 473.695313 349.324219 479.128906 352.453125 477.804688 353.101563 C 473.074219 355.421875 468.679688 350.179688 466.398438 346.296875 C 463.820313 347.898438 464.265625 351.273438 464.265625 353.757813 C 465.507813 354.644531 463.554688 355.179688 464.265625 356.332031 C 464.089844 358.109375 466.21875 359.175781 465.6875 360.773438 C 461.070313 362.195313 453.53125 355.230469 450.78125 352.566406 C 449.09375 353.011719 449.714844 354.875 450.160156 356.03125 C 449.269531 359.316406 452.289063 364.199219 448.472656 365.621094 C 438.171875 367.574219 427.691406 366.480469 419.523438 360.710938 C 417.300781 358.757813 414.816406 356.804688 413.75 354.316406 C 412.683594 353.785156 412.0625 355.203125 412.683594 356.09375 C 413.75 357.246094 413.21875 359.113281 413.75 360.53125 C 414.992188 362.21875 421.636719 365.019531 419.945313 368.039063 C 419.414063 369.636719 414.460938 368.613281 412.863281 369.058594 C 406.378906 368.613281 397.414063 364.480469 392.886719 360.21875 C 392.617188 360.308594 392.175781 360.042969 391.996094 360.484375 C 393.152344 363.0625 395.550781 365.101563 395.195313 368.300781 C 393.152344 371.851563 388.535156 372.296875 384.980469 371.941406 C 382.230469 370.164063 379.296875 372.828125 376.902344 370.433594 C 374.679688 368.65625 373.082031 367.679688 371.128906 365.8125 C 370.597656 365.8125 370.152344 365.992188 369.886719 366.4375 C 370.597656 368.832031 372.550781 371.140625 373.4375 373.628906 C 374.324219 375.9375 372.105469 375.671875 371.128906 376.824219 C 365.621094 378.957031 356.316406 372.414063 350.902344 370.460938 C 349.390625 369.128906 347.4375 367.53125 346.640625 365.933594 C 343.976563 367.175781 347.351563 368.597656 345.308594 370.460938 C 341.398438 374.457031 339.003906 381.027344 332.34375 381.117188 C 331.808594 381.292969 332.34375 381.828125 331.898438 381.917969 C 323.019531 381.738281 313.429688 383.160156 304.371094 383.25 C 301.085938 382.359375 297.886719 381.382813 294.15625 381.292969 C 289.097656 382.625 281.636719 385.46875 276.664063 381.292969 C 267.871094 381.292969 259.792969 384.582031 250.910156 384.492188 C 250.023438 384.757813 250.023438 384.136719 250.023438 383.425781 C 251.890625 379.605469 257.128906 380.585938 259.613281 377.652344 C 260.148438 376.589844 258.816406 376.144531 258.550781 375.34375 C 252.332031 379.074219 245.230469 382.625 237.058594 383.425781 C 234.039063 383.515625 231.375 383.78125 228.355469 384.3125 C 220.097656 385.203125 211.128906 387.953125 202.515625 386 C 198.519531 386.445313 193.722656 386.179688 189.726563 385.378906 C 188.039063 384.136719 190.085938 382.625 191.058594 381.917969 C 192.390625 381.917969 194.257813 382.183594 194.613281 380.851563 C 194.613281 380.140625 193.992188 379.519531 193.367188 379.785156 C 190.261719 379.695313 186.886719 380.226563 184.222656 378.984375 C 180.050781 380.226563 176.851563 383.25 172.5 384.492188 C 168.683594 384.667969 162.554688 385.734375 160.15625 381.117188 C 151.632813 381.738281 141.953125 383.691406 133.695313 381.117188 C 133.160156 380.316406 133.339844 379.605469 133.871094 378.71875 C 134.9375 377.386719 136.179688 379.785156 136.003906 377.476563 C 138.84375 375.699219 142.398438 375.789063 145.238281 374.101563 C 147.191406 374.722656 150.121094 373.300781 150.746094 371.082031 C 150.65625 369.394531 149.503906 368.242188 148.171875 367.707031 C 144.707031 366.285156 141.332031 368.597656 137.511719 367.265625 C 133.605469 366.554688 129.699219 367.707031 125.792969 366.996094 C 127.214844 365.132813 130.765625 365.488281 132.1875 363.621094 C 131.652344 362.113281 129.253906 363 127.921875 362.113281 C 124.371094 361.3125 121.351563 359.273438 117.265625 359.804688 C 112.292969 358.828125 107.589844 355.632813 101.726563 355.984375 C 100.839844 355.632813 100.484375 354.742188 100.660156 353.855469 C 102.347656 352.613281 104.390625 352.433594 105.988281 351.011719 C 107.765625 350.214844 109.808594 350.035156 111.761719 349.59375 C 110.871094 347.640625 108.5625 347.195313 106.878906 345.953125 C 99.417969 343.199219 90.359375 344.351563 82.988281 341.6875 C 81.570313 341.15625 80.324219 339.46875 81.480469 338.046875 C 88.761719 331.210938 98.53125 337.160156 106.433594 332.898438 C 106.257813 330.945313 103.945313 332.011719 103.234375 330.765625 C 95.953125 326.148438 88.050781 321.886719 79.527344 319.753906 C 78.90625 319.488281 78.90625 317.980469 79.527344 317.625 C 81.300781 315.492188 84.5 315.582031 86.808594 315.046875 C 93.910156 314.78125 100.75 317.179688 107.941406 316.914063 C 109.808594 315.847656 107.941406 313.539063 107.941406 312.296875 C 104.214844 307.324219 97.019531 306.433594 91.957031 302.4375 C 89.117188 302.351563 86.808594 300.929688 83.789063 301.195313 C 83.789063 300.574219 84.5 300.839844 84.675781 300.308594 C 91.25 299.242188 99.417969 299.507813 105.988281 301.195313 C 107.144531 302.527344 109.628906 301.195313 111.140625 302.261719 C 113.625 303.148438 116.46875 302.707031 118.597656 301.640625 C 119.042969 299.777344 117.800781 298.355469 116.644531 297.378906 C 112.648438 296.402344 108.121094 296.046875 105.367188 293.113281 C 101.015625 292.050781 96.84375 292.582031 92.3125 291.78125 C 97.109375 288.320313 104.300781 288.230469 110.695313 287.519531 C 122.152344 288.054688 132.984375 289.742188 142.664063 295.246094 C 149.855469 298.089844 157.050781 301.460938 165.042969 303.503906 C 175.074219 304.039063 187.953125 308.742188 196.386719 302.4375 C 196.476563 301.375 198.875 299.863281 196.742188 299.066406 C 195.410156 298.265625 193.902344 298 192.480469 297.378906 C 191.238281 297.378906 189.816406 298.175781 188.664063 297.378906 C 187.152344 297.910156 185.289063 296.757813 183.335938 297.109375 C 176.851563 295.957031 170.992188 299.597656 165.042969 296.488281 C 165.128906 295.421875 166.640625 293.914063 167.972656 293.46875 C 171.167969 292.671875 174.632813 294.179688 177.386719 293.113281 C 176.941406 292.140625 175.609375 292.316406 174.632813 292.050781 C 171.878906 291.429688 169.835938 292.316406 166.90625 292.050781 C 165.574219 294.09375 163.175781 294.269531 162.910156 296.667969 C 170.101563 301.730469 179.070313 296.84375 187.421875 299.242188 C 189.996094 298.710938 192.214844 299.417969 195.054688 299.507813 C 196.476563 300.753906 194.257813 301.019531 194.257813 302.261719 C 185.023438 306.703125 174.722656 302.085938 164.152344 301.996094 C 161.757813 300.574219 158.027344 300.664063 155.894531 298.621094 C 149.503906 297.109375 143.375 293.824219 137.511719 290.984375 C 123.75 286.101563 106.078125 283.523438 92.136719 289.917969 C 91.160156 291.074219 89.917969 291.605469 89.5625 292.847656 C 95.6875 294.003906 104.300781 291.871094 109.007813 297.109375 C 111.316406 299.066406 116.824219 296.488281 116.824219 300.753906 C 106.609375 301.730469 97.199219 296.3125 86.632813 298.796875 C 83.878906 298 82.988281 300.574219 81.035156 301.195313 C 81.480469 303.238281 84.589844 301.550781 85.917969 302.707031 C 93.289063 302.4375 97.109375 308.390625 103.414063 310.164063 C 105.277344 311.585938 106.699219 312.917969 106.878906 315.226563 C 98.441406 315.226563 88.40625 311.585938 80.238281 315.046875 C 78.90625 316.027344 77.574219 317.800781 77.660156 319.753906 C 77.929688 320.023438 78.371094 320.378906 78.460938 320.820313 C 87.519531 323.308594 96.042969 327.035156 103.234375 332.71875 C 95.421875 335.296875 83.257813 329.257813 79.527344 339.558594 C 81.65625 344.796875 88.496094 344.53125 93.203125 344.621094 C 98.085938 345.597656 104.035156 345.152344 108.296875 348.261719 C 105.546875 350.65625 98.351563 350.65625 99.152344 355.984375 C 101.816406 358.382813 106.34375 357.316406 109.628906 358.738281 C 115.492188 361.3125 122.417969 361.3125 128.367188 363.621094 C 126.324219 364.421875 123.75 366.019531 123.660156 368.328125 C 128.8125 368.597656 134.9375 368.152344 140.089844 368.773438 C 142.398438 369.75 146.480469 367.53125 148.613281 369.839844 C 149.855469 373.570313 144.972656 371.527344 143.285156 373.035156 C 141.597656 373.300781 140.800781 376.230469 138.84375 374.457031 C 135.558594 374.367188 132.1875 375.34375 129.253906 376.589844 C 116.734375 378.808594 98.277344 381.832031 92.582031 377.476563 C 88.050781 375.699219 82.636719 375.964844 78.90625 372.769531 C 78.550781 373.035156 77.929688 373.035156 77.839844 373.65625 C 78.460938 374.191406 78.460938 376.054688 77.839844 376.589844 C 69.492188 379.164063 61.945313 373.570313 54.664063 371.261719 C 50.488281 374.546875 45.515625 372.949219 40.367188 374.277344 C 35.394531 373.921875 30.6875 373.65625 26.246094 371.261719 C 25.179688 370.90625 23.847656 370.636719 23.050781 369.394531 C 23.671875 367.796875 21.984375 366.910156 22.871094 365.578125 C 28.644531 359.980469 38.765625 361.046875 45.871094 357.671875 C 48.003906 356.964844 50.398438 355.808594 51.644531 354.03125 C 50.753906 349.59375 46.492188 352.167969 43.296875 349.949219 C 37.167969 349.058594 30.6875 352.433594 26.511719 346.75 C 25.890625 343.730469 28.023438 343.199219 29.710938 341.421875 C 35.480469 338.402344 42.496094 337.605469 48.445313 334.40625 C 49.246094 333.875 48.714844 332.898438 48.890625 332.097656 C 45.605469 327.660156 39.121094 330.945313 35.039063 328.457031 C 31.484375 327.925781 28.554688 329.613281 25.445313 327.835938 C 27.578125 322.863281 33.972656 320.910156 38.855469 319.042969 C 41.429688 318.421875 44.007813 317.800781 46.492188 317.179688 C 46.671875 317.359375 46.757813 317.445313 46.9375 317.625 C 51.730469 316.292969 57.148438 316.292969 60.613281 312.472656 C 58.480469 304.835938 49.15625 311.230469 44.628906 308.390625 C 45.339844 308.035156 45.515625 307.5 46.316406 307.144531 C 56.261719 304.570313 66.382813 302.171875 76.152344 299.242188 C 77.304688 298.53125 76.597656 296.3125 76.773438 295.246094 C 75.265625 293.648438 71.890625 294.269531 72.332031 290.984375 C 72.066406 288.675781 74.644531 288.941406 75.707031 287.519531 C 83.789063 285.566406 91.871094 284.679688 99.152344 282.015625 C 99.152344 280.503906 97.019531 280.949219 96.578125 279.617188 C 104.035156 277.753906 111.671875 279.882813 118.953125 277.753906 C 129.609375 278.90625 140.621094 281.75 150.746094 285.390625 C 152.078125 284.945313 151.722656 283.523438 151.808594 282.460938 C 149.769531 282.191406 148.703125 280.0625 147.105469 279.441406 C 149.503906 277.574219 151.988281 280.148438 154.386719 280.503906 C 162.910156 286.277344 173.476563 292.9375 184.664063 289.03125 C 189.195313 287.519531 193.722656 282.8125 197.632813 279.441406 C 204.914063 273.667969 210.863281 265.496094 221.519531 265.144531 C 221.519531 265.410156 221.519531 265.585938 221.519531 265.765625 C 216.636719 271.09375 209.53125 276.332031 204.023438 280.683594 C 202.605469 283.171875 205.535156 283.082031 206.777344 283.878906 C 222.140625 282.105469 233.949219 270.117188 245.140625 262.214844 C 245.761719 260.613281 248.425781 259.636719 246.828125 257.949219 C 240.878906 265.144531 233.597656 268.339844 226.402344 274.554688 C 219.921875 278.550781 213.527344 281.925781 205.714844 282.015625 C 205.179688 281.394531 205.890625 280.859375 206.15625 280.503906 C 212.105469 275.976563 219.300781 270.824219 223.828125 265.144531 C 223.5625 264.699219 223.648438 264.078125 223.027344 263.632813 C 220.363281 263.101563 219.210938 264.699219 216.8125 264.699219 C 207.664063 266.742188 202.515625 272.070313 195.5 277.308594 C 195.144531 277.484375 195.324219 277.042969 195.324219 276.863281 C 196.566406 273.667969 196.921875 269.9375 198.695313 267.097656 C 197.808594 265.496094 199.851563 264.609375 199.761719 263.011719 C 204.734375 254.042969 207.222656 243.742188 213.617188 235.75 C 215.570313 233.265625 217.96875 231.488281 218.5 228.289063 C 215.835938 225.804688 219.832031 223.671875 221.074219 221.71875 C 223.207031 220.121094 225.78125 217.988281 228.710938 218.523438 C 227.378906 220.832031 225.515625 222.875 224.894531 225.714844 C 227.289063 225.449219 225.691406 227.847656 225.515625 228.734375 C 225.515625 228.910156 225.515625 229.269531 225.78125 229.355469 C 226.847656 229.179688 226.9375 227.492188 227.46875 226.78125 C 237.859375 217.011719 251.445313 211.417969 264.144531 206.089844 C 266.984375 206.003906 269.648438 203.871094 272.402344 204.671875 C 272.402344 204.847656 272.402344 205.023438 272.402344 205.289063 C 264.320313 212.660156 253.132813 215.679688 246.828125 224.472656 C 246.382813 224.738281 247.269531 225.09375 247.269531 225.539063 C 251 222.964844 254.019531 219.589844 257.75 217.457031 C 271.867188 207.6875 285.898438 201.472656 300.550781 192.238281 C 307.566406 190.019531 313.160156 185.398438 318.933594 180.515625 C 319.464844 179.628906 319.289063 178.652344 318.667969 177.761719 C 316.09375 175.097656 312.273438 176.609375 308.898438 176.519531 C 297.976563 179.09375 286.078125 180.691406 276.042969 186.109375 C 270.09375 189.308594 263.699219 191.617188 256.863281 192.683594 C 255.707031 192.238281 256.417969 191.082031 256.863281 190.550781 C 261.65625 187.53125 265.210938 183.625 270.980469 182.46875 C 280.304688 178.472656 289.71875 176.699219 299.308594 173.324219 C 308.367188 170.835938 317.601563 168.171875 325.949219 164.355469 C 327.546875 163.644531 328.96875 161.777344 328.078125 159.914063 C 325.238281 157.339844 320.089844 158.316406 316.800781 159.027344 C 323.996094 153.519531 333.941406 155.472656 341.933594 151.121094 C 344.0625 149.878906 346.726563 148.726563 348.769531 146.414063 C 348.769531 144.730469 347.261719 144.730469 346.195313 143.929688 C 339.179688 141.53125 332.34375 145.171875 326.570313 147.746094 C 326.394531 148.902344 327.992188 148.191406 328.257813 148.371094 C 334.117188 146.328125 340.867188 141.886719 346.996094 146.238281 C 337.757813 154.320313 322.394531 151.832031 313.160156 159.914063 C 312.984375 160.445313 313.339844 161.246094 313.960938 161.15625 C 317.867188 160.09375 323.550781 158.316406 326.746094 161.15625 C 324.351563 164.710938 318.933594 165.773438 314.671875 167.105469 C 308.808594 169.503906 302.503906 171.015625 296.554688 172.433594 C 291.582031 174.210938 286.609375 175.722656 281.636719 177.320313 C 272.402344 179.71875 263.078125 183.089844 256.0625 189.308594 C 255.261719 190.816406 252.597656 193.304688 255.796875 194.191406 C 271.78125 192.238281 283.589844 181.316406 299.929688 179.71875 C 305.078125 178.296875 310.410156 177.054688 316.09375 177.761719 C 317.246094 178.207031 317.691406 179.539063 317.15625 180.515625 C 305.703125 189.574219 292.472656 194.367188 280.75 202.09375 C 278.351563 203.425781 276.488281 204.226563 273.910156 205.734375 C 274.179688 204.9375 274.53125 203.160156 273.113281 203.160156 C 268.40625 202.539063 264.496094 204.757813 260.503906 206.355469 C 251.535156 209.996094 242.296875 214.082031 234.484375 219.765625 C 231.554688 220.742188 229.421875 223.40625 227.023438 225.09375 C 226.578125 224.117188 227.558594 222.875 228.355469 222.339844 C 228.890625 220.832031 230.933594 219.320313 230.222656 217.457031 C 227.203125 215.859375 223.648438 218.078125 220.898438 219.765625 C 219.921875 220.742188 219.121094 222.429688 217.699219 222.964844 C 216.011719 220.386719 219.742188 219.144531 219.386719 216.390625 C 219.921875 215.058594 221.164063 213.726563 220.453125 212.128906 C 220.632813 209.199219 221.785156 206.179688 221.253906 203.605469 C 219.386719 203.339844 218.675781 205.023438 217.433594 205.914063 C 219.03125 198.1875 223.382813 190.371094 225.960938 182.46875 C 227.644531 179.71875 228.445313 176.253906 231.109375 173.765625 C 231.375 172.078125 232.972656 171.015625 233.863281 169.683594 C 242.832031 161.511719 251.535156 152.277344 263.078125 146.683594 C 266.273438 144.375 269.558594 142.507813 272.402344 140.289063 C 272.757813 138.601563 270.804688 139.667969 270.269531 138.78125 C 269.472656 139.222656 268.140625 138.691406 267.339844 139.222656 C 268.140625 137.09375 270.980469 136.027344 272.847656 134.515625 C 277.640625 132.296875 282.523438 129.367188 287.320313 128.566406 C 288.742188 131.144531 288.476563 134.871094 289.71875 137.09375 C 291.9375 135.140625 289.007813 128.835938 289.097656 127.945313 C 292.027344 126.523438 295.84375 127.144531 298.863281 125.816406 C 307.210938 124.75 316.003906 125.546875 323.816406 122.617188 C 330.921875 121.640625 337.847656 118.800781 344.507813 115.957031 C 351.789063 113.117188 361.023438 111.960938 365.554688 104.503906 C 365.109375 104.234375 364.84375 103.527344 364.042969 103.792969 C 357.828125 111.960938 346.90625 112.582031 338.292969 117.023438 C 330.476563 120.84375 321.863281 120.574219 313.605469 123.238281 C 309.34375 123.417969 305.703125 123.773438 301.617188 123.683594 C 297.886719 125.816406 292.625 124.660156 288.628906 126.4375 C 288.074219 124.414063 285.703125 118.390625 283.324219 114.09375 C 290.785156 112.496094 298.777344 108.765625 302.949219 102.105469 C 305.078125 100.152344 308.101563 101.660156 310.585938 101.484375 C 312.273438 99.886719 314.40625 101.128906 315.027344 98.285156 C 314.9375 96.15625 315.824219 94.824219 316.980469 93.402344 C 318.398438 92.425781 320.265625 92.425781 321.6875 93.402344 C 323.816406 94.644531 326.746094 95.621094 329.144531 94.203125 C 332.785156 89.671875 327.902344 84.609375 326.746094 79.992188 C 325.148438 78.394531 323.730469 77.152344 324.617188 74.84375 C 328.613281 74.488281 332.253906 75.285156 335.09375 76.972656 C 336.339844 73.777344 332.964844 72.089844 331.898438 69.691406 C 329.679688 68.09375 328.804688 65.851563 324.882813 64.1875 C 327.8125 63.652344 330.390625 66.230469 333.585938 65.875 C 335.984375 66.316406 336.960938 68.183594 338.734375 69.691406 C 339.386719 69.667969 339.714844 69.425781 339.800781 68.894531 C 339.445313 67.5625 338.46875 66.941406 337.847656 65.875 C 333.941406 59.65625 329.058594 54.597656 322.484375 50.957031 C 320.265625 48.292969 316.714844 45.628906 315.46875 41.988281 C 312.984375 40.300781 313.429688 36.925781 311.828125 34.527344 C 310.496094 28.046875 308.808594 21.117188 306.5 14.726563 C 313.78125 18.011719 319.109375 25.558594 322.484375 32.039063 C 323.90625 33.816406 326.480469 33.726563 328.523438 34.527344 C 337.9375 39.324219 349.214844 45.539063 350.636719 56.90625 C 351.699219 58.058594 350.988281 60.28125 351.523438 61.878906 C 352.234375 69.160156 356.167969 46.371094 375.410156 78.039063 C 385 86.742188 397.253906 90.738281 408.800781 95.535156 C 409.953125 96.511719 411.640625 96.953125 413.0625 97.664063 C 425.9375 105.035156 439.703125 112.851563 447.871094 124.925781 C 448.226563 126.703125 449.824219 127.769531 450.800781 129.1875 C 455.773438 137.09375 461.546875 144.996094 464.65625 153.519531 C 464.65625 153.699219 464.390625 153.757813 464.152344 153.941406 C 459.492188 147.195313 455.863281 142.152344 450.179688 136.472656 C 449.292969 136.382813 448.671875 135.761719 447.605469 136.027344 C 447.851563 138.324219 446.484375 139.390625 447.410156 141.644531 C 447.425781 142.457031 446.902344 142.097656 446.671875 141.886719 C 444.65625 140.046875 444.097656 135.890625 440.589844 134.695313 C 438.992188 132.03125 434.996094 131.496094 433.753906 128.746094 C 431 126.878906 429.046875 124.925781 428.425781 122.175781 C 427.890625 121.640625 427.269531 121.375 426.558594 121.550781 C 425.582031 123.328125 427.625 125.191406 428.425781 126.613281 C 432.507813 127.855469 431.089844 132.828125 431.445313 136.472656 C 431.175781 137.269531 430.289063 137.179688 429.757813 136.824219 C 427.625 135.847656 425.449219 134.585938 423.585938 132.996094 C 421.71875 131.410156 419.433594 131.476563 422.417969 134.28125 C 423.9375 135.710938 425.132813 137.421875 425.671875 139.667969 C 426.738281 144.105469 429.414063 147.746094 431.101563 152.1875 C 430.921875 152.722656 430.644531 152.011719 430.378906 152.1875 C 422.652344 143.664063 412.351563 137.269531 402.050781 133.628906 C 401.074219 133.363281 400.453125 131.496094 399.210938 132.828125 C 403 136.730469 406.417969 140.824219 409.613281 145.070313 C 414.203125 151.171875 414.539063 150.464844 410.527344 144.523438 "/>
</g>
</svg>
