<?xml version="1.0" encoding="UTF-8"?>
<svg xmlns="http://www.w3.org/2000/svg" xmlns:xlink="http://www.w3.org/1999/xlink" width="527pt" height="405pt" viewBox="0 0 527 405" version="1.1">
<g id="surface1">
<path style=" stroke:none;fill-rule:nonzero;fill:rgb(0%,0%,0%);fill-opacity:1;" d="M 524.476563 108.570313 C 518.003906 103.480469 466.230469 76.742188 449.152344 64.542969 C 449.152344 60.617188 454.136719 57.859375 453.714844 53.828125 C 450.097656 48.941406 419.863281 50 406.078125 39.507813 C 396.214844 28.472656 394.089844 14.257813 390.378906 0.570313 C 390.378906 0.570313 384.855469 -6.226563 375.101563 35.6875 C 368.101563 25.925781 367.464844 12.558594 360.035156 3.117188 C 347.722656 2.789063 358.859375 40.453125 342.957031 48.417969 C 327.566406 58.488281 268.683594 164.046875 247.792969 167.875 C 243.125 170.527344 235.265625 168.289063 223.074219 171.90625 C 215.328125 174.242188 206.101563 173.816406 198.144531 174.769531 C 184.246094 174.027344 142.96875 176.246094 128.125 170.210938 C 124.835938 167.769531 120.378906 167.238281 118.894531 162.78125 C 117.410156 152.066406 116.445313 77.585938 124.519531 61.679688 C 85.148438 63.792969 81.761719 144.535156 74.867188 172.226563 C 73.382813 181.347656 65.523438 220.273438 43.253906 223.148438 C 33.28125 228.984375 28.71875 240.441406 27.234375 251.898438 C 25.738281 263.242188 14.070313 267.484375 14.820313 272.054688 C 12.0625 280.117188 12.476563 314.164063 3.789063 323.402344 C 2.515625 327.222656 1.769531 331.039063 5.0625 333.90625 C 9.296875 341.21875 -6.617188 352.886719 4.105469 361.382813 C 4 363.824219 1.347656 365.414063 1.558594 367.960938 C 1.664063 370.824219 4.742188 371.355469 5.910156 373.582031 C 7.925781 377.085938 2.9375 378.144531 4.105469 381.753906 C 4.105469 384.40625 6.757813 384.722656 8.457031 385.570313 C 7.183594 387.90625 11 389.074219 8.667969 391.195313 C 8.242188 393.316406 9.09375 396.179688 11 397.242188 C 13.230469 397.453125 35.933594 400.210938 44.84375 398.300781 C 50.679688 400.847656 57.363281 398.300781 61.605469 395.011719 C 62.03125 393.738281 64.257813 391.511719 61.605469 390.875 C 63.726563 387.054688 61.394531 382.917969 59.058594 380.265625 C 53.648438 381.328125 57.894531 375.28125 53.753906 374.113281 C 55.984375 366.15625 64.894531 366.050781 69.5625 360.640625 C 70.199219 361.59375 69.765625 367.738281 76.140625 367.960938 C 79.746094 368.492188 79.746094 371.671875 79.21875 374.855469 C 79.535156 379.3125 86.007813 378.039063 85.582031 381.964844 C 87.800781 392.140625 127.585938 384.714844 125.789063 376.660156 C 125.261719 373.476563 126.214844 369.871094 123.03125 368.492188 C 121.335938 367.535156 123.136719 366.15625 123.246094 364.988281 C 123.03125 363.503906 122.078125 363.824219 121.230469 363.929688 C 120.804688 362.972656 143.5 347.050781 152.3125 328.496094 C 152.3125 328.496094 163.125 327.957031 176.925781 349.714844 C 183.289063 357.988281 192.734375 364.671875 204.722656 364.671875 C 208.222656 361.277344 210.980469 366.792969 214.375 367.746094 L 223.816406 368.492188 C 228.167969 365.414063 230.183594 371.25 233.789063 371.78125 C 237.398438 376.449219 244.078125 372.203125 248.21875 375.386719 L 249.808594 373.371094 C 251.402344 376.128906 264.132813 380.691406 266.890625 380.691406 C 271.027344 382.070313 267.207031 387.480469 269.117188 390.132813 C 270.390625 392.785156 277.816406 396.285156 279.621094 395.96875 C 285.242188 390.558594 286.835938 400.742188 292.777344 399.042969 C 297.328125 409.113281 311.871094 400.636719 315.265625 402.332031 C 317.496094 402.96875 324.382813 406.460938 332.242188 401.589844 C 336.589844 400.105469 338.714844 404.03125 342.214844 404.667969 C 346.140625 404.242188 351.339844 404.984375 353.140625 401.0625 C 355.367188 397.878906 359.082031 398.832031 362.582031 398.300781 C 363.539063 396.285156 366.191406 396.285156 365.871094 393.421875 C 370.964844 391.195313 390.6875 391.078125 384.96875 368.808594 C 384.648438 366.582031 382.421875 365.097656 383.164063 362.445313 C 384.324219 302.496094 400.234375 305.148438 389.53125 290.304688 C 386.027344 284.679688 390.484375 279.164063 391.652344 273.753906 C 389 257.203125 383.792969 167.230469 402.261719 153.128906 C 402.898438 151.644531 408.722656 143.890625 418.597656 145.488281 C 422.734375 144.429688 423.160156 151.21875 427.296875 148.035156 C 438.429688 149.195313 438.4375 169.574219 442.574219 170.632813 C 443.210938 172.542969 447.453125 172.859375 445.863281 175.726563 C 447.03125 176.679688 446.394531 179.332031 448.410156 179.121094 C 451.910156 180.816406 452.757813 184.53125 454.773438 187.714844 C 455.304688 188.773438 457.109375 187.820313 458.0625 188.457031 C 460.1875 191.214844 462.730469 194.289063 466.230469 195.351563 C 466.761719 198.324219 468.992188 200.128906 471.324219 201.503906 C 472.28125 202.671875 471.324219 204.6875 473.128906 205.324219 L 476.949219 202.035156 C 479.070313 203.414063 479.175781 200.65625 480.449219 199.488281 C 489.359375 194.289063 505.699219 164.054688 506.972656 157.160156 C 511.851563 150.476563 513.65625 142.09375 518.109375 134.988281 C 518.851563 133.289063 518.109375 129.578125 520.976563 129.152344 C 523.203125 122.785156 530.945313 115.46875 524.476563 108.570313 Z M 17.789063 343.773438 C 19.0625 347.167969 12.167969 357.03125 12.488281 360.109375 C 8.667969 355.972656 14.925781 350.347656 15.777344 345.363281 C 4.390625 327.957031 26.703125 313.75 26.703125 313.75 C 11.019531 330.210938 14.820313 340.058594 17.789063 343.773438 Z M 53.011719 339.742188 C 57.574219 333.375 63.515625 328.175781 69.246094 323.71875 C 65.636719 330.722656 57.894531 334.222656 53.011719 339.742188 Z M 73.382813 315.765625 L 72.535156 306.851563 C 74.019531 309.292969 74.230469 312.367188 73.382813 315.765625 Z M 76.351563 347.378906 C 76.882813 339.847656 82.292969 332.84375 87.808594 328.496094 C 84.945313 333.269531 76.351563 347.378906 76.351563 347.378906 Z M 93.222656 324.464844 C 100.648438 320.644531 112.105469 302.820313 113.273438 302.289063 C 114.332031 308.761719 98.101563 324.675781 93.222656 324.464844 Z M 220.742188 349.394531 C 218.832031 343.347656 214.375 336.664063 207.796875 334.4375 C 206.949219 332.949219 206.207031 330.40625 206.523438 329.554688 C 213.210938 334.011719 226.789063 337.40625 220.742188 349.394531 Z M 249.066406 364.988281 C 250.121094 353.59375 224.65625 344.929688 225.621094 331.570313 C 233.320313 349.703125 254.539063 353.242188 249.066406 364.988281 Z M 277.074219 348.441406 C 264.441406 368.09375 266.039063 372.628906 266.039063 372.628906 C 255.953125 364.734375 284.066406 350.941406 272.40625 333.164063 L 273.679688 332.3125 C 277.5 336.238281 279.726563 342.816406 277.074219 348.441406 Z M 329.695313 378.464844 L 325.875 380.265625 C 330.746094 369.15625 304.402344 356.246094 324.921875 346.105469 C 324.921875 346.105469 319.511719 353.851563 320.785156 359.046875 C 321.84375 367.003906 332.769531 369.234375 329.695313 378.464844 Z M 363.855469 382.28125 C 362.371094 385.039063 361.734375 388.222656 360.566406 390.875 C 362.371094 372.628906 361.839844 351.621094 364.917969 332.84375 L 365.660156 333.90625 C 365.554688 349.820313 362.6875 366.898438 363.855469 382.28125 Z M 365.128906 327.539063 C 365.339844 326.480469 364.703125 324.144531 365.660156 322.976563 C 365.023438 324.039063 367.464844 326.265625 365.128906 327.539063 Z M 366.191406 287.757813 L 363.855469 282.453125 C 363.105469 271.199219 337.113281 271.730469 344.015625 256.777344 L 345.503906 263.355469 C 352.851563 272.257813 370.644531 272.160156 366.191406 287.757813 Z M 426.765625 75.152344 C 426.34375 73.453125 428.359375 74.410156 428.996094 73.453125 C 430.691406 73.136719 430.054688 75.683594 430.585938 76.742188 C 428.890625 77.378906 428.039063 75.683594 426.765625 75.152344 Z M 437.90625 85.65625 C 436.210938 85.550781 436.632813 83.640625 435.890625 82.578125 C 440.285156 82.359375 439.710938 69.316406 435.359375 66.769531 C 428.996094 67.9375 424.539063 72.289063 417.535156 70.589844 C 422.949219 67.832031 430.054688 68.152344 435.148438 64.226563 C 437.898438 66.445313 443.46875 70.953125 437.90625 85.65625 Z M 457.851563 139.335938 C 455.519531 140.398438 454.457031 142.730469 453.183594 144.746094 C 448.089844 149.203125 448.621094 155.886719 446.394531 162.039063 C 444.265625 146.277344 458.59375 136.261719 459.335938 134.03125 C 460.289063 135.835938 458.804688 137.746094 457.851563 139.335938 Z M 483.523438 150.050781 C 471.847656 160.601563 467.929688 168.722656 468.035156 181.667969 C 462.5625 166.171875 480.128906 150.050781 484.585938 144.960938 Z M 522.777344 118.4375 C 518.261719 111.796875 515.882813 119.285156 513.546875 116.421875 C 512.382813 116.847656 512.382813 115.679688 511.746094 115.46875 C 513.761719 114.617188 513.335938 111.648438 513.019531 110.585938 C 517.15625 111.433594 519.703125 113.238281 523.203125 115.148438 C 523.097656 116.210938 523.734375 117.695313 522.777344 118.4375 "/>
</g>
</svg>
