<?xml version="1.0" encoding="UTF-8"?>
<svg xmlns="http://www.w3.org/2000/svg" xmlns:xlink="http://www.w3.org/1999/xlink" width="528pt" height="479pt" viewBox="0 0 528 479" version="1.1">
<g id="surface1">
<path style=" stroke:none;fill-rule:nonzero;fill:rgb(0%,0%,0%);fill-opacity:1;" d="M 527.925781 162.660156 C 525.921875 159.234375 522.082031 154.546875 514.894531 147.039063 C 516.554688 146.207031 516.554688 144.214844 516.554688 142.222656 C 513.234375 140.066406 514.894531 136.578125 516.058594 133.59375 C 516.554688 132.097656 515.394531 130.769531 514.066406 130.769531 C 513.070313 127.617188 515.726563 124.792969 516.554688 121.972656 C 517.21875 118.484375 515.558594 114.835938 513.234375 112.34375 C 513.898438 110.683594 515.558594 109.355469 514.894531 107.199219 C 512.238281 103.214844 516.222656 100.058594 516.058594 96.074219 C 512.40625 91.761719 518.382813 86.78125 514.894531 82.960938 C 514.066406 81.800781 513.070313 79.144531 514.894531 78.148438 C 516.554688 74.496094 513.070313 73.003906 511.742188 70.179688 C 512.238281 68.355469 514.066406 65.863281 513.234375 64.535156 C 511.242188 63.871094 508.921875 61.546875 509.253906 59.058594 C 512.902344 55.902344 508.089844 54.90625 506.597656 52.585938 C 505.269531 48.433594 505.269531 42.457031 507.757813 39.136719 C 506.597656 38.804688 505.601563 37.976563 504.105469 38.308594 C 502.613281 36.980469 501.117188 35.484375 501.78125 33.160156 C 505.269531 30.503906 499.125 30.171875 497.796875 28.679688 C 493.8125 24.863281 497.132813 19.550781 496.136719 14.402344 C 495.640625 10.421875 491.65625 7.597656 487.839844 6.4375 C 481.863281 3.777344 476.882813 9.589844 471.402344 9.257813 C 471.238281 -0.203125 463.269531 11.085938 460.28125 4.109375 C 457.460938 3.777344 454.804688 2.785156 452.3125 4.773438 C 450.984375 3.613281 450.652344 2.785156 449.160156 2.121094 C 447.335938 1.289063 445.007813 1.621094 443.183594 2.121094 C 433.390625 1.621094 419.941406 -1.199219 410.480469 4.441406 C 407.160156 4.609375 402.347656 6.105469 399.691406 3.28125 C 396.871094 6.601563 391.722656 1.621094 387.738281 4.441406 C 381.761719 1.121094 378.089844 9.691406 370.308594 7.265625 C 367.320313 11.085938 362.339844 14.570313 356.695313 14.402344 C 351.882813 14.734375 350.722656 20.046875 349.226563 23.535156 C 339.765625 21.210938 329.972656 22.203125 321.671875 18.054688 C 316.523438 25.691406 320.839844 35.484375 323.996094 42.621094 C 335.117188 49.097656 318.847656 46.9375 319.347656 53.082031 C 320.34375 55.570313 323.828125 54.574219 324.824219 57.066406 C 322.167969 58.0625 319.511719 59.058594 317.355469 61.382813 C 315.363281 65.53125 321.339844 64.703125 323.332031 66.527344 C 320.675781 68.6875 317.519531 68.851563 314.863281 71.011719 C 313.535156 74.496094 318.515625 76.488281 318.515625 80.140625 C 317.519531 81.46875 316.191406 81.800781 314.863281 82.132813 C 303.078125 82.464844 292.453125 85.617188 282.164063 90.101563 C 282.164063 90.433594 282.164063 90.929688 282.164063 91.261719 C 285.648438 91.761719 282.496094 94.746094 281.5 95.742188 C 279.839844 97.238281 279.839844 100.226563 281.5 101.71875 C 280.003906 104.210938 277.515625 106.203125 275.023438 107.695313 C 272.203125 110.1875 268.882813 113.671875 270.210938 117.65625 C 266.0625 122.800781 264.734375 128.777344 261.082031 133.59375 C 251.617188 141.226563 236.84375 139.402344 225.722656 139.070313 C 223.566406 140.066406 219.414063 140.230469 220.078125 143.550781 C 220.910156 143.550781 221.90625 143.550781 222.402344 143.054688 C 224.0625 144.214844 226.71875 143.71875 227.714844 145.875 C 219.746094 146.042969 211.28125 147.703125 206.136719 155.007813 C 197.003906 162.476563 183.558594 160.816406 175.09375 167.789063 C 166.960938 178.578125 151.1875 178.410156 144.050781 192.523438 C 139.402344 194.015625 134.089844 194.015625 129.609375 196.007813 C 117.160156 201.320313 117.160156 216.925781 102.550781 217.257813 C 95.910156 225.222656 83.292969 226.882813 79.476563 238.339844 C 79.808594 244.3125 73.003906 244.3125 71.011719 249.128906 C 72.503906 260.085938 63.871094 268.714844 56.734375 276.1875 C 53.25 281.828125 53.914063 289.964844 51.589844 296.4375 C 47.605469 303.574219 43.289063 310.878906 41.128906 318.019531 C 30.671875 335.78125 40.632813 363.335938 24.53125 377.777344 C 12.246094 382.757813 5.109375 392.71875 2.121094 405.167969 C -1.863281 416.789063 2.285156 427.414063 6.601563 437.539063 C 11.582031 451.480469 30.175781 457.457031 42.789063 464.265625 C 54.578125 464.097656 63.375 471.902344 73.832031 473.726563 C 85.949219 480.199219 101.390625 476.382813 114.835938 478.539063 C 130.605469 475.386719 151.6875 479.703125 165.132813 476.546875 C 173.101563 479.867188 184.058594 478.871094 192.523438 477.378906 C 203.480469 473.230469 213.605469 476.878906 224.894531 476.546875 C 231.367188 475.882813 239.5 476.878906 243.984375 472.5625 C 248.964844 469.578125 251.949219 474.886719 257.097656 472.5625 C 266.558594 462.105469 299.75 463.5 291.460938 452.976563 C 294.777344 447.832031 300.589844 447.332031 304.90625 442.683594 C 312.210938 436.875 300.257813 436.875 300.089844 431.894531 C 302.25 426.25 306 429.25 309.386719 427.578125 C 312.871094 423.097656 312.042969 416.621094 316.027344 412.804688 C 316.855469 406 320.675781 400.1875 322.003906 393.714844 C 322.832031 390.890625 322.003906 387.074219 323.664063 384.917969 C 325.988281 388.570313 330.636719 388.070313 333.621094 390.890625 C 330.96875 396.535156 338.269531 397.699219 338.4375 403.175781 C 339.265625 405.335938 341.09375 407.160156 343.25 407.660156 C 341.757813 415.625 353.210938 414.296875 353.542969 421.105469 C 360.515625 421.769531 358.355469 430.730469 364.335938 431.894531 C 374.460938 441.355469 389.566406 444.84375 403.675781 445.839844 C 410.648438 446.171875 429.878906 448.101563 440.03125 439.03125 C 444.015625 437.539063 443 432.5 442.355469 428.410156 C 440.359375 421.601563 437.539063 414.960938 430.402344 412.804688 C 429.074219 399.691406 419.28125 391.222656 406.996094 388.070313 C 400.6875 384.585938 403.011719 375.785156 402.515625 370.640625 C 398.695313 364.332031 404.503906 359.1875 403.675781 352.710938 C 404.007813 345.738281 411.144531 345.90625 410.148438 338.269531 C 413.46875 336.941406 412.972656 333.953125 414.964844 331.960938 C 418.949219 335.28125 418.285156 329.804688 418.949219 327.480469 C 421.105469 325.15625 417.453125 318.683594 422.101563 320.34375 C 425.089844 319.347656 425.589844 315.195313 426.085938 312.042969 C 429.738281 312.375 428.410156 317.851563 431.5625 317.519531 C 433.390625 312.375 438.703125 307.890625 439.53125 302.910156 C 439.699219 300.089844 443.351563 300.089844 443.515625 302.414063 C 445.671875 304.902344 440.695313 311.210938 446.339844 309.550781 C 448.828125 305.566406 454.304688 301.085938 455.136719 296.105469 C 456.960938 289.796875 457.957031 298.097656 460.78125 296.9375 C 462.769531 296.769531 461.941406 293.949219 462.769531 292.453125 C 466.753906 293.117188 464.433594 299.09375 469.078125 299.261719 C 470.90625 295.109375 475.386719 293.117188 476.714844 288.96875 C 477.378906 287.472656 476.382813 286.476563 477.878906 285.316406 C 481.53125 285.8125 484.1875 282.492188 486.175781 280.503906 C 487.007813 276.019531 493.148438 275.023438 492.984375 270.210938 C 492.816406 265.0625 488.835938 260.25 491.324219 255.4375 C 493.316406 256.265625 493.316406 259.585938 494.976563 260.25 C 494.144531 253.941406 491.820313 247.136719 492.152344 239.832031 C 493.316406 233.523438 494.976563 241.65625 496.96875 241.160156 C 499.789063 237.675781 495.972656 228.210938 501.78125 229.539063 C 503.773438 225.222656 504.273438 220.242188 504.605469 215.265625 C 513.234375 211.945313 505.601563 198.332031 512.570313 193.683594 C 515.226563 189.035156 508.589844 184.222656 513.734375 181.398438 C 513.734375 178.246094 515.394531 174.59375 512.902344 172.601563 C 512.074219 170.941406 512.570313 168.949219 514.066406 167.789063 C 516.222656 164.632813 513.734375 161.148438 512.902344 158.160156 C 516.554688 156.832031 515.5625 153.761719 516.386719 150.769531 C 519.851563 153.847656 523.761719 159.199219 526.972656 163.230469 C 527.53125 163.933594 528.363281 163.40625 527.925781 162.660156 Z M 513.734375 119.148438 C 510.746094 120.476563 510.082031 123.464844 510.578125 126.289063 C 512.902344 128.113281 509.585938 133.425781 512.902344 135.085938 C 512.074219 137.574219 509.253906 142.058594 513.734375 143.550781 C 513.734375 144.050781 513.484375 146.105469 512.074219 145.046875 C 504.769531 140.230469 498.628906 135.417969 490.160156 133.09375 C 489.332031 130.273438 491.65625 128.945313 492.652344 126.289063 C 497.632813 126.453125 500.121094 121.972656 502.945313 118.816406 C 503.441406 114.335938 504.4375 110.351563 509.253906 109.191406 C 509.253906 107.863281 513.070313 106.367188 511.742188 109.191406 C 510.746094 109.355469 510.082031 110.519531 509.253906 111.183594 C 509.75 114.667969 513.402344 115.664063 513.734375 119.148438 Z M 326.484375 64.203125 C 324.660156 63.871094 320.839844 63.539063 321.671875 61.382813 C 323.996094 59.390625 327.980469 60.71875 329.972656 58.558594 C 331.300781 53.414063 316.359375 54.078125 326.816406 51.089844 C 330.800781 50.921875 335.945313 52.585938 339.929688 51.421875 C 342.753906 54.410156 344.246094 49.929688 345.574219 48.269531 C 346.40625 41.628906 354.703125 43.621094 355.535156 37.144531 C 354.371094 34.988281 353.875 37.476563 352.382813 36.648438 C 342.089844 36.316406 334.949219 32.996094 327.648438 26.355469 C 326.984375 26.355469 326.484375 27.1875 325.988281 27.519531 C 327.648438 34.988281 337.273438 33.824219 338.4375 41.460938 C 335.945313 42.125 333.953125 39.96875 331.964844 41.960938 C 334.121094 46.605469 342.089844 41.960938 341.921875 48.601563 C 337.273438 50.59375 332.792969 45.445313 329.308594 43.953125 C 323.496094 38.972656 320.839844 30.835938 322.003906 22.703125 C 322.667969 20.710938 325.820313 21.707031 327.316406 22.039063 C 336.445313 23.535156 346.570313 25.523438 355.203125 26.355469 C 357.691406 28.515625 358.191406 32.164063 360.679688 33.492188 C 361.84375 29.675781 357.027344 25.191406 358.6875 20.378906 C 356.695313 18.71875 355.035156 21.539063 353.542969 22.703125 C 353.378906 23.203125 352.714844 23.203125 352.382813 23.203125 C 351.71875 22.535156 351.71875 19.882813 352.714844 19.21875 C 355.203125 15.898438 359.355469 16.726563 362.671875 15.566406 C 367.652344 13.40625 369.167969 7.929688 376.617188 8.757813 C 381.761719 8.097656 383.589844 3.777344 389.398438 6.105469 C 391.140625 5.652344 395.078125 5.144531 396.25 5.875 C 398.542969 7.300781 412.375 7.875 418.949219 2.785156 C 429.074219 3.613281 438.371094 2.785156 448.328125 4.109375 C 451.980469 11.582031 459.285156 0.957031 463.105469 8.425781 C 465.59375 9.257813 469.742188 4.441406 469.910156 9.589844 C 465.59375 13.242188 459.453125 15.066406 455.136719 18.71875 C 454.472656 21.210938 456.796875 19.882813 457.957031 20.046875 C 468.25 14.402344 481.695313 2.121094 493.316406 12.078125 C 497.300781 19.550781 492.816406 27.683594 492.652344 35.484375 C 486.34375 35.816406 489.496094 26.1875 489.828125 22.371094 C 489.496094 19.050781 492.816406 14.070313 488.171875 12.410156 C 475.886719 13.738281 467.917969 24.695313 457.957031 28.347656 C 457.625 29.011719 455.964844 29.511719 457.128906 30.339844 C 464.101563 31.335938 470.074219 27.351563 476.21875 25.191406 C 479.371094 25.359375 479.371094 28.347656 477.878906 30.339844 C 480.367188 32 482.027344 35.484375 485.015625 33.492188 C 486.675781 38.804688 492.652344 38.140625 496.636719 38.640625 C 497.300781 36.648438 494.644531 37.144531 494.644531 35.484375 C 495.472656 34.324219 494.476563 32.332031 495.308594 31.171875 C 497.132813 32.828125 500.785156 32.164063 498.128906 35.984375 C 497.796875 38.472656 500.621094 39.46875 502.113281 40.632813 C 503.773438 40.464844 504.769531 40.964844 504.105469 42.621094 C 502.28125 45.445313 502.613281 49.429688 503.773438 52.585938 C 511.574219 55.40625 501.285156 63.871094 510.082031 65.367188 C 503.277344 72.171875 518.382813 72.671875 510.910156 79.808594 C 511.410156 81.46875 511.90625 83.292969 513.734375 84.457031 C 512.570313 87.777344 512.570313 92.921875 513.734375 96.40625 C 511.242188 101.054688 509.75 109.023438 502.613281 108.859375 C 500.289063 110.683594 502.113281 112.179688 500.953125 114.835938 C 499.292969 118.320313 496.800781 121.140625 492.652344 121.640625 C 491.324219 121.804688 489.664063 121.140625 489.332031 122.800781 C 487.671875 124.460938 490.824219 124.128906 489.828125 125.957031 C 489.664063 128.113281 488.253906 130.4375 487.589844 131.933594 C 478.957031 130.605469 469.410156 125.957031 460.78125 126.785156 C 460.449219 126.121094 460.449219 125.625 459.949219 125.125 C 459.285156 129.277344 453.253906 124.347656 453.75 128 C 455.078125 130.324219 459.453125 127.117188 458.289063 130.769531 C 454.636719 127.449219 453.972656 135.75 450.820313 131.101563 C 448.828125 132.265625 451.648438 135.253906 449.160156 136.746094 C 447.003906 138.570313 443.351563 138.074219 441.191406 138.738281 C 441.6875 143.386719 450.320313 137.742188 446.835938 142.722656 C 440.027344 148.800781 434.046875 145.453125 426.75 143.75 C 421.007813 144.222656 415.75 143 415.191406 139.59375 C 414.347656 136.839844 414.300781 133.03125 415.300781 131.4375 C 416.238281 127.253906 417.871094 123.546875 422.933594 121.972656 C 424.75 122 424.75 120.5 423.265625 119.648438 C 422.101563 118.484375 420.109375 118.152344 420.109375 116.328125 C 420.605469 113.507813 423.429688 113.671875 425.253906 113.175781 C 426.417969 114.171875 428.078125 113.339844 428.410156 112.011719 C 426.085938 108.195313 421.605469 105.207031 420.109375 100.890625 C 429.738281 97.070313 434.882813 110.1875 444.84375 104.875 C 456.796875 100.890625 454.96875 86.613281 466.257813 81.800781 C 466.421875 80.96875 466.257813 80.304688 465.425781 79.808594 C 459.121094 82.296875 451.816406 81.300781 445.507813 78.148438 C 444.511719 77.484375 444.511719 75.324219 442.355469 76.15625 C 438.703125 77.816406 436.875 82.960938 432.0625 80.472656 C 429.570313 77.316406 432.0625 71.175781 428.410156 69.019531 C 426.417969 76.984375 425.589844 86.945313 417.289063 90.929688 C 414.632813 92.257813 415.960938 95.742188 415.628906 97.734375 C 416.5 102.75 422.5 108.5 423.265625 110.851563 C 419.027344 111.839844 418.125 117.523438 413.808594 120.054688 C 407.5 123.75 402.515625 119.8125 401.683594 118.816406 C 395.5 111.25 404.25 103.25 403.34375 100.058594 C 403.507813 96.242188 398.695313 95.246094 398.195313 91.761719 C 397.535156 90.433594 393.851563 89.148438 393.273438 88.9375 C 390.667969 87.976563 388.34375 85.136719 386.578125 82.960938 C 385.085938 79.640625 384.753906 75.988281 383.421875 72.503906 C 383.089844 72.503906 382.804688 72.503906 382.472656 72.503906 C 380.148438 75.824219 382.59375 81.300781 379.105469 83.792969 C 376.617188 84.121094 372 84.25 371.804688 80.96875 C 372.632813 78.8125 370.808594 77.816406 370.308594 76.15625 C 367.820313 77.980469 370.144531 82.464844 368.316406 85.785156 C 367.320313 88.9375 365.328125 91.261719 361.84375 91.261719 C 360.183594 90.929688 358.191406 88.769531 356.695313 90.101563 C 357 93.5 362.839844 93.917969 364.664063 94.414063 C 367.652344 99.394531 367.820313 106.203125 374.625 108.859375 C 381.429688 111.183594 390.394531 110.019531 395.042969 105.207031 C 397.035156 109.855469 384.585938 112.179688 392.554688 114.835938 C 393.714844 113.175781 395.042969 113.339844 396.203125 112.011719 C 398.195313 115.496094 400.519531 119.148438 399.027344 123.964844 C 401.519531 126.289063 405.171875 127.78125 408.488281 129.109375 C 409.320313 131.601563 411.976563 132.265625 412.140625 135.085938 C 412.394531 137.246094 412.5625 139.152344 412.140625 140.230469 C 407.492188 148.699219 395.375 147.203125 386.578125 147.867188 C 390.394531 146.375 394.214844 141.226563 398.527344 144.714844 C 400.023438 144.382813 402.679688 145.542969 402.515625 143.054688 C 401.019531 142.058594 397 142.75 395.042969 140.230469 C 395.375 139.234375 396.203125 137.242188 397.035156 136.246094 C 393.382813 135.585938 388.070313 138.238281 386.578125 133.09375 C 386.578125 132.429688 386.910156 131.601563 386.246094 131.101563 C 379.101563 132.261719 365.019531 139.265625 362.980469 139.742188 C 360.714844 140.273438 358.378906 139.921875 356.363281 137.90625 C 353.210938 136.246094 350.222656 134.089844 349.226563 130.769531 C 348.894531 129.773438 349.726563 129.109375 349.890625 128.28125 C 345.410156 126.785156 339.101563 128.777344 336.445313 123.632813 C 330.800781 119.8125 341.921875 112.34375 331.964844 112.011719 C 331.796875 109.6875 329.140625 107.53125 331.300781 105.207031 C 335.945313 101.71875 327.648438 99.894531 330.46875 95.742188 C 325.988281 96.738281 324.824219 92.425781 321.671875 91.261719 C 320.675781 89.769531 323.828125 85.785156 320.507813 85.785156 C 317.519531 82.960938 322.832031 82.464844 323.332031 80.472656 C 321.835938 77.484375 321.171875 75.160156 318.515625 72.503906 C 318.847656 66.859375 336.941406 71.175781 326.484375 64.203125 Z M 453.144531 135.085938 C 458.453125 131.601563 464.265625 134.589844 469.410156 137.078125 C 468.085938 138.738281 467.753906 142.222656 464.765625 140.230469 C 461.113281 138.074219 456.960938 136.746094 453.144531 135.085938 Z M 461.941406 141.0625 C 459.121094 142.597656 453.972656 140.894531 450.820313 139.070313 C 451.609375 137.90625 452.417969 137.40625 453.257813 137.316406 C 455.777344 137.046875 459.164063 139.503906 461.941406 141.0625 Z M 460.78125 131.101563 C 460.578125 129.988281 460.46875 129.175781 461.25 129 C 467.417969 127.886719 478.792969 131.515625 485.765625 133.675781 C 483.109375 136.496094 477.710938 138.074219 473.0625 136.746094 C 468.914063 134.753906 465.261719 132.097656 460.78125 131.101563 Z M 433.554688 148.699219 C 429.570313 154.011719 425.589844 160.152344 417.621094 159.820313 C 409.816406 160.152344 402.679688 155.171875 398.527344 150.191406 C 401.757813 150.191406 405.789063 147.628906 409.230469 147.84375 C 412 149 420.773438 149.527344 422.433594 145.542969 C 426.085938 145.378906 430.566406 147.039063 433.554688 148.699219 Z M 419.394531 96.523438 C 417.269531 93.070313 421.519531 92.40625 422.847656 90.546875 C 423.113281 90.679688 423.246094 90.945313 423.511719 91.078125 C 422.316406 92.9375 423.246094 98.515625 419.394531 96.523438 Z M 446.339844 91.261719 C 446.527344 89.925781 445.566406 86.226563 445.789063 84.054688 C 445.953125 82.445313 446.851563 81.128906 449.25 82.75 C 451.386719 83.621094 453 84.25 455.964844 84.953125 C 454.5 91.5 450.488281 97.902344 444.84375 102.050781 C 436.710938 105.703125 430.75 99.5 428.078125 95.246094 C 428.078125 91.925781 429.074219 89.269531 431.230469 87.277344 C 432.933594 88.878906 433.972656 92.050781 435.511719 95.011719 C 439.8125 103.273438 447.136719 97.992188 446.339844 91.261719 Z M 439.320313 83.476563 C 440.648438 82.960938 441.046875 83.742188 441.578125 84.671875 C 441.179688 85.867188 441.046875 87.859375 439.320313 87.59375 C 437.992188 87.59375 437.207031 84.539063 439.320313 83.476563 Z M 398.210938 96.695313 C 398.390625 96.652344 398.558594 96.722656 398.738281 96.679688 C 398.929688 98.046875 401.636719 100.316406 398.996094 100.9375 C 396.585938 100.160156 398.335938 98.117188 398.210938 96.695313 Z M 380.269531 105.207031 C 385.914063 105.871094 389.910156 100.144531 388.175781 94.105469 C 387.25 90.75 390.5 91.75 392.222656 94.414063 C 393.550781 97.070313 393.21875 100.722656 392.222656 103.710938 C 390.5625 107.03125 385.757813 107.507813 382.25 107.75 C 370.378906 107.378906 369.871094 99.78125 368.648438 93.253906 C 370.144531 92.09375 372.46875 90.433594 374.292969 90.433594 C 374.957031 95.910156 374.683594 103.757813 380.269531 105.207031 Z M 382.136719 91.242188 C 382.949219 91.496094 382.898438 92.261719 382.898438 93.316406 C 382.898438 94.371094 382.210938 95.222656 381.359375 95.222656 C 380.507813 95.222656 380.210938 94.292969 379.816406 93.316406 C 379.023438 91.34375 380.476563 90.722656 382.136719 91.242188 Z M 393.050781 139.070313 C 393.550781 140.066406 393.714844 141.726563 393.050781 142.722656 C 389.234375 144.050781 385.25 146.042969 382.261719 148.699219 C 376.796875 149.863281 374 148.75 371.804688 147.535156 C 378.609375 144.546875 383.753906 136.746094 393.050781 139.070313 Z M 369.8125 146.207031 C 367.488281 145.710938 366.65625 143.21875 366.324219 141.0625 C 371.636719 137.90625 377.777344 134.089844 384.585938 135.085938 C 385.085938 135.75 385.582031 136.414063 385.746094 136.746094 C 380.933594 140.066406 375.121094 142.722656 369.8125 146.207031 Z M 408.988281 391.722656 C 416.621094 395.375 426.335938 398.652344 427.214844 409.023438 C 427.246094 409.652344 427.371094 410.375 426.4375 409.988281 C 425.097656 409.234375 414.996094 406.699219 411.59375 400.585938 C 410.847656 399.25 407.992188 394.046875 408.988281 391.722656 Z M 514.894531 153.84375 C 512.902344 156.003906 510.082031 157.828125 511.742188 161.480469 C 514.066406 163.472656 513.234375 165.960938 511.742188 167.789063 C 508.753906 169.117188 512.238281 171.605469 511.742188 173.765625 C 516.222656 178.910156 506.097656 182.5625 511.242188 187.707031 C 511.242188 192.523438 509.085938 195.34375 506.929688 199.328125 C 507.757813 202.8125 508.753906 208.457031 506.097656 211.613281 C 506.097656 211.945313 504.4375 210.449219 503.773438 211.613281 C 502.945313 216.425781 502.113281 221.40625 501.285156 226.386719 C 499.789063 225.390625 497.796875 226.21875 497.300781 228.378906 C 496.304688 231.035156 497.796875 234.6875 496.136719 237.175781 C 494.808594 237.011719 494.3125 233.691406 492.152344 235.515625 C 488.835938 240.660156 491.65625 245.972656 491.324219 251.785156 C 492.652344 253.277344 488.835938 254.273438 489 256.597656 C 489.332031 261.078125 489.996094 265.394531 491.324219 269.378906 C 490.328125 274.027344 488.835938 265.230469 486.175781 267.71875 C 488.503906 271.207031 486.175781 274.527344 485.847656 278.179688 C 484.019531 280.171875 481.53125 280.503906 479.371094 281.664063 C 477.878906 280.171875 477.710938 276.519531 475.054688 277.015625 C 473.230469 279.007813 475.386719 281.164063 475.386719 283.324219 C 474.722656 287.472656 472.398438 291.457031 469.910156 294.445313 C 469.246094 291.625 466.589844 289.300781 463.933594 287.640625 C 462.273438 287.472656 461.445313 288.636719 461.113281 290.128906 C 461.941406 292.121094 459.785156 290.792969 459.121094 290.960938 C 457.625 288.800781 455.46875 286.3125 452.8125 286.476563 C 450.488281 288.136719 453.808594 288.46875 453.144531 290.460938 C 452.8125 295.941406 450.984375 300.921875 447.167969 304.902344 C 447.335938 298.097656 439.53125 294.945313 437.207031 289.632813 C 436.378906 288.96875 435.050781 288.636719 434.882813 290.128906 C 436.710938 297.601563 438.703125 306.5625 431.5625 312.042969 C 428.078125 307.558594 427.414063 301.085938 422.101563 298.429688 C 419.113281 299.925781 422.601563 302.246094 422.101563 304.40625 C 423.59375 306.230469 422.601563 309.71875 422.933594 312.375 C 421.269531 312.871094 422.601563 314.863281 421.605469 315.195313 C 418.117188 304.074219 407.992188 297.601563 396.203125 296.105469 C 392.054688 294.945313 393.714844 283.988281 389.398438 289.300781 C 389.234375 298.429688 394.378906 304.902344 394.214844 313.535156 C 389.066406 311.210938 386.578125 305.898438 382.59375 301.585938 C 380.269531 301.585938 382.261719 306.730469 379.4375 305.234375 C 377.945313 303.410156 377.777344 299.925781 374.625 299.59375 C 374.128906 302.082031 372.800781 312.871094 371.140625 306.398438 C 371.140625 303.574219 369.8125 300.753906 367.488281 299.59375 C 364.664063 299.59375 366.324219 303.574219 364.335938 304.902344 C 362.671875 307.394531 361.511719 308.886719 360.347656 311.542969 C 360.515625 306.398438 357.691406 301.417969 354.703125 298.429688 C 353.875 309.550781 347.234375 318.183594 338.4375 322.832031 C 339.929688 316.359375 335.78125 311.046875 334.785156 305.234375 C 334.285156 304.902344 333.621094 303.242188 332.792969 304.40625 C 330.800781 305.898438 333.457031 307.558594 331.964844 309.21875 C 330.636719 310.910156 329.464844 313.058594 328.132813 315.085938 C 325.800781 318.640625 328.105469 318.058594 329.597656 316.152344 C 331.09375 314.242188 332.460938 312.207031 333.621094 310.050781 C 336.777344 314.367188 337.9375 321.671875 335.613281 327.148438 C 334.785156 327.976563 334.785156 329.304688 334.453125 330.300781 C 338.269531 332.128906 336.941406 325.820313 339.597656 323.992188 C 348.894531 320.507813 351.882813 311.378906 355.867188 303.574219 C 358.523438 307.0625 358.355469 313.371094 358.355469 318.019531 C 358.6875 318.847656 359.355469 317.851563 359.851563 318.019531 C 361.675781 312.707031 364.335938 307.558594 367.488281 303.242188 C 370.144531 304.570313 368.816406 308.554688 370.308594 310.878906 C 370.308594 312.871094 368.152344 315.363281 370.640625 316.855469 C 372.800781 317.519531 372.136719 315.03125 372.300781 314.035156 C 373.464844 310.382813 374.625 307.226563 375.785156 303.242188 C 378.109375 304.238281 377.777344 308.390625 380.601563 309.21875 C 382.09375 309.550781 382.757813 306.894531 383.089844 306.066406 C 387.574219 309.386719 390.230469 318.019531 397.035156 314.863281 C 397.203125 306.894531 392.054688 301.914063 392.222656 294.445313 C 395.210938 302.578125 406.996094 298.761719 412.140625 304.902344 C 413.304688 306.5625 414.632813 307.890625 415.628906 310.050781 C 413.96875 309.550781 414.964844 311.378906 414.132813 312.042969 C 417.453125 316.523438 417.453125 323.164063 417.289063 329.472656 C 414.464844 328.640625 415.128906 323.828125 411.644531 323.496094 C 410.8125 326.816406 413.636719 330.964844 410.980469 333.953125 C 409.984375 332.957031 408.988281 331.960938 407.660156 331.464844 C 406.332031 334.285156 410.648438 339.101563 406.996094 341.09375 C 405.171875 338.933594 403.507813 334.949219 401.019531 333.953125 C 398.695313 336.941406 403.507813 337.773438 403.34375 340.761719 C 403.675781 342.753906 404.671875 345.90625 402.515625 347.398438 C 400.355469 347.234375 400.519531 342.421875 397.699219 344.742188 C 404.671875 353.375 396.039063 365.824219 400.519531 374.957031 C 399.359375 377.28125 403.011719 379.4375 400.519531 381.761719 C 390.070313 384.453125 388.382813 400.132813 377.15625 394.949219 C 376.613281 394.699219 374.5 397.25 377.113281 398.03125 C 388.734375 400.355469 391.226563 388.570313 399.691406 384.917969 C 403.175781 392.71875 408.988281 398.527344 410.148438 407.160156 C 404.503906 411.144531 390.726563 408.324219 393.382813 418.78125 C 395.042969 420.441406 397.035156 417.785156 398.527344 416.457031 C 399.855469 411.972656 405.667969 412.804688 409.320313 411.644531 C 414.964844 413.964844 415.960938 407.160156 421.269531 411.144531 C 428.410156 414.464844 436.542969 416.953125 438.867188 425.585938 C 440.871094 429.738281 444.015625 440.859375 434.054688 436.707031 C 433.058594 440.027344 429.40625 440.527344 427.246094 441.855469 C 428.410156 440.527344 428.410156 436.707031 426.914063 435.546875 C 426.085938 434.882813 425.589844 433.886719 424.425781 434.382813 C 424.921875 437.703125 424.09375 441.523438 420.441406 442.683594 C 416.210938 444.183594 410.480469 443.847656 406.996094 440.691406 C 403.011719 444.011719 396.535156 443.015625 391.722656 441.523438 C 390.230469 440.195313 389.234375 439.03125 386.578125 439.53125 C 384.089844 440.859375 380.269531 439.03125 377.445313 437.871094 C 369.3125 438.035156 368.816406 428.410156 362.671875 427.082031 C 362.339844 419.609375 352.714844 423.097656 353.875 414.796875 C 351.386719 412.472656 348.066406 413.136719 346.738281 409.652344 C 347.234375 405.167969 341.921875 404.503906 340.761719 401.183594 C 341.257813 398.03125 340.429688 395.207031 337.605469 394.542969 C 335.945313 391.222656 336.445313 386.410156 332.460938 384.917969 C 328.808594 385.414063 325.988281 383.089844 323.996094 380.101563 C 321.671875 378.773438 325.820313 370.140625 320.507813 373.296875 C 318.847656 369.3125 315.363281 364.496094 316.855469 359.851563 C 316.027344 358.023438 314.035156 359.683594 314.035156 361.011719 C 313.371094 363.335938 312.539063 359.683594 311.710938 359.019531 C 309.054688 354.703125 310.382813 348.230469 308.890625 343.914063 C 308.226563 344.742188 307.394531 345.242188 306.066406 345.074219 C 303.410156 341.257813 306.234375 335.28125 305.402344 331.960938 C 303.078125 335.449219 301.253906 341.425781 303.742188 345.90625 C 309.886719 347.898438 306.566406 355.867188 309.71875 360.679688 C 313.535156 364.996094 317.023438 367.816406 318.019531 374.125 C 322.003906 380.765625 321.007813 391.390625 318.847656 398.527344 C 317.5 393.257813 313.371094 393.050781 314.53125 394.875 C 315.195313 397.53125 317.980469 413.152344 312.667969 402.695313 C 309.847656 404.023438 313.828125 406.84375 313 409.5 C 313.164063 413.816406 312 416.5 310.550781 421.601563 C 308.058594 416.125 309.984375 420.820313 307.328125 415.507813 C 305.835938 414.679688 305.335938 416.835938 306 417.5 C 308.65625 421.648438 309 426 304.5 426 C 301.015625 423.675781 303.734375 426.167969 301.578125 422.683594 C 299.5 421.25 300.496094 427.839844 300 429 C 298.671875 432.152344 286.644531 418.449219 281.5 416.457031 C 277.515625 412.804688 270.875 413.800781 267.554688 410.480469 C 260.914063 409.980469 256.597656 406.664063 250.289063 405.667969 C 236.679688 401.183594 223.898438 409.484375 210.949219 403.175781 C 196.507813 403.011719 179.078125 406.164063 165.464844 400.519531 C 145.546875 400.519531 126.289063 404.339844 107.363281 397.199219 C 100.726563 394.710938 94.25 390.0625 86.613281 388.902344 C 79.972656 380.433594 74.496094 371.96875 77.484375 360.183594 C 73.832031 358.855469 76.324219 364.664063 73.832031 366.15625 C 72.503906 366.820313 73.167969 368.316406 71.839844 368.648438 C 68.851563 355.367188 68.851563 336.777344 71.839844 322.832031 C 71.011719 320.675781 70.347656 323.328125 69.515625 323.496094 C 68.6875 339.265625 65.53125 355.867188 70.679688 370.640625 C 73.167969 371.800781 73.003906 368.480469 74.664063 367.320313 C 75.824219 375.289063 79.476563 383.421875 83.792969 389.730469 C 81.96875 389.730469 79.144531 389.066406 76.65625 389.230469 C 76.65625 389.230469 65.980469 389.871094 64.25 390 C 59.019531 390.390625 53.507813 391.675781 48.765625 394.542969 C 48.433594 395.207031 49.097656 395.539063 49.597656 396.039063 C 68.519531 390.0625 92.257813 389.230469 108.195313 402.511719 C 109.523438 403.175781 111.347656 402.511719 112.511719 404.007813 C 108.359375 406 103.214844 406.664063 98.566406 407.988281 C 105.226563 410.375 115.832031 403.507813 124.796875 404.007813 C 138.242188 406.496094 152.683594 403.675781 166.628906 404.007813 C 169.449219 404.503906 172.601563 404.671875 174.59375 406.828125 C 167.125 408.820313 160.652344 414.628906 151.519531 413.632813 C 158.554688 418.261719 167.789063 409.152344 176.253906 409.652344 C 187.875 405.5 199.328125 407.492188 211.777344 406.496094 C 214.933594 406.996094 218.417969 407.160156 221.242188 408.820313 C 218.253906 413.632813 211.445313 410.976563 206.964844 413.136719 C 209.953125 414.960938 215.265625 413.136719 218.417969 413.136719 C 230.703125 403.507813 248.964844 407.492188 262.242188 412.804688 C 257.097656 417.121094 248.632813 415.625 243.652344 418.78125 C 251.515625 420.542969 261.578125 412.96875 271.539063 415.625 C 273.53125 415.957031 275.191406 416.621094 277.015625 417.121094 C 283.25 419.75 294.5 427.75 304.574219 439.53125 C 303.410156 443.015625 299.425781 444.84375 296.105469 445.007813 C 295.609375 443.515625 295.609375 441.6875 294.613281 440.359375 C 293.78125 440.195313 292.453125 440.359375 292.953125 441.523438 C 293.617188 443.347656 295.441406 446.335938 292.953125 447.832031 C 283.65625 449.492188 293.875 457.753906 283.75 458.25 C 264.5 460.75 257.761719 473.726563 245.644531 468.582031 C 241.992188 468.746094 238.671875 466.921875 235.683594 466.921875 C 235.515625 469.246094 238.671875 468.746094 238.835938 470.242188 C 224.726563 476.214844 216 475 195.34375 466.589844 C 192.355469 468.082031 196.007813 468.746094 196.507813 470.242188 C 198 470.40625 194.015625 472.894531 192.523438 473.726563 C 181.898438 476.382813 170.113281 474.722656 161.480469 468.914063 C 160.320313 468.914063 159.324219 470.40625 160.320313 471.402344 C 161.148438 472.066406 165.632813 473.0625 162.3125 474.226563 C 153.679688 479.039063 144.550781 473.230469 134.753906 474.554688 C 128.75 475 125.460938 473.394531 121.308594 469.742188 C 120.644531 470.242188 120.3125 470.90625 120.480469 471.734375 C 121.476563 472.894531 124.296875 473.394531 124.132813 475.71875 C 115.882813 476.554688 104.984375 477.089844 97.25 474.5 C 92.6875 472.972656 90.828125 469.136719 86.945313 466.921875 C 84.621094 470.074219 93.753906 470.738281 88.273438 473.726563 C 74.496094 476.714844 65.699219 464.265625 53.582031 462.9375 C 50.757813 461.277344 48.101563 460.613281 45.945313 458.289063 C 45.613281 464.265625 40.136719 458.785156 37.644531 458.289063 C 29.011719 451.816406 14.238281 449.324219 11.25 436.707031 C 10.492188 432.804688 10.9375 428.972656 11.753906 425.304688 C 12.183594 423.355469 9.902344 422.730469 9.683594 424.742188 C 9.273438 428.503906 9.566406 432.519531 8.59375 435.546875 C 3.613281 429.734375 4.277344 419.941406 6.601563 412.472656 C 9.09375 408.488281 10.585938 404.671875 13.242188 400.519531 C 11.582031 398.859375 11.25 402.179688 10.089844 402.511719 C 7.765625 406 5.773438 409.652344 2.949219 413.136719 C 2.453125 405.335938 7.765625 400.1875 10.917969 394.046875 C 13.078125 380.269531 33.660156 382.59375 34.824219 367.320313 C 35.011719 367.1875 40.25 356.25 38.804688 335.945313 C 41.960938 315.859375 54.246094 301.417969 57.898438 281.664063 C 62.378906 272.867188 71.675781 266.058594 73.5 255.105469 C 71.675781 249.792969 76.15625 247.964844 78.980469 245.144531 C 81.800781 245.144531 79.3125 243.152344 80.640625 241.824219 C 83.960938 236.84375 86.78125 230.371094 92.921875 227.546875 C 92.425781 230.703125 88.273438 235.351563 86.28125 239.832031 C 84.789063 247.300781 79.476563 253.277344 79.808594 261.410156 C 78.316406 261.578125 79.3125 263.570313 78.980469 264.566406 C 80.304688 265.726563 80.304688 263.402344 81.46875 263.070313 C 82.464844 259.253906 84.789063 256.597656 87.445313 254.273438 C 86.449219 257.761719 85.285156 262.074219 84.621094 266.226563 C 83.792969 267.71875 82.964844 270.542969 83.792969 272.535156 C 87.113281 271.207031 86.945313 265.5625 90.597656 265.394531 C 89.875 268.449219 88.90625 271.664063 88.027344 274.9375 C 86.082031 282.171875 88.421875 280.488281 90.175781 275.308594 C 91.492188 271.429688 92.496094 267.597656 91.429688 263.402344 C 88.273438 260.25 84.457031 273.03125 86.613281 262.574219 C 89.269531 259.917969 88.605469 255.105469 89.769531 251.453125 C 86.28125 248.296875 81.46875 263.070313 82.964844 252.613281 C 87.113281 240.828125 93.917969 228.875 102.550781 219.910156 C 105.371094 218.417969 108.527344 217.257813 112.179688 217.257813 C 119.816406 208.125 127.617188 196.007813 140.730469 196.507813 C 136.25 201.816406 132.265625 205.96875 129.277344 212.441406 C 129.277344 213.105469 130.273438 213.769531 130.4375 213.9375 C 125.292969 222.734375 119.648438 230.867188 118.15625 241.492188 C 121.808594 243.648438 122.804688 238.007813 125.625 237.175781 C 123.46875 245.144531 118.820313 254.273438 117.324219 264.234375 C 118.984375 265.394531 117.160156 268.21875 118.820313 269.378906 C 121.808594 268.382813 121.144531 264.730469 124.132813 263.734375 C 123.414063 265.964844 122.84375 268.425781 122.441406 270.992188 C 121.160156 279.128906 123.464844 278.554688 124.585938 271.554688 C 125.417969 266.355469 126.53125 261.425781 126.785156 256.597656 C 124.296875 258.757813 122.804688 262.90625 120.148438 265.726563 C 120.148438 254.441406 125.789063 243.316406 129.609375 233.191406 C 129.609375 229.042969 134.589844 227.546875 134.421875 223.230469 C 131.765625 223.066406 130.105469 227.382813 128.777344 229.539063 C 127.449219 233.359375 123.632813 236.679688 120.8125 239.5 C 122.472656 226.882813 130.769531 216.09375 140.066406 207.296875 C 139.902344 206.796875 140.234375 205.96875 139.570313 205.636719 C 138.074219 206.964844 135.003906 209.722656 132.761719 209.953125 C 137.078125 203.976563 141.5625 198 147.203125 193.683594 C 146.75 191.5 150 182.75 163.140625 180.570313 C 173.597656 175.589844 180.074219 164.632813 193.019531 163.804688 C 198.5 162.476563 203.8125 160.484375 208.957031 157.828125 C 207.296875 164.136719 202.484375 167.621094 198.167969 173.433594 C 180.074219 188.703125 160.984375 207.128906 159.988281 232.363281 C 159.800781 232.964844 160.214844 233.585938 160.652344 233.191406 C 163.972656 230.867188 165.632813 226.386719 168.285156 223.5625 C 167.789063 228.296875 164.96875 236.015625 165.964844 241.824219 C 166.128906 244.148438 164.96875 244.480469 166.296875 246.304688 C 168.949219 247.136719 169.945313 243.816406 172.269531 243.816406 C 171.273438 252.945313 167.125 261.246094 168.617188 271.039063 C 171.441406 274.527344 173.929688 268.550781 177.085938 268.550781 C 177.507813 270.453125 177.34375 272.605469 177.097656 274.789063 C 176.570313 279.460938 178.558594 278.796875 179.253906 274.539063 C 179.742188 271.535156 179.839844 268.546875 177.914063 265.726563 C 174.925781 265.5625 171.273438 272.535156 170.277344 267.386719 C 170.777344 257.761719 173.101563 248.960938 175.09375 239.832031 C 172.933594 240.328125 170.941406 242.820313 167.953125 243.484375 C 166.460938 234.1875 170.113281 226.21875 172.269531 217.921875 C 172.105469 217.089844 170.941406 216.261719 170.277344 217.257813 C 168.453125 220.90625 165.796875 224.394531 163.472656 227.546875 C 162.976563 221.074219 167.125 214.765625 169.117188 208.457031 C 175.757813 193.519531 191.339844 184.199219 201.320313 172.933594 C 199.992188 179.074219 197.335938 185.050781 197.835938 191.359375 C 199.328125 191.527344 200.324219 188.539063 200.988281 189.367188 C 199.328125 199.492188 192.355469 209.953125 197.835938 220.742188 C 198.832031 221.238281 199.496094 220.242188 200.160156 219.578125 C 202.484375 221.074219 201.820313 228.046875 205.304688 229.539063 C 206.136719 227.214844 208.429688 225.058594 208.597656 229.207031 C 208.597656 231.699219 209.703125 234.210938 211.777344 235.847656 C 212.441406 235.515625 213.4375 235.351563 213.769531 234.6875 C 213.9375 240.660156 215.929688 246.140625 218.085938 251.121094 C 219.414063 251.617188 220.742188 250.289063 220.910156 249.460938 C 224.230469 262.574219 223.234375 277.015625 232.363281 286.476563 C 234.519531 286.476563 234.355469 284.152344 235.183594 282.992188 C 236.160156 285.824219 236.886719 288.722656 237.585938 291.605469 C 239.375 299.039063 241.050781 296.734375 239.238281 290.265625 C 237.921875 285.566406 236.519531 280.996094 234.355469 277.015625 C 232.195313 277.847656 233.691406 281 233.191406 282.992188 C 223.566406 271.703125 224.394531 254.109375 221.242188 239.167969 C 218.085938 240.328125 220.910156 245.476563 218.917969 247.800781 C 215.265625 239.832031 215.929688 229.207031 215.265625 219.578125 C 211.113281 221.238281 213.4375 227.714844 211.777344 231.53125 C 211.777344 234.6875 210.78125 230.867188 210.449219 230.371094 C 208.957031 227.546875 210.449219 222.734375 207.796875 221.238281 C 206.632813 222.898438 206.800781 224.558594 204.972656 225.554688 C 204.144531 221.238281 199.828125 215.265625 202.484375 209.289063 C 201.320313 206.964844 200.324219 209.953125 200.160156 210.78125 C 199.660156 212.773438 199.992188 214.933594 198.5 216.425781 C 196.507813 205.46875 201.652344 193.519531 204.972656 182.894531 C 202.980469 182.5625 202.484375 186.214844 200.160156 186.878906 C 199.660156 180.570313 203.976563 175.09375 205.304688 169.449219 C 208.789063 162.808594 213.4375 158.160156 221.242188 156.167969 C 219.414063 153.015625 213.9375 155.835938 210.949219 153.84375 C 216.261719 150.691406 222.402344 146.539063 230.371094 148.199219 C 232.195313 147.371094 230.371094 146.042969 230.867188 144.714844 C 229.707031 142.222656 226.71875 143.054688 224.894531 141.558594 C 237.839844 139.234375 252.28125 145.046875 262.742188 136.746094 C 262.078125 139.070313 261.746094 141.726563 264.734375 143.054688 C 270.710938 142.390625 263.738281 148.199219 263.902344 151.023438 C 264.234375 153.015625 263.238281 155.171875 264.734375 156.664063 C 266.0625 156.167969 266.394531 155.007813 267.554688 155.503906 C 267.222656 162.308594 261.746094 171.441406 267.886719 176.585938 C 269.878906 175.757813 269.878906 173.929688 271.539063 172.933594 C 271.207031 174.761719 270.210938 180.070313 272.203125 182.5625 C 273.03125 182.5625 274.859375 180.734375 274.691406 182.5625 C 273.695313 185.382813 272.699219 190.863281 275.523438 192.523438 C 282.496094 190.363281 274.527344 203.3125 282.164063 202.8125 C 280.171875 207.128906 281 213.4375 282.992188 217.257813 C 284.488281 217.921875 284.320313 215.929688 285.484375 216.425781 C 286.644531 220.410156 282.496094 226.71875 287.476563 227.878906 C 288.96875 227.050781 289.136719 224.890625 290.628906 224.726563 C 291.234375 226.335938 291.320313 228.296875 291.433594 230.238281 C 291.59375 233.105469 293.757813 231.203125 293.253906 229.429688 C 292.367188 226.308594 292.425781 222.539063 292.953125 219.578125 C 293.285156 218.417969 294.113281 217.589844 294.113281 216.425781 C 293.449219 216.09375 293.117188 215.265625 292.121094 215.597656 C 290.628906 218.417969 290.628906 222.734375 287.476563 224.394531 C 286.148438 218.253906 287.972656 211.945313 288.140625 206.464844 C 286.148438 207.628906 285.648438 212.277344 283.492188 212.441406 C 282.164063 204.308594 286.976563 198.332031 287.476563 190.863281 C 283.160156 191.359375 284.488281 197.171875 281.5 199.660156 C 278.011719 195.179688 282.992188 188.207031 281.832031 182.5625 C 278.511719 183.890625 280.503906 189.367188 276.683594 190.53125 C 275.6875 185.382813 276.683594 179.738281 277.515625 175.425781 C 275.355469 175.425781 275.191406 178.910156 273.03125 179.40625 C 272.535156 173.433594 275.355469 167.953125 277.515625 162.640625 C 274.027344 161.480469 274.527344 166.128906 272.203125 168.121094 C 270.875 169.449219 269.214844 175.257813 267.058594 172.601563 C 266.558594 164.632813 269.382813 157.992188 270.710938 150.691406 C 268.71875 150.027344 268.550781 153.511719 265.894531 152.683594 C 266.726563 146.539063 271.703125 141.226563 275.523438 137.574219 C 275.355469 137.078125 275.6875 136.246094 275.023438 135.914063 C 271.039063 136.910156 269.546875 141.394531 264.734375 140.730469 C 263.738281 135.75 270.710938 132.597656 273.03125 129.109375 C 270.046875 129.609375 266.0625 131.269531 263.570313 133.59375 C 266.890625 126.621094 270.542969 121.640625 277.515625 115.996094 C 277.515625 115.164063 277.347656 113.839844 276.1875 114.335938 C 275.023438 114.171875 271.371094 117.488281 272.699219 114.003906 C 277.679688 108.691406 285.152344 104.707031 290.960938 100.390625 C 290.132813 97.570313 285.484375 99.394531 283.492188 98.898438 C 285.648438 93.585938 292.121094 93.753906 295.441406 90.433594 C 293.949219 88.9375 291.460938 89.933594 289.800781 89.269531 C 296.605469 85.285156 305.902344 87.277344 313.371094 84.457031 C 317.1875 83.460938 313.867188 88.441406 317.355469 88.441406 C 316.855469 91.925781 312.539063 89.933594 310.882813 92.09375 C 308.058594 93.421875 306.234375 94.582031 303.742188 96.90625 C 304.242188 98.234375 305.570313 99.5625 307.394531 100.058594 C 304.574219 102.882813 302.082031 107.03125 303.742188 111.679688 C 305.070313 114.835938 308.390625 113.339844 310.550781 114.835938 C 309.222656 117.324219 305.734375 122.636719 311.378906 123.632813 C 312.539063 123.300781 314.199219 124.296875 314.863281 122.800781 C 314.53125 120.144531 310.714844 123.132813 310.550781 119.980469 C 310.382813 116.660156 313.867188 116.824219 313.703125 113.671875 C 311.546875 110.1875 304.574219 114.335938 305.402344 108.359375 C 305.902344 105.371094 307.230469 103.214844 309.71875 101.71875 C 311.378906 101.886719 312.539063 101.386719 313.703125 100.390625 C 314.035156 97.570313 308.722656 99.5625 306.898438 97.238281 C 309.386719 94.582031 312.871094 92.757813 316.027344 92.921875 C 320.011719 94.25 322.003906 97.402344 325.988281 98.398438 C 330.46875 103.546875 323.496094 113.671875 331.964844 116.824219 C 328.976563 120.644531 334.121094 123.464844 334.785156 126.289063 C 338.269531 133.425781 349.890625 127.78125 351.21875 137.574219 C 352.546875 140.230469 364.167969 140.398438 355.867188 144.214844 C 340.925781 154.175781 330.800781 166.625 321.671875 182.5625 C 321.378906 183.601563 321.980469 184.140625 322.5 183.390625 C 332.128906 168.617188 345.410156 150.855469 362.339844 142.722656 C 363.339844 145.210938 364.832031 147.203125 367.15625 148.699219 C 353.378906 157.828125 343.582031 172.933594 338.4375 187.375 C 338.25 188.144531 338.792969 188.621094 339.386719 187.375 C 345.53125 172.4375 355.203125 159.488281 368.316406 150.191406 C 371.636719 150.191406 374.625 152.019531 377.445313 151.851563 C 370.769531 159.207031 363.644531 168.40625 360.175781 178.199219 C 359.902344 178.980469 360.851563 179.402344 361.152344 178.722656 C 365.367188 169.242188 373.546875 156.019531 381.097656 151.851563 C 389.898438 149.03125 399.027344 154.507813 405.335938 159.488281 C 418.121094 164.375 425.6875 164.835938 433.847656 152.121094 C 435.71875 149.207031 438 147.078125 442.851563 148.699219 C 447.003906 147.703125 447.5 144.214844 450.820313 141.890625 C 455.964844 143.882813 461.609375 144.714844 467.421875 143.550781 C 478.542969 150.359375 488.667969 155.671875 494.976563 167.457031 C 495.390625 168.121094 496.554688 167.746094 496.136719 166.625 C 490.160156 155.171875 479.539063 148.035156 469.078125 142.222656 C 468.25 140.5625 471.402344 140.066406 471.902344 138.738281 C 490.867188 144.464844 498.550781 155.355469 505.511719 163.351563 C 506.34375 164.285156 506.722656 164.023438 506.476563 163.109375 C 499.582031 151.726563 486.332031 142.832031 479.679688 139.929688 C 477.769531 139.007813 483.03125 138.503906 485.015625 137.574219 C 485.898438 135.328125 487.285156 134.828125 488.820313 135.023438 C 494.710938 135.230469 506.097656 142.722656 511.242188 146.707031 C 511.574219 149.527344 515.226563 150.523438 514.894531 153.84375 "/>
</g>
</svg>
