<?xml version="1.0" encoding="UTF-8"?>
<svg xmlns="http://www.w3.org/2000/svg" xmlns:xlink="http://www.w3.org/1999/xlink" width="521pt" height="518pt" viewBox="0 0 521 518" version="1.1">
<g id="surface1">
<path style=" stroke:none;fill-rule:nonzero;fill:rgb(0%,0%,0%);fill-opacity:1;" d="M 45.105469 183.464844 C 67.042969 161.878906 96.574219 157.210938 125.707031 156.859375 C 129.113281 157.035156 129.359375 155.851563 128.867188 154.402344 C 121.320313 147.382813 117.460938 137.90625 117.460938 127.199219 C 120.617188 106.492188 134.480469 88.238281 152.910156 76.128906 C 157.011719 74.421875 159.871094 67.632813 154.839844 65.949219 C 84.613281 55.921875 -75.96875 165.257813 42.871094 231.449219 C 53.265625 236.757813 38.527344 221.621094 36.027344 215.652344 C 29.707031 202.839844 36.507813 192.414063 45.105469 183.464844 "/>
<path style=" stroke:none;fill-rule:nonzero;fill:rgb(0%,0%,0%);fill-opacity:1;" d="M 385.089844 124.8125 C 386.152344 114.800781 382.34375 113.070313 380.703125 122.183594 C 376.203125 140.589844 374.765625 154.601563 354.730469 169.566406 C 336.128906 182.378906 309.800781 185.539063 288.390625 176.585938 C 272.59375 168.863281 258.230469 153.992188 259.632813 135.214844 C 241.765625 135.253906 229.773438 135.871094 215.207031 135.519531 C 210.234375 145.789063 199.367188 177.242188 153.253906 160.792969 C 162 189 226.398438 220.472656 245.566406 222.042969 C 293.480469 227.65625 339.460938 211.160156 368.769531 170.796875 C 377.089844 157.097656 383.03125 141.105469 385.089844 124.8125 "/>
<path style=" stroke:none;fill-rule:nonzero;fill:rgb(0%,0%,0%);fill-opacity:1;" d="M 185.566406 204.121094 C 166.808594 202.402344 145.335938 167.628906 140.417969 165.324219 C 117.730469 155.859375 64.660156 169.273438 52.722656 182.433594 C 48.332031 187.472656 60.085938 186.183594 67.832031 190 C 102.753906 208.78125 145.683594 227.488281 187.101563 208.355469 C 189.207031 207.273438 191.019531 204.621094 185.566406 204.121094 "/>
<path style=" stroke:none;fill-rule:nonzero;fill:rgb(0%,0%,0%);fill-opacity:1;" d="M 416.117188 221.542969 C 440.363281 199.132813 441.542969 139.671875 418.441406 103.878906 C 395.089844 70.996094 361.179688 50.746094 323.445313 55.371094 C 310.09375 57.039063 298.460938 59.585938 288.308594 64.601563 C 269.042969 74.121094 255.109375 90.828125 244.867188 115.335938 C 237.496094 114.8125 206.78125 113.054688 199.410156 113.933594 C 195.21875 134.335938 184.605469 136.671875 172.769531 137.488281 C 157.632813 135.449219 148.359375 124.628906 148.777344 118.066406 C 143.511719 117.464844 136.089844 118.175781 130.574219 118.347656 C 126.050781 118.871094 127.839844 122.433594 127.980469 124.113281 C 135.371094 149.902344 153.640625 159.839844 170.933594 159.636719 C 193.003906 158.773438 204.242188 149.964844 208.449219 132.039063 C 209.015625 128.738281 211.246094 129.648438 214.738281 129.402344 C 227.054688 129.210938 246.726563 129.039063 258.121094 128.546875 C 263.152344 128.570313 266.148438 66.300781 345.253906 72.339844 C 371.753906 77.957031 395.039063 95.632813 411.933594 118.621094 C 432.195313 145.753906 434.117188 191.886719 415.484375 220.855469 C 414.113281 222.984375 415.171875 222.210938 416.117188 221.542969 "/>
<path style=" stroke:none;fill-rule:nonzero;fill:rgb(0%,0%,0%);fill-opacity:1;" d="M 441.789063 128.425781 C 431.9375 71.722656 381.554688 38.011719 342.304688 33.886719 C 295.097656 29.675781 253.640625 44.785156 229.070313 89.363281 C 226.789063 92.773438 223.820313 92.570313 221.523438 90.066406 C 212.574219 80.0625 199.410156 75.324219 186.773438 74.796875 C 161.855469 72.867188 139.390625 90.3125 129.210938 112.074219 C 135.800781 112.007813 142.722656 112.179688 149.394531 112.703125 C 155.019531 94.472656 166.40625 88.304688 177.207031 88.316406 C 189.941406 88.328125 198.398438 96.0625 202.570313 104.457031 C 214.679688 105.335938 226.613281 106.726563 239.25 107.089844 C 246.074219 94.101563 253.640625 83.921875 263.820313 73.566406 C 291.300781 49.113281 310.164063 35.238281 368.769531 52.15625 C 401.695313 62.007813 433.9375 94.628906 440.804688 128.738281 C 440.988281 129.660156 442.042969 129.5625 441.789063 128.425781 "/>
<path style=" stroke:none;fill-rule:nonzero;fill:rgb(0%,0%,0%);fill-opacity:1;" d="M 164.429688 70.011719 C 173.796875 67.429688 182.347656 68.347656 188.601563 69.035156 C 190.144531 69.441406 192.773438 66.082031 195.550781 62.160156 C 249.023438 7.371094 322.480469 3.429688 371.535156 20.515625 C 381.46875 23.976563 390.402344 28.296875 397.964844 33.234375 C 410.289063 40.558594 411.59375 38.523438 398.980469 31.214844 C 390.84375 26.132813 382.617188 21.34375 374 17.128906 C 350.042969 5.40625 323.074219 -1.894531 286.703125 1.269531 C 254.46875 6.695313 215.878906 14.785156 163.433594 66.019531 C 159.175781 68.875 162.066406 70.871094 164.429688 70.011719 "/>
<path style=" stroke:none;fill-rule:nonzero;fill:rgb(0%,0%,0%);fill-opacity:1;" d="M 213.976563 51.453125 C 207.835938 55.84375 201.351563 63.097656 195.910156 68.714844 C 195.199219 71.320313 211.550781 72.414063 219.890625 80.671875 C 221.886719 82.289063 223.488281 82.648438 225.210938 80.589844 C 241.53125 56.367188 261.871094 38.910156 288.546875 32.066406 C 343.921875 15.882813 383.972656 37.632813 418.609375 67.199219 C 419.746094 68.171875 420.519531 67.546875 419.585938 66.425781 C 349.664063 -17.316406 252.605469 20.890625 213.976563 51.453125 "/>
<path style=" stroke:none;fill-rule:nonzero;fill:rgb(0%,0%,0%);fill-opacity:1;" d="M 298.695313 380.957031 C 296.785156 334.488281 296.53125 290.203125 283.40625 246.910156 C 281.324219 240.242188 280.445313 230.441406 273.433594 230.640625 C 240.488281 234.121094 205.21875 214.535156 195.210938 212.472656 C 192.46875 211.914063 191.003906 212.234375 194.421875 214.371094 C 255.261719 253.296875 279.871094 319.019531 291.839844 382.023438 C 296.597656 407.066406 299.078125 408.046875 298.695313 380.957031 "/>
<path style=" stroke:none;fill-rule:nonzero;fill:rgb(0%,0%,0%);fill-opacity:1;" d="M 412.667969 252 C 414 238 415.222656 219.335938 408.480469 225.808594 C 398.652344 233.179688 389 240.902344 378.117188 245.464844 C 370.5625 249.296875 374.957031 253.933594 374.433594 263.71875 C 378.820313 404.339844 301.425781 494.328125 271.414063 515.914063 C 268.945313 517.578125 269.0625 519.0625 273.871094 516.441406 C 285.277344 509.59375 295.984375 501.347656 306.164063 491.871094 C 354.785156 447.890625 379 405 396 342 C 400 327 412.667969 279.332031 412.667969 252 "/>
<path style=" stroke:none;fill-rule:nonzero;fill:rgb(0%,0%,0%);fill-opacity:1;" d="M 309.394531 447.984375 C 306.691406 458.175781 309.953125 459.605469 314.59375 449.898438 C 317.074219 444.828125 319.066406 440.132813 322.136719 432.800781 C 349.460938 362.960938 365.078125 285.671875 366.65625 208.28125 C 366.976563 202.101563 366.519531 183.96875 361.699219 189.296875 C 340.863281 207.933594 317.953125 221.640625 291.9375 227.960938 C 290.554688 228.175781 288.664063 227.359375 291.382813 231.640625 C 304.367188 257.878906 312.410156 288.472656 314.851563 316.566406 C 319 344 319.578125 394.9375 312.648438 432.230469 C 311.660156 437.554688 310.570313 442.816406 309.394531 447.984375 "/>
<path style=" stroke:none;fill-rule:nonzero;fill:rgb(0%,0%,0%);fill-opacity:1;" d="M 445.179688 152.746094 C 443.261719 144.871094 438.445313 141.671875 439.980469 153.441406 C 443.464844 179.242188 442.203125 209.359375 419.839844 228.359375 C 420.367188 249.945313 419.664063 272.058594 415.453125 293.472656 C 403.027344 347.679688 390.269531 397.742188 367 447 C 366.878906 447.261719 361.707031 461.425781 368 453.5 C 368.230469 453.207031 369.941406 450.824219 370.171875 450.53125 C 374.683594 444.796875 426.886719 361.9375 445.816406 237.835938 C 449.148438 212.742188 450.910156 176.53125 445.179688 152.746094 "/>
<path style=" stroke:none;fill-rule:nonzero;fill:rgb(0%,0%,0%);fill-opacity:1;" d="M 396.21875 226.390625 C 411.402344 216.566406 418.121094 197.390625 419.839844 179.746094 C 421.070313 158.160156 412.292969 140.257813 397.199219 126.042969 C 394.136719 123.230469 387.957031 119.035156 388.25 126.570313 C 388.777344 147.628906 378.441406 165.480469 368.066406 182.90625 C 366.96875 184.652344 368.78125 184.988281 372.789063 184.214844 C 414.027344 181.523438 402.105469 215.746094 395.429688 222.238281 C 389.105469 228.824219 376.652344 239.425781 396.21875 226.390625 "/>
<path style=" stroke:none;fill-rule:nonzero;fill:rgb(0%,0%,0%);fill-opacity:1;" d="M 510.925781 101.296875 C 493.375 64.96875 457.046875 39.871094 416.15625 40.75 C 412.371094 40.652344 403.847656 41.0625 411.066406 48.296875 C 419.488281 56.546875 425.984375 65.671875 432.476563 74.796875 C 486.660156 85.410156 512.691406 158.453125 512.316406 213.003906 C 512.28125 217.867188 514.292969 216.746094 514.769531 213.089844 C 519.640625 175.859375 525.46875 135.8125 510.925781 101.296875 "/>
<path style=" stroke:none;fill-rule:nonzero;fill:rgb(0%,0%,0%);fill-opacity:1;" d="M 428.476563 78.96875 C 427.53125 78.707031 426.496094 79.710938 427.574219 80.84375 C 443.347656 96.019531 451.472656 115.027344 447.746094 139.207031 C 452.308594 155.527344 457.222656 172.550781 457.75 189.75 C 461.605469 240.488281 452.3125 288.652344 441.429688 334.601563 C 439.929688 340.9375 434.230469 353.984375 436.863281 353.492188 C 439.5 353 444.367188 341.757813 447.472656 335.773438 C 464.570313 302.8125 477.226563 267.65625 488.8125 232.746094 C 501.625 188.347656 495.214844 139.121094 462.136719 103.226563 C 451.847656 91.773438 439.992188 82.933594 428.476563 78.96875 "/>
<path style=" stroke:none;fill-rule:nonzero;fill:rgb(0%,0%,0%);fill-opacity:1;" d="M 191.691406 113.554688 C 191.691406 104.414063 184.285156 97.007813 175.148438 97.007813 C 166.007813 97.007813 158.601563 104.414063 158.601563 113.554688 C 158.601563 122.691406 166.007813 130.101563 175.148438 130.101563 C 184.285156 130.101563 191.691406 122.691406 191.691406 113.554688 "/>
</g>
</svg>
