<?xml version="1.0" encoding="UTF-8"?>
<svg xmlns="http://www.w3.org/2000/svg" xmlns:xlink="http://www.w3.org/1999/xlink" width="521pt" height="451pt" viewBox="0 0 521 451" version="1.1">
<g id="surface1">
<path style=" stroke:none;fill-rule:nonzero;fill:rgb(0%,0%,0%);fill-opacity:1;" d="M 170.464844 155.140625 C 232.082031 163.953125 245.144531 86.511719 216.636719 34.796875 C 189.910156 -13.683594 143.71875 -10.011719 123.003906 42.53125 C 105.960938 85.761719 114.910156 147.191406 170.464844 155.140625 "/>
<path style=" stroke:none;fill-rule:nonzero;fill:rgb(0%,0%,0%);fill-opacity:1;" d="M 375.433594 104.609375 C 381.796875 75.355469 380.609375 46.972656 361.097656 21.886719 C 339.742188 -5.5625 318.46875 -4.878906 294.210938 20.539063 C 274.425781 41.277344 267.023438 76.4375 273.925781 103.839844 C 288.082031 160.046875 363.640625 158.855469 375.433594 104.609375 "/>
<path style=" stroke:none;fill-rule:nonzero;fill:rgb(0%,0%,0%);fill-opacity:1;" d="M 454.640625 153.128906 C 405.296875 172.308594 390.230469 223.023438 423.925781 256.765625 C 456.695313 289.578125 504.742188 257.960938 517.347656 211.140625 C 530.875 160.875 501.351563 134.972656 454.640625 153.128906 "/>
<path style=" stroke:none;fill-rule:nonzero;fill:rgb(0%,0%,0%);fill-opacity:1;" d="M 93.429688 192.292969 C 64.769531 115.292969 -10.375 150.433594 1.359375 214.886719 C 19.597656 315.078125 125.671875 278.90625 93.429688 192.292969 "/>
<path style=" stroke:none;fill-rule:nonzero;fill:rgb(0%,0%,0%);fill-opacity:1;" d="M 410.960938 321.460938 C 377.371094 308.683594 363.746094 302.132813 345.207031 277.636719 C 336.871094 266.625 315.96875 240.320313 304.710938 231.425781 C 289.632813 219.503906 275.199219 217.664063 256.214844 227.644531 C 247.761719 232.089844 242.148438 232.898438 234.242188 227.820313 C 211.304688 213.097656 195.304688 226.046875 177.589844 254.683594 C 160.859375 281.71875 141.242188 308.488281 108.773438 323.3125 C 75.140625 338.667969 69.261719 355.199219 82.039063 384.707031 C 95.707031 416.277344 150.453125 432.296875 184.113281 418.683594 C 170.480469 374.191406 185.394531 342.449219 214.417969 315.355469 C 215.894531 313.976563 216.71875 314.414063 215.105469 316.386719 C 195.042969 344.140625 181.699219 375.515625 185.75 406.890625 C 192.128906 456.320313 258.28125 462.683594 300.355469 432.515625 C 316.625 391.179688 306.445313 343.136719 288.960938 299.570313 C 288.289063 297.902344 289.230469 297.351563 290.320313 298.796875 C 314.324219 330.589844 318.1875 383.054688 311.128906 422.273438 C 345.128906 442.285156 420.433594 409.160156 437.863281 372.53125 C 449.644531 347.777344 440.289063 332.617188 410.960938 321.460938 "/>
</g>
</svg>
