<?xml version="1.0" encoding="UTF-8"?>
<svg xmlns="http://www.w3.org/2000/svg" xmlns:xlink="http://www.w3.org/1999/xlink" width="508pt" height="613pt" viewBox="0 0 508 613" version="1.1">
<g id="surface1">
<path style=" stroke:none;fill-rule:nonzero;fill:rgb(0%,0%,0%);fill-opacity:1;" d="M 505.910156 161.875 C 497.847656 140.664063 482.65625 135.304688 473.382813 131.3125 C 473.273438 128.398438 475.539063 126.347656 475.429688 123.328125 C 478.128906 117.609375 476.941406 108.765625 476.507813 103.371094 C 476.507813 97.222656 471.113281 93.015625 472.625 86.542969 C 474.351563 81.257813 477.910156 75.863281 475.429688 69.714844 C 471.761719 66.15625 474.351563 60.328125 475.429688 56.554688 C 478.234375 42.636719 483.84375 23.652344 474.675781 10.707031 C 473.703125 9.628906 474.351563 8.011719 473.058594 7.039063 C 471.007813 7.6875 472.289063 4.449219 470.128906 5.3125 C 468.511719 3.804688 466.453125 3.292969 463.996094 4.234375 C 462.808594 5.960938 460.757813 6.824219 459.140625 8.117188 C 452.238281 13.402344 445.550781 21.601563 438.644531 27.320313 C 432.820313 31.742188 428.613281 38.214844 422.894531 41.992188 C 421.0625 44.148438 418.6875 45.441406 415.882813 45.875 C 402.9375 47.816406 390.640625 43.609375 377.589844 43.609375 C 375.429688 43.285156 373.382813 42.207031 371.65625 41.558594 C 362.917969 35.085938 356.335938 26.457031 349.109375 18.691406 C 340.371094 12.21875 334.113281 -0.1875 320.847656 0.890625 C 316.421875 1.320313 314.480469 6.714844 312.863281 9.953125 C 311.351563 15.886719 310.597656 22.464844 311.246094 29.046875 C 313.402344 42.097656 313.726563 52.238281 313.402344 65.292969 C 313.402344 69.824219 310.273438 73.167969 311.027344 78.019531 C 311.890625 78.992188 314.15625 80.070313 313.617188 82.121094 C 316.421875 84.492188 316.746094 88.808594 317.285156 92.476563 C 316.960938 100.136719 315.882813 107.363281 315.128906 114.808594 C 315.777344 117.289063 316.097656 120.308594 315.992188 123.328125 C 316.640625 124.300781 317.363281 125.132813 317.039063 126.429688 C 310.023438 127.636719 301.902344 136.027344 294.1875 139.382813 C 291.15625 140.875 291.761719 141.800781 294.109375 140.464844 C 301.902344 137.058594 312.816406 127.878906 316.773438 127.675781 C 319.835938 127.332031 321.410156 133.023438 325.269531 131.097656 C 329.292969 132.867188 331.742188 130.230469 334.546875 130.015625 C 341.449219 128.074219 344.253906 122.898438 350.941406 120.199219 C 351.699219 122.140625 351.699219 125.132813 350.941406 126.753906 C 340.800781 133.007813 330.878906 141.558594 319.335938 145.875 C 317.914063 139.1875 319.335938 135.410156 318.796875 130.339844 C 317.285156 130.230469 318.226563 132.175781 317.472656 132.929688 C 317.148438 138.753906 314.15625 142.746094 312.109375 147.925781 C 308.566406 148.59375 302.800781 152.539063 300.699219 154.90625 C 298.933594 156.902344 300.8125 156.613281 301.734375 155.6875 C 304.820313 152.582031 307.945313 150.46875 311.371094 149.796875 C 310.183594 152.710938 309.03125 156.769531 308.167969 159.574219 C 305.253906 164.96875 304.019531 170.792969 300.457031 175.863281 C 299.378906 179.421875 296.25 182.875 293.121094 184.925781 C 290.53125 187.296875 274.242188 196.683594 267.015625 196.574219 C 263.5625 198.839844 258.710938 198.625 254.609375 199.703125 C 234.871094 196.683594 217.609375 195.496094 197.652344 198.625 C 190.101563 200.566406 182.117188 202.941406 174.566406 205.636719 C 164.75 209.195313 155.796875 214.375 147.921875 221.710938 C 138.320313 230.125 131.632813 237.890625 124.40625 246.304688 C 95.636719 279.300781 87.210938 312.296875 72.324219 347.785156 C 71.03125 356.308594 67.59375 363.335938 66.835938 371.964844 C 65.648438 374.015625 67.066406 376.726563 65.664063 378.34375 C 65.664063 383.308594 64.921875 387.839844 63.953125 392.367188 C 64.492188 400.242188 61.046875 406.679688 61.261719 414.445313 C 61.714844 416.878906 62.304688 419.984375 61.335938 421.277344 C 60.039063 435.085938 63.023438 449.328125 64.859375 462.703125 C 66.585938 465.074219 63.832031 469.5 66.417969 471.765625 C 68.902344 484.0625 71.625 497.332031 76.695313 507.578125 C 77.667969 512.21875 79.746094 516.425781 80.824219 520.957031 C 79.097656 524.300781 76.722656 520.199219 74.351563 521.496094 C 59.574219 514.050781 41.019531 518.582031 26.457031 523.542969 C 22.894531 527.425781 17.394531 528.289063 15.128906 533.46875 C 14.804688 535.84375 18.257813 534.117188 19.550781 534.980469 C 18.6875 537.136719 16.746094 537.460938 15.128906 538.863281 C 14.371094 542.636719 9.410156 543.609375 9.410156 547.925781 C 5.417969 553.316406 3.046875 558.820313 2.183594 565.507813 C 0.0273438 569.824219 0.90625 573.632813 1.878906 578.269531 C 3.5625 581.429688 4.125 579.207031 4.015625 578.238281 C 5.25 575.109375 7.566406 573.84375 6.726563 576.796875 C 8.894531 583.734375 9.816406 589.636719 12 592.476563 C 14.480469 593.769531 15.777344 591.074219 16.640625 589.5625 C 20.84375 595.820313 28.71875 599.488281 34.761719 603.371094 C 42.851563 608.980469 53.53125 611.785156 63.566406 610.816406 C 65.929688 607.765625 67.554688 612.21875 69.714844 612.648438 C 77.480469 613.1875 86.757813 612.324219 93.015625 607.472656 C 97.542969 603.695313 104.234375 607.578125 108.871094 604.125 C 115.34375 606.285156 122.894531 606.714844 130.554688 606.390625 C 133.574219 608.226563 137.027344 607.253906 140.15625 608.011719 C 161.730469 607.6875 181.808594 606.925781 204.878906 606.929688 C 208.546875 608.117188 212.109375 606.929688 216.316406 606.929688 C 227.855469 608.875 239.617188 605.636719 251.480469 606.714844 C 271.007813 604.019531 291.289063 609.519531 309.949219 608.011719 C 310.703125 607.902344 311.625 606.824219 312.273438 606.714844 C 317.285156 607.136719 319.441406 605.421875 323.433594 605.097656 C 331.769531 606.871094 343.800781 594.988281 341.019531 587.515625 C 341.882813 584.277344 338.753906 583.632813 337.675781 581.363281 C 338.753906 578.558594 339.9375 575.863281 338.753906 572.734375 C 336.988281 566.339844 319.660156 561.410156 315.453125 561.410156 C 302.746094 559.308594 294 559.683594 282.132813 559.789063 C 281.703125 559.46875 280.824219 559.46875 280.714844 558.820313 C 286.539063 553.316406 291.828125 546.304688 296.574219 540.371094 C 301.859375 531.851563 307.792969 522.25 312.109375 513.1875 C 316.316406 505.203125 320.304688 495.929688 322.894531 486.328125 C 322.894531 484.925781 322.894531 483.308594 323.972656 482.660156 C 333.789063 499.8125 339.078125 518.796875 345.765625 536.488281 C 353.964844 554.503906 358.492188 575.214844 370.035156 590.644531 C 375.214844 597.332031 384.277344 598.949219 391.828125 601 C 394.09375 601.214844 405.960938 600.460938 409.410156 599.703125 C 413.726563 598.839844 421.0625 601.429688 423.867188 596.898438 C 429.691406 596.898438 432.605469 591.398438 434.546875 587.515625 C 439.183594 587.621094 443.824219 588.59375 448.03125 586.757813 C 455.472656 585.03125 463.023438 581.90625 465.074219 573.8125 C 464.644531 566.15625 457.199219 563.890625 451.050781 561.410156 C 448.136719 560.976563 445.117188 560.113281 442.3125 560.328125 C 439.398438 560.113281 437.136719 558.925781 435.515625 556.769531 C 432.28125 556.121094 431.308594 550.945313 429.585938 548.140625 C 424.441406 541.417969 415.992188 489.78125 414.371094 461.191406 C 414.835938 450.589844 414.695313 439.402344 415.34375 435.304688 C 415.496094 429.105469 418.902344 404.882813 422.140625 390.75 C 427.75 373.058594 435.410156 353.964844 442.527344 336.921875 C 454.824219 305.960938 467.261719 273.707031 463.484375 237.242188 C 459.601563 226.886719 464.5 215.777344 464.929688 205.636719 C 467.410156 198.515625 467.339844 189.132813 464.859375 181.582031 C 462.378906 176.402344 462.054688 170.46875 461.945313 164.535156 C 462.59375 163.78125 462.917969 163.242188 463.78125 163.242188 C 468.777344 168.238281 480.570313 184.488281 479.800781 201.273438 C 479.480469 206.570313 481.179688 206.679688 481.429688 200.871094 C 482.777344 183.433594 469.605469 166.800781 464.859375 162.164063 C 465.722656 161.300781 466.152344 160.652344 467.125 160.113281 C 467.769531 157.847656 469.699219 157.273438 469.914063 155.007813 C 470.5625 154.253906 470.101563 152.050781 471.71875 152.269531 C 473.984375 155.394531 484.152344 167.421875 488.746094 185.824219 C 490.59375 191.640625 491.871094 191.328125 489.546875 184.40625 C 486.257813 168.6875 478.429688 156.566406 471.546875 150.296875 C 473.617188 145.71875 474.039063 144.457031 473.597656 139.617188 C 475.515625 135.605469 471.429688 134.730469 474.019531 133.21875 C 488.039063 138.503906 496.730469 145.894531 504.984375 162.574219 C 507.539063 168.265625 508.472656 167.632813 505.910156 161.875 Z M 457.847656 49.003906 C 460.652344 50.082031 462.054688 48.140625 464.535156 47.707031 C 464.644531 45.117188 466.691406 42.207031 464.859375 39.726563 C 463.78125 38.429688 462.054688 37.785156 462.699219 35.519531 C 463.671875 33.46875 465.613281 35.195313 466.90625 35.519531 C 467.554688 38.324219 470.683594 36.488281 471.332031 39.1875 C 471.980469 38.324219 473.390625 37.027344 473.5 35.625 C 473.066406 30.445313 469.714844 28.398438 467.125 24.191406 C 465.289063 23.542969 463.242188 22.464844 462.269531 20.308594 C 462.378906 16.964844 465.507813 18.367188 467.449219 16.964844 C 470.792969 16.640625 473.488281 17.933594 474.890625 20.847656 C 475.105469 22.574219 474.460938 24.839844 475.429688 26.023438 C 475.539063 32.820313 475.539063 38.429688 473.382813 44.578125 C 473.058594 48.464844 474.027344 51.914063 472.625 55.261719 C 474.027344 58.710938 472.300781 62.054688 471.007813 65.074219 C 470.683594 66.046875 469.714844 65.398438 468.957031 65.617188 C 467.769531 62.703125 467.878906 58.710938 466.152344 55.800781 C 463.886719 53.640625 461.40625 51.375 457.847656 51.59375 C 457.089844 51.699219 456.445313 52.5625 455.796875 51.914063 C 455.472656 50.296875 456.875 49.867188 457.847656 49.003906 Z M 453.964844 54.503906 C 454.503906 56.121094 456.660156 55.582031 457.523438 54.9375 C 459.355469 53.75 461.621094 55.261719 463.023438 56.015625 C 463.996094 58.710938 465.289063 61.300781 464.859375 64.535156 C 465.722656 66.910156 468.09375 68.742188 470.792969 68.960938 C 471.871094 67.449219 473.382813 66.585938 473.921875 68.960938 C 477.265625 76.941406 471.222656 83.199219 470.46875 90.210938 C 467.125 87.839844 466.046875 83.089844 461.40625 84.492188 C 458.277344 83.953125 453.964844 82.984375 453.207031 79.316406 C 453.855469 75.863281 452.128906 72.410156 451.589844 69.5 C 449.324219 66.261719 445.484375 68.664063 442.679688 66.074219 C 442.785156 63.917969 445.269531 63.027344 446.023438 61.40625 C 448.71875 58.710938 449.972656 55.800781 451.050781 52.132813 C 452.019531 52.886719 454.394531 52.5625 453.964844 54.503906 Z M 429.367188 98.734375 C 432.683594 99.988281 440.917969 97.734375 438.644531 85.03125 C 440.910156 87.082031 442.613281 91.039063 445.117188 92.800781 C 445.871094 96.789063 442.203125 99.164063 439.398438 101.105469 C 435.144531 103.75 429.800781 104.34375 425.160156 101.863281 C 423.003906 100.460938 420.847656 99.164063 419.765625 96.683594 C 418.578125 91.828125 421.601563 88.269531 423.867188 84.277344 C 424.441406 82.945313 424.820313 83.277344 424.730469 84.277344 C 425.054688 89.238281 424.296875 96.035156 429.367188 98.734375 Z M 427.75 81.148438 C 429.476563 82.011719 431.308594 78.238281 431.957031 81.363281 C 431.957031 82.660156 431.957031 83.953125 431.957031 85.25 C 431.203125 85.679688 431.417969 87.296875 430.121094 86.867188 C 428.9375 85.03125 428.179688 83.199219 427.75 81.148438 Z M 443.285156 85.570313 C 440.15625 81.472656 436.59375 76.617188 431.203125 77.480469 C 429.800781 76.296875 428.179688 77.589844 426.777344 77.804688 C 424.515625 80.609375 421.589844 82.421875 419.226563 84.710938 C 419.785156 82.300781 420.738281 80.71875 422.355469 79.316406 C 425.160156 75 430.339844 75.757813 434.546875 75.648438 C 441.664063 77.589844 444.46875 85.25 447.492188 90.425781 C 448.460938 91.289063 452.992188 91.828125 450.617188 93.015625 C 447.382813 91.503906 443.605469 89.886719 443.285156 85.570313 Z M 450.835938 44.363281 C 451.804688 44.578125 451.160156 46.199219 451.375 47.167969 C 449.757813 53.964844 444.753906 60.285156 440.261719 66.585938 C 439.800781 62.179688 449.757813 52.777344 450.835938 44.363281 Z M 446.734375 52.132813 C 444.6875 54.503906 443.175781 56.878906 441.558594 59.683594 C 440.261719 57.957031 438.320313 56.878906 436.378906 56.230469 C 438.105469 54.71875 440.15625 52.238281 441.019531 50.082031 C 442.636719 52.453125 447.707031 48.355469 446.734375 52.132813 Z M 437.890625 44.902344 C 438.644531 42.421875 438.753906 38.96875 440.480469 37.675781 C 440.910156 38.863281 440.910156 40.589844 440.480469 41.773438 C 438.96875 46.519531 438.039063 51.914063 434.589844 55.476563 C 433.402344 58.171875 431.417969 61.625 430.339844 64.859375 C 428.9375 65.292969 430.121094 67.449219 428.613281 67.449219 C 428.074219 63.457031 431.417969 60.652344 431.632813 56.769531 C 432.28125 56.445313 433.058594 56.492188 433.46875 55.800781 C 432.171875 51.375 436.488281 48.785156 437.890625 44.902344 Z M 423.109375 46.953125 C 426.132813 47.816406 429.367188 48.355469 432.710938 48.464844 C 433.46875 50.1875 431.632813 52.132813 431.203125 53.964844 C 426.023438 55.582031 419.335938 53.75 415.882813 49.542969 C 418.039063 48.679688 420.847656 48.140625 423.109375 46.953125 Z M 393.121094 71.546875 C 394.308594 68.3125 397.976563 70.039063 399.269531 67.125 C 400.132813 70.363281 404.234375 70.039063 406.605469 71.765625 C 408.871094 71.871094 409.949219 68.421875 412.539063 70.253906 C 412.429688 71.332031 413.617188 72.519531 414.371094 72.089844 C 413.078125 77.589844 411.890625 85.03125 415.34375 89.671875 C 417.179688 91.183594 413.511719 94.308594 416.421875 95.066406 C 416.421875 100.675781 423.109375 102.507813 426.777344 104.664063 C 431.957031 105.527344 438.105469 105.746094 441.988281 102.078125 C 443.929688 99.488281 446.519531 98.195313 447.167969 94.851563 C 449.433594 95.605469 452.453125 94.742188 454.503906 93.339844 C 452.667969 100.136719 445.441406 104.34375 438.96875 105.746094 C 436.703125 107.902344 436.8125 111.460938 436.8125 114.265625 C 437.996094 118.257813 440.800781 121.601563 444.148438 123.867188 C 444.578125 125.59375 445.335938 127.105469 445.441406 129.046875 C 443.714844 129.046875 444.242188 125.464844 443.066406 128.652344 C 442.742188 130.8125 442.203125 132.605469 440.695313 134.222656 C 440.695313 133.683594 440.046875 133.359375 439.722656 132.929688 C 438.644531 133.792969 439.292969 134.546875 439.183594 135.734375 C 436.8125 135.625 433.25 138.648438 431.957031 134.980469 C 431.632813 134.117188 430.769531 134.546875 430.121094 134.441406 C 428.9375 136.058594 431.308594 136.488281 430.878906 137.785156 C 428.9375 141.882813 424.515625 135.195313 424.40625 139.617188 C 426.453125 142.960938 430.769531 138.214844 431.417969 142.746094 C 432.605469 144.148438 434.113281 144.796875 434.546875 146.628906 C 427.425781 148.570313 419.226563 146.738281 412.753906 143.824219 C 407.902344 138.324219 399.59375 133.253906 402.9375 124.085938 C 402.507813 117.71875 411.785156 118.90625 412 112.972656 C 413.511719 112.433594 412.324219 110.382813 413.078125 109.304688 C 413.078125 106.609375 409.949219 106.933594 408.332031 105.746094 C 402.289063 109.628906 394.414063 99.597656 391.503906 109.304688 C 390.316406 110.382813 391.71875 111.246094 392.582031 112.21875 C 393.445313 118.042969 402.832031 117.609375 400.890625 124.839844 C 400.132813 132.929688 391.878906 135.730469 385.945313 139.613281 C 378.503906 142.417969 367.007813 143.613281 359.140625 138.351563 C 359.140625 138.027344 359.140625 137.566406 359.140625 137.351563 C 363.996094 136.8125 367.621094 135.007813 370.75 131.339844 C 370.640625 130.90625 370.476563 130.503906 369.9375 130.289063 C 366.199219 135.613281 357.878906 136.285156 357.535156 136.269531 C 356.210938 136.203125 355.484375 133.613281 354.285156 132.929688 C 353.855469 131.203125 352.992188 129.585938 352.992188 127.75 C 357.414063 127.320313 361.039063 124.191406 365.570313 125.378906 C 366.375 125.074219 366.191406 124.542969 365.785156 124.085938 C 360.714844 121.496094 357.738281 126.671875 352.992188 125.703125 C 352.777344 122.898438 354.179688 120.847656 354.828125 119.230469 C 356.335938 118.582031 358.714844 118.628906 361.300781 119.230469 C 364.210938 119.660156 365.183594 121.171875 367.769531 122.574219 C 367.230469 123.867188 366.261719 126.242188 367.769531 127.210938 C 369.390625 128.398438 371.117188 130.339844 373.382813 129.261719 C 373.8125 128.828125 374.460938 128.398438 374.242188 127.75 C 371.871094 127.644531 369.820313 127.105469 368.742188 125.160156 C 368.09375 122.679688 372.949219 124.085938 371.117188 121.496094 C 368.957031 121.710938 368.09375 120.308594 366.476563 119.445313 C 365.289063 117.71875 366.152344 115.238281 365.183594 113.511719 C 362.378906 113.1875 364.210938 116.53125 363.347656 117.933594 C 360.757813 117.867188 359.035156 117.589844 356.550781 117.070313 C 359.355469 113.835938 364.289063 109.214844 366.660156 105.117188 C 373.136719 106.195313 377.5 102.4375 380.410156 97.367188 C 381.167969 95.207031 383.84375 86.113281 383.519531 83.953125 C 385.570313 78.882813 387.082031 72.628906 393.121094 71.546875 Z M 445.441406 136.8125 C 443.714844 137.351563 443.285156 135.84375 442.3125 135.519531 C 443.390625 134.222656 443.066406 129.261719 445.65625 131.636719 C 446.089844 132.820313 446.089844 134.546875 445.65625 135.734375 C 445.226563 135.949219 445.441406 136.488281 445.441406 136.8125 Z M 444.363281 138.863281 C 442.636719 141.558594 440.261719 144.578125 437.351563 145.335938 C 434.328125 145.117188 433.144531 141.992188 431.417969 140.15625 C 431.417969 137.246094 435.730469 139.292969 436.8125 137.785156 C 438.214844 138.753906 439.398438 137.246094 440.261719 136.8125 C 441.34375 137.566406 443.175781 138.324219 444.363281 138.863281 Z M 396.34375 110.535156 C 395.480469 108.914063 393.769531 111.246094 393.660156 109.304688 C 396.398438 109.585938 394.09375 106.824219 396.25 107.039063 C 399.269531 106.5 400.890625 110.167969 403.695313 108.335938 C 406.28125 108.011719 409.949219 107.363281 411.246094 109.84375 C 405.3125 111.246094 412.972656 115.671875 406.605469 117.070313 C 405.097656 117.179688 404.773438 117.933594 403.476563 118.367188 C 402.929688 117.910156 404.722656 115.800781 402.9375 116.101563 C 402.296875 115.695313 401.351563 116.15625 401.644531 118.199219 C 397.453125 114.011719 393.238281 115.171875 397.976563 112.757813 C 399.054688 111.246094 397.207031 110.964844 396.34375 110.535156 Z M 404.015625 138.324219 C 401.347656 141.292969 395.386719 138.972656 394.632813 137.351563 C 396.683594 135.195313 398.820313 134.132813 400.566406 130.554688 C 400.890625 133.46875 404.015625 135.085938 404.015625 138.324219 Z M 404.988281 140.695313 C 409.628906 145.011719 415.34375 150.945313 423.433594 149.003906 C 424.957031 148.722656 425.808594 148.464844 425.160156 150.511719 C 424.632813 151.421875 423.757813 151.699219 423.109375 152.5625 C 414.804688 160.222656 403.695313 165.183594 391.828125 162.917969 C 384.777344 160.835938 376.171875 153.710938 371.828125 144.980469 C 371.332031 143.917969 371.898438 143.5 373 143.5 C 382.175781 142.980469 384.707031 141.472656 391.070313 138.992188 C 391.925781 138.398438 392.683594 138.691406 393.40625 139.246094 C 396.960938 141.960938 400.964844 142.175781 404.988281 140.695313 Z M 359.679688 144.796875 C 359.464844 145.660156 359.035156 146.523438 358.171875 146.84375 C 356.230469 147.386719 353.964844 148.140625 351.699219 148.140625 C 345.980469 150.945313 343.824219 158.925781 336.917969 160.652344 C 339.722656 151.375 348.355469 142.3125 357.414063 138.648438 C 358.492188 141.234375 367.125 142.855469 359.679688 144.796875 Z M 354.503906 100.027344 C 357.199219 102.078125 360.601563 103.71875 364.160156 104.367188 C 363.300781 105.875 361.40625 106.609375 360.003906 105.746094 C 352.128906 101.214844 345.441406 94.527344 344.6875 85.570313 C 345.765625 83.632813 348.03125 83.847656 349.863281 83.953125 C 348.675781 90.101563 350.296875 95.820313 354.503906 100.027344 Z M 365.996094 95.066406 C 371.5625 93.65625 372.449219 86.878906 373.945313 82.136719 C 374.09375 81.140625 374.546875 80.910156 374.785156 82.339844 C 376.03125 86.757813 378.117188 90.933594 375.808594 95.363281 C 374.171875 97.519531 372.09375 98.769531 369.660156 99.617188 C 364.566406 100.921875 359.191406 98.5625 355.6875 94.980469 C 353.425781 92.429688 350.226563 87.8125 351.910156 84.117188 C 353.960938 81.179688 356.972656 79.816406 359.660156 78.367188 C 354.425781 90.160156 362.476563 95.496094 365.996094 95.066406 Z M 364.320313 77.804688 C 366.367188 76.617188 368.417969 78.238281 368.203125 80.609375 C 367.769531 82.660156 366.476563 85.25 363.886719 83.953125 C 362.484375 81.902344 363.296875 79.613281 364.320313 77.804688 Z M 380.394531 84.492188 C 377.695313 77.375 369.496094 74.136719 361.730469 73.921875 C 356.550781 75 354.179688 77.480469 349.648438 80.070313 C 351.265625 75.109375 356.230469 73.921875 360.757813 71.765625 C 367.125 71.226563 374.242188 72.089844 377.804688 77.265625 C 379.097656 79.207031 381.019531 81.671875 380.394531 84.492188 Z M 363.023438 61.730469 C 363.132813 62.917969 365.183594 63.671875 364.644531 65.292969 C 362.917969 67.449219 362.808594 63.457031 361.515625 63.027344 C 361.082031 61.949219 362.269531 61.625 363.023438 61.730469 Z M 375 65.074219 C 374.027344 63.78125 372.625 61.949219 372.949219 60.113281 C 375.644531 59.035156 375.214844 62.269531 375.214844 63.78125 C 375.214844 64.214844 375.429688 64.859375 375 65.074219 Z M 363.886719 38.648438 C 368.417969 42.855469 374.027344 45.226563 379.851563 47.492188 C 378.773438 49.003906 376.292969 48.894531 376.292969 51.375 C 376.292969 54.179688 381.039063 56.230469 377.046875 58.386719 C 376.507813 58.386719 375.96875 58.386719 375.539063 58.386719 C 369.820313 53.101563 368.957031 45.550781 364.105469 40.265625 C 364.320313 39.617188 363.5625 39.292969 363.886719 38.648438 Z M 318.578125 99.273438 C 318.773438 93.78125 318.578125 90.210938 318.039063 85.570313 C 319.011719 79.207031 324.296875 75.433594 327.640625 70.792969 C 329.152344 71.117188 331.203125 71.765625 332.28125 70.039063 C 338.105469 69.5 343.066406 65.507813 344.902344 60.4375 C 346.519531 56.769531 356.230469 60.4375 351.914063 54.503906 C 350.402344 55.476563 347.8125 54.613281 346.734375 53.210938 C 346.410156 51.375 345.441406 48.785156 343.175781 49.003906 C 339.183594 50.511719 341.664063 46.738281 341.34375 45.117188 C 343.824219 44.039063 343.175781 41.34375 342.851563 39.402344 C 341.558594 38 340.371094 35.625 337.675781 36.382813 C 335.839844 33.253906 338.644531 28.9375 334.113281 26.996094 C 334.871094 26.023438 333.789063 23.867188 333.035156 22.898438 C 331.417969 22.574219 330.984375 20.632813 331.203125 19.554688 C 329.90625 16.425781 326.238281 15.238281 326.5625 11.246094 C 325.054688 8.335938 322.894531 6.714844 320.304688 4.773438 C 320.523438 3.265625 323.109375 4.449219 324.191406 3.695313 C 334.871094 7.148438 342.960938 16.640625 349.109375 24.40625 C 353.855469 27.753906 357.199219 33.144531 361.515625 37.136719 C 363.886719 44.363281 368.09375 51.699219 370.792969 58.605469 C 367.449219 58.710938 363.886719 60.652344 360.976563 59.898438 C 359.679688 53.640625 353.746094 49.109375 350.402344 43.285156 C 347.921875 43.070313 350.402344 38 347.492188 39.941406 C 349.109375 47.925781 355.367188 53.855469 357.847656 60.976563 C 353.425781 63.242188 347.167969 63.351563 343.390625 67.664063 C 337.460938 71.007813 340.695313 80.71875 332.496094 81.363281 C 330.339844 84.171875 330.445313 87.296875 327.855469 90.210938 C 325.699219 93.769531 321.285156 94.207031 318.578125 99.273438 Z M 351 118.457031 C 341.589844 118.515625 329.003906 123.746094 326.375 124.316406 C 325.371094 124.535156 324.875 123.691406 325.734375 123.257813 C 333.355469 119.40625 347.5625 117.285156 351.714844 117.378906 C 353.855469 117.363281 352.910156 118.515625 351 118.457031 Z M 320.628906 146.628906 C 333.285156 141.53125 350.511719 128.722656 351.160156 128.722656 C 352.238281 130.664063 352.019531 133.144531 353.53125 134.761719 C 353.773438 135.734375 355.839844 136.703125 355.535156 137.539063 C 346.890625 142.214844 338.640625 150.386719 334.328125 162.164063 C 331.957031 163.996094 328.722656 163.242188 326.023438 162.378906 C 323.433594 161.191406 321.167969 159.359375 319.875 156.769531 C 320.523438 153.210938 317.285156 148.679688 320.628906 146.628906 Z M 317.285156 144.265625 C 317.285156 144.480469 317.285156 145.550781 317.285156 145.875 C 316.316406 146.523438 315.128906 146.523438 314.15625 146.84375 C 315.34375 145.226563 317.285156 137.503906 317.285156 144.265625 Z M 282.335938 561.625 C 289.886719 561.410156 298.300781 562.054688 306.066406 561.410156 C 313.835938 562.054688 332.605469 568.203125 333.253906 568.636719 C 335.839844 571.332031 335.070313 569.632813 337.597656 575.53125 C 337.808594 577.847656 336.246094 580.730469 335.613281 577.359375 C 332.242188 568.933594 330.769531 572.792969 326.347656 568.851563 C 325.484375 568.851563 324.40625 568.742188 323.972656 569.714844 C 326.996094 573.273438 335.085938 573.597656 334.113281 579.53125 C 319.652344 573.5625 307.699219 569.964844 291.828125 571.007813 C 284.707031 570.363281 276.617188 570.578125 269.390625 569.390625 C 261.839844 568.527344 270.574219 567.019531 271.980469 566.046875 C 272.949219 566.261719 278.667969 558.386719 282.335938 561.625 Z M 462.363281 183.578125 C 462.6875 183.148438 463.347656 182.984375 463.78125 183.089844 C 465.183594 187.839844 465.722656 193.445313 465.074219 198.410156 C 463.671875 199.597656 464.425781 202.078125 463.996094 203.804688 C 461.300781 212.539063 460.867188 222.679688 460.4375 232.066406 C 462.871094 239.898438 462.460938 250.015625 461.945313 258.171875 C 461.933594 265.824219 460.5 272.949219 459.3125 279.964844 C 454.566406 305.746094 443.714844 327.535156 435.300781 351.160156 C 430.230469 363.132813 425.378906 376.078125 421.277344 388.160156 C 416.207031 408.441406 411.886719 448.484375 413.078125 453.640625 C 412.429688 471.65625 414.695313 489.886719 417.179688 507.253906 C 419.765625 524.839844 422.839844 540.554688 432.078125 556.519531 C 437.257813 565.148438 448.675781 560.4375 456.230469 565.507813 C 459.355469 567.773438 461.980469 568.851563 463.167969 572.734375 C 463.277344 575.972656 460.976563 579.421875 458.386719 580.503906 C 460.328125 575.972656 456.230469 574.460938 454.179688 571.441406 C 453.640625 571.980469 452.34375 572.410156 452.667969 573.597656 C 453.640625 574.136719 456.464844 577.761719 455.925781 579.164063 C 450.773438 585.289063 443.433594 587.144531 436.054688 585.25 C 434.222656 584.925781 435.410156 582.769531 435.085938 581.582031 C 431.617188 572.5625 423.414063 565.757813 412.214844 569.714844 C 410.382813 563.351563 408.222656 557.847656 406.28125 551.59375 C 403.644531 543.789063 401.15625 535.910156 399.636719 528.722656 C 397.480469 518.152344 394.609375 507.054688 395.097656 496.480469 C 392.5 492.636719 391.605469 450.28125 390.847656 424.824219 C 393.308594 420.910156 390.101563 413.511719 391.289063 409.628906 C 391.394531 403.046875 393.34375 392.652344 393.710938 388.699219 C 393.152344 379.167969 394.335938 370.578125 397.464844 362.269531 C 398.867188 358.386719 401.039063 354.128906 402.765625 350.140625 C 404.921875 349.277344 406.527344 346.089844 404.261719 344.148438 C 403.074219 343.609375 402.507813 342.636719 401.429688 342.097656 C 404.125 339.078125 409.628906 343.933594 410.703125 338.96875 C 408.007813 335.085938 403.371094 332.496094 401.644531 327.859375 C 404.664063 327.210938 407.359375 330.921875 409.628906 328.226563 C 410.921875 327.902344 413.1875 328.722656 413.296875 326.78125 C 412.753906 324.621094 409.949219 325.320313 408.65625 323.703125 C 404.125 319.0625 400.890625 313.621094 399.054688 307.148438 C 398.839844 306.824219 397.796875 306.714844 397.363281 306.609375 C 395.964844 308.980469 398.515625 311.03125 399.269531 313.402344 C 401.859375 317.285156 404.125 323.328125 408.871094 326.023438 C 409.410156 327.320313 407.902344 326.886719 407.359375 327.320313 C 405.636719 326.566406 402.722656 326.886719 401.105469 325.484375 C 398.191406 324.730469 400.242188 327.96875 399.808594 329.152344 C 402.832031 332.820313 405.742188 335.949219 408.871094 339.292969 C 405.742188 338.105469 403.046875 341.34375 399.808594 339.511719 C 398.191406 340.265625 398.515625 342.207031 399.808594 343.179688 C 401.214844 344.472656 403.152344 344.257813 403.476563 346.523438 C 399.054688 349.972656 399.484375 354.9375 396.683594 359.144531 C 392.476563 369.390625 390.964844 381.148438 391.070313 392.800781 C 388.914063 402.292969 389.777344 413.1875 389.238281 422.140625 C 388.914063 422.355469 388.332031 423.429688 388.117188 423.753906 C 389.519531 450.183594 389.550781 474.1875 392.796875 501.105469 C 394.308594 513.082031 396.898438 524.730469 399.59375 536.273438 C 403.476563 548.679688 407.039063 560.222656 411.246094 571.980469 C 412.972656 573.597656 413.511719 570.683594 415.34375 571.007813 C 424.378906 568 435.398438 577.640625 433.25 586.757813 C 432.496094 587.621094 432.605469 589.132813 431.417969 589.347656 C 429.261719 586.542969 430.230469 579.53125 425.160156 580.070313 C 427.101563 583.632813 428.347656 589.847656 425.867188 592.976563 C 423.710938 594.59375 419.765625 595.820313 416.964844 596.574219 C 418.257813 592.691406 420.554688 588.265625 417.214844 584.917969 C 414.730469 582.546875 410.8125 581.257813 407.039063 581.582031 C 406.605469 582.011719 405.742188 582.875 406.066406 583.953125 C 409.628906 584.710938 413.75 584.402344 415.800781 588.347656 C 417.859375 596.234375 411.359375 597.503906 395.710938 599.703125 C 386.324219 597.871094 375.644531 597.113281 370.035156 588.59375 C 359.25 571.332031 353.207031 550.945313 347.492188 530.554688 C 345.441406 523.761719 351.589844 519.335938 348.03125 513.511719 C 343.5 511.246094 342.742188 505.636719 341.019531 501.320313 C 341.664063 497.871094 346.410156 498.515625 349.324219 497.652344 C 350.402344 494.417969 345.65625 494.632813 344.148438 492.261719 C 342.3125 489.238281 339.507813 487.945313 338.753906 484.492188 C 338.214844 483.089844 336.488281 482.226563 337.460938 480.394531 C 339.617188 478.453125 342.421875 478.453125 344.6875 479.316406 C 345.441406 477.699219 351.914063 479.421875 351.914063 477.265625 C 350.402344 476.511719 348.460938 476.511719 346.734375 476.1875 C 333.035156 467.449219 325.484375 453.640625 314.914063 440.695313 C 308.007813 442.3125 302.828125 438 296.035156 438.429688 C 295.0625 438.753906 294.09375 439.292969 293.660156 440.265625 C 296.25 448.140625 291.71875 455.691406 289.5625 462.269531 C 288.160156 462.917969 288.050781 464.859375 286.648438 465.617188 C 283.953125 461.300781 281.363281 455.261719 275.320313 454.179688 C 272.410156 455.582031 276.292969 456.445313 276.292969 458.0625 C 276.507813 463.242188 274.890625 467.558594 270.898438 470.46875 C 270.683594 465.722656 266.90625 462.054688 263.132813 459.683594 C 260.652344 460.976563 263.886719 462.8125 264.210938 464.859375 C 263.457031 470.578125 262.089844 475.5625 260.148438 480.953125 C 258.960938 483.652344 257.199219 485.894531 255.148438 487.839844 C 254.824219 486.542969 256.53125 483.15625 255.019531 482.078125 C 254.265625 475.28125 253.53125 466.664063 247.382813 463.753906 C 244.792969 463.753906 247.8125 465.074219 246.84375 466.371094 C 246.089844 468.851563 246.410156 470.996094 244.46875 472.9375 C 243.066406 473.476563 242.636719 474.675781 241.125 474.894531 C 240.695313 470.253906 241.9375 464.207031 237.945313 460.96875 C 237.515625 461.402344 236.054688 462.054688 235.949219 463.027344 C 235.859375 462.605469 235.488281 466.355469 234.675781 468.613281 C 233.273438 469.476563 232.28125 471.007813 230.769531 471.546875 C 233.25 464.320313 229.691406 456.769531 227.964844 450.296875 C 227.425781 450.1875 226.5625 450.40625 226.132813 451.050781 C 227.320313 453.539063 223.757813 459.144531 220.628906 460.113281 C 223.542969 447.0625 218.902344 433.359375 212.648438 422.898438 C 211.675781 422.355469 211.246094 420.632813 210.597656 419.984375 C 208.65625 419.445313 208.441406 415.023438 206.175781 417.179688 C 206.605469 419.230469 207.515625 420.039063 209.84375 422.140625 C 213.402344 426.347656 214.933594 432.496094 217.308594 437.890625 C 218.277344 445.765625 222.03125 456.230469 217.609375 463.027344 C 217.394531 463.671875 218.4375 464.214844 218.976563 464.320313 C 221.457031 461.085938 225.632813 460.914063 227.425781 455.476563 C 230.015625 461.085938 230.46875 468.851563 226.910156 474.351563 C 226.691406 475 228.179688 475.214844 228.398438 475.648438 C 230.660156 471.007813 235.957031 475.03125 237.996094 465.617188 C 239.75 466.605469 239.292969 471.980469 239.292969 475.433594 C 239.292969 476.511719 236.589844 475.875 237.222656 477.347656 C 237.4375 477.457031 239.078125 478.238281 239.933594 478.238281 C 244.355469 476.1875 248.355469 472.949219 248.136719 466.910156 C 253.53125 470.578125 251.589844 479.101563 253.855469 485.03125 C 253.746094 487.515625 252.5625 489.996094 252.019531 491.722656 C 252.34375 492.152344 253.265625 492.367188 253.804688 492.261719 C 256.070313 487.515625 261.621094 486.21875 262.59375 480.609375 C 263.78125 475.109375 265.828125 469.714844 265.722656 463.996094 C 268.742188 465.832031 268.3125 469.5 269.605469 472.304688 C 269.496094 473.273438 268.417969 473.707031 268.851563 474.894531 C 269.714844 474.894531 270.46875 476.511719 271.113281 474.894531 C 270.683594 469.714844 277.910156 468.203125 277.589844 463.027344 C 277.804688 461.191406 277.15625 459.035156 278.128906 457.523438 C 281.796875 459.789063 283.738281 463.351563 285.140625 467.125 C 284.601563 468.097656 283.738281 469.5 284.0625 471.007813 C 284.492188 471.441406 285.261719 472.304688 285.800781 471.546875 C 286.988281 466.261719 293.445313 462.703125 293.121094 456.554688 C 293.984375 456.339844 293.660156 455.152344 294.414063 454.71875 C 295.386719 450.082031 297.003906 445.550781 296.035156 440.480469 C 302.507813 440.480469 307.792969 445.117188 313.402344 448.246094 C 320.089844 455.261719 320.628906 466.480469 321.925781 475.648438 C 323.21875 485.25 319.011719 493.339844 316.421875 501.320313 C 306.175781 523.21875 292.796875 547.492188 273.488281 562.917969 C 271.007813 564.105469 268.851563 566.261719 265.722656 565.832031 C 264.859375 566.910156 263.132813 566.910156 262.054688 566.800781 C 255.796875 569.066406 249 571.226563 241.882813 569.929688 C 233.789063 569.929688 228.613281 578.238281 220.414063 578.777344 C 212.109375 582.121094 202.507813 581.675781 193.445313 582.214844 C 193.445313 582.859375 194.199219 584.0625 195.0625 583.632813 C 209.519531 583.738281 224.191406 581.582031 235.191406 573.597656 C 239.832031 569.929688 244.902344 574.03125 250.1875 571.980469 C 254.503906 571.980469 258.816406 568.851563 263.132813 569.714844 C 277.371094 573.058594 289.59375 572.410156 304.480469 573.058594 C 305.125 574.246094 307.359375 573.382813 308.226563 573.273438 C 317.28125 575.113281 327.597656 578.640625 336.769531 583.171875 C 337.847656 584.789063 339.234375 585.355469 339.019531 587.515625 C 337.507813 585.789063 335.949219 584.492188 333.574219 584.386719 C 332.929688 585.03125 332.496094 586.003906 333.035156 586.757813 C 337.835938 587.917969 340.25 588.875 338.632813 593.945313 C 335.609375 597.503906 332.929688 600.214844 328.613281 602.265625 C 328.398438 597.519531 326.671875 593.015625 321.925781 591.398438 C 321.277344 591.503906 320.292969 591.074219 319.96875 591.9375 C 322.832031 594.457031 326.015625 596.507813 325.257813 600.28125 C 322.992188 603.625 317.070313 605.175781 313.078125 604.851563 C 312.433594 601.183594 310.921875 598.410156 307.144531 596.898438 C 306.390625 596.253906 304.125 596.898438 305.3125 598.195313 C 307.359375 598.515625 310.109375 600.390625 309.726563 602.578125 C 309.832031 604.84375 306.605469 605.285156 305.097656 606.148438 C 296.683594 607.011719 281.675781 605.605469 278.667969 604.667969 C 262.984375 604.011719 249.230469 603.972656 228.398438 605.59375 C 217.394531 605.703125 205.527344 605.746094 194.738281 605.097656 C 180.5 606.285156 163.78125 606.285156 149.972656 606.175781 C 143.824219 607.6875 138.105469 605.394531 132.386719 605.714844 C 129.261719 603.449219 125.160156 605.714844 121.492188 604.636719 C 117.71875 603.882813 114.402344 604.054688 110.628906 602.4375 C 112.460938 599.847656 114.15625 598.300781 113.726563 594.308594 C 114.480469 594.09375 115.234375 593.664063 115.777344 593.015625 C 115.667969 590.535156 114.050781 588.269531 114.265625 586.003906 C 116.097656 585.355469 118.257813 587.191406 119.226563 585.464844 C 118.902344 581.582031 117.394531 578.34375 116.855469 574.570313 C 119.121094 572.734375 121.492188 577.15625 123.109375 574.894531 C 123.542969 570.683594 121.601563 566.800781 119.226563 563.457031 C 119.984375 561.410156 123.109375 564.320313 122.785156 561.410156 C 119.660156 557.632813 120.199219 551.269531 114.265625 549.757813 C 114.371094 548.785156 115.777344 548.464844 116.640625 547.925781 C 117.285156 547.925781 119.011719 549.648438 119.226563 547.925781 C 117.933594 544.578125 115.558594 542.960938 114.265625 539.941406 C 115.128906 539.726563 117.503906 540.265625 116.640625 538.105469 C 113.402344 536.382813 111.785156 532.648438 108.007813 532 C 107.792969 531.675781 107.359375 530.988281 107.578125 530.554688 C 107.902344 527.320313 109.304688 523.4375 107.253906 520.523438 C 105.097656 519.984375 105.203125 523.652344 104.125 524.839844 C 102.507813 526.132813 100.566406 526.78125 98.191406 526.457031 C 97.113281 521.171875 96.679688 515.023438 92.472656 511.679688 C 90.210938 513.082031 92.582031 516.316406 91.503906 518.152344 C 90.75 520.847656 88.050781 520.09375 85.785156 520.199219 C 84.816406 518.367188 84.832031 516.855469 83.105469 515.34375 C 81.269531 515.023438 82.335938 519.230469 80.824219 516.640625 C 80.394531 514.804688 81.039063 512.21875 79.3125 511.140625 C 79.207031 508.335938 77.480469 506.933594 77.265625 504.128906 C 70.46875 489.238281 67.894531 471.765625 65.195313 454.71875 C 62.390625 440.589844 62.703125 425.484375 63.78125 410.492188 C 64.859375 408.226563 63.671875 404.449219 64.859375 401.863281 C 65.613281 391.613281 67.460938 381.6875 68.539063 371.65625 C 75.445313 339.726563 88.589844 311.785156 101.535156 283.089844 C 107.902344 272.089844 112.914063 262.441406 121.816406 252.023438 C 137.136719 234.222656 152.5625 214.324219 176.617188 206.882813 C 178.558594 204.398438 182.011719 205.355469 184.382813 204.171875 C 198.945313 199.53125 212.152344 197.050781 230.554688 198.726563 C 234.761719 199.589844 239.398438 199.273438 243.175781 200.460938 C 249.21875 199.597656 254.285156 202.984375 259.464844 200.070313 C 265.9375 199.964844 272.421875 197.722656 278.792969 194.691406 C 280.410156 193.074219 287.476563 190.382813 288.121094 189.738281 C 304.519531 182.941406 307.253906 165.183594 312.863281 150.296875 C 312.945313 149.921875 313.140625 149.601563 313.414063 149.339844 C 314.230469 148.542969 315.75 148.222656 316.960938 148.140625 C 318.472656 151.269531 316.746094 158.925781 321.386719 161.625 C 324.296875 164.214844 329.578125 165.855469 333.570313 164.128906 C 332.628906 169.167969 328.757813 174.921875 327.222656 179.074219 C 326.820313 180.164063 327.632813 180.511719 328.230469 179.492188 C 330.390625 175.804688 335.230469 164.289063 336.394531 163.464844 C 338.078125 162.265625 340.414063 161.453125 341.882813 160.113281 C 346.734375 154.9375 351.375 148.894531 358.925781 148.464844 C 360.328125 145.765625 362.699219 144.578125 365.183594 143.285156 C 367.8125 142.558594 369.195313 143.285156 370.148438 144.628906 C 371.730469 146.867188 372.601563 149.933594 375 152.5625 C 380.5 158.605469 386.21875 163.996094 394.957031 165.832031 C 404.125 165.617188 413.078125 162.917969 420.523438 157.523438 C 422.402344 156.121094 426.671875 151.914063 427.75 150.730469 C 430.339844 151.375 431.09375 154.179688 433.25 155.691406 C 437.996094 161.191406 444.792969 167.234375 453.207031 166.261719 C 455.226563 167.1875 457.835938 165.226563 459.5 165.851563 C 459.972656 166.027344 460.367188 166.414063 460.652344 167.125 C 457.199219 173.921875 466.152344 184.277344 456.011719 188.054688 C 450.726563 189.457031 445.550781 194.417969 439.722656 191.398438 C 438.320313 190.535156 437.460938 188.914063 435.839844 189.347656 C 432.820313 192.152344 436.054688 196.035156 436.054688 199.488281 C 436.8125 201.429688 439.941406 202.832031 439.183594 204.882813 C 436.488281 206.714844 434.113281 204.664063 431.203125 205.960938 C 425.699219 205.746094 420.847656 203.480469 416.097656 201.214844 C 411.246094 204.988281 419.660156 215.992188 410.921875 215.023438 C 408.65625 213.078125 404.988281 213.621094 403.695313 210.597656 C 402.832031 210.167969 403.019531 211.570313 402.15625 211.140625 C 398.378906 214.160156 396.683594 219.335938 397.222656 224.839844 C 395.710938 225.917969 394.308594 223.976563 392.796875 223.546875 C 390.425781 220.523438 386.324219 218.257813 384.277344 214.484375 C 381.363281 213.941406 383.414063 218.367188 382.441406 220.199219 C 381.6875 220.632813 382.011719 221.925781 381.148438 222.25 C 377.480469 218.90625 375.96875 212.433594 369.496094 211.894531 C 369.929688 210.921875 368.496094 211.109375 368.496094 210.355469 C 366.015625 210.570313 367.339844 213.1875 365.613281 214.484375 C 364.320313 217.503906 361.082031 218.257813 358.710938 219.660156 C 355.582031 220.738281 354.777344 217.503906 351.648438 217.828125 C 352.617188 212.863281 352.992188 207.363281 349.324219 203.046875 C 349.972656 202.292969 349.433594 201.429688 348.785156 200.78125 C 346.628906 201.429688 348.417969 203.371094 347.125 204.664063 C 345.398438 207.253906 342.851563 208.980469 340.046875 210.058594 C 342.636719 204.019531 342.851563 196.359375 340.046875 190.644531 C 340.585938 189.777344 340.585938 188.808594 340.800781 187.839844 C 339.398438 186.867188 338.96875 188.808594 337.996094 189.347656 C 338.320313 190.964844 338.320313 192.152344 337.996094 193.769531 C 335.839844 195.066406 333.574219 196.898438 330.660156 196.898438 C 326.777344 194.851563 323.757813 192.800781 321.167969 189.347656 C 325.484375 186.21875 322.140625 180.933594 325.054688 177.15625 C 324.296875 175 322.585938 178.195313 320.96875 176.253906 C 323.339844 173.339844 324.082031 169.066406 323.972656 165.292969 C 321.816406 166.585938 322.894531 170.144531 321.386719 172.304688 C 320.628906 175.648438 317.394531 175.863281 314.914063 177.480469 C 316.570313 181.042969 318.152344 176.304688 322.140625 178.777344 C 321.601563 181.6875 322.679688 186.328125 320.089844 188.269531 C 319.441406 189.238281 317.070313 188.484375 317.71875 190.425781 C 322.570313 192.691406 325.054688 197.222656 330.445313 198.625 C 333.574219 197.4375 337.78125 197.328125 339.507813 193.769531 C 340.261719 195.066406 340.261719 196.035156 340.585938 197.652344 C 339.507813 199.488281 340.371094 203.15625 339.722656 205.097656 C 338.644531 207.253906 339.398438 211.355469 335.839844 211.355469 C 336.054688 212.109375 336.378906 212.863281 337.136719 212.863281 C 341.882813 212.109375 345.332031 208.871094 348.570313 205.636719 C 350.835938 207.253906 350.726563 210.277344 350.617188 213.1875 C 349.539063 215.128906 350.835938 218.472656 348.355469 219.660156 C 348.136719 220.308594 348.460938 221.0625 349.109375 221.171875 C 350.617188 220.953125 352.019531 219.335938 353.53125 220.632813 C 354.828125 221.0625 357.199219 222.25 359.140625 221.496094 C 362.269531 219.121094 366.476563 218.152344 367.769531 214.160156 C 374.027344 212.757813 376.726563 219.554688 379.636719 223.546875 C 380.5 225.054688 377.804688 228.722656 380.933594 227.644531 C 381.363281 224.085938 384.0625 221.171875 384.601563 217.828125 C 388.699219 220.847656 391.289063 226.132813 396.683594 227.644531 C 399.378906 226.996094 398.085938 223.761719 398.839844 221.710938 C 398.515625 218.152344 400.996094 215.238281 402.722656 212.863281 C 406.714844 214.484375 411.566406 219.011719 416.097656 215.777344 C 416.207031 212.21875 417.179688 209.671875 416.097656 206.542969 C 415.773438 205.679688 416.746094 204.773438 416.421875 203.804688 C 420.414063 204.019531 422.679688 207.578125 426.777344 206.933594 C 429.585938 208.550781 433.789063 207.148438 436.378906 207.253906 C 438.214844 207.039063 441.449219 206.609375 441.019531 204.128906 C 441.558594 201.105469 438.105469 201.859375 437.890625 199.164063 C 436.8125 197.652344 436.8125 194.203125 436.378906 191.722656 C 438.96875 192.476563 442.097656 195.605469 445.871094 193.988281 C 452.019531 191.722656 459.773438 190.484375 462.363281 183.578125 Z M 447.167969 163.996094 C 439.832031 161.949219 436.703125 154.9375 431.203125 150.511719 C 432.496094 148.464844 434.976563 148.785156 437.136719 147.707031 C 437.765625 147.550781 438.277344 147.589844 438.726563 147.75 C 440.128906 148.242188 456.769531 157.09375 462.269531 162.164063 C 458.0625 165.074219 452.238281 164.214844 447.167969 163.996094 Z M 463.996094 160.652344 C 456.550781 154.613281 448.460938 151.050781 439.941406 146.628906 C 442.3125 144.257813 444.792969 142.207031 446.195313 139.078125 C 454.609375 142.207031 462.917969 145.011719 469.714844 150.296875 C 469.175781 154.179688 467.449219 158.0625 463.996094 160.652344 Z M 470.46875 148.464844 C 463.242188 143.609375 455.582031 140.589844 447.492188 137.351563 C 447.273438 135.84375 446.628906 133.253906 448.03125 132.390625 C 452.878906 131.234375 465.894531 130.292969 471.886719 132.597656 C 472.101563 138.421875 472.300781 143.394531 470.46875 148.464844 Z M 472.085938 130.878906 C 463.886719 128.289063 455.367188 130.3125 447.492188 130.339844 C 447.492188 128.074219 445.226563 125.160156 447.167969 123.867188 C 452.5625 125.378906 457.414063 120.953125 460.652344 116.640625 C 465.722656 115.992188 467.015625 123.761719 472.625 120.953125 C 473.488281 120.308594 473.8125 118.367188 475.429688 118.367188 C 474.242188 122.464844 473.703125 127.105469 472.085938 130.878906 "/>
</g>
</svg>
