<?xml version="1.0" encoding="UTF-8"?>
<svg xmlns="http://www.w3.org/2000/svg" xmlns:xlink="http://www.w3.org/1999/xlink" width="488pt" height="626pt" viewBox="0 0 488 626" version="1.1">
<g id="surface1">
<path style=" stroke:none;fill-rule:nonzero;fill:rgb(0%,0%,0%);fill-opacity:1;" d="M 485.695313 307.460938 C 485.386719 305.304688 482.8125 303.453125 483.433594 301.496094 C 484.046875 302.527344 484.972656 301.601563 485.695313 301.496094 C 485.179688 296.148438 477.878906 280.105469 481.476563 279.488281 C 483.84375 272.902344 479.523438 265.910156 478.496094 259.019531 C 478.496094 259.019531 483.800781 258.933594 475.304688 240.8125 C 478.804688 240.300781 480.347656 243.28125 483.019531 244.210938 C 483.226563 243.179688 482.917969 241.738281 481.785156 241.019531 C 481.066406 235.671875 478.082031 230.734375 476.847656 225.488281 C 476.847656 225.488281 478.90625 224.460938 479.316406 224.769531 C 480.550781 223.945313 482.609375 224.460938 482.507813 222.300781 C 480.449219 219.832031 479.421875 216.953125 478.496094 214.074219 C 477.878906 205.332031 470.472656 200.1875 466.152344 193.398438 C 463.785156 189.390625 464.300781 183.730469 466.667969 180.027344 C 469.238281 180.027344 470.984375 183.730469 473.144531 181.261719 C 472.222656 173.753906 470.984375 166.351563 469.445313 159.046875 C 468.3125 156.167969 466.152344 156.0625 463.992188 154.109375 C 463.375 149.894531 459.773438 146.089844 455.867188 144.546875 C 455.765625 139.300781 449.285156 139.503906 447.640625 135.390625 C 447.535156 129.425781 445.480469 123.050781 441.058594 119.039063 C 440.132813 117.085938 440.953125 114.308594 439.308594 112.660156 C 437.867188 112.351563 436.839844 110.914063 435.089844 111.425781 C 430.257813 110.296875 434.371094 104.019531 430.667969 101.757813 C 428.816406 98.46875 422.339844 101.65625 423.46875 96.101563 C 422.644531 94.972656 421 93.941406 419.253906 93.632813 C 413.699219 94.660156 410.507813 89.417969 405.675781 87.460938 C 391.539063 75.617188 381.503906 79.335938 381.503906 79.335938 C 379.757813 76.972656 378.421875 76.046875 375.847656 75.121094 C 370.707031 76.253906 367.621094 72.34375 362.992188 71.933594 C 358.15625 74.296875 354.144531 70.492188 349.722656 70.699219 C 344.785156 67.816406 339.234375 70.902344 334.089844 70.492188 C 332.855469 70.183594 332.546875 72.136719 331.210938 71.417969 C 328.742188 73.886719 324.21875 71.726563 322.058594 74.195313 C 317.015625 74.710938 313.417969 76.355469 309.40625 78.824219 C 305.1875 84.992188 297.476563 89.003906 294.390625 96.101563 C 292.539063 104.226563 285.851563 110.707031 285.75 119.347656 C 284.515625 124.386719 291.199219 128.910156 287.191406 134.15625 C 287.496094 137.964844 289.863281 141.152344 292.128906 144.03125 C 291.199219 149.171875 296.34375 151.746094 298.09375 155.140625 C 298.605469 156.988281 300.5625 157.503906 302.308594 157.605469 C 303.953125 157.605469 302.722656 159.769531 303.75 160.589844 C 309.199219 158.84375 309.507813 165.011719 314.34375 164.292969 C 317.015625 165.320313 320.203125 164.703125 323.804688 165.21875 C 324.835938 165.527344 325.757813 163.574219 326.683594 165.011719 C 326.992188 166.453125 325.144531 169.023438 324.523438 169.949219 C 314.097656 168.183594 303.851563 177.046875 296.34375 179.308594 C 294.800781 180.75 291.511719 179.308594 290.6875 181.570313 C 277.496094 188.148438 261.269531 174.785156 257.570313 165.9375 C 257.671875 158.84375 251.398438 156.0625 247.285156 150.714844 C 246.664063 143.929688 243.273438 138.167969 239.054688 133.128906 C 237.410156 128.601563 235.660156 123.871094 232.882813 120.066406 C 231.136719 116.570313 232.164063 112.660156 232.882813 108.960938 C 229.285156 103.816406 226.40625 98.363281 222.085938 93.632813 C 221.261719 92.398438 221.363281 90.34375 222.289063 89.210938 C 220.4375 84.992188 215.8125 81.601563 215.195313 77.074219 L 216.121094 77.074219 C 216.121094 72.136719 211.902344 68.949219 208.714844 65.039063 C 209.125 64.113281 210.050781 64.730469 210.667969 64.527344 C 210.667969 60.105469 207.582031 56.195313 203.777344 53.933594 C 202.234375 48.277344 196.476563 45.191406 193.390625 40.5625 C 192.15625 33.773438 184.132813 31.203125 179.402344 27.5 C 172.921875 25.441406 166.855469 21.535156 159.34375 23.078125 C 159.34375 23.078125 155.886719 26.609375 142.578125 6.3125 C 128.964844 -9.085938 124.582031 11.351563 122.316406 17.113281 C 122.316406 17.113281 112.628906 14.207031 104.320313 23.078125 C 101.027344 21.535156 97.429688 22.972656 93.929688 21.84375 C 87.246094 16.082031 84.777344 8.574219 77.679688 3.328125 C 75.726563 2.507813 73.875 3.636719 72.230469 4.253906 C 73.257813 14.539063 75.210938 25.238281 75.726563 35.625 L 73.464844 36.652344 C 74.285156 44.160156 63.796875 40.460938 64.105469 47.761719 C 62.871094 49.820313 62.765625 54.242188 59.371094 53.625 C 58.859375 56.09375 57.832031 58.457031 57.214844 60.824219 C 54.847656 63.085938 52.070313 64.730469 50.21875 67.714844 C 50.941406 71.828125 45.28125 71.519531 46.824219 76.148438 C 46.207031 77.484375 43.945313 77.382813 45.078125 79.132813 C 42.710938 81.394531 46.722656 82.835938 46.105469 85.300781 C 40.964844 88.492188 47.339844 92.195313 46.3125 96.410156 C 43.328125 98.363281 45.796875 101.964844 45.078125 104.535156 C 30.367188 114.925781 15.042969 127.164063 0.4375 139.300781 C 0.4375 139.300781 3.113281 151.128906 8.050781 154.109375 C 11.03125 160.074219 16.074219 165.527344 19.671875 170.15625 C 13.191406 172.316406 10.003906 179.410156 9.078125 185.996094 C 7.949219 189.285156 11.546875 189.902344 12.78125 192.679688 C 15.765625 194.015625 19.464844 194.839844 22.859375 195.867188 C 23.582031 197 24.609375 198.335938 23.890625 199.777344 C 14.324219 204.609375 9.59375 216.4375 2.394531 223.742188 C 1.671875 225.695313 -1.207031 228.472656 1.671875 230.117188 C 6.507813 225.695313 12.164063 221.066406 18.4375 220.039063 C 16.484375 222.917969 13.5 226.105469 11.753906 229.398438 C 8.769531 232.996094 5.066406 238.035156 6.609375 242.976563 C 4.863281 247.089844 2.597656 251.921875 3.832031 256.34375 C 6.710938 255.933594 7.332031 251.304688 9.796875 250.175781 L 6.300781 261.28125 L 7.84375 263.441406 L 9.285156 262.722656 L 20.597656 248.21875 L 19.878906 248.21875 C 19.15625 247.601563 20.390625 247.191406 20.597656 246.675781 C 23.273438 246.78125 25.328125 241.945313 27.796875 241.738281 C 26.253906 246.164063 23.375 250.070313 23.066406 255.109375 C 15.96875 267.453125 12.164063 281.339844 8.257813 295.121094 C 8.976563 295.839844 9.796875 297.484375 11.03125 297.589844 C 10.414063 301.703125 7.949219 304.992188 10.3125 308.695313 L 13.191406 306.433594 C 13.605469 310.960938 10.3125 318.878906 15.660156 321.449219 C 14.117188 327.414063 12.574219 333.691406 13.5 340.273438 C 13.398438 342.121094 16.074219 342.636719 16.691406 341.507813 C 17.203125 346.136719 15.867188 350.761719 15.96875 355.597656 C 16.277344 356.832031 15.867188 358.785156 17.71875 358.992188 C 19.363281 357.964844 19.671875 356.109375 20.1875 354.773438 C 20.289063 359.195313 20.1875 364.441406 19.878906 368.660156 C 20.496094 370.714844 20.390625 373.90625 22.859375 374.316406 C 23.992188 373.800781 23.476563 372.566406 24.300781 371.847656 C 26.460938 378.121094 22.964844 386.96875 27.285156 391.800781 L 28.828125 390.359375 C 30.164063 395.8125 29.546875 402.804688 32.734375 407.847656 C 36.128906 409.285156 35.71875 404.347656 37.464844 402.910156 C 40.964844 412.371094 42.710938 422.347656 49.292969 429.855469 C 50.21875 436.4375 50.835938 443.125 54.4375 448.574219 C 58.449219 448.882813 59.167969 454.128906 62.355469 456.496094 C 64 457.421875 63.074219 462.050781 66.265625 460.507813 C 67.703125 461.742188 68.734375 462.976563 69.554688 464.414063 C 72.640625 466.164063 73.667969 471.304688 77.679688 471.613281 C 86.9375 476.960938 83.441406 489.40625 84.570313 498.972656 C 83.542969 521.601563 90.023438 544.535156 83.851563 565.828125 C 81.382813 571.070313 76.445313 574.773438 73.257813 579.402344 L 71.203125 580.226563 L 71.511719 581.152344 C 68.011719 584.339844 64.617188 589.585938 65.851563 594.726563 C 67.394531 596.269531 69.039063 598.84375 72.023438 597.503906 C 74.800781 600.695313 78.605469 598.535156 82.101563 598.429688 C 86.9375 596.269531 92.390625 598.636719 97.429688 596.269531 C 100.617188 596.992188 103.804688 596.992188 106.992188 596.269531 C 109.976563 592.875 114.398438 591.335938 115.222656 586.398438 C 118.925781 583.929688 119.335938 579.710938 123.039063 576.933594 C 126.125 573.230469 129.210938 568.910156 129.003906 564.386719 C 130.136719 563.253906 131.164063 563.050781 132.5 562.125 C 134.558594 554.820313 141.242188 548.652344 141.140625 540.421875 C 147.621094 535.28125 144.945313 526.433594 146.28125 518.71875 L 147.722656 518.925781 C 149.367188 517.898438 147.722656 515.738281 148.546875 514.8125 C 148.753906 514.710938 156.15625 524.992188 162.121094 527.359375 C 163.460938 524.273438 160.375 521.703125 161.8125 518.925781 C 167.46875 520.777344 173.433594 533.304688 175.183594 531.0625 C 175.082031 528.390625 173.230469 525.816406 173.949219 523.453125 C 176.316406 525.816406 178.167969 527.773438 181.046875 528.59375 C 182.179688 553.792969 189.996094 580.535156 174.464844 601.207031 C 173.128906 601.824219 175.082031 603.160156 173.230469 603.160156 C 174.054688 604.601563 170.453125 605.117188 172.40625 606.554688 C 170.144531 609.847656 166.339844 613.242188 167.46875 617.664063 C 168.601563 619.722656 169.9375 624.039063 173.230469 622.601563 C 177.242188 622.5 179.09375 625.890625 183.308594 625.378906 C 188.039063 625.996094 192.359375 623.527344 196.164063 621.882813 C 201.410156 625.273438 207.789063 622.1875 212.417969 619.722656 C 218.894531 617.664063 219.71875 610.15625 225.066406 607.070313 C 232.78125 599.664063 232.265625 587.835938 235.867188 578.167969 C 236.894531 577.347656 239.054688 575.597656 239.363281 576.007813 C 240.289063 575.597656 241.628906 576.933594 242.550781 575.699219 C 243.273438 571.792969 244.816406 568.191406 246.460938 564.59375 C 250.472656 564.179688 248.828125 558.933594 251.910156 557.496094 C 252.324219 558.011719 252.386719 561.4375 255.613281 561.199219 C 257.671875 556.980469 261.683594 553.691406 262.507813 548.855469 C 266.003906 545.976563 267.441406 542.066406 269.703125 538.980469 C 275.671875 538.054688 274.230469 531.164063 275.15625 526.640625 C 277.523438 526.949219 279.476563 525.304688 280.605469 523.453125 C 283.28125 518.410156 281.53125 511.210938 282.046875 505.65625 C 285.957031 500.925781 282.871094 494.859375 283.796875 489.304688 C 286.058594 487.453125 289.246094 487.660156 291.921875 486.628906 C 293.671875 483.648438 297.371094 482.824219 300.5625 482.207031 C 304.777344 485.808594 304.058594 477.578125 308.480469 479.226563 C 314.035156 482.414063 317.738281 475.625 322.980469 476.550781 C 324.9375 473.261719 329.050781 471.71875 331.621094 468.835938 L 333.164063 470.378906 L 334.398438 469.144531 C 334.8125 471.921875 335.53125 474.492188 336.558594 476.960938 C 337.691406 487.660156 340.160156 498.664063 336.351563 508.640625 C 332.238281 515.941406 321.335938 519.234375 324.011719 529.3125 C 326.171875 531.578125 328.742188 531.269531 331.210938 532.296875 C 333.78125 530.855469 337.484375 531.78125 339.851563 532.503906 C 345.507813 532.195313 350.136719 529.417969 355.585938 528.59375 C 361.550781 534.046875 378.832031 529.070313 378.109375 513.0625 C 375.644531 506.6875 379.140625 500.925781 380.785156 495.269531 C 387.984375 481.589844 383.355469 464.519531 386.957031 449.605469 C 389.9375 449.296875 392.820313 448.472656 395.082031 446.414063 L 401.046875 451.558594 C 404.132813 452.484375 407.527344 450.632813 409.890625 448.882813 C 412.976563 449.089844 410.613281 451.558594 411.640625 453.101563 C 412.566406 453.410156 413.082031 452.585938 413.59375 452.070313 C 416.371094 452.894531 418.019531 455.464844 421.308594 455.570313 C 423.261719 456.804688 425.011719 458.347656 425.21875 460.710938 C 429.125 462.769531 430.566406 468.015625 432.828125 471.820313 C 436.222656 489.921875 439.820313 507.40625 441.46875 525.921875 C 443.523438 531.78125 438.589844 534.972656 435.296875 537.746094 C 431.800781 541.449219 427.996094 547.519531 429.949219 553.277344 C 430.769531 556.878906 434.578125 556.363281 437.046875 557.496094 C 441.261719 560.582031 447.949219 558.628906 452.882813 559.242188 C 453.503906 559.449219 454.015625 557.703125 454.632813 558.933594 C 456.894531 558.320313 459.671875 558.421875 461.011719 555.953125 C 464.609375 556.570313 465.125 552.96875 468.210938 552.558594 C 473.25 548.34375 481.167969 548.238281 484.972656 541.964844 C 485.898438 540.214844 484.046875 538.570313 485.488281 536.71875 C 486.210938 513.785156 479.113281 491.566406 481.269531 468.632813 C 481.269531 457.523438 477.464844 448.164063 471.910156 439.523438 C 468.621094 430.0625 458.746094 420.496094 463.273438 409.59375 C 464.816406 408.257813 461.9375 405.273438 464.917969 404.964844 C 466.050781 402.601563 468.105469 400.441406 466.152344 397.765625 C 465.84375 395.09375 466.558594 384.167969 473.144531 393.34375 C 475.410156 390.464844 472.941406 387.171875 473.351563 383.984375 L 475.820313 384.910156 C 475.820313 384.910156 475.101563 375.34375 475.613281 370.40625 C 474.894531 369.070313 476.644531 367.320313 477.261719 368.351563 L 477.570313 365.675781 C 477.980469 365.78125 478.597656 365.472656 479.007813 365.882813 C 479.933594 366.808594 480.039063 367.734375 479.523438 368.863281 C 479.832031 369.585938 480.140625 370.820313 481.269531 370.820313 C 482.609375 370.613281 481.578125 368.351563 482.195313 367.425781 L 483.738281 367.9375 L 484.253906 360.738281 C 487.441406 359.710938 482.8125 355.390625 486.722656 355.082031 C 486.824219 350.867188 485.28125 347.164063 486.210938 342.945313 L 487.648438 342.433594 C 488.78125 336.15625 486.621094 329.679688 486.722656 323.507813 C 489.703125 318.261719 487.441406 312.503906 485.695313 307.460938 Z M 153.480469 65.554688 C 154.203125 65.761719 161.535156 88.320313 149.472656 84.273438 C 150.808594 78 152.867188 72.136719 153.480469 65.554688 Z M 170.96875 133.4375 C 176.863281 138.335938 174.875 144.546875 174.875 144.546875 C 173.746094 144.441406 171.6875 144.339844 171.480469 145.984375 C 171.6875 146.808594 171.171875 147.425781 170.96875 148.246094 C 169.9375 147.835938 168.703125 145.265625 167.265625 147.015625 C 166.957031 149.277344 167.46875 151.640625 166.234375 153.90625 C 165.3125 153.285156 164.078125 151.640625 162.535156 152.671875 C 161.402344 154.316406 164.28125 159.046875 160.066406 158.121094 C 157.90625 161.824219 159.859375 169.4375 159.859375 169.4375 C 159.449219 172.933594 160.886719 177.253906 158.625 180.027344 C 158.523438 185.582031 158.933594 190.109375 157.390625 195.355469 C 155.847656 186.304688 152.660156 164.394531 151.734375 163.777344 C 150.191406 163.160156 150.398438 165.21875 148.753906 164.496094 C 149.164063 176.636719 149.574219 192.0625 145.050781 203.480469 C 143.609375 193.089844 147.015625 171.003906 143.8125 171.183594 C 140.933594 171.082031 144.59375 200.046875 130.03125 202.039063 C 124.429688 204.480469 121.804688 196.382813 121.804688 196.382813 C 116.558594 205.023438 110.902344 213.046875 104.113281 218.804688 C 105.246094 214.074219 106.480469 209.34375 108.742188 205.023438 C 107.097656 203.890625 110.285156 199.160156 106.273438 200.496094 C 105.449219 202.140625 91.464844 222.917969 82.308594 226.003906 C 82.308594 226.003906 84.984375 214.484375 85.601563 208.726563 C 73.605469 204.886719 101.4375 195.203125 106.066406 184.246094 C 109.152344 187.433594 101.746094 191.855469 106.066406 195.355469 C 107.609375 193.605469 107.714844 190.417969 109.976563 188.976563 C 114.191406 184.964844 121.085938 182.1875 123.039063 176.636719 C 123.65625 179.925781 124.273438 188.257813 124.785156 188.152344 C 129.210938 179.722656 132.089844 170.671875 134.96875 161.515625 C 137.335938 161.824219 135.6875 165.527344 138.363281 165.21875 C 139.804688 160.382813 138.980469 154.417969 138.15625 149.894531 C 140.523438 149.789063 150.191406 158.429688 151.941406 154.109375 C 154.203125 146.601563 150.601563 139.710938 147.003906 133.644531 C 151.632813 134.363281 160.324219 137.125 161.609375 132.613281 C 157.90625 131.277344 155.847656 127.679688 152.453125 125.722656 C 150.398438 123.976563 147.722656 122.535156 146.488281 119.859375 C 148.648438 119.964844 153.277344 118.007813 154.71875 121.507813 C 155.335938 123.664063 157.699219 123.253906 159.140625 123.253906 C 163.046875 125.105469 166.546875 128.808594 167.984375 133.128906 L 168.292969 140.84375 C 168.601563 141.152344 169.21875 141.046875 169.734375 141.046875 C 171.996094 138.992188 170.042969 136.007813 170.96875 133.4375 Z M 80.148438 142.28125 C 74.816406 140.351563 69.554688 136.109375 69.554688 136.109375 C 71.097656 134.363281 73.875 132.820313 76.136719 131.378906 C 81.175781 133.128906 91.355469 131.476563 95.886719 125.210938 C 97.941406 126.546875 100.71875 127.679688 102.878906 128.910156 C 97.40625 137.933594 89.097656 136.625 86.320313 136.316406 C 85.394531 139.402344 81.28125 139.195313 80.148438 142.28125 Z M 139.085938 46.527344 C 139.1875 45.085938 140.730469 44.367188 141.859375 44.058594 C 147.003906 44.675781 144.019531 50.847656 147.3125 53.417969 C 146.28125 56.605469 144.535156 60.410156 142.066406 62.777344 C 141.449219 56.914063 141.550781 51.671875 139.085938 46.527344 Z M 130.238281 6.003906 C 132.808594 6.414063 138.15625 6.3125 138.15625 6.3125 C 142.785156 11.25 146.898438 15.671875 147.722656 22.355469 C 151.425781 28.632813 151.941406 46.628906 151.21875 48.277344 C 140.5625 -10.898438 127.976563 13.820313 126.742188 17.832031 L 126.328125 17.832031 C 127.359375 13.820313 127.5625 9.398438 130.238281 6.003906 Z M 131.472656 133.4375 C 131.6875 139.546875 135.175781 141.5625 135.175781 141.5625 C 134.042969 143.105469 132.398438 143.3125 131.472656 145.265625 C 131.988281 150.820313 129.828125 154.417969 127.5625 159.046875 C 125.234375 156.082031 121.804688 159.046875 121.804688 159.046875 C 124.832031 150.839844 121.085938 147.425781 120.570313 146.703125 C 128.058594 143.980469 131.472656 133.4375 131.472656 133.4375 Z M 87.554688 35.625 C 93.316406 35.316406 96.605469 31.101563 99.589844 26.78125 C 102.878906 26.058594 106.789063 25.648438 109.050781 22.355469 C 112.445313 20.8125 115.324219 19.066406 119.335938 19.890625 C 126.039063 23.785156 116.765625 26.882813 116.867188 28.21875 C 117.382813 31.71875 115.222656 34.390625 114.191406 37.167969 C 112.34375 37.578125 111.003906 36.449219 109.460938 36.140625 C 109.976563 33.878906 107.199219 33.878906 106.789063 32.230469 C 104.835938 32.023438 102.980469 34.183594 101.132813 34.699219 L 100.410156 37.167969 C 98.765625 39.019531 91.566406 37.167969 90.742188 36.652344 C 88.789063 37.578125 87.65625 41.589844 85.292969 40.871094 C 86.835938 39.121094 83.132813 35.109375 87.554688 35.625 Z M 83.132813 44.984375 C 81.691406 46.320313 80.972656 49.511719 78.402344 48.277344 L 78.195313 47.96875 C 80.046875 48.070313 81.691406 46.011719 83.132813 44.984375 Z M 73.667969 47.042969 C 74.902344 46.425781 76.550781 46.9375 77.371094 47.453125 C 76.035156 46.835938 75.519531 48.894531 75.417969 49.921875 C 77.988281 53.726563 71.714844 55.371094 73.667969 58.5625 C 73.667969 59.488281 72.847656 60.105469 72.230469 60.824219 C 71.304688 58.664063 69.96875 61.953125 69.039063 59.796875 C 72.847656 57.839844 73.976563 51.464844 73.667969 47.042969 Z M 74.183594 92.195313 C 74.183594 88.695313 77.476563 85.714844 75.210938 82.320313 C 76.859375 77.382813 79.636719 72.238281 83.132813 67.714844 C 85.601563 68.433594 87.144531 66.378906 89.507813 66.789063 C 87.863281 71.726563 91.464844 75.121094 91.257813 79.851563 C 92.183594 81.394531 93.828125 81.085938 94.960938 80.058594 C 96.089844 78.308594 98.355469 76.148438 100.410156 78.101563 C 102.261719 81.085938 97.632813 85.097656 100.617188 87.460938 C 101.746094 87.257813 101.335938 85.609375 102.878906 86.226563 C 103.804688 87.976563 102.777344 95.792969 100.824219 96.101563 C 100.515625 95.792969 100.824219 95.175781 100.410156 94.867188 C 97.941406 94.558594 98.765625 97.542969 97.429688 98.363281 C 96.398438 96.511719 94.546875 97.851563 93.210938 96.101563 C 91.875 95.894531 90.84375 96.617188 89.507813 96.410156 C 88.996094 93.429688 85.496094 95.894531 84.058594 94.148438 C 81.589844 93.734375 80.457031 91.0625 78.195313 90.960938 C 75.210938 93.632813 76.753906 98.878906 72.433594 100.320313 C 71.820313 104.226563 68.117188 106.078125 68.011719 110.191406 C 67.394531 112.558594 63.691406 112.867188 64.824219 115.335938 C 69.96875 116.261719 74.285156 124.28125 80.664063 120.582031 C 83.339844 119.757813 84.984375 117.496094 86.320313 115.128906 C 89.40625 113.996094 96.707031 113.894531 96.707031 113.894531 C 98.664063 115.027344 100.203125 116.570313 102.570313 117.390625 C 100.515625 120.785156 98.046875 114.925781 95.472656 117.804688 C 91.773438 116.15625 92.800781 121.09375 91.257813 122.535156 C 92.492188 123.871094 84.261719 129.835938 80.664063 128.191406 C 76.960938 129.015625 70.789063 126.03125 69.554688 130.96875 C 67.085938 131.277344 65.234375 134.570313 62.5625 132.613281 C 60.503906 130.351563 60.09375 126.546875 56.699219 125.210938 C 43.761719 129.460938 41.578125 124.796875 41.578125 124.28125 C 47.957031 119.65625 55.671875 116.878906 60.402344 109.988281 C 60.8125 108.855469 57.007813 108.339844 56.183594 107.722656 C 58.757813 104.84375 62.871094 94.765625 65.03125 94.355469 L 68.734375 89.210938 C 71.304688 89.417969 71.304688 94.558594 74.183594 92.195313 Z M 78.402344 99.804688 C 79.328125 97.335938 80.972656 99.804688 82.308594 100.113281 C 84.777344 101.757813 87.453125 97.746094 89.714844 100.523438 C 90.226563 103.300781 89.917969 106.902344 90.742188 109.679688 C 84.984375 108.339844 82.925781 102.683594 78.402344 99.804688 Z M 88.070313 112.148438 C 84.058594 114.511719 81.484375 110.398438 78.605469 108.445313 C 80.972656 109.0625 84.675781 110.707031 88.070313 112.148438 Z M 66.058594 60.105469 L 66.574219 60.105469 C 66.160156 62.265625 61.945313 60.105469 62.5625 62.777344 C 59.679688 63.085938 59.066406 66.6875 55.980469 65.964844 C 58.757813 64.421875 62.152344 60.308594 66.058594 60.105469 Z M 43.636719 109.164063 C 46.722656 108.136719 47.132813 104.742188 50.734375 104.226563 C 52.996094 102.890625 49.808594 102.066406 50.015625 100.523438 C 47.957031 100.113281 49.707031 97.746094 49.5 96.410156 C 47.339844 94.25 47.957031 90.960938 46.824219 88.492188 C 47.339844 86.640625 49.398438 86.535156 49.808594 84.789063 C 63.925781 100.421875 47.957031 108.03125 49.808594 111.222656 L 51.042969 112.148438 C 43.429688 118.933594 35.101563 122.328125 27.078125 127.984375 C 22.757813 127.984375 19.671875 130.867188 15.25 130.660156 C 22.757813 123.050781 35.304688 118.214844 43.636719 109.164063 Z M 10.003906 147.21875 C 8.5625 146.601563 9.179688 145.160156 9.078125 144.03125 C 10.414063 143.207031 12.574219 147.117188 10.003906 147.21875 Z M 10.519531 137.550781 C 10.105469 136.730469 11.238281 135.390625 11.546875 134.363281 C 16.894531 133.746094 20.082031 136.933594 22.859375 141.046875 C 23.375 143.414063 20.289063 141.460938 19.363281 142.796875 C 18.746094 143.722656 18.847656 145.265625 17.410156 145.777344 C 15.96875 142.386719 14.839844 137.859375 10.519531 137.550781 Z M 19.363281 154.109375 C 18 154.625 17.203125 154.625 16.175781 154.625 C 18.539063 154.214844 20.699219 151.640625 22.859375 150.921875 C 22.449219 152.671875 20.90625 153.492188 19.363281 154.109375 Z M 21.113281 190.929688 C 18.4375 188.769531 13.808594 189.902344 13.191406 185.273438 C 13.191406 180.644531 17.304688 176.636719 21.113281 174.371094 C 24.402344 178.796875 28.003906 172.316406 32.015625 174.886719 C 41.476563 170.566406 50.835938 177.148438 60.09375 172.109375 C 65.648438 172.417969 70.894531 168.921875 75.933594 168.40625 C 70.789063 173.34375 64.105469 174.988281 56.90625 176.636719 C 54.230469 173.550781 53.40625 178.179688 50.734375 177.5625 C 48.882813 178.589844 49.292969 181.675781 46.824219 181.570313 C 43.84375 181.367188 42.195313 182.1875 39.417969 182.292969 C 36.539063 185.378906 35.410156 189.285156 30.78125 189.390625 C 28.414063 191.445313 24.300781 192.472656 21.113281 190.929688 Z M 60.09375 192.679688 C 60.710938 191.753906 64.308594 192.886719 64.308594 192.886719 C 61.945313 197.101563 56.390625 197 52.480469 199.261719 C 51.351563 199.46875 49.601563 198.851563 48.984375 199.777344 C 41.375 199.570313 33.144531 201.9375 27.078125 196.792969 C 27.179688 195.972656 27.695313 195.457031 28.519531 195.355469 C 47.390625 202.867188 56.082031 191.960938 60.09375 192.679688 Z M 41.886719 187.949219 L 44.046875 185.480469 C 47.957031 186.304688 49.910156 182.703125 53.203125 181.570313 C 52.125 183 46.414063 187.949219 41.886719 187.949219 Z M 11.03125 219.832031 C 11.03125 219.832031 14.316406 209.726563 23.582031 209.648438 C 25.535156 208.828125 27.902344 209.34375 29.753906 208.414063 C 32.46875 214.160156 27.796875 216.128906 27.796875 216.128906 C 26.769531 213.046875 24.300781 216.953125 22.859375 214.585938 C 18.335938 214.894531 14.839844 217.671875 11.03125 219.832031 Z M 34.484375 238.550781 C 23.59375 232.3125 13.707031 251.613281 13.707031 251.613281 C 14.839844 247.601563 16.738281 240.78125 9.796875 244.929688 C 10.3125 242.460938 14.425781 238.964844 14.734375 235.054688 C 15.351563 231.867188 18.128906 226.210938 18.128906 226.210938 L 27.285156 217.054688 C 26.460938 220.140625 24.09375 222.609375 24.09375 226.003906 C 24.609375 227.136719 25.433594 226.3125 26.050781 226.003906 C 25.535156 229.191406 23.066406 232.175781 24.300781 235.570313 C 29.445313 231.96875 34.070313 226.003906 38.90625 222.710938 C 39.007813 224.871094 41.167969 223.636719 41.886719 223.226563 L 46.3125 219.832031 C 46.207031 220.242188 45.28125 221.785156 45.796875 222.710938 C 47.648438 222.816406 49.601563 221.066406 51.453125 221.066406 C 53.511719 218.085938 56.699219 219.523438 59.371094 218.804688 C 59.476563 219.421875 59.371094 220.242188 60.09375 220.757813 C 62.253906 221.785156 62.972656 219.214844 64.617188 218.804688 C 65.339844 221.890625 66.160156 225.902344 65.851563 229.398438 C 68.835938 231.558594 66.367188 235.980469 66.058594 239.066406 C 64.308594 240.8125 66.160156 242.976563 66.265625 244.929688 C 65.851563 252.949219 42.09375 268.6875 42.09375 268.6875 C 46.003906 262.929688 51.042969 257.476563 54.949219 251.613281 C 52.070313 249.558594 58.859375 246.265625 53.714844 246.675781 C 51.042969 249.453125 47.238281 249.351563 45.078125 252.335938 C 44.664063 250.996094 46.824219 249.761719 46.105469 248.21875 L 43.84375 247.910156 C 43.121094 245.957031 44.972656 242.355469 41.886719 242.050781 C 36.027344 243.078125 32.835938 250.070313 27.796875 251.921875 C 29.753906 247.292969 32.734375 243.28125 34.484375 238.550781 Z M 17.203125 299.234375 C 16.074219 299.441406 15.351563 297.898438 14.222656 298.824219 C 14.53125 295.429688 16.175781 291.726563 18.128906 288.949219 C 17.511719 287.714844 16.484375 287.507813 14.734375 287.199219 C 29.238281 251.671875 34.996094 254.597656 34.996094 254.597656 C 34.6875 256.652344 36.847656 256.960938 36.4375 259.019531 C 37.878906 259.328125 39.214844 260.460938 40.652344 260.046875 C 31.660156 274.664063 42.09375 272.082031 42.09375 272.082031 C 41.167969 275.371094 36.027344 276.710938 36.230469 280.515625 L 37.15625 281.234375 C 35.410156 284.730469 20.597656 293.679688 17.203125 299.234375 Z M 78.605469 466.367188 C 79.222656 460.507813 79.222656 454.4375 80.664063 448.882813 C 81.589844 454.230469 80.457031 462.460938 83.132813 467.398438 C 83.027344 468.835938 83.542969 471.820313 83.542969 471.820313 Z M 85.601563 454.539063 L 84.570313 438.703125 C 79.050781 436.503906 76.445313 446.621094 76.445313 446.621094 C 76.136719 429.238281 76.34375 416.28125 80.148438 400.027344 C 77.886719 396.019531 79.328125 390.773438 79.121094 386.660156 C 81.074219 388.199219 81.28125 392.519531 84.058594 393.859375 C 79.960938 420.46875 87.246094 411.855469 87.246094 411.855469 C 87.824219 431.058594 90.742188 429.136719 90.742188 429.136719 C 93.316406 427.183594 92.902344 423.171875 93.929688 420.1875 C 99.925781 420.167969 93.929688 439.113281 93.210938 447.339844 C 93.210938 447.339844 94.175781 450.113281 97.632813 441.683594 C 97.941406 446.828125 96.605469 452.792969 97.429688 457.523438 C 96.605469 459.890625 96.8125 462.976563 97.121094 465.441406 C 95.578125 466.164063 94.238281 470.070313 94.238281 470.070313 C 94.855469 463.695313 90.640625 451.660156 90.023438 450.839844 C 87.246094 450.015625 86.21875 452.996094 85.601563 454.539063 Z M 141.550781 529.3125 L 137.847656 538.46875 C 138.570313 541.65625 137.128906 544.84375 135.382813 547.105469 C 130.339844 550.089844 133.734375 559.550781 126.742188 560.683594 C 124.785156 561.507813 126.742188 563.667969 125.816406 565.105469 C 125.097656 571.6875 118.71875 576.007813 115.425781 581.152344 C 115.941406 583.722656 112.753906 583.414063 111.726563 584.132813 C 109.460938 586.707031 110.59375 592.054688 106.066406 592.773438 C 103.1875 593.800781 100.824219 591.949219 98.148438 591.539063 C 95.988281 593.597656 92.699219 593.90625 90.226563 592.980469 C 89.40625 591.4375 87.761719 592.980469 86.320313 592.566406 C 83.132813 593.597656 79.429688 592.363281 76.445313 594.523438 C 74.59375 594.109375 73.773438 592.875 71.714844 592.980469 C 69.675781 587.453125 84.058594 572.820313 84.058594 572.820313 C 86.421875 571.6875 87.039063 568.707031 87.761719 566.339844 C 88.070313 565.621094 88.171875 564.285156 89.304688 564.386719 C 93.210938 547.105469 92.390625 529.003906 90.023438 511.519531 C 89.714844 499.28125 90.023438 486.425781 86.835938 474.804688 L 88.996094 462.152344 C 91.152344 486.71875 94.652344 486.628906 94.652344 486.628906 C 96.914063 484.058594 96.503906 480.664063 96.914063 477.269531 C 102.648438 503.960938 105.347656 494.242188 105.347656 494.242188 C 109.976563 497.945313 114.503906 505.65625 120.878906 508.128906 C 121.703125 506.585938 122.832031 505.144531 124.785156 505.351563 C 128.796875 507.40625 129.722656 513.0625 134.453125 515.019531 C 136.511719 514.503906 135.996094 512.035156 136.410156 510.285156 C 145.050781 513.269531 140.523438 523.039063 141.550781 529.3125 Z M 165.003906 284.9375 L 164.28125 274.859375 C 163.664063 274.242188 162.945313 273.933594 162.121094 274.140625 C 161.195313 275.0625 160.886719 276.8125 159.859375 277.328125 C 160.269531 279.796875 159.449219 282.46875 157.183594 283.1875 C 157.90625 296.441406 146.589844 316.820313 143.300781 325.976563 C 143.710938 319.289063 141.964844 295.941406 143.09375 292.652344 C 139.390625 291.007813 141.449219 295.839844 139.390625 297.074219 L 138.878906 296.5625 C 140.625 290.59375 140.316406 284.628906 142.785156 279.074219 C 142.785156 279.074219 137.335938 290.183594 132.707031 294.296875 C 129.269531 311.769531 105.347656 343.664063 105.347656 343.664063 C 104.628906 340.273438 106.992188 336.261719 105.757813 333.074219 C 104.214844 332.867188 103.804688 334.203125 103.289063 335.335938 C 103.289063 336.261719 102.058594 342.019531 99.382813 344.488281 C 100 346.03125 93.621094 363.105469 91.464844 370.613281 C 90.332031 363.414063 92.492188 340.476563 90.023438 340.476563 C 89.507813 338.730469 89.199219 338.113281 88.273438 336.570313 C 87.761719 335.539063 85.601563 337.1875 85.601563 339.964844 C 84.058594 346.648438 78.914063 361.769531 78.914063 361.769531 C 59.894531 404.136719 73.875 450.324219 74.183594 461.433594 C 73.875 462.050781 68.011719 454.644531 65.03125 451.867188 C 63.898438 450.53125 64.308594 447.136719 62.152344 447.648438 C 58.652344 438.1875 62.152344 428.621094 61.328125 418.953125 C 60.710938 418.234375 59.476563 418.027344 58.652344 418.542969 C 55.566406 426.152344 55.464844 435.308594 54.949219 443.640625 C 53.511719 440.859375 52.6875 437.261719 52.6875 433.558594 C 52.6875 433.558594 56.082031 414.121094 56.699219 404.453125 C 63.074219 388.714844 78.296875 358.375 77.886719 358.269531 C 77.886719 358.269531 83.644531 343.976563 81.382813 342.433594 C 65.945313 362.589844 65.339844 357.035156 65.339844 357.035156 C 67.085938 349.632813 70.585938 342.945313 72.023438 335.335938 C 67.960938 330.726563 52.277344 355.082031 52.277344 355.082031 C 46.988281 352.910156 65.136719 326.695313 64.105469 323.199219 C 61.738281 322.273438 48.882813 339.140625 47.339844 342.433594 C 47.957031 334.410156 51.554688 327.621094 53.714844 320.214844 C 53.714844 319.394531 52.894531 318.054688 51.761719 318.570313 C 45.386719 321.246094 35.410156 340.582031 34.996094 344.179688 C 34.585938 332.867188 40.140625 321.964844 41.578125 310.34375 C 41.273438 309.417969 40.34375 310.035156 39.625 309.929688 C 36.230469 315.074219 35.511719 321.347656 31.707031 326.386719 C 32.21875 315.894531 35.101563 305.40625 39.625 296.046875 C 39.214844 295.53125 38.699219 295.222656 37.878906 295.324219 C 34.996094 299.441406 31.398438 302.011719 29.753906 306.640625 C 29.136719 306.949219 28.929688 306.230469 28.519531 305.921875 C 29.753906 300.777344 32.21875 295.738281 35.410156 291.828125 C 35.410156 292.34375 40.550781 286.070313 44.046875 284.730469 L 51.246094 278.765625 C 54.023438 280 54.539063 275.785156 57.417969 275.785156 C 57.523438 276.605469 58.035156 277.222656 58.652344 277.328125 L 49.808594 285.96875 L 51.042969 287.40625 C 57.316406 283.601563 64.722656 280.410156 70.789063 275.785156 C 69.96875 278.871094 60.09375 289.875 60.09375 289.875 C 60.699219 298.058594 73.257813 280 78.914063 276.296875 C 77.578125 280.410156 69.976563 288.78125 74.011719 289.988281 C 74.011719 289.988281 84.261719 278.253906 90.949219 274.140625 C 88.996094 278.871094 84.160156 282.984375 83.132813 288.433594 C 84.902344 291.601563 93.316406 279.179688 97.941406 274.859375 C 95.472656 282.265625 83.691406 294.828125 88.070313 297.589844 C 88.070313 297.589844 100.203125 286.585938 104.835938 280 C 104.214844 282.058594 100.308594 291.417969 101.132813 293.371094 C 101.132813 293.371094 111.828125 283.1875 114.914063 277.839844 C 115.015625 281.75 112.136719 286.171875 111.003906 290.390625 C 111.210938 291.417969 112.238281 291.316406 112.960938 291.417969 L 119.644531 282.46875 L 122.832031 287.40625 C 124.785156 286.273438 123.859375 283.1875 126.535156 282.984375 C 128.902344 285.246094 124.785156 288.742188 128.796875 289.875 C 133.734375 284.011719 134.660156 276.402344 137.847656 269.921875 C 139.90625 271.363281 137.128906 277.328125 141.140625 276.09375 C 141.757813 275.0625 141.757813 273.316406 142.785156 272.902344 C 142.683594 274.550781 143.710938 275.371094 145.050781 276.296875 C 149.472656 268.6875 152.042969 260.355469 156.15625 252.644531 C 157.800781 254.390625 156.878906 258.09375 159.34375 259.328125 C 159.34375 259.328125 163.664063 236.085938 163.355469 225.179688 L 165.003906 226.003906 C 165.617188 224.359375 165.929688 222.609375 165.824219 220.757813 C 169.628906 221.785156 167.367188 215.617188 167.984375 214.585938 C 170.246094 218.703125 170.144531 224.152344 173.949219 227.238281 C 173.949219 227.238281 174.257813 215.820313 175.183594 210.371094 C 177.34375 210.574219 178.269531 213.351563 179.605469 214.894531 C 188 220 188 220.667969 184.75 213.351563 C 185.882813 213.457031 183.105469 207.285156 182.074219 208.929688 C 182.082031 208.976563 182.082031 208.980469 182.074219 208.929688 C 181.996094 208.320313 180.828125 199.71875 180.636719 194.839844 C 179.195313 194.324219 173.230469 188.257813 172.921875 186.507813 C 171.585938 179.105469 168.910156 171.800781 164.078125 166.453125 C 167.984375 164.191406 162.226563 158.429688 168.292969 158.328125 C 169.835938 157.195313 168.089844 155.652344 169.527344 154.417969 C 172.714844 155.550781 177.550781 147.9375 179.09375 146.191406 C 182.898438 147.9375 185.984375 150.097656 188.964844 153.183594 C 191.023438 153.082031 190.199219 150.511719 190.714844 149.171875 C 190.816406 147.015625 186.292969 144.855469 189.6875 143.003906 C 190.921875 143.722656 191.433594 144.855469 192.976563 144.75 C 193.699219 138.683594 181.664063 114.511719 182.589844 106.695313 C 188.65625 107.3125 201.410156 111.117188 201.824219 110.191406 C 202.339844 107.414063 198.636719 105.460938 199.558594 102.582031 C 198.839844 98.671875 194.210938 97.644531 191.433594 95.175781 C 189.273438 92.195313 186.496094 89.003906 185.570313 85.300781 C 184.441406 83.554688 182.488281 83.246094 181.355469 82.011719 C 182.691406 79.132813 187.835938 77.898438 187.730469 74.195313 C 185.984375 69.976563 177.960938 70.699219 180.328125 64.527344 C 179.09375 62.777344 175.800781 64.21875 175.699219 61.339844 C 174.566406 58.457031 179.914063 56.195313 175.902344 54.136719 C 172.820313 53.933594 170.554688 53.316406 167.984375 54.652344 C 166.03125 51.359375 173.539063 49.714844 168.5 47.246094 C 166.234375 47.660156 164.691406 46.527344 162.84375 46.21875 C 159.035156 39.738281 156.363281 31.71875 153.6875 25.75 C 157.800781 28.324219 164.589844 27.703125 169.527344 26.78125 C 177.960938 27.808594 182.796875 32.847656 189.6875 37.578125 C 192.050781 44.675781 199.148438 48.789063 202.027344 55.371094 L 204.804688 59.074219 L 202.542969 63.496094 C 205.21875 67.507813 207.890625 69.359375 210.976563 72.652344 C 209.742188 74.296875 209.023438 76.664063 209.949219 78.617188 C 212.621094 84.480469 220.128906 86.640625 218.589844 94.148438 C 222.597656 101.65625 233.089844 107.105469 228.460938 116.878906 C 228.460938 124.179688 237.617188 127.0625 235.660156 135.082031 C 238.746094 139.402344 241.214844 143.105469 243.273438 147.9375 C 242.242188 153.597656 249.546875 155.757813 251.707031 159.769531 C 254.6875 168.511719 260.347656 176.222656 264.5625 184.246094 C 269.703125 188.976563 273.921875 194.941406 278.859375 200.289063 C 278.859375 200.289063 277.417969 200.289063 276.390625 200.496094 C 275.980469 202.964844 278.960938 204.714844 279.066406 207.183594 C 277.523438 208.414063 275.671875 205.125 274.847656 207.695313 C 277.726563 213.148438 279.066406 219.214844 281.019531 224.976563 C 276.597656 224.5625 274.230469 220.242188 269.703125 219.316406 C 270.632813 225.179688 274.640625 239.992188 273.40625 239.273438 C 270.527344 238.347656 264.871094 232.894531 264.046875 233.613281 C 263.84375 238.757813 265.078125 244.621094 266.722656 249.660156 C 263.636719 248.632813 262.8125 244.414063 258.804688 244.929688 C 258.699219 250.378906 261.167969 255.523438 260.550781 260.972656 C 260.550781 260.972656 256.128906 253.980469 252.21875 252.644531 L 252.632813 269.613281 C 249.753906 268.277344 247.078125 257.066406 244.507813 258.300781 C 241.730469 266.835938 243.890625 277.121094 245.019531 285.96875 C 243.375 281.648438 239.46875 271.15625 238.644531 271.671875 C 235.867188 275.679688 237.820313 281.953125 236.894531 285.453125 C 235.351563 283.085938 235.25 278.765625 231.648438 278.5625 C 227.433594 280.515625 227.640625 286.789063 226.714844 290.902344 C 225.066406 287.921875 225.171875 284.113281 222.804688 281.542969 C 219.617188 280.410156 218.074219 291.828125 218.074219 291.828125 C 216.839844 289.773438 218.894531 285.246094 215.398438 285.246094 C 213.546875 289.359375 212.109375 293.578125 210.976563 298 L 210.667969 282.777344 C 210.359375 281.953125 209.640625 282.367188 209.023438 282.265625 C 206.449219 287.097656 204.113281 293.617188 202.675781 298.863281 C 201.648438 295.261719 203.777344 289.257813 201.617188 285.96875 C 199.867188 285.347656 199.765625 286.996094 198.324219 286.890625 C 197.09375 293.371094 193.078125 297.382813 191.742188 303.761719 C 191.640625 293.988281 192.976563 282.882813 191.433594 272.902344 C 191.230469 271.671875 189.890625 271.875 188.964844 271.875 L 185.058594 280 L 185.984375 265.703125 C 185.675781 264.882813 184.953125 264.367188 184.03125 264.472656 C 182.28125 268.789063 182.105469 289.183594 173.4375 301.496094 C 173.4375 305.921875 169.21875 313.324219 169.21875 313.324219 C 168.191406 304.171875 168.292969 294.914063 167.265625 285.453125 C 166.648438 284.9375 165.824219 284.425781 165.003906 284.9375 Z M 168.292969 395.8125 C 169.320313 394.269531 167.984375 390.875 170.453125 390.875 C 173.128906 381.925781 174.257813 372.054688 176.109375 363.210938 C 176.109375 363.210938 178.785156 375.449219 184.03125 379.046875 C 186.703125 377.8125 187.011719 368.351563 187.011719 368.351563 C 187.835938 370.40625 189.070313 373.289063 191.742188 373.597656 C 191.742188 373.597656 194.304688 382.65625 203.261719 326.183594 C 203.261719 326.183594 205.800781 325.484375 207.480469 343.664063 C 208.625 340.6875 209.023438 339.964844 209.742188 338.011719 C 211.59375 348.296875 212.003906 360.738281 213.136719 372.566406 C 212.109375 371.746094 211.59375 369.175781 209.742188 370.820313 C 208.40625 373.90625 209.433594 384.191406 209.949219 385.425781 C 196.121094 382.355469 212.003906 398.589844 214.679688 405.6875 C 213.664063 409.578125 209.226563 402.085938 205.730469 403.421875 C 204.910156 407.535156 207.480469 415.558594 207.480469 415.558594 C 207.480469 415.558594 197.914063 405.171875 194.417969 400.027344 C 192.050781 399.617188 191.949219 397.046875 190.714844 395.503906 C 188.039063 396.328125 190.304688 399.410156 187.730469 400.441406 L 187.011719 406.40625 C 178.574219 391.730469 180.328125 411.652344 179.09375 414.53125 C 175.082031 408.976563 170.863281 402.910156 168.292969 395.8125 Z M 281.019531 499.691406 C 280.402344 499.179688 279.578125 496.710938 278.140625 497.945313 C 277.316406 503.292969 277.109375 520.675781 277.109375 520.675781 C 275.980469 519.953125 274.640625 518.207031 272.894531 519.234375 C 272.894531 519.234375 271.660156 529.726563 270.9375 533.738281 C 270.21875 533.121094 269.191406 529.929688 267.441406 529.3125 C 267.339844 526.949219 266.207031 524.789063 264.046875 524.171875 C 261.992188 524.273438 263.429688 527.15625 262.300781 527.566406 C 267.210938 544.496094 256.128906 550.707031 255.410156 552.558594 C 254.585938 551.222656 256.320313 539.957031 245.019531 533.738281 C 244.199219 533.632813 242.964844 533.738281 242.347656 534.765625 C 252.386719 552.964844 242.039063 563.667969 241.832031 566.136719 C 240.90625 565.414063 241.730469 563.050781 240.085938 562.945313 C 239.671875 562.019531 241.011719 560.785156 239.878906 559.964844 C 237.308594 559.039063 238.746094 563.5625 235.867188 562.125 C 235.453125 564.179688 236.894531 566.03125 235.660156 568.089844 C 234.425781 572.203125 233.296875 576.625 231.238281 580.226563 C 230.003906 588.96875 225.890625 596.683594 222.597656 604.394531 C 215.707031 604.703125 217.765625 614.785156 210.667969 614.785156 C 208.816406 618.382813 204.394531 618.28125 201.308594 619.414063 C 197.605469 619.207031 193.285156 615.296875 190.507813 619.925781 C 187.835938 621.882813 184.648438 620.644531 182.074219 619.925781 C 180.429688 619.414063 181.460938 616.53125 179.09375 616.945313 C 177.859375 618.589844 175.492188 617.457031 173.949219 619.207031 C 172.613281 619.207031 170.660156 619.515625 170.453125 617.664063 C 173.847656 611.082031 177.242188 604.601563 180.636719 597.917969 C 193.078125 585.265625 186.703125 564.386719 187.011719 547.828125 C 185.882813 537.851563 184.75 526.332031 187.011719 516.457031 C 184.441406 508.742188 189.273438 500.722656 184.75 493.828125 C 186.496094 491.875 189.164063 489.136719 184.03125 479.945313 C 184.953125 480.253906 185.570313 480.5625 186.292969 479.738281 C 184.953125 473.878906 188.246094 467.601563 184.339844 462.152344 C 184.339844 456.496094 187.21875 451.867188 186.496094 446.105469 C 184.851563 446.105469 185.777344 444.152344 184.339844 443.640625 C 182.488281 443.84375 181.765625 445.179688 180.121094 445.695313 C 179.710938 441.480469 185.230469 431.964844 190.714844 433.351563 C 190.371094 443.761719 194.210938 442.199219 194.210938 442.199219 C 198.429688 436.542969 202.339844 430.371094 206.964844 425.433594 C 207.890625 425.742188 208.097656 427.59375 209.433594 427.386719 C 210.667969 426.566406 209.332031 425.535156 209.742188 424.40625 C 211.902344 425.332031 213.445313 426.871094 216.121094 425.949219 C 218.382813 424.609375 219.617188 421.628906 222.085938 420.496094 C 221.777344 423.683594 219.203125 428.109375 222.804688 430.371094 C 224.449219 429.960938 226.40625 429.445313 227.226563 427.59375 C 227.433594 430.988281 224.554688 435.617188 227.742188 438.703125 C 233.933594 428.941406 237.71875 430.371094 238.128906 430.578125 C 238.335938 432.632813 236.585938 434.894531 238.128906 436.542969 C 245.125 436.953125 250.265625 441.171875 256.128906 443.226563 C 258.289063 448.78125 262.402344 452.894531 266.003906 457.214844 C 266.824219 458.347656 265.28125 458.449219 264.972656 459.476563 C 264.488281 469.476563 276.492188 469.144531 277.625 473.566406 C 279.992188 481.796875 280.09375 490.847656 281.328125 499.488281 Z M 301.28125 295.839844 C 300.871094 295.429688 300.148438 295.636719 299.53125 295.53125 C 298.8125 297.382813 297.167969 299.132813 297.0625 300.984375 C 299.738281 304.6875 299.429688 309.621094 300.765625 313.839844 C 300.148438 313.941406 299.429688 313.53125 299.121094 314.355469 C 300.765625 326.183594 303.851563 338.933594 304.058594 350.867188 C 301.382813 347.679688 300.765625 342.945313 298.296875 339.242188 C 292.921875 341.515625 307.140625 358.457031 301.796875 370.820313 C 299.121094 367.734375 294.738281 353.011719 289.96875 357.757813 C 285.359375 362.691406 299.878906 381.445313 295.417969 394.785156 C 291.714844 390.566406 287.175781 373.882813 284.722656 379.769531 C 283.589844 384.292969 286.777344 389.332031 286.777344 394.578125 C 286.574219 396.019531 287.191406 398.28125 286.265625 399.722656 C 284.003906 397.148438 274.167969 387.496094 279.371094 412.578125 L 277.109375 410.621094 C 277.109375 410.621094 281.019531 430.988281 279.578125 440.449219 L 273.613281 428.414063 C 274.4375 428.519531 275.054688 429.238281 275.671875 428.109375 C 269.5 412.0625 257.570313 379.769531 257.570313 379.769531 C 259.730469 381.414063 267.441406 390.671875 269.910156 391.082031 C 272.65625 386.890625 268.058594 373.183594 267.441406 367.425781 C 268.058594 367.9375 270.425781 367.632813 270.425781 367.632813 L 268.265625 339.550781 C 271.761719 341.710938 272.894531 346.648438 276.597656 348.398438 C 277.417969 348.605469 277.523438 347.679688 277.625 347.164063 L 275.15625 340.476563 C 275.566406 339.039063 278.449219 339.550781 277.316406 337.085938 C 276.90625 327.929688 274.746094 319.597656 272.378906 311.371094 C 278.34375 316.617188 282.046875 324.125 283.488281 331.839844 C 284.105469 332.351563 285.132813 332.765625 286.265625 332.558594 C 287.394531 327.414063 277.191406 304.609375 277.828125 295.121094 C 280.605469 293.679688 281.945313 297.589844 284.515625 297.28125 C 282.253906 290.59375 284.105469 282.574219 281.019531 275.785156 C 283.074219 276.710938 285.851563 275.167969 287.703125 275.785156 C 297.460938 284.644531 296.34375 279.796875 296.34375 279.796875 C 293.773438 269.203125 289.660156 259.121094 287.496094 248.425781 C 289.039063 248.941406 294.902344 256.859375 296.859375 255.832031 C 299.121094 248.117188 291.097656 243.386719 291.40625 235.878906 C 292.949219 237.832031 294.183594 240.710938 296.34375 242.050781 C 298.8125 240.199219 299.53125 237.933594 300.5625 235.363281 C 298.8125 230.425781 298.914063 225.179688 298.09375 220.554688 C 299.839844 223.535156 305.085938 221.375 305.292969 226.210938 C 307.65625 238.757813 310.023438 251.921875 307.964844 264.675781 C 307.761719 264.058594 305.496094 263.75 305.496094 263.75 C 303.234375 270.746094 307.246094 276.914063 308.6875 283.1875 C 311.15625 291.210938 314.652344 312.503906 315.164063 314.355469 C 310.847656 308.078125 306.011719 302.21875 301.28125 295.839844 Z M 472.839844 233.410156 L 470.882813 234.644531 L 470.367188 231.351563 C 472.015625 232.175781 472.632813 229.808594 473.351563 228.882813 C 474.894531 231.96875 476.027344 233.820313 477.261719 237.113281 C 474.175781 236.085938 470.679688 242.050781 470.679688 242.050781 L 468.929688 240.300781 C 471.191406 239.273438 470.164063 235.671875 473.351563 234.847656 C 473.351563 234.335938 473.453125 233.71875 472.839844 233.410156 Z M 375.128906 502.675781 C 374.203125 508.023438 376.363281 514.195313 373.894531 518.925781 C 371.875 528.160156 360.421875 525.714844 354.867188 524.890625 C 351.164063 523.964844 347.5625 526.433594 343.757813 526.640625 C 342.832031 529.003906 339.234375 526.949219 337.792969 529.3125 C 336.457031 528.492188 338.617188 526.535156 336.351563 526.125 C 333.0625 526.535156 329.152344 528.800781 326.273438 525.921875 C 326.683594 523.761719 328.84375 521.703125 329.667969 519.441406 C 334.296875 516.867188 341.289063 506.585938 341.289063 506.585938 C 344.171875 494.859375 341.1875 482.621094 340.054688 471.101563 C 339.027344 469.246094 339.027344 466.984375 339.027344 464.621094 C 340.570313 462.664063 342.011719 460.609375 343.757813 458.757813 C 345.199219 460.710938 345.816406 457.316406 346.945313 457.007813 C 348.078125 454.644531 351.371094 452.585938 354.144531 452.585938 C 356.101563 451.25 356.613281 446.414063 359.289063 448.164063 C 361.449219 447.03125 363.816406 447.238281 365.976563 446.105469 C 369.882813 447.957031 372.144531 442.816406 376.054688 442.402344 C 386.957031 445.179688 377.804688 455.773438 382.019531 462.460938 C 383.355469 476.449219 378.214844 489.613281 375.128906 502.675781 Z M 396.109375 168.714844 C 392.820313 169.640625 390.96875 165.011719 387.472656 166.761719 C 387.160156 168.613281 387.367188 172.210938 384.28125 172.417969 C 384.28125 172.417969 381.8125 170.976563 381.300781 170.875 C 376.15625 167.070313 375.847656 174.371094 373.585938 176.636719 C 371.324219 177.5625 370.5 172.828125 367.414063 174.886719 C 364.328125 177.5625 362.683594 181.367188 359.804688 183.527344 C 359.804688 181.261719 361.757813 178.484375 358.570313 177.046875 C 356.203125 178.898438 350.648438 184.863281 350.136719 185.273438 C 350.136719 181.984375 351.988281 179.515625 353.425781 176.839844 C 352.914063 174.476563 351.164063 176.636719 349.722656 176.328125 C 347.871094 177.972656 345.714844 179.207031 343.757813 180.027344 C 346.019531 177.457031 346.945313 171.492188 351.164063 172.625 C 352.808594 171.699219 354.351563 170.773438 356.101563 171.902344 C 360.007813 174.164063 362.375 167.378906 366.179688 170.464844 C 369.472656 167.996094 369.882813 173.859375 373.175781 172.933594 C 374.820313 172.007813 376.15625 170.359375 377.082031 169.230469 C 380.476563 169.640625 384.695313 160.796875 384.695313 160.796875 L 393.640625 161.824219 C 393.332031 164.808594 399.300781 166.761719 396.109375 168.714844 Z M 417.8125 162.542969 C 413.699219 159.769531 421.71875 156.0625 416.578125 154.109375 C 412.976563 156.476563 407.9375 156.269531 403 155.859375 C 402.589844 154.316406 398.988281 154.316406 401.046875 152.15625 C 402.179688 151.023438 405.265625 151.023438 404.953125 148.453125 C 400.121094 146.910156 398.476563 153.390625 393.847656 150.921875 C 391.378906 152.15625 389.527344 149.6875 387.160156 150.203125 C 387.675781 149.480469 387.472656 148.246094 386.441406 147.9375 C 384.28125 148.863281 384.695313 145.574219 383.769531 144.75 C 373.386719 146.703125 372.351563 144.238281 372.351563 144.238281 C 373.996094 140.945313 377.597656 139.917969 380.785156 138.375 C 381.195313 137.859375 380.992188 137.140625 380.992188 136.625 C 377.699219 137.140625 373.484375 133.230469 370.707031 137.140625 L 368.957031 136.832031 C 367.210938 132.203125 379.757813 131.070313 371.425781 127.265625 C 369.164063 126.03125 366.59375 127.367188 364.738281 127.984375 C 365.152344 126.03125 368.03125 125.722656 367.210938 123.253906 C 363.507813 120.890625 359.699219 123.460938 355.894531 124.28125 C 357.539063 121.710938 360.007813 120.066406 360.832031 117.085938 C 359.289063 115.230469 357.644531 117.496094 355.894531 117.085938 L 343.964844 123.769531 C 343.242188 121.917969 346.742188 119.859375 343.757813 119.039063 C 334.363281 126.132813 327.40625 125.519531 324.523438 126.03125 C 322.878906 125.003906 323.085938 120.785156 319.792969 122.328125 C 319.175781 122.121094 318.664063 122.84375 318.558594 123.253906 C 317.738281 124.796875 320.203125 124.28125 319.28125 125.722656 C 315.578125 126.339844 310.164063 116.152344 310.949219 125.003906 C 312.183594 130.660156 324.078125 139.445313 320.824219 147.734375 C 309.257813 156.082031 299.839844 150.203125 298.296875 150.40625 C 298.296875 146.703125 294.492188 144.855469 295.828125 140.84375 C 293.980469 139.609375 290.6875 139.609375 291.199219 136.316406 C 291.199219 133.230469 297.988281 131.175781 294.183594 127.472656 C 290.378906 125.003906 291.097656 119.039063 290.6875 114.925781 C 291.921875 111.632813 294.902344 108.960938 295.109375 105.257813 C 298.8125 103.609375 295.828125 98.570313 299.53125 97.644531 C 299.738281 95.894531 298.296875 95.277344 300.046875 93.632813 C 306.527344 90.34375 307.761719 81.601563 315.164063 79.335938 C 320.617188 73.269531 328.84375 80.058594 334.089844 74.195313 C 341.496094 73.0625 348.59375 71.109375 354.351563 77.074219 C 359.085938 78.101563 364.226563 72.753906 367.722656 77.898438 C 369.574219 78.515625 373.691406 76.523438 377.289063 79.542969 C 378.726563 81.703125 379.964844 84.378906 383.046875 84.066406 C 383.664063 81.703125 390.933594 80.152344 394.566406 86.742188 C 396.933594 87.566406 398.886719 91.0625 402.28125 90.445313 C 403 92.296875 403.925781 90.035156 404.953125 90.445313 C 408.554688 90.34375 408.351563 95.792969 411.847656 96.410156 L 418.53125 96.617188 L 421.308594 101.347656 C 424.394531 101.65625 427.378906 102.171875 428.714844 105.257813 C 429.023438 108.136719 429.433594 111.222656 431.390625 113.175781 C 432.210938 114.925781 434.78125 113.691406 435.8125 115.335938 C 435.195313 117.804688 436.738281 120.167969 438.28125 121.816406 C 441.671875 123.050781 443.523438 126.441406 443.9375 129.941406 C 443.835938 133.230469 443.835938 137.449219 446.199219 139.8125 C 448.566406 143.003906 454.222656 143.105469 454.632813 147.9375 C 455.765625 149.171875 457.71875 149.585938 459.261719 150.40625 C 460.085938 152.566406 459.46875 155.34375 461.730469 156.886719 L 465.742188 158.53125 L 468.621094 176.328125 C 454.460938 173.324219 462.65625 195.558594 465.226563 197.824219 C 464.507813 200.1875 469.585938 200.550781 469.445313 205.023438 C 467.285156 203.789063 465.125 203.582031 462.449219 202.964844 C 458.746094 201.011719 465.226563 198.644531 462.242188 195.867188 C 461.523438 192.371094 456.074219 195.765625 456.585938 191.855469 C 456.792969 190.519531 458.335938 188.875 457.101563 187.742188 C 454.941406 186.199219 448.460938 186.304688 447.949219 186.507813 C 447.226563 185.378906 445.375 185.6875 445.171875 184.246094 L 446.714844 180.542969 C 437.820313 179.675781 437.355469 170.671875 437.355469 170.671875 C 441.261719 168.714844 444.554688 163.675781 449.902344 165.21875 C 450.519531 162.648438 455.867188 165.425781 454.839844 161.824219 C 452.679688 159.769531 450.003906 158.429688 447.226563 160.074219 C 442.1875 163.984375 434.269531 162.542969 429.433594 166.761719 C 426.039063 166.039063 422.234375 165.527344 420.28125 162.542969 C 419.765625 163.265625 418.324219 163.265625 417.8125 162.542969 Z M 484.460938 337.085938 C 478.054688 336.375 479.523438 347.882813 478.082031 351.070313 C 462.929688 344.238281 468.070313 359.96875 472.324219 363.722656 C 468.519531 363.003906 464.507813 363.515625 461.730469 366.191406 C 461.628906 369.277344 465.125 371.128906 464.714844 373.800781 C 462.757813 375.035156 459.261719 372.257813 459.054688 375.34375 C 456.894531 375.960938 454.734375 377.09375 454.117188 379.253906 C 453.398438 381.722656 455.660156 384.085938 457.511719 385.21875 C 456.996094 388.304688 451.960938 385.835938 452.574219 389.847656 C 451.136719 396.019531 462.039063 398.691406 454.632813 404.144531 C 453.503906 403.835938 452.78125 404.65625 453.089844 405.378906 C 453.398438 415.867188 458.4375 425.640625 464.507813 434.277344 C 467.796875 438.597656 481.078125 457.375 477.570313 478.710938 C 478.1875 495.785156 483.535156 511.109375 482.195313 528.59375 C 478.597656 533.429688 485.078125 545.976563 474.792969 543.609375 C 473.96875 546.386719 471.191406 546.488281 469.136719 547.3125 C 465.433594 550.707031 460.90625 552.148438 455.867188 551.839844 C 455.25 554.101563 452.78125 555.027344 450.621094 555.234375 C 448.566406 555.542969 448.152344 552.558594 445.992188 554 C 444.757813 555.953125 441.980469 556.46875 440.027344 555.542969 C 439.308594 554.410156 439.617188 551.53125 437.355469 551.839844 C 437.046875 552.148438 436.941406 552.867188 436.53125 553.074219 C 435.605469 552.351563 434.269531 552.351563 433.855469 551.015625 C 435.195313 548.03125 432.074219 542.078125 445.480469 535.484375 C 443.523438 532.503906 445.992188 527.976563 445.171875 524.6875 C 444.449219 510.800781 442.085938 497.53125 440.542969 483.957031 C 440.4375 475.109375 436.738281 467.398438 430.875 461.433594 C 432.621094 456.289063 426.554688 453.410156 429.433594 448.371094 C 429.949219 447.753906 430.464844 446.929688 429.949219 446.105469 C 428.199219 446.003906 426.246094 447.753906 423.777344 447.136719 L 422.953125 446.414063 C 427.789063 446.621094 428.609375 440.964844 430.152344 437.777344 C 431.183594 435.820313 429.742188 433.457031 427.6875 433.351563 C 426.347656 433.96875 424.496094 434.074219 422.953125 433.765625 C 424.085938 431.707031 423.261719 429.855469 422.542969 427.902344 C 424.210938 419.863281 420.691406 418.132813 420.28125 417.71875 C 421.617188 414.53125 424.394531 410.3125 420.28125 407.640625 C 420.074219 405.582031 421.71875 403.628906 421.515625 401.265625 C 422.339844 397.457031 417.503906 393.960938 422.542969 391.59375 C 426.246094 387.277344 419.972656 379.460938 425.9375 377.300781 C 428.714844 374.523438 429.847656 370.203125 428.921875 366.398438 L 431.183594 364.441406 C 434.371094 367.015625 436.53125 372.671875 441.46875 371.847656 C 446.59375 368.742188 438.382813 357.964844 437.558594 352.101563 C 446.289063 359.0625 450.929688 356.007813 451.34375 354.363281 C 445.6875 351.195313 447.949219 347.679688 447.949219 347.679688 C 451.546875 350.144531 456.894531 355.289063 462.242188 352.304688 C 463.476563 349.835938 459.878906 342.535156 461.523438 342.433594 C 464.300781 343.253906 471.191406 344.488281 471.605469 343.976563 C 473.042969 340.476563 471.296875 336.980469 469.648438 334.101563 C 473.351563 334.308594 475.410156 336.980469 479.316406 337.085938 C 482.59375 331.835938 472.941406 325.257813 473.351563 321.757813 C 475.613281 321.246094 476.847656 325.460938 480.039063 325.152344 C 481.578125 321.757813 479.523438 317.953125 477.054688 315.277344 C 478.355469 306.121094 463.066406 295.839844 459.980469 292.859375 C 459.773438 291.828125 460.289063 290.390625 461.523438 290.59375 C 464.714844 291.316406 467.285156 293.164063 469.855469 295.839844 C 470.574219 295.941406 471.191406 295.636719 471.605469 295.121094 C 457.484375 274.359375 460.289063 274.34375 460.289063 274.34375 C 463.375 272.699219 466.460938 277.945313 468.414063 274.34375 C 468.519531 268.585938 464.917969 264.265625 463.273438 259.328125 C 465.742188 258.8125 467.796875 261.28125 470.679688 260.046875 C 474.484375 254.492188 467.386719 250.378906 464.917969 245.957031 C 465.535156 244.621094 467.695313 245.238281 468.929688 245.441406 C 471.808594 248.425781 474.070313 251.304688 476.847656 254.800781 C 471.398438 257.421875 476.746094 269.820313 478.804688 274.550781 C 478.90625 276.09375 475.511719 275.476563 475.820313 278.046875 C 476.644531 284.425781 479.933594 289.773438 481.476563 295.839844 C 474.277344 302.421875 484.152344 310.136719 484.460938 317.746094 C 482.8125 321.347656 481.078125 331.535156 484.460938 337.085938 "/>
</g>
</svg>
