<?xml version="1.0" encoding="UTF-8"?>
<svg xmlns="http://www.w3.org/2000/svg" xmlns:xlink="http://www.w3.org/1999/xlink" width="535pt" height="335pt" viewBox="0 0 535 335" version="1.1">
<g id="surface1">
<path style=" stroke:none;fill-rule:nonzero;fill:rgb(0%,0%,0%);fill-opacity:1;" d="M 521.410156 135.1875 C 515.554688 124.078125 509.238281 113.539063 506.171875 101.335938 C 505.675781 99.371094 505.171875 99.417969 504.476563 101.523438 C 500.523438 113.292969 493.921875 131.910156 487.109375 139.960938 C 487.039063 138.0625 487.039063 136.402344 486.796875 134.351563 C 494.351563 122.046875 491.566406 112.863281 485.300781 97.550781 C 479.757813 83.992188 478.0625 77.355469 482.578125 62.855469 C 487.277344 47.757813 482.351563 37.183594 467.734375 26.796875 C 459.976563 9.0625 447.796875 -4.742188 424.144531 1.042969 C 417.066406 2.777344 402.003906 7.542969 393.628906 5.207031 C 381.050781 1.699219 372.164063 10.757813 364.8125 18.296875 C 362.011719 21.164063 362.261719 21.488281 366.273438 20.722656 C 382.761719 17.578125 391.816406 25.851563 393.191406 43.753906 C 394.011719 54.429688 396.964844 63.746094 403.378906 70.382813 C 394.5625 74.25 389.101563 79.78125 391.210938 91.746094 C 391.941406 95.902344 391.457031 98.417969 389.953125 101.300781 C 385.777344 109.296875 387.65625 117.375 394.558594 125.90625 C 393.878906 128.886719 393.804688 132.644531 394.050781 135.992188 C 388.386719 133.367188 378.214844 134.582031 372.011719 131.414063 C 361.085938 125.835938 355.675781 124.941406 344.003906 130.105469 C 334.789063 134.175781 330.011719 135.160156 314.957031 134.394531 C 290.007813 133.128906 287.335938 134.691406 262.625 138.191406 C 260.558594 138.484375 260.382813 137.488281 262.003906 136.828125 C 268.25 134.273438 271.21875 132.421875 269.734375 125.367188 C 268.789063 120.871094 272.246094 117.550781 275.410156 114.566406 C 285.09375 105.429688 280.339844 96.566406 269.488281 85.160156 C 261.609375 76.875 248.976563 67.40625 253.132813 52.699219 C 253.878906 50.074219 253.632813 49.515625 251.46875 50.929688 C 248.15625 53.089844 245.132813 56.066406 242.894531 59.40625 C 239.851563 63.941406 236.167969 73.398438 229.886719 75.902344 C 225.554688 77.628906 222.4375 79.359375 216.734375 84.363281 C 216.011719 83.640625 215.101563 82.972656 214.136719 82.808594 C 213.039063 83.632813 211.007813 86.601563 209.328125 88.308594 C 208.929688 88.84375 208.617188 88.730469 208.910156 87.929688 C 210.890625 83.410156 214.242188 78.710938 216.507813 74.167969 C 220.253906 66.664063 216.074219 65.527344 208.472656 62.328125 C 208.414063 51.839844 201.804688 47.753906 189.839844 49.246094 C 178.808594 50.621094 171.1875 53.226563 159.136719 51.296875 C 137.410156 47.816406 134.921875 50.324219 117.105469 67.871094 C 113.699219 68.960938 107.214844 70.558594 102.980469 71.390625 C 96.324219 72.703125 89.167969 71.003906 82.527344 71.394531 C 80.734375 71.5 80.601563 72.242188 81.863281 73.242188 C 89.359375 79.203125 100.664063 84.710938 111.734375 82.71875 C 118.867188 81.4375 122.867188 81.457031 126.839844 83.019531 C 134.550781 86.050781 138.101563 86.847656 147.773438 85.71875 C 158.382813 84.480469 166.09375 92.378906 169.355469 101.628906 C 167.605469 102.65625 165.925781 104.167969 164.226563 105.40625 C 161.75 104.675781 150.992188 104.183594 148.582031 103.984375 C 145.910156 103.765625 145.097656 105.15625 145.539063 107.566406 C 146.683594 113.777344 153.332031 120.316406 157.132813 123.523438 C 157.042969 128.113281 157.746094 132.640625 158.789063 136.828125 C 156.546875 141.148438 154.613281 144.949219 151.949219 149.671875 C 149.464844 142.550781 142.496094 136.460938 136.214844 133.671875 C 129.296875 130.597656 124.277344 128.496094 117.839844 119.078125 C 112.289063 110.96875 99.550781 106.480469 88.339844 101.421875 C 72.289063 94.183594 61.320313 84.039063 58.277344 66.519531 C 58.09375 65.464844 57.582031 65.347656 57.027344 66.449219 C 48.082031 84.261719 46.699219 97.808594 53.457031 116.214844 C 41.390625 120.675781 20.25 139.03125 20.929688 151.363281 C 21.546875 162.511719 28.074219 175.023438 35.3125 182.238281 C 36.089844 183.015625 36.59375 182.664063 36.425781 181.875 C 35.453125 177.269531 31.980469 172.558594 33.03125 163.523438 C 35.726563 161.035156 35.339844 157.148438 35.597656 153.597656 C 36.027344 147.617188 38.914063 146.320313 44.941406 146.488281 C 54.621094 146.757813 73.953125 156.523438 77.515625 166.085938 C 80.335938 173.652344 88.570313 201.328125 96.835938 207.140625 C 99.605469 209.089844 102.660156 210.554688 104.304688 213.734375 C 107.628906 220.175781 111.121094 227.125 115.292969 233.507813 C 102.539063 232.671875 89.996094 230.632813 76.632813 218.679688 C 62.695313 206.210938 53.367188 204.144531 30.769531 206.164063 C 25.480469 206.636719 6.976563 204.769531 2.871094 204.644531 C 0.21875 204.574219 -0.0507813 205.292969 2.171875 206.46875 C 13.160156 212.289063 24.171875 221.742188 31.566406 236.460938 C 38.71875 250.6875 42.714844 259.789063 55.09375 265.199219 C 59.859375 267.28125 66.070313 269.308594 69.410156 272.308594 C 92.542969 293.09375 117.203125 290.597656 143.78125 285.210938 C 157.886719 282.355469 165.976563 278.609375 182.824219 282.882813 C 188.660156 284.359375 199.761719 285.226563 206.472656 285.511719 C 212.589844 285.769531 220.199219 287.398438 228.148438 292.039063 C 237.980469 297.78125 243.253906 303.082031 260.242188 300.472656 C 266.679688 299.484375 274.117188 299.363281 279.21875 302.183594 C 297.855469 312.492188 314.035156 310.503906 333.4375 304.339844 C 337.414063 303.074219 341.476563 303.125 346.007813 303.523438 C 350.957031 306.785156 357.535156 307.824219 364.160156 307.222656 C 382.617188 312.035156 382.78125 317.664063 389.566406 331.957031 C 390.71875 334.855469 391.761719 335.742188 392.683594 331.828125 C 395.253906 319.140625 394.042969 289.550781 380.859375 283.160156 C 376.355469 277.097656 371.753906 272.164063 366.515625 267.191406 C 365.269531 266.007813 365.644531 265.492188 367.132813 265.855469 C 377.929688 268.484375 388.273438 270.222656 395.714844 279.753906 C 399.710938 284.871094 404.910156 288.414063 411.007813 289.980469 C 418.128906 291.804688 421.03125 293.214844 425.726563 296.933594 C 436.4375 305.421875 449.460938 306.925781 465.863281 307.148438 C 478.0625 307.3125 484.796875 307.253906 495.007813 309.113281 C 496.785156 309.417969 497.011719 308.703125 495.722656 307.605469 C 480.972656 296.644531 459.238281 282.550781 450.117188 265.671875 C 515.753906 239.742188 556.550781 201.871094 521.410156 135.1875 Z M 515.960938 191.773438 C 513.425781 195.003906 506.378906 196.628906 502.285156 197.820313 C 500.554688 198.328125 499.855469 197.152344 501.890625 196.507813 C 506.421875 195.074219 510.425781 194.242188 515.269531 191.199219 C 516.539063 190.714844 516.445313 191.15625 515.960938 191.773438 Z M 503.097656 177.695313 C 502.980469 178.09375 502.558594 178.011719 502.492188 177.578125 C 501.511719 171.144531 499.539063 167.492188 492.308594 164.902344 C 491.953125 164.773438 491.894531 164.214844 492.3125 164.140625 C 496.636719 163.371094 505.761719 168.5625 503.097656 177.695313 Z M 503.425781 159.988281 C 505.8125 160.9375 506.75 156.738281 508.964844 157.632813 C 510.023438 158.230469 512.03125 159.03125 511.589844 160.734375 C 509.621094 163.410156 506.394531 164.21875 504.652344 167.0625 C 501.855469 167.242188 500.425781 160.386719 503.425781 159.988281 Z M 500.148438 182.328125 C 500.191406 183.164063 498.460938 183.886719 498.113281 183.417969 C 495.25 177.9375 492.210938 171.382813 488.503906 166.472656 C 488.121094 166.035156 489.136719 165.167969 489.859375 165.785156 C 494.640625 169.78125 498.699219 176.105469 500.148438 182.328125 Z M 505.144531 184.457031 C 506.554688 184.191406 507.191406 186.148438 507.449219 187.519531 C 507.804688 189.425781 509.277344 189.695313 510.621094 191.226563 C 507.914063 193.335938 503.382813 193.761719 499.929688 194.398438 C 500.761719 190.882813 500.277344 184.9375 505.144531 184.457031 Z M 528.152344 184.726563 C 526.035156 186.292969 522.78125 186.820313 520.296875 188.167969 C 519.210938 188.753906 518.085938 187.652344 518.992188 186.714844 C 521.175781 184.453125 525.136719 184.253906 528.257813 183.367188 C 529.054688 183.589844 528.8125 184.246094 528.152344 184.726563 Z M 518.921875 165.886719 C 518.746094 165.238281 519.109375 165.109375 519.414063 165.578125 C 521.839844 169.335938 522.316406 177.3125 520.988281 181.371094 C 520.890625 181.675781 520.425781 181.503906 520.445313 181.21875 C 520.769531 176.355469 519.839844 169.285156 518.921875 165.886719 Z M 524.699219 154.316406 C 524.695313 155.699219 521.160156 159.605469 518.902344 161.148438 C 518.40625 160.539063 517.996094 160.164063 517.53125 159.625 C 517.917969 157.585938 523.171875 154.496094 524.699219 154.316406 Z M 517.773438 172.828125 C 518.558594 178.007813 516.96875 181.589844 514.996094 184.761719 C 514.242188 185.96875 513.863281 185.355469 513.273438 184.417969 C 512.035156 182.4375 509.605469 181.773438 508.519531 179.675781 C 509.324219 177.546875 507.980469 175.851563 507.175781 174.089844 C 506.105469 171.746094 507.980469 168.410156 509.308594 168.511719 C 510.964844 170.65625 514.070313 174.058594 517.773438 172.828125 Z M 496.394531 140.472656 C 499.03125 142.226563 501.804688 144.363281 504.140625 145.988281 C 503.746094 142.414063 503.964844 121.8125 504.300781 118.222656 C 504.464844 116.46875 505.234375 116.269531 505.492188 118.296875 C 506.277344 125.15625 506.117188 144.558594 506.296875 146.257813 C 509.496094 143.054688 511.453125 141.5 513.59375 139.671875 C 514.484375 138.910156 514.996094 139.28125 514.3125 140.320313 C 511.496094 144.191406 508.867188 147.75 506.613281 152.488281 C 503.445313 149.265625 498.8125 144.421875 495.664063 141.148438 C 494.667969 140.113281 495.261719 139.722656 496.394531 140.472656 Z M 499.503906 150.226563 C 499.835938 150.4375 499.609375 150.800781 499.320313 150.761719 C 495.414063 150.234375 492.414063 149.960938 489.09375 149.980469 C 488.183594 147.308594 496.796875 148.488281 499.503906 150.226563 Z M 489.121094 153.289063 C 489.441406 153.125 492.050781 152.457031 492.726563 151.601563 C 496.183594 151.414063 499.53125 152.246094 502.539063 153.476563 C 502.605469 154.949219 494.523438 159.015625 492.382813 160.839844 C 491.195313 161.300781 488.992188 162.640625 488.699219 161.03125 C 488.335938 157.589844 486.9375 154.433594 489.121094 153.289063 Z M 492.191406 184.859375 C 492.898438 184.714844 497.734375 183.308594 496.992188 185.578125 C 493.835938 188.3125 489.996094 187.15625 485.722656 186.886719 C 486.332031 185.445313 490.160156 185.277344 492.191406 184.859375 Z M 475.953125 193.058594 C 470.851563 189.070313 475.765625 183.707031 480.324219 188.507813 C 481.734375 189.988281 482.722656 191.972656 485.074219 192.613281 C 485.636719 191.871094 486.3125 191.1875 487.390625 191.070313 C 490.679688 191.785156 492.507813 194.441406 495.574219 195.386719 C 496.21875 195.664063 496.144531 196.316406 495.578125 196.351563 C 490.847656 196.378906 480.890625 195.933594 475.953125 193.058594 Z M 489.21875 198.722656 C 486.949219 198.9375 486.585938 198.785156 485.15625 198.058594 C 484.480469 197.714844 484.761719 196.578125 485.660156 196.878906 C 486.089844 197.027344 488.4375 197.601563 489.214844 197.804688 C 490.019531 198.015625 490.222656 198.625 489.21875 198.722656 Z M 452.730469 69.832031 C 453.15625 70.5625 452.464844 70.964844 452.265625 70.769531 C 449.9375 68.464844 447.996094 55.34375 448.464844 50.128906 C 448.523438 49.496094 449.171875 49.34375 449.195313 50.195313 C 449.257813 52.480469 451.554688 66.222656 452.730469 69.832031 Z M 451.496094 47.308594 C 456.320313 43.960938 463.378906 62.464844 464.398438 68.386719 C 464.488281 69.105469 463.910156 69.394531 463.605469 68.617188 C 460.222656 60.101563 455.855469 49.292969 451.640625 48.511719 C 451.308594 48.449219 451.179688 47.527344 451.496094 47.308594 Z M 457.25 78.078125 C 460.234375 84.917969 460.960938 93.414063 466.207031 99.390625 C 473.28125 108.191406 482.289063 118.285156 478.902344 130.996094 C 476.628906 129.496094 471.175781 119.453125 466.871094 115.15625 C 465.324219 113.84375 465.066406 114.503906 465.789063 115.804688 C 467.132813 118.984375 470.601563 125.859375 472.34375 129.550781 C 473.601563 132.21875 473.011719 132.507813 470.789063 130.320313 C 467.402344 126.902344 463.785156 122.453125 461.109375 119.042969 C 460.792969 118.640625 460.328125 119.027344 460.550781 119.464844 C 462.445313 123.160156 465.210938 127.226563 467.558594 130.933594 C 468.503906 132.429688 468.148438 132.542969 466.65625 131.488281 C 458.746094 125.464844 454.980469 114.25 452.667969 105.210938 C 448.992188 90.855469 440.226563 81.480469 429.789063 78.617188 C 424.382813 77.128906 419.65625 74.445313 415.382813 71.105469 C 415.101563 70.886719 415.300781 70.585938 415.773438 70.648438 C 420.96875 71.359375 433.128906 71.394531 434.859375 71.449219 C 443.09375 71.707031 451.320313 72.578125 457.25 78.078125 Z M 482.324219 134.832031 C 482.832031 134.65625 483.625 134.484375 484.078125 134.933594 C 487.113281 147.242188 484.8125 170.394531 480.824219 185.113281 C 478.652344 184.996094 476.648438 184.179688 474.96875 183.09375 C 473.476563 182.128906 474.398438 181.402344 475.710938 182.300781 C 476.585938 182.902344 477.78125 183.269531 478.90625 183.351563 C 484.621094 169.421875 484.585938 148.726563 482.324219 134.832031 Z M 474.34375 153.605469 C 474.230469 151.609375 476.234375 150.585938 476.203125 152.953125 C 476.191406 153.734375 476.144531 158.480469 475.746094 160.101563 C 475.550781 160.902344 474.988281 161.105469 474.808594 160.109375 C 474.484375 158.011719 474.46875 155.804688 474.34375 153.605469 Z M 465.546875 135.070313 C 472.808594 138.4375 474.078125 140.34375 474.132813 149.664063 C 466.875 149.992188 459.910156 149.742188 453.175781 151.308594 C 451.617188 133.355469 452.421875 134.480469 447.613281 112.769531 C 448.707031 111.722656 449.433594 109.738281 449.828125 109 C 455.203125 117.566406 455.773438 130.542969 465.546875 135.070313 Z M 457.769531 180.707031 C 459.3125 185.203125 463.335938 188.730469 466.035156 192.261719 C 465.4375 197.023438 461.835938 201.519531 459.023438 204.992188 C 456.25 190.4375 454.804688 180.777344 450.832031 168.320313 C 454.300781 167.625 470.699219 164.699219 472.96875 164.628906 C 472.789063 168.910156 472.117188 173.285156 471.113281 177.394531 C 470.644531 179.3125 469.777344 178.628906 469.0625 177.945313 C 467.339844 176.296875 465.824219 174.140625 463.824219 172.925781 C 458.980469 169.972656 455.238281 173.335938 457.769531 180.707031 Z M 451.0625 158.347656 C 452.097656 160.3125 453.203125 164.492188 450.132813 164.640625 C 449.667969 164.625 449.199219 164.617188 448.734375 164.613281 C 445.027344 164.601563 441.246094 164.972656 438.175781 164.535156 C 440.46875 158.914063 446.1875 158.089844 448.996094 153.597656 C 449.730469 153.425781 450.46875 153.101563 451.539063 153.074219 C 452.117188 154.941406 450.425781 156.480469 451.0625 158.347656 Z M 449.1875 220.121094 C 450.46875 218.441406 454.855469 213.195313 456.632813 210.496094 C 457.058594 209.847656 457.785156 209.910156 457.796875 210.488281 C 457.894531 214.984375 451.445313 219.484375 449.761719 221.078125 C 449.023438 221.757813 448.445313 220.890625 449.1875 220.121094 Z M 460.585938 159.539063 C 459.117188 157.761719 457.03125 156.609375 456.0625 154.492188 C 455.140625 152.480469 455.804688 152.050781 457.757813 152.246094 C 462.230469 152.695313 462.945313 153.785156 466.128906 154.835938 C 466.984375 155.117188 467.863281 155.226563 468.832031 154.734375 C 469.578125 156.035156 470.945313 157.671875 471.183594 159.484375 C 468.703125 162.273438 464.921875 162.78125 461.683594 163.332031 C 459.792969 162.636719 461.382813 160.46875 460.585938 159.539063 Z M 448.882813 149.105469 C 448.875 149.386719 448.570313 149.445313 448.441406 149.195313 C 446.480469 145.40625 446.265625 140.496094 444.339844 136.003906 C 443.386719 133.777344 442.964844 133.832031 443.035156 136.617188 C 443.152344 141.003906 443.453125 144.878906 444.210938 149.019531 C 444.515625 150.675781 444.003906 150.707031 443.171875 149.671875 C 440.660156 146.546875 438.347656 143.1875 436.394531 139.390625 C 434.535156 141.210938 436.71875 147.585938 436.960938 148.542969 C 437.621094 151.140625 435.164063 152.054688 433.398438 149.25 C 428.828125 142.003906 426.425781 141.785156 432.796875 134.191406 C 436.109375 130.25 435.261719 127.765625 435.921875 124.960938 C 437.074219 120.070313 441.433594 116.742188 445.097656 114.183594 C 448.316406 121.261719 449.238281 137.132813 448.882813 149.105469 Z M 438.632813 154.902344 C 437.800781 158.363281 432.371094 160.488281 435.285156 164.835938 C 433.917969 165.023438 432.566406 165.019531 431.210938 165.140625 C 430.085938 163.648438 427.144531 157.628906 426.566406 155.648438 C 428.496094 155.265625 436.472656 153.667969 438.632813 154.902344 Z M 439.433594 177.335938 C 436.925781 174.574219 435.09375 171.070313 432.980469 167.738281 C 435.578125 167.984375 438.425781 168.558594 440.632813 168.378906 C 447.367188 182.414063 448.785156 197.984375 448.78125 214.167969 C 448.78125 216.085938 448.320313 216.847656 445.699219 214.589844 C 441.863281 211.285156 437.253906 209.820313 433.109375 206.816406 C 421.4375 198.359375 418.746094 188.707031 416.730469 176.523438 C 416.488281 175.042969 415.847656 169.863281 415.34375 167.984375 C 414.691406 165.3125 417.148438 166.324219 419.835938 168.035156 C 425.167969 172.632813 431.808594 176.195313 438.539063 178.554688 C 440.125 179.089844 440.421875 178.464844 439.433594 177.335938 Z M 474.105469 196.863281 C 472.0625 196.308594 470.445313 195.773438 468.800781 194.988281 C 468.246094 194.582031 468.898438 193.726563 469.472656 193.992188 C 471.789063 195.171875 474.246094 195.664063 476.425781 196.285156 C 472.550781 207.714844 456.894531 225.464844 444.914063 236.066406 C 442.535156 237.898438 441.394531 237.023438 443.859375 234.953125 C 455.636719 223.535156 466.191406 211.128906 474.105469 196.863281 Z M 487.300781 123.246094 C 484.722656 117.875 484.800781 110.671875 480.132813 107.078125 C 479.972656 109.0625 482.453125 115.433594 482.664063 116.8125 C 482.839844 117.964844 481.964844 118.324219 481.523438 117.226563 C 479.28125 111.648438 476.078125 108.828125 471.816406 101.738281 C 465.6875 91.550781 469.800781 76.238281 474.132813 70.886719 C 476.777344 67.523438 477.226563 67.578125 476.742188 71.566406 C 476.078125 77.066406 474.347656 84.070313 479.746094 94.730469 C 484.738281 104.585938 490.53125 117.351563 487.300781 123.246094 Z M 479.421875 50.976563 C 479.238281 55.4375 479.160156 59.441406 477.285156 63.292969 C 466.425781 75.15625 466.222656 77.71875 465.3125 87.691406 C 465.273438 88.140625 464.71875 88.21875 464.519531 87.785156 C 461.878906 82.046875 463.410156 76.203125 469.214844 68.644531 C 474.480469 62.222656 476.707031 57.800781 478.230469 51.03125 C 478.832031 48.34375 479.523438 48.460938 479.421875 50.976563 Z M 396.550781 38.832031 C 397.359375 24 391.34375 16.367188 378.910156 14.957031 C 376.058594 14.636719 375.992188 13.921875 378.007813 12.640625 C 387.210938 6.785156 390.632813 6.914063 401.390625 8.785156 C 408.328125 9.992188 414.007813 7.96875 419.390625 5.65625 C 436.339844 -1.628906 456.082031 4.21875 463.082031 25.464844 C 458.734375 23.859375 454.996094 18.089844 452.304688 13.113281 C 449.238281 22.0625 458.515625 28.238281 465.359375 32.273438 C 486.59375 44.785156 472.367188 61.601563 466.992188 66.75 C 467.433594 59.386719 465.917969 48.367188 463.269531 41.285156 C 462.78125 40.050781 462.359375 40.261719 462.28125 41.574219 C 462.089844 44.777344 462.898438 51.261719 461.761719 53.347656 C 457.859375 44.839844 453.683594 38.066406 448.777344 32.496094 C 448.230469 31.890625 447.855469 32.257813 447.980469 32.96875 C 448.480469 35.816406 450.160156 41.683594 450.265625 44.402344 C 449.648438 45.199219 448.800781 45.65625 448.121094 45.945313 C 446.105469 41.808594 444.636719 37.796875 442.414063 34.226563 C 441.953125 33.480469 441.605469 33.550781 441.714844 34.503906 C 442.421875 40.644531 443.472656 47.027344 446.628906 52.582031 C 446.609375 54.449219 446.375 55.746094 446.257813 57.230469 C 445.292969 56.839844 438.738281 47.898438 438.335938 47.28125 C 437.46875 45.941406 436.886719 46.324219 437.40625 47.742188 C 439.570313 53.675781 442.203125 59.753906 445.820313 64.957031 C 446.703125 66.179688 446.199219 66.347656 444.980469 65.710938 C 438.804688 62.054688 433.992188 57.601563 429.128906 52.148438 C 428.550781 51.503906 428.125 51.933594 428.441406 52.589844 C 432.070313 60.046875 435.828125 63.890625 440.644531 68.242188 C 441.277344 68.816406 440.898438 69.371094 440.386719 69.304688 C 435.414063 68.640625 423.214844 68.6875 418.089844 68.230469 C 398.269531 66.464844 395.691406 54.546875 396.550781 38.832031 Z M 395.742188 100.449219 C 398.726563 97.765625 397.382813 94.171875 396.296875 89.796875 C 394.210938 81.417969 399.261719 74.742188 408.152344 73.191406 C 412.867188 75.035156 417.695313 77.390625 422.296875 79.402344 C 422.414063 80.140625 421.398438 80.996094 420.722656 81.679688 C 414.191406 81.511719 412.949219 88.742188 414.269531 97.878906 C 414.519531 99.601563 413.988281 100.253906 412.710938 99.0625 C 410.226563 96.746094 406.597656 93.398438 403.234375 95.542969 C 405.675781 96.664063 408.40625 98.347656 410.0625 101.230469 C 413.617188 108.546875 418.378906 107.828125 422.796875 103.886719 C 428.105469 99.15625 430.101563 98.796875 436.976563 100.910156 C 437.894531 98.746094 431.460938 95.496094 427.992188 95.125 C 428.574219 92.355469 425.261719 84.902344 423.671875 82.34375 C 434.410156 77.367188 448.15625 94.238281 447.773438 102.722656 C 447.550781 107.65625 445.394531 109.835938 439.210938 113.089844 C 433.078125 116.3125 432.835938 117.527344 432.804688 125.5625 C 432.785156 130.582031 431.746094 131.417969 429.03125 134.1875 C 420.898438 142.480469 420.988281 152.382813 425.769531 161.503906 C 427.464844 164.738281 429.511719 167.78125 431.105469 171.347656 C 431.253906 171.671875 430.9375 172.035156 430.632813 171.875 C 415.492188 163.777344 393.492188 138.59375 398.769531 128.488281 C 398.765625 128.003906 398.445313 127.449219 398.097656 126.96875 C 390.089844 115.863281 387.671875 106.554688 395.742188 100.449219 Z M 369.734375 134.878906 C 374.839844 135.53125 384.605469 136.765625 387.878906 139.292969 C 388.53125 139.726563 388.386719 140.089844 387.953125 140.335938 C 385.054688 142.371094 382.28125 144.152344 380.730469 147.503906 C 379.726563 149.675781 377.253906 152.613281 374.78125 154.523438 C 374.4375 154.789063 374.3125 155.878906 374.9375 155.8125 C 380.296875 155.230469 382.378906 154.5625 387.609375 149.570313 C 390.632813 146.683594 394.421875 145.65625 397.492188 146.882813 C 402.050781 148.703125 404.574219 155.046875 399.539063 158.523438 C 396.929688 160.503906 393.796875 161.464844 390.410156 161.515625 C 381.378906 161.652344 378.042969 163.855469 370.328125 171.199219 C 369.953125 171.597656 370.242188 171.816406 370.898438 171.589844 C 375.1875 170.066406 379.71875 169.769531 383.089844 166.734375 C 386.179688 163.953125 390.847656 164.816406 394.046875 165.496094 C 397.355469 166.199219 400.34375 164.710938 406.03125 161.878906 C 407.933594 163.695313 409.273438 165.3125 410.539063 167.296875 C 410.4375 169.074219 402.964844 169.855469 399.777344 171.019531 C 394.75 172.859375 394.503906 173.4375 391.148438 176.820313 C 389.722656 178.253906 383.175781 182.785156 380.359375 185.691406 C 379.855469 186.214844 380.597656 186.820313 381.070313 186.601563 C 385.234375 184.679688 389.363281 183.65625 392.710938 180.992188 C 398.988281 175.664063 407.363281 172.660156 411.945313 176.128906 C 413.097656 179.40625 414.140625 183.253906 415.179688 186.589844 C 410.210938 188.4375 402.644531 190.460938 401.0625 195.507813 C 409.578125 194.128906 412.398438 191.953125 419.5 198.589844 C 423.496094 202.324219 426.679688 207.347656 431.175781 210.585938 C 429.4375 213.953125 425.773438 217.414063 421.863281 217.945313 C 420.980469 218.070313 420.890625 218.503906 421.703125 218.648438 C 426.902344 219.375 434.84375 216.511719 439.03125 216.085938 C 444.757813 215.503906 446.398438 219.878906 443.039063 221.574219 C 437.90625 224.167969 424.808594 225.277344 418.101563 226.382813 C 417.8125 226.429688 417.617188 226.042969 417.808594 225.8125 C 418.621094 224.824219 419.566406 223.945313 420.25 222.882813 C 416.304688 221.457031 412.019531 219.980469 407.433594 221.027344 C 404.359375 218 400.503906 216.527344 397.367188 214.398438 C 402.132813 209.445313 401.15625 207.820313 408.480469 207.394531 C 411.050781 207.246094 413.625 207.0625 414.792969 204.554688 C 414.921875 204.144531 414.621094 203.90625 414.308594 203.992188 C 407.460938 205.273438 399.730469 199.640625 394.035156 205.859375 C 392.0625 207.964844 390.234375 210.089844 387.226563 209.425781 C 385.550781 208.84375 383.5625 207.84375 382.199219 207.285156 C 384.269531 202.683594 383.902344 197.527344 387.167969 193.375 C 388.921875 191.546875 391.636719 190.015625 393.496094 187.554688 C 393.820313 187.105469 393.535156 186.824219 392.941406 187.003906 C 389.019531 188.210938 385.234375 189.964844 382.113281 191.816406 C 377.832031 194.367188 377.402344 200.058594 374.703125 204.09375 C 366.785156 201.308594 365.617188 199.476563 365.222656 194.605469 C 364.671875 187.761719 370.738281 182.074219 374.207031 179.113281 C 376.019531 177.5625 377.730469 175.917969 378.898438 173.304688 C 370.699219 172.898438 357.535156 185.480469 358.117188 196.820313 C 348.621094 189.082031 342.722656 176.933594 350.9375 166.15625 C 352.546875 164.046875 361.976563 160.054688 363.855469 158.3125 C 354.765625 157.886719 351.886719 158.15625 344.5625 163.179688 C 343.648438 158.878906 342.664063 153.03125 351.488281 150.03125 C 358.703125 147.574219 360.570313 145.804688 364.371094 139.3125 C 365.472656 137.429688 368.292969 134.59375 369.734375 134.878906 Z M 341.507813 246.945313 C 345.332031 247.375 345.585938 252.515625 349.351563 251.367188 C 352.980469 250.265625 354.753906 255.179688 349.9375 254.261719 C 349.035156 254.265625 342.203125 253.269531 337.1875 255.296875 C 336.089844 254.679688 335.03125 254.054688 333.496094 253.101563 C 333.023438 252.761719 333.296875 252.449219 333.738281 252.414063 C 335.058594 252.308594 337.082031 252.417969 338.515625 252.445313 C 341.34375 252.503906 341.386719 250.011719 338.722656 249.410156 C 335.949219 248.789063 333.214844 249.207031 330.464844 249.359375 C 328.890625 249.371094 329.152344 247.957031 331.308594 247.394531 C 333.394531 246.839844 335.734375 247.546875 337.472656 246.707031 C 338.972656 245.976563 338.601563 243.953125 336.402344 243.535156 C 334.457031 243.160156 332.261719 243.894531 330.214844 244.171875 C 327.324219 242.027344 327.984375 240.386719 329.375 240.894531 C 332.757813 241.839844 338.523438 242.222656 339.425781 239.191406 C 339.703125 238.285156 339.453125 237.078125 338.335938 236.648438 C 335.886719 236.050781 336.085938 235.574219 338.351563 234.4375 C 351.925781 227.621094 366.339844 222.335938 381.078125 219.527344 C 383.269531 219.234375 383.230469 218.148438 381.371094 217.945313 C 377.003906 217.457031 372.65625 218.085938 368.839844 220.160156 C 365.761719 221.324219 362.582031 220.382813 359.71875 219.816406 C 362.644531 216.058594 367.914063 216.65625 370.445313 212.957031 C 366.160156 212.882813 359.886719 212.324219 356.8125 217.140625 C 354.648438 220.523438 351.109375 223.234375 347.789063 224.867188 C 346.882813 225.210938 346.425781 224.476563 346.707031 223.796875 C 347.886719 221.976563 349.234375 219.929688 350.074219 217.828125 C 348.96875 216.464844 346.628906 217.144531 344.320313 218.644531 C 342.0625 220.109375 340.226563 222.488281 338.09375 224.128906 C 336.058594 223.710938 333.671875 223.246094 331.964844 221.835938 C 341.375 214.410156 365.792969 209.410156 375.957031 212.492188 C 378.257813 213.1875 393.695313 219.261719 401.148438 222.742188 C 403.800781 223.980469 403.738281 224.382813 401.554688 225.199219 C 391.390625 229 378.539063 235.75 370.601563 240.902344 C 367.609375 242.84375 365.730469 242.574219 364.515625 240.269531 C 360.15625 231.988281 358.257813 231.851563 349.550781 233.085938 C 347.078125 233.433594 345 233.894531 344.011719 237.082031 C 343.257813 239.496094 343 242.105469 340.921875 243.945313 C 340.394531 244.597656 339.578125 246.671875 341.507813 246.945313 Z M 327.332031 245.265625 C 326.664063 246.1875 326.210938 247.199219 325.875 248.277344 C 318.726563 244.355469 309.621094 242.070313 300.855469 242.871094 C 295.777344 243.335938 286.757813 241.488281 281.484375 240.824219 C 281.304688 240.800781 281.261719 240.464844 281.40625 240.320313 C 285.585938 236.039063 284.183594 232.035156 282.53125 228.226563 C 299.8125 230.796875 315.03125 228.734375 327.210938 222.828125 C 328.65625 224.066406 334.855469 227.339844 338.351563 229.023438 C 339.765625 229.707031 339.515625 230.285156 338.507813 230.621094 C 330.050781 233.40625 321.808594 234.90625 327.332031 245.265625 Z M 409.207031 228.535156 C 411.488281 228.25 411.785156 230.277344 409.628906 230.628906 C 402.367188 231.8125 371.035156 247.179688 363.765625 249.8125 C 361.621094 250.589844 361.480469 249.582031 363.269531 248.511719 C 372.578125 242.949219 397.726563 229.980469 409.207031 228.535156 Z M 361.679688 253.449219 C 367.703125 250.492188 383.253906 247.703125 392.105469 246.894531 C 395.042969 243.980469 397.878906 241.1875 400.660156 238.082031 C 400.871094 237.847656 401.21875 238.082031 401.136719 238.460938 C 400.449219 241.617188 397.722656 245.824219 397.371094 246.128906 C 399.035156 245.984375 402.964844 245.929688 405.324219 245.917969 C 407.816406 242.691406 409.5625 239.953125 411.835938 236.667969 C 412.371094 235.894531 412.699219 236.097656 412.445313 237.023438 C 411.808594 239.355469 410.332031 243.59375 409.371094 245.90625 C 412.667969 245.96875 414.453125 246.308594 416.8125 246.375 C 419.566406 243.984375 423.6875 241.027344 426.570313 238.886719 C 427.058594 236.695313 427.667969 233.378906 428.421875 231.347656 C 428.605469 230.855469 429.046875 230.832031 429.058594 231.289063 C 429.105469 232.792969 429.113281 235.359375 429.164063 236.660156 C 432.617188 233.898438 436.375 230.71875 439.992188 227.367188 C 440.566406 226.816406 441.363281 227.324219 440.675781 228.042969 C 434.785156 233.683594 423.222656 243.65625 418.738281 246.804688 C 429.363281 248.074219 439.71875 252.964844 446.492188 260.535156 C 446.058594 261.003906 445.960938 261.410156 445.621094 261.898438 C 418.453125 237.390625 371.835938 251.460938 362.34375 254.148438 C 361.121094 254.609375 360.699219 253.929688 361.679688 253.449219 Z M 348.066406 130.636719 C 350.058594 132.550781 348.851563 139.871094 350.84375 141.21875 C 352.605469 136.738281 353.277344 132.289063 355.257813 130.804688 C 357.175781 129.367188 364.210938 131.648438 366.046875 133.652344 C 362.828125 136.503906 359.910156 140.089844 357.375 143.785156 C 353.246094 145.394531 348.773438 146.269531 344.644531 147.652344 C 343.957031 147.855469 343.5 147.59375 343.171875 147.148438 C 340.875 144.035156 342.363281 134.558594 348.066406 130.636719 Z M 341.171875 179.484375 C 346.25 194.160156 354.988281 199.335938 372.453125 207.507813 C 372.992188 207.882813 372.992188 208.242188 372.460938 208.1875 C 362.273438 207.890625 350.648438 209.480469 344.433594 212.421875 C 345.417969 208.339844 349.359375 205.769531 351.253906 202.394531 C 351.578125 201.699219 351.34375 201.332031 350.421875 201.503906 C 343.828125 202.902344 338.726563 208.035156 334.613281 213.453125 C 334.132813 214.15625 333.746094 213.960938 333.917969 212.914063 C 334.261719 211.207031 335.046875 209.667969 335.835938 208.132813 C 338.203125 203.507813 341.566406 195.746094 341.132813 186.992188 C 341.066406 185.664063 340.464844 181.9375 340.308594 179.722656 C 340.203125 178.246094 340.789063 178.375 341.171875 179.484375 Z M 339.933594 135.835938 C 339.84375 139.859375 338.449219 143.777344 339.207031 147.570313 C 339.453125 148.617188 338.660156 149.195313 337.851563 148.371094 C 334.660156 144.933594 330.277344 141.839844 328.953125 137.425781 C 331.503906 137.847656 336.421875 136.402344 339.933594 135.835938 Z M 268.488281 151.277344 C 274.882813 154.90625 276.230469 157.449219 280.214844 165.191406 C 280.546875 165.851563 281.011719 165.496094 281.003906 165.15625 C 280.878906 160.398438 277.378906 155.203125 273.011719 150.734375 C 269.933594 147.585938 268.851563 145.328125 269.8125 140.867188 C 274.683594 138.71875 289.199219 155.054688 286.625 169.792969 C 285.960938 173.585938 285.914063 176.390625 287.40625 182.101563 C 290.90625 195.46875 290.808594 200.320313 288.632813 212.578125 C 288.464844 213.523438 289.050781 213.949219 289.453125 213.164063 C 295.734375 200.824219 298.101563 189.285156 293.230469 173.902344 C 291.683594 169.027344 290.328125 166.703125 290.753906 162.132813 C 291.21875 157.097656 286.910156 143.558594 284.777344 141.351563 C 288.074219 140.253906 291.3125 146.703125 291.964844 149.761719 C 292.773438 153.566406 294.96875 157.308594 297.871094 160.136719 C 299.136719 161.371094 302.996094 164.230469 304.171875 166.046875 C 309.359375 174.070313 309.070313 183.980469 308.296875 194.371094 C 308.234375 194.945313 308.664063 195.234375 308.980469 194.765625 C 316.628906 182.378906 314.265625 169.523438 304 154.390625 C 301.167969 149.90625 298.269531 142.070313 299.546875 138.269531 C 306.714844 143.628906 313.71875 160.738281 315.394531 163.789063 C 315.898438 164.695313 316.328125 164.300781 316.289063 163.617188 C 315.121094 157.675781 313.828125 143.855469 313.839844 143.265625 C 313.894531 140.203125 314.59375 139.601563 317.824219 142.136719 C 320.082031 143.90625 321.675781 147.558594 322.507813 149.570313 C 324.199219 153.65625 328.527344 161.054688 332.878906 161.035156 C 331.761719 155.304688 331.160156 149.238281 327.003906 144.671875 C 325.988281 143.558594 326.699219 143.265625 327.753906 144.128906 C 335.59375 150.585938 340.355469 161.738281 335.988281 170.550781 C 333.882813 174.800781 330.949219 178.753906 332.425781 183.410156 C 334.15625 188.863281 337.390625 190.679688 335.570313 198.707031 C 334.253906 204.515625 330.246094 219.015625 325.148438 219.042969 C 326.445313 215.035156 326.273438 209.960938 325.996094 206.660156 C 325.574219 201.683594 326.355469 196.777344 327.15625 192.53125 C 329.289063 181.167969 326.246094 174.667969 318.527344 169.15625 C 320.699219 177.796875 320.949219 183.308594 319.816406 189.863281 C 319.050781 194.277344 318.261719 199.945313 319.65625 204.265625 C 320.558594 207.066406 322.476563 218.140625 317.566406 220.839844 C 316.148438 221.019531 314.527344 221.496094 312.414063 221.546875 C 313.402344 213.136719 313.351563 200.460938 308.484375 197.089844 C 307.800781 196.605469 307.148438 196.824219 307.523438 197.664063 C 309.90625 204.78125 309.902344 215.417969 306.496094 222.191406 C 296.171875 223.269531 269.265625 227.78125 270.679688 208.75 C 271.050781 203.792969 270.40625 201.53125 267.664063 198.734375 C 261.714844 192.667969 264.976563 186.097656 267.410156 177.882813 C 267.902344 176.152344 268.554688 175.285156 269.164063 177.304688 C 269.847656 179.445313 273.675781 185.078125 274.304688 186.175781 C 277.246094 191.335938 276.367188 198.53125 274.621094 204.171875 C 274.246094 205.324219 274.878906 205.308594 275.324219 204.753906 C 280.386719 198.25 282.503906 188.929688 276.980469 179.828125 C 274.53125 175.792969 271.824219 172.449219 271.320313 167.488281 C 271.183594 166.527344 271.03125 165.601563 270.832031 164.710938 C 269.480469 158.621094 262.296875 149.800781 255.285156 147.066406 C 256.199219 146.015625 257.546875 145.15625 258.390625 144.613281 C 260.097656 146.449219 266.015625 149.878906 268.488281 151.277344 Z M 265.246094 227.8125 C 263.519531 226.011719 262.289063 223.128906 260.480469 221.527344 C 259.085938 220.238281 258.496094 220.761719 258.984375 222.703125 C 260.113281 227.183594 263.761719 232.136719 262.4375 236.316406 C 261.070313 240.648438 255.617188 241.046875 254.328125 238.265625 C 252.652344 234.648438 252.304688 230.460938 253.285156 226.347656 C 252.472656 223.292969 249.96875 221.210938 247.917969 219.179688 C 247.523438 218.792969 247.160156 219.15625 247.238281 219.582031 C 247.710938 222.300781 251.210938 226.3125 249.210938 227.445313 C 246.421875 229.085938 248.425781 231.941406 248.28125 234.128906 C 248.019531 238.101563 238.761719 240.007813 237.035156 238.960938 C 238.257813 234.984375 237.269531 230.34375 234.648438 227.527344 C 233.140625 228.261719 233.285156 235.273438 231.578125 236.15625 C 230.453125 236.597656 229.539063 237.351563 228.710938 238.210938 C 224.03125 243.050781 223.242188 245.023438 215.585938 244.296875 C 211.296875 243.886719 212.203125 242.367188 214.414063 241.6875 C 217.523438 240.734375 221.003906 240.308594 224.003906 239.304688 C 224.828125 239.03125 224.644531 238.316406 223.605469 238.417969 C 218.425781 238.925781 212.648438 238.972656 208.449219 241.53125 C 205.789063 243.152344 204.347656 244.390625 201.898438 242.890625 C 199.59375 241.476563 197.09375 240.082031 195.15625 238.507813 C 193.800781 241.007813 195.675781 243.441406 196.253906 245.917969 C 196.992188 249.097656 186.730469 255.671875 186.53125 252.328125 C 186.453125 250.953125 186.472656 249.640625 186.597656 248.359375 C 185.296875 247.34375 181.929688 254.457031 180.421875 256.195313 C 177.484375 259.585938 174.003906 259.75 175.511719 255.308594 C 176.402344 252.691406 177.996094 250.433594 179.570313 247.621094 C 179.875 247.078125 179.492188 246.816406 179.042969 247.304688 C 177.863281 248.589844 176.246094 249.554688 174.871094 250.667969 C 171.714844 253.230469 173.042969 256.648438 171.683594 259.183594 C 169.621094 263.015625 162.601563 260.054688 164.519531 256.253906 C 165.765625 253.789063 167.78125 252.0625 169.726563 250.289063 C 170.785156 249.328125 173.152344 247.449219 171.796875 246.230469 C 170.628906 247.957031 168.808594 248.828125 167.101563 249.773438 C 163.574219 251.726563 163.527344 253.859375 161.753906 258.570313 C 160.246094 262.574219 156.984375 259.160156 156.890625 254.640625 C 156.773438 249.015625 163.148438 240.332031 169.835938 239.074219 C 172.175781 238.632813 177.054688 237.484375 178.539063 235.484375 C 189.023438 223.847656 204.078125 225.671875 212.90625 226.269531 C 216.960938 226.546875 220.683594 227.542969 223.453125 230.53125 C 224.75 231.929688 225.175781 231.566406 224.847656 229.863281 C 224.328125 227.152344 223.359375 225.046875 221.019531 222.046875 C 224.414063 220.894531 233.140625 220.3125 236.03125 217.402344 C 240.6875 213.6875 245.777344 214.738281 251.191406 217.011719 C 252.65625 216.570313 254.402344 216.234375 255.546875 215.34375 C 247.203125 208.621094 238.386719 207.367188 229.519531 213.898438 C 226.839844 215.875 222.835938 217.964844 220.421875 216.496094 C 222.324219 211.019531 227.269531 209.367188 231.609375 206.796875 C 236.128906 204.117188 243.691406 197.617188 240.15625 188.058594 C 236.609375 196.535156 234.710938 201.296875 224.964844 205.398438 C 219.085938 207.867188 212.875 209.46875 208.621094 214.574219 C 205.847656 217.902344 205.425781 221.171875 201.179688 220.910156 C 205.441406 200.742188 208.691406 201.398438 227.503906 193.574219 C 232.875 191.339844 234.648438 185.75 233.886719 175.578125 C 233.53125 170.839844 233.167969 168.046875 235.304688 164.265625 C 238.191406 159.152344 236.03125 155.855469 235.074219 150.441406 C 234.683594 148.53125 235.207031 148.472656 236.65625 149.726563 C 238.488281 151.308594 240.886719 152.40625 242.558594 154.085938 C 247.585938 159.121094 245.949219 169.828125 244.636719 177.597656 C 244.464844 178.515625 244.921875 179.261719 245.652344 178.113281 C 247.769531 174.355469 252.976563 166.390625 253.039063 163.113281 C 253.125 158.484375 249.890625 154.746094 249.46875 150.382813 C 257.097656 151.046875 265.71875 161.964844 262.042969 173.742188 C 260.695313 178.058594 255.546875 188.917969 259.5 197.195313 C 261.910156 202.242188 263.699219 204.316406 263.6875 208.386719 C 263.664063 216.480469 264.84375 218.054688 268.929688 222.613281 C 273.625 227.855469 280.550781 236.5 276.75 238.34375 C 274.714844 239.207031 271.828125 239.675781 270.066406 238.496094 C 271.683594 234.066406 267.472656 230.464844 265.246094 227.8125 Z M 157.671875 242.527344 C 155.472656 239.726563 153.386719 237.734375 150.089844 234.960938 C 154.867188 231.152344 159.023438 230.476563 162.367188 232.585938 C 164.304688 233.804688 166.949219 234.390625 168.945313 235.007813 C 169.316406 235.125 169.359375 235.488281 169.054688 235.574219 C 166.164063 236.375 164.207031 237.796875 162.3125 241.054688 C 161.332031 242.738281 158.582031 245.667969 157.050781 247.070313 C 155.917969 248.109375 154.980469 249.230469 154.726563 250.957031 C 154.6875 251.210938 154.367188 251.296875 154.226563 251.066406 C 152.691406 248.496094 151.617188 245.714844 150.566406 242.257813 C 152.839844 242.1875 154.839844 242.714844 157.394531 243.082031 C 157.652344 243.117188 157.84375 242.742188 157.671875 242.527344 Z M 146.21875 230.859375 C 146.285156 231.5 145.664063 231.464844 145.550781 230.921875 C 142.761719 217.300781 139.878906 209.144531 143.6875 195.671875 C 143.960938 194.703125 145.058594 194.765625 144.867188 195.808594 C 142.234375 210.308594 144.296875 212.839844 146.21875 230.859375 Z M 145.183594 207.902344 C 144.75 207.664063 144.75 205.351563 145.34375 205.746094 C 147.386719 206.472656 148.863281 207.484375 151.019531 208.152344 C 150.328125 206.058594 147.113281 195.324219 146.050781 192.269531 C 145.28125 190.039063 146.859375 188.976563 147.730469 190.636719 C 148.378906 191.875 148.675781 192.910156 149.472656 194.449219 C 152.050781 189.800781 156.207031 183.109375 160.203125 179.175781 C 160.679688 178.707031 161.089844 178.910156 160.761719 179.605469 C 158.398438 184.621094 154.089844 195.585938 152.121094 202.308594 C 152.628906 205.207031 152.769531 207.808594 152.5625 210.296875 C 150.53125 209.90625 147.996094 209.046875 145.183594 207.902344 Z M 158.679688 205.453125 C 158.964844 204.945313 159.285156 205.042969 159.203125 205.640625 C 159.492188 210.320313 160.4375 210.976563 162.890625 215.757813 C 168.210938 226.132813 153.523438 230.292969 149.945313 229.351563 C 150.222656 220.1875 154.550781 212.785156 158.679688 205.453125 Z M 227.570313 178.472656 C 227.1875 188.308594 219.789063 191.089844 212.40625 194.101563 C 206.238281 196.621094 202.742188 197.777344 198.796875 209.363281 C 195.101563 203.445313 186.148438 192.414063 177.632813 193.339844 C 173.6875 193.769531 170.839844 192.898438 170.277344 189.074219 C 170.03125 187.40625 171.660156 179.59375 172.5 177.71875 C 175.816406 181.070313 184.023438 181.203125 186.046875 181.664063 C 190.269531 182.617188 194.613281 187.527344 197.074219 194.800781 C 197.476563 196.054688 197.917969 196.488281 198.636719 194.929688 C 201.277344 189.199219 202.078125 182.253906 205.828125 177.242188 C 208.496094 173.6875 214.753906 171.09375 219.160156 168.585938 C 226.191406 164.582031 228.386719 155.789063 226.890625 150.558594 C 226.089844 147.75 224.9375 145.058594 224.773438 142.191406 C 226.851563 143.484375 228.417969 144.675781 230.058594 146.023438 C 231.691406 149.992188 230.265625 157.101563 228.609375 161.371094 C 225.785156 168.664063 227.855469 171.074219 227.570313 178.472656 Z M 184.886719 132.210938 C 185.75 130.347656 186.78125 129.214844 187.867188 127.828125 C 190.140625 128.300781 191.800781 128.667969 193.761719 129.175781 C 194.980469 128.234375 195.917969 127.367188 197.269531 127.097656 C 198.992188 131.621094 198.847656 136.496094 200.066406 141.25 C 201.867188 142.75 203.902344 143.660156 205.914063 144.667969 C 207.71875 145.574219 209.898438 147.835938 209.105469 149.566406 C 207.519531 153.03125 200.164063 156.007813 197.054688 153.199219 C 193.597656 150.082031 191.3125 144.085938 193.640625 137.089844 C 194.421875 134.988281 194.90625 133.003906 195.644531 130.789063 C 192.191406 131.320313 188.511719 132.132813 184.886719 132.210938 Z M 191.980469 133.925781 C 191.003906 136.113281 190.511719 138.101563 189.6875 139.945313 C 187.09375 141.714844 184.570313 140.089844 178.816406 141.363281 C 177.34375 139.726563 176.117188 138.679688 175.761719 137.378906 C 175.585938 136.734375 175.898438 135.390625 177.140625 135.253906 C 182.296875 134.828125 186.523438 134.089844 191.980469 133.925781 Z M 187.8125 118.199219 C 187.417969 118.710938 186.59375 118.910156 186.171875 118.601563 C 183.085938 115.382813 182.015625 111.652344 185.503906 108.910156 C 185.953125 108.589844 186.324219 108.546875 186.242188 109.292969 C 185.898438 112.585938 187.230469 115.105469 187.8125 118.199219 Z M 188.90625 108.363281 C 187.828125 107.910156 187.851563 106.941406 189.195313 106.875 C 190.820313 106.800781 193.289063 107.117188 194.152344 106.605469 C 195.449219 105.632813 196.460938 103.984375 198.21875 103.859375 C 198.503906 104.257813 198.730469 104.710938 198.734375 105.21875 C 197.34375 105.789063 196.578125 107.195313 195.601563 108.046875 C 194.691406 109.082031 191.011719 109.246094 188.90625 108.363281 Z M 193.84375 123.035156 C 193.519531 123.992188 192.695313 123.742188 191.859375 123.613281 C 190.042969 123.339844 190.203125 124.332031 189.09375 125.53125 C 188.765625 126.066406 188.015625 125.835938 188.222656 125.257813 C 189.292969 122.222656 191.65625 119.886719 193.84375 123.035156 Z M 210.222656 154.386719 C 208.015625 155.734375 205.726563 156.835938 203.554688 157.832031 C 203.214844 157.664063 202.871094 157.097656 203.378906 156.871094 C 204.734375 155.953125 209.796875 152.375 211.222656 150.707031 C 213.152344 151.320313 215.433594 151.578125 217.234375 152.035156 C 216.453125 153.683594 215.554688 155.328125 214.429688 156.808594 C 213.84375 156.421875 213.191406 155.988281 212.496094 155.574219 C 211.648438 156.785156 210.703125 157.621094 209.105469 157.632813 C 209.46875 156.660156 210.019531 155.730469 210.667969 154.835938 C 211.191406 154.105469 210.84375 153.996094 210.222656 154.386719 Z M 205.632813 164.621094 C 205.738281 160.761719 209.175781 160.671875 211.242188 160.636719 C 214.992188 160.574219 216.335938 156.710938 218.992188 152.308594 C 219.613281 151.738281 220.347656 151.335938 220.914063 150.9375 C 223.058594 154.265625 223.492188 159.480469 219.652344 163.027344 C 217.917969 164.625 202.589844 174.160156 197.949219 179.335938 C 196.207031 178.175781 195.789063 173.058594 197.015625 171.757813 C 198.191406 170.511719 200.179688 169.640625 202.566406 169.503906 C 203.074219 166.765625 203.753906 165.796875 205.632813 164.621094 Z M 227.488281 140.984375 C 226.347656 140.519531 222.789063 139.253906 221.808594 138.808594 C 220.949219 136.996094 219.769531 135.390625 218.890625 133.554688 C 219.273438 130.660156 219.765625 127.882813 219.921875 124.933594 C 224.035156 125.632813 227.648438 128.574219 228.292969 132.933594 C 228.027344 135.769531 227.816406 138.71875 227.488281 140.984375 Z M 219.253906 138.792969 C 223.679688 145.460938 219.546875 149.785156 217.230469 149.085938 C 215.613281 148.597656 214.421875 147.605469 213.125 146.335938 C 214.191406 143.824219 215.726563 141.183594 217.25 138.820313 C 217.863281 137.871094 218.609375 137.824219 219.253906 138.792969 Z M 216.328125 130.847656 C 214.449219 129.554688 212.46875 127.007813 210.964844 124.585938 C 211.804688 122.429688 213.625 120.503906 215.585938 119.6875 C 213.9375 118.449219 211.453125 116.992188 210.050781 116.101563 C 208.558594 115.15625 208.734375 113.3125 211.023438 114.105469 C 219.648438 117.601563 219.695313 125.644531 216.328125 130.847656 Z M 210.933594 118.863281 C 210.484375 119.53125 209.589844 120.023438 208.339844 120.519531 C 208.277344 119.921875 208.328125 119.371094 208.496094 118.652344 C 209.121094 118.421875 210.535156 118.640625 210.933594 118.863281 Z M 212.359375 130.414063 C 213.480469 132.066406 216.082031 133.4375 215.671875 135.15625 C 211.140625 135.464844 207.050781 137.414063 203.003906 139.589844 C 201.078125 132.277344 199.59375 125.992188 196.078125 120.785156 C 196.050781 118.984375 196.078125 116.90625 196.078125 116.90625 L 199.132813 116.921875 L 200.398438 115.585938 L 202.875 116.472656 C 202.875 116.472656 209.386719 126.011719 212.359375 130.414063 Z M 206.265625 114.695313 C 204.882813 113.058594 202.847656 111.429688 202.847656 111.429688 L 202.464844 113.472656 L 199.0625 113.375 L 198.5625 115.304688 L 196.914063 114.464844 L 194.546875 114.429688 L 193.832031 117.777344 C 193.832031 117.777344 191.800781 117.03125 190.808594 116.707031 C 190.960938 115.011719 191.125 114.078125 191.746094 112.453125 C 195.269531 112.910156 195.8125 109.9375 197.847656 108.511719 C 201.804688 106.550781 206.703125 109.730469 206.265625 114.695313 Z M 194.796875 99.800781 C 195.050781 101.058594 195.050781 101.492188 195.207031 102.519531 C 194.320313 103.289063 193.382813 104.234375 192.5 104.96875 C 179.875 102.792969 178.789063 108.863281 178.824219 115.089844 C 178.644531 116.671875 177.128906 116.671875 176.851563 114.644531 C 176.203125 108.328125 178.222656 102.464844 188.003906 101.59375 C 192.785156 97.925781 196.753906 97.136719 201.042969 97.777344 C 201.917969 98.023438 201.988281 98.386719 201.304688 98.6875 C 199.328125 99.492188 197.175781 100.015625 194.796875 99.800781 Z M 179.945313 119.714844 C 181.421875 120.160156 182.980469 121.585938 183.839844 122.75 C 182.195313 123.84375 180.695313 124.660156 179.289063 125.351563 C 179.03125 125.480469 179.078125 125.777344 179.296875 125.839844 C 180.574219 126.203125 181.589844 126.539063 182.703125 127.066406 C 185.734375 128.210938 179.710938 132.210938 176.445313 132.652344 C 173.179688 133.054688 175.03125 122.871094 179.945313 119.714844 Z M 178.828125 143.40625 C 182.476563 143.519531 185.441406 143.378906 188.914063 143.464844 C 190.058594 145.722656 191.09375 148.550781 191.957031 150.925781 C 190.644531 151.078125 189.269531 151.363281 187.882813 151.515625 C 189.25 153.148438 190.425781 154.46875 191.703125 155.96875 C 190.859375 156.695313 190.09375 157.519531 189.105469 158.425781 C 188.945313 158.574219 189.078125 158.886719 189.28125 158.890625 C 191.8125 158.925781 194.5 158.84375 196.9375 159.503906 C 201.277344 160.675781 202.453125 164.453125 196.574219 166.625 C 184.332031 171.144531 182.828125 154.109375 186.617188 148.121094 C 182.691406 148.617188 177.167969 150.554688 174.511719 151.984375 C 174.164063 150.929688 173.71875 150.0625 173.480469 148.441406 C 172.796875 148.085938 171.707031 147.824219 170.6875 147.132813 C 171.230469 144.796875 173.152344 141.359375 174.445313 139.746094 C 175.925781 141.210938 177.40625 142.164063 178.828125 143.40625 Z M 170.917969 157.839844 C 180.84375 156.035156 180.796875 161.671875 183.042969 168.144531 C 190.023438 168.472656 192.574219 175.308594 194.957031 180.785156 C 195.757813 182.621094 194.863281 182.761719 193.386719 181.558594 C 189.621094 178.496094 184.457031 177.703125 179.574219 176.433594 C 176.960938 174.75 174.628906 172.890625 171.894531 170.753906 C 170.96875 167.472656 167.453125 156.101563 166.640625 153.105469 C 168.054688 152.566406 170.054688 152.96875 170.917969 157.839844 Z M 167.824219 193.214844 C 172.265625 198.96875 179.464844 200.585938 185.976563 203.246094 C 194.316406 206.652344 196.132813 210.511719 197.773438 219.34375 C 195.640625 218.714844 193.820313 217.671875 192.09375 216.472656 C 189.703125 214.808594 185.03125 210.597656 180.175781 209.699219 C 174.695313 208.6875 166.429688 203.253906 167.824219 193.214844 Z M 174.429688 213.304688 C 179.214844 214.960938 183.882813 216.804688 187.941406 219.371094 C 188.355469 219.636719 188.429688 220.15625 187.738281 220.078125 C 183.519531 219.605469 172.074219 217.828125 167.691406 220.300781 C 166.902344 217.136719 165.386719 214.09375 163.789063 211.085938 C 162.402344 208.472656 161.613281 206.433594 162.445313 203.898438 C 164.765625 208.480469 169.9375 211.753906 174.429688 213.304688 Z M 188.394531 224.378906 C 184.714844 225.371094 180.320313 229.46875 178.117188 231.121094 C 176.136719 231.359375 169.753906 227.613281 165.007813 227.226563 C 170.289063 219.902344 179.074219 220.867188 188.394531 224.378906 Z M 275.199219 101.832031 C 275.964844 106.308594 273.703125 110.367188 270.585938 113.570313 C 268.300781 115.917969 266.171875 117.925781 267.378906 121.058594 C 270.734375 129.761719 260.355469 133.898438 258.730469 134.117188 C 250.09375 135.289063 242.128906 139.054688 240.71875 146.070313 C 237.449219 145.070313 234.414063 143.667969 231.179688 142.15625 C 231.742188 130.644531 241.597656 132.316406 252.101563 130.703125 C 255.253906 130.21875 261.066406 128.273438 262.234375 122.574219 C 262.867188 119.492188 263.949219 117.019531 266.195313 114.390625 C 270.144531 109.769531 272.234375 108.9375 274.453125 101.824219 C 274.589844 101.386719 275.117188 101.371094 275.199219 101.832031 Z M 232.1875 78.121094 C 238.488281 74.925781 243.136719 69.253906 246.210938 62.675781 C 247.460938 60.011719 248.027344 60.078125 247.882813 62.96875 C 247.714844 70.335938 255.089844 80.691406 261.476563 84.5 C 267.359375 88.007813 272.363281 92.5625 271.996094 100.621094 C 271.695313 107.195313 266.171875 110.191406 263.160156 113.011719 C 261.582031 114.488281 260.371094 116.269531 260.292969 118.476563 C 260.070313 124.832031 256.925781 128.273438 249.914063 128.707031 C 247.609375 128.847656 240.441406 130.332031 240.332031 127.429688 C 239.789063 117.464844 230.683594 116.019531 227.394531 123.703125 C 225.253906 123.117188 223.464844 122.21875 221.148438 121.414063 C 219.839844 117.464844 218.4375 113.046875 217.171875 109.144531 C 220.839844 104.308594 221.269531 92.988281 218.410156 87.148438 C 221.101563 81.921875 227.386719 80.695313 232.1875 78.121094 Z M 214.5625 88.246094 C 219.207031 91.984375 216.949219 101.566406 215.34375 106.203125 C 214.710938 105.757813 213.914063 105.253906 213.011719 104.574219 C 213.671875 100.886719 209.21875 99.398438 209.171875 97.285156 C 209.394531 93.667969 212.378906 90.226563 214.5625 88.246094 Z M 213.617188 112.332031 C 212.109375 112.046875 210.839844 111.496094 209.136719 111.394531 C 207.707031 108.796875 206.835938 104.890625 203.097656 105.308594 C 202.019531 104.972656 200.882813 104.074219 201.328125 102.769531 C 208.246094 101.386719 212.757813 108.285156 213.617188 112.332031 Z M 212.421875 76.503906 C 209.296875 81.835938 204.824219 92.503906 203.609375 94.992188 C 202.078125 95.113281 200.6875 94.914063 199.300781 94.785156 C 197.023438 92.703125 198.644531 89.015625 198.234375 86.183594 C 197.824219 83.523438 199.097656 80.824219 201.316406 79.933594 C 204.84375 78.4375 208.566406 77.136719 212.078125 76.03125 C 212.339844 75.949219 212.570313 76.253906 212.421875 76.503906 Z M 122.5625 67.886719 C 131.921875 57.375 145.992188 50.742188 153.351563 52.992188 C 161.871094 55.601563 170.695313 56.46875 178.695313 53.933594 C 185.507813 51.773438 204.667969 49.597656 204.371094 60.585938 C 204.261719 64.523438 205.335938 65.839844 207.628906 66.9375 C 210.019531 68.082031 213.199219 69.324219 210.554688 72.683594 C 209 74.660156 206.246094 75.257813 203.222656 76.636719 C 202.714844 68.753906 195.195313 60.078125 189.601563 72.234375 C 184.921875 62.757813 175.324219 63.464844 163.226563 66.035156 C 146.371094 69.617188 140.769531 72.433594 123.648438 70.800781 C 121.8125 70.628906 121.300781 69.300781 122.5625 67.886719 Z M 143.5 82.546875 C 138.199219 83.339844 135 82.351563 129.335938 80.148438 C 124.914063 78.441406 118.144531 78.785156 112.394531 79.617188 C 104.953125 80.691406 98.570313 79.359375 91.316406 76.453125 C 88.273438 74.957031 88.398438 74.230469 92.277344 74.179688 C 98.808594 73.96875 106.003906 75.746094 111.742188 73.285156 C 115.347656 71.742188 118.886719 71.648438 122.277344 72.621094 C 135.171875 76.3125 149.769531 72.347656 161.566406 69.386719 C 171.066406 67.003906 183.414063 65.90625 186.027344 72.550781 C 187.125 75.339844 189.675781 77.234375 191.792969 79.160156 C 194.867188 81.957031 194.90625 88.917969 194.375 95.328125 C 191.871094 95.496094 189.289063 96 187.078125 96.359375 C 186.347656 87.257813 185.148438 78.519531 180.808594 75.410156 C 179.730469 74.535156 179.136719 74.964844 179.820313 76.085938 C 182.742188 81.847656 183.125 88.988281 183.089844 96.804688 C 180.957031 97.230469 179.34375 97.4375 177.199219 98.097656 C 175.113281 92.378906 171.652344 84.214844 166.695313 80.898438 C 165.25 80.015625 164.542969 80.53125 165.742188 81.882813 C 169.191406 85.871094 171.222656 90.703125 171.921875 95.785156 C 171.976563 96.160156 171.554688 96.339844 171.304688 96.046875 C 162.269531 85.367188 157.027344 80.523438 143.5 82.546875 Z M 169 107.535156 C 171.636719 104.382813 175.253906 100.925781 179.441406 100.167969 C 179.875 100.046875 180.164063 100.480469 179.671875 100.847656 C 173.863281 107.265625 172.277344 108.625 173.527344 117.390625 C 174 120.6875 174.597656 123.390625 173.453125 124.113281 C 170.855469 125.601563 168.65625 127.707031 167.085938 130.4375 C 167.871094 130.691406 168.742188 130.683594 169.523438 130.820313 C 171.953125 133.566406 168.539063 142.554688 166.886719 145.90625 C 165.75 145.628906 164.984375 145.148438 164.046875 144.730469 C 164.253906 143.050781 164.679688 141.257813 164.980469 139.148438 C 164.480469 138.351563 164.046875 137.628906 163.324219 136.691406 C 164.109375 135.496094 165.453125 132.996094 165.453125 132.996094 L 163.796875 129.886719 L 165.421875 126.761719 L 163.753906 122.011719 L 167.417969 118.707031 L 166.601563 114.347656 L 171.34375 111.089844 C 171.34375 111.089844 169.574219 108.949219 169 107.535156 Z M 158.195313 117.179688 C 157.226563 119.726563 156.628906 119.5625 154.890625 117.699219 C 153.035156 115.71875 151.34375 113.324219 149.855469 110.902344 C 148.257813 108.304688 148.878906 107.460938 151.195313 108.089844 C 151.796875 108.253906 158.773438 109.632813 162.125 111.035156 C 165.109375 112.289063 165.359375 114.703125 163.027344 117.023438 C 162.234375 117.808594 161.65625 118.539063 162.773438 119.296875 C 161.988281 120.492188 161.3125 121.289063 160.242188 122.316406 C 158.980469 119.828125 160.035156 118.066406 161.292969 115.4375 C 161.757813 114.472656 161.894531 113.523438 160.699219 112.621094 C 159.546875 113.914063 158.820313 115.53125 158.195313 117.179688 Z M 162.558594 152.050781 C 164.40625 157.808594 166.164063 163.710938 167.476563 169.929688 C 167.878906 171.835938 167.324219 172.066406 166.351563 170.488281 C 163.71875 166.21875 161.394531 161.699219 158.226563 157.796875 C 159.632813 155.863281 160.503906 153.746094 162.558594 152.050781 Z M 155.308594 162.066406 C 156.027344 161.105469 156.746094 161.554688 156.253906 162.933594 C 154.425781 167.460938 149.34375 179.769531 148.714844 181.269531 C 148.289063 182.367188 147.363281 182.582031 147.261719 181.28125 C 147.164063 176.167969 154.734375 162.828125 155.308594 162.066406 Z M 149.632813 154.859375 C 150.183594 153.683594 150.953125 153.828125 150.25 155.246094 C 137.199219 182.523438 132.539063 217.078125 145.335938 249.535156 C 145.699219 250.453125 144.71875 250.792969 144.335938 250.007813 C 132.339844 217.855469 131.4375 193.78125 149.632813 154.859375 Z M 118.355469 211.507813 C 119.703125 212.816406 130.917969 220.726563 134.675781 224.164063 C 136.566406 226.101563 136.355469 227.945313 133.382813 226.511719 C 131.652344 225.84375 119.664063 217.1875 116.519531 212.070313 C 114.96875 209.539063 116.191406 209.402344 118.355469 211.507813 Z M 116.992188 198.601563 C 123.027344 199.273438 129.53125 199.195313 134.441406 202.011719 C 134.332031 202.578125 134.125 203.546875 134.171875 204.277344 C 129.234375 203.171875 117.757813 199.757813 116.777344 199.496094 C 115.363281 199.121094 115.585938 198.441406 116.992188 198.601563 Z M 115.898438 150.9375 C 117.683594 152.746094 119.320313 154.558594 121.386719 156.242188 C 121.632813 148.277344 121.496094 143.183594 123.496094 137.605469 C 123.726563 136.964844 124.265625 137.054688 124.242188 137.777344 C 124.066406 144.089844 123.3125 151.546875 125.488281 160.128906 C 128.792969 163.566406 132.671875 167.773438 135.464844 171.238281 C 135.847656 164.484375 137.3125 157.921875 138.808594 151.464844 C 139.1875 149.828125 139.855469 149.933594 139.644531 151.582031 C 138.566406 160.132813 137.035156 169.132813 138.316406 177.816406 C 133.980469 178.480469 122.664063 176.109375 118.507813 175.089844 C 116.78125 174.664063 116.695313 173.753906 118.582031 173.648438 C 122.320313 173.4375 128.894531 174.371094 135.054688 175.699219 C 135.332031 175.757813 135.484375 175.347656 135.285156 175.085938 C 131.582031 170.214844 127.671875 165.824219 123.453125 161.386719 C 120.652344 159.882813 117.558594 159.3125 114.859375 158.023438 C 113.628906 157.359375 114.085938 156.449219 115.128906 156.65625 C 116.242188 156.882813 117.800781 157.445313 119.210938 157.8125 C 119.492188 157.886719 119.558594 157.515625 119.316406 157.277344 C 117.632813 155.628906 115.8125 154.144531 114.605469 152.160156 C 113.105469 149.726563 114.84375 149.867188 115.898438 150.9375 Z M 107.96875 115.515625 C 108.035156 115.210938 108.59375 115.261719 108.605469 115.589844 C 108.71875 118.632813 107.578125 123.242188 108.6875 123.957031 C 109.3125 124.464844 108.636719 124.921875 108.011719 124.753906 C 105.683594 123.710938 107.328125 118.59375 107.96875 115.515625 Z M 88.589844 106.65625 C 88.824219 105.8125 89.429688 105.792969 89.648438 106.71875 C 90.53125 110.480469 89.054688 115.820313 90.691406 117.9375 C 91.265625 118.621094 90.90625 118.984375 90.015625 118.449219 C 87.394531 116.085938 88.34375 107.527344 88.589844 106.65625 Z M 55.273438 99.6875 C 58.308594 101.257813 63.128906 103.0625 66.332031 105.324219 C 66.667969 105.5625 67.042969 105.375 66.871094 105.050781 C 66.222656 103.796875 65.128906 102.65625 64.136719 101.453125 C 59.148438 95.414063 56.480469 86.304688 55.167969 78.007813 C 55.003906 76.953125 55.460938 76.464844 55.992188 77.789063 C 58.59375 84.273438 61.003906 92.746094 64.75 98.6875 C 65.90625 100.519531 67.113281 102.335938 68.15625 104.304688 C 68.320313 104.613281 68.707031 104.515625 68.742188 104.171875 C 69.023438 101.121094 69.164063 99.167969 70.347656 97.082031 C 71.164063 101.101563 71.738281 105.253906 72.738281 109.421875 C 68.570313 109.011719 59.105469 103.035156 54.730469 100.566406 C 53.464844 99.902344 53.972656 99.179688 55.273438 99.6875 Z M 30.453125 151.226563 C 29.441406 155.449219 28.601563 159.742188 27.683594 164.015625 C 27.617188 164.3125 27.019531 164.332031 26.929688 164.039063 C 25.777344 160.265625 24.882813 156.585938 23.875 152.890625 C 22.042969 146.179688 31.285156 134.089844 45.316406 125.296875 C 59.636719 116.316406 73.507813 110.191406 91.320313 123.34375 C 93.734375 125.125 93.585938 125.605469 91.921875 126.867188 C 75.488281 139.328125 62.363281 141.230469 49.351563 141.800781 C 41.574219 142.140625 32.441406 142.945313 30.453125 151.226563 Z M 111.753906 189.296875 C 111.632813 189.839844 111.027344 189.773438 110.910156 189.3125 C 109.636719 184.441406 108.011719 179.417969 104.925781 175.320313 C 103.261719 173.117188 102.847656 173.300781 103.703125 176.078125 C 105.699219 182.589844 109.304688 198.261719 106.394531 201.992188 C 100.347656 195.933594 95.855469 184.175781 93.773438 179.777344 C 93.140625 178.441406 92.527344 178.550781 92.769531 180.210938 C 94.230469 189.398438 98.617188 197.769531 102.902344 205.582031 C 96.730469 206.625 89.867188 190.082031 85.738281 178.261719 C 82.058594 167.722656 76.804688 156.257813 69.191406 151.316406 C 68.683594 150.984375 68.859375 150.40625 69.441406 150.398438 C 84.921875 150.230469 85.652344 149.75 97.519531 139.394531 C 105.355469 132.578125 107.746094 134.242188 108 150.566406 C 108.082031 155.871094 108.691406 161.121094 109.539063 166.324219 C 110.320313 171.140625 113.003906 183.839844 111.753906 189.296875 Z M 111.953125 142.546875 C 111.789063 144.304688 111.195313 144.285156 111.0625 142.480469 C 110.117188 129.925781 102.285156 128.464844 95.292969 135.371094 C 86.035156 144.515625 84.996094 146.113281 74.570313 145.953125 C 71.042969 145.898438 62.5 144.914063 58.617188 143.976563 C 57.628906 143.734375 58.082031 143.15625 58.738281 143.089844 C 73.496094 141.601563 79.4375 138.863281 90.34375 131.332031 C 102.371094 123.027344 113.617188 124.722656 111.953125 142.546875 Z M 113.210938 212.59375 C 112.777344 211.433594 113.246094 211.3125 113.796875 212.410156 C 119.316406 223.195313 127.988281 232.222656 136.777344 240.640625 C 138.035156 241.84375 138.027344 242.355469 136.300781 241.753906 C 128.484375 238.75 117.972656 225.035156 113.210938 212.59375 Z M 178.929688 276.289063 C 170.1875 275.144531 153.664063 274.632813 145.421875 272.382813 C 141.921875 273.601563 132.828125 278.441406 128.839844 280.28125 C 127.929688 280.699219 127.449219 279.910156 128.117188 279.203125 C 131.179688 275.984375 134.648438 273.273438 139.257813 270.832031 C 135.496094 269.675781 131.011719 268.492188 127.320313 267.039063 C 118.769531 270.472656 109.804688 275.308594 101.496094 278.875 C 100.90625 279.128906 100.601563 278.59375 101.078125 278.253906 C 106.574219 274.386719 116.019531 268.390625 123.0625 265.535156 C 118.246094 263.59375 106.136719 256.851563 104.25 255.609375 C 94.449219 259.027344 83.648438 264.289063 74.566406 269.597656 C 74.164063 269.832031 73.558594 269.3125 74.113281 268.894531 C 81.765625 263.136719 91.210938 256.386719 100.445313 253.589844 C 95.242188 250.449219 82.230469 246.691406 79.773438 245.898438 C 72.78125 248.09375 64.019531 251.238281 56.511719 253.730469 C 55.945313 253.921875 55.734375 253.277344 56.203125 253.027344 C 62.175781 249.832031 69.652344 246.550781 76.308594 244.203125 C 72.546875 242.5 68.128906 239.828125 65.675781 237.460938 C 58.621094 237.082031 52.292969 237.710938 45.082031 237.488281 C 44.476563 237.46875 44.070313 236.953125 44.964844 236.742188 C 49.054688 235.777344 58.894531 235.132813 61.871094 235.441406 C 56.925781 230.460938 44.574219 222.945313 37.023438 219.585938 C 31.574219 217.160156 26.027344 214.828125 21.050781 211.480469 C 19.683594 210.558594 19.898438 209.855469 21.453125 210.472656 C 33.503906 215.28125 44.246094 220.34375 55.09375 227.628906 C 55.371094 227.8125 55.613281 227.582031 55.433594 227.242188 C 53.433594 223.460938 49.554688 216.878906 46.929688 211.617188 C 46.574219 210.902344 47.199219 210.746094 47.65625 211.300781 C 53.898438 218.855469 60.039063 225.429688 65.09375 233.894531 C 70.667969 238.054688 75.800781 241.558594 82.542969 244.167969 C 80.527344 238.519531 77.988281 232.703125 76.222656 226.820313 C 75.523438 224.316406 76.160156 224.285156 77.574219 226.515625 C 80.953125 232.902344 85.761719 239.347656 88.796875 245.621094 C 93 246.980469 98.78125 249.003906 102.613281 250.738281 C 102.335938 247.960938 100.402344 239.550781 99.113281 235.5 C 98.867188 234.722656 99.398438 234.488281 99.800781 235.152344 C 103.464844 241.222656 106.792969 247.863281 109.117188 254.503906 C 113.6875 257.265625 118.257813 260.125 122.246094 261.992188 C 122.476563 262.101563 122.761719 261.796875 122.679688 261.542969 C 120.4375 254.640625 118.632813 247.683594 117.007813 241.195313 C 116.320313 238.46875 116.964844 238.230469 118.367188 240.621094 C 122.824219 248.203125 127.132813 256.347656 130.023438 264.304688 C 132.523438 265.597656 135.714844 266.929688 138.097656 267.722656 C 136.933594 262.566406 132.9375 252.570313 131.917969 247.550781 C 131.382813 245.5625 132.246094 245.527344 132.90625 246.96875 C 137.253906 260.300781 139.234375 265.90625 145.226563 268.71875 C 152.933594 272.339844 165.480469 271.25 179.265625 275.03125 C 180.308594 275.3125 180.089844 276.46875 178.929688 276.289063 Z M 205.882813 271.039063 C 194.789063 269.265625 178.472656 265.429688 173.296875 263.671875 C 170.679688 262.785156 172.066406 261.394531 174.710938 261.789063 C 178.5625 262.359375 181.980469 261.742188 185.289063 257.203125 C 191.21875 256.523438 194.8125 252.371094 199.722656 250.03125 C 203.960938 248.015625 209.164063 247.265625 214.992188 247.898438 C 224.195313 248.902344 225.542969 247.589844 235.117188 245.054688 C 247.375 241.808594 259.308594 244.007813 266.886719 243.097656 C 268.453125 242.90625 268.496094 243.503906 267.441406 244.226563 C 256.703125 251.625 246.820313 258.84375 235.796875 265.597656 C 222.402344 273.800781 218.839844 273.109375 205.882813 271.039063 Z M 370.390625 285.828125 C 373.058594 285.464844 375.980469 285.421875 378.492188 285.847656 C 378.859375 285.90625 379.261719 286.5625 378.574219 286.730469 C 377.214844 287.058594 374.152344 287.355469 373.40625 287.847656 C 379.082031 292.527344 385.132813 299.886719 388.054688 306.832031 C 388.46875 307.824219 388.082031 308.375 387.277344 307.257813 C 383.226563 301.621094 374.144531 289.050781 367.730469 286.402344 C 369.167969 289.945313 370.5625 293.449219 371.425781 297.351563 C 371.710938 298.632813 371.054688 298.78125 370.570313 297.628906 C 368.472656 292.609375 366.332031 288.453125 363.300781 283.773438 C 358.246094 280.371094 351.210938 277.839844 345.308594 276.398438 C 347.765625 280.949219 350.164063 287.027344 351.230469 291.339844 C 351.457031 292.265625 350.90625 292.460938 350.398438 291.585938 C 346.828125 285.464844 342.753906 279.867188 337.863281 275.238281 C 333.5 274.753906 329.304688 274.660156 325.054688 274.402344 C 327.699219 278.867188 330.707031 285.734375 332.160156 291.140625 C 332.347656 291.824219 331.992188 291.933594 331.65625 291.34375 C 328.039063 284.957031 323.570313 278.78125 318.253906 273.984375 C 314.953125 273.46875 309.148438 272.328125 305.488281 271.109375 C 308.371094 278.476563 311.664063 286.046875 312.808594 293.089844 C 312.933594 293.859375 312.425781 293.917969 312.097656 293.222656 C 306.566406 281.449219 302.878906 275.335938 294.816406 267.769531 C 292.1875 266.855469 284.601563 266.667969 279.460938 267.171875 C 284.351563 273.351563 290.355469 283.789063 292.269531 292.191406 C 292.449219 292.988281 291.726563 293.453125 291.230469 292.488281 C 286.621094 283.617188 280.933594 274.296875 273.628906 267.996094 C 269.210938 268.816406 264.515625 270.085938 260.332031 271.753906 C 264.359375 277.722656 268.914063 285.21875 271.765625 291.589844 C 272.078125 292.300781 271.40625 292.679688 271.015625 292.074219 C 266.746094 285.507813 261.6875 278.265625 255.695313 273.421875 C 252.09375 274.800781 248.628906 275.917969 244.925781 277.191406 C 245.859375 280.3125 247.890625 287.253906 248.277344 289.96875 C 248.34375 290.453125 247.925781 290.429688 247.734375 290.15625 C 245.292969 286.652344 243.113281 282.851563 240.085938 278.664063 C 233.363281 280.171875 225.714844 281.6875 218.394531 281.25 C 215.429688 281.074219 215.335938 279.1875 218.246094 279.023438 C 224.691406 278.660156 237.402344 276.511719 243.039063 274.660156 C 245.632813 270.777344 249 264.875 252.003906 261.074219 C 252.386719 260.589844 253.023438 260.746094 252.816406 261.269531 C 251.273438 265.195313 249.28125 269.824219 247.253906 273.582031 C 250.484375 273.144531 257.09375 270.410156 260.605469 269.710938 C 265.304688 264.25 269.277344 256.753906 273.589844 251.101563 C 274.132813 250.390625 274.832031 250.566406 274.566406 251.371094 C 272.871094 256.5 269.300781 263.417969 265.75 268.039063 C 268.84375 267.289063 274.914063 266.0625 276.632813 265.605469 C 278.339844 264.355469 286.558594 255.554688 291.398438 250.816406 C 293.253906 249.003906 293.953125 249.089844 292.660156 251.949219 C 290.585938 256.097656 287.027344 261.390625 284.605469 265.21875 C 289.152344 265.410156 292.710938 265.796875 296.625 266.90625 C 304.285156 263.597656 310.359375 258.101563 316.832031 253.121094 C 317.339844 252.730469 317.847656 253.050781 317.476563 253.574219 C 313.605469 259.015625 308.640625 264.8125 303.265625 268.796875 C 309.027344 271.410156 321.480469 273.34375 323.574219 273.445313 C 327.558594 270.707031 332.296875 268.664063 336.222656 265.300781 C 337.433594 264.328125 337.949219 264.683594 337.050781 265.746094 C 334.757813 268.449219 332.25 271.074219 329.695313 273.414063 C 333.457031 273.21875 339.238281 273.433594 341.257813 273.929688 C 346.722656 273.644531 355.210938 270.035156 356.878906 270.542969 C 355.40625 272.597656 352.777344 274.011719 350.328125 275.027344 C 350.0625 275.136719 350.128906 275.484375 350.449219 275.574219 C 356.484375 277.269531 367.644531 283.390625 370.390625 285.828125 Z M 450.621094 284.820313 C 452.246094 284.921875 456.871094 285.90625 459.640625 286.417969 C 460.570313 286.589844 460.503906 287.617188 459.429688 287.597656 C 457.898438 287.570313 455.863281 287.019531 454.203125 287.804688 C 459.71875 293.148438 473.367188 298.3125 480.855469 301.980469 C 482.007813 302.546875 481.90625 303.425781 480.742188 303.386719 C 471.132813 302.839844 461.753906 299.019531 451.933594 289.601563 C 451.65625 289.335938 451.265625 289.667969 451.378906 290.175781 C 451.851563 292.328125 452.578125 295.191406 452.824219 297.714844 C 452.996094 298.585938 452.386719 298.6875 452.015625 297.992188 C 450.195313 294.59375 446.8125 286.261719 445.058594 283.265625 C 439.015625 276.554688 431.53125 269.3125 422.636719 265.707031 C 428.328125 272.789063 431.816406 282.003906 432.476563 289.761719 C 432.53125 290.386719 432.152344 290.394531 431.933594 289.78125 C 428.457031 280.152344 423.511719 268.972656 415.59375 262.574219 C 409.957031 260.84375 403.992188 259.878906 398.296875 259.550781 C 405.429688 266.449219 412.488281 274.390625 411.332031 280.957031 C 405.894531 269.957031 401.125 265.367188 391.496094 259.589844 C 381.152344 261.917969 374.910156 262.886719 365.308594 261.109375 C 364.488281 260.960938 364.25 260.390625 365.253906 260.238281 C 373.039063 259.078125 390.558594 256.265625 397.898438 256.519531 C 400.050781 255.101563 401.371094 253.695313 403.394531 252.355469 C 403.78125 252.03125 404.214844 252.257813 403.980469 252.714844 C 403.496094 253.917969 402.402344 255.222656 401.394531 256.53125 C 408.820313 257.113281 416.136719 258.09375 422.386719 261.347656 C 427.421875 262.308594 437.199219 263.390625 440.644531 263.917969 C 441.035156 263.976563 441.339844 264.457031 440.945313 264.597656 C 438.992188 265.296875 432.851563 265.226563 430.394531 265.097656 C 429.582031 265.121094 429.726563 265.410156 430.402344 266.0625 C 433.304688 268.710938 446.183594 281.613281 450.621094 284.820313 Z M 504.453125 212.972656 C 498.675781 212.816406 490.578125 213.386719 485.199219 215.050781 C 482.382813 218.011719 479.632813 221.015625 477.210938 223.636719 C 482.597656 225.164063 489.027344 228.347656 493.125 231.871094 C 493.917969 232.550781 493.613281 232.964844 492.691406 232.5625 C 487.933594 230.476563 479.089844 227.394531 473.421875 227.183594 C 468.851563 230.324219 464.855469 235.113281 459.652344 236.785156 C 464.488281 240.261719 468.8125 243.632813 472.886719 247.472656 C 474.84375 249.335938 474.75 250.03125 472.332031 248.554688 C 466.667969 245.09375 460.8125 240.953125 454.335938 239.015625 C 449.3125 240.980469 444.4375 242.46875 439.40625 244.253906 C 442.875 246.0625 449.078125 251.890625 452.378906 254.804688 C 453.164063 255.480469 452.769531 255.835938 452.03125 255.4375 C 447.652344 253.027344 437.609375 246.933594 435.328125 244.671875 C 435.144531 242.5 452.964844 237.210938 457.710938 234.636719 C 458.28125 231.015625 458.070313 227.777344 459.414063 224.9375 C 460.503906 227.253906 460.152344 229.996094 460.296875 233.03125 C 463.476563 231.585938 467.984375 227.722656 471.371094 225.152344 C 471.714844 220.65625 471.132813 215.054688 472.128906 210.203125 C 472.320313 209.269531 472.84375 209.101563 473.019531 210.121094 C 473.71875 214.203125 474.195313 219.703125 474.679688 222.554688 C 476.871094 219.425781 479.769531 216.777344 482.359375 213.703125 C 481.875 209.480469 481.121094 205.347656 481.035156 201.304688 C 481.027344 200.847656 481.429688 200.667969 481.628906 201.042969 C 483.222656 204.058594 484.820313 207.613281 485.570313 210.683594 C 488.101563 206.660156 490.886719 203.039063 493.902344 199.558594 C 496.511719 196.542969 497.246094 197.789063 495.304688 200.816406 C 493.578125 203.507813 490.148438 208.3125 488.464844 211.066406 C 493.753906 210.472656 499.511719 210.714844 504.480469 212.222656 C 504.988281 212.375 504.921875 212.984375 504.453125 212.972656 "/>
</g>
</svg>
