<?xml version="1.0" encoding="UTF-8"?>
<svg xmlns="http://www.w3.org/2000/svg" xmlns:xlink="http://www.w3.org/1999/xlink" width="430pt" height="693pt" viewBox="0 0 430 693" version="1.1">
<g id="surface1">
<path style=" stroke:none;fill-rule:nonzero;fill:rgb(0%,0%,0%);fill-opacity:1;" d="M 404.914063 50.835938 C 415.523438 61.335938 417.304688 64.929688 402.78125 53.640625 C 332 -1.332031 235.09375 1.417969 219.90625 73.144531 C 216.5 74.742188 209.25 79 204.425781 82.089844 C 200.902344 84.191406 202.203125 79.871094 202.414063 78.371094 C 236.425781 -56.910156 375.632813 18.890625 404.914063 50.835938 "/>
<path style=" stroke:none;fill-rule:nonzero;fill:rgb(0%,0%,0%);fill-opacity:1;" d="M 264.925781 26.589844 C 342.667969 -3.332031 412 76.667969 428.191406 106.363281 C 430.617188 110.050781 429.734375 110.472656 426.878906 107.117188 C 318.066406 -13.71875 246.855469 50.171875 240.285156 66.9375 C 235.25 68.5 231.25 69.5 226.074219 71.335938 C 224.25 72 224.289063 69.363281 225.480469 67.445313 C 227.046875 63.089844 227.425781 46.089844 264.925781 26.589844 "/>
<path style=" stroke:none;fill-rule:nonzero;fill:rgb(0%,0%,0%);fill-opacity:1;" d="M 418.355469 139.949219 C 419.304688 142.195313 421.109375 146.453125 421.140625 146.851563 C 422.34375 149.824219 421.261719 149.941406 419.71875 147.308594 C 348.964844 29.992188 280.101563 56.453125 266.554688 68.234375 C 260.25 67.5 253.492188 66.878906 245.351563 66.9375 C 242.566406 66.816406 247.289063 62.578125 248.234375 61.511719 C 325 -0.75 404.359375 106.878906 418.355469 139.949219 "/>
<path style=" stroke:none;fill-rule:nonzero;fill:rgb(0%,0%,0%);fill-opacity:1;" d="M 419.652344 204.21875 C 420.5 209 418.5 208.5 417.03125 204.324219 C 414.847656 197.726563 378.425781 61.257813 282.515625 76.878906 C 277.628906 73.71875 276.398438 73.429688 272.070313 70.859375 C 265.769531 68.515625 274.144531 66.808594 278.925781 65.171875 C 363.578125 41.816406 414.945313 167.296875 419.652344 204.21875 "/>
<path style=" stroke:none;fill-rule:nonzero;fill:rgb(0%,0%,0%);fill-opacity:1;" d="M 289.429688 89.644531 C 332.9375 138.828125 312.691406 264.945313 188.050781 289.820313 C 183.8125 290.328125 183.542969 288.289063 186.386719 287.660156 C 318.871094 262.183594 330.871094 74.242188 231.472656 102.671875 C 220.753906 100.902344 210.378906 97.957031 199.894531 95.484375 C 193.363281 93.589844 200.925781 89.464844 204.714844 86.375 C 238.835938 62.292969 271.136719 68.96875 289.429688 89.644531 "/>
<path style=" stroke:none;fill-rule:nonzero;fill:rgb(0%,0%,0%);fill-opacity:1;" d="M 414.128906 262.480469 C 414.09375 262.679688 414.0625 262.855469 414.03125 263.011719 C 412.734375 269.125 411.011719 269.308594 411.53125 262.832031 C 411.535156 262.710938 411.539063 262.59375 411.539063 262.472656 C 413.578125 135.371094 309.046875 89.792969 298.832031 93.679688 C 296.121094 88.964844 291.25 83.75 287.757813 80.957031 C 284.75 78 290.289063 78.992188 291.824219 78.523438 C 395.761719 79.925781 419.25 234 414.128906 262.480469 "/>
<path style=" stroke:none;fill-rule:nonzero;fill:rgb(0%,0%,0%);fill-opacity:1;" d="M 400.980469 223.890625 C 403.023438 245.035156 402.863281 260.730469 401.292969 274.285156 C 399.773438 287.398438 397.703125 298.402344 394.25 310.5 C 393.75 313.25 391.605469 314.378906 392.34375 309.492188 C 400.265625 254.726563 395.09375 151.257813 312.023438 115.234375 C 308.5 109.25 307 106.5 303.394531 100.871094 C 298.863281 93.960938 308.25 97.25 316.796875 101.109375 C 375.207031 137.589844 396.152344 181.953125 400.980469 223.890625 "/>
<path style=" stroke:none;fill-rule:nonzero;fill:rgb(0%,0%,0%);fill-opacity:1;" d="M 217.789063 142.800781 C 223.171875 147.761719 228.75 149 234 149 C 238.75 149 242.75 146.25 245.539063 144.089844 C 247.429688 143.285156 248.738281 142.808594 249.238281 143.269531 C 261.320313 155.261719 192.007813 193.503906 163.0625 144.96875 C 162.003906 141.316406 204.59375 143.621094 217.789063 142.800781 "/>
<path style=" stroke:none;fill-rule:nonzero;fill:rgb(0%,0%,0%);fill-opacity:1;" d="M 155.683594 146.671875 C 154.019531 155.761719 145.035156 157.316406 145.34375 144.921875 C 144.292969 84.117188 211.121094 97.691406 227.566406 106.398438 C 230.25 108.25 230.199219 110.183594 228.390625 111.464844 C 219.25 113 212.5 122.75 214.25 132.5 C 215.628906 136.542969 218.75 138.5 214.246094 138.683594 C 198.933594 139.390625 162.242188 134.046875 155.683594 146.671875 "/>
<path style=" stroke:none;fill-rule:nonzero;fill:rgb(0%,0%,0%);fill-opacity:1;" d="M 237.621094 105.886719 C 296.425781 83.589844 335.425781 228.589844 199.648438 262.007813 C 196.5625 262.835938 195.03125 259.890625 202.59375 258.59375 C 210.75 256.25 230.273438 246.597656 246.433594 229.675781 C 265.035156 210.1875 278.921875 182.210938 264.71875 149.765625 C 263.058594 145.96875 257.75 136.25 255.5 133.75 C 255.5 127 254 111.25 236.484375 109.417969 C 232.726563 109.632813 234.714844 107.585938 237.621094 105.886719 "/>
<path style=" stroke:none;fill-rule:nonzero;fill:rgb(0%,0%,0%);fill-opacity:1;" d="M 332.058594 440.300781 C 329.027344 445.296875 326.585938 449.175781 324.835938 451.765625 C 317.332031 464 314.667969 461.667969 321.007813 451.265625 C 323.644531 447.117188 325.378906 443.015625 327.8125 438.953125 C 440.554688 250.6875 336.964844 151.148438 316.617188 134.742188 C 316.265625 129.796875 315.910156 127.171875 314.410156 122.3125 C 312.5 117.75 317.167969 119.886719 320.035156 122.066406 C 449.1875 219.75 363.332031 392 332.058594 440.300781 "/>
<path style=" stroke:none;fill-rule:nonzero;fill:rgb(0%,0%,0%);fill-opacity:1;" d="M 196.585938 244.574219 C 189.632813 244.339844 191.648438 242.101563 196.230469 241.160156 C 204.476563 239.273438 250 229.5 239.460938 180.613281 C 238.21875 173.957031 231.621094 170.722656 234.210938 165.304688 C 246.855469 159.980469 253.511719 157.984375 253.832031 141.503906 C 254.5 138.65625 256.25 140 257.25 143.269531 C 283.203125 213.933594 220.027344 244.691406 196.585938 244.574219 "/>
<path style=" stroke:none;fill-rule:nonzero;fill:rgb(0%,0%,0%);fill-opacity:1;" d="M 324.449219 174.816406 C 384.96875 271.671875 326.632813 379.214844 306.488281 411.257813 C 279.632813 456.371094 180.203125 547.4375 244.257813 632.351563 C 245.4375 633.597656 244.046875 634.195313 242.636719 633.019531 C 230.5 618.5 223.75 608.75 219.0625 589.984375 C 210.664063 553.144531 229.570313 518.1875 238.992188 496.539063 C 279.101563 416.914063 386.425781 307.589844 312.070313 189.554688 C 313.367188 182.015625 315.203125 177.429688 315.792969 169.539063 C 316.355469 162.613281 324.449219 174.816406 324.449219 174.816406 "/>
<path style=" stroke:none;fill-rule:nonzero;fill:rgb(0%,0%,0%);fill-opacity:1;" d="M 319.210938 165.296875 C 317.988281 163.898438 317.804688 148.800781 317.914063 146.214844 C 317.75 140 319.679688 141.03125 322.15625 143.269531 C 423.550781 248.839844 348.617188 389.488281 315.792969 434.109375 C 291.527344 474.160156 258.898438 513.386719 261.960938 563.09375 C 262.179688 578.824219 259.855469 569.332031 259.226563 563.921875 C 247.464844 495.554688 334.464844 423.925781 356.550781 301.46875 C 365.476563 200.863281 319.210938 165.296875 319.210938 165.296875 "/>
<path style=" stroke:none;fill-rule:nonzero;fill:rgb(0%,0%,0%);fill-opacity:1;" d="M 315.792969 202.167969 C 370.050781 317.835938 257.355469 443.367188 223.324219 505.375 C 195.378906 560.679688 178.054688 630.183594 234.171875 691.269531 C 235.503906 692.722656 234.988281 693.910156 233.277344 692.476563 C 198.667969 667 153.886719 592.679688 225.574219 478.839844 C 272.179688 404.09375 336.828125 316.605469 298.359375 219.953125 C 301.777344 211.480469 306 205 307.789063 199.25 C 309.25 195.75 310 191.25 315.792969 202.167969 "/>
<path style=" stroke:none;fill-rule:nonzero;fill:rgb(0%,0%,0%);fill-opacity:1;" d="M 301.421875 238.683594 C 332.707031 446.148438 123.304688 434.945313 144.296875 618.726563 C 144.730469 620.664063 144.148438 620.808594 143.472656 618.875 C 113.53125 516.25 220.902344 435.503906 255.507813 390.246094 C 290.113281 332.570313 293.664063 317.484375 280.21875 246.695313 C 282.574219 240.804688 288.699219 236.328125 291.644531 230.558594 C 297.222656 219.25 299.347656 231.832031 301.421875 238.683594 "/>
<path style=" stroke:none;fill-rule:nonzero;fill:rgb(0%,0%,0%);fill-opacity:1;" d="M 278.925781 259.0625 C 296.066406 391.394531 188.6875 450.4375 153.1875 466.160156 C 146.40625 469.164063 148.363281 466.855469 152.347656 464.730469 C 202.953125 437.710938 288.339844 352.976563 255.601563 268.722656 C 261.488281 263.421875 266.429688 259.804688 272.085938 254.03125 C 277.910156 246.859375 278.636719 256.144531 278.925781 259.0625 "/>
<path style=" stroke:none;fill-rule:nonzero;fill:rgb(0%,0%,0%);fill-opacity:1;" d="M 250.890625 281.445313 C 269.90625 415.246094 142.425781 437.152344 140.597656 437.277344 C 138.550781 437.464844 138.75 436.625 140.753906 435.753906 C 142.875 435.25 253.511719 391.578125 228.859375 284.035156 C 235.222656 281.679688 240.992188 278.027344 246.648438 274.257813 C 250.554688 271.363281 250.300781 278.734375 250.890625 281.445313 "/>
<path style=" stroke:none;fill-rule:nonzero;fill:rgb(0%,0%,0%);fill-opacity:1;" d="M 224.148438 301 C 231.222656 415.382813 127.53125 407.042969 124.597656 406.550781 C 120.5 406.125 119.023438 405.410156 124.855469 405.171875 C 143.484375 404.40625 220.058594 393.667969 202.671875 308.964844 C 202 304.5 201.25 298.5 200.75 294.75 C 204.25 292.5 211.050781 290.027344 215.628906 288.617188 C 226.21875 285.8125 223.195313 289.488281 224.148438 301 "/>
<path style=" stroke:none;fill-rule:nonzero;fill:rgb(0%,0%,0%);fill-opacity:1;" d="M 196.890625 298.40625 C 198.25 304.25 198.75 309.25 199 318 C 63.261719 286.390625 17.335938 446.605469 3.8125 548.242188 C 2.902344 565.648438 -1 568.667969 0.707031 547.414063 C 2.492188 466.898438 50.898438 269.585938 181.402344 291.851563 C 191.152344 294.167969 196.875 296.164063 196.890625 298.40625 "/>
<path style=" stroke:none;fill-rule:nonzero;fill:rgb(0%,0%,0%);fill-opacity:1;" d="M 193.816406 320.992188 C 198.058594 321.554688 199.792969 321.503906 200 324 C 201.25 329.75 201 336.5 199 344 C 68.328125 300.351563 30.648438 479.371094 17.660156 548.828125 C 17.222656 551.175781 16.710938 551.160156 16.648438 548.796875 C 15.667969 512.476563 40.714844 290.855469 193.816406 320.992188 "/>
<path style=" stroke:none;fill-rule:nonzero;fill:rgb(0%,0%,0%);fill-opacity:1;" d="M 193.515625 347.121094 C 199.75 348.75 198.28125 352.007813 197.191406 354.75 C 196.191406 359 193 365.25 189.75 369 C 83.421875 329.421875 43.777344 486.824219 41.050781 491.246094 C 40.640625 491.910156 39.824219 491.644531 39.914063 490.910156 C 41.925781 474.363281 74.019531 316.625 193.515625 347.121094 "/>
<path style=" stroke:none;fill-rule:nonzero;fill:rgb(0%,0%,0%);fill-opacity:1;" d="M 180.269531 372.867188 C 185.445313 374.15625 185.546875 375.726563 183.75 377 C 179 382.25 170.75 387.75 161.835938 392.644531 C 118.144531 375.785156 92.699219 410.023438 73.339844 431.753906 C 70.75 436.25 70 435.75 71.800781 430.921875 C 76.089844 423.53125 106.894531 352.910156 180.269531 372.867188 "/>
<path style=" stroke:none;fill-rule:nonzero;fill:rgb(0%,0%,0%);fill-opacity:1;" d="M 80.03125 428.566406 C 98.640625 405.890625 126.25 383.1875 155.355469 392.605469 C 158.105469 393.425781 162.003906 393.867188 153.84375 396.527344 C 138.179688 402.652344 121.78125 387.347656 80.652344 429.429688 C 78.996094 430.953125 78.542969 430.382813 80.03125 428.566406 "/>
<path style=" stroke:none;fill-rule:nonzero;fill:rgb(0%,0%,0%);fill-opacity:1;" d="M 234.429688 113.3125 C 225.613281 113.3125 218.464844 120.460938 218.464844 129.277344 C 218.464844 138.09375 225.613281 145.238281 234.429688 145.238281 C 243.246094 145.238281 250.394531 138.09375 250.394531 129.277344 C 250.394531 120.460938 243.246094 113.3125 234.429688 113.3125 "/>
</g>
</svg>
