<?xml version="1.0" encoding="UTF-8"?>
<svg xmlns="http://www.w3.org/2000/svg" xmlns:xlink="http://www.w3.org/1999/xlink" width="469pt" height="489pt" viewBox="0 0 469 489" version="1.1">
<g id="surface1">
<path style=" stroke:none;fill-rule:nonzero;fill:rgb(0%,0%,0%);fill-opacity:1;" d="M 448.96875 13.335938 C 445.53125 12.941406 430.644531 11.722656 426.578125 8.402344 C 415.839844 -0.371094 410.398438 -2.484375 395.585938 3.230469 C 381.882813 8.519531 374.847656 9.183594 357.75 10.894531 C 347.386719 11.699219 338.71875 15.898438 331.121094 21.617188 C 325.226563 20.722656 321.828125 27.601563 315.933594 24.832031 C 310.214844 21.617188 304.386719 24.960938 300.296875 28.496094 C 293.503906 35.554688 298.957031 44.671875 302.171875 51.640625 C 299.304688 56.59375 295.175781 72.78125 290.644531 79.464844 C 283.996094 89.269531 274.148438 96.289063 259.28125 104.480469 C 252.570313 108.179688 236.304688 112.710938 222.496094 109.15625 C 208.414063 105.535156 199.382813 103.214844 186.953125 104.925781 C 176.632813 106.347656 152.316406 101.125 141.335938 100.070313 C 143.34375 94.246094 143.785156 83.683594 139.3125 76.609375 C 128.648438 59.738281 110.675781 48.246094 88.511719 52.226563 C 61.410156 57.09375 42.464844 80.523438 50.910156 118.117188 C 47.015625 126.921875 54.832031 140.003906 52.28125 150.578125 C 50.363281 158.355469 30.898438 182.445313 31.339844 196.125 C 30.898438 209.09375 25.976563 231.777344 22.761719 249.378906 C 21.332031 255.992188 21.164063 263.824219 22.582031 269.039063 C 24.515625 277.226563 22.226563 285.65625 20.617188 293.699219 C 20.527344 309.785156 20.082031 325.152344 20.171875 340.253906 C 20.265625 344.257813 18.433594 347.195313 16.191406 349.964844 C 14.285156 352.324219 7.660156 358.75 8.019531 361.074219 C 7.394531 377.15625 2.441406 418.566406 1.945313 422.917969 C 0.996094 431.203125 0.277344 439.429688 2.210938 447.925781 C 3.195313 451.410156 7.445313 453.703125 12.484375 455.253906 C 16.507813 461.507813 28.503906 460.722656 33.929688 458.46875 C 46.960938 461.476563 54.28125 454.320313 48.789063 445.28125 C 46.476563 441.480469 43.238281 437.679688 40.035156 435.355469 C 36.933594 433.101563 36.300781 431.300781 36.507813 427.695313 C 37.386719 412.429688 39.832031 398.871094 44.085938 389.125 C 48.503906 378.996094 52.527344 370.898438 57.792969 357.714844 C 60.449219 351.054688 64.410156 344.917969 68.863281 339.09375 C 78.960938 325.890625 85.285156 322.050781 90.789063 305.378906 C 94.390625 294.476563 103.179688 277.546875 111.132813 272.074219 C 114.664063 281.941406 120.375 291.03125 125.597656 300.320313 C 133.597656 314.546875 141.34375 333.882813 130.902344 348.195313 C 126.511719 354.214844 125.15625 355.917969 129.113281 366.328125 C 131.582031 372.816406 134.867188 400.894531 136.867188 412.71875 C 137.484375 415.726563 136.78125 422.324219 137.425781 426.722656 C 139.757813 442.675781 157.460938 442.902344 174.183594 440.59375 C 180.460938 439.726563 189.550781 437.527344 188.960938 432.167969 C 187.863281 422.179688 180.328125 424.109375 171.421875 412.4375 C 164.074219 402.8125 171.953125 361.476563 176.09375 349.097656 C 185.027344 336.679688 192.980469 324.078125 196.289063 309.15625 C 197.539063 302.726563 197.355469 295.824219 202.269531 291.269531 C 219.714844 298.980469 236.050781 308.355469 251.597656 314.519531 C 255.089844 315.902344 257.476563 316.640625 258.671875 319.746094 C 262.582031 330.722656 264.515625 344.957031 265.757813 356.804688 C 267.714844 375.496094 275.179688 407.707031 277.234375 425.765625 C 278.222656 434.445313 281.109375 469.074219 283.554688 476.929688 C 286.855469 487.535156 293.0625 488.441406 305.1875 488.628906 C 307.875 488.671875 310.183594 488.175781 311.824219 487.152344 C 314.28125 485.136719 315.308594 486.972656 316.828125 487.777344 C 322.417969 490.082031 325.609375 484.335938 329.246094 486.527344 C 337.316406 489.460938 338.214844 478.308594 335.859375 472.765625 C 333.179688 465.261719 326.296875 460.433594 323.617188 453.105469 C 322.1875 442.039063 319.957031 431.15625 317.835938 420.214844 C 312.632813 393.390625 307.882813 353.441406 321.742188 330.15625 C 323.863281 326.382813 328.621094 325.152344 331.570313 322.648438 C 341.667969 320.507813 351.855469 321.21875 361.683594 318.449219 C 371.882813 332.117188 383.429688 389.316406 386.523438 415.132813 C 386.941406 418.90625 388.4375 422.324219 390.378906 425.53125 C 394.710938 432.675781 401.355469 439.59375 404.75 448.820313 C 406.910156 454.355469 412.648438 458.429688 422.085938 457.753906 C 428.554688 459.910156 432.753906 460.589844 439.421875 456.503906 C 443.6875 457.609375 448.871094 457.40625 453.179688 454.535156 C 461.925781 455.121094 461.09375 449.464844 459.742188 444.785156 C 456.398438 433.230469 452.226563 434.4375 443.78125 429.722656 C 426.230469 419.925781 426.234375 398.464844 425.785156 367.378906 C 425.347656 337.089844 423.984375 287.585938 430.84375 270.824219 C 432.835938 266.695313 433.214844 261.1875 433.691406 256.152344 C 434.976563 242.589844 435.148438 232.066406 438.597656 217.394531 C 441.3125 205.847656 438.761719 166.441406 428.339844 146.621094 C 434.109375 147.183594 445.082031 145.195313 451.035156 133.128906 C 458.84375 133.300781 456.449219 127.558594 457.917969 125 C 461.453125 115.402344 461.421875 108.867188 457.023438 101.140625 C 461.714844 98.796875 459.996094 86.726563 457.167969 81.972656 C 456.125 80.222656 456.347656 78.867188 457.023438 78 C 461.566406 71.882813 458.046875 67.5625 461.164063 65.390625 C 463.019531 64.042969 465.417969 63.203125 464.976563 60.664063 C 463.726563 54.050781 466.671875 48.066406 468.371094 42.167969 C 472.507813 26.890625 462.550781 14.882813 448.96875 13.335938 Z M 443.351563 60.394531 C 443.589844 56.617188 449.144531 55.953125 450.859375 59.59375 C 448.472656 58.785156 445.765625 59.113281 443.351563 60.394531 Z M 449.613281 65.5 C 449.613281 66.347656 448.929688 67.03125 448.082031 67.03125 C 447.238281 67.03125 446.550781 66.347656 446.550781 65.5 C 446.550781 64.652344 447.238281 63.96875 448.082031 63.96875 C 448.929688 63.96875 449.613281 64.652344 449.613281 65.5 Z M 439.617188 91.21875 C 439.171875 90.414063 438.1875 89.609375 437.652344 89.074219 C 438.367188 88 440.511719 88.714844 440.867188 86.660156 C 440.421875 85.054688 437.5625 85.320313 435.953125 85.589844 C 433.148438 86.023438 434.210938 83.554688 435.921875 83.367188 C 438.996094 83.023438 443.679688 82.425781 442.832031 86.929688 C 445.4375 90.328125 441.605469 90.648438 439.617188 91.21875 Z M 440.492188 103.554688 C 440.175781 105.058594 439.535156 106.335938 438.347656 107.394531 C 437.941406 105.855469 437.304688 104.582031 436.617188 103.765625 C 439.058594 101.070313 440.402344 101.5 440.492188 103.554688 Z M 410.113281 21.617188 C 411.851563 21.890625 416.910156 23.589844 417.171875 26.976563 C 417.675781 31.023438 415.472656 32.875 415.027344 36.003906 C 412.882813 34.035156 409.574219 32.339844 409.21875 28.675781 C 409.488281 26.351563 411.453125 24.027344 410.113281 21.617188 Z M 416.546875 46.457031 C 413.6875 47.296875 410.019531 45.0625 409.039063 40.648438 C 409.21875 37.566406 416.242188 42.511719 416.546875 46.457031 Z M 411.988281 51.640625 C 413.328125 52.175781 414.757813 52.53125 416.277344 52.710938 C 416.636719 53.605469 416.460938 59.34375 418.046875 60.636719 C 420.707031 62.457031 421.347656 65.167969 418.691406 65.757813 C 417.289063 62.292969 411.054688 55.480469 411.988281 51.640625 Z M 431.289063 41.542969 C 428.609375 41.09375 419.589844 44.746094 419.046875 41.09375 C 419.046875 39.488281 419.046875 37.878906 419.941406 36.628906 C 420.925781 38.773438 422.800781 40.203125 425.125 40.46875 C 426.910156 39.308594 429.679688 39.753906 431.289063 40.917969 C 431.289063 41.09375 431.289063 41.363281 431.289063 41.542969 Z M 437.097656 49.941406 C 432.449219 50.386719 427.96875 50.046875 425.285156 54.421875 C 424.929688 55.226563 425.480469 59.59375 423.605469 57.625 C 420.707031 54.636719 419.671875 47.601563 424.855469 47.082031 C 427.890625 46.5 437.277344 47.527344 437.097656 49.941406 Z M 420.121094 88.097656 C 419.273438 83.59375 423.960938 84.191406 427.035156 84.53125 C 428.742188 84.722656 429.804688 87.1875 427 86.753906 C 425.390625 86.488281 422.53125 86.21875 422.085938 87.828125 C 422.441406 89.882813 424.589844 89.167969 425.300781 90.238281 C 424.765625 90.777344 423.785156 91.578125 423.335938 92.386719 C 421.347656 91.816406 417.515625 91.496094 420.121094 88.097656 Z M 423.792969 99.894531 C 426.566406 102.304688 429.082031 103.664063 432.40625 103.910156 C 434.910156 103.941406 435.921875 107.695313 434.953125 109.09375 C 434.148438 107.84375 433.171875 105.835938 431.558594 105.878906 C 427.445313 104.269531 423.335938 102.304688 419.761719 100.070313 C 421.09375 98.179688 422.449219 98.726563 423.792969 99.894531 Z M 429.121094 96.359375 C 429.554688 94.769531 432.105469 92.933594 433.230469 93.320313 C 432.746094 95.089844 431.148438 96.84375 429.121094 96.359375 Z M 446.300781 47.082031 C 447.730469 48.867188 449.070313 51.015625 450.410156 52.890625 C 443.8125 51.308594 438.222656 57.019531 437.542969 66.023438 C 435.566406 66.519531 425.84375 57.710938 431.558594 55.035156 C 435.667969 52.980469 442.90625 56.105469 444.425781 49.941406 C 444.691406 48.601563 444.515625 46.992188 446.300781 47.082031 Z M 399.34375 4.429688 C 415.472656 -1.097656 424.058594 10.28125 432.808594 15.988281 C 429.503906 16.703125 426.195313 14.109375 423.15625 13.21875 C 422.441406 12.503906 422.175781 11.25 420.835938 11.699219 C 420.300781 12.234375 419.761719 12.679688 419.941406 13.484375 C 422.890625 17.863281 427.179688 17.507813 430.84375 20.992188 C 437.632813 26.441406 442.996094 34.484375 444.78125 43.0625 C 443.886719 44.402344 442.191406 45.742188 440.761719 46.726563 C 439.378906 47.617188 435.808594 42.90625 435.386719 40.117188 C 434.910156 34.375 430.542969 35.8125 427.09375 35.878906 C 421.347656 34.851563 426.292969 32.460938 426.195313 30.640625 C 425.035156 26.976563 420.925781 32.339844 420.566406 28.230469 C 422.878906 20.519531 412.679688 14.621094 405.109375 14.734375 C 404.570313 14.289063 403.855469 13.484375 403.855469 12.589844 C 404.660156 12.503906 405.554688 12.234375 405.824219 11.519531 C 406.824219 9.164063 404.167969 4.847656 399.746094 5.710938 C 396.933594 6.132813 396.644531 5.285156 399.34375 4.429688 Z M 406.628906 55.480469 C 404.273438 53.519531 401.175781 51.550781 399.390625 50.121094 C 400.996094 49.226563 403.679688 51.640625 405.378906 49.941406 C 406.347656 48.574219 405.734375 46.8125 406.894531 46.457031 C 409.664063 49.316406 407.625 52.5625 406.628906 55.480469 Z M 394.652344 17.953125 C 396.53125 18.042969 398.585938 17.59375 400.460938 18.578125 C 405.109375 23.046875 401.980469 29.03125 403.230469 34.929688 C 403.589844 36.808594 406.449219 39.578125 403.679688 42.4375 C 401.78125 44.167969 400.921875 46.339844 397.601563 47.082031 C 396.710938 43.328125 399.65625 38.414063 396.796875 34.929688 C 395.457031 32.875 393.046875 30.730469 394.652344 28.050781 C 395.101563 26.441406 391.988281 18.738281 394.652344 17.953125 Z M 393.582031 43.6875 C 394.027344 46.367188 393.457031 49.554688 392.957031 51.640625 C 389.5625 53.246094 387.339844 57.894531 385.449219 60.394531 C 384.167969 61.019531 383.128906 60.753906 382.414063 59.949219 C 388.222656 56.019531 389.914063 47.140625 390.097656 41.722656 C 391.4375 40.917969 393.3125 42.257813 393.582031 43.6875 Z M 346.511719 87.828125 C 350.039063 80.203125 353.53125 80.488281 350.066406 62.09375 C 349.226563 57.191406 350.871094 52.175781 353.640625 48.152344 C 362.628906 36.609375 362.148438 42.671875 364.808594 41.722656 C 369.636719 39.488281 372.226563 33.320313 372.585938 28.050781 C 371.933594 21.964844 366.039063 22.894531 363.230469 24.417969 C 357.703125 27.414063 353.347656 33.335938 347.652344 29.121094 C 344.136719 26.542969 341.507813 23.140625 337.3125 22.269531 C 336.714844 22.148438 336.40625 21.292969 336.910156 20.929688 C 346.359375 14.152344 357.339844 13.003906 365.882813 13.21875 C 369.808594 13.789063 365.660156 19.054688 369.097656 20.722656 C 372.316406 22.242188 375.800781 23.492188 379.644531 22.6875 C 381.785156 22.6875 383.304688 23.226563 384.109375 25.28125 C 382.449219 35.910156 374.746094 38.308594 367.402344 45.652344 C 366.617188 46.183594 367.734375 48.574219 368.921875 48.152344 C 379.742188 40.5625 393.746094 28.53125 384.320313 20.816406 C 382.414063 19.054688 383.691406 17.621094 386.382813 19.246094 C 389.015625 20.84375 391.105469 23.84375 391.4375 27.425781 C 391.617188 30.105469 388.953125 31.503906 390.8125 35.109375 C 391.828125 37.40625 385.765625 37.566406 384.925781 41.511719 C 383.535156 48.152344 381.371094 55.847656 376.871094 57.804688 C 374.726563 58.609375 371.242188 56.910156 370.171875 59.324219 C 369.488281 62.9375 375.621094 60.394531 376.871094 60.664063 C 378.246094 65.238281 388.082031 64.300781 388.667969 62.539063 C 389.203125 61.019531 389.828125 59.054688 391.4375 58.253906 C 400.113281 57.355469 408.332031 54.214844 412.398438 68.683594 C 413.429688 72.363281 408.53125 73.050781 406.511719 69.070313 C 404.914063 65.925781 404.214844 61.511719 399.746094 61.289063 C 395.992188 60.753906 391.828125 61.019531 390.363281 64.683594 C 389.828125 65.9375 390.632813 68.257813 388.847656 68.347656 C 386.253906 68.078125 383.039063 67.722656 381.160156 69.421875 C 379.285156 72.191406 377.945313 74.335938 374.90625 75.855469 C 372.40625 76.480469 370.082031 74.691406 368.296875 75.675781 C 364.382813 77.773438 366.777344 81.605469 364.363281 82.734375 C 359.359375 84.253906 356.230469 78.714844 351.941406 82.289063 C 351.796875 87.78125 351.304688 93.449219 349.320313 98.398438 C 347.191406 103.707031 348.925781 106.179688 354.355469 105.191406 C 358.890625 104.367188 361.734375 105.773438 366.777344 111.863281 C 368.214844 114.472656 367.894531 117.984375 364.808594 117.851563 C 360.96875 117.582031 358.375 114.097656 354.535156 115.082031 C 352.121094 116.957031 353.640625 119.636719 354.089844 121.960938 C 351.675781 122.316406 349.261719 119.996094 347.207031 121.78125 C 345.214844 123.71875 344.796875 129.019531 341.667969 126.25 C 339.074219 124.285156 335.769531 121.066406 336.929688 117.046875 C 337.734375 114.953125 340.773438 117.3125 341.847656 115.527344 C 344.117188 111.121094 339.332031 113.996094 337.199219 112.757813 C 331.121094 107.84375 328.351563 99.53125 327.101563 91.757813 C 334.953125 96.753906 343.644531 94.023438 346.511719 87.828125 Z M 347.476563 38.949219 C 346.011719 42.613281 344.964844 46 344.070313 50 C 343.984375 50.390625 343.382813 50.585938 343.214844 50.222656 C 341.003906 45.492188 343.617188 34.40625 347.476563 38.949219 Z M 385.796875 77.253906 C 381.234375 78.585938 375.820313 80.703125 374.28125 87.023438 C 373.210938 85.949219 373.597656 83.5625 373.957031 82.402344 C 377.488281 77.179688 382.1875 75.554688 385.640625 76.125 C 386.351563 76.242188 386.417969 77.074219 385.796875 77.253906 Z M 386.75 82.21875 C 387.597656 82.21875 388.28125 82.902344 388.28125 83.75 C 388.28125 84.597656 387.597656 85.28125 386.75 85.28125 C 385.902344 85.28125 385.21875 84.597656 385.21875 83.75 C 385.21875 82.902344 385.902344 82.21875 386.75 82.21875 Z M 378.121094 87.46875 C 385.777344 97.78125 398.269531 91.070313 393.3125 82.464844 C 392.507813 80.050781 393.339844 79.976563 394.640625 82.117188 C 395.789063 84.015625 398.359375 91.164063 392.242188 93.457031 C 386.253906 95.78125 380.496094 93.570313 376.605469 88.898438 C 375.550781 87.667969 377.335938 86.40625 378.121094 87.46875 Z M 377.117188 95.574219 C 379.996094 96.640625 384.71875 97.28125 388.171875 97.960938 C 388.5625 98.035156 388.347656 98.628906 387.996094 98.660156 C 383.902344 99.019531 378.917969 98.578125 376.648438 96.21875 C 376.296875 95.851563 376.617188 95.386719 377.117188 95.574219 Z M 396.136719 107.292969 C 397.890625 105.21875 401.890625 102.480469 400.015625 106.503906 C 397.09375 111.601563 394.046875 109.027344 391.4375 113.5625 C 390.363281 114.8125 389.5625 116.867188 387.953125 117.671875 C 388.636719 113.515625 391.578125 108.367188 396.136719 107.292969 Z M 314.414063 32.339844 C 312.628906 35.644531 312.367188 39.640625 312.539063 43.6875 C 309.972656 40.597656 306.820313 37.34375 303.691406 34.929688 C 303.910156 32.300781 312.628906 30.195313 314.414063 32.339844 Z M 88.917969 54.746094 C 108.058594 51.3125 124.667969 62.671875 133.847656 73.921875 C 145.070313 87.679688 137.863281 104.550781 131.222656 113.523438 C 123.800781 123.554688 107.890625 127.605469 100.308594 128.007813 C 89.847656 128.5625 71.710938 135.980469 57.699219 143.40625 C 49.664063 123.453125 57.664063 104.296875 75.75 101.410156 C 83.039063 100.785156 98.007813 98.816406 96.300781 86.578125 C 89.351563 81.613281 82.746094 91.152344 79.859375 98.371094 C 68.601563 98.90625 57.519531 105.519531 53.679688 116.152344 C 47.652344 92.136719 56.59375 60.546875 88.917969 54.746094 Z M 191.105469 318.183594 C 186.636719 328.996094 179.847656 339.808594 172.699219 349.726563 C 167.871094 366.789063 164.769531 393.386719 165.371094 403.785156 C 165.996094 409.550781 169.152344 414.710938 173.21875 418.933594 C 177.734375 423.632813 184.539063 426.09375 185.363281 431.335938 C 185.890625 434.710938 182.34375 434.253906 179.886719 431.730469 C 176.507813 428.269531 173.570313 427.449219 174.84375 430.949219 C 176.738281 435.671875 174.828125 437.886719 167.003906 434.875 C 165.578125 434.324219 162.058594 430.40625 160.277344 432.46875 C 157.4375 437.035156 153.085938 436.949219 149.183594 435.292969 C 141.050781 431.839844 140.078125 425.515625 139.769531 418.289063 C 139.546875 413.050781 135.464844 375.234375 130.980469 362.578125 C 129.0625 357.164063 128.796875 355.566406 134.0625 348.65625 C 139.074219 342.074219 141.84375 327.726563 132.757813 307.640625 C 126.144531 295.128906 118.324219 283.75 113.234375 270.523438 C 123.519531 259.425781 133.4375 258.015625 143.265625 262.144531 C 153.394531 266.402344 188.066406 285.523438 198.433594 289.410156 C 193.429688 297.722656 195.125 309.246094 191.105469 318.183594 Z M 333.535156 319.433594 C 337.578125 315.203125 340.414063 310.855469 341.488281 305.496094 C 351.53125 306.769531 359.640625 300.355469 365.882813 291.824219 C 373.316406 291.90625 378.679688 290.160156 383.039063 284.765625 C 397.546875 288.46875 403.980469 288.925781 414.203125 281.589844 C 414.621094 281.289063 415.019531 281.789063 414.765625 282.3125 C 409.246094 293.675781 395.390625 290.832031 388.378906 299.648438 C 383.367188 305.957031 380.0625 310.613281 368.347656 313.683594 C 362.882813 315.113281 342.523438 319.511719 333.535156 319.433594 Z M 429.714844 262.726563 C 428.359375 268.210938 424.695313 279.578125 423.941406 289.164063 C 422.5625 302.941406 423.238281 330.925781 422.921875 345.839844 C 422.378906 371.4375 423.457031 401.714844 427.285156 413.691406 C 431.050781 425.488281 438.679688 431.667969 447.316406 434.507813 C 452.6875 436.273438 456.578125 440.539063 455.835938 446.183594 C 455.507813 448.667969 454.496094 448.699219 447.144531 444.113281 C 445.523438 443.105469 444 442.175781 442.460938 442.5625 C 440.9375 443.367188 443.179688 446.796875 443.441406 447.511719 C 445.632813 453.460938 441.476563 454.363281 433.566406 448.625 C 431.875 447.394531 428.476563 446.152344 428.339844 447.300781 C 428.160156 449.445313 431.019531 449.890625 431.558594 451.769531 C 432.265625 454.828125 429.796875 454.523438 426.625 453.949219 C 411.613281 451.242188 407.878906 447.179688 403.648438 439.5625 C 399.011719 431.210938 390.570313 424.15625 389.292969 414.238281 C 387.308594 401.210938 385.550781 388.179688 383.070313 375.382813 C 380.492188 362.074219 372.679688 332.117188 365.25 317.480469 C 378.65625 314.457031 385.445313 310.574219 392.6875 299.328125 C 399.121094 293.699219 416.558594 295.097656 418.691406 276.992188 C 422.695313 272.121094 425.667969 267.386719 428.875 262.246094 C 429.316406 261.539063 430.003906 261.5625 429.714844 262.726563 Z M 436.800781 210.847656 C 435.386719 218.828125 429.859375 219.355469 428.699219 220.785156 C 429.648438 225.058594 425.183594 225.878906 423.75 224.761719 C 422.203125 223.554688 420.910156 225.964844 422.421875 227.152344 C 425.257813 229.382813 427.472656 228.957031 430.664063 224.449219 C 431.097656 223.304688 432.808594 221.859375 434.773438 221.503906 C 432.09375 229.453125 430.921875 252.972656 428.074219 258.316406 C 420.804688 270.484375 415.085938 278.324219 408.742188 281.535156 C 402.253906 284.816406 395.019531 284.40625 380.894531 281.28125 C 378.902344 280.738281 379.195313 283.335938 379.464844 284.410156 C 373.476563 291.746094 365.5 287.121094 364.183594 289.230469 C 359.003906 297.363281 348.90625 303.714844 338.898438 301.921875 C 337.554688 301.566406 337.796875 302.375 338.164063 303.355469 C 340.636719 309.929688 326.195313 322.121094 323.226563 324.253906 C 318.070313 327.953125 314.988281 337.375 313.925781 340.535156 C 306.734375 361.960938 309.230469 389.574219 315.949219 425.824219 C 318.382813 438.957031 318.921875 454.433594 324.253906 460.78125 C 330.332031 468.011719 330.03125 464.835938 333.558594 475.203125 C 335.433594 480.710938 330.738281 483.316406 327.570313 477.839844 C 326.453125 475.90625 325.417969 474.058594 324.0625 472.140625 C 322.308594 470.335938 321.324219 472.957031 322.054688 474.390625 C 324.6875 479.582031 325.527344 483.980469 317.476563 483.46875 C 310.664063 483.039063 308.289063 478.828125 307.632813 474.117188 C 307 469.597656 304.105469 470.246094 304.730469 474.320313 C 306.523438 485.914063 298.902344 484.335938 293.851563 482.113281 C 289.699219 480.285156 285.714844 475.957031 284.878906 468.566406 C 284.523438 465.429688 279.394531 420.636719 278.535156 415.699219 C 276.269531 402.660156 268.550781 358.804688 267.8125 349.671875 C 266.570313 335.148438 261.785156 320.945313 260.621094 316.484375 C 259.191406 309.246094 251.953125 304.066406 251.417969 296.289063 C 234.90625 287.246094 230.613281 274.0625 226.542969 262.378906 C 226.109375 261.136719 224.25 261.722656 224.160156 263.242188 C 223.890625 276.71875 239.503906 294.875 248.382813 297.632813 C 249.066406 302.996094 253.394531 308.449219 255.503906 312.085938 C 255.847656 312.679688 255.363281 313.28125 254.808594 313.027344 C 240.402344 306.503906 195.425781 285.09375 184.117188 279.542969 C 174.027344 274.589844 145.214844 259.582031 140.410156 258.007813 C 123.742188 251.976563 107.28125 268.832031 96.300781 285.832031 C 92.769531 291.300781 85.789063 316.796875 75.304688 327.992188 C 55.472656 348.070313 52.3125 365.960938 46.476563 377.800781 C 37.789063 395.324219 35.730469 403.070313 33.753906 432.289063 C 34.320313 437.0625 38.960938 437.933594 43.765625 442.75 C 51.761719 450.765625 41.488281 460.324219 35.222656 451.9375 C 31.328125 446.722656 29.132813 447.597656 29.195313 450.515625 C 29.738281 458.097656 21.175781 455.703125 18.410156 451.3125 C 17.042969 449.148438 15.742188 443.96875 13.558594 446.851563 C 9.644531 452.277344 4.085938 447.792969 3.984375 438.542969 C 3.710938 413.210938 10.171875 389.839844 10.34375 364.289063 C 11.503906 357.230469 18.917969 353.210938 21.511719 346.953125 C 24.550781 330.15625 22.851563 312.730469 23.03125 295.039063 C 25.445313 284.175781 28.15625 275.394531 24.726563 265.015625 C 23.03125 252.148438 34.089844 215.796875 34.335938 195.675781 C 34.410156 191.703125 37.125 183.542969 40.1875 178.164063 C 46.261719 167.441406 53.855469 159.9375 55.554688 147.070313 C 56.269531 146.800781 56.449219 147.515625 57.074219 147.246094 C 69.671875 139.832031 83.34375 134.023438 98.714844 130.71875 C 101.035156 131.609375 103.449219 130.003906 106.21875 130.539063 C 109.613281 129.824219 113.097656 128.574219 116.671875 127.949219 C 125.964844 123.925781 133.5625 117.226563 137.9375 107.394531 C 139.726563 106.503906 139.546875 104.179688 140.710938 102.660156 C 152.949219 101.945313 163.226563 107.308594 175.46875 107.128906 C 186.28125 107.574219 198.074219 105.253906 207.8125 108.199219 C 216.304688 109.183594 223.273438 112.398438 231.851563 112.9375 C 238.105469 114.1875 244.003906 111.863281 249.898438 110.792969 C 243.914063 115.796875 239.894531 121.605469 232.476563 124.730469 C 227.027344 129.644531 221.664063 135.1875 218.984375 142.335938 C 219.789063 144.65625 223.003906 143.226563 224.96875 143.585938 C 224.34375 148.230469 227.917969 152.878906 223.898438 156.71875 C 221.933594 161.546875 218.269531 163.777344 215.765625 168.246094 C 216.035156 169.496094 216.929688 170.390625 218.359375 170.035156 C 219.253906 170.035156 219.789063 169.320313 220.683594 169.585938 C 221.136719 172.460938 219.9375 174.996094 218.648438 177.554688 C 214.84375 185.113281 212.941406 199.035156 220.683594 204.972656 C 217.238281 209.589844 211.796875 223.933594 221.394531 227.933594 C 223.183594 228.472656 225.597656 227.488281 227.113281 228.738281 C 227.917969 230.347656 227.46875 232.46875 227.375 234.464844 C 227.246094 237.261719 229.457031 238.03125 229.839844 235.078125 C 230.179688 232.46875 231.125 227.355469 227.382813 225.96875 C 225.507813 225.34375 223.09375 226.328125 221.574219 225.074219 C 215.511719 220.796875 222.472656 207.730469 224.34375 204.523438 C 224.078125 202.828125 222.378906 203.09375 221.128906 202.199219 C 214.214844 194.90625 219.707031 182.800781 222.269531 175.503906 C 223.039063 173.3125 223.515625 171.035156 223.273438 168.515625 C 222.824219 166.011719 217.105469 168.425781 220.683594 165.296875 C 224.433594 161.277344 226.847656 156.898438 228.453125 151.804688 C 228.1875 148.589844 227.027344 145.550781 228.007813 142.335938 C 226.847656 140.277344 221.257813 142.238281 222.46875 140.011719 C 229.46875 129.59375 247.273438 116.910156 256.144531 110.722656 C 257.585938 109.71875 258.03125 110.164063 256.925781 111.515625 C 254.941406 113.921875 252.824219 116.558594 252.222656 119.636719 C 253.5625 122.230469 256.871094 122.40625 256.960938 125.355469 C 247.898438 130.773438 244.617188 141.648438 245.816406 151.972656 C 246.046875 153.925781 247.730469 154.335938 247.671875 152.132813 C 247.460938 144.101563 248.046875 135.46875 254.367188 130.359375 C 256.066406 128.753906 258.746094 127.679688 259.550781 125 C 259.550781 121.246094 254.011719 121.066406 255.441406 117.492188 C 257.714844 113.503906 260.6875 110.257813 263.960938 107.386719 C 270.480469 101.660156 292.535156 91.414063 299.402344 66.652344 C 300.832031 62.539063 301.816406 58.253906 303.511719 54.230469 C 315.558594 65.808594 316.355469 79.210938 324.691406 89.167969 C 323.054688 93.730469 327.640625 109.003906 334.785156 114.632813 C 331.160156 120.3125 336.902344 125.992188 341.839844 129.46875 C 346.003906 132.394531 352.929688 137.578125 354.714844 140.636719 C 353.933594 151.710938 367.277344 163.550781 382.414063 155.007813 C 388.15625 161.066406 392.355469 156.863281 395.488281 154.984375 C 399.253906 152.726563 401.75 152.773438 406.976563 155.976563 C 412.164063 159.160156 420.128906 153.84375 424.65625 148.53125 C 425.882813 147.09375 426.730469 147.796875 427.445313 150.285156 C 432.65625 162.550781 437.980469 198.402344 436.800781 210.847656 Z M 448.117188 126.640625 C 445.101563 123.808594 441.191406 126.210938 439.421875 122.585938 C 436.792969 129.351563 427.363281 137.269531 420.835938 135.273438 C 413.21875 146.863281 404.28125 152.085938 380.179688 140.640625 C 378.425781 139.207031 379.222656 137.289063 381.296875 138.726563 C 394.40625 147.46875 413.640625 145.859375 418.632813 134.738281 C 419.910156 132.027344 422.621094 132.253906 424.855469 132.34375 C 430.691406 132.492188 437.390625 124.109375 438.171875 118.921875 C 441.929688 122.929688 445.316406 122.050781 448.445313 124.550781 C 449.03125 125.078125 449.3125 125.839844 449.304688 126.601563 C 449.304688 127 448.445313 126.949219 448.117188 126.640625 Z M 443.539063 72.503906 C 443.335938 71.941406 443.878906 71.550781 444.269531 71.925781 C 447.347656 74.855469 450.386719 75.261719 453.554688 72.957031 C 453.933594 72.679688 454.242188 73.109375 453.972656 73.578125 C 451.113281 78.519531 445.363281 77.480469 443.539063 72.503906 Z M 456.398438 98.191406 C 453.179688 94.082031 450.945313 87.023438 454.699219 82.734375 C 457.40625 85.273438 458.84375 95.484375 456.398438 98.191406 Z M 457.46875 66.203125 C 456.027344 64.886719 455.652344 64.210938 454.433594 63.164063 C 456.722656 61.476563 455.769531 59.695313 455.492188 58.628906 C 454.972656 56.609375 455.449219 55.109375 457.726563 58.785156 C 458.761719 60.535156 458.84375 64.371094 457.46875 66.203125 Z M 460.570313 30.484375 C 460.515625 30.960938 459.894531 31.019531 459.703125 30.589844 C 458.464844 27.796875 456.769531 25.1875 454.960938 22.605469 C 454.667969 22.183594 454.953125 21.652344 455.371094 21.851563 C 458.746094 23.476563 460.964844 27.140625 460.570313 30.484375 "/>
<path style=" stroke:none;fill-rule:nonzero;fill:rgb(0%,0%,0%);fill-opacity:1;" d="M 301.835938 277.066406 C 290.574219 280.015625 280.101563 279.046875 272.597656 270.824219 C 271.039063 268.609375 269.378906 266.269531 271.34375 265.644531 C 273.441406 264.816406 277.242188 265.105469 277.152344 262.425781 C 265.453125 254.570313 256.542969 242.488281 255.441406 221.054688 C 255.242188 218.988281 253.808594 219.304688 253.5625 221.054688 C 251.5625 236.910156 260.59375 253.386719 270.402344 260.472656 C 272.699219 262.132813 274.070313 262.324219 271.523438 263.050781 C 264.179688 264.460938 268.644531 268.929688 270.71875 272.074219 C 277.867188 280.476563 290.914063 282.976563 302.171875 279.761719 C 304.496094 279.136719 306.996094 279.851563 308.605469 281.101563 C 316.445313 288.207031 336.410156 294.59375 342.5625 288.785156 C 328.410156 287.484375 321.367188 285.910156 310.757813 279.484375 C 308.988281 278.414063 304.222656 276.398438 301.835938 277.066406 "/>
<path style=" stroke:none;fill-rule:nonzero;fill:rgb(0%,0%,0%);fill-opacity:1;" d="M 325.761719 158.238281 C 327.617188 159.375 326.617188 159.914063 325.316406 160.492188 C 316.261719 164.535156 322.242188 174.636719 330.050781 178.789063 C 327.550781 182.003906 327.761719 187.886719 330.542969 189.960938 C 330.925781 190.246094 331.550781 189.820313 331.445313 189.359375 C 330.683594 186.019531 331.242188 180.203125 333.269531 178.96875 C 333.804688 176.644531 330.320313 176.554688 328.800781 175.394531 C 323.664063 170.589844 321.699219 163.175781 328.800781 161.1875 C 330.714844 160.585938 330.433594 158.617188 329.675781 158.183594 C 318.984375 152.058594 312.871094 134.871094 315.964844 128.640625 C 317.144531 126.257813 314.796875 125.683594 313.960938 127.558594 C 309.734375 137.019531 315.339844 153.445313 325.761719 158.238281 "/>
</g>
</svg>
