<?xml version="1.0" encoding="UTF-8"?>
<svg xmlns="http://www.w3.org/2000/svg" xmlns:xlink="http://www.w3.org/1999/xlink" width="510pt" height="437pt" viewBox="0 0 510 437" version="1.1">
<g id="surface1">
<path style=" stroke:none;fill-rule:nonzero;fill:rgb(0%,0%,0%);fill-opacity:1;" d="M 507.953125 69.984375 C 506.5 67.078125 504.082031 64.855469 500.789063 63.5 C 499.726563 63.015625 491.597656 58.371094 489.855469 55.175781 C 485.886719 40.949219 473.691406 29.335938 457.820313 27.015625 C 455.5 27.402344 452.597656 26.335938 450.371094 27.015625 C 446.109375 26.046875 441.078125 29.335938 437.886719 25.175781 C 432.5625 21.109375 430.351563 15.179688 429.964844 8.40625 C 429.25 -1.128906 426.730469 -1.070313 424.546875 4.945313 C 423.707031 7.25 422.945313 9.957031 422.015625 11.722656 C 421.046875 14.53125 419.601563 16.867188 418.144531 19.5625 C 417.269531 20.144531 416.789063 23.53125 415.335938 21.691406 C 414.078125 19.078125 414.703125 14.648438 413.691406 12.882813 C 413.496094 11.433594 411.464844 9.789063 409.722656 10.753906 C 400.238281 13.464844 397.433594 21.207031 395.304688 30.015625 C 393.949219 35.238281 394.722656 41.628906 392.59375 46.273438 C 387.65625 48.304688 384.078125 52.757813 380.011719 56.046875 C 379.335938 56.433594 374.109375 62.628906 373.527344 64.46875 C 371.785156 70.5625 366.367188 76.179688 363.558594 82.273438 C 356.6875 91.566406 356.105469 104.628906 349.140625 113.632813 C 341.6875 121.082031 329.878906 126.308594 324.269531 135.308594 C 319.324219 148.632813 305.105469 152.148438 293.105469 156.214844 C 281.296875 160.953125 269.492188 164.050781 258.265625 169.859375 C 242.78125 177.117188 229.8125 190.859375 219.070313 203.054688 C 198.746094 223.570313 181.90625 252.605469 170.777344 280.476563 C 167.871094 290.058594 162.550781 298.769531 160.519531 308.734375 C 157.519531 322.671875 152.582031 336.222656 149.582031 350.351563 C 147.550781 356.253906 146.097656 363.320313 145.421875 370.285156 C 142.703125 393.769531 96.546875 401.730469 82.226563 404.257813 C 77 404.546875 52.011719 407.035156 44.941406 407.410156 C 29.652344 408.21875 32.179688 402.023438 38.578125 398.644531 C 45.253906 394.289063 87.355469 373.285156 99.453125 365.253906 C 105.984375 361.785156 104.296875 357.925781 96.160156 359.640625 C 90.546875 360.996094 84.839844 362.449219 79.222656 363.800781 C 72.585938 364.632813 44.378906 374.574219 30.617188 381.234375 C 28.335938 382.339844 21.285156 386.078125 19.496094 387.164063 C 13.886719 390.570313 9.128906 394.917969 5.09375 399.320313 C -0.644531 406.027344 -9.96875 431.066406 32.578125 435.613281 C 49.320313 438.128906 65.773438 437.0625 82.03125 434.644531 C 92.191406 432.417969 115.167969 428.832031 118.226563 427.484375 C 138.257813 421.871094 158.582031 416.644531 177.9375 409.578125 C 181.421875 408.03125 185.167969 408 188.875 407.933594 C 206.390625 407.546875 220.148438 412.925781 235.523438 423.707031 C 245.78125 429.128906 264.265625 431.871094 267.554688 431.839844 C 276.167969 432.128906 328.042969 428.835938 337.527344 428.160156 C 349.527344 425.742188 361.625 430.289063 373.238281 425.160156 C 377.367188 423.371094 379.246094 417.449219 376.335938 412.871094 C 374.152344 410.03125 373.019531 406.171875 357.464844 402.804688 C 350.292969 400.902344 342.335938 404.453125 339.847656 404.367188 C 332.988281 404.59375 307.9375 401.71875 318.882813 385.957031 C 329.300781 365.496094 344.085938 328.480469 345.65625 328.480469 C 350.882813 330.222656 354.847656 334.769531 357.464844 338.929688 C 367.527344 359.253906 367.914063 384.417969 381.367188 403.09375 C 386.785156 410.546875 395.980469 414.515625 405.367188 414.03125 C 408.269531 417.128906 411.65625 420.804688 414.851563 424.191406 C 418.707031 428.3125 430.433594 430.097656 436.722656 429.320313 C 442.53125 428.644531 448.433594 426.320313 453.175781 422.546875 C 453.757813 421.386719 459.992188 415.835938 449.210938 408.902344 C 446.015625 406.289063 440.109375 408.222656 437.109375 407.0625 C 429.851563 399.902344 428.886719 389.160156 423.660156 380.351563 C 418.238281 365.253906 409.433594 351.898438 405.078125 336.222656 C 404.207031 321.316406 394.820313 307.1875 399.949219 291.800781 C 407.304688 277.574219 420.269531 266.25 428.789063 252.992188 C 434.691406 240.507813 440.015625 229.476563 444.078125 215.636719 C 447.757813 207.988281 445.238281 198.214844 444.851563 189.890625 C 444.949219 184.183594 440.59375 179.246094 442.917969 173.828125 C 444.660156 172.085938 443.496094 168.117188 443.886719 166.375 C 442.628906 153.308594 438.464844 140.921875 438.078125 128.050781 C 438.464844 125.535156 441.851563 124.371094 444.078125 123.40625 C 454.820313 120.210938 465.65625 116.761719 476.105469 113.179688 C 476.347656 115.402344 476.320313 121.1875 477.652344 124.421875 C 478.203125 125.363281 479.078125 124.832031 478.851563 123.957031 C 478.027344 119.179688 477.890625 115.308594 478.226563 112.277344 C 481.03125 112.082031 485.398438 109.578125 486.667969 109.210938 C 486.472656 110.949219 486.757813 114.597656 487.050781 116.726563 C 487.394531 118.527344 488.183594 117.945313 488.167969 116.332031 C 487.859375 113.214844 487.917969 111 488.5 108.597656 C 489.433594 107.875 491.015625 107.242188 492.46875 106.953125 C 497.5 104.726563 500.695313 100.757813 500.597656 95.050781 C 504.953125 91.566406 506.722656 86.628906 506.238281 80.726563 C 507.304688 78.886719 508.242188 77.824219 509.113281 75.789063 C 509.113281 74.339844 510.46875 70.660156 507.953125 69.984375 Z M 286.660156 332.324219 C 284.257813 323.921875 279.460938 307.523438 274.257813 301.921875 C 269.058594 296.320313 258.9375 287.5625 244.65625 285.523438 C 238.667969 284.667969 243.058594 282.722656 246.65625 283.121094 C 251.496094 283.660156 269.488281 289.167969 277.859375 302.722656 C 286.257813 316.320313 287.859375 325.121094 289.058594 330.324219 C 290.257813 335.523438 289.058594 340.722656 286.660156 332.324219 Z M 369.9375 411.417969 C 370.605469 411.417969 373.4375 412.082031 374.769531 414.417969 C 376.035156 416.628906 374.4375 415.75 373.605469 414.75 C 372.769531 413.75 370.4375 412.582031 368.9375 412.417969 C 367.4375 412.25 368.9375 411.417969 369.9375 411.417969 Z M 367.835938 416 C 368.5 416 371.335938 416.667969 372.667969 419 C 373.933594 421.214844 372.332031 420.332031 371.5 419.332031 C 370.667969 418.332031 368.335938 417.167969 366.835938 417 C 365.335938 416.832031 366.835938 416 367.835938 416 Z M 326.785156 177.4375 C 322.621094 174.046875 316.621094 173.46875 311.492188 172.597656 C 307.332031 172.113281 303.363281 171.824219 301.039063 167.953125 C 300.363281 164.46875 302.878906 162.242188 304.039063 159.53125 C 307.167969 156.832031 308.6875 153.53125 312.460938 151.691406 C 313.515625 149.835938 314.484375 148.972656 316.332031 148.402344 C 317.171875 147.789063 316.851563 148.972656 316.136719 149.5625 C 314.007813 150.820313 312.074219 153.242188 310.816406 155.371094 C 308.203125 156.046875 307.039063 158.757813 305.6875 160.984375 C 304.816406 162.726563 304.332031 165.242188 305.203125 167.175781 C 308.203125 170.660156 313.523438 169.691406 317.492188 171.144531 C 323.6875 172.113281 330.269531 175.015625 332.589844 180.726563 C 333.410156 183.917969 333.355469 188.191406 332.34375 191.152344 C 332.15625 191.695313 331.796875 191.628906 331.824219 191.035156 C 332.441406 185.964844 330.882813 179.914063 326.785156 177.4375 Z M 345.210938 326.550781 C 341.773438 324.894531 338.371094 322.066406 335.6875 319.601563 C 329.398438 313.699219 329.589844 304.410156 329.878906 295.410156 C 330.847656 294.925781 329.785156 293.277344 330.753906 292.601563 C 332.414063 285.21875 337.066406 278.515625 338.671875 271.230469 C 338.746094 270.878906 339.027344 270.824219 339.082031 271.152344 C 340.789063 280.976563 333.222656 288.265625 331.914063 297.535156 C 331.039063 309.144531 335.84375 318.523438 345.28125 325.589844 C 347.253906 326.5625 346.628906 327.230469 345.210938 326.550781 Z M 446.421875 411.601563 C 447.085938 411.601563 449.921875 412.269531 451.253906 414.601563 C 452.519531 416.816406 450.921875 415.933594 450.085938 414.933594 C 449.253906 413.933594 446.921875 412.769531 445.421875 412.601563 C 443.921875 412.433594 445.421875 411.601563 446.421875 411.601563 Z M 444.316406 416.183594 C 444.980469 416.183594 447.816406 416.851563 449.148438 419.183594 C 450.414063 421.398438 448.816406 420.519531 447.980469 419.519531 C 447.148438 418.519531 444.816406 417.351563 443.316406 417.183594 C 441.816406 417.019531 443.316406 416.183594 444.316406 416.183594 Z M 439.761719 419.769531 C 440.429688 419.769531 443.261719 420.433594 444.597656 422.769531 C 445.863281 424.980469 444.261719 424.101563 443.429688 423.101563 C 442.597656 422.101563 440.261719 420.933594 438.761719 420.769531 C 437.261719 420.601563 438.761719 419.769531 439.761719 419.769531 Z M 436.722656 27.140625 C 437.5 27.417969 437.917969 28 436.722656 27.871094 C 431.371094 28.109375 427.820313 29.296875 423.949219 31.230469 C 422.832031 31.332031 422.207031 32.269531 420.851563 31.785156 C 424.917969 27.816406 431.402344 25.785156 436.722656 27.140625 Z M 353.105469 122.851563 C 352.332031 120.917969 351.464844 118.402344 352.332031 116.367188 C 352.105469 114.777344 352.597656 112.875 353.277344 111.441406 C 353.464844 111.046875 353.808594 111.125 353.78125 111.519531 C 353.488281 115.734375 354.769531 119.578125 356.980469 122.851563 C 359.980469 127.304688 365.882813 126.628906 369.753906 129.628906 C 374.59375 131.660156 373.527344 136.304688 374.6875 140.464844 C 373.710938 147.410156 373.058594 156.074219 377.554688 161.484375 C 378.332031 162.832031 377.203125 162.839844 376.527344 162.339844 C 372.269531 158.757813 369.367188 153.628906 370.914063 147.242188 C 372.171875 143.660156 373.527344 139.789063 371.6875 136.109375 C 370.042969 132.820313 366.960938 129.402344 362.59375 128.660156 C 359.589844 126.433594 354.808594 127.359375 353.105469 122.851563 Z M 403.199219 408.386719 C 404.511719 410.363281 403.976563 411.46875 402.039063 409.511719 C 393.914063 401.316406 389.664063 390.25 383.6875 381.15625 C 379.914063 375.058594 378.074219 368.765625 374.011719 362.28125 C 368.875 352.652344 361.894531 341.871094 355.5625 333.589844 C 355.214844 333.132813 355.394531 332.898438 355.855469 333.222656 C 356.386719 333.589844 357.53125 334.492188 357.945313 335.058594 C 368.355469 348.769531 379.140625 363.925781 385.625 379.703125 C 390.859375 389.347656 396.96875 398.988281 403.199219 408.386719 Z M 436.238281 130.496094 C 435.027344 132.414063 431.109375 131.367188 428.789063 131.175781 C 426.929688 130.328125 424.699219 129.117188 423.328125 127.660156 C 423.128906 127.449219 423.335938 127.140625 423.609375 127.214844 C 427.363281 128.230469 430.894531 130.429688 434.59375 128.175781 C 436.53125 127.402344 436.722656 129.335938 436.238281 130.496094 Z M 443.664063 39.804688 C 437.15625 42.265625 427.457031 42.886719 419.980469 44.488281 C 415.015625 44.488281 410.484375 48.484375 405.644531 47.71875 C 405.394531 47.679688 405.273438 47.378906 405.476563 47.296875 C 411.164063 44.886719 419.242188 45.320313 422.980469 39.429688 C 422.304688 37.6875 421.433594 39.71875 420.464844 39.429688 C 419.3125 39.015625 417.976563 39.785156 416.84375 39.984375 C 416.644531 40.015625 416.664063 39.617188 416.898438 39.386719 C 417.902344 38.378906 419.4375 37.023438 420.851563 36.234375 C 421.582031 35.832031 420.667969 35.332031 420.050781 35.433594 C 417.628906 35.722656 414.753906 36.042969 412.527344 35.269531 C 413.496094 32.753906 417.367188 31.976563 415.820313 28.589844 C 414.007813 23.878906 411.515625 20.351563 409.617188 15.949219 C 409.242188 15.078125 408.882813 14.808594 407.328125 15.316406 C 403.902344 16.4375 402.167969 20.722656 400.433594 23.945313 C 400.335938 26.558594 398.785156 26.65625 398.785156 28.976563 C 397.625 36.816406 396.464844 44.65625 396.269531 52.980469 C 394.335938 54.816406 396.175781 58.882813 394.625 60.816406 C 393.851563 63.238281 393.753906 66.238281 391.140625 67.785156 C 389.785156 68.058594 388.238281 66.40625 387.949219 65.464844 C 387.753906 60.140625 390.78125 56.753906 392.71875 52.203125 C 395.136719 44.558594 396.175781 37.203125 396.949219 28.785156 C 397.820313 25.398438 398.980469 21.527344 400.722656 19.300781 C 402.175781 16.394531 405.417969 13.054688 409 12.667969 C 412.25 12 413.398438 18.234375 413.882813 19.976563 C 415.53125 28.6875 420.753906 35.558594 428.789063 38.269531 C 433.21875 40.398438 439 39.703125 443.507813 39.273438 C 444.121094 39.214844 444.230469 39.589844 443.664063 39.804688 Z M 482.886719 63.058594 C 485.890625 65.421875 491.964844 65.726563 495.828125 67.617188 C 496.257813 67.828125 496.121094 68.257813 495.652344 68.207031 C 492.777344 67.886719 489.449219 66.890625 486.371094 66.140625 C 485.308594 64.980469 482.234375 66.605469 482.886719 63.058594 Z M 469.242188 54.527344 C 469.726563 58.785156 473.8125 62.949219 476 62.582031 C 479.25 62.199219 476.546875 56.835938 471.949219 52.980469 C 473.691406 52.59375 475.804688 53.105469 476.796875 53.960938 C 480.421875 57.085938 479.210938 61.496094 481.046875 64.109375 C 481.371094 64.777344 481.050781 65.207031 480.371094 65.269531 C 475.136719 65.101563 471.046875 64.996094 466.433594 63.625 C 466.046875 64.300781 465.175781 64.59375 464.597656 64.109375 C 466.433594 61.109375 465.175781 55.882813 469.242188 54.527344 Z M 474.253906 99.859375 C 472.378906 99.617188 473.277344 98.496094 474.480469 98.535156 C 475.378906 98.566406 476.464844 98.980469 477.679688 99.183594 C 477.644531 100.054688 477.320313 100.449219 476.855469 100.464844 C 476.082031 100.492188 475.222656 100.054688 474.253906 99.859375 Z M 477.484375 110.292969 C 477.429688 112.5625 476.464844 111.828125 476.421875 110.378906 C 476.335938 107.628906 479.558594 93.355469 481.085938 91.292969 C 482.011719 90.042969 482.996094 90.625 482.234375 91.773438 C 480.558594 94.289063 477.570313 106.792969 477.484375 110.292969 Z M 486.5 100.667969 C 484.355469 101.203125 482.683594 100.550781 480.675781 100.800781 C 480.6875 100.609375 480.710938 100.191406 480.722656 100 C 483.238281 100.046875 484.191406 99.816406 486.984375 99.671875 C 487.753906 99.847656 487.621094 100.542969 486.5 100.667969 Z M 488.265625 107.121094 C 488.210938 107.761719 487.332031 107.960938 487.347656 107.285156 C 487.410156 104.835938 487.84375 100.574219 488.792969 98.230469 C 488.996094 97.722656 489.878906 98.03125 489.765625 98.3125 C 488.726563 100.960938 488.484375 104.671875 488.265625 107.121094 Z M 489.179688 95.65625 C 489.871094 93.707031 491.308594 91.691406 492.855469 90.527344 C 492.566406 89.078125 491.597656 90.140625 490.824219 90.335938 C 489.222656 90.800781 486.320313 91.445313 483.371094 89.617188 C 481.589844 90.800781 479.335938 87.292969 476.722656 89.617188 C 469.386719 93.601563 465.214844 98.617188 460.996094 104.921875 C 460.339844 105.945313 459.867188 105.640625 460.511719 104.453125 C 461.113281 101.8125 465.898438 93.027344 478.917969 86.851563 C 479.5 87.820313 480.5625 86.851563 481.53125 87.046875 C 483.910156 89.796875 487.242188 89.5625 490.339844 89.175781 C 491.113281 88.496094 492.371094 86.851563 493.339844 87.335938 C 494.015625 88.59375 495.371094 89.175781 496.628906 89.367188 C 495.953125 90.625 494.238281 90.265625 493.269531 91.429688 C 491.550781 93.257813 491.058594 94.308594 490.179688 95.964844 C 489.972656 96.363281 489.089844 96.523438 489.179688 95.65625 Z M 498.210938 97.257813 C 496.144531 98.59375 493.175781 99.945313 490.390625 100.183594 C 490.320313 99.480469 490.671875 99.136719 491.191406 98.957031 C 494.292969 98.703125 496.84375 97.183594 498.214844 96.730469 C 498.640625 96.589844 498.652344 96.972656 498.210938 97.257813 Z M 505.191406 81.621094 C 505.183594 81.976563 504.699219 82.078125 504.539063 81.699219 C 503.769531 79.886719 503.804688 76.886719 501.398438 76.164063 C 499.546875 76.28125 498.46875 75.851563 497.5 74.753906 C 496.964844 74.347656 496.753906 73.398438 497.433594 72.722656 C 498.59375 71.550781 499.242188 70.6875 500.984375 71.753906 C 500.925781 72.324219 500.238281 72.835938 500.042969 73.394531 C 499.800781 74.101563 500.523438 75.214844 501.796875 75.191406 C 502.433594 75.179688 503.125 74.886719 503.789063 75.429688 C 505.03125 77.144531 505.476563 79.148438 505.191406 81.621094 Z M 500.597656 70.398438 C 500.695313 69.042969 501.6875 68.980469 502.863281 68.464844 C 504.136719 68.21875 505.050781 68.464844 505.628906 69.238281 C 504.664063 69.140625 502.339844 72.238281 500.597656 70.398438 "/>
</g>
</svg>
