<?xml version="1.0" encoding="UTF-8"?>
<svg xmlns="http://www.w3.org/2000/svg" xmlns:xlink="http://www.w3.org/1999/xlink" width="366pt" height="587pt" viewBox="0 0 366 587" version="1.1">
<g id="surface1">
<path style=" stroke:none;fill-rule:nonzero;fill:rgb(0%,0%,0%);fill-opacity:1;" d="M 361.054688 540.5625 C 360.691406 537.804688 360.8125 534.332031 360.214844 531.933594 C 361.171875 523.539063 360.691406 514.550781 360.8125 505.796875 C 364.289063 478.824219 356.855469 453.410156 350.382813 429.195313 C 342.230469 417.324219 340.914063 401.261719 335.15625 388.074219 C 321.972656 361.339844 309.382813 335.445313 292.601563 310.632813 C 289.605469 308.953125 289.964844 304.636719 287.085938 302.601563 C 284.210938 299.363281 283.847656 293.488281 279.894531 292.53125 C 275.9375 283.898438 268.863281 277.785156 262.628906 270.710938 C 252.558594 257.765625 237.695313 248.175781 222.949219 241.339844 C 218.992188 237.863281 212.761719 237.265625 209.402344 232.710938 C 202.691406 230.789063 198.375 226.117188 192.5 222.640625 C 189.382813 218.683594 186.386719 214.488281 183.507813 210.289063 C 182.910156 197.824219 179.671875 186.195313 175.835938 175.40625 C 172.71875 166.65625 165.644531 159.820313 164.808594 149.871094 C 165.644531 144.476563 161.570313 141.960938 162.289063 136.5625 C 159.414063 131.171875 157.496094 124.695313 155.695313 118.460938 C 152.339844 107.671875 152.460938 97.003906 152.21875 85.734375 C 145.027344 73.984375 148.984375 59.359375 148.742188 45.695313 C 147.902344 43.777344 149.222656 41.019531 147.546875 39.339844 C 147.066406 31.789063 144.667969 24.597656 141.550781 18.601563 C 139.992188 14.40625 137.113281 9.492188 136.636719 4.214844 C 135.675781 3.617188 136.453125 2.488281 136.035156 1.121094 C 133.636719 -1.277344 133.039063 4.335938 130.882813 4.816406 C 114.816406 13.925781 111.460938 33.585938 96.117188 44.496094 C 91.558594 42.699219 86.40625 39.578125 84.007813 35.023438 C 81.371094 29.511719 77.773438 23.636719 76.816406 17.164063 C 72.617188 12.96875 68.542969 7.332031 63.269531 4.214844 C 60.152344 4.097656 56.433594 -0.699219 54.398438 2.777344 C 53.796875 13.6875 54.996094 21.957031 57.875 32.507813 C 57.273438 38.980469 60.390625 46.175781 57.273438 51.6875 C 46.84375 58.160156 36.65625 64.035156 27.304688 71.828125 C 27.0625 73.867188 24.90625 76.023438 28.503906 76.742188 C 29.820313 79.019531 27.421875 80.699219 26.703125 82.257813 C 17.953125 90.050781 10.640625 98.921875 2.609375 107.3125 C 1.648438 108.394531 1.050781 109.589844 0.808594 111.03125 C 5.125 116.902344 -1.347656 122.417969 2.007813 128.292969 C 3.6875 132.609375 8.960938 135.484375 13.519531 136.324219 C 13.636719 140.878906 17.59375 142.917969 19.03125 146.394531 C 29.582031 153.109375 40.96875 149.511719 52.957031 148.433594 C 56.402344 151.640625 59.871094 154.652344 61.960938 158.257813 C 62.722656 159.574219 63.167969 161.035156 63.082031 162.753906 C 63.046875 163.484375 62.25 170.25 61.828125 174.925781 C 61.589844 180.082031 61.230469 185.234375 60.992188 190.390625 C 59.792969 202.859375 59.074219 215.207031 55.476563 226.953125 C 52.71875 244.9375 49.003906 263.519531 48.882813 283.058594 C 46.964844 296.125 53.558594 307.035156 59.792969 316.746094 C 74.535156 341.082031 86.40625 366.136719 89.523438 396.105469 C 88.203125 421.042969 87.964844 447.65625 89.761719 472.351563 C 89.523438 494.289063 93.238281 519.703125 86.644531 539.125 C 84.128906 547.996094 74.175781 549.074219 66.144531 550.632813 C 60.871094 553.152344 56.792969 558.304688 57.273438 564.179688 C 59.171875 575.382813 77.535156 573.410156 79.453125 573.652344 C 80.257813 579.542969 91.320313 587.199219 96.355469 586.597656 C 97.914063 586.476563 106.066406 586.71875 108.222656 586.359375 C 120.691406 588.277344 127.40625 576.648438 134.597656 569.574219 C 139.796875 572.207031 152.9375 570.292969 158.8125 569.574219 C 160.011719 568.976563 179.792969 570.894531 189.261719 567.898438 C 191.0625 567.535156 192.621094 566.21875 194.777344 566.699219 C 194.417969 572.332031 195.855469 577.726563 200.292969 580.84375 C 204.800781 583.890625 209.402344 584.621094 214.078125 584.320313 C 216.476563 583.960938 218.753906 581.082031 220.910156 582.523438 C 226.664063 585.640625 233.980469 584.429688 240.570313 582.882813 C 251.121094 577.367188 263.589844 576.167969 275.097656 572.8125 C 298.234375 563.339844 319.933594 578.085938 342.949219 576.769531 C 345.828125 576.769531 361.824219 575.980469 365.128906 564.179688 C 365.847656 555.429688 364.171875 547.996094 361.054688 540.5625 Z M 69.792969 570.242188 C 69.050781 570.941406 67.964844 569.664063 67.410156 569.113281 C 66.667969 567.601563 67.253906 565.769531 68.125 564.324219 C 68.679688 563.492188 69.257813 563.613281 70.222656 562.964844 C 68.902344 564.941406 68.136719 567.75 69.792969 570.242188 Z M 176.675781 468.394531 C 182.789063 456.046875 187.34375 442.5 193.097656 429.792969 C 195.019531 421.28125 199.453125 414.449219 201.371094 406.175781 C 202.691406 400.78125 203.527344 395.027344 204.007813 389.273438 C 206.40625 387.953125 204.128906 384.238281 204.847656 381.480469 C 202.449219 366.378906 200.890625 353.070313 202.808594 338.324219 C 204.367188 332.449219 204.726563 325.976563 209.164063 321.660156 C 209.042969 321.539063 208.707031 321.421875 208.707031 321.300781 C 213.023438 312.070313 209.164063 299.121094 209.761719 289.414063 C 208.324219 281.742188 204.246094 277.066406 202.808594 269.273438 C 197.773438 256.085938 191.898438 243.019531 189.023438 228.394531 C 187.371094 225.8125 186.285156 221.871094 185.566406 218.636719 C 185.453125 218.109375 185.710938 217.96875 185.945313 218.421875 C 191.390625 228.847656 193.773438 240.875 198.253906 252.25 C 203.890625 265.078125 209.164063 277.183594 212.640625 290.851563 C 212.519531 297.324219 214.078125 304.996094 213.480469 312.070313 C 213.238281 318.902344 211.320313 325.019531 206.527344 329.332031 C 202.691406 344.316406 202.691406 362.421875 206.527344 377.765625 C 207.964844 391.789063 207.246094 407.734375 200.53125 419.484375 C 194.417969 436.148438 186.027344 453.53125 176.914063 469.835938 C 175.957031 471.632813 176.316406 468.636719 176.675781 468.394531 Z M 147.722656 101.078125 C 148.355469 100.328125 148.589844 100.554688 148.089844 101.351563 C 146.035156 104.613281 142.402344 108.476563 139.511719 111.269531 C 132.679688 116.066406 124.765625 121.820313 121.648438 130.332031 C 119.371094 129.609375 121.289063 127.453125 121.171875 126.015625 C 126.25 115.300781 140.167969 110.636719 147.722656 101.078125 Z M 131.71875 91.730469 C 131.71875 93.285156 130.160156 93.285156 128.605469 93.167969 C 127.644531 91.847656 125.246094 92.449219 125.484375 90.289063 C 125.605469 89.210938 124.886719 87.53125 125.964844 87.171875 C 126.976563 74.8125 140.480469 70.578125 144.636719 59.339844 C 144.917969 58.660156 145.152344 58.59375 145 59.265625 C 143.101563 69.640625 129.238281 80.320313 131.71875 91.730469 Z M 115.65625 24.953125 C 119.851563 17.164063 127.644531 10.210938 134.359375 5.414063 C 134.117188 6.972656 134.597656 8.410156 135.195313 9.492188 C 136.636719 12.488281 138.3125 16.683594 139.273438 20.039063 C 142.148438 24.597656 142.867188 30.949219 144.1875 36.464844 C 147.785156 49.410156 141.230469 60.652344 134.359375 68.953125 C 134.957031 67.753906 134.484375 65.800781 136.394531 62.71875 C 135.796875 59.601563 134.238281 56.964844 131.480469 55.523438 C 127.765625 54.804688 122.128906 54.925781 120.210938 58.640625 C 118.773438 62.117188 117.335938 66.3125 113.976563 68.113281 C 111.339844 67.152344 106.90625 68.113281 106.425781 64.394531 C 106.304688 58.402344 104.269531 52.769531 98.152344 50.25 C 96.179688 50.441406 96.085938 49.316406 94.316406 49.171875 C 104.628906 44.015625 110.023438 33.828125 115.65625 24.953125 Z M 72.617188 150.976563 C 77.144531 154.925781 80.488281 159.988281 83.511719 165.398438 C 84.546875 167.019531 83.699219 167.222656 82.628906 165.511719 C 79.425781 160.644531 75.738281 155.453125 71.398438 150.875 C 71.96875 150.570313 72.15625 151.152344 72.617188 150.976563 Z M 33.5625 121.222656 C 33.207031 121.195313 33.425781 120.667969 33.917969 120.667969 C 56.050781 120.664063 70.519531 132.328125 75.878906 136.917969 C 76.453125 137.410156 76.253906 137.746094 75.601563 137.386719 C 67.253906 132.792969 57.8125 123.214844 33.5625 121.222656 Z M 77.652344 146.15625 C 102.226563 152.519531 115.011719 148.164063 115.65625 140.402344 C 116.496094 140.402344 117.335938 140.160156 117.933594 140.640625 C 116.496094 145.796875 111.941406 149.632813 106.785156 150.472656 C 105.347656 150.351563 103.90625 150.472656 102.710938 150.949219 C 97.675781 149.753906 90.941406 152.148438 86.625 149.148438 C 83.976563 147.851563 78.734375 150.351563 77.652344 146.15625 Z M 89.523438 43.417969 C 90.359375 43.296875 91.441406 43.535156 91.800781 44.257813 C 83.046875 44.617188 76.605469 42.574219 67.585938 45.09375 C 72.765625 39.953125 83.046875 41.019531 89.523438 43.417969 Z M 57.515625 3.976563 C 64.054688 5.207031 66.027344 11.648438 68.183594 16.921875 C 69.503906 24.714844 69.742188 34.1875 66.984375 41.378906 C 65.1875 43.535156 63.386719 45.695313 61.230469 46.894531 C 62.789063 41.378906 65.1875 36.464844 65.90625 30.46875 C 66.144531 24.714844 67.105469 17.402344 63.867188 12.007813 C 62.464844 7.921875 59.550781 6.253906 57.515625 3.976563 Z M 59.3125 79.019531 C 59.3125 81.179688 59.3125 82.378906 59.3125 84.535156 C 58.832031 85.734375 57.78125 85.824219 57.515625 84.535156 C 57.273438 83.335938 55.234375 77.464844 59.3125 79.019531 Z M 54.996094 79.382813 C 54.035156 80.410156 54.480469 82.019531 54.398438 83.335938 C 53.683594 94.585938 58.339844 97.160156 60.152344 95.203125 C 63.117188 90.742188 62.636719 85.800781 61.230469 80.21875 C 66.625 81.539063 68.304688 88.132813 73.9375 89.691406 C 71.179688 92.210938 70.101563 96.644531 66.746094 98.320313 C 63.839844 100.449219 58.59375 101.558594 55.234375 98.683594 C 52.117188 95.925781 49.003906 92.929688 47.445313 89.09375 C 49.722656 85.496094 51.785156 79.570313 54.996094 79.382813 Z M 45.765625 87.414063 C 45.792969 90.808594 42.328125 93.617188 39.652344 94.847656 C 41.484375 91.277344 43.726563 89.929688 45.765625 87.414063 Z M 32.820313 102.996094 C 34.496094 104.554688 36.292969 104.675781 38.574219 104.914063 C 34.273438 106.824219 31.621094 107.074219 30.78125 111.03125 C 30.179688 110.550781 29.703125 108.871094 29.582031 107.554688 C 29.703125 105.035156 31.5 104.796875 32.820313 102.996094 Z M 4.886719 124.578125 C 4.285156 123.257813 1.167969 118.941406 4.046875 120.261719 C 3.449219 121.820313 5.007813 122.898438 6.085938 123.617188 C 6.203125 124.695313 5.84375 126.136719 4.886719 124.578125 Z M 15.554688 115.585938 C 14.355469 120.140625 8.242188 117.984375 6.5625 122.179688 C 5.007813 120.980469 5.84375 118.941406 6.085938 117.023438 C 8.480469 116.304688 11.238281 117.382813 13.757813 116.183594 C 13.757813 111.03125 9.289063 108.488281 4.972656 106.929688 C 4.730469 105.011719 7.644531 105.515625 8.601563 106.113281 C 10.402344 106.714844 11.839844 108.03125 13.519531 108.992188 C 14.835938 111.148438 16.035156 113.066406 15.554688 115.585938 Z M 37.375 142.078125 C 32.578125 141.71875 29.101563 140.878906 24.1875 140.878906 C 21.550781 141 18.351563 140.070313 17.234375 138.363281 C 23.707031 138.363281 30.539063 140.28125 36.535156 141.238281 C 38.214844 140.640625 39.890625 140.402344 41.449219 139.441406 C 41.203125 141.195313 38.933594 141.839844 37.375 142.078125 Z M 28.597656 133.03125 C 26.679688 132.355469 24.785156 131.644531 22.988281 130.808594 C 22.628906 128.652344 24.785156 130.089844 25.625 128.890625 C 26.824219 128.292969 28.382813 127.574219 29.582031 127.933594 C 29.820313 129.011719 26.945313 129.253906 27.664063 131.171875 C 37.851563 133.207031 47.152344 138.609375 53.558594 146.992188 C 50.382813 146.628906 41.910156 134.949219 28.597656 133.03125 Z M 62.191406 156.226563 C 60.390625 153.707031 57.875 150.828125 55.476563 148.671875 C 56.316406 147.714844 57.875 147.355469 59.3125 147.234375 C 61.351563 149.871094 62.191406 153.347656 63.027344 156.226563 C 62.667969 156.226563 62.429688 156.226563 62.191406 156.226563 Z M 36.257813 129.050781 C 31.351563 128.175781 26.496094 127.585938 29.582031 121.339844 C 31.140625 121.101563 31.140625 122.777344 32.460938 122.777344 C 31.261719 123.976563 31.140625 125.054688 32.460938 126.253906 C 45.285156 128.292969 56.195313 135.964844 65.304688 144.117188 C 65.304688 144.355469 65.304688 144.824219 65.304688 145.066406 C 57.992188 140.988281 49.144531 130.867188 36.257813 129.050781 Z M 65.304688 160.179688 C 69.351563 164.621094 72.097656 170.03125 74.476563 175.753906 C 75.324219 177.484375 74.457031 177.585938 73.589844 175.765625 C 70.964844 170.5625 67.894531 164.984375 64.105469 159.941406 C 64.707031 159.703125 64.828125 160.300781 65.304688 160.179688 Z M 90.746094 580.464844 C 89.691406 581.191406 88.59375 579.40625 88.011719 578.621094 C 87.378906 576.613281 88.445313 574.460938 89.796875 572.835938 C 90.636719 571.914063 91.328125 572.171875 92.644531 571.550781 C 90.640625 573.746094 89.164063 577.074219 90.746094 580.464844 Z M 97.625 583.5625 C 96.574219 584.292969 95.472656 582.507813 94.894531 581.71875 C 94.257813 579.714844 95.324219 577.558594 96.675781 575.9375 C 97.515625 575.015625 98.210938 575.273438 99.523438 574.652344 C 97.519531 576.847656 96.042969 580.175781 97.625 583.5625 Z M 104.988281 559.027344 C 95.996094 560.945313 86.765625 563.699219 80.890625 570.535156 C 80.652344 564.539063 86.644531 564.058594 90 561.304688 C 95.398438 560.222656 101.03125 559.027344 105.585938 556.628906 C 108.941406 556.507813 106.066406 558.425781 104.988281 559.027344 Z M 106.425781 374.886719 C 99.351563 368.175781 94.199219 359.542969 87.484375 351.871094 C 81.707031 343.550781 73.488281 337.246094 69.488281 329.097656 C 69.339844 328.789063 69.605469 328.617188 69.824219 328.84375 C 86.101563 345.601563 100.898438 365.539063 117.695313 383.519531 C 122.96875 390.472656 128.125 397.1875 131.242188 405.339844 C 131 405.578125 130.664063 405.699219 130.425781 405.9375 C 124.550781 394.667969 115.175781 384.238281 106.425781 374.886719 Z M 118.292969 533.96875 C 115.535156 539.964844 115.394531 547.636719 111.796875 553.269531 C 111.796875 553.152344 111.460938 553.03125 111.339844 552.910156 C 113.019531 529.65625 120.570313 507.355469 121.410156 483.621094 C 122.128906 482.300781 122.371094 480.265625 122.25 478.464844 C 122.96875 476.785156 123.328125 475.109375 123.089844 473.191406 C 124.40625 469.59375 124.289063 465.398438 126.324219 462.039063 C 127.285156 448.136719 131.71875 436.507813 132.078125 422.359375 C 132.75 417.773438 131.855469 414.433594 132.511719 410.335938 C 132.558594 410.039063 132.792969 409.902344 132.851563 410.136719 C 136.078125 423.214844 140.507813 436.644531 135.796875 451.132813 C 131.601563 479.425781 125.605469 506.996094 118.292969 533.96875 Z M 145.867188 552.074219 C 143.46875 557.828125 141.671875 564.539063 137.476563 568.734375 C 136.996094 568.855469 136.515625 568.617188 136.035156 568.496094 C 141.671875 563.222656 142.507813 554.949219 146.105469 548.355469 C 147.664063 548.714844 145.746094 550.753906 145.867188 552.074219 Z M 143.855469 400.359375 C 143.730469 400.835938 143.472656 400.769531 143.472656 400.261719 C 143.433594 385.859375 144.453125 370.148438 138.433594 358.105469 C 129.800781 345.15625 121.769531 334.609375 115.414063 320.460938 C 115.414063 318.902344 113.378906 320.941406 112.539063 319.863281 C 108.941406 317.464844 104.148438 318.183594 100.671875 315.546875 C 98.992188 315.90625 97.074219 316.507813 95.277344 315.90625 C 94.917969 314.828125 93 314.945313 93.839844 313.867188 C 95.996094 314.226563 99.59375 313.148438 101.03125 313.507813 C 103.25 313.5 111.25 314 116.1875 319.144531 C 124.164063 333.578125 138.515625 345.101563 145.027344 360.980469 C 147.796875 373.796875 147.011719 387.929688 143.855469 400.359375 Z M 193.339844 545.480469 C 185.066406 544.039063 177.035156 545.359375 168.644531 543.679688 C 161.570313 543.679688 153.777344 543.320313 147.304688 545.480469 C 154.136719 524.140625 160.851563 504.121094 170.320313 484.21875 C 171.160156 484.820313 171.28125 486.378906 171.160156 487.578125 C 176.195313 505.199219 185.785156 519.945313 197.894531 533.609375 C 202.210938 536.726563 205.445313 540.921875 210.003906 542.839844 C 205.6875 543.679688 198.855469 544.640625 193.339844 545.480469 Z M 204.007813 579.164063 C 201.132813 577.847656 201.492188 574.488281 201.96875 571.972656 C 202.210938 571.015625 204.007813 569.574219 204.007813 571.613281 C 203.167969 574.128906 203.167969 576.886719 204.007813 579.164063 Z M 210.78125 581.5 C 207.90625 580.179688 208.265625 576.824219 208.742188 574.304688 C 208.984375 573.347656 210.78125 571.910156 210.78125 573.945313 C 209.941406 576.464844 209.941406 579.222656 210.78125 581.5 Z M 201.523438 562.628906 C 199.46875 568.824219 197.019531 566.273438 198.03125 564.84375 C 206.785156 553.574219 221.871094 552.792969 235.898438 551.472656 C 240.160156 551.578125 243.808594 550.035156 247.164063 551.832031 C 231.820313 555.667969 215.476563 551.203125 201.523438 562.628906 Z M 341.753906 550.875 C 338.34375 551.128906 333.359375 551.832031 329.402344 550.394531 C 321.613281 549.316406 314.058594 547.875 306.746094 546.078125 C 304.828125 544.039063 301.59375 544.039063 299.195313 542.601563 C 283.847656 535.648438 269.105469 524.5 261.789063 509.15625 C 257.953125 501.363281 254.238281 492.492188 250.882813 483.859375 C 245.847656 464.558594 245.605469 442.859375 250.042969 423.199219 C 251.839844 415.886719 254.71875 408.933594 255.199219 401.023438 C 256.035156 399.941406 256.035156 397.546875 256.398438 396.46875 C 254.957031 396.347656 256.757813 393.710938 254.957031 393.589844 C 251.121094 394.070313 248.84375 397.304688 246.328125 400.183594 C 235.417969 413.847656 226.546875 430.511719 223.550781 448.496094 C 220.910156 456.527344 222.589844 466.355469 222.109375 475.230469 C 225.46875 505.078125 238.773438 528.457031 261.550781 545.71875 C 269.105469 554.351563 279.292969 558.1875 289.722656 562.382813 C 295.238281 562.261719 298.355469 565.761719 303.511719 566.480469 C 304.097656 566.800781 303.628906 567.238281 302.910156 567.058594 C 298.113281 566.9375 294.160156 564.898438 289.484375 564.417969 C 281.8125 562.261719 273.539063 558.785156 266.707031 555.191406 C 265.386719 550.515625 253.296875 546.664063 247.40625 539.722656 C 227.746094 523.78125 220.910156 497.644531 216.355469 471.753906 C 215.878906 459.882813 216.597656 447.175781 221.269531 437.585938 C 229.0625 423.921875 233.980469 408.335938 245.96875 396.46875 C 248.605469 394.308594 252.441406 393.46875 255.4375 391.789063 C 256.757813 391.910156 257.476563 393.230469 257.476563 394.429688 C 257.234375 402.699219 253.519531 411.332031 252.921875 419.722656 C 252.082031 421.28125 252.082031 423.800781 251.722656 425.71875 C 251.003906 433.148438 251.003906 441.300781 250.640625 448.496094 C 251.242188 457.246094 251.242188 468.753906 254 477.507813 C 258.675781 495.96875 266.46875 513.109375 280.492188 526.179688 C 294.160156 534.929688 308.664063 545.117188 325.6875 545.117188 C 332.519531 545.957031 339.472656 547.15625 346.066406 547.515625 C 347.027344 549.554688 343.550781 550.515625 341.753906 550.875 "/>
</g>
</svg>
