<?xml version="1.0" encoding="UTF-8"?>
<svg xmlns="http://www.w3.org/2000/svg" xmlns:xlink="http://www.w3.org/1999/xlink" width="498pt" height="402pt" viewBox="0 0 498 402" version="1.1">
<g id="surface1">
<path style=" stroke:none;fill-rule:nonzero;fill:rgb(0%,0%,0%);fill-opacity:1;" d="M 489.1875 226.640625 C 484.101563 222.667969 480.472656 213.523438 479.144531 208.734375 C 478.824219 207.636719 477.898438 208.269531 477.039063 208.578125 C 475.636719 206.398438 463.246094 183.488281 460.210938 183.644531 C 457.316406 183.855469 454.988281 174.449219 450.15625 173.046875 C 447.738281 172.410156 442.929688 165.046875 439.722656 160.746094 C 438.054688 158.5 433.371094 152.523438 432 147.953125 C 433.613281 148.382813 435.660156 149.503906 437.335938 150.675781 C 439.421875 152.136719 440.742188 151.238281 440.261719 149.671875 C 437.496094 143.953125 427.957031 130.105469 422.871094 123.648438 C 422.664063 123.386719 422.691406 122.835938 422.894531 122.777344 C 423.503906 122.601563 423.964844 122.152344 423.742188 121.382813 C 422.289063 116.855469 417.855469 107.292969 415.714844 105.332031 C 414.9375 104.785156 415.269531 104.066406 416.105469 104.007813 C 417.726563 103.949219 419.347656 103.773438 420.824219 103.277344 C 422.386719 102.75 423.210938 102.863281 422.222656 100.996094 C 420.894531 98.480469 423.972656 96.8125 426.308594 96.839844 C 428.449219 96.863281 428.554688 96.160156 427.390625 95.183594 C 426.941406 94.808594 426.453125 94.359375 426.390625 93.722656 C 430.53125 93.917969 435.039063 92.238281 436.832031 88.5 C 437.753906 86.53125 425.496094 81.90625 419.238281 77.9375 C 418.101563 77.109375 418.300781 76.007813 419.800781 76.507813 C 422.40625 77.382813 425.734375 78.679688 426 76.5 C 426.195313 74.210938 427.152344 75.390625 428.222656 75.992188 C 429.507813 76.710938 431.007813 75.90625 429.453125 73.96875 C 428.75 73.089844 427.640625 72.148438 426.769531 71.371094 C 426.402344 71.046875 426.632813 70.714844 427.03125 70.824219 C 430.332031 71.710938 433.742188 72.546875 436.832031 73.695313 C 438.800781 74.195313 438.929688 73.085938 438.15625 71.667969 C 435.601563 67.472656 432.328125 64.4375 428.800781 61.398438 C 428.136719 60.824219 428.433594 60.464844 429.25 60.84375 C 432.660156 62.414063 436.738281 62.851563 440.261719 62.472656 C 438.648438 55.527344 422.839844 46.148438 421.003906 45.410156 C 417.160156 43.859375 412.738281 43.574219 408.78125 41.355469 C 407.558594 40.511719 409.734375 37.890625 407.398438 37.34375 C 403.65625 36.566406 397.871094 38.941406 395.53125 35.355469 C 391.976563 29.796875 384.625 33.796875 379.480469 33.332031 C 379.882813 31.824219 383.300781 30.835938 384.46875 29.355469 C 384.019531 26.871094 372.210938 27.777344 367.464844 28.351563 C 366.949219 28.414063 366.8125 27.953125 367.265625 27.675781 C 369.320313 26.425781 371.664063 25.742188 374.09375 25.148438 C 375.933594 24.699219 375.929688 23.164063 373.628906 23.070313 C 367.46875 22.816406 351.957031 26.578125 347.84375 31.226563 C 347.222656 31.929688 346.128906 32.238281 345.429688 32.160156 C 345.925781 30.300781 347.605469 29.625 348.863281 28.484375 C 349.714844 27.488281 349.089844 26.707031 348.390625 26.785156 C 341.082031 27.605469 330.367188 34.339844 329.6875 32.941406 C 323.863281 12.246094 291.894531 4.144531 283.324219 12.214844 C 281.609375 14.160156 285.117188 14.085938 285.351563 15.175781 C 283.949219 16.03125 276.796875 13.96875 275.296875 16.5 C 275.53125 19.070313 279.429688 20.238281 277.714844 23.199219 C 271.765625 21.191406 263.160156 20.601563 257.640625 27.035156 C 254.566406 30.570313 258.171875 29.882813 259.027344 30.121094 C 259.414063 30.230469 259.316406 30.6875 259.058594 30.789063 C 256.078125 31.945313 251.476563 34.675781 251.53125 35.746094 C 251.84375 36.683594 252.855469 36.835938 253.558594 37.226563 C 252.234375 37.773438 248.46875 42.863281 250.597656 42.683594 C 253.324219 42.292969 255.253906 41.261719 258.371094 41.726563 C 261.652344 42.5 257.722656 44.410156 255.699219 44.105469 C 253.265625 43.75 252.105469 44.980469 255.273438 47.355469 C 257.132813 48.222656 257.242188 50.230469 257.742188 52.007813 C 257.835938 52.339844 257.402344 52.605469 257.074219 52.441406 C 250.589844 49.199219 246.46875 50.359375 240.351563 53.984375 C 238.164063 55.28125 237.902344 56.609375 240.84375 57.367188 C 243.859375 58.140625 247.664063 60.339844 247.011719 60.992188 C 246.519531 61.371094 244.910156 60.136719 244.050781 60.835938 C 242.460938 64.128906 250.753906 70.34375 249.117188 72.214844 C 247.167969 73.304688 245.953125 72.246094 244.597656 71.824219 C 236.214844 69.667969 230.394531 73.511719 230.570313 75.953125 C 231.816406 77.746094 233.652344 77.183594 235.644531 77.605469 C 236.578125 77.953125 237.992188 79.042969 238.574219 80.125 C 238.769531 80.484375 238.257813 80.785156 237.964844 80.605469 C 229.113281 75.253906 217.3125 81.8125 211.714844 86.394531 C 209.21875 88.578125 213.816406 88.1875 213.585938 89.046875 C 211.089844 88.890625 209.140625 90.058594 206.804688 90.136719 C 206.335938 92.550781 210.234375 92.863281 210.777344 94.265625 C 208.828125 94.734375 207.234375 93.027344 205.167969 93.332031 C 202.597656 93.566406 200.226563 94.277344 197.574219 93.1875 C 197.171875 94.242188 198.546875 95.746094 199.324219 96.371094 C 194.4375 95.5625 191.476563 94.746094 189.007813 95.9375 C 187.28125 96.769531 186.304688 99.671875 186.144531 100.511719 C 185.886719 101.875 184.945313 101.585938 184.582031 100.820313 C 180.78125 92.835938 168.726563 69.933594 164.179688 70.5 C 160.714844 55.417969 157.992188 45.089844 152.425781 29.074219 C 148.601563 18.074219 132.90625 8.664063 119.410156 4.714844 C 108.316406 1.46875 101.488281 -2.417969 94.890625 4.871094 C 92.550781 7.449219 88.238281 14.300781 83.21875 14.628906 C 80.640625 10.765625 74.484375 10.34375 72.21875 13.113281 C 71.15625 14.410156 69.550781 14.503906 67.867188 14.449219 C 61.175781 14.234375 51.589844 16.632813 51.425781 26.785156 C 42.324219 28.328125 40.007813 39.179688 46.328125 51.644531 C 48.492188 55.917969 53.902344 63.496094 51.582031 66.214844 C 48.933594 69.253906 47.453125 72.136719 47.84375 76.34375 C 48.480469 80.742188 41.671875 76.867188 39.113281 78.214844 C 37.882813 79.300781 34.71875 81.355469 33.933594 81.46875 C 32.269531 81.710938 30.371094 81.03125 28.828125 82.109375 C 24.308594 84.992188 20.804688 89.667969 16.441406 92.628906 C 14.347656 93.972656 14.839844 94.664063 16.984375 94.109375 C 18.777344 93.953125 20.101563 94.734375 21.503906 95.433594 C 20.105469 97.390625 18.949219 99.875 23.375 100.65625 C 23.917969 103.148438 21.601563 103.496094 20.023438 104.785156 C 18.152344 106.34375 19.945313 109.304688 17.765625 110.164063 C 14.023438 108.136719 6.496094 114.304688 5.28125 115.503906 C 3.773438 116.984375 3.140625 118.535156 5.0625 119.125 C 8.046875 120.542969 8.613281 125.25 7.476563 126.292969 C 5.9375 127.359375 4.90625 128.785156 4.285156 130.96875 C 4.515625 131.359375 4.984375 131.671875 5.453125 131.902344 C 4.800781 134.585938 -0.230469 133.773438 0.542969 136.34375 C 2.101563 138.449219 4.75 138.992188 6.152344 141.410156 C 6.828125 142.78125 3.421875 143.105469 2.957031 145.148438 C 2.570313 148.109375 5.695313 146.921875 6.699219 149.824219 C 7.632813 152.785156 3.664063 153.089844 3.582031 155.824219 C 3.738281 157.148438 5.21875 158.398438 6.542969 159.019531 C 7.316406 159.421875 6.542969 160.578125 6.007813 161.164063 C 4.902344 162.367188 5.746094 164.726563 7.476563 166.8125 C 9.113281 169.226563 5.613281 172.246094 6.933594 173.746094 C 11.140625 177.800781 4.207031 180.136719 5.996094 184.8125 C 6.992188 187.261719 9.660156 187.070313 11.0625 189.253906 C 11.78125 190.589844 10.4375 193.382813 10.671875 195.253906 C 11.132813 197.410156 13.554688 198.292969 15.113281 199.226563 C 16.40625 200.007813 14.414063 201.800781 14.179688 203.125 C 13.890625 205.039063 14.378906 208.285156 16.050781 208.890625 C 20.648438 210.449219 16.441406 215.59375 19.632813 218.085938 C 21.835938 219.492188 22.441406 221.359375 22.984375 223.308594 C 23.550781 225.574219 26.878906 228.253906 27.113281 229.851563 C 27.425781 233.746094 30.621094 235.152344 32.335938 238.269531 C 33.777344 240.671875 36.78125 239.777344 37.554688 243.175781 C 38.570313 249.175781 48.621094 248.476563 46.59375 256.269531 C 45.953125 258.367188 51.230469 258.367188 51.269531 259.617188 C 51.269531 262.347656 53.921875 263.125 55.167969 265.230469 C 56.503906 267.945313 56.667969 272.164063 59.6875 272.320313 C 63.503906 272.632813 62.429688 279.875 65.296875 279.800781 C 67.867188 279.878906 68.882813 282.996094 70.285156 284.867188 C 71.359375 286.125 73.710938 285.964844 74.960938 288.371094 C 76.050781 290.164063 78.230469 291.097656 80.257813 291.175781 C 82.152344 291.238281 82.984375 295.773438 85.867188 294.917969 C 88.75 298.578125 94.207031 297.410156 95.53125 302.398438 C 95.871094 303.496094 97.332031 303.089844 98.570313 302.789063 C 101.390625 306.90625 100.644531 333.230469 100.597656 334.585938 C 100.363281 340.882813 91.289063 343.8125 87.03125 345.003906 C 82.582031 346.25 79.015625 348.132813 77.734375 352.511719 C 76.363281 357.1875 77.214844 364.59375 86.433594 363.167969 C 87.328125 363.03125 88.058594 363.378906 88.78125 363.777344 C 89.878906 364.390625 102.777344 365.59375 106.597656 364.890625 C 106.421875 369 104.765625 376.921875 103.878906 379.476563 C 102.148438 384.464844 96.210938 384.289063 90.503906 386.003906 C 87.824219 386.808594 85.953125 388.578125 84.328125 390.65625 C 80.058594 396.125 79.328125 398.816406 87.738281 399.488281 C 90.039063 401.671875 103.441406 402.226563 106.550781 401.417969 C 107.964844 401.050781 109.433594 400.40625 111.269531 400.582031 C 115.867188 400.96875 128.746094 395.460938 130.753906 393.101563 C 132.621094 390.449219 133.945313 388.734375 134.492188 385.464844 C 138.484375 386.042969 147.492188 386.472656 146.804688 380.398438 C 149.441406 379.875 152.894531 379.992188 155.6875 380.320313 C 160.285156 380.855469 163.515625 378.765625 159.503906 373.152344 C 161.617188 372.328125 172.441406 376.164063 172.441406 369.722656 C 172.574219 364.453125 176.066406 367.214844 176.570313 363.175781 C 179.609375 363.175781 182.023438 364.734375 185.140625 364.734375 C 189.214844 364.617188 193.519531 363.628906 189.226563 355.96875 C 183.746094 346.191406 176.964844 331.601563 176.570313 318.917969 C 180.121094 313.730469 184.648438 315.648438 185.988281 318.132813 C 187.09375 320.179688 189.140625 321.75 191.140625 322.65625 C 195.117188 324.214844 198.621094 321.023438 201.585938 318.683594 C 205.480469 315.644531 208.828125 321.488281 213.585938 320.007813 C 221.695313 316.789063 223.714844 320.785156 226.441406 321.488281 C 231.585938 322.65625 235.011719 319.386719 237.894531 316.113281 C 240.855469 317.046875 245.84375 317.671875 248.183594 315.488281 C 249.117188 314.617188 249.972656 315.800781 250.597656 316.425781 C 251.921875 317.515625 253.324219 317.671875 254.726563 316.65625 C 256.207031 315.488281 255.894531 312.996094 257.53125 311.980469 C 259.089844 313.539063 262.996094 315.183594 267.039063 314.554688 C 268.03125 315.996094 267.070313 318.855469 266.679688 319.839844 C 265.851563 321.929688 267.089844 323.207031 268.941406 321.617188 C 271.660156 319.289063 276.535156 312.542969 278.492188 309.332031 C 278.804688 310.582031 279.195313 311.828125 279.585938 313.074219 C 280.042969 314.617188 281.097656 314.292969 281.609375 313.464844 C 283.535156 310.394531 284.414063 305.125 286.285156 301.464844 C 288.25 302.640625 290.257813 302.714844 292.285156 298.65625 C 295.792969 304.503906 296.078125 294.847656 299.117188 297.652344 C 300.484375 298.695313 299.84375 295.152344 300.703125 294.371094 C 301.167969 294.917969 301.960938 297.75 302.3125 298.363281 C 303.914063 301.125 305.304688 300.898438 307.207031 298.257813 C 308.660156 296.234375 309.253906 293.648438 310.050781 291.019531 C 310.726563 288.316406 312.234375 290.941406 313.402344 291.800781 C 315.816406 293.28125 317.53125 290.632813 319.792969 290.476563 C 321.742188 292.191406 323.792969 289.699219 325.644531 290.035156 C 333.609375 291.660156 332.726563 302.085938 339.429688 302.242188 C 341.324219 305.929688 346.03125 311.613281 351.742188 314.789063 C 352.683594 320.855469 362.433594 328.953125 367.480469 332.710938 C 368.273438 333.367188 369.074219 333.933594 368.882813 334.898438 C 367.460938 341.957031 360.011719 343.359375 352.59375 345.984375 C 346.964844 347.972656 345.800781 352.164063 346.660156 357.707031 C 347.59375 363.710938 358.21875 362.21875 361.78125 362.261719 C 364.664063 362.292969 367.445313 362.699219 368.261719 363.175781 C 371.144531 364.269531 375.195313 362.632813 377.378906 363.957031 C 373.644531 364.734375 364.414063 368.324219 361.90625 370.832031 C 358.734375 373.996094 357.417969 377.59375 362.003906 381.507813 C 364.519531 383.652344 371.605469 382.433594 374.960938 382.84375 C 376.113281 382.980469 395.894531 383.246094 400.660156 382.46875 C 403.671875 381.980469 406.019531 380.996094 406.363281 378.917969 C 406.730469 376.613281 407.902344 375.167969 409.277344 373.890625 C 412.652344 370.742188 415.867188 367.628906 418.363281 362.632813 C 420.078125 364.035156 422.332031 363.804688 424.363281 364.734375 C 428.183594 366.21875 432.070313 372.488281 434.652344 372.371094 C 436.832031 372.496094 437.867188 374.46875 439.074219 376.210938 C 440.359375 378.070313 441.558594 377.542969 441.539063 376.648438 C 441.527344 376.042969 442.300781 369.453125 440.554688 362.738281 C 440.460938 362.390625 440.820313 362.019531 441.09375 362.160156 C 442.308594 362.773438 443.464844 363.085938 444.828125 363.3125 C 448.238281 363.875 451.179688 363.457031 449.550781 359.6875 C 449.074219 358.589844 448.339844 357.601563 448.441406 356.476563 C 448.632813 355.605469 448.304688 354.226563 449.921875 354.21875 C 452.496094 353.984375 454.910156 351.878906 456.46875 351.023438 C 455.300781 349.230469 453.824219 347.410156 452.027344 345.410156 C 455.367188 344.648438 459.261719 343.238281 455.601563 339.847656 C 452.921875 337.367188 451.878906 335.558594 452.417969 333.097656 C 454.304688 334.804688 458.652344 339.597656 461.535156 336.449219 C 466.433594 339.785156 471.429688 322.132813 471.429688 320.007813 C 476.066406 324.113281 479.878906 315.347656 477.976563 311.203125 C 476.261719 307.773438 478.832031 304.421875 478.753906 301.152344 C 478.742188 299.355469 482.339844 293.746094 481.015625 291.957031 C 480.367188 290.914063 481.664063 288.640625 482.105469 290.242188 C 482.417969 292.503906 485.144531 292.113281 486.78125 292.734375 C 487.714844 291.019531 488.648438 288.398438 487.714844 286.503906 C 486.566406 284.351563 487.003906 282.023438 487.460938 279.734375 C 487.746094 278.296875 486.234375 271.152344 485.847656 268.734375 C 485.074219 266.078125 487.671875 267.132813 488.496094 267.644531 C 489.273438 268.191406 488.417969 269.515625 489.195313 270.058594 C 489.765625 270.425781 490.867188 270.707031 490.855469 269.726563 C 491.027344 266 491.082031 262.75 490.519531 257.746094 C 492.105469 257.695313 492.507813 259 493.234375 260.066406 C 494.636719 262.128906 495.84375 261.5 495.796875 259.660156 C 495.769531 258.550781 494.015625 246.609375 493.84375 245.21875 C 493.71875 244.160156 493.8125 243.40625 494.742188 243.65625 C 495.472656 243.851563 496.253906 244.183594 496.9375 243.308594 C 500.910156 238.234375 492.589844 229.300781 489.1875 226.640625 Z M 189.660156 99.488281 C 191.164063 99.277344 190.519531 98.160156 189.972656 97.070313 C 193.714844 95.667969 204.230469 100.738281 204.390625 99.332031 C 204.621094 97.226563 201.660156 97.148438 201.039063 95.433594 C 203.769531 94.167969 210.5625 95.515625 212.011719 96.402344 C 213.398438 97.253906 214.378906 95.515625 213.792969 94.453125 C 212.851563 92.742188 210.230469 92.75 209.296875 91.070313 C 210.621094 90.058594 217.011719 91.695313 218.257813 90.914063 C 218.589844 88.539063 216.464844 88.066406 214.902344 87.265625 C 214.621094 87.121094 214.578125 86.535156 214.800781 86.414063 C 222.808594 81.945313 228.921875 78.109375 237.480469 82.371094 C 239.714844 83.480469 241.886719 83.046875 240.671875 81.183594 C 239.546875 79.464844 239.933594 75.945313 233.867188 75.460938 C 233.496094 75.433594 233.339844 75.007813 233.679688 74.816406 C 237.886719 72.417969 242.597656 70.941406 246.0625 75.40625 C 246.742188 76.289063 247.46875 77.046875 248.726563 77.046875 C 250.519531 75.878906 246.546875 74.785156 248.882813 74.085938 C 255.773438 71.839844 246.621094 65.589844 245.765625 62.316406 C 247.636719 61.382813 249.585938 64.8125 251.144531 63.796875 C 252.921875 61.425781 245.0625 58.238281 242.023438 55.539063 C 245.296875 51.953125 251.609375 52.1875 256.050781 53.902344 C 257.378906 54.683594 258.390625 56.007813 259.949219 56.707031 C 261.050781 57.230469 261.617188 56.582031 260.882813 55.773438 C 259.402344 54.058594 260.019531 48.097656 256.363281 46.03125 C 258.933594 46.109375 260.882813 44.316406 261.972656 42.449219 C 260.882813 39.5625 256.992188 40.265625 254.726563 40.8125 C 253.121094 41.269531 252.777344 40.207031 254.085938 39.054688 C 256.242188 37.160156 258.78125 36.070313 261.972656 35.746094 C 262.753906 35.558594 262.917969 34.988281 262.363281 34.65625 C 260.960938 33.796875 259.324219 34.5 257.921875 34.8125 C 256.992188 35.152344 256.050781 34.03125 257.144531 33.332031 C 258.128906 32.632813 261.839844 31.894531 264.023438 31.371094 C 265.394531 31.039063 265.835938 28.851563 264.140625 28.742188 C 262.636719 28.644531 260.453125 29.226563 259.558594 28.421875 C 265.726563 22.730469 269.332031 24.261719 279.972656 25.304688 C 282.316406 25.492188 281.421875 23.382813 280.675781 22.265625 C 279.894531 20.863281 278.648438 19.226563 277.871094 17.589844 C 284.578125 15.703125 289.554688 18.390625 291.925781 23.855469 C 292.371094 24.886719 294.09375 24.394531 293.789063 23.273438 C 292.578125 18.847656 290.921875 16.433594 285.972656 12.757813 C 291.320313 7.824219 324.042969 14.589844 328.164063 33.675781 C 328.660156 35.984375 329.519531 35.625 332.128906 34.523438 C 333.742188 33.839844 342.078125 29.277344 345.585938 29.589844 C 343.480469 31.226563 342.054688 33.285156 340.910156 35.355469 C 340.351563 36.449219 341.609375 36.835938 342.390625 36.292969 C 344.988281 34.273438 361.359375 25.878906 366.8125 25.410156 C 367.625 25.289063 368.394531 26.179688 367.136719 26.351563 C 363.667969 27.40625 362.007813 31.0625 366.644531 30.785156 C 371.710938 30.480469 379.34375 29.355469 380.414063 30.136719 C 378.859375 31.617188 374.847656 33.691406 377.378906 34.65625 C 380.609375 35.558594 392.21875 33.363281 393.820313 36.292969 C 396.546875 40.578125 401.921875 37.695313 406.210938 39.332031 C 405.800781 40.480469 404.308594 40.441406 403.105469 40.589844 C 399.902344 40.984375 400.789063 42.324219 403.578125 42.199219 C 409.542969 41.929688 434.292969 52.679688 436.519531 60.605469 C 434.308594 61.417969 432.054688 60.539063 430.050781 59.328125 C 427.652344 57.878906 424.855469 57.082031 421.714844 58.578125 C 421.03125 59.015625 421.195313 59.988281 422.105469 60.058594 C 427.09375 60.835938 431.84375 65.902344 434.804688 70.34375 C 431.367188 71.1875 428.199219 68.84375 424.851563 68.753906 C 422.496094 68.691406 421.816406 69.683594 423.6875 71.035156 C 424.574219 71.675781 425.601563 72.386719 425.84375 73.148438 C 424.210938 73.460938 422.496094 72.449219 421.324219 73.304688 C 420.464844 74.195313 423.550781 74.84375 423.429688 75.800781 C 421.792969 76.109375 416.40625 72.894531 415.558594 74.628906 C 413.039063 80.09375 430.828125 86.003906 433.871094 89.046875 C 431.359375 91.964844 426.582031 92.113281 422.328125 91.703125 C 420.160156 91.496094 418.945313 92.78125 421.199219 93.503906 C 422.164063 93.8125 423.484375 93.894531 424.132813 94.5 C 420.953125 96.433594 419.300781 99.253906 420.234375 101.355469 C 418.179688 102.4375 415.402344 102.480469 413.21875 103.003906 C 411.53125 103.40625 411.289063 104.691406 412.945313 105.808594 C 415.199219 107.328125 419.835938 115.429688 420.625 120.449219 C 420.628906 121.273438 419.492188 121.191406 418.910156 120.292969 C 417.351563 117.878906 408.777344 107.878906 406.210938 106.03125 C 404.261719 104.160156 403.402344 101.511719 401.144531 100.109375 C 399.902344 103.378906 389.078125 103.980469 387.117188 99.488281 C 386.292969 97.976563 384.34375 97.570313 382.988281 98.394531 C 380.414063 100.421875 380.027344 96.761719 377.921875 96.914063 C 376.472656 97.003906 374.261719 99.175781 372.15625 98.242188 C 373.015625 94.03125 377.453125 92.785156 380.027344 89.824219 C 386.050781 83.121094 394.832031 82.421875 395.144531 80.238281 C 394.210938 79.148438 392.492188 78.449219 390.703125 78.761719 C 383.53125 80.085938 377.921875 85.539063 373.480469 90.371094 C 372.105469 92.246094 370.414063 93.414063 368.804688 91.460938 C 366.78125 88.96875 366.390625 92.394531 364.519531 92.941406 C 363.242188 92.945313 363.117188 94.96875 361.871094 95.203125 C 360.320313 93.433594 364.285156 87.953125 365.609375 86.785156 C 368.609375 84.339844 372.699219 83.035156 375.59375 80.257813 C 377 78.90625 380.140625 77.160156 374.855469 77.847656 C 370.285156 78.441406 365.902344 80.488281 362.9375 83.628906 C 359.613281 87.148438 357.855469 92.378906 354 95.589844 C 352.910156 92.394531 355.167969 89.355469 354.9375 86.238281 C 354.476563 82.796875 359.53125 75.097656 365.222656 74.085938 C 368.191406 73.464844 378.207031 69.222656 375.742188 66.449219 C 372.3125 68.394531 368.882813 71.589844 364.519531 72.371094 C 362.753906 72.570313 362.023438 70.542969 360 71.667969 C 350.492188 78.945313 344.0625 86.460938 344.902344 95.613281 C 345.117188 97.972656 345.886719 100.394531 343.558594 102.292969 C 343.011719 103.226563 338.882813 102.449219 337.402344 102.527344 C 332.027344 102.449219 329.300781 97.148438 324.855469 95.746094 C 317.222656 93.175781 314.261719 84.527344 311.765625 77.433594 C 311.144531 76.03125 312.234375 74.007813 310.832031 72.992188 C 309.265625 72.246094 308.210938 74.683594 308.960938 77.277344 C 310.597656 82.34375 310.207031 88.1875 312.15625 93.175781 C 312.882813 94.753906 313.515625 96.707031 314.164063 98.453125 C 314.351563 98.949219 314.003906 99.324219 313.632813 99.089844 C 303.367188 92.039063 302.882813 88.265625 299.066406 86.394531 C 298.128906 85.851563 296.359375 86.695313 297.351563 87.722656 C 300 90.527344 303.339844 94.082031 303.738281 98.242188 C 303.429688 98.242188 302.570313 98.085938 302.183594 98.394531 C 301.558594 99.722656 302.648438 100.96875 302.414063 102.136719 C 295.714844 102.292969 290.648438 99.722656 287.222656 94.265625 C 285.84375 92.257813 285.0625 93.839844 285.792969 95.496094 C 287.417969 99.167969 290.492188 102.175781 292.675781 105.722656 C 293.109375 106.660156 292.675781 108.839844 290.261719 109.773438 C 286.859375 110.964844 285.351563 107.902344 283.167969 106.96875 C 280.246094 105.476563 280.621094 107.21875 281.585938 108.886719 C 283.152344 111.589844 286.808594 111.457031 289.714844 113.203125 C 291.082031 114.292969 286.210938 117.457031 282.195313 116.3125 C 280.257813 115.804688 268.050781 112.03125 263.53125 111.878906 C 263.375 112.578125 263.609375 113.277344 264.234375 113.746094 C 269.453125 114.136719 272.882813 118.890625 278.105469 119.902344 C 280.207031 120.460938 282.234375 119.746094 283.714844 120.992188 C 283.480469 125.4375 280.207031 129.253906 276.621094 131.125 C 275.222656 131.4375 273.894531 129.722656 272.648438 131.125 C 271.949219 131.902344 273.195313 132.527344 272.648438 133.148438 C 271.765625 133.933594 264.703125 130.933594 263.296875 131.515625 C 252.351563 136.355469 240.617188 132.28125 227.609375 130.578125 C 226.519531 129.800781 224.847656 128.820313 223.871094 129.410156 C 217.832031 133.375 206.417969 130.054688 204.289063 128.757813 C 199.671875 125.933594 190.636719 113.363281 186.386719 104.71875 C 186.8125 102.59375 188.253906 99.734375 189.660156 99.488281 Z M 285.195313 118.421875 C 289.132813 117.863281 293.109375 115.835938 290.648438 111.644531 C 293.761719 111.046875 292.753906 107.125 295.480469 108.683594 C 296.683594 109.179688 296.648438 107.328125 296.027344 106.671875 C 295.269531 105.871094 292.902344 102.929688 292.378906 102.367188 C 292.105469 102.074219 292.476563 101.726563 292.785156 101.875 C 295.507813 103.203125 299.027344 102.855469 301.480469 104.394531 C 302.851563 105.445313 305.285156 105.039063 305.222656 102.914063 C 305.144531 101.980469 304.050781 101.980469 304.441406 100.8125 C 305.027344 100.636719 305.390625 101.292969 305.933594 101.601563 C 307.335938 102.398438 308.183594 101.027344 307.109375 99.75 C 306.546875 99.078125 305.570313 98.355469 305.222656 97.460938 C 310.15625 97.679688 313.128906 102.019531 317.792969 103.558594 C 319.511719 104.125 320.933594 102.769531 319.164063 101.035156 C 315.074219 97.019531 312.355469 90.628906 311.953125 84.179688 C 311.921875 83.605469 312.195313 83.566406 312.355469 84.070313 C 314.808594 91.839844 320.632813 95.222656 326.335938 98.667969 C 328.421875 99.929688 332.640625 104.550781 343.324219 104.785156 C 337.714844 108.761719 320.507813 110.386719 318.574219 110.773438 C 311.648438 112.15625 305.214844 115.164063 300.15625 119.125 C 296.554688 121.617188 286.183594 129.21875 281.730469 130.550781 C 281.175781 130.71875 280.953125 130.238281 281.253906 129.945313 C 283.929688 127.351563 286.679688 122.625 285.195313 118.421875 Z M 282.636719 118.925781 C 279.964844 119.054688 277.367188 118.40625 275.566406 117.402344 C 275.175781 117.1875 275.316406 116.828125 275.742188 116.878906 C 278.003906 117.164063 280.671875 117.378906 282.710938 118.214844 C 283.125 118.386719 283.046875 118.90625 282.636719 118.925781 Z M 153.78125 62.871094 C 159.777344 69.34375 159.847656 78.699219 160.015625 87.261719 C 160.027344 87.808594 159.621094 88.011719 159.558594 87.410156 C 158.710938 79.082031 157.546875 70.269531 153.355469 63.371094 C 153.058594 62.882813 153.355469 62.410156 153.78125 62.871094 Z M 85.480469 16.890625 C 88.808594 18.839844 93.554688 10.460938 95.628906 7.554688 C 99.785156 1.722656 106.175781 2.71875 112.835938 4.714844 C 121.902344 7.429688 148.164063 16.640625 150.699219 31.851563 C 137.421875 21.40625 125.78125 15.921875 110.804688 13.890625 C 105.160156 13.125 95.40625 14.136719 89.289063 17.363281 C 87.152344 18.492188 84.535156 18.992188 84 18.371094 C 83.238281 17.105469 83.71875 15.480469 85.480469 16.890625 Z M 143.453125 118.1875 C 142.542969 115.511719 146.648438 109.304688 146.960938 105.722656 C 149.453125 109.539063 145.167969 114.449219 143.453125 118.1875 Z M 138.777344 129.253906 C 139.386719 133.105469 139.585938 137.132813 139.929688 141.078125 C 139.984375 141.683594 139.730469 142.003906 139.398438 141.199219 C 138.695313 139.5 137.714844 137.0625 137.453125 135.953125 C 136.769531 129.621094 137.050781 126.386719 140.75 121.449219 C 141.121094 120.953125 141.488281 121.183594 141.125 121.875 C 140.039063 123.957031 138.496094 126.371094 138.777344 129.253906 Z M 122.175781 143.59375 C 121.46875 138.566406 119.800781 137.703125 121.449219 133.289063 C 121.648438 132.746094 121.988281 133.027344 121.902344 133.582031 C 121.363281 137.101563 123.042969 140.503906 123.90625 144.03125 C 125.332031 149.871094 124.375 151.808594 121.246094 157.574219 C 121.019531 157.988281 120.597656 157.851563 120.820313 157.363281 C 122.664063 153.328125 122.84375 148.328125 122.175781 143.59375 Z M 110.425781 152.566406 C 107.488281 157.042969 105.449219 163.722656 105.660156 168.527344 C 100.488281 163.351563 105.546875 155.863281 109.125 151.078125 C 114.152344 144.347656 115.945313 140.425781 115.945313 135.476563 C 115.945313 134.847656 116.195313 134.796875 116.277344 135.4375 C 117.527344 144.839844 113.394531 148.039063 110.425781 152.566406 Z M 92.246094 79.003906 C 93.175781 84.882813 100.597656 90.578125 101.828125 96.574219 C 101.972656 97.285156 101.613281 97.390625 101.324219 96.753906 C 98.539063 90.589844 92.511719 87.929688 90.550781 81.382813 C 87.570313 71.4375 94.722656 66.941406 100.03125 59.085938 C 100.519531 58.359375 100.949219 58.574219 100.601563 59.359375 C 100.449219 59.703125 91.296875 73.019531 92.246094 79.003906 Z M 94.765625 33.289063 C 95.574219 35.167969 95.386719 37.667969 94.285156 38.160156 C 94.910156 29.183594 85.644531 27.683594 81.894531 31.226563 C 84.355469 25.074219 91.984375 26.839844 94.765625 33.289063 Z M 91.980469 38.632813 C 92.058594 40.269531 91.980469 42.292969 90.265625 43.460938 C 87.398438 44.957031 83.457031 40.796875 84.265625 39.019531 C 88.09375 41.863281 90.808594 38.785156 91.980469 38.632813 Z M 87.261719 33 C 87.261719 32.316406 87.816406 31.761719 88.5 31.761719 C 89.183594 31.761719 89.738281 32.316406 89.738281 33 C 89.738281 33.683594 89.183594 34.238281 88.5 34.238281 C 87.816406 34.238281 87.261719 33.683594 87.261719 33 Z M 79.988281 36.953125 C 80.148438 36.660156 80.625 36.84375 80.675781 37.183594 C 81.8125 45.082031 90.386719 49.011719 93.28125 42.253906 C 93.421875 41.929688 93.84375 41.980469 93.882813 42.371094 C 94.078125 44.441406 93.359375 46.53125 92.960938 47.902344 C 88.707031 47.164063 85.53125 47.769531 83.269531 46.238281 C 79.855469 43.933594 78.527344 39.636719 79.988281 36.953125 Z M 70.285156 16.890625 C 70.953125 20.703125 76.554688 24.03125 76.671875 25.851563 C 76.519531 29.355469 71.664063 36.617188 71.054688 37.601563 C 67.804688 42.816406 65.101563 48.15625 65.332031 54.796875 C 65.351563 55.347656 64.886719 55.492188 64.589844 55.007813 C 61.996094 50.839844 58.632813 47.117188 56.925781 42.664063 C 53.105469 32.703125 58.601563 22.375 66.386719 21.332031 C 67.300781 21.273438 67.167969 19.851563 66.542969 19.070313 C 62.789063 18.851563 58.988281 21.46875 56.492188 25.617188 C 56.023438 26.550781 55.476563 27.71875 54.078125 26.941406 C 54.078125 16.84375 66.570313 15.09375 70.285156 16.890625 Z M 95.386719 359.28125 C 96.035156 357.230469 94.652344 356.335938 93.347656 357.253906 C 92.101563 358.191406 90.777344 358.65625 90.308594 360.21875 C 89.597656 363.523438 82.164063 361.210938 87.113281 357.023438 C 87.542969 356.59375 88.421875 356.496094 89.082031 356.300781 C 90.503906 355.882813 89.648438 354.09375 88.984375 353.828125 C 86.820313 353.886719 84.886719 354.96875 83.6875 356.679688 C 81.0625 360.417969 78.300781 358.234375 79.792969 354.035156 C 81.199219 350.074219 85.210938 348.300781 87.910156 347.152344 C 93.574219 344.738281 97.148438 344.984375 101.960938 339.371094 C 104.109375 336.859375 103.839844 324.183594 103.171875 315.742188 C 103.121094 315.082031 103.582031 314.910156 103.839844 315.550781 C 107.839844 325.398438 108.058594 352.113281 106.984375 360.761719 C 104.742188 361.613281 94.316406 362.429688 95.386719 359.28125 Z M 364.285156 357.800781 C 363.652344 356.714844 364.707031 356.257813 365.164063 355.734375 C 366.40625 354.550781 363.160156 353.332031 361.480469 355.386719 C 361.0625 355.84375 360.792969 356.855469 360.40625 357.800781 C 359.296875 360.53125 355.550781 358.878906 355.820313 356.40625 C 356.015625 354.390625 359.671875 351.710938 357.351563 350.867188 C 354.363281 349.925781 351.824219 354.265625 351.753906 355.847656 C 351.605469 359.152344 348.859375 357.539063 349.09375 354.480469 C 349.464844 349.613281 350.144531 349.132813 355.113281 347.375 C 362.660156 344.707031 369.078125 343.722656 371.609375 335.515625 C 373.636719 336.605469 375.429688 338.554688 377.921875 337.773438 C 381.351563 341.75 385.480469 344.398438 389.378906 347.671875 C 388.808594 352.359375 384.265625 359.097656 382.441406 360.21875 C 378.605469 361.429688 367.257813 362.644531 364.285156 357.800781 Z M 414.234375 357.566406 C 413.6875 358.890625 413.6875 360.605469 413.84375 361.929688 C 413.890625 364.128906 411.351563 366.839844 409.015625 367.152344 C 406.34375 367.863281 406.746094 372.816406 404.726563 373.464844 C 403.070313 374.042969 402.714844 375.636719 402.144531 377.011719 C 400.882813 380.066406 390.191406 381.832031 382.710938 380.503906 C 380.273438 380.070313 378.824219 378.414063 382.285156 375.957031 C 384.183594 374.679688 380.9375 372.734375 378.859375 374.632813 C 376.863281 376.519531 375.21875 379.761719 372.980469 379.230469 C 370.363281 378.605469 371.886719 376.402344 372.902344 375.496094 C 373.644531 374.832031 373.554688 372.917969 372 372.917969 C 369.878906 372.988281 365.386719 375.089844 365.84375 377.277344 C 366.445313 380.164063 360.644531 379.425781 362.007813 375 C 363.496094 370.164063 372.089844 368.035156 373.863281 367.777344 C 383.027344 366.457031 388.101563 358.890625 391.949219 348.839844 C 393.230469 348.8125 393.9375 349.316406 394.441406 350.003906 C 396.953125 353.421875 401.089844 357.945313 405.039063 357.566406 C 407.234375 357.230469 408.234375 354.0625 410.496094 354.0625 C 412.347656 354.226563 415.324219 354.996094 414.234375 357.566406 Z M 495.730469 241.230469 C 495.652344 241.796875 494.878906 241.964844 494.554688 241.289063 C 494.101563 240.332031 488.886719 233.4375 486.390625 231.175781 C 485.144531 231.410156 484.210938 232.734375 485.144531 233.980469 C 486.078125 235.929688 491.550781 243.191406 491.800781 243.976563 C 492.773438 246.996094 493.394531 252.898438 493.53125 256.253906 C 493.558594 256.824219 493.257813 257.011719 492.765625 256.664063 C 489.933594 254.5625 488.851563 251.515625 488.496094 248.007813 C 488.320313 246.109375 486.375 247.085938 485.847656 248.007813 C 486.859375 250.578125 485.847656 254.710938 488.652344 256.578125 C 489.378906 257.148438 489.054688 263.644531 488.652344 265.230469 C 485.703125 263.320313 479.3125 265.589844 476.496094 263.125 C 473.902344 260.257813 472.5625 256.554688 471.015625 253.0625 C 470.191406 251.203125 469.460938 250.769531 468.125 252.773438 C 466.628906 255.023438 465.511719 259.359375 466.988281 260.554688 C 468.625 261.722656 469.714844 262.8125 471.273438 263.902344 C 471.195313 261.410156 468.390625 259.152344 469.402344 256.421875 C 469.734375 255.363281 470.09375 256.5625 470.339844 257.203125 C 473.175781 264.761719 476.855469 267.710938 483.976563 266.164063 C 483.023438 270.28125 486.195313 276.910156 485.160156 283.136719 C 485.097656 283.53125 484.707031 283.671875 484.617188 283.335938 C 484.269531 282.035156 483.953125 280.699219 482.652344 279.957031 C 481.097656 279.144531 479.636719 280.523438 480.078125 281.671875 C 480.703125 283.152344 480.449219 285.070313 479.691406 285.566406 C 478.054688 286.425781 478.664063 293.105469 478.910156 295.539063 C 477.898438 295.929688 476.714844 296.273438 476.496094 297.566406 C 474.625 308.789063 477.363281 316.644531 474.625 317.59375 C 472.519531 314.242188 473.457031 309.644531 472.363281 305.828125 C 472.054688 305.046875 470.730469 304.734375 470.183594 305.4375 C 469.09375 307.230469 470.628906 308.285156 470.496094 310.65625 C 469.714844 317.75 466.648438 325.167969 463.949219 330.140625 C 461.613281 330.140625 461.222656 326.632813 458.339844 327.097656 C 457.480469 329.75 459.898438 332.007813 459.898438 334.8125 C 455.457031 335.359375 454.363281 329.75 452.417969 327.332031 C 450.949219 325.179688 447.980469 324.925781 448.441406 328.269531 C 449.808594 332.578125 449.714844 337.882813 452.808594 341.128906 C 453.070313 341.402344 452.96875 341.933594 452.613281 341.902344 C 443.175781 341.042969 427.433594 317.082031 426.546875 313.851563 C 425.984375 312.667969 424.441406 312.667969 424.519531 314.007813 C 425.300781 319.464844 439.636719 337.464844 445.09375 340.582031 C 444.625 340.8125 443.300781 341.125 443.769531 342.292969 C 445.171875 346.113281 448.285156 348.292969 451.09375 351.023438 C 450.234375 352.96875 448.304688 351.773438 447.351563 353.515625 C 444.234375 352.113281 442.210938 350.320313 439.324219 348.839844 C 438.402344 348.464844 437.59375 349.03125 437.613281 349.929688 C 437.769531 352.890625 446.765625 356.984375 447.117188 360.996094 C 443.84375 361.695313 435.976563 354.605469 434.027344 352.734375 C 433.289063 352.035156 431.664063 352.601563 432.15625 353.28125 C 436.296875 361.074219 438.210938 362.851563 439.355469 372.066406 C 439.398438 372.417969 438.867188 372.546875 438.558594 372.253906 C 430.722656 364.769531 422.023438 359.613281 420.625 357.800781 C 421.113281 357.390625 422.65625 356.257813 421.324219 355.542969 C 419.144531 354.761719 416.882813 355.617188 415.171875 354.0625 C 411.347656 350.367188 406.300781 350.503906 404.726563 354.996094 C 402.3125 354.449219 400.429688 352.261719 398.339844 350.867188 C 398.414063 349.152344 394.734375 344.566406 393.273438 344.710938 C 390.859375 344.632813 389.863281 341.160156 388.054688 340.734375 C 383.53125 339.800781 380.414063 336.761719 378.703125 332.710938 C 378.257813 331.824219 377.203125 331.417969 376.675781 332.320313 C 375.898438 334.035156 371.359375 331.984375 370.128906 331.386719 C 365.222656 328.390625 352.796875 318.09375 355.714844 312.917969 C 356.097656 312.261719 355.53125 312.179688 354.9375 312.371094 C 349.683594 313.421875 345.226563 304.660156 342.464844 300.796875 C 341.746094 299.789063 339.945313 297.410156 337.949219 299.28125 C 335.453125 295.386719 332.570313 291.410156 329.144531 288.605469 C 328.128906 287.980469 327.585938 287.4375 326.183594 287.671875 C 324.855469 288.136719 323.765625 288.917969 322.441406 289.152344 C 319.714844 287.980469 324.390625 285.488281 322.441406 283.152344 C 320.882813 283.464844 321.195313 285.558594 318.855469 284.632813 C 311.558594 281.445313 303.03125 269.773438 300.546875 261.488281 C 299.386719 258.234375 297.011719 259.234375 297.136719 261.855469 C 297.308594 265.445313 296.929688 268.960938 295.636719 272.320313 C 291.398438 271.660156 292.890625 279.113281 292.164063 282.65625 C 292.097656 282.988281 291.621094 282.992188 291.476563 282.722656 C 289.289063 278.714844 285.714844 275.21875 286.519531 269.671875 C 286.699219 268.1875 284.425781 268.511719 284.414063 269.359375 C 284.183594 276.058594 283.402344 281.828125 280.519531 287.28125 C 278.492188 285.722656 278.726563 281.359375 275.453125 281.125 C 274.050781 279.644531 273.894531 277.617188 273.195313 275.902344 C 272.332031 274.355469 270.140625 274.195313 270.390625 275.902344 C 270.832031 281.066406 267.511719 287.183594 265.167969 290.632813 C 263.765625 290.007813 263.453125 287.359375 261.273438 287.828125 C 259.792969 289.464844 260.339844 292.113281 258.621094 293.4375 C 257.453125 294.292969 253.90625 285.3125 250.988281 285.253906 C 249.113281 285.253906 248.214844 289.914063 247.652344 291.96875 C 247.5625 292.304688 247.085938 292.289063 246.898438 291.867188 C 245.386719 288.460938 242.804688 278.308594 241 274.355469 C 240.171875 272.773438 239.25 272.300781 239.457031 274.964844 C 239.703125 282.320313 230.414063 294.339844 226.828125 297.722656 C 227.285156 298.464844 227.585938 298.890625 228 299.28125 C 231.863281 296.433594 237.175781 288.25 240.308594 280.425781 C 240.441406 280.085938 240.835938 280.144531 240.914063 280.507813 C 242.011719 285.472656 244.53125 289.675781 245.765625 294.761719 C 246.601563 296.910156 248.1875 296.773438 249.195313 294.160156 C 249.800781 292.605469 249.894531 290.570313 250.414063 288.941406 C 251.097656 286.800781 251.707031 287.332031 252.5625 288.785156 C 254.144531 291.480469 255.3125 294.65625 258.234375 295.851563 C 261.195313 296.007813 260.882813 292.503906 262.207031 290.863281 C 263.21875 291.644531 264.460938 294.078125 265.949219 292.890625 C 269.382813 289.238281 270.5625 285.132813 271.71875 280.371094 C 271.792969 280.054688 272.289063 279.910156 272.460938 280.203125 C 273.238281 281.519531 274.125 283.257813 275.84375 283.386719 C 277.636719 285.410156 277.402344 288.761719 280.363281 289.929688 C 284.726563 286.96875 283.871094 281.28125 285.585938 276.605469 C 287.765625 279.511719 288.378906 282.925781 290.933594 285.460938 C 291.996094 286.515625 293.535156 287.820313 294 285.253906 C 294.621094 281.59375 295.011719 278.242188 295.480469 274.734375 C 296.414063 274.113281 297.816406 276.605469 298.285156 274.347656 C 298.507813 272.183594 299.121094 268.953125 299.132813 265.996094 C 299.136719 265.414063 299.449219 265.394531 299.660156 265.925781 C 304.046875 276.949219 313.734375 285.765625 319.792969 286.734375 C 319.480469 288.371094 315.027344 291.078125 314.027344 290.085938 C 313.089844 288.839844 312.15625 286.96875 310.441406 286.734375 C 307.480469 289.695313 307.480469 294.371094 305.378906 297.957031 C 304.285156 298.578125 304.058594 297.660156 303.507813 297.019531 C 301.636719 294.449219 304.050781 289.464844 300.15625 289.152344 C 299.300781 290.242188 299.066406 291.878906 298.441406 293.28125 C 297.738281 293.203125 297.429688 292.347656 296.570313 292.734375 C 295.246094 294.136719 296.804688 296.242188 294.703125 297.566406 C 294.15625 296.554688 295.402344 293.4375 293.066406 293.28125 C 290.648438 293.28125 292.054688 300.085938 288 300.214844 C 287.6875 299.359375 287.296875 298.347656 286.128906 298.503906 C 284.265625 298.871094 282.3125 307.851563 280.910156 309.722656 C 279.738281 307.695313 281.144531 304.035156 278.261719 303.332031 C 277.089844 303.488281 274.769531 314.535156 269.6875 316.65625 C 269.609375 314.320313 269.453125 311.4375 266.882813 310.65625 C 265.480469 311.28125 263.972656 315.183594 256.753906 308.945313 C 253.949219 308.710938 255.351563 312.839844 254.183594 314.242188 C 251.878906 316.320313 250.753906 312.683594 248.726563 313.074219 C 247.007813 313.480469 244.410156 316.320313 238.832031 313.617188 C 237.335938 312.738281 237.007813 313.472656 236.722656 314.40625 C 235.535156 318.324219 228.359375 321.976563 222.9375 317.675781 C 221.503906 316.539063 219.246094 315.347656 217.714844 316.425781 C 215.140625 318.449219 211.558594 318.214844 208.519531 317.359375 C 206.726563 316.582031 204.699219 315.023438 202.363281 315.878906 C 201.183594 316.378906 199.996094 317.3125 198.789063 318.265625 C 192.808594 322.984375 190.589844 320.441406 187.546875 316.617188 C 185.171875 313.640625 182.527344 312.507813 179.839844 313.972656 C 179.113281 314.371094 178.550781 314.6875 178.597656 313.617188 C 179.980469 310.414063 181.8125 307.265625 182.898438 302.234375 C 182.976563 301.882813 183.40625 301.765625 183.503906 302.105469 C 184.195313 304.496094 183.574219 307.851563 186.234375 308.945313 C 190.203125 306.605469 190.015625 302.609375 190.5625 298.136719 C 190.617188 297.691406 191.058594 297.539063 191.191406 297.9375 C 191.894531 300.035156 192.308594 302.488281 193.613281 304.296875 C 194.914063 306.097656 195.476563 305.933594 196.519531 304.890625 C 198.410156 306.566406 200.605469 304.914063 201.558594 306.015625 C 203.5625 308.328125 209.96875 309.105469 212.28125 306.203125 C 213.632813 304.507813 214.257813 302.1875 215.367188 300.210938 C 215.515625 299.945313 215.976563 300.011719 215.996094 300.324219 C 216.359375 305.894531 218.671875 305.15625 219.769531 302.128906 C 220.101563 301.210938 220.339844 300.207031 220.828125 299.4375 C 224.011719 299.640625 228.175781 295.460938 227.285156 295.054688 C 225.570313 293.730469 223.308594 297.652344 221.503906 296.707031 C 220.304688 295.949219 218.882813 299.125 218.414063 299.4375 C 216.8125 297.328125 219.738281 294.839844 217.324219 293.671875 C 214.703125 292.78125 212.464844 303.273438 209.425781 305.691406 C 207.753906 306.621094 204.761719 306.117188 203.988281 304.273438 C 203.714844 303.625 203.257813 303.132813 202.363281 303.175781 C 201.117188 303.410156 200.101563 304.269531 198.621094 303.957031 C 196.367188 303.25 194.460938 302.515625 193.8125 300.558594 C 193.050781 298.273438 191.570313 291.484375 190.597656 290.085938 C 189.703125 288.804688 188.691406 289.195313 188.808594 290.828125 C 189.222656 296.734375 188.742188 303.332031 186.621094 305.980469 C 184.753906 301.230469 184.285156 295.539063 182.726563 290.476563 C 181.871094 288.417969 180.335938 289.660156 180.570313 291.171875 C 181.554688 297.449219 182.152344 301.792969 176.335938 314.398438 C 162.671875 301.929688 155.875 282.476563 160.285156 275.125 C 159.503906 274.578125 158.648438 274.578125 157.867188 275.125 C 153.117188 278.214844 157.179688 301.148438 173.921875 315.332031 C 173.003906 328.21875 178.429688 343.34375 186.46875 354.996094 C 187.707031 357.007813 188.203125 359.117188 185.253906 358.074219 C 183.144531 357.328125 181.851563 359.476563 183.347656 359.976563 C 184.851563 360.480469 184.730469 361.675781 183.371094 361.535156 C 182.992188 361.496094 180.328125 360.152344 179.316406 359.589844 C 177.609375 358.609375 177.285156 361.695313 174.855469 360.605469 C 172.441406 359.203125 171.351563 356.398438 168.464844 357.566406 C 167.863281 357.847656 170.019531 360.046875 171.050781 361.8125 C 171.84375 362.832031 171.039063 363.492188 170.007813 362.738281 C 168.9375 361.960938 167.925781 361.03125 166.984375 361.542969 C 166.210938 362.078125 167.433594 364.484375 168.234375 366.660156 C 169.886719 371.125 166.742188 370.59375 164.582031 369.394531 C 163.253906 368.65625 161.910156 367.894531 160.617188 368.414063 C 157.488281 369.675781 154.652344 369.929688 150.699219 366.21875 C 149.929688 365.425781 147.980469 365.914063 148.675781 367.152344 C 150.417969 369.519531 152.660156 371.636719 155.160156 372.90625 C 160.089844 375.519531 159.953125 377.839844 155.535156 377.554688 C 153.355469 377.414063 148.429688 377.46875 146.996094 377.269531 C 143.851563 376.828125 142.296875 372.785156 138.777344 373.699219 C 137.183594 374.066406 139.449219 376.363281 140.675781 378.496094 C 143.003906 382.539063 138.058594 384.886719 132.230469 380.007813 C 131.261719 378.902344 129.089844 373.109375 132.621094 373.699219 C 133.535156 373.871094 133.011719 372.449219 132.777344 371.984375 C 131.558594 370.195313 128.539063 372.359375 127.390625 374.777344 C 126.511719 376.621094 128.050781 378.734375 129.972656 380.398438 C 133.6875 386.308594 125.773438 395.4375 119.6875 394.425781 C 116.246094 396.675781 112.984375 396.996094 109.246094 397.773438 C 104.90625 401.984375 97.5 397.902344 100.441406 395.59375 C 101.765625 394.277344 102.121094 392.859375 100.496094 393.019531 C 97.484375 393.308594 96.558594 396.769531 94.175781 398.152344 C 91.746094 399.558594 91.136719 396.382813 92.621094 396.285156 C 94.648438 396.148438 93.433594 393.769531 91.585938 393.792969 C 90.796875 393.800781 87.347656 396.839844 85.246094 396.839844 C 80.609375 396.839844 87.410156 389.332031 90.351563 388.480469 C 94.695313 387.222656 104.878906 385.707031 105.941406 382.289063 C 108.429688 374.308594 110.617188 357.597656 110.550781 348.789063 C 110.460938 337.523438 108.371094 303.253906 103.246094 300.527344 C 103.167969 295.074219 99.347656 289.464844 102.464844 284.476563 C 103.015625 283.691406 101.996094 282.761719 100.984375 283.152344 C 96.195313 285.558594 100.597656 297.722656 100.597656 301.152344 C 99.691406 300.878906 98.714844 300.746094 97.636719 301.308594 C 96.699219 295.386719 89.6875 297.253906 87.113281 292.890625 C 83.535156 292.457031 82.441406 288.136719 78.386719 288.605469 C 77.203125 288.886719 75.816406 283.230469 72.386719 283.539063 C 71.140625 281.046875 69.191406 278.554688 66.386719 277.773438 C 64.59375 275.980469 65.191406 271.921875 62.648438 271.230469 C 57.660156 270.058594 58.828125 263.203125 54.230469 260.554688 C 53.53125 257.902344 51.308594 256.90625 49.011719 255.332031 C 49.167969 253.539063 48.855469 252.058594 47.84375 250.8125 C 50.257813 248.554688 50.960938 245.203125 51.582031 242.007813 C 50.726563 241.152344 49.6875 241.808594 49.167969 243.488281 C 48.777344 245.125 47.84375 246.605469 47.296875 248.164063 C 44.566406 247.84375 44.832031 235.757813 50.101563 231.566406 C 52.039063 230.199219 48.710938 226.792969 47.140625 227.4375 C 44.558594 228.523438 43.992188 231.800781 42.339844 233.65625 C 42.097656 233.929688 41.652344 233.582031 41.71875 233.1875 C 43.609375 222.113281 46.636719 213.101563 54.480469 208.085938 C 79.929688 191.8125 77.816406 180.355469 70.90625 179.203125 C 69.269531 179.039063 68.726563 180.992188 70.152344 181.378906 C 76.332031 183.035156 72.183594 194.015625 53.605469 206.246094 C 42.328125 213.671875 40.351563 224.683594 39.425781 237.722656 C 39.539063 238.804688 40.351563 239.210938 41.140625 238.503906 C 43.824219 236.398438 44.753906 232.742188 47.003906 230.359375 C 47.171875 230.183594 47.476563 230.636719 47.304688 230.839844 C 43.46875 235.394531 43.355469 241.632813 44.101563 247.230469 C 39.703125 246.191406 40.351563 240.023438 37.789063 238.8125 C 33.972656 237.332031 29.53125 232.96875 28.984375 228.371094 C 28.664063 225.816406 24.847656 223.871094 24.601563 219.757813 C 24.363281 218.027344 23.34375 216.960938 21.347656 216.996094 C 20.179688 213.722656 21.816406 209.046875 17.609375 207.253906 C 15.757813 206.5 17.140625 201.878906 17.917969 199.382813 C 16.441406 197.125 11.765625 197.203125 13.246094 192.996094 C 14.136719 191.238281 13.730469 189.941406 13.246094 188.710938 C 11.917969 186.136719 6.855469 185.980469 8.414063 181.773438 C 9.113281 179.359375 12.429688 175.898438 10.4375 174.527344 C 8.414063 173.125 10.4375 170.476563 10.285156 168.371094 C 9.996094 165.105469 6.261719 163.886719 7.867188 162.527344 C 8.800781 161.671875 9.191406 159.953125 8.957031 158.628906 C 8.726563 156.914063 4.90625 156.914063 6.699219 155.046875 C 8.335938 153.488281 9.894531 150.914063 8.957031 148.890625 C 8.128906 147.246094 4.71875 146.515625 6.152344 144.992188 C 7.324219 143.902344 9.425781 142.539063 8.570313 140.628906 C 7.476563 138.683594 5.609375 138.371094 4.285156 136.734375 C 6.828125 134.664063 8.957031 132.136719 7.867188 129.097656 C 11.6875 128.007813 10.320313 123.628906 9.894531 121.226563 C 9.503906 119.203125 5.53125 118.109375 8.570313 116.164063 C 11.917969 114.449219 13.730469 110.964844 19.089844 112.578125 C 21.503906 111.332031 20.804688 108.449219 21.660156 106.03125 C 23.140625 104.316406 25.945313 103.460938 25.632813 100.8125 C 25.246094 99.019531 22.59375 99.019531 22.59375 97.617188 C 23.609375 96.839844 25.476563 96.449219 24.855469 94.8125 C 23.84375 93.097656 19.011719 93.878906 20.960938 91.304688 C 26.074219 88.144531 29.71875 82.230469 33.503906 83.824219 C 34.914063 84.339844 39.191406 79.539063 42.464844 80.085938 C 44.246094 80.300781 46.695313 79.882813 46.925781 81.988281 C 46.613281 85.023438 44.683594 86.003906 42.460938 86.695313 C 36.84375 88.445313 33.101563 91.050781 30.34375 95.769531 C 27.695313 100.296875 28.75 105.242188 30.441406 104.394531 C 31.585938 103.335938 29.816406 101.746094 30.441406 100.265625 C 33.792969 92.707031 38.335938 89.746094 45.816406 87.566406 C 48.957031 86.613281 47.53125 81.953125 48.550781 80.933594 C 52.367188 77.035156 48.464844 71.121094 53.453125 67.695313 C 55.855469 66.078125 52.769531 58.121094 50.492188 53.902344 C 40.84375 35.914063 46.683594 30.769531 50.882813 29.046875 C 51.554688 40.429688 57.484375 50.136719 62.664063 56.945313 C 69.28125 65.648438 69.585938 74.90625 64.847656 87.527344 C 60.910156 98.007813 63.519531 101.917969 69.550781 111.414063 C 73.683594 117.914063 73.09375 141.675781 61.144531 144.21875 C 58.390625 144.808594 57.75 147.679688 61.535156 147.21875 C 65.90625 146.683594 69.621094 145.496094 73.667969 138.828125 C 73.863281 138.507813 74.214844 138.640625 74.175781 139.054688 C 73.582031 145.230469 71.765625 149.507813 66.769531 154.097656 C 65.054688 155.675781 67.152344 159.796875 69.191406 158.628906 C 71.582031 157.175781 72.210938 154.460938 73.273438 151.976563 C 75.824219 146.011719 81.175781 134.371094 89.765625 132.058594 C 89.53125 133.851563 76.839844 145.96875 78.699219 159.175781 C 78.988281 161.046875 81.097656 159.828125 81.503906 158.242188 C 83.777344 148.855469 88.523438 145.21875 94.59375 143.28125 C 98.886719 141.65625 100.3125 135.484375 100.242188 131.335938 C 100.207031 129.144531 102.078125 129 104.011719 131.152344 C 107.789063 135.363281 103.566406 146.269531 98.792969 153.574219 C 93.625 161.476563 92.707031 167.59375 91.789063 178.421875 C 91.222656 181.53125 96.820313 179.9375 97.585938 179.488281 C 99.859375 178.144531 101.636719 175.648438 104.335938 175.226563 C 104.882813 176.085938 105.347656 176.632813 106.441406 176.554688 C 106.753906 173.824219 108.699219 171.953125 110.179688 169.851563 C 111.039063 170.085938 112.285156 170.242188 113.140625 170.941406 C 112.828125 172.265625 113.453125 173.203125 114.621094 173.359375 C 118.363281 172.109375 121.277344 159.585938 125.6875 157.148438 C 126.933594 158.710938 123.957031 165.023438 128.882813 166.109375 C 133.089844 161.28125 134.101563 153.410156 137.296875 147.175781 C 138.789063 149.289063 139.242188 152.550781 140.828125 155.046875 C 142.296875 157.351563 143.9375 157.394531 143.910156 153.496094 C 143.847656 145.117188 142.707031 142.945313 145.867188 137.125 C 146.960938 138.683594 147.332031 143.917969 150 143.671875 C 152.648438 141.332031 150.855469 136.34375 152.960938 133.773438 C 162.691406 129.671875 162.878906 108.53125 163.808594 100.582031 C 164.753906 92.488281 165.65625 83.378906 164.527344 73.546875 C 164.492188 73.234375 164.832031 72.824219 165.097656 73.054688 C 169.035156 76.476563 180.617188 96.941406 184.050781 105.488281 C 186.660156 110.953125 190.996094 119.03125 196.777344 124.992188 C 204.101563 132.542969 210.003906 134.875 222.171875 132.3125 C 225.414063 131.234375 247.980469 138.15625 259.765625 134.625 C 261.878906 133.820313 264.109375 133.164063 266.105469 134.085938 C 268.109375 134.828125 275.148438 137.710938 278.421875 132.878906 C 279.433594 133.113281 284.683594 134.164063 285.96875 134.09375 C 287.015625 134.03125 287.917969 134.988281 287.066406 135.800781 C 284.023438 139.316406 280.878906 146.90625 286.128906 149.824219 C 289.324219 148.5 289.089844 144.449219 290.648438 142.34375 C 291.8125 141.078125 297.429688 138.683594 299.066406 138.605469 C 300.402344 140.386719 306.40625 143.316406 306.703125 138.605469 C 306.933594 135.878906 303.816406 134.085938 304.988281 131.515625 C 306.964844 130.816406 309.054688 131.8125 310.984375 132.429688 C 313.222656 133.140625 318.925781 130.34375 318.46875 126.839844 C 324.78125 125.664063 329.988281 127.746094 335.300781 130.578125 C 338.101563 129.578125 338.433594 127.421875 337.34375 124.972656 C 336.308594 122.644531 335.074219 120.949219 335.6875 119.355469 C 338.507813 120.90625 346.800781 123.105469 348.78125 119.746094 C 356.503906 119 365.144531 130.8125 366 131.28125 C 367.542969 131.824219 369.039063 130.734375 369.742188 129.644531 C 370.382813 125.15625 364.960938 119.671875 362.414063 117.488281 C 364.363281 114.683594 368.492188 117.644531 371.609375 117.488281 C 371.921875 118.65625 372.3125 119.746094 373.246094 120.683594 C 375.429688 122.671875 385.261719 108.769531 393.441406 114.121094 C 393.699219 114.289063 393.632813 114.765625 393.347656 114.816406 C 387.003906 115.90625 381.421875 119.402344 378.3125 121.929688 C 376.632813 123.546875 378.09375 125.332031 381.117188 124.96875 C 389.300781 124.265625 394.519531 132.058594 399.664063 135.644531 C 402.15625 137.589844 402.390625 140.863281 403.792969 143.4375 C 404.960938 146.242188 407.765625 148.65625 408.234375 151.851563 C 405.429688 151.304688 404.027344 148.5 401.144531 147.410156 C 400.011719 147.246094 398.710938 147.164063 398.882813 148.5 C 399.273438 150.683594 399.507813 152.863281 401.144531 154.5 C 402.28125 155.527344 404.726563 156.292969 403.171875 158.242188 C 406.832031 162.839844 408.859375 168.683594 411.039063 173.980469 C 410.261719 174.761719 408.3125 175.226563 409.402344 176.941406 C 412.265625 180.6875 419.378906 182.632813 421.558594 188.164063 C 422.574219 191.402344 424.929688 196.027344 427.171875 198.292969 C 428.339844 197.902344 429.429688 196.96875 429.585938 195.644531 C 429.941406 192.089844 431.402344 193.722656 433.160156 196.003906 C 434.464844 197.699219 443.769531 207.722656 445.480469 212.320313 C 445.871094 213.398438 446.574219 214.65625 447.898438 213.957031 C 449.117188 213.15625 448.226563 210.558594 449.769531 212.476563 C 455.144531 219.410156 456.859375 228.449219 459.117188 236.941406 C 460.007813 238.941406 462.828125 237.808594 461.515625 235.910156 C 460.988281 235.152344 460.285156 234.332031 460.988281 233.203125 C 462.914063 229.226563 459.183594 226.871094 457.792969 223.695313 C 454.058594 215.4375 449.703125 200.765625 446.320313 192.960938 C 446.035156 192.296875 446.378906 192.179688 446.820313 192.71875 C 451.25 198.148438 455.121094 204.453125 458.027344 210.761719 C 458.730469 212.242188 460.5625 211.125 460.054688 210.058594 C 458.261719 206.164063 456.9375 201.566406 455.378906 197.515625 C 449.988281 186.738281 458.371094 194.121094 461.246094 198.277344 C 463.550781 201.605469 464.460938 206.035156 466.988281 209.28125 C 469.429688 212.085938 473.066406 214.890625 476.339844 217.929688 C 477.507813 218.710938 477.851563 218.105469 478.910156 217.695313 C 479.980469 220.519531 483.925781 224.863281 486.929688 226.890625 C 490.066406 229.011719 496.476563 235.738281 495.730469 241.230469 "/>
<path style=" stroke:none;fill-rule:nonzero;fill:rgb(0%,0%,0%);fill-opacity:1;" d="M 39.113281 117.488281 C 36.125 117.0625 30.417969 106.21875 47.273438 99.445313 C 53.882813 96.789063 53.933594 94.445313 50.882813 89.046875 C 49.523438 87.261719 47.578125 90.183594 49.554688 90.527344 C 52.039063 90.851563 51.554688 95.949219 47.140625 97.460938 C 34.609375 101.109375 27.75 114.429688 38.882813 118.8125 C 41.140625 119.125 42.625 118.511719 43.945313 117.097656 C 42.386719 115.304688 41.246094 117.621094 39.113281 117.488281 "/>
<path style=" stroke:none;fill-rule:nonzero;fill:rgb(0%,0%,0%);fill-opacity:1;" d="M 46.59375 118.96875 C 46.480469 116.433594 49.378906 115.535156 50.179688 115.628906 C 51.527344 115.785156 51.285156 114.257813 50.308594 113.773438 C 49.15625 113.203125 44.167969 115.855469 44.335938 118.96875 C 44.492188 121.027344 47.628906 121.898438 49.402344 122.320313 C 51.796875 122.816406 50.480469 130.195313 50.355469 130.949219 C 50.15625 132.164063 51.632813 132.367188 52.113281 131.496094 C 53.316406 129.316406 53.664063 124.761719 52.75 123.253906 C 51.191406 120.992188 48.386719 120.992188 46.59375 118.96875 "/>
<path style=" stroke:none;fill-rule:nonzero;fill:rgb(0%,0%,0%);fill-opacity:1;" d="M 87.894531 231.566406 C 88.519531 230.785156 87.511719 229.390625 86.960938 230.398438 C 84.699219 233.980469 76.59375 231.136719 75.796875 230.640625 C 74.996094 230.144531 73.304688 229.550781 73.089844 230.398438 C 71.6875 235.539063 69.738281 241.074219 65.609375 244.421875 C 62.648438 242.320313 64.554688 233.296875 64.953125 232.515625 C 66.078125 230.328125 65.238281 228.644531 61.867188 230.785156 C 58.59375 234.292969 55.167969 238.113281 53.6875 242.941406 C 52.691406 245.410156 54.660156 245.347656 55.460938 243.679688 C 56.914063 240.640625 59.195313 235.621094 61.441406 233.519531 C 61.714844 233.265625 62.050781 233.507813 61.964844 233.839844 C 60.664063 238.886719 62.152344 247.230469 66.328125 245.867188 C 70.789063 244.324219 71.875 237.515625 74.648438 232.113281 C 78.257813 234.828125 85.5625 234.257813 87.894531 231.566406 "/>
<path style=" stroke:none;fill-rule:nonzero;fill:rgb(0%,0%,0%);fill-opacity:1;" d="M 100.511719 269.351563 C 98.777344 269.582031 97.128906 270.464844 95.53125 269.359375 C 93.355469 268.105469 93.761719 274.355469 92.886719 276.398438 C 90.976563 279.753906 85.238281 270.785156 83.765625 274.191406 C 82.207031 277.074219 82.59375 280.191406 80.960938 282.761719 C 80.492188 281.28125 78.988281 272.570313 77.0625 270.996094 C 76.308594 270.542969 74.929688 270.867188 75.582031 271.929688 C 77.84375 275.359375 78.746094 287.101563 81.347656 286.347656 C 84.425781 285.3125 82.851563 276.5625 85.636719 275.515625 C 87.503906 276.839844 89.375 279.175781 92.414063 278.863281 C 94.519531 278.085938 95.140625 275.203125 95.53125 272.863281 C 95.6875 270.214844 98.792969 270.867188 100.207031 270.839844 C 102.210938 270.839844 102.179688 269.132813 100.511719 269.351563 "/>
<path style=" stroke:none;fill-rule:nonzero;fill:rgb(0%,0%,0%);fill-opacity:1;" d="M 109.230469 219.253906 C 109.070313 220.042969 106.828125 224.601563 109.945313 224.632813 C 112.640625 224.375 115.496094 222.691406 116.941406 220.277344 C 117.492188 219.355469 117.234375 218.859375 116.476563 219.46875 C 114.5625 221.003906 113.542969 222.660156 109.945313 223.152344 C 110.648438 220.113281 110.960938 215.824219 111.113281 212.320313 C 111.050781 211.371094 109.265625 211.855469 109.402344 212.476563 C 109.789063 215.515625 97.636719 225.878906 93.347656 228.917969 C 92.542969 224.84375 91.082031 225.816406 91.089844 227.28125 C 91.042969 230.695313 89.863281 232.949219 89.726563 233.671875 C 89.40625 235.359375 90.871094 235.128906 91.582031 234.152344 C 94.445313 230.214844 105.664063 219.878906 107.964844 218.433594 C 109.28125 217.730469 109.414063 218.367188 109.230469 219.253906 "/>
<path style=" stroke:none;fill-rule:nonzero;fill:rgb(0%,0%,0%);fill-opacity:1;" d="M 117.113281 259.472656 C 115.675781 261.613281 110.101563 267.289063 107.53125 264.058594 C 105.894531 263.515625 104.882813 265.851563 106.984375 266.320313 C 110.730469 268.257813 117.054688 264.246094 118.730469 260.335938 C 119.394531 258.785156 118.273438 257.960938 117.113281 259.472656 "/>
<path style=" stroke:none;fill-rule:nonzero;fill:rgb(0%,0%,0%);fill-opacity:1;" d="M 138.230469 323.90625 C 138.324219 323.140625 137.269531 322.976563 136.90625 323.90625 C 134.179688 331.308594 138.777344 337.617188 142.675781 342.996094 C 139.445313 343.621094 135.039063 335.28125 132 335.515625 C 130.984375 342.058594 135.972656 346.425781 136.363281 352.582031 C 134.667969 353.523438 132.941406 351.617188 132.371094 350.226563 C 131.75 348.707031 129.257813 348.789063 128.582031 351.726563 C 127.523438 356.324219 129.300781 366.183594 129.796875 368.773438 C 130.226563 371.023438 132.347656 370.433594 131.914063 368.089844 C 131.113281 363.761719 129.6875 359.398438 130.363281 355.152344 C 130.855469 351.546875 134.425781 355.121094 137.480469 354.65625 C 138.347656 354.585938 138.894531 354.140625 138.386719 352.582031 C 136.894531 348.679688 137.101563 344.625 135.136719 341.445313 C 134.984375 341.203125 135.460938 340.765625 135.683594 340.945313 C 137.945313 342.792969 140.863281 345.171875 143.84375 344.320313 C 145.050781 343.882813 145.789063 342.699219 144.542969 341.671875 C 140.335938 337.152344 137.375 330.839844 138.230469 323.90625 "/>
<path style=" stroke:none;fill-rule:nonzero;fill:rgb(0%,0%,0%);fill-opacity:1;" d="M 201.816406 145.304688 C 202.933594 143.269531 205.125 138.886719 202.90625 137.515625 C 201.960938 136.9375 201.796875 137.910156 201.972656 138.992188 C 202.050781 141.019531 200.726563 143.59375 198.777344 144.371094 C 198.546875 146.242188 200.960938 145.929688 201.972656 147.019531 C 202.609375 148.058594 202.617188 149.535156 200.902344 149.925781 C 199.871094 149.964844 196.84375 148.464844 195.816406 149.980469 C 196.445313 152.613281 198.9375 154.742188 200.578125 157.175781 C 202.589844 160.167969 200.769531 162.964844 198.617188 162.707031 C 195.976563 162.386719 194 160.945313 191.6875 159.953125 C 191.082031 159.746094 190.109375 160.558594 190.597656 161.203125 C 195.453125 166.570313 197.019531 180.085938 194.648438 183.644531 C 192.949219 181.988281 191.878906 180.871094 190.011719 180.15625 C 187.03125 179.023438 186.132813 180.5 187.167969 181.617188 C 191.730469 186.207031 186.375 198.058594 182.492188 203.125 C 182.074219 196.839844 181.324219 190.421875 176.570313 187.617188 C 175.480469 187.304688 174.777344 187.304688 173.921875 188.007813 C 179.71875 200.332031 168.933594 218.476563 160.441406 228.214844 C 160.128906 228.996094 160.90625 229.773438 161.609375 229.851563 C 169.617188 219.753906 177.351563 210.628906 178.019531 193.273438 C 178.035156 192.949219 178.414063 192.914063 178.574219 193.234375 C 180.910156 197.894531 180.285156 203.714844 179.257813 208.308594 C 178.917969 209.835938 180.785156 211.246094 181.871094 209.53125 C 186.566406 202.117188 191.898438 192.4375 190.597656 182.554688 C 192.828125 182.855469 193.519531 185.160156 194.835938 186.515625 C 195.863281 187.570313 197.179688 187.390625 197.140625 186.449219 C 198.621094 176.582031 198.0625 171.027344 194.101563 162.914063 C 197.101563 163.777344 201.9375 166.476563 203.296875 161.980469 C 204.15625 157.148438 199.945313 155.125 198.234375 151.539063 C 200.25 151.523438 203.015625 152.765625 204 150.371094 C 204.777344 148.34375 203.6875 146.242188 201.816406 145.304688 "/>
<path style=" stroke:none;fill-rule:nonzero;fill:rgb(0%,0%,0%);fill-opacity:1;" d="M 376.054688 258.449219 C 377.601563 259.554688 378.101563 260.285156 379.167969 260.570313 C 379.507813 260.660156 379.960938 260.058594 379.6875 259.664063 C 378.539063 258.003906 376.941406 255.648438 375.589844 254.21875 C 374.210938 252.757813 372.296875 253.171875 373.53125 255.128906 C 374.949219 257.382813 373.691406 263.386719 368.261719 263.902344 C 366 263.96875 358.476563 257.46875 357.070313 255.445313 C 356.6875 253.339844 356.089844 251.164063 355.238281 249.710938 C 353.429688 246.617188 351.03125 249.421875 352.367188 251.945313 C 353.289063 253.6875 354.085938 255.371094 355.324219 256.96875 C 353.136719 264.824219 345.367188 266.355469 338.492188 256.421875 C 338.484375 254.226563 338.648438 251.0625 336.78125 251.359375 C 331.910156 252.199219 335.644531 256.175781 337.167969 257.359375 C 338.332031 261.6875 330.882813 275.667969 324.078125 279.019531 C 321.53125 280.253906 322.777344 281.738281 324.769531 280.691406 C 329.253906 278.328125 338.070313 270.417969 338.339844 260.007813 C 348.703125 268.769531 354.882813 266.402344 355.871094 258.839844 C 356.105469 257.203125 357.152344 258.609375 357.742188 259.074219 C 366.890625 265.980469 371.371094 270.621094 376.054688 258.449219 "/>
<path style=" stroke:none;fill-rule:nonzero;fill:rgb(0%,0%,0%);fill-opacity:1;" d="M 415.324219 331.773438 C 418.238281 334.332031 420.953125 339.734375 425.421875 340.378906 C 425.859375 340.441406 426.554688 339.617188 425.609375 339.488281 C 420.46875 337.074219 417.820313 332.085938 414.78125 327.488281 C 414.054688 326.46875 412.914063 326.710938 412.910156 327.644531 C 412 334.308594 417.082031 342.050781 422.589844 347.476563 C 422.789063 347.671875 422.679688 348.0625 422.414063 348.039063 C 414.386719 347.378906 403.925781 333.296875 397.402344 322.269531 C 396.601563 321.027344 397.015625 319.308594 395.53125 319.074219 C 393.976563 319.230469 395.789063 321.109375 394.988281 321.722656 C 390.78125 320.632813 387.742188 315.878906 386.027344 311.980469 C 385.074219 309.746094 385.238281 305.6875 383.222656 306.761719 C 381.148438 308.355469 383.371094 309.828125 383.832031 312.160156 C 384.589844 321.921875 368.351563 315.828125 364.488281 299.285156 C 363.476563 294.953125 360.917969 296.335938 362.394531 300.035156 C 364.703125 305.820313 366.972656 311.675781 372.15625 315.722656 C 375.09375 317.699219 381.664063 322.246094 385.792969 315.332031 C 388.210938 318.761719 391.402344 323.28125 395.921875 322.96875 C 404.652344 336.753906 411.210938 349.113281 425.011719 349.519531 C 426.605469 349.566406 426.472656 348.414063 424.992188 346.9375 C 420.703125 342.664063 415.46875 338.511719 415.324219 331.773438 "/>
<path style=" stroke:none;fill-rule:nonzero;fill:rgb(0%,0%,0%);fill-opacity:1;" d="M 423.585938 331.617188 C 427.480469 333.332031 430.441406 334.890625 434.027344 336.996094 C 434.832031 337.425781 435.742188 336.683594 434.425781 335.964844 C 431.542969 334.214844 428.492188 331.375 424.910156 330.292969 C 423.953125 330.039063 422.738281 331.09375 423.585938 331.617188 "/>
<path style=" stroke:none;fill-rule:nonzero;fill:rgb(0%,0%,0%);fill-opacity:1;" d="M 463.015625 271.929688 C 463.921875 275.976563 467.722656 287.046875 468.675781 294 C 469.21875 297.980469 466.84375 299.195313 463.734375 296.1875 C 458.628906 291.246094 456.128906 283.921875 454.054688 277.152344 C 453.421875 275.816406 451.960938 276.222656 452.027344 277.539063 C 452.527344 281.660156 460.261719 296.425781 463.792969 308.632813 C 463.988281 309.371094 463.929688 310.386719 464.019531 311.289063 C 464.183594 313.007813 465.230469 312.835938 465.199219 311.371094 C 465.097656 306.722656 463.042969 301.839844 462.039063 297.261719 C 461.9375 296.785156 462.304688 296.566406 462.613281 296.902344 C 463.832031 298.226563 465.433594 299.347656 466.988281 300.214844 C 469.328125 301.246094 470.886719 300.4375 470.757813 295.621094 C 470.570313 288.816406 467.464844 283.128906 465.828125 276.976563 C 465.714844 276.542969 466.191406 276.410156 466.515625 276.84375 C 468.777344 279.871094 470.582031 284.613281 475.015625 283.386719 C 476.960938 282.390625 477.195313 278.242188 476.730469 275.671875 C 476.554688 274.84375 475.335938 275.007813 475.402344 275.902344 C 475.402344 277.773438 475.660156 281.175781 473.691406 282.058594 C 467.539063 280.621094 467.460938 270.460938 466.210938 268.578125 C 465.109375 267.132813 462.671875 269.484375 463.015625 271.929688 "/>
</g>
</svg>
