<?xml version="1.0" encoding="UTF-8"?>
<svg xmlns="http://www.w3.org/2000/svg" xmlns:xlink="http://www.w3.org/1999/xlink" width="396pt" height="639pt" viewBox="0 0 396 639" version="1.1">
<g id="surface1">
<path style=" stroke:none;fill-rule:nonzero;fill:rgb(0%,0%,0%);fill-opacity:1;" d="M 378.851563 382 C 384.613281 378.769531 391.722656 372.730469 395.714844 369.171875 C 394.984375 344.332031 385.886719 297.300781 377.539063 266.1875 C 382.320313 263.46875 386.777344 260.96875 391.558594 259.339844 C 391.667969 253.90625 385.472656 217.167969 383.734375 211.949219 C 386.96875 211.652344 390.039063 211.84375 392.863281 212.386719 C 390.785156 201.699219 377.570313 164.121094 371.453125 155.539063 C 398.921875 98.921875 379.089844 62.148438 331.5625 71.304688 C 327.140625 62.035156 323.410156 53.371094 319.28125 44.460938 C 311.5625 33.074219 303.953125 22.613281 295.042969 11.308594 C 288.480469 13.273438 282.542969 15.4375 276.566406 18.046875 C 270.261719 14.570313 264.175781 11.527344 257.761719 7.9375 C 253.679688 10.507813 249.285156 13.699219 245.261719 16.308594 C 237.4375 12.867188 228.710938 8.835938 220.535156 5.222656 C 219.335938 6.21875 216.894531 8.15625 215.265625 9.785156 C 206.570313 7.179688 196.757813 3.863281 187.386719 0.875 C 185.210938 3.046875 182.765625 5.492188 179.289063 8.699219 C 172.984375 6.992188 160.476563 4.304688 152.332031 3.484375 C 148.257813 7.9375 145.539063 11.199219 141.464844 16.308594 C 134.390625 16.050781 127.328125 15.53125 119.726563 15.4375 C 116.734375 18.265625 113.746094 22.339844 110.160156 26.742188 C 102.441406 26.089844 93.640625 25.765625 85.597656 25.871094 C 84.671875 35.382813 84.945313 49.511719 86.683594 58.046875 C 47.570313 52.050781 24.179688 74.734375 25.054688 123.363281 C 25.597656 130.453125 29.785156 138.230469 31.957031 143.121094 C 29.132813 151.382813 24.871094 163.222656 22.449219 172.820313 C 23.425781 176.082031 24.625 179.53125 26.359375 183.257813 C 21.253906 192.496094 14.621094 202.386719 9.1875 212.167969 C 11.035156 218.527344 13.820313 224.539063 17.230469 229.667969 C 11.796875 240.320313 5.226563 253.097656 0.226563 263.640625 C 3.289063 267.710938 7.910156 272.191406 11.46875 276.078125 C 10.085938 284.285156 6.796875 308.140625 6.796875 318.902344 C 7.882813 319.335938 9.40625 320.152344 10.492188 320.640625 C 9.132813 333.738281 8.589844 346.101563 8.644531 358.789063 C 12.601563 361.707031 17.53125 364.09375 21.6875 366.289063 C 22.039063 383.734375 22.992188 399.222656 25.054688 415.855469 C 29.730469 417.484375 34.136719 418.910156 38.859375 420.855469 C 39.804688 435.019531 45.640625 468.542969 50.382813 483.460938 C 54.511719 481.9375 58.640625 480.308594 62.664063 478.242188 C 68.640625 493.648438 86.101563 533.621094 94.046875 547.722656 C 97.960938 545.003906 103.960938 540.78125 108.53125 538.238281 C 112.757813 558.460938 120.132813 590.351563 125.269531 611.277344 C 137.660156 596.359375 150.703125 580.953125 162.550781 566.714844 C 171.082031 584.40625 177.332031 595.300781 189.179688 610.519531 C 198.199219 605.082031 211.035156 597.058594 219.71875 591.496094 C 224.695313 599.019531 233.414063 612.367188 239.71875 619.648438 C 243.414063 614.972656 257.21875 591.390625 260.152344 586.28125 C 265.238281 600.027344 272.703125 620.140625 278.847656 638.125 C 286.585938 620.441406 301.660156 578.011719 306.5625 559.324219 C 310.367188 557.367188 315.242188 555.625 319.28125 553.347656 C 328.300781 536.71875 338.085938 519.980469 347.539063 503.242188 C 351.101563 503.285156 354.929688 503.132813 358.410156 502.480469 C 360.519531 496.382813 366.046875 478.160156 367.863281 471.722656 C 373.300781 471.175781 378.40625 469.4375 382.972656 467.589844 C 382.484375 457.78125 381.054688 441.066406 380.007813 432.4375 C 383.027344 428.570313 385.472656 425.527344 388.734375 421.941406 C 386.300781 413.757813 381.199219 393.671875 378.851563 382 Z M 235.359375 121.515625 C 242.65625 144.570313 245.078125 160.136719 237.351563 179.65625 C 236.195313 182.578125 233.652344 190.074219 231.765625 196.40625 C 231.546875 197.152344 230.957031 197.109375 230.90625 196.378906 C 230.511719 190.273438 231.945313 184.4375 233.53125 178.707031 C 239.027344 158.804688 235.128906 143.328125 230.738281 122.800781 C 229.175781 115.492188 233.058594 114.246094 235.359375 121.515625 Z M 206.378906 41.386719 C 220.085938 55.207031 227.257813 75.679688 231.050781 95.535156 C 231.183594 96.226563 230.527344 96.449219 230.078125 95.851563 C 223.863281 87.566406 208.308594 50.726563 205.523438 42.152344 C 205.289063 41.429688 205.859375 40.863281 206.378906 41.386719 Z M 216.128906 131.058594 C 214.828125 128.722656 216.460938 128.042969 217.871094 129.996094 C 224.550781 140.015625 227.601563 151.046875 222.710938 156.300781 C 218.410156 160.121094 217.457031 158.292969 219.347656 155.191406 C 222.710938 149.417969 219.71875 138.113281 216.128906 131.058594 Z M 196.90625 132.664063 C 197.113281 132.03125 197.714844 132.195313 197.761719 132.929688 C 198.109375 138.671875 196.96875 144.949219 196.679688 150.925781 C 220.105469 155.359375 227.640625 180.703125 218.226563 202.222656 C 216.652344 205.421875 216.050781 205.890625 213.960938 204.34375 C 202.003906 193.148438 186.570313 185.863281 171.136719 181.082031 C 168.742188 186.46875 171.683594 193.839844 181.085938 197.859375 C 199.078125 205.550781 210.289063 217.230469 212.746094 230.082031 C 213.253906 232.730469 212.082031 232.628906 210.808594 230.644531 C 202.328125 217.277344 188.851563 207.386719 175.375 199.125 C 167.765625 194.34375 165.375 186.625 165.15625 177.714844 C 156.601563 174.976563 162.949219 164.445313 166.734375 158.476563 C 167.769531 156.839844 168.308594 157.171875 167.992188 159.003906 C 166.097656 171.179688 168.996094 177.0625 188.359375 182.160156 C 200.191406 185.277344 206.730469 189.019531 213.199219 197.820313 C 214.285156 199.777344 216.050781 199.097656 216.058594 197.542969 C 218.035156 190.289063 216.8125 178.648438 213.960938 171.519531 C 206.789063 173.582031 197.75 175.644531 189.980469 173.371094 C 189.152344 173.132813 189.089844 172.253906 190.105469 172.265625 C 195.140625 172.332031 203.917969 168.632813 208.414063 165.433594 C 201.378906 154.941406 190.621094 152.917969 178.742188 159.234375 C 176.351563 153.585938 173.851563 148.476563 172.984375 142.824219 C 175.585938 141.890625 177.574219 141.601563 179.289063 140.976563 C 180.484375 145.433594 181.539063 149.011719 183.199219 153.476563 C 186.160156 152.226563 189.152344 151.273438 192.132813 151 C 193.40625 144.613281 194.9375 138.648438 196.90625 132.664063 Z M 215.710938 503.070313 C 214.109375 506.699219 212.65625 506.148438 213.3125 502.539063 C 224.65625 460.925781 226.207031 431.507813 223.0625 387.644531 C 222.347656 381.835938 223.976563 381.664063 226.382813 386.785156 C 239.40625 414.527344 228.738281 472.144531 215.710938 503.070313 Z M 242.765625 494.433594 C 241.164063 497.734375 240.15625 496.984375 241.164063 493.710938 C 252.046875 458.503906 258.824219 428.558594 256.839844 384.839844 C 256.957031 379.972656 261.578125 380.625 262.761719 385.09375 C 271.890625 422.546875 256.414063 466.34375 242.765625 494.433594 Z M 289.824219 342.8125 C 286.683594 342.507813 284.8125 341.984375 281.238281 341.292969 C 275.425781 348.820313 271.890625 353.710938 265.371094 360.855469 C 262.28125 356.804688 258.089844 352.269531 255.371094 347.8125 C 249.609375 352.078125 243.632813 356.398438 238.199219 360.855469 C 236.132813 357.8125 233.089844 343.25 232.980469 339.988281 C 234.503906 338.683594 236.242188 338.902344 236.894531 341.074219 C 237.761719 344.445313 239.691406 348.546875 241.894531 351.726563 C 246.675781 347.8125 251.59375 343.058594 255.695313 338.464844 C 258.738281 343.464844 262.515625 348.820313 265.6875 354.0625 C 270.714844 348.410156 276.566406 339.554688 279.933594 333.683594 C 282.867188 334.746094 284.609375 336.183594 287 337.160156 C 288.738281 324.636719 284.734375 303.789063 278.722656 290.257813 C 274.773438 281.367188 270.128906 279.347656 259.820313 282.988281 C 238.296875 290.597656 221.597656 304.238281 206.617188 322.796875 C 206.675781 324.769531 206.976563 327.921875 206.539063 329.660156 C 199.339844 317.976563 191.679688 302.382813 179.289063 295.859375 C 170.023438 313.1875 179.230469 346.136719 185.109375 369.800781 C 194.289063 406.757813 200.511719 429.636719 182.730469 467.730469 C 181.367188 470.585938 180.773438 469.761719 181.699219 467.152344 C 193.148438 434.859375 192.523438 412.710938 181.15625 380.285156 C 167.269531 340.683594 160.054688 320.097656 170.265625 289.71875 C 163.703125 285.589844 150.566406 276.226563 148.203125 274.242188 C 134.550781 301.769531 136.300781 327.800781 146.132813 351.300781 C 151.277344 363.597656 174.257813 397.78125 164.289063 437.027344 C 162.628906 443.566406 161.472656 444.082031 161.027344 436.722656 C 159.140625 403.273438 161.195313 396.480469 141.304688 354.058594 C 126.570313 322.636719 126.359375 297.476563 136.246094 261.1875 C 130.703125 254.449219 124.886719 242.847656 121.527344 231.003906 C 120.578125 228.695313 118.828125 226.777344 118.203125 225.753906 C 102.554688 250.578125 96.316406 277.132813 103.222656 313.914063 C 104.847656 322.570313 113.296875 365.578125 115.714844 382.007813 C 116.164063 385.070313 115.078125 384.449219 114.445313 382.652344 C 90.664063 315.003906 79.238281 270.96875 114.601563 220.574219 C 108.402344 210.464844 101.203125 190.691406 100.550781 186.886719 C 94.453125 181.117188 91.683594 178.367188 87.117188 171.953125 C 46.433594 226.972656 55.8125 332.800781 81.417969 394.511719 C 89.210938 409.894531 85.941406 411.386719 78.472656 396.074219 C 44.320313 326.058594 39.664063 225.507813 81.683594 164.996094 C 71.035156 154.347656 54.328125 126.257813 50.800781 110.011719 C 43.246094 75.246094 80.308594 54.972656 118.421875 86.195313 C 120.949219 88.097656 118.503906 89.863281 115.050781 88.042969 C 80.332031 69.238281 50.566406 74.265625 57.476563 109.457031 C 59.761719 121.097656 68.222656 135.917969 76.464844 146.738281 C 81.574219 144.890625 87.226563 142.933594 92.335938 140.433594 C 91.609375 137.007813 91.347656 133.476563 90.597656 129.78125 C 94.183594 128.257813 97.335938 126.410156 100.703125 124.996094 C 99.046875 121.078125 94.835938 113.152344 93.421875 109.347656 C 103.640625 106.738281 115.515625 108.941406 125.296875 111.332031 C 127.507813 105.507813 130.839844 94.484375 132.902344 89.59375 C 136.570313 90.136719 139.179688 91.195313 142.222656 92.390625 C 144.046875 82.664063 147.714844 61.46875 150.023438 53.589844 C 157.765625 60.382813 166.136719 70.109375 171.894531 76.304688 C 178.089844 70.515625 182.46875 66.140625 188.636719 60.652344 C 190.511719 65.136719 181.679688 88.640625 178.960938 97.933594 C 174.710938 92.773438 161.015625 75.277344 153.417969 68.914063 C 153.148438 76.6875 151.859375 91.492188 151.027344 104.128906 C 146.355469 101.085938 141.789063 96.628906 136.246094 95 C 135.378906 102.71875 133.746094 110.867188 132.550781 117.714844 C 122.011719 115.359375 111.164063 113.097656 99.945313 111.738281 C 104.003906 117.007813 108.3125 123.695313 112.441406 128.910156 C 106.695313 130.421875 102.226563 130.867188 97.117188 131.847656 C 97.988281 136.871094 99.074219 140.324219 100.160156 144.890625 C 94.945313 147.714844 88.207031 150.757813 82.226563 153.691406 C 87.988281 160.867188 95.738281 172.257813 100.160156 177.714844 C 101.796875 165.601563 109.863281 152.226563 121.804688 144.679688 C 122.40625 144.300781 122.871094 144.746094 122.5 145.332031 C 108.421875 167.492188 105.660156 193.496094 120.226563 214.929688 C 120.488281 215.316406 121.035156 215.082031 121.046875 214.585938 C 121.179688 208.683594 122.058594 202.832031 122.660156 196.515625 C 123.121094 193.9375 124.617188 194.34375 124.507813 196.515625 C 122.507813 231.765625 140.867188 256.414063 163.324219 273.933594 C 171.6875 280.457031 181.46875 285.847656 188.96875 293.296875 C 190.699219 295.097656 191.242188 294.882813 191.273438 292.574219 C 191.59375 265.34375 192.492188 247.148438 173.75 229.710938 C 159.355469 216.320313 153.417969 209.695313 154.722656 193.90625 C 159.265625 199.8125 160.996094 206.246094 165.503906 212.011719 C 173.71875 222.511719 189.496094 232.902344 193.734375 244.253906 C 198.300781 256.480469 200.757813 293.140625 199.613281 308.140625 C 201.105469 310.234375 201.785156 311.945313 202.765625 314.121094 C 217.683594 297.632813 236.585938 285.207031 257.148438 278.09375 C 267.429688 274.539063 277.121094 273.535156 282.761719 282.652344 C 290.449219 295.722656 296.859375 322.96875 289.824219 342.8125 Z M 321.851563 421.839844 C 320.382813 428.339844 319.230469 427.910156 319.121094 421.683594 C 318.777344 401.941406 322.890625 349.351563 315.695313 330.097656 C 313.648438 324.769531 316.003906 322.234375 319.945313 327.695313 C 336.152344 353.226563 327.453125 397.066406 321.851563 421.839844 Z M 310.085938 203.214844 C 314.417969 220.539063 313.707031 233.09375 295.585938 240.320313 C 302.84375 246.878906 308.734375 254.257813 314.179688 261.707031 C 316.539063 264.949219 315.910156 266.304688 313.121094 264.09375 C 303.960938 256.824219 294.640625 248.910156 284.390625 244.992188 C 283.03125 247.601563 281.675781 250.101563 280.695313 252.816406 C 289.109375 257.679688 298.886719 266.671875 303.316406 274.8125 C 304.035156 276.140625 303.015625 276.761719 301.914063 275.71875 C 295.347656 269.496094 284.015625 260.601563 276.105469 257.246094 C 276.78125 253.6875 277.871094 246.296875 278.414063 243.253906 C 292.8125 235.101563 311.28125 224.757813 303.410156 209.015625 C 297.5625 214.867188 290.121094 219.59375 281.261719 217.464844 C 275.164063 215.996094 270.0625 215.183594 257.636719 218.023438 C 249.691406 219.839844 242.597656 220.378906 232.4375 220.210938 C 234.621094 222.992188 254.628906 236.074219 257.761719 238.363281 C 264.691406 248.960938 266.347656 259.882813 267.273438 263.089844 C 258.25 267.65625 246.242188 272.925781 236.132813 274.773438 C 230.980469 275.925781 230.835938 274.210938 235.589844 271.949219 C 244.71875 267.925781 254.175781 263.253906 263.523438 258.90625 C 262.367188 256.707031 261.496094 253.957031 260.34375 252.355469 C 251.320313 256.378906 238.960938 258.796875 229.285156 261.1875 C 227.328125 261.59375 226.648438 259.691406 228.308594 258.90625 C 237.761719 254.449219 247.269531 250.753906 257.703125 247.601563 C 253.558594 239.339844 249.820313 236.929688 241.195313 231.148438 C 236.601563 228.074219 231.21875 224.257813 228.089844 220.019531 C 230.289063 217.792969 237.382813 216.351563 241.1875 216.027344 C 247.546875 215.621094 264.609375 206.40625 278.847656 209.558594 C 293.082031 213.316406 307.8125 200.234375 315.148438 190.214844 C 282.539063 196.777344 256.96875 159.46875 248.15625 132.648438 C 247.777344 131.488281 248.496094 131.1875 249.183594 132.171875 C 257.929688 144.65625 266.023438 157.640625 277.109375 169.128906 C 278.066406 162.894531 281.214844 154.101563 287.21875 152.933594 C 283.210938 145.898438 280.085938 137.546875 277.597656 129.535156 C 277.097656 127.894531 277.6875 127.746094 278.605469 128.808594 C 284.332031 135.414063 287.328125 143.363281 291.671875 150.867188 C 294.035156 145.433594 293.847656 139.347656 294.0625 138.042969 C 296.128906 139.019531 297.296875 139.1875 299.335938 140.132813 C 300.078125 143.234375 301.867188 148.828125 303.070313 152.679688 C 319.308594 156.300781 321.074219 163.503906 308.628906 178.039063 C 305.335938 177.945313 302.308594 177.960938 298.96875 177.800781 C 298.453125 177.777344 298.136719 177.03125 298.625 176.695313 C 312.808594 167.011719 312.917969 161.636719 299.324219 157.421875 C 294.292969 155.859375 289.308594 155.757813 286.394531 158.089844 C 283.257813 160.601563 282.269531 170.167969 283.988281 175.882813 C 302.34375 186.113281 326.863281 190.691406 326.078125 167.441406 C 325.117188 139.074219 281.964844 114.097656 256.097656 94.171875 C 254.230469 92.71875 254.117188 89.25 253.652344 85.792969 C 251.875 72.574219 247.144531 59.242188 240.03125 47.21875 C 238.300781 44.292969 239.445313 43.820313 241.398438 46.050781 C 255.738281 62.410156 256.128906 66.566406 257 92.402344 C 280.289063 102.765625 305.777344 123.894531 319.5 141.585938 C 338.5625 166.15625 328.511719 187.222656 310.085938 203.214844 Z M 358.851563 212.402344 C 358.890625 213.539063 358.175781 213.585938 357.800781 212.488281 C 348.953125 186.644531 344.695313 175.753906 329.195313 153.378906 C 328.796875 152.800781 329.550781 152.269531 330.300781 152.65625 C 334.222656 154.679688 337.503906 157.816406 341.019531 160.757813 C 351.371094 150.511719 372.757813 125.234375 371.648438 111.601563 C 371.40625 108.652344 372.253906 108.183594 373.113281 110.921875 C 378.34375 127.597656 357.371094 157.664063 348.300781 170.429688 C 357.136719 183.710938 358.347656 196.472656 358.851563 212.402344 "/>
</g>
</svg>
