<?xml version="1.0" encoding="UTF-8"?>
<svg xmlns="http://www.w3.org/2000/svg" xmlns:xlink="http://www.w3.org/1999/xlink" width="547pt" height="471pt" viewBox="0 0 547 471" version="1.1">
<g id="surface1">
<path style=" stroke:none;fill-rule:nonzero;fill:rgb(0%,0%,0%);fill-opacity:1;" d="M 544.832031 20.992188 C 542.671875 19.789063 538.589844 19.3125 536.671875 21.351563 C 536.070313 34.3125 530.429688 44.992188 522.03125 54.589844 C 520.230469 52.3125 520.109375 49.191406 518.550781 46.910156 C 515.910156 49.070313 494.84375 76.121094 472.351563 79.671875 C 467.429688 51.710938 483.152344 29.03125 484.351563 1.910156 C 483.75 -0.371094 480.992188 0.828125 479.191406 0.230469 C 455.550781 16.671875 451.710938 46.910156 425.671875 61.070313 C 400.589844 91.671875 373.351563 117.230469 344.910156 144.949219 C 300.511719 180.949219 259.953125 226.191406 213.511719 257.269531 C 200.910156 251.75 188.3125 246.109375 176.433594 238.671875 C 170.550781 239.269531 166.351563 236.148438 161.671875 233.871094 C 149.910156 237.230469 143.433594 225.109375 133.230469 223.550781 C 122.3125 218.511719 123.753906 205.550781 114.632813 198.949219 C 115.59375 189.46875 104.550781 186.230469 104.671875 177.351563 C 98.3125 173.269531 98.3125 165.589844 94.351563 160.070313 C 84.390625 158.75 86.070313 145.789063 76.113281 144.46875 C 71.792969 143.03125 65.433594 143.03125 62.3125 146.269531 C 54.390625 179.03125 67.832031 211.671875 77.074219 241.671875 C 81.632813 258.230469 84.273438 282.46875 71.433594 296.148438 C 58.472656 283.429688 69.273438 260.988281 60.992188 246.46875 C 51.992188 245.390625 46.230469 239.148438 39.03125 233.511719 C 33.871094 231.109375 25.953125 233.511719 23.074219 226.550781 C 14.792969 229.308594 6.632813 221.03125 0.152344 227.03125 C 0.390625 233.269531 2.433594 239.988281 3.632813 246.46875 C 15.753906 266.148438 28.59375 285.949219 48.992188 300.828125 C 56.3125 315.828125 107.34375 438.820313 237.753906 404.148438 C 233.433594 409.070313 233.671875 416.03125 232.59375 422.269531 C 235.710938 428.148438 231.511719 436.789063 235.953125 442.191406 C 235.230469 451.550781 242.191406 457.667969 243.390625 466.308594 C 243.992188 470.269531 248.671875 471.46875 252.03125 470.269531 C 257.3125 464.269531 259.710938 457.191406 264.03125 450.828125 C 280.351563 428.75 275.191406 397.910156 293.070313 376.429688 C 336.753906 350.628906 375.152344 310.789063 414.390625 275.390625 C 415.472656 283.789063 416.941406 311.621094 454.589844 322.429688 C 455.070313 318.710938 455.429688 314.988281 455.910156 311.269531 C 458.429688 285.109375 452.671875 258.109375 444.269531 234.351563 C 448.589844 228.828125 454.832031 224.511719 458.429688 218.390625 C 463.832031 198.589844 484.351563 185.148438 492.632813 166.550781 C 501.511719 151.910156 503.550781 134.390625 505.949219 117.230469 C 511.230469 93.589844 523.351563 72.828125 535.832031 52.070313 C 540.632813 42.472656 551.070313 32.511719 544.832031 20.992188 Z M 65.3125 154.910156 C 66.03125 154.070313 67.351563 154.789063 67.953125 153.949219 C 72.992188 175.789063 73.710938 200.03125 77.433594 221.871094 C 71.550781 200.269531 64.113281 178.789063 65.3125 154.910156 Z M 57.152344 252.949219 C 57.273438 262.550781 60.03125 272.269531 61.472656 281.871094 C 54.03125 271.550781 48.152344 257.871094 43.351563 245.148438 C 47.3125 247.070313 55.710938 247.070313 57.152344 252.949219 Z M 5.792969 233.03125 C 9.273438 231.710938 12.992188 231.710938 16.59375 233.03125 C 24.511719 257.511719 38.191406 279.710938 57.152344 299.628906 C 32.792969 284.988281 12.273438 259.070313 5.792969 233.03125 Z M 52.351563 287.871094 C 41.910156 272.628906 31.472656 257.148438 26.433594 239.511719 C 28.832031 238.550781 31.710938 237.710938 34.230469 238.671875 C 39.871094 248.988281 42.992188 260.390625 48.992188 270.589844 C 50.792969 276.109375 79.710938 322.789063 52.351563 287.871094 Z M 438.632813 82.3125 C 439.832031 79.3125 440.910156 76.550781 442.109375 73.671875 C 440.3125 70.429688 435.992188 70.550781 435.632813 66.710938 C 439.941406 62.621094 453.441406 78.222656 438.632813 82.3125 Z M 83.074219 159.230469 C 98.671875 167.871094 83.34375 212.421875 92.191406 245.988281 C 93.871094 245.871094 95.3125 244.789063 96.871094 244.308594 C 98.671875 225.828125 99.992188 205.550781 102.511719 187.308594 C 114.632813 198.949219 105.152344 234.46875 102.511719 244.308594 C 105.03125 245.628906 109.113281 246.949219 109.472656 242.511719 C 112.472656 234.351563 115.472656 226.191406 118.472656 217.910156 C 118.59375 223.789063 127.230469 227.75 122.792969 233.871094 C 119.910156 239.988281 116.550781 245.75 113.3125 251.628906 C 113.433594 253.308594 115.351563 254.269531 116.3125 255.46875 C 120.992188 248.03125 126.152344 240.828125 130.113281 233.03125 C 135.511719 232.789063 140.070313 234.351563 144.03125 237.828125 C 135.632813 244.550781 129.390625 253.429688 121.113281 260.269531 C 121.351563 261.828125 123.152344 261.949219 124.113281 262.910156 C 133.953125 256.308594 142.953125 247.789063 153.03125 241.671875 C 157.113281 243.351563 162.390625 241.789063 165.992188 244.671875 C 155.3125 252.109375 141.03125 257.511719 128.910156 264.589844 C 129.871094 266.390625 132.390625 266.269531 134.070313 267.589844 C 149.070313 259.789063 164.550781 253.191406 180.273438 246.828125 C 183.152344 248.148438 186.152344 250.910156 187.59375 253.789063 C 174.273438 262.910156 157.953125 266.148438 141.871094 269.390625 C 142.230469 270.828125 142.710938 273.351563 143.070313 275.390625 C 175.34375 275.621094 195.871094 252.828125 204.03125 258.949219 C 204.511719 259.671875 205.351563 259.910156 206.191406 259.789063 C 190.953125 277.789063 167.792969 279.589844 146.550781 282.710938 C 144.03125 278.628906 140.550781 274.070313 136.230469 271.550781 C 128.792969 269.511719 118.230469 269.628906 116.3125 259.789063 C 104.144531 248.421875 88.59375 251.148438 87.390625 251.148438 C 86.3125 248.03125 78.152344 184.789063 83.074219 159.230469 Z M 168.632813 288.351563 C 158.910156 294.46875 148.351563 298.789063 137.910156 302.988281 C 137.191406 302.03125 132.144531 292.421875 168.632813 288.351563 Z M 106.351563 281.871094 C 99.34375 286.019531 94.230469 270.710938 99.03125 267.589844 C 102.992188 270.949219 105.390625 276.46875 106.351563 281.871094 Z M 101.671875 351.828125 C 95.3125 351.109375 79.34375 344.421875 85.710938 338.03125 C 91.230469 333.949219 97.230469 341.511719 102.992188 343.191406 C 106.832031 345.710938 105.152344 350.390625 101.671875 351.828125 Z M 129.753906 360.46875 C 127.34375 354.820313 146.542969 350.019531 148.351563 356.148438 C 149.910156 360.109375 138.542969 366.820313 129.753906 360.46875 Z M 178.59375 315.949219 C 183.34375 321.21875 165.742188 331.621094 160.832031 326.390625 C 156.941406 320.421875 176.144531 308.421875 178.59375 315.949219 Z M 162.152344 350.511719 C 160.144531 345.21875 176.191406 342.46875 179.433594 347.511719 C 176.144531 356.421875 162.871094 353.390625 162.152344 350.511719 Z M 171.632813 386.871094 C 169.742188 379.621094 189.511719 377.269531 191.070313 384.710938 C 188.941406 390.019531 173.910156 391.429688 171.632813 386.871094 Z M 191.070313 293.511719 C 196.113281 289.308594 203.433594 286.789063 209.671875 289.191406 C 214.542969 296.421875 188.941406 305.21875 191.070313 293.511719 Z M 215.3125 369.589844 C 216.140625 361.21875 234.152344 363.828125 236.433594 366.949219 C 237.742188 374.019531 216.140625 374.019531 215.3125 369.589844 Z M 243.753906 321.589844 C 243.34375 330.820313 231.511719 330.46875 227.792969 328.070313 C 224.144531 320.421875 240.632813 317.03125 243.753906 321.589844 Z M 229.953125 293.988281 C 231.03125 284.988281 241.351563 285.589844 247.710938 282.710938 C 256.941406 286.019531 237.742188 300.421875 229.953125 293.988281 Z M 242.433594 408.828125 C 249.871094 404.03125 256.710938 398.148438 264.511719 394.191406 C 257.433594 408.589844 248.433594 422.269531 239.070313 435.710938 C 235.59375 426.828125 239.433594 417.109375 242.433594 408.828125 Z M 245.910156 456.828125 C 236.070313 444.828125 248.789063 433.550781 253.230469 423.109375 C 257.550781 416.75 261.871094 410.507813 266.191406 404.148438 C 260.3125 422.03125 254.3125 440.03125 245.910156 456.828125 Z M 251.550781 463.308594 C 251.191406 461.871094 252.03125 458.390625 252.390625 455.988281 C 260.070313 436.429688 265.953125 416.03125 274.472656 396.828125 C 273.269531 421.667969 263.3125 442.789063 251.550781 463.308594 Z M 413.070313 269.75 C 384.871094 297.710938 354.03125 323.03125 324.511719 349.671875 C 290.910156 370.910156 259.832031 397.910156 218.671875 400.667969 C 224.070313 390.347656 239.550781 398.269531 245.550781 386.390625 C 250.953125 386.03125 253.472656 379.550781 257.191406 376.429688 C 261.03125 375.46875 265.832031 376.550781 269.671875 375.589844 C 275.191406 373.308594 275.789063 364.429688 283.113281 366.589844 C 286.710938 366.589844 289.589844 366.949219 290.910156 363.109375 C 290.910156 357.949219 288.992188 353.628906 289.109375 348.351563 C 293.433594 350.269531 297.390625 353.03125 302.070313 353.988281 C 300.632813 344.75 315.992188 347.148438 311.550781 337.550781 C 310.230469 336.109375 309.390625 334.191406 308.550781 332.390625 C 316.832031 329.871094 328.953125 342.109375 333.632813 328.550781 C 336.03125 322.789063 331.472656 318.828125 329.789063 314.269531 C 337.953125 315.46875 347.429688 314.390625 354.75 310.789063 C 355.710938 308.390625 355.710938 305.75 356.910156 303.46875 C 362.550781 302.390625 368.191406 299.511719 371.191406 293.988281 C 370.351563 284.75 383.789063 290.988281 384.152344 281.871094 C 383.429688 280.308594 383.789063 278.390625 383.789063 276.710938 C 388.589844 272.988281 400.710938 277.789063 398.910156 267.230469 C 398.910156 263.988281 396.992188 260.390625 398.429688 257.628906 C 401.910156 255.46875 407.070313 260.511719 408.75 255.109375 C 410.3125 252.230469 405.390625 246.351563 411.390625 245.988281 C 413.671875 245.628906 417.03125 246.949219 417.871094 244.308594 C 421.109375 238.070313 412.589844 231.589844 422.191406 228.351563 C 425.429688 234.230469 423.511719 244.070313 422.191406 251.148438 C 420.03125 257.75 419.070313 265.070313 413.070313 269.75 Z M 291.269531 328.910156 C 294.992188 332.390625 286.542969 341.21875 277.953125 339.351563 C 272.140625 331.621094 286.832031 327.710938 291.269531 328.910156 Z M 294.269531 276.230469 C 299.671875 280.070313 286.542969 290.820313 280.472656 287.03125 C 275.34375 278.820313 288.992188 274.910156 294.269531 276.230469 Z M 259.710938 259.429688 C 259.34375 252.421875 272.140625 247.621094 276.632813 250.308594 C 281.742188 257.222656 264.140625 266.019531 259.710938 259.429688 Z M 312.03125 217.910156 C 314.191406 211.070313 330.542969 202.019531 332.3125 209.75 C 331.589844 216.710938 312.941406 225.222656 312.03125 217.910156 Z M 333.632813 292.671875 C 335.3125 296.871094 320.140625 302.019531 312.511719 297.828125 C 311.34375 289.21875 329.433594 288.949219 333.632813 292.671875 Z M 317.671875 246.46875 C 319.953125 248.148438 316.140625 256.421875 307.710938 255.949219 C 305.742188 246.820313 314.070313 244.789063 317.671875 246.46875 Z M 354.75 238.671875 C 364.140625 242.820313 346.230469 253.789063 341.429688 252.46875 C 332.140625 244.421875 349.742188 237.222656 354.75 238.671875 Z M 376.351563 254.628906 C 380.910156 260.390625 371.34375 274.019531 362.191406 269.390625 C 356.140625 263.621094 371.429688 252.828125 376.351563 254.628906 Z M 425.191406 293.511719 C 409.589844 271.789063 432.992188 252.230469 428.671875 228.351563 C 426.632813 213.828125 443.34375 239.621094 425.191406 293.511719 Z M 438.152344 306.949219 C 435.75 305.988281 433.589844 303.351563 432.152344 301.308594 C 432.992188 284.03125 438.992188 267.949219 438.632813 251.148438 C 444.941406 268.421875 438.152344 306.351563 438.152344 306.949219 Z M 450.269531 310.789063 C 449.429688 311.75 445.230469 309.589844 444.269531 308.628906 C 444.390625 285.589844 444.269531 264.949219 442.472656 242.148438 C 450.390625 263.871094 450.632813 289.191406 450.269531 310.789063 Z M 441.632813 228.710938 C 437.550781 225.230469 437.550781 220.191406 434.671875 216.230469 C 443.429688 212.03125 452.910156 209.148438 461.070313 203.628906 C 459.632813 214.191406 449.429688 221.75 441.632813 228.710938 Z M 492.152344 152.269531 C 493.109375 145.191406 492.269531 137.871094 491.3125 131.148438 C 489.871094 132.230469 488.3125 132.949219 486.992188 134.511719 C 486.269531 148.550781 488.3125 165.828125 476.671875 176.511719 C 480.03125 165.949219 483.03125 154.191406 480.511719 142.308594 C 472.472656 147.828125 476.191406 159.589844 474.03125 168.230469 C 472.109375 178.789063 466.230469 188.269531 456.75 194.148438 C 466.230469 182.871094 471.152344 166.671875 471.871094 151.789063 C 467.070313 153.710938 466.949219 159.589844 465.390625 163.910156 C 462.511719 185.871094 445.109375 207.46875 423.511719 213.589844 C 460.140625 179.621094 461.910156 157.550781 461.070313 157.429688 C 449.671875 179.75 412.941406 230.019531 368.191406 204.589844 C 376.472656 217.070313 390.75 222.589844 404.070313 226.550781 C 384.941406 228.421875 344.941406 208.421875 353.070313 182.03125 C 373.742188 218.820313 423.390625 201.109375 435.152344 182.988281 C 427.949219 183.46875 419.429688 182.03125 411.871094 181.191406 C 405.75 186.351563 402.152344 198.949219 392.429688 196.308594 C 393.03125 189.109375 400.832031 184.789063 404.070313 178.671875 C 394.230469 176.871094 390.269531 191.988281 380.671875 192.46875 C 374.542969 187.621094 392.550781 178.308594 398.910156 174.351563 C 395.550781 167.03125 388.109375 171.109375 383.789063 173.03125 C 371.34375 186.820313 367.832031 183.230469 367.710938 182.511719 C 365.742188 174.820313 386.789063 166.789063 391.109375 163.070313 C 387.75 160.070313 386.671875 154.070313 382.472656 153.589844 C 376.109375 157.191406 365.742188 171.621094 362.191406 168.230469 C 356.941406 162.019531 375.75 148.191406 379.832031 144.46875 C 405.742188 189.222656 437.3125 176.148438 439.472656 175.191406 C 440.910156 172.789063 441.269531 170.03125 442.949219 167.871094 C 430.542969 180.421875 381.742188 167.621094 389.789063 125.871094 C 389.3125 124.789063 292.351563 222.710938 237.753906 256.429688 C 206.792969 277.789063 127.34375 333.21875 86.550781 318.109375 C 184.144531 319.621094 336.992188 166.308594 399.75 112.550781 C 384.941406 129.222656 404.070313 226.550781 501.269531 111.230469 C 502.472656 110.75 500.671875 117.351563 498.632813 121.191406 C 499.351563 132.230469 496.589844 142.910156 492.152344 152.269531 Z M 472.710938 94.789063 C 467.242188 113.921875 453.992188 96.710938 454.109375 106.070313 C 453.992188 110.988281 456.140625 128.019531 480.03125 115.550781 C 475.109375 124.671875 464.429688 131.03125 452.910156 129.828125 C 451.640625 141.222656 442.949219 146.628906 438.632813 147.46875 C 451.832031 141.109375 447.511719 126.710938 448.949219 115.070313 C 450.75 105.828125 453.871094 96.949219 456.269531 87.949219 C 453.992188 85.191406 462.632813 82.671875 455.910156 83.148438 C 434.542969 94.121094 447.140625 135.222656 434.671875 140.628906 C 423.441406 152.019531 403.042969 131.621094 413.070313 121.191406 C 412.042969 128.320313 416.910156 130.070313 420.511719 133.308594 C 422.550781 127.789063 421.472656 120.949219 424.832031 116.03125 C 423.511719 122.269531 424.832031 128.511719 428.671875 133.308594 C 442.042969 134.921875 436.351563 113.988281 437.3125 106.910156 C 428.242188 111.820313 404.84375 112.121094 410.910156 89.628906 C 412.832031 83.871094 418.949219 80.988281 424.351563 80.148438 C 425.429688 80.269531 427.832031 79.910156 426.992188 81.828125 C 422.429688 82.550781 417.632813 82.671875 414.390625 86.628906 C 406.042969 102.519531 424.34375 114.519531 436.472656 103.429688 C 430.230469 100.910156 419.191406 105.710938 417.871094 96.109375 C 415.941406 87.222656 427.042969 83.621094 430.832031 90.46875 C 420.140625 84.519531 415.640625 96.820313 423.871094 100.910156 C 428.671875 102.109375 433.589844 100.191406 438.152344 100.910156 C 440.429688 89.988281 450.992188 82.3125 460.230469 77.148438 C 468.390625 59.75 459.992188 80.75 460.230469 84.46875 C 459.75 90.109375 460.230469 95.75 465.390625 98.75 C 471.269531 97.191406 474.390625 89.628906 480.992188 88.789063 C 481.472656 84.710938 484.351563 81.46875 488.671875 83.988281 C 492.269531 81.589844 490.832031 75.230469 497.3125 77.148438 C 499.710938 76.789063 501.75 74.75 502.109375 72.351563 C 500.910156 64.671875 515.550781 71.988281 511.589844 61.550781 C 511.710938 58.789063 515.429688 61.070313 517.230469 61.070313 C 505.949219 76.429688 488.910156 86.871094 472.710938 94.789063 "/>
</g>
</svg>
