<?xml version="1.0" encoding="UTF-8"?>
<svg xmlns="http://www.w3.org/2000/svg" xmlns:xlink="http://www.w3.org/1999/xlink" width="540pt" height="325pt" viewBox="0 0 540 325" version="1.1">
<g id="surface1">
<path style=" stroke:none;fill-rule:nonzero;fill:rgb(0%,0%,0%);fill-opacity:1;" d="M 538.894531 175.855469 C 517.703125 144.835938 432.679688 91.8125 393.742188 71.527344 C 394.753906 64.09375 393.617188 55.023438 394.753906 47.085938 C 392.359375 46.453125 389.082031 46.453125 386.5625 45.195313 C 384.421875 36.625 383.285156 27.679688 381.523438 18.859375 C 378.875 20.246094 376.105469 21.632813 373.332031 23.019531 C 368.292969 16.214844 363.628906 9.15625 358.84375 2.101563 C 358.464844 2.101563 358.339844 2.101563 357.960938 2.101563 C 355.691406 8.402344 353.800781 14.703125 350.652344 20.75 C 346.492188 13.945313 342.460938 6.636719 338.050781 0.339844 C 336.539063 10.292969 335.53125 20.625 332.128906 29.820313 C 325.199219 22.261719 319.402344 13.191406 313.480469 5.253906 C 310.332031 11.300781 309.199219 18.609375 305.292969 23.898438 C 301.636719 21.632813 297.730469 19.363281 293.953125 17.097656 C 291.808594 22.136719 293.070313 28.4375 290.800781 33.476563 C 287.527344 31.460938 283.871094 30.074219 280.847656 27.554688 C 276.5625 25.160156 276.816406 32.46875 275.429688 35.238281 C 275.554688 44.5625 266.484375 39.398438 261.820313 38.894531 C 259.679688 41.035156 260.8125 45.320313 257.285156 46.074219 C 253.253906 44.4375 249.601563 42.171875 245.441406 40.65625 C 243.679688 42.171875 242.796875 43.933594 241.410156 45.699219 C 229.1875 40.910156 215.957031 42.296875 201.972656 42.042969 C 200.839844 42.546875 199.578125 42.546875 198.695313 43.808594 C 184.960938 44.816406 176.140625 58.171875 164.296875 63.84375 C 162.40625 70.898438 155.980469 75.9375 156.109375 83.75 C 150.058594 91.183594 156.234375 100.632813 154.34375 109.203125 C 157.871094 115.125 160.644531 121.675781 165.179688 127.347656 C 171.730469 131.125 179.671875 132.765625 185.59375 137.300781 C 167.953125 138.6875 151.066406 144.734375 134.308594 137.300781 C 98.902344 119.535156 21.265625 72.386719 12.71875 100.128906 C 14.988281 120.792969 12.59375 140.070313 24.058594 156.828125 C 24.1875 166.28125 -7.714844 196.496094 1.882813 225.246094 C 46.234375 231.925781 87.816406 218.066406 125.742188 202.191406 C 147.539063 200.175781 171.355469 201.433594 188.363281 215.292969 C 180.175781 218.316406 171.226563 219.453125 162.910156 222.097656 C 160.769531 229.027344 159.886719 236.460938 157.871094 243.390625 C 152.9375 294.777344 195.042969 298.078125 209.65625 296.058594 C 213.3125 298.328125 217.21875 300.597656 220.996094 302.863281 C 228.808594 298.832031 236.496094 294.671875 243.679688 289.257813 C 245.0625 294.167969 246.070313 299.210938 248.214844 303.746094 C 256.277344 298.832031 262.828125 290.640625 270.390625 284.71875 C 274.546875 286.105469 278.957031 287.492188 283.117188 288.753906 C 283.871094 281.820313 283.492188 274.261719 283.621094 267.082031 C 291.558594 266.199219 301.132813 266.703125 309.828125 266.578125 C 322.804688 263.679688 308.441406 272.371094 307.183594 275.144531 C 303.402344 289.886719 303.148438 306.644531 302.140625 321.890625 C 303.402344 322.644531 303.402344 324.410156 304.914063 324.660156 C 323.308594 315.84375 339.5625 302.613281 359.722656 298.328125 C 374.339844 296.3125 377.742188 280.058594 386.058594 270.609375 C 427.007813 266.449219 464.179688 253.09375 495.804688 226.257813 C 505.378906 222.855469 516.46875 221.59375 522.640625 212.144531 C 526.925781 203.574219 538.390625 201.433594 538.894531 191.226563 C 533.855469 186.816406 541.039063 181.902344 538.894531 175.855469 Z M 529.445313 173.589844 C 539.125 178.855469 517.855469 195.765625 508.53125 200.300781 C 502.585938 193.976563 521.761719 177.871094 529.445313 173.589844 Z M 504.875 167.289063 C 507.648438 166.910156 509.664063 164.894531 512.6875 165.019531 C 512.058594 162.246094 506.890625 156.828125 513.570313 156.828125 C 516.71875 160.230469 521.003906 163.886719 524.027344 167.664063 C 524.152344 170.1875 506.367188 184.527344 474.132813 182.660156 C 466.195313 183.164063 462.035156 174.09375 453.71875 175.351563 C 452.710938 172.707031 457.246094 171.320313 457.753906 168.546875 C 457.855469 137.90625 496.914063 137.277344 494.542969 161.742188 C 492.652344 171.445313 490.890625 159.351563 489 158.214844 C 488.371094 160.609375 488.117188 163.507813 486.355469 165.902344 C 485.21875 168.042969 483.6875 147.988281 470.476563 158.59375 C 468.210938 157.335938 469.722656 154.4375 468.589844 152.671875 C 464.933594 154.8125 463.925781 158.59375 461.785156 161.742188 C 462.265625 176.96875 492.503906 185.15625 504.875 167.289063 Z M 502.230469 207.105469 C 489.253906 210.882813 476.398438 222.855469 461.785156 214.410156 C 454.980469 204.710938 450.695313 193.746094 450.445313 181.273438 C 463.546875 177.242188 471.109375 196.015625 484.085938 186.691406 C 486.984375 187.699219 488.242188 193.621094 492.277344 190.851563 C 493.914063 188.582031 496.183594 186.566406 497.191406 184.046875 C 505.757813 187.195313 494.394531 196.496094 502.230469 207.105469 Z M 377.867188 32.972656 C 378.121094 37.003906 379.003906 46.203125 380.640625 52.503906 C 382.90625 51.996094 385.679688 51.117188 387.445313 51.117188 C 386.5625 57.921875 385.300781 65.101563 385.175781 71.527344 C 382.152344 73.417969 377.363281 71.90625 373.835938 71.023438 C 375.222656 58.929688 374.464844 44.816406 377.867188 32.972656 Z M 361.992188 17.097656 C 364.261719 22.136719 366.527344 27.050781 368.796875 32.089844 C 370.183594 33.351563 371.566406 31.710938 372.953125 31.585938 C 373.078125 44.4375 369.175781 56.15625 369.300781 68.378906 C 367.660156 67.746094 365.644531 67.875 363.882813 67.875 C 362.621094 51.242188 360.605469 34.359375 361.992188 17.097656 Z M 361.992188 87.402344 C 367.914063 89.167969 375.097656 89.671875 381.523438 88.789063 C 405.566406 97.585938 410.628906 110.589844 411.007813 110.964844 C 426.253906 112.855469 448.050781 110.210938 453.214844 129.109375 C 453.089844 134.023438 453.71875 138.9375 458.632813 141.332031 C 466.949219 136.164063 477.660156 129.992188 487.234375 136.796875 C 488.242188 138.433594 489.882813 138.433594 490.890625 140.070313 C 483.328125 136.164063 471.863281 135.285156 465.058594 140.953125 C 462.792969 143.472656 458.257813 144.734375 458.257813 148.640625 C 455.105469 142.339844 452.207031 134.023438 444.648438 130.496094 C 441.496094 127.472656 440.488281 123.3125 439.105469 119.660156 C 426 113.863281 407.476563 123.0625 399.664063 106.429688 C 387.191406 104.160156 378.246094 93.578125 364.765625 93.703125 C 350.148438 94.082031 335.40625 96.980469 320.789063 94.710938 C 298.867188 101.515625 272.785156 94.082031 250.859375 101.011719 C 261.949219 93.828125 278.832031 90.050781 293.953125 93.703125 C 310.585938 88.410156 329.359375 88.664063 347.125 90.175781 C 351.660156 86.898438 357.582031 91.183594 361.992188 87.402344 Z M 384.292969 135.535156 C 368.394531 149.878906 406.824219 173.1875 411.886719 149.523438 C 420.835938 149.523438 432.046875 150.152344 438.222656 158.214844 C 427.765625 161.742188 414.785156 155.949219 406.972656 165.019531 C 402.414063 172.558594 432.027344 171.296875 429.652344 176.738281 C 432.65625 190.828125 387.925781 159.328125 389.710938 184.929688 C 369.929688 153.429688 338.554688 125.960938 304.410156 115.503906 C 299.371094 125.328125 301.636719 137.300781 297.226563 147.757813 C 287.753906 132.238281 275.808594 135.285156 272.28125 137.300781 C 265.476563 129.992188 256.027344 127.722656 247.332031 126.464844 C 248.339844 120.792969 232.339844 114.492188 243.679688 110.964844 C 267.742188 100.382813 297.355469 107.4375 322.554688 99.625 C 350.527344 101.011719 387.925781 95.066406 413.273438 128.730469 C 422.851563 130.117188 442.734375 132.238281 438.726563 141.835938 C 426.503906 139.945313 414.785156 136.039063 401.554688 138.183594 C 396.390625 135.914063 378.476563 115.226563 345.738281 120.039063 C 359.597656 122.808594 372.324219 127.851563 384.292969 135.535156 Z M 385.175781 217.5625 C 377.992188 211.515625 373.710938 202.695313 367.914063 195.386719 C 351.660156 173.964844 330.742188 153.804688 308.945313 139.0625 C 305.542969 135.285156 309.703125 132.636719 308.945313 128.226563 C 339.1875 153.300781 364.765625 182.660156 385.679688 213.90625 C 385.554688 215.167969 385.933594 216.679688 385.175781 217.5625 Z M 370.6875 207.105469 C 352.792969 196.269531 333.390625 189.714844 314.363281 181.777344 C 312.097656 177.621094 312.472656 174.34375 309.828125 170.4375 C 332.128906 175.730469 353.425781 188.457031 370.6875 207.105469 Z M 309.449219 159.476563 C 309.324219 155.191406 307.8125 151.410156 306.300781 147.757813 C 324.191406 155.949219 340.066406 170.1875 354.808594 185.433594 C 339.691406 176.738281 324.191406 169.179688 309.449219 159.476563 Z M 376.609375 217.5625 C 359.347656 212.648438 343.722656 203.703125 325.703125 200.804688 C 322.933594 196.898438 318.648438 193.746094 315.75 189.96875 C 338.050781 194.378906 358.085938 203.953125 376.609375 217.5625 Z M 376.984375 224.367188 C 377.617188 226.257813 375.472656 227.390625 374.339844 228.019531 C 367.285156 228.273438 360.730469 225.753906 353.929688 226.632813 C 345.484375 219.199219 335.28125 216.300781 327.59375 207.105469 C 345.109375 210.253906 361.867188 216.554688 376.984375 224.367188 Z M 311.71875 123.1875 C 345.988281 138.9375 382.027344 172.578125 391.097656 209.875 C 365.519531 180.644531 342.964844 148.011719 311.71875 123.1875 Z M 349.769531 32.46875 C 352.039063 31.710938 354.054688 30.453125 356.195313 29.316406 C 359.347656 40.28125 357.707031 54.390625 357.457031 66.488281 C 355.441406 67.242188 351.785156 67.242188 349.390625 66.488281 C 345.863281 49.476563 343.597656 30.199219 340.699219 13.0625 C 343.46875 19.238281 346.242188 26.167969 349.769531 32.46875 Z M 331.246094 39.273438 C 334.398438 37.128906 336.289063 34.484375 338.429688 32.972656 C 340.699219 44.4375 343.34375 55.777344 344.855469 67.496094 C 341.453125 67.117188 338.683594 68.378906 335.28125 67.875 C 332.003906 53.636719 325.199219 40.785156 320.789063 26.671875 C 324.316406 29.445313 326.710938 35.492188 331.246094 39.273438 Z M 310.332031 34.734375 C 311.59375 31.082031 313.355469 26.925781 313.984375 23.394531 C 319.78125 36.5 326.335938 51.871094 329.359375 67.496094 C 326.207031 68.503906 322.804688 69.007813 319.402344 69.765625 C 313.734375 56.910156 308.191406 44.058594 304.03125 30.703125 C 306.175781 32.089844 307.8125 34.359375 310.332031 34.734375 Z M 296.574219 43.40625 C 297.078125 42.523438 299.875 38.011719 300.378906 37.003906 C 303.652344 47.085938 310.207031 58.550781 312.097656 70.644531 C 307.6875 70.269531 304.535156 73.164063 300.378906 73.292969 C 294.457031 61.195313 290.425781 48.21875 283.621094 36.625 C 288.535156 38.011719 287.125 37.738281 296.574219 43.40625 Z M 278.578125 49.351563 C 280.46875 47.085938 280.21875 44.1875 282.234375 42.042969 C 286.894531 50.613281 291.054688 62.328125 294.457031 72.914063 C 292.3125 73.164063 290.425781 74.175781 288.15625 73.796875 C 279.839844 66.488281 275.050781 57.164063 269.507813 48.34375 C 272.40625 46.707031 275.304688 49.605469 278.578125 49.351563 Z M 260.4375 54.769531 C 262.074219 53.382813 262.828125 50.988281 263.585938 48.847656 C 271.144531 58.425781 277.949219 68 284.503906 77.828125 C 282.109375 79.96875 278.578125 81.105469 275.429688 81.984375 C 264.34375 74.550781 253.378906 64.09375 244.054688 53.886719 C 245.191406 40.027344 254.890625 54.894531 260.4375 54.769531 Z M 264.972656 83.75 C 263.207031 85.011719 260.4375 85.890625 258.167969 86.898438 C 244.433594 74.550781 230.070313 63.589844 216.839844 49.730469 C 234.203125 39.628906 249.324219 70.496094 264.972656 83.75 Z M 204.617188 47.085938 C 221.125 61.195313 238.261719 74.046875 254.136719 89.671875 C 251.617188 91.941406 248.339844 94.207031 245.441406 96.476563 C 225.910156 82.488281 206.003906 69.636719 186.976563 54.769531 C 190.003906 45.320313 202.476563 58.425781 204.617188 47.085938 Z M 175.132813 63.339844 C 178.15625 62.582031 181.9375 63.464844 184.207031 60.691406 C 201.214844 71.402344 220.871094 85.515625 238.261719 100.128906 C 237.125 101.769531 234.859375 104.160156 232.714844 105.546875 C 212.683594 91.5625 191.011719 81.859375 169.210938 72.03125 C 167.195313 69.007813 172.363281 65.101563 175.132813 63.339844 Z M 164.675781 76.945313 C 180.425781 81.105469 223.140625 105.296875 229.566406 110.085938 C 227.171875 112.855469 224.527344 114.621094 221.878906 116.886719 C 201.34375 106.179688 180.425781 95.59375 159.761719 86.523438 C 162.28125 83.625 165.304688 80.097656 164.675781 76.945313 Z M 162.03125 93.703125 C 181.054688 100.761719 198.949219 110.714844 217.34375 119.660156 C 217.09375 122.054688 214.445313 123.566406 212.808594 125.457031 C 195.421875 121.929688 179.417969 114.871094 162.40625 110.589844 C 160.519531 107.1875 161.148438 94.710938 162.03125 93.703125 Z M 166.566406 120.542969 C 165.558594 119.660156 164.296875 119.535156 163.414063 118.273438 C 177.652344 120.792969 192.144531 123.816406 205.121094 128.730469 C 199.828125 131 171.226563 127.722656 166.566406 120.542969 Z M 21.414063 98.238281 C 47.09375 98.847656 98.023438 126.84375 117.046875 136.417969 C 112.132813 138.054688 107.09375 141.078125 102.179688 137.300781 C 75.59375 122.558594 45.226563 116.761719 16.878906 106.429688 C 14.230469 102.648438 19.273438 100.761719 21.414063 98.238281 Z M 19.523438 112.855469 C 48.882813 119.40625 76.476563 129.992188 103.0625 143.222656 C 98.777344 145.488281 93.613281 148.515625 88.949219 144.984375 C 66.773438 136.542969 43.339844 129.613281 20.53125 123.691406 C 19.398438 120.289063 20.53125 116.257813 19.523438 112.855469 Z M 29.605469 148.640625 C 50.394531 152.292969 71.308594 155.949219 92.101563 159.476563 C 94.367188 161.113281 95.753906 163.886719 95.753906 166.785156 C 73.703125 168.675781 52.535156 165.398438 31.871094 162.753906 C 35.273438 157.964844 31.492188 152.796875 29.605469 148.640625 Z M 23.179688 130.496094 C 47.117188 134.148438 70.679688 143.097656 93.484375 151.789063 C 93.738281 153.175781 93.109375 154.183594 92.101563 154.941406 C 71.058594 150.277344 50.015625 145.742188 27.714844 143.601563 C 20.636719 141.058594 23.304688 132.765625 23.179688 130.496094 Z M 27.714844 169.554688 C 49.636719 170.691406 73.703125 169.050781 95.753906 170.816406 C 92.605469 173.964844 94.242188 182.15625 88.066406 180.894531 C 66.648438 182.03125 16.753906 185.433594 13.222656 185.808594 C 14.105469 178.878906 21.539063 173.589844 27.714844 169.554688 Z M 14.609375 190.347656 C 39.304688 188.707031 64.757813 186.441406 90.335938 185.433594 C 100.164063 189.085938 86.050781 189.339844 83.53125 190.347656 C 60.097656 196.644531 34.519531 198.15625 10.453125 203.070313 C 7.679688 198.15625 13.476563 194.378906 14.609375 190.347656 Z M 11.460938 207.609375 C 38.800781 201.558594 68.035156 198.535156 95.375 193.496094 C 96.007813 194.757813 97.390625 194.503906 98.023438 195.765625 C 70.175781 205.339844 40.1875 211.640625 10.074219 216.679688 C 8.4375 213.90625 10.957031 210.253906 11.460938 207.609375 Z M 106.210938 205.339844 C 77.105469 214.664063 48.253906 224.617188 14.609375 222.980469 C 43.339844 213.152344 73.554688 211.617188 103.441406 199.417969 C 104.574219 200.929688 108.101563 202.695313 106.210938 205.339844 Z M 200.964844 222.980469 C 202.351563 224.996094 211.800781 228.273438 205.121094 228.902344 C 193.277344 231.296875 182.0625 235.203125 169.714844 236.210938 C 169.085938 234.066406 167.449219 231.546875 166.945313 228.902344 C 177.78125 225.625 189.496094 224.238281 200.964844 222.980469 Z M 163.792969 243.894531 C 179.417969 241.753906 193.53125 235.582031 209.152344 233.4375 C 212.683594 234.570313 216.210938 235.832031 219.109375 238.476563 C 200.585938 242.132813 183.449219 249.0625 165.179688 253.472656 C 163.414063 250.828125 164.929688 246.792969 163.792969 243.894531 Z M 165.179688 259.773438 C 183.449219 251.960938 203.734375 246.792969 222.382813 242.132813 C 224.527344 243.015625 226.542969 243.894531 228.683594 244.777344 C 209.53125 256.117188 188.238281 262.292969 166.945313 268.84375 C 165.054688 266.324219 167.070313 262.292969 165.179688 259.773438 Z M 168.835938 274.261719 C 184.457031 267.835938 200.839844 263.550781 216.460938 257 C 224.652344 255.613281 233.21875 246.039063 240.90625 252.464844 C 218.351563 263.550781 195.796875 274.640625 171.480469 281.570313 C 171.480469 278.671875 166.816406 277.285156 168.835938 274.261719 Z M 181.054688 286.484375 C 182.566406 284.34375 185.214844 283.460938 187.355469 281.949219 C 206.128906 274.640625 223.769531 264.8125 242.292969 257 C 244.558594 257 245.695313 259.269531 247.710938 259.773438 C 229.1875 271.238281 210.792969 283.082031 190.128906 289.761719 C 186.601563 289.761719 183.828125 287.996094 181.054688 286.484375 Z M 221.375 297.824219 C 218.476563 295.808594 217.21875 292.910156 214.195313 291.019531 C 209.40625 290.894531 205.375 293.035156 200.585938 292.910156 C 218.855469 285.097656 235.234375 272.75 252.246094 262.039063 C 255.648438 261.285156 258.042969 263.300781 260.941406 263.804688 C 246.574219 274.261719 237.125 290.011719 221.375 297.824219 Z M 268.121094 277.035156 C 262.324219 282.957031 258.925781 289.761719 252.246094 295.179688 C 251.617188 294.925781 251.488281 293.539063 250.859375 292.910156 C 248.464844 280.058594 266.335938 262.648438 274.925781 263.804688 C 277.320313 268.84375 277.824219 274.765625 278.074219 280.6875 C 274.675781 279.554688 271.019531 279.429688 268.121094 277.035156 Z M 339.3125 267.082031 C 330.617188 270.734375 322.554688 276.152344 313.105469 277.914063 C 323.035156 263.277344 339.058594 266.324219 339.3125 267.082031 Z M 348.382813 270.609375 C 348.382813 270.984375 348.382813 271.238281 348.382813 271.617188 C 336.917969 278.417969 324.570313 283.460938 313.105469 290.136719 C 312.222656 288.625 312.726563 286.734375 312.097656 285.222656 C 323.183594 277.539063 336.289063 274.136719 348.382813 270.609375 Z M 367.535156 267.960938 C 367.660156 268.214844 367.914063 268.464844 368.417969 268.339844 C 349.519531 282.957031 329.988281 296.1875 308.945313 305.636719 C 305.394531 290.996094 348.867188 280.917969 367.535156 267.960938 Z M 308.945313 318.234375 C 309.324219 316.597656 308.191406 314.078125 309.828125 311.9375 C 321.042969 301.855469 377.113281 271.363281 377.488281 271.992188 C 373.457031 292.40625 333.117188 297.925781 308.945313 318.234375 Z M 361.109375 260.277344 C 328.726563 251.457031 292.945313 268.464844 262.199219 254.355469 C 244.914063 252.566406 191.996094 189.566406 116.671875 193.496094 C 105.6875 190.828125 104.449219 172.957031 107.597656 168.171875 C 108.226563 166.152344 107.976563 163.886719 109.363281 162.246094 C 122.464844 166.53125 129.523438 188.078125 146.152344 184.929688 C 154.847656 191.984375 168.078125 191.859375 177.90625 192.234375 C 181.9375 196.773438 188.992188 194.378906 194.160156 196.269531 C 206.382813 207.230469 225.535156 197.023438 238.261719 206.726563 C 242.292969 209.75 246.449219 214.035156 252.246094 211.640625 C 247.078125 206.726563 241.03125 201.183594 240.90625 193.496094 C 222.132813 188.707031 197.4375 194.253906 186.472656 174.09375 C 175.511719 164.265625 150.691406 176.359375 149.304688 154.941406 C 130.253906 158.066406 141.238281 169.050781 141.996094 169.933594 C 131.515625 168.148438 101.273438 156.175781 125.238281 145.867188 C 127.128906 145.488281 131.914063 146.246094 132.546875 146.875 C 128.136719 147.378906 110.726563 155.546875 133.429688 163.128906 C 133.429688 157.082031 139.351563 154.8125 143.886719 153.175781 C 150.941406 153.933594 155.101563 148.011719 162.40625 149.523438 C 144.746094 159.957031 163.015625 166.886719 169.210938 164.515625 C 167.425781 147.988281 178.136719 144.835938 185.089844 146.371094 C 161.753906 157.4375 176.875 169.40625 186.976563 169.933594 C 188.238281 166.027344 191.136719 162.625 195.167969 160.863281 C 201.847656 159.351563 182.546875 174.445313 203.230469 182.15625 C 210.539063 184.550781 218.351563 186.816406 225.910156 187.195313 C 220.746094 184.296875 221.125 177.492188 221.878906 172.203125 C 194.515625 147.355469 223.769531 142.71875 225.03125 140.953125 C 221.753906 138.433594 215.304688 130.347656 226.921875 125.078125 C 221.605469 136.015625 232.085938 142.464844 235.992188 143.222656 C 208.375 145.46875 215.9375 161.21875 225.910156 168.171875 C 230.574219 165.648438 235.488281 162.625 241.410156 164.515625 C 215.9375 175.078125 232.945313 190.195313 242.796875 190.851563 C 246.324219 188.203125 250.734375 187.449219 255.394531 187.195313 C 252.875 189.085938 234.203125 197.757813 267.238281 211.640625 C 272.785156 208.113281 279.460938 204.078125 279.964844 196.773438 C 267.230469 189.777344 265.554688 173.851563 268.765625 172.867188 C 260.589844 170.394531 249.441406 157.089844 262.703125 150.90625 C 261.296875 154.917969 256.253906 168.777344 279.460938 171.824219 C 276.058594 174.21875 264.445313 182.007813 283.117188 194 C 293.425781 193.347656 297.226563 180.015625 296.21875 175.855469 C 285.234375 177.597656 270.746094 156.175781 289.039063 154.5625 C 281.453125 160.585938 289.644531 178.855469 304.410156 167.664063 C 303.78125 182.40625 317.367188 218.546875 352.921875 232.050781 C 360.480469 233.4375 369.679688 232.429688 376.984375 232.050781 C 382.402344 226.257813 393.113281 226.632813 394.753906 217.183594 C 394.878906 212.144531 402.941406 203.703125 404.203125 204.835938 C 422.976563 222.097656 443.386719 235.328125 467.328125 239.863281 C 436.710938 258.132813 400.171875 264.9375 361.109375 260.277344 Z M 494.542969 219.828125 C 484.84375 225.121094 475.769531 231.546875 464.554688 233.058594 C 452.710938 228.398438 440.113281 226.128906 430.535156 216.175781 C 428.644531 209.75 437.71875 210.003906 439.105469 204.835938 C 435.324219 203.953125 430.914063 203.070313 427.386719 202.566406 C 421.339844 192.109375 410.375 191.480469 402.4375 184.425781 C 415.289063 189.339844 429.78125 196.140625 444.648438 190.851563 C 449.183594 203.953125 451.957031 222.476563 469.09375 224.367188 C 484.464844 221.214844 498.828125 215.167969 512.183594 207.105469 C 516.34375 207.859375 518.359375 205.84375 522.136719 207.105469 C 515.585938 216.804688 503.992188 216.300781 494.542969 219.828125 Z M 514.453125 201.6875 C 518.484375 199.292969 524.910156 193.242188 530.832031 190.347656 C 536.25 189.464844 534.085938 200.90625 514.453125 201.6875 "/>
</g>
</svg>
