<?xml version="1.0" encoding="UTF-8"?>
<svg xmlns="http://www.w3.org/2000/svg" xmlns:xlink="http://www.w3.org/1999/xlink" width="528pt" height="199pt" viewBox="0 0 528 199" version="1.1">
<g id="surface1">
<path style=" stroke:none;fill-rule:nonzero;fill:rgb(0%,0%,0%);fill-opacity:1;" d="M 525.671875 116.238281 C 517.222656 118.195313 508.675781 121.386719 499.402344 120.667969 C 505.6875 112.324219 515.882813 105.628906 519.386719 96.152344 C 458.449219 52.421875 385.796875 51.449219 361.488281 47.640625 C 356.234375 38.472656 353.867188 27.761719 349.230469 18.695313 C 346.757813 21.167969 344.90625 24.566406 341.816406 26.113281 C 335.429688 20.449219 328.734375 13.339844 322.554688 7.160156 C 321.316406 9.734375 323.6875 14.78125 319.15625 14.988281 C 312.460938 10.046875 306.175781 4.277344 299.171875 0.15625 C 302.367188 4.480469 309.371094 16.226563 308.753906 17.5625 C 299.996094 13.136719 291.859375 5.101563 283.207031 2.011719 C 288.152344 7.777344 293.507813 12.207031 298.453125 17.976563 C 297.835938 18.59375 266.625 -1.902344 285.472656 14.988281 C 288.253906 16.738281 286.195313 19.933594 284.648438 21.269531 C 279.601563 21.375 275.585938 17.046875 271.363281 16.84375 C 274.351563 21.476563 280.941406 26.421875 277.234375 31.984375 C 272.703125 31.984375 269.613281 28.894531 265.390625 27.96875 C 266.417969 30.746094 270.746094 38.164063 269.097656 38.371094 C 265.183594 37.753906 253.75 27.453125 260.238281 39.8125 C 256.632813 42.695313 253.132813 36.722656 249.835938 37.238281 C 251.277344 40.84375 253.957031 44.035156 253.957031 48.359375 C 249.113281 47.949219 242.625 49.285156 237.992188 47.226563 C 229.546875 41.5625 221.820313 34.351563 213.167969 29.410156 C 210.078125 28.789063 199.46875 20.652344 202.765625 30.539063 C 192.773438 25.699219 184.121094 17.769531 173.410156 14.578125 C 173.410156 15.09375 173.824219 55.855469 144.878906 63.191406 C 144.980469 65.046875 146.320313 66.898438 145.289063 68.753906 C 125.101563 74.421875 103.78125 69.371094 88.125 57.21875 C 65.570313 33.632813 39.921875 12.003906 11.082031 3.863281 C 15.40625 18.078125 32.460938 79.203125 0.679688 100.273438 C 8.917969 104.1875 17.570313 107.277344 26.945313 108.410156 C 56.0625 112.164063 112.371094 98.429688 134.886719 113.25 C 133.136719 114.589844 130.871094 115 128.914063 115.824219 C 152.882813 133.105469 148.484375 148.785156 148.277344 157.335938 C 155.589844 156.511719 162.285156 153.933594 170.113281 154.347656 C 175.882813 159.496094 182.886719 152.289063 188.652344 156.203125 C 203.898438 150.125 218.007813 160.21875 233.871094 159.1875 C 269.097656 168.457031 307.824219 171.652344 345.109375 173.710938 C 338.621094 177.933594 331 181.539063 324.40625 185.554688 C 337.796875 187.101563 350.980469 184.730469 362.519531 181.847656 C 360.5625 187.308594 357.367188 193.074219 358.089844 198.84375 C 369.625 193.074219 383.222656 189.058594 390.738281 176.59375 C 416.902344 169.695313 440.695313 157.128906 465.621094 147.34375 C 485.808594 141.371094 507.542969 139.308594 525.359375 127.671875 C 525.566406 123.757813 529.894531 119.636719 525.671875 116.238281 Z M 515.371094 96.871094 C 502.804688 106.96875 496.519531 120.152344 484.160156 130.65625 C 481.996094 129.007813 481.171875 126.640625 479.730469 124.683594 C 492.296875 117.269531 500.023438 102.640625 512.691406 95.433594 C 513.722656 95.535156 514.546875 95.945313 515.371094 96.871094 Z M 504.964844 91.3125 C 504.964844 93.476563 501.980469 91.828125 500.847656 92.855469 C 500.023438 92.445313 499.609375 91.3125 498.683594 90.589844 C 500.230469 90.382813 503.628906 91.105469 504.964844 91.3125 Z M 469.265625 86.160156 C 474.125 86.160156 478.0625 90.097656 478.0625 94.957031 C 478.0625 99.816406 474.125 103.753906 469.265625 103.753906 C 464.40625 103.753906 460.46875 99.816406 460.46875 94.957031 C 460.46875 90.097656 464.40625 86.160156 469.265625 86.160156 Z M 358.808594 68.34375 C 362.3125 74.730469 365.8125 81.21875 369.214844 87.605469 C 371.480469 85.644531 373.332031 83.378906 374.773438 81.011719 C 367.667969 60.71875 377.144531 83.996094 379.203125 87.296875 C 381.160156 89.355469 388.472656 87.5 388.472656 86.882813 C 384.558594 81.011719 381.574219 74.625 378.175781 68.34375 C 382.910156 74.316406 389.472656 80.921875 393.902344 87.101563 C 396.683594 83.597656 395.785156 74.109375 395.578125 73.90625 C 397.742188 78.539063 400.421875 82.867188 402.996094 87.296875 C 405.570313 85.953125 407.839844 83.175781 409.691406 81.011719 C 408.25 77.714844 407.941406 74.007813 407.015625 70.609375 C 409.898438 77.097656 413.398438 83.175781 416.695313 89.457031 C 420.816406 90.179688 426.070313 91.414063 429.671875 89.871094 C 425.246094 81.21875 419.785156 73.078125 414.121094 65.046875 C 422.773438 72.769531 427.40625 82.246094 432.96875 91.3125 C 435.234375 92.136719 437.605469 92.753906 439.664063 93.988281 C 421.226563 94.09375 402.171875 92.546875 384.457031 91.003906 C 381.882813 95.019531 379.101563 98.828125 377.351563 103.257813 C 372.304688 98.726563 363.34375 89.457031 363.34375 89.457031 L 359.222656 99.550781 L 352.9375 88.734375 L 344.800781 97.699219 L 335.121094 88.734375 C 335.121094 88.734375 333.058594 96.050781 332.855469 98.417969 C 328.734375 95.019531 321.007813 88.734375 321.007813 88.734375 C 321.007813 88.734375 316.269531 96.460938 314.726563 100.582031 C 310.296875 98.007813 302.46875 89.148438 302.46875 89.148438 L 296.90625 100.582031 L 290.625 91.3125 L 285.78125 102.125 L 278.367188 89.871094 L 286.914063 82.453125 L 292.890625 89.148438 L 301.746094 81.320313 L 307.722656 87.296875 L 309.886719 83.585938 C 309.886719 83.585938 304.117188 69.992188 302.882813 63.191406 C 307.207031 71.019531 309.988281 79.671875 315.136719 87.296875 C 317.816406 86.058594 324.613281 89.355469 321.730469 83.894531 C 319.773438 78.539063 318.226563 72.976563 317.300781 67.210938 C 319.980469 72.875 323.171875 80.496094 326.570313 86.882813 C 328.21875 84.515625 328.835938 77.613281 328.835938 77.613281 C 328.835938 77.613281 334.398438 88.222656 341.402344 86.882813 C 342.742188 85.644531 343.257813 83.585938 344.390625 82.453125 C 345.421875 83.996094 345.933594 85.75 347.378906 87.296875 C 349.847656 86.574219 356.027344 89.148438 354.792969 85.027344 C 352.9375 80.1875 350.980469 75.554688 349.539063 70.609375 C 352.320313 75.242188 354.175781 80.1875 356.953125 84.71875 C 359.632813 83.894531 360.355469 81.113281 362.519531 79.464844 C 361.488281 75.757813 360.457031 71.84375 358.808594 68.34375 Z M 378.175781 118.089844 L 374.054688 125.507813 L 369.625 119.535156 L 374.054688 113.25 Z M 361.074219 112.53125 L 356.953125 118.089844 L 351.085938 110.675781 L 357.78125 103.980469 Z M 349.953125 110.984375 L 345.109375 116.238281 L 340.683594 109.851563 L 346.65625 103.570313 Z M 339.238281 109.128906 L 333.988281 114.691406 L 328.835938 108.410156 L 322.554688 115.414063 L 316.996094 105.984375 L 321.007813 99.550781 L 326.984375 107.277344 L 333.679688 101.40625 Z M 315.136719 128.390625 C 309.679688 121.078125 304.839844 113.558594 302.160156 105.113281 C 303.5 102.433594 305.457031 96.5625 305.457031 96.5625 L 314.003906 106.554688 L 308.757813 112.851563 C 308.757813 112.851563 312.460938 123.859375 315.136719 128.390625 Z M 327.292969 15.710938 C 333.265625 22.921875 339.34375 29.71875 345.523438 36.105469 C 347.066406 33.835938 346.964844 30.027344 349.539063 28.6875 C 351.1875 34.660156 355.203125 47.640625 354.070313 47.640625 C 349.023438 47.433594 343.976563 47.328125 339.238281 46.816406 C 334.914063 39.398438 330.074219 31.984375 324.71875 24.980469 C 325.230469 21.785156 326.054688 18.695313 327.292969 15.710938 Z M 316.167969 20.140625 C 327.296875 30.792969 333.78125 48.15625 334.398438 48.671875 C 328.117188 43.933594 321.628906 36.308594 315.859375 29.820313 C 316.375 26.730469 316.167969 22.609375 316.167969 20.140625 Z M 327.703125 48.359375 C 326.160156 48.464844 324.511719 49.699219 322.863281 48.671875 C 316.683594 42.796875 310.398438 37.238281 304.324219 30.953125 C 305.042969 28.277344 302.777344 22.40625 302.46875 20.859375 C 311.84375 29.304688 320.492188 38.679688 327.703125 48.359375 Z M 305.867188 37.238281 C 307 41.152344 328.941406 55.054688 309.164063 49.082031 C 303.191406 43.105469 296.082031 38.886719 290.625 32.394531 C 288.769531 15.914063 300.925781 35.175781 305.867188 37.238281 Z M 288.050781 35.382813 C 293.507813 39.398438 299.171875 43.003906 302.882813 49.082031 C 299.378906 49.082031 294.949219 49.082031 291.035156 49.082031 C 288.253906 47.019531 285.988281 44.34375 283.207031 41.664063 C 285.164063 39.503906 281.867188 30.230469 288.050781 35.382813 Z M 283.207031 47.226563 C 283.003906 48.359375 281.355469 49.082031 280.222656 49.492188 C 277.441406 48.257813 274.660156 47.019531 272.496094 44.652344 C 274.246094 33.425781 279.191406 46.609375 283.207031 47.226563 Z M 236.445313 65.046875 L 244.988281 76.46875 C 244.992188 76.46875 244.996094 76.46875 245 76.46875 L 248.703125 68.34375 L 255.808594 76.890625 L 262.09375 69.476563 L 271.671875 76.890625 L 278.367188 68.34375 L 287.636719 77.304688 L 292.890625 68.035156 L 297.628906 77.304688 L 294.742188 84.308594 L 283.621094 78.746094 L 279.5 85.75 L 270.304688 78.171875 L 265.015625 85.144531 L 256.570313 78.859375 L 253.542969 83.175781 C 253.542969 83.175781 249.414063 76.21875 245 76.46875 L 244.996094 76.480469 L 244.988281 76.46875 C 244.886719 76.476563 244.785156 76.464844 244.6875 76.480469 C 243.65625 78.335938 240.566406 81.730469 240.566406 81.730469 L 234.28125 75.449219 Z M 241.285156 90.589844 L 246.128906 82.039063 L 254.265625 90.28125 L 256.914063 82.292969 L 265.390625 90.28125 L 271.332031 81.261719 L 274.660156 89.871094 C 274.660156 89.871094 237.371094 91.621094 217.90625 92.445313 C 217.492188 92.03125 220.171875 81.320313 220.171875 81.320313 L 227.589844 91.3125 L 232.738281 80.601563 Z M 215.023438 83.585938 L 210.179688 75.035156 L 203.484375 83.894531 L 197.203125 72.050781 L 201.632813 65.046875 L 210.179688 73.59375 L 213.167969 66.179688 L 217.90625 73.59375 Z M 222.027344 73.59375 L 225.011719 65.355469 L 230.164063 75.035156 L 226.867188 84.308594 Z M 184.535156 24.257813 C 194.730469 30.128906 205.238281 36.308594 216.050781 39.398438 C 215.125 37.441406 213.375 35.691406 212.035156 33.835938 C 219.761719 35.691406 225.632813 41.871094 231.707031 47.640625 C 228.925781 49.90625 224.601563 50.007813 220.894531 50.9375 C 211.3125 45.992188 202.972656 37.855469 191.949219 36.105469 C 191.539063 36.617188 191.023438 37.132813 190.507813 37.546875 C 197.101563 41.769531 203.28125 47.535156 209.460938 52.066406 C 201.941406 49.597656 194.730469 42.285156 186.386719 39.8125 C 185.667969 40.945313 184.535156 40.945313 183.8125 42.078125 C 189.992188 45.890625 195.65625 50.628906 201.632813 55.054688 C 201.117188 55.878906 199.261719 54.953125 198.335938 55.777344 C 191.742188 52.171875 185.253906 48.671875 178.664063 44.960938 C 177.222656 45.578125 176.292969 47.433594 174.953125 47.949219 C 179.589844 51.554688 184.738281 55.671875 190.097656 58.351563 C 182.269531 62.058594 177.839844 53.097656 171.554688 49.492188 C 171.039063 49.597656 186.1875 33.539063 184.535156 24.257813 Z M 195.347656 85.75 C 191.742188 81.9375 178.972656 75.757813 178.972656 75.757813 C 178.972656 75.757813 185.152344 68.136719 188.242188 64.324219 C 183.78125 75.085938 191.640625 78.230469 195.347656 85.75 Z M 164.550781 55.777344 C 166.304688 54.851563 168.363281 53.613281 169.394531 51.65625 C 171.761719 54.335938 172.894531 57.527344 175.265625 60.203125 C 173.203125 60.308594 171.453125 61.441406 169.394531 61.648438 C 167.847656 59.792969 163.726563 58.660156 164.550781 55.777344 Z M 175.675781 66.488281 C 173.203125 68.34375 171.453125 74.007813 168.261719 72.050781 C 170.011719 69.371094 173.820313 67.929688 175.675781 66.488281 Z M 160.121094 60.925781 C 160.535156 62.367188 161.460938 63.503906 161.566406 65.046875 C 159.09375 64.839844 155.796875 68.753906 154.148438 65.046875 C 155.179688 62.984375 157.753906 61.546875 160.121094 60.925781 Z M 58.460938 78.335938 C 59.59375 79.464844 57.535156 81.011719 57.742188 82.453125 C 46.925781 84.824219 34.976563 83.175781 24.78125 80.601563 C 23.957031 82.039063 22.410156 83.277344 21.382813 84.71875 C 31.578125 90.179688 45.175781 89.871094 57.742188 89.148438 C 58.460938 89.664063 58.050781 90.589844 58.152344 91.3125 C 45.382813 94.605469 30.960938 92.960938 17.675781 92.855469 C 17.160156 94.09375 12.316406 97.699219 16.644531 98.007813 C 28.695313 100.582031 43.011719 100.992188 55.578125 99.140625 C 55.269531 100.476563 55.988281 101.40625 56.300781 102.433594 C 41.15625 106.660156 22.824219 106.246094 8.816406 99.859375 C 38.640625 69.675781 18.394531 16.84375 15.820313 10.558594 C 16.644531 9.734375 56.710938 28.277344 72.265625 46.09375 C 55.679688 35.691406 39.921875 22.921875 21.382813 17.152344 C 21.175781 17.976563 21.898438 19.109375 22.207031 20.140625 C 39.40625 29.921875 56.503906 40.222656 72.265625 53.511719 C 71.75 54.953125 71.75 56.496094 70.71875 57.628906 C 55.476563 46.816406 40.230469 35.691406 23.648438 27.96875 C 23.234375 30.230469 24.367188 32.808594 25.089844 34.972656 C 38.273438 41.5625 51.5625 48.050781 63.304688 57.9375 C 51.871094 51.964844 40.128906 46.300781 28.488281 40.53125 C 28.28125 43.3125 28.695313 46.710938 29.621094 49.492188 C 40.746094 53.203125 50.941406 58.765625 61.859375 62.78125 C 62.480469 63.398438 62.167969 65.046875 62.167969 66.179688 C 51.664063 61.546875 41.363281 56.085938 30.34375 52.378906 C 29.519531 54.539063 30.238281 56.910156 31.0625 58.765625 C 40.335938 63.089844 50.839844 64.738281 60.007813 69.476563 C 58.359375 79.261719 33.226563 74.109375 31.476563 73.59375 C 30.035156 74.523438 30.960938 76.480469 30.34375 77.613281 C 39.511719 78.4375 49.191406 79.261719 58.460938 78.335938 Z M 64.847656 83.894531 C 64.023438 89.871094 65.878906 95.636719 67.730469 100.992188 C 66.394531 101.816406 64.332031 100.890625 62.992188 101.714844 C 57.953125 70.191406 73.292969 62.058594 74.117188 61.339844 C 69.484375 64.738281 84.726563 74.625 86.683594 72.460938 C 86.582031 70.402344 86.890625 68.136719 86.683594 66.488281 C 95.953125 75.140625 109.859375 72.566406 120.777344 77.304688 C 183.761719 73.769531 196.582031 94.027344 200.320313 94.007813 C 200.378906 94 200.4375 93.996094 200.5 93.988281 C 200.441406 94 200.382813 94.007813 200.320313 94.007813 C 164.632813 97.890625 127.316406 94.585938 95.953125 82.453125 C 88.847656 81.320313 94.613281 72.566406 89.671875 69.886719 C 87.507813 80.394531 84.417969 90.488281 76.691406 98.726563 C 71.027344 95.121094 68.246094 88.324219 64.847656 83.894531 Z M 173.820313 151.773438 C 166.816406 147.960938 159.609375 152.699219 152.296875 152.492188 C 153.839844 139.308594 148.585938 125.917969 136.742188 118.8125 C 141.890625 116.855469 148.792969 117.578125 153.839844 119.535156 C 152.5 121.800781 143.335938 122.625 150.851563 126.226563 C 155.695313 126.433594 160.226563 122.625 164.550781 125.09375 C 162.492188 127.773438 158.886719 129.832031 155.695313 131.070313 C 154.765625 131.378906 155.898438 131.585938 155.695313 132.097656 C 160.742188 133.027344 165.992188 133.4375 171.554688 133.230469 C 167.746094 134.570313 163.832031 135.910156 159.710938 136.941406 C 159.8125 137.660156 160.742188 138.175781 161.257813 138.792969 C 166.921875 138.074219 174.027344 138.589844 178.25 139.207031 C 174.234375 141.574219 169.496094 142.605469 165.273438 144.769531 C 165.789063 145.179688 166.304688 145.796875 166.816406 146.210938 C 172.484375 146.003906 178.355469 145.179688 183.8125 145.488281 C 184.636719 145.695313 178.148438 147.445313 177.941406 149.609375 C 178.25 150.226563 196.789063 149.609375 197.511719 150.332031 C 190.199219 155.789063 181.753906 149.09375 173.820313 151.773438 Z M 362.929688 192.25 C 364.476563 186.585938 369.726563 182.363281 373.640625 177.726563 C 377.246094 176.699219 381.058594 176.699219 384.765625 176.285156 C 384.148438 184.835938 367.210938 191.472656 362.929688 192.25 Z M 372.199219 172.578125 C 363.238281 177.214844 353.246094 180.304688 342.949219 180.714844 C 353.144531 173.816406 367.152344 172.886719 375.1875 161.453125 C 368.390625 162.898438 361.488281 166.296875 354.378906 168.148438 C 307.414063 168.664063 263.226563 158.054688 217.90625 152.183594 C 196.996094 144.046875 177.601563 103.582031 82.253906 98.417969 C 86.167969 94.8125 88.433594 90.589844 90.390625 86.160156 C 174.855469 109.761719 246.4375 97.699219 268.789063 97.285156 C 271.878906 100.582031 272.597656 107.277344 278.367188 108.820313 C 280.839844 112.53125 277.542969 120.460938 284.648438 120.253906 C 292.785156 122.417969 293.097656 131.894531 298.761719 136.632813 C 310.710938 140.03125 325.851563 141.164063 338.105469 138.484375 C 341.503906 141.265625 346.242188 140.648438 350.363281 141.78125 C 354.484375 143.945313 356.542969 148.886719 360.664063 151.050781 C 364.785156 151.667969 369.109375 151.667969 373.332031 152.183594 C 376.222656 147.957031 357.164063 148.984375 353.660156 138.484375 C 343.875 137.96875 336.046875 132.820313 327.703125 128.804688 C 344.546875 121.949219 380.027344 132.511719 398.15625 132.097656 C 397.742188 133.027344 398.878906 133.230469 398.878906 133.644531 C 381.371094 135.59375 349.441406 129.414063 343.976563 133.230469 C 352.527344 139.308594 365.300781 134.054688 375.90625 136.21875 C 380.128906 135.910156 383.839844 136.734375 387.753906 136.941406 C 374.980469 137.765625 366.226563 136.011719 355.515625 137.660156 C 362.210938 147.035156 387.753906 136.941406 400.730469 143.636719 C 403.304688 142.195313 404.542969 139.515625 405.570313 136.941406 C 408.25 135.808594 411.339844 135.5 413.710938 133.644531 C 407.734375 132.097656 401.761719 130.347656 395.578125 129.523438 C 394.242188 122.417969 380.75 116.339844 390.328125 108.820313 C 390.328125 108.71875 393.730469 117.054688 398.566406 120.253906 C 399.289063 120.5625 399.804688 121.179688 400.730469 120.976563 C 400.214844 115.414063 396.300781 110.160156 394.035156 104.703125 C 394.140625 103.671875 395.273438 103.054688 395.578125 102.125 C 401.65625 113.664063 410.207031 123.34375 420.816406 132.097656 C 423.699219 132.71875 423.597656 134.160156 421.84375 136.21875 C 430.1875 142.605469 439.769531 146.3125 449.65625 148.785156 C 425.347656 160.21875 401.039063 174.019531 372.199219 172.578125 Z M 466.34375 141.78125 C 445.433594 136.734375 423.597656 131.480469 408.867188 113.558594 C 416.695313 110.367188 422.054688 100.148438 446.359375 101.40625 C 453.773438 105.730469 473.898438 116.625 484.882813 101.714844 C 488.898438 102.230469 493.121094 102.230469 496.828125 103.257813 C 494.769531 108.203125 490.648438 112.425781 487.558594 116.957031 C 483.027344 118.8125 478.597656 120.667969 474.171875 122.519531 C 475.199219 127.671875 479.523438 134.054688 485.292969 136.21875 C 488.382813 134.675781 489.515625 130.246094 493.121094 128.804688 C 504.453125 128.390625 513.617188 122.726563 523.816406 119.535156 C 525.152344 123.960938 495.527344 140.660156 466.34375 141.78125 "/>
<path style=" stroke:none;fill-rule:nonzero;fill:rgb(0%,0%,0%);fill-opacity:1;" d="M 469.09375 101.652344 C 472.578125 101.652344 475.402344 98.824219 475.402344 95.339844 C 475.402344 91.855469 472.578125 89.027344 469.09375 89.027344 C 465.605469 89.027344 462.78125 91.855469 462.78125 95.339844 C 462.78125 98.824219 465.605469 101.652344 469.09375 101.652344 "/>
</g>
</svg>
