<?xml version="1.0" encoding="UTF-8"?>
<svg xmlns="http://www.w3.org/2000/svg" xmlns:xlink="http://www.w3.org/1999/xlink" width="498pt" height="477pt" viewBox="0 0 498 477" version="1.1">
<g id="surface1">
<path style=" stroke:none;fill-rule:nonzero;fill:rgb(0%,0%,0%);fill-opacity:1;" d="M 488.835938 440.519531 C 493.796875 429.027344 491.375 415.714844 485.808594 405.1875 C 485.085938 391.515625 488.957031 376.511719 487.503906 362.597656 C 476.976563 348.4375 483.996094 328.714844 483.148438 313.710938 C 484.238281 304.878906 482.785156 293.867188 484.480469 286.363281 C 483.148438 268.335938 480.003906 251.152344 468.386719 237.480469 C 452.898438 226.589844 434.746094 221.386719 420.953125 207.472656 C 411.152344 200.453125 404.253906 186.417969 390.824219 189.199219 C 385.015625 183.394531 377.753906 179.035156 371.222656 173.953125 C 354.644531 165.96875 339.398438 150.601563 318.949219 156.046875 C 285.796875 164.152344 248.164063 173.472656 213.558594 166.574219 C 204.238281 165.726563 196.375 156.652344 187.421875 152.539063 C 186.9375 141.527344 171.449219 134.992188 173.503906 123.015625 C 173.625 111.640625 170.964844 100.386719 163.945313 91.554688 C 154.628906 83.082031 158.984375 68.199219 151.726563 58.519531 C 140.714844 45.089844 122.925781 41.820313 113.367188 25.851563 C 99.695313 14.960938 81.179688 23.671875 65.933594 16.652344 C 61.941406 11.8125 59.644531 6.246094 56.253906 1.042969 C 55.40625 -0.046875 53.957031 1.042969 54.5625 2.253906 C 55.285156 7.09375 53.351563 13.628906 52.867188 18.46875 C 49.359375 14.234375 43.914063 11.207031 42.339844 5.761719 C 41.371094 5.398438 40.886719 6.367188 40.160156 6.609375 C 39.796875 11.8125 40.644531 16.773438 42.824219 21.855469 C 35.441406 26.574219 32.054688 34.441406 30.601563 42.425781 C 23.222656 47.992188 20.316406 56.34375 19.226563 65.054688 C 18.625 68.078125 13.785156 70.742188 15.839844 73.765625 C 19.226563 72.917969 22.132813 69.652344 24.550781 67.230469 C 25.277344 67.472656 24.792969 68.441406 24.914063 68.925781 C 24.191406 74.007813 21.527344 80.179688 19.710938 82.839844 C 15.597656 93.972656 10.757813 104.863281 5.3125 115.511719 C -5.820313 121.925781 6.039063 132.089844 5.3125 139.953125 C 6.039063 142.617188 8.824219 143.824219 11.484375 143.824219 C 14.628906 146.972656 19.832031 148.785156 23.222656 147.335938 C 27.578125 148.0625 31.933594 146.125 36.289063 145.640625 C 39.4375 142.617188 38.710938 138.019531 41.492188 134.75 C 45.726563 130.152344 58.3125 127.128906 61.09375 117.6875 C 62.910156 117.8125 65.089844 117.449219 66.78125 118.171875 C 64.605469 145.035156 68.476563 167.421875 70.289063 194.886719 C 71.257813 214.007813 54.925781 230.222656 64.96875 248.855469 C 65.8125 259.140625 71.621094 267.730469 74.164063 276.683594 C 59.28125 288.664063 46.453125 303.0625 31.449219 314.679688 C 26.367188 317.585938 22.496094 323.148438 22.738281 328.59375 C 22.496094 336.703125 19.226563 344.445313 26.246094 351.222656 C 33.265625 366.710938 41.128906 381.835938 45.847656 398.292969 C 49.480469 404.824219 57.34375 402.769531 61.578125 408.699219 C 65.8125 416.441406 75.734375 415.714844 82.875 419.222656 C 82.269531 410.996094 79.972656 401.316406 75.855469 393.453125 C 72.832031 391.636719 69.324219 392.847656 66.78125 393.453125 C 66.054688 390.425781 70.410156 388.492188 67.628906 385.585938 C 56.617188 379.777344 47.421875 367.800781 44.15625 356.0625 C 41.976563 347.59375 49.480469 342.632813 48.027344 335.128906 C 47.179688 321.578125 62.425781 323.148438 70.289063 318.550781 C 86.023438 315.042969 101.992188 309.476563 117.722656 308.507813 C 117.722656 322.304688 120.992188 334.644531 121.597656 348.195313 C 124.742188 361.386719 117.117188 372.761719 120.386719 386.554688 C 125.832031 393.816406 124.378906 405.550781 123.410156 413.902344 C 121.234375 425.273438 123.894531 439.671875 110.34375 445.359375 C 104.050781 449.71875 99.210938 456.613281 99.453125 464.480469 L 123.410156 463.894531 C 127.402344 461.839844 123.046875 456.855469 123.773438 453.105469 C 126.558594 448.628906 131.882813 453.105469 134.664063 450.5625 C 140.109375 431.082031 138.414063 409.542969 141.199219 389.578125 C 142.164063 387.039063 145.3125 385.464844 145.191406 382.5625 C 145.796875 370.945313 146.765625 358.84375 149.546875 348.558594 C 150.515625 333.796875 156.566406 320.609375 154.265625 305 C 155.113281 304.878906 154.386719 303.910156 155.234375 303.789063 C 159.347656 304.03125 163.21875 304.878906 166.125 304.636719 C 195.40625 302.699219 225.535156 302.699219 253.246094 292.898438 C 264.257813 289.753906 273.210938 281.644531 284.101563 278.015625 C 290.878906 280.921875 288.335938 289.753906 288.941406 296.285156 C 290.878906 300.523438 290.273438 305.363281 292.8125 309.839844 C 301.523438 321.457031 307.332031 333.675781 314.59375 345.535156 C 317.132813 352.191406 323.304688 357.152344 328.144531 363.441406 C 330.566406 365.015625 332.621094 367.558594 334.195313 369.976563 C 333.347656 377.480469 337.097656 383.046875 339.398438 389.09375 C 337.582031 405.066406 326.691406 418.621094 320.28125 431.324219 C 317.859375 435.558594 312.898438 440.519531 310.722656 445.722656 C 300.800781 453.589844 298.5 466.777344 298.984375 476.699219 C 302.371094 476.941406 305.035156 475.488281 308.058594 474.886719 C 312.898438 472.707031 317.859375 470.648438 322.457031 467.988281 C 322.941406 464.480469 323.667969 459.882813 320.28125 457.460938 C 319.3125 449.960938 329.113281 452.984375 332.863281 449.234375 C 336.371094 434.109375 346.175781 421.523438 352.101563 407.367188 C 353.851563 404.703125 354.597656 400.609375 355.78125 397.601563 C 356.480469 395.824219 358.789063 392.734375 359.269531 392.113281 C 364.34375 385.457031 367.574219 377.011719 368.679688 368.160156 C 367.714844 364.652344 364.324219 363.5625 362.144531 361.628906 C 358.878906 356.546875 355.855469 350.859375 354.644531 345.535156 C 359.121094 347.835938 363.113281 351.34375 367.351563 354.246094 C 367.886719 354.769531 368.265625 355.90625 368.195313 356.425781 C 370.496094 362.476563 370.617188 369.007813 373.882813 374.332031 C 385.015625 384.617188 378.117188 400.46875 378.238281 412.691406 C 378.964844 423.824219 373.035156 434.472656 371.222656 445.722656 C 366.863281 451.167969 362.144531 455.039063 356.460938 457.945313 C 350.167969 461.210938 348.472656 468.351563 348.59375 474.523438 L 373.425781 472.554688 C 374.214844 472.144531 374.910156 471.613281 375.492188 470.933594 C 376.636719 469.59375 377.328125 467.679688 377.394531 464.964844 C 377.394531 462.300781 374.125 458.429688 378.238281 457.097656 C 382.960938 455.160156 391.550781 457.824219 392.640625 451.410156 C 393.726563 434.230469 394.089844 416.804688 393.847656 399.140625 C 395.058594 391.03125 394.453125 381.714844 399.535156 375.664063 C 398.566406 365.863281 399.65625 353.882813 398.6875 344.203125 C 398.566406 342.992188 397.359375 342.148438 396.511719 341.179688 C 377.636719 334.523438 379.449219 313.347656 376.0625 297.253906 C 383.683594 286.726563 392.519531 275.839844 396.996094 263.617188 C 397.359375 262.527344 397.601563 259.988281 399.171875 260.59375 C 397.117188 267.730469 404.980469 267.609375 407.402344 272.328125 C 413.570313 293.261719 412.847656 316.980469 414.417969 339 C 414.539063 343.960938 419.984375 341.664063 422.164063 344.6875 C 427.609375 359.328125 427.851563 374.574219 428.695313 391.273438 C 430.269531 397.445313 428.574219 405.308594 435.714844 408.699219 C 439.585938 417.410156 437.652344 429.027344 447.453125 434.835938 C 458.222656 434.714844 462.457031 445.84375 468.871094 452.742188 C 477.097656 458.429688 487.625 461.089844 497.183594 458.429688 C 493.796875 452.742188 489.5625 447.296875 488.835938 440.519531 Z M 14.027344 135.113281 C 16.929688 134.023438 17.292969 126.28125 20.195313 128.578125 C 20.316406 132.574219 16.808594 133.660156 14.027344 135.113281 Z M 20.195313 116.480469 C 18.019531 117.6875 20.921875 121.078125 17.535156 118.65625 C 15.839844 122.648438 11.484375 118.050781 8.824219 120.835938 C 10.394531 118.898438 10.273438 116.238281 12.695313 114.664063 C 17.171875 118.65625 22.011719 109.339844 24.550781 117.6875 C 22.859375 117.566406 22.132813 115.632813 20.195313 116.480469 Z M 49.722656 86.835938 C 49.480469 89.132813 48.511719 91.191406 48.875 93.730469 C 47.664063 95.0625 46.453125 90.707031 47.542969 89.011719 C 48.632813 83.929688 52.019531 79.9375 53.230469 75.097656 C 51.050781 73.523438 49.722656 74.007813 48.027344 71.589844 C 50.6875 71.949219 53.957031 73.28125 56.253906 71.589844 C 56.980469 70.378906 58.3125 70.621094 58.917969 69.410156 C 55.769531 75.097656 53.109375 81.148438 49.722656 86.835938 Z M 68.476563 46.300781 C 68.476563 47.023438 69.324219 47.507813 69.808594 47.992188 C 67.023438 51.140625 60.128906 54.40625 62.789063 59.851563 C 62.425781 64.207031 59.039063 60.335938 57.222656 60.214844 C 55.40625 57.792969 52.875 58.605469 50.335938 59.453125 C 48.035156 63.6875 48.972656 58.847656 50.207031 57.1875 C 52.625 56.703125 51.65625 53.800781 53.714844 53.316406 C 57.222656 52.226563 60.488281 59.367188 62.789063 53.679688 C 62.546875 49.082031 64.363281 45.453125 68.960938 44.605469 C 69.808594 43.273438 70.65625 41.941406 71.5 40.613281 C 73.316406 42.0625 69.808594 43.878906 68.476563 46.300781 Z M 78.035156 117.328125 C 78.035156 115.875 79.367188 113.816406 77.1875 112.96875 C 76.824219 112.96875 76.703125 112.96875 76.339844 112.96875 C 86.746094 101.960938 93.039063 86.351563 88.925781 71.949219 C 87.109375 64.8125 83.722656 58.277344 82.027344 51.140625 C 82.269531 51.140625 82.511719 51.140625 82.875 51.140625 C 88.804688 64.207031 93.160156 78.242188 91.101563 92.882813 C 90.71875 94.84375 91.023438 95.148438 90.257813 96.394531 C 89.167969 99.78125 86.625 102.5625 85.535156 105.953125 C 85.535156 109.945313 92.675781 105.347656 91.101563 109.945313 C 90.136719 113.210938 84.328125 115.390625 86.746094 119.019531 C 85.417969 122.894531 82.027344 125.554688 79.003906 128.21875 C 75.613281 130.636719 80.578125 126.644531 81.179688 125.191406 C 81.90625 124.34375 81.421875 123.015625 81.542969 122.046875 C 80.820313 120.230469 78.519531 120.835938 77.671875 120.835938 C 70.773438 127.371094 78.277344 119.382813 78.035156 117.328125 Z M 88.449219 293.742188 C 80.101563 290.109375 78.519531 298.585938 70.65625 295.078125 C 63.515625 293.867188 61.941406 303.425781 57.222656 305 C 60.246094 297.617188 68.113281 294.59375 73.679688 289.390625 C 77.5625 284.664063 77.5625 285.875 81.796875 287.691406 C 83.007813 288.902344 89.417969 292.167969 88.449219 293.742188 Z M 105.988281 236.632813 C 99.453125 245.226563 88.683594 252.96875 85.054688 261.921875 C 82.632813 260.351563 82.632813 256.476563 80.699219 254.058594 C 80.457031 248.25 90.738281 241.714844 82.027344 237.480469 C 80.214844 238.207031 78.640625 239.417969 77.1875 240.988281 C 72.832031 233.488281 87.472656 227.316406 79.851563 220.539063 C 82.632813 216.546875 87.835938 212.675781 92.433594 210.132813 C 94.492188 208.925781 96.183594 211.828125 95.097656 213.523438 C 90.5 219.8125 86.503906 226.347656 89.410156 234.09375 C 93.886719 234.457031 90.980469 245.226563 97.636719 240.988281 C 100.421875 238.691406 103.203125 236.269531 105.988281 234.09375 C 105.988281 234.941406 105.988281 235.785156 105.988281 236.632813 Z M 153.101563 193.042969 C 151.632813 197.941406 145.457031 199.511719 144.964844 205.097656 C 142.417969 210.390625 148.003906 221.464844 137.519531 222.738281 C 132.617188 227.148438 134.382813 235.1875 136.4375 240.382813 C 134.675781 240.773438 132.8125 239.695313 131.148438 238.617188 C 123.992188 231.855469 131.050781 220.976563 123.796875 215.289063 C 122.523438 210.683594 122.621094 205 117.425781 202.550781 C 111.25 205 110.46875 198.921875 108.605469 195.492188 C 107.035156 189.613281 108.605469 185.789063 108.605469 179.613281 C 108.898438 179.417969 108.996094 179.222656 109.289063 178.929688 C 108.898438 171.578125 109.878906 164.816406 111.054688 158.152344 C 109.585938 150.703125 113.308594 139.824219 106.449219 134.53125 C 104.585938 118.945313 111.839844 103.363281 108.214844 87.191406 C 107.230469 85.429688 103.898438 87.878906 103.996094 85.132813 C 104.78125 78.46875 104.488281 72.6875 101.546875 67.101563 C 101.351563 62.296875 99.785156 57.300781 98.410156 52.59375 C 105.371094 54.945313 105.46875 65.140625 105.761719 72 C 106.351563 72.589844 106.9375 73.472656 107.917969 73.078125 C 109.78125 71.511719 110.074219 69.257813 110.367188 67.101563 C 111.152344 76.3125 117.71875 84.742188 114.289063 93.953125 C 114.878906 96.308594 112.722656 99.539063 116.054688 101.011719 C 118.113281 100.421875 117.71875 98.167969 118.503906 96.699219 C 120.367188 109.144531 112.035156 125.121094 116.054688 139.039063 C 116.839844 139.429688 117.523438 140.019531 118.503906 139.824219 C 119.09375 139.429688 119.386719 138.351563 120.269531 138.746094 C 127.03125 147.761719 118.015625 159.425781 118.503906 169.8125 C 117.816406 172.164063 118.601563 176.382813 117.425781 178.636719 C 117.816406 183.535156 116.347656 188.535156 119.875 192.746094 C 121.246094 193.238281 121.933594 191.671875 122.324219 190.984375 C 126.34375 169.8125 128.992188 149.527344 138.988281 131.003906 C 140.457031 121.886719 141.4375 110.320313 135.066406 103.070313 C 136.339844 99.640625 133.695313 97.484375 135.066406 94.933594 C 134.675781 90.621094 134.578125 85.527344 132.617188 81.605469 C 130.558594 79.15625 127.71875 77.097656 124.875 75.921875 C 121.640625 71.019531 119.972656 65.726563 115.269531 61.414063 C 122.226563 64.945313 125.265625 75.429688 133.988281 76.605469 C 137.421875 79.742188 137.320313 82.976563 138.988281 86.898438 C 138.988281 89.054688 139.085938 91.796875 141.4375 92.484375 C 143.691406 100.914063 143.203125 108.363281 150.554688 114.046875 C 151.632813 118.652344 155.453125 122.769531 154.472656 127.769531 C 157.414063 132.863281 156.921875 139.429688 161.921875 143.644531 C 160.941406 147.664063 154.277344 149.917969 153.785156 153.9375 C 152.121094 154.230469 153.492188 155.113281 152.316406 155.996094 C 147.808594 162.171875 147.613281 169.8125 143.886719 176.871094 C 141.828125 164.421875 153.296875 151.683594 149.179688 138.058594 C 148.199219 133.15625 151.335938 127.472656 147.808594 122.867188 C 147.121094 122.574219 146.925781 123.257813 146.339844 123.160156 C 144.28125 137.472656 132.324219 146.78125 130.851563 161.285156 C 128.894531 175.304688 125.363281 190.984375 129.773438 205.390625 C 133.304688 208.429688 129.972656 212.9375 133.988281 215.683594 C 136.636719 215.976563 137.027344 213.035156 137.910156 211.371094 C 138.792969 204.804688 138.695313 197.84375 141.4375 191.964844 C 143.203125 192.945313 140.457031 200.195313 145.652344 198.039063 C 146.730469 197.355469 147.121094 196.472656 147.808594 195.492188 C 151.238281 183.046875 155.746094 170.890625 163.6875 160.210938 C 166.136719 158.542969 168.195313 155.113281 171.035156 155.308594 C 162.019531 166.679688 154.179688 178.535156 153.101563 193.042969 Z M 184.757813 205.777344 C 185.484375 200.816406 195.769531 195.25 189.113281 190.53125 C 178.828125 195.734375 172.054688 205.898438 165.15625 214.855469 C 165.035156 214.371094 165.519531 212.191406 166.125 210.980469 C 172.414063 200.9375 180.160156 191.621094 187.902344 182.183594 C 188.269531 180.246094 187.421875 178.554688 185.726563 177.828125 C 181.976563 177.828125 180.402344 182.910156 177.015625 183.515625 C 179.554688 176.738281 184.394531 170.929688 191.292969 168.269531 C 192.503906 170.6875 187.785156 174.921875 193.105469 174.316406 C 195.648438 173.714844 196.253906 170.566406 199.640625 171.777344 C 199.640625 173.109375 201.820313 175.285156 203.515625 175.648438 C 219.484375 178.554688 236.0625 180.972656 253.609375 178.675781 C 252.035156 180.730469 248.890625 179.277344 247.074219 180.851563 C 240.78125 184.84375 232.433594 183.636719 225.292969 185.691406 C 221.664063 188.355469 219.484375 193.800781 214.402344 193.921875 C 216.21875 192.589844 215.976563 190.289063 216.582031 188.355469 C 213.558594 185.207031 210.53125 190.046875 207.507813 190.894531 C 202.910156 193.316406 200.972656 200.9375 194.4375 197.429688 C 192.261719 201.058594 188.628906 204.328125 184.757813 205.777344 Z M 284.585938 261.074219 C 278.65625 257.929688 283.738281 249.824219 276.71875 247.523438 C 274.421875 247.039063 266.796875 252.847656 269.703125 245.828125 C 271.152344 244.863281 270.667969 242.683594 270.183594 241.472656 C 264.496094 238.449219 263.289063 246.191406 260.625 248.855469 C 260.019531 251.273438 260.625 254.421875 257.601563 255.390625 C 249.253906 253.816406 246.347656 268.820313 238.363281 261.4375 C 230.253906 267.609375 224.445313 254.664063 216.582031 261.074219 C 213.921875 262.40625 211.742188 265.3125 208.355469 265.433594 C 208.597656 263.859375 207.507813 262.40625 206.175781 261.921875 C 202.425781 264.585938 196.617188 264.222656 192.621094 263.617188 C 202.546875 261.921875 214.886719 257.082031 218.761719 246.191406 C 221.300781 244.5 221.90625 241.835938 223.601563 239.660156 C 224.929688 242.320313 222.269531 248.492188 227.472656 249.339844 C 229.285156 248.976563 232.554688 242.5625 234.007813 248.007813 C 235.820313 249.945313 238.605469 247.402344 240.175781 248.855469 C 240.902344 250.429688 240.296875 253.210938 242.355469 254.542969 C 255.90625 252.726563 258.8125 237.359375 268.492188 230.585938 C 272.363281 231.066406 271.757813 236.269531 272.363281 238.8125 C 274.664063 246.796875 283.738281 239.539063 287.125 245.347656 C 287.488281 249.339844 284.585938 251.878906 284.949219 255.871094 C 287.125 257.566406 288.457031 260.351563 291.480469 261.074219 C 289.789063 262.40625 286.277344 262.40625 284.585938 261.074219 Z M 306.363281 313.347656 C 299.226563 303.789063 294.265625 289.632813 298.984375 276.683594 C 299.589844 279.226563 297.773438 284.066406 300.195313 287.210938 C 306.484375 288.542969 301.039063 294.472656 303.339844 298.949219 C 306.605469 299.796875 307.695313 303.789063 305.882813 305.96875 C 305.648438 309.925781 306.253906 312.34375 306.363281 313.347656 Z M 347.746094 176.132813 C 343.632813 174.195313 337.703125 171.050781 333.347656 174.800781 C 333.832031 176.617188 333.832031 178.796875 336.011719 180.003906 C 333.105469 180.125 329.113281 179.398438 328.507813 183.03125 C 327.78125 185.328125 332.378906 186.054688 330.6875 188.71875 C 323.546875 194.644531 312.171875 199.121094 315.925781 210.132813 C 319.070313 220.058594 329.960938 228.40625 323.304688 239.660156 C 316.769531 245.105469 308.90625 250.550781 304.1875 257.566406 C 309.511719 248.613281 318.828125 240.023438 316.40625 227.921875 C 315.199219 222.234375 307.453125 218.242188 311.566406 211.34375 C 313.625 207.109375 313.140625 202.390625 312.050781 197.914063 C 309.390625 193.195313 304.792969 199.730469 302.371094 195.734375 C 301.523438 188.597656 305.277344 183.515625 307.695313 177.828125 C 309.875 178.191406 308.785156 181.820313 308.542969 183.515625 C 307.574219 185.933594 306.605469 188.71875 307.695313 191.378906 C 309.753906 194.28125 312.898438 193.195313 315.441406 192.226563 C 319.070313 190.289063 321.851563 186.539063 323.789063 183.03125 C 326.089844 177.34375 321.851563 173.230469 318.949219 169.113281 C 319.070313 167.664063 320.644531 168.148438 321.128906 166.9375 C 332.742188 165.726563 344.964844 167.664063 352.101563 176.980469 C 350.894531 177.34375 349.078125 176.375 347.746094 176.132813 Z M 383.925781 249.339844 C 382.960938 255.390625 380.902344 262.527344 376.910156 267.609375 C 371.34375 276.199219 362.023438 287.9375 352.101563 293.746094 C 363.71875 279.710938 376.789063 264.828125 382.597656 246.191406 C 382.597656 243.410156 379.570313 241.714844 377.753906 239.660156 C 378.480469 234.820313 379.085938 227.558594 372.554688 226.589844 C 370.011719 225.019531 367.351563 228.042969 365.171875 225.742188 C 367.230469 215.820313 379.207031 205.898438 373.398438 193.921875 C 374.003906 192.347656 374.972656 190.894531 376.425781 189.5625 C 381.265625 192.105469 378.480469 197.066406 377.753906 200.9375 C 377.03125 206.988281 370.253906 212.796875 373.398438 218.363281 C 376.546875 218.726563 378.601563 216.304688 381.265625 215.335938 C 382.839844 221.871094 375.457031 230.222656 384.289063 234.09375 C 382.839844 239.175781 387.195313 244.5 383.925781 249.339844 Z M 462.785156 339.832031 C 457.71875 335.304688 457.179688 327.003906 457.394531 320.101563 C 463.433594 308.996094 454.050781 299.941406 455.453125 289.375 C 453.511719 283.984375 456.316406 276.4375 451.570313 272.34375 C 450.601563 272.882813 450.386719 273.851563 449.953125 274.605469 C 450.386719 286.464844 447.261719 295.84375 451.140625 307.273438 C 451.570313 308.996094 450.492188 310.183594 450.710938 311.910156 C 447.152344 305.765625 448.660156 297.140625 443.378906 292.070313 C 442.40625 282.476563 442.839844 274.390625 439.496094 265.335938 C 438.203125 264.257813 437.019531 261.992188 435.183594 263.394531 C 430.765625 269 433.351563 276.007813 432.164063 283.230469 C 427.746094 269.96875 429.148438 254.335938 418.90625 243.558594 C 416.75 236.550781 416.425781 228.355469 409.957031 223.394531 C 410.386719 218.867188 408.125 215.308594 405.320313 212.183594 C 405.320313 211.753906 405.320313 211.429688 405.320313 210.996094 C 414.914063 212.398438 411.574219 224.796875 420.523438 226.089844 C 425.265625 230.617188 425.265625 238.273438 429.363281 243.558594 C 431.949219 244.417969 432.921875 242.046875 434.105469 240.539063 C 433.566406 239.460938 434.863281 239.460938 435.183594 238.921875 C 438.527344 240.539063 436.480469 245.820313 438.742188 248.621094 C 439.820313 249.703125 439.714844 251.644531 441.4375 252.179688 C 444.457031 252.828125 444.886719 247.867188 447.261719 248.621094 C 448.121094 250.242188 448.339844 252.9375 450.710938 253.257813 C 454.699219 254.554688 458.363281 247.222656 461.273438 253.691406 C 463.433594 268.675781 461.707031 283.015625 462.785156 297.894531 C 466.34375 304.578125 460.734375 310.613281 463.214844 317.730469 C 463.863281 318.160156 463.863281 318.808594 464.292969 319.238281 C 462.136719 326.355469 460.304688 332.714844 462.785156 339.832031 "/>
</g>
</svg>
