<?xml version="1.0" encoding="UTF-8"?>
<svg xmlns="http://www.w3.org/2000/svg" xmlns:xlink="http://www.w3.org/1999/xlink" width="530pt" height="200pt" viewBox="0 0 530 200" version="1.1">
<g id="surface1">
<path style=" stroke:none;fill-rule:nonzero;fill:rgb(0%,0%,0%);fill-opacity:1;" d="M 518.089844 142.601563 C 519.851563 141.390625 522.710938 141.832031 524.359375 141.058594 C 511.929688 132.480469 497.960938 127.640625 483.441406 123.902344 C 470.789063 118.402344 458.800781 111.359375 445.492188 107.511719 L 440.980469 104.539063 L 442.082031 99.039063 C 446.371094 91.339844 437.242188 90.570313 433.28125 87.929688 C 405.230469 80.121094 378.828125 68.351563 351.21875 59.441406 C 322.949219 51.519531 292.699219 47.558594 261.460938 47.558594 C 224.828125 45.691406 193.039063 58.011719 156.960938 57.351563 C 151.238281 52.949219 160.257813 46.128906 155.308594 40.738281 C 153.328125 35.351563 158.609375 32.378906 160.367188 28.308594 C 159.710938 24.570313 158.9375 20.5 162.238281 17.75 C 167.300781 12.578125 155.417969 9.828125 160.589844 4.21875 C 161.027344 -2.929688 153.660156 2.351563 150.359375 1.578125 C 136.609375 2.019531 128.027344 14.671875 115.710938 18.300781 C 105.917969 28.640625 101.628906 41.398438 97.007813 53.941406 C 95.46875 50.308594 94.808594 46.351563 92.5 43.050781 C 91.289063 40.078125 91.730469 36.449219 90.078125 33.589844 C 83.480469 34.46875 75.007813 31.058594 70.609375 37.550781 C 63.238281 38.871094 58.726563 45.46875 52.898438 50.421875 C 48.71875 58.121094 45.527344 66.039063 44.757813 75.058594 C 47.179688 88.039063 52.457031 99.921875 53.449219 113.558594 C 45.199219 115.980469 36.070313 115.980469 28.367188 119.609375 C 21.878906 125.550781 13.1875 126.210938 7.46875 134.128906 C -0.890625 143.261719 0.207031 157.339844 2.519531 169 C 16.597656 170.320313 27.160156 181.429688 42.558594 180.109375 C 49.707031 176.039063 59.5 178.242188 67.417969 176.152344 C 82.488281 165.808594 103.058594 167.019531 121.539063 169 C 129.238281 171.96875 130.777344 182.089844 138.917969 185.058594 C 151.347656 191.769531 164 197.820313 178.519531 199.359375 C 215.257813 201.011719 251.011719 199.582031 284.449219 191.660156 C 322.730469 180.332031 361.011719 168.890625 396.871094 151.621094 C 401.050781 150.191406 404.996094 145.804688 409.921875 147.261719 C 428.535156 147.398438 433.722656 157.449219 448.351563 156.570313 C 461.109375 154.699219 475.300781 155.800781 488.5 157.339844 C 502.800781 157.671875 520.070313 160.75 529.421875 148.429688 Z M 394.011719 112.460938 C 391.480469 112.460938 388.949219 113.890625 386.640625 114.878906 C 381.359375 115.429688 375.75 117.191406 370.46875 115.429688 L 351.988281 99.808594 L 351.441406 97.941406 C 356.058594 98.160156 359.25 101.460938 363.320313 102.78125 C 373 105.640625 382.570313 108.609375 392.691406 110.371094 C 393.128906 111.140625 394.339844 111.46875 394.011719 112.460938 Z M 296 56.800781 C 296.550781 54.050781 298.859375 56.375 300.289063 56.578125 C 302.546875 57.859375 304.03125 58.339844 305.789063 59.441406 C 315.691406 67.03125 324.269531 76.710938 332.519531 86.058594 C 342.089844 78.03125 352.761719 71.320313 365.960938 72.640625 C 354.851563 77.921875 342.421875 81.21875 331.96875 88.699219 C 328.011719 89.359375 324.929688 91.78125 321.078125 92.660156 C 308.101563 95.851563 293.800781 98.601563 279.941406 97.5 C 295.671875 94.859375 312.609375 93.429688 326.359375 85.070313 C 317.011719 74.398438 306.230469 65.929688 296 56.800781 Z M 282.359375 103.550781 C 291.160156 109.820313 300.511719 114.878906 310.519531 118.289063 C 314.699219 118.949219 320.199219 119.609375 323.5 116.75 C 326.03125 114.550781 327.898438 112.019531 329.328125 109.378906 C 332.738281 109.160156 337.578125 109.820313 340.660156 107.730469 C 342.859375 105.859375 343.628906 103.441406 344.621094 101.128906 C 350.78125 105.640625 356.941406 111.25 362 116.96875 C 344.179688 117.300781 327.570313 120.269531 310.519531 122.582031 C 299.851563 122.140625 289.839844 119.941406 281.261719 114.332031 C 279.390625 111.140625 278.398438 107.621094 278.070313 103.769531 C 279.171875 102.890625 281.371094 103.332031 282.359375 103.550781 Z M 198.648438 88.261719 C 213.828125 84.078125 229.339844 87.820313 243.75 91.121094 C 247.929688 91.121094 252.878906 91.558594 256.179688 88.699219 C 257.28125 84.410156 252.550781 82.539063 252 79.019531 C 251.449219 70.769531 242.101563 64.5 235.28125 61.859375 C 226.480469 59.109375 215.699219 59.550781 206.789063 58.339844 C 206.351563 55.148438 211.105469 56.058594 211.851563 55.480469 C 225.929688 53.28125 241.988281 55.808594 249.578125 69.230469 C 261.351563 74.289063 269.929688 86.390625 271.800781 98.269531 C 248.699219 99.921875 227.03125 93.648438 204.699219 91.339844 C 202.71875 90.460938 200.410156 90.128906 198.648438 88.699219 Z M 190.179688 65.488281 C 188.308594 69.890625 183.25 74.070313 182.480469 79.460938 C 182.480469 83.421875 181.597656 87.378906 182.257813 91.339844 C 205.03125 108.941406 229.449219 124.78125 260.140625 120.710938 C 276.96875 116.199219 289.289063 127.421875 305.238281 127.308594 C 316.351563 126.539063 327.015625 123.480469 338.074219 122.113281 C 355.839844 119.914063 374.429688 122.359375 391.039063 118.070313 C 397.3125 116.089844 402.371094 111.359375 407.761719 107.179688 C 410.179688 104.980469 414.140625 106.191406 417 104.871094 C 415.460938 96.398438 407.320313 90.019531 401.601563 82.980469 C 409.300781 86.390625 418.320313 92 423.269531 100.359375 C 426.019531 97.058594 426.242188 92.660156 427.5625 88.699219 C 429.980469 89.359375 429.734375 93.800781 429.101563 94.53125 C 426.019531 98.929688 423.050781 106.300781 416.671875 107.179688 C 419.089844 110.699219 423.492188 113.230469 426.679688 116.75 C 425.582031 117.628906 426.019531 120.378906 424.039063 119.609375 L 412.492188 108.832031 C 407.980469 110.152344 404.789063 114.441406 400.609375 116.199219 C 397.3125 118.289063 393.515625 118.949219 389.71875 120.160156 C 388.484375 120.847656 389.0625 121.152344 389.28125 122.25 L 391.589844 126.539063 C 390.710938 127.089844 389.941406 127.859375 388.730469 127.53125 C 387.300781 125.441406 386.199219 123.238281 384.441406 121.261719 C 375.96875 122.691406 367.941406 123.789063 358.921875 123.351563 C 359.03125 126.980469 359.578125 131.050781 360.460938 134.679688 C 360.128906 136.441406 358.148438 136.660156 357.050781 137.539063 L 353.308594 123.570313 L 352.539063 123.019531 C 335.601563 122.691406 321.738281 129.730469 305.238281 130.5 C 306.121094 133.140625 307.878906 136 308.980469 138.859375 C 309.199219 139.960938 309.96875 141.390625 308.210938 141.5 L 307.109375 141.5 L 299.738281 130.5 C 290.71875 129.070313 281.808594 127.199219 273.558594 123.902344 C 260.578125 122.800781 246.71875 123.789063 233.960938 122.03125 C 230.878906 125.988281 229.339844 131.160156 227.6875 136 C 226.921875 136.441406 225.929688 136.21875 225.050781 136.21875 C 224.71875 130.832031 227.25 125.878906 229.011719 120.929688 C 216.6875 116.53125 203.929688 113.339844 193.039063 105.421875 L 189.078125 119.609375 C 187.648438 119.609375 185.449219 118.949219 186.769531 116.96875 C 187.539063 112.570313 189.628906 108.609375 190.730469 104.320313 C 185.007813 99.808594 179.289063 94.308594 174.558594 87.929688 C 175.4375 78.691406 180.9375 69.011719 190.179688 65.488281 Z M 167.960938 139.410156 C 179.730469 145.019531 194.25 144.359375 203.378906 155.582031 C 207.671875 159.210938 209.210938 164.820313 214.488281 167.128906 L 214.488281 164.820313 C 212.179688 155.800781 203.929688 148.320313 196.777344 142.378906 C 191.609375 139.300781 188.089844 135.339844 185.121094 130.171875 C 206.460938 138.96875 225.929688 152.058594 248.480469 157.671875 C 251.339844 160.308594 255.628906 163.058594 253.539063 167.679688 C 252.988281 169.660156 251.890625 172.410156 249.359375 172.410156 C 235.28125 172.519531 219.988281 172.742188 206.789063 176.371094 C 183.910156 183.851563 166.75 166.03125 149.039063 156.019531 C 160.480469 157.78125 170.050781 163.71875 180.390625 168.230469 C 182.589844 168.558594 185.007813 169.21875 186.4375 166.910156 C 183.027344 156.679688 174.449219 148.429688 167.960938 139.410156 Z M 150.027344 56.578125 C 155.089844 62.300781 164.550781 68.789063 160.039063 78.140625 C 160.367188 80.011719 163.007813 81.441406 164 83.199219 C 165.539063 86.28125 163.339844 89.910156 164.878906 92.988281 C 169.277344 98.269531 173.789063 103.550781 173.019531 110.921875 C 178.300781 117.628906 178.410156 128.082031 176.980469 136 C 176.375 135.4375 175.550781 135.121094 174.558594 135.230469 C 173.128906 125.441406 166.417969 116.421875 169.277344 106.410156 C 168.398438 103.21875 164.878906 101.902344 162.679688 99.589844 C 159.160156 93.648438 162.679688 84.738281 156.628906 79.789063 C 156.847656 74.398438 156.738281 68.570313 153.769531 64.171875 L 148.710938 57.570313 Z M 147.746094 148.84375 C 154.347656 149.339844 163.519531 152.058594 170.160156 155.03125 C 168.949219 150.300781 165.058594 145.324219 161.757813 141.144531 L 161.441406 140.511719 C 167.121094 147.632813 176.648438 154.808594 178.519531 163.941406 C 167.238281 161.398438 157.34375 151.132813 147.71875 148.871094 Z M 90.628906 162.402344 C 78.308594 165.480469 66.097656 172.851563 53.117188 170.320313 C 58.726563 163.941406 68.1875 165.039063 76.4375 165.261719 C 81.167969 164.378906 85.238281 161.851563 90.078125 161.300781 L 90.628906 161.851563 Z M 85.128906 158.21875 C 78.75 160.089844 72.257813 163.28125 65 161.628906 C 54.546875 164.160156 45.089844 169.109375 33.867188 169.769531 C 26.277344 169.21875 18.140625 170.101563 11.207031 167.902344 C 21.4375 167.242188 31.667969 166.582031 40.46875 162.402344 C 41.347656 162.070313 40.910156 161.191406 41.019531 160.53125 C 29.578125 162.179688 16.929688 165.261719 4.828125 162.949219 C 2.410156 155.25 6.589844 148.429688 9.558594 142.050781 C 11.429688 141.941406 12.96875 144.03125 14.617188 142.601563 C 16.160156 136 21.988281 128.851563 28.589844 126.761719 C 28.917969 130.5 24.1875 130.171875 22.320313 132.589844 C 17.148438 136.441406 16.160156 142.050781 15.71875 147.878906 C 17.039063 149.199219 18.46875 147.660156 19.898438 147.660156 C 19.570313 144.03125 19.898438 138.859375 23.640625 136.769531 L 24.078125 136.769531 C 23.089844 139.960938 21.546875 143.152344 22.539063 146.78125 C 26.390625 146.78125 30.347656 143.261719 32 139.742188 C 33.207031 135.011719 36.398438 131.710938 41.019531 130.171875 C 43.328125 126.761719 46.296875 125.769531 50.257813 125.988281 C 58.289063 130.609375 64.667969 121.699219 71.929688 119.609375 C 77.320313 117.738281 83.480469 117.960938 89.089844 116.421875 C 92.71875 132.921875 104.160156 146.230469 111.75 161.082031 C 103.058594 159.761719 94.480469 154.808594 85.128906 158.21875 Z M 252.769531 180.109375 C 244.300781 185.941406 233.738281 180.21875 224.28125 182.75 C 203.378906 194.410156 176.429688 185.832031 158.5 172.960938 C 140.019531 167.019531 119.558594 163.28125 107.019531 145.789063 C 100.199219 133.691406 93.710938 121.589844 91.179688 107.730469 L 90.078125 106.738281 C 79.960938 108.71875 69.726563 110.808594 60.046875 114.109375 L 57.898438 114.726563 C 57.898438 114.753906 57.902344 114.773438 57.902344 114.796875 L 57.847656 114.742188 L 57.898438 114.726563 C 57.003906 101.222656 51.464844 88.128906 48.9375 75.28125 C 49.597656 65.601563 54.21875 57.570313 59.277344 49.648438 C 61.917969 45.578125 66.648438 45.359375 70.277344 43.050781 C 75.558594 39.75 82.160156 33.261719 88.539063 38.871094 C 88.210938 46.019531 89.089844 53.609375 88.757813 60.761719 C 79.628906 65.601563 82.710938 75.828125 79.078125 83.199219 C 71.378906 83.640625 74.347656 94.089844 66.867188 93.980469 C 62.578125 98.269531 62.359375 104.210938 60.820313 109.601563 C 69.070313 105.75 78.75 103.550781 87.988281 101.460938 C 87 89.578125 87.109375 75.609375 91.949219 65.820313 C 92.828125 65.710938 93.160156 66.699219 93.820313 67.140625 C 85.347656 90.019531 92.390625 115.761719 104.160156 134.902344 C 118.679688 158.550781 143.648438 168.011719 168.507813 172.960938 C 176.980469 176.808594 183.910156 184.402344 193.589844 185.058594 C 206.238281 187.152344 215.148438 177.359375 227.910156 178.242188 C 239.351563 178.789063 253.871094 181.539063 259.589844 169.21875 C 260.359375 167.242188 260.691406 164.601563 260.140625 162.402344 C 253.980469 150.519531 239.789063 153.378906 231.320313 144.691406 C 244.191406 144.691406 257.609375 149.53125 264.320313 161.628906 C 265.199219 169.660156 258.820313 176.039063 252.769531 180.109375 Z M 485.3125 153.378906 C 470.789063 152.058594 457.921875 146.339844 442.082031 148.101563 C 435.8125 147.769531 431.632813 139.300781 424.589844 143.921875 C 420.632813 144.582031 416.78125 142.269531 414.578125 138.859375 L 413.671875 136.21875 C 413.589844 134.074219 415.242188 131.050781 416.671875 128.628906 L 414.578125 128.628906 C 395.550781 135.890625 376.519531 142.929688 357.050781 148.980469 C 345.71875 150.742188 332.738281 150.960938 320.640625 150.742188 C 302.488281 152.390625 280.378906 157.78125 264.648438 147.332031 C 305.460938 153.378906 347.371094 146.230469 384.992188 136.550781 C 397.75 131.160156 411.171875 126.539063 425.691406 126.210938 C 428.109375 125.332031 431.300781 124.449219 432.289063 121.699219 L 431.191406 116.96875 C 432.578125 117.066406 432.949219 116.957031 434.382813 117.519531 L 444.390625 119.390625 C 458.140625 124.78125 472.992188 127.308594 485.640625 135.449219 C 497.742188 141.609375 512.039063 142.601563 524.359375 148.101563 C 514.679688 159.761719 498.402344 152.5 485.3125 153.378906 "/>
</g>
</svg>
