<?xml version="1.0" encoding="UTF-8"?>
<svg xmlns="http://www.w3.org/2000/svg" xmlns:xlink="http://www.w3.org/1999/xlink" width="515pt" height="444pt" viewBox="0 0 515 444" version="1.1">
<g id="surface1">
<path style=" stroke:none;fill-rule:nonzero;fill:rgb(0%,0%,0%);fill-opacity:1;" d="M 508.851563 416.308594 C 509.839844 415.097656 512.152344 415.539063 512.039063 413.449219 C 505.109375 406.847656 493.671875 407.839844 488.28125 398.488281 C 491.25 398.488281 495.101563 399.917969 498.621094 398.820313 C 500.160156 397.5 504.5625 396.289063 502.910156 393.320313 C 494.660156 391.558594 487.949219 385.507813 481.902344 379.460938 C 463.972656 362.1875 464.082031 337.550781 455.390625 316.429688 C 446.152344 293.109375 433.390625 261.867188 404.679688 255.929688 C 399.511719 243.058594 390.929688 230.519531 379.378906 221.386719 C 368.601563 209.839844 352.210938 209.617188 339.011719 206.429688 C 339.671875 204.117188 339.230469 201.367188 339.339844 198.839844 C 336.589844 196.96875 332.738281 197.519531 329.441406 196.859375 C 328.230469 194.109375 326.03125 192.457031 323.171875 191.6875 C 320.640625 184.648438 309.640625 187.066406 303.699219 186.628906 C 301.171875 184.539063 304.910156 181.347656 306.121094 179.039063 C 308.320313 181.019531 311.398438 181.789063 314.039063 181.457031 C 316.128906 179.148438 315.140625 175.078125 314.808594 172.328125 C 312.5 168.039063 307.441406 167.488281 303.699219 166.828125 C 305.679688 160.667969 307.988281 154.066406 306.558594 147.027344 C 308.539063 145.816406 311.070313 145.378906 312.828125 143.398438 C 314.480469 141.636719 314.480469 138.667969 314.480469 136.6875 C 318.328125 125.246094 323.390625 113.039063 324.710938 100.605469 C 326.691406 95.546875 327.460938 91.585938 327.128906 85.648438 C 320.308594 76.1875 316.019531 64.636719 305.351563 57.925781 C 304.578125 53.96875 300.289063 53.636719 297.761719 51.546875 C 298.640625 50.445313 297.648438 48.6875 298.640625 47.585938 C 296.988281 31.527344 309.640625 50.007813 315.25 44.066406 C 319.539063 34.9375 309.96875 28.667969 305.351563 21.847656 C 304.03125 17.667969 306.449219 12.167969 303.371094 8.757813 C 294.019531 5.675781 286.761719 -0.261719 276.421875 0.507813 C 272.019531 4.246094 272.351563 8.425781 269.710938 12.71875 C 263.21875 15.027344 254.640625 9.417969 250.238281 15.90625 C 249.46875 22.617188 259.480469 19.316406 263.769531 21.847656 C 271.03125 25.476563 261.789063 30.867188 262.558594 36.148438 C 266.960938 39.117188 263.878906 43.515625 265.308594 47.585938 C 266.628906 50.007813 269.378906 51.769531 272.460938 51.546875 C 274.769531 52.535156 275.761719 55.066406 275.210938 57.046875 C 269.488281 59.46875 271.578125 65.40625 270.039063 69.808594 C 262.011719 78.058594 256.179688 88.066406 256.621094 100.277344 C 254.53125 104.019531 250.128906 105.339844 247.160156 108.527344 C 243.53125 120.296875 230.769531 119.859375 220.980469 121.617188 C 216.6875 123.816406 214.710938 129.097656 209.871094 129.976563 C 205.46875 131.296875 205.6875 136.027344 204.699219 139.4375 C 198.429688 148.019531 191.058594 159.347656 180.609375 163.199219 C 179.070313 161.546875 176.867188 161.769531 175.4375 160.007813 C 166.417969 157.808594 158.9375 151.976563 149.257813 150.988281 C 142.328125 143.617188 132.320313 142.1875 122.417969 141.417969 C 113.398438 138.558594 106.140625 129.097656 95.46875 132.726563 C 90.738281 137.679688 83.148438 133.386719 78.417969 133.496094 C 70.9375 128.769531 77.320313 117.4375 68.078125 114.136719 C 66.429688 113.367188 65.769531 115.238281 64.558594 115.679688 C 68.078125 121.398438 62.140625 127.226563 62.140625 133.496094 C 57.078125 135.148438 51.359375 135.039063 47.507813 139.4375 C 46.847656 149.007813 36.070313 153.1875 33.648438 161.988281 C 23.96875 171.007813 17.699219 182.558594 7.136719 190.148438 C -5.402344 195.316406 2.847656 207.089844 1.636719 216.65625 C 3.070313 220.066406 7.578125 219.519531 10.328125 221.828125 C 16.15625 219.1875 18.6875 227.65625 24.519531 225.019531 C 29.796875 226.226563 24.296875 231.839844 27.707031 233.707031 C 29.359375 234.367188 32.21875 235.796875 33.320313 234.148438 C 49.929688 237.339844 66.976563 238.109375 84.359375 236.128906 C 86.890625 235.796875 89.527344 234.367188 91.839844 234.917969 C 90.957031 236.460938 90.628906 238.328125 88.757813 239.210938 C 88.757813 240.417969 89.75 241.296875 90.296875 242.398438 C 98.328125 246.027344 108.117188 242.066406 116.039063 243.167969 C 113.398438 245.039063 109.769531 244.929688 106.910156 246.359375 C 107.347656 247.566406 107.898438 248.996094 109.328125 249.546875 C 117.46875 251.859375 124.070313 247.128906 131.109375 246.796875 C 133.527344 256.808594 133.527344 271.769531 129.460938 281.996094 C 126.710938 290.800781 133.96875 296.519531 136.277344 303.777344 C 138.589844 311.589844 133.859375 320.390625 132.648438 328.75 C 129.128906 333.699219 122.859375 335.789063 120.769531 341.070313 C 121.429688 348 115.820313 353.9375 122.417969 360.429688 C 117.359375 367.359375 119.449219 375.71875 114.5 382.648438 C 104.378906 391.558594 99.207031 403.988281 91.507813 414.660156 C 91.179688 415.980469 90.410156 417.078125 90.738281 418.621094 C 82.707031 425.878906 70.71875 427.53125 67.308594 439.1875 C 66.207031 441.390625 69.507813 440.398438 70.5 441.167969 C 86.667969 435.890625 103.71875 443.589844 121.210938 437.648438 C 121.539063 436.988281 121.980469 436.328125 122.417969 435.667969 C 124.949219 436.660156 128.359375 435.230469 130.667969 436.878906 C 141.117188 436.328125 154.980469 440.730469 164 434.128906 C 172.359375 432.917969 181.050781 435.890625 189.300781 437.648438 C 193.917969 438.089844 191.277344 432.699219 194.800781 431.269531 C 198.097656 430.71875 200.628906 430.71875 203.929688 431.269531 C 214.488281 436.109375 227.800781 436.988281 238.800781 434.898438 C 244.960938 432.699219 253.320313 435.007813 257.058594 427.75 C 264.101563 426.429688 271.140625 426.210938 276.859375 430.941406 C 289.511719 435.667969 302.601563 439.628906 316.019531 442.820313 C 328.011719 447.550781 324.378906 429.949219 335.378906 430.941406 C 348.359375 434.898438 360.460938 433.359375 374.210938 434.460938 C 380.589844 434.019531 388.070313 435.230469 392.03125 429.730469 C 403.25 432.148438 414.691406 436.21875 426.128906 435.667969 C 429.101563 435.339844 433.390625 435.007813 435.589844 432.917969 C 437.351563 431.488281 435.589844 429.289063 435.589844 428.191406 C 431.960938 427.640625 435.921875 425.109375 435.589844 423.347656 C 432.289063 419.28125 427.890625 416.417969 422.941406 415.429688 C 422.5 409.378906 415.570313 407.289063 411.5 404.429688 C 407.539063 404.320313 405.5625 403.21875 401.929688 402.449219 C 397.308594 394.75 388.730469 392.109375 381.800781 389.359375 C 379.820313 385.617188 376.410156 383.96875 373.441406 381 C 367.941406 380.117188 363.210938 375.71875 357.601563 376.269531 C 353.96875 376.710938 354.960938 372.640625 353.640625 370.769531 C 349.351563 364.828125 349.019531 355.808594 340.988281 353.277344 C 345.828125 349.539063 345.941406 343.378906 350.449219 339.859375 C 373.328125 332.160156 399.949219 313.789063 406.660156 289.148438 C 407.101563 289.589844 407.539063 289.917969 407.871094 290.359375 C 412.710938 306.089844 414.140625 324.898438 408.3125 340.628906 C 404.570313 348.878906 401.050781 359.21875 392.03125 363.179688 C 391.921875 364.828125 393.679688 366.039063 394.78125 366.808594 C 400.71875 367.25 404.789063 362.410156 409.078125 359.660156 C 407.980469 366.917969 410.179688 373.960938 415.019531 379.460938 C 419.089844 381.21875 415.351563 375.71875 418.210938 374.730469 C 423.160156 380.890625 427.5625 387.710938 432.402344 393.648438 C 438.230469 399.039063 444.828125 405.308594 451.101563 411.140625 C 452.75 413.121094 454.730469 410.917969 456.160156 409.929688 C 464.519531 412.789063 470.902344 419.28125 478.820313 422.578125 C 481.789063 423.238281 485.75 423.238281 487.839844 420.597656 C 494.550781 420.488281 501.699219 424.007813 508.851563 425 C 510.5 423.898438 512.8125 424.890625 514.019531 423.019531 C 517.652344 418.949219 509.730469 419.71875 508.851563 416.308594 Z M 67.75 216.65625 C 66.867188 219.078125 68.957031 221.828125 71.269531 222.597656 C 75.667969 223.148438 79.519531 224.90625 84.359375 224.246094 C 83.476563 224.90625 82.707031 226.117188 83.589844 226.996094 C 85.457031 228.539063 87.769531 229.089844 90.296875 229.308594 C 74.238281 234.480469 52.898438 233.15625 35.296875 230.519531 C 31.667969 227.4375 32.546875 224.027344 28.476563 221.386719 C 33.207031 218.308594 36.398438 212.808594 43.21875 213.90625 C 52.898438 203.457031 69.289063 207.527344 77.976563 196.527344 C 83.808594 195.097656 89.527344 198.398438 94.257813 201.589844 C 95.6875 202.90625 97.339844 203.347656 98.660156 204.777344 C 90.078125 212.367188 78.96875 216.328125 67.75 216.65625 Z M 207.890625 143.398438 C 212.179688 144.386719 216.46875 142.1875 219 138.667969 C 225.160156 141.089844 233.960938 139.328125 235.28125 147.796875 C 237.148438 151.207031 241 151.429688 243.53125 149.339844 C 247.269531 144.058594 253.320313 141.089844 259.808594 142.628906 C 261.238281 143.398438 260.25 145.269531 260.578125 146.589844 C 257.609375 149.886719 254.421875 151.976563 252.21875 155.71875 C 251.78125 157.917969 250.019531 159.457031 249.46875 161.65625 C 242.757813 162.539063 236.929688 165.617188 231.648438 169.90625 C 229.121094 168.367188 230.109375 164.738281 229.339844 161.988281 C 227.578125 158.46875 222.1875 155.9375 224.171875 151.316406 C 220.320313 147.578125 216.359375 148.679688 211.847656 148.566406 C 210.640625 149.226563 209.980469 150.109375 210.308594 151.757813 C 211.960938 154.289063 216.140625 152.746094 217.019531 155.71875 C 217.347656 157.148438 216.46875 158.246094 216.578125 159.679688 C 213.058594 159.898438 209.539063 161.769531 207.890625 165.179688 C 206.347656 167.15625 207.007813 170.019531 205.140625 171.886719 C 202.277344 173.429688 198.210938 171.886719 196.007813 175.078125 C 195.128906 174.089844 193.699219 174.527344 192.820313 173.539063 C 199.96875 164.40625 204.589844 154.066406 207.890625 143.398438 Z M 196.007813 156.488281 C 196.777344 155.71875 197.660156 154.949219 198.429688 154.066406 C 196.667969 159.898438 192.710938 164.738281 189.738281 169.90625 C 177.199219 165.507813 194.46875 161.4375 196.007813 156.488281 Z M 299.410156 345.027344 C 288.519531 338.867188 273.121094 334.140625 261.019531 340.628906 C 253.871094 340.410156 249.140625 334.25 241.988281 334.25 C 231.980469 335.019531 221.421875 336.558594 215.480469 344.589844 C 214.488281 347.007813 214.929688 350.199219 217.789063 351.296875 C 224.5 354.269531 232.640625 346.898438 239.238281 353.71875 C 244.738281 350.96875 242.320313 359.550781 247.488281 358.890625 C 247.710938 360.648438 250.019531 361.53125 250.238281 363.179688 C 241.4375 363.507813 228.347656 354.929688 222.1875 366.808594 C 221.640625 369.339844 223.949219 370.988281 225.710938 372.308594 C 229.339844 374.730469 236.269531 370.328125 234.839844 377.039063 C 238.03125 384.1875 249.578125 381.769531 248.257813 391.339844 C 245.730469 392.769531 242.429688 393.539063 239.570313 392.878906 C 236.929688 391.558594 234.949219 388.480469 231.648438 388.589844 C 229.449219 388.699219 227.140625 389.46875 226.148438 391.667969 C 226.589844 395.410156 225.378906 398.269531 224.171875 401.238281 C 219.4375 411.25 207.339844 401.128906 202.390625 409.929688 C 203.597656 413.339844 199.199219 413.230469 196.777344 413.121094 C 190.730469 408.058594 185.117188 416.308594 178.960938 413.449219 C 175.660156 413.339844 172.800781 414.988281 171.039063 417.847656 C 171.367188 419.058594 172.140625 420.050781 171.917969 421.371094 C 161.25 421.257813 153.988281 419.28125 142.988281 420.597656 C 141.007813 421.371094 141.558594 422.46875 141.007813 424.230469 C 128.910156 427.640625 117.027344 427.089844 105.367188 429.289063 C 102.730469 430.167969 105.039063 427.640625 105.699219 427.75 C 111.640625 428.191406 113.179688 421.371094 116.808594 418.289063 C 120.988281 408.71875 125.277344 399.367188 131.878906 390.898438 C 130.890625 388.480469 131.988281 385.839844 133.089844 383.75 C 135.070313 382.539063 135.289063 385.617188 136.277344 386.609375 C 141.007813 393.429688 148.710938 392.988281 155.640625 394.53125 C 158.609375 390.679688 164.328125 393.539063 168.289063 392.109375 C 173.019531 389.910156 177.859375 388.039063 183.359375 387.710938 C 186.550781 385.730469 182.589844 383.75 182.148438 381.769531 C 176.210938 375.609375 170.050781 368.789063 161.578125 369.890625 C 158.71875 373.628906 155.640625 376.820313 150.910156 375.5 C 149.589844 373.078125 148.378906 370.21875 148.929688 367.578125 C 147.167969 366.148438 145.738281 363.839844 144.199219 361.96875 C 156.078125 347.558594 161.027344 329.300781 176.980469 317.308594 C 178.847656 314.667969 181.488281 317.527344 183.800781 317.640625 C 183.800781 319.289063 185.777344 321.710938 187.757813 322.367188 C 194.140625 321.050781 195.019531 327.980469 201.179688 327.210938 C 203.378906 325.777344 205.359375 327.867188 206.347656 329.519531 C 211.738281 331.277344 213.390625 325.339844 217.019531 322.367188 C 217.128906 321.269531 217.570313 320.390625 218.558594 319.617188 C 244.519531 329.078125 274.988281 334.359375 302.929688 331.9375 C 305.570313 335.460938 304.359375 339.089844 306.121094 343.050781 C 305.898438 346.019531 301.609375 345.46875 299.410156 345.027344 "/>
</g>
</svg>
