<?xml version="1.0" encoding="UTF-8"?>
<svg xmlns="http://www.w3.org/2000/svg" xmlns:xlink="http://www.w3.org/1999/xlink" width="533pt" height="529pt" viewBox="0 0 533 529" version="1.1">
<g id="surface1">
<path style=" stroke:none;fill-rule:nonzero;fill:rgb(0%,0%,0%);fill-opacity:1;" d="M 527.289063 377.019531 C 507.742188 354.675781 494.699219 350.753906 499.539063 328.792969 C 499.828125 327.488281 501.097656 321.902344 501.914063 320.410156 C 504.1875 322.511719 503.566406 325.3125 503.777344 326.910156 C 505.960938 324.054688 505.390625 316.039063 504.433594 310.238281 C 506.234375 311.480469 506.546875 312.050781 507.171875 313.046875 C 508.988281 310.21875 507.191406 306.183594 506.769531 302.84375 C 507.964844 303.527344 508.003906 304.546875 509.070313 305.671875 C 510.667969 302.628906 507.699219 294.046875 507.976563 292.71875 C 508.023438 292.480469 509.269531 294.96875 509.878906 296.585938 C 511.226563 294.53125 509.78125 291.335938 511.261719 287.222656 C 511.839844 287.96875 512.539063 289.035156 512.710938 290.671875 C 513.539063 289.511719 514.308594 283.929688 514.207031 281.414063 C 515.117188 282.253906 515.808594 283.101563 516.3125 284.835938 C 518.265625 281.582031 518.175781 276.546875 518.121094 275.125 C 519.054688 276.621094 519.316406 277.707031 519.71875 279.539063 C 520.878906 277.394531 521.726563 268.125 521.726563 266.597656 C 521.726563 254.078125 511.613281 241.71875 505.996094 235.722656 C 492.277344 221.066406 470.308594 197.574219 449.65625 193.066406 C 426.003906 187.90625 351.296875 196.332031 341.246094 195.066406 C 325.390625 193.070313 310.101563 188.027344 294.011719 185.480469 C 284.414063 183.960938 266.421875 182.199219 258.304688 184.816406 C 252.058594 186.832031 239.265625 188.003906 230.292969 192.675781 C 218.335938 198.898438 184.332031 203.605469 176.546875 203.597656 C 160.914063 203.589844 137.882813 201.925781 130.925781 199.761719 C 132.507813 197.523438 133.207031 184.707031 133.414063 180.015625 C 133.636719 174.9375 133.078125 172.414063 126.710938 175.285156 C 123.691406 176.648438 120.324219 178.378906 120.324219 178.378906 C 120.324219 178.378906 120.585938 176.015625 120.582031 173.394531 C 120.570313 166.179688 118.21875 164.96875 112.082031 168.03125 C 105.289063 171.417969 96.386719 178.703125 95.503906 180.550781 C 93.558594 180.847656 90.972656 180.476563 90.972656 180.476563 C 90.972656 180.476563 93.523438 174.753906 99.609375 168.679688 C 104.949219 163.347656 118.414063 149.378906 126.410156 140.785156 C 138.539063 127.746094 133.757813 125.230469 136.699219 103.492188 C 137.828125 95.144531 147.476563 71.589844 155.035156 70.707031 C 179.355469 65.367188 189.730469 54.441406 196.472656 47.75 C 213.8125 30.550781 219.4375 15.613281 220.585938 8.976563 C 221.839844 1.71875 219.410156 4.328125 216.929688 8.703125 C 211.902344 17.578125 206.066406 26.652344 198.914063 34.476563 C 191.679688 42.394531 178.050781 54.089844 168.453125 56.910156 C 167.671875 57.140625 167.457031 56.679688 168.128906 56.171875 C 181.203125 46.253906 195.71875 17.160156 199.585938 6.601563 C 203.507813 -4.125 198.695313 0.882813 196.507813 4.601563 C 186.289063 21.96875 182.300781 30.3125 169.550781 42.285156 C 156.023438 54.980469 139.90625 58.054688 138.414063 57.53125 C 132.808594 55.570313 125.34375 24.539063 122.855469 16.523438 C 120.953125 10.398438 119.136719 10.199219 118.929688 17.226563 C 118.601563 28.429688 123.328125 50.355469 125.644531 59.25 C 125.761719 59.691406 125.511719 60.054688 125.082031 60.164063 C 124.605469 60.285156 123.992188 60.394531 123.492188 60.3125 C 117.425781 59.34375 110.617188 23.75 109.988281 21.359375 C 108.320313 14.992188 104.144531 7.699219 104.902344 22.234375 C 104.960938 23.320313 108.375 57.085938 108.445313 65.328125 C 108.503906 72.164063 108.632813 72.671875 105.679688 78.636719 C 105.199219 79.726563 104.488281 79.128906 104.269531 78.890625 C 102.261719 76.679688 96.207031 69.183594 93.574219 64.832031 C 91.015625 60.609375 89.515625 61.097656 91.023438 66.703125 C 91.480469 68.398438 97.113281 81.84375 102.324219 87.320313 C 101.589844 89.925781 101.171875 92.347656 99.90625 94.496094 C 97.441406 98.683594 94.351563 97.921875 92.648438 95.953125 C 92.1875 95.414063 87.644531 88.539063 82.894531 78.550781 C 79.691406 71.808594 77.972656 67.648438 76.605469 64.15625 C 74.789063 59.511719 73.027344 60.683594 73.148438 64.707031 C 73.230469 67.367188 74.019531 72.109375 74.957031 75.703125 C 77.0625 83.773438 82.683594 95.894531 87.515625 104.738281 C 95.324219 119.015625 100.53125 125.417969 97.164063 135.929688 C 91.039063 131.800781 85.132813 121.238281 81.652344 115.800781 C 78.289063 110.546875 77.640625 112.226563 78.484375 116.898438 C 78.988281 119.683594 86.03125 136.945313 93.082031 143.535156 C 88.328125 151.363281 88.464844 150.5 87.554688 151.421875 C 86.382813 152.605469 84.527344 151.402344 82.640625 149.386719 C 79.441406 145.972656 64.753906 118.683594 62.65625 115.738281 C 58.609375 110.0625 58.175781 110.464844 58.855469 116.460938 C 59.730469 124.167969 66.753906 135.972656 71.804688 147.210938 C 73.460938 150.902344 76.109375 154.105469 78.640625 156.953125 C 79.734375 158.179688 79.804688 158.992188 79.113281 160.179688 C 78.03125 162.039063 75.554688 165.027344 73.675781 166.0625 C 71.390625 167.320313 69.636719 167.679688 66.445313 167.808594 C 50.363281 163.839844 42.347656 151.144531 40.046875 147.183594 C 38.023438 143.707031 36.386719 143.617188 36.964844 148.085938 C 37.820313 154.660156 45.039063 164.316406 52.582031 168.0625 C 44.503906 168.035156 35.878906 166.789063 30.339844 163.101563 C 23.894531 158.808594 19.765625 144.714844 18.480469 140.207031 C 17.125 135.441406 16.46875 138.273438 16.144531 140.152344 C 15.164063 145.816406 19.40625 159.992188 23.421875 165.417969 C 12.335938 162.0625 7.007813 152.78125 4.53125 149.226563 C 0.464844 143.742188 -1.625 143.011719 1.703125 151.671875 C 18.105469 186.210938 68.53125 172.542969 69.761719 181.546875 C 70.132813 181.980469 67.007813 191.355469 64.992188 193.855469 C 48.167969 214.742188 19.382813 234.070313 11.703125 243.515625 C 8.667969 247.246094 5.613281 250.519531 6.152344 256.777344 C 2.445313 262.765625 5.332031 269.222656 13.765625 272.101563 C 14.492188 274.371094 15.003906 273.347656 16.777344 274.882813 C 17.222656 275.265625 18.597656 276.359375 21.957031 276.15625 C 21.957031 276.15625 41.390625 272.464844 47.273438 273.621094 C 53.152344 274.777344 53.710938 278.730469 53.625 281.640625 C 57.132813 279.441406 59.441406 277.847656 61.238281 275.679688 C 63.347656 277.160156 63.582031 280.0625 63.238281 281.355469 C 65.027344 279.710938 65.414063 279.074219 65.28125 277.199219 C 68.96875 279.703125 71.46875 287.488281 72.011719 289.917969 C 74.199219 286.359375 73.003906 282.023438 72.226563 279.539063 C 74.847656 280.636719 77.480469 288.128906 78.085938 291.386719 C 80.140625 288.898438 80.699219 284.640625 80.53125 281.613281 C 84.566406 286.386719 85.777344 287.507813 87.234375 292.320313 C 88.253906 291.058594 89.285156 288.257813 88.957031 286.652344 C 94.277344 287.59375 120.695313 313.871094 117.003906 320.148438 C 119.613281 319.753906 120.6875 317.375 120.941406 312.691406 C 124.019531 316.660156 127.175781 322.667969 126.132813 325.773438 C 127.8125 323.957031 129.851563 322.300781 129.265625 320.101563 C 131.789063 323.246094 137.8125 333.199219 138.015625 335.007813 C 139.410156 332.988281 139.78125 331.757813 139.734375 330.054688 C 146.140625 336.957031 137.089844 348.121094 145.179688 354.207031 C 145.09375 351.160156 144.746094 349.714844 145.242188 347.507813 C 146.382813 350.527344 149.226563 352.804688 151.472656 353.683594 C 149.328125 350.503906 149.507813 347.621094 149.558594 345.507813 C 152.238281 350.878906 156.378906 358.167969 159.261719 359.804688 C 157.671875 355.335938 156.933594 352.097656 157.84375 348.949219 C 158.554688 351.796875 162.125 355.84375 164.25 356.730469 C 163.277344 353.070313 163.476563 352.394531 164.359375 349.921875 C 164.1875 353.910156 169.265625 364.210938 171.203125 365.234375 C 169.394531 360.128906 169.003906 354.574219 170.289063 351.613281 C 170.921875 354.375 174.710938 360.097656 178.417969 360.445313 C 175.746094 358.273438 175.609375 355.054688 176.46875 352.617188 C 177.742188 357.027344 184.269531 361.8125 183.703125 364.859375 C 186.382813 361.355469 185.179688 356.730469 184.117188 355.027344 C 187.515625 355.503906 187.910156 359.398438 188.15625 361.871094 C 188.683594 367.210938 190.171875 375.011719 190.449219 383.414063 C 190.675781 390.257813 190.246094 396.945313 188.722656 403.550781 C 185.9375 415.644531 180.03125 426.683594 180.519531 435.792969 C 181.832031 460.226563 169.964844 487.261719 162.929688 495.523438 C 143.425781 523.808594 133.148438 522.84375 140.789063 525.101563 C 150.671875 528.015625 165.367188 525.351563 172.820313 525.496094 C 174.710938 525.390625 172.816406 516.398438 176.128906 512.46875 C 177.292969 511.089844 183.140625 508.378906 183.160156 508.816406 C 184.035156 508.78125 184.03125 497.609375 185.824219 493.667969 C 187.882813 485.347656 189.53125 476.984375 192.160156 468.75 C 198.046875 450.308594 213.324219 421.757813 216.753906 409.253906 C 218.285156 403.679688 225.917969 371.851563 230.785156 365.617188 C 231.273438 364.992188 232.40625 364.148438 233.476563 363.558594 C 232.855469 364.457031 232.695313 365.996094 232.738281 367.089844 C 234.195313 365.171875 232.90625 365.300781 234.296875 364.5625 C 234.21875 365.417969 234.242188 366.410156 234.726563 367.371094 C 235.449219 366.132813 236.878906 365.203125 238.046875 364.773438 C 237.941406 365.378906 238.0625 366.136719 238.652344 366.992188 C 239.597656 365.753906 242.363281 364.292969 243.34375 363.886719 C 243.179688 364.953125 243.222656 366.703125 243.703125 367.449219 C 244.65625 366.316406 245.949219 365.785156 247.25 365.371094 C 247.304688 366.761719 248.195313 368.574219 249.027344 369.535156 C 249.871094 367.972656 252.167969 365.144531 254.324219 364.3125 C 254.519531 366.476563 256.054688 368.96875 257.472656 370.320313 C 257.410156 367.566406 257.730469 366.488281 258.335938 365.628906 C 259.019531 366.734375 260.234375 367.929688 261.664063 368.949219 C 261.679688 367.507813 262.804688 366.644531 263.464844 366.097656 C 263.972656 367.308594 264.761719 367.933594 266.648438 368.515625 C 267.222656 366.410156 271.277344 366.257813 271.277344 366.257813 C 271.277344 366.257813 277.675781 376.78125 282.234375 389.660156 C 284.566406 396.246094 290.613281 408.410156 293.1875 414.558594 C 294.671875 418.105469 299.808594 433.4375 303.269531 438.28125 C 305.828125 446.402344 310.296875 463.34375 312.964844 479.054688 C 313.472656 482.050781 313.710938 484.847656 313.082031 488.269531 C 313.03125 499.867188 300.589844 512.367188 297.316406 516.132813 C 294.453125 519.425781 290.355469 520.851563 294.820313 522.253906 C 298.234375 523.328125 325.386719 522.292969 328.394531 520.570313 C 334.554688 517.050781 324.421875 507.625 330.023438 504.085938 C 330.546875 503.753906 334.675781 502.75 334.171875 499.464844 C 334.171875 499.464844 330.164063 484.253906 329.363281 475.273438 C 327.609375 455.558594 326.453125 457.898438 323.003906 434.074219 C 322.265625 428.964844 325.070313 421.53125 322.726563 415.25 C 320.800781 410.089844 319.6875 399.015625 318.527344 394.203125 C 314.722656 378.410156 316.296875 358.195313 316.296875 358.195313 C 316.296875 358.195313 319.792969 358.6875 322.566406 359.207031 C 326.699219 359.984375 327.207031 360.207031 328.757813 360.585938 C 329.371094 362.3125 331.308594 364.207031 333.429688 365.21875 C 332.914063 363.269531 334.839844 361.117188 336.4375 360.449219 C 336.902344 361.6875 338.609375 363.261719 340.476563 363.40625 C 339.53125 361.691406 339.886719 359.597656 341.679688 358.707031 C 342.074219 359.511719 343.324219 360.664063 344.769531 361.15625 C 344.605469 359.847656 345.214844 358.199219 345.9375 357.496094 C 346.066406 358.460938 347.328125 359.410156 348.101563 359.601563 C 348.589844 358.15625 348.878906 357.417969 350.105469 356.507813 C 352.144531 355.003906 380.464844 357.152344 384.015625 358.960938 C 387.648438 360.808594 389.234375 361.261719 389.636719 363.105469 C 392.175781 360.925781 391.597656 357.738281 391.339844 356.359375 C 392.878906 356.527344 395.328125 360.253906 395.597656 361.554688 C 397.167969 359.742188 397.515625 357.429688 396.976563 354.929688 C 399.644531 355.921875 401.710938 358.816406 402.652344 359.964844 C 403.558594 358.414063 403.171875 356.4375 402.851563 355.210938 C 402.75 354.816406 405.261719 356.683594 406 358.734375 C 406.1875 358.394531 406.167969 358.378906 406.578125 357.691406 C 420.222656 379.269531 430.652344 388.53125 424.570313 404.859375 C 422.109375 411.472656 405.273438 440.269531 399.328125 447.667969 C 386.367188 463.796875 380.199219 468.414063 377.53125 473.351563 C 376.921875 476.554688 374.234375 483.535156 372.71875 489.945313 C 370.683594 498.574219 369.703125 501.589844 365.019531 512.019531 C 362.996094 516.515625 363.835938 516.367188 368.539063 516.328125 C 373.890625 516.28125 387.914063 509.648438 388.898438 509.050781 C 393.019531 506.546875 393.898438 507.121094 394.46875 506.179688 C 396.082031 503.503906 392.503906 494.941406 392.261719 491.277344 C 392.167969 489.886719 391.714844 486.894531 394.636719 486.628906 C 395.371094 486.5625 395.863281 490.113281 397.230469 490.445313 C 399.792969 491.070313 401.074219 485.402344 401.949219 482.753906 C 405.257813 472.710938 420.464844 456.992188 423.820313 451.859375 C 433.925781 436.410156 464.394531 400.234375 466.140625 396.386719 C 467.808594 392.703125 459.972656 375.128906 459.972656 375.128906 C 459.972656 375.128906 492.410156 403.644531 498.296875 411.4375 C 512.347656 430.03125 509.5625 452.800781 507.832031 481.109375 C 506.703125 499.617188 498.324219 509.691406 493.613281 514.613281 C 488.902344 519.53125 481.273438 524.722656 481.542969 527.058594 C 484.445313 529.125 497.027344 528.296875 501.75 528.324219 C 506.132813 528.351563 514.214844 528.144531 514.214844 528.144531 L 516.058594 517.722656 C 516.058594 517.722656 516.421875 515.121094 518.15625 513.980469 C 519.121094 516.734375 520.539063 519.957031 522.234375 516.535156 C 522.503906 516 524.519531 513.109375 524.945313 512.234375 C 526.496094 509.070313 525.652344 504.269531 525.21875 500.949219 C 524.511719 495.527344 528.222656 410.390625 529.433594 404.691406 C 532.785156 388.925781 534.125 384.835938 527.289063 377.019531 Z M 7.636719 255.203125 C 8.136719 256.269531 9.511719 256.019531 10.074219 255.644531 C 10.636719 255.269531 11.136719 255.078125 10.636719 255.769531 C 10.136719 256.453125 7.136719 258.144531 7.324219 257.894531 C 7.511719 257.644531 7.503906 254.921875 7.636719 255.203125 Z M 10.449219 269.078125 C 9.886719 268.644531 9.449219 268.769531 8.761719 267.953125 C 8.527344 267.675781 6.074219 262.519531 7.699219 260.328125 C 9.324219 258.144531 9.761719 258.078125 10.386719 258.644531 C 11.011719 259.203125 10.136719 267.894531 10.699219 268.703125 C 11.261719 269.519531 11.011719 269.519531 10.449219 269.078125 Z M 31.410156 265.394531 C 30.074219 266.058594 25.742188 267.058594 23.410156 268.894531 C 21.914063 270.066406 18.910156 271.394531 16.742188 272.226563 C 15.308594 272.777344 14.742188 271.558594 15.742188 271.394531 C 17.417969 271.113281 21.765625 269.085938 23.074219 267.894531 C 24.910156 266.226563 28.242188 265.394531 30.574219 264.558594 C 32.910156 263.726563 32.742188 264.726563 31.410156 265.394531 Z M 91.078125 187.019531 C 91.835938 186.84375 94.085938 182.660156 94.402344 182.117188 C 94.8125 181.417969 95.105469 181.824219 94.636719 182.585938 C 94.171875 183.34375 92.246094 187.179688 91.488281 187.367188 C 90.554688 187.601563 90.320313 187.191406 91.078125 187.019531 Z M 207.902344 25.300781 C 210.476563 21.984375 215.609375 13.335938 216.789063 11 C 220.097656 4.460938 219.980469 7.746094 218.8125 12.003906 C 211.792969 32.113281 192.578125 53.882813 173.140625 63.273438 C 166.769531 66.515625 160.980469 67.40625 156.039063 68.769531 C 150.472656 70.304688 147.128906 72.816406 144.503906 78.042969 C 140.511719 85.984375 135.015625 99.832031 134.542969 103.902344 C 132.558594 120.996094 136.109375 122.171875 131.582031 131.089844 C 128 138.144531 119.710938 146.660156 114.050781 152.242188 C 104.519531 161.644531 93.386719 172.429688 92.773438 174.117188 C 92.308594 175.390625 91.703125 176.796875 91.035156 177.949219 C 90.382813 179.070313 88.488281 181.097656 87.441406 178.894531 C 86.976563 177.921875 86.675781 176.789063 86.675781 176.789063 C 86.675781 176.789063 84.933594 173.792969 99.671875 158.753906 C 101.621094 156.765625 108.585938 143.984375 109.679688 142.296875 C 109.679688 142.296875 114.855469 136.183594 116.390625 134.730469 C 121.511719 129.882813 124.089844 122.585938 122.628906 116.492188 C 120.867188 109.15625 115.613281 102.128906 112.082031 95.914063 C 113.0625 93.027344 114.476563 89.871094 114.476563 89.871094 C 114.476563 89.871094 117.117188 93.296875 119.441406 95.527344 C 121.4375 97.4375 122.730469 97.660156 124.328125 94.644531 C 127.246094 89.144531 131.714844 77.253906 131.535156 72.804688 C 138.230469 70.351563 157.417969 64.480469 164.5 58.945313 C 176.621094 58.464844 195.941406 40.714844 207.902344 25.300781 Z M 110.230469 102.589844 C 110.890625 99.027344 111.6875 97.4375 111.6875 97.4375 C 111.6875 97.4375 118.011719 106.578125 120.324219 114.730469 C 121.851563 120.113281 121.96875 123.996094 118.859375 128.914063 C 117.4375 131.171875 114.695313 135.113281 110.449219 139.636719 C 112.132813 130.519531 106.925781 124.300781 110.230469 102.589844 Z M 115.308594 88.253906 C 115.160156 88.050781 119.480469 80.515625 122.578125 77.96875 C 125.085938 75.90625 128.941406 74.105469 128.941406 74.105469 C 128.941406 74.105469 129.285156 75.777344 129.132813 77.761719 C 128.804688 82.0625 124.78125 90.253906 122.996094 93.480469 C 122.09375 95.113281 121.480469 95.226563 120.007813 93.894531 C 118.457031 92.496094 116.546875 89.96875 115.308594 88.253906 Z M 120.242188 19.886719 C 120.082031 14.277344 121.046875 12.546875 122.519531 19.363281 C 129.011719 49.371094 136.210938 58.089844 136.210938 58.089844 L 127.546875 59.421875 C 127.546875 59.421875 120.722656 36.503906 120.242188 19.886719 Z M 91.992188 66.390625 C 91.46875 63.761719 92.277344 64.382813 93.679688 66.59375 C 95.578125 69.585938 99.316406 75.601563 105.132813 80.855469 C 104.144531 83.523438 102.910156 85.546875 102.910156 85.546875 C 102.910156 85.546875 93.683594 72.230469 91.992188 66.390625 Z M 79.457031 116.765625 C 78.867188 115.082031 79.175781 113.851563 80.769531 116.304688 C 83.3125 120.210938 88.234375 129.847656 96.335938 137.128906 C 95.640625 139.066406 94.925781 140.183594 93.621094 142.347656 C 86.097656 132.84375 81.675781 123.128906 79.457031 116.765625 Z M 38.007813 147.882813 C 37.742188 146.394531 38.132813 144.824219 39.542969 147.722656 C 41.117188 150.96875 48.15625 162.816406 63.527344 167.921875 C 59.5 168.335938 58.308594 167.863281 54.328125 167.847656 C 46.929688 164.171875 39.167969 154.484375 38.007813 147.882813 Z M 77.457031 224.246094 C 73.527344 227.804688 72.242188 227.152344 67.03125 226.484375 C 64.539063 226.289063 57.667969 229.699219 55.433594 230.519531 C 53.921875 231.015625 52.03125 230.742188 50.460938 229.820313 C 51.511719 229.496094 52.359375 229.34375 53.394531 228.050781 C 54.152344 227.109375 56.335938 221.59375 57.101563 218.003906 C 57.71875 215.117188 59.800781 208.496094 63.207031 206.898438 C 65.261719 205.933594 77.015625 203.949219 79.816406 210.0625 C 80.195313 213.40625 78.800781 215.988281 77.511719 216.429688 C 77.421875 217.894531 81.332031 220.734375 77.457031 224.246094 Z M 72.199219 180.429688 C 72.65625 177.199219 51.128906 175.566406 45.253906 174.683594 C 31.945313 173.289063 13.355469 171.292969 2.085938 150.636719 C 1.074219 148.777344 0.421875 145.089844 3.953125 149.890625 C 5.792969 152.390625 8.164063 155.777344 10.1875 158.03125 C 11.308594 159.28125 16.695313 163.410156 16.695313 163.410156 C 20.382813 166.121094 25.949219 167.425781 25.519531 166.796875 C 20.871094 159.972656 18.730469 152.277344 18.183594 149.671875 C 17.480469 146.34375 17.242188 145.804688 16.910156 141.050781 C 16.773438 139.109375 17.707031 139.070313 18.097656 141.535156 C 18.492188 144.046875 19.847656 148.402344 20.894531 150.902344 C 23.5 157.117188 25.855469 160.914063 29.132813 163.710938 C 31.664063 165.867188 37.765625 168.175781 43.570313 168.683594 C 52.542969 169.46875 65.714844 169.667969 71.957031 168.089844 C 74.738281 167.382813 76.316406 164.945313 80.058594 161.28125 C 82.796875 156.648438 79.046875 157.816406 75.957031 151.660156 C 74.410156 148.589844 72.683594 146.1875 69.566406 139.648438 C 65.890625 131.929688 61.441406 123.421875 60.179688 117.898438 C 59.464844 114.765625 59.621094 112.953125 62.292969 117.210938 C 66.71875 124.265625 72.027344 136.828125 76.726563 143.527344 C 78.140625 145.535156 81.496094 150.539063 83.644531 152.234375 C 85.375 153.601563 85.90625 154.113281 87.632813 153.390625 C 89.355469 152.664063 96.453125 141.910156 97.746094 137.847656 C 99.648438 131.882813 99.597656 128.753906 98.792969 125.132813 C 98.203125 122.480469 97.304688 119.871094 96.011719 117.449219 C 92.292969 110.484375 81.152344 89.480469 78.726563 83.214844 C 76.53125 77.554688 74.964844 71.519531 74.703125 67.167969 C 74.480469 63.480469 75.011719 63.621094 76.488281 67.054688 C 79.109375 73.152344 88.339844 94.558594 92.71875 98.007813 C 101.183594 104.667969 105.007813 83.199219 109.046875 75.945313 C 111.285156 71.917969 109.8125 59.773438 109.335938 54.1875 C 108.804688 47.929688 107.050781 29.503906 106.5625 24.394531 C 105.550781 13.777344 106.800781 14.320313 109.238281 24.351563 C 109.757813 26.496094 112.542969 41.15625 115.351563 52.351563 C 116.933594 58.664063 119.714844 62.53125 125.359375 62.234375 C 130.992188 61.9375 145.140625 57.457031 147.078125 56.78125 C 150.496094 55.589844 155.203125 53.785156 160.722656 50.46875 C 169.855469 44.976563 176.003906 39.0625 182.160156 30.738281 C 188.574219 22.0625 193.265625 12.988281 195.847656 8.210938 C 199.511719 1.4375 198.609375 5.175781 197.507813 9.035156 C 195.929688 14.558594 188.390625 26.722656 183.339844 34.277344 C 178.210938 41.953125 174.96875 48.804688 164.683594 56.707031 C 154.710938 64.371094 145.179688 66.21875 141.636719 67.675781 C 126.746094 73.804688 121.621094 72.242188 114.011719 87.148438 C 106.777344 101.3125 106.589844 113.230469 108.984375 132.101563 C 109.832031 138.785156 109.398438 142.601563 99.570313 155.996094 C 93.445313 164.347656 84.570313 171.472656 84.914063 176.566406 C 84.085938 177.769531 75.949219 179.257813 72.199219 180.429688 Z M 84.992188 189.226563 C 83.660156 189.558594 83.324219 188.976563 84.410156 188.726563 C 85.492188 188.476563 88.703125 182.503906 89.160156 181.726563 C 89.742188 180.726563 90.160156 181.308594 89.492188 182.394531 C 88.824219 183.476563 86.078125 188.953125 84.992188 189.226563 Z M 99.082031 206.160156 C 98.867188 206.277344 95.378906 206.746094 95.101563 210.808594 C 94.359375 209.960938 93.824219 208.886719 94.046875 207.671875 C 92.941406 207.390625 92.378906 206.972656 91.390625 206.957031 C 91.160156 206.9375 90.644531 207.082031 90.136719 207.207031 C 86.914063 208.015625 86.113281 206.015625 87.78125 202.304688 C 88.183594 201.40625 88.949219 200.320313 90.085938 200.273438 C 89.09375 200.039063 89.113281 199.964844 88.386719 200.175781 C 88.792969 199.394531 90.167969 198.136719 91.039063 197.992188 C 90.371094 197.742188 89.875 197.710938 89.441406 197.78125 C 89.792969 197 90.957031 195.914063 91.835938 195.988281 C 91.492188 195.671875 90.9375 195.476563 90.335938 195.445313 C 90.695313 194.828125 92.171875 193.402344 93.152344 193.308594 C 92.261719 192.960938 91.625 193.421875 91.234375 193.328125 C 91.585938 192.492188 93.871094 190.761719 94.582031 190.679688 C 93.40625 190.066406 92.316406 190.796875 92.441406 190.542969 C 94.328125 186.699219 98.578125 180.9375 101.503906 180.164063 C 101.269531 179.847656 100.835938 179.917969 100.175781 179.984375 C 100.921875 179.3125 102.269531 178.820313 102.976563 178.628906 C 102.695313 178.421875 102.257813 178.492188 101.820313 178.453125 C 102.644531 177.777344 104.046875 177.539063 104.238281 177.375 C 104.066406 177.105469 103.808594 177.101563 103.296875 177.027344 C 104.109375 176.378906 105.839844 176.324219 106.71875 176.34375 C 106.488281 176.078125 105.171875 175.96875 105.066406 175.75 C 105.535156 175.515625 107.21875 175.175781 107.878906 175.257813 C 107.703125 174.9375 106.867188 174.585938 106.613281 174.617188 C 107.722656 174.058594 108.660156 174.242188 109.042969 174.226563 C 108.917969 173.792969 108.632813 173.53125 108.453125 173.375 C 108.980469 172.933594 111.945313 171.210938 114.160156 170.125 C 116.367188 169.046875 117.359375 168.019531 117.835938 171.507813 C 118.28125 174.761719 117.738281 180.808594 117.148438 185.523438 C 117.097656 185.964844 115.785156 186.828125 114.855469 186.921875 C 115.378906 187.664063 116.210938 188.035156 116.816406 188.054688 C 116.199219 189.003906 115.390625 189.363281 114.300781 189.460938 C 114.882813 190.367188 115.703125 190.335938 116.457031 190.457031 C 115.964844 191.421875 113.398438 191.632813 112.523438 191.609375 C 113.398438 192.945313 114.445313 193.121094 115.835938 193.183594 C 115.140625 194.082031 112.898438 194.171875 111.519531 193.949219 C 112.394531 195.230469 114.042969 195.382813 114.902344 195.796875 C 114.136719 196.421875 113.519531 196.0625 112.910156 195.867188 C 113.332031 196.835938 113.660156 196.824219 114.441406 196.882813 C 108.871094 208.675781 101.253906 205.4375 99.082031 206.160156 Z M 118.730469 195.414063 C 117.84375 197.449219 114.566406 204.96875 112.484375 205.8125 C 111.210938 206.328125 110.800781 205.800781 111.835938 205.398438 C 113.878906 204.613281 117.628906 196.46875 118.304688 194.800781 C 118.742188 193.730469 119.238281 194.25 118.730469 195.414063 Z M 119.128906 192.445313 C 119.964844 187.738281 120.394531 180.128906 120.394531 180.128906 C 120.394531 180.128906 125.613281 177.296875 128.804688 175.96875 C 130.6875 175.183594 131.851563 174.898438 132.035156 178.515625 C 132.332031 184.492188 130.835938 196.964844 129.601563 199.332031 C 126.035156 197.722656 120.699219 195.304688 119.128906 192.445313 Z M 485.28125 216.523438 C 495.863281 226.035156 519.785156 248.546875 520.171875 263.429688 C 520.292969 268.199219 520.1875 271.976563 519.5625 275.617188 C 519.191406 274.535156 518.148438 273.042969 517.007813 271.882813 C 517.230469 274.777344 517.042969 279.203125 516.308594 281.878906 C 515.585938 280.644531 514.480469 279.980469 513.226563 278.714844 C 513.65625 281.324219 513.183594 285.945313 512.472656 287.394531 C 511.761719 286 511.089844 285.589844 510.503906 284.625 C 509.9375 286.949219 509.019531 291.175781 509.019531 291.175781 C 509.019531 291.175781 505.417969 285.703125 503.042969 278.789063 C 499.242188 267.726563 499.03125 257.59375 494.335938 249.425781 C 492.160156 245.648438 476.90625 216.113281 468.84375 207.824219 C 461.628906 200.40625 452.402344 196.042969 452.402344 196.042969 C 452.402344 196.042969 461.933594 195.539063 485.28125 216.523438 Z M 317.597656 400.761719 C 318.675781 405.207031 318.828125 410.402344 320.957031 417.421875 C 321.722656 419.949219 320.765625 427.019531 320.851563 429.679688 C 321.21875 440.722656 325.175781 452.882813 327.089844 468.253906 C 327.605469 472.378906 329.742188 490.816406 332.578125 499.492188 C 332.699219 503.535156 329.121094 502.953125 327.746094 504.613281 C 325 507.921875 330.777344 514.683594 327.304688 518.429688 C 326.925781 518.839844 310.222656 512.609375 308.382813 506.027344 C 311.695313 502.773438 313.464844 497.691406 313.464844 497.691406 C 317.273438 490.054688 314.214844 476.679688 313.160156 471.867188 C 310.949219 461.765625 308.347656 446.066406 304.167969 435.664063 C 302.667969 431.929688 298.910156 425.992188 298.359375 423.796875 C 296.878906 417.875 292.648438 408.617188 290.007813 402.277344 C 286.972656 394.984375 282.972656 385.964844 280.238281 379.875 C 278.394531 375.761719 273.167969 365.742188 273.695313 364.785156 C 274.273438 363.726563 293.320313 360.972656 294.785156 360.984375 C 297.03125 361.402344 298.566406 361.449219 298.660156 363.855469 C 300.433594 363.351563 300.863281 360.960938 301.246094 360.027344 C 302.480469 360.347656 303.375 361.257813 303.539063 362.785156 C 304.941406 362.074219 306.398438 360.152344 306.320313 358.1875 C 307.546875 358.683594 308.261719 360.191406 308.320313 361.722656 C 309.902344 361.023438 310.273438 358.46875 310.359375 357.585938 C 311.992188 358.171875 313.066406 359.890625 312.613281 362.207031 C 313.46875 361.839844 314.210938 360.625 314.714844 359.585938 C 315.144531 358.699219 315.332031 358.546875 315.238281 359.65625 C 314.757813 365.367188 313.597656 384.277344 317.597656 400.761719 Z M 463.6875 391.886719 C 463.878906 393.0625 464.894531 395.617188 462.667969 398.34375 C 462.347656 398.734375 436.105469 433.101563 419.9375 453.882813 C 412.914063 462.910156 407.382813 469.375 407.382813 469.375 C 407.382813 469.375 403.246094 474.867188 401.535156 480.183594 C 400.804688 482.46875 400.21875 483.964844 398.875 483.414063 C 397.101563 482.6875 395.023438 483.324219 393.191406 484.867188 C 387.015625 490.070313 396.226563 505.320313 392.734375 504.121094 C 389.242188 502.925781 379.046875 500.796875 373.238281 497.535156 C 373.292969 491.40625 378.171875 476.3125 378.980469 474.53125 C 380.339844 471.53125 390.78125 459.457031 394.316406 455.695313 C 400.292969 449.328125 418.832031 424.5 426.5625 402.886719 C 430.605469 391.582031 427.914063 388.203125 419.738281 375.246094 C 415.582031 368.65625 408.238281 359.011719 407.128906 356.867188 C 408.058594 355.304688 409.1875 353.546875 410.160156 353.203125 C 410.777344 354.933594 411.339844 356.238281 409.589844 358.082031 C 411.445313 358.070313 413.0625 356.085938 413.6875 354.710938 C 414.101563 355.933594 413.539063 358.328125 413.027344 359.226563 C 416.078125 359.296875 418.664063 354.949219 419.453125 353.851563 C 419.65625 355.128906 418.21875 357.597656 417.179688 358.742188 C 418.921875 358.773438 423.296875 356.25 424.238281 354.730469 C 424.519531 356.746094 423.917969 357.699219 422.527344 358.519531 C 424.742188 359.421875 428.6875 356.414063 430.074219 355.316406 C 429.628906 358.128906 428.78125 358.820313 426.632813 360.367188 C 429.054688 360.234375 431.886719 358.804688 434.003906 357.957031 C 440.492188 355.359375 451.179688 366.636719 453.898438 369.648438 C 460.261719 376.691406 462.171875 382.730469 463.6875 391.886719 Z M 525.257813 440.636719 C 524.652344 454.617188 523.75 489.234375 523.5625 495.820313 C 523.414063 501.042969 525.175781 509.628906 522.816406 512.234375 C 521.113281 513.507813 518.203125 511.164063 516.097656 513.34375 C 512.796875 516.761719 514.441406 525.652344 512.261719 526.761719 C 511.757813 527.019531 510.726563 527.234375 509.941406 527.148438 C 509.222656 527.066406 496.671875 514.390625 495.953125 514.339844 C 498.460938 510.648438 500.722656 507.761719 502.597656 505.160156 C 506.355469 499.9375 508.109375 492.179688 508.304688 490.269531 C 511.046875 463 516.496094 428.871094 499.796875 410.269531 C 490.191406 399.578125 449.507813 363.089844 445.273438 358.691406 C 436.191406 349.261719 421.996094 333.613281 413.171875 326.242188 C 399.644531 314.9375 379.878906 318.398438 360.589844 325.101563 C 348.539063 329.289063 335.335938 335.703125 323.46875 335.871094 C 320.777344 335.90625 306.320313 336.472656 303.800781 338.792969 C 302.765625 337.519531 302.84375 336.75 302.800781 335.65625 C 300.523438 335.992188 298.257813 337.039063 297.316406 338.171875 C 296.84375 337.316406 296.777344 336.34375 296.988281 335.449219 C 295.46875 335.726563 292.667969 336.933594 291.503906 337.964844 C 291.246094 336.988281 292.085938 336.078125 292.484375 335.078125 C 290.539063 335.703125 287.863281 336.917969 286.671875 337.609375 C 286.414063 336.632813 286.742188 335.789063 286.800781 334.941406 C 285.046875 335.261719 282.347656 336.246094 281.304688 337.601563 C 281.269531 336.726563 281.554688 335.621094 281.914063 334.707031 C 280.441406 335.117188 277.671875 336.359375 275.726563 337.820313 C 276.210938 336.160156 277.171875 335.574219 277.066406 334.925781 C 274.121094 335.914063 270.035156 337.828125 268.992188 339.183594 C 269.046875 337.757813 270.785156 335.695313 270.910156 335.054688 C 268.28125 336.015625 263.511719 339.070313 262.363281 340.539063 C 262.503906 338.453125 263.34375 337.542969 263.839844 336.34375 C 262.324219 336.710938 253.964844 340.855469 251.613281 342.828125 C 252.410156 340.824219 257.023438 338.34375 258.351563 337.210938 C 240.339844 340.570313 243.78125 348.039063 239.664063 351.363281 C 238.402344 349.542969 237.21875 348.109375 235.957031 344.347656 C 234.933594 341.292969 234.484375 337.730469 234.480469 333.953125 C 234.476563 323.710938 234.097656 301.535156 227.851563 299.316406 C 237.359375 312.363281 228.25 337.902344 237.382813 350.035156 C 238.339844 351.300781 239.160156 351.804688 238.285156 353.097656 C 236.75 355.363281 232.359375 358.90625 231.710938 360.195313 C 224.058594 375.425781 218.035156 395.863281 214.871094 407.636719 C 212.367188 416.964844 208.902344 425.441406 205.074219 434.1875 C 198.136719 450.039063 190.351563 466.269531 186.425781 482.539063 C 185.59375 485.976563 182.144531 506.679688 181.867188 507.285156 C 180.976563 509.246094 177.746094 509.015625 175.050781 511.382813 C 170.859375 515.070313 174.746094 521.449219 171.011719 522.730469 C 167.398438 523.972656 152.472656 515.132813 152.9375 511.207031 C 154.347656 509.277344 157.632813 505.992188 161.28125 501.203125 C 165.925781 495.105469 169.632813 487.832031 172.777344 481.492188 C 177.699219 471.574219 184.101563 455.5 182.320313 432.574219 C 188.746094 408.160156 191.078125 408.363281 191.898438 387.566406 C 192.203125 379.730469 189.859375 362.695313 189.359375 359.1875 C 188.566406 353.582031 185.703125 348.796875 180.542969 342.804688 C 166.578125 326.605469 141.929688 300.617188 148.78125 291.675781 C 151.675781 287.898438 167.320313 282.675781 168.519531 282.484375 C 168.632813 283.84375 166.203125 290.460938 163.230469 292.769531 C 168.628906 292.699219 173.417969 288.277344 174.445313 286.691406 C 175.476563 288.632813 173.703125 291.769531 171.375 295.660156 C 177.441406 293.960938 178.96875 286.203125 178.96875 286.203125 C 178.96875 286.203125 181.453125 292.046875 180.882813 295.207031 C 183.84375 293.414063 185.066406 282.644531 184.183594 279.820313 C 186.472656 281.273438 187.417969 284.074219 186.898438 286.910156 C 188.867188 285.429688 191.382813 269.695313 195.234375 257.902344 C 195.914063 255.828125 200.261719 246.035156 201.683594 243.507813 C 215.914063 218.148438 229.03125 225.316406 233.453125 192.746094 C 239.59375 189.289063 253.820313 187.421875 261.011719 185.546875 C 274.46875 182.039063 308.609375 188.808594 316.816406 191.085938 C 326.933594 193.894531 333.015625 196.265625 341.589844 196.898438 C 348.15625 197.382813 361.128906 196.007813 371.738281 194.738281 C 381.125 193.613281 435.746094 192.875 441.445313 193.46875 C 451.378906 194.496094 461.710938 203.8125 464.390625 205.910156 C 474.03125 213.460938 489.28125 246.8125 492.199219 250.101563 C 494.335938 252.511719 498.769531 272.019531 500.773438 276.796875 C 502.316406 280.472656 504.148438 285.738281 505.953125 289.589844 C 506.851563 291.507813 508.132813 300.453125 508.378906 302.925781 C 507.621094 302.226563 506.117188 301.117188 505.214844 300.421875 C 505.855469 301.855469 506.492188 306.941406 506.320313 310.015625 C 505.582031 309.753906 504.796875 308.324219 503.171875 307.804688 C 503.664063 309.246094 504.671875 320.011719 503.851563 321.355469 C 503.203125 319.777344 501.597656 317.308594 500.585938 316.375 C 500.503906 317.984375 498.324219 326.550781 497.394531 329.554688 C 491.648438 348.164063 512.488281 365.566406 525.753906 378.332031 C 530.324219 382.730469 531.085938 386.101563 530.121094 391.527344 C 529.175781 396.886719 527.304688 402.363281 527.34375 408.222656 C 527.363281 410.636719 525.441406 436.351563 525.257813 440.636719 "/>
<path style=" stroke:none;fill-rule:nonzero;fill:rgb(0%,0%,0%);fill-opacity:1;" d="M 105.460938 198.097656 C 106.269531 197.375 107.949219 196.445313 110.554688 197.164063 C 109.628906 195.941406 107.636719 195.417969 104.933594 195.488281 C 105.59375 194.714844 107.269531 194.503906 109.738281 195.007813 C 108.902344 193.78125 104.730469 193.945313 104.332031 193.074219 C 105.191406 193.105469 105.90625 193.242188 106.589844 192.941406 C 105.789063 192.589844 103.386719 191.808594 103.796875 190.578125 C 104.746094 191.589844 106.886719 193.09375 108.191406 192.878906 C 106.910156 192.324219 104.015625 189.648438 104.195313 187.777344 C 105.457031 190.140625 107.757813 191.582031 109.015625 191.53125 C 108.335938 190.957031 106.648438 190.128906 106.976563 187.011719 C 107.304688 188.679688 109.324219 191.027344 110.3125 191.042969 C 109.675781 190.191406 107.929688 187.398438 108.472656 186.078125 C 108.804688 187.308594 110.039063 189.738281 112.21875 189.433594 C 110.550781 188.84375 109.105469 187.324219 109.511719 184.722656 C 109.761719 185.929688 111.625 188.253906 113.59375 188.175781 C 111.460938 186.835938 110.957031 185.210938 111.164063 183.121094 C 111.511719 184.039063 112.773438 185.960938 113.714844 185.761719 C 112.707031 184.265625 111.449219 182.183594 112.222656 181.21875 C 112.210938 182.042969 113.761719 184.117188 114.863281 184.289063 C 114.148438 182.894531 113.171875 180.25 113.449219 178.785156 C 113.863281 179.839844 114.492188 181.84375 115.359375 182.082031 C 115.71875 180.972656 115.226563 179.675781 114.8125 179.328125 C 115.277344 179.109375 115.871094 179.378906 116.53125 178.53125 C 115.417969 178.519531 114.601563 177.675781 114.242188 176.796875 C 115.003906 176.785156 116.753906 176.714844 117.304688 175.871094 C 116.550781 175.792969 115.179688 175.738281 114.523438 174.910156 C 115.425781 174.960938 116.675781 174.746094 117.089844 174.128906 C 116.265625 174.050781 116.246094 174.015625 115.554688 173.285156 C 116.355469 172.699219 116.246094 171.785156 116.09375 171.101563 C 115.625 171.957031 114.941406 172.847656 114.160156 173.671875 C 113.949219 173.894531 113.480469 172.902344 113.375 172.523438 C 112.757813 173.09375 112.390625 174.367188 112.578125 175.148438 C 111.902344 174.867188 111.277344 173.972656 111.078125 173.488281 C 110.546875 174.332031 110.425781 175.925781 110.925781 177 C 109.960938 176.65625 109.144531 176.742188 108.445313 177.097656 C 108.894531 177.410156 109.6875 178.035156 109.761719 179.101563 C 108.933594 178.339844 108.019531 177.441406 106.714844 177.605469 C 107.113281 178.027344 108.097656 179.355469 107.792969 180.402344 C 107.453125 179.710938 106.359375 178.386719 105.484375 178.296875 C 105.996094 178.890625 106.867188 180.117188 106.851563 181.105469 C 106.003906 180.425781 105.710938 179.945313 104.472656 180.027344 C 104.90625 180.359375 105.808594 181.035156 105.863281 181.878906 C 104.949219 181.507813 103.960938 181.382813 102.085938 182.460938 C 102.757813 182.835938 103.3125 183.050781 103.707031 183.8125 C 102.628906 183.679688 100.664063 183.867188 98.699219 185.367188 C 99.429688 185.941406 101.144531 186.367188 103.257813 186.210938 C 102.605469 186.765625 101.835938 187.214844 100.855469 187.351563 C 101.253906 187.703125 101.363281 187.726563 102.007813 187.867188 C 101.402344 188.273438 100.90625 188.621094 100.105469 188.875 C 100.472656 189.519531 100.851563 189.992188 101.511719 190.074219 C 100.933594 190.644531 100.082031 191.335938 99.191406 191.566406 C 99.566406 192.023438 100.015625 192.378906 100.878906 192.582031 C 100.496094 193.054688 99.746094 193.921875 98.570313 194.269531 C 99.355469 194.484375 100.382813 194.71875 101.679688 194.304688 C 100.726563 195.179688 99.542969 195.683594 98.277344 195.761719 C 99.277344 196.300781 101.851563 195.921875 103.042969 195.5625 C 102.460938 197.507813 99.828125 198.902344 96.902344 199.019531 C 98.0625 200.230469 99.613281 200.28125 100.863281 200.15625 C 99.628906 200.953125 98.222656 201.101563 96.257813 201.234375 C 97.601563 202.003906 98.050781 202.257813 99.308594 202.089844 C 98.308594 202.992188 96.113281 203.15625 94.875 203.1875 C 94.9375 203.804688 95.792969 204.246094 96.390625 204.625 C 95.9375 205.0625 92.734375 206.472656 91.945313 206.660156 L 94.160156 207.304688 C 94.070313 206.871094 97.125 204.703125 100.328125 204.433594 C 102.886719 204.214844 106.167969 204.535156 106.597656 204.183594 C 106.863281 203.964844 104.324219 203.105469 102.230469 203.394531 C 103.265625 202.523438 106.414063 201.929688 108.277344 202.367188 C 107.519531 201.648438 105.574219 201.414063 104.230469 201.734375 C 104.914063 200.71875 108.617188 199.433594 111.082031 199.480469 C 109.992188 198.246094 107.242188 197.953125 105.460938 198.097656 "/>
<path style=" stroke:none;fill-rule:nonzero;fill:rgb(0%,0%,0%);fill-opacity:1;" d="M 513.109375 384.335938 C 507.144531 380.570313 505.320313 382.714844 497.410156 371.796875 C 497.234375 371.5625 497.027344 371.742188 497.132813 372.085938 C 498.507813 376.554688 503.46875 381.652344 504.304688 382.246094 C 508.042969 384.894531 512.628906 382.90625 516.53125 393.996094 C 518.15625 398.609375 518.753906 404.03125 519.4375 407.316406 C 519.664063 408.410156 519.984375 408.042969 519.910156 407.257813 C 518.785156 395.753906 519.472656 388.328125 513.109375 384.335938 "/>
<path style=" stroke:none;fill-rule:nonzero;fill:rgb(0%,0%,0%);fill-opacity:1;" d="M 398.1875 263.207031 C 397.480469 259.476563 395.730469 246.980469 396.628906 242.53125 C 397.59375 237.75 398.296875 233.101563 398.472656 226.523438 C 397.703125 226.824219 395.984375 235.648438 395.714844 238.675781 C 394.898438 247.753906 395.515625 255.3125 396.519531 261.957031 C 397.859375 270.804688 403.550781 295.347656 405.734375 303.917969 C 407.222656 309.769531 409.433594 314.15625 410.421875 315.890625 C 410.753906 316.46875 410.769531 316.003906 410.683594 315.648438 C 407.785156 303.636719 401.703125 281.800781 398.1875 263.207031 "/>
<path style=" stroke:none;fill-rule:nonzero;fill:rgb(0%,0%,0%);fill-opacity:1;" d="M 447.195313 264.078125 C 445.71875 265.96875 441.390625 272.441406 440.8125 273.410156 C 436.992188 279.820313 433.589844 288.25 432.222656 293.523438 C 429.960938 302.25 428.585938 307.953125 431.113281 314.980469 C 431.253906 315.367188 431.460938 315.253906 431.414063 314.828125 C 430.113281 302.675781 432.265625 300.574219 435.429688 288.539063 C 437.433594 280.910156 446.273438 267.34375 447.550781 264.195313 C 447.78125 263.625 447.640625 263.507813 447.195313 264.078125 "/>
<path style=" stroke:none;fill-rule:nonzero;fill:rgb(0%,0%,0%);fill-opacity:1;" d="M 397.109375 289.492188 C 394.332031 292.554688 384.710938 303.925781 380.988281 307.335938 C 377.621094 310.429688 371.351563 314.007813 368.578125 315.523438 C 367.722656 315.992188 368.230469 315.9375 368.722656 315.769531 C 376.746094 313.085938 380.597656 310.34375 382.75 308.015625 C 387.367188 303.019531 395.234375 293.515625 397.398438 289.710938 C 397.613281 289.328125 397.628906 288.921875 397.109375 289.492188 "/>
<path style=" stroke:none;fill-rule:nonzero;fill:rgb(0%,0%,0%);fill-opacity:1;" d="M 75.324219 216.578125 C 73.074219 217.144531 71.949219 215.894531 68.949219 214.078125 C 65.949219 212.269531 62.011719 213.019531 60.136719 214.328125 C 58.261719 215.644531 57.074219 219.953125 56.886719 220.644531 C 56.449219 222.269531 56.824219 222.203125 57.386719 221.769531 C 57.949219 221.328125 61.136719 221.519531 64.761719 221.328125 C 68.386719 221.144531 71.574219 219.078125 72.136719 218.644531 C 72.699219 218.203125 75.074219 218.203125 76.199219 217.703125 C 77.324219 217.203125 77.574219 216.019531 75.324219 216.578125 Z M 57.535156 221.203125 C 57.558594 219.9375 58.039063 218.617188 58.578125 217.984375 C 58.472656 219.558594 60.308594 220.941406 60.308594 220.941406 C 60.308594 220.941406 58.171875 220.835938 57.535156 221.203125 Z M 65.457031 215.753906 C 65.078125 215.769531 64.757813 215.457031 64.742188 215.054688 C 64.726563 214.648438 65.019531 214.3125 65.398438 214.296875 C 65.777344 214.28125 66.097656 214.597656 66.113281 215 C 66.128906 215.402344 65.835938 215.738281 65.457031 215.753906 Z M 70.320313 218.601563 C 71.28125 216.988281 70.449219 215.675781 70.449219 215.675781 C 70.449219 215.675781 71.875 216.660156 72.308594 217.257813 C 72.285156 217.652344 71.296875 218.386719 70.320313 218.601563 "/>
</g>
</svg>
