<?xml version="1.0" encoding="UTF-8"?>
<svg xmlns="http://www.w3.org/2000/svg" xmlns:xlink="http://www.w3.org/1999/xlink" width="520pt" height="523pt" viewBox="0 0 520 523" version="1.1">
<g id="surface1">
<path style=" stroke:none;fill-rule:nonzero;fill:rgb(0%,0%,0%);fill-opacity:1;" d="M 385.617188 135.175781 C 388.144531 135.769531 390.792969 136.582031 393.550781 137.648438 C 393.84375 138.457031 394.546875 141.105469 395.648438 145.597656 C 396.472656 145.929688 399.503906 147.023438 399.503906 147.023438 C 399.617188 147.0625 402.128906 152.296875 402.339844 152.582031 C 403.027344 152.734375 415.199219 155.144531 416.195313 156.429688 C 416.195313 156.429688 422.460938 163.664063 425.089844 165.34375 C 425.089844 165.34375 457.992188 181.808594 469.195313 195.6875 C 469.777344 195.347656 475.335938 191.574219 476.152344 191.734375 C 477.714844 192.046875 511.742188 218.648438 512.566406 218.953125 C 533.066406 153.984375 504.289063 128.703125 504.332031 127.761719 C 506.625 126.722656 508.4375 125.699219 509.785156 124.730469 C 509.886719 124.214844 502.617188 113.035156 494.1875 106.191406 C 494.898438 104.9375 498.351563 99.203125 498.398438 98.945313 C 498.40625 98.875 497.558594 93.648438 497.75 92.859375 C 499.449219 92.199219 501.351563 91.304688 503.429688 90.171875 C 503.664063 81.535156 490.507813 70.800781 491.105469 69 L 492.421875 64.964844 C 492.546875 64.578125 489.417969 61.328125 488.972656 60.539063 C 489.050781 59.84375 489.78125 55.3125 489.636719 54.679688 C 477.414063 47.40625 457.066406 47.105469 457.066406 47.105469 C 456.394531 47.054688 450.804688 37.042969 450.640625 36.90625 C 449.847656 36.304688 447.15625 37.785156 442.5 37.089844 C 440.671875 36.820313 436.722656 32.757813 436.273438 32.210938 C 422.289063 34.28125 406.890625 57.601563 405.765625 59.097656 C 396.566406 50.558594 387.234375 56.046875 383.601563 58.78125 C 388.691406 34.28125 384.769531 16.585938 383.207031 13.449219 C 382.390625 8.558594 367.164063 -4.566406 352.234375 1.816406 C 346.507813 3.484375 332.515625 21.15625 353.503906 22.347656 C 353.542969 21.964844 353.472656 21.667969 353.292969 21.4375 C 334.617188 11.707031 371.367188 -7.71875 380.039063 21.414063 C 380.710938 24.304688 383.964844 43.734375 377.800781 67.222656 C 364.539063 62.109375 357.695313 41.285156 355.730469 40.578125 C 355.117188 42.367188 357.191406 65.257813 377.441406 73.878906 C 376.617188 83.109375 342.242188 98.496094 342.125 99.269531 C 345.117188 101.484375 346.941406 110.585938 347.1875 110.703125 C 347.1875 110.703125 369.527344 117.757813 369.859375 129.753906 C 369.394531 129.464844 352.367188 121.148438 351.324219 121.324219 C 351.28125 121.640625 355.617188 136.921875 337.75 142.140625 C 337.242188 146.109375 334.851563 149.128906 334.386719 149.871094 C 336.890625 153.433594 342.492188 169.210938 339.28125 176.085938 C 339.167969 176.089844 339.066406 176.066406 338.964844 176.039063 C 333.828125 140.859375 317.308594 151.578125 315.785156 150.855469 C 296.027344 146.109375 300.753906 113.820313 275.328125 96.703125 C 275.636719 96.363281 275.941406 96.195313 276.226563 96.195313 C 286.269531 101.394531 292.820313 108.359375 295.890625 117.101563 C 300.332031 129.78125 303.902344 137.421875 306.605469 140.023438 C 323.066406 155.558594 334.398438 138.648438 335.097656 138.160156 C 335.097656 138.160156 353.515625 136.660156 346.46875 117.828125 C 349.578125 116.445313 365.777344 125.855469 366.222656 125.945313 C 364.152344 121.628906 349.0625 111.59375 343.589844 113.25 C 344.066406 100.433594 334.257813 95.785156 334.257813 95.785156 C 333.867188 95.578125 335.929688 74.972656 328.9375 71.652344 C 328.660156 71.847656 334.617188 86.785156 328.914063 91.234375 C 327.335938 92.117188 325.320313 90.847656 322.863281 87.425781 C 316.785156 78.964844 301.277344 80.484375 297.574219 85.507813 C 287.890625 83.371094 276.167969 88.777344 275.160156 89.335938 C 255.601563 87.308594 241.902344 98.710938 241.902344 98.710938 C 238.464844 101.972656 235.066406 104.328125 231.726563 105.773438 C 218.328125 111.582031 186.304688 123.796875 167.871094 136.660156 C 143.253906 148.472656 121.78125 170.945313 112.925781 176.816406 C 108.671875 179.636719 50.066406 198.085938 57.832031 217.40625 C 62.925781 226.960938 92.328125 205.433594 96.28125 208.628906 C 95.859375 209.285156 89.734375 216.835938 89.734375 216.835938 C 89.097656 217.84375 79.203125 224.070313 77.078125 232.925781 C 71.347656 235.132813 67.71875 237.113281 66.195313 238.84375 C 65.816406 245.597656 85.75 252.71875 87.445313 253.847656 C 88.652344 257.410156 82.734375 257.1875 81.578125 257.027344 C 80.933594 256.941406 35.628906 246.121094 24.800781 253.644531 C 26.683594 255.660156 33.792969 262.46875 34.753906 264.214844 C 34.109375 264.441406 12.46875 273.3125 12.210938 273.878906 C 12.988281 274.761719 17.519531 278.925781 17.851563 279.632813 C 8.628906 287.097656 2.695313 292.875 0.0585938 296.984375 C 0.234375 297.386719 8.519531 297.929688 11.132813 298.359375 C 11.070313 299.089844 3.753906 316.535156 3.519531 317.910156 C 4.402344 317.996094 10.785156 317.960938 11.609375 318.304688 C 11.273438 319.34375 7.855469 326.808594 7.941406 327.683594 C 8.589844 327.949219 13.222656 329.609375 13.777344 329.984375 C 13.863281 331.257813 7.703125 346.324219 7.949219 346.996094 C 9.328125 346.789063 10.707031 346.484375 12.050781 346.097656 C 12.597656 346.878906 9.378906 379.472656 13.863281 387.730469 C 14.589844 387.144531 26.363281 379.382813 27.351563 379.292969 C 27.285156 380.574219 26.398438 396.492188 27.25 397.761719 C 32.453125 394.910156 36.355469 393.636719 38.964844 393.929688 C 39.109375 394.617188 45.339844 426.195313 53.203125 435.703125 C 53.996094 435.070313 58.761719 430.382813 59.167969 429.996094 C 59.730469 429.898438 78.488281 467.535156 79.242188 468.238281 C 79.761719 467.773438 86.296875 461.769531 86.875 461.34375 C 87.410156 461.546875 97.507813 487.121094 97.921875 488.097656 C 98.894531 487.980469 100.855469 487.351563 103.78125 486.210938 C 104.476563 486.84375 116.929688 508.324219 117.769531 508.371094 C 117.882813 506.859375 118.695313 506.03125 120.210938 505.890625 C 121.332031 506.875 137.652344 522.355469 138.09375 522.09375 C 151.914063 512.558594 167.84375 482.683594 171.167969 473.792969 C 171.71875 473.722656 177.425781 479.09375 177.8125 478.878906 C 178.878906 478.289063 190.632813 456.394531 191.132813 456.214844 C 191.679688 456.972656 198.566406 467.582031 199.488281 467.878906 C 200.773438 466.484375 219.742188 431.816406 220.175781 431.722656 C 220.175781 431.722656 230.09375 421.773438 230.132813 421.714844 C 230.671875 421.746094 234.894531 423.425781 235.558594 423.652344 C 236.355469 422.523438 239.257813 410.640625 239.726563 409.996094 C 240.351563 410.292969 246.089844 412.285156 246.273438 411.980469 C 246.398438 410.667969 246.464844 372.5625 246.328125 369.578125 C 247.460938 368.914063 248.679688 368.601563 249.984375 368.613281 C 250.078125 368.140625 250.265625 366.019531 250.574219 362.273438 C 251.207031 361.847656 255.285156 361.984375 256.222656 361.984375 C 256.128906 361.507813 252.289063 345.859375 252.078125 343.457031 C 253.511719 342.769531 259.699219 342.511719 270.660156 342.675781 C 268.992188 333.535156 234.617188 311.722656 234.46875 311.585938 C 234.671875 311.421875 276.339844 270.535156 293.785156 272.140625 C 286.800781 279.441406 283 283.519531 282.386719 284.339844 C 282.554688 285.226563 287.863281 289.664063 287.863281 289.664063 C 289.011719 290.535156 286.59375 301.871094 286.59375 301.871094 C 286.5 302.246094 290.597656 307.789063 290.597656 307.789063 C 290.695313 309.914063 290.792969 312.035156 290.890625 314.160156 C 291.445313 314.804688 295.429688 315.9375 296.242188 316.3125 C 296.703125 321.132813 297.042969 323.894531 297.246094 324.640625 C 300.699219 324.722656 302.804688 324.824219 303.5625 324.945313 C 302.589844 336.683594 274.121094 367.632813 274.6875 368.53125 C 279.804688 370.238281 282.839844 371.785156 283.796875 373.160156 C 284.070313 373.5625 294.617188 406.664063 295.097656 407.28125 C 295.789063 407.191406 302.894531 405.871094 303.429688 406.074219 C 304.007813 406.289063 307.660156 411.402344 314.40625 421.40625 C 315.542969 421.453125 317.578125 421.246094 320.511719 420.816406 C 320.734375 421.046875 323.839844 425.300781 324.300781 425.835938 C 326.339844 425.742188 327.710938 425.863281 328.390625 426.214844 C 329.425781 426.75 342.292969 443.113281 342.644531 444.304688 C 342.644531 444.304688 343.613281 447.46875 343.9375 448.359375 C 343.9375 448.359375 347.921875 453.15625 347.925781 453.242188 C 347.925781 453.242188 348.703125 466.191406 348.996094 467.980469 C 353.5 467.773438 356.222656 467.988281 357.171875 468.625 C 357.472656 469.292969 359.289063 488.410156 363.574219 489.375 C 364.933594 488.078125 382.996094 474.761719 383.261719 474.636719 C 385.484375 475.8125 387.445313 476.488281 389.128906 476.695313 C 390.882813 474.371094 392.039063 472.644531 392.566406 471.484375 C 393.785156 472.066406 394.988281 472.636719 396.207031 473.21875 C 396.289063 473.101563 401.816406 457.433594 406.484375 456.882813 C 410.214844 460.585938 410.570313 485.34375 410.703125 488.175781 C 412.117188 488.679688 414.035156 488.433594 416.457031 487.457031 C 417.03125 488.199219 419.878906 491.472656 420.808594 491.640625 L 422.898438 491.40625 C 423.96875 491.285156 428.011719 497.414063 428.011719 497.414063 C 430.070313 499.617188 431.285156 501.304688 431.648438 502.480469 C 431.648438 502.480469 434.800781 512.042969 435.890625 514.503906 C 436.359375 514.214844 457.464844 499.960938 459.238281 468.902344 C 459.332031 467.808594 460.0625 446.0625 460.300781 445.613281 C 460.300781 445.613281 458.515625 403.359375 454.21875 394.46875 C 455.703125 394.398438 457.820313 394.402344 460.5625 394.488281 C 464.15625 394.605469 466.4375 393.863281 467.398438 392.285156 C 468.09375 392.28125 473.570313 392.585938 473.699219 392.578125 C 473.941406 392 474.941406 387.199219 475.121094 386.511719 C 475.679688 386.257813 480.386719 385.234375 481.058594 385.046875 C 483.191406 373.960938 474.09375 329.785156 473.878906 328.21875 C 475.246094 325.871094 491.136719 315.621094 491.066406 315.011719 C 491.007813 314.929688 485.496094 308.941406 484.417969 307.132813 C 484.953125 305.828125 485.59375 304.578125 486.332031 303.367188 C 485.933594 302.136719 474.710938 281.765625 475.195313 281.191406 C 475.195313 281.191406 478.898438 276.507813 481.554688 272.878906 C 481.480469 272.839844 459.363281 264.320313 458.855469 263.761719 C 458.9375 263.035156 460.121094 258.269531 460.277344 257.582031 C 457.609375 256.070313 436.515625 251.605469 436.175781 251.550781 C 435.972656 250.851563 436.625 245.015625 436.230469 244.722656 C 432.820313 244.367188 408.335938 243.550781 407.351563 243.183594 C 407.097656 242.242188 405.5 236.230469 404.679688 235.96875 C 404.191406 236.160156 397.984375 238.191406 397.226563 238.652344 C 397.128906 237.4375 397.855469 229.527344 397.476563 228.964844 C 368.214844 243.757813 363.472656 276.105469 361.785156 276.152344 C 338.554688 256.359375 296.0625 257.433594 295.597656 256.914063 C 312.039063 245.335938 340.609375 233.734375 343.789063 232.507813 C 346.171875 231.589844 352.992188 226.433594 358.230469 217.925781 C 359.398438 216.453125 385.011719 198.574219 385.011719 198.574219 C 392.105469 194.671875 394.464844 184.171875 398.371094 182.921875 C 398.878906 182.597656 405.183594 178.617188 406.765625 176.984375 C 409.3125 174.371094 411.554688 172.820313 413.492188 172.335938 C 423.078125 172.097656 422.558594 166.425781 422.292969 165.914063 C 421.941406 165.675781 413.214844 157.972656 412.65625 157.871094 L 400.65625 154.535156 C 400.585938 154.507813 397.289063 149.183594 397.230469 149.15625 L 393.941406 147.683594 C 392.777344 147.054688 391.316406 140.335938 391.316406 140.335938 C 387.097656 137.789063 382.964844 138.457031 382.914063 137.710938 C 382.914063 137.710938 381.238281 125.667969 380.902344 125.457031 C 380.902344 125.457031 371.890625 124.058594 373.246094 116.371094 C 373.121094 115.214844 375.566406 102.007813 369.527344 97.160156 C 381.339844 96.757813 377.476563 119.8125 377.816406 120.675781 C 378.476563 120.859375 384.546875 122.339844 385.746094 122.796875 C 385.890625 123.496094 385.179688 134.285156 385.617188 135.175781 Z M 317.785156 87.136719 L 317.835938 88.269531 C 317.835938 88.269531 306.789063 87.964844 302.503906 91.242188 L 302.53125 91.808594 C 302.53125 91.808594 318.210938 85.996094 327.613281 118.894531 C 328.234375 118.363281 332.253906 111.722656 337.710938 113.179688 L 337.671875 113.890625 C 327.398438 116.316406 328.429688 127.371094 328.429688 127.371094 C 328.429688 127.453125 320.179688 121.695313 311.820313 121.039063 L 311.808594 120.757813 C 320.308594 120.121094 322.820313 123.394531 324.507813 123.863281 C 324.238281 115.675781 314.140625 83.894531 294.566406 98.753906 L 292.964844 96.648438 C 292.964844 96.648438 301.277344 83.371094 317.785156 87.136719 Z M 251.863281 105.21875 C 255.078125 106.210938 257.5625 117.839844 258.152344 118.621094 C 263.742188 126.945313 285.414063 123.945313 287.046875 125.101563 C 283.15625 125.4375 264.527344 131.410156 255.53125 119.910156 C 255.285156 119.398438 253.210938 108.570313 251.515625 105.375 C 251.660156 105.382813 251.777344 105.332031 251.863281 105.21875 Z M 251.011719 97.140625 C 232.242188 119.859375 271.316406 142.050781 271.089844 142.171875 C 271.015625 142.210938 252.714844 146.109375 250.992188 136.871094 C 250.992188 136.871094 259.277344 143.222656 265.125 140.269531 C 225.152344 116.183594 249.378906 97.109375 251.011719 97.140625 Z M 244.199219 143.300781 C 252.875 146.199219 293.664063 154.539063 304.164063 155.558594 C 304.164063 155.558594 309.570313 162.410156 309.84375 162.773438 C 307.054688 167.109375 290.453125 173.535156 289.988281 173.976563 C 289.585938 174.355469 286.246094 181.40625 286.375 181.523438 C 287.1875 182.261719 300.671875 173.355469 306.472656 170.050781 C 306.746094 170.070313 307.011719 170.230469 307.261719 170.519531 C 295.242188 181.019531 283.421875 183.90625 283.277344 184.128906 C 283.277344 184.128906 268.464844 214.621094 232.078125 223.570313 C 232.242188 220.660156 245.890625 217.507813 254.03125 211.800781 C 254.242188 210.34375 255.433594 205.542969 257.609375 197.390625 C 257.78125 197.042969 258.230469 196.871094 258.945313 196.867188 C 258.871094 197.238281 256.613281 207.242188 256.972656 209.351563 C 259.882813 210.074219 280.015625 188.109375 282.929688 177.6875 C 267.414063 181.285156 238.277344 206.746094 235.476563 204.277344 C 237.097656 202.199219 254.398438 189.410156 254.300781 189.023438 C 215.089844 196.160156 202.210938 187.042969 202.144531 187.039063 C 194.789063 192.660156 164.464844 193.816406 164.117188 193.808594 C 163.621094 194.023438 163.113281 193.546875 162.59375 192.367188 C 163.414063 192.136719 196.539063 189.160156 197.941406 185.660156 C 192.339844 181.808594 173.210938 179.300781 172.523438 178.457031 C 173.976563 177.429688 189.191406 176.910156 200.464844 185.183594 C 211.539063 189.828125 253.589844 193.710938 281.605469 174.671875 C 243.003906 175.246094 236.289063 172.324219 221.746094 167.460938 C 190.242188 170.257813 179.511719 160.644531 179.960938 159.589844 C 188.898438 161.949219 190.242188 166.058594 217.261719 165.539063 C 217.476563 165.308594 198.378906 154.769531 198.765625 143.890625 C 203.101563 151.882813 219.378906 177.347656 283.710938 171.425781 C 288.4375 170.710938 297.742188 167.339844 300.46875 165.472656 C 232.242188 159.496094 212.191406 141.769531 211.445313 140.441406 C 276.601563 168.683594 304.820313 158.171875 304.265625 158.191406 C 297.96875 157.367188 257.195313 149.417969 247.992188 146.371094 C 238.664063 143.285156 212.554688 135.347656 201.15625 137.332031 C 200.867188 137.058594 200.773438 136.683594 200.871094 136.210938 C 201.246094 136.21875 216.753906 133.769531 244.199219 143.300781 Z M 153.160156 239.023438 C 153.160156 239.023438 157.691406 235.007813 157.265625 231.03125 C 188.839844 237.460938 222.875 226.03125 222.875 226.03125 C 217.191406 240.257813 153.160156 239.023438 153.160156 239.023438 Z M 186.613281 242.59375 C 137.390625 271.757813 96.09375 252.578125 94.082031 251.597656 C 94.332031 251.523438 139.839844 259.160156 186.601563 242.3125 Z M 154.914063 225.914063 C 156.597656 224.207031 159.753906 222.558594 164.371094 220.976563 C 202.839844 225.558594 230.378906 213.011719 230.378906 213.011719 C 212.289063 234.308594 157.480469 226.742188 154.914063 225.914063 Z M 170.054688 206.746094 C 170.054688 206.746094 183.941406 219.609375 225.320313 208.179688 L 225.332031 208.464844 C 211.269531 218.59375 164.691406 222.410156 170.054688 206.746094 Z M 169.320313 153.679688 C 169.21875 152.875 176.046875 146.378906 183.714844 145.78125 L 178.867188 155.300781 C 177.945313 157.078125 171.15625 154.839844 169.320313 153.679688 Z M 232.679688 113.4375 C 236.441406 105.160156 240.921875 106.429688 240.921875 106.429688 L 240.9375 106.714844 C 231.453125 110.933594 237.285156 122.988281 237.285156 122.988281 C 237.207031 122.976563 233.289063 120.382813 232.617188 117.171875 C 228.304688 116.445313 210.636719 125.84375 210.453125 125.851563 C 210.453125 125.851563 218.328125 118.546875 232.679688 113.4375 Z M 197.683594 124.273438 C 202.492188 120.558594 214.285156 116.417969 214.933594 116.125 C 207.039063 125.808594 182.980469 142.566406 180.605469 142.675781 C 180.605469 142.675781 194.765625 126.007813 197.683594 124.273438 Z M 190.40625 128.320313 C 190.40625 128.394531 164.691406 154.507813 163.234375 151.5625 C 161.191406 139.109375 190.40625 128.320313 190.40625 128.320313 Z M 173.839844 159.984375 C 166.089844 163.960938 163.65625 173.542969 163.65625 173.542969 C 163.101563 174.800781 155.546875 177.265625 143.546875 174.007813 C 143.546875 174.007813 152.441406 168.859375 160.730469 157.367188 C 163.640625 153.109375 173.96875 158.492188 173.839844 159.984375 Z M 157.394531 205.808594 C 154.214844 207.214844 109.390625 209.460938 108.6875 204.996094 C 106.589844 191.960938 151.503906 194.867188 151.503906 194.867188 C 151.566406 195.058594 151.714844 195.121094 151.9375 195.0625 L 150.617188 200.371094 C 150.292969 201.691406 156.414063 205.144531 157.394531 205.808594 Z M 127.351563 188.398438 C 131.789063 171.660156 147.539063 177.960938 161.769531 177.738281 C 161.769531 177.738281 159.441406 200.359375 127.351563 188.398438 Z M 160.71875 145.574219 C 154.539063 158.359375 141.234375 163.214844 141.234375 163.214844 C 145.789063 151.710938 157.257813 146.484375 160.71875 145.574219 Z M 135.707031 164.886719 C 135.832031 164.898438 135.90625 164.96875 135.929688 165.089844 C 133.140625 170.703125 120.238281 194.757813 111.566406 193.808594 C 111.566406 193.808594 124.441406 172.007813 135.707031 164.886719 Z M 65.613281 206.675781 C 65.613281 206.675781 64.589844 212.960938 71.53125 215.058594 C 71.546875 215.144531 71.550781 215.238281 71.542969 215.34375 C 50.941406 219.609375 65.613281 206.675781 65.613281 206.675781 Z M 69.300781 210.054688 C 65.988281 203.160156 94.667969 190.589844 94.675781 190.9375 C 90.980469 198.597656 73.691406 215.058594 69.300781 210.054688 Z M 90.796875 205.09375 C 97.839844 190.910156 118.835938 177.183594 119.039063 177.402344 C 105.890625 196.507813 90.898438 205.183594 90.796875 205.09375 Z M 107.664063 209.671875 C 125.496094 210.875 164.503906 210.09375 164.503906 210.09375 C 168.539063 224.859375 111.3125 226.0625 103.660156 224.613281 C 86.714844 219.65625 99.921875 209.152344 107.664063 209.671875 Z M 91.105469 224.105469 C 91.363281 224.113281 94.691406 230.808594 150.753906 228.4375 C 156.988281 247.257813 82.507813 237.753906 82.355469 234.441406 C 82.355469 234.441406 83.140625 224.160156 91.105469 224.105469 Z M 74.863281 241.894531 C 117.789063 244.109375 151.667969 242.695313 151.667969 242.695313 C 151.667969 242.695313 155.265625 244.644531 155.890625 244.984375 L 155.910156 245.410156 C 149.34375 248.773438 76.140625 250.058594 74.863281 241.894531 Z M 169.621094 464.6875 C 160.316406 489.460938 138.128906 515.445313 137.847656 515.585938 C 134.066406 516.234375 122.335938 501.5 121.851563 500.988281 C 121.191406 500.726563 118.546875 502.46875 118.546875 502.46875 C 117.28125 501.929688 106.320313 482.296875 105.792969 481.328125 C 104.5625 481.425781 103.496094 481.902344 102.601563 482.746094 C 102.144531 481.785156 88.257813 452.867188 87.945313 452.234375 C 87.386719 452.070313 81.636719 458.726563 80.015625 460.597656 C 79.421875 460.542969 62.046875 424.277344 61.457031 423.875 C 60.605469 424.375 55.558594 429.132813 55.410156 429.117188 C 45.863281 413.859375 43.585938 386.210938 43.527344 385.566406 C 43.214844 385.226563 37.128906 387.882813 30.3125 391.53125 C 30.015625 391.496094 35.808594 367.226563 36.089844 366.5625 C 36.238281 358.558594 64.589844 339.660156 48.554688 331.804688 C 33.789063 329.859375 32.464844 352.785156 33.265625 356.820313 C 33.441406 371.160156 17.558594 382.007813 16.414063 381.816406 C 15.722656 377.6875 15.238281 344.910156 20.515625 340.257813 C 19.472656 340.152344 14.191406 341.316406 13.5 341.027344 C 13.695313 340.351563 19.421875 329.261719 20.019531 327.914063 C 18.570313 326.925781 16.136719 326.15625 12.71875 325.597656 C 13.066406 324.546875 19.417969 311.902344 19.015625 311.59375 C 16.210938 311.4375 13.410156 311.46875 10.617188 311.695313 C 10.269531 311.539063 18.699219 295.488281 18.765625 294.578125 C 14.886719 293.859375 12.332031 293.246094 11.089844 292.738281 C 12.898438 290.910156 27.019531 280.390625 26.875 279.445313 C 26.347656 279.050781 22.472656 276.3125 21.96875 275.839844 C 22.957031 274.511719 29.414063 271.753906 41.34375 267.570313 C 45.859375 265.988281 48.316406 265.066406 48.699219 264.808594 C 46.304688 262.851563 39.757813 257.144531 39.390625 256.855469 C 59.863281 254.960938 91.085938 268.324219 91.980469 268.226563 C 91.941406 267.347656 90.839844 263.710938 92.164063 262.9375 C 118.488281 278.410156 113.414063 304.132813 129.679688 338.898438 C 99.589844 320.410156 101.164063 281.558594 68.742188 273.59375 C 68.855469 273.714844 94.515625 293.984375 94.347656 304.003906 C 76.839844 288.382813 49.699219 289.003906 39.230469 289.523438 C 39.675781 289.84375 53.214844 292.933594 53.535156 294.832031 C 48.488281 296.433594 31.648438 307.8125 31.199219 308.5625 C 31.628906 308.351563 73.164063 291.359375 84.851563 301.777344 C 63.714844 306.058594 50.417969 321.496094 49.796875 322.664063 C 100.464844 290.308594 101.164063 333.882813 136.996094 347.246094 C 139.308594 348.332031 146.488281 357.859375 138.34375 366.902344 C 133.539063 374.484375 94.691406 364.507813 87.175781 372.878906 C 87.417969 372.945313 117.265625 370.808594 122.320313 376.1875 C 87.339844 408.609375 90.601563 421.902344 91.078125 424.820313 C 105.714844 385.507813 144.566406 375.007813 147.785156 363.695313 C 149.277344 365.039063 152.964844 402.835938 149.359375 417.742188 C 149.132813 417.902344 115.164063 428.035156 109.261719 442.109375 C 109.851563 441.808594 138.789063 422.785156 150.835938 424.449219 C 151.296875 426.324219 143.515625 468.460938 145.128906 472.582031 C 149.816406 472.660156 156.65625 425.539063 156.910156 425.703125 C 172.914063 446.410156 170.378906 462.683594 169.621094 464.6875 Z M 127.96875 322.042969 L 128.394531 322.023438 C 134.238281 323.210938 158.28125 307.15625 158.921875 306.996094 C 158.910156 307.121094 151.738281 329.160156 151.230469 343.753906 C 144.738281 347.007813 130.640625 329.085938 127.96875 322.042969 Z M 178.871094 467.671875 L 178.777344 467.722656 L 178.769531 467.582031 C 178.875 467.566406 178.96875 467.585938 179.058594 467.640625 Z M 261.128906 339.3125 C 255.632813 338.707031 244.789063 337.164063 244.71875 337.367188 C 244.636719 337.617188 250.195313 353.605469 250.59375 357.105469 L 250.167969 357.125 C 249.910156 357.136719 244.566406 355.6875 244.574219 355.820313 C 244.574219 355.820313 245.261719 364.273438 245.253906 364.445313 C 244.703125 364.25 240.1875 362.382813 240.058594 362.558594 C 242.28125 371.761719 241.914063 400.722656 241.945313 403.621094 C 240.269531 402.925781 235.390625 400.65625 235.28125 400.664063 C 234.925781 401.898438 233.371094 415.261719 233.285156 415.9375 C 232.296875 415.488281 227.066406 411.40625 226.839844 411.480469 C 226.480469 412.21875 222.03125 424.207031 220.6875 425.882813 C 220.539063 425.90625 220.394531 425.886719 220.261719 425.832031 C 219.839844 424.703125 207.039063 375.007813 194.257813 381.828125 C 184.992188 385.507813 195.097656 397.117188 201.863281 403.554688 C 225.414063 428.035156 200.417969 457.15625 198.710938 457.117188 C 195.984375 449.335938 193.984375 443.894531 192.710938 440.789063 C 192.339844 440.769531 180.191406 465.867188 178.746094 467.398438 C 178.671875 467.410156 178.578125 467.414063 178.464844 467.410156 C 172.914063 433.285156 157.363281 418.59375 157.132813 417.148438 C 156.03125 410.203125 155.632813 378.140625 155.632813 378.140625 C 180.789063 403.882813 175.015625 420.160156 191.363281 436.167969 L 191.644531 436.15625 C 191.621094 436.082031 191.601563 436.003906 191.585938 435.925781 C 189.648438 426.429688 180.351563 406.90625 180.359375 406.734375 C 184.402344 408.878906 196.21875 417.371094 196.316406 417.351563 C 200.214844 410.710938 151.914063 382.359375 154.28125 351.738281 C 172.914063 339.835938 207.777344 345.59375 207.777344 345.59375 C 199.164063 338.257813 178.476563 340.980469 178.476563 340.980469 L 178.464844 340.695313 C 187.089844 331.433594 212.617188 327.847656 218.125 326.8125 L 218.113281 326.527344 C 215.816406 325.933594 188.664063 322.507813 167.066406 344.339844 C 166.644531 343.527344 169.238281 328.808594 180.503906 317.1875 C 171.863281 317.257813 160.210938 345.328125 158.238281 344.40625 C 157.898438 344.253906 154.015625 305.710938 173.582031 306.175781 C 182.140625 308.042969 188.53125 308.433594 192.75 307.34375 C 221.214844 298.882813 261.128906 339.3125 261.128906 339.3125 Z M 212.472656 295.855469 L 211.90625 295.878906 L 211.886719 295.453125 C 223.316406 287.335938 250.308594 280.628906 250.390625 281.058594 C 236.964844 306.757813 212.472656 295.855469 212.472656 295.855469 Z M 369.003906 278.738281 C 369.542969 269.417969 378.714844 242.972656 390.914063 243.023438 C 390.601563 244.40625 390.578125 245.796875 390.835938 247.191406 C 392.113281 246.722656 399.539063 242.859375 399.617188 242.855469 C 400.113281 242.84375 401.382813 246.054688 401.539063 247.464844 C 402.308594 247.964844 428.367188 248.851563 429.902344 249.222656 C 429.132813 250.242188 428.28125 251.195313 427.351563 252.078125 C 427.855469 252.402344 452.953125 260.542969 453.445313 260.753906 C 453.34375 261.632813 451.648438 265.433594 451.644531 266.300781 C 452.625 266.800781 468.203125 272.125 473.339844 275.515625 C 473.113281 276.503906 467.996094 280.285156 467.914063 280.425781 C 467.4375 281.277344 480.789063 303.503906 480.082031 305.570313 C 478.941406 306.175781 477.953125 306.972656 477.136719 307.976563 C 477.433594 308.269531 482.566406 312.109375 482.84375 312.992188 C 482.386719 313.722656 468.121094 322.273438 467.988281 322.585938 C 467.914063 322.753906 469.210938 329.71875 471.878906 343.488281 C 474.386719 356.433594 475.8125 369.046875 476.160156 381.3125 C 475.011719 381.910156 472.367188 382.105469 468.242188 381.890625 C 467.683594 382.53125 467.253906 386.746094 467.179688 387.683594 C 466.066406 387.386719 464.386719 386.480469 462.140625 384.949219 C 461.410156 385.4375 460.738281 387.207031 460.125 390.25 C 459.753906 390.304688 451.742188 389.421875 450.339844 388.953125 C 449.996094 390.15625 457.230469 437.191406 456.726563 438.894531 C 456.425781 439.90625 452.988281 445.523438 453.558594 450.578125 C 458.28125 493.15625 437.515625 504.683594 437.515625 504.683594 C 437.515625 504.683594 434.714844 498.722656 433.222656 494.511719 L 431.320313 494.949219 C 430.855469 494.003906 428.148438 485.265625 428.019531 484.910156 C 427.050781 485.261719 421.785156 488.6875 421.613281 488.789063 C 420.71875 487.226563 419.476563 484.707031 417.890625 481.226563 C 416.777344 481.722656 415.777344 482.402344 414.902344 483.257813 C 414.601563 483.023438 414.941406 451.660156 408.230469 447.933594 C 402.339844 449.035156 395.453125 461.460938 395.804688 465.21875 C 395.417969 465.464844 392.703125 463.660156 391.644531 462.828125 C 390.808594 463.007813 388.328125 467.890625 387.355469 469.089844 C 385.628906 467.90625 383.867188 467.917969 382.085938 469.113281 C 372.503906 475.546875 366.949219 478.953125 365.421875 479.335938 C 365.351563 479.089844 360.867188 431.710938 369.480469 416.480469 C 370.125 416.976563 377.140625 441.160156 385.65625 447.410156 C 385.648438 447.339844 370.839844 416.484375 375.558594 400.429688 C 375.6875 397.8125 384.796875 376.476563 385.511719 375.648438 C 389.214844 394.433594 395.761719 403.445313 395.78125 403.5 C 395.898438 403.617188 396.085938 403.707031 396.339844 403.785156 C 396.296875 403.328125 384.492188 369.757813 396.894531 343.15625 C 397.132813 342.917969 417.039063 377.109375 418.699219 386.597656 C 418.632813 387.273438 405.230469 405.984375 407.039063 415.96875 C 410.480469 405.722656 419.210938 396.273438 419.886719 395.398438 C 420.1875 395.214844 427.804688 422.523438 426.191406 428.441406 C 422.585938 438.441406 420.980469 444.390625 421.355469 446.285156 C 426.753906 435.910156 430.121094 434.71875 430.285156 435.097656 C 430.40625 435.378906 430.496094 438.921875 430.5625 445.730469 C 430.585938 448.261719 423.339844 461.636719 424.417969 467.027344 C 427.015625 460.585938 431.429688 459.070313 431.582031 459.304688 C 432.230469 462.164063 433.128906 490.195313 433.25 490.660156 C 436.992188 484.734375 437.210938 462.246094 437.410156 461.707031 C 438.277344 462.941406 440.515625 465.621094 444.121094 469.726563 C 445.105469 467.183594 435.242188 445.699219 434.894531 442.734375 C 434.253906 437.292969 434.179688 433.941406 434.664063 432.671875 C 438.828125 433.285156 445.855469 443.148438 446.796875 443.289063 C 445.914063 435.648438 430.890625 421.351563 430.890625 421.351563 C 429.996094 420.476563 425.457031 394.984375 425.46875 392.3125 C 426.902344 393.0625 436.203125 396.273438 443.488281 404.3125 C 443.554688 398.109375 421.734375 380.328125 421.667969 380.167969 C 421.667969 380.167969 390.039063 319.304688 390 318.605469 C 396.09375 321.347656 403.460938 325.757813 412.097656 331.84375 C 420.714844 339.046875 420.308594 359.363281 421.078125 361.324219 C 425.703125 355.585938 419.722656 335.964844 419.71875 335.359375 C 421.6875 336.414063 441.191406 348.757813 441.746094 356.003906 C 446.964844 362.933594 444.726563 368.394531 445.914063 377.898438 C 449.855469 376.058594 447.828125 361.058594 448.289063 361.058594 C 454.316406 361.097656 466.046875 374.382813 467.132813 374.449219 C 466.648438 373.9375 463.503906 361.097656 426.074219 334.730469 C 436.730469 334.585938 454.269531 343.046875 455.484375 342.929688 C 449.066406 335.371094 423.6875 328.972656 419.175781 328.375 C 382.652344 313.058594 373.898438 296.429688 374.335938 296.238281 C 406.539063 300.460938 420.851563 295.660156 423.523438 296.675781 C 440.140625 299.148438 455.546875 321.625 456.390625 322.035156 C 454.578125 309.910156 436.902344 294.328125 435.84375 292.980469 C 438.828125 290.746094 454.871094 295.910156 455.527344 296.027344 C 455.539063 295.617188 446.964844 287.859375 428.9375 287.101563 C 429.117188 286.816406 439.355469 280.246094 439.601563 274.28125 C 438.660156 274.773438 414.152344 295.996094 387.769531 291.691406 C 388.320313 291.332031 408.378906 282.871094 410.222656 270.941406 C 409.496094 271.636719 376.617188 302.820313 364.917969 285.511719 C 368.328125 282.1875 368.84375 281.5625 369.003906 278.738281 Z M 428.464844 287.253906 C 428.566406 287.238281 428.660156 287.257813 428.75 287.3125 L 428.5625 287.34375 L 428.46875 287.394531 Z M 302.410156 264.351563 C 307.058594 263.890625 348.441406 272.808594 356.914063 286.253906 C 357.601563 287.113281 359.175781 291.015625 358.441406 291.71875 C 314.402344 285.496094 306.582031 290.269531 306.582031 290.269531 C 306.667969 290.265625 329.628906 292.585938 329.175781 297.175781 C 329.257813 297.867188 321.492188 300.460938 314.449219 313.25 C 314.59375 313.226563 314.734375 313.246094 314.875 313.300781 C 331.464844 295.210938 364.085938 297.097656 364.355469 297.386719 C 364.613281 297.652344 367.691406 313.058594 348.242188 318.851563 C 343.507813 320.464844 322.277344 325.132813 319.726563 332.378906 L 319.738281 332.660156 C 319.855469 332.660156 336.191406 323.035156 354.046875 322.710938 C 302.589844 363.460938 307.230469 369.277344 307.230469 369.277344 C 307.355469 369.257813 307.449219 369.296875 307.519531 369.40625 C 307.667969 369.425781 319.128906 357.945313 325.96875 357.0625 C 313.878906 386.558594 327.339844 402.410156 327.339844 402.410156 C 327.339844 402.410156 320.703125 364.507813 332.042969 361.113281 C 337.242188 365.820313 338.480469 387.296875 338.480469 387.296875 C 345.117188 376.058594 334.617188 353.746094 337.921875 348.40625 C 339.378906 343.824219 342.34375 340.027344 346.828125 337.019531 C 347.125 337.953125 347.742188 349.023438 351.152344 351.910156 C 351.941406 327.496094 371.820313 301.886719 371.820313 301.886719 C 372.246094 302.722656 400.765625 337.734375 379.886719 369.640625 C 374.792969 374.195313 364.539063 379.734375 348.339844 386.898438 C 356.664063 389.710938 383.699219 372.007813 383.699219 372.007813 C 384 372.28125 367.164063 412.285156 353.351563 424.980469 C 353.46875 425.070313 353.519531 425.1875 353.511719 425.332031 C 353.621094 425.34375 353.71875 425.316406 353.789063 425.246094 C 353.789063 425.246094 364.535156 417.207031 364.640625 417.441406 C 364.679688 417.523438 359.816406 454.285156 359.277344 460.652344 C 358.53125 461.136719 352.933594 463.933594 352.976563 463.097656 L 353.878906 445.746094 L 349.308594 445.105469 C 349.234375 445.09375 348.804688 439.417969 348.605469 438.261719 C 347.652344 438.074219 344.257813 437.953125 344.257813 437.953125 C 342.128906 437.929688 332.863281 423.761719 332.816406 422.734375 L 332.789063 422.164063 L 328.03125 423.660156 L 327.890625 423.667969 C 327.320313 422.828125 323.492188 414.058594 323.164063 413.386719 C 322.617188 413.371094 315.835938 417.015625 315.519531 416.929688 C 315.269531 416.859375 306.863281 401.433594 305.199219 399.167969 L 298.464844 400.898438 C 298.339844 400.929688 293.691406 388.730469 290.265625 376.019531 C 288.632813 369.984375 287.378906 366.695313 286.492188 366.152344 C 286.007813 365.855469 283.910156 365.351563 280.199219 364.628906 C 284.726563 358.617188 295.5 347.128906 312.527344 330.152344 C 312.527344 330.152344 308.621094 328.65625 307.179688 327.984375 C 307.179688 327.984375 306.765625 321.050781 306.578125 321.0625 L 301.054688 321.3125 C 300.855469 321.035156 300.359375 312.40625 300.359375 312.40625 C 299.925781 312.296875 295.765625 310.972656 295.179688 310.800781 C 295.472656 309.566406 296.824219 300.628906 296.550781 300.519531 C 295.46875 300.097656 291.847656 300.027344 291.847656 300.027344 L 294.496094 286.707031 C 294.523438 286.578125 291.632813 283.28125 289.882813 281.953125 C 289.882813 281.953125 302.5625 272.835938 304.839844 270.90625 Z M 364.261719 186.726563 C 363.019531 187.011719 354.996094 186.019531 354.707031 186.316406 C 354.210938 186.820313 354.425781 189.011719 353.972656 189.171875 C 353.242188 188.6875 346.859375 185.050781 345.355469 185.277344 C 345.355469 186.582031 345.097656 187.84375 344.59375 189.050781 C 341.601563 189.1875 338.199219 189.648438 334.390625 190.441406 C 330.242188 188.808594 331.441406 163.707031 329.683594 160.363281 C 326.117188 160.292969 324.21875 160.484375 323.984375 160.949219 C 323.984375 160.949219 320.441406 173.058594 310.046875 180.996094 C 321.839844 188.460938 311.707031 199.839844 306.777344 209.710938 C 306.789063 209.355469 318.339844 183.558594 307.304688 182.105469 C 306.660156 182.015625 306.125 182.410156 305.703125 183.273438 C 305.960938 183.941406 309.234375 187.894531 309.269531 187.96875 C 309.910156 189.414063 296.019531 226.273438 296.289063 227.660156 C 296.820313 228.1875 300.839844 231.859375 306.066406 232.410156 C 304.640625 232.859375 304.128906 233.804688 304.535156 235.246094 C 305.777344 235.679688 306.992188 236.15625 308.191406 236.683594 C 308.03125 237.480469 306.960938 240.125 306.960938 240.125 C 306.730469 240.644531 306.871094 241.335938 307.394531 242.203125 C 306.753906 242.3125 304.273438 241.382813 304.273438 241.382813 L 302.441406 241.679688 C 302.074219 241.738281 301.550781 241.578125 300.871094 241.207031 C 298.75 235.457031 297.550781 232.355469 297.257813 231.894531 C 296.644531 232.4375 294.679688 235.652344 294.121094 236.023438 C 292.867188 231.25 292.285156 228.503906 292.371094 227.78125 C 292.386719 227.640625 304.367188 191.6875 304.367188 191.6875 C 304.339844 187.757813 300.46875 187.445313 300.46875 187.445313 C 298.390625 186.007813 278.789063 204.558594 261.015625 216.265625 C 261.015625 216.265625 263.390625 247.609375 251.941406 255.488281 C 259.539063 246.558594 259.710938 217.371094 259.460938 216.386719 C 257.921875 217.296875 256.9375 218.136719 256.503906 218.894531 C 252.191406 224.160156 251.105469 252.296875 251.078125 252.433594 C 249.949219 253.222656 243.636719 256.960938 242.917969 258.007813 C 242.746094 258.265625 240.085938 264.558594 239.546875 264.554688 C 237.214844 262.996094 235.527344 262.5625 234.46875 263.25 C 234.1875 263.433594 227.753906 272.746094 227.511719 273.027344 C 227.339844 268.609375 230.9375 262.375 230.550781 261.832031 C 228.242188 263.171875 224.539063 264.757813 225.058594 262.5625 C 226.355469 261.5 229.210938 259.859375 233.609375 257.648438 C 236.824219 256.03125 238.246094 254.335938 237.851563 252.558594 C 242.261719 251.730469 244.71875 250.972656 245.210938 250.296875 C 245.332031 250.136719 249.878906 229.238281 249.15625 228.554688 C 216.140625 244.460938 185.027344 247.464844 182.976563 249.132813 C 149.289063 270.359375 118.367188 263.621094 106.589844 261.609375 C 106.492188 262.40625 128.289063 274.558594 129.726563 311.019531 C 130.0625 310.878906 149.992188 300.109375 163.8125 300.371094 C 166.824219 300.027344 169.421875 299.386719 171.597656 298.453125 C 179.390625 294.507813 197.351563 300.109375 201.191406 301.070313 C 200.730469 301.65625 175.539063 296.609375 170.101563 301.21875 C 168.53125 301.988281 165.914063 302.574219 162.25 303 C 144.390625 303.609375 131.867188 315.902344 127.941406 315.507813 C 127.269531 313.6875 127.238281 277.007813 99.230469 259.058594 C 99.992188 258.960938 146.140625 270.007813 181.5 247.996094 C 185.039063 245.960938 237.472656 228.074219 251.011719 220.421875 C 293.839844 194.410156 320.632813 161.628906 321.105469 160.101563 C 319.351563 160.160156 318.003906 158.976563 317.078125 156.542969 C 338.992188 146.808594 334.800781 181.703125 334.890625 182.492188 C 336.191406 185.308594 346.4375 179.863281 348.585938 177.707031 C 348.585938 177.707031 349.476563 179.964844 349.800781 179.941406 C 352.320313 178.109375 353.933594 176.929688 354.65625 176.40625 C 354.75 177.6875 354.710938 178.964844 354.546875 180.242188 C 356.628906 180.253906 359.945313 179.902344 364.519531 179.195313 C 364.214844 179.820313 362.792969 180.855469 360.261719 182.308594 C 360.480469 183.042969 364.46875 186.433594 364.261719 186.726563 Z M 434.996094 37.195313 C 435.476563 38.695313 436.011719 40.039063 436.601563 41.234375 L 443.921875 39.90625 C 444.726563 40.496094 445.441406 41.597656 446.058594 43.214844 C 446.929688 43.179688 447.769531 42.949219 448.582031 42.53125 C 450.265625 45.804688 452.167969 49.121094 454.289063 52.484375 C 454.289063 52.484375 479.515625 52.132813 485.585938 57.289063 C 485.457031 57.769531 481.773438 63.851563 481.773438 63.851563 L 487.785156 64.996094 C 487.429688 66.109375 484.15625 72.285156 483.894531 72.976563 C 483.941406 73.042969 496.316406 85.734375 496.316406 85.734375 L 488.984375 88.070313 L 490.519531 93.675781 C 486.695313 92.832031 460.617188 79.433594 455.851563 89.589844 C 455.246094 93.492188 459.867188 96.28125 464.914063 95.59375 C 477.132813 93.925781 478.429688 93.828125 485.042969 96.929688 C 489.886719 99.207031 492.273438 100.980469 492.191406 102.253906 C 490.394531 103.488281 485.835938 105.949219 485.835938 105.949219 C 486.796875 106.769531 493.230469 111.234375 493.253906 111.429688 C 491.574219 113.054688 490.625 114.066406 490.410156 114.46875 C 490.78125 114.710938 500.308594 120.578125 502.621094 122.351563 C 502.621094 122.351563 497.375 126.160156 496.925781 126.515625 C 523.089844 162.910156 512.515625 189.441406 512.515625 189.441406 L 512.496094 189.015625 C 507.339844 141.910156 481.90625 131.675781 481.90625 131.675781 C 482.34375 131.628906 490.609375 133.375 491.355469 133.511719 C 490.539063 125.632813 461.664063 121.433594 447.742188 107.699219 L 447.71875 107.132813 C 448.214844 107.207031 467.441406 113.558594 470.617188 108.28125 C 469.90625 108.089844 428.589844 99.382813 425.210938 83.621094 C 434.890625 77.335938 447.699219 86.5 450.945313 87.828125 C 450.175781 86.484375 447.480469 83.417969 442.859375 78.621094 C 443.007813 78.613281 443.097656 78.535156 443.132813 78.398438 C 452.214844 75.234375 466.382813 81.890625 466.847656 81.847656 C 466.003906 81.21875 458.003906 76.082031 457.476563 75.539063 C 457.914063 75.269531 472.089844 69.847656 472.957031 69.648438 C 472.957031 69.648438 445.914063 64.734375 427.261719 78.84375 C 427.277344 78.777344 427.289063 78.714844 427.300781 78.652344 C 427.015625 68.933594 435.074219 58.761719 435.390625 58.105469 C 435.289063 58.117188 435.195313 58.101563 435.105469 58.050781 C 428.589844 60.535156 423.398438 72.945313 422.871094 75.921875 C 422.472656 75.648438 410.988281 63.394531 411.027344 62.136719 C 411.039063 61.660156 421.242188 41.632813 434.996094 37.195313 Z M 404.261719 65 C 406.640625 66.863281 419.664063 77.859375 417.253906 86.824219 C 405.492188 89.410156 392.429688 74.625 392.429688 74.625 C 399.714844 74.183594 403.417969 66.410156 404.261719 65 Z M 397.375 61.1875 C 400.242188 67.359375 391.355469 70.726563 387.738281 70.710938 C 385.539063 62.632813 393.398438 54.390625 397.375 61.1875 Z M 382.316406 114.996094 L 382.125 114.910156 C 382.0625 114.878906 381.996094 114.851563 381.933594 114.824219 C 381.9375 110.273438 383.160156 105.011719 385.605469 99.046875 C 384.144531 98.328125 375.542969 93.121094 375.542969 93.121094 C 389.742188 82.058594 420.171875 93.535156 420.171875 93.535156 C 428.066406 106.734375 422.140625 123.621094 422.140625 123.621094 C 432.265625 117.757813 426.636719 99.019531 426.566406 98.015625 L 426.851563 98.003906 C 440.664063 103.585938 435.371094 138.335938 435.371094 138.335938 C 441.191406 136.660156 440.746094 123.289063 440.96875 122.683594 C 451.691406 123.535156 463.617188 160.996094 464.933594 162.523438 C 460.089844 120.910156 439.804688 109.121094 439.980469 108.894531 C 440.441406 109.148438 516.789063 143.484375 508.027344 210.988281 C 505.871094 209.191406 488.996094 194.628906 487.871094 193.820313 C 488 193.074219 501.039063 142.433594 469.710938 147.523438 C 468.277344 149.675781 467.367188 155.722656 470.914063 158.066406 C 484.765625 163.960938 485.773438 185.261719 485.773438 185.261719 L 479.84375 185.890625 C 479.628906 186.308594 479.0625 188.441406 478.84375 188.84375 C 477.683594 188.535156 472.03125 185.75 472.03125 185.75 C 471.753906 186.230469 469.117188 190.285156 469.117188 190.285156 C 462.757813 183.199219 456.132813 177.953125 449.246094 174.53125 C 424.390625 163.433594 417.761719 150.097656 417.761719 150.097656 C 417.527344 149.710938 408.726563 148.433594 407.175781 148.503906 C 406.875 147.726563 404.6875 142.3125 404.140625 141.949219 C 403.660156 141.632813 402.007813 141.40625 399.179688 141.277344 L 397.996094 130.972656 L 390.589844 130.320313 C 391.445313 123.441406 391.746094 115.171875 391.734375 115.085938 L 382.316406 114.996094 "/>
</g>
</svg>
