<?xml version="1.0" encoding="UTF-8"?>
<svg xmlns="http://www.w3.org/2000/svg" xmlns:xlink="http://www.w3.org/1999/xlink" width="483pt" height="455pt" viewBox="0 0 483 455" version="1.1">
<g id="surface1">
<path style=" stroke:none;fill-rule:nonzero;fill:rgb(0%,0%,0%);fill-opacity:1;" d="M 405.625 430.070313 C 406.375 426.6875 404.40625 425.648438 403.503906 422.164063 C 402.480469 418.238281 400.035156 412.757813 400 410 C 400.5 399.800781 401.398438 389.398438 395.300781 380.101563 C 395 376.601563 392 373.300781 390.601563 369.699219 C 388.300781 366.898438 386.101563 362.800781 382.398438 361.800781 C 378.101563 354.898438 368.300781 357.601563 362.601563 353.5 C 353.699219 348.199219 344.699219 341.101563 335.601563 336.199219 C 329.398438 335.5 325.898438 329.699219 322.601563 325.398438 C 320.300781 317.300781 318.601563 309.898438 315.800781 302.398438 C 308.601563 301.898438 302.5 303.101563 294.898438 302.699219 C 286.398438 305.800781 277.300781 310.800781 269.300781 315 C 262.101563 319.398438 252.300781 322.800781 249.199219 331.5 C 242.300781 339.800781 236.699219 349.800781 231.199219 359.300781 C 224.398438 363.300781 219.101563 368.800781 215 374.699219 C 212.699219 377.5 208 375.398438 205.601563 376.5 C 192 382.800781 178.898438 393.398438 165.300781 399.601563 C 161.800781 398.5 157.101563 395.398438 153 398.5 C 151.199219 399.5 150.199219 401.601563 149.101563 403.199219 C 145.699219 410.300781 137 401.101563 134 408.199219 C 130.699219 407.800781 127.199219 408.898438 123.898438 407.5 C 117.5 406 112.101563 409.199219 105.898438 406.101563 C 107.101563 400.199219 111.601563 394.800781 114.199219 390.199219 C 117 386.601563 123 386.800781 126.398438 385.898438 C 130 385.300781 131.800781 380.601563 134.699219 380.101563 C 148.101563 370.5 146.5 352.898438 145.800781 338.699219 C 144.199219 333.300781 147 328.398438 146.601563 322.199219 C 146.800781 321.898438 147 321.699219 147.300781 321.5 C 149.199219 305.800781 146.898438 292.898438 146.199219 278.601563 C 146.5 275.332031 128.699219 262.199219 120.300781 254.101563 C 114.800781 255.101563 107.300781 261.601563 101.898438 255.601563 C 95.800781 249 90.601563 240.601563 84.601563 235.398438 C 76 230.398438 68.601563 222.5 59.800781 217.800781 C 56.398438 211 48.800781 217.199219 44 215.300781 C 38.5 215.800781 33.398438 219.5 29.601563 222.101563 C 27.199219 222.601563 24.5 225.898438 23.101563 228.199219 C 18.800781 231.5 24.199219 236.101563 19.800781 239.398438 C 18.398438 241.5 20.699219 243.300781 22.398438 244.101563 C 23.699219 244.300781 27.5 243.398438 27.800781 244.800781 C 33.300781 248 30.699219 255.800781 31.398438 259.5 C 30 267.300781 28.699219 274.898438 22.699219 280.800781 C 17 278.398438 15.5 270.699219 12.300781 266 C 0 261.398438 8.101563 247.398438 1.101563 240.101563 C -1.898438 230.101563 6.5 220 15.898438 217.101563 C 23 210.699219 29.398438 204 33.898438 196.5 C 38.699219 192.300781 45.101563 191.398438 50.800781 190.398438 C 57.5 192.898438 63.300781 197.101563 70.601563 198 C 83.5 200.832031 87 201.167969 88.601563 200.898438 C 87 193.699219 84.398438 185.5 86.398438 176.699219 C 88.699219 167.398438 97.800781 164.101563 103 156.601563 C 104 155.101563 105.300781 153.898438 105.898438 152.300781 C 106.5 138.800781 106.199219 127.101563 106.199219 113.699219 C 103.898438 113.5 104.101563 112.800781 101.601563 113 C 98.699219 120 92.601563 123.699219 86.398438 127.398438 C 83.699219 132.300781 83.800781 141.300781 76 140 C 72 143 67.699219 141.699219 63 142.898438 C 59.398438 140 52.199219 141.5 51.898438 135.300781 C 53.101563 130.101563 48.800781 126.300781 45.800781 122.398438 C 46.398438 116.898438 48.601563 111.800781 50.800781 107.300781 C 51.398438 105.898438 52.800781 106.5 53.699219 105.800781 C 58.300781 100.199219 59.199219 93.101563 62.699219 87.101563 C 64.800781 78.898438 71.898438 71.800781 69.199219 63.300781 C 69.101563 59.699219 72 56.800781 72 52.898438 C 76 50.199219 75.699219 45.699219 79.199219 42.800781 C 81.199219 36 81.898438 29.898438 87.5 24.5 C 89.199219 24.5 89.199219 22.601563 91.101563 22.300781 C 87.800781 16.5 86 11.199219 84.300781 4.699219 C 83.300781 4 84.800781 4 85 3.601563 C 89.101563 4.898438 90.5 9.898438 94.398438 12.601563 C 96 14.398438 98.5 14.898438 99.800781 16.898438 C 100 16.601563 100.199219 16.5 100.5 16.199219 C 98.800781 11.898438 99.699219 6.398438 96.898438 2.5 C 96.5 1.398438 97.167969 0.332031 98 0.300781 C 103.800781 3.601563 105.300781 11.699219 110.601563 16.199219 C 110.699219 18.300781 111.601563 20.101563 113.398438 21.601563 C 118.800781 23.699219 125.398438 23.699219 129.601563 27.699219 C 129.5 28.5 131.699219 27.5 132.898438 28.800781 C 134.300781 30.898438 138.5 33.167969 140.398438 34.5 C 142.199219 37.699219 144.5 37 144.800781 40.300781 C 146.398438 40.898438 149.398438 46.699219 152.300781 49.699219 C 157.199219 53.5 162.601563 48.300781 167.398438 50 C 174.601563 49.398438 184.5 48.699219 188.300781 56.101563 C 190.5 62.898438 190.5 66 188.300781 72.699219 C 190.5 77.601563 194.300781 81.300781 199.101563 83.5 C 203.398438 86.800781 207.898438 89.699219 212.101563 93.601563 C 219.898438 100.300781 220.5 108.800781 223.199219 116.300781 C 226.601563 117.199219 226.398438 118.5 224.300781 120.898438 C 223 123.601563 219.398438 122.5 218.601563 126 C 216.601563 134.398438 226.800781 133.199219 230.800781 136.800781 C 237.699219 142.601563 233.101563 156.5 244.800781 155.898438 C 247.300781 155.800781 250.699219 152.398438 252 155.5 C 247.601563 159.898438 241.300781 163.398438 235.101563 162 C 231.800781 163.398438 229.5 163.699219 225.800781 164.101563 C 232.890625 167.261719 239.328125 172.144531 246.808594 174.582031 C 249.03125 175.308594 259.042969 177.101563 261.660156 177.527344 C 278.5 181.667969 302.800781 179 312.5 179.300781 C 316.667969 179.5 318.5 180.101563 321.898438 181.101563 C 325.898438 181.601563 330.300781 185.101563 335.199219 185.398438 C 337.199219 182.5 336.898438 178.101563 340.601563 175.699219 C 355.5 175.5 364 189.398438 370.800781 201.199219 C 373 205.800781 375.5 211.199219 378.398438 216 C 380.300781 224.199219 386.101563 232.5 393.199219 238.300781 C 398.398438 250 409.699219 260.699219 415.800781 272.898438 C 424.101563 288.800781 445.101563 295.300781 449.300781 313.199219 C 447.101563 322.5 450.898438 332.398438 456.199219 340.898438 C 459.398438 346.699219 466.199219 350.699219 470.199219 354.601563 C 468 357.601563 469.300781 363.5 463.699219 363.199219 C 460.300781 364 458.398438 361.898438 455.800781 364.699219 C 454.5 366.199219 453.601563 368.699219 455.101563 370.398438 C 458.398438 376.199219 467.5 374.800781 468 382.699219 C 473.101563 385.5 480.300781 386.800781 482.398438 392.699219 C 478.300781 395.101563 473.699219 398.5 468 398.101563 C 460.199219 394 450.898438 399 444.300781 394.5 C 439.398438 393.601563 436.398438 389.199219 431.300781 389.898438 C 422.398438 388 415.398438 380.101563 409 373.699219 C 408.898438 376.101563 410.5 379.199219 410.398438 381.601563 C 413 386.398438 413.300781 391.199219 414.800781 396 C 417.101563 402.601563 421.300781 408 420.199219 415.101563 C 419.5 417.300781 416.800781 419.199219 418.398438 421.898438 C 421.199219 426.199219 425.203125 420.800781 426.902344 426.199219 C 429.203125 431.667969 429.878906 439.957031 429.703125 442.96875 C 429.367188 448.636719 426.203125 454.800781 426.203125 454.800781 C 426.203125 454.800781 415.101563 449.300781 410.769531 446.46875 C 408.949219 445.28125 405.332031 444.300781 404.101563 439.636719 C 403.617188 437.796875 405.269531 434.40625 405.269531 434.40625 L 405.625 430.070313 "/>
<path style=" stroke:none;fill-rule:nonzero;fill:rgb(100%,100%,100%);fill-opacity:1;" d="M 56.601563 109.398438 C 58.398438 109.199219 59.699219 109.398438 60.199219 107.300781 C 60.300781 106.398438 61.699219 105.601563 62.699219 105.5 C 64.300781 105.5 67.101563 107.5 67.699219 104.699219 C 67.398438 103.800781 66.300781 103.101563 66.601563 101.898438 C 68.300781 100.800781 69.5 102.5 71 102.898438 C 72.398438 104.601563 70.066406 106.53125 72.667969 107.332031 C 70.5 108.167969 70.699219 108.601563 69.5 109.800781 C 72.300781 113.101563 72 119 71 122.699219 C 69.300781 125.398438 69.800781 120.898438 69.199219 119.898438 C 70 115.5 63.898438 111.898438 61.601563 110.5 C 59.398438 110.5 57.101563 111.601563 56.199219 114.101563 C 55.300781 117.300781 56.398438 121.699219 56.199219 124.199219 C 53.699219 120.300781 51.898438 112.898438 56.601563 109.398438 "/>
<path style=" stroke:none;fill-rule:nonzero;fill:rgb(100%,100%,100%);fill-opacity:1;" d="M 58.699219 129.601563 C 58.5 130.398438 59.199219 130.800781 59.398438 131.398438 C 61.601563 130.800781 63.601563 129.800781 65.199219 127.800781 C 64.601563 129.800781 66.199219 130.800781 66.300781 132.5 C 64.300781 132.601563 62.398438 133.800781 61.199219 135.300781 C 59.398438 135.398438 59.398438 135.398438 58.398438 134.300781 C 58.398438 132.699219 55.800781 126.199219 58.699219 129.601563 "/>
<path style=" stroke:none;fill-rule:nonzero;fill:rgb(100%,100%,100%);fill-opacity:1;" d="M 83.601563 46.398438 C 82 42.601563 89.199219 41.699219 87.5 37.800781 C 89.199219 33.199219 93.800781 32.300781 97.601563 29.898438 C 99.601563 29.601563 103.199219 27.300781 104.800781 29.101563 C 107.300781 29 109 28 105.898438 30.199219 C 104.199219 31.699219 102.300781 28.699219 101.898438 31.699219 C 103.300781 32.300781 102 32.800781 101.601563 33.5 C 99.601563 33.898438 98 33.800781 96.199219 33.800781 C 90.398438 35.898438 93.601563 41.898438 88.199219 43.5 C 84.898438 45.398438 86.398438 48.199219 83.898438 50.699219 C 82.800781 53.5 80.167969 54.667969 79.199219 56.898438 C 77.398438 58.5 79.699219 55 79.601563 54 C 81.5 52 84.898438 49.5 83.601563 46.398438 "/>
<path style=" stroke:none;fill-rule:nonzero;fill:rgb(100%,100%,100%);fill-opacity:1;" d="M 88.601563 84.601563 C 90.898438 81.199219 91.398438 75.898438 93.601563 72.300781 C 91.699219 70.398438 89.5 73.199219 87.199219 71.300781 C 91.300781 71.101563 96.398438 69.398438 98.699219 65.101563 C 96.300781 72.800781 92.300781 80.898438 89 88.5 C 86.101563 88.699219 92 98.199219 86.101563 92.101563 C 86.398438 89.398438 88.300781 87.300781 88.601563 84.601563 "/>
<path style=" stroke:none;fill-rule:nonzero;fill:rgb(100%,100%,100%);fill-opacity:1;" d="M 87.898438 58.699219 C 89.398438 58.898438 92.199219 58.5 92.601563 56.101563 C 92.699219 53.699219 93.5 51.898438 95.800781 51.101563 C 100 53.199219 100.398438 46.199219 104.398438 46.800781 C 100.398438 48.898438 100.898438 54.300781 96.199219 55.398438 C 94.601563 58 99.101563 60 96.5 62.601563 C 96.300781 61.699219 95.398438 61.199219 94.699219 60.5 C 91.800781 60.398438 88.800781 60.398438 86.398438 61.898438 C 86.101563 60.699219 87.300781 59.898438 87.898438 58.699219 "/>
<path style=" stroke:none;fill-rule:nonzero;fill:rgb(100%,100%,100%);fill-opacity:1;" d="M 99.9375 170.746094 C 103.449219 170.113281 105.878906 171.914063 108.667969 170.386719 C 110.917969 168.40625 110.46875 165.164063 113.886719 164.535156 C 116.40625 163.996094 118.839844 165.433594 121.269531 165.886719 C 122.4375 169.304688 111.90625 170.925781 118.386719 173.984375 C 120.457031 174.613281 122.4375 171.375 123.609375 173.265625 C 123.699219 176.503906 120.277344 178.125 120.636719 181.363281 C 119.019531 183.886719 116.40625 184.246094 114.519531 186.945313 C 114.609375 191.894531 106.238281 196.125 112.539063 200.175781 C 115.597656 199.996094 116.40625 203.054688 115.507813 205.394531 C 113.167969 208.816406 113.257813 213.855469 112.898438 217.363281 C 111.367188 210.703125 109.929688 203.324219 105.429688 198.554688 C 104.257813 196.394531 101.558594 196.394531 99.9375 194.683594 C 99.9375 190.363281 102.816406 185.59375 99.9375 181.726563 C 99.039063 178.484375 97.328125 173.265625 99.9375 170.746094 "/>
<path style=" stroke:none;fill-rule:nonzero;fill:rgb(100%,100%,100%);fill-opacity:1;" d="M 116.015625 225.035156 C 116.644531 229.894531 126.636719 242.40625 129.605469 243.484375 C 133.296875 239.976563 135.363281 249.066406 137.703125 243.214844 C 136.355469 238.625 137.253906 234.484375 134.464844 230.523438 C 132.753906 223.234375 129.964844 213.785156 137.074219 208.835938 C 140.945313 207.304688 145.085938 208.386719 148.414063 205.324219 C 152.554688 201.09375 151.746094 193.714844 157.773438 191.015625 C 158.136719 191.015625 158.585938 191.105469 158.765625 190.746094 C 160.835938 191.644531 159.125 194.796875 160.113281 196.503906 C 161.105469 198.304688 163.355469 197.316406 164.613281 198.484375 C 168.933594 197.046875 173.34375 190.925781 178.203125 195.605469 C 182.074219 195.695313 182.253906 189.574219 186.035156 191.015625 C 185.765625 191.914063 186.664063 193.265625 186.304688 194.613281 C 188.734375 196.234375 190.804688 199.925781 194.136719 198.484375 C 199.355469 196.144531 189.996094 185.976563 199.625 188.40625 C 201.066406 187.773438 200.886719 185.976563 200.613281 184.535156 C 198.816406 180.574219 193.953125 183.453125 192.785156 179.40625 C 194.226563 177.964844 196.203125 179.136719 197.644531 179.675781 C 201.15625 180.753906 204.574219 186.875 208.355469 182.285156 C 207.996094 179.945313 205.65625 178.054688 204.125 176.433594 C 202.324219 174.453125 199.894531 173.914063 198.003906 171.933594 C 197.914063 171.304688 198.546875 169.863281 199.625 169.683594 C 204.035156 169.503906 204.484375 175.265625 208.714844 176.433594 C 212.855469 177.246094 218.074219 176.976563 220.324219 181.023438 C 221.40625 181.65625 221.046875 183.363281 220.683594 184.265625 C 217.535156 187.59375 213.574219 187.234375 210.964844 190.386719 C 207.636719 191.644531 210.066406 194.613281 209.34375 197.226563 C 203.945313 202.355469 198.546875 209.734375 190.894531 207.214844 C 186.484375 204.515625 180.546875 205.324219 176.316406 202.355469 C 170.734375 203.34375 165.964844 207.84375 161.734375 210.183594 C 158.585938 212.433594 154.265625 213.605469 150.664063 211.445313 C 148.054688 210.816406 144.003906 210.546875 141.304688 212.703125 C 137.433594 216.214844 136.535156 220.085938 136.085938 225.035156 C 137.796875 232.324219 138.695313 238.445313 144.183594 244.476563 C 146.886719 246.09375 148.683594 241.503906 151.023438 243.214844 C 152.195313 247.804688 151.566406 251.226563 150.394531 255.183594 C 147.066406 256.714844 144.816406 247.625 140.675781 251.316406 C 139.773438 253.296875 142.386719 254.015625 141.933594 255.816406 C 136.355469 253.746094 131.855469 249.425781 126.363281 246.453125 C 118.332031 239.667969 114.832031 226.667969 116.015625 225.035156 "/>
<path style=" stroke:none;fill-rule:nonzero;fill:rgb(100%,100%,100%);fill-opacity:1;" d="M 125.777344 98.414063 C 129.746094 88.449219 131.042969 76.703125 125.777344 66.902344 C 124.96875 63.746094 123.671875 60.667969 124.644531 56.699219 C 125.941406 57.429688 125.617188 59.777344 126.671875 61.074219 C 130.152344 62.773438 129.179688 68.199219 133.070313 68.6875 C 135.257813 72.332031 133.71875 77.433594 133.394531 82.050781 C 132.582031 88.125 130.070313 94.445313 131.042969 100.195313 C 131.855469 100.679688 132.179688 102.058594 133.394531 101.652344 C 135.011719 100.355469 135.257813 97.359375 137.765625 98.414063 C 140.117188 100.277344 137.199219 102.867188 136.875 105.136719 C 134.203125 110.5625 129.910156 114.613281 128.453125 120.605469 C 127.15625 126.277344 125.132813 132.027344 123.429688 137.210938 C 122.621094 140.046875 126.183594 142.558594 122.863281 144.503906 C 122.214844 143.609375 121.40625 144.988281 120.839844 144.175781 C 119.785156 141.828125 122.132813 137.777344 118.488281 136.644531 C 120.433594 133.242188 122.296875 128.785156 120.269531 124.980469 C 119.785156 123.441406 121 123.28125 121.164063 122.066406 C 122.132813 120.121094 121.648438 118.015625 121.730469 116.476563 C 120.757813 114.128906 115.410156 115.34375 117.921875 111.859375 C 118.488281 108.296875 123.105469 106.351563 124.320313 103.109375 C 125.292969 101.734375 124.886719 99.789063 125.777344 98.414063 "/>
<path style=" stroke:none;fill-rule:nonzero;fill:rgb(100%,100%,100%);fill-opacity:1;" d="M 157 373.300781 C 157.101563 368.898438 159.601563 365.101563 159.199219 359.601563 C 161.699219 351.199219 162 339.101563 170 331.5 C 169.101563 325.300781 170.800781 319.898438 170.699219 314.300781 C 172 302.398438 172.199219 291 174.601563 280.101563 C 188.5 282.601563 204 286.699219 218.601563 287.601563 C 224 289.199219 230.699219 288.898438 235.800781 290.101563 C 227.699219 299.5 220.5 310.5 217.5 322.5 C 213.699219 327.800781 215.398438 338 207 340.898438 C 205.199219 345.101563 202.5 348 200.898438 352.398438 C 198.898438 356.699219 196.199219 361.699219 191.898438 365 C 185 370.300781 178.101563 376.699219 170.699219 379.800781 C 165 381.300781 161.101563 383.800781 155.199219 385.898438 C 154.101563 385 155.300781 382.300781 155.199219 381.601563 C 156.5 378.699219 155.300781 376.101563 157 373.300781 "/>
<path style=" stroke:none;fill-rule:nonzero;fill:rgb(100%,100%,100%);fill-opacity:1;" d="M 175.0625 126.550781 C 177.246094 124.445313 179.191406 122.742188 179.191406 119.503906 C 178.464844 116.585938 174.65625 114.644531 175.710938 111.402344 C 176.113281 108.972656 175.222656 106.703125 173.035156 104.679688 C 171.253906 104.03125 170.6875 102.007813 170.121094 99.984375 C 171.09375 95.769531 168.5 92.207031 168.984375 87.753906 C 166.554688 85.484375 165.179688 80.949219 166.636719 77.871094 C 166.636719 77.546875 166.636719 77.222656 166.636719 76.980469 C 170.039063 86.050781 175.710938 95.527344 177.976563 104.679688 C 181.785156 112.859375 185.996094 119.746094 187.617188 128.898438 C 189.804688 134.894531 195.472656 139.835938 201.304688 142.832031 C 203.007813 145.019531 204.949219 146.476563 206.570313 148.664063 C 205.667969 148.832031 199 149.332031 198.390625 145.746094 C 192.882813 143.074219 188.589844 146.476563 184.457031 150.121094 C 183.808594 150.121094 183.078125 150.28125 182.675781 149.554688 C 182.351563 147.449219 185.996094 143.558594 181.785156 143.15625 C 181.296875 143.15625 180.894531 143.15625 180.324219 143.15625 C 176.601563 144.855469 175.0625 149.148438 171.011719 148.988281 C 172.953125 144.289063 177.976563 141.371094 180.894531 137.324219 C 182.1875 135.539063 182.1875 133.433594 182.109375 131.816406 C 181.539063 130.4375 179.921875 130.355469 178.867188 130.03125 C 173.035156 131.167969 168.660156 136.675781 163.722656 139.347656 C 163.398438 139.347656 162.992188 139.429688 162.828125 139.105469 C 165.097656 133.273438 169.714844 128.980469 175.0625 126.550781 "/>
<path style=" stroke:none;fill-rule:nonzero;fill:rgb(100%,100%,100%);fill-opacity:1;" d="M 278.699219 274.300781 C 281.800781 271.601563 282 267.101563 285.898438 265.300781 C 288.800781 265.800781 292.5 266.199219 294.5 263.5 C 297.699219 258.5 299.398438 249.699219 295.601563 244.101563 C 289.601563 238.800781 298.800781 229.101563 290.601563 225.300781 C 291.800781 219.601563 295.800781 213.101563 292.699219 207.300781 C 291.699219 202.800781 287 200.300781 288.800781 195.101563 C 293.5 191.5 297.5 194.398438 303.199219 194 C 304.101563 194.5 303.898438 195.398438 303.898438 196.199219 C 301.699219 197.699219 298.699219 198 297.398438 200.898438 C 296 206.898438 303 214.300781 297.398438 219.898438 C 296.300781 223.800781 297.898438 229.601563 297.398438 232.898438 C 303.101563 243.5 304.5 254.101563 303.199219 266.699219 C 302 269 304.101563 272.101563 303.898438 273.898438 C 306 275.898438 309.101563 280.898438 311.101563 283.699219 C 313.398438 285.5 316.101563 289 319.398438 288.300781 C 323.101563 283.699219 319.898438 276.199219 319.398438 271.101563 C 317.699219 267.800781 316.800781 264.300781 314.699219 261.300781 C 324.800781 259.199219 317.601563 247.699219 322.199219 242.601563 C 323 238.398438 321.101563 234.699219 321.199219 231.101563 C 324 232.101563 324.398438 234.300781 325.101563 236.898438 C 325.601563 244.5 321.199219 250.601563 322.199219 258.101563 C 323.5 262.332031 329.199219 265.800781 326.601563 269.601563 C 327.398438 272.101563 325.101563 273.5 324.398438 275.398438 C 322.898438 282.101563 324.898438 290.398438 320.398438 295.898438 C 318.601563 296.699219 317.398438 296.898438 315.398438 296.300781 C 310.800781 289.800781 307.699219 282.101563 302.101563 275.699219 C 301.300781 274.800781 300 275.199219 299.199219 274.300781 C 291.398438 277.601563 284.398438 284.199219 275.398438 283.699219 C 270.398438 285.101563 265.199219 287.101563 260.300781 284.699219 C 265.300781 280.199219 277.199219 284.300781 278.699219 274.300781 "/>
<path style=" stroke:none;fill-rule:nonzero;fill:rgb(100%,100%,100%);fill-opacity:1;" d="M 370.5 229.699219 C 371.398438 235.898438 374.398438 241.199219 374.800781 247.699219 C 376.898438 251.300781 375.300781 255.101563 376.199219 259.199219 C 376.199219 265 376.199219 269.101563 376.199219 275.398438 C 375.898438 276.601563 375.667969 277 375.199219 275.699219 C 374.699219 269.699219 374.699219 264 373.699219 257.699219 C 372.101563 256.300781 370.199219 255.898438 369 257 C 370.5 250.898438 369.398438 243.300781 369 236.5 C 368.101563 235 366.800781 233.101563 364.699219 234.300781 C 363 235 365 232.601563 364.398438 231.5 C 365.398438 228.601563 365.398438 225.300781 364.398438 222.800781 C 363.800781 221.300781 362.300781 220.800781 360.800781 221 C 363 213.199219 354.398438 209 352.800781 202.300781 C 359.699219 210.199219 367.601563 219.800781 370.5 229.699219 "/>
<path style=" stroke:none;fill-rule:nonzero;fill:rgb(100%,100%,100%);fill-opacity:1;" d="M 377.699219 287.300781 C 381.101563 299.898438 383.800781 312.699219 388.101563 323.601563 C 388.300781 323.800781 388.601563 324 388.5 324.300781 C 384.101563 324.5 378.5 324.699219 375.5 320 C 373.699219 312.101563 375.800781 305.300781 376.199219 297.300781 C 377.199219 294.601563 377.300781 290 377.699219 287.300781 "/>
</g>
</svg>
