<?xml version="1.0" encoding="UTF-8"?>
<svg xmlns="http://www.w3.org/2000/svg" xmlns:xlink="http://www.w3.org/1999/xlink" width="422pt" height="659pt" viewBox="0 0 422 659" version="1.1">
<g id="surface1">
<path style=" stroke:none;fill-rule:nonzero;fill:rgb(0%,0%,0%);fill-opacity:1;" d="M 397.984375 374.519531 C 398.078125 373.441406 395.289063 373.339844 395.65625 371.453125 C 404.125 364.375 400.222656 349.6875 400.222656 349.6875 C 404.125 338.277344 414.027344 330.625 414.183594 316.878906 C 410.914063 313.046875 407.726563 309.925781 406.113281 305.835938 C 396.027344 285.628906 364.429688 252.824219 359.328125 244.171875 C 360.875 238.054688 365.304688 232.128906 369.097656 227.371094 C 371.992188 223.6875 372.273438 219.011719 374.535156 215.058594 C 374.535156 215.058594 376.902344 218.578125 378.121094 220.46875 L 386.179688 204.023438 C 390.621094 194.046875 389.941406 180.8125 389.078125 169.742188 C 390.152344 170.644531 390.625 172.675781 393.039063 172.773438 C 396.699219 164.800781 390.175781 142.976563 392.949219 141.773438 C 392.949219 141.773438 394.449219 139.601563 398.078125 140.160156 C 398.378906 130.800781 392.550781 123.3125 387.082031 116.183594 C 387.175781 115.285156 386.007813 114.113281 387.359375 113.574219 C 388.804688 112.050781 393.324219 115.304688 393.210938 113.1875 C 392.898438 107.386719 378.925781 84.027344 351.191406 79.984375 C 345.796875 79.15625 344.101563 73.84375 342.585938 69.339844 C 342.320313 67.898438 340.34375 67.171875 340.617188 65.460938 C 353.949219 57.253906 342.027344 39.703125 337.035156 30.261719 C 333.476563 24.628906 324.925781 22.828125 322.296875 24.871094 C 322.296875 24.871094 313.226563 30.929688 311.742188 31.894531 C 304.074219 36.875 300.085938 46.976563 292.683594 53.613281 C 272.726563 51.628906 264.351563 52.660156 254.699219 55.027344 C 251.128906 55.902344 232.902344 61.753906 220.890625 74.632813 C 218.453125 76.785156 215.488281 74.976563 212.699219 75.238281 C 208.660156 71.625 204.074219 70.082031 199.308594 68.714844 C 190.3125 66.617188 183.457031 72.355469 175.976563 76.203125 C 175.515625 78.8125 175.976563 91.226563 181.136719 95.210938 C 181.136719 95.210938 166.753906 108.101563 168.554688 118.933594 C 168.554688 118.933594 171.476563 115.753906 173.511719 115.886719 C 170.164063 121.007813 165.476563 124.59375 163.929688 130.167969 C 161.390625 136.550781 158.394531 143.828125 158.734375 151.121094 C 160.988281 150.140625 161.714844 147.261719 164.148438 145.917969 C 163.78125 149.15625 164.757813 152.488281 164.75 155.640625 C 162.128906 159.683594 158.6875 163.328125 154.996094 166.410156 C 148.300781 172.003906 148.300781 182.800781 145.394531 186.226563 C 142.226563 189.101563 142.453125 201.703125 135.070313 206.257813 C 127.378906 209.578125 111.628906 223.078125 105.917969 218.058594 C 108.253906 212.277344 106.003906 203.050781 104.945313 198.835938 C 103.871094 196.761719 102.382813 183.257813 102.667969 178.578125 C 108.253906 169.300781 114.074219 157.195313 109.699219 146.199219 C 107.019531 139.082031 107.003906 130.894531 110.175781 123.34375 L 111.929688 120.148438 C 112.753906 118.453125 117.703125 109.902344 116.296875 95.777344 C 118.378906 93.929688 118.332031 90.066406 117.882813 89.796875 C 116.898438 87.722656 121.132813 86.386719 120.871094 83.59375 L 118.53125 83.585938 C 120.628906 80.429688 118.285156 75.398438 118.285156 75.398438 C 124.863281 73.4375 128.503906 68.277344 131.554688 64.007813 C 137.339844 55.835938 133.6875 42.59375 139.832031 34.601563 C 139.835938 33.703125 140.828125 32.535156 139.839844 31.992188 C 136.828125 33.402344 132.128906 33.21875 128.585938 33.488281 C 123.777344 33.851563 120.851563 37.679688 116.238281 39.03125 C 108.761719 41.527344 112.871094 51.53125 106.472656 54.570313 C 105.582031 50.605469 106.585938 46.648438 106.144531 43.589844 C 106.003906 39.253906 102.058594 25.9375 99.472656 18.460938 C 99.472656 18.460938 96.1875 3.777344 90.257813 0.519531 C 88.007813 0.0625 85.847656 0.507813 83.773438 1.851563 C 81.0625 5.53125 81.585938 11.023438 82.472656 15.617188 C 82.640625 19.667969 84.058594 25.699219 81.976563 29.65625 C 80.546875 26.5 78.9375 23.34375 78.136719 19.921875 L 77.238281 19.738281 C 77.238281 19.738281 77.753906 27.933594 77.03125 29.1875 C 76.847656 29.007813 75.816406 27.792969 75.90625 27.433594 L 74.871094 28.554688 C 74.234375 30.082031 75.21875 32.695313 73.953125 34.21875 C 68.921875 31.324219 64.828125 23.503906 64.90625 19.882813 C 65.097656 17.183594 65.726563 11.804688 64.316406 7.191406 C 64.152344 5.953125 62.128906 2.804688 58.480469 3.03125 C 57.21875 3.746094 50.203125 3.929688 50.09375 8.855469 C 50.089844 9.847656 49.902344 11.824219 49.628906 12.90625 C 49.960938 22.085938 49.933594 30.816406 48.648438 39.542969 C 47.273438 46.828125 51.570313 54.761719 52.898438 61.964844 C 47.851563 64.289063 43.054688 65.214844 37.125 62.769531 C 35.242188 61.753906 30.179688 54.777344 22.5 54.132813 C 13.191406 53.539063 9.367188 58.378906 0.617188 59.464844 C 9.140625 81.890625 31.867188 87.628906 43.738281 84.4375 C 45.085938 86.0625 45.707031 87.863281 45.703125 90.023438 C 48.125 92.28125 43.894531 92.71875 44.15625 94.789063 C 45.773438 95.964844 48.023438 96.238281 49.824219 96.335938 C 51.101563 99.328125 50.878906 101.351563 49.976563 105.15625 C 48.238281 114.0625 48.652344 125.222656 53.757813 133.066406 C 53.757813 133.066406 59.496094 139.835938 59.585938 140.375 C 61.203125 141.191406 62.351563 148.664063 62.621094 149.023438 C 63.027344 150.851563 63.902344 170.71875 63.347656 175.847656 C 62.792969 180.164063 62.855469 189.4375 62.855469 189.4375 C 62.453125 203.023438 63.308594 217.699219 64.527344 231.382813 C 67.535156 247.769531 67.570313 266.222656 66.707031 283.40625 C 65.726563 285.175781 52.65625 301.398438 49.519531 310.984375 C 47.953125 315.777344 51.554688 333.324219 61.332031 333.34375 C 61.453125 336.925781 62.746094 341.085938 64.175781 344.328125 C 67.527344 354.027344 64.488281 360.53125 64.488281 360.53125 L 61.976563 357.464844 C 54.257813 350.328125 44.734375 345.710938 34.75 343.339844 C 32.855469 344.503906 32.308594 346.933594 31.042969 348.730469 C 25.789063 360.320313 29.164063 374.644531 35.523438 384.652344 C 40.097656 390.15625 47.191406 395.578125 54.472656 397.671875 C 61.757813 399.761719 61.011719 407.5 62.433594 413.265625 L 59.167969 422.074219 C 54.28125 431.238281 47.414063 439.589844 43.695313 449.207031 C 43.058594 451.007813 40.898438 451.628906 40.710938 453.519531 C 40.160156 456.578125 43.933594 458.660156 45.457031 460.914063 C 44.90625 465.503906 46.691406 470.097656 49.289063 473.253906 C 49.726563 477.484375 52.957031 481.367188 51.414063 485.59375 C 47.027344 507.179688 53.085938 528.976563 56.800781 550.046875 C 56.800781 550.046875 53.222656 555.53125 52.402344 558.585938 C 39.402344 573.625 51.785156 584.277344 51.785156 584.277344 C 53.804688 585.550781 62.351563 594.324219 62.945313 597.949219 C 65.726563 607.597656 83.675781 606.027344 86.835938 603.070313 C 93.691406 597.332031 98.351563 591.175781 100.179688 577.269531 C 100.179688 577.269531 103.929688 558.382813 114.464844 556.617188 C 118.378906 555.625 126.925781 550.226563 130.140625 550.550781 C 135.476563 555.175781 145.378906 598.824219 176.492188 609.277344 C 180.621094 610.664063 183.765625 614.523438 185.734375 617.949219 C 185.734375 617.949219 195.007813 632.917969 196.566406 639.480469 C 204.550781 673.074219 263.050781 659.574219 266.105469 617.742188 C 267.101563 606.023438 268.003906 595.675781 264.050781 584.078125 C 260.757813 574.414063 259.675781 530.875 267.058594 513.4375 C 269.046875 508.738281 273.121094 502.023438 276.636719 500.957031 C 276.636719 500.957031 284.597656 502.324219 287.117188 501.882813 C 298.738281 498.316406 310.121094 498.628906 322.460938 496.777344 C 325.824219 474.175781 339.308594 464.074219 339.308594 464.074219 C 355.527344 450.773438 354.175781 440.875 353.960938 437.652344 C 359.574219 437.726563 364.527344 434.574219 366.046875 429.050781 C 368.144531 420.507813 372.847656 412.242188 377.191406 405.324219 C 381.980469 398.230469 389.46875 393.03125 397.492188 389.1875 C 404.878906 386.152344 413.25 386.265625 421.089844 383.679688 C 420.324219 379.675781 401.042969 375.070313 397.984375 374.519531 Z M 16.078125 73.660156 C 13.527344 70.304688 8.800781 68.511719 8.996094 63.742188 C 10.441406 62.753906 12.597656 63.753906 14.398438 63.757813 C 18.71875 63.050781 24.203125 65.136719 25.179688 69.191406 C 24.453125 71.167969 27.929688 74.238281 30.113281 74.15625 C 35.246094 73.902344 40.554688 74.1875 45.675781 77.171875 C 42.664063 81.664063 21.5 80.8125 16.078125 73.660156 Z M 183.878906 110.519531 C 184.570313 119.699219 183.175781 133.300781 185.101563 139.546875 C 192.851563 160.300781 188.28125 171.730469 188.878906 181.453125 C 189.652344 193.335938 187.003906 203.726563 192.328125 213.917969 C 198.925781 225.777344 202.300781 229.378906 207.898438 231.191406 C 209.050781 229.601563 211.753906 219.253906 208.117188 215.714844 C 195.777344 202.601563 193.976563 191.128906 197.535156 168.96875 C 198.476563 162.101563 197.128906 134.203125 207.589844 126.613281 C 207.417969 124.089844 204.171875 126.0625 202.824219 124.886719 C 195.277344 120.902344 196.835938 111.367188 190.371094 106.039063 C 186.972656 99.007813 183.035156 91.707031 182.433594 83.335938 C 183.160156 80.90625 184.609375 78.121094 187.222656 77.320313 C 192.445313 75.714844 199.820313 77.179688 205.574219 79.535156 C 207.910156 81.074219 208.890625 83.597656 211.410156 84.054688 C 216.253906 79.976563 226.496094 82.023438 230.726563 81.316406 C 232.902344 80.878906 233.183594 86.011719 233.445313 88.441406 C 234.613281 89.886719 238.683594 83.148438 239.675781 82.882813 C 244.277344 77.945313 254.503906 73.679688 258.292969 72.585938 C 255.328125 70.597656 250.648438 71.105469 247.71875 71.835938 C 233.128906 75.476563 232.1875 75.742188 232.1875 75.742188 C 232.902344 71.652344 250.226563 72.777344 254.847656 65.019531 C 258.367188 62.507813 262.628906 67.558594 266.144531 65.675781 C 272.050781 65.128906 286.195313 56.113281 288.808594 56.03125 C 289.253906 56.753906 291.628906 58.152344 289.429688 58.644531 C 285.101563 59.277344 279.027344 66.253906 269.953125 70.464844 C 271.378906 72.554688 274.136719 71.691406 275.851563 70.707031 C 278.128906 69.628906 291.976563 65.445313 300.257813 64.929688 C 296.128906 57.253906 304 45.101563 306.535156 42.902344 C 310.75 39.476563 320.480469 28.320313 326.863281 31.757813 C 334.152344 36.554688 341.351563 47.578125 341.109375 52.324219 C 340.820313 57.902344 338.644531 63.476563 334.582031 67.601563 C 334.574219 69.3125 334.210938 71.203125 335.824219 72.558594 C 341.351563 76.601563 337.332031 80.570313 337.332031 80.570313 C 364.300781 86.277344 382.527344 107.429688 383.21875 114.011719 C 376.902344 110.351563 372.066406 113.5625 371.925781 113.761719 C 376.675781 119.894531 388.601563 126.214844 390.769531 131.945313 C 386.894531 133.824219 381.09375 132.1875 379.097656 137.039063 C 378.617188 146.488281 388.230469 152.367188 388.742188 161.730469 C 386.761719 161.453125 384.101563 159.851563 381.769531 161.710938 C 376.265625 166.285156 390.402344 182.128906 376.007813 204.710938 C 374.394531 202.726563 372.648438 199.976563 369.953125 198.621094 C 371.5 206.203125 365.113281 220.878906 360.597656 226.894531 C 360.597656 226.894531 360.476563 218.128906 356.335938 217.414063 C 356.875 222.628906 353.441406 231.082031 351.707031 234.609375 C 348.324219 229.601563 336.792969 226.101563 335.171875 226.816406 C 336.714844 222.410156 338.617188 217.734375 342.496094 214.6875 C 346.75 215.878906 358.902344 211.601563 360.246094 209.882813 C 359.078125 208.976563 356.652344 194.953125 364.894531 189.558594 C 368.839844 186.976563 373.195313 183.28125 373.300781 178.0625 C 374.675781 169.605469 376.007813 147.199219 376.007813 147.199219 C 376.449219 104.054688 339.101563 89.878906 336.035156 92.898438 C 338.199219 100.226563 347.652344 101.128906 349.589844 104.550781 C 353.726563 111.929688 361.523438 115.746094 364.019531 123.675781 C 372.335938 141.609375 371.050781 184.601563 351.476563 192.9375 C 349.3125 193.378906 341.800781 193.601563 340.710938 181.652344 C 340.449219 176.726563 337.945313 170.398438 336.511719 168.144531 L 327.589844 159.964844 C 329.902344 168.613281 336.316406 176.777344 332.503906 186.578125 C 331.859375 191.074219 331.761719 194.046875 331.75 198.273438 C 327.507813 202.3125 322.46875 201.9375 317.515625 202.101563 C 311.582031 200.644531 306.824219 196.21875 305.042969 190.632813 C 303.980469 184.148438 306.792969 177.136719 312.835938 173.378906 C 314.554688 170.773438 317.355469 167.089844 315.023438 163.664063 C 312.53125 154.835938 304.183594 147.878906 306.285156 137.714844 C 309.070313 139.433594 309.601563 142.40625 312.929688 143.316406 C 316.53125 142.15625 319.871094 139.648438 320.0625 135.597656 C 317.929688 126.59375 330.25 129.328125 333.507813 124.210938 C 335.757813 124.128906 337.566406 121.703125 339.8125 122.878906 C 337.097656 126.832031 335.007813 134.113281 328.710938 132.835938 C 327.269531 133.191406 325.648438 133.546875 324.832031 135.164063 C 324.464844 138.3125 326.980469 139.761719 329.136719 141.207031 C 334.082031 141.941406 337.777344 139.703125 341.480469 136.746094 C 345.996094 130.460938 348.367188 120.835938 345.421875 113.445313 C 343.816406 108.671875 340.460938 102.902344 335.339844 99.828125 C 329.652344 96.402344 326.726563 83.578125 311.390625 87.152344 C 312.820313 90.394531 317.1875 90.859375 318.527344 93.921875 C 311.558594 95.980469 305.125 86.953125 292.394531 91.769531 C 292.394531 91.769531 289.378906 86.277344 277.511719 85.785156 C 275.878906 81.777344 285.898438 81.042969 290.21875 81.777344 C 293.203125 82.453125 310.074219 85.152344 312.488281 81.125 C 310.609375 77.609375 306.285156 78.675781 304.042969 76.597656 C 306.835938 75.617188 329.875 81.328125 331.757813 78.394531 C 332.210938 77.496094 327.851563 75.253906 325.921875 74.507813 C 316.296875 71.867188 306.042969 70.214844 296.769531 71.175781 C 292.898438 72.066406 285.695313 72.671875 280.742188 73.917969 C 276.960938 74.625 272.816406 76.234375 269.128906 74.78125 C 268.59375 72.980469 267.429688 71.085938 265.632813 70.179688 C 264.175781 69.851563 260.027344 78.171875 260.027344 78.171875 C 260.027344 78.171875 242.351563 86.726563 239.308594 91.367188 C 236.277344 97.078125 228.34375 108.855469 225.359375 113.257813 C 226.078125 113.890625 226.976563 114.972656 227.699219 113.714844 C 236.625 108.253906 242.421875 97.378906 250.269531 91.105469 C 254.277344 88.078125 260.902344 86.457031 263.691406 87.273438 C 264.175781 89.203125 256.917969 94.8125 256.917969 94.8125 C 256.917969 94.8125 247.976563 100.453125 245.007813 104.046875 C 243.476563 106.078125 240.101563 120.027344 234.15625 121.292969 C 232.359375 120.386719 230.660156 116.0625 227.953125 118.933594 C 220.46875 123.410156 220.171875 133.039063 214.929688 139.59375 C 214.214844 137.882813 211.796875 133.734375 211.890625 133.285156 C 214.226563 132.851563 224.800781 119.351563 222.304688 111.988281 L 221.679688 110.273438 C 224.125 105.152344 228.820313 100.128906 232.703125 96.269531 C 233.425781 95.640625 235.59375 92.679688 234.246094 91.953125 C 231.097656 91.675781 227.753906 96.34375 223.699219 97.050781 C 219.46875 98.296875 216.304688 101.800781 215.84375 106.117188 C 213.046875 107.460938 213.667969 111.152344 210.425781 111.949219 L 208.101563 106.273438 C 210.628906 108.777344 214.675781 107.652344 211.542969 99.625 C 207.160156 90.972656 193.300781 86.277344 191.25 83.8125 C 191.050781 114.628906 205.605469 114.726563 205.515625 114.726563 C 208.476563 116.535156 207.476563 122.503906 213.460938 119.519531 C 213.753906 123.554688 212.425781 128.578125 204.976563 138.617188 C 201.628906 143.425781 201.402344 160.300781 212.914063 150.839844 C 212.425781 161.203125 218.503906 165.027344 219.351563 165.078125 C 221.652344 174.476563 226.601563 178.976563 232.4375 183.027344 C 242.578125 190.226563 248.128906 173.535156 248.3125 173.445313 C 248.3125 173.445313 249.101563 168.402344 245.257813 169.296875 C 241.5625 170.367188 237.324219 174.132813 233.1875 172.050781 C 231.21875 168.804688 227.171875 167.980469 224.300781 165.542969 C 224.800781 163.003906 226.828125 157.378906 238.996094 157.398438 C 243.675781 157.503906 249.777344 160.078125 252.839844 161.761719 C 254.953125 159.851563 257.425781 156.027344 261.320313 155.9375 C 267.328125 160.527344 265.078125 190.902344 291.019531 185.1875 C 290.976563 185.199219 290.949219 185.203125 290.917969 185.210938 C 292.054688 185.007813 300.289063 183.8125 302.253906 189.722656 C 303.140625 194.136719 299.0625 203.214844 298.703125 203.394531 C 296.078125 208.335938 286.675781 220.152344 271.488281 214.289063 C 268.433594 212.929688 263.53125 210.105469 263.53125 210.105469 C 259.003906 210.476563 232.226563 221.726563 225.226563 214.597656 C 224.351563 213.628906 223.453125 203.050781 227.441406 197.773438 C 229.078125 195.851563 237.582031 206.714844 239.554688 209.242188 C 259.003906 199.902344 250.011719 174.082031 250.011719 174.082031 C 248.476563 175.699219 248.425781 193.152344 240.847656 198.445313 C 234.925781 202.152344 232.003906 183.925781 225.316406 185.4375 C 222.523438 186.597656 220.984375 189.5625 220.527344 192.351563 C 214.691406 187.5625 212.644531 179.996094 213.027344 172.890625 C 211.605469 167.304688 209.460938 161.808594 205.964844 157.296875 C 204.074219 157.472656 204.878906 159.632813 204.0625 160.710938 C 202.042969 173.753906 209.75 185.027344 216.46875 195.578125 C 219.414063 202.699219 218.132813 210.253906 216.578125 217.359375 C 215.671875 220.6875 213.050781 223.738281 213.757813 227.253906 C 216.453125 229.601563 220.40625 231.140625 223.917969 230.792969 C 236.335938 231.910156 249.113281 232.398438 258.230469 223.339844 C 262.015625 221.820313 272.953125 232.527344 270.964844 238.226563 C 269.96875 240.023438 263.960938 233.4375 261.445313 232.167969 C 259.1875 234.859375 259.972656 241.882813 259.972656 241.882813 C 259.902344 247.152344 245.203125 245.527344 245.203125 245.527344 C 244.601563 244.003906 244.601563 242.425781 237.121094 241.113281 C 237.121094 241.113281 229.300781 232.753906 218.910156 236.628906 C 218.277344 237.433594 220.300781 237.703125 223.4375 240.511719 C 218.726563 240.628906 214.964844 244.984375 210.285156 244.339844 C 208.214844 244.785156 203.582031 245.0625 203.582031 245.0625 C 205.003906 244.003906 207.703125 237.703125 206.339844 232.714844 C 198.074219 228.910156 189.558594 224.027344 186.164063 215.105469 C 185.183594 212.582031 183.582031 207.089844 183.582031 207.089844 C 181.363281 196.101563 179.800781 170.203125 182.183594 163.703125 C 180.703125 163.226563 178.003906 168.402344 176.636719 172.949219 C 170.351563 162.550781 175.976563 142.078125 178.566406 139.933594 C 175.328125 139.742188 170.992188 144.859375 170.992188 144.859375 C 170.304688 134.777344 181.085938 111.769531 183.878906 110.519531 Z M 273.5 116.644531 C 272.960938 117.09375 268.976563 124.910156 267 123.554688 C 266.195313 120.941406 261.347656 117.867188 261.441406 116.429688 C 262.074219 114.988281 264.144531 114.546875 265.765625 115.089844 C 268.226563 115.976563 270.703125 114.628906 271.804688 111.511719 C 273.515625 111.875 276.480469 113.59375 277.386719 111.707031 L 277.390625 109.546875 C 280.8125 109.558594 284.59375 108.9375 287.566406 107.597656 C 287.742188 110.027344 287.191406 112.367188 287.996094 114.800781 C 285.925781 114.613281 278.457031 114.410156 277.195313 114.945313 C 279.027344 120.925781 288.597656 124.070313 288.597656 124.070313 C 288.925781 122.953125 286.089844 120.285156 289.242188 119.484375 C 288.476563 125.425781 307.375 152.203125 307.707031 158.648438 C 301.976563 160.078125 298.828125 161.203125 297.113281 165.140625 C 293.652344 165.476563 276.777344 163.453125 275.476563 176.050781 C 273.597656 172.085938 272.355469 167.222656 270.746094 163.078125 C 270.753906 160.285156 265.929688 135.835938 274.949219 129.023438 C 276.550781 127.226563 275.390625 116.289063 273.5 116.644531 Z M 224.976563 150.875 C 225.878906 149.078125 226.695313 147.730469 228.496094 147.195313 C 232.363281 148.289063 236.589844 149.5625 240.097656 150.023438 C 243.789063 149.765625 248.472656 148.246094 251.179688 146.367188 C 252.976563 147.003906 256.527344 153.328125 251.957031 156.539063 C 247.90625 157.15625 244.675781 153.816406 240.535156 154.34375 C 235.492188 154.777344 228.648438 155.925781 224.976563 150.875 Z M 225.859375 155.648438 C 224.6875 156.183594 223.246094 156.628906 222.613281 157.980469 C 220.90625 156.894531 222.179688 152.128906 222.179688 152.128906 Z M 246.492188 134.066406 C 248.382813 134.25 250.136719 133.761719 250.578125 136.015625 C 251.800781 142.976563 246.503906 144.371094 244.070313 145.085938 C 241.195313 144.445313 238.316406 143.175781 236.707031 140.5625 C 236.617188 139.839844 237.386719 139.617188 238.285156 139.710938 C 247.976563 146.128906 246.492188 134.066406 246.492188 134.066406 Z M 241.507813 130.40625 C 233.3125 132 230.929688 146.574219 221.582031 142.226563 C 220.878906 136.644531 222.425781 130.886719 227.65625 128.203125 C 229.363281 128.570313 228.816406 130.90625 230.703125 131.183594 C 236.503906 132.402344 237.882813 122.542969 244.324219 121.503906 C 244.953125 121.777344 259.003906 119.128906 262.855469 124.441406 C 265.527344 128.578125 262.152344 139.378906 265.664063 147.941406 C 264.761719 149.019531 263.050781 148.5625 261.972656 148.378906 C 261.253906 147.746094 259.832031 141.984375 258.757813 139.730469 C 256.976563 136.453125 249.164063 128 241.507813 130.40625 Z M 250.21875 106.855469 C 254.546875 104.527344 264.175781 106.304688 269.230469 99.980469 C 270.027344 104.484375 266.691406 106.183594 263.804688 108.425781 C 260.828125 110.664063 256.144531 112.632813 255.589844 117.21875 C 252.714844 115.769531 250.453125 118.003906 248.300781 116.386719 C 246.4375 115.167969 248.878906 108.101563 250.21875 106.855469 Z M 320.496094 126.332031 C 318.402344 127.226563 316.210938 129.46875 315.574219 132.164063 C 315.386719 133.515625 317.089844 135.769531 314.929688 136.214844 C 314.125 132.402344 311.261719 129.722656 311.261719 129.722656 C 318.292969 125.601563 325.960938 119.777344 327.339844 110.601563 C 328.074219 107.203125 330.714844 110.796875 330.714844 110.796875 C 330.90625 117.78125 323.800781 124.527344 320.496094 126.332031 Z M 335.519531 113.597656 C 337.859375 114.144531 340.648438 114.421875 341.992188 116.40625 C 339.457031 120.71875 333.972656 118.632813 330.273438 121.589844 C 330.824219 118.441406 333.171875 116.019531 335.519531 113.597656 Z M 314.730469 113.351563 C 316.710938 113.449219 318.507813 113.902344 320.128906 114.628906 C 320.019531 119.578125 311.875 128.128906 306.910156 124.984375 C 306.644531 123.632813 306.875 122.867188 306.96875 121.339844 C 308.136719 122.511719 313.226563 123.175781 314.984375 118.753906 C 315.527344 117.136719 316.164063 114.796875 314.730469 113.351563 Z M 326.273438 105.828125 C 321.039063 110.671875 313.578125 107.769531 308.074219 111.800781 C 305.277344 114.3125 303.199219 117.367188 303.546875 120.878906 C 304.253906 124.839844 304.425781 127.898438 305.855469 131.863281 C 302.078125 130.59375 298.292969 132.203125 295.511719 129.042969 C 294.714844 124.992188 295.625 121.574219 298.964844 119.152344 C 298.535156 116.824219 297.886719 115.324219 298.507813 113.027344 C 301.300781 107.203125 304.785156 102.234375 306.171875 100.503906 C 310.074219 96.402344 314.230469 100.121094 317.652344 99.5 C 321.074219 99.511719 323.960938 97.539063 326.648438 100.429688 C 327.726563 102.140625 326.550781 104.117188 326.273438 105.828125 Z M 298.394531 99.710938 C 297.253906 107.429688 292.5 113.285156 292.5 113.285156 C 291.433594 108.960938 295.453125 105.179688 294.960938 103.300781 C 293.972656 102.578125 292.894531 102.664063 291.90625 101.851563 C 287.046875 101.117188 279.476563 104.726563 275.535156 98.742188 C 280.601563 98.203125 283.96875 98.789063 289.539063 97.078125 C 296.128906 95.054688 302.09375 95.582031 302.09375 95.582031 C 301.460938 96.929688 298.488281 97.460938 298.394531 99.710938 Z M 291.242188 170.519531 C 294.035156 170.078125 295.738281 172.828125 298.351563 172.746094 C 301.078125 168.402344 307.191406 164.449219 309.894531 164.546875 L 310.519531 165.808594 C 309.429688 168.597656 307.621094 170.75 305.546875 172.902344 C 304.277344 175.960938 305.613281 179.925781 301.832031 181.351563 C 300.851563 182.128906 299.578125 182.515625 298.136719 182.421875 C 296.34375 180.164063 297.027344 177.851563 293.65625 176.738281 C 290.503906 176.503906 285.101563 184.152344 279.785156 179.753906 C 282.132813 178.050781 289.082031 171.414063 291.242188 170.519531 Z M 317.886719 228.023438 C 314.46875 228.101563 287.578125 233.425781 283.714844 234.621094 C 280.300781 232.632813 280.902344 226.199219 276.585938 225.554688 C 275.867188 224.113281 275.875 222.042969 276.242188 220.335938 C 285.777344 223.300781 306.699219 207.328125 313.453125 207.757813 C 316.152344 207.777344 332.351563 203.726563 334.90625 210.394531 C 338.875 223.300781 317.886719 228.023438 317.886719 228.023438 Z M 168.597656 162.3125 C 170.578125 163.453125 169.652344 171.226563 169.652344 171.226563 C 168.328125 180.328125 172.480469 188.425781 173.460938 191.128906 C 174.632813 189.960938 175.539063 188.34375 176.085938 186.816406 C 175.257813 192.574219 176.496094 198.605469 178.1875 204.730469 C 175.753906 200.578125 166.976563 189.328125 165.121094 183.136719 C 162.800781 176.289063 166.242188 168.15625 168.597656 162.3125 Z M 154.960938 177.660156 C 156.84375 179.734375 162.476563 199.675781 168.726563 204.535156 C 171.703125 206.425781 178.226563 216.328125 180.207031 221.351563 C 173.953125 219.476563 171.078125 219.261719 166.9375 219.15625 C 162.027344 214.753906 155.277344 209.128906 151.863281 190.339844 C 150.777344 178.753906 154.960938 177.660156 154.960938 177.660156 Z M 146.675781 208.953125 C 149.878906 213.402344 155.875 218.074219 155.875 218.074219 C 152.941406 217.957031 149.652344 217.675781 146.425781 218.269531 C 145.621094 216.285156 146.308594 211.472656 146.675781 208.953125 Z M 127.171875 216.054688 C 136.378906 212.050781 137.777344 219.503906 137.777344 219.503906 C 130.753906 219.027344 122.417969 224.71875 120.703125 225.253906 C 120.449219 220.394531 122.84375 218.378906 127.171875 216.054688 Z M 105.570313 229.976563 C 108.007813 228.273438 109.4375 231.070313 109.613281 232.78125 C 108.257813 233.585938 105.328125 236.128906 104.015625 238.164063 C 104.015625 238.164063 102.597656 231.140625 105.570313 229.976563 Z M 105.050781 165.175781 C 103.054688 169.941406 100.96875 175.785156 95.742188 177.925781 C 93.308594 178.640625 91.058594 178.453125 88.8125 177.1875 C 86.398438 172.859375 83.710938 168.261719 79.128906 165.726563 C 76.351563 161.398438 72.769531 156.078125 72.339844 149.503906 C 71.910156 142.574219 72.832031 135.828125 74.113281 128.992188 C 73.054688 121.519531 72.808594 113.6875 76.96875 107.21875 C 77.515625 105.242188 77.609375 103.171875 77.886719 101.550781 C 77.886719 101.550781 76.109375 93.71875 75.941406 90.386719 C 74.953125 86.503906 73.242188 60.769531 79.460938 57.726563 C 82.152344 56.128906 83.953125 58.378906 84.851563 60.984375 C 86.632813 66.929688 88.75 80.4375 88.75 80.4375 C 88.371094 87.546875 87.90625 97.710938 91.46875 104.203125 C 95.957031 112.390625 99.609375 118.359375 101.347656 123.152344 C 103.753906 129.703125 102.851563 136.003906 104.664063 140.382813 C 110.054688 150.851563 106.328125 158.699219 105.050781 165.175781 Z M 108.335938 92.375 C 108.246094 91.925781 108.425781 91.566406 108.789063 91.296875 C 111.402344 93.703125 113.921875 89.511719 114.1875 90.863281 C 114.101563 92.804688 111.628906 95.054688 108.335938 92.375 Z M 116.621094 61.53125 C 118.605469 59.828125 122.476563 59.929688 123.113281 56.601563 C 124.476563 53.453125 119.082031 51.097656 122.511719 48.140625 C 122.511719 48.140625 129.296875 37.089844 134.425781 36.566406 C 130.722656 41.054688 130.253906 47.535156 130.234375 53.5625 C 130.300781 59.953125 118.757813 68.917969 118.757813 68.917969 C 116.328125 68.820313 114.355469 66.5625 113.367188 65.210938 C 112.476563 63.050781 115.628906 62.429688 116.621094 61.53125 Z M 61.132813 135.25 C 60.144531 134.527344 57.984375 134.25 57.902344 132.179688 C 70.453125 132.851563 58.527344 116.203125 55.152344 118.761719 C 50.878906 104.503906 61.003906 99.554688 70.066406 98.738281 C 69.351563 95.855469 67.976563 92.691406 65.589844 91.164063 C 60.664063 88.863281 58.304688 84.929688 52 90.984375 C 50.117188 88.460938 46.886719 84.988281 48.339844 81.210938 C 67.300781 65.351563 56.277344 57.929688 56.164063 52.886719 C 55.660156 42.085938 54.882813 31.371094 53.472656 20.925781 C 53.839844 18.949219 53.488281 16.515625 55.472656 15.351563 C 57.851563 13.601563 59.335938 17.796875 59.511719 19.054688 C 60.296875 27.246094 70.226563 42.851563 79.324219 44.136719 C 85.808594 42.628906 85.472656 34.886719 87.109375 29.671875 C 88.113281 24.363281 87.773438 18.78125 90.035156 13.75 C 93.644531 10.789063 96.328125 19.226563 96.851563 21.960938 C 97.542969 31.054688 102.015625 39.707031 98.75 48.515625 C 98.351563 54.777344 102.628906 64.453125 107.78125 67.535156 C 111.644531 69.527344 113.703125 73.851563 114.230469 77.902344 C 114.203125 86.363281 104.933594 86.335938 101.402344 92.804688 C 100.769531 93.792969 100.601563 95.277344 101.664063 95.867188 C 104.359375 97.132813 107.234375 99.121094 108.304688 102.097656 C 108.738281 107.585938 109.796875 114.699219 105.640625 119.816406 C 103.121094 118.910156 102.875 115.582031 102.871094 113.328125 C 102.851563 103.378906 97.238281 101.253906 95.984375 98.816406 C 93.660156 94.132813 94.667969 87.5625 97.742188 83.523438 C 98.734375 82.265625 100.449219 81.550781 100.632813 79.84375 C 97.9375 78.753906 95.425781 80.652344 92.632813 76.757813 C 88.003906 69.402344 91.601563 52.078125 80.574219 47.378906 C 78.777344 46.746094 76.253906 47.636719 74.988281 49.34375 C 68.304688 57.152344 73.488281 68.777344 69.949219 77.40625 C 68.59375 80.191406 64.988281 80.722656 63.007813 81.886719 C 64.710938 83.511719 65.96875 85.046875 67.941406 86.851563 C 70.808594 90.910156 73.675781 95.597656 72.488281 100.453125 C 71.941406 102.882813 67.601563 109.53125 67.683594 111.511719 C 67.976563 113.953125 66.589844 116.367188 68.921875 118.804688 C 72.476563 123.175781 67.078125 138.027344 68.039063 142.382813 C 68.039063 142.382813 64.730469 135.800781 61.132813 135.25 Z M 56.039063 94.195313 C 56.132813 93.566406 56.667969 93.835938 57.121094 93.746094 C 57.472656 95.640625 59.8125 95.914063 60.988281 94.839844 C 61.4375 95.019531 61.796875 95.292969 62.335938 95.292969 C 61.792969 96.191406 57.289063 97.976563 56.039063 94.195313 Z M 67.660156 177.839844 C 68.757813 172.535156 70.839844 168.222656 71.214844 163.8125 C 73.636719 166.789063 75.238281 171.652344 79.828125 172.207031 C 84.671875 176.902344 85.191406 184.285156 93.382813 184.128906 C 92.742188 187.007813 92.734375 189.527344 93.355469 191.960938 C 92.367188 191.777344 89.128906 201.925781 91.164063 202.753906 C 94.078125 205.078125 97.835938 199.265625 97.835938 199.265625 C 99.8125 199.71875 100.242188 206.019531 100.242188 206.019531 C 100.671875 213.222656 98.578125 221.277344 91.90625 224.984375 C 93.175781 226.902344 89.847656 239.953125 90.414063 241.992188 C 92.277344 245.351563 95.277344 240.835938 96.449219 240.121094 C 99.253906 244.226563 88.511719 246.125 88.585938 251.347656 C 88.578125 253.503906 88.746094 256.746094 88.382813 258.636719 C 88.203125 258.183594 85.765625 260.96875 85.132813 261.683594 C 85.132813 261.683594 85.167969 250.34375 83.019531 247.007813 L 80.40625 247.8125 C 79.046875 250.777344 77.238281 253.652344 74.980469 255.984375 C 74.539063 253.371094 73.019531 249.496094 74.828125 246.714844 C 76.5625 239.429688 75.050781 232.675781 70.570313 226.808594 C 70.761719 223.570313 69.332031 220.144531 70.148438 217.359375 C 71.855469 218.175781 73.660156 216.921875 73.84375 215.390625 C 74.40625 208.730469 71.367188 201.792969 70.039063 195.128906 C 65.644531 189.984375 67.460938 183.960938 67.660156 177.839844 Z M 62.605469 329.6875 C 59.652344 329.726563 57.046875 326.707031 55.4375 323.28125 C 54.703125 321.402344 51.140625 311.078125 51.953125 310.363281 C 53.601563 300.917969 61.355469 296.441406 66.6875 288.808594 C 73.546875 282.980469 79.335938 275.171875 84.210938 268.34375 C 93.402344 255.476563 104.652344 239.503906 113.296875 234.320313 C 116.128906 232.527344 129.851563 222.851563 148.796875 221.472656 C 148.796875 221.472656 174.851563 220.152344 183.527344 224.816406 C 186.328125 226.453125 199.828125 232.527344 200.816406 234.726563 C 186.550781 252.777344 171.253906 259.753906 163.988281 268.273438 L 160.113281 272.710938 C 160.113281 272.710938 151.902344 269.652344 146.523438 268.765625 C 145.355469 268.039063 134.128906 254.578125 130.683594 258.585938 C 133.992188 265.4375 142.453125 278.652344 144.929688 279.328125 C 149.878906 285.851563 151.453125 293.300781 154.132813 300.148438 C 155.574219 300.152344 156.148438 318.515625 157.125 323.015625 C 156.925781 329.316406 159.066406 335.441406 158.503906 342.640625 C 156.851563 340.75 153.253906 337.824219 148.433594 337.105469 C 139.753906 337.152344 128.726563 354.699219 128.730469 364.726563 C 126.117188 365.707031 120.796875 371.324219 117.644531 371.496094 C 112.257813 367.609375 109.484375 362.109375 108.421875 355.898438 C 108.15625 354.636719 106.269531 353.597656 105.101563 353.054688 C 92.277344 338.277344 72.925781 336.699219 68.625 334.296875 C 68.625 334.296875 65.277344 333.324219 62.605469 329.6875 Z M 162.542969 375.503906 C 160.71875 383.597656 154.304688 390.597656 152.121094 398.601563 C 151.003906 403.300781 155.953125 408.925781 151.449219 412.011719 C 148.675781 406.78125 142.296875 403.613281 137.625 400.265625 C 132.316406 399.441406 130.535156 394.125 129.46875 390.070313 C 133.675781 379.675781 132.128906 373.25 132.128906 373.25 C 132.164063 361.371094 137.15625 348.066406 147.976563 341.800781 C 154.007813 340.648438 157.949219 347.230469 159.554688 352.003906 C 157.636719 361 164.820313 366.871094 162.542969 375.503906 Z M 175.757813 350.976563 C 179.441406 353.507813 185.015625 355.59375 185.265625 360.902344 C 181.136719 357.921875 176.101563 356.375 170.789063 356.71875 C 166.003906 362.644531 170.929688 369.859375 169.019531 376.425781 C 167.945313 374.078125 167.773438 371.46875 166.429688 369.304688 C 164.820313 365.972656 163.570313 362.636719 162.59375 359.125 C 165.296875 357.421875 172.378906 348.851563 175.757813 350.976563 Z M 164.4375 315.480469 C 174.851563 326.574219 163.296875 335.097656 163.296875 335.097656 C 162.3125 333.472656 162.625 319.253906 164.4375 315.480469 Z M 186.910156 470.617188 C 187.976563 474.582031 190.164063 478.605469 190.292969 482.511719 C 190.378906 485.085938 186.023438 494.828125 184.667969 496.980469 C 184.046875 494.550781 185.542969 490.007813 186.179688 487.039063 C 185.824219 485.597656 186.175781 474.9375 186.910156 470.617188 Z M 182.792969 463.046875 C 182.050781 464.726563 172.378906 478.675781 161.34375 472.070313 C 173.503906 456.851563 174.75 444.300781 177.632813 442.960938 C 181.324219 442.613281 184.46875 444.871094 186.078125 447.9375 C 187.859375 453.882813 184.878906 457.921875 182.792969 463.046875 Z M 154.160156 496.710938 C 150.140625 486.796875 148.96875 469.238281 152.328125 458.722656 C 156.628906 442.675781 157.308594 437.859375 158.0625 427.960938 C 158.777344 429.132813 160.636719 439.488281 159.992188 443.984375 C 159.992188 443.984375 156.402344 460.898438 156.226563 467.734375 C 156.226563 467.734375 155.753906 476.101563 154.488281 477.449219 C 154.378906 483.570313 153.636719 490.226563 154.160156 496.710938 Z M 96.214844 521.101563 C 91.601563 531.324219 89.75 545.289063 90.09375 549.609375 C 89.691406 549.660156 89.105469 549.519531 89.019531 548.707031 C 87.550781 534.023438 96.648438 513.179688 96.648438 513.179688 C 97.285156 510.300781 97.90625 496.894531 98.632813 495.1875 C 99.203125 485.199219 100.378906 463.148438 94.039063 453.773438 C 94.683594 449.996094 93.933594 443.511719 95.203125 439.464844 C 98.5 450.90625 103.765625 464.601563 101.296875 477.914063 C 101.34375 491.6875 101.96875 508.332031 96.214844 521.101563 Z M 79.621094 356.4375 C 83.726563 357.625 85.15625 370.855469 87.390625 375.902344 C 92.15625 377.71875 89.257813 382.746094 90.328125 386.082031 C 88.34375 388.054688 83.953125 388.675781 77.835938 380.644531 C 80.179688 379.210938 81.925781 378.550781 80.285156 374.441406 C 78.230469 369.394531 80.351563 365.050781 75.113281 359.035156 C 73.40625 357.320313 72.511719 356.414063 70.628906 354.070313 C 68.652344 351.777344 70.003906 340.75 76.929688 340.046875 C 86.183594 345.476563 98.277344 347.765625 101.214844 358.035156 C 101.296875 360.554688 98.589844 362.617188 98.675781 364.507813 C 97.070313 359.820313 97.902344 354.476563 91.472656 348.871094 C 90.027344 349.527344 84.414063 348.351563 82.710938 346.367188 C 81.273438 345.554688 77.121094 349.769531 76.667969 351.300781 C 76.480469 353.640625 77.324219 355.773438 79.621094 356.4375 Z M 98.421875 434.390625 C 97.675781 432.550781 97.863281 423.363281 99.941406 420.941406 C 101.921875 421.488281 106.679688 428.949219 106.824219 436.082031 C 107.128906 437.109375 106.488281 446.824219 106.511719 455.050781 C 108.253906 461.351563 107.605469 466.203125 105.929688 468.160156 C 106.003906 460 101.953125 439.074219 98.421875 434.390625 Z M 107.792969 472.085938 C 110.203125 478.574219 107.304688 485.3125 105.125 491.15625 C 104.515625 484.585938 105.164063 478.015625 107.792969 472.085938 Z M 112.710938 482.902344 C 114.332031 482.726563 115.136719 484.078125 115.3125 485.339844 C 111.886719 488.027344 110.34375 491.804688 107.992188 495.214844 C 108.277344 490.445313 109.550781 486.582031 112.710938 482.902344 Z M 110.636719 455.085938 C 115.226563 454.824219 112.304688 461.125 110.488281 460.75 C 108.703125 459.773438 109.105469 455.617188 110.636719 455.085938 Z M 109.339844 425.511719 C 108.929688 422.875 104.097656 415.464844 103.472656 414.832031 C 104.652344 408.25 112.753906 410.949219 116.128906 424.589844 C 118.390625 433.710938 118.414063 442.867188 116.042969 452.941406 C 110.214844 445.902344 112.078125 433.898438 109.339844 425.511719 Z M 138.023438 416.917969 C 137.304688 416.464844 136.859375 415.566406 135.867188 415.652344 C 144.925781 441.324219 136.386719 451.652344 136.386719 451.652344 C 135.925781 447.851563 135.25 443.546875 136.886719 438.152344 C 137.277344 432.101563 136.113281 424.023438 134.511719 418.167969 C 132.550781 406.902344 121.753906 401.5 116.941406 394.804688 C 116.941406 394.804688 135.925781 401.050781 138.023438 416.917969 Z M 125.195313 374.128906 L 128.621094 373.058594 C 130.3125 378.105469 130.835938 385.363281 126.230469 388.980469 C 124.902344 390.027344 123.832031 378.625 125.195313 374.128906 Z M 134.828125 402.867188 C 140.308594 406.394531 145.335938 410.011719 145.3125 417.121094 C 142.359375 411.980469 138.59375 407.558594 134.828125 402.867188 Z M 129.675781 455.597656 C 129.949219 453.976563 131.710938 450.648438 132.703125 449.300781 C 133.589844 454.074219 132.777344 459.550781 130.777344 461.625 C 131.652344 458.648438 130.300781 456.851563 129.675781 455.597656 Z M 129.472656 447.132813 C 128.960938 437.410156 127.097656 428.855469 130.007813 418.875 L 130.023438 414.285156 C 131.992188 418.070313 132.15625 422.929688 132.589844 427.523438 C 131.851563 433.640625 133.449219 441.746094 129.472656 447.132813 Z M 118.625 404.121094 C 120.851563 403.75 126.925781 403.527344 125.320313 417.054688 L 125.230469 420.75 C 120.628906 419.273438 118.152344 406.449219 108.449219 405.128906 C 107.101563 405.394531 105.117188 405.65625 103.949219 405.382813 C 106.117188 402.328125 114.101563 403.75 118.625 404.121094 Z M 120.730469 420.734375 C 127.644531 425.976563 122.574219 436.132813 124.984375 442.347656 C 124.617188 445.585938 125.144531 449.097656 123.425781 452.0625 C 119.917969 451.421875 120.835938 445.394531 120.835938 445.394531 C 120.769531 437.925781 121.609375 427.9375 120.730469 420.734375 Z M 118.898438 461.140625 C 119.796875 461.140625 120.515625 461.863281 120.78125 462.675781 C 120.777344 464.476563 120.144531 465.554688 118.609375 466.539063 C 117.894531 465.90625 116.269531 466.980469 116.003906 465.449219 C 115.738281 463.738281 117.273438 461.945313 118.898438 461.140625 Z M 122.894531 479.0625 C 131.652344 477.324219 132.375 468.652344 132.023438 465.5 C 136.550781 457.144531 148.300781 453.925781 141.890625 418.460938 C 149.878906 429.625 147.851563 451.449219 145.914063 456.273438 C 143.128906 458.875 140.316406 461.746094 138.503906 465.519531 C 136.789063 466.683594 135.476563 480.25 123.339844 480.414063 C 123.242188 481.941406 122.699219 483.5625 121.617188 484.457031 C 120.445313 484.632813 118.648438 483.460938 117.753906 482.554688 C 118.386719 480.578125 122.894531 479.0625 122.894531 479.0625 Z M 135.402344 479.101563 C 139.007813 477.039063 141.988281 474.351563 144.339844 470.9375 C 143.054688 478.765625 142.214844 488.570313 148.132813 495.339844 C 150.285156 497.867188 153.515625 501.207031 152.246094 504.441406 C 149.742188 498.046875 142.644531 494.511719 137.796875 490.988281 C 136.273438 489.003906 134.210938 485.9375 130.699219 486.195313 L 127.011719 486.003906 C 129.628906 483.222656 133.054688 481.972656 135.402344 479.101563 Z M 149.28125 415.242188 C 155.242188 422.3125 153.289063 439.390625 152.894531 442.378906 C 152.886719 442.546875 152.867188 442.703125 152.832031 442.835938 C 152.832031 442.835938 152.859375 442.671875 152.894531 442.378906 C 153.148438 438.375 146.746094 424.738281 149.28125 415.242188 Z M 159.828125 409.425781 C 163.152344 411.597656 166.113281 414.394531 168.894531 417.015625 C 169.691406 421.15625 170.820313 433.9375 170.546875 436.277344 C 170.347656 441.949219 168.328125 453.25 163.816406 458.667969 C 162.703125 456.398438 172.152344 436.601563 160.714844 414.199219 Z M 163.746094 393.238281 C 165.816406 393.875 171.5625 397.402344 170.929688 398.839844 C 169.121094 401.355469 167.566406 409.628906 166.9375 408.996094 C 165.320313 408.542969 163.253906 407.457031 162.898438 405.746094 C 162.550781 401.605469 161.574219 396.832031 163.746094 393.238281 Z M 180.453125 375.378906 C 180.449219 376.367188 181.167969 377.179688 181.796875 377.992188 C 183.765625 380.339844 189.179688 376.574219 190.152344 381.257813 C 190.332031 381.890625 190.691406 382.429688 190.597656 383.148438 C 188.167969 383.683594 185.109375 383.132813 182.589844 382.675781 C 177.734375 380.589844 172.617188 377.15625 172.457031 371.035156 C 174.789063 372.753906 177.757813 374.109375 180.453125 375.378906 Z M 178.765625 367.8125 C 180.476563 367.820313 181.914063 368.453125 183.078125 369.71875 C 183.34375 371.96875 181.089844 372.5 179.382813 371.867188 C 178.664063 371.144531 177.40625 370.871094 177.230469 369.699219 C 176.964844 368.527344 177.953125 368.261719 178.765625 367.8125 Z M 48.019531 389.640625 C 32.203125 374.277344 33.777344 354.476563 36.082031 349.015625 C 46.378906 348.851563 61.003906 361 63.394531 365.027344 C 70.902344 377.875 67.078125 386.652344 72.65625 397.277344 C 69.949219 398.796875 67.871094 401.941406 64.632813 401.753906 C 61.144531 394.359375 53.804688 395.199219 48.019531 389.640625 Z M 66.128906 412.558594 C 66.9375 412.199219 67.753906 411.625 68.652344 411.484375 C 69.28125 411.578125 70.542969 411.3125 71.261719 411.761719 C 71.25 414.910156 67.460938 417.960938 64.753906 420.113281 C 65.121094 418.042969 65.503906 415.898438 66.128906 412.558594 Z M 78.070313 415.8125 C 83.277344 409.261719 85.867188 403.257813 82.988281 403.160156 C 80.824219 404.230469 70.011719 407.710938 66.953125 407.609375 C 69.847656 402.847656 75.519531 402.054688 80.207031 400.359375 C 85.300781 399.476563 92.628906 399.496094 94.859375 405.355469 C 92.972656 404.089844 89.914063 404.082031 87.933594 404.4375 C 86.425781 409.375 78.476563 419.246094 78.476563 419.246094 C 74.5 423.644531 63.476563 436.375 56.789063 434.128906 C 55.378906 432.664063 70.339844 425.238281 78.070313 415.8125 Z M 59.851563 463.117188 C 57.699219 461.3125 57.179688 458.648438 57.351563 456.179688 C 58.808594 450.964844 63.324219 446.65625 67.738281 444.601563 C 85.078125 435.023438 93.097656 422 93.097656 422 C 93.175781 425.351563 91.640625 428.023438 90.460938 430.8125 C 88.453125 435.925781 65.953125 450.101563 63.816406 461.421875 C 63.039063 465.535156 61.992188 469.335938 60.273438 472.839844 C 58.476563 471.304688 56.726563 466.300781 59.851563 463.117188 Z M 58.542969 478.683594 C 56.925781 478.230469 55.484375 478.765625 53.773438 479.480469 C 53.507813 477.949219 52.519531 476.324219 53.785156 475.160156 C 55.492188 475.972656 58.550781 475.984375 58.542969 478.683594 Z M 49.828125 445.175781 C 53.351563 441.550781 70.902344 433.65625 70.902344 433.65625 C 81.925781 425.574219 86.277344 415.949219 89.894531 410.46875 C 90.703125 408.925781 92.148438 409.578125 92.230469 411.195313 C 92.503906 418.148438 80.578125 430.75 74.703125 434.183594 C 71.128906 435.925781 60.554688 442.898438 58.015625 445.203125 C 56.933594 446.007813 51.777344 453.023438 49.363281 450.125 C 48.195313 448.503906 48.851563 446.949219 49.828125 445.175781 Z M 51.476563 465.253906 C 50.203125 465.398438 49.042969 466.054688 47.785156 464.609375 C 46.890625 462.898438 48.335938 461.28125 49.777344 460.746094 C 50.769531 460.480469 51.488281 461.292969 51.933594 462.011719 C 52.679688 462.925781 51.386719 465.070313 51.476563 465.253906 Z M 52.78125 508.011719 C 51.328125 499.601563 59.742188 498.578125 59.742188 498.578125 C 59.652344 493.75 53.09375 494.597656 53.09375 494.597656 C 54.003906 491.628906 52.671875 486.136719 56.8125 485.15625 C 60.484375 491.199219 62.714844 498.316406 61.070313 505.242188 C 58.554688 504.605469 54.320313 506.125 52.78125 508.011719 Z M 55.625 520.796875 C 54.097656 519.441406 53.476563 517.097656 54.113281 514.941406 C 55.648438 512.785156 58.078125 509.949219 61.863281 511.542969 L 63.1875 519.109375 C 61.003906 517.824219 56.703125 521.699219 55.625 520.796875 Z M 59.015625 529.894531 C 59.917969 529.269531 61.988281 529.273438 61.808594 529.453125 C 61.984375 529.722656 63.476563 534.476563 61.148438 538.273438 L 59.617188 538.71875 C 58.277344 535.742188 58.375 533.132813 59.015625 529.894531 Z M 64.1875 545.660156 C 63.476563 546.851563 61.902344 546.175781 60.316406 546.277344 C 65.054688 542.574219 65.769531 528.925781 65.777344 526.855469 C 65.953125 522.101563 65.503906 513.101563 65.378906 509.394531 C 65.308594 502.914063 64.152344 490.375 64.371094 485.992188 C 65.953125 460.226563 80.128906 455.273438 83.804688 447.765625 C 84.761719 445.8125 87.914063 439.894531 89.359375 438.1875 C 88.609375 447.277344 81.304688 452.835938 76.0625 459.746094 C 74.707031 461.632813 73.621094 463.609375 72.804688 465.769531 L 72.625 465.765625 C 67.179688 480.511719 65.90625 498.6875 67.296875 514.984375 C 67.296875 514.984375 67.527344 540.550781 64.1875 545.660156 Z M 81.074219 527.53125 C 82.636719 516.648438 84.921875 504.683594 86.757813 493.621094 C 88.902344 482.5 84.648438 477.683594 84.648438 477.683594 C 77.664063 495.121094 81.292969 514.664063 77.1875 532.921875 C 76.902344 537.421875 75.988281 542.007813 75.4375 546.144531 C 73.832031 541.101563 76.300781 529.074219 76.128906 525.359375 C 75.710938 515.546875 77.804688 507.09375 78.375 497.734375 C 78.777344 483.625 82.328125 470.65625 85.40625 465.535156 C 88.433594 475.804688 90.199219 486.972656 88.722656 498.398438 C 87.894531 504.695313 87.066406 510.8125 85.246094 517.015625 C 84.152344 521.964844 80.121094 544.089844 78.671875 547.414063 C 78.152344 540.484375 80.242188 533.921875 81.074219 527.53125 Z M 83.347656 548.328125 C 83.300781 535.011719 89.367188 522.878906 89.949219 509.199219 C 91.058594 499.84375 94.058594 489.414063 92.019531 479.867188 C 90.695313 472.03125 89.488281 454.390625 89.488281 454.390625 C 83.703125 462.199219 76.746094 470.820313 74.917969 480.265625 C 72.476563 493.75 75.144531 523.914063 70.675781 542.890625 C 70.621094 530.921875 71.429688 503.121094 71.433594 500.773438 C 71.578125 457.300781 86.652344 460.898438 90.148438 445.300781 C 90.554688 459.433594 96.097656 471.328125 94.613281 485.726563 C 93.972656 489.054688 93.960938 492.742188 93.679688 496.253906 C 94.488281 496.703125 92.554688 510.917969 92.554688 510.917969 C 92.535156 517.488281 89.453125 524.5 87.992188 531.246094 C 86.082031 537.089844 86.695313 543.03125 83.347656 548.328125 Z M 90.003906 578.769531 C 87.945313 575.792969 88.488281 574.445313 88.679688 570.757813 C 89.492188 569.859375 90.035156 568.78125 91.296875 568.605469 C 93.097656 568.789063 92.28125 571.039063 92.816406 572.300781 C 92.898438 574.910156 92.078125 577.515625 90.003906 578.769531 Z M 98.84375 572.136719 C 98.132813 569.527344 96.976563 565.5625 98.691406 563.496094 C 99.945313 566.023438 99.933594 569.441406 98.84375 572.136719 Z M 108.621094 553.808594 C 105.460938 557.21875 100.421875 556.664063 96.277344 559.167969 C 94.664063 556.464844 95.574219 552.6875 97.203125 550.261719 C 100.152344 545.726563 112.375 546.800781 112.375 546.800781 C 111.648438 548.867188 110.503906 552.023438 108.621094 553.808594 Z M 122.960938 544.3125 C 122.429688 546.625 121.148438 549.167969 118.355469 549.699219 C 121.304688 535.601563 100.1875 544.960938 96.59375 543.332031 C 95.605469 542.878906 93.359375 542.0625 94.171875 540.535156 C 96.160156 537.660156 99.773438 534.519531 103.28125 534.351563 C 106.160156 534.628906 125.351563 534.925781 122.960938 544.3125 Z M 128.722656 543.878906 C 129.636719 539.113281 129.851563 525.023438 98.988281 526.058594 C 110.054688 499.148438 133.675781 528.398438 133.347656 533.09375 C 133.785156 536.515625 130.34375 543.34375 128.722656 543.878906 Z M 131.421875 515.808594 C 123.335938 510.652344 113.714844 508.285156 104.253906 511.855469 C 104.539063 505.644531 109.511719 499.269531 115.546875 497.21875 C 118.425781 496.957031 120.773438 494.625 122.671875 492.019531 C 124.46875 493.195313 126.632813 492.664063 128.519531 492.488281 C 137.960938 495.667969 148.292969 501.460938 150.242188 512.175781 C 148.976563 512.875 145.601563 500.949219 131.289063 499.878906 C 124.511719 499.371094 119.578125 502.8125 113.726563 503.425781 C 114.328125 506.351563 120.851563 508.824219 130.820313 505.457031 C 136.304688 507.183594 140.960938 515.207031 140.960938 515.207031 C 143.378906 519.804688 149.652344 537.175781 137.636719 542.828125 C 139.359375 538.0625 147.851563 529.976563 131.421875 515.808594 Z M 139.761719 554.085938 C 138.601563 551.289063 139.777344 548.59375 141.316406 546.078125 C 155.726563 534.25 157.863281 520.839844 157.796875 513.28125 C 158.722656 505.542969 160.144531 481.15625 160.691406 479.179688 C 162.703125 480.476563 165.851563 481.601563 168.519531 480.101563 C 168.238281 483.160156 168.492188 489.550781 168.492188 489.550781 C 168.550781 509.050781 152.949219 538.644531 149.511719 543.765625 C 146.980469 547.714844 144.894531 552.929688 139.761719 554.085938 Z M 148.070313 573.550781 C 147.621094 573.636719 146.816406 571.386719 146.636719 571.386719 C 143.777344 565.347656 146.8125 559.484375 149.929688 555.015625 C 163.152344 536.050781 166.410156 521.765625 166.410156 521.765625 C 169.902344 515.125 178.003906 495.101563 177.53125 476.261719 L 180.148438 474.109375 C 180.585938 478.878906 180.308594 483.90625 179.472656 489.226563 C 177.550781 501.398438 175.078125 523 168.53125 534.101563 C 164.953125 541.675781 149.425781 561.699219 149.171875 567.703125 C 149.523438 569.953125 149.425781 573.175781 148.070313 573.550781 Z M 164.925781 595.023438 C 163.035156 594.925781 158.339844 587.394531 158.261719 584.511719 C 156.851563 572.722656 160.226563 561.925781 165.679688 554.34375 C 182.953125 529.75 189.027344 488.351563 194.414063 487.921875 C 201.628906 494.425781 187 528.671875 186.910156 528.488281 C 182.726563 539.199219 172.636719 548.113281 169.066406 566.054688 C 166.527344 578.800781 164.953125 585.550781 164.925781 595.023438 Z M 245.796875 644.785156 C 238.300781 651.023438 208.601563 658.671875 202.03125 641.222656 C 196.453125 627.625 186.824219 613.382813 186.824219 613.382813 C 189.253906 612.550781 193.976563 612.550781 199.289063 614.820313 C 201.402344 613.222656 204.101563 612.097656 206.902344 612.164063 C 208.152344 636.847656 234.925781 621.773438 231.828125 613.136719 C 228.972656 605.75 223.683594 598.804688 222.988281 590.609375 C 222.730469 587.101563 222.023438 582.867188 220.414063 579.351563 C 220.414063 579.351563 207.027344 597.472656 206.550781 610.058594 C 203.878906 609.175781 203.101563 608.5625 199.683594 608.460938 C 198.925781 606.023438 201.628906 599.273438 202.269531 597.476563 C 202.976563 594.773438 207.476563 579.472656 211.425781 575.726563 C 219.628906 566.875 215.96875 561.699219 215.96875 561.699219 C 215.703125 560.167969 214.386719 549.542969 213.667969 548.460938 C 212.136719 549.355469 211.300781 563.5 205.402344 573.316406 C 204.347656 575.078125 196.675781 586 195.199219 592.632813 C 194.425781 596.574219 194.425781 606.25 196.808594 608.519531 C 193.527344 610.75 187.003906 608.722656 186.179688 610.792969 C 182.726563 605.125 185.203125 593.875 186.550781 587.078125 C 188.464844 578.984375 209.164063 549.886719 209.347656 549.078125 C 212.234375 546.925781 209.378906 539.359375 208.925781 539.355469 C 207.675781 541.933594 202.539063 549.761719 200.765625 551.414063 C 200.738281 551.453125 200.714844 551.476563 200.699219 551.480469 C 200.71875 551.464844 200.746094 551.433594 200.765625 551.414063 C 201.5625 550.402344 207.253906 537.832031 207.242188 530.980469 C 205.820313 525.667969 206.46875 519.011719 205.136719 513.425781 C 202.976563 511.75 202.003906 537.804688 196.125 546.878906 C 192.773438 553.078125 190.777344 558.5625 187.699219 564.851563 C 186.15625 568.265625 179.351563 587.125 181.902344 605.605469 C 162.027344 592.972656 176.40625 563.308594 176.40625 563.308594 C 189.027344 540.773438 199.378906 525.925781 203.386719 497.671875 C 207.925781 476.199219 216.476563 469.226563 237.851563 469.964844 C 244.378906 470.800781 257.425781 478.449219 259.996094 497.664063 C 258.730469 499.28125 255.433594 517.902344 255.433594 517.902344 L 255.472656 563.53125 C 254.621094 577.386719 259.980469 589.734375 260.75 603.507813 C 261.609375 616.648438 256.753906 635.273438 245.796875 644.785156 Z M 217.328125 617.414063 C 218.601563 613.007813 220.863281 609.054688 222.136719 604.648438 C 223.742188 609.152344 223.820313 613.023438 221.824219 617.605469 Z M 267.640625 475.007813 C 265.527344 479.125 262.359375 490.5625 261.722656 492 C 264.628906 471.023438 220.078125 444.476563 198.921875 486.226563 C 195.878906 480.367188 195.808594 473.796875 195.738281 466.957031 C 223.226563 414.324219 268.675781 453.476563 267.640625 475.007813 Z M 271.972656 466.382813 C 270.101563 460.4375 256.078125 433.226563 230.585938 432.773438 C 216.902344 433.902344 197.578125 443.574219 191.238281 466.941406 C 188.292969 459.371094 193.992188 450.660156 188.703125 443.625 C 186.910156 441.097656 182.953125 434.351563 174.382813 439.890625 C 173.277344 414.550781 184.355469 408.273438 189.789063 401.019531 C 197.351563 390.925781 197.351563 382.375 191.273438 369.113281 C 193.53125 365.96875 192.828125 360.835938 191.128906 357.683594 C 187.355469 354.96875 185.390625 349.652344 180.988281 347.929688 C 177.03125 347.109375 174.160156 344.039063 171.46875 340.972656 C 168.941406 343.121094 167.222656 346.269531 163.890625 347.429688 C 164.253906 345.539063 165.476563 342.480469 167.191406 341.40625 C 176.203125 325.226563 174.996094 318.660156 174.996094 318.660156 C 174.851563 314.875 171.925781 310.824219 167.519531 308.828125 C 164.503906 304.75 161.800781 295.976563 158.035156 290.171875 C 158.777344 283.0625 161.050781 275.238281 167.007813 270.128906 C 167.007813 270.128906 191.503906 250.527344 204.425781 248.28125 C 220.527344 245.351563 249.550781 247.828125 253.652344 248.613281 C 261.964844 250.210938 267.402344 256.035156 274.136719 260.105469 C 283.488281 263.195313 292.566406 266.464844 300.015625 273.328125 C 300.015625 273.328125 310.425781 284.160156 310.761719 291.71875 C 308.027344 303.050781 295.136719 309.402344 293.210938 320.644531 C 290.726563 335.800781 304.34375 344.84375 304.34375 344.84375 C 311.433594 351.527344 302.046875 374.492188 299.246094 376.824219 C 298.902344 372.324219 300.445313 368.097656 302.976563 364.507813 C 303.976563 361 304.257813 357.039063 301.746094 354.152344 C 298.160156 350.632813 293.753906 348.90625 290.527344 345.207031 C 286.191406 350.144531 278.625 352.101563 275.996094 358.574219 C 273.101563 363.15625 270.5625 369.265625 273.785156 374.585938 C 274.945313 378.011719 271.246094 381.238281 274.382813 384.757813 C 276.546875 383.414063 276.921875 379.277344 280.25 379.105469 C 284.570313 379.03125 288.488281 379.222656 292.09375 378.152344 C 289.601563 381.925781 285.777344 383.5 280.066406 381.085938 C 277.71875 383.507813 283.191406 388.523438 276.980469 389.046875 C 274.976563 393.625 280.378906 409.152344 282.9375 412.863281 C 284.652344 415.675781 292.300781 434.351563 288.273438 433.402344 C 281.4375 431.789063 275.878906 443.351563 276.804688 446.507813 C 278.3125 452.992188 277.210938 461.085938 271.972656 466.382813 Z M 306.109375 341.207031 C 303.679688 340.210938 301.53125 337.410156 299.644531 335.964844 C 298.039063 331.011719 294.914063 323.53125 299.875 319.136719 C 304.191406 320.410156 305.0625 329.503906 305.0625 329.503906 C 304.160156 330.941406 305.757813 338.59375 306.109375 341.207031 Z M 277.671875 369.828125 C 273.175781 365.050781 289.378906 348.851563 295.851563 355.035156 C 301.1875 360.664063 297.757813 364.039063 297.757813 364.039063 C 296.238281 363.25 296.464844 358.1875 292.652344 356.464844 C 287.507813 360.589844 280.925781 364.4375 277.671875 369.828125 Z M 291.074219 371.578125 C 289.898438 372.925781 287.734375 374.269531 285.851563 373.09375 C 283.964844 372.1875 285.855469 370.753906 286.578125 370.035156 C 287.75 369.5 288.746094 368.242188 290.183594 368.335938 C 291.351563 368.882813 291.527344 370.503906 291.074219 371.578125 Z M 281.46875 480.449219 C 277.421875 479.808594 273.949219 467.285156 277.644531 465.949219 C 281.429688 463.710938 285.921875 466.425781 289.699219 467.515625 C 293.210938 467.527344 301.078125 469.226563 306.980469 467.300781 C 308.234375 468.382813 308.050781 470.363281 308.226563 471.621094 C 304.972656 475.574219 292.527344 481.824219 281.46875 480.449219 Z M 298.800781 463.222656 C 296.128906 466.074219 267.328125 456.175781 288.078125 438.351563 C 288.078125 438.351563 297.925781 456.175781 310.074219 456.328125 C 309.890625 457.769531 301.324219 462.511719 298.800781 463.222656 Z M 393.0625 366.3125 C 390.523438 372.242188 384.777344 377.875 373.289063 386.144531 C 369.007813 389.226563 368.3125 394.496094 364.609375 399.257813 C 362.726563 401.726563 360.925781 415.226563 349.414063 424.320313 C 344.726563 426.699219 342.25 421.074219 340.371094 423.347656 C 343.601563 427.824219 341.574219 456.625 313.929688 461.109375 L 314.976563 458.371094 C 317.277344 454.148438 305.148438 447.855469 302.542969 446.585938 C 296.707031 441.886719 294.753906 433.421875 296.304688 426.226563 C 296.855469 423.347656 303.101563 406.449219 302.453125 387.816406 C 306.179688 376.578125 311.160156 365.882813 311.652344 353.28125 C 309.070313 343.554688 311.976563 335.824219 312.636719 326.105469 C 311.425781 309.902344 316.335938 294.097656 320.695313 279.871094 C 322.449219 274.152344 323.125 266.277344 322.109375 259.984375 C 320.875 268.527344 309.851563 274.378906 308.019531 276.859375 C 304.226563 272.128906 298.765625 270.171875 297.433594 265.308594 C 296.128906 261.101563 278.800781 256.601563 273.515625 243.230469 C 276.328125 239.503906 302.480469 233.960938 305.542969 233.429688 C 314.996094 232.738281 326.050781 231.851563 338.390625 234.386719 C 338.390625 234.386719 344.5 232.976563 361.800781 258.128906 C 367.214844 265.996094 380.949219 295.976563 381.546875 305.980469 C 381.621094 311.558594 386.574219 333.777344 390.355469 338.855469 C 399.851563 354.027344 393.0625 366.3125 393.0625 366.3125 "/>
<path style=" stroke:none;fill-rule:nonzero;fill:rgb(0%,0%,0%);fill-opacity:1;" d="M 312.71875 66.503906 C 312.71875 66.503906 330.324219 70.976563 333.25 61.300781 C 335.949219 49.601563 326.027344 39.945313 326.027344 39.945313 C 325.824219 45.101563 322 53.429688 317.332031 57.378906 C 314.574219 59.503906 312.289063 59.164063 311.023438 60.152344 C 313.003906 60.425781 314.53125 60.609375 316.242188 60.886719 C 314.800781 62.652344 313.675781 64.679688 312.71875 66.503906 "/>
<path style=" stroke:none;fill-rule:nonzero;fill:rgb(0%,0%,0%);fill-opacity:1;" d="M 341.449219 146.242188 C 338.199219 149.472656 344.132813 151.421875 343.761719 154.660156 C 341.414063 156.8125 338.546875 153.835938 335.84375 154.457031 C 334.132813 154.722656 332.78125 155.617188 331.875 157.054688 C 331.050781 162.09375 336.535156 163.820313 339.042969 167.425781 C 340.675781 171.328125 341.125 190.003906 350.777344 187.128906 C 360.476563 183.027344 360.925781 175.828125 362.070313 171.546875 C 365.53125 158.507813 364.054688 141.675781 362.648438 130.78125 C 363.917969 127.273438 357.726563 121.226563 357.726563 121.226563 C 355.742188 122.570313 356.183594 125.269531 355.996094 127.070313 C 357.242188 132.832031 357.640625 148.855469 357.816406 150.386719 C 357.816406 150.386719 358.902344 158.277344 357.601563 162.265625 C 355.785156 166.398438 355.59375 171.078125 352.789063 174.761719 C 352.070313 174.9375 351.621094 174.484375 351.082031 174.394531 C 348.664063 170.515625 349.671875 165.660156 348.511719 161.785156 C 347.523438 160.972656 348.519531 159.085938 348.523438 158.1875 C 353.042969 151.898438 354.238281 143.625 354.261719 135.523438 C 353.03125 126.25 356.035156 115.007813 348.226563 108.054688 C 346.945313 115.160156 347.910156 122.996094 348.15625 130.285156 C 348.15625 130.285156 349.226563 136.453125 341.449219 146.242188 "/>
<path style=" stroke:none;fill-rule:nonzero;fill:rgb(0%,0%,0%);fill-opacity:1;" d="M 101.503906 147.253906 C 101.246094 144.015625 95.398438 143.546875 96.128906 139.859375 C 96.136719 136.617188 97.320313 133.113281 100.652344 131.683594 C 100.207031 130.691406 97.425781 127.621094 95.714844 127.976563 C 92.550781 132.019531 92.535156 138.046875 93.957031 143.09375 C 97.542969 147.691406 95.003906 154.433594 96.066406 159.566406 C 96.066406 159.566406 98.578125 163.675781 100.742188 161.472656 C 99.046875 156.429688 103.199219 152.300781 101.503906 147.253906 "/>
<path style=" stroke:none;fill-rule:nonzero;fill:rgb(0%,0%,0%);fill-opacity:1;" d="M 84.597656 143.332031 C 83.351563 138.289063 81.390625 132.703125 76.71875 130.078125 C 75.453125 132.324219 74.542969 135.292969 74.894531 138.082031 C 78.585938 137.914063 80.351563 141.402344 80.996094 144.132813 C 81.886719 147.015625 77.203125 148.171875 78.542969 151.503906 C 78.707031 156.726563 81.753906 160.695313 83.71875 165.289063 C 85.070313 164.574219 85.34375 163.496094 86.070313 162.328125 C 85.640625 155.664063 83.277344 149.050781 84.597656 143.332031 "/>
<path style=" stroke:none;fill-rule:nonzero;fill:rgb(0%,0%,0%);fill-opacity:1;" d="M 330.023438 144.449219 C 326.246094 144.527344 323.285156 140.378906 319.679688 142.527344 C 321.925781 144.335938 324.164063 147.3125 326.316406 149.839844 C 328.113281 151.105469 327.46875 156.320313 331.074219 153.8125 C 331.625 151.203125 334.328125 150.042969 335.144531 147.523438 C 333.890625 145.539063 331.460938 146.074219 330.023438 144.449219 "/>
<path style=" stroke:none;fill-rule:nonzero;fill:rgb(0%,0%,0%);fill-opacity:1;" d="M 77.960938 193.621094 C 82.828125 194.726563 88.328125 184.636719 85.371094 184.734375 C 75.851563 185.050781 75.402344 171.101563 72.445313 173.535156 C 71.175781 176.410156 69.777344 191.800781 77.960938 193.621094 "/>
<path style=" stroke:none;fill-rule:nonzero;fill:rgb(0%,0%,0%);fill-opacity:1;" d="M 82.066406 205.066406 C 81.445313 203.082031 80.800781 198.550781 79.027344 198.757813 C 77.851563 199.921875 78.390625 201.09375 77.578125 201.992188 C 76.300781 207.476563 76.648438 211.710938 79.691406 216.308594 C 79.957031 217.839844 79.003906 223.078125 82.011719 223.246094 C 88.453125 223.300781 91.632813 210.851563 91.632813 210.851563 C 89.578125 208.226563 85.300781 211.601563 82.066406 205.066406 "/>
<path style=" stroke:none;fill-rule:nonzero;fill:rgb(0%,0%,0%);fill-opacity:1;" d="M 145.519531 350.429688 C 142.902344 352.226563 133.453125 376.976563 138.949219 394.289063 C 142.226563 393.175781 143.253906 384.625 143.710938 382.375 C 144.609375 383.277344 145.414063 384.449219 145.859375 385.441406 C 153.027344 382.601563 151.453125 370.902344 151.757813 369.890625 C 153.378906 370.703125 153.703125 372.925781 153.863281 375.074219 C 158.203125 373.601563 157.300781 356.277344 145.519531 350.429688 "/>
<path style=" stroke:none;fill-rule:nonzero;fill:rgb(0%,0%,0%);fill-opacity:1;" d="M 51.285156 380.113281 C 51.285156 380.113281 55.242188 382.054688 56.324219 381.699219 C 56.324219 381.699219 52.382813 375.703125 52.207031 373.453125 C 53.734375 374.449219 57.628906 375.851563 58.953125 374.773438 C 57.402344 368.425781 45.027344 355.824219 39.304688 353.523438 C 37.152344 356.5 39.179688 373.824219 42.925781 379.5 C 42.925781 379.5 53.578125 393.402344 60.113281 392.691406 C 60.113281 392.691406 54.027344 387.777344 51.285156 380.113281 "/>
<path style=" stroke:none;fill-rule:nonzero;fill:rgb(0%,0%,0%);fill-opacity:1;" d="M 269.878906 386.453125 C 267.890625 388.789063 267.25 392.746094 267.867188 396.347656 C 268.675781 401.949219 277.21875 401.234375 277.21875 401.234375 C 272.503906 395.425781 272.125 387.363281 269.878906 386.453125 "/>
<path style=" stroke:none;fill-rule:nonzero;fill:rgb(0%,0%,0%);fill-opacity:1;" d="M 191.617188 403.265625 C 202.527344 401.5 199.828125 391.152344 198.371094 387.132813 C 196.453125 386.199219 196.675781 397.902344 191.617188 403.265625 "/>
<path style=" stroke:none;fill-rule:nonzero;fill:rgb(0%,0%,0%);fill-opacity:1;" d="M 210.621094 626.308594 C 211.71875 629.496094 207.253906 635.113281 203.878906 635.5 C 204.492188 638.785156 208.9375 640.5625 213.214844 634.035156 C 215.019531 630.132813 216.253906 628.074219 210.621094 626.308594 "/>
<path style=" stroke:none;fill-rule:nonzero;fill:rgb(0%,0%,0%);fill-opacity:1;" d="M 222.054688 629.960938 C 225.324219 630.796875 226.324219 638.964844 224.789063 641.996094 C 228.175781 641.796875 230.203125 642.472656 231.75 634.136719 C 231.550781 630.550781 224.964844 624.460938 222.054688 629.960938 "/>
<path style=" stroke:none;fill-rule:nonzero;fill:rgb(0%,0%,0%);fill-opacity:1;" d="M 243.183594 619.5625 C 239.011719 618.515625 233.800781 617.835938 233.769531 622.785156 C 236.726563 622.898438 245.726563 627.175781 245.628906 633.554688 C 249.777344 632.460938 250.386719 622.550781 243.183594 619.5625 "/>
<path style=" stroke:none;fill-rule:nonzero;fill:rgb(0%,0%,0%);fill-opacity:1;" d="M 243.96875 598.863281 C 239.765625 598.9375 237.289063 603.886719 237.257813 608.835938 C 236.761719 609.121094 246.628906 603.324219 255.867188 607.792969 C 256.414063 603.773438 248.878906 598.710938 243.96875 598.863281 "/>
<path style=" stroke:none;fill-rule:nonzero;fill:rgb(0%,0%,0%);fill-opacity:1;" d="M 249.980469 584.734375 C 249.4375 581.050781 243.921875 574.488281 236.734375 577.523438 C 233.058594 579.753906 229.753906 585.773438 232.53125 587.6875 C 233.398438 584.425781 243.476563 582.0625 249.980469 584.734375 "/>
<path style=" stroke:none;fill-rule:nonzero;fill:rgb(0%,0%,0%);fill-opacity:1;" d="M 247.730469 562.910156 C 247.1875 559.222656 241.671875 552.664063 234.484375 555.695313 C 230.808594 557.929688 228.628906 560.800781 230.28125 565.863281 C 234.703125 559 241.5625 562.261719 247.730469 562.910156 "/>
<path style=" stroke:none;fill-rule:nonzero;fill:rgb(0%,0%,0%);fill-opacity:1;" d="M 248.628906 541.085938 C 248.089844 537.398438 238.96875 529.9375 231.78125 532.972656 C 228.109375 535.203125 225.253906 537.398438 224.65625 541.789063 C 230.425781 538.75 242.464844 540.4375 248.628906 541.085938 "/>
<path style=" stroke:none;fill-rule:nonzero;fill:rgb(0%,0%,0%);fill-opacity:1;" d="M 249.753906 519.484375 C 249.214844 515.800781 237.621094 508.789063 230.433594 511.820313 C 225.476563 513.550781 217.828125 519.851563 220.605469 521.761719 C 227.277344 518.050781 243.253906 518.5 249.753906 519.484375 "/>
<path style=" stroke:none;fill-rule:nonzero;fill:rgb(0%,0%,0%);fill-opacity:1;" d="M 253.128906 501.261719 C 254.953125 497.574219 243.703125 489.023438 234.03125 489.996094 C 228.628906 490.824219 216.703125 493.75 214.757813 504.886719 C 217.152344 502.300781 234.703125 494.199219 253.128906 501.261719 "/>
<path style=" stroke:none;fill-rule:nonzero;fill:rgb(0%,0%,0%);fill-opacity:1;" d="M 230.882813 404.046875 C 225.476563 404.875 211.753906 405.550781 209.808594 416.6875 C 212.203125 414.101563 232.675781 409.824219 252.230469 414.410156 C 254.050781 410.726563 240.550781 403.074219 230.882813 404.046875 "/>
<path style=" stroke:none;fill-rule:nonzero;fill:rgb(0%,0%,0%);fill-opacity:1;" d="M 228.632813 372.546875 C 223.226563 373.375 210.402344 374.5 208.457031 385.640625 C 210.851563 383.050781 239.203125 379 257.628906 386.0625 C 259.453125 382.375 250.675781 371.574219 228.632813 372.546875 "/>
</g>
</svg>
