<?xml version="1.0" encoding="UTF-8"?>
<svg xmlns="http://www.w3.org/2000/svg" xmlns:xlink="http://www.w3.org/1999/xlink" width="534pt" height="388pt" viewBox="0 0 534 388" version="1.1">
<g id="surface1">
<path style=" stroke:none;fill-rule:nonzero;fill:rgb(0%,0%,0%);fill-opacity:1;" d="M 358.230469 268.128906 C 410.566406 299.664063 469.53125 339.453125 533.980469 312.34375 C 530.414063 300.660156 524.609375 289.964844 516.570313 280.246094 C 513.402344 262.347656 490.769531 255.085938 485.824219 238.308594 C 478.726563 225.078125 464.246094 217.242188 454.210938 206.683594 C 459.066406 202.589844 464.21875 198.332031 469.074219 194.238281 C 471.316406 184.328125 479.671875 176.335938 486.222656 168.554688 C 485.867188 153.4375 501.605469 144.441406 498.949219 128.339844 C 507.148438 115.660156 521.753906 104.433594 518.332031 88.058594 C 469.886719 74.769531 386.273438 129.222656 339.601563 149.539063 C 336.136719 149.957031 332.398438 151.292969 329.359375 150.9375 C 327.199219 149.648438 324.40625 147.625 323.71875 145.078125 C 333.964844 143.828125 333.578125 132.34375 342.214844 128.121094 C 344.152344 118.222656 347.007813 108.597656 353.230469 100.070313 C 351.472656 88.175781 366.714844 82.523438 366.945313 71.320313 C 364.507813 61.722656 371.726563 55.882813 375.417969 48.648438 C 375.050781 37.617188 379.804688 30.5 379.894531 19.605469 C 374.113281 14.050781 381.246094 5.644531 377.144531 0.636719 C 340.429688 15.628906 303.613281 32.132813 264.554688 40.394531 C 252.6875 38.371094 239.574219 30.789063 228.707031 40.53125 C 220.71875 36.863281 211.484375 36.71875 203.113281 39.722656 C 197.917969 38.230469 192.78125 38.402344 187.851563 40.230469 C 175.074219 33.695313 158.695313 36.964844 145.09375 32.882813 C 122.472656 30.457031 106.058594 41.746094 91.4375 57.058594 C 62.492188 64.53125 45.375 95.660156 40.21875 122.457031 C -7.90625 151.378906 25.613281 183.609375 15.667969 202.851563 C 10.96875 202.554688 6.550781 201.640625 1.574219 202.109375 C 2.308594 206.019531 2.445313 210.101563 4.070313 213.523438 C 5.546875 221.492188 2.738281 227.941406 1 234.808594 C 5.386719 243.890625 3.292969 253.640625 1.945313 263.214844 C 7.488281 270.59375 11.5625 279.386719 12.621094 288.425781 C 16.394531 292.6875 20.441406 296.183594 22.292969 301.71875 C 50.320313 311.980469 58.917969 343.007813 82.523438 361.285156 C 105.394531 384.878906 136.898438 390.484375 167.800781 387.183594 C 198.523438 387.519531 222.089844 363.890625 253.40625 372.984375 C 305.359375 374.882813 356.984375 366.957031 397.6875 339.882813 C 386.738281 333.742188 376.5 326.066406 365.015625 321.910156 C 362.53125 315.488281 358.5625 309.871094 351.414063 308.746094 C 349.855469 302.902344 345.792969 298.953125 340.128906 297.023438 C 342.464844 285.296875 326.78125 286.878906 326.449219 276.902344 C 325.105469 272.863281 318.675781 270.65625 319 266.714844 C 331.261719 262.371094 346.949219 261.09375 358.230469 268.128906 Z M 486.425781 256.289063 C 488.746094 257.878906 491.230469 259.761719 493.707031 261.492188 C 504.183594 276.273438 517.640625 289.589844 520.21875 307.960938 C 504.871094 310.4375 489.199219 316.863281 473.03125 312.863281 C 485.078125 311.25 498.976563 310.636719 509.175781 303.488281 C 494.121094 296.578125 479.625 288.285156 463.871094 283.214844 C 475.0625 282.992188 484.566406 282.222656 494.34375 280.535156 C 478.132813 270.785156 462.214844 260.726563 446.425781 249.90625 C 454.527344 247.972656 466.441406 246.820313 474.410156 240.804688 C 455.703125 233.261719 434.5625 229.878906 414.976563 223.273438 C 422.601563 220.597656 433.414063 218.117188 443.691406 217.925781 C 460.007813 226.308594 481.523438 236.332031 486.425781 256.289063 Z M 510.402344 95.28125 C 509.554688 106.050781 498.273438 112.628906 493.898438 122.003906 C 493.007813 127.027344 492.125 132.351563 491.082031 137.378906 C 478.972656 146.253906 483.425781 161.839844 472.070313 170.6875 C 462.054688 178.738281 460.117188 193.324219 448.046875 198.722656 C 439.09375 207.035156 424.578125 202.679688 413.8125 201.980469 C 428.933594 197.238281 444.351563 192.339844 459.621094 187.441406 C 454.808594 183.820313 448.933594 179.933594 443.390625 177.089844 C 453.609375 170.546875 466.363281 167.398438 473.886719 157.011719 C 465.75 153.503906 457.078125 151.976563 449.097656 148.609375 C 464.253906 140.390625 478.089844 128.886719 492.109375 118.28125 C 490.140625 113.65625 485.601563 118.195313 481.777344 116.960938 C 462.480469 118.96875 445.792969 126.632813 427.136719 129.675781 C 449.503906 115.46875 495.085938 87.875 510.402344 95.28125 Z M 352.5625 161.664063 C 386.128906 133.917969 424.109375 116.011719 464.363281 102.867188 C 430.792969 116.847656 366.3125 161.203125 366.628906 161.648438 C 403.09375 152.71875 434.972656 133.347656 472.90625 127.695313 C 439.027344 136.996094 378.351563 168.367188 378.992188 169.40625 C 403.167969 164.0625 428.011719 160.507813 454.957031 160.972656 C 426.238281 167.867188 370.886719 184.101563 369.671875 184.390625 C 393.0625 182.855469 413.515625 183.835938 435.105469 187.199219 C 412.054688 190.085938 389.164063 193.269531 367.429688 199.289063 C 367.328125 200.808594 367.828125 202.152344 368.023438 203.507813 C 385.777344 205.03125 403.679688 206.554688 420.601563 210.527344 C 404.453125 211.671875 387.242188 212.699219 370.640625 213.859375 C 368.855469 214.824219 369.546875 217.375 370.195313 218.714844 C 398.238281 229.429688 427.636719 235.40625 458.039063 239.839844 C 429.46875 240.488281 401.042969 231.90625 373.171875 226.328125 C 371.394531 227.449219 372.09375 230.300781 372.902344 231.785156 C 401.824219 246.253906 431.300781 259.1875 460.789063 272.425781 C 427.96875 268.074219 399.453125 252.230469 370.816406 237.300781 C 369.527344 239.460938 366.289063 242.140625 368.933594 244.324219 C 384.207031 271.328125 468.964844 299.835938 473.707031 301.34375 C 430.109375 300.527344 391.605469 280.027344 355.132813 256.886719 C 368.464844 230.269531 362.578125 194.460938 345.746094 170.515625 C 341.996094 167.007813 339.261719 162.105469 334.503906 159.996094 C 340.460938 157.226563 347.191406 159.421875 352.5625 161.664063 Z M 156.960938 43.984375 C 154.296875 45.734375 151.320313 47.195313 148.984375 49.695313 C 152.972656 51.378906 158.152344 52.414063 163.144531 52.398438 C 168.800781 49.640625 174.960938 48.375 180.945313 46.359375 C 180.722656 48.789063 162.136719 53.945313 176.402344 55.285156 C 185.246094 57.410156 192.886719 50.652344 201.777344 49.597656 C 197.636719 52.460938 192.507813 52.933594 188.863281 56.988281 C 202.519531 67.273438 213.949219 51.613281 226.746094 49.824219 C 221.433594 53.785156 216.117188 57.742188 210.804688 61.703125 C 224.0625 73.664063 233.546875 54.136719 245.894531 52.363281 C 248.433594 51.371094 250.976563 50.53125 253.507813 49.386719 C 246.589844 55.0625 239.667969 60.742188 232.746094 66.417969 C 242.453125 76.230469 250.4375 61.59375 259.277344 59.027344 C 279.667969 48.96875 299.910156 39.066406 321.441406 31.386719 C 299.851563 46.328125 275.824219 56.207031 254.234375 71.148438 C 259.449219 73.242188 265.5625 75.15625 271.230469 77.238281 C 301.800781 59.425781 332.4375 39.039063 362.480469 19.128906 C 339.433594 44.707031 310.902344 60.179688 286.257813 83.242188 C 288.347656 86.953125 293.65625 87.382813 296.804688 91.058594 C 297.460938 92.550781 345.027344 49.210938 368.910156 30.410156 C 349.289063 54.511719 326.9375 78.253906 304.703125 101.082031 C 306.566406 102.53125 305.890625 104.976563 307.605469 106.433594 C 321.9375 96.273438 337.015625 85.632813 350.148438 75.664063 C 339.730469 89.929688 326.105469 103.242188 312.863281 114.425781 C 308.433594 117.75 312.382813 122.761719 313.261719 126.363281 C 322.074219 123.042969 329.742188 117.039063 338.386719 113.121094 C 331.886719 122.414063 322.117188 128.789063 313.574219 135.734375 C 313.628906 137.394531 313.695313 139.359375 313.753906 141.171875 C 302.769531 71.960938 245.605469 79.808594 141.882813 49.933594 C 146.367188 48.421875 151.074219 44.328125 156.960938 43.984375 Z M 69.632813 156.273438 C 69.875 145.371094 60.386719 135.503906 75.195313 123.410156 C 77.910156 123.167969 80.488281 123.382813 82.789063 124.367188 C 60.386719 128.699219 81.304688 161.457031 68.101563 173.871094 C 68.738281 179.296875 64.203125 183.984375 59.296875 186.570313 C 54.011719 191.285156 63.847656 164.179688 69.632813 156.273438 Z M 90.125 199.15625 C 87.617188 205.59375 81.613281 211.542969 74.882813 213.886719 C 86.039063 203.679688 89.082031 190.570313 92.121094 177.308594 C 92.464844 178.503906 94.800781 180.546875 94.929688 179.9375 C 96.820313 209.371094 102.976563 280.402344 87.996094 280.46875 C 77.777344 281.410156 75.707031 274.824219 73.339844 267.339844 C 95.917969 297.539063 94.859375 209.589844 90.125 199.15625 Z M 94.570313 169.054688 C 80.800781 173.804688 73.039063 131.347656 85.066406 129.132813 C 103.226563 123.910156 108.769531 163.472656 94.570313 169.054688 Z M 32.914063 198.34375 C 43.503906 208.835938 54.351563 192.484375 56.519531 203.003906 C 58.3125 206.875 60.40625 210.738281 61.304688 214.945313 C 49.757813 208.976563 34.5625 211.449219 22.089844 213.984375 C 23.632813 210.300781 26.652344 201.121094 32.914063 198.34375 Z M 21.082031 151.992188 C 22.492188 148.917969 25.621094 147.453125 27.96875 145.257813 C 27.214844 154.507813 27.375 171.535156 24.617188 176.378906 C 21.328125 183.632813 19.851563 160.503906 21.082031 151.992188 Z M 21.804688 287.0625 C 24.5625 288.179688 26.910156 290.523438 29.539063 292.25 C 29.941406 281.648438 15.621094 278.644531 14.648438 267.632813 C 14.625 266.878906 22.816406 272.050781 26.859375 275.394531 C 27.710938 273.703125 27.03125 271.457031 27.113281 269.335938 C 21.09375 261.214844 6.8125 254.886719 11.078125 242.1875 C 15.484375 247.335938 19.761719 253.089844 24.597656 257.46875 C 25.703125 254.253906 24.472656 249.152344 23.144531 245.566406 C 16.9375 236.394531 9.074219 227.425781 10.640625 215.421875 C 12.945313 216.558594 15.5625 217.832031 17.875 219.117188 C 37.457031 257.21875 27.671875 277.03125 38.683594 303.292969 C 32.410156 301.230469 22.988281 295.34375 21.804688 287.0625 Z M 25.609375 224.304688 C 32.269531 215.308594 45.191406 217.144531 54.929688 218.9375 C 58.125 219.4375 64.460938 223.460938 57.265625 225.367188 C 33.421875 220.929688 31.40625 232.019531 25.609375 224.304688 Z M 339.546875 311.261719 C 322.554688 323.476563 300.1875 324.070313 280.910156 331.21875 C 280.914063 331.371094 280.917969 331.523438 280.925781 331.671875 C 303.636719 336.816406 326.566406 330.300781 350.527344 332.074219 C 322.976563 345.097656 293.460938 340.179688 261.683594 344.417969 C 291.886719 356.421875 328.421875 354.144531 361.953125 348.03125 C 349.148438 354.207031 304.574219 372.128906 235.609375 361.019531 C 260.203125 336.296875 274.929688 306.15625 293.824219 278.445313 C 297.789063 274.835938 300.058594 270.371094 304.828125 268.246094 C 302.234375 276.652344 297.042969 284.238281 293.21875 292.082031 C 301.265625 292.871094 308.875 289.742188 317.023438 289.167969 C 309.335938 298.957031 298.820313 305.8125 290.640625 314.554688 C 307.183594 316.121094 323.90625 314.050781 339.546875 311.261719 Z M 301.3125 258.074219 C 278.472656 285.3125 259.984375 316.183594 236.105469 344.058594 C 194.703125 390.273438 109.023438 372.128906 104.78125 325.59375 C 108.605469 317.753906 123.136719 299.050781 132.011719 275.671875 C 140.851563 282.183594 152.019531 272.28125 158.914063 284.003906 C 171.015625 307.113281 224.4375 315.679688 220.226563 244.441406 C 225.203125 225.816406 279.375 192.703125 251.625 142.640625 C 195.710938 146.339844 149.195313 205.8125 118.035156 233.171875 C 117.011719 234.113281 133.671875 243.847656 140.851563 250.414063 C 137.238281 260.066406 125.886719 250.761719 117.648438 253.308594 C 119.105469 302.578125 84.867188 313.703125 82.601563 313.777344 C 90.8125 337.710938 110.425781 358.839844 130.398438 377.085938 C 81.808594 370.113281 53.898438 274.191406 51.359375 275.183594 C 39.777344 286.160156 53.480469 297.957031 55.65625 308.777344 C 61.269531 318.273438 65.234375 328.277344 72.488281 337.109375 C 58.550781 327.4375 52.480469 313.269531 45.089844 300.355469 C 39.246094 292.984375 47.527344 264.570313 49.078125 256.652344 C 79.792969 340.882813 99.820313 290.210938 106.035156 281.53125 C 115.421875 263.667969 112.605469 242.734375 112.214844 221.871094 C 130.292969 201.449219 121.210938 174.066406 114.691406 150.988281 C 119.148438 125.878906 94.230469 109.007813 75.800781 96.160156 C 87.832031 98.632813 105.496094 105.515625 117.871094 132.878906 C 120.5 125.53125 137.671875 123.292969 128.71875 113.453125 C 121.707031 98.257813 104.902344 88.835938 90.628906 82.652344 C 104.675781 68.417969 127.257813 69.632813 146.21875 66.578125 C 131.5 69.792969 117.28125 74.351563 104.851563 82.785156 C 106.917969 85.742188 110.882813 86.667969 113.699219 89.449219 C 149.808594 74.476563 197.703125 68.039063 234.972656 83.285156 C 199.195313 85.539063 160.9375 78.296875 128.871094 99.835938 C 130.339844 103.113281 132.410156 106.222656 135.078125 109.007813 C 152.082031 101.785156 301.046875 73.761719 300.335938 133.449219 C 282.902344 84.347656 176.453125 111.257813 138.925781 124.613281 C 129.839844 128.847656 123.363281 138.898438 121.097656 148.050781 C 135.230469 187.160156 126.5 214.738281 126.65625 214.882813 C 140.296875 202.023438 138.519531 180.449219 135.207031 162.859375 C 136.074219 152.542969 137.523438 141.601563 147.46875 135.824219 C 158.292969 129.261719 171.902344 129.109375 184.199219 125.824219 C 205.511719 116.191406 233.574219 118.429688 257.933594 118.527344 C 283.9375 118.113281 290.679688 147.84375 311.628906 159.09375 C 349.933594 165.992188 381.6875 261.25 301.3125 258.074219 Z M 185.980469 260.863281 C 192.335938 260.953125 200.386719 261.894531 207.171875 261.214844 C 201.476563 253.839844 196.386719 246.292969 188.460938 240.054688 C 199.265625 232.886719 216.121094 234.742188 222.714844 219.246094 C 214.488281 217.550781 205.550781 217.246094 196.898438 216.324219 C 210.226563 207.710938 224.824219 200.867188 235.734375 187.796875 C 224.558594 188.320313 213.808594 192.613281 203.332031 195.988281 C 216.203125 182.851563 232.363281 172.933594 249.6875 166.152344 C 258.710938 196.234375 221.484375 223.21875 217.121094 233.046875 C 210.890625 254.886719 215.6875 285.285156 188.613281 294.511719 C 171.519531 293.503906 168.257813 278.394531 161.734375 268.78125 C 172.75 272.496094 181.386719 281.890625 193.65625 282.390625 C 192.359375 275.324219 188.785156 267.878906 185.980469 260.863281 Z M 168.351563 222.269531 C 178.789063 217.683594 189.441406 210.519531 200.484375 205.914063 C 187.316406 214.828125 173.027344 221.808594 162.101563 234.425781 C 173.40625 233.144531 186.871094 228.609375 196.84375 228.277344 C 185.621094 231.980469 174.230469 235.234375 163.492188 239.828125 C 172.082031 243.324219 182.75 245.691406 190.523438 251.9375 C 181.675781 249.8125 172.839844 247.988281 163.175781 248.460938 C 171.015625 258.730469 172.023438 258.730469 179.128906 268.652344 C 173.238281 264.464844 167.765625 259.046875 160.769531 257.921875 C 150.683594 268.542969 159.101563 253.285156 157.773438 249.851563 C 153.402344 241.222656 145.742188 238.300781 139.136719 230.804688 C 180.589844 186.152344 201.914063 176.21875 236.578125 163.261719 C 211.824219 178.460938 187.070313 198.347656 168.351563 222.269531 "/>
<path style=" stroke:none;fill-rule:nonzero;fill:rgb(0%,0%,0%);fill-opacity:1;" d="M 90.800781 137.714844 C 82.058594 145.328125 92.464844 164.890625 98.226563 160.765625 C 103.984375 155.914063 97.179688 130.964844 90.800781 137.714844 "/>
</g>
</svg>
