<?xml version="1.0" encoding="UTF-8"?>
<svg xmlns="http://www.w3.org/2000/svg" xmlns:xlink="http://www.w3.org/1999/xlink" width="516pt" height="707pt" viewBox="0 0 516 707" version="1.1">
<g id="surface1">
<path style=" stroke:none;fill-rule:nonzero;fill:rgb(0%,0%,0%);fill-opacity:1;" d="M 372.203125 662.378906 C 398.625 648.121094 467.496094 602.378906 404.324219 513.355469 C 400.714844 495.109375 399.195313 476.289063 385.316406 462.605469 C 384.746094 442.457031 366.878906 429.53125 359.847656 412.042969 C 354.523438 396.457031 376.382813 389.613281 371.632813 374.410156 C 348.253906 353.878906 335.707031 328.789063 314.796875 307.3125 C 309.097656 296.285156 313.46875 282.601563 316.890625 271.765625 C 342.171875 284.691406 334.945313 316.625 353.765625 333.921875 C 355.476563 351.027344 374.292969 352.359375 384.558594 361.292969 C 393.683594 376.5 391.019531 396.269531 400.335938 411.285156 C 397.671875 395.316406 400.144531 375.359375 395.582031 359.390625 C 391.402344 343.617188 373.34375 333.539063 362.699219 322.328125 C 352.625 311.871094 352.8125 296.285156 350.34375 283.359375 C 369.921875 301.226563 386.269531 334.871094 416.109375 333.921875 C 435.117188 340.765625 460.019531 353.878906 479.027344 340.765625 C 462.679688 339.242188 446.902344 336.011719 431.128906 333.351563 C 420.484375 324.035156 406.796875 319.664063 395.582031 310.730469 C 388.929688 294.765625 371.0625 289.253906 359.277344 277.277344 C 350.34375 264.160156 333.996094 257.128906 328.484375 243.632813 C 331.527344 243.253906 334.1875 244.015625 336.65625 245.726563 C 363.269531 244.773438 379.996094 268.535156 405.085938 271.003906 C 421.242188 278.988281 423.335938 296.285156 434.550781 308.070313 C 443.292969 314.34375 452.414063 322.898438 460.589844 327.078125 C 450.324219 309.972656 441.960938 291.914063 429.035156 275.757813 C 418.390625 269.675781 408.128906 261.5 399.574219 251.808594 C 378.476563 246.675781 359.65625 234.699219 337.988281 230.707031 C 334.378906 221.773438 318.601563 217.972656 326.394531 205.996094 C 314.230469 187.558594 335.707031 167.980469 323.730469 152.015625 C 326.394531 137.570313 318.789063 125.976563 319.550781 111.527344 C 325.824219 103.355469 319.742188 96.132813 316.890625 88.339844 C 322.59375 68.191406 343.945313 -18.234375 270.890625 4.132813 C 260.816406 3.941406 250.933594 1.660156 240.859375 3.5625 C 182.378906 -14.746094 200.941406 52.792969 207.402344 77.3125 C 208.164063 106.394531 194.667969 130.914063 200.5625 160.1875 C 194.097656 177.296875 195.808594 195.355469 193.71875 214.171875 C 188.015625 222.535156 182.121094 230.136719 172.429688 232.800781 C 146.199219 233.9375 120.917969 225.007813 95.066406 227.285156 C 73.777344 240.023438 50.398438 253.519531 30.820313 265.492188 C 41.273438 263.78125 51.539063 261.5 60.851563 257.320313 C 79.289063 259.21875 89.554688 241.351563 106.660156 239.640625 C 131.5625 238.691406 152.660156 245.914063 175.851563 249.144531 C 156.273438 255.988281 136.125 261.3125 119.015625 273.855469 C 110.652344 280.507813 99.25 279.179688 88.984375 281.269531 C 69.976563 285.832031 55.910156 268.152344 36.332031 272.335938 C 24.546875 271.003906 10.289063 260.550781 0.597656 270.433594 C 12.382813 276.328125 24.355469 280.890625 36.332031 286.019531 C 55.148438 282.789063 68.265625 297.234375 84.800781 294.953125 C 93.925781 288.871094 103.429688 287.730469 115.023438 289.441406 C 128.519531 281.460938 140.117188 269.296875 156.082031 267.011719 C 160.644531 266.0625 166.917969 265.492188 171.097656 267.585938 C 154.5625 280.128906 134.03125 288.113281 125.289063 308.640625 C 111.792969 313.773438 96.015625 312.824219 81.382813 314.914063 C 64.082031 332.210938 57.8125 355.398438 46.597656 375.738281 C 57.050781 361.101563 67.503906 345.515625 82.710938 333.351563 C 95.828125 328.980469 111.03125 329.929688 121.105469 318.335938 C 146.007813 320.046875 152.472656 289.824219 173.1875 281.269531 C 177.941406 281.648438 182.121094 282.980469 186.113281 285.449219 C 186.683594 289.253906 185.164063 292.292969 184.785156 295.714844 C 144.675781 327.269531 135.171875 371.558594 108.183594 408.621094 C 103.050781 420.976563 107.421875 437.136719 97.917969 447.589844 C 97.15625 474.199219 109.132813 497.011719 116.925781 520.769531 C 11.9375 558.023438 36.710938 639.570313 39.753906 678.914063 C 43.933594 647.363281 25.242188 554.222656 121.867188 534.453125 C 134.792969 558.785156 146.199219 583.6875 164.824219 605.734375 C 167.488281 605.546875 169.769531 604.40625 171.667969 602.882813 C 170.339844 593.949219 156.652344 584.257813 167.675781 576.273438 C 173.1875 558.214844 170.910156 537.117188 172.429688 517.347656 C 196.378906 509.363281 217.667969 495.300781 241.617188 487.316406 C 248.652344 510.886719 249.789063 537.117188 253.78125 561.828125 C 256.824219 533.503906 251.691406 508.414063 250.363281 481.804688 C 257.394531 487.886719 262.90625 493.398438 270.320313 498.910156 C 282.675781 543.199219 298.070313 586.347656 322.972656 625.503906 C 334.945313 640.898438 353.449219 711.988281 515.902344 706.859375 C 484.921875 704.578125 384.496094 687.28125 372.203125 662.378906 Z M 372.964844 479.710938 C 387.027344 488.644531 388.171875 506.324219 387.980469 521.53125 C 445.480469 579.882813 402.425781 619.230469 395.582031 631.015625 C 388.359375 606.117188 382.46875 577.792969 355.09375 562.585938 C 346.160156 558.023438 317.460938 542.058594 346.160156 513.355469 C 344.261719 521.339844 334.28125 539.015625 346.921875 548.902344 C 378.476563 560.878906 391.875 590.148438 398.910156 619.800781 C 424.570313 569.429688 390.449219 535.40625 383.796875 527.613281 C 382.085938 513.925781 379.996094 500.429688 375.054688 487.886719 C 367.261719 490.546875 359.65625 497.960938 351.105469 494.160156 C 358.898438 490.738281 368.210938 487.886719 372.964844 479.710938 Z M 376.382813 619.992188 C 371.0625 599.84375 358.136719 582.925781 344.832031 566.007813 C 365.171875 576.273438 373.722656 598.703125 376.382813 619.992188 Z M 361.9375 467.355469 C 363.460938 459.945313 356.140625 439.699219 329.816406 437.324219 C 344.734375 427.347656 376.574219 445.402344 361.9375 467.355469 Z M 349.011719 383.34375 C 354.523438 381.0625 360.226563 363.382813 364.789063 377.828125 C 359.46875 384.292969 352.054688 388.664063 344.832031 392.085938 C 340.839844 385.242188 337.417969 377.828125 335.898438 369.65625 C 339.890625 373.648438 345.402344 378.398438 349.011719 383.34375 Z M 351.675781 424.96875 C 342.738281 424.210938 330.953125 426.300781 320.882813 427.820313 C 314.796875 416.890625 344.261719 422.117188 351.675781 424.96875 Z M 221.089844 50.703125 C 224.890625 36.636719 227.933594 20.859375 242.949219 13.066406 C 270.128906 -7.460938 292.621094 25.800781 287.425781 45.949219 C 298.640625 54.503906 306.433594 65.527344 309.285156 78.074219 C 304.535156 70.089844 292.242188 56.152344 283.117188 48.929688 C 290.722656 -2.394531 223.242188 -3.027344 222.988281 75.414063 C 234.332031 61.917969 271.078125 48.296875 287.996094 78.074219 C 253.023438 48.613281 222.800781 80.164063 217.667969 91 C 217.476563 98.792969 212.347656 105.257813 214.246094 113.050781 C 229.453125 97.082031 254.605469 81.875 284.007813 97.84375 C 259.675781 92.710938 227.679688 95.496094 210.824219 124.644531 C 212.15625 99.933594 218.617188 75.601563 221.089844 50.703125 Z M 300.351563 138.328125 C 293.320313 135.476563 287.238281 126.546875 279.253906 130.15625 C 268.800781 135.859375 257.585938 141.75 244.277344 138.328125 C 244.277344 137.1875 244.277344 136.046875 244.277344 134.90625 C 256.824219 136.238281 267.277344 133.578125 276.402344 126.734375 C 257.773438 118.941406 212.15625 123.691406 210.066406 159.429688 C 235.15625 149.164063 288.1875 143.019531 309.285156 178.054688 C 281.535156 153.914063 236.675781 151.066406 205.882813 167.03125 C 202.019531 102.46875 283.753906 112.605469 300.351563 138.328125 Z M 253.214844 205.996094 C 268.800781 201.246094 298.640625 161.710938 305.863281 210.75 C 302.824219 203.335938 295.980469 198.015625 289.519531 193.074219 C 278.492188 201.054688 268.039063 209.800781 255.875 214.933594 C 243.140625 210.371094 232.304688 200.484375 221.089844 192.3125 C 216.527344 193.453125 211.773438 197.0625 208.734375 197.824219 C 211.203125 158.226563 272.347656 164.5625 287.425781 178.628906 C 267.089844 172.542969 233.253906 162.28125 214.816406 184.898438 C 228.503906 189.839844 240.097656 199.726563 253.214844 205.996094 Z M 185.355469 316.242188 C 184.785156 325.367188 172.050781 333.351563 164.824219 340.765625 C 159.503906 350.648438 153.992188 360.53125 148.480469 370.226563 C 151.519531 378.398438 156.652344 386.382813 154.5625 395.507813 C 155.511719 397.027344 175.46875 381.0625 182.691406 372.316406 C 175.851563 385.054688 163.683594 397.976563 150.570313 403.871094 C 150.949219 395.507813 144.488281 389.234375 138.976563 383.910156 C 143.535156 356.921875 163.683594 333.921875 185.355469 316.242188 Z M 119.777344 412.042969 C 118.539063 429.722656 136.125 435.804688 137.453125 436.5625 C 124.71875 443.976563 100.007813 432.574219 119.777344 412.042969 Z M 135.554688 495.488281 C 138.023438 475.816406 107.992188 455.761719 109.511719 455.191406 C 145.152344 448.730469 147.910156 469.828125 147.71875 470.777344 C 140.6875 463.554688 131.5625 455.382813 120.347656 457.855469 C 130.230469 465.644531 140.875 475.339844 143.726563 487.316406 C 139.925781 513.546875 143.917969 544.910156 151.140625 570.761719 C 138.785156 548.710938 135.554688 521.910156 135.554688 495.488281 Z M 229.261719 473.628906 C 218.429688 492.828125 186.96875 507.652344 168.246094 507.84375 C 166.15625 505.183594 167.105469 501.570313 164.824219 498.910156 C 181.933594 482.753906 157.03125 468.878906 154.5625 453.101563 C 148.480469 441.886719 145.628906 410.238281 198.46875 386.003906 C 201.132813 398.546875 205.691406 410.144531 210.824219 421.546875 C 209.113281 428.011719 200.277344 447.304688 222.421875 446.828125 C 223.941406 456.144531 233.824219 464.316406 229.261719 473.628906 Z M 233.253906 442.835938 C 238.765625 415.273438 231.480469 392.023438 204.550781 370.988281 C 222.800781 380.109375 238.765625 398.546875 236.675781 420.21875 C 236.484375 434.285156 236.484375 443.21875 242.949219 454.433594 C 238.957031 451.960938 236.867188 445.878906 233.253906 442.835938 Z M 255.875 429.152344 C 256.632813 408.054688 265.1875 388.664063 279.824219 374.980469 C 280.585938 367.566406 281.15625 359.960938 281.914063 352.550781 C 251.4375 306.488281 206.453125 330.878906 204.550781 364.144531 C 193.148438 329.296875 197.140625 307.878906 198.46875 305.980469 C 200.5625 314.914063 202.082031 324.035156 205.3125 332.589844 C 218.238281 320.617188 261.578125 300.46875 284.007813 344.1875 C 297.121094 308.261719 297.375 226.652344 291.417969 221.773438 C 282.105469 227.855469 255.238281 239.960938 255.238281 239.960938 L 221.027344 222.21875 C 221.027344 222.21875 207.785156 243.0625 202.460938 254.65625 C 203.222656 240.972656 205.882813 226.335938 210.824219 213.601563 C 226.222656 214.171875 252.453125 232.800781 252.453125 232.800781 C 252.453125 232.800781 279.0625 214.742188 292.9375 207.328125 C 305.609375 236.472656 305.105469 306.738281 291.417969 345.707031 C 291.039063 357.492188 287.425781 369.65625 284.574219 381.25 C 265.566406 395.128906 261.195313 416.226563 257.964844 437.324219 C 252.832031 439.984375 256.253906 431.621094 255.875 429.152344 Z M 355.855469 657.054688 C 312.136719 604.40625 290.277344 541.679688 269.558594 479.140625 C 263.855469 471.347656 259.484375 461.085938 266.136719 452.339844 C 269.179688 448.730469 292.9375 451.105469 277.734375 425.730469 C 292.179688 396.839844 302.441406 366.425781 308.527344 333.921875 C 339.035156 346.085938 317.460938 408.621094 311.945313 429.722656 C 310.046875 440.367188 320.691406 447.589844 321.640625 457.855469 C 334.757813 462.226563 323.351563 478.761719 336.65625 483.132813 C 338.558594 486.554688 339.128906 490.355469 335.898438 493.398438 C 329.433594 494.730469 325.253906 501.191406 322.210938 506.515625 C 322.023438 511.835938 320.3125 516.777344 316.890625 520.769531 C 318.03125 528.371094 323.542969 535.027344 317.460938 542.058594 C 315.75 551.183594 325.441406 555.933594 328.484375 563.15625 C 328.292969 570 325.441406 577.414063 328.484375 583.6875 C 342.738281 586.917969 330.953125 604.976563 346.160156 607.066406 C 360.039063 611.816406 343.882813 631.394531 361.367188 635.007813 C 364.789063 637.097656 371.0625 636.148438 372.203125 641.28125 C 370.492188 647.933594 355.664063 641.660156 355.855469 657.054688 "/>
</g>
</svg>
