<?xml version="1.0" encoding="UTF-8"?>
<svg xmlns="http://www.w3.org/2000/svg" xmlns:xlink="http://www.w3.org/1999/xlink" width="468pt" height="709pt" viewBox="0 0 468 709" version="1.1">
<g id="surface1">
<path style=" stroke:none;fill-rule:nonzero;fill:rgb(0%,0%,0%);fill-opacity:1;" d="M 440.09375 209.402344 C 437.398438 209.519531 419.9375 206.570313 419.9375 206.570313 C 418.890625 206.511719 388.113281 201.972656 387.296875 201.933594 L 375.285156 200.339844 C 373.34375 200.28125 357.46875 199.449219 352.8125 198.886719 C 351.570313 198.730469 340.972656 198.265625 340.664063 198.207031 C 340.664063 198.207031 329.839844 199.339844 326.980469 197.800781 C 324.664063 196.320313 320.132813 197.082031 320.132813 197.082031 C 319.9375 197.101563 310.722656 192.871094 305.34375 192.8125 C 296.203125 188.128906 295.621094 189.550781 295.621094 189.550781 C 291.601563 178.640625 286.871094 176.046875 286.984375 175.328125 L 287.820313 165.101563 C 288.015625 164.460938 288.246094 156.96875 288.402344 156.503906 C 288.402344 156.503906 290.019531 150.753906 289.722656 146.257813 C 290.738281 143.566406 290.421875 135.953125 290.421875 135.953125 C 291.601563 133.503906 291.703125 125.917969 291.703125 125.917969 C 291.703125 125.917969 293.328125 117.980469 292.710938 115.730469 L 293.902344 108.636719 C 293.472656 107.195313 295.019531 98.945313 295.019531 98.945313 L 295.621094 88.773438 C 295.621094 88.773438 297.640625 84.628906 296.320313 82.136719 C 296.320313 82.136719 297.058594 78.410156 297.019531 77.015625 C 296.980469 75.773438 298.359375 69.105469 297.949219 66.847656 C 297.699219 64.886719 297.699219 61.996094 297.949219 58.191406 C 297.949219 58.191406 297.496094 53.867188 298.609375 51.398438 C 298.882813 50.429688 298.941406 48.722656 298.765625 46.273438 C 300.226563 39.492188 299.347656 37.699219 299.347656 37.699219 C 299.347656 37.699219 300.6875 24.132813 300.746094 23.996094 L 301.425781 22.40625 C 301.484375 22.269531 302.121094 18.46875 302.839844 15.730469 C 302.898438 15.496094 304.828125 12.035156 304.78125 9.171875 C 304.78125 9.171875 308.707031 0.535156 306.296875 0.148438 C 304.394531 -0.902344 300.222656 14.488281 300.046875 15.476563 C 300.046875 15.476563 298.785156 20.328125 298.765625 20.464844 C 298.644531 25.980469 296.144531 35.757813 296.144531 35.757813 L 296.4375 37.40625 C 296.632813 38.492188 296.203125 42.492188 295.136719 49.4375 C 294.710938 52.175781 294.535156 54.484375 294.574219 56.367188 C 294.574219 56.367188 293.039063 61.914063 292.945313 68.28125 C 292.945313 68.28125 291.746094 71.546875 292.109375 81.945313 C 292.109375 81.945313 289.546875 96.925781 288.886719 98.789063 C 288.539063 99.796875 289.316406 102.921875 289.316406 103.679688 C 289.316406 103.679688 287.863281 106.765625 288.171875 110.199219 C 288.171875 110.199219 286.425781 114.097656 287.335938 116.210938 L 286.714844 121.140625 C 284.558594 125.453125 285.726563 128.480469 285.726563 128.480469 C 282.6875 134.652344 284.347656 138.222656 284.328125 138.300781 C 284.328125 138.300781 282.546875 142.558594 283.203125 144.9375 C 283.203125 144.9375 281.972656 148.023438 282.71875 151.4375 C 282.71875 151.4375 282.078125 157.996094 282.039063 158.074219 C 282.039063 158.074219 280.390625 169.726563 277.398438 170.203125 C 253.078125 164.695313 239.925781 180.722656 239.597656 180.292969 C 237.9375 172.460938 250.871094 153.964844 248.191406 154 C 238.703125 161.726563 236.238281 176.433594 236.238281 176.433594 C 236.199219 176.839844 234.007813 180.179688 233.675781 180.878906 C 233.675781 180.878906 233.671875 185.539063 229.253906 191.703125 C 229.175781 191.898438 228.941406 197.605469 228.554688 198.476563 C 228.28125 199.097656 222.316406 206.238281 218.035156 216.039063 C 217.589844 216.078125 217.261719 215.964844 217.027344 215.710938 C 216.8125 214.703125 214.039063 199.953125 212.933594 197.292969 C 211.675781 196.035156 211.675781 182.234375 210.019531 180.410156 C 208.625 177.5 203.289063 159.605469 202.121094 158.675781 C 202.21875 159.238281 206.410156 182.605469 206.429688 184.3125 C 208.371094 187.695313 207.421875 195.953125 207.460938 196.050781 C 207.460938 196.050781 210.097656 199.195313 208.527344 206.105469 C 206.933594 209.835938 209.632813 213.574219 209.191406 214.285156 L 208.800781 220.902344 C 209.535156 221.628906 209.285156 222.753906 208.546875 224.308594 C 209.867188 226.246094 210.332031 227.820313 209.90625 229.003906 C 209.789063 229.3125 202.53125 239.484375 201.851563 239.734375 C 200.960938 239.113281 199.753906 237.253906 198.261719 234.144531 C 197.015625 229.238281 187.761719 223.183594 186.65625 221.746094 C 184.074219 218.40625 172.433594 206.671875 168.085938 207.25 C 169.074219 208.296875 177.304688 216.273438 181.007813 221.027344 C 182.25 222.617188 185.296875 226.5 185.746094 227.917969 C 186.25 229.566406 187.960938 232.113281 191.703125 233.3125 C 191.914063 234.011719 191.984375 237.003906 193.351563 238.027344 C 196.007813 240.164063 195.601563 244.316406 195.601563 244.316406 C 195.578125 245.769531 197.621094 246.878906 197.621094 246.878906 C 196.441406 249.796875 196.671875 261.664063 195.953125 263.78125 C 191.121094 265.179688 185.371094 255.113281 181.824219 255.320313 C 177.035156 254.539063 175.597656 250.945313 170.898438 250.738281 C 168.609375 250.332031 146.875 238.453125 144.875 237.621094 C 144.976563 240.308594 162.070313 250.273438 166.394531 252.5625 C 167.96875 253.398438 174.023438 259.238281 174.101563 259.277344 C 174.257813 259.355469 181.488281 260.433594 183.125 265.71875 C 183.203125 265.777344 187.21875 267.5625 187.683594 268.089844 C 187.664063 269.855469 188.226563 271.445313 189.335938 272.863281 C 193.566406 276.964844 191.023438 293.257813 189.917969 293.996094 C 188.363281 295.023438 186.191406 294.867188 183.378906 293.566406 C 183.378906 293.566406 177.070313 291.628906 173.90625 289.785156 C 171.285156 286.882813 161.507813 286.195313 157.78125 284.332031 C 154.191406 282.527344 138.78125 277.015625 138.433594 276.917969 C 140.257813 278.527344 147.570313 282.953125 160.378906 290.230469 C 160.867188 290.503906 165.964844 294.070313 168.707031 293.800781 C 170.996094 296.371094 174.820313 296.59375 174.820313 296.59375 C 175.984375 296.75 177.359375 297.683594 178.914063 299.410156 C 179.515625 300.070313 190.050781 305.425781 190.613281 306.355469 C 189.828125 309.453125 195.507813 320.136719 195.195313 320.96875 C 182.925781 321.382813 183.433594 323.105469 183.433594 323.105469 C 178.757813 321.238281 175.03125 321.941406 175.03125 321.941406 C 162.515625 316.351563 161.933594 318.367188 161.933594 318.367188 C 147.132813 315.058594 142.390625 303.269531 121.722656 297.585938 C 130.980469 304.570313 136.046875 308.277344 136.898438 308.703125 C 136.898438 308.703125 140.378906 310.460938 144.777344 315.011719 C 152.164063 316.210938 162.863281 324.851563 164.476563 324.988281 C 164.476563 324.988281 172.585938 325.878906 173.089844 326.246094 L 180.660156 329.257813 C 184.152344 328.617188 191.488281 329.21875 192.730469 330.207031 C 193.273438 330.652344 196.804688 352.582031 197.214844 353.570313 C 190.882813 356.554688 177.265625 354.582031 177.265625 354.582031 C 176.855469 354.523438 174.546875 356.445313 174.546875 356.445313 C 174.3125 356.617188 165.964844 353.871094 157.179688 355.863281 C 154.90625 355.882813 126.433594 348.839844 121.140625 349.75 C 121.296875 350.136719 146.136719 357.589844 153.027344 360.246094 C 155.808594 361.921875 165.058594 360.617188 165.058594 360.617188 C 165.230469 360.597656 169.988281 363.261719 173.304688 362.964844 C 173.597656 362.925781 188.421875 362.148438 188.421875 362.148438 C 188.675781 362.265625 195.738281 360.789063 196.6875 361.257813 C 197.15625 361.914063 202.957031 382.8125 194.515625 385.378906 C 191.265625 387.222656 179.359375 387.960938 179.359375 387.960938 C 179.011719 387.980469 179.382813 392.011719 163.582031 397.078125 C 161.546875 398.265625 140.472656 398.335938 138.023438 401.484375 C 138.003906 401.699219 167.386719 402.4375 169.441406 401.019531 C 169.441406 401.019531 181.488281 393.929688 189.730469 396.613281 C 190.195313 396.554688 199.121094 388.753906 201.152344 393.664063 C 201.367188 395.664063 204.683594 413.671875 193.992188 415.417969 C 191.839844 416.160156 189.625 418.019531 189.625 418.019531 C 189.238281 418.386719 174.78125 420.761719 173.382813 423.257813 C 170.183594 427.855469 156.945313 429.3125 155.957031 429.992188 C 153.839844 431.46875 126.480469 431.6875 122.617188 435.503906 C 126.671875 437.246094 162.417969 435.019531 165.835938 432.921875 C 167.871094 431.660156 169.96875 430.75 172.082031 430.207031 C 176.507813 429.578125 181.027344 425.335938 181.027344 425.335938 C 181.183594 425.199219 187.433594 425.9375 192.886719 423.667969 C 197.015625 420.953125 204.199219 422.328125 204.78125 422.347656 C 205.578125 424.910156 206.597656 433.796875 200.609375 436.261719 C 200.355469 436.398438 188.199219 443.570313 171.265625 450.019531 C 169.464844 451.011719 159.234375 453.066406 156.363281 453.785156 C 154.480469 454.25 129.546875 452.386719 127.234375 454.890625 C 127.507813 454.96875 155.613281 463.121094 164.535156 457.433594 C 173.246094 452.578125 180.757813 453.359375 180.757813 453.359375 C 181.804688 453.707031 196.246094 448.9375 197.621094 450.679688 C 198.546875 461.96875 184.523438 466.378906 182.097656 467.15625 C 178.996094 467.335938 176.527344 470.960938 176.527344 470.960938 C 173.632813 470.59375 168.996094 474.898438 168.996094 474.898438 C 164.433594 481.136719 135.105469 472.511719 129.234375 476.820313 C 129.117188 476.898438 155.664063 482.933594 156.070313 482.914063 C 158.871094 484.394531 170.566406 477.6875 176.390625 478.355469 C 177.535156 478.238281 189.539063 470.402344 190.597656 475.441406 C 182.640625 493.210938 176.292969 490.539063 174.160156 492.113281 C 172.664063 493.199219 158.683594 494.9375 151.921875 499.15625 C 145.554688 499.410156 140.992188 498.886719 138.257813 497.585938 C 134.222656 495.683594 111.722656 478.644531 107.382813 481.59375 C 109.617188 484.394531 122.578125 493.839844 128.824219 498.457031 C 129.757813 499.136719 137.023438 500.6875 141.59375 503.5625 C 143.089844 504.183594 152.164063 502.21875 155.316406 503.796875 C 155.316406 503.796875 163.855469 504.519531 172.160156 501.910156 C 174.398438 503.179688 151.015625 510.269531 147.921875 514.449219 C 145.691406 516.117188 143.652344 517.144531 141.808594 517.515625 L 134.53125 519.085938 C 133.308594 520.542969 126.535156 523.160156 115.414063 524.230469 C 111.148438 524.070313 105.65625 527.042969 105.65625 527.042969 C 104.722656 527.664063 69.65625 527.160156 67.640625 527.761719 C 75.5 530.585938 99.269531 531.914063 102.183594 531.546875 C 104.824219 530.203125 107.128906 532.050781 107.128906 532.050781 C 108.003906 532.476563 125.523438 526.753906 134.105469 526.402344 C 136.832031 527.328125 142.175781 524.558594 142.175781 524.558594 C 146 521.707031 153.890625 518.894531 156.769531 520.097656 C 160.40625 521.769531 165.71875 516.410156 167.65625 516.523438 C 162.515625 527.519531 152.65625 530.496094 152.289063 531.039063 C 152.289063 531.039063 136.199219 544.320313 136.257813 545.152344 L 136.179688 548.003906 C 136.085938 548.449219 120.695313 558.015625 120.636719 558.363281 L 120.347656 560.871094 C 119.566406 563.007813 91.789063 569.6875 90.03125 571.695313 C 90.03125 571.695313 88.363281 573.929688 87.820313 574.199219 C 87.722656 574.238281 39.847656 580.996094 36.976563 584.078125 C 48.472656 586.171875 88.324219 578.390625 88.695313 578.410156 C 88.808594 578.410156 93.273438 579.925781 93.605469 579.886719 C 94.265625 579.828125 121.996094 567.660156 122.113281 567.660156 C 122.113281 567.660156 125.253906 568.25 125.523438 568.152344 C 125.816406 568.035156 148.140625 550.519531 151.667969 552.40625 C 152.933594 557.226563 134.316406 576.21875 134.261719 576.644531 L 134.007813 578.351563 C 133.621094 581.03125 112.15625 592.964844 108.625 594.808594 C 108.429688 595.507813 108.3125 599.019531 108.160156 599.757813 C 102.957031 603.152344 75.167969 616.484375 74.605469 616.972656 L 74.0625 618.601563 C 73.75 619.515625 44.992188 631.855469 40.933594 632.863281 C 38.507813 636.195313 2.28125 636.386719 0.863281 638.863281 C 5.347656 641.945313 34.007813 639.96875 35.40625 640.199219 C 36.453125 640.375 38.140625 639.832031 40.082031 638.648438 C 40.742188 638.242188 74.878906 624.386719 75.246094 624.402344 C 75.246094 624.402344 77.921875 624.597656 78.699219 624.636719 C 78.699219 624.636719 112.394531 605.28125 113.832031 605.144531 C 115.695313 604.949219 117.316406 605.894531 117.664063 605.71875 C 119.238281 604.925781 139.742188 585.886719 141.621094 585.59375 C 143.292969 585.34375 144.128906 585.695313 144.496094 585.210938 C 144.597656 585.074219 153.277344 562.207031 156.421875 560.441406 C 157.605469 561.507813 154.082031 578.3125 171.964844 570.203125 C 170.335938 573.503906 152.527344 593.519531 151.207031 597.476563 L 150.792969 601.058594 C 150.640625 601.542969 135.480469 618.894531 135.269531 619.398438 C 135.191406 619.589844 134.824219 621.28125 134.164063 624.460938 C 91.214844 695.226563 84.046875 708.738281 84.125 708.835938 C 84.296875 709.03125 87.574219 711.902344 116.152344 664.207031 L 120.714844 659.644531 C 121.375 659.277344 141.046875 628.910156 141.046875 628.910156 C 142.582031 627.589844 143.949219 627.582031 144.882813 625.078125 C 146.316406 621.214844 155.921875 604.257813 156.914063 603.402344 L 159.640625 601.886719 C 160.125 601.480469 191.003906 560.964844 191.003906 560.964844 C 191.488281 560.421875 196.457031 561.703125 195.253906 566.148438 C 194.574219 568.648438 187.917969 582.039063 185.859375 584.5625 C 185.859375 584.5625 183.40625 587.511719 183.996094 590.910156 C 183.921875 591.179688 172.78125 613.886719 171.597656 615.417969 C 169.222656 617.21875 163.679688 632.417969 161.5625 635.195313 C 155.996094 640.984375 149.785156 660.867188 149.492188 661.605469 C 149.511719 661.800781 150.441406 663.601563 164.417969 641.054688 C 164.882813 640.027344 171.523438 634.277344 178.933594 619.960938 C 178.933594 619.960938 188.773438 616.644531 202.628906 600.320313 C 208.132813 588.085938 213.183594 587.105469 213.183594 587.105469 C 214.230469 586.582031 219.761719 566.242188 220.597656 564.265625 C 222.121094 560.484375 220.773438 538.433594 220.773438 538.433594 C 220.695313 537.988281 227.914063 522.910156 227.914063 522.910156 C 228.457031 521.589844 230.339844 520.40625 233.542969 519.378906 C 235.851563 521.511719 237.210938 525.761719 237.636719 532.089844 L 244.039063 550.894531 C 244.058594 551.050781 235.730469 571.027344 234.203125 582.117188 C 234.355469 582.253906 238.796875 579.269531 250.792969 546.605469 C 251.449219 544.195313 238.683594 512.101563 238.917969 510.742188 C 239.054688 509.945313 246.679688 489.472656 248 484.875 C 251.449219 488.230469 260.226563 495.351563 260.226563 495.351563 C 261.03125 497.621094 264.847656 500.734375 264.6875 500.515625 C 268.3125 507.011719 270.53125 506.375 270.53125 506.375 C 270.761719 506.453125 278.28125 516.976563 294.847656 521.53125 C 294.1875 518.894531 279.535156 510.820313 279.535156 510.820313 C 279.28125 510.664063 274.449219 498.003906 271.074219 495.953125 C 269.847656 492.636719 264.804688 489.027344 264.242188 488.523438 C 264.242188 488.523438 265.054688 486.3125 251.78125 477.1875 C 251.78125 476.160156 259.496094 463.503906 261.660156 446.21875 C 266.398438 446.445313 274.605469 450.253906 274.78125 450.234375 C 274.78125 450.234375 280.007813 448.554688 289.003906 454.890625 C 289.003906 454.890625 292.273438 451.621094 297.058594 451.960938 C 297.71875 451.183594 301.855469 441.269531 299.773438 435.96875 C 298.882813 437.523438 294.128906 447.515625 293.292969 447.847656 C 287.671875 448.171875 283.863281 444.820313 283.863281 444.820313 C 283.550781 444.566406 275.214844 442.035156 272.101563 442.492188 C 272.101563 442.492188 266.207031 438.203125 261.855469 437.679688 C 263.714844 433.605469 259.496094 413.863281 264.554688 414.625 C 264.882813 414.722656 273.296875 417.695313 281.550781 417.417969 C 283.144531 417.824219 300.707031 424.019531 309.1875 406.394531 C 304.539063 407.347656 297.738281 413.867188 297.738281 413.867188 C 297.175781 414.292969 288.246094 414.820313 287.53125 412.664063 C 284.796875 409.261719 273.789063 410.21875 272.410156 409.5 C 272.410156 409.5 265.632813 406.769531 261.117188 407.054688 C 260.867188 406.707031 258.421875 400.785156 258.421875 400.785156 C 258.089844 400.28125 260.496094 384.640625 260.808594 384.15625 C 261.835938 384.117188 267.546875 385.496094 271.1875 384.117188 C 273.871094 382.429688 289.207031 384.535156 293.605469 382.699219 C 299.9375 382.238281 305.324219 377.015625 305.730469 376.644531 C 305.882813 374.761719 291.121094 382.046875 283.84375 378.121094 C 282.304688 375.722656 270.355469 376.820313 270.085938 376.628906 C 270.085938 376.628906 264.863281 374.378906 261.835938 374.6875 C 260.839844 368.820313 254.65625 359.335938 254.617188 359.179688 C 254.5 358.675781 256.03125 352.273438 256.984375 351.320313 C 265.824219 353.871094 274.140625 351.710938 275.671875 352.214844 C 282.113281 356.9375 296.679688 365.753906 300.203125 364.984375 C 299.96875 364.730469 285.949219 350.230469 281.027344 347.90625 C 280.855469 347.867188 269.539063 346.78125 269.316406 345.574219 L 257.964844 342.371094 C 257.160156 343.015625 250.488281 325.503906 247.105469 323.492188 C 251.0625 318.414063 257.488281 319.746094 258.070313 319.707031 C 268.121094 316.304688 288.304688 333.972656 288.753906 334.320313 C 282.976563 314.050781 272.78125 314.175781 272.703125 313.984375 C 272.703125 313.984375 271.476563 309.164063 261.292969 311.828125 C 255.644531 313.402344 251.648438 314.003906 249.339844 313.632813 C 248.910156 313.304688 245.746094 302.265625 246.328125 295.644531 C 247.476563 295.371094 269.03125 292.632813 271.617188 290.210938 C 273.441406 288.851563 273.714844 288.695313 277.980469 287.960938 C 282.546875 288.179688 299.652344 279.984375 301.25 277.324219 C 300.082031 276.679688 285.007813 279.925781 285.007813 279.925781 C 285.007813 279.925781 279.8125 283.289063 270.121094 284.058594 C 258.539063 286.453125 246.058594 286.445313 246.058594 286.445313 C 245.242188 286.464844 240.859375 278.113281 243.421875 276.160156 C 243.515625 276.140625 254.675781 276.453125 255.546875 276.140625 C 255.546875 276.140625 259.113281 274.953125 267.230469 273.65625 C 267.230469 273.65625 274.78125 269.347656 283.511719 268.535156 C 283.609375 268.476563 295.097656 258.65625 294.960938 258.636719 C 291.457031 258.710938 280.796875 265.039063 280.796875 265.039063 C 280.796875 265.039063 266.589844 268.378906 265.660156 267.835938 C 265.660156 267.835938 266.445313 265.464844 245.457031 267.390625 C 245.671875 265.546875 246.988281 263.0625 249.453125 259.976563 C 250.269531 259.878906 256.527344 260.433594 259.605469 258.851563 C 260.4375 258.558594 272.628906 258.277344 276.023438 255.144531 C 282.5625 253.6875 295.914063 247.640625 298.824219 243.789063 C 298.726563 243.558594 284.414063 249.363281 278.972656 249.554688 C 276.507813 250.15625 254.085938 252.238281 252.96875 250.214844 C 252.210938 249.28125 252.035156 248.273438 252.480469 247.148438 C 253.664063 246.820313 262.804688 245.984375 262.804688 245.984375 C 263.835938 245.769531 270.902344 246.632813 273.089844 245.226563 C 274.816406 244.488281 299.078125 241.746094 299.8125 239.871094 C 288.734375 239.074219 282.929688 238.609375 282.425781 238.472656 C 282.621094 238.300781 299.796875 233.984375 303.597656 229.082031 C 302.761719 229.160156 283.550781 236.429688 275.03125 234.554688 C 271.675781 233.546875 269.675781 232.515625 269.054688 231.488281 C 269.480469 231.023438 299.9375 227.085938 295.621094 200.03125 C 296.089844 199.992188 302.589844 199.621094 302.589844 199.621094 C 302.726563 199.605469 307.382813 201.582031 307.382813 201.582031 C 307.535156 201.660156 320.0625 201.496094 338.316406 203.910156 C 339.867188 204.066406 349.390625 202.789063 353.800781 204.027344 C 356.433594 205.089844 365.5625 203.96875 367.539063 204.339844 C 368.820313 204.570313 389.207031 207.101563 389.207031 207.101563 C 389.246094 207.121094 418.390625 209.835938 422.402344 211.226563 C 422.867188 211.324219 435.929688 213.324219 435.929688 213.324219 C 435.929688 213.324219 458.925781 216.015625 467.636719 208.335938 C 466.832031 207.101563 448.851563 212.523438 440.09375 209.402344 Z M 267.921875 173.988281 L 274.753906 175.230469 C 274.726563 175.28125 265.800781 174.976563 246.730469 183.882813 C 250.03125 179.136719 260.625 174.832031 267.921875 173.988281 Z M 259.515625 204.492188 C 261.320313 204.296875 268.929688 213.527344 262.433594 216.246094 C 254.800781 218.746094 246.78125 200.15625 247.054688 199.71875 C 247.128906 199.605469 253.867188 210.839844 258.652344 212.96875 C 265.800781 215.871094 259.683594 205.058594 259.515625 204.492188 Z M 226.925781 256.773438 C 216.277344 255.976563 212.253906 250.371094 212.253906 250.371094 C 230.4375 255.042969 226.925781 256.773438 226.925781 256.773438 Z M 196.71875 278.875 C 196.324219 277.007813 199.601563 266.183594 207.722656 260.824219 C 201.757813 246.632813 208.1875 238.820313 208.1875 238.820313 C 208.226563 240.308594 202.621094 276.101563 241.578125 260.722656 C 241.578125 260.722656 238.988281 266.472656 230.3125 268.046875 C 230.675781 268.503906 247.039063 285.304688 240.734375 313.105469 C 240.734375 313.105469 240.285156 286.019531 229.96875 270.433594 C 229.65625 270.210938 213.835938 264.746094 205.859375 266.414063 C 201.039063 269.777344 196.773438 279.117188 196.71875 278.875 Z M 173.839844 563.421875 C 171.429688 562.449219 190.546875 556.988281 193.402344 550.789063 C 180.050781 547.789063 171.714844 565.183594 166.621094 562.199219 C 171.714844 560.582031 180.476563 547.761719 180.476563 547.761719 C 169.847656 538.730469 167.375 531.070313 167.203125 531.109375 C 162.660156 533.84375 159.402344 545.53125 159.34375 545.78125 C 158.945313 545.292969 159.929688 531.976563 167.203125 525.875 C 170.277344 510.988281 179.429688 502.46875 179.429688 502.46875 C 179.4375 502.535156 154.273438 536.910156 195.964844 551.488281 C 189.109375 561.875 173.933594 563.652344 173.839844 563.421875 Z M 212.007813 559.285156 L 211.203125 560.777344 C 211.148438 560.882813 211.546875 562.765625 211.734375 563.140625 L 212.253906 564.15625 C 212.59375 564.828125 211.304688 567.875 208.382813 573.292969 L 207.597656 574.753906 L 207.890625 576.800781 C 208.210938 579.054688 208.308594 580.429688 208.179688 580.921875 C 208.03125 581.488281 204.121094 588.125 196.453125 600.84375 C 196.429688 600.882813 195.855469 601.929688 194.730469 603.976563 C 193.90625 605.476563 192.699219 606.726563 191.109375 607.738281 C 190.359375 608.214844 188.445313 609.636719 185.363281 612.003906 C 183.125 613.726563 181.882813 614.308594 181.628906 613.757813 C 181.53125 613.539063 182.101563 611.808594 183.335938 608.566406 C 183.421875 608.339844 184.53125 604.859375 186.667969 598.121094 C 187.839844 594.429688 188.953125 591.609375 190.015625 589.65625 L 195.371094 590.238281 L 195.371094 589.886719 L 195.632813 588.058594 C 195.648438 587.972656 195.710938 587.359375 195.824219 586.222656 C 196.171875 582.804688 196.984375 579.234375 198.265625 575.519531 C 199.589844 571.683594 200.667969 568.828125 201.503906 566.949219 C 202.765625 564.105469 203.207031 560.84375 202.820313 557.171875 C 202.71875 556.1875 203.839844 554.480469 206.179688 552.054688 C 206.234375 552 206.632813 551.546875 207.371094 550.703125 C 211.882813 545.542969 214.324219 542.964844 214.699219 542.964844 L 215.046875 542.964844 C 215.347656 542.964844 213.730469 556.097656 212.007813 559.285156 Z M 221.707031 518.941406 C 211.101563 540.890625 203.484375 541.007813 203.484375 541.007813 C 203.484375 541.007813 215.558594 528.382813 217.867188 518.886719 C 199.746094 514.4375 193.105469 509.144531 193.105469 509.144531 C 193.105469 509.144531 185.515625 511.996094 176.761719 522.144531 C 176.472656 521.46875 176.601563 515.730469 189.804688 503.164063 C 203.195313 516.59375 225.09375 517.09375 225.550781 517.253906 C 225.570313 517.371094 223.003906 519.074219 221.707031 518.941406 Z M 233.457031 505.460938 L 233.222656 505.460938 C 241.578125 482.238281 218.078125 478.394531 217.96875 478.386719 C 214.121094 494.3125 200.097656 496.242188 199.960938 496.105469 C 199.171875 489.140625 210.238281 488.421875 210.757813 486.933594 C 210.757813 486.933594 216.039063 479.027344 215.992188 477.746094 C 212.054688 475.761719 209.53125 474.828125 208.421875 474.953125 C 192.703125 479.21875 187.1875 496.601563 186.765625 497.078125 C 186.234375 496.738281 182.640625 484.828125 205.160156 472.742188 C 205.160156 472.136719 205.238281 471.785156 205.394531 471.691406 C 205.980469 471.671875 220.589844 468.105469 232.175781 476.003906 L 208.539063 472.507813 C 208.539063 472.507813 252.644531 478.933594 233.457031 505.460938 Z M 254.054688 421.882813 C 257.675781 467.433594 244.972656 474.046875 244.972656 474.046875 C 251.640625 459.09375 254.65625 425.949219 249.164063 423.394531 C 245.171875 426.464844 233.035156 426.964844 232.921875 427.035156 C 223.894531 430.488281 233.238281 448.746094 228.125 452.003906 C 227.195313 452.9375 226.214844 453.183594 225.179688 452.738281 C 229.644531 441.128906 222.171875 433.9375 227.273438 427.820313 C 223.671875 427.511719 220.414063 427.125 217.492188 426.65625 C 203.050781 443.28125 218.308594 462.285156 218.308594 462.285156 C 210.527344 458.519531 208.414063 446.203125 208.292969 445.984375 C 208.292969 445.984375 205.640625 448.746094 205.148438 458.210938 C 205.148438 458.210938 198.597656 446.15625 214.074219 423.902344 C 216.710938 423.878906 269.175781 432.214844 251.027344 403.253906 C 226.195313 413.238281 225.125 410.960938 224.011719 410.996094 C 224.9375 410.65625 266.445313 396.996094 238.917969 364.828125 C 232.953125 363.789063 210.929688 371.46875 208.132813 372.847656 C 208.132813 372.847656 201.710938 397.378906 211.148438 410.003906 C 198.933594 401.785156 206.804688 372.71875 206.664063 372.511719 C 206.664063 372.511719 191.265625 348.695313 205.351563 321.527344 C 205.351563 321.527344 196.511719 309.8125 199.269531 298.574219 C 199.269531 298.574219 201.398438 313.335938 208.46875 322.675781 C 208.46875 322.675781 196.152344 355.308594 210.972656 368.554688 C 211.59375 368.613281 212.683594 368.109375 214.230469 367.039063 C 205.496094 335.902344 217.003906 335.351563 217.144531 335.367188 C 212.683594 340.933594 217.144531 350.039063 217.144531 350.039063 C 217.144531 350.039063 214.410156 360.484375 219.292969 363.359375 C 220.445313 363.644531 235.539063 359.476563 244.390625 361.683594 C 259.304688 381.085938 251.863281 393.972656 251.898438 394.054688 C 251.898438 394.054688 265.296875 416.6875 254.054688 421.882813 Z M 213.640625 380.253906 C 215.925781 383.984375 218.566406 386.449219 221.558594 387.648438 C 221.558594 387.648438 225.910156 392.972656 224.234375 399.757813 C 224.058594 399.769531 213.472656 394.335938 214.453125 389.316406 Z M 252.425781 347.582031 C 252.425781 347.582031 251.449219 323.011719 211.089844 320.453125 C 204.203125 306.144531 211.964844 301.164063 210.308594 295.421875 C 204.871094 281.230469 215.320313 276.828125 215.398438 277.371094 C 215.988281 278.355469 209.472656 284.871094 211.089844 289.480469 C 211.011719 290.523438 215.128906 297.519531 211.089844 308.578125 C 209.855469 315.632813 215.058594 319.046875 215.511719 319.871094 C 255.28125 323.589844 252.425781 347.582031 252.425781 347.582031 Z M 224.023438 227.769531 C 227.058594 226.4375 234.738281 231.378906 234.738281 231.378906 C 234.734375 231.300781 238.34375 232.546875 232.382813 221.636719 C 231.085938 218.269531 234.675781 215.226563 239.160156 218.804688 C 239.160156 218.804688 230.003906 218.890625 237.324219 227.351563 C 239.996094 229.671875 239.148438 232.347656 238.8125 233.824219 C 242.519531 235.382813 244.890625 237.089844 245.914063 238.949219 C 245.820313 238.921875 224.023438 227.769531 224.023438 227.769531 Z M 253.609375 236.257813 C 253.609375 236.257813 261.988281 233.335938 264.90625 229.273438 L 264.90625 228.6875 C 244.308594 220.257813 238.296875 196.664063 238.589844 195.972656 L 239.289063 196.144531 C 247.828125 218.101563 265.574219 227.300781 266.1875 227.523438 C 266.464844 228.320313 266.234375 228.671875 265.488281 228.574219 L 265.488281 229.039063 C 268.460938 229.816406 257.605469 237.9375 253.609375 236.257813 Z M 269.914063 240.238281 C 269.914063 240.238281 268.816406 240.238281 268.28125 240.9375 C 268.148438 241.035156 262.132813 242.320313 261.0625 240.007813 L 267.699219 236.980469 C 269.105469 237.074219 269.914063 240.238281 269.914063 240.238281 Z M 267.570313 223.742188 C 267.570313 223.742188 278.953125 221.117188 289.402344 208.429688 C 291.386719 211.414063 281.632813 223.492188 267.570313 223.742188 "/>
</g>
</svg>
