<?xml version="1.0" encoding="UTF-8"?>
<svg xmlns="http://www.w3.org/2000/svg" xmlns:xlink="http://www.w3.org/1999/xlink" width="544pt" height="193pt" viewBox="0 0 544 193" version="1.1">
<g id="surface1">
<path style=" stroke:none;fill-rule:nonzero;fill:rgb(0%,0%,0%);fill-opacity:1;" d="M 508.203125 102.273438 C 516.449219 82.488281 539.554688 68.421875 543.824219 47.03125 C 519.398438 48.839844 497.121094 55.507813 476.25 65.589844 C 451.644531 76.558594 420.414063 82.835938 393.226563 73.550781 C 394.96875 71.652344 397.667969 71.195313 399.097656 69.40625 C 385.253906 61.699219 382.847656 46.335938 378.390625 33.285156 C 357.625 36.292969 340.300781 47.050781 321.789063 55.121094 C 303.351563 53.617188 286.214844 48.664063 266.96875 48.835938 C 264.527344 45.335938 265.394531 40.535156 264.605469 36.488281 C 262.605469 34.75 259.992188 34.058594 258.09375 32.109375 C 254.597656 27.894531 256.785156 20.890625 255.988281 16.011719 C 255.050781 16.023438 254.113281 16.039063 253.074219 16.054688 C 248.570313 14.140625 247.464844 9.578125 245.4375 6.070313 C 243.363281 6.410156 240.453125 6.871094 237.964844 7.21875 C 235.234375 5.59375 233.632813 2.808594 231.417969 0.652344 C 222.261719 15.144531 216.871094 31.144531 211.90625 47.34375 C 210.964844 47.148438 96.976563 35.464844 1.128906 78.476563 C -0.988281 83.1875 5.089844 86.222656 7.226563 90.039063 C 7.875 91.800781 4.539063 91.226563 3.195313 91.972656 C 1.011719 92.109375 0.53125 94.820313 1.386719 96.472656 C 12.796875 115.453125 94.203125 164.472656 159.351563 169.425781 C 167.023438 174.722656 192.695313 194.992188 208.792969 192.332031 C 207.695313 188.394531 204.941406 185.101563 201.878906 181.921875 C 202.1875 181.707031 202.289063 181.5 202.597656 181.183594 C 243.378906 180.699219 280.066406 170.597656 318.476563 164.527344 C 336.832031 167.386719 352.773438 176 371.523438 177.601563 C 379.507813 161.152344 388.117188 144.898438 401.121094 130.351563 C 452.5 128.675781 492.125 156.300781 537.679688 169.273438 C 539.496094 158.230469 506.898438 131.179688 508.203125 102.273438 Z M 434.617188 86.480469 C 445.109375 85.183594 456.421875 83.148438 465.738281 87.175781 C 463.085938 90.75 460.222656 94.121094 456.835938 97.398438 C 457.519531 94.265625 459.878906 91.839844 460.453125 88.707031 C 460.136719 88.296875 444.289063 86.132813 437.242188 87.898438 C 440.914063 90.03125 445.113281 92.570313 448.996094 94.90625 C 446.960938 98.058594 444.421875 102.464844 440.484375 103.5625 C 439.933594 101.386719 445.398438 98.082031 441.828125 95.738281 C 436.890625 92.585938 432.15625 88.90625 427.824219 84.289063 C 429.691406 84.054688 432.21875 85.890625 434.617188 86.480469 Z M 428.390625 94.789063 C 424.273438 97.96875 418.96875 98.046875 414.203125 99.46875 C 415.835938 97.257813 418.425781 96.285156 419.738281 93.769531 C 416.394531 92.777344 413.425781 88.867188 409.917969 90.894531 C 407.757813 92.589844 405.277344 93.769531 402.902344 95.15625 C 404.953125 92.839844 406.804688 91.5625 408.433594 89.042969 C 401.222656 86.753906 392.894531 86.457031 385.199219 86.777344 C 387.21875 89.867188 397.457031 92.632813 391.261719 96.054688 C 389.511719 97.222656 388.09375 100.050781 386.109375 99.5625 C 394.039063 93.621094 381.644531 92.964844 379.214844 90.296875 C 376.9375 91.265625 374.878906 92.648438 372.925781 94.445313 C 373.304688 91.839844 374.625 89.53125 375.421875 86.917969 C 367.644531 81.828125 359.863281 76.113281 352.707031 70.386719 C 361.191406 74.21875 370.175781 76.796875 377.957031 82.40625 C 396.171875 82.976563 414.070313 83.132813 428.390625 94.789063 Z M 345.480469 88.910156 C 342.382813 90.410156 338.871094 92.335938 337.359375 95.6875 C 338.027344 91.410156 335.871094 86.445313 336.011719 81.554688 C 331.953125 81.507813 328.355469 84.578125 324.417969 85.78125 C 319.578125 82.207031 326.1875 78.679688 327.699219 75.222656 C 335.734375 76.875 343.671875 78.945313 351.410156 81.644531 C 351.433594 83.203125 349.570313 83.753906 349.171875 85.109375 C 354.207031 87.847656 359.4375 89.75 364.269531 93.113281 C 360.660156 95.246094 358.367188 95.070313 354.972656 97.722656 C 353.496094 96.390625 355.355469 95.21875 356.375 93.957031 C 352.910156 91.820313 349.046875 90.835938 345.480469 88.910156 Z M 380.714844 64.367188 C 380.414063 65.304688 379.300781 67.507813 378.175781 68.875 C 370.042969 67.535156 378.757813 65.953125 380.714844 64.367188 Z M 365 64.28125 C 364.585938 64.390625 363.339844 64.40625 362.707031 63.898438 C 367.234375 60.605469 372.089844 58.144531 376.839844 55.472656 C 373.25 59.164063 368.492188 61.210938 365 64.28125 Z M 350.699219 61.050781 C 360.460938 49.855469 365.4375 51.265625 373.394531 47.613281 C 365.867188 52.199219 357.378906 55.234375 350.699219 61.050781 Z M 366.882813 43.234375 C 358.632813 48.554688 350.0625 53.152344 342.035156 59.304688 C 340.574219 59.011719 339.011719 58.621094 337.546875 58.226563 C 346.726563 52.683594 356.851563 47.644531 366.882813 43.234375 Z M 331.34375 68.09375 C 330.113281 69.570313 328.054688 70.847656 326.511719 72.328125 C 317.441406 71 308.652344 67.589844 299.09375 68.558594 C 303.824219 71.925781 309.507813 76.421875 312.785156 80.015625 C 309.355469 80.378906 305.304688 80.851563 302.292969 81.207031 C 303.515625 86.496094 308.15625 91.007813 310.726563 96.070313 C 307.542969 98.820313 302.875 99.929688 298.839844 101.546875 C 301.5 98.386719 303.980469 97.101563 306.640625 93.945313 C 304.296875 90.230469 300.09375 87.484375 297.441406 83.984375 C 299.695313 81.351563 303.109375 80.15625 305.566406 77.414063 C 299.882813 72.816406 293.296875 70.621094 287.109375 67.277344 C 288.152344 65.980469 288.121094 65.285156 288.523438 64.238281 C 303.296875 64.335938 318.449219 61.414063 331.34375 68.09375 Z M 254.125 38.511719 C 250.230469 42.523438 245.0625 44.992188 240.746094 48.800781 C 239.695313 47.980469 238.046875 48.941406 236.992188 48.125 C 242.453125 44.40625 248.449219 41.71875 254.125 38.511719 Z M 235.859375 20.046875 C 233.148438 26.953125 230.972656 34.683594 229.09375 41.476563 C 234.957031 36.917969 240.59375 30.90625 246.035156 25.832031 C 240.726563 32.878906 234.578125 39.523438 228.746094 46.371094 C 228.574219 48.871094 225.730469 46.3125 223.867188 47.171875 C 227.167969 37.863281 231.722656 28.953125 235.859375 20.046875 Z M 100.488281 84.949219 C 95.464844 83.046875 90.507813 78.4375 85.371094 75.804688 C 75.355469 81.152344 90.851563 87.796875 91.167969 88 C 86.851563 91.808594 81.179688 95.425781 75.484375 97.277344 C 69.996094 91.945313 83.972656 90.171875 84.703125 87.050781 C 80.929688 85.335938 74.578125 77.625 71.570313 85.679688 C 71.539063 83.390625 73.179688 81.703125 73.039063 79.3125 C 68.640625 77.085938 64.234375 74.757813 59.429688 73.472656 C 61.996094 78.324219 62.824219 85.285156 61.976563 91.4375 C 61.851563 82.804688 56.335938 75.390625 51.136719 68.390625 C 61.9375 66.984375 91.515625 57.917969 100.488281 84.949219 Z M 38.167969 78.359375 C 48.855469 83.929688 43.332031 96.074219 39.492188 95.894531 C 17.324219 101.277344 23.886719 71.703125 38.167969 78.359375 Z M 383.222656 137.375 C 377.902344 136.304688 372.257813 134.617188 367.953125 139.15625 C 371.105469 141.191406 374.554688 142.285156 377.703125 144.214844 C 370.9375 144.105469 362.308594 137.363281 357.125 145.96875 C 356.921875 146.285156 356.71875 146.496094 356.410156 146.8125 C 360.285156 148.628906 364.265625 150.445313 368.140625 152.261719 C 362.816406 151.089844 357.398438 150.441406 352.378906 148.742188 C 351.039063 149.699219 349.703125 150.757813 348.257813 151.40625 C 353.1875 154.351563 359.046875 156.554688 364.089844 159.8125 C 356.679688 158.359375 349.445313 154.40625 342.265625 154.507813 C 341.644531 154.828125 341.132813 155.253906 340.40625 155.574219 C 345.769531 159.453125 352.0625 162.691406 357.835938 166.25 C 354.476563 166.773438 342.15625 161.273438 334.113281 159.101563 C 339.433594 152.988281 365.273438 132.046875 385.414063 130.578125 C 383.144531 132.066406 379.300781 132.332031 378.398438 134.84375 C 379.972656 135.652344 381.851563 136.039063 383.222656 137.375 Z M 379.015625 126.925781 C 352.296875 135.84375 308.527344 174.183594 199.921875 176.019531 C 190.945313 174.066406 182.980469 170.125 174.710938 166.601563 C 142.492188 162.175781 34.550781 133.957031 9.230469 98.960938 C 12.03125 98.503906 14.339844 99.71875 17.140625 99.261719 C 18.414063 101.117188 18.242188 103.515625 19.828125 105.15625 C 25.925781 95.183594 15.210938 88.054688 11.246094 80.203125 C 15.28125 78.480469 19.425781 77.273438 23.890625 76.691406 C 20.949219 82.039063 19.828125 105.15625 42.207031 98.484375 C 47.296875 96.675781 54.582031 78.46875 35.5 73.507813 C 42.355469 73.265625 47.824219 69.582031 50.109375 76.625 C 53.921875 81.042969 57.441406 97.453125 45.6875 108.945313 C 56.660156 109.941406 63.460938 100.46875 65.09375 98.15625 C 74.546875 111.648438 93.855469 86.789063 97.863281 90.605469 C 99.152344 107.859375 89.765625 120.792969 77.558594 132.832031 C 97.238281 129.449219 106.390625 97.457031 106.566406 95.269531 C 108.5625 103.875 109.425781 113.019531 109.25 122.59375 C 130.664063 121.039063 150.070313 110.457031 168.4375 99.683594 C 160.441406 90.433594 123.871094 90.128906 106.492188 90.066406 C 105.410156 79.988281 99.21875 69.152344 89.269531 64.511719 C 96.722656 61.90625 102.238281 69.214844 107.398438 73.613281 C 110.828125 73.253906 114.144531 72.476563 117.894531 72.628906 C 118.984375 68.867188 117.660156 63.683594 114.296875 61.132813 C 122.464844 62.859375 119.859375 71.769531 121.953125 72.570313 C 125.28125 72.628906 128.710938 72.265625 131.738281 72.847656 C 132.617188 68.878906 131.816406 64 129.269531 60.5 C 133.464844 62.9375 135.40625 67.488281 135.058594 72.382813 C 138.082031 72.652344 140.898438 73.339844 144.121094 73.085938 C 146.96875 68.464844 147.832031 63.457031 146.089844 58.070313 C 152.378906 62.601563 147.511719 70.019531 146.722656 73.046875 C 151.339844 74.304688 150.816406 74.046875 156.019531 74.046875 C 156.796875 70.078125 158.277344 59.039063 157.28125 54.894531 C 159.484375 56.214844 161.914063 58.570313 160.078125 61.199219 C 163.5625 69.882813 159.8125 71.714844 159.132813 75.054688 C 163.113281 76.765625 167.390625 77.535156 171.566406 78.617188 C 173.394531 75.574219 175.949219 72.210938 175.890625 68.046875 C 174.726563 66.710938 173.363281 66.210938 172.101563 65.1875 C 172.378906 62.792969 173.078125 60.597656 172.726563 58 C 171.367188 57.394531 170.40625 55.953125 168.945313 55.453125 C 170.078125 54.605469 187.296875 58.101563 192.96875 61.871094 C 210.898438 57.035156 231.261719 54.660156 249.933594 58.03125 C 262.097656 57.230469 276.765625 57.019531 289.277344 58.921875 C 289.394531 59.753906 288.679688 60.800781 287.757813 61.648438 C 278.382813 60.949219 268.589844 60.261719 258.929688 61.230469 C 263.015625 63.253906 267.402344 64.335938 270.984375 67.507813 C 269.769531 69.710938 267.066406 70.0625 265.109375 71.339844 C 270.972656 73.960938 276.644531 77.519531 282.414063 80.765625 C 281.195313 82.863281 278.726563 84.773438 277.292969 86.460938 C 280.597656 91.820313 285.863281 96.21875 288.027344 102.015625 C 284.421875 104.566406 279.308594 103.703125 274.953125 104.492188 C 277.105469 102.277344 280.097656 100.464844 281.519531 98.050781 C 278.152344 95.707031 274.992188 92.839844 271.730469 90.285156 C 272.941406 87.875 275.308594 85.96875 276.519531 83.453125 C 270.007813 79.28125 262.382813 77.101563 255.789063 74.386719 C 256.695313 72.398438 259.589844 71.105469 259.765625 68.710938 C 254.84375 66.699219 249.402344 64.59375 243.996094 64.878906 C 244.277344 62.691406 250.042969 58.445313 243.910156 58.847656 C 238.699219 58.402344 232.667969 58.488281 227.472656 59.085938 C 230.429688 61.953125 225.566406 63.898438 224.867188 65.886719 C 229.605469 69.976563 236.800781 70.8125 239.695313 76.90625 C 238.792969 79.105469 236.300781 79.660156 235.289063 81.445313 C 244.070313 84.441406 253.859375 85.027344 261.238281 91.582031 C 259.199219 94.417969 257.273438 95.855469 254.597656 97.972656 C 256.207031 101.28125 257.253906 103.707031 259.171875 107.011719 C 255.769531 109.035156 252.363281 111.0625 248.421875 111.953125 C 250.578125 110.046875 252.742188 108.558594 254.6875 106.242188 C 253.820313 103.863281 251.714844 102.019531 250.84375 99.640625 C 252.472656 96.910156 254.832031 94.691406 255.621094 91.660156 C 248.824219 89.472656 241.816406 86.972656 234.535156 87.074219 C 236.476563 91.625 249.683594 98.300781 239.320313 101.261719 C 237.871094 101.90625 236.632813 102.550781 235.183594 103.195313 C 235.984375 100.894531 238.773438 99.398438 238.839844 96.792969 C 235.359375 93.515625 231.476563 91.386719 227.894531 88.316406 C 230.34375 84.847656 234.777344 82.078125 235.234375 77.699219 C 230.613281 74.855469 225.59375 73.054688 220.871094 70.414063 C 213.925781 79.152344 221.121094 66.042969 221.925781 64.054688 C 212.460938 58.960938 202.65625 62.5625 200.902344 63.628906 C 204.578125 65.96875 209.828125 69.429688 210.421875 74.3125 C 208.273438 77.050781 204.296875 75.234375 201.828125 77.453125 C 203.445313 81.175781 205.054688 84.691406 206.152344 88.628906 C 203.769531 89.289063 201.703125 90.460938 199.003906 90.605469 C 200.535156 88.605469 203.945313 86.996094 202.34375 84.210938 C 200.859375 82.359375 199.066406 80.71875 198.101563 78.652344 C 200.878906 76.324219 204.386719 74.296875 206.214844 71.355469 C 203.5625 67.648438 198.75 65.949219 194.867188 63.714844 C 193.445313 66.027344 191.304688 69.074219 188.625 70.882813 C 189.628906 68.265625 193.015625 65.09375 190.058594 62.222656 C 185.757813 59.789063 180.554688 59.65625 175.75 58.371094 C 173.457031 65.273438 182.058594 70.246094 177.164063 77.082031 C 179.285156 79.757813 181.078125 81.605469 183.613281 84.0625 C 185.226563 87.890625 178.40625 98.394531 187.507813 94.515625 C 194.855469 98.78125 204.945313 98.636719 213.015625 95.605469 C 216.695313 98.15625 221.027344 95.492188 225.304688 96.261719 C 223.488281 100.34375 221.785156 104.738281 219.550781 108.621094 C 225.410156 110.722656 233.628906 110.8125 240.515625 112.066406 C 239.402344 114.265625 237.765625 116.269531 236.863281 118.570313 C 238.726563 117.917969 240.4375 121.222656 241.753906 118.5 C 254.671875 119.664063 267.023438 110.332031 278.046875 117.144531 C 292.121094 111.945313 308.671875 112.332031 320.601563 102.378906 C 327.96875 93.949219 324.835938 107.519531 327.058594 110.089844 C 330.890625 108.992188 335.015625 106.332031 338.617188 103.574219 C 339.460938 104.394531 342.101563 106.960938 343.472656 108.394531 C 353.660156 107.625 362.984375 104.992188 373.066406 104.222656 C 379.621094 115.226563 421.042969 104.675781 432.261719 103.371094 C 442.5625 117.894531 457.558594 104.148438 469.289063 102.417969 C 470.707031 114.15625 466.699219 124.933594 459.226563 133.261719 C 434.0625 127.171875 406.503906 121.222656 379.015625 126.925781 Z M 115.847656 110.949219 C 114.992188 109.609375 115.902344 107.722656 114.949219 106.386719 C 121.589844 105.144531 129.394531 105.34375 136.371094 105.765625 C 129.53125 107.421875 122.472656 108.667969 115.847656 110.949219 Z M 128.984375 112.945313 C 124.949219 114.460938 120.480469 114.835938 116.226563 115.730469 C 116.214844 114.792969 116.199219 113.859375 116.183594 112.820313 C 120.652344 112.234375 124.414063 113.53125 128.984375 112.945313 Z M 113.832031 101.199219 C 113.09375 100.378906 113.488281 99.121094 112.957031 98.195313 C 123.230469 96.277344 134.679688 96.527344 145.617188 97.410156 C 135.019531 98.605469 124.324219 99.902344 113.832031 101.199219 Z M 469.019531 134.261719 C 469.640625 134.046875 469.316406 133.21875 469.3125 132.800781 C 483.367188 140.507813 497.714844 146.960938 512.664063 152.050781 C 497.027344 149.988281 482.765625 142.179688 469.019531 134.261719 Z M 514.820313 142.65625 C 500.40625 138.804688 486.492188 133.804688 473.789063 125.972656 C 466.0625 138.363281 474.261719 122.535156 474.023438 120.351563 C 478.285156 105.722656 473.609375 91.742188 470.082031 78.058594 C 488.101563 64.898438 509.132813 58.453125 530.808594 53.566406 C 510.378906 58.230469 491.792969 68.277344 474.171875 80.289063 C 481.960938 79.136719 496.753906 69.621094 513.769531 69.9375 C 499.78125 73.78125 486.328125 78.867188 473.945313 86.222656 C 474.070313 87.679688 475.128906 88.808594 475.871094 89.941406 C 484.058594 87.429688 491.753906 87.113281 500.90625 86.980469 C 492.929688 89.28125 484.742188 91.6875 477.410156 95.539063 C 477.011719 96.691406 478.167969 97.503906 479.003906 97.804688 C 484.222656 98.976563 489.644531 99.628906 494.765625 101.324219 C 489.453125 100.984375 484.453125 100.640625 479.046875 100.824219 C 478.34375 102.601563 478.808594 105.820313 478.738281 108.320313 C 482.824219 110.234375 487.507813 110.378906 491.488281 112.191406 C 487.421875 111.523438 483.25 110.855469 479.183594 110.183594 C 478.0625 111.867188 478.40625 114.148438 477.390625 115.828125 C 484.632813 120.09375 493.503906 122.046875 501.867188 124.839844 C 494.496094 125.988281 484.957031 121.027344 477.40625 116.972656 C 475.882813 119.390625 475.929688 122.613281 474.085938 124.824219 C 487.296875 131.605469 500.605469 138.28125 514.820313 142.65625 "/>
<path style=" stroke:none;fill-rule:nonzero;fill:rgb(0%,0%,0%);fill-opacity:1;" d="M 31.617188 93.019531 C 39.492188 96.414063 43.914063 88.609375 40.863281 84.664063 C 37.472656 87.628906 37.824219 83.355469 36.753906 81.289063 C 26.488281 77.945313 25.96875 91.472656 31.617188 93.019531 "/>
</g>
</svg>
