<?xml version="1.0" encoding="UTF-8"?>
<svg xmlns="http://www.w3.org/2000/svg" xmlns:xlink="http://www.w3.org/1999/xlink" width="545pt" height="398pt" viewBox="0 0 545 398" version="1.1">
<g id="surface1">
<path style=" stroke:none;fill-rule:nonzero;fill:rgb(0%,0%,0%);fill-opacity:1;" d="M 466 0.96875 C 464.394531 -0.582031 461.859375 1.328125 462.824219 3.445313 C 492.503906 53.8125 483.914063 99.128906 476.554688 116.871094 C 459.457031 117.898438 348.527344 96.703125 307.15625 77.554688 C 307.070313 77.515625 306.984375 77.476563 306.898438 77.433594 C 299.476563 73.53125 297.835938 74.351563 298.632813 81.863281 C 300.371094 98.222656 316.894531 136.980469 334.847656 157.648438 C 370.625 167.535156 485.941406 177.425781 544.507813 140.070313 C 546.519531 136.796875 531.304688 58.949219 466 0.96875 "/>
<path style=" stroke:none;fill-rule:nonzero;fill:rgb(0%,0%,0%);fill-opacity:1;" d="M 235.289063 152.203125 C 245.859375 129.4375 257.355469 107.335938 263.910156 82.753906 C 264.523438 80.609375 265.160156 75.3125 262.125 76.101563 C 198.351563 102.851563 132.117188 121.578125 61.289063 126.328125 C 58.539063 84.953125 65.140625 41.703125 80.433594 4.671875 C 80.582031 3.410156 79.367188 2.722656 78.3125 3.699219 C 45.925781 48.800781 23.777344 99.121094 0.34375 148.636719 C 0.839844 159.628906 223.089844 188.609375 235.289063 152.203125 "/>
<path style=" stroke:none;fill-rule:nonzero;fill:rgb(0%,0%,0%);fill-opacity:1;" d="M 294.402344 89.78125 C 293.875 87.953125 293.371094 86.316406 292.890625 84.851563 C 286.027344 63.925781 285.09375 78.660156 285.421875 85.785156 C 285.449219 85.914063 285.578125 95.863281 285.660156 107.332031 C 286.078125 164.4375 287.117188 319.152344 286.703125 394.722656 C 287.308594 398.828125 290.039063 398.015625 290.324219 392.699219 C 294.65625 315.261719 300.957031 234.117188 324.121094 162.703125 C 311.449219 139.402344 303.851563 114.34375 294.402344 89.78125 "/>
<path style=" stroke:none;fill-rule:nonzero;fill:rgb(0%,0%,0%);fill-opacity:1;" d="M 278.023438 76.546875 C 277.5625 72.097656 274.429688 73.90625 272.414063 78.386719 C 261.859375 119.511719 249.449219 134.257813 238.117188 163.765625 C 260.386719 233.578125 279.792969 391.058594 280.574219 394.914063 C 281.167969 397.832031 284.332031 397.832031 284.554688 395.628906 C 284.945313 382.921875 279.464844 170.980469 278.242188 79.511719 C 278.191406 78.34375 278.203125 77.644531 278.023438 76.546875 "/>
<path style=" stroke:none;fill-rule:nonzero;fill:rgb(0%,0%,0%);fill-opacity:1;" d="M 334.382813 174.808594 C 313.84375 198.453125 300.132813 307.753906 293.355469 392.261719 C 292.714844 396.1875 295.390625 397.175781 296.601563 392.730469 C 300.460938 381.140625 303.980469 369.242188 311.15625 359.246094 C 302.40625 316.238281 336.976563 263.570313 367.730469 229.523438 C 368.058594 229.3125 368.160156 228.753906 367.804688 228.3125 C 354.394531 211.273438 341.851563 193.921875 334.382813 174.808594 "/>
<path style=" stroke:none;fill-rule:nonzero;fill:rgb(0%,0%,0%);fill-opacity:1;" d="M 229.921875 177.21875 C 219.957031 197.839844 209.644531 212.375 196.71875 227.96875 C 195.875 228.6875 195.875 229.625 196.585938 230.144531 C 215.429688 251.628906 266.226563 325.828125 255.730469 358.515625 C 268.195313 371.164063 271.847656 390.4375 272.808594 393.933594 C 274.007813 397.210938 277.09375 397.257813 276.78125 393.832031 C 268.164063 324.832031 246.664063 193.878906 229.921875 177.21875 "/>
</g>
</svg>
