<?xml version="1.0" encoding="UTF-8"?>
<svg xmlns="http://www.w3.org/2000/svg" xmlns:xlink="http://www.w3.org/1999/xlink" width="539pt" height="270pt" viewBox="0 0 539 270" version="1.1">
<g id="surface1">
<path style=" stroke:none;fill-rule:nonzero;fill:rgb(0%,0%,0%);fill-opacity:1;" d="M 534.054688 104.140625 C 533.089844 98.328125 526.3125 97.242188 525.828125 91.070313 C 516.871094 83.085938 511.066406 72.921875 500.902344 64.933594 C 485.535156 64.449219 471.136719 68.5625 457.339844 73.28125 C 451.351563 63.863281 436.046875 55.496094 429.992188 51.503906 C 422.613281 52.714844 418.621094 45.816406 411.238281 47.148438 C 406.519531 42.789063 400.226563 42.066406 395.144531 38.796875 C 386.675781 41.21875 383.410156 31.417969 376.390625 30.570313 C 372.035156 31.902344 367.800781 32.144531 364.171875 28.875 C 356.425781 29.601563 350.253906 26.335938 344.085938 23.1875 C 336.460938 22.34375 329.683594 20.042969 323.269531 16.65625 C 317.222656 19.800781 312.382813 14.960938 307.539063 12.660156 C 299.3125 16.898438 293.625 6.976563 284.429688 9.273438 C 278.984375 2.015625 268.820313 6.613281 262.648438 0.925781 C 244.378906 10.726563 189.382813 35.832031 130.273438 113.820313 C 104.074219 118.71875 31.476563 164.699219 1.285156 176.011719 C -3.433594 181.214844 6.007813 180.492188 8.667969 181.699219 C 9.636719 179.160156 10.484375 175.894531 11.328125 173.835938 C 17.761719 170.75 18.164063 187.285156 10.84375 189.566406 C 16.289063 182.425781 5.28125 185.089844 2.132813 183.878906 C -2 194.144531 54.285156 225.382813 83.203125 231.433594 C 119.261719 252.726563 163.789063 252.484375 206.019531 248.371094 C 226.226563 251.277344 249.21875 252.363281 268.820313 247.527344 C 278.5 246.800781 287.9375 250.792969 297.136719 247.527344 C 295.320313 243.53125 280.074219 239.902344 291.8125 235.789063 C 281.769531 234.335938 272.089844 235.667969 263.980469 229.617188 C 259.503906 229.738281 253.453125 229.617188 249.21875 230.949219 C 256.71875 235.789063 265.554688 237.359375 274.023438 239.660156 C 258.292969 244.257813 248.128906 226.714844 233.972656 232.640625 C 236.753906 235.0625 241.210938 238.511719 252.605469 240.992188 C 243.289063 242.441406 235.785156 237.117188 227.800781 233.972656 C 224.777344 235.789063 219.816406 235.789063 218.242188 237.964844 C 222.839844 242.324219 229.859375 241.597656 234.820313 244.5 C 227.316406 245.105469 219.332031 243.289063 213.886719 238.328125 C 225.863281 229.253906 241.230469 227.195313 256.597656 227.921875 C 284.066406 231.433594 308.871094 221.871094 335.007813 220.90625 C 353.644531 222.113281 369.855469 217.273438 387.644531 216.546875 C 416.925781 243.410156 451.894531 255.875 486.621094 269.304688 C 490.980469 270.152344 493.277344 263.859375 495.335938 260.59375 C 497.875 258.414063 502.230469 256.480469 502.714844 252.726563 C 509.25 249.582031 505.863281 241.476563 511.429688 237.480469 C 510.945313 228.285156 521.835938 222.234375 516.632813 212.675781 C 517.480469 201.179688 521.59375 191.140625 523.164063 180.007813 C 528.609375 174.320313 526.914063 165.246094 529.699219 159.074219 C 534.902344 156.410156 530.789063 149.996094 534.539063 146.851563 C 535.144531 137.292969 538.410156 128.824219 538.410156 119.023438 C 536.113281 114.425781 539.742188 107.890625 534.054688 104.140625 Z M 295.804688 21.375 C 283.582031 32.628906 268.699219 37.347656 255.753906 46.664063 C 237.117188 58.398438 219.816406 74.128906 203.480469 90.222656 C 229.132813 60.578125 262.164063 37.46875 295.804688 21.375 Z M 61.90625 180.007813 C 52.851563 200.191406 28.25 190.914063 32.261719 174.804688 C 52.449219 214.308594 75.035156 153.808594 36.980469 165.605469 C 44.382813 154.210938 68.582031 162.683594 61.90625 180.007813 Z M 46.179688 172.625 C 56.886719 170.75 50.433594 191.320313 40.976563 180.371094 C 50.433594 178.816406 46.179688 172.988281 46.179688 172.625 Z M 118.535156 219.574219 C 120.59375 220.421875 122.652344 224.414063 125.433594 226.59375 C 122.773438 225.140625 113.574219 223.808594 118.535156 219.574219 Z M 141.164063 237.480469 C 137.414063 240.386719 133.78125 244.5 128.460938 242.324219 C 124.828125 239.296875 121.804688 235.667969 119.382813 231.433594 C 125.675781 230.222656 129.304688 246.4375 136.808594 237.964844 C 141.890625 230.34375 142.375 220.90625 143.703125 211.828125 C 138.261719 205.539063 141.40625 196.945313 141.164063 189.082031 C 144.429688 181.335938 133.902344 178.070313 133.300781 171.292969 C 130.03125 168.632813 126.160156 167.664063 122.894531 165.121094 C 118.898438 166.335938 116.480469 171.292969 112.851563 172.988281 C 111.035156 176.980469 109.339844 180.851563 107.648438 184.726563 C 108.492188 185.933594 109.703125 186.175781 110.671875 186.902344 C 114.785156 183.878906 118.054688 179.160156 122.410156 176.496094 C 121.199219 182.0625 109.703125 188.476563 118.898438 193.074219 C 121.5625 191.378906 123.980469 189.324219 126.765625 188.234375 C 125.3125 190.050781 122.773438 193.195313 120.714844 195.617188 C 123.496094 197.671875 126.765625 195.617188 129.789063 195.617188 C 128.941406 197.429688 122.652344 197.429688 123.257813 200.941406 C 125.191406 203.117188 129.425781 203.117188 130.273438 204.8125 C 127.613281 205.296875 122.410156 204.933594 124.585938 208.683594 C 127.25 211.46875 128.941406 214.492188 131.121094 217.394531 C 127.855469 216.1875 122.652344 211.226563 120.714844 215.21875 C 123.980469 208.078125 122.289063 200.214844 117.207031 194.40625 C 113.453125 190.898438 109.339844 188.71875 104.5 187.871094 C 107.164063 181.214844 109.097656 172.746094 116.359375 169.480469 C 117.933594 167.664063 118.175781 164.398438 121.078125 163.914063 C 126.886719 162.824219 131.363281 167.542969 135.960938 170.808594 C 140.800781 178.070313 144.914063 185.816406 143.703125 195.617188 C 142.375 201.058594 144.308594 206.386719 145.519531 211.34375 C 144.066406 220.058594 145.035156 229.859375 141.164063 237.480469 Z M 163.789063 162.945313 C 161.25 166.210938 157.378906 168.269531 154.230469 170.808594 C 154.472656 168.753906 171.03125 154.210938 142.496094 137.777344 C 160.140625 138.078125 164.273438 158.710938 163.789063 162.945313 Z M 204.328125 225.746094 C 222.253906 209.46875 200.472656 209.46875 204.328125 202.632813 C 230.320313 213.097656 205.054688 225.988281 204.328125 225.746094 Z M 371.1875 180.371094 C 376.269531 177.34375 372.277344 171.65625 372.882813 167.300781 C 369.734375 166.089844 366.710938 164.277344 363.324219 163.429688 C 364.53125 169.359375 358.726563 170.085938 354.972656 173.472656 C 358.121094 178.675781 363.445313 183.636719 360.660156 190.898438 C 356.789063 192.105469 353.039063 197.671875 348.921875 194.40625 C 352.433594 190.65625 359.089844 188.960938 357.636719 182.546875 C 356.183594 179.523438 354.003906 176.859375 352.433594 173.835938 C 353.882813 171.414063 357.152344 171.050781 358.96875 168.269531 C 362.476563 160.523438 353.039063 158.46875 351.949219 153.386719 C 359.089844 157.863281 366.832031 160.523438 374.574219 163.429688 C 375.785156 168.390625 375.785156 173.835938 376.390625 179.160156 C 375.179688 179.28125 371.914063 180.730469 371.1875 180.371094 Z M 377.238281 125.070313 C 372.761719 129.429688 367.921875 132.9375 363.324219 136.808594 C 360.296875 135.597656 357.515625 134.511719 354.609375 133.421875 C 351.949219 134.632813 349.40625 135.960938 346.746094 137.292969 C 342.027344 134.269531 337.671875 131.847656 332.828125 135.960938 C 330.410156 134.027344 327.628906 133.058594 324.964844 131.605469 C 321.09375 132.695313 316.617188 137.050781 312.742188 132.9375 C 310.203125 132.332031 308.023438 128.460938 305.363281 131.242188 C 304.03125 138.746094 305.96875 146.003906 305.363281 153.871094 C 297.136719 157.863281 306.332031 163.550781 307.058594 168.269531 C 306.9375 173.714844 307.421875 181.457031 306.695313 187.871094 C 302.578125 190.292969 298.222656 191.621094 293.988281 193.921875 C 293.140625 192.46875 291.933594 191.140625 291.8125 189.566406 C 295.320313 187.871094 298.828125 186.054688 302.339844 184.363281 C 304.03125 179.28125 302.578125 172.988281 303.667969 167.785156 C 302.097656 164.277344 297.738281 162.097656 296.167969 158.589844 C 306.453125 154.597656 300.402344 140.195313 301.492188 133.785156 C 298.949219 132.210938 296.53125 130.636719 293.988281 129.066406 C 290.480469 129.066406 286.367188 133.300781 283.582031 129.910156 C 278.378906 128.460938 274.386719 117.449219 268.335938 124.710938 C 272.210938 130.273438 278.742188 134.992188 276.203125 143.34375 C 279.953125 146.367188 283.703125 149.152344 287.453125 152.054688 C 287.335938 159.679688 291.328125 167.785156 284.914063 172.625 C 283.703125 173.714844 282.613281 172.261719 281.40625 172.140625 C 287.816406 168.753906 283.703125 160.28125 284.914063 154.234375 C 281.890625 152.902344 279.710938 149.636719 276.5625 148.667969 C 275.839844 154.960938 263.859375 160.523438 263.496094 160.765625 C 266.160156 164.277344 268.820313 167.785156 271.363281 171.292969 C 270.878906 176.617188 262.648438 189.445313 259.140625 190.414063 C 263.394531 186.480469 265.3125 177.707031 268.335938 171.292969 C 265.433594 167.664063 263.011719 163.914063 259.625 160.402344 C 263.011719 157.015625 267.851563 155.320313 271.847656 152.054688 C 272.691406 145.519531 271.964844 141.890625 271.847656 135.113281 C 267.128906 129.550781 261.4375 124.226563 255.753906 120.351563 C 248.613281 128.460938 243.167969 111.882813 236.511719 120.351563 C 232.519531 120.835938 229.375 113.941406 225.621094 119.023438 C 233.367188 124.949219 242.5625 129.789063 250.910156 135.113281 C 251.273438 140.921875 252.121094 144.796875 251.757813 150.84375 C 248.492188 153.75 244.136719 155.925781 240.023438 157.742188 C 241.714844 155.683594 246.070313 153.75 249.21875 151.691406 C 249.339844 146.609375 248.976563 141.042969 247.886719 135.960938 C 241.351563 131.96875 234.699219 128.21875 227.800781 125.070313 C 226.953125 129.066406 227.921875 133.300781 228.285156 137.292969 C 225.742188 139.230469 224.292969 142.132813 222.113281 143.828125 C 227.558594 151.570313 225.503906 161.976563 224.777344 171.292969 C 221.75 173.351563 217.515625 172.625 213.886719 173.472656 C 214.976563 172.625 219.210938 170.207031 221.75 168.269531 C 221.992188 160.402344 225.742188 150.722656 216.910156 145.519531 C 219.089844 142.496094 222.839844 139.472656 225.621094 136.445313 C 225.382813 130.757813 224.535156 125.3125 222.597656 120.351563 C 216.0625 121.441406 210.015625 110.671875 203.84375 117.691406 C 196.582031 118.902344 188.113281 109.101563 182.910156 119.386719 C 179.886719 119.507813 176.132813 115.148438 173.835938 119.867188 C 177.464844 124.589844 183.515625 129.066406 185.570313 134.632813 C 191.5 138.503906 198.035156 140.921875 203.84375 144.675781 C 202.632813 151.933594 209.289063 163.550781 197.792969 165.605469 C 204.570313 160.644531 201.179688 153.386719 200.816406 146.488281 C 196.824219 143.101563 191.5 142.738281 187.265625 139.953125 C 185.570313 143.585938 187.023438 146.972656 186.417969 151.207031 C 183.515625 152.539063 180.851563 154.71875 178.191406 156.410156 C 189.808594 160.160156 183.03125 174.078125 185.570313 181.335938 C 181.578125 185.089844 176.738281 187.023438 172.988281 191.261719 C 175.164063 194.40625 177.585938 197.671875 179.886719 200.941406 C 180.246094 205.78125 171.535156 219.453125 167.664063 221.753906 C 169.015625 215.117188 174.921875 208.441406 176.859375 201.300781 C 173.59375 197.792969 172.261719 193.679688 168.632813 190.414063 C 172.988281 187.386719 177.34375 184.363281 181.699219 181.335938 C 182.425781 176.253906 185.953125 159.859375 172.503906 157.378906 C 175.527344 154.476563 179.765625 152.417969 183.394531 149.878906 C 183.878906 143.101563 184.339844 120.734375 150.722656 120.351563 C 149.148438 122.773438 146.125 124.710938 144.671875 127.25 C 142.375 127.128906 140.558594 125.796875 138.503906 125.070313 C 136.566406 127.007813 135.597656 129.429688 134.144531 131.605469 C 131.363281 131.484375 129.183594 130.03125 126.28125 129.910156 C 118.777344 137.171875 117.933594 147.820313 113.695313 156.894531 C 107.648438 158.953125 106.074219 166.335938 101.960938 170.449219 C 96.757813 171.535156 86.230469 167.179688 87.558594 176.496094 C 92.402344 184.726563 97.121094 193.074219 101.960938 201.300781 C 99.539063 205.417969 95.183594 208.5625 91.433594 211.34375 C 94.457031 207.714844 96.152344 203.722656 98.933594 199.972656 C 94.941406 193.4375 91.070313 186.902344 87.078125 180.371094 C 85.140625 183.273438 83.6875 187.144531 81.875 190.414063 C 77.277344 189.808594 72.796875 189.203125 68.441406 188.234375 C 72.917969 184.484375 83.929688 187.871094 84.050781 178.675781 C 85.867188 173.714844 87.078125 168.027344 88.40625 163.429688 C 92.160156 163.914063 96.757813 164.277344 101.113281 164.761719 C 106.195313 160.160156 104.378906 148.910156 113.695313 149.878906 C 114.664063 145.761719 117.207031 142.253906 118.054688 138.140625 C 114.421875 137.050781 108.976563 136.445313 105.832031 138.140625 C 103.894531 140.679688 102.203125 144.914063 97.964844 143.828125 C 95.304688 146.609375 94.578125 150.359375 92.402344 153.386719 C 88.769531 153.992188 84.898438 153.992188 81.511719 154.71875 C 78.96875 157.863281 77.878906 162.460938 74.007813 164.277344 C 70.378906 162.824219 66.265625 161.25 63.601563 158.226563 C 67.230469 157.984375 70.257813 160.402344 73.644531 159.558594 C 75.582031 156.652344 76.671875 153.023438 78.363281 150.359375 C 81.875 150.84375 85.382813 151.207031 88.890625 151.691406 C 92.039063 147.457031 90.464844 136.566406 100.144531 140.800781 C 103.289063 138.261719 103.894531 129.066406 110.1875 133.785156 C 113.695313 133.058594 119.019531 137.65625 120.230469 132.453125 C 121.078125 130.273438 121.925781 128.097656 122.894531 125.917969 C 125.191406 127.613281 128.339844 127.855469 130.636719 129.429688 C 133.179688 126.886719 135.113281 123.621094 136.808594 120.351563 C 139.226563 121.5625 141.648438 122.894531 144.1875 124.226563 C 149.632813 108.617188 165.484375 127.613281 173.351563 114.664063 C 176.375 114.546875 178.554688 116.480469 181.699219 116.359375 C 184.121094 114.664063 186.539063 112.851563 189.082031 111.15625 C 198.277344 121.925781 209.410156 104.984375 218.242188 116.84375 C 224.171875 113.820313 228.527344 113.820313 233.972656 117.691406 C 236.148438 116.84375 238.570313 115.996094 240.867188 115.027344 C 247.160156 126.039063 256.839844 108.738281 263.132813 120.714844 C 266.644531 120.351563 270.757813 117.207031 273.539063 119.023438 C 279.347656 122.410156 283.945313 133.90625 291.8125 126.402344 C 293.988281 127.613281 296.046875 129.1875 297.980469 130.757813 C 304.152344 125.917969 309.355469 129.066406 315.40625 132.089844 C 317.703125 130.515625 320.488281 130.515625 322.785156 129.066406 C 327.628906 131.121094 332.710938 134.992188 337.550781 130.273438 C 337.910156 130.03125 338.152344 129.789063 338.515625 129.429688 C 341.179688 130.878906 343.964844 132.332031 346.746094 133.785156 C 349.527344 133.300781 351.707031 131.242188 354.609375 130.757813 C 356.546875 132.332031 359.210938 132.574219 361.144531 134.269531 C 365.257813 131.96875 369.132813 127.976563 372.398438 124.710938 C 287.996094 133.84375 249.277344 83.023438 142.859375 110.308594 C 141.40625 107.285156 144.914063 107.40625 146.851563 106.316406 C 215.960938 27.640625 233.871094 25 245.339844 17.855469 C 246.300781 17.171875 247.273438 16.488281 248.25 15.808594 C 247.308594 16.5625 246.347656 17.226563 245.339844 17.855469 C 184.628906 60.875 149.519531 106.078125 149.875 106.316406 C 170.023438 100.566406 166.414063 103.269531 177.34375 101.113281 C 194.890625 72.4375 225.621094 50.171875 252.242188 29.722656 C 254.179688 27.90625 268.820313 10.363281 257.929688 24.882813 C 237.964844 45.453125 183.332031 88.46875 182.0625 100.75 C 192.46875 99.058594 203.84375 100.144531 214.734375 99.78125 C 241.304688 68.03125 281.984375 60.6875 315.40625 34.078125 C 286.246094 60.820313 247.765625 69.289063 219.9375 100.265625 C 224.171875 102.6875 230.464844 101.113281 234.820313 101.597656 C 259.5625 66.6875 309.960938 64.691406 344.566406 39.28125 C 318.855469 67.898438 260.773438 66.082031 240.023438 101.960938 C 244.257813 103.410156 249.21875 102.808594 253.574219 104.140625 C 291.691406 76.550781 335.007813 60.941406 378.570313 46.300781 C 347.109375 62.394531 274.082031 86.652344 260.472656 104.621094 C 265.070313 106.4375 270.273438 106.195313 274.871094 108.132813 C 304.335938 78.183594 384.980469 59.367188 389.460938 57.191406 C 367.4375 72.800781 307.359375 81.207031 277.894531 108.980469 C 280.558594 110.550781 283.703125 111.035156 286.609375 112.003906 C 320.0625 84.234375 369.070313 93.914063 409.425781 71.105469 C 376.269531 99.179688 326.78125 88.046875 292.777344 114.183594 C 299.070313 116.238281 314.738281 116.660156 321.273438 118.113281 C 356.96875 95.726563 395.628906 99.058594 430.839844 73.644531 C 402.769531 100.871094 358.785156 99.964844 331.015625 120.351563 C 350.132813 122.046875 368.527344 122.53125 388.128906 121.5625 C 409.605469 88.46875 426.605469 91.3125 446.933594 78.96875 C 447.113281 86.046875 409.605469 89.074219 388.976563 123.742188 C 385.34375 124.828125 380.625 123.378906 377.238281 125.070313 Z M 401.195313 196.582031 C 401.738281 193.335938 407.386719 185.269531 392.484375 172.988281 C 396.234375 167.300781 406.15625 164.398438 402.890625 155.5625 C 399.863281 152.902344 395.75 150.722656 393.816406 147.335938 C 398.050781 150.722656 403.375 151.207031 407.730469 154.234375 C 407.730469 158.226563 407.730469 162.097656 407.730469 166.089844 C 404.101563 168.511719 400.347656 170.449219 396.355469 172.140625 C 413.4375 186.480469 403.738281 196.097656 401.195313 196.582031 Z M 450.808594 150.359375 C 474.765625 145.15625 498.117188 138.625 519.292969 126.402344 C 499.085938 142.253906 474.402344 147.09375 450.808594 154.71875 C 451.046875 157.257813 451.410156 159.316406 451.289063 162.097656 C 473.128906 160.261719 496.523438 153.808594 516.148438 151.691406 C 504.589844 156.230469 468.695313 163.890625 451.773438 162.945313 C 450.6875 165.003906 450.203125 167.300781 450.441406 169.964844 C 469.804688 169.359375 492.429688 168.753906 511.789063 172.140625 C 492.066406 172.625 469.441406 170.691406 449.113281 173.835938 C 447.78125 174.804688 448.023438 176.375 447.78125 177.828125 C 467.503906 181.820313 489.164063 181.335938 507.070313 190.050781 C 487.226563 185.695313 466.054688 182.304688 446.089844 181.335938 C 445.242188 183.273438 441.851563 187.023438 445.242188 187.871094 C 465.449219 193.195313 485.777344 197.914063 504.046875 208.320313 C 483.597656 200.941406 462.90625 194.40625 441.246094 190.414063 C 439.796875 192.105469 437.859375 193.4375 436.890625 195.253906 C 457.945313 205.660156 480.574219 214.007813 500.054688 228.769531 C 478.757813 217.273438 456.855469 207.109375 434.351563 198.277344 C 433.261719 200.09375 426.605469 201.90625 431.203125 203.964844 C 452.742188 212.796875 472.828125 224.535156 492.671875 236.996094 C 470.289063 229.132813 449.113281 213.886719 426.484375 204.328125 C 424.910156 206.023438 422.734375 206.265625 421.28125 207.835938 C 443.667969 223.324219 469.925781 231.433594 490.496094 252.242188 C 466.777344 236.515625 441.488281 224.171875 416.925781 210.5 C 414.628906 211.949219 411.722656 211.949219 409.425781 213.523438 C 426.847656 229.617188 447.902344 238.933594 468.230469 248.855469 C 445.242188 243.046875 425.878906 228.042969 406.398438 213.523438 C 406.035156 213.523438 405.550781 213.523438 405.066406 213.523438 C 477.164063 185.269531 442.878906 116.296875 410.390625 113.335938 C 415.59375 112.730469 408.191406 109.84375 424.671875 114.183594 C 440.765625 98.089844 458.308594 83.8125 478.757813 77.640625 C 459.398438 86.472656 441.730469 99.421875 425.152344 115.027344 C 426.484375 116.601563 428.421875 118.175781 430.355469 119.023438 C 452.136719 104.019531 475.128906 92.160156 499.691406 83.6875 C 477.304688 95.425781 454.679688 106.316406 434.714844 123.742188 C 435.5625 125.433594 437.375 126.765625 438.707031 128.097656 C 453.347656 119.746094 498.945313 101.375 510.582031 102.445313 C 491.683594 109.441406 461.335938 115.027344 440.882813 131.242188 C 443.183594 133.421875 444.03125 136.324219 446.089844 138.625 C 469.925781 128.21875 496.304688 124.226563 519.292969 112.003906 C 496.90625 125.433594 470.773438 129.429688 447.78125 141.164063 C 447.417969 144.3125 449.839844 147.335938 450.808594 150.359375 "/>
</g>
</svg>
