<?xml version="1.0" encoding="UTF-8"?>
<svg xmlns="http://www.w3.org/2000/svg" xmlns:xlink="http://www.w3.org/1999/xlink" width="531pt" height="291pt" viewBox="0 0 531 291" version="1.1">
<g id="surface1">
<path style=" stroke:none;fill-rule:nonzero;fill:rgb(0%,0%,0%);fill-opacity:1;" d="M 457.425781 237.308594 C 425.882813 216.558594 408.648438 184.933594 406.816406 181.101563 C 406.511719 180.46875 393.707031 163.210938 394.863281 159.273438 C 399.070313 165.820313 408.558594 172.835938 399.027344 157.117188 C 403.058594 154.820313 409.105469 168.710938 413.40625 169.964844 C 413.917969 168.019531 411.074219 163.148438 410.726563 161.953125 C 411.519531 161.636719 412.089844 161.636719 412.410156 161.941406 C 414.554688 164.214844 463.191406 210.417969 476.636719 216.445313 C 483.835938 221.46875 488.152344 223.902344 489.585938 223.746094 C 489.585938 223.746094 494.175781 221.96875 498.382813 228.285156 C 498.382813 228.285156 502.242188 226.550781 505.757813 231.507813 C 507.742188 233.09375 515.074219 237.734375 521.542969 233.386719 C 471.257813 209.132813 453.835938 191.148438 453.835938 191.148438 C 451.222656 188.414063 422.148438 163.847656 421.855469 163.332031 C 424.429688 161.359375 432.007813 169.703125 433.035156 169.90625 C 433.148438 169.0625 430.5 163.179688 430.21875 162.277344 C 431.542969 161.667969 437.507813 169.183594 438.519531 169.195313 C 438.996094 168.785156 437.148438 163.0625 437.125 162.007813 C 443.730469 163.621094 447.953125 164.691406 449.8125 165.1875 C 450.21875 164.675781 450.269531 164.179688 449.992188 163.695313 C 442.109375 161.570313 437.433594 159.835938 435.960938 158.523438 C 435.507813 156.195313 441.230469 153.894531 441.484375 153.175781 C 439.632813 151.519531 429.269531 158.121094 428.480469 156.796875 C 429.402344 154.65625 430.890625 152.542969 432.945313 150.460938 C 430.289063 147.523438 428.738281 144.429688 428.976563 143.875 C 429.679688 143.746094 436.554688 149.941406 436.96875 150.25 C 437.0625 149.753906 434.839844 144.160156 434.828125 143.074219 C 436.414063 142.816406 445.761719 148.609375 445.867188 148.632813 C 446.378906 148.710938 446.882813 148.65625 447.371094 148.441406 C 446.445313 147.246094 442.261719 142.6875 441.933594 142.117188 C 442.191406 142.023438 452.761719 141.375 454.441406 140.367188 C 453.390625 139.285156 444.144531 138.398438 442.539063 138.449219 C 441.96875 136.53125 448.433594 135.570313 447.875 133.519531 C 445.929688 133.628906 441.128906 135.089844 433.5 137.921875 C 433.390625 137.257813 442.070313 128.65625 442.828125 128.0625 C 442.257813 127.390625 441.71875 127.164063 441.242188 127.378906 C 440.472656 128.007813 425.332031 140.796875 421.273438 139.292969 C 421.484375 138.546875 430.621094 127.152344 431.492188 125.9375 C 430.539063 125.566406 429.867188 125.558594 429.464844 125.933594 C 429.464844 125.933594 416.667969 139.144531 412.929688 138.46875 C 412.847656 137.238281 420.398438 124.09375 420.460938 123.925781 C 419.882813 123.925781 419.328125 124.070313 418.8125 124.367188 C 418.671875 124.4375 407.882813 136.808594 407.699219 136.925781 C 407.34375 136.371094 383.429688 76.007813 382.078125 74.578125 C 372.257813 62.832031 362.96875 83.90625 363.144531 84.28125 C 363.144531 84.28125 364.816406 87.921875 365.769531 90.226563 C 365.816406 90.613281 365.578125 91.003906 365.027344 91.417969 C 360.519531 83.832031 357.792969 79.648438 356.871094 78.871094 C 353.566406 76.078125 350.207031 77.488281 346.773438 83.101563 C 345.097656 85.855469 339.089844 96.46875 337.992188 97.136719 C 320.832031 88.683594 305.402344 88.71875 304.714844 88.296875 C 304.304688 88.042969 296.035156 79.796875 293.820313 78.152344 C 291.386719 76.363281 289.140625 77.179688 287.070313 80.617188 C 286.414063 81.710938 285.398438 84.382813 284.0625 88.597656 C 282.863281 88.527344 280.675781 87.015625 277.480469 84.0625 C 275.929688 84.242188 265.183594 94.0625 264.28125 94.3125 C 262.644531 91.851563 254.300781 80.808594 254.300781 80.808594 C 247.441406 70.394531 246.402344 70.820313 222.894531 82.039063 C 213.257813 86.636719 185.972656 101.339844 182.035156 101.648438 C 181.828125 101.664063 141.089844 103.953125 140.207031 103.722656 C 103.671875 81.351563 78.5 41.035156 76.539063 39.550781 C 64.4375 25.984375 56.878906 3.550781 54.292969 0.984375 C 55.636719 26.714844 84.128906 58.351563 89.53125 63.292969 C 90.382813 64.074219 112.472656 91.984375 125.636719 101.570313 C 125.714844 102.023438 94.402344 109.609375 90.929688 108.660156 C 60.039063 97.484375 48.117188 75.214844 46.203125 73.21875 C 25.570313 54.582031 6.136719 13.515625 0.136719 15.3125 C 16.40625 41.015625 21.703125 53.90625 23.003906 54.949219 C 27.558594 56.628906 48.375 84.429688 49.5 86.425781 C 66.636719 109.21875 114.035156 122.003906 118.007813 122.511719 C 120.355469 143.132813 161.667969 143.738281 162.613281 143.992188 C 162.613281 143.992188 233.105469 146.433594 243.382813 142.953125 C 245.757813 133.78125 251.550781 123.964844 251.8125 123.304688 C 251.257813 129.382813 247.378906 139.574219 238.285156 158.710938 C 224.507813 187.699219 217.113281 202.875 216.101563 204.234375 C 214.753906 206.039063 185.128906 228.761719 173.175781 235.949219 C 171.769531 236.804688 141.070313 259.550781 125.523438 264.695313 C 122.003906 269.085938 91.953125 281.695313 91.226563 282.152344 C 91.226563 282.152344 73.238281 285.585938 68.910156 289.707031 C 76.171875 294.382813 122.347656 273.257813 124.3125 272.835938 C 130.171875 271.558594 137.40625 269.085938 141.652344 264.867188 C 141.652344 264.867188 155.738281 258.816406 159.703125 253.59375 C 162.117188 250.917969 164.300781 249.109375 166.253906 248.167969 C 175.539063 244.882813 219.414063 209.472656 221.003906 207.875 C 223.046875 205.808594 250.476563 151.367188 253.542969 143.144531 C 254.859375 139.617188 262.949219 120.929688 263.730469 119.707031 C 268.671875 123.515625 272.328125 136.730469 272.328125 136.730469 C 270.175781 133.355469 267.222656 129.296875 263.480469 124.523438 C 262.929688 124.492188 256.105469 144.328125 256.386719 144.84375 C 259.796875 145.054688 261.972656 145.226563 262.890625 145.378906 C 263.15625 145.894531 247.050781 195.039063 243.914063 199.128906 C 243.117188 200.175781 214.40625 229.851563 204.007813 233.988281 C 199.003906 234.984375 195.042969 242.804688 195.042969 242.804688 C 195.042969 242.804688 183.972656 249.652344 178.570313 255.964844 C 178.570313 255.964844 151.339844 268.71875 141.066406 280.0625 C 142.527344 280.632813 177.636719 266.539063 184.71875 259.9375 C 184.953125 259.726563 193.140625 248.550781 210.933594 238.214844 C 216.726563 234.351563 244.28125 211.078125 248.363281 206.496094 C 251.703125 202.734375 269.683594 154.546875 272.730469 147.589844 C 275.148438 146.894531 277.058594 147.28125 278.46875 148.765625 C 278.46875 148.765625 289.9375 176.316406 312.652344 173.160156 C 312.652344 173.160156 330.273438 179.25 335.503906 150.117188 C 336.546875 147.609375 348.46875 90.609375 354.015625 90.578125 C 355.339844 90.910156 356.40625 93.328125 357.246094 97.820313 C 357.070313 97.835938 356.921875 97.816406 356.78125 97.78125 C 356.4375 97.152344 354.792969 89.507813 352.992188 92.746094 C 352.9375 92.808594 346.542969 107.933594 347.160156 113.398438 C 347.160156 113.398438 350.394531 117.695313 349.734375 121.570313 C 349.054688 121.652344 348.585938 121.570313 348.355469 121.289063 C 347.675781 120.003906 346.921875 118.765625 346.101563 117.578125 C 344.207031 117.832031 338.65625 146.445313 339.238281 148.128906 C 345.992188 152.347656 358.808594 156.3125 358.859375 156.398438 C 358.859375 156.398438 381.332031 196.484375 385.660156 196.128906 C 384.925781 194.710938 367.992188 158.808594 369.308594 155.730469 C 369.308594 155.730469 370.714844 152.773438 371.0625 151.882813 C 371.542969 151.535156 372.09375 151.519531 372.726563 151.8125 C 372.921875 152.765625 374.179688 159.535156 374.417969 160.5 C 374.6875 161.105469 375.328125 161.308594 376.339844 161.09375 C 376.851563 160.175781 376.09375 153.902344 376.46875 153.011719 C 378.71875 152.757813 381.710938 160.40625 382.335938 161.175781 C 382.972656 161.304688 383.488281 161.085938 383.863281 160.519531 C 383.671875 159.566406 381.726563 155.460938 381.488281 154.523438 C 381.921875 154.355469 382.292969 154.359375 382.574219 154.527344 C 382.6875 154.789063 394.257813 187.960938 445.6875 236.5 C 456.957031 248.460938 476.4375 257.570313 477.3125 257.921875 C 477.3125 257.921875 477.855469 254.507813 488.269531 263.171875 C 488.269531 263.171875 492.132813 263.242188 492.625 263.441406 C 492.746094 263.492188 497.066406 266.90625 497.621094 267.339844 C 498.574219 267.148438 501.886719 266.425781 501.886719 266.425781 C 502.179688 266.359375 515.21875 273.875 516.488281 275.101563 C 516.488281 275.101563 519.214844 277.542969 519.730469 277.664063 C 520.957031 277.957031 529.980469 275.433594 530.363281 275.375 C 527.90625 269.085938 474.28125 255.058594 457.425781 237.308594 Z M 243.316406 83.753906 C 244.773438 85.820313 251.378906 100.199219 251.183594 100.566406 C 250.488281 100.59375 207.621094 103.53125 199.800781 100.632813 C 205.644531 96.25 239.59375 83.984375 243.316406 83.753906 Z M 119.179688 117.132813 C 115.019531 117.253906 103.457031 114.578125 103.492188 112.699219 C 115.953125 104.082031 172.46875 105.222656 172.46875 105.222656 C 172.566406 105.21875 142.171875 119.300781 119.179688 117.132813 Z M 240.140625 137.039063 C 212.570313 142.21875 143.957031 136.9375 143.550781 136.796875 C 138.683594 135.121094 140.347656 128.632813 140.726563 128.109375 C 140.851563 128.089844 149.628906 132.480469 151.160156 132.359375 C 152.949219 132.222656 158.632813 121.136719 160.605469 121.34375 C 160.808594 121.363281 174.878906 130.804688 176.621094 129.996094 C 177.34375 129.664063 186.066406 118.03125 187.042969 118.460938 C 189.976563 119.753906 196.226563 130.117188 197.648438 131.261719 C 197.820313 131.105469 208.355469 118.066406 210.042969 117.335938 C 211.574219 119.878906 217.65625 129.230469 219.570313 128.730469 C 220.738281 127.855469 227.996094 116.351563 229.585938 115.808594 C 232.476563 116.902344 241.296875 126.265625 242.207031 126.738281 C 242.550781 129.574219 241.863281 133.007813 240.140625 137.039063 Z M 186.640625 109.480469 C 186.425781 109.441406 146.9375 129.199219 127.269531 123.648438 C 149.6875 124.984375 191.074219 105.261719 191.074219 105.261719 C 191.21875 105.167969 251.957031 103.953125 254.308594 104.34375 C 254.347656 104.984375 255.417969 107.085938 255.417969 107.085938 C 255.015625 107.105469 186.640625 109.480469 186.640625 109.480469 Z M 292.15625 88.875 C 293.191406 88.890625 293.761719 88.449219 293.761719 88.449219 C 293.910156 88.398438 296.609375 90.609375 296.609375 90.609375 C 295.804688 92.257813 292.261719 92.144531 292.261719 92.144531 C 291.574219 91 291.539063 89.910156 292.15625 88.875 Z M 269.214844 108.078125 C 269.199219 107.503906 274.003906 100.167969 275.058594 98.984375 C 283.707031 92.808594 291.878906 130.085938 291.871094 130.214844 C 290.304688 130.757813 280.679688 96.109375 275.503906 102.820313 C 275.21875 102.878906 271 109.277344 270.410156 110.070313 C 270.410156 110.070313 269.21875 108.359375 269.214844 108.078125 Z M 270.722656 110.804688 C 272.707031 109.996094 289.207031 144.921875 292.671875 146.777344 C 292.671875 146.777344 295.476563 154.023438 295.335938 154.164063 C 295.335938 154.164063 276.832031 131.996094 270.722656 110.804688 Z M 315.445313 161.386719 C 313.632813 165.664063 311.589844 167.8125 309.316406 167.835938 C 312.03125 166.078125 313.367188 163.492188 313.328125 160.074219 C 309.890625 160.855469 307.480469 159.625 306.09375 156.382813 C 303.121094 149.4375 293.054688 107.109375 289.507813 99.222656 C 296.492188 103.945313 304.714844 151.855469 306.140625 154.519531 C 308.730469 159.367188 315.480469 155.273438 317.007813 153.414063 C 318.410156 151.710938 326.195313 133.78125 325.828125 127.519531 C 320.832031 121.683594 313.523438 122.519531 313.523438 122.519531 C 311.84375 122.652344 307.179688 114.921875 307.410156 114.808594 C 309.007813 114.808594 316.117188 121.425781 316.117188 121.425781 L 321.75 121.058594 C 321.894531 121.050781 326.503906 124 326.980469 124.152344 C 327.90625 122.820313 331.007813 111.050781 331.90625 112.773438 C 331.90625 112.773438 326.46875 143.683594 315.445313 161.386719 Z M 332.164063 111.382813 C 309.625 100.300781 302.765625 100.847656 302.277344 100.609375 L 302.21875 99.871094 C 308.179688 96.589844 332.675781 110.230469 332.675781 110.300781 C 332.6875 110.789063 332.164063 111.382813 332.164063 111.382813 Z M 407.984375 145.351563 C 411.214844 145.289063 413.40625 145.644531 414.5625 146.414063 C 414.695313 146.503906 418.15625 151.140625 418.640625 151.699219 C 419.710938 152.121094 421.289063 151.269531 421.078125 150.882813 C 421.078125 150.882813 417.863281 144.738281 418.050781 144.5625 C 419.148438 143.566406 428.859375 149.132813 430.914063 150.933594 C 430.261719 151.792969 423.804688 157.601563 423.386719 157.554688 C 422.683594 157.472656 422.023438 157.277344 421.402344 156.964844 C 421.726563 155.882813 425.929688 150.054688 425.929688 150.054688 C 425.742188 150.035156 423.914063 149.714844 423.527344 149.796875 C 423.398438 149.824219 417.214844 155.382813 416.1875 156.921875 L 413.75 156.21875 C 408.796875 149.871094 406.875 146.25 407.984375 145.351563 Z M 403.886719 150.480469 L 401.722656 153.257813 C 400.582031 154.132813 397.414063 152.476563 397.414063 152.476563 C 397.429688 152.382813 400.582031 150.972656 401.0625 149.585938 C 400.449219 149.28125 393.558594 145.914063 393.800781 145.3125 C 393.800781 145.3125 394.023438 144.765625 394.050781 144.695313 C 395.101563 144.921875 403.398438 149.746094 403.886719 150.480469 Z M 362.453125 106.304688 L 362.601563 106.296875 L 370.722656 126.363281 C 370.507813 126.378906 361.753906 123.347656 360.972656 123.550781 L 354.34375 124.515625 C 354.328125 124.332031 361.433594 107.554688 362.453125 106.304688 Z M 362.402344 137.679688 C 362.402344 137.679688 358.507813 140.566406 358.765625 137.546875 C 360.066406 134.308594 365.625 136.996094 365.640625 137.203125 L 365.652344 137.351563 Z M 371.144531 145.859375 C 371.144531 145.859375 375.648438 124.066406 354.382813 134.199219 C 344.113281 138.273438 354.386719 147.765625 354.386719 147.765625 C 354.027344 147.804688 341.089844 138.734375 350.671875 131.878906 C 351.277344 131.527344 362.597656 128.230469 366.46875 129.519531 C 376.199219 132.683594 373.109375 144.839844 371.144531 145.859375 Z M 370.972656 99.355469 C 368.679688 93.632813 377.53125 88.542969 378.253906 87.75 C 381.976563 94.199219 396.433594 133.832031 396.703125 134.195313 C 396.835938 134.195313 398.878906 132.671875 399.410156 132.644531 C 402.78125 134.609375 399.941406 139.453125 399.941406 139.453125 C 399.941406 139.453125 403.882813 139.558594 402.472656 141.34375 C 402.472656 141.34375 398.65625 142.035156 398.304688 141.371094 C 398.179688 140.664063 400.582031 136.257813 398.703125 135.007813 C 398.703125 135.007813 395.511719 139.644531 394.953125 140.4375 C 393.320313 140.71875 391.617188 140.554688 389.851563 139.945313 C 390.121094 138.65625 392.988281 134.335938 392.988281 134.335938 C 393.183594 134.074219 392.773438 132.59375 392.246094 132.460938 C 391.886719 132.367188 390.226563 134.335938 387.269531 138.359375 C 387.03125 137.660156 373.183594 105.195313 370.972656 99.355469 Z M 393.957031 151.609375 C 391.023438 153.585938 389.152344 147.796875 389.046875 147.171875 C 389.046875 147.171875 397.214844 149.113281 393.957031 151.609375 "/>
</g>
</svg>
