<?xml version="1.0" encoding="UTF-8"?>
<svg xmlns="http://www.w3.org/2000/svg" xmlns:xlink="http://www.w3.org/1999/xlink" width="299pt" height="659pt" viewBox="0 0 299 659" version="1.1">
<g id="surface1">
<path style=" stroke:none;fill-rule:nonzero;fill:rgb(0%,0%,0%);fill-opacity:1;" d="M 296.65625 578.273438 C 294.417969 572.144531 283.324219 567.277344 289.652344 559.882813 C 290.722656 556.574219 288.191406 554.238281 286.34375 551.90625 C 276.027344 543.925781 264.644531 538.378906 254.136719 530.890625 C 257.25 527.191406 261.921875 525.050781 265.617188 521.742188 C 266.785156 519.503906 269.605469 517.460938 268.4375 514.738281 C 261.046875 505.6875 249.757813 503.839844 240.125 499.167969 C 240.515625 496.929688 241.410156 494.324219 239.25 492.554688 C 227.175781 486.914063 203.578125 492.960938 203.578125 492.960938 C 211.574219 484.378906 217.261719 479.515625 226.40625 478.152344 C 223.683594 476.011719 220.375 474.746094 217.941406 472.511719 C 221.152344 466.28125 226.601563 460.929688 227.769531 453.828125 C 228.160156 451.300781 226.40625 449.449219 224.753906 447.992188 C 216.191406 443.125 208.796875 451.394531 201.597656 454.316406 C 200.527344 452.175781 198.191406 450.8125 196.050781 450.324219 C 189.726563 450.714844 184.859375 455.386719 180.578125 459.664063 C 187.488281 461.222656 195.078125 461.027344 201.109375 464.53125 C 205.78125 460.640625 210.351563 456.554688 215.605469 454.316406 C 215.800781 454.703125 216.289063 454.996094 216.289063 455.480469 C 211.910156 458.207031 208.019531 462.390625 203.929688 465.992188 L 204.613281 467.160156 L 197.898438 465.019531 C 180.773438 458.304688 161.996094 463.949219 146.527344 470.175781 L 144.675781 470.175781 L 145.554688 440.304688 L 146.234375 438.648438 C 148.472656 439.527344 151.292969 438.941406 153.726563 439.136719 C 178.535156 439.914063 185.835938 407.320313 208.601563 403.136719 C 193.519531 396.617188 173.378906 394.378906 156.742188 399.148438 L 145.359375 404.789063 C 142.730469 406.152344 140.296875 408.585938 137.671875 408.972656 L 137.671875 408.78125 L 147.207031 360.617188 L 149.542969 339.210938 C 151.878906 312.261719 157.132813 285.988281 164.039063 260.691406 C 170.167969 260.398438 176.007813 261.566406 181.261719 259.328125 C 176.394531 255.339844 170.460938 251.742188 167.25 246 C 168.613281 238.214844 170.167969 230.628906 172.214844 223.136719 C 172.214844 223.136719 184.859375 217.816406 188.175781 214.890625 C 183.691406 214.5 181.738281 210.40625 172.40625 208.832031 C 175.230469 192.679688 180.773438 177.695313 187.878906 163.296875 C 187.878906 163.296875 188.566406 161.265625 193.421875 166.605469 L 189.726563 176.917969 C 188.753906 182.757813 191.671875 187.816406 195.078125 192.097656 C 196.925781 184.019531 206.753906 179.253906 208.113281 171.082031 C 208.019531 168.0625 208.214844 165.046875 205.585938 163.101563 C 204.027344 161.15625 201.5 160.28125 199.554688 159.40625 C 208.648438 156.976563 218.011719 144.691406 218.011719 144.691406 L 206.699219 145.46875 C 199.402344 146.054688 194.492188 148.410156 194.394531 148.117188 C 197.800781 139.460938 202.859375 131.480469 210.449219 124.574219 C 221.640625 113.96875 233.023438 103.265625 248.589844 104.042969 C 252.675781 105.40625 257.640625 107.546875 259.488281 111.925781 C 259.292969 112.3125 253.5 114.269531 253.457031 119.707031 C 256.375 126.03125 257.542969 117.761719 260.949219 117.761719 C 263.1875 117.664063 262.113281 120.195313 262.992188 121.265625 C 265.035156 129.242188 261.53125 136.734375 255.109375 141.113281 C 253.066406 139.265625 253.941406 135.761719 254.429688 133.425781 C 254.914063 131.96875 256.765625 131.578125 258.320313 131.773438 C 259.292969 131.1875 260.558594 130.214844 260.265625 128.757813 C 259.976563 126.226563 257.054688 126.519531 255.304688 126.90625 C 251.511719 128.367188 251.023438 132.355469 249.953125 135.566406 C 249.367188 135.761719 245.503906 131.234375 247.617188 126.226563 C 248.785156 124.574219 250.4375 124.574219 252.289063 124.765625 C 252.96875 124.476563 253.648438 123.792969 253.648438 122.917969 C 252.96875 120.972656 251.605469 119.804688 249.46875 119.707031 C 247.617188 120.097656 245.769531 120.484375 244.308594 122.042969 C 241.390625 127.101563 242.65625 133.71875 245.28125 138.582031 C 241.976563 143.933594 240.320313 150.550781 241.78125 157.265625 C 243.53125 171.664063 255.886719 181.6875 255.597656 196.960938 L 257.445313 193.652344 C 257.933594 194.433594 258.320313 195.113281 258.808594 195.796875 C 263.476563 186.550781 271.648438 178.769531 277.292969 169.914063 C 281.28125 160.183594 279.53125 150.550781 275.640625 141.113281 L 280.992188 131.382813 C 282.257813 127.882813 280.113281 124.671875 277.488281 122.238281 C 276.515625 121.554688 275.640625 122.433594 274.960938 122.917969 C 274.519531 123.878906 274.824219 124.585938 275.214844 125.363281 C 276.464844 125.519531 276.464844 125.824219 276.867188 126.90625 C 277.355469 131.1875 274.375 134.984375 271.941406 138.390625 C 272.234375 132.648438 272.914063 127.296875 273.984375 121.554688 C 274.082031 118.054688 274.472656 113.578125 270.96875 111.535156 C 268.828125 110.5625 266.882813 112.019531 265.324219 112.898438 C 260.558594 105.40625 252.675781 101.609375 245.28125 98.398438 C 244.601563 97.328125 244.699219 96.257813 244.796875 94.898438 C 241.003906 88.183594 233.703125 85.265625 226.601563 85.359375 C 229.324219 89.15625 232.535156 92.757813 234.09375 97.035156 C 234.289063 98.59375 237.183594 99.066406 236.429688 100.246094 C 225.433594 104.917969 215.671875 113.101563 205.140625 120.898438 C 205.140625 120.898438 209.820313 106.46875 213.953125 98.398438 L 220.960938 98.203125 C 220.179688 94.703125 218.332031 91.492188 217.746094 87.890625 L 220.960938 79.71875 C 225.628906 79.035156 230.785156 79.425781 234.96875 77.675781 C 232.34375 73.003906 227.671875 69.308594 224.753906 64.832031 C 228.257813 54.226563 228.9375 40.992188 226.796875 29.511719 C 229.910156 22.605469 237.984375 22.605469 244.113281 20.660156 C 238.179688 19.492188 232.535156 14.820313 226.113281 17.640625 C 223.78125 18.613281 222.808594 21.730469 220.277344 22.507813 C 217.261719 19.003906 209.476563 19.878906 210.449219 13.457031 C 209.183594 10.148438 205.976563 8.203125 203.054688 7.621094 C 202.859375 5.285156 202.472656 3.046875 201.597656 1.003906 C 198.480469 -1.816406 195.464844 2.269531 193.421875 3.824219 C 190.503906 -1.136719 184.570313 -0.648438 180.386719 1.78125 C 169.878906 9.566406 163.820313 21.460938 156.035156 31.191406 C 156.035156 31.191406 143.910156 26.324219 136.699219 26.496094 C 120.839844 28.054688 109.648438 38.757813 94.179688 41.1875 C 96.417969 42.0625 98.65625 42.9375 100.988281 43.523438 C 112.570313 43.621094 122.199219 48.679688 133.683594 49.167969 C 119.730469 56.941406 108.226563 62.789063 108.226563 62.789063 C 109.78125 66.972656 113.734375 70.671875 116.65625 74.367188 L 107.703125 83.707031 C 115.390625 83.707031 123.269531 84.679688 130.375 84.679688 C 129.789063 86.433594 128.429688 87.988281 127.84375 89.738281 L 133.195313 89.546875 C 134.265625 90.324219 133.972656 91.6875 134.363281 92.855469 C 136.019531 92.464844 138.15625 91.78125 139.035156 90.714844 L 143.21875 100.054688 L 145.066406 97.523438 C 145.453125 98.59375 146.332031 99.371094 146.527344 100.539063 C 151.292969 109.78125 162.09375 111.730469 171.726563 110.757813 C 176.203125 109.394531 180.289063 106.28125 182.429688 101.902344 C 189.140625 102.582031 198.09375 104.238281 203.445313 99.566406 C 205.097656 95.96875 201.5 92.367188 202.082031 88.570313 C 204.222656 91.003906 207.140625 93.242188 209.769531 95.1875 C 203.640625 114.746094 196.4375 133.816406 187.097656 152.109375 C 181.453125 144.90625 173.671875 142.960938 164.914063 142.085938 L 166.859375 150.453125 C 169.195313 157.363281 176.980469 157.363281 181.554688 161.933594 C 179.410156 169.425781 176.6875 176.628906 173.867188 183.925781 C 170.753906 192.195313 168.710938 200.953125 165.402344 209.125 C 162.480469 209.320313 158.882813 209.609375 155.574219 209.804688 C 147.597656 203.773438 137.671875 202.410156 127.359375 202.117188 C 121.324219 192.195313 118.601563 181.003906 113.347656 170.789063 C 113.347656 170.789063 108.613281 162.824219 104.980469 162.617188 C 102.15625 162.324219 99.628906 162.03125 97.488281 163.785156 C 96.125 165.4375 94.789063 167.789063 94.179688 169.355469 C 93.886719 168.964844 89.894531 159.703125 83.476563 160.765625 C 80.65625 161.351563 78.804688 163.589844 77.640625 166.117188 C 75.011719 178.960938 78.320313 193.167969 76.179688 206.304688 C 69.808594 202.605469 62.460938 205.328125 62.460938 205.328125 C 53.410156 208.832031 42.222656 207.859375 33.464844 211.652344 C 42.804688 220.3125 53.898438 224.304688 65.28125 228 C 51.871094 238.289063 39.976563 245.503906 30.808594 252.328125 L 50.785156 251.839844 C 50.199219 254.953125 49.035156 257.773438 49.132813 261.179688 C 49.617188 263.804688 51.269531 265.167969 53.605469 266.53125 C 59.832031 270.8125 67.324219 267.796875 73.164063 264.683594 C 73.359375 267.796875 71.996094 271.394531 72.480469 274.507813 C 79.097656 278.011719 86.203125 274.3125 91.84375 271.492188 C 91.84375 271.492188 90.09375 278.496094 89.507813 282 C 91.550781 281.125 93.304688 278.886719 95.347656 278.886719 L 95.347656 287.058594 C 97 286.863281 98.265625 285.796875 99.53125 285.015625 C 100.699219 286.085938 101.574219 287.9375 102.15625 288.519531 L 104.980469 284.335938 L 110.332031 287.351563 C 110.816406 284.335938 111.011719 281.320313 111.984375 278.496094 C 113.445313 278.691406 114.808594 279.179688 116.167969 279.859375 L 118.503906 298.734375 L 118.019531 300.875 L 114.027344 299.027344 C 106.148438 297.371094 97.683594 299.804688 93.011719 307.199219 C 100.113281 307.6875 106.730469 309.4375 113.542969 310.410156 C 115.78125 309.632813 118.113281 308.367188 120.15625 307.882813 C 121.714844 318.292969 123.367188 328.703125 125.023438 339.210938 L 129.011719 388.640625 L 129.207031 396.617188 C 120.253906 391.460938 111.597656 385.429688 100.988281 384.261719 C 87.5625 383.09375 71.316406 382.703125 59.445313 388.25 C 65.769531 392.042969 72.386719 395.644531 77.832031 401.09375 C 85.617188 411.601563 95.152344 423.664063 108.191406 426 C 97.097656 436.605469 89.703125 449.0625 83.671875 462.003906 C 75.5 469.007813 67.324219 476.402344 61.292969 485.160156 C 66.15625 483.894531 71.21875 481.949219 75.984375 481.167969 L 77.152344 492.554688 C 82.894531 488.175781 89.21875 485.160156 95.347656 481.851563 C 108.480469 482.824219 121.324219 484.1875 131.054688 493.332031 C 131.445313 500.53125 129.789063 506.5625 129.011719 513.570313 L 115.246094 521.984375 C 114.269531 516.730469 112.179688 512.207031 108.480469 507.730469 C 100.699219 499.167969 90.386719 493.136719 79 496.835938 C 73.359375 498.683594 76.179688 505.007813 75.789063 509.191406 C 74.816406 510.261719 73.457031 509.578125 72.289063 510.066406 C 53.507813 506.078125 33.757813 510.554688 20.621094 523.882813 C 20.816406 524.953125 20.914063 526.121094 21.789063 526.898438 C 32.199219 531.859375 45.042969 529.429688 55.164063 534.390625 C 56.621094 538.671875 59.832031 543.925781 64.988281 544.21875 C 79.195313 548.597656 91.550781 541.589844 101.671875 532.542969 L 102.644531 532.542969 L 84.839844 551.90625 C 83.085938 553.65625 76.472656 551.222656 76.472656 551.222656 C 67.8125 547.816406 57.011719 547.816406 47.28125 549.375 C 40.664063 551.027344 32.980469 551.027344 28.308594 556.574219 C 27.824219 565.136719 18.09375 567.472656 12.742188 572.238281 C 9.433594 574.964844 4.472656 577.300781 3.59375 581.777344 C 1.746094 590.144531 11.308594 591.046875 17.160156 596.117188 C 17.160156 596.117188 2.339844 607.816406 0.578125 610.964844 C -2.242188 618.066406 6.125 621.765625 6.902344 627.992188 C 6.125 635.09375 4.570313 641.90625 4.570313 649.300781 C 5.152344 652.414063 7.488281 655.332031 10.40625 657.179688 C 21.496094 664.382813 30.839844 653.09375 39.304688 646.671875 C 45.824219 646.476563 47.964844 655.527344 54.96875 654.164063 C 57.789063 653.484375 60.320313 651.636719 62.167969 649.007813 C 66.15625 639.667969 66.9375 628.964844 68.785156 618.652344 C 69.078125 616.996094 70.632813 615.925781 72.289063 617.09375 C 75.207031 623.03125 75.984375 629.839844 77.832031 636.164063 C 79 639.277344 79.878906 642.976563 83.671875 643.65625 C 94.082031 641.613281 89.507813 628.867188 96.515625 623.125 C 99.238281 622.25 102.644531 622.347656 104.199219 619.429688 C 106.148438 613.203125 105.855469 605.90625 109.84375 600.746094 C 114.222656 601.625 115.390625 606.78125 118.699219 609.601563 C 122.980469 609.117188 126.386719 605.808594 130.664063 606.097656 C 138.351563 613.105469 143.410156 624.488281 154.699219 623.808594 C 165.359375 620.101563 160.484375 593.777344 161.21875 588.78125 C 165.011719 590.335938 168.710938 593.351563 173.378906 593.449219 C 175.519531 593.0625 177.367188 591.117188 178.535156 589.265625 C 179.21875 587.417969 179.121094 584.695313 178.246094 582.941406 L 161.898438 555.894531 L 161.898438 554.433594 L 172.40625 555.601563 C 175.519531 561.34375 177.855469 568.542969 185.054688 570.585938 C 193.324219 578.953125 200.429688 593.257813 213.757813 592.574219 C 217.941406 590.824219 216.871094 585.277344 220.960938 583.914063 C 232.632813 588.976563 243.046875 596.953125 255.597656 599.777344 C 260.949219 602.207031 262.992188 595.882813 266.300781 593.742188 C 276.808594 595.007813 289.84375 597.050781 297.824219 589.265625 C 299.574219 585.570313 297.726563 581.675781 296.65625 578.273438 Z M 245.28125 159.40625 C 243.335938 153.46875 242.753906 146.074219 246.644531 140.722656 C 246.546875 146.757813 245.089844 152.886719 245.28125 159.40625 Z M 249.273438 144.421875 C 250.535156 144.8125 250.535156 146.367188 251.121094 147.730469 C 250.925781 158.238281 253.066406 167.773438 254.621094 177.601563 C 246.546875 168.84375 245.476563 154.929688 249.273438 144.421875 Z M 259.097656 185.09375 C 258.710938 169.425781 248.785156 150.0625 262.113281 137.222656 C 261.628906 142.183594 260.070313 147.632813 260.65625 153.082031 C 264.160156 163.199219 263.1875 175.558594 259.097656 185.09375 Z M 271.648438 142.574219 C 276.222656 147.339844 277.390625 153.957031 277.003906 160.574219 C 275.25 166.507813 273.109375 172.734375 267.953125 176.917969 C 267.660156 170.496094 270.09375 165.144531 271.164063 159.40625 C 271.746094 153.664063 268.050781 147.535156 271.648438 142.574219 Z M 267.46875 118.246094 C 267.757813 116.691406 269.703125 116.011719 269.996094 118.054688 C 270.871094 121.070313 269.605469 123.792969 268.828125 126.421875 L 267.46875 126.90625 C 267.46875 123.988281 262.214844 120 267.46875 118.246094 Z M 265.132813 142.085938 L 267.660156 136.054688 C 266.785156 148.605469 269.996094 161.738281 264.9375 172.929688 C 265.324219 162.519531 261.921875 151.621094 265.132813 142.085938 Z M 213.5625 84.390625 C 211.8125 81.761719 210.742188 78.84375 209.574219 76.019531 C 211.519531 75.4375 213.660156 76.703125 214.925781 78.0625 C 215.121094 80.203125 214.730469 83.511719 213.5625 84.390625 Z M 217.941406 74.5625 L 206.753906 68.335938 C 205.488281 63.078125 202.277344 58.117188 199.261719 53.351563 C 200.429688 51.308594 201.207031 46.636719 204.902344 49.167969 C 212.007813 52.28125 215.121094 59.871094 220.277344 65.222656 C 220.546875 70.003906 217.941406 74.5625 217.941406 74.5625 Z M 223.78125 71.058594 C 225.726563 71.546875 226.992188 73.199219 227.964844 74.851563 L 223.097656 75.046875 C 223.292969 73.492188 223.292969 71.835938 223.78125 71.058594 Z M 211.910156 23.675781 C 221.835938 27.371094 222.710938 37.6875 222.902344 46.34375 C 223.292969 50.722656 222.222656 54.421875 221.929688 58.507813 C 218.234375 58.117188 217.164063 53.253906 213.953125 51.015625 C 210.9375 48.097656 207.335938 46.734375 203.929688 44.691406 C 205.878906 37.394531 209.769531 30.875 211.910156 23.675781 Z M 204.613281 16.960938 C 205.140625 14.820313 204.75 13.648438 202.277344 11.511719 C 204.164063 10.53125 209.429688 11.308594 207.433594 20.660156 C 204.515625 30.195313 200.136719 39.144531 196.4375 48.484375 L 191.378906 48 C 193.441406 44.460938 198.675781 36.808594 200.429688 30.484375 Z M 187.390625 27.175781 C 186.808594 24.9375 189.921875 24.160156 191.378906 22.992188 C 193.421875 22.214844 196.050781 23.089844 196.4375 25.328125 C 197.316406 31.265625 192.546875 35.449219 190.601563 40.507813 C 188.460938 43.035156 187.878906 47.511719 184.082031 48.195313 C 185.734375 43.910156 189.726563 39.535156 191.769531 34.863281 L 193.230469 31.167969 C 191.28125 29.804688 188.167969 29.804688 187.390625 27.175781 Z M 195.757813 4.800781 C 196.050781 3.339844 197.511719 3.144531 198.578125 2.65625 C 199.453125 2.550781 200.308594 3.183594 200.160156 4.117188 C 200.015625 5.964844 198.289063 6.671875 197.703125 8.035156 C 196.535156 7.546875 194.882813 6.257813 195.757813 4.800781 Z M 156.546875 40.992188 C 163.941406 28.539063 170.265625 15.210938 181.066406 4.507813 C 183.402344 3.4375 188.175781 0.585938 189.921875 5.480469 C 190.515625 7.019531 190.710938 8.191406 189.046875 8.011719 C 187.199219 4.875 184.375 5.382813 182.234375 6.84375 C 172.019531 17.835938 165.597656 30.875 158.882813 43.523438 C 156.976563 42.316406 154.503906 43.132813 156.546875 40.992188 Z M 123.660156 43.523438 L 102.738281 41.578125 C 116.804688 40.753906 123.824219 28.664063 137.378906 29.804688 C 143.800781 29.902344 149.054688 32.820313 154.40625 35.351563 C 145.664063 49.140625 126.945313 43.875 123.660156 43.523438 Z M 113.488281 64.933594 L 114.320313 62.691406 C 123.269531 58.992188 131.640625 53.835938 139.714844 48 C 135.726563 53.351563 135.523438 57.71875 129.089844 62.789063 C 126.554688 64.546875 124.800781 69.226563 122.492188 71.546875 C 117.390625 70.394531 115.441406 68.445313 113.488281 64.933594 Z M 131.542969 88.183594 C 132.515625 86.238281 134.460938 84.777344 136.503906 84.679688 C 136.414063 86.949219 135.082031 86.90625 131.542969 88.183594 Z M 136.894531 89.738281 C 136.871094 89.90625 141.617188 82.894531 141.175781 83.707031 L 141.855469 86.066406 Z M 137.671875 81.179688 C 141.570313 77.21875 143.316406 78.015625 143.316406 78.015625 L 143.507813 80.203125 C 141.175781 80.203125 140.105469 82.246094 137.671875 81.179688 Z M 143.023438 96.0625 C 142.535156 94.214844 141.953125 91.6875 142.535156 89.546875 C 143.121094 89.351563 144.578125 89.496094 144.675781 89.984375 Z M 134.851563 79.035156 C 130.84375 81.511719 122.296875 82.34375 115.488281 81.371094 C 121.8125 75.144531 130.375 70.476563 134.851563 62.203125 C 137.867188 55.199219 143.507813 46.34375 152.363281 46.34375 C 156.742188 47.121094 161.65625 48.554688 164.234375 51.988281 C 166.335938 56.941406 164.039063 61.523438 161.898438 65.511719 C 155.183594 75.632813 142.933594 72.929688 134.851563 79.035156 Z M 146.234375 85.070313 C 146.234375 83.027344 146.136719 80.351563 146.914063 78.308594 C 149.007813 79.183594 148.179688 81.664063 147.402344 82.734375 Z M 171.921875 107.058594 C 162.871094 108.617188 153.335938 105.503906 148.859375 97.71875 C 146.136719 90.808594 152.488281 80.730469 154.050781 79.363281 C 160.289063 71.953125 164.136719 69.308594 166.375 63.179688 C 169.003906 46.539063 175.8125 31.652344 184.765625 17.640625 C 187.925781 13.019531 194.203125 7.816406 198.578125 13.652344 C 198.96875 15.113281 198.96875 17.449219 196.925781 17.835938 L 195.5625 17.835938 C 196.632813 17.15625 196.4375 15.402344 195.757813 14.625 C 195.273438 13.457031 194.492188 12.484375 193.230469 12.289063 C 189.921875 12.097656 187.878906 15.695313 186.417969 18.128906 C 177.757813 33.015625 169.195313 49.359375 173.089844 68.042969 C 175.132813 78.941406 177.757813 90.128906 178.050781 101.222656 C 176.980469 103.75 174.839844 106.574219 171.921875 107.058594 Z M 192.0625 98.691406 C 187.785156 98.28125 183.207031 99.371094 182.71875 94.898438 L 175.910156 68.335938 C 184.078125 73.710938 198.316406 86.191406 200.914063 94.214844 C 201.597656 100.734375 194.609375 98.476563 192.0625 98.691406 Z M 195.273438 76.894531 C 188.070313 74.171875 180.675781 69.210938 176.882813 62.011719 C 177.464844 57.632813 179.800781 54.226563 183.886719 52.378906 C 188.070313 50.625 191.671875 52.378906 195.078125 54.519531 C 202.082031 62.300781 203.054688 72.613281 207.726563 81.371094 L 213.5625 90.714844 C 205.488281 89.449219 202.859375 79.523438 195.273438 76.894531 Z M 85.019531 622.246094 C 77.023438 615.617188 84.824219 598.652344 83.476563 586.933594 C 81.898438 579.34375 79.292969 573.699219 76.179688 567.570313 C 67.132813 572.824219 57.984375 578.078125 49.8125 585.570313 C 50.882813 593.257813 56.621094 599.96875 53.800781 608.433594 C 52.828125 616.316406 48.9375 624.390625 50.785156 632.273438 C 46.308594 620.792969 54.289063 610.382813 50.980469 598.121094 L 48.15625 588.199219 C 39.976563 595.53125 20.476563 623.027344 17.941406 638.039063 C 17.027344 643.449219 15.273438 647.453125 15.273438 647.453125 C 14.6875 632.175781 19.695313 624.976563 30.253906 608.144531 C 24.222656 609.019531 18.578125 611.9375 12.742188 613.785156 C 17.898438 610.574219 23.445313 604.640625 31.421875 606.292969 C 38.332031 595.589844 47.867188 584.011719 58.957031 576.910156 C 55.941406 575.257813 51.367188 576.035156 47.769531 576.230469 C 35.683594 577.589844 28.664063 583.636719 26.460938 583.625 C 23.734375 584.109375 21.59375 583.039063 19.457031 582.066406 C 31.035156 582.941406 38.234375 573.308594 49.324219 573.117188 C 54.191406 572.824219 58.203125 573.359375 62.582031 574.039063 C 69.101563 571.21875 75.109375 566.304688 81.335938 562.605469 L 78.320313 566.109375 C 79.878906 572.335938 84.546875 577.882813 85.132813 584.792969 C 86.296875 597.148438 79.363281 610.742188 85.019531 622.246094 Z M 86.980469 524.5625 C 81.335938 527.578125 79.195313 535.460938 72.480469 536.238281 C 78.710938 530.890625 83.964844 522.035156 92.332031 520.574219 L 93.304688 519.894531 C 88.4375 518.628906 82.988281 518.628906 77.832031 518.046875 L 76.421875 517.875 C 59.613281 514.226563 45.917969 524.273438 29.476563 524.371094 C 35.507813 523.203125 43.097656 520.28125 49.617188 518.726563 C 52.195313 517.511719 55.113281 517.386719 56.816406 516.878906 C 68.644531 513.328125 81.042969 515.710938 93.691406 517.851563 C 93.59375 513.082031 89.800781 509.289063 86.6875 505.394531 C 91.84375 507.828125 94.664063 513.277344 97 517.851563 C 98.734375 519.175781 103.277344 518.605469 102.839844 519.699219 C 99.140625 519.699219 91.59375 522.613281 86.980469 524.5625 Z M 102.085938 581.277344 C 101.988281 585.070313 101.183594 588.195313 100.699219 591.601563 C 99.042969 584.402344 101.769531 576.8125 102.15625 569.417969 C 99.628906 563.871094 94.761719 559.203125 90.675781 554.433594 C 93.886719 545.578125 101.476563 538.28125 108.480469 531.082031 C 105.953125 547.816406 107.898438 565.550781 102.085938 581.277344 Z M 151.683594 477.664063 C 166.082031 468.132813 187.195313 468.324219 203.929688 472.703125 C 186.320313 472.800781 167.152344 471.730469 151.683594 478.152344 Z M 193.910156 483.992188 C 190.019531 484.964844 185.640625 483.113281 181.066406 483.699219 C 172.503906 483.40625 164.039063 484.1875 156.742188 483.992188 L 157.714844 482.824219 C 169.488281 481.070313 182.71875 480.78125 193.910156 483.992188 Z M 197.605469 492.164063 C 185.25 498.292969 168.710938 498.878906 154.699219 497.027344 C 150.417969 501.699219 146.71875 506.5625 144.191406 512.011719 C 143.023438 512.109375 141.953125 512.597656 140.6875 512.402344 L 141.5625 491.3125 L 137.183594 485.546875 L 137.671875 484.867188 C 146.445313 500.371094 187.394531 493.15625 197.605469 492.164063 Z M 147.691406 429.796875 C 153.140625 425.320313 160.632813 424.445313 167.25 422.304688 C 160.925781 425.125 154.503906 427.945313 147.691406 429.796875 Z M 158.6875 415.980469 C 152.753906 418.507813 147.789063 423.859375 142.34375 426.78125 C 143.121094 423.082031 147.207031 421.234375 149.734375 418.800781 C 159.953125 412.964844 170.945313 409.167969 183.207031 408.292969 C 175.132813 410.726563 165.886719 411.210938 158.6875 415.980469 Z M 150.710938 407.613281 C 160.5625 403.308594 173.476563 401.96875 185.929688 401.773438 L 185.929688 401.96875 C 167.929688 403.621094 149.25 404.886719 137.867188 421.621094 L 136.210938 422.496094 C 137.964844 415.980469 144.96875 411.019531 150.710938 407.613281 Z M 155.867188 258.160156 C 153.726563 257.382813 152.070313 254.171875 150.902344 251.839844 C 153.140625 251.9375 155.769531 251.9375 156.742188 253.6875 C 157.132813 255.4375 156.15625 256.703125 155.867188 258.160156 Z M 154.210938 262.832031 C 151.390625 268.085938 145.84375 270.910156 140.199219 271.199219 C 134.945313 262.636719 132.515625 253.007813 129.691406 243.472656 L 130.375 241.816406 C 135.433594 244.832031 140.296875 248.140625 145.84375 249.988281 C 149.152344 253.980469 150.222656 259.039063 154.210938 262.832031 Z M 168.222656 254.171875 C 158.492188 254.660156 151.488281 247.167969 143.023438 243.859375 C 135.726563 241.234375 126.480469 236.855469 125.023438 228 C 128.234375 226.441406 131.835938 223.816406 136.210938 225.179688 L 144.871094 229.652344 C 152.167969 234.421875 153.140625 243.664063 160.730469 248.335938 C 163.261719 250.085938 165.789063 252.226563 168.222656 254.171875 Z M 150.710938 230.820313 C 156.0625 230.433594 160.925781 228.972656 165.691406 227.125 C 165.597656 232.476563 164.136719 237.828125 162.386719 242.691406 C 158.296875 242.011719 156.644531 237.4375 153.726563 234.8125 Z M 133 206.109375 C 145.078125 206.308594 151.484375 215.15625 162.578125 213.113281 C 168.808594 211.652344 175.324219 213.40625 181.066406 215.15625 C 174.644531 218.855469 165.984375 220.703125 160.050781 225.46875 C 150.710938 228.488281 141.269531 224.496094 133.683594 219.828125 C 128.894531 215.476563 129.871094 210.40625 126.359375 205.726563 C 126.359375 205.921875 128.503906 206.308594 133 206.109375 Z M 99.335938 166.605469 C 103.933594 162.238281 107.835938 168.675781 109.164063 172.246094 C 115.195313 183.925781 119.769531 196.28125 124.34375 208.636719 C 126.289063 211.753906 126.96875 215.839844 128.527344 219.339844 L 125.21875 221.96875 C 108.421875 167.894531 103.351563 163.800781 101.398438 170.039063 C 101.398438 170.039063 96.332031 173.160156 99.335938 166.605469 Z M 106.34375 214.476563 C 106.730469 207.859375 105.953125 201.730469 103.8125 196.28125 C 100.230469 191.296875 100.621094 197.925781 97.535156 197.8125 C 95.746094 193.828125 100.230469 190.515625 102.960938 192.074219 C 108.03125 194.609375 108.421875 202.214844 109.164063 208.636719 L 111.011719 227.515625 C 103.8125 228 107.21875 219.144531 106.34375 214.476563 Z M 38.429688 212.140625 C 47.378906 209.902344 55.746094 212.433594 63.824219 207.957031 C 68.394531 208.152344 73.359375 208.054688 76.664063 210.777344 C 75.789063 215.15625 74.332031 219.632813 69.953125 222.453125 C 57.984375 225.277344 47.476563 218.367188 38.429688 212.140625 Z M 40.957031 248.53125 C 55.164063 236.367188 81.824219 226.539063 80.847656 203.285156 C 80.363281 191.414063 77.734375 178.671875 80.460938 167.285156 C 82.265625 164.28125 86.191406 162.238281 89.453125 167.640625 C 90.285156 169.261719 90.089844 171.796875 86.941406 169.765625 C 84.824219 163.800781 82.09375 169.84375 82.308594 171.957031 C 77.152344 195.210938 96.515625 231.40625 64.796875 240.84375 C 57.109375 244.152344 49.226563 246.777344 40.957031 248.53125 Z M 73.648438 259.816406 C 67.226563 263.125 62.460938 266.140625 54.773438 263.515625 C 53.21875 262.347656 52.148438 260.59375 51.953125 258.648438 C 53.507813 244.347656 69.660156 245.222656 79 238.996094 C 80.65625 241.816406 79.363281 245.113281 78.804688 248.53125 C 77.414063 253.109375 78.320313 257.675781 73.648438 259.816406 Z M 85.132813 270.324219 L 76.664063 271.882813 L 76.957031 266.335938 C 82.894531 247.265625 90.675781 227.804688 87.171875 206.109375 C 86.492188 197.644531 85.324219 187.523438 87.660156 179.253906 C 91.066406 170.625 97.890625 175.5 98.167969 178.960938 C 98.863281 184.078125 94.859375 183.925781 94.859375 183.925781 C 92.625 182.128906 98.085938 179.984375 93.597656 177.210938 C 90.582031 176.527344 89.503906 180.570313 89.535156 182.609375 C 87.359375 191.101563 92.527344 211.070313 95.640625 224.984375 C 90.578125 228.777344 89.898438 235.6875 89.800781 241.328125 C 91.359375 247.945313 95.445313 253.589844 99.335938 259.328125 C 98.265625 265.847656 90.578125 268.476563 85.132813 270.324219 Z M 93.304688 277.039063 C 93.59375 274.605469 95.734375 272.953125 96.515625 270.714844 C 96.710938 271.007813 97 271.007813 97.195313 271.007813 C 97.292969 273.050781 94.570313 274.996094 93.304688 277.039063 Z M 98.167969 282 C 97.585938 279.082031 99.140625 276.550781 99.53125 273.828125 C 100.40625 273.339844 100.796875 274.507813 100.988281 275.191406 C 100.699219 277.71875 98.753906 279.566406 98.167969 282 Z M 103.519531 281.027344 C 102.839844 281.804688 103.035156 283.070313 102.351563 283.847656 L 102.351563 277.328125 C 102.839844 277.136719 103.421875 276.453125 103.8125 277.328125 C 104.007813 278.496094 103.8125 279.566406 103.519531 281.027344 Z M 102.15625 269.15625 C 100.988281 264.292969 104.882813 258.84375 101.183594 254.660156 C 97.292969 249.015625 91.746094 243.371094 94.664063 235.492188 C 97.695313 225.613281 112.320313 228.929688 114.027344 234.8125 C 116.753906 243.664063 109.941406 251.058594 106.148438 258.355469 C 104.785156 261.957031 104.199219 265.847656 102.15625 269.15625 Z M 107.996094 282.683594 C 106.050781 279.277344 106.925781 274.507813 105.367188 271.199219 C 107.996094 274.023438 107.121094 278.207031 107.996094 282.195313 Z M 109.164063 271.6875 L 108.871094 270.324219 L 109.84375 270.324219 L 113.542969 274.023438 C 112.277344 273.925781 110.429688 272.5625 109.164063 271.6875 Z M 114.320313 269.839844 C 111.789063 266.820313 108.773438 263.222656 110.039063 258.84375 C 111.691406 251.742188 118.308594 246.777344 117.824219 238.800781 C 114.320313 230.726563 115 220.410156 113.542969 212.140625 C 111.304688 203.285156 111.691406 193.363281 107.703125 185.285156 C 104.714844 179.984375 105.691406 186.613281 102.644531 185.96875 C 101.011719 185.445313 102.375 180.179688 105.175781 180.617188 C 112.710938 180.570313 115.828125 214.695313 122.007813 233.351563 C 127.066406 247.847656 132.222656 262.445313 138.0625 276.550781 C 129.402344 278.886719 120.9375 275.191406 114.320313 269.839844 Z M 122.882813 292.703125 L 121.324219 279.859375 C 127.746094 282.292969 135.140625 283.847656 142.535156 282.683594 C 143.023438 280.539063 143.507813 278.109375 143.023438 275.871094 L 152.851563 271.199219 L 152.851563 274.023438 L 144.871094 323.546875 C 142.535156 347.480469 138.742188 370.835938 134.558594 394.085938 L 130.859375 343.882813 Z M 78.515625 390.097656 C 105.691406 384.734375 127.921875 408.328125 131.542969 418.800781 C 121.714844 404.109375 107.023438 395.351563 91.164063 392.140625 Z M 90.675781 399.4375 C 104.105469 401.675781 116.070313 408.292969 125.21875 419.773438 C 115.804688 411.453125 102.644531 405.179688 90.675781 399.4375 Z M 127.164063 422.789063 C 124.246094 424.734375 120.351563 425.222656 116.851563 426.292969 C 116.558594 426 115.878906 426 116.167969 425.320313 C 119.671875 424.054688 123.269531 423.082031 127.164063 422.789063 Z M 95.152344 456.84375 L 83.964844 479.710938 C 85.226563 458.304688 105.078125 438.941406 124.828125 433.300781 C 114.125 439.234375 102.839844 445.851563 95.152344 456.84375 Z M 131.835938 436.996094 C 122.070313 443.820313 108.03125 451.425781 97.683594 468.8125 C 100.816406 455.714844 120.511719 440.3125 131.835938 436.996094 Z M 114.320313 466.671875 C 112.277344 467.839844 110.429688 469.492188 108.480469 470.855469 C 113.835938 471.632813 119.28125 472.023438 124.050781 474.164063 L 125.023438 475.527344 C 117.046875 472.703125 106.148438 470.5625 98.363281 476.5 C 105.757813 468.132813 115.488281 465.699219 123.367188 458.691406 C 128.234375 454.410156 134.617188 450.433594 134.910156 443.332031 L 135.53125 432.617188 C 138.351563 438.941406 135.238281 445.753906 134.558594 452.175781 C 134.070313 458.691406 133.878906 465.210938 133 471.535156 C 127.359375 468.519531 121.132813 466.867188 114.320313 466.671875 Z M 135.335938 532.25 C 129.402344 532.25 124.246094 533.90625 119.378906 536.238281 C 121.09375 537.617188 124.027344 541.394531 124.027344 541.394531 C 126.457031 544.316406 127.453125 548.695313 131.835938 549.375 C 144.675781 550.738281 151.097656 564.941406 159.855469 573.40625 C 151 566.890625 146.089844 554.75 135.09375 551.34375 C 133.730469 551.054688 131.542969 550.394531 130.375 551.175781 C 139.035156 567.132813 138.546875 587.566406 147.011719 602.597656 C 138.0625 590.824219 138.546875 575.160156 133.683594 561.730469 C 122.460938 579.34375 124.019531 589.875 122.492188 596.078125 C 120.703125 576.808594 127.726563 569.789063 133.195313 559.980469 C 129.207031 551.027344 120.703125 538.007813 115.695313 536.300781 C 115.695313 536.300781 115.78125 535.949219 115.683594 535.753906 C 115.746094 535.78125 118.417969 534.476563 117.894531 534.757813 C 122.175781 532.128906 126.773438 531.375 131.542969 530.207031 C 145.648438 528.652344 154.992188 538.769531 167.542969 540.910156 C 155.089844 542.273438 147.597656 531.277344 135.335938 532.25 Z M 247.617188 551.417969 C 249.5625 556.769531 250.34375 563.191406 251.316406 569.222656 C 252.09375 573.40625 254.332031 577.007813 255.789063 580.898438 C 244.503906 570.585938 254.28125 551.460938 234.386719 543.050781 C 223.859375 538.785156 217.035156 536.25 213.757813 535.070313 C 214.34375 538.28125 216.773438 541.300781 217.453125 544.703125 C 220.960938 553.558594 217.066406 565.527344 222.464844 573.601563 C 222.464844 573.601563 218.59375 571.15625 218.984375 568.425781 C 218.59375 566.085938 217.261719 542.855469 211.421875 534.390625 C 199.429688 528.9375 187.4375 525.683594 175.277344 521.949219 C 172.746094 521.753906 173.695313 524.929688 172.40625 526.144531 C 173.28125 529.355469 177.953125 530.109375 178.050781 533.90625 C 178.34375 540.425781 189.921875 544.316406 184.375 551.222656 C 183.597656 552.003906 183.207031 553.363281 182.039063 553.558594 C 182.621094 551.417969 184.664063 548.984375 183.886719 546.261719 C 183.011719 541.300781 175.035156 539.355469 176.882813 533.222656 C 175.714844 531.667969 175.035156 530.890625 172.648438 529.429688 C 171.019531 526.875 168.902344 526.898438 170.753906 524.5625 C 172.214844 523.007813 172.601563 520.722656 171.238281 518.773438 C 165.5 513.714844 156.738281 513.859375 149.6875 514.054688 C 149.6875 514.054688 150.148438 511.289063 152.851563 508.703125 L 154.40625 508.023438 C 162.09375 507.441406 172.40625 503.9375 179.996094 503.257813 L 167.542969 512.695313 C 169.78125 515.417969 172.574219 516.75 174.160156 520.28125 C 179.398438 521.625 183.691406 523.105469 188.753906 524.078125 C 202.996094 509.535156 220.546875 509.535156 240.046875 511.097656 C 240.046875 511.097656 238.289063 512.460938 229.90625 512.460938 C 219.765625 511.484375 214.695313 512.265625 208.40625 513.570313 C 201.433594 515.578125 195.78125 519.089844 190.503906 524.855469 C 190.503906 524.855469 207.726563 530.011719 215.414063 533.417969 C 221.738281 529.527344 229.617188 528.359375 237.597656 529.039063 C 230.589844 529.621094 223.097656 530.109375 218.234375 534.585938 C 240.816406 542.117188 260.070313 554.726563 277.976563 571.265625 C 267.757813 565.039063 258.320313 556.671875 247.617188 551.417969 "/>
</g>
</svg>
