<?xml version="1.0" encoding="UTF-8"?>
<svg xmlns="http://www.w3.org/2000/svg" xmlns:xlink="http://www.w3.org/1999/xlink" width="528pt" height="514pt" viewBox="0 0 528 514" version="1.1">
<g id="surface1">
<path style=" stroke:none;fill-rule:nonzero;fill:rgb(0%,0%,0%);fill-opacity:1;" d="M 512.824219 387.164063 C 512.265625 385.675781 474.898438 343.847656 471.738281 343.476563 C 469.695313 334.738281 462.628906 329.535156 460.585938 321.539063 C 457.796875 318.9375 450.359375 294.769531 446.828125 291.238281 C 445.339844 291.238281 436.417969 289.191406 434.746094 289.9375 C 431.769531 290.308594 441.996094 311.503906 443.667969 320.238281 C 431.398438 309.644531 417.453125 301.835938 402.953125 295.140625 C 387.898438 283.617188 367.261719 283.988281 352.574219 272.460938 C 346.070313 265.769531 341.421875 253.3125 331.570313 252.757813 C 332.683594 258.148438 338.261719 261.492188 339.75 266.699219 C 335.84375 267.628906 331.011719 265.210938 327.105469 263.539063 C 303.496094 255.917969 287.511719 231.9375 276.355469 212.601563 C 272.078125 199.773438 266.503906 179.695313 277.65625 167.984375 C 285.652344 159.433594 296.992188 165.753906 306.65625 164.453125 C 320.414063 164.640625 310.933594 152.371094 314.28125 145.304688 C 328.503906 133.871094 363.203125 172.265625 366.519531 151.996094 C 367.511719 145.925781 360.753906 142.515625 364.289063 136.382813 C 388.453125 126.714844 410.203125 147.164063 431.957031 139.542969 C 438.648438 136.011719 445.15625 129.316406 444.96875 121.136719 C 440.320313 111.84375 429.726563 109.796875 420.058594 109.238281 C 419.128906 108.867188 410.019531 106.636719 407.046875 102.546875 C 404.441406 97.714844 407.789063 92.507813 409.277344 87.675781 C 413.738281 85.816406 418.570313 83.585938 423.960938 85.074219 C 433.441406 86.746094 441.066406 85.257813 447.570313 77.078125 C 449.058594 76.148438 449.800781 68.714844 449.429688 66.296875 C 447.386719 63.320313 441.808594 63.320313 437.90625 64.066406 C 435.675781 62.578125 434.1875 61.464844 434.1875 58.675781 C 435.117188 49.195313 445.898438 48.820313 451.660156 43.058594 C 458.355469 37.480469 463.558594 27.816406 460.585938 19.078125 C 456.308594 13.6875 440.507813 2.347656 426.75 14.058594 C 418.566406 21.023438 415.410156 33.484375 403.792969 29.300781 C 399.886719 27.628906 401.257813 10.738281 392.359375 5.691406 C 377.03125 -2.992188 378.414063 36.550781 362.429688 39.527344 C 349.230469 33.578125 362.058594 18.148438 356.109375 7.367188 C 355.550781 4.761719 348.921875 0.742188 343.28125 0.671875 C 335.667969 0.582031 331.011719 6.25 327.664063 12.386719 C 319.113281 27.257813 322.089844 45.660156 318.183594 61.835938 C 315.394531 65.738281 316.882813 72.617188 312.050781 75.777344 C 304.613281 80.425781 303.496094 68.527344 298.664063 65.925781 C 297.566406 65.925781 294.792969 65.925781 293.644531 65.925781 C 290.300781 66.296875 288.066406 71.128906 286.578125 74.847656 C 285.277344 85.816406 287.324219 97.34375 284.722656 108.3125 C 283.605469 114.816406 276.355469 112.214844 272.265625 114.445313 C 266.875 122.253906 274.683594 129.132813 275.796875 136.382813 C 276.726563 148.464844 268.363281 155.714844 262.039063 165.011719 C 260.367188 172.820313 257.953125 179.324219 258.882813 187.691406 C 264.460938 207.023438 271.710938 225.613281 285.277344 241.601563 C 287.324219 244.390625 290.300781 248.296875 288.441406 251.082031 C 257.953125 243.089844 224.488281 230.449219 206.644531 206.46875 C 196.230469 193.640625 208.503906 173.5625 201.4375 158.691406 C 199.765625 157.203125 196.417969 157.390625 195.488281 159.621094 C 195.488281 163.523438 191.027344 160.921875 191.027344 159.992188 C 190.285156 154.042969 191.265625 148.230469 192.515625 140.84375 C 195.046875 125.847656 211.382813 115.746094 205.898438 104.222656 C 201.6875 95.371094 185.820313 103.476563 181.359375 109.613281 C 179.316406 110.914063 175.96875 113.703125 174.109375 109.984375 C 166.300781 94.554688 178.527344 81.109375 179.871094 66.296875 C 180.429688 60.160156 182.03125 45.738281 174.667969 43.058594 C 172.621094 42.316406 170.605469 38.886719 169.648438 38.597656 C 165.929688 37.480469 160.960938 36.839844 155.890625 38.597656 C 152.414063 39.804688 151.617188 41.015625 147.898438 43.617188 C 140.089844 49.007813 144.179688 59.046875 142.507813 65.925781 C 136.1875 70.199219 139.902344 79.496094 133.027344 82.84375 C 129.308594 82.46875 125.21875 84.144531 122.429688 79.683594 C 110.902344 64.4375 125.722656 25.789063 104.023438 27.070313 C 101.753906 27.207031 100.445313 27.355469 98.261719 28 C 86.371094 31.523438 85.992188 46.964844 82.648438 55.699219 C 82.648438 59.789063 77.441406 61.277344 74.28125 60.535156 C 69.632813 58.488281 71.863281 52.910156 70.5625 49.007813 C 68.144531 44.546875 64.613281 40.457031 59.035156 39.527344 C 56.804688 38.226563 53.695313 37.507813 51.042969 39.15625 C 42.210938 44.640625 35.984375 35.621094 35.425781 35.996094 C 32.265625 33.765625 29.476563 34.878906 26.503906 36.367188 C 26.875 36.550781 18.957031 42.78125 15.722656 48.078125 C 7.367188 61.753906 9.773438 78.753906 14.792969 89.164063 C 18.324219 96.597656 26.875 97.898438 33.570313 100.316406 C 36.914063 103.476563 41.375 105.335938 40.820313 110.914063 C 38.402344 114.816406 36.914063 119.648438 32.265625 121.695313 C 21.855469 121.882813 14.421875 124.296875 5.125 128.386719 C 0.847656 131.921875 -1.007813 137.683594 0.664063 143.445313 C 4.011719 157.945313 20.742188 156.085938 31.335938 159.0625 C 35.242188 160.921875 39.890625 165.195313 38.585938 169.84375 C 35.800781 180.628906 25.574219 179.324219 19.8125 186.390625 C 17.023438 190.292969 13.675781 195.3125 15.722656 200.144531 C 18.511719 207.769531 25.761719 211.484375 32.640625 214.460938 C 39.332031 215.761719 48.070313 216.320313 53.644531 212.230469 C 54.203125 211.113281 66.84375 196.613281 73.722656 191.222656 C 83.390625 185.460938 96.402344 179.695313 107.742188 185.832031 C 111.089844 188.0625 116.109375 191.964844 115.179688 196.984375 C 111.648438 206.28125 100.121094 204.980469 92.5 206.839844 C 85.0625 209.070313 78.929688 215.574219 77.8125 223.757813 C 78.183594 226.359375 78.183594 229.519531 81.34375 230.078125 C 88.410156 228.21875 87.109375 238.070313 92.128906 239.929688 C 110.347656 241.972656 122.429688 224.128906 134.511719 214.460938 C 135.628906 216.132813 136.742188 214.644531 138.046875 214.089844 C 141.578125 211.671875 147.527344 212.414063 150.128906 215.761719 C 150.6875 217.621094 150.6875 218.550781 150.128906 220.222656 C 149.386719 223.011719 148.453125 226.359375 151.429688 227.847656 C 165 231.007813 174.296875 218.734375 188.054688 219.292969 C 219.097656 227.472656 244.566406 248.851563 274.496094 259.449219 C 273.753906 259.820313 274.496094 260.5625 273.566406 260.9375 C 267.246094 261.121094 258.882813 260.5625 253.117188 260.378906 C 252.003906 260.191406 216.125 264.28125 196.976563 269.859375 C 184.519531 274.136719 174.855469 285.289063 165.746094 291.238281 C 154.21875 297.929688 139.964844 295.238281 124.101563 300.160156 C 119.570313 301.566406 114.4375 301.835938 112.578125 304.066406 C 111.089844 307.410156 113.132813 310.199219 115.738281 312.246094 C 117.222656 314.289063 121.3125 313.175781 121.128906 316.707031 C 109.414063 325.816406 92.128906 322.285156 80.972656 319.308594 C 74.46875 318.378906 71.492188 308.339844 67.960938 309.085938 C 66.84375 307.96875 64.613281 310.945313 66.101563 310.015625 C 64.429688 317.449219 54.945313 312.246094 51.972656 318.9375 C 48.070313 317.820313 48.253906 323.398438 46.582031 325.628906 C 46.394531 331.394531 51.414063 335.484375 55.875 339.386719 C 61.082031 344.40625 53.089844 349.796875 59.964844 353.699219 C 63.125 355.933594 66.660156 353.515625 69.820313 352.398438 C 75.582031 350.355469 82.089844 351.84375 86.734375 355.375 C 87.851563 357.976563 86.734375 361.507813 85.433594 362.996094 C 85.0625 366.34375 66.472656 365.972656 63.871094 372.847656 C 57.175781 374.148438 55.875 381.585938 49.742188 384.375 C 45.839844 391.066406 41.933594 402.222656 46.023438 410.402344 C 48.996094 415.046875 54.203125 419.511719 59.964844 420.066406 C 63.871094 420.441406 64.613281 416.722656 66.660156 414.304688 C 67.960938 413.003906 71.121094 413.003906 72.421875 414.304688 C 75.953125 415.421875 78.554688 419.324219 78.742188 422.855469 C 75.582031 442.191406 67.214844 464.3125 75.582031 481.789063 C 79.859375 485.503906 83.203125 478.8125 87.109375 478.070313 C 99.378906 482.902344 96.21875 498.519531 105.882813 506.699219 C 111.648438 512.460938 120.382813 515.992188 128.5625 512.460938 C 133.027344 510.042969 136.929688 505.398438 137.117188 499.632813 C 135.628906 497.402344 138.601563 492.382813 134.511719 492.382813 C 133.953125 488.480469 130.609375 485.878906 128.5625 482.53125 C 127.449219 478.441406 126.890625 473.980469 129.121094 470.074219 C 133.027344 462.453125 141.203125 457.992188 149.199219 458.921875 C 156.078125 462.453125 159.238281 469.332031 162.585938 475.839844 C 164.070313 478.070313 165.371094 487.363281 166.117188 482.53125 C 165 489.039063 168.90625 496.472656 174.667969 501.863281 C 178.199219 503.539063 182.105469 505.769531 186.195313 504.839844 C 191.214844 499.261719 199.019531 500.378906 205.339844 502.238281 C 216.125 501.308594 220.214844 491.828125 223.1875 483.089844 C 226.164063 472.863281 215.753906 464.871094 220.027344 454.089844 C 217.609375 452.042969 215.378906 448.695313 211.660156 450 C 211.105469 449.070313 185.449219 445.164063 182.105469 435.3125 C 180.429688 430.664063 181.359375 424.902344 183.03125 420.625 C 187.308594 413.191406 213.148438 415.976563 214.824219 420.625 C 219.84375 423.226563 227.835938 425.273438 233.039063 420.625 C 236.574219 408.355469 231.183594 403.710938 227.277344 393.296875 C 219.84375 389.394531 213.148438 383.816406 204.039063 383.632813 C 201.253906 389.023438 196.046875 382.328125 191.957031 385.863281 C 190.46875 386.792969 178.386719 386.234375 178.199219 380.84375 C 177.703125 366.503906 202.179688 374.335938 213.894531 371.921875 C 218.726563 369.875 224.496094 361.511719 219.65625 358.535156 C 217.839844 357.417969 216.347656 358.066406 214.265625 357.605469 C 211.238281 356.9375 208.6875 360.207031 206.644531 355.375 C 205.714844 352.585938 208.316406 351.285156 208.875 349.238281 C 209.617188 335.109375 197.71875 347.9375 190.285156 340.6875 C 186.9375 337.34375 186.007813 333.996094 186.566406 329.535156 C 187.679688 326.003906 190.839844 327.859375 193.816406 327.304688 C 195.304688 328.230469 197.160156 326.1875 196.417969 324.144531 C 196.417969 322.285156 195.304688 319.679688 193.257813 319.679688 C 186.566406 315.589844 178.015625 312.058594 179.128906 302.390625 C 181.359375 289.566406 195.675781 285.476563 205.898438 280.085938 C 231.183594 266.699219 263.902344 265.769531 291.042969 270.601563 C 291.785156 269.488281 294.761719 273.949219 295.132813 269.859375 C 296.621094 270.417969 315.210938 275.25 324.878906 278.78125 C 324.320313 283.058594 319.671875 282.871094 316.882813 285.847656 C 313.351563 299.789063 304.242188 284.917969 297.734375 285.847656 C 289.925781 281.570313 283.234375 287.707031 276.726563 290.679688 C 273.9375 293.65625 271.152344 297.929688 272.265625 302.390625 C 290.113281 300.71875 304.242188 315.21875 312.421875 327.859375 C 312.980469 331.765625 313.164063 336.226563 315.210938 339.015625 C 322.460938 339.574219 327.292969 334.367188 330.824219 328.605469 C 333.054688 323.585938 330.453125 316.148438 328.59375 312.617188 C 326.921875 307.039063 319.855469 299.046875 314.652344 292.539063 C 320.785156 285.101563 331.382813 281.941406 341.050781 282.316406 C 366.890625 289.566406 391.429688 300.160156 413.738281 316.148438 C 453.707031 338.457031 488.84375 376.566406 510.964844 414.304688 C 510.964844 415.792969 520.074219 427.503906 524.90625 433.453125 C 525.648438 434.570313 526.394531 433.265625 527.507813 433.453125 C 523.976563 417.09375 524.90625 400.363281 512.824219 387.164063 Z M 301.265625 117.234375 C 294.945313 109.238281 292.714844 93.625 296.433594 83.214844 C 297.921875 94.183594 298.105469 105.148438 303.125 115.933594 C 306.65625 114.257813 308.144531 109.238281 312.050781 106.453125 C 327.664063 96.414063 338.074219 77.078125 337.890625 57.003906 C 337.519531 47.335938 336.402344 35.4375 340.492188 26.699219 C 338.632813 43.804688 350.34375 59.046875 340.121094 75.777344 C 342.164063 79.867188 345.324219 73.734375 348.113281 73.917969 C 359.269531 66.484375 372.839844 61.464844 378.414063 47.148438 C 382.691406 40.085938 383.621094 29.675781 389.199219 23.910156 C 388.453125 33.949219 384.179688 44.175781 380.648438 52.910156 C 398.121094 49.753906 415.597656 47.894531 430.28125 36.925781 C 433.070313 36.738281 441.996094 27.441406 444.96875 22.980469 C 442.925781 33.765625 432.328125 42.6875 423.03125 46.21875 C 410.203125 51.425781 394.402344 55.328125 380.648438 61.835938 C 377.859375 63.136719 378.414063 66.484375 381.203125 65.925781 C 396.820313 67.410156 411.691406 71.128906 427.121094 73.546875 C 425.449219 75.777344 423.40625 76.335938 420.429688 76.519531 C 410.203125 72.058594 394.589844 74.847656 383.808594 69.085938 C 368.191406 70.386719 348.484375 72.804688 339.75 87.675781 C 340.492188 88.976563 341.980469 87.117188 341.980469 87.675781 C 368.378906 84.699219 384.550781 105.707031 402.585938 120.394531 C 407.789063 123.367188 413.921875 125.226563 419.5 125.601563 C 419.871094 128.761719 412.25 127.644531 409.277344 126.527344 C 384.921875 121.324219 376 92.695313 350.34375 91.765625 C 332.128906 91.765625 319.300781 109.425781 307.03125 122.066406 C 311.492188 121.511719 316.882813 121.511719 321.34375 122.066406 C 331.941406 125.972656 347 126.902344 350.902344 139.542969 C 338.261719 129.875 319.855469 126.621094 305.730469 127.367188 C 304.054688 127.738281 293.085938 148.28125 283.976563 155.15625 C 286.765625 142.144531 294.203125 128.386719 301.265625 117.234375 Z M 175.96875 209.070313 C 172.4375 207.582031 153.660156 205.910156 150.871094 206.46875 C 121.6875 205.445313 110.71875 218.921875 104.023438 222.453125 C 104.023438 221.523438 102.722656 221.152344 102.722656 220.222656 C 113.878906 204.792969 132.46875 202.003906 151.800781 202.003906 C 154.03125 201.261719 165.929688 202.378906 158.492188 197.542969 C 143.4375 185.273438 126.890625 175.605469 108.113281 173.933594 C 106.257813 172.445313 69.820313 173.375 56.433594 184.53125 C 51.785156 188.246094 46.394531 189.734375 41.191406 192.152344 C 40.074219 188.621094 42.863281 186.390625 44.351563 183.601563 C 45.652344 182.300781 60.710938 172.074219 63.125 173.003906 C 75.953125 169.285156 91.011719 165.566406 104.953125 165.753906 C 81.902344 144.375 48.253906 146.605469 22.414063 140.472656 C 21.484375 139.355469 19.625 138.984375 19.8125 137.3125 C 25.945313 138.242188 34.496094 138.796875 39.890625 140.472656 C 51.414063 142.144531 62.753906 138.242188 73.722656 144.003906 C 76.511719 144.375 78.929688 145.117188 81.71875 144.933594 C 82.648438 143.261719 80.601563 141.585938 80.042969 139.914063 C 63.683594 118.347656 45.28125 98.085938 38.03125 72.058594 C 36.355469 68.527344 35.984375 62.578125 33.570313 58.675781 C 34.3125 57.929688 33.941406 56.445313 34.125 55.144531 C 38.402344 59.976563 40.445313 67.226563 42.121094 73.917969 C 53.644531 93.253906 65.355469 114.257813 80.414063 131.921875 C 82.273438 135.078125 87.664063 136.9375 88.410156 136.382813 C 85.992188 121.511719 82.273438 102.734375 87.664063 87.304688 C 91.011719 74.105469 98.632813 59.230469 96.960938 42.316406 C 97.519531 42.316406 98.261719 42.316406 98.820313 42.316406 C 109.601563 60.160156 96.027344 76.101563 92.871094 97.527344 C 92.25 101.738281 92.3125 104.964844 91.199219 108.3125 C 94.171875 115.1875 92.3125 126.714844 96.03125 134.523438 C 102.722656 159.804688 124.101563 172.261719 146.410156 182.300781 C 146.96875 181.929688 147.339844 181.371094 147.898438 180.996094 C 136.929688 162.222656 141.761719 132.851563 145.667969 111.84375 C 151.429688 93.808594 159.238281 75.59375 156.261719 55.144531 C 155.890625 53.65625 157.378906 50.679688 159.425781 52.539063 C 162.585938 62.019531 161.785156 69.878906 161.28125 80.984375 C 160.320313 102.257813 152.359375 115.746094 147.339844 133.777344 C 148.453125 151.8125 148.085938 167.242188 154.589844 183.230469 C 157.9375 188.0625 163.699219 192.339844 168.71875 193.453125 C 168.53125 188.992188 165.929688 184.53125 165.1875 179.695313 C 163.886719 158.503906 165.1875 136.9375 181.359375 124.296875 C 187.121094 120.394531 188.796875 113.703125 192.886719 109.984375 C 196.605469 123.925781 181.359375 130.0625 177.269531 140.84375 C 169.277344 151.625 170.207031 168.355469 172.808594 181.371094 C 170.578125 186.390625 172.996094 190.105469 174.109375 194.382813 C 177.085938 200.703125 187.121094 202.5625 188.054688 210 C 184.148438 211.671875 178.570313 206.839844 175.96875 209.070313 Z M 191.027344 357.605469 C 189.539063 359.09375 185.820313 358.71875 183.03125 359.464844 C 176.339844 362.253906 166.859375 360.023438 159.050781 359.09375 C 153.101563 356.859375 148.640625 350.726563 143.4375 346.449219 C 135.070313 354.816406 135.628906 367.644531 132.652344 378.613281 C 130.796875 385.488281 130.238281 395.34375 133.027344 401.851563 C 145.667969 416.90625 167.230469 407.796875 182.660156 402.777344 C 184.890625 402.222656 200.878906 397.574219 191.027344 403.152344 C 173.738281 409.285156 151.242188 429.921875 134.511719 409.84375 C 134.699219 409.285156 133.953125 408.914063 133.585938 408.542969 C 130.796875 414.675781 137.859375 420.066406 140.648438 425.085938 C 157.007813 443.863281 178.570313 457.992188 198.648438 470.632813 C 201.996094 474.539063 205.898438 476.769531 206.269531 482.53125 C 199.394531 478.070313 194.003906 471.5625 186.195313 466.542969 C 174.855469 457.25 162.585938 450.554688 151.429688 444.234375 C 144.550781 443.304688 132.839844 441.445313 126.332031 449.070313 C 118.523438 457.25 119.082031 467.285156 120.570313 477.699219 C 119.453125 482.160156 119.640625 488.480469 117.039063 492.941406 C 113.507813 481.230469 114.25 466.171875 114.808594 454.460938 C 117.222656 443.121094 129.863281 437.171875 140.277344 434.941406 C 133.769531 427.691406 128.007813 422.671875 123.359375 413.933594 C 114.0625 424.902344 96.03125 425.085938 88.96875 439.402344 C 87.851563 444.234375 85.992188 448.882813 83.574219 453.160156 C 83.390625 432.894531 98.078125 420.625 115.179688 412.632813 C 126.148438 403.894531 122.242188 386.421875 123.730469 374.148438 C 114.4375 387.535156 96.402344 383.445313 84.503906 388.09375 C 79.113281 388.835938 74.652344 391.625 69.261719 392.554688 C 69.449219 387.535156 76.699219 385.863281 80.972656 383.632813 C 99.933594 377.683594 123.359375 374.148438 133.027344 353.144531 C 133.953125 349.425781 136.742188 346.265625 137.488281 342.546875 C 136.441406 341.652344 134.566406 343.269531 134.535156 343.941406 C 134.585938 344.09375 134.730469 344.21875 134.886719 344.21875 C 134.628906 344.21875 134.527344 344.109375 134.535156 343.941406 C 134.523438 343.910156 134.511719 343.878906 134.511719 343.847656 C 116.109375 355.933594 94.730469 341.988281 77.253906 333.625 C 77.253906 333.066406 77.253906 332.695313 77.253906 332.320313 C 93.613281 332.136719 106.070313 344.035156 122.800781 340.316406 C 133.953125 334.183594 147.710938 329.71875 154.03125 318.007813 C 146.78125 320.238281 141.949219 314.476563 135.8125 312.617188 C 135.8125 312.246094 135.8125 311.6875 135.8125 311.316406 C 141.019531 311.128906 146.226563 312.058594 151.800781 311.6875 C 156.449219 310.199219 159.609375 305.925781 163.886719 304.066406 C 165.929688 308.527344 166.488281 314.105469 170.578125 317.449219 C 170.207031 323.585938 167.605469 314.847656 164.816406 315.21875 C 164.257813 314.476563 163.328125 315.035156 162.585938 314.847656 C 157.9375 322.839844 151.800781 329.160156 149.199219 338.085938 C 150.6875 349.425781 163.140625 353.515625 173.179688 355.933594 C 179.128906 355.375 185.265625 356.859375 191.027344 357.605469 "/>
<path style=" stroke:none;fill-rule:nonzero;fill:rgb(0%,0%,0%);fill-opacity:1;" d="M 367.820313 215.390625 C 375.90625 213.808594 370.609375 189.921875 361.5 185.832031 C 361.683594 178.769531 351.460938 175.234375 346.8125 170.214844 C 346.070313 167.425781 345.140625 163.152344 342.351563 162.78125 C 340.492188 168.542969 334.542969 172.632813 328.964844 176.535156 C 326.550781 177.464844 320.972656 186.390625 319.113281 189.921875 C 310.5625 199.21875 323.019531 206.28125 327.664063 212.601563 C 338.261719 220.222656 356.480469 221.152344 367.820313 215.390625 "/>
<path style=" stroke:none;fill-rule:nonzero;fill:rgb(0%,0%,0%);fill-opacity:1;" d="M 312.421875 205.164063 C 308.515625 205.722656 311.863281 210.183594 308.890625 210 C 304.800781 223.199219 312.792969 238.257813 323.203125 246.992188 C 326.363281 242.160156 326.734375 250.339844 329.339844 249.222656 C 337.703125 249.410156 346.441406 250.898438 355.734375 249.78125 C 365.21875 247.550781 372.09375 239.1875 376.742188 231.007813 C 377.488281 226.542969 379.53125 219.664063 374.882813 215.761719 C 367.074219 224.871094 339.191406 226.914063 338.820313 224.683594 C 330.824219 221.152344 321.53125 218.363281 315.953125 209.628906 C 313.535156 208.699219 315.765625 204.050781 312.421875 205.164063 "/>
<path style=" stroke:none;fill-rule:nonzero;fill:rgb(0%,0%,0%);fill-opacity:1;" d="M 275.054688 307.226563 C 259.4375 320.238281 255.535156 341.433594 258.507813 362.066406 C 271.894531 360.949219 287.324219 358.164063 298.105469 349.238281 C 302.011719 343.660156 310.933594 340.6875 308.515625 332.320313 C 302.566406 319.679688 290.113281 305.554688 275.054688 307.226563 "/>
</g>
</svg>
