<?xml version="1.0" encoding="UTF-8"?>
<svg xmlns="http://www.w3.org/2000/svg" xmlns:xlink="http://www.w3.org/1999/xlink" width="482pt" height="459pt" viewBox="0 0 482 459" version="1.1">
<g id="surface1">
<path style=" stroke:none;fill-rule:nonzero;fill:rgb(0%,0%,0%);fill-opacity:1;" d="M 479.421875 344.355469 C 479.160156 352.957031 467.226563 360.425781 459.621094 360.554688 C 452.621094 359.351563 447.320313 352.355469 444.921875 346.152344 C 438.019531 327.554688 433.722656 300.355469 408.921875 297.855469 C 401.621094 296.652344 395.367188 291.378906 389.78125 285.988281 C 385.527344 281.890625 374.695313 269.558594 373.0625 267.746094 C 370.34375 264.734375 367.828125 261.640625 363.519531 260.453125 C 366.621094 254.453125 367.921875 247.554688 370.722656 241.355469 C 399.667969 224.429688 423.753906 198.300781 442.019531 160.355469 C 442.019531 160.355469 433.222656 168.652344 429.019531 171.855469 C 404.019531 188.621094 368.363281 185.5625 349.621094 184.351563 C 337.292969 183.558594 316.917969 179.34375 307.171875 181.058594 C 298.246094 182.949219 293.648438 192.523438 286.261719 197.042969 C 284.476563 198.132813 276.722656 201.253906 275.320313 201.054688 C 284.210938 176.035156 285.714844 149.394531 281.398438 123.414063 C 278.203125 104.164063 275.828125 93.992188 266.285156 80.488281 C 247.453125 53.855469 220.210938 32.570313 189.726563 23.1875 C 187.539063 22.511719 177.914063 19.21875 175.300781 18.4375 C 164.851563 15.324219 154.320313 14.734375 143.921875 9.855469 C 134.671875 5.574219 124.429688 3.335938 114.625 0.644531 C 107.902344 -1.199219 109.832031 2.269531 114.648438 4.253906 C 125.582031 8.746094 137.230469 13.191406 145.691406 21.910156 C 151.59375 27.996094 163.867188 46.003906 168.207031 55.613281 C 175.996094 72.867188 172.234375 92.203125 170.921875 112.152344 C 170.421875 130.652344 181.121094 144.855469 192.519531 158.152344 C 200.121094 168.554688 191.722656 180.355469 192.921875 192.054688 C 192.921875 199.753906 196.421875 207.652344 199.722656 213.953125 C 197.621094 214.453125 195.421875 214.453125 193.621094 215.453125 C 189.222656 181.253906 153.519531 159.855469 137.121094 130.453125 C 131.921875 119.753906 128.019531 108.652344 126.621094 96.253906 C 123.878906 109.8125 120.519531 123.988281 119.582031 138.007813 C 119.324219 141.871094 118.988281 155.554688 119.078125 158.480469 C 119.753906 180.515625 131.488281 199.859375 142.519531 217.953125 C 136.222656 226.855469 131.519531 239.753906 138.121094 250.355469 C 136.621094 252.453125 133.789063 252.652344 131.320313 253.253906 C 120.019531 255.253906 124.820313 268.355469 121.621094 275.953125 C 113.722656 277.753906 106.519531 281.554688 101.121094 288.152344 C 94.921875 302.652344 80.320313 311.152344 66.523438 315.554688 C 46.820313 325.054688 39.023438 345.453125 29.421875 362.652344 C 19.421875 381.152344 -1.480469 394.453125 0.621094 416.652344 C 1.933594 423.566406 2.863281 430.476563 6.023438 436.453125 C 7.171875 438.625 8.179688 437.964844 7.761719 435.792969 C 5.203125 422.546875 7.09375 407.148438 17.523438 397.953125 C 27.320313 386.953125 41.320313 383.453125 54.621094 387.851563 C 67.621094 391.253906 81.421875 394.652344 93.523438 394.753906 C 107.722656 393.054688 112.019531 375.453125 124.820313 372.054688 C 158.457031 367.40625 165.699219 364.933594 172.722656 340.355469 C 172.722656 340.355469 177.007813 340.664063 183.421875 336.597656 C 188.535156 333.355469 194.003906 330.890625 199.722656 330.253906 C 202.820313 329.953125 205.019531 329.554688 207.621094 329.152344 C 203.019531 341.355469 202.722656 356.152344 204.722656 369.152344 C 202.121094 372.652344 201.519531 377.453125 200.421875 381.054688 C 200.621094 381.453125 200.121094 383.152344 199.019531 382.851563 C 187.820313 380.851563 178.921875 372.351563 167.320313 372.351563 C 160.019531 377.753906 160.421875 387.351563 160.121094 396.152344 C 162.019531 409.253906 168.820313 422.851563 182.421875 426.753906 C 179.820313 430.152344 178.722656 434.253906 177.722656 438.253906 C 173.871094 448.699219 196.683594 454.039063 208.722656 458.054688 C 214.554688 460.386719 221.976563 454.574219 228.519531 449.453125 L 231.421875 453.355469 C 236.519531 457.753906 243.320313 459.453125 249.722656 458.054688 C 261.722656 453.953125 274.621094 450.152344 282.921875 438.652344 C 284.722656 433.851563 281.621094 429.351563 278.519531 425.652344 C 288.222656 422.753906 299.519531 421.054688 307.320313 413.453125 C 309.421875 403.851563 300.320313 398.152344 295.121094 390.753906 C 289.90625 383.582031 276.949219 383.414063 271.019531 385.753906 C 273.019531 375.351563 255.320313 353.253906 250.121094 355.152344 C 247.621094 341.355469 248.621094 326.152344 240.421875 314.753906 C 244.820313 312.054688 244.921875 308.054688 246.121094 303.652344 C 259.820313 315.652344 258.621094 337.054688 276.722656 345.054688 C 284.632813 347.988281 293.574219 348.867188 301.292969 349.234375 C 307.789063 349.546875 317.023438 352.949219 319.730469 358.183594 C 322.855469 364.230469 326.835938 370.617188 332.3125 374.117188 C 338.628906 378.15625 348.429688 378.347656 355.96875 377.90625 C 365.90625 377.320313 375.335938 374.347656 386.222656 375.953125 C 393.019531 379.652344 401.019531 380.753906 408.121094 380.652344 C 417.921875 380.253906 428.519531 374.953125 438.019531 373.851563 C 451.820313 378.851563 466.621094 373.652344 476.519531 363.054688 C 485.578125 350.660156 479.421875 344.355469 479.421875 344.355469 Z M 384.316406 294.0625 C 379.605469 293.570313 374.835938 295.988281 370.320313 297.554688 C 371.820313 289.554688 372.019531 281.855469 371.820313 273.753906 C 380.621094 281.355469 387.019531 293.253906 397.320313 298.554688 C 407.121094 303.953125 418.121094 303.355469 426.121094 312.953125 C 434.320313 323.828125 436.777344 337.011719 442.105469 348.992188 C 445.824219 357.359375 450.621094 361.253906 450.621094 361.253906 C 441.019531 359.851563 432.820313 353.253906 425.421875 347.953125 C 430.121094 347.152344 435.019531 349.253906 439.121094 350.054688 C 438.121094 347.953125 425.320313 343.753906 420.421875 343.554688 C 417.019531 341.253906 413.519531 338.855469 409.921875 336.753906 C 418.820313 334.753906 426.519531 332.855469 434.820313 337.453125 L 435.519531 336.753906 C 426.257813 325.460938 413.496094 334.695313 402.492188 331.960938 C 399.953125 331.328125 394.519531 326.652344 394.519531 326.652344 C 404.351563 324.339844 412.046875 314.410156 423.425781 317.273438 C 423.851563 317.382813 424.425781 316.347656 423.886719 316.105469 C 415.355469 312.214844 400.289063 317.6875 391.621094 324.152344 C 387.320313 325.355469 373.921875 317.652344 373.921875 317.652344 C 382.320313 312.953125 392.621094 307.652344 403.820313 307.253906 C 404.121094 306.855469 403.820313 305.453125 403.820313 305.453125 C 388.804688 301.914063 379.917969 313.285156 367.097656 315.335938 C 366.515625 315.425781 358.121094 313.355469 358.121094 313.355469 C 363.464844 305.675781 374.101563 298.566406 384.605469 295.601563 C 384.910156 295.515625 384.71875 294.105469 384.316406 294.0625 Z M 364.921875 266.152344 C 367.222656 268.753906 368.519531 291.355469 364.222656 298.554688 C 358.320313 304.453125 353.121094 313.953125 344.421875 313.355469 C 340.621094 312.753906 337.519531 310.554688 334.320313 308.355469 C 335.820313 298.253906 336.121094 283.355469 325.019531 277.355469 C 322.203125 277.269531 318.214844 277.253906 315.679688 278.1875 C 315.246094 278.347656 314.964844 277.910156 315.367188 277.671875 C 320.285156 274.765625 328.425781 274.921875 333.320313 276.953125 C 334.222656 277.054688 334.722656 276.652344 335.421875 276.253906 C 328.398438 270.351563 319.621094 274.628906 312.128906 276.015625 C 311.617188 276.109375 310.484375 274.1875 310.957031 274.171875 C 320.089844 273.878906 326.796875 265.851563 335.425781 263.707031 C 340.898438 262.347656 354.898438 261.515625 364.921875 266.152344 Z M 299.121094 266.554688 C 298.722656 268.554688 296.320313 267.054688 295.519531 268.753906 C 293.519531 269.554688 290.519531 266.953125 290.121094 269.753906 C 293.722656 273.652344 301.820313 266.152344 301.222656 274.855469 C 299.019531 277.453125 295.320313 279.453125 291.519531 278.054688 C 281.722656 273.753906 266.722656 285.554688 260.519531 271.253906 C 255.546875 260.324219 255.148438 247.027344 259.964844 235.988281 C 262.554688 230.054688 272.414063 227.949219 277.519531 229.453125 C 271.609375 241.539063 283.488281 263.910156 299.121094 266.554688 Z M 323.519531 222.652344 C 312.222656 233.152344 323.019531 255.054688 307.320313 261.554688 C 307.222656 258.753906 310.121094 256.953125 311.320313 255.054688 C 304.519531 253.652344 302.722656 265.253906 295.121094 261.554688 C 291.019531 259.554688 286.820313 255.355469 284.722656 251.054688 C 280.722656 244.152344 278.421875 233.855469 282.519531 226.253906 C 288.722656 218.054688 297.320313 205.855469 308.820313 208.554688 C 314.921875 211.253906 320.820313 216.453125 323.519531 222.652344 Z M 321.722656 213.652344 L 331.820313 210.355469 C 332.820313 210.855469 334.019531 212.253906 335.121094 213.253906 C 331.410156 212.226563 329.074219 220.609375 326.480469 219.269531 C 325.789063 218.910156 321.722656 213.652344 321.722656 213.652344 Z M 274.621094 296.453125 C 274.621094 291.554688 274.789063 284.820313 280.019531 282.753906 C 288.921875 279.355469 296.421875 287.953125 303.019531 278.453125 C 305.820313 280.554688 310.820313 281.152344 310.921875 285.953125 C 311.121094 289.253906 310.222656 295.355469 310.222656 295.355469 C 317.722656 291.753906 308.320313 278.753906 319.621094 280.953125 C 330.992188 280.40625 336.585938 309.902344 314.519531 322.753906 C 305.421875 323.253906 298.320313 317.152344 290.421875 313.753906 C 284.121094 309.652344 273.921875 305.953125 274.621094 296.453125 Z M 359.921875 258.953125 C 358.453125 262.320313 334.320313 259.753906 334.320313 259.753906 C 327.011719 260.183594 323.398438 268.378906 317.125 270.664063 C 316.105469 271.035156 307.519531 275.152344 307.019531 270.152344 C 314.222656 265.855469 325.421875 264.453125 328.222656 254.355469 C 330.921875 249.652344 332.921875 244.554688 337.621094 240.652344 L 336.921875 239.554688 C 324.222656 245.453125 323.519531 268.152344 306.320313 266.953125 C 307.019531 264.253906 310.820313 264.355469 312.722656 262.554688 C 324.519531 254.152344 317.921875 237.453125 325.320313 226.953125 C 333.820313 215.753906 345.121094 220.054688 358.121094 219.054688 C 362.222656 219.453125 364.320313 222.054688 366.722656 225.152344 C 368.320313 235.753906 364.820313 249.152344 359.921875 258.953125 Z M 336.121094 209.355469 C 340.199219 208.960938 344.527344 205.308594 348.472656 206.066406 C 349.554688 206.277344 358.621094 210.253906 362.121094 210.054688 C 360.546875 211.101563 358.46875 213.21875 356.304688 213.457031 C 355.578125 213.535156 349.546875 212.589844 346.953125 212.578125 C 343.144531 212.5625 339.15625 212.269531 336.121094 209.355469 Z M 402.019531 210.753906 C 400.222656 209.054688 402.722656 204.652344 399.921875 204.253906 C 398.121094 207.453125 397.320313 211.453125 397.722656 215.054688 L 390.121094 221.953125 C 387.519531 217.753906 392.019531 213.253906 390.519531 209.355469 C 387.222656 213.855469 385.019531 220.355469 385.519531 225.855469 L 377.519531 232.753906 C 377.320313 226.054688 379.222656 218.355469 380.121094 211.855469 C 377.476563 212.515625 373.40625 227.4375 373.550781 234.152344 C 373.558594 234.550781 371.839844 235.316406 371.847656 234.992188 C 372 228.949219 371.714844 222.394531 367.820313 217.554688 C 365.953125 214.988281 363.621094 216.054688 361.722656 214.753906 C 376.621094 202.355469 396.820313 205.152344 413.519531 196.753906 C 409.921875 201.253906 406.421875 206.652344 402.019531 210.753906 Z M 380.820313 201.054688 C 375.085938 202.097656 369.574219 206.742188 363.789063 206.984375 C 361.804688 207.066406 354.921875 204.253906 354.921875 204.253906 C 366.820313 199.855469 384.722656 200.253906 398.121094 194.152344 C 403.320313 192.054688 419.421875 185.652344 422.222656 184.855469 C 422.222656 184.855469 423.59375 191.007813 380.820313 201.054688 Z M 287.921875 200.355469 C 297.519531 195.152344 304.121094 184.554688 315.621094 184.152344 C 326.589844 182.886719 336.445313 186.070313 346.269531 187.023438 C 349.609375 187.34375 369.339844 187.097656 375.792969 187.269531 C 381.878906 187.429688 388.078125 187.429688 394.820313 186.652344 C 408.222656 187.054688 421.722656 180.054688 432.320313 171.855469 C 422.820313 183.453125 408.421875 187.554688 395.519531 191.355469 C 380.222656 195.652344 366.519531 197.253906 350.921875 201.054688 C 352.722656 197.453125 355.222656 194.152344 358.519531 191.355469 C 356.320313 190.152344 354.121094 193.253906 352.019531 194.152344 C 349.402344 196.527344 348.1875 200.445313 345.640625 202.277344 C 345.078125 202.6875 335.820313 205.355469 335.820313 205.355469 C 335.621094 200.652344 339.621094 196.253906 341.519531 191.652344 C 337.820313 193.054688 332.175781 205.253906 330.84375 206.738281 C 330 207.679688 322.621094 209.253906 319.921875 210.054688 C 321.222656 202.953125 323.222656 196.054688 328.222656 190.554688 C 326.378906 186.867188 317.6875 203.5625 316.722656 208.953125 C 313.019531 206.855469 309.019531 203.554688 304.519531 202.855469 C 305.320313 198.355469 308.320313 194.152344 310.222656 190.554688 C 304.820313 192.453125 302.621094 198.253906 300.519531 202.855469 C 291.722656 206.554688 287.121094 216.652344 280.722656 223.355469 C 280.621094 217.054688 284.722656 212.152344 286.121094 206.753906 C 281.035156 210.332031 277.121094 223.753906 277.121094 223.753906 L 267.019531 223.753906 C 267.921875 219.054688 270.820313 214.753906 272.421875 210.753906 C 269.421875 211.652344 264.277344 220.585938 263.363281 222.613281 C 262.3125 224.933594 261.066406 227.070313 258.019531 228.355469 C 254.921875 233.554688 255.820313 240.152344 250.519531 243.152344 C 250.621094 233.753906 253.519531 222.855469 259.121094 214.355469 C 258.621094 213.554688 257.519531 214.355469 257.320313 214.753906 C 250.921875 223.355469 247.722656 233.253906 246.121094 243.855469 C 244.222656 245.453125 241.921875 247.453125 239.320313 248.152344 C 239.75 240.289063 244.78125 233.300781 245.921875 225.316406 C 246.882813 218.554688 243.621094 217.953125 243.621094 217.953125 C 255.421875 204.652344 274.820313 210.253906 287.921875 200.355469 Z M 251.921875 260.453125 C 248.421875 257.453125 244.921875 255.152344 243.621094 250.355469 C 246.222656 248.554688 249.121094 247.453125 251.921875 246.054688 C 251.421875 249.753906 251.421875 255.855469 251.921875 260.453125 Z M 248.722656 264.753906 C 248.722656 264.753906 240.613281 266.8125 240.226563 266.734375 C 239.0625 266.5 238.113281 265.660156 237.519531 263.652344 L 234.621094 262.253906 C 237.621094 259.554688 235.820313 254.253906 240.421875 252.855469 C 241.421875 257.554688 245.121094 261.453125 248.722656 264.753906 Z M 253.320313 71.054688 C 258.960938 78.15625 265.511719 84.722656 269.554688 92.519531 C 273.695313 100.503906 276.773438 115.527344 278.707031 125.957031 C 282.402344 145.894531 279.734375 167.980469 274.921875 188.453125 C 273.019531 193.152344 273.222656 198.652344 269.921875 202.855469 C 261.621094 205.160156 247.058594 206.925781 238.921875 214.753906 C 239.320313 212.652344 239.722656 209.253906 240.019531 207.152344 C 249.621094 200.152344 264.820313 197.453125 267.421875 184.453125 C 261.121094 192.488281 247.460938 200.113281 240.421875 203.152344 C 241.019531 198.953125 242.121094 194.554688 242.222656 190.554688 C 253.820313 184.453125 269.820313 176.753906 273.121094 162.855469 C 273.121094 162.855469 263.289063 177.320313 242.519531 186.652344 C 242.621094 182.753906 242.320313 177.855469 242.921875 173.652344 C 256.519531 165.554688 273.921875 156.253906 276.421875 138.753906 C 276.421875 138.753906 267.621094 157.652344 243.320313 169.753906 C 243.519531 164.453125 242.519531 159.855469 242.921875 154.554688 C 255.222656 147.355469 271.722656 137.453125 270.621094 121.453125 C 260.789063 140.652344 246.820313 146.855469 243.320313 149.953125 L 241.121094 137.355469 C 252.722656 128.953125 269.621094 117.953125 267.421875 100.953125 C 259.789063 122.820313 246.921875 128.054688 240.722656 133.753906 C 239.621094 129.753906 239.953125 127.152344 238.921875 122.554688 C 250.421875 113.152344 265.320313 100.152344 260.222656 82.953125 C 254.621094 103.820313 246.519531 111.253906 237.921875 119.652344 C 236.320313 116.453125 236.519531 112.453125 235.019531 109.253906 C 244.121094 98.054688 254.820313 84.953125 248.320313 69.953125 C 245.953125 92.820313 240.621094 97.054688 233.519531 104.554688 L 229.621094 95.554688 C 235.222656 85.054688 243.722656 73.054688 238.222656 60.652344 C 235.621094 80.488281 231.019531 85.554688 227.820313 90.152344 L 223.519531 81.152344 C 226.621094 74.152344 228.019531 64.554688 226.320313 55.953125 C 225.621094 55.652344 224.320313 70.253906 220.921875 76.152344 L 215.519531 68.152344 C 217.128906 58.0625 210.921875 42.953125 210.921875 42.953125 C 210.789063 48.988281 213.019531 58.453125 212.320313 64.253906 L 206.519531 58.453125 C 207.722656 47.554688 201.421875 39.253906 193.921875 32.554688 C 193.921875 32.554688 203.519531 46.355469 202.921875 55.253906 C 187.722656 42.652344 173.019531 29.253906 157.222656 17.453125 C 180.46875 17.855469 234.75 45.675781 253.320313 71.054688 Z M 200.121094 170.453125 C 200.453125 154.375 184.804688 145.027344 178.6875 131.699219 C 176.550781 127.046875 175.769531 121.652344 175.5 115 C 174.847656 98.910156 180.484375 83.492188 176.117188 68.429688 C 175.78125 67.269531 168.246094 48.105469 167.542969 46.691406 C 161.066406 33.679688 151.011719 21.542969 138.921875 13.152344 C 158.519531 19.855469 174.921875 37.054688 191.820313 49.855469 L 199.019531 56.652344 C 191.121094 58.453125 184.121094 52.453125 177.019531 49.453125 C 177.820313 52.253906 195.621094 61.152344 202.921875 60.652344 C 206.121094 62.953125 208.320313 66.554688 210.519531 69.253906 C 200.019531 71.253906 181.722656 64.554688 181.722656 64.554688 C 191.421875 72.152344 203.921875 74.054688 214.121094 72.855469 C 216.421875 75.855469 218.722656 78.855469 219.921875 82.253906 C 204.453125 84.652344 185.722656 77.152344 185.722656 77.152344 C 195.320313 85.652344 209.621094 85.253906 221.320313 85.152344 C 222.820313 88.355469 225.519531 91.855469 226.019531 95.953125 C 215.421875 95.355469 199.289063 93.988281 187.519531 91.554688 C 199.722656 99.054688 213.519531 98.453125 227.421875 99.554688 L 231.722656 112.453125 C 216.121094 114.953125 201.121094 109.253906 187.121094 104.554688 C 187.519531 106.953125 217.722656 116.855469 232.121094 116.054688 C 233.421875 117.753906 235.121094 129.152344 236.121094 131.953125 C 218.820313 130.554688 200.222656 126.054688 185.722656 114.953125 C 189.453125 127.988281 218.722656 132.664063 236.421875 136.554688 L 237.921875 147.753906 C 210.953125 145.988281 187.519531 133.355469 187.519531 133.355469 C 200.222656 148.355469 221.621094 147.355469 238.222656 150.652344 L 238.621094 160.753906 C 229.019531 162.753906 207.621094 159.253906 207.621094 159.253906 C 216.421875 167.652344 228.019531 164.253906 238.921875 165.054688 C 239.320313 168.152344 239.121094 172.652344 238.621094 176.554688 C 229.019531 177.054688 221.722656 175.253906 213.722656 171.855469 C 207.339844 175.042969 235.078125 179.996094 238.222656 180.554688 C 238.421875 184.152344 237.222656 188.355469 237.121094 192.054688 C 225.320313 190.054688 213.421875 185.753906 204.722656 175.855469 C 201.238281 179.832031 225.449219 192.660156 236.421875 196.355469 C 237.019531 199.753906 236.121094 202.054688 235.320313 205.355469 C 224.121094 201.652344 212.289063 199.820313 201.921875 191.355469 C 207.320313 204.652344 222.820313 205.453125 234.320313 208.554688 C 234.820313 210.453125 234.320313 213.953125 233.921875 215.753906 C 223.519531 215.355469 215.519531 212.253906 204.722656 212.953125 C 192.621094 202.253906 199.121094 184.453125 200.121094 170.453125 Z M 239.722656 221.152344 C 241.453125 228.152344 234.519531 252.855469 231.019531 260.054688 C 215.121094 256.820313 202.921875 264.054688 202.921875 264.054688 C 201.871094 261.878906 199.808594 259.816406 199.601563 257.316406 C 199.535156 256.484375 202.820313 250.355469 202.621094 248.152344 C 199.621094 249.652344 198.222656 252.953125 196.820313 255.753906 C 193.722656 254.453125 189.320313 253.855469 188.519531 249.253906 C 186.222656 239.953125 188.019531 230.953125 190.722656 222.253906 C 202.722656 210.671875 239.722656 221.152344 239.722656 221.152344 Z M 187.519531 207.554688 L 188.222656 212.953125 C 185.019531 212.253906 167.820313 202.355469 162.621094 201.753906 C 157.121094 197.355469 164.019531 191.453125 162.320313 185.953125 C 159.621094 187.953125 161.121094 192.453125 157.621094 194.554688 L 152.921875 186.953125 C 155.121094 181.488281 154.019531 174.753906 154.019531 174.753906 L 150.722656 181.554688 C 145.222656 178.355469 149.320313 170.753906 148.621094 165.355469 C 146.820313 166.253906 146.519531 168.953125 145.722656 170.753906 C 139.320313 166.652344 144.621094 160.753906 142.519531 154.953125 L 140.320313 159.953125 C 137.921875 156.054688 135.921875 149.953125 137.820313 145.253906 C 137.820313 145.253906 135.320313 146.355469 134.921875 147.355469 C 130.421875 139.253906 128.519531 129.355469 128.421875 118.953125 C 138.019531 153.953125 175.820313 173.652344 187.519531 207.554688 Z M 122.472656 153.488281 C 122.527344 149.960938 123.621094 125.320313 125.921875 116.054688 C 127.289063 132.652344 131.320313 147.753906 131.320313 147.753906 L 127.320313 145.953125 C 127.320313 148.855469 131.722656 150.652344 132.722656 153.554688 C 134.421875 156.152344 135.820313 158.953125 136.722656 161.753906 C 135.121094 162.355469 131.820313 158.152344 130.621094 160.753906 C 135.320313 164.652344 141.820313 168.355469 141.722656 174.753906 C 139.121094 175.652344 137.921875 171.253906 135.621094 173.355469 C 139.820313 176.855469 147.519531 178.855469 147.519531 185.554688 C 145.222656 187.355469 142.121094 185.152344 139.921875 185.554688 C 142.488281 187.84375 146.9375 187.773438 149.851563 189.722656 C 151.136719 190.582031 152.921875 194.953125 152.921875 194.953125 C 150.222656 195.953125 146.820313 195.652344 144.320313 197.054688 C 146.851563 198.449219 150.59375 196.726563 153.5 198.050781 C 153.929688 198.246094 156.621094 200.953125 156.519531 202.453125 C 152.820313 205.652344 147.820313 209.054688 145.320313 213.652344 C 131.9375 196.121094 122.128906 175.832031 122.472656 153.488281 Z M 125.519531 269.453125 C 126.820313 264.953125 126.722656 258.953125 132.421875 257.152344 C 135.320313 255.554688 138.820313 255.355469 141.722656 253.953125 C 149.320313 261.253906 159.722656 261.554688 168.019531 266.953125 C 168.621094 270.355469 168.019531 274.953125 171.320313 276.652344 C 171.722656 272.652344 170.121094 267.253906 172.722656 263.355469 C 175.820313 259.054688 180.421875 257.652344 183.519531 253.953125 C 181.722656 252.253906 178.019531 253.855469 175.921875 255.355469 C 173.121094 256.953125 170.621094 260.152344 169.121094 262.554688 C 160.320313 256.953125 149.121094 255.453125 142.121094 247.152344 C 135.820313 238.355469 141.121094 228.355469 144.621094 220.152344 C 148.621094 214.855469 153.320313 207.355469 160.519531 206.753906 C 180.453125 208.988281 187.519531 219.753906 187.519531 219.753906 C 181.820313 229.953125 182.921875 242.855469 186.421875 252.855469 C 188.921875 256.152344 193.519531 255.855469 196.121094 259.355469 C 192.320313 258.753906 189.320313 258.953125 185.722656 259.753906 C 186.320313 261.753906 195.820313 262.253906 197.519531 264.355469 C 192.519531 264.355469 188.222656 265.953125 183.121094 265.855469 C 183.421875 267.554688 199.722656 267.953125 199.722656 267.953125 C 199.121094 269.855469 188.019531 271.554688 185.320313 273.753906 C 188.421875 274.753906 194.621094 273.753906 198.320313 273.054688 C 198.320313 273.054688 200.789063 275.652344 185.320313 280.253906 C 186.519531 280.753906 195.722656 279.152344 195.722656 279.152344 C 189.519531 284.152344 182.820313 285.054688 175.222656 282.054688 C 162.054688 283.28125 156.589844 294.992188 152.222656 302.953125 C 150.421875 303.355469 147.722656 302.253906 145.722656 301.152344 C 141.320313 298.054688 140.421875 289.855469 133.519531 290.652344 C 131.320313 290.253906 130.320313 290.253906 128.421875 289.253906 C 123.222656 283.953125 125.722656 276.355469 125.519531 269.453125 Z M 54.621094 330.652344 C 65.523438 318.554688 81.921875 316.554688 94.921875 307.953125 C 101.820313 300.355469 103.320313 289.152344 113.722656 284.152344 C 116.222656 283.152344 118.722656 282.054688 121.222656 280.953125 C 121.820313 286.554688 122.421875 292.753906 127.019531 296.054688 C 135.121094 293.855469 138.921875 302.152344 143.222656 306.855469 L 141.722656 308.355469 C 128.585938 301.042969 98.082031 299.449219 102.921875 305.054688 C 114.421875 299.152344 129.820313 306.953125 138.519531 311.152344 C 136.320313 313.453125 134.222656 316.054688 132.019531 318.054688 C 121.820313 313.652344 111.722656 303.253906 100.320313 310.152344 C 112.453125 309.988281 122.820313 316.652344 128.820313 320.953125 L 121.621094 327.054688 C 115.621094 321.054688 108.621094 312.855469 99.320313 312.652344 C 98.921875 313.054688 97.722656 313.054688 98.222656 314.054688 C 106.621094 314.855469 112.222656 323.054688 117.621094 329.152344 C 116.019531 331.054688 113.722656 332.855469 111.121094 333.152344 C 106.320313 325.152344 97.621094 314.953125 87.722656 316.554688 L 87.023438 317.355469 C 94.855469 320.109375 105.097656 328.085938 107.519531 335.355469 C 105.019531 336.355469 102.519531 337.453125 100.019531 338.554688 C 93.023438 329.355469 82.722656 320.253906 70.523438 323.054688 C 69.820313 323.355469 70.222656 324.054688 70.121094 324.554688 C 81.121094 324.652344 89.320313 331.453125 96.421875 339.652344 L 88.523438 342.554688 C 80.421875 333.753906 66.921875 330.554688 56.820313 334.253906 L 56.421875 334.554688 L 57.121094 335.355469 C 67.621094 333.753906 76.621094 337.855469 84.121094 344.355469 C 81.195313 345.050781 77.972656 346.964844 75.074219 346.398438 C 68.910156 345.195313 62.871094 338.476563 52.121094 343.253906 C 53.722656 345.355469 68.820313 345.554688 72.320313 348.253906 C 69.820313 350.253906 66.820313 350.753906 64.023438 351.855469 C 58.921875 349.953125 49.621094 347.554688 44.222656 351.554688 C 44.222656 351.554688 54.722656 352.855469 59.320313 354.054688 C 48.421875 359.953125 38.121094 367.453125 27.621094 374.152344 C 38.222656 360.351563 41.621094 343.554688 54.621094 330.652344 Z M 156.121094 360.851563 C 143.320313 368.953125 129.820313 362.554688 117.320313 371.652344 C 106.121094 377.953125 98.121094 393.554688 82.722656 390.054688 C 61.722656 385.652344 37.121094 376.453125 19.023438 391.851563 C 11.820313 398.554688 5.921875 405.953125 3.921875 414.851563 C -1.257813 399.578125 33.734375 374.753906 39.921875 370.253906 C 38.523438 373.453125 35.023438 376.554688 36.320313 379.953125 C 41.652344 375.660156 43.367188 369.117188 47.875 364.914063 C 49.453125 363.441406 54.320313 361.253906 54.320313 361.253906 C 53.722656 366.652344 51.320313 372.351563 48.121094 377.054688 C 48.121094 377.054688 49.789063 378.988281 54.320313 370.953125 C 56.460938 367.410156 56.679688 361.949219 59.183594 358.535156 C 60.429688 356.839844 66.121094 355.453125 66.121094 355.453125 C 66.722656 364.152344 62.722656 371.351563 58.921875 378.554688 L 59.722656 379.253906 C 67.820313 373.253906 68.820313 363.152344 70.121094 353.652344 C 72.320313 352.054688 75.320313 352.554688 77.320313 350.453125 C 77.023438 360.851563 78.523438 371.054688 73.320313 380.351563 C 75.621094 380.851563 82.289063 373.988281 81.320313 349.753906 C 83.222656 348.554688 85.621094 347.953125 87.722656 347.152344 C 89.320313 359.753906 89.820313 370.554688 85.921875 382.152344 C 85.921875 382.152344 94.957031 376.152344 92.121094 345.753906 C 93.792969 345.613281 96 343.96875 97.625 343.933594 C 103.621094 364.488281 99.320313 375.953125 99.320313 375.953125 C 109.019531 367.753906 102.019531 352.355469 102.519531 342.152344 L 111.921875 337.855469 C 111.921875 337.855469 113.066406 353.835938 110.320313 364.535156 C 109.722656 366.867188 106.921875 372.054688 107.921875 372.753906 C 116.339844 368.144531 117.769531 350.875 115.519531 335.652344 L 122.722656 331.753906 C 125.421875 341.054688 127.921875 351.753906 126.621094 360.851563 C 128.421875 360.753906 128.722656 358.855469 129.519531 357.652344 C 132.519531 351.355469 126.320313 329.152344 126.320313 329.152344 C 128.621094 328.152344 130.222656 325.554688 132.722656 324.855469 C 135.222656 334.652344 137.121094 347.355469 135.320313 357.652344 C 137.820313 357.054688 137.722656 354.355469 138.921875 352.554688 C 141.621094 342.355469 136.820313 330.855469 137.421875 320.554688 L 143.519531 315.152344 C 146.519531 327.652344 149.121094 341.355469 147.921875 353.652344 C 147.722656 356.054688 144.921875 357.953125 146.421875 360.152344 C 155.871094 351.710938 153.320313 339.84375 150.808594 328.648438 C 150.078125 325.394531 147.085938 315.21875 146.753906 313.296875 C 146.472656 311.664063 147.007813 310.15625 149.722656 309.054688 C 156.074219 313.085938 157.6875 319.28125 158.507813 325.980469 C 159.027344 330.246094 159.519531 342.253906 160.820313 343.953125 C 164.921875 337.554688 164.019531 326.554688 161.519531 320.554688 C 163.820313 323.953125 168.820313 335.253906 169.519531 337.855469 C 164.621094 345.355469 165.519531 355.855469 156.121094 360.851563 Z M 196.820313 325.554688 C 187.921875 326.453125 182.121094 337.054688 172.722656 334.554688 C 167.722656 324.753906 164.320313 313.953125 156.121094 305.753906 C 156.519531 297.554688 165.421875 290.253906 172.320313 286.753906 C 175.820313 283.453125 178.320313 288.253906 181.722656 288.152344 C 181.121094 291.253906 179.820313 294.855469 181.320313 297.855469 C 181.320313 297.855469 184.019531 290.652344 186.722656 287.753906 C 191.808594 288.964844 195.851563 282.941406 199.589844 285.046875 C 200.480469 285.550781 205.988281 293.265625 207.265625 296.164063 C 210.621094 303.769531 211.269531 312.660156 209.820313 320.554688 C 208.820313 327.152344 200.921875 324.453125 196.820313 325.554688 Z M 165.921875 379.253906 C 166.820313 374.554688 171.320313 377.453125 174.121094 378.152344 C 183.019531 381.351563 191.121094 385.253906 200.820313 387.554688 C 205.914063 400.542969 220.621094 396.152344 220.621094 396.152344 C 214.621094 406.351563 206.722656 417.351563 196.519531 423.152344 C 179.519531 430.082031 159.789063 410.59375 165.921875 379.253906 Z M 229.191406 441.917969 C 226.867188 446.488281 222.609375 454.164063 214.519531 454.855469 C 206.222656 454.355469 183.019531 447.054688 181.019531 442.253906 C 180.320313 437.152344 183.222656 432.152344 185.722656 428.152344 C 207.421875 430.953125 217.222656 407.453125 227.121094 392.152344 C 227.121094 396.851563 223.121094 401.652344 221.722656 406.554688 L 222.421875 407.351563 C 227.121094 403.152344 229.121094 397.253906 231.722656 391.851563 L 233.921875 392.152344 C 233.921875 392.152344 231.636719 400.746094 231.535156 402.480469 C 230.730469 416.378906 235.34375 429.808594 229.191406 441.917969 Z M 276.421875 438.253906 C 263.933594 451.957031 249.398438 457.75 233.921875 450.554688 C 230.019531 447.253906 232.421875 443.152344 234.320313 439.753906 C 238.421875 429.054688 237.121094 417.351563 235.320313 405.554688 C 236.222656 401.054688 236.019531 395.953125 238.621094 392.152344 C 238.257813 396.816406 238.808594 401.816406 240.285156 406.15625 C 240.421875 406.558594 241.507813 406.429688 241.507813 405.984375 C 241.496094 401.679688 241.859375 398.328125 242.222656 393.253906 C 244.570313 392.375 245.765625 392.863281 246.464844 393.980469 C 247.753906 396.046875 251.832031 405.570313 253.128906 407.480469 C 258.097656 414.789063 264.097656 422.574219 272.421875 424.953125 C 274.820313 429.054688 278.921875 432.851563 276.421875 438.253906 Z M 277.121094 389.351563 C 280.726563 388.519531 283.839844 389.253906 286.621094 390.871094 C 292.171875 394.09375 307.621094 409.152344 303.019531 412.753906 C 293.921875 418.652344 281.722656 424.453125 270.621094 419.953125 C 262.621094 412.851563 255.222656 403.753906 251.519531 393.953125 C 259.421875 393.054688 268.421875 390.351563 277.121094 389.351563 Z M 252.320313 359.054688 C 259.132813 362.242188 266.199219 375.988281 266.722656 386.054688 C 262.722656 390.351563 256.320313 389.953125 250.820313 389.351563 C 243.519531 386.453125 233.820313 380.851563 226.320313 387.152344 C 221.621094 391.054688 214.222656 390.554688 208.320313 389.652344 C 201.21875 387.285156 203.523438 372.820313 210.921875 367.351563 C 217.644531 365.941406 223.886719 367.21875 230.105469 366.378906 C 238.59375 365.226563 244.617188 361.78125 252.320313 359.054688 Z M 245.421875 356.953125 C 243.621094 358.253906 241.421875 358.652344 239.320313 359.453125 C 239.421875 346.652344 238.519531 334.054688 233.222656 323.753906 L 232.519531 324.554688 C 235.222656 335.453125 234.621094 349.152344 235.722656 360.851563 C 234.722656 360.953125 233.320313 362.351563 231.722656 362.351563 C 230.621094 351.753906 231.519531 339.054688 228.121094 328.152344 L 227.421875 328.152344 C 227.722656 340.953125 228.421875 349.554688 227.421875 362.351563 C 226.519531 362.953125 225.320313 362.554688 224.222656 362.652344 C 222.121094 350.453125 225.320313 337.753906 222.722656 325.253906 C 222.222656 325.054688 222.019531 325.652344 221.722656 325.953125 C 222.222656 339.453125 218.820313 350.054688 219.519531 362.351563 L 215.921875 362.351563 C 213.621094 350.855469 219.019531 339.054688 216.621094 327.054688 L 215.519531 328.152344 C 215.519531 340.855469 211.222656 350.753906 212.320313 363.351563 L 208.019531 364.851563 C 205.621094 350.855469 208.519531 335.453125 214.121094 323.054688 L 214.519531 318.753906 C 221.722656 319.253906 228.320313 318.355469 234.621094 316.554688 C 246.921875 326.152344 244.019531 342.652344 245.421875 356.953125 Z M 235.320313 312.253906 C 228.453125 315.820313 218.121094 313.253906 215.222656 311.953125 C 215.421875 300.152344 210.519531 288.554688 200.121094 281.652344 L 202.621094 275.152344 C 205.320313 275.953125 206.121094 276.554688 208.722656 277.355469 C 209.519531 274.855469 203.328125 271.144531 203.277344 270.472656 C 203.210938 269.535156 203.554688 268.070313 203.320313 267.253906 C 211.152344 262.089844 226.300781 263.476563 233.921875 266.953125 C 240.851563 274.980469 246.957031 306.292969 235.320313 312.253906 Z M 241.519531 270.152344 C 245.519531 270.253906 250.421875 268.953125 254.121094 268.355469 C 254.320313 269.753906 255.019531 270.855469 255.121094 272.355469 L 242.921875 273.753906 C 242.121094 272.652344 241.519531 271.554688 241.519531 270.152344 Z M 243.621094 276.652344 C 247.921875 276.152344 253.722656 274.554688 258.019531 275.152344 L 261.621094 279.152344 C 257.019531 279.652344 250.019531 280.253906 244.722656 279.554688 C 244.019531 278.753906 244.019531 277.652344 243.621094 276.652344 Z M 245.421875 283.152344 C 251.121094 281.253906 255.519531 283.953125 261.621094 282.054688 C 266.320313 280.652344 268.421875 284.453125 273.121094 283.855469 C 274.121094 284.152344 271.878906 285.964844 271.277344 286.089844 C 264.316406 287.535156 246.527344 286.191406 245.421875 283.152344 Z M 269.1875 293.78125 C 267.292969 294.199219 251.421875 293.152344 246.121094 291.054688 L 246.121094 288.554688 C 250.222656 287.953125 265.722656 289.253906 271.320313 289.253906 C 272.144531 292.261719 270.96875 293.386719 269.1875 293.78125 Z M 246.121094 294.953125 L 246.121094 293.953125 C 254.121094 294.953125 261.519531 298.054688 270.320313 297.855469 C 270.921875 299.753906 270.519531 301.253906 270.621094 302.953125 C 262.519531 302.253906 254.121094 297.953125 246.121094 294.953125 Z M 424.722656 369.851563 C 413.320313 376.554688 398.019531 378.453125 386.222656 370.253906 C 375.621094 369.652344 366.121094 374.820313 354.921875 373.152344 C 345.320313 371.652344 332.820313 371.453125 328.222656 360.851563 C 325.519531 355.554688 322.621094 349.453125 316.320313 347.554688 C 301.820313 343.152344 280.222656 348.953125 270.320313 333.554688 C 264.019531 322.253906 257.320313 309.953125 248.722656 300.054688 C 254.820313 302.652344 260.121094 304.054688 266.320313 306.554688 C 268.519531 313.953125 270.320313 321.554688 275.320313 327.753906 L 276.421875 326.652344 C 273.222656 320.652344 270.621094 313.652344 270.621094 307.253906 C 273.722656 306.652344 281.121094 312.535156 282.078125 313.769531 C 284.953125 317.464844 283.621094 323.878906 285.722656 328.152344 C 286.421875 330.554688 287.121094 333.152344 289.320313 334.554688 L 286.519531 317.652344 C 290.519531 321.054688 295.921875 321.453125 300.121094 324.554688 C 300.621094 330.054688 301.222656 336.355469 305.519531 339.652344 C 304.519531 335.054688 303.820313 330.953125 303.421875 326.355469 C 307.121094 328.054688 311.320313 328.953125 316.722656 328.453125 C 317.820313 334.554688 318.320313 341.355469 323.519531 345.054688 C 322.019531 339.554688 320.621094 333.253906 320.722656 326.652344 C 324.820313 322.753906 329.320313 318.054688 332.222656 312.652344 C 333.921875 313.355469 335.320313 314.753906 336.921875 315.855469 C 334.09375 368.300781 344.820313 365.152344 344.820313 365.152344 C 337.121094 354.652344 338.320313 339.953125 339.019531 327.753906 L 340.519531 317.355469 C 343.320313 318.453125 346.421875 318.152344 349.121094 317.652344 C 351.621094 334.652344 347.820313 357.253906 365.722656 367.753906 C 361.621094 362.652344 360.304688 359.367188 359.523438 358.019531 C 352.464844 345.804688 352.289063 330.691406 353.820313 316.554688 C 358.320313 317.253906 363.621094 317.953125 367.820313 320.152344 C 369.019531 333.753906 361.121094 354.355469 375.019531 364.851563 C 367.953125 350.988281 371.121094 332.855469 372.121094 322.355469 C 374.621094 321.953125 377.421875 324.355469 380.121094 325.253906 C 385.257813 339.105469 379.128906 357.652344 393.742188 366.890625 C 394.214844 367.1875 394.804688 365.53125 394.46875 365.15625 C 385.605469 355.316406 386.648438 340.375 384.722656 327.753906 L 396.320313 333.152344 C 398.636719 343.15625 403.449219 368.386719 412.121094 370.554688 L 413.222656 369.851563 C 403.320313 362.554688 402.621094 348.953125 401.320313 336.753906 C 405.019531 338.953125 410.222656 341.054688 412.820313 345.355469 C 415.121094 353.152344 417.421875 363.351563 426.921875 365.554688 C 427.320313 365.351563 417.453125 359.488281 417.921875 348.652344 C 422.621094 351.253906 428.320313 357.453125 434.121094 359.054688 C 445.121094 364.753906 455.519531 367.851563 467.921875 364.851563 C 454.820313 375.152344 438.722656 365.152344 424.722656 369.851563 "/>
</g>
</svg>
