<?xml version="1.0" encoding="UTF-8"?>
<svg xmlns="http://www.w3.org/2000/svg" xmlns:xlink="http://www.w3.org/1999/xlink" width="399pt" height="678pt" viewBox="0 0 399 678" version="1.1">
<g id="surface1">
<path style=" stroke:none;fill-rule:nonzero;fill:rgb(0%,0%,0%);fill-opacity:1;" d="M 395.445313 264.648438 C 379.605469 261.183594 361.785156 262.914063 348.171875 270.09375 C 327.628906 280.238281 321.9375 301.277344 318.71875 320.828125 C 318.472656 335.433594 324.65625 347.3125 333.816406 358.203125 C 304.609375 411.167969 267.980469 460.667969 249.171875 517.839844 C 248.429688 516.851563 223.050781 468.332031 214.054688 443.488281 C 186.425781 367.210938 175.867188 282.820313 183.335938 199.554688 C 190.511719 191.140625 203.136719 185.941406 208.332031 175.546875 C 228.378906 179.753906 245.210938 197.328125 268.722656 188.167969 C 264.761719 182.476563 260.0625 176.289063 259.8125 170.347656 C 270.703125 167.378906 282.335938 165.644531 292.976563 161.4375 C 290.503906 157.972656 288.277344 155.003906 285.800781 151.539063 C 286.542969 128.769531 315.253906 141.144531 320.449219 121.34375 C 301.144531 117.136719 281.347656 114.660156 260.804688 113.175781 C 277.878906 106 295.203125 99.316406 311.539063 90.160156 C 311.046875 86.199219 305.351563 83.722656 306.34375 80.257813 C 327.875 58.230469 286.542969 70.605469 276.890625 65.902344 C 278.871094 60.707031 289.265625 56.25 290.996094 50.0625 C 284.066406 45.609375 273.921875 42.886719 270.703125 36.699219 C 269.464844 33.726563 272.683594 32.492188 271.445313 29.519531 C 263.523438 30.261719 255.109375 31.996094 247.4375 31.253906 C 251.398438 -7.605469 226.894531 40.90625 215.261719 42.886719 C 211.796875 30.757813 210.3125 18.136719 201.898438 7.988281 C 198.183594 9.226563 193.976563 9.226563 190.511719 10.710938 C 187.789063 7.246094 185.066406 3.53125 182.34375 0.0664063 C 174.921875 14.175781 168.980469 29.769531 159.328125 41.894531 C 155.121094 28.035156 151.40625 14.421875 146.703125 1.058594 C 142.25 5.265625 137.546875 10.710938 133.339844 13.433594 C 125.421875 -0.675781 117.5 26.054688 109.332031 7.988281 C 107.105469 28.53125 106.113281 52.042969 106.609375 71.347656 C 105.867188 72.089844 105.621094 72.585938 104.878906 73.082031 C 87.800781 65.902344 72.453125 53.777344 55.871094 45.609375 C 53.148438 48.082031 50.425781 50.804688 47.953125 53.527344 C 30.875 54.269531 15.777344 48.082031 0.679688 55.261719 C 10.085938 65.65625 23.695313 73.082031 31.863281 84.714844 C 29.390625 86.941406 25.675781 88.179688 23.695313 90.160156 C 26.417969 92.632813 25.675781 97.335938 29.140625 99.070313 C 26.667969 101.542969 23.695313 104.265625 21.964844 106 C 23.449219 108.472656 25.675781 111.691406 27.410156 113.175781 C 24.4375 115.898438 22.460938 119.117188 20.230469 122.085938 C 33.101563 127.53125 49.929688 130.253906 58.59375 139.164063 C 46.714844 141.886719 34.339844 143.867188 22.953125 148.074219 C 25.675781 155.5 31.121094 163.171875 21.964844 169.359375 C 35.082031 176.042969 19.984375 186.1875 21.222656 195.097656 C 41.269531 187.425781 62.058594 178.019531 83.59375 175.546875 C 83.34375 179.753906 81.859375 183.714844 79.878906 187.179688 C 83.59375 189.902344 86.808594 196.832031 93.246094 194.355469 C 96.710938 202.523438 110.816406 201.78125 108.34375 212.175781 C 118.984375 203.019531 130.371094 193.367188 142.25 189.902344 C 139.03125 205.988281 138.042969 223.066406 136.0625 239.648438 C 140.765625 239.898438 143.734375 235.9375 148.4375 236.183594 C 153.636719 245.34375 160.8125 232.472656 166.257813 237.175781 C 166.257813 255.242188 169.722656 272.320313 169.96875 290.636719 C 181.601563 378.003906 198.433594 463.390625 244.714844 536.402344 C 231.84375 580.460938 225.90625 629.214844 228.628906 677.230469 C 230.609375 676.984375 233.328125 677.972656 235.0625 676.242188 C 233.328125 635.898438 239.703125 559.496094 250.160156 546.304688 C 259.070313 558.679688 267.980469 571.300781 276.890625 583.675781 C 291.742188 601 306.839844 627.238281 333.074219 625.503906 C 304.609375 593.578125 274.414063 562.144531 253.625 526.75 C 274.910156 467.351563 307.332031 413.148438 345.449219 360.925781 C 354.359375 359.441406 364.257813 360.679688 372.179688 356.46875 C 401.632813 335.433594 402.125 297.070313 395.445313 264.648438 Z M 294.710938 129.265625 C 279.613281 133.964844 257.832031 134.460938 240.261719 139.164063 C 251.148438 144.609375 266.992188 142.382813 278.621094 148.074219 C 275.15625 151.042969 283.078125 157.230469 273.179688 155.992188 C 253.378906 157.972656 237.042969 159.707031 217.984375 155.992188 C 225.164063 164.65625 238.527344 170.597656 248.429688 179.257813 C 229.863281 177.03125 213.777344 167.378906 198.433594 159.460938 C 196.949219 153.519531 202.640625 159.953125 204.621094 156.984375 C 214.273438 153.023438 223.429688 148.320313 232.339844 142.628906 C 226.648438 137.183594 189.027344 150.550781 215.261719 134.710938 C 240.011719 126.046875 266.992188 128.273438 294.710938 129.265625 Z M 302.363281 72.613281 C 303.105469 72.117188 300.421875 77.488281 301.164063 76.746094 C 297.945313 83.429688 283.574219 83.722656 294.710938 91.890625 C 294.957031 92.140625 295.203125 92.632813 295.453125 92.632813 C 268.476563 98.820313 244.964844 112.433594 218.976563 120.355469 C 196.203125 118.621094 223.679688 114.164063 226.152344 109.710938 C 235.0625 106.246094 243.726563 102.285156 251.894531 97.089844 C 235.558594 98.078125 219.46875 108.96875 204.621094 111.445313 C 207.34375 107.484375 209.570313 105.257813 213.53125 102.535156 C 239.765625 86.445313 270.1875 74.59375 302.363281 72.613281 Z M 234.074219 38.429688 C 232.835938 43.382813 231.101563 48.082031 230.609375 53.527344 C 239.519531 52.539063 247.933594 45.113281 257.339844 42.886719 C 255.109375 45.855469 254.367188 49.074219 251.894531 51.796875 C 254.367188 57.488281 263.277344 55.261719 268.722656 56.992188 C 249.171875 72.339844 228.628906 85.703125 207.34375 97.089844 C 208.578125 92.140625 218.726563 82.980469 222.441406 74.8125 C 214.519531 80.753906 205.609375 88.671875 197.441406 97.089844 C 206.351563 78.03125 217.984375 56.496094 234.074219 38.429688 Z M 177.148438 31.253906 C 182.34375 29.769531 181.105469 22.34375 185.066406 18.878906 C 187.542969 22.839844 187.269531 28.925781 193.976563 18.878906 C 197.195313 19.867188 193.136719 35.15625 201.898438 25.066406 C 211.550781 40.164063 201.15625 60.460938 199.421875 77.535156 C 198.433594 76.792969 197.441406 75.804688 196.699219 74.8125 C 192.492188 78.527344 174.921875 120.355469 184.078125 83.722656 C 181.355469 82.980469 177.890625 86.445313 175.167969 89.167969 C 176.898438 76.546875 182.839844 65.65625 184.078125 52.539063 C 183.582031 51.796875 183.089844 51.796875 182.34375 52.539063 C 176.898438 67.882813 168.238281 81.742188 165.515625 98.078125 C 162.296875 74.070313 169.722656 52.042969 177.148438 31.253906 Z M 161.800781 116.890625 C 166.011719 120.105469 173.425781 123.71875 175.902344 129.164063 C 180.605469 124.953125 185.066406 123.820313 189.523438 118.621094 C 190.511719 121.589844 191.503906 142.878906 188.53125 129.265625 C 189.273438 126.539063 188.53125 125.984375 187.324219 126.171875 C 186.121094 126.355469 175.535156 133.792969 175.535156 133.792969 L 162.761719 125.171875 L 151.703125 137.824219 L 145.960938 127.53125 L 141.265625 138.597656 C 141.265625 138.597656 138.722656 139.410156 137.050781 138.175781 C 140.269531 132.730469 146.703125 122.085938 146.703125 122.085938 C 146.703125 122.085938 150.171875 128.769531 152.148438 131.984375 C 155.863281 127.035156 157.59375 121.589844 161.800781 116.890625 Z M 116.511719 21.351563 C 118.984375 23.828125 121.210938 26.054688 123.6875 28.53125 C 126.160156 25.808594 127.152344 22.097656 128.886719 18.878906 C 133.09375 20.859375 132.84375 26.796875 137.796875 28.53125 C 139.527344 25.3125 141.507813 22.097656 143.238281 18.878906 C 149.425781 39.171875 152.890625 63.429688 153.882813 85.703125 C 153.140625 86.199219 152.644531 86.695313 152.148438 87.4375 C 149.179688 76.792969 147.445313 65.65625 143.238281 55.261719 C 141.507813 69.121094 146.210938 84.464844 145.960938 99.8125 C 135.070313 85.703125 134.578125 67.140625 126.160156 51.796875 C 126.160156 69.617188 132.84375 86.941406 134.328125 105.257813 C 132.84375 102.78125 129.132813 102.039063 127.152344 99.070313 C 123.6875 103.027344 123.441406 108.226563 119.976563 112.433594 C 113.539063 84.960938 113.539063 48.082031 116.511719 21.351563 Z M 26.417969 57.984375 C 38.300781 58.726563 47.703125 62.191406 60.328125 63.429688 C 63.050781 62.4375 61.316406 59.222656 63.050781 57.984375 C 78.148438 63.675781 90.027344 78.03125 103.886719 86.445313 C 102.898438 89.167969 105.867188 90.160156 104.878906 92.632813 C 96.214844 88.179688 88.046875 80.011719 79.136719 78.527344 C 87.304688 90.40625 109.332031 96.347656 106.609375 113.175781 C 114.777344 124.5625 102.648438 113.425781 99.433594 113.175781 C 75.175781 96.839844 45.476563 79.269531 26.417969 57.984375 Z M 34.585938 119.363281 C 37.0625 117.632813 40.28125 116.144531 42.507813 113.175781 C 38.546875 110.453125 36.566406 104.515625 33.597656 104.265625 C 39.042969 103.769531 44.488281 102.039063 47.953125 99.070313 C 47.953125 97.089844 47.953125 94.859375 47.953125 92.632813 C 65.773438 99.5625 83.839844 106.246094 98.691406 121.34375 C 94.480469 121.34375 90.769531 120.847656 90.523438 123.820313 C 98.441406 129.265625 108.34375 128.273438 114.777344 137.183594 C 89.285156 132.730469 59.089844 130.253906 34.585938 119.363281 Z M 31.863281 183.714844 C 30.132813 179.507813 50.921875 165.152344 34.585938 163.171875 C 37.308594 158.222656 47.953125 155.003906 42.507813 148.074219 C 57.355469 146.835938 73.445313 142.132813 88.789063 147.085938 C 80.128906 150.550781 70.472656 150.796875 63.050781 156.984375 C 78.640625 156.734375 93.492188 150.054688 111.066406 152.527344 C 86.066406 164.65625 59.089844 175.050781 31.863281 183.714844 Z M 117.253906 195.097656 C 120.46875 176.289063 102.15625 199.308594 101.410156 185.445313 C 99.183594 183.21875 92.007813 185.941406 89.78125 183.714844 C 95.222656 170.597656 110.074219 165.152344 120.964844 157.726563 C 120.964844 160.203125 115.519531 161.6875 118.242188 163.914063 C 121.707031 161.933594 125.667969 160.695313 129.875 160.449219 C 125.421875 164.410156 121.707031 168.863281 119.230469 173.8125 C 129.378906 173.566406 136.308594 157.726563 148.4375 162.183594 C 157.347656 156.488281 158.585938 130.996094 173.433594 148.816406 C 174.425781 150.796875 177.644531 150.796875 177.148438 153.269531 C 172.445313 151.289063 168.484375 146.339844 162.792969 147.085938 C 155.863281 168.367188 134.082031 182.972656 117.253906 195.097656 Z M 174.425781 226.285156 C 172.445313 225.542969 168.730469 218.859375 165.515625 216.632813 C 161.554688 218.363281 156.851563 230.246094 154.871094 224.550781 C 154.871094 223.066406 152.890625 222.078125 152.148438 221.085938 C 141.011719 235.6875 147.199219 212.175781 146.703125 208.464844 C 152.398438 195.59375 147.941406 178.019531 161.800781 169.359375 C 163.039063 175.792969 163.039063 182.972656 165.515625 188.910156 C 166.503906 178.269531 173.433594 168.367188 169.96875 157.726563 C 182.097656 176.289063 176.898438 205.246094 174.425781 226.285156 Z M 386.535156 267.371094 C 370.691406 272.8125 351.390625 288.160156 333.074219 295.832031 C 331.339844 295.335938 332.824219 293.605469 331.09375 293.109375 C 345.449219 278.261719 363.269531 261.925781 386.535156 267.371094 Z M 344.460938 327.019531 C 349.65625 323.304688 355.347656 320.335938 361.535156 319.097656 C 357.574219 327.265625 359.804688 343.847656 345.449219 342.113281 C 346.4375 337.660156 343.46875 330.976563 344.460938 327.019531 Z M 352.625 312.910156 C 347.179688 299.296875 357.824219 291.128906 367.722656 285.191406 C 373.414063 283.953125 377.375 277.269531 383.8125 277.269531 C 375.148438 289.644531 374.40625 315.632813 352.625 312.910156 Z M 335.546875 346.570313 C 322.679688 336.671875 322.429688 317.117188 325.894531 304.742188 C 336.539063 314.890625 339.011719 332.957031 335.546875 346.570313 Z M 343.714844 300.285156 C 344.953125 304.496094 344.953125 310.433594 343.714844 314.644531 C 336.539063 311.671875 334.804688 303.503906 343.714844 300.285156 Z M 343.714844 353.746094 C 351.882813 345.578125 365.742188 343.847656 377.625 344.835938 C 368.21875 352.757813 356.339844 357.210938 343.714844 353.746094 Z M 383.8125 334.195313 C 378.117188 335.925781 372.921875 338.402344 366.734375 338.648438 C 368.464844 333.949219 370.941406 329.738281 371.1875 324.296875 C 377.625 326.769531 388.019531 320.828125 383.8125 334.195313 Z M 390.988281 328.007813 C 390 325.78125 389.007813 318.105469 385.542969 314.644531 C 381.089844 315.386719 377.128906 316.621094 372.179688 316.375 C 377.375 303.503906 383.8125 291.378906 390 279.003906 C 395.9375 293.109375 396.433594 313.652344 390.988281 328.007813 "/>
</g>
</svg>
