<?xml version="1.0" encoding="UTF-8"?>
<svg xmlns="http://www.w3.org/2000/svg" xmlns:xlink="http://www.w3.org/1999/xlink" width="405pt" height="627pt" viewBox="0 0 405 627" version="1.1">
<g id="surface1">
<path style=" stroke:none;fill-rule:nonzero;fill:rgb(0%,0%,0%);fill-opacity:1;" d="M 396.597656 550.484375 C 396.191406 546.832031 391.867188 542.640625 395.246094 539.398438 L 404.894531 541.914063 C 397.230469 537.078125 390.109375 533.988281 383.617188 528.984375 C 382.539063 520.605469 375.914063 514.25 371.316406 507.625 C 371.855469 502.757813 377.671875 502.082031 381.050781 499.78125 L 368.613281 495.996094 C 369.152344 494.375 370.097656 493.023438 370.640625 491.398438 C 370.640625 488.425781 367.664063 484.503906 370.640625 482.339844 C 377.535156 481.261719 384.699219 485.179688 390.378906 480.988281 C 386.863281 478.554688 382.402344 477.609375 379.429688 474.90625 C 381.320313 472.878906 383.890625 470.714844 384.296875 468.414063 C 378.753906 467.199219 372.53125 466.523438 366.988281 466.386719 C 361.445313 454.894531 351.710938 445.160156 344.003906 434.617188 L 344.003906 429.476563 C 348.195313 431.234375 351.980469 434.34375 356.308594 435.96875 C 357.390625 433.9375 355.496094 429.882813 357.929688 428.125 C 362.527344 429.34375 366.855469 432.183594 371.316406 432.722656 C 369.152344 428.125 364.960938 424.476563 362.796875 420.015625 C 365.367188 417.175781 368.207031 414.335938 369.289063 410.953125 C 369.59375 408.859375 370.945313 410.71875 366.449219 408.386719 C 359.28125 398.109375 347.519531 395.679688 338.460938 389.863281 C 335.082031 388.105469 332.242188 383.375 329.675781 381.347656 L 332.378906 368.773438 C 331.433594 366.339844 328.59375 364.3125 329.402344 361.605469 C 333.863281 360.390625 339.003906 362.824219 342.652344 360.660156 C 333.1875 353.765625 320.480469 354.710938 311.285156 347.277344 C 309.121094 343.894531 308.3125 338.488281 303.714844 337.539063 C 305.203125 332.945313 306.285156 327.402344 305.339844 322.667969 C 307.5 320.101563 312.773438 322.972656 311.558594 317.972656 L 311.285156 315.503906 C 317.777344 315.367188 323.996094 318.070313 330.351563 319.425781 C 328.320313 315.367188 324.535156 310.230469 321.019531 308.742188 C 324.941406 307.796875 329.402344 307.796875 333.59375 307.390625 C 331.839844 304.6875 330.078125 300.089844 327.105469 299.683594 C 332.242188 297.519531 338.191406 299.414063 343.734375 299.277344 C 336.027344 293.058594 327.375 289.410156 319.9375 282.378906 C 316.019531 272.507813 305.472656 265.34375 302.769531 254.796875 C 303.308594 243.441406 297.632813 233.570313 292.765625 225.324219 C 297.359375 221.675781 303.851563 222.078125 308.582031 218.835938 C 301.417969 218.5625 293.710938 216.671875 286.273438 216.941406 C 284.785156 212.886719 277.351563 208.964844 284.652344 205.179688 C 282.488281 203.960938 280.230469 203.246094 277.757813 202.882813 C 270.894531 202.578125 270.726563 200.445313 267.753906 198.015625 C 270.726563 196.390625 274.648438 197.203125 277.757813 196.121094 C 277.757813 194.769531 276.675781 193.550781 277.484375 192.199219 C 281.679688 192.066406 285.734375 193.820313 289.519531 193.144531 L 282.625 184.492188 C 285.734375 181.925781 291.140625 183.816406 295.0625 182.871094 L 274.242188 175.027344 C 274.242188 175.027344 271.894531 162.910156 266.398438 159.074219 C 266.128906 157.316406 266.941406 155.832031 267.074219 154.207031 C 263.5625 150.691406 258.289063 148.394531 257.339844 143.257813 C 260.585938 142.039063 263.695313 140.28125 267.753906 140.960938 C 263.832031 137.847656 259.234375 135.550781 255.042969 133.792969 L 252.203125 126.355469 C 249.230469 118.921875 238.546875 116.351563 237.195313 108.238281 C 239.496094 106.617188 242.875 107.429688 245.039063 106.210938 C 243.144531 105.535156 241.386719 104.183594 239.496094 103.371094 C 242.605469 99.585938 246.660156 96.34375 249.90625 93.234375 C 246.390625 92.421875 242.335938 93.503906 239.226563 93.636719 L 238.277344 94.585938 C 236.113281 92.828125 238.007813 87.554688 237.871094 86.066406 C 233.140625 89.039063 230.164063 94.71875 225.570313 97.425781 C 222.460938 94.179688 221.785156 88.636719 217.1875 87.148438 L 194.234375 89.03125 C 194.367188 85.921875 194.878906 82.417969 196.09375 79.578125 C 204.207031 80.253906 211.914063 83.902344 220.433594 81.605469 C 220.433594 81.605469 219.855469 79.476563 219.078125 77.683594 C 226.246094 75.519531 234.085938 74.171875 241.117188 72.546875 C 235.574219 70.925781 222.894531 66.078125 222.894531 66.078125 C 224.730469 61.410156 224.992188 59.796875 225.894531 56.246094 C 219.675781 61.519531 212.996094 66.734375 208.667969 73.089844 C 204.476563 73.898438 199.882813 74.574219 195.417969 73.765625 C 195.148438 71.601563 195.824219 69.707031 196.09375 67.679688 L 214.214844 54.699219 C 216.644531 50.238281 220.703125 45.777344 221.648438 41.316406 C 221.648438 41.316406 216.230469 42.410156 211.644531 44.289063 C 209.210938 47.128906 205.695313 50.644531 202.855469 53.078125 C 201.773438 53.890625 200.285156 55.648438 198.933594 54.023438 C 197.71875 44.15625 207.316406 38.746094 211.914063 31.3125 L 207.453125 31.3125 L 206.777344 25.765625 C 204.070313 25.496094 201.234375 26.847656 198.933594 25.496094 C 197.3125 19.007813 201.773438 14.273438 202.855469 8.597656 L 194.066406 11.4375 C 192.175781 7.785156 191.902344 3.460938 189.199219 0.078125 C 188.796875 6.703125 187.308594 14.140625 189.199219 20.628906 C 186.226563 20.496094 183.386719 16.980469 179.871094 16.710938 L 184.332031 25.496094 C 184.46875 29.28125 180.140625 27.796875 178.519531 29.960938 C 186.496094 37.53125 188.609375 50.085938 192.394531 59.410156 C 192.394531 59.410156 182.5625 51.078125 175.949219 37.800781 C 171.894531 35.503906 168.109375 32.796875 163.648438 31.582031 C 167.972656 36.988281 171.894531 43.074219 176.625 47.804688 L 177.910156 48.71875 C 177.910156 48.71875 170.949219 49.425781 168.515625 50.78125 L 172.03125 55.648438 C 171.082031 55.78125 170.40625 56.59375 169.460938 55.917969 C 161.753906 51.453125 163.242188 41.179688 157.699219 35.230469 L 155.535156 41.722656 C 153.507813 45.777344 149.722656 40.097656 146.339844 40.367188 C 149.722656 44.289063 152.832031 49.832031 156.480469 51.996094 C 152.425781 54.160156 147.558594 55.648438 143.503906 58.214844 L 160.402344 59.160156 L 174.597656 68.894531 L 168.785156 77.007813 C 174.734375 76.738281 180.953125 71.328125 186.632813 76.0625 L 186.359375 90.664063 C 186.632813 92.152344 187.308594 93.636719 185.277344 94.179688 C 178.789063 92.828125 174.464844 99.585938 167.433594 97.152344 C 163.917969 96.207031 162.699219 92.828125 160.941406 89.988281 C 159.726563 87.960938 158.105469 85.933594 155.804688 85.121094 C 155.941406 88.09375 157.429688 90.664063 158.375 92.960938 C 152.425781 91.882813 143.730469 86.410156 136.394531 89.410156 C 140.0625 92.828125 148.894531 97.078125 148.894531 97.078125 C 143.0625 97.746094 138.363281 98.640625 134.714844 101.75 C 143.367188 102.695313 151.613281 104.726563 159.996094 106.210938 C 161.753906 107.023438 163.917969 108.78125 164.1875 110.808594 C 160.808594 114.59375 158.78125 119.054688 156.480469 123.382813 C 152.425781 125.410156 148.773438 128.113281 145.394531 131.496094 C 140.257813 140.824219 135.390625 150.285156 127.546875 158.535156 C 127.546875 158.535156 134.230469 157.410156 136.394531 157.246094 C 137.476563 164.007813 142.824219 170.839844 149.316406 173.40625 C 143.773438 178.679688 135.929688 184.359375 139.582031 192.875 L 114.296875 209.777344 C 104.835938 221.402344 89.691406 220.863281 79.550781 231.542969 L 93.855469 230.699219 C 93.230469 232.246094 87.257813 237.085938 84.691406 240.871094 L 95.777344 240.195313 L 97.128906 253.175781 L 101.996094 245.0625 L 103.617188 245.738281 C 104.292969 248.847656 103.078125 253.851563 105.78125 254.796875 C 102.671875 257.636719 98.75 258.855469 95.503906 261.285156 C 87.527344 276.566406 71.035156 275.347656 58.730469 281.433594 C 63.058594 282.921875 67.519531 284.136719 71.441406 286.300781 C 65.898438 290.355469 59.949219 293.058594 54.539063 297.386719 C 60.082031 298.332031 70.359375 294.546875 72.386719 301.847656 C 69.816406 307.257813 64.898438 313.746094 65.398438 318.578125 C 65.398438 318.578125 76.398438 305.746094 85.367188 297.386719 C 84.285156 301.984375 80.902344 306.578125 79.28125 311.3125 L 85.09375 311.582031 C 82.796875 314.960938 79.148438 317.800781 77.253906 321.316406 C 74.007813 327.265625 65.761719 331.1875 66.300781 338.621094 L 74.414063 331.050781 C 76.035156 342.273438 63.867188 347.953125 56.839844 354.847656 C 52.730469 367.078125 42.398438 370.246094 36.421875 380.804688 C 35.5625 382.746094 32.773438 387.566406 33.855469 390.8125 C 38.585938 384.996094 42.777344 378.507813 48.457031 373.234375 C 48.589844 377.695313 46.832031 382.699219 47.375 386.890625 L 57.109375 371.613281 C 58.59375 378.910156 55.214844 385.671875 51.023438 391.484375 C 33.042969 405.007813 19.625 421.972656 8.402344 440.089844 L 7.488281 441.375 L 0.730469 446.648438 L 11.140625 450.570313 C 10.195313 455.03125 8.03125 459.085938 7.488281 463.820313 C 11.679688 463.007813 16.144531 459.898438 20.199219 461.519531 L 8.164063 475.445313 L 21.820313 476.121094 C 21.144531 479.636719 20.46875 483.019531 19.792969 486.53125 C 23.445313 486.398438 24.929688 482.476563 28.582031 483.558594 C 29.398438 483.746094 29.933594 485.855469 29.933594 485.855469 C 25.398438 488.910156 21.898438 504.078125 28.0625 507.746094 C 21.5625 510.746094 16.277344 512.898438 9.113281 513.167969 C 12.898438 514.925781 22.496094 521.550781 22.496094 521.550781 L 11.140625 535.207031 L 29.730469 526.578125 L 26.6875 538.179688 C 31.960938 532.636719 36.289063 525.066406 42.507813 519.925781 C 47.507813 523.578125 48.859375 529.257813 51.292969 534.257813 C 50.753906 540.882813 48.726563 546.96875 46.832031 553.050781 C 36.964844 558.191406 31.960938 568.058594 24.660156 576.035156 C 23.445313 579.28125 19.253906 582.121094 20.875 585.769531 C 24.929688 590.230469 21.28125 596.992188 21.144531 602.402344 L 24.660156 603.347656 C 29.257813 605.78125 26.824219 612.808594 27.90625 617.675781 C 33.582031 617.273438 38.046875 619.300781 42.914063 620.921875 C 46.96875 619.03125 50.753906 615.515625 53.863281 612.136719 C 60.351563 609.566406 65.625 613.621094 70.492188 617 L 82.527344 614.027344 L 89.554688 621.867188 C 93.476563 617.40625 96.316406 612.269531 99.695313 607.945313 L 110.648438 619.300781 C 114.839844 618.488281 118.355469 622.003906 122.410156 621.195313 C 126.601563 615.246094 129.171875 607.808594 136.605469 604.96875 C 139.445313 598.480469 146.882813 599.019531 151.882813 595.910156 C 151.480469 588.203125 159.1875 584.960938 164.1875 580.902344 C 169.597656 575.222656 165 565.488281 172.03125 560.488281 L 180.816406 560.488281 C 182.441406 558.867188 184.0625 556.160156 185.277344 554.402344 C 188.253906 558.460938 193.121094 554.539063 197.042969 556.027344 C 198.257813 557.648438 199.746094 559.136719 200.558594 560.894531 C 204.34375 582.121094 200.691406 605.238281 198.664063 625.382813 C 208.804688 626.332031 219.214844 627.683594 229.761719 626.734375 C 229.761719 606.996094 222.863281 588.878906 219.351563 569.953125 C 217.59375 562.246094 219.214844 554.402344 224.21875 548.859375 L 234.628906 549.535156 C 239.628906 553.324219 239.894531 564.746094 248.554688 560.488281 C 250.894531 558.746094 251.257813 556.429688 253.421875 558.59375 L 258.019531 569.953125 C 260.992188 566.300781 262.480469 561.433594 266.804688 558.867188 C 268.96875 565.894531 271.671875 572.789063 271.941406 580.632813 C 276.675781 579.144531 282.21875 577.386719 285.867188 582.253906 C 288.980469 580.769531 290.058594 576.441406 293.035156 575.496094 C 296.550781 579.28125 299.390625 574.007813 302.769531 573.871094 C 312.097656 579.957031 321.832031 585.90625 330.351563 593.34375 C 331.296875 589.554688 334.675781 586.3125 336.839844 582.929688 L 337.515625 570.222656 L 343.058594 569.003906 C 345.628906 571.304688 347.925781 574.277344 350.226563 577.117188 C 353.605469 576.578125 354.0625 570.078125 357.394531 569.246094 C 360.0625 570.078125 365.78125 585.492188 365.78125 585.492188 C 372.230469 574.078125 375.109375 571.167969 375.109375 571.167969 C 377.273438 570.222656 380.238281 573.738281 382.671875 574.820313 C 387 572.925781 391.730469 571.980469 395.921875 569.953125 C 396.464844 563.328125 387.132813 555.484375 396.597656 550.484375 Z M 141.472656 156.234375 C 142.960938 149.339844 145.359375 144.371094 146.171875 137.207031 L 148.03125 138.726563 L 148.945313 139.402344 C 152.863281 144.269531 154.992188 151.503906 163.242188 149.070313 C 169.867188 146.503906 177.980469 157.316406 182.035156 147.449219 C 185.414063 142.3125 192.578125 144.609375 194.472656 137.984375 C 187.441406 136.632813 182.304688 138.660156 176.625 134.199219 C 173.382813 134.335938 169.867188 133.65625 167.160156 134.738281 C 165 130.820313 162.160156 130.414063 159.050781 127.980469 C 162.566406 123.246094 166.757813 118.246094 172.03125 115.675781 C 180.683594 113.378906 186.765625 119.867188 195.417969 117.570313 C 203.800781 116.621094 213.128906 109.457031 220.972656 116.351563 L 227.867188 124.058594 C 233.140625 126.085938 239.089844 127.4375 242.738281 132.574219 C 237.332031 131.089844 231.246094 129.738281 225.570313 130.953125 C 222.730469 133.253906 219.214844 135.957031 219.753906 140.011719 C 222.460938 143.390625 226.109375 145.421875 229.761719 145.554688 C 233.277344 157.992188 247.472656 152.046875 255.042969 159.074219 L 269.105469 174.082031 C 269.644531 175.839844 269.894531 176.910156 270.726563 179.222656 C 266.128906 178.273438 262.480469 178.410156 257.746094 178.003906 C 255.71875 173.273438 250.445313 168.269531 245.039063 167.59375 C 238.546875 168.675781 234.898438 165.835938 229.085938 165.023438 L 219.351563 170.433594 C 215.835938 169.214844 210.832031 168.132813 207.453125 165.023438 C 200.015625 167.863281 193.796875 170.433594 186.902344 174.757813 L 186.632813 181.25 C 181.222656 180.707031 177.574219 175.976563 172.976563 173.40625 C 170.8125 169.484375 168.515625 164.890625 166.890625 160.429688 C 158.914063 158.535156 147.828125 164.890625 141.472656 156.234375 Z M 106.863281 223.027344 C 108.890625 216.128906 116.460938 213.019531 121.464844 208.425781 C 134.308594 201.664063 147.558594 195.039063 159.726563 187.0625 C 166.484375 184.765625 173.109375 188.550781 180.140625 188.277344 C 195.554688 181.382813 212.859375 187.601563 225.300781 196.796875 C 233.003906 196.796875 241.65625 193.820313 248.554688 196.796875 C 265.589844 211.667969 287.761719 227.351563 295.0625 248.714844 C 289.113281 247.632813 282.757813 248.039063 277.484375 248.308594 C 276 245.46875 272.5625 242.910156 272.347656 239.925781 C 271.394531 238.246094 269.894531 233.746094 262.613281 237.355469 C 257.613281 234.519531 251.121094 229.515625 244.363281 232.488281 C 242.46875 233.300781 240.304688 234.519531 239.226563 236.003906 C 237.738281 233.976563 232.195313 234.246094 231.789063 229.921875 L 230.164063 223.429688 C 221.378906 225.054688 226.109375 213.019531 218.808594 212.613281 C 214.347656 212.210938 211.101563 217.886719 207.453125 213.019531 C 205.152344 211.128906 201.773438 211.128906 198.933594 211.667969 C 194.878906 216.941406 188.929688 215.589844 183.65625 213.96875 C 180.816406 208.964844 175.410156 204.773438 169.730469 205.179688 C 166.890625 211.261719 164.730469 217.480469 159.050781 222.351563 C 159.1875 227.082031 160.808594 233.4375 155.128906 235.734375 C 150.9375 235.058594 146.476563 235.058594 144.71875 230.460938 C 142.824219 225.054688 147.828125 216.128906 140.527344 214.644531 C 137.554688 216.265625 134.984375 219.78125 133.769531 223.027344 C 134.039063 227.082031 134.308594 231.003906 136.066406 234.382813 C 133.902344 236.679688 132.144531 238.980469 130.792969 241.820313 C 128.089844 246.550781 122.679688 248.171875 118.488281 249.660156 C 114.570313 246.957031 112.539063 242.222656 111.730469 237.628906 C 106.863281 234.113281 105.511719 228.976563 106.863281 223.027344 Z M 89.015625 318.746094 C 96.722656 308.066406 108.621094 303.46875 120.382813 304.824219 C 125.65625 301.308594 132.6875 302.253906 138.636719 300.226563 C 146.070313 299.007813 152.15625 292.25 154.859375 285.355469 C 158.914063 281.972656 166.757813 284.542969 168.109375 278.1875 C 170.003906 273.1875 165.132813 271.023438 163.648438 267.507813 C 162.972656 264.398438 164.730469 258.3125 159.726563 257.773438 C 154.589844 258.3125 154.589844 263.855469 153.507813 267.507813 C 149.316406 269.671875 142.691406 268.859375 141.203125 274.941406 C 135.523438 276.699219 129.847656 279 125.925781 284.40625 L 126.332031 290.492188 C 120.230469 293.246094 115.5625 298.578125 112.5625 300.246094 C 112.5625 300.246094 106.894531 285.410156 108.484375 275.890625 C 100.101563 276.296875 90.898438 277.410156 85.09375 286.703125 C 83.730469 287.578125 79.148438 294.683594 74.683594 290.898438 C 71.167969 284.542969 78.605469 280.214844 82.121094 275.617188 C 90.097656 274.535156 95.910156 269.128906 100.914063 262.640625 C 108.214844 260.746094 117.136719 262.773438 123.355469 258.449219 C 129.847656 256.285156 136.605469 254.121094 141.472656 248.714844 C 147.289063 246.6875 154.859375 249.121094 159.320313 244.117188 C 163.105469 241.144531 165.675781 237.355469 170.136719 235.734375 C 177.980469 236.003906 186.765625 236.546875 190.144531 244.792969 C 191.902344 249.253906 192.984375 254.394531 197.3125 257.097656 L 203.125 258.71875 C 215.835938 254.796875 228.136719 246.144531 242.46875 249.929688 C 251.796875 252.636719 259.640625 261.015625 270.726563 257.773438 C 282.488281 252.636719 293.847656 260.207031 302.496094 268.859375 C 314.0625 284.246094 321.730469 290.578125 308.582031 306.175781 L 293.441406 287.921875 C 288.4375 287.515625 281.949219 291.84375 278.839844 287.246094 C 274.242188 279.945313 266.941406 280.484375 259.910156 281.160156 C 254.773438 279 249.363281 275.753906 243.414063 277.511719 C 251.933594 288.597656 251.121094 304.28125 264.777344 312.257813 C 273.972656 319.152344 285.597656 324.5625 289.113281 335.648438 C 284.652344 335.105469 281.136719 330.375 276.8125 328.484375 C 277.082031 328.617188 275.152344 328.007813 275.289063 327.875 C 271.640625 326.523438 270.320313 327.941406 267.074219 328.484375 C 261.261719 329.835938 253.285156 332.132813 248.28125 325.238281 C 241.929688 326.050781 238.414063 323.074219 233.679688 320.101563 C 228.8125 321.316406 227.0625 328.246094 219.730469 326.578125 C 216.394531 325.578125 213.402344 324.695313 210.289063 323.34375 L 208.398438 317.125 C 211.238281 305.363281 224.488281 311.042969 229.761719 302.253906 C 230.03125 296.847656 223.675781 296.980469 220.972656 294.410156 C 218.945313 291.4375 221.242188 285.488281 216.78125 284.675781 C 210.425781 286.839844 207.046875 280.214844 204.207031 276.566406 C 200.285156 277.105469 195.554688 277.648438 194.066406 281.839844 C 190.550781 291.167969 189.335938 302.253906 195.015625 311.042969 C 194.742188 313.070313 194.472656 315.097656 192.851563 316.449219 C 187.308594 320.234375 181.359375 315.234375 175.546875 314.558594 C 172.976563 315.367188 169.867188 315.640625 167.839844 316.855469 C 164.054688 315.910156 159.859375 311.582031 156.074219 315.503906 C 153.914063 318.746094 151.210938 321.859375 150.9375 325.914063 C 145.53125 329.96875 138.230469 327.265625 133.089844 330.78125 C 130.792969 333.753906 129.035156 336.324219 125.925781 338.621094 C 120.921875 337.945313 112.40625 331.863281 107.808594 339.164063 L 100.371094 346.058594 L 90.234375 344.707031 C 86.988281 346.601563 83.878906 349.84375 80.902344 351.601563 C 71.574219 339.976563 85.90625 329.5625 89.015625 318.746094 Z M 385.242188 566.976563 L 371.855469 557.648438 C 367.800781 549.132813 358.742188 540.882813 349.820313 539.800781 L 344.277344 533.582031 L 334.269531 531.960938 C 329.945313 528.175781 323.320313 525.742188 321.5625 519.925781 C 315.882813 515.195313 307.636719 519.65625 300.875 517.359375 C 301.550781 530.742188 319.398438 534.394531 323.183594 546.832031 C 323.996094 553.863281 330.214844 560.351563 326.429688 567.652344 L 323.589844 575.496094 C 315.34375 569.816406 310.882813 560.351563 306.421875 552.105469 C 305.339844 549.132813 303.445313 546.15625 300.472656 544.667969 C 294.25 544.667969 288.574219 541.425781 285.597656 535.882813 C 281.003906 531.285156 275.863281 526.6875 270.050781 524.523438 C 262.34375 525.066406 252.472656 531.148438 246.660156 522.496094 C 238.007813 525.066406 231.113281 533.851563 220.703125 530.066406 C 210.15625 526.6875 205.558594 512.628906 192.851563 515.734375 C 191.09375 513.574219 191.496094 510.464844 190.550781 507.894531 C 194.878906 504.648438 201.367188 506.8125 205.152344 502.082031 C 211.238281 500.863281 219.351563 503.839844 223.269531 498.160156 C 223.539063 492.617188 217.457031 489.644531 218.808594 483.558594 C 211.507813 474.769531 200.152344 483.421875 192.175781 477.472656 C 183.25 482.613281 180.953125 492.480469 181.765625 502.082031 C 178.25 503.433594 174.597656 505.191406 172.300781 508.570313 C 175.546875 513.980469 179.734375 518.847656 179.871094 525.472656 C 177.167969 531.554688 170.542969 533.851563 165.808594 537.773438 C 163.378906 537.910156 159.996094 538.71875 159.050781 541.695313 C 155.398438 550.347656 161.214844 560.621094 155.128906 568.328125 C 151.613281 570.898438 150.261719 575.359375 150.9375 579.6875 C 147.828125 583.878906 143.90625 587.933594 143.503906 593.34375 C 130.117188 591.042969 133.902344 610.511719 121.058594 608.214844 C 117.273438 610.105469 116.730469 618.488281 110.648438 614.433594 C 105.375 607.269531 99.019531 600.101563 101.589844 590.097656 C 106.1875 577.253906 111.730469 563.460938 112.675781 549.132813 C 121.328125 537.234375 133.902344 529.121094 145.800781 522.226563 C 149.046875 518.304688 151.480469 513.167969 149.992188 507.894531 C 145.9375 504.109375 140.394531 501.675781 134.714844 503.703125 C 130.929688 506.003906 126.332031 509.382813 121.734375 506.679688 C 114.839844 508.707031 115.921875 519.386719 107.402344 518.710938 C 102.535156 523.441406 102.535156 530.742188 100.914063 537.097656 C 87.800781 541.152344 70.898438 550.617188 69.546875 566.300781 C 66.5625 570.746094 63.324219 573.578125 63.730469 573.578125 C 53.898438 575.746094 54.40625 582.253906 52.242188 588.472656 C 51.429688 593.746094 53.457031 600.777344 46.832031 603.078125 C 45.347656 603.617188 44.398438 603.480469 42.914063 603.078125 C 40.34375 591.855469 43.183594 580.363281 45.480469 569.953125 C 61.976563 557.648438 52.78125 534.664063 65.898438 520.875 C 64.410156 519.792969 60.082031 520.605469 60.082031 520.605469 C 52.511719 515.601563 48.320313 504.921875 39.261719 500.460938 C 35.882813 499.78125 30.609375 499.917969 30.203125 495.320313 C 36.015625 491.941406 41.289063 485.855469 48.996094 489.507813 L 61.03125 502.488281 C 63.734375 502.757813 65.21875 500.59375 67.25 499.511719 C 75.359375 501.945313 80.226563 495.996094 85.09375 491.398438 C 86.582031 490.316406 88.398438 491.246094 89.285156 492.074219 C 90.367188 496.132813 89.285156 501.136719 93.882813 503.703125 C 96.585938 504.109375 100.101563 504.648438 101.996094 502.082031 C 102.808594 492.886719 113.351563 498.835938 117.542969 493.699219 C 120.382813 490.316406 123.085938 485.992188 127.277344 484.640625 C 121.058594 480.71875 113.894531 477.878906 106.863281 475.445313 C 94.964844 471.929688 81.582031 472.203125 70.089844 467.738281 C 59.675781 464.359375 49.535156 480.3125 41.964844 467.738281 C 50.078125 454.21875 62.515625 438.941406 79.28125 437.859375 C 82.527344 433.128906 88.609375 435.5625 93.207031 433.9375 L 104.5625 425.828125 L 116.191406 425.558594 L 121.734375 419.742188 C 129.304688 421.636719 136.066406 417.578125 143.773438 418.121094 C 148.773438 420.421875 145.125 426.367188 145.800781 429.476563 C 139.851563 435.289063 131.46875 434.886719 125.25 440.160156 C 123.628906 442.457031 122.273438 445.296875 123.355469 448.269531 C 125.25 451.652344 127.144531 455.707031 130.523438 458.003906 C 137.6875 457.464844 147.964844 449.757813 152.832031 458.277344 C 149.722656 464.226563 144.3125 469.496094 140.257813 474.90625 C 142.554688 477.339844 146.207031 475.582031 149.046875 475.175781 C 154.722656 472.605469 161.890625 473.554688 168.109375 471.929688 C 174.597656 470.039063 180.816406 463.953125 187.578125 466.792969 C 193.390625 469.902344 199.339844 472.472656 206.101563 473.28125 C 207.183594 471.523438 205.964844 469.226563 205.425781 467.335938 L 200.558594 458.953125 C 200.964844 456.113281 201.367188 452.460938 200.285156 449.894531 C 196.09375 443.132813 186.632813 452.460938 183.117188 444.351563 C 176.355469 440.699219 170.136719 450.300781 164.59375 443.675781 C 160.132813 437.859375 155.671875 432.046875 156.074219 424.203125 L 153.234375 416.09375 C 159.589844 416.363281 164.457031 420.554688 170.675781 420.960938 C 176.222656 416.09375 180.683594 409.738281 186.632813 405.410156 C 192.851563 403.519531 197.988281 411.902344 202.855469 405.683594 C 204.476563 404.195313 205.425781 402.03125 204.746094 399.867188 C 201.234375 394.867188 199.746094 389.59375 200.964844 382.96875 C 197.042969 379.183594 190.6875 379.722656 185.277344 378.777344 C 182.035156 378.507813 179.058594 379.046875 176.898438 381.347656 C 175.410156 392.972656 161.617188 382.96875 157.15625 391.082031 C 141.472656 398.652344 124.03125 375.261719 111.730469 394.324219 C 108.890625 399.597656 102.941406 400.273438 98.75 403.519531 L 95.101563 411.226563 C 91.316406 411.226563 87.664063 411.765625 84.691406 413.796875 L 78.199219 423.527344 C 74.414063 422.71875 70.359375 425.421875 67.25 422.582031 L 67.25 410.953125 C 65.625 410.550781 63.328125 409.605469 61.976563 411.226563 C 56.972656 414.875 57.515625 421.636719 54.539063 426.234375 L 47.101563 429.746094 C 45.617188 433.128906 44.265625 436.371094 43.859375 440.160156 L 31.554688 438.535156 C 28.988281 440.699219 26.957031 444.214844 23.714844 445.027344 C 20.898438 440.746094 19.371094 438.042969 16.398438 435.746094 L 18.578125 433.667969 C 27.769531 424.609375 36.828125 415.6875 43.183594 405.140625 C 45.886719 400.140625 52.375 401.898438 53.59375 396.355469 C 57.917969 375.261719 82.257813 380.804688 93.207031 364.851563 L 96.046875 361.878906 C 105.105469 359.308594 115.785156 360.660156 124.304688 357.011719 L 139.582031 344.03125 C 148.367188 343.085938 158.507813 344.570313 163.648438 335.378906 C 165.132813 331.726563 168.378906 328.886719 171.355469 325.914063 C 176.492188 329.160156 182.304688 327.941406 188.523438 328.210938 C 196.90625 339.839844 209.074219 342.136719 221.648438 343.488281 C 233.546875 342.003906 246.523438 339.164063 258.691406 342.136719 C 274.105469 346.871094 292.222656 345.382813 306.421875 353.496094 C 320.480469 364.582031 314.667969 385.671875 332.648438 394.324219 C 341.730469 399.078125 363.0625 403.246094 364.394531 411.246094 L 348.601563 413.523438 C 346.4375 415.550781 345.898438 418.796875 344.277344 421.367188 L 341.976563 419.777344 C 330.753906 418.019531 325.484375 406.898438 314.125 405.410156 C 306.824219 405.683594 303.851563 400.679688 298.847656 395.949219 C 295.332031 392.839844 290.328125 396.488281 286.546875 396.625 C 280.324219 396.488281 277.890625 386.484375 270.320313 386.890625 C 266.398438 388.105469 261.667969 389.1875 259.910156 393.785156 C 258.289063 397.300781 259.773438 401.761719 255.042969 403.113281 C 246.390625 397.300781 248.148438 382.96875 235.574219 380.398438 C 228.679688 381.210938 225.839844 388.917969 223.945313 394.324219 C 219.351563 396.355469 213.265625 396.355469 210.695313 401.898438 C 209.75 404.464844 208.667969 407.847656 210.019531 410.550781 C 218.132813 420.148438 228.679688 426.503906 241.523438 424.609375 C 249.90625 428.667969 257.476563 435.15625 266.398438 437.859375 L 282.082031 436.238281 C 287.085938 438.265625 291.953125 440.292969 297.632813 440.835938 C 314.9375 436.644531 332.917969 437.050781 344.953125 451.109375 L 363.472656 468.414063 L 364.421875 471.253906 C 357.390625 470.039063 350.765625 464.496094 342.382813 466.386719 C 339.273438 465.304688 338.460938 461.519531 335.621094 459.628906 C 329.945313 457.734375 322.371094 463.277344 319.667969 455.03125 C 318.722656 453.8125 317.777344 451.921875 316.152344 451.515625 C 309.394531 450.976563 304.660156 454.894531 298.308594 455.03125 C 290.328125 454.625 282.894531 449.21875 273.972656 452.191406 C 261.667969 457.601563 244.09375 457.871094 233.679688 448.269531 C 229.894531 457.464844 232.058594 466.65625 235.574219 475.175781 C 245.445313 473.6875 249.09375 485.992188 256.664063 490.046875 C 261.804688 491.128906 265.453125 492.617188 270.320313 494.375 C 276.269531 500.1875 282.488281 505.191406 290.734375 505.324219 C 296.953125 505.597656 303.445313 509.382813 307.367188 514.113281 C 310.070313 509.109375 308.0625 503.246094 305.742188 498.835938 C 296.0625 485.746094 284.921875 488.15625 284.921875 488.15625 C 281.003906 483.558594 278.972656 476.257813 272.347656 474.90625 C 267.753906 470.308594 267.753906 463.953125 262.886719 459.628906 C 267.074219 459.355469 272.617188 460.03125 276.8125 460.304688 C 284.246094 463.683594 291.953125 469.632813 296.277344 477.070313 C 303.714844 482.070313 314.394531 479.230469 322.238281 483.289063 C 331.027344 494.238281 344.277344 494.644531 354.414063 502.488281 C 363.203125 508.4375 369.289063 516.953125 376.453125 524.796875 L 378.074219 530.609375 C 365.773438 526.550781 359.417969 509.921875 345.898438 508.570313 C 341.300781 504.515625 339.679688 497.484375 333.59375 495.589844 C 331.296875 496.539063 328.863281 497.753906 327.105469 499.511719 C 326.023438 510.597656 336.570313 518.171875 344.277344 524.523438 C 360.636719 532.367188 385.105469 540.476563 386.1875 562.785156 L 385.242188 566.976563 "/>
</g>
</svg>
