<?xml version="1.0" encoding="UTF-8"?>
<svg xmlns="http://www.w3.org/2000/svg" xmlns:xlink="http://www.w3.org/1999/xlink" width="418pt" height="661pt" viewBox="0 0 418 661" version="1.1">
<g id="surface1">
<path style=" stroke:none;fill-rule:nonzero;fill:rgb(0%,0%,0%);fill-opacity:1;" d="M 417.871094 141.320313 C 415.351563 137.539063 411.390625 134.300781 408.148438 130.878906 C 408.148438 126.921875 410.851563 123.320313 410.128906 119.898438 C 395.007813 115.398438 411.390625 102.980469 412.109375 94.519531 C 407.25 90.5625 401.128906 89.480469 395.910156 86.242188 C 394.46875 81.5625 393.570313 76.699219 392.671875 71.839844 C 381.328125 71.121094 372.148438 63.5625 364.769531 55.101563 C 355.230469 55.28125 351.089844 42.859375 340.828125 44.660156 C 334.710938 35.121094 322.289063 39.980469 316.171875 30.441406 C 303.390625 30.261719 292.769531 22.160156 285.03125 12.261719 C 279.628906 13.519531 274.769531 18.019531 269.550781 18.199219 C 261.988281 16.222656 257.128906 8.480469 250.648438 3.800781 C 244.171875 6.5 238.410156 11.722656 230.671875 11.722656 C 223.109375 8.480469 213.929688 8.300781 209.25 0.0195313 C 200.96875 8.480469 192.871094 18.742188 184.589844 25.222656 C 179.371094 15.859375 174.511719 29.539063 169.109375 25.222656 C 165.148438 23.421875 161.730469 25.222656 160.648438 29.179688 C 155.789063 42.859375 144.988281 27.199219 137.25 30.441406 C 139.769531 46.460938 121.230469 38.179688 113.308594 39.441406 C 111.328125 44.121094 115.289063 53.839844 107.550781 53.839844 C 90.628906 53.121094 91.53125 80.121094 73.171875 77.0625 C 72.449219 79.039063 77.128906 82.460938 76.410156 84.800781 C 71.730469 85.699219 68.128906 83.359375 63.449219 84.261719 C 64.53125 92 56.96875 94.339844 53.730469 97.222656 C 55.710938 106.222656 71.011719 122.242188 49.769531 121.160156 C 42.929688 123.679688 54.808594 128.898438 54.449219 134.121094 C 51.210938 139.699219 59.488281 141.140625 59.488281 145.101563 C 51.390625 149.601563 42.929688 153.5625 35.011719 158.78125 C 43.46875 167.0625 61.289063 162.742188 58.949219 180.199219 C 62.730469 181.28125 67.230469 180.738281 70.652344 182.71875 C 65.25 188.121094 60.03125 193.878906 53.730469 196.941406 C 54.988281 201.078125 51.390625 203.78125 51.75 206.660156 C 57.871094 206.121094 63.449219 207.558594 69.210938 207.921875 C 84.511719 214.21875 65.429688 221.601563 65.429688 229.339844 C 70.832031 229.519531 67.589844 235.640625 69.929688 238.519531 C 80.910156 238.699219 94.050781 238.160156 104.308594 236.539063 C 104.671875 240.140625 100.53125 242.660156 103.050781 246.261719 C 114.929688 247.699219 127.53125 244.28125 137.96875 241.761719 C 140.128906 248.238281 138.511719 256.699219 144.449219 261.738281 C 151.289063 264.441406 156.871094 260.121094 162.628906 257.960938 C 167.308594 260.121094 173.609375 261.921875 177.570313 256.519531 C 180.808594 263.71875 183.511719 271.28125 191.070313 275.960938 C 197.730469 278.300781 204.390625 272.71875 209.96875 268.21875 C 213.929688 274.160156 220.589844 281.71875 227.96875 283.160156 C 213.75 338.960938 203.671875 396.378906 177.570313 447.140625 C 142.109375 527.960938 78.929688 607.339844 0.628906 655.039063 C 6.929688 657.019531 12.511719 660.257813 19.351563 660.980469 C 84.691406 614.359375 144.148438 548.300781 174.328125 480.078125 C 211.769531 415.101563 227.609375 341.300781 245.609375 268.21875 C 249.210938 270.921875 251.191406 273.441406 254.609375 276.679688 C 262.171875 280.28125 267.390625 270.921875 271.53125 266.960938 C 276.390625 269.660156 281.070313 272.359375 287.011719 272.179688 C 295.46875 269.121094 293.308594 259.398438 297.449219 253.28125 C 303.75 257.78125 310.589844 260.660156 318.691406 261.199219 C 326.789063 259.578125 327.148438 249.5 328.410156 243.558594 C 336.871094 243.378906 343.171875 249.859375 351.808594 246.800781 C 361.351563 242.300781 355.230469 234.199219 357.03125 226.820313 C 361.53125 226.640625 366.390625 227.179688 370.53125 226.101563 C 375.03125 223.941406 376.828125 219.261719 377.730469 215.121094 C 379.53125 209.898438 386.730469 211.878906 390.6875 209.359375 C 396.089844 203.058594 389.96875 190.460938 398.429688 187.21875 C 402.03125 178.578125 414.628906 176.960938 412.648438 165.800781 C 406.53125 156.800781 416.070313 149.421875 417.871094 141.320313 Z M 397.890625 101.722656 C 375.210938 119.179688 345.871094 122.0625 315.449219 119.179688 C 312.75 117.199219 308.96875 117.742188 305.730469 116.660156 C 305.371094 114.140625 304.109375 112.160156 304.46875 109.460938 C 332.730469 102.078125 364.050781 102.441406 388.171875 84.800781 C 385.648438 90.019531 382.410156 94.878906 380.96875 100.460938 C 385.828125 102.800781 392.128906 101.179688 397.890625 101.722656 Z M 84.871094 123.140625 C 77.128906 116.660156 67.050781 111.078125 62.191406 101.722656 C 63.988281 99.019531 70.832031 102.800781 71.191406 97.761719 C 80.730469 99.921875 89.371094 104.0625 99.808594 104.242188 C 100.171875 103.878906 100.53125 103.519531 101.070313 102.980469 C 93.332031 98.839844 85.410156 91.820313 82.171875 83.539063 C 84.152344 81.742188 87.390625 84.078125 90.089844 84.261719 C 84.152344 75.261719 100.171875 79.941406 101.609375 73.28125 C 102.328125 70.578125 103.050781 68.0625 103.589844 65.359375 C 108.988281 70.761719 116.191406 73.820313 122.488281 75.078125 C 119.429688 69.859375 113.671875 68.421875 112.050781 62.839844 C 117.089844 63.921875 121.589844 65.902344 126.988281 66.078125 C 125.730469 61.941406 122.308594 57.082031 121.769531 51.859375 C 132.390625 63.378906 143.910156 72.019531 159.390625 71.839844 C 152.371094 66.980469 142.289063 59.0625 135.449219 51.140625 C 137.96875 50.960938 141.929688 54.5625 143.191406 50.601563 C 142.289063 46.460938 144.628906 43.582031 143.730469 39.441406 C 151.648438 42.5 155.070313 52.039063 162.628906 55.640625 C 164.429688 50.0625 166.949219 44.839844 167.851563 38.902344 C 171.449219 41.242188 175.949219 40.339844 177.570313 36.199219 C 181.171875 47.539063 188.011719 57.621094 192.328125 68.601563 C 193.769531 69.320313 195.03125 70.039063 196.289063 70.578125 C 188.371094 56.722656 194.128906 37.101563 198.808594 22.699219 C 201.328125 20.902344 201.691406 12.800781 206.011719 17.480469 C 207.089844 27.921875 211.769531 36.921875 217.710938 45.382813 C 220.769531 37.640625 217.171875 29.722656 218.25 21.441406 C 223.828125 23.0625 229.410156 32.601563 234.449219 27.199219 C 240.390625 24.320313 245.070313 18.921875 250.648438 15.5 C 249.929688 25.941406 249.03125 37.820313 252.628906 47.359375 C 256.230469 40.160156 252.089844 11.539063 266.308594 27.199219 C 271.351563 34.222656 275.851563 24.140625 281.25 21.980469 C 284.128906 21.441406 288.808594 20 285.03125 24.679688 C 283.949219 27.382813 281.96875 31.519531 281.25 32.421875 C 275.308594 40.160156 275.671875 51.679688 268.828125 59.601563 C 267.390625 66.621094 271.351563 60.859375 272.789063 58.882813 C 280.53125 50.601563 286.648438 40.882813 296.011719 33.679688 C 299.429688 39.800781 308.070313 39.261719 314.910156 40.160156 C 316.53125 40.882813 315.808594 42.5 317.429688 43.402344 C 314.730469 56.722656 305.730469 67.160156 297.988281 78.320313 C 310.050781 72.921875 321.210938 61.402344 332.371094 51.859375 C 335.25 55.101563 344.609375 52.761719 346.050781 60.320313 C 356.128906 54.742188 356.671875 70.039063 366.03125 67.339844 C 352.53125 76.519531 374.671875 73.820313 378.988281 77.0625 C 357.929688 94.519531 334.351563 99.5625 306.449219 100.460938 C 302.671875 98.300781 304.289063 90.199219 299.25 86.78125 C 297.179688 87.140625 293.714844 87.679688 292.027344 87.613281 C 290.339844 87.546875 290.429688 86.871094 295.46875 84.800781 C 295.097656 81.421875 291.167969 79.847656 291.167969 79.847656 C 291.167969 79.847656 270.734375 90.546875 285.03125 77.78125 C 282.148438 75.980469 278.550781 75.980469 275.308594 75.078125 C 273.328125 76.878906 271.710938 79.402344 269.550781 80.300781 C 270.089844 77.242188 273.511719 74 270.808594 71.300781 C 268.46875 73.460938 265.589844 76.519531 263.070313 79.039063 C 264.285156 76.339844 267.148438 70.5 267.148438 70.5 L 263.949219 68.902344 C 263.949219 68.902344 260.550781 79.761719 253.890625 75.800781 C 252.714844 74.101563 253.246094 69.882813 253.246094 69.882813 L 252.089844 68.0625 C 252.089844 68.0625 248.671875 72.742188 246.871094 75.078125 C 245.429688 70.761719 245.949219 66.699219 245.949219 66.699219 L 241.550781 66.101563 C 241.550781 66.101563 240.210938 70.761719 239.128906 75.800781 C 237.871094 73.640625 235.148438 67.902344 235.148438 67.902344 L 228.351563 68.101563 L 226.75 73.5 L 221.550781 73.300781 L 217.949219 67.5 C 217.949219 67.5 214.128906 67.800781 211.75 67.5 C 208.871094 68.941406 209.789063 73.460938 207.269531 74.539063 C 205.785156 72.785156 204.148438 68.300781 204.148438 68.300781 C 204.148438 68.300781 200.714844 68.835938 199.949219 68.699219 C 197.609375 71.582031 198.089844 74.902344 195.570313 77.78125 C 193.949219 75.441406 192.511719 73.28125 190.53125 71.300781 C 188.550781 71.660156 185.308594 74.539063 185.308594 74.539063 C 185.308594 74.539063 187.46875 81.378906 188.550781 84.800781 C 186.523438 84.664063 184.804688 77.441406 182.019531 76.878906 C 181.089844 76.6875 178.828125 79.039063 178.828125 79.039063 C 178.828125 79.039063 179.730469 84.621094 180.089844 87.5 C 178.105469 87.765625 172.640625 82.960938 172.640625 82.960938 L 169.75 85.101563 C 169.75 85.101563 168.929688 89.300781 171.089844 90.742188 C 167.128906 87.859375 163.351563 92.898438 159.929688 95.242188 C 139.949219 93.078125 117.808594 99.378906 97.832031 95.242188 C 97.652344 95.421875 97.289063 95.78125 97.109375 95.960938 C 113.488281 110.898438 134.191406 107.480469 154.890625 107.480469 C 143.550781 116.121094 128.96875 117.019531 116.011719 121.878906 C 127.171875 128.179688 141.75 120.078125 152.910156 126.378906 C 134.910156 137.179688 110.070313 131.601563 89.371094 138.621094 C 100.171875 144.019531 114.03125 142.222656 126.988281 142.578125 C 120.328125 149.242188 113.851563 151.761719 104.851563 152.839844 C 90.449219 147.621094 74.789063 141.320313 60.929688 132.859375 C 67.589844 130.160156 60.390625 126.742188 59.488281 123.140625 C 68.308594 122.0625 76.410156 125.121094 84.871094 123.140625 Z M 279.808594 115.398438 C 279.089844 110.359375 276.570313 105.679688 274.769531 101 C 272.386719 101.179688 270.183594 103.136719 270.183594 103.136719 C 270.183594 103.136719 270.898438 113.601563 269.550781 117.921875 C 267.789063 115.28125 265.757813 106.804688 265.757813 106.804688 C 265.757813 106.804688 264.511719 106.121094 263.609375 106.222656 C 263.277344 111.898438 263.085938 121.460938 263.070313 121.878906 C 263.058594 121.453125 260.371094 108.921875 260.371094 108.921875 C 260.371094 108.921875 257.367188 109.503906 256.679688 110.609375 C 254.621094 113.925781 256.410156 121.117188 252.628906 123.140625 C 252.183594 118.980469 253.578125 114.085938 252.054688 110.378906 C 251.730469 109.59375 251.277344 108.859375 250.648438 108.199219 C 248.671875 112.160156 247.050781 117.019531 245.609375 121.878906 C 243.664063 117.84375 245.347656 107.191406 245.347656 107.191406 C 245.347656 107.191406 243.769531 106.28125 242.371094 106.222656 C 239.308594 112.878906 236.96875 119.898438 235.171875 126.921875 C 235.710938 121.339844 236.96875 115.941406 237.148438 110.179688 C 235.003906 109.320313 232.375 109.753906 232.375 109.753906 C 232.375 109.753906 230.457031 122.738281 227.429688 126.921875 C 228.148438 120.261719 226.710938 108.199219 226.710938 108.199219 C 226.710938 108.199219 224.011719 105.679688 222.210938 105.679688 C 221.488281 111.980469 220.949219 118.101563 220.230469 124.398438 C 218.96875 116.839844 217.710938 108.5625 216.449219 101.722656 C 214.828125 100.101563 210.511719 99.742188 210.511719 99.742188 C 210.511719 99.742188 211.769531 106.039063 211.769531 109.460938 C 213.570313 115.761719 211.410156 123.859375 211.230469 128.359375 C 208.53125 119.179688 210.148438 108.378906 203.488281 101 C 201.527344 100.378906 199.171875 102.230469 199.171875 102.230469 C 199.171875 102.230469 198.6875 104.378906 199.53125 105.679688 C 203.128906 112.160156 202.410156 120.261719 203.488281 127.640625 C 200.25 118.460938 197.011719 108.921875 193.769531 99.742188 C 191.25 99.921875 189.269531 101.722656 187.289063 102.980469 C 189.089844 110.539063 191.070313 118.101563 193.050781 125.660156 C 189.269531 120.621094 186.390625 111.621094 182.070313 104.960938 C 181.171875 106.578125 179.550781 105.859375 178.828125 107.480469 C 181.351563 115.222656 184.050781 122.601563 186.570313 130.160156 C 181.710938 122.78125 177.75 115.039063 174.871094 106.941406 C 173.429688 105.679688 171.449219 105.679688 169.648438 104.960938 C 170.910156 113.0625 176.128906 121.160156 178.828125 129.621094 C 172.53125 122.601563 167.488281 115.039063 163.890625 106.941406 C 162.449219 97.222656 175.050781 104.0625 180.089844 101 C 193.230469 93.980469 200.609375 80.839844 218.25 84.261719 C 235.351563 83.179688 250.828125 89.660156 264.328125 99.199219 C 270.089844 98.300781 274.949219 95.78125 280.53125 94.519531 C 285.03125 95.421875 288.808594 97.941406 292.769531 99.742188 C 292.050781 104.242188 290.070313 108.378906 288.988281 112.699219 C 286.695313 110.8125 285.292969 99.816406 285.292969 99.816406 C 285.292969 99.816406 282.464844 98.523438 279.808594 99.199219 C 279.550781 104.699219 280.710938 109.640625 279.808594 115.398438 Z M 65.96875 173 C 71.550781 159.859375 27.628906 154.28125 62.191406 152.300781 C 72.089844 150.679688 79.652344 158.421875 89.371094 159.320313 C 100.351563 160.761719 109.53125 160.761719 117.808594 168.5 C 126.089844 169.039063 133.828125 171.199219 142.46875 170.480469 C 140.308594 173.71875 136.890625 177.140625 134.730469 180.199219 C 130.769531 163.101563 112.949219 178.039063 103.589844 169.761719 C 91.53125 169.941406 78.570313 171.921875 65.96875 173 Z M 117.269531 234.558594 C 122.851563 227.179688 128.609375 219.621094 132.210938 211.160156 C 115.828125 215.839844 100.53125 227.539063 82.890625 231.320313 C 80.550781 229.699219 80.191406 227.179688 77.671875 225.558594 C 81.449219 220.339844 100.351563 215.480469 89.371094 206.660156 C 89.191406 206.480469 88.832031 206.121094 88.652344 206.121094 C 92.25 202.878906 99.988281 199.28125 104.308594 194.421875 C 90.988281 194.78125 78.75 196.039063 65.429688 198.199219 C 69.929688 191 79.109375 189.378906 84.871094 182 C 84.152344 180.5625 83.609375 178.941406 82.890625 177.5 C 93.332031 173.539063 105.570313 173.898438 116.011719 177.5 C 117.808594 178.578125 120.691406 178.039063 123.03125 178.21875 C 121.230469 184.519531 125.910156 189.5625 129.511719 194.421875 C 135.269531 191.71875 140.671875 188.839844 146.96875 187.941406 C 142.828125 205.941406 145.890625 240.859375 117.269531 234.558594 Z M 127.53125 162.5625 C 134.191406 148.699219 149.128906 143.300781 159.929688 134.121094 C 161.191406 134.121094 162.089844 134.121094 163.171875 134.121094 C 200.25 165.800781 253.890625 142.222656 290.25 124.398438 C 291.871094 124.222656 296.730469 124.222656 294.210938 126.921875 C 292.230469 128.898438 295.109375 130.699219 296.730469 130.878906 C 312.390625 135.5625 326.609375 144.019531 340.109375 153.5625 C 332.011719 153.921875 310.351563 151.699219 301.230469 141.320313 C 296.910156 160.21875 278.191406 148.160156 264.328125 151.578125 C 263.25 158.0625 256.949219 165.078125 252.628906 167.78125 C 250.648438 165.621094 248.308594 163.460938 246.148438 161.300781 C 242.191406 166.878906 240.210938 173 233.191406 175.519531 C 228.328125 176.601563 216.089844 177.5 225.449219 169.761719 C 225.628906 169.039063 225.089844 168.859375 224.730469 168.5 C 218.429688 173.179688 208.53125 173.179688 200.789063 171.019531 C 187.828125 173.179688 174.328125 182.898438 160.648438 180.199219 C 161.550781 174.800781 161.550781 168.859375 163.171875 164 C 164.429688 163.460938 163.710938 162.199219 163.890625 161.300781 C 153.089844 164.71875 140.128906 163.101563 127.53125 162.5625 Z M 321.390625 172.28125 C 315.988281 174.980469 304.949219 171.5 299.25 165.800781 C 296.191406 170.480469 295.46875 177.5 288.988281 178.761719 C 281.570313 181.355469 277.722656 168.242188 273.238281 166.484375 C 271.351563 171.5 261.089844 176.0625 259.109375 173 C 267.75 168.5 272.070313 159.320313 272.070313 158.0625 C 282.871094 158.421875 297.988281 169.398438 305.191406 156.078125 C 305.191406 154.640625 305.191406 153.019531 305.191406 151.578125 C 311.851563 157.519531 320.308594 164.359375 321.390625 172.28125 Z M 163.890625 209.898438 C 160.648438 208.640625 155.609375 208.640625 154.890625 204.140625 C 154.171875 197.121094 155.96875 191.179688 159.929688 185.960938 C 171.089844 188.121094 181.351563 182.539063 191.070313 181.460938 C 185.488281 192.261719 177.210938 207.738281 163.890625 209.898438 Z M 220.949219 243.558594 C 216.449219 248.960938 206.371094 245.539063 204.03125 238.519531 C 201.148438 235.28125 202.410156 230.058594 199.53125 226.820313 C 193.769531 230.058594 187.46875 242.300781 179.371094 239.058594 C 176.488281 235.28125 173.070313 230.601563 174.871094 225.558594 C 177.75 218.359375 181.710938 211.519531 187.289063 205.398438 C 191.070313 207.378906 191.789063 213.859375 197.011719 215.121094 C 205.648438 220.878906 216.628906 203.238281 218.96875 216.378906 C 222.210938 224.480469 226.351563 236 220.949219 243.558594 Z M 239.128906 224.839844 C 238.769531 227.179688 235.710938 225.558594 233.910156 226.101563 C 230.851563 222.679688 228.511719 219.078125 226.710938 215.121094 C 224.191406 210.980469 224.550781 201.980469 218.96875 202.878906 C 214.648438 205.761719 208.710938 209.359375 203.488281 206.121094 C 199.351563 204.859375 194.851563 200.359375 193.769531 196.398438 C 193.949219 190.101563 195.929688 184.878906 198.269531 179.480469 C 203.671875 181.460938 211.410156 182.359375 218.25 180.199219 C 222.929688 185.78125 231.570313 185.238281 237.691406 183.441406 C 241.828125 181.28125 244.53125 177.320313 246.871094 173.71875 C 249.75 177.5 254.429688 182.71875 259.828125 183.441406 C 264.871094 183.441406 268.46875 180.738281 272.070313 177.5 C 277.828125 183.800781 285.570313 189.5625 294.75 186.679688 C 299.429688 184.160156 300.871094 179.300781 303.929688 175.519531 C 310.589844 180.378906 317.429688 188.300781 315.449219 196.941406 C 307.710938 206.121094 284.128906 188.660156 284.488281 207.921875 C 277.828125 218.539063 262.171875 202.699219 261.089844 219.621094 C 252.449219 230.238281 235.351563 200.71875 239.128906 224.839844 Z M 334.890625 217.101563 C 327.691406 225.558594 317.429688 217.820313 309.691406 215.839844 C 307.351563 222.679688 309.871094 232.039063 302.488281 236.539063 C 298.53125 238.160156 294.03125 239.058594 290.25 235.820313 C 286.289063 232.039063 282.511719 228.078125 278.550781 224.121094 C 274.949219 227.179688 277.828125 234.558594 276.03125 239.058594 C 273.328125 245.898438 265.410156 248.960938 259.109375 245.539063 C 256.050781 243.558594 251.910156 241.761719 250.648438 237.800781 C 250.828125 234.378906 247.949219 232.039063 248.128906 228.800781 C 250.828125 229.160156 261.449219 233.660156 265.589844 227.359375 C 268.109375 224.480469 268.648438 220.878906 270.089844 217.640625 C 273.871094 220.339844 279.269531 220.878906 283.769531 219.621094 C 288.089844 216.019531 293.488281 211.699219 294.210938 206.121094 C 300.328125 209.359375 307.890625 210.621094 314.910156 209.898438 C 322.109375 206.839844 324.808594 198.738281 325.171875 192.441406 C 330.210938 199.820313 336.871094 207.558594 334.890625 217.101563 Z M 402.929688 172.28125 C 394.828125 181.28125 383.308594 173.71875 375.210938 178.761719 C 377.371094 182.539063 381.6875 186.320313 378.988281 191.179688 C 371.070313 197.480469 363.148438 194.300781 355.050781 189.921875 C 352.710938 193.160156 356.851563 196.761719 353.070313 199.640625 C 344.25 200.179688 338.308594 193.339844 332.371094 187.21875 C 332.550781 179.480469 332.910156 170.121094 327.148438 164 C 336.691406 161.839844 347.851563 163.460938 355.769531 157.519531 C 356.128906 152.121094 349.828125 148.878906 347.851563 147.078125 C 366.03125 153.378906 389.96875 154.640625 402.390625 165.800781 C 404.730469 166.878906 403.109375 170.300781 402.929688 172.28125 Z M 398.429688 150.320313 C 365.671875 150.679688 333.808594 136.101563 305.191406 126.921875 C 336.148438 131.601563 367.648438 126.742188 397.890625 123.679688 C 394.289063 128.898438 387.808594 133.222656 384.929688 138.621094 C 389.070313 143.480469 415.890625 141.5 398.429688 150.320313 "/>
</g>
</svg>
