<?xml version="1.0" encoding="UTF-8"?>
<svg xmlns="http://www.w3.org/2000/svg" xmlns:xlink="http://www.w3.org/1999/xlink" width="467pt" height="466pt" viewBox="0 0 467 466" version="1.1">
<g id="surface1">
<path style=" stroke:none;fill-rule:nonzero;fill:rgb(0%,0%,0%);fill-opacity:1;" d="M 463.757813 196.398438 C 460.460938 184.738281 454.738281 174.179688 446.378906 164.71875 C 447.917969 141.617188 440 120.496094 422.617188 104.4375 C 422.179688 97.398438 426.578125 92.117188 425.039063 84.636719 C 406.558594 69.457031 382.578125 67.917969 360.140625 62.417969 C 357.5 52.957031 358.597656 41.957031 356.179688 32.277344 C 351.339844 18.199219 338.800781 4.335938 322.960938 3.898438 C 312.617188 1.257813 303.15625 15.777344 295.238281 4.558594 C 279.617188 7.417969 261.136719 1.917969 247.71875 9.398438 C 238.257813 12.257813 231.878906 -1.382813 220.65625 0.597656 C 208.558594 2.136719 198.4375 9.175781 190.519531 18.855469 C 180.839844 26.335938 189.636719 62.859375 169.179688 44.15625 C 164.996094 50.316406 161.476563 58.019531 156.636719 62.417969 C 146.738281 54.058594 139.039063 40.199219 125.617188 40.199219 C 115.71875 38.4375 106.917969 45.257813 100.316406 52.078125 C 91.078125 66.816406 93.71875 88.378906 101.195313 102.019531 C 80.957031 101.796875 60.496094 101.578125 43.335938 108.398438 C 32.996094 114.777344 25.738281 125.339844 24.195313 136.996094 C 23.535156 153.496094 36.078125 164.71875 47.296875 176.597656 C 44.65625 179.679688 41.578125 181.21875 38.496094 183.640625 C 28.597656 199.480469 12.757813 210.480469 2.855469 226.320313 C -7.921875 257.777344 26.835938 275.378906 42.457031 296.058594 C 37.835938 304.199219 32.117188 312.117188 28.15625 320.699219 C 23.757813 330.820313 16.9375 342.917969 21.996094 353.921875 C 33.4375 379.878906 65.117188 373.5 86.015625 374.597656 C 84.476563 386.699219 77.4375 396.820313 72.597656 407.820313 C 86.015625 426.519531 109.777344 427.398438 131.996094 428.28125 C 145.417969 442.359375 154.65625 463.480469 177.976563 456 C 185.238281 461.28125 195.359375 466.339844 204.15625 460.839844 C 216.039063 472.941406 225.496094 455.339844 235.839844 451.378906 C 254.757813 451.160156 268.179688 464.359375 287.316406 463.917969 C 319.660156 461.058594 332.859375 424.761719 344.300781 400.558594 C 356.179688 401 367.398438 400.339844 378.398438 398.359375 C 393.140625 397.261719 399.519531 379 413.160156 376.800781 C 432.300781 366.679688 428.339844 342.699219 432.078125 323.777344 C 437.800781 315.199219 447.917969 308.160156 449.679688 297.597656 C 445.71875 293.859375 441.097656 291.878906 436.917969 289.019531 C 440.4375 282.859375 445.71875 277.359375 447.917969 270.757813 C 435.160156 253.820313 462 251.617188 465.519531 238.199219 C 472.121094 222.359375 448.578125 210.039063 463.757813 196.398438 Z M 427.460938 118.738281 C 435.378906 129.957031 444.617188 142.496094 438.460938 157.457031 C 433.179688 160.539063 429 155.699219 424.160156 155.039063 C 427.898438 151.957031 434.5 142.9375 426.578125 137.65625 C 422.179688 133.039063 417.558594 129.078125 412.277344 125.777344 C 412.9375 126.65625 420.640625 116.976563 427.460938 118.738281 Z M 368.058594 75.179688 C 386.757813 73.859375 403.257813 78.699219 417.117188 89.476563 C 414.699219 103.339844 410.519531 119.179688 398.199219 129.078125 C 402.597656 122.699219 408.757813 110.15625 407.660156 98.058594 C 404.359375 95.417969 399.300781 94.539063 395.777344 94.976563 C 394.019531 93.4375 396 90.136719 394.238281 88.597656 C 378.179688 89.257813 361.460938 93.21875 345.839844 97.398438 C 345.398438 95.859375 343.859375 97.179688 343.417969 95.636719 C 350.679688 88.15625 357.9375 77.597656 368.058594 75.179688 Z M 412.277344 235.117188 C 394.679688 260.859375 363 260.199219 335.496094 261.078125 C 330.511719 260.785156 327.140625 259.097656 323.617188 257.339844 C 342.980469 258.4375 368.277344 257.558594 388.519531 250.960938 C 394.460938 247 402.160156 240.839844 403.699219 233.578125 C 403.917969 229.617188 397.980469 228.738281 394.898438 226.320313 C 397.320313 223.238281 399.738281 220.160156 402.160156 216.859375 C 397.539063 209.160156 389.179688 205.199219 380.597656 208.277344 C 353.539063 221.917969 326.917969 236.660156 295.898438 240.617188 C 325.160156 228.300781 350.238281 206.078125 381.480469 198.597656 C 391.160156 198.816406 402.597656 202.558594 409.199219 208.9375 C 405.238281 219.71875 419.980469 225.878906 412.277344 235.117188 Z M 238.039063 265.917969 C 249.476563 263.71875 261.136719 268.558594 266.636719 279.558594 C 266.636719 280 266.636719 280.4375 266.636719 281.097656 C 259.378906 280 241.339844 266.578125 234.078125 279.558594 C 232.539063 285.71875 232.539063 291.4375 228.578125 296.058594 C 225.058594 296.277344 221.976563 293.417969 222.199219 289.679688 C 220.878906 279.117188 229.898438 270.539063 238.039063 265.917969 Z M 214.277344 231.160156 C 210.097656 227.859375 209.21875 219.71875 212.078125 214.4375 C 212.296875 213.117188 214.058594 210.699219 216.039063 211.359375 C 215.378906 217.960938 213.839844 224.117188 214.277344 231.160156 Z M 200.199219 217.738281 C 200.417969 228.300781 206.578125 236.4375 211.199219 245.460938 C 204.378906 248.097656 198.4375 237.757813 194.476563 232.699219 C 189.199219 223.460938 191.617188 214 197.777344 205.859375 C 187.4375 193.539063 174.457031 182.316406 162.136719 174.839844 C 178.859375 177.039063 191.398438 189.578125 204.15625 201.898438 C 208.558594 201.019531 214.058594 200.359375 217.578125 199.480469 C 211.859375 205.640625 201.078125 208.277344 200.199219 217.738281 Z M 150.257813 250.960938 C 144.097656 250.519531 132.65625 240.617188 130.457031 253.378906 C 128.257813 258 134.199219 262.398438 132.878906 266.800781 C 111.097656 273.839844 75.457031 284.617188 53.675781 266.800781 C 48.398438 262.839844 43.996094 256.019531 43.996094 250.078125 C 49.71875 257.558594 59.398438 267.898438 69.515625 270.757813 C 87.996094 273.839844 104.71875 267.019531 119.238281 258 C 116.15625 250.960938 115.058594 244.140625 117.695313 236.660156 C 123.636719 229.839844 132.21875 243.480469 135.957031 236 C 135.296875 231.160156 136.839844 227.417969 137.496094 223.238281 C 150.699219 220.597656 165.4375 223.019531 174.679688 234.238281 C 178.199219 239.300781 182.378906 241.9375 185.019531 247 C 175.996094 240.617188 168.519531 229.839844 155.757813 232.699219 C 148.71875 237.757813 146.738281 243.917969 150.257813 250.960938 Z M 55.878906 233.578125 C 68.417969 221.257813 89.832031 215.539063 102.738281 220.160156 C 85.355469 219.9375 71.496094 228.738281 55.878906 233.578125 Z M 179.519531 268.339844 C 181.496094 258.4375 229.679688 253.378906 192.9375 264.378906 C 187.878906 271.859375 176.65625 277.800781 181.058594 288.140625 C 185.679688 302.21875 201.078125 299.800781 211.199219 305.519531 C 207.679688 310.140625 199.539063 310.140625 193.816406 308.820313 C 185.457031 306.398438 177.976563 298.699219 173.136719 291.4375 C 170.277344 282.640625 174.457031 274.9375 179.519531 268.339844 Z M 320.539063 150.417969 C 319.878906 149.757813 319.4375 149.316406 318.996094 148.878906 C 300.960938 155.257813 281.597656 167.359375 274.558594 186.71875 C 274.996094 186.496094 268.839844 182.316406 265.757813 180.558594 C 259.816406 180.777344 254.539063 191.339844 252.339844 179.679688 C 252.558594 164.496094 257.398438 151.078125 263.558594 138.539063 C 276.757813 125.996094 299.199219 135.898438 313.277344 133.039063 C 331.539063 149.976563 340.777344 173.960938 337.039063 198.597656 C 332.640625 206.519531 324.496094 212.460938 316.578125 215.320313 C 326.480469 200.578125 331.980469 169.558594 320.539063 150.417969 Z M 253.21875 204.320313 C 257.617188 204.539063 263.339844 206.078125 263.558594 211.359375 C 262.898438 218.398438 256.296875 222.578125 250.796875 226.320313 C 251.679688 222.800781 252.777344 219.277344 256.296875 216.859375 C 255.417969 212.679688 251.679688 208.496094 253.21875 204.320313 Z M 270.597656 202.558594 C 274.117188 209.820313 285.339844 221.039063 275.4375 228.738281 C 271.953125 232.226563 267.128906 231.507813 262.746094 232.464844 C 262.4375 232.542969 262.132813 232.628906 261.796875 232.699219 C 262.113281 232.609375 262.429688 232.53125 262.746094 232.464844 C 278.855469 228.324219 265.632813 212.269531 270.597656 202.558594 Z M 219.996094 146.457031 C 217.136719 150.859375 212.519531 162.960938 208.777344 150.417969 C 207.019531 146.898438 205.476563 142.496094 207.238281 138.539063 C 223.957031 123.359375 242.878906 113.457031 262.679688 105.976563 C 269.9375 103.777344 272.796875 111.257813 276.097656 115.4375 C 251.679688 107.078125 235.179688 131.277344 219.996094 146.457031 Z M 241.339844 236 C 241.777344 237.539063 243.539063 238.640625 242.878906 240.617188 C 239.136719 241.277344 236.9375 236.878906 235.839844 234.238281 C 235.398438 227.859375 238.699219 220.820313 245.296875 219.277344 C 241.777344 223.898438 237.15625 230.277344 241.339844 236 Z M 241.339844 197.058594 C 225.496094 202.996094 255.636719 224.777344 231.878906 209.820313 C 230.558594 204.539063 229.898438 197.058594 235.839844 194.640625 C 237.816406 193.097656 257.617188 197.496094 241.339844 197.058594 Z M 247.71875 253.378906 C 243.976563 254.480469 237.816406 254.480469 233.417969 253.378906 C 226.378906 250.519531 223.296875 241.71875 227.039063 235.117188 C 227.917969 235.117188 228.578125 239.960938 229.457031 242.160156 C 234.738281 247.660156 241.777344 248.757813 247.71875 253.378906 Z M 257.179688 250.078125 C 255.636719 244.359375 264.4375 248.097656 266.636719 247 C 270.15625 244.140625 274.996094 243.699219 278.519531 240.617188 C 278.078125 244.800781 277.199219 251.617188 270.597656 253.378906 C 265.539063 255.800781 260.917969 252.71875 257.179688 250.078125 Z M 279.398438 265.257813 C 292.378906 273.398438 302.496094 286.820313 310.199219 299.359375 C 312.398438 304.640625 315.480469 309.480469 317.238281 315.199219 C 307.117188 311.019531 298.316406 303.539063 288.859375 297.597656 C 292.816406 297.160156 300.738281 303.097656 307.777344 303.320313 C 309.539063 302.4375 307.558594 301.339844 307.777344 300.019531 C 296.996094 285.058594 281.597656 273.839844 266.636719 265.257813 C 267.957031 263.9375 275.4375 263.9375 279.398438 265.257813 Z M 330.878906 339.617188 C 331.980469 308.820313 320.980469 280.4375 296.777344 259.757813 C 317.019531 264.820313 340.558594 275.597656 348.257813 297.597656 C 351.777344 316.078125 350.679688 337.859375 333.960938 348.421875 C 316.578125 355.460938 296.777344 349.519531 281.597656 341.160156 C 270.378906 331.257813 269.496094 316.738281 268.179688 302.4375 C 285.117188 319.378906 305.359375 340.5 330.878906 339.617188 Z M 316.578125 13.355469 C 330.4375 6.757813 340.777344 19.957031 346.71875 30.078125 C 347.378906 32.277344 348.480469 34.257813 348.257813 37.117188 C 341.4375 31.835938 335.277344 20.179688 326.917969 23.699219 C 311.738281 31.179688 305.359375 45.476563 295.238281 57.796875 C 295.238281 40.859375 298.757813 20.835938 316.578125 13.355469 Z M 241.996094 26.777344 C 250.796875 17.535156 262.898438 14.019531 275.4375 15.777344 C 265.832031 21.496094 249.476563 17.535156 243.757813 30.738281 C 237.816406 41.738281 251.238281 43.058594 255.636719 49.878906 C 265.539063 59.996094 270.378906 72.539063 277.636719 83.757813 C 285.339844 73.636719 294.136719 65.496094 304.699219 59.339844 C 309.539063 56.699219 314.160156 60.21875 318.117188 62.417969 C 338.140625 80.019531 326.480469 106.34375 325.378906 127.90625 C 326.257813 130.546875 325.597656 134.136719 328.460938 133.699219 C 343.417969 120.058594 359.917969 109.496094 379.9375 107.519531 C 390.277344 124.238281 397.097656 149.976563 386.320313 167.796875 C 388.078125 149.316406 388.300781 128.417969 373.558594 113.898438 C 357.5 116.539063 342.980469 126.878906 335.496094 140.957031 C 358 163.667969 344.035156 194.320313 345.332031 197 C 341.953125 190.019531 350.667969 161.667969 320.539063 131.277344 C 326.257813 115.65625 323.398438 95.636719 319.660156 79.796875 C 315.039063 73.859375 307.558594 72.316406 300.738281 74.296875 C 293.480469 81.777344 287.097656 90.796875 280.058594 98.9375 C 277.859375 99.816406 274.777344 97.617188 273.679688 94.976563 C 272.136719 69.238281 254.316406 48.558594 232.539063 34.699219 C 238.917969 38.4375 238.917969 29.417969 241.996094 26.777344 Z M 192.9375 52.957031 C 199.976563 45.257813 208.339844 30.078125 220.65625 37.117188 C 238.476563 47.019531 255.859375 62.417969 261.136719 82.21875 C 260.917969 86.839844 269.058594 99.15625 257.179688 96.519531 C 247.496094 81.558594 242.65625 61.539063 224.617188 50.539063 C 221.539063 49.21875 217.359375 50.097656 213.617188 49.878906 C 197.117188 70.339844 195.136719 100.039063 200.199219 126.65625 C 197.777344 128.199219 193.597656 132.378906 192.9375 126.65625 C 181.058594 105.976563 181.058594 73.636719 192.9375 52.957031 Z M 185.898438 130.617188 C 198.65625 146.238281 206.359375 163.839844 216.699219 180.558594 C 200.199219 166.917969 192.058594 134.796875 164.558594 130.617188 C 159.9375 131.496094 155.097656 136.339844 154.21875 140.957031 C 152.457031 147.996094 153.996094 155.476563 155.757813 162.296875 C 147.398438 165.378906 139.476563 170.878906 133.539063 178.136719 C 126.9375 191.777344 138.15625 201.898438 142.339844 212.898438 C 136.839844 213.117188 126.496094 206.519531 122.539063 198.597656 C 119.238281 190.898438 115.277344 182.539063 117.695313 173.296875 C 122.976563 164.71875 130.675781 159.4375 139.039063 155.039063 C 141.019531 143.15625 139.917969 128.199219 154.21875 122.699219 C 166.097656 121.816406 176.65625 124.679688 185.898438 130.617188 Z M 120.996094 74.296875 C 132.65625 69.457031 146.738281 72.539063 155.757813 80.679688 C 164.777344 89.257813 174.238281 99.15625 179.519531 109.9375 C 164.117188 100.039063 151.796875 77.816406 131.117188 85.519531 C 126.496094 91.238281 123.199219 97.617188 119.238281 103.558594 C 117.917969 96.296875 115.058594 82.878906 120.996094 74.296875 Z M 59.835938 121.816406 C 75.675781 111.917969 98.558594 106.199219 114.617188 115.4375 C 123.636719 122.917969 131.777344 131.9375 135.078125 142.496094 C 134.855469 144.257813 133.097656 144.917969 131.996094 145.578125 C 113.078125 137.21875 95.035156 120.058594 71.71875 129.078125 C 65.558594 133.699219 59.175781 139.859375 59.175781 147.996094 C 63.578125 162.738281 79.417969 166.257813 89.316406 176.597656 C 74.796875 170.21875 53.675781 159.65625 52.796875 140.957031 C 52.578125 133.476563 55.65625 126.65625 59.835938 121.816406 Z M 36.078125 281.757813 C 29.917969 272.300781 19.796875 265.480469 12.316406 254.917969 C -2.644531 230.5 24.417969 217.960938 35.417969 200.359375 C 50.816406 177.917969 81.398438 182.757813 103.398438 190.019531 C 77.65625 185.617188 46.636719 203.878906 23.535156 223.238281 C 17.378906 230.5 18.476563 242.597656 19.578125 250.960938 C 25.738281 255.800781 32.777344 257.777344 39.378906 261.300781 C 43.777344 267.898438 49.9375 273.617188 51.917969 281.097656 C 47.738281 283.738281 40.917969 282.859375 36.078125 281.757813 Z M 52.796875 368.878906 C 41.578125 365.140625 31.675781 354.578125 29.035156 342.917969 C 31.457031 320.699219 46.636719 300.898438 65.558594 288.140625 C 85.355469 287.039063 105.230469 281.320313 123.199219 281.097656 C 101.125 293.566406 72.15625 288.578125 60.71875 315.859375 C 60.277344 323.777344 57.636719 334.777344 63.136719 341.160156 C 72.378906 349.078125 84.035156 350.839844 95.476563 353.039063 C 83.378906 362.058594 69.515625 371.960938 52.796875 368.878906 Z M 124.078125 421.238281 C 110.4375 421.019531 97.238281 419.480469 86.015625 413.320313 C 74.796875 399.679688 96.578125 389.78125 95.476563 375.257813 C 118.355469 350.398438 105.597656 303.539063 146.296875 292.980469 C 124.519531 307.71875 113.957031 331.480469 110.65625 356.339844 C 101.636719 367.339844 94.597656 381.199219 98.777344 395.941406 C 101.417969 399.679688 103.839844 406.5 109.777344 406.28125 C 119.898438 406.5 128.476563 402.980469 136.839844 399.019531 C 134.417969 405.179688 138.378906 420.359375 124.078125 421.238281 Z M 167.636719 445 C 154.65625 450.058594 152.679688 435.980469 144.757813 430.699219 C 138.15625 414.417969 146.078125 398.140625 150.257813 383.179688 C 144.667969 357 153.332031 314.332031 165.21875 308.820313 C 154.878906 326.417969 151.796875 349.960938 155.757813 370.640625 C 170.277344 359.199219 165.4375 335.21875 181.058594 322.238281 C 175.777344 330.160156 172.917969 340.058594 173.136719 349.078125 C 176.289063 343.140625 181.644531 331.773438 187.730469 334.046875 C 166.464844 360.371094 140.578125 395.71875 150.917969 432.238281 C 155.539063 435.761719 161.699219 435.101563 166.097656 438.621094 C 181.496094 426.960938 191.617188 410.460938 201.738281 395.058594 C 198.4375 380.097656 190.519531 361.839844 199.316406 346.878906 C 194.257813 360.960938 200.199219 381.417969 209.65625 395.058594 C 210.097656 418.378906 184.796875 434.441406 167.636719 445 Z M 211.199219 344.460938 C 213.839844 331.257813 218.019531 319.160156 225.496094 307.9375 C 225.9375 306.839844 229.019531 306.839844 230.117188 307.9375 C 218.679688 339.839844 210.097656 379.21875 233.417969 408.480469 C 254.097656 389.78125 259.15625 360.738281 256.296875 331.699219 C 251.679688 320.699219 246.839844 309.480469 241.996094 298.480469 C 245.519531 297.597656 248.597656 296.277344 252.339844 296.9375 C 267.738281 325.757813 271.476563 371.300781 252.339844 399.898438 C 247.496094 405.839844 244.417969 412.441406 237.378906 416.398438 C 235.839844 415.960938 235.179688 414.417969 233.417969 414.859375 C 219.996094 396.378906 206.578125 371.960938 211.199219 344.460938 Z M 223.957031 419.699219 C 229.019531 419.261719 236.058594 427.179688 242.878906 422.121094 C 251.679688 416.398438 258.71875 407.160156 266.636719 399.898438 C 269.058594 414.417969 261.136719 427.621094 249.917969 437.082031 C 236.9375 440.160156 230.558594 426.960938 223.957031 419.699219 Z M 327.578125 417.28125 C 320.980469 431.140625 313.058594 448.519531 297.4375 454.460938 C 283.359375 456 263.777344 456.878906 253.21875 443.460938 C 279.179688 430.699219 272.796875 397.480469 273.679688 373.71875 C 275.878906 368.878906 271.917969 354.359375 280.058594 358.757813 C 286.4375 375.039063 288.636719 393.960938 303.15625 406.28125 C 313.9375 393.738281 323.617188 427.839844 326.917969 404.519531 C 330.660156 386.039063 329.777344 414.199219 327.578125 417.28125 Z M 372.019531 384.058594 C 359.257813 393.300781 344.078125 386.917969 330.878906 383.179688 C 324.71875 376.140625 318.996094 366.898438 312.617188 361.839844 C 335.277344 354.800781 342.539063 385.378906 363.21875 383.179688 C 365.859375 382.519531 370.699219 385.160156 371.140625 380.761719 C 377.078125 359.640625 339.019531 349.078125 356.839844 327.738281 C 372.238281 342.257813 380.378906 363.601563 372.019531 384.058594 Z M 364.757813 324.660156 C 355.078125 323.558594 360.578125 315.199219 356.839844 309.480469 C 368.058594 312.558594 380.160156 313.4375 391.820313 315.199219 C 394.238281 311.460938 393.578125 305.519531 392.480469 301.558594 C 394.460938 300.679688 400.398438 297.597656 404.359375 295.398438 C 391.160156 284.839844 375.320313 275.597656 360.800781 267.679688 C 377.519531 267.238281 391.378906 266.578125 402.820313 278.679688 C 409.417969 289.679688 422.617188 298.480469 418.660156 312.777344 C 406.117188 328.398438 384.117188 331.039063 364.757813 324.660156 Z M 418 361.839844 C 409.640625 371.960938 396.21875 372.398438 383.898438 370.640625 C 383.019531 365.800781 382.359375 360.960938 381.480469 356.339844 C 386.097656 357.878906 389.839844 361.179688 394.898438 360.960938 C 401.277344 351.5 391.597656 342.917969 386.980469 335 C 399.519531 334.558594 410.519531 330.597656 420.199219 323.117188 C 425.917969 333.898438 423.9375 351.058594 418 361.839844 Z M 421.078125 292.097656 C 423.5 285.9375 427.460938 280.4375 430.539063 274.71875 C 428.777344 263.71875 400.617188 258.878906 415.578125 245.460938 C 428.117188 246.777344 433.839844 259.980469 440 269.21875 C 438.460938 278.898438 428.558594 286.378906 421.078125 292.097656 Z M 445.71875 212.898438 C 440.4375 221.039063 432.078125 227.859375 424.160156 232.699219 C 429.878906 221.917969 439.117188 212.460938 437.800781 198.597656 C 431.199219 193.316406 416.019531 195.960938 421.960938 181.21875 C 416.019531 176.15625 407.660156 178.136719 400.398438 176.597656 C 398.417969 171.757813 397.757813 165.378906 398.199219 160.757813 C 418.21875 161.636719 439.339844 165.15625 449.679688 185.179688 C 456.5 193.980469 448.800781 204.539063 445.71875 212.898438 "/>
</g>
</svg>
