<?xml version="1.0" encoding="UTF-8"?>
<svg xmlns="http://www.w3.org/2000/svg" xmlns:xlink="http://www.w3.org/1999/xlink" width="496pt" height="531pt" viewBox="0 0 496 531" version="1.1">
<g id="surface1">
<path style=" stroke:none;fill-rule:nonzero;fill:rgb(0%,0%,0%);fill-opacity:1;" d="M 491.011719 352.972656 C 484.089844 348.402344 468.601563 347.597656 461.617188 352.730469 C 450.941406 361.183594 445.816406 372.714844 439.839844 384.328125 C 419.304688 383.40625 401.316406 380.40625 375.277344 371.003906 C 360.929688 365.199219 346.753906 359.476563 333.515625 351.960938 C 335.140625 351.449219 336.363281 350.824219 338.386719 350.511719 C 343.863281 349.597656 342.0625 342.320313 341.675781 340.914063 C 341.4375 340.066406 341.410156 339.324219 342.261719 338.679688 C 343.769531 337.539063 345.417969 336.054688 347.863281 328.136719 C 358.003906 335.59375 364.960938 340.765625 375.070313 343.1875 C 387.476563 346.15625 395.339844 336.667969 384.917969 321.03125 C 376.21875 307.980469 363.335938 297.335938 349.914063 289.449219 C 339.582031 270.746094 328.5625 251.273438 318.316406 232.488281 C 315.667969 227.449219 298.757813 198.34375 293.292969 188.761719 C 294.898438 177.039063 295.71875 170.765625 289.714844 162.957031 C 284.972656 156.796875 275.941406 151.722656 274.675781 149.648438 C 277.402344 141.996094 272.3125 134.949219 268.953125 131.03125 C 270.664063 129.921875 273.3125 129.496094 274.421875 128.300781 C 265.113281 120.527344 254.351563 114.976563 248.460938 104.132813 C 253.667969 103.363281 259.5625 108.570313 263.832031 104.386719 C 264.601563 101.738281 260.242188 100.886719 258.878906 98.410156 C 258.917969 97.976563 259.222656 97.992188 259.632813 98.039063 C 264.183594 98.5625 265.484375 92.71875 261.953125 89.1875 C 259.546875 87.632813 257.207031 89.488281 255.003906 90.269531 C 254.3125 90.515625 253.996094 90.300781 254.179688 89.613281 C 256.570313 81.074219 258.898438 71.261719 258.707031 62.714844 C 252.941406 33.726563 240.277344 21.027344 226.957031 11.308594 C 199.972656 -8.378906 167.386719 -2.160156 140.824219 30.5625 C 127.53125 46.9375 124.324219 64.183594 127.277344 83.039063 C 125.738281 83.722656 123.945313 84.234375 122.410156 84.234375 C 120.957031 89.613281 127.53125 91.492188 130.351563 93.714844 C 129.160156 94.464844 127.585938 94.777344 126.152344 95.246094 C 120.609375 97.058594 121.34375 99.9375 124.628906 101.910156 C 126.59375 102.59375 129.410156 101.3125 130.777344 102.9375 C 118.820313 113.609375 109.34375 127.1875 99.007813 138.378906 C 105.007813 138.09375 116.445313 133.363281 120.414063 132.398438 C 120.929688 132.269531 120.957031 132.621094 120.664063 132.816406 C 108.464844 140.886719 103.046875 146.921875 102.511719 163.570313 C 92.066406 170.894531 86.078125 176.332031 85.6875 192.265625 C 80.988281 200.546875 67.957031 226.355469 65.746094 230.574219 C 54.96875 251.152344 37.632813 285.636719 31.972656 301.320313 C 18.796875 311.601563 4.261719 323.601563 0.53125 339.707031 C -1.730469 349.460938 2.460938 355.230469 12.183594 352.152344 C 18.789063 350.058594 36.15625 338.808594 39.402344 337.785156 C 41.878906 340.175781 48.363281 344.542969 49.199219 344.851563 C 55.046875 347.007813 57.148438 343.953125 57.421875 339.671875 C 57.980469 330.980469 55.234375 318.703125 53.746094 312.761719 C 53.316406 311.195313 53.320313 309.6875 54.089844 308.492188 C 64.847656 293.292969 76.464844 280.140625 87.90625 264.855469 C 98.582031 250.847656 110.195313 236.585938 121.128906 224.460938 C 127.53125 221.984375 136.875 223.128906 138.976563 215.40625 C 140.085938 208.917969 141.070313 201.320313 141.195313 195.59375 C 140.976563 182.300781 132.261719 167.496094 129.925781 160.753906 C 138.464844 167.15625 142.476563 175.609375 144.269531 185.519531 C 145.210938 211.820313 146.492188 236.5 148.027344 262.546875 C 127.6875 285.796875 124.457031 300.917969 120.964844 320.351563 C 119.269531 329.796875 116.3125 351.660156 110.28125 365.027344 C 105.925781 376.984375 96.960938 386.976563 90.980469 397.648438 C 90.128906 399.101563 89.445313 399.613281 88.933594 401.324219 C 97.808594 411.972656 101.3125 412.84375 108.402344 406.019531 C 116.503906 412.097656 119.492188 410.984375 124.460938 402.347656 C 132.578125 407.867188 134.695313 407.335938 141.027344 401.578125 C 142.394531 402.007813 143.433594 403.003906 144.953125 403.628906 C 149.394531 405.507813 152.382813 401.40625 155.203125 399.273438 C 158.53125 405.054688 164.339844 408.140625 169.550781 404.824219 C 170.316406 406.617188 171.414063 408.871094 172.367188 410.546875 C 175.527344 414.902344 181.164063 413.621094 185.519531 412.425781 C 188.339844 414.902344 190.019531 418.554688 194.144531 419.769531 C 197.476563 420.621094 199.867188 419.34375 202.34375 417.71875 C 213.886719 430.222656 252.730469 474.511719 261.953125 484.332031 C 264.941406 488.515625 270.066406 491.25 268.273438 497.652344 C 264.144531 520.761719 284.175781 537.378906 304.566406 528.398438 C 315.679688 522.5625 342.964844 487.53125 337.691406 464.199219 C 332.890625 442.953125 311.980469 441.421875 292.097656 457.515625 C 286.050781 450.289063 254.714844 410.804688 253.753906 399.273438 C 259.304688 400.894531 264.429688 397.992188 268.101563 393.976563 C 275.179688 401.863281 282.511719 401.171875 287.144531 393.976563 C 293.566406 397.796875 296.296875 397.027344 299.292969 394.925781 C 302.21875 392.867188 306.617188 397.054688 310.289063 397.054688 C 350.085938 403.117188 388.171875 411.398438 427.113281 420.023438 C 434.203125 426.515625 441.800781 431.59375 451.539063 434.714844 C 460.953125 437.417969 468.621094 428.320313 470.65625 424.410156 C 477.539063 411.207031 489.035156 386.757813 492.503906 374.035156 C 494.722656 365.894531 498.230469 357.734375 491.011719 352.972656 Z M 343.507813 292.265625 C 358.300781 300.753906 373.023438 310.800781 382.496094 324.933594 C 388.863281 334.429688 381.804688 339.636719 376.238281 338.800781 C 365.5625 337.195313 356.671875 330.289063 344.960938 319.59375 C 344.105469 321.386719 342.730469 330.453125 341.949219 332.511719 C 340.175781 337.210938 335.21875 336.652344 335.664063 331.789063 C 335.871094 329.574219 336.933594 317.203125 337.617188 313.617188 C 326.765625 295.195313 289.996094 245.816406 272.199219 226.507813 C 281.679688 220.785156 288.683594 213.273438 295.769531 205.414063 C 300.835938 208.339844 337.371094 281.113281 343.507813 292.265625 Z M 329.761719 335.992188 C 300.636719 324.035156 266.222656 310.628906 252.558594 280.996094 C 249.824219 271.257813 249.65625 259.984375 248.460938 249.480469 C 248.117188 242.820313 247.519531 235.816406 246.578125 229.15625 C 245.546875 214.722656 243.8125 198.636719 246.160156 183.871094 C 247.457031 175.703125 251.675781 163.402344 255.804688 160.066406 C 249.824219 176.890625 247.945313 196.363281 247.179688 215.664063 C 250.339844 218.140625 255.378906 217.628906 258.878906 217.714844 C 278.265625 237.695313 292.695313 259.046875 308.921875 280.652344 C 316.097656 292.011719 324.039063 302.515625 332.664063 313.617188 C 333.089844 318.3125 329.417969 333.175781 329.761719 335.992188 Z M 159.503906 221.515625 C 159.457031 219.761719 160.054688 219.761719 160.203125 221.453125 C 160.914063 229.460938 163.316406 247.976563 167.242188 256.230469 C 172.710938 257.070313 177.515625 258.050781 183.214844 258.105469 C 183.46875 256.773438 181.695313 250.160156 180.484375 245.238281 C 179.160156 239.839844 176.761719 225.449219 179.613281 216.8125 C 179.722656 216.476563 179.996094 216.464844 180.019531 216.800781 C 180.71875 228.785156 185.339844 256.429688 187.996094 258.703125 C 193.300781 258.75 196.792969 259.21875 201.660156 259.132813 C 204.109375 245.984375 206.203125 231.515625 204.871094 220.527344 C 204.761719 219.605469 205.046875 219.519531 205.277344 220.414063 C 208.199219 231.875 207.082031 247.164063 205.574219 259.039063 C 210.234375 258.953125 215.410156 258.105469 219.507813 257.679688 C 223.4375 249.140625 228.476563 241.96875 229.328125 231.804688 C 232.1875 238.757813 226.171875 248.96875 225.230469 256.824219 C 231.722656 256.144531 237.953125 254.949219 244.359375 254.007813 C 244.871094 256.058594 245.726563 257.851563 245.554688 260.15625 C 235.476563 265.792969 224.972656 266.050781 213.1875 267.328125 C 193.378906 268.867188 172.195313 266.390625 154.179688 259.902344 C 153.921875 257.953125 153.117188 256.90625 153.152344 254.351563 C 156.394531 255.378906 161.242188 255.722656 164.425781 255.832031 C 161.949219 245.070313 158.902344 233.214844 159.503906 221.515625 Z M 205.160156 120.355469 C 205.042969 119.808594 206.21875 119.816406 206.40625 120.226563 C 206.632813 120.707031 208.277344 131.839844 206.457031 135.347656 C 204.796875 138.550781 185.707031 147.640625 165.023438 135.300781 C 164.425781 129.238281 164.402344 121.179688 164.425781 114.636719 C 179.816406 125.4375 197.164063 124.894531 203.148438 122.742188 C 204.316406 122.324219 205.5 122.019531 205.160156 120.355469 Z M 222.410156 160.066406 C 221.300781 161.863281 220.824219 164.1875 218.484375 165.019531 C 214.726563 166.167969 212.761719 161.179688 210.882813 158.871094 C 208.492188 159.898438 207.296875 163.996094 204.136719 162.972656 C 200.550781 161.09375 201.320313 157.421875 200.292969 154.175781 C 201.410156 154.277344 202.316406 154.832031 203.226563 155.390625 C 205.546875 156.816406 215.785156 159.699219 222.410156 160.066406 Z M 199.269531 153.578125 C 197.730469 155.371094 196.535156 157.421875 194.316406 158.019531 C 190.8125 156.824219 188.570313 149.546875 189.789063 148.796875 C 193.09375 150.417969 195.9375 152.46875 199.269531 153.578125 Z M 188.59375 150.246094 C 187.335938 153.375 187.3125 157.335938 183.640625 158.445313 C 181.675781 158.785156 180.140625 158.019531 178.773438 156.824219 C 181.847656 154.601563 185.433594 151.699219 188.59375 150.246094 Z M 235.734375 146.402344 C 235.308594 141.792969 234.453125 136.753906 231.636719 133.082031 C 230.96875 132.464844 231.195313 132.007813 232.234375 132.398438 C 234.238281 133.222656 236.648438 133.644531 238.457031 134.804688 C 240.84375 136.34375 242.21875 141.371094 237.527344 143.929688 C 241.796875 149.546875 242.132813 154.464844 235.308594 154.773438 C 234.539063 154.773438 233.332031 154.578125 233.257813 155.628906 C 232.699219 164.308594 229.449219 165.316406 223.179688 160.496094 C 223.804688 159.765625 224.96875 159.703125 226.148438 159.398438 C 228.546875 158.78125 236.308594 153 235.734375 146.402344 Z M 294.574219 201.316406 C 288.339844 209.769531 279.117188 217.371094 269.125 222.582031 C 268.1875 222.324219 268.015625 220.960938 267.503906 219.933594 C 275.871094 213.359375 285.4375 204.304688 292.695313 197.386719 C 293.464844 198.496094 294.746094 200.035156 294.574219 201.316406 Z M 263.347656 182.410156 C 263.359375 181.941406 263.648438 181.847656 263.75 182.300781 C 264.945313 187.640625 266.730469 198.496094 272.628906 204.816406 C 274.878906 202.941406 277.039063 200.976563 277.765625 198.113281 C 278.03125 197.0625 280.3125 179.882813 279.203125 172.367188 C 278.519531 169.890625 278.347656 167.925781 278.179688 165.191406 C 283.886719 171.503906 280.996094 185.601563 281.421875 196.191406 C 284.328125 194.824219 286.378906 192.433594 288.769531 190.042969 C 289.792969 190.8125 290.21875 192.007813 290.816406 193.289063 C 282.742188 202.539063 276.28125 209.8125 266.117188 215.960938 C 265.605469 216.128906 263.320313 214.039063 264.171875 212.761719 C 264.855469 212.078125 265.652344 211.4375 266.050781 210.710938 C 263.402344 207.121094 258.800781 203.226563 258.707031 199.695313 C 260.925781 202.769531 264.855469 206.011719 267.929688 208.660156 C 268.527344 208.832031 269.210938 208.40625 269.296875 207.890625 C 269.296875 206.664063 268.707031 205.582031 268.03125 204.5 C 265.136719 199.875 263.046875 192.539063 263.347656 182.410156 Z M 241.027344 31.628906 C 255.515625 46.929688 257.179688 70.589844 249.007813 91.171875 C 248.417969 92.597656 247.589844 92.816406 248.027344 90.695313 C 253.078125 65.824219 246.621094 52.527344 239.40625 32.226563 C 239.203125 31.664063 240.347656 31.054688 241.027344 31.628906 Z M 243.140625 53.546875 C 242.710938 51.945313 244.007813 51.792969 244.703125 53.320313 C 250.011719 69.96875 242.328125 90.679688 238.382813 93.285156 C 238.742188 89.601563 245.109375 60.355469 243.140625 53.546875 Z M 243.335938 105.582031 C 245.980469 115.488281 255.71875 121.554688 262.976563 128.554688 C 250.644531 126.238281 247.269531 121.535156 237.355469 109.855469 C 235.515625 115.566406 241.832031 124.726563 245.386719 132.226563 C 238.820313 127.355469 233.855469 119.503906 230.011719 112.585938 C 225.933594 116.664063 223.960938 122.855469 223.769531 128.960938 C 223.691406 131.542969 224.289063 138.460938 223.011719 138.378906 C 219.378906 126.0625 218.910156 118.203125 230.609375 102.507813 C 234.964844 103.105469 238.808594 105.242188 243.335938 105.582031 Z M 183.152344 7.773438 C 196.605469 3.40625 215.367188 6.394531 225.175781 14.953125 C 230.589844 19.675781 234.324219 33.386719 232.402344 40.851563 C 232.234375 41.277344 231.882813 41.347656 231.636719 40.851563 C 228.730469 32.992188 225.488281 24.539063 221.558594 17.621094 C 221.046875 25.222656 221.21875 32.394531 218.910156 39.140625 C 216.785156 38.90625 217.460938 28.296875 215.664063 23.003906 C 214.300781 25.222656 212.363281 31.511719 211.308594 31.199219 C 209.347656 24.796875 207.039063 19.585938 202.515625 14.546875 C 202.257813 16.253906 205.347656 27.316406 200.039063 38.117188 C 199.183594 28.980469 197.476563 19.242188 192.863281 11.300781 C 188.113281 19.539063 186.894531 37.992188 184.921875 38.800781 C 182.359375 30.6875 184.496094 22.746094 184.496094 14.378906 C 182.105469 16.769531 174.757813 31.796875 172.625 36.324219 C 171.085938 30.601563 171.601563 23.941406 173.820313 18.476563 C 173.171875 16.792969 162.289063 27.527344 157.59375 32.394531 C 157.210938 25.5 170.410156 11.910156 183.152344 7.773438 Z M 148.976563 48.507813 C 151.363281 41.503906 158.15625 35.269531 162.546875 30.175781 C 163.179688 29.679688 163.828125 29.578125 164.597656 29.578125 C 166.9375 39.53125 168.179688 44.871094 177.917969 42.472656 C 180.824219 43.839844 184.496094 45.207031 187.3125 42.898438 C 190.214844 43.070313 192.949219 44.777344 195.769531 45.71875 C 199.523438 43.328125 203.710938 45.890625 207.210938 46.742188 C 210.457031 45.632813 213.957031 46.144531 216.691406 47.597656 C 222.15625 45.207031 228.21875 48.28125 233.683594 44.949219 C 234.78125 46.988281 236.210938 53.652344 236.425781 55.675781 C 238.605469 76.132813 232.238281 91.230469 222.03125 102.402344 C 199.972656 126.554688 169.460938 123.753906 155.121094 89.144531 C 152.132813 81.941406 145.964844 57.363281 148.976563 48.507813 Z M 144.101563 84.660156 C 143.417969 84.574219 142.746094 84.960938 142.222656 85.257813 C 141.710938 82.355469 140.003906 78.769531 139.832031 75.4375 C 139.832031 67.238281 139.488281 59.894531 141.625 52.292969 C 142.90625 58.613281 142.394531 66.726563 143.675781 73.21875 C 144.421875 76.878906 144.527344 80.816406 144.101563 84.660156 Z M 142.90625 35.300781 C 143.246094 36.410156 142.671875 37.457031 142.050781 38.546875 C 136.328125 49.730469 132.058594 62.882813 135.046875 76.890625 C 134.535156 78.597656 134.28125 79.472656 133.851563 80.988281 C 127.808594 74.078125 130.773438 50.039063 142.90625 35.300781 Z M 47.597656 306.871094 C 47.597656 310.542969 52.066406 325.023438 52.984375 328.855469 C 56.238281 342.429688 51.113281 344.558594 45.023438 337.386719 C 42.917969 334.90625 41.269531 332.1875 39.570313 330.015625 C 31.636719 335.671875 24.933594 342.480469 16.398438 347.257813 C 9.03125 351.382813 -0.933594 348.464844 5.5 334.796875 C 9.1875 326.960938 24.777344 312.316406 32.570313 307.640625 C 32.960938 307.328125 33.488281 306.742188 33.59375 306.445313 C 47.683594 273.050781 64.59375 244.527344 83.210938 215.40625 C 89.871094 221.640625 96.617188 226.851563 104.730469 231.207031 C 96.917969 239.976563 67.5625 282.296875 47.597656 306.871094 Z M 109.855469 230.183594 C 100.632813 224.460938 91.496094 219.421875 84.066406 211.136719 C 84.234375 209.769531 85.089844 207.976563 86.710938 209.257813 C 95.253906 215.75 103.449219 220.359375 112.332031 225.910156 C 111.988281 227.535156 110.878906 228.984375 109.855469 230.183594 Z M 129.753906 198.242188 C 126.253906 206.355469 121.726563 214.296875 114.980469 220.359375 C 115.460938 221.128906 116.882813 221.679688 117.566406 222.378906 C 118.496094 223.277344 117.160156 224.773438 116.128906 224.289063 C 105.414063 219.25 95.988281 213.597656 87.140625 205.414063 C 87.222656 203.792969 88.457031 202.082031 89.617188 201.316406 C 91.152344 201.058594 92.945313 206.097656 94.484375 203.367188 C 98.328125 195.167969 102.425781 184.835938 112.160156 181.417969 C 104.21875 188.421875 100.632813 197.644531 97.386719 207.636719 C 98.839844 209.429688 101.144531 210.96875 103.109375 211.992188 C 106.183594 206.355469 107.890625 200.035156 114.808594 197.644531 C 114.039063 199.523438 112.246094 200.207031 111.476563 201.914063 C 108.832031 205.585938 107.464844 210.113281 106.355469 214.640625 C 108.488281 216.261719 110.710938 217.457031 112.929688 218.910156 C 120.359375 212.503906 124.800781 203.621094 129.925781 195.339844 C 130.863281 195.851563 130.09375 197.386719 129.753906 198.242188 Z M 129.328125 139.402344 C 127.800781 137.347656 138.550781 119.160156 140.003906 110.535156 C 140.152344 109.972656 139.695313 110.046875 139.402344 110.535156 C 133.683594 118.71875 123.679688 126.234375 113.582031 129.171875 C 111.1875 129.863281 111.203125 128.890625 112.964844 127.453125 C 123.335938 119.007813 129.542969 109.128906 138.550781 100.289063 C 138.953125 98.921875 139.621094 98.066406 140.453125 97.535156 C 142.941406 95.933594 146.898438 97.214844 149.652344 96.1875 C 156.015625 101.890625 155.117188 129.410156 155.203125 134.703125 C 153.117188 131.398438 151.019531 108.230469 149.226563 105.15625 C 145.210938 117.710938 138.636719 130.605469 129.328125 139.402344 Z M 146.746094 162.800781 C 141.796875 159.726563 148.285156 153.578125 142.050781 151.699219 C 138.550781 150.820313 137.609375 147.570313 141.480469 144.382813 C 143.015625 143.117188 144.117188 142.082031 140.597656 140.257813 C 139.542969 139.632813 139.085938 136.8125 141.027344 136.328125 C 143.074219 135.730469 145.808594 134.960938 147.601563 135.300781 C 141.707031 147.96875 144.992188 154.996094 153.765625 159.300781 C 161.875 163.277344 167.585938 161.800781 178.089844 156.992188 C 176.214844 165.070313 173.574219 166.511719 169.867188 163.3125 C 169.210938 162.742188 168.0625 162.507813 167.671875 163.144531 C 165.019531 166.972656 158.753906 173.144531 155.800781 165.019531 C 155.097656 163.117188 155.023438 160.679688 152.300781 161.945313 C 150.675781 162.800781 148.628906 163.742188 146.746094 162.800781 Z M 132.628906 304.035156 C 136.585938 294.035156 144.371094 281.140625 157.421875 269.722656 C 158.191406 268.355469 156.226563 267.929688 155.542969 267.328125 C 155.628906 266.136719 155.597656 264.53125 155.800781 263.230469 C 176.980469 271.003906 203.027344 273.222656 226.253906 269.976563 C 232.660156 268.355469 238.46875 267.414063 244.53125 265.28125 C 245.640625 266.21875 245.8125 268.78125 245.980469 270.746094 C 242.480469 273.734375 237.699219 273.308594 233.683594 275.101563 C 232.921875 282.476563 244.921875 302.425781 257 313.789063 C 245.632813 311.621094 236.503906 292.144531 234.285156 287.882813 C 232.300781 284.066406 230.515625 280.085938 228.304688 276.296875 C 223.113281 277.035156 217.789063 277.441406 213.617188 277.578125 C 211.882813 294.925781 220.933594 312.933594 230.773438 326.78125 C 235.929688 334.035156 247.671875 345.859375 254.3125 351.363281 C 254.84375 351.804688 254.683594 352.058594 254.132813 351.789063 C 233.644531 341.847656 212.4375 309.0625 206.015625 278.175781 C 201.0625 278.945313 196.449219 279.199219 191.242188 278.773438 C 191.136719 282.308594 190.851563 289.378906 190.628906 296.175781 C 189.964844 316.351563 185.433594 333.90625 174.730469 351.601563 C 174.09375 352.652344 173.777344 352.378906 174.195313 351.132813 C 184.125 321.484375 187.042969 307.746094 187.125 278.789063 C 183.3125 278.101563 178.960938 278.085938 175.269531 277.152344 C 169.511719 287.28125 159.523438 295.4375 153.050781 305.609375 C 151.753906 307.648438 148.492188 314.246094 146.796875 317.796875 C 146.542969 318.332031 146.222656 318.0625 146.28125 317.519531 C 147.769531 302.882813 158.039063 292.851563 165.449219 280.996094 C 166.5625 278.945313 167.671875 277.492188 168.523438 275.101563 C 166.152344 273.382813 163.742188 272.882813 161.691406 271.601563 C 149.625 280.921875 141.285156 293.164063 133.042969 304.375 C 132.828125 304.667969 132.492188 304.378906 132.628906 304.035156 Z M 298.527344 471.371094 C 313.445313 448.292969 329.175781 458.128906 329.160156 459.566406 C 305.386719 457.519531 298.476563 472.777344 290.730469 493.457031 C 286.773438 504.019531 282.457031 515.664063 285.523438 520.796875 C 282.179688 521.3125 283.421875 511.84375 284.140625 508.613281 C 286.433594 498.265625 290.898438 483.179688 298.527344 471.371094 Z M 271 437.214844 C 275.664063 443.882813 288.085938 459.992188 288.171875 462.042969 C 281.679688 469.984375 276.640625 478.953125 272.371094 488.6875 C 261.355469 475.875 249.398438 463.40625 238.980469 450.941406 C 229.925781 440.691406 218.65625 430.785156 211.308594 419.597656 C 218.003906 420.765625 221.015625 422.042969 225.925781 415.648438 C 226.992188 414.257813 227.953125 412.777344 228.988281 411.570313 C 235.410156 415.109375 249.226563 412.097656 249.226563 405.679688 C 256.695313 416.226563 263.652344 426.714844 271 437.214844 Z M 306.09375 375.707031 C 303.332031 393.15625 280.382813 388.136719 269.777344 387.882813 C 256.476563 387.5625 248.296875 396.382813 236.875 402.683594 C 222.804688 410.441406 205.296875 414.398438 195.21875 411.652344 C 186.105469 409.167969 178.6875 402.0625 170.746094 397.054688 C 161.265625 391.84375 148.113281 388.597656 137.523438 393.550781 C 125.226563 396.539063 110.796875 402.605469 97.8125 397.820313 C 97.300781 397.664063 97.222656 397.28125 97.8125 396.796875 C 101.144531 393.378906 103.707031 390.5625 106.355469 386.804688 C 114.980469 391.929688 127.363281 391.929688 136.757813 388.855469 C 145.980469 386.121094 155.203125 380.3125 166.046875 382.875 C 172.316406 385.398438 178.109375 389.253906 184.042969 392.832031 C 201.429688 403.320313 210.476563 404.246094 224.632813 399.273438 C 238.980469 393.976563 244.785156 375.703125 262.976563 378.777344 C 269.039063 379.160156 275.746094 380.1875 281.988281 379.867188 C 293.195313 379.289063 298.714844 376.355469 305.625 359.769531 C 310.027344 349.203125 313.792969 344.375 321.988281 340.6875 C 324.550781 341.199219 329.636719 341.925781 329.589844 342.910156 C 313.824219 346.816406 308.449219 360.84375 306.09375 375.707031 Z M 430.511719 415.390625 C 423.195313 412.683594 321.050781 394.492188 313.191406 393.976563 C 313.703125 390.648438 313.789063 386.207031 311.3125 383.304688 C 315.699219 379.34375 323.320313 376.328125 318.539063 369.199219 C 317.796875 368.09375 317.398438 367.1875 319.769531 367.335938 C 325.53125 368.117188 328.84375 362.449219 325.578125 355.316406 C 325.496094 355.140625 325.652344 354.960938 325.816406 355.046875 C 362.851563 374.859375 405.253906 388.144531 438.445313 389.046875 C 434.769531 397.414063 431.621094 405.824219 430.511719 415.390625 Z M 488.261719 361.183594 C 483.683594 363.992188 478.738281 372.828125 474.90625 381.242188 C 472.816406 385.828125 462.503906 414.65625 460.511719 424.417969 C 460.105469 426.421875 458.4375 426.597656 458.6875 424.429688 C 459.894531 413.820313 470.050781 374.695313 481.753906 361.445313 C 484.621094 358.199219 487.328125 358.546875 490.3125 358.878906 C 490.027344 359.976563 489.199219 360.609375 488.261719 361.183594 "/>
<path style=" stroke:none;fill-rule:nonzero;fill:rgb(0%,0%,0%);fill-opacity:1;" d="M 170.511719 68.8125 C 172.089844 67.882813 172.847656 65.167969 175.015625 64.59375 C 175.707031 64.808594 176.070313 65.398438 176.449219 66.003906 C 178.605469 69.449219 184.183594 67.6875 183.007813 63.328125 C 182.769531 62.457031 181.9375 61.246094 182.445313 60.921875 C 185.261719 60.234375 187.996094 62.03125 190.8125 62.542969 C 191.46875 62.621094 191.46875 61.398438 191.070313 61.089844 C 186.367188 57.324219 179.339844 56.253906 175.386719 59.277344 C 173.679688 60.578125 169.261719 65.738281 169.09375 67.519531 C 168.953125 68.945313 169.621094 69.332031 170.511719 68.8125 "/>
<path style=" stroke:none;fill-rule:nonzero;fill:rgb(0%,0%,0%);fill-opacity:1;" d="M 209.597656 66.621094 C 211.414063 65.738281 213.046875 64.859375 215.238281 64.421875 C 215.871094 64.222656 215.410156 65.898438 216.007813 66.8125 C 219.378906 71.464844 223.957031 68.777344 223.261719 64.769531 C 223.140625 64.058594 223.113281 62.925781 224.207031 63.394531 C 226.597656 64.59375 228.21875 66.214844 230.355469 67.835938 C 230.96875 68.261719 231.652344 67.347656 231.378906 66.8125 C 228.261719 62.226563 223.363281 58.097656 217.933594 59.660156 C 215.464844 60.371094 209.460938 63.449219 208.515625 65.039063 C 207.9375 66.003906 208.945313 66.941406 209.597656 66.621094 "/>
<path style=" stroke:none;fill-rule:nonzero;fill:rgb(0%,0%,0%);fill-opacity:1;" d="M 199.269531 82.441406 C 201.785156 83.5 205.933594 78.894531 206.1875 76.890625 C 204.050781 77.742188 201.488281 76.71875 200.464844 79.367188 C 198.925781 78 196.535156 76.207031 194.316406 77.488281 C 195.253906 79.707031 197.390625 80.902344 199.269531 82.441406 "/>
<path style=" stroke:none;fill-rule:nonzero;fill:rgb(0%,0%,0%);fill-opacity:1;" d="M 186.359375 92.128906 C 187.726563 95.886719 192.714844 99.203125 196.046875 101.507813 C 198.597656 102.941406 202.070313 100.972656 205.757813 98.578125 C 216.175781 91.898438 204.964844 98.148438 202.34375 90.417969 C 198.714844 92.808594 197.226563 91.351563 194.277344 88.820313 C 191.125 95.160156 184.605469 88.011719 186.359375 92.128906 "/>
</g>
</svg>
