<?xml version="1.0" encoding="UTF-8"?>
<svg xmlns="http://www.w3.org/2000/svg" xmlns:xlink="http://www.w3.org/1999/xlink" width="287pt" height="660pt" viewBox="0 0 287 660" version="1.1">
<g id="surface1">
<path style=" stroke:none;fill-rule:nonzero;fill:rgb(0%,0%,0%);fill-opacity:1;" d="M 260.308594 183.394531 C 264.683594 182.785156 267.355469 179.140625 271.121094 177.320313 C 278.046875 171.851563 284 164.5 281.816406 156.058594 C 280.722656 148.644531 268.976563 135.257813 263.140625 133.695313 C 265.9375 137.464844 283.5 155.5 258.488281 164.441406 C 254.296875 165.167969 242.390625 165.660156 238.386719 164.117188 C 232.019531 161.660156 219.804688 154.15625 216.070313 147.550781 C 205 127.5 233.898438 122.730469 233.898438 122.730469 C 225.152344 121.273438 213.476563 125.257813 206.972656 130.054688 C 200.53125 135.402344 196.863281 144.03125 199.667969 152.734375 C 210.226563 185.507813 251.074219 186.1875 260.308594 183.394531 Z M 277.453125 154.757813 L 278.804688 161.15625 C 277.832031 161.761719 275.632813 163.992188 275.023438 163.261719 C 272.59375 161.925781 273.929688 158.769531 272.714844 156.824219 C 274.175781 156.578125 275.511719 153.664063 277.453125 154.757813 Z M 265.777344 165.046875 C 267.722656 166.992188 268.976563 166.257813 272.257813 168.488281 C 272.015625 169.09375 270.152344 172.582031 270.152344 173.1875 L 263.832031 172.09375 C 262.253906 169.542969 265.171875 167.113281 265.777344 165.046875 Z M 253.261719 169.421875 C 255.328125 169.421875 256.90625 172.339844 258.851563 172.703125 C 261.890625 175.253906 257.027344 177.441406 256.179688 180.234375 C 253.628906 178.65625 250.953125 176.589844 248.28125 174.644531 Z M 238.441406 166.871094 L 243.058594 173.554688 C 242.691406 176.105469 240.5 177.25 238.441406 178.171875 C 235.160156 179.75 233.214844 175.011719 231.394531 172.339844 C 232.484375 169.179688 235.644531 168.207031 238.441406 166.871094 Z M 225.019531 161.898438 C 225.992188 161.898438 227.628906 167.234375 227.382813 167.722656 C 223.496094 169.179688 220.578125 168.570313 217.175781 171.242188 C 216.449219 168.570313 217.175781 166.140625 216.570313 163.953125 C 220.09375 163.710938 220.476563 161.007813 225.019531 161.898438 Z M 215.355469 153.746094 C 215.839844 156.179688 215.113281 157.757813 214.503906 160.066406 C 211.832031 159.578125 207.578125 162.253906 206.972656 158.609375 C 208.066406 156.90625 206.972656 154.113281 208.429688 152.535156 Z M 206 133.824219 C 207.699219 131.148438 211.101563 132.363281 212.195313 134.429688 L 207.457031 138.5625 C 206.972656 136.980469 204.785156 135.765625 206 133.824219 Z M 210.371094 143.785156 L 210.980469 145 C 210.617188 146.578125 209.523438 148.039063 208.429688 149.011719 L 202.234375 146.945313 C 204.90625 145 206.972656 138.925781 210.371094 143.785156 "/>
<path style=" stroke:none;fill-rule:nonzero;fill:rgb(0%,0%,0%);fill-opacity:1;" d="M 218.027344 136.496094 C 217 141 217.375 143.046875 220.769531 148.710938 C 229.976563 161.507813 260.476563 168.007813 266.75 153.382813 C 268.570313 148.28125 267.234375 143.785156 264.320313 139.167969 C 257.21875 129.203125 249.75 124 233.640625 125.582031 C 230.601563 125.878906 220.5 129.5 218.027344 136.496094 Z M 260.550781 151.925781 L 257.636719 155.691406 L 255.570313 147.550781 C 257.515625 149.253906 262.980469 147.796875 260.550781 151.925781 Z M 251.5625 133.578125 C 260.476563 140.007813 262.496094 144.878906 261.402344 146.460938 C 258 144.878906 253.503906 143.179688 250.105469 144.027344 C 251.804688 148.28125 254.113281 153.261719 253.628906 157.515625 C 243.664063 158.121094 233.699219 153.746094 226.167969 148.160156 L 221.550781 141.71875 C 221.796875 139.046875 221.308594 136.132813 223.253906 133.824219 C 231.878906 127.261719 242.691406 128.839844 251.5625 133.578125 "/>
<path style=" stroke:none;fill-rule:nonzero;fill:rgb(0%,0%,0%);fill-opacity:1;" d="M 99.464844 58.363281 C 135.476563 76.257813 157.726563 68.257813 162.300781 67.011719 C 174.726563 62.757813 186.558594 53.390625 191.785156 40.511719 C 191.25 33.75 187.9375 26.527344 183.320313 21.421875 C 168.25 -0.5 131.25 -4 109.773438 4.671875 C 110.621094 6.492188 112.324219 7.101563 113.902344 8.191406 C 108.679688 14.269531 99.378906 22.257813 99.867188 24.082031 C 110 21 114.632813 20.707031 121.4375 21.558594 C 132.492188 24.230469 135.050781 35.246094 137.726563 44.84375 C 137.726563 44.84375 139.5 31.5 146.328125 27.355469 C 153.984375 22.617188 163.488281 24.578125 171.371094 28.847656 C 171.5 28.917969 175.5 30.5 177.804688 30.015625 C 177.804688 30.015625 164.8125 19.007813 165.539063 13.78125 C 166.148438 12.324219 167.972656 11.230469 169.308594 11.71875 C 169.671875 12.8125 168.457031 13.296875 168.457031 14.269531 C 169.671875 19.613281 184.5 28.5 179.65625 33.9375 C 170.179688 30.292969 158.738281 24.230469 148.289063 28.847656 C 143.792969 33.828125 139.175781 41.605469 140.753906 49.261719 L 135.132813 49.261719 C 135.253906 45.007813 131.25 31 127.632813 28.605469 C 120.222656 22.652344 109.53125 23.746094 101.023438 26.539063 C 98.5 27.5 97.5 27.632813 96.164063 25.6875 C 97.988281 19.128906 104.425781 15.605469 107.828125 9.40625 C 106.980469 8.316406 106.492188 7.34375 105.15625 6.980469 C 96.164063 12.082031 89.117188 21.4375 83.285156 30.304688 C 81.222656 34.074219 78.789063 39.417969 78.667969 43.792969 C 81.828125 47.679688 95.976563 55.757813 99.464844 58.363281 Z M 143.277344 15.632813 C 139.027344 16.605469 131.699219 15.132813 128.542969 11.851563 C 128.542969 7.480469 135.773438 7.101563 138.6875 6.492188 C 157 7 150 14.5 143.277344 15.632813 Z M 181.214844 37.960938 C 181.214844 37.960938 183.785156 31.421875 183.785156 30.207031 C 185.851563 33.484375 187.167969 36.503906 188.019531 40.511719 C 184.617188 45.007813 181.820313 48.046875 178.054688 52.175781 C 175 51.25 168.09375 34.679688 168.09375 34.679688 C 172.464844 34.921875 176.960938 39.175781 181.214844 37.960938 Z M 162.261719 32.980469 C 164.570313 36.625 166.269531 40.148438 168.699219 43.429688 C 171.007813 47.074219 171.738281 51.933594 173.679688 56.0625 L 169.0625 59.222656 C 166.511719 50.597656 162.746094 40.878906 158.25 32.734375 C 159.464844 31.765625 160.800781 32.371094 162.261719 32.980469 Z M 90.820313 26.539063 C 94.464844 27.269531 94.222656 32.25 97.867188 31.519531 C 111.75 27.5 122.53125 28.605469 127.269531 35.894531 C 129.335938 40.878906 131.765625 46.828125 132.007813 52.539063 C 135.773438 54.484375 141.5 53.5 144.277344 53.148438 C 146.464844 52.539063 145.25 39.175781 148.289063 34.195313 C 149.625 32.613281 151.566406 32.128906 153.269531 32.371094 C 159.464844 41.96875 161.289063 50.355469 164.082031 61.289063 C 152.78125 66.390625 150.5 67 127.410156 64.9375 C 108.75 61.75 91.546875 49.261719 82.679688 41.96875 C 83.652344 35.894531 87.902344 31.398438 90.820313 26.539063 "/>
<path style=" stroke:none;fill-rule:nonzero;fill:rgb(0%,0%,0%);fill-opacity:1;" d="M 107.578125 80.585938 C 129 88.75 141.132813 87.617188 158.019531 84.824219 C 190.5 76 191.5 69.75 194.699219 67.363281 C 195.726563 61.507813 196.800781 47.367188 192.671875 44.453125 C 184 64.5 149.226563 90.007813 92.886719 57.523438 C 87.300781 54.304688 81.976563 51.007813 77.453125 46.34375 C 73.226563 54.507813 74.296875 62.140625 74.296875 62.140625 C 83.773438 70.035156 96.765625 75.480469 107.578125 80.585938 Z M 176.640625 65.519531 C 179.191406 68.558594 178.5 71 177.949219 74.46875 C 176.855469 75.441406 175.558594 76.421875 173.980469 76.785156 C 173.492188 73.503906 173.859375 70.621094 172.523438 68.070313 L 176.640625 65.519531 "/>
<path style=" stroke:none;fill-rule:nonzero;fill:rgb(0%,0%,0%);fill-opacity:1;" d="M 194.335938 70.886719 C 182.5 82.75 157.644531 89.839844 136.382813 89.597656 C 127.875 90.082031 106.226563 86.757813 74.539063 66.511719 C 73.566406 77.449219 75.632813 89.476563 79.519531 99.195313 L 81.371094 100.945313 C 88.175781 106.046875 94.222656 111.46875 103.453125 111.953125 C 114.269531 114.503906 120.101563 104.542969 130.550781 103.203125 C 136.988281 101.382813 141.726563 101.507813 149.746094 108.792969 C 168.226563 122.257813 183.226563 107.507813 186.804688 103.203125 C 190.449219 92.636719 194.335938 82.308594 194.335938 70.886719 Z M 84.5 98.34375 C 82.4375 90.570313 79.519531 82.792969 79.15625 74.652344 C 85.472656 77.691406 89.96875 81.699219 96.40625 84.253906 C 92.398438 85.832031 89.726563 90.449219 89.726563 94.820313 C 90.089844 98.222656 92.15625 100.898438 93.734375 103.8125 Z M 105.398438 104.460938 C 101.144531 105.675781 96.015625 102.96875 94.558594 98.839844 C 92.855469 96.53125 94.199219 91.535156 95.902344 88.984375 C 102.75 84.5 110.976563 89.007813 110.886719 95.914063 C 110.886719 99.195313 108.191406 103.367188 105.398438 104.460938 Z M 155.941406 106.730469 C 152.976563 103.507813 140.878906 97.617188 134.316406 98.589844 C 130.914063 97.738281 126.539063 99.804688 122.652344 100.652344 C 118.765625 103.203125 114.390625 106.121094 109.53125 107.09375 C 118.476563 101.257813 113.054688 91.296875 113.054688 91.296875 C 124.976563 96.007813 145.492188 94.457031 145.734375 94.820313 C 150.839844 93.726563 155.214844 93.484375 159.953125 91.539063 C 158.492188 95.308594 157.644531 100.046875 159.34375 103.570313 C 160.800781 107.335938 164.445313 108.066406 167.242188 109.644531 C 163.71875 109.035156 158.371094 109.28125 155.941406 106.730469 Z M 174.828125 105.925781 C 171.914063 107.019531 166.613281 106.507813 163.941406 104.5625 C 161.226563 102.007813 160.550781 94.84375 163.226563 91.929688 C 172 84.25 178.25 92.5 178.449219 96.28125 C 178.75 100.75 177.503906 104.226563 174.828125 105.925781 Z M 183.28125 101.503906 L 180.972656 102.960938 C 182.671875 99.074219 183.476563 87.757813 176.597656 86.316406 C 180.242188 84.128906 184.496094 82.550781 188.019531 80.484375 C 188.140625 88.261719 186.726563 95.507813 183.28125 101.503906 "/>
<path style=" stroke:none;fill-rule:nonzero;fill:rgb(0%,0%,0%);fill-opacity:1;" d="M 104.914063 91.539063 C 102.484375 91.175781 99.324219 90.8125 97.621094 93 C 96.40625 96.035156 98.230469 97.980469 100.175781 100.046875 C 102.238281 101.019531 105.519531 100.773438 106.855469 99.195313 C 110.476563 94.507813 104.914063 91.539063 104.914063 91.539063 "/>
<path style=" stroke:none;fill-rule:nonzero;fill:rgb(0%,0%,0%);fill-opacity:1;" d="M 167 94.214844 C 165.476563 95.257813 164.695313 98.257813 165.425781 100.445313 C 166.761719 102.269531 168.09375 103.570313 170.523438 102.960938 C 173.226563 102.257813 176.089844 100.148438 174.996094 96.621094 C 173.382813 92.222656 168.3125 93.636719 167 94.214844 "/>
<path style=" stroke:none;fill-rule:nonzero;fill:rgb(0%,0%,0%);fill-opacity:1;" d="M 185.589844 108.1875 C 185.589844 108.1875 182.429688 109.035156 181.820313 110.496094 C 174.53125 116.933594 165.054688 118.269531 156.1875 115.839844 C 151.445313 112.316406 145.492188 109.644531 141.363281 107.09375 C 137.226563 103.757813 128.117188 106 122.652344 110.007813 C 117.792969 113.53125 111.230469 115.839844 105.398438 115.839844 C 102.484375 115.476563 89.726563 112.507813 80.976563 104.664063 C 83.773438 112.804688 88.753906 119.972656 94.707031 126.046875 C 94.707031 126.046875 108.125 132.679688 115.785156 129.503906 C 124.226563 126.007813 128.484375 118.757813 136.015625 119.605469 C 147.195313 127.019531 160.4375 136.375 173.925781 129.207031 C 177.226563 127.007813 184.738281 114.261719 185.589844 108.1875 "/>
<path style=" stroke:none;fill-rule:nonzero;fill:rgb(0%,0%,0%);fill-opacity:1;" d="M 166.390625 135.644531 C 164.933594 133.578125 161.289063 134.429688 159.101563 135.039063 C 149.015625 138.074219 141.484375 125.4375 132.25 124.589844 C 123.257813 128.71875 119.25 135.25 106.953125 132.871094 C 105.011719 132.386719 100.75 131.25 98.714844 130.421875 C 109.773438 145.121094 127.996094 152.167969 146.585938 146.703125 C 151.445313 144.636719 157.277344 141.597656 161.410156 138.804688 C 161.410156 138.804688 165.054688 136.859375 166.390625 135.644531 "/>
<path style=" stroke:none;fill-rule:nonzero;fill:rgb(0%,0%,0%);fill-opacity:1;" d="M 283.316406 163.429688 C 279.871094 179.019531 267.726563 191.007813 239.898438 186.917969 C 234.914063 185.824219 220.667969 182.609375 215.445313 178.476563 C 203.171875 171.554688 193 156 194.851563 139.976563 C 182.710938 154.351563 172.34375 174.714844 175.03125 198.1875 C 185.726563 227.757813 209.972656 235.320313 220.480469 238.097656 C 247.976563 242.507813 261.226563 234.007813 266.65625 230.140625 C 275.476563 227.257813 293.976563 173.007813 283.316406 163.429688 Z M 190.652344 216.851563 C 184.09375 210.410156 178.175781 195.90625 180.363281 186.675781 C 181.699219 177.683594 192.390625 159.734375 192.390625 159.734375 C 197.371094 176.378906 211.710938 184.851563 228.839844 189.835938 C 236.75 191.75 243.90625 193.234375 250.710938 192.75 C 254.964844 196.636719 239.65625 229.441406 238.074219 232.964844 C 230.542969 234.910156 213.976563 239.757813 190.652344 216.851563 Z M 246.335938 232.113281 C 251.925781 218.75 256.421875 206.355469 259.460938 192.140625 L 268.207031 188.132813 L 254.71875 229.804688 C 252.289063 231.507813 249.132813 231.386719 246.335938 232.113281 Z M 266.75 224.21875 C 265.414063 225.433594 264.320313 224.582031 263.226563 226.039063 C 263.226563 226.039063 272.339844 193.355469 276.589844 182.542969 L 279.871094 179.019531 C 279.75 195.542969 274.160156 210.851563 266.75 224.21875 "/>
<path style=" stroke:none;fill-rule:nonzero;fill:rgb(0%,0%,0%);fill-opacity:1;" d="M 140.148438 150.46875 C 132.980469 151.683594 126.054688 149.738281 119.980469 149.011719 C 118.035156 152.898438 111.960938 161.523438 111.839844 162.132813 C 112.445313 163.46875 113.78125 162.132813 114.753906 162.132813 C 119.25 161.769531 120.585938 167.234375 122.410156 169.421875 C 122.410156 169.421875 125.726563 164.257813 130.183594 163.347656 C 133.828125 162.980469 136.015625 165.898438 138.082031 168.328125 C 140.976563 162.007813 144.035156 162.375 147.679688 162.496094 C 151.445313 162.980469 150.355469 167.597656 153.878906 167.722656 C 154.484375 166.261719 154.476563 159.507813 160.59375 161.273438 C 160 157.75 152.90625 149.496094 148.652344 147.550781 C 145.734375 148.523438 143.308594 150.347656 140.148438 150.46875 Z M 152.417969 163.347656 C 147.921875 161.28125 147.074219 156.300781 144.277344 152.777344 L 145.128906 151.925781 L 153.914063 160.289063 L 152.417969 163.347656 "/>
<path style=" stroke:none;fill-rule:nonzero;fill:rgb(0%,0%,0%);fill-opacity:1;" d="M 144.621094 428.898438 C 147.902344 421.609375 150.355469 415.578125 154.96875 409.136719 C 154.96875 409.136719 162.476563 421.757813 175.382813 413.269531 C 180.605469 409.015625 182.308594 404.765625 181.820313 398.082031 C 180.484375 393.464844 177.976563 391.257813 173.4375 389.46875 C 173.4375 389.46875 164.726563 386.757813 157.644531 394.800781 C 157.523438 390.914063 158.457031 385.867188 159.917969 381.902344 C 164.476563 369.507813 177.726563 363.257813 197.007813 334.539063 C 203.726563 323.757813 206.605469 318.136719 209.523438 309.144531 C 211.832031 298.695313 215.964844 287.882813 213.898438 276.703125 C 212.316406 274.03125 208.550781 274.152344 205.515625 273.789063 C 206 276.5 205.878906 278.285156 206.363281 280.59375 C 212.476563 316.757813 170.15625 360.78125 170.15625 360.78125 C 164.324219 365.519531 160.4375 370.867188 156.792969 378.277344 C 152.417969 386.054688 151.726563 398.507813 152.355469 402.769531 C 147.613281 410.425781 144.429688 419.300781 139.933594 427.441406 L 124.167969 423.316406 C 125.476563 420.757813 125.976563 420.007813 126.417969 418.128906 C 133.976563 395.257813 156.976563 366.257813 160.800781 356.894531 C 166.027344 343.773438 169.429688 326.882813 165.785156 312.910156 C 162.503906 284.96875 136.136719 264.070313 138.933594 233.9375 C 138.933594 233.9375 141.363281 217.414063 141.847656 208.179688 C 145.25 197.367188 143.792969 184.121094 142.457031 172.945313 C 142.699219 170.027344 134.558594 168.8125 133.707031 168.570313 C 139.476563 181.757813 138.6875 191.171875 138.082031 197.488281 C 137.230469 210.972656 132.734375 222.394531 134.074219 236.488281 C 132.25 266.621094 159.34375 286.789063 161.410156 315.21875 C 163.476563 327.734375 160.679688 338.910156 157.644531 349.605469 C 153.476563 364.257813 127.476563 395.007813 118.234375 422.296875 C 113.976563 421.757813 107.769531 418.601563 105.703125 417.144531 C 93.308594 409.003906 86.84375 396.300781 82.226563 383.179688 C 80.648438 380.507813 80.476563 380.257813 78.945313 376.496094 C 76.878906 376.375 73.476563 375.039063 73.113281 377.710938 L 83.359375 397.972656 C 89.316406 410.125 92.976563 420.257813 116.277344 426.917969 C 114.089844 435.300781 114.023438 443.523438 115.605469 452.027344 C 108.191406 457.128906 99.203125 460.167969 92.886719 466.242188 C 79.519531 476.933594 69.800781 496.496094 74.78125 514.113281 C 77.332031 522.859375 83.40625 535.011719 89.726563 538.289063 L 84.859375 528.046875 C 84.859375 528.046875 78.789063 518 78.304688 505.972656 C 78.546875 483.617188 97.015625 465.148438 116.820313 457.25 C 119.726563 468.257813 123.574219 473.816406 130.5 480.378906 C 139.976563 488.757813 153.492188 489.589844 164.425781 488.011719 C 164.425781 488.011719 176.476563 486.257813 180.757813 475.269531 C 184.5 465.5 176.5 450 163.632813 461.425781 C 159.292969 465.277344 161 463 159.625 465.714844 C 157.453125 469.996094 165 458 172.257813 463.433594 C 175 464.5 176.132813 466.335938 176.496094 468.765625 C 176.859375 473.261719 175.476563 478.007813 172.324219 481.480469 C 163.941406 486.945313 150.839844 486.773438 140.996094 481.792969 C 126.476563 473.257813 124.726563 465.757813 120.9375 455.085938 C 126.890625 451.074219 131.84375 447.925781 136.945313 443.0625 C 139.621094 440.996094 142.585938 433.664063 142.585938 433.664063 C 142.585938 433.664063 210.726563 440.757813 223.253906 468.671875 C 232.816406 489.992188 232.121094 518 215.355469 535.980469 C 204.300781 545.09375 191.539063 552.140625 178.054688 556.152344 C 174.046875 556.394531 169.550781 558.339844 166.632813 555.542969 C 168.578125 550.441406 171.738281 544.609375 169.550781 539.140625 C 168.457031 536.953125 166.148438 535.011719 163.71875 534.28125 C 159.222656 532.824219 156.308594 534.160156 152.660156 536.589844 C 148.53125 544.851563 155.699219 551.171875 159.953125 557.609375 C 153.878906 574.984375 151.8125 591.265625 149.136719 609.730469 C 147.921875 629.292969 155 649 171.980469 659.667969 C 174.410156 659.910156 169.5 654.5 162.015625 645.089844 C 162.015625 645.089844 149.976563 633.257813 155.941406 593.085938 C 158.25 582.03125 161.53125 570.851563 164.324219 560.160156 C 164.324219 560.160156 194.476563 566.757813 226.410156 530.394531 C 240.140625 508.28125 236.253906 478.390625 222.039063 457.25 C 202.597656 436.109375 163.226563 431.507813 144.621094 428.898438 Z M 176.355469 397.230469 C 176.839844 400.875 175.503906 405.25 172.828125 408.285156 C 169.550781 410.597656 165.660156 410.960938 162.015625 409.746094 C 160.4375 408.652344 158.492188 407.4375 157.644531 405.371094 C 160.476563 390.257813 174.53125 392.492188 176.355469 397.230469 Z M 120.585938 448.503906 C 119.980469 441.335938 119.726563 433.757813 122.117188 428.347656 L 138.125 432.464844 C 135.574219 439.996094 127.390625 444.859375 120.585938 448.503906 Z M 161.410156 551.777344 C 158.371094 548.738281 156.308594 544.121094 157.644531 539.75 C 159.34375 536.589844 164.203125 538.046875 164.691406 541.207031 C 164.324219 545.09375 163.230469 548.496094 161.410156 551.777344 "/>
<path style=" stroke:none;fill-rule:nonzero;fill:rgb(0%,0%,0%);fill-opacity:1;" d="M 40.789063 220.714844 C 41.851563 223.425781 39.433594 226.957031 39.3125 230.027344 C 39.667969 231.085938 44.089844 230.96875 47.863281 231.085938 C 49.394531 232.265625 52.652344 237.085938 54.066406 236.613281 C 55.011719 233.195313 57.96875 230.253906 59.972656 228.371094 C 62.800781 226.953125 66.953125 228.730469 69.664063 229.4375 C 71.902344 228.257813 68.703125 224.570313 69.527344 222.566406 C 70.707031 219.976563 73.90625 219.773438 75.558594 218.359375 C 74.261719 216.828125 72.257813 215.410156 70.488281 213.882813 C 70.253906 212.230469 70.960938 210.933594 71.316406 209.636719 C 68.839844 205.75 43.566406 201.457031 36.488281 215.796875 C 38.5 217 40.203125 219.300781 40.789063 220.714844 Z M 52.0625 215.226563 C 54.78125 215.058594 57.84375 214.207031 60.734375 215.566406 C 60.566406 218.460938 60.285156 220 58.242188 221.699219 C 56.03125 221.019531 50.871094 222.882813 48.828125 220.5 C 48.660156 218.289063 49.851563 215.738281 52.0625 215.226563 "/>
<path style=" stroke:none;fill-rule:nonzero;fill:rgb(0%,0%,0%);fill-opacity:1;" d="M 213.175781 241.113281 C 188.476563 234.757813 176 211 173.675781 203.085938 C 174.402344 216.328125 179.269531 233.574219 189.109375 242.320313 C 195.429688 249.730469 206.363281 254.226563 214.746094 255.441406 C 233.226563 256.507813 241.089844 253.613281 247.40625 249.726563 C 252.726563 246.757813 264.476563 239.507813 267.210938 232.632813 C 255.476563 240.007813 245.976563 247.507813 213.175781 241.113281 "/>
<path style=" stroke:none;fill-rule:nonzero;fill:rgb(0%,0%,0%);fill-opacity:1;" d="M 30.011719 248.667969 C 41.03125 254.660156 62.085938 255.636719 74.78125 250.824219 C 84.988281 246.210938 97.378906 236.976563 96.40625 223.730469 C 96.976563 220.507813 80.976563 209.515625 73.082031 208.785156 C 73.324219 212.675781 75.875 214.863281 78.667969 217.535156 C 78.546875 219.722656 75.023438 220.9375 73.6875 222.273438 C 73.082031 223.976563 74.195313 231.648438 72.980469 232.621094 C 69.457031 230.921875 64.089844 230.050781 60.566406 231.871094 C 58.257813 233.816406 56.628906 237.980469 55.535156 240.410156 C 53.226563 241.140625 46.261719 233.839844 46.261719 233.839844 C 42.5 233.5 38 234.75 34.324219 233.9375 C 35.171875 230.777344 35.902344 226.890625 38.089844 223.976563 C 38.089844 221.058594 33.671875 219.449219 32.214844 217.75 C 34 215 35.660156 212.066406 36.632813 211.460938 C 30.921875 212.675781 13.726563 227.507813 14.617188 233.980469 C 16.441406 237.53125 20.976563 243.757813 30.011719 248.667969 "/>
<path style=" stroke:none;fill-rule:nonzero;fill:rgb(0%,0%,0%);fill-opacity:1;" d="M 114.570313 285.671875 C 114.570313 285.671875 128.476563 246.257813 99.109375 225.105469 C 100.324219 231.058594 95.25 238.25 91.328125 243.179688 C 75.226563 260.007813 41.972656 258.628906 27.988281 250.710938 C 24.976563 249.007813 13.476563 240.007813 11.804688 234.851563 C -7.523438 259.757813 4.476563 300.757813 7.703125 301.9375 C 15.726563 306.757813 33.339844 314.90625 45.871094 315.433594 C 77.226563 316.757813 108.476563 303.757813 114.570313 285.671875 Z M 25.472656 254.242188 L 28.734375 255.808594 C 28.855469 261.152344 27.640625 265.648438 27.277344 271.238281 C 25.453125 270.386719 24.875 269.894531 23.050781 270.136719 C 23.171875 264.671875 23.53125 259.34375 25.472656 254.242188 Z M 15.613281 246.453125 C 16.949219 249.367188 23.507813 250.460938 20.59375 254.835938 L 18.890625 268.320313 C 16.949219 268.199219 15.246094 266.011719 12.695313 266.5 C 12.210938 259.9375 13.179688 252.890625 15.613281 246.453125 Z M 10.996094 274.394531 C 11.480469 272.9375 12.332031 272.9375 13.304688 271.84375 C 15.003906 271.722656 16.21875 272.816406 17.433594 274.152344 C 17.433594 277.675781 17 280.5 12.695313 280.59375 C 9.902344 280.226563 10.628906 276.460938 10.996094 274.394531 Z M 13.546875 284.96875 C 14.882813 284.722656 16.460938 284.359375 17.070313 283.144531 C 17.5 288.75 19.449219 296.851563 20.058594 299.890625 C 12.648438 298.675781 13.5 290.25 13.546875 284.96875 Z M 21.445313 275.609375 C 23.753906 273.789063 28.246094 275.003906 29.339844 277.921875 C 28.976563 279.742188 28.976563 281.808594 27.640625 283.144531 C 25.9375 283.628906 24.722656 285.210938 22.660156 283.996094 C 19.378906 281.441406 20.105469 278.769531 21.445313 275.609375 Z M 22.660156 288.734375 L 26.667969 288.367188 L 26.667969 288.125 C 28.25 293.25 27.589844 299.039063 29.65625 305.113281 C 21.394531 304.144531 24.238281 294.929688 22.660156 288.734375 Z M 32.257813 258.117188 C 45.863281 262.125 61.417969 263.460938 75.996094 256.902344 C 85.351563 255.199219 94.585938 247.058594 99.929688 238.796875 C 104.976563 242.757813 108.476563 250.257813 107.15625 255.792969 C 105.726563 255.257813 98.226563 257.007813 97.015625 265.40625 C 94.585938 264.070313 92.15625 264.070313 89.359375 265.40625 C 87.78125 267.835938 85.960938 270.144531 86.445313 273.546875 C 77.476563 267.007813 69.976563 275.257813 71.621094 278.769531 C 61.726563 272.007813 55.828125 279.984375 55.828125 279.984375 C 53.398438 276.703125 47.726563 274.007813 43.3125 277.675781 C 38.976563 270.757813 32.5 275.003906 32.5 275.003906 L 30.554688 272.089844 C 30.675781 267.59375 29.726563 262.507813 32.257813 258.117188 Z M 103.941406 267.472656 C 102.847656 268.078125 101.753906 267.472656 101.390625 266.257813 C 100.5 264 101.511719 261.640625 103.941406 260.667969 C 105.398438 259.816406 106.007813 262.246094 106.613281 261.882813 C 107.101563 263.949219 106.128906 266.378906 103.941406 267.472656 Z M 94.097656 275.003906 C 92.761719 275.125 92.035156 274.03125 91.789063 272.9375 C 91.546875 271.84375 92.476563 267.757813 96.40625 268.929688 C 96.40625 268.929688 100.226563 275.507813 94.097656 275.003906 Z M 82.070313 282.292969 C 82.070313 282.292969 78 285 75.390625 280.835938 C 75.996094 279.136719 76.238281 277.3125 78.0625 276.21875 C 80.128906 276.582031 81.949219 275.246094 83.285156 277.3125 C 84.015625 279.136719 84.226563 281.257813 82.070313 282.292969 Z M 65.546875 288.125 C 64.089844 288.976563 62.753906 288.976563 61.417969 288.125 C 59.472656 286.667969 60.203125 283.507813 60.808594 281.6875 C 61.050781 280.351563 62.632813 280.714844 63.480469 280.226563 C 65 280 66.519531 279.863281 67.855469 281.6875 C 68.5 286.5 68 287.5 65.546875 288.125 Z M 52.667969 284.359375 C 52.183594 286.058594 51.453125 288.003906 49.511719 288.367188 C 47.566406 288.734375 45.984375 286.789063 45.136719 285.816406 L 45.136719 283.996094 C 45.863281 283.265625 46.957031 281.6875 48.539063 281.078125 C 50.601563 281.320313 52.546875 282.171875 52.667969 284.359375 Z M 39.789063 286.058594 C 38.816406 287.761719 38 288 35.171875 287.519531 C 33.835938 287.273438 32.257813 286.304688 32.015625 284.96875 L 32.257813 280.835938 C 34.445313 279.378906 37.359375 278.40625 39.546875 280.59375 C 40.03125 281.929688 41.003906 284.359375 39.789063 286.058594 Z M 35.414063 307.320313 C 31.976563 301.757813 31.648438 294.6875 31.042969 288.367188 C 37.976563 296.757813 42.21875 287.882813 42.21875 287.882813 C 47.726563 297.507813 55.585938 287.882813 55.585938 287.882813 C 57.164063 291.164063 61.539063 293.59375 65.183594 293.351563 C 68.828125 294.199219 72.835938 286.183594 73.324219 285.453125 C 75.390625 287.882813 87.226563 292.757813 88.269531 277.921875 C 96.976563 285.757813 100.902344 275.246094 101.390625 271.84375 C 103.089844 272.089844 107.65625 273.816406 109.355469 273.089844 C 110.746094 279.0625 110.144531 280.773438 109.613281 286.867188 C 94.304688 307.644531 63.480469 315.464844 39.304688 309.144531 L 35.414063 307.320313 "/>
<path style=" stroke:none;fill-rule:nonzero;fill:rgb(0%,0%,0%);fill-opacity:1;" d="M 223.253906 267.105469 C 226.410156 266.257813 230.179688 267.226563 233.214844 268.5625 C 234.1875 264.554688 229.207031 261.617188 227.871094 257.972656 C 216.5 259.25 203.726563 259.007813 194.300781 250.226563 C 191.261719 252.65625 188.625 253.621094 185.34375 254.59375 C 178.75 257.25 187.652344 256.65625 189.476563 258.964844 C 190.933594 260.546875 188.503906 266.378906 189.71875 266.863281 C 189.71875 266.863281 196.523438 264.3125 198.222656 265.40625 C 201.261719 268.808594 198.222656 274.03125 200.773438 276.21875 C 202.113281 275.246094 202.234375 272.816406 204.300781 272.332031 C 209.523438 269.050781 213.652344 273.304688 218.027344 275.609375 C 223.859375 277.070313 218.636719 268.808594 223.253906 267.105469 Z M 203.191406 267.671875 C 204.285156 264.390625 206.363281 262.488281 208.671875 259.816406 L 210.78125 261.175781 C 208.835938 264.089844 203.191406 267.671875 203.191406 267.671875 Z M 217.664063 271.238281 C 216.449219 268.929688 216.085938 264.675781 217.175781 261.640625 L 219.777344 261.625 L 217.664063 271.238281 "/>
<path style=" stroke:none;fill-rule:nonzero;fill:rgb(0%,0%,0%);fill-opacity:1;" d="M 24.734375 331.949219 C 32.75 336.75 61.976563 339.257813 73.90625 336.132813 C 79.976563 334.757813 102.476563 328.257813 109.765625 318.660156 C 113.976563 315.257813 121.476563 287.757813 119.203125 279.066406 C 119.203125 279.066406 113.476563 322.757813 43.675781 317.894531 C 34.6875 317.894531 13.226563 308.757813 8.570313 305.292969 C 9.476563 316.507813 21.226563 333.007813 24.734375 331.949219 Z M 59.714844 323.117188 C 87.976563 319.507813 97.621094 311.210938 101.023438 309.144531 L 106.007813 304.769531 C 105.15625 311.089844 103.5625 317.699219 95.90625 320.011719 C 87.769531 323.53125 76.226563 333.257813 48.902344 331.621094 C 46.59375 330.042969 46.230469 326.640625 45.378906 323.96875 C 48.171875 322.996094 54.738281 323.753906 59.714844 323.117188 Z M 40.761719 324.816406 C 40.761719 327.003906 42.949219 328.949219 43.3125 331.257813 C 42.21875 331.863281 39.667969 330.527344 37.847656 328.949219 C 36.265625 325.667969 34.6875 322.511719 33.714844 318.984375 C 36.632813 320.199219 40.277344 321.296875 40.761719 324.816406 "/>
<path style=" stroke:none;fill-rule:nonzero;fill:rgb(0%,0%,0%);fill-opacity:1;" d="M 93.734375 347.660156 C 93.128906 346.566406 87.476563 349.507813 84.136719 344.988281 C 85.59375 343.527344 86.929688 342.191406 88.269531 342.070313 C 89.117188 343.042969 94.132813 345.363281 95.46875 345.730469 C 102.476563 339.257813 105.476563 333.757813 109.441406 320.789063 C 104.476563 327.757813 99.203125 328.707031 96.652344 330.648438 C 81.222656 339.761719 53.308594 342.464844 35.8125 337.238281 C 31.476563 336.507813 27.476563 335.507813 22.863281 334.179688 L 27.980469 340.40625 C 36.476563 351.007813 40.550781 353.640625 45.167969 343.679688 C 48.691406 345.136719 54.375 347.84375 62.523438 349.304688 C 64.585938 348.578125 63.601563 346.203125 65.183594 345.230469 C 68.585938 339.519531 68.585938 348.023438 72.472656 348.511719 L 78.667969 343.527344 C 79.15625 345.472656 81.011719 345.703125 82.835938 346.550781 C 82.835938 346.550781 83.476563 351.007813 77.738281 347.550781 C 76.644531 348.039063 74.019531 350.117188 73.046875 350.96875 C 70.75 350.5 68.558594 348.996094 67.097656 347.296875 C 65 349.25 64.90625 350.605469 63.324219 351.574219 C 59.074219 352.183594 50.0625 349.417969 46.175781 347.230469 C 46.5 349.75 42.375 351.089844 42.859375 351.820313 C 61.726563 364.757813 88.726563 354.507813 93.734375 347.660156 "/>
<path style=" stroke:none;fill-rule:nonzero;fill:rgb(0%,0%,0%);fill-opacity:1;" d="M 82.207031 376.023438 C 83.621094 374.617188 81.820313 371.5625 81.609375 369.449219 C 86.265625 365.777344 91.902344 367.628906 96.785156 369.628906 C 96.785156 369.628906 92.25 358.75 84.472656 356.222656 C 80.417969 359.976563 61.320313 360.3125 61.320313 360.3125 C 56.878906 362.644531 52.683594 374.0625 51.84375 375.789063 C 52.558594 376.863281 59.417969 370.421875 64.171875 369.703125 C 62.75 375.5 61.65625 379.421875 65.855469 383.777344 C 68 379.25 69.625 374.652344 74.554688 372.609375 C 77.894531 373.300781 79.683594 372.871094 82.207031 376.023438 Z M 81.984375 360.722656 C 84.050781 362.410156 86.921875 363.429688 89.234375 365.21875 C 87.089844 364.148438 82.21875 365.785156 80.664063 362.605469 Z M 67.933594 374.253906 C 68.128906 369.976563 67.421875 365.03125 68.589844 362.515625 L 71.558594 362.449219 C 71.476563 366.597656 71.144531 371.355469 67.933594 374.253906 "/>
</g>
</svg>
