<?xml version="1.0" encoding="UTF-8"?>
<svg xmlns="http://www.w3.org/2000/svg" xmlns:xlink="http://www.w3.org/1999/xlink" width="524pt" height="421pt" viewBox="0 0 524 421" version="1.1">
<g id="surface1">
<path style=" stroke:none;fill-rule:nonzero;fill:rgb(0%,0%,0%);fill-opacity:1;" d="M 519.230469 313.589844 C 506.3125 290.96875 483.976563 293.257813 474.949219 307.976563 C 473.269531 310.710938 471.742188 313.601563 469.699219 315.851563 C 460.535156 306.691406 447.914063 300.878906 435.683594 296.894531 C 437.042969 293.761719 437.847656 290.835938 438.3125 288.1875 C 443.484375 285.199219 447.289063 280.535156 447.664063 276.535156 C 456.035156 276.105469 471.488281 277.566406 478.011719 278.839844 C 478.980469 279.027344 479.414063 278.359375 478.9375 277.519531 C 477.320313 274.65625 467.667969 265.890625 462.261719 263.753906 C 459.265625 260.214844 455.355469 257.296875 452.464844 255.351563 C 458.722656 249.363281 461.714844 241.566406 463.800781 233.765625 C 471.03125 229.21875 472.574219 223.183594 464.984375 217.828125 C 459.941406 214.265625 453.171875 212.84375 446.402344 213.46875 C 446.183594 213.488281 446.023438 213.132813 446.15625 212.925781 C 456.566406 196.894531 457.203125 171.078125 449.199219 150.859375 C 453.371094 152.21875 458.449219 153.851563 462.894531 151.949219 C 463.4375 149.769531 460.265625 148.5 462.078125 146.6875 C 468.246094 148.59375 474.308594 146.925781 479.949219 146.960938 C 481.484375 146.839844 482.015625 145.6875 481.21875 144.78125 C 480.765625 144.148438 477.589844 141.335938 477.316406 139.339844 C 476.226563 133.65625 474.664063 127.097656 470.515625 120.382813 C 475.316406 119.789063 476.148438 118.011719 475.019531 114.507813 C 472.710938 107.339844 465.933594 102.367188 459.449219 99.246094 C 462.472656 98.105469 463.089844 97.277344 460.777344 93.589844 C 457.617188 88.546875 446.585938 84.828125 437.496094 86.1875 C 433.953125 81.628906 431.574219 76.652344 426.972656 78.820313 C 421.21875 81.53125 415.726563 84.953125 410.171875 88.1875 C 409.96875 88.308594 409.765625 88.074219 409.863281 87.824219 C 413.140625 79.835938 416.066406 64.425781 408.472656 54.621094 C 406.839844 55.257813 405.84375 55.800781 404.390625 56.796875 C 401.054688 47.363281 398.664063 43.019531 387.15625 36.753906 C 384.402344 35.230469 385.289063 43.554688 383.4375 42.828125 C 376.566406 34.914063 364.355469 37.089844 357.527344 29.683594 C 354.851563 26.605469 353.234375 27.527344 353.222656 30.179688 C 353.21875 30.855469 353.621094 38.121094 353.65625 38.773438 C 354.027344 45.265625 350.242188 49.640625 350.144531 56.132813 C 350.144531 56.351563 349.804688 56.445313 349.628906 56.273438 C 329.46875 36.195313 301.347656 39.917969 278.386719 48.28125 C 278.148438 48.367188 277.824219 48.09375 277.902344 47.859375 C 281.265625 37.917969 290.707031 17.75 297.960938 6.890625 C 300.648438 2.863281 299.679688 2.625 293.335938 1.339844 C 290.09375 0.683594 286.15625 0.00390625 282.582031 0.414063 C 278.082031 0.925781 276.722656 2.265625 274.308594 6.800781 C 267.109375 20.3125 264.535156 35.960938 265.519531 51.535156 C 260.078125 53.984375 254.453125 52.445313 248.46875 52.898438 C 247.5625 52.261719 247.921875 50.902344 247.015625 50.265625 C 245.113281 49.269531 243.75 52.082031 242.210938 51.175781 C 242.117188 45.367188 237.3125 41.378906 234.769531 36.753906 C 234.113281 35.40625 234.554688 34.542969 234.875 33.796875 C 235.945313 31.421875 234.617188 29.828125 231.507813 31.585938 C 230.503906 32.132813 223.816406 36.378906 221.265625 37.5 C 212.335938 41.421875 203.234375 43.191406 200.148438 50.195313 C 199.453125 51.773438 198.828125 53.167969 197.539063 51.285156 C 195.996094 49.023438 194.15625 49.777344 192.585938 52.117188 C 188.351563 58.410156 185.027344 65.445313 184.246094 73.304688 C 179.4375 69.324219 175.085938 64.890625 170.214844 61.457031 C 166.648438 58.941406 165.125 59.894531 164.464844 62.222656 C 163.730469 64.808594 162.601563 67.296875 161.714844 69.863281 C 158.5 68.484375 143.175781 62.429688 133.816406 66.773438 C 133.542969 68.136719 134.269531 69.585938 134.632813 70.949219 C 128.105469 71.265625 120.796875 72.871094 113.875 75.0625 C 111.253906 75.890625 108.609375 76.367188 105.695313 75.367188 C 103.40625 74.585938 103.050781 75.898438 104.492188 77.746094 C 107.695313 81.859375 109.222656 86.253906 112.863281 90.722656 C 110.164063 102.371094 116.25 115.101563 130.097656 121.472656 C 126.410156 124.574219 126.074219 126.355469 129.453125 128.445313 C 135.121094 131.953125 141.671875 132.964844 150.214844 134.15625 C 150.460938 134.191406 150.597656 134.589844 150.421875 134.753906 C 133.96875 149.882813 129.292969 165.226563 131.820313 176.347656 C 120.160156 174.152344 104.957031 171.753906 99.039063 166.472656 C 95.570313 163.371094 91.730469 164.921875 95.996094 168.089844 C 108.789063 177.601563 122.097656 200.375 129.007813 213.082031 C 122.433594 212.4375 115.015625 214.421875 113.097656 217.265625 C 112.441406 218.234375 111.179688 218.308594 109.898438 218.316406 C 103.882813 218.347656 97.347656 225.160156 106.8125 233.347656 C 109.3125 235.507813 112.585938 237.039063 115.492188 238.570313 C 116.335938 240.492188 119.511719 249.0625 120.480469 251.078125 C 104.40625 248.792969 77.65625 254.640625 72.410156 270.773438 C 58.734375 274.371094 56.148438 288.394531 53.585938 297.191406 C 52.566406 300.683594 51.175781 304.003906 48.257813 306.558594 C 46.644531 307.972656 47.472656 310.367188 49.328125 309.054688 C 50.925781 307.925781 57.953125 300.929688 60.425781 299.167969 C 74.070313 289.460938 91.523438 282.867188 107.417969 281.574219 C 116.289063 280.855469 125.554688 281.207031 134.632813 280.386719 C 135.054688 281.300781 135.320313 281.832031 135.683594 282.289063 C 91.519531 302.164063 79.542969 313.484375 47.375 349.777344 C 45.804688 348.5 44.484375 347.117188 43.367188 345.550781 C 36.042969 335.257813 16.761719 335.757813 7.726563 347.332031 C -3.6875 361.964844 -1.976563 386.628906 12.355469 400.183594 C 33.0625 419.761719 63.640625 410.390625 74.152344 390.1875 C 74.207031 390.082031 74.484375 390.101563 74.570313 390.21875 C 91.578125 413.410156 116.429688 414.246094 135.609375 399.140625 C 156.679688 382.542969 155.460938 342.3125 116.402344 348.960938 C 121.441406 337.441406 133.8125 317.53125 145.335938 304.332031 C 147.148438 307.960938 149.492188 312.128906 153.035156 314.785156 C 152.558594 323.371094 157.929688 335.628906 165.109375 339.617188 C 165.949219 339.988281 166.015625 340.707031 165.746094 341.523438 C 162.914063 349.441406 168.09375 366.78125 179.785156 367.929688 C 182.289063 376.597656 188.238281 386.785156 194.496094 392.953125 C 188.164063 396.230469 189.65625 406.039063 199.304688 407.917969 C 204.566406 408.824219 210.914063 409.097656 216.265625 407.917969 C 230.09375 417.136719 240.109375 416.5625 256.085938 408.824219 C 265.972656 411.425781 271.246094 410.816406 280.058594 409.753906 C 281.078125 409.628906 282.058594 409.675781 282.953125 410.15625 C 288.425781 413.09375 303.386719 412.679688 311.417969 410.546875 C 320.992188 413.875 334.742188 413.382813 341.925781 409.90625 C 349.824219 412.804688 370.667969 413.40625 383.710938 409.640625 C 401.0625 426.996094 421.457031 419.761719 435.957031 410.09375 C 456.949219 426.835938 484.09375 423.082031 497.613281 401.628906 C 504.875 390.101563 505.816406 376.988281 503.621094 366.554688 C 525.703125 360.023438 528.1875 329.269531 519.230469 313.589844 Z M 20.34375 370.730469 C 18.34375 368.386719 17.441406 366.195313 15.988281 363.925781 C 17.15625 361.671875 22.519531 356.578125 25.785156 355.671875 C 27.601563 358.664063 29.6875 361.476563 30.410156 364.832031 C 26.875 366.375 23.792969 368.769531 20.34375 370.730469 Z M 435.320313 284.46875 C 424.621094 284.730469 412.75 284.074219 401.234375 284.257813 C 400.742188 284.265625 400.722656 283.984375 401.222656 283.832031 C 413.402344 280.105469 432.136719 276.386719 442.488281 276.847656 C 441.308594 280.476563 438.222656 282.5625 435.320313 284.46875 Z M 433.714844 287.746094 C 432.988281 290.648438 432.320313 293.121094 430.96875 295.351563 C 424.6875 293.683594 421.84375 292.753906 415.40625 291.753906 C 415.40625 290.335938 415.40625 289.097656 415.40625 287.746094 C 422.207031 287.566406 427.003906 288.019531 433.714844 287.746094 Z M 471.613281 274.074219 C 472.480469 274.894531 472.703125 275.46875 471.386719 275.289063 C 441.507813 272.984375 416.488281 274.566406 383.214844 286.511719 C 374.75 289.550781 366.253906 293.421875 357.378906 295.800781 C 356.785156 295.960938 356.664063 295.726563 357.195313 295.445313 C 364.796875 291.417969 371.40625 285.703125 378.257813 280.667969 C 386.285156 274.765625 395.011719 267.664063 400.261719 272.351563 C 404.59375 276.214844 407.648438 274.539063 412.984375 271.242188 C 430.53125 260.402344 456.523438 259.828125 471.613281 274.074219 Z M 399.105469 287.148438 C 399.105469 288.121094 399.105469 288.832031 399.105469 289.804688 C 393.578125 290.050781 386.714844 290.324219 381.394531 290.554688 C 380.777344 290.582031 380.578125 290.292969 381.085938 290.125 C 385.640625 288.613281 389.605469 287.261719 393.6875 286.28125 C 394.773438 287.460938 397.605469 287.289063 399.105469 287.148438 Z M 345.554688 299.871094 C 346.515625 302.628906 347.136719 305.507813 351.386719 306.085938 C 354.132813 306.414063 363.511719 308.269531 367.226563 310.367188 C 367.527344 310.539063 367.53125 310.886719 367.128906 310.886719 C 362.492188 310.886719 344.355469 310.878906 336.746094 310.871094 C 336.746094 302.617188 336.746094 296.714844 336.734375 287.851563 C 344.238281 287.839844 349.589844 287.746094 357.503906 287.804688 C 357.742188 287.785156 357.863281 288.09375 357.675781 288.277344 C 354.132813 291.808594 350.398438 296.070313 346.09375 298.324219 C 345.613281 298.578125 345.296875 298.960938 345.554688 299.871094 Z M 190.238281 259.839844 C 193.683594 259.839844 199.988281 259.839844 203.523438 259.839844 C 203.707031 267.640625 203.523438 275.632813 203.523438 283.605469 C 196.722656 283.605469 190.414063 283.578125 183.507813 283.605469 C 186.605469 279.441406 191.050781 280.386719 193.863281 276.667969 C 195.40625 271.496094 189.875 264.558594 190.238281 259.839844 Z M 359.777344 209.511719 C 370.566406 208.933594 365.578125 197.640625 363.488281 190.777344 C 363.308594 190.195313 363.5625 190.039063 363.828125 190.472656 C 370.898438 202.003906 377.386719 205.019531 381.3125 195.964844 C 386.539063 183.902344 378.199219 183.378906 368.929688 180.75 C 368.566406 180.644531 368.542969 180.308594 368.890625 180.253906 C 378.667969 178.667969 386.308594 178.511719 386.550781 168.363281 C 386.777344 158.820313 380.996094 157.664063 376.449219 161.1875 C 371.800781 164.789063 368.074219 169.019531 363.867188 172.894531 C 363.503906 173.230469 363.253906 173.046875 363.5 172.617188 C 371.085938 159.492188 378.324219 145.6875 387.042969 132.566406 C 387.289063 132.191406 387.488281 132.488281 387.355469 133.007813 C 383.851563 146.625 388.027344 160.085938 391.589844 173.386719 C 394.039063 182.550781 397.738281 201.101563 388.246094 210.726563 C 383.4375 210.453125 377.902344 209.910156 373.640625 211.996094 C 366.386719 209.816406 357.769531 210.269531 351.054688 213.355469 C 347.894531 212.246094 344.652344 210.328125 340.644531 210.792969 C 340.398438 210.820313 340.132813 210.519531 340.253906 210.328125 C 344.523438 203.335938 348.949219 196.269531 353.382813 189.433594 C 353.542969 189.183594 353.921875 189.308594 353.933594 189.621094 C 354.363281 199.28125 347.304688 210.183594 359.777344 209.511719 Z M 423.527344 222.425781 C 427.722656 225.398438 431.246094 229.210938 436.039063 231.351563 C 436.222656 231.433594 436.253906 231.722656 436.078125 231.785156 C 429.730469 234.082031 417.785156 232.289063 412.027344 228.261719 C 407.351563 224.996094 402.765625 220.882813 397.835938 218.203125 C 397.589844 218.070313 397.589844 217.710938 397.945313 217.648438 C 407 216.109375 416.457031 217.324219 423.527344 222.425781 Z M 423.347656 219.433594 C 430.960938 214.835938 443.265625 220.441406 453.6875 231.332031 C 453.855469 231.507813 453.796875 231.933594 453.597656 231.964844 C 442.125 233.867188 431.550781 226.300781 423.347656 219.433594 Z M 411.164063 230.976563 C 411.363281 231.132813 411.285156 231.523438 411.058594 231.574219 C 404.972656 232.972656 397.113281 231.882813 391.785156 228.058594 C 390.015625 226.789063 381.4375 219.695313 378.175781 217.207031 C 377.972656 217.054688 378.007813 216.730469 378.195313 216.699219 C 393.449219 214.050781 405.640625 226.726563 411.164063 230.976563 Z M 336.746094 256.621094 C 336.746094 250.300781 336.746094 243.921875 336.746094 237.722656 C 341.191406 237.796875 344.707031 236.757813 349.058594 236.394531 C 358.722656 239.019531 368.894531 237.796875 373.308594 235.898438 C 374.585938 235.347656 375.929688 235.550781 377.296875 235.929688 C 380.730469 236.878906 392.328125 239 398.058594 234.671875 C 398.492188 234.265625 399.199219 234.265625 399.148438 234.851563 C 399.199219 242.0625 399.164063 248.636719 399.105469 256.007813 C 389.453125 257.121094 348.839844 256.410156 336.746094 256.621094 Z M 389.738281 260.179688 C 384.414063 262.679688 380.640625 265.976563 375.722656 269.089844 C 375.644531 265.914063 375.679688 263.472656 375.722656 259.839844 C 380.421875 259.851563 385.804688 259.84375 389.71875 259.839844 C 389.980469 259.839844 389.984375 260.066406 389.738281 260.179688 Z M 216.539063 221.15625 C 233.289063 212.386719 254.546875 231.433594 257.734375 232.140625 C 260.128906 232.847656 260.277344 234.019531 256.359375 234.035156 C 228.390625 234.035156 228.679688 228.066406 216.539063 221.15625 Z M 230.695313 233.894531 C 211.226563 237.703125 198.40625 222.980469 191.867188 219.433594 C 205.433594 213.148438 219.976563 228.277344 230.714844 233.476563 C 230.75 233.496094 230.785156 233.511719 230.820313 233.527344 C 230.988281 233.609375 230.90625 233.851563 230.695313 233.894531 Z M 281.84375 283.605469 C 274.933594 283.691406 220.558594 283.652344 218.835938 283.652344 C 218.761719 275.542969 218.761719 267.941406 218.761719 259.941406 C 238.425781 259.941406 278.464844 259.941406 281.828125 259.941406 C 281.828125 268.003906 281.753906 276.253906 281.84375 283.605469 Z M 258.796875 256.621094 C 258.796875 249.855469 258.796875 246.3125 258.796875 239.316406 C 261.367188 238.519531 263.226563 237.453125 265.480469 236.84375 C 273.292969 240.523438 283.261719 239.609375 294.910156 234.851563 C 302.710938 238.210938 311.476563 239.679688 320.09375 237.140625 C 320.09375 244.453125 320.09375 250.46875 320.09375 256.621094 C 307.515625 256.621094 266.148438 256.621094 258.796875 256.621094 Z M 296.710938 259.839844 C 314.722656 259.804688 353.777344 259.90625 361.195313 259.839844 C 361.195313 266.914063 361.195313 275.722656 361.195313 283.605469 C 348.808594 283.671875 300.789063 283.570313 296.710938 283.605469 C 296.710938 277.050781 296.742188 267.742188 296.710938 259.839844 Z M 367.675781 231.148438 C 367.851563 231.296875 367.855469 231.636719 367.683594 231.664063 C 356.832031 233.222656 350.082031 231.953125 342.679688 227.320313 C 338.539063 224.726563 334.542969 222.050781 330.828125 218.980469 C 344.1875 211.414063 357.707031 222.753906 367.675781 231.148438 Z M 313.1875 123.546875 C 313.011719 123.578125 312.84375 123.34375 312.925781 123.191406 C 316.644531 116.222656 326.824219 107.019531 334.910156 105.324219 C 338.539063 106.140625 342.347656 108.046875 346.246094 108.863281 C 342.4375 113.671875 338.992188 118.023438 335.816406 122.558594 C 330.039063 121.769531 318.046875 122.59375 313.1875 123.546875 Z M 354.5625 217.027344 C 369.386719 212.398438 381.585938 222.1875 391.578125 231.339844 C 391.765625 231.511719 391.863281 231.96875 391.722656 232.023438 C 385.5625 234.257813 375.152344 232.867188 369.144531 228.632813 C 364.546875 225.390625 359.824219 220.527344 354.570313 218.027344 C 353.1875 217.371094 354.128906 217.164063 354.5625 217.027344 Z M 352.523438 93.6875 C 334.601563 92.066406 313.242188 99.589844 297.796875 114.335938 C 296.589844 115.492188 296.328125 115.261719 297.449219 114.015625 C 315.644531 93.757813 341.394531 89.328125 351.476563 91.632813 C 352.519531 91.871094 352.910156 93.722656 352.523438 93.6875 Z M 310.148438 134.53125 C 316.171875 134.269531 322.527344 134.09375 328.332031 133.917969 C 328.5625 133.910156 328.78125 134.25 328.667969 134.425781 C 326.507813 137.773438 325.160156 140.890625 324.296875 144.511719 C 319.761719 145.6875 314.953125 145.871094 310.328125 146.503906 C 309.578125 144.789063 308.605469 143.511719 308.152344 141.878906 C 308.226563 138.601563 308.757813 136.03125 310.148438 134.53125 Z M 330.375 221.949219 C 335.144531 225.433594 339.402344 229.644531 344.910156 231.574219 C 345.199219 231.675781 345.214844 232.011719 344.925781 232.082031 C 336.539063 234.113281 327.96875 232.636719 319.683594 227.625 C 314.058594 224.21875 306.039063 218.300781 302.710938 216.800781 C 310.128906 212.902344 323.4375 216.878906 330.375 221.949219 Z M 304.195313 220.632813 C 309.710938 223.796875 314.808594 227.933594 319.753906 231.058594 C 319.9375 231.175781 319.875 231.554688 319.65625 231.628906 C 310.679688 234.578125 300.203125 233.664063 291.917969 229.410156 C 290.105469 228.480469 279.96875 220.890625 275.679688 218.980469 C 286.234375 213.738281 293.355469 214.40625 304.195313 220.632813 Z M 278.804688 223.785156 C 282.472656 226.199219 285.914063 229.371094 289.859375 231.117188 C 290.089844 231.21875 290.074219 231.597656 289.828125 231.6875 C 276.796875 236.519531 259.625 231.9375 248.015625 222.171875 C 247.082031 221.238281 246.203125 220.859375 247.804688 220.164063 C 254.574219 217.222656 267.828125 216.566406 278.804688 223.785156 Z M 252.460938 214.445313 C 249.230469 214.632813 245.476563 215.171875 242.664063 216.984375 C 238.308594 214.988281 233.503906 213.898438 228.511719 213.535156 C 227.59375 209.804688 226.621094 207.308594 226.042969 204.222656 C 225.984375 203.917969 226.347656 203.746094 226.582031 203.976563 C 233.78125 211.054688 241.113281 218.441406 246.113281 213.28125 C 252.511719 206.679688 244.777344 203.070313 234.367188 200.503906 C 234.082031 200.433594 234.011719 199.71875 234.265625 199.660156 C 244.125 197.335938 251.925781 195.609375 246.839844 182.683594 C 242.632813 171.996094 236.707031 178.628906 230.8125 185.359375 C 230.527344 185.683594 230.210938 185.320313 230.335938 184.835938 C 233.992188 170.789063 238.53125 169.160156 229.945313 160.453125 C 226.121094 156.578125 222.246094 157.257813 220.460938 163.277344 C 218.914063 168.484375 220.042969 174.730469 220.164063 180.617188 C 220.179688 181.222656 219.808594 181.265625 219.628906 180.6875 C 215.042969 165.984375 210.101563 151.703125 204.894531 137.171875 C 204.785156 136.867188 205.078125 136.664063 205.335938 136.867188 C 219.273438 147.898438 235.835938 155.683594 246.828125 170.519531 C 257.59375 185.046875 259.175781 199.65625 252.460938 214.445313 Z M 219.855469 191.003906 C 219.964844 191.421875 219.640625 191.578125 219.367188 191.234375 C 213.914063 184.402344 205.722656 172.167969 199.570313 184.25 C 194.433594 194.339844 206.871094 197.515625 214.84375 199.585938 C 215.175781 199.671875 215.082031 200.054688 214.730469 200.175781 C 207.089844 202.800781 202.96875 209.925781 210.359375 214.304688 C 216.75 218.085938 220.347656 210.273438 223.0625 204.679688 C 223.1875 204.421875 223.539063 204.523438 223.601563 204.828125 C 224.164063 207.730469 225.0625 210.761719 225.882813 213.71875 C 222.1875 213.921875 217.085938 214.714844 213.910156 217.4375 C 207.921875 212.992188 199.214844 213.445313 191.6875 212.902344 C 185.253906 205.628906 184.722656 188.808594 189.058594 173.128906 C 189.546875 171.347656 200.351563 149.683594 202.390625 138.480469 C 202.460938 138.089844 202.722656 137.9375 202.871094 138.4375 C 204.933594 145.25 215.972656 176.289063 219.855469 191.003906 Z M 205.679688 232.710938 C 205.941406 232.855469 206.003906 233.289063 205.761719 233.363281 C 200.011719 235.140625 192.214844 234.175781 187.515625 230.953125 C 186.621094 226.546875 186.6875 223.734375 185.386719 219.671875 C 185.3125 219.445313 185.613281 219.132813 185.839844 219.214844 C 193.292969 221.933594 198.746094 228.894531 205.679688 232.710938 Z M 209.824219 238.117188 C 211.273438 237.765625 212.746094 238.191406 214.242188 238.785156 C 221.730469 241.746094 228.699219 241.273438 236.832031 237.277344 C 238.28125 238.003906 241.789063 239.050781 243.207031 239.402344 C 243.207031 245.515625 243.207031 250.566406 243.207031 256.621094 C 238.425781 256.621094 192.984375 256.621094 189.351563 256.621094 C 189.003906 249.234375 189.238281 244.378906 187.96875 237.027344 C 194.988281 240.726563 202.992188 239.789063 209.824219 238.117188 Z M 243.207031 287.851563 C 243.296875 295.113281 243.207031 309.980469 243.207031 310.886719 C 233.097656 310.914063 220.089844 310.886719 209.195313 310.886719 C 203.683594 308.246094 199.054688 307.59375 193.230469 304.726563 C 183.449219 299.902344 180.359375 293.101563 181.378906 287.851563 C 195.773438 287.785156 236.210938 287.746094 243.207031 287.851563 Z M 219.558594 314.867188 C 238.875 314.898438 275.007813 314.785156 281.90625 314.808594 C 281.988281 322.609375 281.800781 330.140625 281.828125 337.816406 C 268.453125 337.816406 255.671875 337.816406 241.703125 337.816406 C 239.105469 330.617188 227.792969 319.144531 219.632813 315.359375 C 219.238281 315.179688 219.1875 314.867188 219.558594 314.867188 Z M 258.796875 310.886719 C 258.765625 306.148438 258.796875 291.679688 258.796875 287.851563 C 279.082031 287.761719 300.320313 287.851563 320.09375 287.851563 C 320.078125 296.230469 320.265625 303.910156 320.09375 310.886719 C 312.472656 310.894531 270.191406 310.964844 258.796875 310.886719 Z M 296.710938 314.785156 C 310.261719 314.785156 351.628906 314.785156 361.195313 314.785156 C 361.195313 323.90625 361.195313 329.921875 361.195313 337.816406 C 339.660156 337.820313 316.816406 337.902344 296.710938 337.816406 C 296.683594 330.5625 296.710938 322.667969 296.710938 314.785156 Z M 455.050781 260.703125 C 455.226563 260.882813 455.0625 261.097656 454.820313 261.027344 C 440.394531 256.769531 424.042969 258.574219 411.554688 266.871094 C 407.554688 270.109375 404.871094 270.84375 402.464844 268.722656 C 396.328125 263.308594 392.085938 265.71875 381.878906 273.539063 C 378.996094 275.746094 365.195313 286.207031 361.644531 288.53125 C 359.566406 289.890625 358.628906 290.203125 360.59375 287.960938 C 374.578125 271.988281 391.5625 257.777344 415.25 254.332031 C 435.195313 251.433594 449.980469 255.578125 455.050781 260.703125 Z M 448.109375 253.355469 C 437.226563 250.363281 426.667969 249.183594 415.421875 251.363281 C 415.421875 246.402344 415.523438 241.53125 415.480469 236.214844 C 417.449219 235.65625 420.230469 235.945313 422.503906 236.324219 C 429.109375 237.433594 433.242188 238.988281 441.578125 235.941406 C 446.929688 237.390625 452.554688 236.847656 457.90625 235.757813 C 457.269531 242.289063 453.097656 248.550781 448.109375 253.355469 Z M 462.261719 219.613281 C 464.527344 220.976563 465.71875 223.195313 464.257813 225.328125 C 462.621094 227.777344 459.628906 230.589844 456.636719 230.5 C 453.476563 227.511719 449.550781 223.933594 445.679688 220.828125 C 445.554688 220.722656 445.585938 220.40625 445.730469 220.351563 C 450.523438 218.503906 457.332031 216.710938 462.261719 219.613281 Z M 474.605469 144.257813 C 469.753906 145.953125 463.269531 144.605469 458.71875 143.03125 C 457.902344 142.847656 457.125 143.738281 457.726563 144.511719 C 458.996094 146.503906 459.539063 148.320313 459.902344 150.40625 C 455.730469 150.769531 451.738281 149.226563 447.929688 148.230469 C 437.96875 133.878906 422.746094 128.210938 407.683594 125.210938 C 403.875 124.453125 400.140625 123.507813 396.769531 121.652344 C 412.304688 112.027344 438.316406 118.3125 457.09375 130.0625 C 463.320313 133.960938 469.167969 138.527344 474.640625 143.589844 C 474.804688 143.746094 474.785156 144.195313 474.605469 144.257813 Z M 437.925781 93.765625 C 440.019531 93.15625 441.019531 91.554688 439.527344 89.242188 C 439.441406 89.105469 439.578125 88.78125 439.75 88.761719 C 447.675781 87.949219 456.34375 90.398438 459.628906 96.4375 C 458.179688 97.253906 452.785156 100.15625 455.730469 100.972656 C 465.59375 103.164063 474.082031 114.164063 472.964844 116.84375 C 472.433594 117.953125 470.566406 117.390625 468.996094 117.359375 C 466.023438 117.300781 466.507813 119.257813 467.699219 120.859375 C 471.503906 125.964844 473.382813 131.40625 474.707031 137.8125 C 474.761719 138.078125 474.542969 138.390625 474.378906 138.273438 C 469.769531 135.035156 465.667969 130.988281 461.304688 127.167969 C 447.269531 114.871094 423.289063 110.480469 403.96875 114.464844 C 403.65625 114.53125 403.492188 114.214844 403.726563 113.988281 C 413.628906 104.460938 425.28125 97.441406 437.925781 93.765625 Z M 430.058594 81.199219 C 433.214844 83.21875 435.441406 86.949219 436.976563 90.035156 C 437.0625 90.207031 436.839844 90.433594 436.648438 90.382813 C 432.5625 89.289063 428.320313 88.507813 424.164063 87.730469 C 424.710938 84.734375 428.0625 82.558594 430.058594 81.199219 Z M 422.546875 83.714844 C 422.722656 83.601563 423.007813 83.84375 422.960938 84.0625 C 422.175781 87.46875 418.734375 88.3125 416.089844 90.359375 C 411.847656 93.476563 407.683594 96.84375 403.605469 99.511719 C 403.414063 99.636719 403.28125 99.34375 403.414063 99.078125 C 407.25 91.585938 415.625 88.109375 422.546875 83.714844 Z M 360.832031 35.433594 C 368.4375 38.171875 377.285156 39.5625 383.027344 45.679688 C 384.902344 47.671875 385.878906 46.726563 386.0625 44.972656 C 386.242188 43.226563 387.277344 42.105469 387.429688 40.289063 C 394.402344 43.734375 400.882813 51.425781 402.222656 59.410156 C 402.628906 61.8125 403.84375 62.464844 405.171875 59.921875 C 405.765625 58.789063 406.464844 57.589844 407.65625 57.703125 C 411.554688 66.140625 411.554688 79.292969 407.65625 87.730469 C 404.121094 95.078125 398.75 101.035156 395.601563 108.335938 C 395.472656 108.628906 395.199219 108.609375 395.183594 108.304688 C 394.164063 89.796875 388.128906 73.785156 377.695313 59.546875 C 376.128906 57.40625 364.480469 42.550781 360.519531 35.742188 C 360.414063 35.558594 360.625 35.359375 360.832031 35.433594 Z M 345.160156 66.140625 C 346.53125 65.8125 349.566406 67.109375 351.953125 67.683594 C 354.695313 68.34375 354.796875 66.898438 354.023438 65.394531 C 349.441406 56.515625 356.542969 47.871094 356.105469 38.503906 C 356.09375 38.222656 356.359375 38.15625 356.519531 38.40625 C 364.363281 50.589844 374.765625 62.941406 380.898438 75.121094 C 386.613281 87.535156 392.152344 102.410156 391.804688 116.632813 C 391.796875 116.855469 391.429688 117.007813 391.246094 116.867188 C 384.496094 111.578125 375.289063 110.203125 367.679688 106.503906 C 363.25 104.347656 357.371094 101.1875 362.578125 99.1875 C 363.96875 98.652344 364.675781 98.054688 364.933594 96.617188 C 363.6875 96.304688 362.085938 96.261719 360.667969 95.804688 C 355.351563 94.085938 343.242188 73.804688 345.160156 66.140625 Z M 308.667969 55.78125 C 314.335938 58.082031 322.394531 63.148438 326.835938 67.230469 C 321.847656 71.402344 316.589844 74.847656 311.871094 79.65625 C 305.390625 76.949219 296.542969 70.765625 289.828125 67.230469 C 294.636719 61.605469 302.136719 58.59375 308.667969 55.78125 Z M 283.117188 2.585938 C 286.023438 1.929688 288.992188 2.335938 292.011719 2.828125 C 292.371094 2.890625 292.429688 3.261719 292.089844 3.425781 C 290.734375 4.082031 289.316406 5.121094 288.105469 6.09375 C 286.433594 4.578125 284.859375 3.875 282.996094 3.136719 C 282.742188 3.035156 282.8125 2.65625 283.117188 2.585938 Z M 277.144531 6.789063 C 278.566406 4.136719 279.113281 4.316406 281.355469 5.238281 C 282.789063 5.828125 284.175781 6.769531 285.746094 7.363281 C 278.757813 20.703125 272.503906 33.578125 272.230469 49.8125 C 271.054688 50.449219 269.515625 50.554688 268.332031 50.902344 C 266.636719 35.363281 271.289063 17.695313 277.144531 6.789063 Z M 313.046875 173.0625 C 314.003906 182.035156 314.070313 201.050781 310.78125 210.089844 C 309.460938 210.074219 308.136719 209.996094 306.429688 210.089844 C 309.730469 201.050781 310.058594 184.644531 309.046875 173.667969 C 305.945313 140.09375 275.570313 90.03125 239.320313 99.886719 C 234.941406 101.25 234.359375 98.949219 238.492188 97.136719 C 267.398438 84.464844 308.320313 128.757813 313.046875 173.0625 Z M 232.59375 37.386719 C 236.300781 45.644531 238.769531 44.691406 240.230469 53.777344 C 240.464844 55.238281 241.5625 55.96875 243.234375 54.433594 C 244.464844 53.300781 246.105469 52.390625 246.289063 54.621094 C 246.636719 59.613281 246.742188 63.195313 243.023438 70.628906 C 242.390625 71.855469 242.855469 72.550781 244.269531 72.40625 C 245.792969 72.242188 247.769531 71.417969 249.554688 72.21875 C 242.355469 93.820313 227.765625 105.546875 206.320313 114.984375 C 206.011719 115.121094 205.734375 114.792969 205.90625 114.488281 C 213.5 101.210938 217.617188 86.164063 220.445313 70.785156 C 221.421875 65.476563 223.820313 44.699219 232.59375 37.386719 Z M 194.496094 53.714844 C 196.027344 51.738281 197.046875 53.445313 198.085938 54.722656 C 198.953125 55.792969 199.828125 56.5625 201.027344 54.621094 C 204.410156 44.566406 219.027344 42.601563 228.097656 36.777344 C 228.519531 36.503906 228.777344 36.796875 228.402344 37.25 C 221.703125 45.363281 216.4375 57.5 214.996094 67.230469 C 212.617188 81.886719 207.503906 103.320313 203.285156 111.523438 C 203.105469 111.871094 202.648438 111.847656 202.59375 111.523438 C 200.511719 99.582031 194.308594 87.359375 187.332031 77.023438 C 184.867188 68.660156 193.40625 55.003906 194.496094 53.714844 Z M 170.457031 64.871094 C 187.210938 75.648438 197.851563 96.300781 200.464844 116.246094 C 200.574219 117.117188 199.519531 117.484375 199.398438 116.957031 C 197.191406 107.167969 184.285156 86.859375 170.824219 74.394531 C 170.328125 71.433594 170.0625 68.394531 169.8125 65.351563 C 169.785156 65.039063 170.21875 64.71875 170.457031 64.871094 Z M 162.316406 74.328125 C 162.957031 72.773438 165.605469 66.746094 166.421875 63.804688 C 166.546875 63.351563 166.921875 63.25 167.023438 63.535156 C 168.097656 66.453125 167.242188 69.886719 168.648438 72.941406 C 168.554688 74.304688 163.601563 75.261719 163.050781 75.476563 C 161.925781 75.917969 161.902344 75.335938 162.316406 74.328125 Z M 107.875 77.660156 C 111.207031 78.507813 114.152344 77.453125 117.128906 76.386719 C 118.929688 75.742188 132.546875 72.851563 137.261719 74.214844 C 139.984375 72.21875 135.902344 70.585938 136.175781 68.316406 C 144.699219 66.050781 152.953125 69.316406 160.574219 72.21875 C 160.140625 73.585938 159.429688 74.84375 158.9375 76.199219 C 158.15625 78.34375 158.917969 79.660156 160.535156 81.171875 C 171.027344 90.992188 181.328125 99.140625 188.628906 111.417969 C 188.925781 111.917969 188.804688 112.351563 188.449219 112.066406 C 178.160156 103.894531 164.519531 102.699219 151.746094 100.257813 C 136.640625 97.371094 115.023438 93.886719 107.875 77.660156 Z M 129.824219 125.371094 C 130.371094 122.285156 137.03125 123.101563 134.179688 120.109375 C 120.640625 116.113281 112.839844 101.238281 114.859375 93.171875 C 129.605469 103.84375 153.777344 107.269531 162.421875 108.472656 C 169.546875 109.460938 186.164063 112.824219 191.867188 119.476563 C 182.113281 120.894531 168.566406 121.210938 155.585938 130.8125 C 150.539063 131.863281 133.671875 128.996094 129.824219 125.371094 Z M 110.074219 174.605469 C 115.496094 175.832031 124.488281 177.609375 130.296875 178.867188 C 173.46875 188.238281 185.144531 202.929688 187.152344 259.886719 C 187.3125 261.65625 188.421875 263.789063 188.878906 265.769531 C 188.964844 266.144531 188.5625 266.433594 188.320313 266.207031 C 180.289063 258.667969 177.195313 246.738281 173.289063 235.773438 C 163.910156 209.46875 145.972656 188.171875 119.199219 181.796875 C 115.542969 179.714844 112.675781 177.875 109.785156 175.152344 C 109.511719 174.894531 109.683594 174.519531 110.074219 174.605469 Z M 167.652344 259.941406 C 171.546875 261.800781 177.554688 264.960938 180.023438 267.066406 C 180.304688 267.304688 180.105469 267.707031 179.753906 267.65625 C 173.164063 266.765625 163.488281 262.660156 157.109375 259.839844 C 160.210938 259.839844 164.550781 259.839844 167.652344 259.941406 Z M 147.367188 256.621094 C 138.476563 253.539063 137.082031 253.085938 127.285156 251.632813 C 124.160156 248.289063 122.183594 242.355469 120.9375 239.023438 C 125.742188 239.207031 129.464844 238.753906 133.816406 237.664063 C 137.988281 238.84375 143.160156 240.023438 147.964844 239.207031 C 152.683594 244.738281 158.4375 251.007813 163.488281 256.621094 C 159.855469 256.621094 149.109375 256.699219 147.367188 256.621094 Z M 169.398438 241.085938 C 164.105469 228.585938 160.632813 209.492188 147.511719 209.363281 C 145.484375 209.453125 144.714844 208.996094 144.328125 208.386719 C 141.871094 204.472656 139.554688 193.011719 130.277344 193.492188 C 126.058594 193.59375 125.058594 189.417969 122.867188 186.734375 C 122.554688 186.351563 122.6875 185.894531 123.105469 186.007813 C 139.132813 190.28125 152.28125 203.441406 161.210938 216.347656 C 171.464844 230.515625 172.226563 248.765625 182.25 262.476563 C 182.6875 263.074219 182.480469 263.421875 181.929688 262.917969 C 176.933594 258.367188 172.746094 248.988281 169.398438 241.085938 Z M 118.652344 186.640625 C 118.308594 186.089844 118.792969 185.746094 119.273438 186.210938 C 123.058594 189.84375 124.285156 195.148438 131.367188 195.941406 C 139.804688 200.65625 135.722656 214.261719 148.148438 213.535156 C 154.871094 212.925781 163.15625 243.761719 173.203125 257.242188 C 173.851563 258.089844 173.613281 258.472656 172.753906 257.820313 C 166.257813 252.894531 160.316406 246.738281 155 240.464844 C 148.109375 232.328125 126.894531 199.886719 118.652344 186.640625 Z M 117.113281 220.035156 C 122.078125 217.84375 129.070313 218.210938 133.996094 220.25 C 137.261719 224.601563 139.621094 229.773438 143.613281 233.582031 C 132.664063 234.710938 126.546875 224.441406 117.363281 220.941406 C 116.957031 220.789063 116.773438 220.1875 117.113281 220.035156 Z M 112.574219 232.847656 C 101.398438 229.074219 105.109375 219.308594 115.089844 222.714844 C 120.605469 224.597656 124.585938 228.671875 129.691406 231.957031 C 129.976563 232.136719 129.902344 232.640625 129.566406 232.710938 C 124.386719 233.828125 117.9375 234.65625 112.574219 232.847656 Z M 76.085938 268.523438 C 80.832031 261.292969 93.257813 255.867188 103.339844 253.628906 C 132.488281 250.089844 156.742188 263.730469 171.738281 268.300781 C 172.074219 268.40625 172.015625 268.8125 171.660156 268.917969 C 167.917969 270.042969 164.484375 271.039063 160.019531 273.054688 C 149.613281 269.890625 140.042969 269.382813 130.40625 264.734375 C 121.480469 260.429688 112.945313 254.914063 102.25 256.894531 C 96.285156 258.328125 94.902344 264.695313 90.460938 266.871094 C 85.96875 268.035156 81.394531 268.304688 76.691406 269.371094 C 76.265625 269.46875 75.835938 268.90625 76.085938 268.523438 Z M 102.78125 277.832031 C 81.421875 279.425781 66.628906 286.945313 56.753906 296.507813 C 56.527344 296.726563 56.179688 296.539063 56.238281 296.21875 C 58.046875 286.078125 65.207031 271.480469 84.121094 271.242188 C 89.699219 271.171875 95.371094 271.273438 97.945313 266.421875 C 101.585938 259.554688 110.03125 262.226563 119.847656 265.78125 C 130.546875 269.9375 142.367188 273.148438 154.636719 274.566406 C 154.953125 274.601563 154.996094 274.996094 154.707031 275.136719 C 151.378906 276.769531 148.527344 276.699219 145.652344 276.578125 C 143.59375 276.492188 114.746094 276.941406 102.78125 277.832031 Z M 69.097656 379.921875 C 65.929688 374.628906 64.570313 366.40625 66.808594 362.925781 C 67.035156 362.574219 67.328125 362.84375 67.238281 363.304688 C 66.382813 367.730469 68.339844 375.070313 69.359375 379.621094 C 69.445313 380.003906 69.261719 380.191406 69.097656 379.921875 Z M 87.195313 374.628906 C 85.015625 371.273438 83.203125 367.191406 82.386719 363.292969 C 83.175781 359.429688 90.367188 356.488281 93.269531 357.214844 C 94.179688 360.75 96.167969 364.507813 97.625 367.644531 C 93.722656 369.367188 91.078125 371.914063 87.195313 374.628906 Z M 106.332031 347.496094 C 103.703125 346.5 100.066406 345.078125 98.53125 344.152344 C 87.484375 337.816406 74.433594 344.992188 68.691406 357.847656 C 64.15625 357.667969 57.8125 356.503906 54.359375 354.855469 C 77.152344 325.53125 109.984375 304.273438 139.257813 290.636719 C 139.925781 291.84375 140.347656 292.902344 140.980469 294.082031 C 125.835938 310.589844 114.042969 327.632813 106.332031 347.496094 Z M 149.054688 300.433594 C 153.191406 295.503906 158.785156 290.484375 163.097656 287.96875 C 163.226563 287.894531 163.488281 288.175781 163.488281 288.386719 C 163.488281 296.152344 163.488281 303.644531 163.488281 310.886719 C 160.296875 310.886719 158.703125 310.886719 155.605469 310.886719 C 153.453125 310.113281 149.703125 305.003906 149.054688 300.433594 Z M 171.546875 337.816406 C 162.347656 334.363281 159.605469 325.40625 157.957031 314.785156 C 166.5 314.785156 179.785156 314.785156 188.613281 314.785156 C 194.964844 318.140625 196.8125 318.273438 203.523438 320.542969 C 203.523438 322.355469 203.523438 333.828125 203.523438 337.816406 C 193.78125 337.816406 181.292969 337.816406 171.546875 337.816406 Z M 168.6875 283.730469 C 170.292969 282.925781 171.875 282.078125 173.597656 281.363281 C 173.878906 281.246094 174.222656 281.515625 174.109375 281.765625 C 173.6875 282.703125 173.289063 283.664063 173 284.738281 C 171.5625 284.222656 170.433594 284.234375 168.917969 284.269531 C 168.5 284.277344 168.3125 283.917969 168.6875 283.730469 Z M 179.785156 310.886719 L 179.785156 309.292969 L 181.824219 310.886719 Z M 186.695313 367.929688 C 190.328125 367.929688 195.464844 367.929688 199.273438 367.929688 C 197.148438 374.78125 199.167969 386.746094 200.617188 389.558594 C 201.105469 390.464844 200.226563 391.003906 199.554688 390.933594 C 193.839844 384.945313 188.78125 375.824219 186.695313 367.929688 Z M 210.964844 405.007813 C 196.664063 406.070313 192.664063 398.773438 197.316406 396.273438 C 199.054688 395.34375 200.984375 394.855469 203.207031 394.855469 C 205.550781 398.210938 208.269531 401.722656 211.1875 404.304688 C 211.429688 404.519531 211.277344 404.984375 210.964844 405.007813 Z M 231.246094 346.917969 C 211.246094 341.933594 204.207031 350.738281 200.625 364.035156 C 194.3125 364.035156 185.863281 364.214844 179.785156 364.035156 C 179.785156 361.90625 179.785156 346.9375 179.785156 340.828125 C 198.03125 340.828125 215.660156 340.828125 233.683594 340.886719 C 234.953125 342.609375 235.769531 344.636719 236.132813 346.511719 C 234.769531 347.464844 232.746094 347.292969 231.246094 346.917969 Z M 218.761719 337.816406 C 218.761719 334.007813 218.761719 330.816406 218.761719 326.65625 C 223.265625 328.90625 228.414063 332.78125 231.984375 337.902344 C 228.414063 337.742188 223.019531 337.902344 218.761719 337.816406 Z M 237.582031 355.671875 C 240.632813 350.0625 239.148438 336.390625 223.558594 325.742188 C 218.082031 322.003906 211.886719 320.28125 202.117188 317.144531 C 179.671875 309.929688 165.191406 297.941406 177.988281 279.753906 C 178.261719 278.753906 177.628906 278.117188 176.902344 277.757813 C 146.242188 288.210938 124.867188 325.53125 113.316406 349.242188 C 111.867188 349.335938 110.515625 349.152344 109.414063 348.359375 C 111.28125 338.898438 133.222656 298.835938 159.382813 282.8125 C 159.015625 282.335938 158.671875 281.566406 157.945313 281.019531 C 119.550781 291.871094 71.839844 325.296875 51.726563 353.519531 C 50.992188 353.140625 50.371094 352.519531 49.730469 351.773438 C 75.5 319.035156 104.035156 297.941406 137.578125 284.441406 C 148.425781 280.078125 159.652344 276.308594 170.371094 271.859375 C 175.597656 270.324219 181.148438 269.957031 186.695313 270.160156 C 189.742188 270.269531 191.851563 271.410156 192.066406 273.9375 C 192.316406 276.828125 189.402344 277.179688 186.882813 277.878906 C 181.066406 279.488281 169.820313 293.253906 188.730469 305.484375 C 195.964844 310.160156 202.753906 311.328125 209.554688 314.3125 C 227.128906 320.289063 241.832031 334.015625 242.210938 354.855469 C 240.9375 355.761719 239.125 356.035156 237.582031 355.671875 Z M 144.179688 288.566406 C 145.722656 287.738281 146.914063 287.113281 148.722656 286.558594 C 149.027344 286.464844 149.246094 286.742188 149.015625 286.96875 C 147.890625 288.054688 146.613281 289.054688 145.335938 290.183594 C 144.785156 289.730469 144.472656 289.035156 144.179688 288.566406 Z M 243.207031 340.828125 C 249.667969 340.828125 294.40625 340.828125 320.125 340.886719 C 319.945313 348.507813 320.214844 355.617188 320.125 364.234375 C 306.71875 364.175781 293.613281 364.398438 279.851563 364.652344 C 277.070313 346.578125 258.671875 337.238281 244.386719 346.328125 C 244.09375 344.105469 243.84375 342.734375 243.207031 340.828125 Z M 361.195313 367.929688 C 361.222656 374.414063 361.308594 382.492188 361.195313 389.28125 C 355.753906 389.460938 347.882813 389.957031 343.4375 392.5 C 334.457031 388.960938 322.484375 387.78125 313.414063 391.863281 C 309.148438 388.054688 302.425781 387.78125 296.710938 387.507813 C 296.671875 380.597656 296.710938 375.460938 296.710938 367.929688 C 306.1875 367.929688 342.503906 367.929688 361.195313 367.929688 Z M 280.101563 367.652344 C 280.078125 367.40625 281.601563 367.410156 281.605469 367.746094 C 281.679688 373.851563 281.8125 381.394531 281.574219 387.871094 C 280.054688 388.121094 278.402344 387.964844 277.039063 387.511719 C 280.179688 382.101563 280.636719 373.792969 280.101563 367.652344 Z M 259.921875 374.539063 C 258.074219 371.464844 255.484375 363.445313 255.269531 362.65625 C 257.539063 361.566406 260.128906 359.871094 262.253906 358.300781 C 267.085938 360.765625 269.996094 370.84375 267.191406 373.132813 C 265.214844 374.746094 260.875 376.125 259.921875 374.539063 Z M 273.152344 406.335938 C 270.175781 407.714844 266.394531 407.113281 263.273438 405.988281 C 263.054688 405.910156 263.03125 405.488281 263.234375 405.355469 C 265.210938 404.054688 267.046875 402.308594 268.011719 401.238281 C 269.796875 402.867188 271.609375 404.375 273.140625 405.539063 C 273.359375 405.703125 273.363281 406.238281 273.152344 406.335938 Z M 298.472656 406.28125 C 291.472656 408.042969 282.882813 406.484375 275.953125 404.925781 C 273.683594 403.109375 271.804688 401.226563 269.898438 399.230469 C 272.167969 396.871094 273.441406 394.976563 275.046875 392.042969 C 276.039063 392.378906 277.039063 392.5 278.128906 392.679688 C 284.828125 396.855469 291.78125 401.035156 298.582031 405.453125 C 298.871094 405.640625 298.800781 406.199219 298.472656 406.28125 Z M 328.378906 406.375 C 311.597656 411.1875 291.292969 398.785156 285.890625 393.550781 C 285.738281 393.40625 286.003906 392.933594 286.265625 392.839844 C 302.628906 387.035156 314.671875 399.933594 328.308594 405.460938 C 329.015625 405.742188 329.039063 406.285156 328.378906 406.375 Z M 355.769531 404.78125 C 343.992188 408.03125 332.222656 404.167969 317.78125 395.765625 C 317.625 395.675781 317.542969 395.367188 317.660156 395.308594 C 328.746094 389.679688 346.042969 398.113281 355.816406 404.386719 C 355.953125 404.476563 355.921875 404.742188 355.769531 404.78125 Z M 370.828125 407.738281 C 362.964844 405.617188 357.078125 400.914063 350.242188 396.730469 C 350.058594 396.617188 350.105469 396.277344 350.308594 396.21875 C 358.621094 393.894531 368.492188 394.632813 376.726563 396.582031 C 377.632813 399.480469 379.085938 402.023438 380.625 404.652344 C 377.632813 406.195313 374.367188 407.191406 370.828125 407.738281 Z M 375.035156 389.894531 C 375.15625 390.507813 374.925781 391.050781 374.394531 390.078125 C 372.355469 385.117188 372.269531 374.929688 375.722656 367.929688 C 375.722656 367.929688 376.519531 367.929688 376.949219 367.929688 C 373.683594 375.371094 373.039063 381.550781 375.035156 389.894531 Z M 378.734375 364.035156 C 368.71875 364.097656 340.921875 364.125 336.746094 364.035156 C 336.746094 357.480469 336.746094 349.152344 336.746094 340.828125 C 358.804688 340.828125 382.011719 340.828125 403.492188 340.828125 C 406.945313 344.28125 407.355469 347.738281 405.171875 351.578125 C 404.273438 353.15625 402.261719 353.136719 400.164063 352.945313 C 394.257813 352.398438 383.152344 355.957031 378.734375 364.035156 Z M 375.761719 314.941406 C 384.921875 321.109375 393.800781 329.378906 400.96875 337.816406 C 391.957031 337.742188 384.46875 337.90625 375.722656 337.816406 C 375.726563 330.832031 375.847656 322.648438 375.761719 314.941406 Z M 399.128906 379.617188 C 396.046875 378.710938 394.234375 375.726563 390.875 373.359375 C 391.046875 369.703125 396.136719 365.921875 398.3125 363.746094 C 400.851563 365.015625 403.753906 366.375 406.566406 368.28125 C 402.484375 370.910156 400.761719 375.535156 399.128906 379.617188 Z M 410.960938 354.707031 C 410.132813 354.472656 409.234375 354.035156 408.234375 353.792969 C 408.394531 353.433594 408.703125 352.304688 409.0625 351.46875 C 409.519531 350.398438 409.824219 350.570313 410.46875 351.953125 C 410.871094 352.699219 411.128906 353.394531 411.421875 354.113281 C 411.519531 354.355469 411.226563 354.78125 410.960938 354.707031 Z M 421.171875 330.910156 C 432.328125 339.433594 443.757813 350.863281 452.28125 362.839844 C 449.773438 364.210938 447.292969 365.921875 444.664063 367.644531 C 440.855469 359.480469 430.875 357.941406 422.257813 356.761719 C 421.164063 352.960938 416.519531 343.304688 414.253906 339.675781 C 416.203125 339.675781 419.746094 334.625 421.171875 330.910156 Z M 410.710938 335.625 C 402.015625 323.769531 390.199219 314.804688 378.753906 307 C 378.378906 306.746094 378.410156 306.460938 378.8125 306.582031 C 390.292969 310.113281 407.253906 321.222656 416.910156 327.894531 C 415.761719 331.527344 413.8125 333.917969 410.710938 335.625 Z M 437.625 371.183594 C 425.546875 378.542969 425.9375 389.921875 428.945313 398.359375 C 429.160156 398.960938 428.902344 399.089844 428.632813 398.566406 C 427.777344 396.894531 426.886719 395.144531 426.257813 393.308594 C 423.726563 385.929688 425.378906 374.964844 437.449219 370.816406 C 438.015625 370.621094 438.132813 370.875 437.625 371.183594 Z M 447.929688 397.941406 C 444.398438 395.914063 441.246094 392.425781 439.964844 388.804688 C 438.394531 384.375 442.867188 381.984375 443.800781 381.175781 C 445.277344 379.886719 446.585938 379.535156 447.476563 383.335938 C 448.65625 387.601563 451.285156 391.046875 454.007813 394.222656 C 452.828125 395.945313 449.835938 396.851563 447.929688 397.941406 Z M 454.222656 361.820313 C 436.238281 334.121094 397.601563 305.308594 364.933594 300.613281 C 363.941406 300.523438 363.675781 301.675781 364.753906 302.335938 C 384.800781 311.539063 412.039063 334.625 419.175781 356.375 C 417.796875 356.210938 416.472656 356.230469 414.703125 355.699219 C 409.871094 336.972656 373.914063 302.671875 354.109375 303.789063 C 349.984375 304.023438 347.496094 301.234375 351.371094 299.941406 C 353.359375 299.277344 356.941406 298.554688 358.222656 297.984375 C 365.726563 295.253906 373.550781 293.679688 381.5625 292.9375 C 411.375 290.171875 451.90625 300.8125 467.703125 317.496094 C 466.886719 318.859375 465.253906 319.933594 463.800781 320.839844 C 441.78125 303.964844 405.46875 295.5625 378.296875 297.300781 C 374.519531 297.539063 374.355469 298.855469 378.363281 300.214844 C 409.746094 310.886719 439.726563 334.851563 456.285156 360.402344 C 455.957031 360.910156 455.039063 361.457031 454.222656 361.820313 Z M 421.171875 309.503906 C 418.359375 309.683594 418.128906 309.296875 415.40625 309.203125 C 415.40625 307.164063 415.40625 305.039063 415.40625 303.394531 C 419.035156 304.121094 421.894531 304.242188 425.253906 305.601563 C 424.890625 307.78125 423.113281 308.761719 421.171875 309.503906 Z M 420.277344 318.769531 C 416.851563 316.429688 413.347656 314.09375 409.539063 311.894531 C 409.3125 311.761719 409.328125 311.4375 409.558594 311.414063 C 413.757813 311.035156 416.246094 312.367188 420.71875 311.679688 C 421.78125 313.898438 421.253906 317.175781 420.277344 318.769531 Z M 399.105469 300.878906 C 399.105469 302.78125 399.105469 304.285156 399.105469 306.191406 C 394.507813 304.183594 389.109375 301.664063 384.394531 299.929688 C 384.015625 299.789063 384.066406 299.585938 384.480469 299.613281 C 388.882813 299.910156 394.726563 300.304688 399.105469 300.878906 Z M 453.53125 350.492188 C 454.121094 351.648438 453.785156 352.0625 453.070313 351.0625 C 445.246094 340.101563 435.070313 330.816406 424.441406 322.226563 C 426.035156 318.503906 426.65625 316.023438 425.707031 311.496094 C 428.070313 310.976563 428.609375 307.78125 430.058594 307.144531 C 441.851563 309.410156 452.191406 315.761719 461.625 322.566406 C 451.0625 331.195313 449.730469 343.015625 453.53125 350.492188 Z M 498.960938 358.652344 C 490.488281 344.273438 474.066406 344.011719 462.308594 354.597656 C 461.925781 354.945313 461.726563 354.867188 462.015625 354.480469 C 472.320313 340.824219 493.71875 341.296875 499.273438 358.464844 C 499.4375 358.96875 499.222656 359.097656 498.960938 358.652344 Z M 500.628906 318.210938 C 496.273438 316.757813 491.378906 315.671875 486.839844 316.035156 C 487.113281 313.492188 488.292969 311.226563 489.742188 309.140625 C 494.734375 308.597656 499.269531 310.589844 503.621094 312.40625 C 502.351563 314.21875 501.71875 316.488281 500.628906 318.210938 "/>
</g>
</svg>
