<?xml version="1.0" encoding="UTF-8"?>
<svg xmlns="http://www.w3.org/2000/svg" xmlns:xlink="http://www.w3.org/1999/xlink" width="397pt" height="663pt" viewBox="0 0 397 663" version="1.1">
<g id="surface1">
<path style=" stroke:none;fill-rule:nonzero;fill:rgb(0%,0%,0%);fill-opacity:1;" d="M 349.703125 199.214844 C 321.210938 167.992188 283.679688 141.1875 262.195313 105.511719 C 263.058594 90.011719 283.148438 77.382813 293.195313 64.179688 C 276.835938 60.160156 260.1875 56.714844 244.402344 50.6875 C 238.085938 34.039063 234.070313 15.097656 224.882813 0.171875 C 211.96875 17.105469 201.347656 35.1875 189.867188 52.699219 L 129.878906 17.679688 C 133.898438 45.523438 142.796875 73.078125 142.222656 101.492188 C 142.035156 108.015625 136.976563 113.046875 129.929688 117.355469 C 96.632813 137.71875 8.339844 143.808594 0.628906 270.878906 C -3.375 336.867188 32.460938 405.199219 69.890625 455.679688 C 63.578125 461.132813 56.6875 453.09375 50.375 455.679688 C 40.136719 504.9375 71.761719 537.859375 120.40625 560.15625 C 98.140625 589.238281 97.414063 621.707031 118.121094 643.761719 C 142.570313 669.804688 194.707031 676.578125 239.234375 612.96875 C 262.03125 620.777344 289.542969 612.527344 311.285156 596.050781 C 349.09375 567.402344 343.933594 514.820313 316.730469 481.511719 C 363.511719 442.839844 395.652344 401.664063 396.945313 327.09375 C 397.753906 280.6875 383.53125 236.28125 349.703125 199.214844 Z M 220.867188 42.363281 C 234.644531 60.449219 229.765625 116.292969 229.808594 118.015625 C 230.652344 151.480469 260.230469 171.09375 272.980469 191.695313 C 306.742188 246.242188 321.347656 317.304688 299.222656 377.320313 C 285.957031 438.546875 235.054688 470.15625 200.199219 481.511719 C 205.078125 466.296875 253.714844 420.664063 263.058594 307 C 268.222656 244.714844 246.984375 185.589844 213.402344 135.359375 C 209.671875 104.363281 215.410156 73.363281 220.867188 42.363281 Z M 153.574219 301.421875 C 154.269531 255.8125 163.664063 209.800781 174.367188 168.65625 C 172.933594 135.359375 168.339844 104.074219 170.0625 73.363281 C 187.917969 118.308594 216.632813 159.730469 231.230469 206.972656 C 257.132813 290.765625 229.621094 417.503906 188.71875 450.511719 C 159.722656 404.601563 152.71875 357.351563 153.574219 301.421875 Z M 36.882813 223.191406 C 56.976563 180.996094 101.175781 153.441406 142.222656 139.664063 C 112.65625 175.257813 80.222656 210.847656 64.726563 254.1875 C 43.207031 323.714844 78.003906 414.003906 121.921875 463.714844 C 125.460938 467.71875 124.402344 469.988281 120.140625 466.613281 C 73.824219 429.933594 1.691406 320.523438 36.882813 223.191406 Z M 97.734375 527.148438 C 62.960938 514.929688 63.203125 491.464844 73.910156 474.335938 C 88.335938 514.285156 108.988281 517.917969 139.0625 481.511719 C 140.785156 484.953125 145.089844 488.074219 146.289063 491.480469 C 148.921875 498.957031 128.3125 532.378906 97.734375 527.148438 Z M 277.695313 591.152344 C 253.871094 595.171875 236.9375 585.699219 218.570313 573.644531 C 214.839844 581.679688 221.441406 590.003906 220.867188 599.476563 C 222.1875 633.796875 165.605469 661.40625 133.898438 635.640625 C 127.296875 628.753906 123.277344 619.28125 126.722656 609.808594 C 149.085938 631.652344 171.40625 641.347656 193.460938 607.140625 C 210.996094 579.933594 202.597656 556.40625 189.867188 526 C 188.433594 524.277344 186.578125 524.308594 184.699219 523.988281 C 181.902344 545.246094 151.144531 559.835938 126.722656 544.65625 C 128.039063 539.765625 133.296875 540.296875 138.300781 540.117188 C 152.292969 539.609375 159.246094 530.792969 173.21875 511.648438 C 168.054688 502.175781 178.386719 494.425781 176.378906 483.808594 C 138.777344 453.09375 107.203125 410.617188 87.398438 367.847656 C 69.550781 324.527344 72.1875 259.640625 104.046875 220.320313 C 118.972656 202.523438 134.472656 181.570313 152.554688 168.65625 C 150.546875 187.3125 141.648438 207.976563 138.203125 228.355469 C 132.175781 274.28125 135.621094 320.203125 139.0625 365.839844 C 145.089844 382.199219 148.25 399.710938 152.554688 416.644531 C 158.867188 439.316406 173.507813 458.261719 177.238281 481.511719 C 184.988281 493.277344 201.921875 498.15625 205.367188 511.648438 C 208.8125 530.589844 225.457031 545.515625 237.226563 560.15625 C 246.816406 569.539063 269.945313 564.171875 280.566406 551.832031 C 294.917969 536.046875 304.390625 514.804688 297.214844 494.140625 C 333.03125 521.867188 317.390625 581.230469 277.695313 591.152344 Z M 263.058594 469.167969 C 319.914063 417.308594 326.144531 398.785156 328.289063 321.664063 C 329.164063 290.300781 325.296875 258.347656 315.347656 229.457031 C 304.128906 196.878906 262.195313 143.683594 262.195313 143.683594 C 306.859375 175.195313 342.027344 218.527344 359.507813 267.734375 C 391.328125 357.339844 348.597656 454.910156 263.058594 469.167969 "/>
</g>
</svg>
