<?xml version="1.0" encoding="UTF-8"?>
<svg xmlns="http://www.w3.org/2000/svg" xmlns:xlink="http://www.w3.org/1999/xlink" width="519pt" height="462pt" viewBox="0 0 519 462" version="1.1">
<g id="surface1">
<path style=" stroke:none;fill-rule:nonzero;fill:rgb(0%,0%,0%);fill-opacity:1;" d="M 518.824219 84.078125 C 523.097656 38.019531 474.835938 -13.527344 423.972656 4.003906 C 395.589844 13.789063 366.8125 40.085938 376.152344 77.171875 C 383.964844 97.160156 405.773438 108.429688 425.21875 112.425781 C 407.738281 120.230469 348.4375 130.871094 329.082031 145.863281 C 336.714844 127.511719 346.347656 109.519531 363.066406 95.523438 C 363.066406 95.523438 336.898438 97.707031 324.539063 98.070313 C 313.089844 105.519531 301.640625 122.238281 296.914063 130.234375 C 280.589844 93.335938 239.394531 33.820313 187.75 57.5 C 172.921875 64.300781 156.050781 66.1875 140.039063 70.105469 C 114.550781 76.34375 85.308594 98.800781 80.472656 122.964844 C 49.242188 141.433594 49.089844 178.195313 61.082031 199.863281 C 70.820313 217.453125 91.058594 230.777344 102.101563 247.269531 C 99.375 251.996094 96.285156 256.539063 94.832031 261.628906 C 86.472656 247.816406 73.933594 228.1875 55.578125 225.644531 C 44.308594 223.28125 33.769531 226.554688 25.410156 232.914063 C -3.628906 255.027344 -11.597656 301.039063 27.292969 325.21875 C 43.671875 335.402344 82.160156 350.105469 112.460938 325.050781 C 112.460938 325.050781 121.746094 356.140625 131.96875 373.15625 C 161.761719 422.738281 218.890625 451.617188 276.015625 450.808594 C 301.097656 460.804688 328.902344 469.527344 353.980469 453.351563 C 363.792969 452.261719 373.605469 450.992188 381.964844 446.8125 C 402.503906 428.09375 430.214844 423.914063 451.386719 405.558594 C 486.28125 372.847656 513.175781 336.863281 513.539063 289.796875 C 513.175781 247.996094 487.371094 212.015625 452.113281 189.117188 C 445.390625 174.941406 437.757813 159.675781 423.21875 150.40625 C 467.316406 140.925781 514.132813 134.65625 518.824219 84.078125 Z M 15.050781 298.335938 C 5.78125 285.070313 9.601563 264.171875 17.050781 251.269531 C 23.773438 242.183594 32.679688 232.550781 44.492188 232.914063 C 66.90625 235.484375 76.175781 247.484375 72.660156 264.351563 C 70.480469 267.625 66.84375 270.351563 64.117188 273.4375 C 64.808594 259.308594 56.941406 249.058594 46.929688 246.515625 C 37.78125 244.191406 30.191406 249.429688 26.136719 262.355469 C 21.039063 288.179688 48.984375 323.214844 110.460938 302.152344 C 112.277344 303.242188 112.277344 306.152344 113.1875 308.148438 C 88.308594 337.371094 35.992188 330.054688 15.050781 298.335938 Z M 133.363281 150.503906 C 128.257813 133.507813 110.496094 132.1875 93.558594 141.867188 C 81.746094 152.589844 77.75 168.21875 81.746094 183.847656 C 89.925781 200.566406 106.460938 214.742188 121.726563 225.644531 C 121.726563 225.644531 117.640625 232.640625 113.730469 237.457031 C 100.464844 214.558594 65.390625 207.289063 66.664063 176.578125 C 65.753906 158.039063 71.933594 138.050781 90.289063 129.507813 C 102.101563 96.433594 135.539063 80.441406 168.796875 79.167969 C 196.8125 63.9375 239.035156 61.265625 264.203125 99.339844 C 268.929688 106.066406 270.929688 114.0625 273.472656 121.695313 C 252.574219 92.253906 220.953125 69.902344 185.152344 78.441406 L 183.878906 79.714844 C 203.894531 87.835938 218.457031 101.367188 209.671875 127.625 C 203.632813 145.671875 168.925781 151.171875 161.75 138.570313 C 151.4375 120.457031 159.480469 102.777344 165.523438 103.339844 C 165.523438 103.339844 169.160156 125.511719 179.15625 132.054688 C 184.425781 133.324219 188.96875 129.144531 192.964844 125.511719 C 202.257813 116.222656 190.226563 96.148438 170.441406 89.675781 C 148.421875 82.476563 120.144531 100.199219 105.371094 122.238281 C 106.394531 124.136719 107.851563 124.421875 109.480469 124.25 C 123.171875 122.800781 140.757813 132.699219 144.625 149.863281 C 146.714844 180.394531 127.398438 192.601563 111.914063 181.847656 C 130.769531 178.480469 137.132813 163.050781 133.363281 150.503906 Z M 281.285156 149.863281 C 279.46875 158.949219 276.925781 169.488281 276.015625 179.847656 C 253.664063 168.035156 225.859375 167.128906 198.78125 168.035156 C 220.109375 146.707031 253.777344 137.511719 281.285156 149.863281 Z M 162.253906 204.746094 C 198.613281 175.796875 251.105469 185.292969 268.929688 194.203125 C 222.296875 201.308594 200.289063 225.769531 190.042969 241.746094 C 160.644531 287.5625 155.050781 357.34375 180.609375 405.558594 C 112.128906 364.882813 108.007813 258.992188 162.253906 204.746094 Z M 191.695313 399.742188 C 170.4375 370.351563 175.996094 311.523438 186.964844 278.921875 C 196.019531 252.007813 214.0625 226.277344 242.03125 217.828125 C 254.9375 213.832031 265.476563 209.835938 279.289063 208.015625 C 279.289063 208.015625 218.503906 273.097656 260.933594 389.203125 L 278.015625 436.996094 C 278.015625 436.996094 221.996094 448.738281 191.695313 399.742188 Z M 314.726563 442.269531 C 274.917969 433.277344 266.175781 351.800781 264.84375 325.300781 C 263.363281 295.796875 267.414063 266.527344 278.742188 239.457031 C 284.832031 224.464844 297.28125 214.195313 312.726563 212.015625 C 339.257813 212.921875 345.710938 241.726563 350.710938 261.628906 C 360.710938 304.488281 368.914063 355.214844 358.101563 399.40625 C 351.441406 426.625 335.589844 446.03125 314.726563 442.269531 Z M 350.710938 439.542969 C 393.636719 380.457031 375.378906 293.246094 360.730469 251.550781 C 354.695313 234.371094 346.234375 218.289063 336.171875 202.746094 C 374.152344 200.382813 408.863281 226.1875 425.945313 259.628906 C 453.386719 301.609375 440.664063 361.578125 414.132813 399.742188 C 397.414063 421.367188 375.425781 435.363281 350.710938 439.542969 Z M 492.640625 320.507813 C 482.464844 351.402344 460.292969 381.933594 431.035156 400.289063 C 449.753906 370.300781 465.925781 359.394531 455.386719 298.882813 C 437.234375 206.539063 376.152344 190.933594 376.152344 190.933594 C 398.140625 187.84375 423.765625 194.75 443.574219 206.019531 C 490.476563 238.53125 507.644531 270.730469 492.640625 320.507813 Z M 427.21875 167.492188 C 429.761719 172.941406 435.214844 177.304688 435.03125 183.847656 C 380.144531 169.433594 329.628906 190.390625 329.628906 190.390625 C 331.445313 173.304688 345.800781 158.402344 361.792969 153.679688 C 384.511719 146.410156 410.132813 151.496094 427.21875 167.492188 Z M 414.679688 133.507813 C 438.484375 118.058594 478.285156 119.332031 484.824219 84.4375 C 489.375 45.761719 447.804688 16.019531 419.949219 35.917969 C 412.316406 41.734375 411.042969 50.09375 407.589844 57.542969 C 404.332031 74.246094 423.40625 81.398438 429.214844 67.355469 L 435.757813 51.726563 C 449.273438 63.796875 452.957031 72.84375 445.050781 84.734375 C 433.957031 101.421875 401.527344 94.949219 391.359375 74.199219 C 380.183594 51.386719 413.648438 3.96875 462.902344 21.902344 C 493.789063 33.152344 512.660156 70.269531 502.714844 98.546875 C 491.160156 131.394531 449.277344 136.425781 414.679688 133.507813 "/>
</g>
</svg>
