<?xml version="1.0" encoding="UTF-8"?>
<svg xmlns="http://www.w3.org/2000/svg" xmlns:xlink="http://www.w3.org/1999/xlink" width="532pt" height="381pt" viewBox="0 0 532 381" version="1.1">
<g id="surface1">
<path style=" stroke:none;fill-rule:nonzero;fill:rgb(0%,0%,0%);fill-opacity:1;" d="M 370.898438 186.15625 C 378.230469 166.605469 467.746094 133.574219 531.648438 117.328125 C 514.058594 102.644531 494.023438 89.03125 475.515625 74.351563 C 431.371094 81.84375 365.851563 131.09375 365.851563 131.09375 C 371.511719 94.691406 364.933594 59.515625 363.097656 24.183594 C 339.699219 15.617188 315.53125 8.734375 292.128906 0.015625 C 295.800781 11.640625 308.347656 44.5625 309.992188 50.15625 C 320.484375 85.839844 319.816406 129.308594 313.085938 134.917969 C 308.800781 115.035156 308.496094 93.46875 302.53125 74.351563 C 282.953125 68.996094 262.457031 62.574219 243.1875 58.902344 C 249.332031 78.390625 257.316406 98.265625 262.390625 118.65625 C 273.714844 164.144531 267.042969 241.84375 200.667969 289.089844 C 164.710938 309.8125 103.839844 317.242188 80.753906 270.429688 C 75.148438 252.890625 81.730469 237.121094 85.335938 220.648438 C 87.136719 212.410156 88.417969 205.585938 86.367188 199.355469 C 82.765625 188.421875 97.167969 186.375 103.746094 195 C 107.0625 199.351563 109.144531 205.542969 112.109375 209.253906 C 112.109375 209.253906 146.570313 193.34375 154.996094 224.96875 C 156.320313 229.941406 157.839844 247.796875 157.839844 247.796875 C 176.378906 209.839844 148.484375 175.988281 120.828125 196.558594 C 111.648438 174.527344 94.71875 162.660156 66.378906 179.578125 C 65.179688 163.523438 74.628906 148.273438 90.054688 150.6875 C 94.492188 151.382813 99.074219 152.800781 103.238281 152.507813 C 105.839844 148.988281 105.074219 144.09375 105.992188 139.8125 C 113.945313 117.328125 159.371094 117.789063 159.371094 117.789063 C 132.3125 103.804688 93.199219 111.585938 92.226563 139.8125 C 66.027344 140.882813 55.324219 153.828125 47.71875 179.578125 L 40.988281 181.722656 C 34.105469 175.601563 29.058594 168.871094 25.691406 161.378906 C 17.660156 149.050781 39.21875 131.484375 68.519531 131.09375 C 63.929688 121 58.269531 110.597656 59.800781 98.515625 C 67.394531 76.964844 105.992188 80.46875 105.992188 80.46875 C 87.5 70.796875 75.921875 69.421875 65.023438 76.28125 C 52.847656 83.945313 50.882813 102.40625 51.046875 107.109375 C 51.1875 111.046875 51.164063 114.871094 48.789063 117.328125 C 14.105469 135.363281 2.894531 162.109375 22.941406 182.789063 C 3.109375 205.53125 -25.148438 296.851563 43.28125 347.976563 C 119.640625 398.984375 182.660156 383.308594 235.996094 347.519531 L 336.179688 269.820313 C 361.324219 252.640625 388.519531 239.191406 417.269531 230.652344 C 465.164063 216.425781 518.953125 220.265625 518.953125 220.265625 C 507.484375 202.523438 497.847656 183.863281 486.988281 165.8125 C 458.386719 169.789063 412.308594 171.394531 370.898438 186.15625 Z M 25.082031 312.796875 C -0.4375 268.683594 14.5 209.03125 37.035156 192.390625 C 56.699219 177.867188 76.550781 187.886719 71.042969 217.601563 C 65.808594 245.828125 58.027344 276.507813 90.542969 304.996094 C 130.421875 333.539063 166.917969 317.589844 185.828125 312.1875 C 185.828125 312.1875 172.828125 332.988281 166.101563 342.46875 C 166.101563 342.46875 201.738281 346.449219 219.480469 349.046875 C 142.195313 391.277344 56.519531 360.601563 25.082031 312.796875 "/>
</g>
</svg>
