<?xml version="1.0" encoding="UTF-8"?>
<svg xmlns="http://www.w3.org/2000/svg" xmlns:xlink="http://www.w3.org/1999/xlink" width="483pt" height="568pt" viewBox="0 0 483 568" version="1.1">
<g id="surface1">
<path style=" stroke:none;fill-rule:nonzero;fill:rgb(0%,0%,0%);fill-opacity:1;" d="M 471.875 260.75 C 463.625 251 479.875 243 482.125 232.5 L 470.625 234.25 C 469.125 232.25 470.625 229.5 471.875 227.75 C 471.875 227.75 475.625 191.25 474.125 187 C 469.5 193 466.125 202.25 459.125 204.25 C 460.125 201.75 472 156 454.875 144.25 C 454 149 452.875 153.5 448.125 155 C 453.125 134.25 440 91 422.625 82.25 C 422.625 82.25 428.375 102.25 420.125 106.5 L 417.125 95 C 415.625 94.75 405.21875 97.628906 405.875 88 C 406.25 82.5 408.125 61 394.375 58.5 C 394.375 58.5 390.625 73.5 389.125 74.75 C 386.875 70.5 375.625 42.5 368.125 37.5 C 363.75 33.75 362.625 38 362.625 41.25 C 362.625 41.25 338.625 19.25 330.875 26.25 L 333.125 31 C 330.625 28 299.25 7 297.125 11.25 C 297.625 14.75 304.125 15 300.875 19.5 C 297.625 19.25 277.875 6.75 269.625 5.75 C 266.875 8.25 273.625 11.25 272.125 13.5 C 270.875 12.75 223.125 -1.75 220.375 0.5 C 221.625 3.75 225.625 9 224.625 12.25 C 220.375 11 200.625 8.5 197.125 6.75 C 191.625 6.75 200.125 16.75 195.875 17.75 C 183.875 13 147.125 15.25 142.375 15.25 C 141.625 22.5 160.375 26.5 164.125 30.25 C 143 34 131 19 105.625 32.5 C 105.125 36.25 118.375 40.25 120.875 42.25 C 117.375 45.75 82.875 51.5 80.875 56.25 C 81.375 59.25 97.375 60.75 99.125 60.25 C 93.375 65 52.125 80.5 39.125 88.5 C 39.125 88.5 70 84.5 74.625 92.75 C 63 94.5 31.625 127.75 17.125 132.25 C 15.125 135.25 10.375 134 14.625 138.25 C 14.625 138.25 38.125 138.5 40.375 139.5 C 41.125 141.25 17.375 165 10.375 177.25 C 8.125 181.25 21.875 179.5 25.375 184 C 22.875 195.75 9.125 208.5 8.125 216.25 C 2.875 222 -1.125 239 1.375 241.5 C 4.875 242.25 15.125 230.5 20.625 232.5 C 20.625 232.5 20.125 237.75 20.625 239.75 C 11.125 252.25 9.5 259.5 6.125 273.25 C 0 288.5 14.625 302.75 14.625 302.75 C 18.5 292 20.875 290.5 27.125 288.25 C 27.125 293.75 18 317 18.375 331.5 C 15.5 343.5 20.375 357.25 21.875 361.5 C 27.125 363 25.875 354 29.625 353.75 C 29.625 353.75 33 373.5 38.625 378.25 C 42.375 387.75 54.125 410.75 57.875 409.5 C 59.375 400 52.375 389 55.375 379.5 C 58.375 380 59.875 379 61.375 377.25 C 60.5 402 87.625 425.25 86.125 439.5 C 86.125 439.5 101.875 441 105.125 435.25 C 114.375 447.25 120.125 458.25 132.875 466.5 C 133.527344 467.585938 141.324219 459.257813 140.925781 454.421875 C 149.058594 473.359375 164.757813 493.132813 187.125 497 C 189.125 496 180.875 483.25 182.125 478.5 C 183.875 481 213.625 501.75 221.625 497.25 C 217 493.5 222.125 484.25 222.125 484.25 C 229.125 494.75 261.875 489.25 261.875 489.25 C 268.625 489 285.625 476.25 286.375 475.5 C 287.625 474.25 287.125 471 284.625 471.25 C 267.875 481.5 244.375 488 226.375 477.25 C 219.625 472.5 222.464844 465.75 221.964844 460 C 223.839844 415 199.4375 399.5 196.1875 364.25 C 191.4375 355 205.625 334 194.625 327.25 C 191.375 325.25 187.625 326.25 183.125 326.75 C 180.375 326.25 179.625 323.5 178.375 321.25 C 181.375 319.25 185.625 322 186.125 317.75 C 179.875 317.25 174.875 317 170.625 312.25 C 172.375 312 182.875 315 182.125 311.25 C 175.875 307.5 168.375 303.75 161.625 301.5 C 147.375 293 170.375 299.5 166.375 289.5 C 164.375 288.75 161.125 289.25 160.375 286.5 C 160.875 284.25 163.375 284.25 165.125 284.25 C 164.125 278.25 146.625 280 144.125 275.75 C 147.625 272.75 149.875 276.5 153.125 275.25 C 150.125 271.75 144.625 267.75 144.875 263.25 C 148.625 260.75 149.375 269.25 154.375 268 C 154.875 262.75 141.125 241 144.125 234.25 L 149.625 237.25 C 151.375 231 145.625 220.75 148.375 212.75 C 150.625 206.75 152.375 198.75 156.875 195.25 C 155.875 198 158 198.5 159.125 200.75 C 160.75 202.5 167.25 206.5 168.875 203.75 C 169.625 193 170.875 182.5 176.625 173.75 C 177.125 174.25 184.125 174.5 184.375 176.25 C 189.875 173 192.875 166.5 197.125 161.75 C 196.875 163.75 194.875 167.25 196.375 170.25 C 203.375 173.5 210.875 160.5 210.875 160.5 C 210.625 161 209.875 168.75 212.625 170.25 C 221.625 161.5 226.875 150.25 237.875 143.75 C 242.25 141.5 252 139 253.375 143.75 C 252.875 148 242.125 149.25 247.375 155.75 C 257.625 159.5 263.375 147 273.125 148 C 270.625 151.5 267.125 152.25 265.375 155.75 C 270.125 159.75 275.875 156 280.375 154.5 C 283.875 158.75 291.125 158.75 296.125 159.25 C 296.125 162.25 291.375 162.75 294.875 165.25 C 310.375 160.75 322.875 171.75 331.375 182.75 C 328.625 182.75 325.375 178 321.875 179.75 L 322.375 183.25 C 318.625 183 314.125 179.25 309.875 180.25 C 313.375 189.75 324.125 191.25 330.125 199.5 C 332.625 206.75 345.875 203 342.875 212.75 C 340.625 211.25 336.625 209.75 333.875 210.25 C 336.375 215.5 344.875 218.5 345.125 224.25 L 336.875 223.5 C 336.875 225.75 340.875 228.75 336.875 230.25 C 346.375 233.25 335.375 244.75 344.125 247 C 344.625 250 344.875 259 348.875 257.75 C 349.875 251.75 356.375 250 361.375 247 C 366.875 245.75 373.25 249.25 378.125 252.25 C 384.875 258.25 389.125 265.75 391.375 274.5 C 394.125 296.25 405.875 314.25 418.375 332.75 C 418.375 332.75 427.625 350.75 434.125 361 C 438.375 375.25 430.375 385.75 420.125 394 C 410.375 399.25 398.875 406.25 386.125 404.25 C 389.375 411.25 415.5 424 435.125 414.25 C 436.375 411.5 431.5 409.5 427.875 404.5 C 454 397 465.875 360.25 465.875 360.25 C 462.875 357.75 452.375 359.75 450.125 361 C 450.125 361 486 332 478.125 306 C 472.625 309.75 469 317 459.625 314.75 C 459.625 314.75 470 303 460.375 291.25 C 463.375 279.25 474.125 270.75 479.625 260.75 C 476.875 257.75 475.125 261 471.875 260.75 Z M 35.625 260.25 C 33.375 261.5 25.875 258.5 25.875 256.25 C 28.125 256 29.5 253.5 32.375 252.75 C 36.375 254 36.5 259 35.625 260.25 Z M 42.125 258.25 C 41.5 250 34.5 243.5 23.625 251.75 C 19.75 256 18.375 263.25 22.375 269.25 C 26.375 273.5 35.375 272.75 33.875 275.75 C 31.625 275.75 8.75 275.875 18.875 251.625 C 24.125 243.375 50 239.5 42.125 258.25 Z M 115.625 418.75 C 113 416.5 111.5 418 116.875 409 C 122.5 403 133 403.5 137.875 410.5 C 133.625 410.5 126.84375 404.71875 121.59375 410.21875 C 117.09375 412.96875 116.625 414 115.625 418.75 Z M 123.875 419.75 C 124.375 417 124.316406 414.828125 127.875 414.25 C 132.5 413.5 132.125 416.75 132.875 417.25 C 131.125 422.5 126.625 420.5 123.875 419.75 Z M 131.375 432.375 C 142 428 143.375 422.25 140.625 416.25 C 144.125 417 144.84375 421.75 145.59375 424 C 143.84375 430 140 433.5 131.375 432.375 Z M 165.125 442 C 162.625 439.25 155.875 438.25 157.375 433.5 C 157.625 430.75 158.875 426.5 161.125 426.25 C 165.625 425.75 168.625 429.25 171.875 431.75 C 170.125 435.5 168.125 438.75 165.125 442 Z M 205.375 456.25 C 201.625 455 194.375 448 188.125 445.5 C 186.125 446.75 186.125 448.5 186.125 450.25 C 183.125 445.5 176.625 442 176.625 436 C 177.625 437 179.375 436.25 180.875 436.5 L 183.125 433 C 183.875 435.25 186.375 440.75 189.875 439.5 C 192.625 438.5 196.125 437.5 197.625 434.25 L 204.125 441.25 C 202.375 442 197.125 438.5 196.375 443.25 Z M 202.375 409 C 198.125 411.25 192.125 412.5 187.375 410.25 C 185.375 410.25 179.875 411 182.625 414.25 C 182.625 414.25 175.875 414.5 172.375 409.5 C 173.375 404.25 183.125 403.75 179.125 397 C 175.625 393.75 162.125 394 159.875 392.25 L 157.375 384.25 C 162.125 386.75 167.125 388 173.125 386.25 L 177.875 380.75 L 188.625 391 C 187.875 391 182.625 390.25 183.875 394 C 189.875 398.5 200.875 399.5 202.375 409 Z M 242.816406 131.554688 C 239.140625 136.699219 231.300781 141.847656 224.683594 142.089844 C 217.703125 141.109375 211.484375 137.925781 208.546875 129.839844 C 206.710938 125.921875 209.617188 108.769531 221.746094 106.320313 C 229.339844 105.339844 238.40625 106.566406 242.324219 113.914063 C 245.265625 120.039063 245.386719 127.144531 242.816406 131.554688 Z M 328.375 152.25 C 329.125 152 328.5 149 332.625 148.5 C 337.125 150.5 336.5 154 332.625 155.75 C 330.625 156.5 328 154.5 328.375 152.25 Z M 336.875 173.75 C 334.625 172.5 331.375 174 329.625 171.25 C 334.375 171.75 340.125 169.25 342.875 164.25 C 345.125 155.75 342.875 148.75 337.625 143.25 C 333.375 139.75 325.375 141.75 322.125 144.5 C 318.125 147.75 319.125 155.5 319.375 159.25 C 307 146 323.875 137.53125 330.125 137.53125 C 338.625 137.78125 346.1875 145.5 347.8125 154 C 348.8125 160.75 346.125 171.75 336.875 173.75 Z M 421.625 324 C 423.375 321.5 422.625 319.25 426.875 319.5 C 424.375 324.25 425.5 329.5 428.125 335 C 422.5 332.5 422 328.5 421.625 324 Z M 427.375 289.5 C 428.375 284 431.125 274.5 425.125 272.75 C 421.125 274.5 422.625 280.75 421.375 284.75 C 419.625 289 417.125 297.5 411.875 296.25 C 412.375 290 415.625 282.5 416.125 276.25 C 414.375 276 413.125 274.75 411.125 275.25 C 412.625 272.75 411.625 269.5 408.875 268.5 L 402.875 272.75 C 403.125 269.25 391.070313 243.851563 389.125 244.5 C 388.375 241.75 390.625 237.75 387.125 236.25 L 380.125 236.75 C 381.125 232.25 385.375 231 388.375 227.25 C 388.375 227.25 371.375 216 369.875 215.75 C 368.125 205.5 368.875 195 364.375 185.25 C 363.125 176.25 370.625 165.75 367.375 157 C 365.375 154.5 364.125 151.25 360.125 151.5 C 361 137 351.875 142.5 351.875 142.5 C 350.375 139.75 350.125 135.75 347.125 134.25 C 339.875 137.5 339.375 125.75 333.875 124 C 332.375 119.5 334.625 117.75 329.875 115.25 C 325.125 117.5 326.625 119.25 326.125 123.25 C 318.125 122.75 322.125 130 319.375 134.25 C 310.875 129 289.375 111.5 292.375 105.25 C 295.125 109 297.375 103.75 300.125 104.25 C 303.625 106.25 305.875 111 311.125 108.25 C 306.125 103.25 300.375 97.5 294.125 94 C 288.875 86.75 273.75 90 256.125 77.25 C 254.5 83.5 266.125 87.25 266.125 87.25 C 262.875 92.5 256.875 89.75 252.875 92.25 C 244.375 90.75 239.875 106 231.125 98.75 C 228.125 89 213.75 93.25 197.625 86.75 C 196.625 90 201.625 92 203.625 92.75 C 191.375 93.25 180.375 90 168.875 88.5 C 171.125 94 178.125 93 182.625 95.25 C 186.625 99.5 196.375 100.5 198.125 109 C 185 103.75 174.75 115.5 159.875 109 C 164.375 116.5 153.125 114 149.625 116.25 C 154.375 120.75 163.125 123.75 170.625 125.75 C 160.375 130.5 134.625 135.25 134.625 135.25 C 138.875 142.25 147.375 136.75 155.125 140.25 C 155.875 140.25 141.875 144.5 152.125 145.5 C 157.875 147.75 164.375 141.25 171.875 144.25 C 166.875 148.5 164.375 155.75 158.125 158.75 C 150.125 156 147.375 165 140.625 168.25 C 131.375 172.5 122.375 177.5 113.625 180.25 C 113.125 182.75 126.625 180.25 131.125 178.5 C 132.875 180.75 122.625 183.25 129.125 187 C 132.375 185.5 136.375 184 138.125 180.25 C 135.375 196.75 122.875 213.5 114.875 227.25 C 116.875 231 123.875 239.75 123.875 239.75 L 125.625 283 C 126.125 286.25 130.125 290 132.875 290.25 L 135.992188 300.96875 L 145.585938 309.925781 C 147.054688 321.46875 140.289063 346.5 146.625 346.5 C 151.125 341.25 147.375 331 153.875 328 C 153.632813 327.519531 159.867188 358.230469 165.875 355.5 C 167.875 348 167.375 345.75 170.125 338.75 C 172.875 339.75 187.875 353.5 183.875 362.25 C 179.125 368.5 170.875 352 171.125 363.25 C 178.375 368.25 186.125 374.5 189.125 382.5 C 185.125 379.5 156.875 367.25 154.375 370.5 C 154.625 374 153.125 377.75 156.125 380.25 C 156.125 380.25 149.125 379 146.125 382 L 150.125 394 C 143.125 397.75 110.875 392 105.125 383.25 C 113.375 376 121.625 383.75 131.125 383.75 C 127.875 376.5 116.625 372 111.125 365.25 C 114.375 364.75 117.375 369 120.125 365.75 C 115.125 357.75 90.125 347.5 84.875 352 C 79.875 346 75.875 340 71.125 335.25 C 69.875 335.25 68.125 338.75 68.125 338.75 C 64.875 338.5 64.375 333.25 62.125 331.5 C 63.875 331.25 65.625 332.5 67.375 330.25 L 59.625 314.25 C 65.375 317.25 69.875 323.75 76.375 325.5 C 78.125 314.75 74.625 303.25 68.125 294.25 C 69.625 293.25 71.875 294.25 72.875 292 C 62.875 283.25 60.875 270 57.875 257.75 C 56.375 253.5 50.625 257.25 50.625 257.25 C 46.125 252.5 53.125 220.75 54.125 212.75 C 52.875 210.75 47.125 214 47.125 214 C 43.875 209.5 50.125 182.75 43.375 182.25 C 45.125 178.25 45.875 174 48.875 170.75 C 57.625 173.5 52.875 184 58.375 189.25 C 64.125 182 62.375 172.25 64.375 163.5 C 66.625 154 71.625 145.75 75.875 137.25 C 77.125 141.25 80.125 142.25 84.125 143.25 C 90.125 132.25 88.5 104.5 102.125 99.25 C 100.375 106 90.875 118.75 98.625 125.75 C 104.457031 117.003906 110.992188 93.164063 120.488281 92.144531 C 120.488281 92.144531 132.179688 84.363281 132.875 83.25 C 134.625 84.5 138.625 90 141.125 86.25 C 147.375 82.25 152.125 75 152.125 68.25 C 158.875 62.5 166.125 60.25 174.875 57.25 C 180.875 65.25 167.625 69.5 171.125 77.25 C 171.125 77.25 191.625 58.25 197.625 48.25 C 200.375 46 202.875 43 206.625 43 C 207.875 46.75 208.875 51.75 212.625 51.25 C 225 34.5 251.625 31.5 251.625 31.5 C 255.125 37.25 239.875 34.75 247.375 41.75 L 270.125 35.75 C 271.375 38.75 269.875 42.25 274.375 42.25 C 281.875 36.25 291.125 49.25 294.125 40.5 C 298.375 40.75 303.375 39.25 305.625 44.25 C 304.875 47.75 297.625 46.25 300.875 51.25 C 300.875 51.25 329.25 49.25 336.875 58 C 336.125 58.25 329.125 58.75 328.625 59.75 C 329.125 63.75 339.625 62 341.125 64.5 C 340.125 64.75 337.875 67.5 337.125 68.25 C 338.625 72.75 345.375 75 343.375 79 C 340.375 78.75 336.625 76.75 334.375 78.25 C 343 86 344.875 91 351.125 92.25 L 351.125 87.25 C 361.375 83.25 366.125 97.75 369.875 106 C 371.625 110.25 375.125 99.25 374.125 96.25 C 377.625 98.5 382.375 105.5 386.625 102.25 L 398.875 115.75 C 405.5 106 410.625 121.25 411.875 126.25 C 406.375 121.5 399.875 123.5 394.375 127 C 388.625 129.5 390.875 137.75 392.625 142 C 397.125 150.25 406.375 146.25 412.375 145.5 C 413.625 148.5 412.875 152.25 413.125 155.75 L 407.625 155.75 C 409.125 163.75 406.375 175.25 414.125 181 C 416.125 181.25 419.125 174.25 419.125 174.25 C 426.125 179.5 433.375 197.75 433.375 197.75 C 432.125 197 423.875 193.75 421.375 193 C 419.625 196.75 419.875 201.25 419.125 205.5 C 414.625 203.5 405.875 204.25 405.875 204.25 C 409.125 210.5 420.875 208.5 419.625 218.25 C 419.625 218.25 431 232.5 431.125 247 C 432.375 245.75 434.625 232.75 435.125 224.25 C 446.125 231.25 447.875 244 447.875 255.25 C 445.375 255.75 444.125 252.25 441.125 253.5 C 446 272.5 435.875 272.25 435.875 272.25 C 432.625 276.25 436.625 291.25 427.375 289.5 Z M 403.375 136 C 402.375 136.25 398.375 136 397.375 135.25 C 397.875 132.25 404.625 127.25 404.625 133.5 C 406.125 134.25 403.875 135.25 403.375 136 Z M 431.125 315.25 C 432.625 313.25 433.375 311 436.375 311.25 C 440.125 311.75 444.625 313 446.125 316.5 C 440.875 314.75 437.625 312.75 431.125 315.25 Z M 440.625 326.25 L 437.625 328.5 C 436.25 327.5 433.625 323.75 437.125 321.25 C 438.625 322.25 443.375 323 440.625 326.25 Z M 442.375 339.25 C 447.75 333.5 450 329 452.625 329.75 C 453.125 334.5 447 339.5 442.375 339.25 "/>
<path style=" stroke:none;fill-rule:nonzero;fill:rgb(0%,0%,0%);fill-opacity:1;" d="M 111.796875 313.867188 C 111.988281 318.539063 117.25 325.25 126.875 323.75 C 131.539063 323.140625 137.5 316.5 134.820313 308.355469 C 132.148438 300.230469 127 296.5 119.625 298.5 C 114 300.5 111.5 306.75 111.796875 313.867188 Z M 123.625 305 C 124.625 302.5 127.34375 304.5 128.34375 305.75 C 129 311.5 126.125 311.25 123.625 311.75 C 119.625 310 122.625 307.5 123.625 305 "/>
<path style=" stroke:none;fill-rule:nonzero;fill:rgb(0%,0%,0%);fill-opacity:1;" d="M 232.375 50.75 C 227.125 53 222.875 59.75 222.875 65.25 C 224.125 70.5 229.125 75.25 233.625 77.25 C 239.125 79.5 245.5 78.75 248.625 74.75 C 251.25 71 253.25 66.25 250.375 59.25 C 246.875 53.5 239.5 48.5 232.375 50.75 Z M 236.375 66.75 L 233.375 58 C 237.5 55.5 240.375 57 241.375 60.25 C 243.5 64 242 67.5 236.375 66.75 "/>
<path style=" stroke:none;fill-rule:nonzero;fill:rgb(0%,0%,0%);fill-opacity:1;" d="M 317.625 85 C 314.625 89.25 312.125 94.5 314.125 100 C 317.625 103.5 318.375 109.25 324.875 109.5 C 331.625 111 338.625 107.25 342.125 101.75 C 344.375 96.25 341.375 91.25 338.125 87.25 C 333.125 80.5 324.375 79.75 317.625 85 Z M 332.125 98 C 331.125 98.25 327.625 96.5 326.625 97 C 326.875 93.75 326.125 90.25 327.125 87.25 C 329.125 86.25 330.875 89 332.625 89.75 C 334.5 93 336.375 97.75 332.125 98 "/>
<path style=" stroke:none;fill-rule:nonzero;fill:rgb(0%,0%,0%);fill-opacity:1;" d="M 222.875 109.5 C 217.375 110.75 214.375 115.5 212.625 120.25 C 210.875 126.75 213.125 132 216.875 136 C 223.375 140 231.75 138.75 235.375 134.75 C 238.125 131 241.375 127.25 240.125 121 C 237.5 111.5 230.75 109 222.875 109.5 Z M 225.125 124.5 C 221.875 126.25 222.875 121.75 221.125 120.25 C 221.625 116.5 224.875 117 227.625 117.25 C 229.125 120.25 227.625 123.25 225.125 124.5 "/>
<path style=" stroke:none;fill-rule:nonzero;fill:rgb(0%,0%,0%);fill-opacity:1;" d="M 404.125 212.75 C 402.875 206.5 399.125 201.25 398.625 194.75 C 403.375 190.75 402.375 183 405.875 178.5 C 404.375 174.25 399.875 174.5 396.875 175.5 C 392.375 169.75 402.625 166 399.125 162.25 C 393.625 157.5 393.125 149.5 390.125 143.25 C 381.875 137 382.875 120.25 368.125 122.25 L 368.125 125.25 C 377.625 130.5 383.625 145.5 386.625 155.75 C 383.625 155.5 382.875 153.5 380.125 155.25 L 384.125 166.5 C 382.875 167.75 380.625 168 378.875 167.25 L 382.375 186.25 C 390.375 193.25 385.125 208.25 395.125 211.5 L 396.125 205.5 C 398.125 208.25 399.625 213.25 404.125 212.75 "/>
<path style=" stroke:none;fill-rule:nonzero;fill:rgb(0%,0%,0%);fill-opacity:1;" d="M 95.125 147.25 C 90.125 151.25 87.875 155.75 89.125 162.25 C 89.625 167.75 95.476563 175.394531 101.019531 176.09375 C 104.25 176.5 109.855469 174.300781 112.375 172.5 C 115.375 169.5 120 166 117.875 156.75 C 113 144 101.25 144.75 95.125 147.25 Z M 105.125 160.5 C 103.875 160 102.375 162.75 100.375 162.75 C 99.875 161.75 97 160 98.625 157.5 C 97.375 154.75 100.625 155.5 101.625 154.5 C 106.625 153.75 104.875 158.25 105.125 160.5 "/>
<path style=" stroke:none;fill-rule:nonzero;fill:rgb(0%,0%,0%);fill-opacity:1;" d="M 231.875 473.75 C 243.125 481.25 253.875 477.75 266.125 474.25 C 305.125 456.75 305.125 407.75 307.375 373 C 305.375 371 305.625 366 301.375 367 C 300.375 376.5 296.125 387.75 289.375 394 C 291.125 386 295.625 377.25 297.125 369.25 C 296.125 368 294.625 364.5 291.875 365.75 C 283.125 374 265.375 389.75 265.375 389.75 C 274.625 376.25 284.875 362.5 293.125 349 C 295.375 356.75 300.25 361.25 305.125 365.25 C 309.125 367.75 314.625 370.25 319.375 367.5 C 327.375 360.75 334.0625 362.25 341.8125 366.25 C 356.0625 385.75 376.375 401.5 399.875 398.75 C 412.375 393.5 429.375 386.75 431.125 373 C 433.875 359.25 422.625 347.75 417.125 336.25 C 410.125 323.5 395.625 310.5 392.625 294.25 C 385.875 279.5 388.625 254.75 367.375 251.75 C 351.625 254.5 350.625 270.75 345.875 283 C 342.25 291 330.875 302.25 324.125 312.25 C 321.796875 315.007813 317.78125 321.605469 318.246094 324.695313 C 316.90625 323.371094 313.679688 323.03125 311.625 322.5 C 307.5 321 297.375 322.5 291.875 329.25 C 286.875 334 290.75 335.25 292.375 340 C 292.375 340 282.5 332.25 275.125 331 C 254.375 325 229.125 316.5 210.875 329 C 206.5 332 205 334 202.625 339.25 C 193 366 212.5 402 222.125 419.75 C 231.613281 437.25 220.125 458.25 231.875 473.75 Z M 342.875 356.25 C 340.125 357.5 332.875 357 330.125 358.25 C 333.75 353.75 332.96875 345.410156 331.085938 340.03125 C 336.835938 344.28125 344.125 345.75 350.875 344.25 C 347.375 347.25 338.625 347.75 334.625 350.25 C 335.375 354.25 339.875 355 342.875 356.25 Z M 369.875 259.5 C 376.125 261.25 379.625 267.25 380.625 273.25 C 382.125 298.25 389.375 324.75 408.125 343 C 411.625 349 415.125 353.5 415.375 361 C 414.125 367.75 397.875 377.25 393.875 376.5 C 387.375 375.75 379.625 371.5 375.125 366.25 L 379.375 361.5 L 373.375 354.25 C 376.625 354.5 381.625 354.75 383.125 350.75 C 383.125 350.75 393.625 337.75 396.125 331.5 C 393 329.25 386.75 329.25 381.875 329.25 C 372.539063 329.25 361.375 331.25 351.125 332.75 C 350.125 327.75 354.25 327 358.375 323.25 C 371.125 302.75 371.375 283.75 369.875 259.5 Z M 353.125 280.5 C 354.625 273.5 356.125 264.75 362.625 261.25 C 366.375 269.75 364.660156 282 357.535156 281.25 C 352.035156 291 349 304.5 335.625 313 C 342.875 302 348.625 293.25 353.125 280.5 Z M 329.125 317.75 C 327.625 321 333.125 323 336.125 323.75 C 345.375 314.5 354.875 302.5 359.625 288.25 C 360 301.5 350.625 322 334.875 328 C 331.125 329 326.875 326.25 325.375 323.25 C 324.25 320 326.625 318.5 329.125 317.75 Z M 312.875 340 L 312.875 346.5 C 308.375 347.75 308.125 339.75 306.875 337 C 308.625 331.5 312.625 336.25 312.875 340 Z M 210.125 348.25 C 208.875 343.5 210.75 339.5 213.875 336.25 C 236.625 320.5 258.625 334.75 283.375 338.75 C 288.375 341.75 283.625 346.25 282.875 350.25 C 269.625 358.5 255.125 361.25 240.125 361.5 C 229.375 362.5 215.625 359 210.125 348.25 Z M 214.375 367 C 218.875 362 225.875 366.75 231.875 367 C 254 369 271.375 363.25 271.375 363.25 C 262.375 377 250.625 389.75 252.875 407.75 C 254.875 410.5 259.625 414.25 261.875 410.25 C 266.125 405.25 270.125 400.5 274.375 395.75 C 274.375 408.25 261.875 417.25 264.875 429.25 C 267.125 432.25 270.125 429 271.375 427.5 C 273.125 426.25 273.625 421.25 276.875 424 C 280 424.5 283.75 424.5 280.375 428.75 C 274 438 264.875 452 251.625 447.25 C 242 443 250.625 429.5 246.875 421 C 240.875 398.75 221.625 388 214.375 367 "/>
<path style=" stroke:none;fill-rule:nonzero;fill:rgb(0%,0%,0%);fill-opacity:1;" d="M 281.875 345.5 C 267.5 336.75 232.875 334 226.125 335.25 C 220.875 337.75 218.125 337.25 215.125 341.75 C 212.75 346 217.375 350.5 221.875 352.75 C 239.625 358.5 265.375 361 281.875 345.5 "/>
<path style=" stroke:none;fill-rule:nonzero;fill:rgb(0%,0%,0%);fill-opacity:1;" d="M 383.625 409 C 365.625 401.75 352.875 380 337.375 368.25 C 333.875 364.25 330.625 370.5 327.125 368.25 C 316.875 367.25 324.625 380.5 320.625 386.75 C 320.125 386.25 317.875 370.25 310.375 371.25 C 309.625 374.5 310.875 377.75 312.125 382 C 311.875 398.75 311.375 417 307.375 433 C 300 460.5 291.953125 490.320313 275.625 515.25 C 254.5 547.5 258 562 259.125 567.75 C 272 551 281 548 299.875 533 C 316 522 330.875 520.5 339.125 516.25 C 345.5 514 350 502 346.375 481 C 334.375 457 335.625 425.25 335.125 397.5 C 342.875 411.25 352.375 428 347.625 443.25 C 353.125 446 359.5 448 366.125 447.25 C 402.875 452.25 402.875 486 429.875 507.25 C 432.875 508.5 436.375 510.75 438.875 508.5 C 434.125 497.25 431.625 485.75 426.875 475 C 418.421875 453.070313 414.328125 428.597656 383.625 409 Z M 336.125 508 C 313 509 277 532 265.375 551.25 C 266.875 537 276.316406 524.28125 284.625 512.75 C 307.5 481 310.375 466.5 310.375 466.5 C 313.125 454.5 317.375 441.75 318.125 428.25 C 321.375 432.25 317.5 443 323.625 443.25 C 324.5 437.5 326.625 437 326.625 430.75 C 329.875 445.5 326.375 463.5 333.125 479.75 C 341 493 338.125 506 336.125 508 Z M 416.625 475 C 392 452 397.875 436 371.625 440 C 368.375 441.5 361.875 439 360.125 431.25 C 360.625 412.25 346.375 398.5 342.125 381.25 C 342.125 381.25 396 421 410.125 455.25 C 412.820313 461.785156 417.375 469.75 416.625 475 "/>
<path style=" stroke:none;fill-rule:nonzero;fill:rgb(0%,0%,0%);fill-opacity:1;" d="M 97.375 271 C 100.125 270.25 105.875 277.25 108.125 272.25 C 107.125 270 99.125 258.25 99.125 258.25 C 100.625 257.75 104.125 249.25 104.125 249.25 C 97.125 245.5 93.625 235.25 86.125 235 C 78.875 230.25 79.375 220.5 78.875 213.25 C 82.875 204.75 87.625 186 86.125 186.25 C 82.375 186.75 68 196 68.625 208.5 C 66.375 225.75 73.375 235.25 61.875 249 C 61.125 250.5 77.625 251.25 77.625 251.25 C 75.125 262.25 81.625 272.5 73.125 281.25 C 73.125 281.25 79.125 277.25 84.875 283 L 86.125 318.25 C 86 323 90.875 331.5 98.125 329.25 C 100.375 325.25 98.375 318.5 101.625 314.25 C 107.875 322.5 105 346 121.375 347.75 C 130 337 110.789063 327.921875 108.746094 318.0625 C 104.191406 305.054688 117 300.5 97.375 271 "/>
<path style=" stroke:none;fill-rule:nonzero;fill:rgb(0%,0%,0%);fill-opacity:1;" d="M 104.625 197.75 C 98.5 194.75 105.3125 186.199219 102.257813 181.148438 C 102.257813 181.148438 92.125 198.5 98.125 203.25 C 98.125 207.5 90.125 220.5 90.125 220.5 C 96.375 223.75 98.375 217.75 103.375 214.5 C 106.625 218.5 101.375 222 102.125 226.5 C 107.625 231.75 105.875 238.25 108.875 244.5 C 110.5 246.75 113.125 253 118.375 250 C 112.125 236.75 110.625 221.25 111.125 206.25 C 111.375 202.25 116.125 196.5 111.875 192.25 C 105.375 188.5 110.375 198.5 104.625 197.75 "/>
<path style=" stroke:none;fill-rule:nonzero;fill:rgb(0%,0%,0%);fill-opacity:1;" d="M 124.097656 94.894531 C 119.171875 97.449219 115.625 105.5 117.375 110.5 C 119.25 116.25 123.375 120 128.875 121.25 C 133.875 122.75 136.875 119.25 140.875 117.75 C 147.125 113.25 146 103.75 141.625 97.5 C 137 92 127.75 93 124.097656 94.894531 Z M 130.625 107.5 C 127.125 106.5 127.375 102.25 127.625 99.75 C 134.375 96 134.5 106 130.625 107.5 "/>
<path style=" stroke:none;fill-rule:nonzero;fill:rgb(0%,0%,0%);fill-opacity:1;" d="M 419.625 232 C 414.625 229.25 408.125 226.75 402.125 229.5 C 394.75 234.5 394.816406 243.011719 397.4375 249.519531 C 401.25 259 412.75 259 419.125 256.5 C 424.675781 252.613281 425.488281 245.304688 425.125 244.25 C 425.625 242 421.875 234 419.625 232 Z M 410.5 245.625 C 407.25 247.375 408.25 242.875 406.5 241.375 C 407 237.625 410.25 238.125 413 238.375 C 414.5 241.375 413 244.375 410.5 245.625 "/>
</g>
</svg>
