<?xml version="1.0" encoding="UTF-8"?>
<svg xmlns="http://www.w3.org/2000/svg" xmlns:xlink="http://www.w3.org/1999/xlink" width="503pt" height="464pt" viewBox="0 0 503 464" version="1.1">
<g id="surface1">
<path style=" stroke:none;fill-rule:nonzero;fill:rgb(0%,0%,0%);fill-opacity:1;" d="M 451.753906 298.671875 C 445.511719 299.78125 442.179688 297.59375 449.949219 294.789063 C 471.785156 286.90625 491.109375 299.195313 491.109375 299.195313 L 493.222656 264.449219 C 493.222656 264.449219 487.757813 271.65625 475.492188 273.285156 C 463.230469 274.917969 457.34375 275.6875 469.34375 272.382813 C 481.339844 269.078125 501.96875 256.296875 501.449219 236.851563 C 499.320313 157.125 453.355469 92.878906 394.554688 52.648438 C 277.917969 -27.15625 179.109375 -1.46875 109.925781 36.429688 C 73.898438 56.164063 39.234375 105.351563 27.902344 134.019531 C 7.117188 186.589844 20.929688 246.976563 20.929688 246.976563 L 31.574219 246.734375 C 31.574219 246.734375 37.480469 247.839844 29.261719 250.347656 C 21.039063 252.855469 -5.125 266.714844 2.210938 294.046875 C 9.542969 321.382813 37.835938 321.046875 37.835938 321.046875 L 53.507813 354.617188 C 53.507813 354.617188 62.363281 345.5625 74.363281 343.5625 C 86.363281 341.5625 89.109375 345.863281 79.773438 347.863281 C 63.792969 351.285156 39.089844 365.386719 54.210938 403.980469 C 66.441406 435.195313 120.21875 432.308594 125.871094 396.980469 C 128.535156 380.316406 134.703125 382.253906 132.441406 393.195313 C 128.441406 412.53125 117.382813 422.464844 117.382813 422.464844 C 117.382813 422.464844 169.722656 458.328125 228.390625 462.996094 C 298.503906 468.574219 357.644531 447.253906 357.644531 447.253906 C 357.644531 447.253906 356.230469 444.515625 354.691406 440.433594 C 348.140625 423.089844 357.53125 397.511719 375.085938 388.734375 C 381.753906 385.402344 387.8125 384.769531 379.082031 389.851563 C 363.449219 398.945313 349.140625 426.816406 361.773438 442.53125 C 369.976563 452.730469 388.472656 463.707031 409.089844 454.015625 C 437.773438 440.53125 430.546875 405.824219 430.546875 405.824219 L 453.378906 379.816406 C 453.378906 379.816406 433 379.15625 430.335938 359.824219 C 427.667969 340.488281 433.109375 347.863281 434.441406 357.863281 C 438.152344 385.710938 481.597656 380.539063 495.9375 356.882813 C 514.820313 325.722656 491.960938 291.507813 451.753906 298.671875 Z M 461.757813 266.699219 C 457.15625 266.539063 438.804688 259.882813 432.367188 244.25 C 427.839844 233.253906 433.273438 214.363281 446.269531 206.746094 C 452.675781 202.996094 450.121094 209.988281 446.621094 213.238281 C 441.761719 217.746094 433.71875 228.792969 438.046875 242.445313 C 442.183594 255.484375 455.761719 262.066406 462.699219 264.957031 C 468.699219 267.457031 463.894531 266.773438 461.757813 266.699219 Z M 450.480469 234.109375 C 451.730469 239.859375 456.652344 239 458.019531 247.597656 C 459.386719 256.199219 459.277344 257.671875 453.777344 254.171875 C 448.277344 250.671875 442.800781 245.902344 443.273438 236.613281 C 444.203125 218.410156 450.523438 219.863281 450.523438 219.863281 C 455.273438 226.613281 449.230469 228.359375 450.480469 234.109375 Z M 476.785156 262.953125 C 472.035156 265.703125 471.734375 256.984375 475.734375 255.734375 C 479.734375 254.484375 489.03125 246.535156 488.53125 245.285156 C 488.03125 244.035156 480.382813 244.988281 474.132813 244.925781 C 467.882813 244.863281 466.304688 235.746094 467.773438 233.113281 C 469.246094 230.480469 467.03125 226.234375 464.277344 221.113281 C 461.519531 215.988281 465.699219 215.273438 471.273438 213.863281 C 476.847656 212.453125 475.515625 210.328125 471.765625 209.578125 C 468.015625 208.828125 460.453125 208.925781 460.453125 208.925781 L 455.234375 201.816406 C 455.234375 201.816406 463.523438 201.070313 470.03125 202.777344 C 478.523438 205.003906 488.503906 208.664063 492.566406 229.605469 C 495.816406 246.355469 481.535156 260.203125 476.785156 262.953125 Z M 420.996094 85.820313 C 420.996094 83.820313 422.003906 82.796875 424.234375 85.300781 C 427.660156 89.136719 450.054688 115.652344 452.3125 119.628906 C 454.566406 123.609375 451.871094 131.746094 447.871094 128.410156 C 443.871094 125.078125 444.96875 129.230469 447.96875 132.5625 C 452.328125 137.410156 463.398438 140.828125 463.890625 136.871094 C 464.226563 134.203125 466.949219 138.035156 470.773438 146.863281 C 474.597656 155.691406 485.109375 179.53125 485.441406 183.195313 C 485.773438 186.863281 482.75 189.320313 481.859375 188.816406 C 479.261719 187.34375 479.914063 190.941406 485.871094 194.609375 C 490.203125 197.273438 490.910156 202.625 488.910156 203.292969 C 486.910156 203.960938 482.085938 198.46875 480.085938 196.804688 C 478.085938 195.136719 476.324219 188.492188 470.566406 177.609375 C 464.808594 166.722656 453.367188 143.898438 446.703125 136.230469 C 440.035156 128.5625 417.09375 99.054688 411.609375 94.570313 C 406.128906 90.085938 408.09375 88.558594 413.761719 90.890625 C 419.425781 93.226563 420.996094 87.820313 420.996094 85.820313 Z M 404.828125 165.746094 C 398.828125 160.746094 395.796875 156.980469 392.796875 148.980469 C 389.796875 140.980469 389.761719 135.632813 392.269531 137.089844 C 394.996094 138.671875 420.339844 161.417969 423.355469 165.472656 C 426.367188 169.527344 426.273438 171.863281 421.523438 173.363281 C 416.773438 174.863281 398.773438 179.613281 388.273438 163.113281 C 377.773438 146.613281 383.464844 141.972656 383.988281 141.40625 C 384.515625 140.84375 385.21875 142.210938 387.96875 149.460938 C 390.71875 156.710938 398.347656 165.597656 403.273438 167.363281 C 408.199219 169.128906 410.828125 170.746094 404.828125 165.746094 Z M 420.871094 148.804688 C 420.871094 148.804688 422.953125 145.601563 421.953125 141.101563 C 420.953125 136.601563 412.855469 134.566406 408.640625 133.964844 C 406.066406 133.597656 404.269531 129.894531 409.019531 130.894531 C 413.769531 131.894531 418.660156 133.160156 424.910156 138.410156 C 431.160156 143.660156 432.300781 146.28125 428.050781 137.28125 C 423.800781 128.28125 404.066406 121.617188 398.316406 120.367188 C 392.566406 119.117188 396.972656 115.210938 405.273438 114.863281 C 411.273438 114.613281 436.984375 117.625 441.03125 143.925781 C 442.53125 153.675781 435.269531 164.644531 435.269531 164.644531 Z M 28.8125 150.304688 C 31.914063 133.683594 50.605469 99.832031 59.441406 90.195313 C 63.109375 86.195313 63.773438 92.863281 63.773438 95.53125 C 63.773438 98.195313 65.460938 98.90625 68.125 94.570313 C 70.792969 90.238281 70.539063 84.875 67.871094 84.539063 C 65.207031 84.207031 64.53125 84.449219 68.003906 80.152344 C 71.421875 75.929688 94.773438 53.863281 101.441406 51.195313 C 105.90625 49.410156 111.109375 54.195313 110.441406 57.53125 C 109.773438 60.863281 110.554688 61.628906 114.886719 57.628906 C 119.21875 53.628906 117.21875 49.460938 114.882813 48.792969 C 112.550781 48.128906 106.34375 45.199219 107.996094 44.171875 C 109.648438 43.144531 152.117188 24.363281 160.773438 21.195313 C 169.433594 18.03125 170.109375 20.53125 172.773438 23.863281 C 175.441406 27.195313 175.734375 30.0625 172.734375 33.0625 C 169.734375 36.0625 172.617188 37.210938 176.441406 34.53125 C 180.265625 31.847656 185.9375 30.246094 185.9375 24.910156 C 185.9375 19.578125 179.996094 15.191406 179.996094 15.191406 C 179.996094 15.191406 203.085938 11.511719 216.753906 9.179688 C 230.417969 6.847656 243.09375 9.390625 243.09375 9.390625 C 243.09375 9.390625 250.441406 13.195313 244.441406 20.53125 C 241.085938 24.628906 242.285156 26.433594 245.964844 25.214844 C 249.644531 23.996094 257.101563 20.847656 257.101563 15.847656 C 257.101563 10.847656 252.535156 6.730469 252.535156 6.730469 C 252.535156 6.730469 271.660156 7.773438 288.085938 10.53125 C 304.511719 13.285156 308.898438 18.496094 308.898438 18.496094 C 313.4375 22.277344 309.320313 30.101563 302.984375 31.101563 C 298.320313 31.839844 295.039063 33.691406 309.027344 36.09375 C 315.949219 37.285156 322.023438 29.832031 319.375 24.910156 C 317.042969 20.578125 317.714844 19.726563 323.945313 20.925781 C 330.175781 22.121094 356.28125 35.492188 361.617188 39.492188 C 366.949219 43.492188 357.148438 48.796875 354.226563 48.792969 C 351.300781 48.785156 345.441406 48.863281 353.773438 51.863281 C 365.03125 55.914063 369.617188 50.628906 370.214844 45.585938 C 370.503906 43.109375 370.273438 43.660156 374.035156 45.40625 C 377.796875 47.148438 407.109375 64.863281 411.109375 72.195313 C 416.492188 82.066406 410.976563 88.828125 397.273438 82.601563 C 393.605469 80.933594 379.320313 70.636719 363.035156 61.492188 C 320.621094 37.675781 282.207031 29.394531 233.089844 30.820313 C 184.988281 32.214844 147.171875 43.867188 112.757813 63.453125 C 103.96875 68.460938 104.753906 70.390625 111.753906 69.722656 C 118.753906 69.054688 132.800781 73.460938 136.136719 78.125 C 139.46875 82.792969 141.359375 84.960938 134.027344 80.292969 C 121.460938 72.296875 108.953125 72.691406 91.441406 78.53125 C 77.441406 83.195313 34.550781 149.03125 30.304688 157.140625 C 27.640625 162.230469 27.035156 159.816406 28.8125 150.304688 Z M 343.273438 73.863281 C 337.984375 69.304688 333.335938 68.179688 340.890625 75.464844 C 348.445313 82.746094 345.023438 96.113281 345.023438 96.113281 L 330.523438 87.863281 C 330.523438 87.863281 331.351563 80.117188 327.289063 79.089844 C 323.226563 78.058594 316.804688 83.589844 316.804688 83.589844 L 296.644531 77.863281 C 296.644531 77.863281 313.890625 44.222656 343.523438 65.113281 C 358.773438 75.863281 356.523438 99.863281 356.523438 99.863281 L 350.523438 96.363281 C 350.523438 96.363281 352.621094 81.914063 343.273438 73.863281 Z M 325.847656 114.488281 C 338.027344 112.523438 343.523438 106.613281 343.523438 106.613281 L 348.296875 110.089844 C 348.296875 110.089844 341.277344 122.996094 322.527344 121.496094 C 303.777344 119.996094 296.773438 112.113281 294.523438 99.363281 C 292.417969 87.421875 294.523438 83.113281 294.523438 83.113281 L 314.699219 88.789063 C 314.699219 88.789063 317.273438 96.863281 321.273438 98.113281 C 325.273438 99.363281 329.023438 93.863281 329.023438 93.863281 L 340.734375 101.449219 C 340.734375 101.449219 334.902344 109.628906 324.652344 111.878906 C 314.402344 114.128906 318.953125 115.601563 325.847656 114.488281 Z M 200.949219 94.113281 C 195.722656 90.769531 194.320313 80.21875 194.320313 80.21875 L 210.785156 78.523438 C 210.785156 78.523438 212.441406 82.824219 217.722656 82.265625 C 221.523438 81.863281 222.050781 78.003906 222.050781 78.003906 L 229.496094 77.3125 C 229.496094 77.3125 222.011719 94.160156 224.273438 93.613281 C 232.523438 91.613281 236.867188 76.699219 236.867188 76.699219 L 240.929688 76.246094 C 240.929688 76.246094 239.210938 86.921875 234.664063 92.15625 C 223.738281 104.742188 201.476563 108.71875 185.773438 88.113281 C 182.753906 84.152344 181.0625 80 181.0625 80 C 181.0625 80 186.710938 77.949219 187.898438 80.585938 C 189.089844 83.222656 191.597656 92.835938 200.6875 95.851563 C 209.78125 98.871094 203.230469 95.570313 200.949219 94.113281 Z M 236.035156 69.941406 C 235.007813 70.089844 224.773438 55.363281 217.023438 56.613281 C 215.410156 56.871094 229.519531 70.871094 228.050781 71.070313 C 226.144531 71.328125 224.535156 71.640625 223.648438 71.625 C 221.773438 71.597656 220.152344 66.9375 216.023438 67.363281 C 208.773438 68.113281 211.023438 74.363281 209.273438 74.613281 C 204.921875 75.234375 195.03125 75.15625 195.03125 75.15625 C 195.03125 75.15625 192.574219 67.472656 197.589844 63.761719 C 202.601563 60.046875 205.023438 58.132813 199.53125 59.351563 C 193.769531 60.632813 187.785156 67.144531 187.617188 70.363281 C 187.445313 73.578125 184.3125 72.953125 184.226563 70.613281 C 183.992188 64.304688 192.050781 42.691406 217.027344 46.464844 C 237.460938 49.546875 241.433594 69.148438 241.433594 69.148438 C 241.433594 69.148438 239.070313 69.5 236.035156 69.941406 Z M 106.5 113.460938 L 94.363281 120.339844 C 94.363281 120.339844 89.804688 111.386719 92.546875 101.257813 C 95.289063 91.128906 91.878906 94.484375 89.679688 101.109375 C 85.792969 112.816406 88.492188 120.425781 88.492188 120.425781 L 83.207031 123.050781 C 83.207031 123.050781 75.003906 110.855469 85 94.921875 C 100.320313 70.5 131.980469 87.835938 131.980469 87.835938 L 117.621094 103.101563 C 117.621094 103.101563 109.269531 101.652344 106.3125 104.621094 C 103.355469 107.59375 106.5 113.460938 106.5 113.460938 Z M 94.347656 131.371094 C 94.347656 131.371094 106.191406 139.90625 117.648438 135.339844 C 124.136719 132.753906 127.285156 129.152344 117.332031 132.484375 C 107.382813 135.816406 97.109375 126.609375 97.109375 126.609375 L 111.128906 117.5625 C 111.128906 117.5625 117.613281 121.878906 120.40625 118.75 C 123.195313 115.625 121.257813 107.371094 121.257813 107.371094 L 135.65625 92.144531 C 135.65625 92.144531 140.351563 93.78125 142.078125 105.785156 C 143.476563 115.535156 137.335938 133.394531 125.292969 139.605469 C 108.710938 148.160156 88.46875 135.074219 88.46875 135.074219 Z M 22.496094 199.28125 C 21.898438 186.785156 26.609375 175.171875 41.917969 167.875 C 47.355469 165.28125 67.109375 163.058594 65.179688 167.566406 C 63.253906 172.078125 53.03125 170.78125 43.652344 173.097656 C 34.277344 175.414063 40.429688 177.128906 47.203125 176.136719 C 53.976563 175.144531 53.050781 178.980469 49.765625 183.886719 C 46.480469 188.796875 40.347656 183.503906 38.023438 186.65625 C 35.699219 189.808594 38.453125 191.953125 35.59375 195.21875 C 32.738281 198.484375 31.914063 191.828125 29.648438 194.746094 C 27.382813 197.664063 27.480469 202.464844 27.566406 205.226563 C 27.71875 210.023438 22.882813 207.402344 22.496094 199.28125 Z M 73.066406 204.058594 C 81.226563 195.765625 68.320313 177.191406 68.320313 177.191406 L 73.765625 174.640625 C 73.765625 174.640625 89.648438 193.570313 75.980469 213.339844 C 63.578125 231.277344 42.898438 222.730469 36.933594 218.699219 C 33.3125 216.253906 36.355469 214.125 38.710938 213.734375 C 41.066406 213.347656 50.503906 214.183594 56.5625 214.007813 C 62.625 213.835938 62.078125 212.171875 56.890625 211.199219 C 51.699219 210.230469 45.464844 207.144531 45.679688 203.4375 C 45.894531 199.734375 52.625 202.742188 54.359375 199.9375 C 56.09375 197.132813 53.472656 196.214844 53.6875 192.507813 C 53.898438 188.804688 61.699219 182.503906 61.699219 182.503906 C 61.699219 182.503906 73.488281 192.21875 69.324219 203.089844 C 67.753906 207.1875 66.585938 210.636719 73.066406 204.058594 Z M 35.800781 307.445313 C 35.488281 311.980469 34.054688 313.523438 29.929688 311.769531 C 25.804688 310.011719 10.71875 302.722656 13.199219 285.296875 C 15.679688 267.871094 22.285156 268.03125 22.976563 267.949219 C 23.664063 267.871094 23.347656 269.21875 20.984375 275.785156 C 18.621094 282.351563 18.632813 292.894531 20.964844 296.984375 C 23.300781 301.074219 24.148438 303.71875 22.972656 296.785156 C 21.796875 289.855469 21.929688 285.507813 24.5625 278.285156 C 27.195313 271.058594 30.300781 267.378906 31.164063 269.84375 C 32.101563 272.523438 36.113281 302.90625 35.800781 307.445313 Z M 41.921875 294.097656 C 41.921875 294.097656 45.21875 293.128906 47.167969 289.464844 C 49.121094 285.804688 44.777344 279.671875 42.246094 276.792969 C 40.703125 275.035156 41.644531 271.453125 44.304688 274.914063 C 46.96875 278.378906 49.566406 282.109375 50.765625 289.355469 C 51.964844 296.605469 51.210938 299.0625 53.574219 290.425781 C 55.9375 281.785156 46.347656 265.675781 43.148438 261.453125 C 39.949219 257.234375 44.375 258.554688 51.128906 261.765625 C 60.273438 266.113281 72.902344 282.515625 60.273438 302.863281 C 55.59375 310.40625 42.492188 313.355469 42.492188 313.355469 Z M 86.109375 413.949219 C 69.585938 411.769531 54 395.378906 62.539063 370.921875 C 64.179688 366.222656 66.714844 362.523438 66.714844 362.523438 C 66.714844 362.523438 71.535156 366.105469 69.992188 368.546875 C 68.449219 370.992188 61.808594 378.382813 64.300781 387.632813 C 66.792969 396.886719 65.9375 389.601563 65.898438 386.890625 C 65.804688 380.6875 73.835938 373.703125 73.835938 373.703125 L 84.328125 386.507813 C 84.328125 386.507813 81.460938 390.425781 85.027344 394.359375 C 87.523438 397.113281 90.96875 395.621094 90.96875 395.621094 L 95.648438 401.453125 C 95.648438 401.453125 77.464844 404.496094 79.167969 406.082031 C 85.382813 411.863281 100.21875 407.265625 100.21875 407.265625 L 102.839844 410.40625 C 102.839844 410.40625 92.980469 414.855469 86.109375 413.949219 Z M 109.039063 406.917969 C 109.039063 406.917969 107.445313 405.140625 105.402344 402.847656 C 104.710938 402.070313 111.359375 385.417969 106.046875 379.640625 C 104.941406 378.4375 101.035156 397.921875 100.0625 396.808594 C 98.792969 395.359375 97.730469 394.128906 97.171875 393.441406 C 95.011719 390.789063 99.15625 387.9375 96.527344 384.730469 C 91.902344 379.09375 87.929688 384.414063 86.757813 383.09375 C 83.839844 379.804688 78.457031 371.507813 78.457031 371.507813 C 78.457031 371.507813 83.511719 365.222656 89.371094 367.359375 C 95.234375 369.496094 98.167969 370.464844 94.121094 366.554688 C 89.875 362.449219 81.144531 361.046875 78.367188 362.679688 C 75.589844 364.308594 74.386719 361.351563 76.289063 359.988281 C 81.425781 356.3125 103.898438 351.128906 114.519531 374.046875 C 123.203125 392.796875 109.039063 406.917969 109.039063 406.917969 Z M 229.0625 449.878906 C 196.398438 439.210938 176.054688 431.703125 165.386719 427.035156 C 154.722656 422.371094 159.570313 418.039063 168.671875 416.953125 C 175.585938 416.125 215.773438 426.53125 223.109375 431.863281 C 230.441406 437.195313 249.785156 436.113281 257.8125 435.03125 C 265.84375 433.953125 301.746094 429.546875 302.414063 436.210938 C 303.078125 442.878906 261.730469 460.546875 229.0625 449.878906 Z M 299.78125 425.21875 C 293.382813 423.039063 269.109375 420.53125 259.773438 425.195313 C 245.824219 432.171875 236.132813 429.230469 227.773438 424.53125 C 221.507813 421.007813 174.738281 410.808594 169.320313 411.777344 C 154.867188 414.359375 169.074219 401.789063 185.074219 407.121094 C 213.257813 416.515625 226.429688 419.519531 251.109375 417.195313 C 267.152344 415.6875 288.863281 411.722656 298.863281 417.722656 C 308.863281 423.722656 306.183594 427.398438 299.78125 425.21875 Z M 365.074219 432.367188 C 361.570313 426.289063 358.277344 400.875 384.777344 391.625 C 406.453125 384.058594 420.53125 401.257813 420.53125 401.257813 C 420.53125 401.257813 408.925781 410.09375 405.753906 412.191406 C 402.585938 414.292969 399.523438 408.113281 396.023438 411.113281 C 392.523438 414.113281 397.972656 418.734375 394.023438 421.613281 C 390.078125 424.492188 378.050781 431.226563 378.050781 431.226563 C 378.050781 431.226563 371.648438 424.953125 374.648438 418.703125 C 377.648438 412.453125 379.035156 409.316406 374.273438 413.363281 C 369.273438 417.613281 366.773438 427.113281 368.273438 430.363281 C 369.773438 433.613281 366.371094 434.621094 365.074219 432.367188 Z M 425.8125 427.375 C 421.605469 445.410156 403.578125 456.898438 376.144531 447.753906 C 370.894531 446.003906 366.835938 443.230469 366.835938 443.230469 C 366.835938 443.230469 371.320313 438.289063 373.855469 440.261719 C 376.390625 442.234375 383.84375 450.378906 394.34375 448.628906 C 404.84375 446.878906 396.695313 447.035156 393.695313 446.785156 C 386.824219 446.210938 379.976563 436.574219 379.976563 436.574219 L 395.273438 426.363281 C 395.273438 426.363281 399.28125 429.945313 404.03125 426.445313 C 408.78125 422.945313 406.074219 420.011719 406.074219 420.011719 L 423.714844 408.492188 C 423.714844 408.492188 427.5625 419.875 425.8125 427.375 Z M 205.835938 394.601563 C 156.132813 384.128906 83.136719 336.109375 69.597656 316.433594 C 68.4375 314.753906 64.898438 314.925781 57.976563 320.6875 C 52.175781 325.511719 50.175781 320.761719 57.507813 316.09375 C 70.042969 308.117188 77.878906 295.816406 74.441406 275.195313 C 71.773438 259.195313 45.601563 253.3125 45.601563 253.3125 L 45.972656 238.628906 C 45.972656 238.628906 39.363281 235.097656 31.773438 233.195313 C 25.8125 231.703125 23.691406 223.429688 35.691406 229.429688 C 47.691406 235.429688 90.550781 231.824219 89.21875 195.15625 C 87.882813 158.488281 54.457031 157.554688 45.070313 157.933594 C 35.683594 158.3125 35.066406 157.441406 48.402344 154.105469 C 61.734375 150.773438 77.054688 160.882813 77.054688 160.882813 L 84.625 146.257813 C 84.625 146.257813 78.34375 148.007813 70.152344 126.710938 C 66.820313 118.042969 68.652344 116.222656 73.984375 128.222656 C 81.492188 145.117188 114.242188 154.0625 132.613281 141.632813 C 155.28125 126.300781 147.289063 98.308594 147.289063 98.308594 L 168.921875 89.273438 C 168.921875 89.273438 165.226563 70.171875 170.441406 54.53125 C 172.441406 48.53125 177.695313 48.480469 173.03125 59.148438 C 163.765625 80.320313 191.78125 116.046875 218.40625 110.222656 C 259.109375 101.316406 256.648438 64.617188 240.441406 54.53125 C 234.234375 50.667969 229.6875 42.636719 244.355469 51.96875 C 259.019531 61.304688 254.683594 79.960938 254.683594 79.960938 L 280.671875 84.054688 C 280.671875 84.054688 285.25 57.496094 307.773438 51.863281 C 318.441406 49.195313 320.796875 52.589844 308.128906 55.253906 C 295.464844 57.921875 264.96875 97.257813 298.300781 119.925781 C 331.636719 142.589844 356.628906 112.765625 356.628906 112.765625 L 373.921875 124.117188 C 373.921875 124.117188 384.441406 106.53125 393.773438 105.195313 C 403.109375 103.863281 410.441406 105.863281 395.109375 109.195313 C 375.0625 113.554688 369.222656 149.089844 384.847656 167.3125 C 408.675781 195.113281 436.914063 178.742188 442.441406 161.863281 C 444.90625 154.332031 448.324219 156.453125 444.324219 167.121094 C 440.324219 177.785156 431.296875 183.382813 431.296875 183.382813 L 438.621094 196.195313 C 438.621094 196.195313 451.804688 194.117188 462.324219 193.554688 C 472.84375 192.988281 474.941406 197.496094 462.273438 195.496094 C 449.609375 193.496094 425.460938 211.152344 427.460938 236.484375 C 429.460938 261.820313 448.902344 267.015625 448.902344 267.015625 C 448.902344 267.015625 446.691406 269.21875 444.46875 275.023438 C 408.914063 367.949219 300.441406 414.53125 205.835938 394.601563 Z M 440.792969 333.117188 C 434.808594 343.515625 452.515625 358.6875 452.515625 358.6875 L 447.746094 362.644531 C 447.746094 362.644531 426.976563 347.890625 435.46875 324.617188 C 443.175781 303.496094 466.023438 306.644531 473.023438 309.113281 C 477.273438 310.613281 474.792969 313.527344 472.542969 314.527344 C 470.292969 315.527344 460.664063 317.148438 454.664063 318.898438 C 448.664063 320.648438 449.640625 322.167969 455.070313 321.785156 C 460.5 321.402344 467.519531 322.863281 468.269531 326.613281 C 469.019531 330.363281 461.523438 329.113281 460.523438 332.363281 C 459.523438 335.613281 462.378906 335.847656 463.128906 339.597656 C 463.878906 343.347656 457.734375 351.664063 457.734375 351.664063 C 457.734375 351.664063 443.449219 345.039063 444.773438 333.113281 C 445.273438 328.613281 445.542969 324.867188 440.792969 333.117188 Z M 481.273438 361.113281 C 476.523438 365.113281 457.398438 372.46875 458.148438 367.46875 C 458.898438 362.46875 469.433594 361.105469 478.183594 356.355469 C 486.933594 351.605469 480.351563 351.496094 473.851563 354.246094 C 467.351563 356.996094 467.277344 352.929688 469.277344 347.179688 C 471.277344 341.429688 478.773438 345.113281 480.273438 341.363281 C 481.773438 337.613281 478.46875 336.191406 480.46875 332.191406 C 482.46875 328.191406 485.023438 334.613281 486.523438 331.113281 C 488.023438 327.613281 486.679688 322.851563 485.875 320.117188 C 484.476563 315.371094 489.980469 316.730469 492.480469 324.730469 C 496.328125 337.039063 494.648438 349.851563 481.273438 361.113281 "/>
</g>
</svg>
