<?xml version="1.0" encoding="UTF-8"?>
<svg xmlns="http://www.w3.org/2000/svg" xmlns:xlink="http://www.w3.org/1999/xlink" width="528pt" height="507pt" viewBox="0 0 528 507" version="1.1">
<g id="surface1">
<path style=" stroke:none;fill-rule:nonzero;fill:rgb(0%,0%,0%);fill-opacity:1;" d="M 527.628906 192.648438 C 512.464844 190.480469 498.109375 187.640625 483.078125 186.554688 C 489.984375 195.628906 494.046875 204.972656 497.703125 216.347656 C 497.972656 217.835938 496.210938 219.054688 495.128906 218.378906 C 489.847656 208.492188 481.011719 199.265625 473.730469 191.578125 C 399.675781 258.179688 390.019531 323.683594 382.855469 431.917969 C 382.8125 432.554688 381.683594 432.859375 381.511719 432.234375 C 379.097656 423.445313 376.230469 408.710938 376.5 404.582031 C 377.507813 375.6875 377.695313 348.886719 381.71875 321.378906 C 389.4375 268.585938 439.203125 208.957031 486.089844 168.003906 C 490.324219 164.304688 489.414063 161.90625 482.414063 160.070313 C 471.355469 157.164063 438.804688 163.460938 424.644531 171.21875 C 408.25 56.578125 344.234375 -40.921875 215.054688 18.308594 C 146.019531 49.964844 75.734375 139.558594 70.316406 207.273438 C -27.554688 268.898438 -17.5625 392.433594 65.441406 494.230469 C 76.429688 498.191406 104.917969 504.015625 114.699219 503.84375 C 131.292969 473.976563 147.085938 451.742188 184.441406 451.871094 C 187.921875 451.882813 194.257813 452.386719 196.527344 450.761719 C 149.738281 415.359375 106.585938 341.195313 92.367188 291.28125 C 91.976563 289.910156 93.222656 288.855469 93.929688 290.535156 C 107.113281 321.890625 130.199219 363.339844 153.316406 388.871094 C 172.449219 410.003906 203.726563 447.746094 206.820313 453.332031 C 208.039063 456.449219 206.109375 457.972656 203.296875 458.207031 C 178.691406 457.246094 159.871094 458.042969 143.441406 474.730469 C 146.523438 483.871094 153.90625 490.027344 160.777344 497.480469 C 170.898438 499.445313 182.984375 499.511719 193.546875 499.105469 C 196.660156 493.84375 206.738281 475.050781 208.445313 471.886719 C 212.878906 478.113281 236.414063 478.964844 242.027344 474.730469 C 245.71875 481.332031 259.253906 499.007813 265.902344 502.414063 C 274.96875 507.058594 323.851563 507.921875 331.675781 503.710938 C 334.113281 496.667969 335.09375 489.964844 337.5 482.3125 C 342.511719 487.324219 344.675781 492.0625 348.875 497.210938 C 351.773438 497.933594 362.898438 495.296875 366.074219 493.960938 C 365.125 489.355469 361.335938 465.925781 361.605469 458.886719 C 368.238281 463.082031 376.738281 477.4375 390.449219 479.605469 C 394.511719 479.46875 398.742188 478.453125 401.28125 476.082031 C 402.503906 453.875 405.34375 415.144531 412.253906 397.40625 C 488.890625 387.769531 532.054688 283.84375 506.28125 223.699219 C 510.296875 218.617188 525.191406 200.164063 527.628906 192.648438 Z M 83.320313 452.402344 C 54.40625 414.148438 34.496094 362.804688 34.511719 310.128906 C 34.585938 306.199219 36.234375 306.785156 36.621094 310.121094 C 42.25 358.519531 57.789063 400.789063 85.089844 451.351563 C 86.566406 454.011719 85.078125 454.867188 83.320313 452.402344 Z M 155.671875 102.703125 C 152.285156 111.421875 148.171875 119.933594 144.488281 128.65625 C 121.578125 182.9375 136.460938 250.546875 153.886719 309.589844 C 155.441406 314.855469 152.957031 316.015625 150.28125 311.132813 C 113.1875 243.445313 106.535156 162.425781 153.941406 101.214844 C 155.273438 99.496094 156.523438 100.515625 155.671875 102.703125 Z M 226.222656 311.84375 C 226.390625 310.210938 228.808594 309.949219 228.800781 312.265625 C 228.769531 343.21875 228.921875 387.820313 236.289063 413.855469 C 241.027344 430.597656 247.421875 448.074219 250.695313 464.980469 C 213.851563 434.714844 222.695313 346.707031 226.222656 311.84375 Z M 376.222656 461.085938 C 354.613281 432.316406 350.378906 373.558594 346.757813 333.207031 C 346.527344 330.65625 344.804688 330.550781 344.40625 333.351563 C 333.683594 371.777344 326.667969 421.761719 324.105469 466.855469 C 323.90625 470.332031 322.796875 470.214844 321.820313 466.617188 C 313.425781 435.578125 328.445313 354.390625 348.011719 307.203125 C 348.640625 299.484375 349.597656 291.234375 350.5 283.785156 C 339.636719 269.492188 314.34375 234.898438 300.800781 214.722656 C 285.09375 217.160156 258.867188 220.140625 240.402344 221.898438 C 227.679688 209.453125 200.726563 181.003906 187.996094 167.054688 C 183.796875 169.898438 178.515625 172.742188 174.046875 174.773438 C 174.78125 161.175781 175.332031 147.40625 176.621094 132.929688 C 188.808594 136.585938 201.085938 141.820313 212.371094 146.878906 C 206.007813 151.753906 200.277344 154.785156 194.226563 159.199219 C 208.453125 175.644531 234.039063 203.210938 244.601563 214.179688 C 266.132813 211.066406 286.265625 209.285156 307.570313 206.328125 C 323.820313 226.773438 338.988281 248.441406 354.15625 269.703125 C 357.269531 242.484375 376.90625 189.671875 393.429688 166.378906 C 378.027344 114.007813 350.042969 49.304688 287.523438 39.835938 C 285.925781 39.59375 285.738281 38.386719 287.277344 38.089844 C 342 27.53125 395.378906 117.070313 403.765625 167.550781 C 352.683594 234.785156 337.964844 350.390625 379.921875 459.035156 C 382.664063 466.136719 381.226563 467.742188 376.222656 461.085938 Z M 444.421875 310.113281 C 440.542969 310.113281 437.398438 306.96875 437.398438 303.089844 C 437.398438 299.210938 440.542969 296.066406 444.421875 296.066406 C 448.300781 296.066406 451.445313 299.210938 451.445313 303.089844 C 451.445313 306.96875 448.300781 310.113281 444.421875 310.113281 "/>
</g>
</svg>
