<?xml version="1.0" encoding="UTF-8"?>
<svg xmlns="http://www.w3.org/2000/svg" xmlns:xlink="http://www.w3.org/1999/xlink" width="349pt" height="639pt" viewBox="0 0 349 639" version="1.1">
<g id="surface1">
<path style=" stroke:none;fill-rule:nonzero;fill:rgb(0%,0%,0%);fill-opacity:1;" d="M 342.253906 249.921875 C 323.964844 219.230469 290.949219 209.929688 265.21875 193.65625 C 271.421875 171.644531 284.90625 150.101563 287.539063 127.78125 C 276.378906 122.511719 264.753906 118.015625 252.976563 114.449219 C 244.605469 111.195313 232.359375 112.433594 227.863281 104.375 C 230.964844 94.921875 234.375 84.84375 233.445313 74.148438 C 224.609375 70.894531 215.929688 67.484375 207.25 64.230469 C 206.320313 57.71875 208.953125 51.828125 207.25 45.785156 C 204.304688 45.628906 198.261719 48.109375 196.089844 47.953125 C 196.246094 43.769531 193.609375 40.515625 193.765625 36.328125 C 190.199219 36.175781 185.859375 34.46875 183.226563 34.625 C 179.503906 33.539063 183.378906 27.960938 182.140625 23.929688 C 179.503906 23.773438 177.875 23.25 175.941406 22.378906 C 174.078125 17.417969 177.179688 11.996094 175.476563 7.808594 C 174.855469 7.808594 174.234375 7.808594 173.769531 7.808594 C 167.261719 9.980469 165.554688 5.175781 162.609375 1.144531 C 154.550781 -3.972656 156.253906 9.050781 149.125 10.597656 C 151.914063 16.335938 143.078125 18.039063 146.953125 23.464844 C 140.753906 26.71875 145.714844 36.792969 137.5 37.414063 C 125.410156 33.847656 130.835938 46.714844 128.046875 52.449219 C 122.464844 57.253906 115.179688 60.199219 109.601563 65.777344 C 110.53125 71.671875 113.628906 78.179688 115.644531 84.226563 C 119.675781 90.269531 109.753906 88.875 106.191406 89.804688 C 94.097656 92.285156 81.699219 93.371094 71.003906 99.878906 C 83.40625 124.371094 90.691406 150.101563 104.484375 174.589844 C 116.886719 173.195313 128.046875 179.394531 138.585938 178 C 167.261719 184.355469 194.695313 178.773438 221.664063 174.125 C 238.25 173.351563 253.285156 165.910156 266.925781 156.765625 C 270.335938 149.324219 277 141.109375 271.886719 132.273438 C 272.660156 129.949219 268.320313 128.089844 269.714844 125.609375 C 275.761719 126.695313 280.566406 131.65625 283.046875 136.769531 C 281.496094 144.828125 277 152.425781 274.675781 160.640625 C 265.996094 182.804688 252.355469 204.195313 242.898438 226.050781 C 239.179688 231.011719 248.480469 230.234375 251.890625 231.011719 C 266.460938 230.546875 280.410156 236.28125 288.160156 249.453125 C 293.121094 263.25 305.210938 274.875 304.898438 290.21875 C 303.351563 297.039063 297.304688 302.929688 292.65625 307.425781 C 288.625 310.835938 284.90625 309.75 281.496094 314.089844 C 264.136719 313.003906 254.679688 332.226563 237.320313 329.28125 C 240.265625 328.039063 243.054688 326.644531 246.308594 326.488281 C 261.035156 312.851563 280.101563 314.398438 294.203125 299.675781 C 298.546875 293.785156 299.628906 286.5 299.785156 279.058594 C 294.050781 266.660156 287.695313 254.570313 279.171875 243.253906 C 269.871094 231.785156 254.371094 235.660156 241.195313 233.179688 C 221.976563 264.023438 211.589844 301.070313 198.261719 334.859375 C 190.976563 335.015625 181.210938 334.394531 174.234375 335.324219 C 158.734375 341.835938 143.546875 341.371094 127.425781 343.230469 C 112.699219 365.703125 109.910156 391.746094 104.019531 417.941406 C 103.398438 414.683594 102.78125 413.601563 102.933594 410.191406 C 106.34375 384.304688 112.546875 358.574219 123.550781 337.03125 C 136.726563 337.960938 145.144531 336.84375 158.167969 337 C 168.242188 334.054688 176.871094 333.773438 186.636719 330.363281 C 190.511719 328.195313 194.695313 332.226563 198.261719 329.28125 C 203.683594 312.851563 207.40625 295.335938 214.535156 280.144531 C 218.410156 265.886719 226.46875 251.625 231.273438 239.378906 C 228.019531 242.636719 223.332031 243 219.496094 243.875 C 206.164063 244.183594 196.554688 256.894531 182.140625 256.121094 C 168.65625 250.539063 154.550781 248.835938 141.375 256.121094 C 138.273438 257.359375 137.375 256.1875 135.796875 255.035156 C 127.269531 247.128906 117.503906 244.339844 106.191406 246.664063 C 98.128906 242.636719 96.582031 232.871094 92.859375 225.429688 C 79.21875 222.328125 66.664063 210.394531 63.253906 196.910156 C 57.675781 195.515625 50.699219 197.53125 45.429688 195.359375 C 42.175781 190.710938 39.695313 185.75 37.523438 180.789063 C 29.621094 180.324219 23.417969 175.675781 16.910156 171.800781 C 14.429688 170.40625 12.878906 166.375 16.910156 166.21875 C 26.210938 172.109375 38.144531 172.574219 47.597656 176.914063 C 63.253906 182.183594 84.800781 175.984375 101.695313 175.210938 C 99.058594 171.335938 95.496094 167.148438 95.03125 162.964844 C 91 163.273438 71.546875 160.71875 64.339844 161.261719 C 55.503906 162.035156 42.175781 159.554688 33.183594 161.261719 C 22.644531 161.414063 9.160156 162.191406 0.789063 169.011719 C 10.863281 191.328125 18.769531 215.046875 26.363281 237.675781 C 44.65625 277.820313 55.347656 323.234375 71.003906 364.308594 C 72.246094 366.945313 87.589844 408.175781 92.859375 428.015625 C 98.441406 439.949219 98.128906 452.96875 99.523438 465.988281 C 102.46875 506.601563 123.085938 541.785156 133.625 579.140625 C 137.65625 602.699219 155.171875 621.300781 172.683594 638.96875 C 176.871094 622.851563 184 607.96875 189.890625 592.625 C 203.21875 559.609375 218.410156 528.300781 239.023438 498.851563 C 261.5 465.058594 282.890625 432.355469 298.234375 395.621094 C 304.28125 379.5 312.183594 363.84375 318.230469 347.570313 C 328.613281 327.265625 337.449219 304.324219 345.664063 283.398438 C 351.710938 272.394531 347.214844 259.996094 342.253906 249.921875 Z M 155.324219 15.09375 C 154.238281 13.390625 158.425781 12.925781 158.734375 10.597656 C 159.046875 8.738281 157.648438 5.792969 159.820313 5.019531 C 164.316406 7.34375 163.539063 16.179688 171.445313 12.769531 C 172.683594 15.558594 168.5 21.140625 173.148438 22.378906 C 172.21875 25.324219 170.050781 26.71875 167.570313 28.425781 C 162.609375 30.128906 157.648438 27.960938 153.15625 26.71875 C 151.605469 25.167969 151.605469 22.6875 150.828125 20.675781 C 153 19.433594 159.355469 19.125 155.324219 15.09375 Z M 143.546875 44.699219 C 154.550781 44.542969 168.191406 48.417969 177.023438 39.585938 C 179.761719 39.976563 182.171875 40.804688 184.988281 40.78125 C 185.519531 40.777344 185.644531 40.886719 185.171875 41.039063 C 176.199219 43.949219 172.566406 57.0625 161.523438 56.324219 C 155.015625 54.621094 149.28125 51.054688 143.546875 47.488281 C 143.546875 46.402344 143.546875 45.628906 143.546875 44.699219 Z M 201.671875 53.070313 C 202.289063 56.632813 200.585938 61.59375 198.878906 65.3125 C 184.308594 80.96875 160.441406 79.730469 141.375 76.9375 C 136.570313 74.304688 129.285156 73.839844 128.046875 67.484375 C 153.464844 70.121094 184 74.613281 201.671875 53.070313 Z M 201.050781 123.285156 C 181.054688 139.714844 153.621094 131.035156 133.003906 122.199219 C 129.441406 118.945313 123.859375 121.578125 119.675781 120.03125 C 107.894531 118.789063 98.90625 110.886719 89.449219 104.375 C 90.691406 103.910156 89.292969 102.515625 90.535156 102.050781 C 122.308594 102.515625 151.914063 101.738281 184.308594 100.5 C 198.414063 98.328125 214.691406 96.3125 227.863281 91.507813 C 226.46875 105.460938 210.351563 113.210938 201.050781 123.285156 Z M 120.761719 523.339844 C 111.925781 506.910156 109.910156 489.085938 109.601563 469.863281 C 108.203125 442.894531 109.136719 416.234375 114.09375 390.660156 C 117.195313 376.398438 124.789063 363.378906 131.300781 350.980469 C 135.484375 346.019531 140.910156 349.273438 145.871094 346.019531 C 147.421875 346.484375 145.40625 348.191406 145.25 349.273438 C 124.171875 383.21875 116.574219 423.519531 115.644531 464.75 C 115.488281 465.835938 114.25 464.90625 114.09375 465.988281 C 115.488281 478.390625 128.511719 488.773438 119.054688 501.019531 C 120.914063 507.996094 124.636719 515.589844 120.761719 523.339844 Z M 122.464844 458.703125 C 122 446.925781 120.605469 439.640625 123.550781 428.480469 C 127.425781 401.511719 136.414063 377.328125 150.363281 354.855469 C 154.859375 349.894531 160.128906 346.796875 165.398438 343.230469 C 166.175781 346.019531 163.074219 349.429688 161.988281 352.683594 C 172.375 347.261719 181.984375 339.976563 196.089844 343.695313 C 193.996094 345.554688 190.121094 344.78125 188.183594 345.941406 C 158.734375 363.148438 140.753906 395.15625 141.996094 429.101563 C 140.289063 461.960938 151.914063 493.425781 146.953125 525.664063 C 145.558594 530.933594 147.574219 538.996094 145.25 544.574219 C 141.683594 534.5 135.949219 522.101563 135.796875 510.011719 C 133.78125 491.875 126.804688 476.53125 122.464844 458.703125 Z M 337.296875 285.105469 C 313.269531 335.015625 301.023438 390.503906 270.800781 437.46875 C 242.28125 479.476563 212.519531 520.550781 193.300781 566.894531 C 190.976563 575.886719 185.550781 583.480469 183.84375 592.625 C 176.09375 551.085938 197.796875 517.449219 207.714844 481.023438 C 211.746094 469.554688 219.03125 454.210938 212.210938 441.964844 C 210.816406 437.78125 209.886719 440.492188 209.421875 443.050781 C 207.40625 459.015625 205.855469 475.445313 196.089844 487.691406 C 194.539063 480.714844 195.003906 472.5 193.300781 465.371094 C 192.214844 463.199219 192.523438 460.410156 190.511719 458.703125 C 188.03125 502.878906 169.429688 543.179688 174.855469 586.425781 C 172.996094 593.867188 173.925781 605.027344 172.066406 613.859375 C 168.5 604.40625 163.074219 594.484375 163.695313 584.71875 C 163.230469 574.492188 159.664063 562.554688 161.988281 551.859375 C 161.523438 548.449219 162.765625 545.660156 163.074219 542.40625 C 170.742188 516.414063 181.925781 489.515625 179.335938 460.992188 C 179.097656 458.382813 178.253906 458.441406 178.089844 461.074219 C 175.371094 504.023438 145.429688 542.691406 155.945313 590.300781 C 157.246094 597.332031 158.222656 605.5625 160.519531 612.976563 C 160.957031 614.390625 159.964844 615.371094 159.160156 614.191406 C 151.875 603.46875 143.683594 592.746094 143.546875 579.761719 C 145.25 561.625 150.675781 544.886719 155.324219 527.835938 C 167.105469 491.875 137.34375 463.355469 150.828125 428.015625 C 154.394531 412.359375 159.199219 397.324219 165.398438 382.753906 C 167.726563 379.808594 169.429688 376.710938 172.066406 373.921875 C 168.964844 386.941406 164.316406 399.960938 165.398438 414.066406 C 168.035156 406.933594 170.515625 400.113281 172.683594 392.210938 C 178.886719 379.65625 184 366.324219 193.300781 354.855469 C 205.234375 351.136719 220.113281 350.824219 229.570313 339.199219 C 242.433594 335.171875 257.003906 339.355469 265.839844 326.953125 C 267.699219 322.769531 272.660156 324.011719 274.675781 321.375 C 295.445313 316.726563 312.339844 302.464844 330.476563 291.304688 C 332.179688 288.515625 341.015625 275.960938 337.296875 285.105469 "/>
</g>
</svg>
