<?xml version="1.0" encoding="UTF-8"?>
<svg xmlns="http://www.w3.org/2000/svg" xmlns:xlink="http://www.w3.org/1999/xlink" width="358pt" height="646pt" viewBox="0 0 358 646" version="1.1">
<g id="surface1">
<path style=" stroke:none;fill-rule:nonzero;fill:rgb(0%,0%,0%);fill-opacity:1;" d="M 318.945313 16.398438 C 315.714844 22.519531 159.457031 284.691406 142.726563 313.269531 C 118.898438 353.925781 106.375 375.441406 105.15625 377.800781 C 92.203125 402.699219 76.082031 425.269531 73.359375 426.738281 C 73.359375 426.738281 62.808594 429.199219 59.566406 436.195313 C 62.503906 445.234375 74.003906 452.660156 78.492188 448.421875 C 84.808594 440.933594 83.324219 432.597656 83.324219 432.597656 C 83.359375 432.234375 108.898438 392.800781 111.0625 392.402344 C 113.601563 393.871094 116.128906 395.390625 118.636719 396.941406 C 118.882813 397.929688 1.207031 595.667969 0.757813 609.527344 C -4.660156 625.734375 33.472656 677.070313 70.652344 618.71875 C 93.40625 584.25 249.808594 333.867188 274.988281 321.46875 C 284.726563 315.464844 299.164063 314.027344 318.320313 317.195313 C 318.964844 316.089844 288.308594 260.53125 223.59375 256.011719 C 223.574219 257.449219 242.109375 285.832031 227.371094 318.300781 C 220.375 338.695313 162.871094 435.453125 160.546875 437.199219 C 154.488281 434.082031 126.324219 416.972656 126.324219 416.972656 C 124.59375 415.898438 354.585938 31.84375 354.585938 31.84375 C 369.160156 -1.269531 333.960938 -10.070313 318.945313 16.398438 Z M 74.949219 444.835938 C 74.949219 444.835938 66.382813 445.152344 64.257813 438.894531 L 64.554688 438.152344 C 64.554688 438.152344 67.664063 443.777344 74.949219 443.941406 Z M 233.222656 263.277344 C 233.222656 263.277344 281.984375 279.507813 304.058594 305.300781 C 302.910156 304.652344 244.308594 267.132813 233.222656 264.761719 Z M 246.824219 291.789063 C 251.035156 293.101563 229.695313 340.128906 229.003906 336.339844 C 228.898438 335.769531 245.960938 297.382813 246.824219 291.789063 Z M 22.296875 629.21875 C 5.605469 613.269531 18.921875 594.742188 24.71875 586.824219 L 31.042969 591.636719 C 24.902344 608.28125 43.621094 613.933594 51.394531 608.136719 C 53.359375 608.578125 56.597656 611.871094 59.78125 614.597656 C 59.84375 615.753906 46.675781 643.335938 22.296875 629.21875 Z M 37.945313 590.085938 L 37.945313 589.492188 C 37.945313 587.761719 49.433594 589.40625 51.011719 597.660156 L 50.417969 597.660156 C 50.417969 597.660156 46.308594 589.710938 37.945313 590.085938 Z M 63.484375 609.878906 C 59.78125 607.136719 56.761719 604.660156 54.425781 602.453125 C 56.757813 591.910156 45.941406 583.933594 36.40625 586.136719 C 36.40625 586.136719 33.277344 584.855469 28.886719 580.621094 C 31.75 574.320313 39.667969 559.914063 52.644531 537.410156 L 53.238281 537.558594 C 53.730469 537.679688 90.351563 561.675781 91.550781 562.058594 C 91.5625 562.1875 64.402344 608.90625 63.484375 609.878906 Z M 154.574219 448.785156 C 154.039063 452.332031 97.042969 551.425781 96.660156 551.992188 C 95.742188 552.117188 59.433594 528.347656 59.238281 528.230469 C 59.238281 528.230469 118.253906 426.90625 118.640625 426.359375 C 119.136719 426.316406 150.03125 445.234375 154.574219 448.785156 Z M 134.707031 384.035156 C 134.476563 384.617188 134.28125 384.964844 134.113281 385.078125 C 133.980469 385.035156 129.035156 382.746094 127.984375 382.359375 C 127.804688 382.480469 124.171875 387.695313 123.71875 388.34375 C 123.71875 388.34375 118.765625 386.511719 113.914063 382.851563 C 114.089844 382.085938 114.484375 381.640625 115.105469 381.511719 C 115.121094 381.289063 112.921875 379.84375 111.484375 378.644531 C 111.484375 378.644531 111.578125 377.597656 112.429688 377.058594 C 112.429688 377.058594 115.941406 379.3125 116.15625 379.335938 C 117.390625 377.417969 121.289063 370.785156 126.984375 360.722656 C 128.132813 360.648438 131.5 362.625 137.082031 366.664063 C 137.1875 367.652344 128.761719 380.472656 128.945313 380.570313 C 128.945313 380.570313 133.300781 382.871094 134.707031 384.035156 Z M 334.203125 39.929688 C 334.308594 41.179688 144.382813 354.9375 144.417969 355.347656 C 139.074219 354.035156 143.992188 357.058594 134.023438 350.890625 C 133.761719 347.632813 313.550781 48.4375 323.238281 29.773438 C 329.589844 17.535156 336.710938 5.699219 344.960938 12.847656 C 344.960938 12.847656 351.925781 17.433594 334.203125 39.929688 "/>
</g>
</svg>
