<?xml version="1.0" encoding="UTF-8"?>
<svg xmlns="http://www.w3.org/2000/svg" xmlns:xlink="http://www.w3.org/1999/xlink" width="190pt" height="646pt" viewBox="0 0 190 646" version="1.1">
<g id="surface1">
<path style=" stroke:none;fill-rule:nonzero;fill:rgb(0%,0%,0%);fill-opacity:1;" d="M 177.21875 108.308594 C 176.050781 105.953125 176.554688 105.433594 179.949219 106.875 C 184.03125 108.609375 187.578125 106.394531 188.910156 103.289063 C 191.582031 97.058594 181.328125 92.789063 183.367188 91.320313 C 187.355469 88.4375 183.664063 83.21875 178.679688 85.609375 C 176.191406 86.804688 173.21875 83.984375 172.625 80.96875 C 172.03125 77.953125 150.339844 43.882813 119.285156 47.496094 C 116.621094 47.808594 115.457031 47.886719 115.828125 45.1875 C 116.203125 42.484375 117.511719 34.835938 119.769531 33.992188 C 122.023438 33.148438 127.285156 31.46875 127.78125 22.125 C 128.347656 11.503906 116.617188 8.675781 116.3125 5.589844 C 115.757813 -0.0078125 112 -1.433594 110.460938 3.09375 C 109.394531 6.234375 98.027344 11.519531 95.808594 17.726563 C 92.644531 26.582031 101.828125 32.789063 101.828125 32.789063 C 101.828125 32.789063 100.441406 39.109375 98.863281 40.632813 C 97.289063 42.160156 95.511719 42.613281 90.910156 41.011719 C 66.105469 32.355469 42.46875 44.238281 38.890625 46.464844 C 37.074219 47.59375 37.621094 48.3125 30.640625 46.152344 C 23.65625 43.988281 23.324219 53.304688 29.476563 56.796875 C 33.367188 59.003906 39.769531 60.628906 51.433594 56.757813 C 75.859375 48.648438 85.957031 56.9375 89.203125 59.652344 C 101.296875 69.761719 87.8125 84.980469 86.832031 87.386719 C 85.917969 89.628906 90.324219 87.882813 90.15625 93.371094 C 90.085938 95.703125 84.503906 98.691406 83.175781 103.179688 C 81.84375 107.667969 86.316406 112.511719 85.652344 115.835938 C 84.988281 119.160156 82.25 119.335938 82.21875 121.882813 C 81.800781 157.398438 56.574219 172.839844 48.445313 176.195313 C 45.183594 177.542969 41.917969 180.25 40.394531 180.429688 C 32.761719 181.328125 23.65625 177.824219 16.261719 183.210938 C 13.859375 184.960938 12.578125 187.160156 11.574219 183.53125 C 10.6875 180.320313 0.714844 180.207031 0.714844 191.292969 C 0.714844 200.601563 12.851563 200.101563 13.015625 195.613281 C 13.078125 193.949219 15.277344 192.824219 16.339844 194.78125 C 19.5 200.601563 32.964844 197.277344 40.9375 193.898438 C 41.296875 193.746094 40.074219 205.644531 39.929688 206.359375 C 35.066406 230.359375 48.65625 454.734375 58.125 480.566406 C 70.605469 514.605469 68.730469 619.730469 66.261719 638.851563 C 65.214844 646.972656 67.589844 648.433594 71.835938 642.785156 C 79.828125 632.15625 104.710938 614.5 110.4375 535.761719 C 112.253906 510.824219 112.820313 398.082031 111.160156 376.824219 C 108.511719 342.878906 124.40625 219.246094 126.039063 214.828125 C 126.65625 213.160156 127.429688 212.191406 128.851563 213.480469 C 130.269531 214.773438 138.273438 219.292969 140.269531 218.851563 C 142.265625 218.40625 143.46875 220.550781 142.582031 222.988281 C 141.695313 225.429688 153.296875 234.609375 159.28125 227.515625 C 165.265625 220.421875 152.375 213.664063 149.949219 214.160156 C 147.519531 214.652344 147.457031 213.457031 147.417969 211.527344 C 147.378906 209.410156 126.554688 190.230469 114.058594 189.214844 C 111.753906 189.027344 114.320313 189.074219 114.246094 184.058594 C 114.171875 179.042969 118.527344 185.667969 122.742188 187.886719 C 126.953125 190.101563 147.796875 204.414063 171.617188 184.421875 C 182.535156 175.257813 186.25 157.15625 180.773438 136.253906 C 179.253906 130.445313 167.40625 103.511719 167.328125 100.058594 C 167.277344 97.828125 171.355469 96.074219 174.5 95.753906 C 177.648438 95.433594 177.308594 94.488281 175.535156 92.492188 C 173.761719 90.5 171.914063 92.464844 160.828125 78.421875 C 148.789063 63.167969 131.050781 57.066406 117.976563 60.285156 C 103.566406 63.832031 108.664063 81.34375 109.667969 83.730469 C 112.421875 90.285156 105.339844 87.996094 104.664063 81.953125 C 104.339844 79.039063 97.195313 55.226563 128.839844 56.074219 C 152.195313 56.699219 170.394531 83.34375 170.953125 84.449219 C 172.179688 86.859375 175.359375 88.714844 178.933594 87.328125 C 181.46875 86.347656 182.503906 89.945313 179.65625 90.714844 C 178.164063 91.113281 177.308594 94.019531 179.941406 93.527344 C 182.257813 93.09375 187.238281 98.894531 186.503906 101.46875 C 185.480469 105.054688 181.292969 105.1875 180.929688 103.734375 C 180.484375 101.960938 177.605469 102.183594 177.527344 104.019531 C 177.460938 105.617188 174.878906 103.550781 173.558594 100.550781 C 172.234375 97.550781 171.289063 99.578125 172.394531 101.796875 C 173.503906 104.015625 173.496094 106.667969 174.945313 109.71875 C 193.785156 149.394531 184.824219 166.953125 183.445313 170.601563 C 174.136719 195.203125 150.339844 200.585938 139.226563 197.824219 C 136.148438 197.0625 135.738281 198.480469 138.953125 199.523438 C 146.347656 201.914063 172.835938 201.21875 186.167969 171.882813 C 192.816406 157.253906 190.460938 134.988281 177.21875 108.308594 Z M 99.246094 16.394531 C 102.976563 10.902344 112.910156 5.21875 112.910156 5.21875 C 113.800781 7.433594 125.476563 15.21875 125.957031 20.386719 C 126.398438 25.152344 124.617188 30.785156 120.496094 32.304688 C 116.378906 33.824219 119.609375 30.238281 114.703125 28.765625 C 109.800781 27.289063 106.007813 28.144531 103.597656 30.535156 C 102.484375 31.640625 95.511719 21.890625 99.246094 16.394531 Z M 54.355469 44.375 C 58.605469 42.597656 68.210938 40.449219 74.195313 41.117188 C 80.179688 41.78125 77.398438 42 74.363281 42 C 70.871094 42 62.230469 42.265625 54.746094 45.15625 C 52.375 46.074219 52.085938 45.324219 54.355469 44.375 Z M 72.617188 158.511719 C 88.273438 137.203125 85.09375 120.980469 85.09375 120.980469 C 85.722656 118.695313 95.710938 119.074219 95.476563 120.246094 C 95.242188 121.421875 96.472656 140.753906 73.984375 159.003906 C 70.730469 161.644531 70.261719 161.71875 72.617188 158.511719 Z M 107.949219 170.101563 C 110.4375 173.890625 109.710938 174.976563 107.445313 171.675781 C 92.707031 150.171875 98.449219 121.460938 98.449219 121.460938 C 99.132813 119.914063 102.621094 120.804688 102.472656 122.589844 C 99.6875 155.714844 105.355469 166.152344 107.949219 170.101563 Z M 104.121094 185.308594 C 101.804688 185.523438 74.527344 180.414063 65.886719 180.128906 C 63.75 180.058594 63.042969 180.039063 64.855469 178.714844 C 67.65625 176.664063 71.734375 172.476563 71.734375 172.476563 C 77.175781 184 93.90625 179.917969 98.21875 179.105469 C 100.019531 178.769531 102.015625 179.210938 102.460938 179.988281 C 103.625 182.023438 105.046875 183.703125 105.230469 183.976563 C 105.671875 184.640625 105.371094 185.191406 104.121094 185.308594 Z M 96.746094 175.222656 C 92.820313 176.84375 79.171875 176.011719 76.761719 173.433594 C 75.628906 172.21875 74.222656 172.769531 76.46875 168.945313 C 78.71875 165.125 88.519531 151.472656 89.113281 150.429688 C 89.757813 149.304688 90.15625 147.84375 91 150.886719 C 92.238281 155.363281 94.828125 168.085938 96.695313 170.785156 C 97.695313 172.230469 100.058594 173.855469 96.746094 175.222656 Z M 48.707031 180.097656 C 49.828125 179.828125 52.554688 178.195313 54.136719 177.328125 C 56.429688 176.0625 72.980469 164.96875 75.484375 162.324219 C 77.964844 159.703125 78.742188 160.257813 75.84375 163.417969 C 73.796875 165.648438 60.320313 179.757813 59.019531 180.039063 C 57.441406 180.386719 54.222656 180.300781 52.003906 180.234375 C 50.34375 180.1875 46.378906 180.652344 48.707031 180.097656 Z M 119.851563 230.410156 C 118.523438 237.394531 107.757813 346.078125 107.234375 361.644531 C 106.839844 373.59375 108.777344 481.230469 108.445313 490.875 C 108.113281 500.515625 106.269531 551.226563 99.6875 577.433594 C 93.261719 603.039063 87.910156 614.398438 80.402344 624.652344 C 72.152344 635.917969 67.324219 632.203125 71.203125 610.464844 C 73.421875 598.050781 70.527344 511.996094 66.105469 497.414063 C 62.671875 486.09375 59.898438 477.019531 57.683594 466.378906 C 55.503906 455.929688 44.824219 316.535156 44.824219 305.007813 C 44.824219 293.480469 42.609375 239.394531 42.609375 232.742188 C 42.609375 226.09375 47.820313 221.882813 48.261719 224.542969 C 49.175781 230.035156 52.25 238.175781 55.242188 234.183594 C 57.921875 230.613281 61.730469 234.609375 59.898438 237.175781 C 56.574219 241.832031 65.550781 250.476563 69.128906 246.96875 C 71.421875 244.722656 73.753906 246.125 72.835938 248.992188 C 70.871094 255.132813 85.5 254.800781 84.84375 250.234375 C 84.332031 246.691406 87.886719 246.042969 89.003906 248.945313 C 90.488281 252.804688 101.792969 247.152344 100.796875 244.160156 C 99.800781 241.167969 101.828125 239.972656 103.457031 241.832031 C 105.785156 244.492188 114.761719 237.84375 113.214844 235.304688 C 111.65625 232.746094 120.355469 227.785156 119.851563 230.410156 Z M 119.085938 226.980469 C 116.378906 227.011719 115.058594 231.28125 112.933594 229.285156 C 110.5 227 106.617188 230.160156 108.664063 232.523438 C 110.105469 234.183594 103.457031 240.503906 101.648438 238.070313 C 100.074219 235.945313 94.78125 237.546875 95.585938 240.058594 C 97.359375 245.601563 89.394531 247.671875 89.316406 245.710938 C 89.160156 241.832031 82.621094 241.042969 82.289063 243.605469 C 81.621094 248.703125 76.054688 250.011719 76.054688 245.136719 C 76.054688 240.257813 73.703125 239.257813 70.980469 240.722656 C 68.265625 242.1875 62.066406 239.867188 63.617188 236.320313 C 65.167969 232.773438 65.484375 228.882813 61.273438 229.769531 C 57.0625 230.65625 52.585938 228.089844 54.578125 225.207031 C 56.574219 222.324219 55.0625 220.101563 51.457031 219.953125 C 47.851563 219.804688 42.835938 218.863281 43.554688 212.738281 C 44.273438 206.617188 45.226563 196.425781 45.625 194.566406 C 46.019531 192.703125 47.21875 192.683594 48.09375 192.535156 C 72.976563 188.410156 120.945313 210.769531 122.410156 211.464844 C 123.875 212.15625 120.277344 226.96875 119.085938 226.980469 Z M 142.582031 211.464844 C 142.109375 212.570313 136.871094 211.574219 140.808594 213.015625 C 141.671875 213.332031 143.605469 216.070313 148.171875 217.234375 C 149.398438 215.773438 151.125 215.992188 152.460938 216.433594 C 154.1875 217.003906 158.316406 219.867188 157.210938 223.210938 C 156.105469 226.558594 151.667969 227.644531 148.789063 226.09375 C 147.390625 225.34375 146.402344 223.265625 146.910156 220.3125 C 140.324219 216.15625 102.859375 196.863281 85.5 191.957031 C 70.207031 187.632813 52.113281 182.125 26.648438 192.398438 C 20.332031 194.949219 17.839844 189.796875 12.019531 191.292969 C 12.019531 193.953125 11.023438 196.695313 7.363281 195.945313 C 5.578125 195.582031 4.09375 193.929688 4.09375 190.40625 C 4.09375 186.882813 5.320313 185.085938 7.140625 185.085938 C 8.707031 185.085938 11.769531 185.390625 11.628906 188.402344 C 11.601563 189.378906 14.367188 189.945313 16.230469 187.746094 C 18.667969 184.863281 19.46875 185.148438 24.875 183.753906 C 30.804688 182.226563 72.476563 180.523438 104.453125 188.632813 C 112.273438 190.613281 113.546875 192.636719 110.222656 193.078125 C 106.898438 193.523438 107.367188 195.546875 111.105469 195.058594 C 123.074219 193.507813 143.558594 209.164063 142.582031 211.464844 Z M 112.765625 109.496094 C 114.097656 103.179688 113.457031 98.757813 112.1875 96.03125 C 110.914063 93.304688 112.511719 92.285156 113.085938 91.515625 C 116.066406 87.519531 115.816406 87.390625 115.160156 82.5625 C 114.507813 77.730469 110.621094 69.101563 120.09375 66.15625 C 140.03125 59.953125 163.699219 83.183594 164.03125 87.839844 C 164.363281 92.492188 166.839844 92.871094 169.167969 92.539063 C 171.496094 92.207031 171.96875 92.570313 169.625 94.203125 C 167.28125 95.835938 162.492188 99.15625 164.078125 102.179688 C 165.664063 105.207031 181.15625 139.464844 179.339844 158.714844 C 176.605469 187.632813 150.074219 193.117188 140.269531 190.539063 C 106.449219 181.648438 103.726563 146.050781 104.726563 137.070313 C 105.722656 128.09375 109.109375 126.785156 109.109375 123.792969 C 109.109375 120.800781 105.589844 120.917969 106.496094 118.566406 C 107.402344 116.210938 111.4375 115.8125 112.765625 109.496094 Z M 102.292969 117.476563 C 98.300781 115.980469 91.820313 114.984375 89.757813 116.3125 C 87.859375 117.539063 82.675781 98.691406 93.316406 95.863281 C 97.023438 94.878906 104.6875 93.730469 108.25 100.84375 C 109.890625 104.121094 105.398438 118.640625 102.292969 117.476563 Z M 108.222656 94.203125 C 107.113281 95.421875 106.351563 94.394531 104.6875 93.730469 C 103.023438 93.0625 97.914063 91.429688 94.8125 92.097656 C 91.707031 92.761719 93.789063 89.84375 94.691406 89.535156 C 97.21875 88.667969 99.390625 88.925781 100.167969 87.265625 C 100.941406 85.601563 100.910156 85.828125 102.347656 87.109375 C 103.785156 88.390625 109.332031 92.980469 108.222656 94.203125 Z M 104.296875 61.871094 C 102.230469 63.226563 100.53125 66.773438 101.460938 70.59375 C 102.390625 74.410156 104.453125 80.070313 101.792969 82.5625 C 99.132813 85.058594 96.308594 85.070313 94.144531 85.238281 C 91.984375 85.402344 90.738281 84.902344 92.480469 82.273438 C 94.222656 79.648438 99.085938 69.148438 94.3125 61.449219 C 89.160156 53.136719 75.980469 49.277344 66.882813 49.8125 C 59.230469 50.261719 45.035156 56.625 40.613281 56.027344 C 36.191406 55.433594 35.261719 55.589844 32.765625 53.929688 C 30.273438 52.265625 31.59375 52.152344 33.144531 52.609375 C 35.574219 53.320313 43.109375 54.136719 46.96875 51.058594 C 50.035156 48.609375 63.851563 43.273438 75.195313 43.992188 C 91.320313 45.015625 102.910156 54.007813 105.003906 57.175781 C 106.160156 58.929688 105.949219 60.785156 104.296875 61.871094 Z M 109.21875 35.128906 C 109.441406 37.453125 107.820313 50.230469 108.085938 52.277344 C 108.351563 54.324219 107.878906 54.574219 106.449219 53.082031 C 105.019531 51.589844 99.296875 47.761719 97.378906 46.921875 C 95.460938 46.082031 96.15625 45.378906 97.804688 44.882813 C 104.996094 42.710938 104.9375 34.011719 105.894531 33.132813 C 108.664063 30.582031 114.082031 32.117188 116.203125 34.242188 C 117.089844 35.128906 116.757813 35.792969 115.648438 35.128906 C 114.199219 34.257813 113.320313 32.800781 112.214844 33.6875 C 111.105469 34.574219 112.324219 36.789063 112.289063 38.097656 C 112.257813 39.335938 111.65625 39.449219 111.105469 37.785156 C 110.550781 36.125 110.550781 35.460938 110.105469 34.128906 C 109.851563 33.363281 108.996094 32.800781 109.21875 35.128906 Z M 153.632813 62.84375 C 149.992188 60.558594 139.441406 55.070313 131.609375 53.90625 C 122.203125 52.515625 119.070313 53.296875 110.773438 56.519531 C 109.0625 57.183594 111.824219 44.636719 112.078125 43.066406 C 112.335938 41.492188 112.988281 41.445313 112.988281 42.664063 C 112.988281 44.144531 113.726563 50.53125 113.835938 51.714844 C 113.941406 52.898438 115.804688 54.714844 116.867188 52.417969 C 117.53125 50.976563 116.023438 50.300781 117.53125 49.867188 C 119.085938 49.425781 130.421875 49.679688 135.597656 51.53125 C 144.484375 54.710938 152.863281 61.613281 154.195313 62.5 C 155.523438 63.386719 155.425781 63.96875 153.632813 62.84375 "/>
<path style=" stroke:none;fill-rule:nonzero;fill:rgb(0%,0%,0%);fill-opacity:1;" d="M 90.488281 270.425781 C 90.933594 252.25 80.734375 261.558594 81.179688 275.304688 C 81.488281 284.925781 85.476563 427.996094 88.242188 512.925781 C 89.425781 549.292969 91.546875 549.140625 91.472656 512.488281 C 91.292969 425.101563 90.34375 276.359375 90.488281 270.425781 "/>
<path style=" stroke:none;fill-rule:nonzero;fill:rgb(0%,0%,0%);fill-opacity:1;" d="M 73.253906 267.234375 C 73.753906 246.875 62.332031 257.300781 62.828125 272.695313 C 63.175781 283.472656 67.640625 347.953125 70.738281 443.070313 C 72.0625 483.800781 74.441406 483.628906 74.355469 442.578125 C 74.15625 344.707031 73.09375 273.878906 73.253906 267.234375 "/>
</g>
</svg>
