<?xml version="1.0" encoding="UTF-8"?>
<svg xmlns="http://www.w3.org/2000/svg" xmlns:xlink="http://www.w3.org/1999/xlink" width="514pt" height="275pt" viewBox="0 0 514 275" version="1.1">
<g id="surface1">
<path style=" stroke:none;fill-rule:nonzero;fill:rgb(0%,0%,0%);fill-opacity:1;" d="M 59.9375 105.519531 C 66.195313 99.65625 84.488281 90.058594 100.855469 93.058594 C 101.90625 93.25 102.804688 92.457031 100.878906 91.285156 C 84.859375 82.175781 66.34375 93.660156 51.996094 101.488281 C 51.554688 99.886719 51.464844 97.757813 49.421875 97.046875 C 37.660156 100.53125 29.660156 113.589844 16.027344 113.074219 C 14.039063 113 13.625 110.519531 13.804688 109.128906 C 14.367188 104.761719 13.054688 99.960938 10.160156 96.464844 C 9.0625 95.140625 9.242188 93.640625 11.933594 92.0625 C 15.722656 89.839844 19.320313 85.648438 23.316406 83.402344 C 25.75 82.03125 31.71875 75.375 34.269531 71.433594 C 36.28125 68.332031 39.394531 67.046875 41.714844 64.425781 C 42.40625 63.644531 43.054688 62.851563 43.957031 63.449219 C 44.972656 64.121094 45.71875 64.367188 47.097656 62.117188 C 48.289063 60.171875 49.738281 59.976563 53.328125 60.550781 C 53.683594 58.816406 54.882813 58.929688 55.90625 58.941406 C 58.019531 58.964844 57.25 56.507813 56.171875 55.132813 C 58.835938 53.710938 65.105469 46.363281 66.175781 44.792969 C 67.550781 42.777344 68.046875 41.105469 66.191406 40.289063 C 65.742188 40.09375 65.566406 39.636719 65.421875 39.128906 C 65.246094 38.515625 65.121094 37.824219 64.613281 37.429688 C 63.691406 36.703125 64.109375 35.503906 65.40625 34.355469 C 64.464844 32.617188 65.703125 31.296875 66.53125 29.902344 C 66.722656 29.585938 66.382813 29.195313 66.074219 29.332031 C 63.457031 30.507813 59.269531 32.785156 57.035156 34.699219 C 54.371094 36.984375 51.320313 39.023438 48.3125 41.113281 C 38.835938 47.699219 33.925781 52.34375 33.902344 59.59375 C 33.867188 70.125 22.886719 75.601563 17.242188 83.835938 C 15.910156 85.777344 10.695313 90.003906 8.5 91.882813 C 3.976563 95.753906 -0.0625 99.679688 0.832031 104.023438 C 1.675781 108.109375 6.382813 111.285156 9.515625 114.042969 C 10.566406 114.972656 12.335938 115.710938 13.789063 116.058594 C 25.75 118.910156 37.558594 108.398438 40.9375 105.183594 C 42.582031 103.621094 44.234375 101.890625 46.117188 101.308594 C 46.386719 101.222656 46.597656 101.582031 46.425781 101.804688 C 40.609375 109.484375 34.308594 116.449219 27.378906 122.703125 C 26.375 123.609375 29.191406 126.109375 30.8125 126.335938 C 34.84375 126.902344 39.539063 124.511719 41.679688 122.851563 C 48.097656 117.875 54.136719 110.957031 59.9375 105.519531 "/>
<path style=" stroke:none;fill-rule:nonzero;fill:rgb(0%,0%,0%);fill-opacity:1;" d="M 174.257813 197.515625 C 175.855469 195.585938 177.546875 195.144531 178.003906 192.242188 C 178.078125 190.925781 179.054688 189.371094 179.792969 187.820313 C 180.523438 186.289063 179.710938 185.128906 178.414063 185.265625 C 174.328125 185.699219 171.335938 189.105469 168.414063 191.617188 L 166.460938 190.019531 C 166.460938 190.019531 163.734375 195.070313 161.042969 193.21875 C 160.601563 188.957031 155.183594 188.15625 152.695313 184.605469 C 154.664063 183.332031 155.914063 179.28125 154.039063 177.671875 C 152.046875 175.960938 148.167969 176.8125 146.035156 175.011719 C 143.402344 172.519531 141.925781 170.050781 142.851563 168.660156 C 145.144531 165.207031 143.222656 162.140625 141.0625 159.183594 C 139.933594 157.632813 137.433594 153.738281 138.664063 152.015625 C 136.445313 145.710938 133.515625 139.582031 130.941406 133.453125 C 133.269531 132.230469 131.621094 129.472656 131.765625 127.441406 C 132.078125 122.871094 122.382813 107.132813 112.734375 103.085938 C 106.769531 105.523438 104.566406 97.492188 99.949219 98.289063 C 108.828125 112.320313 107.230469 131.144531 113.714844 145.886719 C 114.875 145.46875 114.953125 143.839844 115.453125 142.546875 C 115.515625 142.378906 115.773438 142.4375 115.828125 142.628906 C 118.246094 151.011719 123.96875 168.929688 131.296875 169.863281 C 135.902344 181.972656 138.460938 187.484375 129.765625 192.828125 C 119.628906 199.054688 109.300781 205.1875 99.394531 212.121094 C 93.160156 216.484375 75.667969 233.75 65.765625 245.3125 C 59.59375 252.390625 48.421875 254.492188 39.542969 256.34375 C 34.46875 257.394531 32.101563 260.5 34.105469 265.582031 C 35.203125 268.367188 37.238281 271.398438 40.863281 271.746094 C 50.121094 273.011719 58.460938 272 65.761719 266.476563 C 78.902344 254.933594 88.316406 239.394531 102.167969 229.003906 C 113.535156 223.851563 138.859375 214.589844 139.769531 214.242188 C 148.019531 211.105469 156.820313 209.222656 164.726563 205.074219 C 169.726563 202.449219 171.519531 200.820313 174.257813 197.515625 "/>
<path style=" stroke:none;fill-rule:nonzero;fill:rgb(0%,0%,0%);fill-opacity:1;" d="M 68.234375 16.144531 C 69.503906 18.722656 73.433594 24.742188 76.589844 26.019531 C 77.90625 26.550781 78.117188 26.296875 77.742188 25.238281 C 77.265625 23.953125 75.964844 22.992188 75.261719 21.765625 C 74.054688 19.65625 76.351563 17.4375 79.089844 17.828125 C 79.96875 17.953125 81.199219 18.039063 81.722656 17.972656 C 83.300781 17.757813 84.894531 19.304688 85.992188 20.226563 C 91.316406 24.6875 98.140625 25.480469 103.492188 29.78125 C 104.996094 30.992188 105.859375 31.660156 107.671875 31.890625 C 110.191406 32.214844 108.0625 33.894531 108.988281 35.9375 C 113.476563 45.828125 120.496094 54.605469 126.785156 63.710938 C 128.117188 65.648438 130.570313 66.472656 132.191406 63.652344 C 133.058594 62.148438 133.550781 60.394531 134.492188 58.949219 C 139.910156 60.992188 142.910156 65.839844 146.65625 69.164063 C 149.144531 71.296875 151.808594 68.097656 153.671875 66.675781 C 156.003906 69.921875 161.066406 66.691406 163.445313 69.789063 C 164.746094 71.480469 167.242188 72.304688 169.726563 68.289063 C 171.613281 65.242188 175.480469 63.121094 177.746094 65.695313 C 178.703125 66.78125 179.503906 67.691406 180.746094 67.953125 C 182.890625 68.402344 184.417969 70.894531 186.402344 71.121094 C 189.679688 71.488281 192.25 66.230469 192.65625 62.769531 C 192.65625 62.769531 188.351563 61.539063 184.597656 59.15625 C 186.515625 58.496094 190.480469 57.203125 194.269531 56.425781 C 196.023438 56.0625 195.921875 55.636719 193.980469 54.996094 C 184.539063 51.878906 174.738281 49.820313 164.863281 47.761719 C 158.46875 45.007813 152.695313 40.835938 145.324219 40.390625 C 140.886719 35.597656 135.558594 32.84375 129.34375 32.132813 C 122.148438 22.988281 109.539063 21.035156 98.351563 22.808594 C 94.945313 20.492188 91.125 18.703125 87.953125 16.097656 C 83.183594 12.179688 72.179688 1.53125 64.996094 0.121094 C 60.304688 -0.800781 60.820313 1.273438 61.53125 3.515625 C 62.960938 8.050781 66.140625 11.878906 68.234375 16.144531 "/>
<path style=" stroke:none;fill-rule:nonzero;fill:rgb(0%,0%,0%);fill-opacity:1;" d="M 294.269531 148.003906 C 290.167969 147.191406 285.574219 149.3125 281.546875 150.0625 C 277.726563 150.859375 273.554688 149.261719 270.355469 152.015625 C 264.082031 152.152344 248.988281 156.105469 245.972656 157.265625 C 242.300781 158.679688 238.761719 157.746094 235.214844 157.09375 C 227.53125 155.679688 214.449219 164.527344 209.757813 167.941406 C 206.949219 169.980469 204.460938 167.796875 201.589844 169.511719 C 194.585938 173.703125 189.824219 181.429688 187.59375 188.777344 C 188.839844 189.398438 190.347656 190.464844 191.679688 190.019531 C 193.421875 186.851563 194.535156 188.238281 195.976563 189.355469 C 197.625 190.640625 199.003906 190.136719 200.53125 188.9375 C 203.335938 186.734375 207.457031 187.167969 209.253906 183.542969 C 209.386719 183.269531 209.882813 179.984375 211.214844 179.453125 C 211.570313 180.519531 210.3125 183.152344 212.84375 184.609375 L 223.027344 177.589844 C 224.082031 178.019531 221.792969 180.933594 224.003906 181.40625 C 231.550781 173.859375 241.496094 175.28125 248.601563 166.664063 C 254.113281 166.445313 259.5625 164.597656 263.429688 161.941406 C 272.4375 155.75 284.214844 155.75 293.898438 152.078125 C 295.847656 151.339844 296.234375 148.394531 294.269531 148.003906 "/>
<path style=" stroke:none;fill-rule:nonzero;fill:rgb(0%,0%,0%);fill-opacity:1;" d="M 492.449219 125.621094 C 464.933594 87.164063 412.898438 63.128906 389.546875 61.007813 C 372.316406 59.445313 359.378906 47.609375 342.699219 44.621094 C 325.972656 41.621094 289.007813 43.882813 253.753906 50.960938 C 237.402344 51.535156 222.050781 54.265625 205.910156 55.503906 C 203.035156 55.722656 204.0625 56.339844 206.179688 56.445313 C 233.75 57.84375 261.628906 58.226563 289.367188 54.0625 C 296.519531 52.988281 343.984375 46.75 369.460938 65.078125 C 384.40625 69.746094 399.441406 80.464844 408.09375 94.539063 C 408.335938 94.929688 415.050781 105.105469 419.554688 106.386719 C 422.070313 107.101563 422.980469 105.453125 423.804688 103.707031 C 430.371094 112.898438 436.152344 121.050781 441.53125 123.132813 C 442.5625 123.53125 443.605469 123.640625 444.585938 122.886719 C 448.136719 125.195313 451.777344 127.238281 455.152344 129.902344 C 459.222656 129.007813 461.789063 133.085938 463.996094 135.539063 C 465.480469 137.195313 467.242188 137.863281 469.105469 138.273438 C 470.636719 138.609375 474.871094 138.863281 476.050781 139.585938 C 477.835938 140.792969 477.601563 138.734375 478.269531 139.167969 C 479.691406 140.234375 480.839844 141.945313 482.15625 143.46875 C 482.15625 143.46875 482.820313 141.746094 483.289063 142.394531 C 485.496094 145.421875 487.878906 147.710938 490.9375 149.085938 C 490.9375 149.085938 490.792969 146.28125 491.925781 146.816406 C 494.035156 147.808594 494.539063 150.878906 496.976563 152.015625 C 496.976563 152.015625 497.066406 150.09375 497.570313 150.304688 C 502.71875 152.460938 508.238281 155.679688 513.917969 153.839844 C 507.425781 148.160156 495.480469 129.855469 492.449219 125.621094 "/>
<path style=" stroke:none;fill-rule:nonzero;fill:rgb(0%,0%,0%);fill-opacity:1;" d="M 347.925781 210.777344 C 347.214844 211.527344 344.816406 211.277344 345.378906 209.476563 C 346.050781 207.308594 345.816406 205.320313 345.78125 203.0625 C 345.765625 201.792969 345.699219 201.09375 344.09375 201.519531 C 341.988281 202.074219 338.480469 202.535156 336.519531 200.234375 C 336.199219 199.855469 333.847656 198.546875 332.339844 198.988281 C 331.410156 214.34375 319.011719 231.117188 300.214844 245.488281 C 291.382813 252.242188 287.46875 244.898438 275.464844 246.285156 C 271.054688 247.085938 262.597656 253.355469 271.203125 260.117188 C 276.441406 264.230469 292.058594 266.199219 300.539063 262.023438 C 307.765625 258.46875 333.5625 231.753906 340.585938 228.152344 C 345.269531 225.753906 352.179688 216.898438 353.90625 212.242188 C 354.851563 209.375 350.261719 208.332031 347.925781 210.777344 "/>
<path style=" stroke:none;fill-rule:nonzero;fill:rgb(0%,0%,0%);fill-opacity:1;" d="M 429.015625 251.488281 C 423.195313 248.101563 413.269531 242.824219 402.050781 226.902344 C 394.902344 216.753906 389.835938 205.714844 385.796875 194.195313 C 382.8125 185.925781 373.097656 185.226563 367.238281 179.808594 C 355.25 159.828125 365.816406 136.917969 373.011719 118.09375 C 377.804688 105.570313 383.046875 89.675781 375.851563 76.890625 C 374.429688 75.734375 372.613281 77.078125 373.277344 78.488281 C 375.140625 81.507813 372.476563 84.347656 371.058594 86.746094 C 365.894531 105.5625 355.347656 122.113281 350.246094 140.863281 C 349.289063 144.371094 347.578125 151.886719 351.253906 152.992188 C 350.761719 157.207031 350.722656 161.425781 352.496094 164.800781 C 349.921875 170.574219 356.316406 174.480469 356.316406 179.453125 C 354.851563 179.683594 353.316406 180.8125 352.375 181.542969 C 351.171875 182.472656 349.402344 181.976563 348.226563 180.964844 C 348.035156 180.796875 342.019531 176.96875 338.46875 176.96875 C 333.140625 174.125 328.34375 169.773438 323.460938 166.046875 C 323.105469 161.871094 316.621094 160.628906 317.953125 156.1875 C 313.691406 154.855469 316.53125 149.171875 312.535156 147.484375 C 313.425781 140.46875 305.945313 139.238281 301.347656 134.433594 C 299.519531 158.210938 314.894531 182.484375 347.765625 196.824219 C 350.941406 198.210938 364.203125 206.753906 368.871094 209.765625 C 373.246094 212.589844 406.457031 248.722656 413.882813 260.320313 C 417.84375 266.507813 422.382813 272.089844 425.339844 273.6875 C 433.921875 278.324219 436.894531 268.984375 436.230469 262.519531 C 435.636719 256.722656 434.171875 254.488281 429.015625 251.488281 "/>
<path style=" stroke:none;fill-rule:nonzero;fill:rgb(0%,0%,0%);fill-opacity:1;" d="M 226.71875 239.761719 C 220.382813 239.058594 217.515625 240.835938 214.4375 245.242188 C 211.664063 249.21875 207.941406 247.855469 204.796875 246.285156 C 201.648438 244.710938 198.863281 240.785156 194.25 233.867188 C 189.625 226.929688 179.101563 219.019531 177.53125 214.023438 C 174.527344 204.480469 170.058594 207.394531 170.246094 216.730469 C 170.402344 224.476563 167.261719 220.09375 161.621094 216.707031 C 157.457031 214.210938 156.765625 217.285156 159.078125 220.339844 C 159.992188 221.546875 186.847656 251.605469 189.648438 254.355469 C 194.988281 259.605469 205.441406 263.488281 213.675781 262.472656 C 221.90625 261.453125 229.585938 259.511719 231.988281 255.164063 C 234.394531 250.816406 231.714844 240.316406 226.71875 239.761719 "/>
</g>
</svg>
