<?xml version="1.0" encoding="UTF-8"?>
<svg xmlns="http://www.w3.org/2000/svg" xmlns:xlink="http://www.w3.org/1999/xlink" width="416pt" height="527pt" viewBox="0 0 416 527" version="1.1">
<g id="surface1">
<path style=" stroke:none;fill-rule:nonzero;fill:rgb(0%,0%,0%);fill-opacity:1;" d="M 409.03125 98.152344 C 405.550781 96.679688 401.089844 95.152344 400.757813 94.847656 C 400.976563 94.078125 404.390625 83.65625 403.863281 82.292969 C 402.703125 79.269531 400.488281 77.042969 397.234375 75.597656 C 394.382813 77.582031 390.175781 91.703125 389.863281 92.214844 C 389.285156 92.417969 369.398438 90.015625 368.074219 89.21875 C 367.359375 88.785156 356.734375 66.539063 356.613281 65.808594 C 356.167969 65.378906 355.65625 65.160156 355.089844 65.175781 C 351.160156 67.121094 348.972656 68.523438 348.515625 69.402344 C 348.203125 69.980469 345.941406 79.773438 345.738281 80.261719 C 345.132813 81.71875 344.222656 82.558594 343.007813 82.792969 C 341.589844 83.0625 333.097656 81.714844 331.988281 80.023438 C 332.757813 79.148438 344.449219 65.136719 344.449219 65.136719 C 344.800781 64.757813 344.84375 64.097656 344.597656 63.164063 C 343.546875 62.179688 334.539063 55.226563 333.960938 55.523438 C 332.679688 57.519531 326.335938 65.460938 324.363281 67.539063 C 323.6875 67.347656 317.964844 63.921875 315.535156 63.675781 C 315.074219 63.921875 314.765625 64.285156 314.628906 64.785156 C 314.832031 65.378906 318.691406 78.378906 318.640625 79.160156 C 315.761719 79.484375 311.09375 78.851563 304.625 77.257813 C 303.695313 75.410156 300.519531 49.277344 300.152344 47.058594 C 298.902344 39.507813 288.375 41.617188 287.664063 49.460938 C 287.140625 55.277344 286.796875 69.300781 286.820313 70.023438 C 286.453125 70.304688 286.050781 70.347656 285.605469 70.15625 C 284.820313 64.609375 283.660156 44.332031 283.226563 42.765625 C 281.042969 34.867188 272.570313 36.113281 272.429688 44.207031 C 272.320313 50.394531 273.3125 63.714844 273.183594 64.421875 C 272.847656 64.136719 271.632813 63.59375 271.632813 63.457031 C 271.632813 63.457031 270.46875 47.234375 269.175781 43.292969 C 267.402344 37.972656 257.816406 34.976563 258.875 45.101563 C 259.144531 47.71875 259.683594 52.230469 260.492188 58.613281 C 260.964844 62.367188 261.195313 64.296875 261.167969 64.40625 C 261.046875 64.917969 260.816406 65.363281 260.453125 65.742188 C 257.78125 65.417969 255.996094 64.742188 255.09375 63.730469 C 254.324219 52.554688 253.609375 45.425781 252.933594 42.335938 C 250.40625 30.707031 244.457031 31.589844 244.023438 43.871094 C 243.808594 50.042969 244.441406 61.03125 244.429688 61.488281 C 244.441406 62.085938 243.957031 62.488281 242.945313 62.730469 C 241.945313 61.867188 239.71875 47.746094 239.433594 46.289063 C 238.507813 41.707031 233.507813 41.082031 231.875 46.152344 C 231.578125 47.300781 229.066406 60.328125 228.714844 60.9375 C 225.136719 61.300781 222.816406 60.4375 221.75 58.371094 C 221.75 58.371094 219.203125 51.96875 217.246094 47.601563 C 213.089844 38.3125 207.304688 40.902344 207.617188 47.703125 C 207.683594 49.179688 207.894531 50.953125 208.25 53.023438 C 208.25 53.023438 208.382813 55.859375 207.804688 56.496094 C 206.546875 56.574219 201.984375 55.507813 194.089844 53.296875 C 185.527344 50.894531 174.890625 49.097656 162.171875 47.910156 C 141.453125 45.960938 115.464844 35.136719 115.464844 35.136719 C 113.316406 34.140625 106.511719 31.265625 95.050781 26.484375 C 90.488281 24.582031 68.714844 19.371094 64.070313 17.601563 C 57.386719 15.0625 49.015625 12.496094 38.960938 9.90625 C 35.988281 9.136719 9.082031 -0.0585938 8.328125 0.253906 C 1.722656 2.957031 -4.929688 18.671875 4.683594 25.566406 C 6.085938 26.578125 48.152344 40.023438 50.554688 41.214844 C 50.664063 41.765625 50.933594 45.035156 51.378906 51.015625 C 52.027344 59.679688 55.347656 71.765625 61.367188 87.289063 C 62.125 89.246094 63.773438 97.832031 65.015625 103.960938 C 68.375 120.511719 70.898438 141.046875 72.574219 165.5625 C 72.613281 166.222656 75.597656 187.335938 79.730469 203.132813 C 81.714844 210.691406 82.835938 216.941406 83.105469 221.882813 C 83.914063 236.800781 84.683594 245.898438 85.398438 249.195313 C 89.476563 267.960938 91.960938 289.910156 92.824219 315.019531 C 92.863281 316.207031 93.132813 319.476563 93.632813 324.820313 C 94.253906 331.53125 96.007813 342.082031 93.902344 346.664063 C 92.011719 347.332031 88.617188 344.820313 83.722656 339.109375 C 81.953125 337.042969 81.769531 337.980469 82.289063 339.699219 C 83.027344 342.132813 84.550781 345.632813 86.855469 350.214844 C 86.910156 350.335938 93.148438 360.691406 92.648438 361.757813 C 91.757813 363.660156 88.03125 363.878906 87.453125 363.6875 C 87.152344 363.59375 86.167969 362.742188 84.507813 361.136719 C 83.777344 360.433594 81.714844 358.800781 78.3125 356.25 C 69.765625 349.824219 69.089844 345.085938 68.929688 340.414063 C 68.816406 337.617188 68.011719 337.421875 66.769531 339.496094 C 65.039063 342.4375 64.148438 344.761719 64.070313 346.488281 C 63.921875 350.011719 65.554688 356.773438 67.578125 359.042969 C 68.390625 359.949219 70.699219 362.160156 74.53125 365.699219 C 77.433594 368.371094 78.90625 369.953125 78.945313 370.4375 C 72.601563 366.441406 67.957031 363.796875 65.039063 362.5 C 65.121094 363.550781 66.566406 366.089844 69.359375 370.113281 C 70.320313 371.492188 70.804688 372.542969 70.820313 373.257813 C 70.414063 373.8125 68.09375 375.3125 68.09375 375.3125 C 66.808594 376.054688 65.121094 377.902344 63.054688 380.859375 C 60.355469 384.707031 56.96875 387.664063 52.863281 389.703125 C 48.4375 391.902344 48.070313 394.953125 51.769531 398.839844 C 52.5 399.609375 53.296875 400.582031 54.171875 401.769531 C 56.253906 404.605469 58.871094 406.480469 62.03125 407.386719 C 68.269531 409.183594 74.207031 412.046875 79.851563 415.972656 C 81.59375 417.1875 84.914063 419.160156 84.914063 419.160156 C 87.503906 420.621094 86.699219 433.710938 86.246094 443.867188 C 85.421875 462.457031 84.066406 499.855469 80.808594 510.472656 C 80.863281 510.621094 93.984375 526.050781 94.984375 526.28125 C 95.496094 526.402344 102.855469 525.351563 117.042969 523.148438 C 123.105469 522.203125 155.128906 518.046875 181.25 514.171875 C 187.917969 513.1875 203.171875 511.269531 207.34375 510.660156 C 212.378906 509.933594 217.753906 509.488281 223.464844 509.339844 C 225.636719 509.285156 228.230469 508.664063 231.238281 507.503906 C 237.679688 505.003906 253.636719 502.398438 279.097656 499.660156 C 287.46875 498.753906 292.773438 497.878906 295 497 C 296.753906 496.3125 297.808594 495.636719 298.160156 494.976563 C 298.214844 494.878906 298.441406 492.9375 298.835938 489.167969 C 300.089844 477.222656 302.210938 466.609375 305.179688 457.351563 C 306.03125 454.675781 307.097656 449.953125 308.378906 443.160156 C 308.378906 443.160156 309.648438 438.992188 310.308594 435.964844 C 311.105469 432.308594 313.144531 424.976563 313.144531 424.976563 C 313.292969 424.492188 314.332031 420.183594 316.25 412.085938 C 316.652344 410.398438 317.597656 408.089844 319.109375 405.160156 C 320.785156 401.894531 321.90625 397.628906 322.460938 392.359375 C 323.472656 382.683594 325.523438 372.71875 328.589844 362.472656 C 330.222656 357.019531 331.8125 350.929688 333.367188 344.191406 C 335.015625 337.039063 338.929688 323.132813 345.125 302.464844 C 346.8125 296.835938 349.835938 289.074219 350.105469 288.304688 C 352.335938 281.945313 354.347656 276.691406 356.128906 272.5625 C 358.71875 266.539063 362.390625 253.863281 367.128906 234.558594 L 368.628906 229.105469 C 368.675781 228.886719 369.332031 226.996094 370.445313 223.855469 C 378.183594 202.015625 407.953125 119.757813 407.953125 119.757813 C 407.996094 119.648438 411.546875 116.796875 411.8125 116.519531 C 412.398438 115.910156 412.914063 115.195313 413.359375 114.378906 C 414.140625 112.941406 415.742188 105.3125 415.742188 105.3125 C 416.480469 101.628906 413.257813 99.949219 409.03125 98.152344 Z M 58.667969 401.003906 C 58.648438 399.613281 59.875 398.144531 62.347656 396.597656 C 63.175781 396.078125 63.746094 395.859375 64.070313 395.9375 C 64.617188 396.074219 65.417969 397.085938 65.417969 397.085938 C 65.417969 397.167969 60.757813 401.457031 58.667969 401.003906 Z M 397.371094 78.742188 L 401.082031 83.199219 C 401.082031 83.199219 396.820313 93.632813 396.15625 94.132813 C 395.488281 94.632813 392.3125 93.347656 391.910156 92.359375 Z M 385.671875 101 C 388.171875 101.5 385.886719 109.394531 383.523438 108.667969 C 381.140625 107.933594 383.171875 100.5 385.671875 101 Z M 369.667969 109.777344 C 370.746094 107.753906 374.316406 110.859375 374.527344 112.75 C 374.742188 114.640625 368.871094 111.269531 369.667969 109.777344 Z M 366.164063 113.609375 C 367.695313 116.199219 372.476563 124.507813 376.308594 131.320313 C 379.679688 121.675781 381.839844 115.5 381.839844 115.5 C 383.15625 110.96875 386.464844 115.265625 384.472656 119.359375 C 384.039063 120.246094 381.820313 126.324219 378.578125 135.386719 C 380.035156 138.019531 381.121094 140.046875 381.445313 140.800781 C 382.65625 143.585938 382.980469 150.605469 379.171875 145.832031 C 378.371094 144.824219 377.429688 143.304688 376.40625 141.472656 C 364.007813 176.277344 341.546875 240.453125 338.839844 247.832031 C 335.171875 257.832031 332.171875 256.164063 336.507813 244.5 C 339.652344 236.027344 362.121094 171.867188 374.203125 137.34375 C 374.101563 137.148438 374 136.953125 373.898438 136.757813 C 371.515625 141.433594 366.546875 149.988281 363.28125 145.3125 C 362.574219 144.296875 368.125 135.636719 371.238281 131.464844 C 368.699219 126.363281 366.148438 121.230469 364.144531 118.144531 C 359.8125 111.480469 364.753906 111.222656 366.164063 113.609375 Z M 355.507813 70.671875 C 356.507813 71.835938 360.773438 87.816406 360.773438 87.816406 L 350.671875 85.164063 L 350.378906 73.101563 C 350.378906 73.101563 354.507813 69.503906 355.507813 70.671875 Z M 344.71875 108.457031 C 345.460938 108.46875 349.222656 108.238281 352.21875 108.363281 C 352.410156 107.75 352.671875 106.769531 352.847656 105.765625 C 351.386719 105.8125 349.894531 105.640625 349.445313 104.40625 C 348.777344 102.574219 352.28125 91.445313 352.28125 91.445313 C 353.40625 91.496094 356.679688 90.828125 357.679688 92.660156 C 358.679688 94.496094 356.589844 105.554688 354.839844 105.644531 C 354.699219 105.652344 354.539063 105.664063 354.382813 105.675781 C 354.160156 106.507813 353.894531 107.53125 353.664063 108.464844 C 355.207031 108.621094 356.265625 108.9375 356.0625 109.535156 C 355.449219 111.328125 355.3125 112.234375 350.128906 111.351563 C 344.945313 110.46875 342.3125 108.414063 344.71875 108.457031 Z M 352.589844 127.25 C 355.414063 131.402344 351.878906 134.46875 347.511719 131.457031 C 347.078125 131.15625 346.589844 130.726563 346.0625 130.195313 C 340.34375 150.964844 314.339844 245.492188 311.601563 257.484375 C 308.527344 270.972656 305.507813 273.5 309.839844 256.5 C 313.785156 241.015625 338.742188 143.984375 343.164063 126.785156 C 341.296875 124.34375 339.269531 121.320313 337.429688 118.355469 C 333.414063 134.011719 319.355469 188.863281 316.507813 200.832031 C 313.171875 214.832031 310.171875 212.164063 313.507813 199.832031 C 316.445313 188.953125 331.574219 128.546875 335.101563 114.449219 C 333.5 111.652344 332.25 109.210938 331.71875 107.78125 C 329.957031 103.03125 329.113281 99.714844 332.621094 102.148438 C 336.144531 104.59375 349.769531 123.101563 352.589844 127.25 Z M 329.410156 96.011719 C 327.234375 96.625 322.957031 86.8125 328.789063 86.976563 C 334.625 87.144531 332.683594 95.085938 329.410156 96.011719 Z M 318.367188 66.039063 C 319.253906 65.492188 322.6875 70.828125 323.769531 73.332031 C 324.851563 75.832031 325.660156 77.246094 326.339844 75 C 327.019531 72.753906 335.648438 59.558594 335.648438 59.558594 L 341.183594 64.554688 L 327.171875 80.832031 C 327.171875 80.832031 321.652344 79.464844 320.984375 76.964844 C 320.320313 74.464844 317.484375 66.589844 318.367188 66.039063 Z M 322.039063 101.828125 L 323.929688 102.234375 C 323.929688 102.234375 320.15625 116.339844 319.265625 119.832031 C 318.378906 123.328125 316.675781 129.484375 315.425781 129.234375 C 314.175781 128.984375 313.203125 125.898438 314.621094 120.734375 C 316.035156 115.566406 322.039063 101.828125 322.039063 101.828125 Z M 315.839844 85.332031 C 320.507813 86 316.023438 98.894531 312.507813 98.332031 C 308.339844 97.664063 311.171875 84.664063 315.839844 85.332031 Z M 303.746094 99.777344 C 305.109375 99.960938 311.507813 100.902344 312.378906 100.929688 C 313.246094 100.953125 314.066406 102.976563 311.570313 102.457031 C 309.070313 101.941406 304.820313 101.386719 302.632813 101.136719 C 300.445313 100.886719 303.054688 99.6875 303.746094 99.777344 Z M 298.007813 52.664063 C 298.671875 57.832031 300.386719 75.246094 300.386719 75.246094 L 291.171875 73.164063 C 291.171875 73.164063 290.558594 59.246094 290.203125 51.789063 C 289.84375 44.335938 297.339844 47.5 298.007813 52.664063 Z M 296.695313 94.832031 C 292.214844 94.496094 294.648438 81.1875 297.671875 81.5 C 300.695313 81.8125 299.5625 95.046875 296.695313 94.832031 Z M 287.828125 190.628906 C 289.328125 183.128906 296.808594 125.601563 296.808594 125.601563 L 294.648438 100.222656 L 297.890625 100.425781 L 312.605469 142.609375 C 312.605469 142.609375 294.886719 238.355469 293.386719 245.355469 C 291.886719 252.355469 291.007813 250.332031 292.339844 244.5 C 293.671875 238.664063 310.914063 141.328125 310.914063 141.328125 C 310.914063 141.328125 306.691406 140.488281 303.953125 139.796875 C 301.28125 139.125 299.007813 138 299.007813 138 C 299.007813 138 289.941406 191.34375 289.496094 193.976563 C 289.054688 196.605469 283.324219 248.167969 281.996094 255.035156 C 280.664063 261.902344 280.007813 256.832031 281.007813 253 C 282.007813 249.164063 286.328125 198.128906 287.828125 190.628906 Z M 265.171875 376.164063 C 267.507813 362.164063 278.601563 280.496094 279.171875 267.5 C 279.539063 259.1875 282.507813 260.5 281.507813 269.5 C 280.507813 278.5 268.074219 364.363281 266.527344 378.714844 C 264.984375 393.0625 262.839844 390.164063 265.171875 376.164063 Z M 264.507813 75 C 266.429688 75.105469 268.460938 87.339844 264.628906 87.339844 C 260.796875 87.339844 261.507813 74.832031 264.507813 75 Z M 283.464844 76.855469 C 289.132813 77.355469 285.058594 87.535156 281.390625 87.164063 C 276.4375 86.660156 277.796875 76.355469 283.464844 76.855469 Z M 276.203125 43.457031 C 276.320313 38.832031 280.675781 42.953125 281.175781 48.617188 C 281.675781 54.285156 281.6875 70.265625 281.6875 70.265625 L 277.171875 69.164063 C 277.171875 69.164063 276.09375 48.085938 276.203125 43.457031 Z M 276.191406 124.457031 C 276.425781 121.207031 276.59375 98.308594 276.4375 97.625 C 276.285156 96.9375 280.027344 94.738281 280.183594 96.953125 C 280.367188 99.570313 285.074219 126.566406 284.367188 127.292969 C 283.65625 128.019531 281.171875 127.832031 280.007813 127 C 278.839844 126.164063 277.53125 125.601563 277.53125 125.601563 C 277.53125 125.601563 268.839844 257.664063 268.007813 264.832031 C 267.171875 272 265.839844 272.332031 266.339844 265.5 C 266.839844 258.664063 275.957031 127.707031 276.191406 124.457031 Z M 272.691406 126.957031 C 272.667969 129.085938 271.644531 132.34375 269.476563 132.558594 C 267.308594 132.769531 266.433594 131.664063 266.140625 128.621094 C 265.851563 125.582031 265.019531 102.210938 265.296875 98.621094 C 265.574219 95.035156 270.300781 94.542969 270.847656 98.578125 C 271.402344 102.714844 272.71875 124.832031 272.691406 126.957031 Z M 267.671875 48 C 268.339844 52.164063 269.839844 68.164063 269.839844 68.164063 L 264.339844 66.832031 C 264.339844 66.832031 262.414063 50.789063 262.007813 45.664063 C 261.597656 40.539063 267.007813 43.832031 267.671875 48 Z M 253.171875 387.5 C 253.507813 380.164063 258.839844 336.832031 258.839844 329.832031 C 258.839844 322.832031 261.894531 317.632813 261.304688 328.222656 C 260.730469 338.546875 257.171875 377.164063 255.839844 386.164063 C 254.507813 395.164063 252.839844 394.832031 253.171875 387.5 Z M 251.171875 45.5 C 251.507813 50 252.507813 64.332031 252.507813 64.332031 L 247.339844 63.332031 C 247.339844 63.332031 247.015625 49.625 246.683594 43.289063 C 246.351563 36.957031 250.839844 41 251.171875 45.5 Z M 249.695313 69.820313 C 251.53125 69.917969 252.414063 85.542969 248.75 85.210938 C 245.082031 84.875 246.382813 69.640625 249.695313 69.820313 Z M 245.628906 90.503906 L 250.359375 92.773438 C 250.675781 95.5625 251.664063 105.632813 250.828125 109.296875 C 249.996094 112.964844 249.859375 119.902344 249.253906 121.648438 C 248.648438 123.390625 249.671875 201 249.171875 211.164063 C 248.671875 221.332031 247.726563 217.296875 247.910156 210.515625 C 248.097656 203.734375 247.117188 121.414063 247.117188 121.414063 C 247.117188 121.414063 244.765625 118.660156 244.785156 109.789063 C 244.808594 100.921875 245.628906 90.503906 245.628906 90.503906 Z M 236.886719 49.246094 C 239.050781 50.082031 238.867188 62.03125 238.867188 62.03125 L 232.171875 60.664063 C 232.171875 60.664063 234.71875 48.414063 236.886719 49.246094 Z M 234.171875 66.832031 C 237.671875 68 234.609375 80.769531 232.714844 80.65625 C 229.753906 80.484375 230.671875 65.664063 234.171875 66.832031 Z M 233.589844 84.535156 C 235.421875 84.699219 237.480469 86.054688 237.941406 86.898438 C 238.402344 87.742188 232.933594 86.773438 231.460938 86.628906 C 228.730469 86.359375 231.753906 84.367188 233.589844 84.535156 Z M 226.339844 84.164063 C 227.164063 87.46875 234.027344 102.15625 234.890625 109.113281 C 235.753906 116.070313 236.695313 121.132813 235.695313 121.132813 C 234.695313 121.132813 233.339844 119.664063 230.339844 112.832031 C 227.339844 106 222.09375 89.21875 222.09375 84.886719 C 222.09375 80.554688 226.007813 82.832031 226.339844 84.164063 Z M 212.476563 46.121094 C 215.476563 46.457031 218.671875 58.832031 218.671875 58.832031 L 211.671875 56.832031 C 211.671875 56.832031 209.476563 45.789063 212.476563 46.121094 Z M 91.28125 251.339844 C 89.882813 246.1875 91.171875 228.164063 90.507813 219.164063 C 89.839844 210.164063 90.171875 203.035156 86.96875 191.605469 C 83.765625 180.175781 77.277344 158.113281 77.027344 143.859375 C 76.78125 129.605469 77.15625 123.710938 75.585938 113.675781 C 74.015625 103.644531 68.613281 86.882813 63.277344 77.882813 C 57.945313 68.882813 56.941406 54.171875 56.28125 45.144531 C 55.621094 36.121094 55.832031 33.859375 51.832031 29.523438 C 47.832031 25.191406 45.394531 22.085938 46.203125 27.382813 C 47.007813 32.683594 45.507813 34.164063 42.507813 29.5 C 39.507813 24.832031 38.636719 25.886719 35.96875 27.886719 C 33.300781 29.886719 27.152344 28.027344 18.152344 25.695313 C 9.152344 23.359375 13.402344 21.820313 15.070313 18.488281 C 16.738281 15.152344 16.667969 13 15.335938 11 C 14 9 13.820313 6.378906 18.171875 9.5 C 22.515625 12.613281 56.15625 18.015625 65.488281 24.015625 C 74.820313 30.015625 88.140625 35.691406 99.804688 37.359375 C 111.472656 39.023438 120.402344 44.035156 129.628906 46.800781 C 138.855469 49.566406 149.347656 50.121094 165.839844 54.164063 C 182.335938 58.207031 209.171875 61.5 213.507813 64.164063 C 217.839844 66.832031 218.375 75.800781 218.375 75.800781 C 218.375 75.800781 212.871094 74.753906 204.535156 73.421875 C 196.203125 72.085938 187.535156 66.554688 181.183594 67.535156 C 174.828125 68.515625 161.171875 67.164063 142.839844 58.5 C 124.507813 49.832031 112.328125 49.402344 105.660156 45.402344 C 98.996094 41.402344 85.488281 39.628906 77.488281 40.296875 C 69.488281 40.960938 57.835938 38.0625 72.503906 50.0625 C 87.167969 62.0625 95.574219 85.476563 95.242188 97.144531 C 94.90625 108.8125 94.375 116.867188 97.539063 128.113281 C 100.703125 139.359375 105.128906 157.140625 105.128906 167.140625 C 105.128906 177.140625 106.210938 190.4375 108.019531 202.746094 C 109.828125 215.058594 112.640625 234.648438 112.285156 246.960938 C 111.925781 259.273438 114.226563 283.132813 115.894531 296.132813 C 117.558594 309.132813 131.015625 329.535156 132.507813 336.5 C 133.996094 343.460938 137.046875 359.722656 138.75 365.746094 C 140.453125 371.769531 140.695313 372.605469 136.027344 372.9375 C 131.359375 373.269531 113.753906 371.671875 108.753906 373.671875 C 103.753906 375.671875 99.808594 374.8125 102.808594 369.476563 C 105.808594 364.144531 100.121094 356.757813 99.601563 353.167969 C 99.082031 349.578125 97.890625 344.480469 99.222656 337.8125 C 100.558594 331.144531 97.433594 310.140625 98.433594 300.808594 C 99.433594 291.476563 92.675781 256.488281 91.28125 251.339844 Z M 78.109375 388.039063 C 78.109375 388.039063 77.507813 386.707031 79.824219 384.300781 C 80.984375 382.777344 82.546875 381.953125 84.5 381.832031 C 85.820313 381.746094 86.480469 382.371094 86.480469 382.371094 C 84.921875 383.082031 83.476563 385.089844 81.25 386.8125 C 79.828125 387.910156 78.484375 387.792969 78.109375 388.039063 Z M 221.0625 495.21875 C 222.917969 494.695313 225.507813 497.5 220.507813 498.164063 C 215.507813 498.832031 165.839844 507.164063 153.507813 506.832031 C 141.171875 506.5 145.84375 502.089844 149.507813 502.5 C 163.230469 504.039063 209.503906 494.910156 211.902344 494.347656 C 214.300781 493.78125 218.089844 491.894531 220.089844 487.5625 C 222.089844 483.230469 224.671875 486.242188 222.742188 488.40625 C 220.8125 490.570313 219.203125 495.742188 221.0625 495.21875 Z M 221.472656 432.09375 C 216.441406 428.160156 210.878906 421.722656 206.816406 418.496094 C 202.757813 415.273438 159.054688 408.46875 152.148438 407.4375 C 145.242188 406.40625 132.0625 404.003906 131.210938 405.476563 C 130.355469 406.949219 132.410156 415.816406 137.507813 426.5 C 142.601563 437.179688 137.140625 446.480469 138.472656 453.144531 C 139.804688 459.8125 133.21875 483.410156 130.21875 488.078125 C 127.21875 492.742188 125.480469 490.804688 129.8125 482.472656 C 134.144531 474.140625 132.214844 456.742188 132.546875 450.078125 C 132.882813 443.410156 126.125 418.671875 123.792969 414.671875 C 121.460938 410.671875 121.664063 407.117188 123.121094 404.835938 C 124.582031 402.550781 128.105469 401.035156 136.417969 401.910156 C 144.730469 402.78125 210.171875 412.164063 214.507813 413.5 C 218.839844 414.832031 221.171875 418.164063 224.171875 424.164063 C 227.171875 430.164063 235.789063 432.117188 235.789063 432.117188 C 235.789063 432.117188 237.628906 413.355469 236.734375 412.261719 C 235.839844 411.164063 222.507813 400.5 202.816406 397.464844 C 184.894531 394.699219 124.132813 393.617188 120.816406 394.558594 C 117.503906 395.496094 113.074219 400.421875 113.074219 407.089844 C 113.074219 413.757813 118.078125 427.09375 119.691406 436.132813 C 121.308594 445.167969 121.96875 473.929688 120.632813 479.597656 C 119.300781 485.265625 113.988281 506.195313 112.464844 510.660156 C 110.945313 515.128906 104.597656 511.625 104.992188 508.8125 C 105.390625 505.996094 107.953125 490.484375 107.285156 487.152344 C 106.617188 483.816406 109.378906 460.484375 110.378906 452.816406 C 111.378906 445.152344 107.261719 426.492188 105.242188 421.601563 C 103.222656 416.707031 101.582031 412.964844 100.25 418.632813 C 98.914063 424.300781 100.839844 438.5 101.507813 445.832031 C 102.171875 453.164063 98.171875 461.164063 96.839844 470.5 C 95.507813 479.832031 97.230469 492.152344 97.507813 496.164063 C 97.78125 500.179688 97.714844 511.816406 94.714844 513.484375 C 91.714844 515.152344 88.804688 504.957031 87.667969 503.554688 C 86.53125 502.15625 88.339844 496.21875 89.007813 493.484375 C 89.007813 493.484375 90.636719 480.484375 90.839844 473.164063 C 91.042969 465.847656 92.601563 458.8125 94.265625 448.144531 C 95.933594 437.476563 92.90625 430.75 91.054688 423.148438 C 89.207031 415.542969 95.816406 411.558594 99.683594 407.753906 C 103.546875 403.945313 103.207031 399.164063 101.839844 393.5 C 100.472656 387.832031 94.457031 388.789063 93.171875 391.164063 C 91.890625 393.542969 86.171875 392.832031 82.839844 391.832031 C 79.507813 390.832031 84.507813 389.164063 87.839844 389.164063 C 91.171875 389.164063 92.839844 385.164063 92.839844 385.164063 C 92.839844 385.164063 99.894531 388.503906 106.257813 388.351563 C 112.617188 388.203125 111.953125 384.230469 105.507813 380.832031 C 99.0625 377.433594 111.144531 378.191406 125.480469 382.191406 C 139.8125 386.191406 145.933594 382.25 149.613281 380.621094 C 153.296875 378.992188 160.144531 379.503906 170.476563 382.503906 C 180.8125 385.503906 198.617188 383.269531 203.617188 386.601563 C 208.617188 389.933594 220.066406 397.179688 223.398438 400.179688 C 226.734375 403.179688 233.507813 404.832031 233.507813 404.832031 C 233.507813 404.832031 234.820313 397.890625 232.820313 397.558594 C 230.820313 397.226563 225.0625 394.988281 217.726563 388.65625 C 210.394531 382.320313 203.519531 379.363281 188.1875 378.363281 C 172.855469 377.363281 149.507813 373.5 146.507813 371.5 C 143.507813 369.5 139.507813 352.164063 137.507813 340.5 C 135.507813 328.832031 121.171875 305.5 119.507813 296.164063 C 117.839844 286.832031 116.863281 265.761719 117.527344 246.425781 C 118.195313 227.09375 112.339844 203.8125 112.339844 193.144531 C 112.339844 182.480469 107.402344 145.699219 104.8125 133.148438 C 102.21875 120.597656 101.714844 86.453125 101.234375 78.8125 C 100.757813 71.167969 90.714844 54.519531 88.21875 50.90625 C 85.726563 47.289063 86.316406 46.492188 92.839844 47.5 C 99.363281 48.507813 128.757813 58.054688 144.757813 65.386719 C 160.757813 72.722656 169.8125 75.253906 178.507813 73.832031 C 187.199219 72.414063 193.191406 76.789063 198.152344 78.304688 C 203.113281 79.816406 217.640625 85.605469 217.640625 85.605469 C 217.640625 85.605469 233.171875 127.832031 234.171875 136.832031 C 235.171875 145.832031 235 217.457031 235.113281 231.476563 C 235.226563 245.5 233.1875 325.792969 233.253906 334.480469 C 233.320313 343.164063 230.722656 387.476563 232.058594 389.140625 C 233.390625 390.808594 236.148438 393.507813 239.484375 393.171875 C 242.816406 392.839844 245.117188 391.851563 245.507813 389.539063 C 245.898438 387.226563 246.378906 339.425781 247.160156 332.414063 C 247.941406 325.40625 248.507813 324.5 249.507813 334.5 C 250.507813 344.5 248.882813 393.46875 248.882813 393.46875 L 252.125 395.117188 C 252.125 395.117188 246.730469 427.070313 245.386719 439.085938 C 244.042969 451.097656 240.839844 447.5 242.507813 440.164063 C 244.171875 432.832031 247.171875 403.832031 247.507813 399.832031 C 247.839844 395.832031 245.890625 394.785156 243.914063 395.15625 C 241.941406 395.527344 240.496094 395.527344 239.957031 400.214844 C 239.414063 404.902344 238.195313 426.6875 237.195313 432.355469 C 236.195313 438.023438 233.171875 465.832031 230.507813 475.164063 C 227.839844 484.5 228.980469 471.46875 230.859375 462.152344 C 232.738281 452.839844 234.847656 438.28125 233.148438 438.050781 C 231.449219 437.820313 226.503906 436.03125 221.472656 432.09375 Z M 238.839844 494.832031 C 237.171875 497.164063 225.871094 496.183594 228.171875 492.5 C 229.839844 489.832031 240.507813 492.5 238.839844 494.832031 Z M 239.804688 481.15625 C 244.023438 476.632813 263.472656 446.847656 266.804688 440.511719 C 270.136719 434.179688 270.839844 437.832031 266.507813 446.5 C 262.171875 455.164063 244.652344 480.332031 240.507813 485.164063 C 236.507813 489.832031 235.589844 485.683594 239.804688 481.15625 Z M 304.152344 402.808594 C 301.152344 401.476563 296.121094 402.679688 292.371094 403.980469 C 288.621094 405.28125 282.503906 414.734375 282.503906 414.734375 C 282.503906 414.734375 293.753906 410.859375 299.417969 410.859375 C 305.085938 410.859375 303.46875 428.300781 302.800781 435.632813 C 302.132813 442.96875 290.65625 481.984375 287.054688 485.507813 C 283.453125 489.03125 265.449219 486.144531 260.816406 485.84375 C 256.152344 485.546875 257.359375 481.507813 262.027344 481.175781 C 266.695313 480.84375 273.507813 481.164063 279.171875 480.164063 C 284.839844 479.164063 283.324219 476.191406 283.660156 473.191406 C 283.992188 470.191406 295.371094 427.050781 293.730469 423.832031 C 292.089844 420.613281 281.730469 424.734375 277.394531 430.066406 C 273.0625 435.402344 271.457031 433.363281 271.457031 433.363281 C 271.457031 433.363281 278.78125 415.769531 278.976563 414.46875 C 279.171875 413.164063 287.894531 403.957031 292.5625 402.289063 C 297.226563 400.625 302.507813 397.832031 306.507813 400.164063 C 310.507813 402.5 307.152344 404.144531 304.152344 402.808594 Z M 310.035156 376.925781 C 305.035156 373.59375 299.648438 364.058594 299.648438 364.058594 L 291.503906 368.601563 L 292.070313 373.839844 C 292.070313 373.839844 299.171875 376.832031 304.839844 381.164063 C 310.507813 385.5 309.890625 390.308594 309.890625 390.308594 C 309.890625 390.308594 300.371094 394.511719 296.839844 395.5 C 293.308594 396.488281 285.320313 395.84375 285.320313 395.84375 L 289.507813 377.164063 C 289.507813 377.164063 279.382813 392.359375 278.171875 399.832031 C 276.964844 407.304688 263.394531 441.367188 258.839844 446.164063 C 254.074219 451.183594 255.121094 446.628906 258.453125 441.628906 C 261.789063 436.628906 270.632813 414.132813 272.71875 407.285156 C 274.804688 400.4375 274.878906 393.863281 274.878906 393.863281 C 274.878906 393.863281 266.570313 397.847656 265.570313 399.847656 C 264.570313 401.847656 258.742188 428.433594 257.171875 433.832031 C 255.605469 439.230469 253.515625 437.820313 255.847656 431.820313 C 258.183594 425.820313 262.109375 398.085938 265.109375 397.085938 C 268.109375 396.085938 269.269531 390.789063 275.9375 388.125 C 282.605469 385.457031 286.609375 369.359375 286.945313 363.691406 C 287.277344 358.027344 296.265625 338.558594 298.933594 323.890625 C 301.597656 309.222656 302.699219 319.96875 299.699219 331.632813 C 296.699219 343.300781 292.332031 362.359375 292.332031 362.359375 L 298.910156 359.21875 C 298.910156 359.21875 311.390625 329.625 314.058594 318.957031 C 316.726563 308.289063 320.179688 307.808594 317.179688 317.140625 C 314.179688 326.476563 312.289063 344.097656 310.621094 348.429688 C 308.957031 352.765625 303.433594 361.085938 304.171875 363.5 C 304.914063 365.910156 308.507813 370.832031 312.507813 375.164063 C 316.507813 379.5 315.035156 380.261719 310.035156 376.925781 Z M 396.03125 138.292969 C 393.953125 145.96875 368.925781 206.085938 366.839844 216.5 C 364.753906 226.910156 359.9375 248.226563 354.9375 256.894531 C 349.9375 265.558594 342.507813 292.164063 339.507813 304.5 C 336.507813 316.832031 327.003906 342.699219 326.050781 350.011719 C 325.097656 357.328125 320.945313 375.5625 320.945313 375.5625 L 310.992188 366.570313 C 310.992188 366.570313 312.566406 358.160156 315.234375 351.828125 C 317.902344 345.492188 315.824219 341.835938 319.496094 329.152344 C 323.164063 316.472656 330.082031 283.257813 335 270.496094 C 339.921875 257.738281 346.171875 241.164063 350.171875 228.832031 C 354.171875 216.5 373.140625 161.128906 374.671875 158.136719 C 376.203125 155.144531 383.109375 155.824219 386.109375 148.492188 C 389.109375 141.15625 389.042969 134.527344 388.710938 131.527344 C 388.378906 128.527344 391.875 124.164063 391.875 124.164063 C 394.1875 123.214844 398.179688 123.277344 398.179688 123.277344 C 398.179688 123.277344 398.113281 130.621094 396.03125 138.292969 Z M 393.074219 114.574219 C 393.652344 113.550781 401.007813 115.164063 400.671875 116.664063 C 400.339844 118.164063 392.546875 115.511719 393.074219 114.574219 Z M 408.683594 106.269531 L 395.769531 102.722656 C 395.769531 102.722656 400.089844 99.285156 405.257813 100.785156 C 410.425781 102.285156 408.683594 106.269531 408.683594 106.269531 "/>
</g>
</svg>
