<?xml version="1.0" encoding="UTF-8"?>
<svg xmlns="http://www.w3.org/2000/svg" xmlns:xlink="http://www.w3.org/1999/xlink" width="308pt" height="628pt" viewBox="0 0 308 628" version="1.1">
<g id="surface1">
<path style=" stroke:none;fill-rule:nonzero;fill:rgb(0%,0%,0%);fill-opacity:1;" d="M 247.550781 456.753906 C 240.550781 451.253906 240.125 452.0625 243.625 450.0625 C 292.816406 421.953125 331.210938 329.164063 289.035156 260.617188 C 271.695313 232.433594 240.070313 207.269531 197.570313 198.839844 C 161.824219 191.746094 114.328125 201.101563 82.601563 220.519531 C 72.921875 226.441406 73.191406 224.191406 80.191406 218.691406 C 87.191406 213.191406 102.246094 201.460938 146.542969 168.75 C 190.835938 136.039063 253.625 109.5625 264.757813 110.414063 C 271.808594 110.953125 283.074219 114.550781 292.207031 118.898438 C 301.339844 123.25 303.824219 123.554688 303.324219 115.554688 C 301.339844 83.773438 244.738281 21.351563 225.425781 4.390625 C 220.066406 -0.3125 214.671875 -3.222656 215.171875 12.277344 C 216.113281 41.550781 202.847656 61.730469 173.59375 89.59375 C 152.59375 109.59375 90.769531 170.269531 46.769531 210.269531 C -5.394531 257.691406 -21.035156 365.054688 33.640625 428.046875 C 52.164063 449.386719 75.464844 465.179688 93.511719 473.109375 C 115.511719 482.777344 131.648438 487.082031 131.648438 487.082031 C 131.648438 487.082031 125.742188 473.269531 122.992188 469.390625 C 120.238281 465.507813 119.363281 465.25 115.179688 463.59375 C 48.203125 437.070313 -17.78125 345.675781 40.347656 260.191406 C 46.015625 251.859375 49.695313 247.585938 40.695313 263.253906 C -5.078125 342.929688 46.019531 420.957031 101.921875 449.347656 C 112.824219 454.882813 120.128906 454.609375 120.128906 454.609375 C 120.128906 454.609375 109.9375 435.28125 105 433.332031 C 72.804688 420.617188 55.332031 397 46.625 357.0625 C 44.738281 348.410156 44.453125 334.070313 49.667969 356.667969 C 55.667969 382.667969 68.332031 410.332031 97.671875 425.96875 C 102.164063 428.363281 104.738281 428.925781 104.738281 428.925781 C 104.738281 428.925781 68.625 366.730469 61.957031 352.730469 C 57.308594 342.964844 53.871094 328.589844 55.613281 310.15625 C 58.488281 279.664063 83.308594 239.160156 114.160156 229.773438 C 121.828125 227.4375 128.039063 228.164063 114.371094 232.496094 C 86.648438 241.289063 58.488281 285.925781 59.828125 321.574219 C 60.144531 330 61.632813 338.003906 63.789063 345.332031 C 67.121094 356.664063 95.957031 409.0625 105.625 424.394531 C 115.292969 439.730469 153.03125 503.960938 162.03125 518.960938 C 171.03125 533.960938 205.582031 595.5 207.25 600.5 C 208.914063 605.5 208.878906 616.042969 208.542969 621.707031 C 208.210938 627.375 206.625 628.730469 215.292969 626.730469 C 223.960938 624.730469 241.878906 609.230469 244.5625 605.796875 C 247.5 602.035156 245.53125 602.695313 239.210938 598.902344 C 232.890625 595.105469 222.269531 589.457031 216.339844 582.300781 C 210.410156 575.148438 198.589844 550.605469 198.589844 550.605469 C 198.589844 550.605469 210.625 551.0625 223.699219 549.136719 C 238.546875 546.953125 253.296875 540.515625 264.296875 515.515625 C 275.296875 490.515625 254.550781 462.253906 247.550781 456.753906 Z M 224.15625 12.492188 C 231.488281 17.824219 254.746094 42.707031 265.082031 57.039063 C 275.414063 71.375 279.335938 80.8125 281.667969 84.148438 C 284 87.480469 283.808594 90.476563 279.730469 85.515625 C 275.648438 80.554688 267.6875 65.230469 256.957031 52.730469 C 246.230469 40.230469 233.054688 25.246094 230.128906 22.519531 C 227.199219 19.789063 225.964844 19.828125 227.300781 24.828125 C 228.632813 29.828125 228.804688 44.710938 226.804688 50.378906 C 224.804688 56.046875 219.800781 61.488281 221.546875 54.441406 C 223.097656 48.175781 224.476563 33.300781 222.710938 25.433594 C 220.945313 17.566406 216.820313 7.160156 224.15625 12.492188 Z M 161.292969 136.394531 C 175.769531 127.347656 242.851563 89.816406 257.515625 85.148438 C 267.886719 81.851563 265.625 83.5625 261.675781 86.644531 C 253.445313 93.058594 253.472656 94.664063 253.472656 94.664063 C 253.472656 94.664063 257.621094 94.933594 263.371094 95.304688 C 270.058594 95.734375 285.363281 96.40625 259.625 97.4375 C 235.871094 98.386719 182.636719 129.085938 168.550781 136.746094 C 151.078125 146.25 145.292969 146.394531 161.292969 136.394531 Z M 232.925781 224.933594 C 242 229.800781 270.375 257.621094 277.375 270.285156 C 284.375 282.953125 281.035156 281.191406 276.367188 273.191406 C 271.703125 265.191406 244.761719 238.152344 234.09375 230.820313 C 223.429688 223.484375 225.230469 220.804688 232.925781 224.933594 Z M 202.625 227.0625 C 260.441406 247.074219 302.664063 310.648438 274.957031 366.0625 C 268.957031 378.0625 268.128906 375.15625 271.371094 367.503906 C 298.410156 303.730469 254.875 251.664063 203 230.914063 C 193 226.914063 193.957031 224.0625 202.625 227.0625 Z M 149.957031 459.0625 C 157.292969 471.730469 152.363281 468.460938 146.363281 459.128906 C 140.363281 449.792969 78.757813 326.761719 78.757813 326.761719 C 78.757813 326.761719 70.945313 290.71875 108.945313 263.382813 C 146.945313 236.050781 195.503906 242.035156 222.171875 260.035156 C 316.066406 323.417969 222.691406 444.976563 148.386719 434.613281 C 140.195313 433.472656 137.59375 432.484375 137.59375 432.484375 C 137.59375 432.484375 142.625 446.394531 149.957031 459.0625 Z M 227.03125 535.5 C 209.3125 540.125 189.613281 530.625 177.875 518.125 C 172.988281 512.925781 164.09375 493.453125 162.097656 488.824219 C 160.101563 484.199219 158.128906 478.820313 158.128906 478.820313 L 170.007813 479.359375 C 170.007813 479.359375 170.980469 477.957031 171.613281 476.179688 C 179.484375 453.984375 195.96875 443.402344 218.253906 441.519531 C 223.792969 441.050781 228.6875 442.371094 228.6875 442.371094 L 227.066406 445.160156 C 227.066406 445.160156 224.707031 445.105469 222.25 444.847656 C 191.46875 441.664063 174.652344 467.59375 168.578125 489.5625 C 167.714844 492.6875 167.667969 493.761719 167.667969 493.761719 L 177.386719 507.441406 C 177.386719 507.441406 178.585938 501.324219 180.429688 495.859375 C 182.273438 490.390625 188.332031 479.757813 188.332031 479.757813 C 188.332031 479.757813 205.125 472.601563 213.808594 468.46875 C 222.492188 464.335938 223.246094 460.328125 227.082031 461.496094 C 233.351563 463.402344 252.355469 470.039063 254.992188 494.582031 C 256.660156 510.082031 242.125 531.5625 227.03125 535.5 "/>
</g>
</svg>
