<?xml version="1.0" encoding="UTF-8"?>
<svg xmlns="http://www.w3.org/2000/svg" xmlns:xlink="http://www.w3.org/1999/xlink" width="430pt" height="700pt" viewBox="0 0 430 700" version="1.1">
<g id="surface1">
<path style=" stroke:none;fill-rule:nonzero;fill:rgb(0%,0%,0%);fill-opacity:1;" d="M 407.816406 66.664063 C 406.835938 66.457031 406.171875 65.929688 405.832031 65.097656 C 406.53125 50.523438 407.421875 42.433594 408.476563 40.828125 C 408.816406 40.300781 425.738281 37.09375 416.984375 22.457031 C 415.941406 20.339844 415.242188 17.789063 414.902344 14.804688 C 413.261719 0.609375 407.042969 -0.222656 396.644531 0.609375 C 393.773438 0.835938 387.859375 5.957031 384.664063 10.097656 C 379.484375 10.703125 376.820313 11.0625 376.632813 11.136719 C 375.761719 14.21875 375.363281 15.9375 375.402344 16.296875 C 375.441406 16.578125 384.265625 29.828125 377.046875 44.175781 C 375.136719 44.457031 373.210938 42.925781 371.246094 39.582031 C 370.351563 33.941406 358.277344 28.429688 354.613281 44.398438 C 352.078125 62.015625 370.546875 54.132813 371.492188 53.605469 C 373.511719 53.945313 374.609375 55.136719 374.816406 57.175781 C 374.191406 58.3125 368.144531 75.773438 367.277344 76.585938 C 365.480469 76.019531 363.796875 75.1875 362.269531 74.074219 C 364.578125 68.066406 356 54.972656 348.828125 59.40625 C 326.777344 81.453125 355.710938 85.535156 357.753906 81.453125 C 360.113281 82.769531 360.867188 82.597656 362.738281 84.640625 C 362.683594 85.792969 349.351563 109.28125 354.234375 115.785156 C 353.007813 118.886719 313.503906 191.066406 305.246094 202.535156 C 290.113281 229.328125 265.519531 214.839844 265.101563 215.464844 C 265.101563 215.464844 173.914063 183.828125 132.460938 312.195313 C 155.015625 384.730469 91.050781 384.65625 91.050781 384.65625 C 86.097656 380.933594 82.394531 381.464844 79.917969 386.285156 C 78.015625 400.832031 -87.886719 487.632813 66.765625 612.914063 C 66.234375 613.765625 20.175781 697.808594 22.160156 699.191406 C 24.375 698.855469 74.871094 616.996094 75.175781 617.015625 C 75.175781 617.015625 82.125 618.792969 88.632813 618.753906 C 230.265625 686.78125 261.765625 540.480469 259.167969 523.839844 C 261.132813 516.371094 268.414063 505.480469 275.421875 503.730469 C 252.3125 461.730469 264.914063 428.832031 307.613281 413.429688 C 307.765625 413.261719 315.300781 398.417969 316.433594 397.359375 C 329.890625 384.902344 402.113281 331.53125 323.804688 247.574219 C 324.921875 245.007813 384.265625 131.492188 384.835938 131.246094 C 384.835938 131.246094 395.816406 126.867188 399.21875 116.429688 C 399.785156 116.5625 400.160156 116.769531 400.351563 117.050781 C 401.75 127.863281 416.132813 124.308594 417.359375 112.628906 C 420.226563 90.117188 403.425781 104.03125 401.882813 100.269531 C 401.164063 99.210938 403.164063 76.46875 406.078125 75.171875 C 406.777344 76.113281 421.800781 93.003906 429.269531 78.664063 C 432.304688 50.21875 408.96875 66.457031 407.816406 66.664063 Z M 288.652344 233.476563 C 289.136719 233.585938 289.640625 233.960938 290.164063 234.609375 C 290.238281 235.402344 178.617188 423.070313 178.652344 423.609375 C 178.464844 426.207031 194.390625 442.304688 207.570313 448.746094 L 207.570313 450.070313 C 207.570313 450.179688 187.933594 445.859375 170.238281 422.007813 C 167.789063 426.730469 168.664063 426.207031 166.914063 429.007813 C 167.464844 432.105469 195.273438 457.683594 202.84375 461.03125 C 203.015625 462.890625 202.480469 463.929688 201.238281 464.152344 C 194.070313 460.886719 170.53125 440.539063 170.339844 440.527344 C 169.808594 441.347656 148.828125 481.628906 148.578125 481.898438 C 147.066406 483.53125 146 483.945313 145.390625 483.144531 C 148.046875 474.894531 168.464844 438.535156 168.445313 438.164063 C 168.441406 438.0625 162.378906 429.359375 162.363281 428.832031 C 162.34375 427.84375 165.027344 423.0625 168.445313 416.996094 C 168.445313 416.996094 176.695313 422.558594 176.953125 422.570313 C 178.300781 419.730469 287.859375 233.308594 288.652344 233.476563 Z M 148.671875 505.3125 C 150.3125 505.3125 151.640625 506.640625 151.640625 508.28125 C 151.640625 509.921875 150.3125 511.25 148.671875 511.25 C 147.03125 511.25 145.699219 509.921875 145.699219 508.28125 C 145.699219 506.640625 147.03125 505.3125 148.671875 505.3125 Z M 210.945313 235.898438 C 191.136719 240.195313 169.230469 303.46875 160.578125 309.964844 C 160.464844 310.191406 160.355469 310.414063 160.246094 310.628906 L 160.214844 310.375 L 160.148438 310.25 C 160.289063 310.171875 160.433594 310.074219 160.578125 309.964844 C 169.792969 291.59375 190.785156 233.472656 210.945313 235.898438 Z M 144.273438 313.800781 C 149.730469 315.214844 153.664063 316.726563 156.085938 318.339844 C 156.246094 317.617188 156.625 317.050781 157.222656 316.636719 C 159.015625 318.269531 187.390625 340.457031 153.722656 381.273438 L 153.347656 381.273438 C 153.339844 381.085938 180.039063 342.207031 157.519531 321.191406 C 157.460938 321.132813 145.558594 317.179688 144.085938 316.636719 C 144.085938 316.636719 144.148438 313.878906 144.273438 313.800781 Z M 156.433594 394.761719 C 169.777344 373.910156 186.914063 385.175781 187.386719 393.957031 C 182.664063 397.507813 177.242188 389.898438 177.242188 389.898438 C 162.363281 379.304688 142.765625 455.78125 120.28125 438.746094 C 117.859375 437.445313 114.074219 427.472656 115.375 427.03125 C 118.789063 423.40625 127.539063 454.730469 156.433594 394.761719 Z M 144.027344 499.617188 C 144.027344 501.257813 142.699219 502.589844 141.058594 502.589844 C 139.417969 502.589844 138.089844 501.257813 138.089844 499.617188 C 138.089844 497.980469 139.417969 496.648438 141.058594 496.648438 C 142.699219 496.648438 144.027344 497.980469 144.027344 499.617188 Z M 18.871094 519.605469 C 17.464844 450.53125 57.714844 452.28125 93.054688 404.691406 C 93.058594 404.375 88.132813 393.246094 87.761719 391.652344 C 88.4375 391.78125 88.816406 391.59375 88.898438 391.085938 L 89.273438 391.085938 C 90.257813 392.40625 91.609375 395.210938 95.164063 402.582031 C 95.371094 402.484375 134.445313 399.148438 134.445313 399.148438 C 134.445313 399.148438 138.214844 403.28125 97.402344 405.257813 C 74.164063 444.230469 26.214844 447.03125 18.871094 519.605469 Z M 78.277344 600.328125 C 76.964844 593.332031 100.0625 573.382813 100.0625 573.382813 C 102.617188 562.371094 131.652344 482.183594 133.121094 478.835938 C 133.121094 478.835938 136.003906 479.058594 136.335938 479.5 C 135.328125 482.265625 105.335938 573.339844 102.6875 575.988281 C 94.0625 584.617188 81.863281 603.132813 78.277344 600.328125 Z M 311.359375 393.152344 C 311.359375 393.152344 305.519531 399.808594 304.09375 403.796875 C 303.175781 404.03125 226.238281 417.457031 261.8125 503.371094 C 261.339844 504.125 250.914063 514.054688 250.644531 527.050781 C 216.789063 674.179688 94.453125 611.789063 93.972656 610.730469 C 94.519531 609.992188 111.679688 582.230469 114.375 579.746094 C 130.902344 564.484375 186.054688 519.3125 187.203125 517.628906 C 165.863281 506.882813 149.859375 492.390625 149.71875 491.140625 C 150.171875 490.640625 150.632813 490.402344 151.117188 490.421875 C 167.917969 501.480469 179.058594 507.914063 184.53125 509.738281 C 187.195313 507.289063 208.847656 467.628906 209.78125 466.523438 C 222.914063 470.480469 221.515625 455.429688 214.089844 453.191406 C 214.214844 453.011719 225.554688 435.242188 232.3125 426.824219 C 249.863281 427.78125 237.734375 457.773438 230.042969 465.332031 C 201.214844 500.582031 239.339844 505.476563 242.894531 499.304688 C 243.035156 498.644531 242.921875 498.003906 242.574219 497.367188 C 240.316406 495.761719 211.363281 496.03125 235.390625 468.179688 C 242.269531 459.804688 264.5625 424.980469 235.335938 415.769531 C 236.214844 413.433594 241.949219 402.886719 242.28125 401.660156 C 240.710938 400.542969 213.863281 386.378906 213.601563 385.195313 C 215.488281 385.765625 260.746094 306.070313 261.292969 305.421875 C 262.371094 306.109375 262.785156 306.78125 262.550781 307.433594 C 262.277344 308.40625 219.421875 384.675781 218.710938 385.632813 C 219.554688 386.699219 221.792969 388.050781 225.429688 389.667969 C 227.054688 388.871094 243.964844 358.90625 245.351563 356.214844 C 246.53125 353.917969 247.621094 358.273438 247.621094 358.273438 C 247.621094 358.273438 230.382813 389.375 229.855469 390.574219 C 230.535156 392.445313 231.867188 393.390625 233.859375 393.398438 C 235.128906 392.746094 248.320313 370.503906 249.265625 370.273438 C 250.484375 370.292969 251.191406 370.898438 251.398438 372.070313 C 250.625 373.847656 239.558594 393.757813 238.925781 395.289063 C 240.4375 396.386719 242.121094 397.027344 243.972656 397.207031 C 247.25 392.710938 317.9375 256.296875 318.285156 256.070313 C 388.816406 327.332031 315.640625 389.261719 311.359375 393.152344 Z M 155.703125 517.402344 C 155.703125 515.8125 156.992188 514.527344 158.578125 514.527344 C 160.167969 514.527344 161.457031 515.8125 161.457031 517.402344 C 161.457031 518.992188 160.167969 520.28125 158.578125 520.28125 C 156.992188 520.28125 155.703125 518.992188 155.703125 517.402344 Z M 167.460938 521.472656 C 167.460938 519.78125 168.832031 518.410156 170.523438 518.410156 C 172.214844 518.410156 173.585938 519.78125 173.585938 521.472656 C 173.585938 523.164063 172.214844 524.535156 170.523438 524.535156 C 168.832031 524.535156 167.460938 523.164063 167.460938 521.472656 Z M 397.59375 5.144531 C 398.113281 5.871094 400.539063 23.441406 391.636719 30.847656 C 391.636719 30.847656 396.078125 23.96875 397.59375 5.144531 Z M 387.667969 14.972656 C 389.515625 17.929688 385.316406 24.160156 384.644531 24.800781 C 384.53125 24.726563 384.40625 24.695313 384.265625 24.707031 C 383.476563 22.65625 387.285156 14.523438 387.667969 14.972656 Z M 365.367188 105.183594 C 388.464844 84.78125 387.167969 42.195313 387.25 41.925781 C 387.859375 39.902344 388.945313 38.496094 390.503906 37.710938 C 390.503906 37.710938 395.113281 93.179688 365.367188 105.183594 Z M 387.878906 121.949219 C 394.066406 96.679688 396.117188 51.894531 396.117188 51.894531 C 396.582031 48.289063 397.425781 47.007813 398.648438 48.046875 C 399.296875 48.597656 397.214844 105.078125 387.878906 121.949219 Z M 409.710938 23.003906 L 412.070313 21.964844 C 409.203125 34.992188 407.34375 35.195313 407.34375 35.195313 C 407.34375 35.195313 409.558594 23.070313 409.710938 23.003906 Z M 399.386719 33.515625 C 399.386719 33.515625 404.738281 18.191406 405.183594 8.503906 C 405.261719 8.550781 405.34375 8.574219 405.433594 8.566406 C 409.203125 20.816406 399.386719 33.515625 399.386719 33.515625 "/>
</g>
</svg>
