<?xml version="1.0" encoding="UTF-8"?>
<svg xmlns="http://www.w3.org/2000/svg" xmlns:xlink="http://www.w3.org/1999/xlink" width="361pt" height="716pt" viewBox="0 0 361 716" version="1.1">
<g id="surface1">
<path style=" stroke:none;fill-rule:nonzero;fill:rgb(0%,0%,0%);fill-opacity:1;" d="M 356.011719 660.695313 C 354.246094 653.347656 360.226563 644.035156 352.09375 639.234375 C 338.828125 637.078125 337.554688 640.964844 330.792969 634.628906 C 320.601563 609.082031 314.65625 569.359375 315.832031 546.234375 C 323.574219 540.566406 326.578125 534.308594 321.777344 527.546875 C 324.128906 523.039063 330.84375 520.441406 334.46875 517.308594 C 328.132813 512.667969 325.632813 511.378906 323.867188 509.90625 C 323.5625 502.503906 324.542969 225.558594 323.921875 168.640625 C 327.617188 163.113281 329.882813 159.03125 331.398438 156.652344 C 327.871094 155.214844 323.363281 153.484375 320.324219 152.210938 C 319.851563 150.96875 320.128906 143.636719 320.234375 142.578125 C 320.6875 137.96875 325.578125 134.761719 325.339844 129.734375 C 320.535156 125.226563 321.125 118.074219 323.183594 112.488281 C 325.042969 106.019531 328.671875 113.957031 330.925781 114.546875 C 333.667969 110.820313 334.355469 105.726563 333.472656 100.824219 C 332.101563 95.042969 325.730469 92.496094 321.417969 89.554688 C 324.554688 79.363281 327.492188 68.386719 324.261719 57.804688 C 324.554688 46.53125 334.355469 39.183594 336.214844 28.5 C 338.46875 23.894531 336.019531 17.328125 339.742188 13.3125 C 341.3125 10.566406 340.234375 7.039063 338.371094 4.882813 C 332.785156 1.550781 325.925781 1.453125 319.359375 0.667969 C 302.992188 0.375 285.257813 -0.898438 270.261719 3.117188 C 261.734375 4.980469 267.910156 13.898438 266.046875 18.996094 C 265.558594 19.386719 265.558594 20.074219 264.96875 20.367188 C 244.292969 21.738281 223.613281 23.40625 207.835938 36.636719 C 164.128906 68.777344 159.230469 119.445313 138.355469 162.171875 C 128.945313 177.066406 124.734375 210.683594 100.234375 202.449219 C 89.84375 196.667969 79.945313 189.808594 69.558594 184.125 C 53.78125 176.578125 32.320313 163.546875 15.5625 177.363281 C 5.269531 185.007813 -0.0195313 195.882813 0.078125 208.429688 C 4.878906 227.929688 188.824219 642.078125 196.859375 670.59375 C 193.824219 680.394531 189.707031 691.46875 193.332031 702.347656 C 207.183594 729.753906 347.019531 707.761719 358.167969 693.011719 C 360.472656 688.773438 362.480469 669.515625 356.011719 660.695313 Z M 352.632813 654.128906 C 358.855469 679.742188 279.277344 681.570313 255.070313 682.257813 C 250.761719 681.472656 245.957031 680.101563 243.800781 675.492188 C 242.136719 672.847656 241.15625 668.535156 243.117188 665.695313 C 244.292969 664.027344 244.976563 662.167969 246.644531 660.695313 C 249.585938 664.125 248.800781 670.691406 254.386719 672.359375 C 270.359375 676.375 346.488281 663.210938 352.632813 654.128906 Z M 32.808594 231.652344 C 71.714844 302.3125 231.945313 608.496094 251.445313 646.8125 C 252.035156 648.28125 245.273438 654.328125 244.488281 653.640625 C 204.308594 573.183594 161.480469 493.902344 120.714844 413.738281 C 88.375 352.292969 57.015625 295.648438 27.027344 233.320313 C 26.929688 232.929688 32.613281 231.753906 32.808594 231.652344 Z M 26.582031 213.253906 C 25.417969 212.273438 25.261719 210.527344 26.273438 209.367188 C 26.734375 208.601563 27.53125 208.109375 27.804688 207.222656 C 28.203125 205.90625 29.582031 205.171875 30.867188 205.566406 C 32.183594 205.964844 32.917969 207.34375 32.523438 208.660156 C 32.0625 210.191406 31.910156 211.878906 30.46875 212.949219 C 29.488281 214.113281 27.742188 214.234375 26.582031 213.253906 Z M 120.027344 226.066406 C 148.058594 219.601563 162.363281 189.316406 172.164063 165.699219 C 187.648438 132.773438 195.78125 88.671875 236.058594 73.972656 C 246.054688 69.660156 257.71875 67.601563 269.183594 69.074219 C 270.359375 63.390625 272.515625 58.195313 274.183594 52.804688 C 274.378906 53 274.476563 53.296875 274.867188 53.195313 C 270.457031 66.230469 277.121094 78.1875 275.945313 91.613281 C 268.300781 93.964844 257.914063 107.882813 257.914063 107.882813 L 257.226563 203.527344 L 255.070313 203.820313 L 255.855469 107.195313 L 248.40625 108.960938 L 247.328125 215.875 L 245.273438 216.171875 L 244.195313 111.015625 C 244.195313 111.015625 240.753906 113.394531 237.359375 119.027344 L 234.003906 237.140625 L 232.042969 237.140625 L 234.84375 123.1875 C 219.507813 148.4375 185.101563 203.441406 161.578125 228.519531 C 146.683594 247.921875 122.675781 255.664063 99.546875 249.390625 C 78.867188 245.277344 62.109375 234.007813 46.234375 218.324219 C 46.136719 215.679688 49.175781 214.601563 50.839844 213.328125 C 56.722656 211.957031 63.679688 214.210938 69.851563 215.484375 C 85.925781 220.578125 101.996094 225.675781 120.027344 226.066406 Z M 70.28125 206.761719 C 70.28125 205.261719 71.507813 204.066406 72.976563 204.066406 C 74.476563 204.066406 75.671875 205.261719 75.671875 206.761719 C 75.671875 208.261719 74.476563 209.457031 72.976563 209.457031 C 71.507813 209.457031 70.28125 208.261719 70.28125 206.761719 Z M 89.117188 212 C 90.371094 211.507813 91.472656 211.507813 92.484375 212 C 93.800781 212.304688 94.628906 213.652344 94.324219 214.96875 C 94.019531 216.179688 92.929688 216.960938 91.738281 216.867188 C 91.574219 216.921875 91.414063 216.976563 91.261719 217.023438 C 89.882813 217.605469 88.257813 216.960938 87.675781 215.582031 C 87.0625 214.203125 87.707031 212.582031 89.117188 212 Z M 104.949219 218.523438 C 104.949219 217.023438 106.175781 215.828125 107.644531 215.828125 C 109.144531 215.828125 110.339844 217.023438 110.339844 218.523438 C 110.339844 220.023438 109.144531 221.21875 107.644531 221.21875 C 106.175781 221.21875 104.949219 220.023438 104.949219 218.523438 Z M 124.578125 214.601563 C 125.039063 213.960938 125.652344 213.46875 126.386719 213.164063 C 127.429688 212.304688 129.019531 212.429688 129.878906 213.5 C 130.765625 214.570313 130.613281 216.132813 129.570313 217.023438 C 129.203125 217.296875 128.960938 217.695313 128.652344 218.03125 C 127.703125 219.164063 126.019531 219.316406 124.886719 218.367188 C 123.753906 217.421875 123.628906 215.734375 124.578125 214.601563 Z M 138.574219 199.597656 C 139.1875 198.828125 140.167969 198.523438 140.78125 197.757813 C 141.515625 196.59375 143.046875 196.289063 144.210938 197.023438 C 145.375 197.757813 145.710938 199.320313 144.945313 200.453125 L 144.914063 200.421875 C 144.332031 201.679688 143.597656 202.8125 142.585938 203.792969 C 141.453125 204.925781 139.585938 204.894531 138.484375 203.730469 C 137.351563 202.566406 137.410156 200.699219 138.574219 199.597656 Z M 149.539063 178.558594 C 150.058594 177.667969 150.855469 177.054688 151.5 176.289063 C 152.203125 175.097656 153.734375 174.699219 154.929688 175.402344 C 156.09375 176.105469 156.492188 177.636719 155.785156 178.832031 C 155.480469 179.875 154.960938 180.824219 154.46875 181.773438 C 153.582031 183.148438 151.773438 183.519531 150.394531 182.628906 C 149.019531 181.742188 148.652344 179.902344 149.539063 178.558594 Z M 159.308594 159.660156 C 159.921875 157.976563 161.574219 157.121094 162.984375 156.230469 C 164.117188 155.433594 165.679688 155.710938 166.445313 156.8125 C 167.238281 157.945313 166.964844 159.507813 165.863281 160.273438 C 165.21875 160.671875 164.882813 161.285156 164.820313 162.019531 C 164.179688 163.519531 162.402344 164.226563 160.871094 163.582031 C 159.371094 162.9375 158.664063 161.191406 159.308594 159.660156 Z M 170.914063 136.140625 C 171.710938 135.988281 172.078125 135.3125 172.628906 134.824219 C 173.394531 133.660156 174.957031 133.355469 176.089844 134.121094 C 177.253906 134.886719 177.5625 136.449219 176.796875 137.582031 C 176.519531 138.46875 176.089844 139.265625 175.660156 140.09375 C 174.558594 141.378906 172.628906 141.5625 171.3125 140.488281 C 169.996094 139.417969 169.8125 137.457031 170.914063 136.140625 Z M 177.4375 112.53125 C 178.847656 111.121094 179.828125 109.3125 181.757813 108.519531 L 181.632813 108.210938 C 182.582031 107.015625 184.328125 106.804688 185.554688 107.78125 C 186.746094 108.730469 186.964844 110.476563 185.980469 111.703125 C 185.03125 113.324219 183.960938 114.855469 183.347656 116.664063 C 183.613281 116.398438 183.851563 116.105469 184.117188 115.835938 C 184.125 115.816406 184.136719 115.796875 184.144531 115.777344 L 184.144531 115.808594 C 184.136719 115.816406 184.125 115.828125 184.117188 115.835938 C 183.449219 117.632813 181.460938 118.585938 179.644531 117.949219 C 177.804688 117.308594 176.855469 115.285156 177.5 113.449219 C 177.46875 113.109375 177.285156 112.683594 177.4375 112.53125 Z M 201.140625 87.355469 C 200.160156 88.949219 198.078125 89.4375 196.488281 88.488281 C 194.894531 87.507813 194.375 85.425781 195.355469 83.835938 C 195.90625 82.242188 197.4375 81.292969 198.9375 80.984375 C 199.917969 80.035156 201.507813 80.066406 202.488281 81.046875 C 203.4375 82.027344 203.40625 83.621094 202.429688 84.601563 C 202.613281 85.792969 201.449219 86.375 201.140625 87.355469 Z M 223.683594 59.242188 C 224.601563 57.957031 226.40625 57.710938 227.664063 58.628906 C 228.949219 59.578125 229.195313 61.386719 228.273438 62.640625 C 227.082031 64.878906 225.214844 66.53125 223.589844 68.429688 C 222.609375 70.023438 220.496094 70.511719 218.871094 69.53125 C 217.28125 68.523438 216.789063 66.410156 217.800781 64.816406 C 218.628906 61.816406 222.089844 61.078125 224.171875 59.210938 Z M 253.113281 53.117188 C 251.671875 53.945313 251.613281 55.871094 250.234375 56.730469 C 249.285156 58.261719 247.261719 58.691406 245.730469 57.742188 C 244.230469 56.761719 243.769531 54.742188 244.753906 53.238281 C 246.160156 51.1875 247.84375 48.585938 250.539063 48.492188 C 251.765625 47.878906 253.265625 48.402344 253.878906 49.625 C 254.488281 50.882813 254 52.382813 252.746094 52.996094 C 252.867188 53.023438 252.988281 53.085938 253.113281 53.117188 Z M 294.273438 66.917969 C 296.132813 69.269531 296.820313 70.859375 298.289063 73.410156 C 301.132813 71.058594 302.015625 67.800781 305.933594 66.621094 C 309.070313 67.503906 309.070313 70.933594 310.148438 73.285156 C 313.675781 71.03125 314.3125 65.273438 319.113281 65.273438 C 319.800781 65.667969 320.71875 66.4375 321.113281 66.929688 C 321.40625 70.261719 321.515625 74.363281 317.597656 74.757813 C 315.144531 74.363281 313.554688 74.855469 312.488281 76.753906 C 312.292969 83.121094 311.910156 86.453125 310.636719 92.433594 C 310.050781 92.433594 308.777344 82.792969 309.757813 76.128906 C 305.445313 74.953125 304.523438 76.054688 300.582031 75.738281 C 298.964844 80.34375 300.113281 89.335938 297.960938 92.175781 C 296.140625 89.695313 298.886719 79.074219 296.128906 75.976563 C 294.820313 76.015625 289.113281 74.695313 289.113281 77.832031 C 289.53125 83.296875 289.617188 87.570313 287.65625 92.078125 C 285.5 88.625 288.441406 77.5625 285.5 76.289063 C 280.894531 76.777344 280.648438 71.621094 281.238281 68.386719 C 281.433594 66.917969 284.078125 65.054688 285.058594 67.308594 C 285.84375 68.679688 286.53125 70.152344 287.214844 71.523438 C 289.46875 70.542969 291.039063 66.328125 294.273438 66.917969 Z M 293.785156 39.382813 L 301.019531 39.597656 L 300.132813 56.523438 L 294.15625 56.121094 Z M 304.703125 56.796875 L 305.253906 39.855469 L 312.476563 40.253906 L 310.6875 56.898438 Z M 301.964844 123.511719 C 298.34375 124.902344 296.613281 124.542969 295.734375 123.296875 C 294.257813 121.195313 287.328125 100.972656 290.5 94.847656 C 295.105469 93.574219 293.636719 102.148438 298.683594 102.296875 C 301.476563 102.492188 301.574219 94.992188 305.785156 94.796875 C 308.921875 96.414063 304.511719 114.984375 301.964844 123.511719 Z M 282.609375 57.410156 L 280.160156 40.847656 L 287.363281 40.164063 L 288.589844 57.066406 Z M 286.859375 107.882813 C 289.40625 112.585938 288.132813 119.054688 286.46875 123.757813 C 284.3125 123.757813 282.058594 125.324219 280.097656 123.757813 C 279.703125 116.210938 279.964844 108.191406 273.710938 103.308594 C 270.96875 102.523438 268.289063 105.121094 266.671875 107.882813 C 266.476563 105.824219 267.0625 104.058594 267.453125 102.195313 C 268.433594 99.550781 270.785156 96.90625 273.726563 96.609375 C 279.902344 96.90625 284.113281 103.078125 286.859375 107.882813 Z M 272.710938 133.65625 C 273.691406 137.867188 278.691406 139.144531 280.847656 142.476563 C 281.140625 146.003906 280.453125 149.039063 280.160156 152.371094 C 276.535156 153.746094 272.613281 154.332031 269.183594 156.585938 C 271.828125 161.390625 277.769531 163.886719 280.417969 168.6875 C 280.941406 214.488281 280.09375 415.535156 280.191406 510.105469 C 278.136719 511.671875 271.859375 513.371094 268.195313 516.664063 C 272.363281 519.945313 277.855469 524.496094 280.507813 527.957031 C 273.09375 535.78125 282.707031 542.507813 285.453125 545.742188 C 281.402344 612.089844 258.730469 639.59375 255.988281 642.238281 C 256.378906 637.925781 264.121094 627.214844 265.886719 623.882813 C 267.160156 619.371094 266.082031 617.820313 269.96875 613.035156 C 196.355469 505.074219 49.023438 254.070313 49.023438 254.070313 L 52.234375 255.375 C 52.234375 255.375 271.957031 606.269531 272.417969 605.71875 C 274.378906 592.585938 279.132813 578.574219 280.503906 565.734375 C 277.953125 560.441406 69.25 258.113281 69.25 258.113281 L 70.148438 255.125 L 81.050781 269.851563 L 79.554688 252.234375 L 82.910156 254.269531 L 83.390625 273.484375 L 90.410156 283.25 L 91.414063 266.640625 L 92.785156 266.640625 L 92.933594 287.144531 L 105.402344 304.34375 L 107.976563 270.558594 L 109.738281 270.167969 L 109.339844 310.730469 L 116.453125 320.097656 L 120.027344 264.191406 L 122.085938 263.113281 L 120.199219 325.609375 L 127.28125 335.386719 L 130.613281 269.777344 L 132.378906 269.777344 L 131.300781 341.414063 L 139.140625 352.414063 L 141.492188 317.109375 L 142.175781 317.402344 L 141.492188 355.648438 L 147.761719 364.859375 L 150.3125 300.15625 L 151.78125 299.46875 L 150.996094 368.953125 L 163.738281 386.984375 L 167.265625 250.078125 L 169.714844 248.3125 L 167.265625 392.128906 L 176.230469 404.796875 L 184.511719 226.066406 L 185.980469 225.675781 L 178.410156 407.953125 L 187.917969 421.527344 L 195.097656 232.046875 L 195.878906 239.101563 L 191.984375 427.089844 L 203.671875 443.699219 L 204.996094 250.765625 L 206.757813 251.84375 L 206.261719 447.476563 L 215.335938 460.558594 L 218.8125 304.074219 L 219.792969 302.996094 L 219.671875 466.363281 L 229.152344 479.765625 L 233.21875 334.0625 L 234.296875 335.042969 L 231.210938 482.949219 L 239.367188 494.269531 C 239.367188 494.269531 239.292969 442.84375 241.351563 413.050781 C 242.527344 394.039063 243.117188 360.523438 243.117188 360.523438 L 245.273438 362.285156 L 244.511719 501.886719 L 250.6875 510.070313 L 253.929688 392.242188 L 255.855469 392.570313 L 254.828125 516.757813 L 262.078125 526.4375 C 262.078125 526.4375 267.320313 252.722656 264.675781 114.546875 C 270.34375 104.089844 273.9375 104.433594 275.863281 110.460938 C 276.925781 115.261719 277.21875 120.230469 276.632813 123.757813 C 273.789063 126.402344 271.535156 129.734375 272.710938 133.65625 Z M 81.671875 280.574219 L 84.636719 284.894531 L 84.082031 295.53125 L 90.921875 305.703125 L 91.851563 295.589844 L 93.648438 298.207031 L 93.371094 309.753906 L 105.53125 327.671875 L 106.664063 317.15625 L 109.851563 321.804688 L 109.339844 334.304688 L 116.289063 344.074219 L 117.371094 332.75 L 120.6875 337.578125 L 119.933594 349.8125 L 126.839844 359.996094 L 127.828125 347.976563 L 131.351563 353.109375 L 130.742188 366.265625 L 138.382813 377.722656 L 139.613281 365.140625 L 141.335938 367.648438 L 140.675781 381.09375 L 146.773438 390.679688 L 147.742188 376.976563 L 150.53125 381.035156 L 149.9375 394.949219 L 162.347656 413.726563 L 163.164063 399.433594 L 166.492188 404.28125 L 165.777344 419.082031 L 174.515625 432.273438 L 175.652344 417.617188 L 177.722656 420.632813 L 176.636719 435.5625 L 185.890625 449.695313 L 186.96875 434.097656 L 190.6875 439.515625 L 189.859375 455.492188 L 201.238281 472.789063 L 201.886719 455.816406 L 204.34375 459.394531 L 203.757813 476.714844 L 212.585938 490.335938 L 213.527344 472.769531 L 217.394531 478.40625 L 216.820313 496.386719 L 226.058594 510.34375 L 227.109375 492.550781 L 229.007813 495.316406 L 228.050781 513.65625 L 236.007813 525.445313 C 236.007813 525.445313 236.238281 517.726563 236.691406 506.503906 L 241.722656 513.828125 L 241.007813 533.375 L 247.039063 541.90625 L 248.140625 523.171875 L 251.847656 528.570313 L 251.046875 548.855469 L 257.511719 558.070313 L 256.691406 569.410156 C 205.804688 489.621094 70.160156 279.417969 70.160156 279.417969 L 71.167969 276.398438 L 81.8125 291.75 Z M 51.632813 203.730469 C 51.203125 204.589844 50.316406 204.773438 49.519531 205.078125 C 48.109375 205.9375 46.273438 205.507813 45.414063 204.097656 C 44.585938 202.71875 45.015625 200.882813 46.425781 200.023438 C 47.433594 199.257813 48.660156 199.136719 49.855469 199.015625 C 51.140625 198.523438 52.582031 199.167969 53.101563 200.484375 C 53.589844 201.769531 52.949219 203.210938 51.632813 203.730469 Z M 320.339844 647.269531 C 305.246094 649.621094 288.589844 654.066406 274.085938 649.558594 C 271.242188 647.5 269.378906 642.371094 268.890625 639.429688 C 288.523438 649.558594 307.992188 646.242188 324.652344 637.714844 C 326.316406 637.421875 327.101563 647.125 320.339844 647.269531 Z M 323.050781 631.800781 C 311.09375 640.132813 281.925781 640.019531 269.574219 632.667969 C 279.375 609.378906 288.785156 591.949219 290.644531 546.035156 C 295.351563 544.566406 309.019531 546.035156 310.195313 546.035156 C 313.480469 587.148438 316.191406 607.335938 323.050781 631.800781 Z M 316.976563 536.53125 L 287.328125 536.53125 L 287.328125 531.550781 L 316.976563 531.550781 Z M 327.144531 519.136719 C 323.027344 522.457031 309.894531 508.648438 316.558594 522.664063 C 313.226563 521.195313 310.484375 518.84375 308.425781 515.609375 C 307.738281 518.058594 307.054688 520.507813 306.269531 522.957031 C 304.800781 520.898438 303.621094 517.960938 302.054688 515.609375 C 301.96875 515.613281 298.550781 520.898438 297.082031 522.957031 C 296.296875 520.507813 295.609375 518.058594 294.925781 515.609375 C 292.867188 518.84375 290.121094 521.195313 286.789063 522.664063 C 293.453125 508.648438 283.753906 521.292969 276.207031 519.136719 C 278.953125 515.902344 283.265625 515.804688 285.421875 512.078125 C 291.648438 511.160156 311.699219 511.160156 317.929688 512.078125 C 320.085938 515.804688 324.398438 515.902344 327.144531 519.136719 Z M 284.996094 173.980469 C 294.925781 173.816406 309.253906 174.554688 320.035156 174.554688 C 320.230469 184.351563 320.664063 474.855469 320.175781 506.609375 C 317.300781 506.511719 285.519531 505.300781 283.6875 505.171875 C 285.976563 494.847656 285.582031 176.921875 284.996094 173.980469 Z M 326.488281 157.714844 C 323.746094 160.949219 319.433594 161.046875 317.277344 164.769531 C 311.046875 165.691406 290.996094 165.691406 284.765625 164.769531 C 282.609375 161.046875 278.296875 160.949219 275.554688 157.714844 C 279.671875 154.394531 292.800781 168.199219 286.136719 154.1875 C 289.46875 155.65625 292.214844 158.007813 294.273438 161.242188 C 294.957031 158.789063 295.644531 156.339844 296.429688 153.890625 C 297.898438 155.949219 299.074219 158.890625 300.640625 161.242188 C 300.726563 161.234375 304.144531 155.949219 305.617188 153.890625 C 306.398438 156.339844 307.085938 158.789063 307.769531 161.242188 C 309.828125 158.007813 312.574219 155.65625 315.90625 154.1875 C 309.242188 168.199219 318.941406 155.558594 326.488281 157.714844 Z M 316.589844 135.015625 C 308.164063 133.9375 313.453125 144.816406 311.984375 148.441406 C 311.105469 148.34375 310.773438 148.492188 309.535156 148.441406 C 309.4375 144.523438 309.730469 140.210938 309.144531 136.488281 C 306.496094 134.820313 303.886719 136.488281 301.144531 136.488281 C 300.554688 140.40625 301.632813 144.179688 301.265625 148.429688 C 301.007813 148.429688 299.367188 148.257813 299.109375 148.257813 C 298.925781 144.128906 298.964844 140.785156 299.171875 136.496094 C 296.429688 136.496094 293.390625 134.828125 290.742188 136.496094 C 290.15625 140.222656 290.449219 144.53125 290.351563 148.453125 C 289.421875 148.503906 288.785156 148.355469 287.902344 148.453125 C 286.433594 144.828125 291.722656 133.949219 283.296875 135.027344 C 281.53125 134.535156 277.023438 135.027344 278.789063 131.890625 C 283.199219 128.65625 289.175781 129.246094 294.664063 128.65625 C 296.394531 128.835938 303.492188 128.824219 305.222656 128.648438 C 310.710938 129.234375 316.6875 128.648438 321.101563 131.882813 C 322.863281 135.015625 318.355469 134.527344 316.589844 135.015625 Z M 322.886719 96.609375 C 325.828125 96.90625 328.179688 99.550781 329.160156 102.195313 C 329.550781 104.058594 330.140625 105.824219 329.945313 107.882813 C 327.101563 107 324.585938 101.136719 322.496094 102.980469 C 317.792969 108.761719 316.910156 116.210938 316.519531 123.757813 C 314.558594 125.324219 312.304688 123.757813 310.148438 123.757813 C 308.480469 119.054688 307.207031 112.585938 309.757813 107.882813 C 312.5 103.078125 316.714844 96.90625 322.886719 96.609375 Z M 321.84375 58.144531 L 315.867188 57.804688 L 317.089844 40.898438 L 324.292969 41.585938 Z M 276.238281 5.960938 C 295.449219 2.53125 316.8125 2.921875 335.53125 6.941406 C 335.53125 8.605469 333.667969 8.804688 332.6875 9.78125 C 313.675781 7.921875 289.664063 6.449219 270.949219 9.097656 C 270.753906 6.449219 274.476563 6.941406 276.238281 5.960938 Z M 269.96875 17.230469 C 271.144531 16.546875 272.90625 15.566406 274.183594 16.839844 C 277.90625 19.878906 276.632813 30.558594 284.375 26.34375 C 288.390625 23.699219 283.296875 12.035156 291.429688 16.546875 C 295.152344 20.074219 293.976563 25.953125 298.484375 28.894531 C 305.640625 27.71875 303.777344 15.957031 311.910156 17.523438 C 314.949219 21.152344 314.164063 26.441406 317.890625 29.871094 C 323.964844 27.914063 320.828125 13.996094 330.238281 18.601563 C 335.726563 25.660156 327.984375 32.519531 325.632813 39.085938 C 312.011719 33.304688 293.292969 32.910156 277.710938 34.871094 C 273.59375 29.578125 267.8125 24.1875 269.96875 17.230469 Z M 19.777344 185.886719 C 24.480469 181.28125 30.066406 178.636719 36.730469 178.832031 C 60.835938 181.085938 77.691406 200.6875 99.839844 207.351563 C 118.429688 213.066406 122.085938 203.332031 128.457031 193.238281 C 165.207031 135.613281 164.324219 35.359375 252.621094 26.050781 C 256.148438 25.757813 259.480469 25.070313 263.207031 25.363281 C 266.34375 28.597656 269.085938 32.027344 271.339844 35.558594 C 238.804688 33.5 211.363281 49.667969 189.511719 73.972656 C 159.425781 111.3125 157.269531 160.210938 130.613281 198.921875 C 123.65625 209.113281 119.277344 218.621094 100.625 212.738281 C 75.550781 204.835938 52.410156 180.890625 24.773438 192.945313 C 21.34375 196.078125 18.011719 199.804688 15.167969 203.527344 C 13.699219 197.550781 15.855469 190.691406 19.777344 185.886719 Z M 19.089844 238.808594 C 20.363281 237.140625 21.832031 237.140625 22.617188 239.101563 C 68.1875 326.320313 211.167969 607.386719 237.824219 660.402344 C 228.023438 662.265625 217.34375 660.988281 207.148438 662.851563 C 198.917969 643.742188 23.007813 249.785156 19.089844 238.808594 Z M 219.253906 707.714844 C 213.265625 706.398438 206.636719 704.261719 203.980469 697.953125 C 201.855469 694.300781 200.824219 688.457031 203.804688 684.765625 C 205.589844 682.601563 206.703125 680.148438 209.160156 678.277344 C 213.011719 683.058594 211.382813 691.816406 219.089844 694.394531 C 241.1875 700.761719 349.113281 687.765625 358.464844 675.960938 C 356.808594 706.289063 253.289063 708.277344 219.253906 707.714844 "/>
</g>
</svg>
