<?xml version="1.0" encoding="UTF-8"?>
<svg xmlns="http://www.w3.org/2000/svg" xmlns:xlink="http://www.w3.org/1999/xlink" width="411pt" height="677pt" viewBox="0 0 411 677" version="1.1">
<g id="surface1">
<path style=" stroke:none;fill-rule:nonzero;fill:rgb(0%,0%,0%);fill-opacity:1;" d="M 401.941406 42.695313 C 401.882813 42.0625 420.429688 18.066406 403.472656 13.988281 C 401.554688 12.679688 386.550781 18.871094 367.820313 1.53125 C 355.492188 -6.136719 351.300781 19.96875 350.363281 20.605469 C 346.820313 20.6875 345.4375 7.632813 338.050781 17.359375 C 330.917969 31.835938 347.730469 21.59375 348.6875 28.914063 C 348.6875 28.914063 344.441406 41.347656 344.339844 41.839844 C 339.613281 45.515625 334.835938 26.417969 329.09375 37.6875 C 322.015625 50.027344 338.351563 43.070313 338.828125 51.148438 C 339.296875 52.375 336.460938 61.617188 334.417969 63.945313 C 329.882813 73.925781 325.644531 48.515625 317.71875 63.929688 C 310.824219 74.53125 328.671875 69.085938 329.1875 76.429688 C 328.882813 76.855469 323.246094 87.800781 323.53125 88.535156 C 323.53125 88.535156 326.902344 98.726563 326.636719 99.113281 C 326.636719 99.113281 198.792969 341.121094 198.324219 341.160156 C 198.324219 341.160156 149.789063 410.511719 123.714844 355.597656 C 101.390625 373.40625 103.003906 428.257813 94.839844 437.210938 C 90.574219 444.785156 82.609375 450.8125 70.910156 455.324219 C -9.929688 489.566406 1.402344 577.695313 1.402344 577.695313 C -2.671875 592.820313 9.222656 596.949219 9.222656 596.949219 C 9.222656 596.949219 21.53125 632.347656 59.105469 657.777344 C 66.703125 674.296875 82.445313 667.699219 82.445313 667.699219 C 82.445313 667.699219 115.105469 679.136719 130.449219 676.847656 C 272.40625 660.582031 225.519531 516.128906 225.519531 516.128906 C 218.359375 494.40625 269.984375 467.785156 269.628906 448.035156 C 277.246094 405.671875 237.242188 372.972656 236.855469 372.300781 C 237.140625 371.320313 357.183594 115.570313 357.183594 115.570313 C 357.304688 115.328125 365.105469 110.261719 365.105469 110.261719 C 365.269531 110.160156 373.191406 97.726563 373.90625 97.339844 C 374.046875 93.285156 381.609375 108.714844 385.445313 99.875 C 395.523438 84.210938 375.863281 94.496094 377.132813 85.820313 C 377.171875 85.1875 382.03125 75.671875 382.113281 75.613281 C 385.238281 72.113281 391.289063 89.355469 396.15625 76.492188 C 401.878906 63.640625 385.238281 71.808594 388.402344 67.199219 C 388.382813 66.769531 393.652344 55.378906 395.242188 52.84375 C 398.550781 49.425781 404.902344 65.152344 409.585938 52.222656 C 413.675781 41.257813 399.761719 47.910156 401.941406 42.695313 Z M 55.863281 517.421875 C 52.203125 517.421875 49.234375 514.453125 49.234375 510.792969 C 49.234375 507.128906 52.203125 504.160156 55.863281 504.160156 C 59.527344 504.160156 62.496094 507.128906 62.496094 510.792969 C 62.496094 514.453125 59.527344 517.421875 55.863281 517.421875 Z M 337.832031 75.546875 C 337.832031 75.546875 340.375 88.007813 336.820313 98.257813 L 336.796875 98.796875 L 336.632813 98.796875 C 336.699219 98.617188 336.757813 98.4375 336.820313 98.257813 Z M 148.746094 386.410156 C 169.855469 390.042969 190.527344 359.59375 191.054688 358.964844 L 191.707031 358.964844 C 183.167969 401.992188 152.148438 389.316406 148.746094 386.734375 Z M 169.78125 428.613281 C 169.867188 429.011719 164.980469 440.3125 164.410156 441.394531 C 163.882813 441.242188 163.570313 441.113281 163.53125 441.179688 C 164.183594 439.046875 167.816406 430.425781 169.3125 428.21875 C 169.78125 428.613281 169.710938 428.285156 169.78125 428.613281 Z M 64.484375 489.769531 C 64.53125 489.390625 146.507813 411.09375 146.507813 411.09375 C 147.40625 410.945313 149.371094 412.636719 149.285156 413.378906 C 149.269531 413.5 70.460938 487.921875 69.929688 488.960938 C 72.179688 490.066406 109.023438 510.429688 111.386719 511.878906 C 111.984375 513.558594 109.484375 515.550781 108.445313 515.472656 C 105.832031 515.28125 64.34375 490.953125 64.484375 489.769531 Z M 96.71875 552.996094 C 97.445313 553.277344 103.265625 555.699219 103.496094 555.691406 C 104.300781 553.214844 130.769531 492.734375 131.59375 491.492188 C 132.085938 490.84375 133.550781 490.84375 134.046875 491.492188 C 134.214844 491.722656 105.609375 556.542969 105.621094 556.835938 C 106.941406 557.097656 109.214844 557.8125 109.214844 557.8125 C 109.214844 557.8125 139.417969 491.332031 142.703125 485.449219 C 143.335938 485.328125 143.988281 485.546875 144.664063 486.101563 C 144.6875 486.515625 110.785156 558.089844 110.847656 558.957031 C 114.117188 560.5625 116.1875 561.324219 117.054688 561.246094 C 121.1875 552.980469 147.324219 493.738281 148.421875 491.003906 C 148.789063 490.914063 150.460938 491.660156 150.394531 491.785156 C 143.898438 504.761719 119.546875 559.847656 118.9375 561.964844 C 119.691406 562.125 122.332031 563.691406 123.101563 563.859375 C 129.5 550.375 152.789063 498.957031 153.15625 497.863281 C 154.011719 498.078125 154.558594 498.242188 154.789063 498.355469 C 154.796875 498.445313 125.195313 564.644531 125.222656 565.164063 C 126.167969 565.710938 131.148438 567.847656 131.269531 567.859375 C 131.851563 566.433594 160.160156 500.839844 160.996094 499.660156 C 161.542969 499.449219 161.976563 499.558594 162.304688 499.988281 C 162.34375 500.660156 133.449219 569.035156 133.457031 569.226563 C 136.050781 570.503906 138.136719 571.507813 138.210938 571.535156 C 139.121094 570.699219 165.5625 505.335938 165.734375 504.5625 C 165.734375 504.5625 166.941406 504.945313 167.203125 504.886719 C 166.570313 507.027344 140.285156 570.988281 140.3125 572.453125 C 143.972656 574.570313 146.253906 575.671875 148.582031 576.273438 C 148.703125 577.421875 147.394531 579.761719 144.664063 583.296875 C 143.824219 583.363281 104.273438 566.027344 92.878906 559.449219 C 92.839844 559.003906 96.34375 553.429688 96.71875 552.996094 Z M 118.246094 666.265625 L 118.246094 665.9375 C 171.371094 664.714844 208.488281 616.59375 208.664063 617.257813 C 208.941406 618.308594 181.65625 674.09375 118.246094 666.265625 Z M 192.117188 458.480469 C 192.117188 458.480469 200.714844 462.03125 200.714844 462.644531 C 200.714844 462.644531 189.796875 490.78125 187.625 493.273438 C 186.253906 493.40625 182.605469 491.609375 176.679688 487.882813 C 176.625 486.519531 188.457031 460.054688 188.441406 459.785156 C 187.605469 458.878906 158.003906 448.1875 158.222656 448.269531 C 156.414063 451.808594 145.96875 474.488281 145.96875 474.488281 L 145.96875 474.980469 C 145.96875 474.980469 140.800781 473.507813 134.046875 470.566406 C 134.15625 469.636719 146.296875 441.164063 146.296875 441.164063 L 146.296875 440.675781 C 148.992188 441.105469 166.863281 446.976563 166.984375 446.988281 C 173.34375 434.683594 175.859375 427.820313 176.375 427.105469 C 176.246094 426.429688 177.050781 426.269531 178.804688 426.628906 C 178.824219 426.96875 169.746094 446.425781 169.328125 448.1875 C 169.703125 448.324219 172.476563 449.527344 173.085938 449.578125 C 180.503906 432.527344 184.847656 422.535156 185.664063 421.804688 C 186.796875 422.261719 186.476563 422.3125 187.25 422.261719 C 186.90625 423.789063 175.238281 449.496094 175.046875 450.640625 C 175.257813 450.804688 177.449219 451.785156 177.742188 451.945313 C 178.859375 450.277344 196.082031 412.207031 196.773438 410.289063 C 196.773438 410.289063 198.0625 410.65625 197.996094 410.78125 C 195.488281 415.664063 179.890625 451.972656 180.066406 452.585938 C 180.207031 453.0625 182.324219 453.554688 183.546875 453.945313 C 187.476563 447.59375 203.433594 408.496094 203.433594 408.496094 C 205.550781 409.707031 205.382813 408.851563 205.757813 408.984375 C 205.800781 409.632813 186.839844 452.476563 185.890625 455.082031 C 187.679688 455.980469 189.796875 457.527344 190.074219 457.5 C 195.640625 445.417969 222.03125 381.816406 223.644531 378.929688 C 224.269531 379.054688 224.84375 379.328125 225.359375 379.746094 C 225.390625 380.023438 191.664063 458.253906 192.117188 458.480469 Z M 241.652344 429.421875 C 245.351563 429.421875 248.355469 432.421875 248.355469 436.125 C 248.355469 439.824219 245.351563 442.828125 241.652344 442.828125 C 237.949219 442.828125 234.949219 439.824219 234.949219 436.125 C 234.949219 432.421875 237.949219 429.421875 241.652344 429.421875 Z M 337.628906 135.515625 C 337.554688 135.496094 321.554688 128.628906 321.132813 128.65625 C 319.074219 132.210938 310.71875 148.1875 310.371094 150.007813 C 313.386719 151.667969 325.699219 156.710938 326.703125 157.265625 L 325.542969 159.367188 C 325.542969 159.367188 309.664063 152.613281 309.042969 152.507813 C 302.359375 164.859375 299.039063 171.449219 299.078125 172.269531 C 302.769531 174.605469 308.050781 177.382813 314.925781 180.601563 C 314.925781 180.601563 314.605469 181.617188 314.433594 182.398438 C 314.378906 182.359375 298.066406 174.390625 297.9375 174.394531 C 296.8125 176.035156 286.785156 196.699219 286.828125 197.265625 C 289.953125 199.171875 294.851563 201.566406 301.527344 204.453125 C 300.992188 205.515625 300.972656 206.097656 300.539063 206.421875 C 299.789063 206.308594 287.507813 200.175781 285.519531 199.714844 C 285.207031 200.046875 275.246094 219.402344 275.28125 220.1875 C 277.714844 221.347656 282.976563 224.304688 292.21875 228.464844 C 292.390625 229.191406 292.007813 229.898438 291.074219 230.589844 C 289.964844 230.234375 274.414063 223.019531 273.757813 223.074219 C 272.382813 224.980469 264.382813 240.871094 264.238281 242.117188 C 271.378906 245.414063 277.542969 248.566406 281.78125 251.042969 C 281.960938 251.511719 281.503906 252.835938 281.109375 253.128906 C 279.980469 252.640625 263.929688 244.261719 263.46875 244.308594 C 263.058594 244.902344 249.023438 271.855469 249.09375 272.570313 C 252.304688 274.347656 260.484375 276.492188 268.777344 280.535156 C 269.433594 280.859375 268.625 281.597656 268.367188 282.289063 C 265.902344 281.445313 248.601563 274.3125 247.949219 274.367188 C 246.308594 276.707031 235.042969 298.824219 234.742188 300.046875 C 235.085938 300.066406 250.9375 307.390625 251.683594 307.914063 L 250.625 310.03125 C 249.496094 309.65625 233.886719 302.359375 233.65625 302.300781 C 233.246094 302.667969 218.933594 329.121094 218.710938 330.234375 C 232.351563 336.625 239.484375 340 240.109375 340.359375 C 239.128906 342.097656 239.734375 340.886719 239.128906 342.097656 C 228.765625 337.480469 218.164063 332.800781 217.199219 332.566406 C 216.8125 333.296875 206.308594 353.210938 205.640625 354.898438 C 218.171875 359.648438 226.449219 363.132813 230.472656 365.351563 C 230.054688 367.054688 229.902344 366.902344 229.082031 368.539063 C 227.328125 367.652344 205.527344 358.355469 204.007813 358.246094 C 202.257813 361.371094 200.730469 363.417969 200.410156 363.726563 C 199.652344 363.574219 198.835938 363.550781 198.617188 363.066406 C 198.234375 362.234375 324.488281 115.28125 328.320313 109.054688 L 328.644531 109.054688 C 329.402344 110.367188 329.203125 112.285156 328.066406 114.804688 C 327.15625 116.8125 323.097656 125.144531 322.847656 126.371094 C 330.335938 129.589844 335.023438 131.554688 338.773438 133.476563 C 338.523438 134.421875 338.140625 135.101563 337.628906 135.515625 Z M 360.253906 32.117188 C 360.917969 33.878906 360.835938 56.964844 358.523438 62.007813 C 358.523438 62.007813 356.804688 40.347656 360.253906 32.117188 Z M 346.761719 56.273438 L 347.089844 56.273438 C 347.089844 56.273438 348.9375 73.019531 344.964844 83.066406 C 344.964844 83.066406 343.492188 67.574219 346.761719 56.273438 Z M 341.878906 117.859375 C 341.878906 117.859375 347.125 109.019531 357.558594 101.6875 C 357.558594 101.6875 350.753906 112.042969 341.878906 117.859375 Z M 356.382813 93.863281 C 358.617188 87.84375 373.75 73.101563 374.023438 74.097656 C 369.8125 83.304688 357.898438 93.007813 356.382813 93.863281 Z M 362.261719 73.964844 C 367.089844 64.550781 386.316406 39.355469 386.4375 39.335938 C 379.1875 57.59375 363.355469 74.972656 362.261719 73.964844 "/>
</g>
</svg>
