<?xml version="1.0" encoding="UTF-8"?>
<svg xmlns="http://www.w3.org/2000/svg" xmlns:xlink="http://www.w3.org/1999/xlink" width="417pt" height="720pt" viewBox="0 0 417 720" version="1.1">
<g id="surface1">
<path style=" stroke:none;fill-rule:nonzero;fill:rgb(0%,0%,0%);fill-opacity:1;" d="M 413.652344 584.542969 C 413.652344 584.542969 380.664063 551.519531 396.695313 508.828125 C 390.867188 502.714844 397.964844 459.234375 379.402344 440.027344 C 363.359375 423.296875 342.273438 415.074219 342.160156 415.007813 C 340.589844 410.648438 308.804688 299.378906 307.773438 298.34375 C 307.480469 298.054688 290.882813 285.027344 291.265625 284.664063 C 296.496094 282.644531 303.464844 265.347656 289.152344 261.441406 C 288.75 262.046875 289.152344 273.839844 284.4375 276.445313 C 284.570313 275.570313 291.484375 257.363281 280.394531 259.0625 C 280.394531 259.0625 269.300781 255.589844 264.152344 263.285156 C 263.90625 262.675781 248.449219 241.390625 264.0625 210.007813 C 264.0625 210.007813 323.832031 93.726563 325.71875 89.816406 C 326.414063 89.929688 330.03125 91.636719 330.03125 94.644531 C 330.03125 94.644531 330.421875 105.132813 339.402344 96.308594 C 341.535156 92.605469 342.003906 83.550781 334.859375 87.300781 C 332.953125 86.449219 331.761719 85.078125 331.269531 83.191406 C 334.949219 77.914063 337.578125 75.328125 339.128906 75.464844 C 339.871094 75.710938 340.320313 76.183594 340.476563 76.855469 C 338.949219 84.492188 340.34375 88.042969 344.652344 87.527344 C 364.246094 79.449219 345.730469 73.757813 345.730469 73.757813 C 345.238281 73.894531 344.160156 73.152344 342.496094 71.558594 C 342.273438 70.613281 379.773438 43.511719 376.75 20.457031 C 374.84375 10.082031 366.644531 5.386719 362.9375 6.015625 C 362.667969 6.0625 341.351563 22.074219 353.683594 39.214844 C 364.691406 43.957031 369.160156 26.453125 369.472656 25.847656 C 371.136719 29.238281 370.035156 33.371094 366.128906 38.246094 C 352.269531 52.386719 347.28125 32.8125 347.28125 32.8125 C 343.394531 16.003906 359.097656 4.351563 359.230469 3.8125 C 356.648438 0.828125 353.730469 -0.25 350.472656 0.601563 C 345.464844 2.242188 342.027344 21.402344 342.027344 21.402344 C 342.003906 21.582031 339.402344 14.230469 346.203125 3.476563 C 346.160156 2.960938 345.910156 2.535156 345.464844 2.242188 C 341.617188 1.363281 336.726563 8.554688 336.367188 8.597656 C 336.367188 8.597656 333.242188 8.957031 332.367188 9.09375 C 325.648438 17.777344 332.523438 25.265625 332.863281 26.410156 C 333.632813 31.089844 337.285156 34.25 339.195313 35.550781 C 339.421875 36.089844 337.285156 41.480469 336.34375 42.289063 C 335.738281 42.808594 306.648438 62.101563 298.652344 76.273438 C 294.519531 83.617188 202.835938 245.988281 202.835938 245.988281 C 118.007813 227.636719 100.546875 344.613281 98.300781 346.972656 C 90.75 354.523438 99.515625 361.929688 98.097656 373.050781 C 97.875 374.914063 85.175781 441.488281 48.617188 440.996094 C 48.527344 441.019531 44.507813 443.804688 44.058594 444.519531 C 43.675781 445.148438 43.292969 447.035156 42.957031 450.203125 C 45.246094 465.890625 -61.679688 586.570313 55.109375 648.894531 C 55.109375 648.894531 55.894531 667.761719 76.875 659.160156 C 77.546875 659.339844 237.355469 729.875 245.804688 530.90625 C 246.65625 527.246094 247.105469 525.335938 247.105469 525.179688 C 246.769531 524.640625 205.855469 490.734375 264.492188 432.820313 C 266.21875 434.101563 267.386719 435.3125 268.039063 436.4375 C 258.652344 448.585938 266.195313 508.039063 257.617188 517.992188 C 257.933594 518.304688 278.617188 529.777344 280.214844 535.578125 C 291.929688 573.257813 264.46875 599.703125 263.390625 600.960938 C 270.632813 616.738281 240.019531 708.136719 340.679688 713.582031 C 340.769531 713.714844 347.527344 725.785156 355.816406 715.679688 C 458.304688 678.851563 396.636719 601.210938 413.652344 584.542969 Z M 365.757813 22.328125 C 365.757813 22.328125 362 21.496094 360.300781 24.484375 C 360.277344 24.191406 360.164063 24.054688 359.964844 24.078125 C 359.964844 24.078125 361.167969 19.164063 365.894531 21.921875 Z M 282.714844 293.339844 C 282.851563 293.289063 282.984375 293.289063 283.121094 293.339844 C 283.65625 293.902344 304.351563 315.039063 304.683594 330.140625 C 304.683594 330.140625 304.480469 337.929688 304.175781 340.898438 C 313.222656 383.8125 305.617188 410.757813 305.617188 410.757813 C 305.4375 411.226563 276.917969 425.691406 276.785156 425.679688 C 267.527344 399.78125 322.539063 360.296875 282.714844 293.339844 Z M 278.652344 266.695313 C 267.527344 267.125 269.789063 275.269531 269.789063 275.269531 C 269.617188 275.269531 264.152344 263.285156 278.652344 266.695313 Z M 61.417969 634.582031 C 61.128906 637.527344 60.675781 639.261719 60.070313 639.761719 C 58.210938 639.75 57.355469 637.71875 57.507813 633.675781 C 57.777344 626.527344 65.191406 518.625 65.730469 518.277344 C 65.882813 518.183594 69.242188 518.441406 75.808594 519.058594 C 76.78125 518.441406 92.933594 454.273438 98.726563 441.886719 C 98.726563 441.886719 114.785156 406.722656 114.917969 406.078125 C 101.371094 401.667969 91.960938 435.039063 90.527344 434.839844 C 89.554688 440.328125 83.734375 471.878906 69.570313 477.617188 C 64.757813 479.570313 61.734375 477.300781 60.492188 470.820313 C 80.074219 486.855469 85.398438 435.609375 89.449219 432.007813 C 98.375 397.011719 116.960938 402.003906 116.960938 402.003906 C 117.382813 401.984375 193.785156 265.824219 195.46875 263.203125 C 195.59375 263.1875 195.75 263.195313 195.914063 263.242188 C 195.410156 264.707031 113.636719 411.738281 100.09375 442.097656 C 95.992188 451.289063 77.324219 523.125 76.746094 523.789063 C 76.226563 524.386719 70.746094 523.207031 70.292969 523.253906 C 70.195313 523.707031 61.417969 634.582031 61.417969 634.582031 Z M 247.238281 412.691406 C 247.542969 413.28125 266.511719 428.441406 266.511719 428.441406 C 266.761719 428.640625 266.8125 429.113281 266.679688 429.820313 C 263.578125 428.085938 247.304688 415.367188 246.699219 415.941406 C 246.699219 415.941406 244.121094 418.230469 243.699219 418.335938 C 195.648438 424.183594 192.101563 490.292969 208.515625 500.941406 C 209.257813 501.632813 217.390625 503.601563 220.386719 513.023438 C 220.386719 513.023438 215.171875 520.019531 238.277344 529.414063 C 238.191406 530.222656 237.839844 530.695313 237.214844 530.8125 C 232.347656 529.96875 221.84375 525.488281 216.503906 520.90625 C 197.425781 665.988281 141.007813 660.675781 140.351563 660.8125 C 209.847656 640.253906 197.425781 528.003906 213.195313 519.304688 C 215.164063 516.644531 217.390625 511.144531 211.796875 508.777344 C 168.585938 479.199219 215.949219 405.160156 241.347656 413.980469 C 243.910156 413.121094 241.847656 404.671875 241.273438 401.167969 C 294.699219 347.761719 240.523438 266.363281 238.132813 264.238281 C 227.636719 268.28125 222.003906 269.820313 220.941406 271.488281 C 220.84375 271.65625 166.328125 383.960938 165.925781 384.363281 C 165.589844 384.703125 160.683594 385.566406 160.3125 385.988281 C 160.097656 386.226563 127.667969 453.1875 127.566406 453.539063 C 128.222656 454.148438 135.097656 457.804688 135.972656 457.683594 C 136.039063 457.667969 140.789063 455.578125 141.3125 455.410156 C 143.453125 456.269531 153.328125 461.839844 153.28125 462.394531 C 153.28125 462.394531 147.578125 477.328125 146.820313 477.664063 C 145.152344 476.988281 135.449219 470.402344 135.449219 470.402344 C 134.929688 470.03125 117.390625 471.027344 117.390625 471.027344 L 104.03125 531.777344 C 104.03125 531.777344 112.304688 539.820313 112.019531 540.425781 C 110.921875 542.71875 76.082031 598.992188 73.828125 642.71875 C 73.695313 643.257813 71.152344 641.457031 71.132813 640.796875 C 72.753906 589.675781 107.082031 542.46875 108.3125 541.003906 C 108.175781 540.230469 101.910156 536.136719 99.453125 534.199219 C 98.675781 530.105469 114.378906 466.328125 115.167969 466.023438 C 115.421875 465.921875 135.535156 467.574219 137.085938 468.265625 C 137.203125 468.3125 146.230469 473.417969 147.242188 473.703125 C 147.378906 473.300781 150.59375 464.441406 150.882813 462.824219 C 150.34375 462.484375 141.851563 457.144531 141.582031 457.398438 C 141.582031 457.398438 136.628906 460.53125 135.113281 459.90625 C 129.386719 457.582031 125.863281 455.964844 124.550781 455.058594 C 124.347656 453.574219 158.34375 384.710938 159.742188 384.152344 C 159.742188 384.152344 163.566406 383.480469 163.667969 383.410156 C 163.921875 383.242188 212.554688 286.195313 225.742188 256.378906 C 227.898438 251.476563 307.917969 100.285156 307.917969 99.15625 C 307.917969 99.15625 307.34375 76.675781 336.824219 55.898438 C 336.875 55.996094 336.90625 56.097656 336.925781 56.183594 C 325.992188 67.453125 311.117188 80.671875 309.804688 97.925781 C 309.398438 100 308.726563 101.835938 307.746094 103.402344 C 306.214844 105.894531 227.496094 265.222656 227.765625 265.59375 C 228.035156 265.542969 238.816406 262.207031 239.085938 262.273438 C 306.347656 348.425781 246.546875 402.449219 246.464844 402.835938 C 246.363281 403.289063 247.1875 412.605469 247.238281 412.691406 Z M 171.914063 470.769531 C 172.464844 469.992188 174.921875 468.625 176.050781 467.261719 C 180.648438 461.71875 185.890625 431.285156 175.160156 426.464844 C 175.351563 425.9375 179.472656 424.847656 179.472656 424.847656 C 194.539063 437.273438 180.847656 463.8125 179.457031 467.886719 C 180.789063 471.4375 181.257813 472.808594 181.230469 472.988281 C 179.949219 474.242188 178.207031 475.148438 176.796875 475.871094 C 176.796875 487.628906 164.816406 526.453125 185.941406 516.488281 C 186.007813 516.945313 187.328125 518.589844 187.421875 519.046875 C 155.941406 535.324219 174.441406 475.261719 174.28125 475.113281 C 174.28125 475.113281 173.246094 473.875 171.914063 470.769531 Z M 300.578125 689.210938 L 300.53125 689.390625 C 275.511719 650.902344 292.371094 631.378906 287.59375 612.980469 C 286.523438 611.894531 271.742188 603.097656 271.421875 602.199219 L 272.230469 602.398438 C 272.230469 602.398438 286.441406 610.589844 286.921875 610.554688 C 342.949219 545.308594 270.824219 521.03125 269.671875 520.394531 L 269.671875 519.855469 L 282.070313 523.226563 C 290.597656 497.835938 257.765625 452.578125 313.804688 422.351563 C 311.539063 417.433594 310.570313 414.894531 310.910156 414.738281 C 311.71875 414.363281 312.390625 414.535156 312.921875 415.253906 C 313.558594 416.535156 317.046875 426.746094 317.046875 426.746094 C 266.195313 446.367188 294.144531 508.925781 286.652344 523.089844 C 288.476563 523.816406 343.394531 558.617188 290.289063 610.554688 C 295.921875 628.71875 279.503906 648.683594 300.9375 689.121094 C 300.800781 689.085938 300.679688 689.113281 300.578125 689.210938 Z M 321.875 578.582031 C 322.3125 579.558594 325.230469 580.84375 325.203125 581.023438 C 325.085938 581.769531 324.539063 583.6875 323.429688 586.125 C 323.429688 586.125 324.761719 610.972656 319.335938 617.839844 C 312.78125 622.949219 307.097656 618.238281 307.257813 617.195313 C 307.445313 617.007813 307.714844 616.871094 308.066406 616.792969 C 322.320313 625.167969 322.296875 596.664063 322.082031 596.714844 C 322.496094 592.277344 321.890625 586.949219 321.652344 585.902344 C 321.636719 585.835938 319.65625 584.128906 318.769531 583.464844 C 319.65625 581.246094 319.4375 582.578125 319.789063 580.003906 C 318.683594 569.058594 318.851563 562.023438 320.300781 558.898438 C 322.046875 555.136719 324.703125 553.050781 328.28125 552.644531 C 329.703125 552.480469 331.328125 553.121094 333.15625 554.554688 C 333.628906 554.925781 334.113281 555.277344 334.613281 555.609375 C 334.613281 555.609375 318.96875 553.375 321.875 578.582031 Z M 348.273438 625.28125 C 350.9375 620.289063 352.039063 616.804688 354.265625 611.304688 C 354.371094 606.445313 351.222656 592.628906 350.605469 592.335938 C 347.476563 590.867188 336.082031 585.332031 332.847656 584.164063 C 333.003906 583.554688 339.992188 573.855469 339.992188 573.855469 C 340.242188 573.898438 342.296875 575.75 346.164063 579.421875 C 360.917969 590.007813 344.945313 543.089844 341.582031 537.457031 C 341.25 537.1875 334.15625 535.199219 333.65625 534.976563 C 333.554688 534.179688 320.296875 403.773438 319.238281 397.921875 L 319.371094 397.921875 C 323.984375 397.34375 335.078125 519.796875 338.628906 532.105469 C 339.210938 532.441406 344.015625 534.6875 344.0625 534.734375 C 346.398438 537.023438 351.789063 557.335938 353.933594 567.496094 C 353.960938 567.617188 360.917969 597.660156 340.53125 577.5625 C 337.523438 580.835938 336.15625 582.550781 336.421875 582.683594 L 350.941406 589.402344 C 352.519531 589.699219 357.390625 610.136719 357.242188 611.792969 C 357.179688 612.480469 350.953125 623.839844 350.503906 624.460938 C 352.976563 636.554688 354.257813 643.96875 354.34375 646.699219 C 353.769531 646.117188 349.277344 628.492188 348.273438 625.28125 Z M 358.050781 701.964844 C 357.378906 699.84375 353.46875 647.964844 353.46875 646.578125 C 353.46875 646.578125 356.261719 658.722656 358.722656 701.964844 Z M 368.359375 648.390625 C 367.535156 652.007813 365.527344 692.976563 365.515625 693.179688 C 364.789063 691.574219 365.164063 649.34375 365.972656 646.332031 C 369.039063 634.945313 376.140625 594.851563 376.09375 594.527344 C 376.074219 594.382813 363.082031 547.191406 359.894531 536.128906 C 353.253906 513.050781 334.660156 427.777344 334.316406 425.667969 C 334.621094 425.472656 336.742188 425.464844 336.742188 425.464844 C 337.355469 428.464844 364.652344 544.066406 365.382813 544.800781 C 365.851563 544.671875 381.105469 540.425781 379.664063 565.554688 L 379.597656 565.148438 C 379.566406 564.933594 375.78125 543.089844 366.019531 547.082031 C 365.941406 548.519531 378.117188 596.953125 378.117188 596.953125 C 378.117188 596.953125 370.089844 640.746094 368.359375 648.390625 Z M 377.738281 572.574219 C 377.484375 572.28125 379.855469 567.957031 380.03125 567.1875 L 380.164063 567.1875 C 380.164063 567.1875 383.773438 571.628906 383.546875 571.929688 C 383.546875 571.929688 381.792969 576.074219 381.578125 576.617188 C 380.847656 576.191406 377.738281 572.574219 377.738281 572.574219 Z M 381.59375 577.023438 C 386.320313 601.433594 396.214844 597.777344 396.214844 597.777344 C 396.628906 599.363281 383.769531 605.3125 381.59375 577.023438 "/>
</g>
</svg>
