<?xml version="1.0" encoding="UTF-8"?>
<svg xmlns="http://www.w3.org/2000/svg" xmlns:xlink="http://www.w3.org/1999/xlink" width="331pt" height="664pt" viewBox="0 0 331 664" version="1.1">
<g id="surface1">
<path style=" stroke:none;fill-rule:nonzero;fill:rgb(0%,0%,0%);fill-opacity:1;" d="M 298.128906 39.523438 C 277.371094 36.164063 253.730469 37.84375 234.289063 30.046875 C 228.769531 26.324219 225.171875 20.683594 218.691406 19.246094 C 205.128906 3.886719 185.570313 -2.476563 165.53125 0.644531 C 152.449219 1.964844 139.128906 12.644531 134.929688 25.246094 C 133.128906 36.886719 122.570313 53.085938 135.769531 62.445313 C 136.25 80.683594 131.570313 97.84375 130.609375 115.964844 C 137.089844 122.566406 133.128906 131.804688 130.609375 138.886719 C 128.449219 152.5625 135.410156 166.726563 126.289063 177.402344 C 118.851563 189.046875 139.371094 198.882813 123.648438 207.644531 C 119.328125 217.246094 120.050781 231.285156 126.648438 239.5625 C 126.410156 244.246094 131.570313 251.5625 125.328125 253.84375 C 121.730469 255.402344 120.769531 259.722656 120.648438 263.804688 C 123.050781 268.003906 127.851563 268.242188 132.289063 268.484375 C 133.128906 275.085938 125.328125 271.84375 122.328125 274.605469 C 118.96875 276.042969 116.570313 279.523438 117.648438 283.605469 C 118.371094 287.324219 121.609375 289.484375 124.488281 291.402344 C 123.410156 300.042969 129.53125 306.285156 126.648438 315.164063 C 123.171875 319.722656 118.730469 323.804688 118.851563 329.804688 C 118.011719 340.84375 118.851563 352.363281 129.289063 357.523438 C 126.171875 368.324219 127.609375 379.964844 129.648438 390.765625 C 125.570313 400.722656 120.890625 414.042969 127.128906 424.484375 C 124.128906 429.164063 120.890625 433.722656 118.488281 438.765625 C 117.53125 437.324219 118.488281 435.644531 118.851563 434.445313 C 117.53125 389.203125 113.808594 340.242188 99.890625 297.042969 C 93.890625 286.242188 112.371094 280.84375 105.890625 269.804688 C 99.769531 267.402344 93.648438 270.285156 88.25 272.445313 C 62.691406 284.925781 38.929688 301.605469 15.171875 318.164063 C 9.050781 323.085938 2.210938 329.203125 0.53125 336.765625 C 0.289063 340.125 3.769531 342.285156 7.011719 341.5625 C 24.652344 338.324219 33.410156 355.484375 41.570313 367.003906 C 60.691406 393.324219 58.25 552.882813 61.488281 594.644531 C 64.730469 613.125 68.449219 631.484375 83.449219 645.164063 C 97.730469 661.964844 121.371094 653.5625 138.289063 662.445313 C 148.96875 667.84375 147.890625 653.203125 153.890625 650.804688 C 164.210938 642.164063 175.851563 633.644531 181.128906 621.042969 C 185.328125 620.921875 189.050781 623.082031 193.25 621.882813 C 195.171875 604.125 199.730469 587.324219 200.929688 569.203125 C 194.808594 567.402344 187.128906 568.003906 182.449219 563.5625 C 184.488281 546.644531 181.851563 526.722656 184.609375 509.5625 C 195.289063 499.605469 187.730469 484.722656 189.289063 471.523438 C 190.371094 461.5625 199.96875 450.644531 191.449219 440.925781 C 187.011719 429.285156 200.210938 420.164063 191.929688 410.203125 C 187.730469 406.605469 182.449219 408.164063 177.648438 407.203125 C 176.089844 404.925781 178.488281 403.242188 178.96875 401.085938 C 182.449219 395.445313 176.328125 391.605469 175.011719 386.925781 C 174.53125 368.683594 172.609375 349.003906 173.328125 332.445313 C 177.890625 325.84375 181.128906 316.605469 177.171875 308.683594 C 178.25 299.085938 179.328125 289.484375 174.648438 280.605469 C 178.128906 270.164063 180.890625 257.324219 177.171875 246.046875 C 181.011719 234.402344 176.210938 223.003906 172.851563 212.804688 C 177.769531 171.765625 171.53125 129.886719 169.851563 88.84375 C 173.089844 86.203125 171.890625 81.164063 171.648438 77.566406 C 166.371094 70.726563 162.050781 60.886719 166.371094 52.964844 C 167.210938 48.644531 165.890625 44.203125 162.050781 41.324219 C 163.011719 37.125 164.089844 33.164063 167.328125 30.046875 C 170.929688 27.523438 174.890625 25.84375 179.808594 26.566406 C 207.289063 41.683594 236.929688 51.523438 267.53125 59.445313 C 272.570313 61.964844 275.089844 68.445313 280.011719 70.605469 C 283.371094 72.765625 287.210938 70.726563 289.96875 68.925781 C 291.890625 69.886719 294.289063 70.246094 296.449219 70.605469 C 306.890625 65.324219 318.890625 71.804688 330.171875 68.445313 C 319.371094 59.324219 309.890625 48.40625 298.128906 39.523438 Z M 138.769531 170.925781 C 142.488281 150.644531 140.570313 131.804688 140.089844 110.804688 C 144.410156 110.566406 143.570313 115.484375 145.25 117.765625 C 146.449219 134.324219 141.648438 149.445313 140.929688 165.644531 C 143.929688 172.125 146.210938 180.164063 143.929688 187.726563 C 142.609375 190.363281 140.449219 194.445313 137.449219 194.203125 C 137.089844 194.203125 136.96875 194.203125 136.609375 194.203125 C 141.890625 188.683594 141.289063 177.765625 138.769531 170.925781 Z M 131.449219 233.085938 C 135.648438 226.964844 143.210938 220.605469 138.769531 212.324219 C 136.96875 210.164063 136.488281 201.164063 140.089844 208.84375 C 141.769531 214.125 144.171875 220.726563 141.410156 226.125 C 137.089844 229.363281 142.128906 231.523438 140.449219 235.722656 C 140.328125 241.605469 140.808594 247.722656 140.089844 253.363281 C 139.609375 253.363281 139.25 253.363281 138.769531 253.363281 C 137.449219 245.445313 139.730469 237.882813 138.289063 230.925781 C 136.128906 232.125 134.328125 233.683594 131.449219 233.085938 Z M 146.089844 406.722656 C 145.128906 403.484375 142.488281 400.484375 140.449219 398.085938 C 146.089844 399.882813 148.851563 405.765625 149.570313 411.042969 C 149.929688 415.484375 147.769531 418.84375 144.769531 421.84375 C 147.171875 418.484375 147.648438 411.523438 146.089844 406.722656 Z M 144.769531 430.125 C 149.570313 433.964844 150.050781 438.164063 152.570313 443.085938 C 155.929688 453.402344 140.328125 460.722656 150.410156 469.003906 C 151.609375 473.085938 148.609375 475.363281 146.570313 478.003906 C 149.449219 483.765625 152.808594 489.882813 151.25 497.085938 C 149.570313 499.242188 149.691406 503.085938 146.570313 503.5625 C 150.53125 496.242188 149.570313 485.925781 144.769531 479.324219 C 140.328125 480.523438 134.089844 481.125 130.609375 477.164063 C 130.609375 476.683594 130.609375 476.324219 130.609375 475.84375 C 135.53125 475.242188 145.011719 479.804688 147.890625 472.003906 C 149.210938 468.042969 141.851563 465.324219 144.488281 462.925781 C 144.128906 462.445313 145.25 461.5625 144.769531 461.203125 C 148.851563 455.683594 151.609375 448.484375 149.089844 441.285156 C 146.089844 436.242188 145.851563 431.203125 139.609375 428.324219 C 139.609375 425.203125 143.328125 429.042969 144.769531 430.125 Z M 165.171875 563.5625 C 159.53125 564.765625 151.851563 563.921875 148.25 559.242188 C 156.53125 560.445313 165.171875 563.085938 172.011719 557.085938 C 174.289063 557.5625 176.089844 556.003906 177.171875 558.402344 C 173.210938 560.203125 169.011719 561.523438 165.171875 563.5625 Z M 175.488281 576.042969 C 165.53125 578.984375 156.230469 577.785156 146.089844 576.042969 C 155.210938 574.84375 165.410156 576.765625 175.488281 576.042969 Z M 158.691406 539.804688 C 156.289063 539.804688 149.691406 548.5625 152.210938 541.121094 C 155.328125 535.363281 165.050781 540.523438 165.171875 532.003906 C 167.570313 530.203125 171.230469 527.085938 173.328125 528.523438 C 169.429688 529.484375 167.03125 542.085938 158.691406 539.804688 Z M 131.449219 431.324219 C 136.730469 433.003906 135.410156 438.042969 137.449219 442.125 C 138.410156 448.722656 136.25 455.445313 132.769531 460.363281 C 135.289063 452.683594 133.25 439.964844 131.449219 431.324219 Z M 136.128906 382.125 C 138.171875 375.523438 136.128906 366.523438 136.128906 358.84375 C 138.53125 357.882813 139.011719 360.644531 139.609375 361.84375 C 140.328125 368.804688 140.570313 376.722656 136.128906 382.125 Z M 122.328125 339.765625 C 122.808594 338.445313 123.289063 337.363281 123.171875 335.925781 C 124.128906 337.484375 124.96875 340.363281 127.488281 339.765625 C 131.808594 336.402344 132.171875 330.765625 133.128906 325.484375 C 133.609375 325.484375 133.96875 325.484375 134.449219 325.484375 C 135.410156 331.84375 135.171875 339.042969 129.648438 342.765625 C 126.769531 342.882813 124.609375 341.203125 122.328125 339.765625 Z M 108.050781 382.964844 C 108.171875 394.484375 111.289063 405.285156 110.210938 416.683594 C 105.53125 386.324219 101.449219 354.882813 92.089844 325.964844 C 101.691406 342.765625 105.53125 362.804688 108.050781 382.964844 Z M 30.289063 334.605469 C 50.449219 322.484375 71.449219 312.765625 89.570313 295.722656 C 89.808594 296.085938 90.050781 296.324219 90.410156 296.5625 C 86.929688 304.605469 77.808594 308.203125 71.332031 313.484375 C 58.128906 321.402344 45.171875 330.285156 30.289063 334.605469 Z M 67.265625 548.546875 C 81.785156 550.46875 95.089844 548.5625 110.210938 549.285156 C 109.96875 550.003906 111.050781 550.003906 110.691406 550.605469 C 97.011719 552.644531 80.691406 550.605469 66.652344 549.285156 C 65.511719 548.953125 67.027344 548.667969 67.265625 548.546875 Z M 67.96875 559.722656 C 79.128906 561.765625 94.25 561.285156 105.53125 560.085938 C 99.53125 565.183594 74.136719 562.738281 67.96875 559.722656 Z M 103.730469 579.523438 C 103.488281 577.003906 102.410156 572.203125 104.691406 570.882813 C 105.648438 576.644531 108.53125 581.445313 111.171875 586.484375 C 107.089844 587.082031 104.808594 582.523438 103.730469 579.523438 Z M 132.289063 651.28125 C 128.808594 651.523438 128.929688 647.683594 126.648438 646.125 C 120.53125 641.683594 107.691406 639.164063 109.851563 628.84375 C 111.410156 625.722656 113.929688 621.402344 111.171875 618.042969 C 110.328125 615.285156 106.851563 612.765625 109.371094 609.765625 C 110.808594 613.84375 113.691406 617.921875 115.851563 621.882813 C 113.328125 624.402344 110.808594 628.125 112.371094 632.203125 C 114.890625 635.804688 118.488281 640.484375 123.171875 640.484375 C 123.050781 632.324219 124.128906 623.5625 132.289063 620.203125 C 135.289063 618.644531 128.929688 624.285156 127.96875 626.683594 C 124.609375 635.203125 128.089844 645.164063 132.289063 651.28125 Z M 133.96875 601.601563 C 131.570313 604.125 127.371094 604.125 124.128906 603.285156 C 118.96875 600.285156 118.96875 593.683594 118.011719 588.164063 C 124.128906 585.523438 124.488281 576.523438 131.449219 575.683594 C 133.011719 575.5625 134.929688 576.042969 136.128906 575.203125 C 136.730469 581.804688 137.328125 593.921875 133.96875 601.601563 Z M 135.289063 567.882813 C 132.648438 567.523438 130.488281 568.484375 127.96875 568.722656 C 128.449219 563.5625 112.851563 560.324219 124.128906 557.5625 C 127.371094 559.242188 131.691406 560.324219 135.769531 559.242188 C 137.210938 562.484375 134.328125 564.402344 135.289063 567.882813 Z M 134.929688 534.644531 C 132.769531 533.804688 131.210938 531.644531 128.449219 532.484375 C 124.128906 535.605469 124.371094 540.402344 121.488281 544.121094 C 120.289063 543.644531 118.96875 542.324219 118.488281 541.121094 C 118.730469 529.722656 119.691406 522.042969 119.328125 510.402344 C 125.691406 509.085938 130.128906 509.445313 136.609375 509.5625 C 137.210938 518.445313 135.53125 526.363281 134.929688 534.644531 Z M 174.648438 606.765625 C 169.488281 611.683594 160.609375 613.964844 159.050781 621.402344 C 161.449219 623.921875 163.371094 626.5625 163.011719 630.042969 C 161.929688 628.722656 161.570313 627.042969 160.371094 625.722656 C 152.808594 630.402344 140.03125 638.984375 137.089844 637.84375 C 144.410156 634.363281 151.730469 628.484375 159.050781 624.042969 C 157.96875 620.683594 154.371094 618.164063 151.730469 615.882813 C 153.53125 615.882813 154.730469 617.082031 156.050781 618.402344 C 160.609375 613.722656 165.648438 609.042969 171.171875 604.601563 C 173.570313 599.683594 174.890625 594.402344 178.488281 589.964844 C 177.171875 595.484375 175.96875 601.125 174.648438 606.765625 Z M 184.96875 578.683594 C 190.96875 584.203125 192.171875 593.445313 190.128906 601.601563 C 188.449219 605.203125 186.050781 609.042969 182.449219 611.5625 C 183.769531 600.285156 183.769531 590.082031 184.96875 578.683594 Z M 179.808594 491.804688 C 179.929688 469.125 171.648438 441.644531 180.289063 420.164063 C 180.648438 420.164063 181.128906 420.164063 181.488281 420.164063 C 179.089844 435.644531 182.449219 447.523438 181.96875 463.363281 C 181.011719 473.445313 183.648438 484.242188 181.488281 494.445313 C 176.210938 498.644531 170.570313 501.644531 165.171875 505.722656 C 167.691406 499.964844 174.769531 496.125 179.808594 491.804688 Z M 165.53125 424.84375 C 153.890625 422.5625 162.171875 409.722656 160.371094 402.882813 C 159.648438 398.804688 160.011719 394.242188 159.890625 389.925781 C 155.808594 387.402344 148.730469 389.324219 143.570313 388.125 C 143.808594 387.523438 142.730469 387.523438 143.089844 386.925781 C 150.050781 386.925781 153.050781 387.042969 159.050781 386.445313 C 158.328125 369.402344 157.609375 350.5625 157.371094 333.285156 C 154.371094 332.085938 150.769531 332.085938 147.410156 331.605469 C 145.96875 336.285156 143.808594 340.722656 142.25 345.402344 C 147.53125 353.324219 152.808594 361.84375 153.050781 371.324219 C 149.808594 363.523438 148.371094 352.722656 138.289063 348.882813 C 138.890625 344.683594 142.371094 340.605469 143.089844 335.925781 C 139.730469 325.363281 152.328125 331.964844 156.050781 329.445313 C 157.25 316.003906 157.488281 300.644531 157.371094 286.605469 C 155.808594 286.125 152.328125 283.722656 152.210938 287.085938 C 153.289063 297.285156 148.609375 306.042969 147.890625 316.003906 C 147.171875 300.042969 151.25 283.605469 150.410156 267.164063 C 147.648438 263.683594 141.53125 264.644531 139.609375 262.003906 C 144.289063 262.363281 147.171875 263.085938 151.730469 263.804688 C 153.53125 269.324219 151.488281 275.324219 152.210938 281.445313 C 154.488281 283.964844 157.851563 283.722656 160.851563 284.925781 C 157.851563 323.203125 160.730469 362.085938 161.691406 400.242188 C 162.289063 408.644531 161.691406 417.765625 165.53125 424.84375 Z M 160.851563 98.324219 C 158.691406 101.203125 156.570313 102.765625 154.769531 105.765625 C 164.609375 113.925781 162.53125 129.765625 160.851563 141.046875 C 163.96875 150.523438 163.851563 161.804688 163.371094 172.125 C 155.449219 174.644531 155.570313 183.402344 154.730469 190.363281 C 151.128906 211.246094 154.25 231.164063 153.890625 250.84375 C 155.449219 252.882813 158.808594 253.003906 159.050781 255.523438 C 156.648438 255.402344 152.691406 256.125 151.25 253.363281 C 151.128906 232.246094 151.011719 206.683594 153.410156 182.925781 C 154.851563 178.605469 154.96875 172.84375 160.371094 170.925781 C 162.171875 163.484375 160.730469 155.324219 159.890625 148.003906 C 156.410156 136.363281 161.808594 126.40625 156.890625 114.765625 C 155.328125 111.40625 153.769531 108.164063 152.210938 104.804688 C 156.050781 102.765625 168.769531 74.445313 160.851563 98.324219 Z M 157.371094 11.925781 C 148.128906 19.726563 146.328125 31.003906 146.570313 42.164063 C 149.210938 42.523438 152.089844 43.003906 154.730469 43.484375 C 151.488281 44.085938 146.808594 44.085938 143.089844 43.484375 C 143.808594 42.886719 144.050781 42.164063 143.929688 41.324219 C 142.488281 38.203125 142.851563 33.285156 143.929688 29.203125 C 145.851563 18.523438 152.808594 9.164063 163.488281 7.246094 C 177.289063 3.886719 192.890625 13.363281 205.25 19.726563 C 190.011719 15.644531 173.808594 5.566406 157.371094 11.925781 Z M 291.289063 50.804688 C 290.089844 56.324219 287.210938 61.84375 283.488281 65.445313 C 285.050781 58.726563 288.171875 50.566406 289.96875 43.003906 C 292.96875 43.726563 291.53125 48.40625 291.289063 50.804688 "/>
</g>
</svg>
