<?xml version="1.0" encoding="UTF-8"?>
<svg xmlns="http://www.w3.org/2000/svg" xmlns:xlink="http://www.w3.org/1999/xlink" width="285pt" height="474pt" viewBox="0 0 285 474" version="1.1">
<g id="surface1">
<path style=" stroke:none;fill-rule:nonzero;fill:rgb(0%,0%,0%);fill-opacity:1;" d="M 158.835938 266.476563 C 158.894531 264.289063 147.046875 82.992188 143.632813 67.199219 C 153.183594 57.324219 154.441406 54.882813 155.027344 50.710938 C 157.984375 29.703125 159.480469 16.734375 159.515625 11.820313 L 159.175781 11.820313 C 159.164063 11.671875 159.1875 11.503906 159.261719 11.308594 C 142.015625 -11.386719 108.890625 5.871094 108.890625 5.871094 C 108.890625 5.871094 109 8.480469 109.058594 8.761719 C 103.648438 8.105469 100.820313 10.824219 100.566406 16.914063 C 100.261719 24.390625 109.398438 21.503906 109.398438 21.503906 L 110.25 21.503906 L 111.269531 27.109375 C 111.789063 29.996094 110.417969 30.675781 107.152344 29.136719 C 98.1875 24.910156 97.957031 50.441406 112.203125 42.226563 C 112.3125 42.371094 112.445313 42.433594 112.628906 42.398438 C 112.738281 42.726563 112.457031 47.277344 111.777344 47.664063 C 101.015625 42.96875 105.03125 59.191406 106.304688 60.804688 C 108.035156 65.375 116.535156 59.894531 116.535156 59.894531 C 117.324219 60.769531 122.140625 68.148438 122.140625 68.21875 C 122.140625 68.21875 123.488281 261.875 123.304688 262.335938 C 123.050781 262.96875 36.308594 331.527344 0.445313 471.839844 C 27.847656 476.96875 284.039063 472.203125 284.039063 472.203125 C 284.039063 472.203125 233.878906 327.121094 158.835938 266.476563 Z M 154.453125 365.738281 L 154.113281 365.738281 C 152.867188 357.996094 152.585938 334.648438 152.585938 334.648438 C 152.585938 334.648438 171.507813 346.234375 154.453125 365.738281 Z M 146.28125 215.390625 L 148.320313 214.539063 L 149.003906 247.453125 C 148.976563 247.710938 145.941406 247.839844 145.941406 247.839844 L 146.910156 247.234375 C 147.835938 245.5625 146.28125 215.390625 146.28125 215.390625 Z M 147.488281 298.632813 L 149.085938 350.246094 L 148.089844 350.261719 C 146.664063 344.730469 146.730469 333.023438 145.109375 298.972656 C 145.800781 298.304688 147.488281 298.390625 147.488281 298.632813 Z M 141.699219 47.214844 C 143.910156 47.214844 145.703125 49.007813 145.703125 51.21875 C 145.703125 53.429688 143.910156 55.222656 141.699219 55.222656 C 139.488281 55.222656 137.695313 53.429688 137.695313 51.21875 C 137.695313 49.007813 139.488281 47.214844 141.699219 47.214844 Z M 135.546875 247.992188 L 135.546875 247.652344 C 135.546875 247.652344 138.355469 247.472656 138.433594 247.480469 C 139.652344 239.820313 136.382813 186.71875 135.878906 178.160156 C 135.710938 175.320313 136.289063 176.640625 137.414063 176.640625 L 137.585938 176.640625 C 138.867188 180.992188 142.171875 247.3125 142.171875 247.3125 C 142.171875 247.425781 142.394531 247.480469 142.851563 247.480469 L 142.851563 247.992188 Z M 139.164063 259.679688 L 139.164063 272.929688 C 139.164063 273.34375 139.023438 273.683594 138.738281 273.949219 C 138.34375 273.714844 138.144531 273.316406 138.144531 272.761719 L 138.144531 260.1875 C 138.144531 259.847656 139.164063 259.679688 139.164063 259.679688 Z M 132.574219 29.46875 C 135.03125 29.46875 137.023438 31.460938 137.023438 33.914063 C 137.023438 36.371094 135.03125 38.363281 132.574219 38.363281 C 130.117188 38.363281 128.128906 36.371094 128.128906 33.914063 C 128.128906 31.460938 130.117188 29.46875 132.574219 29.46875 Z M 128.105469 66.757813 L 138.808594 65.894531 C 138.699219 66.285156 139.144531 69.800781 139.144531 69.800781 C 139.144531 69.878906 138.46875 70.105469 137.109375 70.480469 L 138.636719 100.210938 C 137.164063 101.375 136.429688 101.542969 136.429688 100.71875 C 136.429688 100.71875 135.40625 74.304688 134.390625 70.820313 L 128.105469 70.820313 Z M 127.933594 124.789063 L 130.136719 124.789063 L 130.820313 157.238281 C 130.804688 159.128906 137.109375 158.257813 137.109375 158.257813 C 137.058594 150.277344 133.535156 120.285156 133.371094 118.507813 C 133.992188 117.601563 135.578125 117.996094 135.578125 117.996094 C 137.476563 135.523438 138.683594 148.675781 139.199219 157.445313 L 141.015625 158.769531 C 141.015625 158.769531 141.1875 161.839844 140.503906 162.675781 L 128.621094 162.515625 C 126.441406 152.285156 127.578125 125.371094 127.933594 124.789063 Z M 130.277344 192.777344 L 131.808594 192.777344 C 133.363281 205.84375 133.164063 246.972656 133.164063 246.972656 C 133.164063 247.355469 133.898438 247.582031 135.375 247.652344 L 135.375 248.160156 L 129.429688 248.160156 L 129.429688 247.480469 L 129.9375 247.480469 C 129.9375 247.480469 131.476563 212.609375 130.277344 192.777344 Z M 121.25 19.488281 C 118.792969 19.488281 116.800781 17.496094 116.800781 15.039063 C 116.800781 12.582031 118.792969 10.589844 121.25 10.589844 C 123.707031 10.589844 125.699219 12.582031 125.699219 15.039063 C 125.699219 17.496094 123.707031 19.488281 121.25 19.488281 Z M 54.855469 469 C 54.808594 469.125 14.199219 468.085938 12.894531 467.304688 C 13.734375 463.179688 20.671875 450.625 20.878906 450.144531 C 30.003906 449.65625 55.351563 467.613281 54.855469 469 Z M 74.589844 330.894531 C 79.09375 315.796875 127.765625 269.394531 127.765625 269.394531 C 127.765625 270.476563 126.746094 319.683594 126.746094 319.683594 C 101.117188 328.382813 88.53125 330.269531 74.589844 330.894531 Z M 124.433594 368.796875 C 108.035156 353.078125 123.160156 338.386719 123.160156 338.386719 C 123.367188 338.386719 124.433594 368.796875 124.433594 368.796875 Z M 116.988281 371.503906 C 97.070313 359.984375 111.921875 336.640625 114.410156 338.523438 C 114.4375 338.667969 103.21875 358.480469 117.5625 371.179688 C 118.234375 371.777344 117.847656 372 116.988281 371.503906 Z M 155.761719 387.941406 C 155.761719 387.941406 125.046875 388.246094 124.503906 388.28125 C 123.527344 387.558594 123.324219 385.246094 124.082031 382.335938 C 124.78125 382.128906 128.789063 382.074219 128.824219 382.011719 C 129.007813 381.667969 128.960938 338.132813 129.089844 335.617188 C 129.71875 334.898438 131.367188 334.925781 131.46875 334.9375 C 131.46875 334.9375 132.164063 381.359375 132.105469 381.628906 C 132.105469 381.628906 139.523438 381.425781 139.792969 381.484375 C 139.445313 367.371094 138.679688 289.371094 138.679688 289.371094 C 138.679688 289.371094 138.679688 289.371094 139.371094 289.597656 C 139.578125 293.789063 144.136719 381.15625 144.136719 381.15625 L 156.269531 381.65625 C 156.460938 381.84375 157.230469 387.925781 155.761719 387.941406 Z M 157.476563 372.839844 L 157.136719 372.328125 C 157.136719 372.328125 178.113281 352.84375 157.984375 329.347656 C 157.984375 329.347656 158.261719 327.910156 158.410156 327.820313 C 173.445313 336.269531 177.640625 361.570313 157.476563 372.839844 Z M 161.550781 315.898438 L 161.039063 276.144531 C 174.878906 290.121094 191.554688 310.234375 192.980469 314.539063 C 192.980469 314.539063 161.871094 316.246094 161.550781 315.898438 Z M 236.167969 465.425781 C 242.6875 457.367188 266.214844 450.0625 267.59375 450.136719 C 270.128906 453.792969 275.78125 465.761719 275.410156 465.765625 L 236.167969 465.425781 "/>
</g>
</svg>
