<?xml version="1.0" encoding="UTF-8"?>
<svg xmlns="http://www.w3.org/2000/svg" xmlns:xlink="http://www.w3.org/1999/xlink" width="532pt" height="163pt" viewBox="0 0 532 163" version="1.1">
<g id="surface1">
<path style=" stroke:none;fill-rule:nonzero;fill:rgb(0%,0%,0%);fill-opacity:1;" d="M 528.621094 55.660156 C 528.070313 55.550781 510.339844 53.984375 500.828125 63.042969 C 500.828125 63.042969 114.34375 56.683594 70.4375 40.1875 C 45.492188 37.78125 26.222656 0.511719 25.128906 0.417969 C 22.96875 0.230469 -28.757813 72.882813 23.589844 125.644531 C 25.117188 125.722656 50.894531 91.78125 117.792969 85.789063 L 117.792969 86.4375 C 72.492188 129.582031 126.492188 153.882813 139.691406 153.101563 C 144.132813 154.007813 391.089844 186.28125 440.738281 128.398438 C 441.117188 127.667969 480.640625 125.53125 487.800781 77.773438 C 494.5625 77.339844 498.691406 77.433594 500.191406 78.054688 C 500.257813 78.082031 514.839844 86.832031 527.679688 86.234375 C 532.875 74.976563 533.1875 64.785156 528.621094 55.660156 Z M 26.425781 18.886719 C 11.292969 101.457031 26.394531 108.730469 26.394531 108.730469 C 26.980469 108.804688 27.371094 109.421875 27.558594 110.578125 C 13.542969 119.234375 9.492188 70.632813 26.425781 18.886719 Z M 114.246094 73.800781 C 77.21875 77.382813 41.023438 90.203125 41.023438 90.003906 C 41.023438 90.003906 78.570313 69.734375 114.246094 73.480469 Z M 331.308594 75.4375 L 331.308594 75.761719 C 327.902344 76.746094 324.824219 77.234375 322.074219 77.222656 C 321.773438 77.976563 321.515625 82.316406 321.425781 82.40625 C 321.371094 82.457031 319.480469 82.730469 319.480469 82.730469 L 319.320313 77.867188 C 319.308594 77.589844 309.277344 78.371094 309.277344 78.679688 L 309.277344 83.214844 C 309.277344 83.839844 308.679688 84.054688 307.492188 83.863281 L 306.847656 78.679688 C 306.847656 78.679688 245.066406 84.359375 233.460938 80.621094 C 233.460938 80.621094 331.308594 74.976563 331.308594 75.4375 Z M 121.390625 104.550781 C 122.523438 104.523438 132.644531 105.734375 133.054688 111.191406 C 132.34375 120.433594 122.945313 122.300781 118.960938 122.207031 C 116.144531 119.53125 110.441406 110.53125 121.390625 104.550781 Z M 297.433594 148.953125 C 296.890625 148.953125 296.460938 149.628906 296.136719 150.980469 L 294.195313 151.058594 C 294.195313 151.058594 294.03125 149.40625 294.03125 149.277344 C 293.796875 149.082031 271.027344 148.144531 271.027344 148.144531 C 270.976563 148.957031 270.738281 149.714844 270.320313 150.410156 C 269.652344 150.59375 268.96875 150.484375 268.273438 150.089844 L 268.273438 148.304688 C 268.273438 148.125 244.460938 145.796875 244.460938 145.796875 C 247.542969 143.308594 320.265625 147.832031 323.191406 147.980469 L 323.367188 149.15625 Z M 125.277344 130.648438 C 157.542969 108.433594 126.898438 95.65625 126.898438 95.65625 C 126.898438 95.65625 136.71875 87.183594 139.128906 85.773438 C 139.210938 85.992188 355.539063 78.433594 357.097656 111.53125 C 356.140625 152.832031 142.542969 136.632813 125.277344 130.648438 Z M 356.886719 144.90625 C 356.886719 144.90625 391.992188 116.082031 358.914063 80.914063 C 358.914063 80.914063 414.039063 79.183594 419.417969 94.523438 C 404.589844 107.984375 412.691406 121.484375 422.578125 125.789063 C 423.492188 148.480469 356.886719 144.90625 356.886719 144.90625 Z M 425.414063 115.921875 C 419.441406 114.734375 415.390625 105.28125 425.25 102.800781 C 427.742188 106.878906 427.066406 115.542969 425.414063 115.921875 Z M 444.09375 114.609375 C 445.992188 95.832031 430.480469 79.046875 430.484375 78.96875 C 432.46875 78.246094 474.222656 77.675781 474.222656 77.675781 C 474.238281 77.769531 468.492188 111.132813 444.09375 114.609375 Z M 517.136719 78.160156 L 516.652344 78.160156 C 516.433594 78.160156 516.328125 64.878906 516.328125 64.878906 L 516.8125 64.878906 C 517.519531 65.988281 518.136719 75.605469 517.136719 78.160156 "/>
</g>
</svg>
