<?xml version="1.0" encoding="UTF-8"?>
<svg xmlns="http://www.w3.org/2000/svg" xmlns:xlink="http://www.w3.org/1999/xlink" width="511pt" height="404pt" viewBox="0 0 511 404" version="1.1">
<g id="surface1">
<path style=" stroke:none;fill-rule:nonzero;fill:rgb(0%,0%,0%);fill-opacity:1;" d="M 510.691406 163.878906 C 509.839844 146.59375 487.753906 135.867188 464.46875 130.675781 C 423.546875 105.457031 388.710938 120.8125 334.503906 127.589844 C 272.308594 135.367188 168.644531 143.433594 104.796875 103.792969 C 136.574219 89.265625 153.054688 65.371094 141.160156 35.726563 C 135.488281 44.742188 130.75 54.839844 125.078125 64.242188 C 123.132813 52.042969 118.789063 37.246094 110.160156 34.796875 C 111.378906 55.644531 108.546875 75.671875 96.644531 91.769531 C 96.4375 92.050781 96.003906 91.460938 96.183594 91.082031 C 114.460938 53.1875 104.21875 3.453125 52.738281 0.140625 C 53.203125 1.539063 54.058594 3.871094 54.214844 5.503906 C 70.335938 11.578125 90.015625 19.460938 96.015625 40.390625 C 89.023438 45.207031 82.652344 49.402344 75.660156 52.898438 C 83.457031 64.390625 88.996094 83.308594 85.914063 97.652344 C 78.613281 100.683594 68.757813 108.929688 65.542969 111.507813 C 49.316406 110.871094 43.191406 90.539063 39.277344 73.839844 C 38.910156 72.28125 38.398438 70.777344 37.429688 69.683594 C 30.59375 71.703125 23.136719 72.867188 16.375 74.730469 C 5.050781 59.160156 8.398438 42.378906 17.152344 22.128906 C 15.953125 20.265625 15.015625 18.648438 13.964844 17.46875 C -16.777344 54.484375 13.636719 108.304688 57.789063 119.097656 C 45.582031 132.253906 9.167969 166.011719 3.75 173.371094 C -2.773438 182.234375 -2.078125 192.488281 13.421875 193.457031 C 9.359375 197.867188 3.863281 207.054688 2.933594 211.949219 C 4.796875 213.179688 5.886719 214.359375 7.59375 215.523438 C 9.359375 207.996094 15.046875 197.453125 22.296875 194.777344 C 23.414063 205.6875 33.183594 203.296875 46.007813 198.730469 C 57.734375 194.558594 75.011719 189.007813 87.28125 187.398438 C 116.191406 183.609375 172.8125 225.273438 176.902344 251.886719 C 179.390625 267.816406 181.71875 284.054688 183.660156 299.984375 C 184.183594 304.707031 184.117188 311.308594 182.695313 316.789063 C 178.667969 332.3125 174.609375 347.964844 179 374.03125 C 172.066406 380.199219 167.960938 383.449219 164.210938 392.0625 C 158.960938 404.128906 177.71875 408.859375 188.964844 396.351563 C 194.917969 389.730469 194.28125 356.238281 195.0625 350.066406 C 196.328125 340.097656 199.238281 332.945313 204.445313 324.199219 C 211.265625 312.746094 220.324219 279.488281 224.300781 266.804688 C 226.121094 267.453125 232.148438 269.914063 234.710938 271.078125 C 236.964844 283.898438 245.699219 323.570313 247.996094 334.636719 C 241.910156 345.707031 245.472656 358.140625 246.132813 376.050781 C 242.136719 381.902344 235.789063 392.429688 237.035156 398.886719 C 238.46875 406.308594 255.589844 404.546875 261.316406 397.21875 C 263.035156 395.023438 263.585938 391.976563 263.460938 389.261719 C 263.148438 373.875 263.65625 357.988281 263.304688 342.640625 C 273.261719 321.773438 279.089844 304.84375 285.683594 280.417969 C 308.917969 283.1875 342.324219 284.132813 365.867188 281.492188 C 368.097656 289.027344 380.105469 330.652344 381.484375 337.046875 C 377.78125 349.308594 368.6875 369.703125 365.570313 372.589844 C 359.433594 378.273438 353.714844 379.839844 353.820313 390.175781 C 353.925781 400.253906 378.554688 397.433594 381.160156 387.113281 C 382.121094 383.296875 381.394531 378.828125 383.195313 375.121094 C 389.878906 362.453125 399.046875 352.121094 404.097656 338.601563 C 406.972656 322.363281 417.847656 272.3125 419.945313 263.453125 C 420.753906 263.035156 421.585938 262.78125 422.355469 262.292969 C 424.773438 276.242188 434.320313 313.660156 437.816406 329.585938 C 435.097656 344.660156 430.671875 358.957031 427.949219 374.03125 C 422.4375 377.996094 413.785156 383.621094 412.851563 389.207031 C 410.859375 401.082031 435.148438 404.773438 440.40625 394.664063 C 442.6875 390.277344 441.730469 384.355469 440.460938 379.78125 C 445.523438 366.0625 458.0625 341.296875 454.601563 329.820313 C 466.269531 294.820313 469.59375 273.765625 474.21875 234.371094 C 480.839844 200.699219 496.214844 179.070313 474.546875 144.578125 C 474.179688 143.988281 474.492188 143.449219 474.996094 143.765625 C 479.808594 146.820313 482.3125 149.582031 486.457031 153.597656 C 487.292969 159.433594 487.378906 167.046875 491.242188 171.890625 C 497.195313 179.347656 511.277344 175.734375 510.691406 163.878906 Z M 417.695313 153.984375 C 411.871094 154.578125 405.765625 157.910156 402.230469 161.445313 C 396.402344 158.105469 389.722656 156.394531 382.652344 155.617188 C 390.226563 140.148438 409.789063 138.898438 417.695313 153.984375 Z M 377.789063 163.023438 C 385.761719 159.550781 392.003906 163.488281 401.300781 168.671875 C 403.757813 166.167969 406.640625 163.792969 410.003906 161.601563 C 420.601563 154.300781 429.089844 159.976563 435.953125 171.46875 C 432.128906 172.894531 422.976563 177.683594 420.492188 180.402344 C 416.917969 179.160156 407.902344 174.265625 402.386719 172.632813 C 392.167969 171.644531 378.847656 174.835938 374.414063 179.859375 C 371.617188 178.460938 368.199219 175.976563 364.703125 174.808594 C 367.6875 169.832031 371.039063 165.96875 377.789063 163.023438 Z M 78.457031 118.320313 C 83.117188 120.730469 88.867188 123.449219 92.988281 126.558594 C 87.316406 127.492188 74.015625 131.40625 69.675781 130.675781 C 71.773438 125.859375 75.039063 122.207031 78.457031 118.320313 Z M 90.578125 134.171875 C 89.335938 136.96875 87.195313 141.257813 84.210938 146.011719 C 79.695313 144.257813 75.425781 141.632813 70.84375 139.613281 C 76.824219 136.582031 83.972656 136.347656 90.578125 134.171875 Z M 207.878906 301.742188 C 205.878906 307.171875 195.421875 329.960938 192.441406 338.757813 C 189.714844 350.769531 189.050781 363.113281 187.816406 375.597656 C 187.023438 383.605469 188.039063 392.746094 182.1875 395.089844 C 177.65625 396.671875 173.914063 398.222656 171.152344 398.585938 C 167.949219 396.976563 168.78125 392.859375 171.644531 389.027344 C 174.800781 384.804688 178.582031 380.417969 183.117188 377.761719 C 182.1875 364.085938 182.964844 350.101563 182.730469 336.503906 C 184.515625 329.742188 187.082031 323.292969 189.800781 316.921875 C 189.800781 293.597656 185.222656 261.054688 180.867188 243.046875 C 190.554688 248.1875 206.382813 257.671875 218.859375 264.320313 C 217.722656 270.972656 210.128906 295.632813 207.878906 301.742188 Z M 259.574219 337.433594 C 258.796875 343.183594 258.21875 375.753906 258.105469 380.742188 C 257.964844 387.042969 259.398438 396.324219 254.523438 397.109375 C 251.488281 397.597656 244.191406 398.042969 241.472656 397.34375 C 242.246094 390.425781 245.820313 383.898438 250.796875 379.625 C 248.171875 366.050781 248.167969 348.070313 254.195313 334.679688 C 249.339844 323.382813 242.90625 287.945313 242.015625 273.332031 C 249.257813 275.152344 267.226563 278.480469 277.5625 279.59375 C 275.859375 302.230469 269.105469 317.523438 259.574219 337.433594 Z M 265.925781 230.613281 C 249.945313 224.628906 209.773438 202.761719 204.195313 199.886719 C 174.800781 184.726563 138.433594 174.804688 106 173.609375 C 86.488281 172.890625 63.382813 176.910156 45.835938 180.113281 C 44.898438 180.285156 44.714844 180.027344 45.574219 179.699219 C 61.609375 173.539063 83.117188 170.039063 106.136719 169.613281 C 161.742188 168.589844 222.199219 184.132813 267.734375 208.609375 C 266.644531 212.804688 265.558594 217.234375 264.003906 221.117188 C 270.207031 219.792969 287.15625 214.902344 292.90625 213.425781 C 286.71875 205.363281 280.863281 198.273438 273.871094 191.4375 C 272.316406 194.855469 270.839844 198.898438 269.441406 202.472656 C 220.488281 178.632813 167.355469 163.769531 110.363281 164.804688 C 88.300781 165.207031 60.75 169.578125 40.027344 176.105469 C 38.597656 176.558594 38.171875 176.113281 39.53125 175.324219 C 55.480469 166.09375 79.78125 155.941406 100.238281 155.761719 C 138.566406 155.429688 275.367188 165.382813 301.59375 196.597656 C 318.125 216.273438 300.679688 243.628906 265.925781 230.613281 Z M 398.8125 337.824219 C 391.042969 351.109375 383.816406 365.71875 376.28125 378.460938 C 375.96875 382.269531 375.242188 386.429688 374.414063 389.492188 C 370.53125 391.515625 364.140625 392.8125 360.039063 391.746094 C 357.242188 384.210938 363.613281 378.148438 368.976563 375.507813 C 371.257813 374.410156 372.402344 373.503906 373.179688 371.796875 C 373.964844 370.070313 383.84375 344.945313 387.46875 336.890625 C 385.757813 330.753906 375.734375 292.609375 372.9375 280.019531 C 383.148438 278.203125 403.628906 270.613281 413.421875 265.640625 C 412.253906 270.847656 400.832031 323.214844 398.8125 337.824219 Z M 448.074219 327.566406 C 448.300781 331.554688 448.851563 334.339844 449.03125 338.007813 C 446.855469 345.933594 444.734375 354.605469 442.480469 362.453125 C 439.605469 368.046875 436.964844 373.953125 434.242188 379.78125 C 433.925781 380.84375 437.074219 386.710938 436.019531 390.90625 C 433.71875 400.066406 415.917969 397.585938 418.683594 388.886719 C 419.796875 385.386719 426.933594 380.253906 431.136719 376.050781 C 432.535156 372.945313 439.449219 343.183594 443.414063 332.230469 C 441.78125 321.816406 428.9375 269.742188 428.105469 259.65625 C 442.867188 253.597656 456.542969 245.050781 467.5 234.714844 C 464.867188 272.421875 459.742188 293.328125 448.074219 327.566406 Z M 469.675781 210.085938 C 467.03125 209.539063 464.078125 208.921875 461.515625 208.765625 C 456.136719 220.765625 446.753906 242.5625 446.753906 242.5625 L 443.257813 244.039063 C 443.257813 244.039063 454.644531 213.558594 456.621094 208.066406 C 454.136719 207.910156 444.890625 207.675781 442.867188 207.832031 C 434.863281 223.992188 418.78125 256.859375 418.78125 256.859375 L 414.664063 257.792969 C 414.664063 257.792969 429.503906 223.914063 436.886719 207.445313 C 429.632813 207.859375 420.402344 208.039063 416.867188 207.875 C 407 228.152344 387.078125 269.605469 387.078125 269.605469 L 383.195313 270.535156 C 383.195313 270.535156 402.074219 228.1875 413.574219 208.609375 C 407.824219 208.765625 401.1875 208.96875 394.929688 209.152344 C 383.816406 231.21875 360.273438 273.644531 360.273438 273.644531 L 355.921875 273.878906 C 355.921875 273.878906 388.839844 214.101563 391.355469 209.929688 C 384.128906 209.929688 376.066406 209.773438 369.382813 210.085938 C 364.101563 219.566406 332.457031 274.265625 332.457031 274.265625 L 328.882813 273.644531 C 328.882813 273.644531 353.515625 231.140625 366.179688 210.242188 C 358.410156 210.242188 350.71875 210.242188 342.867188 210.242188 C 329.117188 230.988281 304.875 271.777344 304.875 271.777344 L 299.046875 271.234375 C 299.046875 271.234375 324.144531 228.890625 337.507813 208.996094 C 338.472656 207.304688 336.816406 207.210938 335.882813 207.132813 C 335.339844 207.132813 334.632813 207.132813 334.164063 207.132813 C 334.164063 197.1875 338.828125 187.164063 347.375 181.957031 C 357.410156 177.605469 370.128906 180.972656 376.433594 185.066406 C 389.367188 173.777344 406.320313 175.113281 419.015625 187.863281 C 428.855469 180.605469 441.671875 170.410156 454.757813 174.109375 C 470.902344 180.089844 474.941406 194.722656 469.675781 210.085938 Z M 506.351563 162.621094 C 504.828125 167.777344 497.269531 170.769531 495.367188 164.996094 C 494.851563 163.429688 493.21875 155.695313 492.828125 153.753906 C 489.101563 149.015625 484.515625 145.050781 480.320313 141.476563 C 486.816406 141.40625 496.511719 146.207031 502.011719 153.148438 C 504.066406 155.742188 507.214844 159.703125 506.351563 162.621094 "/>
</g>
</svg>
