<?xml version="1.0" encoding="UTF-8"?>
<svg xmlns="http://www.w3.org/2000/svg" xmlns:xlink="http://www.w3.org/1999/xlink" width="223pt" height="693pt" viewBox="0 0 223 693" version="1.1">
<g id="surface1">
<path style=" stroke:none;fill-rule:nonzero;fill:rgb(0%,0%,0%);fill-opacity:1;" d="M 217.839844 649.820313 C 214.671875 647.214844 216.679688 647.269531 216.679688 640.308594 C 216.679688 633.347656 181.878906 213.660156 181.878906 209.484375 C 181.878906 205.308594 186.007813 200.828125 189.535156 200.4375 C 195.800781 199.738281 196.496094 194.867188 196.496094 187.210938 C 196.496094 182.339844 193.710938 167.722656 193.710938 160.066406 C 193.710938 152.410156 189.535156 148.929688 181.878906 147.539063 C 174.222656 146.148438 151.234375 147.546875 139.425781 148.234375 C 67.660156 152.410156 47.96875 92.152344 56.597656 7.640625 C 57.429688 -0.496094 57.648438 -3.277344 48.945313 6.25 C -44.53125 108.585938 17.835938 230.574219 57.992188 260.988281 C 65.054688 266.335938 63.558594 262.378906 62.167969 256.117188 C 52.996094 214.835938 100.339844 180.929688 117.152344 183.730469 C 136.175781 186.902344 141.511719 197.730469 141.511719 233.148438 C 141.511719 245.675781 156.824219 634.742188 156.824219 641.703125 C 156.824219 644.917969 160.304688 648.660156 157.519531 650.75 C 152.070313 654.835938 156.859375 671.796875 173.527344 674.414063 C 180.050781 675.4375 177.703125 679.285156 179.097656 683.460938 C 180.488281 687.636719 188.375 692.277344 194.640625 692.277344 C 200.902344 692.277344 208.097656 688.101563 207.632813 681.375 C 207.394531 677.902344 207.25 678.855469 211.113281 675.804688 C 221.0625 667.945313 227.03125 657.378906 217.839844 649.820313 Z M 208.097656 638.453125 C 204.152344 637.292969 191.160156 633.117188 186.519531 628.476563 C 184.878906 626.835938 184.300781 625.40625 186.753906 626.15625 C 196.246094 629.066406 205.3125 622.910156 206.007813 621.75 C 206.703125 620.589844 207.632813 619.199219 208.328125 622.445313 C 209.023438 625.695313 209.71875 634.742188 209.71875 636.363281 C 209.71875 637.988281 212.039063 639.613281 208.097656 638.453125 Z M 207.398438 590.660156 C 207.398438 593.445313 208.558594 605.046875 209.023438 606.667969 C 209.488281 608.292969 207.816406 608.996094 206.007813 608.527344 C 202.492188 607.609375 184.460938 600.882813 180.257813 596.230469 C 179.273438 595.144531 180.953125 594.605469 183.734375 594.371094 L 184.433594 594.371094 C 189.757813 594.371094 202.847656 595.148438 205.542969 590.429688 C 206.472656 588.804688 207.398438 587.878906 207.398438 590.660156 Z M 205.078125 565.371094 C 205.3125 568.15625 205.777344 574.1875 206.007813 576.507813 C 206.195313 578.371094 206.238281 579.292969 203.6875 578.597656 C 201.136719 577.902344 193.015625 576.507813 190.464844 573.726563 C 189.0625 572.195313 189.070313 572.332031 190.695313 571.636719 C 193.558594 570.410156 201.832031 565.371094 202.527344 564.675781 C 203.222656 563.980469 204.847656 562.589844 205.078125 565.371094 Z M 184.664063 566.996094 C 181.878906 567.691406 180.023438 567.691406 176.777344 565.605469 C 170.539063 561.59375 165.613281 557.320313 163.785156 551.222656 C 163.089844 548.902344 162.214844 544.527344 163.785156 545.886719 C 167.941406 549.472656 190.5625 558.835938 193.015625 559.574219 C 195.335938 560.269531 197.371094 559.734375 194.640625 562.125 C 190.929688 565.371094 187.449219 566.300781 184.664063 566.996094 Z M 202.0625 544.957031 C 202.761719 547.507813 203.222656 554.699219 203.222656 555.859375 C 203.222656 557.019531 202.527344 557.949219 200.902344 557.484375 C 199.28125 557.019531 187.449219 550.988281 184.894531 550.0625 C 182.34375 549.132813 183.503906 548.203125 185.128906 547.972656 C 187.882813 547.578125 198.585938 545.652344 199.976563 544.492188 C 201.367188 543.332031 201.367188 542.40625 202.0625 544.957031 Z M 199.28125 520.828125 C 199.511719 523.148438 200.441406 527.324219 200.441406 530.804688 C 200.441406 534.285156 198.585938 534.285156 197.191406 534.285156 C 195.726563 534.285156 180.023438 531.734375 176.3125 529.414063 C 175.433594 528.863281 178.167969 527.558594 181.183594 526.859375 C 184.199219 526.164063 193.710938 520.363281 195.566406 518.742188 C 197.425781 517.117188 199.046875 518.507813 199.28125 520.828125 Z M 43.664063 234.628906 C 21.984375 199.046875 -11.613281 138.105469 29.257813 55.152344 C 41.527344 30.253906 47.660156 19.453125 37.632813 45.78125 C 8.460938 122.351563 4.703125 163.132813 45.054688 232.773438 C 48.988281 239.5625 47.171875 240.390625 43.664063 234.628906 Z M 144.527344 191.15625 C 145.457031 186.980469 145.976563 184.601563 141.6875 184.457031 C 138.308594 184.34375 140.351563 183.265625 141.742188 181.410156 C 143.136719 179.554688 143.34375 175.941406 139.425781 174.914063 C 134.035156 173.503906 133.203125 180.007813 134.347656 180.917969 C 135.773438 182.050781 135.519531 184.804688 133.390625 183.265625 C 98.128906 157.746094 55.902344 216.210938 54.976563 232.914063 C 54.539063 240.738281 54.398438 240.746094 51.265625 234.769531 C 22.300781 179.5625 3.824219 148.769531 42.910156 44.53125 C 46.089844 36.058594 46.230469 40.78125 46.625 43.140625 C 48.691406 55.535156 47.792969 158.875 127.359375 153.570313 C 135.558594 153.023438 144.300781 149.738281 144.0625 158.210938 C 143.976563 161.347656 146.847656 164.242188 151.488281 164.242188 C 156.128906 164.242188 168.65625 164.242188 174.222656 164.242188 C 179.792969 164.242188 180.71875 168.417969 180.71875 172.132813 C 180.71875 175.84375 181.605469 186.855469 181.648438 194.867188 C 181.664063 197.71875 178.863281 199.507813 173.761719 199.507813 C 168.65625 199.507813 156.824219 197.417969 153.34375 196.722656 C 150.613281 196.175781 143.601563 195.332031 144.527344 191.15625 Z M 158.910156 516.421875 C 158.910156 510.851563 145.921875 214.820313 145.921875 212.035156 C 145.921875 209.25 144.0625 203.683594 148.703125 204.609375 C 153.34375 205.539063 165.234375 206.699219 169.757813 206.699219 C 174.28125 206.699219 174.457031 208.152344 174.457031 212.035156 C 174.457031 216.675781 196.03125 493.222656 196.960938 499.71875 C 197.886719 506.214844 197.28125 509.238281 195.105469 511.78125 C 192.320313 515.027344 185.964844 523.257813 170.046875 523.730469 C 164.078125 523.90625 158.910156 521.988281 158.910156 516.421875 Z M 163.089844 531.035156 C 168.8125 534.890625 189.070313 539.15625 191.390625 538.925781 C 193.710938 538.691406 197.425781 539.390625 194.871094 540.316406 C 192.320313 541.246094 183.273438 544.492188 178.398438 543.796875 C 176.320313 543.5 163.785156 538.925781 161.929688 535.675781 C 160.070313 532.429688 161.964844 530.28125 163.089844 531.035156 Z M 165.175781 564.675781 C 166.785156 566.085938 190 583.238281 199.28125 583.238281 C 201.84375 583.238281 204.269531 583.429688 200.902344 585.789063 C 196.269531 589.035156 185.433594 590.195313 176.777344 588.804688 C 173.570313 588.289063 171.671875 589.035156 169.585938 586.253906 C 163.785156 578.519531 162.390625 576.199219 162.390625 566.53125 C 162.390625 563.054688 163.320313 563.054688 165.175781 564.675781 Z M 164.015625 594.835938 C 163.824219 592.933594 166.0625 591.191406 167.265625 592.75 C 173.542969 600.882813 188.019531 611.414063 198.351563 613.628906 C 201.601563 614.324219 203.820313 613.65625 200.671875 616.878906 C 195.785156 621.878906 182.328125 620.589844 179.097656 619.660156 C 177.535156 619.214844 175.9375 619.777344 173.527344 617.804688 C 170.976563 615.71875 167.960938 612.46875 166.335938 610.382813 C 164.710938 608.292969 164.710938 608.292969 164.480469 604.117188 C 164.246094 599.941406 164.246094 597.15625 164.015625 594.835938 Z M 164.710938 621.054688 C 164.710938 619.660156 165.175781 618.964844 165.871094 619.894531 C 170.050781 625.464844 193.214844 641.628906 201.832031 642.859375 C 205.078125 643.324219 206.941406 645.316406 203.222656 646.804688 C 198.585938 648.660156 183.976563 646.90625 181.183594 646.804688 C 174.6875 646.574219 165.640625 638.222656 165.40625 635.207031 C 165.175781 632.191406 164.710938 622.445313 164.710938 621.054688 Z M 167.496094 659.101563 C 164.945313 654.925781 165.871094 653.070313 165.871094 650.285156 C 165.871094 647.5 168.191406 647.5 169.816406 649.355469 C 170.796875 650.476563 185.359375 662.582031 187.910156 663.742188 C 190.464844 664.902344 202.992188 669.308594 191.390625 668.148438 C 179.792969 666.988281 170.046875 663.277344 167.496094 659.101563 Z M 202.0625 681.375 C 200.207031 684.390625 198.34375 686.214844 194.640625 686.476563 C 188.144531 686.941406 184.894531 682.070313 182.808594 680.214844 C 180.871094 678.488281 181.878906 677.199219 183.503906 678.125 C 186.191406 679.660156 198.351563 679.980469 199.976563 679.75 C 201.601563 679.519531 203.792969 678.566406 202.0625 681.375 Z M 210.414063 662.582031 C 207.167969 663.972656 196.496094 662.117188 191.390625 658.636719 C 187.964844 656.300781 186.753906 655.15625 189.769531 655.390625 C 193.238281 655.65625 202.296875 654.695313 206.007813 652.605469 C 208.847656 651.007813 210.878906 651.910156 210.878906 655.390625 C 210.878906 658.871094 213.664063 661.191406 210.414063 662.582031 "/>
</g>
</svg>
