<?xml version="1.0" encoding="UTF-8"?>
<svg xmlns="http://www.w3.org/2000/svg" xmlns:xlink="http://www.w3.org/1999/xlink" width="276pt" height="555pt" viewBox="0 0 276 555" version="1.1">
<g id="surface1">
<path style=" stroke:none;fill-rule:nonzero;fill:rgb(0%,0%,0%);fill-opacity:1;" d="M 275.5 139.5 C 276.855469 126.933594 258 105 238.578125 110.101563 C 229.371094 112.519531 216.5 136.5 209 146 C 191.4375 168.242188 149.144531 169.671875 141.585938 159.414063 C 134.585938 149.914063 111.96875 124.480469 103.46875 119.480469 C 94.96875 114.480469 80.109375 108.316406 80.109375 108.316406 L 57.175781 52.15625 C 63 46.5 59.5 42 48.859375 40.972656 C 43.621094 40.464844 38.054688 33.144531 36.425781 30.261719 C 34.792969 27.375 24.691406 24.566406 24.691406 24.566406 C 24.691406 24.566406 21 16.5 20.574219 14.457031 C 20.335938 13.3125 22 9.5 19.941406 5.0625 C 19.289063 3.652344 12.433594 -1.871094 7.023438 1.039063 C 0.527344 4.539063 -0.851563 13.550781 1.367188 16.0625 C 3.582031 18.570313 7.398438 20.082031 8.898438 23.082031 C 10.398438 26.082031 12.828125 33.191406 12.828125 33.191406 C 12.828125 33.191406 9 35.5 10.449219 41.777344 C 11.234375 45.171875 12.203125 56.460938 12.203125 56.460938 C 12.203125 56.460938 6.5 63 10.167969 70.277344 C 12.738281 75.367188 20.289063 67.683594 20.289063 67.683594 L 44.765625 127.316406 C 44.765625 127.316406 35.585938 144.503906 33.585938 157.503906 C 31.585938 170.503906 41.105469 202.152344 45.773438 222.152344 C 50.4375 242.152344 79.5 307.21875 82.5 314.882813 C 85.5 322.550781 115.226563 378.160156 125.902344 394.753906 C 135.738281 410.046875 227.570313 529.769531 238.6875 542.039063 C 256.664063 561.878906 272.703125 561.214844 267.242188 512.0625 C 264.242188 485.0625 243.097656 413.992188 234.5 362.5 C 224.574219 303.046875 230.484375 263.652344 242.09375 235.789063 C 252.09375 211.789063 273.5 158 275.5 139.5 Z M 164 184.5 C 171.03125 192 192.289063 232.933594 201.78125 255.34375 C 205.007813 250.9375 215.515625 236.578125 217.625 233.625 C 220.125 230.125 223.875 227.125 219.25 234.75 C 215.292969 241.269531 206.132813 255.644531 203.5625 259.671875 C 204.113281 261.066406 204.59375 262.347656 205 263.5 C 211.5 282 209.390625 282.34375 202.5625 263.449219 C 195.734375 244.554688 169.585938 198.234375 162.585938 189.234375 C 155.585938 180.234375 156.5 176.5 164 184.5 Z M 207.832031 428.257813 C 202.753906 428.261719 200.070313 432.578125 199.246094 436.386719 C 198.96875 437.679688 198.296875 437.675781 198.394531 435.34375 C 198.585938 430.769531 203.4375 426.789063 207.933594 427.261719 C 210.570313 427.535156 211.070313 428.257813 207.832031 428.257813 Z M 210.199219 442.644531 C 213.769531 440.941406 214.789063 436.511719 214.789063 436.511719 C 214.789063 436.511719 219.222656 442.769531 212.835938 446.371094 C 206.328125 450.042969 201.746094 443.5 201.746094 443.5 C 201.746094 443.5 206.785156 444.277344 210.199219 442.644531 Z M 124.53125 162.386719 C 164.039063 212.722656 188.4375 255.894531 199.667969 302.113281 C 200.910156 307.234375 201.402344 310.164063 197.992188 301.445313 C 177.871094 250.023438 164.542969 218.632813 133.1875 179.613281 C 116.386719 158.707031 114.191406 151.609375 92.3125 153.953125 C 84.785156 154.761719 78.429688 157.679688 73 161 C 64 166.5 62.328125 163.148438 68.757813 159.320313 C 72.769531 156.933594 91.53125 148.589844 91.53125 148.589844 C 91.53125 148.589844 92.90625 149.503906 96.359375 149.890625 C 99.816406 150.277344 116.460938 152.101563 124.53125 162.386719 Z M 177.472656 322.976563 C 181.042969 321.269531 182.0625 316.839844 182.0625 316.839844 C 182.0625 316.839844 186.496094 323.097656 180.109375 326.699219 C 173.601563 330.371094 169.019531 323.828125 169.019531 323.828125 C 169.019531 323.828125 174.058594 324.605469 177.472656 322.976563 Z M 166.523438 316.714844 C 166.242188 318.011719 165.570313 318.007813 165.667969 315.671875 C 165.859375 311.097656 170.714844 307.117188 175.210938 307.589844 C 177.84375 307.867188 178.34375 308.585938 175.105469 308.585938 C 170.027344 308.589844 167.34375 312.910156 166.523438 316.714844 Z M 177.5625 369.585938 C 177.753906 365.007813 182.605469 361.03125 187.101563 361.503906 C 189.738281 361.777344 190.238281 362.5 187 362.5 C 181.921875 362.503906 179.234375 366.820313 178.414063 370.628906 C 178.136719 371.921875 177.464844 371.917969 177.5625 369.585938 Z M 189.367188 376.886719 C 192.9375 375.183594 193.953125 370.753906 193.953125 370.753906 C 193.953125 370.753906 198.390625 377.011719 192.003906 380.613281 C 185.496094 384.285156 180.910156 377.742188 180.910156 377.742188 C 180.910156 377.742188 185.949219 378.519531 189.367188 376.886719 Z M 123.503906 297.722656 C 126.886719 295.671875 127.460938 291.160156 127.460938 291.160156 C 127.460938 291.160156 132.496094 296.945313 126.5 301.167969 C 120.390625 305.46875 115.175781 299.414063 115.175781 299.414063 C 115.175781 299.414063 120.269531 299.683594 123.503906 297.722656 Z M 111.984375 292.585938 C 111.835938 293.902344 111.164063 293.964844 111.03125 291.632813 C 110.765625 287.0625 115.195313 282.621094 119.71875 282.640625 C 122.367188 282.652344 122.9375 283.316406 119.714844 283.640625 C 114.660156 284.148438 112.421875 288.714844 111.984375 292.585938 Z M 86.625 166 C 82.117188 165.511719 79.316406 169.085938 78.21875 172.382813 C 77.84375 173.503906 77.25 173.4375 77.5625 171.375 C 78.171875 167.332031 82.867188 164.273438 86.8125 165.125 C 89.125 165.625 89.5 166.3125 86.625 166 Z M 31.617188 30.636719 C 35.660156 31.722656 34.867188 32.589844 33.121094 32.8125 C 31.375 33.039063 25.234375 33.511719 21.066406 36.179688 C 16.902344 38.847656 15.6875 38.902344 15.066406 38.175781 C 14.257813 37.230469 14.957031 35.558594 19.289063 32.726563 C 24.941406 29.03125 26.261719 29.199219 31.617188 30.636719 Z M 17.617188 29.925781 C 15.953125 30.59375 12.84375 23.851563 13.839844 23.175781 C 14.625 22.640625 19.285156 29.261719 17.617188 29.925781 Z M 9.789063 16.359375 C 9.5 12 4.929688 10.484375 4.929688 10.484375 C 6.515625 10.078125 11.328125 6.484375 13.164063 4.816406 C 14.996094 3.148438 15.105469 6.308594 14.105469 8.144531 C 13.105469 9.976563 14.027344 12.042969 14.171875 12.613281 C 14.320313 13.183594 9.925781 18.464844 9.789063 16.359375 Z M 15.277344 64.511719 C 11.277344 69.175781 11.75 63.742188 13.25 62.074219 C 14.75 60.410156 19.273438 55.871094 19.941406 53.539063 C 20.605469 51.203125 16.730469 53.625 17.394531 48.457031 C 18.0625 43.292969 23.457031 38.746094 29.121094 36.910156 C 34.789063 35.078125 36.792969 39.511719 36.792969 39.511719 C 36.792969 39.511719 30.664063 42.5 26.179688 48.664063 C 24.046875 51.59375 24.769531 51.015625 27.96875 49.445313 C 33.535156 46.710938 43.144531 45.566406 50.121094 45.574219 C 55.074219 45.578125 54.457031 48.683594 50.121094 49.019531 C 45.789063 49.351563 30.84375 51.136719 28.007813 52.804688 C 25.175781 54.46875 19.277344 59.84375 15.277344 64.511719 Z M 35.832031 95.5 C 34.164063 91.167969 36.164063 91.832031 37.664063 94.667969 C 39.164063 97.5 39.878906 96.914063 37.878906 92.582031 C 35.878906 88.246094 28.292969 69.269531 26.898438 65.21875 C 25.472656 61.082031 28.960938 57.964844 35.460938 54.796875 C 41.960938 51.628906 47.074219 54.765625 48.90625 58.597656 C 50.738281 62.429688 58.980469 82.78125 61.144531 87.28125 C 63.3125 91.78125 72.820313 115.46875 72.820313 118.636719 C 72.820313 121.800781 68.164063 125.667969 63 127.832031 C 57.832031 130 59.550781 127.613281 62.886719 125.949219 C 67.210938 123.785156 69.359375 120.558594 67.574219 114.949219 C 66.40625 111.28125 59.664063 90.332031 59.664063 90.332031 C 59.664063 90.332031 53.34375 83.261719 51.09375 80.425781 C 48.84375 77.589844 49.457031 79.777344 51.121094 83.613281 C 52.789063 87.445313 59.5 109.332031 61.5 114.5 C 63.5 119.667969 61.644531 120.980469 56.976563 123.648438 C 52.3125 126.316406 48.703125 123.488281 47.703125 121.320313 C 46.703125 119.15625 37.5 99.832031 35.832031 95.5 Z M 45.480469 159.085938 C 70.53125 129.5 104.953125 139.28125 107.5 140.667969 C 111.050781 142.597656 112.128906 143.023438 108.289063 142.398438 C 78.695313 137.566406 65 144.050781 47.410156 159.566406 C 44.578125 162.066406 42.789063 162.265625 45.480469 159.085938 Z M 79.332031 264.167969 C 73.332031 254.5 57 210.167969 54.664063 200.167969 C 52.332031 190.167969 55.058594 187.203125 57.332031 197.167969 C 58.703125 203.183594 73.988281 246.804688 81.320313 262.472656 C 88.65625 278.140625 85.332031 273.835938 79.332031 264.167969 Z M 89.3125 182.5625 C 83.179688 185.191406 79.746094 178.9375 79.746094 178.9375 C 79.746094 178.9375 84.144531 180.117188 87.332031 179 C 90.664063 177.835938 92 174 92 174 C 92 174 95.328125 179.984375 89.3125 182.5625 Z M 97.976563 220.863281 C 99.453125 216.527344 105.230469 214.082031 109.410156 215.804688 C 111.859375 216.8125 112.136719 217.644531 109.03125 216.730469 C 104.15625 215.296875 100.363281 218.6875 98.5 222.105469 C 97.867188 223.269531 97.222656 223.074219 97.976563 220.863281 Z M 98.886719 229.632813 C 98.886719 229.632813 103.503906 231.800781 107.238281 231.203125 C 111.144531 230.574219 113.371094 226.613281 113.371094 226.613281 C 113.371094 226.613281 115.859375 233.867188 108.71875 235.519531 C 101.4375 237.203125 98.886719 229.632813 98.886719 229.632813 Z M 136.980469 399.378906 C 133.929688 399.03125 131.332031 397.167969 133 390.5 C 134.664063 383.835938 121.117188 353.132813 112.449219 346.800781 C 103.785156 340.464844 106.550781 339.679688 113.109375 344.089844 C 119.476563 348.371094 141.332031 376.835938 143.332031 389.5 C 144.535156 397.109375 140.054688 399.730469 136.980469 399.378906 Z M 110.3125 333.535156 C 97.3125 330.535156 104.664063 327.5 110.332031 328.835938 C 120.496094 331.226563 142.1875 352.75 153.855469 373.082031 C 165.519531 393.414063 156.320313 381.023438 151.664063 373.5 C 147.011719 365.976563 123.3125 336.535156 110.3125 333.535156 Z M 249.304688 498.019531 C 251.085938 495.992188 252.414063 494.378906 252.773438 493.738281 C 254.007813 491.546875 255 499.5 255 499.5 C 255 499.5 250.328125 508.496094 243.992188 513.164063 C 237.660156 517.832031 227.664063 519.5 227.664063 519.5 C 227.664063 519.5 205.738281 494.503906 200.664063 487.5 C 193.664063 477.832031 196 477.167969 201.332031 483.5 C 205.457031 488.398438 225.839844 512.214844 226.824219 514.246094 C 227.6875 516.03125 231.171875 515.234375 234.261719 513.214844 C 205.902344 483.019531 181.398438 452.523438 161.683594 418.886719 C 156.394531 409.859375 157.066406 404.304688 165.1875 420.078125 C 177.257813 443.515625 210.558594 483.273438 236.753906 511.226563 C 239.078125 509.066406 243.019531 504.957031 246.425781 501.230469 C 241.988281 465.175781 227.429688 393.441406 213.167969 363.679688 C 205.5 347.679688 210.332031 350.5 214.332031 360.167969 C 232.007813 402.878906 242.085938 448.285156 249.304688 498.019531 Z M 228 470.5 C 222.921875 470.503906 220.234375 474.820313 219.414063 478.628906 C 219.136719 479.921875 218.464844 479.917969 218.5625 477.585938 C 218.753906 473.007813 223.605469 469.03125 228.101563 469.503906 C 230.738281 469.777344 231.238281 470.5 228 470.5 Z M 230.367188 484.886719 C 233.9375 483.183594 234.953125 478.753906 234.953125 478.753906 C 234.953125 478.753906 239.390625 485.011719 233.003906 488.613281 C 226.496094 492.285156 221.910156 485.742188 221.910156 485.742188 C 221.910156 485.742188 226.949219 486.519531 230.367188 484.886719 Z M 238.394531 134.097656 C 232.394531 128.597656 236.5 127.5 241.5 131.5 C 246.808594 135.746094 255.105469 160.488281 252.585938 170.335938 C 250.066406 180.179688 248.363281 179.683594 249.863281 170.183594 C 251.363281 160.683594 244.394531 139.597656 238.394531 134.097656 "/>
</g>
</svg>
