<?xml version="1.0" encoding="UTF-8"?>
<svg xmlns="http://www.w3.org/2000/svg" xmlns:xlink="http://www.w3.org/1999/xlink" width="368pt" height="486pt" viewBox="0 0 368 486" version="1.1">
<g id="surface1">
<path style=" stroke:none;fill-rule:nonzero;fill:rgb(0%,0%,0%);fill-opacity:1;" d="M 359.847656 336.820313 C 349.335938 296.210938 320.824219 263.234375 311.753906 222.050781 C 322.40625 191.957031 327.734375 151.058594 313.910156 120.820313 C 322.984375 94.46875 337.960938 60.628906 321.113281 33.410156 C 308.441406 7.492188 276.183594 -0.929688 253.71875 2.597656 C 244.9375 5.1875 236.296875 8.070313 228.519531 12.964844 C 219.160156 8.644531 209.800781 4.613281 199.863281 1.878906 C 164.007813 -3.449219 130.023438 11.957031 111.015625 43.347656 C 83.511719 104.691406 141.257813 148.757813 166.601563 197.140625 C 167.464844 200.164063 170.632813 203.332031 168.328125 206.210938 L 152.199219 203.332031 C 135.351563 207.507813 126.066406 197.429688 107.847656 194.117188 C 72.332031 187.65625 33.402344 196.707031 13.242188 229.253906 C 1.144531 254.882813 -6.628906 286.5625 7.625 313.636719 C 22.027344 344.308594 52.695313 369.363281 85.816406 373.828125 C 114.039063 381.746094 131.320313 354.675781 154.214844 345.746094 C 160.410156 350.785156 167.03125 354.820313 174.953125 355.394531 C 181.144531 367.636719 168.039063 380.019531 175.960938 392.402344 C 181 402.625 191.65625 407.667969 202.886719 406.945313 C 210.230469 417.457031 208.503906 432.148438 213.257813 444.242188 C 216.425781 454.105469 224.34375 462.386719 232.984375 468.867188 C 253.144531 478.515625 273.878906 488.738281 298.648438 484.992188 C 322.695313 480.386719 348.652344 465.84375 358.121094 441.21875 C 370.785156 408.277344 367.621094 369.796875 359.847656 336.820313 Z M 307 185.042969 L 304.550781 180.292969 C 300.375 187.347656 296.777344 194.691406 292.457031 201.605469 C 293.464844 190.226563 297.640625 179.285156 295.625 167.476563 C 292.601563 151.058594 293.894531 130.324219 275.894531 122.546875 C 280.648438 116.210938 290.296875 117.652344 296.921875 117.363281 L 302.105469 126.003906 C 310.023438 143.140625 317.511719 166.757813 307 185.042969 Z M 297.929688 446.402344 C 287.128906 449.859375 274.886719 454.464844 263.367188 449.140625 C 255.734375 444.53125 245.367188 437.90625 245.078125 427.683594 C 243.929688 421.203125 243.785156 414.433594 239.894531 408.964844 C 245.367188 389.089844 249.6875 368.785156 261.640625 351.652344 C 270.710938 342.867188 284.265625 339.121094 289 326.449219 L 292.742188 317.378906 C 306.566406 344.308594 326.871094 368.5 325 401.761719 C 325.863281 420.769531 313.769531 437.042969 297.929688 446.402344 Z M 216.425781 315.363281 C 213.398438 312.914063 210.230469 310.46875 206.777344 309.171875 L 207.0625 249.699219 C 207.207031 246.820313 210.160156 248.367188 211.238281 248.980469 C 222.691406 255.46875 234.28125 247.972656 243.785156 242.5 C 258.039063 231.121094 265.382813 215.714844 263.367188 198.148438 L 268.265625 192.675781 C 269.128906 202.757813 271.144531 212.835938 270.28125 223.058594 C 261.0625 246.386719 255.015625 271.011719 248.96875 295.636719 C 239.464844 327.746094 229.671875 359.714844 218.441406 391.105469 C 216.855469 380.164063 217.71875 365.476563 206.054688 358.5625 C 204.902344 356.402344 204.761719 353.8125 204.328125 351.363281 C 211.960938 349.058594 220.886719 342.722656 221.894531 334.082031 C 223.480469 326.882813 219.878906 320.980469 216.425781 315.363281 Z M 225.785156 225.796875 C 220.382813 226.226563 211.960938 224.210938 208.070313 217.875 C 205.191406 210.675781 205.769531 201.890625 211.527344 196.132813 C 219.664063 189.148438 230.679688 190.804688 237.449219 197.140625 C 241.046875 201.746094 243.640625 207.074219 242.054688 213.410156 C 241.265625 221.546875 233.558594 225.9375 225.785156 225.796875 Z M 196.695313 65.09375 C 199.503906 66.386719 201.160156 67.828125 203.320313 69.269531 L 203.339844 69.195313 C 202.761719 77.402344 192.824219 83.613281 186.328125 85.539063 C 178.839844 87.125 169.914063 87.125 163.144531 85.539063 C 163.144531 82.371094 164.585938 79.0625 166.023438 76.179688 L 170.488281 81.363281 C 171.0625 77.765625 172.074219 74.164063 172.214844 70.277344 C 174.230469 69.84375 176.535156 72.148438 177.398438 74.164063 C 177.832031 75.460938 177.832031 77.046875 178.695313 78.339844 C 182.441406 74.597656 185.03125 69.988281 185.03125 64.515625 C 189.351563 67.394531 190.648438 72.292969 192.953125 76.613281 C 195.6875 73.300781 197.558594 69.410156 196.695313 65.09375 Z M 208.792969 76.613281 L 210.953125 74.453125 C 226.792969 77.476563 244.503906 79.492188 259.910156 74.164063 C 264.375 108.003906 252.566406 137.8125 238.601563 165.316406 C 229.960938 162.867188 220.742188 161.859375 211.527344 160.851563 C 195.257813 143.859375 184.3125 123.84375 171.785156 104.835938 C 170.34375 101.523438 168.472656 98.5 168.328125 94.46875 C 183.59375 92.597656 199.863281 92.019531 208.792969 76.613281 Z M 261.640625 135.652344 C 259.769531 151.78125 266.246094 165.460938 266.824219 180.867188 C 264.375 183.460938 265.941406 187.292969 261.351563 189.507813 C 257.03125 183.171875 253.289063 175.253906 246.089844 171.21875 C 251.847656 159.554688 253.863281 146.164063 261.640625 135.652344 Z M 282.808594 169.925781 C 281.222656 162.003906 282.375 153.507813 284.535156 146.308594 C 290.871094 157.683594 289.574219 174.386719 289.71875 186.050781 C 286.550781 195.125 282.953125 203.90625 277.910156 211.972656 C 277.046875 212.117188 276.472656 211.683594 275.894531 211.394531 L 287.273438 186.773438 C 286.984375 181.011719 283.816406 175.683594 282.808594 169.925781 Z M 276.183594 237.890625 L 277.625 237.890625 L 266.246094 275.90625 L 266.535156 277.636719 C 275.03125 285.121094 282.375 293.332031 287.273438 302.980469 C 286.695313 303.410156 286.121094 304.273438 285.257813 303.988281 C 279.0625 296.5 273.015625 289.011719 266.824219 281.523438 L 267.542969 293.617188 C 267.113281 294.195313 266.246094 293.761719 265.527344 293.90625 L 263.800781 279.074219 Z M 228.519531 393.84375 C 236.296875 373.683594 248.246094 355.25 260.34375 336.820313 C 271.144531 332.785156 280.738281 320.152344 282.898438 309.207031 L 282.988281 309.296875 C 287.371094 315.796875 283.882813 324.679688 280.070313 330.628906 C 276.472656 337.105469 270.460938 338.90625 264.808594 343.730469 C 248.105469 357.699219 242.054688 378.148438 237.878906 398.304688 C 236.492188 401.3125 232.371094 402.699219 229.527344 400.753906 C 227.65625 399.027344 227.90625 395.714844 228.519531 393.84375 Z M 290.441406 273.605469 C 290.296875 275.761719 289.144531 278.066406 286.984375 278.785156 C 283.960938 279.9375 282.808594 278.5 280.359375 277.058594 C 277.625 273.746094 275.609375 270.148438 277.910156 265.972656 C 280.648438 264.53125 283.238281 263.089844 286.550781 263.234375 C 289.574219 265.683594 292.023438 269.785156 290.441406 273.605469 Z M 277.910156 237.316406 L 276.902344 233.429688 C 283.527344 231.410156 291.449219 231.699219 297.929688 230.691406 C 299.65625 231.269531 300.664063 231.554688 302.105469 231.410156 C 301.78125 233.335938 298.523438 234.09375 296.199219 234.4375 C 290.152344 235.445313 284.246094 236.882813 277.910156 237.316406 Z M 240.617188 12.675781 C 260.34375 3.300781 284.824219 4.613281 301.097656 16.132813 C 306.136719 20.308594 312.183594 24.054688 314.632813 30.246094 C 311.609375 28.660156 308.296875 28.085938 304.839844 27.507813 C 307.863281 34.5625 313.625 41.1875 313.480469 49.972656 L 313.910156 58.613281 C 311.609375 56.453125 308.152344 55.15625 305.273438 53.714844 C 305.847656 60.773438 310.601563 66.964844 311.753906 74.164063 L 313.191406 84.820313 C 310.167969 83.957031 306.855469 81.21875 303.542969 80.066406 C 304.550781 86.980469 305.992188 95.042969 304.839844 102.820313 L 303.113281 109.445313 C 287.558594 105.988281 272.871094 113.042969 263.800781 126.292969 C 263.945313 108.578125 277.625 86.402344 262.792969 70.277344 C 261.785156 65.234375 265.671875 62.210938 265.527344 57.605469 C 264.375 43.78125 258.039063 31.683594 247.816406 22.324219 C 244.9375 19.734375 241.910156 16.132813 238.167969 14.980469 C 237.878906 13.539063 239.195313 13.398438 240.617188 12.675781 Z M 151.769531 162.578125 C 143.273438 146.882813 134.632813 131.332031 129.304688 114.195313 L 129.304688 100.804688 L 121.671875 94.46875 C 121.386719 91.730469 124.265625 88.707031 121.671875 86.546875 L 110.296875 86.546875 C 106.410156 64.230469 117.496094 45.363281 133.480469 32.691406 C 143.703125 23.910156 157.242188 22.757813 170.058594 20.164063 L 173.511719 15.414063 C 179.414063 17.859375 185.03125 20.742188 190.503906 24.054688 L 197.703125 18.4375 C 205.769531 24.339844 210.953125 32.40625 216.425781 39.894531 L 220.601563 28.515625 C 229.238281 37.011719 237.878906 46.804688 244.359375 56.882813 C 247.527344 52.710938 250.40625 47.667969 252.425781 42.628906 C 256.742188 48.53125 259.910156 56.742188 257.609375 64.515625 C 255.878906 69.699219 249.976563 68.546875 246.089844 70.707031 C 227.222656 74.019531 208.214844 69.125 192.953125 59.332031 C 187.191406 57.746094 181.144531 56.597656 175.238281 58.613281 C 163.71875 68.117188 153.929688 81.941406 158.394531 97.347656 C 168.183594 118.660156 188.632813 135.652344 199.863281 156.386719 C 191.511719 148.324219 184.167969 138.675781 175.238281 131.1875 C 175.527344 135.941406 178.410156 140.546875 180.855469 145.011719 L 166.222656 131.835938 L 166.601563 132.484375 C 175.097656 148.324219 185.464844 163.15625 194.96875 178.5625 C 205.480469 174.964844 213.398438 166.828125 229.527344 172.226563 C 243.640625 176.117188 254.726563 189.21875 256.167969 203.765625 C 256.023438 208.085938 256.742188 212.835938 254.152344 216.148438 C 255.59375 206.5 250.984375 196.277344 243.351563 188.933594 C 235.144531 182.289063 224.867188 181.046875 220.886719 182.019531 C 211.382813 181.589844 200.699219 191.875 197.703125 201.605469 C 194.679688 213.410156 200.296875 224.644531 210.230469 231.699219 C 216.425781 235.730469 223.335938 237.890625 231.6875 236.882813 C 228.230469 238.324219 224.34375 238.179688 220.886719 239.621094 C 223.625 241.636719 227.078125 243.363281 230.535156 244.226563 C 212.535156 251.285156 190.144531 235.585938 184.816406 225.507813 C 179.199219 218.667969 176.394531 208.660156 178.121094 197.859375 Z M 194.246094 303.988281 C 194.105469 295.636719 195.976563 287.859375 195.398438 279.796875 L 195.398438 279.832031 C 190.289063 279.148438 192.808594 275.90625 189.496094 274.898438 C 188.34375 275.1875 187.335938 276.050781 186.328125 276.628906 C 184.457031 268.851563 187.046875 260.785156 186.761719 253.15625 C 188.777344 253.875 190.648438 255.460938 192.519531 256.609375 C 193.816406 252.148438 193.671875 247.105469 194.679688 242.5 L 198.621094 244.984375 C 199.304688 246.890625 199.503906 248.546875 199.863281 251.714844 C 202.238281 272.621094 200.726563 296.355469 198.855469 317.8125 C 197.558594 319.105469 195.976563 319.25 194.246094 319.539063 C 191.800781 314.929688 194.824219 309.316406 194.246094 303.988281 Z M 149.03125 214.132813 C 153.210938 214.996094 154.503906 218.667969 156.230469 222.769531 L 154.503906 226.949219 L 179.847656 232.421875 C 179.414063 234.722656 177.382813 234.113281 174.953125 234.867188 C 166.890625 235.011719 160.410156 234.722656 153.496094 232.421875 L 153.585938 232.421875 C 148.996094 230.402344 152.777344 226.949219 151.046875 223.78125 C 150.039063 220.757813 147.304688 215.429688 149.03125 214.132813 Z M 172.9375 244.515625 C 174.664063 269.425781 173.367188 294.484375 175.671875 319.105469 C 163.71875 316.082031 149.464844 313.921875 137.945313 319.539063 C 125.128906 328.179688 112.601563 337.828125 96.472656 338.546875 C 80.199219 336.097656 66.519531 327.460938 54.28125 315.074219 C 40.023438 298.515625 42.90625 269.425781 51.976563 251.425781 C 62.921875 233.570313 80.632813 221.90625 101.65625 223.058594 C 113.320313 223.203125 123.402344 226.804688 133.480469 230.402344 C 143.847656 241.636719 158.105469 244.804688 172.9375 244.515625 Z M 32.535156 218.308594 C 46.21875 204.628906 73.722656 196.132813 82.648438 197.570313 C 99.136719 197.5 117.640625 205.203125 133.191406 213.699219 C 135.425781 211.828125 137.226563 211.46875 138.664063 212.691406 C 141.183594 215.066406 141.546875 218.308594 138.015625 220.394531 C 129.953125 224.714844 122.535156 217.011719 116.199219 213.125 C 102.378906 206.355469 85.097656 201.605469 69.257813 206.210938 C 56.585938 209.957031 44.34375 214.851563 32.535156 220.613281 L 32.519531 220.773438 C 31.800781 220.34375 32.105469 218.882813 32.535156 218.308594 Z M 27.347656 332.097656 C 11.082031 313.8125 3.738281 289.585938 5.609375 263.8125 C 7.769531 288.867188 14.96875 312.050781 28.359375 331.921875 C 28.691406 332.910156 27.441406 332.332031 27.347656 332.097656 Z M 27.066406 297.796875 C 24.617188 289.441406 24.617188 279.507813 24.328125 270.722656 C 26.203125 250.707031 43.050781 230.691406 62.34375 223.492188 C 66.304688 222.269531 67.746094 221.90625 69.542969 222.769531 C 61.191406 232.132813 48.953125 240.339844 44.632813 252.4375 C 34.984375 270.578125 33.113281 297.363281 43.625 315.652344 C 50.535156 326.164063 61.914063 333.796875 71.164063 340.09375 L 69.4375 341.101563 L 69.542969 340.996094 C 48.089844 338.402344 34.554688 316.371094 27.066406 297.796875 Z M 155.40625 335.917969 C 154.035156 338.980469 150.09375 339.410156 146.765625 336.820313 L 146.835938 336.910156 C 136.324219 341.515625 124.265625 345.316406 113.753906 350.644531 C 98.199219 351.796875 80.058594 369.363281 65.367188 353.089844 C 65.511719 352.082031 66.378906 351.363281 67.097656 350.644531 C 71.992188 350.066406 77.03125 351.363281 81.640625 352.660156 C 84.378906 352.226563 85.386719 349.058594 86.824219 347.1875 C 109.722656 354.964844 134.886719 331.996094 143.5625 329.476563 C 147.84375 327.925781 155.78125 325.171875 155.585938 333.742188 Z M 172.214844 347.1875 C 171.0625 347.90625 170.921875 349.203125 169.480469 349.203125 C 166.457031 348.769531 160.695313 344.59375 159.113281 340.273438 C 157.242188 333.652344 157.382813 325.441406 162.855469 320.546875 C 164.007813 320.835938 165.015625 321.554688 166.023438 322.273438 C 163.578125 331.492188 169.335938 339.121094 174.664063 346.179688 C 177.6875 343.300781 181.71875 339.988281 185.03125 336.386719 C 183.160156 334.515625 180.425781 333.363281 178.410156 331.203125 C 182.871094 329.1875 189.929688 330.914063 194.679688 329.90625 L 211.527344 326.738281 C 212.390625 327.171875 210.953125 327.890625 210.953125 328.179688 L 211.058594 328.015625 C 209.945313 330.085938 208.359375 331.347656 206.777344 332.929688 C 207.640625 334.515625 210.089844 333.9375 211.527344 335.089844 C 202.167969 345.460938 186.183594 347.476563 172.214844 347.1875 Z M 191.222656 364.035156 C 189.785156 365.042969 189.640625 366.628906 188.054688 367.203125 C 188.921875 362.308594 183.015625 355.394531 189.0625 353.089844 C 191.222656 352.371094 192.664063 355.972656 194.679688 353.378906 C 196.121094 355.25 193.671875 358.5625 195.976563 360.289063 C 197.039063 361.75 196.839844 365.332031 194.96875 366.914063 C 191.835938 366.859375 192.230469 363.007813 191.222656 364.035156 Z M 197.054688 392.292969 C 196.679688 394.382813 198.765625 396.921875 196.515625 397.660156 L 196.335938 396.398438 L 196.335938 396.417969 C 194.097656 392.75 194.519531 391.652344 195.976563 387.652344 C 197.273438 384.628906 200.007813 383.1875 202.886719 382.46875 C 204.472656 382.035156 205.480469 383.042969 206.777344 383.476563 C 203.320313 384.769531 198.101563 388.460938 197.054688 392.292969 Z M 286.984375 474.050781 L 291.015625 468.433594 L 290.007813 467.714844 C 266.824219 465.699219 244.214844 461.953125 227.511719 444.242188 C 228.089844 443.808594 227.800781 443.089844 228.230469 442.515625 C 233.414063 444.675781 238.3125 447.699219 243.785156 449.425781 L 243.785156 447.699219 C 238.167969 438.480469 235.289063 428.257813 231.257813 418.324219 C 227.222656 412.5625 218.296875 414.578125 214.984375 406.945313 C 212.535156 401.617188 210.953125 394.5625 205.046875 391.683594 L 204.039063 388.945313 C 208.648438 389.378906 213.398438 391.683594 215.414063 396.289063 C 215.992188 402.914063 222.328125 407.523438 227.511719 411.121094 C 230.96875 411.554688 234.136719 412.707031 237.160156 414.148438 C 240.617188 422.5 238.742188 432.867188 242.632813 440.785156 C 254.441406 450.578125 266.390625 461.953125 283.527344 456.769531 C 300.664063 453.171875 319.527344 442.660156 326.007813 424.945313 C 329.320313 438.050781 324.28125 448.128906 314.632813 457.058594 C 307.144531 466.128906 296.921875 470.164063 286.984375 474.050781 Z M 313.371094 477.507813 L 304.121094 480.082031 C 301.761719 480.242188 295.625 482.277344 295.820313 479.808594 L 295.910156 479.808594 C 310.167969 472.464844 325.363281 465.386719 335.367188 450.148438 C 341.488281 440.824219 348.796875 432.039063 350.378906 421.957031 C 352.324219 410.835938 353.078125 404.5 353.65625 395.570313 C 353.65625 383.476563 352.648438 371.8125 350.488281 360.578125 L 349.769531 360.578125 L 344.007813 371.667969 C 341.558594 345.460938 337.527344 319.972656 327.304688 297.074219 C 320.679688 280.226563 314.488281 263.234375 307.289063 246.53125 C 302.824219 249.84375 297.207031 250.5625 291.734375 248.691406 C 297.640625 245.234375 303.976563 242.785156 310.457031 240.769531 C 310.796875 243.21875 312.328125 243.074219 310.457031 244.226563 L 341.558594 304.996094 C 354.375 337.105469 366.613281 370.945313 361.863281 408.964844 C 360.421875 438.195313 345.753906 463.449219 313.371094 477.507813 "/>
</g>
</svg>
