<?xml version="1.0" encoding="UTF-8"?>
<svg xmlns="http://www.w3.org/2000/svg" xmlns:xlink="http://www.w3.org/1999/xlink" width="542pt" height="594pt" viewBox="0 0 542 594" version="1.1">
<g id="surface1">
<path style=" stroke:none;fill-rule:nonzero;fill:rgb(0%,0%,0%);fill-opacity:1;" d="M 540.199219 481.09375 C 523.222656 481.101563 501.0625 481.824219 481.203125 483.203125 C 464.445313 468.335938 451 451.871094 436.960938 435.222656 C 438.929688 432.332031 436.929688 426.949219 432.199219 427.867188 C 401.664063 389.453125 336.132813 289.023438 309.179688 232.820313 C 279.808594 171.578125 240.136719 79.820313 240.136719 79.820313 L 238.828125 47.667969 C 238.828125 47.667969 240.375 46.589844 239.636719 44.117188 C 239.183594 42.605469 237.738281 42.757813 235.941406 42.777344 C 233.347656 42.800781 232.558594 42.511719 231.078125 41.292969 C 225.492188 36.671875 216.4375 39.480469 211.796875 33.144531 C 210.726563 35.523438 210.367188 38.023438 210.488281 40.882813 C 210.65625 42.796875 214.785156 44.871094 216.5625 44.691406 C 224.0625 44.335938 229.898438 48.027344 235.851563 51.597656 L 236.558594 70.75 L 229.882813 83.375 L 182.839844 57.945313 C 180.113281 56.59375 178.652344 55.628906 177.078125 56.863281 C 167.640625 47.003906 156.84375 37.226563 148.160156 27.480469 C 142.085938 20.664063 133.515625 3.359375 133.121094 2.53125 C 131.714844 -0.4375 127.234375 0.554688 128.210938 4.445313 L 141.902344 30.164063 C 138.289063 44.671875 16.757813 445.96875 16.757813 445.96875 C 13.492188 448.777344 3.210938 457.503906 2.011719 459.011719 C -0.0976563 461.675781 0.191406 464.285156 3.539063 464.78125 L 35.6875 469.066406 C 39.285156 472.039063 45.710938 476.667969 44.015625 479.410156 L 97.84375 525.628906 L 97.84375 530.390625 C 90.699219 530.507813 84.867188 526.699219 78.078125 527.414063 C 76.640625 527.75 78.316406 529.320313 78.914063 529.914063 C 81.652344 540.152344 86.652344 550.394531 91.414063 560.398438 C 77.246094 564.5625 63.3125 563.015625 48.074219 563.371094 L 48.195313 564.222656 C 55.101563 565.890625 80.738281 565.351563 83.996094 565.167969 C 92.273438 564.699219 99.730469 563.621094 107.253906 568.492188 C 102.371094 571.46875 95.703125 571.230469 89.273438 571.113281 L 89.273438 571.945313 C 95.828125 575.40625 107.425781 572.132813 111.765625 571.105469 C 136.113281 565.363281 144.625 568.582031 161.113281 572.667969 C 174.226563 575.914063 187.21875 580.882813 200.722656 576.234375 C 216.800781 570.398438 234.898438 574.207031 250.855469 577.898438 C 250.019531 578.476563 249.296875 579.21875 249.066406 580.042969 C 253.472656 580.164063 257.519531 581.113281 260.738281 584.332031 C 263.953125 585.042969 266.332031 581.234375 268.835938 582.664063 C 266.125 588.078125 272.945313 590.492188 279.074219 587.425781 C 283.980469 584.832031 287.953125 587.351563 291.550781 590.335938 C 295.054688 593.25 296.558594 594.421875 302.15625 591.601563 C 304.367188 590.488281 306.609375 589.480469 309.121094 590.601563 C 314.21875 592.882813 316.089844 589.835938 317.296875 585.28125 L 348.96875 584.804688 L 353.257813 586.949219 C 355.613281 580.21875 356.734375 575.777344 358.375 569.804688 C 373.445313 563.859375 391.535156 556.054688 405.621094 550.425781 C 407.03125 550.769531 408.617188 551.148438 410.292969 551.347656 L 506.265625 504.195313 L 508.40625 499.90625 L 530.316406 490.023438 C 534.8125 489.757813 538.398438 489.183594 540.160156 487.84375 C 541.503906 486.820313 541.605469 483.550781 540.199219 481.09375 Z M 235.375 48.503906 C 231.65625 47.683594 232.871094 45.167969 232.871094 45.167969 C 234.777344 45.167969 235.691406 46.546875 235.375 48.503906 Z M 432.386719 430.59375 C 433.101563 430.710938 433.867188 430.605469 434.34375 431.320313 C 434.621094 431.941406 434.34375 433.226563 433.390625 433.109375 L 431.921875 433.015625 Z M 429.105469 433.941406 C 430.652344 435.609375 432.199219 437.035156 434.703125 436.441406 C 448.039063 452.515625 461.96875 468.710938 477.210938 483.59375 L 368.164063 489.746094 C 357.769531 467.625 347.421875 445.492188 336.941406 423.226563 L 341.707031 416.316406 C 369.570313 425.488281 399.21875 430.011719 429.105469 433.941406 Z M 344.78125 456.921875 C 344.890625 454.941406 345.1875 450.960938 345.515625 447.15625 L 360.996094 480.617188 L 348.136719 465.257813 C 349.328125 463.472656 349.558594 458.722656 344.78125 456.921875 Z M 345.789063 463.015625 C 344.242188 463.5625 342.792969 461.257813 344.722656 460.488281 C 346.378906 459.828125 347.425781 462.433594 345.789063 463.015625 Z M 325.867188 270.574219 C 324.917969 320.226563 330.15625 368.332031 340.394531 413.816406 C 338.96875 415.960938 337.828125 417.851563 336.109375 420.246094 C 336.109375 420.246094 300.59375 332.246094 289.550781 298.152344 C 274.960938 253.113281 252.992188 179.574219 250.855469 170.3125 C 250.761719 162.546875 250.53125 155.277344 250.378906 146.261719 C 248.792969 143.003906 246.710938 138.429688 242.1875 138.429688 L 242 134.0625 C 245.222656 132.328125 248.886719 131.113281 246.925781 128.28125 C 245.816406 126.578125 243.960938 128.132813 241.804688 129.113281 L 240.277344 88.035156 C 240.277344 88.035156 309 245.6875 325.867188 270.574219 Z M 302.648438 492.167969 C 302.789063 486.515625 306.511719 485.921875 309.554688 485.738281 C 309.246094 486.980469 308.898438 488.273438 308.527344 489.464844 C 307.335938 489.265625 304.847656 488.9375 304.792969 490.976563 L 304.792969 492.167969 Z M 304.792969 494.3125 L 304.4375 504.207031 L 301.816406 504.671875 L 302.648438 494.3125 Z M 306.101563 467.757813 C 304.222656 468.535156 303.128906 473.828125 300.507813 472.046875 L 298.007813 464.027344 L 310.867188 464.304688 L 312.53125 472.046875 C 310.628906 471.132813 309.199219 466.925781 306.101563 467.757813 Z M 298.363281 484.902344 C 298.601563 491.570313 298.617188 498.554688 297.546875 505.222656 L 295.863281 505.609375 C 298.703125 499.761719 291.101563 490.023438 298.363281 484.902344 Z M 290.644531 478.058594 C 291.105469 479.628906 292.203125 481.71875 291.101563 482.761719 C 285.027344 489.070313 282.882813 499.667969 286.457031 507.171875 C 281.71875 508.09375 275.738281 509.3125 270.5 510.265625 C 270.566406 507.605469 271.097656 503.859375 268.355469 503.835938 L 260.261719 503.835938 C 259.753906 490.660156 259.234375 480.128906 258.949219 466.089844 C 270.882813 465.121094 284.121094 463.871094 295.027344 464.027344 L 297.171875 469.902344 C 292.597656 467.492188 289.582031 474.445313 290.644531 478.058594 Z M 245.730469 515.003906 C 233.347656 517.148438 220.847656 519.414063 208.078125 521.554688 L 210.582031 493.847656 C 222.515625 494.917969 234.183594 496.691406 245.734375 499.074219 C 245.699219 505.230469 245.652344 510.136719 245.730469 515.003906 Z M 147.679688 510.167969 L 135.113281 511.933594 C 136.429688 507.378906 134.132813 502.394531 136.414063 498.441406 C 138.027344 495.644531 138.65625 490.605469 138.566406 484.070313 L 167.621094 487.882813 L 156.546875 527.769531 C 151.929688 528.003906 146.425781 528.851563 141.070313 529.082031 C 140.824219 524.960938 138.921875 517.929688 146.207031 517.371094 C 148.933594 516.949219 152.101563 509.445313 147.679688 510.167969 Z M 169.765625 488.355469 L 183.933594 490.023438 L 178.339844 525.628906 C 171.789063 526.460938 165.480469 527.652344 158.691406 527.769531 Z M 229.421875 101.253906 L 228.308594 112.074219 C 225.765625 110.382813 222.945313 108.722656 220.832031 107.316406 L 223.917969 100.605469 Z M 225.304688 98.183594 L 226.339844 95.945313 C 227.582031 96.703125 228.03125 97.242188 228.945313 97.800781 L 228.945313 98.753906 C 227.515625 98.671875 226.734375 98.449219 225.304688 98.183594 Z M 231.089844 116.253906 L 227.277344 172.457031 L 224.300781 166.859375 L 229.777344 115.421875 Z M 230.914063 101.820313 L 232.027344 102.003906 C 232.023438 105.601563 231.679688 109.808594 231.359375 111.941406 C 231.183594 112.832031 230.40625 112.644531 230.351563 111.769531 C 230.183594 109.144531 230.679688 104.019531 230.914063 101.820313 Z M 207.511719 477.640625 C 205.964844 477.164063 204.359375 478.074219 203.777344 479.402344 C 202.285156 479.1875 198.886719 479 196.757813 478.726563 C 196.511719 476.375 194.652344 475.496094 194.652344 475.496094 L 197.628906 448.574219 L 210.488281 440.371094 Z M 209.472656 484.546875 L 209.285156 485.832031 L 205.367188 485.316406 C 205.527344 483.203125 208.691406 484.289063 209.472656 484.546875 Z M 191.378906 481.652344 C 191.855469 482.214844 192.230469 482.8125 192.152344 483.59375 L 187.386719 483.238281 L 192.796875 451.074219 C 193.75 450.53125 194.957031 449.765625 195.960938 449.300781 L 193.171875 475.601563 C 191.539063 475.765625 189.210938 479.09375 191.378906 481.652344 Z M 196.53125 480.816406 C 199.003906 481.277344 202.453125 481.414063 203.699219 481.734375 L 203.421875 484.8125 L 193.910156 483.789063 C 194.152344 482.074219 195.933594 482.363281 196.53125 480.816406 Z M 212.632813 438.957031 L 218.703125 434.296875 C 217.519531 447.230469 216.570313 459.464844 215.25 471.210938 C 213.464844 473.472656 211.441406 475.855469 209.652344 478.117188 C 210.878906 465.375 211.863281 452.359375 212.632813 438.957031 Z M 207.152344 135.546875 L 220.015625 108.992188 C 222.632813 110.777344 225.371094 112.800781 228.109375 114.589844 L 222.515625 163.40625 Z M 218.230469 105.910156 C 214.660156 103.519531 210.28125 101.175781 206.679688 96.964844 L 221.496094 100.128906 C 220.253906 102.496094 219.269531 104.140625 218.230469 105.910156 Z M 217.394531 107.683594 C 213.898438 115.210938 209.902344 123.195313 205.84375 132.566406 L 185.246094 96.132813 L 197.074219 94.082031 C 201.410156 97.121094 212.632813 104.824219 217.394531 107.683594 Z M 183.933594 93.511719 L 174.050781 75.53125 L 193.816406 91.84375 C 191.078125 92.292969 186.476563 93.222656 183.933594 93.511719 Z M 190.007813 452.398438 L 185.246094 482.761719 L 172.199219 481.078125 L 179.289063 457.039063 C 182.71875 455.535156 186.316406 453.824219 190.007813 452.398438 Z M 186.554688 490.5 C 187.703125 490.703125 189.027344 490.683594 190.363281 490.976563 C 189.089844 502.449219 187.886719 514.277344 186.910156 524.792969 L 180.957031 525.628906 Z M 192.984375 491.335938 C 196.078125 491.8125 199.296875 492.167969 202.390625 492.644531 C 201.445313 503.347656 200.367188 512.886719 199.414063 523.125 L 189.054688 524.316406 Z M 204.628906 492.929688 C 205.792969 493.046875 207.289063 493.195313 208.34375 493.476563 C 207.148438 504.699219 206.375 514.6875 205.570313 522.082031 L 201.914063 522.652344 Z M 211.324219 486.214844 C 211.628906 479.230469 213.644531 477.386719 218.503906 471.492188 C 227.503906 469.675781 236.371094 468.515625 245.734375 467.292969 L 245.734375 490.976563 C 234.0625 489.351563 223.113281 487.761719 211.324219 486.214844 Z M 243.945313 170.671875 L 243.484375 156.796875 C 247.890625 169.179688 251.449219 181.03125 254.664063 193.890625 C 255.625 197.789063 251.222656 201.605469 248.414063 204.882813 C 248.160156 194.925781 247.789063 183.871094 247.582031 172.902344 C 246.390625 171 245.375 170.671875 243.945313 170.671875 Z M 243.113281 148.882813 C 243.589844 147.808594 245.136719 147.332031 246.566406 147.570313 L 247.878906 163.40625 Z M 240.316406 252.398438 C 240.347656 255.707031 238.667969 255.574219 238.316406 251.898438 C 236.941406 237.421875 239.214844 221.378906 227.4375 211.214844 C 227.902344 204.21875 228.148438 198.921875 228.585938 189.960938 C 232.398438 196.867188 235.867188 204.628906 239.679688 211.53125 C 239.722656 225.859375 240.1875 238.734375 240.316406 252.398438 Z M 232.871094 136.378906 C 233.953125 138.144531 236.878906 136.355469 238.074219 135.742188 C 238.140625 137 238.0625 138.429688 238.085938 139.738281 C 236.183594 140.691406 233.945313 142.09375 232.871094 144.117188 C 232.871094 148.523438 236.683594 153.523438 232.871094 157.453125 C 232.871094 158.167969 233.429688 158.738281 234.0625 159.121094 C 236.089844 159.953125 237.546875 157.90625 238.738281 157.070313 L 239.304688 193.890625 C 236.113281 189.019531 232.8125 182.875 229.5625 176.75 C 230.160156 163.199219 232.871094 117.566406 232.871094 117.566406 C 235.023438 118.664063 236.625 119.621094 237.46875 119.925781 C 237.808594 123.402344 237.820313 127.703125 237.890625 131.164063 C 235.695313 132.261719 231.871094 133.949219 232.871094 136.378906 Z M 236.683594 90.179688 L 237.519531 118.039063 C 235.953125 116.988281 234.285156 115.96875 233.0625 115.289063 C 233.242188 111.613281 233.429688 107.285156 233.707031 102.085938 C 235.253906 101.015625 235.53125 98.421875 233.980469 96.871094 C 234.238281 95.035156 234.699219 92.816406 235.375 89.226563 Z M 236.207031 75.53125 C 236.804688 78.628906 235.46875 82.800781 234.355469 85.589844 C 233.652344 85.203125 232.65625 84.609375 231.558594 84.191406 Z M 230.730469 86.539063 C 232.207031 87.210938 233.359375 87.9375 233.898438 88.300781 L 231.089844 96.132813 C 229.910156 95.425781 228.519531 94.503906 227.261719 93.722656 C 228.046875 92.230469 229.566406 88.855469 230.730469 86.539063 Z M 182.269531 60.171875 L 228.960938 85.601563 C 227.9375 87.746094 225.324219 92.601563 225.324219 92.601563 L 181.433594 62.316406 Z M 175.914063 58.199219 C 175.429688 59.5 176.121094 61.328125 177.332031 62.472656 C 177.894531 63.007813 224.300781 94.464844 224.300781 94.464844 C 223.824219 95.65625 223.238281 96.660156 222.515625 97.800781 L 203.226563 93.511719 C 200.847656 93.195313 196.765625 91.550781 194.621094 89.644531 C 186.410156 82.355469 168.246094 71.082031 164.289063 57.550781 C 168.617188 56.703125 173.058594 54.152344 175.914063 58.199219 Z M 170.71875 53.742188 C 168.652344 54.097656 165.953125 54.5625 163.335938 54.933594 C 158.453125 48.265625 154.761719 40.050781 150.476563 32.664063 C 157.738281 39.570313 163.929688 46.71875 170.71875 53.742188 Z M 176.671875 457.875 C 174.527344 465.496094 172.386719 472.996094 170.242188 480.617188 L 136.589844 476.332031 C 134.78125 473.40625 130.910156 472.269531 130.828125 467.757813 C 146.902344 466.449219 161.90625 462.519531 176.671875 457.875 Z M 124.753906 507.171875 C 125.984375 508.203125 125.925781 511.695313 126.066406 513.601563 C 125.378906 513.652344 124.570313 513.824219 123.644531 513.984375 C 123.285156 511.960938 122.492188 508.71875 124.753906 507.171875 Z M 20.210938 460.019531 L 6.875 458.351563 C 11.507813 453.980469 16.816406 449.472656 20.949219 451.355469 C 20.613281 454.332031 20.46875 457.09375 20.210938 460.019531 Z M 22.921875 460.308594 L 23.664063 451.921875 C 25.085938 452.355469 26.582031 452.917969 27.554688 453.210938 C 26.625 455.421875 24.78125 460.480469 22.921875 460.308594 Z M 26.640625 460.972656 L 30.09375 454.0625 C 57.835938 464.066406 87.128906 470.257813 119.636719 468.589844 C 120.164063 471.339844 116.171875 471.84375 114.613281 473.363281 Z M 39.851563 469.507813 L 111.894531 480.261719 C 110.957031 488.390625 110.273438 498.03125 113.234375 500.613281 C 117.039063 503.929688 113.929688 510.179688 114.992188 515.386719 L 112.847656 515.742188 C 90.9375 502.289063 69.609375 488.699219 48.175781 474.292969 C 45.601563 475.835938 42.34375 471.675781 39.851563 469.507813 Z M 48.074219 480.261719 L 49.738281 478.117188 C 67.957031 489.308594 84.746094 501.097656 102.964844 512.410156 C 100.585938 512.648438 98.402344 514.328125 97.847656 517.054688 C 97.820313 518.789063 97.910156 520.414063 97.84375 522.171875 C 80.339844 509.433594 64.742188 493.953125 48.074219 480.261719 Z M 150.382813 545.9375 C 128.710938 547.484375 104.273438 548.28125 84.507813 540.628906 L 83.675781 538.128906 C 107.203125 547.179688 129.042969 545.871094 150.953125 544.082031 Z M 82.84375 535.511719 C 82.144531 534.242188 81.589844 532.351563 81.238281 530.296875 C 102.550781 537.917969 131.175781 535.867188 154.394531 533.84375 C 153.769531 536.25 152.886719 538.78125 152.167969 541.1875 C 129.1875 542.734375 103.085938 544.320313 82.84375 535.511719 Z M 174.527344 544.082031 C 167.214844 544.851563 160.769531 545.472656 153.085938 545.84375 L 153.570313 544.082031 C 160.542969 543.847656 169.304688 543.28125 175.003906 542.773438 Z M 154.40625 541.105469 C 155.371094 538.273438 155.980469 536.28125 156.90625 533.367188 C 163.8125 533.011719 170.480469 532.292969 177.148438 531.699219 C 176.515625 534.335938 175.957031 536.820313 175.359375 539.320313 Z M 261.570313 580.519531 C 259.902344 578.972656 258.117188 578.136719 255.972656 577.898438 C 258.074219 577.199219 263.378906 575.027344 265.855469 578.375 C 267.023438 580.027344 263.160156 580.363281 261.570313 580.519531 Z M 298.007813 589.925781 C 292.3125 586.167969 284.546875 581.101563 277.109375 584.730469 C 272.113281 587.171875 271.949219 585.074219 272.992188 583.832031 C 275.410156 580.957031 278.570313 581.332031 281.011719 582.019531 C 287.199219 583.765625 293.554688 582.039063 299.871094 581.820313 C 306.535156 581.589844 310.941406 582.121094 312.53125 587.425781 C 308.4375 587.085938 305.960938 586.714844 298.007813 589.925781 Z M 350.191406 519.199219 C 290.773438 524.078125 235.375 536.222656 177.148438 543.605469 L 177.503906 542.417969 C 237.046875 534.417969 291.101563 521.699219 350.753906 516.21875 C 350.507813 517.453125 350.410156 518.402344 350.191406 519.199219 Z M 351.113281 511.457031 C 351.113281 511.457031 307.871094 517.554688 290.214844 520.652344 C 260.492188 525.871094 201.480469 536.074219 178.195313 538.964844 C 178.671875 536.25 179.109375 534.164063 179.648438 531.222656 C 235.472656 524.1875 287.371094 511.605469 343.875 506.222656 C 348.210938 505.808594 351.945313 506.335938 351.945313 506.335938 Z M 321.105469 493.121094 C 322.894531 487.882813 317.535156 483.59375 321.105469 479.785156 C 319.914063 473.355469 312.652344 471.804688 313.84375 464.304688 C 324.679688 465.136719 336.109375 465.539063 346.46875 466.449219 C 353.519531 474.695313 359.449219 482.046875 365.28125 490.023438 Z M 406.839844 544.558594 L 404.695313 548.371094 C 389.335938 554.441406 374.214844 561.347656 358.851563 567.660156 C 363.199219 547.839844 368.617188 525.625 369.570313 503.355469 L 497.613281 500.554688 C 467.488281 515.199219 438.820313 529.214844 406.839844 544.558594 Z M 413.269531 547.058594 C 413.269531 545.988281 412.910156 545.15625 411.960938 544.558594 L 498.644531 502.882813 L 499.476563 504.195313 C 471.257813 518.957031 441.847656 533.277344 413.269531 547.058594 Z M 507.21875 498.242188 C 505.429688 496.574219 502.335938 495.738281 500.3125 497.40625 L 499.476563 498.242188 L 370.046875 501.113281 L 370.046875 500.382813 L 524.363281 490.5 L 507.21875 498.242188 "/>
</g>
</svg>
