<?xml version="1.0" encoding="UTF-8"?>
<svg xmlns="http://www.w3.org/2000/svg" xmlns:xlink="http://www.w3.org/1999/xlink" width="530pt" height="164pt" viewBox="0 0 530 164" version="1.1">
<g id="surface1">
<path style=" stroke:none;fill-rule:nonzero;fill:rgb(0%,0%,0%);fill-opacity:1;" d="M 113.214844 82.195313 C 90.792969 82.324219 72.71875 100.609375 72.851563 123.03125 C 72.980469 145.457031 91.265625 163.527344 113.6875 163.398438 C 136.113281 163.265625 154.183594 144.984375 154.054688 122.558594 C 153.921875 100.136719 135.640625 82.066406 113.214844 82.195313 Z M 140.8125 132.488281 C 138.082031 140.671875 131.828125 147.078125 123.929688 150.71875 C 113.984375 154.453125 101.476563 152.484375 93.347656 144.933594 C 84.5625 136.816406 81.464844 123.929688 85.402344 112.71875 C 87.890625 105.597656 94.144531 99.433594 100.574219 95.722656 C 110.1875 91.011719 123.261719 92.242188 131.390625 99.625 C 140.828125 107.492188 144.414063 120.460938 140.8125 132.488281 "/>
<path style=" stroke:none;fill-rule:nonzero;fill:rgb(0%,0%,0%);fill-opacity:1;" d="M 95.03125 113.15625 C 94.132813 112.914063 92.875 111.246094 91.90625 113.296875 C 89.210938 118.101563 89.226563 124.039063 90.742188 129.417969 C 91.597656 131.917969 92.929688 131.113281 93.675781 130.789063 C 95.914063 129.804688 98.871094 126.671875 99.285156 122.148438 C 99.300781 118.703125 97.855469 115.324219 95.03125 113.15625 Z M 95.691406 128.015625 C 94.363281 124.429688 94.578125 119.691406 96.273438 116.25 C 97.691406 117.714844 98.285156 119.867188 98.226563 121.992188 C 98.277344 124.308594 96.664063 126.785156 95.691406 128.015625 "/>
<path style=" stroke:none;fill-rule:nonzero;fill:rgb(0%,0%,0%);fill-opacity:1;" d="M 110.039063 136.453125 C 106.671875 135.71875 103.070313 136.429688 100.359375 138.742188 C 99.9375 139.570313 98.042969 140.449219 99.847656 141.828125 C 103.980469 145.464844 109.796875 146.683594 115.371094 146.324219 C 117.996094 146.007813 117.484375 144.539063 117.320313 143.738281 C 116.828125 141.347656 114.378906 137.804688 110.039063 136.453125 Z M 103.644531 138.167969 C 105.371094 137.089844 107.601563 136.957031 109.667969 137.457031 C 111.945313 137.890625 114.027344 139.984375 115.03125 141.195313 C 111.246094 141.746094 106.65625 140.542969 103.644531 138.167969 "/>
<path style=" stroke:none;fill-rule:nonzero;fill:rgb(0%,0%,0%);fill-opacity:1;" d="M 133.585938 126.605469 C 131.164063 126.265625 127 127.375 124.265625 131 C 122.4375 133.921875 121.890625 137.554688 123.152344 140.886719 C 123.789063 141.566406 123.980469 143.644531 125.886719 142.410156 C 130.703125 139.746094 133.816406 134.683594 135.359375 129.316406 C 135.945313 126.738281 134.390625 126.722656 133.585938 126.605469 Z M 123.722656 137.601563 C 123.289063 135.609375 123.917969 133.464844 125.085938 131.691406 C 126.261719 129.695313 128.9375 128.4375 130.414063 127.90625 C 129.65625 131.652344 126.976563 135.566406 123.722656 137.601563 "/>
<path style=" stroke:none;fill-rule:nonzero;fill:rgb(0%,0%,0%);fill-opacity:1;" d="M 127.289063 103.960938 C 125.152344 102.402344 124.523438 103.824219 124.101563 104.523438 C 122.828125 106.609375 122.207031 110.871094 124.457031 114.816406 C 126.421875 117.648438 129.539063 119.585938 133.101563 119.746094 C 133.972656 119.425781 135.960938 120.074219 135.578125 117.835938 C 135.035156 112.355469 131.613281 107.5 127.289063 103.960938 Z M 125.414063 114.335938 C 124.046875 112.464844 123.949219 109.511719 124.039063 107.945313 C 127.183594 110.125 129.722656 114.132813 130.304688 117.921875 C 128.304688 117.535156 126.585938 116.109375 125.414063 114.335938 "/>
<path style=" stroke:none;fill-rule:nonzero;fill:rgb(0%,0%,0%);fill-opacity:1;" d="M 98.9375 107.285156 C 100.691406 108.984375 104.714844 110.535156 109.058594 109.207031 C 112.253906 107.917969 114.828125 105.300781 115.769531 101.863281 C 115.652344 100.941406 116.71875 99.148438 114.453125 99.027344 C 108.988281 98.347656 103.496094 100.613281 99.09375 104.050781 C 97.101563 105.792969 98.351563 106.71875 98.9375 107.285156 Z M 113.375 104.1875 C 112.558594 106.050781 110.789063 107.417969 108.796875 108.167969 C 106.671875 109.09375 103.769531 108.535156 102.265625 108.101563 C 105.078125 105.511719 109.546875 103.921875 113.375 104.1875 "/>
<path style=" stroke:none;fill-rule:nonzero;fill:rgb(0%,0%,0%);fill-opacity:1;" d="M 113.550781 115.214844 C 109.425781 115.238281 106.105469 118.601563 106.128906 122.722656 C 106.152344 126.847656 109.515625 130.171875 113.640625 130.148438 C 117.761719 130.125 121.085938 126.761719 121.0625 122.636719 C 121.039063 118.515625 117.675781 115.191406 113.550781 115.214844 Z M 113.632813 129.15625 C 111.902344 129.167969 110.273438 128.503906 109.039063 127.289063 C 107.8125 126.070313 107.128906 124.449219 107.117188 122.71875 C 107.109375 120.988281 107.773438 119.359375 108.988281 118.128906 C 110.203125 116.898438 111.828125 116.214844 113.558594 116.203125 C 115.285156 116.195313 116.917969 116.859375 118.148438 118.074219 C 119.378906 119.289063 120.0625 120.914063 120.070313 122.644531 C 120.09375 126.214844 117.203125 129.136719 113.632813 129.15625 "/>
<path style=" stroke:none;fill-rule:nonzero;fill:rgb(0%,0%,0%);fill-opacity:1;" d="M 113.558594 116.644531 C 111.949219 116.65625 110.4375 117.292969 109.300781 118.4375 C 108.167969 119.585938 107.550781 121.105469 107.558594 122.714844 C 107.570313 124.328125 108.203125 125.839844 109.351563 126.972656 C 110.496094 128.105469 112.019531 128.726563 113.628906 128.71875 C 116.957031 128.699219 119.648438 125.972656 119.632813 122.644531 C 119.621094 121.035156 118.984375 119.523438 117.839844 118.386719 C 116.691406 117.253906 115.171875 116.636719 113.558594 116.644531 Z M 113.617188 126.738281 C 112.535156 126.742188 111.515625 126.328125 110.742188 125.566406 C 109.972656 124.804688 109.546875 123.789063 109.539063 122.703125 C 109.53125 121.621094 109.949219 120.601563 110.710938 119.832031 C 111.472656 119.058594 112.488281 118.632813 113.570313 118.625 C 114.65625 118.617188 115.675781 119.035156 116.445313 119.796875 C 117.214844 120.558594 117.644531 121.574219 117.652344 122.65625 C 117.664063 124.894531 115.855469 126.722656 113.617188 126.738281 "/>
<path style=" stroke:none;fill-rule:nonzero;fill:rgb(0%,0%,0%);fill-opacity:1;" d="M 527.277344 118.832031 C 526.128906 117.777344 524.503906 119.175781 523.191406 118.691406 C 525.546875 115.820313 527.820313 114.011719 529.925781 110.894531 C 529.925781 110.894531 529.675781 96.03125 526.863281 90.085938 C 527.425781 86.40625 527.402344 82.980469 527.054688 79.386719 C 529.324219 76.761719 520.527344 64.117188 527.875 53.40625 C 515.449219 51.761719 489.703125 48.480469 489.703125 48.480469 C 485.945313 48.339844 483.1875 51.703125 480.34375 53.925781 C 477.828125 56.636719 469.898438 55.703125 469.898438 55.703125 C 460.078125 52.820313 450.988281 48.21875 441.652344 44.105469 C 439.851563 43.300781 361.824219 10.839844 361.824219 10.839844 C 360.753906 10.398438 359.886719 10.75 359.609375 9.21875 C 344.238281 6.941406 329.035156 4.660156 313.667969 2.871094 C 291.03125 0.796875 266.269531 -1.425781 243.992188 2.132813 L 243.589844 2.542969 C 243.589844 3.117188 244.242188 2.867188 244.488281 3.109375 C 224.453125 13.191406 207.140625 27.179688 189.828125 42.226563 C 188.851563 42.476563 177.316406 41.519531 173.695313 48.445313 C 159.734375 49.671875 146.757813 51.175781 132.628906 51.378906 C 35.796875 52.773438 12.644531 93.734375 0.878906 106.789063 C 0.476563 107.773438 0.972656 108.75 0.976563 109.730469 C 2.222656 113.234375 2.652344 116.988281 2.675781 120.910156 C 2.445313 123.199219 5.46875 123.34375 5.398438 125.46875 C 3.535156 128.175781 6.730469 130.117188 7.5625 132.316406 C 8.058594 133.539063 5.617188 134.644531 6.605469 135.621094 C 23.335938 143.515625 63.261719 145.964844 76.414063 145.109375 C 72.207031 138.351563 69.925781 130.550781 69.875 122.390625 C 69.808594 110.753906 74.277344 99.785156 82.460938 91.507813 C 90.640625 83.230469 101.554688 78.632813 113.195313 78.566406 C 124.832031 78.496094 136.054688 83.496094 144.078125 91.148438 C 163.03125 109.21875 160.59375 147.621094 162.886719 145.707031 C 294.386719 146.839844 360.195313 142.949219 360.367188 143.265625 C 358.003906 137.890625 356.515625 130.945313 356.480469 124.894531 C 356.414063 113.257813 360.882813 102.289063 369.0625 94.011719 C 377.246094 85.734375 388.160156 81.136719 399.796875 81.070313 C 411.4375 81.003906 422.40625 85.46875 430.683594 93.652344 C 438.960938 101.835938 443.554688 112.75 443.625 124.386719 C 443.660156 130.339844 442.488281 136.019531 440.351563 141.203125 C 440.351563 141.203125 493.453125 138.933594 506.753906 129.160156 C 510.246094 125.957031 515.484375 127.3125 519.5625 126.390625 L 527.605469 119.484375 C 527.605469 119.238281 527.523438 118.992188 527.277344 118.832031 Z M 490.535156 51.171875 C 490.535156 51.171875 513.808594 52.339844 525.664063 54.558594 C 522.101563 59.722656 521.917969 72.164063 525.976563 78.25 C 515.957031 78.28125 480.410156 79.328125 466.03125 78.921875 C 458.5625 72.757813 450.839844 65.207031 443.289063 58.390625 C 449.492188 58.191406 481.492188 63.78125 490.535156 51.171875 Z M 526.253906 80.714844 L 526.253906 88.261719 L 524.644531 88.261719 L 524.644531 80.714844 Z M 523.53125 80.714844 L 523.53125 88.261719 L 521.921875 88.261719 L 521.921875 80.714844 Z M 520.933594 80.714844 L 520.933594 88.261719 L 519.324219 88.261719 L 519.324219 80.714844 Z M 517.578125 80.5 C 517.503906 83.199219 517.523438 86.105469 517.457031 88.472656 C 511.578125 88.464844 506.433594 88.453125 500.472656 88.40625 L 504.429688 80.824219 C 508.59375 80.472656 513.496094 80.769531 517.578125 80.5 Z M 442.996094 46.265625 C 445.0625 47.277344 446.984375 47.832031 449.113281 48.71875 C 450.28125 53.039063 453.707031 54.738281 457.734375 56.429688 C 452.179688 56.625 446.265625 57.558594 439.808594 56.941406 C 442.117188 53.679688 442.996094 46.265625 442.996094 46.265625 Z M 434.945313 42.675781 L 434.949219 42.921875 C 429.804688 43.441406 379.96875 24.125 364.449219 13.109375 C 387.867188 23.101563 411.527344 32.683594 434.945313 42.675781 Z M 244.742188 4.414063 C 245.316406 5.066406 245.40625 6.210938 244.921875 6.863281 C 238.671875 14.171875 232.828125 20.410156 226.578125 27.144531 C 224.546875 28.953125 221.527344 29.546875 219.910156 31.921875 C 217.738281 37.898438 211.554688 41.609375 207.167969 46.046875 C 202.992188 44.519531 191.550781 42.34375 191.550781 42.34375 C 208.371094 27.867188 225.871094 14.054688 244.742188 4.414063 Z M 232.90625 33.398438 C 240.707031 26.738281 247.527344 19.917969 255.824219 14.316406 L 259.59375 13.796875 C 254.925781 25.667969 245.675781 50.96875 245.675781 50.96875 C 243.632813 50.554688 230.0625 50.320313 224.671875 50.355469 C 226.195313 45.445313 232.078125 45.492188 234.171875 40.742188 C 235.628906 38.363281 233.816406 35.679688 232.90625 33.398438 Z M 321.875 51.339844 C 318.511719 51.597656 287.515625 53.621094 252.691406 51.253906 L 266.261719 13.675781 C 286.378906 11.113281 329.515625 17.152344 335.730469 18.097656 C 334.601563 21.125 321.875 51.339844 321.875 51.339844 Z M 343.664063 20.339844 C 406.746094 28.855469 405.980469 48.117188 392.347656 48.699219 C 377.128906 50.871094 346.894531 50.601563 331.359375 51.363281 C 336.117188 41.046875 339.234375 30.820313 343.664063 20.339844 Z M 217.664063 53.335938 C 221.195313 53.542969 225.21875 53.519531 228.855469 53.515625 C 228.03125 55.019531 220.671875 59.183594 211.6875 53.59375 C 214.339844 49.816406 215.171875 48.46875 217.617188 45.25 C 218.4375 45.816406 219.445313 46.339844 220.59375 45.898438 C 220.195313 47.863281 217.890625 50.148438 216.429688 51.300781 C 215.304688 52.210938 216.09375 53.527344 217.664063 53.335938 Z M 230.25 54.566406 C 230.25 54.566406 230.148438 52.539063 229.667969 52.449219 C 239.195313 54.238281 325.578125 54.347656 327.046875 54.175781 C 327.046875 56.707031 322.425781 83.445313 306.925781 111.015625 C 305.84375 112.941406 302.964844 118.292969 295.328125 118.941406 C 273.292969 120.808594 214.679688 120.191406 185.800781 120.179688 C 176.21875 120.175781 175.273438 79.703125 181.453125 62.203125 C 182.246094 58.035156 186.816406 57.679688 189.664063 55.867188 C 195.859375 53.542969 202.714844 52.441406 209.738281 52.5625 C 211.058594 59.53125 230.6875 58.320313 230.25 54.566406 Z M 232.269531 36.671875 C 231.425781 38.878906 225.601563 41.363281 222.015625 43.101563 C 220.789063 43.953125 219.734375 43.929688 218.507813 43.445313 C 216.785156 42.3125 217.398438 40.34375 218.234375 38.710938 C 220.175781 35.515625 222.363281 32.316406 225.695313 30.011719 C 227.308594 29.09375 228.796875 29.011719 229.949219 30.640625 C 231.210938 32.613281 233.238281 34.378906 232.269531 36.671875 Z M 204.910156 51.121094 C 205.15625 51.039063 213.035156 43.886719 215.800781 41.585938 C 216.050781 42.480469 215.972656 42.972656 216.386719 43.785156 C 214.523438 46.820313 212.824219 49.28125 209.894531 51.503906 C 204.011719 51.289063 192.425781 53.320313 192.34375 52.910156 C 191.441406 52.589844 190.382813 53.003906 189.238281 52.683594 C 177.964844 52.097656 166.113281 51.347656 154.433594 51.007813 C 171.003906 49.324219 188.484375 49.257813 204.910156 51.121094 Z M 8.800781 134.679688 C 8.957031 133.484375 11.523438 133.957031 12.136719 132.570313 C 12.378906 130.367188 12.160156 127.871094 6.070313 128.324219 L 6.058594 126.933594 C 7.367188 127.007813 9.574219 127.484375 10.46875 126.253906 C 11.160156 124.664063 10.664063 123.359375 8.972656 122.261719 C 7.578125 121.371094 5.621094 121.710938 4.152344 122.042969 C 3.371094 119.722656 3.796875 117.066406 3.046875 114.535156 C 8.554688 114.269531 25.042969 114.164063 25.042969 114.164063 L 24.859375 114.90625 L 4.445313 115.304688 L 4.449219 116.511719 L 24.496094 116.023438 C 24.496094 116.023438 25.023438 129.519531 27.757813 135.792969 C 36.320313 138.417969 53.605469 139.28125 65.269531 136.761719 C 63.671875 128.6875 63.65625 118.914063 65.492188 111.144531 C 66.386719 110.648438 66.324219 110.410156 67.382813 110.242188 C 64.082031 123.636719 69.285156 142.410156 69.285156 142.410156 C 54.832031 142.824219 31.683594 142.960938 8.800781 134.679688 Z M 3.378906 110.429688 L 4.726563 110.421875 L 4.746094 113.367188 L 3.394531 113.378906 Z M 5.65625 110.464844 L 7.003906 110.457031 L 7.019531 113.40625 L 5.601563 113.339844 Z M 7.886719 110.425781 L 9.308594 110.417969 L 9.253906 113.363281 L 7.90625 113.371094 Z M 10.476563 110.492188 L 11.898438 110.484375 L 11.84375 113.355469 L 10.496094 113.363281 Z M 12.710938 110.527344 L 14.058594 110.519531 L 14.078125 113.394531 L 12.730469 113.402344 Z M 62.984375 135.40625 C 59.789063 135.960938 47.542969 137.238281 28.96875 134.839844 C 26.71875 131.324219 26.347656 115.363281 26.347656 115.363281 C 26.152344 113.015625 28.835938 112.378906 28.835938 112.378906 L 63.074219 110.695313 C 63.074219 110.695313 60.566406 125.746094 62.984375 135.40625 Z M 487.871094 133.851563 C 478.980469 135.863281 470.136719 135.445313 460.902344 135.007813 C 458.128906 135.105469 453.28125 130.804688 452.953125 130.152344 C 449.078125 121.757813 446.078125 114.265625 443.824219 105.867188 C 436.617188 88.511719 418.824219 76.28125 399.796875 76.640625 C 394.160156 76.917969 388.367188 77.683594 383.316406 79.917969 C 367.667969 85.808594 355.671875 101.890625 353.730469 118.808594 C 353.351563 123.710938 353.902344 134.160156 353.90625 134.976563 C 353.429688 137.511719 353.472656 139.351563 351.523438 141.160156 C 351.523438 141.160156 179.332031 143.753906 170.753906 143.316406 C 164.742188 120.03125 159.78125 103.449219 150.714844 93.203125 C 146.671875 88.488281 123.984375 64.09375 90.84375 80.421875 C 79.921875 85.800781 70.1875 97.671875 67.644531 109.613281 C 54.578125 110.015625 41.59375 110.652344 28.53125 111.296875 C 29.519531 109.078125 27.453125 108.949219 27.453125 108.949219 L 3.246094 109.527344 C 2.351563 109.613281 1.691406 108.472656 2.171875 107.246094 C 28.21875 74.554688 63.4375 45.292969 191.632813 54.410156 C 187.5625 56.3125 181.183594 56.007813 180.160156 61.828125 C 169.339844 112.3125 184.425781 121.265625 184.425781 121.265625 L 186.515625 137.273438 C 186.515625 137.273438 308.203125 139.824219 340.359375 135.71875 C 345.144531 135.511719 339.4375 106.597656 357.144531 88.402344 C 359.570313 83.980469 367.28125 60.605469 336.898438 71.066406 C 337.304688 71.144531 357.207031 69.734375 353.121094 84.179688 C 350.855469 88.195313 348.921875 92.546875 346.984375 96.875 C 344.09375 103.339844 339.105469 132.964844 339.105469 132.964844 C 295.601563 137.957031 188.074219 135.96875 188.074219 135.96875 L 186.0625 121.664063 C 186.0625 121.664063 268.535156 122.339844 295.074219 120.433594 C 300.421875 120.046875 304.617188 118.871094 308.425781 111.90625 C 322.316406 88.910156 328.703125 54.347656 328.703125 54.347656 C 328.703125 54.347656 381.632813 52.953125 397.769531 51.328125 C 406.074219 50.496094 426.898438 13.453125 253.621094 11.414063 C 246.144531 17.992188 237.605469 24.003906 231.027344 30.902344 C 230.695313 29.597656 228.078125 29.613281 228.972656 28.21875 C 235.546875 21.320313 241.960938 14.828125 247.71875 7.691406 C 247.945313 5.210938 245.570313 3.292969 245.570313 3.292969 C 249.566406 2.78125 252.914063 2.597656 256.835938 2.246094 C 276.753906 0.660156 297.105469 2.664063 316.800781 4.757813 C 330.777344 6.636719 344.425781 7.863281 358.328125 10.640625 C 358.003906 11.539063 359.3125 11.859375 359.890625 12.347656 C 383.324219 25.6875 407.40625 36.980469 432.933594 45 L 440.707031 47.324219 C 440.707031 47.324219 441.042969 47.449219 441.121094 47.894531 C 441.585938 50.589844 438.164063 57.007813 438.164063 57.007813 C 417.664063 57.210938 397.9375 56.792969 377.746094 53.804688 C 377.582031 53.808594 374.996094 54.320313 375 54.402344 C 378.929688 56.097656 416.378906 60.023438 439.714844 58.84375 C 446.445313 64.605469 452.273438 69.878906 458.679688 76.050781 C 459.667969 77.1875 464.265625 81.164063 464.675781 81.488281 C 477.253906 81.660156 489.257813 80.9375 502.082031 81.269531 C 500.628906 84.136719 498.929688 86.921875 496.984375 89.628906 C 496.664063 90.613281 497.5625 90.398438 498.46875 90.84375 C 508.023438 91.039063 515.53125 90.664063 525.085938 90.363281 C 526.316406 91.011719 528.628906 103.914063 528.203125 110.414063 C 526.585938 113.445313 523.386719 116.242188 521.195313 118.621094 C 511.605469 126.765625 499.863281 131.085938 487.871094 133.851563 "/>
<path style=" stroke:none;fill-rule:nonzero;fill:rgb(0%,0%,0%);fill-opacity:1;" d="M 30.429688 113.496094 C 30.429688 113.496094 28.015625 114.066406 28.191406 116.179688 C 28.191406 116.179688 28.523438 130.546875 30.546875 133.710938 C 47.265625 135.867188 58.285156 134.71875 61.164063 134.21875 C 58.984375 125.523438 61.246094 111.980469 61.246094 111.980469 Z M 31.320313 116.84375 L 57.265625 116.691406 C 58.082031 116.6875 58.75 116.988281 58.753906 117.367188 C 58.753906 117.746094 58.089844 118.054688 57.273438 118.0625 L 31.328125 118.210938 C 30.507813 118.21875 29.839844 117.914063 29.839844 117.535156 C 29.835938 117.160156 30.5 116.847656 31.320313 116.84375 Z M 29.925781 123.824219 C 29.921875 123.445313 30.585938 123.136719 31.40625 123.132813 L 57.347656 122.980469 C 58.167969 122.972656 58.835938 123.277344 58.839844 123.65625 C 58.839844 124.03125 58.175781 124.34375 57.355469 124.347656 L 31.414063 124.5 C 30.59375 124.503906 29.925781 124.203125 29.925781 123.824219 Z M 57.441406 130.496094 L 32.933594 130.640625 C 32.113281 130.644531 31.449219 130.371094 31.445313 130.03125 C 31.445313 129.695313 32.105469 129.414063 32.925781 129.410156 L 57.433594 129.265625 C 58.253906 129.261719 58.921875 129.535156 58.921875 129.871094 C 58.925781 130.214844 58.261719 130.492188 57.441406 130.496094 "/>
<path style=" stroke:none;fill-rule:nonzero;fill:rgb(0%,0%,0%);fill-opacity:1;" d="M 299.59375 68.214844 C 303.691406 67.871094 312.261719 72.878906 315.691406 69.589844 C 317.164063 70.234375 318.300781 71.289063 320.273438 70.949219 C 322.726563 70.53125 324.855469 64.003906 318.765625 64.671875 C 314.289063 67.96875 303.339844 66.230469 303.339844 66.230469 L 303.089844 65.414063 C 303.089844 65.414063 299.492188 65.191406 298.4375 66.257813 C 297.945313 67.324219 298.53125 68.136719 299.59375 68.214844 Z M 315.273438 67.875 C 315.195313 68.367188 315.449219 68.523438 315.289063 68.851563 C 311.539063 70.34375 307.285156 69.554688 303.925781 67.695313 L 315.273438 67.875 "/>
<path style=" stroke:none;fill-rule:nonzero;fill:rgb(0%,0%,0%);fill-opacity:1;" d="M 518.886719 94.785156 C 510.71875 94.753906 503.101563 94.871094 495.425781 94.671875 C 473.089844 109.632813 493.773438 124.054688 498.796875 123 C 504.914063 121.65625 512.265625 121.613281 517.800781 118.234375 C 523.476563 114.285156 526.21875 97.808594 518.886719 94.785156 Z M 519.300781 102.285156 L 495.863281 102.324219 L 495.859375 101.140625 L 519.296875 101.195313 Z M 498.761719 120.894531 C 474.386719 113.433594 495.878906 96.382813 495.878906 96.382813 C 503.96875 96.335938 517.140625 96.324219 519.058594 96.433594 L 519.109375 97.691406 L 496.816406 97.679688 C 481.097656 109.066406 489.417969 118 498.941406 120.515625 C 500.160156 121.171875 499.464844 121.109375 498.761719 120.894531 Z M 495.683594 115.207031 L 495.675781 114.027344 L 519.113281 114.078125 L 519.121094 115.167969 Z M 495.929688 108.773438 L 495.921875 107.589844 L 519.359375 107.574219 L 519.367188 108.804688 L 495.929688 108.773438 "/>
<path style=" stroke:none;fill-rule:nonzero;fill:rgb(0%,0%,0%);fill-opacity:1;" d="M 400.304688 82.71875 C 377.878906 82.847656 359.808594 101.132813 359.9375 123.554688 C 360.070313 145.976563 378.351563 164.050781 400.777344 163.921875 C 423.199219 163.789063 441.273438 145.503906 441.140625 123.082031 C 441.011719 100.660156 422.726563 82.585938 400.304688 82.71875 Z M 427.898438 133.011719 C 425.171875 141.195313 418.917969 147.601563 411.015625 151.242188 C 401.074219 154.972656 388.566406 153.003906 380.4375 145.457031 C 371.648438 137.339844 368.550781 124.453125 372.488281 113.238281 C 374.980469 106.121094 381.230469 99.957031 387.664063 96.246094 C 397.273438 91.53125 410.347656 92.761719 418.476563 100.148438 C 427.917969 108.015625 431.503906 120.980469 427.898438 133.011719 "/>
<path style=" stroke:none;fill-rule:nonzero;fill:rgb(0%,0%,0%);fill-opacity:1;" d="M 382.117188 113.675781 C 381.21875 113.4375 379.964844 111.769531 378.992188 113.820313 C 376.296875 118.621094 376.316406 124.5625 377.828125 129.941406 C 378.6875 132.441406 380.019531 131.636719 380.765625 131.308594 C 383.003906 130.328125 385.957031 127.191406 386.375 122.667969 C 386.390625 119.222656 384.945313 115.847656 382.117188 113.675781 Z M 382.777344 128.539063 C 381.449219 124.953125 381.667969 120.214844 383.363281 116.773438 C 384.78125 118.234375 385.375 120.390625 385.3125 122.515625 C 385.363281 124.832031 383.75 127.308594 382.777344 128.539063 "/>
<path style=" stroke:none;fill-rule:nonzero;fill:rgb(0%,0%,0%);fill-opacity:1;" d="M 397.128906 136.972656 C 393.761719 136.242188 390.15625 136.953125 387.445313 139.261719 C 387.023438 140.09375 385.128906 140.972656 386.9375 142.347656 C 391.070313 145.984375 396.882813 147.207031 402.457031 146.847656 C 405.085938 146.53125 404.574219 145.058594 404.410156 144.261719 C 403.914063 141.867188 401.464844 138.324219 397.128906 136.972656 Z M 390.734375 138.691406 C 392.460938 137.609375 394.691406 137.476563 396.757813 137.980469 C 399.03125 138.414063 401.117188 140.507813 402.117188 141.714844 C 398.335938 142.265625 393.746094 141.066406 390.734375 138.691406 "/>
<path style=" stroke:none;fill-rule:nonzero;fill:rgb(0%,0%,0%);fill-opacity:1;" d="M 420.671875 127.128906 C 418.253906 126.785156 414.089844 127.898438 411.351563 131.523438 C 409.527344 134.445313 408.980469 138.078125 410.238281 141.410156 C 410.878906 142.085938 411.066406 144.164063 412.972656 142.929688 C 417.792969 140.269531 420.902344 135.207031 422.445313 129.839844 C 423.035156 127.261719 421.476563 127.242188 420.671875 127.128906 Z M 410.8125 138.121094 C 410.375 136.132813 411.003906 133.988281 412.175781 132.210938 C 413.351563 130.214844 416.027344 128.960938 417.5 128.425781 C 416.742188 132.175781 414.0625 136.089844 410.8125 138.121094 "/>
<path style=" stroke:none;fill-rule:nonzero;fill:rgb(0%,0%,0%);fill-opacity:1;" d="M 414.378906 104.484375 C 412.242188 102.925781 411.613281 104.347656 411.1875 105.042969 C 409.917969 107.128906 409.292969 111.394531 411.546875 115.339844 C 413.507813 118.171875 416.628906 120.109375 420.1875 120.269531 C 421.0625 119.949219 423.046875 120.597656 422.664063 118.359375 C 422.121094 112.878906 418.703125 108.023438 414.378906 104.484375 Z M 412.503906 114.855469 C 411.132813 112.988281 411.035156 110.035156 411.128906 108.46875 C 414.273438 110.644531 416.8125 114.652344 417.394531 118.445313 C 415.394531 118.058594 413.671875 116.632813 412.503906 114.855469 "/>
<path style=" stroke:none;fill-rule:nonzero;fill:rgb(0%,0%,0%);fill-opacity:1;" d="M 386.023438 107.808594 C 387.78125 109.507813 391.800781 111.054688 396.144531 109.730469 C 399.339844 108.441406 401.917969 105.824219 402.859375 102.386719 C 402.738281 101.464844 403.808594 99.671875 401.539063 99.546875 C 396.078125 98.871094 390.585938 101.136719 386.179688 104.574219 C 384.191406 106.3125 385.4375 107.242188 386.023438 107.808594 Z M 400.464844 104.710938 C 399.644531 106.574219 397.875 107.941406 395.886719 108.691406 C 393.761719 109.613281 390.859375 109.054688 389.351563 108.621094 C 392.167969 106.035156 396.636719 104.441406 400.464844 104.710938 "/>
<path style=" stroke:none;fill-rule:nonzero;fill:rgb(0%,0%,0%);fill-opacity:1;" d="M 400.640625 115.734375 C 396.515625 115.761719 393.191406 119.121094 393.214844 123.246094 C 393.238281 127.371094 396.601563 130.695313 400.726563 130.667969 C 404.851563 130.644531 408.171875 127.28125 408.148438 123.160156 C 408.125 119.035156 404.761719 115.710938 400.640625 115.734375 Z M 400.71875 129.679688 C 398.988281 129.691406 397.359375 129.027344 396.128906 127.808594 C 394.898438 126.59375 394.214844 124.96875 394.207031 123.242188 C 394.195313 121.511719 394.859375 119.878906 396.074219 118.648438 C 397.292969 117.417969 398.914063 116.734375 400.644531 116.726563 C 402.375 116.714844 404.003906 117.378906 405.234375 118.597656 C 406.464844 119.8125 407.148438 121.433594 407.160156 123.164063 C 407.179688 126.738281 404.292969 129.660156 400.71875 129.679688 "/>
<path style=" stroke:none;fill-rule:nonzero;fill:rgb(0%,0%,0%);fill-opacity:1;" d="M 400.648438 117.167969 C 399.035156 117.175781 397.523438 117.8125 396.390625 118.960938 C 395.257813 120.105469 394.636719 121.625 394.648438 123.238281 C 394.65625 124.851563 395.292969 126.363281 396.4375 127.496094 C 397.585938 128.628906 399.105469 129.246094 400.71875 129.238281 C 404.046875 129.21875 406.738281 126.496094 406.71875 123.167969 C 406.710938 121.554688 406.070313 120.042969 404.925781 118.910156 C 403.777344 117.777344 402.261719 117.15625 400.648438 117.167969 Z M 400.707031 127.257813 C 399.621094 127.265625 398.601563 126.847656 397.832031 126.089844 C 397.0625 125.328125 396.632813 124.308594 396.628906 123.226563 C 396.621094 122.144531 397.035156 121.121094 397.796875 120.351563 C 398.558594 119.582031 399.574219 119.152344 400.660156 119.148438 C 401.742188 119.140625 402.761719 119.558594 403.535156 120.320313 C 404.304688 121.082031 404.730469 122.097656 404.738281 123.179688 C 404.753906 125.414063 402.941406 127.246094 400.707031 127.257813 "/>
</g>
</svg>
