<?xml version="1.0" encoding="UTF-8"?>
<svg xmlns="http://www.w3.org/2000/svg" xmlns:xlink="http://www.w3.org/1999/xlink" width="489pt" height="488pt" viewBox="0 0 489 488" version="1.1">
<g id="surface1">
<path style=" stroke:none;fill-rule:nonzero;fill:rgb(0%,0%,0%);fill-opacity:1;" d="M 478.699219 171.699219 C 469.898438 147.101563 458.898438 123.300781 443.601563 101.398438 C 415.101563 58.398438 370.699219 28.398438 325.101563 14 C 309.199219 9 293.5 3.5 276.101563 2 C 228.101563 -2.300781 180.800781 2.398438 140 19.300781 C 105.601563 35.398438 70.898438 55.5 45.5 88.699219 C 28.601563 111.699219 15.199219 136.199219 8.800781 163.601563 C 0 197.398438 -3 237.699219 3 273.5 L 6.199219 289.800781 L 12.800781 316.898438 C 33.800781 379.300781 59.800781 401.101563 84.398438 424.398438 C 131.800781 467.898438 190.800781 484.601563 255.5 487.101563 C 289.199219 485.101563 321.199219 479.199219 350.800781 467.199219 C 378.800781 452.898438 406.800781 435.5 428.300781 408.398438 C 455.199219 375.5 472.699219 338.800781 480.800781 298.199219 C 491.601563 258.101563 490.398438 211 478.699219 171.699219 Z M 441 223.101563 L 441.550781 227.648438 C 418.949219 229.449219 394.589844 228.644531 373.300781 224.300781 C 363.25 222.25 357.800781 224.101563 349.601563 223.800781 C 324 207.5 298.800781 190.199219 273.199219 173.898438 C 270 171.601563 273.351563 168.050781 274.449219 165.648438 L 275.148438 164.5 C 281.851563 166.101563 289.601563 168.5 296.5 169.800781 L 295.300781 168.398438 C 286.300781 162.601563 277.699219 155.898438 268.898438 149.601563 L 268.199219 150.398438 L 266 170 C 260 166.398438 254.101563 162.101563 248.300781 158.300781 L 241.601563 148.199219 L 238.898438 149.601563 L 214.199219 133.800781 L 170.800781 102.601563 C 166.800781 99.398438 163.199219 97.050781 159.300781 93.75 L 159.375 93.75 L 164.300781 82.398438 L 238.398438 97.601563 C 246.800781 98.800781 255.199219 100.800781 263.199219 102.398438 C 262.898438 105 260.898438 107.398438 260 110 C 264 108 268.699219 105.601563 271.800781 101.898438 C 275.300781 101.5 277.898438 103.300781 280.898438 104 C 287.898438 111.898438 294.601563 119.898438 302.5 127.300781 C 304.898438 122.398438 307.101563 117.5 308.5 112.199219 L 355.601563 122.5 C 373 127.398438 391 130.800781 407.898438 137.199219 C 425 163.300781 437.898438 191.199219 441 223.101563 Z M 419.898438 251.398438 C 402.898438 250.898438 388.5 244.300781 373.800781 238.398438 C 350 246 342.75 247.25 316 251.398438 C 334.898438 254 355.101563 253.300781 374.5 254.800781 L 372.601563 259.601563 C 382.199219 268.101563 394.800781 269.699219 406 274.398438 C 393.300781 273.398438 381.199219 268.601563 369.699219 263.601563 C 364.5 267.5 359.5 271.800781 354.101563 275.199219 C 359.199219 269.800781 365.898438 264.300781 369.5 257.898438 C 355.898438 258.398438 338 257.398438 324 256.898438 C 330.800781 259.898438 340.199219 264.699219 346.699219 268 C 335.699219 277.101563 320.601563 279.300781 306.101563 277.300781 C 318.300781 276 329.398438 273.601563 340 268.300781 C 334.601563 265.601563 327.699219 264.300781 322 262 C 315.300781 259.5 308.601563 257.398438 302.5 253.601563 C 299.800781 253.898438 297.074219 255.738281 295.101563 256.199219 C 289.101563 258.699219 282.699219 260.398438 276.601563 262.699219 C 268.699219 267.601563 260.800781 272.5 251.898438 275.199219 L 267 282.800781 C 289 294.25 306.5 288.300781 326 285.199219 C 341.601563 290.5 360.699219 292.800781 376.699219 286.898438 C 383.398438 291.800781 390.398438 296.5 396.601563 302.300781 C 388.101563 300.199219 380.300781 296.199219 372.398438 292.699219 C 368 293 363.699219 295 359.199219 295.800781 C 347.699219 298.5 334.5 297.601563 323.601563 294.398438 C 318.101563 296.199219 312.300781 297.5 306.601563 298.898438 C 321.101563 310.601563 337.699219 319.300781 358.199219 315.5 C 362.601563 314.699219 367.5 312.898438 371.898438 314.300781 C 380.5 320.199219 389.898438 323.800781 399.199219 328 C 385.199219 328.800781 373.398438 324.5 362 318.800781 C 348 324.601563 335.398438 333.601563 319.800781 335.601563 C 313.699219 336.398438 307.898438 338 301.800781 338.800781 C 316.199219 332.601563 331.199219 328 345.5 321.699219 L 345.699219 321.5 L 344.226563 321.375 C 327.125 317.476563 308.699219 312.398438 294.101563 302.300781 C 266.625 313.226563 248.511719 316.800781 212.738281 313.601563 L 211.800781 313.601563 C 220.398438 320.601563 231.800781 323.300781 243.699219 321.199219 C 253 331.398438 263.800781 339 275.898438 342.800781 C 265.300781 345.398438 252.398438 344.800781 241.300781 345.199219 C 246 351.199219 253.050781 356.449219 263.101563 361.648438 L 266.699219 361.148438 C 292.050781 358.199219 303.398438 354.199219 322 346.199219 C 339.601563 350.5 354.601563 341 371.199219 339 C 362.898438 344.898438 353 350.101563 343.101563 353.601563 C 351.5 356.101563 361.300781 356 370.699219 355.601563 C 355.300781 360 337.199219 362.300781 320.5 359.199219 C 307.898438 364.300781 299.800781 368.5 278.898438 370.398438 C 287.199219 376.699219 299.5 383.699219 308.5 388.699219 C 285.5 382.101563 264.398438 371 244.199219 357.699219 C 241.5 355.5 238.601563 353.101563 236.300781 350.300781 C 225.101563 357.800781 213.800781 365.199219 201.5 370 L 177.699219 377.398438 C 189.601563 372.101563 201.800781 367.300781 212.5 359.601563 L 211.800781 359.199219 C 199.5 357.699219 188.601563 353 177.199219 349.300781 C 159.101563 357.398438 138.898438 360.398438 118 361.601563 L 118 360.800781 C 138.398438 356.101563 158.398438 350.398438 177 341.199219 C 190.199219 347.699219 202.898438 355.898438 218.5 355.800781 L 231.699219 344.800781 L 230.9375 344.550781 C 220.738281 343.351563 210 343.199219 201 339.199219 C 219.898438 342.699219 243 341.5 262.898438 342.101563 C 256.5 339 250.199219 334.601563 244.199219 330.101563 C 230.800781 326.601563 218.101563 321.300781 205.800781 315 C 189.898438 323.300781 173.300781 329.800781 154.199219 330.398438 C 167.300781 325.800781 180.699219 321.898438 192.601563 314.300781 L 191.898438 313.800781 C 171.898438 313.101563 152.398438 311 134.800781 304.699219 C 119.5 311.101563 103.800781 316.601563 87.199219 320 L 108.800781 306.601563 C 104 305 100.5 303.601563 96.601563 301.300781 C 89.601563 296.800781 82.601563 292.199219 76 286.898438 C 90.300781 294 106.398438 296.699219 123 298.199219 L 127.800781 295.300781 C 143.808594 300.492188 163.78125 306.578125 193.699219 310.601563 L 217.601563 310.898438 C 234.5 311 257.242188 308.925781 262 307.800781 C 262.800781 307.601563 264.199219 307.300781 265.300781 307.101563 C 272.601563 305.101563 279.898438 303.101563 286.699219 299.898438 C 270.300781 295.199219 255.101563 287.699219 241.300781 276.601563 C 234.5 278.101563 225.5 275 218 273 C 205.101563 275.101563 187.25 278.300781 175.949219 270.601563 C 171.75 272.800781 169.101563 274 165 276.398438 C 177.101563 284 191 288.101563 206 287.898438 C 190 295.199219 172.898438 285.601563 158.800781 278.5 C 151.101563 281 142.699219 282.601563 134 281.898438 C 133.398438 281.5 132.800781 280.800781 132.101563 280.398438 L 132.101563 280 C 141.699219 279.398438 151.300781 278.800781 159.5 274.699219 C 145.101563 271 131.300781 266 117.699219 260.5 C 91.5 266.5 83 262.449219 83 262.449219 C 78.898438 262.476563 72.699219 264.199219 68.5 264.101563 C 74.601563 263 80.398438 256.101563 86.800781 260.800781 C 95.5 256 102.5 247.101563 110.800781 241.101563 C 114.898438 241.601563 118.800781 242.898438 122.800781 243.699219 L 141.898438 239.398438 L 148.898438 245.199219 L 140 241.300781 C 126.5 246.75 132.5 249 111.976563 245.101563 L 110.148438 246.226563 L 91.800781 261 C 101.699219 262.800781 110.398438 258.699219 118.699219 255 L 128.300781 259.300781 C 145.101563 253.300781 161.199219 245.5 177.199219 237.5 C 180.199219 235.5 183.398438 237.398438 185.898438 239.199219 L 180.851563 238.199219 C 175.75 240.601563 169.5 243.699219 164.300781 245.898438 C 168.5 248.398438 173.601563 249.800781 178.398438 251.199219 C 185.898438 248.601563 193 245 200 241.300781 C 207.601563 242.398438 214.601563 244.800781 221.898438 246.601563 C 214.800781 245.898438 207.699219 245.199219 201 243.5 C 194.699219 247.398438 187.699219 249.398438 180.800781 251.898438 L 188.800781 255.199219 C 179 255 169.199219 251.5 160 248.300781 C 150.699219 252.699219 141.699219 257.699219 132.101563 261.199219 C 141.199219 266.101563 151.398438 269 160.898438 273.199219 C 165.5 271.800781 169.800781 269.898438 173.898438 267.5 C 181.101563 269.5 188.898438 271.601563 196.898438 270.398438 C 206.398438 265.300781 215.300781 259.199219 225 254.800781 L 225.199219 255 C 218.300781 260.601563 210.398438 265.101563 203.199219 269.898438 C 208.699219 269.800781 213.898438 267.300781 219.5 266.5 C 235.898438 274.601563 258.261719 272.710938 273.0625 261.710938 C 263.0625 262.710938 253 263.398438 243.699219 259.800781 C 262.699219 259.800781 282.199219 254 300.601563 249 C 304.101563 249 305.589844 252.136719 310.898438 249.699219 C 312.800781 249 314.699219 248.5 316.398438 247.601563 C 311.5 246.300781 305.601563 246.199219 300.398438 244.898438 L 279.050781 240.199219 C 270.851563 243.699219 266.199219 245.699219 256.699219 245.898438 C 262 243.300781 267.488281 239.886719 273.1875 236.1875 L 274 235.601563 C 282 237.199219 290.101563 239.101563 298 240.398438 L 300.601563 241.300781 C 315.800781 243.199219 330.398438 242.800781 346.199219 242.5 C 354.898438 239.101563 364.101563 236.699219 373.300781 234.398438 C 380.199219 236.101563 386.800781 238.5 393.5 240.800781 C 404.898438 241.199219 416.101563 240.398438 426.398438 239.601563 C 419.898438 242.601563 412.699219 243.699219 405.699219 245.199219 C 410.398438 247.398438 415.300781 249.101563 419.898438 251.398438 Z M 239.398438 162.800781 C 245.398438 176.300781 253.101563 189.601563 263.898438 201 C 266.699219 193.101563 269.101563 185.101563 270.800781 176.800781 L 334.398438 220.699219 L 341.898438 227.199219 C 326.101563 229.300781 310.5 228.199219 294.601563 227.199219 C 281.898438 229.601563 268.398438 230.601563 255.199219 229.101563 C 247.601563 230.199219 239.898438 230.898438 232 231.199219 C 212.898438 204.601563 195.300781 177.398438 177.699219 150.101563 C 167.5 133.699219 158.300781 116.800781 150.101563 99.5 L 154.199219 96.398438 C 177.5 111.800781 199.261719 130.996094 223.101563 145.101563 C 228.148438 148.085938 231.800781 150.199219 235.800781 153.5 C 231.300781 159.601563 225.101563 165.101563 220 170.800781 C 226.398438 168.800781 233.199219 166.199219 239.398438 162.800781 Z M 249 163.601563 L 265.300781 174.398438 C 264 181.25 263.75 183.75 261.699219 190.199219 C 256.800781 181.601563 251.101563 173.300781 249 163.601563 Z M 172.398438 151.300781 C 188.898438 177.699219 208.699219 202.800781 222.601563 230.300781 C 208.898438 229.5 195.199219 225.5 181.800781 229.101563 L 179.398438 228.800781 L 168.398438 199.101563 L 152.5 150.101563 C 148.601563 134 143 118.101563 139.800781 102.101563 L 146.300781 102.101563 C 155.699219 118.199219 163 135.199219 172.398438 151.300781 Z M 156.398438 177.699219 L 172.699219 224.300781 L 173.898438 228.601563 C 166.300781 227.898438 157.398438 224.699219 149.898438 227.398438 C 137.800781 231.199219 123.101563 229.101563 112.699219 223.800781 C 112.5 221.101563 113 220.601563 113.199219 218 C 114.800781 188.199219 121.5 160.199219 121.300781 130 C 122.601563 121.101563 122.5 111.601563 124.199219 102.800781 L 135.199219 104.5 C 140.5 129.699219 149.300781 153.300781 156.398438 177.699219 Z M 114.101563 166.699219 L 107.398438 214.898438 L 104.5 225.199219 C 89.300781 229.300781 73.300781 231.601563 57 228.800781 L 75.5 183.699219 L 93 147.199219 L 117.625 99.601563 L 119.964844 101.5 C 116.761719 121.601563 115.898438 146 114.101563 166.699219 Z M 294.601563 107.398438 L 303.199219 109.101563 C 303.101563 112 302.601563 115.300781 301.800781 118.199219 C 299 115.699219 295.601563 111.601563 294.601563 107.398438 Z M 403.300781 131.199219 L 310.398438 106.699219 L 314.800781 94.199219 L 315.699219 93.699219 C 322.699219 93.898438 330.398438 94.5 337.101563 93.199219 C 328.300781 90.300781 319.101563 88.398438 310 86.5 C 307.5 91.898438 306.300781 98.5 305.199219 104.300781 L 289.800781 101.898438 L 288.738281 101.773438 C 283.4375 96.074219 279 89.601563 273 85.101563 L 266.800781 97.300781 L 266.664063 97.625 L 263.898438 97.101563 L 232.199219 91.601563 L 168.800781 78.398438 C 167.300781 78.199219 165.699219 77.300781 164.300781 77.601563 L 163.800781 72.800781 L 215.601563 65.199219 L 216.738281 65.085938 C 240.136719 62.585938 262.800781 56.699219 286 53.199219 L 286.199219 52.898438 C 314.300781 58.101563 338.699219 72.800781 362.300781 88.199219 C 377.398438 100.5 393 114.800781 403.300781 131.199219 Z M 272.800781 23.398438 C 292.5 27 312.5 32.25 330.273438 43.300781 L 328.699219 44.300781 C 310.625 36 291.699219 29.601563 272.800781 23.398438 Z M 352.625 45.375 C 355.386719 45.039063 357.625 45.625 358.851563 46.773438 C 361.398438 48.773438 363.5 53.648438 361.699219 56.550781 C 356.625 53.625 356.25 53.375 354.199219 52.375 C 352.617188 51.601563 348.226563 48.773438 348.226563 48.773438 C 348.804688 47.78125 350.378906 45.902344 352.625 45.375 Z M 347.398438 51.5 C 351.398438 54 355.875 56.5 359.949219 59.023438 C 357.375 62.625 352.25 61.75 349.101563 60.101563 C 346 57.898438 346.898438 54.800781 347.398438 51.5 Z M 262.699219 7.300781 C 284.148438 9.25 309.25 14.75 328 23.898438 L 344.523438 32.300781 L 341.199219 34.398438 C 320.300781 23.5 298 15.800781 274 12.398438 C 264.398438 10.5 254.5 9.398438 245.199219 6.800781 C 250.300781 6.601563 256.824219 6.765625 262.699219 7.300781 Z M 230 48.101563 C 246.101563 46.300781 262.601563 47 277.800781 50.300781 L 215.601563 62.300781 L 166.199219 68.800781 L 163.800781 69.5 L 162.398438 61.800781 C 184.199219 55.398438 205.800781 48.699219 230 48.101563 Z M 157.101563 63.199219 C 160.5 70.5 160.199219 84.5625 156.023438 89.273438 C 154.988281 90.761719 153.511719 91.925781 152.300781 93 C 146.601563 97 143 100 132.101563 98.800781 C 125.25 97.675781 118 92.699219 112.398438 87 C 126.300781 76.601563 140.300781 66.5 157.101563 63.199219 Z M 102.800781 63.699219 C 104.800781 66.300781 104.5625 69.625 104.0625 72.925781 C 100.664063 70.226563 97.300781 67.601563 94.398438 64.398438 C 96.800781 62.398438 100.199219 62.199219 102.800781 63.699219 Z M 90.085938 69.699219 L 91.988281 66.601563 C 95.585938 68.800781 98.6875 72.800781 101.589844 75.5 C 100.875 76.9375 100.875 76.9375 99.636719 77.898438 C 96.6875 78.75 95.75 78.375 92.488281 76.199219 C 90.386719 75 89.289063 71.773438 90.085938 69.699219 Z M 108.800781 90.601563 L 114.726563 96.273438 L 113.898438 97.800781 C 105.601563 110.800781 98.5 124.601563 91.601563 138.398438 L 68.800781 187.800781 C 61.800781 200.898438 57.898438 215.199219 49.800781 227.898438 L 43.800781 226.898438 C 44.101563 208.601563 48.351563 191.898438 53.601563 174.800781 C 60.023438 153.875 72.699219 135.300781 84.101563 116.300781 C 90.601563 106.601563 99.5 97.898438 108.800781 90.601563 Z M 74.425781 94.949219 L 79.601563 90.601563 C 80.601563 90.800781 81.5 91.300781 82.398438 91.800781 C 66.25 111.75 53.898438 133.5 42.101563 155.398438 C 40.398438 157.699219 38.898438 160.398438 36.398438 162.101563 C 44.398438 140.699219 64.125 104.523438 74.425781 94.949219 Z M 20.300781 155.199219 C 23.449219 148.050781 26 141 30.101563 134.800781 C 37.699219 119.101563 45 104 58.398438 89.398438 C 62.464844 84.972656 66.300781 81.601563 70.398438 78.101563 C 71.5 78.601563 73.101563 78.800781 73.300781 80.300781 L 72.800781 81.5 C 38.5 108.75 25.800781 153.5 10.398438 192.800781 C 12.199219 179.699219 16 167.300781 20.300781 155.199219 Z M 15.238281 240.035156 L 12.726563 240.148438 C 12.375 236.125 18.667969 233.085938 19.476563 233.074219 C 25.875 233 27.898438 237.515625 29.101563 240.199219 C 24.5 240.5 21.3125 239.9375 15.238281 240.035156 Z M 28.898438 243.5 C 28.5 243.898438 29.199219 246.5 27.199219 247.601563 C 24 250.398438 19.925781 250.398438 15.625 249.199219 C 13.523438 247.800781 12.601563 245.398438 12.898438 243 C 20 243 22.851563 242.839844 28.898438 243.5 Z M 25.101563 315 C 20 296.101563 12.5 278.199219 12.101563 257.398438 C 13.601563 257.898438 15.800781 257.300781 16.699219 258.800781 C 17.898438 276.101563 22.398438 291.898438 25.800781 308.300781 C 29.699219 322 34.101563 335.5 38.800781 348.800781 C 32.601563 338.199219 28.5 326.699219 25.101563 315 Z M 29.199219 279.5 C 28.800781 274.300781 26.800781 269.699219 27.199219 264.101563 C 28.398438 264 29.398438 263.5 30.601563 263.398438 C 33.5 287.800781 41.601563 310 46.699219 333.5 C 39 316.398438 33.601563 298.101563 29.199219 279.5 Z M 123.5 435.199219 C 123.300781 431.898438 124.5 428.636719 126.101563 426.601563 C 127.300781 425.6875 127.824219 425.113281 129.699219 424.898438 C 131.625 424.75 131.800781 424.898438 133.101563 425.398438 C 131.5 429.699219 128.636719 434.851563 126.539063 438.851563 C 124.8125 438.4375 123.898438 436.800781 123.5 435.199219 Z M 140.300781 433.101563 C 140.5 435.101563 136.1875 441.375 131.589844 441 L 129.761719 440.4375 C 130.648438 436.023438 134.625 431 135.6875 427.1875 L 137.101563 427.738281 C 139.214844 428.863281 140.574219 430.835938 140.300781 433.101563 Z M 150.601563 457.300781 C 148.699219 455.800781 145.800781 454.601563 144.398438 452.5 C 146 452.398438 147.699219 450.800781 149.398438 452 L 170.800781 460.699219 C 182.699219 465.398438 194.625 468.375 208 471.699219 C 221.535156 475.066406 235.75 477.25 250 480.601563 C 217.5 480 180.699219 472.300781 150.601563 457.300781 Z M 156.398438 444.800781 L 156.601563 443.898438 C 174.300781 450.101563 191.5 457.398438 209.199219 463.601563 C 190.601563 461 172.101563 455.699219 156.398438 444.800781 Z M 289.601563 438.800781 C 256.980469 445.761719 220.5 441.898438 190.199219 433.101563 C 149.898438 420.398438 111.199219 393.800781 85.601563 356 C 61.398438 322.5 49.800781 283.699219 43.101563 243 L 45.5 240.601563 L 46.398438 245.898438 C 61.898438 250.101563 79.699219 246.101563 95.601563 245.601563 C 81.199219 250.199219 65 255.101563 48.101563 252.800781 C 51.601563 275.300781 57.5 297.199219 67.101563 317.398438 C 70.601563 324.300781 73.300781 331.601563 77.898438 338 C 98.5 336.699219 118.5 333.898438 136.699219 326.800781 L 119.898438 335.898438 C 127.601563 339.199219 136.101563 342 144.398438 344.5 C 133.398438 343.800781 122.898438 341.601563 112.699219 339 C 97.074219 344.476563 93.300781 344.699219 83.199219 346.398438 L 82.574219 346.585938 C 95.675781 366.285156 113.898438 386.398438 133.601563 400 C 157.898438 401.199219 181.601563 398 202.898438 390.601563 L 216.398438 395.898438 C 226.300781 392.300781 236.5 389.5 246.601563 386.300781 C 238.699219 391.101563 230.398438 394.800781 221.601563 397.601563 C 231.800781 402.800781 246 401.101563 256.699219 398 C 269.699219 403.398438 283.300781 407.300781 298.398438 407.601563 C 283.898438 409.199219 267.699219 409.300781 254.5 404.800781 C 234 409.300781 212.601563 404.5 194.800781 396.800781 C 179.5 401.398438 164.199219 405.800781 148.398438 409.101563 C 185.300781 431.601563 229.699219 441.800781 276.101563 435.5 C 307.5 433.199219 334.898438 421.5 359.398438 402.601563 C 360.898438 401.300781 362.398438 400 364 398.800781 L 362.425781 398.050781 C 349.25 393.5 335.800781 389 325.300781 378.101563 C 340.5 384.800781 356.601563 389.398438 374.5 389.398438 C 404.398438 360.800781 419.800781 325.699219 433.300781 290 L 432.601563 289.601563 C 418.699219 288.398438 404.300781 288.800781 392.800781 281.898438 C 405.398438 286.300781 422.300781 284.898438 435.699219 282.101563 L 436.398438 281.199219 C 439.699219 268.199219 444.601563 255.5 445.300781 241.800781 L 446.75 240.351563 C 447.351563 253.449219 443.101563 267.398438 440.800781 280.398438 C 434.300781 315.699219 418.800781 347.300781 397.601563 376.398438 C 368.800781 412.699219 328.5 430.5 289.601563 438.800781 Z M 435.699219 362.5 C 426.101563 378.800781 413.601563 394.699219 398.5 407.898438 L 395.898438 408.800781 C 402 399.601563 412.199219 390.898438 419.199219 381.5 C 424.398438 375.101563 429.699219 368.199219 435.699219 362.5 Z M 379.824219 431.601563 C 376.824219 432.199219 374.125 429.375 373.289063 427.949219 C 372.460938 427.34375 371.125 425.125 371.976563 420.949219 C 372.5 419.75 373.125 418.375 374.175781 417.949219 L 383.601563 429.699219 C 384.101563 430.898438 380.925781 431.101563 379.824219 431.601563 Z M 386.300781 427.300781 C 382.699219 423.800781 379.601563 419.699219 376.699219 415.800781 C 377.625 415 379.726563 414.851563 380.351563 414.925781 C 383.375 414.75 386 415.898438 387.199219 419.601563 C 388 422.101563 387 424.898438 386.300781 427.300781 Z M 409.800781 413.199219 C 407.898438 414.898438 405.726563 416.351563 403.6875 417.835938 C 402 419.25 397.898438 423.601563 395.898438 420.601563 C 419.398438 402.300781 437.425781 377.601563 452.425781 353.398438 L 454.199219 351 C 444 373.101563 429.101563 394.5 409.800781 413.199219 Z M 448.699219 153 C 456.300781 174 465.398438 195.300781 464 219.199219 C 463.199219 219.398438 462.601563 219.898438 461.601563 219.699219 C 460.898438 196 453.398438 175.101563 448.699219 153 Z M 458.875 234.976563 C 462.375 231.675781 468.199219 229.398438 471.5 234.601563 L 472.699219 236.875 C 468.300781 237.976563 462.25 239 456.851563 240.148438 C 457.625 236.625 458.050781 235.726563 458.875 234.976563 Z M 471.898438 246.148438 C 469.75 248.75 469.125 248.800781 466.199219 249.199219 C 462.199219 249.601563 459.25 246.375 457.550781 242.699219 C 464.75 241.25 467.898438 240.648438 473 239.648438 C 473.25 242 472.75 243.75 471.898438 246.148438 Z M 474.800781 219.199219 C 472.601563 192.199219 465 167.5 457.300781 142.699219 L 456.398438 137.898438 C 467.300781 163.300781 476.398438 190 477.199219 219 C 476.601563 219.398438 475.601563 219.199219 474.800781 219.199219 "/>
</g>
</svg>
