<?xml version="1.0" encoding="UTF-8"?>
<svg xmlns="http://www.w3.org/2000/svg" xmlns:xlink="http://www.w3.org/1999/xlink" width="526pt" height="575pt" viewBox="0 0 526 575" version="1.1">
<g id="surface1">
<path style=" stroke:none;fill-rule:nonzero;fill:rgb(0%,0%,0%);fill-opacity:1;" d="M 464.863281 486.996094 C 485.269531 486.902344 505.765625 485.28125 525.515625 484.71875 L 525.515625 480.320313 C 520.367188 480.972656 515.3125 479.570313 510.726563 477.605469 C 508.761719 469.179688 509.667969 462.183594 508.011719 453.363281 C 501.871094 412.113281 488.386719 345.339844 477.804688 303.425781 C 465.285156 253.851563 445.664063 186.675781 438.429688 162.914063 C 433.449219 146.5625 428.734375 129.988281 426.113281 113.03125 C 432.289063 107.320313 431.449219 98.804688 432.851563 91.128906 C 434.351563 87.851563 437.25 85.230469 437.25 81.394531 L 438.28125 9.605469 C 439.175781 7.621094 441.640625 5.902344 442.816406 3.996094 C 444.566406 1.164063 442.355469 -0.917969 438.398438 1.179688 C 435.371094 2.785156 433.191406 6.589844 430.886719 9.605469 C 430.230469 33.847656 429.480469 59.023438 428.828125 83.734375 C 418.34375 88.976563 422.183594 100.675781 416.003906 107.976563 C 377.628906 133.0625 295.335938 178.503906 293.738281 179.378906 C 292.683594 179.960938 291.554688 180.265625 290.214844 179.671875 C 289.375 178.6875 288.449219 177.546875 287.84375 176.4375 C 287.4375 175.695313 287.265625 174.921875 287.679688 174.058594 C 290.285156 169.359375 283.746094 172.65625 283.933594 169.003906 C 285.980469 169.375 285.898438 167.039063 286.273438 165.636719 C 282.53125 164.230469 278.316406 162.828125 274.199219 163.296875 C 273.886719 164.6875 273.078125 166.269531 275.511719 166.945313 C 247.351563 217.761719 142.347656 337.585938 104.878906 375.492188 C 80.542969 400.113281 18.765625 462.839844 3.601563 480.320313 L 0.886719 481.722656 C -0.171875 482.367188 0.136719 484.53125 1.261719 485.375 C 4.1875 485.632813 2.921875 489.027344 5.535156 490.691406 C 7.308594 491.816406 117.1875 542.441406 142.785156 555.105469 C 135.109375 554.167969 129.308594 556.695313 122.191406 558.195313 C 120.914063 557.9375 119.386719 557.738281 117.894531 557.777344 C 114.996094 557.851563 115.144531 558.785156 117.996094 559.015625 C 128.0625 559.832031 138.90625 555.382813 149.523438 558.476563 C 150.417969 558.796875 151.148438 559.460938 151.851563 560.179688 C 154.148438 562.527344 159.6875 565.867188 161.972656 560.535156 C 161.972656 560.535156 163.949219 564.484375 167.8125 563.175781 C 169.28125 562.679688 170.675781 562.105469 171.902344 563.003906 C 173.363281 564.078125 176.269531 562.5625 178.164063 560.160156 C 179.570313 562.03125 182.472656 561.191406 183.5 559.222656 C 185.28125 559.316406 186.683594 560.253906 188.273438 560.910156 C 192.65625 562.425781 197.167969 558.570313 201.378906 561.191406 C 203.625 562.6875 206.527344 562.96875 208.492188 560.910156 C 211.347656 563.941406 217.84375 562.257813 219.910156 560.535156 C 224.402344 563.53125 230.199219 566.019531 235.730469 563.53125 C 237.304688 562.957031 238.6875 563.550781 240.058594 564.113281 C 242.066406 564.933594 244.101563 564.375 245.117188 563.265625 C 247.371094 560.796875 249.710938 561.996094 252.199219 563.316406 C 255.203125 564.910156 257.734375 565.265625 259.019531 564.351563 C 262 562.230469 268.558594 563.820313 267.085938 559.222656 C 273.699219 562.445313 281.175781 564.125 287.304688 563.902344 C 292.839844 566.484375 298.535156 566.40625 304.304688 566.148438 C 310.210938 565.882813 318.496094 566.285156 323.222656 567.789063 C 327.425781 569.125 335.53125 569.367188 341.152344 568.636719 C 350.867188 567.378906 360.960938 571.570313 370.890625 569.988281 C 374.632813 573.730469 380.53125 570.925781 383.992188 573.636719 C 385.5 574.832031 390.324219 574.128906 393.011719 572.820313 C 395.050781 571.828125 397.570313 574.707031 399.757813 573.640625 C 403.390625 571.867188 408.390625 572.285156 411.980469 572.703125 C 414.972656 571.671875 412.074219 568.675781 412.355469 567.273438 C 416.003906 566.992188 419.46875 566.148438 422.742188 567.929688 C 425.273438 569.175781 428.546875 568.074219 430.394531 566.164063 C 430.570313 565.980469 436.96875 561.65625 440.339844 561.84375 C 447.921875 565.496094 456.347656 565.214844 464.863281 565.589844 C 477.5 566.710938 492.277344 567.835938 504.074219 565.964844 L 504.003906 565.117188 C 492.910156 566.171875 456.683594 563.785156 445.328125 561.078125 C 448.632813 558.792969 453.320313 555.992188 456.421875 552.421875 C 460.527344 547.699219 459.992188 542.179688 458.75 538.234375 C 455.433594 527.679688 442.265625 523.078125 434.273438 520.460938 C 443.164063 512.878906 451.011719 504.1875 459.527344 495.855469 C 457.863281 492.429688 462.320313 489.601563 464.863281 486.996094 Z M 491.164063 480.972656 C 478.0625 481.910156 465.707031 481.910156 452.414063 482.378906 C 463.367188 476.574219 475.058594 474.816406 486.195313 469.480469 C 489.574219 471.554688 492.570313 473.484375 496.21875 474.984375 C 494.253906 476.292969 491.257813 478.074219 491.164063 480.972656 Z M 313.980469 520.472656 C 318.847656 524.125 323.714844 528.335938 328.113281 532.546875 C 321.164063 531.925781 297.484375 529.660156 282.304688 528.199219 C 271.414063 527.152344 241.167969 522.800781 241.167969 522.800781 L 242.25 513.660156 C 245.371094 517.097656 246.382813 518.621094 254.515625 518.992188 C 263.484375 519.398438 307.929688 520.4375 313.980469 520.472656 Z M 292.730469 511.300781 L 320.71875 515.042969 C 319.128906 516.730469 318.097656 518.507813 317.347656 520.472656 C 316.601563 519.910156 316.039063 519.539063 315.289063 518.789063 L 293.761719 518.195313 C 291.046875 516.976563 292.730469 513.546875 292.730469 511.300781 Z M 366.210938 531.894531 C 363.308594 531.238281 360.042969 529.117188 357.035156 530.863281 C 356.019531 531.394531 354.980469 530.851563 353.941406 530.476563 C 350.96875 529.394531 347.40625 532.683594 349.640625 536.292969 L 351.699219 539.660156 L 342.621094 539.007813 C 342.75 535.390625 343.355469 531.203125 340.148438 529.878906 C 335.410156 527.925781 339.386719 521.421875 337.191406 517.386719 C 346.460938 517.664063 355.257813 519.539063 364.523438 519.722656 C 364.054688 523.84375 367.707031 527.398438 366.210938 531.894531 Z M 370.234375 543.3125 C 370.796875 545.558594 372.9375 546.839844 374.914063 547.429688 C 376.253906 547.1875 378.140625 545.511719 377.367188 543.707031 C 392.382813 544.28125 408.386719 541.515625 422.742188 539.660156 C 422.765625 540.992188 422.578125 543.457031 420.839844 544.0625 C 363.953125 559.265625 295.671875 543.949219 240.136719 532.328125 C 240.285156 530.394531 240.597656 527.304688 240.785156 524.777344 C 259.128906 528.238281 318.453125 534.1875 328.394531 534.886719 C 327.457031 537.039063 328.394531 539.660156 330.828125 539.941406 Z M 420.402344 530.582031 C 419.664063 531.363281 418.53125 532.082031 417.6875 532.921875 C 411.511719 529.832031 405.800781 525.527344 399.53125 522.4375 C 408.613281 521.871094 418.632813 520.703125 427.800781 522.230469 C 426.625 523.507813 424.621094 525.558594 423.144531 526.957031 C 421.660156 526.757813 419.777344 528.347656 420.402344 530.582031 Z M 420.777344 537.320313 C 408.046875 540.035156 392.324219 541.71875 378.65625 540.972656 C 380.53125 537.414063 384.460938 535.636719 384.367188 531.238281 C 381.558594 528.148438 382.964844 523 380.621094 520.097656 C 387.089844 519.484375 392.488281 521.484375 397.632813 524.082031 C 401.871094 526.222656 418.800781 535.558594 420.777344 537.320313 Z M 381.671875 533.78125 C 381.359375 534.535156 378.445313 537.976563 377.632813 538.914063 C 376.082031 540.695313 374.632813 542.382813 374.632813 544.714844 C 374.070313 545.183594 371.917969 543.3125 372.199219 541.347656 C 376.785156 539.941406 376.316406 534.515625 379.3125 531.519531 C 380.167969 530.496094 378.914063 529.226563 378.34375 528.242188 C 377.769531 527.261719 377.582031 526.417969 379.6875 525.808594 C 381 528.070313 382.765625 531.125 381.671875 533.78125 Z M 376.597656 525.152344 C 375.882813 523.5625 377.253906 520.285156 374.257813 521.410156 C 373.769531 520.828125 374.214844 520.25 374.589844 519.667969 C 376.105469 517.636719 374.296875 517.539063 373.347656 518.039063 C 372.746094 518.351563 372.199219 518.789063 372.199219 518.789063 C 372.027344 516.238281 373.578125 515.179688 374.914063 516.082031 C 375.960938 516.789063 376.90625 517.882813 376.972656 519.070313 C 378.84375 519.910156 379.503906 521.84375 379.96875 523.46875 Z M 374.136719 505.984375 C 371.898438 504.390625 367.910156 505.199219 368.828125 509.335938 C 368.695313 509.386719 368.359375 509.523438 368.175781 509.617188 C 367.613281 508.492188 366.488281 506.808594 367.894531 505.589844 C 370.550781 502.933594 372.246094 503.097656 374.371094 505.6875 C 374.898438 506.324219 374.960938 506.574219 374.136719 505.984375 Z M 148.84375 505.5 C 140.125 503.9375 100.289063 497.824219 89.902344 495.203125 C 90.546875 493.929688 91.300781 493.695313 92.105469 493.746094 C 93.234375 493.816406 157.246094 487.117188 184.605469 483.542969 L 180.132813 500.910156 C 178.445313 501.285156 173.117188 499.789063 173.109375 501.941406 L 172.738281 505.589844 C 164.503906 507.628906 156.667969 506.898438 148.84375 505.5 Z M 172.457031 507.652344 L 172.238281 508.972656 L 168.339844 508.304688 C 168.585938 507.484375 171.238281 507.742188 172.457031 507.652344 Z M 135.671875 400.105469 L 156.542969 424.066406 C 155.796875 431.929688 156.636719 438.761719 155.890625 446.996094 C 153.828125 448.214844 151.488281 449.804688 151.210938 452.332031 L 134.359375 455.703125 C 136.796875 437.636719 136.796875 418.074219 135.671875 400.105469 Z M 270.457031 227.316406 L 274.480469 208.035156 C 277.070313 210.09375 281.582031 209.722656 280.9375 214.121094 C 278.597656 229.003906 274.761719 243.136719 272.515625 257.925781 L 269.144531 261.449219 L 270.828125 244.445313 C 272.703125 242.625 270.566406 239.175781 268.1875 238.078125 C 268.5625 236.394531 268.769531 235.367188 269.144531 233.683594 C 271.214844 234.097656 273.449219 234.335938 274.199219 231.996094 C 275.386719 228.148438 271.820313 227.65625 270.457031 227.316406 Z M 285.992188 210.09375 C 290.953125 207.195313 295.855469 204.097656 300.78125 201.296875 L 311.921875 219.550781 C 299.566406 231.621094 287.023438 243.417969 274.855469 255.960938 C 275.976563 247.066406 282.90625 214.496094 282.90625 214.496094 C 287.179688 214.496094 285.992188 210.09375 285.992188 210.09375 Z M 223.28125 515.699219 L 222.988281 518.476563 L 208.265625 507.796875 C 208.8125 505.691406 209.035156 503.632813 209.519531 502.1875 C 212.871094 502.199219 220.625 502.242188 224.539063 502.160156 C 222.011719 506.371094 220.660156 511.113281 223.28125 515.699219 Z M 219.257813 441.566406 L 215.230469 460.476563 C 211.019531 464.21875 205.308594 464.21875 199.039063 464.5 C 192.578125 458.230469 184.84375 453.695313 178.386719 447.425781 C 179.195313 445.421875 179.730469 443.738281 180.109375 442.773438 C 207.304688 445.609375 219.257813 441.566406 219.257813 441.566406 Z M 180.507813 441.289063 L 186.871094 421.726563 C 197.730469 418.261719 212.269531 421.183594 223.5 420.246094 L 219.742188 438.855469 C 211.949219 444.082031 180.507813 441.289063 180.507813 441.289063 Z M 219.632813 483.6875 C 221.582031 484.851563 223.375 486.121094 225.339844 487.433594 C 222.304688 487.621094 219.589844 487.667969 216.261719 487.714844 C 216.566406 485.949219 217.757813 484.15625 219.632813 483.6875 Z M 216.597656 480.941406 C 216.972656 480.847656 217.894531 481.523438 218.226563 482.003906 L 217.570313 482.660156 Z M 222.253906 482.660156 L 229.488281 479.859375 L 228.054688 486.402344 C 226.664063 485.257813 224.808594 484.34375 222.253906 482.660156 Z M 226.808594 493.796875 C 226.597656 496.148438 226.191406 497.945313 225.621094 500.257813 L 209.804688 500.257813 C 210.304688 498.382813 210.601563 496.9375 211.207031 494.828125 C 216.261719 494.453125 221.753906 494.171875 226.808594 493.796875 Z M 212.515625 488.089844 L 214.574219 479.007813 C 215.699219 481.816406 214.414063 485.09375 213.546875 488.089844 Z M 214.046875 464.125 L 211.199219 474.394531 L 201.390625 466.476563 C 206.257813 466.289063 209.648438 465.34375 214.046875 464.125 Z M 211.207031 480.972656 C 209.242188 482.003906 206.691406 481.933594 204.09375 482.003906 C 204.023438 481.300781 204.308594 481.074219 204.734375 481.011719 C 205.449219 480.914063 209.617188 480.566406 211.207031 480.972656 Z M 224.964844 505.589844 L 223.9375 512.332031 C 223.28125 510.085938 223.65625 507.464844 224.964844 505.589844 Z M 225.964844 518.667969 C 226.203125 518.765625 228.335938 520.472656 228.335938 520.472656 L 224.964844 519.722656 C 224.761719 519.113281 225.34375 518.40625 225.964844 518.667969 Z M 225.621094 515.417969 L 227.679688 501.941406 L 228.335938 501.941406 L 228.335938 517.757813 C 227.453125 517.582031 225.476563 516.53125 225.621094 515.417969 Z M 228.054688 500.257813 L 229.363281 498.195313 C 229.933594 498.445313 229.574219 500.191406 228.054688 500.257813 Z M 229.363281 476.949219 C 227.117188 478.914063 224.226563 479.820313 220.941406 481.347656 L 217.945313 479.664063 C 219.351563 473.394531 220.871094 466.855469 222.625 460.757813 C 225.902344 459.65625 229.363281 457.964844 233.109375 456.730469 C 231.800781 463.472656 230.113281 470.023438 229.363281 476.949219 Z M 259.035156 330.371094 C 257.875 338.523438 255.574219 346.472656 254.261719 354.613281 L 250.613281 356.019531 C 252.484375 348.34375 253.515625 340.292969 255.011719 332.429688 Z M 255.667969 330.089844 C 256.136719 322.789063 257.164063 314.367188 258.660156 306.785156 L 261.75 304.820313 C 261.5625 312.027344 260.910156 320.449219 259.691406 328.03125 Z M 257.632813 347.875 L 256.695313 353.679688 C 256.121094 352.765625 256.398438 349.171875 257.632813 347.875 Z M 249.210938 381.289063 C 248.335938 389.355469 246.867188 397.109375 245.183594 404.878906 L 243.21875 405.15625 L 246.867188 382.320313 Z M 247.242188 380.261719 C 248.273438 372.960938 249.210938 365.660156 250.238281 358.359375 C 251.359375 357.421875 252.578125 356.953125 253.980469 356.671875 L 249.957031 379.230469 Z M 244.527344 406.5625 L 240.785156 428.464844 C 240.410156 428.558594 239.828125 428.621094 239.472656 428.746094 L 242.46875 407.21875 Z M 247.242188 405.90625 L 251.269531 404.222656 C 251.253906 405.945313 249.582031 425.75 249.582031 425.75 L 243.21875 427.808594 C 244.0625 420.976563 245.371094 412.925781 247.242188 405.90625 Z M 247.898438 403.847656 L 251.640625 380.636719 C 252.390625 379.699219 253.328125 379.605469 254.261719 379.230469 L 252.296875 402.535156 Z M 252.296875 378.199219 L 256.320313 355.644531 C 256.230469 362.289063 255.199219 370.058594 254.636719 377.265625 Z M 253.328125 330.746094 L 251.796875 331.207031 L 254.261719 323.351563 Z M 251.800781 338.519531 C 250.953125 344.871094 249.296875 354.140625 248.871094 355.730469 C 248.535156 356.980469 247.828125 357.972656 246.214844 358.359375 C 246.738281 355.796875 249.519531 344.71875 251.132813 338.328125 C 251.820313 335.609375 252.066406 336.535156 251.800781 338.519531 Z M 248.273438 359.386719 L 244.902344 380.914063 L 240.785156 382.601563 L 245.183594 361.070313 Z M 244.152344 382.976563 C 243.460938 390.019531 241.238281 404.066406 240.785156 406.5625 L 234.046875 408.902344 C 236.84375 400.34375 237.882813 392.804688 240.128906 384.941406 Z M 240.128906 408.246094 L 237.132813 429.121094 C 234.421875 430.148438 231.703125 431.179688 228.992188 432.113281 L 233.390625 411.617188 C 235.457031 410.601563 238.164063 408.996094 240.128906 408.246094 Z M 236.761719 431.179688 L 233.390625 454.765625 L 223.28125 458.417969 L 228.335938 434.828125 C 231.144531 433.613281 233.671875 432.425781 236.761719 431.179688 Z M 230.09375 504.195313 L 230.394531 501.941406 C 231.703125 501.949219 232.964844 501.988281 234.199219 502.007813 L 234.421875 504.28125 C 233.015625 504.375 231.476563 504.292969 230.09375 504.195313 Z M 235.449219 508.679688 C 236.199219 512.519531 233.390625 516.328125 230.582031 517.949219 C 230.203125 513.980469 230.109375 509.203125 230.019531 505.589844 Z M 230.675781 499.882813 C 231.703125 498.851563 231.050781 495.015625 233.765625 496.886719 C 233.859375 497.824219 234.070313 498.894531 234.046875 499.882813 Z M 231.644531 473.617188 L 234.753906 456.574219 L 236.230469 455.898438 C 235.957031 458.144531 233.40625 469.289063 232.402344 473.414063 C 231.484375 477.199219 231.644531 473.617188 231.644531 473.617188 Z M 235.449219 454.015625 L 239.101563 430.804688 L 240.128906 430.148438 C 239.285156 437.636719 238.316406 446.171875 236.445313 453.847656 Z M 242.46875 429.492188 C 244.527344 429.152344 247.046875 428.253906 249.210938 427.808594 L 247.242188 450.367188 L 238.445313 453.734375 Z M 248.929688 452.050781 C 255.667969 448.964844 350.742188 413.871094 352.589844 413.160156 C 375.28125 404.410156 409.890625 394.277344 420.402344 389.339844 L 430.230469 402.535156 C 398.472656 414.886719 365.992188 426.941406 333.621094 439.15625 C 321.6875 443.65625 260.371094 466.09375 246.589844 471.613281 C 246.773438 468.058594 248.929688 452.050781 248.929688 452.050781 Z M 249.210938 449.992188 L 251.269531 427.0625 C 275.976563 420.414063 404.679688 374.269531 408.609375 373.148438 L 419.371094 388.027344 C 391.960938 397.148438 261.488281 445.496094 249.210938 449.992188 Z M 251.640625 425.375 C 252.484375 418.261719 252.773438 411.453125 253.980469 403.847656 C 266.078125 399.234375 378.824219 363.269531 396.480469 356.300781 L 407.578125 371.835938 C 398.6875 375.394531 266.960938 421.539063 251.640625 425.375 Z M 254.261719 401.507813 L 256.695313 378.574219 C 269.214844 374.125 358.714844 344.417969 384.367188 338.140625 C 389.03125 344.816406 392.011719 349.871094 395.507813 354.988281 C 383.175781 359.082031 258.847656 400.757813 254.261719 401.507813 Z M 256.695313 376.515625 L 258.660156 354.988281 C 266.746094 351.246094 343.441406 327.734375 358.441406 323.421875 L 371.917969 319.234375 L 383.339844 336.082031 C 351.214844 345.457031 284.433594 368.496094 256.695313 376.515625 Z M 259.035156 352.929688 C 259.738281 344.566406 260.816406 336.921875 262.03125 329.0625 C 288.707031 318.578125 353.761719 300.140625 359.09375 299.765625 L 371.261719 317.921875 C 356.960938 322.460938 278.371094 345.695313 259.035156 352.929688 Z M 262.03125 327.375 C 262.6875 319.234375 264.558594 311.464844 265.777344 303.414063 C 274.667969 298.734375 344.960938 281.324219 348.613281 281.230469 C 352.136719 287.160156 354.71875 292.152344 358.441406 298.078125 C 337.777344 302.4375 275.105469 322.472656 262.03125 327.375 Z M 266.058594 289.28125 C 266.804688 291.433594 266.296875 294.9375 265.121094 296.675781 C 264.621094 294.632813 265.027344 291.433594 266.058594 289.28125 Z M 266.429688 301.074219 C 266.804688 297.144531 267.648438 293.304688 268.769531 289.65625 C 273.730469 287.878906 277.945313 282.167969 278.597656 276.832031 C 284.777344 275.429688 323.152344 264.476563 336.539063 261.667969 L 347.675781 279.546875 C 329.144531 283.011719 274.949219 297.144531 266.429688 301.074219 Z M 278.597656 275.148438 C 278.035156 271.683594 277.101563 268.40625 274.855469 265.695313 C 279.441406 260.359375 284.683594 254.367188 290.394531 249.5 C 301.34375 246.878906 312.390625 242.667969 323.714844 240.046875 C 327.085938 246.878906 331.671875 253.339844 335.507813 259.984375 C 317.257813 265.785156 296.671875 269.46875 278.597656 275.148438 Z M 292.078125 247.816406 L 315.289063 224.882813 C 318.550781 230.546875 320.203125 233.667969 322.683594 238.363281 C 313.042969 241.429688 301.8125 244.726563 292.078125 247.816406 Z M 313.230469 218.144531 C 309.769531 212.246094 305.929688 206.351563 302.839844 200.359375 C 319.878906 189.597656 337.285156 179.957031 354.695313 170.316406 C 356.578125 171.515625 359.429688 171.144531 360.167969 167.808594 C 361.933594 167.113281 364.496094 166.304688 366.210938 165.914063 Z M 268.488281 246.132813 L 267.378906 262.914063 C 267.003906 263.289063 266.203125 264.019531 265.777344 264.382813 Z M 263.714844 266.347656 L 261.75 268.6875 C 262.78125 261.199219 264.746094 252.683594 266.804688 244.820313 Z M 261.820313 288.90625 C 262.289063 289.09375 263.242188 289.179688 264.089844 289.28125 L 262.40625 302.386719 L 259.316406 304.070313 C 259.996094 299.847656 261.371094 290.558594 261.820313 288.90625 Z M 216.914063 472.410156 C 216.117188 475.269531 215.671875 475.027344 216.347656 471.6875 C 222.648438 440.707031 253.507813 300.355469 258.660156 281.511719 L 261.75 278.515625 C 260.980469 282.292969 225.65625 441.023438 216.914063 472.410156 Z M 237.789063 292.277344 C 234.511719 291.246094 231.332031 293.117188 228.054688 291.996094 C 231.800781 287.222656 234.140625 281.324219 237.789063 276.175781 C 237.085938 281.605469 238.351563 287.222656 237.789063 292.277344 Z M 246.867188 260.640625 L 254.636719 246.785156 C 250.144531 261.949219 239.847656 297.703125 239.847656 297.703125 C 239.941406 288.0625 237.320313 274.867188 243.871094 266.066406 C 244.8125 265.207031 246.664063 265.328125 247.304688 264.1875 C 248.25 262.503906 246.867188 260.640625 246.867188 260.640625 Z M 253.929688 255.808594 C 254.511719 253.6875 254.78125 253.753906 254.363281 255.894531 C 250.019531 278.296875 242.183594 301.609375 238.210938 324.238281 C 238.066406 325.066406 237.808594 325.066406 237.832031 324.25 C 238.570313 297.988281 248.449219 275.859375 253.929688 255.808594 Z M 237.78125 294.410156 L 237.132813 309.496094 C 230.488281 310.808594 223.65625 309.6875 217.195313 310.527344 L 226.371094 294.335938 C 230.019531 293.867188 234.132813 293.941406 237.78125 294.410156 Z M 244.902344 259.984375 C 244.191406 259.984375 243.257813 260.699219 242.683594 261.542969 C 241.925781 262.664063 242.660156 264.339844 242.234375 265.246094 C 241.664063 266.453125 224.414063 294.578125 216.914063 306.785156 C 218.359375 301.761719 221.042969 297.214844 223.945313 292.804688 C 226.503906 288.914063 254.628906 238.65625 254.628906 238.65625 L 255.667969 239.390625 C 252.484375 246.410156 248.554688 253.152344 244.902344 259.984375 Z M 236.761719 311.839844 L 235.449219 331.027344 C 228.054688 329.996094 219.722656 330.277344 212.144531 330.746094 L 215.886719 312.492188 C 222.15625 310.808594 229.738281 313.148438 236.761719 311.839844 Z M 235.441406 333.085938 C 234.691406 339.171875 234.226563 345.128906 233.757813 350.078125 C 225.617188 348.394531 215.089844 349.214844 207.902344 349.277344 C 208.609375 346.632813 211.863281 332.429688 211.863281 332.429688 C 219.722656 331.121094 227.671875 331.867188 235.441406 333.085938 Z M 233.695313 352.574219 L 231.425781 370.527344 C 224.226563 372.652344 217.246094 372.921875 209.980469 372.207031 C 208.929688 372.101563 202.253906 371.390625 202.253906 371.390625 L 207.027344 351.617188 C 210.957031 350.308594 230.886719 349.859375 233.695313 352.574219 Z M 231.40625 372.867188 C 230.675781 379.785156 229.273438 386.8125 228.335938 393.738281 C 218.789063 397.484375 206.519531 394.976563 196.035156 395.726563 L 201.753906 372.867188 C 211.207031 374.363281 222.046875 374.363281 231.40625 372.867188 Z M 228.054688 396.078125 C 226.652344 403.285156 225.339844 410.492188 223.9375 417.699219 C 217.171875 419.9375 205.871094 418.640625 202.234375 418.414063 C 197.363281 418.109375 192.492188 418.546875 187.621094 419.664063 C 190.136719 412.042969 192.777344 404.492188 195.667969 397.109375 C 206.621094 396.265625 217.851563 398.980469 228.054688 396.078125 Z M 184.757813 422.972656 C 182.230469 424.09375 179.382813 426.03125 178.164063 428.746094 C 171.613281 426.871094 164.96875 425.375 158.230469 424.066406 C 151.675781 415.828125 144.496094 408.265625 137.355469 399.824219 C 154.109375 404.128906 172.363281 404.785156 188.929688 409.558594 C 187.691406 414.277344 186.070313 418.289063 184.757813 422.972656 Z M 172.738281 440.914063 L 159.914063 426.125 C 165.996094 426.78125 171.613281 428.558594 177.136719 430.429688 Z M 174.796875 445.59375 C 173.269531 446.078125 172.710938 444.449219 174 443.746094 C 175.433594 442.964844 176.25 444.929688 174.796875 445.59375 Z M 171.425781 441.941406 C 168.339844 444.5625 162.347656 444.738281 157.949219 446.328125 C 158.035156 439.484375 158.136719 432.957031 158.230469 426.125 Z M 177.136719 448.964844 L 196.699219 464.5 C 166.839844 465.53125 136.328125 460.476563 108.714844 467.496094 C 110.339844 465.175781 112.179688 462.910156 114.144531 461.132813 C 135.390625 457.761719 156.449219 454.859375 177.136719 448.964844 Z M 158.945313 466.003906 C 170.460938 466.40625 199.039063 466.558594 199.039063 466.558594 L 210.457031 475.917969 C 209.242188 477.324219 188.421875 479.265625 180.816406 480.15625 C 152.203125 483.507813 122.824219 486.15625 94.207031 488.742188 C 98.792969 482.003906 102.574219 474.964844 108.136719 469.046875 C 123.078125 464.503906 141.632813 465.398438 158.945313 466.003906 Z M 201.378906 481.722656 C 200.253906 489.304688 199.007813 496.332031 197.054688 503.6875 L 183.875 504.5625 C 182.566406 502.863281 181.660156 501.804688 182.191406 499.507813 L 186.882813 483.183594 C 191.167969 482.648438 196.230469 481.910156 201.378906 481.722656 Z M 182.847656 505.589844 C 180.300781 506.203125 177.851563 503.886719 176.480469 502.59375 C 179.757813 501.566406 181.058594 503.726563 182.847656 505.589844 Z M 178.421875 507.703125 C 179.128906 507.003906 180.148438 506.773438 181.601563 507.570313 L 180.132813 515.042969 C 178.632813 515.324219 177.628906 514.835938 177.125 513.96875 C 176.621094 513.101563 177.714844 508.402344 178.421875 507.703125 Z M 181.75 517.976563 C 182.621094 514.355469 183.289063 510.886719 183.875 506.996094 C 187.621094 506.714844 192.769531 506.058594 196.324219 506.246094 C 195.574219 510.550781 194.214844 515.160156 193.328125 518.632813 C 196.695313 519.941406 200.609375 520.789063 204.746094 521.410156 C 205.226563 519.878906 205.996094 517.238281 205.996094 517.238281 C 211.070313 521.226563 215.699219 525.152344 220.941406 528.898438 L 220.347656 531.226563 C 200.765625 525.515625 181.210938 520.78125 162.140625 514.363281 C 161.523438 514.15625 161.628906 513.902344 162.308594 513.996094 C 168.734375 514.875 175.824219 516.285156 181.75 517.976563 Z M 206.808594 515.042969 L 207.835938 509.988281 L 222.554688 520.683594 C 222.3125 521.851563 221.644531 525.109375 221.316406 526.839844 Z M 222.855469 530.0625 L 238.074219 534.015625 C 237.925781 534.964844 237.789063 536.003906 237.789063 536.003906 L 222.480469 531.746094 Z M 223 528.148438 L 224.457031 521.5 L 228.710938 522.4375 C 229.179688 524.5 228.710938 528.710938 231.703125 529.179688 C 232.921875 527.398438 230.449219 525.308594 230.820313 522.875 C 233.535156 523.410156 236.105469 524.03125 238.820313 524.5 L 238.164063 531.894531 Z M 233.691406 521.347656 C 235.8125 520.878906 238.375 519.476563 239.585938 517.511719 C 239.816406 517.132813 239.945313 517.21875 239.867188 517.648438 C 239.542969 519.457031 239.378906 520.894531 239.101563 522.4375 Z M 238.089844 516.808594 C 235.683594 519.636719 232.078125 519.445313 232.078125 519.445313 C 234.65625 518.039063 237.789063 514.015625 237.414063 509.988281 C 238.046875 510.621094 239.730469 511.253906 239.902344 512.398438 C 240.09375 513.6875 239.28125 515.410156 238.089844 516.808594 Z M 238.007813 505.664063 L 239.472656 508.960938 C 238.445313 509.242188 236.851563 507.464844 236.761719 505.964844 Z M 236.105469 501.941406 L 237.414063 501.941406 L 237.789063 504.28125 C 236.808594 504.332031 236.105469 503.53125 236.105469 501.941406 Z M 239.101563 500.257813 L 238.445313 498.570313 C 239.566406 498.652344 241.347656 498.570313 241.8125 499.882813 C 241.160156 500.441406 240.183594 500.308594 239.101563 500.257813 Z M 236.761719 493.515625 L 242.46875 493.796875 C 242.375 494.359375 242.242188 494.828125 242.1875 495.480469 C 240.410156 494.828125 237.601563 495.667969 236.761719 493.515625 Z M 237.132813 499.882813 L 236.105469 499.882813 L 235.730469 497.542969 C 236.664063 497.824219 236.886719 498.695313 237.132813 499.882813 Z M 239.847656 504.5625 L 239.472656 501.941406 L 241.53125 501.941406 L 241.53125 504.5625 Z M 241.160156 508.304688 C 240.773438 507.628906 239.703125 505.910156 240.785156 505.964844 C 241.4375 506.527344 241.429688 507.265625 241.160156 508.304688 Z M 327.039063 508.695313 C 324.527344 506.453125 328.15625 504 329.179688 503.773438 C 330.933594 503.378906 333.003906 504.65625 333.449219 506.621094 C 333.375 508.183594 334.246094 509.332031 335.171875 510.441406 C 335.410156 510.730469 335.230469 510.847656 334.890625 510.757813 C 333.523438 510.386719 332.027344 511.300781 330.828125 511.675781 C 330.113281 510.550781 328.167969 509.703125 327.039063 508.695313 Z M 255.835938 517.246094 C 252.007813 517.074219 248.503906 518.15625 242.597656 511.292969 L 243.132813 505.964844 C 255.113281 505.871094 264.277344 506.246094 276.539063 506.621094 L 291.046875 518.039063 C 279.074219 518.605469 267.660156 517.78125 255.835938 517.246094 Z M 243.21875 504.5625 L 243.5 501.941406 C 257.351563 501.753906 270.925781 502.035156 284.308594 502.875 L 288.335938 504.9375 C 273.898438 505.285156 256.601563 504.65625 243.21875 504.5625 Z M 243.21875 487.058594 L 232.078125 487.058594 C 232.910156 483.699219 233.28125 480.328125 233.753906 477.664063 C 234.375 476.804688 241.628906 474.609375 244.152344 474.234375 Z M 233.765625 475.917969 C 235.074219 468.992188 236.003906 462.464844 237.96875 455.632813 C 241.347656 454.46875 243.871094 452.988281 246.867188 452.332031 C 246.378906 459.539063 244.902344 465.8125 244.152344 472.550781 C 241.371094 473.464844 236.945313 474.234375 233.765625 475.917969 Z M 246.214844 473.578125 C 263.085938 467.480469 414.132813 410.210938 431.167969 403.847656 C 434.1875 408.089844 437.53125 412.644531 440.621094 416.953125 C 411.304688 427.832031 282.296875 475.671875 256.320313 487.058594 L 245.183594 487.058594 Z M 441.574219 418.636719 C 441.574219 418.636719 448.605469 427.644531 451.757813 431.835938 C 442.023438 435.390625 314.109375 482.453125 307.105469 485.726563 C 293.195313 486 276.183594 486.355469 261.449219 486.996094 C 280.824219 478.199219 419.746094 426.746094 441.574219 418.636719 Z M 452.789063 432.863281 C 455.597656 435.859375 458.496094 439.414063 460.839844 442.972656 C 444.6875 450.832031 370.550781 479.160156 357.785156 484.414063 C 349.988281 484.898438 311.921875 485.746094 311.921875 485.746094 C 324.996094 480.574219 446.144531 436.046875 452.789063 432.863281 Z M 462.242188 444.28125 C 465.238281 447.933594 469.304688 451.949219 471.976563 455.703125 C 454.472656 461.785156 405.144531 481.347656 398.21875 484.0625 C 386.800781 484.15625 374.726563 483.78125 362.839844 484.34375 C 377.160156 478.632813 445.300781 452.613281 462.242188 444.28125 Z M 472.925781 456.730469 C 476.96875 460.457031 480.496094 465.4375 485.082031 468.246094 C 472.632813 473.484375 459.058594 476.386719 447.078125 482.660156 C 432.15625 482.734375 421.292969 483.457031 405.6875 483.992188 C 411.539063 480.597656 462.347656 460.570313 472.925781 456.730469 Z M 498.347656 473.796875 C 494.417969 473.046875 492.058594 470.898438 488.742188 468.753906 C 493.550781 466.613281 498.558594 464.21875 503.332031 462.441406 C 500.078125 465.992188 504.273438 471.449219 498.347656 473.796875 Z M 505.671875 458.136719 C 503.894531 460.757813 491.109375 465.941406 486.835938 467.21875 C 485.449219 466.324219 477.378906 459.351563 474.691406 456.078125 C 484.144531 451.675781 495.003906 450.179688 503.332031 442.972656 Z M 502.960938 441.289063 C 494.816406 448.777344 482.914063 449.367188 473.589844 454.828125 L 463.773438 443.472656 C 479.558594 434.617188 490.867188 434.3125 499.964844 424.066406 C 500.992188 429.773438 501.929688 435.484375 502.960938 441.289063 Z M 481.890625 433.359375 C 477.761719 434.902344 464.863281 441.289063 462.242188 441.941406 C 459.621094 438.855469 457.519531 435.777344 454.765625 432.414063 C 468.617188 422.773438 486.484375 422.566406 497.25 406.84375 C 497.902344 411.429688 498.464844 416.953125 499.589844 421.726563 C 495.140625 428.3125 488.550781 430.867188 481.890625 433.359375 Z M 497.25 404.503906 C 487.703125 419.386719 470.667969 421.632813 456.8125 429.121094 L 453.816406 430.804688 C 450.167969 426.96875 446.800781 422.421875 443.335938 417.980469 C 449.59375 415.371094 491.390625 399.570313 494.535156 392.429688 Z M 494.253906 389.996094 C 484.691406 401.148438 464.113281 407.777344 442.023438 416.671875 L 432.851563 403.472656 C 438.003906 400.429688 444.261719 399.078125 450.054688 396.867188 C 451.207031 396.425781 480.773438 385.914063 490.882813 374.550781 Z M 490.136719 372.210938 C 484.464844 383.710938 445.1875 396.753906 431.539063 401.789063 L 421.808594 388.683594 C 435.730469 383.386719 477.222656 367.054688 486.765625 355.363281 Z M 486.414063 353.226563 C 479.890625 364.847656 429.480469 384.660156 420.777344 387.375 L 410.296875 372.492188 C 429.21875 365.863281 478.828125 347.21875 483.769531 340.480469 C 484.972656 345.589844 485.664063 348.828125 486.414063 353.226563 Z M 478.714844 319.980469 L 483.394531 338.140625 C 476.246094 347.363281 423.59375 366.835938 409.191406 370.742188 C 405.539063 365.40625 402.019531 361.105469 398.21875 355.363281 C 413.851563 349.464844 432.601563 342.324219 448.140625 336.144531 C 473.734375 326.421875 478.714844 319.980469 478.714844 319.980469 Z M 478.011719 318.332031 C 477.617188 320.78125 462.359375 328.507813 457.699219 330.558594 C 440.210938 338.253906 397.191406 353.960938 397.191406 353.960938 C 393.511719 348.675781 390.304688 343.6875 386.050781 337.484375 C 415.816406 326.8125 447.640625 320.449219 474.035156 302.386719 C 475.550781 307.589844 476.753906 313.835938 478.011719 318.332031 Z M 473.660156 300.421875 C 461.476563 308.894531 448.691406 314.824219 435.445313 319.765625 C 425.285156 323.550781 385.03125 335.640625 385.03125 335.640625 C 381.007813 330.308594 377.910156 324.984375 373.601563 318.953125 C 394.535156 312.777344 420.175781 304.589844 446.621094 294.984375 C 458.128906 290.808594 469.261719 282.167969 469.261719 282.167969 C 471.546875 288.722656 472.390625 293.46875 473.660156 300.421875 Z M 468.605469 278.796875 C 467.023438 286.234375 442.332031 295.0625 428.21875 300.128906 C 423.519531 301.8125 386.238281 313.804688 372.574219 317.269531 C 369.109375 311.277344 364.710938 305.660156 361.152344 299.765625 C 380.1875 294.542969 399.769531 289.808594 419.195313 284.546875 C 432.488281 280.949219 451.089844 276.214844 464.425781 264.519531 Z M 463.925781 262.699219 C 453.59375 273.125 430.550781 279.675781 424.214844 281.296875 C 405.996094 285.960938 367.359375 296.398438 360.050781 297.859375 C 356.183594 291.910156 353.878906 286.964844 350.296875 280.855469 C 360.03125 278.050781 399.472656 267.222656 409.015625 264.53125 C 426.285156 259.664063 443.246094 253.992188 458.496094 244.164063 Z M 457.84375 242.480469 C 440.984375 254.03125 421.539063 259.421875 402.082031 264.726563 C 396.152344 266.339844 360.871094 276.644531 349.359375 279.171875 L 338.222656 261.296875 C 355.890625 256.835938 408.464844 242.445313 415.761719 240.390625 C 427.804688 237 446.621094 229.269531 453.070313 222.917969 C 454.773438 229.691406 456.234375 235.835938 457.84375 242.480469 Z M 452.414063 220.859375 C 441.503906 231.128906 416.972656 238.625 411.070313 239.976563 C 386.203125 245.664063 362.714844 253.730469 337.566406 259.609375 C 333.074219 253.339844 328.769531 246.320313 325.023438 239.390625 C 350.953125 231.8125 407.503906 217.539063 408.964844 217.230469 C 422.425781 214.375 435.898438 210.976563 446.703125 202.699219 Z M 446.328125 200.359375 C 441.003906 205.5625 421.226563 214.011719 411.222656 215.050781 C 409.359375 215.242188 341.984375 232.878906 324.371094 237.996094 C 321.753906 233.265625 319.886719 229.285156 316.601563 223.949219 C 318.910156 220.894531 321.492188 218.734375 323.472656 216.683594 C 329.371094 214.347656 368.199219 204.621094 380.785156 201.398438 C 402.667969 195.796875 430.421875 189.566406 440.339844 180.425781 Z M 439.75 178.445313 C 428.671875 187.589844 414.851563 190.695313 401.113281 194.164063 C 395.582031 195.5625 327.898438 213.03125 325.773438 214.121094 L 354.414063 185.476563 C 372.097656 176.925781 391.035156 173.015625 410.113281 168.648438 C 419.945313 166.394531 425.980469 164.390625 434.910156 159.925781 C 436.65625 166.28125 438.894531 173.707031 439.75 178.445313 Z M 430.886719 145.417969 C 432.257813 149.621094 433.289063 153.507813 434.535156 157.492188 C 426.335938 163.519531 416.980469 165.296875 407.511719 167.261719 C 398.308594 169.171875 373.402344 175.535156 357.410156 182.484375 L 389.796875 150.472656 C 398.78125 147.851563 419.800781 141.597656 421.308594 141.191406 C 422.238281 140.941406 423.179688 140.957031 424.148438 141.671875 C 425.925781 144.011719 428.171875 145.230469 430.886719 145.417969 Z M 392.136719 148.132813 C 396.71875 143.617188 400.144531 138.132813 403.867188 139.914063 C 406.585938 141.214844 409.421875 140.269531 413.710938 139.09375 C 416.046875 138.453125 418.371094 138.121094 421.058594 139.332031 C 418.15625 140.738281 392.136719 148.132813 392.136719 148.132813 Z M 417.035156 111.066406 C 422.054688 107.332031 422.851563 103.066406 423.945313 98.585938 C 426.171875 89.46875 428.546875 88.414063 428.546875 88.414063 C 426.367188 95.4375 427.625 104.84375 423.492188 109.382813 L 369.410156 162.921875 C 365.382813 164.042969 363.472656 164.378906 359.886719 165.265625 C 356.613281 162.976563 353.621094 164.75 353.664063 166.945313 C 334.199219 172.46875 313.886719 177.054688 294.417969 181.828125 C 335.414063 159.550781 376.316406 133.90625 417.035156 111.066406 Z M 351.699219 169.285156 C 335.507813 179.394531 318.441406 188.761719 301.96875 198.589844 C 299.101563 193.992188 296.382813 189.222656 293.011719 184.449219 C 295.84375 182.910156 337.410156 173.515625 351.699219 169.285156 Z M 291.035156 185.1875 L 300.128906 199.613281 C 297.605469 201.035156 286.441406 207.917969 284.160156 208.589844 C 281.835938 209.238281 279.238281 208.519531 275.082031 205.703125 L 278.597656 189.222656 C 283.15625 187.140625 286.449219 184.53125 291.035156 185.1875 Z M 284.152344 171.71875 C 281.914063 173.234375 284.484375 175.339844 285.429688 176.265625 C 286.546875 177.359375 287.675781 178.699219 288.335938 180.425781 C 289.15625 183.128906 282.4375 185.289063 279.253906 186.882813 C 280.472656 181.546875 280.472656 175.742188 283.277344 170.96875 Z M 277.851563 167.320313 L 281.21875 167.976563 C 275.882813 187.070313 272.984375 207.195313 268.117188 226.570313 L 264.371094 225.765625 C 268.394531 206.109375 272.421875 186.132813 277.851563 167.320313 Z M 237.414063 226.941406 C 238.539063 227.007813 239.851563 227.074219 240.722656 226.445313 C 242.148438 225.417969 240.785156 222.542969 240.785156 222.542969 C 252.203125 207.195313 262.59375 191.46875 272.796875 175.742188 L 261.75 225.257813 C 259.988281 224.867188 257.464844 224.738281 256.292969 226.335938 C 255.484375 227.4375 255.0625 229.867188 256.695313 230.382813 L 259.683594 231.039063 C 259.480469 232.007813 259.316406 232.652344 259.035156 233.308594 C 257.351563 232.183594 253.390625 233.609375 253.328125 236.398438 C 243.3125 258.113281 230.769531 279.078125 218.226563 299.390625 C 219.632813 295.550781 228.421875 252.789063 231.425781 234.058594 Z M 228.710938 237.707031 L 223.9375 266.066406 C 218.578125 265.503906 213.078125 264.289063 207.464844 264.007813 C 215.046875 255.773438 221.316406 246.320313 228.710938 237.707031 Z M 206.808594 265.039063 C 212.050781 266.066406 218.09375 267.148438 223.429688 268.179688 C 223.429688 268.179688 220.628906 284.027344 218.226563 291.339844 C 209.054688 290.121094 199.414063 285.722656 188.929688 286.941406 Z M 187.898438 288.625 C 198.570313 287.691406 208.117188 291.246094 217.945313 293.304688 L 213.839844 313.828125 C 201.296875 309.164063 184.53125 305.378906 171.425781 307.160156 C 176.199219 300.421875 182.285156 294.429688 187.898438 288.625 Z M 168.714844 309.871094 C 179.664063 306.035156 191.832031 309.40625 202.035156 312.214844 L 213.546875 315.582031 L 209.148438 337.109375 C 199.921875 334.996094 190.160156 334.105469 181.25 331.113281 C 176.28125 329.449219 164.257813 325.839844 152.894531 328.40625 Z M 150.835938 330.371094 C 170.863281 326.8125 189.183594 336.394531 208.558594 339.390625 L 203.21875 360.34375 C 193.378906 358.882813 183.824219 356.261719 174.015625 354.199219 C 165.980469 352.507813 141.808594 347.921875 132.675781 349.558594 C 139.34375 342.648438 144.75 336.828125 150.835938 330.371094 Z M 130.335938 352.273438 C 139.167969 349.976563 155.171875 352.574219 163.542969 354.132813 C 168.121094 354.984375 195.515625 360.769531 202.628906 362.457031 C 201.074219 369.652344 198.757813 377.453125 196.980469 384.941406 C 188.292969 383.464844 179.960938 381.066406 171.472656 379.0625 C 166.285156 377.839844 139.214844 372.222656 124 371.007813 C 117.039063 370.449219 112.085938 371.835938 112.085938 371.835938 Z M 166.492188 379.898438 C 176.546875 381.960938 186.246094 384.480469 196.324219 387 C 194.734375 393.925781 192.828125 401.070313 189.960938 407.21875 C 172.457031 404.597656 153.550781 401.421875 135.671875 397.773438 C 127.152344 389.441406 119.386719 379.699219 109.742188 374.175781 C 122.6875 370.265625 152.882813 377.105469 166.492188 379.898438 Z M 108.578125 374.988281 C 116.90625 380.886719 126.582031 390.105469 133.988281 398.136719 C 134.921875 416.390625 135.390625 437.824219 132.300781 456.078125 C 125.519531 457.726563 118.167969 458.253906 111.054688 459.820313 C 114.574219 439.789063 107.976563 418.476563 109.078125 397.808594 C 109.339844 392.921875 109.492188 385.964844 104.691406 379.605469 C 106.308594 377.449219 107.417969 376.582031 108.578125 374.988281 Z M 103.378906 380.914063 C 107.328125 386.636719 107.53125 393.371094 107.417969 400.304688 C 107.21875 412.070313 112.453125 451.207031 109.011719 460.09375 C 109.011719 460.09375 94.164063 462.59375 86.8125 463.472656 C 89.503906 455.390625 86.835938 432.128906 86.222656 420.347656 C 85.890625 413.992188 85.449219 407.429688 81.757813 402.816406 Z M 80.449219 404.222656 C 84.6875 409.632813 84.359375 416.925781 84.820313 422.519531 C 85.976563 436.46875 87.710938 459.070313 84.847656 463.84375 L 62.570313 467.214844 C 65.460938 456.59375 62.949219 444.660156 61.832031 433.515625 C 61.367188 428.910156 59.199219 425.75 59.199219 425.75 Z M 57.515625 427.433594 C 60.117188 428.6875 60.453125 432.785156 60.542969 435.261719 C 60.9375 445.816406 64.34375 458.195313 60.230469 467.496094 L 40.011719 470.585938 C 39.355469 464.125 42.464844 455.65625 37.953125 448.683594 C 44.128906 441.382813 50.496094 433.988281 57.515625 427.433594 Z M 36.269531 449.710938 C 40.199219 455.328125 38.703125 463.84375 37.671875 470.585938 C 35.683594 471.070313 30.273438 471.589844 27.1875 471.894531 C 28.78125 468.339844 28.5 463.191406 25.878906 460.101563 Z M 10.996094 476.292969 C 29.058594 473.859375 105.34375 462.816406 109.742188 462.160156 L 86.8125 494.828125 C 60.324219 490.707031 33.554688 485.652344 6.972656 480.972656 Z M 3.601563 483.6875 L 3.976563 482.660156 C 14.679688 484.839844 91.289063 497.722656 104.996094 500.007813 C 127.699219 503.792969 150.40625 507.566406 173.109375 511.300781 C 174.046875 508.867188 174.515625 506.246094 174.796875 503.625 C 175.566406 504.304688 176.105469 504.65625 176.761719 505.308594 C 175.722656 508.257813 175.640625 510.832031 175.078125 513.734375 C 164.226563 512.636719 132.0625 507.023438 104.40625 502.21875 C 87.210938 499.230469 13.242188 486.871094 3.601563 483.6875 Z M 99.550781 506.871094 C 116.578125 508.949219 138.445313 531.53125 143.441406 547.429688 C 125.28125 534.140625 106.9375 516.355469 88.496094 501.191406 C 94.820313 502.246094 94.402344 506.308594 99.550781 506.871094 Z M 8 488.742188 L 8 487.433594 C 8 487.433594 67.839844 497.515625 85.78125 500.910156 C 85.78125 500.910156 125.230469 535.195313 144.75 551.082031 L 145.5 553.140625 C 98.792969 532.359375 54.144531 510.085938 8 488.742188 Z M 181.390625 558.738281 C 179.898438 559.363281 178.070313 557.210938 176.316406 560.160156 C 174.417969 562.308594 170.511719 560.359375 169.328125 560.726563 C 166.589844 561.570313 164.246094 562.589844 163.65625 557.820313 C 162.628906 556.226563 160.941406 556.671875 159.632813 557.539063 C 158.414063 558.476563 159.164063 560.160156 157.574219 560.910156 C 155.796875 561.28125 154.390625 560.253906 153.550781 559.222656 C 155.464844 557.394531 156.816406 550.046875 160.46875 553.5 C 162.261719 555.195313 164.355469 555.546875 167.371094 555.1875 C 169.382813 554.949219 170.910156 553.820313 172.082031 555.269531 C 173.839844 557.683594 176.785156 557.332031 177.789063 556.136719 C 178.378906 555.121094 179.179688 554.652344 180.003906 554.667969 C 181.578125 554.691406 183.796875 557.738281 181.390625 558.738281 Z M 198.382813 557.539063 C 195.589844 556.980469 192.53125 558.925781 190.113281 558.390625 C 187.308594 557.769531 187.28125 556.117188 190.046875 556.140625 C 192.640625 556.160156 195.15625 556 196.699219 553.140625 C 198.980469 553.519531 199.984375 557.234375 198.382813 557.539063 Z M 259.78125 561.710938 C 256.753906 563.199219 255.390625 562.183594 252.117188 560.289063 C 250.742188 559.492188 249.386719 558.640625 247.898438 559.222656 C 245.613281 562.035156 240.980469 561.910156 237.648438 560.902344 C 236.863281 560.664063 230.039063 565.917969 224.683594 560.160156 C 222.816406 557.898438 220.097656 556.882813 217.570313 557.539063 C 216.980469 560.253906 214.941406 560.140625 212.878906 559.640625 C 211.671875 559.347656 208.015625 557.554688 206.152344 557.820313 L 205.402344 559.503906 C 203.046875 560.535156 201.003906 558.882813 202.734375 557.191406 C 204.785156 555.195313 205.683594 557.628906 210.175781 555.855469 C 212.3125 554.867188 215.253906 557.714844 217.675781 556.296875 C 220.117188 554.863281 226.839844 553.988281 230.675781 556.789063 C 235.851563 555.300781 241.601563 550.683594 246.539063 554.886719 C 249.125 557.085938 251.503906 554.902344 253.933594 557.144531 C 256.839844 559.828125 261.503906 556.238281 264.089844 560.160156 C 262.683594 560.121094 261.238281 560.996094 259.78125 561.710938 Z M 394.851563 568.957031 C 389.78125 571.777344 386.109375 573.3125 384.011719 570.417969 C 382.71875 568.632813 380.53125 569.335938 378.542969 569.761719 C 374.164063 570.695313 372.984375 567.253906 375.933594 565.917969 C 377.863281 565.042969 380.855469 564.949219 383.023438 566.296875 C 385.941406 568.109375 388.84375 567.734375 390.476563 566.238281 C 391.351563 565.441406 392.21875 564.667969 393.445313 565.589844 C 396.144531 567.28125 399.613281 565.785156 399.847656 565.605469 C 404.0625 562.355469 409.265625 569.613281 409.265625 569.613281 C 405.878906 567.941406 399.0625 572.609375 394.851563 568.957031 Z M 455.128906 536.949219 C 456.351563 540.078125 457.574219 544.519531 456.355469 547.929688 C 454.898438 552 447.960938 556.203125 442.023438 560.160156 C 437.0625 557.632813 427.746094 564.363281 427.519531 564.542969 C 426.253906 565.535156 424.707031 565.507813 423.269531 565.066406 C 418.367188 563.5625 415.320313 564.398438 406.925781 564.933594 C 404.035156 562.59375 401.144531 562.660156 399.175781 563.894531 C 397.410156 565.003906 395.726563 565.476563 394.730469 564.363281 C 393.796875 563.320313 392.09375 562.808594 390.730469 563.53125 C 389.046875 564.558594 387.644531 566.992188 385.398438 565.589844 C 381.398438 562.976563 374.238281 563.148438 372.199219 566.617188 C 365.367188 568.863281 357.410156 566.710938 350.296875 565.964844 C 338.816406 564.730469 323.527344 568.117188 313.230469 563.25 C 303.402344 565.589844 295.386719 560.835938 285.742188 561.675781 C 281.523438 562.125 273.007813 559.160156 272.738281 559.011719 C 268.933594 556.914063 259.941406 556.328125 259.566406 556.363281 C 255.324219 556.726563 252.253906 551.902344 247.523438 553.796875 C 242.277344 549.328125 238.320313 551.53125 233.847656 553.910156 C 231.949219 554.917969 229.933594 555.582031 227.679688 554.167969 C 223.84375 551.734375 216.140625 555.015625 215.941406 555.179688 C 215.214844 555.78125 214.515625 555.414063 213.789063 554.90625 C 212.214844 553.808594 210.300781 553.722656 208.410156 554.71875 C 207.628906 555.132813 206.828125 555.433594 205.984375 555.0625 C 203.996094 554.195313 203.03125 554.945313 200.347656 556.789063 C 201.003906 555.386719 199.601563 552.578125 197.730469 551.457031 C 195.300781 550.316406 194.453125 553.796875 192.675781 554.449219 C 185.605469 552.335938 185.933594 557.164063 185.933594 557.164063 C 184.765625 557.070313 184.25 556.226563 183.734375 555.328125 C 181.820313 551.976563 178.90625 552.632813 176.992188 554.265625 C 176.246094 554.902344 175.414063 555.371094 174.421875 555.480469 C 173.019531 551.082031 169.367188 555.761719 167.402344 552.484375 C 166.523438 550.90625 162.171875 553.695313 160.355469 551.765625 C 158.300781 549.578125 156.144531 551.574219 153.769531 554.710938 C 152.535156 556.34375 151.28125 557.636719 149.148438 556.507813 C 145.269531 538.101563 132.433594 519.785156 115.078125 510.941406 C 114.429688 510.609375 114.585938 510.367188 115.320313 510.5625 C 130.179688 514.53125 144.6875 520.730469 158.605469 527.867188 C 159.820313 527.304688 160.148438 525.320313 159.257813 524.777344 C 140.09375 514.410156 125.484375 510.246094 101.613281 504.828125 C 99.878906 504.433594 99.902344 504.226563 101.710938 504.523438 C 119.492188 507.464844 147.390625 514.058594 158.230469 520.472656 C 158.914063 518.996094 158.769531 517.917969 158.125 517.441406 C 157.84375 517.148438 154.230469 515.472656 150.253906 513.816406 C 147.175781 512.53125 147.621094 512.480469 150.5625 513.390625 C 178.613281 522.671875 237.636719 538.972656 249.023438 542.007813 C 290.621094 553.09375 388.714844 570.351563 440.851563 548.292969 C 444.761719 546.640625 454.824219 541.679688 455.128906 536.949219 Z M 446.394531 528.449219 C 452.714844 532.199219 455.496094 535.417969 448.238281 540.769531 C 431.601563 553.035156 392.453125 558.65625 342.921875 554.925781 C 307.984375 552.292969 267.179688 543.589844 239.847656 536.574219 L 239.996094 534.460938 C 275.890625 541.480469 312.539063 549.648438 350.390625 551.546875 C 372.828125 552.671875 401.070313 551.929688 423.492188 544.996094 C 424.285156 542.734375 425.523438 540.050781 424.699219 537.914063 C 424.570313 537.578125 421.765625 535.273438 420.121094 534.316406 C 420.769531 533.671875 421.433594 533.015625 422.089844 532.265625 C 426.199219 533.046875 425.457031 528.898438 425.457031 528.898438 L 431.914063 522.8125 C 437.226563 523.847656 442.125 525.917969 446.394531 528.449219 Z M 435.039063 516.695313 C 434.433594 517.269531 434.9375 516.507813 434.9375 516.507813 L 453.816406 495.480469 L 454.753906 496.511719 C 449.085938 503.296875 441.839844 510.242188 435.039063 516.695313 Z M 455.128906 491.082031 C 446.984375 500.910156 438.65625 509.804688 430.230469 519.445313 C 418.0625 517.199219 407.960938 519.25 396.15625 520.472656 C 394.222656 519.492188 392.988281 518.371094 391.480469 518.414063 L 379.3125 518.039063 C 378.46875 516.542969 377.246094 515.125 375.570313 514.015625 C 376.691406 511.488281 379.074219 508.992188 377.253906 505.964844 C 375.476563 503.0625 372.386719 500.429688 368.828125 502.222656 C 363.867188 504.714844 365.554688 510.550781 366.210938 515.042969 C 366.34375 515.472656 366.675781 515.886719 367.144531 515.699219 C 367.050781 516.542969 366.113281 517.105469 365.460938 517.757813 C 354.5625 518.027344 344.773438 515.511719 334.199219 515.042969 L 334.199219 512.703125 C 336.210938 514.046875 337.347656 513.484375 338.503906 512.332031 C 334.226563 509.679688 335.578125 501.554688 330.128906 501.675781 C 324.789063 501.792969 324.03125 506.257813 324.742188 511.675781 C 325.023438 512.332031 325.492188 512.890625 325.398438 513.734375 C 324.839844 513.359375 323.296875 512.726563 322.546875 513.660156 L 296.101563 510.363281 C 293.667969 509.699219 292.453125 508.773438 293.011719 505.589844 C 288.757813 501.390625 283.964844 500.59375 278.722656 500.527344 C 274.96875 500.480469 243.871094 500.257813 243.871094 500.257813 L 244.527344 493.515625 C 278.785156 492.488281 444.4375 487.410156 461.214844 487.058594 C 460.898438 487.382813 458.03125 491.925781 455.128906 491.082031 "/>
</g>
</svg>
