<?xml version="1.0" encoding="UTF-8"?>
<svg xmlns="http://www.w3.org/2000/svg" xmlns:xlink="http://www.w3.org/1999/xlink" width="543pt" height="136pt" viewBox="0 0 543 136" version="1.1">
<g id="surface1">
<path style=" stroke:none;fill-rule:nonzero;fill:rgb(0%,0%,0%);fill-opacity:1;" d="M 136.019531 49.765625 C 112.292969 49.765625 93.0625 69 93.0625 92.722656 C 93.0625 116.449219 112.292969 135.679688 136.019531 135.679688 C 159.742188 135.679688 178.972656 116.449219 178.972656 92.722656 C 178.972656 69 159.742188 49.765625 136.019531 49.765625 Z M 136.1875 121.859375 C 119.878906 121.859375 106.65625 108.640625 106.65625 92.328125 C 106.65625 76.019531 119.878906 62.796875 136.1875 62.796875 C 152.5 62.796875 165.71875 76.019531 165.71875 92.328125 C 165.71875 108.640625 152.5 121.859375 136.1875 121.859375 "/>
<path style=" stroke:none;fill-rule:nonzero;fill:rgb(0%,0%,0%);fill-opacity:1;" d="M 136.1875 68.410156 C 122.980469 68.410156 112.269531 79.117188 112.269531 92.328125 C 112.269531 105.539063 122.980469 116.25 136.1875 116.25 C 149.398438 116.25 160.109375 105.539063 160.109375 92.328125 C 160.109375 79.117188 149.398438 68.410156 136.1875 68.410156 Z M 131.191406 70.832031 L 140.308594 70.472656 C 141.28125 70.617188 141.015625 72.054688 141.015625 72.054688 L 140.050781 80.25 C 135.378906 78.460938 131.371094 80.671875 131.371094 80.671875 C 130.929688 79.496094 130.292969 72.3125 130.292969 72.3125 C 130.21875 71.21875 131.191406 70.832031 131.191406 70.832031 Z M 114.617188 92.277344 C 113.550781 92.007813 113.484375 90.964844 113.484375 90.964844 L 115.960938 82.183594 C 116.398438 81.300781 117.683594 82 117.683594 82 L 125.179688 85.449219 C 122.035156 89.339844 122.898438 93.835938 122.898438 93.835938 C 121.644531 93.890625 114.617188 92.277344 114.617188 92.277344 Z M 129.082031 112.410156 C 128.5 113.339844 127.484375 113.082031 127.484375 113.082031 L 119.898438 108.015625 C 119.195313 107.324219 120.257813 106.316406 120.257813 106.316406 L 125.851563 100.253906 C 128.578125 104.445313 133.125 105.015625 133.125 105.015625 C 132.789063 106.226563 129.082031 112.410156 129.082031 112.410156 Z M 124.75 92.328125 C 124.75 86.011719 129.871094 80.890625 136.1875 80.890625 C 142.507813 80.890625 147.628906 86.011719 147.628906 92.328125 C 147.628906 98.648438 142.507813 103.769531 136.1875 103.769531 C 129.871094 103.769531 124.75 98.648438 124.75 92.328125 Z M 153.4375 106.871094 L 146.273438 112.519531 C 145.402344 112.976563 144.773438 111.65625 144.773438 111.65625 L 140.734375 104.457031 C 145.566406 103.160156 147.507813 99.011719 147.507813 99.011719 C 148.558594 99.707031 153.292969 105.144531 153.292969 105.144531 C 153.996094 105.984375 153.4375 106.871094 153.4375 106.871094 Z M 155.1875 80.699219 L 158.347656 89.257813 C 158.511719 90.230469 157.0625 90.421875 157.0625 90.421875 L 148.96875 92.035156 C 149.226563 87.039063 145.882813 83.910156 145.882813 83.910156 C 146.867188 83.125 153.503906 80.304688 153.503906 80.304688 C 154.519531 79.894531 155.1875 80.699219 155.1875 80.699219 "/>
<path style=" stroke:none;fill-rule:nonzero;fill:rgb(0%,0%,0%);fill-opacity:1;" d="M 136.1875 85.574219 C 132.460938 85.574219 129.433594 88.597656 129.433594 92.328125 C 129.433594 96.058594 132.460938 99.085938 136.1875 99.085938 C 139.921875 99.085938 142.945313 96.058594 142.945313 92.328125 C 142.945313 88.597656 139.921875 85.574219 136.1875 85.574219 Z M 136.1875 96.316406 C 133.984375 96.316406 132.199219 94.53125 132.199219 92.328125 C 132.199219 90.125 133.984375 88.339844 136.1875 88.339844 C 138.390625 88.339844 140.179688 90.125 140.179688 92.328125 C 140.179688 94.53125 138.390625 96.316406 136.1875 96.316406 "/>
<path style=" stroke:none;fill-rule:nonzero;fill:rgb(0%,0%,0%);fill-opacity:1;" d="M 541.640625 71.210938 L 542.570313 54.972656 L 537.746094 54.402344 L 538.023438 46.160156 C 538.171875 44.378906 538.203125 42.644531 537.339844 42.238281 C 531.09375 39.78125 524.113281 38.859375 517.617188 36.660156 L 463.820313 22.902344 C 448.4375 19.171875 433.558594 15.433594 418.054688 12.589844 C 416.523438 11.722656 417.132813 9.6875 415.347656 8.949219 C 404.417969 6.679688 393.878906 5.421875 382.949219 3.152344 C 381.820313 4.054688 381.582031 5.199219 380.316406 5.34375 C 344.640625 0.859375 304.410156 -2.679688 267.601563 3.496094 C 246.507813 9.347656 225.289063 15.195313 204.980469 22.9375 C 195.019531 27.121094 184.671875 30.675781 175.097656 35.488281 C 105.8125 36.179688 37.117188 50.890625 2.757813 73.226563 C 0.542969 74.667969 -0.0703125 77.136719 2.964844 79.238281 C 7 82.035156 13.875 86.5 17.203125 88.351563 C 39.546875 100.738281 92.640625 107.363281 93.992188 107.265625 C 92.398438 102.648438 91.5625 97.75 91.5625 92.722656 C 91.5625 80.847656 96.183594 69.683594 104.582031 61.289063 C 112.980469 52.890625 124.144531 48.265625 136.019531 48.265625 C 147.890625 48.265625 159.054688 52.890625 167.453125 61.289063 C 175.851563 69.683594 180.472656 80.847656 180.472656 92.722656 C 180.472656 99.824219 178.789063 106.539063 175.816406 112.5 C 176.847656 112.257813 178.011719 112.867188 178.878906 112.636719 C 179.785156 113.894531 181.921875 112.597656 183.203125 113.597656 C 191.683594 112.726563 409.910156 113.421875 413.835938 113.117188 C 418.617188 111.230469 417.6875 110.050781 418.078125 109.128906 C 415.9375 103.871094 414.8125 98.195313 414.8125 92.347656 C 414.8125 80.472656 419.433594 69.308594 427.832031 60.914063 C 436.230469 52.515625 447.394531 47.890625 459.269531 47.890625 C 471.140625 47.890625 482.304688 52.515625 490.703125 60.914063 C 499.101563 69.308594 503.722656 80.472656 503.722656 92.347656 C 503.722656 97.765625 502.746094 102.957031 500.96875 107.761719 C 500.988281 107.734375 501.007813 107.707031 501.03125 107.683594 C 505.875 103.515625 510.046875 108.125 515.105469 107.425781 C 518.878906 105.09375 517.804688 100.417969 520.804688 97.210938 C 523.964844 96.535156 527.269531 97.253906 530.566406 97.210938 C 536.769531 96.625 532.246094 89.710938 536.007813 86.621094 C 539.542969 85.433594 540.253906 81.621094 540.722656 78.574219 C 539.070313 78.46875 537.152344 76.972656 535.640625 77.753906 C 534.984375 75.988281 535.96875 73.820313 536.199219 71.914063 C 538.21875 71.382813 541.640625 71.210938 541.640625 71.210938 Z M 217.394531 21.097656 C 235.941406 14.589844 254.332031 9.378906 257.527344 8.695313 C 237.003906 19.355469 215.578125 29.011719 195.191406 40.554688 C 189.972656 38.722656 184.507813 37.523438 179.164063 36.070313 C 180.96875 35.109375 199.273438 27.457031 217.394531 21.097656 Z M 180.234375 107.566406 C 180.234375 107.566406 183.90625 93.875 180.664063 79.785156 C 177.046875 64.054688 161.054688 46.714844 134.734375 46.878906 C 113.664063 47.011719 99.707031 61.691406 94.476563 72.347656 C 87.085938 87.410156 90.769531 103.941406 90.769531 103.941406 C 90.769531 103.941406 58.609375 100.25 34.398438 91.585938 C 31.410156 90.515625 28.632813 89.386719 26.070313 88.246094 C 16.8125 84.117188 10.429688 80.046875 7.441406 77.855469 C 6.125 77.0625 5.535156 76.5 5.519531 76.152344 C 5.5 75.8125 6.136719 75.527344 7.417969 74.671875 C 10.269531 72.765625 16.402344 69.15625 26.292969 64.71875 C 47.539063 55.191406 86.144531 42.527344 146.894531 38.347656 C 162.375 37.285156 175.144531 37.597656 175.144531 37.597656 L 195.894531 44.597656 C 195.894531 44.597656 193.347656 52.882813 192.472656 56.605469 C 188.058594 75.441406 197.894531 107.792969 197.894531 107.792969 Z M 200.519531 107.722656 C 200.519531 107.722656 197.894531 102.691406 196.019531 94.066406 C 194.183594 85.621094 193.769531 78.847656 193.769531 78.847656 L 333.234375 78.785156 C 330.703125 88.910156 312.828125 107.253906 310.203125 107.628906 C 307.578125 108.003906 200.519531 107.722656 200.519531 107.722656 Z M 415.019531 107.722656 L 313.242188 107.722656 C 313.242188 107.722656 329.800781 95.441406 334.859375 78.753906 L 414.753906 78.753906 C 414.753906 78.753906 409.769531 92.160156 415.019531 107.722656 Z M 415.039063 77.0625 C 413.535156 77.039063 346.65625 77.308594 335.242188 77.074219 C 340.59375 62.335938 335.164063 42.9375 335.164063 42.9375 C 341.617188 41.839844 349.089844 41.238281 355.671875 40.519531 C 362.121094 39.546875 368.699219 38.578125 374.898438 37.609375 C 378.921875 35.023438 382.929688 31.042969 383.625 26.089844 C 384.554688 19.484375 380.6875 14.464844 375.824219 10.976563 C 376.050781 10.449219 357.28125 7.53125 337.019531 6.472656 C 313.414063 5.242188 287.789063 5.898438 287.789063 5.898438 C 287.789063 5.898438 274.761719 8.09375 272.492188 9.140625 C 258.503906 15.53125 244.25 21.035156 230.78125 28.4375 C 222.226563 33.488281 212.832031 37.332031 205.386719 44.605469 L 207.425781 45.59375 C 249.644531 46.066406 292.492188 46.527344 333.394531 43.085938 C 336.882813 53.410156 337.042969 67.902344 333.605469 77.070313 C 286.578125 77.167969 240.058594 77.839844 193.402344 77.171875 C 192.5625 63.574219 194.324219 51.628906 199.519531 41.765625 C 200.511719 40.234375 202.398438 39.070313 204.035156 38.285156 C 225.457031 28.25 246.222656 16.703125 267.648438 7.046875 C 269.617188 2.328125 343.894531 2.261719 375.378906 5.785156 C 381.726563 6.59375 388.074219 7.398438 394.054688 9.097656 C 423.46875 41.746094 414.820313 69.96875 415.039063 77.0625 Z M 268.628906 14.132813 C 277.339844 11.359375 287.3125 8.3125 296.953125 8.824219 C 303.832031 8.5 327.632813 9.191406 339.304688 9.925781 C 336.90625 20.730469 332.214844 30.425781 329.945313 41.230469 C 303.613281 43.851563 277.109375 42.921875 252.152344 44.132813 C 257.222656 34.308594 262.925781 24.09375 268.628906 14.132813 Z M 246.070313 44.066406 C 233.90625 44.601563 223.253906 43.980469 211.203125 43.5 L 211.195313 42.867188 C 211.195313 42.867188 233.667969 27.832031 263.464844 16.589844 Z M 343.988281 9.484375 C 352.105469 9.761719 370.644531 12.3125 371.804688 13.691406 C 370.378906 21.316406 368.703125 28.816406 367.152344 36.441406 C 357.171875 38.851563 345.019531 40.277344 334.125 40.796875 C 337.410156 30.359375 340.0625 19.679688 343.988281 9.484375 Z M 375.226563 13.773438 C 378.542969 15.253906 380.492188 19.03125 380.535156 22.453125 C 381.347656 26.371094 379.617188 29.816406 376.992188 32.640625 C 375.488281 34.179688 373.34375 34.96875 371.195313 35.503906 C 372.121094 28.644531 374.054688 21.140625 375.226563 13.773438 Z M 504.644531 79.847656 C 489.644531 39.347656 456.394531 44.347656 456.394531 44.347656 C 427.894531 45.097656 419.144531 65.347656 419.144531 65.347656 C 420.394531 29.847656 400.394531 12.847656 398.144531 9.347656 L 529.644531 42.347656 L 531.144531 79.847656 L 504.644531 79.847656 "/>
<path style=" stroke:none;fill-rule:nonzero;fill:rgb(0%,0%,0%);fill-opacity:1;" d="M 388.394531 12.589844 C 387.898438 13.359375 386.371094 12.996094 386.769531 14.386719 L 396.027344 34.550781 C 396.027344 34.550781 397.679688 36.375 398.269531 36.148438 C 398.816406 35.9375 398.304688 33.683594 398.421875 33.378906 C 394.660156 26.707031 392.660156 19 388.394531 12.589844 "/>
<path style=" stroke:none;fill-rule:nonzero;fill:rgb(0%,0%,0%);fill-opacity:1;" d="M 312.652344 55.78125 C 312.890625 55.089844 313.800781 54.570313 314.894531 54.570313 L 322.820313 54.570313 C 323.910156 54.570313 324.816406 55.082031 325.058594 55.773438 C 326.890625 55.695313 328.34375 54.667969 328.34375 53.40625 C 328.34375 52.089844 326.773438 51.023438 324.835938 51.023438 L 312.75 51.023438 C 310.8125 51.023438 309.242188 52.089844 309.242188 53.40625 C 309.242188 54.699219 310.761719 55.746094 312.652344 55.78125 "/>
<path style=" stroke:none;fill-rule:nonzero;fill:rgb(0%,0%,0%);fill-opacity:1;" d="M 459.269531 49.390625 C 435.542969 49.390625 416.3125 68.625 416.3125 92.347656 C 416.3125 116.074219 435.542969 135.304688 459.269531 135.304688 C 482.992188 135.304688 502.222656 116.074219 502.222656 92.347656 C 502.222656 68.625 482.992188 49.390625 459.269531 49.390625 Z M 460.410156 121.28125 C 444.101563 121.28125 430.882813 108.0625 430.882813 91.75 C 430.882813 75.441406 444.101563 62.21875 460.410156 62.21875 C 476.722656 62.21875 489.941406 75.441406 489.941406 91.75 C 489.941406 108.0625 476.722656 121.28125 460.410156 121.28125 "/>
<path style=" stroke:none;fill-rule:nonzero;fill:rgb(0%,0%,0%);fill-opacity:1;" d="M 460.410156 67.832031 C 447.199219 67.832031 436.492188 78.539063 436.492188 91.75 C 436.492188 104.960938 447.199219 115.671875 460.410156 115.671875 C 473.621094 115.671875 484.332031 104.960938 484.332031 91.75 C 484.332031 78.539063 473.621094 67.832031 460.410156 67.832031 Z M 455.414063 70.109375 L 464.53125 69.894531 C 465.503906 70.039063 465.238281 71.476563 465.238281 71.476563 L 464.273438 79.671875 C 459.601563 77.882813 455.59375 80.09375 455.59375 80.09375 C 455.148438 78.917969 454.515625 71.589844 454.515625 71.589844 C 454.441406 70.496094 455.414063 70.109375 455.414063 70.109375 Z M 438.839844 91.699219 C 437.773438 91.429688 437.707031 90.386719 437.707031 90.386719 L 440.183594 81.605469 C 440.621094 80.722656 441.90625 81.421875 441.90625 81.421875 L 449.402344 84.871094 C 446.257813 88.761719 447.121094 93.257813 447.121094 93.257813 C 445.867188 93.3125 438.839844 91.699219 438.839844 91.699219 Z M 453.304688 111.832031 C 452.722656 112.761719 451.707031 112.503906 451.707031 112.503906 L 444.121094 107.433594 C 443.417969 106.746094 444.480469 105.738281 444.480469 105.738281 L 450.074219 99.675781 C 452.804688 103.867188 457.347656 104.433594 457.347656 104.433594 C 457.011719 105.648438 453.304688 111.832031 453.304688 111.832031 Z M 448.972656 91.75 C 448.972656 85.433594 454.09375 80.308594 460.410156 80.308594 C 466.730469 80.308594 471.851563 85.433594 471.851563 91.75 C 471.851563 98.070313 466.730469 103.191406 460.410156 103.191406 C 454.09375 103.191406 448.972656 98.070313 448.972656 91.75 Z M 477.660156 106.292969 L 470.496094 111.941406 C 469.625 112.398438 468.996094 111.078125 468.996094 111.078125 L 464.957031 103.878906 C 469.789063 102.582031 471.730469 98.433594 471.730469 98.433594 C 472.78125 99.128906 477.515625 104.566406 477.515625 104.566406 C 478.222656 105.40625 477.660156 106.292969 477.660156 106.292969 Z M 481.285156 89.84375 L 473.191406 91.457031 C 473.449219 86.460938 470.105469 83.332031 470.105469 83.332031 C 471.089844 82.546875 477.726563 79.726563 477.726563 79.726563 C 478.742188 79.316406 479.410156 80.121094 479.410156 80.121094 L 482.570313 88.679688 C 482.734375 89.652344 481.285156 89.84375 481.285156 89.84375 "/>
<path style=" stroke:none;fill-rule:nonzero;fill:rgb(0%,0%,0%);fill-opacity:1;" d="M 460.410156 84.996094 C 456.679688 84.996094 453.65625 88.019531 453.65625 91.75 C 453.65625 95.480469 456.679688 98.507813 460.410156 98.507813 C 464.144531 98.507813 467.167969 95.480469 467.167969 91.75 C 467.167969 88.019531 464.144531 84.996094 460.410156 84.996094 Z M 460.410156 95.738281 C 458.210938 95.738281 456.421875 93.953125 456.421875 91.75 C 456.421875 89.546875 458.210938 87.761719 460.410156 87.761719 C 462.613281 87.761719 464.402344 89.546875 464.402344 91.75 C 464.402344 93.953125 462.613281 95.738281 460.410156 95.738281 "/>
</g>
</svg>
