<?xml version="1.0" encoding="UTF-8"?>
<svg xmlns="http://www.w3.org/2000/svg" xmlns:xlink="http://www.w3.org/1999/xlink" width="508pt" height="326pt" viewBox="0 0 508 326" version="1.1">
<g id="surface1">
<path style=" stroke:none;fill-rule:nonzero;fill:rgb(0%,0%,0%);fill-opacity:1;" d="M 507.363281 239.921875 C 505.597656 238.667969 500.945313 241.660156 501.300781 237.707031 C 503.015625 236.550781 505.515625 237.34375 506.894531 235.339844 C 506.226563 233.519531 507.160156 230.179688 504.910156 229.035156 C 503.34375 229.230469 501.886719 229.789063 500.53125 230.835938 C 499.976563 229.257813 499.296875 227.796875 499.347656 226.113281 C 500.9375 225.078125 504.664063 224.941406 504.140625 222.285156 C 502.746094 220.5625 504.039063 217.355469 501.78125 216.449219 C 500.308594 217.609375 498.496094 217.917969 497.253906 219.324219 C 496.582031 217.625 495.542969 216.152344 495.234375 214.339844 C 496.953125 213.066406 498.535156 212.273438 499.902344 210.746094 C 498.871094 208.917969 498.464844 206.382813 496.695313 205.128906 L 492.273438 208.488281 C 491.238281 206.898438 489.722656 205.292969 489.652344 203.488281 C 490.371094 203.507813 490.648438 202.3125 491.136719 201.96875 C 491.773438 200.785156 494.535156 200.863281 493.382813 199.148438 C 492.464844 197.558594 491.4375 195.605469 489.902344 194.722656 C 487.851563 195.023438 487.199219 196.808594 485.480469 198.082031 C 484.289063 197.6875 483.972656 196.234375 482.789063 195.480469 C 483.675781 193.945313 485.042969 192.300781 486.632813 191.386719 C 487.007813 190.796875 485.808594 190.761719 486.542969 190.300781 C 485.027344 188.574219 483.085938 185.035156 480.769531 186.171875 C 479.664063 187.101563 479.023438 188.527344 477.679688 189.210938 C 476.734375 188.699219 475.910156 188.078125 475.214844 187.214844 C 476.574219 185.933594 477.339844 184.273438 478.464844 182.742188 C 477.070313 181.140625 475.085938 179.039063 472.820313 178.375 L 469.554688 183.449219 C 467.878906 183.160156 466.839844 181.691406 465.296875 180.925781 C 465.121094 178.757813 467.328125 177.136719 467.398438 174.738281 C 465.25 174.195313 461.78125 169.410156 460.335938 173.695313 C 460.300781 174.894531 459.78125 176.324219 459.148438 177.507813 C 457.351563 177.214844 455.453125 176.320313 454.652344 174.976563 C 455.660156 173.320313 455.371094 170.789063 455.78125 169.121094 C 453.617188 169.058594 451.65625 166.238281 449.671875 168.34375 C 449.386719 170.019531 448.496094 171.675781 448.808594 173.367188 L 444.515625 172.285156 C 444.5625 170.605469 444.507813 168.320313 445.15625 166.65625 C 443.644531 164.808594 440.640625 164.84375 438.355469 164.898438 C 437.234375 166.308594 438.128906 168.617188 436.652344 169.898438 L 436.628906 170.738281 C 435.554688 170.46875 433.246094 171.242188 432.570313 169.78125 C 432.621094 167.980469 432.675781 166.0625 432.71875 164.5 C 429.382813 163.445313 427.195313 164.34375 423.953125 164.25 C 423.066406 165.90625 423.964844 168.097656 423.796875 169.773438 C 424.039063 169.660156 424.152344 169.902344 424.273438 169.90625 C 423.410156 170.722656 421.96875 170.683594 420.648438 170.644531 C 418.535156 168.785156 421.453125 163.460938 417.089844 164.777344 L 411.773438 165.707031 C 409.925781 167.335938 412.628906 169.457031 411.964844 171.722656 C 410.863281 172.410156 409.652344 172.738281 408.328125 172.820313 C 408.019531 171.007813 406.859375 169.535156 406.917969 167.492188 C 404.628906 167.667969 402.089844 168.316406 400.003906 169.699219 L 401.785156 174.796875 C 400.671875 175.847656 399.226563 175.925781 398.011719 176.492188 C 396.609375 175.011719 397.078125 171.179688 394.421875 171.703125 C 392.9375 173.105469 390.292969 173.148438 389.152344 175.28125 C 389.828125 176.859375 390.992188 178.214844 391.0625 180.019531 L 388.613281 181.515625 C 386.839844 180.503906 387.164063 177.628906 385.253906 177.09375 L 379.363281 181.492188 C 379.546875 183.417969 383.8125 185.582031 380.640625 187.296875 C 380.386719 187.769531 379.664063 187.746094 379.4375 187.382813 C 377.902344 186.378906 378.207031 184.101563 376.289063 183.929688 L 372.078125 188.375 C 372.140625 190.417969 376.769531 192.472656 373.351563 194.300781 C 372.714844 195.480469 371.664063 194.492188 371.074219 194.113281 C 370.132813 193.367188 370.0625 191.5625 368.597656 192.359375 C 367.472656 193.890625 364.296875 195.722656 365.0625 198.390625 C 365.746094 199.730469 368.605469 200.652344 367 202.171875 L 365.757813 203.578125 C 364.9375 202.832031 363.992188 202.324219 363.296875 201.34375 C 365.125 192.023438 362.015625 183.042969 360.09375 174.453125 C 357.707031 169.699219 355.6875 164.597656 354.761719 159.164063 C 354.367188 156.148438 354.824219 152.675781 357.054688 150.335938 C 360.371094 151.992188 362.398438 156.855469 366.726563 156.738281 C 368.941406 154.878906 370.769531 153.96875 372.507813 151.976563 C 379.8125 152.902344 389.078125 156.652344 395.578125 152.148438 L 397.40625 151.238281 C 407.152344 142.265625 417.464844 134.625 427.804688 125.90625 C 429.925781 123.203125 429.351563 118.019531 434.046875 117.671875 C 435.75 116.125 438.09375 114.902344 438.285156 112.265625 C 438.632813 108.550781 436.785156 105.851563 434.824219 103.03125 L 435.449219 102.089844 C 438.757813 99.898438 442.0625 97.832031 446.035156 97.464844 C 446.898438 96.765625 446.097656 95.300781 446.125 94.339844 C 446.398438 93.148438 445.824219 92.289063 445.128906 91.308594 C 440.53125 92.5 436.027344 94.535156 432.222656 97.3125 C 432.328125 97.796875 432.679688 98.164063 432.183594 98.632813 L 427.800781 92.257813 C 426.007813 91.847656 424.878906 93.496094 423.191406 93.691406 C 425.269531 88.546875 429.304688 85.355469 433.964844 83.050781 C 444.25 79 479.75 66.375 488.042969 63.589844 C 489.292969 63.015625 500.378906 58.390625 503.601563 54.996094 L 503.617188 54.394531 C 476.289063 56.144531 449.847656 60.558594 423.277344 65.332031 C 419.65625 61.625 414.394531 64.960938 410.066406 64.960938 C 374.605469 69.601563 339.695313 76.058594 303.417969 79.835938 C 302.84375 78.859375 301.851563 79.910156 301.261719 79.535156 C 291.453125 77.933594 282.03125 75.382813 274.148438 69.511719 C 263.269531 63.316406 252.277344 56.875 241.164063 50.429688 C 237.605469 48.769531 232.632813 54.636719 230.996094 48.820313 C 230.800781 47.253906 229.882813 45.664063 228.339844 45.019531 C 226.660156 44.851563 224.222656 46.105469 223.070313 44.390625 L 218.921875 25.40625 L 214.449219 22.15625 C 215.808594 20.753906 217.957031 21.292969 218.855469 19.273438 C 221.214844 20.90625 225.015625 22.335938 227.820313 20.972656 C 229.785156 19.464844 231.28125 17.585938 231.347656 15.183594 C 231.292969 12.898438 230.628906 10.957031 228.992188 9.347656 C 225.828125 6.496094 221.800781 8.664063 217.617188 7.824219 C 212.484375 2.390625 204.894531 -1.1875 197.148438 0.753906 C 198.519531 3.316406 201.867188 3.894531 203.847656 6.113281 C 203.808594 7.554688 203.015625 5.847656 202.527344 6.074219 C 197.382813 5.207031 192.808594 5.558594 187.890625 5.179688 C 187.136719 6.359375 186.027344 7.410156 186.457031 9.101563 C 184.683594 8.089844 182.828125 9.960938 181.238281 10.996094 C 179.910156 11.199219 178.992188 13.816406 177.476563 12.214844 C 175.835938 10.84375 173.636719 12.105469 172.171875 12.902344 C 169.089844 15.578125 166.347656 19.105469 165.15625 22.917969 C 155.621094 41.394531 146.316406 60.117188 135.828125 78.203125 C 131.832031 83.332031 122.167969 80 115.71875 79.675781 C 81.546875 77.023438 52.457031 90.019531 25.636719 107.761719 C 25.546875 111.003906 29.5 110.332031 31.210938 110.324219 C 45.515625 110.25 58.953125 106.785156 71.480469 101.371094 C 75.722656 100.171875 79.976563 98.488281 84.546875 98.257813 C 100.429688 97.628906 117.148438 97.023438 130.902344 103.539063 C 124.425781 120.058594 118.421875 136.953125 112.179688 153.601563 C 108.230469 157.214844 106.757813 162.578125 104.34375 167.195313 C 103.582031 168.617188 101.808594 167.605469 100.601563 167.8125 C 99.375 168.617188 100.609375 171.777344 98.351563 170.753906 C 96.464844 169.617188 100.046875 166.472656 97.417969 165.917969 L 92.386719 165.054688 L 92.359375 166.015625 L 92.480469 166.019531 C 92.8125 166.988281 92.660156 168.1875 92.628906 169.269531 L 87.351563 168.878906 C 86.082031 167.039063 89.242188 165.808594 87 164.300781 C 84.714844 164.355469 81.480469 164.023438 79.1875 164.320313 C 79.15625 165.519531 78.980469 167.4375 79.792969 168.421875 L 74.375 168.871094 L 73.894531 164.53125 C 71.722656 164.828125 68.734375 164.265625 66.777344 165.53125 C 66.980469 166.859375 67.785156 168.082031 67.382813 169.632813 C 66.042969 170.195313 64.476563 170.390625 63.027344 170.710938 C 62.3125 170.449219 63.136719 166.867188 61.828125 166.351563 C 59.050781 166.753906 56.386719 167.519531 53.835938 168.527344 C 53.671875 170.085938 54.71875 171.316406 54.671875 172.878906 C 53.679688 173.929688 52.359375 173.894531 51.144531 174.339844 C 50.457031 173.238281 49.144531 171.488281 49.417969 170.417969 C 46.171875 170.445313 44.464844 172.707031 41.667969 173.828125 C 41.625 175.269531 43.382813 176.882813 43.34375 178.203125 C 42.359375 179.015625 40.878906 180.417969 39.953125 179.1875 C 39.25 178.566406 38.613281 176.507813 37.667969 176 C 37.667969 176 33.667969 178.667969 31.375 180.867188 C 30.351563 183.003906 35.925781 185.5625 31.449219 186.636719 C 29.78125 186.230469 29.5 183.339844 27.5625 183.882813 C 26.304688 185.890625 22.675781 186.628906 24.285156 189.320313 C 25.105469 190.0625 25.441406 190.914063 25.777344 191.765625 C 25.746094 192.84375 25.332031 193 24.40625 193.527344 C 22.988281 192.648438 22.09375 190.339844 20.265625 191.246094 C 18.882813 193.371094 16.304688 195.222656 16.113281 197.738281 C 17.300781 198.253906 17.667969 199.082031 19.066406 199.625 C 18.671875 200.816406 17.660156 202.46875 16.550781 203.519531 C 15.242188 203.003906 14.453125 201.175781 12.890625 201.253906 C 11.5 203.617188 9.878906 205.734375 9.320313 208.480469 L 12.875 210.265625 C 12.472656 211.695313 11.953125 213.121094 10.960938 214.175781 C 9.785156 213.300781 8.605469 212.546875 7.292969 212.148438 C 5.894531 214.871094 4.851563 217.726563 4.046875 220.710938 C 4.957031 222.535156 6.890625 222.113281 7.941406 223.222656 C 7.671875 224.175781 7.640625 225.378906 6.65625 226.070313 C 5.476563 225.316406 3.804688 225.027344 2.59375 225.355469 C 2.34375 225.589844 0.972656 232.652344 0.972656 232.652344 C 2.164063 233.046875 4.164063 233.449219 5.230469 233.960938 L 5.167969 236.242188 C 3.71875 236.441406 2.292969 235.921875 0.855469 235.761719 C 0.152344 239.34375 0.0585938 242.707031 0.546875 246.566406 C 0.546875 246.566406 3.09375 246.269531 4.25 246.917969 C 4.667969 247.75 4.652344 248.976563 4.417969 250 C 2.792969 249.871094 1.628906 250.097656 0.667969 250.167969 C 0.101563 253.15625 1.378906 255.363281 1.660156 258.253906 C 3.066406 259.496094 7.453125 257.335938 6.496094 261.394531 C 5.5 262.6875 1.46875 260.773438 2.828125 263.574219 C 2.40625 265.84375 4.035156 267.695313 4.210938 269.984375 C 5.625 270.984375 7.21875 269.828125 8.546875 269.625 C 8.855469 271.4375 11.433594 273.792969 9.238281 274.8125 C 7.667969 275.128906 6.4375 276.175781 7.230469 277.878906 C 8.375 279.953125 9.140625 282.5 10.777344 284.109375 C 10.777344 284.109375 13.605469 283.578125 13.964844 281.914063 L 16.382813 285.710938 C 15.492188 287.367188 12.246094 287.394531 13.738281 289.960938 C 15.351563 292.289063 17.085938 294.742188 19.074219 296.722656 C 21.34375 297.148438 21.097656 293.054688 23.101563 294.550781 C 23.449219 294.921875 23.675781 295.410156 24.023438 295.902344 C 23.972656 297.703125 20.945313 298.457031 22.097656 300.171875 C 24.078125 302.390625 25.578125 304.597656 28.429688 305.757813 C 29.183594 304.578125 29.351563 302.902344 30.695313 302.21875 C 31.160156 302.710938 31.757813 302.847656 32.101563 303.460938 C 31.929688 305.257813 28.875 306.972656 30.753906 308.589844 C 33.371094 309.503906 34.964844 312.554688 37.96875 312.640625 C 38.246094 311.324219 38.882813 310.023438 39.996094 308.972656 C 40.71875 308.871094 41.304688 309.367188 41.527344 309.976563 C 41.355469 311.773438 38.304688 313.488281 40.78125 315.121094 C 43.394531 316.15625 45.503906 318.140625 48.382813 318.34375 C 49.023438 316.917969 48.832031 315.109375 50.300781 314.191406 C 51.257813 314.339844 52.09375 314.480469 52.675781 315.21875 C 53.097656 317.273438 49.660156 319.820313 53.117188 320.761719 C 55.863281 321.4375 58.699219 323.203125 61.480469 322.558594 C 60.667969 321.574219 61.328125 319.429688 61.964844 318.125 C 63.515625 318.53125 65.6875 318.234375 67.101563 319.234375 C 67.886719 321.179688 64.167969 325.28125 68.507813 324.800781 L 76.1875 325.140625 C 76.710938 323.59375 75.34375 321.03125 76.699219 319.867188 L 80.417969 319.972656 C 80.617188 321.539063 80.921875 323.472656 80.75 325.269531 C 83.507813 325.46875 87.351563 325.578125 90.148438 324.453125 C 90.667969 324.582031 91 323.75 90.6875 322.304688 C 90.476563 321.21875 90.269531 320.132813 90.292969 319.292969 C 91.628906 318.730469 93.183594 319.011719 94.523438 318.449219 C 93.644531 319.746094 95.023438 321.949219 95.332031 323.761719 C 98.117188 323 101.230469 323.449219 103.449219 321.46875 L 102.265625 316.625 C 103.25 315.8125 104.945313 315.382813 106.28125 314.820313 C 107.082031 316.28125 107.390625 318.09375 107.703125 319.785156 C 110.34375 319.859375 112.902344 318.234375 115.234375 316.875 C 117.167969 315.75 115.132813 312.066406 115.132813 312.066406 C 115.132813 312.066406 114.539063 311.808594 114.425781 311.566406 C 115.183594 310.265625 116.871094 310.070313 117.980469 309.023438 C 119.511719 310.148438 119.515625 314.234375 122.074219 313.101563 C 124.160156 311.480469 127.4375 310.371094 127.753906 307.738281 C 126.574219 306.863281 126.128906 305.648438 125.074219 304.65625 C 125.472656 303.347656 127.421875 302.441406 128.53125 301.511719 C 130.175781 302.757813 132.75 304.832031 132.75 304.832031 L 134.34375 304.347656 C 134.34375 304.347656 138.871094 301.324219 137.390625 298.398438 L 134.589844 295.554688 C 135.695313 294.625 135.980469 293.070313 137.4375 292.511719 C 138.167969 294 139.296875 294.726563 139.867188 295.824219 C 142.390625 295.894531 143.082031 292.671875 144.691406 291.035156 C 144.71875 289.953125 146.414063 289.519531 145.972656 288.1875 L 142.320313 285.558594 C 142.703125 284.726563 143.136719 282.21875 144.539063 283.578125 C 145.976563 283.738281 146.636719 285.921875 148.097656 285.242188 C 149.59375 283.363281 150.621094 280.988281 151.652344 278.613281 C 150.609375 277.261719 148.582031 276.722656 147.148438 276.324219 L 149.460938 271.101563 C 150.898438 271.261719 152.875 273.601563 154.355469 272.203125 C 155.023438 269.9375 155.691406 267.550781 156.359375 265.167969 C 156.1875 262.761719 152.082031 263.484375 152.261719 261.328125 C 152.777344 260.140625 152.941406 258.582031 153.21875 257.269531 C 154.671875 256.949219 156.191406 258.433594 157.640625 258.113281 C 158.199219 255.367188 159.246094 252.390625 158.367188 249.484375 C 157.183594 248.847656 155.496094 248.921875 154.167969 249.242188 L 154.21875 243.238281 C 155.429688 242.910156 157.34375 243.207031 158.902344 243.25 C 159.464844 240.382813 158.34375 237.585938 158.183594 234.699219 C 157.132813 233.707031 155.328125 233.773438 154 233.976563 C 153.4375 232.640625 153.007813 230.824219 153.046875 229.503906 C 154.390625 228.703125 155.925781 229.585938 156.816406 227.929688 C 157.320313 227.355469 155.117188 221.199219 155.117188 221.199219 C 155.117188 221.199219 154.214844 220.804688 153.648438 220.988281 C 152.910156 221.570313 151.824219 221.660156 150.875 221.269531 C 150.078125 219.6875 149.402344 218.105469 148.972656 216.289063 C 150.296875 216.207031 151.882813 215.410156 152.980469 214.84375 C 152.945313 211.835938 150.855469 209.253906 149.492188 206.453125 C 148.039063 206.890625 146.335938 207.683594 144.78125 207.398438 C 143.738281 206.046875 143.304688 204.351563 145.480469 203.8125 C 146.207031 203.714844 147.5 203 147.089844 202.296875 C 145.824219 200.21875 145.191406 197.078125 142.433594 196.996094 L 139.617188 198.722656 L 137.519531 196.496094 C 138.511719 195.445313 139.609375 194.875 140.816406 194.667969 C 140.90625 191.425781 137.488281 189.046875 135.265625 186.941406 C 134.050781 187.386719 133.25 188.582031 131.25 189.417969 C 130.582031 188.917969 130.414063 188.484375 129.710938 187.984375 L 129.007813 187.242188 C 130.457031 187.046875 131.703125 185.519531 132.921875 184.953125 C 131.804688 181.914063 128.097656 181.328125 126.003906 178.867188 L 127.34375 173.976563 C 127.949219 173.753906 128.300781 174.125 128.773438 174.378906 L 128.765625 174.621094 C 129.484375 174.761719 130.230469 173.820313 130.367188 173.222656 C 131.53125 170.371094 132.933594 167.527344 134.6875 164.933594 L 133.191406 162.726563 C 139.878906 147.296875 146.558594 132.105469 153.238281 116.792969 C 157.238281 119.789063 160.234375 124.320313 163.976563 128.03125 C 173.832031 140.6875 181.746094 154.011719 184.425781 169.710938 C 186.132813 173.003906 190.289063 174.683594 193.738281 175.984375 C 198.070313 184.277344 202.894531 196.3125 196.039063 205.007813 C 195.421875 209.796875 194.660156 215.542969 198.039063 219.246094 C 201.207031 221.980469 205.21875 224.496094 209.714844 222.820313 C 217.980469 219.449219 217.792969 209.109375 218.597656 201.925781 L 219.4375 201.949219 C 231.378906 217.308594 249.125 222.976563 266.269531 228.511719 C 272.71875 230.015625 279.414063 231.167969 286.503906 231.25 C 287.371094 230.3125 289.164063 230.601563 290.261719 230.035156 C 291.847656 229.238281 292.726563 227.941406 294.304688 227.386719 C 301.511719 227.46875 310.039063 227.589844 316.710938 229.582031 C 317.152344 231.039063 318.679688 232.164063 319.984375 232.800781 C 321.527344 233.445313 322.992188 232.644531 324.335938 231.960938 C 326.054688 230.6875 326.117188 228.40625 326.046875 226.722656 C 325.738281 224.792969 328.222656 226.304688 326.644531 226.859375 L 326.628906 227.339844 C 328.320313 227.027344 328.847656 229.6875 330.757813 230.101563 C 332.90625 230.523438 334.625 229.25 335.871094 227.722656 C 340.742188 229.664063 345.613281 231.605469 350.355469 233.902344 C 351.429688 234.171875 352.777344 233.25 353.835938 234.121094 C 353.800781 235.324219 353.183594 235.90625 351.984375 235.871094 C 351.140625 235.96875 350.433594 235.46875 349.46875 235.558594 C 349.386719 238.441406 348.21875 241.53125 349.464844 244.09375 C 350.429688 244 351.40625 243.546875 352.597656 243.820313 C 353.070313 244.195313 352.929688 244.910156 352.910156 245.511719 C 351.800781 246.5625 349.777344 245.78125 348.789063 246.835938 L 349.289063 254.539063 C 350.34375 255.53125 351.371094 253.15625 353.027344 254.046875 C 353.363281 255.015625 354.15625 256.722656 352.585938 257.039063 C 351.511719 256.765625 350.65625 257.222656 349.800781 257.679688 C 350.085938 260.332031 351.199219 263.488281 351.597656 266.382813 C 351.835938 266.511719 352.070313 266.636719 352.304688 266.882813 C 352.820313 265.695313 354.023438 265.609375 355.101563 265.761719 C 355.570313 266.136719 355.671875 266.738281 355.65625 267.339844 L 352.609375 268.816406 C 352.890625 271.585938 353.886719 274.621094 355.625 276.953125 C 356.707031 276.863281 357.222656 275.675781 358.539063 275.832031 C 358.761719 276.441406 359.941406 277.195313 358.960938 277.886719 C 358.222656 278.589844 357.140625 278.558594 356.511719 279.5 C 356.933594 281.554688 358.679688 283.648438 359.460938 285.714844 L 360.894531 285.992188 C 360.804688 284.910156 362.011719 284.703125 362.628906 284.121094 L 364.015625 286.082031 C 362.921875 286.53125 361.8125 287.582031 361.304688 288.53125 L 362.488281 289.164063 C 361.84375 290.707031 363.84375 292.207031 364.765625 293.554688 C 366.316406 293.960938 366.601563 292.40625 367.816406 291.957031 C 368.402344 292.457031 368.875 292.710938 368.847656 293.671875 C 368.105469 294.371094 367.015625 294.699219 366.867188 295.777344 C 367.410156 297.714844 369.289063 299.332031 370.6875 300.8125 C 372.464844 301.703125 371.839844 298.441406 373.636719 298.613281 C 376.246094 299.769531 373.4375 301.371094 373.152344 302.925781 C 374.480469 302.722656 374.195313 304.277344 375.140625 304.90625 C 376.6875 305.429688 377.234375 307.246094 379.152344 307.421875 C 379.058594 306.457031 380.273438 306.011719 380.773438 305.304688 C 383.511719 306.34375 379.484375 308.390625 381.011719 309.757813 L 381.613281 309.65625 C 383.5 310.910156 385.378906 312.523438 387.398438 313.304688 L 389.144531 311.070313 C 390.453125 311.46875 391.628906 312.460938 392.933594 313.097656 C 392.65625 314.292969 389.976563 315.660156 392.105469 316.800781 C 394.257813 317.222656 396.378906 318.726563 398.761719 319.394531 C 399.523438 317.972656 400.3125 315.472656 402.550781 317.097656 C 403.484375 318.085938 406.972656 317.945313 404.984375 320.292969 L 404.609375 320.761719 C 406.121094 322.605469 408.992188 323.050781 411.398438 322.875 C 410.953125 321.664063 412.410156 321.101563 412.921875 320.15625 L 417.226563 320.878906 C 416.835938 321.949219 416.546875 323.625 417.480469 324.613281 C 419.75 325.035156 422.632813 325.117188 424.804688 324.820313 C 424.714844 323.734375 423.195313 322.25 424.660156 321.449219 C 426.945313 321.273438 427.769531 322.019531 429.816406 321.835938 C 429.90625 322.800781 430.125 323.648438 430.339844 324.617188 C 432.457031 326.117188 434.789063 324.382813 437.179688 324.8125 C 437.457031 323.617188 436.160156 322.617188 436.6875 321.070313 C 438.855469 320.890625 440.679688 320.101563 442.84375 320.042969 C 443.535156 321.144531 443.007813 322.8125 443.9375 323.800781 C 446.109375 323.5 448.433594 322.125 450.457031 322.785156 C 452.171875 321.632813 449.335938 319.988281 449.988281 318.082031 C 452.054688 317.300781 454.234375 316.761719 456.183594 315.734375 C 457.121094 316.605469 457.445313 317.933594 457.292969 319.011719 C 459.566406 319.4375 461.3125 317.082031 463.839844 317.035156 C 465.4375 315.757813 463.203125 314.011719 463.132813 312.328125 C 464.714844 311.652344 466.320313 310.015625 467.882813 310.058594 C 469.183594 310.816406 468.984375 313.574219 471.0625 312.3125 C 472.539063 311.03125 474.480469 310.488281 475.84375 308.964844 C 475.402344 307.628906 474.355469 306.398438 473.785156 305.300781 C 475.492188 304.386719 476.671875 301.054688 478.789063 302.558594 C 479.734375 303.1875 479.789063 305.46875 481.261719 304.429688 C 482.632813 302.667969 486.039063 301.203125 485.628906 298.785156 C 484.4375 298.394531 483.871094 297.175781 483.296875 296.199219 C 484.171875 295.019531 484.804688 293.835938 485.914063 292.90625 C 487.453125 293.671875 487.765625 295.363281 489.816406 295.179688 C 491.074219 293.171875 493.160156 291.550781 493.34375 289.394531 L 490.289063 286.902344 C 490.582031 285.109375 492.058594 283.828125 492.945313 282.289063 C 494.503906 282.335938 495.421875 283.921875 497.101563 283.972656 C 498.246094 281.839844 499.621094 279.957031 500.167969 277.570313 C 499.367188 276.105469 497.445313 276.171875 496.273438 275.054688 C 496.6875 273.265625 497.328125 271.71875 498.214844 270.183594 C 499.78125 269.988281 502.234375 272.460938 503.378906 270.332031 C 503.671875 268.414063 504.574219 266.277344 504.503906 264.472656 C 503.070313 264.191406 501.539063 263.066406 500.191406 263.992188 L 499.847656 263.5 L 501.089844 257.886719 C 502.765625 258.054688 505.367188 259.453125 506.265625 257.554688 C 506.550781 255.878906 506.839844 254.207031 506.773438 252.28125 C 505.347656 251.761719 503.554688 251.347656 501.859375 251.78125 L 501.632813 247.089844 C 503.34375 246.175781 506.929688 246.757813 507.214844 245.203125 C 508.460938 243.675781 507.558594 241.609375 507.363281 239.921875 Z M 444.726563 92.859375 L 444.710938 93.460938 C 441.691406 93.976563 437.75 96.625 436.21875 96.222656 C 438.789063 94.492188 441.707031 93.375 444.726563 92.859375 Z M 217.789063 10.234375 C 217.722656 12.632813 216.574219 15.003906 217.707031 17.441406 C 216.683594 15.367188 215.695313 12.097656 217.789063 10.234375 Z M 427.578125 113.523438 C 430.03125 111.789063 433.203125 110.074219 436.246094 108.722656 C 433.75 111.125 430.875 112.375 427.578125 113.523438 Z M 435.910156 107.03125 C 432.859375 108.746094 429.90625 111.1875 426.628906 112.292969 C 425.695313 111.304688 425.25 110.09375 424.925781 108.882813 C 427.867188 106.800781 431.394531 105.339844 433.847656 103.484375 C 434.652344 104.832031 435.230469 105.6875 435.910156 107.03125 Z M 424.039063 107.292969 C 426.007813 105.664063 428.683594 104.539063 431.007813 103.164063 C 431.738281 102.824219 432.46875 102.484375 432.949219 102.496094 C 430.4375 104.5 427.195313 106.179688 424.039063 107.292969 Z M 428.082031 95.03125 C 429.949219 96.886719 430.722656 99.3125 432.46875 101.285156 L 432.457031 101.765625 C 429.078125 102.148438 426.125 104.710938 423.441406 106.074219 C 422.058594 103.992188 422.5 101.121094 421.972656 98.582031 C 423.710938 96.589844 426.359375 96.425781 428.082031 95.03125 Z M 424.570313 66.332031 C 449.820313 61.519531 474.8125 57.421875 500.941406 55.519531 C 497.59375 59.269531 492.875 59.375 488.125 62.605469 C 482.582031 64.734375 443.957031 77.464844 430.8125 83.453125 C 426.5625 80.808594 422.542969 78.410156 418.671875 75.175781 C 421.148438 72.601563 425.0625 70.070313 424.570313 66.332031 Z M 215.671875 25.554688 C 216.851563 26.429688 216.433594 28.460938 217.980469 28.984375 C 218.664063 34.410156 219.960938 39.613281 220.890625 44.929688 L 215.585938 45.621094 C 213.546875 45.441406 213.371094 47.359375 212.496094 48.535156 C 214.84375 54.730469 206.496094 52.453125 203.664063 54.894531 L 203.652344 55.375 C 199.753906 57.1875 198.789063 61.605469 196.886719 65.035156 L 195.085938 64.984375 C 192.027344 62.734375 187.542969 59.84375 187.667969 55.402344 C 187.171875 51.664063 194.738281 51.878906 192.582031 47.371094 L 198.691406 35.285156 L 198.746094 33.484375 C 200.792969 29.097656 204.851563 25.726563 209.457031 24.414063 C 211.636719 23.878906 213.898438 24.542969 215.671875 25.554688 Z M 179.9375 65.277344 L 192.703125 72.730469 C 190.65625 77.117188 185.6875 78.539063 181.679688 80.105469 L 182.3125 78.921875 Z M 173.753906 88.414063 C 175.226563 91.578125 177.890625 95.019531 179.121094 98.179688 C 174.230469 96.960938 169.222656 95.617188 164.722656 93.203125 C 164.144531 92.46875 165.367188 91.78125 164.179688 91.265625 C 168.523438 82.136719 171.921875 72.5 176.621094 63.621094 C 177.898438 69.304688 179.035156 75.945313 179.492188 81.007813 C 176.929688 82.375 173.375 84.796875 173.753906 88.414063 Z M 174.089844 46.84375 L 175.863281 47.976563 C 169.957031 61.269531 164.058594 74.320313 158.15625 87.492188 L 157.191406 87.703125 L 155.65625 86.699219 C 161.445313 73.285156 167.59375 59.878906 174.089844 46.84375 Z M 163.578125 48.828125 L 167.738281 42.097656 C 168.414063 43.679688 170.441406 44.21875 171.371094 45.324219 C 168.867188 48.859375 167.304688 53.140625 165.03125 57.042969 C 163.898438 54.488281 164.101563 51.609375 163.578125 48.828125 Z M 154.589844 77.777344 C 152.316406 77.351563 150.6875 75.503906 148.535156 75.078125 C 153.304688 68.007813 157.015625 59.941406 161.554688 52.496094 L 163.496094 60.242188 Z M 161.21875 93.945313 C 157.265625 93.472656 153.816406 92.296875 150.632813 90.039063 L 151.546875 87.542969 C 154.742188 89.316406 158.183594 90.734375 161.878906 91.800781 Z M 163.925781 95.945313 C 165.855469 95.761719 167.277344 96.402344 168.8125 97.285156 C 173.242188 102.097656 176.695313 107.484375 179.898438 113.222656 C 181.671875 118.441406 184.652344 123.570313 185.214844 129.117188 C 179.640625 118.140625 171.308594 106.851563 161.816406 98.289063 Z M 170.378906 42.171875 L 170.390625 41.8125 L 171.109375 41.835938 C 172.199219 41.503906 171.992188 40.417969 172.371094 39.707031 C 177.71875 41.78125 183.046875 44.574219 188.539063 45.8125 L 188.292969 46.046875 C 188.160156 46.523438 188.507813 47.015625 188.738281 47.382813 C 187.757813 47.953125 188.082031 49.285156 187.101563 49.980469 C 181.523438 47.535156 175.1875 46.394531 170.378906 42.171875 Z M 178.40625 34.46875 C 179.363281 34.617188 180.199219 34.882813 180.90625 35.382813 C 180.734375 37.179688 179.96875 38.722656 179.085938 40.257813 C 177.765625 40.21875 176.699219 39.589844 175.882813 38.726563 L 176.976563 38.394531 C 177.371094 37.085938 178.964844 36.046875 178.40625 34.46875 Z M 180.050781 31.632813 C 181.757813 30.71875 183.15625 32.320313 184.226563 32.714844 C 184.570313 33.324219 184.78125 34.289063 184.285156 34.878906 C 182.996094 33.640625 179.132813 34.371094 180.050781 31.632813 Z M 182.695313 35.792969 C 182.402344 37.707031 181.515625 39.363281 180.394531 40.65625 L 180.046875 40.285156 C 180.929688 38.746094 181.109375 36.710938 182.695313 35.792969 Z M 191.316406 24.261719 C 191.394531 25.707031 191.101563 27.621094 190.574219 29.167969 C 189.609375 29.382813 190.242188 28.195313 189.890625 27.945313 L 188.421875 28.867188 C 187.960938 28.132813 187.457031 28.960938 186.628906 28.574219 C 185.578125 27.464844 187.066406 25.824219 187.8125 24.882813 C 189.070313 27.203125 189.3125 22.882813 191.316406 24.261719 Z M 193.238281 32.726563 C 192.164063 36.664063 190.144531 40.089844 188.601563 43.652344 C 187.511719 43.980469 187.0625 42.886719 186.097656 42.980469 C 186.742188 41.4375 187.390625 39.773438 187.917969 38.105469 L 185.699219 35.878906 C 186.597656 33.863281 184.621094 31.523438 185.625 29.988281 C 188.632813 29.835938 190.339844 33.246094 193.238281 32.726563 Z M 193.046875 31.039063 L 195 30.832031 C 197.210938 30.476563 195.640625 28.589844 197.664063 29.128906 C 199.921875 30.152344 197.960938 31.539063 197.445313 32.726563 C 195.894531 32.324219 194.667969 31.832031 193.046875 31.039063 Z M 195.972656 33.765625 C 193.585938 37.425781 193.335938 41.984375 190.953125 45.519531 C 190.726563 45.035156 190.375 44.664063 190.511719 44.066406 C 192.527344 40.878906 193.355469 37.058594 195.613281 33.757813 Z M 189.453125 68.671875 C 189.21875 68.546875 188.871094 68.054688 188.871094 68.054688 C 186.820313 64.148438 184.890625 60.128906 183.328125 55.878906 C 184.40625 56.03125 185.230469 56.535156 186.054688 57.160156 C 188.472656 60.953125 191.21875 65.71875 196 66.695313 C 195.589844 68.484375 194.578125 70.140625 193.578125 71.550781 C 192.164063 70.550781 189.453125 68.671875 189.453125 68.671875 Z M 199.15625 18.957031 C 200.246094 18.628906 201.566406 18.785156 202.507813 19.410156 C 204.074219 19.21875 204.257813 21.265625 205.191406 22.253906 C 203.726563 23.050781 202.023438 23.84375 200.894531 25.496094 C 201.101563 26.703125 199.90625 26.429688 199.304688 26.410156 C 196.710938 24.65625 196.472656 28.855469 194.203125 28.308594 C 193.136719 27.796875 192.667969 27.425781 193.183594 26.238281 C 190.453125 20.753906 199.488281 24.253906 199.15625 18.957031 Z M 188.40625 16.609375 C 190.132813 19.300781 193.425781 17.59375 196.164063 18.511719 L 196.753906 18.890625 C 196 20.070313 193.859375 19.285156 193.804688 21.207031 C 192.71875 21.417969 192.875 20.101563 192.046875 19.714844 C 190.609375 19.433594 189.511719 20.125 188.300781 20.449219 C 187.117188 19.816406 186.355469 16.910156 188.40625 16.609375 Z M 183.617188 11.785156 L 183.96875 12.15625 C 184.296875 13.367188 182.738281 13.203125 182.011719 13.304688 C 182.035156 12.460938 183.007813 12.128906 183.617188 11.785156 Z M 178.546875 16.929688 C 181.179688 17.246094 183.25 16.34375 185.65625 16.171875 C 186.476563 16.914063 185.613281 17.730469 185.589844 18.570313 C 186.019531 20.265625 187.65625 21.875 188.359375 22.617188 C 185.554688 23.980469 185.566406 27.824219 183.128906 29.078125 C 183.828125 29.816406 184.171875 30.429688 183.429688 31.128906 C 183.226563 29.800781 181.65625 30.117188 180.574219 30.085938 C 178.300781 29.78125 178.820313 32.679688 177.84375 33.253906 L 177.253906 32.753906 C 175.539063 33.90625 175.113281 36.179688 174.222656 37.957031 L 173.742188 37.941406 C 172.683594 37.191406 171.488281 36.917969 170.546875 36.289063 L 173.835938 30.496094 C 175.300781 29.695313 175.59375 27.78125 175.523438 25.976563 C 174.359375 24.621094 176.070313 23.710938 175.027344 22.355469 C 174.355469 20.65625 176.941406 18.445313 178.546875 16.929688 Z M 177.691406 13.179688 L 174.089844 13.078125 C 175.179688 12.746094 176.636719 12.1875 177.691406 13.179688 Z M 175.210938 15.875 C 173.855469 17.035156 172.902344 20.976563 170.785156 19.351563 C 171.910156 17.824219 172.699219 15.441406 175.210938 15.875 Z M 169.777344 21.007813 C 170.148438 20.65625 170.980469 20.921875 171.332031 21.289063 C 171.503906 23.699219 174.484375 24.503906 174.050781 27.136719 C 166.796875 41.351563 140.851563 83.964844 140.851563 83.964844 L 135.277344 82.25 C 135.277344 82.25 159.167969 39.210938 169.777344 21.007813 Z M 109.035156 170.445313 C 110.800781 170.613281 122.976563 172.894531 118.285156 180.535156 C 110.894531 196.222656 87.125 240.878906 85.597656 240.835938 C 84.519531 241.394531 77.941406 239.027344 74.359375 236.6875 C 76.671875 229.804688 78.871094 224.628906 81.996094 218.359375 L 82.226563 218.480469 L 82.589844 218.140625 C 82.722656 217.554688 82.621094 217.078125 82.515625 216.605469 C 92.144531 196.859375 99.761719 190.199219 109.035156 170.445313 Z M 102.769531 262.285156 L 105.832031 258.132813 C 107.015625 262.050781 109.386719 257.410156 111.820313 258.773438 L 129.636719 269.242188 C 129.636719 269.242188 130.902344 267.972656 130.6875 267.140625 C 124.097656 262.832031 118.609375 260.144531 112.265625 255.488281 L 112.300781 254.3125 C 113.726563 253.765625 114.550781 253.785156 115.980469 253.238281 C 117.191406 252.09375 115.578125 250.871094 115.960938 249.824219 L 116.664063 249.84375 C 122.808594 253.316406 128.828125 256.902344 135.34375 259.792969 C 133.859375 266.464844 126.4375 279.023438 127.324219 276.808594 C 119.214844 272.105469 110.515625 267.332031 102.769531 262.285156 Z M 81.257813 273.648438 C 84.699219 272.804688 89.179688 272.261719 92.289063 270.585938 C 92.277344 271.054688 97.40625 289.453125 99.519531 297.992188 C 99.875 297.886719 100.222656 298.128906 100.46875 297.785156 C 99.421875 288.921875 96.59375 280.714844 95.789063 271.742188 L 101.695313 275.207031 C 104 281.160156 106.058594 287.460938 109.320313 292.855469 C 110.277344 292.410156 110.878906 291.957031 110.878906 291.957031 C 109.238281 287.433594 107.714844 283.035156 105.839844 278.625 C 110.019531 280.742188 113.8125 284.03125 118.113281 285.917969 C 118.113281 285.917969 118.925781 286.414063 120.257813 285.039063 C 115.3125 280.894531 109.269531 278.015625 103.96875 273.976563 L 100.574219 264.929688 L 101.054688 264.589844 C 109.273438 269.652344 117.863281 274.019531 126.324219 278.851563 C 123.617188 282.898438 119.984375 286.445313 116.363281 289.519531 C 105.878906 297.9375 95.570313 303.253906 81.570313 302.738281 C 81.304688 295.546875 81.785156 280.585938 81.257813 273.648438 Z M 34.164063 210.757813 L 38.546875 205.703125 C 45.949219 210.386719 53.320313 216.25 60.726563 220.816406 C 56.996094 223.652344 55.113281 227.722656 52.890625 231.429688 C 52.148438 232.703125 51.976563 234.582031 51.234375 235.738281 C 43.480469 230.925781 36.339844 225.304688 28.703125 220.496094 L 32.1875 214 C 39.746094 217.277344 47.300781 220.789063 54.992188 223.714844 C 55.355469 223.371094 57.015625 221.765625 56.90625 221.523438 C 48.886719 217.765625 41.820313 214.863281 34.164063 210.757813 Z M 59.085938 191.445313 C 61.835938 190.109375 64.8125 188.898438 67.871094 188.988281 C 71.058594 197.085938 73.410156 205.515625 77.542969 213.402344 C 72.226563 213.960938 62.191406 219.089844 62.191406 219.089844 C 55.042969 213.589844 47.996094 208.796875 40.730469 203.40625 C 44.96875 199.289063 50.277344 194.847656 55.863281 193.003906 C 58.226563 201.078125 60.847656 209.296875 64.050781 216.691406 C 64.050781 216.691406 64.679688 215.585938 65.734375 215.851563 C 64.082031 208.25 60.257813 199.960938 59.085938 191.445313 Z M 80.910156 210.90625 C 81.121094 211.738281 81.917969 212.703125 81.542969 213.515625 L 79.910156 213 L 80.03125 212.886719 C 77.683594 204.222656 73.554688 196.214844 71.082031 187.902344 L 77.460938 187.257813 C 77.816406 195.511719 79.957031 202.992188 80.910156 210.90625 Z M 80.167969 187.214844 C 83.832031 186.847656 88.058594 187.203125 91.570313 188.011719 C 88.796875 194.410156 87.066406 201.542969 83.714844 207.574219 C 82.851563 200.601563 80.796875 194.183594 80.167969 187.214844 Z M 50.78125 239.257813 L 50.773438 239.609375 C 48.988281 240.269531 31.964844 234.25 24.738281 231.570313 C 25.867188 229.128906 25.71875 226.0625 27.429688 223.875 C 35.421875 228.578125 42.921875 234.089844 50.78125 239.257813 Z M 42.023438 240.894531 C 35.859375 242.25 29.59375 243.132813 23.210938 243.894531 C 23.175781 240.949219 23.488281 238.25 24.039063 235.554688 C 30.117188 237.140625 36.070313 238.957031 42.023438 240.894531 Z M 23.234375 247.191406 C 32.46875 245.570313 41.46875 243.707031 50.695313 242.316406 C 50.5625 242.902344 50.777344 243.617188 50.410156 244.078125 L 23.894531 255.226563 C 23.019531 252.964844 22.859375 250.25 22.820313 247.539063 Z M 50.902344 247.503906 C 51.84375 251.652344 52.789063 255.683594 55.042969 259.28125 L 28.429688 269.105469 C 27.070313 267.296875 25.019531 261.75 24.613281 259.5 C 33.207031 255.503906 42.085938 251.023438 50.902344 247.503906 Z M 56.40625 262.378906 L 58.585938 265.363281 L 42.019531 287.101563 C 39.964844 284.921875 34.980469 281.46875 30.125 272.25 C 36.574219 269.136719 56.40625 262.378906 56.40625 262.378906 Z M 61.207031 266.167969 C 64.417969 269.261719 68.066406 270.679688 72.039063 272.082031 C 66.324219 279.449219 60.171875 288.769531 54.664063 296.324219 C 51.632813 295.292969 47.867188 292.46875 45.625 290.125 C 50.457031 281.664063 56.609375 274.636719 61.207031 266.167969 Z M 76.210938 272.835938 L 78.207031 273.011719 C 77.921875 273.734375 78.042969 295.382813 78.316406 302.335938 C 70.421875 302.464844 63.558594 300.386719 57.050781 297.375 Z M 76.066406 260.976563 C 74.175781 261.160156 72.5625 259.9375 71.296875 258.957031 C 72.53125 256.992188 72.738281 253.699219 74.996094 253.058594 L 74.1875 252.445313 C 75.1875 250.472656 74.082031 250.25 73.367188 248.183594 C 70.832031 246.226563 70.460938 242.683594 71.839844 239.777344 C 73.703125 240.535156 75.675781 241.535156 76.816406 242.863281 C 79.285156 243.050781 81.117188 244.867188 83.324219 245.992188 L 80.0625 252.964844 C 79.59375 252.835938 79.351563 253.179688 78.988281 253.40625 C 79.144531 256.238281 76.492188 258.398438 76.066406 260.976563 Z M 95.875 268.683594 L 98.042969 266.980469 C 98.707031 268.527344 99.605469 269.96875 100.035156 271.511719 Z M 120.933594 248.902344 C 125.792969 247.746094 130.761719 246.945313 135.738281 245.910156 C 135.738281 245.910156 135.480469 243.691406 135.25 243.449219 C 128.386719 244.667969 122.789063 245.660156 116.035156 247.117188 L 115.832031 246.050781 C 116.527344 246.421875 116.433594 245.597656 117.019531 245.613281 C 117.644531 244.453125 117.6875 242.921875 116.894531 241.839844 L 134.5625 237.515625 L 133.726563 234.574219 C 127.433594 236.398438 122.429688 237.640625 116.039063 238.636719 C 115.613281 237.09375 117.625 236.796875 117.3125 235.375 C 115.851563 232.863281 113.164063 232.195313 110.585938 231.652344 C 118.0625 229.628906 134.296875 226.203125 134.296875 226.203125 C 134.296875 226.203125 138.671875 246.226563 136.125 257.109375 C 130.902344 254.484375 126.148438 251.761719 120.933594 248.902344 Z M 106.300781 229.175781 C 105.5 228.328125 105.171875 227.378906 104.613281 226.417969 C 112.960938 222.652344 121.761719 219.722656 130.332031 216.433594 C 132.039063 218.484375 132.789063 221.09375 133.664063 223.476563 C 124.648438 225.808594 115.203125 226.71875 106.300781 229.175781 Z M 128.523438 213.789063 C 122.683594 216.214844 116.964844 218.527344 111.128906 220.835938 L 109.359375 221.019531 C 113.386719 215.953125 121.105469 205.714844 122.070313 204.917969 C 125.734375 208.554688 128.871094 214.035156 128.523438 213.789063 Z M 104.148438 224.222656 L 102.007813 222.695313 C 102.007813 222.695313 110.363281 206.328125 114.480469 198.199219 C 116.695313 198.96875 118.632813 201.261719 119.765625 202.824219 Z M 134.261719 206.601563 C 145.996094 224.492188 150.367188 246.289063 140.988281 268.824219 C 136.085938 280.597656 129.082031 288.308594 121.230469 294.886719 C 103.355469 310.332031 73.632813 314.601563 52.671875 303.746094 C 35.113281 295.085938 21.269531 277.507813 17.355469 258.476563 C 11.320313 231.59375 20.765625 203.660156 45.945313 187.9375 C 63.023438 177.277344 78.738281 174.714844 97.003906 180.304688 L 93.0625 183.898438 C 67.835938 178.011719 37.59375 190.738281 24.953125 217.53125 C 12.125 244.722656 19.699219 273.9375 43.453125 292.367188 C 60.019531 305.21875 75.25 308.78125 96.003906 303.71875 C 117.457031 298.910156 134.699219 281.3125 139.816406 256.8125 C 145.097656 231.542969 134.34375 208.757813 116.605469 194.828125 C 116.757813 193.65625 119.40625 191.878906 120.535156 191.292969 C 126.105469 195.40625 130.722656 200.566406 134.261719 206.601563 Z M 126.007813 170.695313 C 122.019531 169.992188 118.195313 167.882813 114.730469 165.546875 L 112.628906 164.78125 C 112.070313 163.707031 112.804688 162.785156 112.949219 161.847656 C 114.109375 162.46875 114.957031 161.667969 115.792969 161.222656 L 124.035156 165.460938 C 125.074219 166.195313 126.96875 165.777344 127.765625 166.742188 Z M 128.375 158.253906 L 119.128906 153.628906 L 145.191406 97.710938 L 153.601563 101.496094 Z M 160.277344 97.40625 C 159.433594 97.5 157.992188 97.460938 157.546875 96.367188 C 156.957031 95.867188 156.339844 96.453125 155.738281 96.554688 C 153.597656 95.652344 151.339844 94.867188 149.332031 93.609375 L 149.617188 92.054688 C 152.570313 93.820313 156.28125 94.285156 159.363281 95.816406 L 160.335938 95.484375 Z M 191.703125 171.480469 C 190.40625 149.449219 182.207031 129.269531 168.882813 111.828125 L 160.511719 101.976563 C 160.523438 101.496094 159.820313 100.878906 160.546875 100.65625 L 163.828125 103.632813 C 180.402344 120.808594 189.332031 141.332031 192.609375 165.015625 L 193.890625 174.90625 C 193.410156 174.890625 192.035156 172.449219 191.703125 171.480469 Z M 417.761719 77.554688 C 421.425781 79.699219 424.707031 82.679688 428.265625 84.339844 C 425.425781 86.90625 423.675781 89.378906 422.144531 92.460938 C 417.789063 101.949219 422.453125 111.214844 427.277344 119.160156 C 428.054688 121.347656 426.332031 122.738281 426.890625 124.316406 C 416.898438 133.40625 405.46875 142.335938 394.285156 151.03125 C 390.800781 151.054688 388.699219 153.15625 385.335938 153.0625 C 376.109375 152.199219 366.816406 149.289063 357.242188 147.9375 C 353.039063 147.816406 348.6875 144.570313 346.996094 140.558594 C 346.417969 139.820313 345.136719 138.339844 341.597656 136.078125 C 341.597656 136.078125 338.410156 134.0625 336.359375 134.367188 C 341.539063 129.585938 348.289063 124.730469 355.472656 121.449219 L 355.722656 120.976563 C 353.828125 120.082031 352.554688 121.007813 350.394531 120.824219 C 347.011719 121.449219 343.59375 124.960938 339.769531 124.25 C 344.078125 120.644531 357.347656 114.652344 358.460938 113.484375 L 380.628906 102.9375 C 382.429688 102.988281 383.179688 102.046875 383.46875 100.253906 C 375.976563 101.84375 368.230469 103.785156 360.832031 106.101563 C 360.832031 106.101563 351.007813 109.308594 352.109375 108.617188 L 338.53125 112.796875 C 338.53125 112.796875 332.785156 116.238281 330.5625 118.460938 C 329.023438 121.78125 324.136719 133.058594 322.179688 134.324219 C 320.824219 135.488281 321.851563 137.441406 322.90625 138.3125 C 322.160156 139.25 320.703125 139.8125 319.597656 140.621094 C 302.164063 136.640625 283.382813 133.703125 266.789063 129.867188 C 263.203125 124.839844 258.285156 120.375 253.695313 117 C 236.242188 105.328125 212.152344 111.496094 196 121.730469 C 192.191406 116.214844 175.085938 87.972656 175.085938 87.972656 C 176.835938 81.410156 184.394531 81.867188 189.054688 78.515625 C 197.738281 73.113281 197.214844 61.921875 204.957031 55.894531 C 214.0625 52.664063 224.566406 50.921875 234.835938 53.257813 C 235.019531 55.183594 236.039063 57.375 235.871094 59.054688 C 235.300781 57.953125 234.335938 58.167969 233.503906 57.785156 L 224.382813 61.609375 C 224.382813 61.609375 222.917969 62.5 222.769531 63.367188 C 225.960938 65.261719 228.867188 68.710938 229.363281 72.449219 C 229.210938 73.644531 227.660156 73.121094 226.808594 73.578125 C 222.558594 70.933594 218.3125 68.046875 213.933594 65.640625 C 211.214844 68.328125 206.78125 67.839844 204.523438 71.140625 C 208.875 74.511719 214.09375 76.941406 218.4375 80.550781 L 206.171875 85.128906 C 202.996094 86.960938 199.023438 87.210938 196.195313 89.410156 C 204.238281 93.964844 212.542969 97.6875 220.582031 102.359375 C 211.863281 104.757813 202.578125 105.816406 193.851563 108.453125 C 193.566406 110.007813 195.53125 108.621094 195.371094 110.058594 C 200.738281 111.410156 206.109375 112.765625 211.476563 114.117188 L 213.085938 112.480469 C 220.960938 110.300781 228.941406 108.484375 236.925781 106.550781 C 238.988281 105.886719 241.273438 105.832031 243.230469 104.566406 C 244.351563 103.277344 233.566406 97.921875 229.921875 95.054688 L 236.445313 93.917969 C 240.574219 92.351563 245.46875 93.574219 248.804688 90.304688 C 249.199219 89.113281 248.394531 87.769531 247.339844 86.898438 C 242.957031 84.609375 239.101563 80.773438 234.460938 79.082031 C 236.035156 78.644531 238.65625 79.441406 240.027344 77.796875 C 243.71875 74.777344 241.226563 69.421875 240.359375 66.03125 C 258.210938 80.71875 276.882813 96.027344 295.078125 111.085938 C 299.152344 114.425781 304.007813 114.101563 307.007813 114.1875 L 390.628906 89.402344 C 395.714844 87.984375 400.566406 86.4375 405.765625 85.265625 C 409.804688 82.734375 414.214844 79.738281 417.195313 76.335938 Z M 319.539063 172.34375 C 321.359375 175.878906 324.511719 179.214844 325.382813 182.363281 C 325.382813 182.363281 323.6875 180.125 320.460938 182.222656 C 318.613281 183.734375 319.5 186.6875 320.421875 187.75 C 318.4375 187.9375 317.046875 192.070313 318.308594 194.539063 C 319.054688 196 320.796875 195.8125 321.597656 197.15625 C 321.574219 197.996094 321.671875 198.839844 321.289063 199.550781 C 320.4375 199.886719 319.816406 200.589844 318.75 200.078125 C 316.929688 200.75 316.996094 202.671875 315.878906 203.964844 C 314.792969 204.054688 313.964844 203.550781 312.882813 203.636719 C 308.976563 205.691406 313.585938 208.464844 312.910156 211.089844 C 306.988281 208.035156 301.613281 202.71875 296.0625 199.195313 C 295.835938 194.503906 301.765625 193.109375 303.679688 189.195313 C 306.085938 184.820313 304.945313 178.417969 302.90625 174.035156 C 296.8125 164.367188 290.121094 154.5625 284.03125 144.65625 C 281.855469 140.992188 279.1875 137.550781 277.5 133.535156 C 281.089844 134 284.542969 135.179688 287.890625 135.753906 C 286.914063 136.207031 299.078125 156.5 299.078125 156.5 C 299.628906 158.320313 301.519531 159.453125 303.292969 160.464844 C 304.011719 160.484375 304.21875 161.695313 305.3125 161.242188 C 306.058594 160.304688 308.089844 160.84375 309.164063 160.992188 C 310.480469 161.152344 311.042969 162.609375 311.128906 163.8125 C 311.128906 163.8125 310.992188 166.03125 310.5 166.5 C 310.230469 167.453125 307.367188 169.234375 308.78125 170.234375 L 308.410156 170.585938 C 308.613281 171.914063 309.917969 172.550781 310.992188 172.820313 C 321.207031 164.339844 329.867188 155.570313 338.53125 146.6875 L 339.132813 146.703125 C 339.921875 148.527344 341.4375 150.132813 341.617188 152.300781 C 334.332031 159.183594 327.070313 165.226563 319.539063 172.34375 Z M 227.199219 161.429688 C 229.601563 161.378906 231.703125 159.273438 234.34375 159.472656 C 237.679688 156.320313 231.988281 153.515625 232.320313 150.28125 L 239.167969 150.355469 C 242.054688 154.523438 243.230469 159.722656 246.125 163.53125 C 246.757813 162.347656 247.800781 163.816406 248.308594 162.75 C 248.308594 162.75 250.691406 167.746094 251.253906 169.203125 C 250.148438 170.011719 248.277344 168.15625 247.507813 169.816406 C 240.242188 171.773438 237.851563 179.878906 233.507813 184.683594 C 233.507813 184.683594 228.640625 169.882813 223.996094 164.222656 C 222.492188 162.136719 219.621094 161.695313 218.972656 159.152344 C 219.265625 157.238281 221.582031 156.105469 223.050781 155.183594 Z M 224.042969 154.011719 L 227.097656 152.296875 C 228.410156 152.574219 228.59375 150.414063 229.886719 151.414063 C 231.15625 153.253906 231.8125 155.554688 232.238281 157.367188 L 227.257813 159.269531 Z M 279.761719 151.265625 C 282.027344 156.015625 282.46875 161.675781 285.230469 165.960938 C 284.628906 165.945313 290.902344 173.574219 295.09375 174.171875 L 293.894531 178.222656 C 292.007813 176.96875 289.578125 177.980469 287.875 178.65625 L 287.90625 177.574219 C 287.558594 177.082031 287.082031 176.949219 286.730469 176.699219 L 282.539063 171.894531 C 281.992188 169.953125 281.128906 167.511719 282.851563 166.117188 L 279.203125 154.964844 L 277.917969 151.53125 L 264.742188 151.078125 C 264.148438 150.824219 264.050781 150.097656 263.824219 149.613281 L 279.214844 149.328125 C 280.289063 149.480469 279.535156 150.660156 279.761719 151.265625 Z M 269.089844 171.511719 C 269.671875 172.25 254.355469 169.890625 254.355469 169.890625 L 251.632813 164.285156 C 254.9375 162.097656 258.355469 160.273438 262.003906 158.691406 Z M 257.964844 173.960938 C 257.722656 174.074219 257.703125 174.792969 257.230469 174.421875 C 256.03125 174.386719 256.308594 173.070313 256.332031 172.230469 C 257.417969 172.140625 257.992188 173 257.964844 173.960938 Z M 251.183594 163.074219 C 249.328125 160.738281 248.570313 157.832031 249.851563 154.984375 C 250.570313 155.125 251.15625 155.621094 251.621094 156.234375 C 254.734375 156.5625 257.335938 158.078125 260.578125 158.171875 C 257.761719 160.015625 254.234375 161.476563 251.183594 163.074219 Z M 254.902344 171.828125 C 254.757813 172.667969 255.105469 173.15625 255.203125 173.882813 C 255.410156 175.089844 256.726563 175.246094 257.800781 175.519531 C 259.015625 175.070313 258.929688 173.867188 259.195313 172.914063 C 259.195313 172.914063 279.023438 172.996094 281.078125 172.574219 C 281.652344 173.550781 283.433594 174.203125 283.035156 175.632813 C 284.792969 177.125 284.25 179.394531 283.957031 181.1875 C 282.226563 178.734375 279.613281 177.578125 277.25 176.191406 C 272.152344 173.761719 265.175781 174.046875 260.289063 176.789063 C 253.464844 180.199219 249.921875 203.292969 249.921875 203.292969 C 249.921875 203.292969 238.742188 190.839844 235.363281 187.019531 C 240.472656 180.675781 244.632813 169.496094 254.902344 171.828125 Z M 283.691406 199.085938 C 282.585938 204.101563 278.25 208.664063 273.171875 209.839844 C 271.953125 210.40625 269.917969 210.109375 268.84375 209.839844 C 265.582031 210.46875 262.265625 208.8125 259.675781 206.816406 C 255.820313 202.980469 253.546875 198.46875 254.550781 192.730469 C 255.429688 187.105469 260.394531 181.480469 266.074219 180.4375 C 271.886719 178.921875 277.214844 181.597656 280.714844 185.421875 C 283.609375 189.230469 284.664063 194.425781 283.691406 199.085938 Z M 258.207031 216.265625 C 258.710938 215.4375 258.617188 214.476563 258.039063 213.738281 C 258.625 214.234375 259.714844 213.90625 260.054688 214.757813 C 265.945313 218.769531 274.597656 218.773438 281.382813 216.925781 L 283.304688 221.183594 C 273.015625 219.570313 256.5 218.5 252.4375 216.34375 Z M 282.644531 210.472656 C 289.058594 204.644531 290.898438 194.964844 288 186.949219 C 289.546875 187.472656 291.328125 188.246094 293.144531 187.695313 C 295.585938 186.445313 295.894531 184.050781 296.554688 181.90625 C 296.578125 181.0625 294.945313 179.335938 296.628906 179.382813 C 296.425781 177.9375 297.429688 176.523438 297.351563 175.078125 L 297.828125 175.09375 C 300.308594 176.605469 301.542969 179.761719 302.546875 182.4375 C 303.308594 185.339844 301.558594 187.695313 300.648438 190.070313 C 297.828125 192.035156 295.589844 194.734375 293.003906 196.945313 C 292.355469 202.816406 288.09375 209.0625 282.644531 210.472656 Z M 299.359375 142.328125 C 300.808594 142.128906 306.78125 143.382813 306.78125 143.382813 C 309.386719 148.984375 312.59375 154.480469 314.957031 160.195313 L 316.140625 160.828125 C 316.230469 161.914063 314.921875 161.398438 314.3125 161.738281 C 312.082031 159.875 309.34375 158.953125 306.34375 158.75 C 304.460938 153.167969 301.609375 147.800781 299.359375 142.328125 Z M 334.6875 140.84375 C 334.6875 138.785156 336.355469 137.117188 338.414063 137.117188 C 340.472656 137.117188 342.140625 138.785156 342.140625 140.84375 C 342.140625 142.898438 340.472656 144.566406 338.414063 144.566406 C 336.355469 144.566406 334.6875 142.898438 334.6875 140.84375 Z M 331.324219 180.488281 C 330.75 179.511719 332.582031 178.480469 332.023438 177.023438 C 332.074219 175.222656 329.992188 176.605469 329.664063 175.394531 C 334.210938 171.917969 337.679688 168.289063 342.890625 166.636719 C 349.011719 175.464844 353.289063 185.558594 350.929688 196.785156 C 350.859375 194.980469 348.128906 207.886719 347.203125 206.660156 C 341.214844 205.886719 334.621094 201.847656 328.753906 201.082031 L 331.882813 181.945313 C 331.535156 181.457031 330.707031 181.070313 331.324219 180.488281 Z M 204.191406 146.355469 C 204.570313 141.5625 207.566406 137.5625 211.035156 133.933594 C 214.15625 129.816406 219.332031 128.832031 223.113281 127.546875 C 229.628906 126.652344 236.71875 126.613281 241.621094 131.679688 C 237.703125 130.003906 233.527344 128.925781 228.722656 128.90625 C 218.007813 129.566406 207.949219 136.730469 204.191406 146.355469 Z M 214.15625 172.117188 C 214.34375 169.839844 212.980469 167.035156 214.707031 165.402344 C 218.726563 167.800781 219.671875 172.632813 220.277344 176.617188 C 218.492188 176.085938 216.855469 174.355469 215.820313 172.765625 Z M 222.324219 180.761719 C 223.4375 183.914063 226.128906 186.394531 228.851563 187.914063 C 225.355469 188.175781 223.089844 187.632813 219.355469 188.003906 C 216.511719 186.601563 217.21875 182.777344 216.089844 180.222656 C 218.382813 179.925781 220.414063 180.226563 222.324219 180.761719 Z M 229.058594 189.003906 C 229.894531 189.265625 230.589844 190.128906 230.320313 191.078125 C 229.609375 190.820313 229.230469 191.410156 228.742188 191.757813 C 229.261719 194.535156 228.574219 197.640625 226.707031 199.871094 C 224.722656 197.890625 223.101563 195.683594 221.355469 193.710938 C 220.519531 193.445313 219.304688 194.011719 218.5625 194.710938 C 218.136719 192.777344 218.070313 190.851563 218.007813 188.929688 Z M 290.296875 228.832031 C 288.699219 229.988281 287.546875 228.394531 286.179688 229.917969 C 264.921875 229.433594 245.691406 221.199219 228.835938 209.546875 C 225.460938 205.722656 220.136719 202.808594 218.472656 197.835938 C 218.277344 196.265625 219.621094 195.585938 220.722656 194.894531 C 221.671875 195.28125 220.578125 195.730469 221.167969 196.109375 C 226.15625 202.378906 231.421875 207.335938 237.667969 211.71875 C 240.375 213.71875 243.582031 215.011719 246.164063 217.125 C 257.550781 222.496094 269.839844 225.609375 282.894531 227.179688 C 283.503906 226.839844 283.515625 226.359375 283.535156 225.636719 C 285.234375 225.085938 287.097656 222.972656 289.113281 223.871094 C 287.96875 226.125 291.90625 227.078125 290.296875 228.832031 Z M 291.574219 213.488281 C 293.890625 212.230469 296.21875 210.734375 296.421875 207.738281 C 297.988281 207.539063 299.296875 208.058594 300.351563 209.050781 C 303.183594 210.8125 306.847656 213.078125 305.402344 217.363281 C 304.480469 220.222656 302.695313 223.777344 299.328125 223.921875 L 299.589844 223.210938 C 297.398438 219.902344 294.496094 216.335938 291.574219 213.488281 Z M 316.144531 228.363281 C 309.464844 226.734375 302.613281 226.660156 295.777344 226.226563 C 296.683594 223.96875 299.753906 225.855469 301.105469 224.8125 C 305.136719 222.523438 306.574219 218.359375 306.582031 213.914063 C 310.570313 217.390625 314.96875 219.078125 319.484375 220.769531 C 321.914063 224.082031 315.054688 224.488281 316.144531 228.363281 Z M 320.21875 216.105469 C 317.957031 215.316406 315.96875 213.460938 314.078125 212.203125 C 315.039063 212.351563 314.59375 211.136719 315.316406 211.035156 L 321.136719 213.367188 C 320.871094 214.320313 321.085938 215.167969 320.21875 216.105469 Z M 314.394531 209.570313 C 313.953125 208.234375 312.421875 207.109375 312.46875 205.429688 C 312.847656 204.839844 313.574219 204.617188 314.039063 205.113281 C 316.664063 205.910156 317.339844 203.164063 318.707031 201.640625 C 318.945313 201.648438 319.308594 201.535156 319.539063 201.902344 C 320.609375 202.296875 321.839844 201.367188 322.464844 200.546875 C 323.601563 202.742188 321.035156 204.230469 321.9375 206.296875 C 323.738281 206.351563 325.738281 207.96875 327.21875 206.570313 C 327.007813 205.601563 327.878906 204.425781 327.914063 203.222656 C 335.902344 205.492188 343.605469 209.195313 351.710938 211.589844 C 350.402344 215.277344 348.984375 218.722656 347.324219 222.160156 C 336.140625 218.238281 325.464844 213.367188 314.394531 209.570313 Z M 350.679688 226.820313 L 349.960938 230.886719 C 345.0625 229.90625 340.941406 226.90625 336.15625 226.167969 C 335.871094 223.519531 334.617188 221.078125 333.84375 218.652344 C 339.199219 220.488281 344.675781 222.324219 350.019531 224.640625 C 349.886719 224.996094 349.71875 226.792969 351.046875 226.59375 C 351.039063 226.710938 350.917969 226.828125 350.679688 226.820313 Z M 351.699219 224.6875 C 352.894531 220.757813 354.203125 216.949219 355.984375 213.394531 L 356.347656 213.402344 L 416.070313 234.566406 C 424.253906 238.28125 433.078125 240.695313 441.394531 244.175781 C 439.367188 247.722656 439.003906 252.160156 437.214844 255.835938 C 432.558594 254.859375 421.164063 249.851563 419.957031 250.058594 C 407.59375 245.261719 394.386719 240.679688 381.539063 235.988281 C 378.445313 234.941406 375.359375 233.652344 372.398438 232.125 C 365.242188 230.238281 358.097656 227.875 351.699219 224.6875 Z M 423.078125 212.054688 C 423.808594 211.714844 421.542969 211.046875 421.542969 211.046875 C 421.542969 211.046875 420.59375 210.660156 420.652344 212.824219 C 417.964844 214.3125 414.621094 213.617188 411.714844 214.492188 L 411.527344 208.238281 C 412.992188 207.5625 414.226563 206.394531 415.910156 206.320313 L 417.855469 211.605469 L 418.820313 211.367188 C 419.003906 209.089844 417.421875 208.167969 417.492188 205.644531 C 419.789063 205.109375 422.472656 203.742188 424.867188 204.050781 L 428.566406 213.410156 L 426.527344 213.230469 C 426.046875 213.21875 425.796875 213.691406 425.902344 214.175781 C 427.011719 215.34375 429.902344 217.988281 429.902344 217.988281 L 435.210938 233.304688 C 435.210938 233.304688 435.839844 236.570313 434.96875 237.625 C 432.296875 238.632813 429.6875 237.355469 427.304688 236.6875 C 423.277344 234.652344 419.246094 232.734375 415.203125 231.175781 C 412.257813 229.171875 403.550781 226.878906 404.484375 227.867188 L 403.285156 227.714844 C 402.699219 227.214844 402.476563 226.609375 402.128906 226.117188 C 402.269531 225.402344 402.71875 222.289063 402.492188 221.804688 C 402.867188 221.332031 402.882813 220.734375 403.140625 220.140625 C 409.183594 218.867188 414.804688 215.664063 420.945313 215.238281 C 421.933594 214.304688 423.628906 213.871094 423.078125 212.054688 Z M 446.035156 221.847656 C 448.078125 217.578125 449.5 212.5625 451.539063 208.414063 L 454.855469 210.191406 C 454.410156 213.183594 452.296875 215.644531 451.371094 218.625 C 451.265625 222.347656 447.1875 221.988281 445.21875 223.738281 C 441.792969 221.597656 437.976563 220.527344 434.042969 219.453125 C 437.0625 214.734375 439.007813 209.621094 441.789063 204.773438 L 448.226563 206.636719 L 448.4375 207.726563 C 447.21875 212.496094 445.167969 217.007813 444.1875 221.90625 C 444.296875 222.269531 445.667969 222.078125 446.035156 221.847656 Z M 420.394531 289.605469 C 417.171875 288.914063 413.957031 287.859375 411.117188 286.21875 C 410.417969 285.476563 411.523438 284.667969 410.945313 283.808594 L 413.734375 270.308594 C 413.496094 270.183594 416.578125 271.710938 418.347656 272.84375 C 419.660156 273.242188 420.964844 273.757813 421.90625 274.507813 C 420.9375 279.046875 420.910156 284.210938 420.050781 288.996094 Z M 402.683594 248.964844 L 402.953125 252.097656 C 398.316406 254.609375 393.574219 256.640625 388.9375 259.03125 L 387.550781 252.863281 Z M 388.398438 239.910156 L 402.796875 245.003906 C 402.253906 247.152344 400.839844 246.152344 400.582031 246.742188 L 387.644531 249.5 C 387.460938 247.574219 388.140625 240.503906 388.398438 239.910156 Z M 403.398438 253.3125 C 403.4375 256.199219 404.933594 258.523438 405.824219 261.074219 L 391.96875 266.566406 C 391.046875 265.21875 390.726563 263.769531 390.042969 262.425781 C 394.457031 259.308594 398.890625 255.589844 403.398438 253.3125 Z M 405.785156 262.394531 L 406.636719 262.058594 L 410.453125 267.332031 C 405.941406 269.609375 401.417969 272.363281 396.792969 274.394531 L 393.445313 269.613281 C 397.609375 266.847656 406.261719 262.527344 405.785156 262.394531 Z M 410.730469 270.222656 C 409.886719 274.527344 410.238281 283.429688 409.105469 285.199219 C 405.445313 282.8125 401.671875 280.300781 398.765625 276.855469 C 402.679688 274.441406 406.941406 272.519531 410.730469 270.222656 Z M 404.328125 246.007813 C 405.539063 245.683594 406.832031 246.679688 408.027344 246.957031 C 408.070313 249.601563 411.0625 250.046875 412.695313 251.773438 C 413.199219 250.949219 413.589844 249.996094 413.734375 249.039063 C 414.4375 249.78125 415.527344 249.453125 416.230469 250.070313 C 417.109375 252.980469 417.726563 256.601563 420.3125 258.71875 C 423.9375 262.1875 429.53125 264.027344 434.632813 262.25 C 436.597656 260.742188 439.863281 259.996094 440.058594 257.355469 C 440.789063 257.019531 441.355469 258.117188 441.863281 257.167969 C 440.925781 256.421875 442.941406 257.320313 443.1875 257.207031 C 443.894531 253.382813 446.394531 249.96875 446.140625 246.234375 L 441.871094 244.191406 C 441.871094 244.191406 441.667969 242.984375 442.050781 242.152344 C 442.042969 238.1875 436.304688 237.183594 436.664063 232.988281 C 435.273438 231.144531 432.984375 222.910156 432.789063 221.222656 L 435.546875 221.539063 C 445.230469 223.257813 454.007813 231.554688 455.535156 241.214844 C 454.800781 241.671875 455.507813 242.175781 455.859375 242.542969 C 456.183594 243.753906 456.863281 245.21875 455.992188 246.273438 C 456.757813 249.058594 455.933594 252.640625 455.25 255.503906 C 453.953125 258.832031 452.636719 262.882813 449.46875 264.472656 C 449.175781 266.269531 447.085938 268.011719 445.488281 269.289063 C 438.003906 274.722656 426.800781 275.605469 418.632813 271.289063 C 409.640625 266.347656 403.183594 256.671875 404.328125 246.007813 Z M 436.53125 237.667969 C 438.433594 238.324219 440.289063 240.660156 440.484375 242.347656 C 439.644531 242.203125 438.9375 241.703125 438.109375 241.320313 C 438.386719 240.007813 435.292969 238.957031 436.53125 237.667969 Z M 425.125 275.441406 L 425.132813 275.199219 L 429.683594 275.6875 C 428.105469 280.453125 427.230469 285.953125 426.367188 290.855469 L 421.9375 290.25 L 420.996094 289.621094 C 422.097656 284.726563 424.148438 280.097656 425.125 275.441406 Z M 431.035156 283.058594 C 431.683594 285.71875 432.8125 288.15625 432.972656 291.042969 L 430.089844 291.082031 L 429.496094 290.707031 C 429.929688 288.195313 430.246094 285.4375 431.035156 283.058594 Z M 432.695313 275.414063 L 435.46875 275.132813 C 438.105469 279.53125 440.863281 283.9375 443.136719 288.570313 C 443.71875 289.1875 439.839844 290.398438 436.949219 290.675781 C 435.285156 285.703125 434.234375 280.386719 432.695313 275.414063 Z M 438.855469 274.265625 C 441.179688 272.890625 443.71875 272.363281 445.8125 270.5 C 447.835938 275.484375 449.003906 280.921875 450.535156 286.136719 C 449.304688 287.179688 447.730469 287.617188 446.277344 288.054688 C 443.765625 283.417969 440.882813 279.011719 438.855469 274.265625 Z M 448.648438 267.9375 C 449.917969 265.570313 451.152344 268.609375 452.597656 268.527344 C 454.171875 272.417969 456.714844 275.855469 458.164063 279.863281 C 459.351563 280.375 459.507813 279.058594 460.347656 279.203125 L 457.257813 282.238281 C 455.6875 282.433594 454.652344 285.050781 453.375 283.453125 Z M 456.625 270.566406 C 459.605469 271.492188 462.332031 272.769531 465.050781 274.410156 L 461.332031 278.390625 C 459.347656 276.289063 458.476563 273.140625 456.625 270.566406 Z M 463.367188 270.15625 L 453.996094 265.804688 C 453.667969 264.714844 452.746094 263.363281 453.492188 262.425781 C 459.109375 263.546875 464.21875 265.492188 469.714844 266.609375 C 468.941406 268.511719 467.4375 270.632813 466.683594 271.8125 C 465.992188 270.832031 464.429688 270.785156 463.367188 270.15625 Z M 456.203125 260.097656 L 455.023438 259.34375 C 456.773438 256.871094 456.636719 253.261719 457.789063 250.769531 C 462.152344 253.660156 467 256.441406 471.605469 259.335938 L 472.570313 259.242188 L 470.875 263.878906 C 465.734375 263.011719 461.09375 261.320313 456.203125 260.097656 Z M 459.308594 248.050781 C 459.820313 246.984375 461.507813 246.789063 462.601563 246.339844 C 466.664063 247.058594 470.59375 248.371094 474.171875 249.433594 C 473.746094 251.703125 474.011719 254.957031 473.007813 256.488281 C 468.402344 253.59375 463.914063 250.824219 459.308594 248.050781 Z M 468.410156 244.945313 C 470.226563 244.394531 472.179688 243.367188 473.976563 243.539063 L 474.128906 246.667969 Z M 457.335938 241.386719 L 471.878906 232.785156 C 472.769531 235.214844 473.300781 237.753906 473.46875 240.28125 C 468.269531 241.335938 462.386719 245.492188 457.335938 241.386719 Z M 457.542969 238.265625 L 456.222656 238.230469 C 455.351563 235.078125 453.265625 232.378906 451.664063 229.449219 C 451.664063 229.449219 465.253906 224.785156 467.789063 224.378906 C 467.789063 224.378906 468.121094 225.347656 468.71875 225.605469 C 469.394531 227.1875 470.4375 228.539063 470.75 230.230469 Z M 451.582031 228.121094 C 448.074219 228.984375 451.53125 225.71875 451.683594 224.519531 L 464.21875 218.988281 C 465.386719 220.222656 466.664063 221.703125 466.867188 223.027344 C 461.996094 225.296875 456.457031 225.738281 451.582031 228.121094 Z M 454.113281 219.421875 C 454.902344 216.921875 456.167969 214.675781 457.078125 212.296875 C 458.613281 213.300781 460.621094 214.441406 461.769531 216.394531 Z M 431.6875 217.824219 C 429.042969 213.542969 429.207031 207.78125 428.246094 203.546875 C 431.144531 203.027344 435.347656 203.148438 438.453125 203.835938 C 436.394531 208.585938 433.980469 213.203125 431.6875 217.824219 Z M 409.175781 215.023438 C 406.773438 214.953125 403.835938 216.792969 402.09375 214.703125 C 404.066406 212.953125 406.285156 210.976563 408.722656 209.722656 C 409.15625 211.417969 409.339844 213.34375 409.175781 215.023438 Z M 458.742188 299.359375 C 441.773438 310.378906 416.269531 310.050781 399.53125 299.003906 C 390.457031 292.796875 381.824219 284.886719 377.222656 274.707031 C 371.984375 263.589844 369.34375 250.554688 372.363281 237.289063 C 373.816406 237.332031 380.453125 238.492188 381.640625 239.003906 C 381.777344 242.613281 380.117188 246.050781 380.257813 249.660156 C 380.539063 269.378906 394.160156 289.109375 412.953125 295.894531 C 429.925781 303.34375 450.621094 298.164063 464.175781 286.289063 C 479.949219 272.558594 485.070313 248.671875 477.203125 229.460938 C 471.054688 213.304688 455.292969 201.320313 438.917969 198.210938 C 419.898438 195.148438 402.359375 203.421875 390.882813 218.238281 C 389.070313 218.546875 382.492188 215.765625 380.789063 215.1875 C 382.753906 211.277344 386.550781 207.816406 389.421875 204.59375 C 404.664063 189.164063 429.9375 183.535156 450.855469 191.664063 C 471.136719 198.984375 487.464844 219.933594 488.167969 241.632813 C 490.015625 265.082031 479.679688 288.191406 458.742188 299.359375 "/>
<path style=" stroke:none;fill-rule:nonzero;fill:rgb(0%,0%,0%);fill-opacity:1;" d="M 388.433594 98.953125 C 389.933594 101.160156 392.300781 102.425781 394.839844 101.898438 C 400.652344 100.261719 406.246094 98.015625 412.285156 96.867188 C 413.046875 95.566406 414.722656 95.734375 415.128906 94.183594 C 415.414063 92.507813 413.765625 91.378906 412.457031 90.863281 C 410.441406 89.84375 409.0625 91.96875 407.128906 92.273438 C 400.710938 94.015625 393.71875 94.898438 387.871094 97.613281 C 388.59375 97.515625 388.804688 98.601563 388.433594 98.953125 "/>
<path style=" stroke:none;fill-rule:nonzero;fill:rgb(0%,0%,0%);fill-opacity:1;" d="M 300.25 194.921875 C 298.6875 194.921875 297.421875 196.1875 297.421875 197.75 C 297.421875 199.3125 298.6875 200.578125 300.25 200.578125 C 301.8125 200.578125 303.078125 199.3125 303.078125 197.75 C 303.078125 196.1875 301.8125 194.921875 300.25 194.921875 "/>
<path style=" stroke:none;fill-rule:nonzero;fill:rgb(0%,0%,0%);fill-opacity:1;" d="M 323.625 187.886719 C 324.941406 187.886719 326.011719 186.816406 326.011719 185.5 C 326.011719 184.183594 324.941406 183.113281 323.625 183.113281 C 322.308594 183.113281 321.238281 184.183594 321.238281 185.5 C 321.238281 186.816406 322.308594 187.886719 323.625 187.886719 "/>
<path style=" stroke:none;fill-rule:nonzero;fill:rgb(0%,0%,0%);fill-opacity:1;" d="M 322.78125 190.160156 C 321.371094 190.160156 320.226563 191.308594 320.226563 192.71875 C 320.226563 194.128906 321.371094 195.273438 322.78125 195.273438 C 324.191406 195.273438 325.339844 194.128906 325.339844 192.71875 C 325.339844 191.308594 324.191406 190.160156 322.78125 190.160156 "/>
<path style=" stroke:none;fill-rule:nonzero;fill:rgb(0%,0%,0%);fill-opacity:1;" d="M 291.3125 178.835938 C 289.214844 178.835938 287.511719 180.617188 287.511719 182.8125 C 287.511719 185.007813 289.214844 186.789063 291.3125 186.789063 C 293.410156 186.789063 295.113281 185.007813 295.113281 182.8125 C 295.113281 180.617188 293.410156 178.835938 291.3125 178.835938 "/>
</g>
</svg>
