<?xml version="1.0" encoding="UTF-8"?>
<svg xmlns="http://www.w3.org/2000/svg" xmlns:xlink="http://www.w3.org/1999/xlink" width="515pt" height="440pt" viewBox="0 0 515 440" version="1.1">
<g id="surface1">
<path style=" stroke:none;fill-rule:nonzero;fill:rgb(0%,0%,0%);fill-opacity:1;" d="M 514.984375 382.542969 C 514.921875 381.414063 514.613281 380.40625 513.59375 380.414063 C 509.082031 380.253906 506.140625 377.28125 503.199219 375.261719 L 406.5625 297.429688 L 362.625 259.371094 L 315.4375 214.441406 L 271.503906 168.878906 L 223.679688 116.535156 L 181.011719 70.339844 L 174.003906 53.421875 C 172.691406 50.78125 170.097656 51.597656 171.226563 55.074219 C 172.613281 58.980469 174.792969 62.8125 175.132813 66.726563 C 165.824219 48.554688 157.6875 29.84375 145.84375 12.664063 C 144.066406 9.800781 142.707031 7.949219 141.523438 9.117188 C 140.050781 10.574219 140.976563 11.554688 143.441406 15.21875 L 145.210938 107.042969 C 137.363281 100.804688 110.113281 75.996094 102.890625 68.28125 C 97.601563 62.628906 93.09375 56.644531 92.148438 49.1875 C 91.710938 44.976563 87.757813 46.933594 88.1875 48.835938 C 89.320313 53.851563 92.464844 58.363281 93.140625 63.109375 C 83.738281 47.019531 57.070313 4.257813 52.824219 0.0117188 C 50.5625 1.816406 51.554688 4.167969 52.460938 6.15625 C 41.339844 38.972656 22.898438 68.804688 3.011719 98.003906 L 1.585938 97.15625 C 0.566406 96.65625 -0.875 97.871094 0.390625 99.269531 L 55.445313 150.074219 C 47.628906 145.921875 39.703125 140.222656 31.835938 135.390625 C 30.164063 134.363281 29.097656 135.253906 30.566406 137.46875 C 31.058594 138.203125 34.167969 140.378906 35.554688 141.214844 L 37.816406 162.371094 L 55.714844 281.878906 L 63.21875 340.097656 L 67.105469 383.039063 L 65.207031 384.664063 C 64.132813 385.578125 64.03125 386.347656 65.476563 386.652344 C 79.664063 389.058594 95.300781 391.710938 109.414063 393.433594 C 102.632813 396.6875 95.761719 399.941406 89.613281 404.554688 C 85.609375 407.449219 88.144531 410.179688 90.09375 411.4375 C 92.566406 413.03125 95.902344 413.039063 99.015625 413.320313 L 116.285156 425.976563 C 115.742188 426.609375 114.785156 426.671875 114.296875 426.339844 C 103.265625 420.011719 93.773438 430.226563 81.75 426.339844 C 76.039063 424.148438 70.253906 424.570313 64.421875 425.277344 C 63.328125 425.410156 63.019531 425.855469 64.550781 425.882813 C 69.042969 425.960938 73.375 426.285156 74.882813 426.613281 C 82.238281 428.222656 86.613281 428.4375 94.0625 427.882813 C 101.226563 427.347656 108.363281 427.269531 114.929688 430.589844 C 120.171875 430.226563 125.777344 430.859375 130.566406 432.488281 C 126.046875 434.65625 120.621094 434.65625 115.652344 435.46875 L 115.652344 436.101563 C 115.652344 436.101563 128.757813 436.546875 134.183594 433.480469 C 138.433594 431.671875 143.945313 436.011719 147.835938 432.214844 L 150.09375 434.113281 C 146.75 437.367188 142.136719 437.1875 138.433594 439.359375 L 138.433594 439.988281 C 142.949219 439.929688 146.382813 439.820313 148.664063 437.914063 C 150.667969 436.238281 153.457031 436.730469 156.355469 437.070313 C 160.890625 437.605469 165.574219 437.894531 164.738281 435.109375 C 168.5 433.519531 172.339844 437.882813 175.679688 435.265625 C 177.328125 433.972656 179.207031 434.316406 180.953125 435.292969 C 186.1875 438.21875 201.195313 433.472656 194.660156 430.859375 L 200.898438 429.957031 C 203.398438 429.472656 206.003906 430.691406 208.484375 430.589844 C 211.34375 430.472656 212.980469 429.347656 210.300781 427.605469 L 211.296875 426.972656 L 219.429688 430.226563 C 222.234375 431.039063 226.300781 429.957031 228.5625 431.222656 C 228.472656 431.761719 227.296875 432.304688 228.199219 432.847656 C 239.429688 437.167969 250.492188 427.867188 261.785156 431.289063 C 262.3125 431.449219 269.152344 433.84375 268.878906 430.589844 C 275.75 431.945313 282.167969 429.324219 288.769531 430.226563 C 297.898438 434.203125 308.746094 434.746094 319.050781 434.835938 L 319.050781 434.113281 C 315.617188 434.113281 307.980469 432.855469 307.691406 432.578125 C 307.023438 431.933594 307.144531 430.476563 307.300781 429.59375 C 313.609375 430.246094 320.390625 433.484375 323.539063 430.582031 C 326.546875 427.816406 329.664063 431.140625 332.976563 432.402344 C 338.199219 434.398438 341.570313 433.238281 340.476563 429.230469 C 344.636719 430.5 349.789063 428.238281 354.128906 429.957031 C 352.5 431.671875 349.859375 432.226563 347.347656 432.214844 C 346.445313 432.304688 344.816406 432.125 345.089844 433.480469 C 353.675781 434.925781 363.53125 433.480469 372.75 433.480469 C 369.496094 435.019531 365.789063 435.742188 362.265625 436.734375 L 362.265625 437.730469 C 362.265625 437.730469 368.765625 436.972656 370.628906 436.527344 C 373.691406 435.792969 376.65625 434.769531 379.664063 434.214844 C 384.996094 433.234375 396.785156 433.386719 400.304688 433.457031 C 402.890625 433.511719 402.140625 431.769531 399.417969 429.957031 C 404.820313 429.703125 409.902344 432.046875 415.703125 431.921875 C 417.414063 431.882813 417.542969 431.097656 416.683594 429.957031 C 425.09375 428.238281 433.769531 429.050781 442.359375 429.957031 C 451.851563 428.058594 462.519531 428.058594 472.644531 428.597656 L 472.644531 427.976563 C 461.488281 426.828125 457.695313 426.257813 445.851563 427.472656 C 442.054688 427.867188 438.683594 428.285156 437.839844 427.96875 C 431.710938 426.269531 425.949219 427.175781 420.007813 427.628906 C 417.09375 427.847656 409.363281 427.875 409.453125 426.703125 C 414.035156 425.796875 417.285156 425.007813 421.839844 424.078125 L 507.808594 386.925781 C 509.445313 386.136719 511.414063 385.992188 512.90625 385.609375 C 515.296875 385 515.074219 384.109375 514.984375 382.542969 Z M 367.507813 401.296875 C 365.378906 402.007813 365.128906 396.839844 367.429688 396.554688 C 374.621094 395.367188 391.378906 393.84375 399.257813 393.203125 C 403.957031 392.820313 399.378906 393.5 399.378906 393.5 L 368.140625 397.050781 C 366.472656 397.417969 366.601563 400.214844 367.507813 401.296875 Z M 363.257813 386.652344 C 360.367188 387.738281 360.816406 390.992188 358.105469 392.53125 C 357.210938 389.308594 360.679688 385.105469 365.878906 385.296875 C 363.296875 388.203125 367.867188 393.433594 367.867188 393.433594 C 367.070313 393.914063 366.554688 393.816406 366.175781 393.445313 C 365.199219 392.492188 363.070313 388.832031 364.253906 387.648438 Z M 316.703125 400.304688 C 319.152344 402.128906 324.023438 400.847656 327.460938 401.929688 C 325.742188 404.644531 322.585938 400.472656 321.652344 403.207031 C 320.277344 406.957031 316.859375 405.707031 316.464844 408.398438 C 316.261719 409.8125 313.449219 410.628906 311.550781 410.066406 C 312.585938 407.996094 314.914063 407.5 316.554688 406.226563 C 318.992188 404.332031 316.703125 400.304688 316.703125 400.304688 Z M 328.210938 406.804688 C 331.589844 405.113281 331.554688 399.324219 325.207031 399.707031 C 322.890625 399.847656 320.429688 400.710938 318.328125 398.675781 C 317.246094 398.496094 315.257813 399.128906 315.4375 397.410156 C 321.132813 395.875 329.664063 395.480469 334.601563 395.785156 C 334.265625 397.628906 332.765625 401.398438 336.230469 400.9375 C 332.339844 404.011719 329.628906 409.796875 323.933594 408.441406 C 325.261719 407.777344 326.851563 407.488281 328.210938 406.804688 Z M 337.585938 401.929688 C 338.351563 402.292969 338.625 402.835938 338.566406 403.421875 C 338.511719 404.011719 337.25 406.214844 336.914063 406.519531 C 335.738281 407.59375 333.351563 407.15625 331.347656 407.445313 Z M 335.957031 397.683594 C 336.40625 396.644531 336.675781 395.722656 337.222656 394.855469 C 337.960938 393.691406 341.039063 393.480469 342.105469 394.15625 L 340.207031 397.410156 Z M 293.648438 391.535156 L 280.269531 354.742188 L 262.101563 293.902344 C 254.597656 267.503906 248.179688 240.746094 241.851563 213.808594 L 245.464844 215.164063 C 260.925781 237.582031 277.46875 259.640625 294.914063 281.15625 C 314.53125 313.15625 335.324219 344.617188 359.011719 374.902344 L 350.601563 386.019531 C 331.980469 388.734375 313.175781 391.898438 293.648438 391.535156 Z M 297.535156 412.054688 C 296 412.417969 291.992188 413.378906 291.390625 411.058594 C 293.378906 410.867188 296.453125 409.976563 297.535156 412.054688 Z M 292.023438 406.453125 C 291.933594 405.003906 293.199219 404.824219 294.28125 404.554688 C 294.191406 406.179688 293.289063 406.089844 292.023438 406.453125 Z M 295.910156 405.820313 C 296.457031 404.621094 297.546875 403.023438 296.269531 402.925781 C 293.648438 402.746094 290.214844 403.027344 287.410156 403.195313 L 286.929688 402.292969 C 291.179688 401.910156 295.1875 401.839844 299.164063 401.570313 C 298.679688 403.171875 298.894531 405.820313 295.910156 405.820313 Z M 174.515625 402.257813 C 170.636719 401.726563 161.859375 402.683594 161.628906 402.925781 C 159.605469 405.007813 160.933594 409.074219 156.964844 409.074219 C 155.515625 406.980469 157.148438 404.53125 155.675781 402.613281 C 153.050781 399.203125 149.886719 401.859375 150.324219 403.605469 C 151.21875 407.175781 145.566406 406.53125 143.945313 409.433594 C 144.035156 407.988281 145.664063 406.722656 144.578125 405.1875 L 143.585938 404.554688 C 146.226563 404.554688 146.75 400.585938 144.21875 400.664063 L 142.589844 400.9375 L 143.585938 399.039063 C 151.667969 398.792969 172.867188 399.453125 187.660156 399.589844 C 184.980469 401.910156 185.601563 407.699219 186.542969 412.265625 C 186.929688 414.140625 187.1875 416.347656 189.488281 416.375 C 191.476563 416.394531 193.835938 415.941406 194.027344 419.46875 L 173.507813 419.46875 C 174.894531 416.234375 179.007813 414.847656 180.8125 412.519531 C 183.171875 409.476563 180.226563 403.042969 174.515625 402.257813 Z M 152.355469 415.582031 L 153.078125 418.203125 C 141.867188 417.390625 130.929688 415.84375 120.171875 414.035156 L 121.4375 400.664063 C 124.328125 399.402344 127.855469 399.035156 131.199219 399.035156 C 131.109375 399.488281 131.652344 400.304688 131.921875 400.664063 C 128.214844 398.769531 125.414063 402.292969 123.785156 404.824219 C 122.941406 406.175781 125.234375 411.0625 127.675781 412.960938 C 133.371094 412.871094 138.433594 415.128906 142.953125 411.0625 C 142.953125 416.214844 149.820313 413.59375 152.714844 413.320313 C 153.800781 414.226563 152.082031 414.585938 152.355469 415.582031 Z M 138.433594 204.40625 L 147.835938 197.898438 L 149.820313 207.300781 C 146.136719 209.09375 142.5 210.902344 138.703125 212.542969 C 137.164063 210.011719 138.972656 207.300781 138.433594 204.40625 Z M 209.035156 218.054688 L 203.519531 221.671875 C 204.0625 222.9375 205.058594 224.835938 206.773438 223.570313 C 209.296875 222.058594 211.117188 221.222656 212.644531 220.441406 C 216.457031 223.300781 219.609375 225.898438 225.308594 230.441406 C 236.914063 248.964844 237.253906 272.785156 243.066406 295.882813 C 243.417969 297.28125 257.597656 361.90625 267.039063 391.171875 C 255.539063 392.039063 246.34375 392.582031 234.421875 393.089844 C 234.421875 393.089844 156.046875 209.515625 144.578125 183.253906 C 172.152344 193.164063 209.035156 218.054688 209.035156 218.054688 Z M 142.320313 178.007813 L 144.15625 175.890625 C 152.332031 180.234375 160.160156 185.253906 168.140625 190.128906 C 168.632813 190.425781 168.539063 190.523438 167.996094 190.273438 C 159.398438 186.292969 150.738281 182.429688 142.320313 178.007813 Z M 248.359375 404.554688 C 247.179688 407.007813 245.984375 409.710938 242.210938 409.433594 C 244.058594 406.394531 245.640625 402.808594 248.359375 404.554688 Z M 241.21875 404.554688 L 243.839844 404.191406 L 242.210938 406.8125 C 241.851563 406.089844 241.570313 405.457031 241.21875 404.554688 Z M 253.242188 404.191406 C 252.28125 406.523438 251.453125 409.628906 247.453125 409.074219 C 249.261719 406.246094 250.230469 403.089844 253.242188 404.191406 Z M 257.21875 404.191406 C 256.425781 405.820313 255.460938 408.949219 252.335938 408.800781 C 253.46875 406.628906 254.40625 403.164063 257.21875 404.191406 Z M 261.378906 403.921875 C 260.242188 405.902344 260.03125 408.121094 256.496094 408.800781 C 257.78125 406.449219 258.765625 403.339844 261.378906 403.921875 Z M 240.585938 402.925781 C 240.105469 401.878906 239.679688 400.757813 239.320313 399.671875 C 249.714844 399.941406 259.660156 399.21875 269.875 399.039063 C 270.023438 399.492188 270.316406 400.074219 270.507813 400.664063 C 267.414063 400.789063 263.769531 399.914063 262.371094 401.929688 C 256.296875 402.207031 247.636719 402.464844 240.585938 402.925781 Z M 239.660156 410.28125 C 238.488281 411.0625 234.796875 412.59375 234.4375 411.332031 L 227.929688 395.421875 L 228.5625 395.421875 L 234.21875 409.363281 C 235.109375 411.402344 237.410156 410.71875 239.246094 409.652344 Z M 238.597656 261.628906 L 239.589844 266.238281 C 239.320313 266.148438 239.136719 266.421875 238.957031 266.511719 C 238.867188 265.878906 237.691406 263.257813 238.597656 261.628906 Z M 237.75 260.003906 L 236.75 255.070313 L 236.964844 255.019531 L 238.324219 259.730469 Z M 239.953125 267.867188 C 240.402344 269.675781 241.21875 271.664063 240.945313 273.382813 C 239.601563 272.980469 239.4375 269.761719 239.179688 268.015625 Z M 240.945313 274.648438 C 242.03125 276.273438 242.664063 278.625 242.84375 280.886719 L 241.578125 280.886719 C 241.308594 278.804688 240.675781 276.546875 240.945313 274.648438 Z M 241.398438 267.890625 L 241.636719 267.808594 L 242.671875 271.929688 L 242.246094 272.070313 Z M 244.472656 287.394531 C 244.058594 287.511719 243.566406 287.664063 243.207031 287.664063 L 241.851563 282.148438 C 243.816406 282.332031 244.011719 284.878906 244.472656 287.394531 Z M 242.953125 274.796875 L 243.214844 274.703125 L 244.363281 279.28125 L 243.894531 279.441406 Z M 245.464844 291.28125 C 245.648438 292.273438 245.375 292.636719 244.472656 292.90625 C 244.082031 291.902344 243.8125 290.808594 243.476563 289.292969 C 245.054688 288.851563 245.226563 290.042969 245.464844 291.28125 Z M 244.675781 282.046875 L 244.9375 281.953125 L 246.089844 286.53125 L 245.617188 286.691406 Z M 245.828125 293.902344 C 246.28125 295.347656 247.335938 298.003906 246.460938 299.417969 C 245.351563 299.144531 244.964844 296.316406 244.472656 294.175781 Z M 246.097656 288.660156 C 247.003906 289.652344 247.355469 291.078125 247.453125 292.273438 C 246.550781 291.550781 246.269531 289.785156 246.097656 288.660156 Z M 248.007813 293.890625 L 249.023438 298.648438 L 248.765625 298.710938 L 247.171875 294.03125 Z M 247.453125 300.410156 C 248.089844 302.398438 249.570313 305.988281 247.453125 306.558594 C 246.871094 304.828125 246.199219 302.890625 245.828125 301.042969 Z M 250.710938 313.066406 L 249.082031 314.421875 C 248.359375 312.34375 247.453125 310.445313 247.453125 308.1875 C 249.519531 307.410156 250.117188 311.015625 250.710938 313.066406 Z M 272.132813 381.410156 C 276.121094 379.011719 277.117188 383.640625 278.011719 386.292969 C 276.957031 386.632813 275.570313 387.195313 274.121094 386.925781 C 273.089844 384.945313 272.6875 383.347656 272.132813 381.410156 Z M 273.632813 390.761719 C 272.003906 390.882813 270.550781 391.011719 268.890625 390.894531 C 269.101563 389.125 270.96875 389.09375 272.496094 388.550781 C 272.949219 389.214844 273.339844 389.960938 273.632813 390.761719 Z M 271.503906 379.511719 L 269.875 374.902344 C 272.585938 374.179688 274.574219 375.804688 275.117188 378.519531 C 274.304688 379.78125 272.675781 380.144531 271.503906 379.511719 Z M 269.242188 373.003906 L 267.253906 367.128906 C 271.449219 365.714844 272.019531 369.964844 272.769531 372.640625 C 272.316406 372.730469 270.488281 373.128906 269.242188 373.003906 Z M 264.992188 359.625 C 268.664063 358.058594 269.09375 362.199219 269.875 365.136719 C 266.140625 365.699219 265.625 362.15625 264.992188 359.625 Z M 262.804688 351.988281 C 265.921875 350.957031 266.59375 355.050781 267.253906 357.363281 C 264.03125 358.203125 263.4375 354.246094 262.804688 351.988281 Z M 261.980469 350.050781 C 261.609375 348.425781 261.257813 346.535156 260.742188 344.980469 C 263.722656 344.316406 264.03125 347.335938 264.632813 349.859375 C 264.632813 349.859375 262.949219 349.820313 261.980469 350.050781 Z M 258.484375 337.835938 C 261.296875 337.285156 261.671875 340.367188 262.101563 342.71875 C 259.332031 343.789063 258.953125 339.960938 258.484375 337.835938 Z M 256.855469 330.695313 C 259.085938 330.4375 259.480469 333.457031 259.75 335.578125 C 257.371094 336.207031 257.21875 332.503906 256.855469 330.695313 Z M 254.597656 323.191406 L 255.589844 322.832031 C 256.675781 324.367188 257.308594 326.71875 257.488281 329.066406 C 255.683594 328.253906 255.097656 325.089844 254.597656 323.191406 Z M 253.988281 320.488281 C 253.535156 319.007813 253.082031 316.8125 252.609375 315.328125 C 254.222656 314.769531 254.820313 318.15625 255.230469 320.210938 C 255.230469 320.570313 254.195313 320.78125 253.988281 320.488281 Z M 250.710938 307.554688 C 252.335938 308.546875 252.457031 310.734375 252.96875 313.429688 C 251.171875 312.617188 250.746094 308.53125 250.710938 307.554688 Z M 249.082031 300.683594 C 250.527344 301.859375 250.660156 303.925781 250.980469 305.925781 C 249.535156 304.839844 249 301.734375 249.082031 300.683594 Z M 251.34375 315.054688 C 251.839844 317.398438 251.996094 319.242188 252.226563 320.722656 C 252.136719 321.171875 250.828125 321.546875 250.546875 321.296875 C 249.734375 319.761719 249.378906 317.8125 249.082031 315.972656 Z M 252.777344 322.78125 C 253.625 324.785156 254.460938 326.753906 254.867188 328.707031 C 254.867188 328.707031 252.796875 328.804688 252.007813 328.851563 C 251.4375 327.292969 250.710938 323.191406 250.710938 323.191406 C 251.371094 322.949219 252.238281 322.863281 252.777344 322.78125 Z M 256.496094 335.214844 C 256.222656 336.390625 255.050781 336.660156 253.964844 336.480469 L 252.609375 330.695313 C 255.871094 330.25 255.945313 332.964844 256.496094 335.214844 Z M 256.855469 337.476563 C 257.398438 339.285156 258.039063 341.644531 258.484375 343.714844 C 255.109375 344.652344 254.855469 341.265625 254.234375 338.832031 C 255.273438 338.535156 256.335938 338.035156 256.855469 337.476563 Z M 259.117188 344.980469 L 260.742188 350.222656 C 259.660156 350.402344 258.824219 350.902344 257.488281 351.488281 L 255.863281 345.339844 C 256.945313 346.0625 258.121094 345.339844 259.117188 344.980469 Z M 261.105469 351.847656 C 261.539063 353.308594 262.824219 355.582031 262.605469 357.058594 C 261.679688 357.367188 259.910156 357.804688 259.117188 357.996094 C 258.847656 356.371094 258.304688 354.921875 257.851563 353.476563 Z M 263.003906 359.261719 C 263.816406 360.980469 264.496094 363.289063 264.992188 365.5 C 263.636719 366.132813 262.316406 365.347656 261.027344 364.578125 C 260.472656 362.667969 259.988281 361.28125 259.480469 359.625 Z M 265.988281 367.398438 C 266.46875 369.25 266.648438 370.671875 266.941406 372.359375 C 266.886719 372.585938 264.617188 373.355469 263.996094 372.902344 C 262.636719 371.898438 262.316406 369.195313 261.738281 367.128906 Z M 268.402344 375.574219 C 268.582031 375.882813 269.382813 378.292969 269.875 379.511719 C 268.769531 380.390625 267.546875 380.480469 265.777344 380.003906 L 263.996094 374.902344 C 265.832031 374.464844 267.417969 373.894531 268.402344 375.574219 Z M 270.234375 381.410156 C 270.960938 383.308594 272.402344 387.03125 270.867188 387.648438 C 269.128906 388.417969 268.59375 388.132813 268.082031 387.382813 C 267.214844 386.105469 265.988281 381.773438 265.988281 381.773438 C 267.164063 382.132813 269.242188 382.496094 270.234375 381.410156 Z M 268.246094 402.292969 C 267.265625 404.644531 266.113281 407.074219 264.632813 407.445313 C 263.726563 407.535156 262.621094 407.6875 261.738281 407.808594 C 262.703125 405.09375 263.90625 400.847656 268.246094 402.292969 Z M 270.527344 403.136719 C 270.914063 403.515625 271.261719 404.007813 271.863281 405.1875 C 271.46875 406.238281 271.082031 406.917969 270.585938 407.867188 L 268.246094 408.078125 C 268.699219 407.078125 269.789063 404.53125 270.527344 403.136719 Z M 271.4375 398.820313 C 273.296875 398.757813 275.367188 398.722656 276.390625 398.617188 L 277.378906 401.296875 C 276.003906 401.347656 274.121094 401.570313 272.496094 401.570313 C 272.121094 400.664063 271.789063 399.828125 271.4375 398.820313 Z M 275.8125 390.761719 L 274.746094 388.703125 C 277.339844 388.113281 278.816406 387.171875 279.636719 390.539063 C 278.28125 390.632813 277.007813 390.621094 275.8125 390.761719 Z M 284.15625 400.664063 C 282.351563 400.757813 278.195313 401.996094 278.011719 398.675781 C 280.480469 398.441406 283.371094 397.46875 284.15625 400.664063 Z M 281.628906 390.179688 C 264.359375 350.585938 252.519531 308.726563 242.210938 266.238281 L 268.609375 323.464844 C 274.847656 345.972656 282.511719 368.0625 290.464844 389.757813 C 287.484375 390.03125 284.769531 390.238281 281.628906 390.179688 Z M 240.585938 259.371094 L 234.074219 229.085938 L 237.964844 231.074219 L 253.601563 269.765625 C 256.855469 284.410156 261.285156 298.511719 265.355469 312.796875 Z M 236 250.023438 L 235.578125 250.078125 L 234.820313 244.410156 L 235.242188 244.351563 Z M 224.3125 214.441406 L 230.1875 211.546875 L 235.703125 224.925781 C 231.9375 223.617188 225.480469 223.015625 224.3125 214.441406 Z M 232.808594 242.464844 C 231.183594 237.945313 227.296875 231.789063 226.574219 225.199219 C 227.929688 225.46875 229.195313 226.011719 230.1875 227.1875 C 231.09375 232.339844 231.863281 237.078125 232.808594 242.464844 Z M 223.316406 210.703125 C 215.980469 183.898438 205.835938 149.398438 197.066406 123.1875 C 195.570313 118.722656 195.265625 117.257813 197.441406 123.058594 C 207.40625 149.632813 228.832031 207.933594 228.832031 207.933594 Z M 224.675781 227.1875 C 221.328125 224.65625 217.804688 222.574219 214.550781 219.683594 L 222.050781 215.433594 Z M 203.542969 335.570313 L 203.226563 335.679688 L 157.960938 228.453125 L 161.214844 231.074219 Z M 159.222656 265.878906 C 157.355469 265.285156 157.496094 262.996094 157.234375 260.996094 C 158.910156 261.390625 158.945313 263.472656 159.222656 265.878906 Z M 155.96875 253.855469 L 156.964844 253.855469 L 157.960938 259.371094 C 156.214844 258.808594 156.25 256.175781 155.96875 253.855469 Z M 160.851563 273.019531 C 158.320313 272.296875 158.773438 269.3125 158.230469 267.234375 C 160.671875 267.6875 160.308594 270.941406 160.851563 273.019531 Z M 162.117188 279.257813 C 159.585938 278.804688 159.894531 276.464844 159.585938 274.375 C 161.914063 274.566406 161.980469 276.902344 162.117188 279.257813 Z M 163.472656 284.410156 C 161.214844 284.320313 160.941406 282.511719 160.851563 280.523438 C 163.019531 280.523438 163.109375 282.875 163.472656 284.410156 Z M 163.820313 285.980469 L 164.738281 290.921875 C 162.3125 291.296875 162.195313 288.089844 161.847656 285.765625 C 162.488281 285.816406 163.300781 285.734375 163.820313 285.980469 Z M 165.371094 292.90625 L 166.367188 297.429688 C 163.6875 298.742188 163.511719 294.921875 163.109375 292.546875 C 163.652344 293.179688 164.859375 293.03125 165.371094 292.90625 Z M 168.355469 305.925781 C 165.09375 306.980469 164.742188 302.152344 164.46875 299.417969 C 167.636719 298.617188 167.5625 302.695313 168.355469 305.925781 Z M 169.980469 312.796875 C 169.257813 312.886719 168.445313 312.984375 167.722656 313.066406 C 167.171875 311.410156 166.816406 309.8125 166.367188 308.1875 C 169.214844 306.289063 169.390625 310.230469 169.980469 312.796875 Z M 171.609375 319.9375 C 170.796875 320.117188 169.980469 320.300781 168.988281 320.210938 L 167.722656 314.695313 C 170.679688 313.371094 171.03125 317.230469 171.609375 319.9375 Z M 172.460938 322.132813 L 173.867188 328.707031 C 172.152344 328.976563 171.066406 327.53125 169.980469 326.445313 L 169.347656 321.835938 C 170.324219 322.042969 171.492188 321.910156 172.460938 322.132813 Z M 174.503906 330.273438 L 175.132813 333.949219 C 174.230469 334.070313 172.964844 334.132813 171.878906 334.222656 L 170.613281 329.339844 C 171.699219 330.242188 172.875 330.542969 174.503906 330.273438 Z M 175.402344 336.386719 C 176.1875 337.375 176.761719 341.363281 176.761719 341.363281 C 175.800781 342.015625 174.882813 341.707031 173.519531 341.214844 L 172.242188 335.847656 C 173.8125 335.242188 174.773438 335.589844 175.402344 336.386719 Z M 177.484375 342.988281 C 178.117188 345.070313 178.46875 347.289063 179.101563 349.367188 C 178.15625 349.992188 177.121094 350.855469 175.859375 349.859375 C 174.867188 348.476563 174.480469 345.765625 173.867188 343.351563 C 174.953125 343.984375 176.492188 343.621094 177.484375 342.988281 Z M 179.382813 351.125 C 180.074219 352.746094 180.738281 354.289063 181.011719 356.007813 C 179.976563 356.761719 178.941406 357.292969 177.40625 356.929688 L 175.859375 351.488281 C 176.851563 352.121094 178.390625 351.757813 179.382813 351.125 Z M 181.644531 357.996094 C 182.15625 359.65625 182.636719 361.25 183 362.878906 C 181.742188 364.394531 179.8125 363.785156 179.113281 363.238281 C 178.5625 361.460938 178.207031 360.167969 177.757813 358.628906 C 179.292969 358.992188 180.449219 358.511719 181.644531 357.996094 Z M 183.632813 364.867188 C 184.175781 365.769531 184.175781 367.035156 184.628906 368.121094 C 183.449219 369.117188 181.371094 368.84375 180.015625 368.394531 L 179.382813 365.5 C 180.398438 365.816406 182.863281 365.765625 183.632813 364.867188 Z M 185.257813 370.019531 C 185.710938 371.464844 186.132813 373.074219 186.523438 374.628906 C 185.339844 374.765625 183.789063 374.816406 182.175781 374.570313 L 180.738281 370.382813 C 182.09375 371.015625 183.992188 370.652344 185.257813 370.019531 Z M 187.519531 376.890625 C 187.957031 378.386719 188.300781 380.007813 188.484375 381.121094 C 188.40625 381.492188 184.945313 381.609375 184.054688 380.78125 C 183.972656 380.703125 182.789063 378.398438 182.789063 376.742188 Z M 189.507813 383.398438 C 190.074219 385.398438 190.28125 386.5 190.710938 388.199219 C 189.535156 388.378906 187.246094 389.003906 185.890625 388.914063 L 184.265625 383.039063 Z M 191.40625 389.277344 L 192.761719 393.164063 C 190.59375 393.164063 186.75 394.214844 186.464844 390.117188 Z M 191.40625 383.398438 L 196.289063 381.773438 L 198.640625 387.285156 C 197.011719 388.371094 194.570313 388.011719 192.761719 387.648438 C 192.28125 386.03125 191.859375 384.753906 191.40625 383.398438 Z M 190.503906 381.410156 L 189.148438 376.890625 C 190.953125 377.070313 192.582031 376.710938 194.027344 375.894531 C 194.417969 377.179688 195.003906 378.675781 195.277344 380.148438 C 195.050781 380.59375 191.679688 381.679688 190.503906 381.410156 Z M 188.5625 374.160156 C 187.972656 373.085938 187.484375 371.738281 187.097656 370.382813 C 188.484375 370.464844 190.503906 370.578125 192.128906 369.75 C 192.554688 371 193.097656 372.5625 193.382813 373.8125 C 193.171875 374.683594 189.792969 375.480469 188.5625 374.160156 Z M 186.253906 368.121094 L 185.621094 365.5 C 188.0625 365.226563 190.277344 363.984375 191.40625 368.121094 C 189.960938 369.386719 187.882813 368.394531 186.253906 368.121094 Z M 184.898438 363.238281 C 184.445313 361.703125 184.113281 360.257813 183.632813 358.628906 C 185.550781 358.828125 186.820313 358.40625 188.238281 358.359375 L 189.507813 362.878906 C 188.332031 363.964844 186.253906 363.601563 184.898438 363.238281 Z M 183.269531 356.730469 C 182.636719 355.015625 182.226563 353.457031 181.644531 351.488281 C 183.019531 352.144531 184.535156 352.753906 185.890625 351.847656 C 186.617188 353.296875 186.96875 354.660156 187.519531 356.371094 C 185.980469 357.183594 185.007813 356.8125 183.269531 356.730469 Z M 181.011719 349.226563 L 179.113281 342.71875 C 180.285156 343.261719 181.914063 342.988281 183.269531 342.988281 L 185.257813 349.859375 C 183.902344 350.585938 182.277344 349.949219 181.011719 349.226563 Z M 178.8125 340.671875 L 177.484375 336.210938 C 181.117188 334 181.703125 337.742188 182.636719 340.730469 C 181.371094 341.933594 180.207031 341.113281 178.8125 340.671875 Z M 176.867188 333.71875 C 176.484375 332.527344 176.226563 331.285156 175.859375 329.972656 L 179.113281 329.066406 C 179.300781 330.199219 179.753906 331.820313 180.164063 333.191406 C 180.09375 333.703125 177.179688 334.304688 176.867188 333.71875 Z M 175.558594 327.710938 C 174.941406 325.382813 174.617188 323.75 174.148438 322.050781 C 175.246094 321.800781 176.101563 321.566406 176.835938 321.140625 C 177.257813 322.617188 178.332031 325.773438 178.597656 326.945313 Z M 173.234375 319.304688 C 172.964844 317.769531 172.613281 316.535156 172.242188 314.695313 C 173.054688 314.515625 173.867188 314.332031 174.863281 314.421875 C 175.414063 316.421875 175.765625 318.128906 176.492188 319.9375 C 175.277344 319.640625 174.230469 319.464844 173.234375 319.304688 Z M 171.609375 312.796875 C 171.246094 311.167969 170.976563 309.542969 170.613281 307.914063 L 172.601563 306.921875 L 174.503906 312.074219 C 173.507813 312.554688 172.695313 312.976563 171.609375 312.796875 Z M 170.253906 306.285156 L 168.355469 299.054688 C 171.101563 297.671875 171.742188 302.1875 172.382813 304.722656 C 171.625 305.492188 171.046875 305.703125 170.253906 306.285156 Z M 167.992188 297.15625 L 166.996094 291.914063 C 169.507813 291.253906 169.539063 293.988281 169.980469 296.160156 C 169.800781 296.976563 168.804688 297.339844 167.992188 297.15625 Z M 166.523438 290.089844 C 166.203125 289.214844 165.738281 287.921875 165.371094 286.398438 L 166.996094 285.765625 C 167.367188 286.804688 167.902344 288.429688 168.269531 289.503906 C 168.136719 289.898438 166.652344 290.183594 166.523438 290.089844 Z M 165.117188 283.976563 C 164.722656 283.292969 164.589844 282.183594 164.46875 281.15625 L 165.734375 280.253906 C 165.945313 281.269531 166.472656 282.320313 166.6875 283.164063 C 166.105469 283.460938 165.527344 283.855469 165.117188 283.976563 Z M 163.742188 278.894531 C 163.390625 277.609375 162.296875 275.550781 163.742188 274.648438 C 164.648438 274.738281 164.65625 276.628906 165.171875 278.261719 Z M 162.480469 273.019531 C 161.851563 271.09375 160.804688 268.628906 162.117188 266.511719 C 162.480469 268.769531 163.367188 270.484375 163.886719 272.453125 Z M 160.851563 265.246094 C 160.40625 263.597656 159.585938 261.085938 160.488281 260.003906 L 161.847656 264.882813 Z M 159.585938 258.738281 L 158.589844 253.222656 C 159.585938 254.398438 160.140625 256.445313 160.5 258.164063 C 160.210938 258.304688 159.886719 258.554688 159.585938 258.738281 Z M 158.167969 251.59375 L 157.070313 247.460938 L 157.421875 247.304688 L 158.875 251.378906 Z M 156.734375 245.105469 L 156.027344 241.675781 L 156.382813 241.519531 L 157.195313 244.886719 Z M 156.601563 251.867188 C 154.703125 252.226563 154.703125 248.882813 155.335938 247.347656 Z M 155.589844 239.324219 L 154.742188 235.792969 L 155.09375 235.792969 L 155.941406 239.324219 Z M 155.546875 244.933594 C 155.367188 245.113281 154.976563 245.457031 154.703125 245.71875 L 153.980469 241.46875 C 155.066406 242.191406 155.269531 243.265625 155.546875 244.933594 Z M 153.628906 239.632813 L 153.078125 235.957031 L 154.476563 239.492188 Z M 152.714844 210.28125 L 157.234375 221.3125 C 153.089844 220.746094 153.09375 214.664063 152.714844 210.28125 Z M 153.046875 234.730469 L 152.765625 234.730469 L 151.84375 230.355469 L 152.128906 230.355469 Z M 148.820313 218.476563 L 142.589844 214.800781 L 147.824219 212.328125 C 148.1875 214.320313 148.464844 216.308594 148.820313 218.476563 Z M 140.257813 215.742188 C 142.851563 217.402344 146.210938 219.617188 149.097656 221.3125 C 149.097656 221.3125 155.53125 263.097656 158.910156 280.625 C 164.171875 307.890625 174.941406 360.523438 185.621094 393.164063 C 165.101563 393.164063 143.3125 392.167969 122.792969 390.179688 L 137.710938 217.0625 C 138.605469 216.574219 139.546875 216.113281 140.257813 215.742188 Z M 134.183594 395.0625 L 134.816406 394.429688 C 144.21875 395.582031 155.054688 395.910156 164.914063 396.507813 C 165.859375 396.566406 165.84375 396.753906 164.910156 396.773438 C 154.550781 396.976563 144.632813 396.054688 134.183594 395.0625 Z M 143.453125 405.96875 C 143.242188 406.238281 143.132813 406.632813 142.953125 406.8125 L 141.957031 405.820313 C 142.410156 405.09375 143.09375 405.605469 143.453125 405.96875 Z M 135.261719 405.78125 C 135.078125 405.433594 135.164063 405.21875 135.675781 405.566406 C 138.566406 407.535156 140.59375 405.703125 141.171875 402.691406 C 141.289063 402.054688 141.554688 402.308594 141.597656 402.664063 C 142.027344 406.078125 136.953125 408.953125 135.261719 405.78125 Z M 135.808594 408.441406 L 134.746094 408.226563 L 135.378906 407.234375 C 135.617188 407.484375 135.808594 408.078125 135.808594 408.441406 Z M 136.441406 398.042969 L 136.804688 397.050781 L 137.4375 397.683594 C 137.1875 397.851563 136.804688 398.042969 136.441406 398.042969 Z M 137.710938 399.308594 C 138.257813 397.980469 140.863281 399.320313 140.964844 400.9375 C 140.058594 400.101563 139.246094 398.859375 137.710938 399.308594 Z M 141.324219 399.039063 L 141.324219 398.042969 L 141.6875 398.042969 L 141.6875 399.039063 Z M 134.457031 399.808594 L 133.550781 400.304688 L 133.550781 399.039063 C 133.941406 399.1875 134.242188 399.449219 134.457031 399.808594 Z M 130.929688 405.546875 L 126.046875 404.824219 C 126.679688 400.9375 131.652344 401.929688 133.550781 402.292969 C 130.507813 403.058594 130.929688 405.546875 130.929688 405.546875 Z M 145.574219 410.066406 L 150.726563 407.175781 L 151.089844 408.078125 Z M 151.84375 403.808594 L 151.84375 403.316406 L 154.316406 403.316406 L 154.316406 403.808594 Z M 193.394531 389.90625 C 195.476563 390.179688 197.28125 389.457031 199.269531 389.277344 L 200.898438 393.433594 C 198.015625 393.445313 194.566406 394.628906 193.394531 389.90625 Z M 195.382813 400.664063 L 195.65625 401.570313 L 194.027344 401.570313 Z M 195.015625 416.851563 C 197.6875 416.746094 199.398438 416.75 201.597656 416.648438 L 202.023438 419.617188 C 197.699219 419.652344 194.570313 420.277344 195.015625 416.851563 Z M 196.789063 399.882813 C 198.902344 399.644531 201.902344 399.613281 203.234375 399.664063 L 204.152344 401.570313 C 201.976563 401.925781 197.433594 402.914063 196.789063 399.882813 Z M 210.386719 416.152344 L 211.65625 419.46875 C 207.398438 419.695313 203.597656 420.316406 203.652344 416.648438 C 205.730469 416.375 208.273438 416.316406 210.386719 416.152344 Z M 205.429688 399.523438 L 211.222656 399.523438 C 210.429688 401.632813 204.902344 403.734375 205.429688 399.523438 Z M 202.699219 393.796875 C 202.699219 393.796875 194.027344 368.667969 185.359375 341.65625 C 174.660156 308.304688 159.472656 249.882813 154.34375 224.566406 C 154.34375 224.566406 157.453125 232.261719 162.222656 243.925781 C 174.753906 274.589844 221.378906 384.164063 225.308594 393.796875 Z M 220.34375 399.675781 C 219.097656 402.914063 215.050781 401.421875 211.925781 401.296875 C 214.734375 398.625 217.734375 399.480469 220.34375 399.675781 Z M 272.519531 412.675781 C 274.054688 412.464844 275.085938 413.085938 275.390625 414.949219 C 255.5 417.933594 234.527344 418.472656 213.914063 419.46875 L 212.289063 416.214844 C 212.289063 416.214844 260.949219 414.292969 272.519531 412.675781 Z M 274.472656 407.453125 C 273.859375 404.238281 273.082031 402.984375 275.78125 402.648438 C 277.730469 402.386719 278.464844 405.074219 278.933594 406.890625 C 278.433594 406.972656 275.480469 407.363281 274.472656 407.453125 Z M 281.265625 412.054688 L 282.257813 413.953125 C 280.476563 414.1875 276.496094 415.488281 276.382813 412.394531 C 277.589844 412.332031 279.890625 412.09375 281.265625 412.054688 Z M 280.949219 406.589844 C 280.777344 405.675781 280.433594 403.582031 280.738281 403.238281 C 281.71875 402.144531 283.492188 401.808594 284.757813 402.664063 C 285.3125 403.035156 285.738281 404.71875 285.96875 406.007813 C 284.898438 406.214844 282.445313 406.351563 280.949219 406.589844 Z M 290.035156 413.320313 C 287.5625 413.597656 284.210938 414.523438 283.253906 411.761719 C 285.796875 411.347656 289.1875 410.5625 290.035156 413.320313 Z M 288.769531 406.453125 L 288.40625 405.1875 C 289.21875 405.277344 289.761719 404.644531 290.664063 404.824219 C 290.394531 405.726563 290.125 406.992188 288.769531 406.453125 Z M 286.144531 400.664063 L 285.152344 398.316406 C 291.390625 398.136719 297.535156 397.503906 304.046875 397.683594 L 305.3125 400.664063 C 300.046875 399.339844 292.636719 400.242188 286.144531 400.664063 Z M 249.082031 216.789063 L 259.117188 220.316406 L 285.785156 266.511719 C 272.855469 250.238281 260.292969 233.785156 249.082031 216.789063 Z M 352.855469 385.667969 L 360.636719 375.894531 L 383.144531 377.886719 L 385.40625 380.144531 C 374.648438 382.585938 364.0625 384.132813 352.855469 385.667969 Z M 369.132813 387.285156 C 369.277344 388.429688 366.960938 388.546875 366.511719 387.648438 C 366.09375 386.472656 367.65625 386.167969 368.476563 386.292969 C 369.03125 386.375 369.050781 386.785156 369.132813 387.285156 Z M 344.09375 400.664063 C 347.710938 399.941406 344.003906 397.140625 344.726563 395.0625 C 347.695313 394.585938 350.976563 393.984375 353.988281 393.695313 C 356.015625 393.5 357.695313 393.921875 358.394531 396.074219 C 358.59375 396.675781 359.160156 401.28125 359.113281 402.339844 C 358.359375 402.710938 357.113281 403.035156 356.183594 403.160156 C 355.960938 402.820313 355.613281 401.992188 354.980469 402.082031 L 344.09375 402.5625 Z M 366.019531 395.5 L 365.246094 396.417969 L 364.886719 394.789063 Z M 370.761719 394.429688 L 371.394531 393.433594 L 371.675781 394.5 Z M 370.128906 384.394531 C 375.90625 383.441406 380.761719 382.492188 386.1875 381.488281 C 387.441406 382.714844 389.023438 384.484375 390.648438 385.660156 Z M 361.359375 373.90625 C 342.148438 350.703125 325.574219 326.308594 309.808594 301.605469 C 289.507813 269.808594 262.371094 221.671875 262.371094 221.671875 L 286.144531 229.808594 C 286.144531 229.808594 346.605469 278.648438 385.828125 307.070313 C 405.390625 321.246094 446.074219 349.5625 499.671875 377.160156 C 453.929688 380.507813 406.832031 378.425781 361.359375 373.90625 Z M 419.9375 311.441406 L 490.257813 367.980469 L 496.691406 373.273438 C 451.230469 350.007813 408.445313 320.605469 390.894531 308.105469 C 348.09375 277.628906 290.394531 231.074219 290.394531 231.074219 C 308.929688 237.222656 328.273438 241.832031 346.984375 247.707031 C 370.761719 270.308594 394.71875 291.734375 419.9375 311.441406 Z M 227.566406 123.679688 L 277.015625 177.738281 L 323.933594 225.832031 L 343.460938 244.453125 C 306.847656 235.59375 271.503906 223.570313 236.96875 209.558594 C 215.542969 167.613281 199.179688 122.863281 185.257813 77.484375 Z M 187.894531 103.933594 C 194.878906 120.773438 217.449219 195.941406 221.421875 211.546875 L 210.933594 217.0625 C 189.417969 201.511719 167.359375 186.960938 144.941406 173.488281 L 147.847656 112.105469 L 145.84375 18.902344 C 162.351563 46.21875 175.816406 74.8125 187.894531 103.933594 Z M 145.453125 111.925781 C 145 121.070313 144.066406 155.558594 142.953125 174.484375 C 142.339844 175.175781 141.503906 176.199219 140.691406 177.015625 C 139.515625 176.925781 138.433594 177.195313 138.070313 178.371094 C 137.234375 181.53125 141.964844 180.671875 143.3125 183.886719 L 147.835938 195.636719 L 137.710938 202.144531 C 121.347656 159.386719 105.976563 116.085938 101.007813 68.714844 C 114.566406 84.535156 130.355469 97.550781 145.453125 111.925781 Z M 4.636719 99.632813 C 24.617188 70.613281 42.605469 40.871094 54.449219 8.507813 C 72.078125 34.453125 87.085938 61.480469 101.277344 88.875 C 109.140625 129.011719 122.070313 167.160156 136.804688 204.40625 C 137.164063 206.757813 136.484375 208.351563 136.441406 210.914063 C 111.671875 193.46875 87.355469 175.117188 63.851563 154.59375 Z M 70.085938 383.457031 L 69.949219 382.191406 L 64.84375 333.949219 L 56.347656 270.761719 L 41.070313 170.234375 L 38.175781 143.203125 L 82.113281 173.488281 C 100.191406 186.6875 117.847656 200.519531 136.195313 213.175781 L 136.113281 213.808594 L 122.429688 220.949219 C 121.707031 221.941406 122.339844 223.117188 123.0625 223.933594 L 135.808594 218.054688 L 121.164063 389.90625 C 103.988281 388.644531 86.71875 385.898438 70.085938 383.457031 Z M 91.695313 406.066406 C 94.390625 402.199219 113.800781 393.945313 113.800781 393.945313 L 120.53125 394.429688 C 112.460938 396.671875 96.890625 402.257813 96.960938 407.058594 C 96.988281 408.855469 98.859375 410.351563 100.28125 411.0625 C 93.222656 410.242188 89.128906 409.75 91.695313 406.066406 Z M 119.539063 401.296875 C 119.03125 405.851563 118.816406 409.617188 118.183594 413.683594 C 113.027344 412.960938 107.675781 411.933594 103.265625 411.128906 C 107.925781 406.421875 113.933594 403.738281 119.539063 401.296875 Z M 133.746094 426.238281 C 129.46875 424.4375 119.808594 425.074219 119.808594 425.074219 L 113.300781 421.097656 C 122.925781 423.003906 131.921875 424.621094 141.324219 426.339844 C 138.636719 428.292969 136.210938 427.273438 133.746094 426.238281 Z M 251.34375 426.339844 C 241.398438 423.808594 229.828125 424.078125 219.792969 425.976563 L 210.027344 424.078125 C 196.558594 431.945313 182.367188 419.46875 167.992188 425.976563 C 147.835938 425.617188 127.222656 422.363281 108.148438 417.570313 L 103.265625 413.683594 C 122.789063 417.21875 143.253906 420.28125 164.003906 421.78125 C 191.5625 423.777344 263.378906 419.476563 291.277344 415.660156 C 328.582031 410.554688 372.621094 404.238281 411.441406 394.15625 C 411.261719 395.242188 411.621094 396.417969 412.707031 396.6875 L 421.839844 395.785156 C 421.839844 395.785156 360.160156 410.03125 335.003906 414.761719 C 307.652344 419.902344 279.898438 424.066406 251.34375 426.339844 Z M 415.058594 403.921875 L 418.945313 401.570313 C 437.023438 401.480469 452.890625 399.25 471.015625 395.785156 C 453.386719 400.847656 436.03125 406.542969 417.589844 409.707031 Z M 415.960938 410.066406 L 404.933594 412.054688 L 413.644531 404.542969 C 414.574219 406.796875 415.328125 408.257813 415.960938 410.066406 Z M 423.195313 399.941406 C 425.546875 398.769531 430.289063 399.890625 430.335938 396.417969 L 430.335938 394.789063 C 430.335938 394.789063 490.527344 388.175781 494.066406 387.917969 C 471.921875 395.332031 448.054688 398.949219 423.195313 399.941406 Z M 424.671875 397.53125 C 415.347656 398.777344 408.316406 405.003906 400.964844 412.546875 C 384.238281 415.261719 365.429688 416.304688 348.34375 413.953125 C 374.46875 409.164063 400.503906 403.015625 425.726563 396.6875 C 426.882813 396.304688 426.628906 394.789063 428.074219 395.0625 C 428.644531 397.054688 425.746094 397.386719 424.671875 397.53125 Z M 392.277344 424.351563 C 388.117188 424.351563 381.699219 422.8125 377.902344 425.707031 C 372.75 423.355469 366.242188 425.34375 361.359375 427.335938 C 352.773438 426.160156 342.558594 428.417969 333.96875 425.34375 C 316.03125 427.242188 289.421875 427.515625 266.980469 427.605469 C 293.015625 424.441406 318.328125 419.921875 343.730469 415.3125 C 362.175781 418.292969 387.925781 416.777344 399.902344 413.953125 Z M 395.453125 424.863281 C 398.164063 420.792969 399.761719 417.648438 402.886719 413.816406 C 407.046875 413.183594 412.527344 412.054688 416.683594 411.332031 C 418.222656 414.859375 419.667969 418.292969 421.203125 421.820313 C 415.675781 422.933594 405.289063 426.671875 395.453125 424.863281 Z M 499.625 388.160156 C 474.878906 399.277344 448.554688 410.710938 422.832031 421.457031 L 418.097656 410.984375 C 444.609375 406.734375 474.632813 396.5 499.492188 387.996094 C 500.1875 387.757813 500.277344 387.871094 499.625 388.160156 Z M 420.210938 388.914063 C 413.160156 386.429688 402.757813 386.289063 394.644531 385.707031 C 390.925781 383.0625 389.542969 381.40625 386.671875 378.15625 L 419.300781 379.820313 L 445.976563 380.414063 L 503.832031 379.511719 L 505.820313 380.414063 L 420.210938 388.914063 "/>
</g>
</svg>
