<?xml version="1.0" encoding="UTF-8"?>
<svg xmlns="http://www.w3.org/2000/svg" xmlns:xlink="http://www.w3.org/1999/xlink" width="526pt" height="225pt" viewBox="0 0 526 225" version="1.1">
<g id="surface1">
<path style=" stroke:none;fill-rule:nonzero;fill:rgb(0%,0%,0%);fill-opacity:1;" d="M 524.628906 174.777344 C 524.597656 170.253906 516.722656 170.382813 514.085938 165.992188 C 513.867188 156.03125 503.09375 158.765625 498.957031 151.253906 L 501.105469 118.949219 L 503.253906 117.875 C 506.835938 111.621094 511.644531 104.699219 516.914063 98.550781 C 517.65625 97.738281 517.246094 95.921875 518.460938 95.515625 C 522.699219 94.09375 524.226563 90.644531 522.085938 88.808594 C 519.945313 86.976563 521.316406 83.25 517.988281 82.054688 C 517.988281 82.054688 520.976563 35.078125 513.085938 34.105469 C 494.515625 31.8125 474.929688 32.832031 457.046875 36.320313 C 450.605469 37.578125 445.273438 38.859375 443.160156 45.8125 C 441.9375 49.839844 441.867188 54.75 441.371094 58.53125 C 417.847656 52.597656 350.019531 43.40625 350.019531 43.40625 C 350.1875 41.953125 350.601563 40.640625 350.507813 39.453125 C 350.332031 37.179688 346.441406 35.140625 343.675781 35.695313 C 341.164063 33.308594 330.863281 33.988281 329.074219 36.046875 C 326.351563 39.1875 321.265625 37.769531 317.714844 39.5 L 285.40625 35.011719 C 282.578125 30.816406 278.476563 27.007813 273.792969 25.835938 C 273.792969 25.835938 274.347656 18.714844 271.289063 11.578125 C 268.324219 4.652344 263.320313 1.65625 258.484375 0.976563 C 253.25 0.242188 249.433594 1.644531 246.953125 7.605469 C 243.195313 16.636719 234.949219 24.828125 228.441406 32.441406 C 193.246094 28.433594 118.105469 24.15625 85.132813 23.691406 C 84.796875 23.34375 83.992188 22.484375 83.789063 22.101563 C 83.125 20.855469 82.675781 20.230469 80.902344 21.191406 C 80.09375 21.625 79.425781 22.183594 78.789063 21.933594 C 77.582031 21.332031 71.929688 17.644531 70.75 17.003906 C 68.867188 15.980469 61.019531 16.230469 59.007813 16.503906 C 58.089844 16.628906 57.5 15.824219 57.207031 14.484375 C 56.296875 10.335938 53.453125 12.269531 53.453125 12.269531 L 50.289063 14.222656 L 49.214844 11.390625 L 34.867188 11.78125 L 34.476563 15.6875 C 28.515625 15.496094 28.132813 23.011719 33.792969 22.714844 C 35.148438 24.996094 38.195313 24.460938 41.328125 24.472656 C 41.421875 25.144531 41.542969 25.683594 41.417969 26.269531 C 26.855469 28.375 24.96875 32.945313 29.5 38.648438 C 31.210938 40.800781 33.890625 42.621094 35.941406 44.480469 C 35.109375 46.089844 33.476563 45.894531 31.890625 45.832031 C 27.914063 45.679688 26.757813 48.804688 27.199219 52.21875 C 27.429688 53.984375 27.859375 55.652344 26.652344 56.550781 C 24.664063 58.023438 24.46875 60.078125 26.773438 62.855469 C 28.964844 65.488281 32.8125 67.3125 34.476563 70.148438 C 34.671875 71.320313 34.765625 72.574219 34.652344 73.953125 C 32.898438 73.855469 31.492188 72.164063 29.90625 71.179688 C 25.773438 68.808594 23.957031 71.277344 20.75 72.03125 C 19.488281 72.328125 19.445313 72.867188 20.3125 74.28125 C 20.511719 74.710938 20.261719 74.988281 19.832031 74.886719 C 15.25 73.78125 10.6875 72.882813 6.074219 71.515625 L 0.414063 73.269531 C 0.121094 75.417969 -0.515625 77.769531 1.144531 79.816406 C 4.722656 80.429688 6.238281 80.652344 7.320313 82.90625 C 11.222656 91.054688 15.890625 90.515625 19.90625 87.558594 C 23.140625 85.179688 22.5625 84.335938 27.15625 85.570313 C 26.226563 89.960938 30.722656 90.722656 34.476563 92.203125 L 34.867188 122.070313 C 28.394531 122.421875 24.121094 132.042969 32.425781 135.441406 C 38.699219 138.09375 40.734375 131.628906 43.957031 128.28125 C 46.3125 125.828125 46.871094 121.152344 43.652344 120.019531 L 43.261719 95.71875 C 54.484375 100.792969 65.515625 106.355469 76.640625 111.53125 L 76.917969 117.785156 C 76.917969 117.785156 76.226563 121.246094 81.277344 121.207031 C 84.75 121.179688 88.355469 119.679688 91.769531 118.949219 C 108.101563 126.820313 124.128906 135.023438 140.277344 143.152344 L 170.140625 149.496094 C 177.753906 154.449219 185.363281 159.398438 192.648438 165.242188 C 195.296875 167.539063 192.78125 172.203125 198.949219 168.375 C 199.070313 168.300781 199.28125 168.484375 199.261719 168.65625 C 197.414063 184.164063 200.039063 200.886719 209.707031 213.011719 C 217.121094 222.3125 227.1875 226.757813 243.222656 222.75 C 258.664063 218.890625 266.519531 207.925781 266.761719 188.019531 C 266.777344 186.449219 267.0625 185.890625 269.738281 186.601563 C 293.089844 192.816406 316.738281 199.710938 339.308594 206.320313 C 350.421875 202.949219 360.507813 194.804688 371.101563 200.835938 C 373.441406 198.296875 376.761719 198.003906 379.496094 196.636719 C 378.667969 193.976563 380.171875 190.363281 377.351563 188.484375 C 377.171875 188.363281 377.210938 188.070313 377.433594 188.03125 C 383.769531 186.933594 389.152344 185.914063 395.011719 184.632813 C 395.011719 184.632813 400.722656 190.460938 405.195313 183.117188 C 407.046875 180.078125 410.128906 180.320313 413.269531 180.476563 C 418.019531 180.710938 419.683594 180.527344 419.21875 175.164063 C 430.101563 166.859375 441.261719 159.023438 452.246094 151.101563 C 452.496094 150.925781 452.921875 151.191406 452.921875 151.875 C 452.773438 154 452.683594 154.292969 451.226563 153.746094 C 447.394531 152.308594 450.273438 160.0625 445.570313 159.355469 C 444.59375 162.476563 449.277344 161.597656 450.839844 163.257813 C 450.472656 173.15625 449.414063 182.375 449.765625 191.660156 L 456.792969 199.078125 C 466.898438 203.007813 475.351563 210.691406 484.273438 217.203125 C 488.351563 220.183594 493.117188 223.492188 497.589844 222.601563 C 495.992188 217.902344 492.769531 213.476563 492.703125 208.453125 C 492.703125 208.257813 492.949219 208.128906 493.070313 208.261719 C 497.527344 213.273438 501.847656 219.464844 507.742188 222.601563 C 510.171875 223.730469 512.109375 223.0625 513.820313 221.769531 C 517.601563 218.914063 518.910156 216.09375 516.039063 212.898438 C 514.558594 211.25 512.625 209.597656 511.253906 207.863281 C 513.6875 206.382813 514.859375 204.070313 515.300781 201.515625 C 516.3125 195.609375 515.902344 193.433594 512.035156 192.050781 C 512.601563 190.023438 514.910156 182.132813 515.140625 180.621094 C 515.558594 177.847656 513.941406 176.710938 510.375 178.40625 C 504.890625 181.019531 500.128906 185.339844 495.152344 189.21875 L 493.394531 187.464844 L 494.078125 175.164063 L 494.761719 174.484375 L 517.597656 176.921875 C 518.964844 178.972656 519.257813 181.410156 520.039063 183.558594 C 521.503906 184.144531 524.039063 184.144531 525.015625 183.558594 Z M 34.128906 20.628906 C 34.03125 20.765625 33.789063 20.75 33.789063 20.648438 C 33.753906 19.472656 33.585938 18.269531 34.039063 17.3125 C 34.082031 17.222656 34.273438 17.203125 34.3125 17.292969 C 34.699219 18.160156 34.699219 19.820313 34.128906 20.628906 Z M 512.621094 99.179688 C 508.601563 101.222656 503.792969 101.648438 498.898438 101.535156 C 486.46875 100.734375 458.714844 96.910156 458.714844 96.910156 C 458.714844 96.910156 453.398438 94.664063 457.496094 95.0625 C 470.109375 96.289063 485.722656 99.453125 498.898438 99.714844 C 505.726563 99.851563 506.839844 99.304688 511.605469 97.796875 C 514.585938 96.851563 515.15625 97.886719 512.621094 99.179688 Z M 457.398438 110.621094 C 456.777344 117.984375 456.242188 126.632813 455.035156 133.683594 L 453.910156 134.644531 C 454.945313 126.792969 455.714844 118.285156 457.070313 110.480469 C 457.230469 109.558594 457.484375 109.628906 457.398438 110.621094 Z M 455.464844 39.445313 C 462.683594 37.738281 489.390625 35.988281 499.128906 38.410156 C 503.65625 39.53125 508.472656 39.914063 511.988281 36.78125 C 512.859375 36.007813 513.882813 36.675781 512.71875 37.746094 L 507.136719 40.628906 C 504.628906 40.246094 501.738281 39.871094 499.207031 39.609375 C 484.746094 38.105469 469.914063 38.449219 455.738281 39.90625 C 454.589844 40.023438 454.394531 39.699219 455.464844 39.445313 Z M 448.039063 87.140625 C 452.355469 88.917969 486.726563 92.265625 506.375 91.523438 C 508.800781 91.457031 510.832031 90.378906 512.96875 89.558594 C 516.070313 88.367188 516.78125 89.710938 513.992188 90.945313 C 511.738281 91.941406 509.300781 92.5 506.746094 92.78125 C 498.414063 93.695313 457.488281 91.179688 447.734375 88.207031 C 445.003906 87.375 441.109375 86.851563 441.109375 86.851563 C 441.109375 86.851563 439.542969 86.160156 440.882813 85.886719 C 443.5 85.34375 445.785156 86.210938 448.039063 87.140625 Z M 428.972656 102.570313 C 423.042969 98.339844 425.851563 87.921875 432.980469 90.839844 C 436.464844 92.613281 436.242188 94.117188 433.714844 95.542969 C 431.300781 96.910156 432.351563 99.878906 433.621094 101.027344 C 434.886719 102.175781 438.933594 100.988281 438.933594 100.988281 L 437.859375 106.261719 C 434.992188 105.222656 431.554688 104.414063 428.972656 102.570313 Z M 436.828125 109.023438 C 436.714844 110.152344 436.3125 111.425781 436.101563 112.605469 L 435.421875 112.3125 C 435.617188 110.96875 435.667969 109.792969 436.109375 108.78125 C 436.472656 107.953125 436.921875 108.101563 436.828125 109.023438 Z M 422.4375 109.089844 C 413.980469 111.75 398.617188 101.292969 396.0625 99.492188 C 395.824219 99.324219 396.035156 99.132813 396.203125 99.082031 C 402.664063 97.171875 409.53125 95.675781 416.09375 93.960938 C 414.53125 100.109375 417.558594 105.480469 422.4375 109.089844 Z M 416.53125 91.378906 L 417.617188 88.359375 L 418.925781 88.007813 L 416.785156 91.472656 Z M 419.601563 86.453125 C 408.824219 88.808594 399.664063 91.519531 388.484375 93.277344 C 387.613281 93.414063 387.511719 93.199219 388.347656 92.964844 C 404.605469 88.429688 420.84375 84.433594 437.664063 80.40625 C 437.84375 80.363281 437.953125 80.640625 437.816406 80.804688 C 436.050781 82.980469 433.304688 83.421875 430.503906 83.457031 C 423.824219 83.339844 419.601563 86.453125 419.601563 86.453125 Z M 435.421875 86.253906 L 435.421875 90.449219 C 434.246094 90.058594 434.238281 87.292969 435.421875 86.253906 Z M 443.8125 137.589844 C 443.8125 137.589844 455.359375 101.527344 451.625 97.585938 C 449.898438 96.40625 447.742188 96.148438 445.371094 95.699219 C 445.042969 95.636719 444.9375 94.949219 445.222656 94.976563 C 447.511719 95.1875 450.941406 95.21875 452.664063 96.929688 C 456.601563 100.835938 450.164063 120.652344 444.886719 137.882813 L 438.863281 142.714844 L 438.71875 142.480469 Z M 349.628906 45.84375 C 378.488281 49.808594 407.4375 53.425781 435.152344 60.148438 C 436.777344 60.542969 440.871094 61.671875 440.871094 61.671875 L 440.300781 68.683594 C 413.753906 65.949219 387.886719 61.753906 361.925781 57.460938 C 357.242188 56.777344 352.265625 58.632813 347.871094 58.824219 Z M 319.054688 46.101563 C 319.917969 43.367188 320.84375 43.085938 323.214844 42.925781 C 328.3125 42.582031 329.613281 41.453125 332.46875 39.484375 C 337.800781 35.8125 343.121094 35.519531 343.730469 39.101563 C 344.738281 39.542969 346.996094 38.582031 347.949219 38.433594 C 348.476563 38.355469 348.261719 39.207031 348.261719 39.207031 L 343.382813 40.574219 C 343.382813 36.695313 336.972656 37.769531 334.328125 39.679688 C 330.046875 42.777344 329.632813 43.371094 321.464844 44.441406 C 319.414063 50.6875 314.832031 64.113281 314.832031 64.113281 C 324.03125 62.460938 334.390625 60.714844 343.507813 59.34375 C 343.792969 59.300781 343.515625 59.757813 343.515625 59.757813 L 305.414063 66.632813 C 305.414063 66.632813 305.003906 66.167969 305.414063 66.046875 C 307.460938 65.449219 310.675781 65.070313 313.515625 64.488281 C 314.882813 58.566406 317.097656 52.304688 319.054688 46.101563 Z M 313.152344 45.734375 C 309.382813 51.738281 306.574219 57.855469 302.789063 63.378906 C 302.378906 63.984375 302.167969 63.859375 302.496094 63.207031 C 305.585938 57.058594 308.753906 51.003906 312.726563 45.222656 C 312.984375 44.84375 313.273438 45.542969 313.152344 45.734375 Z M 289.617188 37.9375 C 296.425781 38.433594 305.65625 39.765625 312.371094 41.09375 C 313.0625 41.226563 312.828125 42.558594 312.035156 42.511719 C 305.40625 41.496094 295.9375 40.3125 289.605469 38.816406 C 289.226563 38.730469 289.238281 37.910156 289.617188 37.9375 Z M 298.679688 64.878906 C 298.484375 66.242188 298.132813 68.382813 296.242188 68.390625 C 293.410156 68.390625 293.605469 64.683594 291.652344 63.121094 L 291.652344 62.046875 Z M 287.195313 37.988281 C 288.441406 39.09375 289.066406 43.1875 288.390625 45.054688 C 288.320313 45.246094 288.078125 45.164063 288.050781 44.964844 C 287.769531 42.894531 287.683594 40.40625 286.96875 38.273438 C 286.90625 38.09375 287.0625 37.871094 287.195313 37.988281 Z M 288.90625 47.640625 C 291.339844 51.417969 288.832031 69.753906 286.773438 70.058594 C 273.804688 71.816406 261.203125 74.441406 248.515625 75.710938 L 253.394531 59.898438 C 254.59375 56.257813 265.804688 59.15625 267.402344 52.066406 C 270.652344 50.621094 276.304688 48.90625 280.101563 48.199219 C 280.410156 48.140625 280.730469 48.984375 280.429688 49.066406 C 275.667969 50.320313 268.152344 51.035156 266.734375 56.472656 L 254.761719 59.605469 C 253.070313 63.503906 251.847656 69.753906 250.402344 73.96875 C 262.796875 74.261719 274.085938 69.660156 286.773438 68.390625 L 288.753906 52.445313 C 286.921875 50.566406 283.765625 53.507813 281.195313 52.621094 C 280.421875 52.355469 280.5 51.054688 281.269531 51.394531 C 283.300781 52.289063 285.796875 50.347656 287.847656 49.75 C 288.140625 48.871094 287.066406 48.1875 286.382813 47.992188 C 285.433594 47.878906 284.449219 48.441406 283.507813 48.628906 C 282.164063 48.894531 281.695313 48.089844 282.761719 47.730469 C 284.730469 47.0625 287.140625 45.554688 288.90625 47.640625 Z M 262.175781 32.390625 C 262.15625 35.054688 259.644531 34.984375 258.578125 33.144531 C 255.3125 27.527344 260.414063 24.066406 262.863281 28.960938 C 262.019531 29.847656 262.183594 31.238281 262.175781 32.390625 Z M 258.828125 38.273438 C 260.101563 39.324219 259.148438 41.933594 257.730469 40.992188 C 255.558594 39.546875 256.988281 36.746094 258.828125 38.273438 Z M 262.320313 50.308594 C 264.121094 47.753906 268.515625 45.5 274.109375 45.867188 C 274.972656 45.925781 275.191406 46.601563 274.039063 46.753906 C 270.304688 47.242188 264.210938 47.859375 262.570313 52.1875 C 258.640625 54.410156 253.273438 54.351563 249.699219 57.003906 C 248.78125 57.683594 248.136719 57.148438 248.921875 56.3125 C 252.246094 52.765625 260.097656 53.460938 262.320313 50.308594 Z M 267.453125 42.472656 C 267.796875 43.023438 267.640625 43.226563 267.230469 42.730469 C 263.34375 37.988281 261.675781 29.515625 267.566406 25.777344 C 268.820313 25.042969 269.226563 25.484375 268.109375 26.308594 C 262.964844 30.09375 263.925781 36.808594 267.453125 42.472656 Z M 277.117188 42.984375 C 277.6875 42.125 278.515625 40.773438 279.554688 40.398438 C 279.734375 40.335938 279.941406 40.535156 279.824219 40.679688 C 279.226563 41.429688 278.078125 42.65625 277.273438 43.234375 C 277.058594 43.390625 276.96875 43.214844 277.117188 42.984375 Z M 282.1875 39.207031 L 283.652344 39.207031 C 283.035156 40.628906 284.789063 44.746094 281.113281 45.84375 L 279.839844 45.632813 C 279.839844 45.632813 279.671875 45.398438 279.8125 45.320313 C 283.03125 43.519531 281.757813 40.566406 282.1875 39.207031 Z M 278.054688 31.335938 C 282.46875 34.773438 283.144531 37.175781 273.878906 38.027344 C 273.519531 38.0625 273.34375 37.335938 273.660156 37.285156 C 279.84375 36.320313 281.554688 35.296875 277.5 32.425781 C 274.648438 30.402344 271.503906 30.796875 270.523438 33.074219 C 270.300781 33.59375 269.609375 33.246094 269.675781 32.90625 C 270.605469 28.210938 275.1875 29.101563 278.054688 31.335938 Z M 253.457031 3.535156 C 263.515625 1.300781 271.273438 10.421875 271.644531 22.324219 C 264.578125 17.644531 253.023438 16.515625 245.121094 20.3125 C 244.949219 20.394531 244.71875 20.289063 244.773438 20.148438 C 247.296875 13.546875 249.628906 4.320313 253.457031 3.535156 Z M 247.734375 36.769531 C 245.683594 36.964844 243.636719 33.9375 242.464844 32.179688 C 242.5625 31.203125 242.492188 30.335938 242.855469 29.351563 C 244.707031 31.105469 247.832031 33.546875 247.734375 36.769531 Z M 159.296875 58.015625 L 194.054688 52.1875 L 210.839844 54.628906 C 208.464844 60.527344 209.863281 63.96875 215.71875 66.222656 C 222.324219 68.765625 233.46875 70.316406 240.707031 71.90625 C 240.355469 72.707031 240.054688 73.378906 239.554688 74.066406 C 237.78125 76.488281 233.160156 75.128906 233.160156 75.128906 L 182.4375 65.851563 L 181.757813 63.414063 C 173.777344 61.753906 166.726563 60.421875 159.574219 58.4375 C 159.226563 58.339844 159.296875 58.015625 159.296875 58.015625 Z M 141.640625 55.019531 L 139.335938 54.464844 C 139.335938 54.464844 139.203125 54.28125 139.398438 54.253906 C 157.164063 51.71875 175.128906 48.074219 193.664063 46.527344 L 213.378906 49.359375 L 213.378906 49.75 C 206.644531 50.042969 200.007813 48.089844 193.273438 47.308594 Z M 237.585938 69.757813 C 230.882813 67.980469 222.191406 66.890625 215.835938 64.390625 C 211.027344 62.5 210.355469 57.074219 213.832031 52.109375 C 216.898438 47.726563 222.570313 44.023438 225.285156 39.890625 C 229.199219 39.90625 233.582031 40.671875 236.898438 40.28125 C 238.851563 47.40625 242.269531 53.75 247.441406 59.605469 C 244.21875 63.023438 244.300781 71.203125 237.585938 69.757813 Z M 227.460938 37.664063 C 232.757813 31.652344 237.0625 25.394531 242.347656 19.378906 C 242.515625 19.191406 242.679688 19.265625 242.601563 19.496094 C 240.796875 24.664063 240.695313 31.128906 240.414063 35.988281 C 237.730469 39.6875 232.152344 37.6875 227.757813 38.050781 C 227.515625 38.070313 227.320313 37.820313 227.460938 37.664063 Z M 50.007813 16.464844 C 50.070313 16.171875 50.355469 16.40625 50.355469 16.40625 L 50.621094 20.328125 C 50.621094 20.328125 50.441406 20.640625 50.34375 20.429688 C 49.921875 19.523438 49.769531 17.535156 50.007813 16.464844 Z M 47.570313 24.585938 C 48.425781 24.296875 50.089844 23.972656 50.289063 22.714844 C 53.53125 22.328125 57.609375 22.910156 58.78125 19.199219 C 62.496094 19.121094 67.53125 18.128906 70.722656 20.203125 C 71.386719 20.636719 73.578125 22.097656 74.199219 22.714844 C 66.28125 22.808594 56.753906 23.445313 47.625 24.992188 C 47.304688 25.046875 47.164063 24.722656 47.570313 24.585938 Z M 47.164063 26.226563 C 56.726563 24.765625 67.402344 24.308594 75.957031 24.765625 C 74.511719 29.820313 81.617188 31.789063 81.617188 31.789063 C 80.898438 36.890625 83.925781 37.601563 86.925781 38.230469 C 91.476563 39.183594 94.542969 37.703125 95.058594 34.828125 C 95.199219 34.046875 95.433594 33.339844 96.148438 32.867188 C 96.492188 32.636719 98.289063 31.933594 97.746094 30.179688 C 97.339844 28.972656 92.835938 28.039063 90.515625 26.578125 C 90.332031 26.464844 90.339844 26.238281 90.507813 26.242188 C 144.152344 27.855469 172.117188 29.316406 226.359375 34.621094 C 224.628906 36.511719 222.875 38.796875 221.011719 40.980469 L 99.042969 31.324219 C 99.753906 33.820313 96.679688 34.230469 96.679688 34.230469 C 96.757813 38.722656 94.347656 39.855469 87.074219 39.484375 C 83.691406 39.3125 78.878906 37.976563 80.542969 32.863281 C 79.328125 31.589844 73.128906 30.425781 74.589844 26.226563 C 65.1875 25.910156 56.277344 26.914063 47.164063 27.59375 Z M 77.03125 33.546875 L 77.03125 34.230469 C 70.703125 34.890625 64.109375 34.90625 56.851563 36.621094 C 56.648438 36.667969 56.652344 36.359375 56.652344 36.359375 L 58.390625 34.621094 Z M 41.121094 17.421875 C 41.121094 16.070313 42.125 14.972656 43.363281 14.972656 C 44.601563 14.972656 45.605469 16.070313 45.605469 17.421875 C 45.605469 18.777344 44.601563 19.871094 43.363281 19.871094 C 42.125 19.871094 41.121094 18.777344 41.121094 17.421875 Z M 39.660156 28.378906 C 41.09375 27.285156 41.914063 28.371094 40.453125 29.40625 C 38.265625 30.960938 38.984375 32.078125 41.824219 33.523438 C 54.25 39.863281 121.136719 55.015625 181.933594 66.757813 C 231.363281 76.308594 276.527344 83.109375 287.03125 85.070313 C 320.945313 91.398438 351.609375 99.976563 383.007813 94.351563 C 397.941406 100.109375 409.851563 114.617188 427.613281 111.59375 L 434.242188 113.894531 C 434.242188 113.894531 434.351563 114.144531 434.160156 114.183594 C 427.132813 115.605469 420.179688 116.894531 412.582031 116.800781 C 411.636719 117.8125 410.992188 119.0625 410.386719 120.316406 C 407.402344 126.507813 404.464844 127.773438 399.328125 124.632813 C 397.007813 123.214844 365.070313 111.148438 350.773438 106.273438 C 330.253906 99.28125 309.296875 93.335938 287.402344 89.609375 C 244.675781 82.335938 94.09375 56.019531 40.558594 34.832031 C 36.484375 33.21875 36.773438 30.261719 39.660156 28.378906 Z M 343.640625 158.589844 C 343.152344 156.078125 340.832031 155.613281 340.449219 158.890625 C 340.273438 159.496094 340.050781 159.363281 340.046875 159.042969 C 339.988281 154.605469 343.476563 154.558594 344.488281 158.378906 C 344.609375 158.839844 348.945313 176.53125 351.09375 185.707031 C 344.578125 186.683594 344.199219 184.441406 343.628906 180.527344 C 343.484375 179.542969 343.988281 179.308594 344.277344 180.46875 C 345.398438 184.957031 346.972656 185.089844 349.679688 184.816406 C 348.304688 178.714844 345.363281 167.46875 343.640625 158.589844 Z M 338.796875 176.53125 L 339.789063 163.847656 L 340.128906 163.929688 L 342.960938 177.242188 Z M 341.136719 191.375 L 337.824219 190.9375 L 338.820313 178.257813 L 339.242188 178.246094 Z M 344.125 145.15625 C 342.085938 142.28125 338.230469 142.359375 336.648438 145.300781 C 336.648438 145.300781 168.09375 103.097656 120.042969 88.164063 C 115.804688 86.847656 115.953125 86.457031 120.015625 87.523438 C 164.140625 99.140625 231.28125 114.714844 237.75 114.113281 C 240 113.90625 245.972656 112.523438 248.808594 109.773438 C 280.21875 117.28125 340.21875 135.089844 384.21875 135.4375 C 384.402344 135.441406 384.46875 135.683594 384.320313 135.800781 C 373.574219 144.449219 360.652344 148.894531 346.113281 147.738281 C 345.433594 147.273438 344.847656 146.171875 344.125 145.15625 Z M 295.824219 165.742188 C 302.613281 163.917969 309.210938 161.53125 315.273438 157.988281 C 321.3125 159.652344 326.886719 161.210938 332.839844 162.867188 C 332.523438 166.820313 332.355469 170.871094 332.0625 174.777344 L 295.769531 166.203125 C 295.769531 166.203125 295.507813 165.824219 295.824219 165.742188 Z M 287.847656 157.988281 C 285.796875 154.179688 291.347656 155.460938 293.410156 153.011719 L 301.5625 154.640625 C 301.5625 154.640625 301.71875 154.914063 301.484375 154.984375 C 296.839844 156.390625 292.921875 157.46875 287.847656 157.988281 Z M 281.894531 141.785156 C 281.210938 139.738281 280.746094 138.152344 280.136719 135.832031 L 336.355469 150.570313 L 337.722656 151.9375 C 336.714844 152.945313 334.109375 153.304688 333.816406 155.449219 C 316.542969 150.863281 299.070313 146.667969 281.894531 141.785156 Z M 278.515625 146.089844 C 277.277344 141.800781 274.210938 142 273.222656 146.785156 C 272.527344 150.175781 269.890625 174.09375 269.890625 174.09375 L 269.207031 174.09375 C 270.398438 165.246094 271 152.707031 272.21875 146.632813 C 273.285156 141.3125 276.359375 140.996094 277.988281 142.46875 C 279.140625 143.507813 287.164063 170.285156 287.164063 170.285156 C 278.035156 172.34375 277.695313 159.742188 273.964844 149.050781 C 273.890625 148.835938 274.363281 147.773438 274.664063 148.667969 C 276.433594 153.910156 278.734375 161.171875 281.054688 166.289063 C 281.746094 167.820313 284.5 169.378906 285.40625 168.53125 C 283.511719 161.3125 280.699219 153.675781 278.515625 146.089844 Z M 264.851563 143.398438 C 264.667969 142.058594 265.746094 140.269531 266.414063 139.066406 L 267.058594 139.347656 C 266.160156 140.605469 265.851563 141.898438 265.1875 143.515625 C 265.128906 143.652344 264.878906 143.585938 264.851563 143.398438 Z M 265.007813 145.300781 C 264.96875 148.074219 264.519531 149.984375 264.324219 152.328125 L 258.585938 144.363281 L 258.636719 144.007813 Z M 195.441406 119.476563 C 195.441406 119.476563 110.238281 98.496094 72.742188 73.984375 C 71.09375 72.894531 71.5625 72.578125 73.003906 73.199219 C 112.773438 90.257813 153.9375 103.882813 196.492188 114.066406 L 271.351563 133.394531 C 271.644531 135.246094 272.035156 137.101563 272.328125 138.957031 Z M 252.292969 140.761719 C 245.414063 135.753906 237.53125 133.1875 228.96875 135.226563 C 227.976563 135.464844 227.824219 135.25 228.761719 134.917969 C 237.027344 131.96875 245.714844 134.292969 252.761719 140.265625 C 253.03125 140.496094 252.851563 141.167969 252.292969 140.761719 Z M 179.609375 124.902344 C 193.769531 127.792969 208.308594 131.632813 222.570313 135.015625 C 222.761719 135.058594 222.773438 135.265625 222.59375 135.324219 C 215.539063 137.582031 209.332031 139.867188 203.8125 144.910156 L 146.050781 131.140625 C 146.050781 131.140625 145.632813 130.828125 146.011719 130.8125 C 157.78125 130.308594 168.832031 127.925781 179.609375 124.902344 Z M 151.109375 120.703125 L 151.121094 117.5625 L 158.757813 119.511719 C 158.757813 119.511719 158.929688 119.792969 158.753906 119.867188 C 157.070313 120.578125 153.410156 120.882813 151.109375 120.703125 Z M 145.601563 119.777344 C 145.683594 121.933594 143.707031 121.773438 140.984375 121.636719 C 130.996094 121.132813 119.519531 122.472656 111.777344 115.824219 C 120.09375 114.003906 128.339844 112.609375 136.371094 110.554688 L 136.371094 107.039063 C 139.074219 107.804688 141.289063 108.792969 143.804688 109.632813 C 140.523438 113.066406 140.449219 115.429688 145.839844 116.117188 C 145.242188 116.945313 145.554688 118.488281 145.601563 119.777344 Z M 74.890625 90.65625 C 64.71875 87.9375 53.445313 86.304688 43.230469 83.632813 C 43.238281 82.871094 43.296875 81.953125 43.261719 80.980469 L 82.574219 89.503906 C 85.777344 89.078125 89.398438 88.214844 92.03125 88.007813 C 92.738281 87.953125 92.761719 88.296875 92.183594 88.4375 C 83.328125 90.652344 74.488281 93.003906 65.414063 94.742188 L 64.625 94.167969 C 64.625 94.167969 64.589844 93.898438 64.714844 93.863281 C 68.265625 92.9375 71.941406 91.84375 74.945313 91.011719 C 75.15625 90.953125 75.117188 90.71875 74.890625 90.65625 Z M 40.429688 120.703125 L 37.699219 120.703125 L 36.625 73.953125 C 37.511719 73.261719 38.570313 72.558594 39.746094 72.195313 C 39.550781 88.59375 40.234375 102.355469 40.429688 120.703125 Z M 37.199219 57.820313 C 37.199219 57.820313 36.582031 57.496094 37.066406 57.371094 C 39.441406 56.757813 41.210938 53.960938 40.90625 51 C 40.886719 50.8125 41.089844 50.683594 41.253906 50.835938 C 42.953125 52.417969 46.480469 55.703125 46.480469 55.703125 C 44.796875 58.492188 43.613281 60.949219 41.894531 63.804688 L 40.535156 58.550781 Z M 51.363281 58.144531 L 40.242188 47.890625 C 40.242188 47.890625 39.972656 47.480469 40.480469 47.652344 C 47.984375 50.160156 107.828125 70.121094 132.203125 76.429688 C 162.421875 84.25 214.050781 96.679688 245.292969 102.746094 C 243.917969 104.601563 240.765625 106.09375 238.898438 106.550781 C 231.25 108.433594 213.066406 102.996094 193.449219 98.773438 C 144.851563 88.316406 96.851563 76.148438 51.363281 58.144531 Z M 53.117188 61.363281 C 63.902344 70.125 75.535156 77.175781 86.71875 84.203125 C 86.871094 84.300781 86.632813 84.417969 86.632813 84.417969 L 44.335938 78.539063 C 46.871094 72.6875 49.898438 66.925781 53.117188 61.363281 Z M 41.695313 71.847656 C 42.824219 71.566406 44.28125 71.007813 43.261719 69.367188 C 45.878906 65.589844 47.234375 62.605469 49.996094 58.53125 L 50.679688 59.214844 L 42.96875 72.878906 L 41.65625 72.214844 C 41.65625 72.214844 41.507813 71.894531 41.695313 71.847656 Z M 81.355469 101.625 C 90.230469 99.152344 98.609375 96.933594 107.578125 94.742188 C 115.386719 98.160156 123 101.964844 131.101563 104.894531 L 131.101563 107.722656 L 105.140625 112.3125 C 96.820313 109.539063 89.441406 105.078125 81.34375 101.964844 C 81.175781 101.898438 81.179688 101.675781 81.355469 101.625 Z M 35.550781 47.601563 C 40.027344 45.964844 40.238281 55.253906 36.625 56.183594 L 36.234375 55.703125 C 39.113281 54.765625 38.875 47.121094 35.550781 48.285156 Z M 32.78125 62.824219 L 30.28125 60.582031 C 30.90625 60.257813 32.800781 59.234375 33.046875 61.203125 C 33.046875 61.453125 33.074219 62.183594 33.09375 62.664063 C 33.101563 62.929688 32.78125 62.824219 32.78125 62.824219 Z M 34.441406 55.640625 C 33.714844 57.222656 31.179688 58.132813 30.054688 55.214844 C 29.457031 53.660156 29.390625 51.671875 30.113281 50.195313 C 31.246094 47.894531 34.582031 47.492188 35.09375 50.765625 C 35.351563 52.40625 35.125 54.152344 34.441406 55.640625 Z M 34.777344 75.492188 C 34.875 76.371094 35.160156 77.371094 34.183594 77.46875 L 28.132813 73.269531 C 30.191406 72.042969 32.316406 76.171875 34.777344 75.492188 Z M 9.90625 82.105469 C 13.414063 83.023438 16.628906 83.511719 19.738281 84.496094 C 13.1875 90.722656 9.90625 82.105469 9.90625 82.105469 Z M 25.464844 80.277344 C 19.359375 79.269531 8.800781 77.058594 2.894531 75.558594 C 1.78125 75.277344 1.761719 74.953125 2.890625 75.148438 C 8.667969 76.136719 19.511719 78.40625 25.507813 79.875 C 26.859375 80.207031 26.808594 80.5 25.464844 80.277344 Z M 22.488281 75.171875 C 22.488281 75.171875 22.273438 74.890625 22.46875 74.808594 C 24.046875 74.15625 25.722656 73.140625 27.839844 74.636719 L 30.308594 76.644531 L 30.175781 76.988281 Z M 29.597656 81.925781 C 29.464844 81.835938 29.457031 81.660156 29.582031 81.664063 C 31.773438 81.730469 33.410156 83.046875 35.101563 84.195313 C 35.25 84.296875 35.1875 84.53125 34.996094 84.519531 C 33.324219 84.429688 31.167969 82.984375 29.597656 81.925781 Z M 36.597656 129.84375 C 34.136719 130.558594 32.78125 128.753906 34.316406 126.816406 C 35.28125 125.597656 36.214844 124.65625 36.234375 122.765625 C 38.882813 122.8125 39.949219 122.746094 42.605469 122.820313 C 43.019531 127.140625 39.941406 128.878906 36.597656 129.84375 Z M 80.820313 113.902344 C 82.039063 114.515625 83.472656 115.335938 84.742188 115.824219 C 81.582031 117.867188 80.363281 117.183594 80.820313 113.902344 Z M 172.320313 143.03125 L 136.863281 134.71875 L 41.503906 88.007813 L 41.503906 87.324219 L 137.996094 133.824219 L 174.730469 142.46875 C 182.144531 147.449219 190.246094 151.839844 197.175781 157.207031 L 196.492188 157.988281 Z M 239.523438 199.082031 C 236.632813 209.867188 227.375 214.035156 218.035156 205.132813 C 211.363281 198.773438 206.746094 190.785156 207.621094 177.292969 C 208.558594 162.839844 221.179688 157.300781 232.261719 169.460938 C 239.953125 177.898438 241.796875 190.609375 239.523438 199.082031 Z M 246.769531 215.964844 C 246 216.925781 245.675781 216.691406 246.316406 215.65625 C 255.949219 200.089844 252.859375 179.265625 242.730469 159.355469 C 241.769531 157.542969 242.035156 157.09375 243.234375 158.96875 C 251.699219 172.988281 259.085938 200.625 246.769531 215.964844 Z M 264.324219 184.632813 C 260.242188 185.820313 258.453125 184.734375 257.203125 180.390625 C 254.488281 170.953125 247.703125 155.507813 239.269531 148.652344 C 232.019531 142.753906 220.40625 138.621094 209.882813 145.84375 C 203.550781 150.191406 199.53125 156.789063 196.96875 162.644531 C 196.578125 163.539063 196.257813 163.335938 196.5625 162.367188 C 198.699219 155.546875 203.414063 149.3125 209.441406 144.84375 C 218.4375 138.167969 228.851563 139.988281 237.0625 145.921875 C 248.714844 154.34375 253.003906 165.945313 258.398438 180.089844 C 259.542969 183.082031 260.847656 184.453125 263.988281 183.585938 C 264.21875 183.519531 264.59375 184.554688 264.324219 184.632813 Z M 336.648438 194.882813 C 336.648438 194.882813 266.335938 176.175781 263.667969 175.414063 C 263.699219 176.417969 264.234375 178.15625 264.671875 179.398438 C 264.785156 179.734375 264.417969 179.972656 264.171875 179.65625 C 262.941406 178.085938 262.46875 175.289063 262.570313 173.800781 L 336.640625 193.203125 C 346.648438 190.746094 348.628906 190.054688 356.363281 188.148438 L 357.046875 188.832031 Z M 351.09375 167.746094 C 352.652344 168.269531 354.261719 168.984375 355.625 169.335938 C 355.300781 171.4375 354.453125 174.3125 354.019531 176.972656 C 353.984375 177.1875 353.777344 177.167969 353.707031 176.941406 C 352.824219 174.15625 352.042969 170.914063 351.09375 167.746094 Z M 360.558594 178.679688 L 362.316406 170.578125 C 370.648438 172.464844 377.46875 174.074219 385.578125 176.3125 C 387.921875 174.554688 391.988281 174.386719 394.621094 174.09375 C 395.988281 173.117188 395.890625 171.261719 395.304688 169.894531 C 397.0625 169.113281 398.820313 168.625 400.96875 168.820313 L 402.039063 170.96875 C 393.550781 178.398438 373.050781 180.066406 360.558594 178.679688 Z M 408.382813 176.921875 C 405.359375 173.898438 402.820313 170.089844 401.339844 165.703125 L 404.460938 164.335938 L 409.75 175.554688 Z M 454.0625 143.152344 C 441.898438 150.601563 430.097656 160.785156 414.878906 158.914063 C 393.265625 156.257813 385.515625 165.980469 362.707031 163.257813 C 357.730469 159.746094 346.894531 162.574219 347.578125 153.695313 C 367.976563 154.863281 384.863281 145.59375 399.601563 131.929688 C 403.210938 132.90625 406.921875 131.832031 409.75 129.878906 C 412.972656 127.34375 413.167969 123.242188 416.386719 121.09375 L 433.953125 118.949219 L 428.203125 139.976563 C 428.203125 139.976563 426.878906 142.878906 430.550781 145.359375 C 432.941406 146.976563 433.78125 147.851563 436.152344 147.582031 C 442.46875 146.867188 448.8125 144.015625 454.0625 142.175781 Z M 456.058594 190.703125 C 454.164063 192.34375 453.550781 191.957031 454.828125 190.054688 C 462.257813 178.972656 476.363281 187.902344 487.082031 187.902344 C 487.53125 187.902344 487.246094 188.523438 487.003906 188.515625 C 479.511719 188.265625 472.027344 186.667969 464.894531 186.402344 C 460.355469 186.230469 459.550781 187.675781 456.058594 190.703125 Z M 487.441406 203.664063 C 480.664063 203.078125 473.460938 202.492188 467.234375 200.988281 C 466.199219 200.734375 467.253906 200.457031 467.253906 200.457031 L 487.84375 202.507813 Z M 490.5625 175.164063 C 480.679688 174.347656 471.28125 173.308594 461.5625 171.417969 C 459.742188 171.0625 457.851563 170.351563 456 169.066406 C 453.71875 167.484375 455.316406 166.292969 457.570313 167.738281 C 460.371094 169.527344 463.367188 170.25 463.367188 170.25 L 490.5625 174.484375 Z M 511.96875 219.613281 C 507.0625 221.523438 499.105469 212.945313 494.96875 205.042969 C 494.898438 204.910156 495.175781 204.695313 495.175781 204.695313 L 503.253906 205.714844 C 504.527344 206.785156 505.109375 208.386719 505.789063 209.8125 C 507.921875 214.265625 509.367188 212.492188 509.199219 210.28125 C 509.113281 209.144531 509.445313 208.714844 510.183594 209.671875 C 512.667969 212.910156 516.4375 217.527344 511.96875 219.613281 Z M 509.496094 204.640625 C 507.828125 204.394531 507.214844 202.929688 506.519531 201.445313 C 505.390625 199.109375 500.972656 195.160156 499.464844 193.851563 C 499.144531 193.574219 499.320313 193.457031 499.503906 193.476563 C 503.625 193.929688 507.839844 194.222656 511.644531 194.882813 C 509.652344 197.320313 508.964844 201.742188 509.496094 204.640625 Z M 512.429688 196.605469 C 512.519531 196.476563 512.804688 196.546875 512.847656 196.714844 C 513.238281 198.355469 513.390625 201.019531 512.855469 202.8125 C 512.28125 204.757813 511.460938 204.398438 511.308594 202.660156 C 511.152344 200.898438 511.429688 198.066406 512.429688 196.605469 Z M 512.328125 180.4375 L 509.203125 192.734375 L 497.589844 191.367188 C 502.179688 186.976563 506.863281 182.582031 512.328125 180.4375 Z M 497.589844 194.101563 C 501.394531 197.996094 506.167969 201.980469 506.96875 207.3125 C 507.007813 207.589844 506.738281 207.6875 506.574219 207.449219 C 503.394531 202.964844 498.285156 198.179688 494.761719 194.101563 Z M 500.710938 202.902344 C 500.84375 203.027344 500.710938 203.292969 500.503906 203.296875 C 498.484375 203.320313 495.773438 202.871094 493.5625 202.429688 C 492.660156 199.730469 490.503906 195.976563 492.964844 193.367188 C 493.171875 193.148438 493.398438 193.355469 493.332031 193.660156 C 492.652344 196.84375 497.390625 199.800781 500.710938 202.902344 Z M 511.882813 163.726563 C 505.554688 160.742188 498.617188 158.796875 493.519531 155.035156 C 488.046875 150.992188 491.570313 144.839844 493.6875 121.777344 L 492.320313 120.703125 C 485.480469 119.78125 472.996094 118.949219 472.996094 118.949219 C 471.832031 127.09375 470.6875 136.117188 470.152344 143.664063 C 473.023438 144.074219 477.109375 144.390625 479.378906 144.859375 C 481.136719 145.226563 481.464844 145.621094 481.414063 146.617188 C 481.363281 148.214844 480.414063 159.355469 480.414063 159.355469 C 474.109375 158.804688 465.125 158.03125 458.792969 156.601563 C 459.445313 148.160156 463.503906 113.960938 465.046875 101.082031 C 465.34375 98.878906 465.921875 99.035156 465.808594 101.09375 C 464.984375 113.71875 462.066406 130.269531 461.308594 142.800781 L 468.800781 143.542969 L 471.601563 118.785156 C 470 118.402344 468.777344 118.203125 467.726563 117.875 C 468.230469 113.15625 467.976563 105.59375 468.953125 100.578125 C 469.109375 99.785156 469.429688 100.640625 469.429688 100.640625 L 468.820313 116.53125 L 497.695313 120.246094 L 497.730469 120.5625 L 494.789063 121.921875 C 494.789063 121.921875 491.90625 139.644531 492.265625 149.054688 C 492.402344 152.59375 493.558594 152.898438 494.554688 153.859375 C 498.46875 157.632813 505.382813 159.109375 511.253906 161.792969 C 511.570313 162.347656 511.890625 162.96875 512.152344 163.546875 C 512.214844 163.683594 512.03125 163.800781 511.882813 163.726563 "/>
<path style=" stroke:none;fill-rule:nonzero;fill:rgb(0%,0%,0%);fill-opacity:1;" d="M 32.40625 51.976563 C 30.9375 51.53125 29.722656 53.242188 31.617188 53.78125 C 33.316406 54.277344 33.878906 52.421875 32.40625 51.976563 "/>
<path style=" stroke:none;fill-rule:nonzero;fill:rgb(0%,0%,0%);fill-opacity:1;" d="M 228.523438 204.765625 C 216.992188 202.171875 208.210938 179.324219 217.042969 169.382813 C 218.640625 167.582031 217.761719 166.707031 215.996094 167.707031 C 202.722656 175.253906 213.355469 207.023438 228.515625 206.582031 C 230.660156 206.519531 230.839844 205.289063 228.523438 204.765625 "/>
<path style=" stroke:none;fill-rule:nonzero;fill:rgb(0%,0%,0%);fill-opacity:1;" d="M 214.0625 55.3125 C 213.648438 57.480469 211.664063 63.195313 217.574219 63.414063 C 218.605469 61.445313 218.746094 59.214844 218.648438 56.777344 C 217.375 56.136719 215.527344 55.800781 214.0625 55.3125 "/>
<path style=" stroke:none;fill-rule:nonzero;fill:rgb(0%,0%,0%);fill-opacity:1;" d="M 222.164063 58.53125 C 218.714844 60.011719 220.070313 65.378906 224.210938 64.878906 C 230.164063 64.066406 228.164063 57.226563 222.164063 58.53125 "/>
<path style=" stroke:none;fill-rule:nonzero;fill:rgb(0%,0%,0%);fill-opacity:1;" d="M 226.101563 180.96875 C 225.558594 181.796875 224.503906 182.339844 223.472656 182.808594 C 222.246094 183.363281 221.734375 184.269531 222.289063 186.542969 C 222.847656 188.820313 224.304688 189.523438 226.4375 189.074219 C 227.9375 188.757813 229.386719 188.058594 230.945313 188.535156 C 230.648438 189.308594 230.027344 189.214844 229.433594 189.21875 C 228.320313 189.226563 228.390625 190.222656 229.578125 190.304688 C 232.703125 190.519531 233.515625 187.921875 232.730469 183.972656 C 231.914063 179.890625 227.734375 178.476563 226.101563 180.96875 Z M 224.210938 187.855469 C 223.628906 186.585938 222.355469 184.828125 223.921875 183.558594 C 225.480469 183.851563 225.675781 186.097656 225.96875 187.464844 C 225.578125 188.148438 224.894531 188.242188 224.210938 187.855469 "/>
<path style=" stroke:none;fill-rule:nonzero;fill:rgb(0%,0%,0%);fill-opacity:1;" d="M 239.339844 35.304688 C 239.144531 31.597656 239.535156 28.472656 240.414063 24.765625 L 239.339844 24.765625 C 236.703125 28.082031 235.925781 32.085938 235.828125 36.378906 C 236.996094 36.964844 238.65625 35.988281 239.339844 35.304688 "/>
<path style=" stroke:none;fill-rule:nonzero;fill:rgb(0%,0%,0%);fill-opacity:1;" d="M 415.058594 61.5 C 414.683594 62.808594 415.675781 63.90625 417.847656 62.664063 C 419.164063 61.910156 420.429688 60.652344 422.046875 61.65625 C 420.792969 64.792969 424.160156 65.945313 426.964844 62.710938 C 428.105469 61.40625 432.199219 62.4375 430.441406 59.605469 L 415.546875 57.257813 C 415.546875 57.257813 411.726563 56.285156 414.175781 58.933594 C 414.984375 59.8125 415.296875 60.660156 415.058594 61.5 Z M 418.140625 59.007813 C 420.527344 59.28125 423.015625 59.40625 425.347656 59.945313 C 425.78125 60.042969 425.703125 60.332031 425.242188 60.335938 C 422.730469 60.359375 420.328125 60.058594 418.074219 59.3125 C 417.636719 59.164063 417.683594 58.953125 418.140625 59.007813 "/>
<path style=" stroke:none;fill-rule:nonzero;fill:rgb(0%,0%,0%);fill-opacity:1;" d="M 461.410156 155.773438 L 478.769531 158.050781 C 479.074219 154.46875 479.660156 150.429688 479.632813 146.667969 C 473.972656 146.082031 468.101563 145.527344 462.378906 144.890625 L 461.410156 155.773438 "/>
<path style=" stroke:none;fill-rule:nonzero;fill:rgb(0%,0%,0%);fill-opacity:1;" d="M 219.40625 187.546875 C 218.660156 187.546875 218.058594 188.152344 218.058594 188.894531 C 218.058594 189.640625 218.660156 190.242188 219.40625 190.242188 C 220.148438 190.242188 220.753906 189.640625 220.753906 188.894531 C 220.753906 188.152344 220.148438 187.546875 219.40625 187.546875 "/>
<path style=" stroke:none;fill-rule:nonzero;fill:rgb(0%,0%,0%);fill-opacity:1;" d="M 217.398438 181.886719 C 217.398438 182.625 217.992188 183.222656 218.722656 183.222656 C 219.457031 183.222656 220.050781 182.625 220.050781 181.886719 C 220.050781 181.148438 219.457031 180.550781 218.722656 180.550781 C 217.992188 180.550781 217.398438 181.148438 217.398438 181.886719 "/>
<path style=" stroke:none;fill-rule:nonzero;fill:rgb(0%,0%,0%);fill-opacity:1;" d="M 221.320313 176.136719 C 222.03125 176.136719 222.605469 175.589844 222.605469 174.914063 C 222.605469 174.238281 222.03125 173.691406 221.320313 173.691406 C 220.613281 173.691406 220.039063 174.238281 220.039063 174.914063 C 220.039063 175.589844 220.613281 176.136719 221.320313 176.136719 "/>
<path style=" stroke:none;fill-rule:nonzero;fill:rgb(0%,0%,0%);fill-opacity:1;" d="M 226.695313 196.09375 C 226.695313 195.332031 226.160156 194.71875 225.503906 194.71875 C 224.84375 194.71875 224.3125 195.332031 224.3125 196.09375 C 224.3125 196.851563 224.84375 197.46875 225.503906 197.46875 C 226.160156 197.46875 226.695313 196.851563 226.695313 196.09375 "/>
<path style=" stroke:none;fill-rule:nonzero;fill:rgb(0%,0%,0%);fill-opacity:1;" d="M 231.835938 197.160156 C 231.214844 197.160156 230.707031 197.644531 230.707031 198.238281 C 230.707031 198.832031 231.214844 199.3125 231.835938 199.3125 C 232.460938 199.3125 232.964844 198.832031 232.964844 198.238281 C 232.964844 197.644531 232.460938 197.160156 231.835938 197.160156 "/>
<path style=" stroke:none;fill-rule:nonzero;fill:rgb(0%,0%,0%);fill-opacity:1;" d="M 227.371094 172.996094 C 227.945313 173.167969 228.515625 172.933594 228.652344 172.476563 C 228.785156 172.019531 228.433594 171.511719 227.863281 171.34375 C 227.289063 171.171875 226.71875 171.40625 226.585938 171.863281 C 226.449219 172.320313 226.800781 172.828125 227.371094 172.996094 "/>
<path style=" stroke:none;fill-rule:nonzero;fill:rgb(0%,0%,0%);fill-opacity:1;" d="M 232.011719 175.707031 C 232.4375 176.125 233.050781 176.1875 233.386719 175.847656 C 233.722656 175.511719 233.648438 174.894531 233.222656 174.476563 C 232.800781 174.058594 232.183594 173.996094 231.851563 174.335938 C 231.515625 174.675781 231.589844 175.289063 232.011719 175.707031 "/>
<path style=" stroke:none;fill-rule:nonzero;fill:rgb(0%,0%,0%);fill-opacity:1;" d="M 236.734375 182.492188 C 237.195313 182.378906 237.457031 181.820313 237.316406 181.238281 C 237.175781 180.660156 236.683594 180.285156 236.222656 180.398438 C 235.757813 180.511719 235.5 181.070313 235.640625 181.648438 C 235.78125 182.226563 236.269531 182.605469 236.734375 182.492188 "/>
<path style=" stroke:none;fill-rule:nonzero;fill:rgb(0%,0%,0%);fill-opacity:1;" d="M 237.738281 190.847656 C 238.203125 190.9375 238.675781 190.53125 238.785156 189.949219 C 238.894531 189.363281 238.601563 188.816406 238.136719 188.730469 C 237.667969 188.640625 237.199219 189.042969 237.089844 189.628906 C 236.976563 190.214844 237.269531 190.761719 237.738281 190.847656 "/>
<path style=" stroke:none;fill-rule:nonzero;fill:rgb(0%,0%,0%);fill-opacity:1;" d="M 235.613281 196.613281 C 236.046875 196.8125 236.597656 196.535156 236.84375 195.992188 C 237.09375 195.449219 236.941406 194.851563 236.511719 194.652344 C 236.078125 194.453125 235.523438 194.730469 235.277344 195.273438 C 235.027344 195.816406 235.179688 196.414063 235.613281 196.613281 "/>
</g>
</svg>
