<?xml version="1.0" encoding="UTF-8"?>
<svg xmlns="http://www.w3.org/2000/svg" xmlns:xlink="http://www.w3.org/1999/xlink" width="463pt" height="623pt" viewBox="0 0 463 623" version="1.1">
<g id="surface1">
<path style=" stroke:none;fill-rule:nonzero;fill:rgb(0%,0%,0%);fill-opacity:1;" d="M 462.472656 449.554688 C 461.371094 446.828125 457.835938 449.03125 455.117188 450.523438 C 455.117188 450.523438 311.886719 275.894531 264.695313 203.808594 C 233.976563 156.882813 202.578125 99.628906 189.527344 51.074219 C 186.875 41.203125 185.066406 30.941406 185.246094 20.007813 C 181.878906 14.261719 180.351563 7.453125 177.902344 1.28125 C 176.371094 -1.621094 171.996094 1.878906 173.753906 4.6875 C 175.667969 7.773438 170.535156 6.847656 170.242188 9.261719 C 169.496094 15.113281 162.582031 11.710938 161.09375 17.347656 C 157.777344 16.980469 151.96875 20.050781 153.855469 25.011719 C 157.472656 23.945313 159.496094 27.234375 162.582031 26.925781 C 168.222656 26.285156 168.753906 18.625 175.242188 20.433594 C 176.664063 20.914063 175.773438 17.5625 177.585938 17.667969 C 182.894531 27.28125 184.503906 38.144531 183.597656 48.917969 C 182.371094 63.464844 175.296875 79.007813 171.765625 84.296875 C 160.863281 100.628906 143.269531 133.734375 143.269531 133.734375 C 139.453125 128.828125 133.230469 118.9375 133.128906 102.753906 C 133.128906 102.753906 133.121094 72.546875 133.109375 62.570313 L 131.617188 59.484375 C 130.714844 57.933594 128.972656 58.304688 128.960938 60.230469 C 128.960938 62.882813 127.617188 64.164063 125.988281 65.339844 C 123.855469 66.878906 121.570313 68.515625 120.644531 70.789063 C 120.242188 71.785156 119.828125 72.714844 118.53125 72.890625 C 116.417969 73.140625 114.949219 75.671875 114.019531 77.703125 C 113.542969 78.742188 112.46875 79.179688 111.644531 78.238281 C 110.1875 76.574219 109.175781 77.46875 109.523438 79.277344 C 110.578125 84.773438 117.082031 88.710938 121.617188 82.039063 C 124.0625 81.1875 126.511719 83.742188 128.960938 82.785156 C 128.960938 88.210938 128.960938 93.105469 128.960938 98.957031 C 124.597656 102.824219 115.621094 118.273438 113.429688 121.933594 C 110.757813 126.394531 107.730469 130.996094 104.183594 135.242188 C 89.371094 152.957031 45.574219 210.953125 37.027344 228.765625 C 35.820313 228.757813 32.136719 228.476563 30.34375 228.296875 C 28.871094 228.152344 27.472656 227.792969 26.253906 226.976563 C 23.960938 225.445313 21.578125 225.972656 21.28125 228.339844 C 14.046875 225.46875 8.726563 231.746094 2.554688 233.34375 C -0.675781 238.90625 0.421875 244.507813 1.132813 247.671875 C 1.941406 251.269531 3.332031 250.109375 3.957031 247.847656 C 6.078125 240.152344 16.03125 248.351563 21.28125 245.578125 C 22.136719 253.144531 23.128906 261.441406 24.367188 269.410156 C 15.308594 366.210938 17.027344 471.953125 36.175781 557.757813 C 36.175781 557.757813 33.449219 566.160156 32.539063 567.769531 C 31.484375 569.648438 30.742188 571.5 32.347656 573.503906 L 60.757813 573.503906 C 62.667969 577.414063 70.003906 580.722656 74.152344 582.75 C 74.308594 586.335938 74.382813 590.742188 74.429688 593.898438 C 73.410156 594.152344 71.675781 595.089844 69.585938 595.742188 C 68.523438 602.445313 67.886719 610.640625 71.503906 616.382813 C 68.75 618.605469 59.753906 615.855469 55.230469 618.964844 C 55.007813 619.117188 55.753906 619.921875 56.339844 619.695313 C 58.164063 618.992188 60.796875 618.964844 63.164063 618.851563 C 79.8125 618.070313 95.679688 615.808594 111.722656 612.234375 C 119.488281 613.085938 127.683594 613.296875 134.703125 616.382813 C 126.617188 617.554688 118.425781 620.320313 109.808594 620.960938 L 109.808594 621.8125 C 118.285156 621.929688 129.71875 618.730469 133.824219 618.742188 C 140.453125 618.765625 146.480469 617.042969 152.539063 615.546875 C 164.589844 612.578125 176.332031 611.316406 187.679688 613.132813 C 197.324219 614.675781 206.910156 618.027344 217.378906 614.46875 C 222.058594 618.191406 229.402344 616.917969 235.039063 617.128906 C 235.039063 617.128906 234.882813 623.945313 243.746094 620.058594 C 247.03125 618.621094 250.128906 616.957031 252.277344 620.214844 C 253.925781 622.714844 258.039063 619.542969 259.285156 620.703125 C 260.742188 622.050781 264.070313 620.886719 264.671875 620.492188 C 265.984375 619.640625 267.261719 620.0625 268.546875 620.789063 C 270.90625 622.117188 273.292969 624.457031 276.003906 621.8125 C 279.136719 622.09375 282.421875 621.722656 285.769531 621.253906 C 295.609375 619.875 298.863281 619.484375 303.914063 621.273438 C 313.375 624.625 320.695313 616.359375 330.800781 619.894531 C 331.605469 616.226563 333.457031 617.097656 335.460938 617.882813 C 339.988281 619.65625 343.167969 613.5 341.261719 610.035156 L 456.777344 461.679688 C 455.183594 457.421875 461.355469 456.890625 462.523438 454.015625 C 463.039063 452.621094 463.046875 450.96875 462.472656 449.554688 Z M 181.414063 21.179688 C 180.519531 20.285156 180.195313 18.261719 179.445313 16.835938 C 178.253906 14.5625 176.597656 15.46875 175.734375 16.671875 C 172.746094 20.851563 165.867188 18.089844 164.496094 24.265625 C 161.410156 25.328125 158.644531 22.457031 155.773438 22.351563 C 156.6875 19.378906 158.769531 19.535156 160.761719 19.464844 C 164.054688 19.34375 168.007813 16.777344 170.078125 13.621094 C 171.238281 11.851563 172.289063 9.921875 174.574219 9.679688 C 175.128906 9.621094 177.617188 9.417969 176.519531 6.828125 C 176.082031 5.796875 175.347656 4.699219 175.667969 3.515625 L 176.414063 3.515625 C 178.257813 8.785156 182.585938 14.6875 181.414063 21.179688 Z M 5.214844 242.597656 C 3.511719 240.683594 3.59375 237.976563 4.042969 235.257813 L 14.789063 230.257813 C 16.8125 234.300781 12.882813 239.25 17.027344 243.34375 C 14.152344 242.492188 9.152344 241.746094 5.214844 242.597656 Z M 407.761719 396.425781 C 417.40625 408.40625 417.144531 408.894531 406.925781 397.308594 C 382.613281 369.75 340.503906 321.824219 333.460938 312.609375 C 337.671875 313.835938 341.503906 315.453125 344.667969 318.484375 C 346.03125 319.785156 384.867188 367.980469 407.761719 396.425781 Z M 173.328125 88.210938 C 178.859375 76.296875 184.925781 63.953125 186.734375 50.226563 C 202.796875 106.085938 218.082031 132.5625 242.085938 172.765625 C 291.007813 254.71875 339.632813 312.289063 339.632813 312.289063 C 285 288.082031 210.1875 274.066406 158.253906 300.136719 C 158.253906 300.136719 154.535156 250.671875 157.007813 195.378906 C 158.734375 156.695313 164.085938 114.054688 173.328125 88.210938 Z M 390.160156 516.792969 C 388.535156 517.109375 386.355469 513.664063 385.597656 512.5625 L 429.964844 481.148438 L 399.324219 512.21875 C 396.457031 512.558594 393.066406 516.226563 390.160156 516.792969 Z M 394.320313 516.792969 L 392.089844 519.132813 L 390.835938 518.460938 Z M 350.039063 518.183594 C 348.539063 518.4375 348.519531 518.164063 349.953125 517.835938 C 373.902344 512.300781 401.085938 495.820313 418.421875 478.976563 C 419.496094 477.929688 419.75 478.023438 418.742188 479.136719 C 404.511719 494.871094 371.960938 514.507813 350.039063 518.183594 Z M 384.425781 514.558594 L 387.511719 517.964844 L 384 519.132813 Z M 384.320313 521.949219 C 385.234375 520.566406 388.902344 519.40625 390.40625 520.71875 L 382.828125 528.710938 C 383.03125 526.320313 383.144531 523.71875 384.320313 521.949219 Z M 439.96875 474.339844 C 431.5625 487.640625 418.367188 499.664063 405.492188 508.386719 Z M 382.085938 497.320313 C 381.457031 496.53125 380.808594 495.726563 380.171875 494.980469 C 363.785156 500.40625 346.972656 507.003906 330.375 512.964844 C 319.523438 497.855469 303.988281 463.910156 303.988281 463.910156 C 347.71875 457.636719 393.363281 457.101563 438.796875 457.101563 Z M 326.226563 512.21875 C 326.226563 512.21875 236.441406 524.097656 220.890625 526.792969 L 228.011719 485.324219 C 250.464844 474.667969 275.898438 468.699219 301.328125 464.339844 C 308.777344 480.617188 317.074219 496.578125 326.226563 512.21875 Z M 267.597656 528.285156 C 261.109375 534.773438 252.171875 537.648438 243.871094 539.03125 C 243.742188 538.777344 243.425781 537.726563 242.898438 537.261719 C 242.277344 536.714844 241.21875 536.988281 241.164063 538.355469 C 241.066406 540.828125 238.707031 543.1875 241.105469 545.203125 L 240.785156 549.847656 L 236.53125 551.265625 L 234.296875 530.199219 L 317.589844 518.832031 L 269.832031 536.691406 C 268.554688 534.136719 271.214844 529.988281 267.597656 528.285156 Z M 244.777344 541.121094 C 250.011719 539.871094 253.71875 539.027344 258.34375 536.691406 C 258.082031 538.113281 259.652344 539.980469 262.023438 538.808594 C 263.375 538.140625 264.527344 536.851563 265.683594 537.859375 C 261.296875 540.898438 252.382813 541.164063 250.679688 546.691406 L 243.695313 549.023438 C 243.597656 543.148438 246.523438 544.792969 244.777344 541.121094 Z M 260.257813 535.625 L 265.257813 533.285156 C 265.472656 535.09375 262.253906 536.917969 260.683594 537.117188 C 260.042969 536.796875 259.863281 536.300781 260.257813 535.625 Z M 224.71875 548.605469 C 224.933594 550.839844 225.179688 553.089844 225.464844 555.097656 L 216.554688 557.945313 C 216.554688 557.945313 217.300781 551.980469 217.804688 548.773438 Z M 218.371094 543.109375 L 220.039063 531.796875 C 221.421875 531.640625 222.25 531.445313 223.550781 531.371094 C 223.761719 535.09375 224.03125 538.9375 224.292969 542.769531 C 222.734375 542.847656 220.394531 543.003906 218.371094 543.109375 Z M 218.546875 527.113281 C 215.996094 527.433594 213.652344 527.679688 210.886719 527.964844 C 205.246094 484.023438 205.460938 435.820313 207.800781 390.390625 C 212.269531 423.054688 218.230469 454.976563 226.210938 486.148438 C 223.46875 500.363281 220.953125 513.976563 218.546875 527.113281 Z M 207.71875 528.957031 C 206.441406 529.488281 206.949219 531.476563 207.480469 532.113281 C 209.546875 533.742188 214.503906 532.566406 218.121094 532.113281 L 216.632813 543.285156 L 176.574219 545.824219 L 194.820313 292.394531 L 200.886719 296.542969 L 206.632813 380.070313 C 201.683594 430.113281 203.355469 480.757813 207.71875 528.957031 Z M 171.414063 561.433594 C 170.457031 559.519531 170.539063 556.1875 173.007813 556.269531 C 172.796875 558.183594 172.800781 560.691406 171.414063 561.433594 Z M 172.171875 563.019531 L 171.472656 569.015625 L 171.15625 568.949219 L 171.09375 563.183594 Z M 173.003906 554.4375 L 171.085938 554.4375 C 170.839844 552.558594 171.730469 551.800781 173.328125 552.011719 C 173.289063 552.8125 173.136719 553.769531 173.003906 554.4375 Z M 170.242188 546.691406 L 170.242188 542.023438 C 171.519531 541.917969 172.925781 541.34375 174.074219 541.371094 L 173.753906 546.691406 Z M 173.984375 539.09375 C 173.242188 539.265625 170.917969 539.578125 169.949219 539.824219 C 169.921875 538.894531 169.71875 537.332031 169.753906 535.894531 C 170.9375 535.75 172.84375 534.664063 174.074219 533.710938 C 174.445313 534.90625 174.171875 537.308594 173.984375 539.09375 Z M 171.414063 533.210938 L 169.496094 533.710938 C 169.5 532.972656 170.527344 532.601563 171.085938 531.765625 C 172.597656 529.496094 173.929688 526.230469 171.855469 525.152344 L 170.019531 524.929688 L 170.242188 522.964844 L 175.242188 522.21875 C 175.136719 525.835938 176.09375 531.949219 171.414063 533.210938 Z M 159 533.285156 C 158.355469 538.039063 157.890625 542.828125 157.355469 547.449219 C 151.679688 548.070313 144.917969 548.675781 138.535156 549.253906 C 114.484375 467.285156 100.300781 316.792969 100.976563 232.597656 C 119.0625 243.238281 135.34375 255.6875 153.429688 266.324219 L 165.667969 484.980469 L 160.167969 525.210938 C 157.839844 525.113281 154.214844 525.238281 152.191406 525.207031 L 150.769531 533.285156 C 153.042969 533.402344 156.554688 533.320313 159 533.285156 Z M 88.65625 589.496094 C 89.316406 589.808594 89.957031 590.101563 90.820313 590.492188 L 88.40625 590.917969 Z M 87.570313 586.910156 L 76.269531 581.164063 L 76.269531 573.078125 C 80.847656 572.761719 85.226563 572.429688 89.804688 572.109375 Z M 89.058594 587.65625 L 91.550781 571.839844 C 94.105469 571.414063 97.039063 571.152344 99.378906 570.84375 L 97.464844 588.828125 C 94.273438 590.136719 92.039063 588.933594 89.058594 587.65625 Z M 92.570313 565.84375 C 92.996094 562.863281 112.785156 435.109375 112.785156 435.109375 L 113.472656 440.53125 L 99.804688 564.867188 C 97.359375 565.292969 95.160156 565.585938 92.570313 565.84375 Z M 100.882813 570.761719 C 118.496094 568.042969 138.515625 565.507813 155.667969 562.175781 C 155.40625 566.257813 155.152344 569.375 154.835938 573.417969 C 151.855469 573.632813 147.472656 577.121094 146.195313 579.675781 C 139.28125 582.230469 132.578125 583.71875 125.128906 585.742188 C 123 583.1875 119.730469 583.199219 116.296875 584.25 L 99.058594 588.402344 Z M 101.296875 564.671875 C 101.878906 556.375 114.546875 446.023438 114.546875 446.023438 C 118.699219 473.050781 123.957031 499.980469 130.449219 526.050781 L 127.363281 549.777344 C 124.925781 549.964844 125.71875 555.296875 126.785156 555.183594 L 156.898438 553.164063 C 156.820313 553.902344 156.789063 554.953125 156.664063 555.933594 C 139.804688 559.824219 116.5 562.789063 101.296875 564.671875 Z M 131.441406 529.703125 C 133.058594 536.453125 134.921875 543.371094 136.621094 549.351563 L 129.703125 549.777344 C 130.207031 543.773438 131.015625 536.191406 131.441406 529.703125 Z M 145.34375 254.089844 L 138.535156 249.410156 C 142.152344 247.28125 146.835938 248.132813 150.027344 251.324219 C 148.429688 252.28125 147.09375 253.320313 145.34375 254.089844 Z M 153.183594 253.570313 C 153.402344 255.285156 153.347656 256.855469 153.335938 258.664063 L 148.109375 255.578125 C 149.792969 254.195313 151.695313 252.402344 153.183594 253.570313 Z M 126.617188 241.746094 L 129.703125 237.917969 L 142.363281 246.429688 C 134.605469 249.375 131.214844 244.992188 126.617188 241.746094 Z M 124.703125 240.683594 L 117.46875 236.003906 C 120.871094 235.46875 125.234375 233.660156 128.105469 236.855469 Z M 103.636719 227.597656 C 110.445313 225.011719 116.15625 229.992188 121.617188 233.34375 C 113.171875 235.789063 108.867188 231.066406 103.636719 227.597656 Z M 166.410156 477.320313 C 166.410156 477.320313 158.433594 309.949219 158.433594 302.714844 C 168.964844 298.351563 179.5 294.097656 190.988281 291.96875 C 186.59375 310.164063 166.410156 477.320313 166.410156 477.320313 Z M 191.40625 313.78125 L 191.40625 316.441406 L 190.988281 316.441406 L 190.988281 313.78125 Z M 190.445313 318.378906 L 190.445313 321.039063 L 190.03125 321.039063 L 190.03125 318.378906 Z M 181.6875 439.503906 C 181.386719 439.789063 178.96875 439.878906 178.738281 439.660156 C 178.773438 437.902344 179.144531 436.320313 179.253906 433.953125 L 181.816406 433.855469 C 181.726563 436.039063 181.667969 438.089844 181.6875 439.503906 Z M 168.625 512.503906 L 168.402344 506.738281 L 170.398438 506.628906 L 170.398438 512.722656 Z M 168.753906 544.03125 L 168.753906 547.117188 L 168.328125 547.117188 L 168.328125 544.03125 Z M 168.328125 505.054688 C 168.308594 503.183594 168.101563 501.425781 168.246094 499.390625 C 169.039063 499.226563 170.136719 499.035156 171.09375 498.8125 C 171.0625 501.496094 171.492188 505.007813 168.328125 505.054688 Z M 171.09375 514.558594 C 172.6875 514.453125 174.605469 514.773438 175.988281 514.132813 C 175.5625 517.023438 175.335938 518.484375 175.058594 520.078125 C 174.546875 520.253906 171.640625 520.5625 170.667969 520.625 Z M 175.664063 512.5625 L 171.839844 512.644531 L 171.839844 506.472656 C 173.113281 506.339844 174.933594 506.160156 176.414063 506.046875 C 176.105469 508.058594 176.0625 510.242188 175.664063 512.5625 Z M 176.160156 504.316406 L 172.15625 504.558594 L 172.582031 498.386719 C 173.964844 498.171875 175.964844 497.882813 176.839844 497.640625 C 176.824219 500.101563 176.453125 502.515625 176.160156 504.316406 Z M 185.246094 347.085938 L 185.988281 341.339844 C 186.84375 342.136719 186.394531 346.996094 185.246094 347.085938 Z M 185.988281 339.421875 L 186.414063 336.019531 L 186.664063 339.355469 Z M 185.25 349.324219 L 184.820313 354.746094 L 184.074219 354.746094 L 184.816406 349.183594 Z M 184.5 357.085938 L 184.074219 363.578125 L 182.902344 363.578125 L 183.648438 357.085938 Z M 183.328125 370.492188 C 182.820313 370.46875 182.609375 370.457031 182.253906 370.417969 L 182.585938 365.492188 C 184.261719 365.691406 183.6875 368.433594 183.328125 370.492188 Z M 182.585938 377.726563 L 181.414063 378.152344 C 181.132813 376.519531 181.414063 374.21875 181.734375 372.40625 C 183.503906 372.5625 182.796875 376.238281 182.585938 377.726563 Z M 182.160156 379.644531 L 181.734375 386.984375 C 180.421875 387.082031 180.164063 386.339844 180.234375 385.324219 C 180.316406 384.140625 180.515625 380.832031 180.648438 380.597656 C 180.921875 380.117188 181.660156 379.929688 182.160156 379.644531 Z M 181.21875 388.640625 C 181.269531 389.609375 181.160156 392.164063 181.148438 392.988281 C 180.695313 393.007813 179.671875 393.097656 179.289063 393.023438 C 179.304688 392.046875 179.402344 390 179.5 388.472656 C 180.417969 388.378906 180.859375 388.476563 181.21875 388.640625 Z M 180.988281 395.390625 C 180.777344 397.09375 180.8125 398.628906 180.671875 400.710938 L 177.902344 400.710938 L 178.753906 394.964844 C 179.617188 395.082031 180.242188 395.222656 180.988281 395.390625 Z M 180.136719 402.9375 C 180.113281 404.175781 179.722656 407.457031 179.652344 408.789063 C 178.847656 408.644531 178.09375 408.496094 177.15625 408.371094 L 177.902344 402.625 C 178.84375 402.667969 179.558594 402.671875 180.136719 402.9375 Z M 179.5 410.710938 C 179.582031 412.398438 179.046875 414.648438 179.066406 416.289063 L 175.988281 416.03125 L 176.839844 410.285156 Z M 178.753906 418.371094 C 178.429688 420.621094 178.464844 422.355469 178.09375 424.640625 L 174.925781 424.863281 L 175.988281 417.945313 Z M 177.902344 426.460938 L 177.585938 432.203125 L 174.074219 432.203125 C 174.390625 430.394531 174.589844 427.910156 174.761719 426.542969 Z M 176.992188 433.703125 C 176.738281 435.878906 176.675781 438.820313 176.519531 440.226563 C 175.925781 440.316406 173.328125 440.609375 173.007813 440.609375 L 173.753906 433.695313 C 174.855469 433.75 176.992188 433.703125 176.992188 433.703125 Z M 176.414063 442.101563 C 176.09375 444.546875 175.898438 446.597656 175.664063 448.507813 L 171.839844 448.589844 L 172.582031 442.101563 C 174.230469 442.304688 175.136719 442.101563 176.414063 442.101563 Z M 175.667969 450.1875 C 175.441406 452.5625 175.300781 453.566406 174.992188 455.1875 L 171.09375 455.1875 C 171.445313 453.261719 171.480469 452.050781 171.78125 450.65625 Z M 175.242188 457.101563 C 174.957031 458.542969 174.796875 460.515625 174.4375 462.273438 C 173.777344 462.273438 171.355469 462.414063 170.257813 462.453125 C 170.394531 460.71875 170.488281 458.46875 170.667969 457.101563 C 171.863281 456.910156 174.195313 456.90625 175.242188 457.101563 Z M 174.496094 464.75 C 173.941406 467.019531 173.9375 468.921875 173.667969 470.328125 L 169.179688 470.507813 L 169.921875 464.761719 Z M 173.753906 471.996094 C 173.105469 475.265625 172.777344 477.792969 172.414063 479.824219 L 168.007813 480.085938 L 168.753906 472.425781 C 170.847656 472.609375 172.15625 472.425781 173.753906 471.996094 Z M 172.582031 481.574219 L 172.15625 488.066406 C 170.453125 488.289063 169.15625 488.5625 167.261719 488.492188 L 167.582031 482 C 169.605469 482.105469 171.152344 481.855469 172.582031 481.574219 Z M 173.007813 496.472656 L 173.753906 489.660156 C 174.710938 490.726563 176.414063 490.832031 177.585938 490.40625 C 177.546875 493.207031 177.351563 494.40625 177.128906 495.914063 Z M 177.574219 488.492188 L 174.074219 488.066406 L 174.40625 481.835938 L 178.328125 481.574219 C 178.070313 484.246094 178.039063 485.648438 177.574219 488.492188 Z M 178.074219 479.335938 L 174.496094 479.660156 C 174.695313 476.628906 175.160156 473.839844 175.667969 471.910156 C 176.304688 471.683594 177.425781 471.441406 179.074219 471.253906 C 178.753906 474.445313 178.390625 477.570313 178.074219 479.335938 Z M 175.742188 469.824219 C 175.917969 467.695313 176.300781 465.9375 176.757813 464.347656 C 177.34375 464.035156 178.460938 463.761719 179.5 463.5 C 179.484375 465.636719 179.363281 466.5 179.152344 469.503906 Z M 179.402344 461.664063 L 176.414063 461.996094 C 176.746094 459.738281 176.851563 458.636719 177.15625 456.925781 L 180.242188 456.253906 C 180.0625 458.898438 179.78125 460.027344 179.402344 461.664063 Z M 180.132813 454.15625 C 179.671875 454.320313 177.984375 454.566406 177.421875 454.558594 C 177.542969 452.585938 177.75 451.59375 177.75 450.105469 C 178.578125 449.988281 179.710938 449.546875 180.988281 449.441406 C 180.765625 451.308594 180.527344 452.738281 180.132813 454.15625 Z M 180.65625 447.597656 L 177.585938 447.847656 L 178.578125 441.769531 L 181.414063 441.78125 C 180.902344 444.429688 180.847656 445.640625 180.65625 447.597656 Z M 179.609375 431.996094 C 179.4375 430.457031 179.496094 428.554688 179.664063 426.117188 L 182.585938 425.609375 C 182.347656 427.492188 182.082031 430.046875 182.113281 431.683594 C 181.324219 431.984375 180.082031 431.972656 179.609375 431.996094 Z M 180.300781 424.132813 C 180.214844 422.265625 180.1875 420.691406 180.359375 418.253906 L 183.277344 417.746094 C 183.042969 419.628906 182.773438 422.1875 182.808594 423.824219 C 182.015625 424.121094 180.773438 424.113281 180.300781 424.132813 Z M 183.242188 415.378906 L 180.671875 415.714844 L 180.988281 410.710938 L 183.648438 411.136719 C 183.515625 412.660156 183.367188 414.386719 183.242188 415.378906 Z M 183.582031 409.046875 L 181.414063 408.796875 L 181.734375 402.625 L 184.074219 403.050781 C 183.875 405.300781 183.773438 407.0625 183.582031 409.046875 Z M 181.984375 400.714844 C 182.167969 398.746094 182.292969 397.035156 182.585938 394.964844 L 184.5 394.644531 L 184.5 400.710938 C 183.542969 400.769531 182.847656 400.742188 181.984375 400.714844 Z M 184.492188 393.050781 L 182.585938 393.050781 C 182.675781 391.523438 182.472656 388.089844 185.246094 388.472656 C 185.03125 390.175781 184.71875 391.71875 184.492188 393.050781 Z M 184.914063 386.558594 L 183.328125 386.558594 C 183.542969 383.792969 183 379.6875 185.5625 378.898438 C 185.5 381.796875 184.992188 385.1875 184.914063 386.558594 Z M 184.5 377.726563 C 183.96875 376.238281 184.183594 371.996094 186.414063 371.980469 C 186.414063 374.21875 186.519531 376.769531 184.5 377.726563 Z M 185.246094 370.066406 C 184.605469 368.683594 185.246094 365.753906 186.734375 364.746094 C 186.972656 365.464844 187.015625 370.542969 185.246094 370.066406 Z M 185.988281 363.257813 C 185.351563 361.34375 185.351563 357.300781 187.480469 356.339844 C 187.585938 358.789063 187.585938 361.449219 185.988281 363.257813 Z M 186.414063 354.746094 L 187.160156 348.679688 L 188.328125 348.679688 C 188.160156 351.042969 188.511719 354.867188 186.414063 354.746094 Z M 187.160156 346.765625 L 187.90625 341.339844 L 188.648438 341.449219 C 188.535156 343.804688 188.421875 346.886719 187.160156 346.765625 Z M 187.90625 339.421875 C 187.890625 337.914063 187.714844 336.675781 189.1875 336.238281 L 189.074219 339.09375 C 188.738281 339.242188 188.34375 339.410156 187.90625 339.421875 Z M 188.648438 334.105469 C 187.90625 332.71875 188.589844 330.070313 189.074219 328.785156 C 189.5 329.953125 189.925781 332.71875 188.648438 334.105469 Z M 189.394531 326.867188 C 188.484375 326.667969 188.953125 324.265625 189.820313 324.101563 Z M 163.007813 520.511719 L 163.433594 514.449219 L 167.03125 514.449219 C 167.335938 516.480469 167.15625 518.492188 167.261719 520.511719 Z M 167.238281 522.894531 L 167.15625 524.222656 L 162.253906 524.390625 L 162.585938 522.726563 Z M 166.535156 499.402344 C 166.757813 501.355469 166.691406 503.066406 166.796875 504.984375 C 164.6875 504.699219 165.117188 501.34375 165.347656 499.238281 Z M 165.761719 497.320313 L 165.871094 493.902344 L 166.300781 493.902344 L 166.410156 497.320313 Z M 167.085938 506.484375 L 166.839844 512.644531 L 163.753906 512.644531 L 164.496094 506.046875 C 165.503906 506.191406 166.457031 506.375 167.085938 506.484375 Z M 159.601563 544.351563 C 161.492188 544.386719 164.519531 544.597656 166.410156 543.605469 L 166.410156 546.703125 C 164.285156 546.886719 161.828125 547.011719 159.425781 547.28125 C 159.519531 546.238281 159.601563 545.523438 159.601563 544.351563 Z M 159.921875 542.117188 C 159.980469 540.332031 160.226563 538.839844 160.347656 537.117188 L 166.839844 535.945313 C 166.816406 537.835938 166.605469 539.597656 166.425781 541.613281 C 165.191406 542.429688 159.921875 542.117188 159.921875 542.117188 Z M 160.832031 534.953125 C 160.808594 534.566406 160.925781 533.804688 160.925781 533.203125 C 163.136719 533.238281 165.347656 532.859375 167.582031 532.859375 C 166.828125 533.914063 163.4375 535.664063 160.832031 534.953125 Z M 167.261719 490.40625 C 168.753906 490.40625 170.453125 490.511719 171.839844 489.980469 C 171.625 492.640625 172.582031 496.472656 169.496094 497.320313 L 167.582031 497.320313 Z M 168.328125 563.929688 C 169.132813 564.929688 168.964844 568.183594 168.753906 570.101563 L 168.007813 570.101563 Z M 168.328125 555.84375 C 169.214844 557.414063 168.964844 560.171875 168.328125 562.015625 C 167.523438 560.429688 167.710938 557.683594 168.328125 555.84375 Z M 168.15625 554.230469 L 168.238281 551.820313 L 169.484375 551.902344 L 169.402344 554.230469 Z M 169.175781 518.4375 L 168.753906 518.433594 L 168.753906 514.578125 L 169.496094 514.578125 Z M 176.074219 551.84375 C 188.949219 550.25 205.59375 549.632813 216.042969 548.949219 C 215.277344 553.929688 215.109375 555.933594 214.710938 558.292969 C 213.140625 559.546875 186.78125 567.707031 184.347656 566.425781 C 181.027344 564.675781 178.363281 567.042969 175.074219 567.921875 Z M 191.734375 311.546875 L 191.734375 307.714844 L 192.160156 307.714844 L 192.160156 311.546875 Z M 192.160156 305.375 L 192.160156 303.035156 L 192.671875 303.035156 L 192.671875 305.375 Z M 169.921875 90.871094 C 153.429688 139.605469 153.113281 195.039063 153.003906 250.578125 C 138.535156 241.320313 125.128906 231.851563 109.808594 224.511719 C 121.296875 176.523438 145.023438 133.433594 169.921875 90.871094 Z M 123.355469 79.53125 C 120.75 79.335938 118.207031 78.972656 117.042969 82.464844 C 115.550781 82.359375 114.382813 81.828125 113.210938 80.871094 C 118.425781 81.1875 116.9375 74.0625 122.042969 74.0625 C 123.320313 70.867188 126.511719 66.507813 130.449219 66.398438 L 131.617188 69.058594 C 130.457031 72.277344 133.496094 77.070313 130.53125 78.332031 C 129.964844 78.574219 125.03125 79.660156 123.355469 79.53125 Z M 106.722656 138.007813 C 89.164063 174.394531 77.246094 213.019531 69.160156 253.238281 C 59.160156 246.429688 49.585938 238.660156 40.433594 229.9375 C 63.859375 190.773438 76.136719 175.042969 106.722656 138.007813 Z M 66.078125 253.664063 C 63.640625 256.488281 60.292969 252.652344 58.097656 250.578125 C 61.605469 249.515625 63.628906 252.28125 66.078125 253.664063 Z M 46.179688 242.171875 C 46.832031 241.644531 47.882813 240.683594 48.839844 240.257813 L 59.585938 248.664063 C 54.542969 250.507813 50.066406 245.40625 46.179688 242.171875 Z M 68.734375 256.003906 L 68.402344 257.835938 C 67.636719 257.527344 66.714844 256.855469 65.757813 256.324219 C 66.597656 255.6875 67.992188 254.304688 68.734375 256.003906 Z M 38.945313 231.109375 L 46.921875 238.769531 L 44.265625 240.683594 L 31.28125 230.683594 Z M 24.367188 233.023438 L 27.453125 235.269531 C 27.035156 243.78125 26.3125 252.527344 25.859375 261.214844 C 25.851563 261.886719 25.664063 262.046875 25.578125 261.441406 C 24.261719 252.320313 24.265625 242.203125 24.367188 233.023438 Z M 35.113281 568.753906 L 37.347656 561.589844 L 39.261719 568.515625 Z M 41.605469 568.503906 C 15.175781 469.191406 20.058594 349.316406 29.6875 236.855469 L 67.246094 265.15625 C 61.164063 303.957031 58.734375 357.191406 72.992188 396.878906 L 74.480469 401.136719 L 74.464844 440.023438 C 70.042969 451.328125 53.273438 548.421875 51.5 568.183594 C 48.601563 568.242188 44.902344 568.398438 41.605469 568.503906 Z M 74.066406 580.246094 C 70.980469 578.753906 65.730469 576.289063 64.664063 573.417969 C 67.542969 573.34375 71.503906 573.289063 74.164063 573.078125 Z M 74.164063 567.332031 L 54.433594 568.171875 C 54.433594 568.171875 67.53125 470.546875 74.90625 447.226563 Z M 68.929688 265.15625 C 77.527344 214.421875 93.179688 165.914063 117.007813 120.953125 C 122.605469 110.386719 129.117188 102.503906 129.117188 102.503906 C 130.089844 118.640625 133.628906 127.378906 141.183594 137.910156 C 127.242188 165.683594 114.808594 194.1875 107.464844 224.511719 C 105.242188 225.066406 102.210938 226.429688 99.988281 225.226563 C 97.558594 223.910156 96.890625 224.171875 95.75 225.386719 C 93.867188 227.386719 95.660156 229.175781 97.804688 230.84375 C 95.234375 274.34375 105.976563 376.664063 105.976563 376.664063 C 95.335938 382.515625 85.226563 389.433594 75.652344 397.730469 C 60.117188 357.40625 63.183594 309.3125 68.929688 265.15625 Z M 87.886719 391.558594 C 86.832031 395.914063 77.894531 428.355469 76.398438 434.4375 L 76.398438 400.710938 Z M 76.824219 439.015625 C 80.1875 426.308594 88.988281 395 90.300781 389.535156 C 94.851563 386.316406 106.296875 379.488281 106.296875 379.488281 L 112.039063 432.203125 C 109.167969 450.398438 91.488281 560.058594 90.65625 566.035156 L 76.078125 567.140625 Z M 76.242188 583.671875 L 87.074219 588.734375 C 86.980469 589.753906 86.75 590.269531 86.507813 591.214844 C 84.867188 591.558594 78.949219 592.703125 76.3125 593.402344 Z M 80.871094 602.625 C 76.859375 603.464844 77.074219 602.449219 80.320313 601.75 C 137.640625 589.398438 178.242188 577.921875 229.300781 561.527344 C 266 549.742188 321.269531 528.257813 338.429688 521.785156 C 339.695313 521.308594 341.066406 521.699219 339.574219 522.308594 C 262.273438 556.480469 125.777344 595.96875 80.871094 602.625 Z M 337.71875 615.214844 C 336.441406 615.53125 335.589844 613.296875 334.203125 612.980469 C 331.652344 612.765625 329.738281 614.363281 329.203125 616.808594 C 323.460938 616.703125 316.648438 616.066406 311.648438 618.726563 C 297.179688 616 286.214844 617.789063 277.554688 619.429688 C 274.761719 619.960938 269.910156 619.613281 267.597656 617.128906 C 264.890625 620.144531 262.089844 619.535156 259.480469 618.5625 C 258.023438 618.023438 253.566406 617.308594 255.613281 616.070313 C 256.53125 615.511719 255.953125 613.953125 253.265625 614.132813 C 249.300781 614.402344 244.03125 618.480469 238.445313 618.300781 C 239.722656 617.023438 238.019531 614.363281 236.210938 614.148438 C 231.847656 614.042969 227.164063 615.214844 223.121094 613.722656 C 227.910156 612.871094 239.015625 611.046875 241.53125 612.980469 L 243.871094 614.894531 C 248.980469 613.191406 256 608.722656 261.109375 613.722656 C 263.257813 616 264.78125 615.664063 266.523438 614.503906 C 268.804688 612.984375 270.925781 613.164063 275.324219 614.769531 C 277.269531 615.480469 279.214844 616.109375 281.324219 615.640625 L 281.324219 611.382813 C 282.28125 613.511719 284.941406 613.40625 287.070313 613.296875 L 287.496094 608.722656 C 289.992188 613.300781 295.941406 613.503906 297.488281 612.078125 C 299.621094 610.113281 301.453125 610.804688 302.769531 611.789063 C 304.078125 612.761719 306.066406 612.730469 307.394531 612.554688 C 310.277344 609.667969 313.539063 610.320313 315.152344 611.460938 C 316.464844 612.386719 318.253906 612.410156 319.628906 611.808594 C 320.90625 610.957031 322.503906 610.214844 323.882813 611.382813 C 325.839844 613.339844 327.960938 612.742188 329.757813 611.347656 C 333.59375 608.371094 339.492188 609.882813 337.71875 615.214844 Z M 359.527344 527.113281 C 359.066406 532.054688 353.753906 534.648438 346.441406 530.945313 C 346.210938 531.910156 346.617188 533.378906 346.785156 534.769531 C 347.128906 537.65625 344.75 538.871094 341.535156 538.1875 C 339.140625 537.675781 336.71875 537.011719 334.632813 537.859375 C 335.953125 544.800781 328.132813 545.984375 325.671875 541.347656 C 323.636719 537.515625 327.925781 533.960938 330.066406 536.042969 C 331.625 537.554688 330.265625 538.730469 328.703125 538.175781 C 327.371094 537.699219 325.691406 539.191406 327.410156 540.761719 C 328.824219 542.050781 333.648438 541.96875 332.710938 536.667969 C 332.117188 533.304688 327.632813 532.25 324.191406 536.191406 C 322.046875 538.648438 319.867188 541.796875 315.796875 541.691406 C 315.371094 542.296875 315.203125 543.105469 315.054688 543.925781 C 314.207031 548.554688 310.628906 548.488281 308.449219 546.800781 C 306.84375 545.558594 305.46875 544.195313 304.308594 547.4375 C 299.414063 545.6875 296.773438 544.664063 293.566406 546.929688 C 291.507813 548.378906 288.988281 548.855469 286.324219 549.03125 C 291.117188 547.371094 295.1875 541.578125 300.273438 543.949219 C 302.570313 545.019531 303.984375 545.023438 306.210938 542.914063 C 309.316406 539.96875 310.417969 539.449219 314.453125 539.847656 C 316.957031 540.09375 319.410156 539.984375 320.800781 537.542969 C 325.636719 528.675781 332.160156 532.59375 338.953125 534.773438 C 344.195313 536.457031 346.6875 531.976563 343.398438 530.667969 C 342.394531 530.269531 341.246094 530.175781 342.292969 528.710938 C 344.878906 527.320313 347.917969 529.976563 350.671875 530.789063 C 356.921875 532.632813 358.492188 525.25 352.1875 524.878906 C 351.65625 524.773438 351.335938 525.519531 350.699219 525.199219 C 350.910156 522.65625 354.257813 523.492188 355.972656 524.625 C 357.363281 525.539063 358.605469 526.476563 359.316406 524.464844 C 360.523438 521.058594 365.140625 523.90625 367.820313 522.226563 C 368.011719 522.105469 368.132813 522.226563 368 522.402344 C 365.828125 525.28125 360.128906 521.902344 359.527344 527.113281 Z M 368.847656 569.136719 C 367.914063 570.207031 367.519531 570.121094 368.269531 568.847656 C 374.109375 558.9375 379.90625 542.703125 381.765625 532.539063 L 392.421875 521.710938 C 396.78125 523.09375 402.941406 522.753906 407.410156 520.625 C 394.464844 536.753906 382.453125 553.53125 368.847656 569.136719 Z M 410.496094 516.472656 C 408.058594 519.402344 399.960938 522.433594 394.003906 520.304688 C 405.449219 509.320313 419.636719 500.671875 430.78125 488.597656 C 432.828125 486.378906 440.285156 477.742188 440.285156 477.742188 C 431.882813 490.4375 420.804688 503.742188 410.496094 516.472656 Z M 227.839844 481.558594 C 220.589844 449.058594 213.828125 416.730469 209.496094 383.757813 C 206.859375 363.675781 202.800781 290.480469 202.800781 290.480469 C 231.636719 286.328125 259.085938 292.289063 285.15625 298.140625 C 285.15625 298.140625 307.121094 328.34375 364.480469 382.933594 C 381.664063 399.289063 423.324219 438.425781 444.96875 454.335938 C 368.574219 455.082031 293.382813 455.0625 227.839844 481.558594 Z M 448.800781 454.015625 C 448.800781 454.015625 415.605469 426.152344 401.964844 413.691406 C 370.640625 385.085938 315.070313 332.796875 288.984375 298.886719 C 302.816406 302.503906 316.328125 306.757813 329.628906 311.546875 C 341.441406 329.171875 452.613281 452.003906 452.613281 452.003906 C 451.890625 452.492188 448.800781 454.015625 448.800781 454.015625 "/>
<path style=" stroke:none;fill-rule:nonzero;fill:rgb(0%,0%,0%);fill-opacity:1;" d="M 128.007813 75.136719 C 124.042969 75.3125 127.027344 71.988281 129.703125 69.378906 L 128.960938 68.632813 C 124.753906 71.503906 122.070313 76.039063 125.511719 76.851563 C 127.128906 77.234375 129.28125 77.273438 130.875 76.722656 C 130.75 74.917969 129.390625 75.074219 128.007813 75.136719 "/>
<path style=" stroke:none;fill-rule:nonzero;fill:rgb(0%,0%,0%);fill-opacity:1;" d="M 11.542969 237.332031 C 10.785156 236.871094 10.007813 236.335938 9.796875 235.480469 C 9.554688 234.523438 7.382813 233.875 7.058594 236.015625 C 6.886719 237.121094 7.277344 238.128906 5.691406 238.320313 C 4.050781 238.523438 4.53125 241.667969 6.707031 240.421875 L 7.875 239.515625 C 8.132813 240.269531 8.300781 241.429688 9.363281 241.003906 C 8.90625 238.96875 9.820313 239.644531 10.914063 240.0625 C 12.183594 240.550781 13.261719 238.378906 11.542969 237.332031 "/>
<path style=" stroke:none;fill-rule:nonzero;fill:rgb(0%,0%,0%);fill-opacity:1;" d="M 310.351563 542.046875 C 307.597656 543.769531 309.535156 547.6875 312.265625 546.1875 C 315.289063 544.527344 312.589844 540.648438 310.351563 542.046875 "/>
</g>
</svg>
