<?xml version="1.0" encoding="UTF-8"?>
<svg xmlns="http://www.w3.org/2000/svg" xmlns:xlink="http://www.w3.org/1999/xlink" width="502pt" height="273pt" viewBox="0 0 502 273" version="1.1">
<g id="surface1">
<path style=" stroke:none;fill-rule:nonzero;fill:rgb(0%,0%,0%);fill-opacity:1;" d="M 430.9375 118.285156 C 431.230469 117.808594 439.421875 116.222656 438.714844 112.953125 C 419.367188 109.464844 401.011719 115.457031 385.980469 125.496094 C 385.132813 124.597656 384.660156 123.539063 383.808594 122.644531 C 383.121094 122.351563 382.195313 121.53125 381.527344 122.378906 C 372.597656 110.21875 364.34375 97.589844 355.945313 85.269531 C 356.472656 85.035156 356.921875 84.570313 357.523438 84.335938 C 357.667969 83.875 358.117188 83.335938 357.804688 82.734375 L 353.914063 77.023438 C 352.816406 74.992188 351.5625 77.289063 350.351563 77.460938 C 349.964844 76.9375 349.5 76.488281 349.261719 75.886719 C 348.125 76.054688 347.570313 74.546875 347.101563 73.71875 L 348.078125 73.09375 C 348.285156 71.722656 347.65625 70.367188 347.179688 69.160156 C 347.460938 67.785156 346.980469 66.199219 348.410156 65.34375 C 349.09375 65.332031 349.628906 65.625 350.09375 66.148438 C 351.074219 65.753906 351.734375 64.378906 352.023438 63.308594 C 354.839844 59.085938 356.28125 54.203125 356.652344 49.03125 C 356.347656 44.101563 357.320313 38.542969 354.59375 34.332031 C 353.65625 32.601563 351.589844 31.722656 350.203125 30.53125 C 349.023438 27.816406 347.714844 31.632813 346.046875 31.585938 C 344.65625 30.316406 344.699219 28.1875 343.007813 26.847656 C 343.296875 26.007813 341.992188 25.117188 342.972656 24.644531 C 342.070313 20.636719 342.675781 15.6875 340.71875 12 C 339.390625 9.667969 336.71875 8.949219 334.722656 7.691406 C 332.902344 7.71875 331.738281 6.21875 329.921875 6.476563 C 328.308594 5.515625 326.484375 5.394531 324.734375 5.117188 C 321.636719 6.078125 321.3125 9.730469 320.140625 12.328125 L 316.890625 8.433594 C 315.65625 7.3125 312.847656 7.511719 313.644531 4.914063 C 313.164063 3.480469 313.664063 1.574219 312.960938 0.21875 L 304.304688 0.355469 C 301.777344 -0.816406 299.921875 1.644531 297.726563 2.210938 L 297.648438 6.769531 L 297.492188 6.617188 C 296.800781 5.945313 295.667969 6.421875 294.6875 6.816406 C 292.5 7.761719 295.339844 9.691406 294.222656 10.925781 C 293.757813 10.324219 292.847656 10.566406 292.53125 9.660156 C 289.363281 11.078125 286.359375 13.175781 283.503906 14.96875 C 282.683594 16.121094 282.328125 17.496094 281.355469 18.496094 L 271.820313 25.410156 C 269.203125 27.882813 264.585938 28.867188 263.816406 32.828125 C 263.992188 34.421875 264.925781 35.847656 266.007813 36.972656 C 265.339844 37.816406 264.359375 38.441406 263.460938 38.988281 C 263.160156 39.296875 262.699219 38.921875 262.539063 38.621094 C 262.003906 38.328125 261.324219 38.566406 260.953125 39.101563 C 260.609375 41.234375 262.609375 42.796875 263.546875 44.378906 C 263.859375 45.132813 264.785156 46.027344 265.773438 46.089844 C 267.140625 46.066406 267.046875 44.777344 267.714844 43.929688 C 273.042969 39.972656 278.449219 36.164063 283.859375 32.507813 C 284.335938 33.789063 285.113281 34.917969 285.664063 36.125 C 287.730469 37.078125 288.292969 34.257813 289.960938 34.078125 C 290.039063 34.230469 290.269531 34.304688 290.195313 34.457031 C 290.574219 34.449219 290.878906 34.597656 291.035156 34.820313 C 291.273438 35.351563 291.964844 35.871094 291.363281 36.410156 C 291.378906 37.246094 291.246094 38.386719 292.015625 38.984375 C 292.703125 39.429688 293.316406 39.722656 294.226563 39.554688 C 295.289063 39.460938 295.726563 38.46875 296.015625 37.550781 C 296.378906 36.484375 294.847656 35.597656 295.894531 34.742188 C 299.199219 37.195313 303.527344 36.976563 306.535156 39.964844 C 310.058594 41.808594 310.960938 45.816406 313.054688 48.746094 C 314.71875 48.1875 314.59375 50.011719 315.441406 50.683594 C 315.828125 51.207031 316.65625 50.664063 316.972656 51.417969 C 317.136719 52.175781 316.078125 52.570313 315.863281 53.257813 C 312.863281 55.585938 310.492188 59.34375 307.410156 61.445313 C 305.464844 58.4375 303.894531 55.273438 301.195313 52.65625 C 296.105469 47.953125 289.835938 45.09375 282.800781 46.878906 C 279.726563 48.742188 277.496094 47.722656 275.765625 48.738281 C 271.5625 51.691406 265.660156 53.230469 263.621094 58.652344 C 247.933594 69.992188 232.464844 81.027344 220.183594 96.640625 C 217.953125 99.488281 215.640625 102.183594 214.398438 105.164063 C 213.019531 104.425781 211.113281 103.925781 209.441406 103.878906 C 205.425781 104.398438 185.128906 107.503906 178.839844 108.363281 C 175.136719 108.761719 160.597656 108.089844 153.605469 104.820313 C 148.5 103.839844 137.429688 87.675781 124.292969 84.210938 C 119.742188 83.277344 93.46875 86.8125 81.726563 77.222656 C 78.503906 74.996094 74.160156 74.304688 70.230469 75.433594 C 69.027344 76.210938 61.769531 82.859375 61.007813 82.71875 C 55.277344 75.976563 52.394531 66.679688 44.121094 62.332031 C 42.753906 62.128906 40.226563 61.617188 39.492188 63.074219 C 38.601563 64.300781 38.558594 66.460938 39.433594 68.179688 C 47.429688 79.359375 52.105469 91.503906 56.183594 104.414063 C 55.933594 104.382813 54.457031 104.484375 53.695313 105.011719 C 52.226563 108.300781 52.59375 112.246094 53.109375 115.882813 C 49.136719 119.058594 45.171875 122.921875 41.277344 126.171875 C 40.875 124.890625 39.136719 125.449219 38.886719 124.085938 C 32.945313 122.8125 26.171875 121.933594 19.867188 121.960938 C 19.402344 121.285156 14.261719 122.808594 13.941406 121.902344 L 5.445313 122.421875 L 3.859375 123.054688 C 2.730469 123.601563 2.601563 124.972656 1.855469 125.894531 C 1.082031 129.628906 -1.59375 133.394531 0.0625 137.238281 C 0.3125 138.679688 1.390625 139.496094 2.761719 139.703125 C 7.546875 139.855469 12.945313 140.148438 17.71875 139.539063 C 19.332031 140.574219 19.144531 143.085938 19.855469 144.820313 C 17.441406 145.847656 13.917969 143.929688 11.902344 146.164063 C 11.78125 148.140625 11.394531 152.246094 11.847656 152.238281 C 13.507813 151.53125 27.296875 159.628906 50.058594 148.058594 C 91.003906 118.3125 126.691406 138.925781 128.785156 141.628906 C 128.335938 141.9375 128.265625 142.394531 127.816406 142.707031 C 120.085938 138.957031 111.769531 136.507813 102.9375 135.359375 C 74.109375 132.40625 48.007813 148.164063 35.492188 172.667969 C 21.472656 197.015625 25.859375 225.453125 40.902344 244.804688 C 41.996094 246.613281 43.917969 248.097656 44.859375 249.832031 C 55.847656 262.71875 70.855469 270.375 87.074219 272.773438 C 114.992188 275.816406 141.070313 263.398438 155.949219 239.386719 L 159.628906 231.886719 C 160.21875 230.8125 159.96875 229.449219 160.863281 228.601563 C 178.355469 228.394531 204.535156 228.734375 223.730469 227.589844 C 223.730469 227.589844 224.546875 231.070313 225.398438 232.121094 C 226.765625 231.945313 228.207031 232 229.179688 231.074219 C 231.070313 230.585938 232.253906 228.59375 232.605469 226.839844 C 234.582031 226.960938 236.179688 227.011719 238.007813 227.359375 C 238.777344 228.03125 239.472656 228.933594 239.945313 229.835938 C 243.65625 229.320313 247.765625 229.710938 251.710938 229.496094 L 287.015625 228.929688 C 289.011719 230.109375 290.019531 226.828125 291.917969 226.796875 C 293.546875 224.191406 296.597656 224.976563 298.9375 224.105469 C 310.675781 221.941406 320.652344 214.183594 328.546875 204.414063 C 337.851563 192.796875 338.15625 174.03125 332.246094 160.761719 C 333.148438 160.140625 332.980469 159.078125 333.347656 158.238281 C 333.257813 157.554688 332.507813 158.097656 332.199219 157.800781 C 330.730469 156.152344 329.632813 154.042969 327.71875 152.9375 C 326.9375 151.65625 328.910156 151.472656 329.5 150.476563 C 329.40625 149.261719 331.144531 148.703125 330.058594 147.507813 C 329.960938 146.140625 331.558594 146.265625 331.996094 145.195313 C 334.011719 142.886719 334.328125 139.007813 332.992188 136.21875 C 333.054688 135.460938 333.34375 134.542969 333.941406 133.847656 C 333.683594 131.953125 335.46875 129.722656 333.175781 128.621094 L 335.136719 118.488281 C 335.199219 117.578125 335.628906 115.976563 334.257813 115.769531 C 333.300781 112.898438 330.023438 112.039063 329.289063 109.089844 C 333.003906 103.867188 335.035156 97.910156 337.832031 92.320313 C 338.972656 92.453125 339.230469 94.273438 340.664063 93.71875 C 342.015625 92.859375 343.53125 92.53125 344.644531 91.070313 C 345.78125 90.824219 346.066406 89.605469 347.203125 89.589844 C 347.910156 91.019531 348.949219 89.40625 349.722656 90.308594 C 349.433594 91.300781 350.578125 91.660156 350.820313 92.492188 C 351.464844 94.683594 350.746094 97.277344 349.636719 99.269531 C 345.210938 107.390625 345.84375 118.394531 349.171875 126.847656 C 350.46875 131.988281 355.660156 133.804688 359.792969 135.710938 C 359.941406 140.113281 360.3125 144.4375 360.234375 148.996094 C 359.738281 151.207031 359.929688 153.710938 359.742188 156.144531 C 359.152344 157.214844 359.921875 157.8125 360.015625 158.949219 C 358.195313 163.914063 356.453125 168.878906 355.246094 174.0625 C 355.125 176.039063 353.417969 178.496094 354.960938 179.988281 C 355.796875 179.902344 358.488281 177.382813 359.164063 177.070313 C 359.394531 177.140625 357.914063 187.082031 357.914063 187.082031 C 357.410156 216.933594 372.628906 243.066406 400.386719 255.269531 C 427.707031 267.277344 455.097656 262.238281 477.621094 243.621094 C 534.09375 184.28125 479.710938 114.78125 430.9375 118.285156 Z M 353.859375 35.785156 C 356.230469 41.671875 356.273438 49.113281 354.320313 54.992188 C 353.695313 49.308594 354.042969 42.46875 353.640625 36.324219 Z M 349.269531 31.570313 C 350.339844 32.519531 352.144531 34.050781 352.992188 34.796875 L 352.972656 56.230469 C 352.378906 57.226563 351.082031 63.304688 350.339844 64.226563 C 350.179688 63.773438 349.222656 38.101563 349.269531 31.570313 Z M 266.371094 35.976563 C 265.441406 34.777344 264.28125 33.429688 265.015625 31.824219 C 265.164063 31.59375 265.386719 31.359375 265.535156 31.207031 C 266.992188 32.019531 268.308594 33.667969 268.339844 35.414063 C 267.816406 35.953125 267.066406 36.574219 266.371094 35.976563 Z M 269.398438 35.171875 C 269.316406 34.867188 269.234375 34.566406 269.304688 34.183594 C 272.910156 31.773438 276.214844 29.289063 279.894531 26.800781 C 279.894531 26.800781 283.582031 24.613281 284.695313 23.078125 C 284.773438 23.304688 285.679688 22.984375 285.46875 23.824219 C 280.214844 27.78125 275.113281 31.8125 269.398438 35.171875 Z M 286.25 34.824219 C 285.328125 34.15625 285.078125 32.714844 284.988281 31.730469 C 285.726563 30.578125 287.929688 30.542969 287.367188 28.730469 C 287.589844 28.421875 287.894531 28.492188 288.125 28.488281 C 289.203125 29.460938 289.378906 30.898438 289.398438 32.265625 C 288.425781 33.191406 287.84375 34.570313 286.25 34.824219 Z M 287.648438 27.128906 C 287.398438 25.917969 285.886719 26.324219 285.492188 25.34375 C 287.160156 25.316406 286.296875 23.429688 286.660156 22.4375 C 286.328125 20.847656 285.386719 18.890625 283.558594 18.460938 L 282.644531 18.25 C 283.464844 17.25 283.511719 15.652344 284.949219 15.25 C 286.550781 15.527344 288.453125 15.800781 289.164063 17.535156 C 289.8125 20.183594 290.242188 23.367188 290.441406 26.25 C 289.457031 26.417969 288.796875 27.71875 287.648438 27.128906 Z M 291.675781 32.078125 C 291.894531 31.46875 292.566406 30.925781 293.09375 30.460938 L 293.699219 30.449219 C 293.644531 31.742188 293.894531 33.183594 294.296875 34.390625 C 292.339844 35.714844 292.523438 32.898438 291.675781 32.078125 Z M 12.917969 147.894531 C 12.910156 147.4375 12.824219 146.832031 12.96875 146.449219 C 14.121094 147.113281 15.089844 146.035156 16.308594 146.394531 C 17.371094 146.152344 18.441406 146.664063 19.507813 146.800781 C 17.769531 147.285156 15.277344 148.234375 12.917969 147.894531 Z M 392.175781 131.890625 C 401.046875 126.355469 418.050781 119.515625 430.425781 117.640625 C 418.425781 124.390625 400.164063 132.234375 390.855469 135.667969 C 391.800781 133.765625 391.65625 132.808594 392.175781 131.890625 Z M 399.550781 152.160156 L 421.878906 185.371094 C 424.160156 190.195313 427.804688 194.996094 431.21875 199.421875 L 431.226563 199.800781 C 429.347656 201.199219 427.234375 202.070313 425.28125 203.238281 L 391.964844 152.664063 L 378.808594 132.671875 L 378.953125 132.289063 C 380.757813 131.199219 382.40625 129.882813 384.292969 129.089844 Z M 383.640625 154.621094 L 378.199219 146.808594 C 378.710938 145.507813 380.210938 144.421875 381.570313 144.097656 C 381.945313 143.710938 382.011719 143.101563 382.542969 143.09375 C 386.949219 147.960938 389.476563 153.992188 393.507813 159.019531 L 393.511719 159.246094 C 391.855469 160.183594 390.128906 161.503906 388.3125 161.683594 L 384.109375 155.445313 C 384.84375 153.839844 386.882813 153.125 388.230469 151.964844 C 387.992188 151.359375 383.640625 154.621094 383.640625 154.621094 Z M 374.078125 126.824219 C 374.628906 127.804688 376.160156 128.765625 375.496094 129.992188 L 376.597656 132.175781 C 375.855469 133.328125 375.273438 134.933594 374.070313 135.785156 C 372.234375 134.828125 371.589844 132.636719 370.578125 130.980469 C 370.566406 130.375 370.480469 129.769531 370.550781 129.3125 C 371.445313 128.234375 372.878906 127.679688 374.078125 126.824219 Z M 372.171875 126.097656 L 356.921875 103.480469 C 356.679688 102.726563 356.96875 101.808594 356.65625 101.132813 C 362.332031 109.316406 368.234375 117.503906 373.304688 125.851563 C 373.078125 125.929688 372.855469 126.160156 372.707031 126.390625 Z M 376.851563 133.917969 L 377.378906 133.53125 C 379.164063 136.007813 381.105469 138.558594 382.511719 141.195313 C 382.074219 142.265625 380.863281 142.4375 380.113281 143.207031 C 378.488281 141.109375 376.324219 138.941406 373.875 137.6875 C 374.765625 136.382813 376.34375 135.445313 376.851563 133.917969 Z M 394.707031 162.71875 C 396.328125 164.363281 396.597656 167.09375 398.371094 168.660156 C 397.5625 169.1875 396.789063 171.199219 397.285156 172.789063 C 397.652344 173.953125 398.835938 174.65625 399.3125 175.175781 C 398.867188 175.945313 398.578125 176.78125 398.363281 177.621094 C 397.296875 177.410156 396.082031 177.507813 395.105469 178.207031 L 394.210938 179.054688 C 393.207031 178.085938 394.703125 176.617188 393.320313 175.652344 C 392.339844 171.414063 391.511719 167.023438 390.90625 162.628906 L 391.5 161.632813 C 392.101563 161.394531 392.550781 160.855469 393.234375 160.84375 L 396.191406 175.867188 C 396.496094 176.015625 396.578125 176.394531 396.960938 176.3125 L 397.179688 175.925781 C 396.644531 171 395.242188 167.648438 394.707031 162.71875 Z M 394.28125 159.992188 C 394.507813 159.914063 394.660156 159.910156 394.8125 159.757813 L 400.488281 168.171875 L 399.125 168.269531 C 397.484375 165.484375 395.921875 162.777344 394.28125 159.992188 Z M 388.957031 164.179688 C 391.003906 163.992188 390.066406 166.972656 390.847656 168.324219 L 392.082031 174.304688 C 389.871094 173.886719 387.882813 172.929688 385.96875 171.820313 C 386.605469 169.078125 387.9375 166.703125 388.957031 164.179688 Z M 387.25 175.976563 L 392.507813 177.109375 C 392.738281 177.410156 393.050781 177.785156 392.597656 178.09375 C 389.9375 177.757813 386.894531 177.425781 384.371094 176.40625 C 384.652344 175.183594 386.644531 176.140625 387.25 175.976563 Z M 385.117188 180.339844 C 386.851563 179.476563 388.691406 180.664063 390.445313 181.015625 C 391.511719 181.378906 393.863281 181.265625 393.863281 181.265625 L 394.191406 182.550781 C 393.28125 182.640625 392.140625 182.734375 391.855469 183.800781 L 391.886719 185.777344 C 391.128906 185.941406 390.074219 186.335938 389.933594 187.175781 C 390.574219 189.214844 390.304688 191.195313 391.171875 193.15625 C 390.894531 194.90625 390.621094 196.886719 391.484375 198.464844 C 392.183594 199.367188 393.320313 199.421875 394.167969 200.167969 C 391.199219 199.683594 388.230469 199.277344 385.40625 198.335938 L 384.929688 197.050781 C 384.171875 192.28125 383.9375 187.269531 384.3125 182.40625 Z M 397.171875 202.703125 L 399.726563 200.914063 C 402.769531 207.988281 407.804688 212.253906 407.804688 212.253906 C 405.660156 215.78125 401.386719 219.675781 398.253906 222.8125 C 396 219.582031 389.109375 214.179688 386.453125 202.191406 C 389.808594 202.972656 393.761719 203.214844 397.171875 202.703125 Z M 413.347656 216.289063 C 416.863281 217.675781 420 219.367188 423.808594 219.988281 C 431.113281 221.011719 438.597656 219.125 444.699219 215.914063 C 446.589844 220.289063 449.96875 226.078125 452.707031 230.019531 C 446.164063 234.460938 426.9375 239.027344 405.851563 229.765625 C 408.675781 224.539063 410.753906 220.207031 413.347656 216.289063 Z M 450.414063 213.179688 C 457.972656 207.734375 463.960938 194.382813 459.304688 181.386719 C 463.847656 179.71875 469.300781 177.648438 474.101563 176.238281 C 479.011719 195.742188 471.035156 215.710938 458.359375 225.304688 C 456.304688 222.070313 451.910156 216.421875 450.414063 213.179688 Z M 456.109375 174.644531 C 451.183594 165.761719 441.25 158.816406 431.914063 158.429688 C 432.136719 153.335938 432.355469 148.84375 432.679688 143.730469 C 450.488281 142.175781 467.472656 159.347656 470.160156 168.132813 C 465.367188 170.03125 460.71875 173.050781 456.109375 174.644531 Z M 456.808594 180.253906 C 457.765625 183.199219 462.851563 197.65625 450.21875 209.824219 C 449.765625 209.984375 437.625 221.371094 420.714844 216.980469 C 415.523438 215.089844 404.5625 208.574219 400.820313 198.089844 C 403.964844 195.457031 406.890625 193.054688 409.421875 190.050781 C 409.964844 190.5 408.714844 193.101563 410.601563 192.464844 L 411.050781 192 C 411.710938 195.40625 413.128906 198.574219 415.371094 201.121094 C 419.558594 206.292969 426.199219 208.390625 432.484375 207.375 C 438.242188 206.523438 443.871094 202.332031 446.367188 196.976563 C 449.835938 190.539063 448.242188 181.378906 443.449219 176.0625 C 439.042969 171.121094 432.402344 169.023438 425.734375 170.195313 C 422.484375 171.007813 419.703125 172.796875 416.84375 174.441406 C 414.820313 171.511719 412.652344 168.960938 411.007813 165.875 C 433.910156 151.410156 453.300781 169.828125 456.808594 180.253906 Z M 433.5625 184.726563 L 431.078125 181.347656 C 430.703125 181.507813 430.46875 181.054688 430.3125 180.832031 C 430.59375 179.457031 430.488281 177.714844 431.996094 176.855469 C 434.4375 177.574219 437.046875 179.355469 438.378906 181.839844 C 436.953125 183 435.542969 184.921875 433.5625 184.726563 Z M 439.152344 187.371094 C 439.679688 187.210938 440.371094 187.65625 440.664063 186.96875 C 441.6875 189.152344 440.585938 191.527344 440.011719 193.585938 C 439.496094 194.808594 438.527344 195.886719 437.707031 196.8125 C 435.800781 196.386719 433.582031 195.28125 432.714844 193.324219 C 433.378906 192.171875 434.574219 190.863281 435.78125 190.234375 C 435.75 188.414063 438.023438 188.148438 439.152344 187.371094 Z M 426.089844 182.644531 C 425.414063 183.261719 424.664063 183.957031 423.828125 183.742188 C 422.378906 183.464844 421.660156 181.273438 420.578125 180 C 421.464844 178.390625 423.429688 177.828125 425.011719 177.117188 C 426.25 178.464844 425.152344 181.140625 426.089844 182.644531 Z M 410.15625 164.675781 C 407.203125 160.542969 404.652344 154.988281 401.773438 150.703125 C 408.074219 144.222656 419.6875 143.558594 422.34375 143.441406 C 422.84375 148.214844 424.011719 157.386719 424.414063 158.75 C 417.074219 158.742188 410.15625 164.675781 410.15625 164.675781 Z M 352.476563 77.429688 C 354.25 79.070313 355.046875 81.410156 356.519531 83.285156 C 356.6875 84.195313 355.621094 84.0625 355.171875 84.523438 C 353.476563 82.804688 352.445313 80.3125 351.121094 78.210938 Z M 347.519531 76.0625 L 347.371094 76.371094 C 345.941406 77.152344 344.824219 78.539063 343.238281 79.09375 L 324.566406 51.371094 L 323.554688 49.792969 C 324.75 48.632813 326.40625 47.695313 327.988281 47.0625 C 334.601563 56.679688 341.136719 66.445313 347.519531 76.0625 Z M 320.78125 104.136719 C 318.644531 103.566406 316.089844 105.125 314.3125 103.40625 C 318.496094 103.71875 324.660156 99.117188 325.035156 94.652344 C 327.328125 95.601563 329.183594 97.699219 329.144531 100.054688 C 328.859375 101.121094 328.421875 102.191406 327.75 102.964844 C 325.632813 104 323.210938 104.097656 320.78125 104.136719 Z M 317.867188 145.851563 C 312.761719 146.679688 307.949219 143.210938 307.121094 138.105469 C 306.292969 133.003906 309.761719 128.191406 314.867188 127.363281 C 319.972656 126.535156 324.78125 130 325.609375 135.105469 C 326.4375 140.210938 322.972656 145.019531 317.867188 145.851563 Z M 337.207031 39.246094 L 337.433594 39.242188 L 338.867188 52.8125 L 338.65625 53.878906 C 335.761719 53.242188 333.132813 50.398438 332.78125 47.441406 C 332.421875 43.878906 334.117188 40.890625 337.207031 39.246094 Z M 338.945313 38.761719 C 339.625 38.597656 339.640625 39.433594 339.796875 39.8125 C 340.785156 44.503906 341.847656 49.195313 341.011719 53.992188 L 340.027344 54.085938 C 339.648438 49.457031 340.007813 43.378906 338.945313 38.761719 Z M 344.71875 46.414063 C 345.011719 49.261719 344.339844 52.605469 342.597656 53.4375 L 342.371094 53.4375 C 342.828125 48.800781 341.914063 43.878906 340.859375 39.71875 C 342.695313 40.597656 344.40625 43.417969 344.71875 46.414063 Z M 341.742188 33.246094 C 340.636719 35.238281 339.925781 38.367188 336.960938 38.183594 L 335.605469 38.816406 C 337.464844 36.429688 338.714844 33.980469 340.117188 31.300781 C 340.726563 31.519531 341.277344 32.570313 341.742188 33.246094 Z M 324.628906 7.929688 C 327.195313 7.128906 328.667969 8.929688 330.800781 9.347656 C 333.71875 11.277344 337.824219 11.589844 339.179688 15.441406 C 339.753906 18.242188 340.636719 21.039063 340.527344 23.925781 C 339.855469 24.621094 338.78125 24.652344 338.527344 22.984375 C 337.964844 21.019531 338.785156 14.613281 336.644531 13.660156 C 333.726563 11.808594 330.519531 10.796875 327.238281 9.785156 C 325.1875 9.667969 322.425781 12.054688 322.425781 12.054688 C 322.492188 11.445313 323.039063 10.503906 321.808594 10.449219 C 322.464844 8.546875 323.726563 8.476563 324.628906 7.929688 Z M 326.78125 42.753906 C 327.703125 43.421875 327.796875 44.484375 328.265625 45.3125 L 322.101563 49.132813 C 320.953125 48.621094 322.214844 46.929688 320.917969 46.417969 C 322.796875 45.097656 324.746094 43.699219 326.78125 42.753906 Z M 320.472656 18.703125 C 320.4375 21.210938 319.488281 23.582031 318.992188 26.019531 C 318.503906 28.609375 318.167969 31.347656 318.058594 33.933594 C 318.289063 34.15625 318.820313 34.148438 318.753906 34.605469 C 317.308594 34.628906 315.929688 33.890625 314.480469 33.457031 C 312.871094 32.574219 311.628906 30.847656 311.070313 29.183594 L 312.050781 28.714844 C 313.488281 28.460938 314.929688 28.285156 316.289063 27.808594 C 316.398438 30.011719 315.605469 32.527344 317.152344 34.175781 C 317.890625 33.023438 316.738281 32.054688 317.09375 30.683594 C 316.894531 27.722656 318.148438 25.425781 318.710938 22.53125 C 319.449219 21.304688 319.5 19.632813 320.472656 18.703125 Z M 314.433594 39.988281 C 314.289063 40.371094 313.84375 40.988281 313.316406 41.222656 C 312.703125 41.082031 312.691406 40.320313 312.230469 39.875 C 308.453125 36.441406 304.382813 33.546875 299.871094 31.71875 L 299.867188 31.492188 C 301.230469 31.089844 302.75 31.214844 304.035156 30.816406 C 306.160156 35.644531 312.519531 34.171875 313.890625 39.238281 L 313.816406 39.394531 C 314.121094 39.464844 314.355469 39.6875 314.433594 39.988281 Z M 314.746094 12.035156 C 316.894531 13.445313 317.398438 16.398438 319.472656 17.886719 L 318.816406 19.71875 C 316.542969 19.90625 314.738281 21 312.535156 21.1875 C 312.535156 20.960938 312.304688 20.886719 312.148438 20.738281 C 310.1875 21.605469 307.910156 21.5625 305.871094 22.28125 C 308.269531 20.191406 310.746094 18.40625 313.296875 16.464844 C 313.054688 15.632813 313.265625 14.566406 312.648438 13.816406 Z M 304.792969 16.601563 C 302.832031 17.394531 300.828125 15.601563 299.214844 14.488281 C 299.054688 13.960938 299.503906 13.648438 299.574219 13.117188 C 301.847656 12.929688 303.925781 14.71875 304.792969 16.601563 Z M 302.570313 1.144531 C 303.191406 2.046875 302.527344 3.195313 302.769531 4.105469 L 302.652344 11.09375 L 301.515625 11.109375 C 301.625 8.527344 301.65625 5.714844 301.761719 2.753906 C 300.753906 1.476563 300.027344 3.691406 298.808594 3.332031 C 298.808594 3.332031 300.574219 1.136719 302.570313 1.144531 Z M 297.660156 7.601563 L 297.929688 10.105469 C 297.480469 10.492188 297.164063 9.890625 296.710938 9.898438 C 297.230469 9.054688 296.527344 7.925781 297.660156 7.601563 Z M 295.585938 24.875 C 300.328125 22.371094 304.363281 18.203125 308.953125 15.472656 C 309.402344 15.160156 309.621094 14.550781 310.226563 14.539063 L 311.851563 16.414063 C 307.195313 19.601563 302.488281 24.386719 297.132813 26.597656 C 296.820313 26.222656 296.726563 24.933594 295.824219 25.554688 C 295.742188 25.328125 295.515625 25.179688 295.585938 24.875 Z M 294.921875 30.960938 L 294.914063 30.355469 C 300.8125 28.894531 307.171875 26.3125 313.082031 25.382813 C 313.675781 24.535156 312.515625 24.605469 313.03125 23.609375 C 314.164063 23.210938 315.222656 22.8125 316.515625 22.945313 C 316.582031 22.335938 317.34375 22.550781 317.71875 22.316406 C 317.589844 23.535156 317.226563 24.605469 316.632813 25.675781 C 309.363281 26.933594 302.191406 29.554688 294.921875 30.960938 Z M 311.457031 42.640625 C 309.410156 42.898438 309.347656 40.148438 307.664063 39.339844 C 305.046875 37.105469 301.679688 35.5625 298.25 34.707031 C 297.105469 34.496094 295.941406 32.921875 295.941406 32.921875 C 296.621094 32.757813 297.515625 31.527344 298.214844 32.65625 C 302.144531 36.160156 308.144531 36.066406 311.335938 41.027344 C 311.644531 41.324219 311.457031 42.640625 311.457031 42.640625 Z M 311.914063 43.753906 C 312.957031 42.519531 314.78125 42.566406 315.667969 41.109375 L 316.046875 41.179688 C 316.527344 42.691406 318.445313 43.875 318.089844 45.324219 C 317.042969 46.402344 315.847656 47.484375 314.328125 47.511719 Z M 315.183594 48.863281 C 315.175781 48.332031 316.164063 48.394531 316.613281 48.082031 C 317.441406 47.460938 318.730469 47.289063 319.089844 46.066406 C 318.941406 46.449219 319.257813 47.050781 319.714844 47.195313 C 319.511719 48.71875 317.832031 48.289063 317.171875 49.667969 C 316.347656 50.441406 315.648438 49.464844 315.183594 48.863281 Z M 315.65625 87.394531 C 319.316406 87.394531 322.285156 90.363281 322.285156 94.023438 C 322.285156 97.6875 319.316406 100.652344 315.65625 100.652344 C 311.996094 100.652344 309.027344 97.6875 309.027344 94.023438 C 309.027344 90.363281 311.996094 87.394531 315.65625 87.394531 Z M 308.050781 63.40625 C 308.046875 63.027344 308.421875 62.796875 308.644531 62.488281 L 309.023438 62.480469 C 310.917969 66.933594 310.707031 74.75 309.863281 79.390625 C 309.289063 82.582031 306.015625 90.871094 304.613281 93.828125 L 300.882813 94.507813 C 307.039063 85.601563 310.664063 74.683594 308.050781 63.40625 Z M 304.253906 102.804688 C 306.140625 106.800781 306.226563 112.113281 305.003906 116.386719 C 303.539063 119.753906 302.539063 123.566406 299.386719 126.046875 C 276.078125 127.46875 263.191406 125.546875 261.164063 124.535156 C 257.5 123.453125 254.78125 119.625 254.488281 115.679688 C 254.355469 111.960938 256.042969 108.441406 259.277344 106.488281 C 261.691406 105.386719 264.039063 104.96875 266.527344 104.019531 C 276.519531 101.882813 286.132813 99.980469 296.992188 99.882813 C 299.804688 99.914063 302.988281 99.710938 304.253906 102.804688 Z M 129.394531 212.625 L 129.25 217.792969 C 125.851563 219.0625 122.304688 220.410156 118.832031 221.683594 C 118.367188 221.234375 117.605469 221.019531 117.519531 220.335938 C 116.804688 218.371094 119.546875 218.859375 118.90625 216.972656 C 120.382813 214.214844 121.855469 211.378906 122.183594 208.183594 L 131.828125 208.183594 C 131.609375 208.640625 131.855469 209.703125 131.253906 210.167969 C 130.660156 210.933594 129.285156 210.578125 129.074219 211.644531 Z M 99.085938 206.523438 L 98.902344 191.320313 C 98.902344 191.320313 162.945313 192.644531 179.816406 193.359375 C 183.714844 194.742188 187.636719 197.792969 188.007813 202.191406 C 188.574219 204.234375 186.84375 205.171875 185.722656 206.328125 C 184.441406 207.109375 182.777344 207.441406 181.03125 207.46875 Z M 72.261719 216.050781 C 74.039063 217.996094 75.828125 220.550781 77.605469 222.496094 C 76.945313 223.796875 74.503906 227.785156 74.054688 228.402344 C 70.089844 227.402344 68.65625 223.09375 66.40625 220.320313 C 62.960938 213.695313 60.714844 206.289063 61.722656 198.070313 C 64.207031 196.738281 66.589844 198.675781 68.730469 199.550781 C 68.453125 205.707031 69.828125 211.078125 72.261719 216.050781 Z M 70.332031 190.410156 L 70.339844 190.792969 C 68.128906 190.296875 66.210938 189.109375 64.144531 188.234375 L 63.984375 187.703125 C 68.007813 178.070313 77.519531 169.789063 87.429688 167.355469 C 88.863281 166.875 89.417969 168.308594 89.960938 169.058594 L 90.53125 176.191406 C 82.285156 178.070313 75.304688 183.34375 70.332031 190.410156 Z M 97.753906 185.945313 C 98.828125 186.6875 101.019531 186.121094 100.976563 188.097656 C 96.703125 186.722656 92.367188 186.414063 88.300781 188.453125 C 85.199219 189.339844 83.34375 192.101563 81.332031 194.414063 L 81.339844 194.945313 L 79.722656 193.527344 C 83.574219 187.464844 90.667969 184.542969 97.753906 185.945313 Z M 104.855469 178.921875 L 105.589844 177.464844 L 113.039063 182.511719 L 112.039063 183.484375 L 111.308594 183.179688 C 111.308594 183.179688 108.703125 186.832031 107.136719 188.53125 C 105.152344 187.953125 103.6875 186.535156 102.144531 185.117188 C 103.027344 183.355469 105.40625 180.128906 105.40625 180.128906 Z M 104.925781 175.765625 C 104.925781 175.765625 100.355469 175.363281 99.40625 175.441406 C 99.054688 172.484375 99.003906 169.371094 98.804688 166.335938 L 99.105469 166.179688 C 102.90625 166.496094 106.867188 167.191406 110.234375 168.734375 C 110.421875 169.140625 104.925781 175.765625 104.925781 175.765625 Z M 110.285156 209.742188 C 109.582031 213.171875 106.59375 216.335938 103.664063 218.433594 C 99.160156 221.542969 92.1875 222.414063 87.210938 219.835938 C 85.140625 218.804688 82.914063 217.324219 81.445313 215.597656 C 82.195313 215.132813 109.378906 209.910156 110.285156 209.742188 Z M 81.835938 230.554688 C 82.972656 230.382813 82.929688 227.574219 84.386719 228.613281 C 84.839844 228.378906 85.527344 228.597656 85.820313 227.984375 C 86.132813 228.433594 86.960938 228.117188 86.972656 228.726563 C 89.089844 228.082031 89.96875 230.804688 92 229.632813 C 91.941406 230.695313 93.238281 231.054688 93.328125 232.039063 C 94.085938 231.953125 94.707031 232.625 95.320313 233.148438 C 96.851563 233.882813 98.757813 234.230469 100.492188 233.671875 C 101.164063 232.976563 102.226563 232.808594 102.742188 231.890625 C 106.671875 230.535156 110.523438 229.183594 114.375 227.90625 C 115.152344 228.957031 116.691406 230.222656 115.953125 231.675781 C 115.449219 233.203125 113.40625 233.84375 111.902344 234.628906 C 104.820313 238.3125 95.195313 239.453125 87.253906 236.847656 C 85.273438 236.5 83.515625 235.691406 81.757813 234.960938 C 80.902344 233.757813 80.640625 231.714844 81.835938 230.554688 Z M 139.613281 144.265625 C 137.128906 144.265625 135.113281 142.25 135.113281 139.765625 C 135.113281 137.277344 137.128906 135.265625 139.613281 135.265625 C 142.097656 135.265625 144.113281 137.277344 144.113281 139.765625 C 144.113281 142.25 142.097656 144.265625 139.613281 144.265625 Z M 147.773438 151.117188 C 149.816406 155.492188 152.015625 160.011719 153.378906 164.320313 C 149.789063 158.605469 146.132813 152.96875 141.191406 148.035156 C 141.949219 148.023438 142.269531 149.003906 142.957031 149.144531 C 144.488281 150.03125 147.429688 148.617188 147.773438 151.117188 Z M 141.125 190.601563 L 134.496094 190.765625 C 134.496094 190.765625 132.179688 179.011719 121.992188 172.128906 C 123.453125 170.34375 124.324219 169.621094 126.03125 167.648438 C 138.117188 175.5 141.125 190.601563 141.125 190.601563 Z M 128.253906 184.089844 C 127.746094 185.539063 126.316406 186.398438 125.113281 187.328125 C 123.300781 187.8125 120.582031 188.769531 118.960938 187.199219 C 117.789063 185.246094 115.796875 184.136719 114.328125 182.488281 C 115.800781 180.828125 117.789063 175.675781 118.839844 174.976563 C 119.75 174.886719 121.136719 176.078125 121.667969 176.070313 C 124.363281 178.457031 126.460938 181.230469 128.253906 184.089844 Z M 161.648438 154.390625 L 162.269531 155.367188 C 163.503906 161.269531 166.765625 167.160156 167.925781 173.140625 C 172.964844 179.664063 180.214844 176.792969 187.800781 176.140625 C 191.429688 175.09375 192.640625 175.308594 194.175781 171.640625 C 194.621094 171.101563 196.714844 171.976563 197.085938 171.4375 C 196.308594 175.097656 192.800781 179.027344 189.101563 180.300781 C 186.3125 181.636719 182.882813 181.007813 179.914063 180.523438 C 175.046875 179.917969 171.253906 181.601563 167.550781 178.015625 C 165.367188 174.632813 160.71875 162.003906 160.050781 158.140625 C 159.238281 155.039063 162.230469 157.570313 161.648438 154.390625 Z M 161.261719 149.230469 C 162.167969 148.988281 162.382813 148.148438 163.214844 147.832031 C 172.945313 143.804688 182.757813 140.152344 192.570313 136.425781 C 193.179688 136.414063 193.71875 136.863281 193.953125 137.390625 C 193.855469 145.289063 194.144531 153.867188 191.371094 160.824219 C 186.96875 165.828125 179.996094 166.855469 173.523438 165.515625 C 166.910156 165.316406 165.960938 158.039063 162.703125 153.992188 C 162.222656 152.40625 160.527344 150.914063 161.261719 149.230469 Z M 187.078125 191.140625 C 187.078125 187.390625 190.117188 184.347656 193.867188 184.347656 C 197.617188 184.347656 200.65625 187.390625 200.65625 191.140625 C 200.65625 194.890625 197.617188 197.929688 193.867188 197.929688 C 190.117188 197.929688 187.078125 194.890625 187.078125 191.140625 Z M 198.636719 181.253906 L 203.75 168.8125 L 212.347656 176.054688 L 208.425781 183.90625 Z M 216.378906 152.75 C 215.015625 153 213 155.160156 213 155.160156 L 215.101563 158.316406 L 207.605469 164.433594 L 203.183594 158.65625 C 203.183594 158.65625 198.972656 133.058594 217.089844 126.15625 C 202.445313 147.210938 216.378906 152.75 216.378906 152.75 Z M 207.039063 190.722656 C 209.929688 191.054688 210.804688 193.394531 212.65625 195.265625 C 213.128906 196.394531 214.664063 197.359375 214.152344 198.582031 C 213.023438 199.132813 212.660156 200.277344 211.761719 201.125 C 209.140625 198.585938 207.117188 195.65625 204.570313 193.117188 C 204.777344 191.820313 205.90625 191.121094 207.039063 190.722656 Z M 215.40625 200.914063 C 216.234375 200.597656 217.078125 201.117188 217.695313 201.636719 C 218.390625 202.308594 218.023438 203.226563 217.960938 204.066406 C 217.445313 204.984375 216.46875 205.683594 215.398438 205.246094 C 214.636719 205.03125 214.019531 204.429688 213.777344 203.675781 C 213.605469 202.464844 214.191406 201.085938 215.40625 200.914063 Z M 217.773438 174.464844 C 217.773438 170.226563 221.210938 166.789063 225.445313 166.789063 C 229.683594 166.789063 233.121094 170.226563 233.121094 174.464844 C 233.121094 178.703125 229.683594 182.140625 225.445313 182.140625 C 221.210938 182.140625 217.773438 178.703125 217.773438 174.464844 Z M 234.238281 145.84375 L 244.441406 158.535156 L 246.976563 156.601563 L 238.050781 145.578125 C 238.050781 145.578125 244.050781 146.515625 247.425781 139.015625 L 255.902344 149.457031 L 258.199219 148.042969 L 248.753906 135.824219 C 248.753906 135.824219 249.675781 131.703125 246.566406 125.535156 L 248.8125 123.554688 L 256.539063 128.65625 L 271.640625 156.242188 L 250.574219 172.683594 L 226.050781 150.453125 L 223.492188 141.601563 L 225.839844 139.71875 C 225.839844 139.71875 229.894531 144.734375 234.238281 145.84375 Z M 227.648438 133.210938 C 227.648438 128.039063 231.839844 123.847656 237.011719 123.847656 C 242.183594 123.847656 246.378906 128.039063 246.378906 133.210938 C 246.378906 138.382813 242.183594 142.578125 237.011719 142.578125 C 231.839844 142.578125 227.648438 138.382813 227.648438 133.210938 Z M 261.984375 177.90625 L 253.078125 173.488281 L 271.785156 158.78125 L 274.289063 168.761719 Z M 283.214844 178.632813 C 285.914063 181.246094 287.488281 184.5625 286.867188 188.523438 C 286.328125 192.707031 283.582031 196.625 279.503906 198.132813 C 274.976563 199.800781 270.015625 198.363281 266.996094 194.84375 C 263.742188 190.945313 263.421875 184.949219 266.007813 180.578125 C 266.972656 179.121094 268.546875 177.957031 270.050781 176.945313 C 274.496094 174.746094 279.515625 175.273438 283.214844 178.632813 Z M 261.152344 197.828125 C 259.949219 203.464844 254.867188 208.636719 249.191406 209.867188 C 242.53125 211.265625 235.730469 208.640625 231.84375 203.007813 C 228.730469 198.273438 228.394531 191.746094 230.820313 186.617188 C 232.222656 184.089844 235.152344 181.140625 238.375 179.511719 C 242.894531 177.082031 249.125 177.285156 253.496094 179.875 C 259.558594 183.878906 262.703125 190.433594 261.152344 197.828125 Z M 221.75 204.371094 L 237.539063 213.90625 L 280.867188 213.023438 C 280.867188 213.023438 293.75 207.90625 305.75 196.792969 L 312.191406 199.253906 C 312.191406 199.253906 302.65625 212.582031 282.636719 217.253906 L 236.214844 217.253906 L 220.425781 207.023438 Z M 287.25 179.097656 L 276.25 168.414063 L 279.183594 158.914063 L 296.699219 175.027344 Z M 269.964844 56.199219 C 272.75 54.785156 275.289063 52.238281 277.386719 50.230469 L 277.992188 50.070313 C 278.316406 51.355469 277.265625 52.132813 276.59375 53.054688 C 273.449219 55.761719 269.527344 57.496094 265.367188 58.398438 L 265.210938 58.171875 C 266.402344 56.785156 268.457031 56.980469 269.964844 56.199219 Z M 221.171875 106.117188 C 233.671875 89.894531 251.09375 77.765625 267.3125 66.113281 C 272.425781 62.84375 277.382813 59.496094 282.652344 56.601563 C 282.855469 55.078125 284.246094 56.5 284.996094 55.878906 C 288.171875 55.070313 290.558594 57.15625 292.191406 59.5625 C 294.644531 65.523438 293.472656 72.90625 290.902344 78.570313 C 289.371094 82.390625 286.546875 86.15625 283.164063 88.492188 C 282.421875 89.566406 281.066406 90.347656 279.941406 91.046875 C 266.625 99.007813 251.421875 102.746094 236.84375 107.765625 C 231.394531 108.992188 226.027344 110.519531 220.421875 111.445313 C 220.421875 111.445313 221.253906 106.421875 221.171875 106.117188 Z M 218.535156 116.792969 C 219.511719 116.171875 220.871094 115.691406 222.09375 116.203125 C 223.007813 116.34375 222.722656 117.410156 223.484375 117.777344 C 223.65625 118.914063 223.832031 120.355469 222.855469 121.128906 C 222.269531 122.277344 220.667969 122 219.605469 121.941406 C 218.6875 121.5 217.988281 120.601563 217.59375 119.769531 C 217.347656 118.558594 217.789063 117.640625 218.535156 116.792969 Z M 115.054688 85.953125 C 129.921875 84.730469 141.421875 98.3125 144.042969 100.777344 C 160.375 118.347656 203.570313 107.210938 205.308594 106.601563 C 209.019531 105.933594 217.109375 108.386719 217.273438 109.144531 C 217.996094 111.636719 215.914063 113.191406 213.929688 113.753906 C 207.492188 114.996094 166.515625 117.097656 164.695313 117.277344 C 147.367188 117.855469 135.1875 93.308594 114.476563 92.050781 C 110.25 91.011719 111.640625 86.152344 115.054688 85.953125 Z M 79.335938 79.511719 C 90.195313 87.464844 103.097656 85.445313 107.988281 87.265625 C 109.523438 87.5 110.675781 91.027344 107.90625 91.367188 C 105.691406 91.207031 84.515625 93.695313 73.371094 84.136719 C 67.382813 78.976563 73.21875 75.210938 79.335938 79.511719 Z M 60.851563 110.898438 C 61.425781 113.546875 61.167969 116.4375 59.300781 118.441406 C 58.785156 119.285156 57.953125 119.601563 57.277344 120.066406 C 56.34375 118.5625 55.914063 106.117188 55.914063 106.117188 C 58.054688 106.917969 60.058594 108.707031 60.851563 110.898438 Z M 53.746094 108.125 L 54.316406 105.839844 L 55.074219 105.824219 C 54.320313 110.925781 54.628906 115.859375 56.070313 120.621094 C 55.84375 120.699219 55.695313 120.777344 55.46875 120.78125 C 54.109375 116.550781 53.136719 112.769531 53.746094 108.125 Z M 20.175781 139.015625 L 26.175781 136.765625 L 37.285156 126.050781 L 39.675781 128.140625 L 22.425781 143.890625 Z M 44.925781 140.890625 C 39.878906 143.628906 29.394531 146.046875 23.550781 146.140625 L 30.675781 140.140625 C 31.726563 139.515625 36.023438 141.324219 40.050781 139.765625 C 52.964844 134.761719 61.449219 129.191406 72 124.085938 C 72.378906 123.925781 72.671875 123.464844 72.742188 123.085938 L 74.570313 123.285156 C 67.183594 126.820313 52.542969 137.578125 44.925781 140.890625 Z M 82.035156 120.050781 C 78.714844 121.320313 74.898438 120.011719 71.328125 119.996094 C 68.210938 119.742188 64.859375 119.1875 61.65625 118.402344 C 60.355469 117.816406 62.085938 116.726563 61.992188 115.738281 L 62.335938 113.378906 C 64.3125 113.652344 66.304688 114.605469 68.507813 114.648438 C 74.4375 115.007813 80.589844 115.214844 86.371094 115.726563 L 86.972656 115.414063 C 87.167969 117.992188 83.917969 119.03125 82.035156 120.050781 Z M 83.519531 108.332031 C 63.328125 106.964844 64.664063 90.640625 62.234375 83.882813 C 62.742188 83.578125 63.246094 83.167969 63.246094 83.167969 C 67.949219 106.679688 76.007813 105.566406 84.402344 106.644531 C 101.390625 105.082031 128.929688 109.460938 159.089844 139.871094 C 174.292969 133.421875 215.191406 116.769531 215.800781 116.835938 L 216.085938 117.664063 C 204.535156 123.324219 165.210938 139.75 158.9375 141.824219 C 157.710938 140.933594 125.246094 104.945313 83.519531 108.332031 Z M 128.273438 129.304688 C 123.207031 125.816406 117.617188 123.097656 112.035156 120.605469 C 113.070313 118.992188 115.519531 115.386719 115.519531 115.386719 C 122.484375 118.765625 129.75 121.914063 135.90625 126.753906 C 135.9375 128.878906 133.21875 129.757813 131.558594 130.46875 C 130.203125 131.097656 129.421875 129.667969 128.273438 129.304688 Z M 131.550781 141.078125 L 139.050781 146.703125 L 136.238281 150.640625 L 128.550781 144.828125 Z M 128.738281 146.328125 L 134.550781 150.828125 L 112.800781 180.640625 L 107.738281 177.078125 Z M 123.730469 239.933594 C 80.753906 266.183594 46.757813 226.597656 51.589844 196.179688 C 59.933594 156.289063 99.871094 152.394531 115.410156 161.191406 C 115.410156 161.191406 113.699219 164.101563 112.523438 166.542969 C 102.800781 161.839844 89.035156 162.570313 79.550781 167.8125 C 67.945313 173.316406 59.1875 185.773438 58.289063 199.972656 C 57.785156 232.753906 82.527344 241.910156 96.488281 242.03125 C 121.777344 240.453125 129.121094 226.519531 129.121094 226.519531 L 135.847656 226.574219 C 135.847656 226.574219 130.636719 236.203125 123.730469 239.933594 Z M 232.644531 224.484375 C 232.203125 225.328125 231.214844 225.417969 230.464844 225.886719 C 207.226563 226.109375 131.175781 225.265625 131.175781 225.265625 L 131.175781 212.515625 L 207.675781 211.765625 L 229.511719 218.6875 C 229.8125 218.53125 231.378906 216.683594 233.339844 220.449219 C 233.894531 221.882813 233.460938 223.332031 232.644531 224.484375 Z M 328.582031 164.238281 C 328.214844 164.925781 329.058594 165.597656 329.148438 166.355469 C 331.796875 179.90625 332.015625 196.328125 321.539063 206.140625 C 311.84375 217.15625 286.4375 225.058594 286.425781 224.140625 L 236.214844 225.464844 L 235.949219 222.230469 L 236.472656 221.765625 L 287.308594 220.792969 C 289.644531 219.613281 314.324219 211.015625 321.984375 196.347656 C 327.238281 186.28125 327.460938 174.8125 326.660156 167.609375 C 327.863281 166.757813 325.195313 166.265625 326.777344 165.40625 C 327.457031 165.167969 327.902344 164.402344 328.582031 164.238281 Z M 323.992188 155.152344 L 299.179688 174.476563 L 279.574219 156.316406 L 297.59375 128.546875 L 305.921875 124.605469 L 308.15625 126.617188 C 308.15625 126.617188 303.851563 131.425781 303.453125 135.894531 L 292.558594 147.996094 L 294.875 150.191406 L 304.328125 139.609375 C 304.328125 139.609375 304.363281 145.683594 312.308594 147.8125 L 303.359375 157.855469 L 305.121094 159.894531 L 315.671875 148.613281 C 315.671875 148.613281 319.886719 148.863281 325.476563 144.804688 L 327.789063 146.703125 Z M 331.007813 135.492188 C 330.519531 138.234375 328.808594 140.539063 327.402344 142.6875 L 326.402344 142.097656 C 327.5 139.496094 328.523438 136.972656 329.238281 134.230469 C 329.773438 134.449219 330.621094 135.117188 331.007813 135.492188 Z M 329.632813 97.238281 C 329.316406 96.558594 328.019531 96.046875 328.457031 95.054688 C 330.160156 92.292969 332.25 89.980469 334.644531 87.816406 L 336.671875 90.972656 C 334.277344 93.289063 332.027344 95.070313 329.632813 97.238281 Z M 345.53125 89.464844 C 343.878906 90.554688 342.382813 91.945313 340.644531 92.65625 C 339.09375 90.476563 337.160156 88.304688 335.828125 85.972656 C 337.699219 84.121094 339.644531 82.265625 341.671875 80.789063 C 343.078125 83.273438 344.339844 86.0625 346.503906 88.382813 L 346.507813 88.765625 C 345.820313 88.472656 345.832031 89.230469 345.53125 89.464844 Z M 348.710938 88.804688 C 346.167969 86.492188 344.605469 83.707031 342.886719 80.773438 C 344.761719 79.375 346.714844 78.050781 348.75 77.03125 C 351.066406 79.5 352.40625 82.363281 353.96875 85.148438 C 352.316406 86.390625 350.597656 88.015625 348.710938 88.804688 Z M 350.316406 89.539063 L 350.308594 88.929688 C 351.738281 88.070313 353.089844 87.0625 354.59375 86.355469 L 363.769531 99.496094 L 380.417969 124.292969 C 381.253906 124.355469 381.769531 123.359375 382.601563 123.117188 C 383.601563 123.785156 383.773438 124.996094 384.394531 125.898438 C 382.449219 127.679688 379.734375 129.089844 377.558594 130.566406 L 377.152344 128.902344 L 356.378906 98.175781 Z M 354.355469 128.128906 C 351.5625 124.527344 350.507813 120.21875 349.902344 115.671875 C 349.800781 109.445313 350.542969 103.507813 353.882813 98.746094 C 354.242188 102.234375 354.375 105.800781 355.414063 109.050781 C 355.8125 110.257813 355.839844 111.777344 356.011719 112.988281 L 356.480469 113.816406 C 357.933594 119.1875 358.632813 124.871094 359.105469 130.636719 C 357.351563 130.207031 355.816406 129.320313 354.355469 128.128906 Z M 357.734375 106.886719 C 362.171875 113.648438 367.214844 120.328125 371.203125 127.402344 C 370.527344 127.792969 369.773438 128.335938 369.332031 129.105469 C 368.695313 132 371.453125 133.398438 371.871094 135.820313 C 372.179688 136.273438 372.792969 136.566406 372.878906 137.097656 C 369.429688 135.179688 365.835938 133.566406 362.164063 132.179688 C 361.644531 123.378906 359.535156 115.058594 357.734375 106.886719 Z M 362.171875 137.269531 L 362.011719 136.738281 C 364.984375 137.453125 368.191406 138.539063 370.804688 140.394531 C 369.519531 140.644531 369.84375 142.082031 368.867188 142.78125 C 366.191406 146.394531 363.976563 150.226563 362.0625 154.132813 C 362.355469 148.734375 362.566406 142.882813 362.171875 137.269531 Z M 356.148438 178.222656 L 355.46875 178.464844 C 355.152344 177.632813 354.929688 176.347656 355.6875 176.410156 C 363.847656 168.914063 364.425781 159.453125 372.488281 148.953125 C 373.546875 147.574219 375.015625 147.238281 375.832031 146.011719 C 376.292969 146.308594 376.449219 146.761719 376.382813 147.21875 C 368.03125 156.921875 366.722656 169.929688 356.148438 178.222656 Z M 386.753906 222.398438 C 363.0625 192.230469 383.382813 157.433594 383.382813 157.433594 C 384.847656 158.851563 387.871094 162.753906 388.179688 162.898438 C 366.855469 194.992188 394.367188 230.429688 407.746094 233.710938 C 482.738281 260.554688 504.867188 155.960938 440.300781 140.515625 C 438.09375 140.246094 411.585938 136.050781 399.511719 149.300781 C 397.882813 147.125 395.992188 143.484375 395.992188 143.484375 C 446.816406 114.910156 493.953125 151.789063 483.132813 202.003906 C 471.535156 247.765625 410.679688 259.480469 386.753906 222.398438 "/>
<path style=" stroke:none;fill-rule:nonzero;fill:rgb(0%,0%,0%);fill-opacity:1;" d="M 351.019531 81.171875 C 350.542969 79.890625 349.246094 79.683594 348.03125 79.703125 C 346.671875 80.179688 345.863281 81.636719 346.265625 83.070313 C 346.507813 84.054688 347.65625 84.566406 348.417969 84.785156 C 349.101563 84.773438 349.859375 84.761719 350.382813 84.222656 C 351.207031 83.449219 351.339844 82.230469 351.019531 81.171875 "/>
</g>
</svg>
