<?xml version="1.0" encoding="UTF-8"?>
<svg xmlns="http://www.w3.org/2000/svg" xmlns:xlink="http://www.w3.org/1999/xlink" width="526pt" height="193pt" viewBox="0 0 526 193" version="1.1">
<g id="surface1">
<path style=" stroke:none;fill-rule:nonzero;fill:rgb(0%,0%,0%);fill-opacity:1;" d="M 525.363281 87.421875 C 524.894531 78.828125 525.976563 70.34375 522.707031 62.9375 C 498.699219 55.148438 474.175781 49.625 447.097656 49.800781 C 446.664063 49.386719 446.234375 49.113281 445.53125 49.128906 L 433.519531 41.777344 C 416.257813 32.992188 399.398438 23.210938 381.199219 16.699219 C 335.96875 -0.355469 282.261719 -5.230469 232.605469 7.152344 L 218.429688 16.773438 C 204.828125 26.808594 193.265625 39.757813 181.132813 52.296875 C 150.34375 56.925781 119.253906 60.578125 90.699219 70.519531 C 70.835938 71.660156 49.527344 76.382813 33.785156 80.097656 C 22.164063 83.222656 7.726563 97.28125 4.929688 108.382813 C 4.210938 114.039063 0.707031 118.382813 0.648438 125.121094 C 0.527344 138.28125 3.449219 149.742188 16.121094 155.105469 C 23.484375 156.492188 30.308594 158.882813 37.671875 160.128906 C 77.40625 170.957031 119.5625 176.652344 162.863281 176.542969 C 175.289063 189.949219 192.171875 194.230469 210.605469 192.414063 C 226.78125 190.363281 241.71875 176.914063 247.160156 161.558594 C 251.007813 163.308594 255.257813 164.0625 259.234375 165.382813 C 260.066406 164.660156 261.0625 165.0625 261.777344 165.609375 L 288.542969 164.03125 C 288.542969 164.03125 397.5625 157.105469 413.195313 156.054688 C 422.132813 164.601563 433.914063 168.152344 446.875 167.300781 C 462.230469 166.535156 475.9375 154.808594 482.414063 141.546875 C 492.339844 143.867188 502.550781 140.113281 510.921875 135.839844 C 513.84375 134.082031 516.476563 132.050781 519.691406 130.710938 C 520.640625 128.996094 522.160156 127.550781 523.394531 125.832031 C 524.101563 113.121094 525.785156 100.105469 525.363281 87.421875 Z M 523.136719 82.394531 L 523.195313 91.421875 C 520.800781 91.472656 518.308594 93.644531 516.289063 91.570313 C 516.789063 88.738281 516.726563 85.78125 517.648438 82.9375 C 519.761719 82.75 521.160156 82.296875 523.136719 82.394531 Z M 230.53125 15.519531 C 230.53125 15.519531 236.816406 12.699219 245.324219 14.628906 C 245.355469 16.179688 243.4375 18.761719 245.859375 19.691406 C 245.859375 19.691406 251.832031 20.167969 257.566406 19.859375 C 257.238281 17.609375 259.039063 16.15625 259.425781 14.457031 C 267.605469 14.417969 290.761719 15.597656 290.761719 15.597656 C 278.878906 26.722656 268.871094 39.777344 257.855469 52.011719 C 237.347656 49.503906 215.078125 50.136719 194.332031 49.605469 L 192.933594 50.203125 C 204.632813 37.109375 216.78125 25.132813 230.53125 15.519531 Z M 315.523438 48.261719 C 310.496094 59.09375 299.078125 54.5625 290.445313 53.199219 C 288.285156 51.132813 290.890625 45.363281 291.964844 42.941406 C 292.898438 40.523438 296.195313 38.796875 298.425781 37.621094 C 303.933594 37.921875 315.523438 42.941406 315.523438 48.261719 Z M 300.074219 34.855469 L 308.160156 17.753906 C 309.128906 16.882813 310.839844 17.691406 311.808594 16.964844 C 312.683594 24.5625 311.160156 32.214844 311.1875 39.96875 C 307.90625 38.210938 303.910156 36.183594 300.074219 34.855469 Z M 315.054688 42.566406 C 316.570313 34.492188 315.804688 25.480469 316.75 17.136719 C 334.386719 17.453125 369.890625 24.050781 370.054688 25.175781 L 370.183594 54.320313 C 352.433594 55.277344 334.109375 55.964844 315.355469 56.238281 C 315.292969 53.277344 317.160156 51.175781 318.945313 49.019531 C 317.910156 46.785156 318.179688 43.484375 315.054688 42.566406 Z M 298.804688 56.621094 L 297.664063 63.460938 C 293.609375 64.144531 289.429688 62.246094 289.429688 62.246094 L 292.089844 55.402344 Z M 281.636719 49.367188 C 277.867188 57.632813 268.566406 51.632813 261.8125 52.347656 C 262.0625 50.789063 263.75 50.609375 264.71875 49.742188 C 275.039063 38.089844 284.632813 25.464844 296.554688 16.035156 C 292.988281 26.972656 287.605469 38.65625 281.636719 49.367188 Z M 175.304688 57 C 184.339844 57.363281 211.226563 59.75 215.585938 59.089844 C 217.8125 57.773438 214.886719 57.417969 214.714844 56.011719 L 182.144531 54.722656 L 187.464844 52.441406 C 211.40625 52.441406 238.53125 55.0625 266.667969 58.105469 C 266.667969 58.105469 268.976563 58.519531 266.886719 59.472656 C 229.847656 62.121094 191.925781 65.121094 155.699219 72.550781 C 143.0625 75.226563 130.441406 78.46875 118.679688 82.394531 C 117.71875 83.6875 116.261719 82.527344 114.738281 82.765625 C 105.21875 84.242188 99.9375 89.582031 93.578125 95.503906 L 91.464844 95.550781 C 86.328125 99.191406 81.742188 102.394531 76.894531 106.453125 C 60.09375 105.695313 43.261719 103.53125 26.84375 100.929688 C 44.210938 89.121094 64.515625 82.464844 84.101563 75.121094 C 114.972656 67.808594 142.921875 59.550781 175.304688 57 Z M 106.316406 104.84375 C 98.039063 112.839844 89.195313 117.113281 86.566406 114.390625 C 83.933594 111.667969 88.515625 102.980469 96.796875 94.984375 C 105.078125 86.988281 113.921875 82.710938 116.550781 85.433594 C 119.179688 88.15625 114.597656 96.847656 106.316406 104.84375 Z M 74.464844 108.253906 C 69.902344 112.304688 66.59375 115.90625 62.886719 120.359375 C 45.957031 120.167969 30.230469 116.992188 14.097656 114.667969 C 14.097656 114.667969 21.101563 106.050781 25.382813 102.007813 C 25.980469 103.402344 65.703125 107.460938 74.464844 108.253906 Z M 82.851563 72.949219 C 65.207031 78.558594 48.179688 86.832031 31.445313 95.382813 C 34.1875 91.9375 39.5 88 38.074219 82.683594 L 36.351563 81.3125 C 49.144531 77.902344 66.65625 74.011719 82.851563 72.949219 Z M 18.015625 92.949219 C 25.703125 85.523438 33.390625 81.015625 35.1875 82.878906 C 36.984375 84.738281 32.214844 92.265625 24.527344 99.6875 C 16.839844 107.113281 9.152344 111.621094 7.355469 109.757813 C 5.554688 107.898438 10.332031 100.371094 18.015625 92.949219 Z M 93.226563 167.199219 C 69.445313 163.496094 43.3125 160.144531 20.46875 154.019531 C 18.628906 153.78125 17.363281 153.949219 15.792969 152.996094 C 12.664063 152 13.613281 150.671875 13.613281 150.671875 C 13.613281 150.671875 64.195313 160.386719 78.480469 162.1875 C 80.441406 161.582031 82.09375 159.851563 82.902344 158 C 83.148438 156.441406 82.832031 154.898438 81.269531 154.367188 C 58.214844 151.492188 32.8125 148.261719 10.003906 143.832031 L 8.296875 141.550781 C 8.296875 141.550781 59.441406 149.632813 82.34375 151.949219 C 83.464844 151.640625 84.425781 150.347656 85.105469 149.347656 C 85.277344 148.386719 85.433594 146.964844 84.199219 146.300781 L 61.929688 142.792969 L 14.652344 135.234375 C 14.652344 135.234375 13.078125 135.078125 13.269531 133.371094 C 10.882813 133.84375 6.300781 133.683594 4.148438 132.039063 C 4.25 130.984375 4.148438 121.78125 4.148438 121.78125 L 5.289063 122.160156 L 5.289063 131.089844 C 9.660156 132.230469 13.078125 131.847656 13.078125 131.847656 L 13.6875 123.550781 C 29.003906 126.539063 42.585938 129.117188 57.574219 130.902344 C 57.71875 132.402344 56.976563 138.570313 61.40625 140.945313 C 65.375 143.078125 105.773438 146.210938 105.773438 146.210938 C 109.808594 143.722656 108.726563 139.515625 108.785156 135.707031 L 117.523438 135.511719 C 114.167969 143.203125 113.546875 153.371094 118.78125 160.449219 C 120.523438 162.667969 127.960938 167.5 129.703125 169.859375 C 134.121094 171.738281 105.941406 168.1875 93.226563 167.199219 Z M 75.019531 140.210938 L 74.984375 133.382813 L 89.425781 134.332031 L 89.425781 141.742188 L 91.515625 141.171875 L 91.515625 134.519531 L 93.984375 134.519531 L 93.605469 140.980469 C 93.605469 140.980469 92.878906 143.058594 88.855469 143.070313 L 73.085938 141.550781 C 73.085938 141.550781 69.320313 141.347656 69.09375 139.082031 L 69.09375 132.621094 L 72.546875 133.179688 L 72.546875 139.828125 Z M 158.933594 171.011719 L 133.886719 168.71875 L 121.34375 157.699219 C 121.34375 157.699219 116.820313 159.589844 121.34375 137.179688 L 155.925781 136.800781 L 163.492188 166.453125 Z M 203.789063 177.472656 C 190.945313 176.484375 182.820313 166.933594 178.082031 156.742188 C 174.933594 148.347656 175.257813 137.480469 178.882813 129.21875 C 181.398438 121.6875 187.152344 115.113281 196.136719 112.050781 C 206.066406 108.667969 214.160156 110.613281 222.617188 116.828125 C 232.171875 123.847656 234.671875 138.988281 234.9375 144.621094 C 234.519531 157.46875 221.390625 178.824219 203.789063 177.472656 Z M 418.800781 147.023438 C 418.714844 149.566406 416.792969 151.863281 414.988281 153.171875 C 400.207031 154.488281 262.460938 163.597656 262.460938 163.597656 C 259.355469 163.386719 257.171875 160.332031 256.121094 157.535156 C 254.957031 149.519531 257.703125 139.867188 254.847656 131.75 C 251.199219 113.636719 235.730469 96.488281 217.578125 92.09375 C 213.1875 91.34375 208.503906 90.035156 204.011719 90.980469 C 197.523438 90.984375 191.6875 94.921875 185.820313 97.449219 C 172.160156 104.804688 162.308594 118.5625 159.121094 133.867188 L 121.460938 133.992188 L 120.746094 133.585938 C 81.144531 135.027344 28.75 125.136719 4.523438 120.101563 C 4.378906 117.867188 4.953125 114.707031 7.679688 116.90625 C 9.085938 116.871094 9.347656 115.613281 10.605469 115.164063 C 10.625 116.007813 46.578125 121.828125 60.703125 122.785156 C 60.164063 123.925781 59.066406 125.21875 59.800781 126.613281 C 60.789063 126.730469 61.789063 127.273438 61.902344 125.859375 L 62.144531 124.164063 C 69.976563 114.679688 80.195313 104.863281 91.199219 98.554688 C 86.929688 103.164063 82.804688 110.222656 82.511719 113.839844 C 82.304688 116.347656 84.023438 118.460938 86.015625 119.261719 C 89.148438 120.605469 91.765625 117.726563 94.566406 116.957031 C 100.265625 113.023438 92.726563 123.0625 78.75 122.386719 C 77.902344 122.261719 77.167969 121.011719 76.195313 121.738281 L 75.648438 122.453125 C 78.546875 125.914063 86.390625 123.710938 87.796875 123.3125 C 94.226563 120.632813 100.628906 116.824219 105.730469 111.492188 C 140.296875 92.8125 181.039063 85.425781 221.75 89.460938 C 222.167969 89.171875 222.300781 88.742188 222.148438 88.324219 C 184.535156 84.078125 142.707031 89.628906 110.355469 106.421875 C 114.917969 102.230469 118.53125 97.644531 121.375 92.363281 C 122.332031 89.832031 122.292969 86.160156 119.855469 84.382813 C 121.097656 83.085938 125.269531 82.851563 127.0625 81.117188 C 163.382813 71.429688 201.757813 65.644531 241.054688 63.082031 C 252.867188 61.410156 267.871094 63.757813 278.878906 57.730469 C 284.035156 54.796875 286.15625 48.683594 289.152344 43.820313 C 289.484375 46.210938 286.574219 48.535156 287.769531 51.46875 C 286.988281 54.449219 284.664063 57.742188 284.027344 60.859375 C 284.464844 61.558594 285.726563 61.246094 286.285156 60.953125 L 287.394531 60.082031 C 286.996094 61.21875 286.449219 61.9375 285.902344 62.796875 C 290.199219 65.804688 297.410156 66.488281 302.003906 63.707031 L 302.238281 61.585938 C 302.238281 61.585938 379.964844 58.753906 382.492188 58.414063 C 382.972656 59.980469 383.445313 62.164063 384.015625 71.855469 C 383.285156 70.742188 380.730469 70.992188 379.472656 71.585938 L 379.195313 71.875 C 377.890625 70.210938 376.234375 68.835938 373.761719 68.46875 C 370.113281 67.925781 367.171875 70.308594 365.394531 72.886719 C 364.414063 73.1875 363.140625 72.933594 362.449219 73.65625 C 362.339844 74.925781 362.210938 75.351563 363.210938 76.035156 C 366.011719 75.125 367.359375 79.425781 370.050781 79.929688 C 372.710938 80.402344 376.140625 80.40625 378.222656 78.808594 C 378.914063 78.226563 378.339844 78.40625 378.601563 77.554688 C 377.15625 76.035156 376.433594 77.800781 374.886719 77.976563 C 372.347656 78.03125 370.171875 78.421875 368.429688 76.0625 C 372.367188 75.550781 376.574219 74.472656 380.289063 76.644531 C 381.425781 77.042969 383.402344 77 383.9375 75.71875 C 384.082031 82.34375 381.519531 88.882813 380.113281 95.402344 C 376.726563 108.03125 370.578125 123.25 363.632813 134.546875 L 267.984375 141.609375 C 266.539063 140.089844 266.507813 136.003906 264.371094 135.207031 C 262.71875 136.933594 263.675781 139.65625 264.25 142.402344 C 265.320313 147.542969 268.496094 151.652344 272.199219 153.269531 L 273.347656 151.933594 C 271.15625 150.324219 268.160156 147.113281 267.8125 144.15625 L 295 142.425781 L 386.800781 135.039063 C 391.902344 135.125 398.226563 135.066406 402.398438 138.78125 C 402.277344 139.773438 402.636719 140.539063 402.039063 141.613281 L 385.710938 143.101563 L 277.402344 151.910156 L 276.570313 153.742188 L 366.605469 146.769531 C 378.289063 145.664063 391.238281 144.390625 402.78125 143.289063 C 404.726563 143.007813 405.003906 141.828125 405.003906 141.828125 C 404.15625 137.117188 404.558594 122.753906 410.335938 108.109375 C 416.3125 92.960938 430.855469 85.691406 432.859375 84.5 L 432.5625 82.683594 C 432.5625 82.683594 418.886719 87.019531 409.765625 103.742188 C 405.289063 111.945313 402.351563 123.914063 401.78125 135.503906 C 396.554688 130.945313 368.160156 134.039063 368.160156 134.039063 C 368.160156 134.039063 384.542969 96.722656 386.046875 75.390625 C 385.675781 71.449219 386.289063 63.023438 385.210938 58.957031 C 390.644531 59.230469 415.832031 57.382813 424.839844 56.476563 C 427.738281 53.59375 425.257813 49.980469 423.921875 46.90625 C 416.414063 39.175781 406.335938 36.152344 397.199219 31.277344 C 369.699219 18.769531 339.648438 12.097656 306.558594 14.523438 L 305.445313 15.253906 L 295.742188 35.777344 C 293.796875 37.089844 291.722656 38.96875 290.921875 40.960938 C 294.273438 33.128906 298.457031 24.574219 301.230469 16.050781 C 302.261719 11.65625 297.433594 10.070313 294.851563 8.152344 C 275.867188 4.480469 252.902344 5.695313 234.074219 8.933594 C 251.023438 3.621094 271.308594 2.324219 289.664063 3.1875 C 314.722656 1.082031 337.710938 7.34375 360.535156 12.621094 C 391.046875 20.835938 418.761719 36.863281 446.054688 52.765625 L 452.828125 59.386719 C 464.828125 59.824219 478.101563 60.378906 489.667969 60.402344 C 490.347656 59.261719 491.304688 57.96875 490.566406 56.433594 C 501.304688 57.324219 510.851563 61.628906 520.925781 64.367188 C 523.417969 68.542969 522.578125 75.332031 521.273438 80.015625 C 520.15625 80.605469 518.625 81.484375 516.933594 81.523438 C 499.066406 83.609375 480.070313 85.722656 463.023438 86.664063 C 456.070313 84.703125 448.75 83.761719 440.75 87.15625 C 431.253906 91.1875 428.167969 97.984375 423.421875 107.144531 C 416.214844 121.046875 418.519531 147.03125 418.800781 147.023438 Z M 372.195313 54.347656 L 372.195313 25.59375 L 374.6875 26.160156 L 374.511719 54.210938 Z M 376.722656 26.582031 L 378.421875 27.199219 L 379.179688 54.179688 L 376.996094 54.273438 Z M 381.644531 28.5 C 395.136719 32.574219 405.257813 39.441406 417.953125 45.929688 C 419.683594 47.585938 421.976563 49.226563 422.039063 52.046875 L 421.34375 52.484375 C 407.390625 52.933594 395.832031 53.914063 382.007813 53.9375 C 382.007813 46.035156 381.980469 37.238281 381.644531 28.5 Z M 471.925781 136.625 C 469.367188 135.695313 466.789063 133.917969 463.566406 134.976563 C 461.210938 136.722656 458.9375 139.027344 457.953125 142.578125 C 456.96875 146.136719 458.660156 149.050781 458.867188 152.007813 C 460.292969 152.679688 465.097656 147.679688 467 143.503906 C 468.019531 141.269531 468.558594 137.40625 468.558594 137.40625 C 469.40625 137.386719 470.40625 138.070313 471.128906 138.757813 C 469.667969 142.882813 468.253906 147.886719 463.792969 151.472656 C 457.207031 156.769531 450.011719 157.304688 442.265625 153.925781 C 432.109375 149.496094 428.953125 133 430.09375 128.25 C 430.746094 125.542969 431.265625 133.105469 433.703125 134.519531 C 435.386719 135.496094 436.929688 135.847656 438.613281 135.386719 C 442.53125 134.03125 444.550781 129.613281 445.167969 125.652344 C 446.613281 120.964844 445.464844 116.140625 441.304688 113.242188 C 439.210938 111.78125 436.605469 112.152344 435.035156 111.339844 C 433.777344 111.792969 436.699219 104.898438 440.734375 102.410156 C 440.96875 106.636719 444.691406 110.570313 448.113281 112.1875 C 450.96875 113.675781 453.316406 111.507813 455.988281 111.164063 C 458.890625 108.421875 460.066406 105.722656 461.253906 102.03125 C 461.132813 101.578125 460.097656 101.363281 459.910156 101.296875 C 458.425781 103.4375 458.683594 105.753906 456.757813 107.621094 L 455.933594 108.628906 C 456.011719 105.804688 458.554688 104.164063 456.507813 100.964844 C 452.964844 100.964844 446.574219 99.949219 442.367188 101.03125 C 447.371094 97.816406 453.960938 96.558594 460.304688 99.558594 C 463.96875 101.292969 466.128906 104.03125 468.015625 106.527344 C 469.757813 108.746094 466.949219 109.230469 465.835938 109.960938 C 462.519531 112.996094 460.777344 117.265625 461.71875 121.476563 C 462.074219 124.855469 464.820313 127.898438 467.964844 129.660156 C 469.085938 129.355469 471.074219 130.097656 471.074219 130.097656 C 470.945313 124.316406 471.863281 118.679688 466.878906 112.476563 C 466.570313 111.214844 467.980469 111.183594 468.671875 110.601563 L 469.515625 110.585938 C 473.769531 117.824219 474.429688 128.53125 471.925781 136.625 Z M 438.152344 117.277344 L 435.433594 115.503906 C 435.84375 115.074219 435.964844 114.082031 436.808594 113.921875 C 440.199219 114.273438 442.253906 117.894531 443.308594 120.832031 C 443.652344 123.644531 443.296875 126.757813 442.222656 129.179688 C 442.542969 124.515625 440.488281 120.894531 438.152344 117.277344 Z M 517.386719 127.328125 L 514.382813 128.4375 L 515.082031 126.296875 C 517.320313 125.542969 519.269531 124.371094 521.515625 123.757813 C 520.558594 125.1875 518.914063 126.304688 517.386719 127.328125 Z M 519.03125 118.390625 L 515.695313 119.503906 C 516.195313 116.527344 518.476563 116.054688 522.449219 115.378906 C 522.628906 117.207031 520.429688 117.796875 519.03125 118.390625 Z M 516.496094 111.210938 L 516.808594 108.628906 C 518.914063 108.300781 521.429688 107.257813 522.992188 107.785156 C 522.609375 110.875 518.316406 110.605469 516.496094 111.210938 Z M 513.675781 101.082031 C 511.773438 110.574219 511.699219 120.023438 510.078125 129.652344 C 511.378906 131.035156 513.074219 131.277344 514.769531 131.382813 C 509.085938 135.738281 502.21875 137.867188 495.347656 139.570313 C 493.332031 137.78125 488.96875 138.160156 488.464844 134.503906 C 484.304688 125.003906 487.691406 112.375 481.988281 103.191406 C 478.898438 97.476563 473.683594 91.246094 467.546875 87.996094 C 483.464844 87.078125 499.214844 84.898438 515.117188 83.277344 C 515.773438 87.492188 511.804688 92.941406 517.621094 94.503906 L 523.382813 93.53125 C 525.519531 100.820313 515.835938 96.519531 513.675781 101.082031 "/>
<path style=" stroke:none;fill-rule:nonzero;fill:rgb(0%,0%,0%);fill-opacity:1;" d="M 189.261719 139.285156 C 186.277344 138.222656 179.785156 135.65625 179.105469 136.800781 C 177.203125 147.441406 179.199219 156.292969 183.289063 162.691406 C 184.699219 162.519531 186.105469 162.488281 187.222656 161.898438 C 191.269531 159.835938 193.304688 156.265625 194.195313 151.871094 C 195.210938 146.769531 192.582031 142.738281 189.261719 139.285156 "/>
<path style=" stroke:none;fill-rule:nonzero;fill:rgb(0%,0%,0%);fill-opacity:1;" d="M 193.089844 133.839844 C 196.894531 133.617188 200.699219 133.53125 203.023438 130.09375 C 204.894531 125.398438 205.875 118.75 203.507813 113.722656 C 194.777344 114.480469 185.863281 119.613281 181.960938 128.023438 C 184.710938 131.207031 188.980469 132.945313 193.089844 133.839844 "/>
<path style=" stroke:none;fill-rule:nonzero;fill:rgb(0%,0%,0%);fill-opacity:1;" d="M 210.203125 161.390625 C 206.5 159.78125 201.851563 160.023438 198.074219 161.519531 C 195.308594 163.976563 192.5625 167.421875 192.796875 171.507813 C 197.664063 174.785156 203.742188 175.355469 209.921875 174.09375 C 210.035156 172.960938 211.320313 173.636719 212.019531 173.339844 C 214.246094 172.019531 214.335938 169.621094 214.425781 167.363281 C 213.804688 164.835938 212.074219 163.183594 210.203125 161.390625 "/>
<path style=" stroke:none;fill-rule:nonzero;fill:rgb(0%,0%,0%);fill-opacity:1;" d="M 211.152344 115.105469 C 209.179688 121.496094 211.164063 128.363281 214.660156 133.363281 C 216.960938 135.289063 219.667969 136.496094 222.742188 135.300781 C 225.976563 134.804688 229.851563 133.59375 229.265625 132.621094 C 229.265625 132.621094 226.1875 124.789063 222.425781 121.21875 C 218.796875 117.78125 214.265625 115.460938 211.152344 115.105469 "/>
<path style=" stroke:none;fill-rule:nonzero;fill:rgb(0%,0%,0%);fill-opacity:1;" d="M 217.90625 146.269531 C 215.300781 149.570313 214.992188 154.65625 216.351563 158.714844 C 217.535156 161.371094 220.398438 163.140625 223.078125 163.222656 C 227.746094 157.476563 230.472656 149.585938 230.023438 142.121094 C 225.628906 141.089844 221.109375 144.363281 217.90625 146.269531 "/>
<path style=" stroke:none;fill-rule:nonzero;fill:rgb(0%,0%,0%);fill-opacity:1;" d="M 265.164063 132.425781 C 264.058594 114.253906 263.28125 72.804688 263.28125 72.804688 C 262.738281 60.96875 276.847656 66.71875 282.65625 61.371094 L 282.273438 60.421875 C 277.109375 62.792969 272.078125 62.3125 266.753906 63.980469 C 263.828125 65.597656 261.566406 68.117188 261.566406 71.714844 C 261.730469 91.878906 262.902344 113.011719 264.070313 133.859375 C 265.207031 134.257813 264.894531 132.855469 265.164063 132.425781 "/>
<path style=" stroke:none;fill-rule:nonzero;fill:rgb(0%,0%,0%);fill-opacity:1;" d="M 441.164063 139.808594 C 438.816406 141.09375 437.59375 143.035156 436.582031 145.367188 C 439.050781 147.929688 441.382813 150.179688 445.230469 151.96875 C 448.0625 153.285156 450.261719 153.636719 452.933594 154.15625 C 453.363281 153.363281 454.925781 154.082031 455.230469 152.59375 C 456.34375 149.238281 455.9375 144.882813 452.917969 141.828125 C 449.648438 138.519531 445.390625 138.613281 441.164063 139.808594 Z M 453.59375 151.457031 L 453.25 151.949219 C 451.726563 147.496094 448.828125 142.574219 443.964844 141.019531 C 445.855469 140.390625 447.621094 140.644531 449.4375 141.175781 C 451.984375 144.152344 455.222656 147.007813 453.59375 151.457031 "/>
<path style=" stroke:none;fill-rule:nonzero;fill:rgb(0%,0%,0%);fill-opacity:1;" d="M 123.246094 144.390625 L 153.296875 144.390625 L 153.296875 142.5 L 123.246094 142.5 Z M 123.246094 144.390625 "/>
<path style=" stroke:none;fill-rule:nonzero;fill:rgb(0%,0%,0%);fill-opacity:1;" d="M 123.277344 150.445313 L 153.332031 150.445313 L 153.332031 148.558594 L 123.277344 148.558594 Z M 123.277344 150.445313 "/>
<path style=" stroke:none;fill-rule:nonzero;fill:rgb(0%,0%,0%);fill-opacity:1;" d="M 125.558594 156.515625 L 155.613281 156.515625 L 155.613281 154.625 L 125.558594 154.625 Z M 125.558594 156.515625 "/>
<path style=" stroke:none;fill-rule:nonzero;fill:rgb(0%,0%,0%);fill-opacity:1;" d="M 130.117188 161.824219 L 160.171875 161.824219 L 160.171875 159.933594 L 130.117188 159.933594 Z M 130.117188 161.824219 "/>
<path style=" stroke:none;fill-rule:nonzero;fill:rgb(0%,0%,0%);fill-opacity:1;" d="M 453.828125 119.429688 C 450.996094 119.429688 448.699219 122.875 448.699219 127.125 C 448.699219 131.375 450.996094 134.820313 453.828125 134.820313 C 456.660156 134.820313 458.960938 131.375 458.960938 127.125 C 458.960938 122.875 456.660156 119.429688 453.828125 119.429688 Z M 453.890625 133.238281 C 451.894531 133.238281 450.28125 130.644531 450.28125 127.445313 C 450.28125 124.242188 451.894531 121.648438 453.890625 121.648438 C 455.882813 121.648438 457.5 124.242188 457.5 127.445313 C 457.5 130.644531 455.882813 133.238281 453.890625 133.238281 "/>
<path style=" stroke:none;fill-rule:nonzero;fill:rgb(0%,0%,0%);fill-opacity:1;" d="M 196.964844 145.160156 C 196.964844 150.617188 200.792969 155.039063 205.515625 155.039063 C 210.238281 155.039063 214.066406 150.617188 214.066406 145.160156 C 214.066406 139.703125 210.238281 135.28125 205.515625 135.28125 C 200.792969 135.28125 196.964844 139.703125 196.964844 145.160156 Z M 205.324219 137.558594 C 208.472656 137.558594 211.023438 140.964844 211.023438 145.160156 C 211.023438 149.359375 208.472656 152.761719 205.324219 152.761719 C 202.175781 152.761719 199.625 149.359375 199.625 145.160156 C 199.625 140.964844 202.175781 137.558594 205.324219 137.558594 "/>
<path style=" stroke:none;fill-rule:nonzero;fill:rgb(0%,0%,0%);fill-opacity:1;" d="M 49.578125 102.898438 C 49.578125 102.898438 48.640625 101.148438 48.078125 100.773438 C 47.515625 100.398438 45.015625 100.210938 44.265625 100.398438 L 43.640625 100.710938 L 41.703125 101.710938 L 49.578125 102.898438 "/>
</g>
</svg>
