<?xml version="1.0" encoding="UTF-8"?>
<svg xmlns="http://www.w3.org/2000/svg" xmlns:xlink="http://www.w3.org/1999/xlink" width="530pt" height="257pt" viewBox="0 0 530 257" version="1.1">
<g id="surface1">
<path style=" stroke:none;fill-rule:nonzero;fill:rgb(0%,0%,0%);fill-opacity:1;" d="M 485.105469 169.125 C 485.308594 160.675781 485.050781 146.230469 485.050781 146.230469 L 488.371094 146.210938 L 488.277344 88.242188 L 470.078125 88.171875 C 470.078125 88.171875 469.59375 80.070313 469.351563 74.988281 C 467.898438 70.148438 464.429688 69.421875 458.945313 69.664063 C 444.585938 69.5 448.296875 88.261719 448.296875 88.261719 C 448.296875 88.261719 367.550781 89.023438 356.09375 88.054688 C 355.128906 82.488281 345.929688 80.3125 346.414063 75.953125 C 342.300781 69.664063 336.492188 72.808594 330.683594 73.292969 C 317.375 81.519531 317.859375 96.28125 315.921875 109.835938 C 313.019531 113.707031 308.902344 115.644531 305.515625 118.546875 C 290.996094 115.886719 269.457031 112.011719 254.9375 118.546875 C 252.074219 120.847656 251.308594 124.355469 255.90625 126.289063 C 273.8125 151.460938 240.78125 139.964844 229.40625 141.414063 C 229.40625 139.921875 234.625 135.75 237.941406 132.636719 C 239.582031 131.097656 240.960938 131.632813 241.871094 130.648438 C 244.007813 127.945313 239.085938 125.484375 237.515625 128.226563 C 237.046875 129.335938 237.765625 130.515625 236.910156 131.703125 C 234.214844 135.445313 231.308594 137.257813 227.269531 140.285156 C 224.453125 139.617188 223.097656 138.144531 223.082031 136.960938 C 223.046875 134.269531 228.125 130.125 229.40625 128.226563 C 230.464844 126.5625 232.925781 126.222656 233.9375 125.140625 C 236.359375 121.664063 229.972656 119.71875 228.800781 122.902344 C 229.007813 124.144531 229.308594 125.503906 228.640625 126.71875 C 227.25 129.25 224 132.75 221.78125 135.972656 C 215.007813 116.851563 262.804688 75.167969 262.804688 75.167969 L 279.378906 92.59375 L 283.613281 88.71875 L 248.402344 48.0625 L 243.441406 52.117188 L 257.601563 69.664063 C 257.601563 69.664063 223.597656 94.527344 210.289063 104.210938 C 209.320313 103.726563 228.691406 3.160156 228.691406 3.160156 L 218.394531 0.933594 L 200.972656 81.035156 C 200.972656 81.035156 41.734375 80.796875 32.777344 82.003906 C 31.886719 99.289063 28.09375 109.871094 28.421875 138.875 C 25.761719 141.535156 7.53125 138.191406 1.054688 143.152344 C 1.054688 151.136719 0.957031 172.273438 0.957031 180.5 C 3.617188 183.160156 9.757813 182.496094 11.96875 181.226563 C 18.777344 151.5 55.015625 125.351563 89.050781 133.75 C 111.664063 138.421875 139.363281 154.777344 140.269531 203.894531 C 145.390625 203.488281 319.238281 203.761719 330.515625 203.957031 C 327.066406 136.511719 375.664063 117.121094 410.046875 126.273438 C 444.800781 134.824219 463.242188 174.011719 461.203125 188.648438 C 461.421875 193.675781 469.445313 196.691406 469.445313 196.691406 L 503.636719 196.703125 C 503.636719 196.703125 510.203125 183.660156 502.507813 166.464844 C 498.878906 165.496094 486.558594 172.273438 485.105469 169.125 Z M 246.085938 52.136719 L 248.140625 50.351563 L 281.320313 88.605469 L 279.261719 90.390625 Z M 337.882813 75.652344 C 340.304688 74.925781 341.996094 76.621094 343.933594 77.347656 C 343.691406 80.007813 338.609375 79.039063 336.914063 81.703125 C 331.109375 88.476563 329.171875 97.191406 326.511719 105.175781 C 326.992188 96.222656 328.929688 82.1875 337.882813 75.652344 Z M 263.832031 119.214844 C 279.078125 119.453125 289.242188 118.003906 303.761719 121.632813 C 301.789063 124.949219 299.09375 126.148438 296.007813 126.40625 C 290.757813 126.84375 284.390625 124.546875 278.59375 125.261719 C 275.332031 125.667969 270.332031 125 269.882813 126.957031 C 270.667969 128.667969 279.3125 127.597656 285.003906 127.945313 C 290.039063 128.253906 294.476563 128.882813 295.375 130.632813 C 296.273438 132.382813 293.664063 135.246094 284.644531 140.023438 C 277.382813 141.71875 270.121094 140.507813 263.832031 139.058594 C 265.765625 131.796875 251.972656 121.875 263.832031 119.214844 Z M 220.554688 7.152344 L 223.433594 8.09375 C 223.433594 8.09375 209.429688 70.105469 205.265625 95.496094 C 203.75 104.875 203.332031 111.710938 194.859375 115.582031 C 187.359375 119.453125 175.984375 119.453125 168.722656 119.214844 C 164.246094 118.183594 166.847656 114.3125 170.417969 114.855469 C 181.066406 117.277344 198.75 114 200.910156 106.144531 C 208.402344 78.910156 220.554688 7.152344 220.554688 7.152344 Z M 170.621094 83.679688 C 179.03125 84.0625 195.242188 83.355469 200.808594 84.082031 C 199.660156 94.851563 198.375 108.375 191.390625 110.761719 C 186.308594 112.214844 180.421875 114.453125 166.808594 112.578125 C 166.566406 103.382813 168.320313 90.574219 170.621094 83.679688 Z M 37.71875 85.492188 C 37.71875 85.492188 139.441406 85.332031 169.691406 83.394531 C 165.335938 91.382813 165.335938 114.855469 165.335938 114.855469 L 36.429688 113.890625 Z M 207.605469 197.726563 L 193.085938 198.023438 L 187.035156 190.765625 L 170.902344 190.765625 L 137.828125 128.476563 L 37.273438 128.449219 L 37.222656 124.183594 L 139.84375 124.371094 L 172.515625 185.101563 L 207.605469 185.90625 Z M 280.40625 193.992188 L 221.722656 193.992188 L 221.722656 187.335938 L 280.40625 187.335938 Z M 464.277344 175.644531 C 457.246094 150.246094 440.730469 125.691406 406.53125 120.585938 C 335.167969 109.925781 327.4375 183.199219 327.4375 183.199219 C 318.726563 183.019531 185.34375 182.152344 174.210938 181.183594 C 164.289063 161.582031 154.363281 143.492188 143.71875 124.375 C 150.492188 124.132813 201.878906 123.328125 209.621094 125.261719 C 211.558594 133.007813 215.429688 141.476563 223.660156 145.347656 C 240.355469 148.496094 262.378906 146.316406 280.289063 147.042969 C 318.199219 139.21875 330.988281 112.519531 349.136719 93.964844 C 382.453125 93.238281 469.171875 92.835938 483.449219 93.5625 C 483.449219 99.851563 483.085938 163.257813 483.328125 175.839844 C 470.601563 175.402344 464.203125 175.648438 464.277344 175.644531 Z M 499.785156 183.585938 C 490.105469 187.699219 479.453125 183.828125 470.261719 180.199219 C 475.585938 177.050781 490.105469 187.457031 487.683594 173.179688 C 492.523438 173.664063 497.363281 175.113281 499.785156 168.824219 C 499.785156 173.90625 499.785156 178.503906 499.785156 183.585938 "/>
<path style=" stroke:none;fill-rule:nonzero;fill:rgb(0%,0%,0%);fill-opacity:1;" d="M 397.648438 135.160156 C 364.488281 135.160156 337.609375 162.042969 337.609375 195.203125 C 337.609375 228.359375 364.488281 255.242188 397.648438 255.242188 C 430.808594 255.242188 457.6875 228.359375 457.6875 195.203125 C 457.6875 162.042969 430.808594 135.160156 397.648438 135.160156 Z M 441.40625 156.273438 C 443.390625 157.269531 439.667969 158.261719 439.667969 159.007813 C 439.171875 159.503906 438.425781 159.75 438.675781 160.742188 C 440.660156 163.476563 444.382813 156.769531 445.128906 160.742188 C 442.644531 161.984375 440.164063 167.695313 445.128906 164.21875 C 446.867188 161.738281 446.867188 163.476563 447.613281 165.214844 C 446.121094 165.214844 445.128906 166.953125 444.136719 167.945313 C 444.882813 172.164063 448.109375 165.214844 450.34375 168.691406 C 450.34375 170.925781 442.894531 171.421875 447.613281 174.152344 C 449.351563 173.40625 450.09375 171.667969 452.082031 172.414063 C 452.828125 175.144531 451.335938 175.144531 449.597656 175.890625 C 448.605469 175.640625 448.109375 176.386719 447.613281 176.882813 C 448.109375 180.855469 452.328125 176.636719 454.066406 178.621094 C 453.820313 181.105469 449.597656 179.117188 449.597656 182.097656 C 450.59375 184.332031 456.300781 179.367188 454.8125 184.828125 C 453.074219 184.582031 451.585938 185.078125 450.34375 186.566406 C 451.832031 188.304688 454.066406 187.3125 455.804688 187.558594 C 454.5625 191.035156 451.585938 187.3125 450.34375 191.035156 C 452.328125 194.511719 455.289063 188.6875 455.785156 193.40625 C 455.289063 195.640625 451.335938 192.027344 450.34375 195.503906 C 451.832031 197.738281 456.300781 194.761719 456.550781 198.234375 C 455.0625 200.222656 451.832031 197.988281 450.34375 199.972656 C 451.089844 204.445313 458.039063 198.980469 455.804688 204.445313 C 453.074219 206.179688 451.089844 201.214844 449.597656 205.4375 C 451.335938 206.679688 455.308594 206.679688 454.8125 208.914063 C 450.59375 207.917969 447.363281 210.652344 453.074219 212.636719 C 453.820313 215.367188 448.355469 211.148438 446.867188 212.636719 C 446.867188 216.113281 452.828125 215.367188 451.335938 217.851563 C 450.839844 219.339844 447.613281 215.367188 445.875 217.851563 C 446.867188 220.085938 450.09375 220.085938 449.597656 222.320313 C 448.605469 222.320313 438.425781 220.582031 445.875 225.050781 C 447.363281 224.554688 446.617188 226.789063 446.867188 227.78125 C 444.136719 228.777344 442.894531 224.058594 440.660156 226.789063 C 441.40625 228.527344 445.128906 229.769531 443.144531 231.257813 C 440.90625 231.257813 439.417969 226.789063 436.9375 229.519531 C 438.175781 231.257813 441.15625 232.253906 440.660156 234.984375 C 437.183594 237.964844 437.433594 230.761719 434.203125 233.246094 C 434.949219 234.984375 437.929688 237.714844 436.191406 238.460938 C 434.203125 240.941406 432.964844 234.238281 430.730469 237.714844 C 430.480469 239.453125 434.203125 240.445313 431.722656 242.183594 C 430.730469 242.183594 424.769531 236.472656 427.253906 242.183594 C 429.984375 243.425781 427.996094 244.914063 426.257813 245.660156 C 425.019531 244.167969 425.019531 241.4375 422.78125 241.191406 C 427.75 258.570313 414.589844 231.257813 418.3125 249.136719 C 415.582031 249.882813 416.078125 246.15625 414.589844 244.667969 C 411.859375 246.652344 416.078125 250.875 412.851563 251.121094 C 410.863281 249.136719 409.625 242.433594 408.382813 249.136719 C 408.878906 249.632813 409.375 250.128906 409.375 251.121094 C 406.394531 252.613281 403.664063 243.175781 404.90625 252.859375 C 399.941406 256.585938 403.414063 241.191406 399.445313 250.128906 C 399.941406 252.363281 398.945313 253.355469 396.714844 252.859375 C 399.195313 251.121094 395.96875 249.136719 395.96875 247.398438 C 391.996094 249.136719 398.203125 252.859375 392.242188 252.859375 C 390.753906 250.128906 395.71875 248.144531 391.496094 246.652344 C 390.257813 248.640625 390.257813 252.117188 387.773438 252.859375 C 390.753906 234.734375 378.835938 262.542969 383.304688 245.660156 C 378.835938 244.667969 381.566406 251.121094 378.089844 250.128906 C 381.816406 247.148438 375.109375 240.199219 374.367188 248.390625 C 370.144531 247.644531 377.097656 244.417969 373.621094 242.183594 C 371.386719 242.183594 370.890625 249.632813 368.160156 244.667969 C 368.40625 243.175781 371.386719 241.933594 369.152344 240.199219 C 367.164063 240.941406 365.429688 246.902344 363.691406 242.183594 C 365.429688 240.941406 365.429688 239.203125 366.421875 237.714844 C 362.449219 234.238281 363.191406 243.921875 359.21875 239.453125 C 360.960938 237.964844 362.695313 235.480469 361.953125 233.988281 C 359.46875 236.722656 354.503906 237.964844 359.21875 233.246094 C 360.214844 232.5 360.214844 232.003906 359.21875 231.257813 C 356.242188 230.265625 354.503906 237.464844 352.019531 232.253906 C 353.261719 230.761719 355.496094 229.519531 355.746094 227.78125 C 353.757813 226.542969 350.53125 232.5 348.542969 227.78125 C 352.019531 227.285156 354.253906 220.335938 348.542969 224.304688 C 347.800781 225.050781 347.300781 225.050781 346.804688 224.304688 C 346.804688 222.320313 352.515625 222.570313 349.289063 219.839844 C 347.054688 218.347656 344.570313 224.554688 344.074219 219.839844 C 345.5625 218.597656 348.296875 218.597656 348.542969 216.113281 C 346.558594 213.382813 343.828125 217.601563 342.335938 216.113281 C 342.585938 214.625 345.5625 214.871094 346.804688 212.636719 C 344.570313 209.160156 341.09375 215.617188 340.351563 210.898438 C 342.335938 209.65625 345.316406 209.65625 345.8125 207.175781 C 340.597656 208.914063 337.867188 204.691406 344.820313 203.699219 C 343.828125 200.46875 339.355469 203.203125 338.613281 200.96875 C 340.351563 199.230469 343.082031 201.214844 344.820313 198.234375 C 343.328125 196 337.867188 199.230469 338.613281 195.503906 C 339.355469 195.257813 344.074219 196.996094 344.074219 193.765625 C 337.617188 194.265625 339.109375 189.296875 344.074219 191.035156 C 346.308594 188.800781 342.089844 190.042969 341.34375 188.554688 C 332.40625 186.316406 354.007813 186.566406 340.351563 183.089844 C 339.855469 183.339844 340.101563 180.109375 342.335938 182.097656 C 343.328125 182.097656 345.066406 182.84375 345.8125 181.351563 C 345.5625 178.371094 340.597656 179.863281 341.34375 176.882813 C 359.71875 182.097656 330.914063 167.945313 349.289063 171.421875 C 348.542969 168.691406 341.839844 169.433594 346.804688 166.953125 C 348.542969 166.703125 349.535156 170.675781 351.273438 167.945313 C 351.523438 164.71875 345.316406 165.710938 348.542969 162.480469 C 351.273438 161.242188 352.269531 167.449219 354.75 164.21875 C 355.246094 160.992188 347.054688 161.242188 352.019531 158.011719 C 353.011719 158.757813 355.746094 164.21875 357.480469 159.75 C 357.980469 157.515625 352.515625 157.515625 354.75 155.28125 C 356.242188 153.046875 358.476563 160.742188 360.960938 156.273438 C 360.960938 153.296875 356.738281 154.535156 358.226563 150.8125 C 360.214844 152.800781 361.453125 155.53125 363.691406 154.535156 C 364.683594 152.054688 357.234375 148.328125 363.691406 148.328125 C 363.9375 150.066406 366.171875 151.0625 367.164063 152.800781 C 371.136719 149.820313 363.9375 148.082031 366.421875 145.597656 C 366.917969 147.335938 369.152344 149.570313 370.890625 150.066406 C 373.125 148.082031 366.917969 144.109375 371.636719 142.867188 C 372.878906 144.355469 372.878906 147.089844 375.359375 147.335938 C 377.84375 145.351563 374.613281 143.117188 374.367188 141.128906 C 377.097656 141.128906 376.351563 149.570313 379.828125 144.605469 C 378.589844 143.363281 378.835938 141.128906 378.835938 139.390625 C 384.796875 137.902344 378.339844 146.09375 384.296875 144.605469 C 385.789063 142.867188 381.070313 138.398438 385.042969 137.40625 C 386.285156 138.398438 386.035156 146.589844 389.511719 141.875 C 389.265625 139.886719 387.027344 137.40625 390.503906 136.660156 C 392.242188 138.894531 390.503906 141.378906 393.234375 141.875 C 395.71875 140.632813 391.496094 134.425781 396.714844 136.660156 C 394.976563 138.398438 396.960938 140.882813 397.707031 142.867188 C 400.933594 141.378906 398.203125 132.9375 402.175781 137.40625 C 401.679688 140.136719 401.679688 140.632813 402.921875 142.867188 C 404.160156 141.128906 404.160156 137.15625 406.644531 137.40625 C 407.886719 139.886719 403.914063 141.378906 407.390625 142.867188 C 408.382813 141.128906 409.375 139.640625 409.375 137.40625 C 410.5 137.832031 411.113281 138.398438 411.859375 138.398438 C 412.355469 140.382813 410.863281 142.617188 411.859375 143.859375 C 415.832031 144.109375 413.101563 137.902344 416.328125 140.136719 C 417.816406 140.882813 413.84375 144.355469 416.328125 146.34375 C 418.3125 144.855469 423.527344 136.90625 420.796875 145.597656 C 420.050781 146.34375 420.050781 146.589844 420.796875 147.335938 C 422.535156 146.09375 429.238281 140.382813 425.265625 147.335938 C 425.019531 147.832031 424.273438 148.328125 424.519531 149.074219 C 426.757813 151.804688 428.492188 146.839844 429.734375 146.34375 C 430.976563 146.839844 425.019531 151.0625 429.734375 151.804688 C 431.722656 151.0625 433.460938 145.351563 435.199219 150.066406 C 433.460938 151.308594 431.722656 154.039063 432.464844 155.28125 C 435.445313 156.027344 437.679688 148.578125 438.675781 154.535156 C 436.191406 155.53125 433.957031 161.488281 438.675781 158.011719 C 439.667969 157.515625 441.40625 154.535156 441.40625 156.273438 "/>
<path style=" stroke:none;fill-rule:nonzero;fill:rgb(0%,0%,0%);fill-opacity:1;" d="M 397.199219 162.304688 C 379.242188 162.304688 364.6875 176.863281 364.6875 194.820313 C 364.6875 212.773438 379.242188 227.332031 397.199219 227.332031 C 415.15625 227.332031 429.710938 212.773438 429.710938 194.820313 C 429.710938 176.863281 415.15625 162.304688 397.199219 162.304688 Z M 397.199219 222.734375 C 389.742188 222.734375 382.730469 219.828125 377.460938 214.558594 C 372.1875 209.285156 369.28125 202.273438 369.28125 194.820313 C 369.28125 187.363281 372.1875 180.351563 377.460938 175.078125 C 382.730469 169.808594 389.742188 166.902344 397.199219 166.902344 C 404.65625 166.902344 411.664063 169.808594 416.9375 175.078125 C 422.210938 180.351563 425.113281 187.363281 425.113281 194.820313 C 425.113281 210.210938 412.589844 222.734375 397.199219 222.734375 "/>
<path style=" stroke:none;fill-rule:nonzero;fill:rgb(0%,0%,0%);fill-opacity:1;" d="M 397.199219 171.5 C 390.96875 171.5 385.113281 173.925781 380.710938 178.332031 C 376.308594 182.734375 373.882813 188.589844 373.882813 194.820313 C 373.882813 201.046875 376.308594 206.902344 380.710938 211.304688 C 385.113281 215.710938 390.96875 218.136719 397.199219 218.136719 C 410.054688 218.136719 420.515625 207.675781 420.515625 194.820313 C 420.515625 188.589844 418.089844 182.734375 413.6875 178.332031 C 409.28125 173.925781 403.425781 171.5 397.199219 171.5 Z M 396.933594 177.464844 C 398.226563 177.464844 399.273438 178.511719 399.273438 179.800781 C 399.273438 181.09375 398.226563 182.140625 396.933594 182.140625 C 395.644531 182.140625 394.597656 181.09375 394.597656 179.800781 C 394.597656 178.511719 395.644531 177.464844 396.933594 177.464844 Z M 384.535156 182.664063 C 385.445313 181.75 386.925781 181.75 387.839844 182.664063 C 388.75 183.574219 388.75 185.054688 387.839844 185.96875 C 386.925781 186.878906 385.445313 186.878906 384.535156 185.96875 C 383.621094 185.054688 383.621094 183.574219 384.535156 182.664063 Z M 381.777344 197.441406 C 380.484375 197.441406 379.4375 196.398438 379.4375 195.105469 C 379.4375 193.816406 380.484375 192.769531 381.777344 192.769531 C 383.066406 192.769531 384.113281 193.816406 384.113281 195.105469 C 384.113281 196.398438 383.066406 197.441406 381.777344 197.441406 Z M 387.941406 207.507813 C 387.027344 208.417969 385.546875 208.417969 384.636719 207.507813 C 383.722656 206.59375 383.722656 205.113281 384.636719 204.203125 C 385.546875 203.289063 387.027344 203.289063 387.941406 204.203125 C 388.851563 205.113281 388.851563 206.59375 387.941406 207.507813 Z M 397.078125 212.601563 C 395.789063 212.601563 394.742188 211.554688 394.742188 210.265625 C 394.742188 208.972656 395.789063 207.929688 397.078125 207.929688 C 398.367188 207.929688 399.414063 208.972656 399.414063 210.265625 C 399.414063 211.554688 398.367188 212.601563 397.078125 212.601563 Z M 397.246094 200.238281 C 394.253906 200.238281 391.828125 197.8125 391.828125 194.820313 C 391.828125 191.824219 394.253906 189.398438 397.246094 189.398438 C 400.238281 189.398438 402.664063 191.824219 402.664063 194.820313 C 402.664063 197.8125 400.238281 200.238281 397.246094 200.238281 Z M 406.074219 182.5625 C 406.984375 181.648438 408.464844 181.648438 409.378906 182.5625 C 410.289063 183.472656 410.289063 184.953125 409.378906 185.867188 C 408.464844 186.777344 406.984375 186.777344 406.074219 185.867188 C 405.160156 184.953125 405.160156 183.472656 406.074219 182.5625 Z M 409.480469 207.40625 C 408.566406 208.320313 407.089844 208.320313 406.175781 207.40625 C 405.261719 206.492188 405.261719 205.011719 406.175781 204.101563 C 407.089844 203.1875 408.566406 203.1875 409.480469 204.101563 C 410.394531 205.011719 410.394531 206.492188 409.480469 207.40625 Z M 414.574219 194.960938 C 414.574219 196.253906 413.527344 197.296875 412.238281 197.296875 C 410.945313 197.296875 409.902344 196.253906 409.902344 194.960938 C 409.902344 193.671875 410.945313 192.625 412.238281 192.625 C 413.527344 192.625 414.574219 193.671875 414.574219 194.960938 "/>
<path style=" stroke:none;fill-rule:nonzero;fill:rgb(0%,0%,0%);fill-opacity:1;" d="M 75.757813 135.949219 C 42.601563 135.949219 15.71875 162.832031 15.71875 195.992188 C 15.71875 229.152344 42.601563 256.03125 75.757813 256.03125 C 108.917969 256.03125 135.800781 229.152344 135.800781 195.992188 C 135.800781 162.832031 108.917969 135.949219 75.757813 135.949219 Z M 119.515625 157.066406 C 121.503906 158.058594 117.777344 159.050781 117.777344 159.796875 C 117.28125 160.292969 116.535156 160.539063 116.785156 161.535156 C 118.769531 164.265625 122.496094 157.5625 123.238281 161.535156 C 120.757813 162.777344 118.273438 168.484375 123.238281 165.011719 C 124.976563 162.527344 124.976563 164.265625 125.722656 166.003906 C 124.234375 166.003906 123.238281 167.742188 122.246094 168.734375 C 122.992188 172.957031 126.21875 166.003906 128.453125 169.480469 C 128.453125 171.714844 121.003906 172.210938 125.722656 174.941406 C 127.460938 174.195313 128.207031 172.457031 130.191406 173.203125 C 130.9375 175.933594 129.449219 175.933594 127.710938 176.679688 C 126.714844 176.429688 126.21875 177.175781 125.722656 177.671875 C 126.21875 181.644531 130.441406 177.425781 132.179688 179.410156 C 131.929688 181.894531 127.710938 179.90625 127.710938 182.886719 C 128.703125 185.121094 134.414063 180.15625 132.921875 185.617188 C 131.1875 185.371094 129.695313 185.867188 128.453125 187.355469 C 129.945313 189.09375 132.179688 188.101563 133.914063 188.347656 C 132.675781 191.824219 129.695313 188.101563 128.453125 191.824219 C 130.441406 195.300781 133.398438 189.476563 133.894531 194.195313 C 133.398438 196.429688 129.449219 192.820313 128.453125 196.292969 C 129.945313 198.53125 134.414063 195.550781 134.660156 199.027344 C 133.171875 201.011719 129.945313 198.777344 128.453125 200.765625 C 129.199219 205.234375 136.152344 199.769531 133.914063 205.234375 C 131.1875 206.972656 129.199219 202.003906 127.710938 206.226563 C 129.449219 207.46875 133.421875 207.46875 132.921875 209.703125 C 128.703125 208.710938 125.476563 211.441406 131.1875 213.425781 C 131.929688 216.15625 126.46875 211.9375 124.976563 213.425781 C 124.976563 216.902344 130.9375 216.15625 129.449219 218.640625 C 128.949219 220.128906 125.722656 216.15625 123.984375 218.640625 C 124.976563 220.875 128.207031 220.875 127.710938 223.109375 C 126.714844 223.109375 116.535156 221.371094 123.984375 225.839844 C 125.476563 225.34375 124.730469 227.578125 124.976563 228.574219 C 122.246094 229.566406 121.003906 224.847656 118.769531 227.578125 C 119.515625 229.316406 123.238281 230.558594 121.253906 232.046875 C 119.019531 232.046875 117.53125 227.578125 115.046875 230.308594 C 116.289063 232.046875 119.269531 233.042969 118.769531 235.773438 C 115.296875 238.753906 115.542969 231.550781 112.316406 234.035156 C 113.058594 235.773438 116.039063 238.503906 114.300781 239.25 C 112.316406 241.730469 111.074219 235.027344 108.839844 238.503906 C 108.589844 240.242188 112.316406 241.234375 109.832031 242.972656 C 108.839844 242.972656 102.878906 237.261719 105.363281 242.972656 C 108.09375 244.214844 106.109375 245.703125 104.371094 246.449219 C 103.128906 244.960938 103.128906 242.226563 100.894531 241.980469 C 105.859375 259.359375 92.699219 232.046875 96.425781 249.925781 C 93.695313 250.671875 94.191406 246.945313 92.699219 245.457031 C 89.96875 247.441406 94.191406 251.664063 90.960938 251.910156 C 88.976563 249.925781 87.734375 243.222656 86.492188 249.925781 C 86.988281 250.421875 87.484375 250.917969 87.484375 251.910156 C 84.507813 253.402344 81.777344 243.964844 83.015625 253.648438 C 78.050781 257.375 81.527344 241.980469 77.554688 250.917969 C 78.050781 253.152344 77.058594 254.144531 74.824219 253.648438 C 77.304688 251.910156 74.078125 249.925781 74.078125 248.1875 C 70.105469 249.925781 76.3125 253.648438 70.355469 253.648438 C 68.863281 250.917969 73.832031 248.933594 69.609375 247.441406 C 68.367188 249.429688 68.367188 252.90625 65.886719 253.648438 C 68.863281 235.523438 56.945313 263.332031 61.414063 246.449219 C 56.945313 245.457031 59.675781 251.910156 56.203125 250.917969 C 59.925781 247.9375 53.222656 240.988281 52.476563 249.179688 C 48.257813 248.4375 55.207031 245.207031 51.730469 242.972656 C 49.496094 242.972656 49 250.421875 46.269531 245.457031 C 46.519531 243.964844 49.496094 242.726563 47.261719 240.988281 C 45.277344 241.730469 43.539063 247.691406 41.800781 242.972656 C 43.539063 241.730469 43.539063 239.992188 44.53125 238.503906 C 40.558594 235.027344 41.304688 244.710938 37.332031 240.242188 C 39.070313 238.753906 40.808594 236.269531 40.0625 234.78125 C 37.578125 237.511719 32.613281 238.753906 37.332031 234.035156 C 38.324219 233.289063 38.324219 232.792969 37.332031 232.046875 C 34.351563 231.054688 32.613281 238.257813 30.132813 233.042969 C 31.371094 231.550781 33.605469 230.308594 33.855469 228.574219 C 31.867188 227.332031 28.640625 233.289063 26.65625 228.574219 C 30.132813 228.074219 32.363281 221.125 26.65625 225.097656 C 25.910156 225.839844 25.414063 225.839844 24.917969 225.097656 C 24.917969 223.109375 30.628906 223.359375 27.398438 220.628906 C 25.164063 219.136719 22.683594 225.34375 22.183594 220.628906 C 23.675781 219.386719 26.40625 219.386719 26.65625 216.902344 C 24.667969 214.171875 21.9375 218.394531 20.449219 216.902344 C 20.695313 215.414063 23.675781 215.660156 24.917969 213.425781 C 22.683594 209.949219 19.207031 216.40625 18.460938 211.6875 C 20.449219 210.449219 23.425781 210.449219 23.921875 207.964844 C 18.710938 209.703125 15.976563 205.480469 22.929688 204.488281 C 21.9375 201.261719 17.46875 203.992188 16.722656 201.757813 C 18.460938 200.019531 21.191406 202.003906 22.929688 199.027344 C 21.441406 196.789063 15.976563 200.019531 16.722656 196.292969 C 17.46875 196.046875 22.183594 197.785156 22.183594 194.554688 C 15.730469 195.054688 17.21875 190.085938 22.183594 191.824219 C 24.417969 189.589844 20.199219 190.832031 19.453125 189.34375 C 10.515625 187.109375 32.117188 187.355469 18.460938 183.878906 C 17.964844 184.128906 18.214844 180.902344 20.449219 182.886719 C 21.441406 182.886719 23.179688 183.632813 23.921875 182.140625 C 23.675781 179.164063 18.710938 180.652344 19.453125 177.671875 C 37.828125 182.886719 9.027344 168.734375 27.398438 172.210938 C 26.65625 169.480469 19.949219 170.222656 24.917969 167.742188 C 26.65625 167.492188 27.648438 171.464844 29.386719 168.734375 C 29.632813 165.507813 23.425781 166.5 26.65625 163.273438 C 29.386719 162.03125 30.378906 168.238281 32.863281 165.011719 C 33.359375 161.78125 25.164063 162.03125 30.132813 158.800781 C 31.125 159.546875 33.855469 165.011719 35.59375 160.539063 C 36.089844 158.304688 30.628906 158.304688 32.863281 156.070313 C 34.351563 153.835938 36.585938 161.535156 39.070313 157.066406 C 39.070313 154.085938 34.847656 155.328125 36.339844 151.601563 C 38.324219 153.589844 39.566406 156.320313 41.800781 155.328125 C 42.792969 152.84375 35.34375 149.117188 41.800781 149.117188 C 42.046875 150.855469 44.285156 151.851563 45.277344 153.589844 C 49.25 150.609375 42.046875 148.871094 44.53125 146.386719 C 45.027344 148.125 47.261719 150.359375 49 150.855469 C 51.234375 148.871094 45.027344 144.898438 49.746094 143.65625 C 50.988281 145.144531 50.988281 147.878906 53.46875 148.125 C 55.953125 146.140625 52.726563 143.90625 52.476563 141.917969 C 55.207031 141.917969 54.464844 150.359375 57.941406 145.394531 C 56.699219 144.152344 56.945313 141.917969 56.945313 140.179688 C 62.90625 138.691406 56.449219 146.882813 62.410156 145.394531 C 63.898438 143.65625 59.179688 139.1875 63.152344 138.195313 C 64.394531 139.1875 64.148438 147.382813 67.621094 142.664063 C 67.375 140.675781 65.140625 138.195313 68.617188 137.449219 C 70.355469 139.683594 68.617188 142.167969 71.347656 142.664063 C 73.832031 141.421875 69.609375 135.214844 74.824219 137.449219 C 73.085938 139.1875 75.070313 141.671875 75.816406 143.65625 C 79.042969 142.167969 76.3125 133.726563 80.285156 138.195313 C 79.789063 140.925781 79.789063 141.421875 81.03125 143.65625 C 82.273438 141.917969 82.273438 137.945313 84.753906 138.195313 C 85.996094 140.675781 82.023438 142.167969 85.5 143.65625 C 86.492188 141.917969 87.484375 140.429688 87.484375 138.195313 C 88.6875 138.625 89.222656 139.1875 89.96875 139.1875 C 90.464844 141.175781 88.976563 143.410156 89.96875 144.648438 C 93.941406 144.898438 91.210938 138.691406 94.4375 140.925781 C 95.929688 141.671875 91.957031 145.144531 94.4375 147.132813 C 96.425781 145.644531 101.640625 137.699219 98.90625 146.386719 C 98.164063 147.132813 98.164063 147.382813 98.90625 148.125 C 100.644531 146.882813 107.351563 141.175781 103.378906 148.125 C 103.128906 148.621094 102.382813 149.117188 102.632813 149.863281 C 104.867188 152.59375 106.605469 147.628906 107.847656 147.132813 C 109.089844 147.628906 103.128906 151.851563 107.847656 152.59375 C 109.832031 151.851563 111.570313 146.140625 113.308594 150.855469 C 111.570313 152.097656 109.832031 154.828125 110.578125 156.070313 C 113.558594 156.816406 115.789063 149.367188 116.785156 155.328125 C 114.300781 156.320313 112.066406 162.277344 116.785156 158.800781 C 117.777344 158.304688 119.515625 155.328125 119.515625 157.066406 "/>
<path style=" stroke:none;fill-rule:nonzero;fill:rgb(0%,0%,0%);fill-opacity:1;" d="M 75.308594 163.09375 C 57.351563 163.09375 42.796875 177.652344 42.796875 195.609375 C 42.796875 213.5625 57.351563 228.121094 75.308594 228.121094 C 93.265625 228.121094 107.820313 213.5625 107.820313 195.609375 C 107.820313 177.652344 93.265625 163.09375 75.308594 163.09375 Z M 75.308594 223.523438 C 67.851563 223.523438 60.84375 220.617188 55.570313 215.347656 C 50.296875 210.074219 47.394531 203.0625 47.394531 195.609375 C 47.394531 188.152344 50.296875 181.140625 55.570313 175.867188 C 60.84375 170.597656 67.851563 167.691406 75.308594 167.691406 C 82.765625 167.691406 89.777344 170.597656 95.046875 175.867188 C 100.320313 181.140625 103.222656 188.152344 103.222656 195.609375 C 103.222656 211 90.703125 223.523438 75.308594 223.523438 "/>
<path style=" stroke:none;fill-rule:nonzero;fill:rgb(0%,0%,0%);fill-opacity:1;" d="M 75.308594 172.289063 C 69.082031 172.289063 63.226563 174.714844 58.820313 179.121094 C 54.417969 183.523438 51.992188 189.378906 51.992188 195.609375 C 51.992188 201.835938 54.417969 207.691406 58.820313 212.09375 C 63.226563 216.5 69.082031 218.925781 75.308594 218.925781 C 88.164063 218.925781 98.625 208.464844 98.625 195.609375 C 98.625 189.378906 96.199219 183.523438 91.796875 179.121094 C 87.394531 174.714844 81.535156 172.289063 75.308594 172.289063 Z M 75.046875 178.253906 C 76.335938 178.253906 77.382813 179.300781 77.382813 180.59375 C 77.382813 181.882813 76.335938 182.929688 75.046875 182.929688 C 73.753906 182.929688 72.710938 181.882813 72.710938 180.59375 C 72.710938 179.300781 73.753906 178.253906 75.046875 178.253906 Z M 62.644531 183.453125 C 63.558594 182.539063 65.035156 182.539063 65.949219 183.453125 C 66.863281 184.363281 66.863281 185.84375 65.949219 186.757813 C 65.035156 187.667969 63.558594 187.667969 62.644531 186.757813 C 61.730469 185.84375 61.730469 184.363281 62.644531 183.453125 Z M 59.886719 198.230469 C 58.597656 198.230469 57.550781 197.1875 57.550781 195.894531 C 57.550781 194.605469 58.597656 193.558594 59.886719 193.558594 C 61.175781 193.558594 62.222656 194.605469 62.222656 195.894531 C 62.222656 197.1875 61.175781 198.230469 59.886719 198.230469 Z M 66.050781 208.296875 C 65.136719 209.210938 63.660156 209.210938 62.746094 208.296875 C 61.832031 207.382813 61.832031 205.90625 62.746094 204.992188 C 63.660156 204.078125 65.136719 204.078125 66.050781 204.992188 C 66.964844 205.90625 66.964844 207.382813 66.050781 208.296875 Z M 75.191406 213.390625 C 73.898438 213.390625 72.851563 212.34375 72.851563 211.054688 C 72.851563 209.765625 73.898438 208.71875 75.191406 208.71875 C 76.480469 208.71875 77.527344 209.765625 77.527344 211.054688 C 77.527344 212.34375 76.480469 213.390625 75.191406 213.390625 Z M 75.355469 201.027344 C 72.363281 201.027344 69.9375 198.601563 69.9375 195.609375 C 69.9375 192.613281 72.363281 190.1875 75.355469 190.1875 C 78.347656 190.1875 80.777344 192.613281 80.777344 195.609375 C 80.777344 198.601563 78.347656 201.027344 75.355469 201.027344 Z M 84.183594 183.351563 C 85.097656 182.4375 86.578125 182.4375 87.488281 183.351563 C 88.402344 184.261719 88.402344 185.742188 87.488281 186.65625 C 86.578125 187.566406 85.097656 187.566406 84.183594 186.65625 C 83.273438 185.742188 83.273438 184.261719 84.183594 183.351563 Z M 87.589844 208.195313 C 86.679688 209.105469 85.199219 209.105469 84.285156 208.195313 C 83.375 207.28125 83.375 205.800781 84.285156 204.890625 C 85.199219 203.976563 86.679688 203.976563 87.589844 204.890625 C 88.503906 205.800781 88.503906 207.28125 87.589844 208.195313 Z M 92.683594 195.75 C 92.683594 197.042969 91.640625 198.089844 90.347656 198.089844 C 89.058594 198.089844 88.011719 197.042969 88.011719 195.75 C 88.011719 194.460938 89.058594 193.414063 90.347656 193.414063 C 91.640625 193.414063 92.683594 194.460938 92.683594 195.75 "/>
<path style=" stroke:none;fill-rule:nonzero;fill:rgb(0%,0%,0%);fill-opacity:1;" d="M 529.542969 104.59375 L 529.542969 98.847656 L 527.636719 98.847656 L 527.636719 97.03125 L 529.160156 97.03125 L 529.160156 91.28125 L 527.636719 91.28125 L 527.636719 89.46875 L 528.78125 89.46875 L 528.78125 83.722656 L 527.636719 83.722656 L 527.636719 82.171875 L 528.78125 82.171875 L 528.78125 76.425781 L 527.636719 76.425781 L 527.636719 74.492188 L 528.78125 74.492188 L 528.78125 68.742188 L 527.636719 68.742188 L 527.636719 66.9375 L 529.160156 66.9375 L 529.160156 61.191406 L 527.636719 61.191406 L 527.636719 59.648438 L 529.160156 59.648438 L 529.160156 53.898438 L 527.636719 53.898438 L 527.636719 52.5625 L 529.515625 52.5625 L 529.515625 47.421875 L 492.695313 47.421875 L 492.695313 52.5625 L 494.222656 52.5625 L 494.222656 53.898438 L 492.695313 53.898438 L 492.695313 59.648438 L 494.222656 59.648438 L 494.222656 61.191406 L 492.695313 61.191406 L 492.695313 66.9375 L 494.222656 66.9375 L 494.222656 68.742188 L 492.695313 68.742188 L 492.695313 74.492188 L 494.222656 74.492188 L 494.222656 76.425781 L 492.695313 76.425781 L 492.695313 82.171875 L 494.222656 82.171875 L 494.222656 83.722656 L 492.695313 83.722656 L 492.695313 89.46875 L 494.222656 89.46875 L 494.222656 91.28125 L 492.695313 91.28125 L 492.695313 97.03125 L 494.222656 97.03125 L 494.222656 98.847656 L 492.695313 98.847656 L 492.695313 104.59375 L 494.222656 104.59375 L 494.222656 106.410156 L 492.695313 106.410156 L 492.695313 112.15625 L 494.222656 112.15625 L 494.222656 113.972656 L 492.695313 113.972656 L 492.695313 119.71875 L 494.222656 119.71875 L 494.222656 121.535156 L 492.695313 121.535156 L 492.695313 127.28125 L 494.222656 127.28125 L 494.222656 129.703125 L 492.695313 129.703125 L 492.695313 135.449219 L 494.222656 135.449219 L 494.222656 137.566406 L 492.695313 137.566406 L 492.695313 143.3125 L 494.222656 143.3125 L 494.222656 145.128906 L 492.695313 145.128906 L 492.695313 150.878906 L 494.222656 150.878906 L 494.222656 152.992188 L 492.695313 152.992188 L 492.695313 158.742188 L 494.222656 158.742188 L 494.222656 159.953125 L 492.695313 159.953125 L 492.695313 163.882813 L 528.78125 163.882813 L 528.78125 159.953125 L 527.636719 159.953125 L 527.636719 158.742188 L 528.78125 158.742188 L 528.78125 152.992188 L 527.636719 152.992188 L 527.636719 150.878906 L 528.78125 150.878906 L 528.78125 145.128906 L 527.636719 145.128906 L 527.636719 143.3125 L 528.78125 143.3125 L 528.78125 137.566406 L 527.636719 137.566406 L 527.636719 135.449219 L 529.542969 135.449219 L 529.542969 129.703125 L 527.636719 129.703125 L 527.636719 127.28125 L 529.542969 127.28125 L 529.542969 121.535156 L 527.636719 121.535156 L 527.636719 119.71875 L 529.542969 119.71875 L 529.542969 113.972656 L 527.636719 113.972656 L 527.636719 112.15625 L 529.160156 112.15625 L 529.160156 106.410156 L 527.636719 106.410156 L 527.636719 104.59375 Z M 501.667969 159.953125 L 496.515625 159.953125 L 496.515625 158.742188 L 501.667969 158.742188 Z M 501.667969 152.992188 L 496.515625 152.992188 L 496.515625 150.878906 L 501.667969 150.878906 Z M 501.667969 145.128906 L 496.515625 145.128906 L 496.515625 143.3125 L 501.667969 143.3125 Z M 501.667969 137.566406 L 496.515625 137.566406 L 496.515625 135.449219 L 501.667969 135.449219 Z M 501.667969 129.703125 L 496.515625 129.703125 L 496.515625 127.28125 L 501.667969 127.28125 Z M 501.667969 121.535156 L 496.515625 121.535156 L 496.515625 119.71875 L 501.667969 119.71875 Z M 501.667969 113.972656 L 496.515625 113.972656 L 496.515625 112.15625 L 501.667969 112.15625 Z M 501.667969 106.410156 L 496.515625 106.410156 L 496.515625 104.59375 L 501.667969 104.59375 Z M 501.667969 98.847656 L 496.515625 98.847656 L 496.515625 97.03125 L 501.667969 97.03125 Z M 501.667969 91.28125 L 496.515625 91.28125 L 496.515625 89.46875 L 501.667969 89.46875 Z M 501.667969 83.722656 L 496.515625 83.722656 L 496.515625 82.171875 L 501.667969 82.171875 Z M 501.667969 76.425781 L 496.515625 76.425781 L 496.515625 74.492188 L 501.667969 74.492188 Z M 501.667969 68.742188 L 496.515625 68.742188 L 496.515625 66.9375 L 501.667969 66.9375 Z M 501.667969 61.191406 L 496.515625 61.191406 L 496.515625 59.648438 L 501.667969 59.648438 Z M 501.667969 53.898438 L 496.515625 53.898438 L 496.515625 52.5625 L 501.667969 52.5625 Z M 508.160156 159.953125 L 503.960938 159.953125 L 503.960938 158.742188 L 508.160156 158.742188 Z M 508.160156 152.992188 L 503.960938 152.992188 L 503.960938 150.878906 L 508.160156 150.878906 Z M 508.160156 145.128906 L 503.960938 145.128906 L 503.960938 143.3125 L 508.160156 143.3125 Z M 508.160156 137.566406 L 503.960938 137.566406 L 503.960938 135.449219 L 508.160156 135.449219 Z M 508.160156 129.703125 L 503.960938 129.703125 L 503.960938 127.28125 L 508.160156 127.28125 Z M 508.160156 121.535156 L 503.960938 121.535156 L 503.960938 119.71875 L 508.160156 119.71875 Z M 508.160156 113.972656 L 503.960938 113.972656 L 503.960938 112.15625 L 508.160156 112.15625 Z M 508.160156 106.410156 L 503.960938 106.410156 L 503.960938 104.59375 L 508.160156 104.59375 Z M 508.160156 98.847656 L 503.960938 98.847656 L 503.960938 97.03125 L 508.160156 97.03125 Z M 508.160156 91.28125 L 503.960938 91.28125 L 503.960938 89.46875 L 508.160156 89.46875 Z M 508.160156 83.722656 L 503.960938 83.722656 L 503.960938 82.171875 L 508.160156 82.171875 Z M 508.160156 76.425781 L 503.960938 76.425781 L 503.960938 74.492188 L 508.160156 74.492188 Z M 508.160156 68.742188 L 503.960938 68.742188 L 503.960938 66.9375 L 508.160156 66.9375 Z M 508.160156 61.191406 L 503.960938 61.191406 L 503.960938 59.648438 L 508.160156 59.648438 Z M 508.160156 53.898438 L 503.960938 53.898438 L 503.960938 52.5625 L 508.160156 52.5625 Z M 514.652344 159.953125 L 510.453125 159.953125 L 510.453125 158.742188 L 514.652344 158.742188 Z M 514.652344 152.992188 L 510.453125 152.992188 L 510.453125 150.878906 L 514.652344 150.878906 Z M 514.652344 145.128906 L 510.453125 145.128906 L 510.453125 143.3125 L 514.652344 143.3125 Z M 514.652344 137.566406 L 510.453125 137.566406 L 510.453125 135.449219 L 514.652344 135.449219 Z M 514.652344 129.703125 L 510.453125 129.703125 L 510.453125 127.28125 L 514.652344 127.28125 Z M 514.652344 121.535156 L 510.453125 121.535156 L 510.453125 119.71875 L 514.652344 119.71875 Z M 514.652344 113.972656 L 510.453125 113.972656 L 510.453125 112.15625 L 514.652344 112.15625 Z M 514.652344 106.410156 L 510.453125 106.410156 L 510.453125 104.59375 L 514.652344 104.59375 Z M 514.652344 98.847656 L 510.453125 98.847656 L 510.453125 97.03125 L 514.652344 97.03125 Z M 514.652344 91.28125 L 510.453125 91.28125 L 510.453125 89.46875 L 514.652344 89.46875 Z M 514.652344 83.722656 L 510.453125 83.722656 L 510.453125 82.171875 L 514.652344 82.171875 Z M 514.652344 76.425781 L 510.453125 76.425781 L 510.453125 74.492188 L 514.652344 74.492188 Z M 514.652344 68.742188 L 510.453125 68.742188 L 510.453125 66.9375 L 514.652344 66.9375 Z M 514.652344 61.191406 L 510.453125 61.191406 L 510.453125 59.648438 L 514.652344 59.648438 Z M 514.652344 53.898438 L 510.453125 53.898438 L 510.453125 52.5625 L 514.652344 52.5625 Z M 520.761719 159.953125 L 516.941406 159.953125 L 516.941406 158.742188 L 520.761719 158.742188 Z M 520.761719 152.992188 L 516.941406 152.992188 L 516.941406 150.878906 L 520.761719 150.878906 Z M 520.761719 145.128906 L 516.941406 145.128906 L 516.941406 143.3125 L 520.761719 143.3125 Z M 520.761719 137.566406 L 516.941406 137.566406 L 516.941406 135.449219 L 520.761719 135.449219 Z M 520.761719 129.703125 L 516.941406 129.703125 L 516.941406 127.28125 L 520.761719 127.28125 Z M 520.761719 121.535156 L 516.941406 121.535156 L 516.941406 119.71875 L 520.761719 119.71875 Z M 520.761719 113.972656 L 516.941406 113.972656 L 516.941406 112.15625 L 520.761719 112.15625 Z M 520.761719 106.410156 L 516.941406 106.410156 L 516.941406 104.59375 L 520.761719 104.59375 Z M 520.761719 98.847656 L 516.941406 98.847656 L 516.941406 97.03125 L 520.761719 97.03125 Z M 520.761719 91.28125 L 516.941406 91.28125 L 516.941406 89.46875 L 520.761719 89.46875 Z M 520.761719 83.722656 L 516.941406 83.722656 L 516.941406 82.171875 L 520.761719 82.171875 Z M 520.761719 76.425781 L 516.941406 76.425781 L 516.941406 74.492188 L 520.761719 74.492188 Z M 520.761719 68.742188 L 516.941406 68.742188 L 516.941406 66.9375 L 520.761719 66.9375 Z M 520.761719 61.191406 L 516.941406 61.191406 L 516.941406 59.648438 L 520.761719 59.648438 Z M 520.761719 53.898438 L 516.941406 53.898438 L 516.941406 52.5625 L 520.761719 52.5625 Z M 525.34375 159.953125 L 523.054688 159.953125 L 523.054688 158.742188 L 525.34375 158.742188 Z M 525.34375 152.992188 L 523.054688 152.992188 L 523.054688 150.878906 L 525.34375 150.878906 Z M 525.34375 145.128906 L 523.054688 145.128906 L 523.054688 143.3125 L 525.34375 143.3125 Z M 525.34375 137.566406 L 523.054688 137.566406 L 523.054688 135.449219 L 525.34375 135.449219 Z M 525.34375 129.703125 L 523.054688 129.703125 L 523.054688 127.28125 L 525.34375 127.28125 Z M 525.34375 121.535156 L 523.054688 121.535156 L 523.054688 119.71875 L 525.34375 119.71875 Z M 525.34375 113.972656 L 523.054688 113.972656 L 523.054688 112.15625 L 525.34375 112.15625 Z M 525.34375 106.410156 L 523.054688 106.410156 L 523.054688 104.59375 L 525.34375 104.59375 Z M 525.34375 98.847656 L 523.054688 98.847656 L 523.054688 97.03125 L 525.34375 97.03125 Z M 525.34375 91.28125 L 523.054688 91.28125 L 523.054688 89.46875 L 525.34375 89.46875 Z M 525.34375 83.722656 L 523.054688 83.722656 L 523.054688 82.171875 L 525.34375 82.171875 Z M 525.34375 76.425781 L 523.054688 76.425781 L 523.054688 74.492188 L 525.34375 74.492188 Z M 525.34375 68.742188 L 523.054688 68.742188 L 523.054688 66.9375 L 525.34375 66.9375 Z M 525.34375 61.191406 L 523.054688 61.191406 L 523.054688 59.648438 L 525.34375 59.648438 Z M 525.34375 53.898438 L 523.054688 53.898438 L 523.054688 52.5625 L 525.34375 52.5625 L 525.34375 53.898438 "/>
</g>
</svg>
