<?xml version="1.0" encoding="UTF-8"?>
<svg xmlns="http://www.w3.org/2000/svg" xmlns:xlink="http://www.w3.org/1999/xlink" width="511pt" height="176pt" viewBox="0 0 511 176" version="1.1">
<g id="surface1">
<path style=" stroke:none;fill-rule:nonzero;fill:rgb(0%,0%,0%);fill-opacity:1;" d="M 510.199219 96.5 C 507.699219 84.601563 508.898438 71.101563 503 60.5 C 498.398438 53.101563 495.101563 45 491.800781 37 C 488.101563 32.5 484.101563 28.101563 480.699219 23.601563 C 473.398438 15 463.398438 11.800781 453.101563 9.601563 C 447.601563 6.5 442.101563 2.898438 435.398438 2.699219 C 427.300781 1.300781 422.867188 4.203125 413 2.898438 C 405.796875 1.949219 401.085938 0.351563 392.625 2.113281 C 384.03125 3.902344 377.863281 2.914063 371.300781 3.898438 C 356.398438 5.199219 343.898438 12.199219 330.199219 16.398438 C 319.199219 25.601563 305.199219 27.601563 295.199219 39.398438 C 282.300781 39.199219 269.5 40.398438 260.199219 49.5 C 250.101563 46.199219 236.898438 45.398438 226.300781 48.300781 C 218.898438 36.5 206.898438 29.5 194.601563 26.199219 C 189 22.5 183.699219 17.800781 177.398438 15.601563 C 165.199219 14.199219 155.898438 5.5 143.5 5.300781 C 131.5 2.398438 118.199219 2 105.398438 2 C 93.800781 -2.5 83.101563 3.199219 71 2.699219 C 47.800781 5.800781 28.300781 20.5 12.5 39.199219 C 1.300781 47.601563 1.699219 61.398438 1.398438 73.699219 C -0.800781 98 10 117.398438 21.800781 136.101563 C 27.898438 142.800781 33.199219 149.5 40.601563 154.601563 C 50.699219 160.601563 60.699219 166.898438 71.5 171.199219 C 86.601563 172.5 102.5 178.898438 117.601563 173.101563 C 128.898438 173 140 172.5 148.300781 165.199219 C 155.300781 164.800781 161.5 162.601563 167 158.699219 C 174.5 155.5 183.5 155 188.898438 147.601563 C 195.316406 146.257813 200.972656 142.195313 205.945313 137.179688 C 211.128906 134.792969 220.84375 127.875 223.148438 123.800781 C 227.851563 120.800781 237.5 115.5 243.601563 108.300781 C 249.101563 109.5 254.699219 110.800781 260.601563 110.898438 C 268.699219 120.398438 279.398438 125.5 292.300781 124.398438 L 305.5 140.898438 C 314.699219 149.800781 326.675781 152.84375 336.199219 159.898438 C 337.550781 160.898438 347.800781 167.601563 361 169 C 373.699219 169.550781 386.398438 173.199219 399.101563 174.300781 C 418.101563 171 439.300781 175.300781 457 168.800781 C 468.800781 163.699219 483.5 161.199219 490.101563 147.398438 C 498.398438 139.398438 505.800781 129.898438 506.398438 118.101563 C 508 111.101563 511.101563 104.601563 510.199219 96.5 Z M 498 59.800781 C 501.800781 64.300781 503.199219 69.800781 505.199219 74.898438 L 504 74.898438 C 496.601563 69.699219 480.136719 67.9375 479.238281 66.488281 C 476.011719 62.835938 471.699219 52.085938 474 51.601563 C 482.601563 51.601563 491.398438 53.699219 498 59.800781 Z M 487.699219 39.398438 C 489.5 42 490.898438 44.800781 491.800781 47.800781 C 484.101563 50.199219 475.800781 47.199219 468 48.5 C 463.898438 48 459.300781 47.199219 457.398438 42.800781 C 456.800781 40.699219 457.699219 38 456.699219 36 C 461.699219 32.199219 467.699219 31.300781 474.5 32.199219 C 479.101563 34.101563 484 35.199219 487.699219 39.398438 Z M 457 16.101563 C 464.300781 16.800781 471.101563 20.699219 476.898438 25.199219 C 468.699219 29.101563 459.199219 30.800781 449.5 30.300781 L 439.199219 26.898438 C 439.199219 25.800781 438.199219 25.199219 438.699219 24.300781 C 444.398438 21.300781 450 16.800781 457 16.101563 Z M 419 10.398438 C 426.25 5.050781 440 6.898438 449 11.300781 C 448.101563 13.898438 445.300781 16.101563 443 17.800781 C 434.601563 26.199219 419.800781 20.5 409 21.199219 L 408.636719 21.210938 L 408.199219 19.699219 C 411.5 15.898438 414.898438 12.800781 419 10.398438 Z M 395.5 6.800781 C 401.898438 5.898438 408.898438 5.398438 415.398438 6.300781 C 411.601563 14.101563 403.398438 21.199219 394.101563 20.898438 C 389.800781 20.800781 384.539063 22.035156 379.839844 21.535156 L 379.199219 21.449219 C 381.699219 14.550781 388.101563 7.699219 395.5 6.800781 Z M 377.898438 7.5 L 383.5 5.601563 C 382.601563 9 380 12.699219 377.5 15.601563 C 373.300781 23.300781 365.398438 24.800781 357.398438 24.800781 L 356.339844 24.75 C 356.363281 22.273438 357.386719 21.011719 358.101563 19 C 361.46875 9.488281 369.300781 9.5 377.898438 7.5 Z M 358.300781 10.101563 C 355.300781 17.898438 352.5 26.5 344.898438 31.699219 L 335.824219 35.175781 L 334.300781 35.863281 C 335.800781 30.199219 337 24.898438 339.800781 19.5 C 345.800781 16.398438 351.699219 12.199219 358.300781 10.101563 Z M 317.300781 29.601563 C 323.5 26.300781 328.398438 19.699219 335.800781 19 C 333.601563 24.699219 330.300781 30.601563 330.199219 37.5 C 326.300781 42.199219 320.699219 45 315.601563 48 C 314.101563 48.898438 311.898438 48.398438 310.101563 48.5 C 309.5 40.898438 313.398438 35 317.300781 29.601563 Z M 306.699219 85.699219 C 312.601563 89.398438 315.199219 96 315.601563 102.800781 L 315.464844 103.3125 C 312.761719 108.511719 307.300781 112.101563 302.199219 114.800781 C 305.101563 106 300.898438 93.398438 306.699219 85.699219 Z M 306.5 78 C 305.1875 75.882813 305.59375 72.800781 304.300781 70.910156 L 303.75 69.5 L 305.300781 69.898438 C 310.898438 71.601563 315.898438 74.601563 320.398438 79 C 320.398438 84.101563 319.800781 89 317.5 93.199219 C 314.199219 88.199219 312.5 81.5 306.5 78 Z M 305.300781 64.101563 C 306.199219 60.601563 307.800781 57 311.300781 55 C 317 59 319.5 65.300781 320.601563 72 Z M 301 40.800781 L 309.398438 33.898438 C 309.101563 38.699219 307.398438 44.199219 306 48.800781 C 305.726563 49.699219 305.351563 50.585938 305.363281 52.425781 L 304.601563 53.300781 L 296.398438 61 C 295.898438 53.800781 297.398438 46.699219 301 40.800781 Z M 301.699219 80 C 301.398438 83.300781 299.601563 86 298.601563 89.101563 C 293.699219 88 289.398438 85.601563 284.898438 83.800781 C 286.519531 80.746094 289.355469 78.144531 292.113281 75.386719 L 292.101563 75.398438 C 294.800781 77.5 298.699219 77.800781 301.699219 80 Z M 293 67.5 C 291 67 287.800781 65.800781 285.601563 63.898438 C 286.101563 60 289.601563 57.199219 292.601563 54.5 C 293.398438 59.101563 291.800781 63 293 67.5 Z M 289.398438 73.199219 C 285.300781 77.199219 280.898438 82.398438 274.601563 80.898438 C 269.300781 78.5 264.300781 74.800781 259.199219 72.800781 C 257.898438 72.5 257.839844 70.726563 258.199219 70.101563 C 262.300781 66.800781 266 62.5 270.5 60.300781 C 274.5 62.800781 278.800781 64.699219 282.5 68 L 283.449219 68.773438 C 285.148438 70.476563 287.601563 71.398438 289.398438 73.199219 Z M 271 83.289063 L 271 83.300781 C 275.898438 84.800781 280.800781 86.601563 285.601563 88.601563 L 284.601563 89.601563 C 279.101563 89.898438 273.5 88.101563 268.300781 87.398438 C 268.800781 85.800781 270.101563 84.6875 271 83.289063 Z M 288.199219 94.101563 C 291.300781 94 293.289063 93.449219 296.089844 94.050781 L 297.800781 94.398438 C 296.398438 97.898438 293.800781 101 292.800781 104.699219 C 288.300781 104.898438 283.199219 105.699219 278.398438 105.199219 C 278.089844 104.300781 277.300781 103.300781 278.398438 102.5 C 281.601563 99.5 284.5 95.898438 288.199219 94.101563 Z M 294.699219 44.898438 C 291.5 50.699219 286.101563 54.5 281.300781 59.800781 C 279.5 59 277.898438 58.699219 278.601563 56.398438 C 279.699219 53.699219 281.398438 51.199219 283.199219 48.800781 C 286.800781 47 290.601563 44 294.699219 44.898438 Z M 271.199219 47.101563 C 275.699219 44.800781 280.699219 43.699219 285.601563 42.5 L 286.101563 43 L 286.101563 43.5 L 279.101563 47.601563 L 273.800781 56 C 271.199219 55.898438 268.5 54.398438 265.898438 53.300781 C 265.800781 51 269.199219 48.699219 271.199219 47.101563 Z M 236.199219 51.398438 L 237.800781 56.699219 L 239 68 L 231.988281 76.238281 C 230.5 73.976563 230.886719 74.460938 228.625 72.410156 L 227.738281 71.550781 L 226.550781 70.660156 C 222.648438 68.261719 219.699219 65.898438 215.300781 64.800781 C 215.601563 60.199219 221.601563 57.601563 224.601563 54.5 C 227.699219 51.699219 232.199219 52.101563 236.199219 51.398438 Z M 216.699219 95.101563 C 213.800781 98.199219 209.300781 100.898438 206.898438 104.699219 C 197.199219 113.199219 185.199219 116.199219 175.898438 125.800781 C 168.699219 128.800781 161.101563 131 155 136.800781 C 147.800781 136.898438 141.398438 139 135.601563 142.398438 C 127.199219 141.898438 119.101563 143.800781 111.601563 146.199219 C 107.398438 145.699219 102.800781 146 98.898438 146.898438 C 92.601563 143.601563 85.601563 141.398438 78.199219 141.398438 C 72.300781 139 66.300781 135.5 59.5 134.398438 C 55.800781 131.300781 52 128.300781 47.800781 126.5 C 45.300781 121 41.398438 116.199219 37.199219 111.898438 C 34.5 104.101563 31.300781 96.601563 27.601563 89.300781 L 28.300781 75.199219 C 31.5 69.5 33.898438 63.601563 34.601563 56.898438 C 39.800781 52.199219 44.898438 46.898438 49.199219 41.601563 C 54.699219 40.398438 59.699219 38.300781 64.300781 35.101563 C 71.5 34.601563 78.398438 33.5 84.5 30.5 C 92.699219 30.199219 100.898438 29.800781 107.800781 26.199219 C 114.300781 27.5 121.5 28.800781 128.398438 27.898438 L 140.398438 32.398438 L 154.101563 33.398438 C 161 38 168.898438 40.398438 177.601563 40.601563 C 182.398438 45.398438 187.101563 50.5 193 52.800781 C 196.898438 58.199219 202.699219 63 208.101563 67 C 207.898438 77 210.199219 87.199219 216.699219 95.101563 Z M 213.398438 75.601563 C 214 73.898438 213.898438 71 215.300781 69.398438 C 221.101563 71.398438 229.351563 76.363281 229.714844 82.726563 C 231.011719 87.523438 225.300781 90.398438 224.199219 94.101563 C 217 91.398438 213.023438 82.925781 213.398438 75.601563 Z M 222 50.199219 L 210 62.898438 C 205.300781 60.5 201.199219 55.800781 197.5 51.898438 C 198.398438 48.800781 201.898438 48.476563 205 47.800781 C 210.601563 47.199219 216.601563 48.699219 222 50.199219 Z M 213.601563 37.699219 L 218.199219 44.898438 L 218.199219 45.199219 C 214.300781 45.300781 210.398438 44.101563 206.398438 44 C 198.800781 45.300781 188.5 49.5 183.101563 40.398438 C 182.5 38.898438 180.199219 38.398438 181.398438 36.5 C 190.898438 31.5 204.398438 32.300781 213.601563 37.699219 Z M 177.101563 20.398438 L 191.800781 27.199219 L 193.199219 29.300781 C 184.601563 30.398438 176.398438 32.601563 168.699219 35.800781 C 164.601563 35.5 160.648438 32.398438 157.148438 30.5 L 156.761719 30.175781 C 161.011719 25.050781 168.199219 21.699219 174.5 20.199219 Z M 148.601563 10.601563 L 167 14.898438 C 167.601563 16 169.101563 16.699219 169.199219 18 C 160.101563 19.199219 154.101563 27.898438 145 29.101563 C 139.699219 28.300781 135 26 130.601563 23.800781 C 136.199219 19 140.601563 10.699219 148.601563 10.601563 Z M 140.601563 6.800781 C 141 7.199219 141.601563 6.898438 142.101563 7 C 135.800781 12.199219 129.199219 18.101563 122.898438 23.101563 C 118.699219 23.300781 113.976563 23.550781 109.976563 22.351563 L 110.675781 21.125 C 114.273438 16.425781 119.101563 10 124.300781 8 C 129 5.800781 135.300781 6.101563 140.601563 6.800781 Z M 107.800781 5.800781 L 119.425781 5.875 L 119.113281 6.125 C 113.613281 11.125 108.300781 17.300781 103.699219 22.800781 C 99.300781 26.601563 93.398438 27.601563 87.398438 26.699219 L 85.648438 26.300781 C 87.023438 22.273438 91.175781 18.023438 94.050781 14.074219 C 97.898438 10.148438 102.101563 6.101563 107.800781 5.800781 Z M 74.898438 7.199219 C 81.300781 4.699219 88.398438 5 95.300781 3.601563 C 96.898438 3.398438 98.800781 4 99.800781 4.101563 L 99.800781 4.800781 C 91.398438 11.101563 84.699219 19.800781 78.699219 27.898438 C 74.398438 30.101563 69.800781 31.601563 65 30.800781 C 62.5 29.601563 65.601563 28.300781 65.5 26.898438 C 67.199219 20.101563 67.101563 11 74.898438 7.199219 Z M 45.398438 18.300781 C 49.101563 10.898438 57 9.5 63.601563 7 L 69.574219 6.761719 L 68.199219 8.199219 C 60.101563 15.5 64.699219 28.300781 55.898438 35.101563 C 53.398438 36 50.601563 36.199219 48 36.800781 C 47.625 36.863281 46.613281 37.449219 45.914063 37.050781 C 45.710938 36.949219 45.699219 35.398438 45.601563 35.601563 C 44.800781 29.5 45.101563 24.199219 45.398438 18.300781 Z M 29.949219 28.976563 C 32.148438 24.300781 37.875 20.199219 41.675781 16.300781 L 41.425781 16.8125 C 37.625 27.675781 41.398438 32.898438 42 40.101563 C 41.601563 45.496094 37.507813 50.191406 33.113281 53.089844 C 33.125 53.125 33.140625 53.164063 33.148438 53.199219 L 33.101563 53.101563 C 33.105469 53.097656 33.109375 53.09375 33.113281 53.089844 C 31.097656 47.0625 26.773438 35.722656 29.949219 28.976563 Z M 14.601563 45.398438 C 16 40 19.300781 34.398438 24 31.5 C 20.300781 44.699219 36.300781 54.300781 27.800781 66.800781 L 26.898438 67.199219 C 19.199219 63.199219 13.398438 54.601563 14.601563 45.398438 Z M 7.699219 50.699219 C 9.148438 48.300781 10 46.101563 11.800781 44.699219 C 10 55.800781 15.5 64.699219 23.5 71.800781 C 25.601563 77.300781 25.101563 84.699219 21.601563 89.300781 L 21.101563 89.476563 C 19.523438 89.175781 17.800781 88.398438 16.300781 87.601563 C 9.5 85.398438 5.898438 78.601563 5.5 71.800781 C 4.800781 65.101563 6.476563 52.726563 7.699219 50.699219 Z M 4.601563 85.351563 C 12 92.5 24 91.5 29.300781 100.101563 C 30.699219 103.5 33 106.5 32.898438 110.398438 C 33 110.199219 32.988281 111.851563 31.851563 111.5625 C 26.226563 111.824219 25.710938 111.011719 22.101563 110 C 15.601563 108.699219 8.699219 103.800781 7 97 Z M 10.726563 110.574219 L 10.300781 109.699219 C 16.199219 113.601563 24.5 115.101563 32.398438 115.699219 C 37.101563 116.898438 40.3125 119.875 43.136719 126.488281 L 43.585938 127.511719 C 36.488281 127.3125 28.976563 130.101563 23 128.199219 C 16.699219 123.699219 14.726563 116.675781 10.726563 110.574219 Z M 30.5 141.199219 L 22.800781 134 C 25.898438 133 30.101563 133.800781 33.601563 133.199219 C 39.101563 131.699219 45.699219 128 51.398438 131.800781 C 53.699219 133.601563 55.898438 135.800781 57.398438 138.300781 L 57.601563 139.5 C 57.386719 139.636719 56.460938 140.324219 55 140.699219 C 47.699219 143.699219 37.5 147 30.5 141.199219 Z M 37.699219 148.398438 C 48.5 149 56 141.699219 66.5 141.601563 C 69.101563 142.5 73.625 143.75 73.875 145.875 C 73.5 147.5 68.25 149.25 66.199219 151.5 C 62.699219 154.800781 58.5 156.699219 53.5 156.5 C 47.5 155.601563 42.300781 152.199219 37.699219 148.398438 Z M 66.199219 165.898438 C 63.5 165.101563 61.398438 162.800781 58.800781 161.601563 C 62.300781 159.5 66.300781 157.800781 70.101563 155.800781 C 75.5 151.5 80.199219 144.101563 88.101563 147.398438 L 92.398438 148.800781 C 84.601563 155.601563 78.898438 171.300781 66.199219 165.898438 Z M 90 170.199219 C 86.898438 169.800781 82.800781 170.300781 79.898438 168.800781 C 87.800781 161.699219 95 145.898438 108 151.699219 C 103.300781 158.398438 100.800781 171.101563 90 170.199219 Z M 112.101563 171.199219 C 108.601563 172.101563 104.898438 172.300781 101.300781 172.800781 C 101.699219 170.398438 104.101563 168.199219 104.898438 165.601563 C 107.699219 159.300781 110 151.300781 117.601563 148.398438 C 122 145 128.199219 146 133.398438 144.800781 C 132.101563 147.800781 129.5 150.300781 127.898438 153.199219 C 125.5 160.800781 120.199219 168.699219 112.101563 171.199219 Z M 131 168 L 124.300781 169 C 123.300781 168.398438 124.199219 167.398438 124.601563 166.800781 C 132.300781 159 132.5 144.398438 145.699219 142.398438 C 148.199219 141.101563 151 142.800781 153.601563 141.898438 C 149.101563 151.898438 143.601563 165.601563 131 168 Z M 147.101563 161.300781 C 156.398438 153.300781 153.546875 138.429688 166.300781 133.699219 C 168.523438 132.875 168.226563 132.925781 171.925781 131.75 L 172.800781 131.300781 C 170.898438 137.101563 169.199219 143.398438 167.5 149.601563 C 164.199219 157.699219 154.5 160.898438 147.101563 161.300781 Z M 188.601563 133.5 C 187.101563 140.601563 184 148.601563 176.398438 151.699219 C 174.226563 152.449219 172.101563 155 169.898438 152.398438 C 175 145.5 173.300781 135.699219 178.800781 128.898438 C 183.199219 125.601563 187 121.101563 192.199219 119.800781 C 191.800781 124.101563 189.5 128.800781 188.601563 133.5 Z M 204 131.101563 C 200.300781 136.199219 195.5 141.398438 189.398438 143.601563 C 193.898438 135.101563 192 123.898438 196.601563 115.5 C 199.800781 112.300781 203.300781 109.699219 207.800781 109.5 C 206.199219 116.5 205.300781 123.898438 204 131.101563 Z M 208.300781 128.898438 C 209.101563 121.699219 210.5 114.699219 211 107.300781 C 213.199219 101.5 219.699219 99.601563 224.898438 97.699219 L 225.601563 98 C 220.699219 108.699219 224.199219 126.800781 208.300781 128.898438 Z M 226.300781 116.199219 L 225.800781 115.699219 C 227.800781 104.699219 226.5 92.300781 236.898438 84.800781 C 237.898438 84 238.601563 82.398438 240 82.398438 C 237.300781 87.5 238.898438 94.5 240.5 99.601563 C 240.601563 107.601563 231.898438 112.300781 226.300781 116.199219 Z M 265.199219 58.398438 C 262 61.800781 258.398438 65 254.398438 67.699219 C 250.800781 68 247.101563 67.300781 243.601563 66.5 L 242.601563 65.601563 C 242.398438 60.300781 241.199219 54.398438 241 49.5 C 250.101563 49.898438 257.898438 53.601563 265.199219 58.398438 Z M 241.199219 86.398438 C 240.476563 85.4375 242.148438 83.675781 242.601563 82.398438 C 243.273438 80.949219 245.199219 75.398438 248.601563 74.699219 C 252.699219 74.300781 255.898438 75.898438 259 77.800781 C 256.699219 84.800781 250.699219 90.199219 244.800781 95.101563 C 242.398438 92.898438 242.699219 89.199219 241.199219 86.398438 Z M 244.300781 104.398438 C 244.199219 98 251.601563 94.601563 255.800781 91 C 258.5 90.800781 261.101563 90.5 263.800781 90.300781 C 260.101563 95.800781 255.898438 101.101563 251 106.101563 Z M 258 106.398438 C 259.101563 100.199219 265.5 95.5 269.800781 91.199219 C 273.699219 91.398438 277.601563 91.601563 280.601563 93.898438 C 280.199219 96.5 277.300781 99.800781 274.800781 102 C 270.5 106.699219 263.699219 106 258 106.398438 Z M 265.898438 109 C 271.898438 109 278.699219 107.898438 284.898438 109 C 284.511719 110.101563 284.199219 111.398438 283.398438 112.398438 C 280 115 276.5 117.300781 272.398438 118.398438 C 269.800781 115.898438 265 113.398438 265.898438 109 Z M 296.699219 115.648438 C 295.238281 120.601563 286.300781 119 282.5 118.398438 C 287.300781 113.601563 291.5 106.523438 297.601563 104.023438 L 300 101.800781 C 299.5 106.300781 298.023438 111.398438 296.714844 115.675781 Z M 301.699219 129.601563 L 297.398438 123.199219 C 303.101563 121.5 308.101563 118.199219 313 114.5 C 318 118.101563 322.398438 123.101563 324 128.699219 C 321.398438 130.582031 317.578125 130.40625 314.886719 131.085938 L 314.511719 131.175781 C 310.414063 131.851563 304.601563 134.199219 301.699219 129.601563 Z M 318.5 145.699219 C 314.300781 143.199219 310 140.398438 306.5 136.601563 L 306.5 135.898438 C 314.398438 134.300781 322.800781 132.199219 331.398438 133.699219 C 334.699219 134.5 338.398438 136.5 340.101563 139.199219 C 338.101563 139.898438 334.601563 141.699219 331.699219 142.398438 C 328.199219 145.300781 323.199219 146.800781 318.5 145.699219 Z M 326.398438 150.300781 L 324.601563 148.925781 C 326.125 148 351.101563 135.898438 363.601563 144 L 364.273438 144.449219 C 363.773438 145.1875 363.199219 145.601563 362.601563 146 C 356.800781 150.699219 350 153.199219 343.199219 155.800781 C 336.199219 157.300781 331.800781 152.601563 326.398438 150.300781 Z M 362.199219 166.101563 C 356.398438 164.199219 350.101563 163.5 345.101563 159.601563 C 354 155.101563 362.800781 149.398438 372.699219 146.898438 C 378.5 146.601563 383.101563 149.101563 387.800781 151.199219 C 387.5 157.101563 380.699219 158.898438 376.800781 162.300781 C 372.699219 165.398438 367.300781 166.300781 362.199219 166.101563 Z M 395.800781 169.761719 L 395.800781 169.699219 C 389.898438 170.699219 383.398438 168.898438 377.300781 168.5 L 376.300781 167.101563 C 383.699219 164.699219 390.300781 159.300781 395.800781 153.199219 C 400 151 405 152.101563 409.398438 153.199219 L 409.898438 153.898438 C 407.898438 159.601563 403.199219 168.761719 395.800781 169.761719 Z M 416.851563 168.550781 L 403.398438 169.699219 C 410.601563 161.5 416.898438 146.300781 430.300781 150.300781 L 431 152.398438 C 428.398438 158 424.75 168.351563 416.851563 168.550781 Z M 440.398438 168 L 425.300781 170.199219 L 423.988281 170.125 C 433.511719 163.613281 432.199219 149.199219 443.800781 144.5 C 446.101563 144 450.199219 141.800781 450.199219 146.199219 C 450.601563 150.199219 449.800781 153.699219 449 157.199219 C 448.261719 159.675781 445.398438 166.601563 440.398438 168 Z M 460.601563 161.800781 C 457.898438 164.601563 455.398438 166.101563 452.199219 167.300781 C 450.601563 167 450.039063 165.261719 450 164 C 450.425781 162.789063 450.398438 161.398438 451.199219 160.398438 C 457 152.5 450.300781 135.101563 465.101563 135.398438 C 466 136.199219 466.199219 137.601563 466.800781 138.800781 C 467.898438 146.800781 466.800781 156.5 460.601563 161.800781 Z M 463.199219 132.300781 C 457.699219 133.699219 452 134.800781 447.800781 139.5 C 441.699219 140.601563 435.601563 142 430.601563 146 C 424.300781 145.300781 418.898438 146.800781 414 149.300781 L 412.800781 149.675781 C 409.539063 148.351563 411.574219 149.261719 410.199219 148.800781 C 404.300781 147.699219 398 147 391.699219 147.601563 C 383.699219 142.101563 372.699219 143.800781 363.398438 141.398438 C 358 138.398438 352.101563 136.398438 345.398438 136.601563 C 339.699219 131.800781 333 129.5 326.601563 126.300781 L 316.101563 110.398438 C 317.601563 106.398438 320.101563 102.800781 322.101563 98.898438 C 334.398438 100.300781 345.800781 99.601563 357.601563 97.699219 C 366.199219 95.5 375.101563 93.898438 384.199219 92.898438 C 382.398438 91.101563 379.5 91 377.5 89.101563 C 380.101563 86.300781 383.601563 84.199219 386.199219 81.199219 C 382.300781 81.300781 378.398438 82.699219 374.398438 83.101563 C 378.101563 80.101563 382.5 78.5 385.699219 74.898438 C 380.5 75 375.5 77 370.101563 77.300781 C 375.101563 74.398438 379.898438 71.199219 384.699219 67.699219 C 379.300781 68.398438 374.101563 71.101563 368.601563 72.300781 C 355.398438 75.5 341.601563 78 327.398438 75.898438 C 323.5 68.199219 320.898438 59.601563 315.601563 52.398438 C 322.699219 48.101563 329.898438 44.300781 336.5 38.699219 C 342.300781 36.898438 347.898438 34.699219 353 31.199219 C 359.699219 30 366.601563 29.300781 372.5 26.199219 C 381.699219 24.398438 392.300781 25.800781 401.5 24 C 412.398438 25.601563 423.5 26.800781 434.601563 27.601563 C 439.300781 30.101563 443.800781 32.699219 448.800781 34.398438 C 451.398438 41.699219 458.101563 51.601563 466.601563 52.101563 C 469.398438 60.601563 474.800781 68.101563 481.199219 75.199219 L 482.898438 92.398438 C 481.300781 100.398438 480.101563 108.5 479.300781 116.699219 C 473.300781 120.398438 465.5 125.5 463.199219 132.300781 Z M 344.398438 96.300781 C 340.699219 95.601563 335.214844 96.539063 334.238281 94.976563 C 334.339844 94.074219 334.851563 93.960938 335.800781 93.398438 C 339.601563 90.300781 342.300781 85 345.101563 80.699219 C 347.101563 80.101563 349.101563 79.800781 351.101563 79.5 C 350.898438 85.898438 348.300781 91.398438 344.398438 96.300781 Z M 355.898438 79.699219 L 357.101563 79.699219 C 358.199219 84 358.164063 89.261719 358.164063 93.761719 C 356.121094 95.507813 353.894531 93.941406 350.976563 95.675781 L 350.398438 95.925781 C 352.800781 91.226563 353.898438 84.601563 355.898438 79.699219 Z M 326.898438 94.398438 L 323.800781 93.601563 L 326.601563 79.699219 C 331 79.699219 335.300781 79.699219 339.601563 79.699219 C 338 86.300781 331.800781 90.199219 326.898438 94.398438 Z M 468.699219 161.101563 C 473.199219 153 472.300781 141.699219 471.398438 132.300781 C 471.101563 127.699219 475.5 124.199219 479 122 C 481.199219 120.898438 482.300781 121.699219 484.101563 123.199219 C 486.398438 126.601563 488 130.398438 488.898438 134.398438 C 492.148438 141.148438 479.101563 157.601563 468.699219 161.101563 Z M 495.46875 135.59375 L 494.601563 135.601563 C 493.898438 125.300781 483.398438 118.699219 485.300781 107.601563 C 485.601563 103.300781 486.398438 98.898438 487.398438 95.101563 C 488.199219 94.898438 488.699219 94.398438 489.601563 94.601563 L 496.601563 99.601563 C 503.199219 106.601563 501.800781 116.800781 502.300781 126.300781 C 502.339844 127.027344 498.074219 134.496094 495.46875 135.59375 Z M 505.199219 111.601563 C 503.398438 105.398438 501.300781 98.800781 497 93.398438 L 487.898438 87.386719 L 487.5625 87.148438 C 485.46875 85.441406 485.023438 82.550781 485.148438 80.5 L 485.035156 79.566406 C 484.980469 77.542969 485.023438 75.273438 485.601563 74.574219 C 487.398438 73.273438 488.425781 74.125 490.300781 74.898438 C 495.015625 76.847656 498.898438 78.101563 502.800781 81.199219 C 508.5 90.199219 508.300781 101.898438 505.199219 111.601563 "/>
</g>
</svg>
