<?xml version="1.0" encoding="UTF-8"?>
<svg xmlns="http://www.w3.org/2000/svg" xmlns:xlink="http://www.w3.org/1999/xlink" width="336pt" height="637pt" viewBox="0 0 336 637" version="1.1">
<g id="surface1">
<path style=" stroke:none;fill-rule:nonzero;fill:rgb(0%,0%,0%);fill-opacity:1;" d="M 334.800781 370.800781 C 314.800781 364.601563 297.199219 352.5 277.898438 344.699219 C 272.398438 342.800781 266.199219 342.601563 260.800781 340.398438 C 254.199219 334.601563 246.101563 332.800781 238.5 329.300781 C 233.699219 326 231.101563 320.601563 228.199219 315.898438 C 233.5 313.199219 239.101563 313.199219 244.800781 309.601563 C 260.5 302.601563 250 284.898438 251 272.699219 C 251 258.101563 247.699219 242.199219 252 228.5 C 257 224.199219 264 224.800781 268.300781 218.699219 C 273.398438 217.5 278.601563 215.699219 282 211.199219 C 278.398438 180.699219 270.199219 152.199219 258.398438 125.101563 C 257.398438 118.898438 254.300781 112.800781 250 107.800781 C 247.898438 103.699219 242.101563 99.601563 245.699219 94.601563 C 249.800781 89.800781 242.199219 87.398438 243.300781 82.601563 C 245 77.800781 248.699219 73.898438 249.800781 68.898438 C 250.398438 54.300781 241.199219 41.898438 229.398438 34.101563 C 215.101563 24.601563 199.898438 17.199219 184 11.601563 C 163.800781 6.601563 143.5 -0.5 121.398438 1 C 101.300781 0.5 86.5 19.699219 76.300781 34.800781 L 65.5 44 L 62.800781 56 C 57.101563 61.5 49.800781 65.101563 43.601563 70.601563 C 32.800781 79.5 28.601563 91.601563 29 105.398438 C 26.800781 107.398438 23.699219 108.300781 21.101563 109.699219 C 8.398438 118.898438 -1.5 132 0.898438 148.398438 C 4.199219 181.398438 3.101563 216.5 13.898438 246.300781 C 22.601563 245.699219 30.601563 243.398438 38.601563 241.199219 L 39.800781 241.050781 C 41.898438 245.351563 43.199219 249.101563 44.800781 253.699219 C 51.300781 273.898438 67.300781 290.398438 78.398438 308.398438 C 89.300781 319.199219 105.699219 321.898438 120.398438 318.300781 C 123.898438 324.898438 125.398438 332.300781 127.601563 339.398438 C 109.398438 352.101563 97.699219 370.898438 88.5 389.101563 C 84 398.398438 82.199219 408.898438 76.300781 417.601563 C 71.601563 432.699219 63.300781 446.199219 60.699219 462 C 58.398438 477.601563 67.800781 489.5 70.800781 503.601563 C 64.300781 539.800781 65.5 579.300781 57.300781 614.898438 C 102.101563 630.101563 152.199219 643.101563 202.800781 633.398438 C 242.199219 623.699219 278.101563 586.800781 293.199219 549.601563 C 299.699219 529.300781 297.898438 504.699219 297.601563 482.398438 C 297.300781 465.199219 299.101563 446.800781 297.800781 429.398438 C 305.300781 411.199219 321.398438 396.5 331.601563 379.5 C 333.199219 376.800781 334.898438 373.898438 334.800781 370.800781 Z M 262.300781 217.5 C 256.5 220.199219 248.199219 220.601563 242.101563 217.699219 C 247.898438 214.398438 255.898438 216.800781 262.300781 217.5 Z M 237.101563 87.898438 C 238.5 88.300781 240.199219 88.898438 240.898438 90 C 241.5 92.398438 240 94.5 239 96.5 C 236.898438 97.300781 235.699219 94.601563 234 93.898438 L 233.636719 93.535156 C 232.9375 91.238281 235.601563 89.800781 237.101563 87.898438 Z M 190.5 86.898438 C 197.699219 89 205.199219 93.398438 209.699219 100.398438 L 200.101563 109.5 L 198.199219 109.199219 C 198.601563 107.199219 200 104.898438 200.800781 102.800781 C 197.398438 100.898438 193.300781 100.5 189.601563 99.398438 C 187.398438 100.898438 187.398438 105.199219 183.800781 104.199219 C 185.300781 98.101563 187.199219 92.199219 190.5 86.898438 Z M 211.601563 224.199219 C 210.800781 226.800781 208.699219 229.601563 206.398438 230.898438 C 200.898438 228.699219 198.300781 222 198.398438 216.300781 C 203.199219 218.199219 207.101563 221.800781 211.601563 224.199219 Z M 190.5 102.800781 C 192.800781 103.601563 195.699219 103.800781 197.5 105.398438 L 197.5 106.101563 C 194 111.898438 190.199219 117.898438 185.5 123.398438 C 184.699219 123.101563 183.898438 123 183.300781 122.199219 C 184.199219 114.898438 186.898438 109 190.5 102.800781 Z M 188.101563 124.601563 C 189.398438 123.199219 190.699219 121 192.699219 120.800781 C 191.199219 125.601563 190.800781 132.398438 189.300781 137.601563 C 183.898438 137.601563 176.601563 135.601563 171.601563 131.601563 C 174.398438 125.699219 176.800781 119.199219 182.601563 115 C 181.601563 117.898438 179.800781 120.800781 179.5 123.601563 C 182.199219 124.300781 186 130.199219 188.101563 124.601563 Z M 71 49.199219 L 71.125 46.523438 C 70.925781 42.910156 76 42.699219 78.699219 42 C 96 37.898438 114 41.398438 131 43.699219 C 147.101563 46.800781 162.5 51.5 177.601563 57.199219 C 179 57.699219 179.601563 59 180.898438 59.800781 C 176.398438 61.101563 171.699219 62 167.199219 63.601563 C 138.800781 54.101563 105.5 46.398438 72.699219 52.101563 L 71.949219 52.410156 C 70.449219 52.011719 70.699219 50.398438 71 49.199219 Z M 126.398438 316.601563 C 152.101563 308.101563 174.800781 283.601563 189.601563 260.398438 C 191.300781 256.601563 195.5 251.800781 191.5 247.699219 C 190.699219 249.5 190 251.898438 189.300781 254 C 181.800781 271.101563 164.601563 286.800781 149.199219 298.101563 C 144.101563 302.898438 138.699219 306.898438 132.898438 310.101563 C 134.699219 306.898438 138 303.300781 138.699219 299.101563 C 129.101563 309.898438 116 317.601563 101.199219 314.199219 C 94.199219 313.699219 87.601563 309.5 81.800781 304.800781 C 79.601563 302.199219 78.699219 299 76.800781 296.199219 C 72.101563 292.300781 67.050781 285.75 63.25 281.25 L 62.101563 279.601563 C 56.625 271.75 47.300781 249.398438 41 233.800781 C 40.175781 231.074219 37 221.5 37.398438 214.398438 C 37.199219 206.699219 42.898438 201.398438 45.601563 194.898438 C 52 202 61.199219 205 70.300781 206.898438 C 62.898438 207.199219 54.800781 208.601563 47.699219 206.699219 C 55.300781 216 68.300781 207 78.398438 209.800781 C 79.601563 207.898438 79.199219 205.300781 79.601563 203.101563 C 75.398438 192.800781 64.300781 188.699219 55.199219 187 L 55.398438 184.601563 C 62.898438 185.300781 70.300781 187.898438 75.800781 194.199219 C 76.898438 194 77.601563 194.699219 78.699219 194.398438 C 77.101563 191.101563 72.800781 187.898438 69.601563 185.300781 C 65.398438 183.199219 61.101563 181.101563 56.398438 180.300781 C 53.101563 181.699219 51.101563 187.601563 47.199219 186 C 45.101563 181.199219 47.199219 175.800781 47.199219 170.699219 C 56.800781 170.101563 65.300781 176.300781 73.398438 180.300781 C 85.398438 188.800781 83.699219 203.699219 81.300781 216.5 C 78.601563 224.800781 77 233.699219 68.800781 239.601563 C 66.101563 243.199219 67.699219 248.601563 69.300781 252.300781 C 71.199219 254.5 73.398438 257 76 257.800781 L 76.300781 252 C 80.300781 252.398438 83.300781 256.800781 87.800781 256.800781 L 89 257.601563 C 89.601563 261.101563 89.199219 264.199219 86.601563 266.699219 C 83.601563 267.300781 80.199219 264.398438 77.5 266.398438 C 75.398438 267.898438 73.300781 269.300781 71.199219 270.800781 L 74.398438 274.398438 C 74.300781 280 75.5 286 81.101563 288.5 C 87.601563 290.5 94.101563 288.800781 101 289 C 107.699219 287.5 112.898438 282.398438 119.5 280.601563 C 111.398438 277.398438 103.800781 272 96.398438 266.699219 C 94.398438 266.398438 93.101563 266.300781 91.398438 266 C 92.5 262.699219 94.300781 259.199219 93.601563 254.898438 C 95.101563 255.101563 96.601563 255.601563 97.398438 256.800781 L 97.398438 258.300781 C 103.101563 258.300781 109.398438 257.101563 112.5 251.800781 C 114.101563 245.601563 106.800781 241.699219 102.398438 237.898438 L 100.300781 237.898438 C 103.398438 242 107.800781 245.5 106.800781 251.601563 C 106.101563 252.101563 105.199219 253.101563 104.800781 253.699219 C 103.5 253.101563 104.699219 249.5 102 249.199219 C 98.898438 248.5 96.199219 246.398438 92.800781 247.199219 C 90 249.601563 87.199219 251.898438 83.5 249.898438 C 78.800781 247 76.898438 241.898438 77.699219 236.699219 C 83.101563 220.699219 92 201.5 83 184.398438 C 82.601563 182.101563 83.601563 180.398438 84 178.398438 C 75.699219 173.898438 68.398438 167.101563 58.5 166.398438 L 49.199219 165.898438 C 53.898438 154.398438 59.875 144.398438 66.074219 133.800781 L 66.699219 132.675781 C 67.3125 130.738281 68.664063 132.023438 69.800781 132.300781 C 85.808594 136.171875 103.199219 140.199219 120.699219 136.800781 C 129.601563 135.398438 138.398438 133.601563 146.398438 129.898438 C 151 133.101563 152 137.574219 153.601563 141.601563 C 153.199219 148.101563 157.148438 157.523438 157.898438 158.699219 C 159.898438 160.898438 161.648438 163.726563 162.898438 165.898438 C 163.601563 167.199219 167.851563 170.550781 167.273438 174.699219 L 167.199219 175.375 C 166.523438 180.601563 170 181.601563 170.800781 185.101563 C 165.101563 182.898438 160.101563 178.800781 154.300781 176.699219 C 139.898438 175.199219 127.898438 180 114.199219 181.5 C 107.898438 186.699219 102.101563 192.898438 99.800781 200.199219 L 100.300781 200.898438 C 104.398438 196.5 107.050781 190.273438 112.75 187.074219 L 113 186.800781 L 117.101563 189.199219 C 127.300781 184.300781 138.800781 182.398438 151.199219 182.699219 C 159.300781 184.699219 166.898438 187.800781 173.699219 193 L 157.398438 195.898438 C 152 193.601563 147.199219 190 141.601563 188.199219 L 141.800781 190.101563 L 150.199219 196.601563 C 143.199219 193.601563 133.300781 191 126 195.199219 C 119.800781 197.398438 117.898438 203.898438 115.898438 209.101563 C 121.5 214.199219 127.398438 218.398438 134.398438 220.398438 C 135.5 220 136.699219 220.101563 137.699219 219.398438 C 133.601563 217.199219 129.101563 215.898438 125.5 212.699219 C 130.898438 213.101563 136.199219 213.898438 141.800781 212.898438 C 154.898438 211.601563 165.800781 204.800781 177.601563 200.199219 L 183.800781 202.398438 C 184 220.101563 181.199219 237.300781 172.300781 251.601563 C 177.398438 249.699219 182.601563 245 186.199219 240 L 195.300781 224 L 195.800781 224 C 197.101563 227.898438 199.5 231.699219 203 234.5 L 203.699219 237.601563 C 202.800781 253.800781 203.398438 270.5 210 284.199219 L 215 310.101563 C 223.601563 320.300781 233.300781 330.101563 237.101563 342.300781 C 201.398438 345.300781 167 351.601563 137.199219 368.898438 C 132.699219 351.601563 131.300781 333.800781 126.398438 316.601563 Z M 58.800781 200.699219 C 53.898438 200.199219 51.199219 196.738281 47.761719 192.5625 L 47.5 192.300781 C 46.699219 190.5 48.800781 190.601563 49.601563 190.101563 C 52.898438 189.398438 55.699219 190.398438 58.800781 190.601563 C 58.199219 193.398438 57.398438 197.699219 58.800781 200.699219 Z M 76.800781 245.300781 C 74.800781 245.699219 72.898438 249.601563 71.199219 247.199219 C 71.398438 244.5 71.699219 241.800781 72.898438 239.601563 C 74.101563 241.699219 76.5 243 76.800781 245.300781 Z M 159.101563 203.800781 C 155.5 204.398438 152 205.398438 148.300781 205.699219 L 148.800781 199 C 152.601563 199.601563 155.898438 201.699219 159.101563 203.800781 Z M 133.898438 207.898438 C 129.800781 209.699219 125.101563 208.199219 120.898438 207.601563 C 120.800781 203.800781 123.199219 199.800781 126.699219 197.800781 C 127.699219 198.101563 128.398438 198.398438 129.300781 197.601563 C 129.898438 201.398438 131.699219 204.699219 133.898438 207.898438 Z M 103.898438 380 C 108.398438 368.601563 117.199219 358.898438 126 349.5 L 127.398438 348.5 C 127.199219 351.5 129.898438 355.101563 127.898438 357.898438 C 122.898438 364.601563 119.199219 371.898438 116.398438 379.5 C 111.199219 384.199219 107.300781 388.601563 101.199219 393.199219 C 100.300781 388.800781 102.601563 384.199219 103.898438 380 Z M 75.300781 529.199219 C 74 522.800781 74.800781 515.199219 74.601563 508.601563 C 81.398438 514.199219 88.398438 519.398438 96 523.199219 L 96 521.800781 C 90 510.898438 83.398438 500.300781 80.398438 488.199219 C 79.601563 476.898438 78.601563 465.699219 73.898438 456 L 72.898438 443.101563 C 76.398438 430.601563 81.800781 419 87.800781 407.601563 C 85.800781 418.398438 80.699219 427.898438 79.398438 439 C 79.199219 448.300781 85.199219 455.101563 85.398438 464.199219 C 84.398438 478.601563 89.898438 491.5 96.398438 503.300781 C 101.199219 515.800781 105.898438 528.199219 112.800781 539.800781 C 110.398438 541 108.550781 541.648438 104.800781 541.199219 C 94.898438 539.199219 84.601563 534.601563 75.300781 529.199219 Z M 99.601563 475.699219 C 100.398438 491.199219 110.5 502.800781 114.898438 516.800781 C 120.101563 507.300781 119.898438 494.5 119.699219 483.199219 C 117.601563 471.601563 122.398438 460.601563 129.101563 451.5 C 125.800781 461.601563 123.898438 472.300781 122.398438 483.199219 C 123.101563 490.101563 125 497.300781 123.601563 504.5 C 122 511.699219 118.601563 518.199219 118 525.898438 C 118.300781 526.800781 119 527.398438 118.800781 528.5 L 117.300781 529.699219 C 115.699219 526.199219 114.5 522.199219 113 518.398438 C 108.398438 510.800781 106 502.300781 100.300781 495.199219 C 97.300781 487.199219 94.898438 478.398438 95.199219 468.800781 C 96.601563 460.898438 93.898438 454 93.800781 446.398438 C 99.800781 440 108 438.101563 115.398438 434.699219 C 150.101563 422.800781 186.898438 412.5 226.5 416.199219 L 226.800781 416.898438 C 187.699219 418.199219 151 425.300781 116.800781 438.300781 C 110.398438 441.5 103.800781 444.101563 97.898438 448.601563 C 98.398438 457.601563 100.800781 466.5 99.601563 475.699219 Z M 280.800781 561.398438 C 269.800781 581.199219 253.601563 601.199219 233.699219 614.398438 C 213.601563 630.601563 186.898438 632.101563 160.5 631.699219 C 141.601563 630.199219 123.699219 626.199219 106.300781 620.898438 L 108.398438 616.398438 C 116.601563 600.300781 121.699219 582.699219 124.5 564.800781 C 125.734375 558.121094 127.855469 553.570313 134.601563 547.199219 C 148.300781 538.398438 163.398438 533 176.101563 521.800781 C 177.199219 520.601563 178 519.199219 179 518 C 173.101563 520.5 167.101563 524.5 160.300781 525.601563 C 150.699219 526 143.5 532 134.800781 534.800781 L 130.300781 534 L 133.898438 523.699219 C 144.898438 510.800781 161.5 502.398438 168.699219 487.5 C 163.101563 491.101563 157.601563 495 151.601563 497.601563 L 136.5 497.800781 L 135.800781 497.101563 C 138.300781 488.300781 141 478.601563 135.800781 470.199219 C 148.800781 452.898438 166.398438 441.800781 184.5 434.398438 C 211.199219 426.601563 240.601563 423.398438 270.699219 426 C 269 429.5 265.199219 432.101563 263.199219 435.398438 C 256.199219 445.800781 247.550781 455.875 244.550781 467.976563 L 245.699219 467.101563 C 254.800781 459.898438 262.199219 448.699219 272.101563 441.199219 C 275.101563 448.800781 270.101563 454.898438 268 461.300781 C 257.101563 479.699219 245.699219 497.800781 243.300781 519.601563 C 248 516.5 251.699219 511.101563 254.398438 506.199219 C 261.300781 492.699219 267 478.601563 275.199219 465.601563 C 279.199219 474.101563 280.300781 484.199219 281.699219 494 C 285.101563 485.601563 286.601563 476.5 289.601563 468 C 293.800781 473.699219 291.601563 483.300781 292.5 489.601563 C 293.5 514.398438 292.5 540.398438 280.800781 561.398438 Z M 293.5 410.898438 L 276.898438 410.398438 L 214.300781 407.601563 C 168.398438 406 129.601563 423 91.199219 440.199219 C 89.398438 429 92.699219 418 96.699219 408.300781 C 113.5 388.898438 136.300781 380.898438 157.199219 369.898438 C 187.101563 356.300781 221.199219 350.101563 256.800781 353.101563 C 277.601563 357.398438 296.898438 365.800781 316.300781 373.699219 C 310.5 386.898438 303.601563 399.601563 293.5 410.898438 "/>
</g>
</svg>
