<?xml version="1.0" encoding="UTF-8"?>
<svg xmlns="http://www.w3.org/2000/svg" xmlns:xlink="http://www.w3.org/1999/xlink" width="453pt" height="553pt" viewBox="0 0 453 553" version="1.1">
<g id="surface1">
<path style=" stroke:none;fill-rule:nonzero;fill:rgb(0%,0%,0%);fill-opacity:1;" d="M 451.1875 397.6875 C 458.3125 370.4375 443.3125 346.3125 425.1875 327.9375 C 422.8125 325.5625 419.9375 322.9375 420.4375 319.5625 L 428.9375 319.4375 C 429.8125 318.6875 429.6875 316.6875 430.6875 315.4375 C 431.0625 307.6875 432.1875 299.8125 429.5625 292.3125 L 428.9375 291.5625 L 420.9375 291.5625 L 420.0625 246.3125 C 420.1875 222.0625 418.8125 198.4375 419.5625 173.8125 C 427.8125 172.9375 436.472656 175.484375 444.097656 172.984375 C 445.097656 171.859375 447.1875 169.9375 447.5625 168.5625 C 447.3125 144.5625 447.4375 118.5625 447.4375 94.8125 C 445.9375 92.8125 443.96875 92.035156 442.09375 90.660156 C 434.34375 90.785156 425.4375 91.0625 417.8125 90.8125 L 417.1875 86.9375 L 416.5625 0.4375 C 415.0625 0.6875 31.09375 0.660156 31.09375 0.660156 C 31.09375 0.660156 29.6875 62.6875 30.3125 92.1875 L 9.8125 92.6875 C 7.6875 92.5625 5.5625 93.3125 4.4375 95.0625 C 5.0625 119.1875 4.9375 145.6875 6.1875 169.8125 C 6.1875 169.8125 8.4375 173.5625 9.9375 174.1875 C 16.3125 175.1875 23.9375 174.3125 30.6875 174.9375 C 31.3125 193.6875 31.4375 213.3125 31.4375 233.1875 C 28.0625 239.9375 27.0625 247.3125 26.3125 254.5625 C 26.0625 266.5625 25.0625 280.4375 25.4375 292.4375 C 23.3125 294.0625 21.0625 293.0625 18.3125 293.3125 L 17.4375 294.4375 C 17.0625 302.1875 17.0625 310.6875 18.3125 318.3125 C 17.9375 321.5625 21.3125 321.1875 23.6875 321.1875 C 25.3125 322.4375 23.1875 324.0625 22.9375 325.5625 C 12.4375 337.8125 5.5625 352.1875 2.0625 367.6875 C -1.8125 387.0625 1.3125 408.0625 17.3125 420.6875 C 15.4375 422.0625 15.5625 424.5625 15.3125 426.8125 C 15.707031 430.769531 16.285156 441.875 18.820313 451.933594 C 21.894531 464.125 26.960938 475.433594 26.6875 479.0625 L 29.058594 535.382813 C 29.058594 535.382813 29.058594 543.382813 32.988281 545.867188 C 43.40625 551.082031 102.601563 554.421875 112.3125 543.3125 C 114.535156 539.183594 112.5625 518.5625 112.5625 518.5625 C 116.1875 520.3125 119.4375 523.3125 123.8125 523.1875 C 149.5625 525.5625 174.8125 525.8125 201.4375 527.1875 L 252.4375 527.4375 C 274.5625 527.4375 296.9375 526.5625 319.0625 525.6875 C 323.5625 524.8125 328.3125 524.5625 332.9375 524.0625 C 337.3125 522.9375 340.9375 519.5625 344.8125 517.0625 L 345.9375 515.3125 C 346.0625 523.0625 346.8125 530.9375 346.5625 538.6875 C 346.476563 541.273438 347.15625 547.242188 350.8125 548.5625 C 379.15625 554.335938 399.222656 554.5625 423.898438 548.597656 C 429.1875 545.886719 431.976563 539.035156 432.351563 537.660156 C 432.101563 514.035156 431.3125 491.3125 431.0625 465.8125 C 432.6875 459.5625 437.265625 453.765625 438.390625 447.265625 C 439.589844 444.050781 440.410156 430.6875 440.1875 425.957031 C 439.8125 422.089844 437.9375 419.9375 438.3125 416.9375 C 444.6875 411.3125 447.4375 404.4375 451.1875 397.6875 Z M 436.5625 100.1875 C 437.5625 121.1875 437.6875 142.4375 437.9375 163.4375 C 433.6875 164.6875 427.4375 163.9375 423.1875 164.0625 C 426.8125 161.6875 427.5625 157.6875 429.8125 154.4375 C 429.9375 139.6875 429.4375 124.8125 429.3125 109.5625 C 428.0625 105.9375 425.9375 102.6875 422.4375 100.3125 C 427.0625 99.9375 431.5625 100.1875 436.5625 100.1875 Z M 15.9375 164.5625 L 14.4375 163.4375 C 14.4375 163.4375 12.8125 104.4375 12.4375 100.8125 C 16.3125 99.8125 22.1875 99.8125 26.0625 100.1875 C 22.1875 102.4375 19.9375 106.9375 19.0625 111.1875 C 19.6875 125.8125 20.5625 140.4375 20.8125 154.4375 C 21.414063 157.921875 25.0625 162.5625 26.9375 164.5625 Z M 419.738281 297.351563 C 420.84375 297.351563 421.738281 298.246094 421.738281 299.351563 L 421.738281 309.777344 C 421.738281 310.882813 420.84375 311.777344 419.738281 311.777344 L 408.785156 311.777344 C 407.683594 311.777344 406.785156 310.882813 406.785156 309.777344 L 406.785156 299.351563 C 406.785156 298.246094 407.683594 297.351563 408.785156 297.351563 Z M 335.621094 247.9375 C 338.382813 245.136719 335.09375 271.160156 367.09375 304.660156 C 379.726563 317.886719 409.511719 322.820313 408.371094 326.9375 L 402.09375 327.160156 C 395.34375 324.660156 375.441406 317.6875 362.757813 305.660156 C 344.710938 288.542969 333.996094 260.8125 335.621094 247.9375 Z M 381.3125 408.632813 C 383.523438 408.632813 385.3125 410.421875 385.3125 412.632813 L 385.3125 418.785156 C 385.3125 420.996094 383.523438 422.785156 381.3125 422.785156 L 361.648438 422.785156 C 359.4375 422.785156 357.648438 420.996094 357.648438 418.785156 L 357.648438 412.632813 C 357.648438 410.421875 359.4375 408.632813 361.648438 408.632813 Z M 77.425781 305.660156 C 64.742188 317.6875 44.84375 324.660156 38.09375 327.160156 L 31.8125 326.9375 C 30.671875 322.820313 60.457031 317.886719 73.09375 304.660156 C 105.09375 271.160156 101.800781 245.136719 104.5625 247.9375 C 106.1875 260.8125 95.476563 288.542969 77.425781 305.660156 Z M 89.5625 410.921875 L 89.5625 417.078125 C 89.5625 419.289063 87.773438 421.078125 85.5625 421.078125 L 65.894531 421.078125 C 63.6875 421.078125 61.894531 419.289063 61.894531 417.078125 L 61.894531 410.921875 C 61.894531 408.714844 63.6875 406.921875 65.894531 406.921875 L 85.5625 406.921875 C 87.773438 406.921875 89.5625 408.714844 89.5625 410.921875 Z M 47.6875 151.6875 L 46.09375 107.660156 C 52.96875 133.910156 62.5625 162.5625 67.9375 189.4375 C 58.5625 182.6875 49.4375 174.5625 40.6875 166.5625 C 45.59375 164.160156 48.09375 161.660156 47.6875 151.6875 Z M 67.3125 201.1875 C 67.4375 204.9375 66.3125 208.8125 65.8125 212.5625 C 55.8125 212.9375 47.0625 216.5625 39.3125 221.6875 L 38.9375 179.0625 L 39.3125 177.9375 C 49.0625 185.8125 57.6875 193.1875 67.3125 201.1875 Z M 78.1875 194.3125 C 84.1875 157.3125 92.5625 120.5625 103.3125 85.1875 L 105.0625 83.8125 C 158.3125 70.5625 217.5625 70.1875 273.8125 73.1875 L 329.5625 76.6875 C 329.5625 76.6875 342.21875 78.027344 342.09375 79.152344 C 355.09375 116.152344 365.8125 156.5625 368.4375 196.6875 C 368.671875 201.71875 367.441406 208.601563 362.0625 211.6875 C 331.539063 221.234375 233.15625 224.636719 221.582031 224.128906 C 189.457031 224.003906 98.515625 217.660156 92.3125 215.9375 C 87.8125 214.0625 83.8125 211.4375 79.6875 208.8125 C 77.179688 203.9375 78.4375 196.6875 78.1875 194.3125 Z M 101.5625 321.3125 C 101.5625 321.3125 120.0625 277.5625 129.0625 256.3125 C 129.6875 255.5625 132.4375 255.4375 132.4375 255.4375 C 155.8125 254.9375 206.46875 254.238281 206.71875 254.238281 C 206.71875 254.238281 299.5625 252.5625 315.4375 254.0625 C 326.9375 276.4375 337.6875 299.4375 348.5625 321.8125 C 348.84375 323.160156 348.59375 324.910156 347.9375 326.4375 C 336.9375 352.4375 325.1875 378.3125 314.1875 404.3125 L 312.8125 404.8125 L 201.6875 405.1875 L 138.1875 405.1875 C 126.5625 378.5625 113.5625 352.4375 101.9375 325.8125 C 101.09375 324.910156 100.84375 322.660156 101.5625 321.3125 Z M 412.0625 239.3125 C 411.8125 256.1875 413.5625 273.6875 412.3125 291.1875 C 411.1875 291.4375 410.4375 291.4375 409.1875 291.1875 C 408.8125 286.5625 406.6875 282.1875 406.5625 277.3125 C 405.9375 275.3125 405.3125 272.8125 404.5625 270.6875 C 403.4375 263.8125 400.8125 257.0625 398.6875 250.3125 C 394.1875 233.3125 386.1875 217.8125 377.9375 202.3125 C 388.3125 192.0625 399.5625 184.3125 410.5625 175.0625 C 412.0625 197.8125 411.3125 216.1875 412.0625 239.3125 Z M 381.6875 187.6875 C 381.6875 184.1875 383.6875 181.0625 384.5625 177.5625 C 390.6875 159.1875 395.9375 140.3125 402.4375 121.9375 C 402.9375 132.9375 403.1875 142.9375 403.0625 153.5625 C 403.433594 158.664063 407.089844 162.65625 410.101563 163.988281 C 410.101563 166.664063 381.6875 187.6875 381.6875 187.6875 Z M 40.09375 12.660156 L 410.09375 12.660156 C 410.09375 12.660156 409.9375 90.3125 409.6875 90.8125 C 406.4375 90.4375 402.4375 91.4375 401.3125 94.8125 C 393.3125 122.3125 383.9375 149.1875 375.4375 176.4375 C 370.8125 140.1875 361.0625 105.4375 349.6875 71.6875 C 348.1875 70.6875 346.0625 70.6875 344.4375 70.8125 L 323.699219 68.9375 C 325.980469 67.085938 327.4375 64.257813 327.4375 61.09375 C 327.4375 55.507813 322.914063 50.980469 317.328125 50.980469 C 311.746094 50.980469 307.21875 55.507813 307.21875 61.09375 C 307.21875 63.582031 308.121094 65.859375 309.617188 67.621094 C 293.515625 67.167969 277.90625 65.386719 261.191406 64.722656 C 263.339844 62.871094 264.703125 60.132813 264.703125 57.074219 C 264.703125 51.492188 260.179688 46.964844 254.59375 46.964844 C 249.011719 46.964844 244.484375 51.492188 244.484375 57.074219 C 244.484375 59.855469 245.605469 62.367188 247.421875 64.195313 C 240.832031 64.269531 234.863281 63.925781 228.5625 63.6875 C 228.667969 63.613281 228.6875 63.546875 228.644531 63.488281 C 231.4375 61.691406 233.296875 58.558594 233.296875 54.988281 C 233.296875 49.40625 228.769531 44.878906 223.183594 44.878906 C 217.601563 44.878906 213.074219 49.40625 213.074219 54.988281 C 213.074219 58.464844 214.828125 61.527344 217.5 63.347656 C 210.890625 63.613281 202.742188 64.078125 197.125 64.285156 C 199.148438 62.4375 200.425781 59.785156 200.425781 56.828125 C 200.425781 51.242188 195.898438 46.71875 190.3125 46.71875 C 184.730469 46.71875 180.203125 51.242188 180.203125 56.828125 C 180.203125 59.796875 181.492188 62.453125 183.527344 64.304688 C 168.054688 65.210938 153.148438 66.914063 137.6875 69.1875 C 136.816406 69.222656 135.339844 69.398438 133.472656 69.664063 C 134.6875 67.996094 135.410156 65.949219 135.410156 63.730469 C 135.410156 58.144531 130.886719 53.617188 125.300781 53.617188 C 119.71875 53.617188 115.191406 58.144531 115.191406 63.730469 C 115.191406 67.183594 116.925781 70.226563 119.570313 72.050781 C 108.222656 74.195313 95.898438 76.882813 95.3125 77.6875 C 91.3125 97.6875 84.9375 117.8125 81.1875 137.6875 C 79.9375 139.6875 80.6875 142.6875 79.1875 144.6875 C 77.3125 155.5625 75.1875 166.3125 72.8125 176.9375 C 66.0625 149.9375 58.1875 123.1875 51.4375 96.5625 C 50.4375 94.3125 48.4375 93.0625 46.4375 91.6875 L 38.4375 91.6875 Z M 24.398438 301.230469 C 24.398438 300.128906 25.292969 299.230469 26.398438 299.230469 L 37.351563 299.230469 C 38.453125 299.230469 39.351563 300.128906 39.351563 301.230469 L 39.351563 311.660156 C 39.351563 312.765625 38.453125 313.660156 37.351563 313.660156 L 26.398438 313.660156 C 25.292969 313.660156 24.398438 312.765625 24.398438 311.660156 Z M 17.167969 369.660156 C 17.167969 351.347656 32.007813 336.507813 50.320313 336.507813 C 68.628906 336.507813 83.472656 351.347656 83.472656 369.660156 C 83.472656 387.96875 68.628906 402.8125 50.320313 402.8125 C 32.007813 402.8125 17.167969 387.96875 17.167969 369.660156 Z M 104.378906 523.382813 L 71.105469 535.449219 L 39.953125 522.007813 C 39.742188 520.003906 39.96875 518.808594 40.632813 518.429688 L 70.851563 531.382813 L 103.125 520.210938 C 104.667969 520.582031 104.734375 522.316406 104.378906 523.382813 Z M 104.378906 504.003906 L 71.109375 516.070313 L 39.957031 502.628906 C 39.746094 500.625 39.972656 499.433594 40.636719 499.054688 L 70.855469 512.003906 L 103.128906 500.835938 C 104.671875 501.207031 104.734375 502.941406 104.378906 504.003906 Z M 132.757813 506.707031 L 122.007813 507.136719 C 120.902344 507.179688 119.546875 506.320313 118.980469 505.214844 L 117.78125 502.882813 C 117.214844 501.78125 117.648438 500.847656 118.753906 500.804688 L 129.503906 500.375 C 130.609375 500.328125 131.964844 501.191406 132.53125 502.292969 L 133.730469 504.625 C 134.296875 505.730469 133.863281 506.660156 132.757813 506.707031 Z M 41.5625 475.3125 C 32.8125 470.0625 29.3125 459.8125 25.4375 451.0625 L 24.0625 444.0625 C 26.4375 444.1875 28.1875 445.4375 30.3125 446.1875 C 45.9375 446.6875 83.9375 447.5625 83.9375 447.5625 L 96.0625 447.5625 L 152.3125 447.8125 C 163.0625 447.9375 178.1875 447.6875 190.1875 447.0625 C 191.3125 448.3125 193.4375 475.8125 195.0625 475.8125 C 205.3125 475.6875 217.0625 474.9375 227.4375 475.5625 C 215.6875 479.4375 202.3125 479.9375 189.8125 481.0625 C 139.9375 486.0625 90.9375 483.9375 41.5625 475.3125 Z M 201.0625 447.8125 C 206.5625 446.8125 251.9375 447.0625 251.9375 447.0625 L 252.8125 467.1875 L 201.4375 467.4375 C 200.8125 462.6875 200.3125 449.3125 201.0625 447.8125 Z M 228.5625 486.3125 C 228.9375 486.8125 230.3125 486.3125 231.0625 486.8125 C 242.5625 491.5625 255.6875 492.4375 268.5625 494.0625 C 246.4375 495.1875 190.757813 494.660156 190.757813 494.660156 C 201.09375 492.660156 218.9375 489.8125 228.5625 486.3125 Z M 302.6875 510.4375 C 276.3125 511.5625 249.9375 512.8125 224.4375 511.9375 L 160.6875 509.5625 C 160.4375 508.1875 160.0625 507.0625 160.1875 505.5625 L 160.8125 505.3125 C 179.9375 506.1875 197.3125 507.3125 216.4375 507.8125 L 275.5625 507.5625 C 284.0625 507.3125 294.4375 506.4375 303.1875 505.8125 C 301.9375 507.1875 303.5625 508.9375 302.6875 510.4375 Z M 341.730469 504.550781 L 340.53125 506.882813 C 339.964844 507.988281 338.609375 508.847656 337.503906 508.804688 L 326.753906 508.375 C 325.648438 508.328125 325.214844 507.398438 325.78125 506.292969 L 326.980469 503.960938 C 327.546875 502.855469 328.902344 501.996094 330.007813 502.042969 L 340.757813 502.472656 C 341.863281 502.515625 342.296875 503.445313 341.730469 504.550781 Z M 357.238281 499.171875 L 389.511719 510.339844 L 419.730469 497.390625 C 420.394531 497.769531 420.621094 498.960938 420.410156 500.96875 L 389.257813 514.40625 L 355.984375 502.339844 C 355.632813 501.277344 355.695313 499.542969 357.238281 499.171875 Z M 420.636719 523.609375 L 389.484375 537.050781 L 356.210938 524.984375 C 355.855469 523.921875 355.921875 522.1875 357.464844 521.816406 L 389.738281 532.984375 L 419.957031 520.035156 C 420.621094 520.414063 420.847656 521.605469 420.636719 523.609375 Z M 417.1875 473.1875 C 412.3125 474.8125 406.6875 475.1875 401.5625 476.1875 C 350.9375 485.6875 295.4375 485.8125 244.0625 478.6875 C 239.5625 477.5625 235.0625 476.800781 230.5625 475.675781 C 240.6875 475.550781 261.6875 471.5625 261.6875 471.5625 C 261.6875 471.5625 261.4375 455.4375 261.9375 447.3125 L 261.914063 446.722656 L 262.5625 446.6875 C 279.3125 446.9375 297.8125 446.1875 313.9375 446.4375 L 365.1875 445.8125 C 365.1875 446.0625 424.4375 445.3125 424.4375 445.3125 C 425.3125 444.9375 426.6875 444.6875 427.5625 445.0625 C 427.0625 455.6875 423.8125 465.4375 417.1875 473.1875 Z M 429.9375 434.3125 L 430.1875 434.5625 C 429.4375 436.3125 427.4375 437.1875 426.0625 438.0625 L 220.074219 440.316406 L 38.6875 439.8125 C 33.0625 439.5625 27.3125 439.1875 23.4375 434.9375 C 22.3125 431.8125 21.0625 428.1875 22.0625 424.5625 C 27.6875 427.3125 33.5625 429.4375 39.3125 431.6875 C 51.9375 431.8125 217.3125 432.9375 217.3125 432.9375 L 218.1875 432.9375 C 235.6875 432.5625 411.6875 431.1875 411.6875 431.1875 C 419.5625 432.1875 426.6875 428.8125 432.8125 424.4375 C 432.9375 427.3125 432.0625 431.8125 429.9375 434.3125 Z M 404.589844 407.707031 C 386.28125 407.707031 371.4375 392.863281 371.4375 374.554688 C 371.4375 356.242188 386.28125 341.402344 404.589844 341.402344 C 422.898438 341.402344 437.742188 356.242188 437.742188 374.554688 C 437.742188 392.863281 422.898438 407.707031 404.589844 407.707031 "/>
<path style=" stroke:none;fill-rule:nonzero;fill:rgb(0%,0%,0%);fill-opacity:1;" d="M 87.003906 208.292969 C 109.253906 212.542969 176.371094 214.925781 217.28125 216.292969 C 267.8125 216.292969 336.46875 212.3125 353.1875 208.6875 C 358.84375 207.410156 363.09375 203.410156 362.6875 197.8125 C 362.3125 193.3125 360.8125 188.4375 360.4375 183.9375 C 357.4375 150.8125 336.875 85.464844 335.625 84.214844 C 335.625 84.214844 253.0625 77.0625 236.0625 77.1875 C 201.3125 75.4375 115.6875 85.8125 108.1875 89.8125 C 107.4375 92.1875 96.3125 130.5625 92.9375 147.5625 C 89.8125 160.6875 87.1875 173.8125 84.3125 187.0625 C 83.4375 193.1875 81.738281 204.394531 87.003906 208.292969 Z M 112.3125 109.1875 L 116.9375 95.0625 C 154.3125 86.9375 194.8125 83.1875 233.9375 84.6875 C 265.9375 85.1875 296.8125 87.6875 328.3125 90.1875 C 331.8125 99.3125 334.5625 108.8125 337.9375 117.9375 C 342.8125 136.0625 347.0625 153.6875 351.0625 172.0625 C 352.5625 179.9375 352.9375 189.4375 354.3125 197.1875 C 354.6875 198.4375 353.6875 199.8125 352.8125 200.4375 C 312.6875 208.8125 247.460938 209.660156 214.6875 208.6875 C 184.824219 207.835938 99.5625 202.6875 91.4375 202.0625 L 90.9375 201.3125 C 95.6875 169.6875 103.5625 139.1875 112.3125 109.1875 "/>
<path style=" stroke:none;fill-rule:nonzero;fill:rgb(0%,0%,0%);fill-opacity:1;" d="M 137.9375 387.9375 C 139.9375 391.4375 140.0625 396.5625 144.0625 398.3125 C 176.1875 397.6875 209.0625 397.9375 239.4375 397.3125 C 239.4375 397.3125 302.84375 397.410156 306.394531 396.429688 C 309.019531 395.554688 311.0625 392.9375 311.5625 390.1875 C 320.5625 369.6875 328.8125 348.9375 338.4375 328.6875 C 339.34375 325.660156 342.09375 323.910156 339.8125 319.1875 C 329.9375 301.3125 322.199219 282.941406 313.324219 264.691406 C 307.183594 258.628906 297.8125 261.4375 295.1875 260.4375 L 248.6875 261.5625 L 184.6875 262.3125 L 151.1875 262.3125 C 151.1875 262.3125 138.3125 262.6875 132.1875 262.6875 C 129.4375 271.3125 125.5625 279.8125 121.8125 287.8125 C 119.4375 295.9375 115.1875 303.3125 112.5625 311.1875 C 111.4375 316.1875 106.1875 320.1875 108.8125 325.8125 C 120.0625 345.8125 127.9375 367.4375 137.9375 387.9375 Z M 319.4375 364.265625 L 307.8125 364.1875 L 307.8125 357.8125 L 321.9375 357.8125 Z M 335.1875 327.015625 L 307.285156 326.9375 L 307.3125 320.6875 L 335.234375 320.746094 Z M 306.9375 287.59375 L 318.8125 287.4375 L 322.011719 293.78125 L 306.9375 293.8125 Z M 296.0625 265.3125 L 303.597656 265.3125 L 303.78125 392.226563 L 295.921875 392.1875 C 295.921875 392.1875 296.0625 270.3125 296.0625 265.3125 Z M 269.1875 364.4375 L 269.242188 358.128906 L 292.679688 358.128906 L 292.8125 364.589844 Z M 292.707031 326.800781 L 269.082031 326.667969 L 269.082031 320.292969 L 292.601563 320.261719 Z M 268.5625 288.09375 L 291.65625 288.0625 L 291.792969 294.476563 L 268.542969 294.4375 Z M 264.5625 265.851563 L 264.898438 392.707031 L 257.535156 392.8125 L 257.4375 265.8125 Z M 254.09375 364.96875 L 233.34375 365.09375 L 233.34375 358.355469 L 254.171875 358.34375 Z M 253.457031 327.746094 L 232.8125 327.8125 L 232.8125 320.6875 L 253.496094 320.6875 Z M 232.3125 289.148438 L 252.8125 289.023438 L 252.761719 294.972656 L 232.3125 295.148438 Z M 221.6875 266.6875 L 229.0625 266.785156 L 228.996094 393.3125 L 221.6875 393.175781 Z M 218.4375 364.8125 L 195.4375 364.8125 L 195.4375 358.042969 L 218.476563 357.9375 Z M 218.1875 327.78125 L 195.3125 327.8125 L 195.3125 321.3125 L 218.226563 321.226563 Z M 217.957031 289.148438 L 217.9375 295.4375 L 195.3125 295.523438 L 195.21875 289.109375 Z M 192.222656 266.6875 L 192.300781 393.976563 L 186.480469 393.9375 L 186.1875 266.792969 Z M 182.6875 364.957031 L 156.804688 365.0625 L 156.707031 358.128906 L 182.621094 357.917969 Z M 182.4375 328.707031 L 155.554688 328.898438 L 155.523438 322.273438 L 182.351563 322.207031 Z M 181.957031 288.9375 L 182.0625 295.425781 L 155.3125 295.5625 L 155.1875 289.148438 Z M 153.402344 267.3125 C 153.402344 267.3125 153.699219 372.1875 153.449219 394.1875 L 147.445313 394.214844 C 147.445313 394.214844 147.78125 283.5625 147.40625 267.3125 C 148.90625 267.3125 151.902344 267.3125 153.402344 267.3125 Z M 143.941406 364.953125 L 132.191406 365.058594 L 128.941406 358.433594 L 129.0625 358.1875 C 133.6875 358.4375 143.941406 358.363281 143.941406 358.363281 Z M 125.1875 289.5625 L 142.207031 289.4375 L 142.3125 295.925781 L 122.6875 296.0625 Z M 142.8125 321.84375 L 142.8125 328.726563 L 114.8125 328.6875 L 113.4375 321.8125 L 142.8125 321.84375 "/>
<path style=" stroke:none;fill-rule:nonzero;fill:rgb(0%,0%,0%);fill-opacity:1;" d="M 370.019531 448.425781 C 362.328125 448.425781 356.097656 454.65625 356.097656 462.347656 C 356.097656 470.035156 362.328125 476.269531 370.019531 476.269531 C 377.707031 476.269531 383.941406 470.035156 383.941406 462.347656 C 383.941406 454.65625 377.707031 448.425781 370.019531 448.425781 "/>
<path style=" stroke:none;fill-rule:nonzero;fill:rgb(0%,0%,0%);fill-opacity:1;" d="M 337.625 452.582031 L 295.011719 452.582031 C 291.695313 452.582031 289.011719 455.269531 289.011719 458.582031 L 289.011719 467.347656 C 289.011719 470.664063 291.695313 473.347656 295.011719 473.347656 L 337.625 473.347656 C 340.9375 473.347656 343.625 470.664063 343.625 467.347656 L 343.625 458.582031 C 343.625 455.269531 340.9375 452.582031 337.625 452.582031 "/>
<path style=" stroke:none;fill-rule:nonzero;fill:rgb(0%,0%,0%);fill-opacity:1;" d="M 79.394531 449.964844 C 71.707031 449.964844 65.472656 456.195313 65.472656 463.886719 C 65.472656 471.574219 71.707031 477.804688 79.394531 477.804688 C 87.082031 477.804688 93.316406 471.574219 93.316406 463.886719 C 93.316406 456.195313 87.082031 449.964844 79.394531 449.964844 "/>
<path style=" stroke:none;fill-rule:nonzero;fill:rgb(0%,0%,0%);fill-opacity:1;" d="M 154.402344 454.121094 L 111.789063 454.121094 C 108.472656 454.121094 105.789063 456.808594 105.789063 460.121094 L 105.789063 468.886719 C 105.789063 472.203125 108.472656 474.886719 111.789063 474.886719 L 154.402344 474.886719 C 157.714844 474.886719 160.402344 472.203125 160.402344 468.886719 L 160.402344 460.121094 C 160.402344 456.808594 157.714844 454.121094 154.402344 454.121094 "/>
</g>
</svg>
