<?xml version="1.0" encoding="UTF-8"?>
<svg xmlns="http://www.w3.org/2000/svg" xmlns:xlink="http://www.w3.org/1999/xlink" width="315pt" height="570pt" viewBox="0 0 315 570" version="1.1">
<g id="surface1">
<path style=" stroke:none;fill-rule:nonzero;fill:rgb(0%,0%,0%);fill-opacity:1;" d="M 163.484375 494.042969 C 146.382813 474.035156 131.03125 457.8125 132.28125 441.121094 C 133.113281 430.003906 140.1875 420.859375 146.71875 414.796875 C 151.382813 410.460938 148.71875 407.796875 144.382813 411.128906 C 116.058594 432.917969 126.96875 466.960938 151.71875 488.796875 C 170.503906 505.371094 180.625 536.980469 170.71875 556.796875 C 165.382813 567.460938 179.050781 561.460938 179.382813 566.460938 C 179.71875 571.460938 183.050781 570.460938 182.382813 566.796875 C 181.71875 563.128906 178.382813 560.128906 175.382813 559.796875 C 172.382813 559.460938 175.382813 556.460938 176.382813 554.128906 C 177.382813 551.796875 179.382813 544.796875 179.050781 540.128906 C 178.71875 535.460938 180.753906 535.925781 181.71875 539.460938 C 182.71875 543.128906 185.050781 547.128906 181.382813 558.460938 C 180.507813 561.171875 182.011719 562.660156 183.382813 559.460938 C 186.714844 551.691406 189.566406 549.882813 180.382813 525.460938 C 174.101563 508.753906 168.671875 500.109375 163.484375 494.042969 "/>
<path style=" stroke:none;fill-rule:nonzero;fill:rgb(0%,0%,0%);fill-opacity:1;" d="M 186.882813 413.960938 C 181.023438 412.171875 180.882813 415.296875 185.21875 416.628906 C 200.503906 421.332031 213.605469 432.351563 219.71875 449.460938 C 221.382813 454.128906 225.71875 454.796875 223.71875 448.128906 C 217.472656 427.316406 201.90625 418.554688 186.882813 413.960938 "/>
<path style=" stroke:none;fill-rule:nonzero;fill:rgb(0%,0%,0%);fill-opacity:1;" d="M 221.679688 457.460938 C 221.679688 459.023438 223.265625 460.289063 225.21875 460.289063 C 227.171875 460.289063 228.753906 459.023438 228.753906 457.460938 C 228.753906 455.898438 227.171875 454.632813 225.21875 454.632813 C 223.265625 454.632813 221.679688 455.898438 221.679688 457.460938 "/>
<path style=" stroke:none;fill-rule:nonzero;fill:rgb(0%,0%,0%);fill-opacity:1;" d="M 215.882813 462.542969 C 217.835938 462.542969 219.417969 461.171875 219.417969 459.480469 C 219.417969 457.785156 217.835938 456.414063 215.882813 456.414063 C 213.929688 456.414063 212.347656 457.785156 212.347656 459.480469 C 212.347656 461.171875 213.929688 462.542969 215.882813 462.542969 "/>
<path style=" stroke:none;fill-rule:nonzero;fill:rgb(0%,0%,0%);fill-opacity:1;" d="M 217.882813 471.984375 C 219.445313 471.984375 220.710938 470.929688 220.710938 469.628906 C 220.710938 468.328125 219.445313 467.273438 217.882813 467.273438 C 216.320313 467.273438 215.054688 468.328125 215.054688 469.628906 C 215.054688 470.929688 216.320313 471.984375 217.882813 471.984375 "/>
<path style=" stroke:none;fill-rule:nonzero;fill:rgb(0%,0%,0%);fill-opacity:1;" d="M 214.015625 465.628906 C 214.015625 464.066406 212.539063 462.800781 210.71875 462.800781 C 208.894531 462.800781 207.417969 464.066406 207.417969 465.628906 C 207.417969 467.191406 208.894531 468.457031 210.71875 468.457031 C 212.539063 468.457031 214.015625 467.191406 214.015625 465.628906 "/>
<path style=" stroke:none;fill-rule:nonzero;fill:rgb(0%,0%,0%);fill-opacity:1;" d="M 221.882813 461.753906 C 220.320313 461.753906 219.054688 462.8125 219.054688 464.113281 C 219.054688 465.414063 220.320313 466.46875 221.882813 466.46875 C 223.445313 466.46875 224.710938 465.414063 224.710938 464.113281 C 224.710938 462.8125 223.445313 461.753906 221.882813 461.753906 "/>
<path style=" stroke:none;fill-rule:nonzero;fill:rgb(0%,0%,0%);fill-opacity:1;" d="M 225.417969 465.460938 C 225.417969 467.023438 226.894531 468.289063 228.71875 468.289063 C 230.539063 468.289063 232.015625 467.023438 232.015625 465.460938 C 232.015625 463.898438 230.539063 462.632813 228.71875 462.632813 C 226.894531 462.632813 225.417969 463.898438 225.417969 465.460938 "/>
<path style=" stroke:none;fill-rule:nonzero;fill:rgb(0%,0%,0%);fill-opacity:1;" d="M 233.71875 461.984375 C 235.539063 461.984375 237.015625 460.929688 237.015625 459.628906 C 237.015625 458.328125 235.539063 457.273438 233.71875 457.273438 C 231.894531 457.273438 230.417969 458.328125 230.417969 459.628906 C 230.417969 460.929688 231.894531 461.984375 233.71875 461.984375 "/>
<path style=" stroke:none;fill-rule:nonzero;fill:rgb(0%,0%,0%);fill-opacity:1;" d="M 239.382813 453.9375 C 237.820313 453.9375 236.554688 454.992188 236.554688 456.296875 C 236.554688 457.597656 237.820313 458.652344 239.382813 458.652344 C 240.945313 458.652344 242.210938 457.597656 242.210938 456.296875 C 242.210938 454.992188 240.945313 453.9375 239.382813 453.9375 "/>
<path style=" stroke:none;fill-rule:nonzero;fill:rgb(0%,0%,0%);fill-opacity:1;" d="M 221.585938 471.960938 C 221.585938 473.265625 223.0625 474.320313 224.882813 474.320313 C 226.707031 474.320313 228.183594 473.265625 228.183594 471.960938 C 228.183594 470.660156 226.707031 469.605469 224.882813 469.605469 C 223.0625 469.605469 221.585938 470.660156 221.585938 471.960938 "/>
<path style=" stroke:none;fill-rule:nonzero;fill:rgb(0%,0%,0%);fill-opacity:1;" d="M 219.550781 478.984375 C 221.113281 478.984375 222.378906 477.929688 222.378906 476.628906 C 222.378906 475.328125 221.113281 474.273438 219.550781 474.273438 C 217.988281 474.273438 216.722656 475.328125 216.722656 476.628906 C 216.722656 477.929688 217.988281 478.984375 219.550781 478.984375 "/>
<path style=" stroke:none;fill-rule:nonzero;fill:rgb(0%,0%,0%);fill-opacity:1;" d="M 232.050781 468.9375 C 230.488281 468.9375 229.222656 469.992188 229.222656 471.296875 C 229.222656 472.597656 230.488281 473.652344 232.050781 473.652344 C 233.613281 473.652344 234.878906 472.597656 234.878906 471.296875 C 234.878906 469.992188 233.613281 468.9375 232.050781 468.9375 "/>
<path style=" stroke:none;fill-rule:nonzero;fill:rgb(0%,0%,0%);fill-opacity:1;" d="M 236.050781 462.300781 C 234.488281 462.300781 233.222656 463.566406 233.222656 465.128906 C 233.222656 466.691406 234.488281 467.957031 236.050781 467.957031 C 237.613281 467.957031 238.878906 466.691406 238.878906 465.128906 C 238.878906 463.566406 237.613281 462.300781 236.050781 462.300781 "/>
<path style=" stroke:none;fill-rule:nonzero;fill:rgb(0%,0%,0%);fill-opacity:1;" d="M 231.183594 477.796875 C 231.183594 476.492188 229.707031 475.4375 227.882813 475.4375 C 226.0625 475.4375 224.585938 476.492188 224.585938 477.796875 C 224.585938 479.097656 226.0625 480.152344 227.882813 480.152344 C 229.707031 480.152344 231.183594 479.097656 231.183594 477.796875 "/>
<path style=" stroke:none;fill-rule:nonzero;fill:rgb(0%,0%,0%);fill-opacity:1;" d="M 222.898438 484.320313 C 224.203125 484.320313 225.257813 483.265625 225.257813 481.960938 C 225.257813 480.660156 224.203125 479.605469 222.898438 479.605469 C 221.597656 479.605469 220.542969 480.660156 220.542969 481.960938 C 220.542969 483.265625 221.597656 484.320313 222.898438 484.320313 "/>
<path style=" stroke:none;fill-rule:nonzero;fill:rgb(0%,0%,0%);fill-opacity:1;" d="M 216.183594 478.796875 C 216.183594 477.234375 214.707031 475.96875 212.882813 475.96875 C 211.0625 475.96875 209.585938 477.234375 209.585938 478.796875 C 209.585938 480.359375 211.0625 481.625 212.882813 481.625 C 214.707031 481.625 216.183594 480.359375 216.183594 478.796875 "/>
<path style=" stroke:none;fill-rule:nonzero;fill:rgb(0%,0%,0%);fill-opacity:1;" d="M 216.382813 482.632813 C 214.5625 482.632813 213.085938 483.902344 213.085938 485.460938 C 213.085938 487.023438 214.5625 488.289063 216.382813 488.289063 C 218.207031 488.289063 219.683594 487.023438 219.683594 485.460938 C 219.683594 483.902344 218.207031 482.632813 216.382813 482.632813 "/>
<path style=" stroke:none;fill-rule:nonzero;fill:rgb(0%,0%,0%);fill-opacity:1;" d="M 239.351563 477.460938 C 239.351563 475.902344 237.871094 474.632813 236.050781 474.632813 C 234.226563 474.632813 232.75 475.902344 232.75 477.460938 C 232.75 479.023438 234.226563 480.289063 236.050781 480.289063 C 237.871094 480.289063 239.351563 479.023438 239.351563 477.460938 "/>
<path style=" stroke:none;fill-rule:nonzero;fill:rgb(0%,0%,0%);fill-opacity:1;" d="M 237.359375 471.128906 C 237.359375 472.429688 238.414063 473.484375 239.71875 473.484375 C 241.019531 473.484375 242.074219 472.429688 242.074219 471.128906 C 242.074219 469.828125 241.019531 468.773438 239.71875 468.773438 C 238.414063 468.773438 237.359375 469.828125 237.359375 471.128906 "/>
<path style=" stroke:none;fill-rule:nonzero;fill:rgb(0%,0%,0%);fill-opacity:1;" d="M 245.074219 465.628906 C 245.074219 464.328125 244.019531 463.273438 242.71875 463.273438 C 241.414063 463.273438 240.359375 464.328125 240.359375 465.628906 C 240.359375 466.929688 241.414063 467.984375 242.71875 467.984375 C 244.019531 467.984375 245.074219 466.929688 245.074219 465.628906 "/>
<path style=" stroke:none;fill-rule:nonzero;fill:rgb(0%,0%,0%);fill-opacity:1;" d="M 233.050781 486.289063 C 234.871094 486.289063 236.351563 485.023438 236.351563 483.460938 C 236.351563 481.902344 234.871094 480.632813 233.050781 480.632813 C 231.226563 480.632813 229.75 481.902344 229.75 483.460938 C 229.75 485.023438 231.226563 486.289063 233.050781 486.289063 "/>
<path style=" stroke:none;fill-rule:nonzero;fill:rgb(0%,0%,0%);fill-opacity:1;" d="M 227.199219 487.699219 C 228.503906 487.699219 229.558594 486.855469 229.558594 485.8125 C 229.558594 484.769531 228.503906 483.925781 227.199219 483.925781 C 225.898438 483.925781 224.84375 484.769531 224.84375 485.8125 C 224.84375 486.855469 225.898438 487.699219 227.199219 487.699219 "/>
<path style=" stroke:none;fill-rule:nonzero;fill:rgb(0%,0%,0%);fill-opacity:1;" d="M 225.546875 490.460938 C 225.546875 489.160156 224.277344 488.105469 222.71875 488.105469 C 221.15625 488.105469 219.890625 489.160156 219.890625 490.460938 C 219.890625 491.765625 221.15625 492.820313 222.71875 492.820313 C 224.277344 492.820313 225.546875 491.765625 225.546875 490.460938 "/>
<path style=" stroke:none;fill-rule:nonzero;fill:rgb(0%,0%,0%);fill-opacity:1;" d="M 229.050781 488.773438 C 227.746094 488.773438 226.691406 489.828125 226.691406 491.128906 C 226.691406 492.429688 227.746094 493.484375 229.050781 493.484375 C 230.351563 493.484375 231.40625 492.429688 231.40625 491.128906 C 231.40625 489.828125 230.351563 488.773438 229.050781 488.773438 "/>
<path style=" stroke:none;fill-rule:nonzero;fill:rgb(0%,0%,0%);fill-opacity:1;" d="M 235.050781 487.242188 C 233.746094 487.242188 232.691406 488.089844 232.691406 489.128906 C 232.691406 490.171875 233.746094 491.015625 235.050781 491.015625 C 236.351563 491.015625 237.40625 490.171875 237.40625 489.128906 C 237.40625 488.089844 236.351563 487.242188 235.050781 487.242188 "/>
<path style=" stroke:none;fill-rule:nonzero;fill:rgb(0%,0%,0%);fill-opacity:1;" d="M 234.050781 493.242188 C 233.007813 493.242188 232.164063 494.089844 232.164063 495.128906 C 232.164063 496.171875 233.007813 497.015625 234.050781 497.015625 C 235.09375 497.015625 235.9375 496.171875 235.9375 495.128906 C 235.9375 494.089844 235.09375 493.242188 234.050781 493.242188 "/>
<path style=" stroke:none;fill-rule:nonzero;fill:rgb(0%,0%,0%);fill-opacity:1;" d="M 226.382813 493.578125 C 224.820313 493.578125 223.554688 494.421875 223.554688 495.460938 C 223.554688 496.503906 224.820313 497.347656 226.382813 497.347656 C 227.945313 497.347656 229.210938 496.503906 229.210938 495.460938 C 229.210938 494.421875 227.945313 493.578125 226.382813 493.578125 "/>
<path style=" stroke:none;fill-rule:nonzero;fill:rgb(0%,0%,0%);fill-opacity:1;" d="M 247.742188 473.460938 C 247.742188 472.160156 246.683594 471.105469 245.382813 471.105469 C 244.082031 471.105469 243.027344 472.160156 243.027344 473.460938 C 243.027344 474.765625 244.082031 475.820313 245.382813 475.820313 C 246.683594 475.820313 247.742188 474.765625 247.742188 473.460938 "/>
<path style=" stroke:none;fill-rule:nonzero;fill:rgb(0%,0%,0%);fill-opacity:1;" d="M 245.28125 480.140625 C 245.28125 478.839844 244.015625 477.785156 242.453125 477.785156 C 240.890625 477.785156 239.625 478.839844 239.625 480.140625 C 239.625 481.441406 240.890625 482.496094 242.453125 482.496094 C 244.015625 482.496094 245.28125 481.441406 245.28125 480.140625 "/>
<path style=" stroke:none;fill-rule:nonzero;fill:rgb(0%,0%,0%);fill-opacity:1;" d="M 233.453125 498.105469 C 232.140625 498.105469 231.078125 499.015625 231.078125 500.140625 C 231.078125 501.265625 232.140625 502.175781 233.453125 502.175781 C 234.765625 502.175781 235.828125 501.265625 235.828125 500.140625 C 235.828125 499.015625 234.765625 498.105469 233.453125 498.105469 "/>
<path style=" stroke:none;fill-rule:nonzero;fill:rgb(0%,0%,0%);fill-opacity:1;" d="M 252.28125 465.789063 C 252.28125 464.488281 251.015625 463.433594 249.453125 463.433594 C 247.890625 463.433594 246.625 464.488281 246.625 465.789063 C 246.625 467.09375 247.890625 468.148438 249.453125 468.148438 C 251.015625 468.148438 252.28125 467.09375 252.28125 465.789063 "/>
<path style=" stroke:none;fill-rule:nonzero;fill:rgb(0%,0%,0%);fill-opacity:1;" d="M 240.882813 488.347656 C 242.183594 488.347656 243.242188 487.503906 243.242188 486.460938 C 243.242188 485.421875 242.183594 484.578125 240.882813 484.578125 C 239.582031 484.578125 238.527344 485.421875 238.527344 486.460938 C 238.527344 487.503906 239.582031 488.347656 240.882813 488.347656 "/>
<path style=" stroke:none;fill-rule:nonzero;fill:rgb(0%,0%,0%);fill-opacity:1;" d="M 239.050781 492.242188 C 238.007813 492.242188 237.164063 493.089844 237.164063 494.128906 C 237.164063 495.171875 238.007813 496.015625 239.050781 496.015625 C 240.09375 496.015625 240.9375 495.171875 240.9375 494.128906 C 240.9375 493.089844 240.09375 492.242188 239.050781 492.242188 "/>
<path style=" stroke:none;fill-rule:nonzero;fill:rgb(0%,0%,0%);fill-opacity:1;" d="M 241.882813 489.214844 C 240.84375 489.214844 239.996094 489.847656 239.996094 490.628906 C 239.996094 491.410156 240.84375 492.042969 241.882813 492.042969 C 242.925781 492.042969 243.769531 491.410156 243.769531 490.628906 C 243.769531 489.847656 242.925781 489.214844 241.882813 489.214844 "/>
<path style=" stroke:none;fill-rule:nonzero;fill:rgb(0%,0%,0%);fill-opacity:1;" d="M 241.355469 460.40625 C 241.355469 461.707031 242.621094 462.761719 244.183594 462.761719 C 245.746094 462.761719 247.011719 461.707031 247.011719 460.40625 C 247.011719 459.105469 245.746094 458.046875 244.183594 458.046875 C 242.621094 458.046875 241.355469 459.105469 241.355469 460.40625 "/>
<path style=" stroke:none;fill-rule:nonzero;fill:rgb(0%,0%,0%);fill-opacity:1;" d="M 247.039063 482.117188 C 245.5625 482.117188 244.367188 483.140625 244.367188 484.40625 C 244.367188 485.671875 245.5625 486.699219 247.039063 486.699219 C 248.515625 486.699219 249.710938 485.671875 249.710938 484.40625 C 249.710938 483.140625 248.515625 482.117188 247.039063 482.117188 "/>
<path style=" stroke:none;fill-rule:nonzero;fill:rgb(0%,0%,0%);fill-opacity:1;" d="M 249.160156 475.945313 C 247.683594 475.945313 246.484375 476.972656 246.484375 478.238281 C 246.484375 479.503906 247.683594 480.527344 249.160156 480.527344 C 250.636719 480.527344 251.832031 479.503906 251.832031 478.238281 C 251.832031 476.972656 250.636719 475.945313 249.160156 475.945313 "/>
<path style=" stroke:none;fill-rule:nonzero;fill:rgb(0%,0%,0%);fill-opacity:1;" d="M 251.71875 470.605469 C 250.414063 470.605469 249.359375 471.660156 249.359375 472.960938 C 249.359375 474.265625 250.414063 475.320313 251.71875 475.320313 C 253.019531 475.320313 254.074219 474.265625 254.074219 472.960938 C 254.074219 471.660156 253.019531 470.605469 251.71875 470.605469 "/>
<path style=" stroke:none;fill-rule:nonzero;fill:rgb(0%,0%,0%);fill-opacity:1;" d="M 212.050781 469.605469 C 210.746094 469.605469 209.691406 470.660156 209.691406 471.960938 C 209.691406 473.265625 210.746094 474.320313 212.050781 474.320313 C 213.351563 474.320313 214.40625 473.265625 214.40625 471.960938 C 214.40625 470.660156 213.351563 469.605469 212.050781 469.605469 "/>
<path style=" stroke:none;fill-rule:nonzero;fill:rgb(0%,0%,0%);fill-opacity:1;" d="M 207.882813 457.796875 C 204.601563 459.4375 202.945313 459.375 200.21875 458.628906 C 197.941406 458.007813 198.355469 457.3125 200.050781 457.460938 C 202.429688 457.671875 204.339844 455.308594 206.71875 456.796875 C 208.050781 457.628906 208.71875 456.460938 208.382813 455.796875 C 207.675781 454.378906 205.925781 453.160156 203.71875 453.960938 C 200.414063 455.164063 195.742188 456.761719 193.21875 454.796875 C 191.71875 453.628906 190.71875 453.460938 191.71875 455.796875 C 193.902344 460.894531 202.027344 464.53125 209.382813 459.628906 C 210.882813 458.628906 209.882813 456.796875 207.882813 457.796875 "/>
<path style=" stroke:none;fill-rule:nonzero;fill:rgb(0%,0%,0%);fill-opacity:1;" d="M 209.617188 447.414063 C 212.355469 448.117188 213.824219 448.886719 215.859375 451.941406 C 217.101563 453.800781 218.878906 452.703125 218.070313 451.09375 C 214.117188 443.1875 205.257813 442.3125 200.828125 445.65625 C 198.804688 447.1875 199.753906 447.539063 201.636719 447.269531 C 204.804688 446.816406 208.066406 450.519531 210.339844 453.203125 C 211.859375 454.996094 213.980469 454.804688 215.300781 453.925781 C 215.921875 453.511719 215.921875 452.167969 214.351563 452.230469 C 211.546875 452.339844 211.0625 449.34375 208.894531 448.34375 C 207.347656 447.632813 207.335938 446.828125 209.617188 447.414063 "/>
<path style=" stroke:none;fill-rule:nonzero;fill:rgb(0%,0%,0%);fill-opacity:1;" d="M 228.449219 448.765625 C 229.042969 449.339844 230.5 449.019531 230.058594 447.332031 C 229.273438 444.316406 232.410156 443.078125 232.976563 440.488281 C 233.382813 438.648438 234.253906 438.4375 234.15625 441.054688 C 234.042969 444.191406 233.5625 445.964844 230.734375 448.898438 C 229.011719 450.683594 231.453125 451.519531 233.011719 450.261719 C 241.101563 443.726563 239.082031 435.484375 233.976563 431.109375 C 231.835938 429.277344 231.679688 430.390625 232.417969 432.367188 C 233.664063 435.695313 230.421875 440.109375 228.054688 443.214844 C 226.46875 445.285156 227.179688 447.542969 228.449219 448.765625 "/>
<path style=" stroke:none;fill-rule:nonzero;fill:rgb(0%,0%,0%);fill-opacity:1;" d="M 239.300781 448.925781 C 237.988281 448.925781 236.925781 449.839844 236.925781 450.960938 C 236.925781 452.085938 237.988281 453 239.300781 453 C 240.613281 453 241.675781 452.085938 241.675781 450.960938 C 241.675781 449.839844 240.613281 448.925781 239.300781 448.925781 "/>
<path style=" stroke:none;fill-rule:nonzero;fill:rgb(0%,0%,0%);fill-opacity:1;" d="M 232.800781 456.542969 C 233.84375 456.542969 234.6875 455.910156 234.6875 455.128906 C 234.6875 454.347656 233.84375 453.714844 232.800781 453.714844 C 231.757813 453.714844 230.914063 454.347656 230.914063 455.128906 C 230.914063 455.910156 231.757813 456.542969 232.800781 456.542969 "/>
<path style=" stroke:none;fill-rule:nonzero;fill:rgb(0%,0%,0%);fill-opacity:1;" d="M 246.519531 455.628906 C 246.519531 454.847656 245.675781 454.214844 244.632813 454.214844 C 243.59375 454.214844 242.746094 454.847656 242.746094 455.628906 C 242.746094 456.410156 243.59375 457.042969 244.632813 457.042969 C 245.675781 457.042969 246.519531 456.410156 246.519531 455.628906 "/>
<path style=" stroke:none;fill-rule:nonzero;fill:rgb(0%,0%,0%);fill-opacity:1;" d="M 55.921875 228.972656 C 55.617188 230.503906 56.925781 232.054688 58.839844 232.433594 C 60.757813 232.8125 62.554688 231.878906 62.859375 230.34375 C 63.160156 228.8125 61.851563 227.261719 59.9375 226.882813 C 58.023438 226.503906 56.222656 227.441406 55.921875 228.972656 "/>
<path style=" stroke:none;fill-rule:nonzero;fill:rgb(0%,0%,0%);fill-opacity:1;" d="M 71.621094 234.132813 C 71.949219 232.472656 70.664063 230.820313 68.75 230.441406 C 66.832031 230.0625 65.015625 231.101563 64.6875 232.761719 C 64.355469 234.421875 65.644531 236.074219 67.558594 236.453125 C 69.476563 236.832031 71.292969 235.792969 71.621094 234.132813 "/>
<path style=" stroke:none;fill-rule:nonzero;fill:rgb(0%,0%,0%);fill-opacity:1;" d="M 63.765625 245.328125 C 65.296875 245.632813 66.746094 244.84375 66.996094 243.566406 C 67.25 242.289063 66.214844 241.007813 64.679688 240.703125 C 63.148438 240.402344 61.699219 241.191406 61.449219 242.46875 C 61.195313 243.746094 62.234375 245.027344 63.765625 245.328125 "/>
<path style=" stroke:none;fill-rule:nonzero;fill:rgb(0%,0%,0%);fill-opacity:1;" d="M 75.265625 241.121094 C 75.570313 239.589844 74.367188 238.0625 72.578125 237.707031 C 70.789063 237.355469 69.09375 238.3125 68.792969 239.84375 C 68.488281 241.375 69.691406 242.902344 71.480469 243.257813 C 73.269531 243.609375 74.964844 242.65625 75.265625 241.121094 "/>
<path style=" stroke:none;fill-rule:nonzero;fill:rgb(0%,0%,0%);fill-opacity:1;" d="M 64.144531 237.378906 C 64.398438 236.101563 63.359375 234.820313 61.828125 234.515625 C 60.292969 234.214844 58.847656 235.003906 58.59375 236.28125 C 58.34375 237.558594 59.378906 238.839844 60.910156 239.140625 C 62.445313 239.445313 63.890625 238.65625 64.144531 237.378906 "/>
<path style=" stroke:none;fill-rule:nonzero;fill:rgb(0%,0%,0%);fill-opacity:1;" d="M 53.855469 239.601563 C 55.644531 239.957031 57.339844 239 57.640625 237.46875 C 57.945313 235.933594 56.738281 234.40625 54.953125 234.054688 C 53.164063 233.699219 51.46875 234.65625 51.167969 236.1875 C 50.863281 237.71875 52.066406 239.246094 53.855469 239.601563 "/>
<path style=" stroke:none;fill-rule:nonzero;fill:rgb(0%,0%,0%);fill-opacity:1;" d="M 53.867188 230.773438 C 54.121094 229.496094 52.875 228.175781 51.089844 227.824219 C 49.300781 227.46875 47.644531 228.21875 47.394531 229.496094 C 47.140625 230.773438 48.386719 232.09375 50.171875 232.445313 C 51.960938 232.800781 53.613281 232.050781 53.867188 230.773438 "/>
<path style=" stroke:none;fill-rule:nonzero;fill:rgb(0%,0%,0%);fill-opacity:1;" d="M 45.261719 228.078125 C 46.792969 228.382813 48.238281 227.589844 48.492188 226.3125 C 48.746094 225.035156 47.707031 223.757813 46.175781 223.453125 C 44.644531 223.148438 43.195313 223.941406 42.945313 225.21875 C 42.691406 226.492188 43.726563 227.773438 45.261719 228.078125 "/>
<path style=" stroke:none;fill-rule:nonzero;fill:rgb(0%,0%,0%);fill-opacity:1;" d="M 56.445313 246.261719 C 58.234375 246.613281 59.886719 245.863281 60.140625 244.589844 C 60.394531 243.3125 59.148438 241.988281 57.359375 241.636719 C 55.574219 241.28125 53.917969 242.03125 53.664063 243.308594 C 53.414063 244.585938 54.65625 245.90625 56.445313 246.261719 "/>
<path style=" stroke:none;fill-rule:nonzero;fill:rgb(0%,0%,0%);fill-opacity:1;" d="M 60.773438 251.871094 C 62.304688 252.175781 63.753906 251.386719 64.003906 250.109375 C 64.257813 248.832031 63.21875 247.550781 61.6875 247.246094 C 60.15625 246.945313 58.707031 247.734375 58.457031 249.011719 C 58.203125 250.289063 59.238281 251.570313 60.773438 251.871094 "/>
<path style=" stroke:none;fill-rule:nonzero;fill:rgb(0%,0%,0%);fill-opacity:1;" d="M 52.777344 242.453125 C 53.03125 241.175781 51.992188 239.894531 50.460938 239.589844 C 48.925781 239.289063 47.480469 240.078125 47.226563 241.355469 C 46.976563 242.632813 48.011719 243.910156 49.542969 244.214844 C 51.078125 244.519531 52.523438 243.730469 52.777344 242.453125 "/>
<path style=" stroke:none;fill-rule:nonzero;fill:rgb(0%,0%,0%);fill-opacity:1;" d="M 46.726563 237.851563 C 48.257813 238.15625 49.746094 237.160156 50.050781 235.628906 C 50.351563 234.09375 49.355469 232.605469 47.824219 232.304688 C 46.289063 232 44.800781 232.996094 44.5 234.527344 C 44.195313 236.0625 45.195313 237.550781 46.726563 237.851563 "/>
<path style=" stroke:none;fill-rule:nonzero;fill:rgb(0%,0%,0%);fill-opacity:1;" d="M 52.371094 251.398438 C 54.160156 251.753906 55.8125 251.003906 56.066406 249.726563 C 56.320313 248.453125 55.074219 247.128906 53.285156 246.777344 C 51.496094 246.421875 49.84375 247.171875 49.589844 248.449219 C 49.339844 249.726563 50.582031 251.046875 52.371094 251.398438 "/>
<path style=" stroke:none;fill-rule:nonzero;fill:rgb(0%,0%,0%);fill-opacity:1;" d="M 56.453125 256.453125 C 57.726563 256.707031 58.96875 255.878906 59.222656 254.601563 C 59.472656 253.324219 58.644531 252.082031 57.367188 251.828125 C 56.089844 251.578125 54.847656 252.40625 54.597656 253.683594 C 54.34375 254.960938 55.175781 256.203125 56.453125 256.453125 "/>
<path style=" stroke:none;fill-rule:nonzero;fill:rgb(0%,0%,0%);fill-opacity:1;" d="M 70.585938 253.621094 C 70.890625 252.085938 69.6875 250.558594 67.898438 250.203125 C 66.109375 249.851563 64.414063 250.808594 64.113281 252.339844 C 63.808594 253.871094 65.011719 255.398438 66.800781 255.753906 C 68.589844 256.105469 70.285156 255.152344 70.585938 253.621094 "/>
<path style=" stroke:none;fill-rule:nonzero;fill:rgb(0%,0%,0%);fill-opacity:1;" d="M 62.074219 261.613281 C 63.863281 261.96875 65.558594 261.011719 65.859375 259.480469 C 66.164063 257.949219 64.960938 256.417969 63.171875 256.066406 C 61.382813 255.710938 59.6875 256.667969 59.386719 258.199219 C 59.082031 259.730469 60.285156 261.261719 62.074219 261.613281 "/>
<path style=" stroke:none;fill-rule:nonzero;fill:rgb(0%,0%,0%);fill-opacity:1;" d="M 44.332031 249.953125 C 46.121094 250.304688 47.816406 249.347656 48.117188 247.816406 C 48.421875 246.285156 47.21875 244.757813 45.429688 244.402344 C 43.644531 244.046875 41.949219 245.003906 41.644531 246.535156 C 41.339844 248.070313 42.546875 249.597656 44.332031 249.953125 "/>
<path style=" stroke:none;fill-rule:nonzero;fill:rgb(0%,0%,0%);fill-opacity:1;" d="M 44.824219 240.710938 C 45.078125 239.433594 44.246094 238.191406 42.96875 237.941406 C 41.695313 237.6875 40.453125 238.519531 40.203125 239.796875 C 39.949219 241.070313 40.78125 242.3125 42.054688 242.566406 C 43.332031 242.816406 44.574219 241.988281 44.824219 240.710938 "/>
<path style=" stroke:none;fill-rule:nonzero;fill:rgb(0%,0%,0%);fill-opacity:1;" d="M 40.179688 236.585938 C 41.457031 236.839844 42.699219 236.007813 42.949219 234.730469 C 43.203125 233.453125 42.371094 232.214844 41.09375 231.964844 C 39.816406 231.710938 38.578125 232.539063 38.324219 233.816406 C 38.074219 235.09375 38.902344 236.335938 40.179688 236.585938 "/>
<path style=" stroke:none;fill-rule:nonzero;fill:rgb(0%,0%,0%);fill-opacity:1;" d="M 49.898438 254.285156 C 50.203125 252.753906 48.996094 251.222656 47.210938 250.871094 C 45.421875 250.515625 43.726563 251.472656 43.421875 253.003906 C 43.121094 254.535156 44.324219 256.066406 46.113281 256.421875 C 47.898438 256.773438 49.59375 255.816406 49.898438 254.285156 "/>
<path style=" stroke:none;fill-rule:nonzero;fill:rgb(0%,0%,0%);fill-opacity:1;" d="M 54.257813 257.542969 C 54.457031 256.519531 53.585938 255.488281 52.308594 255.234375 C 51.03125 254.984375 49.832031 255.605469 49.632813 256.628906 C 49.429688 257.648438 50.300781 258.683594 51.578125 258.933594 C 52.855469 259.1875 54.054688 258.5625 54.257813 257.542969 "/>
<path style=" stroke:none;fill-rule:nonzero;fill:rgb(0%,0%,0%);fill-opacity:1;" d="M 59.464844 263.816406 C 59.71875 262.539063 58.679688 261.257813 57.148438 260.953125 C 55.613281 260.652344 54.167969 261.441406 53.914063 262.71875 C 53.664063 263.996094 54.699219 265.277344 56.230469 265.578125 C 57.765625 265.882813 59.210938 265.09375 59.464844 263.816406 "/>
<path style=" stroke:none;fill-rule:nonzero;fill:rgb(0%,0%,0%);fill-opacity:1;" d="M 49.554688 259.628906 C 48.277344 259.378906 47.039063 260.207031 46.785156 261.484375 C 46.53125 262.761719 47.363281 264.003906 48.640625 264.253906 C 49.917969 264.507813 51.15625 263.675781 51.410156 262.398438 C 51.660156 261.121094 50.832031 259.882813 49.554688 259.628906 "/>
<path style=" stroke:none;fill-rule:nonzero;fill:rgb(0%,0%,0%);fill-opacity:1;" d="M 45.910156 259.273438 C 46.113281 258.253906 45.242188 257.21875 43.964844 256.964844 C 42.6875 256.714844 41.488281 257.335938 41.285156 258.359375 C 41.085938 259.378906 41.957031 260.414063 43.234375 260.664063 C 44.511719 260.917969 45.710938 260.296875 45.910156 259.273438 "/>
<path style=" stroke:none;fill-rule:nonzero;fill:rgb(0%,0%,0%);fill-opacity:1;" d="M 44.53125 262.546875 C 43.511719 262.34375 42.519531 263.007813 42.316406 264.03125 C 42.113281 265.050781 42.777344 266.042969 43.800781 266.246094 C 44.824219 266.449219 45.8125 265.78125 46.015625 264.761719 C 46.21875 263.738281 45.554688 262.746094 44.53125 262.546875 "/>
<path style=" stroke:none;fill-rule:nonzero;fill:rgb(0%,0%,0%);fill-opacity:1;" d="M 38.988281 266.359375 C 37.457031 266.058594 36.050781 266.640625 35.847656 267.660156 C 35.644531 268.683594 36.722656 269.757813 38.257813 270.058594 C 39.789063 270.363281 41.195313 269.78125 41.398438 268.757813 C 41.597656 267.738281 40.519531 266.664063 38.988281 266.359375 "/>
<path style=" stroke:none;fill-rule:nonzero;fill:rgb(0%,0%,0%);fill-opacity:1;" d="M 36.042969 243.753906 C 37.320313 244.007813 38.5625 243.175781 38.8125 241.898438 C 39.066406 240.621094 38.234375 239.382813 36.960938 239.128906 C 35.683594 238.878906 34.441406 239.707031 34.191406 240.984375 C 33.9375 242.261719 34.769531 243.503906 36.042969 243.753906 "/>
<path style=" stroke:none;fill-rule:nonzero;fill:rgb(0%,0%,0%);fill-opacity:1;" d="M 38.539063 246.25 C 37.007813 245.945313 35.558594 246.738281 35.304688 248.015625 C 35.054688 249.289063 36.09375 250.570313 37.625 250.875 C 39.15625 251.179688 40.601563 250.386719 40.855469 249.109375 C 41.109375 247.835938 40.070313 246.554688 38.539063 246.25 "/>
<path style=" stroke:none;fill-rule:nonzero;fill:rgb(0%,0%,0%);fill-opacity:1;" d="M 30.386719 259.675781 C 31.671875 259.929688 32.894531 259.242188 33.109375 258.140625 C 33.328125 257.035156 32.464844 255.933594 31.175781 255.679688 C 29.886719 255.425781 28.667969 256.113281 28.449219 257.21875 C 28.230469 258.320313 29.097656 259.421875 30.386719 259.675781 "/>
<path style=" stroke:none;fill-rule:nonzero;fill:rgb(0%,0%,0%);fill-opacity:1;" d="M 33.539063 235.4375 C 35.074219 235.742188 36.519531 234.953125 36.773438 233.675781 C 37.027344 232.398438 35.988281 231.117188 34.457031 230.816406 C 32.921875 230.511719 31.476563 231.300781 31.222656 232.578125 C 30.972656 233.855469 32.007813 235.136719 33.539063 235.4375 "/>
<path style=" stroke:none;fill-rule:nonzero;fill:rgb(0%,0%,0%);fill-opacity:1;" d="M 38.761719 253.21875 C 37.484375 252.964844 36.285156 253.589844 36.082031 254.609375 C 35.878906 255.632813 36.75 256.664063 38.027344 256.917969 C 39.304688 257.171875 40.503906 256.546875 40.707031 255.523438 C 40.910156 254.503906 40.035156 253.472656 38.761719 253.21875 "/>
<path style=" stroke:none;fill-rule:nonzero;fill:rgb(0%,0%,0%);fill-opacity:1;" d="M 39.070313 261.09375 C 38.050781 260.894531 37.058594 261.558594 36.855469 262.578125 C 36.652344 263.601563 37.316406 264.59375 38.339844 264.796875 C 39.359375 264.996094 40.351563 264.332031 40.554688 263.3125 C 40.757813 262.289063 40.09375 261.296875 39.070313 261.09375 "/>
<path style=" stroke:none;fill-rule:nonzero;fill:rgb(0%,0%,0%);fill-opacity:1;" d="M 38.453125 259.328125 C 38.605469 258.5625 37.902344 257.777344 36.878906 257.574219 C 35.859375 257.371094 34.90625 257.828125 34.753906 258.597656 C 34.601563 259.363281 35.308594 260.148438 36.332031 260.347656 C 37.351563 260.550781 38.304688 260.09375 38.453125 259.328125 "/>
<path style=" stroke:none;fill-rule:nonzero;fill:rgb(0%,0%,0%);fill-opacity:1;" d="M 40.671875 226.554688 C 39.136719 226.25 37.691406 227.039063 37.4375 228.316406 C 37.1875 229.59375 38.222656 230.875 39.757813 231.179688 C 41.289063 231.480469 42.734375 230.691406 42.988281 229.414063 C 43.238281 228.136719 42.203125 226.855469 40.671875 226.554688 "/>
<path style=" stroke:none;fill-rule:nonzero;fill:rgb(0%,0%,0%);fill-opacity:1;" d="M 32.308594 254.105469 C 33.757813 254.390625 35.132813 253.617188 35.375 252.375 C 35.621094 251.136719 34.648438 249.894531 33.199219 249.609375 C 31.75 249.324219 30.378906 250.097656 30.132813 251.339844 C 29.886719 252.578125 30.863281 253.820313 32.308594 254.105469 "/>
<path style=" stroke:none;fill-rule:nonzero;fill:rgb(0%,0%,0%);fill-opacity:1;" d="M 31.425781 247.640625 C 32.875 247.925781 34.25 247.152344 34.492188 245.910156 C 34.738281 244.671875 33.765625 243.433594 32.316406 243.144531 C 30.867188 242.859375 29.496094 243.632813 29.25 244.875 C 29.003906 246.117188 29.980469 247.355469 31.425781 247.640625 "/>
<path style=" stroke:none;fill-rule:nonzero;fill:rgb(0%,0%,0%);fill-opacity:1;" d="M 29.929688 242.035156 C 31.207031 242.289063 32.445313 241.457031 32.699219 240.179688 C 32.949219 238.902344 32.121094 237.664063 30.84375 237.410156 C 29.566406 237.15625 28.328125 237.988281 28.074219 239.265625 C 27.820313 240.542969 28.652344 241.78125 29.929688 242.035156 "/>
<path style=" stroke:none;fill-rule:nonzero;fill:rgb(0%,0%,0%);fill-opacity:1;" d="M 71.804688 246.894531 C 72.058594 245.617188 71.226563 244.378906 69.949219 244.125 C 68.671875 243.871094 67.433594 244.703125 67.179688 245.980469 C 66.929688 247.257813 67.757813 248.496094 69.035156 248.75 C 70.3125 249.003906 71.550781 248.171875 71.804688 246.894531 "/>
<path style=" stroke:none;fill-rule:nonzero;fill:rgb(0%,0%,0%);fill-opacity:1;" d="M 92.578125 234.523438 C 94.011719 232.425781 92.996094 232.398438 91.296875 233.25 C 88.4375 234.6875 84.167969 232.214844 81.160156 230.394531 C 79.148438 229.179688 77.199219 230.035156 76.226563 231.289063 C 75.769531 231.878906 76.199219 233.152344 77.667969 232.59375 C 80.289063 231.597656 81.703125 234.285156 84.078125 234.539063 C 85.769531 234.722656 86.039063 235.484375 83.6875 235.652344 C 80.867188 235.855469 79.230469 235.597656 76.328125 233.347656 C 74.558594 231.980469 73.222656 233.585938 74.5 234.855469 C 80.765625 241.09375 89.445313 239.101563 92.578125 234.523438 "/>
<path style=" stroke:none;fill-rule:nonzero;fill:rgb(0%,0%,0%);fill-opacity:1;" d="M 74.808594 228.363281 C 77.558594 226.175781 81.476563 223.175781 84.5 224.234375 C 86.292969 224.863281 87.292969 224.703125 85.601563 222.808594 C 81.910156 218.671875 73.046875 217.808594 67.636719 224.796875 C 66.53125 226.222656 68.0625 227.640625 69.640625 226.058594 C 72.230469 223.453125 73.820313 222.988281 76.644531 222.828125 C 78.996094 222.695313 78.824219 223.484375 77.171875 223.878906 C 74.851563 224.4375 73.792969 227.285156 71.066406 226.632813 C 69.535156 226.269531 69.273438 227.585938 69.800781 228.113281 C 70.925781 229.230469 72.96875 229.828125 74.808594 228.363281 "/>
<path style=" stroke:none;fill-rule:nonzero;fill:rgb(0%,0%,0%);fill-opacity:1;" d="M 55.128906 204.332031 C 49.269531 207.632813 45.691406 215.324219 52.359375 223.308594 C 53.644531 224.84375 56.203125 224.496094 54.859375 222.410156 C 52.65625 218.984375 52.523438 217.152344 53.023438 214.050781 C 53.4375 211.46875 54.25 211.839844 54.289063 213.726563 C 54.34375 216.378906 57.179688 218.199219 55.824219 221.003906 C 55.0625 222.574219 56.429688 223.171875 57.128906 222.722656 C 58.605469 221.769531 59.742188 219.695313 58.589844 217.355469 C 56.867188 213.851563 54.546875 208.890625 56.414063 205.867188 C 57.519531 204.070313 57.585938 202.949219 55.128906 204.332031 "/>
<path style=" stroke:none;fill-rule:nonzero;fill:rgb(0%,0%,0%);fill-opacity:1;" d="M 47.230469 218.550781 C 45.941406 218.296875 44.722656 218.984375 44.503906 220.089844 C 44.285156 221.191406 45.152344 222.292969 46.441406 222.546875 C 47.726563 222.800781 48.949219 222.113281 49.164063 221.011719 C 49.382813 219.90625 48.515625 218.808594 47.230469 218.550781 "/>
<path style=" stroke:none;fill-rule:nonzero;fill:rgb(0%,0%,0%);fill-opacity:1;" d="M 50.550781 225.53125 C 50.402344 226.300781 51.105469 227.085938 52.128906 227.285156 C 53.148438 227.488281 54.101563 227.03125 54.253906 226.265625 C 54.402344 225.496094 53.699219 224.714844 52.675781 224.511719 C 51.65625 224.308594 50.703125 224.765625 50.550781 225.53125 "/>
<path style=" stroke:none;fill-rule:nonzero;fill:rgb(0%,0%,0%);fill-opacity:1;" d="M 37.097656 223.476563 C 36.945313 224.242188 37.652344 225.027344 38.671875 225.230469 C 39.695313 225.433594 40.644531 224.976563 40.796875 224.210938 C 40.949219 223.441406 40.242188 222.65625 39.222656 222.457031 C 38.199219 222.253906 37.25 222.710938 37.097656 223.476563 "/>
<path style=" stroke:none;fill-rule:nonzero;fill:rgb(0%,0%,0%);fill-opacity:1;" d="M 33.085938 261.484375 C 31.808594 261.230469 30.570313 262.0625 30.316406 263.339844 C 30.0625 264.617188 30.894531 265.855469 32.171875 266.109375 C 33.449219 266.359375 34.6875 265.53125 34.941406 264.253906 C 35.195313 262.976563 34.363281 261.738281 33.085938 261.484375 "/>
<path style=" stroke:none;fill-rule:nonzero;fill:rgb(0%,0%,0%);fill-opacity:1;" d="M 26.664063 250.355469 C 25.132813 250.050781 23.6875 250.839844 23.433594 252.117188 C 23.179688 253.394531 24.21875 254.675781 25.75 254.980469 C 27.285156 255.28125 28.730469 254.492188 28.984375 253.214844 C 29.234375 251.9375 28.199219 250.65625 26.664063 250.355469 "/>
<path style=" stroke:none;fill-rule:nonzero;fill:rgb(0%,0%,0%);fill-opacity:1;" d="M 24.828125 263.714844 C 23.378906 263.429688 22.003906 264.203125 21.761719 265.441406 C 21.515625 266.683594 22.488281 267.921875 23.9375 268.210938 C 25.386719 268.496094 26.757813 267.722656 27.003906 266.480469 C 27.25 265.238281 26.273438 264 24.828125 263.714844 "/>
<path style=" stroke:none;fill-rule:nonzero;fill:rgb(0%,0%,0%);fill-opacity:1;" d="M 25.695313 244.25 C 24.246094 243.964844 22.871094 244.738281 22.628906 245.980469 C 22.382813 247.222656 23.355469 248.460938 24.804688 248.746094 C 26.253906 249.03125 27.625 248.257813 27.871094 247.015625 C 28.117188 245.773438 27.140625 244.535156 25.695313 244.25 "/>
<path style=" stroke:none;fill-rule:nonzero;fill:rgb(0%,0%,0%);fill-opacity:1;" d="M 25.96875 258.265625 C 24.691406 258.011719 23.453125 258.84375 23.199219 260.121094 C 22.949219 261.398438 23.777344 262.636719 25.054688 262.890625 C 26.332031 263.140625 27.574219 262.3125 27.824219 261.035156 C 28.078125 259.757813 27.246094 258.519531 25.96875 258.265625 "/>
<path style=" stroke:none;fill-rule:nonzero;fill:rgb(0%,0%,0%);fill-opacity:1;" d="M 31.207031 267.027344 C 29.929688 266.777344 28.730469 267.398438 28.53125 268.421875 C 28.328125 269.441406 29.199219 270.476563 30.476563 270.730469 C 31.753906 270.980469 32.953125 270.359375 33.152344 269.335938 C 33.355469 268.316406 32.484375 267.28125 31.207031 267.027344 "/>
<path style=" stroke:none;fill-rule:nonzero;fill:rgb(0%,0%,0%);fill-opacity:1;" d="M 65.402344 224.835938 C 65.65625 223.558594 64.828125 222.320313 63.550781 222.066406 C 62.273438 221.8125 61.03125 222.644531 60.78125 223.921875 C 60.527344 225.199219 61.355469 226.4375 62.636719 226.691406 C 63.910156 226.945313 65.152344 226.113281 65.402344 224.835938 "/>
<path style=" stroke:none;fill-rule:nonzero;fill:rgb(0%,0%,0%);fill-opacity:1;" d="M 197.347656 149.011719 C 197.648438 150.542969 199.449219 151.480469 201.363281 151.101563 C 203.28125 150.722656 204.585938 149.171875 204.285156 147.640625 C 203.980469 146.105469 202.183594 145.171875 200.265625 145.550781 C 198.351563 145.929688 197.042969 147.480469 197.347656 149.011719 "/>
<path style=" stroke:none;fill-rule:nonzero;fill:rgb(0%,0%,0%);fill-opacity:1;" d="M 195.519531 151.429688 C 195.191406 149.769531 193.371094 148.730469 191.457031 149.109375 C 189.539063 149.488281 188.253906 151.140625 188.582031 152.800781 C 188.910156 154.460938 190.730469 155.5 192.644531 155.121094 C 194.5625 154.742188 195.847656 153.089844 195.519531 151.429688 "/>
<path style=" stroke:none;fill-rule:nonzero;fill:rgb(0%,0%,0%);fill-opacity:1;" d="M 196.4375 163.996094 C 197.972656 163.691406 199.007813 162.410156 198.757813 161.136719 C 198.503906 159.855469 197.058594 159.066406 195.523438 159.371094 C 193.992188 159.675781 192.953125 160.953125 193.207031 162.230469 C 193.460938 163.507813 194.90625 164.296875 196.4375 163.996094 "/>
<path style=" stroke:none;fill-rule:nonzero;fill:rgb(0%,0%,0%);fill-opacity:1;" d="M 188.722656 161.925781 C 190.511719 161.570313 191.714844 160.042969 191.410156 158.507813 C 191.109375 156.976563 189.414063 156.019531 187.628906 156.375 C 185.839844 156.730469 184.636719 158.257813 184.9375 159.789063 C 185.242188 161.320313 186.9375 162.277344 188.722656 161.925781 "/>
<path style=" stroke:none;fill-rule:nonzero;fill:rgb(0%,0%,0%);fill-opacity:1;" d="M 199.292969 157.808594 C 200.824219 157.503906 201.863281 156.222656 201.609375 154.945313 C 201.355469 153.671875 199.910156 152.878906 198.378906 153.183594 C 196.847656 153.484375 195.808594 154.765625 196.0625 156.042969 C 196.3125 157.320313 197.761719 158.109375 199.292969 157.808594 "/>
<path style=" stroke:none;fill-rule:nonzero;fill:rgb(0%,0%,0%);fill-opacity:1;" d="M 205.253906 152.71875 C 203.464844 153.074219 202.261719 154.601563 202.5625 156.132813 C 202.867188 157.667969 204.5625 158.621094 206.351563 158.269531 C 208.136719 157.914063 209.339844 156.386719 209.039063 154.855469 C 208.734375 153.320313 207.039063 152.367188 205.253906 152.71875 "/>
<path style=" stroke:none;fill-rule:nonzero;fill:rgb(0%,0%,0%);fill-opacity:1;" d="M 209.117188 146.488281 C 207.328125 146.84375 206.085938 148.164063 206.335938 149.441406 C 206.589844 150.71875 208.242188 151.46875 210.03125 151.113281 C 211.820313 150.761719 213.0625 149.4375 212.8125 148.160156 C 212.558594 146.882813 210.90625 146.136719 209.117188 146.488281 "/>
<path style=" stroke:none;fill-rule:nonzero;fill:rgb(0%,0%,0%);fill-opacity:1;" d="M 214.027344 142.121094 C 212.496094 142.421875 211.460938 143.703125 211.710938 144.980469 C 211.964844 146.257813 213.410156 147.046875 214.945313 146.746094 C 216.476563 146.441406 217.515625 145.160156 217.261719 143.882813 C 217.007813 142.605469 215.5625 141.816406 214.027344 142.121094 "/>
<path style=" stroke:none;fill-rule:nonzero;fill:rgb(0%,0%,0%);fill-opacity:1;" d="M 203.757813 164.925781 C 205.546875 164.574219 206.789063 163.25 206.539063 161.972656 C 206.285156 160.695313 204.632813 159.949219 202.84375 160.300781 C 201.054688 160.65625 199.8125 161.976563 200.0625 163.253906 C 200.316406 164.53125 201.972656 165.28125 203.757813 164.925781 "/>
<path style=" stroke:none;fill-rule:nonzero;fill:rgb(0%,0%,0%);fill-opacity:1;" d="M 199.433594 170.539063 C 200.964844 170.234375 202.003906 168.953125 201.75 167.679688 C 201.496094 166.402344 200.050781 165.613281 198.519531 165.914063 C 196.984375 166.21875 195.949219 167.5 196.199219 168.777344 C 196.453125 170.054688 197.898438 170.84375 199.433594 170.539063 "/>
<path style=" stroke:none;fill-rule:nonzero;fill:rgb(0%,0%,0%);fill-opacity:1;" d="M 207.429688 161.117188 C 207.679688 162.394531 209.128906 163.183594 210.660156 162.882813 C 212.191406 162.578125 213.230469 161.296875 212.976563 160.019531 C 212.726563 158.742188 211.277344 157.953125 209.746094 158.257813 C 208.214844 158.5625 207.175781 159.84375 207.429688 161.117188 "/>
<path style=" stroke:none;fill-rule:nonzero;fill:rgb(0%,0%,0%);fill-opacity:1;" d="M 215.703125 153.195313 C 215.402344 151.664063 213.914063 150.667969 212.382813 150.96875 C 210.847656 151.273438 209.851563 152.761719 210.15625 154.292969 C 210.460938 155.824219 211.945313 156.820313 213.480469 156.519531 C 215.011719 156.214844 216.007813 154.726563 215.703125 153.195313 "/>
<path style=" stroke:none;fill-rule:nonzero;fill:rgb(0%,0%,0%);fill-opacity:1;" d="M 207.832031 170.066406 C 209.621094 169.714844 210.867188 168.390625 210.613281 167.113281 C 210.359375 165.839844 208.707031 165.089844 206.917969 165.441406 C 205.132813 165.796875 203.886719 167.117188 204.140625 168.394531 C 204.390625 169.671875 206.046875 170.421875 207.832031 170.066406 "/>
<path style=" stroke:none;fill-rule:nonzero;fill:rgb(0%,0%,0%);fill-opacity:1;" d="M 203.753906 175.121094 C 205.03125 174.867188 205.859375 173.628906 205.609375 172.351563 C 205.355469 171.074219 204.117188 170.242188 202.839844 170.496094 C 201.5625 170.75 200.730469 171.988281 200.984375 173.265625 C 201.234375 174.542969 202.476563 175.375 203.753906 175.121094 "/>
<path style=" stroke:none;fill-rule:nonzero;fill:rgb(0%,0%,0%);fill-opacity:1;" d="M 193.402344 174.421875 C 195.191406 174.066406 196.394531 172.539063 196.09375 171.007813 C 195.789063 169.472656 194.09375 168.519531 192.304688 168.871094 C 190.519531 169.226563 189.316406 170.753906 189.617188 172.285156 C 189.921875 173.816406 191.617188 174.773438 193.402344 174.421875 "/>
<path style=" stroke:none;fill-rule:nonzero;fill:rgb(0%,0%,0%);fill-opacity:1;" d="M 199.128906 179.78125 C 200.917969 179.429688 202.121094 177.898438 201.820313 176.367188 C 201.515625 174.835938 199.820313 173.878906 198.03125 174.230469 C 196.246094 174.585938 195.042969 176.113281 195.34375 177.648438 C 195.648438 179.179688 197.34375 180.136719 199.128906 179.78125 "/>
<path style=" stroke:none;fill-rule:nonzero;fill:rgb(0%,0%,0%);fill-opacity:1;" d="M 212.085938 166.484375 C 212.390625 168.015625 214.085938 168.972656 215.871094 168.617188 C 217.660156 168.265625 218.863281 166.734375 218.558594 165.203125 C 218.257813 163.671875 216.5625 162.714844 214.773438 163.070313 C 212.984375 163.421875 211.78125 164.949219 212.085938 166.484375 "/>
<path style=" stroke:none;fill-rule:nonzero;fill:rgb(0%,0%,0%);fill-opacity:1;" d="M 220.003906 158.460938 C 219.75 157.183594 218.511719 156.355469 217.234375 156.605469 C 215.957031 156.859375 215.128906 158.101563 215.378906 159.378906 C 215.632813 160.652344 216.871094 161.484375 218.148438 161.230469 C 219.425781 160.980469 220.257813 159.738281 220.003906 158.460938 "/>
<path style=" stroke:none;fill-rule:nonzero;fill:rgb(0%,0%,0%);fill-opacity:1;" d="M 220.023438 155.253906 C 221.300781 155 222.132813 153.761719 221.878906 152.484375 C 221.628906 151.207031 220.386719 150.378906 219.109375 150.628906 C 217.832031 150.882813 217.003906 152.121094 217.253906 153.398438 C 217.507813 154.675781 218.746094 155.507813 220.023438 155.253906 "/>
<path style=" stroke:none;fill-rule:nonzero;fill:rgb(0%,0%,0%);fill-opacity:1;" d="M 214.09375 175.085938 C 215.878906 174.734375 217.085938 173.203125 216.78125 171.671875 C 216.476563 170.140625 214.78125 169.183594 212.996094 169.535156 C 211.207031 169.890625 210.003906 171.417969 210.308594 172.953125 C 210.609375 174.484375 212.304688 175.441406 214.09375 175.085938 "/>
<path style=" stroke:none;fill-rule:nonzero;fill:rgb(0%,0%,0%);fill-opacity:1;" d="M 208.628906 177.601563 C 209.902344 177.347656 210.773438 176.316406 210.574219 175.296875 C 210.371094 174.273438 209.171875 173.648438 207.894531 173.902344 C 206.617188 174.152344 205.746094 175.1875 205.949219 176.210938 C 206.152344 177.230469 207.351563 177.855469 208.628906 177.601563 "/>
<path style=" stroke:none;fill-rule:nonzero;fill:rgb(0%,0%,0%);fill-opacity:1;" d="M 205.640625 183.410156 C 207.171875 183.109375 208.210938 181.828125 207.957031 180.550781 C 207.703125 179.273438 206.257813 178.484375 204.722656 178.785156 C 203.191406 179.089844 202.152344 180.371094 202.40625 181.648438 C 202.660156 182.925781 204.105469 183.714844 205.640625 183.410156 "/>
<path style=" stroke:none;fill-rule:nonzero;fill:rgb(0%,0%,0%);fill-opacity:1;" d="M 211.5625 182.921875 C 212.839844 182.667969 213.671875 181.429688 213.421875 180.152344 C 213.167969 178.875 211.925781 178.042969 210.648438 178.296875 C 209.371094 178.550781 208.542969 179.789063 208.796875 181.066406 C 209.046875 182.34375 210.289063 183.171875 211.5625 182.921875 "/>
<path style=" stroke:none;fill-rule:nonzero;fill:rgb(0%,0%,0%);fill-opacity:1;" d="M 216.972656 179.332031 C 218.246094 179.078125 219.121094 178.046875 218.917969 177.023438 C 218.714844 176.003906 217.515625 175.378906 216.238281 175.632813 C 214.964844 175.886719 214.089844 176.917969 214.292969 177.941406 C 214.496094 178.960938 215.695313 179.585938 216.972656 179.332031 "/>
<path style=" stroke:none;fill-rule:nonzero;fill:rgb(0%,0%,0%);fill-opacity:1;" d="M 216.402344 184.910156 C 217.425781 184.710938 218.089844 183.71875 217.886719 182.695313 C 217.6875 181.675781 216.695313 181.011719 215.671875 181.214844 C 214.652344 181.414063 213.984375 182.40625 214.1875 183.429688 C 214.390625 184.449219 215.382813 185.113281 216.402344 184.910156 "/>
<path style=" stroke:none;fill-rule:nonzero;fill:rgb(0%,0%,0%);fill-opacity:1;" d="M 221.390625 160.566406 C 221.644531 161.84375 222.882813 162.671875 224.160156 162.421875 C 225.4375 162.167969 226.269531 160.929688 226.015625 159.652344 C 225.761719 158.375 224.523438 157.542969 223.246094 157.796875 C 221.96875 158.050781 221.136719 159.289063 221.390625 160.566406 "/>
<path style=" stroke:none;fill-rule:nonzero;fill:rgb(0%,0%,0%);fill-opacity:1;" d="M 224.898438 166.679688 C 224.644531 165.402344 223.199219 164.613281 221.664063 164.917969 C 220.132813 165.21875 219.097656 166.5 219.347656 167.777344 C 219.601563 169.054688 221.046875 169.84375 222.578125 169.539063 C 224.113281 169.238281 225.148438 167.957031 224.898438 166.679688 "/>
<path style=" stroke:none;fill-rule:nonzero;fill:rgb(0%,0%,0%);fill-opacity:1;" d="M 231.753906 175.882813 C 231.535156 174.78125 230.316406 174.09375 229.027344 174.347656 C 227.742188 174.601563 226.875 175.703125 227.09375 176.804688 C 227.3125 177.910156 228.53125 178.597656 229.820313 178.34375 C 231.105469 178.089844 231.972656 176.988281 231.753906 175.882813 "/>
<path style=" stroke:none;fill-rule:nonzero;fill:rgb(0%,0%,0%);fill-opacity:1;" d="M 228.980469 151.246094 C 228.730469 149.96875 227.28125 149.179688 225.75 149.480469 C 224.21875 149.785156 223.179688 151.066406 223.433594 152.34375 C 223.683594 153.621094 225.132813 154.410156 226.664063 154.105469 C 228.195313 153.804688 229.234375 152.523438 228.980469 151.246094 "/>
<path style=" stroke:none;fill-rule:nonzero;fill:rgb(0%,0%,0%);fill-opacity:1;" d="M 224.121094 173.277344 C 223.921875 172.257813 222.722656 171.632813 221.445313 171.886719 C 220.167969 172.136719 219.296875 173.171875 219.496094 174.191406 C 219.699219 175.214844 220.898438 175.835938 222.175781 175.585938 C 223.453125 175.332031 224.324219 174.300781 224.121094 173.277344 "/>
<path style=" stroke:none;fill-rule:nonzero;fill:rgb(0%,0%,0%);fill-opacity:1;" d="M 219.648438 181.976563 C 219.851563 183 220.84375 183.664063 221.863281 183.460938 C 222.886719 183.257813 223.550781 182.265625 223.347656 181.246094 C 223.148438 180.222656 222.15625 179.558594 221.132813 179.761719 C 220.113281 179.964844 219.445313 180.957031 219.648438 181.976563 "/>
<path style=" stroke:none;fill-rule:nonzero;fill:rgb(0%,0%,0%);fill-opacity:1;" d="M 225.449219 177.261719 C 225.296875 176.496094 224.347656 176.039063 223.324219 176.242188 C 222.304688 176.441406 221.597656 177.226563 221.75 177.992188 C 221.902344 178.761719 222.851563 179.21875 223.875 179.015625 C 224.894531 178.8125 225.601563 178.027344 225.449219 177.261719 "/>
<path style=" stroke:none;fill-rule:nonzero;fill:rgb(0%,0%,0%);fill-opacity:1;" d="M 217.21875 148.082031 C 217.46875 149.359375 218.914063 150.148438 220.449219 149.84375 C 221.980469 149.542969 223.019531 148.261719 222.765625 146.984375 C 222.515625 145.707031 221.066406 144.917969 219.535156 145.222656 C 218.003906 145.523438 216.964844 146.804688 217.21875 148.082031 "/>
<path style=" stroke:none;fill-rule:nonzero;fill:rgb(0%,0%,0%);fill-opacity:1;" d="M 227.671875 168.109375 C 226.222656 168.394531 225.25 169.636719 225.496094 170.875 C 225.738281 172.117188 227.113281 172.890625 228.5625 172.605469 C 230.007813 172.320313 230.984375 171.078125 230.738281 169.839844 C 230.492188 168.597656 229.121094 167.824219 227.671875 168.109375 "/>
<path style=" stroke:none;fill-rule:nonzero;fill:rgb(0%,0%,0%);fill-opacity:1;" d="M 230.953125 163.542969 C 230.710938 162.300781 229.335938 161.527344 227.890625 161.8125 C 226.441406 162.097656 225.464844 163.335938 225.710938 164.578125 C 225.957031 165.820313 227.328125 166.59375 228.777344 166.308594 C 230.226563 166.019531 231.199219 164.78125 230.953125 163.542969 "/>
<path style=" stroke:none;fill-rule:nonzero;fill:rgb(0%,0%,0%);fill-opacity:1;" d="M 232.132813 157.933594 C 231.878906 156.65625 230.640625 155.824219 229.363281 156.078125 C 228.085938 156.328125 227.253906 157.570313 227.507813 158.847656 C 227.757813 160.125 229 160.953125 230.277344 160.703125 C 231.554688 160.449219 232.382813 159.210938 232.132813 157.933594 "/>
<path style=" stroke:none;fill-rule:nonzero;fill:rgb(0%,0%,0%);fill-opacity:1;" d="M 191.167969 167.414063 C 192.445313 167.164063 193.277344 165.925781 193.023438 164.648438 C 192.769531 163.371094 191.53125 162.539063 190.253906 162.792969 C 188.976563 163.042969 188.148438 164.285156 188.398438 165.5625 C 188.652344 166.839844 189.890625 167.667969 191.167969 167.414063 "/>
<path style=" stroke:none;fill-rule:nonzero;fill:rgb(0%,0%,0%);fill-opacity:1;" d="M 182.964844 144.746094 C 184.890625 147.128906 187.800781 147.316406 189.671875 146.546875 C 190.554688 146.183594 190.664063 144.621094 188.515625 144.390625 C 184.683594 143.980469 184.273438 140.398438 181.394531 138.816406 C 179.347656 137.695313 179.394531 136.753906 182.460938 137.875 C 186.136719 139.222656 188.074219 140.398438 190.597656 144.34375 C 192.136719 146.746094 194.652344 145.816406 193.6875 143.785156 C 188.953125 133.824219 176.9375 131.101563 170.621094 134.140625 C 167.730469 135.527344 169 136.121094 171.589844 136.171875 C 175.949219 136.253906 180.089844 141.191406 182.964844 144.746094 "/>
<path style=" stroke:none;fill-rule:nonzero;fill:rgb(0%,0%,0%);fill-opacity:1;" d="M 201.957031 119.546875 C 199.550781 118.195313 199.820313 119.453125 201.125 121.382813 C 203.328125 124.628906 202.230469 130.40625 201.386719 134.492188 C 200.820313 137.226563 202.203125 139.46875 203.679688 140.414063 C 204.371094 140.859375 205.453125 140.074219 204.492188 138.371094 C 202.78125 135.328125 204.914063 133.039063 204.464844 130.050781 C 204.140625 127.925781 204.785156 127.4375 205.632813 130.308594 C 206.652344 133.757813 206.882813 135.832031 205.601563 139.875 C 204.820313 142.335938 207.121094 142.507813 207.953125 140.671875 C 212.28125 131.132813 207.703125 122.769531 201.957031 119.546875 "/>
<path style=" stroke:none;fill-rule:nonzero;fill:rgb(0%,0%,0%);fill-opacity:1;" d="M 212.976563 137.21875 C 211.6875 137.472656 210.820313 138.574219 211.039063 139.675781 C 211.257813 140.78125 212.476563 141.46875 213.765625 141.214844 C 215.050781 140.960938 215.917969 139.859375 215.699219 138.753906 C 215.484375 137.652344 214.261719 136.964844 212.976563 137.21875 "/>
<path style=" stroke:none;fill-rule:nonzero;fill:rgb(0%,0%,0%);fill-opacity:1;" d="M 207.527344 143.179688 C 206.507813 143.378906 205.800781 144.164063 205.953125 144.929688 C 206.105469 145.695313 207.054688 146.152344 208.078125 145.953125 C 209.097656 145.75 209.804688 144.964844 209.652344 144.199219 C 209.5 143.433594 208.550781 142.976563 207.527344 143.179688 "/>
<path style=" stroke:none;fill-rule:nonzero;fill:rgb(0%,0%,0%);fill-opacity:1;" d="M 221.53125 143.898438 C 222.554688 143.695313 223.257813 142.910156 223.105469 142.144531 C 222.957031 141.378906 222.003906 140.921875 220.984375 141.121094 C 219.960938 141.324219 219.257813 142.109375 219.40625 142.875 C 219.558594 143.640625 220.511719 144.097656 221.53125 143.898438 "/>
<path style=" stroke:none;fill-rule:nonzero;fill:rgb(0%,0%,0%);fill-opacity:1;" d="M 228.03125 184.773438 C 229.308594 184.523438 230.140625 183.28125 229.886719 182.007813 C 229.636719 180.730469 228.394531 179.898438 227.117188 180.152344 C 225.84375 180.402344 225.011719 181.644531 225.265625 182.921875 C 225.515625 184.195313 226.757813 185.027344 228.03125 184.773438 "/>
<path style=" stroke:none;fill-rule:nonzero;fill:rgb(0%,0%,0%);fill-opacity:1;" d="M 218.953125 193.8125 C 220.484375 193.507813 221.523438 192.226563 221.269531 190.953125 C 221.019531 189.675781 219.570313 188.886719 218.039063 189.1875 C 216.507813 189.492188 215.46875 190.773438 215.722656 192.050781 C 215.972656 193.324219 217.421875 194.113281 218.953125 193.8125 "/>
<path style=" stroke:none;fill-rule:nonzero;fill:rgb(0%,0%,0%);fill-opacity:1;" d="M 222.769531 188.875 C 224.214844 188.589844 225.191406 187.351563 224.945313 186.109375 C 224.699219 184.867188 223.328125 184.09375 221.878906 184.382813 C 220.429688 184.667969 219.453125 185.90625 219.699219 187.148438 C 219.945313 188.386719 221.320313 189.160156 222.769531 188.875 "/>
<path style=" stroke:none;fill-rule:nonzero;fill:rgb(0%,0%,0%);fill-opacity:1;" d="M 212.816406 189.054688 C 214.09375 188.804688 214.921875 187.5625 214.671875 186.285156 C 214.417969 185.011719 213.179688 184.179688 211.902344 184.433594 C 210.625 184.683594 209.792969 185.925781 210.046875 187.199219 C 210.300781 188.476563 211.539063 189.308594 212.816406 189.054688 "/>
<path style=" stroke:none;fill-rule:nonzero;fill:rgb(0%,0%,0%);fill-opacity:1;" d="M 196.65625 140.734375 C 195.378906 140.984375 194.546875 142.226563 194.800781 143.503906 C 195.054688 144.78125 196.292969 145.609375 197.570313 145.359375 C 198.847656 145.105469 199.679688 143.867188 199.425781 142.589844 C 199.171875 141.3125 197.933594 140.480469 196.65625 140.734375 "/>
<path style=" stroke:none;fill-rule:nonzero;fill:rgb(0%,0%,0%);fill-opacity:1;" d="M 40.210938 167.339844 C 38.707031 166.921875 37.0625 168.105469 36.539063 169.988281 C 36.019531 171.867188 36.816406 173.734375 38.320313 174.152344 C 39.824219 174.570313 41.46875 173.382813 41.992188 171.503906 C 42.515625 169.621094 41.71875 167.757813 40.210938 167.339844 "/>
<path style=" stroke:none;fill-rule:nonzero;fill:rgb(0%,0%,0%);fill-opacity:1;" d="M 31.871094 178.378906 C 31.347656 180.257813 32.246094 182.152344 33.878906 182.605469 C 35.507813 183.058594 37.253906 181.898438 37.777344 180.019531 C 38.300781 178.136719 37.402344 176.242188 35.769531 175.789063 C 34.140625 175.339844 32.394531 176.496094 31.871094 178.378906 "/>
<path style=" stroke:none;fill-rule:nonzero;fill:rgb(0%,0%,0%);fill-opacity:1;" d="M 24.824219 177.28125 C 26.078125 177.628906 27.433594 176.691406 27.851563 175.183594 C 28.269531 173.679688 27.589844 172.175781 26.335938 171.828125 C 25.082031 171.480469 23.726563 172.417969 23.308594 173.921875 C 22.890625 175.429688 23.570313 176.929688 24.824219 177.28125 "/>
<path style=" stroke:none;fill-rule:nonzero;fill:rgb(0%,0%,0%);fill-opacity:1;" d="M 30.242188 183.285156 C 30.730469 181.53125 29.90625 179.769531 28.398438 179.351563 C 26.894531 178.933594 25.277344 180.015625 24.789063 181.773438 C 24.304688 183.527344 25.128906 185.289063 26.632813 185.710938 C 28.136719 186.128906 29.753906 185.042969 30.242188 183.285156 "/>
<path style=" stroke:none;fill-rule:nonzero;fill:rgb(0%,0%,0%);fill-opacity:1;" d="M 31.210938 174.902344 C 32.464844 175.25 33.820313 174.3125 34.238281 172.808594 C 34.65625 171.300781 33.976563 169.800781 32.722656 169.453125 C 31.46875 169.101563 30.113281 170.039063 29.695313 171.546875 C 29.277344 173.050781 29.953125 174.554688 31.210938 174.902344 "/>
<path style=" stroke:none;fill-rule:nonzero;fill:rgb(0%,0%,0%);fill-opacity:1;" d="M 33.378906 162.050781 C 31.871094 161.632813 30.257813 162.71875 29.769531 164.472656 C 29.28125 166.230469 30.105469 167.992188 31.609375 168.410156 C 33.117188 168.828125 34.730469 167.742188 35.21875 165.988281 C 35.707031 164.230469 34.882813 162.46875 33.378906 162.050781 "/>
<path style=" stroke:none;fill-rule:nonzero;fill:rgb(0%,0%,0%);fill-opacity:1;" d="M 37.183594 161.34375 C 36.695313 163.101563 37.316406 164.804688 38.570313 165.152344 C 39.824219 165.503906 41.234375 164.363281 41.722656 162.605469 C 42.210938 160.851563 41.589844 159.144531 40.335938 158.796875 C 39.082031 158.445313 37.667969 159.589844 37.183594 161.34375 "/>
<path style=" stroke:none;fill-rule:nonzero;fill:rgb(0%,0%,0%);fill-opacity:1;" d="M 44.9375 154.683594 C 43.683594 154.335938 42.328125 155.269531 41.910156 156.777344 C 41.492188 158.28125 42.167969 159.785156 43.425781 160.132813 C 44.679688 160.480469 46.035156 159.542969 46.453125 158.039063 C 46.871094 156.53125 46.191406 155.03125 44.9375 154.683594 "/>
<path style=" stroke:none;fill-rule:nonzero;fill:rgb(0%,0%,0%);fill-opacity:1;" d="M 24.324219 170.363281 C 25.578125 170.714844 26.988281 169.570313 27.476563 167.816406 C 27.964844 166.058594 27.34375 164.355469 26.089844 164.007813 C 24.835938 163.65625 23.421875 164.796875 22.933594 166.554688 C 22.445313 168.308594 23.066406 170.015625 24.324219 170.363281 "/>
<path style=" stroke:none;fill-rule:nonzero;fill:rgb(0%,0%,0%);fill-opacity:1;" d="M 21.550781 171.707031 C 21.96875 170.199219 21.292969 168.699219 20.039063 168.351563 C 18.785156 168 17.429688 168.9375 17.011719 170.445313 C 16.59375 171.949219 17.269531 173.453125 18.523438 173.800781 C 19.777344 174.148438 21.132813 173.210938 21.550781 171.707031 "/>
<path style=" stroke:none;fill-rule:nonzero;fill:rgb(0%,0%,0%);fill-opacity:1;" d="M 25.496094 159.828125 C 25.078125 161.332031 25.753906 162.835938 27.007813 163.183594 C 28.261719 163.53125 29.617188 162.59375 30.035156 161.089844 C 30.457031 159.585938 29.777344 158.082031 28.523438 157.734375 C 27.269531 157.386719 25.914063 158.320313 25.496094 159.828125 "/>
<path style=" stroke:none;fill-rule:nonzero;fill:rgb(0%,0%,0%);fill-opacity:1;" d="M 32.050781 157.496094 C 31.636719 159.003906 32.515625 160.5625 34.019531 160.980469 C 35.527344 161.398438 37.085938 160.515625 37.503906 159.011719 C 37.921875 157.507813 37.039063 155.949219 35.535156 155.527344 C 34.03125 155.109375 32.472656 155.992188 32.050781 157.496094 "/>
<path style=" stroke:none;fill-rule:nonzero;fill:rgb(0%,0%,0%);fill-opacity:1;" d="M 18.117188 162.101563 C 17.628906 163.859375 18.25 165.5625 19.503906 165.914063 C 20.757813 166.261719 22.171875 165.121094 22.660156 163.363281 C 23.148438 161.609375 22.527344 159.902344 21.269531 159.554688 C 20.015625 159.203125 18.605469 160.347656 18.117188 162.101563 "/>
<path style=" stroke:none;fill-rule:nonzero;fill:rgb(0%,0%,0%);fill-opacity:1;" d="M 14.410156 168.691406 C 15.664063 169.039063 16.960938 168.304688 17.308594 167.050781 C 17.660156 165.796875 16.925781 164.496094 15.671875 164.148438 C 14.414063 163.800781 13.117188 164.535156 12.769531 165.789063 C 12.417969 167.042969 13.15625 168.34375 14.410156 168.691406 "/>
<path style=" stroke:none;fill-rule:nonzero;fill:rgb(0%,0%,0%);fill-opacity:1;" d="M 16.292969 173.738281 C 14.789063 173.320313 13.171875 174.40625 12.683594 176.160156 C 12.195313 177.917969 13.023438 179.679688 14.527344 180.097656 C 16.03125 180.515625 17.648438 179.429688 18.136719 177.675781 C 18.621094 175.921875 17.796875 174.15625 16.292969 173.738281 "/>
<path style=" stroke:none;fill-rule:nonzero;fill:rgb(0%,0%,0%);fill-opacity:1;" d="M 10.804688 168.582031 C 9.300781 168.164063 7.6875 169.25 7.199219 171.003906 C 6.710938 172.761719 7.535156 174.523438 9.039063 174.941406 C 10.542969 175.359375 12.160156 174.273438 12.648438 172.519531 C 13.136719 170.761719 12.3125 169 10.804688 168.582031 "/>
<path style=" stroke:none;fill-rule:nonzero;fill:rgb(0%,0%,0%);fill-opacity:1;" d="M 20.167969 154.195313 C 19.679688 155.953125 20.507813 157.714844 22.011719 158.132813 C 23.515625 158.550781 25.132813 157.46875 25.621094 155.710938 C 26.109375 153.953125 25.28125 152.191406 23.777344 151.773438 C 22.273438 151.355469 20.65625 152.441406 20.167969 154.195313 "/>
<path style=" stroke:none;fill-rule:nonzero;fill:rgb(0%,0%,0%);fill-opacity:1;" d="M 30.609375 150.84375 C 29.355469 150.496094 28.054688 151.230469 27.707031 152.484375 C 27.359375 153.738281 28.09375 155.039063 29.347656 155.386719 C 30.601563 155.734375 31.902344 155 32.25 153.746094 C 32.597656 152.492188 31.863281 151.191406 30.609375 150.84375 "/>
<path style=" stroke:none;fill-rule:nonzero;fill:rgb(0%,0%,0%);fill-opacity:1;" d="M 36.210938 148.425781 C 34.957031 148.078125 33.65625 148.8125 33.308594 150.066406 C 32.960938 151.320313 33.695313 152.621094 34.949219 152.96875 C 36.203125 153.316406 37.503906 152.582031 37.851563 151.328125 C 38.199219 150.074219 37.464844 148.773438 36.210938 148.425781 "/>
<path style=" stroke:none;fill-rule:nonzero;fill:rgb(0%,0%,0%);fill-opacity:1;" d="M 15.425781 159.417969 C 16.933594 159.835938 18.546875 158.753906 19.035156 156.996094 C 19.523438 155.238281 18.699219 153.476563 17.195313 153.058594 C 15.6875 152.640625 14.074219 153.726563 13.585938 155.480469 C 13.097656 157.238281 13.921875 159 15.425781 159.417969 "/>
<path style=" stroke:none;fill-rule:nonzero;fill:rgb(0%,0%,0%);fill-opacity:1;" d="M 14.296875 161.75 C 14.644531 160.496094 14.113281 159.253906 13.113281 158.976563 C 12.109375 158.695313 11.011719 159.488281 10.664063 160.742188 C 10.316406 161.996094 10.847656 163.238281 11.851563 163.515625 C 12.851563 163.796875 13.949219 163.003906 14.296875 161.75 "/>
<path style=" stroke:none;fill-rule:nonzero;fill:rgb(0%,0%,0%);fill-opacity:1;" d="M 8.230469 166.140625 C 8.648438 164.636719 7.96875 163.132813 6.714844 162.785156 C 5.460938 162.4375 4.105469 163.375 3.6875 164.878906 C 3.269531 166.386719 3.945313 167.886719 5.199219 168.234375 C 6.457031 168.585938 7.8125 167.648438 8.230469 166.140625 "/>
<path style=" stroke:none;fill-rule:nonzero;fill:rgb(0%,0%,0%);fill-opacity:1;" d="M 8.484375 155.769531 C 7.230469 155.421875 5.929688 156.15625 5.582031 157.410156 C 5.234375 158.664063 5.96875 159.964844 7.222656 160.3125 C 8.476563 160.660156 9.777344 159.925781 10.125 158.671875 C 10.472656 157.417969 9.738281 156.117188 8.484375 155.769531 "/>
<path style=" stroke:none;fill-rule:nonzero;fill:rgb(0%,0%,0%);fill-opacity:1;" d="M 10.753906 155.066406 C 11.757813 155.34375 12.855469 154.554688 13.203125 153.300781 C 13.550781 152.046875 13.019531 150.804688 12.015625 150.523438 C 11.011719 150.246094 9.917969 151.035156 9.570313 152.289063 C 9.21875 153.546875 9.75 154.785156 10.753906 155.066406 "/>
<path style=" stroke:none;fill-rule:nonzero;fill:rgb(0%,0%,0%);fill-opacity:1;" d="M 5.273438 154.753906 C 6.277344 155.035156 7.316406 154.445313 7.59375 153.441406 C 7.875 152.4375 7.289063 151.398438 6.285156 151.121094 C 5.28125 150.84375 4.242188 151.429688 3.960938 152.433594 C 3.683594 153.4375 4.269531 154.476563 5.273438 154.753906 "/>
<path style=" stroke:none;fill-rule:nonzero;fill:rgb(0%,0%,0%);fill-opacity:1;" d="M 3.152344 144.398438 C 2.148438 144.117188 0.996094 145.113281 0.578125 146.617188 C 0.160156 148.121094 0.632813 149.566406 1.636719 149.847656 C 2.640625 150.125 3.792969 149.132813 4.210938 147.628906 C 4.628906 146.121094 4.15625 144.675781 3.152344 144.398438 "/>
<path style=" stroke:none;fill-rule:nonzero;fill:rgb(0%,0%,0%);fill-opacity:1;" d="M 21.269531 150.792969 C 22.523438 151.140625 23.878906 150.203125 24.296875 148.699219 C 24.714844 147.195313 24.039063 145.691406 22.785156 145.34375 C 21.53125 144.996094 20.175781 145.933594 19.757813 147.4375 C 19.339844 148.941406 20.015625 150.445313 21.269531 150.792969 "/>
<path style=" stroke:none;fill-rule:nonzero;fill:rgb(0%,0%,0%);fill-opacity:1;" d="M 14.886719 150.160156 C 15.890625 150.4375 16.984375 149.648438 17.332031 148.394531 C 17.679688 147.140625 17.152344 145.894531 16.148438 145.617188 C 15.144531 145.339844 14.046875 146.128906 13.699219 147.382813 C 13.351563 148.636719 13.882813 149.878906 14.886719 150.160156 "/>
<path style=" stroke:none;fill-rule:nonzero;fill:rgb(0%,0%,0%);fill-opacity:1;" d="M 7.132813 149.421875 C 8.136719 149.699219 9.175781 149.109375 9.457031 148.105469 C 9.734375 147.105469 9.148438 146.0625 8.144531 145.785156 C 7.140625 145.507813 6.101563 146.09375 5.824219 147.097656 C 5.542969 148.101563 6.132813 149.140625 7.132813 149.421875 "/>
<path style=" stroke:none;fill-rule:nonzero;fill:rgb(0%,0%,0%);fill-opacity:1;" d="M 11.265625 147.625 C 12.019531 147.835938 12.851563 147.191406 13.132813 146.1875 C 13.410156 145.183594 13.027344 144.203125 12.273438 143.992188 C 11.523438 143.785156 10.683594 144.425781 10.40625 145.429688 C 10.128906 146.433594 10.511719 147.417969 11.265625 147.625 "/>
<path style=" stroke:none;fill-rule:nonzero;fill:rgb(0%,0%,0%);fill-opacity:1;" d="M 42.261719 148.957031 C 41.007813 148.609375 39.652344 149.546875 39.234375 151.054688 C 38.816406 152.558594 39.496094 154.058594 40.75 154.410156 C 42.003906 154.757813 43.359375 153.820313 43.777344 152.3125 C 44.195313 150.808594 43.515625 149.308594 42.261719 148.957031 "/>
<path style=" stroke:none;fill-rule:nonzero;fill:rgb(0%,0%,0%);fill-opacity:1;" d="M 24.042969 180.179688 C 24.390625 178.925781 23.65625 177.628906 22.402344 177.277344 C 21.148438 176.929688 19.847656 177.664063 19.5 178.921875 C 19.152344 180.175781 19.886719 181.472656 21.140625 181.820313 C 22.394531 182.171875 23.695313 181.4375 24.042969 180.179688 "/>
<path style=" stroke:none;fill-rule:nonzero;fill:rgb(0%,0%,0%);fill-opacity:1;" d="M 43.117188 183.910156 C 42.5625 183.410156 41.261719 183.742188 41.707031 185.246094 C 42.503906 187.9375 39.714844 189.144531 39.28125 191.492188 C 38.96875 193.164063 38.191406 193.378906 38.199219 191.019531 C 38.210938 188.191406 38.59375 186.582031 41.054688 183.855469 C 42.554688 182.195313 41.054688 180.742188 39.691406 181.921875 C 32.996094 187.695313 34.328125 196.496094 38.65625 199.96875 C 40.636719 201.558594 40.742188 200.546875 40.019531 198.789063 C 38.804688 195.828125 41.589844 191.757813 43.632813 188.898438 C 45 186.984375 44.292969 184.972656 43.117188 183.910156 "/>
<path style=" stroke:none;fill-rule:nonzero;fill:rgb(0%,0%,0%);fill-opacity:1;" d="M 58.285156 168.613281 C 55.640625 168.46875 53.609375 171.15625 50.914063 169.59375 C 49.40625 168.71875 48.707031 170.035156 49.101563 170.761719 C 49.941406 172.3125 51.921875 173.601563 54.34375 172.628906 C 57.96875 171.175781 63.089844 169.238281 65.964844 171.328125 C 67.667969 172.566406 68.785156 172.714844 67.59375 170.164063 C 64.742188 164.070313 57.34375 159.921875 48.878906 165.96875 C 47.253906 167.128906 47.402344 169.707031 49.585938 168.527344 C 53.167969 166.585938 55.007813 166.597656 58.058594 167.324219 C 60.605469 167.933594 60.171875 168.71875 58.285156 168.613281 "/>
<path style=" stroke:none;fill-rule:nonzero;fill:rgb(0%,0%,0%);fill-opacity:1;" d="M 49.933594 156.625 C 48.851563 156.324219 47.6875 157.105469 47.335938 158.371094 C 46.984375 159.632813 47.578125 160.902344 48.660156 161.203125 C 49.746094 161.503906 50.910156 160.722656 51.261719 159.460938 C 51.609375 158.195313 51.015625 156.925781 49.933594 156.625 "/>
<path style=" stroke:none;fill-rule:nonzero;fill:rgb(0%,0%,0%);fill-opacity:1;" d="M 43.039063 165.878906 C 43.792969 166.089844 44.628906 165.445313 44.90625 164.441406 C 45.183594 163.4375 44.800781 162.453125 44.046875 162.246094 C 43.296875 162.035156 42.460938 162.679688 42.179688 163.683594 C 41.902344 164.6875 42.285156 165.671875 43.039063 165.878906 "/>
<path style=" stroke:none;fill-rule:nonzero;fill:rgb(0%,0%,0%);fill-opacity:1;" d="M 28.613281 146.234375 C 27.863281 146.023438 27.027344 146.667969 26.746094 147.671875 C 26.46875 148.675781 26.851563 149.660156 27.605469 149.867188 C 28.359375 150.078125 29.195313 149.433594 29.472656 148.429688 C 29.75 147.425781 29.367188 146.441406 28.613281 146.234375 "/>
<path style=" stroke:none;fill-rule:nonzero;fill:rgb(0%,0%,0%);fill-opacity:1;" d="M 46.519531 175.46875 C 46.867188 174.210938 46.136719 172.914063 44.882813 172.566406 C 43.625 172.214844 42.328125 172.949219 41.980469 174.203125 C 41.628906 175.460938 42.363281 176.757813 43.617188 177.105469 C 44.871094 177.453125 46.171875 176.722656 46.519531 175.46875 "/>
<path style=" stroke:none;fill-rule:nonzero;fill:rgb(0%,0%,0%);fill-opacity:1;" d="M 78.382813 92.460938 C 101.734375 107.40625 122.808594 133.410156 133.71875 166.128906 C 136.050781 173.128906 136.382813 169.128906 135.382813 164.796875 C 128.71875 135.90625 105.910156 106.046875 79.382813 90.128906 C 72.71875 86.128906 73.386719 89.265625 78.382813 92.460938 "/>
<path style=" stroke:none;fill-rule:nonzero;fill:rgb(0%,0%,0%);fill-opacity:1;" d="M 55.21875 111.878906 C 54.96875 113.378906 54.71875 115.128906 51.21875 114.628906 C 45.007813 113.742188 42.425781 116.933594 39.46875 120.878906 C 37.21875 123.878906 29.46875 126.128906 26.21875 125.128906 C 22.96875 124.128906 22.796875 125.242188 26.96875 129.128906 C 39.949219 141.226563 51.066406 141.199219 58.96875 134.878906 C 61.46875 132.878906 63.21875 132.378906 66.71875 133.378906 C 71.632813 134.785156 81.214844 133.972656 83.96875 128.128906 C 85.96875 123.878906 90.660156 120.578125 95.21875 119.878906 C 98.46875 119.378906 96.96875 118.128906 93.96875 118.378906 C 90.96875 118.628906 83.96875 121.628906 81.21875 125.128906 C 77.492188 129.871094 77.109375 131.386719 67.46875 129.378906 C 61.46875 128.128906 58.96875 130.628906 52.71875 134.628906 C 44.425781 139.9375 34.757813 131.40625 32.46875 129.378906 C 30.023438 127.21875 31.21875 126.628906 34.21875 126.628906 C 37.21875 126.628906 39.71875 124.878906 41.96875 122.878906 C 44.21875 120.878906 48.46875 117.628906 53.21875 117.628906 C 57.96875 117.628906 61.21875 114.878906 62.21875 111.628906 C 63.878906 106.226563 74.136719 105.949219 77.71875 109.128906 C 79.96875 111.128906 84.46875 112.878906 88.21875 112.628906 C 91.96875 112.378906 90.71875 111.128906 88.21875 111.128906 C 85.71875 111.128906 84.46875 111.128906 80.71875 107.378906 C 76.109375 102.773438 56.992188 101.234375 55.21875 111.878906 "/>
<path style=" stroke:none;fill-rule:nonzero;fill:rgb(0%,0%,0%);fill-opacity:1;" d="M 57.96875 121.128906 C 52.46875 125.128906 47.46875 127.628906 44.46875 127.878906 C 41.46875 128.128906 39.96875 129.628906 44.71875 129.378906 C 49.46875 129.128906 55.71875 126.378906 59.46875 123.128906 C 65.558594 117.851563 74.375 116.992188 79.46875 118.378906 C 82.21875 119.128906 84.96875 118.128906 80.96875 116.878906 C 74.621094 114.894531 66.671875 114.796875 57.96875 121.128906 "/>
<path style=" stroke:none;fill-rule:nonzero;fill:rgb(0%,0%,0%);fill-opacity:1;" d="M 31.21875 65.128906 C 34.21875 65.628906 36.21875 66.878906 34.96875 70.378906 C 33.335938 74.945313 42.179688 84.8125 57.96875 83.378906 C 63.46875 82.878906 62.46875 81.128906 56.71875 81.128906 C 43.46875 81.128906 38.46875 75.128906 39.21875 69.128906 C 39.46875 67.128906 40.71875 64.628906 34.46875 63.128906 C 23.550781 60.507813 25.21875 50.25 25.21875 42.878906 C 25.21875 40.628906 25.21875 39.378906 26.71875 40.878906 C 28.21875 42.378906 29.46875 43.878906 34.71875 44.128906 C 39.96875 44.378906 50.96875 51.378906 51.21875 55.628906 C 51.46875 59.878906 54.71875 61.128906 60.96875 62.628906 C 67.21875 64.128906 67.71875 75.878906 67.21875 80.628906 C 66.71875 85.378906 68.71875 83.128906 69.46875 79.878906 C 72.441406 66.984375 65.824219 59.441406 60.21875 58.878906 C 57.71875 58.628906 53.71875 58.128906 54.21875 55.128906 C 55.078125 49.957031 43.605469 41.300781 34.71875 40.878906 C 29.46875 40.628906 24.757813 33.046875 24.21875 30.878906 C 23.71875 28.878906 21.71875 29.378906 22.21875 32.128906 C 22.71875 34.878906 22.570313 36.695313 21.46875 40.128906 C 17.816406 51.480469 24.617188 64.027344 31.21875 65.128906 "/>
<path style=" stroke:none;fill-rule:nonzero;fill:rgb(0%,0%,0%);fill-opacity:1;" d="M 61.480469 75.699219 C 58.863281 74.21875 55.371094 69.851563 52.050781 63.914063 C 46.800781 54.519531 39.539063 51.277344 32.949219 50.421875 C 28.792969 49.878906 30.871094 51.9375 33.683594 52.410156 C 38.886719 53.28125 46.535156 57.757813 49.851563 65.101563 C 51.894531 69.625 56.417969 74.742188 60.625 76.957031 C 64.832031 79.175781 64.101563 77.183594 61.480469 75.699219 "/>
<path style=" stroke:none;fill-rule:nonzero;fill:rgb(0%,0%,0%);fill-opacity:1;" d="M 92.566406 69.554688 C 94.933594 71.25 92.980469 75.023438 91.71875 77.335938 C 88.890625 82.527344 90.320313 93.527344 100.96875 100.113281 C 103.648438 101.773438 106.359375 101.65625 102.777344 98.71875 C 99.199219 95.785156 91.339844 87.039063 93.890625 80.632813 C 96.4375 74.226563 97.4375 70.5625 94.632813 67.34375 C 91.832031 64.117188 93.292969 49.757813 96.132813 45.09375 C 98.972656 40.429688 98.652344 38.296875 98.472656 35.953125 C 98.292969 33.609375 99.160156 34.496094 100.722656 36.085938 C 105.828125 41.304688 113.898438 47.144531 109.449219 58.332031 C 106.898438 64.738281 109.351563 65.4375 110.878906 66.640625 C 115.46875 70.246094 116.757813 78.769531 109.152344 90.097656 C 105.851563 95.011719 106.492188 97.105469 109.996094 92.757813 C 120.050781 80.277344 118.285156 65.730469 114.1875 63.890625 C 111.042969 62.484375 111.324219 59.886719 112.699219 56.96875 C 115.726563 50.546875 110.929688 35.851563 100.96875 30.933594 C 97.953125 29.449219 96.609375 28.285156 94.992188 25.910156 C 93.371094 23.535156 91.878906 24.894531 92.976563 26.738281 C 94.167969 28.734375 96.722656 38.128906 93.882813 42.792969 C 89.074219 50.691406 88.484375 66.628906 92.566406 69.554688 "/>
<path style=" stroke:none;fill-rule:nonzero;fill:rgb(0%,0%,0%);fill-opacity:1;" d="M 104.019531 90.484375 C 104.894531 85.320313 103.945313 77.828125 101.984375 72.882813 C 98.796875 64.847656 100.085938 55.140625 102.46875 50.074219 C 103.753906 47.335938 103.519531 44.101563 101.507813 48.035156 C 98.320313 54.277344 96.398438 62.78125 99.898438 73.921875 C 102.109375 80.960938 103.128906 87.035156 102.65625 90.328125 C 102.179688 93.617188 103.140625 95.652344 104.019531 90.484375 "/>
<path style=" stroke:none;fill-rule:nonzero;fill:rgb(0%,0%,0%);fill-opacity:1;" d="M 144.105469 178.628906 C 147.171875 113.386719 182.265625 69.894531 218.4375 54.460938 C 225.9375 51.265625 223.605469 48.628906 215.9375 51.628906 C 166.386719 71.019531 138.015625 138.121094 140.4375 177.296875 C 140.714844 181.734375 143.921875 182.503906 144.105469 178.628906 "/>
<path style=" stroke:none;fill-rule:nonzero;fill:rgb(0%,0%,0%);fill-opacity:1;" d="M 221.605469 87.878906 C 219.832031 77.234375 200.714844 78.773438 196.105469 83.378906 C 192.355469 87.128906 191.105469 87.128906 188.605469 87.128906 C 186.105469 87.128906 184.855469 88.378906 188.605469 88.628906 C 192.355469 88.878906 196.855469 87.128906 199.105469 85.128906 C 202.683594 81.949219 212.941406 82.226563 214.605469 87.628906 C 215.605469 90.878906 218.855469 93.628906 223.605469 93.628906 C 228.355469 93.628906 232.605469 96.878906 234.855469 98.878906 C 237.105469 100.878906 239.605469 102.628906 242.605469 102.628906 C 245.605469 102.628906 246.796875 103.21875 244.355469 105.378906 C 242.0625 107.40625 232.398438 115.9375 224.105469 110.628906 C 217.855469 106.628906 215.355469 104.128906 209.355469 105.378906 C 199.714844 107.386719 199.332031 105.871094 195.605469 101.128906 C 192.855469 97.628906 185.855469 94.628906 182.855469 94.378906 C 179.855469 94.128906 178.355469 95.378906 181.605469 95.878906 C 186.160156 96.578125 190.855469 99.878906 192.855469 104.128906 C 195.605469 109.972656 205.1875 110.785156 210.105469 109.378906 C 213.605469 108.378906 215.355469 108.878906 217.855469 110.878906 C 225.753906 117.199219 236.871094 117.226563 249.855469 105.128906 C 254.027344 101.242188 253.855469 100.128906 250.605469 101.128906 C 247.355469 102.128906 239.605469 99.878906 237.355469 96.878906 C 234.394531 92.933594 231.816406 89.742188 225.605469 90.628906 C 222.105469 91.128906 221.855469 89.378906 221.605469 87.878906 "/>
<path style=" stroke:none;fill-rule:nonzero;fill:rgb(0%,0%,0%);fill-opacity:1;" d="M 197.355469 94.378906 C 202.445313 92.992188 211.265625 93.851563 217.355469 99.128906 C 221.105469 102.378906 227.355469 105.128906 232.105469 105.378906 C 236.855469 105.628906 235.355469 104.128906 232.355469 103.878906 C 229.355469 103.628906 224.355469 101.128906 218.855469 97.128906 C 210.148438 90.796875 202.199219 90.894531 195.855469 92.878906 C 191.855469 94.128906 194.605469 95.128906 197.355469 94.378906 "/>
<path style=" stroke:none;fill-rule:nonzero;fill:rgb(0%,0%,0%);fill-opacity:1;" d="M 230.839844 48.144531 C 232.886719 43.828125 239.433594 34.058594 245.550781 36.035156 C 251.667969 38.011719 255.09375 38.636719 257.519531 35.136719 C 259.949219 31.640625 272.984375 31.394531 277.59375 33.914063 C 282.207031 36.4375 284.054688 35.808594 286.117188 35.308594 C 288.179688 34.808594 287.527344 35.875 286.355469 37.796875 C 282.519531 44.085938 278.597656 53.714844 267.914063 50.265625 C 261.796875 48.289063 261.5625 51.074219 260.734375 52.910156 C 258.246094 58.425781 250.855469 60.941406 239.542969 54.039063 C 234.636719 51.046875 232.871094 52.019531 237.304688 55.3125 C 250.03125 64.757813 262.722656 60.9375 263.710938 56.191406 C 264.464844 52.554688 266.824219 52.527344 269.644531 53.664063 C 275.851563 56.164063 288.195313 48.992188 290.988281 37.402344 C 291.835938 33.898438 292.65625 32.269531 294.515625 30.183594 C 296.375 28.09375 294.929688 26.628906 293.460938 28.074219 C 291.867188 29.644531 283.898438 33.660156 279.289063 31.140625 C 271.480469 26.871094 257.179688 28.28125 255.21875 33.148438 C 254.085938 35.96875 250.410156 34.3125 248.144531 33.226563 C 243.066406 30.78125 233.488281 33.777344 229.3125 46.332031 C 228.257813 49.496094 228.792969 52.460938 230.839844 48.144531 "/>
<path style=" stroke:none;fill-rule:nonzero;fill:rgb(0%,0%,0%);fill-opacity:1;" d="M 253.75 43.9375 C 260.410156 39.394531 269.269531 39.558594 274.164063 41.523438 C 276.808594 42.585938 279.65625 41.90625 275.828125 40.203125 C 269.753906 37.503906 261.867188 36.492188 252.492188 41.777344 C 246.566406 45.117188 241.3125 47.023438 238.304688 46.925781 C 235.296875 46.828125 233.632813 48.144531 238.378906 48.445313 C 243.128906 48.742188 249.652344 46.730469 253.75 43.9375 "/>
<path style=" stroke:none;fill-rule:nonzero;fill:rgb(0%,0%,0%);fill-opacity:1;" d="M 167.671875 66.097656 C 160.0625 54.769531 161.351563 46.246094 165.941406 42.640625 C 167.472656 41.4375 169.921875 40.738281 167.375 34.332031 C 162.925781 23.144531 170.992188 17.304688 176.101563 12.085938 C 177.660156 10.496094 178.527344 9.609375 178.347656 11.953125 C 178.171875 14.296875 177.847656 16.429688 180.6875 21.09375 C 183.527344 25.757813 184.992188 40.117188 182.1875 43.34375 C 179.386719 46.5625 180.386719 50.226563 182.933594 56.632813 C 185.480469 63.039063 177.621094 71.785156 174.042969 74.71875 C 170.464844 77.65625 173.171875 77.773438 175.855469 76.113281 C 186.5 69.527344 187.933594 58.527344 185.101563 53.335938 C 183.839844 51.023438 181.890625 47.25 184.257813 45.554688 C 188.339844 42.628906 187.75 26.691406 182.941406 18.792969 C 180.101563 14.128906 182.652344 4.734375 183.84375 2.738281 C 184.945313 0.894531 183.449219 -0.464844 181.832031 1.910156 C 180.210938 4.285156 178.867188 5.449219 175.855469 6.933594 C 165.894531 11.851563 161.097656 26.546875 164.121094 32.96875 C 165.496094 35.886719 165.78125 38.484375 162.636719 39.890625 C 158.535156 41.730469 156.769531 56.277344 166.828125 68.757813 C 170.332031 73.105469 170.972656 71.011719 167.671875 66.097656 "/>
<path style=" stroke:none;fill-rule:nonzero;fill:rgb(0%,0%,0%);fill-opacity:1;" d="M 172.804688 66.484375 C 173.683594 71.652344 174.640625 69.617188 174.167969 66.328125 C 173.691406 63.035156 174.714844 56.960938 176.925781 49.921875 C 180.421875 38.78125 178.503906 30.277344 175.3125 24.035156 C 173.304688 20.101563 173.066406 23.335938 174.355469 26.074219 C 176.738281 31.140625 178.023438 40.847656 174.839844 48.882813 C 172.875 53.828125 171.925781 61.320313 172.804688 66.484375 "/>
<path style=" stroke:none;fill-rule:nonzero;fill:rgb(0%,0%,0%);fill-opacity:1;" d="M 160.84375 120.503906 C 158.71875 122.378906 160.09375 125.253906 161.59375 124.003906 C 174.753906 113.035156 191.691406 122.273438 193.46875 138.253906 C 193.71875 140.503906 195.59375 140.128906 195.59375 137.628906 C 195.59375 116.226563 170.632813 111.863281 160.84375 120.503906 "/>
<path style=" stroke:none;fill-rule:nonzero;fill:rgb(0%,0%,0%);fill-opacity:1;" d="M 80.9375 186.371094 C 82.101563 184.15625 80.613281 182.953125 79.347656 184.828125 C 71.714844 196.125 52.019531 191.308594 46.835938 178.789063 C 46.089844 176.984375 43.535156 178.890625 44.542969 181.539063 C 50.277344 196.585938 74.347656 198.917969 80.9375 186.371094 "/>
<path style=" stroke:none;fill-rule:nonzero;fill:rgb(0%,0%,0%);fill-opacity:1;" d="M 167.71875 295.128906 C 181.117188 254.921875 171.515625 222.027344 154.386719 201.792969 C 130.308594 173.351563 87.246094 168.632813 74.3125 203.308594 C 72.335938 208.609375 70.636719 214.015625 69.050781 216.128906 C 66.050781 220.128906 68.71875 221.796875 72.71875 217.128906 C 74.996094 214.46875 77.828125 208.152344 80.25 202.269531 C 91.632813 174.617188 125.953125 178.0625 148.226563 199.953125 C 176.21875 227.46875 172.425781 274.023438 164.382813 294.128906 C 161.71875 300.796875 166.050781 300.128906 167.71875 295.128906 "/>
<path style=" stroke:none;fill-rule:nonzero;fill:rgb(0%,0%,0%);fill-opacity:1;" d="M 137.71875 200.128906 C 135.238281 213.339844 133.09375 257.902344 137.71875 269.460938 C 139.050781 272.796875 142.382813 274.128906 141.382813 269.460938 C 137.707031 252.308594 140.382813 218.460938 141.71875 201.460938 C 142.054688 197.144531 138.71875 194.796875 137.71875 200.128906 "/>
<path style=" stroke:none;fill-rule:nonzero;fill:rgb(0%,0%,0%);fill-opacity:1;" d="M 69.292969 424.171875 C 71 428.800781 72.554688 432.597656 78.757813 433.527344 C 82.253906 434.054688 81.992188 435.800781 81.800781 437.308594 C 80.449219 448.015625 99.207031 452.023438 104.941406 448.933594 C 109.609375 446.414063 110.804688 446.773438 113.199219 447.492188 C 115.597656 448.207031 117.152344 447.367188 113.632813 446.054688 C 110.109375 444.738281 105.296875 445.125 102.570313 446.394531 C 98.226563 448.417969 88.480469 445.207031 88.4375 439.554688 C 88.410156 436.15625 86.085938 432.589844 81.535156 431.226563 C 76.984375 429.863281 73.84375 425.53125 72.261719 422.972656 C 70.679688 420.410156 68.789063 418.019531 65.914063 417.15625 C 63.039063 416.296875 62.066406 415.390625 65.027344 414.019531 C 67.800781 412.738281 79.507813 407.335938 85.929688 414.796875 C 90.773438 420.421875 92.449219 423.535156 98.554688 424.058594 C 108.367188 424.898438 108.300781 426.460938 110.507813 432.070313 C 112.140625 436.214844 117.984375 441.09375 120.789063 442.195313 C 123.589844 443.292969 125.386719 442.527344 122.414063 441.113281 C 118.253906 439.136719 114.703125 434.632813 114.003906 429.984375 C 113.046875 423.597656 104.097656 420.074219 98.984375 420.011719 C 95.34375 419.964844 93.8125 418.984375 91.988281 416.351563 C 86.234375 408.03125 75.589844 404.816406 59.683594 412.683594 C 54.574219 415.210938 54.417969 416.328125 57.820313 416.300781 C 61.21875 416.273438 68 420.652344 69.292969 424.171875 "/>
<path style=" stroke:none;fill-rule:nonzero;fill:rgb(0%,0%,0%);fill-opacity:1;" d="M 89.097656 427.75 C 86.4375 423.5625 81.238281 419.136719 76.761719 417.535156 C 72.28125 415.933594 73.289063 417.800781 76.09375 418.898438 C 78.894531 420 82.96875 423.828125 87.089844 429.234375 C 93.613281 437.796875 101.257813 439.984375 107.902344 439.902344 C 112.09375 439.851563 109.746094 438.105469 106.898438 438.035156 C 101.621094 437.90625 93.421875 434.554688 89.097656 427.75 "/>
<path style=" stroke:none;fill-rule:nonzero;fill:rgb(0%,0%,0%);fill-opacity:1;" d="M 124.9375 466.351563 C 123.269531 470.828125 117.578125 481.117188 111.316406 479.671875 C 105.054688 478.226563 101.585938 477.898438 99.46875 481.589844 C 97.347656 485.28125 84.378906 486.640625 79.570313 484.519531 C 74.761719 482.402344 72.972656 483.1875 70.960938 483.859375 C 68.949219 484.535156 69.507813 483.414063 70.511719 481.402344 C 73.796875 474.804688 76.882813 464.878906 87.824219 467.40625 C 94.085938 468.851563 94.082031 466.054688 94.75 464.152344 C 96.753906 458.449219 103.90625 455.308594 115.765625 461.21875 C 120.910156 463.785156 122.585938 462.664063 117.886719 459.765625 C 104.398438 451.4375 92.082031 456.324219 91.503906 461.140625 C 91.0625 464.828125 88.714844 465.054688 85.804688 464.164063 C 79.40625 462.203125 67.722656 470.402344 65.925781 482.191406 C 65.382813 485.753906 64.703125 487.445313 63.03125 489.683594 C 61.355469 491.921875 62.921875 493.261719 64.261719 491.695313 C 65.714844 489.996094 73.308594 485.3125 78.121094 487.429688 C 86.265625 491.015625 100.394531 488.390625 101.929688 483.375 C 102.820313 480.46875 106.621094 481.804688 108.972656 482.695313 C 114.242188 484.695313 123.53125 480.894531 126.617188 468.027344 C 127.398438 464.785156 126.609375 461.878906 124.9375 466.351563 "/>
<path style=" stroke:none;fill-rule:nonzero;fill:rgb(0%,0%,0%);fill-opacity:1;" d="M 117.402344 466.695313 C 112.648438 466.804688 106.316406 469.363281 102.472656 472.5 C 96.226563 477.59375 87.386719 478.1875 82.339844 476.648438 C 79.613281 475.816406 76.835938 476.734375 80.792969 478.101563 C 87.078125 480.273438 95.019531 480.613281 103.910156 474.546875 C 109.527344 470.710938 114.601563 468.363281 117.609375 468.203125 C 120.613281 468.042969 122.15625 466.589844 117.402344 466.695313 "/>
<path style=" stroke:none;fill-rule:nonzero;fill:rgb(0%,0%,0%);fill-opacity:1;" d="M 311.21875 416.878906 C 310.21875 415.128906 309.96875 414.128906 310.71875 412.628906 C 311.46875 411.128906 313.46875 405.378906 309.46875 398.128906 C 297.644531 376.699219 266.375 364.976563 248.46875 358.378906 C 243.71875 356.628906 243.46875 355.628906 247.96875 356.628906 C 252.46875 357.628906 271.71875 355.878906 280.71875 352.378906 C 289.71875 348.878906 286.21875 348.128906 279.96875 348.378906 C 268.058594 348.855469 242.207031 331.320313 229.71875 321.128906 C 211.050781 305.898438 174.300781 298.191406 158.46875 304.128906 C 156.46875 304.878906 155.71875 304.878906 155.46875 302.878906 C 154.472656 294.929688 153.378906 284.492188 138.96875 274.128906 C 123.933594 263.316406 108.558594 270.8125 103.21875 274.628906 C 101.46875 275.878906 101.71875 275.878906 99.71875 275.128906 C 97.71875 274.378906 89.917969 270.730469 87.21875 269.378906 C 83.21875 267.378906 83.21875 268.878906 84.96875 271.378906 C 86.71875 273.878906 92.46875 283.128906 92.46875 283.128906 C 92.46875 283.128906 83.71875 280.128906 80.46875 278.878906 C 77.21875 277.628906 77.21875 277.628906 79.21875 280.378906 C 81.21875 283.128906 87.71875 292.128906 89.96875 295.628906 C 92.21875 299.128906 91.71875 297.128906 91.96875 300.878906 C 92.21875 304.628906 98.46875 335.128906 107.21875 347.378906 C 127.589844 375.902344 145.855469 382.125 163.433594 382.621094 C 166.832031 385.78125 166.886719 390.382813 163.96875 395.628906 C 161.972656 399.210938 165.46875 400.128906 168.21875 396.878906 C 170.507813 394.171875 176.78125 386.269531 179.390625 382.546875 C 183.011719 385.980469 181.421875 390.617188 177.59375 397.503906 C 175.597656 401.085938 179.09375 402.003906 181.84375 398.753906 C 184.539063 395.5625 194.9375 383.230469 196.269531 380.882813 C 196.503906 380.882813 196.734375 380.878906 196.96875 380.878906 C 218.027344 380.878906 238.90625 387.796875 251.21875 398.628906 C 257.46875 404.128906 262.21875 413.378906 267.46875 423.128906 C 273.582031 434.484375 288.4375 436.941406 290.71875 432.378906 C 291.46875 430.878906 292.46875 430.628906 294.46875 432.628906 C 308.09375 446.253906 320.339844 432.84375 311.21875 416.878906 Z M 169.96875 390.628906 C 168.21875 392.378906 167.773438 390.921875 168.71875 388.878906 C 169.839844 386.449219 169.28125 384.300781 167.675781 382.636719 C 170.480469 382.585938 173.265625 382.421875 176.046875 382.214844 C 174.320313 384.851563 171.289063 389.304688 169.96875 390.628906 Z M 185.84375 390.503906 C 184.09375 392.253906 183.648438 390.796875 184.59375 388.753906 C 185.914063 385.890625 184.90625 383.414063 182.59375 381.671875 C 185.945313 381.386719 189.292969 381.113281 192.640625 380.976563 C 191.210938 383.21875 187.375 388.972656 185.84375 390.503906 Z M 294.46875 427.878906 C 288.21875 420.128906 277.96875 406.628906 273.71875 401.628906 C 269.46875 396.628906 266.71875 395.378906 270.46875 401.128906 C 274.21875 406.878906 286.21875 423.878906 287.71875 426.378906 C 289.21875 428.878906 284.71875 435.378906 277.71875 427.628906 C 270.71875 419.878906 264.71875 400.628906 250.46875 393.128906 C 228.867188 381.761719 211.734375 376.996094 198.21875 377.878906 C 170.875 379.660156 150.875 380.882813 133.9375 370.175781 C 109.59375 354.785156 98.179688 324.160156 95.71875 301.378906 C 93.90625 284.621094 100.363281 280.636719 106.21875 275.878906 C 115.335938 268.46875 130.789063 269.953125 141.71875 280.878906 C 149.96875 289.128906 150.96875 301.878906 151.96875 304.628906 C 152.8125 306.953125 152.71875 306.128906 149.96875 307.378906 C 143.714844 310.222656 135.96875 316.621094 132.96875 325.128906 C 131.46875 329.378906 133.46875 330.128906 135.46875 326.128906 C 152.789063 291.480469 198.226563 309.527344 212.71875 319.378906 C 232.269531 332.675781 259.25 349.75 270.21875 350.128906 C 277.46875 350.378906 276.96875 352.128906 269.46875 352.878906 C 249.714844 354.855469 242.386719 356.820313 222.96875 342.628906 C 216.46875 337.878906 213.71875 338.128906 218.71875 343.128906 C 223.71875 348.128906 233.96875 354.628906 238.21875 355.378906 C 242.46875 356.128906 243.71875 357.378906 237.71875 358.878906 C 220.605469 363.15625 208.578125 360.351563 189.46875 343.628906 C 185.46875 340.128906 183.21875 339.378906 185.46875 342.878906 C 187.71875 346.378906 200.96875 357.378906 204.71875 358.878906 C 208.46875 360.378906 210.71875 361.628906 204.96875 363.878906 C 190.414063 369.574219 176.183594 370.101563 162.96875 356.628906 C 158.863281 352.449219 154.46875 352.628906 158.96875 356.628906 C 168.738281 365.316406 183.027344 375.109375 197.21875 370.378906 C 205.46875 367.628906 208.46875 365.878906 209.71875 363.628906 C 210.96875 361.378906 210.71875 360.628906 212.96875 361.878906 C 219.046875 365.257813 239.636719 365.335938 242.46875 360.378906 C 243.46875 358.628906 245.71875 359.628906 251.46875 362.378906 C 266.757813 369.691406 291.675781 380.734375 303.21875 395.878906 C 307.21875 401.128906 308.71875 407.128906 308.71875 409.628906 C 308.71875 412.128906 308.21875 413.378906 305.96875 410.628906 C 303.71875 407.878906 293.96875 400.128906 289.21875 396.628906 C 284.46875 393.128906 281.71875 392.878906 286.96875 397.378906 C 297.816406 406.679688 306.449219 412.578125 310.46875 424.628906 C 312.898438 431.925781 303.367188 438.917969 294.46875 427.878906 "/>
<path style=" stroke:none;fill-rule:nonzero;fill:rgb(0%,0%,0%);fill-opacity:1;" d="M 115.46875 286.09375 C 113.320313 286.09375 111.578125 287.675781 111.578125 289.628906 C 111.578125 291.582031 113.320313 293.164063 115.46875 293.164063 C 117.613281 293.164063 119.355469 291.582031 119.355469 289.628906 C 119.355469 287.675781 117.613281 286.09375 115.46875 286.09375 "/>
<path style=" stroke:none;fill-rule:nonzero;fill:rgb(0%,0%,0%);fill-opacity:1;" d="M 170.71875 337.128906 C 167.21875 333.128906 162.71875 330.628906 158.21875 328.878906 C 153.71875 327.128906 151.46875 328.378906 155.71875 331.128906 C 159.75 333.738281 166.96875 338.378906 169.21875 339.628906 C 171.46875 340.878906 174.21875 341.128906 170.71875 337.128906 "/>
<path style=" stroke:none;fill-rule:nonzero;fill:rgb(0%,0%,0%);fill-opacity:1;" d="M 169.96875 321.128906 C 173.035156 323.515625 184.21875 332.128906 185.71875 330.378906 C 187.21875 328.628906 178.71875 322.628906 172.96875 319.628906 C 167.21875 316.628906 165.46875 317.628906 169.96875 321.128906 "/>
<path style=" stroke:none;fill-rule:nonzero;fill:rgb(0%,0%,0%);fill-opacity:1;" d="M 180.21875 314.628906 C 183.070313 316.476563 193.71875 324.628906 194.96875 323.378906 C 196.21875 322.128906 189.21875 315.878906 184.21875 313.878906 C 179.21875 311.878906 175.96875 311.878906 180.21875 314.628906 "/>
<path style=" stroke:none;fill-rule:nonzero;fill:rgb(0%,0%,0%);fill-opacity:1;" d="M 243.96875 378.378906 C 238.96875 376.128906 238.21875 377.878906 241.21875 380.128906 C 245.542969 383.375 255.96875 391.628906 256.96875 389.628906 C 257.96875 387.628906 248.96875 380.628906 243.96875 378.378906 "/>
<path style=" stroke:none;fill-rule:nonzero;fill:rgb(0%,0%,0%);fill-opacity:1;" d="M 266.21875 382.628906 C 261.21875 379.378906 254.46875 374.628906 251.71875 373.378906 C 248.96875 372.128906 247.46875 371.878906 250.46875 374.628906 C 253.605469 377.507813 260.71875 382.378906 264.96875 384.378906 C 269.21875 386.378906 271.21875 385.878906 266.21875 382.628906 "/>
<path style=" stroke:none;fill-rule:nonzero;fill:rgb(0%,0%,0%);fill-opacity:1;" d="M 158.96875 400.128906 C 156.703125 400.128906 149.46875 403.378906 151.96875 409.878906 C 154.46875 416.378906 154.96875 412.878906 154.96875 410.128906 C 154.96875 407.378906 155.71875 403.628906 158.71875 403.128906 C 161.71875 402.628906 161.46875 400.128906 158.96875 400.128906 "/>
<path style=" stroke:none;fill-rule:nonzero;fill:rgb(0%,0%,0%);fill-opacity:1;" d="M 158.21875 412.253906 C 160.71875 418.753906 161.21875 415.253906 161.21875 412.503906 C 161.21875 409.753906 161.96875 406.003906 164.96875 405.503906 C 167.96875 405.003906 167.71875 402.503906 165.21875 402.503906 C 162.953125 402.503906 155.71875 405.753906 158.21875 412.253906 "/>
<path style=" stroke:none;fill-rule:nonzero;fill:rgb(0%,0%,0%);fill-opacity:1;" d="M 175.59375 403.066406 C 173.328125 403.066406 166.09375 406.316406 168.59375 412.816406 C 171.09375 419.316406 171.59375 415.816406 171.59375 413.066406 C 171.59375 410.316406 172.34375 406.566406 175.34375 406.066406 C 178.34375 405.566406 178.09375 403.066406 175.59375 403.066406 "/>
<path style=" stroke:none;fill-rule:nonzero;fill:rgb(0%,0%,0%);fill-opacity:1;" d="M 181.84375 405.441406 C 179.578125 405.441406 172.34375 408.691406 174.84375 415.191406 C 177.34375 421.691406 177.84375 418.191406 177.84375 415.441406 C 177.84375 412.691406 178.59375 408.941406 181.59375 408.441406 C 184.59375 407.941406 184.34375 405.441406 181.84375 405.441406 "/>
</g>
</svg>
