<?xml version="1.0" encoding="UTF-8"?>
<svg xmlns="http://www.w3.org/2000/svg" xmlns:xlink="http://www.w3.org/1999/xlink" width="282pt" height="577pt" viewBox="0 0 282 577" version="1.1">
<g id="surface1">
<path style=" stroke:none;fill-rule:nonzero;fill:rgb(0%,0%,0%);fill-opacity:1;" d="M 281.230469 143.804688 C 281.230469 143.804688 287.285156 65.210938 263.265625 39.246094 C 223.09375 -4.175781 141.390625 0.96875 141.390625 0.96875 C 141.390625 0.96875 66.226563 -2.464844 27.121094 39.246094 C -0.644531 68.863281 0.980469 143.234375 0.980469 143.234375 L 0.835938 433.765625 C 0.835938 433.765625 -0.789063 508.136719 26.976563 537.75 C 66.085938 579.464844 141.246094 576.03125 141.246094 576.03125 C 141.246094 576.03125 222.949219 581.175781 263.125 537.75 C 287.144531 511.789063 281.085938 433.195313 281.085938 433.195313 Z M 273.214844 458.191406 C 272.921875 483.980469 269.542969 518.191406 256.835938 531.929688 C 225.171875 566.15625 163.664063 567.851563 146.386719 567.617188 C 143.535156 567.578125 139.046875 567.539063 136.105469 567.515625 C 119.539063 567.375 63.710938 564.402344 33.230469 531.890625 C 26.472656 524.683594 21.636719 514.285156 18.160156 502.929688 C 24.847656 505.144531 40.933594 510.402344 49.949219 512.777344 C 66.03125 517.011719 84.878906 518.691406 84.878906 518.691406 C 84.878906 518.691406 90.746094 532.109375 106.136719 544.839844 C 121.53125 557.566406 138.796875 565.359375 171.652344 559.441406 C 197.765625 554.734375 209.019531 544.976563 209.019531 544.976563 C 209.019531 544.976563 201.078125 540.136719 192.789063 536.289063 C 184.503906 532.441406 178.953125 525.988281 167.140625 514.324219 C 151.871094 499.253906 141.886719 497.558594 141.886719 497.558594 C 141.886719 497.558594 150.121094 492.34375 156.644531 487.46875 C 163.167969 482.597656 169.949219 478.378906 169.949219 478.378906 C 169.949219 478.378906 179.421875 489.757813 199.742188 492.398438 C 229.71875 496.292969 245.429688 477.84375 245.429688 477.84375 C 245.429688 477.84375 235.578125 470.707031 229.96875 466.582031 C 224.359375 462.453125 217.902344 457.953125 217.902344 457.953125 C 217.902344 457.953125 223.96875 456.816406 237.585938 446.160156 C 251.203125 435.503906 260.171875 420.835938 260.171875 420.835938 C 260.171875 420.835938 253.035156 416.453125 230.835938 419.710938 C 208.636719 422.964844 205.113281 428.472656 205.113281 428.472656 C 205.113281 428.472656 208.1875 416.890625 209.921875 403.578125 C 211.960938 387.957031 210.265625 372.882813 210.265625 372.882813 C 210.265625 372.882813 217.378906 373.988281 228.03125 367.476563 C 243.261719 358.167969 250.78125 340.921875 251.875 332.84375 C 252.78125 326.117188 252.53125 326.171875 252.53125 326.171875 L 242.230469 328.128906 L 244.222656 309.515625 L 228.734375 310.898438 L 215.945313 296.867188 L 198.71875 310.898438 L 183.40625 306.941406 L 179.007813 322.976563 L 171.191406 321.734375 C 171.191406 321.734375 169.917969 328.363281 172.878906 339.019531 C 175.839844 349.675781 188.117188 364.820313 197.976563 367.777344 C 206.039063 370.195313 204.632813 372.488281 204.632813 372.488281 C 204.632813 372.488281 206.609375 384.917969 205.359375 394.695313 C 204.113281 404.476563 201.382813 411.953125 201.382813 411.953125 C 201.382813 411.953125 200.566406 400.777344 190.054688 387.105469 C 176.144531 369.011719 162.3125 368.441406 162.3125 368.441406 C 162.3125 368.441406 156.742188 377.214844 159.699219 399.710938 C 162.660156 422.207031 187.886719 441.96875 187.886719 441.96875 C 187.886719 441.96875 187.8125 446.773438 171.820313 463.65625 C 145.949219 490.964844 125.902344 496.316406 125.902344 496.316406 C 125.902344 496.316406 143.414063 477.28125 142.230469 457.449219 C 140.628906 430.601563 141.152344 416.953125 148.738281 408.203125 C 152.585938 403.761719 152.1875 404.082031 145.085938 405.5625 C 137.980469 407.039063 107.429688 420.753906 99.140625 439.105469 C 90.851563 457.457031 97.210938 470.527344 95.425781 484.972656 C 93.640625 499.421875 94.382813 507.476563 85.207031 508.363281 C 68.277344 510.003906 36.703125 503.230469 24.714844 496.640625 C 18.867188 493.421875 16.898438 492.53125 22.449219 492.335938 C 28 492.140625 37.867188 493.242188 50.28125 489.339844 C 69.582031 483.269531 81.148438 450.316406 81.148438 450.316406 C 81.148438 450.316406 64.847656 450.117188 50.34375 453.371094 C 35.839844 456.628906 27.335938 462.394531 27.335938 462.394531 C 27.335938 462.394531 34.050781 442.492188 42.335938 428.578125 C 50.621094 414.664063 56.816406 404.851563 56.816406 404.851563 C 56.816406 404.851563 61.503906 407.558594 77.488281 409.632813 C 93.472656 411.703125 101.398438 410.570313 113.53125 401.394531 C 125.667969 392.21875 141.175781 386.914063 141.175781 386.914063 C 141.175781 386.914063 140.328125 381.738281 127.597656 375.820313 C 114.871094 369.898438 108.675781 370.929688 108.675781 370.929688 C 108.675781 370.929688 119.734375 356.355469 125.132813 347.523438 C 130.53125 338.691406 138.699219 326.941406 143.140625 323.6875 C 147.578125 320.429688 149.207031 319.679688 142.917969 319.796875 C 136.632813 319.910156 120.71875 318.84375 99.40625 327.722656 C 78.09375 336.601563 74.042969 344.820313 74.042969 344.820313 C 74.042969 344.820313 72.199219 338.132813 59.765625 324.21875 C 47.335938 310.308594 38.878906 309.65625 38.878906 309.65625 C 38.878906 309.65625 41.117188 314.839844 39.609375 325.730469 C 38.105469 336.621094 32.371094 357.53125 35.226563 371.308594 C 38.796875 388.546875 51.132813 395.261719 51.132813 395.261719 C 51.132813 395.261719 50.445313 400.140625 46.511719 409.230469 C 42.578125 418.324219 31.398438 437.390625 24 453.964844 C 19.261719 464.574219 15.5 475.90625 13.402344 482.691406 C 10.195313 464.515625 9.53125 447.136719 9.417969 438.90625 C 9.371094 435.855469 9.414063 424.339844 9.414063 424.339844 L 9.550781 146.019531 C 9.550781 146.019531 9.539063 142.484375 9.535156 141.59375 C 9.511719 131.324219 10.34375 69.671875 33.371094 45.109375 C 62.835938 13.683594 115.984375 9.855469 134.464844 9.507813 C 138.496094 9.433594 145.253906 9.335938 150.53125 9.371094 C 171.828125 9.515625 227.410156 13.113281 256.976563 45.070313 C 262.761719 51.320313 266.609375 61.816406 269.117188 73.828125 C 262.195313 71.539063 246.59375 66.449219 237.769531 64.128906 C 221.6875 59.890625 202.84375 58.210938 202.84375 58.210938 C 202.84375 58.210938 196.972656 44.792969 181.582031 32.066406 C 166.191406 19.335938 148.921875 11.542969 116.066406 17.464844 C 89.957031 22.167969 78.699219 31.925781 78.699219 31.925781 C 78.699219 31.925781 86.640625 36.765625 94.929688 40.613281 C 103.21875 44.464844 108.765625 50.914063 120.578125 62.578125 C 135.847656 77.652344 145.832031 79.347656 145.832031 79.347656 C 145.832031 79.347656 137.597656 84.5625 131.074219 89.433594 C 124.554688 94.304688 117.773438 98.527344 117.773438 98.527344 C 117.773438 98.527344 108.296875 87.144531 87.976563 84.507813 C 58 80.609375 42.292969 99.058594 42.292969 99.058594 C 42.292969 99.058594 52.140625 106.195313 57.753906 110.320313 C 63.363281 114.449219 69.820313 118.949219 69.820313 118.949219 C 69.820313 118.949219 63.75 120.089844 50.136719 130.742188 C 36.519531 141.398438 27.550781 156.070313 27.550781 156.070313 C 27.550781 156.070313 34.683594 160.449219 56.886719 157.195313 C 79.085938 153.9375 82.605469 148.433594 82.605469 148.433594 C 82.605469 148.433594 79.535156 160.015625 77.796875 173.324219 C 75.761719 188.945313 77.457031 204.019531 77.457031 204.019531 C 77.457031 204.019531 70.34375 202.914063 59.6875 209.429688 C 44.457031 218.734375 36.9375 235.984375 35.847656 244.058594 C 34.9375 250.785156 35.1875 250.730469 35.1875 250.730469 L 45.488281 248.777344 L 43.496094 267.386719 L 58.984375 266.003906 L 71.773438 280.035156 L 89 266.003906 L 104.316406 269.960938 L 108.714844 253.925781 L 116.527344 255.171875 C 116.527344 255.171875 117.804688 248.539063 114.84375 237.882813 C 111.882813 227.226563 99.605469 212.085938 89.742188 209.125 C 81.679688 206.707031 83.085938 204.414063 83.085938 204.414063 C 83.085938 204.414063 81.113281 191.984375 82.359375 182.207031 C 83.609375 172.429688 86.335938 164.949219 86.335938 164.949219 C 86.335938 164.949219 87.15625 176.128906 97.664063 189.796875 C 111.578125 207.890625 125.410156 208.460938 125.410156 208.460938 C 125.410156 208.460938 130.980469 199.6875 128.019531 177.191406 C 125.058594 154.695313 99.835938 134.933594 99.835938 134.933594 C 99.835938 134.933594 99.90625 130.132813 115.898438 113.246094 C 141.769531 85.9375 161.816406 80.589844 161.816406 80.589844 C 161.816406 80.589844 144.304688 99.625 145.488281 119.457031 C 147.09375 146.300781 146.566406 159.949219 138.984375 168.703125 C 135.136719 173.140625 135.53125 172.824219 142.636719 171.34375 C 149.738281 169.863281 180.292969 156.148438 188.578125 137.796875 C 196.867188 119.445313 190.507813 106.375 192.296875 91.929688 C 194.082031 77.480469 193.339844 69.425781 202.515625 68.539063 C 219.445313 66.902344 251.015625 73.671875 263.003906 80.265625 C 268.855469 83.480469 270.824219 84.371094 265.269531 84.566406 C 259.71875 84.761719 249.851563 83.660156 237.4375 87.5625 C 218.136719 93.636719 206.570313 126.585938 206.570313 126.585938 C 206.570313 126.585938 222.871094 126.785156 237.378906 123.53125 C 251.882813 120.273438 260.386719 114.511719 260.386719 114.511719 C 260.386719 114.511719 253.667969 134.410156 245.382813 148.328125 C 237.101563 162.242188 230.902344 172.054688 230.902344 172.054688 C 230.902344 172.054688 226.214844 169.34375 210.230469 167.273438 C 194.246094 165.199219 186.324219 166.332031 174.1875 175.507813 C 162.050781 184.683594 146.542969 189.992188 146.542969 189.992188 C 146.542969 189.992188 147.394531 195.164063 160.121094 201.082031 C 172.847656 207.003906 179.042969 205.976563 179.042969 205.976563 C 179.042969 205.976563 167.984375 220.550781 162.589844 229.378906 C 157.191406 238.210938 149.019531 249.960938 144.578125 253.21875 C 140.140625 256.472656 138.511719 257.222656 144.800781 257.109375 C 151.089844 256.992188 167.003906 258.0625 188.316406 249.183594 C 209.628906 240.300781 213.675781 232.082031 213.675781 232.082031 C 213.675781 232.082031 215.523438 238.773438 227.953125 252.683594 C 240.386719 266.597656 248.839844 267.246094 248.839844 267.246094 C 248.839844 267.246094 246.601563 262.0625 248.109375 251.171875 C 249.617188 240.28125 255.347656 219.371094 252.492188 205.59375 C 248.921875 188.355469 236.585938 181.644531 236.585938 181.644531 C 236.585938 181.644531 237.277344 176.765625 241.210938 167.671875 C 245.140625 158.582031 256.320313 139.515625 263.722656 122.9375 C 267.339844 114.835938 270.386719 106.316406 272.5625 99.71875 C 273.46875 112.011719 273.511719 123.988281 273.207031 133.234375 C 273.078125 137.066406 272.648438 168.230469 272.648438 168.230469 L 272.523438 419.339844 C 272.523438 419.339844 273.324219 448.289063 273.214844 458.191406 Z M 104.171875 440.492188 C 110.636719 429.886719 121.992188 419.996094 139.222656 416.394531 C 136.480469 440.660156 140.195313 468.800781 126.011719 487.921875 C 118.945313 497.453125 109.074219 504.617188 97.132813 507.148438 C 109.398438 487.527344 92.148438 460.222656 104.171875 440.492188 Z M 110.453125 508.390625 C 121.816406 502.53125 138.15625 500.222656 149.523438 507.859375 C 165.6875 518.871094 178.472656 535.566406 196.234375 544.976563 C 154.640625 572.03125 104.328125 544.03125 95.179688 524.375 C 93.402344 517.273438 104.769531 512.476563 110.453125 508.390625 Z M 192.324219 436.820313 C 169.769531 424.03125 160.359375 399.523438 163.554688 374.125 C 197.824219 386.65625 201.25 417.480469 192.324219 436.820313 Z M 228.28125 424.085938 C 234.046875 422.808594 243.832031 423.617188 250.578125 424.742188 C 236.371094 442.679688 216.65625 458.664063 193.035156 450.847656 C 199.167969 436.398438 213.578125 427.34375 228.28125 424.085938 Z M 236.550781 480.332031 C 213.316406 492.425781 190.128906 489.300781 173.144531 471.984375 C 183.269531 455.222656 215.945313 456.617188 236.550781 480.332031 Z M 198.71875 323.6875 C 195.699219 328.304688 191.4375 332.390625 189.839844 337.71875 C 187.871094 336.785156 185.933594 335.230469 183.980469 333.988281 C 187.8125 319.78125 198.046875 314.300781 207.929688 313.296875 C 222.960938 311.769531 235.214844 321.746094 234.59375 332.566406 C 232.109375 334.699219 229.941406 337.117188 227.492188 338.960938 C 225.539063 335.230469 223.9375 330.96875 221.097656 327.59375 C 216.480469 329.371094 212.75 333.277344 209.019531 337.183594 C 204.757813 333.632813 202.09375 328.128906 198.71875 323.6875 Z M 20.410156 484.769531 C 28.578125 463.8125 52.199219 456.53125 70.847656 456.710938 C 57.777344 497.988281 20.410156 484.769531 20.410156 484.769531 Z M 128.390625 383.183594 C 122.476563 386.351563 116.691406 390.210938 111.179688 394.460938 C 95.519531 406.53125 84.757813 410.277344 58.769531 397.925781 C 71.90625 380.222656 101.757813 372.410156 128.390625 383.183594 Z M 70.316406 374.835938 C 73.828125 339.71875 113.6875 323.164063 135.492188 326.171875 C 122.597656 339.070313 115.546875 361.761719 97.800781 368.0625 C 95.265625 368.964844 76.707031 373.414063 70.316406 374.835938 Z M 54.332031 390.820313 C 45.984375 387.269531 42.074219 378.742188 40.121094 370.929688 C 38.347656 352.992188 45.984375 337.183594 45.984375 319.246094 C 72.246094 337.042969 75.007813 371.84375 54.332031 390.820313 Z M 183.546875 136.410156 C 177.082031 147.019531 165.726563 156.910156 148.496094 160.507813 C 151.242188 136.242188 147.523438 108.101563 161.707031 88.980469 C 168.773438 79.453125 178.648438 72.289063 190.589844 69.753906 C 178.324219 89.378906 195.570313 116.679688 183.546875 136.410156 Z M 177.269531 68.511719 C 165.902344 74.371094 149.5625 76.683594 138.195313 69.046875 C 122.035156 58.03125 109.246094 41.339844 91.488281 31.925781 C 133.078125 4.875 183.390625 32.871094 192.542969 52.527344 C 194.316406 59.632813 182.949219 64.425781 177.269531 68.511719 Z M 95.394531 140.085938 C 117.949219 152.871094 127.363281 177.382813 124.164063 202.777344 C 89.894531 190.25 86.46875 159.421875 95.394531 140.085938 Z M 59.441406 152.816406 C 53.671875 154.097656 43.886719 153.285156 37.140625 152.160156 C 51.347656 134.222656 71.0625 118.238281 94.683594 126.054688 C 88.550781 140.507813 74.140625 149.558594 59.441406 152.816406 Z M 51.171875 96.574219 C 74.40625 84.480469 97.59375 87.601563 114.574219 104.921875 C 104.449219 121.679688 71.777344 120.285156 51.171875 96.574219 Z M 89 253.21875 C 92.019531 248.597656 96.28125 244.515625 97.878906 239.1875 C 99.847656 240.117188 101.789063 241.671875 103.742188 242.914063 C 99.90625 257.121094 89.671875 262.601563 79.792969 263.605469 C 64.761719 265.132813 52.507813 255.15625 53.125 244.335938 C 55.609375 242.203125 57.777344 239.785156 60.230469 237.941406 C 62.183594 241.671875 63.78125 245.933594 66.621094 249.308594 C 71.242188 247.535156 74.96875 243.625 78.699219 239.71875 C 82.960938 243.269531 85.625 248.777344 89 253.21875 Z M 267.3125 92.132813 C 259.140625 113.089844 235.519531 120.371094 216.871094 120.195313 C 229.945313 78.914063 267.3125 92.132813 267.3125 92.132813 Z M 159.328125 193.71875 C 165.242188 190.554688 171.03125 186.695313 176.542969 182.445313 C 192.199219 170.371094 202.960938 166.625 228.949219 178.980469 C 215.816406 196.683594 185.964844 204.492188 159.328125 193.71875 Z M 217.40625 202.066406 C 213.894531 237.183594 174.03125 253.738281 152.226563 250.730469 C 165.125 237.832031 172.175781 215.144531 189.917969 208.839844 C 192.453125 207.9375 211.011719 203.488281 217.40625 202.066406 Z M 233.390625 186.085938 C 241.738281 189.636719 245.644531 198.160156 247.597656 205.976563 C 249.375 223.910156 241.738281 239.71875 241.738281 257.65625 C 215.472656 239.859375 212.714844 205.0625 233.390625 186.085938 "/>
</g>
</svg>
