<?xml version="1.0" encoding="UTF-8"?>
<svg xmlns="http://www.w3.org/2000/svg" xmlns:xlink="http://www.w3.org/1999/xlink" width="476pt" height="393pt" viewBox="0 0 476 393" version="1.1">
<g id="surface1">
<path style=" stroke:none;fill-rule:nonzero;fill:rgb(0%,0%,0%);fill-opacity:1;" d="M 474.300781 269 C 469.199219 262.601563 472.199219 253 470.300781 245.199219 C 466 236.601563 456.601563 234.300781 449.101563 230.5 C 450 224.5 445.601563 218 440.101563 214.601563 L 440.398438 181.5 C 439.925781 177.324219 436.902344 176.621094 435.90625 176.421875 C 432.039063 175.644531 426.980469 175.898438 424.199219 179 C 424.199219 183.898438 420.898438 193.601563 425.699219 198.800781 C 428.199219 200.199219 431.398438 201.300781 434.300781 201 C 433.699219 205.300781 428.199219 206.398438 425.699219 209.199219 C 419.199219 207.800781 412.898438 206.300781 406.199219 205.300781 C 394.800781 183.800781 379.898438 164.199219 361.199219 146.199219 L 361.601563 137.601563 C 361.601563 137.601563 417.699219 136.699219 437.898438 134 C 450.101563 123.5 454.398438 106.199219 451.601563 91.199219 C 446.703125 76.6875 430.253906 25.871094 428.6875 22.753906 C 427.445313 20.277344 425.652344 18.121094 422.800781 16.601563 L 381.398438 14.101563 L 380 14.800781 L 327.398438 12.699219 C 322 13.699219 315.601563 12.398438 309.800781 12.300781 C 296.105469 1.121094 251.761719 -2.921875 224.539063 2.773438 C 223.179688 3.058594 211.800781 6.800781 208.199219 10.199219 C 194.808594 10.289063 182.769531 8.785156 169.738281 8.960938 C 168.175781 8.980469 161.363281 9.140625 159.550781 9.160156 C 124.953125 9.574219 91.164063 10.445313 58.101563 17 L 57.398438 17.699219 C 42.101563 20.398438 26.601563 22.601563 11 24.199219 C 11 24.199219 10.191406 24.316406 10.269531 25.390625 C 10.398438 27.128906 9.476563 29.296875 11.300781 30.300781 C 10.199219 64.300781 9.199219 99.199219 8.101563 133.601563 C 5.5 133.199219 3.601563 134.300781 1.601563 135.398438 L 0.5 164.199219 C 1.699219 165.199219 2.800781 165.699219 4.101563 165.699219 C 2.898438 206.398438 2.898438 244.699219 0.898438 284.800781 C 3.5625 289.882813 8.6875 285.375 9.746094 284.71875 C 13.195313 282.574219 18.6875 284.410156 22.800781 283.800781 C 25 282.699219 26.5 281.101563 27.898438 279.101563 L 48 279.101563 C 48 279.101563 57.675781 291.949219 64.199219 294.898438 C 60.070313 316.539063 60.828125 353.429688 72.898438 365.5 C 80.800781 368.5 100.636719 365.671875 100.988281 365.378906 C 110.964844 356.972656 111.011719 331.546875 109.199219 316.898438 C 115.699219 314.699219 130.457031 315.347656 130.929688 315.5625 C 136.664063 318.125 137.378906 328.585938 145.601563 324.800781 C 145.199219 322.300781 146 319.300781 147.800781 317.199219 C 158.300781 326 169.300781 331.300781 183 330.898438 C 191.199219 330.300781 194.398438 320.800781 202.101563 320.101563 C 201.199219 342.199219 202.5 365.101563 210.800781 385.601563 C 212.433594 389.558594 215.101563 391.417969 218.296875 392.207031 C 224.304688 393.6875 244.199219 391.601563 246.398438 389.601563 C 252.398438 380.5 252.398438 368.898438 254.699219 358.300781 C 261.898438 357.699219 269.398438 357.898438 276.300781 356.800781 C 284.699219 355 285.601563 345.101563 288.898438 339.199219 C 300.09375 345.097656 321.214844 339.445313 326.433594 337.976563 C 330.796875 336.746094 335.390625 335.601563 339.300781 338.5 C 346.5 345 352.800781 353.199219 362.699219 353.199219 C 368.898438 353.898438 372.898438 348.5 377.101563 345 C 382.699219 343.898438 390.800781 346 395.101563 341.699219 C 396.800781 339.199219 393.199219 336.398438 395.398438 334.898438 C 398.101563 334.199219 401.199219 334.5 403.398438 336 C 405.300781 345.898438 415.425781 377.957031 421.496094 380.574219 C 422.304688 380.921875 446.5 383.300781 455.898438 377 C 466.5 356.398438 465.601563 334.699219 466.398438 311.5 C 467.914063 309.722656 469.039063 307.773438 469.886719 305.734375 C 470.324219 304.675781 475 285.199219 474.300781 276.199219 C 475.601563 274.101563 474.898438 271.199219 474.300781 269 Z M 469.199219 266.101563 C 468.101563 265.699219 467.5 266.898438 466.398438 266.5 C 464.800781 261.300781 464.800781 254.5 464.898438 249.601563 L 468.199219 249.601563 C 468.5 254.601563 468.898438 261.5 469.199219 266.101563 Z M 433.15625 195.378906 C 433.699219 196.257813 434.398438 197.015625 433.601563 198.101563 C 431.199219 197.898438 428.699219 197.601563 426.800781 196.300781 C 425.800781 191.101563 425.398438 184.300781 427.101563 179.398438 C 430 178.398438 434.101563 178.199219 436.800781 179 C 437.699219 182.800781 438.398438 186.199219 437.601563 189.800781 C 433.84375 187.167969 431.894531 193.335938 433.15625 195.378906 Z M 436.101563 203.5 C 436 201.199219 436.800781 196.898438 435 194.5 C 435.101563 193.898438 434.800781 192.300781 435.398438 191.601563 C 441 196.800781 436.800781 206.199219 437.601563 212.800781 L 436.5 212.800781 C 435.199219 210.601563 437.699219 207.199219 434.300781 206.699219 C 432.800781 208 431 211.101563 428.601563 210 C 430.5 207.300781 433.800781 206 436.101563 203.5 Z M 434.300781 209.199219 L 434.300781 211.398438 L 432.5 211.398438 C 432.699219 210.5 433.699219 210 434.300781 209.199219 Z M 394.410156 134.140625 C 363.363281 135.683594 271.914063 133.726563 257.671875 133.503906 C 218.484375 132.878906 180.0625 132.679688 140.421875 131.859375 C 135.203125 131.75 134.375 130.847656 140.429688 130.589844 C 157.085938 129.878906 177.199219 129.511719 178.679688 129.566406 C 205.261719 130.570313 230.273438 129.519531 256.6875 130.363281 C 261.832031 130.527344 366.75 132.574219 394.675781 133.050781 C 400.984375 133.160156 398.609375 133.933594 394.410156 134.140625 Z M 161.800781 195.199219 C 164.199219 198.601563 165.308594 202.617188 165.007813 207.117188 C 166.707031 209.214844 167.898438 207.898438 170.101563 208.898438 C 179.601563 211.199219 189.199219 213.5 198.5 216.101563 L 198.5 217.199219 C 188.398438 215.398438 178.398438 212.101563 168.601563 210.300781 L 167.898438 211 C 175.699219 226.699219 184.699219 240.898438 192.800781 256.398438 C 192.699219 258.601563 193 260.898438 192.398438 262.898438 C 189 262.5 191.5 257.800781 190.199219 255.699219 C 182.199219 241.699219 174.5 228.699219 166.800781 214.601563 C 166.199219 214.398438 165.898438 215 165.398438 215.398438 C 166.898438 230.699219 171.101563 245 171.5 260.699219 C 171 261.300781 170.101563 262.398438 169.398438 261.398438 C 168 244.898438 165 228.101563 163.601563 211 L 162.898438 210.300781 C 163 206 163.199219 200.5 160 197.398438 C 156.976563 200.179688 160.03125 205.695313 157.753906 208.546875 C 155.464844 211.417969 147.199219 211.636719 140.632813 209.226563 C 139.601563 208.84375 138 206.699219 138 206.699219 C 138.101563 198.199219 137.601563 190.699219 139.800781 183 C 145.789063 178.132813 155.507813 178.617188 158.199219 184.398438 C 159.898438 187.800781 155.898438 194.199219 161.800781 195.199219 Z M 95.898438 154.898438 L 79.699219 154.199219 C 77.699219 153.5 78.648438 122.097656 78.675781 108.699219 C 85.175781 107.398438 92.898438 106.699219 99.199219 108.101563 C 98.300781 120.398438 99.5 132.300781 98.101563 144.398438 C 97.398438 144.398438 96.699219 144.5 96.300781 145.199219 C 96.699219 148.601563 95.5 151.5 95.898438 154.898438 Z M 98.101563 146.601563 C 99.398438 146 101.199219 146.300781 102.800781 146.199219 L 102.800781 160.601563 L 98.101563 160.300781 C 97.398438 154.101563 97.800781 152.800781 98.101563 146.601563 Z M 102 144.101563 L 102.398438 133.300781 C 104 132.199219 106.898438 132.199219 108.5 133.300781 L 108.5 144.800781 Z M 104.898438 146.601563 L 112.800781 147 L 112.800781 160.601563 L 104.601563 160.601563 Z M 132.601563 209.199219 C 133.5 207.5 134.601563 207.199219 136.199219 206.398438 C 136.300781 208.398438 138 210.398438 139.800781 211 C 145.484375 213.84375 157.8125 212.960938 159.136719 209.675781 C 159.398438 209.023438 160.785156 209.148438 160.828125 209.472656 C 163.121094 226.945313 166.421875 244.332031 167.601563 262.199219 L 169.398438 263.601563 C 157.601563 263.800781 140.398438 262.199219 126.199219 260.699219 C 124.898438 242.101563 126.101563 225.398438 132.601563 209.199219 Z M 124 260.699219 C 118.5 259.601563 113.800781 259.800781 108.199219 259.300781 C 108.300781 256.199219 109 218.898438 109.199219 203.800781 C 117.398438 201.898438 127 203.101563 135.898438 202.800781 C 136.5 203.101563 136.199219 203.898438 136.199219 204.601563 C 133.300781 204.601563 130.800781 207.898438 129.800781 210.300781 C 124.101563 225.5 124.300781 245.101563 124 260.699219 Z M 136.8125 185.675781 C 135.984375 190.054688 136.199219 201 136.199219 201 C 128.300781 201.898438 117.800781 200.601563 109.199219 202 C 110.101563 188.5 109.199219 175.898438 110 163.199219 C 111 161.5 113.398438 163.398438 114.300781 162.101563 C 114.589844 156.527344 114.601563 151.972656 114.601563 145.949219 C 114.601563 145.703125 112.007813 144.78125 110.300781 144.800781 L 111 132.898438 C 145.769531 134.027344 179.304688 133.652344 213.511719 134.519531 C 215.703125 134.574219 348.199219 136.601563 358.398438 136.898438 L 358.398438 145.5 C 340.839844 140.78125 265.152344 139.054688 244.675781 139.617188 C 214.953125 140.433594 175.84375 143.097656 164.300781 144.398438 C 160.757813 144.316406 158.351563 147.292969 156.183594 150.089844 C 155.78125 150.605469 144.800781 169.898438 141.300781 179.699219 C 138.488281 181.015625 137.289063 183.15625 136.8125 185.675781 Z M 305.800781 12 L 306.898438 13.398438 C 296.300781 13.601563 231.199219 11.300781 211.101563 11.199219 C 224.171875 0.0195313 280.894531 -1.753906 305.800781 12 Z M 421.398438 18.800781 C 423.199219 19.527344 424.425781 20.78125 425.351563 22.28125 C 426.84375 24.703125 447.691406 85.566406 448.746094 92.148438 C 450.523438 103.21875 449.394531 114.996094 443 123.898438 C 443 123.898438 438.199219 131.199219 436.101563 131.800781 C 400.398438 130.601563 209.425781 127.449219 178 127.5 C 187.800781 115.542969 187.898438 102.578125 185.027344 89.425781 C 182.039063 75.742188 168.398438 24.800781 164.699219 13.800781 L 162.898438 12 C 162.898438 12 388.425781 16.699219 421.398438 18.800781 Z M 12.800781 26.699219 C 42.199219 22.398438 71.398438 16.601563 101 13.398438 C 119.699219 12.398438 138.398438 12.398438 157.800781 12 C 161.828125 11.824219 163.199219 15.898438 163.199219 15.898438 L 160 14.101563 C 124.398438 13.898438 90.699219 15.101563 57.800781 21.300781 L 55.601563 22.398438 L 12.800781 27.800781 Z M 3.800781 163.199219 C 3 154.5 3 144.800781 4.101563 136.898438 C 6.5 135.800781 10.101563 135.800781 12.398438 136.898438 C 12.699219 146.199219 11.101563 153.601563 11.699219 162.800781 Z M 3.800781 283.800781 C 4.601563 278.199219 5.300781 198.699219 6.601563 166 L 10.601563 165.300781 C 9.101563 204.898438 9.300781 243.800781 7.699219 283.398438 C 7.199219 284.601563 4.800781 284.199219 3.800781 283.800781 Z M 29.976563 206.367188 C 29.582031 207.984375 27.800781 253.199219 25.398438 274 C 24.863281 277.574219 23.699219 281 20.300781 280.898438 C 23.351563 277.4375 24.09375 272.910156 24.25 268.265625 C 24.359375 264.992188 26.648438 225.078125 27.773438 207.261719 C 27.859375 205.898438 28.132813 201.429688 30.738281 200.699219 C 30.972656 200.636719 32.898438 200.601563 32.898438 200.601563 C 31.261719 202.179688 30.484375 204.269531 29.976563 206.367188 Z M 43.699219 259.601563 C 43.816406 258.054688 42.988281 255.582031 43.300781 254.074219 C 43.441406 253.398438 43.910156 252.359375 44.527344 251.917969 C 44.9375 251.621094 45.375 252.496094 45.175781 252.710938 C 43.410156 254.59375 44.710938 257.257813 44.800781 260.398438 L 46.199219 261.800781 C 45 262.300781 44 260.898438 43.699219 259.601563 Z M 64.199219 291 C 60.640625 291.445313 54.625 284.421875 50.898438 279.101563 C 49.5 273.699219 49.5 267.5 47.699219 262.5 C 53 262.699219 59.398438 263.601563 64.601563 264 C 64.5 272.5 68.101563 282.601563 64.199219 291 Z M 79.699219 363.300781 L 78.601563 364 C 85.800781 347.699219 84.398438 328 84 310.800781 L 85.101563 311.800781 C 85.398438 330.699219 87.300781 346.300781 79.699219 363.300781 Z M 88.46875 265.738281 C 88.582031 264.191406 87.757813 261.71875 88.066406 260.210938 C 88.207031 259.535156 88.675781 258.496094 89.292969 258.054688 C 89.703125 257.761719 90.144531 258.632813 89.945313 258.847656 C 88.179688 260.734375 89.476563 263.394531 89.570313 266.535156 L 90.96875 267.9375 C 89.769531 268.4375 88.769531 267.035156 88.46875 265.738281 Z M 98.101563 286.601563 C 96 280.601563 93.300781 273.601563 93.398438 267.898438 L 98.800781 268.300781 C 98 273.800781 98.898438 281.199219 98.101563 286.601563 Z M 98.398438 258.601563 L 91.199219 257.5 C 89.976563 253.683594 90.410156 248.570313 88.027344 245.375 C 87.097656 244.128906 68.199219 240.601563 68.199219 240.601563 C 65 244.101563 65.5 249.199219 65 253.898438 C 59.398438 254 53.398438 254 47.699219 252.398438 L 46.199219 207.800781 C 48.300781 203.398438 52.800781 202 57 201.300781 L 99.199219 203.800781 C 98.898438 221.699219 98.425781 239.949219 98.398438 258.601563 Z M 99.5 202 C 76.398438 200.398438 55.101563 201 32.199219 198.800781 C 24.898438 199.300781 27.199219 206.699219 25.699219 211 C 24.300781 232.300781 23.699219 254.300781 21.398438 274.800781 C 20.699219 277.300781 19.199219 279.398438 17.101563 281.199219 L 9.5 281.199219 C 11 239.898438 10.199219 205.800781 12.398438 164.601563 L 13.5 163.5 C 13.601563 154.898438 14.425781 145.949219 14.199219 136.5 L 11 134.398438 C 10.898438 99 12.300781 63.398438 13.800781 29.601563 C 13.800781 29.601563 110.898438 14.910156 158.898438 15.601563 C 162.5 16.101563 164.101563 20.300781 165.398438 22.800781 C 172 49.898438 181.300781 74.898438 185.199219 103 C 183.800781 112 181.699219 120.601563 175.5 127.5 C 150.601563 129.800781 126.5 128.898438 102 131.101563 C 101.707031 131.445313 101.46875 131.824219 101.28125 132.222656 C 101.035156 132.734375 100.859375 133.074219 100.734375 133.285156 C 100.054688 134.417969 101 130.386719 101.050781 129.449219 C 101.128906 119.574219 100.714844 107.992188 100.6875 107.769531 C 100.605469 107.097656 100.265625 106.46875 99.199219 105.898438 C 93.363281 105.574219 86.738281 105.824219 80.664063 106.335938 C 78.0625 106.785156 77.324219 107.238281 77.140625 109.519531 C 76.078125 122.835938 76.367188 137.910156 76.730469 151.949219 C 76.867188 157.148438 80.101563 156.300781 80.101563 156.300781 L 95.898438 156.699219 C 96.949219 158.050781 95.582031 161.199219 96.6875 162.226563 C 97.054688 162.570313 99.898438 162.398438 99.898438 162.398438 Z M 100.601563 296.699219 C 99.199219 295.300781 100.601563 207.5 102 162.800781 L 108.199219 162.800781 C 107.398438 208.5 106.699219 250.300781 106 296 C 104.699219 297.398438 102.300781 297.300781 100.601563 296.699219 Z M 126.199219 304.601563 C 119.5 303.300781 113.199219 302.898438 106.699219 302.101563 C 106 301 104.898438 299.898438 104.601563 298.5 C 105.800781 298.300781 106.699219 297.398438 107.800781 296.699219 C 106.800781 287.601563 108.101563 276.699219 108.199219 269.398438 C 114.101563 269.199219 119.5 269.5 125.398438 270.398438 C 126.398438 281.101563 129.5 291.699219 131.898438 302.101563 C 131.898438 306 128.800781 304.5 126.199219 304.601563 Z M 202.101563 313.601563 C 178.199219 310.898438 156.5 309.199219 133 305.398438 C 134.199219 303.949219 134.023438 302.699219 133.550781 301.4375 C 133.074219 300.175781 128.398438 279.699219 127.199219 270.398438 C 152.5 273.300781 176.300781 273.5 201.800781 275.800781 C 201.800781 275.800781 202.878906 301.277344 203.101563 304.390625 C 203.324219 307.5 203.21875 310.578125 202.101563 313.601563 Z M 220.5 389.601563 C 226.199219 379.300781 225.800781 368.898438 227.699219 357.601563 C 228.101563 342.398438 227.898438 328 225.898438 313.601563 C 227.101563 313.699219 227.574219 314.347656 228.175781 314.949219 C 229.773438 339.347656 232.925781 378.699219 220.5 389.601563 Z M 232.21875 257.023438 C 223.902344 253.238281 211.25 252.769531 208.328125 254.933594 C 205.777344 256.820313 205.140625 260.8125 203.898438 263.601563 L 203.898438 265 C 193.203125 266.71875 170.683594 265.660156 172.40625 263.050781 C 172.734375 262.554688 172.90625 261.851563 173.300781 261.398438 C 172.601563 247.199219 169.199219 233.601563 167.898438 220 C 174.199219 232.300781 182.699219 244.300781 188.398438 257.101563 C 189.5 259.800781 187.5 264.300781 191.699219 265 C 193.199219 265.300781 195.101563 264.199219 194.898438 262.5 C 196.019531 258.015625 193.8125 253.78125 191.175781 249.554688 C 189.113281 246.238281 176 221.300781 170.398438 212.5 C 180.300781 214.398438 191.101563 217.300781 201.398438 219.699219 C 202.398438 218.601563 203.699219 216.601563 202.101563 215.398438 C 192.800781 212.800781 183.199219 210.5 173.699219 208.199219 L 202.675781 208.78125 C 201.074219 192.28125 198.8125 155.898438 198.578125 155.414063 C 197.007813 152.144531 194.328125 150.9375 191.167969 150.675781 C 185.570313 150.214844 164.800781 153.199219 160.398438 154.5 C 155.300781 162.101563 151.5 170.101563 147.800781 178.300781 L 143.800781 178.601563 C 147.699219 168.300781 153.199219 158.699219 158.898438 149.101563 C 162.699219 145.601563 167.800781 145.398438 173 145.199219 C 200.378906 144.34375 228.574219 142.066406 255.839844 141.40625 C 272.257813 141.011719 288.53125 141.777344 303.1875 142.59375 C 321.460938 143.605469 339.4375 144.15625 357.601563 147.300781 C 376.5 163.398438 392.398438 183.699219 402.601563 205.300781 L 399.398438 204.199219 C 387.800781 185 374.800781 167.699219 358 151.300781 C 334.175781 144.617188 232.339844 144.949219 208.199219 151.300781 C 208.199219 151.300781 208.972656 187.335938 210.730469 204.277344 C 211.0625 207.472656 211.40625 208.25 213.742188 208.453125 C 216.464844 208.695313 219.351563 207.851563 221.898438 207.398438 C 233.121094 206.125 244.386719 205.742188 255.84375 205.375 C 262.355469 205.167969 287.515625 203.585938 293.179688 203.476563 C 322.285156 202.914063 352.226563 202.460938 380.859375 204.121094 C 387.015625 204.476563 397.035156 205.902344 404.152344 207.390625 C 416.105469 209.886719 427.976563 212.625 439 217.5 C 444.800781 221 447.773438 226.316406 447.675781 232.117188 C 455.375 235.316406 466 237.699219 467.398438 248.101563 C 461.398438 247.300781 454.800781 248.199219 448.699219 247.398438 C 448 240.101563 449.699219 232.898438 441.898438 228.699219 C 436.199219 227.699219 430.5 227.699219 424.199219 227.199219 C 385.601563 222.800781 344.699219 224.5 306.5 228.699219 C 302.5 229.398438 297.601563 229.601563 295.699219 234.101563 L 295.398438 248.5 L 251.101563 249.199219 C 246.699219 252.199219 246 267.601563 246 267.601563 C 242.699219 267.5 240.699219 266.898438 239.601563 263.601563 C 237.617188 260.359375 235.082031 258.328125 232.21875 257.023438 Z M 448.699219 249.199219 L 462.398438 249.199219 C 463.601563 254.800781 463 260.898438 464.199219 266.5 L 446.898438 267.199219 C 448.601563 261.199219 448.101563 255.699219 448.699219 249.199219 Z M 445.800781 264.699219 C 445.800781 265.898438 444.300781 267 443.300781 267.601563 C 397.601563 270.101563 347.601563 268.800781 299.300781 268.601563 C 296.117188 266.628906 296.816406 259.4375 297.050781 255.324219 C 297.453125 248.230469 298.199219 240.644531 298.199219 233.699219 C 311.382813 225.296875 398.550781 225.503906 439 229.800781 C 442.101563 230.101563 444.800781 232.898438 446.199219 235.5 C 447.699219 245.398438 446.5 255.601563 445.800781 264.699219 Z M 296.398438 267.898438 L 266.898438 267.898438 L 267.300781 251 C 275.699219 249.898438 286.699219 249.398438 295.398438 250.601563 C 295.5 256.300781 293.199219 262.800781 296.398438 267.898438 Z M 265.5 251 L 265.5 267.898438 C 259.5 267.898438 254 268 247.800781 267.199219 C 248.101563 261.800781 248.300781 255.199219 251.800781 251 Z M 241.699219 279.101563 C 238.175781 279.324219 236.425781 272.449219 239.199219 267.898438 C 239.601563 268 240.304688 268.0625 240.304688 268.257813 C 239.175781 271.199219 237.164063 275.109375 242.101563 278.398438 C 241.898438 278.5 241.601563 278.699219 241.699219 279.101563 Z M 461 312.199219 C 452 314.398438 399.3125 316.761719 381.671875 316.84375 C 361.121094 316.945313 283.703125 316.632813 254.699219 310.800781 C 245.5 302.898438 247.398438 289.5 243.5 279.398438 C 248.800781 279.199219 254.601563 279.898438 260.101563 280.199219 C 262 288.699219 265.601563 297 272.300781 303.199219 C 277.398438 305.898438 337.5 305.398438 360.5 307.199219 L 362 308.601563 L 398.300781 308.199219 L 399.398438 307.199219 C 413.5 307.101563 462 307.398438 468.5 299.601563 C 467.601563 303.699219 466.601563 310.199219 461 312.199219 Z M 363.398438 285.601563 C 375.144531 285.699219 385.882813 283.792969 398 284.5 C 398.101563 291.5 397.800781 299.101563 396.898438 306.101563 C 384.800781 305.699219 374 308.300781 362.699219 306.398438 C 363 300.898438 363.699219 291.898438 363.398438 285.601563 Z M 464.199219 301.398438 C 453.5 303.699219 399 305.398438 399 305.398438 L 399 299.199219 C 413.101563 298.101563 429.300781 298.898438 442.601563 296 C 444.699219 294.199219 444.601563 284.300781 441.898438 283.398438 C 428.699219 284.601563 414.898438 285.601563 400.101563 285.199219 L 399.398438 283 C 386.675781 282.449219 377.175781 283.449219 363 283.398438 L 361.199219 285.898438 C 345.601563 285.800781 328.199219 284.601563 313 285.601563 C 311.398438 286.101563 308.101563 296.5 311.898438 298.5 C 327.199219 299.398438 345.199219 298.199219 361.199219 299.601563 C 361.699219 301.300781 360.398438 303.199219 360.898438 305.398438 C 332.101563 303.800781 303.699219 305.601563 275.199219 302.5 C 267.101563 298 264.398438 289.101563 262.199219 280.5 C 282.898438 280.601563 383.925781 281.199219 383.925781 281.199219 C 413.726563 281.398438 442.398438 278.800781 471.800781 278 C 470.601563 286.800781 472.101563 295.699219 464.199219 301.398438 "/>
<path style=" stroke:none;fill-rule:nonzero;fill:rgb(0%,0%,0%);fill-opacity:1;" d="M 61 85.398438 C 59.5 84.699219 23.601563 87.199219 23.601563 87.199219 C 21.101563 87.601563 19.699219 90.300781 18.898438 92.199219 C 18.5 104.601563 18.199219 121.5 17.800781 134.699219 C 18 137.300781 19 140.300781 21.800781 141.199219 L 54.925781 141.578125 C 54.925781 141.578125 60.996094 142.507813 63.199219 132.601563 C 63.601563 119.398438 63.699219 105.5 63.898438 92.601563 C 63.699219 89.898438 63.601563 86.800781 61 85.398438 Z M 40.414063 135.949219 C 40.4375 136.496094 38.648438 137.128906 38.625 136.691406 C 37.769531 120.882813 39 104.289063 39 89.398438 L 40.800781 89.398438 C 41.175781 104.699219 40.675781 118.949219 40.414063 135.949219 "/>
<path style=" stroke:none;fill-rule:nonzero;fill:rgb(0%,0%,0%);fill-opacity:1;" d="M 81.199219 117.398438 L 96.300781 117.101563 L 96.300781 114.601563 L 81.5 114.601563 L 81.199219 117.398438 "/>
<path style=" stroke:none;fill-rule:nonzero;fill:rgb(0%,0%,0%);fill-opacity:1;" d="M 125.484375 95.445313 C 128.988281 96.300781 144.992188 95.546875 148.671875 95.183594 C 155.277344 94.539063 156.761719 85.496094 155.972656 79.15625 C 155.28125 73.617188 151.1875 49.886719 145.652344 47.242188 C 145 46.929688 129.933594 45.671875 125.144531 48.65625 C 123.914063 49.425781 122.898438 50.578125 122.199219 52.300781 C 121.898438 66.5 121.199219 78.300781 121.5 92.199219 C 122.402344 94.105469 123.816406 95.039063 125.484375 95.445313 "/>
<path style=" stroke:none;fill-rule:nonzero;fill:rgb(0%,0%,0%);fill-opacity:1;" d="M 249.460938 79.046875 C 253.101563 79.902344 376.585938 83.828125 380.3125 82.792969 C 384.71875 81.570313 386.28125 76.398438 386.101563 72.800781 C 382.398438 64 383 50.5 371 48 C 371 48 265.894531 44.515625 240.925781 44.394531 C 236.054688 44.371094 233.960938 46.878906 234.859375 52.671875 C 236.402344 62.644531 239.695313 76.757813 249.460938 79.046875 "/>
<path style=" stroke:none;fill-rule:nonzero;fill:rgb(0%,0%,0%);fill-opacity:1;" d="M 373.101563 252.398438 C 353.101563 251.601563 330 250.898438 309.800781 251.699219 C 307 253.898438 305.898438 258.699219 308 261.800781 C 328.800781 262.199219 350.300781 262.5 372 262.898438 L 373.800781 261.800781 C 374.699219 259.101563 375.601563 254.300781 373.101563 252.398438 "/>
<path style=" stroke:none;fill-rule:nonzero;fill:rgb(0%,0%,0%);fill-opacity:1;" d="M 372.871094 234.1875 C 367.851563 231.628906 332.789063 234.113281 311.199219 235.5 C 307.898438 237.300781 306.601563 243.398438 310.800781 245.601563 C 331.699219 243.5 351 246.398438 372 246 C 372.691406 245.640625 373.199219 245.253906 373.566406 244.839844 C 376.28125 241.808594 374.851563 235.199219 372.871094 234.1875 "/>
<path style=" stroke:none;fill-rule:nonzero;fill:rgb(0%,0%,0%);fill-opacity:1;" d="M 342.5 38.601563 C 342.199219 36.398438 341.898438 34.101563 341.101563 32.101563 C 337.699219 32.398438 334.800781 31.398438 331.398438 31.800781 C 331.800781 33.898438 331.800781 36.300781 332.800781 38.199219 C 335.898438 38.898438 339.300781 38.5 342.5 38.601563 "/>
<path style=" stroke:none;fill-rule:nonzero;fill:rgb(0%,0%,0%);fill-opacity:1;" d="M 385.398438 245.199219 C 403.101563 244.800781 419.699219 246.199219 437.601563 244.898438 L 440.101563 242.699219 C 439.898438 240.199219 440.800781 235.699219 437.898438 234.398438 C 420.398438 234.101563 402.101563 233.398438 384.300781 232.601563 C 380.300781 234.398438 380.699219 243.800781 385.398438 245.199219 "/>
<path style=" stroke:none;fill-rule:nonzero;fill:rgb(0%,0%,0%);fill-opacity:1;" d="M 384.300781 251 C 380.601563 254 382.199219 258 382.800781 262.199219 C 401.101563 261.898438 420.699219 262.800781 439 261.398438 L 440.800781 259.601563 C 441.101563 256 442.101563 253.300781 439.398438 250.601563 C 421.898438 250.699219 401.699219 252 384.300781 251 "/>
<path style=" stroke:none;fill-rule:nonzero;fill:rgb(0%,0%,0%);fill-opacity:1;" d="M 274.351563 37.460938 C 274.050781 35.261719 273.75 32.960938 272.949219 30.960938 C 269.550781 31.261719 266.648438 30.261719 263.25 30.660156 C 263.648438 32.761719 263.648438 35.160156 264.648438 37.0625 C 267.75 37.761719 271.148438 37.363281 274.351563 37.460938 "/>
<path style=" stroke:none;fill-rule:nonzero;fill:rgb(0%,0%,0%);fill-opacity:1;" d="M 307.851563 37.898438 C 307.550781 35.699219 307.25 33.398438 306.449219 31.398438 C 303.050781 31.699219 300.148438 30.699219 296.75 31.101563 C 297.148438 33.199219 297.148438 35.601563 298.148438 37.5 C 301.25 38.199219 304.648438 37.800781 307.851563 37.898438 "/>
<path style=" stroke:none;fill-rule:nonzero;fill:rgb(0%,0%,0%);fill-opacity:1;" d="M 96.097656 127.0625 L 81.300781 127.0625 L 81 129.863281 L 96.097656 129.5625 L 96.097656 127.0625 "/>
<path style=" stroke:none;fill-rule:nonzero;fill:rgb(0%,0%,0%);fill-opacity:1;" d="M 81 141.597656 L 96.097656 141.296875 L 96.097656 138.796875 L 81.300781 138.796875 L 81 141.597656 "/>
<path style=" stroke:none;fill-rule:nonzero;fill:rgb(0%,0%,0%);fill-opacity:1;" d="M 422.972656 41.535156 C 422.671875 39.335938 422.371094 37.035156 421.574219 35.035156 C 418.171875 35.335938 415.273438 34.335938 411.871094 34.738281 C 412.273438 36.835938 412.273438 39.238281 413.273438 41.136719 C 416.371094 41.835938 419.773438 41.4375 422.972656 41.535156 "/>
<path style=" stroke:none;fill-rule:nonzero;fill:rgb(0%,0%,0%);fill-opacity:1;" d="M 190.101563 35.023438 C 189.800781 32.824219 189.5 30.523438 188.699219 28.523438 C 185.300781 28.824219 182.398438 27.824219 179 28.226563 C 179.398438 30.324219 179.398438 32.726563 180.398438 34.625 C 183.5 35.324219 186.898438 34.925781 190.101563 35.023438 "/>
</g>
</svg>
