<?xml version="1.0" encoding="UTF-8"?>
<svg xmlns="http://www.w3.org/2000/svg" xmlns:xlink="http://www.w3.org/1999/xlink" width="501pt" height="623pt" viewBox="0 0 501 623" version="1.1">
<g id="surface1">
<path style=" stroke:none;fill-rule:nonzero;fill:rgb(0%,0%,0%);fill-opacity:1;" d="M 379.28125 461.917969 C 379.28125 461.917969 369.953125 435.347656 365.355469 422.578125 C 361.992188 413.125 362.691406 409.589844 370.140625 412.25 C 383.113281 417.011719 390.078125 419.035156 385.191406 401.160156 C 380.925781 385.570313 369.136719 361.15625 365.375 353.863281 C 353.691406 331.226563 338.289063 308.328125 327.46875 293.519531 C 317.480469 278.078125 326.1875 274.191406 342.324219 279.660156 C 350.828125 282.542969 358.941406 286.371094 367.605469 288.964844 C 372.078125 289.980469 374.519531 286.730469 373.398438 280.765625 C 371.273438 269.496094 351.667969 229.589844 332.605469 200.382813 C 320.765625 182.246094 307.832031 164.65625 294.367188 147.183594 C 274.964844 122.738281 291.726563 133.632813 312.679688 139.8125 C 326.3125 144.191406 337.949219 145.796875 327.515625 123.335938 C 304.320313 77.890625 270.800781 36.855469 232.867188 0.332031 C 227.328125 0.613281 2.847656 0.5625 0.125 0.65625 C 37.308594 22.816406 75.03125 48.875 107.613281 77.324219 C 116.257813 85.011719 111.324219 88.488281 101.421875 89.328125 C 95.921875 89.796875 90.152344 89.410156 85.453125 89.0625 C 77.710938 88.675781 64.109375 87.917969 71.554688 100.328125 C 91.503906 128.199219 169.503906 162.183594 212.253906 199.476563 C 232.203125 215.964844 209.832031 212.945313 200.003906 212.816406 C 195.1875 212.589844 190.035156 212.089844 185.214844 212.09375 C 170.753906 212.101563 167.84375 217.132813 177.015625 230.082031 C 193.359375 253.160156 219.800781 268.625 240.285156 288.496094 C 251.8125 299.0625 263.066406 309.628906 273.230469 321.179688 C 278.527344 327.203125 279.683594 332.699219 273.941406 333.8125 C 267.53125 335.054688 260.214844 334.050781 253.566406 334.738281 C 244.574219 335.675781 235.199219 338.988281 245.074219 354.503906 C 264.886719 387.929688 291.550781 416.851563 311.269531 450.089844 C 316.996094 458.539063 324.132813 477.316406 324.132813 477.316406 C 324.132813 477.316406 236.246094 501.730469 192.304688 513.84375 C 192.304688 514.03125 192.304688 514.3125 192.304688 514.3125 L 393.050781 622.667969 L 500.375 429.339844 L 379.28125 461.917969 "/>
</g>
</svg>
