<?xml version="1.0" encoding="UTF-8"?>
<svg xmlns="http://www.w3.org/2000/svg" xmlns:xlink="http://www.w3.org/1999/xlink" width="487pt" height="487pt" viewBox="0 0 487 487" version="1.1">
<g id="surface1">
<path style=" stroke:none;fill-rule:nonzero;fill:rgb(0%,0%,0%);fill-opacity:1;" d="M 486.144531 2.566406 C 486.144531 1.429688 485.21875 0.5 484.082031 0.5 L 2.316406 0.5 C 1.179688 0.5 0.25 1.429688 0.25 2.566406 L 0.25 29.3125 C 0.25 30.449219 1.179688 31.378906 2.316406 31.378906 L 58.1875 31.378906 C 59.941406 31.378906 60.871094 33.445313 59.632813 34.785156 C 43.519531 52.550781 37.632813 75.578125 37.632813 97.886719 C 37.632813 125.460938 46.308594 154.582031 60.042969 180.8125 C 79.152344 217.476563 106.414063 249.59375 142.144531 271.175781 C 157.121094 280.160156 176.328125 287.597656 195.847656 289.042969 C 196.882813 289.144531 197.605469 289.871094 197.707031 290.902344 C 199.152344 310.316406 206.589844 329.628906 215.46875 344.5 C 237.054688 380.234375 269.273438 407.601563 305.832031 426.601563 C 332.0625 440.335938 361.1875 449.117188 388.761719 449.117188 C 411.171875 449.117188 434.097656 443.230469 451.859375 427.117188 C 453.203125 425.878906 455.269531 426.808594 455.269531 428.566406 L 455.269531 484.433594 C 455.269531 485.570313 456.199219 486.5 457.335938 486.5 L 484.183594 486.5 C 485.320313 486.5 486.25 485.570313 486.25 484.433594 Z M 404.429688 26.359375 L 459.265625 26.359375 C 459.886719 26.359375 460.300781 26.773438 460.300781 27.394531 L 460.300781 82.335938 C 460.300781 83.265625 459.265625 83.679688 458.648438 83.058594 C 452.863281 77.996094 445.429688 74.691406 437.992188 72.214844 C 431.382813 70.355469 424.980469 69.324219 418.472656 69.21875 C 417.957031 69.21875 417.546875 68.804688 417.546875 68.289063 C 417.339844 61.785156 416.304688 55.382813 414.445313 48.773438 C 412.070313 41.230469 408.765625 33.898438 403.601563 28.015625 C 403.085938 27.394531 403.5 26.359375 404.429688 26.359375 Z M 221.632813 26.378906 L 306.523438 26.378906 C 307.453125 26.378906 307.863281 27.515625 307.246094 28.136719 C 297.539063 37.84375 292.785156 52.816406 297.949219 65.414063 C 298.261719 66.347656 297.226563 67.171875 296.402344 66.757813 C 273.679688 53.128906 248.378906 38.980469 221.320313 28.339844 C 220.289063 27.929688 220.597656 26.378906 221.632813 26.378906 Z M 449.6875 383.011719 C 447.101563 392.390625 442.589844 400.148438 436.453125 406.28125 C 410.945313 431.785156 361.421875 426.703125 317.816406 403.828125 C 285.382813 386.824219 256.589844 362.855469 237.65625 331.261719 C 227.269531 313.953125 221.003906 294.105469 224.640625 274.648438 C 225.5625 269.785156 226.964844 265.050781 228.847656 260.582031 C 229.59375 258.917969 227.886719 257.207031 226.21875 257.910156 C 221.75 259.792969 217.058594 261.238281 212.152344 262.160156 C 192.691406 265.839844 172.882813 259.574219 155.527344 249.1875 C 123.972656 230.257813 100 201.46875 82.996094 169 C 60.117188 125.398438 55.035156 75.882813 80.542969 50.378906 C 86.675781 44.246094 94.480469 39.730469 103.8125 37.148438 C 174.371094 17.734375 243.96875 59.058594 301.992188 94.285156 C 310.714844 99.589844 317.992188 103.839844 324.738281 106.46875 C 336.132813 110.9375 349.019531 107.914063 357.652344 99.28125 C 365.894531 91.046875 371.0625 79.214844 368.039063 67.996094 C 366.417969 61.992188 362.648438 56.339844 356.46875 54.5 C 348.449219 52.132813 341.128906 57.21875 334.777344 61.773438 C 330.21875 65.058594 323.777344 65.71875 319.613281 61.554688 C 311.722656 53.667969 321.277344 43.675781 322.371094 42.535156 C 334.382813 29.828125 352.394531 24.527344 369.3125 29.171875 C 381.757813 32.589844 391.003906 42.667969 394.6875 54.894531 C 398.628906 67.953125 397.097656 80.660156 391.574219 92.578125 C 390.785156 94.285156 392.582031 96.085938 394.289063 95.296875 C 406.214844 89.773438 418.878906 88.195313 431.894531 92.140625 C 444.164063 95.820313 454.246094 105.066406 457.664063 117.511719 C 462.308594 134.425781 457.007813 152.4375 444.296875 164.441406 C 443.15625 165.539063 433.164063 175.132813 425.277344 167.203125 C 421.113281 163.085938 421.769531 156.597656 425.058594 152.039063 C 429.570313 145.730469 434.699219 138.371094 432.332031 130.351563 C 430.492188 124.171875 424.839844 120.402344 418.835938 118.78125 C 407.613281 115.757813 395.78125 120.929688 387.542969 129.210938 C 378.910156 137.800781 375.886719 150.683594 380.355469 162.121094 C 382.984375 168.824219 387.234375 176.097656 392.539063 184.816406 C 427.773438 242.835938 469.101563 312.464844 449.6875 383.011719 Z M 460.40625 264.992188 C 460.40625 266.128906 458.859375 266.335938 458.445313 265.304688 C 447.910156 238.246094 433.660156 212.941406 420.027344 190.222656 C 419.613281 189.398438 420.441406 188.363281 421.371094 188.777344 C 441.300781 197.144531 458.652344 179.378906 458.859375 178.964844 C 459.375 178.242188 460.40625 178.65625 460.40625 179.484375 L 460.40625 264.992188 "/>
<path style=" stroke:none;fill-rule:nonzero;fill:rgb(0%,0%,0%);fill-opacity:1;" d="M 372.867188 207.464844 C 366.511719 197.5625 359.9375 187.355469 355.558594 177.054688 C 350.648438 165.355469 348.019531 151.683594 354.636719 136.65625 C 355.117188 135.558594 355.644531 134.375 356.257813 133.191406 C 357.089844 131.441406 355.25 129.644531 353.539063 130.476563 C 352.3125 131.089844 351.171875 131.617188 350.078125 132.097656 C 335.046875 138.714844 321.371094 136.085938 309.671875 131.175781 C 299.371094 126.753906 289.160156 120.179688 279.253906 113.867188 C 269.570313 107.691406 260.058594 101.554688 250.109375 96.996094 C 221.230469 83.675781 186.300781 70.09375 161.582031 67.464844 C 146.199219 65.796875 132.703125 71.539063 122.753906 81.484375 C 104.828125 99.410156 98.121094 131.175781 111.972656 158.039063 C 125.515625 184.15625 144.578125 207.554688 169.996094 222.804688 C 183.933594 231.128906 196.382813 233.976563 206.066406 232.222656 C 212.726563 230.996094 219.125 228.148438 223.945313 223.328125 C 233.371094 213.90625 238.714844 196.25 228.988281 173.726563 C 222.894531 159.527344 212.464844 147.652344 199.054688 140.074219 C 190.464844 135.210938 181.480469 132.402344 175.125 132.535156 C 169.03125 132.667969 160.179688 133.191406 160.179688 140.90625 C 160.179688 145.59375 158.691406 150.503906 154.613281 153.085938 C 152.378906 154.488281 148.917969 155.496094 144.535156 153.304688 C 136.601563 149.40625 133.621094 140.421875 134.234375 132.011719 C 134.9375 121.933594 138.09375 114 143.703125 108.390625 C 160.179688 91.914063 190.421875 101.335938 209.089844 112.246094 C 215.3125 115.796875 220.878906 119.871094 225.351563 124.078125 C 226.355469 125 227.980469 124.691406 228.550781 123.464844 C 229.46875 121.667969 230.652344 120.003906 232.140625 118.558594 C 240.820313 109.925781 256.117188 109.617188 270.445313 117.460938 C 277.019531 121.097656 282.847656 126.007813 287.84375 131.617188 C 288.851563 132.710938 293.628906 138.714844 288.589844 143.796875 C 284.164063 148.222656 278.027344 145.199219 276.230469 144.148438 C 271.015625 141.125 264.09375 136.828125 259.007813 141.914063 C 256.816406 144.105469 257.121094 148.003906 260.191406 159.398438 C 262.382813 167.679688 263.476563 176.179688 264.617188 184.636719 C 266.414063 198.222656 264.617188 212.023438 259.488281 224.601563 C 258.789063 226.265625 260.453125 227.929688 262.121094 227.230469 C 274.699219 222.101563 288.503906 220.304688 302.089844 222.101563 C 310.546875 223.242188 319.050781 224.335938 327.332031 226.570313 C 338.726563 229.59375 342.628906 229.902344 344.820313 227.710938 C 349.902344 222.628906 345.605469 215.703125 342.585938 210.488281 C 341.53125 208.695313 338.464844 202.558594 342.890625 198.132813 C 348.019531 193.09375 354.023438 197.871094 355.117188 198.878906 C 360.726563 203.871094 365.636719 209.703125 369.230469 216.316406 C 377.117188 230.601563 376.8125 245.941406 368.179688 254.574219 C 366.730469 256.0625 365.066406 257.246094 363.226563 258.164063 C 362 258.777344 361.734375 260.355469 362.65625 261.363281 C 366.863281 265.835938 370.9375 271.445313 374.488281 277.621094 C 385.359375 296.289063 394.78125 326.566406 378.347656 343 C 372.734375 348.609375 364.804688 351.765625 354.722656 352.464844 C 346.308594 353.121094 337.324219 350.144531 333.425781 342.210938 C 331.234375 337.785156 332.242188 334.324219 333.644531 332.132813 C 336.230469 328.015625 341.136719 326.566406 345.828125 326.566406 C 353.496094 326.566406 354.066406 317.671875 354.199219 311.625 C 354.328125 305.226563 351.523438 296.246094 346.660156 287.65625 C 339.078125 274.246094 327.15625 263.820313 313 257.726563 C 290.476563 248.042969 272.8125 253.347656 263.390625 262.765625 C 258.570313 267.585938 255.722656 273.984375 254.492188 280.644531 C 252.742188 290.328125 255.589844 302.816406 263.914063 316.710938 C 279.167969 342.167969 302.527344 361.230469 328.691406 374.726563 C 355.558594 388.617188 387.285156 381.910156 405.253906 363.945313 C 415.203125 354 420.898438 340.546875 419.277344 325.121094 C 416.648438 300.453125 403.019531 265.527344 389.738281 236.605469 C 385.183594 226.660156 379.046875 217.148438 372.867188 207.464844 Z M 151.410156 175.175781 C 157.398438 174.761719 162.355469 172.695313 165.660156 170.527344 C 167.105469 169.597656 169.070313 168.253906 170.929688 166.394531 C 174.335938 162.988281 176.609375 159.167969 178.261719 155.449219 C 178.671875 154.519531 179.703125 154.003906 180.738281 154.3125 C 182.90625 155.140625 185.695313 156.273438 188.898438 158.03125 C 198.503906 163.296875 205.730469 172.074219 210.066406 181.988281 C 213.890625 190.5625 216.675781 201.40625 209.34375 208.738281 C 206.96875 211.011719 203.769531 212.144531 200.359375 212.144531 C 196.539063 212.144531 189.828125 210.597656 180.636719 205.121094 C 170.617188 199.238281 157.503906 188.1875 149.964844 178.480469 C 149.035156 177.136719 149.859375 175.277344 151.410156 175.175781 Z M 332.890625 179.726563 C 331.238281 180.757813 329.6875 182.101563 328.347656 183.445313 C 322.871094 188.917969 320.496094 195.421875 320.085938 201.308594 C 319.980469 202.550781 318.84375 203.375 317.605469 203.167969 C 315.128906 202.652344 312.648438 202.34375 310.996094 202.238281 C 304.800781 201.722656 294.988281 200.585938 288.171875 200.691406 C 287.039063 200.691406 286.109375 199.761719 286.109375 198.625 C 286.109375 191.808594 285.074219 181.996094 284.558594 175.800781 C 284.351563 174.148438 284.144531 171.671875 283.628906 169.089844 C 283.421875 167.953125 284.25 166.816406 285.488281 166.714844 C 291.375 166.300781 297.882813 163.925781 303.355469 158.453125 C 304.695313 157.109375 305.9375 155.558594 306.96875 153.90625 C 307.484375 153.082031 308.519531 152.667969 309.34375 152.976563 C 315.128906 154.941406 321.324219 156.28125 328.140625 156.59375 C 329.171875 156.695313 330 157.523438 330.101563 158.554688 C 330.515625 165.472656 331.859375 171.671875 333.71875 177.351563 C 334.027344 178.28125 333.71875 179.210938 332.890625 179.726563 Z M 331.335938 308.363281 C 327.621094 310.015625 323.796875 312.289063 320.390625 315.695313 C 318.53125 317.554688 317.1875 319.519531 316.257813 320.964844 C 314.089844 324.269531 312.023438 329.226563 311.613281 335.214844 C 311.507813 336.765625 309.648438 337.589844 308.308594 336.660156 C 298.601563 329.121094 287.550781 316.007813 281.664063 305.988281 C 276.1875 296.796875 274.640625 290.085938 274.640625 286.265625 C 274.640625 282.855469 275.777344 279.65625 278.046875 277.28125 C 285.382813 269.945313 296.226563 272.734375 304.796875 276.558594 C 314.710938 280.894531 323.488281 288.121094 328.753906 297.726563 C 330.511719 300.929688 331.648438 303.71875 332.472656 305.886719 C 332.78125 306.917969 332.265625 307.953125 331.335938 308.363281 "/>
</g>
</svg>
