<?xml version="1.0" encoding="UTF-8"?>
<svg xmlns="http://www.w3.org/2000/svg" xmlns:xlink="http://www.w3.org/1999/xlink" width="243pt" height="664pt" viewBox="0 0 243 664" version="1.1">
<g id="surface1">
<path style=" stroke:none;fill-rule:nonzero;fill:rgb(0%,0%,0%);fill-opacity:1;" d="M 239.519531 367.25 C 232.1875 334.582031 233.882813 359.316406 233.839844 367.21875 C 233.796875 375.117188 222.925781 434.875 198.925781 430.875 C 157.867188 424.03125 141.957031 384.488281 136.285156 353.871094 C 132.953125 335.871094 130.523438 333.675781 130.523438 333.675781 L 110.1875 325.414063 L 129.425781 315.976563 C 129.425781 315.976563 131.515625 287.265625 137.507813 260.730469 C 145.519531 225.25 184.324219 220.605469 200.992188 239.273438 C 217.660156 257.941406 224.925781 265.796875 226.925781 279.132813 C 228.925781 292.464844 231.453125 287.203125 230.785156 273.203125 C 226.941406 192.472656 159.074219 64.09375 107.421875 9.191406 C 95.558594 -3.414063 95.457031 -0.230469 100.855469 8.582031 C 109.957031 23.445313 148.023438 129.144531 140.023438 176.480469 C 129.953125 236.058594 102.726563 229.976563 102.726563 229.976563 L 100.742188 283.046875 L 88.726563 232.875 C 88.726563 232.875 62.1875 234.75 52.539063 180.175781 C 45.664063 141.269531 57.660156 64.777344 63.257813 46.269531 C 66.753906 34.703125 66.898438 30.574219 58.398438 48.074219 C 36.640625 92.867188 -16.554688 214.453125 5.1875 299.75 C 11.6875 325.25 12.367188 321.949219 15.867188 296.449219 C 19.367188 270.949219 52.363281 270.636719 64.722656 276.710938 C 77.085938 282.785156 80.144531 320.363281 80.144531 320.363281 L 100.601563 326.875 L 80.425781 338.675781 C 80.425781 338.675781 91.960938 384.144531 76.960938 405.144531 C 49.425781 443.691406 18.390625 399.199219 19.1875 379.25 C 20.1875 354.25 16.1875 360.25 12.1875 374.25 C -3.828125 430.300781 -2.996094 566.167969 45.1875 636.25 C 56.1875 652.25 60.089844 654.761719 52.417969 632.570313 C 44.75 610.375 27.871094 504.308594 55.871094 468.308594 C 83.871094 432.308594 102.726563 436.574219 102.726563 436.574219 L 110.160156 388.648438 L 118.925781 434.773438 C 118.925781 434.773438 143.394531 431.21875 156.277344 448.347656 C 183.960938 485.164063 189.234375 565.664063 154.742188 639.566406 C 136.078125 679.566406 147.921875 662.753906 158.839844 641.921875 C 194.230469 574.414063 257.71875 448.316406 239.519531 367.25 Z M 212.792969 234.476563 C 212.246094 233.863281 211.714844 233.265625 211.148438 232.632813 L 209.941406 231.28125 C 198.773438 218.769531 180.292969 213.601563 162.867188 218.113281 C 158.011719 219.371094 153.480469 221.3125 149.355469 223.855469 C 148.976563 224.089844 143.28125 209.691406 143.378906 209.457031 C 146.296875 202.46875 148.691406 194.386719 150.570313 185.269531 C 158.460938 182.203125 183.152344 178.296875 193.996094 176.675781 C 202.238281 197.242188 208.570313 216.71875 212.792969 234.476563 Z M 152.359375 171.25 C 152.359375 169.773438 153.53125 168.578125 154.972656 168.578125 C 156.417969 168.578125 157.589844 169.773438 157.589844 171.25 C 157.589844 172.726563 156.417969 173.921875 154.972656 173.921875 C 153.53125 173.921875 152.359375 172.726563 152.359375 171.25 Z M 161.28125 170.101563 C 161.28125 168.628906 162.453125 167.429688 163.894531 167.429688 C 165.339844 167.429688 166.507813 168.628906 166.507813 170.101563 C 166.507813 171.578125 165.339844 172.777344 163.894531 172.777344 C 162.453125 172.777344 161.28125 171.578125 161.28125 170.101563 Z M 171.160156 168.0625 C 171.160156 166.648438 172.476563 165.5 174.09375 165.5 C 175.714844 165.5 177.027344 166.648438 177.027344 168.0625 C 177.027344 169.476563 175.714844 170.625 174.09375 170.625 C 172.476563 170.625 171.160156 169.476563 171.160156 168.0625 Z M 186.355469 166.792969 C 186.355469 168.257813 185.128906 169.445313 183.621094 169.445313 C 182.109375 169.445313 180.886719 168.257813 180.886719 166.792969 C 180.886719 165.328125 182.109375 164.140625 183.621094 164.140625 C 185.128906 164.140625 186.355469 165.328125 186.355469 166.792969 Z M 134.246094 63.242188 C 148.902344 85.152344 163.421875 110.453125 176.246094 136.769531 C 178.777344 141.964844 181.191406 147.113281 183.515625 152.21875 L 153.0625 159.894531 C 152.632813 131.5 143.855469 94.472656 134.246094 63.242188 Z M 39.585938 123.21875 C 38.363281 139.988281 38.019531 156.777344 39.28125 170.984375 C 34.957031 171.632813 28.464844 172.320313 24.105469 172.484375 C 28.597656 155.371094 33.96875 138.714844 39.585938 123.21875 Z M 21.277344 183.820313 C 26.972656 183.730469 35.925781 182.996094 40.78125 182.5625 C 41.972656 189.238281 43.457031 195.394531 45.222656 201.050781 C 36.535156 204.75 24.332031 204.753906 16.996094 204.316406 C 18.238281 197.46875 19.675781 190.621094 21.277344 183.820313 Z M 67.90625 238.796875 C 64.359375 244.273438 62.164063 256.683594 63.460938 261.945313 C 63.691406 262.871094 63.152344 263.390625 62.683594 263.265625 C 51.253906 260.238281 35.675781 260.5625 23.253906 267.171875 C 19.289063 269.277344 15.863281 271.945313 13.027344 275.070313 C 11.191406 257.355469 12.007813 238.484375 14.601563 219.394531 C 23.660156 221.335938 43.300781 215.570313 49.9375 213.476563 C 54.398438 223.226563 59.988281 230.878906 66.695313 236.3125 C 67.027344 236.585938 67.359375 236.84375 67.691406 237.097656 C 68.085938 237.402344 68.351563 238.101563 67.90625 238.796875 Z M 25.257813 544.492188 C 23.320313 538.398438 18.964844 508.566406 18.296875 472.902344 C 18.253906 470.421875 18.222656 468.023438 18.207031 465.6875 L 39.03125 471.410156 C 30.585938 490.730469 26.964844 535.875 27.011719 542.230469 C 27.0625 549.25 27.195313 550.582031 25.257813 544.492188 Z M 44.78125 462.222656 L 18.21875 456.269531 C 18.257813 452.328125 18.332031 448.652344 18.433594 445.242188 L 52.148438 452.5625 C 50.253906 454.9375 47.804688 458.113281 44.78125 462.222656 Z M 18.898438 433.996094 C 19.519531 422.421875 20.324219 416.074219 20.324219 416.074219 C 20.324219 416.074219 29.621094 424.925781 37.640625 428.945313 C 45.664063 432.96875 54.523438 431.875 54.523438 431.875 L 56.40625 442.273438 Z M 192.425781 546.773438 C 185.425781 561.273438 187.421875 558.25 188.457031 546.253906 C 189.175781 537.917969 191.976563 502.707031 188.183594 478.609375 L 211.753906 490.738281 C 207.003906 509.585938 200.660156 529.714844 192.425781 546.773438 Z M 214.160156 480.734375 L 185.226563 466.269531 C 183.578125 461.6875 181.421875 458.234375 178.621094 456.5 C 177.757813 455.964844 177.214844 454.753906 176.886719 453.164063 L 217.671875 464.25 C 216.648438 469.449219 215.480469 474.988281 214.160156 480.734375 Z M 219.773438 452.976563 L 176.769531 442.597656 C 177.214844 437.679688 178.023438 433.375 178.023438 433.375 C 178.023438 433.375 183.933594 438.101563 195.8125 440.054688 C 212.1875 442.75 223.726563 426.875 223.726563 426.875 C 223.726563 426.875 222.53125 437.359375 219.773438 452.976563 "/>
</g>
</svg>
