<?xml version="1.0" encoding="UTF-8"?>
<svg xmlns="http://www.w3.org/2000/svg" xmlns:xlink="http://www.w3.org/1999/xlink" width="465pt" height="583pt" viewBox="0 0 465 583" version="1.1">
<g id="surface1">
<path style=" stroke:none;fill-rule:nonzero;fill:rgb(0%,0%,0%);fill-opacity:1;" d="M 451.15625 358.21875 C 457.632813 351.457031 463.644531 343.832031 463.917969 333.71875 C 464.09375 327.253906 458.441406 317.355469 454.191406 312.171875 C 463.222656 301.398438 470.492188 270.875 453.65625 264.003906 C 463.15625 255.253906 465.3125 236.570313 453.289063 226.152344 C 461.695313 219.074219 467.382813 203.546875 461.574219 192.078125 C 457.265625 183.570313 444.410156 174.371094 428.308594 177.722656 C 421.898438 179.058594 416.113281 182.144531 411.175781 185.484375 C 403.171875 179.949219 385.328125 167.742188 370.40625 186.054688 C 361.9375 177.339844 356.070313 172.019531 343.628906 177.644531 C 337.078125 180.605469 328.519531 186.460938 319.621094 195.152344 C 317.988281 193.734375 316.757813 192.535156 314.558594 190.820313 C 319.484375 185 327.371094 178.253906 331.367188 171.261719 C 337.730469 160.136719 330.613281 150.671875 324.058594 141.234375 C 335.5 126.933594 335.296875 109.894531 322.058594 98.320313 C 326.871094 92.886719 332.058594 88.019531 334.355469 80.71875 C 338.15625 69.820313 331.390625 61.652344 325.40625 54.386719 C 332.023438 43.660156 334.222656 33.46875 330.03125 20.363281 C 321.90625 -5.054688 303.152344 -3.679688 284.65625 11.21875 C 283.347656 8.957031 252.269531 -7.363281 237.941406 10.152344 L 234.65625 6.519531 C 225.703125 -2.257813 205.296875 6.1875 198.65625 14.820313 C 192.765625 -3.078125 166.140625 1.738281 159.066406 5.527344 C 136.585938 17.550781 136.40625 43.480469 151.855469 55.519531 L 147.457031 60.519531 C 142.15625 67.96875 141.347656 70.277344 141.042969 73.878906 C 140.324219 82.332031 145.921875 90.75 151.058594 96.21875 C 144.058594 100.164063 138.511719 109.285156 138.890625 117.050781 C 139.347656 126.421875 144.234375 133.589844 149.65625 140.820313 C 144.328125 146.277344 136.253906 153.179688 139.722656 164.882813 C 143.40625 177.300781 151.46875 186.402344 158.65625 191.921875 C 157.757813 192.621094 157.238281 193.753906 156.15625 194.820313 C 150.558594 191.71875 139.347656 183.546875 138.972656 183.210938 C 130.917969 176.011719 110.578125 178.445313 103.089844 188.554688 C 103.089844 188.554688 95.355469 175.820313 88.457031 174.621094 C 77.054688 174.71875 68.054688 181.621094 59.257813 187.621094 C 50.546875 175.214844 28.386719 171.253906 13.351563 186.28125 C -1.347656 200.980469 -0.0976563 222.34375 16.855469 230.820313 C 12.507813 236.148438 6.472656 243.332031 6.582031 249.800781 C 6.753906 259.78125 12.273438 264.386719 16.074219 270.058594 C 17.113281 271.605469 17.640625 273.089844 15.757813 274.019531 C 10.070313 276.113281 6.453125 280.511719 3.902344 285.777344 C -0.605469 295.089844 1.441406 309.175781 12.855469 315.019531 C 7.761719 318.777344 0.394531 334.796875 4.027344 342.433594 C 6.296875 347.207031 10.753906 351.292969 13.957031 354.621094 C -4.109375 362.921875 -1.179688 384.746094 7.148438 396.511719 C 19.285156 413.652344 39.609375 417.019531 55.355469 399.621094 C 64.453125 411.332031 89.894531 411.996094 98.554688 397.820313 C 105.078125 410.867188 116.53125 414.070313 129.5625 407.183594 C 137.21875 403.140625 143.960938 395.953125 150.355469 390.320313 L 155.523438 396.054688 C 145.882813 405.597656 133.546875 414.355469 135.828125 426.613281 C 136.9375 432.589844 141.382813 437.371094 145.65625 441.421875 L 145.105469 441.652344 C 132.039063 447.183594 126.480469 465.160156 136.230469 480.921875 C 138.445313 484.496094 141.4375 487.523438 145.355469 488.917969 L 139.707031 495.820313 C 126.644531 511.007813 134.144531 522.871094 143.855469 526.417969 L 143.15625 527.121094 C 126.199219 541.996094 126.628906 556.835938 137.457031 569.375 C 151.625 585.78125 175.164063 584.425781 185.488281 570.070313 C 206.046875 586.070313 219.195313 585.070313 229.355469 572.871094 L 233.855469 575.71875 C 247.058594 582.519531 264.757813 579.121094 276.058594 570.320313 C 284.449219 579.457031 301.128906 586.0625 312.898438 578.84375 C 326.757813 570.339844 335.203125 545.863281 320.371094 528.351563 C 331.347656 513.457031 329.453125 505.738281 315.589844 486.570313 C 329.335938 473.324219 335.003906 461.386719 320.257813 442.121094 C 327.53125 433.914063 329.164063 429.175781 329.800781 422.144531 C 330.777344 411.34375 321.40625 404.085938 315.367188 396.121094 C 311.707031 391.296875 312.503906 390.832031 316.664063 395.257813 C 334.511719 414.238281 350.113281 415.300781 363.15625 400.019531 C 380.285156 415.507813 397.359375 411.105469 409.789063 399.371094 C 416.230469 408.476563 433.171875 415.078125 449.640625 403.074219 C 470.621094 387.785156 466.539063 367.230469 451.15625 358.21875 Z M 461.058594 340.21875 C 453.257813 358.019531 436.15625 369.320313 423.257813 382.71875 C 421.355469 380.820313 419.855469 374.46875 419.308594 370.335938 C 424.433594 366.28125 439.5625 350.804688 442.402344 347.410156 C 446.894531 342.042969 450.328125 334.996094 444.636719 327.542969 C 442.6875 324.992188 439.070313 322.863281 438.65625 319.835938 C 446.5625 318.480469 449.738281 315.304688 452.90625 313.921875 C 459.289063 319.78125 463.753906 333.222656 461.058594 340.21875 Z M 441.589844 368.351563 C 449.03125 372.816406 448.726563 385.917969 439.640625 390.011719 C 434.5625 392.300781 429.683594 392.941406 424.355469 385.21875 C 424.65625 383.320313 441.589844 368.351563 441.589844 368.351563 Z M 406.355469 355.71875 C 396.058594 350.421875 383.355469 353.320313 372.855469 356.121094 C 371.238281 355.84375 370.070313 354.882813 369.023438 353.730469 C 367.421875 351.96875 346.40625 332.660156 339.226563 325.441406 C 341.898438 322.867188 348.882813 317.363281 349.847656 316.5 C 352.054688 319.554688 372.320313 339.878906 378.785156 345.976563 C 384.347656 351.222656 392.039063 351.179688 398.042969 347.394531 C 407.304688 341.554688 405.496094 330.40625 398.757813 323.019531 C 400.941406 320.304688 404.40625 317.101563 406.65625 314.320313 C 413.15625 317.71875 415.355469 324.519531 417.855469 330.519531 C 415.632813 334.730469 418.585938 339.070313 417.683594 343.230469 C 416.859375 347.039063 411.238281 351.84375 406.355469 355.71875 Z M 410.757813 357.269531 C 409.988281 358.21875 408.957031 357.421875 408.457031 356.820313 L 409.558594 356.121094 Z M 285.757813 419.820313 C 286.855469 410.71875 281.058594 401.421875 281.058594 401.421875 C 285.15625 398.71875 301.257813 379.820313 301.257813 379.820313 C 304.15625 382.21875 307.207031 387.085938 308.707031 390.6875 C 308.707031 390.6875 290.621094 408.984375 285.757813 419.820313 Z M 302.257813 402.921875 C 307.597656 408.785156 316.308594 417.230469 311.941406 424.59375 C 309.894531 428.042969 307.121094 431.445313 303.757813 434.21875 C 299.15625 433.121094 294.355469 435.320313 290.457031 431.019531 C 288.65625 428.519531 287.558594 425.320313 287.15625 422.71875 C 289.355469 414.621094 296.558594 408.921875 302.257813 402.921875 Z M 287.390625 475.3125 C 286.488281 476.304688 287.289063 479.21875 287.289063 479.21875 C 287.289063 479.21875 275.089844 485.503906 272.589844 486.503906 C 271.191406 483.402344 264.855469 477.421875 264.855469 477.421875 C 272.257813 470.320313 289.589844 454.335938 291.089844 451.1875 C 297.191406 452.484375 302.15625 452.71875 307.355469 456.519531 C 301.765625 463.226563 290.972656 471.363281 287.390625 475.3125 Z M 308.757813 458.320313 C 312.058594 462.519531 308.855469 467.421875 307.355469 471.320313 C 306.855469 472.71875 305.121094 473.121094 304.421875 472.421875 C 302.621094 470.921875 301.058594 469.171875 299.621094 467.71875 Z M 264.457031 536.820313 C 269.5 535.609375 274.636719 528.253906 277.996094 530.578125 C 281.003906 532.65625 281.964844 537.589844 281.867188 541.800781 C 281.839844 543.023438 281.574219 544.148438 280.839844 545.089844 C 280.269531 545.828125 271.15625 554.320313 266.65625 556.621094 C 269.15625 552.320313 268.457031 542.019531 264.457031 536.820313 Z M 264.457031 556.621094 C 262.367188 560.960938 257.820313 561.894531 253.3125 562.757813 C 246.984375 563.96875 239.476563 563.371094 237.851563 554.304688 C 237.257813 550.976563 245.539063 538.46875 245.539063 538.46875 C 250.941406 539.570313 257.507813 539.800781 262.605469 537.800781 C 266.007813 543.203125 266.457031 550.320313 264.457031 556.621094 Z M 252.203125 537.363281 C 243.90625 537.023438 236.132813 532.082031 229.558594 527.820313 L 240.757813 519.21875 C 245.058594 523.71875 250.855469 525.519531 256.957031 524.621094 C 260.65625 523.917969 264.789063 521.734375 267.488281 519.4375 C 269.753906 522.832031 272.148438 525.230469 274.507813 528.667969 C 269.085938 531.378906 262.164063 537.773438 252.203125 537.363281 Z M 211.589844 538.304688 C 197.808594 532.757813 195.699219 545.984375 189.957031 554.820313 C 188.722656 554.203125 183.523438 549.21875 183.523438 549.21875 C 184.472656 545.285156 185.457031 541.519531 187.058594 538.21875 C 190.3125 532.503906 194.734375 527.34375 200.878906 524.566406 C 206.578125 521.988281 215.222656 519.164063 221.238281 523.300781 C 222.539063 524.703125 229.640625 529.351563 231.371094 532.101563 L 222.058594 546.519531 C 219.488281 543.21875 215.6875 539.953125 211.589844 538.304688 Z M 219.15625 551.621094 C 217.144531 555.535156 214.558594 559.886719 211.632813 563.707031 C 206.613281 570.253906 195.507813 562.691406 193.558594 557.019531 C 193.058594 555.917969 195.699219 547.8125 197.3125 545.066406 C 203.335938 534.832031 212.867188 539.222656 217.921875 545.34375 C 219.472656 547.222656 220.765625 549.171875 219.15625 551.621094 Z M 191.457031 447.921875 L 201.15625 455.820313 C 192.457031 462.921875 175.15625 481.519531 174.15625 483.21875 C 169.757813 482.421875 164.15625 479.320313 160.855469 477.421875 C 160.855469 477.421875 181.15625 456.320313 191.457031 447.921875 Z M 158.890625 476.71875 C 154.699219 474.496094 151.390625 470.519531 150.265625 466.039063 C 149.605469 463.394531 148.128906 455.535156 157.789063 453.121094 C 157.789063 453.121094 167.085938 462.144531 170.585938 465.730469 C 166.820313 469.472656 162.984375 473.175781 158.890625 476.71875 Z M 176.953125 423.550781 C 177.523438 416.777344 167.257813 405.019531 167.257813 405.019531 L 174.855469 397.820313 C 181.957031 408.621094 196.757813 418.320313 191.457031 433.121094 C 188.757813 441.019531 180.355469 443.519531 174.15625 446.421875 C 172.757813 445.421875 162.65625 436.71875 162.65625 436.71875 C 171.589844 436.210938 176.570313 428.054688 176.953125 423.550781 Z M 160.886719 434.359375 C 157.144531 433.1875 151.246094 425.691406 153.257813 418.71875 C 155.457031 413.621094 161.371094 410.136719 165.574219 406.4375 C 169.40625 409.96875 174.699219 420.253906 174.902344 422.527344 C 175.398438 427.96875 167.324219 436.378906 160.886719 434.359375 Z M 104.457031 356.8125 C 102.132813 355.277344 100.707031 352.671875 98.15625 351.019531 C 100.257813 347.320313 104.558594 344.921875 107.15625 341.71875 C 111.15625 346.121094 115.257813 350.621094 121.257813 351.820313 C 127.457031 352.421875 132.457031 348.519531 135.957031 344.21875 C 137.457031 344.621094 140.722656 350.1875 143.121094 352.6875 C 131.933594 364.300781 117.34375 365.335938 104.457031 356.8125 Z M 122.257813 366.921875 C 130.058594 368.21875 134.339844 375.503906 139.722656 380.671875 C 135.910156 385.027344 130.925781 389.363281 125.597656 391.605469 C 114.144531 396.421875 108.914063 393.390625 106.433594 384.203125 C 104.65625 377.613281 110.011719 368.667969 122.257813 366.921875 Z M 56.234375 324.003906 C 58.242188 321.675781 60.449219 319.507813 62.15625 317.21875 C 64.554688 319.621094 67.65625 321.9375 69.355469 324.253906 C 60.027344 329.707031 58.902344 341.859375 65.457031 350.320313 C 63.757813 351.019531 58.890625 353.121094 56.691406 353.921875 C 47.699219 344.390625 48.203125 333.316406 56.234375 324.003906 Z M 53.449219 356.4375 C 52.75 357.488281 48.839844 363.769531 47.738281 366.171875 C 46.140625 365.019531 44.855469 364.21875 43.457031 363.320313 C 46.554688 360.421875 50.757813 358.554688 53.054688 354.253906 C 53.757813 355.128906 53.996094 355.617188 53.449219 356.4375 Z M 59.65625 273.320313 C 62.957031 274.21875 70.457031 279.019531 70.457031 279.019531 C 63.054688 286.519531 44.355469 306.921875 42.054688 308.921875 C 37.855469 308.320313 25.457031 306.820313 25.457031 306.820313 C 37.054688 297.019531 47.957031 283.71875 59.65625 273.320313 Z M 23.65625 305.71875 C 18.417969 307.027344 17.183594 299.703125 17.28125 296.550781 C 17.335938 294.667969 17.800781 292.859375 18.65625 290.921875 C 20.457031 287.921875 22.257813 283.519531 26.15625 282.621094 C 29.738281 285.152344 33.324219 288.371094 36.957031 291.621094 C 33.65625 295.71875 27.554688 301.121094 23.65625 305.71875 Z M 49.46875 243.300781 C 48.316406 236.648438 39.582031 233.738281 34.824219 233.636719 C 37.023438 229.335938 41.441406 225.46875 44.554688 222.921875 C 53.921875 221.800781 64.917969 237.878906 65.535156 244.21875 C 66.15625 250.632813 65.132813 261.015625 59.773438 265.953125 C 58.359375 267.253906 44.738281 274.621094 42.539063 274.320313 L 33.855469 266.035156 C 45.476563 262.160156 50.734375 250.566406 49.46875 243.300781 Z M 31.957031 263.621094 C 29.839844 260.382813 21.117188 252.34375 24.726563 245.230469 C 26.417969 241.894531 30.097656 237.453125 33.871094 235.878906 C 35.628906 235.144531 37.820313 234.714844 40.257813 236.21875 C 48 240.984375 48.78125 242.777344 45.851563 250.796875 C 41.890625 261.644531 31.957031 263.621094 31.957031 263.621094 Z M 46.355469 221.421875 L 52.839844 216.734375 L 54.957031 225.019531 C 52.355469 223.320313 49.554688 221.820313 46.355469 221.421875 Z M 84.140625 218.96875 C 81.175781 218.835938 77.734375 219.117188 74.691406 219.121094 C 72.902344 218.734375 71.378906 217.671875 70.457031 215.320313 C 69.054688 211.421875 66.738281 207.203125 67.121094 202.136719 C 70.59375 201.195313 73.476563 198.589844 75.859375 196.203125 C 81.382813 190.671875 88.941406 191.300781 92.136719 200.214844 C 94.492188 206.785156 92.519531 216.765625 84.140625 218.96875 Z M 93.457031 214.21875 C 94.257813 218.121094 95.457031 221.820313 97.054688 225.421875 C 94.355469 224.71875 90.65625 221.320313 87.054688 220.019531 C 88.554688 219.21875 92.757813 217.421875 93.457031 214.21875 Z M 84.035156 221.980469 C 89.339844 223.460938 100.28125 230.71875 100.832031 231.132813 C 101.382813 231.546875 101.707031 231.96875 101.058594 232.621094 C 98.054688 235.121094 94.855469 238.21875 92.457031 240.519531 C 83.613281 233.050781 74.121094 232.929688 66.855469 239.121094 C 65.054688 235.621094 62.554688 232.320313 60.355469 229.019531 C 67.511719 223.488281 76.835938 219.96875 84.035156 221.980469 Z M 175.808594 120.503906 C 179.40625 123.902344 182.457031 127.421875 186.355469 130.019531 C 184.308594 131.46875 183.007813 133.054688 181.105469 134.554688 C 175.605469 132.453125 170.007813 134.035156 164.308594 132.335938 C 164.308594 132.335938 173.90625 123.101563 175.808594 120.503906 Z M 160.855469 130.71875 C 152.675781 126.804688 152.90625 116.144531 161.558594 111.320313 C 163.457031 110.070313 164.855469 110.394531 166.15625 111.230469 C 167.457031 112.070313 174.457031 118.519531 174.457031 118.519531 C 170.058594 122.671875 166.558594 129.21875 160.855469 130.71875 Z M 187.457031 131.421875 C 191.289063 134.453125 194.839844 138.804688 198.757813 142.671875 C 197.871094 143.636719 196.457031 144.921875 195.058594 146.21875 C 193.15625 141.019531 188.257813 137.320313 183.621094 135.386719 Z M 227.757813 121.421875 L 235.65625 128.21875 C 228.191406 134.761719 218.730469 139.960938 210.558594 145.960938 C 201.050781 152.941406 194.089844 160.863281 202.109375 170.5625 C 207.4375 177.003906 215.066406 175.9375 223.457031 171.421875 L 231.058594 179.71875 C 225.1875 186.085938 218.4375 188.738281 210.285156 188.335938 C 196.046875 187.632813 180.554688 170.089844 191.398438 154.628906 C 199.453125 143.136719 214.921875 131.863281 227.757813 121.421875 Z M 183.683594 84.199219 C 187.652344 79.53125 187.507813 71.230469 181.582031 66.605469 C 177.882813 63.714844 173.617188 60.972656 169.539063 59.300781 C 173.652344 54.949219 178.273438 50.734375 182.058594 49.019531 C 186.472656 50.046875 194.203125 54.894531 198.246094 60.75 C 204.003906 69.085938 199.632813 65.703125 200.484375 75.542969 C 201.359375 85.664063 183.964844 101.71875 178.941406 102.835938 C 176.441406 100.101563 171.65625 95.71875 169.457031 92.621094 C 174.621094 91.757813 179.972656 88.566406 183.683594 84.199219 Z M 168.355469 91.121094 C 163.738281 85.785156 154.957031 79.71875 159.058594 71.71875 C 159.59375 70.984375 163.035156 66.46875 167.429688 61.589844 C 170.710938 62.515625 174.757813 64.414063 178.238281 66.957031 C 185.554688 72.296875 186.914063 80.03125 179.539063 85.253906 C 176.011719 87.753906 171.71875 89.214844 168.355469 91.121094 Z M 183.15625 47.921875 L 186.058594 44.320313 C 186.535156 46.03125 187.4375 47.695313 188.597656 49.085938 C 189.132813 49.730469 189.167969 50.074219 188.1875 49.59375 C 186.703125 48.863281 184.785156 48.101563 183.15625 47.921875 Z M 220.957031 49.421875 C 229.285156 53.738281 255.601563 74.15625 263.707031 86.921875 C 262.90625 89.316406 259.648438 92.484375 255.855469 95.421875 C 248.855469 87.621094 230.351563 68.636719 229.429688 67.898438 C 220.328125 60.585938 210.449219 60.65625 202.558594 65.921875 C 201.855469 59.320313 196.058594 55.71875 191.457031 51.519531 C 193.757813 52.320313 195.421875 53.769531 197.824219 53.585938 C 201.789063 51.203125 204.621094 50.085938 208.921875 48.484375 C 212.421875 49.386719 217.257813 47.921875 220.957031 49.421875 Z M 203.527344 28.753906 C 207.054688 21.359375 218.589844 19.253906 224.082031 25.25 C 225.914063 27.25 226.90625 29.316406 227.539063 32.136719 C 227.507813 36.121094 224.332031 45.203125 218.453125 46.289063 C 215.769531 46.785156 212.875 46.164063 209.457031 46.519531 C 201.898438 45.648438 201.480469 33.046875 203.527344 28.753906 Z M 275.257813 29.921875 L 285.355469 37.820313 C 283.746094 49.691406 280.949219 55.273438 274.671875 55.570313 C 268.320313 51.597656 260.824219 49.234375 253.539063 49.777344 C 245.894531 50.351563 241.632813 53.414063 237.238281 57.320313 L 235.488281 55.902344 C 239.890625 50.601563 243.15625 44.019531 244.65625 37.121094 C 249.707031 51.992188 273.539063 51.101563 275.257813 29.921875 Z M 246.113281 34.136719 C 245.90625 20.222656 267.261719 16.867188 272.125 29.152344 C 274.6875 35.625 268.492188 44.046875 261.296875 45.171875 C 254.242188 46.277344 246.207031 40.214844 246.113281 34.136719 Z M 310.957031 128.921875 C 307.808594 132.984375 302.539063 133.4375 298.488281 135.152344 C 295.390625 132.753906 275.15625 113.019531 267.355469 105.921875 L 276.058594 97.621094 C 286.542969 107.46875 297.496094 117.953125 310.957031 128.921875 Z M 302.671875 119.054688 C 306.589844 115.851563 309.371094 112.21875 312.355469 109.519531 L 314.105469 112.503906 C 316.175781 116.804688 316.644531 126.269531 312.195313 126.363281 C 310.546875 126.398438 302.671875 119.054688 302.671875 119.054688 Z M 292.558594 194.121094 L 301.957031 201.320313 C 290.917969 212.777344 270.652344 236.136719 257.617188 235.34375 C 251.796875 234.988281 241.613281 231.359375 237.15625 225.421875 C 239.855469 222.519531 242.289063 215.21875 242.855469 211.421875 C 247.953125 220.703125 259.414063 220.628906 265.191406 217.378906 C 272.644531 213.191406 280.042969 207.875 286.257813 201.519531 C 287.578125 200.167969 291.191406 196.152344 292.558594 194.121094 Z M 288.371094 190.96875 C 289.074219 191.070313 290.457031 192.421875 290.757813 192.621094 L 290.058594 193.421875 C 289.257813 192.871094 288.488281 191.652344 288.371094 190.96875 Z M 321.757813 230.820313 C 317.757813 233.121094 316.15625 237.621094 314.855469 241.621094 C 310.945313 237.921875 307.539063 233.355469 303.878906 229.105469 C 300.617188 225.3125 290.890625 216.101563 289.691406 215.804688 L 300.457031 205.621094 C 308.589844 210.019531 321.757813 230.820313 321.757813 230.820313 Z M 302.65625 203.421875 C 303.757813 202.621094 305.773438 204.136719 307.324219 205.703125 L 306.257813 207.019531 Z M 392.296875 223.269531 C 400.257813 222.386719 406.859375 207.628906 405.523438 200.953125 C 408.355469 203.585938 415.761719 207.878906 417.398438 212.933594 C 418.609375 216.671875 411.457031 228.480469 399.097656 232.726563 C 384.382813 237.785156 372.882813 230.242188 369.957031 224.019531 C 371.257813 218.820313 373.058594 213.921875 375.355469 209.21875 C 375.667969 214.523438 384.371094 224.152344 392.296875 223.269531 Z M 376.441406 207.140625 C 382.722656 191.976563 391.664063 191.25 403.058594 199.121094 C 405.492188 206.777344 399.90625 217.433594 393.605469 220.429688 C 387.214844 223.46875 379.191406 215.074219 376.441406 207.140625 Z M 419.257813 213.519531 C 422.457031 215.820313 425.058594 219.519531 427.257813 221.820313 C 422.558594 223.519531 418.558594 226.921875 413.855469 228.621094 L 411.757813 227.621094 C 414.957031 223.21875 419.65625 219.71875 419.257813 213.519531 Z M 377.558594 342.421875 C 375.058594 340.421875 372.558594 338.019531 370.355469 335.21875 C 384.15625 323.019531 408.355469 293.320313 409.257813 292.71875 L 415.65625 299.621094 C 410.222656 305.585938 386.058594 335.921875 377.558594 342.421875 Z M 397.355469 324.421875 C 402.464844 330.644531 404.988281 339.765625 397.195313 345.121094 C 391.695313 348.902344 386.097656 348.085938 379.355469 343.519531 C 386.105469 338.171875 390.972656 331.085938 397.355469 324.421875 Z M 301.957031 290.21875 L 309.058594 282.6875 C 315.355469 285.984375 330.390625 306.003906 336.089844 308.503906 C 332.914063 311.0625 330.847656 313.363281 328.039063 315.921875 C 321.238281 309.21875 304.058594 293.820313 301.957031 290.21875 Z M 326.457031 317.21875 L 324.257813 319.421875 L 312.757813 307.519531 L 314.15625 305.71875 C 318.757813 308.421875 322.855469 313.421875 326.457031 317.21875 Z M 285.058594 332.320313 C 283.058594 335.019531 282.257813 337.71875 283.558594 341.019531 C 285.089844 345.253906 295.058594 355.71875 295.058594 355.71875 C 291.65625 357.71875 289.558594 361.121094 286.457031 363.320313 C 282.421875 358.21875 272.757813 348.519531 272.757813 348.519531 C 270.757813 345.320313 266.558594 342.519531 267.757813 338.421875 C 268.15625 328.621094 276.921875 320.320313 283.257813 313.621094 C 290.382813 307.0625 300.84375 298.097656 305.558594 297.820313 C 307.855469 298.71875 309.65625 301.71875 312.355469 303.519531 C 308.222656 307.121094 290.457031 327.019531 285.058594 332.320313 Z M 301.921875 317.121094 C 316.125 328.277344 316.820313 337.9375 297.257813 354.621094 C 292.855469 349.519531 284.058594 343.921875 285.355469 335.921875 C 290.757813 329.519531 296.222656 323.320313 301.921875 317.121094 Z M 266.871094 517.371094 C 260.171875 522.667969 251.257813 523.417969 243.957031 519.519531 L 242.15625 517.417969 C 249.058594 511.820313 255.058594 506.519531 261.65625 500.121094 C 265.472656 501.390625 266.113281 504.09375 265.972656 507.222656 C 265.808594 510.792969 265.539063 514.171875 266.871094 517.371094 Z M 230.257813 525.621094 C 225.65625 527.019531 224.558594 520.320313 219.855469 519.917969 C 225.65625 517.019531 244.65625 496.519531 250.457031 490.417969 C 253.957031 492.519531 257.15625 495.417969 260.558594 497.917969 C 252.15625 508.320313 240.058594 516.417969 230.257813 525.621094 Z M 183.15625 477.820313 L 191.757813 469.121094 C 196.355469 472.519531 228.257813 504.019531 231.757813 506.621094 C 229.058594 510.019531 225.355469 513.320313 221.257813 515.917969 C 205.789063 504.621094 183.15625 477.820313 183.15625 477.820313 Z M 219.457031 517.019531 C 218.765625 518.265625 217.398438 519.082031 215.964844 519.03125 C 215.324219 519.011719 203.824219 520.621094 203.824219 520.621094 C 201.023438 518.785156 199.355469 517.195313 198.558594 515.832031 C 195.074219 509.902344 200.058594 499.71875 200.058594 499.71875 C 203.421875 504.050781 214.789063 514.351563 219.457031 517.019531 Z M 120.289063 315.554688 C 117.289063 312.21875 103.957031 301.886719 103.957031 301.886719 L 113.957031 293.21875 L 141.621094 318.21875 C 141.621094 318.21875 139.957031 320.886719 138.289063 324.21875 C 136.621094 327.554688 135.289063 331.554688 135.289063 331.554688 C 135.289063 331.554688 123.289063 318.886719 120.289063 315.554688 Z M 126.007813 348.699219 C 118.257813 351.492188 112.804688 343.652344 108.957031 339.921875 C 113.957031 334.019531 120.058594 328.71875 125.558594 324.019531 C 126.855469 326.144531 129.117188 328.230469 131.054688 330.425781 C 137.734375 337.992188 132.894531 346.222656 126.007813 348.699219 Z M 67.257813 256.71875 C 68.582031 256.71875 69.707031 257.195313 70.730469 257.910156 C 73.800781 260.0625 94.257813 276.320313 102.15625 281.921875 L 92.054688 290.21875 C 82.054688 282.621094 71.757813 275.519531 60.757813 269.019531 C 63.289063 266.351563 67.855469 259.21875 67.257813 256.71875 Z M 67.257813 241.621094 C 77.824219 233.304688 87.054688 238.320313 90.957031 242.019531 C 84.65625 246.921875 80.523438 253.203125 74.921875 258.503906 C 72.824219 256.304688 70.554688 254.953125 67.957031 253.519531 C 67.65625 249.519531 67.871094 246.054688 67.257813 241.621094 Z M 209.058594 150.519531 L 218.058594 143.320313 C 225.15625 154.320313 245.757813 177.320313 246.457031 177.519531 L 238.257813 182.21875 C 237.957031 181.21875 209.65625 151.320313 209.058594 150.519531 Z M 222.355469 169.21875 C 213.890625 173.875 208.773438 175.617188 202.855469 167.964844 C 197.597656 161.171875 203.1875 155.488281 207.257813 152.019531 C 212.65625 157.519531 217.65625 163.320313 222.355469 169.21875 Z M 260.988281 133.019531 C 258.089844 134.621094 256.257813 137.6875 253.355469 140.121094 L 212.207031 105.304688 C 214.046875 103.613281 216.980469 100.347656 219.257813 98.75 C 220.40625 98.480469 260.191406 130.820313 260.988281 133.019531 Z M 220.558594 97.21875 L 238.558594 81.019531 C 243.855469 86.421875 250.15625 90.820313 254.457031 97.21875 C 249.257813 101.820313 244.257813 107.421875 237.855469 110.621094 C 232.855469 106.019531 226.058594 102.320313 220.558594 97.21875 Z M 243.257813 169.21875 C 243.257813 169.21875 238.046875 163.066406 235.613281 159.5625 C 238.753906 156.472656 276.558594 122.21875 278.558594 118.820313 C 282.355469 122.121094 285.457031 125.621094 288.957031 128.921875 L 288.65625 129.621094 C 283.855469 133.519531 243.257813 169.21875 243.257813 169.21875 Z M 265.289063 152.820313 C 273.183594 159.675781 274.332031 171.507813 267.21875 173.730469 C 261.308594 175.578125 254.695313 172.792969 249.058594 176.820313 C 247.558594 174.753906 246.257813 173.019531 244.65625 171.019531 Z M 263.589844 130.953125 C 260.191406 126.351563 254.757813 124.21875 250.457031 120.320313 C 255.757813 116.320313 261.65625 112.421875 265.957031 107.320313 C 270.273438 111.203125 273.558594 113.71875 277.058594 117.820313 C 272.457031 122.421875 268.289063 126.253906 263.589844 130.953125 Z M 252.257813 141.921875 L 233.855469 158.421875 C 231.824219 155.71875 219.65625 143.121094 219.855469 142.21875 C 225.855469 138.019531 231.855469 133.921875 237.855469 129.621094 C 243.15625 133.21875 247.257813 138.21875 252.257813 141.921875 Z M 324.257813 293.820313 L 317.457031 287.019531 C 320.757813 282.71875 352.855469 257.71875 359.558594 244.519531 L 369.257813 253.519531 C 357.457031 267.71875 324.257813 293.820313 324.257813 293.820313 Z M 370.355469 254.921875 L 383.65625 267.21875 L 368.558594 281.21875 C 363.855469 278.121094 358.757813 274.121094 354.855469 270.820313 C 359.855469 265.121094 365.457031 260.554688 370.355469 254.921875 Z M 315.523438 284.285156 L 310.558594 280.121094 C 314.457031 276.421875 317.15625 271.71875 321.257813 268.421875 C 323.15625 270.421875 325.222656 271.753906 327.558594 273.820313 C 323.558594 277.921875 320.757813 280.21875 315.523438 284.285156 Z M 295.855469 292.453125 C 293.980469 291.488281 290.285156 286.417969 288.921875 284.554688 C 296.523438 275.554688 310.921875 261.21875 314.558594 252.820313 C 315.15625 258.621094 316.457031 262.921875 320.257813 266.820313 C 315.65625 270.921875 299.957031 288.253906 295.855469 292.453125 Z M 213.355469 443.621094 C 210.757813 442.71875 205.757813 438.71875 203.257813 435.320313 C 215.355469 425.621094 224.757813 413.71875 236.757813 404.019531 C 239.457031 406.71875 242.457031 408.621094 245.757813 409.71875 C 234.855469 420.019531 224.855469 433.21875 213.355469 443.621094 Z M 233.15625 425.921875 C 239.15625 431.121094 243.257813 436.421875 249.355469 441.019531 C 244.003906 446.257813 238.871094 451.058594 233.480469 455.910156 C 227.476563 452.308594 221.15625 449.546875 215.558594 445.421875 C 216.757813 443.320313 233.15625 425.921875 233.15625 425.921875 Z M 202.257813 433.820313 C 194.660156 429.40625 197.394531 419.652344 201.394531 415.65625 C 207.121094 409.933594 218.417969 409.675781 222.058594 414.820313 C 222.058594 414.820313 203.65625 432.820313 202.257813 433.820313 Z M 232.273438 404.9375 C 230.957031 404.085938 230.574219 403.601563 229.421875 402.753906 C 230.714844 401.289063 231.023438 400.839844 231.757813 399.621094 L 234.957031 402.519531 C 234.210938 403.390625 232.949219 404.066406 232.273438 404.9375 Z M 227.757813 401.421875 C 222.757813 398.71875 217.957031 395.519531 212.257813 394.21875 C 220.34375 392.25 223.535156 385.828125 226.421875 379.132813 C 227.640625 376.304688 233.757813 362.519531 237.855469 360.421875 C 241.058594 362.71875 244.558594 364.519531 248.257813 365.421875 C 242.777344 367.246094 237.992188 373.777344 235.476563 381.253906 C 234.976563 382.746094 232.058594 397.519531 227.757813 401.421875 Z M 135.65625 311.421875 L 126.65625 302.820313 C 135.355469 292.71875 145.355469 282.019531 155.058594 273.621094 C 158.191406 276.519531 162.558594 278.921875 164.757813 281.21875 C 164.757813 281.21875 144.058594 306.019531 135.65625 311.421875 Z M 150.957031 300.21875 L 155.621094 305.21875 L 143.957031 315.886719 L 139.289063 311.886719 Z M 130.289063 278.21875 L 138.289063 285.21875 L 125.289063 299.554688 L 116.289063 290.886719 Z M 83.757813 313.621094 L 75.457031 305.71875 C 80.554688 300.519531 111.355469 276.71875 120.457031 269.019531 L 128.058594 276.921875 C 123.957031 281.820313 94.054688 306.21875 83.757813 313.621094 Z M 167.65625 283.019531 L 173.457031 288.421875 C 172.058594 290.21875 169.121094 291.785156 168.457031 292.820313 C 166.257813 291.652344 164.855469 289.921875 162.65625 288.019531 Z M 194.257813 273.621094 L 202.558594 280.519531 C 198.355469 287.519531 179.257813 300.621094 178.855469 303.921875 C 174.957031 301.421875 173.257813 297.21875 169.457031 295.21875 C 177.65625 288.71875 186.15625 281.21875 194.257813 273.621094 Z M 198.65625 252.421875 C 201.089844 264.484375 232.191406 284.085938 232.191406 284.085938 C 230.089844 286.886719 224.855469 290.21875 221.257813 293.820313 C 221.257813 293.820313 196.488281 272.519531 191.058594 266.121094 C 193.355469 261.820313 199.15625 258.320313 198.65625 252.421875 Z M 201.15625 248.820313 C 203.257813 243.519531 207.65625 238.421875 213.757813 238.019531 C 217.855469 237.921875 221.355469 239.421875 224.855469 240.921875 C 218.355469 247.519531 212.15625 253.621094 205.855469 260.019531 C 203.257813 256.621094 199.65625 253.21875 201.15625 248.820313 Z M 262.65625 304.621094 L 249.058594 293.820313 C 252.957031 288.921875 258.65625 284.320313 262.355469 280.121094 C 266.121094 283.984375 275.558594 292.019531 276.058594 292.71875 Z M 277.457031 294.21875 C 279.855469 296.921875 282.789063 299.785156 285.355469 302.820313 C 283.035156 304.566406 277.300781 309.804688 273.457031 313.21875 L 264.421875 305.554688 C 269.058594 301.984375 273.355469 298.121094 277.457031 294.21875 Z M 219.855469 316.121094 C 216.355469 313.121094 213.558594 309.019531 209.757813 305.71875 C 213.65625 302.820313 246.355469 275.421875 251.855469 270.421875 C 255.558594 272.519531 257.355469 275.921875 260.15625 278.71875 C 260.15625 278.71875 223.558594 311.519531 219.855469 316.121094 Z M 234.257813 306.421875 C 238.957031 310.71875 244.558594 312.953125 248.457031 317.421875 L 233.855469 330.921875 L 221.65625 317.621094 Z M 208.355469 303.519531 C 203.15625 299.921875 199.355469 296.019531 195.058594 291.621094 C 197.855469 288.519531 201.957031 285.21875 204.757813 282.621094 C 208.558594 287.421875 213.15625 292.519531 218.457031 296.019531 Z M 235.355469 282.019531 C 228.457031 279.519531 222.457031 275.019531 216.65625 270.820313 C 222.558594 264.820313 229.257813 258.121094 234.957031 252.421875 L 250.058594 268.621094 C 245.65625 273.921875 240.257813 277.21875 235.355469 282.019531 Z M 192.855469 272.019531 C 190.921875 274.320313 187.457031 276.621094 185.257813 279.421875 C 183.457031 278.21875 181.65625 276.121094 180.257813 274.71875 C 183.855469 272.019531 186.15625 270.019531 189.257813 266.820313 C 190.058594 268.519531 191.855469 270.421875 192.855469 272.019531 Z M 183.535156 304.335938 C 184.511719 305.078125 190.957031 311.921875 193.257813 314.320313 C 192.007813 315.570313 190.882813 315.71875 189.855469 315.308594 C 188.832031 314.894531 180.355469 305.621094 180.65625 305.019531 C 181.769531 303.582031 182.691406 303.691406 183.535156 304.335938 Z M 185.257813 300.621094 L 193.558594 293.121094 C 202.257813 300.519531 210.355469 309.019531 218.457031 317.621094 L 232.058594 332.019531 C 229.957031 335.320313 225.355469 338.121094 222.355469 341.019531 C 210.757813 332.121094 185.15625 303.519531 185.257813 300.621094 Z M 219.523438 342.621094 C 213.722656 345.019531 208.457031 352.519531 201.457031 347.820313 C 198.65625 345.921875 197.65625 342.621094 196.855469 339.519531 C 195.257813 333.21875 203.222656 330.121094 205.855469 328.019531 C 210.855469 332.921875 214.722656 337.019531 219.523438 342.621094 Z M 250.058594 318.320313 C 253.191406 320.984375 257.824219 323.71875 260.855469 326.921875 C 253.65625 330.71875 233.058594 350.421875 229.957031 355.019531 C 225.257813 350.421875 219.558594 347.421875 212.65625 349.21875 C 225.855469 342.519531 237.65625 329.621094 250.058594 318.320313 Z M 263.257813 346.519531 C 259.839844 349.1875 255.257813 350.378906 250.824219 349.253906 C 244.304688 347.59375 244.355469 343.519531 244.355469 343.519531 L 262.15625 328.085938 C 263.789063 329.019531 265.15625 330.820313 265.957031 332.019531 C 264.457031 336.921875 267.058594 342.820313 263.257813 346.519531 Z M 232.457031 354.621094 C 233.257813 356.019531 237.757813 358.320313 234.957031 360.421875 L 233.855469 361.519531 L 230.257813 356.421875 Z M 240.058594 377.320313 C 241.566406 375.179688 243.035156 371.9375 245.335938 369.894531 C 250.902344 364.960938 260.246094 366.09375 265.351563 369.117188 C 268.847656 371.1875 272.25 373.753906 274.957031 377.019531 C 274.957031 377.019531 263.15625 395.453125 253.65625 392.054688 C 250.734375 391.152344 246.5625 389.449219 244.21875 387.335938 C 239.589844 383.167969 239 380.839844 240.058594 377.320313 Z M 234.089844 353.121094 C 234.089844 353.121094 239.65625 348.421875 242.15625 345.621094 C 246.15625 351.21875 253.457031 352.519531 259.855469 350.71875 C 263.355469 349.519531 266.15625 347.71875 267.058594 343.820313 L 274.855469 353.851563 C 274.101563 359.316406 262.761719 363.382813 257.632813 363.828125 C 248.847656 364.597656 239.535156 361.460938 234.089844 353.121094 Z M 236.058594 305.320313 L 247.257813 294.921875 C 257.15625 301.519531 276.355469 317.621094 276.355469 317.621094 C 272.890625 321.253906 269.355469 325.320313 267.757813 330.519531 C 267.15625 328.519531 240.058594 306.621094 236.058594 305.320313 Z M 275.957031 313.886719 L 286.457031 303.386719 L 288.289063 305.386719 L 278.121094 315.71875 Z M 236.757813 250.21875 L 245.757813 242.320313 C 259.621094 259.453125 296.757813 296.519531 298.355469 298.519531 C 298.355469 298.519531 293.058594 301.886719 290.691406 303.421875 C 288.589844 301.71875 245.355469 258.621094 236.757813 250.21875 Z M 288.191406 281.253906 L 286.058594 283.421875 C 281.855469 279.921875 279.65625 276.320313 275.65625 272.21875 L 278.855469 269.320313 C 278.558594 274.519531 284.757813 278.019531 288.191406 281.253906 Z M 284.621094 262.554688 C 286.289063 260.886719 287.957031 258.886719 287.957031 258.886719 L 298.957031 269.886719 L 288.957031 280.054688 C 288.957031 280.054688 283.289063 276.054688 282.289063 273.054688 C 280.511719 267.71875 280.621094 266.554688 284.621094 262.554688 Z M 297.257813 294.519531 L 300.15625 291.621094 C 300.257813 292.019531 302.65625 295.121094 303.355469 296.71875 C 302.15625 297.121094 300.757813 297.121094 299.757813 298.121094 C 298.558594 296.921875 297.257813 296.320313 297.257813 294.519531 Z M 308.957031 257.886719 C 304.957031 263.21875 300.957031 267.886719 300.957031 267.886719 L 289.289063 257.21875 C 289.289063 257.21875 291.035156 252.496094 291.621094 249.554688 C 292.289063 246.21875 290.121094 240.71875 290.121094 240.71875 L 301.621094 231.21875 C 301.621094 231.21875 307.289063 235.21875 309.289063 238.554688 C 312.820313 244.4375 315.871094 248.667969 308.957031 257.886719 Z M 289.523438 238.320313 C 288.582031 236.171875 284.257813 230.820313 284.257813 230.820313 C 287.421875 227.585938 290.257813 225.019531 292.558594 221.820313 L 300.855469 229.421875 C 296.691406 232.753906 292.757813 235.054688 289.523438 238.320313 Z M 282.824219 228.785156 L 279.921875 226.285156 C 282.722656 223.484375 285.257813 220.785156 288.257813 217.785156 C 289.121094 218.886719 290.457031 219.621094 291.15625 220.71875 C 288.089844 223.886719 285.890625 226.21875 282.824219 228.785156 Z M 286.855469 239.421875 C 291.65625 249.71875 285.957031 258.621094 279.257813 266.421875 C 277.855469 267.71875 275.757813 269.019531 274.257813 270.820313 L 265.558594 261.019531 C 270.65625 254.71875 274.058594 247.71875 269.855469 239.820313 C 269.058594 238.421875 267.457031 237.320313 267.355469 235.519531 L 277.855469 228.320313 C 281.855469 230.921875 284.15625 235.621094 286.855469 239.421875 Z M 269.558594 248.820313 C 268.855469 252.71875 266.855469 256.019531 264.457031 259.21875 C 259.757813 253.421875 252.257813 247.71875 247.558594 240.921875 L 252.957031 236.621094 C 256.257813 237.21875 261.921875 238.253906 265.121094 236.953125 C 265.121094 236.953125 270.855469 244.320313 269.558594 248.820313 Z M 215.558594 269.320313 C 212.457031 267.921875 210.757813 265.054688 208.355469 262.121094 C 217.558594 252.019531 239.257813 231.21875 239.257813 231.21875 C 243.457031 232.121094 245.921875 235.621094 250.324219 236.019531 C 243.691406 239.519531 220.757813 264.019531 215.558594 269.320313 Z M 235.65625 229.421875 C 234.988281 228.785156 235.457031 228.054688 236.058594 227.621094 C 236.757813 227.71875 237.589844 228.285156 237.855469 229.019531 C 237.457031 230.019531 236.457031 230.21875 235.65625 229.421875 Z M 232.457031 227.621094 C 228.457031 224.019531 223.15625 221.421875 218.457031 220.019531 C 225.964844 217.578125 228.460938 210.003906 224.242188 200.648438 C 219.796875 190.785156 213.273438 191.007813 207.027344 194.511719 C 204.746094 195.792969 198.007813 201.335938 193.558594 204.519531 L 185.65625 195.921875 C 189.273438 192.4375 193.339844 189.320313 197.15625 185.820313 C 205.929688 190.359375 213.515625 191.535156 220.355469 189.246094 C 222.894531 188.398438 230.070313 183.59375 230.398438 183.714844 C 239.109375 188.761719 242.96875 205.925781 238.394531 217.925781 C 237.488281 220.304688 232.457031 227.621094 232.457031 227.621094 Z M 206.851563 197.550781 C 215.085938 192.390625 219.539063 195.265625 222.644531 201.875 C 223.921875 204.589844 225.460938 212.28125 220.957031 216.421875 C 218.058594 219.085938 213.457031 220.519531 209.058594 219.320313 C 203.355469 216.71875 199.257813 211.21875 195.058594 206.71875 C 198.804688 204.164063 202.582031 200.226563 206.851563 197.550781 Z M 233.824219 231.820313 C 232.191406 233.585938 229.65625 236.621094 226.355469 239.421875 C 223.238281 237.769531 219.945313 235.976563 216.253906 235.597656 C 210.019531 234.960938 200.773438 238.445313 198.65625 249.519531 C 197.855469 242.820313 194.15625 237.421875 189.65625 232.21875 C 193.324219 226.984375 203.539063 223.035156 206.308594 222.753906 C 211.984375 222.171875 226.792969 222.914063 233.824219 231.820313 Z M 188.15625 230.121094 L 180.957031 220.421875 L 183.457031 217.519531 C 186.058594 220.71875 189.558594 223.621094 191.457031 227.21875 Z M 191.589844 238.738281 C 196.25 246.300781 199.429688 251.246094 192.175781 260.78125 C 186.886719 267.734375 178.457031 273.320313 178.457031 273.320313 L 169.855469 263.921875 C 174.757813 260.121094 182.257813 253.820313 180.257813 246.621094 C 178.15625 240.71875 176.691406 237.753906 169.457031 230.820313 C 171.957031 227.519531 176.058594 224.21875 179.15625 221.820313 C 183.765625 227.53125 187.996094 232.910156 191.589844 238.738281 Z M 173.90625 257.867188 C 171.667969 260.304688 168.355469 262.519531 168.355469 262.519531 C 164.757813 258.320313 160.621094 254.453125 157.890625 249.085938 C 155.957031 245.285156 163.558594 235.519531 168.058594 231.921875 C 178.066406 242.398438 182.734375 248.25 173.90625 257.867188 Z M 183.457031 280.519531 C 181.65625 283.421875 178.65625 284.71875 175.558594 286.621094 C 175.558594 286.621094 154.355469 269.71875 148.257813 261.421875 C 152.058594 257.320313 153.457031 253.019531 154.355469 248.121094 C 161.15625 259.820313 173.855469 270.320313 183.457031 280.519531 Z M 153.921875 270.519531 C 154.324219 271.921875 151.355469 274.21875 150.355469 275.421875 C 147.15625 273.519531 144.65625 270.921875 142.058594 268.21875 L 147.457031 263.820313 C 150.457031 266.121094 151.523438 267.71875 153.921875 270.519531 Z M 148.289063 276.554688 L 141.621094 283.554688 C 141.621094 283.554688 126.957031 271.554688 123.957031 268.554688 C 120.957031 265.554688 103.289063 249.21875 103.289063 249.21875 L 109.289063 242.554688 C 109.289063 242.554688 124.957031 255.554688 128.621094 258.886719 C 132.289063 262.21875 148.289063 276.554688 148.289063 276.554688 Z M 119.058594 267.519531 C 114.058594 272.21875 108.355469 276.019531 103.558594 280.519531 L 87.757813 268.21875 C 90.855469 261.320313 96.054688 256.71875 101.058594 251.019531 C 103.558594 251.820313 119.058594 267.519531 119.058594 267.519531 Z M 79.054688 283.71875 C 82.855469 286.21875 86.355469 289.421875 90.257813 291.621094 C 84.855469 295.921875 78.957031 299.519531 74.054688 304.21875 C 69.257813 300.71875 65.457031 296.519531 61.457031 292.019531 C 67.257813 288.921875 71.757813 275.019531 79.054688 283.71875 Z M 96.355469 330.921875 L 87.691406 338.21875 C 75.589844 327.421875 62.757813 315.121094 51.054688 303.21875 L 58.957031 294.21875 C 66.589844 300.121094 87.921875 323.121094 96.355469 330.921875 Z M 84.855469 315.820313 C 89.554688 311.621094 95.257813 306.921875 100.65625 303.21875 C 103.738281 305.214844 113.53125 314.789063 113.722656 314.921875 L 98.855469 328.71875 C 93.757813 325.621094 89.054688 319.621094 84.855469 315.820313 Z M 151.453125 311.710938 C 154.734375 308.550781 157.257813 306.421875 157.257813 306.421875 C 159.957031 309.21875 163.457031 312.621094 166.257813 315.421875 C 149.542969 329.253906 145.695313 332.121094 154.796875 342.644531 C 158.183594 346.5625 162.242188 351.242188 166.257813 354.320313 L 158.390625 361.554688 C 154.5625 358.648438 151.015625 356.105469 147.3125 352.53125 C 131.910156 337.6875 136.355469 326.253906 151.453125 311.710938 Z M 151.855469 333.820313 C 154.957031 326.921875 162.257813 321.820313 167.65625 316.820313 C 173.078125 323.605469 179.875 328.53125 177.101563 337.597656 C 174.746094 345.292969 168.058594 352.519531 168.058594 352.519531 C 161.757813 347.21875 155.558594 341.320313 151.855469 333.820313 Z M 152.558594 298.121094 C 155.90625 295.3125 158.125 289.453125 161.347656 291.105469 C 162.078125 291.480469 181.957031 310.71875 188.855469 317.921875 C 186.257813 321.320313 182.457031 325.421875 180.957031 329.820313 C 174.15625 318.121094 162.757813 309.1875 152.558594 298.121094 Z M 187.199219 322.609375 C 188.546875 320.832031 193.757813 315.820313 195.355469 316.519531 L 204.355469 326.21875 C 201.742188 328.148438 199.039063 330.28125 196.890625 332.890625 C 193.214844 337.359375 193.367188 348.761719 205.058594 350.71875 C 201.722656 352.71875 198.457031 354.621094 195.058594 357.519531 C 188.769531 357.335938 182.828125 348.242188 181.746094 342.421875 C 180.488281 335.632813 183.015625 328.117188 187.199219 322.609375 Z M 193.558594 359.320313 L 184.558594 367.21875 L 178.457031 360.820313 L 184.257813 353.621094 C 187.257813 355.71875 189.855469 358.019531 193.558594 359.320313 Z M 215.621094 350.847656 C 224.980469 350.59375 226.355469 356.6875 230.257813 366.21875 C 228.121094 370.285156 225.65625 373.71875 224.558594 378.019531 C 222.257813 373.019531 220.957031 366.121094 214.457031 364.421875 C 204.757813 361.519531 197.855469 371.519531 191.058594 376.21875 L 185.257813 368.71875 C 194.503906 360.769531 203.378906 351.175781 215.621094 350.847656 Z M 207.105469 367.257813 C 216.695313 362.414063 222.621094 375.128906 221.386719 381.839844 C 220.160156 388.472656 214.785156 393.171875 210.855469 392.121094 C 208.410156 390.066406 205.925781 388.585938 203.503906 387.078125 C 200.378906 385.132813 194.355469 378.71875 194.257813 378.019531 C 197.207031 374.96875 202.132813 369.769531 207.105469 367.257813 Z M 230.65625 406.820313 L 224.15625 413.019531 C 214.941406 407.597656 207.398438 406.769531 201.105469 412.28125 C 197.871094 415.113281 195.023438 418.90625 194.839844 422.632813 C 194.804688 423.367188 194.652344 423.496094 194.441406 422.835938 C 192.933594 418.023438 191.15625 413.097656 187.539063 409.085938 C 187.539063 409.085938 193.796875 402.429688 196.257813 400.835938 C 209.976563 391.949219 217.375 396.148438 230.65625 406.820313 Z M 195.257813 428.382813 C 195.296875 427.953125 195.558594 427.875 195.671875 428.289063 C 200.269531 445.273438 218.597656 448.523438 230.976563 457.621094 C 228.183594 460.089844 224.304688 464.011719 221.257813 466.621094 C 212.457031 461.6875 189.257813 441.820313 189.257813 441.820313 C 192.871094 436.429688 194.664063 435.304688 195.257813 428.382813 Z M 218.757813 468.421875 C 215.457031 473.320313 210.15625 475.71875 205.621094 479.371094 C 203.441406 477.484375 196.605469 470.785156 193.558594 467.71875 C 196.058594 464.320313 200.457031 461.21875 203.257813 457.21875 C 207.855469 460.519531 218.257813 467.921875 218.757813 468.421875 Z M 233.15625 504.019531 C 229.558594 501.417969 216.15625 488.753906 215.457031 488.652344 C 220.957031 483.851563 226.558594 481.320313 232.457031 476.71875 L 249.355469 489.320313 C 244.15625 494.019531 239.058594 500.917969 233.15625 504.019531 Z M 213.773438 487.101563 C 212.15625 485.785156 209.390625 483.453125 207.191406 481.554688 C 223.191406 469.453125 235.355469 456.121094 251.15625 442.519531 L 261.957031 452.621094 C 253.15625 460.320313 220.671875 482.503906 213.773438 487.101563 Z M 263.457031 454.421875 C 267.355469 458.121094 271.257813 461.320313 274.207031 465.1875 C 270.289063 468.734375 267.972656 471.269531 262.15625 475.371094 C 257.855469 472.269531 252.824219 468.921875 248.421875 465.519531 C 253.722656 462.21875 258.621094 458.019531 263.457031 454.421875 Z M 234.257813 424.519531 C 236.84375 421.933594 237.9375 420.40625 240.171875 417.980469 C 253.589844 430 276.191406 449 282.339844 457.484375 L 276.355469 463.71875 C 268.921875 456.6875 240.058594 429.421875 234.257813 424.519531 Z M 241.257813 416.804688 C 243.398438 414.484375 245.675781 412.335938 248.640625 410.535156 C 253.140625 411.269531 258.957031 411.9375 263.058594 409.71875 C 272.285156 414.429688 264.988281 429.34375 261.308594 433.371094 C 255.261719 428.570313 247.378906 421.238281 241.257813 416.804688 Z M 257.902344 408.546875 C 246.359375 410.417969 232.855469 397.519531 232.855469 397.519531 C 235.058594 392.921875 236.957031 388.121094 238.257813 383.121094 C 240.390625 387.6875 250.023438 393.726563 254.214844 394.378906 C 262.96875 395.746094 269.523438 387.085938 276.355469 378.421875 L 284.65625 386.019531 C 278.011719 389.886719 267.753906 406.945313 257.902344 408.546875 Z M 286.457031 387.820313 C 287.65625 388.820313 288.957031 390.21875 287.855469 391.71875 C 285.191406 394.871094 282.972656 396.851563 279.671875 400.453125 C 278.609375 399.578125 277.113281 398.453125 276.96875 397.417969 C 278.464844 395.964844 286.457031 387.820313 286.457031 387.820313 Z M 264.855469 364.71875 C 266.15625 363.21875 274.558594 359.320313 274.558594 359.320313 C 274.558594 359.320313 295.855469 380.921875 297.257813 380.921875 C 295.855469 383.519531 293.15625 385.921875 290.757813 387.820313 C 288.855469 387.71875 264.855469 364.71875 264.855469 364.71875 Z M 276.757813 357.519531 C 280.355469 358.019531 282.257813 361.820313 284.65625 364.71875 C 283.121094 365.519531 276.757813 357.519531 276.757813 357.519531 Z M 325.355469 294.921875 C 330.757813 291.121094 335.855469 285.886719 341.855469 282.585938 C 346.507813 285.46875 350.488281 288.519531 354.890625 291.921875 C 349.074219 297.4375 345.289063 301.71875 338.691406 305.820313 C 333.789063 302.519531 329.957031 299.019531 325.355469 294.921875 Z M 343.355469 280.820313 C 346.257813 278.121094 349.855469 275.519531 353.058594 272.921875 C 353.058594 272.921875 390.257813 300.621094 396.257813 303.921875 C 394.121094 306.253906 391.621094 310.484375 388.65625 313.21875 Z M 382.039063 291.253906 C 387.855469 287.71875 390.773438 282.984375 396.089844 278.769531 C 399.988281 282.371094 403.957031 287.621094 408.15625 291.320313 C 404.355469 295.21875 401.257813 299.519531 397.355469 302.421875 C 391.855469 297.320313 387.738281 296.054688 382.039063 291.253906 Z M 387.257813 314.71875 C 382.839844 321.035156 374.355469 328.121094 368.855469 333.820313 C 363.574219 328.246094 355.960938 321.304688 351.042969 315.203125 C 356.753906 310.140625 362.824219 305.71875 368.558594 301.019531 C 375.058594 304.820313 381.257813 310.421875 387.257813 314.71875 Z M 417.488281 301.953125 C 419.855469 303.71875 423.308594 309.203125 423.308594 309.203125 L 412.589844 315.003906 C 411.789063 314.101563 409.921875 312.519531 409.058594 311.484375 C 411.457031 307.886719 414.289063 305.253906 417.488281 301.953125 Z M 397.65625 277.21875 C 400.058594 275.796875 403.523438 272.246094 406.503906 269.738281 C 407.492188 271.679688 429.230469 291.179688 431.859375 293.339844 C 434.800781 295.761719 436.601563 298.535156 438.507813 301.871094 C 435.207031 305.171875 430.558594 306.121094 426.457031 308.21875 C 422.558594 301.421875 397.65625 277.21875 397.65625 277.21875 Z M 429.757813 288.019531 C 432.65625 285.320313 436.355469 282.621094 439.457031 280.121094 C 442.558594 280.820313 445.558594 282.621094 447.355469 285.519531 C 448.757813 290.71875 446.957031 295.921875 443.457031 299.21875 C 439.988281 302.21875 434.691406 291.703125 429.757813 288.019531 Z M 427.257813 286.21875 C 425.058594 284.421875 422.773438 282.519531 420.757813 280.820313 C 424.257813 276.320313 431.621094 278.234375 436.523438 279.535156 C 434.308594 282.070313 430.058594 284.21875 427.257813 286.21875 Z M 419.058594 279.621094 C 415.957031 275.71875 408.855469 272.621094 409.558594 267.21875 C 410.957031 271.921875 416.558594 275.621094 421.058594 277.621094 Z M 407.058594 266.121094 C 397.355469 272.820313 390.355469 282.621094 380.457031 290.21875 C 377.15625 287.71875 373.957031 285.21875 370.65625 282.621094 C 379.957031 276.019531 388.855469 267.019531 397.65625 258.519531 C 400.457031 255.21875 401.457031 252.019531 401.65625 248.121094 C 403.257813 243.621094 400.558594 239.019531 398.457031 235.121094 C 402.457031 234.320313 406.257813 232.820313 409.257813 229.421875 C 419.042969 230.578125 418.871094 250.40625 414.230469 256.9375 C 411.964844 260.128906 409.171875 263.125 407.058594 266.121094 Z M 387.378906 236.988281 C 387.84375 236.914063 393.757813 237.121094 395.855469 235.820313 C 402.320313 240.453125 399.324219 254.085938 394.988281 257.085938 C 390.207031 251.921875 384.757813 247.121094 378.957031 243.019531 C 381.15625 240.820313 386.972656 237.054688 387.378906 236.988281 Z M 377.15625 241.21875 L 369.957031 234.820313 L 373.957031 231.921875 C 377.089844 233.871094 380.355469 236.019531 384.058594 236.21875 Z M 371.738281 230.085938 C 370.039063 231.085938 369.289063 232.152344 367.390625 232.554688 C 365.558594 230.621094 367.222656 229.601563 368.941406 226.703125 Z M 390.457031 254.921875 C 391.855469 256.421875 394.441406 258.203125 391.957031 260.320313 L 385.171875 265.835938 C 377.25 257.390625 368.738281 250.984375 360.703125 242.890625 C 359.507813 241.6875 355.839844 238.285156 352.355469 237.320313 L 363.457031 232.621094 C 372.15625 240.121094 382.355469 247.921875 390.457031 254.921875 Z M 358.058594 243.019531 C 356.617188 245.113281 349.128906 254.054688 341.359375 261.890625 C 332.789063 256.097656 326.558594 246.394531 335.6875 239.746094 C 338.394531 237.777344 341.699219 236.796875 345.15625 236.921875 C 349.257813 239.519531 354.65625 238.820313 358.058594 243.019531 Z M 333.957031 237.753906 C 322.171875 245.382813 332.128906 258.925781 339.800781 263.441406 C 336.210938 266.976563 332.636719 270.164063 329.65625 272.21875 C 322.675781 268.167969 319.625 263.21875 318.230469 258.738281 C 314.640625 247.226563 316.347656 236.457031 323.710938 231.921875 C 325.980469 230.519531 328.328125 229.304688 329.257813 226.519531 C 329.972656 227.421875 338.726563 234.027344 340.789063 234.851563 Z M 323.671875 229.253906 C 320.507813 225.902344 318.589844 222.46875 315.589844 218.671875 C 316.523438 217.554688 317.039063 216.984375 317.871094 215.984375 C 320.707031 218.886719 327.671875 225.054688 327.671875 225.054688 C 325.871094 226.453125 326.789063 228.351563 323.671875 229.253906 Z M 243.746094 206.355469 C 244.433594 197.984375 252.453125 191.363281 260.601563 192.992188 C 269.15625 194.707031 271.261719 201.515625 277.058594 206.320313 C 273.191406 210.988281 268.351563 213.503906 263.496094 216.128906 C 257.972656 219.121094 243.078125 214.488281 243.746094 206.355469 Z M 278.191406 205.253906 C 276.679688 202.949219 273.132813 199.234375 270.066406 195.9375 C 264.398438 189.835938 250.511719 186.671875 242.558594 199.519531 C 242.257813 194.621094 239.257813 189.621094 236.058594 185.820313 C 241.675781 182.324219 247.621094 178.503906 254.121094 177.050781 C 259.164063 175.929688 262.609375 176.21875 265.804688 177.519531 C 271.859375 179.988281 283.179688 188.109375 288.257813 195.21875 C 284.355469 200.71875 278.191406 205.253906 278.191406 205.253906 Z M 285.8125 189.140625 C 283.355469 187.496094 280.984375 184.425781 278.15625 182.621094 C 278.65625 181.921875 279.171875 181.734375 279.621094 181.234375 C 281.300781 183.953125 283.765625 186.53125 286.117188 188.632813 C 286.710938 189.160156 286.484375 189.59375 285.8125 189.140625 Z M 275.65625 180.019531 C 273.855469 179.121094 271.65625 177.320313 270.65625 176.121094 C 274.257813 175.21875 274.15625 166.519531 274.257813 163.820313 C 273.457031 158.421875 270.457031 154.71875 266.65625 150.921875 L 274.257813 144.019531 C 274.257813 144.019531 285.65625 158.820313 287.558594 164.921875 C 287.355469 172.121094 280.15625 175.519531 275.65625 180.019531 Z M 276.058594 142.621094 L 290.457031 130.71875 C 292.289063 132.21875 293.558594 134.320313 295.058594 136.121094 C 289.558594 138.019531 283.355469 140.421875 278.558594 144.820313 C 277.757813 144.019531 276.957031 143.019531 276.058594 142.621094 Z M 277.457031 96.21875 L 279.257813 94.71875 C 282.457031 99.421875 287.65625 102.421875 292.558594 104.421875 L 289.65625 107.320313 C 284.855469 103.921875 281.457031 100.820313 277.457031 96.21875 Z M 249.058594 118.820313 C 245.558594 116.519531 242.15625 114.320313 238.957031 111.621094 C 246.65625 108.121094 267.558594 88.371094 271.65625 80.320313 C 271.523438 85.402344 277.574219 93.085938 277.574219 93.085938 C 268.074219 102.085938 260.558594 112.21875 249.058594 118.820313 Z M 265.558594 85.019531 C 264.238281 82.269531 251.773438 71.101563 250.871094 69.503906 C 252.796875 67.578125 254.796875 65.859375 256.871094 64.714844 C 262.097656 61.828125 268.816406 64.910156 270.972656 68.710938 C 272.9375 72.175781 271.097656 80.453125 265.558594 85.019531 Z M 249.058594 67.71875 C 245.058594 64.421875 242.472656 62.085938 238.722656 58.636719 C 256.976563 41.921875 277.472656 60.019531 277.472656 60.019531 C 276.171875 62.4375 273.65625 65.71875 273.15625 68.421875 C 267.355469 60.761719 257.367188 58.34375 249.058594 67.71875 Z M 277.457031 56.921875 C 285.890625 54.035156 287.023438 38.984375 287.023438 38.984375 C 289.257813 41.171875 295.808594 46.46875 297.957031 49.019531 C 291.808594 51.054688 280.558594 56.71875 279.65625 58.421875 Z M 201.15625 80.019531 C 202.257813 83.019531 204.757813 85.519531 206.558594 88.21875 C 202.957031 90.921875 200.957031 94.019531 197.855469 97.21875 C 196.914063 96.484375 195.972656 92.601563 195.378906 91.34375 C 197.101563 88.84375 202.019531 84.460938 201.15625 80.019531 Z M 203.257813 67.71875 C 210.257813 64.019531 219.457031 62.121094 225.957031 68.121094 C 226.457031 68.71875 227.355469 69.21875 227.457031 69.921875 C 222.65625 72.921875 217.558594 77.320313 213.757813 81.421875 L 208.355469 87.21875 C 203.257813 81.71875 202.058594 74.621094 203.257813 67.71875 Z M 193.957031 92.921875 C 194.15625 94.71875 194.855469 97.21875 196.058594 99.019531 C 192.457031 102.921875 189.089844 106.886719 185.589844 110.285156 C 183.058594 108.234375 182.074219 106.136719 179.855469 104.121094 C 185.058594 101.519531 190.355469 97.71875 193.957031 92.921875 Z M 229.558594 71.019531 C 232.058594 73.320313 236.257813 76.21875 236.757813 79.21875 C 231.957031 83.519531 199.15625 116.121094 194.65625 119.621094 C 192.40625 117.152344 189.488281 114.519531 187.039063 111.785156 C 190.738281 107.484375 229.558594 71.019531 229.558594 71.019531 Z M 210.488281 107.519531 C 213.988281 109.71875 225.957031 119.921875 225.957031 119.921875 C 225.457031 119.71875 214.058594 129.519531 209.457031 132.921875 C 204.957031 129.421875 200.355469 125.621094 196.457031 121.421875 C 201.191406 116.621094 205.457031 112.71875 210.488281 107.519531 Z M 195.058594 184.421875 C 191.558594 187.320313 187.855469 191.019531 184.257813 194.121094 L 180.257813 190.121094 L 190.355469 180.019531 Z M 205.058594 220.019531 C 201.355469 220.621094 193.558594 225.421875 193.558594 225.421875 L 170.15625 200.621094 C 171.855469 198.121094 176.355469 194.121094 178.855469 191.621094 C 186.621094 200.921875 204.257813 218.621094 205.058594 220.019531 Z M 172.355469 205.21875 C 171.539063 205.859375 170.792969 207.351563 169.40625 208.136719 L 165.574219 203.902344 C 166.382813 203.59375 167.800781 202.449219 168.800781 202.019531 C 169.863281 202.875 172.355469 205.21875 172.355469 205.21875 Z M 173.757813 207.019531 C 176.558594 209.71875 179.757813 213.21875 182.058594 216.019531 C 174.457031 224.71875 163.457031 229.953125 154.691406 245.6875 C 155.890625 239.285156 152.558594 235.019531 150.058594 229.71875 C 153.257813 224.820313 170.058594 211.320313 173.757813 207.019531 Z M 148.347656 227.398438 C 147.375 226.910156 145.605469 225.671875 145.605469 225.671875 C 149.507813 223.46875 152.355469 219.71875 155.058594 216.019531 L 157.558594 218.621094 C 154.855469 221.71875 150.230469 225.921875 148.347656 227.398438 Z M 140.257813 266.820313 L 132.058594 259.621094 C 142.03125 249.429688 142.46875 236.933594 132.757813 234.019531 C 136.957031 233.320313 140.308594 230.585938 143.808594 227.386719 C 155.722656 235.675781 154.773438 256.195313 140.257813 266.820313 Z M 130.257813 257.820313 C 123.65625 252.019531 117.257813 247.121094 111.457031 240.519531 C 113.851563 237.898438 116.652344 236.65625 119.316406 235.984375 C 122.917969 235.082031 130.289063 235.03125 131.292969 235.601563 C 139.476563 240.226563 140.523438 247.289063 130.257813 257.820313 Z M 88.589844 259.921875 L 84.15625 265.019531 L 76.957031 260.019531 C 84.65625 250.121094 94.15625 240.621094 104.257813 232.621094 L 114.457031 235.785156 C 109.421875 238.449219 88.589844 259.921875 88.589844 259.921875 Z M 48.691406 274.671875 C 51.988281 273.269531 54.757813 271.71875 58.257813 270.820313 L 58.957031 271.519531 L 50.257813 279.421875 C 49.257813 279.019531 46.390625 276.6875 45.589844 275.886719 Z M 49.257813 304.621094 L 61.054688 316.121094 C 60.164063 316.796875 59.515625 316.644531 59.011719 316.226563 C 54.96875 312.851563 51.121094 311.429688 44.855469 309.621094 Z M 71.15625 325.820313 L 85.707031 339.953125 L 76.957031 349.21875 L 68.257813 349.621094 C 62.644531 341.710938 61.582031 334.226563 71.15625 325.820313 Z M 116.15625 314.71875 C 118.757813 317.21875 122.058594 319.21875 124.058594 322.21875 C 124.058594 322.21875 95.15625 352.085938 91.15625 351.484375 C 88.15625 350.585938 83.457031 350.421875 80.15625 350.019531 C 93.324219 335.886719 116.15625 314.71875 116.15625 314.71875 Z M 95.65625 352.519531 L 101.757813 357.921875 L 101.058594 359.320313 C 99.15625 357.21875 96.15625 356.019531 93.457031 355.019531 Z M 145.355469 355.019531 C 148.757813 358.121094 153.457031 360.820313 156.15625 364.71875 L 150.757813 369.421875 C 148.558594 366.320313 139.757813 360.121094 139.558594 359.71875 Z M 174.773438 348.300781 C 176.507813 345.097656 177.890625 341.632813 179.558594 338.421875 C 179.65625 342.820313 180.355469 347.71875 183.15625 351.421875 C 180.15625 355.085938 167.023438 370.484375 158.257813 377.71875 L 151.855469 371.21875 C 157.855469 365.21875 173.597656 350.480469 174.773438 348.300781 Z M 166.589844 375.351563 C 168.558594 377.6875 170.390625 379.585938 172.355469 381.621094 L 166.957031 386.71875 L 160.457031 379.820313 C 162.722656 378.386719 164.457031 377.019531 166.589844 375.351563 Z M 168.058594 371.921875 L 177.058594 362.21875 L 189.65625 379.519531 C 193.855469 383.054688 202.25 388.460938 202.960938 388.878906 C 205.320313 390.277344 207.449219 392.304688 209.757813 393.921875 C 203.457031 393.320313 197.257813 396.253906 192.757813 400.453125 C 185.058594 391.453125 168.355469 373.820313 168.058594 371.921875 Z M 191.039063 401.984375 C 189.640625 402.785156 187.289063 405.636719 185.65625 407.621094 L 177.058594 396.421875 C 178.597656 394.628906 180.347656 393.171875 181.550781 392.605469 C 184.332031 394.398438 188.230469 399.554688 191.039063 401.984375 Z M 186.855469 443.835938 C 188.023438 444.601563 188.988281 445.519531 190.191406 446.820313 C 189.277344 447.605469 184.621094 451.484375 182.539063 453.472656 L 177.757813 448.953125 C 177.757813 448.953125 183.371094 445.921875 186.855469 443.835938 Z M 181.355469 479.21875 L 190.355469 489.320313 L 188.558594 491.417969 C 184.957031 489.417969 181.558594 485.320313 177.058594 484.621094 C 176.65625 482.421875 179.757813 480.621094 181.355469 479.21875 Z M 192.15625 491.417969 L 197.558594 497.21875 C 197.558594 497.21875 194.410156 504 194.921875 510.910156 C 195.613281 520.246094 202.558594 522.019531 202.558594 522.019531 C 198.023438 522.886719 193.558594 526.121094 190.355469 530.019531 C 187.257813 525.417969 182.058594 523.519531 179.558594 517.71875 C 179.128906 516.058594 179.375 514.433594 179.804688 512.84375 C 180.386719 510.703125 187.390625 497.621094 192.15625 491.417969 Z M 183.972656 527.667969 L 189.257813 531.417969 C 184.441406 537.019531 181.355469 547.21875 181.355469 547.21875 C 177.65625 542.71875 172.871094 538.800781 169.058594 533.917969 C 174.257813 531.820313 179.472656 531.46875 183.972656 527.667969 Z M 266.257813 501.519531 C 266.757813 499.917969 239.457031 479.621094 234.65625 475.21875 C 238.058594 472.421875 242.15625 469.320313 246.15625 467.019531 C 255.855469 473.71875 264.371094 478.753906 271.871094 488.652344 C 271.171875 493.351563 267.640625 494.335938 266.257813 501.519531 Z M 284.257813 455.421875 C 282.332031 453.84375 274.65625 445.992188 272.289063 443.785156 L 274.921875 440.269531 C 278.222656 443.953125 283.808594 448.621094 288.90625 450.320313 C 287.90625 452.121094 286.023438 454.070313 284.257813 455.421875 Z M 270.257813 442.121094 L 262.738281 434.703125 C 268.730469 429.003906 273.65625 413.53125 265.257813 408.621094 C 268.058594 406.019531 271.507813 403.253906 274.121094 400.085938 C 279.421875 400.421875 281.289063 406.6875 282.890625 411.820313 C 286.140625 422.496094 276.628906 433.742188 270.257813 442.121094 Z M 297.171875 378.269531 L 295.855469 376.621094 L 297.65625 374.421875 C 298.457031 375.921875 300.355469 377.320313 300.15625 378.820313 C 299.355469 380.519531 297.871094 379.070313 297.171875 378.269531 Z M 297.257813 371.621094 C 295.855469 372.820313 296.558594 374.320313 294.355469 375.21875 C 291.058594 373.519531 288.15625 369.019531 285.757813 366.519531 C 296.457031 356.921875 311.15625 347.71875 314.855469 332.71875 C 314.65625 325.320313 309.355469 319.71875 304.058594 314.71875 C 306.058594 312.320313 308.058594 309.820313 310.558594 308.621094 C 314.355469 312.320313 319.90625 316.101563 322.605469 320.503906 C 319.308594 324.402344 316.839844 328.703125 316.339844 333.902344 C 316.238281 339.902344 318.121094 345.621094 319.957031 350.71875 C 313.058594 358.019531 305.457031 366.21875 297.257813 371.621094 Z M 320.738281 352.804688 C 321.140625 353.503906 321.921875 354.484375 322.722656 355.585938 C 319.523438 357.886719 312.722656 363.019531 309.921875 368.121094 L 307.789063 365.953125 C 311.390625 361.753906 316.339844 356.003906 320.738281 352.804688 Z M 322.164063 358.320313 C 324.226563 356.984375 324.867188 356.765625 327.847656 358.511719 C 330.742188 360.207031 334.671875 362.285156 338.257813 362.621094 C 328.558594 366.753906 318.605469 377.570313 318.605469 377.570313 C 314.957031 375.21875 310.757813 369.386719 310.757813 369.386719 C 314.503906 365.195313 317.945313 361.050781 322.164063 358.320313 Z M 338.445313 364.691406 C 343.453125 362.390625 349.882813 361.933594 353.191406 365.316406 C 355.453125 367.625 356.222656 371.699219 354.632813 377.472656 C 349.519531 396.011719 339.09375 396.550781 331.167969 390.101563 C 327.378906 387.019531 323.949219 382.726563 320.257813 379.519531 C 320.078125 377.363281 332.191406 367.566406 338.445313 364.691406 Z M 335.800781 359.863281 C 322.246094 354.097656 315.34375 339.054688 319.710938 328.1875 C 320.898438 325.238281 323.398438 322.832031 327.398438 319.34375 C 330.9375 316.257813 353.707031 295.328125 356.523438 293.003906 C 359.855469 294.671875 363.40625 297.871094 366.808594 299.871094 C 360.214844 305.203125 340.539063 320.730469 337.851563 323.367188 C 326.148438 334.835938 329.78125 344.640625 338.660156 349.570313 C 345.042969 353.117188 354.40625 352.335938 359.15625 346.71875 C 361.089844 348.519531 362.65625 350.121094 363.855469 352.121094 C 360.519531 358.796875 345.785156 364.109375 335.800781 359.863281 Z M 338.328125 326.335938 C 343.730469 332.964844 351.777344 339.046875 357.355469 344.921875 C 354.117188 348.59375 348.738281 350.125 343.421875 349.578125 C 338.953125 349.121094 332.6875 342.898438 332.855469 337.019531 C 333.160156 332.773438 335.40625 329.347656 338.328125 326.335938 Z M 364.921875 353.070313 C 366.808594 354.621094 367.855469 355.921875 369.65625 357.21875 C 368.757813 358.21875 367.523438 358.96875 366.222656 359.46875 C 365.324219 357.671875 364.089844 356.371094 363.207031 354.902344 Z M 424.355469 326.21875 L 435.539063 321.136719 C 437.773438 323.632813 441.320313 326.453125 443.09375 329.4375 C 448.21875 338.050781 444.136719 342.511719 436.707031 349.054688 C 430.40625 347.851563 425.789063 343.886719 420.691406 339.6875 C 420.921875 334.96875 417.289063 330.136719 424.355469 326.21875 Z M 420.722656 342.1875 C 425.121094 346.484375 430.222656 349.21875 435.90625 350.820313 C 432.171875 354.421875 429.824219 356.6875 426.007813 360.4375 C 422.472656 360.796875 418.195313 359.839844 414.867188 358.398438 C 411.753906 357.046875 410.410156 355.8125 413.558594 352.820313 C 416.855469 349.820313 419.523438 346.285156 420.722656 342.1875 Z M 412.058594 358.21875 C 415.257813 361.421875 420.421875 362.921875 424.621094 362.320313 L 418.171875 368.9375 C 416.515625 365.519531 413.875 362.347656 411.757813 359.019531 Z M 461.855469 281.636719 C 461.945313 288.660156 459.324219 306.039063 451.21875 312.566406 C 443.558594 318.730469 430.609375 317.199219 418.789063 327.6875 C 416.890625 324.1875 416.355469 320.46875 413.65625 317.371094 C 414.65625 315.671875 425.199219 311.023438 429.050781 309.410156 C 439.976563 304.835938 445.871094 302.378906 448.929688 294.125 C 454.78125 278.316406 435.339844 275.417969 423.289063 275.714844 C 421.226563 275.765625 412.855469 271.796875 412.457031 267.921875 C 410.757813 261.019531 418.488281 258.785156 419.257813 251.71875 C 420.058594 255.621094 422.855469 259.921875 426.855469 262.121094 C 432.65625 264.734375 439.070313 263.664063 445.050781 263.980469 C 455.863281 264.558594 461.746094 273.199219 461.855469 281.636719 Z M 421.058594 251.019531 C 420.523438 243.359375 429.027344 240.300781 435.132813 237.324219 C 435.882813 236.957031 438.789063 235.636719 438.789063 235.636719 C 447.054688 245.175781 447.75 255.890625 440.617188 260.179688 C 434.09375 264.101563 422.351563 260.742188 421.058594 251.019531 Z M 452.371094 263.121094 C 451.023438 262.671875 449.65625 262.121094 447.757813 262.121094 L 441.65625 261.820313 C 450.8125 251.976563 448.5625 246.910156 440.105469 234.984375 C 444.105469 233.785156 448.308594 230.402344 451.90625 227.902344 C 459.183594 231.921875 465.214844 249.734375 452.371094 263.121094 Z M 438.707031 178.800781 C 450.253906 179.78125 467.8125 191.316406 460.65625 212.5625 C 457.4375 222.125 448.300781 229.671875 439.011719 234.007813 C 428.84375 238.757813 424.71875 238.664063 419.65625 246.621094 C 419.574219 241.21875 419.15625 234.21875 414.957031 229.71875 C 420.945313 227.453125 438.621094 219.390625 443.46875 216.238281 C 447.464844 213.640625 453.605469 203.753906 447.414063 196.925781 C 444.121094 193.296875 436.898438 193.390625 425.457031 195.21875 C 421.175781 191.164063 416.847656 188.980469 412.304688 186.402344 C 419.835938 182.09375 429.367188 178.003906 438.707031 178.800781 Z M 443.390625 214.21875 C 441.839844 210.234375 427.558594 197.320313 427.558594 197.320313 C 431.476563 195.613281 436.34375 195.144531 440.792969 195.785156 C 447.992188 196.828125 451.136719 203.789063 445.957031 211.421875 Z M 400.601563 181.433594 C 402.753906 182.382813 419.007813 192.03125 424.144531 196.292969 C 427.855469 199.367188 440.558594 211.519531 441.65625 215.320313 C 437.855469 217.71875 434.023438 219.9375 429.921875 221.136719 C 424.148438 215.015625 405.246094 193.859375 391.371094 192.253906 C 377.078125 190.59375 373.113281 210.148438 368.738281 221.617188 C 365.105469 231.132813 353.382813 235.972656 349.039063 235.859375 C 343.199219 235.703125 322.152344 219.128906 318.855469 214.621094 L 327.855469 206.320313 C 339.398438 220.652344 349.148438 222 356.601563 214.949219 C 361.070313 210.722656 363.488281 203.417969 368.398438 194.230469 C 376.964844 178.199219 386.992188 175.402344 400.601563 181.433594 Z M 329.171875 205.035156 C 340.34375 193.9375 352.1875 187.347656 361.355469 200.921875 L 362.472656 202.121094 C 359.453125 207.246094 356.753906 214.046875 350.792969 216.3125 C 341.839844 219.714844 331.027344 208.726563 329.171875 205.035156 Z M 327.515625 190.523438 C 334.144531 185.308594 341.867188 180.796875 343.597656 179.839844 C 350.242188 176.164063 356.464844 175.160156 366.113281 183.742188 C 368.125 185.53125 369.472656 187.4375 369.472656 187.4375 C 368.671875 188.136719 363.15625 200.21875 363.15625 200.21875 C 359.726563 196.359375 355.855469 191.617188 350.46875 191.101563 C 338.890625 189.996094 316.078125 213.574219 314.472656 217.019531 C 312.371094 214.21875 309.855469 211.4375 307.65625 208.519531 C 309.988281 206.046875 318.484375 197.632813 327.515625 190.523438 Z M 317.488281 196.6875 L 309.15625 204.21875 C 306.839844 202.769531 294.71875 193.28125 293.800781 192.660156 C 288.886719 189.355469 284.027344 185.136719 280.65625 180.421875 C 284.15625 177.320313 287.757813 173.121094 288.957031 168.519531 C 292.3125 178.304688 306.414063 185.277344 317.488281 196.6875 Z M 301.539063 151.960938 C 311.886719 150.511719 316.46875 156.777344 313.023438 166.460938 C 311.105469 171.859375 307.554688 176.660156 303.355469 181.121094 C 294.613281 174.90625 292.246094 169.722656 289.898438 163.777344 C 288.511719 160.265625 295.167969 152.855469 301.539063 151.960938 Z M 331.472656 159.023438 C 333.070313 164.582031 330.726563 169.210938 326.683594 174.683594 C 322.78125 179.964844 317.933594 184.667969 313.457031 189.421875 C 310.558594 187.304688 307.855469 185.121094 304.855469 182.621094 C 311.207031 179.730469 323.207031 160.152344 314.25 151.921875 C 313.234375 150.992188 312.058594 150.21875 312.058594 150.21875 C 315.957031 148.519531 318.855469 144.621094 322.855469 143.019531 C 322.855469 143.019531 329.140625 150.914063 331.472656 159.023438 Z M 322.535156 139.128906 C 316.605469 145.351563 310 148.921875 302.957031 148.632813 C 293.898438 148.261719 289.992188 155.0625 288.65625 160.21875 C 286.15625 156.820313 283.558594 151.320313 279.957031 147.320313 C 286.152344 139.847656 296.257813 138.796875 304.761719 135.402344 C 325.0625 127.300781 316.769531 110.882813 313.855469 107.71875 L 320.257813 100.519531 C 333.429688 108.203125 332.839844 128.304688 322.535156 139.128906 Z M 323.078125 94.171875 C 322.144531 95.085938 301.140625 117.519531 301.140625 117.519531 C 297.84375 114.945313 291.457031 109.519531 291.457031 109.519531 C 293.371094 108.414063 306.078125 97.65625 313.5625 87.152344 C 321.988281 75.320313 318.554688 72.59375 309.15625 61.21875 C 314.65625 61.519531 320.355469 59.421875 324.257813 55.519531 C 336.988281 69.390625 337.171875 80.375 323.078125 94.171875 Z M 309.039063 89.769531 C 299.425781 88.6875 289.988281 85.671875 288.621094 79.421875 C 286.328125 68.972656 296.515625 63.671875 305.890625 61.953125 C 309.488281 62.851563 315.367188 72.109375 316.054688 74.324219 C 316.558594 75.949219 316.460938 78.285156 315.738281 79.9375 C 313.839844 83.4375 312.238281 86.769531 309.039063 89.769531 Z M 326.605469 15.65625 C 335.367188 35.46875 326.265625 57.277344 312.546875 58.699219 C 298.746094 60.128906 282.105469 66.335938 287.40625 81.121094 C 290.53125 89.839844 297.765625 88.714844 307.355469 91.820313 C 303.539063 95.453125 299.640625 99.953125 295.140625 102.253906 C 284.742188 101.921875 275.816406 87.179688 274.722656 83.6875 C 274.402344 82.671875 274.179688 81.613281 274.039063 80.539063 C 272.550781 69.117188 280.539063 59.40625 287.070313 55.820313 C 295.21875 51.339844 306.3125 47.992188 313.191406 41.785156 C 317.535156 37.871094 320.054688 28.324219 316.597656 23.179688 C 312.128906 16.523438 303.164063 15.265625 295.457031 19.820313 L 286.457031 12.621094 C 298.894531 0.417969 318.074219 -3.632813 326.605469 15.65625 Z M 312.523438 38.71875 C 311.191406 36.003906 299.515625 23.65625 297.257813 21.320313 C 297.257813 21.320313 305.59375 14.558594 314.855469 23.820313 C 317.457031 28.519531 316.871094 33.402344 313.472656 37.402344 Z M 239.035156 12.132813 C 246.222656 2.867188 260.757813 2.617188 273.128906 7.628906 C 292.351563 15.414063 307.421875 33.746094 311.65625 40.019531 C 308.257813 43.921875 303.558594 46.320313 299.058594 48.320313 C 292.855469 40.320313 283.15625 33.820313 275.257813 27.421875 C 274.457031 26.019531 271.023438 23.730469 270.238281 23.15625 C 259.417969 15.214844 246.304688 19.332031 242.882813 34.785156 C 241.15625 42.597656 236.847656 52.65625 233.558594 54.484375 C 230.855469 52.484375 225.390625 50.085938 222.691406 47.984375 C 226.277344 44.570313 230.355469 39.765625 230.355469 30.984375 C 232.949219 25.25 235.183594 17.101563 239.035156 12.132813 Z M 214.160156 6.347656 C 222.316406 3.3125 231.371094 3.304688 236.539063 11.320313 C 233.824219 17.402344 230.757813 23.019531 229.257813 29.621094 C 228.039063 27.019531 223.429688 21.980469 221.253906 20.878906 C 211.609375 16 202.558594 26.71875 202.558594 26.71875 C 201.773438 23.921875 200.511719 20.4375 199.863281 17.472656 C 199.027344 13.648438 209.234375 8.179688 214.160156 6.347656 Z M 155.949219 9.105469 C 163.542969 3.824219 184.921875 -0.527344 193.828125 9.6875 C 197.566406 13.976563 199.90625 20.042969 200.308594 28.800781 C 200.605469 35.269531 200.171875 44.085938 206.558594 47.621094 L 196.023438 52.421875 C 192.007813 50.324219 187.523438 47.15625 187.632813 43.21875 C 187.753906 38.824219 186.183594 27.433594 183.015625 22.234375 C 178.980469 15.613281 171.71875 13.5625 165.746094 16.71875 C 156.96875 21.355469 149.0625 38.558594 159.355469 46.121094 L 160.058594 46.519531 C 157.257813 49.304688 155.539063 51.253906 152.589844 53.871094 C 139.175781 43.328125 140.195313 20.066406 155.949219 9.105469 Z M 182.121094 26.9375 C 177.355469 33.421875 166.335938 40.949219 161.632813 44.679688 C 153.488281 42.996094 155.664063 27.566406 163.699219 20.222656 C 171.15625 13.410156 179.855469 18.816406 182.121094 26.9375 Z M 150.195313 92.589844 C 137.605469 78.101563 143.28125 67.882813 149.925781 60.148438 C 162.128906 45.941406 182.605469 30.710938 183.15625 29.921875 C 185.15625 34.121094 185.15625 38.621094 184.558594 42.921875 C 179.257813 47.519531 163.050781 63.164063 160.164063 66.785156 C 152.34375 76.605469 156.808594 80.652344 162.804688 88.007813 C 166.863281 92.988281 199.191406 127.785156 207.957031 134.71875 L 200.058594 141.921875 C 195.855469 134.6875 155.695313 98.921875 150.195313 92.589844 Z M 142.089844 121.859375 C 140.039063 112.050781 144.484375 103.984375 152.558594 98.019531 L 163.023438 107.886719 C 155.382813 110.664063 149.738281 121.449219 154.246094 128 C 158.679688 134.4375 166.773438 135.71875 173.867188 136.164063 C 179.882813 136.539063 185.765625 137.203125 189.957031 142.21875 L 193.558594 147.621094 C 190.757813 151.820313 187.957031 155.921875 186.355469 160.621094 C 185.355469 156.320313 183.257813 151.820313 178.855469 149.421875 C 173.40625 146.953125 166.136719 146.078125 164.421875 145.582031 C 149.144531 141.148438 143.980469 130.910156 142.089844 121.859375 Z M 184.390625 165.636719 C 184.195313 166.632813 169.855469 179.71875 169.855469 179.71875 C 168.6875 176.824219 166.039063 174.691406 163.871094 172.261719 C 155.6875 163.089844 160.21875 156.316406 164.921875 151.1875 C 167.421875 148.464844 175.21875 148.707031 180.171875 153.839844 C 183.199219 156.980469 185.265625 161.199219 184.390625 165.636719 Z M 142.632813 167.78125 C 138.753906 158.050781 142.5 149.746094 151.058594 142.21875 C 151.058594 142.21875 156.40625 145.792969 158.113281 146.105469 C 160.1875 146.488281 163.273438 147.511719 164.757813 148.71875 C 160.386719 152.300781 155.382813 158.816406 156.457031 163.519531 C 157.65625 171.019531 165.15625 176.121094 168.058594 182.621094 L 160.058594 190.121094 C 152.464844 185.132813 146.171875 176.652344 142.632813 167.78125 Z M 184.957031 168.519531 C 185.65625 171.71875 187.65625 174.921875 189.65625 177.921875 C 180.457031 185.519531 167.941406 200.921875 164.539063 202.351563 C 161.941406 200.953125 159.65625 197.820313 157.558594 195.921875 C 167.15625 186.921875 176.058594 179.621094 184.957031 168.519531 Z M 139.890625 186.441406 C 148.460938 192.132813 159.21875 202.382813 168.058594 209.621094 L 159.757813 217.121094 C 156.355469 214.21875 139.683594 196.941406 134.816406 194.746094 C 116.273438 186.386719 108.65625 201.621094 108.65625 201.621094 C 106.855469 197.820313 104.757813 193.921875 103.558594 190.121094 C 115.628906 181.117188 125.796875 177.078125 139.890625 186.441406 Z M 145.355469 206.71875 C 138.976563 212.300781 129.742188 221.472656 124.046875 220.429688 C 116.96875 219.132813 112.746094 211.242188 110.058594 204.21875 C 113.324219 195.726563 123.644531 192.753906 132.996094 197.71875 C 137.199219 199.953125 141.144531 203.042969 145.355469 206.71875 Z M 89.15625 176.421875 C 95.054688 179.019531 98.355469 185.421875 101.457031 190.121094 C 103.363281 195.320313 105.402344 200.234375 107.914063 204.945313 C 113.339844 215.125 115.046875 220.179688 123.671875 222.058594 C 131.699219 223.804688 146.757813 208.121094 146.757813 208.121094 C 148.757813 210.519531 151.457031 212.121094 153.65625 214.621094 C 139.863281 232.484375 127.503906 233.855469 111.972656 231.539063 C 99.441406 229.671875 98.015625 223.195313 96.542969 211.542969 C 96.289063 209.535156 96.082031 207.523438 95.78125 205.539063 C 93.527344 190.636719 88.390625 187.886719 79.136719 190.675781 C 73.429688 192.398438 70.417969 197.847656 65.824219 200.601563 C 64.734375 196.070313 62.421875 192.273438 60.757813 189.019531 C 68.355469 182.019531 78.15625 175.921875 89.15625 176.421875 Z M 15.371094 186.316406 C 30.394531 173.730469 48.757813 177.566406 56.53125 186.394531 C 59.925781 190.253906 62.339844 194.617188 63.925781 199.480469 C 65.28125 203.632813 65.894531 208.242188 67.488281 212.222656 C 68.675781 215.195313 69.886719 217.960938 72.65625 220.019531 C 67.023438 221.734375 62.554688 225.070313 59.554688 227.96875 C 58.6875 227.175781 57.660156 226.328125 56.917969 225.304688 C 56.570313 223.246094 51.582031 203.902344 49.972656 200.296875 C 45.210938 189.617188 35.25 189.292969 27.628906 191.328125 C 11.902344 195.539063 16.261719 215.917969 27.691406 219.535156 C 24.621094 222.503906 20.523438 225.851563 17.824219 229.152344 C -2.632813 220.773438 6.09375 194.089844 15.371094 186.316406 Z M 46.957031 200.351563 C 46.957031 200.351563 35.074219 212.335938 29.171875 217.734375 C 19.296875 212.925781 18.449219 204.398438 20.761719 198.921875 C 22.957031 193.730469 30.585938 191.914063 37.121094 192.742188 C 41.3125 193.269531 45.253906 195.257813 46.957031 200.351563 Z M 11.914063 261.460938 C 6.671875 253.277344 8.039063 245.238281 12.773438 238.75 C 13.703125 237.476563 36.523438 212.351563 47.722656 202.453125 C 50.222656 206.1875 50.921875 210.054688 51.757813 213.921875 C 48.222656 217.121094 33.878906 229.320313 29.480469 234.0625 C 17.378906 247.105469 18.980469 250.636719 28.71875 262.746094 C 36.855469 272.855469 39.089844 275.25 48.457031 280.820313 L 38.457031 290.621094 C 28.457031 283.035156 13.710938 264.269531 11.914063 261.460938 Z M 3.320313 293.367188 C 4.460938 284.589844 13.007813 274.992188 18.824219 274.285156 C 20.824219 276.386719 22.824219 278.585938 24.523438 280.484375 C 19.398438 281.882813 15.992188 289.953125 15.167969 295.640625 C 14.417969 300.820313 18.136719 310.269531 24.300781 308.847656 C 25.976563 308.457031 49.941406 310.9375 56.457031 317.21875 L 57.457031 318.320313 C 55.789063 320.675781 53.445313 323.199219 51.527344 325.9375 C 46.941406 332.484375 46.449219 345.792969 51.355469 352.519531 C 50.15625 355.820313 41.707031 361.484375 41.707031 361.484375 C 38.40625 358.886719 34.554688 354.71875 32.257813 351.820313 C 36.90625 349.40625 41.015625 346.484375 43.476563 342.398438 C 46.496094 337.398438 46.503906 326.699219 44.054688 324.367188 C 39.320313 319.855469 18.398438 314.453125 13.277344 312.753906 C 2.789063 309.265625 3.011719 295.738281 3.320313 293.367188 Z M 30.671875 349.535156 C 25.867188 345.902344 19.949219 339.464844 22.558594 333.480469 C 25.167969 327.5 28.046875 324.214844 32.65625 321.21875 C 34.917969 321.34375 44.722656 324.121094 44.019531 331.644531 C 42.804688 344.589844 35.59375 346.527344 30.671875 349.535156 Z M 6.453125 342.722656 C 1.753906 334.273438 9.941406 319.847656 13.773438 316.617188 C 14.90625 315.664063 16.25 315.628906 17.683594 315.972656 C 20.074219 316.542969 29.839844 320.085938 29.839844 320.085938 C 26.730469 323.328125 22.535156 327.546875 20.480469 332.3125 C 18.949219 335.867188 18.6875 339.59375 22.34375 344.160156 C 36.578125 361.9375 47.054688 368.320313 47.054688 368.320313 C 46.554688 372.820313 44.855469 378.121094 44.554688 382.71875 C 44.554688 382.71875 11.90625 352.523438 6.453125 342.722656 Z M 44.382813 386.972656 C 44.480469 390.730469 38.761719 395.457031 32.65625 395.320313 C 29.09375 395.257813 25.6875 393.984375 22.976563 391.816406 C 13.957031 384.613281 16.945313 373.554688 27.621094 369.785156 C 28.746094 371.191406 33.21875 375.046875 36.226563 377.953125 C 38.921875 380.554688 44.285156 383.148438 44.382813 386.972656 Z M 54.507813 398.171875 C 42.933594 411.675781 26.707031 413.074219 15.167969 403.191406 C 1.285156 391.300781 -5.121094 363.792969 15.054688 356.421875 C 18.65625 360.519531 23.273438 364.585938 26.488281 368.386719 C 13.925781 372.664063 13.046875 386.089844 20.941406 393.316406 C 28.046875 399.820313 39.183594 398.003906 44.097656 392.375 C 45.964844 390.238281 46.503906 387.609375 46.828125 384.890625 C 47.089844 382.722656 47.746094 372.5625 49.128906 369.929688 C 49.484375 369.253906 49.867188 368.609375 50.257813 368.019531 C 50.457031 363.621094 53.855469 360.519531 55.65625 356.820313 C 58.257813 357.320313 60.457031 355.019531 62.855469 354.320313 C 71.757813 352.621094 81.257813 349.621094 89.15625 355.421875 C 90.855469 356.71875 93.757813 357.121094 96.054688 357.921875 C 98.054688 359.71875 100.355469 360.71875 99.257813 363.621094 C 95.957031 368.121094 94.957031 374.019531 92.457031 378.421875 C 91.597656 370.6875 80.960938 358.375 69.5625 363.683594 C 62.238281 367.09375 64.136719 377.082031 59.65625 388.820313 C 58.382813 392.230469 56.972656 395.296875 54.507813 398.171875 Z M 71.34375 392.867188 C 67.886719 391.21875 65.457031 388.195313 63.105469 385.085938 C 64.347656 379.945313 65.140625 371.058594 68.714844 366.894531 C 72.453125 362.546875 84.265625 362.332031 90.65625 377.71875 C 92.449219 383.945313 83.441406 398.644531 71.34375 392.867188 Z M 95.132813 399.476563 C 85.558594 409.542969 64.253906 408.542969 57.15625 398.21875 C 58.257813 395.421875 61.355469 391.820313 62.15625 388.121094 C 66.660156 391.640625 74.898438 401.015625 83.707031 394.835938 C 92.082031 388.960938 98.222656 373.011719 100.699219 366.132813 C 101.523438 363.84375 102.59375 361.578125 104.121094 359.753906 C 108.171875 361.652344 112.824219 364.320313 117.957031 365.421875 C 112.789063 368.148438 105.914063 371.542969 105.386719 377.546875 C 105.371094 377.699219 105.363281 377.859375 105.355469 378.019531 C 103.675781 387.175781 98.796875 395.628906 95.132813 399.476563 Z M 116.855469 408.621094 C 107.359375 407.582031 101.539063 401.0625 100.222656 395.804688 C 101.738281 393.285156 103.65625 389.21875 105.058594 386.71875 C 107.519531 393.160156 110.074219 396.035156 118.199219 395.640625 C 127.296875 395.203125 134.703125 388.851563 141.058594 382.421875 C 143.457031 383.921875 146.257813 386.320313 148.558594 388.820313 C 140.257813 397.71875 129.957031 407.820313 116.855469 408.621094 Z M 126.257813 365.421875 C 129.757813 363.621094 134.15625 364.421875 137.058594 361.121094 C 139.957031 362.019531 159.957031 381.320313 165.15625 388.121094 C 162.257813 390.71875 160.289063 392.335938 157.191406 394.46875 C 155.691406 392.269531 133.257813 369.019531 126.257813 365.421875 Z M 145.191406 438.21875 C 135.523438 428.382813 135.046875 419.792969 146.035156 408.546875 C 152.441406 401.984375 173.539063 383.804688 173.539063 383.804688 L 180.023438 391.171875 C 174.824219 395.070313 159.765625 408.445313 156.648438 411.328125 C 153.003906 414.695313 149.878906 418.496094 150.714844 423.398438 C 152.757813 435.378906 181.269531 454.867188 181.269531 454.867188 C 179.140625 456.949219 172.433594 463.882813 171.484375 464.828125 C 171.488281 464.824219 171.488281 464.824219 171.488281 464.820313 C 162.789063 454.921875 153.890625 446.421875 145.191406 438.21875 Z M 136.863281 477.929688 C 130.441406 465.097656 134.113281 449.195313 147.207031 442.886719 C 150.121094 445.054688 152.871094 448.335938 155.789063 451.453125 C 153.289063 452.453125 150.355469 454.519531 149.257813 457.621094 C 147.058594 463.21875 148.355469 470.019531 152.855469 474.21875 C 163.257813 483.820313 176.257813 483.820313 187.058594 492.519531 C 187.65625 493.417969 179.855469 503.320313 179.855469 503.320313 C 174.890625 496.695313 167.90625 493.890625 160.878906 491.441406 C 154.597656 489.253906 141.605469 487.394531 136.863281 477.929688 Z M 178.773438 506.652344 C 178.1875 510.175781 176.550781 514.636719 173.976563 517.234375 C 170.851563 520.390625 164.082031 521.488281 158.855469 520.554688 C 157.28125 520.273438 155.832031 519.46875 154.65625 517.71875 C 148.085938 510.925781 156.351563 501.722656 164.757813 496.121094 C 170.15625 498.019531 176.371094 501.152344 178.773438 506.652344 Z M 142.332031 522.898438 C 136.753906 520.515625 134.273438 515.484375 134.582031 509.972656 C 135.082031 501.027344 147.15625 489.621094 147.15625 489.621094 C 152.058594 492.21875 157.558594 493.621094 162.957031 495.019531 C 157.621094 499.199219 151.667969 503.753906 150.558594 509.054688 C 149.679688 513.261719 149.644531 516.078125 155.757813 521.320313 C 151.855469 521.621094 148.421875 523.550781 145.105469 525.085938 C 144.273438 524.054688 143.453125 523.375 142.332031 522.898438 Z M 141.222656 571.535156 C 127.636719 558.914063 128.65625 543.765625 139.984375 531.914063 C 145.496094 526.152344 149.960938 523.746094 159.210938 523.21875 C 164.238281 522.933594 173.003906 522.742188 176.65625 517.71875 C 176.757813 521.019531 179.757813 523.621094 181.65625 526.417969 C 178.414063 530.125 170.917969 531.164063 167.789063 531.261719 C 151.847656 531.761719 141.351563 546.527344 147.085938 558.613281 C 152.789063 570.636719 170.140625 567.1875 174.171875 559.570313 L 184.074219 568.902344 C 182.40625 576.003906 159.304688 588.328125 141.222656 571.535156 Z M 152.855469 539.320313 C 159.15625 545.820313 166.105469 552.871094 172.808594 558.667969 C 170.066406 564.519531 160.308594 566.238281 154.113281 563.65625 C 147.945313 561.085938 145.214844 550.960938 150.621094 542.070313 Z M 227.023438 572.746094 C 219.902344 581.273438 207.984375 585.21875 189.039063 570.074219 C 185.324219 567.109375 181.664063 564.121094 178.238281 560.769531 C 175.335938 557.921875 159.023438 542.6875 154.621094 537.6875 C 157.867188 534.863281 163.378906 533.253906 165.777344 533.632813 C 166.539063 533.753906 167.078125 534.363281 167.570313 535.089844 C 169.679688 538.207031 193.046875 563.519531 199.609375 566.828125 C 206.898438 570.503906 210.273438 569.410156 216.210938 560.582031 C 216.855469 559.625 228.855469 541.121094 233.15625 532.519531 L 243.488281 537.550781 C 243.488281 537.550781 236.671875 550.628906 234.914063 556.417969 C 233.328125 561.65625 230.019531 569.160156 227.023438 572.746094 Z M 273.777344 569.933594 C 258.640625 580.09375 238.371094 578.25 230.972656 570.851563 C 233.574219 566.71875 234.324219 562.136719 236.457031 557.71875 C 244.242188 572.105469 261.894531 564.234375 273.128906 555.640625 C 279.863281 550.488281 285.859375 543.363281 291.171875 537.1875 C 296.371094 538.886719 304.058594 535.917969 308.457031 541.121094 C 303.308594 543.519531 278.882813 566.507813 273.777344 569.933594 Z M 282.941406 533.902344 L 288.988281 536.550781 L 283.855469 541.917969 Z M 309.15625 543.621094 C 312.941406 544.902344 311.421875 558.4375 305.824219 563.734375 C 299.203125 570.722656 287.664063 565.042969 285.757813 563.417969 C 293.15625 557.320313 300.058594 547.820313 309.15625 543.621094 Z M 325.390625 556.890625 C 318.324219 588.363281 289.347656 582.71875 277.855469 569.621094 C 278.605469 568.753906 282.507813 565.402344 283.941406 564.621094 C 294.59375 571.363281 308.597656 573.160156 312.898438 552.472656 C 315.328125 540.785156 308.429688 535.554688 296.121094 535.371094 C 286.835938 535.238281 279.894531 529.832031 274.421875 524.503906 C 261.757813 512.15625 268.023438 485.570313 291.15625 481.019531 C 294.257813 483.621094 296.65625 487.519531 299.058594 490.417969 C 296.65625 491.925781 293.96875 492.789063 291.34375 493.8125 C 285.195313 496.214844 280.5 499.695313 279.988281 506.472656 C 279.015625 519.339844 291.957031 522.136719 307.046875 524.175781 C 324.117188 526.480469 328.257813 544.128906 325.390625 556.890625 Z M 300.089844 492.050781 C 303.457031 496.71875 313.558594 504.71875 309.15625 515.917969 C 308.058594 518.121094 306.757813 520.519531 304.855469 522.019531 C 300.90625 521.019531 296.433594 520.519531 292.292969 519.167969 C 283.160156 516.191406 281.078125 512.183594 282.445313 505.132813 C 282.761719 503.5 283.347656 501.960938 284.65625 500.417969 C 288.457031 494.820313 295.390625 495.753906 300.089844 492.050781 Z M 318.707031 526.785156 C 315.222656 524.003906 311.058594 523.320313 307.355469 522.417969 C 315.910156 512.441406 311.644531 503.527344 304.40625 494.257813 C 297.914063 485.941406 289.355469 476.71875 289.355469 476.71875 L 298.257813 468.851563 C 298.257813 468.851563 307.050781 479.265625 314.867188 489.640625 C 324.347656 502.226563 331.503906 513.335938 318.707031 526.785156 Z M 323.839844 450.394531 C 334.363281 469.34375 314.40625 484.800781 314.40625 484.800781 C 312.007813 482.304688 309.808594 478.402344 307.355469 475.621094 C 314.058594 467.054688 313.792969 457.566406 306.761719 453.828125 C 303.019531 451.835938 298.683594 450.910156 295.023438 449.683594 C 289.539063 447.851563 278.859375 445.398438 276.355469 438.21875 C 280.855469 433.019531 283.457031 427.121094 285.355469 420.921875 C 286.796875 434.113281 289.164063 435.144531 303.578125 436.566406 C 313.117188 437.808594 320.367188 444.140625 323.839844 450.394531 Z M 325.65625 431.320313 C 323.855469 434.421875 322.15625 437.921875 319.558594 440.320313 C 316.257813 437.121094 310.757813 434.921875 305.855469 434.921875 C 310.304688 429.824219 317.671875 424.640625 315.308594 416.988281 C 314.070313 412.972656 308.941406 406.640625 303.058594 400.421875 L 310.558594 392.820313 C 318.757813 404.820313 334.457031 415.019531 325.65625 431.320313 Z M 320.148438 395.355469 C 317.859375 393.175781 301.9375 375.945313 299.757813 372.621094 L 305.15625 367.621094 C 309.273438 372.085938 329.121094 392.667969 335.632813 395.191406 C 342.515625 397.863281 350.800781 395.988281 356.65625 378.421875 C 357.089844 385.6875 357.855469 392.421875 361.65625 398.621094 C 353.921875 407.324219 342.359375 416.507813 320.148438 395.355469 Z M 402.332031 403.386719 C 394.734375 407.339844 385.824219 409.550781 377.007813 406.785156 C 351.859375 397.621094 360.523438 364.273438 353.058594 362.621094 C 354.273438 361.351563 360.328125 358.507813 361.679688 357.503906 C 364.378906 358.121094 366.828125 364.617188 367.609375 366.355469 C 369.578125 370.71875 371.464844 376.609375 373.214844 381.328125 C 379.257813 397.640625 391.777344 398.804688 403.707031 386.320313 C 404.996094 389.984375 407.730469 393.679688 408.234375 396.566406 C 408.6875 399.132813 404.265625 402.378906 402.332031 403.386719 Z M 374.65625 379.121094 C 379.863281 369.042969 388.753906 366.535156 394.085938 369.726563 C 399.226563 372.804688 402.472656 379.082031 403.058594 384.519531 C 388.503906 399.652344 376.917969 391.363281 374.65625 379.121094 Z M 447.722656 402.460938 C 434.410156 412 418.347656 407.871094 411.515625 398.070313 C 405.535156 389.492188 405.199219 377.074219 396.957031 369.421875 C 393.355469 366.519531 389.257813 365.820313 384.757813 367.21875 C 379.65625 368.921875 376.855469 373.921875 373.957031 377.71875 C 371.65625 373.019531 369.855469 366.921875 367.058594 361.820313 C 369.714844 360.351563 372.203125 358.800781 374.824219 357.628906 C 380.039063 355.296875 405.292969 349.136719 414.054688 366.210938 C 416.535156 371.039063 418.53125 377.21875 420.019531 381.53125 C 423.179688 390.6875 430.03125 394.929688 437.296875 392.820313 C 451.203125 388.785156 451.320313 374.382813 443.457031 366.519531 C 445.257813 364.121094 447.605469 361.6875 449.808594 360.085938 C 466.421875 367.019531 466.847656 388.753906 447.722656 402.460938 "/>
</g>
</svg>
