<?xml version="1.0" encoding="UTF-8"?>
<svg xmlns="http://www.w3.org/2000/svg" xmlns:xlink="http://www.w3.org/1999/xlink" width="430pt" height="407pt" viewBox="0 0 430 407" version="1.1">
<g id="surface1">
<path style=" stroke:none;fill-rule:nonzero;fill:rgb(0%,0%,0%);fill-opacity:1;" d="M 428.871094 19.746094 C 428.628906 3.003906 427.144531 4.628906 415.394531 15.601563 C 385.53125 43.488281 305.054688 120.785156 305.054688 120.785156 L 300.976563 116.945313 C 300.976563 116.945313 383.457031 40.660156 412.335938 12.304688 C 425.648438 -0.765625 424.976563 0.964844 406.332031 0.726563 C 328.570313 -0.253906 39.246094 0.335938 20.898438 0.496094 C 4.101563 0.648438 5.648438 1.1875 16.082031 11.367188 C 46.617188 41.160156 136.816406 124.144531 136.816406 124.144531 L 132.125 129.253906 C 132.125 129.253906 34.6875 36.144531 8.050781 10.925781 C 0.226563 3.523438 0.511719 4.359375 0.359375 15.496094 C -0.144531 51.539063 -0.359375 319.558594 0.628906 387.253906 C 0.875 403.996094 2.355469 402.371094 14.105469 391.398438 C 43.96875 363.511719 124.445313 286.214844 124.445313 286.214844 L 128.523438 290.054688 C 128.523438 290.054688 46.042969 366.339844 17.164063 394.695313 C 3.851563 407.765625 4.523438 406.035156 23.167969 406.273438 C 100.929688 407.253906 390.253906 406.664063 408.601563 406.5 C 425.398438 406.351563 423.851563 405.8125 413.417969 395.632813 C 382.882813 365.839844 292.683594 282.855469 292.683594 282.855469 L 297.375 277.746094 C 297.375 277.746094 394.8125 370.855469 421.449219 396.074219 C 429.273438 403.476563 428.988281 402.640625 429.140625 391.503906 C 429.644531 355.460938 429.859375 87.441406 428.871094 19.746094 Z M 321.375 148.386719 L 310.335938 165.90625 L 282.257813 135.90625 L 297.375 121.746094 Z M 277.851563 246.925781 C 275.726563 249.996094 267.003906 258.132813 267.003906 258.132813 L 253.804688 245.175781 C 253.804688 245.175781 258.953125 238.394531 260.4375 236.15625 C 266.558594 226.921875 274.613281 216.480469 273.789063 206.464844 C 273.484375 202.746094 273.136719 196.445313 273.136719 196.445313 L 287.777344 181.984375 C 287.777344 181.984375 288.585938 184.648438 289.542969 188.71875 C 295.660156 214.71875 289.824219 229.632813 277.851563 246.925781 Z M 278.640625 260.058594 L 272.765625 264.613281 L 269.882813 261.253906 L 275.078125 257.015625 Z M 144.125 259.335938 L 132.363281 245.414063 L 173.523438 203.714844 L 186.304688 218.59375 Z M 154.925781 263.414063 L 150.605469 266.535156 L 147.964844 262.695313 L 152.042969 257.414063 Z M 93.605469 205.933594 L 83.285156 192.492188 L 119.164063 154.574219 L 131.164063 165.972656 Z M 134.765625 169.8125 L 137.644531 172.214844 L 133.5625 182.773438 L 129.242188 176.054688 Z M 102.964844 207.375 C 100.3125 213.554688 97.5625 207.015625 97.5625 207.015625 L 102.242188 202.335938 C 102.242188 202.335938 104.042969 204.855469 102.964844 207.375 Z M 61.5625 208.933594 C 51.242188 189.492188 45.722656 159.972656 46.203125 142.453125 C 46.683594 124.933594 41.164063 91.8125 61.5625 111.253906 C 81.964844 130.695313 108.125 157.09375 108.125 157.09375 L 96.363281 169.273438 C 96.363281 169.273438 85.085938 155.652344 78.84375 148.453125 C 72.605469 141.253906 63.722656 141.015625 64.203125 151.574219 C 64.683594 162.132813 67.085938 178.933594 77.644531 194.054688 C 88.203125 209.175781 96.484375 217.574219 96.484375 217.574219 C 96.484375 217.574219 94.085938 225.492188 92.402344 227.894531 C 90.722656 230.292969 87.242188 235.8125 87.242188 235.8125 C 87.242188 235.8125 71.882813 228.375 61.5625 208.933594 Z M 83.765625 241.574219 C 83.765625 241.574219 80.523438 248.773438 75.964844 253.8125 C 71.402344 258.855469 67.5625 260.292969 69.003906 254.535156 C 70.445313 248.773438 76.921875 236.292969 76.921875 236.292969 Z M 91.503906 173.535156 L 79.324219 186.613281 C 79.324219 186.613281 71.164063 169.09375 69.722656 161.414063 C 68.285156 153.734375 69.964844 147.015625 74.285156 152.535156 C 78.605469 158.054688 91.503906 173.535156 91.503906 173.535156 Z M 111.242188 153.972656 C 111.242188 153.972656 67.804688 110.292969 57.484375 100.933594 C 47.164063 91.574219 41.402344 92.292969 41.164063 117.253906 C 40.917969 142.761719 40.820313 171.058594 49.324219 197.414063 C 54.125 212.292969 56.765625 214.453125 56.765625 214.453125 C 56.765625 214.453125 47.882813 227.894531 45.003906 235.8125 C 42.125 243.734375 40.683594 277.8125 40.683594 299.894531 C 40.683594 321.972656 49.804688 314.535156 54.363281 309.492188 C 58.921875 304.453125 104.285156 263.894531 104.285156 263.894531 L 107.164063 268.214844 C 107.164063 268.214844 63.484375 305.65625 48.84375 319.816406 C 38.832031 329.496094 36.789063 321.558594 36.5 311.65625 C 36.363281 307.082031 36.601563 104.054688 36.601563 89.894531 C 36.601563 75.734375 43.5625 81.015625 51.242188 88.933594 C 58.921875 96.855469 116.042969 149.652344 116.042969 149.652344 Z M 104.765625 255.253906 C 96.308594 264.992188 68.523438 291.496094 61.324219 297.972656 C 54.125 304.453125 46.921875 317.175781 46.921875 296.292969 C 46.921875 275.414063 44.285156 249.015625 48.84375 239.414063 C 53.402344 229.8125 60.601563 218.773438 60.601563 218.773438 L 72.125 230.773438 C 72.125 230.773438 66.125 245.652344 63.722656 255.972656 C 61.324219 266.292969 65.644531 272.292969 76.683594 261.015625 C 87.722656 249.734375 105.652344 214.121094 107.191406 208.933594 C 108.835938 203.402344 108.0625 197.835938 108.0625 197.835938 L 123.484375 181.09375 C 123.484375 181.09375 131.523438 188.894531 129.125 202.8125 C 126.722656 216.734375 114.242188 244.335938 104.765625 255.253906 Z M 127.085938 225.492188 C 128.523438 221.414063 131.402344 212.773438 131.402344 212.773438 C 131.882813 216.132813 135.242188 229.335938 135.242188 229.335938 L 127.804688 239.414063 L 123.242188 234.613281 C 123.242188 234.613281 125.644531 229.574219 127.085938 225.492188 Z M 285.375 147.664063 L 297.136719 161.585938 L 257.054688 202.386719 L 244.097656 190.566406 Z M 274.574219 143.585938 L 278.535156 139.925781 L 281.535156 144.304688 L 277.816406 148.6875 Z M 301.695313 167.585938 L 306.257813 172.386719 C 306.257813 172.386719 303.855469 177.425781 302.414063 181.507813 C 300.976563 185.585938 298.097656 194.226563 298.097656 194.226563 C 297.617188 190.867188 294.074219 175.6875 294.074219 175.6875 Z M 201.964844 254.292969 L 183.484375 247.8125 L 226.058594 208.488281 L 238.058594 220.503906 Z M 215.644531 248.773438 L 221.164063 255.375 C 221.164063 255.375 215.644531 255.972656 212.765625 255.972656 C 209.882813 255.972656 207.964844 254.535156 207.964844 254.535156 Z M 167.644531 187.09375 L 174.605469 173.652344 L 212.042969 212.054688 L 200.042969 224.054688 Z M 170.285156 198.855469 L 165.242188 202.933594 C 165.242188 202.933594 163.324219 200.054688 163.804688 196.453125 C 164.285156 192.855469 165.125 192.375 165.125 192.375 Z M 176.894531 61.746094 C 164.175781 58.625 156.976563 62.945313 156.496094 67.503906 C 156.015625 72.066406 167.054688 80.226563 175.695313 87.1875 C 184.335938 94.144531 210.734375 102.066406 221.296875 101.824219 C 231.855469 101.585938 238.816406 96.785156 238.816406 96.785156 L 251.535156 110.226563 C 251.535156 110.226563 217.457031 119.824219 205.457031 118.625 C 193.457031 117.425781 168.496094 103.023438 160.335938 98.226563 C 152.175781 93.425781 124.574219 63.90625 110.894531 51.425781 C 97.214844 38.945313 114.015625 38.945313 126.496094 37.984375 C 138.976563 37.023438 162.976563 37.746094 175.9375 39.425781 C 188.894531 41.105469 222.257813 56.464844 222.257813 56.464844 L 199.695313 70.867188 C 199.695313 70.867188 189.617188 64.867188 176.894531 61.746094 Z M 194.414063 73.503906 L 182.65625 84.066406 C 182.65625 84.066406 175.9375 81.664063 170.894531 76.867188 C 165.855469 72.066406 162.257813 66.066406 170.65625 67.746094 C 179.054688 69.425781 194.414063 73.503906 194.414063 73.503906 Z M 218.894531 96.304688 L 229.214844 88.625 L 234.976563 93.664063 C 234.976563 93.664063 230.65625 97.503906 226.097656 97.984375 C 221.535156 98.464844 218.894531 96.304688 218.894531 96.304688 Z M 200.65625 122.945313 C 200.65625 122.945313 189.820313 126.367188 185.117188 129.246094 C 184.503906 129.621094 180.257813 126.066406 180.257813 126.066406 L 187.695313 118.625 Z M 211.457031 161.285156 L 197.355469 173.644531 L 161.535156 140.707031 L 176.175781 127.503906 Z M 208.03125 195.992188 L 194.503906 183.796875 L 232.214844 152.527344 L 248.355469 160.804688 Z M 250.574219 163.085938 L 256.335938 169.625 L 240.015625 183.90625 L 234.257813 178.625 Z M 215.554688 197.113281 L 224.195313 206.835938 L 220.234375 210.074219 L 212.222656 200.714844 Z M 213.855469 158.226563 L 209.054688 153.425781 C 209.054688 153.425781 213.855469 151.027344 216.734375 151.027344 C 219.617188 151.027344 221.535156 152.464844 221.535156 152.464844 Z M 181.996094 165.125 L 194.117188 175.566406 L 190.246094 180.15625 L 178.160156 169.144531 Z M 195.242188 228.375 L 179.285156 244.453125 L 172.445313 238.453125 L 189.484375 223.09375 Z M 242.402344 226.125 L 252.691406 236.058594 L 248.042969 241.335938 L 237.722656 230.535156 Z M 217.457031 194.945313 L 230.175781 182.765625 L 264.734375 218.285156 L 254.894531 233.347656 Z M 259.214844 208.144531 L 267.496094 200.644531 C 267.496094 200.644531 269.054688 205.6875 268.574219 209.285156 C 268.148438 212.503906 265.277344 213.367188 265.277344 213.367188 Z M 259.097656 167.105469 C 259.097656 167.105469 257.472656 164.976563 255.855469 163.003906 C 249.320313 155.039063 240.351563 149.195313 231.488281 147.058594 C 219.089844 144.070313 202.515625 147.125 202.515625 147.125 L 188.355469 133.984375 C 188.355469 133.984375 205.753906 123.066406 235.089844 129.402344 C 249.050781 132.417969 262.863281 139.035156 271.199219 150.25 C 272.710938 153.082031 273.496094 153.1875 273.496094 153.1875 Z M 233.21875 123.039063 C 233.21875 123.039063 238.816406 120.304688 243.375 119.105469 C 247.9375 117.90625 256.097656 115.265625 256.097656 115.265625 L 261.617188 119.585938 L 252.257813 127.867188 Z M 233.777344 84.785156 L 252.734375 72.785156 L 281.296875 103.023438 L 266.175781 115.984375 Z M 258.015625 69.90625 C 258.015625 69.90625 266.414063 65.34375 271.9375 63.664063 C 277.457031 61.984375 283.457031 64.144531 278.65625 67.023438 C 273.855469 69.90625 266.175781 77.105469 266.175781 77.105469 Z M 278.65625 91.265625 L 269.296875 81.1875 C 269.296875 81.1875 277.695313 73.023438 282.496094 68.945313 C 287.296875 64.867188 290.175781 56.226563 274.335938 58.867188 C 258.496094 61.503906 237.617188 75.664063 229.9375 81.425781 C 222.257813 87.1875 213.617188 95.347656 213.617188 95.347656 C 213.617188 95.347656 207.375 96.066406 202.335938 93.90625 C 197.296875 91.746094 189.375 86.945313 189.375 86.945313 C 189.375 86.945313 226.097656 58.625 236.894531 53.824219 C 247.695313 49.023438 279.59375 38.707031 301.214844 38.703125 C 329.675781 38.703125 334.035156 40.304688 323.054688 52.625 C 313.214844 63.664063 278.65625 91.265625 278.65625 91.265625 Z M 328.097656 53.824219 C 340.097656 39.425781 342.015625 35.585938 325.457031 34.386719 C 291.792969 31.945313 260.71875 39.308594 243.621094 45.4375 C 236.664063 47.933594 229.214844 52.625 229.214844 52.625 C 229.214844 52.625 228.015625 50.226563 214.335938 45.1875 C 200.65625 40.144531 177.375 32.703125 156.496094 32.945313 C 135.617188 33.1875 119.296875 32.945313 111.375 34.386719 C 103.457031 35.824219 89.054688 37.984375 104.175781 53.347656 C 119.296875 68.703125 158.175781 103.265625 158.175781 103.265625 L 154.097656 107.105469 C 154.097656 107.105469 102.015625 58.144531 92.175781 47.824219 C 82.335938 37.503906 83.054688 30.546875 96.976563 29.34375 C 110.894531 28.144531 261.136719 26.703125 261.136719 26.703125 C 261.136719 26.703125 311.535156 26.703125 331.457031 27.1875 C 351.375 27.664063 360.257813 30.546875 349.9375 39.425781 C 339.617188 48.304688 284.894531 99.90625 284.894531 99.90625 L 282.015625 94.625 C 282.015625 94.625 322.558594 60.472656 328.097656 53.824219 Z M 164.234375 106.6875 C 164.234375 106.6875 170.234375 111.246094 173.597656 112.6875 C 176.957031 114.125 181.277344 117.003906 181.277344 117.003906 C 181.277344 117.003906 149.429688 143.246094 148.9375 143.894531 C 144.449219 139.933594 141.6875 137.628906 137.03125 132.878906 C 137.585938 132.367188 164.234375 106.6875 164.234375 106.6875 Z M 157.097656 143.644531 L 159.617188 145.746094 L 154.152344 149.804688 L 152.207031 147.304688 Z M 162.496094 148.867188 L 175.695313 161.824219 C 175.695313 161.824219 175.066406 162.753906 174.027344 164.332031 L 173.496094 164.738281 C 166.097656 174.019531 157.027344 189.894531 158.050781 202.335938 C 158.355469 206.054688 159.242188 207.855469 159.242188 207.855469 L 141.722656 225.015625 C 141.722656 225.015625 140.914063 222.351563 139.957031 218.28125 C 134.628906 195.632813 139.0625 181.589844 147.878906 166.824219 C 153.382813 157.601563 162.496094 148.867188 162.496094 148.867188 Z M 170.402344 239.894531 C 170.402344 239.894531 172.027344 242.023438 173.644531 243.996094 C 179.566406 251.214844 187.789063 255.511719 195.878906 257.84375 C 214.535156 263.21875 227.703125 260.054688 227.703125 260.054688 L 241.503906 273.195313 C 241.503906 273.195313 237.378906 275.160156 235.550781 276.511719 C 217.050781 282.847656 177.050781 281.980469 158.300781 256.75 C 156.789063 253.917969 156.003906 252.375 156.003906 252.375 Z M 195.199219 283.960938 C 195.199219 283.960938 190.683594 286.695313 186.125 287.894531 C 181.5625 289.09375 173.402344 291.734375 173.402344 291.734375 L 167.882813 287.414063 L 177.242188 279.132813 Z M 195.722656 322.214844 L 176.765625 334.214844 L 148.203125 303.972656 L 163.324219 291.015625 Z M 194.523438 313.335938 C 194.523438 313.335938 198.84375 309.496094 203.402344 309.015625 C 207.964844 308.535156 210.605469 310.695313 210.605469 310.695313 L 200.285156 318.375 Z M 171.484375 337.09375 C 171.484375 337.09375 163.085938 341.65625 157.5625 343.335938 C 152.042969 345.015625 146.042969 342.855469 150.84375 339.972656 C 155.644531 337.09375 163.324219 329.894531 163.324219 329.894531 Z M 150.84375 315.734375 L 160.203125 325.816406 C 160.203125 325.816406 151.804688 333.972656 147.003906 338.054688 C 142.203125 342.132813 139.324219 350.773438 155.164063 348.132813 C 171.003906 345.496094 191.882813 331.335938 199.5625 325.574219 C 207.242188 319.816406 215.882813 311.65625 215.882813 311.65625 C 215.882813 311.65625 222.125 310.933594 227.164063 313.09375 C 232.203125 315.253906 240.125 320.054688 240.125 320.054688 C 240.125 320.054688 203.402344 348.375 192.605469 353.175781 C 181.804688 357.972656 149.90625 368.292969 128.285156 368.292969 C 99.824219 368.292969 95.464844 366.695313 106.445313 354.375 C 116.285156 343.335938 150.84375 315.734375 150.84375 315.734375 Z M 246.84375 322.933594 C 246.84375 322.933594 253.5625 325.335938 258.605469 330.132813 C 263.644531 334.933594 267.242188 340.933594 258.84375 339.253906 C 250.445313 337.574219 235.085938 333.496094 235.085938 333.496094 Z M 101.402344 353.175781 C 89.402344 367.574219 87.484375 371.414063 104.042969 372.613281 C 137.707031 375.054688 168.78125 367.691406 185.878906 361.558594 C 192.835938 359.066406 200.285156 354.375 200.285156 354.375 C 200.285156 354.375 201.484375 356.773438 215.164063 361.816406 C 228.84375 366.855469 252.125 374.292969 273.003906 374.054688 C 293.882813 373.816406 310.203125 374.054688 318.125 372.613281 C 326.042969 371.175781 340.445313 369.015625 325.324219 353.65625 C 310.203125 338.292969 271.324219 303.734375 271.324219 303.734375 L 275.402344 299.894531 C 275.402344 299.894531 327.484375 348.855469 337.324219 359.175781 C 347.164063 369.496094 346.445313 376.453125 332.523438 377.65625 C 318.605469 378.855469 168.363281 380.292969 168.363281 380.292969 C 168.363281 380.292969 117.964844 380.292969 98.042969 379.816406 C 78.125 379.335938 69.242188 376.453125 79.5625 367.574219 C 89.882813 358.695313 143.882813 308.175781 143.882813 308.175781 L 147.484375 312.375 C 147.484375 312.375 106.945313 346.527344 101.402344 353.175781 Z M 318.605469 355.574219 C 332.285156 368.054688 315.484375 368.054688 303.003906 369.015625 C 290.523438 369.972656 266.523438 369.253906 253.5625 367.574219 C 240.605469 365.894531 207.242188 350.535156 207.242188 350.535156 L 229.804688 336.136719 C 229.804688 336.136719 239.882813 342.132813 252.605469 345.253906 C 265.324219 348.375 272.523438 344.054688 273.003906 339.496094 C 273.484375 334.933594 262.445313 326.773438 253.804688 319.816406 C 245.164063 312.855469 218.765625 304.933594 208.203125 305.175781 C 197.644531 305.414063 190.683594 310.214844 190.683594 310.214844 L 177.964844 296.773438 C 177.964844 296.773438 212.042969 287.175781 224.042969 288.375 C 236.042969 289.574219 261.003906 303.972656 269.164063 308.773438 C 277.324219 313.574219 304.925781 343.09375 318.605469 355.574219 Z M 228.84375 284.054688 C 228.84375 284.054688 239.5 279.734375 244.203125 276.855469 C 244.816406 276.480469 249.242188 280.933594 249.242188 280.933594 L 241.804688 288.375 Z M 219.484375 247.335938 L 234.125 233.894531 L 267.964844 266.292969 L 253.324219 279.492188 Z M 295.9375 224.226563 L 300.257813 230.945313 L 294.734375 237.1875 L 291.855469 234.785156 Z M 334.816406 202.144531 L 346.214844 215.945313 L 309.617188 251.347656 L 298.335938 241.027344 Z M 367.9375 198.066406 C 378.257813 217.507813 383.777344 247.027344 383.296875 264.546875 C 382.816406 282.066406 388.335938 315.1875 367.9375 295.746094 C 347.535156 276.304688 321.375 249.90625 321.375 249.90625 L 333.855469 237.90625 C 333.855469 237.90625 344.414063 251.347656 350.65625 258.546875 C 356.894531 265.746094 365.777344 265.984375 365.296875 255.425781 C 364.816406 244.867188 362.414063 228.066406 351.855469 212.945313 C 341.296875 197.824219 330.496094 193.386719 330.496094 193.386719 C 330.496094 193.386719 333.796875 184.566406 335.476563 181.445313 C 336.863281 178.867188 341.535156 171.367188 341.535156 171.367188 C 341.535156 171.367188 357.617188 178.625 367.9375 198.066406 Z M 345.375 165.246094 C 345.375 165.246094 348.976563 158.226563 353.535156 153.1875 C 358.097656 148.144531 361.9375 146.703125 360.496094 152.464844 C 359.054688 158.226563 352.574219 170.707031 352.574219 170.707031 Z M 337.457031 235.265625 L 350.175781 220.386719 C 350.175781 220.386719 358.335938 237.90625 359.777344 245.585938 C 361.214844 253.265625 359.535156 259.984375 355.214844 254.464844 C 350.894531 248.945313 337.457031 235.265625 337.457031 235.265625 Z M 332.285156 201.253906 L 323.285156 208.09375 L 327.242188 198.734375 Z M 318.257813 253.027344 C 318.257813 253.027344 361.695313 296.707031 372.015625 306.066406 C 382.335938 315.425781 388.097656 314.707031 388.335938 289.746094 C 388.582031 264.238281 388.679688 235.941406 380.175781 209.585938 C 375.375 194.707031 372.734375 192.546875 372.734375 192.546875 C 372.734375 192.546875 381.617188 179.105469 384.496094 171.1875 C 387.375 163.265625 388.816406 129.1875 388.816406 107.105469 C 388.816406 85.023438 379.695313 92.464844 375.136719 97.503906 C 370.574219 102.546875 325.214844 143.105469 325.214844 143.105469 L 322.335938 138.785156 C 322.335938 138.785156 366.015625 101.347656 380.65625 87.1875 C 390.667969 77.503906 392.710938 85.441406 393.003906 95.34375 C 393.136719 99.921875 392.894531 302.945313 392.894531 317.105469 C 392.894531 331.265625 385.9375 325.984375 378.257813 318.066406 C 370.574219 310.144531 313.457031 257.347656 313.457031 257.347656 Z M 325.457031 149.585938 C 334.574219 140.464844 360.976563 115.507813 368.175781 109.027344 C 375.375 102.546875 382.574219 89.824219 382.574219 110.703125 C 382.574219 131.585938 385.214844 157.984375 380.65625 167.585938 C 376.097656 177.1875 368.894531 188.226563 368.894531 188.226563 L 357.375 176.226563 C 357.375 176.226563 363.375 162.425781 365.777344 152.105469 C 368.175781 141.785156 363.855469 134.703125 352.816406 145.984375 C 341.777344 157.265625 329.894531 175.027344 327.734375 183.664063 C 325.574219 192.304688 317.894531 213.304688 317.894531 213.304688 L 305.296875 225.90625 C 305.296875 225.90625 299.054688 221.347656 301.457031 207.425781 C 303.855469 193.507813 316.335938 158.707031 325.457031 149.585938 Z M 42.617188 28.265625 C 34.457031 21.785156 31.09375 17.464844 26.054688 13.144531 C 18.777344 6.90625 14.375 3.785156 38.054688 3.785156 C 60.136719 3.785156 370.695313 6.1875 382.695313 5.703125 C 409.164063 4.648438 413.429688 4.363281 402.617188 14.347656 C 390.136719 25.867188 269.535156 139.027344 269.535156 139.027344 L 256.816406 130.984375 L 337.816406 56.105469 C 337.816406 56.105469 352.457031 42.90625 356.535156 38.34375 C 360.617188 33.785156 369.015625 24.1875 345.976563 23.464844 C 322.9375 22.746094 165.734375 22.746094 165.734375 22.746094 C 165.734375 22.746094 117.976563 23.945313 107.175781 24.664063 C 96.375 25.386719 60.136719 21.785156 83.414063 44.824219 C 106.695313 67.867188 150.617188 109.625 150.617188 109.625 C 150.617188 109.625 140.054688 120.425781 139.816406 119.703125 C 139.574219 118.984375 50.777344 34.746094 42.617188 28.265625 Z M 15.964844 383.894531 C 7.351563 392.078125 5.949219 392.753906 5.882813 379.09375 C 5.773438 355.574219 6.414063 51.3125 5.152344 31.574219 C 3.851563 11.15625 4.957031 11.652344 21.664063 29.230469 C 50.644531 59.71875 150.0625 153.195313 150.0625 153.195313 C 150.0625 153.195313 147.542969 155.59375 145.324219 158.773438 C 143.171875 161.855469 141.003906 166.933594 141.003906 166.933594 C 141.003906 166.933594 55.273438 84.339844 49.804688 79.335938 C 38.523438 69.015625 32.523438 70.933594 32.042969 81.734375 C 31.5625 92.535156 30.164063 312.066406 30.363281 318.613281 C 31.027344 340.457031 34.421875 339.644531 53.71875 322.03125 C 73.171875 304.273438 110.285156 270.855469 110.285156 270.855469 L 120.84375 282.613281 C 120.84375 282.613281 20.765625 379.335938 15.964844 383.894531 Z M 108.125 258.613281 L 119.164063 241.09375 L 147.242188 271.09375 L 132.125 285.253906 Z M 386.523438 378.375 C 394.683594 384.855469 398.046875 389.175781 403.085938 393.496094 C 410.363281 399.734375 416.683594 402.855469 391.085938 402.855469 C 369.003906 402.855469 58.445313 400.453125 46.445313 400.933594 C 19.140625 402.027344 13.667969 404.164063 26.523438 392.292969 C 39.003906 380.773438 159.605469 267.613281 159.605469 267.613281 L 172.324219 275.65625 L 91.324219 350.535156 C 91.324219 350.535156 76.683594 363.734375 72.605469 368.292969 C 68.523438 372.855469 60.125 382.453125 83.164063 383.175781 C 106.203125 383.894531 263.402344 383.894531 263.402344 383.894531 C 263.402344 383.894531 311.164063 382.695313 321.964844 381.972656 C 332.765625 381.253906 369.003906 384.855469 345.722656 361.816406 C 322.445313 338.773438 278.523438 297.015625 278.523438 297.015625 C 278.523438 297.015625 289.085938 286.214844 289.324219 286.933594 C 289.5625 287.652344 378.363281 371.894531 386.523438 378.375 Z M 291.605469 276.105469 L 291.105469 276.539063 L 265.085938 300.132813 C 265.085938 300.132813 259.085938 295.574219 255.722656 294.132813 C 252.363281 292.695313 248.042969 289.8125 248.042969 289.8125 L 279.164063 265.1875 L 279.164063 264.28125 C 279.804688 263.554688 280.34375 262.910156 280.742188 262.386719 C 285.230469 266.347656 288.710938 269.730469 293.367188 274.480469 C 292.8125 274.992188 292.222656 275.535156 291.605469 276.105469 Z M 407.835938 377.769531 C 378.855469 347.28125 280.695313 253.625 280.695313 253.625 C 280.695313 253.625 282.496094 251.585938 284.175781 248.226563 C 285.855469 244.867188 288.496094 240.066406 288.496094 240.066406 C 288.496094 240.066406 374.226563 322.660156 379.695313 327.664063 C 390.976563 337.984375 396.976563 336.066406 397.457031 325.265625 C 397.9375 314.464844 399.335938 94.933594 399.136719 88.386719 C 398.472656 66.542969 395.078125 67.355469 375.78125 84.96875 C 356.328125 102.726563 319.214844 136.144531 319.214844 136.144531 L 308.65625 124.386719 C 308.65625 124.386719 408.734375 27.664063 413.535156 23.105469 C 423.121094 13.996094 423.539063 11.332031 423.617188 27.90625 C 423.726563 51.429688 423.085938 355.683594 424.347656 375.425781 C 425.523438 393.839844 423.710938 394.472656 407.835938 377.769531 "/>
</g>
</svg>
