<?xml version="1.0" encoding="UTF-8"?>
<svg xmlns="http://www.w3.org/2000/svg" xmlns:xlink="http://www.w3.org/1999/xlink" width="504pt" height="453pt" viewBox="0 0 504 453" version="1.1">
<g id="surface1">
<path style=" stroke:none;fill-rule:nonzero;fill:rgb(0%,0%,0%);fill-opacity:1;" d="M 67.957031 141.847656 C 87.824219 144.398438 108.617188 151.023438 129.929688 149.46875 C 129.929688 147.46875 129.929688 145.472656 129.929688 143.585938 C 117.5 137.367188 102.699219 132.078125 87.714844 131.410156 C 79.390625 130.96875 68.878906 137.074219 67.957031 141.847656 "/>
<path style=" stroke:none;fill-rule:nonzero;fill:rgb(0%,0%,0%);fill-opacity:1;" d="M 87.378906 149.0625 C 65.0625 146.074219 40.707031 138.453125 17.480469 144.785156 C -0.390625 149.65625 -11.144531 163.242188 22.941406 174.53125 C 27.042969 175.804688 34.085938 178.113281 39.945313 179.363281 C 30.808594 187.835938 32.214844 204.265625 54.375 207.667969 C 40.273438 215.769531 52.214844 230.722656 65.847656 235.085938 C 58.953125 241.695313 50.425781 264.738281 108.042969 263.78125 C 121.359375 262.855469 129.375 264.613281 129.375 264.613281 L 129.304688 152.722656 C 129.304688 152.722656 100.367188 151.058594 87.378906 149.0625 "/>
<path style=" stroke:none;fill-rule:nonzero;fill:rgb(0%,0%,0%);fill-opacity:1;" d="M 370.734375 0.195313 C 303.863281 0.195313 248.546875 49.59375 239.230469 113.882813 L 239.230469 113.894531 C 238.320313 120.167969 237.828125 126.578125 237.828125 133.105469 C 237.828125 139.632813 239.230469 452.804688 239.230469 452.804688 L 367.988281 452.804688 L 368.304688 125.722656 C 368.304688 125.722656 372.828125 119.480469 380.652344 119.007813 C 388.152344 118.558594 394.257813 125.101563 394.257813 132.613281 C 394.257813 144.828125 383.441406 149.09375 374.914063 144.6875 L 374.835938 265.910156 C 446.335938 263.738281 503.644531 205.132813 503.644531 133.105469 C 503.644531 59.703125 444.136719 0.195313 370.734375 0.195313 "/>
<path style=" stroke:none;fill-rule:nonzero;fill:rgb(0%,0%,0%);fill-opacity:1;" d="M 137.273438 275.15625 L 207.203125 275.15625 L 207.203125 144.917969 L 137.273438 144.917969 Z M 137.273438 275.15625 "/>
<path style=" stroke:none;fill-rule:nonzero;fill:rgb(0%,0%,0%);fill-opacity:1;" d="M 212.386719 266.648438 L 234.214844 266.648438 L 234.214844 145.65625 L 212.386719 145.65625 Z M 212.386719 266.648438 "/>
</g>
</svg>
