<?xml version="1.0" encoding="UTF-8"?>
<svg xmlns="http://www.w3.org/2000/svg" xmlns:xlink="http://www.w3.org/1999/xlink" width="244pt" height="678pt" viewBox="0 0 244 678" version="1.1">
<g id="surface1">
<path style=" stroke:none;fill-rule:nonzero;fill:rgb(0%,0%,0%);fill-opacity:1;" d="M 236.824219 337.472656 C 209.742188 334.816406 193.722656 332.78125 178.769531 316.847656 C 177.171875 319.167969 178.027344 322.535156 176.902344 324.828125 C 175.796875 327.070313 169.789063 327.839844 166.6875 326.105469 C 163.4375 324.285156 164.652344 322.464844 166.710938 322.339844 C 167.394531 322.300781 168.101563 322.605469 169.066406 322.679688 C 166.207031 308.078125 170.804688 216.625 177.394531 194.921875 C 183.367188 175.277344 192.980469 176.503906 197.519531 195.109375 C 201.554688 211.652344 194.179688 238.152344 192.890625 241.976563 C 188.601563 254.714844 189.742188 254.066406 196.546875 243.761719 C 198.929688 240.148438 200.894531 236.195313 202.949219 232.789063 C 201.980469 244.128906 199.578125 254.8125 196.921875 265.507813 C 194.820313 273.984375 196.570313 270.902344 199.308594 267.039063 C 265.902344 173.191406 218.125 35.21875 140.4375 2.09375 C 131.097656 -1.890625 134.578125 1.21875 137.183594 6.949219 C 148.984375 32.878906 155.054688 115.4375 136.257813 138.601563 C 138.402344 145.554688 138.652344 148.6875 138.945313 154.480469 C 136.78125 157.796875 134.414063 160.304688 131.511719 163.710938 C 132.332031 166.507813 134.097656 169.480469 135.40625 172.503906 C 137.816406 186.324219 128.695313 228.9375 123.460938 244.355469 C 121.347656 250.585938 121.652344 251.816406 119.144531 244.457031 C 113.914063 229.125 104.746094 186.351563 107.164063 172.503906 C 108.472656 169.480469 110.238281 166.507813 111.058594 163.710938 C 108.15625 160.304688 105.789063 157.796875 103.625 154.480469 C 103.917969 148.6875 104.167969 145.554688 106.3125 138.601563 C 87.515625 115.4375 93.585938 32.878906 105.386719 6.949219 C 107.992188 1.21875 111.472656 -1.890625 102.132813 2.09375 C 24.445313 35.21875 -23.332031 173.191406 43.261719 267.039063 C 46 270.902344 47.75 273.984375 45.648438 265.507813 C 42.992188 254.8125 40.589844 244.128906 39.621094 232.789063 C 41.675781 236.195313 43.640625 240.148438 46.023438 243.761719 C 52.828125 254.066406 53.96875 254.714844 49.679688 241.976563 C 48.394531 238.152344 41.015625 211.652344 45.050781 195.109375 C 49.589844 176.503906 59.203125 175.277344 65.171875 194.921875 C 71.769531 216.625 76.363281 308.078125 73.503906 322.679688 C 74.46875 322.605469 75.175781 322.300781 75.863281 322.339844 C 77.917969 322.464844 79.132813 324.285156 75.882813 326.105469 C 72.78125 327.839844 66.773438 327.070313 65.667969 324.828125 C 64.542969 322.535156 65.398438 319.167969 63.800781 316.847656 C 48.699219 332.9375 32.511719 334.855469 4.941406 337.554688 C -1.449219 338.179688 -1.515625 339.824219 4.878906 340.449219 C 32.445313 343.144531 48.632813 345.0625 63.730469 361.152344 C 65.328125 358.832031 64.472656 355.464844 65.597656 353.171875 C 66.703125 350.929688 72.710938 350.160156 75.8125 351.894531 C 79.0625 353.714844 77.847656 355.535156 75.792969 355.660156 C 75.105469 355.699219 74.398438 355.394531 73.433594 355.320313 C 76.292969 369.921875 71.695313 461.375 65.101563 483.078125 C 59.132813 502.722656 49.515625 501.496094 44.980469 482.890625 C 40.945313 466.347656 48.324219 439.847656 49.609375 436.023438 C 53.898438 423.285156 52.757813 423.933594 45.953125 434.238281 C 43.570313 437.847656 41.605469 441.804688 39.550781 445.210938 C 40.519531 433.871094 42.921875 423.1875 45.578125 412.492188 C 47.679688 404.015625 45.929688 407.097656 43.191406 410.957031 C -23.402344 504.808594 24.375 642.78125 102.0625 675.90625 C 111.402344 679.890625 107.921875 676.78125 105.316406 671.050781 C 93.515625 645.121094 87.445313 562.5625 106.242188 539.398438 C 104.097656 532.445313 103.847656 529.3125 103.554688 523.519531 C 105.71875 520.203125 108.085938 517.695313 110.988281 514.289063 C 110.167969 511.492188 108.402344 508.519531 107.09375 505.496094 C 104.675781 491.648438 113.84375 448.875 119.074219 433.542969 C 121.582031 426.183594 121.277344 427.414063 123.390625 433.644531 C 128.625 449.0625 137.746094 491.675781 135.335938 505.496094 C 134.027344 508.519531 132.261719 511.492188 131.441406 514.289063 C 134.34375 517.695313 136.710938 520.203125 138.875 523.519531 C 138.582031 529.3125 138.332031 532.445313 136.1875 539.398438 C 154.984375 562.5625 148.914063 645.121094 137.113281 671.050781 C 134.507813 676.78125 131.027344 679.890625 140.367188 675.90625 C 218.054688 642.78125 265.835938 504.808594 199.238281 410.957031 C 196.496094 407.097656 194.75 404.015625 196.851563 412.492188 C 199.507813 423.1875 201.910156 433.871094 202.878906 445.210938 C 200.824219 441.804688 198.859375 437.847656 196.476563 434.238281 C 189.671875 423.933594 188.53125 423.285156 192.820313 436.023438 C 194.105469 439.847656 201.484375 466.347656 197.449219 482.890625 C 192.910156 501.496094 183.296875 502.722656 177.324219 483.078125 C 170.730469 461.375 166.136719 369.921875 168.996094 355.320313 C 168.03125 355.394531 167.324219 355.699219 166.636719 355.660156 C 164.582031 355.535156 163.367188 353.714844 166.617188 351.894531 C 169.71875 350.160156 175.726563 350.929688 176.832031 353.171875 C 177.960938 355.464844 177.101563 358.832031 178.699219 361.152344 C 193.582031 345.292969 209.519531 343.203125 236.371094 340.5625 C 245.503906 339.664063 245.835938 338.355469 236.824219 337.472656 Z M 166.4375 315.75 C 144.117188 276.085938 155.710938 191.628906 182.425781 156.128906 C 170.121094 207.617188 166.261719 261.09375 166.4375 315.75 Z M 60.148438 156.128906 C 86.859375 191.628906 98.453125 276.085938 76.136719 315.75 C 76.308594 261.09375 72.449219 207.617188 60.148438 156.128906 Z M 76.066406 362.25 C 98.382813 401.914063 86.789063 486.371094 60.078125 521.871094 C 72.378906 470.382813 76.238281 416.90625 76.066406 362.25 Z M 182.351563 521.871094 C 155.640625 486.371094 144.046875 401.914063 166.363281 362.25 C 166.191406 416.90625 170.050781 470.382813 182.351563 521.871094 Z M 129.839844 333.226563 C 131.480469 326.742188 138.386719 321.796875 144.597656 320.757813 C 158.316406 319 163.160156 322.402344 163.160156 322.402344 C 163.160156 322.402344 140.15625 327.878906 129.839844 333.226563 Z M 163.089844 355.597656 C 163.089844 355.597656 158.246094 359 144.527344 357.242188 C 138.316406 356.203125 131.410156 351.257813 129.769531 344.773438 C 140.085938 350.121094 163.089844 355.597656 163.089844 355.597656 Z M 127.015625 335.429688 C 126.484375 338.65625 126.441406 340.429688 127.1875 343.84375 C 130.128906 357.359375 143.683594 364.132813 166.410156 357.855469 C 138.015625 404.570313 151.609375 488.917969 185.320313 530.316406 C 182.496094 535.171875 180.71875 540.492188 178.636719 545.726563 C 174.277344 556.6875 175.132813 556.640625 183.667969 548.433594 C 209.6875 523.429688 204.261719 470.289063 197.203125 439.054688 C 238.839844 519.015625 213.109375 605.925781 150.195313 661.046875 C 146.855469 663.976563 146.410156 664.285156 148.023438 659.621094 C 163.417969 615.144531 165.226563 552.335938 134.125 513.097656 C 150.246094 490.828125 139.703125 428.578125 125.941406 402.460938 C 120.699219 392.511719 121.703125 392.53125 116.449219 402.535156 C 102.703125 428.695313 92.195313 490.851563 108.304688 513.097656 C 77.203125 552.335938 79.011719 615.144531 94.40625 659.621094 C 96.019531 664.285156 95.574219 663.976563 92.230469 661.046875 C 29.320313 605.925781 3.589844 519.015625 45.226563 439.054688 C 38.167969 470.289063 32.742188 523.429688 58.761719 548.433594 C 67.296875 556.640625 68.152344 556.6875 63.792969 545.726563 C 61.710938 540.492188 59.933594 535.171875 57.109375 530.316406 C 90.820313 488.917969 104.414063 404.570313 76.019531 357.855469 C 99.035156 364.210938 112.644531 357.1875 115.351563 343.324219 C 116.238281 338.785156 116.121094 337.363281 115.160156 333.488281 C 111.921875 320.417969 98.441406 313.972656 76.089844 320.144531 C 104.484375 273.429688 90.890625 189.082031 57.179688 147.683594 C 60.003906 142.828125 61.78125 137.507813 63.863281 132.273438 C 68.222656 121.3125 67.367188 121.359375 58.832031 129.566406 C 32.8125 154.570313 38.238281 207.710938 45.296875 238.945313 C 3.660156 158.984375 29.390625 72.074219 92.300781 16.953125 C 95.644531 14.023438 96.089844 13.714844 94.476563 18.378906 C 79.082031 62.855469 77.273438 125.664063 108.375 164.902344 C 92.265625 187.148438 102.773438 249.304688 116.519531 275.464844 C 121.773438 285.46875 120.769531 285.488281 126.011719 275.539063 C 139.773438 249.421875 150.320313 187.171875 134.195313 164.902344 C 165.296875 125.664063 163.488281 62.855469 148.09375 18.378906 C 146.480469 13.714844 146.925781 14.023438 150.269531 16.953125 C 213.179688 72.074219 238.910156 158.984375 197.273438 238.945313 C 204.332031 207.710938 209.757813 154.570313 183.738281 129.566406 C 175.199219 121.359375 174.347656 121.3125 178.707031 132.273438 C 180.789063 137.507813 182.566406 142.828125 185.390625 147.683594 C 151.679688 189.082031 138.089844 273.429688 166.480469 320.144531 C 143.050781 313.675781 129.371094 321.070313 127.015625 335.429688 Z M 112.371094 344.808594 C 110.726563 351.289063 103.824219 356.238281 97.609375 357.277344 C 83.890625 359.035156 79.050781 355.632813 79.050781 355.632813 C 79.050781 355.632813 102.054688 350.15625 112.371094 344.808594 Z M 79.121094 322.367188 C 79.121094 322.367188 83.960938 318.964844 97.679688 320.722656 C 103.894531 321.761719 110.796875 326.710938 112.441406 333.191406 C 102.125 327.84375 79.121094 322.367188 79.121094 322.367188 "/>
</g>
</svg>
