<?xml version="1.0" encoding="UTF-8"?>
<svg xmlns="http://www.w3.org/2000/svg" xmlns:xlink="http://www.w3.org/1999/xlink" width="366pt" height="365pt" viewBox="0 0 366 365" version="1.1">
<g id="surface1">
<path style=" stroke:none;fill-rule:nonzero;fill:rgb(0%,0%,0%);fill-opacity:1;" d="M 0.898438 0.351563 L 0.898438 11.046875 C 0.898438 24.539063 11.890625 35.335938 25.28125 35.335938 L 39.175781 35.335938 C 38.078125 36.335938 36.976563 37.433594 35.878906 38.53125 C -10.898438 85.308594 -7.898438 159.066406 37.277344 204.242188 C 65.460938 230.328125 103.941406 237.921875 138.222656 227.527344 C 127.828125 261.710938 135.324219 300.289063 161.507813 328.472656 C 206.683594 373.648438 280.441406 376.648438 327.21875 329.871094 C 328.316406 328.773438 329.414063 327.671875 330.414063 326.574219 L 330.414063 340.46875 C 330.414063 353.859375 341.210938 364.851563 354.703125 364.851563 L 365.398438 364.851563 L 365.398438 0.351563 Z M 357.902344 357.355469 L 354.703125 357.355469 C 345.308594 357.355469 337.910156 349.761719 337.910156 340.46875 L 337.910156 304.886719 C 333.515625 311.683594 328.117188 318.378906 321.921875 324.574219 C 278.046875 368.351563 209.480469 365.753906 167.003906 323.375 C 138.421875 292.894531 134.222656 249.117188 151.515625 214.234375 C 116.632813 231.527344 72.855469 227.328125 42.375 198.746094 C -0.00390625 156.269531 -2.601563 87.703125 41.175781 43.828125 C 47.371094 37.632813 54.066406 32.234375 60.863281 27.839844 L 25.28125 27.839844 C 15.988281 27.839844 8.394531 20.441406 8.394531 11.046875 L 8.394531 7.847656 L 357.902344 7.847656 L 357.902344 357.355469 "/>
<path style=" stroke:none;fill-rule:nonzero;fill:rgb(0%,0%,0%);fill-opacity:1;" d="M 191.007813 174.148438 L 191.609375 174.75 C 191.78125 174.382813 191.949219 174.015625 192.121094 173.644531 C 191.75 173.8125 191.378906 173.976563 191.007813 174.148438 "/>
<path style=" stroke:none;fill-rule:nonzero;fill:rgb(0%,0%,0%);fill-opacity:1;" d="M 210.296875 155.460938 C 206.898438 152.0625 202.902344 148.363281 199.304688 145.164063 C 198.726563 154.867188 196.300781 164.566406 192.121094 173.644531 C 201.203125 169.554688 210.992188 167.125 220.691406 166.453125 C 217.492188 162.855469 213.695313 158.859375 210.296875 155.460938 "/>
<path style=" stroke:none;fill-rule:nonzero;fill:rgb(0%,0%,0%);fill-opacity:1;" d="M 59.367188 180.46875 C 87.851563 207.054688 132.027344 205.152344 158.3125 178.867188 C 179.898438 157.28125 179.199219 121.699219 155.714844 101.910156 C 137.722656 86.820313 111.738281 89.617188 96.246094 105.109375 C 83.054688 118.300781 85.152344 137.492188 96.644531 149.085938 C 106.140625 158.78125 122.03125 162.078125 132.128906 151.882813 C 139.421875 144.585938 140.320313 132.394531 131.828125 125.699219 C 125.429688 120.601563 118.433594 122.601563 114.234375 126.996094 C 111.9375 129.296875 111.636719 132.894531 114.035156 134.894531 C 114.535156 135.394531 115.535156 136.09375 116.433594 135.792969 C 115.035156 133.992188 114.4375 131.296875 116.535156 129.195313 C 119.335938 126.398438 123.132813 127.296875 125.230469 129.394531 C 128.828125 132.992188 128.328125 138.789063 124.730469 142.289063 C 119.734375 147.386719 111.539063 147.1875 106.539063 142.1875 C 101.144531 136.792969 100.742188 127.097656 107.839844 120 C 114.035156 113.804688 126.328125 109.507813 137.621094 117.601563 C 151.515625 127.597656 151.015625 147.386719 139.222656 158.980469 C 125.128906 172.871094 103.042969 169.574219 89.648438 156.082031 C 74.859375 141.390625 71.558594 115.703125 89.25 98.011719 C 103.242188 83.921875 124.730469 78.425781 143.921875 84.320313 C 173.203125 93.316406 203.289063 113.304688 227.972656 137.789063 C 252.460938 162.476563 272.449219 192.5625 281.445313 221.84375 C 287.339844 241.035156 281.746094 262.523438 267.753906 276.515625 C 250.0625 294.207031 224.375 290.90625 209.585938 276.113281 C 196.191406 262.722656 192.894531 240.535156 206.785156 226.542969 C 218.378906 214.75 238.167969 214.25 248.164063 228.140625 C 256.15625 239.4375 251.960938 251.730469 245.765625 257.925781 C 238.667969 265.019531 228.871094 264.621094 223.574219 259.226563 C 218.578125 254.226563 218.378906 246.03125 223.375 241.035156 C 226.972656 237.4375 232.769531 236.9375 236.367188 240.535156 C 238.46875 242.632813 239.367188 246.332031 236.570313 249.230469 C 234.46875 251.328125 231.773438 250.730469 229.871094 249.328125 C 229.671875 250.128906 230.371094 251.128906 230.871094 251.730469 C 232.871094 254.128906 236.46875 253.828125 238.769531 251.527344 C 243.164063 247.332031 245.164063 240.335938 240.066406 233.9375 C 233.269531 225.441406 221.175781 226.242188 213.882813 233.539063 C 203.6875 243.734375 206.984375 259.625 216.578125 269.117188 C 228.171875 280.613281 247.464844 282.710938 260.65625 269.519531 C 276.148438 254.027344 278.945313 227.941406 263.855469 210.050781 C 244.066406 186.5625 208.382813 185.863281 186.894531 207.453125 C 160.609375 233.738281 158.710938 277.914063 185.296875 306.398438 C 217.578125 338.679688 269.851563 341.28125 304.230469 306.898438 C 360.5 250.628906 319.921875 158.078125 263.753906 102.011719 C 207.683594 45.84375 115.136719 5.265625 58.867188 61.53125 C 24.484375 95.914063 27.082031 148.085938 59.367188 180.46875 "/>
<path style=" stroke:none;fill-rule:nonzero;fill:rgb(0%,0%,0%);fill-opacity:1;" d="M 337.910156 163.96875 L 337.910156 27.839844 L 201.78125 27.839844 C 231.667969 41.734375 259.851563 62.523438 281.539063 84.210938 C 303.226563 105.898438 324.015625 134.082031 337.910156 163.96875 Z M 330.414063 35.335938 L 330.414063 134.28125 C 317.921875 113.894531 302.328125 94.804688 286.636719 79.113281 C 270.945313 63.421875 251.855469 47.828125 231.46875 35.335938 L 330.414063 35.335938 "/>
</g>
</svg>
