<?xml version="1.0" encoding="UTF-8"?>
<svg xmlns="http://www.w3.org/2000/svg" xmlns:xlink="http://www.w3.org/1999/xlink" width="388pt" height="520pt" viewBox="0 0 388 520" version="1.1">
<g id="surface1">
<path style=" stroke:none;fill-rule:nonzero;fill:rgb(0%,0%,0%);fill-opacity:1;" d="M 271.164063 468.011719 C 247.386719 458.171875 226.175781 440.257813 207.804688 420.566406 C 207.320313 420.050781 186.695313 400.980469 189.558594 387.414063 C 189.785156 386.355469 190.113281 385.257813 190.5625 384.113281 C 192.75 387.5 202.199219 396.558594 204.804688 398.953125 C 218.265625 411.339844 232.535156 422.871094 249.964844 427.3125 C 264.480469 431.6875 298.644531 417.835938 281.664063 382.710938 C 273.488281 365.421875 238.066406 351.4375 224.0625 370.113281 C 220.464844 376.011719 221.363281 385.613281 223.261719 392.011719 C 214.289063 387.449219 202.535156 367.675781 198.515625 358.6875 C 195.890625 352.828125 193.734375 346.792969 191.664063 340.910156 C 186.164063 324.113281 181.664063 306.210938 181.5625 287.613281 C 181.464844 286.511719 183.0625 285.210938 184.0625 286.210938 C 184.828125 293.882813 194.695313 316.675781 215.0625 321.8125 C 225.398438 323.367188 238.492188 322.160156 245.855469 313.378906 C 250.929688 307.324219 250.878906 297.210938 243.464844 282.910156 C 231.738281 267.386719 215.789063 280.550781 220.277344 294.367188 C 222.976563 302.6875 226.5 305.875 234.863281 308.113281 C 234.863281 308.113281 229.484375 310.9375 222.757813 310.421875 C 204.535156 309.035156 195.683594 291.089844 193.070313 280.292969 C 182.085938 234.929688 225.003906 215.964844 246.960938 230.4375 C 258.074219 237.761719 263.691406 250.597656 263.964844 263.113281 C 267.464844 261.511719 270.5625 257.613281 272.964844 254.910156 C 273.164063 261.613281 272.875 280.5 270.0625 289.8125 C 283.824219 281.449219 289.433594 270.542969 298.5625 252.710938 C 299.5 267.03125 299.347656 279.390625 296.1875 292.140625 C 294.714844 298.070313 287.933594 322.730469 281.460938 336.164063 C 279.046875 341.175781 279.011719 341.433594 285.273438 338.046875 C 301.382813 329.34375 319.265625 309.324219 341.328125 280.492188 C 357.777344 259 367.871094 227.085938 378.375 195.292969 C 386.363281 171.113281 384.734375 120.863281 374.484375 88.847656 C 373.8125 86.753906 371.5625 78.113281 368.761719 77.710938 C 367.113281 120.285156 342.0625 132.511719 342.0625 132.511719 C 342 136.75 341 139 340.261719 143.3125 C 329.28125 92.394531 290.8125 -2.136719 216.863281 0.0117188 C 215.5625 0.910156 213.464844 -0.386719 212.464844 1.113281 C 239.996094 17.585938 264.996094 53.105469 245.261719 77.011719 C 245.664063 83.410156 251.0625 95.011719 251.0625 95.011719 C 251.0625 95.011719 223.042969 64.886719 174.222656 49.085938 C 122.574219 32.371094 83.304688 34.453125 35.929688 65.769531 C 32.453125 68.066406 33.574219 68.664063 37.535156 67.066406 C 49.019531 62.429688 77.238281 59.535156 95.863281 71.613281 C 107.464844 80.210938 111.761719 92.511719 113.164063 105.511719 L 127.164063 114.113281 C 83.769531 128.480469 55.324219 146.117188 31.441406 180.960938 C 2.921875 222.566406 6.359375 227.207031 0.0625 259.210938 C 0.0625 259.210938 8.335938 242.808594 36.0625 231.511719 C 48.5 228.25 57.261719 233.8125 64.164063 241.511719 C 71 235.75 77.363281 230.210938 82.863281 225.710938 C 68.710938 247.785156 69.496094 273.164063 69.285156 290.003906 C 69.203125 296.714844 70.671875 292.894531 71.738281 291.09375 C 77.058594 282.121094 86.179688 273.351563 96.261719 272.511719 C 85.835938 293.164063 80.023438 323.960938 89.0625 347.710938 C 90.0625 350.3125 91.164063 354.910156 94.460938 354.210938 C 93.757813 345.285156 97.066406 335.273438 100.5625 329.011719 C 109.773438 373.816406 135.75 421.5 169.261719 447.8125 C 169.261719 447.8125 142.761719 437.414063 129.363281 432.710938 C 125.5625 436.8125 111.253906 439.199219 109.238281 439.367188 C 71.019531 442.550781 31.761719 405.011719 31.761719 405.011719 C 39.328125 431.792969 78.707031 472.648438 122.023438 491.273438 C 189.316406 520.203125 283.945313 538.554688 385.261719 489.613281 C 386.261719 489.511719 387.5625 488.511719 387.464844 487.414063 C 342.015625 494.0625 304.007813 485.226563 271.164063 468.011719 Z M 237.992188 214.074219 C 237.25 214.109375 228.363281 209.113281 228.363281 209.113281 C 234.664063 209.710938 241.0625 209.113281 246.664063 212.410156 C 244.640625 211.925781 241.117188 213.925781 237.992188 214.074219 Z M 270.0625 222.8125 C 259.847656 210.894531 236.445313 203.53125 215.761719 209.113281 C 219.277344 202.722656 227.316406 200.335938 239.863281 203.410156 C 243.761719 201.710938 231.0625 191.011719 226.5625 190.113281 C 233.261719 186.8125 237 179.25 255.664063 186.113281 C 257.75 181.5 249.261719 173.8125 249.261719 172.410156 C 269.371094 172.824219 274.050781 208.136719 270.0625 222.8125 Z M 147.363281 354.910156 C 139.464844 365.710938 138.261719 380.710938 140.164063 394.210938 C 125.65625 382.121094 109.109375 352.007813 114.964844 317.113281 C 92.851563 319.984375 92.664063 351.011719 92.664063 351.011719 C 78.78125 325.144531 92.742188 283.382813 98.363281 271.113281 C 92.988281 266.6875 75.703125 280.371094 71.0625 289.113281 C 71.335938 256.246094 80.492188 224.476563 101.261719 205.511719 C 92.839844 198.894531 78.316406 207.527344 70.261719 214.910156 C 81.992188 184.972656 94.96875 164.257813 128.261719 158.011719 C 116.734375 142.257813 101.359375 146.300781 84.664063 147.210938 C 105.5625 132.8125 131.761719 121.910156 157.761719 129.210938 C 167.25 112.75 132.964844 103.3125 132.964844 103.3125 C 160.621094 92.363281 189.40625 98.328125 209.964844 106.210938 C 213.910156 96.011719 198.3125 83.582031 189.0625 76.3125 C 237 83.25 266.464844 119.511719 266.464844 119.511719 C 271 109.75 264.464844 92.3125 257.863281 81.710938 C 306.570313 117.855469 311.988281 188.738281 305.84375 221.515625 C 301.296875 245.761719 289.132813 271.601563 272.964844 285.8125 C 275.261719 275.613281 274.5625 261.8125 275.164063 252.011719 C 290.78125 230.710938 290.671875 221.25 291.203125 203.257813 C 292.03125 175.449219 286.9375 154.179688 246.769531 149.078125 C 226.507813 146.507813 204.992188 152.085938 188.0625 164.113281 C 188.0625 164.113281 206.363281 163.210938 214.664063 168.113281 L 215.0625 168.511719 C 186.347656 172.820313 164.808594 180.171875 159.964844 194.710938 C 169.75 191.5 177.761719 192.710938 182.261719 195.511719 C 170.253906 199.640625 146.640625 218.382813 145.164063 235.8125 C 152.75 230.25 161.761719 228.613281 167.863281 230.410156 C 155.261719 238.910156 145.464844 251.8125 145.5625 268.210938 C 153 261.25 159.261719 257.210938 167.464844 258.8125 C 162.542969 272.992188 161.484375 299.03125 173.664063 312.113281 C 174.25 300 174.261719 294.3125 179.761719 288.710938 C 179.164063 303.613281 184.464844 318.011719 186.964844 332.613281 C 193.761719 355.210938 203.164063 377.613281 222.261719 394.210938 C 223.5625 393.113281 224.863281 396.3125 226.164063 394.210938 C 223.464844 387.3125 221.863281 377.410156 226.164063 370.410156 C 239.851563 355.296875 274.707031 367.964844 280.863281 384.511719 C 294.09375 414.753906 267.867188 428.574219 251.761719 425.914063 C 230.1875 418.503906 214.472656 406.523438 198.863281 390.910156 C 195.363281 387.613281 193.664063 382.710938 189.863281 380.511719 C 183.25 389 189.0625 403.3125 193.0625 412.910156 C 177.703125 409.839844 151 375.5 147.363281 354.910156 "/>
</g>
</svg>
