<?xml version="1.0" encoding="UTF-8"?>
<svg xmlns="http://www.w3.org/2000/svg" xmlns:xlink="http://www.w3.org/1999/xlink" width="312pt" height="682pt" viewBox="0 0 312 682" version="1.1">
<g id="surface1">
<path style=" stroke:none;fill-rule:nonzero;fill:rgb(13.729858%,12.159729%,12.548828%);fill-opacity:1;" d="M 244.101563 87.96875 C 242.117188 86.085938 244.101563 82.519531 246.523438 82.519531 L 259.035156 82.519531 C 260.648438 82.519531 262.0625 80.960938 262.0625 79.144531 C 262.0625 77.460938 260.851563 75.773438 259.035156 75.773438 L 3.535156 75.773438 C 1.921875 75.773438 0.507813 77.199219 0.507813 79.144531 L 1.113281 678.160156 C 1.113281 679.976563 2.527344 681.535156 4.140625 681.535156 L 19.078125 681.535156 C 20.894531 681.535156 22.304688 679.976563 22.304688 678.160156 L 22.304688 593.199219 C 22.304688 589.828125 26.140625 588.527344 27.957031 591.382813 C 58.050781 646.65625 185.011719 657.75 226.183594 527.742188 C 243.804688 472.097656 240.429688 404.679688 222.710938 347.652344 C 212.011719 313.148438 198.894531 276.828125 183.960938 246.605469 C 182.75 243.621094 185.777344 240.507813 187.996094 242.066406 C 226.871094 272.160156 271.671875 253.460938 281.179688 205.230469 C 290.007813 160.476563 275.386719 117.597656 244.101563 87.96875 Z M 192.445313 82.058594 C 194.867188 82.058594 196.480469 85.949219 195.269531 87.117188 C 188.8125 93.214844 185.984375 102.425781 185.582031 109.6875 C 185.582031 110.597656 184.171875 110.597656 183.96875 109.816406 C 181.949219 103.851563 178.921875 98.015625 174.886719 91.65625 C 173.070313 88.675781 168.429688 83.097656 167.421875 82.058594 Z M 96.136719 81.964844 L 132.464844 82.09375 C 134.683594 82.09375 134.683594 83.261719 134.886719 84.949219 C 135.289063 88.96875 139.933594 92.992188 140.738281 103.367188 C 141.144531 115.429688 144.371094 115.820313 150.425781 109.855469 C 152.039063 108.296875 154.058594 109.984375 154.867188 111.410156 C 158.09375 117.636719 158.703125 135.40625 148.8125 135.277344 C 140.132813 135.277344 127.824219 126.328125 118.742188 116.339844 C 110.265625 107.128906 103.203125 96.753906 94.320313 87.933594 C 92.101563 85.726563 93.515625 81.964844 96.136719 81.964844 Z M 22.824219 245.773438 L 23.027344 186.753906 C 23.027344 183.511719 26.859375 182.082031 28.675781 184.808594 C 30.695313 188.308594 33.117188 191.292969 35.539063 193.757813 C 46.035156 203.617188 58.546875 207.117188 70.453125 200.890625 C 79.332031 196.09375 86.800781 184.675781 88.414063 167.167969 C 89.421875 157.828125 87.605469 151.988281 81.550781 151.988281 C 76.101563 156.011719 71.664063 144.207031 69.242188 154.195313 C 68.636719 158.476563 66.011719 163.015625 62.582031 164.703125 C 54.308594 168.980469 44.417969 160.679688 44.824219 143.300781 C 44.621094 115.410156 68.839844 103.605469 82.964844 123.324219 C 98.101563 144.335938 109.605469 178.839844 116.0625 227.222656 C 120.503906 261.46875 117.679688 296.230469 106.175781 317.375 C 84.117188 358.175781 45.675781 340.785156 44.824219 298.046875 C 44.417969 280.277344 53.5 260.039063 63.589844 259.390625 C 70.855469 258.875 77.316406 249.792969 69.644531 242.917969 C 60.96875 235.265625 66.820313 221.644531 60.160156 222.035156 C 47.847656 222.8125 36.347656 233.0625 28.675781 247.460938 C 26.859375 250.570313 22.824219 249.40625 22.824219 245.773438 Z M 29.566406 494.644531 C 27.953125 497.625 23.914063 496.460938 23.914063 492.828125 L 23.714844 347.417969 C 23.714844 344.175781 27.75 342.878906 29.363281 345.601563 C 40.667969 364.539063 63.472656 379.976563 87.285156 376.863281 C 88.699219 376.605469 89.910156 378.679688 89.101563 379.585938 C 71.34375 397.488281 68.71875 431.34375 92.332031 455.597656 C 94.347656 457.675781 93.339844 459.621094 90.71875 459.359375 C 79.011719 458.191406 67.105469 460.398438 56.609375 465.847656 C 44.5 472.074219 36.023438 482.839844 29.566406 494.644531 Z M 198.785156 457.152344 C 195.234375 585.015625 118.363281 618.289063 76.484375 590.625 C 49.238281 572.597656 44.191406 536.015625 61.144531 509.035156 C 65.789063 501.644531 75.273438 496.84375 85.363281 496.585938 C 92.628906 496.84375 103.121094 496.84375 109.378906 508.519531 C 114.628906 519.152344 124.515625 516.429688 121.894531 508.519531 C 118.058594 495.804688 127.746094 488.28125 125.324219 481.535156 C 130.773438 483.355469 136.421875 484.390625 141.871094 484.390625 C 161.851563 484.519531 180.015625 472.847656 193.335938 454.945313 C 195.355469 452.351563 198.984375 453.910156 198.785156 457.152344 Z M 187.101563 329.921875 C 214.632813 455.265625 145.597656 466.839844 120.761719 441.234375 C 104.671875 424.644531 105.144531 392.054688 133.015625 392.054688 C 136.039063 392.054688 138.058594 392.964844 140.078125 394.132813 C 148.351563 399.0625 144.316406 383.105469 152.792969 377.785156 C 161.46875 372.210938 158.441406 365.984375 150.371094 361.054688 C 142.699219 356.644531 135.03125 354.570313 127.96875 354.570313 C 126.355469 354.570313 124.738281 354.570313 123.125 354.960938 C 126.554688 350.9375 129.179688 346.65625 131.601563 341.855469 C 148.148438 311.894531 146.738281 268.179688 140.078125 229.007813 C 137.855469 216.164063 135.03125 203.195313 132.207031 191 C 131.804688 189.832031 133.214844 189.054688 133.820313 190.09375 C 155.011719 227.191406 178.421875 288.546875 187.101563 329.921875 Z M 255.441406 181.894531 C 245.613281 233.253906 191.996094 225.785156 158.339844 177.398438 C 156.925781 175.582031 157.933594 172.597656 160.15625 171.949219 C 168.226563 169.875 181.546875 160.40625 184.976563 146.265625 C 185.984375 142.503906 186.59375 138.871094 186.996094 135.5 C 187.199219 134.59375 188.207031 134.464844 188.609375 135.242188 C 189.820313 138.226563 191.03125 141.339844 192.644531 144.191406 C 195.875 150.15625 200.113281 151.066406 202.535156 143.152344 C 206.570313 132.386719 214.039063 140.300781 211.011719 130.054688 C 208.589844 121.492188 208.992188 108.390625 220.296875 108.390625 C 237.835938 108.390625 262.273438 146.183594 255.441406 181.894531 "/>
<path style=" stroke:none;fill-rule:nonzero;fill:rgb(13.729858%,12.159729%,12.548828%);fill-opacity:1;" d="M 309.144531 0.464844 L 3.285156 0.464844 C 1.730469 0.464844 0.511719 1.6875 0.511719 3.238281 L 0.511719 51.304688 C 0.511719 52.855469 1.730469 54.078125 3.285156 54.078125 L 277.65625 54.078125 C 279.097656 54.078125 280.316406 52.96875 280.371094 51.472656 C 280.984375 42.101563 284.808594 33.507813 293.402344 31.234375 C 305.15625 28.132813 311.199219 17.320313 311.917969 3.40625 C 311.972656 1.796875 310.699219 0.464844 309.144531 0.464844 "/>
<path style=" stroke:none;fill-rule:nonzero;fill:rgb(13.729858%,12.159729%,12.548828%);fill-opacity:1;" d="M 3.285156 69.878906 L 265.070313 69.878906 C 266.625 69.878906 267.84375 68.65625 267.84375 67.105469 L 267.84375 60.5625 C 267.84375 59.011719 266.625 57.789063 265.070313 57.789063 L 3.285156 57.789063 C 1.730469 57.789063 0.511719 59.011719 0.511719 60.5625 L 0.511719 67.105469 C 0.511719 68.65625 1.730469 69.878906 3.285156 69.878906 "/>
</g>
</svg>
