<?xml version="1.0" encoding="UTF-8"?>
<svg xmlns="http://www.w3.org/2000/svg" xmlns:xlink="http://www.w3.org/1999/xlink" width="453pt" height="410pt" viewBox="0 0 453 410" version="1.1">
<g id="surface1">
<path style=" stroke:none;fill-rule:nonzero;fill:rgb(0%,0%,0%);fill-opacity:1;" d="M 444.09375 328.597656 C 443.515625 327.222656 443.109375 326.28125 443.109375 326.28125 C 443.109375 326.28125 443.949219 324.929688 444.96875 322.941406 C 451.421875 310.378906 449.824219 290.515625 442.59375 276.277344 C 441.910156 274.929688 441.429688 274.058594 441.429688 274.058594 C 441.429688 274.058594 443.269531 271.828125 444.929688 268.878906 C 450.21875 259.5 452.902344 246.796875 446.050781 237.660156 C 444.371094 235.421875 443.671875 233.738281 443.671875 233.738281 C 443.671875 233.738281 445.070313 231.640625 445.910156 229.960938 C 450.699219 220.382813 447.75 210.796875 444.710938 205.984375 C 443.78125 204.515625 442.828125 202.941406 442.828125 202.941406 C 442.828125 202.941406 443.136719 202.480469 443.574219 201.765625 C 446.988281 196.199219 450.550781 186.84375 445.175781 175.515625 C 444.582031 174.265625 444.089844 173.402344 444.089844 173.402344 C 444.089844 173.402344 444.546875 172.3125 445.136719 170.90625 C 450.277344 158.65625 452.117188 152.175781 445.027344 139.824219 C 444.125 138.253906 443.390625 137.140625 443.390625 137.140625 C 443.390625 137.140625 444 135.855469 444.765625 133.964844 C 451.128906 118.214844 449.652344 99.085938 441.355469 82.089844 C 440.726563 80.804688 440.308594 80.019531 440.308594 80.019531 C 440.308594 80.019531 441.488281 78.585938 442.605469 77.019531 C 446.863281 71.046875 452.109375 49.324219 452.046875 23.183594 C 452.011719 8.5625 452.128906 5.164063 446.820313 3.964844 C 421.777344 -1.679688 387.074219 8.839844 373.21875 17.949219 C 372.097656 18.683594 371.289063 19.261719 371.289063 19.261719 C 371.289063 19.261719 370.464844 18.765625 369.179688 18.019531 C 338.710938 0.296875 305.351563 1.828125 277.917969 16.195313 C 276.726563 16.820313 275.808594 17.300781 275.808594 17.300781 C 275.808594 17.300781 274.730469 16.628906 273.070313 15.609375 C 262.472656 9.113281 253.347656 4.800781 244.960938 2.5 C 235.210938 -0.171875 217.699219 -0.171875 208.199219 2.324219 C 199.628906 4.574219 190.304688 8.945313 179.429688 15.609375 C 177.769531 16.628906 176.691406 17.300781 176.691406 17.300781 C 176.691406 17.300781 175.773438 16.820313 174.582031 16.195313 C 147.148438 1.828125 113.789063 0.296875 83.320313 18.019531 C 82.035156 18.765625 81.210938 19.261719 81.210938 19.261719 C 81.210938 19.261719 80.402344 18.683594 79.285156 17.949219 C 65.425781 8.839844 30.722656 -1.679688 5.679688 3.964844 C 0.371094 5.164063 0.488281 8.5625 0.453125 23.183594 C 0.390625 49.324219 5.636719 71.046875 9.894531 77.019531 C 11.011719 78.585938 12.191406 80.019531 12.191406 80.019531 C 12.191406 80.019531 11.773438 80.804688 11.144531 82.089844 C 2.847656 99.085938 1.371094 118.214844 7.738281 133.964844 C 8.5 135.855469 9.109375 137.140625 9.109375 137.140625 C 9.109375 137.140625 8.375 138.253906 7.472656 139.824219 C 0.382813 152.175781 2.222656 158.65625 7.363281 170.90625 C 7.953125 172.3125 8.410156 173.402344 8.410156 173.402344 C 8.410156 173.402344 7.917969 174.265625 7.324219 175.515625 C 1.949219 186.84375 5.511719 196.199219 8.925781 201.765625 C 9.363281 202.480469 9.671875 202.941406 9.671875 202.941406 C 9.671875 202.941406 8.71875 204.515625 7.792969 205.984375 C 4.75 210.796875 1.800781 220.382813 6.589844 229.960938 C 7.429688 231.640625 8.832031 233.738281 8.832031 233.738281 C 8.832031 233.738281 8.128906 235.421875 6.449219 237.660156 C -0.402344 246.796875 2.28125 259.5 7.570313 268.878906 C 9.230469 271.828125 11.070313 274.058594 11.070313 274.058594 C 11.070313 274.058594 10.589844 274.929688 9.90625 276.277344 C 2.675781 290.515625 1.082031 310.378906 7.53125 322.941406 C 8.550781 324.929688 9.390625 326.28125 9.390625 326.28125 C 9.390625 326.28125 8.984375 327.222656 8.40625 328.597656 C 0.527344 347.242188 -4.105469 374.84375 4.660156 397.472656 C 7.792969 405.566406 8.476563 407.269531 19.613281 407.835938 C 39.972656 408.871094 58.609375 402.214844 78.078125 392.394531 C 80.433594 391.207031 82.332031 390.261719 82.332031 390.261719 C 82.332031 390.261719 83.730469 391.097656 86.53125 392.5 C 113.21875 405.84375 141.796875 409.5625 176.894531 391.359375 C 178.804688 390.367188 180.050781 389.699219 180.050781 389.699219 C 180.050781 389.699219 183.5625 392.140625 187.890625 394.738281 C 196.027344 399.628906 201.253906 403.253906 207.160156 405.636719 C 219.414063 410.578125 232.835938 410.679688 245.339844 405.636719 C 251.246094 403.253906 256.472656 399.628906 264.609375 394.738281 C 268.9375 392.140625 272.449219 389.699219 272.449219 389.699219 C 272.449219 389.699219 273.695313 390.367188 275.605469 391.359375 C 310.703125 409.5625 339.28125 405.84375 365.96875 392.5 C 368.769531 391.097656 370.171875 390.261719 370.171875 390.261719 C 370.171875 390.261719 372.066406 391.207031 374.421875 392.394531 C 393.890625 402.214844 412.527344 408.871094 432.886719 407.835938 C 444.023438 407.269531 444.707031 405.566406 447.839844 397.472656 C 456.605469 374.84375 451.972656 347.242188 444.09375 328.597656 Z M 446.859375 311.417969 C 445.792969 319.789063 438.980469 331.863281 423.425781 347.726563 C 421.855469 346.523438 415.304688 341.261719 415.304688 341.261719 C 439.308594 323.71875 437.652344 296.894531 431.433594 283.691406 L 439.945313 275.964844 C 445.097656 285.8125 448.339844 299.804688 446.859375 311.417969 Z M 238.902344 375.199219 C 226.25 379.683594 224.582031 379.414063 211.652344 374.484375 C 202.425781 370.964844 191.722656 365.152344 182.710938 357.863281 C 184.78125 355.625 187.527344 352.65625 189.851563 349.324219 C 192.875 352.347656 196.792969 354.589844 200.039063 357.050781 C 218.828125 370.523438 232.925781 371.058594 252.457031 357.050781 C 255.707031 354.589844 259.625 352.347656 262.648438 349.324219 C 264.972656 352.65625 267.71875 355.625 269.789063 357.863281 C 260.136719 365.667969 248.546875 371.78125 238.902344 375.199219 Z M 247.894531 374.886719 L 257.664063 381.410156 C 253.632813 384.300781 245.679688 389.921875 237.140625 393.363281 C 228.550781 396.820313 224.433594 396.878906 216.066406 393.640625 C 207.265625 390.234375 198.980469 384.378906 194.835938 381.410156 L 204.605469 374.886719 C 222.152344 383.574219 230.265625 383.613281 247.894531 374.886719 Z M 50.046875 237.660156 C 52.511719 239.453125 55.675781 241.355469 56.570313 244.492188 C 47.707031 249.21875 32.28125 263.828125 28.011719 271.457031 C 26.023438 268.964844 22.96875 266.109375 21.851563 263.53125 C 29.128906 252.554688 39.964844 245.277344 50.046875 237.660156 Z M 20.28125 260.285156 C 18.601563 255.578125 18.265625 249.53125 19.050781 244.941406 L 27.449219 253.003906 Z M 46.914063 207.035156 C 49.578125 207.699219 53.140625 209.992188 55.675781 212.234375 C 46.714844 219.292969 36.859375 225.339844 28.347656 232.394531 L 21.066406 225.230469 C 21.066406 225.230469 42.007813 209.921875 46.914063 207.035156 Z M 20.617188 223.210938 C 19.273438 224.21875 18.601563 221.757813 18.265625 220.746094 C 17.371094 217.613281 18.265625 215.148438 20.617188 213.46875 C 22.859375 215.34375 24.175781 216.773438 26.332031 218.730469 C 24.203125 220.410156 22.746094 221.421875 20.617188 223.210938 Z M 50.074219 173.933594 C 52.761719 175.164063 55.449219 177.40625 57.691406 178.859375 C 50.632813 185.132813 31.253906 200.324219 28.542969 202.179688 C 26.199219 201.328125 23.429688 198.128906 21.429688 196.246094 C 31.285156 189.191406 40.695313 180.539063 50.074219 173.933594 Z M 20.617188 194.539063 L 20.28125 190.0625 C 19.386719 184.238281 24.984375 189.054688 25.882813 190.507813 C 24.203125 191.851563 22.410156 193.195313 20.617188 194.539063 Z M 51.136719 141.46875 C 53.984375 143.058594 57.046875 144.230469 58.585938 147.390625 C 45.847656 154.949219 24.652344 171.917969 24.652344 171.917969 C 22.410156 170.683594 20.394531 167.886719 19.050781 165.53125 C 27.394531 156.527344 41.410156 149.246094 51.136719 141.46875 Z M 17.820313 162.734375 C 16.808594 159.539063 16.585938 154.558594 19.050781 152.203125 L 23.867188 157.019531 C 23.867188 157.019531 19.300781 161.640625 17.820313 162.734375 Z M 28.683594 121.964844 L 20.28125 127.230469 C 16.808594 116.363281 14.960938 99.957031 21.792969 90.660156 L 26.359375 93.515625 C 24.007813 103.148438 24.652344 113.453125 28.683594 121.964844 Z M 426.140625 93.515625 L 430.703125 90.660156 C 437.539063 99.957031 435.6875 116.363281 432.21875 127.230469 L 423.816406 121.964844 C 427.851563 113.453125 428.492188 103.148438 426.140625 93.515625 Z M 433.449219 165.53125 C 432.105469 167.886719 430.089844 170.683594 427.851563 171.917969 C 427.851563 171.917969 406.652344 154.949219 393.914063 147.390625 C 395.453125 144.230469 398.515625 143.058594 401.363281 141.46875 C 411.089844 149.246094 425.105469 156.527344 433.449219 165.53125 Z M 428.632813 157.019531 L 433.449219 152.203125 C 435.914063 154.558594 435.6875 159.539063 434.683594 162.734375 C 433.199219 161.640625 428.632813 157.019531 428.632813 157.019531 Z M 431.070313 196.246094 C 429.070313 198.128906 426.300781 201.328125 423.957031 202.179688 C 421.246094 200.324219 401.867188 185.132813 394.808594 178.859375 C 397.050781 177.40625 399.738281 175.164063 402.425781 173.933594 C 411.804688 180.539063 421.214844 189.191406 431.070313 196.246094 Z M 426.617188 190.507813 C 427.515625 189.054688 433.113281 184.238281 432.21875 190.0625 L 431.882813 194.539063 C 430.089844 193.195313 428.296875 191.851563 426.617188 190.507813 Z M 431.433594 225.230469 L 424.152344 232.394531 C 415.640625 225.339844 405.785156 219.292969 396.824219 212.234375 C 399.359375 209.992188 402.921875 207.699219 405.585938 207.035156 C 410.492188 209.921875 431.433594 225.230469 431.433594 225.230469 Z M 426.171875 218.730469 C 428.324219 216.773438 429.640625 215.34375 431.882813 213.46875 C 434.234375 215.148438 435.128906 217.613281 434.234375 220.746094 C 433.898438 221.757813 433.226563 224.21875 431.882813 223.210938 C 429.753906 221.421875 428.296875 220.410156 426.171875 218.730469 Z M 430.648438 263.53125 C 429.53125 266.109375 426.476563 268.964844 424.488281 271.457031 C 420.21875 263.828125 404.792969 249.21875 395.929688 244.492188 C 396.824219 241.355469 399.988281 239.453125 402.453125 237.660156 C 412.535156 245.277344 423.371094 252.554688 430.648438 263.53125 Z M 425.050781 253.003906 L 433.449219 244.941406 C 434.234375 249.53125 433.898438 255.578125 432.21875 260.285156 Z M 419.003906 369.484375 C 421.242188 356.492188 406.90625 349.4375 398.394531 342.492188 C 399.625 339.46875 401.53125 337.898438 403.65625 335.210938 C 409.769531 339.761719 416.746094 344.386719 421.789063 350.117188 C 428.511719 357.757813 429.207031 364.460938 428.777344 371.503906 C 428.175781 381.296875 423.398438 380.609375 415.949219 380.507813 C 408.203125 380.402344 400.15625 378.394531 393.914063 374.746094 C 397.9375 372.296875 401.433594 369.351563 404.039063 367.644531 C 407.367188 370.667969 417.234375 371.097656 419.003906 369.484375 Z M 406.011719 365.898438 L 414.382813 359.878906 C 417.132813 361.773438 418.507813 367.257813 415.121094 368.1875 C 412.71875 368.847656 408.597656 368.117188 406.011719 365.898438 Z M 392.792969 357.226563 C 390.371094 358.96875 385.234375 362.160156 382.714844 364.332031 C 375.941406 349.746094 387.277344 331.128906 403.183594 318.777344 C 406.140625 320.3125 409.167969 322.421875 412.058594 324.347656 C 397.972656 335.222656 390.148438 347.222656 392.792969 357.226563 Z M 299.160156 340.476563 L 309.242188 333.644531 C 318.875 340.921875 338.363281 355.371094 338.363281 355.371094 C 337.914063 358.507813 334.328125 361.085938 331.867188 362.652344 C 320.777344 356.605469 309.800781 348.765625 299.160156 340.476563 Z M 327.386719 363.4375 C 322.347656 366.460938 313.300781 365.84375 309.71875 363.941406 L 318.539063 357.386719 Z M 120.632813 362.652344 C 118.171875 361.085938 114.585938 358.507813 114.136719 355.371094 C 114.136719 355.371094 133.625 340.921875 143.257813 333.644531 L 153.339844 340.476563 C 142.699219 348.765625 131.722656 356.605469 120.632813 362.652344 Z M 133.960938 357.386719 L 142.78125 363.941406 C 139.199219 365.84375 130.152344 366.460938 125.113281 363.4375 Z M 40.441406 324.347656 C 43.332031 322.421875 46.359375 320.3125 49.316406 318.777344 C 65.222656 331.128906 76.558594 349.746094 69.785156 364.332031 C 67.265625 362.160156 62.128906 358.96875 59.707031 357.226563 C 62.351563 347.222656 54.527344 335.222656 40.441406 324.347656 Z M 56.121094 354.589844 C 53.65625 353.355469 51.195313 351.003906 49.066406 349.378906 C 50.96875 348.035156 53.324219 345.628906 55.339844 344.507813 L 56.121094 345.738281 C 57.382813 348.875 58.699219 352.570313 56.121094 354.589844 Z M 41.5625 294.109375 C 41.785156 291.644531 46.265625 288.730469 47.273438 288.507813 C 58.699219 295.898438 70.65625 302.507813 81.546875 310.234375 C 79.082031 311.914063 76.730469 313.484375 74.265625 315.050781 C 63.179688 308.554688 52.652344 300.714844 41.5625 294.109375 Z M 47.273438 300.605469 C 44.585938 302.257813 40.722656 304.746094 39.015625 305.699219 C 39.015625 305.699219 36.128906 301.050781 39.996094 296.125 C 42.570313 297.132813 44.808594 299.035156 47.273438 300.605469 Z M 40.441406 99.789063 C 41.898438 97.214844 44.699219 95.757813 46.828125 93.742188 C 58.363281 102.253906 70.683594 109.085938 81.882813 117.933594 L 75.050781 122.75 C 62.953125 116.476563 51.867188 107.628906 40.441406 99.789063 Z M 48.058594 107.851563 C 45.59375 109.53125 42.121094 112.667969 39.546875 113.117188 C 38.425781 109.867188 36.523438 104.828125 39.546875 101.804688 Z M 80.3125 85.230469 C 77.515625 87.019531 74.628906 89.035156 71.800781 90.492188 C 60.828125 83.214844 48.953125 76.382813 39.210938 67.980469 L 45.59375 62.269531 C 49.179688 62.828125 72.585938 79.292969 80.3125 85.230469 Z M 47.945313 60.28125 C 50.523438 57.871094 53.65625 54.878906 56.90625 53.867188 L 58.109375 56.304688 C 58.78125 59.441406 58.699219 63.054688 56.121094 65.515625 C 53.324219 63.949219 50.632813 61.625 47.945313 60.28125 Z M 104.117188 64.222656 C 107.980469 73.792969 119.421875 80.304688 127.914063 85.675781 C 124.863281 87.105469 122.039063 89.554688 118.84375 91.0625 C 106.496094 84.410156 96.757813 80.382813 93.085938 66.308594 C 91.183594 59.023438 90.945313 52 96.554688 45.917969 L 104.507813 50.957031 C 102.355469 55.160156 102.414063 60 104.117188 64.222656 Z M 141.101563 45.019531 C 143.285156 46.027344 146.757813 47.820313 150.34375 49.835938 C 138.132813 58.011719 127.128906 66.386719 115.144531 74.226563 C 112.792969 72.097656 110.328125 69.996094 108.984375 67.53125 Z M 126.234375 52.1875 C 123.433594 49.613281 120.523438 47.484375 117.386719 45.804688 C 123.210938 42.222656 132.28125 42.222656 138.328125 44.125 C 134.746094 47.035156 130.9375 49.949219 126.234375 52.1875 Z M 212.136719 45.355469 C 221.042969 41.109375 230.460938 40.636719 240.363281 45.355469 C 232.203125 55.605469 226.117188 73.117188 231.035156 94.015625 C 233.277344 103.550781 234.378906 105.421875 239.367188 107.835938 C 239.683594 107.984375 239.945313 108.269531 239.300781 108.523438 C 238.09375 109 236.070313 110.488281 234.464844 115.097656 C 227.910156 133.875 230.394531 158.164063 240.363281 172.8125 C 235.65625 175.835938 230.785156 178.703125 226.308594 181.949219 C 226.308594 181.949219 216.839844 175.835938 212.136719 172.8125 C 222.105469 158.164063 224.589844 133.875 218.035156 115.097656 C 216.429688 110.488281 214.40625 109 213.199219 108.523438 C 212.554688 108.269531 212.816406 107.984375 213.132813 107.835938 C 218.121094 105.421875 219.21875 103.550781 221.464844 94.015625 C 226.382813 73.117188 220.296875 55.605469 212.136719 45.355469 Z M 210.121094 43.339844 L 203.429688 36.761719 C 211.898438 29.257813 231.796875 25.023438 249.070313 36.761719 L 242.378906 43.339844 C 228.855469 37.933594 222.648438 38.328125 210.121094 43.339844 Z M 343.515625 67.53125 C 342.171875 69.996094 339.707031 72.097656 337.355469 74.226563 C 325.371094 66.386719 314.367188 58.011719 302.15625 49.835938 C 305.742188 47.820313 309.214844 46.027344 311.398438 45.019531 Z M 314.171875 44.125 C 320.21875 42.222656 329.289063 42.222656 335.113281 45.804688 C 331.976563 47.484375 329.066406 49.613281 326.265625 52.1875 C 321.5625 49.949219 317.753906 47.035156 314.171875 44.125 Z M 347.992188 50.957031 L 355.945313 45.917969 C 361.554688 52 361.316406 59.023438 359.414063 66.308594 C 355.742188 80.382813 346.003906 84.410156 333.65625 91.0625 C 330.460938 89.554688 327.636719 87.105469 324.585938 85.675781 C 333.078125 80.304688 344.519531 73.792969 348.382813 64.222656 C 350.085938 60 350.144531 55.160156 347.992188 50.957031 Z M 406.90625 62.269531 L 413.289063 67.980469 C 403.546875 76.382813 391.675781 83.214844 380.699219 90.492188 C 377.871094 89.035156 374.984375 87.019531 372.1875 85.230469 C 379.914063 79.292969 403.320313 62.828125 406.90625 62.269531 Z M 396.378906 65.515625 C 393.800781 63.054688 393.71875 59.441406 394.390625 56.304688 L 395.59375 53.867188 C 398.84375 54.878906 401.976563 57.871094 404.554688 60.28125 C 401.867188 61.625 399.179688 63.949219 396.378906 65.515625 Z M 377.449219 122.75 L 370.617188 117.933594 C 381.816406 109.085938 394.136719 102.253906 405.675781 93.742188 C 407.800781 95.757813 410.601563 97.214844 412.058594 99.789063 C 400.632813 107.628906 389.546875 116.476563 377.449219 122.75 Z M 412.953125 101.804688 C 415.976563 104.828125 414.074219 109.867188 412.953125 113.117188 C 410.378906 112.667969 406.90625 109.53125 404.441406 107.851563 Z M 378.234375 315.050781 C 375.769531 313.484375 373.417969 311.914063 370.953125 310.234375 C 381.847656 302.507813 393.800781 295.898438 405.226563 288.507813 C 406.234375 288.730469 410.714844 291.644531 410.9375 294.109375 C 399.851563 300.714844 389.320313 308.554688 378.234375 315.050781 Z M 412.503906 296.125 C 416.371094 301.050781 413.484375 305.699219 413.484375 305.699219 C 411.777344 304.746094 407.914063 302.257813 405.226563 300.605469 C 407.691406 299.035156 409.929688 297.132813 412.503906 296.125 Z M 391.171875 309.898438 C 395.082031 312.230469 398.007813 314.742188 401.195313 317.292969 L 393.214844 323.789063 C 388.285156 321.4375 385.066406 319.195313 380.699219 316.730469 Z M 330.632813 315.949219 L 321.339844 310.234375 C 332.3125 301.277344 344.746094 293.996094 356.507813 286.042969 L 365.355469 292.09375 C 355.386719 300.941406 342.171875 308.667969 330.632813 315.949219 Z M 344.746094 309.453125 C 349.113281 311.019531 352.585938 314.492188 356.507813 317.066406 L 344.746094 325.132813 C 341.050781 323.453125 337.019531 320.09375 333.433594 317.964844 Z M 87.144531 292.09375 L 95.992188 286.042969 C 107.753906 293.996094 120.1875 301.277344 131.160156 310.234375 L 121.867188 315.949219 C 110.328125 308.667969 97.113281 300.941406 87.144531 292.09375 Z M 119.066406 317.964844 C 115.480469 320.09375 111.449219 323.453125 107.753906 325.132813 L 95.992188 317.066406 C 99.914063 314.492188 103.386719 311.019531 107.753906 309.453125 Z M 68.21875 236.878906 C 69.675781 235.421875 76.953125 230.703125 79.152344 229.558594 C 84.765625 229.910156 91.484375 235.617188 97.675781 239.339844 C 92.523438 247.515625 93.304688 258.378906 98.457031 266.332031 C 94.875 268.683594 87.59375 272.015625 84.234375 274.929688 C 79.390625 272.070313 76.980469 269.691406 72.699219 267.117188 C 75.945313 258.042969 73.929688 244.714844 68.21875 236.878906 Z M 72.25 140.894531 C 75.945313 138.09375 80.117188 135.125 84.792969 132.828125 L 97.675781 141.675781 C 92.859375 150.972656 92.632813 161.835938 99.242188 170.347656 C 94.257813 173.765625 89.386719 176.398438 84.792969 179.980469 L 69.785156 171.582031 L 74.714844 162.285156 C 76.28125 155.117188 75.496094 146.71875 72.25 140.894531 Z M 126.683594 117.148438 L 118.617188 122.414063 C 106.410156 115.582031 94.761719 105.726563 83.5625 98.222656 C 86.894531 95.730469 88.828125 94.105469 91.960938 92.171875 C 102.824219 101.355469 115.59375 107.515625 126.683594 117.148438 Z M 93.640625 90.941406 L 102.9375 84.894531 C 107.417969 88.363281 112.234375 90.242188 116.964844 92.816406 C 113.382813 95.167969 109.910156 97.410156 106.523438 99.789063 C 101.816406 96.988281 98.121094 94.1875 93.640625 90.941406 Z M 360.539063 92.171875 C 363.675781 94.105469 365.605469 95.730469 368.9375 98.222656 C 357.738281 105.726563 346.089844 115.582031 333.882813 122.414063 L 325.816406 117.148438 C 336.90625 107.515625 349.675781 101.355469 360.539063 92.171875 Z M 345.976563 99.789063 C 342.589844 97.410156 339.117188 95.167969 335.535156 92.816406 C 340.265625 90.242188 345.082031 88.363281 349.5625 84.894531 L 358.859375 90.941406 C 354.378906 94.1875 350.683594 96.988281 345.976563 99.789063 Z M 377.785156 162.285156 L 382.714844 171.582031 L 367.707031 179.980469 C 363.113281 176.398438 358.242188 173.765625 353.257813 170.347656 C 359.867188 161.835938 359.640625 150.972656 354.824219 141.675781 L 367.707031 132.828125 C 372.382813 135.125 376.554688 138.09375 380.25 140.894531 C 377.003906 146.71875 376.21875 155.117188 377.785156 162.285156 Z M 379.800781 267.117188 C 375.519531 269.691406 373.109375 272.070313 368.265625 274.929688 C 364.90625 272.015625 357.625 268.683594 354.042969 266.332031 C 359.195313 258.378906 359.976563 247.515625 354.824219 239.339844 C 361.015625 235.617188 367.734375 229.910156 373.347656 229.558594 C 375.546875 230.703125 382.824219 235.421875 384.28125 236.878906 C 378.570313 244.714844 376.554688 258.042969 379.800781 267.117188 Z M 250.777344 212.683594 C 252.855469 211.421875 257.78125 208.132813 259.570313 206.929688 C 263.621094 209.460938 288.632813 225.339844 295.128906 230.378906 L 286.730469 236.09375 C 279.226563 232.507813 254.699219 215.371094 250.777344 212.683594 Z M 259.738281 221.5625 C 256.519531 223.519531 252.289063 226.601563 250.105469 228.589844 L 238.851563 220.636719 L 248.425781 213.914063 Z M 184.699219 270.363281 C 183.578125 266.554688 180.21875 263.980469 177.53125 261.515625 L 185.59375 256.589844 C 189.671875 260.183594 193.117188 264.296875 195.734375 268.796875 C 202.148438 279.824219 197.515625 281.707031 181.734375 280.9375 C 167.023438 280.21875 152 276.441406 133.960938 261.515625 C 136.3125 259.722656 139.339844 257.933594 142.027344 255.804688 C 154.457031 264.875 169.914063 275.292969 184.699219 270.363281 Z M 168.570313 267.898438 L 174.617188 263.53125 C 177.417969 263.980469 179.992188 266.21875 181.113281 268.683594 C 177.195313 270.253906 171.929688 269.46875 168.570313 267.898438 Z M 143.59375 239.675781 C 147.402344 241.132813 151.210938 242.140625 154.457031 244.492188 C 150.257813 247.683594 122.847656 265.96875 117.777344 269.242188 C 114.472656 266.921875 112.652344 263.699219 110.664063 260.5625 C 121.082031 254.292969 132.644531 246.089844 143.59375 239.675781 Z M 109.714844 258.042969 C 108.257813 255.242188 108.707031 250.289063 110.945313 248.382813 C 112.960938 250.175781 115.285156 251.96875 117.835938 253.789063 C 115.59375 255.46875 111.953125 256.894531 109.714844 258.042969 Z M 130.265625 245.722656 C 128.25 243.597656 124.890625 241.804688 122.648438 239.675781 C 127.242188 236.988281 134.410156 237.996094 139.5625 238.894531 C 136.539063 241.523438 133.988281 243.457031 130.265625 245.722656 Z M 131.160156 263.085938 L 141.578125 269.578125 L 128.699219 277.980469 C 124.890625 277.421875 121.867188 273.386719 119.402344 271.148438 C 123.320313 268.460938 127.019531 265.210938 131.160156 263.085938 Z M 144.378906 254.234375 C 148.410156 251.996094 156.808594 245.753906 156.808594 245.753906 C 160.058594 248.246094 163.195313 250.765625 165.433594 253.453125 L 153.253906 260.761719 C 153.253906 260.761719 147.738281 256.253906 144.378906 254.234375 Z M 120.046875 237.605469 C 115.875 235.167969 113.464844 233.628906 110.105469 231.277344 C 132.058594 217.613281 159.050781 230.378906 174.617188 247.402344 C 172.601563 249.308594 170.027344 250.09375 167.785156 251.773438 C 155.578125 240.234375 137.519531 232.339844 120.046875 237.605469 Z M 107.949219 229.398438 C 104.367188 226.9375 97.113281 221.617188 97.113281 221.617188 C 109.375 215.871094 141.695313 212.726563 164.203125 222.765625 C 160.730469 225.339844 157.257813 227.1875 154.039063 228.671875 C 133.765625 220.644531 119.132813 222.066406 107.949219 229.398438 Z M 128.335938 246.789063 C 125.953125 248.804688 122.929688 250.484375 119.851563 252.21875 C 118.617188 250.878906 92.605469 232.480469 82.863281 228.226563 C 86.195313 225.761719 90.226563 223.546875 93.558594 222.34375 C 96.246094 224.277344 119.820313 240.402344 128.335938 246.789063 Z M 108.984375 246.507813 C 100.128906 256.25 113.363281 268.984375 125.449219 280.445313 L 119.851563 284.476563 C 108.078125 279.519531 98.695313 263.855469 97.085938 255.765625 C 96.03125 250.488281 96.539063 245.058594 100.472656 240.90625 Z M 116.601563 286.042969 L 108.902344 291.335938 C 105.375 288.59375 102.519531 287.023438 98.90625 284.8125 L 107.304688 279.660156 C 109.992188 281.898438 113.355469 285.035156 116.601563 286.042969 Z M 143.230469 271.503906 C 145.125 272.359375 147.738281 274.554688 150.984375 276.105469 L 119.121094 298.222656 C 116.714844 296.738281 114.136719 294.667969 111.003906 292.875 C 111.003906 292.875 135.4375 276.539063 143.230469 271.503906 Z M 154.121094 277.644531 C 160.546875 279.820313 176.554688 283.53125 185.789063 283.480469 C 193.1875 283.441406 205.71875 283.367188 199.304688 270.730469 C 196.4375 265.078125 191.828125 259.757813 187.609375 255.019531 L 199.257813 246.957031 C 201.835938 248.859375 203.515625 251.882813 204.855469 254.570313 C 208.3125 260.136719 210.78125 267.238281 211.550781 274.183594 C 213.171875 288.78125 212.996094 289.8125 199.914063 291.441406 C 179.789063 293.945313 146.910156 290.59375 142.027344 285.707031 Z M 164.984375 267.5625 C 161.738281 266.554688 158.125 264.484375 155.4375 262.355469 C 159.246094 260.117188 191.195313 238.894531 191.195313 238.894531 L 198.027344 245.386719 C 187.273438 253.226563 175.402344 260.394531 164.984375 267.5625 Z M 177.082031 245.722656 C 174.394531 243.148438 171.035156 240.011719 169.019531 237.660156 L 179.097656 230.828125 C 182.792969 232.0625 186.488281 234.523438 189.179688 237.324219 C 185.144531 240.125 181.113281 242.925781 177.082031 245.722656 Z M 165.769531 236.09375 L 157.371094 230.378906 C 163.867188 225.339844 188.878906 209.460938 192.929688 206.929688 C 194.71875 208.132813 199.644531 211.421875 201.722656 212.683594 C 197.800781 215.371094 173.273438 232.507813 165.769531 236.09375 Z M 113.371094 167.707031 C 119.855469 173.128906 130.621094 175.300781 143.257813 172.8125 C 145.945313 175.054688 148.996094 176.84375 151.65625 178.859375 C 138.59375 180.976563 121.5 184.019531 108.425781 176.492188 C 96.972656 169.898438 93.105469 151.71875 99.539063 143.03125 C 100.523438 144.082031 105.761719 147.699219 107.347656 148.875 C 104.84375 156.511719 107.148438 162.503906 113.371094 167.707031 Z M 180.558594 143.421875 C 185.703125 133.738281 182.683594 134.460938 176.289063 135.445313 C 172 136.105469 167.882813 137.914063 164.203125 140.109375 L 156.921875 134.84375 C 164.769531 130.296875 175.613281 125.152344 185.652344 126.449219 C 193.101563 127.410156 193.144531 127.1875 191.984375 135.304688 C 189.765625 150.835938 179.441406 163.6875 165.433594 171.917969 L 156.921875 166.316406 C 165.085938 159.722656 175.402344 153.128906 180.558594 143.421875 Z M 175.066406 146.941406 C 172.265625 145.035156 168.792969 143.804688 166.554688 141.339844 C 170.585938 139.324219 175.625 136.75 179.546875 138.09375 C 179.210938 141.003906 177.195313 144.253906 175.066406 146.941406 Z M 133.960938 163.515625 L 142.363281 158.253906 C 142.363281 158.253906 173.609375 179.980469 177.53125 182.445313 C 174.644531 184.097656 172.265625 186.476563 169.019531 187.261719 C 168.347656 186.699219 144.042969 172.027344 133.960938 163.515625 Z M 140.792969 170.796875 C 140.792969 170.796875 132.421875 173.570313 124.21875 170.347656 C 126.878906 168.585938 129.175781 166.679688 131.945313 165.085938 Z M 167.785156 173.148438 C 171.035156 170.796875 174.28125 168.332031 177.53125 165.867188 C 181.449219 167.996094 185.480469 170.910156 188.730469 173.597656 L 178.789063 180.960938 C 175.289063 178.132813 171.035156 176.171875 167.785156 173.148438 Z M 155.1875 164.46875 L 144.042969 157.019531 C 147.710938 154.894531 150.847656 152.289063 154.457031 149.742188 L 164.984375 157.46875 C 161.933594 159.90625 158.964844 162.507813 155.1875 164.46875 Z M 121.027344 169.535156 C 118.308594 168.445313 114.136719 166.429688 113.355469 163.851563 C 121.558594 159.457031 140.613281 146.453125 145.335938 143.761719 C 146.382813 144.613281 150.171875 146.714844 152.664063 148.367188 C 143.59375 154.976563 121.027344 169.535156 121.027344 169.535156 Z M 111.003906 161.835938 C 109.320313 159.148438 108.539063 155.675781 108.984375 152.652344 L 109.769531 150.636719 C 113.15625 152.765625 117.050781 155.675781 120.1875 157.804688 C 116.601563 159.738281 114.136719 161.949219 111.003906 161.835938 Z M 109.265625 179.785156 C 123.546875 187.46875 148.320313 182.917969 153.289063 180.78125 C 156.910156 182.769531 161.441406 185.667969 166.21875 188.941406 C 166.21875 188.941406 128.855469 207.367188 98.011719 187.261719 C 102.210938 184.039063 105.121094 182.695313 109.265625 179.785156 Z M 132.589844 199.304688 C 153.695313 199.242188 174.980469 188.503906 191.195313 174.828125 L 199.257813 180.878906 C 190.410156 190.394531 177.753906 198.125 165.097656 203.054688 C 160.066406 205.148438 153.492188 205.785156 149.285156 205.09375 C 138.992188 203.398438 128.613281 204.300781 119.425781 204.996094 C 107.550781 205.894531 96.363281 205.445313 86.363281 195.324219 C 89.414063 193.140625 91.933594 192.019531 95.292969 189.695313 C 107.011719 196.207031 119.574219 199.34375 132.589844 199.304688 Z M 201.722656 181.996094 L 212.921875 190.0625 C 209.394531 192.523438 206.59375 194.371094 202.84375 196.726563 C 199.417969 194.089844 196.425781 192.195313 193.210938 190.003906 Z M 180.664063 197.789063 L 190.492188 204.761719 C 186.6875 208.230469 182.683594 210.78125 177.867188 213.46875 C 171.144531 210.21875 163.867188 208.203125 156.472656 206.1875 C 165.320313 206.300781 173.160156 201.820313 180.664063 197.789063 Z M 203.792969 214.335938 L 213.371094 220.636719 L 202.394531 228.589844 C 200.210938 226.601563 195.980469 223.519531 192.761719 221.5625 Z M 182.683594 196.109375 L 190.746094 191.292969 C 201.835938 198.125 212.808594 207.195313 224.234375 213.914063 C 221.65625 216.15625 218.632813 217.390625 215.835938 219.179688 C 204.632813 211.898438 192.984375 204.84375 182.683594 196.109375 Z M 216.171875 205.851563 C 219.53125 203.5 223.347656 201.15625 226.34375 198.972656 C 226.34375 198.972656 232.96875 203.5 236.328125 205.851563 C 232.617188 208.148438 229.863281 210.3125 226.277344 212.273438 C 226.277344 212.273438 219.976563 207.867188 216.171875 205.851563 Z M 228.957031 197.855469 L 236.890625 192.488281 L 246.457031 198.320313 L 237.636719 203.875 Z M 239.578125 190.0625 L 250.777344 181.996094 L 259.289063 190.003906 C 256.074219 192.195313 253.082031 194.089844 249.65625 196.726563 C 245.90625 194.371094 243.105469 192.523438 239.578125 190.0625 Z M 253.242188 180.878906 L 261.304688 174.828125 C 277.519531 188.503906 298.804688 199.242188 319.910156 199.304688 C 332.925781 199.34375 345.488281 196.207031 357.207031 189.695313 C 360.566406 192.019531 363.085938 193.140625 366.136719 195.324219 C 356.136719 205.445313 344.949219 205.894531 333.074219 204.996094 C 323.886719 204.300781 313.507813 203.398438 303.214844 205.09375 C 299.007813 205.785156 292.433594 205.148438 287.402344 203.054688 C 274.746094 198.125 262.089844 190.394531 253.242188 180.878906 Z M 276.210938 135.445313 C 269.816406 134.460938 266.796875 133.738281 271.941406 143.421875 C 277.097656 153.128906 287.414063 159.722656 295.578125 166.316406 L 287.066406 171.917969 C 273.058594 163.6875 262.734375 150.835938 260.515625 135.304688 C 259.355469 127.1875 259.398438 127.410156 266.847656 126.449219 C 276.886719 125.152344 287.730469 130.296875 295.578125 134.84375 L 288.296875 140.109375 C 284.617188 137.914063 280.5 136.105469 276.210938 135.445313 Z M 285.945313 141.339844 C 283.707031 143.804688 280.234375 145.035156 277.433594 146.941406 C 275.304688 144.253906 273.289063 141.003906 272.953125 138.09375 C 276.875 136.75 281.914063 139.324219 285.945313 141.339844 Z M 345.152344 148.875 C 346.738281 147.699219 351.976563 144.082031 352.960938 143.03125 C 359.394531 151.71875 355.527344 169.898438 344.074219 176.492188 C 331 184.019531 313.90625 180.976563 300.84375 178.859375 C 303.503906 176.84375 306.554688 175.054688 309.242188 172.8125 C 321.878906 175.300781 332.644531 173.128906 339.128906 167.707031 C 345.351563 162.503906 347.65625 156.511719 345.152344 148.875 Z M 283.480469 187.261719 C 280.234375 186.476563 277.855469 184.097656 274.96875 182.445313 C 278.890625 179.980469 310.136719 158.253906 310.136719 158.253906 L 318.539063 163.515625 C 308.457031 172.027344 284.152344 186.699219 283.480469 187.261719 Z M 320.554688 165.085938 C 323.324219 166.679688 325.621094 168.585938 328.28125 170.347656 C 320.078125 173.570313 311.707031 170.796875 311.707031 170.796875 Z M 299.210938 180.78125 C 304.179688 182.917969 328.953125 187.46875 343.234375 179.785156 C 347.378906 182.695313 350.289063 184.039063 354.488281 187.261719 C 323.644531 207.367188 286.28125 188.941406 286.28125 188.941406 C 291.058594 185.667969 295.589844 182.769531 299.210938 180.78125 Z M 341.496094 161.835938 C 338.363281 161.949219 335.898438 159.738281 332.3125 157.804688 C 335.449219 155.675781 339.34375 152.765625 342.730469 150.636719 L 343.515625 152.652344 C 343.960938 155.675781 343.179688 159.148438 341.496094 161.835938 Z M 339.144531 163.851563 C 338.363281 166.429688 334.191406 168.445313 331.472656 169.535156 C 331.472656 169.535156 308.90625 154.976563 299.835938 148.367188 C 302.328125 146.714844 306.117188 144.613281 307.164063 143.761719 C 311.886719 146.453125 330.941406 159.457031 339.144531 163.851563 Z M 308.457031 157.019531 L 297.3125 164.46875 C 293.535156 162.507813 290.566406 159.90625 287.515625 157.46875 L 298.042969 149.742188 C 301.652344 152.289063 304.789063 154.894531 308.457031 157.019531 Z M 284.714844 173.148438 C 281.464844 176.171875 277.210938 178.132813 273.710938 180.960938 L 263.769531 173.597656 C 267.019531 170.910156 271.050781 167.996094 274.96875 165.867188 C 278.21875 168.332031 281.464844 170.796875 284.714844 173.148438 Z M 296.027344 206.1875 C 288.632813 208.203125 281.355469 210.21875 274.632813 213.46875 C 269.816406 210.78125 265.113281 208.09375 261.304688 204.621094 L 271.835938 197.789063 C 279.339844 201.820313 287.179688 206.300781 296.027344 206.1875 Z M 267.800781 270.363281 C 282.585938 275.292969 298.042969 264.875 310.472656 255.804688 C 313.160156 257.933594 316.1875 259.722656 318.539063 261.515625 C 300.5 276.441406 285.476563 280.21875 270.765625 280.9375 C 254.984375 281.707031 250.351563 279.824219 256.765625 268.796875 C 259.382813 264.296875 262.828125 260.183594 266.90625 256.589844 L 274.96875 261.515625 C 272.28125 263.980469 268.921875 266.554688 267.800781 270.363281 Z M 277.882813 263.53125 L 283.929688 267.898438 C 280.570313 269.46875 275.304688 270.253906 271.386719 268.683594 C 272.507813 266.21875 275.082031 263.980469 277.882813 263.53125 Z M 341.835938 260.5625 C 339.847656 263.699219 338.027344 266.921875 334.722656 269.242188 C 329.652344 265.96875 302.242188 247.683594 298.042969 244.492188 C 301.289063 242.140625 305.097656 241.132813 308.90625 239.675781 C 319.855469 246.089844 331.417969 254.292969 341.835938 260.5625 Z M 334.664063 253.789063 C 337.214844 251.96875 339.539063 250.175781 341.554688 248.382813 C 343.792969 250.289063 344.242188 255.242188 342.785156 258.042969 C 340.546875 256.894531 336.90625 255.46875 334.664063 253.789063 Z M 312.9375 238.894531 C 318.089844 237.996094 325.257813 236.988281 329.851563 239.675781 C 327.609375 241.804688 324.25 243.597656 322.234375 245.722656 C 318.511719 243.457031 315.960938 241.523438 312.9375 238.894531 Z M 284.714844 251.773438 C 282.472656 250.09375 279.898438 249.308594 277.882813 247.402344 C 293.449219 230.378906 320.441406 217.613281 342.394531 231.277344 C 339.035156 233.628906 336.625 235.167969 332.453125 237.605469 C 314.980469 232.339844 296.921875 240.234375 284.714844 251.773438 Z M 295.691406 245.753906 C 295.691406 245.753906 304.089844 251.996094 308.121094 254.234375 C 304.761719 256.253906 299.246094 260.761719 299.246094 260.761719 L 287.066406 253.453125 C 289.304688 250.765625 292.441406 248.246094 295.691406 245.753906 Z M 321.339844 263.085938 C 325.480469 265.210938 329.179688 268.460938 333.097656 271.148438 C 330.632813 273.386719 327.609375 277.421875 323.800781 277.980469 L 310.921875 269.578125 Z M 343.515625 246.507813 L 352.027344 240.90625 C 355.960938 245.058594 356.46875 250.488281 355.414063 255.765625 C 353.804688 263.855469 344.421875 279.519531 332.648438 284.476563 L 327.050781 280.445313 C 339.136719 268.984375 352.371094 256.25 343.515625 246.507813 Z M 332.648438 252.21875 C 329.570313 250.484375 326.546875 248.804688 324.164063 246.789063 C 332.679688 240.402344 356.253906 224.277344 358.941406 222.34375 C 362.273438 223.546875 366.304688 225.761719 369.636719 228.226563 C 359.894531 232.480469 333.882813 250.878906 332.648438 252.21875 Z M 344.550781 229.398438 C 333.367188 222.066406 318.734375 220.644531 298.460938 228.671875 C 295.242188 227.1875 291.769531 225.339844 288.296875 222.765625 C 310.804688 212.726563 343.125 215.871094 355.386719 221.617188 C 355.386719 221.617188 348.132813 226.9375 344.550781 229.398438 Z M 283.480469 237.660156 C 281.464844 240.011719 278.105469 243.148438 275.417969 245.722656 C 271.386719 242.925781 267.355469 240.125 263.320313 237.324219 C 266.011719 234.523438 269.707031 232.0625 273.402344 230.828125 Z M 297.0625 262.355469 C 294.375 264.484375 290.761719 266.554688 287.515625 267.5625 C 277.097656 260.394531 265.226563 253.226563 254.472656 245.386719 L 261.304688 238.894531 C 261.304688 238.894531 293.253906 260.117188 297.0625 262.355469 Z M 264.890625 255.019531 C 260.671875 259.757813 256.0625 265.078125 253.195313 270.730469 C 246.78125 283.367188 259.3125 283.441406 266.710938 283.480469 C 275.945313 283.53125 291.953125 279.820313 298.378906 277.644531 L 310.472656 285.707031 C 305.589844 290.59375 272.710938 293.945313 252.585938 291.441406 C 239.503906 289.8125 239.328125 288.78125 240.949219 274.183594 C 241.71875 267.238281 244.1875 260.136719 247.644531 254.570313 C 248.984375 251.882813 250.664063 248.859375 253.242188 246.957031 Z M 301.515625 276.105469 C 304.761719 274.554688 307.375 272.359375 309.269531 271.503906 C 317.0625 276.539063 341.496094 292.875 341.496094 292.875 C 338.363281 294.667969 335.785156 296.738281 333.378906 298.222656 Z M 335.898438 286.042969 C 339.144531 285.035156 342.507813 281.898438 345.195313 279.660156 L 353.59375 284.8125 C 349.980469 287.023438 347.125 288.59375 343.597656 291.335938 Z M 345.976563 276.746094 L 352.472656 268.683594 C 366.136719 275.964844 377.925781 284.335938 390.695313 293.96875 C 387.671875 296.179688 384.730469 298.253906 381.480469 300.15625 C 369.609375 292.988281 357.625 285.035156 345.976563 276.746094 Z M 344.730469 215.621094 C 327.714844 212.210938 303.597656 214.007813 286.308594 220.578125 C 282.734375 218.636719 276.648438 215.148438 276.648438 215.148438 C 289.160156 208.449219 305.769531 206.300781 322.132813 206.367188 C 349.410156 206.480469 377.003906 214.257813 391.113281 228.363281 L 385.851563 234.859375 C 370.949219 224.605469 357.410156 218.164063 344.730469 215.621094 Z M 350.011719 206.636719 C 356.730469 205.515625 362.945313 200.980469 367.707031 197.003906 C 372.746094 200.085938 376.496094 202.632813 380.671875 206.21875 C 378.09375 208.566406 374.984375 210.667969 371.515625 212.574219 C 365.019531 209.324219 356.394531 207.980469 350.011719 206.636719 Z M 345.53125 178.410156 C 347.882813 176.84375 350.625 174.605469 352.027344 172.363281 C 365.578125 180.652344 378.683594 189.835938 391.898438 198.574219 C 389.238281 200.253906 386 203.15625 382.972656 205.097656 C 376.925781 199.734375 356.058594 186.589844 345.53125 178.410156 Z M 348.359375 115.640625 C 350.988281 113.839844 353.613281 111.96875 356.058594 109.867188 C 363.226563 115.804688 385.738281 131.148438 389.882813 132.492188 C 386.523438 133.613281 384.730469 136.300781 381.816406 138.878906 C 376.214844 136.347656 354.359375 120.671875 348.359375 115.640625 Z M 357.625 108.636719 C 361.65625 105.613281 370.617188 99.339844 370.617188 99.339844 C 374.539063 101.46875 378.011719 104.71875 381.816406 107.070313 L 368.9375 116.363281 C 364.988281 114.320313 361.210938 110.988281 357.625 108.636719 Z M 346.402344 116.964844 L 356.421875 123.996094 L 345.976563 131.597656 C 342.507813 128.796875 340.546875 125.464844 336.625 124.007813 C 339.609375 121.320313 342.828125 119.382813 346.402344 116.964844 Z M 358.683594 125.582031 L 366.136719 130.8125 C 354.488281 139.550781 341.835938 148.507813 329.851563 156.238281 L 321.785156 150.972656 C 333.171875 142.574219 346.703125 133.253906 358.683594 125.582031 Z M 319.769531 149.742188 C 316.296875 147.390625 312.601563 145.035156 309.691406 142.125 L 323.355469 132.828125 C 326.714844 135.515625 330.859375 136.636719 333.433594 140.109375 C 329.960938 142.910156 324.699219 147.390625 319.769531 149.742188 Z M 285.496094 155.789063 C 283.144531 154.109375 280.570313 151.53125 279.003906 149.40625 C 289.304688 141.789063 300.171875 133.726563 311.257813 127.230469 C 314.394531 128.347656 318.203125 129.691406 320.21875 132.046875 C 309.128906 140.109375 297.144531 148.398438 285.496094 155.789063 Z M 297.539063 133.277344 C 289.703125 128.828125 277.207031 123.738281 265.722656 124.570313 C 257.648438 125.15625 257.09375 126.953125 257.609375 131.710938 C 258.542969 140.289063 260.9375 148.191406 265.476563 155.339844 C 261.558594 157.972656 255.816406 161.023438 251.226563 164.832031 C 248.355469 158.476563 243.476563 145.394531 244.929688 130.835938 C 245.9375 120.773438 248.769531 119.347656 258.007813 117.9375 C 275.828125 115.21875 303.410156 123.316406 308.90625 125.996094 C 305.433594 127.789063 301.234375 131.148438 297.539063 133.277344 Z M 266.90625 157.46875 L 272.953125 163.851563 C 261.753906 173.148438 215.027344 203.550781 213.816406 204.171875 L 205.054688 198.179688 C 205.054688 198.179688 254.109375 165.617188 266.90625 157.46875 Z M 215.835938 188.941406 C 203.515625 180.988281 190.746094 173.148438 179.546875 163.851563 L 185.59375 157.46875 C 198.390625 165.617188 211.355469 174.71875 224.234375 183.230469 Z M 187.023438 155.339844 C 191.5625 148.191406 193.957031 140.289063 194.890625 131.710938 C 195.40625 126.953125 194.851563 125.15625 186.777344 124.570313 C 175.292969 123.738281 162.796875 128.828125 154.960938 133.277344 C 151.265625 131.148438 147.066406 127.789063 143.59375 125.996094 C 149.089844 123.316406 176.671875 115.21875 194.492188 117.9375 C 203.730469 119.347656 206.5625 120.773438 207.570313 130.835938 C 209.023438 145.394531 204.144531 158.476563 201.273438 164.832031 C 196.683594 161.023438 190.941406 157.972656 187.023438 155.339844 Z M 173.496094 149.40625 C 171.929688 151.53125 169.355469 154.109375 167.003906 155.789063 C 155.355469 148.398438 143.371094 140.109375 132.28125 132.046875 C 134.296875 129.691406 138.105469 128.347656 141.242188 127.230469 C 152.328125 133.726563 163.195313 141.789063 173.496094 149.40625 Z M 142.808594 142.125 C 139.898438 145.035156 136.203125 147.390625 132.730469 149.742188 C 127.800781 147.390625 122.539063 142.910156 119.066406 140.109375 C 121.640625 136.636719 125.785156 135.515625 129.144531 132.828125 Z M 130.714844 150.972656 L 122.648438 156.238281 C 110.664063 148.507813 98.011719 139.550781 86.363281 130.8125 L 93.816406 125.582031 C 105.796875 133.253906 119.328125 142.574219 130.714844 150.972656 Z M 96.078125 123.996094 L 106.09375 116.964844 C 109.671875 119.382813 112.890625 121.320313 115.875 124.007813 C 111.953125 125.464844 109.992188 128.796875 106.523438 131.597656 Z M 94.875 108.636719 C 91.289063 110.988281 87.511719 114.320313 83.5625 116.363281 L 70.683594 107.070313 C 74.488281 104.71875 77.960938 101.46875 81.882813 99.339844 C 81.882813 99.339844 90.84375 105.613281 94.875 108.636719 Z M 96.441406 109.867188 C 98.886719 111.96875 101.511719 113.839844 104.140625 115.640625 C 98.140625 120.671875 76.289063 136.347656 70.683594 138.878906 C 67.769531 136.300781 65.976563 133.613281 62.617188 132.492188 C 66.761719 131.148438 89.273438 115.804688 96.441406 109.867188 Z M 100.472656 172.363281 C 101.875 174.605469 104.617188 176.84375 106.96875 178.410156 C 96.441406 186.589844 75.574219 199.734375 69.527344 205.097656 C 66.5 203.15625 63.261719 200.253906 60.601563 198.574219 C 73.820313 189.835938 86.921875 180.652344 100.472656 172.363281 Z M 84.792969 197.003906 C 89.554688 200.980469 95.769531 205.515625 102.488281 206.636719 C 96.105469 207.980469 87.480469 209.324219 80.984375 212.574219 C 77.515625 210.667969 74.40625 208.566406 71.832031 206.21875 C 76.003906 202.632813 79.753906 200.085938 84.792969 197.003906 Z M 130.367188 206.367188 C 146.730469 206.300781 163.339844 208.449219 175.851563 215.148438 C 175.851563 215.148438 169.765625 218.636719 166.191406 220.578125 C 148.902344 214.007813 124.785156 212.210938 107.769531 215.621094 C 95.089844 218.164063 81.550781 224.605469 66.648438 234.859375 L 61.386719 228.363281 C 75.496094 214.257813 103.089844 206.480469 130.367188 206.367188 Z M 100.027344 268.683594 L 106.523438 276.746094 C 94.875 285.035156 82.890625 292.988281 71.019531 300.15625 C 67.769531 298.253906 64.832031 296.179688 61.804688 293.96875 C 74.574219 284.335938 86.363281 275.964844 100.027344 268.683594 Z M 84.457031 294.050781 C 87.007813 295.226563 91.261719 298.421875 94.875 301.164063 C 90.253906 304.046875 87.089844 306.09375 83.507813 308.21875 L 73.539063 301.332031 C 76.167969 299.289063 80.984375 296.402344 84.457031 294.050781 Z M 121.417969 300.183594 C 123.871094 297.925781 126.0625 296.5 128.949219 294.738281 C 133.578125 294.828125 138.078125 299.132813 149.113281 300.761719 C 149.542969 300.824219 149.527344 301.121094 149.078125 301.234375 C 143.546875 302.621094 138.222656 306.042969 132.730469 308.21875 Z M 131.945313 292.539063 C 131.945313 292.539063 136.425781 289.546875 139.453125 287.464844 C 147.476563 291.882813 176.992188 296.785156 201.484375 293.480469 C 210.628906 292.246094 214.03125 293.753906 214.222656 282.738281 C 214.523438 265.109375 204.941406 241.703125 181.113281 228.8125 C 183.578125 226.910156 187.527344 224.558594 189.988281 222.878906 C 218.722656 239.066406 225.027344 266.058594 222.625 286.820313 C 221.144531 299.621094 219.242188 301.078125 209.878906 301.898438 C 200.585938 302.714844 191.101563 302.773438 182.347656 302.171875 C 164.539063 300.15625 146.84375 300.714844 131.945313 292.539063 Z M 203.597656 230.378906 C 210.070313 225.738281 250.664063 198.125 261.753906 191.292969 L 269.816406 196.109375 C 259.515625 204.84375 214.691406 233.214844 209.644531 236.429688 Z M 236.144531 221.980469 L 247.71875 230.007813 L 241.929688 236.539063 L 228.488281 227.394531 Z M 262.511719 222.878906 C 264.972656 224.558594 268.921875 226.910156 271.386719 228.8125 C 247.558594 241.703125 237.976563 265.109375 238.277344 282.738281 C 238.46875 293.753906 241.871094 292.246094 251.015625 293.480469 C 275.507813 296.785156 305.023438 291.882813 313.046875 287.464844 C 316.074219 289.546875 320.554688 292.539063 320.554688 292.539063 C 305.65625 300.714844 287.960938 300.15625 270.152344 302.171875 C 261.398438 302.773438 251.914063 302.714844 242.621094 301.898438 C 233.257813 301.078125 231.355469 299.621094 229.875 286.820313 C 227.472656 266.058594 233.777344 239.066406 262.511719 222.878906 Z M 303.386719 300.761719 C 314.421875 299.132813 318.921875 294.828125 323.550781 294.738281 C 326.4375 296.5 328.628906 297.925781 331.082031 300.183594 L 319.769531 308.21875 C 314.277344 306.042969 308.953125 302.621094 303.421875 301.234375 C 302.972656 301.121094 302.957031 300.824219 303.386719 300.761719 Z M 368.042969 294.050781 C 371.515625 296.402344 376.328125 299.289063 378.960938 301.332031 L 368.992188 308.21875 C 365.410156 306.09375 362.246094 304.046875 357.625 301.164063 C 361.238281 298.421875 365.492188 295.226563 368.042969 294.050781 Z M 393.605469 292.511719 L 381.957031 284.253906 L 389.882813 278.429688 C 394.585938 281.003906 399.515625 282.796875 403.65625 286.492188 C 400.035156 288.578125 397.246094 290.605469 393.605469 292.511719 Z M 379.800781 282.796875 C 376.105469 282.125 373.53125 278.765625 370.171875 277.195313 C 380.921875 268.90625 404.359375 252.78125 404.359375 252.78125 L 411.722656 260.285156 C 400.324219 268.125 390.664063 275.738281 379.800781 282.796875 Z M 393.914063 257.820313 C 392.457031 255.578125 392.90625 250.988281 393.914063 246.957031 C 396.824219 247.738281 399.179688 249.757813 401.640625 251.773438 Z M 394.480469 241.402344 C 390.253906 245.875 389.089844 254.851563 391.5625 259.5 L 382.265625 265.882813 C 375.992188 249.421875 391.992188 226.21875 405.675781 221.195313 C 407.914063 222.878906 410.460938 224.558594 412.503906 226.347656 C 408.054688 229.597656 396.835938 238.90625 394.480469 241.402344 Z M 393.128906 226.796875 C 390.554688 224.613281 388.539063 221.757813 385.851563 220.410156 C 388.371094 218.285156 391.449219 216.324219 394.613281 214.113281 C 397.609375 215.710938 399.738281 217.277344 402.425781 219.179688 Z M 383.050781 219.515625 L 374.203125 214.699219 C 384.058594 206.636719 396.042969 200.140625 406.457031 191.742188 C 408.699219 194.09375 411.496094 195.101563 413.738281 197.339844 C 403.433594 204.507813 393.578125 212.011719 383.050781 219.515625 Z M 393.839844 197.132813 C 391.929688 196.132813 379.800781 187.261719 379.800781 187.261719 L 391.5625 180.429688 C 396.378906 182.222656 400.074219 186.589844 404.441406 189.726563 C 404.441406 189.726563 398.722656 194.296875 393.839844 197.132813 Z M 377.8125 186.167969 C 374.847656 184.546875 372.746094 183.144531 369.722656 181.214844 C 381.929688 174.941406 394.136719 166.878906 406.011719 158.699219 C 409.035156 160.046875 411.722656 162.398438 414.519531 164.300781 C 406.90625 168.667969 383.722656 182.332031 377.8125 186.167969 Z M 395.59375 163.070313 C 392.570313 159.371094 390.777344 154.109375 392.792969 149.40625 C 396.601563 151.53125 400.410156 153.660156 403.65625 157.019531 C 401.976563 159.710938 398.84375 161.726563 395.59375 163.070313 Z M 393.578125 164.75 L 384.730469 169.902344 C 376.648438 160.878906 378.21875 143.886719 386.773438 137.070313 C 392.539063 132.476563 400.4375 129.53125 405.675781 124.429688 C 408.613281 126.191406 410.40625 127.734375 412.953125 129.246094 C 407.523438 134.675781 394.171875 143.082031 393.878906 143.351563 C 384.460938 152.089844 393.578125 164.75 393.578125 164.75 Z M 392.046875 130.46875 C 389.996094 130.875 380.699219 124.429688 380.699219 124.429688 C 384.84375 121.628906 388.761719 118.605469 393.128906 115.46875 C 396.9375 117.148438 400.492188 120.816406 404.078125 123.167969 C 400.441406 124.800781 396.078125 129.671875 392.046875 130.46875 Z M 393.128906 99.789063 C 389.992188 97.324219 386.1875 94.890625 382.714844 92.171875 C 386.800781 89.316406 391.140625 86.011719 394.363281 84.109375 C 397.835938 86.011719 400.410156 89.261719 403.992188 92.171875 C 400.410156 94.636719 396.601563 96.765625 393.128906 99.789063 Z M 391.113281 101.019531 L 383.496094 106.285156 L 351.578125 83.660156 C 354.042969 81.980469 356.199219 79.742188 358.019531 77.835938 L 362.890625 81.644531 C 372.523438 87.691406 381.707031 94.523438 391.113281 101.019531 Z M 272.082031 74.804688 C 269.246094 81.351563 273.210938 80.34375 276.660156 80.199219 C 291.484375 79.574219 303.34375 69.890625 315.289063 61.484375 C 318.089844 62.828125 320.554688 64.621094 323.019531 66.75 C 315.792969 71.734375 308.570313 77.164063 300.871094 81.503906 C 287.417969 89.085938 279.007813 90.269531 268.679688 89.632813 C 259.671875 89.078125 257.894531 91 260.414063 81.703125 C 261.347656 78.265625 265.371094 66.195313 267.296875 63.359375 C 269.285156 64.789063 270.824219 65.515625 275.195313 68.878906 C 274.117188 70.5625 272.996094 72.691406 272.082031 74.804688 Z M 277.433594 69.996094 C 280.347656 71.789063 283.257813 74.253906 285.945313 76.046875 C 283.144531 77.164063 277.882813 78.957031 273.402344 77.613281 C 274.746094 75.148438 274.859375 72.011719 277.433594 69.996094 Z M 324.949219 68.625 C 328.394531 70.613281 332.285156 73.46875 335.535156 75.597656 C 332.65625 77.695313 326.933594 83.023438 323.027344 84.203125 C 320.09375 82.875 312.488281 76.828125 312.488281 76.828125 C 317.304688 73.832031 321.113281 70.527344 324.949219 68.625 Z M 345.195313 65.515625 C 341.945313 64.285156 337.355469 61.820313 336.683594 59.019531 L 345.195313 52.636719 C 348.21875 56.332031 346.425781 61.148438 345.195313 65.515625 Z M 312.9375 59.46875 C 308.863281 62.585938 304.820313 66.015625 300.484375 68.984375 L 287.515625 59.917969 C 291.433594 56.667969 296.027344 52.972656 300.84375 50.957031 Z M 298.757813 70.128906 C 295.496094 72.214844 292.054688 74 288.296875 75.148438 C 288.296875 75.148438 265.226563 59.355469 254.027344 50.957031 C 255.707031 47.933594 259.09375 45.804688 261.304688 44.574219 C 274.347656 53.9375 287.796875 61.8125 298.757813 70.128906 Z M 265.785156 61.933594 C 262.339844 66.445313 259.492188 75.589844 257.984375 82.53125 C 255.824219 92.476563 258.449219 90.984375 265.585938 91.554688 C 277.46875 92.503906 289.703125 90.324219 299.636719 84.863281 L 308.375 91.054688 C 301.429688 97.78125 275.53125 102.960938 256.195313 98.421875 C 244.210938 95.605469 246.152344 93.722656 244.753906 84.378906 C 243.097656 73.3125 246.882813 61.59375 252.457031 52.636719 Z M 301.179688 83.660156 C 304.3125 82.316406 307.113281 80.078125 310.136719 78.0625 C 310.808594 78.285156 333.320313 93.628906 343.515625 101.355469 C 340.84375 103.152344 338.171875 105.285156 335.457031 107.445313 C 330.285156 102.878906 309.152344 88.851563 301.179688 83.660156 Z M 334.316406 108.347656 C 330.785156 111.140625 327.164063 113.890625 323.355469 115.917969 C 315.960938 112.332031 308.570313 108.414063 300.058594 107.40625 C 309.136719 106.949219 318.035156 102.699219 321.339844 99.789063 C 325.789063 102.121094 329.816406 106.203125 334.316406 108.347656 Z M 303.941406 110.300781 C 314.578125 112.695313 341.113281 126.613281 343.960938 132.71875 L 336.347656 138.539063 C 327.472656 133.183594 318.214844 127.320313 308.523438 122.964844 C 296.128906 117.398438 271.050781 114.199219 258.175781 116.03125 C 247.769531 117.511719 243.816406 120.320313 243.328125 125.8125 C 242.589844 134.105469 241.898438 154.242188 249.996094 166.316406 C 247.53125 167.996094 244.84375 169.902344 242.378906 171.582031 C 234.050781 158.546875 230.476563 139.4375 234.5 123.246094 C 237.425781 111.472656 237.820313 110.945313 246.554688 109.871094 C 265.015625 107.609375 292.625 107.753906 303.941406 110.300781 Z M 218 123.246094 C 222.023438 139.4375 218.449219 158.546875 210.121094 171.582031 C 207.65625 169.902344 204.96875 167.996094 202.507813 166.316406 C 210.601563 154.242188 209.910156 134.105469 209.171875 125.8125 C 208.683594 120.320313 204.730469 117.511719 194.324219 116.03125 C 181.449219 114.199219 156.371094 117.398438 143.976563 122.964844 C 134.285156 127.320313 125.027344 133.183594 116.152344 138.539063 L 108.539063 132.71875 C 111.386719 126.613281 137.921875 112.695313 148.558594 110.300781 C 159.875 107.753906 187.484375 107.609375 205.945313 109.871094 C 214.679688 110.945313 215.074219 111.472656 218 123.246094 Z M 129.144531 115.917969 C 125.335938 113.890625 121.714844 111.140625 118.183594 108.347656 C 122.683594 106.203125 126.710938 102.121094 131.160156 99.789063 C 134.464844 102.699219 143.363281 106.949219 152.441406 107.40625 C 143.929688 108.414063 136.539063 112.332031 129.144531 115.917969 Z M 117.042969 107.445313 C 114.328125 105.285156 111.65625 103.152344 108.984375 101.355469 C 119.179688 93.628906 141.691406 78.285156 142.363281 78.0625 C 145.386719 80.078125 148.1875 82.316406 151.320313 83.660156 C 143.347656 88.851563 122.214844 102.878906 117.042969 107.445313 Z M 175.839844 80.199219 C 179.289063 80.34375 183.253906 81.351563 180.417969 74.804688 C 179.503906 72.691406 178.382813 70.5625 177.304688 68.878906 C 181.675781 65.515625 183.214844 64.789063 185.203125 63.359375 C 187.128906 66.195313 191.152344 78.265625 192.085938 81.703125 C 194.605469 91 192.828125 89.078125 183.820313 89.632813 C 173.492188 90.269531 165.082031 89.085938 151.628906 81.503906 C 143.929688 77.164063 136.707031 71.734375 129.480469 66.75 C 131.945313 64.621094 134.410156 62.828125 137.210938 61.484375 C 149.15625 69.890625 161.015625 79.574219 175.839844 80.199219 Z M 166.554688 76.046875 C 169.242188 74.253906 172.152344 71.789063 175.066406 69.996094 C 177.640625 72.011719 177.753906 75.148438 179.097656 77.613281 C 174.617188 78.957031 169.355469 77.164063 166.554688 76.046875 Z M 140.011719 76.828125 C 140.011719 76.828125 132.410156 82.875 129.472656 84.203125 C 125.566406 83.023438 119.84375 77.695313 116.964844 75.597656 C 120.214844 73.46875 124.105469 70.613281 127.550781 68.625 C 131.386719 70.527344 135.195313 73.832031 140.011719 76.828125 Z M 152.863281 84.863281 C 162.796875 90.324219 175.03125 92.503906 186.914063 91.554688 C 194.050781 90.984375 196.675781 92.476563 194.515625 82.53125 C 193.007813 75.589844 190.160156 66.445313 186.714844 61.933594 L 200.042969 52.636719 C 205.617188 61.59375 209.402344 73.3125 207.746094 84.378906 C 206.347656 93.722656 208.289063 95.605469 196.304688 98.421875 C 176.96875 102.960938 151.066406 97.78125 144.125 91.054688 Z M 164.203125 75.148438 C 160.441406 74 157.003906 72.214844 153.742188 70.128906 C 164.703125 61.8125 178.152344 53.9375 191.195313 44.574219 C 193.40625 45.804688 196.792969 47.933594 198.472656 50.957031 C 187.273438 59.355469 164.203125 75.148438 164.203125 75.148438 Z M 152.015625 68.984375 C 147.679688 66.015625 143.636719 62.585938 139.5625 59.46875 L 151.65625 50.957031 C 156.472656 52.972656 161.066406 56.667969 164.984375 59.917969 Z M 107.304688 65.515625 C 106.074219 61.148438 104.28125 56.332031 107.304688 52.636719 L 115.816406 59.019531 C 115.144531 61.820313 110.554688 64.285156 107.304688 65.515625 Z M 100.921875 83.660156 L 69.003906 106.285156 L 61.386719 101.019531 C 70.792969 94.523438 79.976563 87.691406 89.609375 81.644531 L 94.480469 77.835938 C 96.300781 79.742188 98.457031 81.980469 100.921875 83.660156 Z M 69.785156 92.171875 C 66.316406 94.890625 62.507813 97.324219 59.371094 99.789063 C 55.898438 96.765625 52.089844 94.636719 48.507813 92.171875 C 52.089844 89.261719 54.667969 86.011719 58.136719 84.109375 C 61.359375 86.011719 65.699219 89.316406 69.785156 92.171875 Z M 71.800781 124.429688 C 71.800781 124.429688 62.503906 130.875 60.453125 130.46875 C 56.421875 129.671875 52.058594 124.800781 48.421875 123.167969 C 52.007813 120.816406 55.5625 117.148438 59.371094 115.46875 C 63.738281 118.605469 67.65625 121.628906 71.800781 124.429688 Z M 65.726563 137.070313 C 74.28125 143.886719 75.851563 160.878906 67.769531 169.902344 L 58.921875 164.75 C 58.921875 164.75 68.039063 152.089844 58.621094 143.351563 C 58.332031 143.082031 44.976563 134.675781 39.546875 129.246094 C 42.09375 127.734375 43.886719 126.191406 46.828125 124.429688 C 52.0625 129.53125 59.960938 132.476563 65.726563 137.070313 Z M 59.707031 149.40625 C 61.722656 154.109375 59.929688 159.371094 56.90625 163.070313 C 53.65625 161.726563 50.523438 159.710938 48.84375 157.019531 C 52.089844 153.660156 55.898438 151.53125 59.707031 149.40625 Z M 82.777344 181.214844 C 79.753906 183.144531 77.65625 184.546875 74.6875 186.167969 C 68.777344 182.332031 45.59375 168.667969 37.976563 164.300781 C 40.777344 162.398438 43.464844 160.046875 46.488281 158.699219 C 58.363281 166.878906 70.570313 174.941406 82.777344 181.214844 Z M 72.699219 187.261719 C 72.699219 187.261719 60.570313 196.132813 58.660156 197.132813 C 53.777344 194.296875 48.058594 189.726563 48.058594 189.726563 C 52.425781 186.589844 56.121094 182.222656 60.9375 180.429688 Z M 78.296875 214.699219 L 69.449219 219.515625 C 58.921875 212.011719 49.066406 204.507813 38.761719 197.339844 C 41.003906 195.101563 43.800781 194.09375 46.042969 191.742188 C 56.457031 200.140625 68.441406 206.636719 78.296875 214.699219 Z M 66.648438 220.410156 C 63.960938 221.757813 61.945313 224.613281 59.371094 226.796875 L 50.074219 219.179688 C 52.761719 217.277344 54.890625 215.710938 57.886719 214.113281 C 61.050781 216.324219 64.128906 218.285156 66.648438 220.410156 Z M 70.234375 265.882813 L 60.9375 259.5 C 63.410156 254.851563 62.25 245.875 58.019531 241.402344 C 55.664063 238.90625 44.445313 229.597656 39.996094 226.347656 C 42.039063 224.558594 44.585938 222.878906 46.828125 221.195313 C 60.507813 226.21875 76.507813 249.421875 70.234375 265.882813 Z M 58.585938 246.957031 C 59.59375 250.988281 60.042969 255.578125 58.585938 257.820313 L 50.859375 251.773438 C 53.324219 249.757813 55.675781 247.738281 58.585938 246.957031 Z M 82.332031 277.195313 C 78.96875 278.765625 76.394531 282.125 72.699219 282.796875 C 61.835938 275.738281 52.175781 268.125 40.777344 260.285156 L 48.140625 252.78125 C 48.140625 252.78125 71.578125 268.90625 82.332031 277.195313 Z M 70.542969 284.253906 L 58.894531 292.511719 C 55.253906 290.605469 52.460938 288.578125 48.84375 286.492188 C 52.984375 282.796875 57.914063 281.003906 62.617188 278.429688 Z M 71.800781 316.730469 C 67.433594 319.195313 64.214844 321.4375 59.285156 323.789063 L 51.304688 317.292969 C 54.492188 314.742188 57.417969 312.230469 61.332031 309.898438 Z M 60.855469 325.914063 C 60.855469 325.914063 92.636719 304.871094 97.449219 302.890625 C 99.003906 303.925781 101.574219 305.601563 105.289063 307.882813 C 92.523438 316.394531 80.285156 325.972656 67.40625 333.363281 C 67.40625 333.363281 63.765625 327.988281 60.855469 325.914063 Z M 93.640625 319.085938 C 105.402344 326.140625 117.160156 334.09375 128.25 341.707031 C 126.121094 344.394531 123.210938 346.1875 120.632813 347.308594 C 109.097656 338.90625 97.003906 332.078125 85.128906 324.347656 C 87.929688 322.667969 90.394531 320.09375 93.640625 319.085938 Z M 176.632813 340.921875 C 174.617188 343.722656 172.488281 346.859375 169.464844 348.988281 C 158.488281 341.597656 146.28125 333.195313 135.195313 325.132813 C 138.21875 322.332031 141.914063 321.101563 145.273438 319.085938 C 155.464844 326.8125 166.554688 332.859375 176.632813 340.921875 Z M 171.816406 334.09375 C 175.90625 331.683594 182.710938 329.722656 177.867188 338.460938 C 176.410156 336.667969 173.804688 335.578125 171.816406 334.09375 Z M 140.792969 332.078125 C 137.320313 334.203125 134.296875 337.789063 131.160156 339.691406 C 127.578125 339.132813 124.554688 335.882813 122.203125 334.09375 L 130.714844 328.042969 C 134.410156 326.140625 137.433594 330.730469 140.792969 332.078125 Z M 113.355469 345.292969 L 118.617188 349.324219 C 116.6875 350.585938 115.3125 352.207031 113.214844 353.550781 C 111.980469 351.089844 112.121094 347.757813 113.355469 345.292969 Z M 154.90625 341.707031 C 158.824219 344.621094 162.605469 347.363281 166.554688 350.554688 C 164.203125 352.796875 161.179688 355.035156 158.152344 356.605469 C 154.316406 354.207031 150.027344 350.898438 146.175781 348.878906 C 149.28125 346.78125 152.285156 344.539063 154.90625 341.707031 Z M 181.519531 335.992188 C 183.167969 329.054688 182.175781 327.898438 176.707031 329.851563 C 174.582031 330.613281 171.621094 332.046875 170.335938 332.496094 C 165.992188 330.226563 162.859375 328.15625 158.9375 325.582031 C 158.9375 325.582031 168.480469 320.625 181.984375 319.585938 C 195.429688 318.550781 194.933594 328.414063 191.769531 340.128906 C 188.945313 350.589844 178.125 358.683594 169.800781 364.667969 C 166.441406 362.425781 160.226563 358.257813 160.226563 358.257813 C 167.914063 352.949219 179.230469 345.636719 181.519531 335.992188 Z M 195.503906 326.515625 C 194.652344 319.582031 192.839844 317.367188 181.039063 317.949219 C 172.589844 318.367188 163.878906 320.234375 156.921875 324.347656 L 148.410156 317.964844 C 160.015625 312.90625 174.4375 310.570313 186.921875 312.203125 C 200.691406 314.007813 208.085938 313.144531 207.371094 328.394531 C 206.941406 337.601563 205.136719 346.828125 200.042969 353.804688 C 197.128906 351.226563 194.078125 349.632813 190.746094 347.308594 C 194.617188 341.421875 196.394531 333.796875 195.503906 326.515625 Z M 210.164063 323.195313 C 210.074219 317.730469 208.757813 312.433594 194.46875 310.605469 C 173.480469 307.917969 153.8125 311.324219 142.183594 317.730469 C 134.367188 322.039063 127.355469 328.273438 119.851563 333.195313 L 110.554688 326.363281 C 124.664063 317.179688 137.992188 305.980469 154.121094 301.386719 C 172.648438 304.277344 190.820313 305.039063 209.03125 305.015625 C 218.660156 305.003906 221.90625 304.71875 222.242188 319.976563 C 222.429688 328.585938 222.078125 336.875 220.570313 344.886719 C 219.824219 348.859375 215.917969 359.066406 213.929688 361.699219 C 210.316406 359.964844 205.390625 357.5 202.058594 355.371094 C 208.339844 346.683594 210.304688 331.304688 210.164063 323.195313 Z M 223.601563 312 C 223.082031 306.414063 221.046875 305.054688 219.488281 304.390625 C 218.730469 304.070313 218.003906 303.488281 219.136719 303.085938 C 221.90625 302.179688 223.644531 295.234375 224.429688 287.234375 C 225.78125 273.414063 224.128906 252.085938 212.136719 238.894531 L 226.203125 228.53125 L 240.363281 238.894531 C 228.371094 252.085938 226.71875 273.414063 228.070313 287.234375 C 228.855469 295.234375 230.59375 302.179688 233.363281 303.085938 C 234.496094 303.488281 233.769531 304.070313 233.007813 304.390625 C 231.453125 305.054688 229.417969 306.414063 228.898438 312 C 227.148438 330.738281 229.304688 353.761719 235.546875 362.316406 C 228.859375 365.632813 223.640625 365.632813 216.953125 362.316406 C 223.195313 353.761719 225.351563 330.738281 223.601563 312 Z M 231.929688 344.886719 C 230.421875 336.875 230.070313 328.585938 230.257813 319.976563 C 230.59375 304.71875 233.839844 305.003906 243.46875 305.015625 C 261.679688 305.039063 279.851563 304.277344 298.378906 301.386719 C 314.507813 305.980469 327.835938 317.179688 341.945313 326.363281 L 332.648438 333.195313 C 325.144531 328.273438 318.132813 322.039063 310.316406 317.730469 C 298.6875 311.324219 279.019531 307.917969 258.03125 310.605469 C 243.742188 312.433594 242.429688 317.730469 242.335938 323.195313 C 242.195313 331.304688 244.160156 346.683594 250.441406 355.371094 C 247.109375 357.5 242.183594 359.964844 238.570313 361.699219 C 236.582031 359.066406 232.675781 348.859375 231.929688 344.886719 Z M 307.226563 319.085938 C 310.585938 321.101563 314.28125 322.332031 317.304688 325.132813 C 306.21875 333.195313 294.011719 341.597656 283.035156 348.988281 C 280.011719 346.859375 277.882813 343.722656 275.867188 340.921875 C 285.945313 332.859375 297.035156 326.8125 307.226563 319.085938 Z M 274.632813 338.460938 C 269.789063 329.722656 276.59375 331.683594 280.683594 334.09375 C 278.695313 335.578125 276.089844 336.667969 274.632813 338.460938 Z M 321.785156 328.042969 L 330.296875 334.09375 C 327.945313 335.882813 324.921875 339.132813 321.339844 339.691406 C 318.203125 337.789063 315.179688 334.203125 311.707031 332.078125 C 315.066406 330.730469 318.089844 326.140625 321.785156 328.042969 Z M 245.128906 328.394531 C 244.414063 313.144531 251.808594 314.007813 265.578125 312.203125 C 278.0625 310.570313 292.484375 312.90625 304.089844 317.964844 L 295.578125 324.347656 C 288.621094 320.234375 279.914063 318.367188 271.460938 317.949219 C 259.660156 317.367188 257.847656 319.582031 256.996094 326.515625 C 256.105469 333.796875 257.882813 341.421875 261.753906 347.308594 C 258.421875 349.632813 255.371094 351.226563 252.457031 353.804688 C 247.363281 346.828125 245.558594 337.601563 245.128906 328.394531 Z M 260.730469 340.128906 C 257.566406 328.414063 257.070313 318.550781 270.515625 319.585938 C 284.019531 320.625 293.5625 325.582031 293.5625 325.582031 C 289.640625 328.15625 286.507813 330.226563 282.164063 332.496094 C 280.878906 332.046875 277.917969 330.613281 275.792969 329.851563 C 270.324219 327.898438 269.332031 329.054688 270.980469 335.992188 C 273.269531 345.636719 284.585938 352.949219 292.273438 358.257813 C 292.273438 358.257813 286.058594 362.425781 282.699219 364.667969 C 274.375 358.683594 263.554688 350.589844 260.730469 340.128906 Z M 285.945313 350.554688 C 289.894531 347.363281 293.675781 344.621094 297.59375 341.707031 C 300.214844 344.539063 303.21875 346.78125 306.324219 348.878906 C 302.472656 350.898438 298.183594 354.207031 294.347656 356.605469 C 291.320313 355.035156 288.296875 352.796875 285.945313 350.554688 Z M 333.882813 349.324219 L 339.144531 345.292969 C 340.378906 347.757813 340.519531 351.089844 339.285156 353.550781 C 337.1875 352.207031 335.8125 350.585938 333.882813 349.324219 Z M 331.867188 347.308594 C 329.289063 346.1875 326.378906 344.394531 324.25 341.707031 C 335.339844 334.09375 347.097656 326.140625 358.859375 319.085938 C 362.105469 320.09375 364.570313 322.667969 367.371094 324.347656 C 355.496094 332.078125 343.402344 338.90625 331.867188 347.308594 Z M 347.210938 307.882813 C 350.925781 305.601563 353.496094 303.925781 355.050781 302.890625 C 359.863281 304.871094 391.644531 325.914063 391.644531 325.914063 C 388.734375 327.988281 385.09375 333.363281 385.09375 333.363281 C 372.214844 325.972656 359.976563 316.394531 347.210938 307.882813 Z M 396.378906 345.738281 L 397.160156 344.507813 C 399.179688 345.628906 401.53125 348.035156 403.433594 349.378906 C 401.304688 351.003906 398.84375 353.355469 396.378906 354.589844 C 393.800781 352.570313 395.117188 348.875 396.378906 345.738281 Z M 405.871094 333.335938 C 407.773438 330.3125 410.9375 328.605469 413.738281 326.027344 C 416.539063 327.148438 419.339844 329.191406 421.4375 331.375 L 413.710938 339.273438 C 411.246094 337.367188 408.304688 335.15625 405.871094 333.335938 Z M 393.96875 308.246094 C 393.96875 308.246094 400.363281 303.769531 402.351563 302.628906 C 411.222656 306.210938 424.980469 315.453125 429.726563 319.785156 C 427.878906 324.65625 426.113281 326.558594 423.0625 329.246094 C 413.316406 321.855469 403.265625 315.640625 393.96875 308.246094 Z M 424.824219 313.148438 C 430.96875 306.742188 430.328125 299.320313 424.601563 288.058594 C 426.703125 286.996094 427.484375 285.988281 429.417969 285.261719 C 433.023438 291.085938 436.375 307.882813 430.203125 317.066406 C 428.1875 315.808594 426.503906 314.183594 424.824219 313.148438 Z M 422.867188 312.140625 L 414.96875 307.4375 C 417.65625 303.179688 416.871094 298.027344 414.074219 294.109375 C 408.976563 286.941406 401.304688 280.445313 393.128906 276.410156 L 401.640625 270.363281 C 407.265625 276.125 416.539063 281.882813 422.195313 289.085938 C 428.476563 297.085938 428.644531 305.078125 422.867188 312.140625 Z M 403.992188 269.132813 C 406.710938 267.339844 410.601563 264.121094 413.652344 262.664063 C 416.089844 264.398438 421.632813 271.261719 422.976563 273.136719 C 421.1875 274.984375 417.796875 277.167969 415.363281 278.765625 Z M 404.890625 236.09375 L 414.941406 228.226563 C 417.546875 229.90625 420.203125 232.089844 422.585938 234.078125 C 419.226563 236.878906 416.539063 241.46875 412.503906 242.476563 Z M 407.242188 205.070313 C 409.929688 202.773438 413.261719 200.867188 415.726563 199.078125 C 417.824219 200.363281 419.703125 202.492188 422.054688 204.257813 L 414.074219 209.882813 C 411.496094 209.101563 409.59375 206.636719 407.242188 205.070313 Z M 405.226563 172.8125 C 408.25 170.011719 413.402344 168.894531 415.753906 165.085938 C 419.339844 167.996094 424.039063 169.566406 426.617188 173.933594 C 423.144531 176.957031 419.5625 179.421875 415.753906 181.214844 Z M 416.089844 149.40625 C 411.605469 146.84375 407.472656 143.121094 403.023438 140.449219 C 403.519531 140.109375 403.996094 139.742188 404.441406 139.324219 L 415.304688 130.8125 C 418.777344 133.277344 423.117188 135.347656 425.804688 138.597656 C 424.015625 142.628906 419.003906 146.15625 416.089844 149.40625 Z M 395.59375 114.347656 C 398.085938 112.410156 401.023438 110.535156 402.648438 109.394531 C 405.941406 111.769531 431.65625 129.414063 431.65625 129.414063 C 430.035156 132.128906 428.941406 134.257813 427.402344 136.523438 C 423.929688 134.84375 395.59375 114.347656 395.59375 114.347656 Z M 421.886719 119.894531 L 414.632813 115.105469 C 416.761719 111.746094 417.097656 106.84375 416.089844 102.589844 C 412.28125 94.300781 406.179688 90.242188 396.910156 83.183594 L 404.441406 77.164063 C 407.828125 80.292969 412.578125 82.546875 416.742188 85.273438 C 426.261719 91.503906 427.152344 107.941406 421.886719 119.894531 Z M 406.988281 76.128906 C 409.679688 74.113281 412.703125 71.59375 415.53125 70.054688 C 415.53125 70.054688 420.652344 73.441406 423.648438 78.761719 C 420.410156 86.125 410.339844 79.480469 406.988281 76.128906 Z M 397.160156 51.40625 C 398.617188 49.585938 401.753906 46.699219 404.890625 46.140625 C 413.792969 54.007813 426.476563 64.398438 431.039063 68.820313 C 430.257813 71.398438 427.484375 75.539063 425.386719 77.613281 C 418.441406 66.078125 406.457031 60.394531 397.160156 51.40625 Z M 406.011719 44.574219 C 409.929688 41.886719 414.074219 39.980469 419.003906 39.757813 C 418.21875 43.902344 415.867188 47.484375 413.289063 50.957031 C 410.9375 49.164063 408.472656 46.699219 406.011719 44.574219 Z M 425.050781 60.699219 C 429.285156 52.9375 432.640625 44.84375 432.65625 36.34375 C 432.675781 26.859375 431.195313 24.683594 421.019531 25.9375 C 411.625 27.101563 403.261719 29.742188 395.59375 36.0625 L 384.730469 27.996094 C 395.402344 20.816406 408.601563 18.261719 421.988281 16.613281 C 432.003906 15.378906 435.921875 14.316406 437.332031 21.0625 C 438.609375 27.164063 438.484375 59.085938 431.882813 66.300781 C 429.417969 64.957031 427.066406 63.054688 425.050781 60.699219 Z M 420.261719 28.449219 C 429.429688 27.128906 430.523438 26.550781 430.046875 37.476563 C 429.710938 45.160156 426.730469 52.46875 423.371094 59.019531 L 415.472656 52.582031 C 419.796875 46.890625 419.820313 45.382813 421.359375 39.929688 C 422.371094 36.347656 420.328125 35.105469 414.503906 37.484375 C 408.203125 40.0625 403.261719 42.90625 398.425781 47.269531 C 392.777344 52.367188 388.617188 59.269531 394.363281 66.75 L 386.746094 72.796875 C 379.878906 61.988281 385.371094 47.058594 393.441406 40.859375 C 401.503906 34.667969 410.152344 29.90625 420.261719 28.449219 Z M 384.28125 74.363281 C 378.90625 76.828125 375.519531 79.714844 370.476563 83.074219 L 359.304688 76.046875 C 363.308594 67.226563 367.230469 53.28125 359.503906 43.339844 L 370.953125 35.726563 C 375.882813 39.308594 381.707031 42.445313 385.515625 47.371094 C 380.25 55.886719 379.800781 65.40625 384.28125 74.363281 Z M 334.328125 58.683594 L 327.386719 53.867188 C 338.921875 45.246094 348.46875 37.488281 360.117188 29.3125 C 363.03125 29.871094 366.585938 32.8125 368.9375 34.046875 C 357.960938 42.894531 345.082031 49.390625 334.328125 58.683594 Z M 348.183594 36.363281 C 336.1875 31.414063 318.191406 28.96875 300.8125 35.304688 C 297.621094 32.113281 293.757813 29.257813 289.671875 26.234375 C 299.765625 17.59375 322.402344 16.160156 338.671875 20.375 C 345.71875 22.199219 352.519531 25.1875 358.859375 28.585938 C 355.328125 30.9375 350.773438 34.1875 348.183594 36.363281 Z M 345.53125 38.078125 L 337.464844 43.789063 C 319.648438 33.292969 299.863281 46.996094 285.945313 58.238281 L 277.433594 52.972656 C 284.089844 48.753906 290.554688 43.621094 297.53125 39.882813 C 311.316406 32.496094 329.371094 31.214844 345.53125 38.078125 Z M 275.417969 51.40625 C 271.609375 48.492188 267.214844 45.496094 263.628906 42.921875 C 267.878906 39.351563 273.078125 37.085938 276.984375 34.046875 C 280.90625 37.515625 283.875 38.832031 287.820313 42.191406 C 283.480469 45.46875 279.5625 48.605469 275.417969 51.40625 Z M 243.316406 86.644531 C 245.425781 97.964844 243.554688 97.816406 259.179688 100.867188 C 276.019531 104.152344 298.148438 101.160156 310.976563 93.011719 C 310.976563 93.011719 317.460938 96.644531 319.796875 98.78125 C 305.351563 107.292969 287.851563 106.285156 270.9375 105.835938 C 263.546875 107.179688 253.800781 106.507813 246.410156 107.851563 C 242.488281 105.835938 236.554688 106.171875 235.097656 100.574219 C 227.929688 80.636719 230.953125 56.109375 247.980469 41.324219 C 253.914063 35.726563 260.523438 31.246094 266.90625 26.765625 L 274.859375 32.839844 C 245.46875 47.589844 239.914063 68.363281 243.316406 86.644531 Z M 250.777344 35.277344 C 237.445313 24.125 215.800781 23.5 201.722656 35.277344 L 187.945313 25.644531 C 192.960938 22.21875 201.902344 17.953125 209.421875 14.988281 C 222.539063 9.8125 230.226563 9.769531 244.367188 15.503906 C 251.597656 18.433594 259.820313 22.410156 264.554688 25.644531 Z M 204.523438 41.324219 C 221.546875 56.109375 224.570313 80.636719 217.402344 100.574219 C 215.945313 106.171875 210.007813 105.835938 206.089844 107.851563 C 198.699219 106.507813 188.953125 107.179688 181.5625 105.835938 C 164.648438 106.285156 147.148438 107.292969 132.703125 98.78125 C 135.039063 96.644531 141.523438 93.011719 141.523438 93.011719 C 154.351563 101.160156 176.480469 104.152344 193.320313 100.867188 C 208.945313 97.816406 207.074219 97.964844 209.183594 86.644531 C 212.585938 68.363281 207.03125 47.589844 177.640625 32.839844 L 185.59375 26.765625 C 191.976563 31.246094 198.585938 35.726563 204.523438 41.324219 Z M 188.871094 42.921875 C 185.285156 45.496094 180.890625 48.492188 177.082031 51.40625 C 172.9375 48.605469 169.019531 45.46875 164.679688 42.191406 C 168.625 38.832031 171.59375 37.515625 175.515625 34.046875 C 179.421875 37.085938 184.621094 39.351563 188.871094 42.921875 Z M 175.066406 52.972656 L 166.554688 58.238281 C 152.636719 46.996094 132.851563 33.292969 115.035156 43.789063 L 106.96875 38.078125 C 123.128906 31.214844 141.183594 32.496094 154.96875 39.882813 C 161.945313 43.621094 168.410156 48.753906 175.066406 52.972656 Z M 104.316406 36.363281 C 101.726563 34.1875 97.167969 30.9375 93.640625 28.585938 C 99.980469 25.1875 106.78125 22.199219 113.828125 20.375 C 130.097656 16.160156 152.734375 17.59375 162.828125 26.234375 C 158.742188 29.257813 154.878906 32.113281 151.6875 35.304688 C 134.308594 28.96875 116.308594 31.414063 104.316406 36.363281 Z M 125.113281 53.867188 L 118.171875 58.683594 C 107.417969 49.390625 94.539063 42.894531 83.5625 34.046875 C 85.914063 32.8125 89.46875 29.871094 92.382813 29.3125 C 104.03125 37.488281 113.578125 45.246094 125.113281 53.867188 Z M 92.996094 43.339844 C 85.269531 53.28125 89.191406 67.226563 93.195313 76.046875 L 82.023438 83.074219 C 76.980469 79.714844 73.59375 76.828125 68.21875 74.363281 C 72.699219 65.40625 72.25 55.886719 66.984375 47.371094 C 70.792969 42.445313 76.617188 39.308594 81.546875 35.726563 Z M 65.753906 72.796875 L 58.136719 66.75 C 63.882813 59.269531 59.722656 52.367188 54.074219 47.269531 C 49.238281 42.90625 44.296875 40.0625 37.996094 37.484375 C 32.171875 35.105469 30.128906 36.347656 31.140625 39.929688 C 32.679688 45.382813 32.703125 46.890625 37.027344 52.582031 L 29.128906 59.019531 C 25.769531 52.46875 22.789063 45.160156 22.453125 37.476563 C 21.976563 26.550781 23.070313 27.128906 32.238281 28.449219 C 42.347656 29.90625 50.996094 34.667969 59.058594 40.859375 C 67.128906 47.058594 72.621094 61.988281 65.753906 72.796875 Z M 46.488281 44.574219 C 44.027344 46.699219 41.5625 49.164063 39.210938 50.957031 C 36.632813 47.484375 34.28125 43.902344 33.5 39.757813 C 38.425781 39.980469 42.570313 41.886719 46.488281 44.574219 Z M 56.90625 36.0625 C 49.238281 29.742188 40.875 27.101563 31.480469 25.9375 C 21.304688 24.683594 19.824219 26.859375 19.84375 36.34375 C 19.859375 44.84375 23.214844 52.9375 27.449219 60.699219 C 25.433594 63.054688 23.082031 64.957031 20.617188 66.300781 C 14.015625 59.085938 13.890625 27.164063 15.167969 21.0625 C 16.578125 14.316406 20.496094 15.378906 30.511719 16.613281 C 43.898438 18.261719 57.097656 20.816406 67.769531 27.996094 Z M 47.609375 46.140625 C 50.746094 46.699219 53.882813 49.585938 55.339844 51.40625 C 46.042969 60.394531 34.058594 66.078125 27.113281 77.613281 C 25.015625 75.539063 22.242188 71.398438 21.457031 68.820313 C 26.023438 64.398438 38.707031 54.007813 47.609375 46.140625 Z M 36.96875 70.054688 C 39.796875 71.59375 42.824219 74.113281 45.511719 76.128906 C 42.160156 79.480469 32.089844 86.125 28.851563 78.761719 C 31.847656 73.441406 36.96875 70.054688 36.96875 70.054688 Z M 35.757813 85.273438 C 39.921875 82.546875 44.667969 80.292969 48.058594 77.164063 L 55.589844 83.183594 C 46.324219 90.242188 40.21875 94.300781 36.410156 102.589844 C 35.402344 106.84375 35.738281 111.746094 37.867188 115.105469 L 30.613281 119.894531 C 25.347656 107.941406 26.238281 91.503906 35.757813 85.273438 Z M 49.851563 109.394531 C 51.476563 110.535156 54.414063 112.410156 56.90625 114.347656 C 56.90625 114.347656 28.570313 134.84375 25.097656 136.523438 C 23.558594 134.257813 22.464844 132.128906 20.84375 129.414063 C 20.84375 129.414063 46.558594 111.769531 49.851563 109.394531 Z M 37.195313 130.8125 L 48.058594 139.324219 C 48.503906 139.742188 48.980469 140.109375 49.476563 140.449219 C 45.027344 143.121094 40.894531 146.84375 36.410156 149.40625 C 33.5 146.15625 28.484375 142.628906 26.695313 138.597656 C 29.382813 135.347656 33.722656 133.277344 37.195313 130.8125 Z M 36.746094 165.085938 C 39.097656 168.894531 44.25 170.011719 47.273438 172.8125 L 36.746094 181.214844 C 32.9375 179.421875 29.355469 176.957031 25.882813 173.933594 C 28.457031 169.566406 33.164063 167.996094 36.746094 165.085938 Z M 36.773438 199.078125 C 39.238281 200.867188 42.570313 202.773438 45.257813 205.070313 C 42.90625 206.636719 41.003906 209.101563 38.425781 209.882813 L 30.445313 204.257813 C 32.796875 202.492188 34.675781 200.363281 36.773438 199.078125 Z M 37.558594 228.226563 L 47.609375 236.09375 L 39.996094 242.476563 C 35.960938 241.46875 33.273438 236.878906 29.914063 234.078125 C 32.292969 232.089844 34.953125 229.90625 37.558594 228.226563 Z M 38.847656 262.664063 C 41.898438 264.121094 45.789063 267.339844 48.507813 269.132813 L 37.136719 278.765625 C 34.703125 277.167969 31.316406 274.984375 29.523438 273.136719 C 30.867188 271.261719 36.410156 264.398438 38.847656 262.664063 Z M 50.859375 270.363281 L 59.371094 276.410156 C 51.195313 280.445313 43.523438 286.941406 38.425781 294.109375 C 35.625 298.027344 34.84375 303.179688 37.53125 307.4375 L 29.632813 312.140625 C 23.855469 305.078125 24.023438 297.085938 30.304688 289.085938 C 35.960938 281.882813 45.234375 276.125 50.859375 270.363281 Z M 27.675781 313.148438 C 25.996094 314.183594 24.316406 315.808594 22.296875 317.066406 C 16.125 307.882813 19.476563 291.085938 23.082031 285.261719 C 25.015625 285.988281 25.796875 286.996094 27.898438 288.058594 C 22.171875 299.320313 21.53125 306.742188 27.675781 313.148438 Z M 50.148438 302.628906 C 52.136719 303.769531 58.53125 308.246094 58.53125 308.246094 C 49.234375 315.640625 39.183594 321.855469 29.4375 329.246094 C 26.386719 326.558594 24.621094 324.65625 22.773438 319.785156 C 27.519531 315.453125 41.277344 306.210938 50.148438 302.628906 Z M 38.761719 326.027344 C 41.5625 328.605469 44.726563 330.3125 46.628906 333.335938 C 44.195313 335.15625 41.253906 337.367188 38.789063 339.273438 L 31.0625 331.375 C 33.164063 329.191406 35.960938 327.148438 38.761719 326.027344 Z M 48.84375 335.210938 C 50.96875 337.898438 52.875 339.46875 54.105469 342.492188 C 45.59375 349.4375 31.257813 356.492188 33.5 369.484375 C 35.265625 371.097656 45.132813 370.667969 48.460938 367.644531 C 51.066406 369.351563 54.5625 372.296875 58.585938 374.746094 C 52.34375 378.394531 44.296875 380.402344 36.550781 380.507813 C 29.101563 380.609375 24.324219 381.296875 23.722656 371.503906 C 23.292969 364.460938 23.988281 357.757813 30.710938 350.117188 C 35.753906 344.386719 42.730469 339.761719 48.84375 335.210938 Z M 38.117188 359.878906 L 46.488281 365.898438 C 43.902344 368.117188 39.78125 368.847656 37.378906 368.1875 C 33.992188 367.257813 35.367188 361.773438 38.117188 359.878906 Z M 22.699219 375.976563 C 24.402344 381.078125 25.628906 383.265625 33.472656 382.878906 C 42.601563 382.429688 49.996094 382.121094 60.601563 376.425781 L 67.769531 382.027344 C 59.558594 387.640625 47.960938 391.433594 37.804688 392.601563 C 20.332031 394.613281 16.175781 396.441406 15.085938 380.164063 C 14.144531 366.070313 16.277344 354.175781 19.835938 341.261719 L 27.898438 349.773438 C 21.945313 356.84375 20.011719 367.917969 22.699219 375.976563 Z M 39.210938 357.835938 C 41.898438 355.484375 44.027344 352.011719 47.273438 351.003906 C 58.808594 358.394531 69.113281 366.90625 80.3125 374.410156 L 70.683594 380.460938 C 68.554688 379.898438 45.371094 363.4375 39.210938 357.835938 Z M 72.25 365.453125 C 76.753906 352.652344 72.394531 344.574219 69.148438 335.972656 C 70.464844 334.988281 81.390625 327.457031 83.070313 326.367188 C 86.800781 327.820313 93.535156 332.421875 99.242188 336.445313 C 93.867188 344.058594 95.238281 353.859375 98.824219 361.699219 C 92.941406 366.628906 88.796875 368.894531 83.113281 372.730469 C 79.53125 370.378906 75.246094 368 72.25 365.453125 Z M 101.707031 337.675781 L 110.554688 343.722656 C 107.449219 350.621094 111.742188 359.332031 117.292969 363.289063 C 125.6875 369.277344 137.53125 369 145.1875 366.09375 C 147.773438 368.097656 151.398438 370.191406 154.457031 372.394531 C 143.707031 378.667969 132.28125 377.546875 120.1875 375.980469 C 111.003906 373.964844 102.265625 366.796875 99.691406 357.386719 C 98.011719 350.890625 97.339844 342.941406 101.707031 337.675781 Z M 108.089844 372.730469 C 121.210938 382 142.726563 382.679688 156.472656 373.515625 C 160.058594 376.09375 163.417969 379.117188 167.003906 381.242188 C 146.671875 392.808594 116.398438 392.414063 97.675781 380.011719 C 100.976563 377.855469 104.367188 375.167969 108.089844 372.730469 Z M 135.976563 355.820313 C 138.773438 353.671875 141.746094 351.808594 144.675781 349.882813 C 156.339844 357.648438 168.339844 367.265625 179.882813 374.410156 L 170.25 380.011719 C 158.601563 372.394531 147.179688 363.660156 135.976563 355.820313 Z M 172.265625 366.347656 C 175.179688 365.117188 177.753906 361.867188 180.300781 359.878906 L 189.625 366.683594 C 187.722656 368.699219 184.671875 370.910156 182.011719 372.257813 C 177.976563 371.023438 175.515625 369.148438 172.265625 366.347656 Z M 272.199219 359.878906 C 274.746094 361.867188 277.320313 365.117188 280.234375 366.347656 C 276.984375 369.148438 274.523438 371.023438 270.488281 372.257813 C 267.828125 370.910156 264.777344 368.699219 262.875 366.683594 Z M 307.824219 349.882813 C 310.753906 351.808594 313.726563 353.671875 316.523438 355.820313 C 305.320313 363.660156 293.898438 372.394531 282.25 380.011719 L 272.617188 374.410156 C 284.160156 367.265625 296.160156 357.648438 307.824219 349.882813 Z M 296.027344 373.515625 C 309.773438 382.679688 331.289063 382 344.410156 372.730469 C 348.132813 375.167969 351.523438 377.855469 354.824219 380.011719 C 336.101563 392.414063 305.828125 392.808594 285.496094 381.242188 C 289.082031 379.117188 292.441406 376.09375 296.027344 373.515625 Z M 332.3125 375.980469 C 320.21875 377.546875 308.792969 378.667969 298.042969 372.394531 C 301.101563 370.191406 304.726563 368.097656 307.3125 366.09375 C 314.96875 369 326.8125 369.277344 335.207031 363.289063 C 340.757813 359.332031 345.050781 350.621094 341.945313 343.722656 L 350.792969 337.675781 C 355.160156 342.941406 354.488281 350.890625 352.808594 357.386719 C 350.234375 366.796875 341.496094 373.964844 332.3125 375.980469 Z M 353.257813 336.445313 C 358.964844 332.421875 365.699219 327.820313 369.429688 326.367188 C 371.109375 327.457031 382.035156 334.988281 383.351563 335.972656 C 380.105469 344.574219 375.746094 352.652344 380.25 365.453125 C 377.253906 368 372.96875 370.378906 369.386719 372.730469 C 363.703125 368.894531 359.558594 366.628906 353.679688 361.699219 C 357.261719 353.859375 358.632813 344.058594 353.257813 336.445313 Z M 405.226563 351.003906 C 408.472656 352.011719 410.601563 355.484375 413.289063 357.835938 C 407.128906 363.4375 383.945313 379.898438 381.816406 380.460938 L 372.1875 374.410156 C 383.386719 366.90625 393.691406 358.394531 405.226563 351.003906 Z M 391.898438 376.425781 C 402.503906 382.121094 409.898438 382.429688 419.027344 382.878906 C 426.871094 383.265625 428.101563 381.078125 429.800781 375.976563 C 432.488281 367.917969 430.554688 356.84375 424.601563 349.773438 L 432.664063 341.261719 C 436.222656 354.175781 438.355469 366.070313 437.414063 380.164063 C 436.324219 396.441406 432.167969 394.613281 414.691406 392.601563 C 404.539063 391.433594 392.941406 387.640625 384.730469 382.027344 Z M 447.820313 249.28125 C 447.910156 271.089844 431.871094 281.003906 423.285156 286.464844 C 421.476563 284.855469 420.007813 283.199219 417.882813 280.949219 C 432.160156 271.203125 439.945313 258.605469 435.914063 242.476563 C 438.152344 240.460938 440.5625 237.714844 442.605469 236.007813 C 442.605469 236.007813 447.789063 242.320313 447.820313 249.28125 Z M 445.210938 211.117188 C 451.816406 227.578125 433.671875 241.355469 423.371094 251.4375 L 414.96875 244.15625 C 423.371094 238.109375 430.648438 230.269531 437.144531 221.53125 C 437.480469 218.285156 436.699219 214.589844 434.683594 211.898438 C 437.816406 208.988281 439.804688 207.167969 441.960938 205.40625 C 443.417969 207.195313 444.425781 209.101563 445.210938 211.117188 Z M 424.070313 216.773438 C 421.363281 214.773438 419.199219 213.507813 416.089844 211.453125 C 424.210938 204.84375 441.175781 197.453125 434.683594 184.011719 L 442.296875 175.613281 C 454.234375 188.9375 438.640625 208.320313 424.070313 216.773438 Z M 445.816406 164.507813 C 442.328125 174.121094 433.257813 183.488281 425.050781 188.492188 C 423.230469 187.289063 420.316406 184.460938 418.636719 183.117188 C 427.15625 175.734375 441.914063 167.914063 436.03125 149.0625 C 438.027344 146.425781 440.386719 143.5 442.242188 139.660156 C 447.207031 143.945313 449.242188 155.066406 445.816406 164.507813 Z M 445.992188 105.835938 C 448.382813 126.238281 441.253906 140.542969 429.484375 152.632813 C 427.386719 154.792969 425.835938 156.238281 425.835938 156.238281 L 417.769531 150.972656 C 443.792969 127.710938 438.757813 101.355469 432.273438 88.867188 L 438.488281 82.148438 C 443.640625 88.644531 444.425781 97.550781 445.992188 105.835938 Z M 436.394531 3.757813 C 444.9375 4.066406 449.042969 4.9375 450.285156 9.90625 C 451.824219 16.039063 450.714844 46.996094 446.148438 63.527344 C 443.144531 74.40625 435.113281 85.4375 425.246094 90.660156 L 420.179688 85.3125 C 440.941406 69.921875 439.238281 44.78125 439.234375 23.742188 C 439.234375 12.875 436.101563 13.632813 423.648438 14.484375 C 408.441406 15.523438 394.621094 19.585938 381.480469 25.980469 L 373.335938 20.15625 C 397.105469 4.945313 421.96875 3.230469 436.394531 3.757813 Z M 321.863281 6.632813 C 354.46875 7.59375 380.472656 26.527344 388.523438 33.074219 C 390.214844 34.449219 393.410156 37.320313 393.410156 37.320313 L 386.296875 44.125 C 374.875 34.4375 362.46875 26.652344 348.988281 21.808594 C 322.714844 12.371094 302.527344 15.046875 287.039063 24.890625 C 287.039063 24.890625 281.214844 20.324219 278.300781 18.757813 C 287.933594 11.703125 310.769531 6.308594 321.863281 6.632813 Z M 182.953125 15.5625 C 188.652344 12.179688 196.785156 7.480469 206.386719 4.65625 C 215.964844 1.84375 233.503906 1.757813 241.554688 3.496094 C 253.140625 5.992188 262.96875 11.65625 269.546875 15.5625 C 274.230469 18.34375 293.535156 32 298.460938 36.144531 C 295.4375 37.488281 293.003906 38.972656 290.3125 40.878906 C 272.617188 27.773438 254.699219 15.902344 234.648438 9.519531 C 230.042969 8.128906 222.457031 8.128906 217.851563 9.519531 C 197.800781 15.902344 179.882813 27.773438 162.1875 40.878906 C 159.496094 38.972656 157.0625 37.488281 154.039063 36.144531 C 158.964844 32 178.269531 18.34375 182.953125 15.5625 Z M 130.636719 6.632813 C 141.730469 6.308594 164.566406 11.703125 174.199219 18.757813 C 171.285156 20.324219 165.460938 24.890625 165.460938 24.890625 C 149.972656 15.046875 129.785156 12.371094 103.511719 21.808594 C 90.03125 26.652344 77.625 34.4375 66.203125 44.125 L 59.089844 37.320313 C 59.089844 37.320313 62.285156 34.449219 63.976563 33.074219 C 72.027344 26.527344 98.03125 7.59375 130.636719 6.632813 Z M 6.351563 63.527344 C 1.785156 46.996094 0.675781 16.039063 2.210938 9.90625 C 3.457031 4.9375 7.5625 4.066406 16.105469 3.757813 C 30.53125 3.230469 55.394531 4.945313 79.164063 20.15625 L 71.019531 25.980469 C 57.878906 19.585938 44.054688 15.523438 28.851563 14.484375 C 16.398438 13.632813 13.265625 12.875 13.265625 23.742188 C 13.261719 44.78125 11.558594 69.921875 32.324219 85.3125 L 27.253906 90.660156 C 17.386719 85.4375 9.355469 74.40625 6.351563 63.527344 Z M 6.507813 105.835938 C 8.074219 97.550781 8.859375 88.644531 14.011719 82.148438 L 20.226563 88.867188 C 13.742188 101.355469 8.707031 127.710938 34.730469 150.972656 L 26.667969 156.238281 C 26.667969 156.238281 25.117188 154.792969 23.015625 152.632813 C 11.246094 140.542969 4.117188 126.238281 6.507813 105.835938 Z M 6.683594 164.507813 C 3.257813 155.066406 5.292969 143.945313 10.257813 139.660156 C 12.113281 143.5 14.472656 146.425781 16.46875 149.0625 C 10.585938 167.914063 25.34375 175.734375 33.863281 183.117188 C 32.183594 184.460938 29.269531 187.289063 27.449219 188.492188 C 19.242188 183.488281 10.171875 174.121094 6.683594 164.507813 Z M 10.203125 175.613281 L 17.820313 184.011719 C 11.324219 197.453125 28.289063 204.84375 36.410156 211.453125 C 33.300781 213.507813 31.136719 214.773438 28.429688 216.773438 C 13.859375 208.320313 -1.734375 188.9375 10.203125 175.613281 Z M 7.289063 211.117188 C 8.074219 209.101563 9.082031 207.195313 10.539063 205.40625 C 12.695313 207.167969 14.683594 208.988281 17.820313 211.898438 C 15.800781 214.589844 15.019531 218.285156 15.355469 221.53125 C 21.851563 230.269531 29.128906 238.109375 37.53125 244.15625 L 29.128906 251.4375 C 18.828125 241.355469 0.683594 227.578125 7.289063 211.117188 Z M 4.679688 249.28125 C 4.710938 242.320313 9.894531 236.007813 9.894531 236.007813 C 11.9375 237.714844 14.347656 240.460938 16.585938 242.476563 C 12.554688 258.605469 20.339844 271.203125 34.617188 280.949219 C 32.492188 283.199219 31.023438 284.855469 29.214844 286.464844 C 20.628906 281.003906 4.589844 271.089844 4.679688 249.28125 Z M 5.640625 311.417969 C 4.160156 299.804688 7.402344 285.8125 12.554688 275.964844 L 21.066406 283.691406 C 14.847656 296.894531 13.191406 323.71875 37.195313 341.261719 C 37.195313 341.261719 30.644531 346.523438 29.074219 347.726563 C 13.519531 331.863281 6.707031 319.789063 5.640625 311.417969 Z M 81.628906 388.015625 C 69.722656 395.414063 48.679688 404.0625 30.960938 406.039063 C 11.746094 408.183594 7.011719 404.996094 2.996094 386.050781 C -1.644531 364.144531 6.359375 334.730469 11.042969 329.164063 L 17.820313 338.125 C 15.691406 344.199219 13.054688 367.023438 13.070313 374.160156 C 13.113281 390.582031 13.890625 395.792969 23.109375 396.308594 C 30.9375 396.742188 51.382813 393.414063 63.257813 387.539063 C 68.839844 384.78125 93.445313 369.734375 100.054688 364.023438 C 101.398438 366.601563 103.527344 369.792969 105.878906 371.585938 C 105.878906 371.585938 88.875 383.515625 81.628906 388.015625 Z M 155.519531 397.992188 C 131.3125 405.027344 108.550781 401.824219 84.347656 388.859375 C 88.210938 386.226563 91.90625 384.183594 95.65625 381.578125 C 103.742188 389.226563 128.566406 393.980469 146.394531 391.324219 C 162.746094 387.628906 179.320313 379.117188 191.976563 367.914063 L 202.507813 373.515625 C 185.238281 383.386719 174.171875 392.574219 155.519531 397.992188 Z M 238.589844 405.257813 C 229.292969 407.933594 224.101563 407.957031 215.199219 405.613281 C 203.023438 402.40625 192.40625 395.414063 181.898438 388.523438 C 185.984375 386.285156 188.140625 384.574219 192.175781 382.449219 C 199.703125 387.386719 207.296875 393.457031 216.527344 396.65625 C 224.375 399.378906 229.546875 399.285156 237.988281 395.902344 C 246.324219 392.566406 253.355469 387.023438 260.324219 382.449219 C 264.359375 384.574219 266.515625 386.285156 270.601563 388.523438 C 260.46875 395.167969 250.230469 401.910156 238.589844 405.257813 Z M 296.980469 397.992188 C 278.328125 392.574219 267.261719 383.386719 249.996094 373.515625 L 260.523438 367.914063 C 273.179688 379.117188 289.753906 387.628906 306.105469 391.324219 C 323.933594 393.980469 348.757813 389.226563 356.84375 381.578125 C 360.59375 384.183594 364.289063 386.226563 368.152344 388.859375 C 343.949219 401.824219 321.1875 405.027344 296.980469 397.992188 Z M 421.539063 406.039063 C 403.816406 404.0625 382.777344 395.414063 370.871094 388.015625 C 363.625 383.515625 346.621094 371.585938 346.621094 371.585938 C 348.972656 369.792969 351.101563 366.601563 352.445313 364.023438 C 359.054688 369.734375 383.660156 384.78125 389.242188 387.539063 C 401.117188 393.414063 421.5625 396.742188 429.390625 396.308594 C 438.609375 395.792969 439.386719 390.582031 439.429688 374.160156 C 439.445313 367.023438 436.808594 344.199219 434.683594 338.125 L 441.457031 329.164063 C 446.140625 334.730469 454.144531 364.144531 449.503906 386.050781 C 445.488281 404.996094 440.753906 408.183594 421.539063 406.039063 "/>
</g>
</svg>
