<?xml version="1.0" encoding="UTF-8"?>
<svg xmlns="http://www.w3.org/2000/svg" xmlns:xlink="http://www.w3.org/1999/xlink" width="467pt" height="130pt" viewBox="0 0 467 130" version="1.1">
<g id="surface1">
<path style=" stroke:none;fill-rule:nonzero;fill:rgb(0%,0%,0%);fill-opacity:1;" d="M 92.414063 43.34375 C 97.507813 36.300781 107.164063 23.058594 107.640625 22.160156 C 114.4375 9.398438 104.269531 7.019531 95.597656 7.453125 C 72.777344 8.601563 40.789063 24.066406 21.59375 36.570313 C 14.089844 41.574219 7.78125 45.859375 0.347656 51.007813 C 9.945313 59.40625 16.875 68.371094 23.019531 80.34375 C 26.984375 88.871094 25.410156 102.285156 24.273438 111.808594 C 23.484375 118.1875 22.769531 123.5625 21.863281 129.917969 C 29.589844 124.101563 36.148438 119.246094 43.949219 113.5625 C 62.363281 100.933594 78.972656 92.292969 99.355469 84.734375 C 99.355469 84.734375 98 70.75 90.734375 54.929688 C 89.375 51.96875 89.980469 46.703125 92.414063 43.34375 "/>
<path style=" stroke:none;fill-rule:nonzero;fill:rgb(0%,0%,0%);fill-opacity:1;" d="M 92.722656 46.773438 C 92.128906 47.894531 91.800781 48.195313 92.464844 48.925781 C 94.601563 51.289063 103.226563 50.273438 106.039063 49.625 C 110.125 48.421875 113.46875 46.910156 117.175781 44.585938 C 116.632813 43.253906 116.1875 42.121094 115.683594 40.773438 C 113.351563 33.503906 111.898438 27.140625 110.820313 19.492188 C 109.609375 22.59375 108.359375 25.097656 106.644531 27.863281 C 104.367188 31.1875 93.164063 45.945313 92.722656 46.773438 "/>
<path style=" stroke:none;fill-rule:nonzero;fill:rgb(0%,0%,0%);fill-opacity:1;" d="M 348.613281 107.78125 C 351.164063 105.542969 353.496094 103.917969 356.398438 102.355469 C 358.644531 101.304688 365.503906 97.601563 365.773438 97.292969 C 366.046875 96.984375 367.421875 94.960938 367.539063 94.425781 C 368.378906 90.644531 363.222656 86.863281 361.371094 86.097656 C 356.191406 84.015625 351.5625 83.074219 346.085938 82.984375 C 348.078125 91.488281 348.84375 98.972656 348.613281 107.78125 "/>
<path style=" stroke:none;fill-rule:nonzero;fill:rgb(0%,0%,0%);fill-opacity:1;" d="M 369.285156 88.886719 C 369.175781 85.585938 369.125 82.796875 369.109375 79.492188 C 369.601563 67.71875 370.296875 57.789063 371.445313 46.074219 C 372.277344 38.789063 373.589844 27.226563 373.605469 25.863281 C 373.6875 19.195313 372.546875 15.644531 368.675781 12.105469 C 363.242188 7.132813 354.4375 5.15625 346.796875 3.851563 C 293.828125 -5.183594 225.871094 4.328125 175.484375 23.511719 C 172.335938 24.710938 114.902344 49.789063 110.96875 51.328125 C 105.101563 54.035156 99.382813 54.277344 93.359375 52.070313 C 96.058594 59.960938 98.28125 66.644531 100.851563 74.589844 C 101.527344 76.75 102.015625 78.613281 102.496094 80.84375 C 102.902344 82.785156 106 106.402344 106.515625 109.109375 C 107.261719 114.273438 109.328125 118.398438 112.828125 121.714844 C 122.464844 129.972656 145.324219 120.984375 153.863281 117.664063 C 162.761719 114.203125 171.902344 110.238281 180.84375 106.757813 C 231.761719 87.3125 277.160156 78.875 330.777344 78.890625 C 341.09375 79.003906 349.800781 79.976563 359.941406 82.144531 C 364.847656 83.429688 366.082031 84.90625 369.285156 88.886719 "/>
<path style=" stroke:none;fill-rule:nonzero;fill:rgb(0%,0%,0%);fill-opacity:1;" d="M 452.304688 98.550781 C 451.824219 97.824219 446.035156 88.238281 446.503906 86.207031 C 448.222656 77.421875 450.347656 70.167969 453.601563 61.984375 C 456.15625 55.605469 458.367188 50.25 461.054688 43.945313 C 430.273438 41.40625 403.875 44.515625 374.167969 54.179688 C 373.132813 63.089844 372.65625 70.675781 372.570313 79.667969 C 372.679688 83.542969 372.855469 90.734375 372.742188 91.933594 C 372.257813 97.128906 370.988281 99.277344 366.859375 101.703125 C 362.671875 104.171875 354.425781 108.777344 353.371094 109.558594 C 347.082031 114.210938 345.976563 123.265625 353.199219 127.71875 C 360.4375 132.183594 373.089844 129.285156 380.785156 127.46875 C 388.765625 125.585938 399.554688 122.6875 404.523438 121.613281 C 425.960938 117.382813 444.472656 116.394531 466.152344 118.324219 C 461.230469 111.421875 457.117188 105.554688 452.304688 98.550781 "/>
</g>
</svg>
