<?xml version="1.0" encoding="UTF-8"?>
<svg xmlns="http://www.w3.org/2000/svg" xmlns:xlink="http://www.w3.org/1999/xlink" width="541pt" height="260pt" viewBox="0 0 541 260" version="1.1">
<g id="surface1">
<path style=" stroke:none;fill-rule:nonzero;fill:rgb(0%,0%,0%);fill-opacity:1;" d="M 248.089844 9.957031 C 249.53125 9.339844 248.398438 7.488281 249.941406 6.976563 C 248.8125 2.859375 251.792969 3.476563 252.203125 0.699219 C 246.855469 1.832031 243.050781 7.488281 238.113281 8.824219 C 229.269531 18.390625 217.542969 23.945313 207.773438 34.023438 C 185.453125 57.578125 164.574219 80.410156 142.976563 104.375 C 119.628906 134.410156 92.578125 162.691406 74.066406 195.089844 C 72.09375 198.394531 68.171875 200.421875 68.867188 197.589844 C 81.003906 170.230469 95.148438 142.84375 108.933594 115.792969 C 111.09375 111.574219 116.234375 108.179688 117.777344 103.964844 C 121.890625 96.046875 127.34375 88.640625 131.457031 80.617188 C 130.980469 78.601563 124.257813 85.65625 123.332031 84.730469 C 114.796875 94.914063 102.453125 103.964844 93.402344 114.765625 C 107.789063 91.914063 95.355469 108.902344 88.15625 116.613281 C 76.664063 126.945313 67.984375 139.453125 58.539063 150.648438 C 57.925781 151.378906 57.53125 150.960938 57.964844 150.035156 C 61.460938 142.566406 65.355469 135.226563 68.921875 127.722656 C 76.019531 113.015625 84.246094 98.308594 91.859375 83.601563 C 95.253906 82.46875 95.457031 75.988281 99.675781 75.0625 C 101.136719 74.367188 102.863281 70.847656 101.117188 68.070313 C 106.359375 61.589844 110.476563 53.875 116.339844 47.292969 C 114.796875 44.515625 119.21875 42.664063 118.1875 39.886719 C 116.8125 40 111.269531 47.292969 109.652344 45.132813 C 113.355469 39.0625 115.105469 31.042969 119.320313 25.078125 C 116.644531 23.328125 121.855469 16.894531 117.777344 19.933594 C 109.859375 27.957031 103.6875 36.390625 97.414063 45.441406 C 92.066406 52.742188 88.875 61.382813 83.015625 67.65625 C 70.980469 90.800781 55.550781 112.605469 45.574219 136.566406 C 41.976563 145.414063 37.246094 153.640625 34.878906 162.898438 C 22.332031 186.761719 6.800781 210.003906 0.0117188 236.539063 C 3.40625 237.671875 5.566406 241.890625 2.996094 245.386719 C 7.625 250.527344 7.828125 241.066406 11.121094 240.65625 C 10.914063 244.460938 7.007813 248.78125 9.679688 252.070313 C 18.628906 246.414063 21.714844 237.464844 27.472656 229.546875 C 29.425781 224.09375 36.011719 220.597656 36.730469 214.734375 C 50.921875 188.40625 66.660156 161.871094 87.023438 139.140625 C 83.734375 154.671875 72.214844 167.835938 65.632813 182.132813 C 55.65625 203.421875 47.53125 225.433594 43.414063 249.089844 C 42.796875 250.015625 41.460938 255.054688 41.5625 257.625 C 42.59375 260.296875 44.855469 256.90625 45.988281 259.476563 C 45.574219 260.195313 48.351563 259.167969 48.96875 257.316406 C 52.15625 259.167969 54.625 254.332031 56.683594 252.480469 C 87.4375 200.953125 119.9375 151.996094 158.199219 103.65625 C 183.5 69.816406 218.570313 39.0625 248.089844 9.957031 "/>
<path style=" stroke:none;fill-rule:nonzero;fill:rgb(0%,0%,0%);fill-opacity:1;" d="M 100.082031 99.085938 C 99.421875 99.777344 101.234375 99.375 102.34375 98.367188 C 109.957031 93.839844 122.3125 82.9375 120.445313 83.246094 C 120.035156 83.246094 105.84375 92.195313 100.082031 99.085938 "/>
<path style=" stroke:none;fill-rule:nonzero;fill:rgb(0%,0%,0%);fill-opacity:1;" d="M 535.871094 51.40625 C 521.882813 62.925781 506.867188 77.53125 493.289063 91.414063 C 484.960938 99.335938 480.328125 109.722656 470.660156 116.203125 C 467.578125 115.792969 467.886719 121.140625 463.976563 119.1875 C 463.152344 119.496094 459.453125 118.980469 457.703125 119.1875 C 445.875 121.140625 434.046875 127.621094 423.96875 135.128906 C 421.089844 136.054688 418.414063 138.933594 417.386719 140.992188 C 409.980469 144.488281 403.191406 149.320313 396.609375 154.671875 C 392.085938 155.597656 388.585938 159.8125 384.0625 159.503906 C 380.152344 162.691406 375.523438 163.308594 372.953125 166.910156 C 362.976563 171.332031 352.175781 182.132813 342.921875 186.964844 C 338.1875 187.890625 334.179688 192.621094 330.371094 193.238281 C 326.976563 193.753906 324.40625 198.175781 321.117188 196.53125 C 322.65625 193.238281 325.847656 190.667969 328.109375 187.683594 C 330.988281 186.144531 332.609375 180.722656 334.667969 182.058594 C 338.4375 182.175781 346.3125 175.242188 350.738281 170.304688 C 357.054688 170.867188 368.851563 160.582031 371.410156 156.519531 C 384.371094 148.601563 394.964844 137.390625 405.867188 126.898438 C 409.671875 122.273438 415.535156 116.101563 417.386719 112.910156 C 419.972656 110.667969 420.578125 107.039063 417.695313 108.078125 C 412.34375 108.078125 405.351563 110.03125 400.3125 113.941406 C 394.140625 113.425781 390.335938 118.773438 385.089844 120.625 C 354.746094 137.082031 328.726563 165.160156 303.632813 188.816406 C 300.855469 194.472656 294.683594 198.589844 289.953125 202.804688 C 289.335938 203.421875 287.996094 203.421875 287.378906 202.804688 C 290.570313 195.195313 297.046875 188.40625 301.78125 181.71875 C 325.023438 149.628906 342.507813 117.128906 374.804688 88.84375 C 379.125 83.90625 388.070313 90.800781 389.921875 85.863281 C 416.972656 85.039063 440.113281 80.410156 466.238281 78.457031 C 467.78125 78.355469 471.074219 78.457031 472.925781 78.765625 C 476.730469 76.195313 482.183594 78.046875 486.191406 78.046875 C 491.539063 77.015625 503.464844 78.601563 499.871094 76.605469 C 494.523438 73.417969 486.808594 75.269531 481.769531 72.183594 C 465.3125 70.949219 450.09375 73.007813 433.636719 71.769531 C 418.824219 71.257813 404.527344 72.902344 389.921875 71.769531 C 394.140625 60.457031 410.1875 55.519531 411.007813 42.5625 C 412.410156 39.277344 410.292969 36.554688 404.015625 41.019531 C 390.335938 48.527344 381.796875 62.308594 370.691406 72.902344 C 348.78125 75.78125 325.640625 70.640625 306.304688 81.746094 C 303.632813 81.335938 306.511719 85.246094 308.15625 85.449219 C 313.710938 91.621094 322.65625 89.359375 329.550781 88.84375 C 337.261719 90.386719 346.828125 87.40625 354.746094 88.433594 C 354.644531 88.535156 354.542969 88.742188 354.441406 88.84375 C 354.644531 87.714844 329.035156 121.859375 315.148438 139.140625 C 297.152344 158.578125 279.769531 176.269531 260.742188 196.222656 C 258.683594 198.382813 256.113281 200.644531 254.054688 201.777344 C 254.054688 201.261719 248.8125 206.816406 245.929688 209.488281 C 245.726563 208.871094 256.9375 185.527344 264.03125 175.855469 C 270.234375 174.195313 276.046875 167.539063 271.4375 167.628906 C 269.484375 167.9375 302.191406 128.855469 315.871094 109.929688 C 315.253906 108.59375 317.515625 108.386719 316.28125 106.945313 C 316.214844 105.828125 313.503906 105.90625 312.886719 107.039063 C 308.257813 105.804688 307.230469 111.78125 304.761719 112.089844 C 303.632813 113.222656 277.300781 124.738281 266.605469 133.996094 C 260.125 136.566406 256.214844 143.460938 249.941406 142.535156 C 253.128906 137.082031 258.480469 133.996094 261.050781 128.03125 C 261.460938 127.003906 262.902344 118.261719 265.574219 116.203125 C 265.679688 116.308594 269.382813 113.734375 268.148438 112.910156 C 267.632813 111.371094 269.175781 110.238281 270.71875 109.210938 C 273.804688 103.859375 269.933594 105.980469 267.015625 108.796875 C 263.578125 108.550781 234.210938 134.109375 234.109375 134.007813 C 229.191406 138.269531 197.664063 165.199219 186.996094 176.886719 C 184.835938 178.636719 178.171875 185.085938 179.28125 180.589844 C 180.394531 176.09375 212.09375 131.835938 233.691406 110.648438 C 233.796875 109.929688 235.132813 109.003906 233.691406 108.386719 C 233.898438 107.152344 232.253906 108.902344 231.429688 109.210938 C 220.835938 109.3125 216.925781 121.035156 207.773438 124.738281 C 190.390625 140.992188 173.214844 157.757813 158.507813 175.855469 C 158.09375 175.652344 152.746094 179.355469 151.101563 182.132813 C 146.269531 186.246094 140.300781 190.359375 134.851563 192.828125 C 143.285156 168.347656 163.648438 150.144531 183.292969 131.015625 C 196.972656 124.433594 209.726563 114.867188 221.863281 105.507813 C 225.160156 103.410156 226.070313 100.988281 222.171875 102.113281 C 218.367188 103.039063 212.8125 107.871094 208.492188 103.65625 C 202.835938 105.300781 197.386719 107.460938 192.550781 111.0625 C 176.09375 123.917969 159.742188 135.539063 145.238281 152.511719 C 132.175781 167.9375 118.1875 182.027344 113.765625 200.953125 C 113.457031 208.566406 115.71875 216.484375 112.222656 223.992188 C 111.621094 227.433594 116.058594 229.855469 118.496094 227.285156 C 127.445313 220.1875 135.878906 209.59375 144.828125 202.804688 C 153.261719 194.886719 158.609375 185.113281 167.765625 178.019531 C 171.316406 178.226563 167.96875 181.515625 165.605469 182.851563 C 161.59375 193.238281 154.496094 202.289063 149.96875 212.472656 C 150.277344 213.089844 150.484375 213.707031 150.792969 214.324219 C 149.558594 218.4375 143.695313 222.242188 147.398438 226.5625 C 150.382813 226.871094 151.925781 223.375 154.496094 222.449219 C 161.695313 215.148438 179.589844 200.027344 178.5625 198.382813 C 190.082031 184.394531 202.527344 172.976563 214.765625 159.914063 C 214.5625 161.253906 214.046875 163.414063 212.605469 164.75 C 174.339844 216.542969 172.929688 221.789063 178.261719 219.859375 C 178.566406 220.167969 184.628906 220.578125 182.574219 223.167969 C 180.523438 225.761719 175.753906 229.046875 179.28125 228.414063 C 182.8125 227.78125 177.433594 233.144531 178.152344 235.410156 C 181.132813 235.203125 182.574219 231.5 185.558594 231.398438 C 196.5625 220.703125 203.554688 207.433594 213.328125 196.222656 C 213.121094 199.207031 258.359375 147.644531 282.941406 128.515625 C 284 127.609375 285.941406 126.488281 286.660156 126.898438 C 282.339844 136.15625 272.671875 142.945313 269.277344 152.511719 C 269.074219 155.285156 264.648438 154.875 265.574219 158.0625 C 249.53125 176.988281 237.703125 198.074219 225.15625 219.15625 C 223.714844 222.550781 221.964844 225.945313 221.144531 229.546875 C 221.246094 239.214844 215.179688 247.339844 213.738281 256.90625 C 213.429688 257.523438 214.046875 257.933594 214.457031 258.34375 C 216.207031 258.960938 218.570313 258.960938 220.320313 258.34375 C 229.371094 257.109375 229.578125 242.8125 239.65625 245.386719 C 248.914063 235.304688 259.816406 225.226563 269.585938 215.765625 C 272.363281 213.398438 272.773438 208.976563 275.550781 207.640625 C 275.242188 214.324219 268.867188 220.703125 267.015625 228.003906 C 266.707031 229.03125 267.324219 230.472656 268.453125 230.265625 C 279.050781 222.550781 289.027344 212.0625 298.078125 202.496094 C 298.898438 200.746094 300.855469 198.792969 302.191406 196.941406 C 303.320313 190.667969 311.859375 189.125 311.859375 190.257813 C 310.625 191.078125 309.390625 192.621094 309.597656 193.238281 C 305.480469 200.335938 298.386719 206.816406 297.046875 215.457031 C 296.945313 218.335938 293.035156 221.011719 295.503906 223.582031 C 293.449219 227.078125 288.511719 229.136719 286.96875 233.25 C 288.613281 233.453125 290.261719 235.921875 291.804688 233.96875 C 292.933594 228.210938 299.207031 229.957031 302.910156 228.003906 C 309.800781 221.625 316.269531 218.082031 323.777344 211.703125 C 328.617188 207.46875 330.433594 211.703125 331.8125 209.902344 C 344.257813 198.589844 358.039063 189.84375 371.101563 180.589844 C 369.351563 183.058594 365.652344 189.84375 362.566406 194.371094 C 353.410156 201.980469 350.222656 214.53125 350.324219 226.5625 C 348.886719 226.769531 347.652344 228.3125 348.0625 229.855469 C 348.679688 230.78125 349.605469 232.53125 351.046875 232.117188 C 354.132813 231.089844 353.308594 228.929688 354.027344 229.855469 C 358.554688 234.277344 361.910156 225.742188 366.128906 224.710938 C 368.246094 223.199219 367.339844 227.433594 369.757813 225.015625 C 380.660156 217.199219 388.585938 205.582031 399.179688 198.074219 C 407.304688 186.964844 420.777344 177.503906 430.34375 167.628906 C 430.859375 167.527344 431.679688 166.910156 432.195313 167.628906 C 426.847656 174.933594 422.011719 182.644531 416.5625 189.535156 C 403.808594 202.703125 398.976563 219.054688 387.765625 232.839844 C 388.070313 236.539063 389.117188 241.652344 394.347656 239.523438 C 410.390625 232.015625 436.722656 217.308594 434.355469 216.894531 C 441.039063 212.371094 452.148438 205.890625 450.296875 205.480469 C 452.5625 203.628906 433.246094 216.023438 415.25 217.566406 C 412.109375 218.359375 413.578125 214.941406 413.269531 214.734375 C 415.535156 211.546875 421.183594 207.773438 422.117188 205.066406 C 422.695313 202.023438 426.023438 202.328125 425.820313 198.792969 C 427.980469 191.386719 428.082031 181.515625 437.339844 178.738281 C 439.085938 174.316406 444.332031 170.097656 444.332031 165.058594 C 451.429688 155.183594 468.707031 140.066406 469.53125 139.859375 C 471.175781 138.421875 501.3125 100.980469 518.796875 79.898438 C 519.515625 78.972656 519.929688 77.839844 519.929688 76.605469 C 527.640625 69.714844 532.359375 58.585938 539.765625 51.074219 C 542.488281 47.144531 538.253906 49.261719 535.871094 51.40625 Z M 359.171875 150.246094 C 358.449219 150.453125 369.660156 143.5625 374.394531 139.859375 C 378.609375 139.757813 381.59375 134.71875 385.914063 133.585938 C 384.0625 140.785156 374.1875 141.710938 371.410156 146.234375 C 369.351563 145.515625 369.351563 148.703125 366.988281 149.117188 C 357.730469 155.082031 347.855469 161.355469 339.628906 167.628906 C 345.492188 161.972656 351.972656 154.566406 359.171875 150.246094 Z M 451.019531 135.128906 C 444.539063 144.898438 434.355469 152.097656 428.492188 162.074219 C 415.121094 174.109375 400.3125 183.777344 387.351563 197.660156 C 384.679688 200.335938 380.949219 202.328125 377.375 202.085938 C 372.480469 200.816406 387.558594 186.964844 388.070313 178.019531 C 392.496094 175.550781 393.832031 171.433594 396.199219 167.628906 C 405.144531 159.296875 414.09375 148.191406 425.820313 145.105469 C 426.746094 146.234375 428.597656 143.5625 429.214844 142.121094 C 430.445313 140.375 435.179688 136.980469 438.46875 136.566406 C 440.21875 132.351563 445.875 133.585938 446.183594 133.585938 C 446.390625 133.378906 452.972656 133.277344 451.019531 135.128906 "/>
</g>
</svg>
