<?xml version="1.0" encoding="UTF-8"?>
<svg xmlns="http://www.w3.org/2000/svg" xmlns:xlink="http://www.w3.org/1999/xlink" width="544pt" height="174pt" viewBox="0 0 544 174" version="1.1">
<g id="surface1">
<path style=" stroke:none;fill-rule:nonzero;fill:rgb(0%,0%,0%);fill-opacity:1;" d="M 157.605469 106.796875 C 159.738281 97.148438 168.824219 87.949219 175.558594 80.878906 C 177.128906 77.402344 174.4375 76.953125 172.191406 76.390625 C 169.722656 73.359375 171.519531 68.648438 168.265625 69.660156 C 152.332031 79.421875 143.804688 94.566406 129.667969 107.695313 C 131.910156 95.464844 143.804688 86.265625 150.3125 75.382813 C 150.199219 74.148438 151.882813 73.25 150.761719 72.128906 C 148.519531 72.800781 146.722656 74.148438 144.703125 75.382813 C 134.828125 86.152344 124.058594 96.699219 113.511719 107.246094 C 111.492188 109.042969 109.136719 112.742188 106.664063 111.285156 C 109.695313 97.933594 120.355469 87.722656 130.566406 77.402344 C 148.40625 58.664063 117.550781 76.167969 118.445313 74.933594 C 120.691406 71.003906 115.195313 73.25 114.40625 70.445313 C 112.5 72.351563 115.445313 74.757813 112.164063 76.953125 C 108.125 85.816406 102.265625 84.601563 99.371094 86.265625 C 95.335938 79.757813 100.945313 78.074219 111.601563 69.660156 C 108.796875 65.730469 103.074219 71.003906 99.824219 71.34375 C 84.226563 79.421875 67.394531 84.582031 51.351563 91.539063 C 50.566406 92.097656 60.664063 74.59375 60.214844 75.71875 C 69.527344 64.609375 70.425781 54.175781 82.09375 45.085938 C 81.757813 38.804688 86.582031 34.765625 90.171875 30.050781 C 91.070313 26.011719 92.867188 22.199219 96.230469 19.167969 C 99.710938 13.335938 106.21875 8.171875 105.433594 0.992188 C 90.621094 7.613281 85.574219 23.992188 75.585938 35.324219 C 70.539063 40.375 67.957031 47.78125 63.46875 52.714844 C 58.308594 60.121094 54.15625 67.753906 49.78125 75.382813 C 44.617188 79.980469 45.40625 88.621094 39.683594 91.539063 C 37.773438 102.757813 24.648438 97.710938 24.308594 106.796875 C 26.667969 105.339844 33.398438 107.023438 33.960938 106.796875 C 34.183594 107.023438 29.472656 114.875 27.566406 116.894531 C 27.453125 114.988281 24.648438 119.925781 22.628906 123.402344 C 17.355469 130.585938 13.652344 141.019531 10.171875 150.105469 C 6.695313 152.351563 6.917969 157.625 5.347656 161.328125 C 0.410156 164.355469 3.105469 169.742188 0.0742188 173.894531 C 1.984375 173.445313 4.449219 173.332031 5.347656 171.425781 C 13.539063 171.425781 20.273438 163.570313 23.078125 156.164063 C 39.121094 138.4375 56.738281 120.035156 75.136719 104.777344 C 75.921875 105.113281 75.136719 109.714844 73.566406 109.714844 C 72.558594 112.296875 73.117188 116.671875 71.097656 117.34375 C 73.457031 120.933594 64.816406 124.300781 70.761719 125.421875 C 76.148438 125.757813 79.960938 122.054688 84.113281 119.363281 C 98.363281 107.46875 103.972656 86.9375 121.253906 81.441406 C 115.195313 89.628906 106.890625 95.464844 104.648438 104.777344 C 101.054688 106.796875 97.351563 115.324219 97.015625 120.148438 C 111.042969 124.636719 117.773438 109.488281 124.507813 100.402344 C 126.527344 101.1875 123.832031 101.75 124.058594 102.757813 C 120.019531 111.171875 119.683594 117.230469 121.703125 116.222656 C 126.527344 120.035156 130.675781 114.539063 132.921875 111.734375 C 140.886719 101.410156 150.425781 91.988281 159.960938 83.011719 C 162.878906 81.550781 161.644531 87.609375 165.234375 88.285156 C 160.746094 93.558594 154.914063 97.933594 151.546875 102.757813 C 149.527344 104.777344 147.28125 112.070313 148.742188 114.875 C 161.757813 115.4375 171.070313 106.910156 181.839844 101.972656 C 191.265625 97.371094 202.148438 95.015625 210.453125 88.621094 C 191.601563 91.652344 176.117188 104.105469 157.605469 106.796875 Z M 138.066406 87.335938 L 136.59375 91.253906 L 133.164063 93.050781 Z M 59.011719 64.140625 L 63.257813 55.8125 L 68.320313 50.097656 L 61.296875 61.691406 L 60.808594 65.285156 L 57.050781 68.550781 Z M 13.769531 157.699219 C 13.503906 157.972656 13.652344 158.410156 13.425781 156.953125 C 13.652344 153.359375 17.464844 151.230469 16.570313 147.191406 C 15.894531 147.75 34.519531 113.753906 39.234375 108.367188 C 47.085938 108.367188 44.84375 107.132813 54.378906 105.5625 C 56.402344 105.003906 62.683594 106.460938 63.355469 107.808594 C 44.113281 125.835938 31.84375 138.847656 13.769531 157.699219 Z M 55.839844 97.933594 C 54.269531 96.699219 57.296875 94.679688 58.644531 94.34375 C 69.976563 89.070313 77.832031 86.152344 89.164063 80.878906 C 82.429688 89.855469 81.871094 95.691406 81.195313 96.699219 C 74.015625 98.269531 64.480469 96.921875 55.839844 97.933594 Z M 80.074219 116.894531 C 76.707031 116.78125 79.402344 112.742188 79.625 110.835938 C 84.226563 106.347656 83.777344 99.839844 87.703125 95.128906 C 94.097656 95.242188 98.476563 90.527344 104.308594 89.070313 C 97.015625 98.71875 90.507813 110.050781 80.074219 116.894531 Z M 160.605469 109.222656 L 166.320313 106.28125 L 167.953125 107.097656 L 160.605469 109.222656 "/>
<path style=" stroke:none;fill-rule:nonzero;fill:rgb(0%,0%,0%);fill-opacity:1;" d="M 279.121094 78.1875 C 271.601563 82.675781 265.878906 89.855469 260.394531 95.691406 C 260.394531 95.691406 257.632813 100.792969 253.03125 96.867188 C 255.949219 93.5 268.683594 77.175781 273.960938 69.320313 C 271.714844 69.433594 268.683594 70.332031 266.664063 72.128906 C 261.730469 77.960938 254.210938 82.335938 247.253906 83.796875 C 252.191406 78.1875 264.757813 70.78125 251.292969 71.34375 C 238.953125 73.25 235.585938 80.316406 230.3125 87.050781 C 228.292969 83.683594 233.902344 75.269531 237.15625 69.320313 C 241.195313 62.367188 246.355469 54.175781 251.742188 49.464844 C 256.34375 40.597656 268.234375 35.324219 268.683594 25.226563 C 259.484375 26.347656 256.566406 37.457031 250.058594 41.832031 C 248.714844 45.648438 233.34375 66.515625 228.628906 70.105469 C 228.628906 70.445313 218.867188 90.191406 218.195313 88.285156 C 217.519531 89.742188 212.921875 107.917969 211.460938 108.367188 C 213.257813 113.753906 215.390625 115.101563 220.4375 112.296875 C 223.804688 109.488281 233.902344 103.320313 237.269531 98.269531 C 239.511719 97.710938 249.722656 87.386719 255.332031 85.03125 C 248.5625 92.359375 242.316406 100.964844 242.429688 101.972656 C 246.320313 108.070313 251.855469 100.625 256.117188 100.738281 C 256.679688 103.429688 240.074219 116.222656 234.6875 124.972656 C 231.144531 125.285156 221.695313 134.976563 225.367188 134.253906 C 220.683594 140.332031 212.378906 149.691406 206.417969 157.835938 C 205.378906 159.257813 204.410156 160.644531 203.542969 161.964844 C 202.59375 163.414063 201.769531 164.789063 201.109375 166.0625 C 205.847656 162.46875 203.613281 166.464844 205.535156 165.359375 C 213.863281 160.554688 229.855469 140.777344 244 124.636719 C 256.902344 104.777344 276.652344 92.660156 289.664063 72.128906 C 286.1875 71.679688 281.027344 74.707031 279.121094 78.1875 Z M 230.589844 94.023438 C 215.859375 107.449219 218.984375 99.796875 223.488281 92.25 C 223.683594 91.925781 224.054688 92.03125 224.140625 92.316406 C 224.726563 94.257813 228.144531 93.5 230.1875 93.484375 C 230.539063 93.480469 230.757813 93.871094 230.589844 94.023438 Z M 239.625 86.265625 C 233.117188 86.824219 239.847656 82 241.644531 80.992188 C 243.328125 81.101563 244.339844 79.308594 246.019531 79.421875 C 244.785156 82 241.867188 84.46875 239.625 86.265625 Z M 221.363281 147.277344 L 221.691406 143.847656 L 223.652344 142.214844 L 224.140625 139.765625 L 227.082031 137.640625 L 233.613281 132.90625 L 221.363281 147.277344 "/>
<path style=" stroke:none;fill-rule:nonzero;fill:rgb(0%,0%,0%);fill-opacity:1;" d="M 542.222656 63.347656 C 508.785156 75.128906 474.226563 83.765625 440.457031 94.875 C 439.78125 95.433594 438.324219 95.433594 437.652344 94.875 C 441.800781 89.488281 446.066406 84.101563 450.105469 78.71875 C 448.757813 77.257813 446.402344 78.269531 445.28125 76.25 C 445.28125 71.535156 445.96875 68.285156 450.105469 62.5625 C 447.972656 60.09375 444.160156 63.683594 441.691406 64.132813 C 430.019531 73.105469 418.464844 86.796875 406.121094 94.425781 C 409.265625 87.246094 414.535156 80.738281 420.707031 74.679688 C 423.851563 70.863281 428.5625 67.160156 428.785156 62.5625 C 426.765625 62.898438 424.859375 63.457031 423.066406 64.578125 C 408.816406 70.300781 392.171875 94.21875 383.085938 97.359375 C 382.636719 97.695313 381.289063 98.175781 381.886719 96.109375 C 385.925781 83.65625 399.277344 73.332031 407.355469 61.773438 C 402.082031 60.203125 391.535156 69.066406 384.355469 74.230469 C 383.683594 74.789063 382.449219 75.015625 381.886719 74.230469 C 383.457031 71.199219 387.273438 68.957031 387.945313 65.363281 C 388.953125 62.671875 389.5 59.332031 388.667969 58.332031 C 387.484375 57.550781 387.1875 57.585938 386.03125 57.933594 C 365.71875 64.035156 346.847656 75.878906 326.570313 83.207031 C 325.339844 80.289063 325.339844 77.257813 326.570313 74.230469 C 333.863281 68.507813 341.71875 59.289063 346.207031 49.433594 C 352.867188 34.804688 360.984375 27.617188 362.667969 16.511719 C 357.394531 15.949219 351 20.886719 348.53125 27.058594 C 341.125 33.339844 330.5 57.285156 328.140625 61.324219 C 327.246094 64.355469 323.429688 68.617188 323.765625 67.835938 C 322.867188 69.964844 320.847656 71.984375 319.277344 73.445313 C 318.828125 75.800781 314.789063 86.011719 314.003906 84.777344 C 313.554688 84.886719 310.191406 88.03125 307.609375 88.03125 C 304.269531 89.207031 302.480469 92.449219 299.605469 93.691406 C 299.191406 93.867188 299.300781 94.214844 299.839844 94.195313 C 302.394531 94.117188 305.382813 93.070313 307.609375 94.089844 C 306.488281 96.667969 305.140625 99.585938 302.671875 101.382813 C 301.773438 104.523438 297.734375 113.613281 295.492188 114.621094 C 294.929688 116.640625 293.023438 120.679688 292.238281 119.894531 C 291.117188 124.269531 288.421875 130.21875 284.945313 132.796875 C 285.394531 132.796875 282.363281 137.285156 283.375 138.519531 C 282.476563 139.195313 277.539063 146.597656 280.457031 143.792969 C 280.457031 146.261719 277.765625 146.710938 277.316406 148.957031 C 277.539063 148.730469 271.59375 159.390625 276.417969 162.308594 C 280.457031 158.828125 285.640625 159.207031 290.800781 153.710938 C 300.226563 145.742188 303.867188 139.988281 314.453125 130.441406 C 323.765625 130.105469 323.878906 118.996094 331.84375 114.621094 C 337.007813 109.796875 346.429688 96.894531 345.980469 93.304688 C 342.054688 91.394531 338.914063 86.796875 334.199219 88.03125 C 339.585938 79.613281 350.019531 78.492188 357.203125 74.230469 C 355.96875 78.269531 352.9375 80.289063 350.808594 84.328125 C 352.378906 83.992188 346.542969 104.636719 346.769531 106.65625 C 349.796875 111.367188 354.960938 111.257813 356.304688 108.339844 C 362.253906 109.011719 371.453125 92.742188 377.621094 81.972656 C 385.125 80.253906 385.324219 77.441406 382.671875 82.308594 C 382.222656 87.695313 376.277344 91.171875 375.042969 96.445313 C 374.03125 99.472656 376.949219 104.746094 378.183594 104.410156 C 390.640625 103.460938 395.351563 91.984375 404.367188 83.15625 C 404.933594 82.597656 405.550781 82.734375 405.09375 83.511719 C 402.816406 87.375 398.25 93.527344 399.277344 94.089844 C 392.246094 105.769531 403.339844 101.605469 408.589844 99.699219 C 420.597656 91.621094 427.214844 83.992188 434.847656 74.230469 C 435.519531 74.902344 437.203125 81.296875 439.671875 81.523438 C 436.191406 88.03125 423.402344 98.914063 424.300781 104.523438 C 427.328125 108.449219 430.503906 102.761719 434.207031 102.421875 C 464.613281 86.941406 501.546875 80.050781 533.074219 69.503906 C 532.414063 69.109375 530.496094 69.492188 528.796875 69.640625 C 528.1875 69.695313 528.117188 69.21875 528.621094 69.007813 C 533.039063 67.175781 537.789063 66.046875 542.222656 64.132813 C 543.71875 63.730469 544.59375 62.097656 542.222656 63.347656 Z M 343.832031 43.667969 L 341.332031 51.5 L 338 57.332031 L 335.664063 62.332031 L 332 65.5 Z M 332.292969 102.390625 C 316.472656 119.78125 301.773438 138.96875 281.804688 152.097656 C 290.890625 135.042969 298.183594 116.976563 311.648438 102.054688 C 312.210938 99.027344 311.871094 94.875 315.6875 93.976563 C 319.164063 93.191406 333.414063 97.117188 332.292969 102.390625 Z M 353.722656 101.605469 C 352.976563 98.613281 356.714844 86.644531 358.960938 83.65625 C 373.171875 84.402344 359.707031 98.613281 353.722656 101.605469 Z M 369.769531 77.820313 C 363.375 79.503906 367.1875 73.667969 368.199219 71.3125 C 371.5625 68.730469 374.480469 64.914063 378.746094 64.46875 C 379.417969 70.191406 373.359375 73.554688 369.769531 77.820313 "/>
</g>
</svg>
