<?xml version="1.0" encoding="UTF-8"?>
<svg xmlns="http://www.w3.org/2000/svg" xmlns:xlink="http://www.w3.org/1999/xlink" width="425pt" height="285pt" viewBox="0 0 425 285" version="1.1">
<g id="surface1">
<path style=" stroke:none;fill-rule:nonzero;fill:rgb(0%,0%,0%);fill-opacity:1;" d="M 423.585938 246.71875 L 409.785156 246.71875 L 409.785156 229.152344 C 409.785156 228.761719 409.46875 228.429688 409.058594 228.429688 L 403.847656 228.429688 L 403.847656 220.207031 C 403.847656 219.8125 403.527344 219.484375 403.117188 219.484375 L 397.980469 219.484375 L 397.980469 29.621094 L 400.328125 29.621094 C 400.734375 29.621094 401.054688 29.292969 401.054688 28.898438 L 401.054688 22.25 C 402.691406 21.554688 403.847656 19.9375 403.847656 18.046875 L 403.847656 13.515625 C 403.847656 11.003906 401.804688 8.96875 399.296875 8.96875 L 348.242188 8.96875 C 345.734375 8.96875 343.6875 11.003906 343.6875 13.515625 L 343.6875 18.046875 C 343.6875 19.9375 344.84375 21.554688 346.480469 22.25 L 346.480469 28.242188 L 307.484375 28.242188 L 212.453125 0.152344 C 212.3125 0.113281 212.171875 0.113281 212.027344 0.152344 L 117.015625 28.242188 L 78.019531 28.242188 L 78.019531 22.25 C 79.65625 21.554688 80.808594 19.9375 80.808594 18.046875 L 80.808594 13.515625 C 80.808594 11.003906 78.765625 8.96875 76.257813 8.96875 L 25.203125 8.96875 C 22.699219 8.96875 20.652344 11.003906 20.652344 13.515625 L 20.652344 18.046875 C 20.652344 19.9375 21.808594 21.554688 23.445313 22.25 L 23.445313 28.898438 C 23.445313 29.292969 23.765625 29.621094 24.171875 29.621094 L 26.519531 29.621094 L 26.519531 219.484375 L 21.382813 219.484375 C 20.972656 219.484375 20.652344 219.8125 20.652344 220.207031 L 20.652344 228.429688 L 15.425781 228.429688 C 15.015625 228.429688 14.695313 228.761719 14.695313 229.152344 L 14.695313 246.71875 L 0.914063 246.71875 C 0.503906 246.71875 0.183594 247.046875 0.183594 247.441406 L 0.183594 284.164063 C 0.183594 284.558594 0.503906 284.886719 0.914063 284.886719 L 423.585938 284.886719 C 423.996094 284.886719 424.316406 284.558594 424.316406 284.164063 L 424.316406 247.441406 C 424.316406 247.046875 423.996094 246.71875 423.585938 246.71875 Z M 401.109375 222.21875 L 401.109375 230.386719 L 346.421875 230.386719 L 346.421875 222.21875 Z M 73.859375 220.398438 L 73.859375 43.746094 L 119.253906 43.746094 L 212.21875 16.261719 L 305.25 43.746094 L 350.644531 43.746094 L 350.644531 220.398438 L 344.605469 220.398438 L 344.605469 230.242188 L 79.894531 230.242188 L 79.894531 220.398438 Z M 352.285156 220.394531 L 352.285156 28.34375 L 395.25 28.34375 L 395.25 220.394531 Z M 398.324219 26.882813 L 349.210938 26.882813 L 349.210938 21.601563 L 398.324219 21.601563 Z M 346.421875 18.046875 L 346.421875 13.519531 C 346.421875 12.515625 347.234375 11.699219 348.242188 11.699219 L 399.289063 11.699219 C 400.296875 11.699219 401.109375 12.515625 401.109375 13.519531 L 401.109375 18.046875 C 401.109375 19.050781 400.296875 19.867188 399.289063 19.867188 L 348.242188 19.867188 C 347.234375 19.867188 346.421875 19.050781 346.421875 18.046875 Z M 89.539063 30.976563 L 117.410156 30.976563 L 212.234375 2.933594 L 307.09375 30.976563 L 350.730469 30.976563 L 350.730469 41.925781 L 305.507813 41.925781 L 212.277344 14.363281 L 118.996094 41.925781 L 73.769531 41.925781 L 73.769531 30.976563 Z M 23.386719 18.046875 L 23.386719 13.519531 C 23.386719 12.515625 24.203125 11.699219 25.210938 11.699219 L 76.253906 11.699219 C 77.261719 11.699219 78.078125 12.515625 78.078125 13.519531 L 78.078125 18.046875 C 78.078125 19.050781 77.261719 19.867188 76.253906 19.867188 L 25.210938 19.867188 C 24.203125 19.867188 23.386719 19.050781 23.386719 18.046875 Z M 26.171875 26.882813 L 26.171875 21.601563 L 75.289063 21.601563 L 75.289063 26.882813 Z M 72.214844 28.34375 L 72.214844 220.394531 L 29.25 220.394531 L 29.25 28.34375 Z M 23.386719 222.21875 L 78.078125 222.21875 L 78.078125 230.386719 L 23.386719 230.386719 Z M 17.441406 231.167969 L 407.050781 231.167969 L 407.050781 248.265625 L 17.441406 248.261719 Z M 421.582031 282.152344 L 2.925781 282.152344 L 2.925781 249.453125 L 421.582031 249.453125 L 421.582031 282.152344 "/>
</g>
</svg>
