<?xml version="1.0" encoding="UTF-8"?>
<svg xmlns="http://www.w3.org/2000/svg" xmlns:xlink="http://www.w3.org/1999/xlink" width="502pt" height="506pt" viewBox="0 0 502 506" version="1.1">
<g id="surface1">
<path style=" stroke:none;fill-rule:nonzero;fill:rgb(0%,0%,0%);fill-opacity:1;" d="M 0.652344 0.152344 L 0.652344 505.847656 L 501.847656 505.847656 L 501.847656 0.152344 Z M 380.085938 7.753906 C 378.460938 7.949219 376.828125 8.238281 375.195313 8.644531 C 358.097656 12.898438 347.6875 30.210938 351.941406 47.308594 C 355.34375 60.988281 369.195313 69.3125 382.875 65.910156 C 393.816406 63.1875 400.476563 52.105469 397.753906 41.164063 C 395.574219 32.410156 386.710938 27.089844 377.957031 29.265625 C 370.953125 31.007813 366.699219 38.101563 368.441406 45.105469 C 369.835938 50.707031 375.511719 54.109375 381.113281 52.714844 C 385.164063 51.707031 387.777344 47.894531 387.414063 43.863281 C 386.960938 38.792969 382.015625 39.601563 382.21875 44.46875 C 382.277344 45.929688 381.3125 47.277344 379.851563 47.644531 C 377.050781 48.339844 374.207031 46.632813 373.511719 43.84375 C 372.46875 39.644531 375.027344 35.378906 379.21875 34.339844 C 385.164063 32.859375 391.203125 36.488281 392.683594 42.425781 C 394.703125 50.558594 389.738281 58.816406 381.613281 60.839844 C 370.75 63.539063 359.714844 56.902344 357.015625 46.046875 C 353.464844 31.769531 362.1875 17.265625 376.457031 13.714844 C 390.792969 10.148438 405.277344 16.140625 413.257813 27.597656 C 409.320313 32.804688 406.347656 38.871094 404.675781 45.601563 C 401.597656 57.960938 402.460938 70.371094 406.445313 81.53125 C 400.9375 86.96875 393.960938 91.050781 385.921875 93.054688 C 356.523438 100.363281 326.675781 83.351563 317.695313 54.835938 C 317.355469 53.746094 316.019531 49.253906 315.574219 48.046875 C 307.121094 25.289063 286.3125 9.910156 262.894531 7.753906 Z M 461.054688 247.488281 C 458.328125 236.546875 447.25 229.886719 436.308594 232.609375 C 427.554688 234.789063 422.230469 243.652344 424.40625 252.40625 C 426.148438 259.410156 433.246094 263.664063 440.246094 261.925781 C 445.847656 260.53125 449.253906 254.851563 447.859375 249.253906 C 446.851563 245.199219 443.039063 242.585938 439.003906 242.949219 C 433.9375 243.402344 434.746094 248.351563 439.613281 248.144531 C 441.070313 248.085938 442.421875 249.050781 442.785156 250.511719 C 443.480469 253.3125 441.777344 256.15625 438.984375 256.851563 C 434.785156 257.894531 430.523438 255.335938 429.480469 251.144531 C 428.003906 245.199219 431.628906 239.160156 437.570313 237.683594 C 445.699219 235.660156 453.957031 240.625 455.980469 248.753906 C 458.683594 259.613281 452.046875 270.648438 441.1875 273.351563 C 426.914063 276.902344 412.410156 268.179688 408.859375 253.90625 C 405.722656 241.304688 409.964844 228.574219 418.820313 220.257813 C 422.945313 223.339844 427.734375 225.667969 433.046875 226.988281 C 447.128906 230.492188 461.296875 227.621094 472.527344 220.21875 C 480.035156 226.132813 485.714844 234.472656 488.195313 244.441406 C 495.539063 273.96875 478.339844 303.953125 449.59375 312.785156 C 448.601563 313.089844 444.441406 314.328125 443.394531 314.714844 C 424.148438 321.785156 410.144531 337.683594 404.898438 356.542969 L 404.898438 258.695313 C 410.511719 273.660156 426.566406 282.375 442.449219 278.421875 C 456.128906 275.019531 464.453125 261.167969 461.054688 247.488281 Z M 404.898438 232.21875 L 404.898438 201.046875 C 406.914063 207.003906 410.316406 212.417969 414.820313 216.824219 C 410.367188 221.121094 406.96875 226.402344 404.898438 232.21875 Z M 423.121094 216.851563 C 426.390625 214.636719 430.070313 212.917969 434.117188 211.910156 C 446.035156 208.945313 458.050781 211.097656 467.835938 216.96875 C 458.085938 222.753906 446.152344 224.863281 434.308594 221.914063 C 430.179688 220.890625 426.4375 219.125 423.121094 216.851563 Z M 472.546875 213.742188 C 461.285156 206.234375 447.023438 203.3125 432.855469 206.839844 C 427.640625 208.136719 422.929688 210.410156 418.851563 213.410156 C 410.109375 205.089844 405.933594 192.449219 409.046875 179.921875 C 412.601563 165.648438 427.101563 156.929688 441.378906 160.480469 C 452.234375 163.179688 458.871094 174.214844 456.171875 185.078125 C 454.148438 193.203125 445.890625 198.167969 437.761719 196.144531 C 431.820313 194.667969 428.191406 188.628906 429.671875 182.683594 C 430.714844 178.492188 434.976563 175.933594 439.175781 176.976563 C 441.96875 177.671875 443.671875 180.515625 442.976563 183.316406 C 442.613281 184.777344 441.261719 185.742188 439.804688 185.683594 C 434.933594 185.476563 434.125 190.425781 439.195313 190.878906 C 443.230469 191.242188 447.039063 188.628906 448.050781 184.578125 C 449.441406 178.976563 446.039063 173.300781 440.4375 171.90625 C 433.433594 170.164063 426.339844 174.417969 424.597656 181.421875 C 422.421875 190.175781 427.742188 199.039063 436.496094 201.21875 C 447.4375 203.941406 458.519531 197.28125 461.242188 186.339844 C 464.644531 172.660156 456.320313 158.808594 442.640625 155.40625 C 426.585938 151.410156 410.34375 160.347656 404.898438 175.613281 L 404.898438 98.574219 L 385.183594 98.574219 C 385.851563 98.429688 386.519531 98.289063 387.183594 98.125 C 395.433594 96.074219 402.683594 92.070313 408.570313 86.738281 C 415.328125 101.359375 427.65625 113.261719 443.585938 119.113281 C 444.632813 119.496094 448.792969 120.738281 449.785156 121.042969 C 478.53125 129.875 495.730469 159.859375 488.386719 189.386719 C 485.886719 199.429688 480.136719 207.820313 472.546875 213.742188 Z M 270.503906 408.425781 L 302.410156 408.425781 C 296.3125 410.425781 290.761719 413.875 286.265625 418.472656 C 281.878906 413.925781 276.464844 410.480469 270.503906 408.425781 Z M 291.179688 437.769531 C 294.144531 449.691406 291.988281 461.703125 286.121094 471.488281 C 280.339844 461.738281 278.226563 449.804688 281.171875 437.960938 C 282.199219 433.832031 283.964844 430.089844 286.238281 426.773438 C 288.453125 430.042969 290.171875 433.722656 291.179688 437.769531 Z M 105.566406 403.78125 L 114.363281 394.898438 L 388.898438 394.898438 L 397.699219 403.78125 Z M 93.476563 419.519531 C 86.722656 404.902344 74.390625 393 58.464844 387.148438 C 57.414063 386.761719 53.253906 385.523438 52.261719 385.21875 C 23.515625 376.386719 6.316406 346.402344 13.664063 316.875 C 16.160156 306.832031 21.910156 298.441406 29.5 292.519531 C 40.761719 300.023438 55.023438 302.945313 69.191406 299.421875 C 74.40625 298.125 79.121094 295.851563 83.195313 292.851563 C 91.9375 301.171875 96.113281 313.8125 93 326.339844 C 89.449219 340.609375 74.945313 349.335938 60.667969 345.78125 C 49.8125 343.082031 43.175781 332.046875 45.878906 321.183594 C 47.898438 313.058594 56.15625 308.09375 64.289063 310.117188 C 70.226563 311.59375 73.855469 317.632813 72.378906 323.578125 C 71.335938 327.769531 67.070313 330.328125 62.871094 329.285156 C 60.082031 328.589844 58.375 325.746094 59.070313 322.945313 C 59.433594 321.484375 60.785156 320.519531 62.246094 320.578125 C 67.113281 320.785156 67.921875 315.835938 62.851563 315.382813 C 58.820313 315.019531 55.007813 317.632813 54 321.683594 C 52.605469 327.285156 56.007813 332.960938 61.609375 334.355469 C 68.613281 336.097656 75.707031 331.84375 77.449219 324.839844 C 79.628906 316.085938 74.304688 307.222656 65.550781 305.042969 C 54.609375 302.320313 43.527344 308.980469 40.804688 319.921875 C 37.402344 333.601563 45.726563 347.453125 59.40625 350.855469 C 76.503906 355.109375 93.816406 344.699219 98.070313 327.601563 C 98.082031 327.558594 98.089844 327.515625 98.101563 327.472656 L 98.101563 408.425781 L 113.808594 408.425781 C 105.996094 410.550781 99.113281 414.421875 93.476563 419.519531 Z M 92.300781 459.398438 C 90.992188 464.664063 88.785156 469.476563 85.894531 473.71875 C 84.9375 471.691406 84.15625 469.542969 83.59375 467.285156 C 80.179688 453.558594 83.5625 439.714844 91.582031 429.289063 C 94.429688 438.773438 94.859375 449.109375 92.300781 459.398438 Z M 40.996094 258.773438 C 43.71875 269.714844 54.796875 276.371094 65.738281 273.652344 C 74.496094 271.472656 79.816406 262.609375 77.640625 253.855469 C 75.898438 246.851563 68.800781 242.597656 61.800781 244.335938 C 56.199219 245.730469 52.796875 251.410156 54.1875 257.011719 C 55.199219 261.0625 59.007813 263.675781 63.042969 263.3125 C 68.113281 262.859375 67.304688 257.910156 62.433594 258.113281 C 60.976563 258.175781 59.625 257.210938 59.261719 255.746094 C 58.566406 252.949219 60.273438 250.105469 63.0625 249.410156 C 67.261719 248.367188 71.523438 250.925781 72.566406 255.117188 C 74.046875 261.0625 70.417969 267.101563 64.480469 268.578125 C 56.347656 270.601563 48.089844 265.636719 46.066406 257.511719 C 43.367188 246.648438 50 235.613281 60.859375 232.910156 C 75.136719 229.359375 89.640625 238.082031 93.191406 252.355469 C 96.324219 264.957031 92.082031 277.6875 83.226563 286.003906 C 79.101563 282.921875 74.3125 280.59375 69.003906 279.273438 C 54.917969 275.769531 40.75 278.636719 29.519531 286.042969 C 22.015625 280.128906 16.332031 271.789063 13.851563 261.820313 C 6.507813 232.289063 23.707031 202.308594 52.453125 193.476563 C 53.445313 193.171875 57.605469 191.929688 58.652344 191.546875 C 79.230469 183.984375 93.804688 166.335938 98.101563 145.765625 L 98.101563 250.558594 C 93.617188 233.785156 76.511719 223.632813 59.597656 227.839844 C 45.917969 231.242188 37.59375 245.09375 40.996094 258.773438 Z M 98.101563 270.980469 L 98.101563 308.464844 C 96.320313 301.234375 92.539063 294.632813 87.226563 289.4375 C 92.453125 284.394531 96.222656 278.003906 98.101563 270.980469 Z M 78.925781 289.410156 C 75.65625 291.625 71.980469 293.34375 67.929688 294.351563 C 56.011719 297.316406 43.996094 295.160156 34.214844 289.292969 C 43.960938 283.507813 55.898438 281.398438 67.738281 284.34375 C 71.867188 285.371094 75.609375 287.136719 78.925781 289.410156 Z M 233.925781 98.574219 L 197.132813 98.574219 C 204.21875 96.753906 210.675781 93.007813 215.78125 87.789063 C 220.746094 92.9375 227.027344 96.667969 233.925781 98.574219 Z M 210.871094 68.492188 C 207.90625 56.570313 210.058594 44.558594 215.925781 34.773438 C 221.710938 44.523438 223.820313 56.457031 220.875 68.300781 C 219.847656 72.429688 218.085938 76.171875 215.808594 79.488281 C 213.59375 76.21875 211.878906 72.539063 210.871094 68.492188 Z M 397.144531 103.222656 L 388.347656 112.101563 L 114.34375 112.101563 L 105.546875 103.222656 Z M 385.875 117.785156 L 385.875 389.214844 L 117.125 389.214844 L 117.125 117.785156 Z M 111.496094 114.953125 L 111.496094 392.070313 L 102.703125 400.945313 L 102.703125 106.074219 Z M 391.503906 391.800781 L 391.503906 114.640625 L 400.296875 105.761719 L 400.296875 400.679688 Z M 409.746094 46.863281 C 411.058594 41.597656 413.261719 36.785156 416.152344 32.542969 C 417.109375 34.570313 417.890625 36.71875 418.453125 38.976563 C 421.867188 52.703125 418.484375 66.546875 410.464844 76.972656 C 407.617188 67.488281 407.1875 57.152344 409.746094 46.863281 Z M 311.742188 53.011719 C 312.050781 54.003906 313.289063 58.167969 313.671875 59.214844 C 321.179688 79.644531 338.628906 94.164063 359.011719 98.574219 L 254.953125 98.574219 C 271.550781 93.96875 281.5625 76.972656 277.382813 60.15625 C 273.976563 46.480469 260.125 38.152344 246.449219 41.554688 C 235.503906 44.277344 228.847656 55.359375 231.566406 66.300781 C 233.746094 75.054688 242.613281 80.378906 251.363281 78.203125 C 258.367188 76.460938 262.621094 69.363281 260.882813 62.363281 C 259.488281 56.761719 253.808594 53.355469 248.210938 54.75 C 244.15625 55.757813 241.546875 59.570313 241.90625 63.605469 C 242.359375 68.671875 247.308594 67.863281 247.105469 62.996094 C 247.042969 61.539063 248.007813 60.1875 249.472656 59.824219 C 252.269531 59.128906 255.113281 60.832031 255.808594 63.625 C 256.851563 67.820313 254.292969 72.085938 250.101563 73.128906 C 244.15625 74.605469 238.117188 70.976563 236.640625 65.039063 C 234.617188 56.910156 239.585938 48.648438 247.710938 46.628906 C 258.570313 43.925781 269.605469 50.5625 272.308594 61.421875 C 275.859375 75.695313 267.136719 90.199219 252.863281 93.75 C 240.261719 96.886719 227.53125 92.640625 219.214844 83.789063 C 222.296875 79.664063 224.625 74.871094 225.945313 69.5625 C 229.449219 55.480469 226.582031 41.308594 219.175781 30.078125 C 225.089844 22.574219 233.433594 16.894531 243.398438 14.414063 C 272.929688 7.066406 302.910156 24.269531 311.742188 53.011719 Z M 251.582031 7.753906 C 248.445313 8.039063 245.289063 8.558594 242.136719 9.339844 C 231.480469 11.992188 222.496094 17.894531 215.953125 25.722656 C 209.398438 17.800781 200.351563 11.824219 189.605469 9.148438 C 187.046875 8.515625 184.480469 8.0625 181.929688 7.753906 Z M 188.34375 14.222656 C 198.386719 16.722656 206.777344 22.472656 212.699219 30.0625 C 205.195313 41.324219 202.273438 55.585938 205.796875 69.753906 C 207.09375 74.96875 209.367188 79.679688 212.367188 83.753906 C 204.050781 92.496094 191.40625 96.675781 178.878906 93.558594 C 164.605469 90.007813 155.886719 75.503906 159.4375 61.230469 C 162.136719 50.371094 173.171875 43.734375 184.035156 46.4375 C 192.160156 48.460938 197.125 56.71875 195.105469 64.847656 C 193.625 70.785156 187.585938 74.417969 181.640625 72.9375 C 177.453125 71.894531 174.890625 67.632813 175.9375 63.433594 C 176.628906 60.640625 179.472656 58.9375 182.273438 59.632813 C 183.734375 59.996094 184.699219 61.347656 184.640625 62.804688 C 184.4375 67.671875 189.382813 68.480469 189.839844 63.414063 C 190.199219 59.378906 187.589844 55.566406 183.535156 54.558594 C 177.933594 53.167969 172.257813 56.570313 170.863281 62.171875 C 169.121094 69.171875 173.378906 76.269531 180.378906 78.011719 C 189.132813 80.1875 197.996094 74.863281 200.175781 66.109375 C 202.898438 55.167969 196.238281 44.089844 185.296875 41.363281 C 171.617188 37.964844 157.769531 46.289063 154.363281 59.96875 C 150.128906 76.996094 160.441406 94.234375 177.421875 98.574219 L 98.101563 98.574219 L 98.101563 120.433594 C 97.933594 119.632813 97.761719 118.835938 97.566406 118.035156 C 95.277344 108.839844 90.570313 100.882813 84.292969 94.671875 C 99.554688 88.070313 112.03125 75.460938 118.070313 59.023438 C 118.457031 57.976563 119.695313 53.816406 120 52.824219 C 128.832031 24.078125 158.816406 6.878906 188.34375 14.222656 Z M 50.632813 52.527344 C 56.230469 53.917969 61.910156 50.515625 63.304688 44.914063 C 65.046875 37.910156 60.789063 30.816406 53.785156 29.074219 C 45.035156 26.898438 36.167969 32.21875 33.988281 40.976563 C 31.269531 51.914063 37.925781 62.996094 48.871094 65.71875 C 62.546875 69.121094 76.398438 60.796875 79.804688 47.117188 C 84.054688 30.019531 73.648438 12.707031 56.550781 8.453125 C 55.382813 8.160156 54.214844 7.9375 53.050781 7.753906 L 167.0625 7.753906 C 144.378906 10.507813 124.40625 25.679688 116.171875 47.855469 C 115.722656 49.0625 114.390625 53.558594 114.046875 54.644531 C 108.652344 71.78125 95.714844 84.753906 79.875 90.800781 C 68.207031 81.695313 52.628906 77.84375 37.152344 81.695313 C 34.300781 82.402344 31.601563 83.410156 29.070313 84.664063 C 15.679688 74.132813 8.921875 56.359375 13.292969 38.785156 C 17.90625 20.242188 36.746094 8.914063 55.289063 13.523438 C 69.558594 17.078125 78.28125 31.578125 74.730469 45.855469 C 72.027344 56.714844 60.992188 63.347656 50.132813 60.648438 C 42.007813 58.625 37.042969 50.367188 39.0625 42.234375 C 40.542969 36.296875 46.582031 32.667969 52.527344 34.148438 C 56.714844 35.191406 59.277344 39.453125 58.230469 43.652344 C 57.535156 46.445313 54.695313 48.148438 51.894531 47.453125 C 50.429688 47.089844 49.464844 45.738281 49.527344 44.277344 C 49.730469 39.410156 44.78125 38.601563 44.328125 43.671875 C 43.96875 47.707031 46.578125 51.515625 50.632813 52.527344 Z M 73.636719 92.777344 C 64.792969 95.035156 55.285156 95.214844 45.824219 92.863281 C 41.640625 91.820313 37.746094 90.207031 34.195313 88.140625 C 35.558594 87.609375 36.957031 87.128906 38.414063 86.765625 C 50.953125 83.648438 63.597656 86.199219 73.636719 92.777344 Z M 8.175781 7.753906 L 40.6875 7.753906 C 25.351563 10.1875 12.203125 21.507813 8.21875 37.523438 C 8.203125 37.585938 8.191406 37.648438 8.175781 37.710938 Z M 8.175781 61.414063 C 10.667969 71.550781 16.300781 80.695313 24.246094 87.484375 C 16.277344 92.941406 10.589844 101.121094 8.175781 110.363281 Z M 8.175781 130.339844 C 12.570313 147.246094 29.757813 157.503906 46.746094 153.277344 C 60.425781 149.875 68.753906 136.023438 65.351563 122.34375 C 62.625 111.402344 51.546875 104.742188 40.605469 107.464844 C 31.851563 109.644531 26.527344 118.507813 28.703125 127.261719 C 30.445313 134.265625 37.542969 138.519531 44.542969 136.777344 C 50.144531 135.382813 53.546875 129.707031 52.15625 124.105469 C 51.148438 120.054688 47.335938 117.441406 43.300781 117.804688 C 38.234375 118.257813 39.042969 123.203125 43.910156 123.003906 C 45.367188 122.941406 46.71875 123.90625 47.082031 125.367188 C 47.777344 128.167969 46.074219 131.011719 43.28125 131.707031 C 39.082031 132.75 34.820313 130.191406 33.777344 126 C 32.296875 120.054688 35.925781 114.015625 41.867188 112.539063 C 49.996094 110.515625 58.253906 115.480469 60.277344 123.605469 C 62.976563 134.46875 56.34375 145.503906 45.484375 148.203125 C 31.210938 151.757813 16.707031 143.035156 13.15625 128.761719 C 9.421875 113.753906 16.136719 98.558594 28.660156 90.863281 C 33.375 94.050781 38.71875 96.480469 44.558594 97.933594 C 56.308594 100.855469 68.105469 100.230469 78.828125 96.742188 C 85.339844 102.515625 90.238281 110.234375 92.492188 119.296875 C 99.804688 148.695313 82.789063 178.542969 54.273438 187.523438 C 53.1875 187.863281 48.691406 189.199219 47.488281 189.644531 C 26.910156 197.285156 12.371094 215.035156 8.175781 235.675781 Z M 8.175781 260.390625 C 8.359375 261.285156 8.558594 262.183594 8.78125 263.082031 C 11.429688 273.738281 17.335938 282.726563 25.160156 289.265625 C 17.238281 295.820313 11.261719 304.867188 8.589844 315.613281 C 8.4375 316.226563 8.3125 316.839844 8.175781 317.453125 Z M 8.175781 498.246094 L 8.175781 469.039063 C 11.914063 482.457031 22.527344 493.574219 36.960938 497.167969 C 38.835938 497.632813 40.699219 497.988281 42.542969 498.246094 Z M 38.222656 491.925781 C 19.683594 487.3125 8.351563 468.476563 12.964844 449.929688 C 16.515625 435.660156 31.019531 426.9375 45.292969 430.488281 C 56.152344 433.191406 62.789063 444.226563 60.085938 455.085938 C 58.066406 463.210938 49.804688 468.179688 41.675781 466.15625 C 35.738281 464.679688 32.109375 458.640625 33.585938 452.695313 C 34.628906 448.503906 38.894531 445.945313 43.089844 446.988281 C 45.882813 447.683594 47.589844 450.527344 46.890625 453.324219 C 46.527344 454.789063 45.175781 455.753906 43.71875 455.691406 C 38.851563 455.488281 38.042969 460.4375 43.109375 460.890625 C 47.144531 461.253906 50.957031 458.640625 51.964844 454.585938 C 53.355469 448.984375 49.957031 443.308594 44.351563 441.914063 C 37.351563 440.171875 30.257813 444.429688 28.511719 451.433594 C 26.335938 460.183594 31.660156 469.050781 40.414063 471.230469 C 51.355469 473.949219 62.4375 467.292969 65.160156 456.347656 C 68.5625 442.671875 60.234375 428.820313 46.554688 425.414063 C 29.78125 421.242188 12.832031 431.199219 8.175781 447.726563 L 8.175781 343.96875 C 12.621094 364.203125 27.035156 381.523438 47.296875 389.046875 C 48.503906 389.496094 52.996094 390.828125 54.085938 391.171875 C 70.566406 396.363281 83.191406 408.53125 89.511719 423.546875 C 79.066406 435.417969 74.417969 452.042969 78.523438 468.546875 C 79.386719 472.019531 80.6875 475.265625 82.339844 478.253906 C 71.65625 490.234375 54.851563 496.0625 38.222656 491.925781 Z M 56.785156 498.246094 C 68.035156 496.625 78.019531 491.160156 85.457031 483.039063 C 91.585938 491.101563 100.613281 496.558594 110.597656 498.246094 Z M 123.773438 498.246094 C 124.800781 498.074219 125.824219 497.875 126.851563 497.617188 C 143.953125 493.363281 154.359375 476.050781 150.105469 458.953125 C 146.703125 445.273438 132.851563 436.949219 119.171875 440.351563 C 108.230469 443.074219 101.570313 454.15625 104.292969 465.097656 C 106.472656 473.851563 115.335938 479.171875 124.089844 476.996094 C 131.09375 475.253906 135.347656 468.160156 133.605469 461.15625 C 132.214844 455.554688 126.535156 452.152344 120.933594 453.546875 C 116.882813 454.554688 114.269531 458.363281 114.632813 462.398438 C 115.085938 467.46875 120.035156 466.660156 119.828125 461.792969 C 119.769531 460.332031 120.734375 458.980469 122.195313 458.617188 C 124.996094 457.921875 127.839844 459.628906 128.535156 462.417969 C 129.578125 466.617188 127.019531 470.882813 122.828125 471.921875 C 116.882813 473.402344 110.84375 469.773438 109.367188 463.835938 C 107.34375 455.703125 112.308594 447.445313 120.433594 445.421875 C 131.296875 442.722656 142.332031 449.359375 145.035156 460.214844 C 148.585938 474.492188 139.863281 488.996094 125.589844 492.546875 C 111.324219 496.09375 96.910156 490.183594 88.90625 478.835938 C 92.777344 473.550781 95.691406 467.414063 97.375 460.660156 C 100.449219 448.300781 99.585938 435.886719 95.601563 424.730469 C 101.109375 419.292969 108.089844 415.210938 116.125 413.210938 C 145.523438 405.894531 175.371094 422.910156 184.351563 451.425781 C 184.691406 452.515625 186.027344 457.007813 186.472656 458.214844 C 194.636719 480.1875 214.320313 495.292969 236.746094 498.246094 Z M 190.304688 453.246094 C 189.996094 452.257813 188.757813 448.09375 188.375 447.046875 C 181.246094 427.648438 165.152344 413.574219 146.101563 408.425781 L 244.695313 408.425781 C 229.539063 413.933594 220.6875 430.109375 224.667969 446.101563 C 228.070313 459.78125 241.921875 468.109375 255.601563 464.707031 C 266.542969 461.984375 273.203125 450.902344 270.480469 439.960938 C 268.300781 431.207031 259.4375 425.882813 250.683594 428.058594 C 243.679688 429.800781 239.425781 436.898438 241.164063 443.898438 C 242.558594 449.5 248.238281 452.90625 253.839844 451.511719 C 257.890625 450.503906 260.503906 446.691406 260.140625 442.65625 C 259.6875 437.589844 254.738281 438.398438 254.941406 443.265625 C 255.003906 444.722656 254.039063 446.074219 252.578125 446.4375 C 249.777344 447.136719 246.933594 445.429688 246.238281 442.636719 C 245.195313 438.441406 247.753906 434.175781 251.945313 433.132813 C 257.890625 431.65625 263.929688 435.285156 265.40625 441.222656 C 267.429688 449.351563 262.464844 457.609375 254.339844 459.632813 C 243.476563 462.335938 232.441406 455.699219 229.738281 444.839844 C 226.1875 430.566406 234.910156 416.0625 249.183594 412.511719 C 261.785156 409.375 274.515625 413.617188 282.832031 422.472656 C 279.75 426.597656 277.421875 431.390625 276.101563 436.699219 C 272.597656 450.78125 275.464844 464.953125 282.871094 476.179688 C 276.957031 483.6875 268.617188 489.367188 258.648438 491.847656 C 229.121094 499.191406 199.136719 481.992188 190.304688 453.246094 Z M 252.792969 498.246094 C 255.160156 497.9375 257.535156 497.511719 259.910156 496.921875 C 270.566406 494.269531 279.554688 488.363281 286.09375 480.539063 C 292.648438 488.460938 301.695313 494.4375 312.441406 497.109375 C 314.332031 497.582031 316.226563 497.957031 318.113281 498.246094 Z M 313.703125 492.039063 C 303.660156 489.539063 295.269531 483.789063 289.347656 476.199219 C 296.855469 464.9375 299.773438 450.675781 296.25 436.507813 C 294.953125 431.292969 292.679688 426.582031 289.679688 422.507813 C 297.996094 413.765625 310.640625 409.585938 323.167969 412.703125 C 337.441406 416.253906 346.160156 430.757813 342.609375 445.03125 C 339.910156 455.890625 328.875 462.527344 318.011719 459.824219 C 309.886719 457.800781 304.921875 449.542969 306.945313 441.414063 C 308.421875 435.472656 314.460938 431.84375 320.40625 433.324219 C 324.597656 434.367188 327.15625 438.628906 326.113281 442.828125 C 325.417969 445.621094 322.574219 447.324219 319.773438 446.628906 C 318.3125 446.265625 317.347656 444.914063 317.40625 443.457031 C 317.613281 438.589844 312.664063 437.78125 312.210938 442.847656 C 311.847656 446.882813 314.460938 450.691406 318.511719 451.703125 C 324.113281 453.09375 329.789063 449.691406 331.183594 444.089844 C 332.925781 437.089844 328.671875 429.992188 321.667969 428.25 C 312.914063 426.074219 304.050781 431.398438 301.871094 440.152344 C 299.148438 451.09375 305.808594 462.171875 316.75 464.898438 C 330.429688 468.296875 344.28125 459.972656 347.683594 446.292969 C 351.714844 430.097656 342.574219 413.726563 327.066406 408.425781 L 404.898438 408.425781 L 404.898438 389.734375 C 407.3125 398.289063 411.824219 405.722656 417.753906 411.589844 C 402.492188 418.191406 390.015625 430.800781 383.976563 447.238281 C 383.589844 448.285156 382.351563 452.445313 382.046875 453.4375 C 373.214844 482.183594 343.230469 499.382813 313.703125 492.039063 Z M 451.414063 453.734375 C 445.816406 452.34375 440.136719 455.746094 438.742188 461.347656 C 437.003906 468.347656 441.257813 475.445313 448.261719 477.1875 C 457.011719 479.363281 465.878906 474.039063 468.058594 465.285156 C 470.777344 454.34375 464.121094 443.265625 453.175781 440.542969 C 439.5 437.140625 425.648438 445.464844 422.242188 459.144531 C 417.992188 476.242188 428.398438 493.554688 445.496094 497.808594 C 446.152344 497.972656 446.808594 498.117188 447.464844 498.246094 L 336.847656 498.246094 C 358.753906 494.90625 377.867188 479.972656 385.878906 458.40625 C 386.324219 457.199219 387.65625 452.703125 388 451.617188 C 393.394531 434.480469 406.332031 421.507813 422.175781 415.460938 C 433.84375 424.566406 449.421875 428.417969 464.894531 424.566406 C 467.746094 423.859375 470.445313 422.847656 472.976563 421.597656 C 486.367188 432.128906 493.128906 449.902344 488.753906 467.476563 C 484.140625 486.019531 465.304688 497.347656 446.761719 492.734375 C 432.488281 489.183594 423.765625 474.679688 427.316406 460.40625 C 430.019531 449.546875 441.054688 442.914063 451.914063 445.613281 C 460.039063 447.636719 465.007813 455.894531 462.984375 464.027344 C 461.507813 469.964844 455.46875 473.59375 449.523438 472.113281 C 445.332031 471.070313 442.773438 466.808594 443.816406 462.609375 C 444.511719 459.816406 447.355469 458.113281 450.152344 458.808594 C 451.617188 459.171875 452.582031 460.523438 452.519531 461.980469 C 452.316406 466.851563 457.265625 467.660156 457.71875 462.589844 C 458.078125 458.554688 455.46875 454.746094 451.414063 453.734375 Z M 428.410156 413.484375 C 437.253906 411.226563 446.761719 411.046875 456.226563 413.398438 C 460.410156 414.441406 464.300781 416.054688 467.851563 418.121094 C 466.488281 418.652344 465.09375 419.132813 463.632813 419.496094 C 451.09375 422.613281 438.453125 420.0625 428.410156 413.484375 Z M 494.320313 498.246094 L 462.792969 498.246094 C 477.507813 495.351563 489.96875 484.253906 493.828125 468.738281 C 494.011719 467.996094 494.171875 467.253906 494.320313 466.511719 Z M 494.320313 446.839844 C 492.109375 435.914063 486.265625 426.007813 477.800781 418.777344 C 486.320313 412.941406 492.234375 404 494.320313 393.972656 Z M 494.320313 377.84375 C 494.210938 377.308594 494.097656 376.773438 493.964844 376.238281 C 489.710938 359.136719 472.398438 348.730469 455.300781 352.984375 C 441.621094 356.386719 433.296875 370.238281 436.699219 383.914063 C 439.421875 394.859375 450.503906 401.519531 461.441406 398.796875 C 470.199219 396.617188 475.519531 387.753906 473.34375 379 C 471.601563 371.996094 464.507813 367.742188 457.503906 369.480469 C 451.902344 370.878906 448.5 376.554688 449.890625 382.15625 C 450.902344 386.207031 454.710938 388.820313 458.746094 388.460938 C 463.816406 388.003906 463.007813 383.054688 458.136719 383.261719 C 456.679688 383.320313 455.328125 382.355469 454.964844 380.894531 C 454.269531 378.09375 455.976563 375.25 458.765625 374.554688 C 462.964844 373.511719 467.226563 376.070313 468.269531 380.261719 C 469.75 386.207031 466.121094 392.246094 460.183594 393.722656 C 452.050781 395.746094 443.792969 390.78125 441.769531 382.65625 C 439.070313 371.792969 445.703125 360.757813 456.5625 358.058594 C 470.839844 354.503906 485.34375 363.226563 488.894531 377.5 C 492.625 392.507813 485.910156 407.703125 473.386719 415.398438 C 468.671875 412.210938 463.328125 409.78125 457.488281 408.328125 C 445.738281 405.402344 433.941406 406.03125 423.21875 409.519531 C 416.710938 403.746094 411.8125 396.027344 409.554688 386.964844 C 402.242188 357.566406 419.257813 327.71875 447.773438 318.738281 C 448.859375 318.394531 453.355469 317.0625 454.5625 316.617188 C 475.953125 308.671875 490.824219 289.800781 494.320313 268.109375 Z M 494.320313 248.394531 C 494.042969 246.65625 493.699219 244.917969 493.269531 243.179688 C 490.617188 232.523438 484.710938 223.535156 476.886719 216.996094 C 484.808594 210.441406 490.785156 201.394531 493.457031 190.648438 C 493.800781 189.273438 494.078125 187.898438 494.320313 186.523438 Z M 494.320313 164.550781 C 490.488281 143.355469 475.761719 125.015625 454.75 117.214844 C 453.546875 116.765625 449.050781 115.433594 447.964844 115.089844 C 431.480469 109.898438 418.855469 97.730469 412.535156 82.714844 C 422.984375 70.84375 427.632813 54.21875 423.523438 37.714844 C 422.660156 34.242188 421.359375 30.996094 419.707031 28.007813 C 430.390625 16.027344 447.195313 10.199219 463.824219 14.335938 C 482.363281 18.949219 493.695313 37.785156 489.082031 56.328125 C 485.53125 70.601563 471.027344 79.324219 456.753906 75.773438 C 445.894531 73.070313 439.261719 62.035156 441.960938 51.175781 C 443.984375 43.050781 452.242188 38.082031 460.371094 40.105469 C 466.3125 41.585938 469.941406 47.621094 468.460938 53.566406 C 467.417969 57.757813 463.15625 60.316406 458.957031 59.273438 C 456.164063 58.578125 454.460938 55.734375 455.15625 52.9375 C 455.519531 51.472656 456.871094 50.507813 458.328125 50.570313 C 463.195313 50.773438 464.003906 45.824219 458.9375 45.371094 C 454.902344 45.007813 451.09375 47.621094 450.082031 51.675781 C 448.691406 57.273438 452.09375 62.953125 457.695313 64.347656 C 464.695313 66.089844 471.789063 61.832031 473.535156 54.828125 C 475.710938 46.078125 470.386719 37.210938 461.632813 35.03125 C 450.691406 32.3125 439.613281 38.96875 436.886719 49.914063 C 433.484375 63.589844 441.8125 77.441406 455.492188 80.847656 C 472.589844 85.097656 489.902344 74.691406 494.15625 57.59375 C 494.21875 57.34375 494.265625 57.09375 494.320313 56.84375 Z M 494.320313 39.042969 C 491.058594 24.878906 480.15625 13.011719 465.085938 9.261719 C 446.980469 4.757813 428.726563 10.789063 416.769531 23.453125 C 410.273438 14.773438 400.4375 9.070313 389.640625 7.753906 L 494.320313 7.753906 L 494.320313 39.042969 "/>
</g>
</svg>
