<?xml version="1.0" encoding="UTF-8"?>
<svg xmlns="http://www.w3.org/2000/svg" xmlns:xlink="http://www.w3.org/1999/xlink" width="551pt" height="75pt" viewBox="0 0 551 75" version="1.1">
<g id="surface1">
<path style=" stroke:none;fill-rule:nonzero;fill:rgb(0%,0%,0%);fill-opacity:1;" d="M 115.148438 0.535156 C 67.578125 6.097656 -2.042969 54.125 0.0429688 70.226563 C 0.378906 72.8125 3.558594 74.152344 5.464844 74.152344 L 535.554688 74.691406 C 538.355469 74.292969 539.554688 71.296875 539.355469 68.457031 C 539.113281 64.949219 537.15625 62.292969 532.488281 62.609375 C 537.152344 58.074219 544.34375 60.203125 550.421875 60.414063 C 550.726563 60.425781 550.625 60.144531 550.273438 60.003906 C 543.578125 57.367188 535.898438 56.027344 528.339844 54.992188 C 534.183594 53.835938 541.179688 54.316406 547.09375 54.488281 C 547.441406 54.5 547.492188 54.285156 547.175781 54.175781 C 533.371094 49.359375 518.617188 49.59375 503.859375 48.398438 C 510.894531 47.003906 534.222656 45.492188 540.285156 45.234375 C 540.730469 45.21875 540.6875 45.058594 540.363281 44.992188 C 519.832031 40.648438 495.753906 40.789063 473.261719 41.324219 C 489.054688 36.746094 506.96875 34.882813 523.890625 35.179688 C 524.308594 35.1875 524.296875 35.042969 523.863281 34.960938 C 504.472656 31.28125 475.359375 25.78125 439.464844 32.757813 C 455.601563 27.050781 472.875 23.304688 491.289063 23.65625 C 491.964844 23.667969 491.980469 23.527344 491.296875 23.429688 C 470.421875 20.53125 442.441406 16.8125 405.191406 26.636719 C 423.207031 19.855469 441.355469 13.527344 461.347656 11.597656 C 461.804688 11.554688 461.765625 11.386719 461.21875 11.335938 C 449.945313 10.335938 419.019531 8.117188 379.488281 21.738281 C 392.992188 14.753906 406.691406 8.355469 421.609375 4.832031 C 421.9375 4.753906 421.902344 4.585938 421.554688 4.578125 C 394.28125 3.921875 366.414063 9.175781 334.945313 22.488281 C 348.355469 13.28125 363.136719 6.433594 378.589844 1.679688 C 378.886719 1.589844 378.761719 1.464844 378.402344 1.496094 C 349.191406 3.914063 323.066406 9.027344 297.953125 25.410156 C 304.445313 19.65625 317.839844 8.484375 336.480469 0.828125 C 336.78125 0.703125 336.761719 0.597656 336.300781 0.675781 C 327.496094 2.15625 284.117188 5.839844 238.996094 51.117188 C 234.113281 50.902344 230.496094 52.273438 226.484375 52.339844 C 231.542969 47.332031 237.996094 45.957031 244.742188 44.246094 C 245.09375 44.15625 245.035156 44.050781 244.65625 44.082031 C 237.1875 44.675781 230.636719 43.609375 220.839844 46.425781 C 230.40625 40.738281 242.484375 39.460938 248.371094 37.632813 C 248.988281 37.449219 248.503906 37.332031 248.257813 37.308594 C 235.910156 36.179688 221.546875 38.5 209.078125 40.101563 C 219.453125 35.777344 230.351563 32.886719 241.894531 31.359375 C 242.152344 31.328125 242.128906 31.167969 241.859375 31.125 C 223.371094 28.140625 205.21875 30.757813 187.792969 33.707031 C 200.429688 28.695313 213.261719 23.941406 227.453125 22.75 C 227.699219 22.730469 227.667969 22.605469 227.410156 22.566406 C 209.808594 19.785156 190.8125 22.671875 174.328125 25.886719 C 184.960938 19.972656 196.308594 15.03125 208.496094 13.289063 C 208.78125 13.246094 208.785156 13.117188 208.503906 13.09375 C 173.125 9.851563 147.976563 21.40625 143.523438 22.214844 C 154.679688 16.136719 165.898438 10.847656 178.34375 7.246094 C 178.566406 7.179688 178.503906 7.09375 178.203125 7.109375 C 169.527344 7.605469 138.429688 6.085938 106.804688 22.488281 C 120.226563 13.070313 134.894531 6.671875 150.488281 2.386719 C 150.773438 2.308594 150.71875 2.171875 150.40625 2.183594 C 127.3125 2.972656 106.191406 10.488281 85.996094 18.070313 C 95.066406 10.597656 105.246094 5.550781 115.253906 0.742188 C 115.453125 0.644531 115.382813 0.507813 115.148438 0.535156 Z M 533.800781 66.371094 C 536.355469 68.289063 533.800781 70.371094 533.800781 70.371094 L 5.15625 70.371094 C 3.1875 68.609375 5.15625 66.371094 5.15625 66.371094 Z M 342.765625 39.167969 C 413.1875 34.265625 502.484375 56.710938 524.160156 62.609375 C 524.511719 62.703125 524.15625 62.878906 524.15625 62.878906 L 233.15625 62.878906 C 240.023438 58.9375 277.953125 43.679688 342.765625 39.167969 Z M 226.484375 62.132813 C 224.460938 57.253906 230.363281 54.503906 237.230469 52.339844 C 232.945313 55.535156 230.496094 58.664063 226.484375 62.132813 Z M 222.539063 62.878906 L 7.554688 62.691406 C 14.324219 53.605469 49.160156 44.386719 73.15625 44.292969 C 170.242188 43.914063 201.734375 55.875 222.539063 62.878906 "/>
</g>
</svg>
