<?xml version="1.0" encoding="UTF-8"?>
<svg xmlns="http://www.w3.org/2000/svg" xmlns:xlink="http://www.w3.org/1999/xlink" width="523pt" height="636pt" viewBox="0 0 523 636" version="1.1">
<g id="surface1">
<path style=" stroke:none;fill-rule:nonzero;fill:rgb(0%,0%,0%);fill-opacity:1;" d="M 220.203125 590.628906 C 243.191406 595.519531 268.246094 591.089844 286.066406 572.035156 C 299.628906 559.652344 307.125 543.917969 319.441406 530.910156 C 334.007813 514.101563 354.921875 512.285156 372.632813 504.226563 C 400.105469 490.511719 411.738281 463.183594 417.617188 434.929688 C 427.980469 379.097656 393.167969 328.351563 350.050781 293.121094 C 299.902344 252.152344 235.144531 237.320313 189.375 188.675781 C 168.078125 167.59375 167.753906 136.210938 178.046875 110.039063 C 182.160156 99.640625 187.523438 89.753906 194.78125 81.046875 C 183.105469 87.671875 175.296875 97.988281 169.582031 108.789063 C 155.644531 132.375 154.886719 166.859375 170.300781 190.113281 C 201.574219 236.90625 252.167969 253.105469 294.230469 282.644531 C 316.351563 298.800781 343.136719 329.027344 351.367188 345.324219 C 359.59375 361.617188 364.773438 370.371094 363.910156 384.625 C 363.179688 395.78125 359.324219 407.046875 348.367188 410.648438 C 337.179688 412.1875 327.035156 403.917969 322.726563 394.910156 C 318.414063 385.902344 302.871094 350.671875 290.105469 329.289063 C 272.042969 296.152344 241.835938 270.539063 214.132813 253 C 175.039063 228.25 131.128906 214.636719 92.160156 190.253906 C 56.578125 170.578125 14.035156 118.96875 22.40625 65.292969 C 26.945313 36.179688 34.972656 18.574219 52.34375 0.304688 C 17.894531 21.324219 -3.636719 73.203125 0.535156 128.847656 C 4.511719 181.84375 37.839844 217.398438 72.480469 239.949219 C 125.605469 271.046875 183.816406 301.445313 215.714844 361.222656 C 232.144531 392.015625 242.566406 418.746094 236.691406 447.230469 C 233.007813 465.097656 225.640625 477.738281 209.570313 479.054688 C 193.984375 477.316406 187.601563 458.609375 183.671875 446.414063 C 177.242188 420.046875 174.019531 392.863281 168.636719 371.765625 C 162.757813 348.714844 146.332031 318.980469 113.734375 305.402344 C 91.097656 295.976563 66.289063 290.898438 46.59375 276.46875 C 16.132813 258.003906 7.507813 213.902344 9.871094 189.0625 C -2.867188 215.660156 -1.679688 236.660156 6 258.710938 C 20.082031 299.148438 53.371094 311.28125 78.023438 330.996094 C 109.042969 355.8125 131.71875 391.414063 131.691406 429.8125 C 134.144531 456.425781 110.628906 470.015625 106.832031 493.851563 C 108.6875 526.492188 143.953125 532.730469 166.074219 545.894531 C 187.074219 556.410156 197.644531 583.15625 220.203125 590.628906 Z M 116.152344 494.960938 C 118.707031 480.550781 128.992188 470.527344 134.902344 458.074219 C 150.597656 424.769531 137.535156 389.730469 119.46875 361.179688 C 107.640625 342.484375 78.941406 318.503906 50.53125 299.667969 C 43.601563 295.074219 28.230469 280.980469 24.960938 271.257813 C 44.5625 289.503906 71.269531 301.808594 96.691406 308.875 C 145.109375 322.34375 160.273438 372.683594 165.636719 405.984375 C 169.957031 432.800781 176.933594 466.359375 189.222656 479.140625 C 196.886719 487.113281 209.0625 490.359375 218.09375 487.847656 C 242.195313 479.351563 248.347656 454.765625 247.691406 430.238281 C 246.59375 389.25 226.238281 351.230469 197.621094 318.269531 C 163.246094 278.671875 115.695313 256.824219 73.941406 229.714844 C 40.796875 206.625 -4.914063 154.996094 13.65625 83.992188 C 13.367188 110.175781 23.113281 132.335938 34.003906 148.6875 C 73.191406 208.390625 140.972656 222.210938 197.476563 254.246094 C 227.398438 271.210938 257 293.878906 277.210938 326.078125 C 291.800781 349.320313 302.046875 373.664063 313.519531 397.882813 C 319.929688 410.847656 333.324219 421.417969 347.847656 420.035156 C 357.566406 418.804688 365.273438 411.347656 369.410156 402.746094 C 378.734375 376.699219 367.394531 352.378906 353.566406 330.871094 C 322.742188 282.332031 274.527344 259.238281 229.402344 233.285156 C 228.601563 231.992188 230.125 233.253906 230.613281 233.191406 C 286.171875 264.933594 349.117188 289.902344 387.414063 346.027344 C 406.109375 378.886719 419.378906 418.152344 402.148438 456.296875 C 394.609375 472.386719 384.777344 489.640625 366.328125 496.894531 C 343.703125 504.007813 317.46875 513.324219 303.363281 535.332031 C 289.730469 558.355469 265.128906 585.09375 235.441406 583.230469 C 221.375 583.828125 211.105469 576.621094 202.605469 566.636719 C 186.300781 544.835938 162.355469 531.929688 137.910156 522.199219 C 127.785156 516.804688 117.078125 507.273438 116.152344 494.960938 "/>
<path style=" stroke:none;fill-rule:nonzero;fill:rgb(0%,0%,0%);fill-opacity:1;" d="M 484.691406 440.828125 C 468.226563 447.480469 454.847656 467.339844 454.53125 483.597656 C 454.0625 507.589844 452.734375 526.273438 449.828125 540.105469 C 445.089844 562.683594 434.808594 584.851563 411.898438 593.371094 C 401.921875 595.769531 389.714844 592.28125 383.421875 583.875 C 376.203125 572.128906 374.355469 561.839844 379.429688 545.054688 C 381.699219 537.550781 385.929688 529.679688 391.191406 523 C 397.355469 515.179688 424.59375 499.890625 436.628906 464.652344 C 442.480469 447.515625 439.25 423.570313 431.234375 417.050781 C 440.257813 445.226563 421.871094 489.097656 399.621094 504.628906 C 389.511719 511.6875 375.917969 518.316406 364.945313 520.539063 C 319.175781 529.804688 310.953125 582.058594 269.199219 598.140625 C 245.46875 609.550781 209.921875 606.632813 189.925781 588.695313 C 178.441406 574.644531 166.921875 559.871094 147.328125 560.648438 C 161.515625 565.089844 173.09375 577.355469 183.40625 590.191406 C 192.535156 603.960938 207.035156 611.789063 221.859375 616.90625 C 253.71875 627.640625 278.785156 607.058594 307.675781 603.5625 C 326.253906 600.273438 343.128906 610.597656 358.378906 618.816406 C 391.148438 636.480469 408.359375 637.632813 427.253906 634.203125 C 442.859375 631.367188 459.816406 619.722656 466.378906 599.023438 C 473.761719 575.734375 465.085938 542.101563 464.410156 514.621094 C 464.050781 495.558594 463.320313 477.105469 474.261719 460.582031 C 485.035156 443.441406 505.652344 441.113281 522.761719 441.117188 C 512.050781 437.628906 496.007813 436.195313 484.691406 440.828125 Z M 452.269531 606.496094 C 437.1875 625.636719 419.699219 630.3125 390.070313 622.953125 C 367.007813 617.222656 347.675781 597.203125 327.90625 594.429688 C 308.136719 591.652344 301.609375 594.226563 289.117188 597.644531 C 308.304688 586.230469 320.4375 565.722656 334.308594 548.710938 C 346.019531 534.792969 364.328125 527.703125 379.921875 525.371094 C 366.632813 543.53125 367.011719 563.433594 369.929688 575.089844 C 372.847656 586.742188 379.6875 597.128906 396.464844 602.417969 C 412.484375 607.46875 434.378906 594.972656 444.871094 579.710938 C 452.589844 569.144531 456.394531 556.320313 458.746094 542.601563 C 460.210938 561.441406 465.253906 588.898438 452.269531 606.496094 "/>
</g>
</svg>
