<?xml version="1.0" encoding="UTF-8"?>
<svg xmlns="http://www.w3.org/2000/svg" xmlns:xlink="http://www.w3.org/1999/xlink" width="437pt" height="338pt" viewBox="0 0 437 338" version="1.1">
<g id="surface1">
<path style=" stroke:none;fill-rule:nonzero;fill:rgb(0%,0%,0%);fill-opacity:1;" d="M 431.265625 253.859375 C 424.335938 260.210938 432.804688 275.226563 431.421875 279.191406 C 429.417969 285.8125 428.726563 294.746094 431.960938 300.445313 C 431.652344 290.820313 433.074219 287.316406 434.769531 283.078125 C 438.695313 270.914063 428.878906 266.253906 431.265625 253.859375 "/>
<path style=" stroke:none;fill-rule:nonzero;fill:rgb(0%,0%,0%);fill-opacity:1;" d="M 418.523438 322.347656 C 409.800781 328.742188 408.453125 317.285156 400.503906 320.464844 C 394.574219 310.683594 382.949219 317.382813 374.785156 307.179688 C 372.269531 304.035156 374.765625 299.960938 371.804688 296.054688 C 371.109375 297.554688 370.148438 298.519531 369.242188 299.210938 C 362.390625 302.597656 356.535156 296.902344 351.53125 292.589844 C 352.53125 282.734375 346.179688 277.921875 347.605469 269.953125 C 352.53125 255.398438 352.726563 250.777344 347.605469 242.769531 C 349.644531 257.128906 341.753906 254.820313 342.601563 268.179688 C 342.90625 275.03125 345.601563 280.578125 338.363281 285.734375 C 333.976563 288.121094 326.96875 287.738281 322.65625 285.351563 C 315.574219 281.808594 308.105469 272.800781 307.566406 264.40625 C 312.6875 259.824219 312.492188 255.398438 309.183594 250.46875 C 308.257813 257.515625 308.179688 258.632813 304.175781 260.789063 C 300.636719 261.328125 298.054688 257.707031 297.941406 255.242188 C 298.09375 245.386719 304.292969 243.386719 303.445313 233.839844 C 303.195313 230.929688 300.484375 226.570313 301.359375 221.132813 C 302.511719 213.96875 309.414063 209.003906 302.175781 201.652344 C 304.601563 211.507813 299.019531 212.433594 297.402344 212.738281 C 291.703125 213.625 289.777344 195.261719 285.542969 186.714844 C 283.847656 180.246094 291.085938 172.621094 289.085938 167.617188 C 287.082031 162.613281 285.734375 162.613281 282.769531 161.765625 C 284.195313 162.804688 284.773438 164.730469 285.464844 166.695313 C 286.160156 168.65625 286.3125 172.929688 283.308594 176.859375 C 276.882813 184.941406 286.160156 206.195313 276.6875 216.976563 C 270.722656 220.941406 265.714844 214.78125 264.445313 211.429688 C 261.867188 205.925781 267.257813 182.441406 258.363281 177.78125 C 259.941406 180.707031 260.902344 185.445313 261.210938 188.445313 C 262.136719 199.304688 255.707031 207.65625 259.824219 218.285156 C 262.675781 226.523438 267.832031 235.148438 264.445313 244.539063 C 262.675781 247.234375 259.824219 248.777344 256.746094 249.160156 C 253.589844 249.621094 251.277344 247.121094 250.816406 241.921875 C 249.929688 245.003906 248.699219 249.738281 248.851563 252.203125 C 248.390625 258.363281 252.277344 262.40625 246.582031 266.332031 C 244.886719 267.410156 242.578125 267.410156 240.652344 267.101563 C 235.109375 264.40625 230.796875 267.949219 225.097656 267.796875 C 215.78125 266.023438 214.511719 256.746094 215.933594 249.699219 C 212.972656 254.820313 212.007813 259.246094 212.699219 265.5625 C 212.777344 267.332031 212.746094 269.273438 210.3125 270.027344 C 196.03125 274.457031 201.613281 281.308594 195.144531 283.386719 C 192.910156 283.847656 188.714844 283.695313 186.984375 278.613281 C 188.714844 293.128906 174.664063 289.277344 174.816406 296.824219 C 165.808594 292.164063 161.996094 308.664063 153.796875 309.566406 C 149.253906 310.070313 146.941406 310.453125 143.589844 307.964844 C 143.09375 312.183594 142.128906 315.84375 135.585938 319.808594 C 130.386719 318.152344 130.578125 314.496094 130.925781 310.683594 C 125.960938 318.921875 121.609375 310.300781 116.296875 314.226563 C 118.644531 306.796875 106.324219 304.871094 106.441406 299.058594 C 105.363281 299.867188 104.976563 303.332031 106.285156 304.253906 C 111.367188 307.566406 112.871094 310.453125 112.214844 315.1875 C 111.773438 319.308594 113.449219 326.238281 120.453125 330.125 C 125.191406 319.695313 134.429688 326.238281 137.636719 323.011719 C 141.9375 326.429688 145.074219 328.492188 150.945313 330.320313 C 150.601563 324.890625 165.039063 319.117188 165.039063 312.378906 C 174.855469 317.574219 176.203125 309.296875 176.355469 306.449219 C 177.742188 308.914063 178.898438 311.992188 182.015625 312.761719 C 185.136719 313.53125 187.984375 310.300781 190.523438 308.988281 C 192.855469 308.914063 194.683594 309.105469 198.378906 310.914063 C 201.304688 309.296875 199.878906 304.871094 200.882813 301.289063 C 214.800781 302.078125 206.136719 290.046875 213.472656 288.507813 C 212.585938 285.140625 213.546875 282.347656 215.703125 280.347656 C 218.746094 281.480469 218.167969 285.332031 217.320313 287.621094 C 219.035156 287.449219 220.574219 287.066406 221.941406 286.277344 C 222.5 290.144531 228.074219 294.921875 232.488281 291.664063 C 240.691406 285.621094 248.507813 294.515625 256.128906 290.203125 C 256.28125 290.742188 258.6875 288.796875 259.132813 294.976563 C 260.75 293.4375 262.25 289.566406 261.519531 287.449219 C 265.042969 286.871094 266.582031 282.925781 265.890625 281.5 C 264.507813 278.660156 264.175781 277.152344 265.601563 273.878906 C 267.257813 274.550781 266.390625 276.667969 267.851563 278.113281 C 269.316406 279.558594 271.007813 278.882813 271.625 282.367188 C 275.320313 279.441406 268.675781 274.855469 272.605469 272.414063 C 279.09375 268.390625 269.566406 258.285156 277.613281 247.699219 C 279.09375 251.066406 279.019531 252.105469 278.09375 256.589844 C 277.171875 261.078125 276.226563 265.714844 280.921875 268.566406 C 278.902344 261.65625 286.699219 260.789063 285.8125 254.707031 C 292.089844 259.441406 281.59375 266.300781 284.773438 268.949219 C 293.917969 276.574219 286.410156 290.722656 293.859375 299.597656 C 297.402344 298.210938 300.367188 300.445313 302.019531 302.90625 C 308.449219 298.613281 312.6875 304.195313 313.800781 306.601563 C 316.34375 305.449219 321.445313 304.96875 323.734375 310.625 C 327.796875 308.046875 325.390625 301.503906 329.183594 300.445313 C 328.757813 304.390625 335.59375 305.0625 334.84375 312.992188 C 338.847656 316.074219 346.910156 315.402344 351.453125 315.941406 C 348.585938 320.175781 357.21875 319.8125 361.464844 320.90625 C 369.089844 322.871094 370.203125 328.546875 373.363281 331.78125 C 377.558594 326.046875 380.445313 329.992188 381.351563 326.21875 C 384.101563 327.683594 386.414063 327.105469 387.566406 325.082031 C 390.839844 325.277344 390.167969 328.066406 391.804688 332.089844 C 396.90625 337.308594 407.554688 339.519531 411.746094 334.167969 C 415.097656 329.894531 417.40625 322.773438 433.539063 318.847656 C 428.1875 315.941406 420.484375 319.695313 418.523438 322.347656 Z M 119.421875 325.035156 C 117.527344 324.699219 115.566406 320.65625 115.296875 318.652344 C 119.414063 312.183594 123.84375 318.921875 127.421875 316.804688 C 128.078125 318.539063 128.078125 319.886719 131.773438 320.808594 C 127.691406 320.847656 121.726563 321.039063 119.421875 325.035156 Z M 148.671875 326.03125 C 143.863281 324.890625 143.285156 322.582031 139.742188 320.617188 C 143.671875 317.769531 144.441406 316.996094 146.210938 312.109375 C 150.023438 315.265625 160.609375 311.609375 163.191406 307.527344 C 161.1875 319.230469 151.179688 320.269531 148.671875 326.03125 Z M 171.082031 310.683594 C 166.964844 310.839844 166 308.335938 164.730469 306.835938 C 167.507813 304.582031 170.667969 298.625 172.96875 300.675781 C 173.894531 303.90625 173.121094 310.070313 171.082031 310.683594 Z M 403.910156 333.628906 C 399.792969 333.457031 396.421875 331.917969 394.363281 329.875 C 394.210938 326.796875 391.03125 321.714844 387.566406 320.847656 C 386.796875 323.0625 385.355469 323.890625 383.96875 323.871094 C 381.871094 323.839844 381.3125 322.195313 380.003906 321.867188 C 378.714844 326.335938 374.863281 324.3125 373.632813 327.507813 C 371.207031 324.410156 371.476563 323.464844 369.089844 321.617188 C 364.851563 318.847656 360.003906 316.921875 354.996094 316.074219 C 358.886719 310.453125 353.109375 311.609375 350.570313 311.953125 C 343.453125 312.925781 339.058594 310.839844 337.921875 310.144531 C 337.902344 301.308594 333.089844 306.121094 330.089844 296.496094 C 326.0625 297.652344 324.234375 301.308594 322.714844 304.734375 C 321.828125 302.753906 317.59375 302.273438 315.648438 303.136719 C 313.167969 299.480469 307.679688 296.402344 302.714844 298.671875 C 301.519531 296.882813 298.921875 294.859375 295.859375 295.515625 C 290.835938 287.546875 296.613281 273.683594 288.316406 267.257813 C 297.941406 255.242188 285.15625 251.164063 285.929688 244.15625 C 282.753906 245.964844 285.15625 253.28125 281.019531 256.167969 C 281.886719 252.03125 281.578125 247.878906 281.117188 245.792969 C 279.769531 239.710938 278.996094 237.207031 276.304688 232.296875 C 277.84375 248.277344 271.972656 245.484375 270.894531 258.476563 C 270.582031 262.246094 273.992188 269.644531 268.910156 271.492188 C 266.582031 270.894531 267.449219 267.910156 265.214844 265.792969 C 264.5625 271.761719 258.402344 275.320313 262.441406 280.730469 C 265.8125 285.234375 250.894531 290.722656 246.078125 288.21875 C 243.960938 287.117188 236.550781 285.234375 231.988281 288.066406 C 229.039063 289.894531 226.0625 290.046875 224.464844 285.234375 C 223.925781 284.3125 223.941406 282.445313 223.675781 280.65625 C 222.210938 281 221.34375 282.347656 220.074219 282.464844 C 220.960938 278.496094 215.28125 278.113281 217.9375 271.492188 C 213.546875 275.957031 209.542969 280.886719 209.929688 287.429688 C 205.078125 289.277344 211.335938 298.710938 199.765625 297.746094 C 195.867188 297.421875 199.207031 306.027344 197.109375 308.179688 C 195.066406 306.410156 191.621094 306.0625 189.695313 306.0625 C 186.597656 306.507813 184.25 312.492188 181.09375 308.488281 C 179.859375 305.949219 178.667969 302.445313 177.28125 299.980469 C 181.015625 290.625 190.253906 294.28125 189.214844 285.851563 C 203.921875 290.046875 199.304688 275.609375 209.429688 274.339844 C 214.246094 273.734375 216.820313 270.027344 216.089844 266.871094 C 217.398438 269.835938 221.09375 272.644531 226.5625 271.722656 C 232.027344 270.796875 235.878906 269.257813 242.113281 271.335938 C 244.671875 272.191406 248.882813 271.179688 252.046875 267.757813 C 257.246094 262.136719 251.085938 256.359375 252.742188 252.472656 C 259.171875 256.359375 265.984375 250.625 268.140625 245.234375 C 272.453125 235.453125 266.214844 226.367188 263.753906 217.515625 C 268.21875 224.40625 274.726563 223.980469 277.652344 222.210938 C 285.429688 216.898438 285.234375 206.734375 285.542969 197.957031 C 287.46875 204.964844 289.972656 221.132813 299.789063 215.898438 C 293.050781 223.828125 303.746094 232.941406 297.515625 243.117188 C 292.472656 251.355469 291.894531 265.40625 304.023438 265.101563 C 303.175781 271.875 307.179688 277.574219 311.414063 282.039063 C 317.652344 287.890625 326.277344 292.589844 335.285156 290.742188 C 339.828125 290.125 344.832031 286.277344 345.988281 281.886719 C 347.453125 285.582031 347.757813 289.738281 347.835938 294.050781 C 354.074219 299.519531 360.828125 305.738281 369.761719 302.964844 C 370.148438 310.839844 376.789063 314.609375 382.410156 316.226563 C 387.878906 317.84375 396.519531 316.996094 397.539063 324.484375 C 407.011719 321.328125 405.085938 327.585938 411.785156 328.203125 C 410.1875 331.339844 408.03125 333.804688 403.910156 333.628906 "/>
<path style=" stroke:none;fill-rule:nonzero;fill:rgb(0%,0%,0%);fill-opacity:1;" d="M 350.222656 227.910156 C 350.414063 212.277344 357.152344 214.589844 355.226563 206.273438 C 353.410156 200.472656 352.640625 195.050781 352.226563 190.023438 C 352.53125 207.273438 343.679688 215.511719 350.222656 227.910156 "/>
<path style=" stroke:none;fill-rule:nonzero;fill:rgb(0%,0%,0%);fill-opacity:1;" d="M 287.777344 158.761719 C 289.777344 156.453125 289.816406 152.546875 289.085938 149.984375 C 286.3125 140.28125 283.425781 136.625 287.390625 122.726563 C 285.734375 125.84375 284.347656 128.378906 282.925781 131.234375 C 277.652344 141.824219 288.429688 150.101563 287.777344 158.761719 "/>
<path style=" stroke:none;fill-rule:nonzero;fill:rgb(0%,0%,0%);fill-opacity:1;" d="M 271.144531 90.773438 C 280.921875 107.75 269.757813 112.753906 275.226563 123.882813 C 275.53125 119.492188 276.378906 117.105469 277.765625 113.71875 C 281.925781 103.476563 278.074219 88.847656 273.53125 82.996094 C 268.988281 77.144531 275.53125 65.59375 277.074219 59.894531 C 271.296875 66.363281 264.539063 79.304688 271.144531 90.773438 "/>
<path style=" stroke:none;fill-rule:nonzero;fill:rgb(0%,0%,0%);fill-opacity:1;" d="M 254.089844 76.371094 C 254.9375 86.382813 259.746094 87.34375 264.828125 99.089844 C 260.902344 87.539063 258.59375 79.335938 262.441406 70.445313 C 266.292969 61.550781 271.832031 54.253906 271.144531 44.726563 C 269.757813 25.554688 256.667969 15.15625 260.210938 0.988281 C 256.28125 8.804688 257.898438 15.929688 261.363281 21.855469 C 270.296875 40.566406 252.722656 60.238281 254.089844 76.371094 Z M 266.140625 38.179688 C 267.0625 39.796875 267.890625 43.285156 268.21875 45.574219 C 269.179688 52.3125 260.132813 63.28125 258.746094 70.289063 C 257.683594 61.238281 267.507813 49.320313 266.140625 38.179688 "/>
<path style=" stroke:none;fill-rule:nonzero;fill:rgb(0%,0%,0%);fill-opacity:1;" d="M 256.128906 139.742188 C 261.480469 148.945313 249.546875 161.84375 257.4375 170.390625 C 257.285156 169.3125 256.859375 167.039063 257.476563 164.769531 C 260.167969 154.84375 262.636719 143.746094 256.128906 139.742188 "/>
<path style=" stroke:none;fill-rule:nonzero;fill:rgb(0%,0%,0%);fill-opacity:1;" d="M 260.132813 120.917969 C 263.675781 106.980469 246.464844 97.546875 249.507813 82.070313 C 239.726563 96.777344 257.824219 107.558594 257.285156 127.191406 C 258.207031 124.496094 259.824219 122.84375 260.132813 120.917969 "/>
<path style=" stroke:none;fill-rule:nonzero;fill:rgb(0%,0%,0%);fill-opacity:1;" d="M 245.039063 218.4375 C 242.972656 224.941406 246.042969 231.375 250.277344 235.992188 C 249.890625 234.378906 249.199219 232.375 248.96875 230.449219 C 247.351563 223.441406 254.050781 215.28125 247.503906 209.429688 C 243.425781 204.578125 244.117188 197.03125 244.886719 190.949219 C 245.117188 187.5625 246.117188 183.710938 244.734375 180.554688 C 245.117188 186.484375 240.652344 193.722656 240.574219 199.265625 C 240.574219 206.503906 247.429688 210.929688 245.039063 218.4375 "/>
<path style=" stroke:none;fill-rule:nonzero;fill:rgb(0%,0%,0%);fill-opacity:1;" d="M 209.199219 235.1875 C 208.734375 226.523438 215.089844 226.136719 212.160156 219.054688 C 209.234375 211.96875 207.195313 204.578125 207.578125 195.914063 C 206.8125 197.648438 203.730469 201.113281 206.847656 209.96875 C 209.96875 218.824219 202.269531 228.71875 209.199219 235.1875 "/>
<path style=" stroke:none;fill-rule:nonzero;fill:rgb(0%,0%,0%);fill-opacity:1;" d="M 193.683594 212.894531 C 192.757813 206.195313 195.144531 200.421875 196.453125 194.414063 C 199.109375 180.324219 191.410156 180.707031 190.371094 169.3125 C 187.945313 175.316406 191.988281 182.054688 192.605469 188.214844 C 192.296875 196.300781 187.675781 206.117188 193.683594 212.894531 "/>
<path style=" stroke:none;fill-rule:nonzero;fill:rgb(0%,0%,0%);fill-opacity:1;" d="M 89.65625 267.257813 C 92.273438 258.402344 94.273438 247.003906 90.734375 237.917969 C 92.117188 247.46875 86.804688 255.167969 88.191406 264.484375 C 87.960938 265.714844 90.117188 272.339844 89.65625 267.257813 "/>
<path style=" stroke:none;fill-rule:nonzero;fill:rgb(0%,0%,0%);fill-opacity:1;" d="M 94.929688 271.066406 C 92.542969 278.226563 89.117188 286.121094 88.269531 293.898438 C 87.808594 302.984375 91.695313 302.558594 94.429688 317.691406 C 98.742188 312.992188 100.664063 306.679688 100.050781 300.675781 C 98.625 291.78125 93.8125 286.582031 94.929688 271.066406 Z M 95.140625 310.429688 C 94.253906 303.210938 91.84375 301.660156 91.488281 295.875 C 91.378906 291.300781 92.273438 289.46875 93.363281 285 C 93.339844 291.484375 93.914063 293.523438 96.328125 299.570313 C 96.894531 303.054688 96.523438 307.527344 95.140625 310.429688 "/>
<path style=" stroke:none;fill-rule:nonzero;fill:rgb(0%,0%,0%);fill-opacity:1;" d="M 83.03125 312.6875 C 81.722656 314.609375 79.796875 316.613281 77.257813 316.226563 C 65.398438 312.6875 61.761719 299.671875 59.933594 289.816406 C 58.199219 293.511719 60.992188 300.058594 57.351563 301.289063 C 55.273438 301.828125 53.542969 299.210938 52.15625 297.902344 C 54.3125 303.367188 52.714844 308.816406 48.613281 312.917969 C 47.84375 313.457031 45.773438 313.46875 44.78125 313.300781 C 40.394531 312.570313 42.222656 316.996094 39.375 317.152344 C 29.519531 319.40625 31.097656 324.523438 25.089844 325.757813 C 21.335938 322.386719 7.863281 319.019531 0.796875 327.160156 C 6.996094 324.507813 12.289063 323.351563 22.046875 327.703125 C 28.523438 330.585938 33.945313 324.3125 41.992188 325.46875 C 47.753906 326.296875 49.152344 317.613281 54.542969 319.925781 C 56.082031 320.464844 54.925781 317.382813 56.777344 316.382813 C 57.910156 317.480469 58.199219 318.730469 57.699219 320.464844 C 59.472656 320.695313 60.222656 317.769531 61.933594 317.921875 C 63.628906 321.695313 66.515625 323.851563 70.058594 325.316406 C 73.832031 326.699219 78.316406 326.238281 81.339844 322.542969 C 85.921875 316.996094 85.496094 309.605469 84.648438 303.292969 C 84.34375 306.757813 84.648438 309.835938 83.03125 312.6875 Z M 32.90625 324.003906 C 35.878906 320.039063 42.511719 322.703125 44.917969 316.765625 C 46.074219 317.09375 47.460938 316.996094 48.460938 316.996094 C 43.28125 326.910156 40.875 320.078125 32.90625 324.003906 Z M 75.351563 322.542969 C 64.070313 323.832031 63.820313 311.359375 59.433594 308.488281 C 59.203125 309.796875 58.625 310.683594 58.394531 311.992188 C 57.699219 311.453125 56.542969 310.53125 56.238281 309.605469 C 54.695313 311.300781 54.695313 314.285156 53.617188 316.363281 C 53.097656 315.941406 51.925781 315.921875 51.386719 315.84375 C 54.003906 312.53125 55.773438 308.835938 56.542969 304.753906 C 57.816406 305.351563 59.355469 304.96875 60.242188 303.136719 C 63.707031 310.453125 70.519531 321.523438 79.472656 319.5 C 79.011719 320.808594 76.585938 322.484375 75.351563 322.542969 "/>
<path style=" stroke:none;fill-rule:nonzero;fill:rgb(0%,0%,0%);fill-opacity:1;" d="M 417.597656 314.378906 C 417.445313 313.300781 417.019531 311.03125 417.636719 308.757813 C 420.328125 298.835938 422.796875 287.738281 416.289063 283.734375 C 421.640625 292.933594 409.707031 305.832031 417.597656 314.378906 "/>
<path style=" stroke:none;fill-rule:nonzero;fill:rgb(0%,0%,0%);fill-opacity:1;" d="M 20.664063 313.378906 C 20.855469 297.746094 24.773438 300.210938 25.667969 291.742188 C 26.4375 284.464844 23.078125 280.523438 22.664063 275.496094 C 22.972656 292.742188 14.117188 300.980469 20.664063 313.378906 "/>
<path style=" stroke:none;fill-rule:nonzero;fill:rgb(0%,0%,0%);fill-opacity:1;" d="M 373.113281 289.21875 C 372.1875 282.523438 374.574219 276.746094 375.882813 270.738281 C 378.539063 256.648438 370.839844 257.035156 369.800781 245.636719 C 367.375 251.644531 371.417969 258.382813 372.035156 264.542969 C 371.726563 272.628906 367.105469 282.445313 373.113281 289.21875 "/>
<path style=" stroke:none;fill-rule:nonzero;fill:rgb(0%,0%,0%);fill-opacity:1;" d="M 130.386719 305.140625 C 130.234375 304.0625 129.8125 301.789063 130.425781 299.519531 C 133.117188 289.59375 133.851563 285.042969 126.769531 279.5 C 132.121094 288.699219 122.496094 296.59375 130.386719 305.140625 "/>
<path style=" stroke:none;fill-rule:nonzero;fill:rgb(0%,0%,0%);fill-opacity:1;" d="M 340.597656 247.003906 C 340.269531 245.96875 339.480469 243.792969 339.71875 241.453125 C 340.75 231.222656 341.367188 219.871094 334.296875 216.984375 C 341.078125 225.1875 331.414063 239.863281 340.597656 247.003906 "/>
<path style=" stroke:none;fill-rule:nonzero;fill:rgb(0%,0%,0%);fill-opacity:1;" d="M 278.566406 151.800781 C 277.078125 143.800781 274.175781 141.429688 268.078125 134.359375 C 272.175781 143.351563 274.699219 149.773438 272.3125 157.253906 C 269.929688 164.730469 264.21875 171.902344 265.886719 179.460938 C 268.242188 190.132813 274.027344 194.722656 277.105469 196.324219 C 268.132813 182.128906 280.972656 164.691406 278.566406 151.800781 Z M 271.9375 183.554688 C 271.0625 182.328125 270.113281 179.582031 269.667969 177.765625 C 268.347656 172.414063 274.753906 162.839844 275.304688 157.078125 C 277.082031 165.152344 270.132813 175.554688 271.9375 183.554688 "/>
<path style=" stroke:none;fill-rule:nonzero;fill:rgb(0%,0%,0%);fill-opacity:1;" d="M 56.769531 272.753906 C 55.785156 265.640625 52.472656 261.480469 53.242188 249.070313 C 51.597656 254.796875 49.238281 261.113281 48.65625 267.332031 C 48.335938 274.601563 51.015625 274.261719 52.898438 286.367188 C 55.867188 282.609375 57.191406 277.558594 56.769531 272.753906 "/>
</g>
</svg>
