<?xml version="1.0" encoding="UTF-8"?>
<svg xmlns="http://www.w3.org/2000/svg" xmlns:xlink="http://www.w3.org/1999/xlink" width="481pt" height="369pt" viewBox="0 0 481 369" version="1.1">
<g id="surface1">
<path style=" stroke:none;fill-rule:nonzero;fill:rgb(0%,0%,0%);fill-opacity:1;" d="M 448.265625 208.070313 L 448.265625 99.558594 L 464.527344 89.472656 L 464.453125 55.734375 L 313.972656 55.734375 C 297.394531 22.074219 270.152344 0.0820313 239.328125 0.0820313 C 208.503906 0.0820313 181.257813 22.074219 164.683594 55.734375 L 14.535156 55.734375 L 14.609375 90.164063 L 31.023438 99.574219 L 31.039063 208.070313 C 10.910156 224.574219 0.292969 244.878906 0.292969 268.589844 C 0.292969 289.425781 17.269531 309.808594 39.605469 324.050781 C 66.589844 341.253906 129.824219 347.722656 173.867188 353.078125 C 192.28125 355.320313 207.234375 357.902344 214.949219 360.132813 C 227.144531 363.65625 238.410156 368.917969 239.367188 368.867188 C 240.308594 368.816406 254.964844 362.460938 260.902344 361.171875 C 312.058594 350.074219 407.65625 346.855469 442.746094 322.941406 C 463.097656 309.074219 480.207031 287.984375 480.207031 268.589844 C 480.207031 232.792969 448.265625 208.070313 448.265625 208.070313 "/>
</g>
</svg>
