<?xml version="1.0" encoding="UTF-8"?>
<svg xmlns="http://www.w3.org/2000/svg" xmlns:xlink="http://www.w3.org/1999/xlink" width="344pt" height="667pt" viewBox="0 0 344 667" version="1.1">
<g id="surface1">
<path style=" stroke:none;fill-rule:nonzero;fill:rgb(0%,0%,0%);fill-opacity:1;" d="M 297.898438 580.339844 C 280.980469 592.039063 282.960938 613.101563 274.5 629.121094 C 270.898438 636.859375 255.238281 645.5 248.757813 647.480469 C 242.101563 650.359375 216.898438 640.910156 233.460938 625.339844 C 251.101563 610.21875 264.058594 588.261719 279.179688 573.859375 C 294.300781 559.460938 288 539.121094 298.617188 524.179688 C 322.019531 504.921875 334.347656 485.886719 331.558594 448.582031 C 331.019531 441.355469 348.75 427.160156 342.359375 415.28125 C 339.972656 435.710938 326.023438 431.210938 326.339844 462.800781 C 326.488281 477.648438 321.246094 490.550781 311.578125 499.160156 C 303.75 506.136719 296.277344 510.320313 287.460938 507.261719 C 271.078125 499.703125 271.800781 479.585938 275.398438 466.761719 C 264.960938 440.300781 297.898438 427.523438 311.21875 409.34375 C 334.617188 373.882813 291.148438 351.113281 290.878906 314.664063 C 292.859375 290.542969 314.550781 253.914063 288.71875 235.644531 C 302.847656 275.0625 286.289063 278.214844 284.488281 315.5625 C 283.523438 335.585938 296.460938 351.5625 296.097656 371.722656 C 295.648438 379.910156 284.398438 395.660156 265.5 390.621094 C 246.601563 385.582031 243.902344 366.472656 239.9375 351.382813 C 227.699219 304.761719 255.148438 311.964844 246.871094 255.441406 C 244.851563 241.671875 256.050781 234.113281 250.378906 214.402344 C 250.515625 226.195313 239.101563 235.382813 240.300781 258.234375 C 242.101563 292.613281 232.648438 287.214844 225.71875 315.023438 C 220.464844 336.105469 236.46875 367.582031 214.921875 381.261719 C 209.25 384.863281 203.851563 383.511719 197.640625 381.621094 C 168.839844 368.480469 160.558594 336.441406 156.601563 307.824219 C 150.480469 276.863281 167.761719 253.28125 173.339844 226.105469 C 186.660156 172.464844 156.421875 129.804688 151.019531 79.585938 C 147.238281 54.023438 170.101563 31.523438 162.179688 3.984375 C 161.460938 18.203125 157.5 30.984375 152.28125 43.40625 C 136.261719 73.105469 146.878906 114.863281 154.800781 147.085938 C 162.359375 173.363281 153.539063 216.742188 150.121094 226.105469 C 146.699219 235.464844 138.78125 249.324219 126.359375 250.222656 C 121.320313 250.042969 116.820313 247.882813 113.761719 243.742188 C 94.679688 213.503906 113.039063 175.882813 114.660156 143.664063 C 114.660156 109.644531 86.039063 87.144531 81.902344 55.464844 C 78.300781 35.125 98.820313 21.625 93.960938 0.566406 C 91.800781 24.324219 69.839844 41.425781 77.582031 67.523438 C 82.800781 96.144531 108 118.464844 94.859375 150.863281 C 77.21875 176.964844 76.5 212.605469 84.421875 243.382813 C 100.980469 288.742188 123.722656 334.824219 120.238281 385.042969 C 118.351563 412.3125 111.375 432.785156 88.109375 443.273438 C 78.402344 447.648438 52.652344 442.6875 62.730469 412.535156 C 71.503906 386.300781 61.199219 369.113281 45.179688 351.023438 C 33.269531 337.574219 37.96875 293.738281 45.902344 276.144531 C 50.851563 265.164063 45.902344 250.761719 38.160156 244.644531 C 38.339844 248.601563 40.582031 260.9375 40.859375 265.34375 C 41.851563 280.914063 33.300781 288.113281 32.039063 332.304688 C 31.28125 358.945313 35.101563 370.101563 40.320313 386.84375 C 41.761719 417.800781 25.5625 445.34375 33.839844 477.023438 C 39.601563 494.839844 54.539063 508.703125 63.71875 525.082031 C 77.625 548.210938 72.226563 574.085938 62.460938 595.460938 C 59.941406 600.679688 53.871094 603.941406 48.601563 601.582031 C 36.449219 596.136719 35.460938 581.0625 37.261719 568.28125 C 42.480469 534.082031 14.039063 510.683594 7.921875 479.722656 C 5.222656 463.160156 8.820313 443.722656 1.441406 429.503906 C 4.5 438.320313 3.0625 449.300781 1.082031 458.121094 C -3.417969 487.28125 15.480469 512.121094 23.582031 538.941406 C 31.5 563.960938 15.03125 600.320313 33.390625 623.179688 C 45.902344 640.011719 59.402344 644.511719 91.171875 637.671875 C 101.246094 635.5 121.050781 645.859375 132.300781 653.511719 C 155.25 651.261719 183.601563 663.410156 204.75 665.839844 C 225.898438 668.269531 235.621094 663.949219 253.257813 655.582031 C 270.898438 647.210938 284.925781 631.015625 288.71875 611.480469 C 296.550781 571.160156 339.300781 574.761719 340.199219 531.921875 C 333.449219 550.460938 315.898438 570.082031 297.898438 580.339844 Z M 135.089844 643.070313 C 118.351563 630.558594 99 625.160156 71.460938 633.082031 C 55.800781 632.71875 41.132813 627.050781 35.191406 612.46875 C 32.851563 607.96875 32.222656 597.621094 31.679688 592.402344 C 33.976563 598.160156 37.980469 605.585938 45.539063 608.0625 C 53.101563 610.535156 64.082031 607.84375 68.402344 599.78125 C 76.5 584.660156 85.5 545.734375 69.300781 519.503906 C 59.582031 503.660156 44.820313 490.160156 40.320313 472.34375 C 32.238281 439.84375 54.394531 413.28125 46.441406 380.363281 C 45 373.882813 41.535156 365.738281 40.996094 358.898438 C 53.324219 373.386719 60.839844 391.304688 54.992188 410.828125 C 42.074219 453.9375 80.550781 454.835938 90 450.742188 C 131.914063 432.578125 132.121094 385.761719 126.359375 347.0625 C 118.980469 308.363281 102.421875 273.621094 90.539063 236.902344 C 82.980469 209.902344 85.5 180.113281 100.800781 155.183594 C 105.257813 147.921875 105.300781 139.34375 105.660156 130.703125 C 110.699219 158.605469 96.480469 183.445313 97.742188 212.242188 C 100.078125 229.34375 101.519531 251.121094 121.140625 256.703125 C 125.28125 258.683594 133.199219 257.242188 138.058594 254.542969 C 163.441406 234.742188 162.539063 202.523438 165.238281 173.363281 C 164.339844 169.402344 164.339844 165.085938 164.339844 160.402344 C 177.300781 197.84375 165.726563 234.035156 151.019531 273.082031 C 143.191406 293.871094 149.398438 334.910156 164.699219 360.382813 C 174.601563 376.222656 186.300781 390.710938 208.261719 391.160156 C 219.15625 391.386719 225.089844 386.390625 228.328125 380.8125 C 232.46875 372.351563 234 361.910156 231.660156 351.382813 C 237.148438 372.261719 240.300781 383.0625 251.640625 391.160156 C 259.933594 397.085938 270.808594 400.433594 279.808594 398.453125 C 290.789063 395.210938 298.246094 390.789063 302.128906 377.480469 C 303.390625 373.160156 303.300781 369.113281 303.480469 362.542969 C 310.320313 374.242188 315.179688 392.960938 305.640625 405.023438 C 290.519531 421.941406 258.300781 433.460938 268.109375 466.941406 C 264.824219 478.910156 263.25 490.613281 272.5625 504.019531 C 277.964844 511.402344 285.839844 516.980469 295.738281 515.179688 C 280.800781 532.28125 289.484375 556.804688 268.378906 576.382813 C 249.75 593.660156 252.089844 600.703125 229.230469 619.492188 C 207 637.761719 230.851563 657.5625 243.898438 651.621094 C 205.199219 673.761719 180.898438 642.261719 135.089844 643.070313 "/>
<path style=" stroke:none;fill-rule:nonzero;fill:rgb(0%,0%,0%);fill-opacity:1;" d="M 243.359375 445.523438 C 243.371094 445.59375 243.375 445.660156 243.386719 445.730469 C 243.421875 445.597656 243.414063 445.523438 243.359375 445.523438 "/>
<path style=" stroke:none;fill-rule:nonzero;fill:rgb(0%,0%,0%);fill-opacity:1;" d="M 233.101563 588.621094 C 231.523438 574.535156 242.101563 577.460938 239.578125 567.019531 C 253.574219 565.085938 245.023438 559.460938 258.480469 550.371094 C 255.238281 551.632813 250.378906 549.199219 246.78125 545.78125 C 244.257813 542.722656 247.679688 539.839844 249.480469 537.5 C 250.378906 533.902344 244.078125 536.0625 242.460938 532.820313 C 247.5 528.410156 234.449219 522.335938 245.699219 519.859375 C 231.523438 511.3125 255.597656 506.136719 250.964844 490.117188 C 247.949219 496.460938 235.800781 507.484375 236.878906 492.140625 C 227.25 496.238281 228.601563 488.363281 232.558594 484.941406 C 229.304688 469.757813 245.535156 460.105469 243.386719 445.730469 C 242.839844 447.808594 231.902344 464.980469 221.761719 468.023438 C 211.726563 460.6875 225.898438 449.210938 218.699219 435.621094 C 219.421875 437.421875 209.746094 455.421875 203.445313 455.421875 C 208.351563 444.710938 198 438.636719 200.699219 412.761719 C 196.378906 420.320313 198 428.960938 194.578125 436.882813 C 192.78125 440.121094 189.898438 442.460938 186.300781 443.003906 C 167.761719 440.300781 173.023438 422.210938 174.78125 405.742188 C 164.699219 415.011719 162.898438 432.113281 169.109375 443.273438 C 170.324219 447.863281 156.148438 457.535156 153.898438 442.101563 C 159.75 426.261719 149.625 426.9375 150.253906 412.402344 C 145.933594 416.542969 145.980469 419.242188 147.421875 424.640625 C 150.300781 434.363281 148.273438 437.285156 145.933594 439.761719 C 131.175781 433.6875 155.476563 449.210938 136.261719 462.441406 C 136.351563 450.113281 123.300781 461.8125 126.988281 439.671875 C 117.449219 442.910156 121.050781 461.8125 122.039063 466.222656 C 120.421875 472.882813 111.148438 462.9375 105.613281 469.6875 C 113.851563 472.613281 114.523438 479.136719 111.375 484.039063 C 101.476563 496.910156 93.824219 482.960938 88.46875 482.015625 C 83.117188 481.070313 78.660156 478.730469 74.878906 472.613281 C 74.25 487.011719 82.890625 483.050781 85.769531 490.613281 C 84.332031 500.691406 94.859375 503.300781 89.640625 513.382813 C 95.851563 525.261719 81 535.699219 88.378906 548.300781 C 83.027344 554.511719 90.675781 566.886719 86.039063 573.859375 C 95.625 576.785156 87.300781 591.636719 97.742188 593.300781 C 93.152344 598.386719 85.726563 604.011719 85.816406 617.691406 C 89.550781 609.1875 101.023438 599.960938 102.960938 608.0625 C 111.148438 602.4375 111.824219 617.285156 122.398438 611.839844 C 137.925781 625.386719 159.75 623.585938 170.460938 621.019531 C 176.175781 628.308594 182.160156 625.882813 187.738281 623.179688 C 194.625 622.234375 193.140625 628.761719 194.21875 632.179688 C 202.949219 627.859375 199.574219 613.910156 206.234375 612.246094 C 223.875 610.3125 220.726563 592.3125 233.101563 588.621094 Z M 211.996094 604.414063 C 203.851563 606.261719 196.875 608.960938 194.894531 617.421875 C 186.976563 608.511719 179.324219 626.511719 173.339844 613.640625 C 160.199219 616.835938 139.273438 619.984375 124.558594 604.101563 C 116.773438 612.5625 113.21875 597.621094 105.121094 599.78125 C 106.378906 595.820313 107.640625 591.636719 105.660156 587.855469 C 95.175781 590.285156 101.25 575.4375 94.546875 571.972656 C 97.652344 565.535156 90.449219 555.636719 96.480469 547.582031 C 88.019531 538.222656 102.601563 529.535156 96.929688 513.652344 C 102.148438 503.4375 90.226563 496.460938 92.476563 492.816406 C 101.476563 497.136719 120.601563 496.238281 118.484375 474.277344 C 128.476563 475.3125 128.476563 467.4375 127.621094 463.613281 C 135.449219 482.511719 150.976563 456.636719 150.480469 450.742188 C 163.351563 465.636719 172.980469 450.203125 174.78125 446.0625 C 179.460938 449.480469 186.660156 451.28125 192.421875 448.582031 C 191.25 467.4375 206.550781 463.386719 210.058594 464.0625 C 209.699219 471.488281 219.375 479.363281 226.078125 474.503906 C 225.675781 482.511719 217.351563 499.835938 232.558594 502.039063 C 232.738281 504.019531 229.726563 511.3125 236.382813 510.636719 C 240.523438 519.859375 229.273438 518.0625 235.621094 529.761719 C 233.820313 531.382813 234.089844 534.171875 235.710938 535.789063 C 246.824219 537.859375 234 547.582031 242.101563 551 C 246.824219 559.234375 229.273438 554.0625 231.660156 570.441406 C 229.5 571.835938 224.550781 575.660156 225.71875 585.921875 C 221.398438 588.261719 216.449219 592.984375 211.996094 604.414063 "/>
</g>
</svg>
