<?xml version="1.0" encoding="UTF-8"?>
<svg xmlns="http://www.w3.org/2000/svg" xmlns:xlink="http://www.w3.org/1999/xlink" width="459pt" height="345pt" viewBox="0 0 459 345" version="1.1">
<g id="surface1">
<path style=" stroke:none;fill-rule:nonzero;fill:rgb(0%,0%,0%);fill-opacity:1;" d="M 0.238281 0.351563 L 0.238281 344.652344 L 458.261719 344.652344 L 458.261719 0.351563 Z M 353.804688 86.363281 C 358.113281 82.640625 364.070313 80.816406 371.679688 80.816406 C 375.253906 80.816406 378.1875 81.183594 380.570313 81.910156 C 382.953125 82.640625 384.972656 83.808594 386.527344 85.414063 L 386.527344 81.691406 L 395.972656 81.691406 L 395.972656 95.777344 L 386.347656 95.777344 C 385.980469 93.003906 384.695313 90.816406 382.496094 89.210938 C 380.386719 87.605469 377.546875 86.800781 374.246094 86.800781 C 369.570313 86.800781 365.8125 88.1875 362.96875 90.886719 C 360.21875 93.589844 358.84375 97.238281 358.84375 101.835938 C 358.84375 106.433594 360.21875 110.007813 362.878906 112.707031 C 365.535156 115.335938 369.203125 116.648438 373.789063 116.648438 C 377.363281 116.648438 380.203125 115.847656 382.222656 114.242188 C 384.328125 112.5625 385.429688 110.226563 385.703125 107.160156 L 378.644531 107.160156 L 378.644531 101.179688 L 401.105469 101.179688 L 401.105469 107.089844 L 396.15625 107.089844 L 396.15625 121.902344 L 386.621094 121.902344 L 386.621094 117.378906 C 385.703125 119.128906 384.054688 120.515625 381.671875 121.394531 C 379.195313 122.339844 376.078125 122.777344 372.230469 122.777344 C 364.4375 122.777344 358.296875 120.882813 353.894531 117.085938 C 349.402344 113.292969 347.203125 108.109375 347.203125 101.542969 C 347.203125 95.121094 349.402344 90.085938 353.804688 86.363281 Z M 380.121094 145.71875 L 379.226563 148.917969 L 365.679688 148.917969 L 364.136719 154.117188 L 379.269531 154.117188 L 378.332031 157.3125 L 358.03125 157.3125 L 363.484375 138.160156 L 382.765625 138.160156 L 381.871094 141.359375 L 367.960938 141.359375 L 366.65625 145.71875 Z M 357.992188 138.160156 L 352.539063 157.3125 L 347.535156 157.3125 L 340.5 144.4375 L 336.839844 157.3125 L 331.835938 157.3125 L 337.285156 138.160156 L 342.246094 138.160156 L 349.328125 150.980469 L 352.988281 138.160156 Z M 288.953125 115.917969 L 295.550781 115.917969 L 295.550781 87.386719 L 288.953125 87.386719 L 288.953125 81.691406 L 310.402344 81.691406 L 329.835938 112.269531 L 329.835938 87.386719 L 323.421875 87.386719 L 323.421875 81.691406 L 345.144531 81.691406 L 345.144531 87.386719 L 339.371094 87.386719 L 339.371094 121.902344 L 325.710938 121.902344 L 304.902344 89.28125 L 304.902344 115.917969 L 311.226563 115.917969 L 311.226563 121.902344 L 288.953125 121.902344 Z M 330.449219 145.898438 C 330.449219 147.929688 329.800781 149.871094 328.496094 151.785156 C 327.234375 153.667969 325.445313 155.132813 323.25 156.148438 C 321.011719 157.164063 318.53125 157.671875 315.722656 157.671875 C 313.28125 157.671875 311.25 157.253906 309.621094 156.445313 C 307.953125 155.640625 306.773438 154.652344 306.082031 153.429688 C 305.390625 152.234375 305.066406 151.039063 305.066406 149.8125 C 305.066406 148.679688 305.308594 147.484375 305.757813 146.226563 C 306.367188 144.554688 307.300781 143.089844 308.523438 141.835938 C 309.785156 140.609375 311.328125 139.625 313.199219 138.90625 C 315.113281 138.191406 317.230469 137.832031 319.671875 137.832031 C 322.882813 137.832031 325.488281 138.578125 327.480469 140.042969 C 329.472656 141.507813 330.449219 143.480469 330.449219 145.898438 Z M 290.785156 154.144531 C 291.925781 154.144531 293.511719 154.144531 295.503906 154.117188 L 301.605469 154.117188 L 300.710938 157.3125 L 280.535156 157.3125 L 281.386719 154.296875 L 296.441406 141.359375 L 284.234375 141.359375 L 285.132813 138.160156 L 303.964844 138.160156 L 303.191406 141.179688 L 288.019531 154.175781 C 289.605469 154.144531 290.539063 154.144531 290.785156 154.144531 Z M 249.371094 138.160156 L 255.109375 138.160156 L 258.363281 143.570313 C 259.136719 144.855469 259.664063 145.808594 259.90625 146.378906 C 260.355469 145.808594 260.84375 145.210938 261.414063 144.585938 L 263.894531 142.046875 L 267.554688 138.160156 L 273.78125 138.160156 L 261.820313 150.230469 L 259.828125 157.3125 L 254.457031 157.3125 L 256.570313 149.84375 Z M 262.09375 121.902344 L 262.09375 115.917969 L 268.601563 115.917969 L 268.601563 87.386719 L 262.09375 87.386719 L 262.09375 81.691406 L 285.925781 81.691406 L 285.925781 87.386719 L 279.328125 87.386719 L 279.328125 115.917969 L 285.925781 115.917969 L 285.925781 121.902344 Z M 241.617188 27.574219 C 246.289063 23.851563 252.707031 21.953125 260.773438 21.953125 C 268.933594 21.953125 275.351563 23.851563 280.023438 27.574219 C 284.699219 31.296875 287.085938 36.476563 287.085938 42.972656 C 287.085938 49.394531 284.699219 54.574219 280.023438 58.296875 C 275.351563 62.019531 268.933594 63.917969 260.773438 63.917969 C 252.617188 63.917969 246.199219 62.019531 241.523438 58.296875 C 236.847656 54.574219 234.558594 49.46875 234.558594 42.972656 C 234.558594 36.476563 236.941406 31.367188 241.617188 27.574219 Z M 241.285156 87.386719 L 236.882813 87.386719 L 236.882813 81.691406 L 258.792969 81.691406 L 258.792969 87.386719 L 254.023438 87.386719 L 237.710938 100.449219 L 254.390625 115.917969 L 259.433594 115.917969 L 259.433594 121.902344 L 236.335938 121.902344 L 236.335938 115.917969 L 241.925781 115.917969 L 225.699219 101.324219 L 225.699219 115.917969 L 231.84375 115.917969 L 231.84375 121.902344 L 208.925781 121.902344 L 208.925781 115.917969 L 214.976563 115.917969 L 214.976563 87.386719 L 208.925781 87.386719 L 208.925781 81.691406 L 231.84375 81.691406 L 231.84375 87.386719 L 225.699219 87.386719 L 225.699219 100.15625 Z M 235.859375 138.160156 L 241.878906 138.160156 L 246.109375 157.3125 L 241.027344 157.3125 L 240.171875 153.070313 L 229.878906 153.070313 L 226.707031 157.3125 L 221.132813 157.3125 Z M 215.472656 157.3125 L 210.0625 157.3125 L 209.492188 143.300781 L 200.015625 157.3125 L 194.480469 157.3125 L 193.425781 138.160156 L 198.671875 138.160156 L 198.914063 151.578125 L 207.90625 138.160156 L 213.765625 138.160156 L 214.375 151.425781 L 222.960938 138.160156 L 228.164063 138.160156 Z M 172.863281 57.058594 L 179.464844 57.058594 L 179.464844 28.523438 L 172.863281 28.523438 L 172.863281 22.832031 L 194.3125 22.832031 L 213.746094 53.40625 L 213.746094 28.523438 L 207.332031 28.523438 L 207.332031 22.832031 L 229.058594 22.832031 L 229.058594 28.523438 L 223.28125 28.523438 L 223.28125 63.039063 L 209.621094 63.039063 L 188.8125 30.421875 L 188.8125 57.058594 L 195.140625 57.058594 L 195.140625 63.039063 L 172.863281 63.039063 Z M 154.472656 115.917969 L 161.074219 115.917969 L 161.074219 87.386719 L 154.472656 87.386719 L 154.472656 81.691406 L 182.796875 81.691406 C 188.664063 81.691406 193.066406 82.640625 196 84.464844 C 198.933594 86.363281 200.398438 89.136719 200.398438 92.929688 C 200.398438 95.703125 199.480469 97.894531 197.558594 99.425781 C 195.632813 101.03125 192.699219 101.980469 188.664063 102.492188 C 191.050781 102.710938 192.882813 103.222656 194.347656 104.097656 C 195.816406 104.972656 196.824219 106.214844 197.464844 107.820313 L 200.492188 115.917969 L 205.347656 115.917969 L 205.347656 121.902344 L 191.507813 121.902344 L 186.832031 109.351563 C 186.28125 107.746094 185.363281 106.652344 184.082031 106.066406 C 182.796875 105.410156 180.691406 105.117188 177.757813 105.117188 L 171.796875 105.117188 L 171.796875 115.917969 L 179.957031 115.917969 L 179.957031 121.902344 L 154.472656 121.902344 Z M 189.433594 157.3125 L 184.347656 157.3125 L 183.492188 153.070313 L 173.199219 153.070313 L 170.027344 157.3125 L 164.453125 157.3125 L 179.179688 138.160156 L 185.199219 138.160156 Z M 161.355469 138.160156 L 148.664063 157.3125 L 143.253906 157.3125 L 142.683594 143.300781 L 133.203125 157.3125 L 127.671875 157.3125 L 126.613281 138.160156 L 131.863281 138.160156 L 132.105469 151.578125 L 141.097656 138.160156 L 146.957031 138.160156 L 147.566406 151.425781 L 156.148438 138.160156 Z M 129.628906 81.402344 L 147.230469 115.917969 L 151.171875 115.917969 L 151.171875 121.902344 L 129.8125 121.902344 L 129.8125 115.917969 L 135.953125 115.917969 L 132.929688 109.425781 L 112.121094 109.425781 L 109.003906 115.917969 L 115.148438 115.917969 L 115.148438 121.902344 L 94.796875 121.902344 L 94.796875 115.917969 L 98.738281 115.917969 L 116.703125 81.402344 Z M 76.902344 141.359375 L 77.753906 138.160156 L 98.21875 138.160156 L 97.363281 141.359375 L 89.878906 141.359375 L 85.363281 157.3125 L 79.992188 157.3125 L 84.507813 141.359375 Z M 97.976563 146.226563 C 98.585938 144.554688 99.519531 143.089844 100.742188 141.835938 C 102.003906 140.609375 103.546875 139.625 105.421875 138.90625 C 107.332031 138.191406 109.445313 137.832031 111.886719 137.832031 C 115.101563 137.832031 117.707031 138.578125 119.699219 140.042969 C 121.691406 141.507813 122.667969 143.480469 122.667969 145.898438 C 122.667969 147.929688 122.019531 149.871094 120.714844 151.785156 C 119.453125 153.667969 117.664063 155.132813 115.46875 156.148438 C 113.230469 157.164063 110.75 157.671875 107.941406 157.671875 C 105.5 157.671875 103.46875 157.253906 101.839844 156.445313 C 100.171875 155.640625 98.992188 154.652344 98.300781 153.429688 C 97.609375 152.234375 97.285156 151.039063 97.285156 149.8125 C 97.285156 148.679688 97.527344 147.484375 97.976563 146.226563 Z M 58.261719 115.917969 L 64.769531 115.917969 L 64.769531 87.386719 L 58.261719 87.386719 L 58.261719 81.691406 L 85.027344 81.691406 C 91.261719 81.691406 95.753906 82.714844 98.59375 84.683594 C 101.4375 86.726563 102.902344 89.867188 102.902344 94.246094 C 102.902344 98.550781 101.527344 101.6875 98.6875 103.660156 C 95.84375 105.628906 91.261719 106.578125 84.9375 106.578125 L 75.496094 106.578125 L 75.496094 115.917969 L 83.746094 115.917969 L 83.746094 121.902344 L 58.261719 121.902344 Z M 442.511719 317.03125 C 442.511719 323.15625 437.558594 328.121094 431.445313 328.121094 L 27.054688 328.121094 C 20.941406 328.121094 15.988281 323.15625 15.988281 317.03125 L 15.988281 180.785156 C 15.988281 174.660156 20.941406 169.695313 27.054688 169.695313 L 431.445313 169.695313 C 437.558594 169.695313 442.511719 174.660156 442.511719 180.785156 L 442.511719 317.03125 "/>
<path style=" stroke:none;fill-rule:nonzero;fill:rgb(0%,0%,0%);fill-opacity:1;" d="M 260.867188 57.785156 C 265.449219 57.785156 269.023438 56.472656 271.59375 53.847656 C 274.15625 51.292969 275.441406 47.570313 275.441406 42.828125 C 275.441406 38.082031 274.15625 34.433594 271.59375 31.878906 C 269.117188 29.324219 265.539063 28.011719 260.867188 28.011719 C 256.191406 28.011719 252.617188 29.324219 250.050781 31.878906 C 247.484375 34.507813 246.199219 38.15625 246.199219 42.828125 C 246.199219 47.570313 247.484375 51.292969 250.050781 53.847656 C 252.617188 56.472656 256.191406 57.785156 260.867188 57.785156 "/>
<path style=" stroke:none;fill-rule:nonzero;fill:rgb(0%,0%,0%);fill-opacity:1;" d="M 89.792969 99.132813 C 91.167969 98.039063 91.902344 96.289063 91.902344 93.878906 C 91.902344 91.691406 91.167969 90.011719 89.792969 88.992188 C 88.417969 87.894531 86.21875 87.386719 83.285156 87.386719 L 75.496094 87.386719 L 75.496094 100.886719 L 83.101563 100.886719 C 86.128906 100.886719 88.328125 100.300781 89.792969 99.132813 "/>
<path style=" stroke:none;fill-rule:nonzero;fill:rgb(0%,0%,0%);fill-opacity:1;" d="M 122.570313 88.042969 L 114.871094 103.511719 L 129.996094 103.511719 L 122.570313 88.042969 "/>
<path style=" stroke:none;fill-rule:nonzero;fill:rgb(0%,0%,0%);fill-opacity:1;" d="M 187.199219 97.96875 C 188.574219 96.871094 189.308594 95.339844 189.308594 93.296875 C 189.308594 91.324219 188.574219 89.867188 187.015625 88.917969 C 185.550781 87.894531 183.347656 87.386719 180.507813 87.386719 L 171.796875 87.386719 L 171.796875 99.644531 L 181.058594 99.644531 C 183.714844 99.644531 185.730469 99.0625 187.199219 97.96875 "/>
<path style=" stroke:none;fill-rule:nonzero;fill:rgb(0%,0%,0%);fill-opacity:1;" d="M 102.742188 270.121094 C 99.695313 270.121094 97.269531 271.023438 95.503906 272.792969 C 93.738281 274.597656 92.835938 277.027344 92.835938 280.117188 C 92.835938 283.207031 93.703125 285.636719 95.46875 287.40625 C 97.234375 289.175781 99.660156 290.082031 102.742188 290.082031 C 105.824219 290.082031 108.25 289.175781 110.015625 287.40625 C 111.78125 285.636719 112.683594 283.171875 112.683594 280.117188 C 112.683594 277.027344 111.78125 274.5625 110.015625 272.792969 C 108.25 271.023438 105.824219 270.121094 102.742188 270.121094 Z M 106.828125 285.289063 C 105.859375 286.539063 104.507813 287.164063 102.777344 287.164063 C 101.011719 287.164063 99.660156 286.539063 98.691406 285.289063 C 97.71875 284.074219 97.234375 282.304688 97.234375 280.046875 C 97.234375 277.828125 97.71875 276.089844 98.691406 274.839844 C 99.660156 273.625 101.011719 273 102.777344 273 C 104.542969 273 105.894531 273.625 106.828125 274.839844 C 107.800781 276.054688 108.285156 277.792969 108.285156 280.046875 C 108.285156 282.304688 107.800781 284.074219 106.828125 285.289063 "/>
<path style=" stroke:none;fill-rule:nonzero;fill:rgb(0%,0%,0%);fill-opacity:1;" d="M 133.640625 273.242188 L 136.101563 273.242188 L 133.363281 285.984375 L 129.867188 270.535156 L 124.707031 270.535156 L 121.105469 285.984375 L 118.539063 273.242188 L 120.964844 273.242188 L 120.964844 270.535156 L 113.171875 270.535156 L 113.171875 273.242188 L 114.453125 273.242188 L 118.367188 289.664063 L 123.320313 289.664063 L 127.0625 273.453125 L 130.628906 289.664063 L 135.617188 289.664063 L 139.632813 273.242188 L 140.914063 273.242188 L 140.914063 270.535156 L 133.640625 270.535156 L 133.640625 273.242188 "/>
<path style=" stroke:none;fill-rule:nonzero;fill:rgb(0%,0%,0%);fill-opacity:1;" d="M 155.910156 273.242188 L 158.332031 273.242188 L 158.332031 285.082031 L 150.992188 270.535156 L 142.886719 270.535156 L 142.886719 273.242188 L 145.378906 273.242188 L 145.378906 286.816406 L 142.886719 286.816406 L 142.886719 289.664063 L 151.300781 289.664063 L 151.300781 286.816406 L 148.914063 286.816406 L 148.914063 274.148438 L 156.773438 289.664063 L 161.933594 289.664063 L 161.933594 273.242188 L 164.117188 273.242188 L 164.117188 270.535156 L 155.910156 270.535156 L 155.910156 273.242188 "/>
<path style=" stroke:none;fill-rule:nonzero;fill:rgb(0%,0%,0%);fill-opacity:1;" d="M 165.675781 273.242188 L 168.171875 273.242188 L 168.171875 286.816406 L 165.675781 286.816406 L 165.675781 289.664063 L 182.71875 289.664063 L 182.71875 283.378906 L 179.460938 283.378906 L 179.460938 286.816406 L 172.222656 286.816406 L 172.222656 281.195313 L 174.890625 281.195313 L 174.890625 283.726563 L 177.902344 283.726563 L 177.902344 275.953125 L 174.890625 275.953125 L 174.890625 278.554688 L 172.222656 278.554688 L 172.222656 273.242188 L 179.53125 273.242188 L 179.53125 276.160156 L 182.71875 276.160156 L 182.71875 270.535156 L 165.675781 270.535156 L 165.675781 273.242188 "/>
<path style=" stroke:none;fill-rule:nonzero;fill:rgb(0%,0%,0%);fill-opacity:1;" d="M 200.761719 282.964844 C 200.519531 282.199219 200.140625 281.609375 199.585938 281.195313 C 199.03125 280.777344 198.339844 280.535156 197.4375 280.429688 C 198.960938 280.1875 200.070313 279.734375 200.796875 278.972656 C 201.523438 278.242188 201.871094 277.203125 201.871094 275.882813 C 201.871094 274.078125 201.316406 272.757813 200.207031 271.855469 C 199.101563 270.988281 197.4375 270.535156 195.21875 270.535156 L 184.519531 270.535156 L 184.519531 273.242188 L 187.011719 273.242188 L 187.011719 286.816406 L 184.519531 286.816406 L 184.519531 289.664063 L 194.148438 289.664063 L 194.148438 286.816406 L 191.0625 286.816406 L 191.0625 281.679688 L 193.316406 281.679688 C 194.425781 281.679688 195.21875 281.820313 195.703125 282.132813 C 196.191406 282.40625 196.535156 282.929688 196.742188 283.691406 L 198.511719 289.664063 L 203.742188 289.664063 L 203.742188 286.816406 L 201.90625 286.816406 Z M 194.5625 279.074219 L 191.0625 279.074219 L 191.0625 273.242188 L 194.355469 273.242188 C 195.429688 273.242188 196.257813 273.488281 196.8125 273.972656 C 197.402344 274.425781 197.679688 275.117188 197.679688 276.054688 C 197.679688 277.027344 197.402344 277.757813 196.882813 278.277344 C 196.328125 278.796875 195.566406 279.074219 194.5625 279.074219 "/>
<path style=" stroke:none;fill-rule:nonzero;fill:rgb(0%,0%,0%);fill-opacity:1;" d="M 218.53125 280.394531 C 217.839844 279.734375 216.347656 279.039063 214.097656 278.347656 C 213.613281 278.171875 213.230469 278.070313 212.988281 277.964844 C 211.636719 277.546875 210.773438 277.167969 210.320313 276.785156 C 209.871094 276.402344 209.664063 275.882813 209.664063 275.257813 C 209.664063 274.597656 209.90625 274.042969 210.425781 273.625 C 210.945313 273.210938 211.601563 273 212.433594 273 C 213.472656 273 214.304688 273.3125 214.929688 273.9375 C 215.550781 274.527344 215.898438 275.394531 215.96875 276.472656 L 219.429688 276.472656 L 219.429688 270.535156 L 216.035156 270.535156 L 216.035156 271.992188 C 215.585938 271.402344 214.964844 270.917969 214.164063 270.605469 C 213.371094 270.292969 212.46875 270.121094 211.429688 270.121094 C 209.664063 270.121094 208.210938 270.640625 207.101563 271.679688 C 205.992188 272.722656 205.4375 274.113281 205.4375 275.777344 C 205.4375 276.507813 205.542969 277.203125 205.785156 277.828125 C 206.027344 278.453125 206.371094 278.972656 206.824219 279.457031 C 207.480469 280.082031 208.9375 280.707031 211.1875 281.332031 C 211.257813 281.367188 211.289063 281.367188 211.324219 281.367188 C 211.394531 281.402344 211.535156 281.4375 211.707031 281.507813 C 214.410156 282.234375 215.757813 283.242188 215.757813 284.527344 C 215.757813 285.359375 215.480469 286.019531 214.894531 286.46875 C 214.339844 286.957031 213.542969 287.199219 212.539063 287.199219 C 211.324219 287.199219 210.355469 286.886719 209.734375 286.296875 C 209.074219 285.707031 208.761719 284.804688 208.761719 283.65625 L 208.761719 283.414063 C 208.796875 283.277344 208.796875 283.207031 208.796875 283.136719 L 205.300781 283.136719 L 205.300781 289.734375 L 208.695313 289.734375 L 208.695313 288.03125 C 209.246094 288.761719 209.90625 289.28125 210.632813 289.59375 C 211.394531 289.90625 212.296875 290.082031 213.371094 290.082031 C 215.449219 290.082031 217.039063 289.558594 218.21875 288.484375 C 219.394531 287.441406 219.984375 285.984375 219.984375 284.144531 C 219.984375 283.378906 219.847656 282.6875 219.605469 282.027344 C 219.359375 281.402344 219.015625 280.882813 218.53125 280.394531 "/>
<path style=" stroke:none;fill-rule:nonzero;fill:rgb(0%,0%,0%);fill-opacity:1;" d="M 230.195313 273.242188 L 232.6875 273.242188 L 232.6875 286.816406 L 230.195313 286.816406 L 230.195313 289.664063 L 247.234375 289.664063 L 247.234375 283.378906 L 243.980469 283.378906 L 243.980469 286.816406 L 236.742188 286.816406 L 236.742188 281.195313 L 239.40625 281.195313 L 239.40625 283.726563 L 242.421875 283.726563 L 242.421875 275.953125 L 239.40625 275.953125 L 239.40625 278.554688 L 236.742188 278.554688 L 236.742188 273.242188 L 244.050781 273.242188 L 244.050781 276.160156 L 247.234375 276.160156 L 247.234375 270.535156 L 230.195313 270.535156 L 230.195313 273.242188 "/>
<path style=" stroke:none;fill-rule:nonzero;fill:rgb(0%,0%,0%);fill-opacity:1;" d="M 260.949219 279.910156 L 267.046875 273.277344 L 268.222656 273.277344 L 268.222656 270.535156 L 260.1875 270.535156 L 260.1875 273.277344 L 262.300781 273.277344 L 258.664063 277.515625 L 255.027344 273.277344 L 257.523438 273.277344 L 257.523438 270.535156 L 249.003906 270.535156 L 249.003906 273.277344 L 250.179688 273.277344 L 255.964844 279.804688 L 249.902344 286.816406 L 248.757813 286.816406 L 248.757813 289.664063 L 256.621094 289.664063 L 256.621094 286.816406 L 254.472656 286.816406 L 258.320313 282.234375 L 262.265625 286.816406 L 260.121094 286.816406 L 260.121094 289.664063 L 268.363281 289.664063 L 268.363281 286.816406 L 266.90625 286.816406 L 260.949219 279.910156 "/>
<path style=" stroke:none;fill-rule:nonzero;fill:rgb(0%,0%,0%);fill-opacity:1;" d="M 279.550781 270.535156 L 269.4375 270.535156 L 269.4375 273.242188 L 271.894531 273.242188 L 271.894531 286.816406 L 269.4375 286.816406 L 269.4375 289.664063 L 279.066406 289.664063 L 279.066406 286.816406 L 275.949219 286.816406 L 275.949219 282.375 L 279.515625 282.375 C 281.90625 282.375 283.636719 281.921875 284.710938 280.984375 C 285.785156 280.046875 286.304688 278.554688 286.304688 276.507813 C 286.304688 274.425781 285.75 272.929688 284.675781 271.960938 C 283.601563 271.023438 281.90625 270.535156 279.550781 270.535156 Z M 281.351563 278.832031 C 280.796875 279.386719 279.964844 279.664063 278.824219 279.664063 L 275.949219 279.664063 L 275.949219 273.242188 L 278.890625 273.242188 C 280 273.242188 280.832031 273.488281 281.351563 274.007813 C 281.871094 274.492188 282.148438 275.292969 282.148438 276.332031 C 282.148438 277.480469 281.871094 278.3125 281.351563 278.832031 "/>
<path style=" stroke:none;fill-rule:nonzero;fill:rgb(0%,0%,0%);fill-opacity:1;" d="M 286.914063 273.242188 L 289.40625 273.242188 L 289.40625 286.816406 L 286.914063 286.816406 L 286.914063 289.664063 L 303.953125 289.664063 L 303.953125 283.378906 L 300.699219 283.378906 L 300.699219 286.816406 L 293.460938 286.816406 L 293.460938 281.195313 L 296.125 281.195313 L 296.125 283.726563 L 299.140625 283.726563 L 299.140625 275.953125 L 296.125 275.953125 L 296.125 278.554688 L 293.460938 278.554688 L 293.460938 273.242188 L 300.769531 273.242188 L 300.769531 276.160156 L 303.953125 276.160156 L 303.953125 270.535156 L 286.914063 270.535156 L 286.914063 273.242188 "/>
<path style=" stroke:none;fill-rule:nonzero;fill:rgb(0%,0%,0%);fill-opacity:1;" d="M 319.527344 273.242188 L 321.953125 273.242188 L 321.953125 285.082031 L 314.609375 270.535156 L 306.503906 270.535156 L 306.503906 273.242188 L 309 273.242188 L 309 286.816406 L 306.503906 286.816406 L 306.503906 289.664063 L 314.921875 289.664063 L 314.921875 286.816406 L 312.53125 286.816406 L 312.53125 274.148438 L 320.394531 289.664063 L 325.554688 289.664063 L 325.554688 273.242188 L 327.738281 273.242188 L 327.738281 270.535156 L 319.527344 270.535156 L 319.527344 273.242188 "/>
<path style=" stroke:none;fill-rule:nonzero;fill:rgb(0%,0%,0%);fill-opacity:1;" d="M 342.90625 280.394531 C 342.214844 279.734375 340.726563 279.039063 338.472656 278.347656 C 337.988281 278.171875 337.609375 278.070313 337.367188 277.964844 C 336.015625 277.546875 335.148438 277.167969 334.699219 276.785156 C 334.246094 276.402344 334.039063 275.882813 334.039063 275.257813 C 334.039063 274.597656 334.28125 274.042969 334.804688 273.625 C 335.320313 273.210938 335.980469 273 336.8125 273 C 337.851563 273 338.683594 273.3125 339.304688 273.9375 C 339.929688 274.527344 340.273438 275.394531 340.34375 276.472656 L 343.808594 276.472656 L 343.808594 270.535156 L 340.414063 270.535156 L 340.414063 271.992188 C 339.964844 271.402344 339.339844 270.917969 338.542969 270.605469 C 337.746094 270.292969 336.847656 270.121094 335.808594 270.121094 C 334.039063 270.121094 332.585938 270.640625 331.476563 271.679688 C 330.367188 272.722656 329.816406 274.113281 329.816406 275.777344 C 329.816406 276.507813 329.917969 277.203125 330.160156 277.828125 C 330.402344 278.453125 330.75 278.972656 331.199219 279.457031 C 331.859375 280.082031 333.3125 280.707031 335.5625 281.332031 C 335.632813 281.367188 335.667969 281.367188 335.703125 281.367188 C 335.773438 281.402344 335.910156 281.4375 336.085938 281.507813 C 338.785156 282.234375 340.136719 283.242188 340.136719 284.527344 C 340.136719 285.359375 339.859375 286.019531 339.269531 286.46875 C 338.714844 286.957031 337.921875 287.199219 336.914063 287.199219 C 335.703125 287.199219 334.734375 286.886719 334.109375 286.296875 C 333.453125 285.707031 333.140625 284.804688 333.140625 283.65625 L 333.140625 283.414063 C 333.175781 283.277344 333.175781 283.207031 333.175781 283.136719 L 329.675781 283.136719 L 329.675781 289.734375 L 333.070313 289.734375 L 333.070313 288.03125 C 333.625 288.761719 334.28125 289.28125 335.011719 289.59375 C 335.773438 289.90625 336.671875 290.082031 337.746094 290.082031 C 339.824219 290.082031 341.417969 289.558594 342.59375 288.484375 C 343.773438 287.441406 344.363281 285.984375 344.363281 284.144531 C 344.363281 283.378906 344.222656 282.6875 343.980469 282.027344 C 343.738281 281.402344 343.390625 280.882813 342.90625 280.394531 "/>
<path style=" stroke:none;fill-rule:nonzero;fill:rgb(0%,0%,0%);fill-opacity:1;" d="M 345.953125 273.242188 L 348.449219 273.242188 L 348.449219 286.816406 L 345.953125 286.816406 L 345.953125 289.664063 L 362.996094 289.664063 L 362.996094 283.378906 L 359.738281 283.378906 L 359.738281 286.816406 L 352.503906 286.816406 L 352.503906 281.195313 L 355.167969 281.195313 L 355.167969 283.726563 L 358.183594 283.726563 L 358.183594 275.953125 L 355.167969 275.953125 L 355.167969 278.554688 L 352.503906 278.554688 L 352.503906 273.242188 L 359.808594 273.242188 L 359.808594 276.160156 L 362.996094 276.160156 L 362.996094 270.535156 L 345.953125 270.535156 L 345.953125 273.242188 "/>
<path style=" stroke:none;fill-rule:nonzero;fill:rgb(0%,0%,0%);fill-opacity:1;" d="M 60.9375 238.527344 L 63.398438 238.527344 L 60.660156 251.269531 L 57.160156 235.820313 L 52 235.820313 L 48.398438 251.269531 L 45.835938 238.527344 L 48.261719 238.527344 L 48.261719 235.820313 L 40.46875 235.820313 L 40.46875 238.527344 L 41.75 238.527344 L 45.664063 254.949219 L 50.617188 254.949219 L 54.355469 238.738281 L 57.925781 254.949219 L 62.910156 254.949219 L 66.929688 238.527344 L 68.210938 238.527344 L 68.210938 235.820313 L 60.9375 235.820313 L 60.9375 238.527344 "/>
<path style=" stroke:none;fill-rule:nonzero;fill:rgb(0%,0%,0%);fill-opacity:1;" d="M 69.179688 238.527344 L 71.640625 238.527344 L 71.640625 252.101563 L 69.179688 252.101563 L 69.179688 254.949219 L 78.1875 254.949219 L 78.1875 252.101563 L 75.691406 252.101563 L 75.691406 238.527344 L 78.1875 238.527344 L 78.1875 235.820313 L 69.179688 235.820313 L 69.179688 238.527344 "/>
<path style=" stroke:none;fill-rule:nonzero;fill:rgb(0%,0%,0%);fill-opacity:1;" d="M 95.226563 248.144531 L 91.867188 248.144531 L 91.867188 252.101563 L 85.839844 252.101563 L 85.839844 238.527344 L 88.542969 238.527344 L 88.542969 235.820313 L 79.328125 235.820313 L 79.328125 238.527344 L 81.789063 238.527344 L 81.789063 252.101563 L 79.328125 252.101563 L 79.328125 254.949219 L 95.226563 254.949219 L 95.226563 248.144531 "/>
<path style=" stroke:none;fill-rule:nonzero;fill:rgb(0%,0%,0%);fill-opacity:1;" d="M 109.394531 252.101563 L 103.367188 252.101563 L 103.367188 238.527344 L 106.066406 238.527344 L 106.066406 235.820313 L 96.855469 235.820313 L 96.855469 238.527344 L 99.3125 238.527344 L 99.3125 252.101563 L 96.855469 252.101563 L 96.855469 254.949219 L 112.753906 254.949219 L 112.753906 248.144531 L 109.394531 248.144531 L 109.394531 252.101563 "/>
<path style=" stroke:none;fill-rule:nonzero;fill:rgb(0%,0%,0%);fill-opacity:1;" d="M 132.460938 235.820313 L 122.3125 235.820313 L 122.3125 238.527344 L 124.804688 238.527344 L 124.804688 252.101563 L 122.3125 252.101563 L 122.3125 254.949219 L 132.460938 254.949219 C 134.851563 254.949219 136.582031 254.496094 137.691406 253.628906 C 138.796875 252.726563 139.351563 251.339844 139.351563 249.464844 C 139.351563 248.144531 138.972656 247.136719 138.246094 246.339844 C 137.515625 245.578125 136.441406 245.054688 135.023438 244.8125 C 136.304688 244.605469 137.238281 244.117188 137.828125 243.425781 C 138.453125 242.695313 138.765625 241.722656 138.765625 240.472656 C 138.765625 238.839844 138.277344 237.625 137.273438 236.898438 C 136.304688 236.167969 134.710938 235.820313 132.460938 235.820313 Z M 128.859375 238.492188 L 131.492188 238.492188 C 132.5625 238.492188 133.324219 238.703125 133.847656 239.117188 C 134.363281 239.535156 134.640625 240.160156 134.640625 241.027344 C 134.640625 241.929688 134.398438 242.589844 133.878906 243.078125 C 133.394531 243.527344 132.632813 243.769531 131.664063 243.769531 L 128.859375 243.769531 Z M 135.195313 249.1875 C 135.195313 250.15625 134.921875 250.886719 134.328125 251.375 C 133.742188 251.859375 132.839844 252.101563 131.664063 252.101563 L 128.859375 252.101563 L 128.859375 246.410156 L 131.492188 246.410156 C 132.839844 246.410156 133.777344 246.617188 134.363281 247.035156 C 134.921875 247.484375 135.195313 248.179688 135.195313 249.1875 "/>
<path style=" stroke:none;fill-rule:nonzero;fill:rgb(0%,0%,0%);fill-opacity:1;" d="M 158.332031 248.664063 L 155.078125 248.664063 L 155.078125 252.101563 L 147.839844 252.101563 L 147.839844 246.476563 L 150.503906 246.476563 L 150.503906 249.011719 L 153.519531 249.011719 L 153.519531 241.238281 L 150.503906 241.238281 L 150.503906 243.839844 L 147.839844 243.839844 L 147.839844 238.527344 L 155.148438 238.527344 L 155.148438 241.445313 L 158.332031 241.445313 L 158.332031 235.820313 L 141.292969 235.820313 L 141.292969 238.527344 L 143.785156 238.527344 L 143.785156 252.101563 L 141.292969 252.101563 L 141.292969 254.949219 L 158.332031 254.949219 L 158.332031 248.664063 "/>
<path style=" stroke:none;fill-rule:nonzero;fill:rgb(0%,0%,0%);fill-opacity:1;" d="M 185.175781 242.347656 L 185.175781 235.820313 L 168.101563 235.820313 L 168.101563 242.347656 L 171.496094 242.347656 L 171.496094 238.527344 L 174.613281 238.527344 L 174.613281 252.101563 L 171.875 252.101563 L 171.875 254.949219 L 181.367188 254.949219 L 181.367188 252.101563 L 178.664063 252.101563 L 178.664063 238.527344 L 181.746094 238.527344 L 181.746094 242.347656 L 185.175781 242.347656 "/>
<path style=" stroke:none;fill-rule:nonzero;fill:rgb(0%,0%,0%);fill-opacity:1;" d="M 204.191406 238.078125 C 202.425781 236.308594 200 235.40625 196.917969 235.40625 C 193.871094 235.40625 191.445313 236.308594 189.679688 238.078125 C 187.914063 239.882813 187.011719 242.3125 187.011719 245.402344 C 187.011719 248.492188 187.878906 250.921875 189.644531 252.691406 C 191.410156 254.464844 193.835938 255.367188 196.917969 255.367188 C 200 255.367188 202.425781 254.464844 204.191406 252.691406 C 205.957031 250.921875 206.859375 248.457031 206.859375 245.402344 C 206.859375 242.3125 205.957031 239.847656 204.191406 238.078125 Z M 201.003906 250.574219 C 200.035156 251.824219 198.683594 252.449219 196.953125 252.449219 C 195.1875 252.449219 193.835938 251.824219 192.863281 250.574219 C 191.894531 249.359375 191.410156 247.589844 191.410156 245.332031 C 191.410156 243.109375 191.894531 241.375 192.863281 240.125 C 193.835938 238.910156 195.1875 238.285156 196.953125 238.285156 C 198.71875 238.285156 200.070313 238.910156 201.003906 240.125 C 201.972656 241.339844 202.460938 243.078125 202.460938 245.332031 C 202.460938 247.589844 201.972656 249.359375 201.003906 250.574219 "/>
<path style=" stroke:none;fill-rule:nonzero;fill:rgb(0%,0%,0%);fill-opacity:1;" d="M 234.808594 238.527344 L 236.089844 238.527344 L 236.089844 235.820313 L 228.816406 235.820313 L 228.816406 238.527344 L 231.277344 238.527344 L 228.539063 251.269531 L 225.042969 235.820313 L 219.882813 235.820313 L 216.277344 251.269531 L 213.714844 238.527344 L 216.140625 238.527344 L 216.140625 235.820313 L 208.347656 235.820313 L 208.347656 238.527344 L 209.628906 238.527344 L 213.542969 254.949219 L 218.496094 254.949219 L 222.234375 238.738281 L 225.804688 254.949219 L 230.789063 254.949219 L 234.808594 238.527344 "/>
<path style=" stroke:none;fill-rule:nonzero;fill:rgb(0%,0%,0%);fill-opacity:1;" d="M 255.152344 241.445313 L 255.152344 235.820313 L 238.109375 235.820313 L 238.109375 238.527344 L 240.605469 238.527344 L 240.605469 252.101563 L 238.109375 252.101563 L 238.109375 254.949219 L 255.152344 254.949219 L 255.152344 248.664063 L 251.894531 248.664063 L 251.894531 252.101563 L 244.65625 252.101563 L 244.65625 246.476563 L 247.324219 246.476563 L 247.324219 249.011719 L 250.335938 249.011719 L 250.335938 241.238281 L 247.324219 241.238281 L 247.324219 243.839844 L 244.65625 243.839844 L 244.65625 238.527344 L 251.964844 238.527344 L 251.964844 241.445313 L 255.152344 241.445313 "/>
<path style=" stroke:none;fill-rule:nonzero;fill:rgb(0%,0%,0%);fill-opacity:1;" d="M 266.617188 235.820313 L 256.953125 235.820313 L 256.953125 238.527344 L 259.445313 238.527344 L 259.445313 252.101563 L 256.953125 252.101563 L 256.953125 254.949219 L 266.925781 254.949219 C 270.21875 254.949219 272.710938 254.152344 274.375 252.519531 C 276.035156 250.921875 276.867188 248.492188 276.867188 245.265625 C 276.867188 243.527344 276.554688 241.964844 275.96875 240.578125 C 275.378906 239.222656 274.511719 238.148438 273.371094 237.347656 C 272.640625 236.792969 271.777344 236.410156 270.738281 236.167969 C 269.734375 235.925781 268.347656 235.820313 266.617188 235.820313 Z M 272.675781 245.195313 C 272.675781 247.382813 272.121094 249.082031 271.015625 250.296875 C 269.90625 251.511719 268.347656 252.101563 266.371094 252.101563 L 263.496094 252.101563 L 263.496094 238.527344 L 266.476563 238.527344 C 268.484375 238.527344 270.011719 239.117188 271.085938 240.265625 C 272.15625 241.410156 272.675781 243.042969 272.675781 245.195313 "/>
<path style=" stroke:none;fill-rule:nonzero;fill:rgb(0%,0%,0%);fill-opacity:1;" d="M 297.742188 235.683594 L 292.859375 235.683594 L 286.070313 252.101563 L 284.582031 252.101563 L 284.582031 254.949219 L 292.269531 254.949219 L 292.269531 252.101563 L 289.949219 252.101563 L 291.128906 249.011719 L 298.988281 249.011719 L 300.132813 252.101563 L 297.8125 252.101563 L 297.8125 254.949219 L 305.882813 254.949219 L 305.882813 252.101563 L 304.394531 252.101563 Z M 292.167969 246.199219 L 295.078125 238.839844 L 297.882813 246.199219 L 292.167969 246.199219 "/>
<path style=" stroke:none;fill-rule:nonzero;fill:rgb(0%,0%,0%);fill-opacity:1;" d="M 315.273438 254.949219 L 319.011719 238.738281 L 322.578125 254.949219 L 327.566406 254.949219 L 331.585938 238.527344 L 332.867188 238.527344 L 332.867188 235.820313 L 325.59375 235.820313 L 325.59375 238.527344 L 328.054688 238.527344 L 325.316406 251.269531 L 321.816406 235.820313 L 316.65625 235.820313 L 313.054688 251.269531 L 310.492188 238.527344 L 312.917969 238.527344 L 312.917969 235.820313 L 305.125 235.820313 L 305.125 238.527344 L 306.40625 238.527344 L 310.320313 254.949219 L 315.273438 254.949219 "/>
<path style=" stroke:none;fill-rule:nonzero;fill:rgb(0%,0%,0%);fill-opacity:1;" d="M 345.199219 254.949219 L 353.269531 254.949219 L 353.269531 252.101563 L 351.78125 252.101563 L 345.132813 235.683594 L 340.246094 235.683594 L 333.460938 252.101563 L 331.96875 252.101563 L 331.96875 254.949219 L 339.660156 254.949219 L 339.660156 252.101563 L 337.339844 252.101563 L 338.515625 249.011719 L 346.378906 249.011719 L 347.519531 252.101563 L 345.199219 252.101563 Z M 339.554688 246.199219 L 342.464844 238.839844 L 345.269531 246.199219 L 339.554688 246.199219 "/>
<path style=" stroke:none;fill-rule:nonzero;fill:rgb(0%,0%,0%);fill-opacity:1;" d="M 363.285156 238.527344 L 365.742188 238.527344 L 361.863281 244.671875 L 358.089844 238.527344 L 360.515625 238.527344 L 360.515625 235.820313 L 351.820313 235.820313 L 351.820313 238.527344 L 353.273438 238.527344 L 359.648438 247.9375 L 359.648438 252.101563 L 357.1875 252.101563 L 357.1875 254.949219 L 366.160156 254.949219 L 366.160156 252.101563 L 363.699219 252.101563 L 363.699219 247.9375 L 370.039063 238.527344 L 371.492188 238.527344 L 371.492188 235.820313 L 363.285156 235.820313 L 363.285156 238.527344 "/>
<path style=" stroke:none;fill-rule:nonzero;fill:rgb(0%,0%,0%);fill-opacity:1;" d="M 390.929688 235.683594 L 386.046875 235.683594 L 379.257813 252.101563 L 377.769531 252.101563 L 377.769531 254.949219 L 385.457031 254.949219 L 385.457031 252.101563 L 383.136719 252.101563 L 384.3125 249.011719 L 392.175781 249.011719 L 393.320313 252.101563 L 390.996094 252.101563 L 390.996094 254.949219 L 399.066406 254.949219 L 399.066406 252.101563 L 397.578125 252.101563 Z M 385.351563 246.199219 L 388.261719 238.839844 L 391.066406 246.199219 L 385.351563 246.199219 "/>
<path style=" stroke:none;fill-rule:nonzero;fill:rgb(0%,0%,0%);fill-opacity:1;" d="M 398.308594 242.347656 L 401.703125 242.347656 L 401.703125 238.527344 L 404.820313 238.527344 L 404.820313 252.101563 L 402.085938 252.101563 L 402.085938 254.949219 L 411.574219 254.949219 L 411.574219 252.101563 L 408.875 252.101563 L 408.875 238.527344 L 411.957031 238.527344 L 411.957031 242.347656 L 415.386719 242.347656 L 415.386719 235.820313 L 398.308594 235.820313 L 398.308594 242.347656 "/>
<path style=" stroke:none;fill-rule:nonzero;fill:rgb(0%,0%,0%);fill-opacity:1;" d="M 48.28125 218.8125 C 49.597656 217.597656 50.253906 215.757813 50.253906 213.222656 L 50.253906 203.847656 L 52.714844 203.847656 L 52.714844 201.105469 L 43.707031 201.105469 L 43.707031 203.847656 L 46.203125 203.847656 L 46.203125 213.324219 C 46.203125 214.855469 45.890625 216 45.230469 216.691406 C 44.574219 217.421875 43.570313 217.769531 42.183594 217.769531 C 40.796875 217.769531 39.792969 217.421875 39.136719 216.691406 C 38.476563 216 38.167969 214.855469 38.167969 213.324219 L 38.167969 203.847656 L 40.625 203.847656 L 40.625 201.105469 L 31.621094 201.105469 L 31.621094 203.847656 L 34.113281 203.847656 L 34.113281 213.222656 C 34.113281 215.757813 34.773438 217.597656 36.089844 218.8125 C 37.40625 220.027344 39.449219 220.652344 42.183594 220.652344 C 44.921875 220.652344 46.964844 220.027344 48.28125 218.8125 "/>
<path style=" stroke:none;fill-rule:nonzero;fill:rgb(0%,0%,0%);fill-opacity:1;" d="M 73.578125 203.8125 L 75.761719 203.8125 L 75.761719 201.105469 L 67.550781 201.105469 L 67.550781 203.8125 L 69.976563 203.8125 L 69.976563 215.652344 L 62.636719 201.105469 L 54.53125 201.105469 L 54.53125 203.8125 L 57.023438 203.8125 L 57.023438 217.386719 L 54.53125 217.386719 L 54.53125 220.234375 L 62.945313 220.234375 L 62.945313 217.386719 L 60.554688 217.386719 L 60.554688 204.71875 L 68.417969 220.234375 L 73.578125 220.234375 L 73.578125 203.8125 "/>
<path style=" stroke:none;fill-rule:nonzero;fill:rgb(0%,0%,0%);fill-opacity:1;" d="M 84.59375 217.386719 L 82.273438 217.386719 L 83.449219 214.296875 L 91.3125 214.296875 L 92.457031 217.386719 L 90.136719 217.386719 L 90.136719 220.234375 L 98.207031 220.234375 L 98.207031 217.386719 L 96.714844 217.386719 L 90.066406 200.96875 L 85.183594 200.96875 L 78.394531 217.386719 L 76.90625 217.386719 L 76.90625 220.234375 L 84.59375 220.234375 Z M 87.398438 204.128906 L 90.203125 211.484375 L 84.488281 211.484375 L 87.398438 204.128906 "/>
<path style=" stroke:none;fill-rule:nonzero;fill:rgb(0%,0%,0%);fill-opacity:1;" d="M 100.492188 213.222656 C 100.492188 215.757813 101.152344 217.597656 102.46875 218.8125 C 103.785156 220.027344 105.828125 220.652344 108.5625 220.652344 C 111.300781 220.652344 113.34375 220.027344 114.660156 218.8125 C 115.976563 217.597656 116.632813 215.757813 116.632813 213.222656 L 116.632813 203.847656 L 119.09375 203.847656 L 119.09375 201.105469 L 110.089844 201.105469 L 110.089844 203.847656 L 112.582031 203.847656 L 112.582031 213.324219 C 112.582031 214.855469 112.269531 216 111.613281 216.691406 C 110.953125 217.421875 109.949219 217.769531 108.5625 217.769531 C 107.179688 217.769531 106.175781 217.421875 105.515625 216.691406 C 104.859375 216 104.546875 214.855469 104.546875 213.324219 L 104.546875 203.847656 L 107.003906 203.847656 L 107.003906 201.105469 L 98 201.105469 L 98 203.847656 L 100.492188 203.847656 L 100.492188 213.222656 "/>
<path style=" stroke:none;fill-rule:nonzero;fill:rgb(0%,0%,0%);fill-opacity:1;" d="M 124.203125 203.8125 L 127.320313 203.8125 L 127.320313 217.386719 L 124.585938 217.386719 L 124.585938 220.234375 L 134.074219 220.234375 L 134.074219 217.386719 L 131.371094 217.386719 L 131.371094 203.8125 L 134.457031 203.8125 L 134.457031 207.632813 L 137.886719 207.632813 L 137.886719 201.105469 L 120.808594 201.105469 L 120.808594 207.632813 L 124.203125 207.632813 L 124.203125 203.8125 "/>
<path style=" stroke:none;fill-rule:nonzero;fill:rgb(0%,0%,0%);fill-opacity:1;" d="M 149 217.386719 L 146.296875 217.386719 L 146.296875 211.832031 L 154.4375 211.832031 L 154.4375 217.386719 L 151.734375 217.386719 L 151.734375 220.234375 L 160.949219 220.234375 L 160.949219 217.386719 L 158.488281 217.386719 L 158.488281 203.8125 L 160.949219 203.8125 L 160.949219 201.105469 L 151.734375 201.105469 L 151.734375 203.8125 L 154.4375 203.8125 L 154.4375 208.988281 L 146.296875 208.988281 L 146.296875 203.8125 L 149 203.8125 L 149 201.105469 L 139.785156 201.105469 L 139.785156 203.8125 L 142.246094 203.8125 L 142.246094 217.386719 L 139.785156 217.386719 L 139.785156 220.234375 L 149 220.234375 L 149 217.386719 "/>
<path style=" stroke:none;fill-rule:nonzero;fill:rgb(0%,0%,0%);fill-opacity:1;" d="M 178.980469 217.976563 C 180.746094 216.207031 181.644531 213.742188 181.644531 210.6875 C 181.644531 207.597656 180.746094 205.132813 178.980469 203.363281 C 177.210938 201.59375 174.789063 200.691406 171.703125 200.691406 C 168.65625 200.691406 166.234375 201.59375 164.464844 203.363281 C 162.699219 205.167969 161.800781 207.597656 161.800781 210.6875 C 161.800781 213.777344 162.664063 216.207031 164.433594 217.976563 C 166.199219 219.746094 168.621094 220.652344 171.703125 220.652344 C 174.789063 220.652344 177.210938 219.746094 178.980469 217.976563 Z M 167.652344 215.859375 C 166.683594 214.644531 166.199219 212.875 166.199219 210.617188 C 166.199219 208.394531 166.683594 206.660156 167.652344 205.410156 C 168.621094 204.195313 169.972656 203.570313 171.738281 203.570313 C 173.507813 203.570313 174.855469 204.195313 175.792969 205.410156 C 176.761719 206.625 177.246094 208.363281 177.246094 210.617188 C 177.246094 212.875 176.761719 214.644531 175.792969 215.859375 C 174.820313 217.109375 173.472656 217.734375 171.738281 217.734375 C 169.972656 217.734375 168.621094 217.109375 167.652344 215.859375 "/>
<path style=" stroke:none;fill-rule:nonzero;fill:rgb(0%,0%,0%);fill-opacity:1;" d="M 193.039063 217.386719 L 189.957031 217.386719 L 189.957031 212.25 L 192.210938 212.25 C 193.316406 212.25 194.113281 212.390625 194.597656 212.699219 C 195.085938 212.980469 195.429688 213.5 195.636719 214.261719 L 197.40625 220.234375 L 202.636719 220.234375 L 202.636719 217.386719 L 200.800781 217.386719 L 199.65625 213.535156 C 199.414063 212.769531 199.03125 212.179688 198.480469 211.765625 C 197.925781 211.347656 197.230469 211.105469 196.332031 211 C 197.855469 210.757813 198.964844 210.304688 199.691406 209.542969 C 200.417969 208.8125 200.765625 207.769531 200.765625 206.453125 C 200.765625 204.648438 200.210938 203.328125 199.101563 202.425781 C 197.992188 201.558594 196.332031 201.105469 194.113281 201.105469 L 183.410156 201.105469 L 183.410156 203.8125 L 185.90625 203.8125 L 185.90625 217.386719 L 183.410156 217.386719 L 183.410156 220.234375 L 193.039063 220.234375 Z M 189.957031 203.8125 L 193.246094 203.8125 C 194.320313 203.8125 195.152344 204.058594 195.707031 204.542969 C 196.296875 204.996094 196.574219 205.6875 196.574219 206.625 C 196.574219 207.597656 196.296875 208.328125 195.777344 208.847656 C 195.222656 209.367188 194.460938 209.644531 193.457031 209.644531 L 189.957031 209.644531 L 189.957031 203.8125 "/>
<path style=" stroke:none;fill-rule:nonzero;fill:rgb(0%,0%,0%);fill-opacity:1;" d="M 213.367188 217.386719 L 210.875 217.386719 L 210.875 203.8125 L 213.367188 203.8125 L 213.367188 201.105469 L 204.363281 201.105469 L 204.363281 203.8125 L 206.820313 203.8125 L 206.820313 217.386719 L 204.363281 217.386719 L 204.363281 220.234375 L 213.367188 220.234375 L 213.367188 217.386719 "/>
<path style=" stroke:none;fill-rule:nonzero;fill:rgb(0%,0%,0%);fill-opacity:1;" d="M 231.5 213.570313 L 228.210938 213.570313 L 228.210938 217.386719 L 219.621094 217.386719 L 231.257813 204.507813 L 231.257813 201.105469 L 215.152344 201.105469 L 215.152344 207.285156 L 218.476563 207.285156 L 218.476563 203.847656 L 226.515625 203.847656 L 214.875 216.519531 L 214.875 220.234375 L 231.5 220.234375 L 231.5 213.570313 "/>
<path style=" stroke:none;fill-rule:nonzero;fill:rgb(0%,0%,0%);fill-opacity:1;" d="M 250.121094 213.949219 L 246.867188 213.949219 L 246.867188 217.386719 L 239.628906 217.386719 L 239.628906 211.765625 L 242.296875 211.765625 L 242.296875 214.296875 L 245.308594 214.296875 L 245.308594 206.523438 L 242.296875 206.523438 L 242.296875 209.125 L 239.628906 209.125 L 239.628906 203.8125 L 246.9375 203.8125 L 246.9375 206.730469 L 250.121094 206.730469 L 250.121094 201.105469 L 233.082031 201.105469 L 233.082031 203.8125 L 235.578125 203.8125 L 235.578125 217.386719 L 233.082031 217.386719 L 233.082031 220.234375 L 250.121094 220.234375 L 250.121094 213.949219 "/>
<path style=" stroke:none;fill-rule:nonzero;fill:rgb(0%,0%,0%);fill-opacity:1;" d="M 269.347656 217.804688 C 271.007813 216.207031 271.839844 213.777344 271.839844 210.550781 C 271.839844 208.8125 271.527344 207.25 270.9375 205.863281 C 270.351563 204.507813 269.484375 203.433594 268.34375 202.632813 C 267.613281 202.078125 266.746094 201.695313 265.710938 201.453125 C 264.703125 201.210938 263.320313 201.105469 261.589844 201.105469 L 251.925781 201.105469 L 251.925781 203.8125 L 254.417969 203.8125 L 254.417969 217.386719 L 251.925781 217.386719 L 251.925781 220.234375 L 261.898438 220.234375 C 265.191406 220.234375 267.683594 219.4375 269.347656 217.804688 Z M 258.472656 217.386719 L 258.472656 203.8125 L 261.449219 203.8125 C 263.457031 203.8125 264.980469 204.402344 266.054688 205.550781 C 267.128906 206.695313 267.648438 208.328125 267.648438 210.480469 C 267.648438 212.664063 267.09375 214.367188 265.984375 215.582031 C 264.878906 216.796875 263.320313 217.386719 261.34375 217.386719 L 258.472656 217.386719 "/>
<path style=" stroke:none;fill-rule:nonzero;fill:rgb(0%,0%,0%);fill-opacity:1;" d="M 287.664063 220.234375 L 292.304688 220.234375 L 298.988281 203.847656 L 300.546875 203.847656 L 300.546875 201.105469 L 292.339844 201.105469 L 292.339844 203.847656 L 295.003906 203.847656 L 290.15625 216.554688 L 285.273438 203.847656 L 287.972656 203.847656 L 287.972656 201.105469 L 279.453125 201.105469 L 279.453125 203.847656 L 281.011719 203.847656 L 287.664063 220.234375 "/>
<path style=" stroke:none;fill-rule:nonzero;fill:rgb(0%,0%,0%);fill-opacity:1;" d="M 319.019531 213.949219 L 315.765625 213.949219 L 315.765625 217.386719 L 308.523438 217.386719 L 308.523438 211.765625 L 311.191406 211.765625 L 311.191406 214.296875 L 314.203125 214.296875 L 314.203125 206.523438 L 311.191406 206.523438 L 311.191406 209.125 L 308.523438 209.125 L 308.523438 203.8125 L 315.832031 203.8125 L 315.832031 206.730469 L 319.019531 206.730469 L 319.019531 201.105469 L 301.980469 201.105469 L 301.980469 203.8125 L 304.472656 203.8125 L 304.472656 217.386719 L 301.980469 217.386719 L 301.980469 220.234375 L 319.019531 220.234375 L 319.019531 213.949219 "/>
<path style=" stroke:none;fill-rule:nonzero;fill:rgb(0%,0%,0%);fill-opacity:1;" d="M 330.066406 217.386719 L 327.367188 217.386719 L 327.367188 211.832031 L 335.507813 211.832031 L 335.507813 217.386719 L 332.804688 217.386719 L 332.804688 220.234375 L 342.015625 220.234375 L 342.015625 217.386719 L 339.558594 217.386719 L 339.558594 203.8125 L 342.015625 203.8125 L 342.015625 201.105469 L 332.804688 201.105469 L 332.804688 203.8125 L 335.507813 203.8125 L 335.507813 208.988281 L 327.367188 208.988281 L 327.367188 203.8125 L 330.066406 203.8125 L 330.066406 201.105469 L 320.855469 201.105469 L 320.855469 203.8125 L 323.3125 203.8125 L 323.3125 217.386719 L 320.855469 217.386719 L 320.855469 220.234375 L 330.066406 220.234375 L 330.066406 217.386719 "/>
<path style=" stroke:none;fill-rule:nonzero;fill:rgb(0%,0%,0%);fill-opacity:1;" d="M 352.304688 217.386719 L 349.8125 217.386719 L 349.8125 203.8125 L 352.304688 203.8125 L 352.304688 201.105469 L 343.300781 201.105469 L 343.300781 203.8125 L 345.757813 203.8125 L 345.757813 217.386719 L 343.300781 217.386719 L 343.300781 220.234375 L 352.304688 220.234375 L 352.304688 217.386719 "/>
<path style=" stroke:none;fill-rule:nonzero;fill:rgb(0%,0%,0%);fill-opacity:1;" d="M 362.585938 220.652344 C 365.113281 220.652344 367.050781 220.0625 368.402344 218.914063 C 369.753906 217.769531 370.585938 216.035156 370.828125 213.671875 L 366.808594 213.671875 C 366.53125 215.0625 366.046875 216.101563 365.320313 216.796875 C 364.628906 217.457031 363.65625 217.804688 362.445313 217.804688 C 360.816406 217.804688 359.503906 217.179688 358.566406 215.894531 C 357.632813 214.644531 357.144531 212.910156 357.144531 210.722656 C 357.144531 208.535156 357.632813 206.765625 358.601563 205.480469 C 359.570313 204.160156 360.851563 203.503906 362.445313 203.503906 C 363.726563 203.503906 364.765625 203.882813 365.492188 204.648438 C 366.253906 205.410156 366.773438 206.589844 367.050781 208.1875 L 370.652344 208.1875 L 370.652344 201.246094 L 367.261719 201.246094 L 367.261719 203.363281 C 366.703125 202.496094 365.945313 201.835938 365.007813 201.382813 C 364.074219 200.933594 362.929688 200.726563 361.613281 200.726563 C 358.945313 200.726563 356.800781 201.59375 355.171875 203.363281 C 353.578125 205.132813 352.78125 207.527344 352.78125 210.550781 C 352.78125 213.777344 353.648438 216.277344 355.34375 218.011719 C 357.042969 219.78125 359.46875 220.652344 362.585938 220.652344 "/>
<path style=" stroke:none;fill-rule:nonzero;fill:rgb(0%,0%,0%);fill-opacity:1;" d="M 388.179688 213.429688 L 384.820313 213.429688 L 384.820313 217.386719 L 378.792969 217.386719 L 378.792969 203.8125 L 381.496094 203.8125 L 381.496094 201.105469 L 372.28125 201.105469 L 372.28125 203.8125 L 374.742188 203.8125 L 374.742188 217.386719 L 372.28125 217.386719 L 372.28125 220.234375 L 388.179688 220.234375 L 388.179688 213.429688 "/>
<path style=" stroke:none;fill-rule:nonzero;fill:rgb(0%,0%,0%);fill-opacity:1;" d="M 406.847656 213.949219 L 403.59375 213.949219 L 403.59375 217.386719 L 396.355469 217.386719 L 396.355469 211.765625 L 399.019531 211.765625 L 399.019531 214.296875 L 402.035156 214.296875 L 402.035156 206.523438 L 399.019531 206.523438 L 399.019531 209.125 L 396.355469 209.125 L 396.355469 203.8125 L 403.660156 203.8125 L 403.660156 206.730469 L 406.847656 206.730469 L 406.847656 201.105469 L 389.808594 201.105469 L 389.808594 203.8125 L 392.300781 203.8125 L 392.300781 217.386719 L 389.808594 217.386719 L 389.808594 220.234375 L 406.847656 220.234375 L 406.847656 213.949219 "/>
<path style=" stroke:none;fill-rule:nonzero;fill:rgb(0%,0%,0%);fill-opacity:1;" d="M 422.261719 210.964844 C 421.570313 210.304688 420.078125 209.609375 417.828125 208.917969 C 417.34375 208.742188 416.960938 208.640625 416.71875 208.535156 C 415.367188 208.117188 414.503906 207.738281 414.054688 207.355469 C 413.601563 206.972656 413.394531 206.453125 413.394531 205.828125 C 413.394531 205.167969 413.636719 204.613281 414.15625 204.195313 C 414.675781 203.78125 415.335938 203.570313 416.164063 203.570313 C 417.203125 203.570313 418.035156 203.882813 418.660156 204.507813 C 419.28125 205.097656 419.628906 205.964844 419.699219 207.042969 L 423.160156 207.042969 L 423.160156 201.105469 L 419.769531 201.105469 L 419.769531 202.5625 C 419.316406 201.972656 418.695313 201.488281 417.898438 201.175781 C 417.101563 200.863281 416.199219 200.691406 415.160156 200.691406 C 413.394531 200.691406 411.941406 201.210938 410.832031 202.253906 C 409.722656 203.292969 409.167969 204.683594 409.167969 206.347656 C 409.167969 207.078125 409.273438 207.769531 409.515625 208.394531 C 409.757813 209.019531 410.105469 209.542969 410.554688 210.027344 C 411.214844 210.652344 412.667969 211.277344 414.917969 211.902344 C 414.988281 211.9375 415.023438 211.9375 415.058594 211.9375 C 415.128906 211.972656 415.265625 212.007813 415.4375 212.074219 C 418.140625 212.804688 419.492188 213.8125 419.492188 215.097656 C 419.492188 215.929688 419.214844 216.589844 418.625 217.039063 C 418.070313 217.527344 417.273438 217.769531 416.269531 217.769531 C 415.058594 217.769531 414.089844 217.457031 413.464844 216.867188 C 412.804688 216.277344 412.492188 215.375 412.492188 214.230469 L 412.492188 213.984375 C 412.527344 213.847656 412.527344 213.777344 412.527344 213.707031 L 409.03125 213.707031 L 409.03125 220.304688 L 412.425781 220.304688 L 412.425781 218.601563 C 412.980469 219.332031 413.636719 219.851563 414.363281 220.164063 C 415.128906 220.476563 416.027344 220.652344 417.101563 220.652344 C 419.179688 220.652344 420.773438 220.128906 421.949219 219.054688 C 423.128906 218.011719 423.714844 216.554688 423.714844 214.714844 C 423.714844 213.949219 423.578125 213.257813 423.335938 212.597656 C 423.09375 211.972656 422.746094 211.453125 422.261719 210.964844 "/>
<path style=" stroke:none;fill-rule:nonzero;fill:rgb(0%,0%,0%);fill-opacity:1;" d="M 104.199219 153.039063 C 105.296875 153.9375 106.761719 154.386719 108.550781 154.386719 C 110.015625 154.386719 111.398438 154.027344 112.742188 153.339844 C 114.085938 152.621094 115.183594 151.578125 116.078125 150.140625 C 116.933594 148.707031 117.378906 147.304688 117.378906 145.960938 C 117.378906 144.464844 116.8125 143.269531 115.710938 142.402344 C 114.613281 141.535156 113.191406 141.117188 111.480469 141.117188 C 108.835938 141.117188 106.679688 142.015625 105.054688 143.808594 C 103.386719 145.601563 102.570313 147.601563 102.570313 149.722656 C 102.570313 151.066406 103.101563 152.144531 104.199219 153.039063 "/>
<path style=" stroke:none;fill-rule:nonzero;fill:rgb(0%,0%,0%);fill-opacity:1;" d="M 175.601563 149.871094 L 182.84375 149.871094 L 181.335938 142.195313 L 175.601563 149.871094 "/>
<path style=" stroke:none;fill-rule:nonzero;fill:rgb(0%,0%,0%);fill-opacity:1;" d="M 238.015625 142.195313 L 232.277344 149.871094 L 239.519531 149.871094 L 238.015625 142.195313 "/>
<path style=" stroke:none;fill-rule:nonzero;fill:rgb(0%,0%,0%);fill-opacity:1;" d="M 323.492188 142.402344 C 322.394531 141.535156 320.972656 141.117188 319.261719 141.117188 C 316.617188 141.117188 314.464844 142.015625 312.835938 143.808594 C 311.167969 145.601563 310.355469 147.601563 310.355469 149.722656 C 310.355469 151.066406 310.882813 152.144531 311.980469 153.039063 C 313.078125 153.9375 314.542969 154.386719 316.335938 154.386719 C 317.796875 154.386719 319.179688 154.027344 320.523438 153.339844 C 321.867188 152.621094 322.964844 151.578125 323.859375 150.140625 C 324.714844 148.707031 325.160156 147.304688 325.160156 145.960938 C 325.160156 144.464844 324.59375 143.269531 323.492188 142.402344 "/>
</g>
</svg>
