<?xml version="1.0" encoding="UTF-8"?>
<svg xmlns="http://www.w3.org/2000/svg" xmlns:xlink="http://www.w3.org/1999/xlink" width="115pt" height="676pt" viewBox="0 0 115 676" version="1.1">
<g id="surface1">
<path style=" stroke:none;fill-rule:nonzero;fill:rgb(0%,0%,0%);fill-opacity:1;" d="M 30.46875 311.792969 C 38.09375 302.09375 41.199219 291.757813 49.605469 279.960938 C 54.488281 273.105469 58.417969 268.949219 62.902344 262.972656 C 63.390625 262.425781 63.058594 261.40625 62.09375 262.078125 C 51.832031 269.167969 44.332031 277.167969 35.449219 286.136719 C 26.726563 294.941406 12.917969 307.074219 18.117188 316.082031 C 19.800781 319.003906 27.640625 315.394531 30.46875 311.792969 "/>
<path style=" stroke:none;fill-rule:nonzero;fill:rgb(0%,0%,0%);fill-opacity:1;" d="M 55.179688 248.128906 C 55.65625 247.476563 56.367188 245.601563 54.582031 245.640625 C 51.050781 245.71875 47.542969 247.183594 44.972656 250.273438 C 44.179688 251.222656 44.3125 252.984375 45.167969 253.667969 C 47.667969 255.667969 52.863281 251.304688 55.179688 248.128906 "/>
<path style=" stroke:none;fill-rule:nonzero;fill:rgb(0%,0%,0%);fill-opacity:1;" d="M 38.535156 277.472656 C 44.257813 268.777344 51.773438 262.199219 59.238281 256.792969 C 60.292969 255.988281 60.015625 254.6875 59.238281 254.90625 C 48.460938 257.921875 38.167969 264.332031 32.015625 273.4375 C 26.886719 281.03125 36.539063 280.503906 38.535156 277.472656 "/>
<path style=" stroke:none;fill-rule:nonzero;fill:rgb(0%,0%,0%);fill-opacity:1;" d="M 97.671875 3.316406 C 99.539063 0.71875 99.5 -0.367188 96.589844 2.078125 C 12.296875 54.5 40.066406 200.214844 65.742188 265.285156 C 33.074219 304.703125 6.882813 364.261719 4.769531 373.097656 C 0.425781 391.296875 12.710938 386.679688 15.652344 376.941406 C 25.496094 344.316406 19.417969 335.289063 66.335938 267.003906 C 67.226563 270.242188 67.964844 273.183594 68.824219 276.269531 C 21.464844 341.710938 -1.253906 439.320313 0.671875 472.824219 C 2.257813 500.472656 14.589844 485.449219 14.769531 469.578125 C 15.109375 439.199219 10.816406 375.648438 69.082031 277.816406 C 70.238281 281.894531 71.042969 285.917969 71.910156 289.828125 C 18.003906 365.882813 12.960938 520.230469 23.691406 572.796875 C 26.90625 588.542969 31.667969 588.667969 34.832031 587.164063 C 38.414063 585.46875 40.042969 578.726563 39.480469 576.828125 C 33.484375 556.601563 29.527344 535.558594 27.382813 513.765625 C 23.949219 443.925781 34.597656 356.1875 72.167969 291.714844 C 72.941406 295.574219 73.800781 299.4375 74.316406 303.46875 C -6.894531 449.082031 54.640625 634.230469 72.511719 662.972656 C 86.441406 685.367188 96.234375 674.015625 90.101563 663.914063 C 75.164063 639.308594 -9.164063 481.492188 75 306.214844 C 84.4375 350.917969 69.09375 403.175781 56.125 435.601563 C 46.761719 459.011719 61.84375 447.710938 65.992188 440.921875 C 80.0625 417.902344 85.066406 392.273438 87.640625 365.246094 C 91.726563 275.832031 32.078125 194.90625 51.339844 114.089844 C 51.566406 112.539063 51.972656 112.488281 51.9375 113.992188 C 50.457031 176.855469 77.128906 240.101563 90.703125 302.523438 C 100.800781 337.613281 90.609375 364.820313 90.609375 364.820313 C 88.898438 369.65625 93 375.769531 97.222656 370.480469 C 109.148438 352.546875 106.0625 328.867188 102.457031 308.101563 C 86.136719 236.351563 45.988281 170.207031 58.40625 90.753906 C 58.652344 89.164063 59.066406 89.152344 59.019531 90.738281 C 57.570313 142.453125 77.558594 189.0625 92.710938 235.515625 C 106.058594 268.164063 103.265625 287.949219 103.523438 292.957031 C 103.507813 299.296875 109.421875 302.796875 112.964844 294.882813 C 131.664063 250.886719 11.140625 116.1875 97.671875 3.316406 "/>
</g>
</svg>
