<?xml version="1.0" encoding="UTF-8"?>
<svg xmlns="http://www.w3.org/2000/svg" xmlns:xlink="http://www.w3.org/1999/xlink" width="551pt" height="40pt" viewBox="0 0 551 40" version="1.1">
<g id="surface1">
<path style=" stroke:none;fill-rule:nonzero;fill:rgb(0%,0%,0%);fill-opacity:1;" d="M 527.316406 25.257813 C 428.394531 12.984375 228.652344 -4.183594 9.308594 19.785156 C 7.59375 20.058594 8.804688 20.105469 10.515625 20.042969 C 40.300781 18.585938 107.660156 12.296875 154.117188 15.835938 C 158.164063 16.363281 157.421875 17.441406 157.054688 17.707031 C 114.039063 38.191406 307.167969 46.816406 371.902344 34.179688 C 373.308594 33.925781 381.554688 32.503906 370.871094 33.492188 C 295.347656 41.320313 125.414063 29.882813 212.058594 17.359375 C 280.941406 9.117188 397.542969 17.765625 398.460938 30.070313 C 398.480469 30.355469 398.230469 31.308594 400.570313 30.179688 C 406.859375 27.214844 403.8125 19.199219 353.933594 14.523438 C 353.1875 14.414063 353.703125 14.214844 354.6875 14.230469 C 401.59375 15.09375 510.4375 24.222656 524.429688 26.140625 C 542.84375 28.546875 552.824219 28.769531 527.316406 25.257813 "/>
<path style=" stroke:none;fill-rule:nonzero;fill:rgb(0%,0%,0%);fill-opacity:1;" d="M 540.910156 24.8125 C 437.078125 5.824219 133.277344 -14.855469 1.257813 17.417969 C -0.375 18.011719 0.90625 18.117188 2.601563 17.902344 C 216.328125 -7.210938 444.363281 11.464844 536.058594 25.097656 C 554.855469 28.40625 553.546875 27.011719 540.910156 24.8125 "/>
</g>
</svg>
