<?xml version="1.0" encoding="UTF-8"?>
<svg xmlns="http://www.w3.org/2000/svg" xmlns:xlink="http://www.w3.org/1999/xlink" width="500pt" height="643pt" viewBox="0 0 500 643" version="1.1">
<g id="surface1">
<path style=" stroke:none;fill-rule:nonzero;fill:rgb(0%,0%,0%);fill-opacity:1;" d="M 404.5 209.628906 C 375.082031 185.835938 319.164063 162.148438 332.359375 123.210938 C 321.324219 132.945313 319.269531 143.003906 320.460938 154.792969 C 323.164063 182.699219 358.640625 194.703125 377.242188 211.683594 C 408.828125 237.316406 443.761719 266.089844 458.253906 303.078125 C 467.882813 323.304688 454.359375 360.617188 439.867188 323.304688 C 424.058594 282.605469 386.003906 247.050781 349.015625 223.363281 C 314.621094 200.109375 276.007813 187.023438 237.609375 173.503906 C 215.871094 164.09375 191.210938 156.199219 177.152344 133.808594 C 158.871094 107.203125 162.875 77.785156 178.449219 43.496094 C 166.117188 56.691406 157.789063 68.265625 153.898438 85.140625 C 145.351563 117.585938 164.496094 151.332031 194.5625 168.855469 C 239.144531 194.832031 286.824219 211.683594 326.949219 245.972656 C 344.472656 263.058594 364.050781 281.230469 369.238281 305.132813 C 373.242188 324.925781 356.476563 349.261719 338.847656 324.816406 C 322.40625 302.105469 306.398438 278.851563 288.769531 256.894531 C 270.382813 233.746094 246.480469 219.902344 222.253906 208.871094 C 163.414063 180.859375 96.03125 172.421875 45.738281 124.941406 C 7.882813 91.628906 15.238281 29.113281 35.789063 0.234375 C -7.476563 35.601563 -4.230469 100.496094 10.585938 135.214844 C 29.148438 178.703125 77.320313 211.46875 118.746094 225.421875 C 169.578125 242.402344 225.714844 273.117188 251.347656 324.386719 C 260.109375 343.746094 265.625 367.214844 257.621094 388.738281 C 253.078125 396.203125 247.347656 404.097656 237.828125 404.53125 C 227.335938 402.800781 222.902344 397.394531 215.332031 382.789063 C 207.761719 368.191406 200.730469 306.539063 173.363281 286.203125 C 146 265.871094 128.804688 265.4375 109.011719 259.921875 C 73.488281 250.023438 35.570313 221.851563 25.511719 183.886719 C 27 225 42.101563 255.421875 70.183594 271.820313 C 105.550781 292.480469 139.1875 302.429688 155.085938 341.691406 C 162.550781 359.535156 170.984375 413.074219 143.082031 407.449219 C 133.058594 405.429688 138.539063 378.464844 133.238281 358.347656 C 127.9375 338.230469 104.417969 331.929688 86.296875 327.738281 C 53.09375 320.058594 44.765625 296.15625 43.140625 271.386719 C 36.328125 294.101563 48.765625 319.519531 62.933594 328.171875 C 82.835938 343.3125 117.988281 351.425781 113.554688 382.46875 C 109.335938 406.695313 93.652344 426.164063 85.214844 448.660156 C 73.535156 489.109375 85.109375 532.914063 114.3125 561.902344 C 148.273438 599 197.160156 596.730469 244.101563 600.839844 C 299.585938 603.542969 341.117188 645.507813 398.550781 642.804688 C 425.265625 637.9375 448.84375 623.769531 466.582031 601.8125 C 482.480469 578.558594 488.429688 551.195313 490.917969 522.425781 C 492.648438 478.511719 495.460938 437.410156 499.570313 395.230469 C 505.738281 318.652344 464.527344 255.164063 404.5 209.628906 Z M 482.914063 527.832031 C 481.078125 554.113281 472.097656 578.773438 457.171875 600.296875 C 435.21875 624.417969 405.363281 640.316406 371.835938 632.421875 C 338.738281 627.988281 312.566406 607.003906 280.984375 599.214844 C 258.59375 591.535156 230.257813 592.945313 206.460938 589.914063 C 167.957031 586.019531 129.5625 575.53125 107.0625 539.835938 C 88.675781 513.015625 83.484375 471.914063 97.4375 441.414063 C 109.660156 414.914063 135.183594 383.441406 114.09375 353.371094 C 111.066406 349.695313 108.144531 345.691406 104.144531 342.554688 C 112.796875 344.609375 123.289063 352.832031 125.992188 362.242188 C 129.992188 377.492188 125.128906 397.71875 134.535156 410.265625 C 143.945313 422.808594 158.65625 414.699219 165.144531 408.316406 C 177.476563 390.902344 172.5 352.507813 161.253906 331.089844 C 142.710938 295.792969 118.132813 286.164063 84.460938 269.765625 C 72.019531 263.710938 56.011719 249.433594 52.445313 239.914063 C 109.335938 282.746094 132.046875 266.519531 164.386719 290.855469 C 188.570313 309.054688 196.570313 355.347656 202.785156 376.734375 C 212.085938 408.75 225.820313 412.316406 239.234375 413.726563 C 252.105469 414.15625 259.027344 404.316406 264.109375 394.472656 C 274.277344 374.894531 271.355469 353.046875 265.515625 333.039063 C 256.539063 300.375 225.820313 270.847656 197.484375 253 C 150.976563 220.445313 87.703125 216.335938 46.277344 172.53125 C 23.023438 147.4375 11.882813 116.613281 12.859375 81.679688 C 18.699219 123.859375 61.960938 152.089844 96.679688 169.394531 C 150.21875 192.972656 208.734375 204.871094 258.160156 238.722656 C 281.199219 256.136719 296.535156 279.425781 312.347656 301.996094 C 323.488281 317.894531 331.144531 343.734375 351.933594 345.152344 C 366.210938 346.125 371.621094 337.90625 375.515625 331.089844 C 386.761719 311.40625 374.757813 286.097656 360.910156 269.332031 C 326.300781 224.339844 275.898438 202.816406 229.28125 179.453125 C 286.066406 197.40625 342.199219 220.660156 388.382813 264.355469 C 410.449219 286.097656 426.890625 310.757813 436.949219 338.121094 C 440.515625 343.203125 445.601563 347.855469 451.765625 348.179688 C 457.929688 348.289063 463.769531 343.960938 466.257813 338.339844 C 473.398438 322.007813 468.3125 301.671875 460.632813 286.964844 C 441.816406 254.191406 409.257813 226.609375 379.300781 202.382813 C 409.042969 221.527344 439.542969 248.132813 460.308594 278.632813 C 479.886719 308.484375 490.484375 342.121094 491.460938 379.65625 C 488.757813 430.058594 483.132813 476.023438 482.914063 527.832031 "/>
<path style=" stroke:none;fill-rule:nonzero;fill:rgb(0%,0%,0%);fill-opacity:1;" d="M 437.703125 398.039063 C 431 397.609375 424.835938 393.824219 421.371094 387.65625 C 414.34375 371.328125 417.589844 343.585938 397.792969 339.636719 C 408.394531 355.480469 410.988281 375.003906 407.421875 391.878906 C 403.851563 408.75 389.683594 424.433594 373.351563 429.191406 C 361.992188 432.328125 349.878906 428.976563 341.660156 420.863281 C 317.8125 397.664063 313.753906 348.179688 288.011719 331.308594 C 311.050781 370.082031 322.300781 427.675781 303.804688 473.644531 C 301.425781 477.320313 298.289063 482.621094 293.203125 482.40625 C 285.957031 478.402344 285.363281 470.398438 285.417969 461.964844 C 283.472656 463.910156 281.792969 467.804688 281.46875 471.480469 C 280.386719 482.730469 288.660156 493.003906 284.878906 503.496094 C 280.765625 509.011719 274.710938 511.933594 268.21875 512.796875 C 252.96875 515.175781 239.179688 510.742188 230.417969 497.222656 C 225.605469 489.328125 236.152344 466.34375 218.359375 460.125 C 222.632813 466.34375 223.117188 472.671875 221.496094 478.511719 C 218.035156 489.867188 199.863281 488.785156 194.238281 482.082031 C 190.777344 478.078125 190.019531 469.101563 191.429688 464.234375 C 206.246094 443.359375 199.648438 404.421875 192.726563 391.335938 C 194.238281 419.023438 187.210938 437.84375 166.984375 451.578125 C 159.414063 456.339844 148.164063 457.851563 140.050781 453.3125 C 124.261719 444.765625 123.394531 433.625 124.585938 415.453125 C 119.070313 423.890625 110.523438 441.414063 108.144531 451.253906 C 102.847656 476.457031 104.433594 499.144531 119.71875 519.9375 C 143.730469 552.601563 190.425781 551.472656 228.308594 555.089844 C 275.898438 559.628906 310.492188 586.160156 350.746094 603.652344 C 375.136719 614.25 398.226563 614.089844 419.535156 605.109375 C 440.839844 596.132813 450.367188 567.949219 450.46875 546.328125 C 450.574219 522.855469 435.972656 510.6875 443.4375 492.246094 C 448.304688 482.621094 460.851563 474.726563 454.359375 462.394531 C 446.25 480.675781 436.515625 475.160156 434.894531 472.777344 C 430.566406 467.964844 427.609375 458.425781 428.347656 448.496094 C 430.566406 418.753906 448.628906 411.238281 456.742188 392.851563 C 459.335938 386.902344 461.5 378.898438 459.769531 373.164063 C 456.09375 383.117188 450.144531 396.527344 437.703125 398.039063 Z M 438.246094 483.703125 C 431.214844 492.570313 432.730469 506.363281 435.972656 516.476563 C 440.4375 530.382813 444.789063 547.246094 440.894531 562.714844 C 437.757813 574.609375 434.894531 586.941406 417.101563 595.539063 C 397.320313 605.097656 375.214844 605.222656 354.964844 596.082031 C 313.753906 577.476563 279.15625 553.339844 232.527344 546.542969 C 211.003906 543.40625 190.996094 541.785156 170.230469 538.539063 C 148.164063 533.5625 118.636719 519.9375 114.742188 489.109375 C 112.09375 468.132813 115.824219 455.257813 119.71875 445.847656 C 145.785156 487.703125 189.371094 450.929688 191.101563 435.140625 C 194.5625 450.28125 178.375 457.34375 181.800781 476.023438 C 186.128906 499.601563 215.332031 497.980469 219.226563 491.492188 C 219.332031 501.765625 227.660156 511.285156 236.097656 515.394531 C 250.589844 523.503906 270.492188 523.828125 284.878906 515.175781 C 290.5 511.714844 294.503906 505.660156 294.71875 499.0625 C 294.828125 496.574219 294.609375 493.652344 293.960938 491.273438 C 309.699219 496.628906 317.109375 466.882813 319.164063 452.011719 C 321.316406 436.417969 321.003906 418.375 319.378906 402.476563 C 326.191406 417.941406 338.144531 434.816406 358.53125 438.277344 C 378.921875 441.738281 393.359375 432.003906 404.5 417.835938 C 409.585938 410.480469 413.800781 402.800781 414.882813 393.933594 C 421.644531 404.691406 431.917969 408.210938 438.027344 406.371094 C 405.421875 452.28125 426.511719 487.433594 438.246094 483.703125 "/>
<path style=" stroke:none;fill-rule:nonzero;fill:rgb(0%,0%,0%);fill-opacity:1;" d="M 403.742188 445.253906 C 398.117188 444.171875 392.171875 453.363281 391.519531 457.203125 C 388.382813 473.914063 360.535156 495.816406 352.910156 473.644531 C 349.230469 459.476563 343.714844 445.847656 329.980469 436.761719 C 329.871094 436.871094 349.953125 456.394531 336.792969 499.0625 C 331.871094 515.015625 340.144531 536.160156 355.179688 547.085938 C 366.753906 556.167969 388.484375 558.300781 399.632813 550.21875 C 408.664063 543.675781 411.097656 535.835938 411.042969 530.429688 C 412.773438 501.332031 381.03125 473.375 403.742188 445.253906 Z M 398.335938 540.59375 C 386.925781 549.679688 381.085938 548.003906 369.78125 545.027344 C 356.503906 541.535156 345.660156 523.503906 345.121094 510.742188 C 344.578125 497.980469 348.636719 494.464844 349.015625 483.160156 C 362.425781 503.117188 384.871094 485.269531 388.007813 478.347656 C 388.65625 482.566406 391.847656 492.867188 393.253906 495.710938 C 398.390625 506.09375 410.890625 530.597656 398.335938 540.59375 "/>
</g>
</svg>
