<?xml version="1.0" encoding="UTF-8"?>
<svg xmlns="http://www.w3.org/2000/svg" xmlns:xlink="http://www.w3.org/1999/xlink" width="505pt" height="191pt" viewBox="0 0 505 191" version="1.1">
<g id="surface1">
<path style=" stroke:none;fill-rule:nonzero;fill:rgb(0%,0%,0%);fill-opacity:1;" d="M 497.335938 74.632813 C 489.8125 72.925781 476.445313 74.507813 453.605469 83.355469 C 394.570313 106.222656 304.371094 142.445313 249.503906 161.875 C 186.144531 184.3125 157.777344 184.601563 210.40625 157.824219 C 274.617188 125.152344 363.195313 86.671875 402.316406 65.761719 C 436.710938 47.382813 486.566406 22.394531 488.503906 5.617188 C 489.191406 -0.34375 472.144531 -0.945313 462.921875 0.917969 C 364.761719 20.753906 220.074219 92.878906 48.878906 172.347656 C 23.558594 184.101563 4.550781 179.210938 24.320313 164.269531 C 49.476563 145.253906 145.902344 94.855469 184.066406 75.785156 C 195.796875 69.925781 186.714844 62.21875 178.628906 66.136719 C 145.410156 82.222656 51 137.917969 21.886719 158.636719 C 1.042969 173.46875 -0.671875 180.890625 2.023438 185.320313 C 9.117188 196.992188 44.628906 186.847656 86.332031 167.714844 C 163.472656 132.328125 251.171875 92.503906 330.84375 60.207031 C 371.796875 43.660156 419.515625 23.222656 448.089844 17.125 C 457.449219 15.136719 460.125 18.078125 457.699219 23.246094 C 455.632813 27.648438 444.679688 34.65625 427.40625 43.867188 C 353.671875 83.175781 288.144531 109.46875 213.972656 148 C 199.542969 155.496094 170.898438 171.34375 165.109375 182.707031 C 157.164063 198.621094 185.503906 190.441406 233.867188 175.683594 C 293.648438 157.4375 356.261719 131.832031 417.324219 108.816406 C 454.246094 94.902344 470.761719 93.144531 486.664063 93.523438 C 504.140625 93.941406 510.128906 77.535156 497.335938 74.632813 "/>
<path style=" stroke:none;fill-rule:nonzero;fill:rgb(0%,0%,0%);fill-opacity:1;" d="M 25.730469 117.421875 C 39.679688 117.152344 50.773438 105.792969 50.507813 92.054688 C 50.242188 78.3125 38.722656 67.390625 24.773438 67.65625 C 10.828125 67.925781 -0.265625 79.28125 0 93.027344 C 0.265625 106.765625 11.785156 117.691406 25.730469 117.421875 "/>
<path style=" stroke:none;fill-rule:nonzero;fill:rgb(0%,0%,0%);fill-opacity:1;" d="M 80.273438 100.117188 C 89.089844 99.949219 96.097656 92.328125 95.917969 83.097656 C 95.742188 73.867188 88.449219 66.523438 79.628906 66.695313 C 70.808594 66.863281 63.800781 74.484375 63.980469 83.714844 C 64.15625 92.945313 71.453125 100.289063 80.273438 100.117188 "/>
<path style=" stroke:none;fill-rule:nonzero;fill:rgb(0%,0%,0%);fill-opacity:1;" d="M 121.1875 85.761719 C 126.316406 85.664063 130.390625 81.425781 130.292969 76.300781 C 130.195313 71.171875 125.957031 67.09375 120.828125 67.195313 C 115.703125 67.292969 111.625 71.527344 111.726563 76.65625 C 111.824219 81.785156 116.058594 85.859375 121.1875 85.761719 "/>
</g>
</svg>
