<?xml version="1.0" encoding="UTF-8"?>
<svg xmlns="http://www.w3.org/2000/svg" xmlns:xlink="http://www.w3.org/1999/xlink" width="522pt" height="133pt" viewBox="0 0 522 133" version="1.1">
<g id="surface1">
<path style=" stroke:none;fill-rule:nonzero;fill:rgb(0%,0%,0%);fill-opacity:1;" d="M 514.917969 63.097656 C 436.289063 54.304688 232.429688 148.195313 330.597656 43.820313 C 335.4375 39.199219 333.207031 36.796875 330.917969 38.617188 C 302.746094 60.21875 278.6875 89.296875 250.453125 113.152344 C 244.078125 118.789063 242.550781 119.007813 248.253906 113.011719 C 279.355469 79.539063 313.066406 42.1875 342.117188 3.179688 C 343.230469 0.824219 343.230469 -0.839844 339.796875 0.617188 C 317.105469 24.882813 292.871094 46.761719 268.015625 67.703125 C 266.320313 69.132813 265.316406 67.660156 266.917969 65.660156 C 276.460938 41.191406 256.546875 29.886719 240.195313 28.777344 C 182.757813 27.417969 85.859375 111.152344 5.617188 71.765625 C -2.730469 67.953125 1.8125 71.902344 4.453125 73.570313 C 78.976563 120.144531 208.457031 18.4375 249.636719 34.539063 C 256.757813 35.976563 284.355469 52.597656 239.617188 90.839844 C 235.199219 95.601563 232.539063 101.117188 239.878906 94.777344 C 265.40625 74.714844 289.386719 53.617188 314.136719 31.425781 C 316.921875 28.929688 317.824219 29.859375 315.367188 32.695313 C 288.152344 68.832031 235.8125 122.660156 230.675781 129.019531 C 227.8125 132.992188 229.765625 133.871094 233.796875 130.457031 C 261.558594 108.21875 284.171875 84.011719 310.808594 59.769531 C 311.390625 59.289063 312.738281 58.761719 311.816406 60.089844 C 252.496094 149.839844 461.398438 50.167969 515.476563 68.859375 C 521.5625 70.492188 525.230469 65.824219 514.917969 63.097656 "/>
</g>
</svg>
