<?xml version="1.0" encoding="UTF-8"?>
<svg xmlns="http://www.w3.org/2000/svg" xmlns:xlink="http://www.w3.org/1999/xlink" width="548pt" height="76pt" viewBox="0 0 548 76" version="1.1">
<g id="surface1">
<path style=" stroke:none;fill-rule:nonzero;fill:rgb(0%,0%,0%);fill-opacity:1;" d="M 545.847656 9.75 C 534.765625 16.1875 523.847656 23.441406 512.683594 29.0625 C 510.890625 30.203125 509.101563 29.144531 507.960938 31.097656 C 500.625 33.300781 493.863281 36.722656 486.855469 39.898438 C 487.101563 41.367188 483.757813 39.980469 482.210938 41.691406 C 482.273438 43.601563 479.359375 40.632813 479.523438 43.15625 C 478.300781 43.238281 478.21875 43.15625 477.484375 43.15625 C 476.671875 44.625 472.597656 44.296875 473.085938 45.765625 C 470.96875 45.441406 466.324219 47.3125 463.714844 49.023438 C 463.632813 48.945313 463.472656 48.78125 463.390625 48.699219 C 448.152344 52.445313 429.820313 59.863281 412.953125 62.792969 C 427.863281 55.542969 441.390625 44.296875 455.160156 35.5 C 456.953125 34.359375 459.722656 34.523438 460.457031 31.996094 C 464.691406 30.121094 468.765625 26.210938 473.085938 23.765625 C 477.160156 23.765625 477.160156 19.367188 480.988281 18.550781 C 483.027344 18.796875 483.035156 17.078125 482.210938 15.863281 C 485.308594 17.167969 485.226563 13.742188 487.425781 13.5 C 488.894531 10.730469 493.800781 10.675781 494.09375 6.3125 C 494.09375 4.519531 496.550781 5.351563 494.757813 3.558594 C 494.027344 3.722656 493.800781 2.820313 492.722656 5.027344 C 474.226563 15.78125 454.019531 25.964844 433.488281 33.789063 C 427.457031 36.230469 422.078125 38.433594 416.214844 40.226563 C 425.992188 34.113281 436.421875 28.164063 444.648438 19.367188 C 448.152344 16.433594 451.65625 15.945313 455.160156 12.929688 C 457.6875 11.707031 459.398438 8.53125 462.25 8.285156 C 462.65625 4.699219 466.894531 6.898438 467.789063 3.558594 C 468.359375 1.929688 468.359375 0.464844 466.078125 0.953125 C 462.003906 0.953125 459.640625 5.921875 455.484375 4.699219 C 447.664063 7.226563 440.820313 12.113281 433.488281 15.863281 C 431.203125 17.820313 426.96875 16.675781 426.152344 20.261719 C 422.324219 18.632813 419.960938 23.113281 416.78125 22.953125 C 413.523438 24.011719 409.042969 24.171875 407.085938 26.128906 C 401.546875 27.839844 396.496094 30.039063 390.953125 29.957031 C 383.378906 32.890625 375.308594 34.601563 368.058594 38.1875 C 360.5625 39.164063 351.027344 40.226563 342.882813 42.261719 C 339.949219 45.03125 336.199219 43.890625 333.183594 45.765625 C 326.179688 44.296875 318.683594 48.371094 311.1875 49.023438 C 308.902344 49.515625 306.378906 52.9375 304.421875 50.492188 C 301 51.957031 297.742188 51.222656 294.15625 52.285156 C 293.179688 52.285156 292.039063 50.898438 291.222656 52.285156 C 288.453125 51.222656 286.089844 54.15625 283.320313 53.097656 C 281.121094 55.054688 279.328125 52.121094 277.128906 52.285156 C 272.074219 53.75 266.941406 51.632813 261.890625 53.996094 C 259.773438 51.46875 257.082031 56.683594 256.023438 52.855469 C 253.496094 55.136719 252.929688 52.203125 249.832031 53.097656 C 246.652344 55.867188 242.496094 52.9375 238.996094 53.425781 C 235.734375 55.296875 223.675781 55.867188 221.964844 54.320313 C 219.519531 56.03125 216.425781 54.566406 213.816406 55.21875 C 213.410156 54.808594 213.003906 54.402344 212.59375 53.996094 C 207.21875 54.890625 201.433594 53.34375 195.320313 54.320313 C 192.390625 52.855469 191.164063 57.582031 189.453125 54.890625 C 188.152344 53.996094 185.789063 53.996094 184.484375 54.890625 C 181.632813 52.773438 177.96875 58.070313 175.929688 53.75 C 172.425781 51.222656 168.269531 56.195313 165.988281 52.855469 C 162.8125 55.707031 157.761719 50.816406 155.96875 54.890625 C 155.558594 55.136719 153.195313 55.867188 153.035156 54.320313 C 151.402344 53.832031 148.554688 53.507813 147.492188 51.957031 C 145.78125 51.386719 143.828125 51.632813 142.523438 52.855469 C 138.613281 52.855469 135.351563 51.550781 131.929688 52.855469 C 130.300781 49.757813 128.183594 53.75 125.820313 52.855469 C 125.65625 51.957031 125.085938 50.492188 123.699219 51.0625 C 118.894531 53.097656 113.433594 49.839844 108.789063 50.492188 C 106.835938 47.394531 102.84375 51.792969 101.457031 47.882813 C 98.929688 49.1875 96.160156 47.882813 93.554688 47.882813 C 92.984375 48.78125 92.414063 50.164063 90.863281 49.59375 C 88.992188 52.285156 89.398438 48.128906 88.257813 47.558594 C 84.589844 45.765625 84.671875 50.898438 81.496094 48.699219 C 78.644531 45.601563 74.082031 48.453125 70.65625 49.023438 C 69.4375 48.371094 67.234375 47.640625 66.828125 49.59375 C 63.40625 50.164063 67.480469 46.253906 64.464844 45.765625 C 62.511719 48.453125 60.71875 44.460938 58.597656 45.765625 C 57.132813 43.566406 55.585938 46.335938 53.957031 46.09375 C 51.59375 43.566406 48.984375 45.929688 46.296875 45.195313 C 44.503906 43.078125 42.464844 44.378906 40.101563 43.726563 C 38.964844 42.179688 36.519531 42.996094 35.460938 42.019531 C 31.140625 42.34375 29.835938 40.144531 25.4375 40.550781 C 21.851563 42.832031 19.40625 36.230469 15.824219 39.328125 C 11.503906 37.699219 7.023438 36.800781 2.621094 35.5 C 0.339844 36.230469 0.585938 38.839844 2.296875 39.898438 C 8.570313 41.203125 14.601563 43.238281 20.792969 44.949219 C 24.703125 47.800781 30.976563 45.03125 34.238281 49.59375 C 40.671875 51.957031 47.519531 51.386719 54.199219 52.285156 C 58.761719 54.402344 64.300781 54.402344 68.867188 56.359375 C 72.207031 54.890625 74.242188 59.128906 77.664063 57.253906 C 80.191406 59.863281 83.695313 57.253906 86.21875 57.253906 C 87.199219 57.582031 86.464844 59.453125 87.933594 59.617188 C 89.316406 59.863281 90.539063 60.433594 91.761719 59.289063 C 323.558594 86.015625 421.050781 28.71875 423.671875 29.011719 C 423.578125 29.570313 425.125 29.59375 423.960938 31.046875 C 420.179688 33.664063 415.960938 36.742188 409.121094 40.648438 C 395.734375 48.214844 381.183594 55.199219 365.695313 62.792969 C 355.578125 65.675781 354.425781 70.667969 354.996094 70.914063 C 357.324219 72.660156 360.816406 70.914063 366.019531 69.230469 C 375.554688 65.566406 385.738281 62.632813 395.027344 59.289063 C 402.136719 55.78125 409.121094 53.453125 415.109375 50.308594 C 424.96875 44.277344 436.765625 39.484375 445.496094 33.957031 C 450.152344 31.628906 452.769531 30.757813 452.554688 32.320313 C 448.558594 35.417969 444.621094 37.738281 439.921875 40.550781 C 431.238281 46.46875 423.953125 50.246094 416.214844 54.320313 C 412.464844 57.90625 406.4375 57.335938 403.585938 61.898438 C 398.449219 63.363281 393.152344 67.574219 388.75 70.914063 C 388.75 70.914063 373.617188 80.226563 404.722656 71.351563 C 411.976563 70.046875 420.53125 66.949219 427.621094 65.484375 C 433.242188 66.054688 435.851563 60.921875 441.714844 61.898438 C 445.382813 61.65625 446.117188 57.824219 450.191406 58.394531 C 453.449219 55.296875 458.339844 57.171875 462.492188 55.460938 C 466.894531 51.144531 473.246094 50.898438 478.382813 47.882813 C 480.339844 46.742188 482.617188 49.023438 483.921875 46.417969 C 488.972656 45.765625 492.316406 42.097656 496.878906 39.898438 C 501.195313 40.304688 503.558594 35.90625 507.714844 35.824219 C 508.367188 32.238281 513.09375 36.070313 513.253906 31.996094 C 523.03125 28.492188 531.671875 21.890625 539.652344 16.1875 C 539.898438 14.152344 542.691406 13.449219 544.726563 12.714844 C 547.378906 10.472656 548.21875 9.222656 545.847656 9.75 "/>
</g>
</svg>
