<?xml version="1.0" encoding="UTF-8"?>
<svg xmlns="http://www.w3.org/2000/svg" xmlns:xlink="http://www.w3.org/1999/xlink" width="553pt" height="67pt" viewBox="0 0 553 67" version="1.1">
<g id="surface1">
<path style=" stroke:none;fill-rule:nonzero;fill:rgb(0%,0%,0%);fill-opacity:1;" d="M 518.53125 16.9375 L 491.734375 35.65625 L 519.414063 49.175781 C 519.414063 49.175781 507.972656 56.457031 505.332031 66.257813 C 507.09375 67.058594 509.933594 67.058594 511.332031 66.21875 C 515.253906 67.65625 519.011719 64.9375 522.851563 64.21875 C 529.253906 61.019531 535.734375 58.65625 541.253906 52.9375 C 542.300781 51.851563 542.371094 49.097656 541.011719 48.058594 L 514.214844 34.539063 C 525.574219 26.699219 537.492188 19.335938 547.894531 9.738281 C 549.972656 6.9375 552.691406 4.457031 552.773438 0.855469 L 547.652344 0.855469 C 543.09375 -0.980469 539.03125 1.070313 534.054688 3.097656 C 526.542969 6.15625 515.734375 10.65625 518.53125 16.9375 Z M 525.414063 11.738281 C 522.5625 13.554688 525.53125 16.65625 521.09375 19.257813 L 498.53125 35.859375 L 524.613281 49.175781 C 520.371094 53.738281 513.734375 59.019531 511.011719 65.019531 C 509.972656 65.738281 509.011719 65.816406 507.332031 65.65625 C 507.492188 61.816406 516.011719 51.9375 521.933594 49.457031 L 494.132813 35.65625 C 495.09375 34.539063 513.054688 22.617188 520.332031 17.257813 C 518.652344 13.097656 520.796875 11.804688 523.332031 10.257813 C 531.53125 5.257813 537.53125 2.058594 545.132813 1.457031 C 537.933594 4.335938 532.132813 7.457031 525.414063 11.738281 "/>
<path style=" stroke:none;fill-rule:nonzero;fill:rgb(0%,0%,0%);fill-opacity:1;" d="M 490.453125 64.21875 C 496.851563 61.019531 503.332031 58.65625 508.851563 52.9375 C 509.902344 51.851563 509.972656 49.097656 508.613281 48.058594 L 481.8125 34.539063 C 493.171875 26.699219 505.09375 19.335938 515.492188 9.738281 C 517.574219 6.9375 520.292969 4.457031 520.371094 0.855469 L 515.253906 0.855469 C 510.691406 -0.980469 506.632813 1.070313 501.652344 3.097656 C 494.144531 6.15625 483.332031 10.65625 486.132813 16.9375 L 459.332031 35.65625 L 487.011719 49.175781 C 487.011719 49.175781 475.574219 56.457031 472.933594 66.257813 C 474.691406 67.058594 477.53125 67.058594 478.933594 66.21875 C 482.851563 67.65625 486.613281 64.9375 490.453125 64.21875 Z M 518.332031 2.855469 C 513.332031 12.058594 478.933594 34.457031 478.933594 34.457031 L 506.53125 48.859375 C 509.132813 50.457031 508.210938 51.449219 507.132813 52.257813 C 499.132813 58.257813 493.734375 61.859375 482.132813 65.257813 C 480.132813 65.65625 481.1875 63.636719 481.734375 62.859375 C 484.53125 58.859375 488.933594 53.457031 494.734375 49.058594 L 469.734375 35.65625 L 491.933594 19.855469 C 493.734375 18.65625 493.734375 15.257813 493.734375 15.257813 C 493.933594 13.65625 495.734375 12.457031 495.734375 12.457031 L 510.933594 4.058594 C 514.734375 2.257813 518.332031 2.855469 518.332031 2.855469 Z M 474.933594 65.65625 C 475.09375 61.816406 483.613281 51.9375 489.53125 49.457031 L 461.734375 35.65625 C 462.691406 34.539063 480.652344 22.617188 487.933594 17.257813 C 486.253906 13.097656 488.398438 11.804688 490.933594 10.257813 C 499.132813 5.257813 505.132813 2.058594 512.734375 1.457031 C 505.53125 4.335938 499.734375 7.457031 493.011719 11.738281 C 490.160156 13.554688 493.132813 16.65625 488.691406 19.257813 L 466.132813 35.859375 L 492.214844 49.175781 C 487.972656 53.738281 481.332031 59.019531 478.613281 65.019531 C 477.574219 65.738281 476.613281 65.816406 474.933594 65.65625 "/>
<path style=" stroke:none;fill-rule:nonzero;fill:rgb(0%,0%,0%);fill-opacity:1;" d="M 457.253906 64.21875 C 463.652344 61.019531 470.132813 58.65625 475.652344 52.9375 C 476.699219 51.851563 476.773438 49.097656 475.414063 48.058594 L 448.613281 34.539063 C 459.972656 26.699219 471.894531 19.335938 482.292969 9.738281 C 484.371094 6.9375 487.09375 4.457031 487.171875 0.855469 L 482.054688 0.855469 C 477.492188 -0.980469 473.429688 1.070313 468.453125 3.097656 C 460.941406 6.15625 450.132813 10.65625 452.933594 16.9375 L 426.132813 35.65625 L 453.8125 49.175781 C 453.8125 49.175781 442.371094 56.457031 439.734375 66.257813 C 441.492188 67.058594 444.332031 67.058594 445.734375 66.21875 C 449.652344 67.65625 453.414063 64.9375 457.253906 64.21875 Z M 441.734375 65.65625 C 441.894531 61.816406 450.414063 51.9375 456.332031 49.457031 L 428.53125 35.65625 C 429.492188 34.539063 447.453125 22.617188 454.734375 17.257813 C 453.054688 13.097656 455.195313 11.804688 457.734375 10.257813 C 465.933594 5.257813 471.933594 2.058594 479.53125 1.457031 C 472.332031 4.335938 466.53125 7.457031 459.8125 11.738281 C 456.960938 13.554688 459.933594 16.65625 455.492188 19.257813 L 432.933594 35.859375 L 459.011719 49.175781 C 454.773438 53.738281 448.132813 59.019531 445.414063 65.019531 C 444.371094 65.738281 443.414063 65.816406 441.734375 65.65625 "/>
<path style=" stroke:none;fill-rule:nonzero;fill:rgb(0%,0%,0%);fill-opacity:1;" d="M 424.851563 64.21875 C 431.253906 61.019531 437.734375 58.65625 443.253906 52.9375 C 444.300781 51.851563 444.371094 49.097656 443.011719 48.058594 L 416.214844 34.539063 C 427.574219 26.699219 439.492188 19.335938 449.894531 9.738281 C 451.972656 6.9375 454.691406 4.457031 454.773438 0.855469 L 449.652344 0.855469 C 445.09375 -0.980469 441.03125 1.070313 436.054688 3.097656 C 428.542969 6.15625 417.734375 10.65625 420.53125 16.9375 L 393.730469 35.65625 L 421.414063 49.175781 C 421.414063 49.175781 409.972656 56.457031 407.332031 66.257813 C 409.09375 67.058594 411.933594 67.058594 413.332031 66.21875 C 417.253906 67.65625 421.011719 64.9375 424.851563 64.21875 Z M 452.734375 2.855469 C 447.734375 12.058594 413.332031 34.457031 413.332031 34.457031 L 440.933594 48.859375 C 443.53125 50.457031 442.609375 51.449219 441.53125 52.257813 C 433.53125 58.257813 428.132813 61.859375 416.53125 65.257813 C 414.53125 65.65625 415.589844 63.636719 416.132813 62.859375 C 418.933594 58.859375 423.332031 53.457031 429.132813 49.058594 L 404.132813 35.65625 L 426.332031 19.855469 C 428.132813 18.65625 428.132813 15.257813 428.132813 15.257813 C 428.332031 13.65625 430.132813 12.457031 430.132813 12.457031 L 445.332031 4.058594 C 449.132813 2.257813 452.734375 2.855469 452.734375 2.855469 Z M 409.332031 65.65625 C 409.492188 61.816406 418.011719 51.9375 423.933594 49.457031 L 396.132813 35.65625 C 397.09375 34.539063 415.054688 22.617188 422.332031 17.257813 C 420.652344 13.097656 422.796875 11.804688 425.332031 10.257813 C 433.53125 5.257813 439.53125 2.058594 447.132813 1.457031 C 439.933594 4.335938 434.132813 7.457031 427.414063 11.738281 C 424.558594 13.554688 427.53125 16.65625 423.09375 19.257813 L 400.53125 35.859375 L 426.613281 49.175781 C 422.371094 53.738281 415.734375 59.019531 413.011719 65.019531 C 411.972656 65.738281 411.011719 65.816406 409.332031 65.65625 "/>
<path style=" stroke:none;fill-rule:nonzero;fill:rgb(0%,0%,0%);fill-opacity:1;" d="M 391.652344 64.21875 C 398.054688 61.019531 404.53125 58.65625 410.054688 52.9375 C 411.101563 51.851563 411.171875 49.097656 409.8125 48.058594 L 383.011719 34.539063 C 394.371094 26.699219 406.292969 19.335938 416.691406 9.738281 C 418.773438 6.9375 421.492188 4.457031 421.574219 0.855469 L 416.453125 0.855469 C 411.894531 -0.980469 407.832031 1.070313 402.851563 3.097656 C 395.34375 6.15625 384.53125 10.65625 387.332031 16.9375 L 360.53125 35.65625 L 388.214844 49.175781 C 388.214844 49.175781 376.773438 56.457031 374.132813 66.257813 C 375.894531 67.058594 378.730469 67.058594 380.132813 66.21875 C 384.054688 67.65625 387.8125 64.9375 391.652344 64.21875 Z M 376.132813 65.65625 C 376.292969 61.816406 384.8125 51.9375 390.730469 49.457031 L 362.933594 35.65625 C 363.894531 34.539063 381.851563 22.617188 389.132813 17.257813 C 387.453125 13.097656 389.597656 11.804688 392.132813 10.257813 C 400.332031 5.257813 406.332031 2.058594 413.933594 1.457031 C 406.734375 4.335938 400.933594 7.457031 394.214844 11.738281 C 391.359375 13.554688 394.332031 16.65625 389.894531 19.257813 L 367.332031 35.859375 L 393.414063 49.175781 C 389.171875 53.738281 382.53125 59.019531 379.8125 65.019531 C 378.773438 65.738281 377.8125 65.816406 376.132813 65.65625 "/>
<path style=" stroke:none;fill-rule:nonzero;fill:rgb(0%,0%,0%);fill-opacity:1;" d="M 359.253906 64.21875 C 365.652344 61.019531 372.132813 58.65625 377.652344 52.9375 C 378.699219 51.851563 378.773438 49.097656 377.414063 48.058594 L 350.613281 34.539063 C 361.972656 26.699219 373.894531 19.335938 384.292969 9.738281 C 386.371094 6.9375 389.09375 4.457031 389.171875 0.855469 L 384.054688 0.855469 C 379.492188 -0.980469 375.429688 1.070313 370.453125 3.097656 C 362.941406 6.15625 352.132813 10.65625 354.933594 16.9375 L 328.132813 35.65625 L 355.8125 49.175781 C 355.8125 49.175781 344.371094 56.457031 341.730469 66.257813 C 343.492188 67.058594 346.332031 67.058594 347.730469 66.21875 C 351.652344 67.65625 355.414063 64.9375 359.253906 64.21875 Z M 387.132813 2.855469 C 382.132813 12.058594 347.730469 34.457031 347.730469 34.457031 L 375.332031 48.859375 C 377.933594 50.457031 377.011719 51.449219 375.933594 52.257813 C 367.933594 58.257813 362.53125 61.859375 350.933594 65.257813 C 348.933594 65.65625 349.988281 63.636719 350.53125 62.859375 C 353.332031 58.859375 357.730469 53.457031 363.53125 49.058594 L 338.53125 35.65625 L 360.730469 19.855469 C 362.53125 18.65625 362.53125 15.257813 362.53125 15.257813 C 362.730469 13.65625 364.53125 12.457031 364.53125 12.457031 L 379.730469 4.058594 C 383.53125 2.257813 387.132813 2.855469 387.132813 2.855469 Z M 343.730469 65.65625 C 343.894531 61.816406 352.414063 51.9375 358.332031 49.457031 L 330.53125 35.65625 C 331.492188 34.539063 349.453125 22.617188 356.730469 17.257813 C 355.050781 13.097656 357.195313 11.804688 359.730469 10.257813 C 367.933594 5.257813 373.933594 2.058594 381.53125 1.457031 C 374.332031 4.335938 368.53125 7.457031 361.8125 11.738281 C 358.960938 13.554688 361.933594 16.65625 357.492188 19.257813 L 334.933594 35.859375 L 361.011719 49.175781 C 356.773438 53.738281 350.132813 59.019531 347.414063 65.019531 C 346.371094 65.738281 345.414063 65.816406 343.730469 65.65625 "/>
<path style=" stroke:none;fill-rule:nonzero;fill:rgb(0%,0%,0%);fill-opacity:1;" d="M 326.050781 64.21875 C 332.453125 61.019531 338.933594 58.65625 344.453125 52.9375 C 345.5 51.851563 345.570313 49.097656 344.214844 48.058594 L 317.410156 34.539063 C 328.773438 26.699219 340.691406 19.335938 351.09375 9.738281 C 353.171875 6.9375 355.894531 4.457031 355.972656 0.855469 L 350.851563 0.855469 C 346.292969 -0.980469 342.230469 1.070313 337.253906 3.097656 C 329.742188 6.15625 318.933594 10.65625 321.730469 16.9375 L 294.933594 35.65625 L 322.613281 49.175781 C 322.613281 49.175781 311.171875 56.457031 308.53125 66.257813 C 310.292969 67.058594 313.132813 67.058594 314.53125 66.21875 C 318.453125 67.65625 322.214844 64.9375 326.050781 64.21875 Z M 310.53125 65.65625 C 310.691406 61.816406 319.214844 51.9375 325.132813 49.457031 L 297.332031 35.65625 C 298.292969 34.539063 316.253906 22.617188 323.53125 17.257813 C 321.851563 13.097656 323.996094 11.804688 326.53125 10.257813 C 334.730469 5.257813 340.730469 2.058594 348.332031 1.457031 C 341.132813 4.335938 335.332031 7.457031 328.613281 11.738281 C 325.761719 13.554688 328.730469 16.65625 324.292969 19.257813 L 301.730469 35.859375 L 327.8125 49.175781 C 323.570313 53.738281 316.933594 59.019531 314.214844 65.019531 C 313.171875 65.738281 312.214844 65.816406 310.53125 65.65625 "/>
<path style=" stroke:none;fill-rule:nonzero;fill:rgb(0%,0%,0%);fill-opacity:1;" d="M 293.652344 64.21875 C 300.050781 61.019531 306.53125 58.65625 312.050781 52.9375 C 313.101563 51.851563 313.171875 49.097656 311.8125 48.058594 L 285.011719 34.539063 C 296.371094 26.699219 308.292969 19.335938 318.691406 9.738281 C 320.773438 6.9375 323.492188 4.457031 323.570313 0.855469 L 318.453125 0.855469 C 313.890625 -0.980469 309.828125 1.070313 304.851563 3.097656 C 297.34375 6.15625 286.53125 10.65625 289.332031 16.9375 L 262.53125 35.65625 L 290.210938 49.175781 C 290.210938 49.175781 278.773438 56.457031 276.132813 66.257813 C 277.890625 67.058594 280.730469 67.058594 282.132813 66.21875 C 286.050781 67.65625 289.8125 64.9375 293.652344 64.21875 Z M 321.53125 2.855469 C 316.53125 12.058594 282.132813 34.457031 282.132813 34.457031 L 309.730469 48.859375 C 312.332031 50.457031 311.410156 51.449219 310.332031 52.257813 C 302.332031 58.257813 296.933594 61.859375 285.332031 65.257813 C 283.332031 65.65625 284.386719 63.636719 284.933594 62.859375 C 287.730469 58.859375 292.132813 53.457031 297.933594 49.058594 L 272.933594 35.65625 L 295.132813 19.855469 C 296.933594 18.65625 296.933594 15.257813 296.933594 15.257813 C 297.132813 13.65625 298.933594 12.457031 298.933594 12.457031 L 314.132813 4.058594 C 317.933594 2.257813 321.53125 2.855469 321.53125 2.855469 Z M 278.132813 65.65625 C 278.292969 61.816406 286.8125 51.9375 292.730469 49.457031 L 264.933594 35.65625 C 265.890625 34.539063 283.851563 22.617188 291.132813 17.257813 C 289.453125 13.097656 291.597656 11.804688 294.132813 10.257813 C 302.332031 5.257813 308.332031 2.058594 315.933594 1.457031 C 308.730469 4.335938 302.933594 7.457031 296.210938 11.738281 C 293.359375 13.554688 296.332031 16.65625 291.890625 19.257813 L 269.332031 35.859375 L 295.410156 49.175781 C 291.171875 53.738281 284.53125 59.019531 281.8125 65.019531 C 280.773438 65.738281 279.8125 65.816406 278.132813 65.65625 "/>
<path style=" stroke:none;fill-rule:nonzero;fill:rgb(0%,0%,0%);fill-opacity:1;" d="M 260.453125 64.21875 C 266.851563 61.019531 273.332031 58.65625 278.851563 52.9375 C 279.898438 51.851563 279.972656 49.097656 278.613281 48.058594 L 251.8125 34.539063 C 263.171875 26.699219 275.09375 19.335938 285.492188 9.738281 C 287.570313 6.9375 290.292969 4.457031 290.371094 0.855469 L 285.253906 0.855469 C 280.691406 -0.980469 276.628906 1.070313 271.652344 3.097656 C 264.140625 6.15625 253.332031 10.65625 256.132813 16.9375 L 229.332031 35.65625 L 257.011719 49.175781 C 257.011719 49.175781 245.570313 56.457031 242.933594 66.257813 C 244.691406 67.058594 247.53125 67.058594 248.933594 66.21875 C 252.851563 67.65625 256.613281 64.9375 260.453125 64.21875 Z M 244.933594 65.65625 C 245.09375 61.816406 253.613281 51.9375 259.53125 49.457031 L 231.730469 35.65625 C 232.691406 34.539063 250.652344 22.617188 257.933594 17.257813 C 256.253906 13.097656 258.394531 11.804688 260.933594 10.257813 C 269.132813 5.257813 275.132813 2.058594 282.730469 1.457031 C 275.53125 4.335938 269.730469 7.457031 263.011719 11.738281 C 260.160156 13.554688 263.132813 16.65625 258.691406 19.257813 L 236.132813 35.859375 L 262.210938 49.175781 C 257.972656 53.738281 251.332031 59.019531 248.613281 65.019531 C 247.570313 65.738281 246.613281 65.816406 244.933594 65.65625 "/>
<path style=" stroke:none;fill-rule:nonzero;fill:rgb(0%,0%,0%);fill-opacity:1;" d="M 228.050781 64.21875 C 234.453125 61.019531 240.933594 58.65625 246.453125 52.9375 C 247.5 51.851563 247.570313 49.097656 246.210938 48.058594 L 219.410156 34.539063 C 230.773438 26.699219 242.691406 19.335938 253.09375 9.738281 C 255.171875 6.9375 257.890625 4.457031 257.972656 0.855469 L 252.851563 0.855469 C 248.292969 -0.980469 244.230469 1.070313 239.253906 3.097656 C 231.742188 6.15625 220.933594 10.65625 223.730469 16.9375 L 196.933594 35.65625 L 224.613281 49.175781 C 224.613281 49.175781 213.171875 56.457031 210.53125 66.257813 C 212.292969 67.058594 215.132813 67.058594 216.53125 66.21875 C 220.453125 67.65625 224.210938 64.9375 228.050781 64.21875 Z M 255.933594 2.855469 C 250.933594 12.058594 216.53125 34.457031 216.53125 34.457031 L 244.132813 48.859375 C 246.730469 50.457031 245.808594 51.449219 244.730469 52.257813 C 236.730469 58.257813 231.332031 61.859375 219.730469 65.257813 C 217.730469 65.65625 218.789063 63.636719 219.332031 62.859375 C 222.132813 58.859375 226.53125 53.457031 232.332031 49.058594 L 207.332031 35.65625 L 229.53125 19.855469 C 231.332031 18.65625 231.332031 15.257813 231.332031 15.257813 C 231.53125 13.65625 233.332031 12.457031 233.332031 12.457031 L 248.53125 4.058594 C 252.332031 2.257813 255.933594 2.855469 255.933594 2.855469 Z M 212.53125 65.65625 C 212.691406 61.816406 221.210938 51.9375 227.132813 49.457031 L 199.332031 35.65625 C 200.292969 34.539063 218.253906 22.617188 225.53125 17.257813 C 223.851563 13.097656 225.996094 11.804688 228.53125 10.257813 C 236.730469 5.257813 242.730469 2.058594 250.332031 1.457031 C 243.132813 4.335938 237.332031 7.457031 230.613281 11.738281 C 227.757813 13.554688 230.730469 16.65625 226.292969 19.257813 L 203.730469 35.859375 L 229.8125 49.175781 C 225.570313 53.738281 218.933594 59.019531 216.210938 65.019531 C 215.171875 65.738281 214.210938 65.816406 212.53125 65.65625 "/>
<path style=" stroke:none;fill-rule:nonzero;fill:rgb(0%,0%,0%);fill-opacity:1;" d="M 194.851563 64.21875 C 201.253906 61.019531 207.730469 58.65625 213.253906 52.9375 C 214.300781 51.851563 214.371094 49.097656 213.011719 48.058594 L 186.210938 34.539063 C 197.570313 26.699219 209.492188 19.335938 219.890625 9.738281 C 221.972656 6.9375 224.691406 4.457031 224.773438 0.855469 L 219.652344 0.855469 C 215.09375 -0.980469 211.03125 1.070313 206.050781 3.097656 C 198.539063 6.15625 187.730469 10.65625 190.53125 16.9375 L 163.730469 35.65625 L 191.410156 49.175781 C 191.410156 49.175781 179.972656 56.457031 177.332031 66.257813 C 179.09375 67.058594 181.933594 67.058594 183.332031 66.21875 C 187.253906 67.65625 191.011719 64.9375 194.851563 64.21875 Z M 179.332031 65.65625 C 179.492188 61.816406 188.011719 51.9375 193.933594 49.457031 L 166.132813 35.65625 C 167.09375 34.539063 185.050781 22.617188 192.332031 17.257813 C 190.652344 13.097656 192.796875 11.804688 195.332031 10.257813 C 203.53125 5.257813 209.53125 2.058594 217.132813 1.457031 C 209.933594 4.335938 204.132813 7.457031 197.410156 11.738281 C 194.558594 13.554688 197.53125 16.65625 193.09375 19.257813 L 170.53125 35.859375 L 196.613281 49.175781 C 192.371094 53.738281 185.730469 59.019531 183.011719 65.019531 C 181.972656 65.738281 181.011719 65.816406 179.332031 65.65625 "/>
<path style=" stroke:none;fill-rule:nonzero;fill:rgb(0%,0%,0%);fill-opacity:1;" d="M 162.453125 64.21875 C 168.851563 61.019531 175.332031 58.65625 180.851563 52.9375 C 181.898438 51.851563 181.972656 49.097656 180.613281 48.058594 L 153.8125 34.539063 C 165.171875 26.699219 177.09375 19.335938 187.492188 9.738281 C 189.570313 6.9375 192.292969 4.457031 192.371094 0.855469 L 187.253906 0.855469 C 182.691406 -0.980469 178.628906 1.070313 173.652344 3.097656 C 166.140625 6.15625 155.332031 10.65625 158.132813 16.9375 L 131.332031 35.65625 L 159.011719 49.175781 C 159.011719 49.175781 147.570313 56.457031 144.933594 66.257813 C 146.691406 67.058594 149.53125 67.058594 150.933594 66.21875 C 154.851563 67.65625 158.613281 64.9375 162.453125 64.21875 Z M 190.332031 2.855469 C 185.332031 12.058594 150.933594 34.457031 150.933594 34.457031 L 178.53125 48.859375 C 181.132813 50.457031 180.210938 51.449219 179.132813 52.257813 C 171.132813 58.257813 165.730469 61.859375 154.132813 65.257813 C 152.132813 65.65625 153.1875 63.636719 153.730469 62.859375 C 156.53125 58.859375 160.933594 53.457031 166.730469 49.058594 L 141.730469 35.65625 L 163.933594 19.855469 C 165.730469 18.65625 165.730469 15.257813 165.730469 15.257813 C 165.933594 13.65625 167.730469 12.457031 167.730469 12.457031 L 182.933594 4.058594 C 186.730469 2.257813 190.332031 2.855469 190.332031 2.855469 Z M 146.933594 65.65625 C 147.09375 61.816406 155.613281 51.9375 161.53125 49.457031 L 133.730469 35.65625 C 134.691406 34.539063 152.652344 22.617188 159.933594 17.257813 C 158.253906 13.097656 160.394531 11.804688 162.933594 10.257813 C 171.132813 5.257813 177.132813 2.058594 184.730469 1.457031 C 177.53125 4.335938 171.730469 7.457031 165.011719 11.738281 C 162.160156 13.554688 165.132813 16.65625 160.691406 19.257813 L 138.132813 35.859375 L 164.210938 49.175781 C 159.972656 53.738281 153.332031 59.019531 150.613281 65.019531 C 149.570313 65.738281 148.613281 65.816406 146.933594 65.65625 "/>
<path style=" stroke:none;fill-rule:nonzero;fill:rgb(0%,0%,0%);fill-opacity:1;" d="M 129.253906 64.21875 C 135.652344 61.019531 142.132813 58.65625 147.652344 52.9375 C 148.699219 51.851563 148.773438 49.097656 147.410156 48.058594 L 120.613281 34.539063 C 131.972656 26.699219 143.890625 19.335938 154.292969 9.738281 C 156.371094 6.9375 159.09375 4.457031 159.171875 0.855469 L 154.050781 0.855469 C 149.492188 -0.980469 145.429688 1.070313 140.453125 3.097656 C 132.941406 6.15625 122.132813 10.65625 124.933594 16.9375 L 98.132813 35.65625 L 125.8125 49.175781 C 125.8125 49.175781 114.371094 56.457031 111.730469 66.257813 C 113.492188 67.058594 116.332031 67.058594 117.730469 66.21875 C 121.652344 67.65625 125.410156 64.9375 129.253906 64.21875 Z M 113.730469 65.65625 C 113.890625 61.816406 122.410156 51.9375 128.332031 49.457031 L 100.53125 35.65625 C 101.492188 34.539063 119.453125 22.617188 126.730469 17.257813 C 125.050781 13.097656 127.195313 11.804688 129.730469 10.257813 C 137.933594 5.257813 143.933594 2.058594 151.53125 1.457031 C 144.332031 4.335938 138.53125 7.457031 131.8125 11.738281 C 128.960938 13.554688 131.933594 16.65625 127.492188 19.257813 L 104.933594 35.859375 L 131.011719 49.175781 C 126.769531 53.738281 120.132813 59.019531 117.410156 65.019531 C 116.371094 65.738281 115.410156 65.816406 113.730469 65.65625 "/>
<path style=" stroke:none;fill-rule:nonzero;fill:rgb(0%,0%,0%);fill-opacity:1;" d="M 96.851563 64.21875 C 103.253906 61.019531 109.730469 58.65625 115.253906 52.9375 C 116.300781 51.851563 116.371094 49.097656 115.011719 48.058594 L 88.210938 34.539063 C 99.570313 26.699219 111.492188 19.335938 121.890625 9.738281 C 123.972656 6.9375 126.691406 4.457031 126.769531 0.855469 L 121.652344 0.855469 C 117.089844 -0.980469 113.03125 1.070313 108.050781 3.097656 C 100.539063 6.15625 89.730469 10.65625 92.53125 16.9375 L 65.730469 35.65625 L 93.410156 49.175781 C 93.410156 49.175781 81.972656 56.457031 79.332031 66.257813 C 81.089844 67.058594 83.929688 67.058594 85.332031 66.21875 C 89.25 67.65625 93.011719 64.9375 96.851563 64.21875 Z M 124.730469 2.855469 C 119.730469 12.058594 85.332031 34.457031 85.332031 34.457031 L 112.933594 48.859375 C 115.53125 50.457031 114.609375 51.449219 113.53125 52.257813 C 105.53125 58.257813 100.132813 61.859375 88.53125 65.257813 C 86.53125 65.65625 87.585938 63.636719 88.132813 62.859375 C 90.929688 58.859375 95.332031 53.457031 101.132813 49.058594 L 76.132813 35.65625 L 98.332031 19.855469 C 100.132813 18.65625 100.132813 15.257813 100.132813 15.257813 C 100.332031 13.65625 102.132813 12.457031 102.132813 12.457031 L 117.332031 4.058594 C 121.132813 2.257813 124.730469 2.855469 124.730469 2.855469 Z M 81.332031 65.65625 C 81.492188 61.816406 90.011719 51.9375 95.929688 49.457031 L 68.132813 35.65625 C 69.089844 34.539063 87.050781 22.617188 94.332031 17.257813 C 92.652344 13.097656 94.796875 11.804688 97.332031 10.257813 C 105.53125 5.257813 111.53125 2.058594 119.132813 1.457031 C 111.933594 4.335938 106.132813 7.457031 99.410156 11.738281 C 96.558594 13.554688 99.53125 16.65625 95.089844 19.257813 L 72.53125 35.859375 L 98.609375 49.175781 C 94.371094 53.738281 87.730469 59.019531 85.011719 65.019531 C 83.972656 65.738281 83.011719 65.816406 81.332031 65.65625 "/>
<path style=" stroke:none;fill-rule:nonzero;fill:rgb(0%,0%,0%);fill-opacity:1;" d="M 63.652344 64.21875 C 70.050781 61.019531 76.53125 58.65625 82.050781 52.9375 C 83.097656 51.851563 83.171875 49.097656 81.8125 48.058594 L 55.011719 34.539063 C 66.371094 26.699219 78.292969 19.335938 88.691406 9.738281 C 90.773438 6.9375 93.492188 4.457031 93.570313 0.855469 L 88.453125 0.855469 C 83.890625 -0.980469 79.828125 1.070313 74.851563 3.097656 C 67.339844 6.15625 56.53125 10.65625 59.332031 16.9375 L 32.53125 35.65625 L 60.210938 49.175781 C 60.210938 49.175781 48.773438 56.457031 46.132813 66.257813 C 47.890625 67.058594 50.730469 67.058594 52.132813 66.21875 C 56.050781 67.65625 59.8125 64.9375 63.652344 64.21875 Z M 48.132813 65.65625 C 48.292969 61.816406 56.8125 51.9375 62.730469 49.457031 L 34.929688 35.65625 C 35.890625 34.539063 53.851563 22.617188 61.132813 17.257813 C 59.453125 13.097656 61.59375 11.804688 64.132813 10.257813 C 72.332031 5.257813 78.332031 2.058594 85.929688 1.457031 C 78.730469 4.335938 72.929688 7.457031 66.210938 11.738281 C 63.359375 13.554688 66.332031 16.65625 61.890625 19.257813 L 39.332031 35.859375 L 65.410156 49.175781 C 61.171875 53.738281 54.53125 59.019531 51.8125 65.019531 C 50.773438 65.738281 49.8125 65.816406 48.132813 65.65625 "/>
<path style=" stroke:none;fill-rule:nonzero;fill:rgb(0%,0%,0%);fill-opacity:1;" d="M 31.25 64.21875 C 37.652344 61.019531 44.132813 58.65625 49.652344 52.9375 C 50.699219 51.851563 50.773438 49.097656 49.410156 48.058594 L 22.609375 34.539063 C 33.972656 26.699219 45.890625 19.335938 56.292969 9.738281 C 58.371094 6.9375 61.089844 4.457031 61.171875 0.855469 L 56.050781 0.855469 C 51.492188 -0.980469 47.429688 1.070313 42.453125 3.097656 C 34.941406 6.15625 24.132813 10.65625 26.929688 16.9375 L 0.132813 35.65625 L 27.8125 49.175781 C 27.8125 49.175781 16.371094 56.457031 13.730469 66.257813 C 15.492188 67.058594 18.332031 67.058594 19.730469 66.21875 C 23.652344 67.65625 27.410156 64.9375 31.25 64.21875 Z M 59.132813 2.855469 C 54.132813 12.058594 19.730469 34.457031 19.730469 34.457031 L 47.332031 48.859375 C 49.929688 50.457031 49.007813 51.449219 47.929688 52.257813 C 39.929688 58.257813 34.53125 61.859375 22.929688 65.257813 C 20.929688 65.65625 21.988281 63.636719 22.53125 62.859375 C 25.332031 58.859375 29.730469 53.457031 35.53125 49.058594 L 10.53125 35.65625 L 32.730469 19.855469 C 34.53125 18.65625 34.53125 15.257813 34.53125 15.257813 C 34.730469 13.65625 36.53125 12.457031 36.53125 12.457031 L 51.730469 4.058594 C 55.53125 2.257813 59.132813 2.855469 59.132813 2.855469 Z M 15.730469 65.65625 C 15.890625 61.816406 24.410156 51.9375 30.332031 49.457031 L 2.53125 35.65625 C 3.492188 34.539063 21.453125 22.617188 28.730469 17.257813 C 27.050781 13.097656 29.195313 11.804688 31.730469 10.257813 C 39.929688 5.257813 45.929688 2.058594 53.53125 1.457031 C 46.332031 4.335938 40.53125 7.457031 33.8125 11.738281 C 30.957031 13.554688 33.929688 16.65625 29.492188 19.257813 L 6.929688 35.859375 L 33.011719 49.175781 C 28.769531 53.738281 22.132813 59.019531 19.410156 65.019531 C 18.371094 65.738281 17.410156 65.816406 15.730469 65.65625 "/>
</g>
</svg>
