<?xml version="1.0" encoding="UTF-8"?>
<svg xmlns="http://www.w3.org/2000/svg" xmlns:xlink="http://www.w3.org/1999/xlink" width="516pt" height="185pt" viewBox="0 0 516 185" version="1.1">
<g id="surface1">
<path style=" stroke:none;fill-rule:nonzero;fill:rgb(0%,0%,0%);fill-opacity:1;" d="M 0.75 0.84375 L 0.75 184.15625 L 515.746094 184.128906 L 515.746094 0.84375 Z M 15.800781 75.117188 C 16.132813 75.617188 16.65625 76.890625 16.65625 76.890625 L 3.960938 76.894531 L 3.9375 63.117188 C 3.9375 63.117188 12.246094 62.152344 19.183594 63.886719 C 16.730469 65.003906 12.179688 68.042969 10.257813 70.914063 C 8.230469 73.9375 10.257813 76.261719 15.800781 75.117188 Z M 16.757813 76.863281 L 36 76.886719 C 36 76.886719 36.921875 79.144531 37.035156 83.097656 C 37.152344 87.054688 36.25 95.59375 36.25 95.59375 L 16.019531 95.59375 C 16.019531 95.59375 17.339844 92.679688 17.269531 87.199219 C 17.203125 81.71875 16.757813 76.863281 16.757813 76.863281 Z M 165.710938 57.425781 L 170.636719 64.125 C 170.636719 64.125 164.890625 67.492188 165.214844 72.335938 C 165.21875 72.421875 175.8125 72.503906 175.8125 72.503906 L 177.082031 76.863281 L 157.351563 76.863281 C 157.351563 76.863281 155.019531 70.6875 151.964844 65.902344 C 148.914063 61.117188 145.355469 57.703125 145.355469 57.703125 Z M 160.105469 52.265625 L 180.972656 52.324219 L 183.027344 54.484375 L 177.871094 57.390625 L 165.859375 57.367188 Z M 217.46875 76.863281 C 224.015625 76.917969 231.199219 76.886719 237.304688 76.886719 C 238.304688 82.992188 237.730469 89.429688 236.953125 95.59375 C 232.039063 95.683594 221.777344 95.710938 217.148438 95.617188 C 218.148438 89.679688 218.1875 82.800781 217.46875 76.863281 Z M 277.445313 76.863281 C 275.28125 71.089844 272.027344 64.960938 268.640625 59.796875 C 275.347656 59.683594 282.402344 59.445313 287.359375 59.179688 C 291.246094 64.453125 295.230469 70.535156 297.171875 76.863281 C 291.402344 77.085938 283.996094 76.863281 277.445313 76.863281 Z M 297.300781 95.667969 C 296.191406 98.941406 294.109375 102.589844 292.386719 105.695313 C 287.796875 105.816406 280.15625 105.757813 272.667969 105.414063 C 275.160156 101.109375 276.269531 97.863281 277.324219 95.640625 C 283.871094 95.640625 290.753906 95.667969 297.300781 95.667969 Z M 277.289063 76.886719 C 279.007813 81.328125 277.9375 90.898438 277.191406 95.59375 C 271.277344 95.683594 263.867188 95.671875 257.429688 95.617188 C 258.371094 89.179688 257.917969 83.355469 257.308594 76.863281 C 263.96875 76.863281 271.292969 76.886719 277.289063 76.886719 Z M 283.894531 117.382813 C 278.761719 116.5625 270.433594 115 266.164063 114.425781 C 268.105469 111.984375 269.558594 109.605469 271.605469 106.824219 C 273.027344 108.011719 281.230469 114.496094 283.894531 117.382813 Z M 257.339844 95.667969 C 254.730469 101.882813 251.066406 108.042969 246.796875 113.539063 C 240.523438 113.371094 233.503906 113.289063 226.898438 113.457031 C 231.0625 108.238281 234.636719 101.777344 237.132813 95.617188 C 243.03125 95.617188 251.035156 95.59375 257.339844 95.667969 Z M 237.425781 76.863281 C 236.980469 76.101563 236.578125 74.683594 236.414063 73.90625 C 239.101563 73.960938 251.484375 73.953125 255.925781 73.785156 C 256.140625 74.367188 256.960938 75.769531 257.140625 76.863281 C 250.59375 76.863281 243.972656 76.863281 237.425781 76.863281 Z M 197.628906 76.835938 C 197.257813 75.722656 196.359375 74.066406 195.503906 72.867188 C 199.480469 72.820313 212.003906 73.304688 216.070313 73.460938 C 216.347656 74.292969 216.988281 76.03125 217.320313 76.863281 C 211.007813 76.863281 204.179688 76.78125 197.628906 76.835938 Z M 217.101563 95.667969 C 214.773438 102.160156 210.4375 108.941406 206.21875 114.324219 C 199.394531 114.488281 193.429688 114.988281 185.800781 114.953125 C 190.242188 109.292969 194.441406 102.273438 197.328125 95.609375 C 204.210938 95.667969 214.199219 95.59375 217.101563 95.667969 Z M 197.480469 76.863281 C 198.699219 82.855469 198.144531 89.375 197.203125 95.59375 C 196.09375 95.59375 178.046875 95.59375 177.550781 95.609375 C 178.273438 89.894531 178.554688 82.402344 177.222656 76.851563 C 182.851563 76.863281 192.207031 76.863281 197.480469 76.863281 Z M 177.421875 95.609375 C 176.863281 97.777344 175.796875 100.046875 175.019531 102.101563 C 168.136719 102.101563 161.324219 101.882813 154.386719 101.882813 C 155.757813 99.59375 156.308594 97.683594 157.183594 95.59375 C 163.84375 95.59375 170.59375 95.667969 177.421875 95.609375 Z M 157.226563 76.972656 C 158.445313 82.910156 158.253906 89.652344 157.035156 95.59375 C 156.199219 95.59375 137.601563 95.59375 136.757813 95.609375 C 137.8125 89.671875 137.894531 82.851563 136.839844 76.800781 C 143.941406 76.96875 151.507813 76.417969 157.226563 76.972656 Z M 124.980469 57.484375 L 118.933594 51.695313 C 118.933594 51.695313 125.46875 51.453125 128.382813 51.382813 C 131.296875 51.3125 138.011719 51.277344 138.011719 51.277344 L 145.238281 57.703125 Z M 124.847656 57.566406 C 124.847656 57.566406 127.996094 61.160156 131.050781 65.390625 C 134.101563 69.625 136.683594 76.742188 136.683594 76.742188 L 117.105469 76.742188 C 117.105469 76.742188 116.679688 73.933594 112.933594 67.898438 C 109.1875 61.863281 105.628906 57.546875 105.628906 57.546875 Z M 136.636719 95.59375 C 135.859375 97.535156 135.171875 99.875 134.003906 101.652344 C 127.652344 101.804688 121.664063 101.433594 115.339844 101.488281 C 116.28125 99.769531 116.566406 97.671875 117.191406 95.59375 C 123.574219 95.648438 130.324219 95.59375 136.636719 95.59375 Z M 116.949219 76.769531 C 116.949219 76.769531 117.710938 80.464844 117.75 85.046875 C 117.789063 89.625 117.09375 95.5 117.09375 95.5 L 96.644531 95.542969 C 96.644531 95.542969 97.855469 92.816406 97.785156 87.476563 C 97.71875 82.132813 96.480469 76.777344 96.480469 76.777344 Z M 96.554688 95.621094 L 93.71875 101.386719 L 81.277344 101.558594 L 91.226563 106.433594 L 85.292969 115.238281 L 64.613281 115.675781 C 64.613281 115.675781 69.128906 109.441406 71.878906 105.328125 C 74.621094 101.234375 76.664063 95.59375 76.664063 95.59375 Z M 84.703125 57.644531 L 83.0625 55.710938 L 100.179688 53.148438 L 105.492188 57.539063 Z M 84.570313 57.636719 C 84.570313 57.636719 88.691406 62.117188 91.558594 66.308594 C 94.425781 70.496094 96.40625 76.6875 96.40625 76.6875 L 92.90625 76.84375 C 92.90625 76.84375 91.066406 70.679688 84.757813 65.332031 C 78.839844 60.316406 71.027344 59.035156 71.027344 59.035156 C 71.027344 59.035156 75.179688 58.417969 77.539063 58.210938 C 79.898438 58.003906 84.570313 57.636719 84.570313 57.636719 Z M 76.167969 76.960938 C 75.765625 76.121094 75.304688 75.296875 74.921875 74.429688 C 80.808594 74.804688 88.039063 74.878906 92.792969 76.863281 C 87.660156 76.863281 81.164063 77.027344 76.167969 76.960938 Z M 76.078125 77.019531 C 76.1875 77.128906 77.554688 89.574219 76.554688 95.566406 C 69.75 95.492188 56.269531 95.691406 56.160156 95.636719 C 56.992188 89.53125 56.980469 82.902344 56.148438 77.019531 C 62.695313 77.019531 69.582031 77.019531 76.078125 77.019531 Z M 64.5 115.664063 L 63.90625 116.167969 L 42.980469 117.292969 L 44.988281 114.3125 Z M 25.765625 114.191406 C 25.765625 114.191406 30.355469 108.773438 32.296875 104.957031 C 34.238281 101.140625 36.351563 95.59375 36.351563 95.59375 L 56.023438 95.59375 C 56.023438 95.59375 53.65625 102.179688 51.167969 106.136719 C 48.460938 110.4375 44.921875 114.191406 44.921875 114.191406 Z M 36.128906 76.882813 C 35.851563 75.902344 35.222656 74.527344 34.769531 73.546875 C 42.148438 73.242188 47.976563 73.253906 54.875 73.398438 C 55.488281 74.285156 55.820313 75.847656 56.039063 76.957031 C 49.492188 76.957031 42.46875 76.894531 36.128906 76.882813 Z M 15.84375 95.59375 C 15.84375 95.59375 14.816406 98.644531 14.050781 100.585938 C 13.289063 102.53125 11.777344 105.554688 11.777344 105.554688 L 3.960938 105.53125 L 3.976563 95.589844 Z M 17.582031 106.988281 C 11.738281 112.71875 3.96875 121.597656 3.96875 121.597656 L 3.933594 106.890625 C 3.933594 106.890625 13.363281 106.324219 17.582031 106.988281 Z M 25.59375 114.261719 C 24.261719 115.316406 21.542969 117.914063 20.101563 119.078125 C 15.136719 119.691406 9.644531 120.421875 4.875 121.476563 C 7.117188 119.1875 9.847656 116.054688 11.902344 114.167969 C 16.453125 114.167969 21.097656 114.261719 25.59375 114.261719 Z M 3.925781 181.136719 L 3.933594 122.847656 C 33.128906 115.964844 106.042969 115.847656 118.144531 116.3125 C 107.324219 111.375 85.789063 102.660156 85.789063 102.546875 C 120.808594 102.382813 154.464844 103.222656 187.964844 103.214844 C 179.695313 108.875 169.707031 111.816406 160.269531 115.757813 C 164.101563 116.148438 167.878906 116.496094 171.980469 116.3125 C 201.617188 116.421875 231.699219 113.148438 261.503906 115.480469 C 271.105469 116.3125 280.539063 117.867188 289.308594 120.308594 C 284.089844 115.980469 278.71875 110.785156 273.324219 106.433594 C 301.90625 107.65625 331.433594 104.046875 358.90625 105.046875 C 351.96875 110.820313 343.089844 112.152344 336.761719 118.808594 C 362.820313 118.378906 426.695313 125.191406 441.433594 124.304688 C 436.660156 120.863281 431.722656 117.644531 426.894531 114.316406 C 446.8125 115.746094 483.390625 106.601563 508.3125 106.988281 C 502.484375 111.503906 489.199219 120.289063 488.160156 123.03125 C 498.058594 121.53125 513.097656 122.140625 513.097656 122.140625 L 513.097656 181.152344 Z M 105.472656 115.023438 C 105.894531 114.53125 106.753906 113.703125 107.378906 112.984375 C 108.632813 113.554688 111.1875 114.570313 112.441406 115.21875 C 111.378906 115.226563 106.628906 115.082031 105.472656 115.023438 Z M 336.316406 73.246094 C 336.785156 74.363281 336.90625 75.703125 337.199219 76.863281 C 330.652344 76.863281 323.707031 76.835938 317.324219 76.835938 C 314.71875 70.398438 311.273438 63.710938 307.054688 58.105469 C 314.054688 57.765625 320.066406 57.574219 326.378906 57.644531 C 329.375 61.253906 332.875 65.585938 334.875 69.914063 C 333.871094 70.894531 332.792969 72.578125 332.792969 72.578125 C 332.792969 72.578125 334.21875 73.046875 336.316406 73.246094 Z M 337.335938 76.863281 C 344.105469 76.863281 351.464844 76.863281 357.734375 76.863281 C 358.734375 82.800781 358.386719 89.652344 357.390625 95.59375 C 350.730469 95.8125 343.886719 95.640625 337.117188 95.640625 C 338.117188 89.535156 338.335938 83.023438 337.335938 76.863281 Z M 378.132813 76.863281 C 384.570313 76.917969 390.769531 76.800781 397.347656 76.863281 C 398.402344 83.246094 398.296875 89.210938 397.355469 95.59375 C 391.21875 95.699219 384.15625 95.617188 377.664063 95.617188 C 378.882813 89.566406 379.074219 82.96875 378.132813 76.863281 Z M 477.011719 76.863281 C 477.011719 76.863281 478.046875 81.054688 478.039063 85.300781 C 478.03125 90.96875 476.851563 95.59375 476.851563 95.59375 L 457.3125 95.617188 C 457.3125 95.617188 458.792969 90.691406 458.699219 85.785156 C 458.605469 80.886719 457.082031 76.863281 457.082031 76.863281 Z M 465.75 57.230469 L 485.679688 57.167969 C 485.679688 57.167969 490.085938 62.371094 492.820313 66.609375 C 495.558594 70.84375 497.359375 76.863281 497.359375 76.863281 L 477.171875 76.863281 C 477.171875 76.863281 475.71875 71.636719 472.417969 66.03125 C 469.3125 60.753906 465.75 57.230469 465.75 57.230469 Z M 497.378906 95.667969 C 497.378906 95.667969 496.210938 98.75 495.210938 100.574219 C 494.210938 102.398438 491.773438 106.433594 491.773438 106.433594 L 469.792969 109.300781 C 469.792969 109.300781 473.222656 104.285156 474.636719 101.597656 C 476.046875 98.910156 476.972656 95.667969 476.972656 95.667969 Z M 457.140625 95.667969 C 457.140625 95.667969 454.734375 101.984375 452.652344 105.132813 C 450.574219 108.28125 447.429688 112.316406 447.429688 112.316406 C 447.429688 112.316406 442.011719 113.164063 436.574219 113.300781 C 431.277344 113.433594 426.59375 113.640625 426.59375 113.640625 C 426.59375 113.640625 431.488281 107.910156 433.722656 104.011719 C 435.957031 100.109375 437.132813 95.703125 437.132813 95.703125 Z M 446.371094 57.261719 L 444.375 54.484375 C 444.375 54.484375 448.617188 54.105469 453.265625 54.035156 C 457.914063 53.96875 462.648438 54.097656 462.648438 54.097656 L 465.613281 57.253906 Z M 446.234375 57.3125 C 446.234375 57.3125 449.171875 60.695313 451.191406 64.089844 C 453.089844 67.269531 455.53125 72.46875 455.53125 72.46875 L 424.117188 57.261719 C 424.117188 57.261719 431.136719 57.179688 433.148438 57.144531 C 435.160156 57.113281 446.234375 57.3125 446.234375 57.3125 Z M 455.894531 74.117188 L 456.980469 76.867188 L 437.570313 76.78125 L 437.003906 74.855469 Z M 437.535156 76.863281 C 437.535156 76.863281 438.425781 79.027344 438.210938 84.929688 C 437.992188 90.835938 437.03125 95.59375 437.03125 95.59375 L 417.734375 95.59375 C 417.734375 95.59375 418.960938 92.265625 418.441406 85.761719 C 417.921875 79.261719 417.507813 76.863281 417.507813 76.863281 Z M 426.449219 113.753906 L 416.015625 122.308594 L 398.003906 121.140625 L 406.527344 114.203125 Z M 417.59375 95.589844 C 417.59375 95.589844 414.523438 101.90625 411.472656 106.902344 C 408.421875 111.894531 406.414063 114.148438 406.414063 114.148438 L 385.71875 114.148438 C 385.71875 114.148438 390.480469 109.535156 393.316406 104.230469 C 395.234375 100.640625 397.464844 95.589844 397.464844 95.589844 Z M 396.929688 75.296875 L 416.925781 75.269531 L 417.40625 76.863281 L 397.492188 76.863281 Z M 353.332031 103.988281 C 353.332031 103.988281 354.773438 101.070313 355.765625 99.171875 C 356.757813 97.273438 357.484375 95.59375 357.484375 95.59375 L 377.519531 95.59375 C 377.519531 95.59375 374.933594 102.101563 372.363281 105.894531 C 369.792969 109.6875 366.175781 114.148438 366.175781 114.148438 L 346.074219 114.136719 C 346.074219 114.136719 351.882813 110.980469 356.402344 108.3125 C 359.382813 106.550781 361.625 104.046875 361.625 104.046875 Z M 366.304688 114.191406 L 385.554688 114.191406 L 379.273438 119.558594 C 379.273438 119.558594 366.546875 118.925781 361.582031 118.601563 C 361.257813 118.582031 366.304688 114.191406 366.304688 114.191406 Z M 357.859375 76.800781 C 357.859375 76.800781 356.78125 74.828125 356.46875 74.152344 C 363.804688 74.675781 377.761719 74.960938 377.761719 74.960938 L 377.972656 76.863281 Z M 336.992188 95.640625 C 335.65625 99.382813 334.773438 101.640625 333.105469 104.25 C 329.085938 104.390625 319.554688 104.910156 312.757813 105.027344 C 314.476563 102.195313 315.890625 98.609375 317.222656 95.554688 C 322.058594 95.59375 331.910156 95.707031 336.992188 95.640625 Z M 317.167969 76.851563 C 318.167969 82.734375 317.929688 89.902344 317.097656 95.566406 C 311.753906 95.566406 303.808594 95.5 297.480469 95.609375 C 298.035156 89.671875 298.355469 82.847656 297.304688 76.851563 C 303.835938 76.863281 310.675781 76.6875 317.167969 76.851563 Z M 345.910156 114.238281 C 344.949219 115.101563 343.3125 116.539063 341.734375 117.652344 C 341.207031 117.636719 340.664063 117.675781 339.96875 117.636719 C 341.632813 116.636719 342.773438 115.40625 345.910156 114.238281 Z M 497.617188 76.921875 L 513.019531 76.78125 L 513.019531 95.566406 L 497.558594 95.640625 C 497.558594 95.640625 498.476563 90.597656 498.476563 86.15625 C 498.476563 81.71875 497.617188 76.921875 497.617188 76.921875 Z M 505.78125 56.949219 L 513.042969 57.128906 L 513.042969 69.894531 C 509.78125 62.820313 505.78125 56.949219 505.78125 56.949219 Z M 513.042969 103.632813 L 513.042969 114.382813 C 513.042969 114.382813 508.5625 114.433594 506.121094 114.433594 C 508.507813 111.160156 513.042969 103.632813 513.042969 103.632813 Z M 505.925781 114.535156 C 503.378906 116.683594 500.761719 118.644531 498.15625 120.699219 C 495.65625 120.808594 493.605469 120.976563 491.273438 121.472656 C 493.9375 118.753906 497.179688 116.683594 500.152344 114.535156 C 502.09375 114.535156 503.980469 114.535156 505.925781 114.535156 Z M 513.394531 56.039063 C 500.40625 55.746094 486.136719 55.355469 474.011719 53.929688 C 456.085938 51.878906 438.824219 53.070313 420.898438 56.179688 C 431.40625 62.066406 446.039063 68.65625 454.699219 73.246094 C 427.304688 75.195313 360.519531 75.050781 335.761719 71.523438 C 346.253906 65.421875 359.128906 63.699219 370.394531 59.148438 C 336.699219 53.96875 291.328125 58.546875 273.65625 58.59375 C 265.554688 59.09375 239.160156 58.683594 229.203125 57.816406 C 239.300781 66.59375 245.558594 68.84375 252.347656 72.855469 C 239.4375 73.671875 195.625 71.359375 166.984375 71.136719 C 167.980469 66.453125 180.054688 58.269531 197.457031 51.046875 C 154.523438 52.855469 116.367188 45.226563 66.144531 58.757813 C 81.984375 62.375 87.484375 68.289063 90.839844 74.769531 C 72.304688 72.269531 38.433594 71.105469 14.519531 74.1875 C 10.933594 74.648438 11.015625 73.773438 11.832031 71.707031 C 13.339844 67.886719 22.761719 63.75 22.847656 63.265625 C 16.929688 60.894531 4.269531 61.640625 4.269531 61.640625 L 4.269531 3.746094 L 513.417969 3.757813 C 513.417969 3.757813 513.394531 38.613281 513.394531 56.039063 Z M 347.140625 57.925781 C 350.082031 58.148438 362.394531 59.03125 365.316406 59.535156 C 361.238281 60.8125 355.742188 62.53125 351.246094 63.699219 C 349.914063 61.757813 348.636719 59.703125 347.140625 57.925781 Z M 255.871094 73.605469 C 247.710938 69.027344 240.578125 64.53125 233.53125 59.703125 C 239.035156 60.003906 243.667969 59.820313 248.210938 60.230469 C 251.429688 64.335938 256.148438 73.4375 255.871094 73.605469 "/>
</g>
</svg>
