<?xml version="1.0" encoding="UTF-8"?>
<svg xmlns="http://www.w3.org/2000/svg" xmlns:xlink="http://www.w3.org/1999/xlink" width="538pt" height="22pt" viewBox="0 0 538 22" version="1.1">
<g id="surface1">
<path style=" stroke:none;fill-rule:nonzero;fill:rgb(0%,0%,0%);fill-opacity:1;" d="M 391.792969 10.40625 C 392.636719 12.414063 405.496094 12.757813 430.339844 11.28125 C 458.195313 9.617188 484.648438 11.28125 495.316406 12.546875 C 497.453125 12.8125 497.191406 12.363281 495.476563 12.125 C 456.371094 6.261719 389.839844 5.839844 391.792969 10.40625 "/>
<path style=" stroke:none;fill-rule:nonzero;fill:rgb(0%,0%,0%);fill-opacity:1;" d="M 242.910156 6.949219 C 242.910156 6.949219 241.378906 6.871094 242.59375 7.476563 C 257.300781 9.535156 292.679688 9.828125 328.953125 7.082031 C 346.460938 5.761719 357.230469 6.34375 362.167969 6.789063 C 375.105469 7.980469 377.773438 13.285156 357.628906 14.765625 C 344.847656 15.714844 337.984375 16.03125 295.132813 14.261719 C 272.402344 13.339844 252.46875 13.179688 241.378906 13.417969 C 199.769531 14.367188 178.195313 16.53125 173.628906 17.75 C 173.234375 17.855469 173.023438 18.195313 173.628906 18.195313 C 204.601563 18.195313 502.023438 17.855469 536.109375 17.90625 C 536.980469 17.933594 536.898438 17.640625 536.136719 17.535156 C 508.015625 12.863281 467.304688 11.726563 450.011719 11.859375 C 449.507813 11.859375 437.441406 12.335938 413.839844 13.3125 C 397.734375 13.972656 388.96875 13.179688 387.566406 10.9375 C 387.09375 7.214844 397.839844 6.554688 402.328125 6.449219 C 403.515625 6.421875 403.699219 6.261719 402.484375 6.027344 C 397.523438 5.023438 381.414063 2.488281 344.296875 2.515625 C 337.191406 2.515625 321.507813 3.492188 297.246094 5.761719 C 277.207031 7.609375 252.257813 7.398438 242.910156 6.949219 "/>
<path style=" stroke:none;fill-rule:nonzero;fill:rgb(0%,0%,0%);fill-opacity:1;" d="M 167.980469 11.515625 C 168.796875 11.28125 194.488281 9.351563 214.976563 9.800781 C 222.421875 9.960938 237.207031 10.988281 259.304688 11.832031 C 293.101563 13.128906 319.214844 13.628906 340.253906 13.417969 C 370.695313 13.101563 382.050781 5.945313 325.3125 8.980469 C 301.785156 10.25 289.484375 10.671875 270.527344 10.066406 C 268.679688 10.011719 260.414063 9.617188 245.761719 8.875 C 225.90625 7.898438 176.242188 8.746094 167.875 11.066406 C 167.875 11.066406 166.816406 11.359375 167.980469 11.515625 "/>
<path style=" stroke:none;fill-rule:nonzero;fill:rgb(0%,0%,0%);fill-opacity:1;" d="M 535.898438 19.464844 C 494.894531 19.515625 202.117188 19.304688 197.074219 19.4375 C 85.523438 22.632813 94.183594 1.828125 42.988281 12.175781 C 42.515625 12.28125 42.648438 12.625 43.203125 12.519531 C 88.746094 4.308594 125.867188 26.25 3.203125 19.253906 C 2.171875 19.753906 1.140625 20.257813 0.191406 21.65625 C 32.984375 21.65625 521.535156 21.65625 521.796875 21.65625 C 528.714844 20.46875 532.359375 20.386719 535.898438 20.042969 C 538.089844 19.832031 537.113281 19.4375 535.898438 19.464844 "/>
<path style=" stroke:none;fill-rule:nonzero;fill:rgb(0%,0%,0%);fill-opacity:1;" d="M 223.082031 6.816406 C 221.417969 6.554688 188.097656 3.621094 146.910156 8.242188 C 115.570313 11.78125 88.796875 9.351563 88.691406 9.351563 C 87.136719 9.5625 88.851563 9.851563 88.851563 9.851563 C 175.132813 25.300781 156.335938 13.046875 237.152344 12.148438 C 237.839844 12.148438 237.683594 11.78125 237.101563 11.703125 C 230.632813 10.988281 201.511719 8.71875 150.816406 14.632813 C 150.261719 14.683594 149.445313 14.605469 150.183594 14.210938 C 153.722656 12.363281 167.160156 7.027344 204.625 7.1875 C 222.367188 7.265625 223.1875 7.265625 223.1875 7.265625 C 224.03125 7.265625 224.320313 7.003906 223.082031 6.816406 "/>
<path style=" stroke:none;fill-rule:nonzero;fill:rgb(0%,0%,0%);fill-opacity:1;" d="M 7.109375 17.933594 C 82.039063 20.597656 89.378906 14.261719 72.71875 12.941406 C 47.476563 10.988281 33.484375 14.894531 31.347656 15.476563 C 30.449219 15.742188 30.054688 15.449219 30.449219 15.214844 C 32.695313 13.867188 41.246094 10.882813 55.269531 9.273438 C 64.773438 8.164063 78.582031 7.898438 96.773438 8.453125 C 115.386719 9.035156 146.066406 7.371094 158.660156 6.027344 C 177.484375 3.992188 196.046875 3.648438 214.316406 5.023438 C 220.996094 5.523438 232.640625 6.84375 237.945313 7.453125 C 239.609375 7.636719 238.738281 7.109375 237.945313 6.949219 C 233.246094 5.945313 229.417969 5.257813 227.226563 4.441406 C 226.910156 4.308594 226.75 4.097656 227.359375 4.152344 C 232.214844 4.519531 253.839844 6.15625 263.003906 6.15625 C 271.371094 6.132813 279.238281 5.917969 286.632813 5.46875 C 295.871094 4.890625 305.0625 4.125 309.945313 3.464844 C 311.527344 3.28125 310.921875 3.015625 309.8125 3.066406 C 260.785156 5.074219 239.398438 -0.101563 208.136719 0.929688 C 170.566406 2.144531 159.054688 5.390625 121.035156 6.710938 C 95.214844 7.609375 68.730469 4.996094 49.777344 6.871094 C 37.761719 8.058594 26.964844 10.039063 17.460938 13.074219 C 12.785156 14.554688 9.140625 16.269531 7.136719 17.113281 C 5.3125 17.855469 6.660156 17.90625 7.109375 17.933594 "/>
</g>
</svg>
