<?xml version="1.0" encoding="UTF-8"?>
<svg xmlns="http://www.w3.org/2000/svg" xmlns:xlink="http://www.w3.org/1999/xlink" width="531pt" height="22pt" viewBox="0 0 531 22" version="1.1">
<g id="surface1">
<path style=" stroke:none;fill-rule:nonzero;fill:rgb(0%,0%,0%);fill-opacity:1;" d="M 530.113281 20.347656 C 530.113281 20.347656 525.730469 19.6875 520.976563 18.816406 C 369.347656 18.816406 368.503906 18.816406 368.503906 18.816406 C 368.1875 18.816406 368.027344 19.109375 368.289063 19.265625 C 369.425781 19.875 370.667969 20.375 372.039063 21.007813 C 372.253906 21.007813 514.796875 21.035156 530.796875 20.984375 C 531.457031 20.984375 531.167969 20.535156 530.113281 20.347656 "/>
<path style=" stroke:none;fill-rule:nonzero;fill:rgb(0%,0%,0%);fill-opacity:1;" d="M 365.097656 16.835938 C 365.015625 16.835938 364.992188 16.996094 365.070313 17.074219 C 365.386719 17.417969 365.757813 17.867188 366.203125 18.15625 C 367.578125 18.132813 517.304688 18.183594 517.621094 18.15625 C 517.621094 18.15625 518.097656 18.183594 517.621094 17.894531 L 514.058594 16.835938 C 409.109375 16.863281 365.097656 16.835938 365.097656 16.835938 "/>
<path style=" stroke:none;fill-rule:nonzero;fill:rgb(0%,0%,0%);fill-opacity:1;" d="M 416.132813 11.53125 C 435.195313 12.191406 441.742188 12.269531 469.992188 13.246094 C 470.917969 13.273438 471.101563 14.328125 470.074219 14.355469 C 470.074219 14.355469 469.730469 14.488281 431.128906 14.988281 C 405.625 15.304688 370.613281 12.957031 366.203125 13.800781 C 364.121094 14.171875 363.75 15.175781 364.355469 16.125 C 365.070313 16.152344 497.664063 16.125 508.726563 16.125 C 509.175781 16.125 509.332031 15.992188 508.671875 15.78125 C 506.480469 15.070313 500.277344 13.21875 494.945313 9.894531 C 494.496094 9.601563 483.40625 10.898438 416.105469 10.976563 C 415.367188 10.976563 415.234375 11.503906 416.132813 11.53125 "/>
<path style=" stroke:none;fill-rule:nonzero;fill:rgb(0%,0%,0%);fill-opacity:1;" d="M 369.164063 20.613281 C 367.738281 20.007813 366.414063 19.503906 365.28125 18.871094 C 364.09375 18.871094 286.207031 18.84375 285.308594 18.84375 C 284.621094 18.816406 284.226563 18.238281 285.359375 18.183594 C 285.679688 18.15625 362.800781 18.210938 363.644531 18.183594 C 363.777344 18.15625 363.804688 18 363.695313 17.894531 C 363.328125 17.523438 362.984375 17.128906 362.71875 16.835938 C 362.058594 16.863281 277.835938 16.785156 277.097656 16.8125 C 276.542969 16.835938 276.359375 16.097656 277.070313 16.097656 C 279.605469 16.070313 362.296875 16.097656 362.269531 16.097656 C 361.929688 14.382813 361.847656 12.902344 365.070313 12.480469 C 372.304688 11.558594 399.972656 14.460938 444.144531 14.25 C 448.871094 14.222656 464.554688 14.222656 469.992188 14.011719 C 470.601563 13.984375 470.574219 13.589844 469.992188 13.589844 C 465.820313 13.484375 439.628906 13.089844 430.441406 12.613281 C 408.792969 11.476563 392.265625 10.949219 380.886719 10.6875 C 357.203125 10.132813 325.625 11.003906 286.179688 13.21875 C 256.316406 14.910156 226.351563 16.386719 225.953125 16.414063 C 225.164063 16.441406 225.242188 16.96875 225.953125 16.96875 C 226.589844 16.996094 263.445313 19.109375 279.183594 21.007813 C 279.472656 20.984375 368.738281 21.007813 369.1875 20.984375 C 369.503906 21.035156 369.453125 20.746094 369.164063 20.613281 "/>
<path style=" stroke:none;fill-rule:nonzero;fill:rgb(0%,0%,0%);fill-opacity:1;" d="M 165.890625 20.402344 C 138.589844 19.925781 120.292969 17.867188 111.449219 16.8125 C 84.4375 13.5625 109.652344 6.488281 206.257813 15.042969 C 232.636719 17.390625 216.820313 15.675781 240.320313 14.726563 C 244.039063 14.566406 250.113281 14.277344 258.589844 13.800781 C 323.722656 10.183594 366.652344 8.785156 406.945313 10.976563 C 407.605469 11.003906 407.605469 10.5 407.023438 10.449219 C 360.871094 7.4375 315.910156 9.578125 286.65625 10.367188 C 251.9375 11.320313 227.855469 10.84375 219.964844 9.816406 C 217.746094 9.523438 219.089844 8.707031 220.835938 8.519531 C 241.425781 9.367188 338.695313 10.632813 382.785156 5.273438 C 383.789063 4.878906 382.761719 4.773438 382.761719 4.773438 C 381.757813 4.691406 329.71875 8.175781 271.128906 6.488281 C 234.140625 5.429688 188.492188 7.070313 186.035156 7.175781 C 175.5 7.519531 171.277344 6.988281 169.613281 6.488281 C 168.636719 6.199219 169.296875 5.617188 169.796875 5.511719 C 175.210938 4.191406 234.140625 4.640625 261.574219 5.0625 C 308.277344 5.722656 333.28125 5.800781 338.507813 4.984375 C 338.878906 4.929688 339.273438 4.347656 338.457031 4.375 C 331.011719 4.664063 290.085938 2.976563 230.683594 0.574219 C 162.21875 -2.199219 127.476563 4.535156 92.148438 9.390625 C 58.589844 14.011719 28.992188 17.15625 1.695313 19.238281 C 1.695313 19.238281 -1.582031 20.347656 1.957031 21.113281 L 165.914063 21.0625 C 166.894531 20.535156 165.890625 20.402344 165.890625 20.402344 Z M 25.246094 19.160156 C 46.734375 17.15625 68.914063 14.644531 92.410156 11.320313 C 92.410156 11.320313 92.410156 11.320313 104.292969 9.628906 C 136.585938 5.035156 169.957031 0.230469 230.601563 2.5 C 231.660156 2.554688 232.6875 2.605469 233.71875 2.660156 C 206.3125 2.394531 173.652344 2.582031 169.347656 3.609375 C 168.320313 3.875 167.183594 4.71875 167.15625 6.011719 C 167.132813 6.855469 167.632813 7.914063 169.058594 8.335938 C 171.777344 9.15625 177.535156 9.390625 186.113281 9.101563 C 186.113281 9.101563 186.113281 9.101563 186.800781 9.074219 C 193.296875 8.863281 204.226563 8.519531 217.109375 8.308594 C 216.953125 8.601563 216.871094 8.941406 216.871094 9.3125 C 216.847656 10.078125 217.214844 11.398438 219.699219 11.742188 C 223.421875 12.21875 230.3125 12.613281 239.816406 12.796875 C 231.421875 13.140625 228.09375 13.484375 226.089844 13.667969 C 222.894531 13.984375 222.894531 13.984375 208.425781 13.21875 L 206.339844 13.113281 C 165.890625 10.949219 140.808594 8.492188 126.789063 8.652344 C 99.882813 8.917969 99.539063 11.980469 99.355469 13.617188 C 99.117188 15.859375 101.019531 17.496094 111.210938 18.738281 C 112.160156 18.84375 113.324219 18.976563 114.671875 19.132813 L 25.246094 19.160156 "/>
<path style=" stroke:none;fill-rule:nonzero;fill:rgb(0%,0%,0%);fill-opacity:1;" d="M 268.570313 20.558594 C 261.574219 20.058594 209.453125 16.890625 197.28125 15.597656 C 128.347656 8.203125 80.292969 12.851563 115.59375 16.230469 C 121.507813 16.785156 129.664063 18.949219 196.914063 21.035156 C 199.023438 21.113281 250.429688 21.035156 268.542969 21.035156 C 269.148438 21.0625 269.308594 20.613281 268.570313 20.558594 Z M 196.914063 19.109375 C 143.15625 19.082031 127.554688 15.570313 120.054688 14.726563 C 118.234375 14.515625 116.941406 14.382813 115.699219 14.277344 C 114.644531 14.199219 113.71875 14.066406 112.875 13.984375 C 127.078125 13.089844 158.628906 13.429688 197.070313 17.523438 C 200.714844 17.917969 207.921875 18.5 216.425781 19.109375 L 196.914063 19.109375 "/>
</g>
</svg>
