<?xml version="1.0" encoding="UTF-8"?>
<svg xmlns="http://www.w3.org/2000/svg" xmlns:xlink="http://www.w3.org/1999/xlink" width="490pt" height="22pt" viewBox="0 0 490 22" version="1.1">
<g id="surface1">
<path style=" stroke:none;fill-rule:nonzero;fill:rgb(0%,0%,0%);fill-opacity:1;" d="M 181.339844 1.503906 C 181.6875 1.511719 181.820313 0.652344 181.300781 0.671875 C 154.996094 0.46875 61.324219 1.410156 0.550781 20.796875 C 0.0078125 20.972656 -0.203125 21.503906 0.484375 21.625 C 7.769531 21.695313 38.21875 21.695313 38.640625 21.605469 C 109.730469 2.769531 169.984375 1.886719 172.085938 1.835938 C 173.914063 1.789063 177.8125 1.648438 181.339844 1.503906 "/>
<path style=" stroke:none;fill-rule:nonzero;fill:rgb(0%,0%,0%);fill-opacity:1;" d="M 222.894531 1.523438 C 223.492188 1.523438 223.695313 0.621094 222.785156 0.617188 C 222.183594 0.617188 197.589844 1.882813 189.195313 2.234375 C 109.15625 5.058594 59.335938 18.070313 50.351563 20.757813 C 49.386719 21.046875 49.632813 21.511719 50.355469 21.519531 C 56.105469 21.585938 75.273438 21.464844 75.742188 21.464844 C 76.042969 21.464844 111.761719 16.589844 111.761719 16.589844 C 115.777344 14.054688 187.023438 3.238281 222.894531 1.523438 "/>
<path style=" stroke:none;fill-rule:nonzero;fill:rgb(0%,0%,0%);fill-opacity:1;" d="M 489.421875 20.796875 C 428.652344 1.410156 334.980469 0.46875 308.671875 0.671875 C 308.152344 0.652344 308.285156 1.511719 308.632813 1.503906 C 312.160156 1.648438 316.0625 1.789063 317.890625 1.835938 C 319.988281 1.886719 380.242188 2.769531 451.335938 21.605469 C 451.753906 21.695313 482.207031 21.695313 489.492188 21.625 C 490.175781 21.503906 489.964844 20.972656 489.421875 20.796875 "/>
<path style=" stroke:none;fill-rule:nonzero;fill:rgb(0%,0%,0%);fill-opacity:1;" d="M 439.621094 20.757813 C 430.636719 18.070313 380.820313 5.058594 300.777344 2.234375 C 292.386719 1.882813 267.789063 0.617188 267.191406 0.617188 C 266.28125 0.621094 266.480469 1.523438 267.078125 1.523438 C 302.949219 3.238281 374.195313 14.054688 378.214844 16.589844 C 378.214844 16.589844 413.929688 21.464844 414.230469 21.464844 C 414.703125 21.464844 433.867188 21.585938 439.621094 21.519531 C 440.339844 21.511719 440.589844 21.046875 439.621094 20.757813 "/>
<path style=" stroke:none;fill-rule:nonzero;fill:rgb(0%,0%,0%);fill-opacity:1;" d="M 347.105469 11.855469 C 331.015625 9.292969 285.753906 3.453125 245.003906 0.445313 C 244.996094 0.445313 244.992188 0.445313 244.988281 0.445313 C 244.980469 0.445313 244.976563 0.445313 244.972656 0.445313 C 204.21875 3.453125 158.957031 9.292969 142.871094 11.855469 C 142.234375 11.871094 142.164063 12.875 142.90625 12.945313 C 160.410156 12.675781 237.089844 11.070313 237.515625 11.070313 C 239.773438 10.132813 242.296875 9.277344 244.988281 8.492188 C 247.679688 9.277344 250.199219 10.132813 252.460938 11.070313 C 252.882813 11.070313 329.5625 12.675781 347.066406 12.945313 C 347.8125 12.875 347.742188 11.871094 347.105469 11.855469 "/>
<path style=" stroke:none;fill-rule:nonzero;fill:rgb(0%,0%,0%);fill-opacity:1;" d="M 231.148438 12.894531 C 170.894531 15.96875 140.65625 13.269531 139.414063 14.523438 C 138.789063 15.160156 124.644531 15.941406 91.675781 20.554688 C 91.035156 20.644531 91.121094 21.3125 91.671875 21.3125 C 91.871094 21.3125 216.046875 21.140625 216.046875 21.140625 C 216.046875 21.140625 226.621094 15.773438 231.179688 13.789063 C 231.472656 13.664063 231.949219 12.855469 231.148438 12.894531 "/>
<path style=" stroke:none;fill-rule:nonzero;fill:rgb(0%,0%,0%);fill-opacity:1;" d="M 398.296875 20.554688 C 365.328125 15.941406 351.1875 15.160156 350.558594 14.523438 C 349.316406 13.269531 319.078125 15.96875 258.824219 12.894531 C 258.023438 12.855469 258.5 13.664063 258.796875 13.789063 C 263.351563 15.773438 273.925781 21.140625 273.925781 21.140625 C 273.925781 21.140625 398.105469 21.3125 398.300781 21.3125 C 398.855469 21.3125 398.941406 20.644531 398.296875 20.554688 "/>
</g>
</svg>
