<?xml version="1.0" encoding="UTF-8"?>
<svg xmlns="http://www.w3.org/2000/svg" xmlns:xlink="http://www.w3.org/1999/xlink" width="523pt" height="154pt" viewBox="0 0 523 154" version="1.1">
<g id="surface1">
<path style=" stroke:none;fill-rule:nonzero;fill:rgb(0%,0%,0%);fill-opacity:1;" d="M 520.773438 10.460938 C 372.847656 -12.339844 315.113281 46.980469 242.675781 18.265625 C 172.503906 -9.554688 145.585938 33.03125 59.515625 0.652344 C 57.332031 -0.171875 56.269531 0.574219 58.972656 2.660156 C 90.648438 25.601563 132.628906 26.929688 173.535156 25.835938 C 225.578125 24.445313 229.65625 49.164063 197.253906 43.988281 C 162.566406 38.449219 121.855469 25.757813 88.792969 41.515625 C 84.929688 43.523438 84.351563 44.839844 88.792969 42.984375 C 120.851563 32.941406 152.832031 45.378906 180.644531 54.648438 C 209.726563 64.34375 239.585938 54.03125 266.46875 47.539063 C 329.527344 36.109375 338.566406 76.304688 275.042969 79.832031 C 237.886719 83 171.757813 59.359375 138.773438 49.085938 C 91.03125 41.554688 52.074219 90.59375 2.96875 65.695313 C -0.121094 64.1875 -0.703125 66.621094 2.96875 68.785156 C 37.601563 92.167969 89.628906 73.925781 120.542969 67.238281 C 157.75 59.195313 166.402344 96.519531 98.835938 87.945313 C 67.425781 83.957031 38.523438 92.109375 13.300781 108.292969 C 11.023438 110.042969 9.527344 112.589844 14.457031 110.417969 C 71.585938 85.253906 104.785156 117.3125 142.25 102.082031 C 162.683594 96.519531 180.410156 76.742188 202.351563 84.929688 C 232.503906 96.722656 196.789063 104.089844 188.214844 104.089844 C 162.257813 102.082031 103.046875 109.1875 80.21875 131.820313 C 78.09375 133.597656 78.355469 134.886719 80.21875 133.828125 C 137.71875 101.203125 189.808594 142.738281 242.675781 98.527344 C 273.035156 70.972656 299.671875 108.464844 269.480469 110.65625 C 238.195313 113.050781 179.304688 124.25 165.964844 145.957031 C 165.25 147.472656 165.546875 149.019531 167.613281 147.464844 C 238.992188 111.003906 249.214844 142.199219 290.648438 120.234375 C 308.800781 110.113281 319.933594 83.976563 344.644531 87.945313 C 368.386719 91.753906 358.652344 111.234375 332.054688 114.671875 C 295.765625 119.359375 264.253906 130.457031 237.910156 151.777344 C 235.722656 153.476563 235.980469 154.996094 239.199219 153.527344 C 332.105469 105.863281 344.566406 145.570313 370.910156 109.109375 C 388.5625 84.46875 400.417969 54.339844 428.460938 36.417969 C 455.808594 20.195313 489.410156 11.621094 520.773438 12.703125 C 523.1875 12.914063 522.964844 10.800781 520.773438 10.460938 Z M 427.328125 34.480469 L 427.242188 34.53125 C 406.777344 47.417969 393.734375 68.351563 381.589844 88.542969 C 377.425781 95.46875 373.710938 101.195313 369.074219 107.816406 C 364.140625 114.726563 357.714844 121.429688 349.09375 123.320313 C 342.867188 124.503906 337.503906 124.960938 331.167969 124.839844 C 303.109375 124.734375 274.71875 134.105469 249.949219 145.6875 C 261.570313 137.855469 272.242188 132.484375 285.457031 127.816406 C 301.449219 122.203125 315.488281 118.933594 332.320313 116.898438 C 341.703125 115.785156 354.84375 111.394531 359.382813 102.132813 C 361.597656 97.644531 360.0625 92.285156 355.804688 89.652344 C 352.378906 87.421875 349.023438 86.207031 344.960938 85.722656 C 333.171875 84.035156 324.269531 87.816406 314.855469 96.105469 C 312.328125 98.316406 310.257813 100.261719 307.894531 102.652344 C 304.714844 105.886719 301.957031 108.546875 298.613281 111.613281 C 295.6875 114.296875 292.96875 116.296875 289.535156 118.285156 C 275.617188 126.226563 261.9375 127.433594 245.761719 126.378906 C 230.226563 125.128906 216.867188 126.523438 201.925781 130.953125 C 190.664063 134.382813 181.386719 138.066406 170.839844 143.296875 C 189.664063 123.125 250.441406 114.140625 269.625 112.894531 C 272.792969 112.742188 275.453125 112.117188 278.355469 110.839844 C 285.105469 108.097656 287.070313 100.296875 282.667969 94.492188 C 278.484375 88.984375 272.527344 86.09375 265.613281 86.21875 C 256.144531 86.222656 248.238281 90.5 241.171875 96.859375 C 229.007813 107.28125 216.296875 113.375 200.554688 116.328125 C 192.667969 117.761719 185.898438 118.394531 177.882813 118.4375 C 170.515625 118.484375 164.292969 118.378906 156.933594 118.082031 C 149.109375 117.742188 142.496094 117.65625 134.671875 117.789063 C 119.246094 117.832031 106.183594 120.261719 91.78125 125.777344 C 111.527344 114.164063 138.65625 109.046875 160.640625 106.890625 C 170.253906 105.921875 178.4375 105.757813 188.078125 106.328125 L 188.328125 106.328125 C 194.257813 106.027344 199.238281 105.128906 204.898438 103.335938 C 208.683594 102.164063 216.09375 99.3125 216.445313 94.5 C 216.914063 88.152344 206.878906 84.140625 203.128906 82.828125 C 195.984375 80.183594 189.152344 79.949219 181.84375 82.09375 C 175.230469 84.117188 169.832031 86.445313 163.816406 89.851563 C 159.800781 92.027344 156.375 93.800781 152.28125 95.828125 C 148.675781 97.597656 145.496094 98.820313 141.632813 99.921875 L 141.425781 99.992188 C 132.820313 103.320313 124.914063 104.574219 115.699219 104.078125 C 106.953125 103.496094 99.597656 102.597656 90.96875 101.054688 C 83.25 99.75 76.679688 98.960938 68.871094 98.40625 C 53.484375 97.328125 40.265625 98.941406 25.59375 103.695313 C 48.964844 91.210938 72.242188 86.890625 98.535156 90.167969 C 111.128906 91.835938 140.546875 94.015625 149.625 81.707031 C 152.273438 78.117188 151.917969 73.253906 148.777344 70.09375 C 146.203125 67.453125 143.359375 65.84375 139.769531 64.996094 C 132.960938 63.40625 126.859375 63.421875 120.058594 65.050781 C 107.691406 68.007813 97.242188 70.46875 84.851563 73.339844 C 74.3125 75.667969 65.269531 77.007813 54.503906 77.824219 C 44.75 78.574219 36.414063 78.09375 26.816406 76.226563 C 22.863281 75.445313 19.585938 74.476563 15.839844 72.992188 C 25.09375 75.378906 33.363281 75.769531 42.800781 74.273438 C 50.023438 73.160156 56.039063 71.671875 62.949219 69.289063 C 74.65625 64.996094 84.527344 61.324219 96.199219 56.925781 C 101.242188 55.183594 105.574219 53.917969 110.761719 52.671875 C 120.222656 50.335938 128.625 49.910156 138.269531 51.28125 L 177.132813 63.640625 C 188.71875 67.246094 198.570313 70.066406 210.3125 73.128906 C 221.777344 76.167969 231.578125 78.261719 243.285156 80.171875 C 254.371094 82.136719 263.941406 82.707031 275.183594 82.070313 C 285.707031 81.707031 294.566406 80.019531 304.488281 76.484375 C 309.277344 74.824219 313.023438 72.5 316.644531 68.949219 C 318.484375 67.148438 319.640625 65.199219 320.335938 62.71875 C 322.054688 56.6875 317.808594 51.277344 312.738281 48.535156 C 310.246094 47.132813 307.988281 46.207031 305.230469 45.453125 C 300.34375 44.121094 296.078125 43.484375 291.019531 43.332031 C 282.195313 43.070313 274.710938 43.671875 266.042969 45.339844 L 242.03125 51.355469 C 234.566406 53.191406 228.183594 54.402344 220.566406 55.425781 C 206.789063 57.566406 194.671875 56.667969 181.359375 52.523438 C 158.261719 44.925781 136.527344 36.582031 111.886719 37.050781 C 123.203125 35.644531 132.929688 35.695313 144.234375 37.214844 C 155.628906 38.636719 165.199219 40.203125 176.449219 42.492188 C 183.609375 43.929688 189.675781 45.027344 196.882813 46.199219 C 200.160156 46.753906 202.972656 46.972656 206.300781 46.9375 C 209.78125 47.039063 212.761719 46.425781 215.921875 44.957031 C 218.984375 43.761719 220.679688 40.585938 219.964844 37.371094 C 218.089844 30.871094 207.773438 27.414063 202.851563 26.246094 C 193.019531 23.90625 183.726563 23.257813 173.464844 23.59375 C 139.34375 24.695313 98.90625 23.8125 68.652344 6.257813 C 92.65625 14.105469 116.035156 17.285156 140.902344 15.082031 C 149.671875 14.308594 157.0625 13.507813 165.796875 12.386719 C 173.394531 11.425781 179.84375 10.890625 187.496094 10.582031 C 207.042969 9.992188 223.726563 12.992188 241.84375 20.347656 C 259.097656 27.113281 275.023438 29.574219 293.515625 28.335938 C 302.4375 27.824219 309.953125 26.976563 318.765625 25.480469 C 326.601563 24.171875 333.195313 22.949219 340.980469 21.367188 C 358.890625 17.644531 374.082031 14.851563 392.144531 11.953125 C 432.027344 5.984375 466.464844 5.59375 506.46875 10.667969 C 477.183594 12.289063 452.648438 19.675781 427.328125 34.480469 "/>
</g>
</svg>
