<?xml version="1.0" encoding="UTF-8"?>
<svg xmlns="http://www.w3.org/2000/svg" xmlns:xlink="http://www.w3.org/1999/xlink" width="384pt" height="676pt" viewBox="0 0 384 676" version="1.1">
<g id="surface1">
<path style=" stroke:none;fill-rule:nonzero;fill:rgb(0%,0%,0%);fill-opacity:1;" d="M 184.101563 496.5 C 182.5 473.800781 167.300781 456.699219 161 436 C 157.101563 425.101563 157.800781 411 163.199219 401 C 172 378 193 354.101563 179 327.5 C 172 313.601563 157.398438 306.898438 141.800781 309.101563 C 155 285.398438 174.5 264.101563 195.800781 244 C 212.898438 265 228.699219 286.398438 241.699219 309.101563 C 235.898438 309.101563 229.398438 308.800781 223.898438 310.300781 C 212 313.601563 203.699219 326.398438 200.398438 337.398438 C 196.300781 367.601563 219.601563 388.199219 224.898438 415.398438 C 226.300781 434.300781 217.101563 449.5 209.5 465 C 204.5 475.800781 198.398438 486.699219 199.898438 499.601563 C 202.398438 520.800781 205.601563 544 226.300781 555.300781 C 236.199219 559.601563 248.601563 557.101563 256.800781 551 C 263.5 546 268.398438 539.5 267.601563 531 C 267 524.101563 260.5 518.800781 254.898438 515.398438 C 243.398438 508.898438 231.601563 516.300781 222.699219 523.398438 C 221.5 524.199219 221.398438 522.300781 220.800781 521.699219 C 217 515.398438 217.898438 506.101563 222.199219 500.300781 C 240.800781 481.101563 266 477 287 463.101563 C 312.601563 450.5 337.800781 426.699219 353.5 401.898438 C 374.601563 370.699219 385.5 320.800781 361.898438 287.199219 C 352.101563 274.101563 338.601563 263 321.800781 266.300781 C 309.199219 268.300781 300.5 281.699219 297.601563 293 C 290.101563 313 293.699219 337.5 290.398438 359.199219 C 288.699219 368 287.398438 376.898438 283.199219 384.699219 C 282.300781 363.800781 284.398438 341.699219 273.101563 325.101563 C 269.800781 309.398438 259.699219 296.398438 250.300781 283.101563 L 209.800781 230.800781 L 209 229.398438 C 233.601563 202 244.101563 168.800781 248.101563 132.898438 L 248.601563 132.398438 C 253.5 137.5 259.5 139.800781 265.699219 141.800781 C 285.5 147.699219 305.199219 140.5 317.699219 124 C 318.699219 146.898438 328.699219 166.300781 346.800781 181.898438 C 352.5 184.898438 360.101563 188.300781 366.5 184.699219 C 365.5 182.699219 363 181.5 361.398438 179.5 C 339.601563 154.898438 338 120.5 340.800781 87.300781 C 340.5 64.5 329.101563 45 310.101563 31.101563 C 301.199219 23.300781 290.300781 20.199219 279.800781 16 C 249.601563 4 216.398438 14.699219 192 31.898438 L 191 31.898438 C 167.398438 14.800781 135.398438 5 105.800781 15.300781 C 79.5 22.199219 49.5 45.101563 44.398438 73.601563 C 40.300781 85.601563 45.101563 98 43.898438 110.800781 C 43.101563 138.601563 38.800781 165.5 17 184 C 17 184.5 17.101563 184.898438 17.5 185.199219 C 24 188.300781 30.601563 184.800781 36.199219 182.300781 C 54.699219 167 64.601563 147.199219 65.800781 124.300781 C 74 134.199219 84.300781 141.398438 96.199219 143.5 C 110.398438 144.699219 124.398438 142.5 134.601563 132.699219 L 135.101563 133.101563 C 135.199219 137.5 135.699219 141.601563 136.601563 145.601563 C 143.300781 175.398438 158.5 201.699219 179.800781 225.5 C 150.300781 255.601563 124.101563 287 111.101563 323.898438 C 99.398438 340.699219 100.601563 362.800781 100.800781 384.398438 L 100.300781 384.898438 C 90 362.898438 92.398438 335.800781 90 310.5 C 86.800781 295.601563 84.398438 279.5 70.601563 269.898438 C 61.398438 263.601563 46.898438 265.101563 38.199219 271.398438 C 13.601563 288.5 5.699219 316.300781 8.898438 345.5 C 14.898438 389.5 43.300781 428.601563 81.800781 454.699219 C 101.398438 467.800781 123 476.101563 143.5 486.898438 C 150.398438 490.898438 157.898438 495.800781 162.699219 502.699219 C 167 508.699219 165.101563 518.101563 161.5 523.800781 C 156.199219 519.898438 150.800781 516.199219 144.699219 514 C 136.398438 511.398438 128.199219 514.898438 121.898438 520.199219 C 117.699219 524.601563 114.898438 529.800781 116.199219 536.101563 C 117.101563 544.5 125.699219 550.898438 132.699219 554.601563 C 141.199219 559.398438 153.398438 558 161.5 553.101563 C 179.398438 539.199219 181.300781 517.300781 184.101563 496.5 Z M 276 335.699219 C 283.199219 351.101563 279.101563 371 281.300781 388.5 C 281.699219 388.699219 281.898438 389.5 282.5 389.199219 C 287.398438 385 287.699219 378.800781 289.699219 373.398438 C 298.300781 345.898438 289.699219 311.199219 302.601563 285.5 C 306.101563 275.898438 316.199219 268.101563 326.398438 267.800781 C 345.898438 267.5 361.898438 286.601563 367.898438 303.101563 C 384.398438 354.898438 358 402.300781 320.101563 437.898438 C 298.199219 456.601563 273.601563 469.199219 248.398438 479.898438 C 238.800781 484.699219 229.601563 490.300781 221.300781 498.199219 C 217.601563 503.199219 215.101563 509.101563 216.5 515.898438 C 217.601563 519.601563 218.699219 523.398438 221.5 526.5 C 230.898438 520 242.199219 510.699219 254.101563 517.601563 C 258.699219 519.898438 263.898438 524.199219 265.199219 529.398438 C 266 536.5 263.800781 543.199219 257.699219 547.601563 C 249.699219 554.601563 237.601563 557.601563 227.300781 553.398438 C 209.800781 544.300781 205.699219 525 203 507.5 C 201.101563 498.898438 201.300781 489 204.699219 481.101563 C 212.800781 459.199219 229.199219 440.101563 226.800781 414.398438 C 221.800781 388.101563 200 368.5 202.101563 339.5 C 204.800781 327.699219 214.199219 313.800781 227.300781 311.699219 C 232.199219 310.898438 237.800781 311.199219 242.898438 311.5 C 243.601563 312 245.398438 311.398438 246.5 311.898438 C 258.601563 314.199219 272.398438 322.898438 276 335.699219 Z M 134.898438 129.300781 C 125.5 139.898438 111.898438 142.300781 97.898438 141.5 C 84.398438 139.699219 72.898438 130.601563 64.300781 119.5 C 63.898438 119.601563 63.5 120.101563 63.101563 120.398438 C 64.5 144.601563 53.199219 164.699219 35 180.699219 C 30.398438 182.601563 25.898438 184.898438 20.199219 184.300781 C 41 164.800781 45.398438 138.101563 46.101563 110.101563 C 47.398438 97.300781 42.199219 84.699219 46.800781 72.898438 C 52.300781 46.101563 79.898438 24.601563 104.898438 17.898438 C 134.800781 6.5 167.398438 17.5 191.5 34.5 C 216 17.199219 249.199219 6 279.601563 18.199219 C 290.5 22.300781 301.5 26.101563 310.800781 34.300781 C 328.101563 47.398438 337.800781 65.5 338.601563 86.300781 C 335.699219 117.800781 337.5 150.300781 354.699219 174.898438 C 357.300781 178.101563 360.101563 181.398438 363.300781 184 C 353.300781 184.699219 345 179.101563 338.601563 170.800781 C 326.398438 156.5 319.398438 139.699219 320.398438 120.199219 C 320 119.800781 319.601563 119.199219 318.898438 119.5 C 308.101563 133.898438 293.101563 144.101563 274.300781 141.300781 C 264.699219 139.898438 255.300781 137.199219 248.601563 129.300781 C 247.898438 118.601563 245.800781 108.5 242.199219 99.101563 C 244.300781 91.199219 252.101563 82.898438 260.398438 81.5 C 266 81.398438 271.699219 81.300781 276 84.398438 C 280.199219 89.300781 284.601563 94.398438 283.199219 101.199219 C 281.800781 106.398438 276.699219 110.101563 271.699219 110.800781 C 268.601563 111.800781 264 109.601563 262.5 113.898438 C 261.5 117.800781 264.800781 120.699219 267.601563 123.101563 C 274.199219 126.699219 283.300781 124.5 289.898438 122.300781 C 300.300781 118.800781 309.601563 108.199219 310.101563 96.898438 C 313.699219 72.699219 293.699219 54.199219 275.300781 42.199219 C 269.601563 51 260.800781 62.5 249.101563 60.398438 C 241 56.800781 235 48.101563 230.199219 41 L 229 40 C 221.800781 42.199219 214.601563 44.199219 207.601563 46.699219 C 202.800781 42.800781 197.699219 39.398438 192.199219 37.101563 C 186.199219 38.898438 181.101563 42.699219 176.199219 47 C 169.101563 44.199219 161.800781 42.101563 154.300781 40.300781 C 148.699219 47.800781 142.398438 58.101563 133 60.898438 C 122.199219 61.5 113.601563 51.300781 109 42.898438 L 108 42.199219 C 92 53.300781 73.898438 68.800781 73.398438 89.199219 C 72.199219 101.300781 76.5 112.601563 87.101563 119.199219 C 95.398438 123.800781 106.699219 127.699219 116.199219 123.101563 C 118.898438 120.699219 122.398438 117.898438 121 113.898438 C 119.601563 109.699219 115.199219 112 112.300781 111.101563 C 107 110.398438 101.800781 106.5 100.300781 101.199219 C 99.300781 93.800781 104 87.5 109.699219 83.199219 C 118.601563 80.601563 130 80.898438 136.101563 89.5 C 138.398438 93.199219 142.5 97.101563 140.601563 101.699219 C 136.898438 110.199219 136.101563 119.800781 134.898438 129.300781 Z M 294.898438 117.300781 C 287.898438 121.398438 279.398438 123.398438 270.699219 122.101563 C 268.199219 120.898438 265.800781 119 264.699219 116.300781 C 264.601563 115.300781 264.601563 114.300781 265.699219 113.699219 C 273.300781 113.898438 280.601563 111.601563 284.398438 104.601563 C 288.601563 96.898438 283.300781 89.699219 278.601563 83.898438 C 273.800781 78.101563 265.800781 79.101563 258.699219 79.398438 C 251.101563 81.300781 243.699219 88.800781 240.699219 95.898438 C 232.699219 79.199219 223.101563 63 209.300781 48.699219 C 215.5 46.398438 222 44.601563 228.5 42.699219 C 234.601563 51.199219 242.800781 64 254.601563 63.101563 C 263.601563 61.101563 271.101563 52.800781 276 45.101563 C 291.5 56 308.699219 71.398438 307.898438 91.601563 C 308.199219 102.101563 304.101563 111.800781 294.898438 117.300781 Z M 98.199219 102.398438 C 100.199219 108.5 106.5 113.101563 112.800781 113.5 C 114.699219 114.300781 117.699219 112.601563 118.800781 114.898438 C 119 117.898438 116.398438 120.398438 114 121.601563 C 108.5 123.898438 101.601563 122.601563 96.199219 120.898438 C 88.101563 118.699219 79.398438 111.5 77 103.101563 C 72.601563 85.601563 79.300781 69.101563 92.601563 57.101563 C 97.300781 52.398438 102.398438 48.800781 107.5 45.300781 C 113.5 54.101563 122.800781 65.398438 134.898438 62.800781 C 143.398438 59.398438 150.101563 50.300781 155 42.898438 C 161.5 44.5 167.800781 46.398438 174 48.699219 L 174 49.101563 C 160.101563 63.398438 151 79.601563 142.800781 96.199219 C 139.5 88.699219 132.101563 80.601563 123.601563 79.398438 C 116.699219 79.300781 109.5 78.699219 104.898438 84.199219 C 100.699219 89.5 96 95.101563 98.199219 102.398438 Z M 173.300781 215 C 154.800781 190.800781 140.601563 164.800781 137.300781 134.300781 C 137.101563 114.398438 143.601563 96.601563 153.601563 80.601563 C 163 65.699219 173.601563 47.101563 191 39.800781 C 196.601563 40.699219 200.800781 44.699219 205.398438 47.898438 C 220.699219 62.601563 230.101563 79.699219 238.800781 97.101563 C 243.101563 107.300781 245 118.601563 246.5 130 C 242.5 166.300781 232.601563 200.101563 207.800781 227.699219 L 194.199219 208.699219 C 219.398438 184.398438 232.398438 148.800781 219.398438 114.898438 C 213.5 97.5 203.800781 81.601563 192 66.898438 L 191 67.398438 C 171.101563 91.398438 149.601563 118.601563 161.300781 151.898438 C 179.699219 202.699219 219.398438 244.800781 252.5 289.601563 C 259.398438 300 267.101563 310 270.199219 322 C 263 314.5 254.101563 310.699219 244.300781 309.300781 C 224.898438 276.101563 201.101563 244.699219 173.300781 215 Z M 193 206.601563 C 179.601563 186.898438 167.199219 166.398438 161.5 143.199219 C 155.699219 113.398438 174.800781 91.601563 191.800781 70 C 214.5 99.601563 233.800781 141.398438 213.601563 178.5 C 208.5 188.601563 201.398438 197.800781 193 206.601563 Z M 181 227.199219 C 185.800781 232 190.199219 237.398438 194.398438 242.601563 C 172.800781 263.398438 152.5 285.199219 139 309.5 C 129.898438 311.398438 121.300781 314.601563 114.199219 321.300781 C 127.800781 286.300781 152.398438 255.898438 181 227.199219 Z M 161 551 C 153.398438 556.199219 141.300781 557.101563 133.199219 552.398438 C 126.101563 549.101563 118.199219 542.199219 118.101563 533.699219 C 117.601563 526.5 123.300781 521 129.101563 517.800781 C 140.800781 510.699219 152.300781 519.800781 161.5 526.5 C 162.601563 526.601563 163.300781 525.300781 163.699219 524.601563 C 167.5 518.300781 169.101563 508.199219 164.601563 501.800781 C 155.699219 490 142.800781 483.699219 130.601563 477.800781 C 99.300781 463.800781 67.898438 447.601563 44.199219 418 C 17 384.898438 -1.199219 337.101563 19.199219 295.398438 C 27.300781 280.898438 41.699219 266.199219 59.800781 268.300781 C 67.800781 269.199219 75.300781 274.800781 79.199219 282.199219 C 86.199219 297 89.5 313.300781 89 331.101563 C 89.601563 349.601563 90.898438 367.800781 97.199219 383.898438 C 98.601563 385.699219 99.398438 388.398438 101.800781 389.199219 L 102.5 388.5 C 103.898438 367 100 343.300781 112.300781 326.300781 C 124.5 312.800781 143.101563 308.601563 160.800781 312.898438 C 173 318.898438 182 331.699219 181.898438 345.5 C 180.101563 371.5 161.300781 390.398438 156.699219 415.101563 C 155 431.101563 161.898438 444.601563 168 457.800781 C 174 471.300781 182.898438 483.800781 181.699219 499.800781 C 178.800781 518.5 176.800781 538 161 551 "/>
<path style=" stroke:none;fill-rule:nonzero;fill:rgb(0%,0%,0%);fill-opacity:1;" d="M 157.898438 380.601563 C 165 367.300781 174.601563 351.398438 167.300781 335.699219 C 160 324.300781 145.601563 322.300781 133 325.398438 C 123.199219 328.398438 117.101563 338.800781 115 347.898438 C 112.300781 363.101563 113.601563 380.199219 115.699219 395.199219 C 116.398438 403.199219 119.199219 410.601563 118.800781 418.699219 C 106.800781 413 94.101563 402.898438 88.101563 390.398438 C 74.800781 362.898438 81.300781 327.101563 74.199219 297.101563 C 71.800781 289.800781 65.699219 281.601563 58.101563 279.101563 C 47 276.800781 38.601563 285.898438 32.199219 294.199219 C 16.199219 319.800781 21.101563 357.300781 34.101563 382.699219 C 55.199219 428.199219 103.398438 453 144.199219 473.199219 C 151.800781 477.101563 159.300781 481.300781 167 485 C 167.699219 484.5 167.800781 483.699219 168 483 L 152.398438 452.300781 C 139.800781 430.5 147.398438 400.898438 157.898438 380.601563 Z M 34.300781 377.898438 C 21.699219 353 19.199219 315.601563 36.5 292 C 42.199219 285.398438 49.199219 279.300781 58.101563 281.199219 C 63.898438 283.300781 68.898438 289.601563 71.300781 295.101563 C 80 327.199219 71.5 366.398438 88.101563 395.199219 C 95.601563 407.101563 107.800781 415.699219 119.5 421.398438 C 120.199219 421.5 120.800781 421.199219 121.199219 420.699219 C 121.601563 412.101563 118.800781 405 118.101563 396.898438 C 115.601563 381.5 114.601563 363.699219 117.101563 347.898438 C 119.5 339.699219 124.601563 329.699219 133.898438 327.300781 C 145.300781 324.898438 158.199219 326.398438 165.101563 336.199219 C 171.699219 349.699219 165 364.898438 157.699219 376.300781 C 146.800781 397.5 137.699219 425.699219 148.800781 449.699219 L 164.898438 481.800781 C 117.800781 455.898438 57.800781 433.898438 34.300781 377.898438 "/>
<path style=" stroke:none;fill-rule:nonzero;fill:rgb(0%,0%,0%);fill-opacity:1;" d="M 251.699219 325.601563 C 240.5 323 226.800781 323.199219 218.601563 332.300781 C 210.398438 340.300781 213.699219 353.5 216.699219 362.800781 C 229.601563 387.601563 244.699219 416.300781 234 446.101563 C 228.101563 458.601563 221.199219 470.699219 215.5 483.300781 L 216.699219 485 C 217.199219 485.101563 217.398438 484.800781 217.699219 484.5 L 265.199219 459.800781 C 290.800781 446.300781 316.699219 430 336 404.800781 C 357.199219 375.398438 371.800781 332.5 353 297.300781 C 347.601563 288.5 338.699219 277.699219 327.101563 278.601563 C 318.699219 280.101563 312.199219 288.898438 309.601563 296.300781 C 302.398438 323.101563 308.5 355.300781 298.800781 381.101563 C 296.601563 394.101563 285.601563 405.300781 274.5 413 C 271.300781 415 267.898438 417.5 264.5 418.300781 C 266.199219 404.898438 268.699219 391.800781 269.699219 378.199219 C 270.5 358.199219 271.300781 335.398438 251.699219 325.601563 Z M 267.601563 378.199219 C 266.199219 390.699219 264.800781 403.300781 262.300781 415.398438 C 262.601563 417.398438 261.5 420 263.300781 421.398438 C 279 414.800781 297 399.800781 300.699219 382.300781 C 310.898438 356.398438 304.5 323.601563 311.699219 296.601563 C 314.398438 290.101563 319.5 282.5 326.898438 280.699219 C 336.699219 279.800781 343.5 287.898438 349.398438 294.898438 C 364.199219 319.398438 361.199219 355.699219 348.199219 380.101563 C 333.101563 416.398438 294.601563 442.601563 261.601563 459.300781 L 218.601563 481.601563 C 227.898438 459.898438 245.199219 440.398438 239 413.5 C 235.898438 395.199219 227.601563 379 218.898438 363.101563 C 216 353.898438 212.398438 340.5 221 332.800781 C 228.699219 325.601563 240.699219 325.300781 250.800781 327.5 C 270.101563 336.601563 267.699219 359.199219 267.601563 378.199219 "/>
<path style=" stroke:none;fill-rule:nonzero;fill:rgb(0%,0%,0%);fill-opacity:1;" d="M 29.300781 550.199219 C 29.5 548.699219 28.898438 547.5 28.800781 546.199219 C 27.199219 541.699219 22.898438 536.699219 18.199219 535.101563 C 15.898438 543.300781 15.199219 552.199219 13.199219 560.601563 C 12.800781 570.5 20.199219 578.402344 28.101563 584.597656 C 17.898438 586.597656 13.699219 598.300781 5.800781 604.199219 L 5.800781 604.699219 C 13.800781 611 18.101563 623.300781 28.800781 624.601563 C 24.699219 629.101563 18.699219 631.800781 16.101563 637.398438 C 8 649.300781 17.800781 661.5 18.699219 673.601563 C 18.898438 674.101563 19.398438 674.898438 20.199219 674.601563 C 24.898438 670.699219 28.699219 666 29 660.199219 C 33.300781 658.398438 37.601563 657 42 655.601563 C 56.398438 649.800781 71.398438 644.800781 83 632.800781 C 91.300781 617.5 93.898438 594.902344 85 579 C 74.398438 556.300781 47.601563 560.5 29.300781 550.199219 Z M 81.101563 631.800781 C 73.5 640 63.699219 644 54.199219 648.398438 C 45.300781 652.199219 36 655.300781 26.898438 658.699219 C 27.601563 664.101563 24 667.699219 20.601563 671.398438 C 18.601563 659.5 9.300781 644.101563 21.398438 633.800781 C 25.199219 630.398438 29 627 32.898438 623.699219 C 33.300781 622.800781 32.300781 622.5 31.898438 622 C 20.5 624.199219 16.300781 610.699219 8.601563 604.699219 C 16.101563 598.5 20.5 585.199219 32.199219 587 C 32.5 586.5 33.101563 586.199219 32.898438 585.5 C 24.800781 580.199219 16.898438 572.398438 15.101563 563 L 19.699219 537.800781 C 24.101563 541 27.398438 545.898438 27.398438 551.199219 C 45.300781 563.199219 73.601563 557.5 83.800781 581.199219 C 91.898438 596.402344 88.5 617.398438 81.101563 631.800781 "/>
<path style=" stroke:none;fill-rule:nonzero;fill:rgb(0%,0%,0%);fill-opacity:1;" d="M 189.800781 21.101563 C 194.300781 21.601563 198.898438 19.300781 201.101563 15.300781 C 202.5 12.398438 202.699219 8.398438 200.601563 5.699219 C 198.898438 3.601563 196.800781 1.398438 194.398438 0.398438 C 190.800781 0.101563 187 0.601563 184.601563 3.800781 C 182.199219 6.5 180.601563 10.101563 181.699219 13.601563 C 182.398438 17.300781 186.5 20.101563 189.800781 21.101563 Z M 186.199219 5 C 188.101563 2.300781 191.5 2.5 194.199219 2.601563 C 196.398438 3.699219 198.300781 5.601563 199.398438 7.898438 C 200.800781 10.398438 200.101563 13.898438 198.199219 16 C 195.898438 18 193.101563 19.398438 190.101563 18.898438 C 187.601563 18.101563 184.398438 16.300781 183.800781 13.398438 C 183 10.5 184 7.199219 186.199219 5 "/>
<path style=" stroke:none;fill-rule:nonzero;fill:rgb(0%,0%,0%);fill-opacity:1;" d="M 120.199219 492.898438 C 120.699219 490.398438 120.601563 487.300781 118.300781 485.898438 C 99.300781 491.898438 74 493.699219 56.199219 484 C 42.101563 475 22.898438 466.199219 17.5 448.5 C 17.398438 443.601563 16.898438 437.699219 22.101563 434.800781 C 26.199219 431.300781 32.898438 431.398438 37.898438 432.898438 C 44.898438 434.398438 50.5 441.199219 51.800781 448 C 52.398438 451.5 52.101563 455.300781 49.699219 457.601563 C 46.5 459 43.398438 457.199219 40.800781 455.898438 C 39.199219 455.5 37.898438 452.199219 36.199219 454 C 37.398438 459.300781 43.101563 463.699219 48 465 C 51.5 465.898438 54.800781 464.101563 56.898438 461.199219 C 59.699219 456.199219 60.699219 449.199219 58.800781 443.398438 C 53.5 428.699219 37.898438 422.898438 23.300781 422.601563 C 14.5 424 4.800781 429.800781 1.898438 438.898438 C -3 462.898438 2.398438 487.300781 13 507.300781 C 25.199219 530.699219 49.300781 545.5 74.601563 547.398438 C 87.601563 549.300781 101.800781 558.800781 105.601563 572.101563 C 108.800781 580.800781 97.601563 584 95.5 590.800781 C 95.898438 591.902344 97 592.199219 98.199219 592 C 104.199219 588.597656 111.800781 585.5 115.199219 578.597656 C 125.101563 556.898438 95.199219 546.199219 91 527.699219 C 93.898438 511.800781 113.199219 506.398438 120.199219 492.898438 Z M 111.101563 581.199219 C 107 584.402344 102.898438 587.5 98.398438 589.597656 C 101.199219 585.300781 106.5 582.800781 107.800781 577.800781 C 109.101563 566.398438 100.101563 557.398438 91.199219 551.199219 C 75.699219 542.300781 55.300781 544.898438 40.601563 534.199219 C 11.398438 514.699219 1.398438 482.398438 2.398438 448.5 C 3.300781 441.199219 4.398438 433.5 11.800781 429.300781 C 21.101563 421.300781 35.199219 425.800781 44.898438 430 C 50.398438 432.898438 55.199219 438.601563 56.898438 444.398438 C 58.398438 449.699219 57.398438 455.699219 55 460.199219 C 54 462 52.199219 462.898438 50.398438 463.101563 C 46.898438 462.898438 44.101563 461.300781 41.5 458.800781 C 44.398438 459.699219 48.199219 461.300781 51.101563 459.300781 C 54.398438 456.300781 54.699219 451.101563 53.800781 446.800781 C 52 439.699219 46 432.601563 38.601563 430.699219 C 32.300781 429 24.5 429.398438 19.699219 434.101563 C 14.601563 437.699219 15.199219 443.898438 15.601563 449.398438 C 21.800781 468.300781 42.199219 477.5 57.398438 486.898438 C 74.898438 495.601563 99.101563 494 117.601563 488.300781 C 118.800781 489.101563 118.300781 491.398438 118.101563 492.601563 C 112.398438 503.199219 100.5 506.800781 93.601563 516.898438 C 91.300781 520.300781 89.300781 523.800781 88.800781 527.898438 C 92.199219 547.300781 126.699219 559 111.101563 581.199219 "/>
<path style=" stroke:none;fill-rule:nonzero;fill:rgb(0%,0%,0%);fill-opacity:1;" d="M 157.898438 582.597656 C 143.601563 586.199219 132.5 597.300781 120.5 606.199219 L 120.5 606.902344 C 132 616.5 142.601563 628.101563 156.199219 632.601563 C 157.398438 632.800781 159.101563 633.101563 160.101563 632.300781 C 157.300781 616.800781 156.699219 598.199219 161.5 583.402344 C 160.800781 582 159.101563 582.902344 157.898438 582.597656 Z M 157.699219 630.601563 C 144.398438 627 134.398438 615.699219 123.398438 606.597656 C 134.5 598.199219 145.300781 587.699219 158.898438 584.800781 C 155.199219 598.800781 154.5 616.300781 157.699219 630.601563 "/>
<path style=" stroke:none;fill-rule:nonzero;fill:rgb(0%,0%,0%);fill-opacity:1;" d="M 381.300781 437.898438 C 380.300781 434.601563 378.101563 431.601563 375.101563 429.101563 C 366.898438 421.398438 353.898438 421.601563 343.898438 425.199219 C 335.101563 428.101563 325.398438 436.398438 324 446.101563 C 323.300781 452.601563 324.5 459 329 463.601563 C 330.898438 465.398438 333.800781 465.199219 336.199219 464.800781 C 340.601563 462.898438 346.601563 459.101563 347.300781 453.800781 C 347 453.300781 346.5 453.199219 346.101563 453.300781 C 342.398438 456.300781 337.699219 459.601563 332.898438 456.898438 C 329.601563 451.398438 332.5 444.800781 335 439.800781 C 340.101563 433.199219 347.800781 431.101563 355.898438 431.898438 C 359.699219 433.300781 364.199219 435.601563 365.699219 439.800781 C 369.398438 454.398438 356.101563 465 345.601563 472.5 C 327.199219 487.601563 303 494.5 278.398438 488.800781 C 273.601563 488.199219 269.101563 486.199219 264.5 486.199219 C 262.800781 488.199219 262.5 491.699219 263.699219 494.101563 C 271.5 506.699219 290.101563 512.101563 292.5 527.699219 C 289.898438 541.699219 272.199219 549.5 267.800781 562.699219 C 264.199219 569.101563 267 577 270.898438 582.402344 C 275.800781 586.597656 280.898438 590.300781 286.800781 592 C 287.5 591.699219 288.101563 590.902344 288 590.097656 C 286 585.597656 280.398438 582.5 278.101563 578.097656 C 276.601563 571.398438 280.199219 565.699219 284.398438 560.800781 C 295.199219 547 312.398438 547.5 327.300781 543.300781 C 355.800781 535.898438 376.5 505.699219 381.101563 478.199219 C 383.699219 465.898438 384.5 450.300781 381.300781 437.898438 Z M 365.300781 512.101563 C 351.101563 534.699219 327.398438 543.300781 303.300781 546.398438 C 290.800781 549.398438 277.199219 561.300781 275.5 574.699219 C 274.800781 581.097656 281.699219 584.300781 284.898438 589.097656 C 279.199219 586.300781 269 581.402344 268.800781 572.601563 C 266.101563 553.699219 291.699219 545.300781 294.699219 528.199219 C 293 512.800781 275.601563 505.898438 266.601563 494.800781 C 265.601563 492.898438 264.601563 490.5 265.699219 488.300781 C 285.601563 494.101563 313.199219 495.898438 331.398438 484 C 346.199219 474.199219 370.898438 462.300781 368.101563 440.300781 C 366.699219 434.800781 360.800781 431 355.699219 429.800781 C 346.800781 429.199219 338.898438 431.601563 333.300781 438.601563 C 330 444 327.398438 451.800781 330.898438 457.800781 C 332.898438 460.300781 336.199219 460.199219 339.101563 459.800781 L 342 458.601563 C 339.699219 461 335.898438 463.800781 331.699219 462.601563 C 326.601563 459.199219 325.5 452.5 326.101563 446.300781 C 327.601563 436.199219 338.300781 428.5 347.5 426.398438 C 359.300781 421.800781 373 426.300781 378.898438 437.398438 C 385.300781 463.800781 378.300781 490.699219 365.300781 512.101563 "/>
<path style=" stroke:none;fill-rule:nonzero;fill:rgb(0%,0%,0%);fill-opacity:1;" d="M 192.199219 623 C 196.898438 621.699219 202 617.398438 203.300781 612.601563 C 204.800781 608.199219 203.800781 602.902344 201.398438 599.199219 C 197.398438 593.902344 191.300781 591.199219 184.800781 592.699219 C 179.5 594 174.601563 598.902344 173.300781 604.199219 C 172.101563 609.800781 173.800781 614.699219 177.398438 618.601563 C 181.199219 622.800781 186.898438 624 192.199219 623 Z M 175.699219 612.199219 C 174.601563 607.300781 175.199219 602 178.800781 598.5 C 182.199219 594.902344 187.300781 594 192 594.902344 C 195 595.699219 197.699219 597.699219 199.699219 600.402344 C 202.800781 604.800781 202.199219 611.699219 199.199219 616 C 195.5 620.800781 189.398438 621.898438 184.101563 620.601563 C 180.398438 619.398438 176.800781 615.898438 175.699219 612.199219 "/>
<path style=" stroke:none;fill-rule:nonzero;fill:rgb(0%,0%,0%);fill-opacity:1;" d="M 193 540.601563 L 192 540.601563 C 183.398438 552.199219 172 562.601563 167.800781 575.898438 C 167.800781 577.597656 166.699219 579.402344 167.800781 581 C 183.398438 577.800781 201.5 576.5 217 581 C 217.5 580.5 217.800781 580 217.699219 579.300781 C 214.800781 564.199219 202.5 553 193 540.601563 Z M 169.398438 578.597656 C 172.800781 565.199219 183.699219 554.800781 192.199219 543.5 L 192.699219 543.5 C 201 554.800781 212.300781 564.800781 215.300781 578.300781 C 201 574.5 183.699219 575.199219 169.398438 578.597656 "/>
<path style=" stroke:none;fill-rule:nonzero;fill:rgb(0%,0%,0%);fill-opacity:1;" d="M 166.800781 635.699219 C 165.101563 637.699219 166.898438 640 167 642.199219 C 172.398438 654.398438 182.300781 664.800781 191.5 675.5 L 192.199219 675.5 C 201.398438 662.800781 214.199219 651.5 216.5 635.898438 L 215.800781 634.699219 C 200.601563 638.699219 182.199219 639.699219 166.800781 635.699219 Z M 202.601563 659.199219 C 199 663.800781 195.398438 668.300781 191.800781 672.898438 C 182.800781 661.800781 172 651.601563 168.199219 638.300781 C 182.898438 641.5 199.800781 640.800781 214.101563 637.101563 C 213.101563 645.699219 207.101563 652.199219 202.601563 659.199219 "/>
<path style=" stroke:none;fill-rule:nonzero;fill:rgb(0%,0%,0%);fill-opacity:1;" d="M 355.398438 584.597656 C 362.699219 578.902344 369.199219 571.699219 370.5 563 L 365.699219 535.601563 L 365 534.898438 C 359.101563 537.5 354.5 543.601563 354.199219 550 C 338.601563 559.398438 317.898438 556.199219 304.300781 570.398438 C 295 582 290.601563 596.800781 293.699219 612.398438 C 295.5 620.199219 297.601563 627.898438 302.101563 634.5 C 317.398438 647.800781 336 653.300781 354.199219 659.699219 C 354.800781 665.398438 358.101563 670.101563 362.898438 674.101563 C 363.300781 674.300781 364.199219 675 364.5 674.101563 C 365.800781 665.398438 369.601563 657.699219 370.5 648.898438 C 371.398438 638.199219 362.398438 630.800781 354.898438 624.398438 C 365.699219 623.199219 369.5 610.800781 377.699219 604.699219 L 377.699219 604.199219 C 369.601563 598.402344 365.898438 586.300781 355.398438 584.597656 Z M 374.898438 604.699219 C 367.300781 610.597656 362.898438 624.398438 351.300781 622 C 351 622.398438 350.398438 622.800781 350.601563 623.398438 C 359 631.199219 370.898438 638.800781 368.101563 651.800781 C 366.699219 658.398438 364.300781 664.601563 362.898438 671.199219 C 359.101563 667.898438 356.199219 663.601563 356.601563 658.699219 L 355.398438 657.800781 C 336.898438 651.300781 317.800781 645.898438 302.398438 631.800781 C 292.800781 614.699219 291.898438 588.699219 304.800781 572.800781 C 318.601563 557.300781 340.800781 562.199219 356.398438 551 C 356.101563 545.398438 359.601563 541 363.800781 537.800781 L 368.398438 563.398438 C 366.300781 572.398438 358.5 580.5 350.601563 585.5 C 350.398438 586.199219 351.300781 586.5 351.601563 587 C 362.898438 585.300781 367.101563 598.300781 374.898438 604.199219 L 374.898438 604.699219 "/>
<path style=" stroke:none;fill-rule:nonzero;fill:rgb(0%,0%,0%);fill-opacity:1;" d="M 324.199219 222.898438 C 329.601563 221.5 334.800781 216 336.699219 210.898438 C 338.699219 203.601563 335 197.5 329.5 192.699219 C 324.5 188.199219 315.898438 188.800781 310.300781 190.699219 L 311.300781 187.398438 C 312.5 180 310.101563 173.101563 304.101563 168.898438 C 298.199219 164.601563 288.898438 166.699219 283.199219 169.898438 C 283.5 166.699219 282.800781 163.199219 281.699219 160.300781 C 278.699219 153.101563 271.699219 147.601563 263.5 148.300781 C 257 149.601563 249.601563 154.300781 247.699219 161.199219 C 245.898438 168.398438 249 174.699219 254.398438 179.5 C 259 183.101563 266.398438 183.800781 271.898438 181.601563 C 273.5 180.800781 275.199219 179.601563 276.699219 179.199219 C 275.699219 185.800781 278.101563 191.699219 282.699219 196.300781 C 287.898438 201.398438 296.699219 200.699219 302.898438 198.699219 C 300.300781 204.5 301 212.601563 305.5 217.398438 C 310.398438 222.398438 317.398438 224.699219 324.199219 222.898438 Z M 261.601563 180.398438 C 256.199219 179.800781 251.101563 174.199219 249.800781 169.101563 C 247.898438 163.101563 250.601563 157.699219 255.300781 154 C 259.898438 150.601563 266.699219 149.199219 271.898438 152.101563 C 274.800781 153.5 277.398438 156.199219 278.898438 159.101563 C 280.300781 162.898438 282.199219 167.898438 280.101563 172 C 276.300781 178.5 269.101563 181.601563 261.601563 180.398438 Z M 292.300781 198.199219 C 287.800781 197.898438 283.800781 195.398438 281.300781 191.5 C 279 187.5 277.898438 182.601563 279.101563 177.800781 C 281.199219 172 287.601563 169.398438 293.300781 168.699219 C 298.199219 168.300781 302.5 169.300781 305.699219 173 C 310.5 178.101563 309.898438 187 307.199219 192.898438 C 303.199219 197 298 198.101563 292.300781 198.199219 Z M 306 214.699219 C 302.601563 210.199219 303.101563 202.800781 305.5 197.898438 C 309.300781 191.699219 316.199219 191.199219 322.800781 191.699219 C 326.898438 192.199219 330.101563 195.898438 332.601563 199.101563 C 335.101563 202.398438 335.699219 207.398438 334.300781 211.398438 C 332.101563 216.101563 327.199219 220.5 322.101563 221.199219 C 315.699219 222.199219 310.199219 219.199219 306 214.699219 "/>
<path style=" stroke:none;fill-rule:nonzero;fill:rgb(0%,0%,0%);fill-opacity:1;" d="M 223.199219 583.800781 C 225.898438 599.402344 226.800781 618.101563 221.5 632.800781 C 222.601563 634 224.699219 633.5 226.101563 633.300781 C 239.898438 629.398438 251 618.800781 262.800781 610 L 262.800781 609.5 C 251.800781 600.300781 241.699219 589 229 584.097656 C 227.199219 583.597656 224.699219 582.902344 223.199219 583.800781 Z M 228 630.601563 L 224.199219 631.398438 C 228.601563 617.398438 228 600.199219 225.601563 585.5 C 238.800781 589.199219 248.898438 600.5 259.898438 609.5 C 249.898438 617.5 239.601563 626 228 630.601563 "/>
<path style=" stroke:none;fill-rule:nonzero;fill:rgb(0%,0%,0%);fill-opacity:1;" d="M 139.699219 194.601563 C 135.898438 188.398438 129.101563 185.398438 122.199219 185 C 116.5 186.398438 110.898438 189.199219 107.5 194.601563 C 105 199 105 205.601563 107.5 209.898438 C 110.5 215.800781 116.398438 219.398438 122.601563 219.800781 C 118.800781 221.5 115 225.199219 112.800781 228.898438 C 112.601563 226.601563 113.199219 223.5 112.300781 221.199219 C 110.601563 215.199219 104 210.398438 98.199219 209.199219 C 90.699219 207.898438 84.398438 211.601563 79.699219 217.101563 C 76.398438 222 76.398438 230 79.699219 234.898438 C 83.398438 241.199219 89.699219 243.300781 96.5 243.300781 C 102.398438 242.199219 108.800781 239.101563 111.398438 233 C 111.300781 235.898438 111.300781 239.5 112.300781 242.300781 C 114.101563 247.101563 118.699219 250.398438 123.101563 252.398438 C 129.800781 254.898438 136.800781 252.398438 141.800781 248.101563 C 146.199219 243.398438 147.601563 237 146.199219 230.601563 C 144.398438 225.398438 138.800781 221.300781 133.898438 219.800781 C 132.601563 219.300781 131.101563 219.199219 129.800781 218.601563 C 132.5 217.601563 134.898438 216 137 213.800781 C 141.5 208.898438 142.800781 200.5 139.699219 194.601563 Z M 106.601563 236.300781 C 102.398438 239.699219 97.601563 241.898438 91.898438 240.898438 C 86.601563 240 81.5 235.5 79.898438 230.300781 C 78.898438 225.800781 79.300781 220.601563 82.300781 217.101563 C 86.601563 212.898438 91.800781 210.300781 97.898438 211.398438 C 102.601563 212.5 107.5 215.300781 109.699219 220 C 111.699219 225.5 110.398438 232.101563 106.601563 236.300781 Z M 131.300781 221.199219 C 135.699219 222.699219 140.5 224.398438 143.300781 229.101563 C 145.601563 234.699219 144.398438 241.898438 140.601563 246.398438 C 136.398438 249.699219 131.5 252 125.800781 251 C 120.5 249.398438 114.199219 245.398438 113.800781 239.199219 C 112.699219 234 114.101563 229.300781 117.800781 225.800781 C 121.300781 221.699219 126.199219 220.601563 131.300781 221.199219 Z M 119.300781 217.101563 C 113.699219 216 109.300781 210.300781 108 205.101563 C 107.5 200.5 108.398438 196 111.601563 192.699219 C 115.699219 189.199219 120.699219 186.398438 126.199219 187.601563 C 130.800781 188.800781 135.601563 191.300781 138 195.800781 C 140.199219 200.800781 139.398438 207.699219 135.800781 211.898438 C 131.699219 216.5 125.800781 218.398438 119.300781 217.101563 "/>
<path style=" stroke:none;fill-rule:nonzero;fill:rgb(0%,0%,0%);fill-opacity:1;" d="M 54.199219 192.699219 C 48.800781 197.101563 45.398438 203.101563 46.601563 210.199219 C 48.199219 216.300781 54.300781 222.101563 60.5 223.398438 C 66.199219 224.699219 71 222.398438 75.398438 219.800781 C 81.199219 215.601563 83 209 81.800781 202 C 81.101563 201.101563 81.199219 199.5 80.898438 198.699219 C 86.300781 200.601563 93.898438 201.398438 98.898438 197.898438 C 105.199219 193.5 107.5 186.300781 107 179 C 109.199219 180.800781 111.699219 181.601563 114.199219 182.601563 C 120.5 183.5 127.300781 182.800781 131.5 177.300781 C 135.699219 172.699219 137.699219 165.800781 135.398438 160 C 134.199219 156.699219 131 153.800781 128.199219 151.601563 C 122.898438 147.5 114.699219 148.101563 109.199219 151.101563 C 102.699219 155.601563 100 162.699219 100.300781 170.101563 C 98.800781 168.5 96.601563 168.300781 94.800781 167.5 C 88.101563 165.398438 80.398438 166.5 75.800781 172.300781 C 72 177.300781 71.101563 185 73 191 C 67.5 189 58.800781 188.101563 54.199219 192.699219 Z M 110.199219 153.101563 C 115.300781 150.5 122.101563 149.300781 127 153.300781 C 129.199219 155 131.398438 156.800781 132.699219 159.300781 C 135.101563 163.199219 134.398438 168.398438 132.5 172.300781 C 129.800781 178.199219 123.699219 180.800781 117.601563 180.898438 C 111.5 180.101563 104.300781 176.800781 102.699219 170.101563 C 102.300781 163.5 104.5 157 110.199219 153.101563 Z M 76.101563 175.601563 C 78.199219 171.5 82.398438 169.398438 86.601563 168.699219 C 93.699219 168.601563 100.601563 170.699219 104.199219 177.101563 C 105.898438 183 104.5 189.398438 100.601563 193.898438 C 96.601563 198 90.800781 198.898438 85.199219 197.699219 C 81.800781 196.699219 78.101563 196.101563 76.101563 192.398438 C 73.601563 187.601563 73.601563 180.5 76.101563 175.601563 Z M 78.5 198.898438 C 81 203.601563 80.101563 210.601563 77.5 215 C 72.898438 220 66.699219 222.5 60 221 C 54.601563 219.699219 49.699219 214.300781 48.5 209 C 47.898438 201.898438 52.199219 195.699219 58.300781 192.398438 C 65.800781 190.699219 74.5 191.5 78.5 198.898438 "/>
<path style=" stroke:none;fill-rule:nonzero;fill:rgb(0%,0%,0%);fill-opacity:1;" d="M 279.601563 240.699219 C 285 244 293 244 298.300781 240.398438 C 303.101563 236.898438 306.300781 231.898438 306.199219 226 C 306.898438 219.398438 302.199219 213.699219 296.601563 210.898438 C 291.300781 207.699219 283 208.5 278.101563 212.101563 C 272.800781 216 269.601563 221.898438 270.699219 228.699219 C 268.398438 225.101563 264.699219 221.699219 261.101563 219.800781 C 267.300781 219.601563 272.699219 215.199219 276 209.898438 C 278.601563 205.601563 278.300781 199.300781 276.199219 194.800781 C 273.398438 189.800781 268 186.898438 263 185.199219 C 256.300781 184.199219 250.5 187.199219 245.800781 191.699219 C 242.398438 196 241.101563 202.398438 243.101563 207.800781 C 244.601563 212.5 249.199219 217.101563 253.898438 218.601563 C 249.898438 219.300781 246.199219 220.898438 242.898438 223.101563 C 237.101563 227.199219 235.800781 234.398438 237.601563 240.898438 C 239 247 245.398438 251.800781 251.300781 252.898438 C 256.601563 253.898438 261.5 252.398438 265.398438 249.5 C 271 245.601563 272.601563 239.699219 272.398438 233.199219 C 274 236 276.5 239.300781 279.601563 240.699219 Z M 245 206.800781 C 243.601563 202.800781 244.398438 197.898438 246.199219 194.300781 C 250.300781 189.101563 256.398438 186.898438 262.800781 187.398438 C 267.101563 189.101563 272.101563 191.199219 274.300781 195.800781 C 276.699219 200 275.898438 206.199219 273.300781 210.199219 C 269.699219 215.898438 263.601563 218.300781 257 217.101563 C 251.800781 216.199219 246.601563 212.101563 245 206.800781 Z M 269.699219 239.5 C 269.101563 245.800781 262.5 249.5 257 251 C 250.800781 251.199219 245.300781 249.398438 241.398438 244.5 C 238.800781 239.699219 238.199219 232.898438 241 227.898438 C 246.199219 222 255.898438 217.898438 262.800781 223.101563 C 268.300781 227 271 232.800781 269.699219 239.5 Z M 272.5 233 L 272.101563 233 L 272.101563 232.601563 L 272.5 232.601563 Z M 276 216.699219 C 280.300781 212.601563 285.601563 210.101563 291.800781 211.398438 C 296.300781 212.601563 300.800781 215.398438 303.101563 219.800781 C 304.898438 225.5 304.5 232.699219 299.5 236.800781 C 295.199219 239.800781 289.800781 242.398438 284.398438 240.398438 C 279.699219 238.699219 274.199219 235 273.300781 229.601563 C 272.101563 225 273.101563 220.199219 276 216.699219 "/>
</g>
</svg>
