<?xml version="1.0" encoding="UTF-8"?>
<svg xmlns="http://www.w3.org/2000/svg" xmlns:xlink="http://www.w3.org/1999/xlink" width="229pt" height="580pt" viewBox="0 0 229 580" version="1.1">
<g id="surface1">
<path style=" stroke:none;fill-rule:nonzero;fill:rgb(0%,0%,0%);fill-opacity:1;" d="M 114.300781 393.300781 C 111.199219 400.398438 107.898438 407.398438 105.601563 414.898438 C 107.800781 418.699219 110.101563 422.398438 111.601563 426.398438 C 112.800781 428.699219 113.101563 431.300781 114.300781 433.601563 C 114.699219 433.800781 114.898438 433.300781 115.199219 433.398438 C 117.300781 426.601563 120.300781 420.199219 123.601563 413.898438 L 116.699219 396.601563 C 115.800781 395.5 116 393.398438 114.300781 393.300781 Z M 114.5 429.800781 C 112.898438 424.300781 110.199219 419.300781 107.300781 414.398438 L 114.5 396.199219 L 122 414.199219 C 118.800781 419.101563 116.601563 424.398438 114.5 429.800781 "/>
<path style=" stroke:none;fill-rule:nonzero;fill:rgb(0%,0%,0%);fill-opacity:1;" d="M 103.5 72.199219 L 103.5 71.5 L 103.199219 71 C 98.699219 72 94.5 74 90.5 76.300781 C 78.898438 85.199219 67 97.800781 71.300781 113.5 C 73.300781 117.398438 77.398438 118.398438 81.199219 119.199219 C 92.101563 121.101563 98 109.800781 104.699219 103.101563 C 107.101563 102.398438 109.101563 104.101563 110.898438 105.5 C 112.398438 106.5 113.800781 105 114.5 103.898438 C 117.800781 109.398438 120.199219 101.5 124.101563 102.898438 C 129.300781 107.101563 132.101563 113.898438 138.300781 117.300781 C 142.5 120.101563 149.199219 119.5 153.601563 117.5 C 157.398438 115.5 158.898438 111.699219 158.898438 107.699219 C 158 91.699219 144 76.398438 129.199219 71.699219 C 127.898438 71.800781 126.300781 70.101563 125.601563 71.699219 C 131.898438 76.699219 140.199219 83.300781 142.601563 91.101563 C 142 92.898438 141.300781 95.199219 139.199219 95.898438 C 131.5 94.300781 120.199219 91.398438 114.5 99.101563 C 108.699219 91.199219 97.699219 94.800781 89.800781 95.898438 C 87.601563 94.699219 86.5 92.300781 86.699219 89.699219 C 90.101563 82.800781 97.101563 76.699219 103.5 72.199219 Z M 116 100 C 121.398438 92.699219 131.898438 96.601563 139.199219 97.601563 C 141.199219 97.199219 142.5 95.398438 143.601563 93.800781 C 145.300781 90.101563 142.699219 86.398438 140.398438 83.5 C 138 80.199219 134.5 77 131.601563 74.300781 C 144.398438 79.699219 155.601563 92.699219 157.199219 106.5 C 157.101563 110 157 113.699219 153.601563 115.601563 C 149.300781 118 142.398438 118.5 138.300781 115.398438 C 132.699219 111.601563 130 105.199219 124.800781 101.5 C 121.800781 100.5 119.398438 102.800781 116.898438 103.898438 C 115.5 103 115.601563 101.300781 116 100 Z M 88.800781 97.398438 C 95.300781 97.5 102.101563 94 108.800781 96.699219 C 110.699219 97.300781 112.601563 98.898438 113.601563 100.699219 C 113.5 102.101563 113.300781 103.601563 111.898438 104.101563 C 110.101563 102.800781 108.398438 101.199219 106.101563 101.199219 C 103.699219 101.199219 102 103 100.601563 104.800781 C 96.898438 109.699219 92.398438 116.199219 86.199219 117.5 C 81.199219 118 76.101563 117.199219 73 113 C 69 98.199219 80.101563 86.101563 91.199219 77.699219 C 93.300781 76.398438 95.5 75.5 97.699219 74.601563 C 92.5 78.800781 87.699219 84 85 89.699219 C 84.699219 92.898438 86.101563 95.601563 88.800781 97.398438 "/>
<path style=" stroke:none;fill-rule:nonzero;fill:rgb(0%,0%,0%);fill-opacity:1;" d="M 21.898438 77 C 30.300781 78.699219 35.398438 70.800781 42.300781 67.898438 C 45.101563 67.398438 47.800781 68.398438 49.699219 70.699219 C 50.898438 73.800781 54.398438 76.800781 52.398438 80.300781 C 49.101563 80.398438 45.5 79.699219 44.199219 76.5 C 42.800781 75.800781 41.300781 74.800781 39.601563 75.5 C 36.398438 78.699219 36.800781 83.300781 36.5 87.5 C 37 96.898438 38.5 105.898438 44.699219 113 C 50 117.699219 59.300781 117.800781 65.601563 115.101563 C 66.800781 114.300781 69.398438 112.800781 68.699219 111.101563 C 65.398438 110.300781 61.699219 107.5 60.800781 104.101563 C 58.898438 94.300781 61.800781 85.398438 69.898438 79.898438 C 80.199219 74.101563 90.800781 69.199219 102.5 66.898438 L 104.898438 70.300781 C 108.199219 73.398438 112.699219 75.300781 117.601563 74.101563 C 121.398438 73.199219 125.101563 70.199219 127 66.898438 L 134.898438 68.800781 C 147.199219 74.398438 164.800781 77.300781 168.5 93.300781 C 168.699219 98.800781 169.800781 105.398438 164.898438 108.898438 C 163.5 110.199219 161 110.101563 160.101563 111.800781 C 164.199219 117.699219 172.199219 117.300781 178.601563 116.101563 C 189.398438 113 190.398438 101.300781 192.5 92.300781 C 192.300781 86.699219 193.5 80 189.601563 75.5 C 188.5 75.199219 186.800781 75 185.800781 75.800781 C 184.101563 79.398438 180.398438 80.101563 176.898438 80.300781 C 174.699219 77.5 177.800781 74.398438 178.800781 71.699219 C 180.398438 69.398438 183 67.398438 186 67.601563 C 193.699219 69.699219 198.699219 79.398438 207.601563 76.699219 C 213.300781 72.800781 219.300781 69.800781 224.199219 64 L 224.199219 63.300781 L 207.601563 50.101563 C 198.101563 48.398438 193.101563 59.101563 184.101563 59.5 C 182.199219 59.101563 180.5 57.5 179.300781 55.898438 C 178.199219 53 174.699219 49.5 177.601563 46.699219 C 180.300781 45.898438 182.898438 47 184.800781 48.699219 C 186.199219 49.601563 186.601563 52.5 188.898438 51.5 C 190 51.101563 191.199219 50.601563 191.800781 49.398438 C 194.601563 43 192.800781 35 190.601563 29 C 185.199219 17.601563 172.898438 14.101563 161.101563 15.101563 C 160.699219 16.699219 163.398438 16.699219 164.398438 17.898438 C 170 21.898438 170.5 29.300781 169 35.5 C 163.5 50.601563 147.101563 54.5 133.5 56.300781 C 142.800781 50.300781 152.300781 41.199219 156.5 31.101563 C 159.398438 23.101563 163.699219 11.699219 156.5 4.300781 C 141.101563 -10.101563 134.199219 17.601563 120.300781 18.898438 C 118.601563 18.800781 117.300781 17.898438 116 17 C 115.398438 17.300781 115.699219 17.898438 115.199219 18.199219 C 114.699219 20.5 114.898438 23.199219 116.699219 24.898438 C 120.398438 26 123.5 30.601563 127.699219 28.300781 C 134.101563 27.101563 140.101563 29.398438 143.800781 34.5 C 144.398438 36.898438 142.398438 39.101563 140.398438 40.5 L 119.800781 51.101563 C 116.898438 49.601563 112.101563 49.601563 109.199219 51.101563 L 91.5 42.199219 C 89.300781 41 86.800781 39.5 85.5 37.101563 C 85.199219 36.199219 84.898438 34.601563 85.699219 33.800781 C 90.300781 28.601563 97.898438 26.601563 104.699219 29 C 107.800781 27.5 111.101563 26.199219 113.601563 23.699219 C 114.5 21.601563 114.5 18.601563 113.101563 17 C 111.5 18.398438 109.699219 19.300781 107.300781 18.898438 C 95.601563 16.199219 91.101563 -3.101563 77.601563 0.898438 C 72.800781 2.898438 69.101563 7.898438 68.699219 12.898438 C 68.5 31.199219 80.398438 46.5 95.601563 56.300781 C 81.5 54.800781 64.5 49.898438 59.800781 34.300781 C 59.101563 28.398438 59.398438 22.398438 64.101563 18.398438 C 65.5 17.300781 67.699219 16.800781 68.199219 15.300781 C 65.800781 14.5 62.601563 14.800781 60 15.101563 C 50.898438 15.898438 41.101563 21.398438 38 30.699219 C 35.898438 36.5 34.300781 45.5 38.398438 50.800781 C 42.800781 54.601563 43.5 47.101563 47.300781 46.699219 C 49 46.5 51.398438 46.101563 52.601563 47.699219 C 53.199219 50 51.601563 52.101563 50.898438 54.199219 C 49.699219 57.101563 46.601563 59.898438 43.199219 59.699219 C 35.699219 57.601563 30.800781 49.300781 22.101563 50.101563 C 16.199219 53.898438 10.699219 58.699219 5.101563 63.101563 L 4.800781 63.800781 C 9.800781 69.398438 15.898438 73.300781 21.898438 77 Z M 145 55.898438 C 155.898438 53.699219 167.898438 46.101563 170.898438 34.5 C 171.699219 28 171.398438 20.300781 165.199219 16.5 C 173.800781 16.5 181.398438 19.300781 187 26.101563 C 191.300781 32.300781 192.898438 41.101563 190.398438 48.699219 C 187.601563 52.601563 186.5 46.601563 184.101563 46 C 182.300781 44.601563 179.5 44.699219 177.199219 45.101563 C 176.300781 45.699219 175.101563 46.601563 174.800781 47.699219 C 175.601563 53.101563 178 59.601563 183.898438 61.101563 C 193.101563 61.601563 197.898438 50.398438 207.199219 51.800781 C 212 56.101563 217.699219 59.5 222 64 C 217.300781 68.601563 212.101563 71.800781 206.898438 75.300781 C 195.800781 77.601563 186.800781 56.300781 177.199219 71.199219 C 175.398438 74.101563 173.300781 77.898438 175.199219 81.101563 C 176.898438 83 179.699219 81.601563 181.699219 81.300781 C 185.101563 81.199219 185.398438 75.898438 189.199219 77.199219 C 193.5 88.199219 189.898438 100.601563 184.800781 110.101563 C 180.898438 115.300781 174.101563 115.101563 168 114.898438 C 166 114.398438 164 113.699219 162.5 112 C 166.199219 111.101563 169.601563 107.101563 170.199219 103.398438 C 171.601563 93 168.199219 82.898438 158.898438 77.699219 C 148.898438 72.300781 138.5 67.601563 127.199219 65.199219 C 128 63.800781 127.699219 61.601563 127.5 59.898438 C 133 57.699219 139.300781 57.5 145 55.898438 Z M 143.300781 40.300781 C 144.699219 38.800781 145.5 37.101563 145.699219 35.199219 C 143.898438 29.199219 137.601563 27 132 26.300781 C 129.199219 26 127.101563 27 124.601563 27.300781 C 122 24.699219 115 25.300781 116.699219 19.398438 C 119.601563 21.5 124 20.398438 126.800781 18.699219 C 135.5 12.699219 145.898438 -7.898438 156.800781 7.101563 C 160.800781 13.699219 157.699219 22.601563 155.601563 29.199219 C 150.800781 41.300781 138.699219 52 127.199219 57.800781 C 126.101563 55.699219 124 53.300781 122 51.800781 C 129.101563 47.898438 136.699219 45.199219 143.300781 40.300781 Z M 118.601563 52.300781 C 120.898438 53.199219 123.199219 55.101563 124.601563 57.300781 C 126.601563 60.199219 126.101563 65.101563 124.101563 67.898438 C 121.101563 71.898438 116.398438 73.601563 111.398438 72.398438 C 107.898438 71.398438 104.199219 68.300781 103.5 64.5 C 102.800781 60.300781 104.199219 56.199219 107.800781 53.699219 C 110.800781 51.800781 115 51.300781 118.601563 52.300781 Z M 93.601563 53 C 79.398438 42.800781 69 27.800781 70.800781 10.300781 C 72.199219 6.800781 75.300781 2.898438 79.199219 2.101563 C 93.699219 1 97.199219 24.601563 112.101563 19.601563 L 112.398438 19.398438 C 114.199219 25 107.101563 24.800781 104.398438 27.300781 C 98.398438 25.101563 91.601563 26.898438 86.699219 30.398438 C 85.101563 31.898438 83.601563 33.398438 83.601563 35.5 C 83.699219 39.101563 87.5 42.199219 90.5 43.601563 C 96.101563 46.199219 101.601563 49.101563 107.101563 52 C 104.800781 53.101563 103.5 55.5 102.5 57.5 C 99.300781 57.199219 96.5 54.800781 93.601563 53 Z M 22.101563 51.800781 C 33.300781 50 42.398438 71 51.898438 55.898438 C 53.101563 53 55.5 49.300781 53.601563 46.300781 C 52 44.398438 49.199219 44.699219 47.101563 45.101563 C 44.601563 45.800781 42.398438 48.199219 40.800781 50.101563 C 35.898438 48 38.199219 41.300781 38 36.898438 C 38.800781 28.300781 45.800781 20.300781 54 17.898438 C 57.199219 17.101563 60.5 16.601563 63.898438 16.5 C 57.699219 20.199219 57.800781 27.699219 58.101563 34.300781 C 63.601563 54 84.898438 56 101.300781 59.699219 L 101.800781 65.5 C 89.898438 67.699219 79.101563 72.800781 68.699219 78.699219 C 60.398438 84.601563 57.5 93.898438 59.101563 104.101563 C 59.699219 107.699219 63.199219 110.800781 66.5 112 C 63.300781 116 57.300781 115.101563 52.398438 114.898438 C 41.300781 113 40.101563 101.101563 38.398438 92.300781 C 38.101563 87.101563 37.699219 81 40.601563 77 C 43.199219 77.101563 45 81.398438 48 81.5 C 49.800781 81.601563 51.5 82.398438 53.300781 81.800781 C 57 77.898438 52.699219 73.800781 51.398438 70.300781 C 49 67.101563 45.800781 65.398438 42 66.199219 C 35.101563 68.5 30.5 77 22.101563 75.300781 C 17 71.699219 11.5 68.5 7 63.800781 L 22.101563 51.800781 "/>
<path style=" stroke:none;fill-rule:nonzero;fill:rgb(0%,0%,0%);fill-opacity:1;" d="M 125.800781 508 C 125.5 508.402344 125.5 508.902344 126 509.199219 C 130.101563 508.300781 134 506.800781 137.601563 504.597656 C 150.199219 496.300781 161.398438 482.699219 158 467.199219 C 156.300781 463.601563 152.601563 461.898438 149.101563 461.199219 C 137.5 458.101563 131 470.199219 124.601563 477 C 121.800781 478 119.800781 475.601563 117.601563 474.398438 C 116.300781 474.300781 115.398438 475.398438 114.5 476.300781 C 110.898438 470.699219 108.101563 480.402344 103.699219 476.601563 C 99.601563 471.898438 96.300781 466.101563 90.800781 462.898438 C 86.101563 460.101563 79.601563 460.898438 74.898438 463.101563 C 71 465.199219 70.601563 469.199219 70.398438 473 C 71.300781 489.199219 86 504.402344 101.101563 509 L 103.5 509 L 103.5 508.199219 C 98.898438 504.800781 94.398438 501 90.5 496.5 C 89.101563 493.5 85.101563 491 87.199219 487.097656 C 87.800781 485.699219 89.199219 484.300781 90.800781 484.199219 C 98.101563 486.199219 109.101563 488.402344 114.5 481.402344 C 118.398438 486 124.898438 487 130.800781 485.699219 C 134.5 486.300781 138 482.097656 141.199219 485.699219 C 142.101563 487.199219 142.898438 488.902344 142.398438 490.699219 C 138.601563 497.199219 132.199219 503.902344 125.800781 508 Z M 112.398438 481.402344 C 106.800781 486.902344 97.101563 484 90.5 482.597656 C 88.398438 482.597656 86.398438 484.5 85.699219 486.402344 C 83 493.097656 90.101563 497.5 93.898438 502.5 L 97.699219 505.800781 C 85.101563 501 73.699219 487.699219 72 474.398438 C 72 470.300781 72.5 465.800781 76.601563 464.101563 C 81 462.601563 87.398438 461.601563 91.199219 465 C 95.800781 468.601563 98.898438 473.300781 102.300781 477.5 C 103.800781 478.800781 106 479.300781 108 478.699219 C 109.898438 478.601563 111.898438 474 113.300781 477.800781 C 114.101563 479.101563 113 480.300781 112.398438 481.402344 Z M 140.699219 483 C 137.101563 481.902344 133.699219 484 130.101563 484.199219 C 124.898438 484.902344 119.199219 484.699219 116 480.199219 C 115.601563 478.898438 115.5 477.199219 116.898438 476.300781 C 119 477 120.5 479.101563 122.898438 479 C 128.898438 477.898438 130.699219 470.898438 135.398438 467.199219 C 139.101563 463.398438 143.898438 461.699219 149.300781 462.898438 C 151.898438 463.5 154.398438 464.699219 156 467 C 160.300781 480.300781 150.699219 491.300781 141.398438 500.097656 C 138.300781 502.402344 135 504.300781 131.601563 505.597656 C 136.699219 501.5 141.199219 496.402344 144 491 C 144.699219 487.902344 143.300781 484.800781 140.699219 483 "/>
<path style=" stroke:none;fill-rule:nonzero;fill:rgb(0%,0%,0%);fill-opacity:1;" d="M 207.898438 503.402344 C 199.199219 500.902344 194 509.402344 187 512.300781 C 183.898438 513.300781 181.199219 511.800781 179.300781 509.199219 C 178.101563 506.199219 174.5 503.097656 176.898438 499.800781 C 178 499.597656 178.699219 500.402344 179.800781 500.097656 C 182.601563 500.300781 184.699219 502.902344 186.5 504.597656 C 188 505 190 505.199219 190.800781 503.402344 C 195 492.699219 191.601563 480.402344 187.5 470.800781 C 182.5 462.800781 171.601563 461.898438 163.699219 465 C 162.398438 465.898438 160 467.398438 160.398438 469.101563 C 163.5 470.101563 167.5 472.199219 168.300781 475.800781 C 170 484.5 168.101563 492.800781 161.601563 498.597656 C 150.699219 505.300781 139.398438 510.902344 126.800781 513.300781 C 125 509.402344 121 507 117.199219 506.097656 C 112.398438 505.402344 108 506.800781 104.699219 510.199219 C 103.699219 516.398438 98 511.5 94.800781 511.597656 C 82.5 505.800781 64.699219 503.597656 60.800781 487.402344 C 60.800781 481.699219 58.898438 474.398438 64.601563 471 C 66 470.101563 68.699219 470.101563 68.898438 468.199219 C 64.699219 462.5 57.199219 463.5 50.898438 464.101563 C 38.601563 467.5 38 480.800781 36.5 491.199219 C 36.800781 496 36.398438 501.300781 39.601563 504.597656 C 40.800781 505.597656 42.300781 504.902344 43.5 504.402344 C 45.199219 500.902344 48.699219 499.800781 52.398438 500.097656 C 54.699219 503 51.199219 505.402344 50.699219 508 C 48.898438 510.800781 46.199219 513.300781 42.5 512.597656 C 35.300781 509.902344 29.898438 500.699219 21.199219 503.699219 C 15.601563 507.597656 9.5 510.902344 4.800781 516.398438 C 9.800781 521.398438 15.898438 525.5 21.398438 530.101563 C 31 532 36 521.300781 44.898438 520.699219 C 48.699219 521.699219 51 525.800781 52.101563 529.101563 C 52.601563 530.699219 53.5 532.898438 51.199219 533.699219 C 47.101563 535 44.199219 531.398438 41.800781 528.601563 C 40.101563 528.800781 38.5 528.898438 37.5 530.601563 C 34.800781 537.398438 36.101563 546.199219 39.199219 552.398438 C 44.898438 563 56.601563 566.101563 68.199219 565.101563 C 68.5 563.300781 66.199219 563.800781 65.300781 562.699219 C 59.199219 558.898438 58.898438 551.601563 60 545.199219 C 65.300781 529.898438 81.898438 525.898438 95.601563 523.800781 C 80.398438 533.601563 68.699219 549 68.699219 567 C 68.898438 572.398438 72.800781 577.699219 77.800781 579.5 C 91 582.5 95.5 565.800781 105.898438 561.800781 C 108.101563 561.5 111.101563 560.898438 112.601563 563.199219 C 114.601563 563.101563 113.699219 560.699219 114.300781 559.398438 C 114.101563 553.898438 108 553.699219 104.699219 551.199219 L 98.398438 552.398438 C 93.199219 552.5 88.800781 550 85.5 546.199219 C 84.199219 543.601563 86.398438 541.800781 88.101563 540.199219 C 95.199219 536.398438 102.199219 532.300781 109.699219 529.398438 C 112.898438 530.5 116.898438 530.601563 120 529.101563 L 140.398438 539.699219 L 143.300781 542.601563 C 143.800781 543.601563 144.5 545.101563 143.601563 546.199219 C 139.101563 551.800781 131.398438 553.5 124.601563 551.199219 C 121.5 553.199219 117.300781 553.800781 115.199219 557.199219 C 114.800781 559.199219 115 561.5 116 563.199219 C 116.898438 563.199219 117.300781 562 118.101563 561.800781 C 125.101563 559.699219 129.800781 566.398438 134.398438 571.101563 C 138.800781 576.5 144.101563 581.199219 151.199219 579.5 C 156.5 577.601563 160.101563 572 160.601563 566.601563 C 160.101563 548.800781 148.800781 533.398438 133.5 523.800781 C 139.398438 524.601563 145.5 526 151.199219 527.898438 C 159.898438 531 169.398438 539.300781 169.699219 549.300781 C 169.601563 555 168.300781 561.199219 162.300781 563.398438 C 161.699219 563.5 160.199219 564.300781 161.101563 565.101563 C 172.898438 566.101563 185.199219 562.5 190.601563 551.199219 C 192.800781 544.898438 195.300781 535.699219 190.800781 529.601563 C 186.300781 525.300781 185.800781 533.199219 182 533.398438 C 180.300781 533.601563 177.800781 534.398438 176.699219 532.699219 C 176 529.898438 177.800781 527.398438 178.800781 525 C 180.5 522.601563 182.898438 520 186.300781 520.699219 C 193.699219 523.101563 198.898438 531.5 207.601563 530.101563 L 224.199219 516.898438 L 224.199219 516.199219 C 219.398438 510.402344 213.300781 507.699219 207.898438 503.402344 Z M 58.800781 543.800781 C 57.101563 549.898438 57.5 557.601563 62.199219 562.199219 L 63.898438 563.699219 C 55.101563 563.699219 47.101563 561 41.800781 553.601563 C 38 547.5 36.5 538.800781 38.898438 531.5 C 41.601563 527.699219 42.5 533.699219 44.898438 534.199219 C 47.101563 535.5 50.5 536.300781 52.800781 534.601563 C 56.699219 531.800781 52.800781 527.898438 52.101563 524.800781 C 50.699219 522.199219 48 519.699219 45.199219 519 C 36.101563 519.101563 31.101563 529.601563 21.898438 528.398438 L 7 516.601563 C 11.300781 511.402344 17.199219 508.800781 22.398438 504.902344 C 33.398438 502.597656 42.101563 523.800781 51.898438 509.199219 C 53.199219 506.097656 56.398438 502.597656 53.800781 499.097656 C 52.5 497.902344 50.101563 498.402344 48.5 498.597656 C 44.199219 497.800781 43.199219 506.597656 39.398438 502 C 36.601563 491.699219 38.898438 480.402344 43.199219 471.5 C 47.300781 465.199219 54.800781 464.699219 62 465.5 C 63.601563 466.398438 65.398438 466.601563 66.800781 468.199219 C 63.199219 469 60.101563 472.800781 59.101563 476.101563 C 57.199219 486.199219 60.300781 495.097656 68.199219 501.300781 C 78.898438 507.097656 89.601563 513 101.800781 515 C 100.601563 517.101563 103.101563 520.800781 99.898438 521.199219 C 84.300781 524.101563 65.601563 526.601563 58.800781 543.800781 Z M 85.5 540.398438 C 84.199219 542.101563 82.898438 544.101563 83.800781 546.398438 C 87.5 551.699219 93.800781 554.601563 100.398438 553.800781 C 104.699219 550.5 107.898438 555.800781 111.601563 556.699219 C 112.5 557.800781 112.699219 559.101563 112.601563 560.601563 C 110.699219 560.101563 107.898438 559.5 105.601563 560.101563 C 94 563.601563 85.800781 589.101563 72.5 573.300781 C 67.601563 565 72.101563 555.300781 75.199219 547.601563 C 80.398438 536.898438 91.800781 527.699219 102 522.398438 C 103 524.699219 105 526.800781 107.101563 528.398438 C 99.898438 532.398438 92.101563 535.101563 85.5 540.398438 Z M 114.800781 528.601563 C 110.601563 528.5 106.601563 526.800781 104.398438 522.898438 C 103 519.699219 102.800781 515.5 104.898438 512.597656 C 107.898438 508 113.300781 507.097656 118.101563 508 C 120.300781 508.902344 122.699219 510 124.101563 512.300781 C 126.5 515.5 126.199219 520.601563 124.101563 523.800781 C 121.800781 526.800781 118.601563 528.800781 114.800781 528.601563 Z M 158.898438 566.800781 C 158.601563 571.601563 154.898438 576.5 150.300781 578.101563 C 136.199219 579.601563 132.300781 556.800781 117.898438 560.101563 C 117.5 560.199219 117.199219 560.800781 116.699219 560.601563 C 115.398438 555.101563 122.101563 555.398438 124.800781 552.898438 C 130.800781 554.898438 137.898438 553.601563 142.601563 549.800781 C 144.300781 548.300781 145.601563 546.601563 145.699219 544.5 C 145.300781 541.101563 142.101563 538.898438 139.5 537 L 122.199219 528.398438 C 124.300781 527 125.898438 524.601563 127 522.398438 C 143.898438 530.199219 158.898438 547.601563 158.898438 566.800781 Z M 207.199219 528.398438 C 196 530.5 186 508.5 176.898438 525 C 176.300781 527.699219 174.199219 530 175 533 C 176.300781 536.101563 180.199219 535.5 182.699219 534.898438 C 184.699219 533.898438 186.5 532.199219 188 530.300781 C 189.300781 530.199219 190.5 531.300781 190.800781 532.5 C 192.800781 542.300781 190.601563 552.300781 182.398438 558.601563 C 177.5 562.101563 171.699219 563.5 165.398438 563.699219 C 171.5 559.898438 171.800781 551.398438 170.699219 544.699219 C 164.300781 526.300781 144.101563 524.101563 128 520.699219 L 127.5 520.199219 L 127.5 514.699219 C 139.601563 512.597656 150.300781 507.097656 160.800781 501.300781 C 168.898438 495.5 171.601563 486.402344 170.199219 476.601563 C 169.699219 472.898438 166.101563 469.101563 162.5 468.199219 C 167.101563 463.398438 175.300781 465 180.800781 466.699219 C 183.101563 468 185 469.898438 186.300781 472.199219 C 190.300781 481.097656 192.800781 492.300781 189.601563 502.199219 C 189.199219 503.199219 187.699219 503.402344 186.800781 503 C 184.601563 498.902344 180.101563 497.902344 176 498.402344 C 174.5 499.597656 173.800781 501.402344 174.5 503.199219 C 176.398438 507.5 178.800781 513.597656 184.398438 514.199219 C 193.101563 514.199219 197.601563 503 206.898438 504.902344 C 212 508.800781 218 511.300781 222 516.601563 L 207.199219 528.398438 "/>
<path style=" stroke:none;fill-rule:nonzero;fill:rgb(0%,0%,0%);fill-opacity:1;" d="M 115.199219 186.898438 C 118 179.800781 121.199219 173 123.601563 165.800781 C 121.101563 161.800781 119.199219 157.601563 117.398438 153.300781 C 116.5 151.101563 115.800781 148.5 114.800781 146.601563 C 113.601563 146.800781 113.898438 148 113.601563 148.699219 C 111.898438 155.101563 108 160.5 105.601563 166.5 L 114.300781 186.898438 Z M 114.5 150.699219 C 116.398438 155.898438 119.199219 161.199219 122 166.300781 C 119.398438 172 117.199219 178 114.800781 183.800781 L 107.300781 166.300781 C 110 161.199219 112.898438 156.199219 114.5 150.699219 "/>
<path style=" stroke:none;fill-rule:nonzero;fill:rgb(0%,0%,0%);fill-opacity:1;" d="M 6.300781 376.699219 C 5 375.5 5 373.199219 3.199219 372.898438 C -2 385.5 2.898438 399.398438 8.898438 410.101563 C 14 417.398438 22.5 417.5 29.800781 420.199219 C 31.5 420.398438 31.398438 422.199219 31.699219 423.5 C 29.699219 426.199219 25.800781 425.199219 23.101563 426.601563 C 18 429.398438 15.898438 435 16.601563 440.601563 C 17.699219 451.199219 27.300781 460.898438 37.199219 463.800781 C 43.398438 464.898438 49 462.601563 53.300781 459 C 49.101563 451.601563 46 443.101563 47.601563 433.800781 C 52.800781 416.5 71.898438 408 84.300781 395.398438 C 96.199219 385.898438 96.5 371.601563 102 359.398438 C 98.601563 382.5 95.898438 407.300781 75.601563 422.800781 C 70.398438 426.398438 62.699219 424.300781 57.601563 421.800781 L 56.898438 422.300781 C 55.5 425.5 55.398438 429.601563 57.199219 432.601563 C 59.199219 436.300781 61.601563 440.101563 63.898438 443.398438 C 76.199219 447.898438 84.199219 434.898438 95.101563 432.199219 C 96.800781 431.300781 98.101563 432.601563 98.398438 434.101563 C 100 437.300781 98 440.199219 95.800781 442.5 C 94.898438 444 92 443.800781 92.699219 445.800781 C 94.699219 455.398438 105.199219 456.699219 111.898438 461 C 113 461.898438 113.300781 463.800781 115 463.800781 C 118.398438 457.800781 125.199219 458 130.101563 454.699219 C 133.800781 452.199219 136 448.300781 136.398438 444.398438 C 133.800781 443.5 131.699219 440.699219 130.601563 438.398438 C 130 436 130.5 433.5 132 431.699219 C 144.199219 433.300781 152.300781 448.199219 165.601563 443.199219 C 168.699219 436.5 176.699219 430 171.898438 421.800781 C 166.101563 424.5 158 426.300781 152.398438 422.101563 C 138.5 411.101563 133.699219 395.398438 130.398438 379.601563 C 129.199219 372.898438 127.601563 366 127.199219 359.199219 L 135.398438 383 C 145.601563 402.601563 168.800781 409.199219 179.800781 428.601563 C 184.300781 438.300781 181.199219 450.199219 176 458.601563 L 176 459.300781 C 179 461.300781 182.199219 463.101563 185.800781 463.800781 C 193.601563 465 199.800781 460.699219 205.199219 455.398438 C 211 448.898438 215.398438 439.398438 210.800781 431 C 208.300781 425.300781 202 426.601563 197.800781 424 C 197.199219 422.898438 197.800781 421.601563 198.300781 420.601563 C 205.601563 417.601563 214.398438 417.5 219.898438 410.601563 C 226.199219 399.699219 231.101563 385.601563 225.898438 372.601563 C 223.5 374.101563 223.398438 378 220.101563 378.898438 C 218.199219 378 218 376 217.5 374.300781 L 222.5 353.398438 C 226.398438 344.800781 222.101563 336 217 329.199219 C 212.601563 331 209.101563 334.601563 204.5 335.898438 C 198.199219 337.398438 193.398438 332.800781 189.601563 328.300781 C 187.101563 324.898438 187.199219 319.300781 188.699219 315.5 C 191.699219 310.601563 196.699219 306.398438 202.601563 306.398438 C 203.101563 306.898438 204.101563 307 204 307.898438 C 201.898438 309.199219 199 308.898438 197.101563 311 C 195.800781 313 195.300781 315.699219 195.898438 318.199219 C 197.101563 320.898438 198.699219 324.300781 201.898438 325.398438 C 207.601563 326 212.699219 324 216.5 319.398438 C 219.199219 316 220.398438 311.398438 219.199219 306.898438 C 217.398438 299 208.699219 295.300781 202.101563 293 C 192.5 291.398438 184.398438 295.601563 178.101563 302.300781 C 165.699219 326.398438 186.5 346.199219 193.199219 367.101563 C 194.601563 372.199219 196.699219 378.5 194.199219 383.699219 C 191.199219 388.898438 185.300781 390.5 179.601563 390.601563 C 171.898438 387 168.800781 378.898438 169 370.699219 C 164.800781 371 160.699219 372.300781 156.300781 371.398438 C 144.101563 367.300781 139 354.398438 135.601563 343.601563 L 169.699219 293.699219 L 170.898438 291.300781 L 135.898438 237.101563 C 138.300781 227.398438 142.300781 216.800781 152 210.699219 C 156.5 206.601563 163.898438 209.300781 169.199219 209.199219 C 168.5 201.699219 171.5 195.699219 176.898438 190.699219 C 181 188 186 190.5 189.898438 191.898438 C 193.199219 193.898438 195.101563 197.199219 195.398438 200.800781 C 194.5 219.199219 182 232.800781 176.398438 249.300781 C 173.101563 259.5 172.5 274 181.699219 281.699219 C 188.601563 286.398438 198.199219 289.601563 206.398438 285.800781 C 212.601563 283.300781 219.300781 277.800781 219.601563 270.699219 C 219.898438 265.601563 217.898438 261.5 213.898438 258.199219 C 210.398438 255.101563 205.300781 253.601563 200.699219 255.300781 C 197.300781 258.199219 194.800781 262.199219 195.898438 266.800781 C 196.398438 270.5 200.398438 271 203.300781 271.601563 C 203.601563 271.898438 204 272.199219 204 272.601563 C 201.898438 275.199219 198.601563 272.699219 196.101563 272.101563 C 190.5 268.898438 186.699219 263.300781 187.699219 256.5 C 188.800781 251 194.398438 245.699219 199.699219 244.300781 C 206.699219 242.699219 211.199219 248.699219 217 251 C 221 245.898438 223.800781 240.398438 224 233.699219 L 217.5 205.898438 C 217.699219 204.199219 218.398438 202.800781 219.601563 201.5 C 222.199219 201.300781 223.5 204.699219 224.699219 206.601563 C 224.898438 207.300781 225.800781 207.898438 226.398438 207.101563 C 229.5 197.398438 228 185.5 223.699219 176.800781 C 221.699219 168.699219 213.5 163.199219 205.699219 161.898438 C 202.800781 160.5 197.199219 161.300781 197.601563 156.699219 C 199.601563 153.898438 203.699219 155.101563 206.398438 153.5 C 212.101563 150.199219 213.199219 143.601563 212.199219 137.699219 C 210.800781 128.5 201.898438 119.601563 193.199219 116.800781 C 187.101563 115.300781 180.699219 117.101563 176 120.898438 C 179.898438 128.601563 183.199219 137.300781 181.5 146.800781 C 176.5 162 160.300781 171.101563 148.601563 181.101563 C 134.601563 191.398438 132.5 207 127.199219 221 C 128.601563 206.5 131.5 191.898438 136.800781 178.699219 C 140.800781 170 147.5 159.800781 157 155.898438 C 162.398438 154.199219 167.199219 156.800781 171.898438 158.300781 C 176.699219 150.101563 168.699219 143.699219 165.601563 137 C 152.300781 132.101563 144.101563 147.101563 131.800781 148.300781 C 130.699219 146.699219 130.101563 144.898438 130.398438 142.699219 C 130.898438 139.699219 133.800781 136.800781 136.601563 135.5 C 135.300781 122.898438 120.800781 124.699219 114.800781 116.300781 C 113.398438 117.601563 111.601563 119.898438 109.699219 120.898438 C 102.800781 123.398438 93.300781 126.800781 92.699219 135.800781 C 94.898438 137 97.398438 139 98.398438 141.300781 C 99.5 143.800781 98.699219 146.800781 97 148.5 C 84.898438 146.898438 76.699219 132 63.398438 137 C 60.5 143.800781 52.601563 150.300781 57.199219 158.300781 C 59.898438 158.300781 61.699219 156.199219 64.398438 155.898438 C 70.398438 154.601563 75.5 156.800781 79.699219 160.5 C 96.101563 177 99.101563 199.199219 102 221 C 98.898438 213.300781 96.601563 205.300781 93.898438 197.5 C 84 178.601563 62.601563 171.398438 50.699219 154 C 44.300781 143.898438 47.800781 130.5 53.300781 121.101563 C 49.601563 118.199219 45 116.199219 39.898438 116.101563 C 31.5 117.199219 23.898438 123.300781 19.5 130.699219 C 16.5 136.300781 14.898438 144.199219 18.800781 149.898438 C 21.5 155.101563 27.398438 153.800781 31.5 156.398438 C 32 157.5 31.5 158.601563 31 159.5 C 23.601563 162.699219 14.601563 162.5 9.199219 169.898438 C 3.398438 179.898438 -0.898438 191.699219 2 204.199219 C 2.800781 205.199219 2 207.5 3.898438 207.5 C 5.5 205.398438 6.300781 202 9.398438 201.5 C 10.800781 202.5 11 203.800781 11.601563 205.101563 C 10.800781 218.601563 0.699219 231.699219 8.199219 245 C 12.398438 260.101563 20.601563 240.199219 29.101563 244.300781 C 34.300781 245.5 39.101563 250.398438 41.101563 255.300781 C 42.398438 261.199219 40.5 267.101563 35.300781 270.699219 C 32.398438 272.5 28.699219 275.300781 25.199219 272.800781 C 25.5 270.800781 28.199219 271.800781 29.601563 270.898438 C 31.601563 270.101563 33 268.398438 33.398438 266.300781 C 33.898438 262 32 257.898438 28.398438 255.300781 C 24.199219 253.5 19.699219 255.300781 16.398438 257.5 C 12 261.101563 8.601563 265.5 9.601563 271.601563 C 10.300781 279.601563 18.699219 284.398438 25.199219 286.699219 C 34.5 289.300781 43.398438 285.199219 50.199219 279.101563 C 64 255.5 43.300781 234.300781 36 213.5 C 34.699219 208.101563 32.300781 201.199219 35.300781 195.800781 C 38.601563 190.898438 44.101563 190 49.5 189.5 C 56.601563 193 60.601563 201 59.800781 209 L 60.5 209.699219 C 63.699219 209.5 66.5 208.199219 69.898438 208.5 C 84 209.800781 90.101563 225.5 93.398438 236.800781 L 58.398438 291.101563 C 58.398438 291.398438 58.101563 292 58.601563 292.300781 L 93.398438 343.601563 C 91 352.601563 87.5 361.300781 79.699219 367.800781 C 74.699219 373.101563 66.800781 371.898438 60.300781 370.699219 L 59.800781 371.199219 C 60.300781 378.898438 57.300781 386.898438 50 390.601563 C 43.898438 390.699219 36.800781 388.898438 34.398438 382.5 C 32.398438 361.800781 48.300781 347.300781 53.300781 329 C 56.300781 319.199219 55.699219 306.699219 48.300781 299.199219 C 42 295 34.898438 291.300781 26.699219 293.199219 C 20 295.300781 11.199219 299.699219 9.898438 307.601563 C 8.5 313.199219 10.800781 317.800781 14.699219 321.5 C 18.199219 325 23.398438 326.5 28.101563 325.101563 C 31.601563 322.800781 33.300781 319.398438 33.601563 315.5 C 33.398438 313.101563 32.398438 310.300781 29.800781 309.5 C 28.300781 308.699219 25.601563 309.398438 25.199219 307.398438 C 26.699219 306.101563 28.300781 306.699219 30 306.898438 C 35 308.601563 40.5 313.101563 41.300781 318.699219 C 42.601563 325 38.898438 330.398438 33.898438 334 C 26.300781 339.898438 18.699219 332.699219 12.300781 329.199219 C 8.300781 334.300781 5.398438 339.800781 5.300781 346.5 L 11.300781 372.398438 C 12 374.699219 11.300781 377 9.601563 378.601563 C 8.300781 379.300781 7.300781 377.601563 6.300781 376.699219 Z M 152.898438 424.199219 C 158.199219 427.300781 165.800781 426.800781 170.898438 423.800781 C 172.101563 425.398438 171.800781 428.5 171.199219 430.5 C 169.699219 434.699219 166.199219 438 164.398438 442 C 152.699219 445.199219 145.398438 433.199219 135.199219 430.699219 C 133.5 430.5 130.699219 428.800781 129.898438 431.699219 C 128.601563 434.699219 128 438.898438 130.398438 441.5 C 131.300781 443.800781 134.898438 444.199219 134.398438 446.601563 C 131.5 456.300781 120.300781 454.5 114.800781 461.398438 C 108.601563 454.5 96.601563 456.300781 94.398438 445.601563 C 97.699219 443.699219 100.398438 440.300781 100.601563 436.5 C 100.101563 434.199219 99.800781 432 98 430.199219 C 85.398438 430.800781 77.601563 445.601563 64.601563 442 C 62 436.101563 55.601563 430.898438 58.101563 423.800781 C 64 427 72.5 427.300781 78 423.300781 C 97.601563 407 100.101563 382.699219 104 359.398438 L 114 372.601563 C 115.5 373.601563 115.800781 371.398438 116.699219 370.699219 L 125.300781 359.398438 C 129 383.300781 131.699219 408.699219 152.898438 424.199219 Z M 114.5 230.300781 C 117.101563 233.5 119.5 237.101563 122 240.398438 L 117.601563 285.5 C 120.199219 287.300781 122.300781 289.800781 124.800781 291.5 L 117.601563 297.5 L 122 339.800781 C 119.5 343.199219 117 346.601563 114.5 350.101563 L 107.300781 340 L 111.601563 298 L 104.398438 291.800781 L 111.601563 285.300781 L 107.300781 240.199219 Z M 106.601563 238 L 103.5 224.601563 L 114.5 209.898438 C 118.300781 214.5 121.898438 219.5 125.601563 224.300781 C 125.199219 228.898438 123.5 233.5 122.398438 238 L 115 227.699219 L 114.300781 227.699219 C 111.5 231 109.101563 234.601563 106.601563 238 Z M 114.5 352.699219 C 117.5 349.601563 120 345.800781 122.398438 342.199219 L 125.800781 355.101563 C 122.601563 360.398438 118.398438 365.398438 114.5 370.199219 L 103.5 355.800781 C 104.398438 351.300781 105.199219 346.800781 106.601563 342.398438 C 109.5 345.5 111.300781 349.699219 114.5 352.699219 Z M 156.300781 373.101563 C 160 373.601563 163.898438 373.398438 167.300781 372.398438 C 167.398438 380.699219 171.800781 389.398438 179.800781 392.300781 C 185.101563 392.5 189.5 390.601563 193.5 387.5 C 199.601563 381.898438 196.101563 372.800781 194.699219 366.199219 C 187.898438 345.800781 167.5 326.300781 179.800781 302.800781 C 184.300781 297.800781 190.199219 295.300781 196.601563 294.398438 C 204.699219 294.300781 212.101563 297.898438 216.5 304.699219 C 218.5 308.699219 218.398438 314.398438 215.601563 317.898438 C 212.101563 322.398438 207.300781 324.300781 202.101563 323.699219 C 199.5 322.300781 198 319.601563 197.300781 317 C 197.300781 315.199219 197.300781 313.5 198.300781 312.199219 C 200.398438 309.601563 206.5 311.699219 205.5 306.699219 C 204.398438 304.601563 201.800781 304.5 199.699219 305 C 194.601563 306.398438 189.300781 310.199219 187 315.300781 C 185.5 319.300781 185.5 325.101563 188 328.699219 C 191.898438 334.199219 197.5 338.699219 204.300781 337.601563 C 208.699219 336.5 212.5 333.800781 216.300781 331.101563 C 220.101563 336.199219 223 341.898438 222 348.601563 L 215.800781 374.300781 C 215.800781 376.800781 217.300781 378.898438 219.398438 380.300781 C 221.898438 380.898438 224.199219 377.699219 225.398438 376 C 228.300781 388.398438 224.398438 400.300781 218.199219 410.101563 C 212.601563 416.398438 204.199219 416 197.300781 419.199219 C 196.199219 420.699219 195.398438 422.601563 196.101563 424.5 C 200.101563 428.5 207.5 426 209.800781 432.601563 C 212.898438 439.800781 209.800781 447.300781 205.5 452.800781 C 200.101563 458.699219 193.699219 463.101563 185.800781 462.199219 C 183.199219 461.101563 180.398438 460.601563 178.101563 458.800781 C 178.800781 456.800781 180.199219 454.5 181 452.300781 C 184.601563 443.800781 185 431.5 178.800781 424 C 166.898438 407.101563 146.5 400.5 136.800781 382.199219 C 132.101563 367.699219 126.398438 353.5 123.601563 338.101563 L 119.601563 298.300781 L 126 293 L 128.398438 296.300781 C 129.5 313 129.601563 330.101563 134.398438 345.300781 C 137.601563 356.300781 143.898438 369.601563 156.300781 373.101563 Z M 127.5 291.800781 L 130.398438 286.699219 L 132 256.699219 L 154.601563 291.5 L 132 323.699219 L 130.398438 295.898438 Z M 169 291.300781 L 165.398438 297.101563 L 135.398438 341 L 132.300781 326.800781 C 140.398438 315.101563 148.398438 303.398438 156.800781 291.800781 C 149.101563 278.800781 140.199219 266.5 132.300781 253.601563 L 135.398438 239.5 Z M 128.398438 222.699219 C 134.300781 209.199219 134.898438 193.300781 148.800781 183.300781 C 160.898438 172.699219 178.601563 162.898438 183.199219 146.800781 C 184.601563 137.699219 182.199219 129 177.898438 121.601563 C 181.898438 119 186.5 117.199219 191.601563 118 C 197.601563 119.5 202.800781 124 206.898438 129.300781 C 210.199219 134.601563 212.800781 142.398438 209.300781 148.5 C 206.800781 156 192.199219 149.898438 196.800781 160.5 C 203.898438 164.699219 213.5 163.199219 218.898438 171.101563 C 224.300781 180.699219 228.601563 192.101563 225.398438 204.199219 C 224.199219 202.398438 221.898438 199.300781 219.398438 199.898438 C 217.101563 201.101563 215.898438 203.699219 215.800781 206.300781 L 222.300781 233.199219 C 222.398438 239.398438 219.800781 244.398438 216.300781 249.101563 C 211.199219 245.699219 206.300781 241.601563 199.699219 242.601563 C 193.699219 244 187.898438 249.601563 186.300781 255.5 C 185.199219 262.398438 187.699219 268.800781 193.699219 272.601563 C 196.699219 274.5 200.398438 276 204 275 C 205.699219 274.101563 205.699219 272.300781 205.199219 270.898438 C 202.699219 268.898438 197.5 270.300781 197.300781 265.601563 C 197 261.898438 198.800781 258.898438 201.601563 256.699219 C 205.898438 255.300781 210.101563 257 213.199219 259.898438 C 217 263.101563 218.699219 267.398438 217.699219 272.300781 C 215.898438 280.101563 207.5 284.300781 200.398438 285.800781 C 192.199219 286.300781 185.300781 283 179.800781 277.398438 C 165.699219 249.5 194.398438 229.898438 196.800781 204.199219 C 197.5 199.898438 196.601563 195.699219 193.5 192.699219 C 188.5 189.398438 181.601563 185.5 175.699219 189.5 C 170.199219 194.398438 167.699219 200.5 167.601563 207.5 C 162.800781 206.601563 155.800781 206 151.5 209 C 135.398438 219.800781 133.398438 238.601563 130.101563 255.800781 L 128.398438 286.699219 L 126 290.101563 L 119.601563 284.601563 C 122.601563 264 121.300781 241.601563 128.398438 222.699219 Z M 78.5 157.398438 C 74.601563 154.398438 69.601563 153.398438 64.398438 154.300781 C 62.199219 154.800781 60.199219 155.800781 58.101563 156.398438 C 55.601563 149.398438 62.101563 144.300781 64.601563 138.398438 C 74.601563 134.699219 81.398438 144.300781 89.601563 147.800781 C 92.101563 149.300781 95 149.800781 98 150.199219 C 100.398438 147.699219 101.398438 143.800781 99.898438 140.601563 C 98.898438 136.199219 90.699219 135.101563 96.5 130.300781 C 101.199219 123.699219 109.699219 125 114.5 118.699219 C 120.199219 126 132.800781 123.898438 134.699219 134.800781 C 131.800781 136.398438 129.300781 139.398438 128.699219 142.5 C 128.800781 145.398438 129 148.5 131.601563 150.199219 C 143.601563 149.199219 151.101563 135.5 164 137.898438 C 166.601563 142.300781 170.300781 146.5 171.601563 151.601563 C 171.5 153.101563 172 154.898438 171.199219 156.199219 C 167 154.898438 161.398438 152.5 156.300781 154.5 C 138.699219 163.101563 132.898438 182.199219 128.898438 199.101563 C 127.5 206.199219 126.300781 213.398438 125.300781 220.699219 C 121.5 216.398438 118.601563 211.398438 114.800781 207.300781 L 113.800781 207.800781 C 110.300781 212 107.5 216.5 104 220.699219 C 100.101563 197.699219 97.398438 174 78.5 157.398438 Z M 73.699219 207.300781 C 69.898438 206.398438 65.398438 206.898438 61.699219 207.800781 C 61.398438 199.699219 57.800781 191.601563 50.199219 188.101563 C 43.800781 187.800781 37.101563 189.601563 33.601563 195.5 C 30.800781 200.800781 32.800781 207.5 34.101563 212.800781 C 40.601563 233.800781 61.800781 253.800781 49.199219 277.601563 C 43.5 283.199219 36.199219 286.699219 27.898438 285.800781 C 21.5 283.699219 13.398438 280.300781 11.601563 272.800781 C 11.101563 269.199219 11.101563 265.199219 13.5 262.5 C 16.898438 258.398438 21.5 255.601563 26.898438 256.5 C 29.800781 258.101563 31.5 261.101563 32 264.199219 C 31.800781 266 31.5 268 29.800781 269 C 27.800781 270.199219 24.5 269.300781 23.601563 271.898438 C 23.398438 273.300781 24.199219 274.601563 25.5 275.199219 C 31.699219 275.800781 37.300781 272.300781 41.101563 267.101563 C 43.199219 262.300781 44.5 255.398438 40.800781 251 C 38.101563 247.300781 34.398438 243.699219 30 242.800781 C 23.199219 241.5 18.101563 245.5 13 249.101563 C -0.300781 236.5 12.699219 219.601563 13.199219 205.101563 C 12.898438 202.800781 11.398438 200.199219 8.898438 199.601563 C 6.699219 200.300781 5.199219 202.300781 3.898438 204.199219 C 0.601563 191.800781 4.898438 179.699219 11.300781 169.898438 C 16.898438 163.699219 25.101563 164.101563 32 161 C 33.398438 159.800781 33.199219 157.699219 33.199219 156.199219 C 29.898438 151.199219 21.800781 154.601563 19.5 147.800781 C 16.101563 141.199219 19.300781 133.699219 23.101563 128.300781 C 28.300781 121.800781 35.601563 116.699219 44 118.300781 C 46.5 118.800781 48.699219 120.101563 50.898438 121.398438 C 49.800781 124.898438 47.300781 128.800781 46.601563 132.898438 C 41.601563 148 51.601563 160.300781 63.199219 169.601563 C 74.398438 178.5 89.101563 188.101563 93.898438 202 C 98.101563 215.300781 103 228.300781 105.398438 242.300781 L 109.699219 284.601563 L 103.199219 290.101563 L 100.601563 286.5 C 99 269 100.5 250.300781 94.601563 234.699219 C 91.398438 223.898438 85.5 211.5 73.699219 207.300781 Z M 101.601563 292 L 98.699219 296.300781 L 97.199219 323.5 C 90.101563 313.101563 83.199219 302.300781 76.101563 291.800781 L 76.101563 291.101563 L 97 257 L 98.898438 287.5 C 99.800781 289 101.199219 290.300781 101.601563 292 Z M 60.300781 291.800781 L 61.699219 288.898438 L 93.601563 239.5 L 94.101563 240.199219 L 97 253.601563 L 74 291.300781 L 74 292 L 97 326.800781 C 95.898438 331.5 94.699219 336.199219 93.898438 341 Z M 12.5 377.699219 C 13 376.101563 13.601563 374.199219 13 372.398438 L 7 346.699219 C 6.898438 340.800781 9.398438 335.898438 12.800781 331.398438 C 18.898438 335.300781 27 341.101563 34.398438 335.699219 C 40 331.601563 44.601563 325.898438 43 318.699219 C 42.5 312.601563 36.300781 307.398438 31 305.5 C 28.800781 304.800781 26.5 304.5 24.5 305.699219 C 23.601563 306.699219 23.101563 308.398438 24 309.5 C 26.898438 310.898438 32.398438 310.398438 32 315.300781 C 32 318.699219 30.199219 321.398438 27.601563 323.5 C 24.300781 324.601563 20.199219 323.601563 17.300781 321.5 C 14.800781 319.5 12.5 317 11.601563 314.101563 C 10.300781 308.199219 12.601563 302.800781 17.300781 299.5 C 23.5 294.601563 33.800781 292.300781 40.800781 296.800781 C 45.398438 298.5 50.300781 302.5 51.601563 307.398438 C 60.199219 336.601563 30.101563 354.5 32.699219 382.699219 C 34.800781 389.300781 41.800781 391.300781 47.601563 392.601563 C 54.300781 392.898438 58.300781 385.398438 60.5 380.300781 L 62 372.601563 C 70.601563 375.699219 78.800781 371.898438 84.800781 365.398438 C 98.898438 346.199219 99.5 321.300781 100.601563 296.601563 C 102.199219 288.398438 106.898438 297.398438 109.699219 298.5 C 106.699219 318.300781 107.601563 339.800781 100.601563 358 C 95.199219 370.601563 94.800781 385.199219 82.601563 395 C 70.101563 406.800781 51.699219 416 46.101563 432.898438 C 44.199219 442 47 451 51.199219 458.601563 C 47.398438 461.199219 42.800781 463.398438 37.5 462.199219 C 28.300781 459.699219 19.199219 450.300781 18.300781 440.601563 C 17.898438 435.800781 19.101563 430.601563 23.800781 428.101563 C 27 427.101563 31 427.398438 33.199219 424.199219 C 33.898438 422.601563 32.898438 421.101563 32.199219 419.699219 C 24.898438 416.199219 15.898438 416.5 10.398438 409.398438 C 4.898438 399.601563 0.699219 387.898438 3.898438 376 C 4.5 377.800781 6.398438 379.398438 8 380.300781 C 9.898438 381.199219 11.398438 379.101563 12.5 377.699219 "/>
</g>
</svg>
