<?xml version="1.0" encoding="UTF-8"?>
<svg xmlns="http://www.w3.org/2000/svg" xmlns:xlink="http://www.w3.org/1999/xlink" width="567pt" height="566pt" viewBox="0 0 567 566" version="1.1">
<g id="surface1">
<path style=" stroke:none;fill-rule:nonzero;fill:rgb(0%,0%,0%);fill-opacity:1;" d="M 7.339844 535.449219 C 1.082031 540.496094 0.84375 540.238281 0.84375 540.238281 L 0.832031 462.789063 C 0.832031 462.789063 15.195313 475.316406 37.117188 472.621094 C 86.6875 466.535156 115.230469 430.113281 155.382813 363.480469 C 194.933594 297.847656 218.214844 270.789063 235.324219 261.941406 C 246.476563 256.171875 247.460938 257.960938 252.863281 252.519531 C 265.40625 239.875 296.765625 211.546875 310.851563 207.066406 C 328.273438 201.523438 329.074219 204.371094 313.097656 209.925781 C 297.121094 215.480469 262.367188 251.25 257.640625 255.753906 C 252.910156 260.261719 254.058594 259.496094 252.148438 267.523438 C 250.238281 275.554688 251.339844 284.847656 205.570313 326.765625 C 177.554688 352.429688 164.054688 371.992188 150.863281 390.3125 C 117.855469 436.160156 50.78125 500.421875 7.339844 535.449219 Z M 35.988281 171.316406 C 13.796875 112.078125 23.109375 44.023438 49.035156 9.457031 C 60.570313 -5.925781 61.078125 -0.507813 49.847656 15.101563 C 33.574219 37.722656 24.96875 94.53125 53.636719 153.84375 C 53.714844 154.007813 53.789063 154.160156 53.867188 154.320313 C 55.953125 152.464844 58.003906 150.660156 59.996094 148.910156 C 62.46875 146.742188 66.515625 143.265625 68.316406 141.203125 C 70.117188 139.136719 72.410156 131.425781 79.542969 126.902344 C 113.238281 105.550781 162.671875 105.976563 191.96875 125.636719 C 219.015625 113.980469 237.628906 114.667969 241.992188 116.304688 C 248.144531 118.613281 250.738281 120.296875 257.515625 118.863281 C 289.597656 112.085938 329.933594 107.847656 357.949219 115.3125 C 369.675781 118.433594 371.667969 124.53125 357.824219 119.917969 C 335.382813 112.4375 280.421875 120.519531 264.398438 123.292969 C 254.664063 124.980469 256.664063 126.320313 248.972656 134.011719 C 242.699219 140.28125 233.863281 144.945313 214.035156 153.113281 C 225.746094 180.65625 226.246094 209.386719 216.457031 236.816406 C 243.105469 231.148438 239.492188 236.1875 214.117188 242.851563 C 204.53125 265.949219 187.617188 287.972656 163.882813 307.394531 C 142.730469 324.703125 143.078125 317.332031 161.191406 301.625 C 180.015625 285.304688 195.777344 266.109375 205.894531 245.570313 C 198.730469 248.523438 186.730469 253.941406 184.175781 255.4375 C 180.765625 257.433594 178.871094 260.054688 177.335938 263.128906 C 175.796875 266.207031 157.886719 279.226563 139.425781 293.839844 C 134.09375 298.0625 129.128906 302.320313 124.472656 306.613281 C 138.542969 359.574219 115.285156 414.464844 89.40625 438.273438 C 79.792969 447.121094 77.921875 441.398438 84.074219 436.015625 C 115.078125 408.886719 123.464844 369.789063 109.570313 321.648438 C 81.597656 352.734375 69.226563 385.148438 66.039063 417.023438 C 65.273438 424.71875 62.105469 425.972656 62.242188 417.894531 C 62.921875 377.816406 71.613281 353.027344 105.054688 307.792969 C 99.054688 291.277344 90.589844 273.792969 79.710938 255.457031 C 48.175781 303.644531 30.726563 367.628906 45.878906 420.210938 C 52.414063 442.902344 48.125 441.132813 42.601563 422.214844 C 26.578125 367.355469 41.992188 300.703125 72.828125 244.003906 C 61.023438 224.027344 45.105469 193.753906 37.824219 176.042969 C 9.503906 207.300781 -7.730469 252 26.214844 298.179688 C 34.300781 309.175781 29.453125 309 22.914063 299.386719 C -15.988281 242.175781 7.335938 201.097656 35.988281 171.316406 Z M 95.078125 234.523438 C 103.925781 251.914063 111.597656 268.597656 119.160156 290.0625 C 135.4375 272.105469 154.628906 259.015625 159.898438 255.722656 C 166.054688 251.875 169.5625 251.839844 173.921875 251.695313 C 178.277344 251.554688 179.890625 251.28125 185.21875 248.964844 C 189.054688 247.292969 201.894531 242.09375 208.785156 239.3125 C 220.378906 212.347656 221.988281 183.363281 207.828125 155.640625 C 204.992188 156.785156 202.011719 157.976563 198.769531 159.265625 C 152.117188 177.777344 123.242188 199.644531 95.078125 234.523438 Z M 56.066406 158.84375 C 68.34375 183.984375 78.503906 202.816406 87.386719 219.699219 C 106.769531 190.210938 130.148438 164.746094 154.828125 147.003906 C 164.429688 140.097656 173.507813 134.65625 181.941406 130.359375 C 153.691406 120.53125 112.8125 135.484375 104.496094 140.390625 C 89.496094 149.234375 83.539063 151.332031 77.769531 150.175781 C 72 149.023438 70.738281 147.917969 62.277344 154.070313 C 60.226563 155.5625 58.148438 157.164063 56.066406 158.84375 Z M 393.789063 203.902344 C 416.992188 184.289063 479.164063 100.6875 479.9375 96.585938 C 480.703125 92.484375 481.421875 91.550781 483.726563 88.730469 C 485.335938 86.761719 498 72.710938 506.773438 62.96875 C 518.714844 49.707031 516.882813 47.839844 503.792969 59.628906 C 494.042969 68.40625 479.691406 81.34375 477.703125 82.96875 C 474.882813 85.277344 473.949219 85.992188 469.847656 86.761719 C 465.742188 87.53125 382.144531 149.707031 362.527344 172.910156 C 229.148438 330.699219 132.832031 420.535156 22.058594 534.738281 C 14.765625 542.257813 10.820313 546.601563 10.820313 546.601563 C 10.820313 546.601563 7.390625 557.722656 7.265625 558.875 L 20.09375 555.609375 C 20.09375 555.609375 24.4375 551.667969 31.960938 544.371094 C 146.160156 433.601563 235.996094 337.285156 393.789063 203.902344 Z M 94.074219 529.3125 C 100.160156 479.746094 136.582031 451.199219 203.214844 411.050781 C 268.851563 371.5 295.90625 348.21875 304.757813 331.109375 C 310.527344 319.953125 308.734375 318.972656 314.179688 313.570313 C 326.824219 301.027344 355.148438 269.664063 359.628906 255.582031 C 365.175781 238.160156 362.324219 237.359375 356.769531 253.335938 C 351.21875 269.308594 315.445313 304.0625 310.941406 308.792969 C 306.4375 313.519531 307.199219 312.371094 299.171875 314.28125 C 291.140625 316.191406 281.851563 315.09375 239.929688 360.859375 C 214.269531 388.878906 194.707031 402.378906 176.386719 415.566406 C 130.535156 448.574219 66.273438 515.652344 31.246094 559.089844 C 26.203125 565.347656 26.457031 565.585938 26.457031 565.585938 L 103.960938 565.5 C 103.960938 565.5 91.382813 551.234375 94.074219 529.3125 Z M 557.238281 517.398438 C 522.675781 543.324219 454.617188 552.632813 395.378906 530.441406 C 365.601563 559.097656 324.523438 582.421875 267.3125 543.515625 C 257.695313 536.980469 257.519531 532.132813 268.515625 540.21875 C 316.941406 575.8125 357.539063 558.613281 390.652344 528.609375 C 372.941406 521.324219 342.671875 505.410156 322.691406 493.601563 C 265.996094 524.441406 199.34375 539.855469 144.484375 523.832031 C 125.566406 518.304688 123.796875 514.015625 146.484375 520.554688 C 199.066406 535.707031 263.054688 518.257813 311.238281 486.71875 C 292.90625 475.84375 275.417969 467.375 258.902344 461.378906 C 213.671875 494.816406 188.878906 503.511719 148.804688 504.191406 C 140.726563 504.324219 141.980469 501.160156 149.671875 500.390625 C 181.546875 497.203125 213.964844 484.835938 245.046875 456.863281 C 196.90625 442.96875 157.808594 451.355469 130.683594 482.355469 C 125.296875 488.511719 119.578125 486.640625 128.421875 477.027344 C 152.230469 451.144531 207.121094 427.890625 260.085938 441.960938 C 264.375 437.300781 268.636719 432.335938 272.855469 427.007813 C 287.46875 408.546875 300.488281 390.636719 303.566406 389.097656 C 306.644531 387.558594 309.261719 385.667969 311.261719 382.253906 C 312.757813 379.699219 318.171875 367.703125 321.128906 360.539063 C 300.585938 370.652344 281.394531 386.417969 265.070313 405.238281 C 249.363281 423.351563 241.996094 423.703125 259.300781 402.550781 C 278.722656 378.8125 300.75 361.898438 323.84375 352.3125 C 330.507813 326.941406 335.550781 323.328125 329.882813 349.976563 C 357.3125 340.1875 386.042969 340.6875 413.582031 352.398438 C 421.75 332.570313 426.414063 323.730469 432.6875 317.460938 C 440.378906 309.769531 441.71875 311.769531 443.40625 302.035156 C 446.179688 286.011719 454.261719 231.050781 446.78125 208.609375 C 442.164063 194.765625 448.261719 196.757813 451.386719 208.480469 C 458.847656 236.5 454.613281 276.835938 447.832031 308.917969 C 446.398438 315.691406 448.085938 318.285156 450.390625 324.441406 C 452.027344 328.804688 452.71875 347.417969 441.0625 374.464844 C 460.71875 403.761719 461.148438 453.195313 439.792969 486.890625 C 435.273438 494.019531 427.5625 496.316406 425.496094 498.117188 C 423.429688 499.917969 419.953125 503.964844 417.785156 506.433594 C 416.039063 508.429688 414.234375 510.480469 412.378906 512.566406 C 412.539063 512.644531 412.691406 512.71875 412.851563 512.796875 C 472.164063 541.464844 528.976563 532.855469 551.597656 516.585938 C 567.207031 505.355469 572.621094 505.859375 557.238281 517.398438 Z M 332.171875 471.355469 C 367.054688 443.191406 388.917969 414.3125 407.433594 367.660156 C 408.71875 364.421875 409.914063 361.4375 411.054688 358.605469 C 383.335938 344.441406 354.351563 346.054688 327.382813 357.648438 C 324.601563 364.535156 319.402344 377.378906 317.734375 381.214844 C 315.414063 386.539063 315.144531 388.152344 315 392.511719 C 314.855469 396.867188 314.820313 400.378906 310.976563 406.53125 C 307.679688 411.804688 294.589844 430.996094 276.632813 447.269531 C 298.101563 454.835938 314.78125 462.507813 332.171875 471.355469 Z M 407.855469 510.363281 C 409.53125 508.28125 411.132813 506.207031 412.625 504.15625 C 418.777344 495.695313 417.675781 494.429688 416.519531 488.660156 C 415.367188 482.894531 417.460938 476.933594 426.308594 461.9375 C 431.210938 453.621094 446.167969 412.742188 436.339844 384.492188 C 432.039063 392.925781 426.601563 402.003906 419.695313 411.605469 C 401.953125 436.28125 376.488281 459.664063 347 479.046875 C 363.878906 487.929688 382.714844 498.085938 407.855469 510.363281 "/>
</g>
</svg>
