<?xml version="1.0" encoding="UTF-8"?>
<svg xmlns="http://www.w3.org/2000/svg" xmlns:xlink="http://www.w3.org/1999/xlink" width="531pt" height="108pt" viewBox="0 0 531 108" version="1.1">
<g id="surface1">
<path style=" stroke:none;fill-rule:nonzero;fill:rgb(0%,0%,0%);fill-opacity:1;" d="M 262.425781 61.152344 L 242.773438 58.675781 C 239.398438 65.050781 234.976563 71.203125 232.125 77.578125 L 251.925781 79.527344 Z M 239.023438 75.25 L 243.824219 66.402344 L 243.148438 64.449219 C 243.757813 64.496094 244.835938 63.722656 245.539063 63.742188 C 245.964844 63.753906 246.425781 66.035156 246.324219 66.535156 C 245.988281 68.242188 244.347656 69.742188 243.824219 71.425781 C 243.824219 71.425781 245.421875 71.964844 245.902344 71.601563 C 246.902344 69.851563 247.527344 68.601563 248.324219 66.777344 L 247.425781 63.550781 C 247.949219 63.027344 249 63.027344 249.824219 62.800781 C 250.605469 63.960938 250.71875 65.046875 250.503906 66.09375 C 250.074219 68.160156 248.371094 70.085938 248.023438 72.175781 C 248.175781 72.476563 248.625 72.25 248.925781 72.328125 C 251.101563 69.402344 253.800781 66.175781 251.398438 62.425781 L 254.101563 61.75 L 255.898438 64.449219 L 248.925781 76.453125 L 239.023438 75.25 "/>
<path style=" stroke:none;fill-rule:nonzero;fill:rgb(0%,0%,0%);fill-opacity:1;" d="M 239.324219 55.976563 L 226.949219 39.402344 L 226.574219 39.402344 L 214.347656 59.949219 L 228 75.027344 C 231.824219 68.652344 235.726563 62.425781 239.324219 55.976563 Z M 220.425781 61.527344 L 222.601563 57.402344 C 223.351563 57.925781 224.699219 59.277344 225.523438 60.25 C 227.773438 58.601563 229.800781 56.574219 230.699219 53.949219 C 230.324219 53.277344 229.648438 52.824219 229.125 52.152344 L 230.699219 47.875 L 234.523438 54.324219 L 225.824219 66.925781 C 224.023438 65.875 222.226563 63.324219 220.425781 61.527344 "/>
<path style=" stroke:none;fill-rule:nonzero;fill:rgb(0%,0%,0%);fill-opacity:1;" d="M 229.273438 81.550781 L 223.351563 91.75 L 241.5 82.976563 L 229.273438 81.550781 "/>
<path style=" stroke:none;fill-rule:nonzero;fill:rgb(0%,0%,0%);fill-opacity:1;" d="M 69.824219 46.75 C 70.835938 47.144531 73.007813 47.941406 73.128906 47.8125 C 74.460938 46.378906 81.238281 37.988281 83.296875 33.734375 C 83.769531 32.761719 84.167969 31.757813 84.480469 30.714844 C 86.304688 24.621094 82.144531 22.542969 77.253906 29.015625 C 73.347656 34.191406 71.957031 40.71875 69.824219 46.75 "/>
<path style=" stroke:none;fill-rule:nonzero;fill:rgb(0%,0%,0%);fill-opacity:1;" d="M 251.773438 51.101563 C 251.175781 51.699219 250.574219 52.074219 249.976563 52.527344 C 247.574219 51.925781 245.023438 50.652344 242.773438 49.152344 C 240.523438 48.175781 241.351563 46.527344 241.726563 44.800781 L 234.300781 43.152344 L 243.523438 54.851563 L 256.648438 56.125 C 255 54.476563 253.574219 52.375 251.773438 51.101563 "/>
<path style=" stroke:none;fill-rule:nonzero;fill:rgb(0%,0%,0%);fill-opacity:1;" d="M 49.648438 78.398438 L 39.898438 67.449219 L 42.972656 89.949219 L 49.648438 78.398438 "/>
<path style=" stroke:none;fill-rule:nonzero;fill:rgb(0%,0%,0%);fill-opacity:1;" d="M 424.726563 47.152344 C 425.058594 46.976563 432.726563 37.847656 434.972656 33.210938 C 435.914063 31.261719 436.578125 29.195313 436.800781 26.949219 C 436.050781 25.074219 433.800781 24.25 432.074219 25.152344 C 425.625 30.625 424.125 38.800781 421.5 46.226563 C 422.511719 46.617188 423.734375 47.6875 424.726563 47.152344 "/>
<path style=" stroke:none;fill-rule:nonzero;fill:rgb(0%,0%,0%);fill-opacity:1;" d="M 414.976563 55.226563 L 402.601563 38.652344 L 402.226563 38.652344 L 390 59.199219 L 403.648438 74.277344 C 407.476563 67.902344 411.375 61.675781 414.976563 55.226563 Z M 396.074219 60.777344 L 398.25 56.652344 C 399 57.175781 400.351563 58.527344 401.175781 59.5 C 403.425781 57.851563 405.449219 55.824219 406.351563 53.199219 C 405.976563 52.527344 405.300781 52.074219 404.773438 51.402344 L 406.351563 47.125 L 410.175781 53.574219 L 401.476563 66.175781 C 399.675781 65.125 397.875 62.574219 396.074219 60.777344 "/>
<path style=" stroke:none;fill-rule:nonzero;fill:rgb(0%,0%,0%);fill-opacity:1;" d="M 53.25 81.324219 L 47.324219 91.523438 L 65.472656 82.75 L 53.25 81.324219 "/>
<path style=" stroke:none;fill-rule:nonzero;fill:rgb(0%,0%,0%);fill-opacity:1;" d="M 404.925781 80.800781 L 399 91 L 417.148438 82.226563 L 404.925781 80.800781 "/>
<path style=" stroke:none;fill-rule:nonzero;fill:rgb(0%,0%,0%);fill-opacity:1;" d="M 401.324219 77.875 L 391.574219 66.925781 L 394.648438 89.425781 L 401.324219 77.875 "/>
<path style=" stroke:none;fill-rule:nonzero;fill:rgb(0%,0%,0%);fill-opacity:1;" d="M 438.074219 60.402344 L 418.425781 57.925781 C 415.050781 64.300781 410.625 70.453125 407.773438 76.828125 L 427.574219 78.777344 Z M 414.675781 74.5 L 419.476563 65.652344 L 418.800781 63.699219 C 419.410156 63.746094 420.488281 62.972656 421.191406 62.992188 C 421.613281 63.003906 422.074219 65.285156 421.976563 65.785156 C 421.640625 67.492188 419.996094 68.992188 419.476563 70.675781 C 419.476563 70.675781 421.070313 71.214844 421.554688 70.851563 C 422.554688 69.101563 423.179688 67.851563 423.976563 66.027344 L 423.074219 62.800781 C 423.601563 62.277344 424.648438 62.277344 425.476563 62.050781 C 426.257813 63.210938 426.367188 64.296875 426.152344 65.34375 C 425.726563 67.410156 424.023438 69.335938 423.675781 71.425781 C 423.824219 71.726563 424.273438 71.5 424.574219 71.578125 C 426.75 68.652344 429.449219 65.425781 427.050781 61.675781 L 429.75 61 L 431.550781 63.699219 L 424.574219 75.703125 L 414.675781 74.5 "/>
<path style=" stroke:none;fill-rule:nonzero;fill:rgb(0%,0%,0%);fill-opacity:1;" d="M 245.851563 46.976563 C 246.863281 47.367188 248.085938 48.4375 249.078125 47.902344 C 249.40625 47.726563 257.078125 38.597656 259.320313 33.960938 C 260.265625 32.011719 260.925781 29.945313 261.148438 27.699219 C 260.398438 25.824219 258.148438 25 256.425781 25.902344 C 249.976563 31.375 248.476563 39.550781 245.851563 46.976563 "/>
<path style=" stroke:none;fill-rule:nonzero;fill:rgb(0%,0%,0%);fill-opacity:1;" d="M 427.425781 50.351563 C 426.824219 50.949219 426.226563 51.324219 425.625 51.777344 C 423.226563 51.175781 420.675781 49.902344 418.425781 48.402344 C 416.175781 47.425781 417 45.777344 417.375 44.050781 L 409.949219 42.402344 L 419.175781 54.101563 L 432.300781 55.375 C 430.648438 53.726563 429.226563 51.625 427.425781 50.351563 "/>
<path style=" stroke:none;fill-rule:nonzero;fill:rgb(0%,0%,0%);fill-opacity:1;" d="M 225.675781 78.625 L 215.925781 67.675781 L 219 90.175781 L 225.675781 78.625 "/>
<path style=" stroke:none;fill-rule:nonzero;fill:rgb(0%,0%,0%);fill-opacity:1;" d="M 63.300781 55.75 L 50.925781 39.175781 L 50.550781 39.175781 L 38.324219 59.722656 L 51.972656 74.800781 C 55.800781 68.425781 59.699219 62.199219 63.300781 55.75 Z M 44.398438 61.300781 L 46.574219 57.175781 C 47.324219 57.699219 48.675781 59.050781 49.5 60.027344 C 51.75 58.375 53.773438 56.347656 54.675781 53.722656 C 54.300781 53.050781 53.625 52.601563 53.097656 51.925781 L 54.675781 47.648438 L 58.5 54.097656 L 49.800781 66.699219 C 48 65.652344 46.199219 63.097656 44.398438 61.300781 "/>
<path style=" stroke:none;fill-rule:nonzero;fill:rgb(0%,0%,0%);fill-opacity:1;" d="M 351.75 18.625 L 345.449219 29.273438 L 331.574219 29.125 L 338.625 41.722656 L 330.824219 55.75 L 346.726563 55.898438 L 352.800781 65.648438 C 355.5 62.046875 357.675781 58.222656 360.375 54.625 L 373.875 54.625 C 371.101563 50.796875 368.550781 46.824219 366.300781 42.773438 L 374.773438 29.425781 L 358.726563 29.273438 Z M 365.925781 49.972656 L 357.523438 50.347656 L 352.648438 57.699219 L 348.148438 51.023438 L 338.925781 50.875 L 343.273438 41.722656 L 338.773438 33.023438 L 347.773438 32.347656 L 351.75 26.050781 L 356.625 33.398438 L 365.925781 33.773438 L 360.523438 42.398438 L 365.925781 49.972656 "/>
<path style=" stroke:none;fill-rule:nonzero;fill:rgb(0%,0%,0%);fill-opacity:1;" d="M 317.324219 50.800781 L 301.273438 50.648438 L 294.300781 40 L 288 50.648438 L 274.125 50.5 L 281.175781 63.097656 L 273.375 77.125 L 289.273438 77.273438 L 295.351563 87.023438 C 298.050781 83.421875 300.226563 79.597656 302.925781 76 L 316.425781 76 C 313.648438 72.171875 311.101563 68.199219 308.851563 64.148438 Z M 308.476563 71.347656 L 300.074219 71.722656 L 295.199219 79.074219 L 290.699219 72.398438 L 281.476563 72.25 L 285.824219 63.097656 L 281.324219 54.398438 L 290.324219 53.722656 L 294.300781 47.425781 L 299.175781 54.773438 L 308.476563 55.148438 L 303.074219 63.773438 L 308.476563 71.347656 "/>
<path style=" stroke:none;fill-rule:nonzero;fill:rgb(0%,0%,0%);fill-opacity:1;" d="M 529.351563 26.574219 L 530.398438 27.625 L 530.398438 20.125 L 528.601563 18.324219 L 522.523438 28.75 L 508.273438 28.898438 C 508.273438 28.898438 513.300781 37.074219 515.476563 41.351563 L 507.523438 55.375 L 523.425781 55.527344 L 530.378906 66.5 L 530.398438 58.824219 L 525.523438 51.773438 L 516.226563 51.398438 C 516.226563 51.398438 519.375 45.175781 520.726563 41.875 C 519.074219 39.101563 517.425781 36.175781 516.226563 33.398438 L 525.226563 32.875 L 529.351563 26.574219 "/>
<path style=" stroke:none;fill-rule:nonzero;fill:rgb(0%,0%,0%);fill-opacity:1;" d="M 492.976563 50.5 L 476.925781 50.351563 L 469.949219 39.699219 L 463.648438 50.351563 L 449.773438 50.199219 L 456.824219 62.800781 L 449.023438 76.828125 L 464.925781 76.976563 L 471 86.726563 C 473.699219 83.125 475.875 79.300781 478.574219 75.703125 L 492.074219 75.703125 C 489.300781 71.875 486.75 67.902344 484.5 63.851563 Z M 484.125 71.050781 L 475.726563 71.425781 L 470.851563 78.777344 L 466.351563 72.101563 L 457.125 71.953125 L 461.476563 62.800781 L 456.976563 54.101563 L 465.976563 53.425781 L 469.949219 47.125 L 474.824219 54.476563 L 484.125 54.851563 L 478.726563 63.476563 L 484.125 71.050781 "/>
<path style=" stroke:none;fill-rule:nonzero;fill:rgb(0%,0%,0%);fill-opacity:1;" d="M 499.125 59.875 C 499.125 59.875 506.25 47.5 509.550781 41.125 L 499.800781 23.875 L 519.824219 23.875 L 528.601563 8.726563 L 530.378906 11.5 L 530.378906 4.4375 L 528.824219 1.75 L 517.066406 20.625 L 491.253906 20.625 L 504.824219 41.875 C 503.550781 42.476563 501.601563 42.25 500.175781 42.023438 L 486.503906 20.625 L 481.753906 20.625 L 495.300781 41.875 C 493.949219 42.476563 492.074219 42.25 490.648438 42.023438 L 477.066406 20.625 L 472.191406 20.625 L 485.773438 41.875 C 484.425781 42.476563 482.550781 42.25 481.125 42.023438 L 467.378906 20.625 L 436.878906 20.625 C 438.453125 21.597656 440.023438 22.675781 441.148438 24.398438 C 443.699219 33.699219 436.125 40.601563 430.726563 47.425781 L 442.574219 60.925781 L 429.074219 83.648438 L 426.523438 83.273438 C 426.523438 83.273438 394.378906 97.75 393.257813 98.160156 C 392.445313 98.242188 391.578125 97.960938 390.898438 97.523438 L 387.148438 61.675781 L 385.125 59.125 L 400.128906 34.9375 L 418.648438 39.925781 C 421.273438 33.101563 422.925781 25.523438 429.449219 20.648438 C 422.441406 20 421.878906 24 419.023438 27.625 L 384.503906 27.625 L 388.941406 20.625 L 364.816406 20.625 L 351.824219 0.625 L 339.816406 20.625 L 316.191406 20.625 L 329.699219 42.25 C 328.050781 42.476563 326.699219 42.476563 325.050781 42.25 L 311.566406 20.625 L 306.675781 20.648438 C 306.675781 20.648438 316.125 35.199219 320.175781 42.398438 L 315.675781 42.398438 L 302.003906 20.625 L 297.148438 20.648438 C 297.148438 20.648438 306.601563 35.199219 310.648438 42.398438 L 306.523438 42.625 C 301.5 35.5 292.378906 20.625 292.378906 20.625 L 258.878906 20.625 C 261.054688 21.675781 263.851563 22.449219 265.273438 25.148438 C 268.199219 34.675781 259.949219 41.351563 255 48.550781 L 266.699219 61.824219 L 253.425781 84.324219 L 250.5 84.175781 L 217.050781 99.101563 L 215.398438 98.425781 L 211.800781 63.472656 C 211.875 61.972656 210.226563 61.152344 209.625 59.875 C 214.648438 51.925781 219.449219 43.675781 224.625 35.949219 L 242.925781 40.824219 C 245.550781 33.324219 247.605469 24.449219 255.628906 20.625 L 249.128906 20.625 L 243.378906 27.625 L 210.941406 27.625 L 214.628906 20.625 L 188.816406 20.625 L 176.925781 1.375 L 164.503906 20.625 L 140.253906 20.625 L 154.050781 41.875 L 154.050781 42.773438 L 149.699219 42.773438 L 135.523438 20.648438 L 130.753906 20.625 L 144.300781 41.726563 L 144.523438 42.773438 L 140.398438 42.773438 C 135.300781 35.648438 131.023438 27.925781 126 20.648438 L 121.003906 20.625 L 135.148438 42.625 C 133.726563 42.925781 132.148438 42.699219 130.648438 42.773438 L 116.398438 20.648438 L 84.375 20.648438 C 87.375 22.363281 89.441406 24.015625 89.917969 27.277344 C 91.054688 35.074219 83.660156 41.941406 79.199219 48.175781 C 83.023438 52.675781 87.148438 57.097656 90.898438 61.675781 L 77.398438 84.175781 L 74.847656 83.800781 L 41.023438 98.949219 L 39.222656 98.050781 L 35.625 62.574219 L 33.449219 59.722656 L 48.375 35.574219 C 54.675781 37 60.898438 39.175781 67.125 40.226563 C 69.675781 33.175781 71.550781 25.148438 78.597656 20.648438 L 74.097656 20.648438 L 68.066406 27.625 L 34.753906 27.625 L 39.003906 20.625 L 13.566406 20.625 C 13.566406 20.625 5.023438 8.199219 0.300781 2.273438 L 0.300781 9.851563 L 9.675781 24.925781 L 30.898438 25.523438 C 27.824219 31.449219 24 37 20.472656 42.773438 L 30.375 59.722656 L 9.898438 60.402344 L 0.300781 75.324219 L 0.253906 85.957031 L 13.5 64.375 L 17.398438 64.527344 C 17.398438 64.527344 7.261719 80.753906 2.386719 89.304688 L 7.039063 89.304688 L 22.648438 64.375 L 26.773438 64.527344 C 26.773438 64.527344 17.035156 80.828125 12.011719 89.304688 L 16.660156 89.304688 L 30.75 66.324219 L 31.800781 71.726563 L 21.003906 89.292969 L 25.878906 89.292969 L 33.074219 78.398438 L 33.824219 83.800781 L 30.191406 89.292969 L 32.941406 89.292969 L 35.625 107.425781 L 81.441406 85.957031 L 107.941406 85.957031 L 118.574219 103.226563 C 121.726563 98.875 124.457031 93.640625 127.605469 89.292969 L 173.191406 89.292969 L 188.625 64.222656 L 192.75 64.375 C 187.726563 72.851563 177.378906 89.292969 177.378906 89.292969 L 182.441406 89.292969 L 197.925781 64.222656 L 202.125 64.375 C 197.25 72.925781 191.75 80.78125 187.101563 89.328125 L 191.601563 89.328125 L 206.25 66.324219 L 207.148438 71.425781 C 203.324219 77.425781 199.699219 83.328125 196.476563 89.328125 L 200.75 89.328125 L 207.824219 78.25 L 209.101563 83.425781 L 205.316406 89.292969 L 209.253906 89.292969 L 212.925781 106.824219 L 256.753906 85.957031 L 283.800781 85.824219 L 294.601563 102.699219 L 304.441406 89.292969 L 348.976563 89.425781 L 364.425781 64 L 368.773438 64.222656 C 368.773438 64.222656 358.351563 80.875 353.625 89.425781 L 358.125 89.425781 L 374.023438 63.847656 L 377.925781 64 C 377.925781 64 367.875 80.949219 362.851563 89.425781 L 367.5 89.425781 L 382.125 65.800781 L 383.023438 71.199219 L 371.941406 89.292969 L 377.441406 89.292969 L 383.925781 77.875 L 385.253906 79.625 L 380.941406 89.292969 L 384.628906 89.292969 C 384.628906 89.292969 386.476563 101.199219 387.523438 106.824219 C 402.824219 100 417.503906 92.707031 432.878906 85.957031 L 459.003906 85.957031 L 470.476563 102.324219 C 473.699219 98.050781 476.925781 93.699219 480.226563 89.425781 L 530.398438 89.425781 L 530.398438 75.0625 L 520.125 60.027344 Z M 128.476563 81.101563 L 119.101563 96.25 L 109.800781 81.851563 L 89.25 81.851563 L 99.675781 63.324219 L 90 45.851563 L 109.800781 45.851563 L 118.199219 31.074219 C 121.648438 35.875 127.800781 46.226563 127.800781 46.226563 L 149.175781 46.75 L 138.75 64 C 141.675781 69.773438 148.648438 80.726563 148.648438 80.726563 Z M 196.726563 42.550781 C 199.648438 48.324219 206.625 59.277344 206.625 59.277344 L 186.449219 59.652344 L 177.074219 74.800781 L 167.773438 60.402344 L 147.226563 60.402344 L 157.648438 41.875 L 147.976563 24.402344 L 167.773438 24.402344 L 176.175781 9.625 C 179.625 14.425781 185.773438 24.777344 185.773438 24.777344 L 207.148438 25.300781 Z M 304.351563 80.875 L 294.976563 96.023438 L 285.675781 81.625 L 265.125 81.625 L 275.550781 63.097656 L 265.875 45.625 L 285.675781 45.625 L 294.074219 30.847656 C 297.523438 35.648438 303.675781 46 303.675781 46 L 325.050781 46.523438 L 314.625 63.773438 C 317.550781 69.546875 324.523438 80.5 324.523438 80.5 Z M 372.074219 42.398438 C 375 48.171875 381.976563 59.125 381.976563 59.125 L 361.800781 59.5 L 352.425781 74.648438 L 343.125 60.25 L 322.574219 60.25 L 333 41.722656 L 323.324219 24.25 L 343.125 24.25 L 351.523438 9.472656 C 354.976563 14.273438 361.125 24.625 361.125 24.625 L 382.5 25.148438 Z M 480 80.578125 L 470.625 95.726563 L 461.324219 81.328125 L 440.773438 81.328125 L 451.199219 62.800781 L 441.523438 45.324219 L 461.324219 45.324219 L 469.726563 30.550781 C 473.175781 35.351563 479.324219 45.699219 479.324219 45.699219 L 500.699219 46.226563 L 490.273438 63.476563 C 493.199219 69.25 500.175781 80.203125 500.175781 80.203125 L 480 80.578125 "/>
<path style=" stroke:none;fill-rule:nonzero;fill:rgb(0%,0%,0%);fill-opacity:1;" d="M 141.449219 51.023438 L 125.398438 50.875 L 118.425781 40.226563 L 112.125 50.875 L 98.25 50.726563 L 105.300781 63.324219 L 97.5 77.351563 L 113.398438 77.5 L 119.476563 87.25 C 122.175781 83.648438 124.351563 79.824219 127.050781 76.226563 L 140.550781 76.226563 C 137.773438 72.398438 135.226563 68.425781 132.976563 64.375 Z M 132.601563 71.574219 L 124.199219 71.949219 L 119.324219 79.300781 L 114.824219 72.625 L 105.601563 72.476563 L 109.949219 63.324219 L 105.449219 54.625 L 114.449219 53.949219 L 118.425781 47.648438 L 123.300781 55 L 132.601563 55.375 L 127.199219 64 L 132.601563 71.574219 "/>
<path style=" stroke:none;fill-rule:nonzero;fill:rgb(0%,0%,0%);fill-opacity:1;" d="M 22.125 55.222656 L 14.550781 43.300781 L 23.023438 29.800781 L 7.351563 29.800781 C 4.5 26.726563 2.851563 22.75 0.300781 19.523438 L 0.300781 25.300781 L 5.550781 33.625 L 16.199219 34.148438 L 10.199219 44.050781 L 16.347656 52.300781 L 5.980469 52.457031 L 0.300781 60.925781 L 0.253906 66.5625 L 8.773438 55 L 22.125 55.222656 "/>
<path style=" stroke:none;fill-rule:nonzero;fill:rgb(0%,0%,0%);fill-opacity:1;" d="M 86.398438 60.925781 L 66.75 58.449219 C 63.375 64.824219 58.949219 70.976563 56.097656 77.351563 L 75.898438 79.300781 Z M 63 75.023438 L 67.800781 66.175781 L 67.125 64.222656 C 67.734375 64.273438 68.8125 63.5 69.515625 63.515625 C 69.941406 63.527344 70.402344 65.808594 70.300781 66.308594 C 69.964844 68.015625 68.320313 69.519531 67.800781 71.199219 C 67.800781 71.199219 69.398438 71.738281 69.878906 71.375 C 70.878906 69.625 71.503906 68.375 72.300781 66.550781 L 71.398438 63.324219 C 71.925781 62.800781 72.972656 62.800781 73.800781 62.574219 C 74.582031 63.734375 74.695313 64.820313 74.476563 65.871094 C 74.050781 67.9375 72.347656 69.859375 72 71.949219 C 72.148438 72.25 72.597656 72.023438 72.898438 72.101563 C 75.074219 69.175781 77.773438 65.949219 75.375 62.199219 L 78.074219 61.527344 L 79.875 64.222656 L 72.898438 76.226563 L 63 75.023438 "/>
<path style=" stroke:none;fill-rule:nonzero;fill:rgb(0%,0%,0%);fill-opacity:1;" d="M 75.75 50.875 C 75.148438 51.476563 74.550781 51.851563 73.949219 52.300781 C 71.550781 51.699219 69 50.425781 66.75 48.925781 C 64.5 47.949219 65.324219 46.300781 65.699219 44.574219 L 58.273438 42.925781 L 67.5 54.625 L 80.625 55.902344 C 78.972656 54.25 77.550781 52.148438 75.75 50.875 "/>
<path style=" stroke:none;fill-rule:nonzero;fill:rgb(0%,0%,0%);fill-opacity:1;" d="M 176.398438 18.777344 L 170.101563 29.425781 L 156.226563 29.277344 L 163.273438 41.875 L 155.476563 55.902344 L 171.375 56.050781 L 177.449219 65.800781 C 180.148438 62.199219 182.324219 58.375 185.023438 54.777344 L 198.523438 54.777344 C 195.75 50.949219 193.199219 46.976563 190.949219 42.925781 L 199.425781 29.574219 L 183.375 29.425781 Z M 190.574219 50.125 L 182.175781 50.5 L 177.300781 57.851563 L 172.800781 51.175781 L 163.574219 51.027344 L 167.925781 41.875 L 163.425781 33.175781 L 172.425781 32.5 L 176.398438 26.199219 L 181.273438 33.550781 L 190.574219 33.925781 L 185.175781 42.550781 L 190.574219 50.125 "/>
</g>
</svg>
