<?xml version="1.0" encoding="UTF-8"?>
<svg xmlns="http://www.w3.org/2000/svg" xmlns:xlink="http://www.w3.org/1999/xlink" width="440pt" height="472pt" viewBox="0 0 440 472" version="1.1">
<g id="surface1">
<path style=" stroke:none;fill-rule:nonzero;fill:rgb(0%,0%,0%);fill-opacity:1;" d="M 433.285156 378.195313 C 419.753906 369.378906 403.410156 365.785156 386.398438 367.800781 C 372 368 361.300781 376.800781 349.199219 382.402344 C 348 383.902344 348.5 385.800781 348.699219 387.199219 C 333.601563 384 317.5 382.902344 301.898438 380.800781 C 302.398438 354.898438 289.699219 329.699219 265.699219 318.800781 C 245.898438 310.199219 215.300781 304.699219 197 319.800781 C 197 319.800781 198.332031 299.042969 189.308594 284.160156 C 169.246094 251.078125 129.660156 236.933594 104.898438 244.898438 C 101 247.699219 94.300781 248.300781 93.601563 254 C 94.101563 255.699219 94.300781 257.398438 95.800781 258.601563 C 97 259.5 98.800781 260 100.300781 259.601563 C 117.847656 248.878906 143.519531 252.109375 163.203125 265.679688 C 182.914063 279.269531 190.414063 301.640625 195.601563 321.5 C 191.898438 325 188.300781 329.601563 186 334 C 184.101563 329.300781 181.5 325 177.601563 321.199219 C 163.898438 306.898438 139.898438 304.800781 122.398438 312.800781 C 107.757813 318.421875 96.503906 333.261719 89.269531 346.371094 C 89.042969 346.78125 73.5 344.5 58.101563 352.898438 C 39.984375 348.453125 33.25 326.675781 38.5 316.835938 C 54.5 321.734375 79.101563 325.601563 94.101563 316.398438 C 105.800781 308.601563 106.101563 294.300781 107.800781 281.398438 C 109.820313 273.996094 99.507813 270.550781 97.398438 277.300781 C 95.898438 290 98 305.800781 84.699219 312.101563 C 71.5 316.800781 56.101563 316.699219 42.5 313.101563 C 44.601563 310.300781 46.601563 307.398438 48.199219 304.398438 C 51.398438 302.699219 55.101563 300.800781 57.101563 297.699219 C 58.335938 292.753906 54.847656 288.082031 50.441406 290.5625 C 47.699219 292.105469 45.261719 296.113281 42.199219 296.800781 L 37.699219 288.800781 C 36.917969 292.796875 35.570313 303.210938 38.375 309.058594 C 38.449219 309.210938 39.191406 311.800781 38.167969 312 C 35.332031 311.835938 32.417969 309.960938 32.304688 309.679688 C 30.542969 305.253906 24.75 288.878906 31.652344 279.109375 C 32.3125 278.175781 35.355469 271.109375 36.5 267.5 C 35.46875 251.910156 59.53125 240.105469 72 238.5 L 72.699219 243.199219 C 74.101563 244.898438 76.101563 245.101563 78.199219 244.898438 C 79.601563 244.398438 81.199219 243.300781 81.800781 241.800781 C 83.5 235.398438 83.101563 228.101563 85.898438 222.101563 C 93.660156 206.578125 107.828125 195.195313 124.148438 191.109375 C 127.808594 190.195313 135.800781 190 135.800781 190 C 131.050781 206.960938 136.539063 229.269531 119.957031 240.554688 C 119.429688 240.914063 119.667969 242.054688 120.28125 241.84375 C 135.050781 236.761719 141.515625 213.601563 142.101563 187.300781 C 141.101563 185.398438 140 183.800781 138 182.800781 C 130.5 181.199219 123 183.300781 116.398438 184.699219 C 120.398438 176.5 119.699219 166.101563 113.300781 159.300781 C 107.300781 152 97 149.101563 88.601563 152.300781 L 87.101563 145.601563 C 86.300781 142.199219 82.101563 139.398438 84.699219 135.5 C 88.816406 127.191406 93.171875 118.585938 96.503906 110.003906 C 97.464844 107.53125 96.613281 107 95.34375 109.195313 C 90.09375 118.273438 84.628906 127.320313 80.199219 136.5 L 78.199219 135.300781 C 79.898438 121.898438 80.199219 108 84.5 95.699219 L 109.699219 49.800781 C 110.199219 69.800781 111.898438 90.300781 109.199219 109.800781 C 108.480469 122.984375 101.089844 133.753906 95.964844 144.851563 C 95.375 146.128906 96.167969 146.789063 97.050781 145.796875 C 127.386719 111.578125 115.699219 48.101563 115.699219 48.101563 C 103.566406 39.703125 105.96875 52.730469 95 63.699219 C 94.144531 38.636719 86.109375 13.300781 64.324219 -0.367188 C 63.25 -1.039063 62.371094 -0.1875 63.117188 0.847656 C 65.867188 4.671875 69.089844 8.324219 72 12.101563 C 81.898438 29.699219 87 49.5 85 71.699219 L 87.101563 74.800781 C 79.953125 84.300781 75.421875 94.949219 72.402344 106.226563 C 72.085938 107.410156 71.398438 105.996094 71.398438 105.996094 L 69.5 35.75 L 67.898438 36.851563 L 67.199219 111.5 C 67.699219 113.300781 70 113 71 112.699219 L 67.699219 133.601563 C 67 133.800781 65.800781 134.101563 65.300781 133.300781 C 62.195313 123.992188 53.269531 118.480469 45.621094 112.839844 C 43.65625 111.390625 43.195313 111.949219 44.855469 113.644531 C 51.238281 120.1875 58.304688 126.203125 61.398438 134.300781 C 59.101563 135.300781 56.800781 136.199219 54.5 137.199219 L 36.5 118 C 27.300781 107.199219 24.601563 93.398438 24 79.300781 C 38.125 85.878906 51.125 98.726563 59.382813 112.320313 C 61.511719 115.832031 67.042969 111.839844 64.582031 108.628906 C 59.847656 102.449219 56.289063 95.765625 53 88.898438 C 46.199219 61.101563 45.601563 27.699219 62.898438 4.5 L 62.898438 2.101563 C 62 0.300781 60 -0.601563 58.101563 0.101563 C 54.5 4.199219 51.601563 9 49.398438 13.800781 C 40.898438 37 41.5 67.800781 49.898438 90.601563 C 41.398438 84.398438 33.101563 77.898438 22.601563 76.5 C 21 74.898438 18.699219 74.398438 16.601563 75 C 14.300781 75.699219 13 78.101563 13 80.300781 L 16.101563 96.898438 C 21.101563 114 36.398438 131.300781 53.300781 137.898438 C 50.5 140 47.5 141.898438 45.398438 144.898438 C 42.5 148.699219 41.800781 154.601563 43.199219 159 C 40.398438 159.300781 37.898438 160.300781 35.5 161.699219 C 29.699219 165.398438 26.5 171.398438 26.601563 178.199219 C 24.601563 178 22.800781 178.5 20.898438 178.699219 C 14.5 180.300781 8.300781 186 6 192.101563 C 4.199219 197.699219 3.800781 204.898438 8.199219 209.398438 C 2.101563 215.898438 -1.398438 225.601563 2.601563 234.101563 C 6.199219 240.398438 13.398438 241.101563 19.699219 242.5 C 19.199219 245.5 20.398438 247.800781 21.398438 250.199219 C 23.902344 254.703125 28.210938 257.398438 32.9375 257.996094 C 33.878906 258.113281 24.5 271 24.363281 289.328125 C 23.617188 297.21875 23.746094 305.277344 29.300781 310.898438 C 29.699219 311.5 30.601563 311.898438 31.199219 312.398438 C 30.800781 319.5 30.699219 327.101563 32.199219 334.699219 C 26.199219 335.800781 20.199219 336.800781 15.601563 341.199219 C 9.765625 347.496094 7.878906 356.277344 9.21875 365.003906 C 9.875 369.304688 12.25 370.441406 12.929688 365.703125 C 15.304688 349.242188 16.964844 347.480469 37.199219 344.800781 L 41 349.601563 C 44.101563 353 48.101563 355.398438 52.101563 356.800781 C 46.421875 361.945313 43.890625 368.824219 44.511719 376.25 C 44.9375 381.347656 46.660156 376.367188 46.660156 376.367188 C 46.660156 376.367188 52.5 353.25 85.199219 356.300781 C 82 366.5 78.5 376.5 79 388.199219 C 79 388.199219 70.5 390.5 66.5 397.597656 C 58.8125 400.265625 42.34375 407.019531 34.804688 409.925781 C 32.4375 410.839844 34.75 411 34.75 411 L 63.398438 402.402344 C 60.398438 408.199219 57.699219 414.199219 55.398438 420.398438 C 43 422.601563 31.199219 426 17.5 424 C 20.5 419.699219 22.199219 414.800781 24.5 410.300781 C 36.792969 392.296875 57.046875 387.597656 75.925781 382.234375 C 76.550781 382.058594 76.730469 381.410156 76.1875 381.289063 C 69.066406 379.710938 60.890625 380.921875 54.039063 382.003906 C 53.621094 382.070313 58.898438 374.097656 57.800781 369.199219 C 57.5 367.699219 55.898438 366.398438 54.199219 366.601563 C 49.699219 370.398438 49.800781 377.5 51.398438 382.699219 C 34.199219 387.597656 15 399.300781 8.898438 417.699219 C 7 427 18.398438 424 23 427.300781 C 32.699219 431.601563 43.800781 427.300781 53.800781 427.300781 C 52.300781 434.898438 50.800781 442.699219 50.398438 450.398438 C 49.921875 461.6875 50.613281 466.210938 59.300781 463.800781 C 72.398438 456.5 87.699219 450.601563 96.199219 436.398438 C 96.601563 445 98.398438 456 104.898438 463.601563 C 107.398438 465.800781 110.300781 467 113.800781 467.199219 C 118.699219 462.5 122.199219 456.300781 126.5 450.800781 C 130.300781 444.398438 130.898438 436.699219 132.199219 429.199219 C 140.699219 427.699219 147.800781 422.800781 154.800781 417.699219 C 157.199219 424.5 160.199219 431 164.199219 437.199219 C 180.898438 461.398438 207.800781 477.101563 237.101563 470.300781 C 249 467 258 455.101563 261.300781 443.898438 C 277.101563 463.199219 300.5 468.300781 324.898438 468.800781 C 325.300781 467.199219 323.398438 468.101563 322.800781 467.199219 C 323.898438 466.601563 325.199219 465.800781 325.699219 464.5 C 326.75 445 315.800781 425.398438 315.800781 425.398438 C 325.800781 430.398438 336.398438 434.199219 347.5 436.398438 C 366.5 440.601563 387.601563 438.898438 404.101563 430.699219 C 405.898438 429.199219 406.101563 426.800781 405.601563 424.699219 C 404.699219 422.699219 402.800781 421.101563 400.5 421.101563 C 397.300781 416.402344 393.101563 411.597656 390 407.402344 C 390 407.402344 418.335938 413.347656 436.660156 389.371094 C 441.1875 383.453125 440.320313 382.777344 433.285156 378.195313 Z M 73 230.101563 C 65.300781 230.601563 57.300781 232.898438 51.101563 238.398438 C 53.75 195.5 68.199219 189.5 68.199219 189.5 C 74.101563 197.699219 75.398438 208.300781 76.300781 218.800781 C 74.800781 222.300781 73.5 226.101563 73 230.101563 Z M 85.1875 167.0625 C 87.804688 169.125 88.777344 173.003906 87.800781 178.5 C 87.101563 181 84.398438 182.5 82.800781 184.199219 C 84 185.398438 86.300781 184.898438 87.800781 184.699219 C 91.699219 182.5 93.398438 178.5 93.601563 174.398438 C 93.078125 168.320313 90.636719 162.769531 85.675781 159.710938 C 84.925781 159.246094 85.210938 158.847656 86.035156 158.660156 C 89.285156 157.910156 91.253906 154.167969 95.800781 156.398438 C 99.5 157.199219 102.5 159.800781 105.398438 162.601563 C 109.199219 166.5 110.101563 171.898438 108.199219 177 C 107 180.898438 102.398438 184.699219 105.800781 189 C 98.300781 192.800781 91.300781 198.300781 85.199219 205.101563 C 83.398438 196.398438 80.898438 188 73.699219 181.601563 C 74.398438 180.300781 76.398438 179.398438 76.300781 177.5 C 72.386719 177.972656 69.882813 175.0625 69.480469 172.070313 C 68.277344 163.117188 79.128906 162.285156 85.1875 167.0625 Z M 29.800781 245.898438 C 30.699219 243.300781 32.398438 239.5 30 237 C 28.398438 235.300781 26 234.699219 23.800781 235.300781 C 22.628906 237.839844 18.945313 238.109375 15.535156 236.667969 C 7.40625 233.234375 5.394531 228.796875 12.984375 219.988281 C 14.441406 218.300781 16.195313 216.769531 18 215.398438 C 19.199219 213.199219 20.101563 211 18.5 208.699219 C 16.898438 206.699219 15.101563 205.5 12.5 206.101563 C 9.898438 202.101563 12 197.101563 14.398438 193.800781 C 18.5 188.800781 25.5 187.898438 31.199219 189.5 C 33.5 191.699219 36.398438 193.5 39.800781 193.601563 C 42.699219 193.398438 45.101563 192.199219 47.5 190.898438 C 44.800781 189 40.5 190 37.898438 187.300781 C 34.601563 184.300781 34.199219 179.199219 35.5 175.101563 C 38.398438 165.5 55.300781 173.898438 52.300781 161.398438 C 52 158.398438 47.898438 159.199219 48 156.398438 C 46.902344 144.886719 57.902344 138.828125 70 141.25 C 78 142.851563 80.5625 157.222656 77.992188 156.789063 C 74.925781 156.277344 71.441406 156.992188 68.898438 158.300781 C 63.5 161.800781 61 167.398438 61.199219 173.699219 C 61.898438 176.300781 62.300781 179 64.800781 180.898438 C 56.332031 185.179688 52.507813 194.265625 49.925781 202.804688 C 49.675781 203.644531 48.339844 203.855469 47.800781 203.152344 C 45.554688 200.234375 42.105469 197.699219 38.398438 197.699219 C 34.699219 198 31.101563 198.601563 28.300781 201.300781 C 24 205.601563 21.699219 211.101563 22.800781 217.300781 C 23.5 221.898438 27.300781 226.898438 31.898438 228.101563 C 34 229.300781 37.300781 229 39.601563 228.398438 C 40.898438 227.800781 42.398438 226.5 42.699219 225 C 41.5 223.898438 40 225 38.601563 225 C 35.601563 224.898438 33 222.800781 31.398438 220.199219 C 30.398438 218 30.101563 214.898438 31 212.5 C 31.898438 210.601563 33.398438 208.800781 35.5 208.199219 C 40.800781 207.300781 38.398438 214.101563 43.199219 214.5 C 44.5 214.300781 46.199219 214.800781 47.300781 214 C 46.199219 222.601563 45 232.601563 48.199219 240.601563 L 41.300781 248.800781 C 32.582031 252.589844 31.117188 253.140625 29.800781 245.898438 Z M 259.71875 325.664063 C 270.476563 330.242188 280.722656 338.121094 287 348.398438 C 280.5 358.101563 277.398438 369.601563 266.601563 377.199219 C 261.898438 380.902344 256.5 383.402344 252 387 C 246.699219 377.199219 236.699219 371 228.199219 364.199219 C 226.898438 363.898438 222.800781 359.5 220.601563 358.398438 L 220.300781 358.398438 C 224.5 343.699219 238.601563 327.601563 254.898438 325.601563 C 254.898438 325.601563 258.648438 325.210938 259.71875 325.664063 Z M 210.199219 323.601563 C 218.800781 319.898438 229 318.699219 239 320 C 227.800781 329.601563 216.5 341.300781 217.199219 356.800781 C 209.800781 353.101563 202.199219 349.699219 193.199219 349.800781 C 193.800781 339 199.898438 328.300781 210.199219 323.601563 Z M 96.5 431.898438 C 86.164063 445.683594 70.878906 450.394531 57.050781 457.351563 C 56.429688 457.660156 54.199219 456.992188 54.351563 455.511719 C 56.234375 437.074219 63.402344 420.785156 73.398438 405.699219 L 79.898438 400 C 80.800781 403.699219 82.800781 407.097656 84.5 410.5 L 67.398438 438.601563 L 67.898438 439.101563 L 86.898438 414.800781 C 90 417.699219 93.699219 421.5 97.699219 423.699219 C 96 425.898438 96.601563 429.101563 96.5 431.898438 Z M 122.898438 447 L 109.699219 462.101563 C 104 452.601563 106.199219 439 107.800781 428.300781 L 114.699219 429.699219 C 114.101563 435.300781 112 441.25 112 446.75 L 113.5 446.5 L 119 430.199219 C 122.800781 430.800781 126.699219 430.199219 130.300781 429.699219 Z M 101.5 358.199219 C 107 364 115 363.699219 121.898438 366.101563 L 123.101563 367.800781 C 125 379.5 126.5 392.902344 138.199219 399 C 142.300781 400.597656 146.699219 401.902344 151.199219 401.597656 C 152 406.402344 152.699219 411.597656 154.101563 416.300781 C 141.300781 426.101563 120.699219 429.199219 105.800781 421.800781 C 94.898438 417.402344 86.800781 406 85.898438 394.402344 C 85.300781 371.601563 93.101563 351.300781 108 334.699219 C 108.300781 340.199219 110.398438 345.898438 115.699219 348.601563 C 123 351.699219 129.898438 349.601563 137.5 351.199219 C 143 359.898438 135.101563 377.597656 150.699219 379.097656 C 151.699219 378.597656 152.050781 377.542969 151.253906 376.984375 C 148.867188 375.3125 146.074219 373.851563 145.699219 370.699219 C 145.300781 362.300781 149.300781 349.800781 141.398438 344 L 120.699219 340.199219 C 116.699219 336.5 119.300781 330.199219 118.800781 325.300781 C 129.5 316.898438 146 315.800781 158.601563 320.800781 C 163.898438 323 169.101563 326.398438 172.800781 331.601563 C 176.800781 337.300781 178.699219 344 179.300781 351.199219 C 162 356.101563 153 374.402344 151.398438 390.800781 C 145 391 138.601563 388.699219 135.800781 382.699219 C 131.199219 375.199219 133.898438 363.398438 124.601563 359.199219 C 116.800781 356.601563 105.101563 360.300781 101.5 350.800781 C 100.898438 349.300781 98.804688 349.480469 98.867188 351.003906 C 98.976563 353.710938 99.644531 356.28125 101.5 358.199219 Z M 252.898438 448.699219 C 246.601563 443.199219 237.101563 440.699219 234.699219 431.898438 C 232.601563 420.5 233.800781 407.902344 224.601563 399.5 C 214.800781 391.402344 200.300781 387.5 195.601563 374 C 194.636719 371.652344 194.289063 368.980469 193.664063 366.460938 C 192.839844 363.140625 190.902344 363.574219 190.722656 366.734375 C 190.03125 378.9375 197.75 389.832031 207.800781 397.097656 C 214.101563 400.902344 222.699219 406 223.699219 414.097656 C 226.199219 426.300781 222.300781 441.5 234.5 449.199219 L 246 457.601563 C 234.5 468.601563 214.898438 465.300781 202.101563 459.5 C 182.800781 451.800781 169 431.300781 162.699219 412.902344 C 160.078125 404.941406 159.976563 395.761719 161.664063 387.429688 C 161.90625 386.234375 162.863281 386.730469 163.21875 388.136719 C 165.191406 395.964844 170.667969 403.339844 178.300781 406.902344 C 184.199219 409.800781 192.101563 410.402344 194.898438 417.699219 C 198 432.300781 196.398438 450.699219 212.898438 457.800781 C 216.800781 459.300781 221.101563 459.800781 225.398438 460.398438 C 225.601563 460.199219 226 459.898438 225.800781 459.5 C 216.398438 456.398438 205.398438 448.898438 204.5 437.898438 C 203.398438 426.398438 205.800781 414.300781 196.601563 406.199219 C 189.4375 401.480469 177.726563 398.394531 174.28125 389.640625 C 171.753906 383.210938 164.5 376 173.5 366.101563 C 187.429688 354.578125 200.183594 356.660156 211.40625 363.160156 C 233.703125 376.078125 248.773438 389.582031 253.199219 412.699219 C 255.425781 426.046875 258.144531 439.960938 252.898438 448.699219 Z M 256.800781 396.097656 C 256.800781 396.097656 273.417969 385.203125 278.410156 378.496094 C 285.636719 368.789063 288.699219 351.199219 288.699219 351.199219 C 295.199219 369.199219 301.800781 391.597656 287.699219 408.097656 C 281.300781 414.902344 272.5 416.800781 263 416.800781 C 262 409.402344 259.601563 402.699219 256.800781 396.097656 Z M 318.859375 462.019531 C 319.359375 465.40625 317.953125 465.066406 315.796875 464.351563 C 301.5625 459.632813 285.878906 456.140625 274.800781 443.601563 L 264 429.199219 C 263.699219 426 263.5 422.898438 263.300781 419.601563 C 267.898438 420.101563 273.300781 419.898438 277.898438 418.902344 C 286.5 429.398438 294.648438 441.75 304.75 451.25 L 304.5 448.898438 C 296.800781 438.699219 290.199219 428 282.5 417.699219 C 286.199219 415.699219 290.398438 412.699219 293.300781 409.097656 L 306 418.402344 C 315.574219 430.761719 316.59375 446.667969 318.859375 462.019531 Z M 397.898438 421.300781 C 370.398438 436.5 332.699219 427.800781 306.898438 414.402344 L 294.699219 407.597656 L 298.5 401.199219 C 319 405.902344 339.898438 412.699219 360.199219 418.199219 C 355.4375 414.449219 350.085938 411.992188 344.464844 410.125 C 335.09375 407.011719 300.199219 396.800781 300.199219 396.800781 C 301.300781 394.097656 301.800781 391.097656 301.898438 388 C 330.699219 390.800781 361 389.902344 383.699219 407.402344 Z M 414.699219 395.902344 C 406.199219 401 396.199219 402.699219 386.101563 404 C 381.898438 400.402344 377.300781 397.699219 372.699219 395.199219 C 384.398438 392.300781 395.898438 388.902344 407.5 385.800781 L 406.75 383.75 C 406.75 383.75 369.199219 392.597656 369.101563 393.5 C 364 391.097656 358.699219 389.402344 353.300781 388 C 364.5 382.199219 374.601563 374 387.800781 373.097656 C 403.398438 370.5 418.300781 373.902344 431.5 379.300781 C 425.800781 384.597656 422 391.902344 414.699219 395.902344 Z M 115.199219 215.898438 C 106.339844 220.050781 100.378906 229.230469 95.34375 236.988281 C 94.054688 238.976563 93.464844 240.042969 93.628906 236.257813 C 94.148438 224.1875 101.242188 213.835938 111.398438 207 C 115.5 205.300781 121.601563 199.5 125.300781 205.800781 C 126 207.699219 126.101563 209.800781 125 211.601563 C 122.5 214.800781 118.300781 214.101563 115.199219 215.898438 Z M 79.699219 273.199219 C 82.398438 277.101563 79.800781 281.699219 78.199219 285.199219 C 76 287.25 74.601563 288.699219 72.199219 287.898438 C 72.101563 282.601563 67 275.699219 73.199219 271.800781 C 75.398438 270.800781 78.101563 271.398438 79.699219 273.199219 Z M 138.199219 325.300781 C 137.675781 327.390625 137.320313 329.765625 136.132813 331.496094 C 135.730469 332.082031 134.402344 331.933594 134.304688 331.277344 C 133.949219 328.914063 133.753906 325.703125 135.398438 323.898438 C 136.601563 323.601563 137.699219 324.199219 138.199219 325.300781 Z M 154.800781 330.398438 C 154.898438 329.398438 155.398438 328.300781 156.5 328.199219 C 159.492188 328.636719 162.269531 329.769531 164.992188 330.773438 C 166 331.148438 164.496094 331.953125 164.496094 331.953125 L 156.5 332.300781 C 155.5 332.300781 155.101563 331.101563 154.800781 330.398438 Z M 246.5 337.800781 C 247.199219 336.398438 248.101563 334.601563 249.101563 333.699219 L 250.5 337.800781 C 250.300781 338.601563 249.898438 339.5 248.898438 339.5 C 247.800781 339.699219 246.601563 338.800781 246.5 337.800781 Z M 261.101563 347.601563 C 260.398438 345.398438 264.898438 340.699219 265.898438 340.398438 C 267.800781 342.199219 270.601563 344.199219 271.199219 346.398438 C 268.699219 347.699219 267.5 353.101563 264 351 C 262.601563 350 261.699219 349.101563 261.101563 347.601563 Z M 153.601563 356.5 C 152.199219 355.699219 150.199219 354.199219 150 352.398438 C 149.800781 351.398438 150.398438 350.5 151.199219 350 C 152.5 349.601563 153.601563 350.699219 153.800781 351.699219 C 154.5 353.300781 153.699219 354.898438 153.601563 356.5 Z M 244.800781 368.800781 C 241.101563 365 238.199219 361 238.101563 355.800781 C 238.300781 353.800781 240.300781 352.5 241.898438 351.699219 C 244.398438 351.199219 247.199219 352.199219 248.398438 354.601563 L 248.898438 356.300781 L 245.5 368.5 Z M 26.898438 364.699219 C 24.199219 365.601563 21.199219 367.199219 18.199219 368.300781 C 18 363.300781 19.199219 358.898438 21.800781 355.101563 C 23.898438 351.898438 28.601563 353.601563 29.800781 356.800781 L 30.5 359.898438 C 32.300781 359.398438 34.601563 359.5 36 360.800781 C 37.601563 362 37.898438 364 37.699219 365.601563 C 36.398438 368.199219 33.601563 368.898438 31.199219 368.5 C 27.808594 369.035156 26.898438 364.699219 26.898438 364.699219 Z M 229.398438 358 C 229.300781 359 229.101563 359.800781 228 360.101563 C 226.601563 360.199219 225.800781 359.101563 224.898438 358.199219 C 225.800781 356.398438 229 355 229.398438 358 Z M 96 361.800781 C 100.199219 368 106 372.902344 113 374 C 120.875 379.773438 119.101563 390.144531 124.902344 397.203125 C 125.730469 398.210938 125.621094 398.917969 124.703125 398.226563 C 117.648438 392.933594 118.476563 382.273438 111.398438 376.699219 C 106.441406 375.1875 100.992188 373.957031 97.359375 369.925781 C 96.667969 369.160156 91.898438 364.5 93.101563 362.300781 C 93.898438 361.800781 95 361.199219 96 361.800781 Z M 265.898438 365.601563 C 265.699219 367.800781 264 369.800781 262.300781 370.898438 C 262.398438 368.800781 260.699219 365 263.699219 364.199219 C 264.601563 364.398438 265.601563 364.699219 265.898438 365.601563 Z M 64.140625 376.082031 C 61.808594 374.089844 58.164063 372.453125 59.800781 369 C 63.117188 363.839844 67.414063 365.328125 69.601563 369.5 C 71.101563 373.097656 64.375 376.285156 64.140625 376.082031 Z M 247.546875 420.523438 C 247.964844 423.957031 247.292969 424.492188 246.589844 421.179688 C 244.164063 409.804688 240.589844 398.234375 228.199219 393.199219 C 219.300781 389 208.5 382.199219 205.699219 371.898438 C 205 369.800781 207.601563 369 209 369.699219 C 214.101563 389.800781 241.101563 388.5 245.5 409.097656 C 246.453125 412.816406 247.074219 416.644531 247.546875 420.523438 Z M 206.601563 402.597656 C 215.300781 412.097656 209.398438 426.699219 216.199219 436.898438 C 217.398438 438.5 220.101563 437.800781 220.300781 440.300781 C 220.199219 441.199219 219.601563 442.601563 218.398438 442.398438 C 215.699219 442.101563 213.398438 440 211.898438 437.601563 C 206.398438 426.800781 212.699219 411.199219 202.300781 402.402344 C 195.351563 396.277344 184.976563 389.882813 182.792969 380.546875 C 182.335938 378.601563 183.164063 378.636719 183.945313 380.523438 C 187.902344 390.066406 199.585938 395.253906 206.601563 402.597656 Z M 96 392 C 96.5 389.5 96.699219 386.5 98.898438 385.097656 C 99.898438 384.902344 100.898438 385.300781 101.300781 386.300781 C 101.398438 389.597656 99 392 96 392 Z M 122.199219 403.097656 C 120.101563 403.5 117.601563 404.300781 115.699219 403.597656 C 114.699219 403.097656 114.5 401.597656 115 400.699219 C 117.300781 399.199219 119.898438 401.199219 121.898438 402.597656 C 121.800781 402.800781 122 402.902344 122.199219 403.097656 Z M 103 408.097656 C 102.601563 409.300781 101.800781 410.300781 100.800781 411.199219 C 100 410 97.898438 408.597656 99.398438 406.902344 C 100.5 406 102.699219 406.402344 103 408.097656 Z M 192.285156 442.113281 C 192.730469 442.953125 192.101563 443.464844 191.433594 442.8125 C 184.515625 436.03125 186.597656 423.597656 176.199219 419.398438 C 171.898438 417.5 166.101563 414.300781 166.601563 408.800781 C 170.699219 405.800781 170.300781 412.199219 173.300781 413.402344 C 178 417 184.601563 419.300781 186.199219 425.601563 C 187.75 431.367188 189.523438 436.914063 192.285156 442.113281 Z M 125.800781 415.300781 C 126.464844 414.457031 127.050781 414.480469 127.601563 414.84375 C 128.296875 415.300781 130.101563 417.5 130.101563 418 C 128.699219 418.097656 127.300781 419.699219 126 418.402344 C 125.5 417.597656 124.800781 416.199219 125.800781 415.300781 "/>
</g>
</svg>
