<?xml version="1.0" encoding="UTF-8"?>
<svg xmlns="http://www.w3.org/2000/svg" xmlns:xlink="http://www.w3.org/1999/xlink" width="513pt" height="500pt" viewBox="0 0 513 500" version="1.1">
<g id="surface1">
<path style=" stroke:none;fill-rule:nonzero;fill:rgb(0%,0%,0%);fill-opacity:1;" d="M 270.949219 243.078125 L 271.371094 -0.0078125 L 1.640625 0.0078125 L 1.464844 499.992188 L 511.628906 499.832031 L 512.007813 243.078125 Z M 108.5 11.5 L 263.671875 11.449219 L 263.773438 64.765625 C 263.773438 64.765625 238.484375 87.1875 208.636719 86.585938 C 208.523438 86.585938 208.757813 63.855469 208.757813 63.855469 L 160.773438 64.0625 L 160.859375 33.496094 L 108.453125 33.796875 Z M 118.542969 489.902344 L 118.484375 471.222656 L 79.125 471.132813 L 79.496094 439.371094 L 11.914063 439.226563 L 12.023438 368.839844 C 72.554688 359.21875 136.375 387.609375 165.703125 444.152344 C 173.679688 458.230469 177.433594 473.949219 180.484375 489.902344 Z M 243.597656 490.375 C 233.039063 426.089844 191.511719 362.972656 129.804688 335.050781 C 93.671875 316.519531 54.722656 309.949219 12.023438 312.527344 L 12.152344 190.757813 L 114.5625 190.453125 L 114.554688 296.574219 L 220.367188 296.609375 L 220.488281 398.863281 L 326.183594 398.636719 L 326.394531 490.082031 C 326.394531 490.082031 272.457031 489.667969 243.597656 490.375 Z M 443.964844 441.339844 C 441.855469 450.722656 440.683594 459.402344 442.792969 469.023438 L 297.5625 314.171875 C 317.503906 316.519531 336.976563 307.835938 351.523438 292.820313 C 366.539063 306.191406 382.492188 329.65625 405.019531 325.902344 L 420.738281 324.261719 C 420.738281 346.316406 421.441406 372.355469 438.804688 389.484375 L 459.6875 403.5625 C 456.164063 415.761719 446.78125 427.726563 443.964844 441.339844 Z M 462.972656 490.84375 C 463.4375 484.976563 468.839844 479.582031 470.476563 473.480469 C 486.199219 430.074219 486.667969 374.703125 456.871094 336.695313 C 425.664063 292.113281 375.222656 269.355469 321.257813 275.222656 C 303.660156 276.394531 287.941406 281.558594 271.753906 286.015625 C 228.347656 240.496094 19.296875 8.925781 19.296875 8.925781 L 50.96875 8.878906 C 69.507813 57.445313 118.074219 105.121094 172.507813 105.121094 C 204.179688 107.9375 236.089844 100.664063 262.601563 85.414063 L 262.472656 249.882813 L 503.089844 249.859375 L 503.203125 490.878906 C 503.203125 490.878906 477.648438 491.769531 462.972656 490.84375 "/>
</g>
</svg>
