<?xml version="1.0" encoding="UTF-8"?>
<svg xmlns="http://www.w3.org/2000/svg" xmlns:xlink="http://www.w3.org/1999/xlink" width="503pt" height="487pt" viewBox="0 0 503 487" version="1.1">
<g id="surface1">
<path style=" stroke:none;fill-rule:nonzero;fill:rgb(0%,0%,0%);fill-opacity:1;" d="M 28.46875 308.664063 C 28.46875 308.664063 38 303.664063 46.667969 303.5 C 52.6875 303.382813 77.167969 308.914063 82.667969 308.164063 C 88.167969 307.414063 86.695313 303.339844 86.945313 299.339844 C 87.082031 297.128906 89.089844 294.351563 90.855469 292.304688 C 90.992188 292.34375 91.070313 292.363281 91.070313 292.363281 C 91.65625 291.90625 93.34375 289.421875 93.34375 289.421875 C 94.996094 286.535156 96.277344 282.550781 95.074219 280.832031 C 93.324219 278.332031 80.445313 270.273438 67.945313 263.523438 C 55.445313 256.773438 49.445313 257.585938 61.445313 263.585938 C 73.445313 269.585938 83.070313 277.363281 84.320313 279.464844 C 85.570313 281.5625 88.074219 283.304688 81.070313 281.214844 C 74.066406 279.117188 63.984375 279.605469 57.320313 274.464844 C 50.652344 269.316406 36.671875 243.601563 26.671875 238.601563 C 16.671875 233.601563 16.8125 233.6875 25.570313 233.714844 C 34.328125 233.738281 42.070313 234.214844 45.570313 239.464844 C 49.070313 244.714844 49.230469 243.003906 47.707031 239.453125 C 46.183594 235.90625 38.753906 231.238281 32.503906 229.488281 C 26.253906 227.738281 16.320313 227.488281 8.320313 227.488281 C 0.320313 227.488281 -2.378906 232.40625 3.867188 232.675781 C 10.113281 232.941406 16.554688 233.976563 21.320313 239.214844 C 26.085938 244.449219 34.582031 255.957031 39.332031 265.457031 C 41.765625 270.328125 44.203125 274.691406 48.039063 278.230469 C 45.023438 278.730469 40.613281 279.683594 35.820313 281.464844 C 27.070313 284.714844 23.882813 291.898438 22.382813 300.648438 C 20.882813 309.398438 23.671875 312.261719 25.820313 313.464844 C 27.96875 314.664063 28.46875 308.664063 28.46875 308.664063 Z M 27.9375 299.460938 C 28.316406 294.398438 35.695313 286.894531 43.191406 283.207031 C 46.355469 281.648438 48.6875 280.699219 50.339844 280.117188 C 53.710938 282.578125 58.050781 284.527344 64 285.8125 C 72.746094 287.699219 80.390625 289.585938 85.308594 290.84375 C 84.34375 291.941406 83.46875 293.355469 83.363281 294.957031 C 83.113281 298.707031 81.320313 301.628906 81.320313 301.628906 C 81.320313 301.628906 67.320313 300.785156 54.320313 299.785156 C 41.320313 298.785156 40.019531 301.199219 33.070313 304.464844 C 26.121094 307.722656 27.5625 304.523438 27.9375 299.460938 Z M 37.070313 200.878906 C 45.320313 206.378906 55.292969 206.164063 57.542969 197.914063 C 59.792969 189.664063 56.257813 182.871094 51.007813 181.621094 C 45.757813 180.371094 44.28125 182.144531 42.53125 184.144531 C 40.78125 186.144531 41.984375 187.488281 44.113281 185.621094 C 45.0625 184.789063 46.605469 183.828125 48.269531 183.566406 C 54.84375 182.527344 59.320313 198.277344 50.863281 200.546875 C 46.152344 201.808594 39.285156 199.105469 36.222656 192.886719 C 32.992188 186.332031 32.78125 177.324219 38.976563 171.039063 C 47.570313 162.328125 65.054688 161.445313 71.316406 182.304688 C 73.871094 190.820313 72.949219 200.050781 69.335938 206.539063 C 62.085938 219.5625 53.902344 225.964844 44.21875 224.992188 C 40.488281 224.613281 36.992188 224.078125 36.667969 225.527344 C 36.167969 227.777344 39.941406 229.371094 43.339844 231.46875 C 46.738281 233.566406 58.453125 248.246094 61.953125 254.246094 C 65.453125 260.246094 76.535156 267.242188 87.570313 267.308594 C 90.28125 267.324219 92.648438 266.996094 94.742188 266.410156 C 95.570313 269.710938 99.054688 280.804688 101.042969 285.660156 C 97.257813 291.035156 89.292969 303.265625 87.03125 314.007813 C 84.03125 328.257813 87.203125 338.4375 90.703125 344.4375 C 94.203125 350.4375 93.492188 347.148438 91.542969 343.800781 C 87.546875 336.941406 87.886719 326.824219 90.648438 314.636719 C 92.09375 308.261719 100.179688 295.421875 104.136719 289.394531 C 105.472656 290.058594 107.171875 290.378906 109.113281 290.46875 C 109.722656 292.203125 111.730469 294.066406 113.5625 294.828125 C 116.5625 296.078125 121.324219 299.199219 124.039063 302.355469 C 126.761719 305.515625 127.769531 312.378906 128.445313 318.128906 C 129.125 323.878906 129.789063 324.382813 130.039063 318.382813 C 130.289063 312.382813 130.296875 305.371094 129.546875 303.871094 C 128.796875 302.371094 127.40625 302.542969 132.65625 301.792969 C 137.90625 301.042969 140.597656 296.992188 146.847656 293.742188 C 153.097656 290.492188 154.933594 291.085938 159.683594 293.585938 C 163.496094 295.59375 166.101563 301.324219 166.984375 304.285156 C 166.84375 304.484375 166.714844 304.675781 166.570313 304.878906 C 158.648438 315.925781 158.320313 309.378906 160.320313 306.628906 C 162.320313 303.878906 161.296875 298.949219 159.894531 296.550781 C 158.496094 294.148438 156.320313 294.628906 157.070313 295.128906 C 157.820313 295.628906 159.230469 298.261719 158.480469 301.023438 C 157.730469 303.78125 153.320313 312.628906 150.320313 313.878906 C 147.320313 315.128906 142.007813 317.070313 154.757813 317.570313 C 167.507813 318.070313 180.652344 294.1875 178.902344 283.9375 C 177.152344 273.6875 170.617188 271.785156 160.566406 268.265625 C 150.519531 264.746094 151.261719 268.714844 157.710938 270.648438 C 166.097656 273.171875 172.265625 276.039063 174.265625 281.789063 C 176.070313 286.980469 174.785156 292.617188 168.703125 301.78125 C 167.871094 298.171875 163.421875 292.441406 157.703125 288.980469 C 151.042969 284.945313 143.046875 289.191406 137.546875 293.441406 C 132.046875 297.691406 125.671875 296.828125 125.671875 296.828125 C 125.671875 296.828125 125.671875 296.828125 122.570313 292.878906 C 121.46875 291.472656 120.105469 290.472656 118.808594 289.757813 C 121.75 289.203125 124.289063 287.902344 126.402344 286.425781 C 126.613281 286.917969 127.210938 287.375 128.570313 287.628906 C 132.570313 288.378906 142.976563 285.191406 152.328125 283.492188 C 161.679688 281.789063 160.574219 281.714844 155.816406 281.207031 C 151.0625 280.699219 146.570313 279.441406 144.070313 280.089844 C 142.253906 280.5625 134.074219 282.621094 129.757813 283.703125 C 130.996094 282.570313 131.96875 281.554688 132.671875 280.929688 C 134.921875 278.929688 143.921875 266.851563 152.410156 256.285156 C 160.902344 245.714844 173.378906 246.167969 177.628906 247.886719 C 181.878906 249.605469 182.304688 251.949219 180.304688 254.101563 C 178.304688 256.25 179.019531 258.828125 182.269531 259.328125 C 185.519531 259.828125 188.320313 252.878906 188.320313 241.628906 C 188.320313 230.378906 177.070313 225.457031 166.070313 224.957031 C 155.070313 224.457031 132.738281 237.15625 124.773438 240.972656 C 116.808594 244.785156 119.070313 245.628906 124.820313 243.378906 C 130.570313 241.128906 154.070313 228.765625 163.570313 229.015625 C 173.070313 229.265625 180.070313 233.878906 182.320313 238.128906 C 184.570313 242.378906 182.769531 249.53125 182.769531 249.53125 C 182.769531 249.53125 182.761719 249.503906 174.8125 243.101563 C 166.863281 236.703125 147.933594 250.238281 141.183594 259.488281 C 134.433594 268.738281 122.964844 278.273438 115.964844 280.773438 C 108.964844 283.273438 106.46875 279.144531 107.171875 278.128906 C 107.871094 277.113281 119.246094 264.730469 124.230469 259.097656 C 129.214844 253.464844 126.949219 254.511719 121.199219 258.761719 C 115.449219 263.011719 103.820313 273.023438 103.019531 271.871094 C 102.441406 271.042969 100.519531 266.746094 99.488281 264.40625 C 103.40625 262.0625 107.308594 259 109 255.335938 C 112 248.835938 110.769531 244.230469 110.769531 244.230469 C 110.769531 244.230469 124.964844 239.054688 123.214844 224.054688 C 121.878906 212.605469 115.074219 206.164063 108.371094 203.195313 C 116.640625 201.972656 125.34375 193.480469 130 190.5 C 136.25 186.5 141.914063 189.664063 150.414063 191.152344 C 158.914063 192.636719 162.320313 184.128906 161.070313 176.628906 C 159.820313 169.128906 153.570313 153.878906 139.320313 141.878906 C 125.070313 129.878906 112.320313 131.378906 104.910156 138.722656 C 97.527344 146.042969 102.136719 160.511719 102.136719 160.511719 C 102.136719 160.511719 92.070313 167.128906 90.621094 178.261719 C 89.535156 186.566406 91.066406 196.230469 97.421875 200.898438 C 93.015625 200.675781 87.667969 200.933594 82.628906 202.121094 C 82.746094 201.921875 82.863281 201.722656 82.96875 201.527344 C 84.21875 199.277344 86.402344 189.0625 86.308594 180.871094 C 86.214844 172.679688 80.765625 159.5 75.765625 152 C 72.386719 146.929688 71.433594 140.441406 71.167969 136.761719 C 73.554688 140.246094 76.867188 143.597656 80.984375 144.5 C 88.984375 146.25 95.230469 145.15625 98.050781 138.09375 C 100.871094 131.035156 103.90625 121.246094 101.78125 115.625 C 99.652344 110 98.570313 108.230469 98.570313 108.230469 C 101.21875 105.242188 105.179688 100.445313 102.429688 91.445313 C 101.308594 87.769531 99.039063 83.753906 96.003906 80.28125 C 98.121094 76.246094 102.335938 66.875 102.144531 56.378906 C 101.894531 42.378906 83.125 26.195313 78.292969 21.59375 C 73.460938 16.988281 66.597656 9.011719 66.667969 7.628906 C 66.742188 6.246094 65.722656 2.949219 63.253906 1.164063 C 60.78125 -0.621094 56.320313 5.878906 53.820313 10.378906 C 53.820313 10.378906 48.226563 23.699219 46.820313 30.628906 C 45.414063 37.558594 48.152344 55.492188 53.652344 62.242188 C 58.394531 68.058594 62.875 73.410156 64.027344 74.78125 C 59.078125 76.777344 54.871094 79.105469 52.140625 80.144531 C 46.890625 82.144531 41.1875 81.621094 42.921875 85.382813 C 44.65625 89.148438 51.269531 95.804688 54.230469 99.855469 C 57.195313 103.902344 66.003906 125.257813 67.003906 128.507813 C 67.128906 128.921875 67.320313 129.460938 67.574219 130.085938 C 67.554688 130.5625 67.445313 131.925781 66.953125 135.878906 C 66.203125 141.929688 70.632813 152.410156 77.882813 165.660156 C 85.132813 178.910156 81.03125 189.777344 79.390625 196.402344 C 78.621094 199.511719 77.679688 202.113281 76.894531 204.007813 C 75.742188 204.511719 74.636719 205.070313 73.609375 205.726563 C 76.007813 199.359375 77.472656 191.074219 76.230469 183.355469 C 72.523438 160.285156 49.128906 156.25 38.714844 165.902344 C 22.640625 180.796875 33.476563 198.484375 37.070313 200.878906 Z M 56.511719 55.378906 C 52.382813 46.382813 55.378906 29.085938 57.117188 23.832031 C 58.855469 18.578125 65.167969 10.363281 65.167969 10.363281 C 65.167969 10.363281 66.53125 13.242188 70.109375 17.667969 C 73.691406 22.09375 90.351563 39.785156 95.921875 50.949219 C 100.402344 59.929688 94.707031 72.085938 92.300781 76.507813 C 89.171875 73.933594 85.554688 72.058594 81.703125 71.445313 L 80.960938 59.960938 C 80.960938 59.960938 88.828125 59.550781 90.367188 55.050781 C 91.90625 50.550781 91.21875 47.042969 89.820313 49.464844 C 88.421875 51.882813 82.867188 55.847656 81.695313 55.085938 C 80.519531 54.324219 79.628906 50.945313 79.128906 47.445313 C 78.628906 43.945313 69.164063 30.488281 65.878906 26.65625 C 61.59375 21.660156 60.988281 22.1875 63.980469 26.441406 C 66.976563 30.695313 70.269531 37.464844 70.269531 37.464844 C 70.269531 37.464844 62.667969 35.472656 63.917969 38.722656 C 65.167969 41.972656 70.070313 43.464844 70.46875 43.664063 C 70.871094 43.863281 72.871094 42.964844 72.871094 42.964844 C 72.871094 42.964844 74.605469 50.703125 75.117188 52.949219 C 75.625 55.195313 75.46875 59.0625 75.46875 59.0625 C 75.46875 59.0625 65.667969 52.714844 65.167969 54.964844 C 64.667969 57.214844 71.21875 65.261719 73.371094 64.863281 C 75.519531 64.464844 75.46875 65.714844 75.46875 65.714844 L 75.546875 71.4375 C 72.246094 71.839844 69.027344 72.75 66.03125 73.847656 C 64.429688 71.550781 60.082031 63.160156 56.511719 55.378906 Z M 52.253906 92.214844 C 49.472656 89.558594 47.582031 87.5 47.582031 87.5 C 47.582031 87.5 51.101563 87.027344 55.601563 84.277344 C 60.101563 81.527344 68.820313 77.214844 80.320313 77.714844 C 91.820313 78.214844 96.417969 87.289063 98.820313 92.089844 C 101.21875 96.886719 97.371094 106.363281 97.371094 106.363281 C 97.371094 106.363281 60.320313 91.71875 56.820313 89.714844 C 53.320313 87.707031 52.535156 88.160156 56.585938 91.308594 C 60.636719 94.460938 77.667969 102.964844 77.667969 102.964844 C 77.667969 102.964844 77.964844 102.890625 78.363281 107.140625 C 78.761719 111.390625 80.105469 117.601563 82.605469 116.351563 C 85.105469 115.101563 84.167969 106.5625 84.167969 106.5625 L 94.5 110.835938 C 94.5 110.835938 98.667969 113.5 98.332031 122.664063 C 98.050781 130.460938 91.5 140 84.5 139 C 77.5 138 72.144531 124.519531 68.144531 115.769531 C 64.144531 107.019531 55.035156 94.871094 52.253906 92.214844 Z M 106.671875 140.863281 C 108.789063 138.359375 122.050781 132.230469 139.800781 150.230469 C 157.550781 168.230469 155.597656 174.953125 156.050781 181.214844 C 156.503906 187.476563 150.371094 186.410156 147.121094 184.160156 C 143.871094 181.910156 140.402344 181.714844 134.902344 181.964844 C 129.402344 182.214844 126.171875 180.261719 126.171875 180.261719 L 104.117188 155.597656 C 104.117188 155.597656 102.183594 146.164063 106.671875 140.863281 Z M 97.957031 168.882813 C 100.496094 165.535156 104.070313 162.214844 104.070313 162.214844 C 104.070313 162.214844 121.519531 182.113281 123.269531 183.363281 C 125.019531 184.613281 126.871094 185.261719 126.871094 185.261719 C 126.871094 185.261719 116.96875 191.476563 112.109375 193.417969 C 107.25 195.359375 100.808594 197.96875 97.558594 190.21875 C 94.308594 182.46875 95.417969 172.230469 97.957031 168.882813 Z M 79.878906 209.769531 C 86.191406 206.582031 97.078125 208.183594 101.828125 209.632813 C 106.574219 211.078125 114.28125 217.148438 114.78125 225.148438 C 115.28125 233.148438 106.320313 236.964844 106.320313 236.964844 C 106.320313 236.964844 101.980469 236.882813 99.058594 235.703125 C 96.132813 234.527344 80.945313 232.71875 70.945313 232.21875 C 60.945313 231.71875 64.230469 233.546875 77.308594 235.960938 C 90.390625 238.375 107.46875 244.5625 107.46875 244.5625 C 107.46875 244.5625 108.042969 247.058594 106.894531 250.46875 C 105.75 253.882813 100.582031 260.492188 95.082031 262.492188 C 89.582031 264.492188 79.742188 261.929688 75.058594 259.855469 C 70.375 257.78125 60.070313 243.214844 57.070313 238.214844 C 54.070313 233.214844 50.570313 228.464844 50.570313 228.464844 C 50.570313 228.464844 54.820313 226.714844 59.320313 224.214844 C 63.820313 221.714844 73.570313 212.957031 79.878906 209.769531 Z M 77.667969 87.464844 C 77.667969 87.464844 87.015625 93.550781 80.765625 94.550781 C 74.515625 95.550781 77.667969 87.464844 77.667969 87.464844 Z M 115.324219 155.691406 C 119.574219 155.691406 122.820313 155.464844 124.320313 156.214844 C 125.820313 156.960938 128.070313 157.511719 127.070313 155.261719 C 126.070313 153.011719 124.496094 148.78125 120.746094 145.28125 C 116.996094 141.78125 118.519531 141.113281 122.769531 142.863281 C 127.019531 144.613281 133.578125 157.125 135.078125 159.625 C 136.578125 162.125 141.714844 165.359375 146.070313 168.761719 C 150.425781 172.167969 144.132813 172.597656 140.832031 170.949219 C 137.53125 169.300781 131.207031 164.0625 126.707031 160.8125 C 122.207031 157.5625 118.390625 157.789063 113.941406 156.984375 C 109.578125 156.195313 111.074219 155.691406 115.324219 155.691406 Z M 89.820313 249.964844 C 91.570313 246.964844 94.667969 242.550781 98.769531 245.0625 C 101.871094 246.960938 94.46875 250.734375 92.070313 252.761719 C 89.671875 254.789063 88.070313 252.964844 89.820313 249.964844 Z M 72.070313 248.464844 C 70.320313 245.464844 77.476563 242.644531 80.332031 240.984375 C 83.1875 239.324219 82.175781 241.886719 80.996094 243.992188 C 79.816406 246.097656 74.746094 253.054688 72.070313 248.464844 Z M 59.09375 231.242188 C 59.136719 229.269531 64.824219 229.664063 64.515625 232.65625 C 64.210938 235.601563 59.054688 233.214844 59.09375 231.242188 Z M 77.070313 221.714844 C 77.070313 221.714844 84.964844 228.171875 81.066406 228.839844 C 73.066406 230.21875 77.070313 221.714844 77.070313 221.714844 Z M 88.820313 216.214844 C 87.40625 213.976563 88.085938 213.355469 91.1875 216.40625 C 94.285156 219.457031 104.210938 225.585938 96.667969 228.464844 C 90.769531 230.714844 90.230469 218.449219 88.820313 216.214844 Z M 204.570313 382.296875 C 202.308594 383.511719 195.265625 376.058594 191.085938 371.675781 C 186.902344 367.296875 191.222656 365.871094 198.554688 371.871094 C 205.886719 377.871094 209.824219 379.472656 204.570313 382.296875 Z M 502.253906 423.734375 C 500.488281 421.25 497.199219 420.203125 495.816406 420.265625 C 494.433594 420.328125 486.511719 413.402344 481.941406 408.535156 C 477.375 403.667969 461.339844 384.773438 447.34375 384.417969 C 436.847656 384.152344 427.441406 388.292969 423.390625 390.382813 C 419.945313 387.316406 415.941406 385.019531 412.277344 383.867188 C 403.296875 381.050781 398.472656 384.976563 395.464844 387.601563 C 395.464844 387.601563 393.699219 386.503906 388.09375 384.335938 C 382.484375 382.160156 372.675781 385.121094 365.59375 387.890625 C 358.515625 390.660156 357.371094 396.894531 359.058594 404.90625 C 359.929688 409.035156 363.257813 412.371094 366.722656 414.785156 C 363.046875 414.492188 356.5625 413.484375 351.519531 410.070313 C 344.058594 405.011719 330.921875 399.460938 322.730469 399.304688 C 314.582031 399.152344 304.414063 401.234375 302.089844 402.46875 C 303.246094 397.621094 303.554688 392.488281 303.394531 388.203125 C 308.003906 394.636719 317.683594 396.25 326.019531 395.226563 C 337.160156 393.859375 343.859375 383.84375 343.859375 383.84375 C 343.859375 383.84375 358.289063 388.566406 365.664063 381.238281 C 373.066406 373.882813 374.660156 361.144531 362.769531 346.804688 C 350.878906 332.464844 335.679688 326.097656 328.1875 324.789063 C 320.699219 323.484375 312.164063 326.824219 313.585938 335.335938 C 315.007813 343.847656 315.269531 348.699219 311.21875 354.921875 C 308.222656 359.523438 302.585938 368.898438 301.25 377.121094 C 298.371094 370.328125 291.972656 363.351563 280.421875 361.914063 C 275.179688 361.261719 271.132813 362.570313 268.074219 364.546875 C 267.859375 360.53125 268.382813 353.796875 272.8125 346.839844 C 279.8125 335.839844 288.570313 308.628906 274.902344 300.296875 C 261.238281 291.964844 245.152344 297.941406 247.816406 302.941406 C 249.300781 305.722656 252.582031 304.769531 255.71875 303.359375 C 257.203125 304.875 259.195313 307.644531 260.765625 311.941406 C 263.191406 318.570313 251.171875 334.234375 241.171875 340.566406 C 236.273438 343.667969 230.703125 349.269531 226.132813 354.730469 C 226.496094 348.9375 227.171875 337.480469 227.238281 330.964844 C 227.328125 321.984375 225.203125 323.183594 223.503906 334.214844 C 222.175781 342.859375 221.945313 355.1875 221.910156 360.128906 C 220.019531 362.726563 218.53125 365.058594 217.707031 366.753906 C 215.746094 364.671875 212.90625 362.234375 210.007813 360.097656 C 210.191406 355.742188 213.78125 346.980469 217.246094 341.492188 C 221.324219 335.03125 219.570313 327.628906 217.238281 322.296875 C 214.902344 316.964844 206.070313 316.761719 206.070313 316.761719 L 205.859375 316.777344 C 208.484375 314.546875 211.527344 312.636719 214.644531 311.824219 C 222.308594 309.824219 229.089844 314.070313 232.515625 318.019531 C 235.9375 321.972656 238.589844 333.714844 238.257813 338.046875 C 237.925781 342.378906 240.523438 339.78125 240.558594 339.246094 C 240.589844 338.714844 242.046875 327.433594 236.714844 316.433594 C 231.378906 305.433594 220.921875 304.449219 209.253906 308.449219 C 197.589844 312.449219 189.925781 332.046875 189.925781 335.714844 C 189.925781 339.378906 198.925781 336.046875 202.257813 332.378906 C 205.589844 328.714844 207.964844 327.964844 210.589844 329.378906 C 214.925781 331.714844 211.511719 328.25 209.855469 326.546875 C 208.203125 324.839844 202.847656 325.910156 200.257813 328.378906 C 197.667969 330.847656 196.769531 330.027344 198.234375 326.226563 C 198.996094 324.257813 201.324219 321 204.453125 318.035156 C 205.929688 319.03125 208.410156 320.621094 211.65625 322.4375 C 217.101563 325.484375 214.964844 336.34375 210.863281 342.042969 C 207.796875 346.304688 206.171875 353.65625 205.546875 357.09375 C 204.472656 356.449219 203.453125 355.898438 202.546875 355.496094 C 198.371094 353.640625 191.839844 354.785156 188.25 355.65625 C 188.359375 354.871094 188.464844 354.183594 188.570313 353.628906 C 189.570313 348.296875 186.601563 348.296875 185.46875 350.664063 C 185.316406 350.980469 185.027344 351.394531 184.644531 351.863281 C 183.167969 347.90625 179.976563 341.488281 177.097656 339.328125 C 173.097656 336.328125 164.292969 333.34375 162.628906 336.011719 C 160.960938 338.679688 166.398438 341.652344 169.738281 346.949219 C 172.46875 351.28125 171.066406 358.5625 170.464844 361.074219 C 166.09375 361.285156 156.089844 360.515625 149.410156 359.484375 C 150.636719 356.789063 152.554688 352.246094 153.859375 347.621094 C 155.90625 340.355469 155.496094 335.246094 155.414063 330.265625 C 155.328125 325.285156 152.015625 325.796875 149.347656 329.324219 C 146.679688 332.851563 142.835938 337.960938 138.835938 340.628906 C 134.835938 343.292969 130.96875 347.261719 130.96875 347.261719 L 130.910156 347.386719 C 127.960938 341.671875 123.378906 336.34375 119.417969 330.402344 C 113.417969 321.402344 110.964844 313.609375 110.238281 308.964844 C 109.507813 304.316406 107.183594 304.703125 106.671875 309.164063 C 106.15625 313.621094 97.3125 334.828125 96.515625 338.8125 C 95.738281 342.710938 93.3125 358.910156 94.867188 365.160156 C 90.210938 367.796875 78.59375 373.742188 70.882813 372.292969 C 61.046875 370.445313 54.96875 369.128906 52.96875 366.464844 C 50.96875 363.796875 52.703125 354.421875 56.570313 352.296875 C 60.4375 350.171875 60.15625 352.378906 59.320313 356.488281 C 58.484375 360.597656 57.050781 364.519531 57.96875 365.5625 C 58.890625 366.605469 61.214844 365.976563 60.570313 363.964844 C 59.925781 361.949219 60.238281 357.628906 62.570313 352.628906 C 64.902344 347.628906 69.296875 340.5 58.628906 345.5 C 47.964844 350.5 33.238281 375.964844 40.570313 385.628906 C 47.902344 395.296875 61.105469 397.257813 64.75 397.910156 C 66.550781 398.234375 69.777344 398.332031 72.585938 398.347656 C 71.929688 399.042969 71.277344 399.738281 70.640625 400.429688 C 62.640625 409.097656 50.546875 413.636719 44.882813 414.667969 C 39.21875 415.695313 36.671875 412.148438 34.96875 407.5625 C 33.265625 402.972656 25.925781 402.277344 25.925781 409.609375 C 25.925781 419.761719 23.558594 437.730469 65.226563 436.328125 C 76.492188 435.949219 87.949219 432.433594 97.792969 427.480469 C 95.902344 431.246094 92.753906 436.601563 89.59375 437.867188 C 84.59375 439.867188 87.597656 445.914063 98.265625 449.582031 C 108.933594 453.246094 120.308594 453.976563 127.972656 448.976563 C 135.640625 443.976563 139.566406 432.8125 139.535156 429.277344 C 139.523438 428.289063 139.605469 427.453125 139.722656 426.738281 C 141.71875 428.230469 144.222656 429.828125 147.394531 431.519531 C 162.394531 439.519531 173.898438 438.90625 180.542969 440.105469 C 183.703125 440.675781 186.425781 441.195313 188.628906 441.589844 C 189.9375 443.566406 191.113281 444.871094 192.339844 445.027344 C 197.695313 445.71875 199.066406 443.207031 197.570313 437.628906 C 196.253906 432.726563 185.929688 419.269531 179.167969 411.59375 C 175.609375 407.5625 169.449219 401.359375 162.808594 395.992188 C 165.8125 396.945313 169.933594 398.210938 173.535156 399.195313 C 180.136719 400.992188 183.335938 402.167969 191.835938 400.667969 C 199.394531 399.332031 208.160156 392.1875 213.265625 388.898438 C 213.269531 389.851563 215.628906 394.175781 215.230469 394.710938 C 213.582031 396.925781 210.945313 399.023438 206.667969 400.433594 C 202.863281 401.6875 198.601563 399.148438 197.8125 404.640625 C 197.019531 410.136719 201.074219 435.894531 200.527344 441.890625 C 199.980469 447.886719 196.898438 458.835938 196.898438 458.835938 C 196.898438 458.835938 190.894531 459.289063 192.078125 461.449219 C 193.261719 463.609375 196.105469 466.417969 204.863281 464.984375 C 213.625 463.550781 220.835938 460.417969 224.152344 451.695313 C 225.796875 447.371094 226.761719 443.351563 227.316406 440.394531 C 230.585938 443.53125 234.46875 445.707031 238.746094 447.890625 C 248.210938 452.710938 259.652344 461.292969 264.855469 466.097656 C 270.054688 470.902344 271.039063 477.351563 271.261719 483.601563 C 271.480469 489.847656 276.417969 487.1875 276.476563 479.1875 C 276.539063 471.1875 276.367188 461.253906 274.664063 454.992188 C 272.960938 448.726563 268.351563 441.261719 264.8125 439.710938 C 261.273438 438.15625 259.566406 438.308594 264.789063 441.847656 C 270.011719 445.386719 270.429688 453.132813 270.386719 461.890625 C 270.34375 470.648438 270.433594 470.789063 265.507813 460.75 C 260.585938 450.714844 234.972656 436.535156 229.878906 429.832031 C 224.785156 423.125 225.351563 413.050781 223.3125 406.03125 C 221.269531 399.007813 222.996094 401.527344 225.085938 402.792969 C 227.175781 404.058594 234.878906 413.742188 240.785156 425.789063 C 246.695313 437.832031 247.550781 431.839844 240.898438 419.289063 C 234.988281 408.148438 224.46875 390.882813 220.4375 385.902344 C 223.8125 385.277344 227.128906 385.550781 229.238281 386.296875 C 231.585938 387.128906 235.699219 388.761719 237.953125 389.664063 C 237.28125 391.84375 236.898438 394.347656 236.894531 397.226563 C 236.878906 408.261719 243.789063 419.398438 249.761719 422.941406 C 255.734375 426.488281 270.324219 438.316406 272.398438 441.730469 C 274.46875 445.144531 276.03125 448.925781 278.285156 448.445313 C 279.414063 448.203125 279.359375 446.050781 279.117188 443.355469 C 278.539063 436.914063 286.136719 423.480469 298.597656 416.667969 C 305.117188 413.105469 314.355469 412.25 322.847656 414.871094 C 343.660156 421.292969 342.644531 438.769531 333.867188 447.296875 C 327.535156 453.445313 318.527344 453.160156 312 449.882813 C 305.804688 446.773438 303.152344 439.886719 304.453125 435.183594 C 306.785156 426.746094 322.503906 431.339844 321.414063 437.90625 C 321.136719 439.570313 320.164063 441.105469 319.324219 442.046875 C 317.441406 444.160156 318.777344 445.375 320.792969 443.640625 C 322.804688 441.90625 324.585938 440.441406 323.378906 435.183594 C 322.164063 429.921875 315.398438 426.339844 307.132813 428.527344 C 298.867188 430.714844 298.578125 440.683594 304.015625 448.976563 C 306.382813 452.589844 323.984375 463.558594 339.003906 447.597656 C 348.734375 437.257813 344.878906 413.835938 321.839844 409.949219 C 313.164063 408.484375 303.761719 410.441406 297.160156 413.316406 C 298.363281 411.832031 299.347656 410.125 300.15625 408.292969 C 301.988281 407.582031 304.367188 406.773438 307.148438 406.105469 C 313.78125 404.515625 324.679688 400.5 337.875 407.851563 C 351.070313 415.203125 361.519531 419.707031 367.574219 419.003906 C 371.53125 418.542969 372.894531 418.441406 373.371094 418.425781 C 373.996094 418.683594 374.535156 418.882813 374.945313 419.011719 C 378.1875 420.035156 399.472656 429.007813 403.5 432 C 407.527344 434.992188 414.136719 441.65625 417.882813 443.421875 C 421.632813 445.183594 421.152344 439.476563 423.195313 434.242188 C 424.253906 431.519531 426.613281 427.332031 428.648438 422.394531 C 430.011719 423.558594 435.328125 428.082031 441.105469 432.863281 C 447.816406 438.414063 465.726563 441.292969 472.664063 439.941406 C 479.605469 438.585938 492.96875 433.09375 492.96875 433.09375 C 497.488281 430.628906 504.019531 426.21875 502.253906 423.734375 Z M 323.289063 329.234375 C 329.546875 329.734375 336.285156 327.832031 354.148438 345.71875 C 372.011719 363.605469 365.785156 376.820313 363.265625 378.921875 C 357.929688 383.367188 348.511719 381.363281 348.511719 381.363281 L 324.015625 359.121094 C 324.015625 359.121094 324.019531 352.226563 324.3125 346.726563 C 324.605469 341.230469 322.5 341.410156 320.273438 338.144531 C 318.050781 334.875 317.03125 328.734375 323.289063 329.234375 Z M 310.1875 373.707031 C 312.164063 368.863281 318.453125 359.007813 318.453125 359.007813 C 318.453125 359.007813 319.089844 360.863281 320.324219 362.621094 C 321.5625 364.382813 341.328125 381.984375 341.328125 381.984375 C 341.328125 381.984375 337.980469 385.53125 334.613281 388.046875 C 331.246094 390.558594 321 391.589844 313.273438 388.28125 C 305.550781 384.972656 308.207031 378.550781 310.1875 373.707031 Z M 175.902344 344.296875 C 178.847656 346.222656 180.738281 351.347656 181.730469 354.832031 C 179.558594 356.78125 176.816406 358.832031 174.445313 360.015625 C 174.738281 356.769531 175.050781 350.296875 173.34375 347.125 C 171.007813 342.789063 171.269531 341.261719 175.902344 344.296875 Z M 144.855469 341.246094 C 147.855469 337.246094 150.605469 335.539063 150.171875 343.273438 C 149.808594 349.746094 147.050781 356.769531 146.15625 358.898438 C 145.226563 358.699219 144.457031 358.496094 143.902344 358.296875 C 140.722656 357.136719 136.316406 357.429688 133.933594 357.714844 C 133.925781 357.363281 133.90625 357.011719 133.871094 356.664063 C 133.753906 355.527344 133.539063 354.421875 133.257813 353.339844 C 136.078125 350.628906 142.535156 344.335938 144.855469 341.246094 Z M 133.230469 362.800781 C 134.808594 363.15625 137.613281 361.429688 142 362.164063 C 150.535156 363.601563 158.535156 365.910156 166.222656 365.464844 C 173.910156 365.023438 179.46875 362.164063 179.46875 362.164063 C 179.46875 362.164063 180.03125 364.285156 178.699219 368.953125 C 177.367188 373.617188 173.238281 382.964844 168.238281 384.964844 C 164.621094 386.410156 156.644531 388.03125 152.507813 388.816406 C 149.945313 387.367188 147.472656 386.273438 145.214844 385.726563 C 136.636719 383.648438 127.050781 384.144531 123.253906 384.464844 C 122.683594 382.066406 122.042969 380.078125 121.386719 378.800781 C 122.609375 378.316406 123.734375 377.644531 124.96875 376.761719 C 124.96875 376.761719 125.101563 376.621094 125.328125 376.371094 C 129.277344 376.511719 139.273438 376.75 148.882813 375.972656 C 161.214844 374.972656 156.515625 375.082031 146.542969 373.421875 C 139.492188 372.246094 132.773438 371.339844 129.4375 370.90625 C 130.914063 368.59375 132.390625 365.777344 133.230469 362.800781 Z M 101.03125 342.570313 C 103.023438 335.390625 107.539063 328.238281 107.804688 325.878906 C 108.167969 322.609375 107.6875 320.214844 109.085938 323.015625 C 110.488281 325.8125 118.242188 334.789063 125.910156 346.125 C 133.578125 357.457031 128.328125 366.421875 125.570313 368.628906 C 123.902344 369.964844 122.238281 371.964844 122.238281 371.964844 C 122.238281 371.964844 117.761719 362.46875 115.761719 351.804688 C 113.761719 341.136719 113.109375 345.339844 113.507813 354.273438 C 113.910156 363.203125 116.070313 375.863281 116.070313 375.863281 C 116.070313 375.863281 110.902344 373.628906 105.902344 370.628906 C 97.417969 365.535156 98.96875 349.992188 101.03125 342.570313 Z M 52.726563 386.851563 C 47.128906 383.320313 44.238281 374.296875 45.238281 369.296875 C 46.238281 364.296875 47.101563 365.230469 50.769531 369.5625 C 54.4375 373.894531 66.214844 375.328125 73.902344 375.628906 C 85.9375 376.101563 93.941406 373.070313 97.601563 371.257813 C 98.722656 372.988281 100.121094 374.609375 101.820313 375.941406 C 98.742188 377.132813 95.191406 378.894531 92.699219 380.238281 C 91.84375 380.699219 90.773438 381.433594 89.550781 382.371094 C 88.019531 381.753906 84.765625 381.058594 77.882813 381.058594 C 65.546875 381.058594 54.632813 381.765625 62.207031 382.871094 C 69.78125 383.980469 80.238281 384.964844 80.238281 384.964844 L 84.640625 386.503906 C 82.179688 388.714844 79.484375 391.296875 76.78125 394.019531 C 69.828125 392.496094 56.769531 389.402344 52.726563 386.851563 Z M 74.902344 427.628906 C 45.570313 434.296875 39.40625 424.988281 36.433594 420.339844 C 33.460938 415.691406 36.660156 415.570313 44.878906 417.597656 C 53.09375 419.628906 67.265625 408.328125 73.597656 403.996094 C 79.933594 399.664063 95.675781 384.34375 100.761719 382.035156 C 103.050781 380.992188 106.414063 379.996094 109.421875 379.214844 C 109.585938 379.238281 109.738281 379.277344 109.902344 379.296875 C 111.328125 379.46875 112.582031 379.585938 113.71875 379.652344 C 113.257813 384.304688 111.671875 393.777344 106.246094 397.964844 C 98.914063 403.632813 86.570313 412.296875 81.570313 413.296875 C 76.570313 414.296875 77.371094 416.261719 83.167969 415.164063 C 88.96875 414.066406 104.066406 406.460938 109.066406 401.792969 C 114.066406 397.125 117.902344 390.296875 118.238281 384.628906 C 118.332031 383.023438 119.808594 384.144531 119.96875 384.605469 C 121.632813 389.480469 122.300781 395.882813 119.238281 402.296875 C 115.882813 409.316406 104.238281 420.964844 74.902344 427.628906 Z M 133.78125 438.625 C 130.964844 441.871094 123.542969 449.8125 111.210938 447.8125 C 98.878906 445.8125 93.269531 441.863281 93.269531 441.863281 C 93.269531 441.863281 98.902344 439.628906 101.570313 434.628906 C 103.28125 431.417969 104.996094 426.144531 106.003906 422.78125 C 112.117188 418.820313 117.183594 414.398438 120.578125 410.082031 C 120.40625 414.351563 119.578125 421.515625 116.25 427.761719 C 111.117188 437.394531 113.234375 437.035156 117.136719 432.582031 C 121.035156 428.128906 126.453125 417.71875 126.621094 414.285156 C 126.785156 410.851563 128.902344 412.296875 130.570313 414.964844 C 131.777344 416.898438 132.199219 420.53125 138.0625 425.433594 C 137.664063 427.808594 136.175781 435.871094 133.78125 438.625 Z M 181.574219 430.195313 C 183.886719 433.519531 185.695313 436.777344 187.257813 439.398438 C 178.207031 438.140625 160.382813 435.175781 151.527344 429.644531 C 140.863281 422.976563 131.753906 412.78125 131.152344 404.613281 C 130.554688 396.445313 131.171875 397.414063 133.519531 400.628906 C 135.863281 403.84375 140.875 413.222656 149.742188 417.023438 C 158.609375 420.824219 162.355469 422.472656 154.6875 417.136719 C 147.019531 411.804688 139.230469 402.773438 136.9375 396.546875 C 134.648438 390.324219 134.070313 387.863281 134.070313 387.863281 C 134.070313 387.863281 152.949219 390.640625 160.296875 400.128906 C 167.648438 409.621094 176.449219 422.828125 181.574219 430.195313 Z M 209.570313 386.628906 C 204.238281 388.964844 192.21875 395.785156 181.550781 396.785156 C 171.992188 397.679688 161.519531 392.140625 159.445313 390.976563 C 164.238281 389.820313 171.570313 389.296875 178.902344 382.964844 C 184.421875 378.195313 186.84375 365.671875 187.871094 358.351563 C 189.480469 357.988281 191.722656 357.589844 193.890625 357.589844 C 197.890625 357.589844 203.246094 360.144531 206.207031 361.953125 C 209.167969 363.761719 211.140625 371.285156 213.472656 374.285156 C 214.398438 375.472656 215.804688 375.609375 217.109375 375.140625 C 217.40625 377.214844 217.855469 379.253906 218.230469 380.773438 C 215.730469 382.445313 213.011719 385.125 209.570313 386.628906 Z M 225.242188 438.160156 C 224.636719 439.714844 223.757813 441.730469 222.464844 444.308594 C 218.71875 451.777344 211.160156 459.097656 206.09375 459.4375 C 201.03125 459.777344 197.820313 461.195313 201.132813 454.269531 C 204.449219 447.34375 206.871094 446.0625 205.972656 433.054688 C 205.070313 420.046875 204.335938 406.042969 204.335938 406.042969 C 204.335938 406.042969 207.269531 404.269531 211.023438 404.046875 C 212.121094 403.984375 213.136719 403.550781 214.023438 402.980469 C 215.234375 407.90625 216.910156 415.023438 218.582031 423.066406 C 219.996094 429.871094 222.292969 434.589844 225.242188 438.160156 Z M 235.953125 382.816406 C 235.328125 382.417969 234.515625 382.039063 233.601563 381.6875 C 237.515625 376.46875 247.265625 363.664063 252.773438 358.160156 C 259.773438 351.160156 254.570313 352.628906 246.238281 359.964844 C 239.929688 365.511719 232.097656 375.640625 228.660156 380.242188 C 227.867188 380.0625 227.078125 379.90625 226.308594 379.777344 C 225.800781 375.207031 225.789063 366.207031 229.238281 360.296875 C 233.902344 352.296875 246.78125 342.171875 255.117188 336.171875 C 263.449219 330.171875 264.785156 316.066406 264.449219 311.066406 C 264.148438 306.566406 259.53125 303.339844 258.046875 302.253906 C 259.648438 301.46875 261.0625 300.796875 261.96875 300.761719 C 264.960938 300.652344 275.238281 302.964844 277.238281 309.628906 C 279.238281 316.296875 280.078125 323.398438 272.097656 341.078125 C 265.59375 355.484375 264.828125 362.777344 265.273438 366.757813 C 261.640625 370.21875 260.152344 374.203125 260.152344 374.203125 C 260.152344 374.203125 255.984375 374.34375 249.464844 377.296875 C 245.640625 379.023438 241.996094 381.636719 239.625 385.808594 C 238.589844 384.808594 237.285156 383.671875 235.953125 382.816406 Z M 295.617188 405.429688 C 292.382813 411.71875 283.550781 421.398438 281.019531 425.878906 C 278.484375 430.359375 276.703125 434.597656 276.703125 434.597656 C 276.703125 434.597656 271.980469 431.0625 267.003906 428.023438 C 262.023438 424.984375 247.535156 414.570313 245.496094 409.871094 C 243.460938 405.171875 240.972656 395.3125 243.011719 389.828125 C 245.054688 384.34375 251.703125 379.226563 255.125 378.105469 C 258.546875 376.984375 261.035156 377.578125 261.035156 377.578125 C 261.035156 377.578125 267.09375 394.703125 269.410156 407.800781 C 271.722656 420.902344 273.523438 424.199219 273.101563 414.195313 C 272.675781 404.191406 270.984375 388.992188 269.828125 386.058594 C 268.671875 383.121094 268.628906 378.785156 268.628906 378.785156 C 268.628906 378.785156 272.507813 369.851563 280.503906 370.414063 C 288.5 370.972656 294.511719 378.726563 295.921875 383.484375 C 297.335938 388.246094 298.855469 399.144531 295.617188 405.429688 Z M 419.730469 431.328125 C 416.949219 435.804688 416.445313 439.324219 416.445313 439.324219 C 416.445313 439.324219 414.402344 437.414063 411.769531 434.613281 C 409.132813 431.808594 397.054688 422.609375 388.335938 418.542969 C 379.617188 414.476563 368.015625 410.296875 367.066406 403.289063 C 366.121094 396.28125 370.257813 392.179688 377.902344 390.628906 C 387.722656 388.636719 394.902344 397.628906 394.902344 397.628906 L 397.664063 402.589844 C 397.664063 402.589844 389.132813 401.589844 387.863281 404.078125 C 386.59375 406.570313 392.796875 407.960938 397.042969 408.390625 C 401.289063 408.824219 401.214844 409.117188 401.214844 409.117188 C 401.214844 409.117188 409.589844 426.214844 412.707031 430.289063 C 415.824219 434.363281 416.28125 433.582031 414.304688 430.066406 C 412.328125 426.554688 397.964844 389.390625 397.964844 389.390625 C 397.964844 389.390625 407.46875 385.613281 412.25 388.050781 C 417.03125 390.488281 426.070313 395.15625 426.484375 406.660156 C 426.894531 418.164063 422.515625 426.847656 419.730469 431.328125 Z M 479.375 429.691406 C 474.109375 431.390625 456.789063 434.253906 447.824219 430.058594 C 440.070313 426.429688 431.714844 422.015625 429.429688 420.402344 C 430.550781 417.410156 431.484375 414.195313 431.914063 410.898438 L 437.636719 411.023438 C 437.636719 411.023438 438.886719 410.980469 438.46875 413.128906 C 438.054688 415.277344 446.054688 421.886719 448.308594 421.402344 C 450.5625 420.921875 444.285156 411.074219 444.285156 411.074219 C 444.285156 411.074219 448.15625 410.945313 450.394531 411.472656 C 452.636719 412 460.367188 413.796875 460.367188 413.796875 C 460.367188 413.796875 459.449219 415.789063 459.648438 416.191406 C 459.84375 416.589844 461.296875 421.503906 464.539063 422.78125 C 467.777344 424.054688 465.847656 416.4375 465.847656 416.4375 C 465.847656 416.4375 472.589844 419.78125 476.816406 422.808594 C 481.050781 425.835938 481.582031 425.230469 476.621094 420.910156 C 472.8125 417.597656 459.425781 408.027344 455.929688 407.503906 C 452.433594 406.976563 449.0625 406.058594 448.308594 404.878906 C 447.558594 403.703125 451.566406 398.175781 453.996094 396.796875 C 456.425781 395.417969 452.921875 394.699219 448.410156 396.207031 C 443.902344 397.710938 443.429688 405.574219 443.429688 405.574219 L 431.949219 404.742188 C 431.367188 400.890625 429.523438 397.257813 426.96875 394.109375 C 431.410156 391.738281 443.609375 386.136719 452.554688 390.683594 C 463.675781 396.335938 481.238281 413.136719 485.636719 416.746094 C 490.039063 420.359375 492.90625 421.742188 492.90625 421.742188 C 492.90625 421.742188 484.640625 427.992188 479.375 429.691406 Z M 417.820313 407.949219 C 417.820313 407.949219 409.710938 411.042969 410.757813 404.800781 C 411.804688 398.558594 417.820313 407.949219 417.820313 407.949219 Z M 333.390625 344.015625 C 331.765625 340.703125 332.246094 334.414063 335.617188 338.796875 C 338.988281 343.175781 342.179688 348.335938 344.667969 349.855469 C 347.15625 351.375 359.621094 358.027344 361.339844 362.292969 C 363.054688 366.554688 362.375 368.074219 358.902344 364.296875 C 355.433594 360.519531 351.214844 358.914063 348.972656 357.898438 C 346.726563 356.882813 347.261719 359.136719 348 360.640625 C 348.738281 362.148438 348.484375 365.390625 348.449219 369.640625 C 348.417969 373.890625 347.902344 375.382813 347.148438 371.011719 C 346.375 366.558594 346.632813 362.746094 343.414063 358.21875 C 340.199219 353.695313 335.015625 347.328125 333.390625 344.015625 Z M 255.503906 395.183594 C 252.488281 396.914063 250.675781 395.296875 252.71875 392.914063 C 254.765625 390.53125 258.59375 383.15625 260.46875 386.273438 C 262.949219 390.390625 258.515625 393.457031 255.503906 395.183594 Z M 264.40625 404.742188 C 262.726563 407.585938 259.851563 414.71875 256.867188 412.945313 C 252.296875 410.234375 259.289063 405.21875 261.402344 404.054688 C 263.519531 402.890625 266.089844 401.898438 264.40625 404.742188 Z M 273.609375 427.574219 C 271.640625 427.597656 269.289063 422.425781 272.238281 422.144531 C 275.234375 421.855469 275.585938 427.546875 273.609375 427.574219 Z M 283.652344 408.152344 C 283.652344 408.152344 275.117188 412.089844 276.558594 404.097656 C 277.257813 400.207031 283.652344 408.152344 283.652344 408.152344 Z M 289.066406 394.074219 C 292.09375 397.199219 291.46875 397.871094 289.242188 396.441406 C 287.015625 395.011719 274.757813 394.382813 277.054688 388.5 C 279.984375 380.980469 286.039063 390.949219 289.066406 394.074219 "/>
</g>
</svg>
