<?xml version="1.0" encoding="UTF-8"?>
<svg xmlns="http://www.w3.org/2000/svg" xmlns:xlink="http://www.w3.org/1999/xlink" width="522pt" height="505pt" viewBox="0 0 522 505" version="1.1">
<g id="surface1">
<path style=" stroke:none;fill-rule:nonzero;fill:rgb(0%,0%,0%);fill-opacity:1;" d="M 275.503906 249.464844 L 276.6875 0.390625 L 1.492188 0.417969 L 1.585938 505.382813 L 520.921875 505.382813 L 521.230469 249.777344 Z M 15.085938 185.246094 L 16.269531 83.589844 C 30.722656 103.96875 55.367188 123.164063 82.144531 119.847656 C 103.46875 113.449219 125.269531 94.019531 126.691406 70.320313 C 127.640625 47.808594 116.738281 26.007813 96.359375 11.789063 C 159.394531 12.265625 207.96875 11.6875 269.34375 12.160156 C 270.765625 35.144531 269.34375 52.074219 268.160156 76.007813 C 190.199219 82.878906 115.316406 131.21875 77.640625 201.835938 L 61.292969 234.773438 C 47.3125 217.238281 30.960938 202.070313 15.085938 185.246094 Z M 229.535156 431.449219 C 176.929688 419.601563 121.242188 435.953125 74.796875 454.195313 C 74.796875 449.929688 81.90625 446.378906 82.855469 441.164063 C 111.054688 393.300781 107.734375 328.136719 85.699219 278.609375 C 96.125 208.945313 150.390625 144.015625 218.632813 123.875 C 234.035156 118.660156 249.914063 114.871094 266.5 112.5 C 267.210938 146.621094 266.261719 185.011719 266.5 216.050781 C 239.011719 210.839844 210.339844 227.898438 194.226563 251.835938 C 161.289063 300.410156 148.253906 357.28125 128.824219 411.542969 C 132.378906 412.492188 135.222656 408.703125 138.539063 407.515625 C 191.855469 378.367188 251.335938 361.546875 296.121094 314.390625 C 310.339844 299.226563 316.023438 278.609375 313.183594 258.703125 L 419.574219 259.890625 C 417.207031 279.796875 411.28125 298.277344 404.648438 316.523438 C 382.847656 371.972656 329.054688 414.863281 273.84375 430.976563 C 260.339844 433.34375 243.039063 441.402344 229.535156 431.449219 Z M 511.046875 434.292969 C 496.589844 410.832031 470.996094 386.902344 441.140625 392.351563 C 421.234375 397.5625 401.328125 410.832031 394.460938 431.449219 C 389.246094 456.566406 402.988281 478.367188 420.050781 495.664063 C 389.246094 495.664063 348.960938 496.378906 319.34375 495.191406 C 312.46875 482.871094 301.570313 471.023438 290.90625 461.070313 C 376.6875 431.214844 442.796875 349.457031 458.199219 260.359375 C 458.199219 260.359375 495.183594 260.597656 512.007813 260.359375 C 510.585938 319.125 514.128906 375.527344 511.046875 434.292969 "/>
</g>
</svg>
