<?xml version="1.0" encoding="UTF-8"?>
<svg xmlns="http://www.w3.org/2000/svg" xmlns:xlink="http://www.w3.org/1999/xlink" width="152pt" height="575pt" viewBox="0 0 152 575" version="1.1">
<g id="surface1">
<path style=" stroke:none;fill-rule:nonzero;fill:rgb(0%,0%,0%);fill-opacity:1;" d="M 62.21875 143.144531 C 60.539063 143.425781 59.28125 142.65625 57.808594 142.445313 C 52 141.605469 45 139.574219 39.332031 142.304688 C 38.628906 143.144531 38.347656 144.125 38.488281 145.316406 C 40.378906 148.816406 45.28125 147.90625 48.917969 147.835938 C 53.539063 147.414063 57.738281 146.015625 62.21875 145.105469 L 74.121094 157.425781 C 71.039063 164.003906 69.5 173.875 74.820313 179.894531 C 75.589844 180.246094 76.570313 179.964844 77.339844 179.546875 C 82.167969 173.523438 81.050781 163.726563 77.621094 157.425781 L 89.589844 145.105469 L 90.78125 144.964844 C 94.417969 146.367188 98.339844 146.996094 102.328125 147.625 C 106.039063 147.625 110.800781 148.816406 113.25 145.664063 C 113.601563 144.335938 113.460938 142.796875 112.269531 141.957031 C 104.921875 139.085938 97.148438 142.234375 89.941406 143.144531 C 85.878906 139.296875 81.75 135.234375 77.96875 131.175781 C 80.488281 125.507813 81.257813 117.246094 77.96875 111.714844 C 77.128906 110.875 77.269531 108.777344 75.449219 109.195313 C 70.832031 115.355469 70.96875 124.527344 73.769531 131.527344 Z M 40.660156 144.964844 C 40.167969 144.054688 41.289063 143.566406 42.058594 143.285156 C 46.609375 142.867188 51.71875 143.214844 56.128906 144.265625 C 51.300781 145.316406 45.628906 146.714844 40.660156 144.964844 Z M 109.75 143.144531 C 110.308594 143.496094 111.148438 143.496094 111.429688 144.265625 C 110.589844 146.15625 108.070313 145.386719 106.390625 145.804688 C 102.75 145.527344 98.621094 145.175781 95.820313 144.125 C 100.300781 143.566406 104.851563 142.445313 109.75 143.144531 Z M 75.941406 177.726563 C 71.878906 172.613281 73.210938 164.355469 75.941406 158.894531 C 78.667969 164.285156 79.929688 172.546875 75.941406 177.726563 Z M 87.558594 143.777344 L 87.558594 144.265625 L 75.800781 156.027344 L 64.179688 144.125 L 75.941406 132.367188 Z M 75.941406 112.695313 C 79.230469 117.945313 78.179688 125.296875 75.941406 130.6875 C 73.417969 125.644531 72.71875 117.804688 75.941406 112.695313 "/>
<path style=" stroke:none;fill-rule:nonzero;fill:rgb(0%,0%,0%);fill-opacity:1;" d="M 55.289063 106.464844 C 53.398438 112.976563 57.320313 117.804688 61.167969 122.285156 C 62.5 124.246094 64.320313 126.695313 62.847656 129.144531 C 56.339844 129.007813 52.980469 121.164063 46.539063 120.605469 C 35.128906 117.875 30.789063 130.824219 24.558594 137.265625 C 22.738281 139.226563 20.5 139.855469 18.332031 140.90625 C 18.46875 141.394531 18.050781 142.027344 18.679688 142.304688 C 28.480469 144.265625 29.25 155.605469 37.160156 160.785156 C 46.050781 166.386719 53.609375 157.496094 61.03125 153.855469 C 62.011719 153.714844 63.339844 153.503906 64.179688 154.066406 L 63.339844 161.066406 C 61.589844 165.824219 57.320313 169.464844 55.640625 174.226563 C 51.441406 188.503906 69.640625 190.675781 74.609375 201.105469 C 75.03125 201.734375 74.609375 202.644531 75.449219 203.066406 C 75.871094 203.414063 76.429688 203.203125 76.78125 202.925781 C 79.230469 193.546875 89.871094 191.796875 94.980469 184.304688 C 97.007813 180.664063 97.570313 175.136719 95.121094 171.496094 C 91.550781 166.035156 86.582031 160.996094 87.910156 153.714844 L 90.78125 153.714844 C 95.609375 155.675781 99.460938 159.945313 104.359375 161.765625 C 117.589844 166.386719 121.230469 149.65625 129.210938 143.636719 C 130.398438 142.097656 134.109375 143.355469 133.410156 140.625 C 124.378906 138.175781 122.351563 127.746094 115.28125 122.425781 C 111.429688 119.765625 105.269531 119.625 101.140625 121.9375 C 97.082031 124.246094 93.859375 129.144531 88.890625 128.867188 C 87.28125 123.265625 93.929688 119.835938 95.820313 115.074219 C 102.75 99.257813 80.769531 96.875 76.988281 84.625 C 76.710938 83.996094 75.730469 83.785156 75.097656 84.136719 C 72.371094 94.847656 58.859375 96.316406 55.289063 106.464844 Z M 75.941406 88.195313 C 81.191406 98.066406 101.699219 101.914063 92.738281 116.054688 C 89.941406 120.394531 84.269531 124.664063 87.210938 130.335938 C 89.730469 132.226563 92.878906 130.617188 95.121094 129.144531 C 99.738281 125.785156 104.007813 120.886719 110.589844 122.636719 C 119.6875 125.644531 120.808594 136.707031 129.210938 141.117188 C 119.6875 145.734375 119.058594 161.695313 106.179688 160.085938 C 99.039063 158.476563 94.210938 149.234375 86.019531 152.035156 L 85.390625 153.015625 C 86.019531 157.074219 85.878906 161.554688 88.050781 164.984375 C 90.917969 169.886719 96.449219 174.015625 94.28125 180.59375 C 90.988281 189.625 80.347656 190.464844 75.941406 198.863281 C 71.109375 189.554688 54.238281 187.875 57.667969 174.714844 C 59.769531 169.886719 64.179688 166.035156 65.582031 160.925781 L 66.417969 152.664063 C 63.832031 150.355469 60.050781 151.964844 57.460938 153.226563 C 51.71875 156.445313 46.050781 163.375 38.699219 159.246094 C 31.558594 154.34375 30.441406 145.527344 22.738281 141.464844 C 30.789063 136.914063 31.980469 126.695313 40.519531 122.984375 C 49.96875 119.554688 54.238281 130.546875 62.359375 131.386719 C 63.550781 131.386719 64.949219 130.824219 65.230469 129.496094 C 67.261719 120.746094 55.082031 116.824219 57.179688 107.867188 C 60.191406 98.484375 71.25 96.734375 75.941406 88.195313 "/>
<path style=" stroke:none;fill-rule:nonzero;fill:rgb(0%,0%,0%);fill-opacity:1;" d="M 86.859375 45.007813 C 91.898438 52.914063 104.007813 48.925781 106.390625 58.796875 C 101.070313 61.035156 94.28125 59.777344 88.890625 61.804688 C 86.71875 63.207031 86.789063 65.9375 86.859375 68.175781 C 89.519531 76.4375 98.410156 80.214844 105.199219 83.785156 C 109.46875 84.414063 112.898438 81.40625 117.101563 81.824219 C 118.78125 82.527344 119.410156 84.207031 119.480469 85.816406 C 116.257813 91.695313 109.398438 92.957031 105.691406 98.625 C 104.078125 100.9375 103.589844 104.785156 105.058594 107.304688 C 107.371094 110.457031 109.960938 105.765625 112.898438 106.1875 C 125.851563 112.695313 130.121094 126.625 139.78125 136.425781 C 141.878906 138.386719 143.980469 140.347656 146.5 141.257813 C 148.460938 139.015625 149.089844 135.867188 149.230469 132.714844 C 145.589844 103.734375 137.75 76.4375 121.859375 52.566406 L 89.238281 9.585938 C 86.230469 6.15625 83.359375 2.375 79.648438 -0.492188 C 78.949219 -0.84375 78.390625 -0.00390625 78.320313 0.484375 C 79.089844 14.90625 82.378906 28.277344 85.179688 41.855469 Z M 85.738281 8.535156 L 120.179688 53.894531 C 135.578125 77.136719 143.28125 103.597656 147.058594 131.664063 C 147.269531 134.1875 146.570313 136.285156 145.871094 138.386719 L 145.378906 138.386719 C 132.21875 128.515625 128.859375 111.4375 113.601563 104.15625 C 111.007813 103.457031 109.121094 105.347656 107.019531 106.1875 C 105.96875 105.136719 106.390625 103.035156 106.53125 101.636719 C 109.75 94.914063 118.078125 93.375 121.507813 86.65625 C 122.070313 83.996094 120.808594 81.617188 118.5 80.144531 C 113.738281 78.117188 110.171875 82.386719 105.550781 81.617188 C 99.460938 78.605469 92.039063 75.175781 89.097656 68.175781 C 88.75 66.777344 88.890625 65.164063 89.589844 63.976563 C 93.441406 62.15625 98.339844 62.785156 102.679688 62.15625 C 104.851563 61.664063 107.160156 61.246094 108.699219 59.636719 C 107.71875 46.125 90.570313 52.355469 87.070313 40.664063 C 84.691406 28.347656 81.539063 16.304688 80.699219 3.355469 L 85.738281 8.535156 "/>
<path style=" stroke:none;fill-rule:nonzero;fill:rgb(0%,0%,0%);fill-opacity:1;" d="M 5.730469 141.464844 C 20.5 132.714844 23.160156 114.515625 38.488281 106.464844 C 41.429688 105.625 42.96875 108.914063 45.910156 108.496094 C 46.679688 107.9375 47.097656 106.886719 47.378906 105.976563 C 49.621094 98.625 41.429688 94.285156 36.667969 90.714844 C 34.917969 89.175781 32.050781 87.496094 32.46875 84.835938 C 35.339844 77.976563 41.429688 85.046875 46.398438 83.996094 C 53.46875 80.777344 62.21875 76.367188 65.019531 68.175781 C 65.160156 66.007813 65.230469 63.277344 63.058594 61.945313 C 59.070313 60.125 53.890625 61.105469 49.621094 60.125 C 48.148438 59.636719 46.332031 59.847656 45.417969 58.65625 C 45.839844 56.765625 46.890625 55.085938 48.570313 53.757813 C 54.800781 50.464844 63.761719 50.257813 66.558594 42.136719 C 69.710938 28.554688 72.648438 14.765625 73.417969 0.136719 C 73.140625 -0.214844 72.789063 -0.421875 72.300781 -0.355469 C 69.847656 1.464844 67.609375 3.914063 65.582031 6.226563 L 30.582031 51.9375 C 17.699219 71.046875 10 92.324219 5.378906 114.867188 C 4.75 122.777344 0.96875 130.546875 3.699219 138.597656 C 4.398438 139.507813 4.332031 141.257813 5.730469 141.464844 Z M 7.621094 114.726563 C 12.378906 91.976563 20.082031 70.347656 33.800781 51.234375 L 67.75 7.066406 L 71.109375 3.496094 C 70.058594 16.304688 67.46875 29.117188 64.53125 41.507813 C 60.679688 52.566406 43.390625 46.335938 43.390625 60.125 C 48.78125 63.414063 55.988281 62.085938 62.011719 63.835938 C 63.128906 65.097656 63.269531 67.195313 62.710938 68.664063 C 59.347656 75.597656 51.929688 79.164063 45.558594 81.964844 C 40.730469 81.757813 34.640625 76.714844 31.140625 82.664063 C 30.300781 83.785156 30.089844 85.394531 30.441406 86.867188 C 33.941406 93.585938 42.898438 95.125 45.558594 102.476563 C 45.558594 103.875 45.628906 105.277344 44.859375 106.324219 C 42.761719 105.414063 40.800781 103.597656 38.140625 104.296875 C 22.667969 111.574219 19.660156 129.007813 6.21875 138.734375 C 2.789063 130.824219 6.917969 122.636719 7.621094 114.726563 "/>
<path style=" stroke:none;fill-rule:nonzero;fill:rgb(0%,0%,0%);fill-opacity:1;" d="M 148.179688 144.476563 C 148.109375 144.054688 147.621094 143.707031 147.199219 143.636719 C 136.839844 147.976563 132.640625 159.035156 126.898438 167.296875 C 123.960938 171.144531 120.390625 175.90625 115.769531 177.375 C 112.269531 178.703125 109.539063 175.976563 106.390625 175.34375 C 105.480469 176.605469 105.058594 178.003906 104.5 179.40625 C 103.519531 183.535156 106.25 186.6875 109.398438 189.136719 C 112.898438 192.144531 118.710938 192.984375 119.828125 198.234375 C 117.171875 207.265625 109.050781 198.65625 103.378906 201.105469 C 96.871094 205.234375 88.960938 211.046875 86.371094 218.535156 C 89.730469 227.214844 99.25 222.175781 105.898438 224.273438 C 106.390625 225.046875 106.949219 225.816406 106.738281 226.933594 C 106.179688 228.054688 105.96875 229.386719 104.710938 229.945313 C 97.359375 231.90625 89.449219 234.636719 85.179688 241.914063 L 78.320313 282.234375 C 76.917969 282.796875 75.097656 282.585938 73.628906 282.375 L 73.628906 282.023438 L 66.699219 242.265625 C 64.597656 237.714844 59.839844 234.496094 55.5 232.816406 C 52.210938 230.855469 47.308594 231.625 45.417969 227.773438 C 45 226.445313 45.140625 224.765625 46.539063 224.066406 C 51.511719 222.734375 56.96875 225.464844 61.519531 223.085938 C 63.339844 222.105469 65.160156 220.214844 65.371094 218.046875 C 62.429688 210.695313 54.519531 204.675781 47.941406 200.894531 C 42.480469 199.285156 37.511719 205.726563 32.960938 200.546875 C 32.46875 199.425781 31.769531 198.234375 32.261719 196.90625 C 36.597656 190.886719 46.46875 189.765625 47.589844 181.226563 C 47.378906 179.054688 46.679688 176.675781 45.070313 175.34375 L 40.167969 177.585938 C 37.511719 178.285156 35.128906 177.164063 32.960938 176.046875 C 21.269531 166.875 19.238281 151.824219 6.082031 144.265625 C 5.449219 143.984375 4.539063 143.425781 3.910156 144.125 C 2.300781 179.195313 13.082031 209.996094 32.609375 236.664063 L 70.621094 282.585938 C 67.539063 283.003906 64.53125 283.496094 61.871094 284.753906 C 60.75 285.664063 58.789063 285.804688 58.648438 287.625 C 61.871094 290.703125 66.210938 291.824219 70.621094 292.453125 L 36.667969 333.125 C 14.128906 360.703125 2.71875 393.113281 3.558594 430.214844 C 3.628906 430.984375 4.609375 431.476563 5.238281 431.054688 C 15.320313 426.226563 19.167969 415.585938 25.050781 407.394531 C 28.199219 402.984375 32.609375 397.316406 38.347656 397.105469 C 41.148438 396.894531 42.96875 399.554688 45.558594 399.34375 C 46.679688 397.382813 47.519531 395.355469 47.378906 392.902344 C 46.539063 387.585938 40.660156 384.503906 36.460938 382.195313 C 34.710938 380.585938 31.351563 379.183594 32.121094 376.105469 C 34.988281 368.335938 42.269531 375.402344 47.730469 374.144531 C 54.660156 370.015625 62.78125 364.066406 65.371094 356.152344 C 62.082031 348.523438 53.050781 351.675781 46.539063 350.902344 C 45.488281 350.414063 45.070313 349.363281 45.070313 348.246094 C 45.210938 346.914063 45.980469 345.796875 47.097656 344.886719 C 54.378906 342.785156 62.429688 340.40625 66.558594 332.984375 L 73.417969 292.804688 C 75.03125 292.246094 76.5 292.453125 78.179688 292.664063 L 78.179688 292.804688 L 85.179688 333.125 C 87.910156 338.304688 93.300781 341.316406 98.339844 343.066406 C 100.859375 344.675781 105.058594 343.554688 106.390625 347.265625 C 106.601563 348.523438 106.808594 350.273438 105.339844 350.902344 C 101.351563 352.234375 97.21875 350.554688 93.089844 351.113281 C 90.289063 351.535156 87.140625 353.773438 86.371094 356.644531 C 89.167969 364.414063 97.289063 370.433594 104.21875 374.285156 C 109.398438 375.613281 114.371094 369.316406 118.78125 374.425781 C 119.621094 375.613281 119.96875 377.296875 119.339844 378.625 C 114.789063 383.945313 107.019531 385.136719 104.359375 392.066406 C 103.941406 394.863281 104.851563 397.453125 106.390625 399.625 C 109.539063 398.996094 112.199219 396.054688 115.980469 397.664063 C 123.609375 401.023438 127.53125 409.144531 131.730469 415.585938 C 135.578125 421.394531 140.339844 429.304688 147.550781 431.195313 C 148.808594 429.585938 147.828125 426.992188 148.390625 425.035156 C 147.898438 391.925781 137.539063 362.875 118.5 337.464844 L 81.191406 292.664063 C 83.570313 292.035156 86.160156 291.824219 88.398438 290.773438 C 90.007813 289.585938 92.667969 289.304688 93.089844 287.066406 C 90.082031 284.40625 86.441406 283.285156 82.519531 282.726563 C 82.167969 282.445313 81.398438 282.796875 81.332031 282.234375 L 115.28125 241.566406 C 137.820313 213.984375 149.160156 181.574219 148.179688 144.476563 Z M 32.609375 233.164063 C 14.96875 207.964844 5.101563 179.265625 5.730469 146.644531 C 18.539063 154.625 20.21875 170.023438 32.820313 178.425781 C 36.179688 180.59375 41.21875 180.175781 44.582031 178.074219 C 45.28125 179.894531 46.121094 182.765625 44.371094 184.445313 C 40.308594 189.835938 33.03125 190.394531 30.089844 196.695313 C 29.667969 199.566406 30.859375 202.4375 33.660156 203.90625 C 38.417969 206.703125 42.410156 202.085938 47.238281 202.925781 C 53.332031 206.636719 60.332031 211.746094 63.199219 218.535156 C 59 225.535156 50.53125 219.09375 44.71875 222.734375 C 43.597656 223.785156 43.039063 224.976563 43.039063 226.445313 C 43.949219 235.546875 54.449219 232.183594 59.347656 237.226563 C 61.519531 238.484375 63.480469 240.796875 64.738281 242.894531 L 70.898438 279.015625 L 70.898438 279.503906 Z M 70.761719 296.863281 L 64.53125 332.285156 C 60.332031 339.355469 52.488281 340.753906 45.699219 343.203125 C 43.460938 344.953125 42.480469 347.476563 43.179688 350.273438 C 43.878906 351.886719 45.558594 353.144531 47.238281 353.285156 C 52.417969 354.054688 59.839844 350.484375 63.058594 356.296875 C 60.261719 363.226563 53.121094 368.476563 46.890625 372.113281 C 42.058594 372.675781 37.300781 367.984375 32.609375 371.625 C 30.371094 373.304688 29.53125 375.824219 30.089844 378.484375 C 33.308594 385.273438 41.917969 385.273438 45.210938 392.273438 C 45.769531 393.953125 45 395.566406 44.371094 396.964844 C 41.21875 394.863281 36.320313 394.445313 32.960938 396.476563 C 20.21875 404.734375 18.398438 420.414063 5.589844 428.394531 C 5.101563 392.835938 16.230469 362.035156 37.511719 335.503906 L 70.761719 295.464844 Z M 116.960938 339.003906 C 136.488281 364.765625 146.429688 394.726563 146.007813 428.535156 C 133.480469 420.484375 131.519531 405.226563 119.128906 396.824219 C 115.699219 394.863281 110.800781 394.515625 107.578125 397.105469 C 106.460938 395.984375 106.109375 393.953125 106.53125 392.273438 C 109.960938 385.484375 118.429688 385.273438 121.648438 378.484375 C 122.351563 376.523438 121.230469 374.914063 120.671875 373.304688 C 117.101563 368.402344 111.21875 370.996094 106.878906 372.253906 C 103.171875 372.535156 100.859375 369.523438 97.988281 367.703125 C 94.140625 364.695313 89.871094 360.703125 88.75 356.296875 C 92.878906 349.714844 101.351563 355.734375 107.019531 352.445313 C 108.628906 350.976563 109.121094 348.59375 108.421875 346.566406 C 106.808594 341.523438 101.210938 342.503906 97.640625 340.546875 C 93.71875 338.863281 89.519531 336.484375 87.210938 332.425781 L 80.839844 295.464844 Z M 82.519531 284.753906 C 85.179688 285.316406 87.769531 286.015625 90.082031 287.414063 C 84.058594 291.265625 75.519531 290.636719 68.238281 289.933594 C 66 289.234375 63.691406 288.746094 61.660156 287.414063 C 67.332031 283.773438 75.378906 284.613281 82.519531 284.753906 Z M 80.980469 279.363281 L 80.980469 278.175781 L 87.210938 242.753906 C 91.339844 235.894531 98.898438 233.863281 105.691406 231.835938 C 107.441406 230.644531 108.699219 228.683594 108.910156 226.585938 C 108.769531 224.835938 108.070313 223.085938 106.390625 222.105469 C 100.71875 219.863281 92.667969 224.765625 88.75 218.535156 C 91.410156 211.605469 98.621094 206.496094 104.710938 202.785156 C 109.609375 202.15625 114.441406 206.84375 119.128906 203.273438 C 121.4375 201.523438 122.351563 199.003906 121.648438 196.203125 C 118.148438 189.625 109.539063 189.414063 106.53125 182.273438 C 106.460938 180.734375 106.53125 179.265625 107.371094 178.074219 C 109.050781 178.214844 110.800781 179.894531 112.898438 179.753906 C 121.789063 179.894531 127.320313 170.304688 131.589844 163.9375 C 135.300781 157.703125 139.148438 150.566406 146.007813 146.507813 C 146.78125 170.796875 141.109375 193.125 131.238281 213.355469 C 125.570313 224.34375 118.640625 234.84375 109.890625 244.574219 L 80.980469 279.363281 "/>
<path style=" stroke:none;fill-rule:nonzero;fill:rgb(0%,0%,0%);fill-opacity:1;" d="M 95.820313 470.535156 C 99.039063 463.953125 94.769531 457.515625 90.429688 452.542969 C 89.238281 450.652344 87.347656 448.132813 89.097656 445.824219 C 95.539063 446.664063 99.320313 454.015625 105.898438 454.574219 C 120.671875 457.023438 121.019531 437.632813 133.269531 434.414063 C 133.550781 433.855469 133.550781 433.503906 133.269531 432.875 C 123.1875 430.773438 122.28125 418.875 113.949219 413.902344 C 106.808594 409.84375 100.230469 415.09375 94.769531 419.152344 C 92.597656 420.273438 90.21875 422.164063 87.558594 421.113281 L 88.257813 414.742188 C 89.941406 409.355469 94.769531 405.363281 96.449219 399.976563 C 97.570313 394.445313 95.050781 389.824219 90.917969 386.394531 C 86.089844 382.335938 78.460938 379.394531 76.988281 372.746094 C 76.917969 371.835938 75.449219 371.34375 74.960938 372.253906 C 72.300781 381.636719 61.167969 383.105469 56.480469 391.226563 C 49.761719 403.335938 66.347656 409.074219 64.039063 420.976563 L 63.691406 421.324219 C 56.761719 421.113281 52.628906 414.183594 46.261719 412.714844 C 33.449219 409.632813 30.648438 425.453125 22.53125 431.195313 C 21.269531 432.523438 18.398438 431.824219 18.191406 433.925781 C 28.621094 437.003906 29.738281 449.8125 39.539063 453.875 C 48.148438 457.234375 53.960938 449.675781 60.539063 446.035156 C 61.308594 445.894531 62.988281 445.335938 63.199219 446.523438 C 63.691406 452.613281 56.691406 455.972656 55.289063 461.433594 C 51.160156 475.644531 69.429688 478.445313 74.46875 488.664063 C 75.03125 489.363281 74.332031 490.554688 75.308594 491.042969 C 75.871094 491.042969 76.640625 491.042969 76.78125 490.34375 C 79.859375 480.964844 91.128906 479.003906 95.820313 470.535156 Z M 75.941406 486.84375 C 70.832031 476.835938 49.128906 472.492188 59.488281 458.074219 C 62.429688 454.222656 66.910156 450.09375 64.878906 444.984375 C 64.53125 444.003906 63.621094 443.722656 62.710938 443.652344 C 54.660156 443.722656 51.019531 454.292969 42.199219 452.402344 C 32.121094 450.304688 31.210938 438.195313 22.53125 433.714844 C 32.191406 429.09375 34.429688 408.933594 48.570313 415.933594 C 54.097656 418.59375 58.789063 425.242188 65.582031 422.792969 L 66.417969 421.953125 C 67.050781 414.042969 62.640625 408.164063 58.511719 402.144531 C 56.691406 399.414063 56.898438 395.144531 58.300781 392.273438 C 62.847656 385.066406 71.667969 383.664063 75.800781 375.964844 C 80.140625 384.015625 90.5 385.554688 94.140625 394.09375 C 96.730469 402.632813 87.628906 407.113281 86.230469 414.394531 L 85.390625 422.304688 C 86.789063 423.914063 89.167969 423.492188 91.058594 423.355469 C 98.550781 420.765625 104.851563 410.824219 113.738281 416.285156 C 120.390625 421.324219 121.578125 429.792969 129.070313 433.714844 C 119.757813 438.894531 115.980469 459.125 101.699219 450.863281 C 97.21875 448.203125 93.71875 442.8125 87.910156 444.003906 C 86.371094 445.195313 85.878906 447.363281 86.371094 449.394531 C 89.097656 456.464844 99.320313 462.972656 92.738281 471.375 C 87.628906 477.324219 79.929688 479.84375 75.941406 486.84375 "/>
<path style=" stroke:none;fill-rule:nonzero;fill:rgb(0%,0%,0%);fill-opacity:1;" d="M 145.660156 433.714844 C 131.101563 442.8125 128.507813 460.804688 113.109375 468.714844 C 110.519531 469.203125 108.839844 466.472656 106.179688 466.472656 C 105.128906 466.753906 104.921875 467.875 104.5 468.714844 C 103.378906 472.425781 104.78125 476.34375 107.859375 478.933594 C 111.570313 482.925781 117.660156 484.464844 119.480469 489.855469 C 118.921875 491.042969 118.640625 492.375 117.308594 493.074219 C 113.039063 493.914063 110.03125 490.902344 105.898438 491.042969 C 98.621094 493.984375 90.148438 498.464844 86.859375 506.304688 C 86.582031 508.824219 86.441406 511.765625 88.890625 513.234375 C 93.929688 515.335938 100.441406 513.863281 105.550781 515.753906 C 107.371094 516.175781 105.621094 517.785156 105.550781 518.765625 C 100.089844 526.042969 88.332031 522.964844 85.179688 533.042969 C 81.890625 546.554688 79.300781 560.414063 78.320313 574.832031 C 78.597656 575.394531 79.160156 575.394531 79.648438 575.394531 L 86.019531 569.164063 L 122.140625 521.773438 C 134.109375 503.503906 141.460938 483.34375 146.007813 461.992188 C 147.058594 453.945313 150.347656 446.035156 148.390625 437.632813 C 147.6875 436.234375 147.550781 433.714844 145.660156 433.714844 Z M 146.710938 446.664063 C 141.738281 476.484375 133.410156 504.902344 114.300781 528.84375 L 84.058594 568.113281 C 83.082031 569.375 81.75 570.492188 80.699219 571.683594 C 81.609375 558.523438 84.480469 546.132813 87.210938 533.671875 C 91.128906 522.613281 107.859375 528.703125 108.558594 515.195313 C 103.378906 511.066406 95.398438 513.722656 89.589844 510.992188 C 87.839844 508.964844 89.238281 506.09375 90.21875 504.132813 C 94.488281 498.742188 100.230469 495.59375 106.039063 493.214844 C 110.871094 493.144531 117.660156 498.816406 120.808594 492.234375 C 121.507813 491.042969 121.648438 489.503906 121.300781 488.175781 C 117.800781 481.453125 108.839844 479.914063 106.179688 472.5625 C 106.179688 471.234375 106.109375 469.902344 106.878906 468.855469 C 109.191406 469.484375 110.941406 471.863281 113.738281 470.675781 C 129.070313 463.324219 132.21875 446.175781 145.519531 436.445313 C 147.410156 439.105469 146.78125 443.234375 146.710938 446.664063 "/>
<path style=" stroke:none;fill-rule:nonzero;fill:rgb(0%,0%,0%);fill-opacity:1;" d="M 89.730469 431.894531 C 94.070313 432.664063 98.339844 433.503906 102.679688 434.0625 C 106.179688 434.203125 110.308594 434.835938 112.898438 432.242188 C 113.460938 431.265625 113.390625 430.285156 113.109375 429.234375 C 110.378906 426.363281 105.828125 426.992188 102.191406 427.34375 C 97.847656 427.695313 94 429.304688 89.730469 429.863281 C 85.808594 425.875 81.332031 421.742188 77.621094 417.476563 C 79.859375 411.945313 82.03125 405.226563 79.300781 399.34375 L 77.128906 395.285156 C 76.21875 395.285156 75.238281 394.515625 74.46875 395.285156 C 69.570313 401.304688 70.691406 411.105469 74.121094 417.476563 L 61.871094 429.863281 L 55.148438 428.183594 C 50.109375 427.484375 43.878906 425.804688 39.191406 428.394531 C 38.347656 429.164063 38.140625 430.492188 38.488281 431.542969 C 41.710938 435.675781 48.148438 433.574219 52.769531 433.433594 C 55.988281 433.152344 59.070313 431.894531 62.21875 431.894531 L 73.769531 443.515625 C 71.109375 449.464844 70.761719 457.863281 74.121094 463.675781 C 74.75 464.445313 74.820313 466.125 76.289063 465.84375 C 81.050781 459.824219 80.839844 450.445313 77.96875 443.652344 Z M 111.078125 430.074219 L 111.21875 430.5625 C 111.289063 431.265625 110.449219 431.335938 110.101563 431.753906 C 105.128906 432.664063 100.230469 431.542969 95.609375 430.703125 C 100.441406 429.726563 106.109375 428.253906 111.078125 430.074219 Z M 40.871094 431.195313 C 40.308594 430.984375 40.589844 430.425781 40.519531 430.074219 C 45.347656 427.976563 51.160156 429.652344 55.988281 430.5625 L 56.128906 430.703125 C 51.371094 431.613281 45.769531 432.59375 40.871094 431.195313 Z M 75.800781 397.316406 C 80.140625 402.285156 78.390625 410.683594 75.941406 416.074219 C 73.140625 410.894531 71.808594 402.492188 75.800781 397.316406 Z M 64.179688 430.914063 C 67.75 426.785156 72.089844 422.652344 75.941406 418.945313 L 87.558594 430.914063 C 83.847656 434.902344 79.859375 438.753906 75.941406 442.675781 Z M 75.941406 462.273438 C 72.648438 457.375 73.558594 449.464844 75.800781 444.144531 C 78.390625 449.394531 78.949219 457.09375 75.941406 462.273438 "/>
<path style=" stroke:none;fill-rule:nonzero;fill:rgb(0%,0%,0%);fill-opacity:1;" d="M 147.199219 321.015625 C 145.308594 314.15625 137.960938 311.144531 131.589844 310.445313 C 127.878906 309.746094 123.960938 311.144531 120.460938 309.953125 C 118.429688 308.765625 119.410156 306.246094 119.621094 304.425781 C 123.050781 299.175781 129.699219 303.304688 134.949219 302.535156 C 141.25 301.066406 141.039063 293.925781 144.820313 289.933594 C 146.007813 288.816406 147.621094 288.675781 149.019531 288.113281 C 149.371094 287.625 149.160156 286.785156 148.738281 286.574219 C 143 286.15625 142.648438 279.644531 139.988281 276.003906 C 137.609375 271.105469 132.078125 272.503906 127.878906 272.996094 C 125.359375 273.066406 122.070313 273.835938 120.320313 271.664063 C 119.550781 270.054688 118.988281 268.164063 119.480469 266.273438 C 119.96875 265.433594 120.808594 264.804688 121.648438 264.59375 C 130.960938 265.085938 140.96875 264.945313 146.21875 256.546875 C 151.960938 241.074219 150.628906 221.894531 149.859375 204.605469 C 149.71875 203.90625 148.949219 203.90625 148.390625 203.90625 C 141.949219 216.925781 137.609375 230.785156 129.070313 242.894531 C 119.828125 257.453125 101.140625 259.203125 93.929688 275.023438 C 93.230469 279.785156 94.769531 283.984375 97.78125 287.414063 C 95.46875 290.144531 94.140625 293.226563 93.582031 296.65625 C 93.929688 306.175781 104.078125 312.476563 111.21875 316.816406 C 133.269531 327.945313 138.660156 351.886719 148.390625 371.066406 C 148.949219 371.203125 149.578125 370.996094 149.71875 370.433594 C 150.910156 354.195313 151.539063 335.996094 147.199219 321.015625 Z M 148.039063 365.535156 C 140.828125 350.34375 136 332.703125 121.019531 320.664063 C 112.410156 314.15625 100.859375 310.234375 95.960938 299.523438 C 95.191406 295.253906 96.871094 291.613281 99.667969 288.605469 C 105.898438 287.695313 109.960938 292.035156 115.628906 292.664063 C 120.738281 293.714844 126.058594 292.59375 129.070313 288.464844 C 129.699219 287.835938 129.210938 286.925781 129.070313 286.226563 C 126.269531 282.445313 121.648438 281.886719 117.308594 282.023438 C 110.800781 282.023438 106.671875 287.554688 99.667969 286.226563 C 96.871094 283.355469 95.609375 279.644531 95.960938 275.65625 C 103.519531 260.046875 122.210938 258.855469 131.101563 243.734375 C 138.519531 233.023438 142.929688 220.984375 148.039063 209.296875 C 148.808594 224.90625 149.371094 241.636719 144.328125 255.496094 C 139.429688 263.683594 129.421875 262.214844 121.019531 262.566406 C 119.757813 262.914063 118.570313 263.753906 117.800781 264.945313 C 116.46875 267.675781 117.171875 271.246094 119.128906 273.484375 C 124.03125 277.613281 130.679688 273.34375 136.28125 275.023438 C 140.339844 278.59375 139.988281 284.195313 144.679688 287.414063 C 140.058594 290.84375 140.269531 296.726563 135.789063 300.226563 C 129.699219 301.484375 119.757813 296.164063 117.308594 304.703125 C 117.171875 306.804688 116.539063 309.464844 118.5 310.933594 C 122.070313 314.296875 127.53125 311.566406 132.078125 312.613281 C 137.1875 313.453125 143.210938 315.554688 145.03125 321.226563 C 149.019531 334.734375 148.53125 350.554688 148.039063 365.535156 Z M 107.371094 287.625 C 112.828125 284.894531 121.648438 281.886719 127.039063 287.273438 C 124.871094 290.355469 120.808594 290.984375 117.101563 290.636719 C 113.738281 289.933594 110.519531 288.816406 107.371094 287.625 "/>
<path style=" stroke:none;fill-rule:nonzero;fill:rgb(0%,0%,0%);fill-opacity:1;" d="M 62.5 527.304688 C 57.179688 522.683594 47.167969 524.644531 45.417969 516.035156 C 50.460938 513.933594 56.761719 514.773438 62.21875 513.375 C 63.410156 512.882813 64.460938 511.765625 64.738281 510.503906 C 65.582031 507.214844 64.460938 503.855469 62.21875 501.472656 C 57.179688 496.503906 51.648438 492.863281 45.417969 490.835938 C 41.148438 490.625 37.441406 494.824219 33.449219 492.234375 C 32.75 491.042969 31.769531 489.574219 32.609375 488.175781 C 36.738281 482.433594 44.441406 480.964844 47.238281 474.035156 C 47.800781 471.863281 47.730469 469.132813 46.539063 467.175781 C 44.089844 464.863281 41.847656 468.925781 38.980469 468.714844 C 25.539063 462.203125 21.621094 447.644531 11.261719 437.773438 C 9.441406 436.023438 7.550781 434.273438 5.238281 433.574219 C 3.558594 436.023438 2.582031 439.035156 2.582031 442.324219 C 5.941406 470.882813 13.988281 497.554688 29.25 521.285156 L 64.878906 568.113281 C 67.261719 570.632813 69.710938 573.503906 72.441406 575.394531 C 72.859375 575.253906 73.347656 574.972656 73.417969 574.554688 C 72.648438 560.0625 69.359375 546.695313 66.558594 533.042969 C 65.648438 530.945313 64.53125 528.914063 62.5 527.304688 Z M 66.210938 566.433594 L 31.28125 520.445313 C 15.878906 497.132813 8.25 470.535156 4.75 442.324219 C 4.679688 440.085938 5.378906 438.195313 6.082031 436.234375 C 19.449219 445.824219 22.320313 462.695313 37.300781 470.394531 C 39.960938 471.585938 42.550781 469.765625 44.859375 468.714844 C 46.332031 470.953125 45.210938 473.824219 43.878906 475.714844 C 39.539063 480.964844 32.050781 482.644531 30.089844 489.363281 C 30.371094 491.464844 31.28125 493.492188 33.308594 494.753906 C 38 496.714844 41.640625 492.445313 46.261719 493.214844 C 52.28125 496.222656 59.558594 499.652344 62.710938 506.515625 C 62.847656 508.125 63.269531 510.433594 61.519531 511.34375 C 55.5 512.882813 48.011719 511.414063 43.039063 515.195313 C 44.019531 528.703125 61.167969 522.542969 64.738281 534.234375 C 67.46875 546.414063 70.058594 558.664063 71.109375 571.472656 L 66.210938 566.433594 "/>
<path style=" stroke:none;fill-rule:nonzero;fill:rgb(0%,0%,0%);fill-opacity:1;" d="M 3.558594 370.785156 C 10.070313 358.113281 13.851563 344.253906 22.390625 332.425781 C 31.351563 317.515625 50.109375 316.183594 57.667969 300.363281 C 59 295.464844 57.039063 291.125 54.097656 287.625 C 57.039063 284.054688 58.929688 279.644531 57.808594 274.816406 C 53.960938 265.296875 43.738281 260.394531 35.832031 255.355469 C 17.417969 242.964844 12.378906 222.175781 3.699219 204.253906 C 3.140625 203.835938 2.441406 203.90625 2.019531 204.605469 L 1.179688 217.90625 C 1.25 231.34375 1.039063 245.34375 5.941406 257.035156 C 11.050781 264.453125 20.011719 265.296875 28.761719 264.59375 C 30.230469 264.59375 31.699219 264.945313 32.46875 266.414063 C 32.820313 267.886719 32.46875 269.425781 32.121094 270.824219 C 28.761719 275.796875 22.25 271.875 17.351563 272.503906 C 10.488281 273.765625 10.769531 281.535156 6.429688 285.59375 C 5.449219 286.574219 3.839844 286.15625 2.71875 286.785156 C 2.300781 287.34375 2.71875 287.976563 3.070313 288.464844 C 8.179688 288.253906 9.089844 294.34375 11.121094 297.703125 C 14.339844 306.175781 23.582031 300.363281 29.949219 302.046875 C 32.191406 303.234375 32.820313 305.683594 32.46875 308.273438 C 31.910156 309.183594 31.28125 310.234375 30.089844 310.304688 C 20.570313 310.023438 9.511719 309.886719 5.101563 319.546875 C 0.480469 334.804688 0.480469 353.144531 1.878906 369.945313 C 1.738281 370.855469 2.929688 371.136719 3.558594 370.785156 Z M 6.570313 321.363281 C 10.488281 311.355469 22.109375 312.476563 31.28125 312.125 C 32.960938 311.566406 34.640625 309.816406 34.640625 307.925781 C 34.847656 304.984375 33.941406 302.324219 31.628906 300.503906 C 26.449219 297.773438 20.851563 301.625 15.460938 299.875 C 11.75 296.234375 11.398438 290.984375 7.410156 287.625 C 11.75 284.195313 11.679688 278.523438 15.808594 275.023438 C 22.109375 273.273438 32.121094 279.363281 34.5 270.265625 C 35.128906 268.304688 34.78125 265.855469 33.449219 264.246094 C 32.050781 262.636719 29.949219 262.496094 27.917969 262.425781 C 20.359375 262.773438 12.308594 262.636719 7.761719 255.984375 C 2.441406 242.195313 3.140625 225.183594 3.910156 209.503906 C 11.191406 225.886719 16.582031 244.15625 32.820313 255.84375 C 40.800781 261.515625 51.511719 265.503906 55.78125 275.515625 C 56.480469 279.644531 55.082031 283.285156 52.417969 286.226563 L 46.890625 286.226563 C 40.308594 282.933594 30.511719 279.433594 23.859375 285.105469 C 23.230469 286.015625 21.96875 286.855469 22.53125 288.113281 C 25.398438 292.804688 31.488281 293.433594 36.460938 292.453125 C 42.199219 292.105469 45.839844 286.996094 52.417969 288.746094 C 55.148438 292.035156 57.109375 296.65625 55.148438 300.855469 C 47.097656 314.363281 31.351563 315.976563 22.390625 328.925781 C 13.640625 340.054688 9.300781 353.074219 3.699219 365.535156 C 2.929688 350.695313 2.582031 334.875 6.570313 321.363281 Z M 44.019531 287.414063 C 38.839844 289.726563 30.71875 292.875 25.398438 288.253906 C 25.050781 287.976563 24.699219 287.484375 25.050781 287.066406 C 30.230469 281.886719 38.558594 285.316406 44.019531 287.414063 "/>
</g>
</svg>
