<?xml version="1.0" encoding="UTF-8"?>
<svg xmlns="http://www.w3.org/2000/svg" xmlns:xlink="http://www.w3.org/1999/xlink" width="515pt" height="240pt" viewBox="0 0 515 240" version="1.1">
<g id="surface1">
<path style=" stroke:none;fill-rule:nonzero;fill:rgb(13.729858%,12.159729%,12.548828%);fill-opacity:1;" d="M 127.636719 115.765625 C 149.839844 108.953125 146.589844 99.824219 155.496094 94.585938 C 160.453125 91.558594 163.324219 96.125 160.179688 99.542969 C 148.261719 111.199219 140.679688 106.570313 128.253906 127.253906 C 127.738281 128.109375 128.027344 128.457031 128.675781 127.765625 C 143.398438 111.96875 150.230469 115.144531 162.65625 105.601563 C 167.890625 101.195313 169.539063 92.105469 176.9375 90.972656 C 184.960938 90.179688 185.234375 98.714844 180.28125 104.496094 C 176.148438 109.730469 162.167969 109.789063 153.441406 114.148438 C 147.328125 117.066406 141.703125 130.621094 127.679688 137.003906 C 126.839844 137.386719 126.773438 137.777344 127.589844 137.613281 C 147.9375 133.503906 151.695313 121.367188 157.496094 118.40625 C 162.363281 115.972656 165.808594 119.421875 161.957031 123.269531 C 154.898438 129.375 146.40625 128.839844 127.53125 145.132813 C 126.34375 146.15625 126.511719 146.480469 127.855469 145.640625 C 141.070313 137.355469 154.8125 136.480469 165.117188 128.382813 C 170.804688 124.5625 170.601563 114.316406 177.582031 112.878906 C 184.742188 111.777344 183.242188 122.863281 175.597656 127.628906 C 161.675781 136.910156 157.089844 131.589844 143.222656 147.835938 C 142.28125 148.9375 142.550781 149.394531 143.640625 148.515625 C 157.8125 137.078125 166.28125 141.699219 175.046875 136.164063 C 179.921875 133.523438 182.492188 129.707031 185.53125 128.851563 L 186.34375 37.429688 C 186.636719 14.855469 198.886719 3.699219 225.632813 1.421875 C 227.550781 1.257813 227.578125 0.863281 225.644531 0.875 C 196.675781 1.070313 179.101563 18.054688 171.972656 36.597656 C 168.207031 46.285156 168.40625 49.09375 166.695313 53.082031 C 155.933594 76.800781 146.566406 80.71875 129.066406 93.996094 C 128.34375 94.546875 128.550781 95.054688 129.472656 94.695313 C 141.910156 89.828125 163.507813 79.316406 171.742188 59.617188 C 175.839844 50.769531 181.382813 60.441406 180.554688 66.773438 C 178.902344 84.121094 160.730469 85.773438 151.644531 89.628906 C 140.011719 94.652344 147.140625 104.972656 126.734375 115.476563 C 125.886719 115.910156 126.507813 116.109375 127.636719 115.765625 "/>
<path style=" stroke:none;fill-rule:nonzero;fill:rgb(13.729858%,12.159729%,12.548828%);fill-opacity:1;" d="M 513.496094 225.535156 C 492.78125 219.429688 463.789063 225.503906 457.113281 225.902344 C 450.828125 225.988281 448.628906 220.386719 456.550781 219.398438 C 473.320313 218.324219 481.3125 225.269531 499.238281 216.445313 C 500.203125 215.964844 499.457031 215.4375 498.179688 215.65625 C 477.011719 219.28125 474.980469 211.621094 456.976563 214.023438 C 447.214844 215.578125 437.316406 221.519531 427.132813 220.808594 C 421.617188 220.101563 421.476563 215.292969 426.710938 214.304688 C 435.746094 212.996094 455.046875 216.71875 463.980469 207.941406 C 464.511719 207.421875 464.363281 206.78125 463.824219 207.023438 C 450.058594 213.160156 439.382813 207.703125 427.132813 208.789063 C 416.242188 209.636719 408.054688 218.414063 398.902344 212.28125 C 395.171875 210.0625 395.171875 203.980469 398.5625 202.425781 C 405.890625 198.691406 417.515625 207.375 428.867188 205.933594 C 443.242188 204.476563 457.117188 195.789063 482.363281 199.265625 C 483.628906 199.4375 483.910156 198.925781 482.742188 198.519531 C 460.535156 190.757813 439.449219 199.285156 425.925781 199.457031 C 421.347656 199.566406 419.964844 193.058594 425.183594 192.566406 C 437.359375 191.265625 459.839844 198.492188 474.136719 188.601563 C 474.898438 188.074219 474.324219 187.667969 473.316406 187.992188 C 456.726563 193.3125 440.753906 185.265625 425.761719 187.359375 C 417.890625 188.234375 410.535156 195.070313 400.105469 193.46875 C 396.082031 192.371094 394.9375 186.265625 398.972656 183.894531 C 403.914063 180.769531 407.261719 180.617188 416.125 182.347656 C 429.4375 184.480469 442.785156 175.003906 459.234375 179.535156 C 460.648438 179.925781 460.660156 179.375 459.238281 178.722656 C 442.046875 170.816406 427.03125 179.226563 418.105469 177.382813 C 413.3125 176.355469 411.390625 170.28125 418.09375 169.492188 C 425.082031 168.644531 429.289063 172.824219 440.335938 171.726563 C 452.992188 170.464844 475.984375 164.578125 492.617188 168.496094 C 493.726563 168.757813 494.058594 168.324219 493.144531 167.84375 C 475.089844 158.378906 452.679688 165.71875 439.820313 165.558594 C 434.039063 166.203125 432.640625 160.375 439.308594 159.519531 C 455.433594 157.953125 460.34375 164.855469 479.695313 156.171875 C 481.484375 155.371094 481.585938 154.753906 479.804688 155.253906 C 462.421875 160.101563 453.84375 152.742188 438.75 153.792969 C 427.578125 154.574219 417.460938 163.761719 400.238281 164.144531 C 392.269531 164.144531 389.53125 157.675781 401.265625 157.078125 C 416.023438 156.320313 424.65625 158.636719 441.519531 148.460938 C 442.511719 147.863281 442.269531 147.429688 441.101563 147.816406 C 426.28125 152.722656 410.21875 151.410156 399.855469 151.292969 C 389.988281 150.589844 387.027344 157.632813 366.996094 155.574219 C 365.84375 155.453125 365.617188 155.648438 366.703125 155.988281 C 379.289063 159.96875 387.828125 171.246094 388.09375 191.621094 C 388.351563 209.867188 379.578125 230.054688 364.511719 234.53125 C 363.175781 234.925781 363.484375 234.992188 364.980469 234.898438 C 382.65625 233.796875 393.554688 239.75 403.015625 239.628906 C 420.371094 239.628906 433.097656 234.949219 451.828125 239.058594 C 452.652344 239.234375 451.984375 238.273438 451.984375 238.273438 C 433.441406 228.101563 417.675781 235.585938 404.644531 233.820313 C 399.980469 232.972656 400.96875 227.457031 406.203125 226.46875 C 420.867188 223.773438 441.84375 233.113281 456.976563 232.84375 C 472.46875 232.164063 490.484375 223.800781 513.054688 226.210938 C 514.378906 226.351563 514.722656 225.894531 513.496094 225.535156 "/>
<path style=" stroke:none;fill-rule:nonzero;fill:rgb(13.729858%,12.159729%,12.548828%);fill-opacity:1;" d="M 149.234375 234.417969 C 134.546875 229.585938 126.015625 209.695313 126.273438 191.703125 C 126.535156 171.167969 135.207031 159.875 147.953125 155.980469 C 148.945313 155.675781 148.636719 155.519531 147.53125 155.636719 C 127.351563 157.753906 124.402344 150.667969 114.511719 151.375 C 104.402344 151.488281 88.875 152.738281 74.363281 148.25 C 72.824219 147.773438 72.386719 148.28125 73.621094 149.003906 C 89.972656 158.644531 98.570313 156.414063 113.097656 157.15625 C 124.832031 157.757813 122.09375 164.222656 114.125 164.222656 C 96.902344 163.839844 86.78125 154.65625 75.613281 153.875 C 60.496094 152.820313 51.921875 160.210938 34.484375 155.308594 C 32.726563 154.816406 32.328125 155.175781 33.886719 155.894531 C 53.894531 165.121094 58.714844 158.011719 75.054688 159.597656 C 81.726563 160.453125 80.324219 166.28125 74.542969 165.640625 C 61.753906 165.800781 39.527344 158.539063 21.523438 167.769531 C 20.507813 168.289063 20.640625 168.835938 21.75 168.578125 C 38.382813 164.65625 61.371094 170.542969 74.027344 171.808594 C 85.074219 172.902344 89.28125 168.722656 96.273438 169.574219 C 102.976563 170.363281 101.050781 176.433594 96.261719 177.464844 C 87.285156 179.316406 72.164063 170.808594 54.863281 178.925781 C 53.53125 179.550781 53.667969 180.023438 55.054688 179.636719 C 71.535156 175.054688 84.90625 184.5625 98.238281 182.429688 C 107.105469 180.695313 110.449219 180.847656 115.390625 183.972656 C 119.429688 186.34375 118.28125 192.453125 114.261719 193.550781 C 103.828125 195.148438 96.472656 188.316406 88.601563 187.441406 C 73.609375 185.34375 57.640625 193.394531 41.054688 188.074219 C 40.046875 187.75 39.433594 188.125 40.179688 188.644531 C 54.472656 198.59375 76.988281 191.34375 89.179688 192.644531 C 94.398438 193.140625 93.019531 199.648438 88.4375 199.535156 C 74.953125 199.363281 53.949219 190.886719 31.8125 198.535156 C 30.585938 198.957031 30.777344 199.511719 32.0625 199.335938 C 57.265625 195.882813 71.132813 204.558594 85.496094 206.015625 C 96.847656 207.457031 108.472656 198.773438 115.800781 202.507813 C 119.191406 204.058594 119.191406 210.144531 115.460938 212.363281 C 106.308594 218.492188 98.121094 209.71875 87.230469 208.867188 C 75.09375 207.789063 64.5 213.140625 50.917969 207.265625 C 50.257813 206.976563 50.140625 207.820313 50.847656 208.457031 C 59.964844 216.675781 78.773438 213.097656 87.65625 214.386719 C 92.886719 215.375 92.746094 220.183594 87.230469 220.890625 C 77.046875 221.597656 67.148438 215.65625 57.390625 214.101563 C 39.207031 211.675781 37.320313 219.523438 15.53125 215.621094 C 14.453125 215.425781 14.199219 216.066406 15.183594 216.546875 C 33.074219 225.339844 41.0625 218.40625 57.8125 219.476563 C 65.734375 220.46875 63.535156 226.070313 57.246094 225.980469 C 50.71875 225.589844 22.816406 219.765625 2.210938 225.238281 C 0.515625 225.691406 0.5625 226.355469 2.164063 226.207031 C 24.335938 224.089844 42.09375 232.253906 57.386719 232.921875 C 72.523438 233.195313 93.492188 223.851563 108.160156 226.546875 C 113.394531 227.535156 114.386719 233.050781 109.71875 233.902344 C 96.800781 235.652344 81.195313 228.3125 62.863281 238.09375 C 62.863281 238.09375 62.480469 239.140625 63.671875 238.894531 C 81.789063 235.21875 94.34375 239.710938 111.351563 239.710938 C 120.761719 239.828125 131.589844 233.9375 149.101563 234.960938 C 150.683594 235.054688 150.761719 234.917969 149.234375 234.417969 "/>
<path style=" stroke:none;fill-rule:nonzero;fill:rgb(13.729858%,12.159729%,12.548828%);fill-opacity:1;" d="M 328.679688 38.230469 L 329.496094 129.648438 C 332.535156 130.507813 335.105469 134.324219 339.980469 136.964844 C 348.90625 142.601563 357.527344 137.699219 372.183594 149.96875 C 373.023438 150.671875 373.4375 150.589844 372.804688 149.824219 C 358.144531 132.128906 353.679688 137.933594 339.425781 128.429688 C 331.78125 123.664063 330.28125 112.574219 337.441406 113.675781 C 344.425781 115.117188 344.222656 125.363281 349.910156 129.183594 C 360.273438 137.324219 374.109375 138.167969 387.394531 146.582031 C 388.660156 147.382813 388.964844 147.207031 387.90625 146.285156 C 368.738281 129.632813 360.175781 130.21875 353.066406 124.070313 C 349.214844 120.21875 352.664063 116.773438 357.527344 119.207031 C 363.273438 122.140625 367.015625 134.074219 386.859375 138.296875 C 387.855469 138.507813 388.175781 138.183594 387.328125 137.796875 C 373.316406 131.410156 367.695313 117.863281 361.582031 114.949219 C 352.859375 110.589844 338.878906 110.53125 334.746094 105.300781 C 329.789063 99.515625 330.066406 90.980469 338.089844 91.773438 C 345.484375 92.90625 347.136719 101.996094 352.367188 106.398438 C 364.792969 115.945313 371.625 112.769531 386.347656 128.558594 C 386.996094 129.257813 387.253906 128.859375 386.726563 127.976563 C 374.328125 107.382813 366.746094 111.984375 354.847656 100.34375 C 351.699219 96.925781 354.570313 92.355469 359.527344 95.386719 C 368.300781 100.546875 365.285156 109.472656 386.382813 116.246094 C 387.800781 116.703125 387.875 116.082031 386.53125 115.332031 C 368.292969 105.15625 374.667969 95.300781 363.382813 90.429688 C 354.296875 86.574219 336.121094 84.921875 334.472656 67.574219 C 333.644531 61.242188 339.1875 51.570313 343.28125 60.414063 C 351.519531 80.117188 373.113281 90.628906 385.550781 95.492188 C 386.476563 95.855469 386.730469 95.382813 386.03125 94.851563 C 368.484375 81.527344 359.109375 77.636719 348.328125 53.882813 C 346.617188 49.890625 346.816406 47.085938 343.054688 37.398438 C 335.808594 18.554688 317.777344 1.320313 287.960938 1.679688 C 286.476563 1.695313 286.054688 1.980469 287.324219 2.0625 C 315.507813 3.9375 328.382813 15.085938 328.679688 38.230469 "/>
<path style=" stroke:none;fill-rule:nonzero;fill:rgb(13.729858%,12.159729%,12.548828%);fill-opacity:1;" d="M 362.953125 159.683594 C 354.789063 156.527344 327.402344 157.664063 321.648438 157.773438 C 321.699219 120.238281 321.105469 72.839844 321.105469 39.605469 C 320.734375 7.222656 294.945313 6.195313 257.390625 5.8125 C 219.835938 6.195313 193.914063 7.300781 193.550781 39.679688 C 193.550781 72.914063 192.300781 119.78125 193.003906 157.847656 C 184.542969 157.894531 158.753906 156.753906 151.699219 159.761719 C 121.359375 169.945313 130.089844 236.625 164.28125 233.890625 C 227.671875 232.925781 285.152344 233.769531 350.371094 233.8125 C 384.5625 236.550781 393.292969 169.867188 362.953125 159.683594 Z M 352.398438 230.863281 L 231.101563 230.394531 L 231.097656 230.394531 C 206.695313 230.394531 162.84375 230.9375 162.253906 230.9375 C 154.550781 230.9375 148.222656 227.066406 143.273438 219.324219 C 140.996094 215.761719 139.242188 211.664063 138.003906 207.035156 C 136.78125 202.472656 136.171875 197.808594 136.171875 193.035156 C 136.171875 185.644531 137.566406 179.238281 140.351563 173.824219 C 143.277344 168.140625 147.382813 164.410156 152.664063 162.640625 L 152.777344 162.597656 L 152.890625 162.550781 C 155.773438 161.324219 163.347656 160.707031 175.609375 160.707031 L 196.09375 160.910156 L 196.035156 157.789063 C 195.894531 150.070313 195.824219 141.394531 195.824219 131.765625 C 195.824219 120.601563 195.960938 103.710938 196.234375 81.097656 C 196.46875 61.714844 196.585938 47.914063 196.585938 39.695313 C 196.667969 32.476563 198.117188 26.726563 200.933594 22.449219 C 203.480469 18.574219 207.378906 15.617188 212.625 13.574219 C 217.421875 11.703125 223.839844 10.425781 231.882813 9.734375 C 237.40625 9.257813 245.910156 8.960938 257.390625 8.84375 C 268.898438 8.960938 277.394531 9.253906 282.878906 9.722656 C 290.910156 10.40625 297.316406 11.679688 302.09375 13.535156 C 307.320313 15.570313 311.203125 18.519531 313.738281 22.382813 C 316.542969 26.652344 317.984375 32.402344 318.070313 39.628906 L 318.328125 92.578125 C 318.523438 120.394531 318.617188 140.640625 318.617188 153.324219 L 318.613281 160.882813 L 324.285156 160.742188 C 329.800781 160.59375 334.371094 160.519531 338.003906 160.519531 C 350.46875 160.519531 358.421875 161.183594 361.859375 162.515625 L 361.921875 162.539063 L 361.988281 162.5625 C 367.273438 164.335938 371.378906 168.066406 374.300781 173.746094 C 377.085938 179.160156 378.480469 185.566406 378.480469 192.960938 C 378.480469 197.730469 377.871094 202.398438 376.648438 206.957031 C 375.410156 211.589844 373.652344 215.6875 371.378906 219.246094 C 366.429688 226.988281 360.105469 230.863281 352.398438 230.863281 "/>
</g>
</svg>
