<?xml version="1.0" encoding="UTF-8"?>
<svg xmlns="http://www.w3.org/2000/svg" xmlns:xlink="http://www.w3.org/1999/xlink" width="437pt" height="684pt" viewBox="0 0 437 684" version="1.1">
<g id="surface1">
<path style=" stroke:none;fill-rule:nonzero;fill:rgb(13.729858%,12.159729%,12.548828%);fill-opacity:1;" d="M 37.046875 420.0625 C 37.046875 420.0625 36.621094 418.324219 36.171875 419.855469 C 21.675781 469.285156 -2.492188 517.195313 1.332031 579.253906 C 8.070313 623.839844 61.300781 625.101563 64.828125 576.609375 C 66.5625 536.714844 28.914063 515.101563 37.046875 420.0625 "/>
<path style=" stroke:none;fill-rule:nonzero;fill:rgb(13.729858%,12.159729%,12.548828%);fill-opacity:1;" d="M 76.640625 350.742188 C 66.136719 280.078125 66.886719 204.304688 96.160156 127.226563 C 96.160156 127.226563 96.226563 126.292969 95.785156 127.058594 C 67.496094 176.074219 18.515625 277.761719 11.390625 357.558594 C 10.417969 417.941406 84.433594 412.097656 76.640625 350.742188 "/>
<path style=" stroke:none;fill-rule:nonzero;fill:rgb(13.729858%,12.159729%,12.548828%);fill-opacity:1;" d="M 364.507813 349.351563 C 356.714844 410.707031 430.730469 416.550781 429.757813 356.171875 C 422.871094 279.046875 376.886719 181.472656 348.273438 130.769531 C 346.820313 128.191406 347.066406 131.441406 347.066406 131.441406 C 374.292969 206.585938 374.757813 280.402344 364.507813 349.351563 "/>
<path style=" stroke:none;fill-rule:nonzero;fill:rgb(13.729858%,12.159729%,12.548828%);fill-opacity:1;" d="M 138.289063 543.066406 C 138.289063 543.066406 137.746094 540.410156 137.410156 543.421875 C 131.65625 594.664063 111.449219 614.542969 112.351563 645.125 C 111.859375 686.328125 167.421875 690.476563 162.792969 640.035156 C 161.921875 618.714844 139.777344 589.214844 138.289063 543.066406 "/>
<path style=" stroke:none;fill-rule:nonzero;fill:rgb(13.729858%,12.159729%,12.548828%);fill-opacity:1;" d="M 400.828125 418.632813 C 400.492188 417.472656 400.183594 418.832031 400.183594 418.832031 C 408.707031 514.816406 370.757813 536.441406 372.496094 576.492188 C 376.023438 624.984375 429.257813 623.722656 435.992188 579.140625 C 439.847656 516.617188 415.285156 468.453125 400.828125 418.632813 "/>
<path style=" stroke:none;fill-rule:nonzero;fill:rgb(13.729858%,12.159729%,12.548828%);fill-opacity:1;" d="M 352.242188 295.339844 C 357.132813 239.089844 349.03125 161.402344 336.902344 132.695313 C 318.300781 71.195313 284.574219 0.867188 220.414063 -0.28125 C 156.253906 0.867188 122.269531 71.195313 103.664063 132.695313 C 91.535156 161.402344 83.4375 239.089844 88.328125 295.339844 C 91.316406 329.726563 108.019531 357.769531 102.765625 392.382813 C 96.964844 430.582031 70.335938 453.511719 69.5 513 C 71.175781 559.082031 129.824219 551.539063 124.417969 499.855469 C 119.769531 462.730469 109.179688 440.503906 115.597656 397.996094 C 118.804688 374.738281 144.226563 387.621094 146.539063 403.242188 C 150.59375 429.859375 129.171875 436.441406 127.3125 466.078125 C 124.417969 496.171875 158.734375 488.175781 157.472656 467.757813 C 156.316406 458.496094 153.242188 436.085938 157.535156 422.339844 C 163.078125 406.574219 177.210938 413.65625 178.367188 423.496094 C 178.945313 439.695313 176.617188 447.226563 173.738281 459.371094 C 170.089844 474.746094 155.09375 498.605469 155.796875 518.863281 C 155.09375 548.945313 196.074219 550.75 194.339844 517.1875 C 193.761719 499.253906 185.3125 473.257813 190.101563 454.453125 C 195.144531 435.066406 214.820313 432.175781 212.117188 455.730469 C 213.273438 538.1875 170.8125 569.476563 183.476563 647.695313 C 193.90625 695.371094 244.5625 695.371094 255.734375 648.441406 C 269.746094 564.636719 225.9375 537.441406 228.453125 455.730469 C 225.746094 432.175781 245.421875 435.066406 250.46875 454.453125 C 255.261719 473.257813 246.808594 499.253906 246.230469 517.1875 C 244.492188 550.75 285.480469 548.945313 284.769531 518.863281 C 285.480469 498.605469 270.480469 474.746094 266.832031 459.371094 C 263.949219 447.226563 261.625 439.695313 262.203125 423.496094 C 263.359375 413.65625 277.488281 406.574219 283.03125 422.339844 C 287.324219 436.085938 284.253906 458.496094 283.097656 467.757813 C 281.835938 488.175781 316.152344 496.171875 313.261719 466.078125 C 311.398438 436.441406 289.976563 429.859375 294.027344 403.242188 C 296.34375 387.621094 321.765625 374.738281 324.972656 397.996094 C 331.390625 440.503906 320.800781 462.730469 316.148438 499.855469 C 310.746094 551.539063 369.394531 559.082031 371.070313 513 C 370.230469 453.511719 343.605469 430.582031 337.804688 392.382813 C 332.550781 357.769531 349.253906 329.726563 352.242188 295.339844 Z M 220.574219 426.960938 C 153.765625 426.960938 99.605469 332.496094 99.605469 215.96875 C 99.605469 99.457031 153.765625 4.992188 220.574219 4.992188 C 287.382813 4.992188 341.539063 99.457031 341.539063 215.96875 C 341.539063 338.527344 287.382813 426.960938 220.574219 426.960938 "/>
<path style=" stroke:none;fill-rule:nonzero;fill:rgb(13.729858%,12.159729%,12.548828%);fill-opacity:1;" d="M 299.042969 542.71875 C 297.621094 588.996094 275.402344 618.5625 274.53125 639.917969 C 269.902344 690.359375 325.464844 686.210938 324.976563 645.011719 C 325.878906 614.316406 305.519531 594.40625 299.855469 542.746094 C 299.542969 539.910156 299.042969 542.71875 299.042969 542.71875 "/>
<path style=" stroke:none;fill-rule:nonzero;fill:rgb(13.729858%,12.159729%,12.548828%);fill-opacity:1;" d="M 327.53125 134.234375 C 321.515625 109.421875 313.03125 87.46875 302.089844 68.382813 C 291.253906 49.480469 278.855469 34.882813 264.90625 24.589844 C 250.742188 14.140625 235.964844 8.914063 220.574219 8.914063 C 205.183594 8.914063 190.40625 14.140625 176.238281 24.589844 C 162.289063 34.882813 149.898438 49.480469 139.058594 68.382813 C 128.117188 87.46875 119.636719 109.421875 113.617188 134.234375 C 107.367188 160 104.242188 187.011719 104.242188 215.257813 C 104.242188 243.507813 107.367188 270.519531 113.617188 296.292969 C 119.636719 321.109375 128.117188 343.0625 139.058594 362.144531 C 149.898438 381.050781 162.289063 395.648438 176.238281 405.9375 C 190.40625 416.390625 205.183594 421.613281 220.574219 421.613281 C 235.964844 421.613281 250.742188 416.390625 264.90625 405.9375 C 278.855469 395.648438 291.253906 381.050781 302.089844 362.144531 C 313.03125 343.0625 321.515625 321.109375 327.53125 296.292969 C 333.78125 270.519531 336.90625 243.507813 336.90625 215.257813 C 336.90625 187.011719 333.78125 160 327.53125 134.234375 "/>
</g>
</svg>
