<?xml version="1.0" encoding="UTF-8"?>
<svg xmlns="http://www.w3.org/2000/svg" xmlns:xlink="http://www.w3.org/1999/xlink" width="524pt" height="134pt" viewBox="0 0 524 134" version="1.1">
<g id="surface1">
<path style=" stroke:none;fill-rule:nonzero;fill:rgb(13.729858%,12.159729%,12.548828%);fill-opacity:1;" d="M 183.0625 122.429688 C 168.96875 118.578125 160.535156 111.726563 153.71875 104.066406 C 141.121094 88.238281 138.835938 72.285156 140.304688 58.957031 C 142.023438 46.910156 147.078125 37.40625 151.835938 31.011719 C 164.371094 16.261719 176.902344 11.050781 189.183594 9.316406 C 206.167969 6.691406 219.472656 12.300781 225.925781 15.910156 C 228.527344 17.371094 227.929688 16.503906 226.550781 15.523438 C 216.886719 8.671875 199.347656 4.769531 185.847656 5.097656 C 174.882813 4.863281 161.078125 8.855469 140.414063 3.464844 C 127.414063 0.714844 112.113281 7.089844 92.820313 1.449219 C 91.324219 1.011719 90.8125 1.421875 92.050781 2.078125 C 110.183594 11.671875 123.628906 7.992188 139.0625 10.652344 C 146.453125 11.851563 146.988281 18.816406 137.71875 18.738281 C 130.007813 18.617188 107.953125 10.007813 96.167969 9.40625 C 79.226563 8.636719 74.902344 15.101563 45.824219 10.566406 C 44.730469 10.394531 44.839844 11.253906 46.101563 11.78125 C 63.6875 19.144531 88.632813 14.824219 95.9375 16.113281 C 101.757813 17.398438 100.761719 23.589844 95.765625 23.789063 C 79.988281 24.390625 77.191406 19.394531 61.609375 18.195313 C 46.207031 16.96875 34.441406 22.683594 12.519531 18.96875 C 11.210938 18.746094 10.550781 19.234375 11.613281 19.695313 C 30.519531 27.871094 53.835938 23.453125 61.210938 24.589844 C 67.734375 25.40625 68.851563 31.964844 60.011719 31.578125 C 51.308594 30.820313 25.171875 24.039063 1.957031 29.191406 C 0.738281 29.460938 1.210938 29.980469 2.605469 29.960938 C 26.238281 29.628906 41.226563 36.828125 58.015625 37.773438 C 77.589844 38.171875 97.5625 26.585938 112.144531 28.183594 C 120.617188 28.964844 121.734375 36.847656 112.347656 37.171875 C 100.773438 37.570313 82.484375 32.375 70.011719 39.882813 C 69.050781 40.457031 68.824219 41.46875 69.605469 41.308594 C 85.480469 38.117188 98.691406 43.535156 113.335938 44.324219 C 119.605469 44.660156 126.105469 39.632813 132.921875 41.765625 C 138.09375 43.226563 139.472656 51.820313 132.070313 53.054688 C 121.992188 53.878906 115.355469 49.4375 102.246094 48.734375 C 89.375 48.046875 77.363281 51.152344 58.5625 48.707031 C 57.34375 48.546875 57.238281 49.132813 58.410156 49.5625 C 79.457031 57.285156 92.390625 53.136719 102.039063 54.082031 C 109.316406 54.847656 109.757813 62.890625 102.152344 62.769531 C 85.492188 63.386719 80.375 57.277344 58.003906 56.878906 C 42.710938 56.3125 23.476563 63.578125 2.773438 58.746094 C 1.574219 58.46875 1.164063 58.972656 2.191406 59.496094 C 22.425781 69.753906 50.523438 61.519531 60.9375 63.148438 C 66.902344 64.085938 66.28125 70.808594 60.9375 71.648438 C 50.628906 73.261719 20.945313 64.921875 2.109375 73.398438 C 0.953125 73.917969 1.292969 74.441406 2.554688 74.160156 C 23.394531 69.519531 43.355469 78.382813 58.609375 77.816406 C 80.984375 77.417969 84.828125 71.136719 101.488281 71.753906 C 109.09375 71.632813 108.683594 79.523438 101.40625 80.289063 C 91.785156 81.234375 78.894531 77.113281 57.953125 84.746094 C 56.726563 85.195313 56.527344 85.851563 57.660156 85.703125 C 76.617188 83.195313 88.683594 86.332031 101.613281 85.640625 C 114.722656 84.9375 121.359375 80.496094 131.4375 81.320313 C 138.84375 82.554688 137.460938 91.148438 132.289063 92.605469 C 125.476563 94.742188 118.972656 89.714844 112.703125 90.050781 C 98.324219 90.824219 85.328125 96.0625 69.835938 93.230469 C 68.773438 93.035156 67.988281 93.605469 68.714844 94.078125 C 81.191406 102.1875 99.9375 96.796875 111.714844 97.203125 C 121.101563 97.523438 119.984375 105.40625 111.515625 106.191406 C 96.933594 107.789063 76.957031 96.203125 57.382813 96.601563 C 40.460938 97.554688 25.375 104.859375 1.417969 104.40625 C 0.203125 104.382813 -0.0703125 104.871094 1.058594 105.125 C 24.339844 110.386719 50.640625 103.558594 59.378906 102.792969 C 68.21875 102.410156 67.101563 108.96875 60.578125 109.785156 C 53.316406 110.902344 30.597656 106.636719 11.851563 114.3125 C 10.492188 114.871094 10.378906 115.667969 11.597656 115.457031 C 33.703125 111.640625 45.507813 117.410156 60.976563 116.179688 C 76.558594 114.980469 79.355469 109.984375 95.132813 110.585938 C 100.128906 110.785156 101.128906 116.976563 95.304688 118.261719 C 88.007813 119.546875 63.109375 115.238281 45.527344 122.570313 C 44.242188 123.105469 44.460938 123.917969 45.71875 123.726563 C 74.324219 119.351563 78.695313 125.734375 95.535156 124.96875 C 107.320313 124.367188 129.378906 115.757813 137.085938 115.632813 C 146.355469 115.554688 145.824219 122.523438 138.433594 123.722656 C 122.992188 126.382813 109.539063 122.703125 91.398438 132.3125 C 90.164063 132.964844 90.214844 133.523438 91.484375 133.136719 C 111.109375 127.128906 126.625 133.691406 139.78125 130.910156 C 160.445313 125.519531 174.25 129.511719 185.214844 129.277344 C 197.398438 128.941406 212.035156 125.480469 223.703125 119.179688 C 225.621094 118.148438 225.238281 117.984375 223.242188 118.875 C 209.273438 125.117188 194.824219 125.726563 183.0625 122.429688 "/>
<path style=" stroke:none;fill-rule:nonzero;fill:rgb(13.729858%,12.159729%,12.548828%);fill-opacity:1;" d="M 378.570313 65.367188 C 378.570313 35.058594 354.003906 10.488281 323.695313 10.488281 C 311.328125 10.488281 300.601563 14.070313 292.269531 20.585938 C 287.050781 18.144531 275.988281 13.5625 262.78125 13.5625 C 246.945313 13.5625 234.941406 18.558594 231.839844 21.796875 C 222.597656 15.433594 212.539063 11.597656 200.441406 11.597656 C 170.132813 11.597656 145.566406 36.167969 145.566406 66.472656 C 145.566406 96.78125 170.132813 121.351563 200.441406 121.351563 C 213.496094 121.351563 224.78125 117.375 234.199219 109.761719 C 238.386719 112.636719 248.078125 117.433594 262.78125 117.433594 C 275.691406 117.433594 287.527344 113.3125 292.898438 110.960938 C 301.835938 117.273438 311.925781 120.242188 323.695313 120.242188 C 354.003906 120.242188 378.570313 95.671875 378.570313 65.367188 "/>
<path style=" stroke:none;fill-rule:nonzero;fill:rgb(13.729858%,12.159729%,12.548828%);fill-opacity:1;" d="M 521.832031 102.972656 C 498.828125 103.074219 484.050781 96.082031 467.523438 95.152344 C 447.949219 94.753906 427.972656 106.339844 413.390625 104.738281 C 404.921875 103.957031 403.804688 96.074219 413.191406 95.75 C 424.949219 95.347656 443.652344 100.71875 456.132813 92.664063 C 456.878906 92.183594 456.355469 91.535156 455.398438 91.71875 C 439.761719 94.683594 426.683594 89.378906 412.203125 88.601563 C 405.933594 88.261719 399.429688 93.292969 392.617188 91.15625 C 387.445313 89.695313 386.0625 81.101563 393.46875 79.867188 C 403.550781 79.046875 410.183594 83.488281 423.292969 84.1875 C 435.792969 84.855469 447.488281 81.949219 465.378906 84.019531 C 467.101563 84.21875 467.613281 83.527344 466.125 83 C 445.667969 75.773438 432.992188 79.773438 423.5 78.839844 C 416.222656 78.074219 415.8125 70.179688 423.421875 70.304688 C 440.078125 69.6875 443.925781 75.96875 466.296875 76.367188 C 481.429688 76.925781 501.195313 68.207031 521.859375 72.601563 C 523.28125 72.90625 523.777344 72.375 522.519531 71.824219 C 503.675781 63.550781 474.230469 71.804688 463.96875 70.195313 C 458.625 69.359375 458.007813 62.632813 463.96875 61.699219 C 474.253906 60.089844 501.78125 68.097656 521.953125 58.421875 C 523.246094 57.800781 523.148438 57.066406 521.859375 57.359375 C 501.261719 62.066406 482.128906 54.863281 466.902344 55.425781 C 444.527344 55.828125 439.414063 61.933594 422.753906 61.320313 C 415.144531 61.441406 415.589844 53.398438 422.867188 52.632813 C 432.429688 51.695313 445.21875 55.757813 465.929688 48.316406 C 467.277344 47.832031 467.527344 47.101563 466.289063 47.261719 C 447.519531 49.695313 435.519531 46.597656 422.660156 47.285156 C 409.550781 47.984375 402.914063 52.425781 392.835938 51.601563 C 385.433594 50.371094 386.8125 41.777344 391.984375 40.316406 C 398.800781 38.179688 405.300781 43.210938 411.570313 42.871094 C 426.105469 42.089844 439.230469 36.746094 454.945313 39.789063 C 455.84375 39.964844 455.847656 39 454.882813 38.421875 C 442.410156 30.929688 424.125 36.121094 412.5625 35.722656 C 403.175781 35.398438 404.289063 27.515625 412.761719 26.734375 C 427.339844 25.132813 447.316406 36.71875 466.894531 36.320313 C 483.453125 35.390625 498.265625 28.367188 521.355469 28.5 C 523.050781 28.507813 523.75 27.90625 522.324219 27.601563 C 499.265625 22.710938 473.519531 29.375 464.894531 30.128906 C 456.054688 30.515625 457.171875 23.957031 463.695313 23.136719 C 470.945313 22.023438 493.589844 26.269531 512.3125 18.652344 C 513.710938 18.085938 513.167969 17.394531 511.617188 17.644531 C 490.1875 21.097656 478.515625 15.53125 463.296875 16.746094 C 447.714844 17.941406 444.921875 22.9375 429.140625 22.339844 C 424.144531 22.136719 423.144531 15.945313 428.96875 14.660156 C 436.289063 13.371094 461.332031 17.714844 478.925781 10.277344 C 480.144531 9.761719 479.773438 9.011719 478.5 9.203125 C 449.945313 13.566406 445.566406 7.191406 428.738281 7.953125 C 416.953125 8.554688 394.894531 17.167969 387.1875 17.289063 C 377.917969 17.367188 378.449219 10.402344 385.84375 9.203125 C 401.089844 6.574219 414.394531 10.128906 432.195313 0.96875 C 433.648438 0.222656 433.4375 -0.390625 431.871094 0.0625 C 412.679688 5.589844 397.441406 -0.726563 384.492188 2.015625 C 363.828125 7.40625 350.023438 3.414063 339.0625 3.648438 C 325.238281 3.3125 307.1875 7.40625 297.683594 14.5625 C 296.574219 15.398438 296.355469 15.960938 298.921875 14.539063 C 305.378906 10.972656 318.808594 5.371094 335.867188 8.007813 C 348.152344 9.742188 360.535156 14.8125 373.070313 29.5625 C 377.824219 35.953125 383.152344 45.542969 384.871094 57.589844 C 386.34375 70.914063 384.03125 86.996094 371.433594 102.824219 C 364.617188 110.484375 355.945313 117.410156 341.851563 121.261719 C 328.410156 125.03125 299.144531 117.5 300.980469 118.46875 C 301.113281 118.539063 301.242188 118.609375 301.378906 118.675781 C 313.019531 124.726563 327.566406 127.492188 339.691406 127.824219 C 350.65625 128.058594 364.460938 124.066406 385.125 129.457031 C 397.894531 132.160156 412.886719 126.054688 431.703125 131.1875 C 433.523438 131.683594 434.300781 131.261719 432.859375 130.519531 C 415.046875 121.335938 401.730469 124.898438 386.476563 122.269531 C 379.082031 121.070313 378.550781 114.105469 387.820313 114.183594 C 395.527344 114.304688 417.585938 122.917969 429.371094 123.515625 C 446.152344 124.28125 450.554688 117.941406 478.898438 122.230469 C 480.242188 122.4375 480.675781 121.660156 479.394531 121.125 C 461.8125 113.785156 436.902344 118.097656 429.601563 116.808594 C 423.777344 115.527344 424.777344 109.335938 429.769531 109.136719 C 445.550781 108.535156 448.347656 113.53125 463.929688 114.726563 C 479.394531 115.960938 491.191406 110.195313 513.285156 114.003906 C 514.511719 114.214844 514.75 113.578125 513.566406 113.078125 C 494.726563 105.109375 471.65625 109.464844 464.328125 108.335938 C 457.804688 107.515625 456.6875 100.957031 465.527344 101.34375 C 474.097656 102.09375 499.558594 108.671875 522.503906 103.964844 C 524.082031 103.640625 523.574219 102.96875 521.832031 102.972656 "/>
</g>
</svg>
