<?xml version="1.0" encoding="UTF-8"?>
<svg xmlns="http://www.w3.org/2000/svg" xmlns:xlink="http://www.w3.org/1999/xlink" width="543pt" height="184pt" viewBox="0 0 543 184" version="1.1">
<g id="surface1">
<path style=" stroke:none;fill-rule:nonzero;fill:rgb(0%,0%,0%);fill-opacity:1;" d="M 215.15625 30.839844 C 217.457031 31.441406 219.859375 30.839844 221.65625 29.640625 C 225.15625 31.941406 229.359375 32.839844 233.15625 34.441406 C 233.664063 49.050781 246.199219 45.53125 249.5 42.453125 C 261.21875 44.140625 258.859375 33.640625 258.15625 30.839844 L 263.15625 29.339844 C 265.558594 39.8125 272.558594 38.039063 274.457031 37.242188 C 277.875 45.089844 285.65625 43.839844 288.359375 41.339844 C 290.632813 47.949219 296.65625 49.242188 299.457031 48.539063 C 309.957031 43.140625 317.957031 31.839844 329.859375 29.839844 C 329.859375 29.839844 314.828125 17.597656 323.15625 6.039063 C 323.257813 2.742188 315.488281 -6.378906 306.359375 5.140625 C 298.109375 -4.617188 289.972656 6.816406 292.65625 9.941406 C 288.65625 9.640625 284.359375 10.339844 280.457031 11.140625 C 280.457031 11.140625 275.433594 -0.964844 264.015625 5.71875 C 261.15625 3.519531 256.316406 4.617188 256.097656 8.359375 C 252.800781 8.136719 250.160156 7.257813 248.398438 12.097656 C 244.222656 9.457031 243.15625 8.839844 239.859375 13.242188 C 238.058594 11.339844 230.363281 5.9375 225.957031 15.242188 C 223.058594 12.140625 217.957031 11.242188 214.257813 12.839844 C 210.457031 14.742188 208.957031 18.742188 208.957031 22.441406 C 209.15625 25.941406 211.757813 29.640625 215.15625 30.839844 Z M 243.757813 40.839844 C 241.457031 41.039063 239.058594 40.039063 238.457031 37.742188 C 237.65625 35.140625 238.65625 32.539063 240.65625 31.039063 C 239.65625 34.640625 244.457031 37.441406 243.757813 40.839844 Z M 215.15625 17.140625 C 216.058594 15.941406 218.257813 16.242188 219.257813 16.839844 C 220.257813 17.742188 221.859375 18.539063 221.859375 20.242188 C 219.558594 25.039063 225.558594 25.242188 227.859375 26.941406 C 231.957031 28.339844 236.359375 29.339844 240.859375 28.839844 C 240.859375 28.839844 233.957031 23.441406 233.15625 19.242188 C 231.359375 19.441406 229.457031 18.039063 229.859375 16.441406 C 230.058594 15.039063 230.65625 13.742188 231.957031 13.039063 C 233.359375 13.039063 235.257813 13.742188 235.058594 15.441406 C 235.058594 16.539063 234.859375 17.539063 233.859375 18.339844 C 235.257813 22.839844 239.359375 27.140625 243.757813 28.839844 C 244.257813 28.941406 244.65625 28.839844 244.957031 28.441406 C 242.957031 26.039063 241.757813 23.039063 242.257813 20.039063 C 243.15625 19.140625 244.558594 17.441406 245.859375 18.839844 C 246.457031 22.039063 242.859375 25.640625 246.359375 28.441406 C 251.558594 27.539063 256.257813 25.539063 261.058594 23.640625 C 259.457031 22.441406 256.058594 23.039063 253.859375 22.140625 C 252.457031 22.742188 250.957031 22.339844 249.957031 21.242188 C 248.859375 20.339844 249.957031 19.242188 249.957031 18.339844 C 250.65625 16.242188 253.15625 16.339844 254.558594 17.140625 C 255.957031 18.640625 255.359375 22.140625 258.359375 21.941406 L 263.859375 22.640625 C 265.457031 21.742188 267.65625 21.441406 268.65625 20.242188 C 264.15625 18.539063 256.359375 18.441406 256.457031 11.839844 C 260.859375 10.742188 264.15625 15.441406 268.257813 16.839844 C 270.65625 17.242188 273.058594 20.339844 275.457031 17.839844 C 272.65625 14.539063 267.859375 11.941406 269.65625 6.839844 C 270.15625 5.339844 272.058594 5.441406 273.257813 5.839844 C 276.558594 8.742188 272.757813 14.140625 275.859375 17.339844 C 279.257813 16.839844 282.957031 15.539063 286.457031 14.742188 C 291.757813 14.242188 297.65625 14.441406 302.257813 15.441406 C 301.558594 14.640625 300.058594 13.242188 299.15625 12.339844 C 297.859375 10.742188 295.558594 8.441406 297.457031 6.839844 C 297.957031 5.339844 299.859375 4.941406 300.859375 5.839844 C 304.757813 11.140625 308.558594 17.039063 314.257813 20.242188 C 313.558594 16.941406 310.558594 14.039063 310.65625 10.140625 C 310.957031 8.339844 311.058594 6.539063 312.359375 5.140625 C 313.558594 3.839844 315.757813 3.242188 317.65625 3.941406 C 318.65625 4.242188 319.757813 5.339844 320.058594 6.339844 C 313.066406 18.257813 321.457031 25.539063 324.15625 28.140625 C 315.257813 30.242188 307.957031 37.640625 300.65625 43.242188 C 299.457031 44.039063 297.457031 43.941406 296.257813 43.039063 C 294.859375 41.941406 294.957031 39.839844 295.359375 38.242188 C 301.058594 29.640625 311.859375 29.539063 320.757813 26.941406 C 320.457031 25.742188 318.359375 25.039063 317.15625 24.039063 C 310.257813 24.339844 304.957031 28.640625 299.15625 31.742188 C 297.757813 32.140625 296.558594 30.640625 296.058594 29.839844 C 295.757813 27.839844 297.257813 26.039063 298.957031 25.242188 C 303.957031 22.941406 316.65625 23.140625 316.65625 23.140625 C 313.058594 20.742188 308.058594 17.539063 303.257813 20.242188 C 296.757813 21.640625 291.359375 25.941406 286.65625 31.242188 C 287.859375 32.839844 288.558594 35.539063 287.15625 37.242188 C 285.859375 38.941406 283.558594 39.839844 281.65625 38.742188 C 280.058594 37.640625 278.757813 35.339844 279.457031 33.640625 C 279.757813 32.242188 280.859375 31.640625 281.859375 30.839844 C 282.957031 31.039063 283.65625 30.339844 284.757813 30.539063 C 290.257813 24.339844 303.457031 16.839844 303.457031 16.839844 C 293.757813 14.839844 282.457031 16.140625 273.757813 20.039063 C 271.359375 23.742188 274.359375 28.039063 273.058594 32.242188 C 272.558594 32.941406 271.457031 33.539063 270.65625 32.941406 C 268.457031 31.039063 268.757813 27.539063 269.457031 25.039063 C 269.957031 23.640625 270.757813 22.339844 271.859375 21.242188 L 271.359375 20.742188 C 262.957031 23.941406 254.558594 27.742188 245.859375 29.640625 C 246.15625 30.441406 247.359375 30.839844 248.058594 31.539063 C 250.058594 32.242188 252.65625 32.640625 253.558594 34.839844 C 253.558594 35.941406 253.859375 37.441406 252.359375 37.539063 C 249.457031 36.941406 246.257813 35.039063 245.15625 32.039063 L 244.957031 30.039063 C 236.957031 30.742188 227.957031 29.640625 221.457031 24.839844 C 220.058594 26.039063 217.757813 25.441406 216.15625 25.242188 C 214.957031 24.539063 214.058594 23.441406 213.757813 22.140625 C 213.558594 20.140625 213.957031 18.539063 215.15625 17.140625 "/>
<path style=" stroke:none;fill-rule:nonzero;fill:rgb(0%,0%,0%);fill-opacity:1;" d="M 535.585938 144.269531 C 535.679688 141.183594 528.421875 132.664063 519.890625 143.425781 C 512.183594 134.308594 504.578125 144.992188 507.089844 147.914063 C 503.351563 147.632813 499.335938 148.285156 495.691406 149.03125 C 495.691406 149.03125 490.996094 137.722656 480.328125 143.96875 C 477.65625 141.910156 473.136719 142.941406 472.929688 146.433594 C 469.847656 146.226563 467.382813 145.40625 465.738281 149.925781 C 461.835938 147.460938 460.839844 146.882813 457.757813 150.996094 C 456.074219 149.21875 448.886719 144.171875 444.769531 152.867188 C 442.0625 149.96875 437.296875 149.128906 433.839844 150.621094 C 430.289063 152.402344 428.886719 156.136719 428.886719 159.59375 C 426.605469 155.480469 424.863281 149.371094 428.539063 144.273438 C 428.636719 141.191406 421.375 132.667969 412.84375 143.433594 C 405.140625 134.3125 397.535156 145 400.042969 147.917969 C 396.308594 147.636719 392.289063 148.292969 388.644531 149.039063 C 388.644531 149.039063 383.949219 137.730469 373.285156 143.972656 C 370.613281 141.917969 366.09375 142.945313 365.886719 146.4375 C 362.804688 146.234375 360.335938 145.410156 358.695313 149.933594 C 354.789063 147.464844 353.796875 146.890625 350.710938 151 C 349.03125 149.226563 341.84375 144.175781 337.726563 152.863281 C 335.015625 149.972656 330.25 149.132813 326.792969 150.628906 C 323.242188 152.394531 321.84375 156.132813 321.84375 159.589844 C 319.414063 155.421875 317.644531 149.535156 321.441406 144.273438 C 321.535156 141.191406 314.277344 132.667969 305.746094 143.433594 C 298.039063 134.3125 290.4375 145 292.945313 147.917969 C 289.210938 147.636719 285.191406 148.292969 281.546875 149.039063 C 281.546875 149.039063 276.851563 137.730469 266.1875 143.972656 C 263.523438 141.917969 259.003906 142.945313 258.800781 146.4375 C 255.714844 146.234375 253.25 145.410156 251.605469 149.933594 C 247.699219 147.464844 246.707031 146.890625 243.625 151 C 241.941406 149.226563 234.753906 144.175781 230.636719 152.863281 C 227.929688 149.972656 223.164063 149.132813 219.707031 150.628906 C 216.15625 152.394531 214.753906 156.132813 214.753906 159.589844 C 212.4375 155.460938 210.703125 149.410156 214.40625 144.261719 C 214.5 141.179688 207.242188 132.65625 198.710938 143.421875 C 191.003906 134.300781 183.402344 144.988281 185.910156 147.90625 C 182.171875 147.625 178.15625 148.28125 174.511719 149.027344 C 174.511719 149.027344 169.816406 137.71875 159.152344 143.960938 C 156.480469 141.90625 151.960938 142.933594 151.753906 146.425781 C 148.671875 146.222656 146.203125 145.398438 144.558594 149.921875 C 140.65625 147.453125 139.660156 146.878906 136.578125 150.988281 C 134.898438 149.214844 127.707031 144.164063 123.59375 152.867188 C 120.882813 149.960938 116.117188 149.121094 112.660156 150.617188 C 109.109375 152.394531 107.710938 156.144531 107.710938 159.597656 C 105.171875 155.386719 103.308594 149.367188 107.199219 143.960938 C 107.292969 140.878906 100.03125 132.355469 91.503906 143.121094 C 83.796875 134 76.191406 144.6875 78.703125 147.605469 C 74.964844 147.324219 70.949219 147.976563 67.304688 148.726563 C 67.304688 148.726563 62.609375 137.417969 51.941406 143.660156 C 49.269531 141.605469 44.75 142.632813 44.542969 146.125 C 41.460938 145.917969 38.996094 145.097656 37.351563 149.617188 C 33.445313 147.152344 32.453125 146.578125 29.371094 150.6875 C 27.6875 148.914063 20.5 143.863281 16.382813 152.5625 C 13.671875 149.660156 8.910156 148.820313 5.453125 150.3125 C 1.902344 152.09375 0.5 155.847656 0.5 159.304688 C 0.6875 162.574219 3.117188 166.03125 6.292969 167.152344 C 8.441406 167.714844 10.683594 167.152344 12.367188 166.03125 C 15.636719 168.179688 19.558594 169.019531 23.109375 170.515625 C 23.582031 184.164063 35.296875 180.875 38.378906 178 C 49.328125 179.578125 47.121094 169.769531 46.46875 167.152344 L 51.140625 165.75 C 53.382813 175.53125 59.921875 173.878906 61.699219 173.132813 C 64.890625 180.464844 72.160156 179.296875 74.683594 176.960938 C 76.808594 183.136719 82.441406 184.34375 85.054688 183.6875 C 94.253906 178.957031 101.742188 169.277344 111.761719 166.558594 C 113.933594 168.554688 117.894531 167.449219 119.574219 166.328125 C 122.84375 168.476563 126.769531 169.316406 130.320313 170.8125 C 130.789063 184.460938 142.503906 181.171875 145.589844 178.292969 C 156.539063 179.875 154.332031 170.0625 153.675781 167.449219 L 158.347656 166.046875 C 160.589844 175.828125 167.132813 174.175781 168.90625 173.425781 C 172.097656 180.761719 179.371094 179.59375 181.894531 177.257813 C 184.019531 183.433594 189.648438 184.640625 192.265625 183.984375 C 201.527344 179.222656 209.089844 169.453125 219.222656 166.8125 C 222.648438 168.457031 224.9375 167.4375 226.621094 166.316406 C 229.890625 168.46875 233.8125 169.304688 237.363281 170.800781 C 237.835938 184.453125 249.550781 181.164063 252.632813 178.285156 C 263.585938 179.863281 261.378906 170.054688 260.722656 167.4375 L 265.386719 166.035156 C 267.625 175.820313 274.167969 174.164063 275.941406 173.417969 C 279.132813 180.75 286.40625 179.582031 288.929688 177.25 C 291.054688 183.421875 296.683594 184.628906 299.300781 183.976563 C 308.574219 179.207031 316.132813 169.417969 326.285156 166.796875 C 328.648438 168.023438 332.023438 167.4375 333.707031 166.316406 C 336.980469 168.46875 340.902344 169.304688 344.453125 170.800781 C 344.925781 184.453125 356.640625 181.164063 359.722656 178.285156 C 370.671875 179.863281 368.464844 170.054688 367.8125 167.4375 L 372.480469 166.035156 C 374.722656 175.820313 381.265625 174.164063 383.039063 173.417969 C 386.230469 180.75 393.503906 179.582031 396.027344 177.25 C 398.152344 183.421875 403.78125 184.628906 406.398438 183.976563 C 415.601563 179.242188 423.308594 169.519531 433.335938 166.808594 C 435.960938 167.914063 439.070313 167.441406 440.753906 166.320313 C 444.023438 168.46875 447.945313 169.3125 451.496094 170.804688 C 451.96875 184.457031 463.683594 181.167969 466.765625 178.292969 C 477.71875 179.867188 475.507813 170.058594 474.855469 167.441406 L 479.527344 166.039063 C 481.769531 175.824219 488.308594 174.167969 490.085938 173.421875 C 493.277344 180.757813 500.550781 179.589844 503.070313 177.253906 C 505.195313 183.429688 510.824219 184.636719 513.441406 183.980469 C 523.253906 178.933594 530.726563 168.378906 541.847656 166.507813 C 541.847656 166.507813 527.804688 155.066406 535.585938 144.269531 Z M 33.015625 176.496094 C 30.863281 176.679688 28.621094 175.75 28.0625 173.597656 C 27.316406 171.167969 28.25 168.738281 30.117188 167.339844 C 29.183594 170.703125 33.667969 173.320313 33.015625 176.496094 Z M 86.175781 178.738281 C 85.054688 179.484375 83.1875 179.390625 82.066406 178.550781 C 80.757813 177.523438 80.851563 175.5625 81.226563 174.066406 C 86.550781 166.03125 96.640625 165.9375 104.957031 163.507813 C 104.675781 162.386719 102.714844 161.734375 101.59375 160.796875 C 95.144531 161.078125 90.195313 165.09375 84.777344 167.992188 C 83.46875 168.367188 82.34375 166.964844 81.878906 166.21875 C 81.597656 164.347656 83 162.667969 84.589844 161.917969 C 89.261719 159.769531 101.125 159.957031 101.125 159.957031 C 97.761719 157.714844 93.089844 154.726563 88.605469 157.25 C 82.53125 158.554688 77.488281 162.574219 73.097656 167.527344 C 74.21875 169.019531 74.871094 171.542969 73.5625 173.132813 C 72.347656 174.71875 70.199219 175.5625 68.425781 174.53125 C 66.929688 173.503906 65.714844 171.355469 66.367188 169.769531 C 66.648438 168.460938 67.675781 167.898438 68.613281 167.152344 C 69.640625 167.339844 70.292969 166.683594 71.320313 166.871094 C 76.460938 161.078125 88.792969 154.066406 88.792969 154.066406 C 79.730469 152.1875 69.171875 153.410156 61.042969 157.0625 C 58.800781 160.519531 61.605469 164.535156 60.390625 168.460938 C 59.921875 169.113281 58.894531 169.675781 58.148438 169.113281 C 56.09375 167.339844 56.371094 164.070313 57.027344 161.734375 C 57.492188 160.425781 58.242188 159.210938 59.269531 158.183594 L 58.800781 157.714844 C 50.953125 160.707031 43.105469 164.257813 34.976563 166.03125 C 35.257813 166.777344 36.378906 167.152344 37.03125 167.804688 C 38.898438 168.460938 41.328125 168.832031 42.171875 170.890625 C 42.171875 171.917969 42.449219 173.320313 41.050781 173.410156 C 38.339844 172.851563 35.351563 171.078125 34.324219 168.273438 L 34.136719 166.40625 C 26.660156 167.058594 18.253906 166.03125 12.179688 161.546875 C 10.871094 162.667969 8.722656 162.105469 7.226563 161.917969 C 6.105469 161.265625 5.265625 160.238281 4.984375 159.023438 C 4.796875 157.15625 5.171875 155.660156 6.292969 154.347656 C 7.132813 153.222656 9.1875 153.503906 10.121094 154.066406 C 11.058594 154.914063 12.550781 155.660156 12.550781 157.25 C 10.402344 161.734375 16.007813 161.917969 18.160156 163.507813 C 21.988281 164.816406 26.101563 165.75 30.304688 165.28125 C 30.304688 165.28125 23.859375 160.238281 23.109375 156.3125 C 21.429688 156.5 19.652344 155.191406 20.027344 153.691406 C 20.214844 152.375 20.773438 151.15625 21.988281 150.5 C 23.296875 150.5 25.074219 151.15625 24.886719 152.75 C 24.886719 153.785156 24.699219 154.726563 23.765625 155.472656 C 25.074219 159.675781 28.902344 163.695313 33.015625 165.28125 C 33.480469 165.378906 33.855469 165.28125 34.136719 164.910156 C 32.265625 162.667969 31.144531 159.863281 31.613281 157.0625 C 32.453125 156.21875 33.761719 154.632813 34.976563 155.941406 C 35.535156 158.929688 32.171875 162.292969 35.445313 164.910156 C 40.300781 164.070313 44.691406 162.199219 49.175781 160.425781 C 47.683594 159.304688 44.507813 159.863281 42.449219 159.023438 C 41.144531 159.585938 39.742188 159.210938 38.808594 158.183594 C 37.78125 157.339844 38.808594 156.3125 38.808594 155.472656 C 39.460938 153.503906 41.796875 153.597656 43.105469 154.347656 C 44.414063 155.753906 43.851563 159.023438 46.65625 158.835938 L 51.792969 159.488281 C 53.289063 158.648438 55.34375 158.371094 56.277344 157.25 C 52.074219 155.660156 44.785156 155.566406 44.878906 149.378906 C 48.992188 148.351563 52.074219 152.75 55.90625 154.066406 C 58.148438 154.445313 60.390625 157.339844 62.632813 155.007813 C 60.015625 151.90625 55.53125 149.472656 57.214844 144.707031 C 57.679688 143.304688 59.457031 143.402344 60.578125 143.773438 C 63.660156 146.484375 60.109375 151.527344 63.007813 154.539063 C 66.183594 154.066406 69.640625 152.84375 72.910156 152.09375 C 77.859375 151.621094 83.375 151.808594 87.671875 152.75 C 87.019531 151.996094 85.617188 150.6875 84.777344 149.847656 C 83.558594 148.351563 81.410156 146.203125 83.1875 144.707031 C 83.65625 143.304688 85.429688 142.933594 86.363281 143.773438 C 90.007813 148.726563 93.558594 154.253906 98.882813 157.25 C 98.230469 154.164063 95.425781 151.433594 95.519531 147.789063 C 95.800781 146.109375 95.894531 144.425781 97.109375 143.121094 C 98.230469 141.90625 100.285156 141.34375 102.058594 142 C 102.992188 142.28125 104.023438 143.304688 104.300781 144.242188 C 97.773438 155.394531 105.609375 162.199219 108.132813 164.628906 C 99.816406 166.59375 92.996094 173.503906 86.175781 178.738281 Z M 140.222656 176.792969 C 138.074219 176.976563 135.832031 176.042969 135.269531 173.894531 C 134.523438 171.464844 135.457031 169.035156 137.328125 167.636719 C 136.390625 170.996094 140.878906 173.613281 140.222656 176.792969 Z M 193.386719 179.03125 C 192.265625 179.78125 190.394531 179.6875 189.273438 178.847656 C 187.96875 177.820313 188.058594 175.855469 188.433594 174.363281 C 193.757813 166.328125 203.851563 166.230469 212.164063 163.804688 C 211.886719 162.683594 209.921875 162.027344 208.800781 161.09375 C 202.355469 161.375 197.402344 165.390625 191.984375 168.289063 C 190.675781 168.660156 189.554688 167.261719 189.089844 166.511719 C 188.808594 164.644531 190.210938 162.964844 191.796875 162.214844 C 196.46875 160.066406 208.335938 160.253906 208.335938 160.253906 C 204.972656 158.011719 200.300781 155.019531 195.816406 157.542969 C 189.742188 158.851563 184.695313 162.871094 180.304688 167.820313 C 181.425781 169.316406 182.078125 171.839844 180.773438 173.425781 C 179.558594 175.015625 177.410156 175.855469 175.632813 174.828125 C 174.140625 173.800781 172.925781 171.652344 173.578125 170.0625 C 173.859375 168.757813 174.886719 168.195313 175.820313 167.449219 C 176.847656 167.636719 177.503906 166.980469 178.53125 167.167969 C 183.667969 161.375 196.003906 154.367188 196.003906 154.367188 C 186.9375 152.488281 176.382813 153.714844 168.253906 157.355469 C 166.011719 160.8125 168.8125 164.832031 167.597656 168.757813 C 167.132813 169.410156 166.105469 169.96875 165.355469 169.410156 C 163.300781 167.636719 163.582031 164.363281 164.234375 162.027344 C 164.703125 160.71875 165.449219 159.507813 166.476563 158.476563 L 166.011719 158.011719 C 158.160156 161 150.3125 164.550781 142.183594 166.328125 C 142.464844 167.074219 143.585938 167.449219 144.238281 168.101563 C 146.109375 168.757813 148.539063 169.128906 149.378906 171.183594 C 149.378906 172.214844 149.660156 173.613281 148.257813 173.707031 C 145.550781 173.148438 142.558594 171.371094 141.53125 168.570313 L 141.34375 166.699219 C 133.871094 167.355469 125.460938 166.328125 119.386719 161.839844 C 118.078125 162.964844 115.929688 162.402344 114.4375 162.214844 C 113.316406 161.5625 112.472656 160.535156 112.191406 159.320313 C 112.007813 157.449219 112.378906 155.957031 113.503906 154.648438 C 114.34375 153.523438 116.398438 153.804688 117.332031 154.367188 C 118.265625 155.207031 119.761719 155.957031 119.761719 157.542969 C 117.613281 162.027344 123.21875 162.214844 125.367188 163.804688 C 129.199219 165.109375 133.308594 166.046875 137.515625 165.578125 C 137.515625 165.578125 131.066406 160.535156 130.320313 156.609375 C 128.636719 156.796875 126.863281 155.488281 127.234375 153.992188 C 127.421875 152.679688 127.984375 151.457031 129.199219 150.800781 C 130.507813 150.800781 132.28125 151.457031 132.09375 153.054688 C 132.09375 154.085938 131.90625 155.019531 130.972656 155.769531 C 132.28125 159.972656 136.113281 163.988281 140.222656 165.578125 C 140.691406 165.671875 141.0625 165.578125 141.34375 165.207031 C 139.476563 162.964844 138.355469 160.160156 138.820313 157.355469 C 139.660156 156.515625 140.96875 154.929688 142.183594 156.234375 C 142.746094 159.226563 139.382813 162.589844 142.652344 165.207031 C 147.511719 164.363281 151.902344 162.496094 156.386719 160.71875 C 154.890625 159.597656 151.714844 160.160156 149.660156 159.320313 C 148.351563 159.878906 146.949219 159.507813 146.015625 158.476563 C 144.988281 157.636719 146.015625 156.609375 146.015625 155.769531 C 146.671875 153.804688 149.003906 153.898438 150.3125 154.648438 C 151.621094 156.046875 151.0625 159.320313 153.863281 159.132813 L 159.003906 159.785156 C 160.496094 158.945313 162.554688 158.664063 163.488281 157.542969 C 159.28125 155.957031 151.996094 155.863281 152.089844 149.679688 C 156.199219 148.652344 159.28125 153.054688 163.113281 154.367188 C 165.355469 154.742188 167.597656 157.636719 169.839844 155.300781 C 167.222656 152.207031 162.742188 149.777344 164.421875 145.011719 C 164.886719 143.609375 166.664063 143.703125 167.785156 144.074219 C 170.867188 146.785156 167.316406 151.832031 170.214844 154.835938 C 173.390625 154.367188 176.847656 153.148438 180.117188 152.394531 C 185.070313 151.925781 190.582031 152.113281 194.878906 153.054688 C 194.226563 152.300781 192.824219 150.988281 191.984375 150.148438 C 190.769531 148.652344 188.621094 146.503906 190.394531 145.011719 C 190.863281 143.609375 192.640625 143.234375 193.574219 144.074219 C 197.214844 149.027344 200.765625 154.554688 206.09375 157.542969 C 205.4375 154.460938 202.636719 151.738281 202.726563 148.09375 C 203.007813 146.410156 203.101563 144.730469 204.316406 143.421875 C 205.4375 142.207031 207.492188 141.648438 209.269531 142.300781 C 210.203125 142.582031 211.230469 143.609375 211.511719 144.542969 C 204.980469 155.6875 212.820313 162.496094 215.339844 164.925781 C 207.027344 166.886719 200.207031 173.800781 193.386719 179.03125 Z M 247.269531 176.78125 C 245.121094 176.96875 242.878906 176.035156 242.316406 173.886719 C 241.570313 171.457031 242.503906 169.027344 244.371094 167.625 C 243.4375 170.988281 247.921875 173.605469 247.269531 176.78125 Z M 300.421875 179.023438 C 299.300781 179.769531 297.433594 179.679688 296.308594 178.835938 C 295.003906 177.808594 295.097656 175.847656 295.46875 174.351563 C 300.796875 166.316406 310.886719 166.222656 319.199219 163.792969 C 318.921875 162.671875 316.960938 162.019531 315.835938 161.085938 C 309.390625 161.363281 304.4375 165.382813 299.019531 168.28125 C 297.710938 168.652344 296.589844 167.25 296.121094 166.503906 C 295.84375 164.636719 297.242188 162.953125 298.832031 162.207031 C 303.503906 160.058594 315.367188 160.242188 315.367188 160.242188 C 312.007813 158.003906 307.335938 155.011719 302.851563 157.535156 C 296.777344 158.84375 291.730469 162.859375 287.339844 167.8125 C 288.460938 169.304688 289.113281 171.832031 287.808594 173.417969 C 286.59375 175.007813 284.445313 175.847656 282.667969 174.820313 C 281.175781 173.789063 279.960938 171.644531 280.613281 170.054688 C 280.894531 168.746094 281.921875 168.183594 282.855469 167.4375 C 283.882813 167.625 284.535156 166.96875 285.566406 167.15625 C 290.703125 161.363281 303.035156 154.359375 303.035156 154.359375 C 293.976563 152.488281 283.417969 153.703125 275.289063 157.347656 C 273.046875 160.804688 275.847656 164.824219 274.632813 168.746094 C 274.167969 169.402344 273.140625 169.960938 272.390625 169.402344 C 270.335938 167.625 270.617188 164.355469 271.269531 162.019531 C 271.738281 160.710938 272.484375 159.496094 273.515625 158.46875 L 273.046875 158.003906 C 265.203125 160.992188 257.359375 164.542969 249.230469 166.316406 C 249.511719 167.066406 250.632813 167.4375 251.285156 168.09375 C 253.152344 168.746094 255.585938 169.121094 256.425781 171.175781 C 256.425781 172.203125 256.703125 173.605469 255.304688 173.699219 C 252.59375 173.136719 249.605469 171.363281 248.574219 168.558594 L 248.390625 166.691406 C 240.914063 167.34375 232.507813 166.316406 226.433594 161.832031 C 225.125 162.953125 222.976563 162.394531 221.480469 162.207031 C 220.359375 161.550781 219.519531 160.523438 219.238281 159.308594 C 219.050781 157.441406 219.425781 155.945313 220.546875 154.636719 C 221.386719 153.519531 223.441406 153.796875 224.378906 154.359375 C 225.3125 155.199219 226.808594 155.945313 226.808594 157.535156 C 224.65625 162.019531 230.265625 162.207031 232.414063 163.792969 C 236.242188 165.101563 240.355469 166.035156 244.558594 165.570313 C 244.558594 165.570313 238.113281 160.523438 237.363281 156.601563 C 235.683594 156.789063 233.90625 155.480469 234.28125 153.984375 C 234.46875 152.675781 235.027344 151.464844 236.242188 150.8125 C 237.550781 150.8125 239.328125 151.464844 239.140625 153.050781 C 239.140625 154.078125 238.953125 155.011719 238.019531 155.757813 C 239.328125 159.964844 243.15625 163.980469 247.269531 165.570313 C 247.734375 165.664063 248.109375 165.570313 248.390625 165.195313 C 246.519531 162.953125 245.398438 160.152344 245.867188 157.347656 C 246.707031 156.507813 248.015625 154.917969 249.230469 156.226563 C 249.789063 159.214844 246.429688 162.582031 249.699219 165.195313 C 254.554688 164.355469 258.945313 162.484375 263.433594 160.710938 C 261.9375 159.589844 258.761719 160.152344 256.703125 159.308594 C 255.398438 159.871094 253.996094 159.496094 253.0625 158.46875 C 252.035156 157.628906 253.0625 156.601563 253.0625 155.757813 C 253.714844 153.796875 256.050781 153.890625 257.359375 154.636719 C 258.667969 156.039063 258.105469 159.308594 260.910156 159.125 L 266.039063 159.777344 C 267.53125 158.9375 269.589844 158.65625 270.523438 157.535156 C 266.316406 155.945313 259.039063 155.851563 259.132813 149.691406 C 263.246094 148.664063 266.316406 153.050781 270.148438 154.359375 C 272.390625 154.730469 274.632813 157.628906 276.875 155.292969 C 274.261719 152.210938 269.777344 149.785156 271.457031 145.023438 C 271.925781 143.621094 273.699219 143.714844 274.820313 144.085938 C 277.902344 146.796875 274.355469 151.835938 277.25 154.824219 C 280.425781 154.359375 283.882813 153.144531 287.152344 152.394531 C 292.105469 151.929688 297.617188 152.117188 301.914063 153.050781 C 301.261719 152.300781 299.859375 151 299.019531 150.160156 C 297.804688 148.664063 295.65625 146.515625 297.433594 145.023438 C 297.898438 143.621094 299.675781 143.246094 300.609375 144.085938 C 304.253906 149.039063 307.800781 154.542969 313.128906 157.535156 C 312.472656 154.453125 309.671875 151.742188 309.765625 148.105469 C 310.046875 146.421875 310.136719 144.742188 311.355469 143.433594 C 312.472656 142.21875 314.527344 141.65625 316.304688 142.3125 C 317.238281 142.59375 318.265625 143.621094 318.546875 144.554688 C 312.015625 155.679688 319.855469 162.484375 322.378906 164.914063 C 314.0625 166.878906 307.242188 173.789063 300.421875 179.023438 Z M 354.355469 176.78125 C 352.207031 176.96875 349.964844 176.035156 349.402344 173.886719 C 348.65625 171.457031 349.59375 169.027344 351.460938 167.625 C 350.527344 170.988281 355.011719 173.605469 354.355469 176.78125 Z M 407.519531 179.023438 C 406.398438 179.769531 404.527344 179.679688 403.40625 178.835938 C 402.101563 177.808594 402.191406 175.847656 402.566406 174.351563 C 407.894531 166.316406 417.984375 166.222656 426.300781 163.792969 C 426.019531 162.671875 424.058594 162.019531 422.933594 161.085938 C 416.488281 161.363281 411.535156 165.382813 406.117188 168.28125 C 404.808594 168.652344 403.6875 167.25 403.222656 166.503906 C 402.941406 164.636719 404.34375 162.953125 405.929688 162.207031 C 410.601563 160.058594 422.46875 160.242188 422.46875 160.242188 C 419.105469 158.003906 414.433594 155.011719 409.949219 157.535156 C 403.875 158.84375 398.828125 162.859375 394.4375 167.8125 C 395.5625 169.304688 396.214844 171.832031 394.90625 173.417969 C 393.691406 175.007813 391.542969 175.847656 389.765625 174.820313 C 388.269531 173.789063 387.058594 171.644531 387.710938 170.054688 C 387.992188 168.746094 389.019531 168.183594 389.953125 167.4375 C 390.980469 167.625 391.636719 166.96875 392.664063 167.15625 C 397.800781 161.363281 410.136719 154.359375 410.136719 154.359375 C 401.070313 152.488281 390.515625 153.703125 382.386719 157.347656 C 380.144531 160.804688 382.945313 164.824219 381.730469 168.746094 C 381.265625 169.402344 380.238281 169.960938 379.488281 169.402344 C 377.433594 167.625 377.714844 164.355469 378.367188 162.019531 C 378.835938 160.710938 379.582031 159.496094 380.609375 158.46875 L 380.144531 158.003906 C 372.296875 160.992188 364.445313 164.542969 356.316406 166.316406 C 356.597656 167.066406 357.71875 167.4375 358.375 168.09375 C 360.242188 168.746094 362.671875 169.121094 363.511719 171.175781 C 363.511719 172.203125 363.792969 173.605469 362.390625 173.699219 C 359.683594 173.136719 356.691406 171.363281 355.664063 168.558594 L 355.476563 166.691406 C 348.003906 167.34375 339.59375 166.316406 333.519531 161.832031 C 332.214844 162.953125 330.0625 162.394531 328.570313 162.207031 C 327.449219 161.550781 326.605469 160.523438 326.328125 159.308594 C 326.140625 157.441406 326.515625 155.945313 327.636719 154.636719 C 328.476563 153.519531 330.53125 153.796875 331.464844 154.359375 C 332.398438 155.199219 333.894531 155.945313 333.894531 157.535156 C 331.746094 162.019531 337.351563 162.207031 339.5 163.792969 C 343.332031 165.101563 347.441406 166.035156 351.644531 165.570313 C 351.644531 165.570313 345.199219 160.523438 344.453125 156.601563 C 342.769531 156.789063 340.996094 155.480469 341.367188 153.984375 C 341.554688 152.675781 342.117188 151.464844 343.332031 150.8125 C 344.640625 150.8125 346.414063 151.464844 346.226563 153.050781 C 346.226563 154.078125 346.039063 155.011719 345.105469 155.757813 C 346.414063 159.964844 350.246094 163.980469 354.355469 165.570313 C 354.824219 165.664063 355.195313 165.570313 355.476563 165.195313 C 353.609375 162.953125 352.488281 160.152344 352.953125 157.347656 C 353.796875 156.507813 355.105469 154.917969 356.316406 156.226563 C 356.878906 159.214844 353.515625 162.582031 356.785156 165.195313 C 361.644531 164.355469 366.035156 162.484375 370.519531 160.710938 C 369.023438 159.589844 365.847656 160.152344 363.792969 159.308594 C 362.484375 159.871094 361.085938 159.496094 360.148438 158.46875 C 359.121094 157.628906 360.148438 156.601563 360.148438 155.757813 C 360.804688 153.796875 363.140625 153.890625 364.445313 154.636719 C 365.753906 156.039063 365.195313 159.308594 367.996094 159.125 L 373.136719 159.777344 C 374.632813 158.9375 376.6875 158.65625 377.621094 157.535156 C 373.414063 155.945313 366.128906 155.851563 366.222656 149.691406 C 370.332031 148.664063 373.414063 153.050781 377.246094 154.359375 C 379.488281 154.730469 381.730469 157.628906 383.976563 155.292969 C 381.355469 152.210938 376.875 149.785156 378.554688 145.023438 C 379.019531 143.621094 380.796875 143.714844 381.917969 144.085938 C 385.003906 146.796875 381.449219 151.835938 384.347656 154.824219 C 387.523438 154.359375 390.980469 153.144531 394.253906 152.394531 C 399.203125 151.929688 404.714844 152.117188 409.015625 153.050781 C 408.359375 152.300781 406.957031 151 406.117188 150.160156 C 404.902344 148.664063 402.753906 146.515625 404.527344 145.023438 C 404.996094 143.621094 406.773438 143.246094 407.707031 144.085938 C 411.351563 149.039063 414.898438 154.542969 420.226563 157.535156 C 419.570313 154.453125 416.769531 151.742188 416.859375 148.105469 C 417.144531 146.421875 417.234375 144.742188 418.449219 143.433594 C 419.570313 142.21875 421.628906 141.65625 423.402344 142.3125 C 424.335938 142.59375 425.363281 143.621094 425.644531 144.554688 C 419.113281 155.679688 426.953125 162.484375 429.476563 164.914063 C 421.160156 166.878906 414.339844 173.789063 407.519531 179.023438 Z M 461.402344 176.785156 C 459.253906 176.972656 457.011719 176.039063 456.449219 173.890625 C 455.703125 171.460938 456.636719 169.03125 458.507813 167.628906 C 457.570313 170.992188 462.054688 173.609375 461.402344 176.785156 Z M 514.5625 179.027344 C 513.441406 179.777344 511.574219 179.683594 510.453125 178.84375 C 509.144531 177.8125 509.238281 175.851563 509.613281 174.355469 C 514.9375 166.320313 525.027344 166.226563 533.34375 163.800781 C 533.0625 162.675781 531.101563 162.023438 529.980469 161.089844 C 523.53125 161.371094 518.582031 165.386719 513.160156 168.285156 C 511.855469 168.65625 510.734375 167.257813 510.265625 166.507813 C 509.984375 164.640625 511.386719 162.957031 512.976563 162.210938 C 517.648438 160.0625 529.511719 160.25 529.511719 160.25 C 526.148438 158.007813 521.476563 155.015625 516.992188 157.539063 C 510.921875 158.847656 505.875 162.863281 501.484375 167.816406 C 502.605469 169.3125 503.257813 171.835938 501.949219 173.421875 C 500.734375 175.011719 498.585938 175.851563 496.8125 174.824219 C 495.316406 173.796875 494.101563 171.648438 494.757813 170.058594 C 495.035156 168.75 496.066406 168.191406 497 167.441406 C 498.027344 167.628906 498.679688 166.976563 499.707031 167.164063 C 504.847656 161.371094 517.179688 154.363281 517.179688 154.363281 C 508.117188 152.492188 497.558594 153.707031 489.429688 157.351563 C 487.1875 160.808594 489.992188 164.828125 488.777344 168.75 C 488.308594 169.40625 487.28125 169.964844 486.535156 169.40625 C 484.480469 167.628906 484.761719 164.359375 485.414063 162.023438 C 485.882813 160.714844 486.628906 159.5 487.65625 158.472656 L 487.1875 158.007813 C 479.339844 160.996094 471.492188 164.546875 463.363281 166.320313 C 463.644531 167.070313 464.765625 167.441406 465.417969 168.097656 C 467.285156 168.75 469.71875 169.125 470.558594 171.179688 C 470.558594 172.207031 470.839844 173.609375 469.4375 173.703125 C 466.726563 173.144531 463.738281 171.367188 462.710938 168.566406 L 462.523438 166.695313 C 455.046875 167.347656 446.640625 166.320313 440.566406 161.835938 C 439.257813 162.957031 437.109375 162.398438 435.613281 162.210938 C 434.492188 161.554688 433.652344 160.53125 433.371094 159.3125 C 433.183594 157.445313 433.558594 155.949219 434.679688 154.644531 C 435.519531 153.523438 437.574219 153.800781 438.511719 154.363281 C 439.445313 155.203125 440.9375 155.949219 440.9375 157.539063 C 438.789063 162.023438 444.394531 162.210938 446.546875 163.800781 C 450.378906 165.105469 454.488281 166.039063 458.691406 165.574219 C 458.691406 165.574219 452.246094 160.53125 451.496094 156.605469 C 449.816406 156.792969 448.039063 155.484375 448.414063 153.988281 C 448.601563 152.679688 449.160156 151.464844 450.378906 150.808594 C 451.683594 150.808594 453.460938 151.464844 453.273438 153.054688 C 453.273438 154.082031 453.085938 155.015625 452.152344 155.765625 C 453.460938 159.96875 457.289063 163.984375 461.402344 165.574219 C 461.867188 165.667969 462.242188 165.574219 462.523438 165.203125 C 460.652344 162.957031 459.53125 160.15625 460 157.351563 C 460.839844 156.511719 462.148438 154.921875 463.363281 156.230469 C 463.925781 159.222656 460.5625 162.585938 463.828125 165.203125 C 468.6875 164.359375 473.078125 162.492188 477.5625 160.714844 C 476.070313 159.59375 472.894531 160.15625 470.839844 159.3125 C 469.53125 159.875 468.128906 159.5 467.195313 158.472656 C 466.164063 157.632813 467.195313 156.605469 467.195313 155.765625 C 467.847656 153.800781 470.183594 153.894531 471.492188 154.644531 C 472.800781 156.042969 472.238281 159.3125 475.042969 159.128906 L 480.183594 159.78125 C 481.675781 158.941406 483.730469 158.660156 484.664063 157.539063 C 480.460938 155.949219 473.175781 155.859375 473.269531 149.6875 C 477.378906 148.660156 480.460938 153.054688 484.292969 154.363281 C 486.535156 154.734375 488.777344 157.632813 491.019531 155.296875 C 488.402344 152.214844 483.917969 149.78125 485.601563 145.015625 C 486.066406 143.613281 487.84375 143.707031 488.964844 144.082031 C 492.046875 146.789063 488.496094 151.835938 491.394531 154.828125 C 494.570313 154.363281 498.027344 153.148438 501.296875 152.402344 C 506.25 151.929688 511.761719 152.121094 516.058594 153.054688 C 515.402344 152.304688 514.003906 150.996094 513.160156 150.15625 C 511.949219 148.660156 509.800781 146.511719 511.574219 145.015625 C 512.042969 143.613281 513.816406 143.242188 514.753906 144.082031 C 518.394531 149.03125 521.945313 154.550781 527.269531 157.539063 C 526.617188 154.457031 523.8125 151.742188 523.90625 148.097656 C 524.1875 146.417969 524.28125 144.734375 525.496094 143.425781 C 526.617188 142.210938 528.671875 141.652344 530.445313 142.304688 C 531.382813 142.585938 532.410156 143.613281 532.6875 144.546875 C 526.15625 155.683594 533.996094 162.492188 536.519531 164.917969 C 528.203125 166.882813 521.386719 173.796875 514.5625 179.027344 "/>
</g>
</svg>
