<?xml version="1.0" encoding="UTF-8"?>
<svg xmlns="http://www.w3.org/2000/svg" xmlns:xlink="http://www.w3.org/1999/xlink" width="520pt" height="652pt" viewBox="0 0 520 652" version="1.1">
<g id="surface1">
<path style=" stroke:none;fill-rule:nonzero;fill:rgb(13.729858%,12.159729%,12.548828%);fill-opacity:1;" d="M 513.632813 184.078125 C 500.902344 226.605469 513.167969 240.519531 506.621094 272.792969 C 498.695313 302.230469 454.949219 334.878906 435.386719 376.183594 C 427.910156 391.96875 437.050781 401.105469 447.851563 384.488281 C 461.671875 361.691406 457.089844 334.976563 496.199219 307.15625 C 496.625 306.851563 496.910156 307.007813 496.628906 307.386719 C 462.621094 352.71875 476.890625 372.65625 460.972656 395.738281 C 435.96875 430.746094 405.957031 437.351563 385.542969 475.871094 C 376.191406 493.519531 389.210938 494.886719 394.863281 485.453125 C 406.050781 470.542969 420.351563 435.800781 445.621094 422.6875 C 445.917969 422.53125 446.125 422.660156 445.929688 422.875 C 416.570313 454.929688 425.707031 466.460938 404.769531 493.941406 C 383.054688 522.445313 341.515625 534.851563 321.574219 563.097656 C 310.875 577.140625 321.3125 584.359375 333.097656 571.277344 C 347.972656 550.972656 354.175781 528.972656 397.691406 519.242188 C 398.160156 519.140625 398.273438 519.296875 397.867188 519.476563 C 364.238281 534.476563 365.035156 558.664063 342.054688 581.648438 C 329.796875 594.382813 313.6875 597.207031 303.859375 605.222656 C 287.929688 617.066406 281.828125 637.414063 263.199219 651.535156 C 263.199219 651.535156 263.308594 651.652344 262.621094 651.75 C 261.933594 651.847656 262.65625 651.035156 262.65625 651.035156 C 284.304688 623.417969 277.691406 594.90625 286.703125 560.726563 C 297.09375 521.910156 327.945313 501.144531 325.855469 459.605469 C 325.820313 458.941406 326 458.914063 326.128906 459.566406 C 336.085938 509.953125 317.550781 519.167969 305.660156 547.042969 C 300.289063 558.917969 307.957031 567.53125 320.507813 548.242188 C 333.679688 523.097656 325.441406 505.742188 337.363281 483.632813 C 348.28125 466.699219 373.695313 445.261719 375.488281 411.332031 C 375.507813 411.050781 375.644531 411.039063 375.691406 411.320313 C 383.1875 451.796875 357.164063 472.964844 348.601563 488.847656 C 343.082031 498.789063 355.511719 507.398438 362.644531 497.277344 C 380.71875 475.480469 375.089844 425.035156 385.523438 394.535156 C 395.816406 364.585938 412.164063 359.300781 413.976563 313.320313 C 413.988281 312.96875 414.207031 312.855469 414.300781 313.148438 C 423.597656 342.691406 411.234375 373.425781 400.371094 396.140625 C 395.554688 407.78125 406.792969 412.195313 414.617188 398.613281 C 433.683594 359.21875 420.285156 350.304688 426.933594 306.269531 C 429.234375 285.261719 460.21875 254.582031 447.855469 213.996094 C 447.6875 213.445313 447.933594 213.234375 448.222656 213.683594 C 472.28125 250.648438 450.074219 279.390625 443.90625 306.269531 C 440.503906 323.101563 458.050781 322.773438 460.882813 307.6875 C 466.082031 281.644531 465.785156 227.984375 459.769531 187.050781 C 456.984375 158.835938 471.125 129.4375 441.785156 103.148438 C 441.496094 102.890625 441.597656 102.703125 441.9375 102.871094 C 478.273438 120.824219 471.113281 154.90625 473.414063 176.214844 C 476.242188 198.847656 491.472656 192.269531 488.699219 177.542969 C 479.433594 114.410156 468.195313 99.964844 432.480469 81.503906 C 407.933594 69.230469 410.421875 50.53125 371.0625 44.800781 C 370.519531 44.722656 370.542969 44.558594 371.101563 44.554688 C 417.367188 44.320313 418.199219 60.148438 438.246094 71.917969 C 445.96875 74.757813 454.148438 61.035156 437.304688 53.058594 C 406.183594 37.023438 379.503906 33.746094 348.199219 39.363281 C 321.234375 46.105469 291.527344 49.320313 266.109375 82.039063 C 265.804688 82.433594 265.691406 82.269531 265.941406 81.792969 C 289.972656 36.191406 326.71875 38.070313 344.882813 29.480469 C 355.019531 24.113281 354.621094 14.882813 341.109375 17.222656 C 323.765625 19.929688 299.050781 50.171875 267.53125 48.246094 C 267.265625 48.230469 267.269531 48.078125 267.535156 48.019531 C 300.613281 40.792969 312.242188 13.777344 337.765625 7.660156 C 374.238281 1.386719 392.316406 32.378906 427.402344 34.667969 C 440.65625 35.53125 437.296875 24.914063 428.816406 22.878906 C 403.785156 16.160156 381.632813 24.320313 362.519531 0.492188 C 362.292969 0.210938 362.40625 -0.00390625 362.6875 0.171875 C 391.871094 18.632813 409.066406 5.121094 440.136719 13.449219 C 477.722656 24.289063 482.101563 106.8125 493.890625 133.21875 C 499.546875 144.535156 506.792969 139.492188 506.320313 130.0625 C 502.585938 88.9375 479.839844 99.765625 481.394531 51.511719 C 481.410156 51.078125 481.613281 51.058594 481.703125 51.480469 C 490.035156 90.820313 516.390625 95.136719 519.566406 131.265625 C 521.449219 152.015625 486.476563 218.636719 478.585938 260.710938 C 475.421875 276.949219 491.070313 284.976563 492.945313 268.078125 C 495.863281 237.488281 491.816406 218.066406 513.367188 183.949219 C 513.558594 183.644531 513.734375 183.734375 513.632813 184.078125 Z M 233.761719 560.726563 C 223.320313 521.710938 192.199219 500.925781 194.648438 458.949219 C 194.671875 458.5 194.5625 458.453125 194.476563 458.878906 C 184.21875 509.867188 202.863281 519.039063 214.808594 547.042969 C 220.175781 558.917969 212.511719 567.53125 199.960938 548.242188 C 186.785156 523.097656 195.027344 505.742188 183.105469 483.632813 C 172.191406 466.710938 146.800781 445.285156 144.976563 411.386719 C 144.960938 411.085938 144.816406 411.089844 144.761719 411.394531 C 137.308594 451.820313 163.308594 472.976563 171.867188 488.847656 C 177.386719 498.789063 164.957031 507.398438 157.820313 497.277344 C 139.75 475.480469 145.378906 425.035156 134.945313 394.535156 C 124.628906 364.527344 108.242188 359.277344 106.480469 313.0625 C 106.46875 312.796875 106.277344 312.800781 106.191406 313.066406 C 96.847656 342.632813 109.222656 373.40625 120.097656 396.140625 C 124.910156 407.78125 113.675781 412.195313 105.847656 398.613281 C 86.785156 359.21875 100.183594 350.304688 93.535156 306.269531 C 91.214844 285.097656 59.761719 254.105469 72.910156 213.046875 C 72.984375 212.808594 72.828125 212.796875 72.675781 213.027344 C 47.921875 250.308594 70.351563 279.234375 76.5625 306.269531 C 79.964844 323.101563 62.414063 322.773438 59.585938 307.6875 C 54.386719 281.644531 54.679688 227.984375 60.699219 187.050781 C 63.480469 158.847656 49.355469 129.46875 78.640625 103.1875 C 78.941406 102.914063 78.71875 102.777344 78.304688 102.980469 C 42.222656 120.964844 49.347656 154.949219 47.054688 176.214844 C 44.226563 198.847656 28.996094 192.269531 31.765625 177.542969 C 41.035156 114.410156 52.273438 99.964844 87.988281 81.503906 C 112.597656 69.199219 110.035156 50.433594 149.71875 44.753906 C 150.160156 44.691406 150.164063 44.558594 149.722656 44.554688 C 103.105469 44.238281 102.316406 60.117188 82.21875 71.917969 C 74.5 74.757813 66.320313 61.035156 83.164063 53.058594 C 114.285156 37.023438 140.964844 33.746094 172.269531 39.363281 C 199.328125 46.128906 229.148438 49.339844 254.621094 82.382813 C 254.839844 82.664063 254.910156 82.527344 254.726563 82.175781 C 230.699219 36.183594 193.800781 38.09375 175.585938 29.480469 C 165.445313 24.113281 165.847656 14.882813 179.355469 17.222656 C 196.585938 19.910156 221.085938 49.769531 252.3125 48.28125 C 252.785156 48.261719 252.730469 47.980469 252.234375 47.863281 C 219.691406 40.410156 208.046875 13.734375 182.703125 7.660156 C 146.226563 1.386719 128.148438 32.378906 93.066406 34.667969 C 79.8125 35.53125 83.175781 24.914063 91.648438 22.878906 C 116.761719 16.140625 138.972656 24.371094 158.121094 0.269531 C 158.289063 0.0585938 158.140625 -0.0546875 157.898438 0.0976563 C 128.640625 18.671875 111.445313 5.109375 80.332031 13.449219 C 42.742188 24.289063 38.367188 106.8125 26.578125 133.21875 C 20.917969 144.535156 13.675781 139.492188 14.144531 130.0625 C 17.882813 88.953125 40.605469 99.757813 39.078125 51.578125 C 39.0625 51.121094 38.835938 51.152344 38.734375 51.621094 C 30.371094 90.832031 4.074219 95.179688 0.902344 131.265625 C -0.984375 152.015625 33.992188 218.636719 41.882813 260.710938 C 45.046875 276.949219 29.394531 284.976563 27.523438 268.078125 C 24.613281 237.558594 28.628906 218.152344 7.242188 184.175781 C 7.003906 183.796875 6.785156 183.902344 6.910156 184.328125 C 19.515625 226.660156 7.3125 240.582031 13.847656 272.792969 C 21.769531 302.230469 65.515625 334.878906 85.078125 376.183594 C 92.554688 391.96875 83.417969 401.105469 72.621094 384.488281 C 58.730469 361.585938 63.421875 334.734375 23.742188 306.78125 C 23.488281 306.601563 23.359375 306.75 23.550781 307.003906 C 57.921875 352.605469 43.53125 372.59375 59.496094 395.738281 C 84.5 430.746094 114.511719 437.351563 134.925781 475.871094 C 144.277344 493.519531 131.261719 494.886719 125.601563 485.453125 C 114.402344 470.523438 100.078125 435.703125 74.742188 422.632813 C 74.476563 422.492188 74.265625 422.574219 74.425781 422.75 C 103.921875 454.898438 94.734375 466.425781 115.699219 493.941406 C 137.414063 522.445313 178.953125 534.851563 198.890625 563.097656 C 209.589844 577.140625 199.15625 584.359375 187.371094 571.277344 C 172.585938 551.097656 166.371094 529.238281 123.566406 519.421875 C 122.84375 519.257813 122.640625 519.492188 123.261719 519.777344 C 156.214844 534.796875 155.585938 558.816406 178.414063 581.648438 C 190.671875 594.382813 206.78125 597.207031 216.605469 605.222656 C 232.460938 617.007813 238.441406 637.207031 256.835938 651.316406 C 256.835938 651.316406 257.285156 651.488281 257.449219 651.226563 C 257.613281 650.964844 257.335938 650.617188 257.335938 650.617188 C 236.089844 623.132813 242.730469 594.730469 233.761719 560.726563 "/>
</g>
</svg>
