<?xml version="1.0" encoding="UTF-8"?>
<svg xmlns="http://www.w3.org/2000/svg" xmlns:xlink="http://www.w3.org/1999/xlink" width="547pt" height="180pt" viewBox="0 0 547 180" version="1.1">
<g id="surface1">
<path style=" stroke:none;fill-rule:nonzero;fill:rgb(0%,0%,0%);fill-opacity:1;" d="M 174.8125 54.847656 C 173.527344 74.585938 195.511719 70.699219 195.511719 65.144531 C 222.230469 78.988281 216.53125 38.847656 213.011719 38.046875 L 210.414063 43.546875 C 207.511719 48.945313 202.113281 52.347656 195.714844 51.445313 C 190.8125 50.746094 185.914063 47.144531 184.714844 42.144531 C 183.214844 35.546875 185.613281 29.144531 191.214844 25.046875 C 195.3125 23.246094 199.214844 22.445313 204.113281 23.144531 C 220.3125 28.847656 233.011719 42.945313 248.511719 50.246094 L 249.714844 51.746094 C 236.21875 54.636719 244.160156 68.796875 250.414063 66.644531 C 239.070313 80.285156 266.789063 84.429688 262.714844 71.445313 C 274.5625 77.433594 277.414063 66.847656 277.613281 64.246094 C 274.714844 63.445313 271.3125 63.746094 268.414063 63.046875 C 265.714844 61.546875 263.613281 58.945313 263.214844 56.246094 C 275.8125 60.945313 287.515625 54.746094 297.515625 48.644531 C 309.714844 57.347656 317.015625 70.746094 331.3125 75.445313 C 349.015625 79.546875 358.515625 62.546875 371.414063 52.945313 C 374.714844 51.144531 379.214844 52.246094 382.714844 52.945313 C 382.714844 52.945313 380.515625 40.746094 365.914063 42.347656 C 364.515625 37.539063 352.019531 32.097656 346.714844 44.746094 C 346.714844 44.746094 331.113281 39.613281 331.113281 52.945313 C 344.507813 49.195313 340.660156 71.695313 330.414063 62.046875 C 316.519531 48.96875 301.8125 34.746094 282.8125 31.546875 C 273.113281 30.046875 258.5 37.28125 254.8125 45.746094 C 247.914063 41.746094 241.011719 34.847656 241.8125 26.246094 C 242.511719 21.347656 247.414063 17.445313 251.914063 16.246094 C 255.8125 15.445313 259.414063 17.046875 262.214844 19.847656 C 264.011719 22.347656 262.8125 26.347656 263.214844 29.144531 C 284.925781 12.929688 261.765625 0.394531 256.714844 5.445313 C 256.714844 1.269531 240.105469 -6.761719 236.011719 9.246094 C 219.382813 2.046875 216.492188 13.226563 218.011719 19.847656 L 217.8125 19.847656 C 205.714844 14.644531 190.972656 11.886719 178.011719 17.144531 C 152.023438 27.695313 162.128906 57.488281 174.8125 54.847656 Z M 355.3125 44.546875 C 357.613281 44.445313 359.3125 46.144531 360.113281 48.144531 C 361.714844 55.644531 348.613281 63.445313 348.613281 63.445313 C 349.8125 56.746094 347.3125 47.246094 355.3125 44.546875 Z M 283.613281 42.644531 C 278.515625 46.546875 272.214844 48.644531 265.113281 48.347656 C 269.3125 42.847656 276.8125 40.945313 283.613281 42.644531 "/>
<path style=" stroke:none;fill-rule:nonzero;fill:rgb(0%,0%,0%);fill-opacity:1;" d="M 531.609375 148.644531 C 530.414063 144.535156 519.734375 139.886719 515.195313 150.695313 C 515.195313 150.695313 501.859375 146.308594 501.859375 157.710938 C 513.3125 154.503906 510.023438 173.738281 501.261719 165.488281 C 489.386719 154.308594 476.8125 142.148438 460.570313 139.410156 C 452.28125 138.128906 439.785156 144.316406 436.636719 151.554688 C 430.738281 148.132813 424.839844 142.234375 425.523438 134.882813 C 426.121094 130.691406 430.308594 127.359375 434.15625 126.332031 C 437.488281 125.648438 440.566406 127.015625 442.960938 129.410156 C 444.5 131.546875 443.476563 134.96875 443.816406 137.359375 C 462.375 123.496094 442.578125 112.78125 438.261719 117.101563 C 438.261719 113.53125 424.0625 106.667969 420.566406 120.347656 C 406.347656 114.195313 403.878906 123.75 405.179688 129.410156 L 405.007813 129.410156 C 394.660156 124.964844 382.058594 122.605469 370.984375 127.101563 C 359.355469 131.820313 356.179688 141.046875 357.347656 148.445313 C 356.355469 148.382813 354.777344 148.371094 353.605469 148.5 C 352.410156 144.390625 341.730469 139.738281 337.195313 150.550781 C 337.195313 150.550781 323.859375 146.160156 323.859375 157.5625 C 335.308594 154.355469 332.019531 173.589844 323.261719 165.339844 C 311.386719 154.160156 298.8125 142 282.566406 139.265625 C 274.277344 137.984375 261.785156 144.167969 258.632813 151.40625 C 252.734375 147.984375 246.835938 142.085938 247.519531 134.734375 C 248.117188 130.546875 252.308594 127.210938 256.152344 126.1875 C 259.488281 125.503906 262.566406 126.871094 264.960938 129.265625 C 266.496094 131.402344 265.472656 134.820313 265.8125 137.214844 C 284.371094 123.351563 264.578125 112.636719 260.257813 116.953125 C 260.257813 113.386719 246.0625 106.519531 242.5625 120.203125 C 228.382813 114.050781 225.914063 123.605469 227.214844 129.265625 L 227.042969 129.265625 C 216.699219 124.820313 204.097656 122.460938 193.019531 126.957031 C 181.121094 131.785156 178.074219 141.332031 179.472656 148.8125 C 178.472656 148.75 177.027344 148.742188 175.84375 148.871094 C 174.648438 144.761719 163.96875 140.113281 159.429688 150.921875 C 159.429688 150.921875 146.097656 146.535156 146.097656 157.980469 C 157.546875 154.753906 154.257813 174.007813 145.496094 165.761719 C 133.621094 154.554688 121.046875 142.375 104.804688 139.636719 C 96.515625 138.355469 84.023438 144.539063 80.871094 151.78125 C 74.972656 148.355469 69.074219 142.460938 69.757813 135.105469 C 70.355469 130.917969 74.542969 127.585938 78.390625 126.558594 C 81.726563 125.875 84.800781 127.242188 87.195313 129.636719 C 88.734375 131.773438 87.710938 135.195313 88.050781 137.585938 C 106.609375 123.722656 86.8125 113.007813 82.492188 117.328125 C 82.492188 113.757813 68.296875 106.894531 64.800781 120.574219 C 50.582031 114.421875 48.113281 123.976563 49.410156 129.636719 L 49.242188 129.636719 C 38.898438 125.191406 26.292969 122.832031 15.21875 127.328125 C -7 136.347656 1.636719 161.863281 12.480469 159.605469 C 11.382813 176.480469 30.175781 173.160156 30.175781 168.410156 C 53.015625 180.246094 48.144531 145.878906 45.136719 145.195313 L 42.914063 149.898438 C 40.433594 154.535156 35.820313 157.464844 30.347656 156.6875 C 26.160156 156.085938 21.96875 152.988281 20.945313 148.699219 C 19.664063 143.058594 21.714844 137.585938 26.5 134.082031 C 30.007813 132.542969 33.339844 131.859375 37.53125 132.457031 C 51.378906 137.332031 62.234375 149.382813 75.484375 155.65625 L 76.511719 156.945313 C 64.976563 159.425781 71.765625 171.53125 77.109375 169.691406 C 67.410156 181.351563 91.109375 184.894531 87.625 173.796875 C 97.753906 178.917969 100.191406 169.863281 100.359375 167.640625 C 97.882813 166.957031 94.976563 167.214844 92.496094 166.613281 C 90.1875 165.332031 88.394531 163.109375 88.050781 160.800781 C 98.824219 164.820313 108.824219 159.519531 117.371094 154.277344 C 127.800781 161.742188 134.042969 173.199219 146.265625 177.214844 C 161.398438 180.71875 169.519531 166.1875 180.546875 157.980469 C 181.433594 157.492188 182.765625 157.242188 183.792969 157.15625 C 185.652344 158.847656 187.914063 159.679688 190.285156 159.183594 C 189.183594 176.058594 207.980469 172.738281 207.980469 167.988281 C 230.820313 179.824219 225.945313 145.507813 222.9375 144.824219 L 220.71875 149.523438 C 218.238281 154.140625 213.621094 157.046875 208.148438 156.277344 C 203.960938 155.679688 199.773438 152.601563 198.746094 148.328125 C 197.464844 142.683594 199.515625 137.214844 204.304688 133.710938 C 207.808594 132.171875 211.140625 131.488281 215.332031 132.085938 C 229.179688 136.957031 239.996094 149.011719 253.246094 155.253906 L 254.273438 156.535156 C 242.738281 159.007813 249.527344 171.113281 254.871094 169.273438 C 245.175781 180.933594 268.871094 184.476563 265.386719 173.375 C 275.515625 178.496094 277.953125 169.445313 278.125 167.21875 C 275.644531 166.535156 272.738281 166.792969 270.257813 166.195313 C 267.949219 164.910156 266.15625 162.691406 265.8125 160.382813 C 276.585938 164.402344 286.585938 159.097656 295.136719 153.886719 C 305.5625 161.324219 311.804688 172.777344 324.027344 176.792969 C 339.160156 180.300781 347.28125 165.769531 358.308594 157.5625 C 359.09375 157.136719 360.355469 156.925781 361.257813 156.820313 C 363.203125 158.835938 365.660156 159.871094 368.246094 159.332031 C 367.148438 176.207031 385.941406 172.886719 385.941406 168.140625 C 408.78125 179.972656 403.910156 145.652344 400.902344 144.96875 L 398.679688 149.667969 C 396.203125 154.289063 391.585938 157.195313 386.113281 156.425781 C 381.925781 155.828125 377.734375 152.75 376.710938 148.472656 C 375.429688 142.832031 377.480469 137.359375 382.265625 133.855469 C 385.769531 132.316406 389.105469 131.632813 393.296875 132.230469 C 407.144531 137.105469 418 149.15625 431.25 155.402344 L 432.277344 156.683594 C 420.742188 159.15625 427.53125 171.261719 432.875 169.421875 C 423.179688 181.082031 446.875 184.625 443.390625 173.523438 C 453.515625 178.644531 455.957031 169.59375 456.128906 167.367188 C 453.648438 166.683594 450.738281 166.941406 448.261719 166.34375 C 445.953125 165.058594 444.160156 162.839844 443.816406 160.53125 C 454.585938 164.546875 464.589844 159.246094 473.140625 154.03125 C 483.566406 161.46875 489.808594 172.925781 502.03125 176.945313 C 517.164063 180.449219 525.285156 165.914063 536.3125 157.710938 C 539.132813 156.171875 542.980469 157.109375 545.972656 157.710938 C 545.972656 157.710938 544.09375 147.277344 531.609375 148.644531 Z M 89.675781 154.019531 C 93.265625 149.296875 99.675781 147.671875 105.488281 149.128906 C 101.128906 152.46875 95.746094 154.277344 89.675781 154.019531 Z M 161.054688 166.957031 C 162.082031 161.230469 159.945313 153.074219 166.78125 150.75 C 168.75 150.664063 170.203125 152.128906 170.886719 153.847656 C 172.253906 160.289063 161.054688 166.957031 161.054688 166.957031 Z M 267.4375 153.628906 C 271.027344 148.925781 277.4375 147.300781 283.253906 148.753906 C 278.894531 152.089844 273.507813 153.886719 267.4375 153.628906 Z M 338.816406 166.535156 C 339.84375 160.808594 337.707031 152.6875 344.546875 150.378906 C 346.511719 150.292969 347.964844 151.746094 348.648438 153.457031 C 350.015625 159.867188 338.816406 166.535156 338.816406 166.535156 Z M 445.441406 153.777344 C 449.03125 149.074219 455.441406 147.449219 461.257813 148.902344 C 456.894531 152.238281 451.511719 154.03125 445.441406 153.777344 Z M 516.820313 166.683594 C 517.847656 160.957031 515.710938 152.835938 522.546875 150.523438 C 524.515625 150.441406 525.96875 151.894531 526.652344 153.605469 C 528.019531 160.019531 516.820313 166.683594 516.820313 166.683594 "/>
</g>
</svg>
