<?xml version="1.0" encoding="UTF-8"?>
<svg xmlns="http://www.w3.org/2000/svg" xmlns:xlink="http://www.w3.org/1999/xlink" width="533pt" height="183pt" viewBox="0 0 533 183" version="1.1">
<g id="surface1">
<path style=" stroke:none;fill-rule:nonzero;fill:rgb(0%,0%,0%);fill-opacity:1;" d="M 488.265625 145.28125 C 494.488281 132.132813 505.128906 148.566406 514.640625 143.203125 C 509.105469 142.164063 505.277344 138.640625 500.890625 134.46875 C 493.988281 127.910156 483.871094 137.808594 485.148438 141.128906 C 480.21875 136.199219 473.90625 133.257813 468.976563 128.5 C 466.296875 125.820313 468.414063 105.269531 483.9375 117.519531 C 486.617188 118.296875 489.472656 118.816406 492.242188 117.691406 C 485.496094 116.824219 482.492188 109.65625 476.242188 107.917969 C 463.980469 104.511719 459.226563 124.175781 464.996094 128.242188 L 457.992188 126.597656 C 438.359375 123.140625 429.019531 144.242188 413.539063 152.109375 C 425.992188 152.882813 433.644531 139.261719 442.8125 134.769531 C 442.8125 134.769531 437.582031 142.769531 435.765625 147.613281 C 432.394531 147.613281 428.761719 147.785156 426.859375 150.902344 C 426.804688 152.585938 426.644531 154.230469 426.386719 155.84375 C 419.746094 158.898438 403.292969 163.367188 385.179688 145.265625 C 391.410156 132.121094 402.046875 148.554688 411.558594 143.191406 C 406.023438 142.152344 402.195313 138.628906 397.808594 134.457031 C 390.90625 127.898438 380.792969 137.796875 382.066406 141.113281 C 377.140625 136.1875 370.824219 133.246094 365.894531 128.488281 C 363.214844 125.808594 365.332031 105.257813 380.855469 117.503906 C 383.535156 118.285156 386.394531 118.800781 389.160156 117.679688 C 382.414063 116.8125 379.410156 109.640625 373.160156 107.90625 C 360.902344 104.5 356.144531 124.164063 361.914063 128.230469 L 354.910156 126.585938 C 335.28125 123.128906 325.9375 144.230469 310.457031 152.09375 C 322.910156 152.867188 330.5625 139.25 339.730469 134.757813 C 339.730469 134.757813 334.5 142.757813 332.6875 147.601563 C 329.3125 147.601563 325.679688 147.773438 323.777344 150.890625 C 323.726563 152.480469 323.582031 154.035156 323.347656 155.5625 C 316.726563 158.617188 300.246094 163.125 282.113281 144.996094 C 288.34375 131.847656 298.980469 148.28125 308.492188 142.917969 C 302.957031 141.878906 299.132813 138.355469 294.738281 134.183594 C 287.839844 127.628906 277.726563 137.523438 279 140.84375 C 274.070313 135.914063 267.757813 132.972656 262.847656 128.214844 C 260.164063 125.535156 262.285156 104.984375 277.789063 117.230469 C 280.472656 118.011719 283.324219 118.53125 286.09375 117.40625 C 279.347656 116.539063 276.34375 109.367188 270.09375 107.632813 C 257.851563 104.226563 253.09375 123.890625 258.867188 127.957031 L 251.863281 126.3125 C 232.230469 122.855469 222.890625 143.957031 207.410156 151.824219 C 219.863281 152.597656 227.515625 138.976563 236.683594 134.484375 C 236.683594 134.484375 231.453125 142.484375 229.636719 147.328125 C 226.261719 147.328125 222.632813 147.503906 220.730469 150.617188 C 220.671875 152.328125 220.507813 154.003906 220.242188 155.636719 C 213.695313 158.695313 197.132813 163.363281 178.890625 145.132813 C 185.117188 131.984375 195.757813 148.417969 205.269531 143.054688 C 199.734375 142.019531 195.90625 138.492188 191.519531 134.320313 C 184.617188 127.765625 174.503906 137.660156 175.777344 140.980469 C 170.847656 136.050781 164.535156 133.109375 159.605469 128.355469 C 156.925781 125.671875 159.042969 105.121094 174.566406 117.371094 C 177.246094 118.148438 180.101563 118.667969 182.871094 117.542969 C 176.125 116.679688 173.121094 109.507813 166.871094 107.769531 C 154.609375 104.367188 149.855469 124.03125 155.628906 128.09375 L 148.621094 126.453125 C 128.988281 122.992188 119.648438 144.09375 104.167969 151.960938 C 116.621094 152.734375 124.273438 139.113281 133.441406 134.621094 C 133.441406 134.621094 128.210938 142.625 126.394531 147.46875 C 123.023438 147.46875 119.390625 147.640625 117.488281 150.753906 C 117.433594 152.472656 117.269531 154.152344 117 155.789063 C 110.292969 158.84375 93.933594 163.15625 75.921875 145.15625 C 82.148438 132.011719 92.785156 148.441406 102.300781 143.082031 C 96.765625 142.042969 92.9375 138.515625 88.550781 134.34375 C 81.648438 127.789063 71.535156 137.6875 72.808594 141.003906 C 67.878906 136.074219 61.566406 133.132813 56.636719 128.378906 C 53.957031 125.695313 56.074219 105.144531 71.597656 117.394531 C 74.28125 118.171875 77.132813 118.691406 79.902344 117.566406 C 73.15625 116.703125 70.152344 109.53125 63.902344 107.792969 C 51.640625 104.390625 46.886719 124.054688 52.65625 128.117188 L 45.652344 126.472656 C 26.019531 123.015625 16.679688 144.117188 1.199219 151.984375 C 13.652344 152.757813 21.304688 139.136719 30.472656 134.644531 C 30.472656 134.644531 25.242188 142.648438 23.425781 147.488281 C 20.054688 147.488281 16.421875 147.664063 14.519531 150.777344 C 14.171875 161.402344 9.675781 170.570313 2.496094 178.179688 C 5.609375 177.402344 8.898438 176.277344 12.011719 175.84375 C 11.664063 177.835938 10.28125 179.390625 9.675781 181.292969 C 13.828125 179.652344 17.890625 176.96875 20.746094 173.164063 C 21.265625 173.945313 24.378906 181.292969 26.539063 182.9375 C 28.703125 179.480469 30.691406 175.84375 31.730469 171.953125 C 35.449219 173.855469 38.472656 178.355469 42.539063 178.355469 C 41.675781 177.144531 40.636719 175.761719 40.636719 174.460938 C 42.796875 175.15625 45.132813 176.453125 47.035156 176.539063 C 43.40625 171.003906 40.550781 164.601563 40.636719 158.03125 C 43.75 159.761719 47.902344 160.363281 51.621094 159.5 C 44.585938 158.460938 29.9375 143.621094 47.035156 132.960938 C 53.609375 131.320313 59.40625 134.34375 64.332031 137.457031 C 62.257813 138.410156 59.492188 137.371094 57.414063 138.324219 C 49.542969 140.832031 55.082031 150.863281 48.765625 154.742188 C 56.289063 155.175781 56.378906 147.144531 60.183594 142.90625 C 61.910156 142.128906 63.554688 140.484375 65.71875 141.4375 C 72.289063 144.550781 77.566406 151.121094 83.1875 156.128906 C 69.609375 153.359375 62.605469 168.40625 49.371094 166.507813 C 50.757813 167.976563 53.089844 168.925781 55.167969 169.617188 C 66.324219 172.992188 73.070313 161.75 83.015625 160.105469 C 101.996094 164.648438 112.027344 160.816406 116.675781 157.535156 C 115.039063 165.328125 111.070313 172.21875 105.464844 178.160156 C 108.578125 177.382813 111.867188 176.257813 114.980469 175.824219 C 114.632813 177.8125 113.25 179.371094 112.644531 181.273438 C 116.796875 179.628906 120.859375 176.949219 123.714844 173.144531 C 124.234375 173.921875 127.347656 181.273438 129.507813 182.914063 C 131.671875 179.457031 133.660156 175.824219 134.699219 171.929688 C 138.417969 173.835938 141.445313 178.332031 145.507813 178.332031 C 144.644531 177.121094 143.605469 175.738281 143.605469 174.441406 C 145.769531 175.132813 148.101563 176.429688 150.007813 176.515625 C 146.371094 170.980469 143.519531 164.582031 143.605469 158.007813 C 146.71875 159.738281 150.871094 160.34375 154.589844 159.480469 C 147.554688 158.441406 132.90625 143.597656 150.007813 132.9375 C 156.578125 131.292969 162.371094 134.320313 167.304688 137.433594 C 165.226563 138.386719 162.460938 137.347656 160.382813 138.300781 C 152.515625 140.808594 158.050781 150.839844 151.734375 154.722656 C 159.261719 155.15625 159.347656 147.121094 163.152344 142.882813 C 164.882813 142.105469 166.523438 140.460938 168.6875 141.414063 C 175.257813 144.527344 180.535156 151.097656 186.15625 156.105469 C 172.578125 153.339844 165.574219 168.386719 152.339844 166.484375 C 153.726563 167.953125 156.058594 168.90625 158.136719 169.597656 C 169.292969 172.96875 176.039063 161.726563 185.984375 160.085938 C 205.335938 164.710938 215.40625 160.621094 219.9375 157.296875 C 218.316406 165.136719 214.335938 172.058594 208.707031 178.027344 C 211.820313 177.25 215.105469 176.125 218.21875 175.691406 C 217.875 177.679688 216.488281 179.238281 215.886719 181.140625 C 220.035156 179.5 224.101563 176.816406 226.953125 173.011719 C 227.472656 173.789063 230.589844 181.140625 232.75 182.785156 C 234.910156 179.324219 236.898438 175.691406 237.9375 171.800781 C 241.65625 173.703125 244.683594 178.199219 248.75 178.199219 C 247.886719 176.988281 246.847656 175.605469 246.847656 174.308594 C 249.007813 175 251.34375 176.300781 253.246094 176.386719 C 249.613281 170.847656 246.761719 164.449219 246.847656 157.875 C 249.960938 159.605469 254.109375 160.210938 257.828125 159.347656 C 250.792969 158.308594 236.148438 143.460938 253.246094 132.800781 C 259.820313 131.15625 265.601563 134.183594 270.523438 137.296875 C 268.449219 138.246094 265.6875 137.210938 263.625 138.160156 C 255.753906 140.671875 261.289063 150.703125 254.976563 154.589844 C 262.5 155.023438 262.589844 146.984375 266.375 142.746094 C 268.105469 141.96875 269.746094 140.324219 271.910156 141.273438 C 278.480469 144.390625 283.757813 150.960938 289.378906 155.972656 C 275.800781 153.199219 268.796875 168.253906 255.582031 166.351563 C 256.964844 167.824219 259.300781 168.773438 261.375 169.464844 C 272.515625 172.839844 279.261719 161.59375 289.207031 159.953125 C 308.421875 164.546875 318.476563 160.554688 323.050781 157.246094 C 321.472656 165.210938 317.460938 172.242188 311.753906 178.292969 C 314.871094 177.515625 318.15625 176.390625 321.269531 175.957031 C 320.925781 177.949219 319.539063 179.503906 318.933594 181.40625 C 323.085938 179.761719 327.148438 177.082031 330.003906 173.277344 C 330.523438 174.054688 333.636719 181.40625 335.800781 183.050781 C 337.960938 179.589844 339.949219 175.957031 340.988281 172.066406 C 344.707031 173.96875 347.734375 178.464844 351.796875 178.464844 C 350.933594 177.253906 349.894531 175.871094 349.894531 174.574219 C 352.058594 175.265625 354.394531 176.5625 356.296875 176.648438 C 352.664063 171.113281 349.808594 164.714844 349.894531 158.140625 C 353.011719 159.871094 357.160156 160.476563 360.878906 159.613281 C 353.84375 158.574219 339.195313 143.734375 356.296875 133.074219 C 362.867188 131.429688 368.664063 134.457031 373.59375 137.570313 C 371.519531 138.519531 368.75 137.484375 366.671875 138.433594 C 358.804688 140.941406 364.339844 150.976563 358.023438 154.855469 C 365.550781 155.289063 365.636719 147.257813 369.441406 143.019531 C 371.171875 142.238281 372.8125 140.597656 374.976563 141.546875 C 381.550781 144.660156 386.824219 151.234375 392.445313 156.238281 C 378.867188 153.472656 371.863281 168.519531 358.632813 166.617188 C 360.015625 168.085938 362.347656 169.039063 364.425781 169.730469 C 375.582031 173.105469 382.328125 161.859375 392.273438 160.21875 C 411.484375 164.8125 421.496094 160.851563 426.074219 157.546875 C 424.453125 165.394531 420.472656 172.328125 414.839844 178.304688 C 417.949219 177.523438 421.238281 176.398438 424.351563 175.96875 C 424.003906 177.957031 422.621094 179.515625 422.015625 181.417969 C 426.167969 179.773438 430.230469 177.09375 433.085938 173.285156 C 433.605469 174.066406 436.71875 181.417969 438.878906 183.058594 C 441.039063 179.601563 443.03125 175.96875 444.066406 172.074219 C 447.789063 173.980469 450.8125 178.476563 454.878906 178.476563 C 454.015625 177.265625 452.976563 175.882813 452.976563 174.582031 C 455.140625 175.277344 457.472656 176.574219 459.378906 176.660156 C 455.742188 171.125 452.890625 164.722656 452.976563 158.152344 C 456.089844 159.882813 460.242188 160.488281 463.960938 159.621094 C 456.925781 158.585938 442.277344 143.746094 459.378906 133.085938 C 465.949219 131.441406 471.742188 134.46875 476.675781 137.582031 C 474.597656 138.53125 471.832031 137.496094 469.753906 138.445313 C 461.886719 140.957031 467.417969 150.988281 461.105469 154.867188 C 468.628906 155.296875 468.71875 147.269531 472.523438 143.03125 C 474.253906 142.253906 475.894531 140.609375 478.058594 141.558594 C 484.628906 144.671875 489.90625 151.246094 495.527344 156.25 C 481.949219 153.480469 474.945313 168.53125 461.710938 166.628906 C 463.09375 168.097656 465.429688 169.046875 467.507813 169.742188 C 478.660156 173.113281 485.40625 161.871094 495.355469 160.226563 C 525.140625 167.351563 532.433594 154.195313 532.433594 154.195313 C 532.433594 154.195313 511.9375 168.941406 488.265625 145.28125 Z M 6.820313 175.675781 C 10.800781 171.523438 12.617188 166.417969 14.863281 161.574219 C 14.605469 165.382813 15.847656 175.070313 6.820313 175.675781 Z M 13.652344 176.710938 C 19.1875 168.925781 15.035156 158.980469 17.976563 150.777344 C 19.359375 149.480469 21.523438 148.355469 23.167969 149.738281 L 24.03125 150.949219 C 22.390625 160.277344 22.5625 171.089844 13.652344 176.710938 Z M 26.105469 180 C 24.203125 177.316406 23.511719 173.597656 22.5625 170.3125 C 24.03125 166.507813 24.464844 163.132813 25.675781 159.242188 C 26.019531 162.871094 28.355469 165.726563 30.085938 168.839844 C 29.394531 172.820313 28.355469 176.710938 26.105469 180 Z M 26.714844 154.050781 C 26.972656 152.15625 26.019531 149.132813 28.355469 148.703125 C 30.085938 148.441406 32.507813 148.789063 33.199219 150.777344 C 35.449219 158.117188 33.371094 168.234375 38.128906 175.066406 C 32.246094 169.101563 28.183594 162.007813 26.714844 154.050781 Z M 41.242188 169.617188 L 43.316406 174.03125 C 35.1875 167.058594 35.878906 151.640625 35.878906 151.640625 C 39.859375 156.992188 38.128906 163.910156 41.242188 169.617188 Z M 33.804688 147.230469 C 31.730469 145.847656 29.132813 146.367188 26.714844 146.796875 C 27.664063 138.324219 35.878906 133.480469 42.539063 129.847656 L 45.824219 130.019531 C 31.660156 137.292969 33.804688 147.230469 33.804688 147.230469 Z M 109.789063 175.652344 C 113.769531 171.5 115.585938 166.398438 117.835938 161.554688 C 117.574219 165.359375 118.816406 175.046875 109.789063 175.652344 Z M 116.621094 176.6875 C 122.15625 168.90625 118.007813 158.960938 120.945313 150.753906 C 122.328125 149.457031 124.492188 148.332031 126.136719 149.714844 L 127 150.925781 C 125.355469 160.257813 125.53125 171.066406 116.621094 176.6875 Z M 129.078125 179.976563 C 127.175781 177.292969 126.480469 173.574219 125.53125 170.289063 C 127 166.484375 127.433594 163.109375 128.644531 159.21875 C 128.988281 162.851563 131.324219 165.707031 133.054688 168.820313 C 132.363281 172.796875 131.324219 176.6875 129.078125 179.976563 Z M 129.683594 154.03125 C 129.941406 152.132813 128.988281 149.109375 131.324219 148.675781 C 133.054688 148.417969 135.476563 148.765625 136.167969 150.753906 C 138.417969 158.09375 136.339844 168.214844 141.097656 175.046875 C 135.21875 169.078125 131.152344 161.984375 129.683594 154.03125 Z M 144.210938 169.597656 L 146.285156 174.007813 C 138.15625 167.035156 138.847656 151.617188 138.847656 151.617188 C 142.828125 156.972656 141.097656 163.890625 144.210938 169.597656 Z M 136.773438 147.207031 C 134.699219 145.824219 132.105469 146.34375 129.683594 146.773438 C 130.632813 138.300781 138.847656 133.457031 145.507813 129.824219 L 148.796875 129.996094 C 134.628906 137.269531 136.773438 147.207031 136.773438 147.207031 Z M 213.03125 175.519531 C 217.007813 171.367188 218.824219 166.265625 221.074219 161.421875 C 220.8125 165.226563 222.058594 174.914063 213.03125 175.519531 Z M 219.863281 176.554688 C 225.398438 168.773438 221.246094 158.828125 224.1875 150.617188 C 225.570313 149.320313 227.734375 148.195313 229.378906 149.578125 L 230.242188 150.789063 C 228.597656 160.125 228.769531 170.933594 219.863281 176.554688 Z M 232.316406 179.84375 C 230.414063 177.164063 229.722656 173.445313 228.769531 170.15625 C 230.242188 166.351563 230.675781 162.980469 231.886719 159.085938 C 232.230469 162.71875 234.566406 165.574219 236.296875 168.6875 C 235.601563 172.664063 234.566406 176.554688 232.316406 179.84375 Z M 232.921875 153.894531 C 233.183594 151.996094 232.230469 148.972656 234.566406 148.539063 C 236.296875 148.28125 238.71875 148.625 239.410156 150.617188 C 241.65625 157.960938 239.582031 168.082031 244.339844 174.914063 C 238.457031 168.949219 234.394531 161.855469 232.921875 153.894531 Z M 247.453125 169.464844 L 249.527344 173.875 C 241.398438 166.90625 242.089844 151.480469 242.089844 151.480469 C 246.066406 156.839844 244.339844 163.757813 247.453125 169.464844 Z M 240.015625 147.070313 C 237.9375 145.6875 235.34375 146.203125 232.921875 146.636719 C 233.875 138.160156 242.089844 133.320313 248.75 129.6875 L 252.035156 129.859375 C 237.867188 137.132813 240.015625 147.070313 240.015625 147.070313 Z M 316.078125 175.785156 C 320.058594 171.632813 321.875 166.53125 324.121094 161.6875 C 323.863281 165.492188 325.105469 175.179688 316.078125 175.785156 Z M 322.910156 176.824219 C 328.445313 169.039063 324.296875 159.09375 327.234375 150.890625 C 328.621094 149.59375 330.78125 148.46875 332.425781 149.851563 L 333.289063 151.0625 C 331.644531 160.390625 331.820313 171.199219 322.910156 176.824219 Z M 335.367188 180.109375 C 333.464844 177.429688 332.769531 173.707031 331.820313 170.421875 C 333.289063 166.617188 333.722656 163.246094 334.933594 159.351563 C 335.28125 162.984375 337.613281 165.839844 339.34375 168.953125 C 338.652344 172.929688 337.613281 176.824219 335.367188 180.109375 Z M 335.972656 154.164063 C 336.230469 152.269531 335.28125 149.246094 337.613281 148.8125 C 339.34375 148.554688 341.765625 148.898438 342.457031 150.890625 C 344.707031 158.226563 342.632813 168.347656 347.386719 175.179688 C 341.507813 169.210938 337.441406 162.121094 335.972656 154.164063 Z M 350.5 169.730469 L 352.578125 174.140625 C 344.445313 167.167969 345.140625 151.753906 345.140625 151.753906 C 349.117188 157.105469 347.386719 164.023438 350.5 169.730469 Z M 343.0625 147.34375 C 340.988281 145.960938 338.394531 146.476563 335.972656 146.910156 C 336.925781 138.433594 345.140625 133.59375 351.796875 129.960938 L 355.085938 130.132813 C 340.917969 137.402344 343.0625 147.34375 343.0625 147.34375 Z M 419.160156 175.792969 C 423.140625 171.644531 424.953125 166.542969 427.203125 161.699219 C 426.945313 165.503906 428.1875 175.191406 419.160156 175.792969 Z M 425.992188 176.832031 C 431.527344 169.046875 427.378906 159.101563 430.316406 150.902344 C 431.703125 149.605469 433.863281 148.480469 435.507813 149.863281 L 436.371094 151.074219 C 434.730469 160.398438 434.902344 171.210938 425.992188 176.832031 Z M 438.445313 180.117188 C 436.546875 177.4375 435.851563 173.71875 434.902344 170.433594 C 436.371094 166.628906 436.804688 163.253906 438.015625 159.363281 C 438.359375 162.996094 440.695313 165.847656 442.425781 168.960938 C 441.734375 172.941406 440.695313 176.832031 438.445313 180.117188 Z M 439.054688 154.171875 C 439.3125 152.28125 438.359375 149.257813 440.695313 148.824219 C 442.425781 148.566406 444.847656 148.910156 445.539063 150.902344 C 447.789063 158.238281 445.710938 168.355469 450.46875 175.191406 C 444.589844 169.222656 440.523438 162.128906 439.054688 154.171875 Z M 453.582031 169.742188 L 455.65625 174.152344 C 447.527344 167.179688 448.21875 151.765625 448.21875 151.765625 C 452.199219 157.113281 450.46875 164.03125 453.582031 169.742188 Z M 446.144531 147.355469 C 444.066406 145.972656 441.472656 146.488281 439.054688 146.921875 C 440.003906 138.445313 448.21875 133.605469 454.878906 129.972656 L 458.164063 130.144531 C 444 137.414063 446.144531 147.355469 446.144531 147.355469 "/>
<path style=" stroke:none;fill-rule:nonzero;fill:rgb(0%,0%,0%);fill-opacity:1;" d="M 227.144531 30.917969 C 227.144531 30.917969 221.101563 40.171875 219 45.769531 C 215.101563 45.769531 210.898438 45.972656 208.699219 49.570313 C 208.300781 61.859375 203.101563 72.457031 194.800781 81.257813 C 198.398438 80.359375 202.199219 79.058594 205.800781 78.558594 C 205.398438 80.859375 203.800781 82.65625 203.101563 84.859375 C 207.898438 82.957031 212.601563 79.859375 215.898438 75.457031 C 216.5 76.359375 220.101563 84.859375 222.601563 86.757813 C 225.101563 82.757813 227.398438 78.558594 228.601563 74.058594 C 232.898438 76.257813 236.398438 81.457031 241.101563 81.457031 C 240.101563 80.058594 238.898438 78.457031 238.898438 76.957031 C 241.398438 77.757813 244.101563 79.257813 246.300781 79.359375 C 242.101563 72.957031 238.800781 65.558594 238.898438 57.957031 C 242.5 59.957031 247.300781 60.65625 251.601563 59.65625 C 243.464844 58.457031 226.527344 41.300781 246.300781 28.972656 C 253.898438 27.070313 260.601563 30.570313 266.300781 34.171875 C 263.898438 35.269531 260.699219 34.070313 258.300781 35.171875 C 249.199219 38.070313 255.601563 49.671875 248.300781 54.15625 C 257 54.65625 257.101563 45.371094 261.5 40.472656 C 263.5 39.570313 265.398438 37.671875 267.898438 38.769531 C 275.5 42.371094 281.601563 49.972656 288.101563 55.757813 C 272.398438 52.558594 264.300781 69.957031 249 67.757813 C 250.601563 69.457031 253.300781 70.558594 255.699219 71.359375 C 268.601563 75.257813 276.398438 62.257813 287.898438 60.359375 C 322.34375 68.597656 330.773438 53.382813 330.773438 53.382813 C 330.773438 53.382813 307.074219 70.433594 279.699219 43.070313 C 286.898438 27.871094 299.199219 46.871094 310.199219 40.671875 C 303.800781 39.472656 299.375 35.394531 294.300781 30.570313 C 286.320313 22.988281 274.625 34.433594 276.101563 38.269531 C 270.398438 32.570313 263.101563 29.171875 257.398438 23.671875 C 254.300781 20.570313 256.75 -3.191406 274.699219 10.972656 C 277.800781 11.871094 281.101563 12.472656 284.300781 11.171875 C 276.5 10.171875 273.027344 1.878906 265.800781 -0.128906 C 251.625 -4.066406 246.125 18.671875 252.800781 23.371094 L 244.699219 21.472656 C 222 17.472656 211.199219 41.871094 193.300781 50.96875 C 207.699219 51.863281 216.546875 36.113281 227.144531 30.917969 Z M 199.800781 78.359375 C 204.398438 73.558594 206.5 67.65625 209.101563 62.058594 C 208.800781 66.457031 210.234375 77.660156 199.800781 78.359375 Z M 207.699219 79.558594 C 214.101563 70.558594 209.300781 59.058594 212.699219 49.570313 C 214.300781 48.070313 216.800781 46.769531 218.699219 48.371094 L 219.699219 49.769531 C 217.800781 60.558594 218 73.058594 207.699219 79.558594 Z M 222.101563 83.359375 C 219.898438 80.257813 219.101563 75.957031 218 72.15625 C 219.699219 67.757813 220.199219 63.859375 221.601563 59.359375 C 222 63.558594 224.699219 66.859375 226.699219 70.457031 C 225.898438 75.058594 224.699219 79.558594 222.101563 83.359375 Z M 222.800781 53.359375 C 223.101563 51.164063 222 47.671875 224.699219 47.171875 C 226.699219 46.871094 229.5 47.269531 230.300781 49.570313 C 232.898438 58.058594 230.5 69.757813 236 77.65625 C 229.199219 70.757813 224.5 62.558594 222.800781 53.359375 Z M 239.601563 71.359375 L 242 76.457031 C 232.601563 68.398438 233.398438 50.570313 233.398438 50.570313 C 238 56.757813 236 64.757813 239.601563 71.359375 Z M 241.101563 25.371094 L 244.898438 25.570313 C 228.519531 33.980469 231 45.472656 231 45.472656 C 228.601563 43.871094 225.601563 44.472656 222.800781 44.972656 C 223.898438 35.171875 233.398438 29.570313 241.101563 25.371094 "/>
</g>
</svg>
