<?xml version="1.0" encoding="UTF-8"?>
<svg xmlns="http://www.w3.org/2000/svg" xmlns:xlink="http://www.w3.org/1999/xlink" width="525pt" height="545pt" viewBox="0 0 525 545" version="1.1">
<g id="surface1">
<path style=" stroke:none;fill-rule:nonzero;fill:rgb(0%,0%,0%);fill-opacity:1;" d="M 524.800781 393 C 520.398438 388.199219 500.601563 383.898438 496.898438 382.898438 C 503.398438 380.5 510.199219 379.101563 516.601563 376.699219 C 505.804688 374.808594 494.203125 376.140625 483.835938 376.371094 C 483.253906 376.386719 482.890625 376.058594 483.289063 375.890625 C 488.378906 373.796875 493.925781 372.394531 498.101563 368.5 C 488.699219 365.5625 475.613281 371.394531 460.5 375 C 460.898438 373.699219 461 372.664063 461.699219 371.199219 L 482.800781 362.800781 C 472 358.835938 439.835938 375.835938 439.835938 375.835938 L 441.699219 373.101563 C 451.800781 367.515625 460.570313 358.949219 471.480469 355.609375 C 473.464844 355.003906 473.4375 354.453125 470.335938 354.5 C 465.566406 354.570313 459.34375 354.726563 456.523438 353.898438 C 467.617188 349.710938 479.0625 345.953125 488.101563 337.300781 C 482.300781 338 476.398438 339.101563 470.800781 339.199219 C 477.800781 334.699219 484.800781 329.699219 492.101563 326.300781 C 488.199219 322.699219 482.699219 326 478.199219 325.300781 C 482.699219 323 499 315 502 312.101563 L 488.300781 311.898438 C 499.898438 303.300781 511.699219 294.101563 522.898438 285.300781 C 515.664063 285.5 507.199219 290.800781 499.300781 292.5 C 505.199219 287.398438 506.164063 279.835938 508.5 273.699219 C 496.699219 280.5 490.898438 292.800781 484.5 303.300781 C 483.898438 297.601563 484.5 291.398438 484 285.699219 C 478.300781 293.5 476.398438 302.898438 472.898438 311.601563 C 472.5 304.101563 472 296.398438 471.5 289.101563 C 465.355469 299.464844 463.453125 311.488281 460.390625 323.136719 C 460.261719 323.625 459.949219 323.640625 459.925781 323.164063 C 459.507813 315.5625 458.800781 308.113281 458.800781 300.398438 C 453.832031 308.449219 452.988281 331.414063 451.992188 334.808594 C 451.46875 336.601563 450.324219 338.25 448.898438 339 C 448.699219 331.800781 451.300781 324.699219 451.300781 317.898438 C 451.300781 317.898438 443.335938 332 441.160156 332.664063 C 442.34375 323.304688 444.8125 312.007813 444.398438 305.199219 C 441.40625 311.097656 438.082031 316.996094 434.804688 322.816406 C 434.46875 323.410156 434.046875 323.476563 434.203125 322.84375 C 436.273438 314.394531 441.8125 298.179688 439.300781 296.101563 C 435.609375 301.054688 432.671875 306.480469 429.300781 311.644531 C 429.199219 311.796875 428.664063 311.648438 428.742188 311.421875 C 431.585938 303.3125 433.128906 294.648438 434.101563 285.699219 C 429.496094 290.304688 425.148438 295.5 420.976563 299.804688 C 420.617188 300.179688 420.1875 299.972656 420.359375 299.511719 C 424 289.628906 435.492188 279.421875 438.898438 274.199219 C 433.699219 276.398438 428.5 279.300781 423.300781 280.699219 C 428.554688 273.566406 436.1875 267.492188 441.65625 260.324219 C 442.011719 259.855469 442.128906 259.203125 441.183594 259.695313 C 437.703125 261.515625 429.152344 265.917969 425.414063 267.257813 C 424.734375 267.503906 424.796875 266.933594 425.238281 266.589844 C 433.960938 259.796875 443.835938 249.664063 448.199219 242.300781 C 441.753906 245.386719 435.308594 249.214844 428.863281 252.066406 C 428.207031 252.355469 427.804688 252.035156 428.269531 251.59375 C 437.035156 243.234375 448.214844 232.878906 452.300781 224.300781 C 443.601563 228.199219 433.933594 231.898438 425.335938 235.5 C 425.933594 233.300781 426.699219 230.699219 427.601563 228.601563 C 441.800781 223.199219 456.699219 218.898438 468.601563 208.5 C 462 209 454.699219 210.300781 447.699219 210.101563 C 459.699219 205.5 474.664063 200.5 482.300781 193.601563 C 482.300781 193.601563 469.335938 195 467.027344 193.902344 C 476.367188 190.191406 485.253906 185.460938 493.601563 179.199219 C 486.101563 179.5 479 181.300781 471.699219 181.300781 C 476.664063 174.835938 484 162.164063 485.898438 153.300781 C 482.730469 156.222656 480.253906 159.839844 477.195313 162.699219 C 476.589844 163.265625 476.269531 162.753906 476.625 161.910156 C 478.945313 156.421875 477.847656 149.121094 477.5 143.398438 C 474.398438 153 469.601563 162.601563 462.601563 169.800781 C 462.601563 169.800781 464.835938 159.335938 463.523438 156.886719 C 456.855469 181.398438 445.933594 197.480469 432.335938 206.5 C 432.511719 205.617188 432.777344 204.597656 432.992188 203.832031 C 434.835938 202 451.554688 178.484375 454.699219 167.699219 C 454.699219 167.699219 445.144531 176.722656 440.835938 180.335938 C 439.105469 181.78125 438.648438 181.339844 440.03125 179.246094 C 448.691406 166.113281 454.054688 159.070313 460 143.898438 C 460 143.898438 449.121094 151.597656 444.664063 154.664063 C 443.546875 155.4375 443.164063 155.007813 443.589844 154.34375 C 450.09375 144.164063 459.011719 134.527344 460.898438 122.300781 C 460.898438 122.300781 450.824219 130.90625 446.132813 134.792969 C 444.648438 136.023438 444.824219 134.996094 445.347656 134.175781 C 452.386719 123.074219 459.960938 111.890625 463.601563 100 C 458.378906 104.320313 453.074219 108.886719 447.839844 112.671875 C 447.257813 113.089844 446.890625 112.617188 447.296875 111.976563 C 453.03125 102.949219 460.078125 94.066406 461.199219 83.699219 L 447 97.300781 C 450.601563 83.199219 453.5 66.199219 449.199219 51.5 C 447.398438 59.800781 445.199219 68 442.699219 76 C 442.3125 74.621094 440.609375 68.519531 440.164063 66.835938 C 438.039063 72.28125 438.625 84.335938 438.949219 89.003906 C 439.035156 90.191406 438.621094 89.910156 438.414063 89.398438 C 435.886719 83.1875 436.097656 75.359375 428.800781 71.199219 C 428 81.398438 431.898438 90.5 432.898438 100 C 429.199219 95.101563 425.664063 89 421.800781 85.300781 C 425.300781 99.898438 430.101563 113.800781 434.300781 128.101563 C 434 135.898438 432.5 145.664063 427.335938 149.835938 C 427.335938 149.835938 429.398438 132 429.300781 122.800781 L 421.300781 136.5 C 421.898438 127.601563 424 118.5 424.199219 109.601563 C 418 115.699219 415.199219 123.101563 410.300781 129.699219 C 411.800781 119.101563 413.800781 108 416.101563 97.300781 C 416.101563 97.300781 401.164063 114.664063 398.011719 121.160156 C 398.164063 117.664063 398.335938 115.335938 398.5 111.5 C 404.800781 100.398438 413.199219 89.601563 417.300781 78.101563 C 412.898438 80.101563 408.5 82.800781 404.101563 84.101563 C 410.300781 77.398438 415.699219 69.898438 421.601563 62.800781 C 413.800781 61.898438 407.898438 67.800781 400.898438 68.800781 L 420.101563 43.101563 C 412.101563 43 406.300781 48.300781 400 52.5 C 400.835938 47 417.699219 24.601563 417.699219 24.601563 C 411.4375 26.230469 406.054688 29.921875 400.421875 33.023438 C 399.921875 33.296875 399.609375 32.628906 400.164063 31.667969 C 403.175781 26.460938 413.199219 10 413.199219 10 C 405.128906 10.949219 398.589844 16.226563 392.300781 20.953125 C 392.335938 9.5 382.898438 0.398438 382.898438 0.398438 L 383.898438 16.5 C 378.800781 13.601563 373.699219 10.800781 368.800781 7.601563 C 371.800781 17.800781 377.601563 26.800781 384.101563 35.398438 C 379.335938 33.832031 373.199219 28.5 367.601563 25.300781 C 372.074219 34.34375 377.160156 43.039063 383.09375 51.386719 C 383.523438 51.992188 383.785156 52.757813 382.769531 52.019531 C 379.398438 49.570313 371.605469 43.882813 367.300781 40.5 C 371.5 51.199219 377.800781 61.101563 384.601563 70.699219 C 384.601563 70.699219 371.898438 64 365.898438 61.101563 C 368.800781 73.398438 378.398438 82.800781 386.300781 93 C 381.300781 91.5 376.300781 87.398438 370.699219 87.300781 C 374.835938 95.570313 381.46875 102.917969 386.6875 110.765625 C 386.894531 111.074219 386.757813 111.851563 386.640625 111.777344 C 376.492188 105.375 371.964844 91.558594 360.398438 88 L 363.699219 95.199219 C 359.199219 94.101563 353.5 93.398438 348.898438 93 C 355.601563 104.601563 376.898438 117.5 376.898438 117.5 C 369.519531 118.054688 361.367188 118.011719 354.261719 119.886719 C 358 127.164063 386.101563 128.5 386.101563 128.5 C 380.898438 130.800781 375 132.699219 370.5 134.800781 C 379.101563 137.199219 388 139.199219 397.300781 140.101563 C 397.800781 140.699219 398.164063 141.5 398.800781 142 C 391 141.800781 386.898438 141.898438 378.398438 142.199219 L 385.300781 146.101563 C 385.300781 146.101563 370.898438 146.800781 364.199219 147.5 L 376.199219 152.800781 C 370.398438 152.898438 363.699219 152.601563 358 153 C 361.300781 155.199219 364.601563 158.199219 367.601563 160.699219 L 351.5 161.398438 C 356.101563 163.800781 361.300781 165.199219 365.699219 167.699219 L 352.699219 180.601563 C 354.601563 180.601563 356.199219 179.300781 358 179.699219 L 350.800781 189 C 358.5 185.800781 365.398438 179.5 371.699219 174.101563 C 370.101563 180.300781 367.5 187.601563 370.199219 194.101563 C 374.5 185.199219 378.898438 176.300781 383.199219 167.398438 C 382.898438 174.601563 381.601563 182.398438 382.5 189.699219 C 386.300781 181.800781 390.199219 172.398438 393 163.300781 C 393 168.300781 393 174.5 393 179.199219 C 395.664063 175.164063 400.898438 165.199219 402.601563 157.300781 C 403.601563 160.601563 402.699219 164.898438 403.300781 168.101563 C 405.5 162.800781 407.601563 157.5 410.101563 152.300781 L 428.300781 168.398438 L 427.300781 172.199219 L 410.5 157.300781 C 413.699219 165.101563 416.800781 173.101563 419.898438 180.601563 C 414.5 177.699219 409.300781 174 403.800781 171.300781 C 406.609375 182.816406 411.855469 194.367188 415.335938 205.5 C 415.570313 206.257813 415.199219 206.824219 414.515625 206.011719 C 411.265625 202.160156 401.617188 190.78125 398.207031 187.367188 C 400.753906 196.921875 407.742188 210.886719 411.496094 222.835938 C 411.671875 223.394531 411.320313 223.660156 410.980469 223.246094 C 405.699219 216.769531 400.757813 211.09375 395.398438 206.300781 C 398.601563 215.699219 402.5 225 405 234.398438 C 399.398438 229.5 396.101563 223.601563 392.101563 218.101563 C 392.101563 218.101563 392.304688 226.359375 394.515625 231.308594 C 397.394531 237.738281 399.90625 244.398438 399.796875 251.832031 C 399.777344 253.097656 399.488281 253.214844 399.300781 251.957031 C 397.695313 241.179688 387.792969 230.007813 384.601563 227.199219 C 384.679688 230.285156 385.75 233.171875 386.042969 236.128906 C 386.109375 236.8125 385.574219 237.074219 385.316406 236.507813 C 382.03125 229.332031 379.058594 221.929688 376 214.699219 C 374.664063 218.164063 378.191406 234.84375 380.101563 243 L 366.898438 227.699219 C 368.164063 234.664063 374.800781 246 382.199219 253.800781 C 378.199219 252.601563 374.199219 250 370.199219 248.101563 C 375.078125 256.898438 381.511719 264.785156 387.839844 272.632813 C 388.125 272.988281 388.085938 273.414063 387.773438 273.269531 C 382.652344 270.882813 377.3125 268.28125 372.601563 266.300781 L 397.101563 294.898438 C 393.699219 294.5 390.398438 292.800781 387 291.699219 C 387 291.699219 381.101563 301.300781 377.699219 304.199219 C 378.101563 297.898438 378.800781 291.199219 378.898438 285.300781 C 372.699219 292.898438 370 313.101563 370 313.101563 L 366.398438 302.800781 C 365 312.703125 364.46875 323.480469 364.078125 333.335938 C 364.054688 334.03125 363.730469 334.125 363.605469 333.480469 C 362.542969 328.039063 361.761719 322.371094 358.898438 317.898438 C 357.398438 328.101563 358 338.398438 357.5 349.101563 C 356.335938 347 355 343.5 354 341.335938 L 354.398438 315.199219 C 352.800781 319.800781 350.800781 324.5 348.898438 328.699219 C 348.699219 321.199219 348.5 312.300781 347.199219 304.898438 L 342.664063 316 C 336.980469 314.011719 336.117188 309.839844 334.402344 305.035156 C 332.726563 300.328125 330.9375 297.339844 325.601563 292.699219 C 327 305.300781 333.398438 316.101563 336.398438 327.699219 L 325.101563 324.398438 C 328.5 328.699219 333.601563 333.800781 337.101563 338.300781 L 328 336.101563 C 332.898438 341 338.898438 346.199219 342.898438 350.800781 C 338.699219 350 334.898438 347.5 330.601563 347.601563 C 334.617188 353.246094 340.5625 358.4375 345.359375 363.953125 C 345.574219 364.203125 345.421875 364.5625 345.125 364.472656 C 342.546875 363.6875 339.722656 361.980469 337.300781 361.800781 C 343.898438 373.800781 356.300781 384.800781 366.601563 393.199219 L 359.398438 392 C 350 383.800781 338 377 328.699219 373.300781 L 335.699219 383.199219 C 328.335938 378.5 319 371.664063 312.898438 369.5 C 316.300781 373.800781 320.101563 378.398438 321.300781 383.398438 L 298.699219 368.800781 L 305.199219 380 L 283.800781 369.699219 C 285.664063 374.835938 291.601563 379.699219 296.300781 384.398438 C 296.300781 384.398438 267.5 387.5 262 391.800781 C 273 392 283.699219 392.898438 293.699219 395.601563 C 289.300781 399.5 284.199219 402.199219 280.5 407.199219 C 280.5 407.199219 300.324219 403.488281 310.292969 401.003906 C 311.140625 400.792969 311.480469 401.21875 310.894531 401.597656 C 305.109375 405.332031 297.914063 407.179688 294.101563 412.898438 C 306.1875 412.804688 315.832031 406.09375 326.394531 402.863281 C 326.925781 402.699219 327.238281 402.933594 326.855469 403.199219 C 320.941406 407.277344 314.371094 410.96875 309.300781 415.101563 L 328 412.699219 C 332.808594 411.097656 337.613281 409.046875 342.421875 407.625 C 343.613281 407.273438 344.074219 407.609375 343.117188 408.0625 C 339.007813 410.007813 334.953125 411.953125 330.898438 413.898438 C 340 413.164063 350.199219 410.300781 359.699219 409.101563 C 356.601563 411.699219 352.898438 413.398438 350.101563 416.300781 C 357.335938 416.164063 370.898438 417.800781 381.300781 413.199219 L 384.601563 418 L 364 420.601563 C 372.300781 424.898438 381.898438 426 391.601563 427.101563 C 392.5 427.300781 393.664063 427.835938 394 428.5 L 389.398438 439.800781 C 382.300781 434.199219 376.699219 426.199219 368.101563 424.199219 C 371.527344 433.996094 378.890625 442.160156 385.207031 450.761719 C 385.339844 450.941406 384.871094 451.320313 384.65625 451.179688 C 365.515625 438.78125 351.300781 436.398438 351.300781 436.398438 L 364 447.699219 C 357.335938 446.832031 350.101563 445 343.800781 446.300781 L 350.101563 451.800781 L 335.898438 451.800781 C 336.660156 452.769531 337.6875 453.910156 338.335938 455 C 338.617188 455.484375 338.253906 456.007813 337.308594 455.308594 C 332.472656 451.753906 317.140625 440.324219 310.199219 433.300781 C 309.550781 440.636719 315.96875 445.46875 319.371094 451.40625 C 319.632813 451.863281 319.050781 452.410156 318.675781 452.113281 C 309.316406 444.730469 299.738281 436.910156 290.609375 430.074219 C 290.164063 431.476563 295.40625 438.28125 298.285156 441.871094 C 299.355469 443.210938 298.664063 442.945313 297.949219 442.359375 C 287.9375 434.152344 278.359375 424.78125 268 417.5 C 269.164063 423.164063 276.101563 429.800781 280.898438 435.699219 C 276.300781 433.199219 271.5 429.800781 266.800781 426.800781 L 266.300781 434.300781 C 263.199219 431.101563 260.898438 427.199219 258.101563 423.699219 L 254.800781 406 L 250.699219 412.699219 C 249.800781 404.300781 249.835938 394.335938 247.601563 387.699219 L 244.5 400.398438 C 241.398438 390.199219 241.601563 378.300781 239.699219 367.800781 C 238 373.164063 237.398438 377.699219 236.300781 382.699219 C 232.835938 375.5 233.101563 365.601563 231.5 357 L 227.898438 372.398438 C 224.898438 366.800781 221.898438 361 219.5 355.300781 C 219.164063 362.664063 221 373.101563 222.898438 381 C 218.898438 377.398438 215.699219 373.199219 212.101563 369.199219 C 213.902344 375.941406 217.421875 382.769531 221.878906 388.921875 C 222.117188 389.25 222.285156 389.65625 221.769531 389.25 C 219.972656 387.847656 215.742188 384.53125 213.800781 382.898438 C 216 388.664063 220.398438 394.300781 225.300781 399.199219 C 223.398438 399.5 221.199219 397.898438 219.800781 397.800781 C 223.398438 403 227.5 407.898438 229.800781 413.601563 C 222.101563 408.601563 215.601563 400.101563 208.199219 393.699219 C 209.300781 398.199219 211.5 402.5 212.101563 406.898438 L 180.199219 388.898438 C 180 390.898438 180.664063 392.664063 180.898438 394.398438 C 171.199219 390.300781 163 381.199219 152.101563 381.199219 C 158.800781 392.398438 170.699219 396.199219 180.199219 403.300781 C 170.5 402.601563 160.5 401.101563 150.601563 400 C 159.601563 406.699219 171 407.601563 182.101563 409.300781 C 182.101563 409.300781 177.601563 411.699219 175.398438 412.699219 C 183.898438 417.601563 193.898438 418.800781 203.699219 420.800781 C 203.699219 420.800781 213.949219 425.175781 218.816406 427.863281 C 219.425781 428.199219 219.222656 428.660156 218.65625 428.605469 C 209.472656 427.6875 200.746094 427.152344 192.199219 426.800781 C 197.601563 430.800781 203.601563 433.898438 209.398438 436.398438 L 190.199219 434 L 201.300781 440.5 C 192.5 440.664063 182.664063 440.835938 175.601563 442.199219 L 189.5 447.199219 C 180 448.800781 168.664063 446.5 162.601563 449.199219 C 167.199219 451 173.601563 452 178.199219 455.402344 C 173.101563 456.199219 167 455.902344 162.398438 456.597656 C 165.601563 458.902344 169.398438 461.5 171.800781 464 L 169.398438 465 L 150.898438 448.902344 C 152.664063 454.332031 155.898438 458.800781 155.898438 464.300781 C 147.601563 456.300781 135.835938 441.164063 131.398438 439.601563 C 135.199219 446.097656 137.101563 453.699219 139.601563 460.402344 C 137.199219 458.699219 135.601563 456.300781 133.601563 454.199219 L 120.898438 418.898438 C 119.601563 424.101563 120.398438 430.601563 120.199219 436 C 114 425.5 113.300781 412.601563 109.398438 401.398438 C 106.300781 405.199219 107.398438 411 106.5 415.300781 C 100.835938 398 93 391.101563 93 391.101563 L 94.5 405.699219 C 89 400.101563 83.066406 395.964844 76.667969 392.664063 L 84.898438 404.5 L 78.199219 401.601563 C 80.601563 406.5 85.398438 410.199219 88.699219 414.101563 C 86.601563 414.101563 84.398438 413.398438 82.699219 413.601563 C 87.398438 418.601563 92.398438 424.199219 97.800781 427.300781 C 95.898438 427.601563 93.601563 426.398438 91.800781 426.800781 C 96.066406 432.882813 106.511719 439.40625 110.710938 441.875 C 111.824219 442.53125 111.382813 442.640625 110.839844 442.480469 C 106.347656 441.15625 102.402344 438.519531 98.300781 436.199219 C 99.820313 441.027344 104.300781 444.898438 107.019531 449.09375 C 107.339844 449.589844 106.902344 449.964844 106.410156 449.636719 C 95.363281 442.28125 85.925781 431.0625 73.101563 428 C 73.101563 428 78.683594 434.269531 80.917969 436.90625 C 81.546875 437.648438 80.9375 437.570313 80.5 437.332031 C 73.347656 433.40625 66.058594 429.105469 59.398438 425.199219 L 65.699219 436.199219 C 56.101563 431.601563 47.300781 422.601563 38.800781 418 C 40.5 422.398438 44.199219 426 47 430 C 40.101563 427.699219 33 423.699219 25.398438 423.199219 C 28.699219 427.5 33.300781 430 37.601563 432.601563 L 22.199219 433.601563 C 26.898438 436.101563 32 437.300781 37.398438 438.101563 C 36.898438 439.101563 35.699219 439.800781 35.199219 440.800781 L 55.800781 444.800781 C 53.800781 448 51.398438 450.902344 48.601563 453.699219 C 58.898438 456.402344 68.699219 449.402344 78.601563 453.5 C 74.5 456.097656 67.300781 454.699219 65.199219 460.199219 C 75.5 460.402344 85.101563 460 95.699219 459.5 L 98.601563 460.902344 L 85.101563 467.402344 C 91.5 468 98.800781 467.199219 104.800781 468.097656 C 102.101563 469.699219 99.199219 470.699219 96.398438 472.199219 C 104.398438 472.597656 112.199219 472.597656 119.898438 472.199219 L 114.898438 477 C 114.898438 477 132 476.832031 132.664063 477.832031 C 130.886719 478.789063 127.507813 479.875 125.699219 480.597656 L 98.601563 478 C 101 479.5 103.5 481 106 482.5 C 97.101563 484.902344 91.398438 478 84.601563 474.597656 L 85.800781 482.5 C 82.101563 477 78.800781 470.800781 75.300781 465 L 75.300781 478.699219 C 67.5 467.167969 56.832031 459 54.566406 459.835938 C 56.28125 462.539063 57.890625 465.300781 59.347656 468.160156 C 61.234375 471.863281 58.550781 470.320313 56.949219 468.890625 C 52.257813 464.703125 47.300781 458.847656 42.398438 456.800781 C 42.398438 456.800781 46.5 465.332031 46.058594 467.441406 C 39.375 460.789063 32.15625 455.476563 24.398438 451.597656 C 25.699219 455.199219 28.5 459.597656 29.398438 463.597656 C 24 459.199219 15.5 452.832031 12.199219 452.800781 C 12.199219 452.800781 15.796875 457.484375 17.253906 460.371094 C 17.949219 461.753906 17.144531 462.582031 15.492188 462.671875 C 10.421875 462.945313 0.898438 463.800781 0.898438 463.800781 L 19.398438 473.199219 C 19.398438 473.199219 10 479.902344 6.199219 483.199219 C 15.601563 482.699219 25 481.5 34 480.597656 C 29.601563 483.5 25.898438 486.800781 22 490.199219 C 33.425781 490.007813 44.472656 488.03125 55.511719 487.363281 C 55.875 487.339844 56.082031 487.648438 55.824219 487.820313 C 49.347656 492.15625 43.234375 496.199219 36.601563 501.199219 C 36.601563 501.199219 60.300781 498.101563 63.300781 497.398438 C 62.300781 498.5 60.332031 500.332031 59.332031 501.667969 C 62.832031 502.5 67.300781 500.601563 71 501.199219 C 66.601563 505.101563 59 507.5 59 514 C 66.398438 510.699219 73.601563 506.199219 80.601563 502.398438 C 78.199219 506.300781 79.101563 511.898438 78.898438 516.101563 L 93.832031 502.167969 L 95.699219 502 L 92.800781 509.601563 C 97.898438 505.699219 103 501.101563 108.199219 497.898438 L 105.5 507.699219 C 110.5 503.898438 116 499.800781 120.199219 495.699219 C 119.898438 497.5 119.699219 499.199219 119.398438 501 C 123.601563 498.300781 127.898438 494.5 131.398438 491.398438 C 131.101563 493.800781 129.300781 496.101563 129.300781 498.101563 L 145.101563 487.300781 C 144.664063 489.5 141.300781 494 139.398438 497.398438 C 144.664063 494.5 155.898438 484.402344 155.898438 484.402344 L 156.601563 490.199219 C 162.5 487.902344 173.199219 479.402344 173.199219 479.402344 L 172.699219 485.902344 C 176.976563 482.644531 180.996094 478.351563 185.238281 475.433594 C 185.558594 475.214844 185.742188 475.457031 185.519531 475.792969 C 180.59375 483.234375 177.265625 493.445313 175.800781 499.601563 L 185.199219 490.199219 C 182.800781 498.398438 179.398438 507.199219 177 515.199219 C 180.199219 512.699219 182.800781 509.699219 186.398438 508.898438 C 182.398438 516.300781 180.199219 524.398438 180.199219 533.398438 C 183.023438 531.03125 185.238281 527.390625 187.453125 524.59375 C 187.667969 524.320313 188.003906 524.597656 187.976563 524.996094 C 187.472656 533 193.078125 541.8125 194.601563 544.699219 L 197.898438 523.300781 C 199.101563 525 199.699219 526.898438 200.800781 528.601563 C 201.601563 521.898438 201 514.5 202.199219 508 L 211.101563 517.601563 C 211.101563 517.601563 208.335938 503.832031 206.101563 497.898438 L 214.699219 507.699219 C 215.300781 500.398438 212.898438 494 212.101563 487.597656 C 215.699219 493.101563 218.699219 499 222.199219 504.398438 C 221.664063 493.832031 219.199219 480.097656 216.601563 468.800781 L 219.5 472.699219 L 224.300781 462.800781 C 223.800781 467.902344 222.300781 473.097656 221.199219 478.199219 C 229.195313 472.808594 231.917969 464.734375 236.683594 457.675781 C 237.042969 457.144531 237.621094 457.257813 237.515625 457.835938 C 236.496094 463.457031 234.558594 469.070313 233.199219 474.597656 C 240.664063 468.5 245 458.800781 249 450.097656 C 252 451 254.800781 452.300781 257.699219 453.5 C 253.5 454.167969 250.601563 453.902344 248.5 458.5 C 248.5 458.5 267.164063 458.832031 266.800781 460.207031 C 261.210938 461.59375 252.003906 463.164063 249.335938 464.5 C 250.835938 468.167969 279.855469 469.460938 288.324219 470.132813 C 289.699219 470.242188 289.199219 470.652344 288.535156 470.816406 C 283.023438 472.160156 276.921875 472.882813 271.300781 474.402344 L 279.300781 477.699219 C 272.335938 478.832031 266.800781 479.097656 260.800781 480.402344 C 262.601563 482 265.5 482.902344 266.5 484.699219 C 258.601563 488.699219 249.398438 489.5 243.5 498.398438 C 248.800781 497.601563 254.101563 495.898438 259.101563 495.199219 L 251.699219 505.601563 C 258.699219 501.898438 266.398438 499.300781 273.5 496.699219 C 272.835938 499.167969 271.800781 501.199219 272.101563 503.199219 C 276.398438 499.601563 281.699219 497.300781 286.5 495.5 C 284.800781 498.898438 280.664063 503.167969 280.898438 505.601563 C 280.898438 505.601563 294.898438 495.101563 299.199219 493.601563 C 298 497.199219 292.5 499.601563 295.101563 504.101563 C 301.800781 498.601563 309 492.5 316 487.800781 C 315 490.699219 314.101563 493.601563 313.101563 496.398438 L 327 485.402344 C 327.5 488 326.199219 491 326.300781 493.300781 C 332.613281 488.683594 339.101563 483.535156 345.351563 479.191406 C 345.734375 478.925781 346.226563 478.824219 345.785156 479.515625 C 344.269531 481.898438 340.789063 487.472656 339.773438 489.976563 C 339.074219 491.707031 339.757813 491.824219 341.164063 490.5 C 347.554688 484.492188 353.695313 479.007813 359.398438 471.699219 C 368.15625 479.101563 376.097656 486.828125 384.691406 493.191406 C 385.621094 493.878906 385.996094 493.558594 385.273438 492.714844 C 380.925781 487.632813 377.304688 482.0625 373.792969 476.75 C 373.160156 475.789063 373.644531 475.539063 374.570313 476.425781 C 384.265625 485.726563 397.359375 499.417969 402.898438 500.300781 C 402.898438 500.300781 387 481.832031 389.355469 481.46875 C 400.464844 488.746094 409.910156 499.164063 420.101563 508.199219 C 419.835938 503.667969 415.800781 496.5 411.300781 492.101563 C 421.601563 497.398438 429.398438 507.101563 438.898438 514.398438 C 438.898438 514.398438 439.328125 511.484375 436.800781 508.359375 C 433.484375 504.257813 428.703125 500.671875 427.601563 496 C 437.800781 503.101563 446.800781 514.800781 458.101563 520.398438 C 457 518.601563 456.300781 516.300781 455.898438 514.398438 C 459.765625 517.035156 463.394531 520.902344 467.066406 523.160156 C 467.578125 523.472656 468.023438 523.121094 467.722656 522.683594 C 464.726563 518.320313 460.953125 513.960938 458.5 509.601563 L 466 512 C 462.347656 507.339844 460.039063 503.117188 454.453125 500.722656 C 451.894531 499.625 448.921875 499.488281 447 497.398438 C 449.101563 496.898438 453 497.398438 455.398438 496.898438 C 449.898438 493.5 443.601563 492.101563 437.699219 489.699219 L 446.101563 488.800781 C 438.699219 484.300781 429.699219 483.800781 421.800781 480.800781 C 425.800781 480.597656 429.898438 480.402344 433.601563 480.097656 C 424.800781 475.097656 414.101563 474.5 404.5 471.199219 L 413.199219 469.300781 C 406.164063 465.832031 395.398438 465.800781 385.800781 465.699219 L 383.398438 464.300781 C 393.300781 462.59375 399.796875 462.007813 405.054688 463.054688 C 416.386719 465.308594 426.640625 470.144531 437.699219 473.199219 C 435.359375 469.988281 430.65625 465.925781 426.078125 462.449219 C 427.664063 460.332031 451.800781 470.800781 451.800781 470.800781 C 450.5 467.5 439.601563 463.199219 436.5 457.097656 C 437.199219 457.097656 438 456.667969 438.601563 456.800781 C 448.199219 462.5 459.835938 467.5 469.300781 468.597656 L 455.898438 456.597656 C 466.5 456.902344 477.398438 457.902344 488.101563 458.5 C 485 455 470.800781 447 463.800781 444.398438 L 468.898438 438.800781 C 464.398438 440.398438 459.398438 441.601563 454.898438 442.398438 L 459.5 432.800781 C 453.398438 436 446.898438 439 440.800781 441.5 C 443.300781 437.300781 447.101563 433.601563 449.898438 429.5 C 441.601563 433.164063 429.175781 437.089844 423.539063 443.554688 C 420.941406 446.53125 418.261719 449.316406 413.898438 447.699219 C 420.199219 444.5 424.199219 438.601563 429.699219 433.601563 C 425.800781 433.398438 422.101563 434.800781 418.199219 434.300781 C 422.101563 431.101563 426.101563 428.199219 430 424.898438 L 418.5 424.398438 C 423.601563 419.5 429.5 415.699219 435 411.199219 C 442.300781 413.5 450.300781 415.398438 457.300781 417 C 454.132813 410.480469 447.847656 407.429688 442.230469 403.648438 C 441.816406 403.371094 442.128906 402.871094 442.695313 403.101563 C 452.214844 406.96875 462.371094 410.03125 472 412.199219 C 468.390625 407.757813 463.925781 403.917969 460.746094 399.566406 C 460.488281 399.214844 460.988281 398.953125 461.488281 399.191406 C 470.105469 403.253906 479.589844 408.785156 486.898438 410.800781 C 483.460938 406.800781 481.316406 402.542969 477.25 399.230469 C 476.945313 398.980469 477.386719 398.769531 477.828125 399.007813 C 485.695313 403.238281 493.632813 407.996094 501.300781 411.5 C 498.300781 404.699219 491.300781 399.898438 486.898438 394.199219 C 498.898438 391.699219 512.699219 394.101563 524.800781 393 Z M 20.300781 476.800781 C 26.5 473.625 34.375 469.375 39.800781 475.597656 C 33.398438 476.300781 26.800781 477.097656 20.300781 476.800781 Z M 72.601563 481.097656 C 65.875 479.875 64.875 472.625 64.699219 470.300781 Z M 50.300781 495.699219 L 65.25 487.5 C 66.550781 488.597656 68.625 490.375 70.25 491.875 Z M 84.625 493.75 C 75.527344 488.746094 62.402344 482.390625 52.625 478.375 C 51.65625 477.976563 51.628906 477.574219 52.632813 477.820313 C 61.988281 480.109375 77.414063 487.222656 87.800781 492.101563 C 86.75 492.75 85.75 493 84.625 493.75 Z M 112.199219 496.898438 L 117.300781 486.402344 C 119.015625 485.898438 121.953125 485.570313 123 485.902344 C 120.199219 490.300781 116 493.875 112.199219 496.898438 Z M 458.800781 506.5 C 450.601563 509.101563 445.335938 503.832031 438.898438 500.5 C 443.664063 499.332031 452.398438 504 458.800781 506.5 Z M 428.5 269.699219 C 428.5 269.699219 415.664063 281.664063 411.699219 290.300781 L 408.898438 285.5 C 410 275.199219 425 270.164063 428.5 269.699219 Z M 442.898438 232.199219 L 418 255 L 422.5 243.5 C 429.101563 239.101563 437.664063 233 442.898438 232.199219 Z M 466 185.199219 C 471.398438 184.800781 476.601563 184 481.800781 183.300781 C 475.5 187.898438 467.664063 189.5 460.699219 191.699219 Z M 461.738281 183.398438 C 462.425781 182.640625 462.804688 182.839844 462.246094 183.71875 C 455.03125 195.097656 441.324219 207.441406 430 216.164063 L 431.199219 212.101563 C 442.214844 203.605469 452.097656 194.066406 461.738281 183.398438 Z M 451.300781 155.699219 C 449.101563 162.699219 442.664063 168.664063 437.699219 173.898438 L 439.101563 165.699219 Z M 442.699219 124 L 454.199219 113.898438 C 452.335938 118.835938 446.5 127.101563 441 133.101563 Z M 433.601563 86.101563 C 437.164063 91.164063 443.664063 101.835938 439.800781 112.199219 Z M 409.601563 86.300781 L 397.300781 103.101563 C 397.664063 99 398 95.5 399 92.101563 C 402.398438 89.699219 405.898438 87.898438 409.601563 86.300781 Z M 407.699219 51.699219 C 403.300781 58.300781 399.5 65 395.398438 71.699219 C 393.398438 63 404 53.664063 407.699219 51.699219 Z M 392.5 54 C 394.113281 73.441406 395.011719 104.070313 394.164063 123.5 L 391.300781 121.601563 C 392.472656 101.65625 392.015625 72.429688 391.703125 54.007813 C 391.644531 50.445313 392.203125 50.425781 392.5 54 Z M 381.699219 20.800781 C 384.335938 22 388.398438 24.699219 389.976563 27.84375 C 390.289063 28.464844 391.328125 38.007813 391.683594 41.296875 C 388.5 36.5 381.699219 20.800781 381.699219 20.800781 Z M 372.898438 67.800781 C 377.164063 70.5 385.234375 73.933594 388.835938 79.335938 L 389.699219 89.898438 C 384.300781 83.101563 377.199219 75.699219 372.898438 67.800781 Z M 375.984375 167.476563 C 375.078125 167.984375 374.851563 167.527344 375.648438 166.839844 C 383.898438 159.761719 393.605469 152.746094 400.898438 143.898438 C 401.199219 144.199219 402 144.835938 402.5 145.164063 C 394.878906 154.058594 384.894531 162.460938 375.984375 167.476563 Z M 376.164063 110.449219 C 375.148438 108.960938 375.503906 108.363281 376.613281 109.550781 C 392.988281 127.144531 410.015625 145.746094 429.5 158.300781 L 429.300781 160.699219 C 410.0625 147.566406 388.660156 128.761719 376.164063 110.449219 Z M 408.101563 178.699219 C 413 182.5 417.664063 188 421.164063 193.5 L 419.398438 202.699219 C 416 194.5 411.898438 186.699219 408.101563 178.699219 Z M 436.332031 140.695313 C 436.710938 138.101563 437.175781 138.3125 437 141 C 433.894531 189.113281 420.085938 237.125 405.5 280.5 L 403.800781 277.800781 C 418.09375 235.015625 429.640625 186.699219 436.332031 140.695313 Z M 399 233.699219 C 403.5 236.664063 410.664063 251.5 404.101563 262.898438 C 403.5 252.699219 402.898438 242.5 399 233.699219 Z M 390.613281 260.6875 C 389.898438 258.667969 390.40625 258.417969 391.335938 260.335938 C 405.484375 289.644531 422.453125 321.722656 440.101563 349.601563 C 439.664063 350.335938 438.800781 351.601563 438.101563 352.699219 C 438.101563 352.699219 413.75 309.308594 410.253906 302.953125 C 403.132813 290.015625 395.410156 274.214844 390.613281 260.6875 Z M 389.335938 316.164063 C 385.632813 317.265625 383.800781 318.300781 380.101563 319.800781 L 388.164063 295.664063 C 394.160156 301.96875 399.140625 308.3125 405.316406 315.015625 C 405.839844 315.578125 405.585938 316.011719 404.925781 315.660156 C 399.382813 312.6875 393.832031 309.335938 388.199219 307.101563 C 392.4375 316.613281 401.292969 323.289063 409.492188 329.882813 C 409.996094 330.285156 410.242188 330.773438 409.085938 330.296875 C 405.957031 329.007813 399.902344 326.601563 397.839844 326.429688 C 400.371094 330.632813 407.859375 341.914063 418.441406 347.605469 C 419.242188 348.039063 419.179688 348.425781 418.320313 348.234375 C 412.78125 347.023438 407.238281 345.796875 401.699219 344.5 C 409.5 351.5 418.898438 358.199219 429.5 360.101563 L 421.601563 371.398438 C 419.898438 365.398438 414.898438 360.398438 411 355.101563 C 410.398438 360.898438 411.199219 364.898438 411.300781 370.699219 C 407 366.601563 403.5 360.800781 399.300781 356 C 399.300781 356 399.488281 371.554688 405.808594 387.242188 C 406.03125 387.796875 405.84375 388.289063 405.53125 387.972656 C 402.214844 384.570313 400.136719 380.175781 397.300781 376.699219 C 397.398438 384.300781 398.101563 392.800781 398.101563 400.699219 C 395.5 395.300781 393.601563 389.300781 391.300781 383.898438 C 390.398438 387.300781 390.398438 391.199219 389.398438 394.699219 C 386.898438 387.101563 386.800781 378.300781 383.699219 371.199219 C 382.300781 376.199219 380.601563 381.101563 379.601563 386.300781 C 378.894531 378.644531 379.871094 370.160156 381.023438 363.171875 C 381.105469 362.675781 380.644531 362.464844 380.164063 363.164063 C 377.863281 366.554688 371.398438 376.699219 371.398438 376.699219 L 371.199219 370.699219 C 378.5 359.199219 388.101563 348.300781 388.898438 334.398438 C 384.699219 341.800781 377.800781 348.5 371.898438 355.300781 L 372.601563 350.5 C 378.601563 343.398438 386.300781 336.898438 389.699219 328.699219 C 385 330.601563 380.199219 333.398438 375.5 335.898438 C 379.898438 328.398438 385.632813 323.964844 389.335938 316.164063 Z M 396.898438 414.398438 C 391.664063 410.5 389.835938 399.664063 392.101563 394.199219 C 394 400.800781 394.898438 407.800781 396.898438 414.398438 Z M 375.035156 314.125 C 375.414063 313.257813 375.738281 313.402344 375.5 314.335938 C 371.664063 329.445313 366.878906 350.71875 364.335938 366.164063 L 362.5 362.800781 C 365.414063 347.949219 369.125 327.65625 375.035156 314.125 Z M 290.015625 390.964844 C 288.390625 390.921875 288.253906 390.480469 289.835938 390.335938 C 313.679688 388.09375 345.878906 392.316406 369.699219 397.101563 L 371.898438 400.199219 L 368.300781 400 C 344.453125 395.304688 314.925781 391.671875 290.015625 390.964844 Z M 360.101563 412.699219 L 370.898438 406.699219 L 378.601563 407.398438 C 378.601563 407.398438 373.835938 413.835938 360.101563 412.699219 Z M 337.335938 319.050781 C 336.289063 315.9375 336.769531 315.664063 338 318.664063 C 351.871094 352.542969 377.730469 397.378906 395.097656 418.390625 C 396.257813 419.796875 397.101563 420.800781 397.101563 420.800781 L 396.398438 422.300781 C 372.09375 397.417969 347.589844 349.609375 337.335938 319.050781 Z M 429.242188 374.246094 C 441.105469 355.722656 465.3125 324.355469 483.992188 307.617188 C 485.480469 306.28125 485.640625 306.574219 484.25 308 C 457.09375 335.796875 432.945313 371.570313 414.640625 403.4375 C 412.046875 407.957031 397.59375 438.453125 394.5 450.097656 C 394.101563 450.199219 393.375 450.25 392.625 450.25 C 401.457031 423.554688 413.855469 398.269531 429.242188 374.246094 Z M 382.699219 454 C 374.300781 456 370.300781 447.402344 364.5 443.398438 C 371.5 444.601563 377 449.402344 382.699219 454 Z M 319.335938 446.332031 L 337.300781 462.800781 C 334.601563 462.300781 328.867188 460.398438 326.164063 459.5 Z M 306.601563 457.300781 C 300.664063 455.167969 293.566406 450.765625 289.164063 446.167969 L 285 435.199219 Z M 289.800781 451.097656 L 272.335938 443.835938 L 271.335938 433.5 Z M 225.335938 378.203125 C 224.972656 376.589844 225.53125 376.433594 226.164063 378 C 232.476563 393.605469 242.261719 414.796875 250.164063 429.335938 L 246.101563 427.800781 C 237.210938 414.179688 229.039063 394.511719 225.335938 378.203125 Z M 235.507813 423.824219 C 236.007813 424.28125 235.898438 424.746094 235.335938 424.492188 C 227.628906 421.023438 218.5 414.3125 216.199219 407.199219 C 222.6875 412.484375 229.179688 418.027344 235.507813 423.824219 Z M 234.398438 436 L 223.101563 437.398438 L 212.300781 432.601563 C 218.335938 432 227.398438 433.898438 234.398438 436 Z M 177.800781 450.402344 L 197.199219 450.597656 C 191.199219 454.5 180.835938 453 177.800781 450.402344 Z M 97.800781 403.300781 C 102.101563 408.601563 102.800781 415.300781 105 421.300781 L 99.300781 414.800781 Z M 100.429688 421.613281 C 99.8125 420.773438 100.191406 420.476563 101 421.25 C 109.96875 429.824219 121.414063 447.242188 127.375 459.625 L 125 459 C 119.511719 446.53125 108.703125 432.855469 100.429688 421.613281 Z M 45.628906 434.734375 C 41.640625 432.894531 42.1875 432.53125 46.375 434 C 70.964844 442.625 143.023438 467.796875 153.5 470.5 L 151.101563 471.5 C 116.5 460.625 78.316406 449.8125 45.628906 434.734375 Z M 184.199219 505.101563 L 194.101563 484.699219 C 195 490.332031 188.5 503 184.199219 505.101563 Z M 195.835938 501.332031 C 195.417969 503.167969 194.851563 503.308594 195.011719 501.550781 C 195.964844 491.023438 198.429688 474.527344 201 464.5 L 203.699219 463.097656 C 201.5625 473.53125 198.285156 490.503906 195.835938 501.332031 Z M 205.601563 472 L 207.800781 465 C 211.601563 472.800781 215.5 480.5 215.898438 489.699219 C 212.101563 484.199219 209 477.902344 205.601563 472 Z M 137 481 C 133.753906 481.882813 133.355469 481.503906 136.425781 480.449219 C 169.679688 469.007813 206.472656 453.414063 238.699219 438.398438 C 239.835938 438.664063 241 439.300781 242.101563 439.800781 C 209.496094 456.011719 172.324219 471.371094 137 481 Z M 200.179688 412.164063 C 198.140625 410.90625 197.722656 410.210938 200.664063 411.664063 C 223.40625 422.921875 301.851563 460.328125 312.898438 465.183594 C 316.273438 466.664063 318.398438 467.597656 318.398438 467.597656 L 316 468.800781 C 281.472656 454.742188 232.355469 432.046875 200.179688 412.164063 Z M 289.171875 466.632813 C 279.441406 466.425781 267.394531 466.894531 259.6875 465.234375 C 258.910156 465.066406 258.332031 464.539063 259.667969 464.339844 C 264.96875 463.542969 278.222656 461.585938 279.003906 461.824219 C 282.664063 462.941406 286.675781 464.996094 289.792969 466.113281 C 290.355469 466.316406 289.964844 466.652344 289.171875 466.632813 Z M 279.699219 484.402344 L 270.398438 482.5 C 276.5 480.332031 283.699219 481.597656 288.601563 476.800781 L 282.898438 475.597656 C 289.699219 473.699219 302.835938 471.332031 308.5 472.199219 C 298.335938 475.832031 289.300781 480.402344 279.699219 484.402344 Z M 332.550781 476.457031 C 327.738281 478.617188 325.023438 484.050781 320.5 487.597656 C 320.800781 485.402344 321.75 481 321.75 481 L 306.601563 489 C 309.460938 484.207031 314.46875 482.230469 319.394531 480.175781 C 321.070313 479.476563 328.34375 476.5625 332.613281 475.914063 C 333.34375 475.800781 333.164063 476.179688 332.550781 476.457031 Z M 421.601563 478.199219 C 416.300781 480.699219 410.335938 478 406.5 475.597656 Z M 434.664063 495.167969 C 435.675781 496.019531 435.289063 496.433594 434.191406 495.78125 C 415.050781 484.445313 391.800781 474.277344 370.898438 466.902344 C 372.199219 466.5 374 466.167969 375.5 465.832031 C 394.15625 474.09375 421.644531 484.175781 434.664063 495.167969 Z M 467.710938 451.269531 C 469.007813 451.507813 468.84375 451.917969 467.40625 451.875 C 413.675781 450.242188 320.367188 475.597656 290.835938 484.832031 C 287.464844 485.886719 287.671875 485.234375 290.003906 484.214844 C 325.503906 468.652344 369.144531 459.792969 410.105469 453.921875 C 428.34375 451.308594 448.402344 447.777344 467.710938 451.269531 Z M 422.800781 437.601563 C 419.625 440.625 408.898438 446.800781 400.5 448 L 401.699219 443.398438 C 408.601563 441.101563 415.601563 439.199219 422.800781 437.601563 Z M 421.101563 427.800781 C 418.875 430.125 409.898438 433.101563 404.101563 435.199219 L 406 431.199219 C 411.199219 430.398438 416 428.898438 421.101563 427.800781 Z M 412.699219 413.398438 L 417 405.699219 L 432.875 410.5 Z M 461.398438 404.800781 C 448.101563 403.699219 437.101563 397.398438 425.699219 391.800781 C 430.199219 391.5 435.5 391.199219 439.601563 392 C 447.300781 395.300781 454 400.800781 461.398438 404.800781 Z M 499.125 388.5 C 477.582031 387.324219 448.339844 385.746094 427.101563 388.398438 C 427.625 387.125 428.75 385.5 428.75 385.5 C 428.75 385.5 431.164063 384.960938 432.375 384.875 C 452.980469 383.402344 479.691406 385.011719 499.277344 387.910156 C 501.214844 388.199219 501.113281 388.609375 499.125 388.5 "/>
</g>
</svg>
