<?xml version="1.0" encoding="UTF-8"?>
<svg xmlns="http://www.w3.org/2000/svg" xmlns:xlink="http://www.w3.org/1999/xlink" width="542pt" height="321pt" viewBox="0 0 542 321" version="1.1">
<g id="surface1">
<path style=" stroke:none;fill-rule:nonzero;fill:rgb(0%,0%,0%);fill-opacity:1;" d="M 134.960938 159.773438 C 182.917969 180.300781 261.617188 148.988281 261.617188 148.988281 C 262.816406 151.730469 264.699219 154.125 267.183594 156.351563 C 263.929688 161.570313 259.222656 165.59375 254.261719 169.015625 C 272.402344 173.980469 294.738281 173.210938 308.773438 158.832031 C 309.71875 161.742188 311.855469 164.050781 312.453125 167.132813 C 315.964844 164.222656 322.726563 148.390625 324.4375 144.96875 C 333.253906 152.671875 343.351563 157.207031 354.046875 160.371094 C 367.140625 162.941406 380.148438 159.859375 388.878906 149.246094 C 396.667969 139.40625 397.949219 125.710938 394.441406 113.558594 C 388.453125 99.351563 373.476563 88.652344 359.609375 84.546875 C 361.320313 81.121094 361.941406 70.15625 353.105469 67.34375 C 356.1875 71.453125 356.871094 76.671875 355.589844 81.464844 C 345.144531 79.070313 323.839844 70.683594 323.839844 70.683594 C 329.828125 63.152344 369.363281 51.449219 331.539063 34.3125 C 334.105469 27.207031 328.394531 0.386719 298.246094 18.050781 C 295.851563 14.371094 292.257813 11.03125 287.808594 10.945313 C 277.796875 0.421875 261.019531 -3.261719 247.753906 1.703125 C 239.28125 3.585938 233.378906 12.316406 230.808594 19.847656 C 229.011719 38.503906 236.972656 54.59375 248.953125 68.199219 C 228.046875 73.679688 203.425781 105.515625 203.425781 105.515625 C 203.425781 105.515625 217.78125 75.96875 201.882813 60.496094 C 197.1875 55.929688 189.988281 56.046875 184.253906 57.417969 C 176.980469 62.808594 165.511719 56.988281 157.808594 62.382813 C 146.769531 67.515625 141.464844 78.898438 141.121094 90.453125 C 128.882813 96.101563 114.160156 105.601563 111.253906 119.976563 C 109.539063 137.179688 119.785156 153.28125 134.960938 159.773438 Z M 296.109375 130.503906 C 293.371094 142.828125 286.183594 154.039063 275.140625 162.171875 C 286.097656 148.21875 296.109375 132.644531 292.769531 113.816406 C 300.816406 117.238281 295.511719 124.769531 296.109375 130.503906 Z M 354.644531 85.488281 C 350.660156 104 313.394531 99.351563 321.355469 75.046875 C 332.652344 78.214844 343.4375 82.320313 354.644531 85.488281 Z M 291.828125 38.675781 C 294.3125 40.644531 296.449219 47.488281 300.132813 44.238281 L 303.554688 40.472656 C 302.269531 36.792969 294.910156 34.054688 300.730469 30.03125 C 299.960938 6.324219 341.457031 14.042969 324.4375 40.816406 C 330.34375 40.816406 339.242188 38.589844 342.664063 45.09375 C 344.464844 47.660156 343.179688 51.085938 342.664063 53.738281 C 335.902344 62.039063 323.839844 60.671875 317.417969 70.425781 C 292.6875 64.519531 265.898438 57.761719 251.179688 33.710938 C 251.265625 31.058594 250.492188 27.890625 252.71875 26.007813 C 255.285156 23.527344 259.050781 25.582031 262.21875 25.410156 C 270.859375 29.945313 276.597656 44.578125 288.75 39.617188 C 289.859375 39.53125 290.632813 38.503906 291.828125 38.675781 Z M 235.429688 38.675781 C 233.289063 32.425781 231.324219 23.867188 234.832031 17.707031 C 241.078125 6.582031 252.976563 1.019531 265.300781 3.242188 C 274.285156 4.699219 281.730469 10.089844 288.75 16.507813 C 291.488281 19.503906 290.460938 24.039063 288.75 27.292969 C 286.4375 30.546875 283.1875 32.941406 279.164063 32.769531 C 273.171875 32.597656 270.433594 25.921875 265.898438 22.929688 C 261.617188 18.734375 254.6875 19.160156 249.636719 21.386719 C 246.214844 24.46875 246.214844 29.347656 246.8125 33.710938 C 253.574219 48.003906 268.550781 60.839844 283.527344 64.519531 C 294.054688 68.113281 304.839844 71.195313 315.878906 73.765625 C 308.503906 94.5 342.644531 115.578125 358.671875 88.226563 C 423.695313 122.109375 379.757813 184.160156 324.4375 138.207031 C 329.058594 136.921875 333.679688 135.726563 338.300781 134.441406 C 327.433594 123.828125 330.941406 103.972656 313.394531 99.351563 C 305.265625 97.726563 297.820313 100.207031 292.429688 105.515625 C 271.890625 84.375 247.328125 64.433594 235.429688 38.675781 Z M 190.160156 76.246094 C 189.988281 78.898438 189.472656 81.636719 187.675781 83.347656 C 185.707031 85.144531 182.542969 85.058594 179.976563 84.546875 C 177.921875 83.605469 175.523438 81.980469 174.753906 79.667969 C 174.496094 74.363281 176.894531 68.628906 181.171875 64.519531 C 185.621094 66.488281 189.644531 71.195313 190.160156 76.246094 Z M 175.011719 64.519531 C 171.84375 70.085938 169.53125 77.871094 172.273438 83.949219 C 176.039063 87.714844 180.914063 89.597656 186.480469 88.226563 C 189.386719 87.371094 192.46875 85.488281 193.839844 82.40625 C 197.089844 74.191406 191.527344 67.003906 185.535156 61.78125 C 218.84375 60.355469 197.6875 98.582031 195.976563 114.160156 C 180.746094 124.515625 162.773438 130.074219 143.601563 129.222656 C 141.890625 128.023438 140.949219 125.96875 140.519531 124 C 140.863281 116.554688 149.765625 118.609375 152.589844 112.617188 C 156.867188 111.675781 161.230469 109.195313 163.371094 104.914063 C 160.035156 97.042969 168.507813 96.871094 172.273438 94.132813 C 172.359375 91.734375 171.074219 89.167969 169.789063 87.027344 C 166.453125 87.886719 163.113281 88.996094 159.949219 90.453125 C 156.789063 82.625 147.023438 88.570313 147.023438 88.570313 C 147.023438 69.265625 167.222656 63.835938 175.011719 64.519531 Z M 119.554688 111.335938 C 124.089844 104.574219 130.679688 98.410156 138.382813 95.929688 C 143.003906 95.246094 146.769531 96.699219 149.765625 99.953125 C 151.21875 102.347656 152.246094 105.34375 151.304688 108.253906 C 148.136719 117.496094 134.1875 112.359375 133.417969 123.402344 C 133.503906 128.449219 137.527344 133.242188 142.0625 135.125 C 152.160156 136.066406 162.34375 133.84375 171.671875 131.105469 C 180.488281 127.9375 189.304688 124.855469 196.921875 118.777344 C 212.3125 147.347656 241.40625 121.21875 222.765625 107.398438 C 224.050781 111.675781 225.847656 118.777344 222.507813 123.058594 C 219.855469 125.796875 216.519531 126.652344 212.921875 127.082031 C 208.816406 127.425781 206.761719 123.316406 204.28125 120.917969 C 202.480469 117.496094 203.507813 112.960938 205.820313 110.136719 C 219 95.160156 232.09375 76.589844 251.433594 71.964844 C 261.535156 81.210938 270.777344 91.820313 281.304688 100.550781 C 263.375 97.46875 253.488281 119.976563 255.457031 129.820313 L 263.160156 128.277344 C 257.890625 133.546875 259.480469 143.425781 259.480469 143.425781 C 227.300781 159.175781 186.308594 166.449219 150.105469 159.429688 C 139.410156 156.605469 128.113281 152.585938 121.4375 142.828125 C 115.789063 134.011719 112.964844 120.578125 119.554688 111.335938 Z M 539.800781 283.273438 C 535.972656 274.195313 526.402344 267.359375 517.546875 264.738281 C 518.640625 262.550781 519.039063 255.542969 513.394531 253.75 C 515.359375 256.371094 515.800781 259.707031 514.980469 262.769531 C 508.308594 261.238281 494.695313 255.878906 494.695313 255.878906 C 498.519531 251.070313 523.777344 243.585938 499.613281 232.632813 C 501.253906 228.097656 497.605469 210.960938 478.347656 222.246094 C 476.816406 219.894531 474.519531 217.761719 471.675781 217.707031 C 465.277344 210.984375 454.5625 208.632813 446.089844 211.804688 C 440.675781 213.007813 436.902344 218.582031 435.261719 223.394531 C 434.113281 235.3125 439.199219 245.59375 446.855469 254.292969 C 433.496094 257.792969 417.765625 278.132813 417.765625 278.132813 C 417.765625 278.132813 426.9375 259.257813 416.78125 249.375 C 413.78125 246.445313 409.183594 246.523438 405.519531 247.398438 C 400.871094 250.847656 393.546875 247.121094 388.625 250.578125 C 381.570313 253.855469 378.183594 261.128906 377.964844 268.511719 C 371.390625 271.542969 363.695313 276.316406 360.308594 283.21875 C 356.160156 274.777344 346.804688 267.878906 338.363281 265.378906 C 339.457031 263.191406 339.855469 256.183594 334.207031 254.390625 C 336.175781 257.015625 336.613281 260.347656 335.792969 263.410156 C 329.121094 261.878906 315.507813 256.523438 315.507813 256.523438 C 319.335938 251.710938 344.59375 244.226563 320.429688 233.277344 C 322.070313 228.738281 318.421875 211.601563 299.160156 222.886719 C 297.632813 220.535156 295.335938 218.402344 292.488281 218.351563 C 286.09375 211.625 275.378906 209.273438 266.902344 212.445313 C 261.488281 213.648438 257.71875 219.226563 256.078125 224.035156 C 254.929688 235.957031 260.015625 246.234375 267.667969 254.9375 C 254.3125 258.433594 238.582031 278.773438 238.582031 278.773438 C 238.582031 278.773438 247.753906 259.898438 237.597656 250.015625 C 234.597656 247.085938 229.996094 247.164063 226.335938 248.039063 C 221.6875 251.492188 214.359375 247.765625 209.4375 251.21875 C 202.386719 254.496094 198.996094 261.769531 198.777344 269.152344 C 192.433594 272.082031 185.042969 276.628906 181.488281 283.148438 C 177.46875 274.445313 167.925781 267.335938 159.3125 264.78125 C 160.402344 262.59375 160.800781 255.589844 155.15625 253.792969 C 157.125 256.417969 157.5625 259.753906 156.742188 262.816406 C 150.070313 261.28125 136.457031 255.925781 136.457031 255.925781 C 140.285156 251.113281 165.542969 243.628906 141.378906 232.679688 C 143.019531 228.140625 139.367188 211.007813 120.109375 222.292969 C 118.578125 219.941406 116.28125 217.808594 113.4375 217.753906 C 107.042969 211.027344 96.324219 208.679688 87.851563 211.847656 C 82.4375 213.050781 78.664063 218.628906 77.027344 223.441406 C 75.878906 235.359375 80.960938 245.636719 88.617188 254.339844 C 75.261719 257.839844 59.53125 278.175781 59.53125 278.175781 C 59.53125 278.175781 68.703125 259.300781 58.546875 249.417969 C 55.542969 246.488281 50.945313 246.566406 47.28125 247.441406 C 42.636719 250.894531 35.308594 247.167969 30.386719 250.621094 C 23.335938 253.902344 19.945313 261.171875 19.726563 268.554688 C 11.90625 272.164063 2.503906 278.230469 0.644531 287.417969 C -0.449219 298.40625 6.097656 308.695313 15.789063 312.84375 C 46.429688 325.957031 96.707031 305.953125 96.707031 305.953125 C 97.472656 307.703125 98.675781 309.234375 100.261719 310.65625 C 98.183594 313.988281 95.175781 316.558594 92.007813 318.746094 C 103.597656 321.917969 117.867188 321.425781 126.835938 312.242188 C 127.4375 314.101563 128.804688 315.574219 129.183594 317.542969 C 131.425781 315.6875 135.746094 305.570313 136.839844 303.382813 C 142.472656 308.304688 148.921875 311.203125 155.757813 313.226563 C 164.121094 314.863281 172.433594 312.894531 178.011719 306.117188 C 179.363281 304.40625 180.691406 301.796875 181.453125 299.792969 C 183.953125 305.855469 188.785156 310.84375 194.839844 313.4375 C 225.480469 326.550781 275.761719 306.546875 275.761719 306.546875 C 276.523438 308.296875 277.730469 309.832031 279.3125 311.25 C 277.234375 314.585938 274.230469 317.15625 271.058594 319.34375 C 282.648438 322.511719 296.917969 322.023438 305.886719 312.835938 C 306.488281 314.695313 307.855469 316.171875 308.238281 318.140625 C 310.480469 316.28125 314.800781 306.164063 315.890625 303.980469 C 321.523438 308.898438 327.976563 311.796875 334.808594 313.820313 C 343.175781 315.460938 351.484375 313.492188 357.0625 306.714844 C 358.605469 304.761719 359.996094 301.792969 360.769531 299.46875 C 363.3125 305.386719 368.074219 310.25 374.027344 312.796875 C 404.664063 325.910156 454.945313 305.90625 454.945313 305.90625 C 455.710938 307.65625 456.914063 309.1875 458.5 310.609375 C 456.421875 313.945313 453.414063 316.511719 450.242188 318.699219 C 461.835938 321.871094 476.105469 321.378906 485.070313 312.195313 C 485.671875 314.054688 487.039063 315.53125 487.421875 317.5 C 489.664063 315.640625 493.984375 305.523438 495.074219 303.339844 C 500.710938 308.257813 507.160156 311.15625 513.992188 313.179688 C 522.359375 314.820313 530.671875 312.851563 536.246094 306.070313 C 541.222656 299.785156 542.042969 291.035156 539.800781 283.273438 Z M 156.140625 265.382813 C 153.59375 277.210938 129.785156 274.242188 134.871094 258.714844 C 142.089844 260.738281 148.976563 263.363281 156.140625 265.382813 Z M 116.007813 235.46875 C 117.59375 236.726563 118.960938 241.097656 121.3125 239.023438 L 123.5 236.617188 C 122.679688 234.265625 117.976563 232.515625 121.695313 229.945313 C 121.203125 214.800781 147.714844 219.730469 136.839844 236.835938 C 140.613281 236.835938 146.300781 235.414063 148.484375 239.570313 C 149.632813 241.210938 148.8125 243.394531 148.484375 245.089844 C 144.164063 250.402344 136.457031 249.527344 132.355469 255.761719 C 116.554688 251.988281 99.441406 247.660156 90.039063 232.296875 C 90.09375 230.601563 89.601563 228.578125 91.023438 227.375 C 92.664063 225.789063 95.070313 227.101563 97.089844 226.992188 C 102.613281 229.890625 106.277344 239.242188 114.039063 236.070313 C 114.75 236.015625 115.242188 235.359375 116.007813 235.46875 Z M 51.054688 259.480469 C 50.945313 261.171875 50.617188 262.921875 49.46875 264.019531 C 48.210938 265.164063 46.191406 265.109375 44.546875 264.78125 C 43.238281 264.179688 41.707031 263.140625 41.214844 261.667969 C 41.050781 258.277344 42.582031 254.613281 45.316406 251.988281 C 48.15625 253.246094 50.726563 256.253906 51.054688 259.480469 Z M 41.378906 251.988281 C 39.355469 255.542969 37.878906 260.519531 39.628906 264.398438 C 42.035156 266.804688 45.152344 268.007813 48.703125 267.132813 C 50.5625 266.585938 52.53125 265.382813 53.40625 263.414063 C 55.484375 258.167969 51.929688 253.574219 48.101563 250.238281 C 69.378906 249.328125 55.867188 273.75 54.773438 283.703125 C 45.039063 290.316406 33.558594 293.867188 21.3125 293.324219 C 20.21875 292.558594 19.617188 291.246094 19.34375 289.988281 C 19.5625 285.230469 25.25 286.542969 27.054688 282.714844 C 29.785156 282.113281 32.574219 280.527344 33.941406 277.792969 C 31.808594 272.765625 37.222656 272.65625 39.628906 270.90625 C 39.683594 269.375 38.863281 267.734375 38.042969 266.367188 C 35.910156 266.914063 33.777344 267.625 31.753906 268.554688 C 29.738281 263.554688 23.5 267.351563 23.5 267.351563 C 23.5 255.019531 36.402344 251.550781 41.378906 251.988281 Z M 92.773438 293.707031 L 97.691406 292.722656 C 94.328125 296.089844 95.34375 302.398438 95.34375 302.398438 C 74.785156 312.457031 48.59375 317.105469 25.46875 312.625 C 18.632813 310.820313 11.414063 308.25 7.152344 302.015625 C 3.542969 296.386719 1.738281 287.800781 5.949219 281.898438 C 8.847656 277.578125 13.054688 273.640625 17.976563 272.054688 C 20.929688 271.617188 23.335938 272.546875 25.25 274.625 C 26.179688 276.15625 26.835938 278.070313 26.234375 279.925781 C 24.210938 285.832031 15.296875 282.550781 14.804688 289.605469 C 14.859375 292.832031 17.429688 295.894531 20.328125 297.09375 C 26.78125 297.695313 33.285156 296.277344 39.246094 294.527344 C 44.878906 292.503906 50.507813 290.535156 55.375 286.652344 C 65.207031 304.902344 83.792969 288.210938 71.886719 279.382813 C 72.707031 282.113281 73.855469 286.652344 71.722656 289.386719 C 70.027344 291.136719 67.894531 291.683594 65.597656 291.957031 C 62.972656 292.175781 61.660156 289.550781 60.078125 288.019531 C 58.929688 285.832031 59.585938 282.933594 61.058594 281.132813 C 69.480469 271.5625 77.84375 259.699219 90.203125 256.746094 C 96.65625 262.652344 102.558594 269.429688 109.285156 275.007813 C 97.832031 273.039063 91.515625 287.417969 92.773438 293.707031 Z M 118.742188 294.144531 C 116.992188 302.015625 112.398438 309.179688 105.347656 314.375 C 112.347656 305.460938 118.742188 295.511719 116.609375 283.480469 C 121.75 285.667969 118.359375 290.480469 118.742188 294.144531 Z M 136.839844 299.066406 C 139.792969 298.242188 142.746094 297.476563 145.695313 296.65625 C 138.753906 289.878906 140.996094 277.195313 129.785156 274.242188 C 124.59375 273.203125 119.835938 274.789063 116.390625 278.175781 C 103.269531 264.671875 87.578125 251.933594 79.976563 235.46875 C 78.609375 231.476563 77.351563 226.007813 79.59375 222.074219 C 83.585938 214.964844 91.1875 211.410156 99.058594 212.832031 C 104.800781 213.761719 109.558594 217.207031 114.039063 221.308594 C 115.789063 223.222656 115.132813 226.117188 114.039063 228.195313 C 112.5625 230.273438 110.484375 231.804688 107.917969 231.695313 C 104.089844 231.585938 102.339844 227.320313 99.441406 225.40625 C 96.707031 222.730469 92.28125 223.003906 89.054688 224.421875 C 86.867188 226.390625 86.867188 229.507813 87.25 232.296875 C 91.570313 241.425781 101.136719 249.636719 110.703125 251.988281 C 117.429688 254.285156 124.320313 256.253906 131.371094 257.894531 C 126.660156 271.140625 148.472656 284.605469 158.710938 267.132813 C 200.253906 288.78125 172.183594 328.421875 136.839844 299.066406 Z M 335.191406 265.980469 C 332.644531 277.804688 308.839844 274.839844 313.921875 259.308594 C 321.140625 261.332031 328.027344 263.957031 335.191406 265.980469 Z M 295.0625 236.066406 C 296.644531 237.320313 298.015625 241.695313 300.363281 239.617188 L 302.550781 237.210938 C 301.730469 234.859375 297.027344 233.109375 300.746094 230.542969 C 300.253906 215.394531 326.765625 220.328125 315.890625 237.429688 C 319.664063 237.429688 325.351563 236.007813 327.539063 240.164063 C 328.6875 241.804688 327.863281 243.992188 327.539063 245.6875 C 323.21875 251 315.507813 250.125 311.40625 256.359375 C 295.605469 252.585938 278.492188 248.257813 269.089844 232.894531 C 269.144531 231.199219 268.652344 229.175781 270.074219 227.972656 C 271.714844 226.386719 274.117188 227.699219 276.144531 227.589844 C 281.664063 230.488281 285.328125 239.835938 293.09375 236.664063 C 293.804688 236.609375 294.296875 235.957031 295.0625 236.066406 Z M 230.105469 260.074219 C 229.996094 261.769531 229.671875 263.519531 228.523438 264.613281 C 227.265625 265.761719 225.242188 265.707031 223.601563 265.378906 C 222.289063 264.777344 220.757813 263.738281 220.265625 262.261719 C 220.101563 258.871094 221.632813 255.210938 224.367188 252.585938 C 227.210938 253.84375 229.777344 256.851563 230.105469 260.074219 Z M 220.429688 252.585938 C 218.40625 256.140625 216.929688 261.113281 218.679688 264.996094 C 221.085938 267.402344 224.203125 268.605469 227.757813 267.730469 C 229.613281 267.183594 231.585938 265.980469 232.457031 264.011719 C 234.535156 258.761719 230.980469 254.167969 227.152344 250.835938 C 248.433594 249.925781 234.917969 274.34375 233.824219 284.296875 C 224.09375 290.910156 212.609375 294.464844 200.363281 293.917969 C 199.269531 293.152344 198.667969 291.84375 198.394531 290.585938 C 198.613281 285.828125 204.300781 287.140625 206.105469 283.3125 C 208.839844 282.710938 211.628906 281.125 212.992188 278.390625 C 210.859375 273.359375 216.273438 273.253906 218.679688 271.503906 C 218.734375 269.972656 217.914063 268.332031 217.09375 266.964844 C 214.960938 267.511719 212.828125 268.222656 210.808594 269.152344 C 208.789063 264.152344 202.550781 267.949219 202.550781 267.949219 C 202.550781 255.613281 215.453125 252.148438 220.429688 252.585938 Z M 271.824219 294.300781 L 276.742188 293.316406 C 273.378906 296.683594 274.394531 302.996094 274.394531 302.996094 C 253.835938 313.054688 227.648438 317.703125 204.519531 313.21875 C 197.683594 311.417969 190.46875 308.84375 186.203125 302.613281 C 182.59375 296.980469 180.789063 288.398438 185 282.492188 C 187.898438 278.171875 192.109375 274.234375 197.027344 272.652344 C 199.980469 272.214844 202.386719 273.144531 204.300781 275.21875 C 205.230469 276.75 205.886719 278.664063 205.285156 280.523438 C 203.261719 286.429688 194.351563 283.148438 193.855469 290.203125 C 193.910156 293.425781 196.480469 296.488281 199.378906 297.691406 C 205.832031 298.292969 212.339844 296.871094 218.296875 295.121094 C 223.929688 293.097656 229.558594 291.132813 234.425781 287.25 C 244.261719 305.5 262.847656 288.808594 250.9375 279.976563 C 251.757813 282.710938 252.90625 287.25 250.773438 289.980469 C 249.078125 291.730469 246.945313 292.277344 244.648438 292.550781 C 242.023438 292.773438 240.714844 290.148438 239.128906 288.613281 C 237.980469 286.429688 238.636719 283.53125 240.113281 281.726563 C 248.53125 272.160156 256.898438 260.292969 269.253906 257.34375 C 275.707031 263.246094 281.609375 270.027344 288.335938 275.601563 C 276.882813 273.636719 270.566406 288.015625 271.824219 294.300781 Z M 297.792969 294.738281 C 296.046875 302.613281 291.453125 309.773438 284.398438 314.96875 C 291.394531 306.054688 297.792969 296.105469 295.660156 284.078125 C 300.800781 286.265625 297.410156 291.074219 297.792969 294.738281 Z M 315.890625 299.660156 C 318.84375 298.839844 321.796875 298.074219 324.75 297.253906 C 317.804688 290.472656 320.046875 277.789063 308.839844 274.839844 C 303.644531 273.796875 298.886719 275.386719 295.441406 278.773438 C 282.320313 265.269531 266.628906 252.53125 259.027344 236.066406 C 257.664063 232.074219 256.40625 226.605469 258.648438 222.667969 C 262.636719 215.5625 270.238281 212.007813 278.109375 213.429688 C 283.851563 214.359375 288.609375 217.804688 293.09375 221.902344 C 294.84375 223.816406 294.1875 226.714844 293.09375 228.792969 C 291.613281 230.871094 289.539063 232.402344 286.96875 232.292969 C 283.140625 232.183594 281.390625 227.917969 278.492188 226.003906 C 275.761719 223.324219 271.332031 223.597656 268.105469 225.019531 C 265.921875 226.988281 265.921875 230.105469 266.300781 232.894531 C 270.621094 242.023438 280.1875 250.234375 289.757813 252.585938 C 296.480469 254.882813 303.371094 256.851563 310.425781 258.488281 C 305.710938 271.738281 327.523438 285.203125 337.761719 267.730469 C 379.304688 289.378906 351.234375 329.019531 315.890625 299.660156 Z M 514.378906 265.339844 C 511.832031 277.164063 488.023438 274.195313 493.105469 258.667969 C 500.324219 260.691406 507.214844 263.316406 514.378906 265.339844 Z M 474.246094 235.421875 C 475.832031 236.679688 477.199219 241.054688 479.550781 238.976563 L 481.734375 236.570313 C 480.914063 234.21875 476.214844 232.46875 479.933594 229.902344 C 479.4375 214.753906 505.949219 219.6875 495.074219 236.789063 C 498.851563 236.789063 504.535156 235.367188 506.722656 239.523438 C 507.871094 241.164063 507.050781 243.351563 506.722656 245.046875 C 502.402344 250.355469 494.695313 249.484375 490.59375 255.714844 C 474.792969 251.945313 457.679688 247.613281 448.273438 232.25 C 448.328125 230.554688 447.839844 228.53125 449.261719 227.332031 C 450.898438 225.746094 453.304688 227.058594 455.328125 226.949219 C 460.851563 229.84375 464.515625 239.195313 472.277344 236.023438 C 472.988281 235.96875 473.480469 235.3125 474.246094 235.421875 Z M 409.292969 259.433594 C 409.183594 261.128906 408.855469 262.878906 407.707031 263.972656 C 406.449219 265.121094 404.425781 265.066406 402.785156 264.738281 C 401.472656 264.136719 399.941406 263.097656 399.449219 261.621094 C 399.285156 258.230469 400.816406 254.566406 403.550781 251.945313 C 406.394531 253.203125 408.964844 256.207031 409.292969 259.433594 Z M 399.613281 251.945313 C 397.59375 255.496094 396.113281 260.472656 397.863281 264.355469 C 400.269531 266.761719 403.386719 267.964844 406.941406 267.089844 C 408.800781 266.539063 410.769531 265.339844 411.644531 263.371094 C 413.722656 258.121094 410.167969 253.527344 406.339844 250.195313 C 427.617188 249.285156 414.101563 273.703125 413.011719 283.65625 C 403.277344 290.269531 391.796875 293.824219 379.550781 293.277344 C 378.453125 292.511719 377.855469 291.199219 377.582031 289.941406 C 377.800781 285.183594 383.484375 286.496094 385.289063 282.667969 C 388.023438 282.070313 390.8125 280.484375 392.179688 277.75 C 390.046875 272.71875 395.460938 272.609375 397.863281 270.859375 C 397.921875 269.332031 397.101563 267.691406 396.277344 266.324219 C 394.144531 266.871094 392.015625 267.582031 389.992188 268.511719 C 387.976563 263.507813 381.734375 267.304688 381.734375 267.304688 C 381.734375 254.972656 394.640625 251.503906 399.613281 251.945313 Z M 451.007813 293.660156 L 455.929688 292.675781 C 452.5625 296.042969 453.578125 302.351563 453.578125 302.351563 C 433.019531 312.414063 406.832031 317.0625 383.703125 312.578125 C 376.871094 310.773438 369.652344 308.203125 365.390625 301.96875 C 361.78125 296.339844 359.976563 287.757813 364.1875 281.851563 C 367.082031 277.53125 371.292969 273.59375 376.214844 272.007813 C 379.164063 271.570313 381.570313 272.5 383.484375 274.578125 C 384.414063 276.109375 385.070313 278.023438 384.46875 279.882813 C 382.445313 285.785156 373.535156 282.507813 373.042969 289.558594 C 373.097656 292.785156 375.667969 295.847656 378.566406 297.050781 C 385.015625 297.652344 391.523438 296.230469 397.480469 294.480469 C 403.113281 292.457031 408.746094 290.488281 413.609375 286.605469 C 423.445313 304.855469 442.03125 288.164063 430.121094 279.335938 C 430.941406 282.070313 432.09375 286.605469 429.960938 289.339844 C 428.265625 291.089844 426.132813 291.636719 423.835938 291.910156 C 421.210938 292.128906 419.898438 289.503906 418.3125 287.972656 C 417.164063 285.785156 417.820313 282.890625 419.296875 281.085938 C 427.71875 271.519531 436.082031 259.652344 448.4375 256.699219 C 454.890625 262.605469 460.796875 269.386719 467.519531 274.960938 C 456.066406 272.992188 449.753906 287.371094 451.007813 293.660156 Z M 476.980469 294.097656 C 475.230469 301.96875 470.636719 309.132813 463.582031 314.328125 C 470.582031 305.414063 476.980469 295.464844 474.847656 283.4375 C 479.984375 285.621094 476.597656 290.433594 476.980469 294.097656 Z M 495.074219 299.019531 C 498.027344 298.199219 500.980469 297.433594 503.933594 296.613281 C 496.988281 289.832031 499.230469 277.148438 488.023438 274.195313 C 482.828125 273.15625 478.070313 274.742188 474.628906 278.132813 C 461.507813 264.628906 445.8125 251.890625 438.214844 235.421875 C 436.847656 231.429688 435.589844 225.964844 437.832031 222.027344 C 441.824219 214.921875 449.421875 211.367188 457.296875 212.785156 C 463.035156 213.714844 467.792969 217.160156 472.277344 221.261719 C 474.027344 223.175781 473.371094 226.074219 472.277344 228.152344 C 470.800781 230.226563 468.722656 231.757813 466.152344 231.648438 C 462.328125 231.539063 460.578125 227.277344 457.679688 225.363281 C 454.945313 222.683594 450.519531 222.957031 447.289063 224.378906 C 445.105469 226.347656 445.105469 229.464844 445.488281 232.25 C 449.804688 241.382813 459.375 249.59375 468.941406 251.945313 C 475.667969 254.238281 482.554688 256.207031 489.609375 257.847656 C 484.894531 271.09375 506.710938 284.5625 516.945313 267.089844 C 558.488281 288.734375 530.417969 328.375 495.074219 299.019531 "/>
</g>
</svg>
