<?xml version="1.0" encoding="UTF-8"?>
<svg xmlns="http://www.w3.org/2000/svg" xmlns:xlink="http://www.w3.org/1999/xlink" width="508pt" height="496pt" viewBox="0 0 508 496" version="1.1">
<g id="surface1">
<path style=" stroke:none;fill-rule:nonzero;fill:rgb(0%,0%,0%);fill-opacity:1;" d="M 401.65625 156.097656 C 401.65625 151.640625 397.996094 148.03125 393.480469 148.03125 C 388.960938 148.03125 385.300781 151.640625 385.300781 156.097656 C 385.300781 160.554688 388.960938 164.164063 393.480469 164.164063 C 397.996094 164.164063 401.65625 160.554688 401.65625 156.097656 Z M 389.058594 154.492188 C 389.058594 152.21875 390.835938 150.378906 393.027344 150.378906 C 395.21875 150.378906 396.996094 152.21875 396.996094 154.492188 C 396.996094 156.765625 395.21875 158.605469 393.027344 158.605469 C 390.835938 158.605469 389.058594 156.765625 389.058594 154.492188 "/>
<path style=" stroke:none;fill-rule:nonzero;fill:rgb(0%,0%,0%);fill-opacity:1;" d="M 425.351563 304.386719 C 436.882813 306.742188 440.558594 288.785156 428.925781 286.53125 C 415.703125 283.972656 412.21875 301.707031 425.351563 304.386719 Z M 423.328125 290.117188 C 428.007813 286.402344 434.730469 292.929688 429.757813 297.144531 C 423.90625 302.113281 418.007813 294.34375 423.328125 290.117188 "/>
<path style=" stroke:none;fill-rule:nonzero;fill:rgb(0%,0%,0%);fill-opacity:1;" d="M 437.898438 400.300781 C 442.597656 394.851563 445.433594 382.789063 441.546875 371.425781 C 439.589844 365.703125 437.191406 360.046875 436.898438 353.800781 C 433.601563 355 428.699219 355.5 425.398438 354.199219 C 425.398438 354.199219 420 360.398438 416.800781 361.199219 C 414.101563 364.800781 411.898438 368.699219 410.800781 373 C 417.398438 381.699219 421.5 391.398438 421.300781 403 L 437.898438 400.300781 "/>
<path style=" stroke:none;fill-rule:nonzero;fill:rgb(0%,0%,0%);fill-opacity:1;" d="M 424.5 199 L 420.101563 202.300781 C 426.398438 209.101563 425.5 219.300781 429.300781 227.300781 C 441.609375 226.84375 454.371094 229.289063 451.300781 243.101563 C 464.191406 241.136719 473.488281 229.765625 466.371094 214.570313 C 462.113281 205.488281 451.980469 198.957031 443.699219 194.699219 C 440.320313 199.917969 431.957031 203.972656 424.5 199 "/>
<path style=" stroke:none;fill-rule:nonzero;fill:rgb(0%,0%,0%);fill-opacity:1;" d="M 347.464844 403.648438 C 335.203125 401.183594 332.542969 422.222656 345.183594 423.078125 C 357.394531 423.90625 359.675781 406.109375 347.464844 403.648438 Z M 343.429688 419.460938 C 337.128906 415.992188 342.015625 408.023438 347.574219 411.089844 C 352.214844 413.644531 348.695313 422.359375 343.429688 419.460938 "/>
<path style=" stroke:none;fill-rule:nonzero;fill:rgb(0%,0%,0%);fill-opacity:1;" d="M 504.601563 405.800781 C 499.402344 373.378906 461.980469 352.980469 445.800781 349.199219 L 447.699219 346.800781 C 447.699219 346.800781 452.339844 349.0625 454.867188 349.28125 C 471.019531 350.683594 488.800781 329.566406 484.5 311.800781 C 488.199219 304.601563 489 294.398438 484.5 287.300781 C 492.648438 279.148438 492.382813 262.117188 473.398438 249.398438 L 478 245.800781 C 491.679688 234.648438 490.085938 214.5625 484.484375 206.34375 C 476.574219 194.742188 459.953125 192.050781 448.898438 184.601563 L 451.101563 180.5 C 454.101563 172.300781 459.5 160.300781 450.898438 152.898438 C 452.5 142.601563 449.300781 133.101563 442.199219 125.800781 C 443.398438 117.898438 437.398438 111.601563 431.199219 107.300781 C 421 74.601563 420.800781 33.601563 428.5 0.300781 C 397.917969 23.113281 374.941406 58.140625 382.300781 95.972656 C 382.792969 98.507813 381.292969 101.109375 377.484375 100.882813 C 364.679688 100.121094 344.113281 110.113281 347.398438 124.300781 C 341.699219 129.101563 339.5 135.800781 338.5 142.800781 C 331.304688 148.152344 327.476563 172.816406 344.101563 180.699219 C 345.699219 187.699219 352.800781 193.101563 359.199219 195.101563 C 359 204.199219 368.5 210.601563 375.699219 213.398438 C 366.800781 227.699219 363.601563 247.300781 368.300781 264.199219 C 360.835938 278 358.585938 298.125 369.699219 301.699219 C 369.699219 310.199219 371.898438 317.699219 377.199219 324 C 375.398438 327.300781 374.601563 330.898438 374.300781 334.800781 C 364.5 336.101563 354.800781 337.800781 347.898438 346.300781 C 341.199219 343.300781 332.101563 343.800781 325.101563 345.800781 C 309.300781 335.300781 285.5 339.398438 270.898438 349.699219 C 256.800781 332.074219 227.445313 338.230469 215.257813 362.546875 C 213.265625 366.523438 208 375.101563 208 375.101563 C 200.183594 370.253906 183.5625 362.523438 176.800781 371.800781 C 166.699219 369.699219 156.601563 372.199219 149.199219 379 C 143.398438 377.800781 138.601563 380.398438 134.601563 384.199219 C 99.203125 392.269531 49.375 392.675781 0.601563 381.800781 C 20.5 413.332031 62.824219 441.0625 105.160156 440.132813 C 110.546875 440.015625 122.101563 439.402344 122.101563 439.402344 C 118.695313 452.65625 131.90625 477.886719 143.199219 474.199219 C 147.699219 480.800781 154.699219 483 161.699219 484.601563 C 167.132813 492.8125 194.335938 492.265625 199.398438 480.5 C 206.699219 479.101563 211.800781 472.601563 214.5 466.101563 C 218.898438 466.5 222.398438 464.601563 225.5 462 C 247 476.601563 278.601563 472.699219 304.699219 470.601563 C 313.601563 476.398438 324.699219 481.199219 335.398438 478.101563 C 344.800781 481.898438 354.800781 480.199219 364 477.800781 C 380.042969 482.972656 399.078125 465.816406 405 451.898438 C 417.289063 460.765625 435.011719 475.570313 453 465.601563 C 452.699219 478.300781 443.398438 488.800781 432.898438 495.800781 C 469.164063 495.332031 517.339844 466.359375 504.601563 405.800781 Z M 120.199219 433.902344 C 77.8125 441.046875 26.121094 406.296875 16.5 391.699219 C 48 403.800781 84.898438 407.300781 121.101563 403.699219 C 120.699219 407.199219 119.601563 411.800781 121.601563 415.199219 C 119.699219 420.800781 119.199219 427.699219 120.199219 433.902344 Z M 406 372.699219 C 408.449219 367.800781 409.828125 359.683594 415.828125 357.933594 C 416.6875 357.683594 423.5 353.800781 424 351.101563 C 429.699219 352.699219 436.601563 351.5 442 349.398438 C 440.050781 356.5 442.101563 362.550781 444.476563 368.601563 C 448.96875 380.050781 450.757813 395.042969 441.5 403.902344 C 432.601563 404.300781 424.601563 406.800781 416.101563 408.199219 C 420.300781 395.601563 412.601563 383.199219 406 372.699219 Z M 424.761719 318.324219 C 425.429688 312.304688 429.820313 311.003906 433.300781 316.800781 C 437.5 325.300781 439.5 334.601563 444.398438 342.699219 C 439.398438 347.101563 431.699219 347.300781 424.898438 346.300781 C 425.714844 337.273438 423.753906 327.433594 424.761719 318.324219 Z M 481.300781 306.199219 C 472.699219 299.601563 460.800781 301 449.699219 300.5 C 442.832031 298.628906 442.289063 294.480469 444.101563 290.601563 C 455.800781 281.601563 468.800781 296 481.800781 289.398438 C 483.5 294.601563 484 301.398438 481.300781 306.199219 Z M 471 217.898438 C 476.027344 237.113281 462.695313 245.839844 447.699219 245.101563 C 450.214844 233.148438 442.449219 229.472656 427.300781 229.699219 C 422.101563 220.699219 423.699219 207.699219 414.898438 201.398438 C 418.398438 199.601563 422.300781 198.5 425.199219 195.101563 C 430.828125 202.140625 439.703125 195.683594 443.699219 192.300781 C 455.199219 195.601563 468.398438 205.398438 471 217.898438 Z M 456.101563 255.101563 C 450 261.199219 445 269.601563 437.898438 274.101563 C 436.199219 274.101563 435 272.5 434.800781 271 C 434 264 444.398438 252.699219 444.398438 252.699219 C 448 254.199219 451.898438 255.300781 456.101563 255.101563 Z M 406.199219 198.5 C 405.648438 190.933594 401.992188 184.300781 401.152344 176.984375 C 400.246094 169.109375 403.765625 166.867188 407.902344 171.773438 C 408.667969 172.683594 421.601563 191.5 421.601563 191.5 C 417.398438 195.5 412.300781 198.398438 406.199219 198.5 Z M 439.800781 129.898438 C 446 134.300781 448.300781 141.898438 446.800781 149.800781 C 435.398438 148.800781 426.101563 154 415.300781 155.300781 C 410.410156 155.523438 408.367188 149.265625 414.101563 146.398438 C 422.898438 141.398438 432.101563 136.800781 439.800781 129.898438 Z M 420.101563 13.699219 C 411.101563 39.101563 409 70.300781 413.699219 98.398438 C 410.5 98.199219 407.601563 98.601563 405 99.898438 C 399.800781 98.199219 393.101563 97.898438 387.5 99.101563 C 380.238281 79.175781 387.460938 36.113281 420.101563 13.699219 Z M 385.601563 104.898438 C 390.398438 103.101563 396.601563 102.101563 401.699219 103.898438 C 398.957031 113.894531 398.902344 124.949219 395.886719 134.800781 C 394.40625 139.636719 389.375 138.675781 387.5 136.800781 C 386.28125 125.339844 392.742188 114.550781 385.601563 104.898438 Z M 349.101563 127.699219 C 355.800781 134 364.300781 135.898438 372.398438 139 C 377.503906 142.003906 375.894531 146.1875 372.898438 146.398438 C 362.800781 145.300781 354 141.199219 343.300781 141.601563 C 343.199219 136.101563 344.800781 131.101563 349.101563 127.699219 Z M 360.101563 190.101563 C 355.5 188.898438 351 185.398438 348.398438 181.199219 C 360.898438 180.800781 364.101563 164.898438 375.300781 161.5 C 384.570313 159.511719 383.882813 166.796875 380.300781 171.101563 C 373.601563 177.5 364.5 181.5 360.101563 190.101563 Z M 380.078125 190.597656 C 387.292969 181.480469 392.132813 169.964844 386.714844 162.835938 C 380.230469 154.304688 370.691406 156.941406 362.371094 166.21875 C 344.882813 185.714844 343.101563 171.898438 343.101563 171.898438 C 350.980469 174.527344 355.871094 167.953125 352.847656 162.148438 C 350.449219 157.546875 342.042969 156.449219 339.699219 162.699219 C 337.835938 156.664063 339.484375 152.582031 351.84375 153.910156 C 360.855469 154.875 375.625 158.386719 378.601563 149.300781 C 381.355469 139.417969 372.894531 135.488281 364.316406 132.128906 C 351.707031 127.191406 348.28125 123.828125 356.101563 115.699219 C 355.105469 123.988281 363.507813 127 367.867188 124.390625 C 373.828125 120.824219 372.433594 110.527344 365.199219 110.199219 C 374.050781 104.296875 378.3125 112.035156 378.621094 123.007813 C 378.949219 134.621094 379.441406 143.796875 387.988281 144.363281 C 397.03125 144.960938 400.476563 139.894531 402.492188 127.050781 C 403.761719 118.972656 404.21875 110.535156 407.398438 103.199219 C 409.199219 102 412 102.5 414.101563 102.699219 C 408.3125 106.105469 408.089844 115.234375 414.894531 117.109375 C 421.566406 118.953125 426.554688 110.367188 423.5 105.898438 C 432.777344 110.539063 431.808594 116.683594 421.164063 124.996094 C 412.046875 132.125 403.734375 142.929688 405.5 150.699219 C 408.359375 158.636719 413.3125 159.398438 428.199219 155.4375 C 442.105469 151.738281 456.164063 155.664063 450.601563 169.5 C 449.53125 159.519531 437.078125 160.285156 433.074219 166.386719 C 428.3125 173.640625 437.617188 185.210938 446.5 179.800781 C 440.503906 191.792969 434.808594 188.296875 427.863281 179.917969 C 420.523438 171.070313 413.066406 159.140625 401.199219 164.699219 C 393.984375 172.824219 398.050781 180.992188 400.546875 189.558594 C 403.429688 199.46875 405.203125 206.78125 394.699219 208.800781 C 401.664063 203.101563 395.355469 193.332031 389.8125 192.960938 C 383.027344 192.507813 380.289063 197.53125 380.5 201.664063 C 380.714844 205.828125 383.898438 209.101563 383.898438 209.101563 C 373.164063 209 369.984375 203.347656 380.078125 190.597656 Z M 380.101563 214.800781 C 392.832031 217.378906 406.5 210.921875 406.5 202.800781 C 416.925781 199.820313 419.417969 219.691406 423.5 229.699219 C 414.078125 232.054688 401.988281 236.957031 401.164063 244 C 401.164063 244 391.164063 248 386.800781 254.199219 C 383.800781 252.5 379.300781 253.101563 376.5 254.699219 C 373.699219 241.5 372.699219 226.199219 380.101563 214.800781 Z M 420.835938 275 C 420.933594 276.898438 418.765625 278.664063 417.164063 279.664063 C 409.765625 281.265625 390.398438 257.300781 390.398438 257.300781 C 393.5 253.199219 397.800781 250.699219 402.101563 249.101563 C 404.898438 259 413.835938 267.300781 420.835938 275 Z M 368.5 270.699219 C 369.226563 279.175781 379.585938 280.941406 383.914063 274.171875 C 387.652344 268.328125 382.363281 261.28125 375.300781 261.601563 C 380.988281 257.207031 383.214844 256.960938 393.683594 267.820313 C 402.796875 277.273438 412.984375 291.164063 424.761719 281.246094 C 430.296875 276.578125 429.738281 272.433594 422.5 260.898438 C 415.445313 251.09375 408.007813 242.261719 420.398438 237.101563 C 417.902344 242.929688 422.035156 249.773438 428.480469 248.859375 C 439.226563 247.339844 433.601563 235.699219 433.601563 235.699219 C 437.699219 236.101563 442.398438 236.699219 444.398438 240.699219 C 443 253.898438 426.199219 263.300781 434.101563 277.699219 C 437.101563 281.101563 441.300781 282.199219 445.800781 281.300781 C 451.058594 278.359375 455.519531 273.464844 460.140625 268.972656 C 464.746094 264.496094 476.5 251.664063 479.199219 267.101563 C 470.804688 263.742188 466.390625 270.789063 468.253906 276.085938 C 471.742188 285.980469 481.800781 277.898438 481.800781 277.898438 C 481.800781 281.199219 481.5 284.800781 478.199219 286.300781 C 465.101563 288.699219 447.398438 275.300781 438.898438 291.101563 C 433.472656 302.613281 446.160156 312.953125 456.261719 315.910156 C 474.070313 321.132813 479.390625 324.105469 470.300781 334.800781 C 470.949219 326.054688 462.617188 321.644531 456.054688 325.125 C 448.1875 329.296875 452.007813 340.703125 459.699219 342.5 C 449.210938 346.148438 446.828125 340.027344 442.800781 330.476563 C 436.398438 315.289063 436.5625 307.484375 424.898438 307.898438 C 416.675781 308.929688 413.507813 321.644531 412.429688 336.328125 C 411.386719 350.523438 407.101563 356.277344 394.199219 349.199219 C 401.984375 347.578125 402.679688 338.496094 396.707031 334.671875 C 391.808594 331.539063 383.644531 334.855469 385.101563 343 C 371.449219 332.523438 381.898438 322.8125 394.652344 317.554688 C 407.980469 312.058594 417.828125 310.601563 413.355469 298.597656 C 408.917969 286.6875 391.789063 286.300781 381.828125 285.382813 C 369.109375 284.21875 364.242188 279.214844 368.5 270.699219 Z M 373.601563 302.398438 C 384.300781 302.300781 394.5 301 404.800781 299.800781 C 411.007813 298.648438 411.261719 306.039063 406.699219 309.398438 C 398.199219 313.398438 389 315.601563 380.800781 320.398438 C 375.300781 316.101563 372.699219 309.5 373.601563 302.398438 Z M 378.398438 343 C 385.699219 350.398438 393.898438 355.5 403.101563 358.300781 L 399.5 365.5 C 395 362.800781 389.199219 359.699219 383.398438 361.699219 C 375.398438 355.199219 366.398438 351.300781 355.300781 352.101563 C 354.199219 351.699219 353.398438 349.699219 352 348.699219 C 360.300781 345.699219 368.5 341.601563 378.398438 343 Z M 378.898438 365 C 372.035156 372.769531 367.859375 381.925781 362.769531 390.628906 C 358.203125 398.425781 351.757813 399.175781 353.261719 389.398438 C 355.1875 376.859375 356.5 357.800781 356.5 357.800781 C 364.898438 356 373.601563 358.300781 378.898438 365 Z M 274.5 354.5 C 285.398438 343.699219 304.398438 343.898438 318.101563 348.5 C 310.398438 352.699219 300.800781 360.199219 301.800781 370.300781 C 294.101563 373.300781 286.800781 380.601563 285.300781 388.800781 C 274.101563 395.101563 272.699219 408.800781 274.199219 420.699219 C 260.300781 421.402344 247.601563 425 236.101563 431.5 C 235.101563 425.699219 231.199219 419.902344 225 418.800781 L 224.601563 418.800781 C 221.261719 412.679688 233.449219 407.839844 245.496094 404.988281 C 277.398438 397.445313 283.917969 372.503906 274.5 354.5 Z M 327.699219 395.800781 C 332.59375 400.152344 332.371094 406.082031 327 408 C 311.300781 409.199219 306.199219 386.398438 290.300781 387.398438 C 293.300781 382.300781 298.101563 378 303.5 376.101563 C 309.398438 385.300781 319.699219 389.699219 327.699219 395.800781 Z M 264.101563 360.5 C 270.199219 367.699219 269.800781 380.199219 265.601563 388.101563 C 260.660156 396.492188 252.742188 399.5 244.425781 401.71875 C 235.71875 404.039063 223.398438 410.402344 223.398438 410.402344 C 221.898438 406.597656 220.800781 402.699219 217.601563 399.597656 C 220.925781 396.628906 221.730469 388.796875 215.699219 381.101563 C 222.351563 359.039063 247.714844 341.671875 264.101563 360.5 Z M 220.199219 418.800781 C 211.699219 419.699219 204 422.800781 195.300781 423.402344 C 191.066406 423.402344 189.445313 419.367188 193.601563 415.699219 L 213.800781 403 C 217.699219 407.300781 219.898438 412.800781 220.199219 418.800781 Z M 173.699219 376.101563 C 171.398438 387.199219 176.601563 397.097656 177.5 407.800781 C 177.5 411.273438 174.421875 414.636719 170.300781 411.402344 C 164.601563 401.402344 160.800781 390.699219 153 381.601563 C 157.800781 375.699219 166.199219 373.699219 173.699219 376.101563 Z M 125.398438 418.597656 C 135.800781 422.097656 147.601563 422 157.398438 427 C 160.367188 429.140625 160.5 434.667969 156.601563 434.902344 C 146.898438 432.699219 134.898438 429.5 125.699219 434.902344 C 124.101563 430.097656 123.398438 423.402344 125.398438 418.597656 Z M 160.199219 479.5 C 155.101563 478.898438 150.101563 477.601563 146.800781 473 C 153 466.300781 156 458.101563 159 450 C 160.699219 447.800781 165.933594 447.234375 166.835938 451.332031 C 165.632813 461.734375 160.101563 468.898438 160.199219 479.5 Z M 200.300781 476.398438 C 200.5 463.300781 182.898438 459.398438 181.601563 446.898438 C 182.261719 441.261719 189.535156 439.640625 192.601563 445 C 198 451.601563 201.300781 460.199219 209.398438 464.601563 C 208.199219 469.300781 204.800781 473.898438 200.300781 476.398438 Z M 227.199219 448.101563 C 225.699219 450.5 223.101563 452.199219 220.199219 451.199219 C 212.371094 447.511719 205.214844 438.011719 197.078125 434.898438 C 187.675781 431.300781 174.839844 441.675781 178.5 451.699219 C 181.800781 460.300781 193.199219 465.601563 196 474.5 C 195.601563 476.601563 194.5 478.699219 192.601563 479.800781 C 193.554688 474.273438 188.882813 468.667969 182.601563 470.398438 C 177.15625 471.636719 173.6875 479.863281 179.398438 484.300781 C 171.910156 485.015625 172.699219 482.53125 172.699219 472.601563 C 173.898438 465.300781 176.300781 457.800781 175.398438 450.199219 C 174.199219 447.699219 171.898438 445.398438 169.398438 444.199219 C 164.898438 442.601563 161 444.898438 157.800781 447.601563 C 152.199219 454.101563 150.800781 462.300781 145.800781 469 C 141.023438 472.410156 137.429688 468.246094 135.800781 465.800781 C 142.171875 466.289063 146.65625 459.003906 142.59375 453.59375 C 138.527344 448.179688 132.4375 452.355469 129.5 454.800781 C 128.601563 452.5 128 448.398438 130 446.398438 C 138 440.199219 149.800781 444.398438 159.5 442.800781 C 162.898438 441.5 165.101563 437.902344 165.300781 434.402344 C 165.699219 429.300781 163.398438 424.699219 159 422.199219 C 148.601563 417.902344 136.398438 417.597656 125.898438 413.5 C 123.199219 411.5 125.101563 407.800781 125.199219 405.097656 C 129.496094 411.28125 135.734375 408.828125 137.699219 404.902344 C 139.53125 397.878906 133.59375 393.875 129.5 394.800781 C 130.898438 392.699219 133 391.199219 135.5 391.199219 C 146.101563 393 148.800781 404.902344 156.199219 411.402344 C 167.078125 422.796875 177.597656 416.335938 179.398438 412.597656 C 181.898438 401 174.898438 391 177.300781 379.199219 C 179.613281 369.941406 188.160156 371.304688 194.101563 373 C 184.855469 374.847656 187.609375 384.992188 191.996094 387.742188 C 196.964844 390.863281 207.148438 386.890625 203.898438 377.800781 C 207.5 380.199219 211.699219 383.898438 210.601563 388.601563 C 203.101563 397.300781 191.800781 401.902344 185.699219 411.800781 C 184.199219 415.097656 184.101563 420.097656 186.601563 422.902344 C 199.101563 434.097656 212.601563 418.199219 226.199219 424.800781 C 228.601563 426.5 229.5 429.199219 230.101563 431.800781 C 224.410156 430.765625 219.195313 434.125 218.527344 438.339844 C 217.96875 441.875 220.5 448.332031 227.199219 448.101563 Z M 228.398438 459.601563 C 232.398438 453.398438 235.5 446.898438 236.601563 439.402344 C 248.5 431.199219 278.164063 432.332031 278.164063 432.332031 C 279.46875 440.332031 293.300781 459.601563 295.101563 461.5 C 274.300781 466.699219 248.101563 467.800781 228.398438 459.601563 Z M 296.101563 450.199219 C 290.601563 446.601563 288.601563 440.398438 287.898438 434.199219 C 299.601563 433.699219 309.5 429 320.300781 426.199219 C 323.359375 425.894531 327.144531 432.273438 321.527344 435.058594 C 312.75 439.410156 303.054688 442.023438 296.101563 450.199219 Z M 340.199219 473.800781 C 345.214844 464.304688 343.652344 452.257813 340.890625 442.074219 C 338.710938 434.027344 346.644531 431.230469 350.441406 439.027344 C 351.828125 441.871094 356.398438 465.5 359.199219 473.800781 C 353 475.601563 346.398438 475.601563 340.199219 473.800781 Z M 385.800781 469 C 389.277344 458.886719 380.917969 454.03125 374.546875 457.09375 C 362.414063 462.921875 375 473.5 375 473.5 C 372.300781 474.199219 369.300781 474.898438 366.398438 474.199219 C 363.300781 470.398438 362.699219 465.398438 361.300781 460.800781 C 355.125 434.414063 352.121094 425.03125 337.800781 427.699219 C 330.695313 430.066406 329.46875 436.539063 330.578125 450.351563 C 332.242188 471.066406 327.054688 471.769531 316.699219 469.699219 C 325.289063 466.339844 324.441406 456.042969 317.007813 453.207031 C 309.605469 450.382813 304.589844 456.828125 305.398438 463.699219 C 302.5 461.601563 299.699219 458.601563 298.699219 455.300781 C 297.789063 448.234375 311.429688 444.65625 315.464844 442.597656 C 323.484375 438.5 330.796875 433.191406 328.699219 422.902344 C 324.140625 411.503906 310.859375 416.457031 300.84375 418.386719 C 284.097656 421.609375 280.332031 420.894531 282.101563 409.699219 C 284.054688 414.828125 295.804688 414.671875 297.25 408.351563 C 298.753906 401.777344 294.832031 395.207031 285.5 398.597656 C 288.898438 388.402344 293.789063 391.132813 303 398.597656 C 310.699219 405.699219 317.898438 415.902344 329.199219 412.097656 C 333.898438 410.199219 337.898438 405.699219 339 400.800781 C 341.660156 390.285156 335.441406 383.214844 329.058594 376.128906 C 322.496094 368.847656 311.882813 356.457031 331.800781 351.601563 C 322.085938 359.074219 330.738281 368.464844 337.851563 367.101563 C 345.222656 365.691406 346.523438 354.113281 340.5 351.101563 C 351.125 352.066406 353.292969 359.875 350.628906 374.023438 C 348.648438 384.558594 344.195313 396.867188 355.101563 403.199219 C 366.59375 407.257813 372.710938 397.324219 379.027344 388.472656 C 385.5625 379.3125 391.761719 367.019531 402.601563 377.5 L 405.699219 381.800781 C 396.703125 377.105469 388.648438 387.703125 393.769531 395.378906 C 398.5625 402.5625 409.523438 401.210938 410.5 392.398438 C 419.765625 411.390625 399.535156 412.777344 389.898438 411.800781 C 380.800781 411.300781 366.898438 403.902344 360.898438 414.5 C 358.800781 420.5 359.199219 428.5 363.300781 433.402344 C 371 442.898438 382.199219 446.398438 389.398438 456 C 392.828125 461.148438 389.546875 466.75 385.800781 469 Z M 397.300781 436.300781 L 396.398438 436.300781 C 388.109375 430.507813 378.710938 427.414063 370.039063 422.5625 C 364.882813 419.679688 364.347656 410.039063 376.199219 412.597656 C 385 414 393.199219 416.699219 402.601563 416.597656 C 403.898438 423.902344 402 431 397.300781 436.300781 Z M 439.800781 452.601563 C 425.398438 456.101563 412.898438 449.300781 404.300781 438 C 408.101563 431.800781 409.101563 423.300781 407.199219 415.902344 L 412.699219 412.097656 C 426.199219 410.597656 444.199219 401.902344 454.898438 414 C 466.789063 427.917969 464.476563 448.039063 439.800781 452.601563 Z M 444.898438 490.101563 C 451.101563 483.300781 455.300781 473.199219 456.898438 463.199219 C 477.726563 443.929688 475.371094 421.375 463.695313 410.480469 C 460.714844 407.699219 450.398438 404.597656 450.398438 404.597656 C 456.199219 391.601563 451 376.300781 446.800781 363.800781 C 467.398438 365.101563 485.601563 382.101563 492.101563 401 C 511.921875 459.59375 471.058594 479.671875 444.898438 490.101563 "/>
<path style=" stroke:none;fill-rule:nonzero;fill:rgb(0%,0%,0%);fill-opacity:1;" d="M 429.285156 413.648438 C 428.035156 413.957031 414.800781 415.402344 409.800781 416.902344 C 412 423 412.800781 432.097656 408.601563 437.5 C 417.757813 445.425781 440.929688 456.472656 453.300781 439 C 460.941406 428.738281 453.847656 407.546875 429.285156 413.648438 "/>
<path style=" stroke:none;fill-rule:nonzero;fill:rgb(0%,0%,0%);fill-opacity:1;" d="M 223.601563 396 C 220.601563 398.902344 223.601563 402.097656 225.300781 404.402344 C 236.898438 398.597656 252.199219 399.402344 260.300781 387.101563 C 266.460938 374.371094 262.03125 357.449219 244.835938 359.335938 C 234.03125 360.632813 223.5 371.601563 219.300781 381.398438 C 223.898438 384.699219 224.300781 390.5 223.601563 396 "/>
<path style=" stroke:none;fill-rule:nonzero;fill:rgb(0%,0%,0%);fill-opacity:1;" d="M 179.261719 421.238281 C 169.191406 418.164063 163.730469 430.480469 172.515625 436.3125 C 182.644531 443.03125 191.132813 424.859375 179.261719 421.238281 Z M 173.785156 433.789063 C 167.328125 431.3125 171.84375 423.382813 177.160156 426.003906 C 182.09375 428.433594 179.25 435.882813 173.785156 433.789063 "/>
</g>
</svg>
