<?xml version="1.0" encoding="UTF-8"?>
<svg xmlns="http://www.w3.org/2000/svg" xmlns:xlink="http://www.w3.org/1999/xlink" width="549pt" height="339pt" viewBox="0 0 549 339" version="1.1">
<g id="surface1">
<path style=" stroke:none;fill-rule:nonzero;fill:rgb(0%,0%,0%);fill-opacity:1;" d="M 112.683594 139.710938 C 109.683594 150.808594 106.285156 163.410156 109.785156 174.609375 C 120.183594 168.910156 131.484375 162.109375 138.984375 152.308594 C 153.984375 159.511719 172.785156 164.109375 190.085938 159.511719 C 194.585938 161.710938 199.085938 164.011719 204.484375 164.210938 C 219.585938 160.609375 236.886719 165.511719 250.183594 157.710938 C 251.984375 156.109375 252.484375 158.910156 253.085938 159.808594 C 255.585938 165.609375 261.386719 166.210938 266.785156 166.710938 C 266.484375 168.410156 264.886719 170.011719 264.984375 171.410156 C 266.785156 170.808594 268.886719 169.609375 270.683594 169.910156 C 270.484375 171.609375 269.683594 173.808594 269.984375 175.011719 L 276.785156 170.308594 C 278.1875 171.710938 278.085938 174.308594 279.6875 175.011719 C 280.386719 173.910156 279.585938 171.808594 281.1875 171.410156 C 282.886719 174.308594 293.488281 184.808594 314.585938 166.308594 C 311.6875 167.308594 307.886719 166.109375 304.585938 166.011719 C 303.085938 153.011719 311.851563 119.59375 340.1875 110.511719 C 322.785156 122.710938 306.984375 141.210938 307.085938 163.410156 C 333.6875 165.210938 357.984375 166.011719 385.1875 166.308594 L 444.984375 164.210938 C 441.886719 137.808594 412.0625 93.449219 355.984375 104.011719 C 358.984375 94.242188 352.285156 89.109375 351.386719 85.308594 C 356.785156 86.410156 362.386719 87.910156 368.285156 86.808594 C 368.285156 86.808594 367.984375 95.410156 368.285156 99.011719 C 431.472656 99.011719 442.785156 145.808594 445.984375 155.511719 C 503.5625 154.210938 507.523438 69.683594 442.785156 58.308594 C 448.484375 52.808594 467.914063 30.46875 465.785156 0.410156 C 465.785156 0.410156 420.886719 16.605469 414.386719 36.710938 C 397.714844 21.839844 367.285156 33.308594 359.285156 34.609375 C 367.785156 44.808594 374.484375 55.808594 385.886719 63.011719 C 382.886719 65.308594 379.886719 67.511719 376.886719 69.808594 C 367.386719 62.210938 355.6875 57.808594 343.785156 58.308594 C 343.785156 58.308594 335.886719 54.210938 332.984375 54.410156 C 333.6875 38.511719 330.285156 23.511719 321.484375 11.210938 L 320.386719 11.210938 C 309.085938 24.308594 297.1875 39.109375 303.085938 57.609375 C 303.085938 57.609375 279.371094 48.6875 268.886719 67.710938 C 269.285156 70.808594 299.96875 116.816406 260.984375 144.710938 C 297.589844 98.203125 259.785156 60.609375 241.183594 52.210938 C 257.585938 29.675781 246.183594 5.011719 242.285156 0.0117188 C 236.085938 14.808594 224.585938 26.808594 211.285156 37.410156 C 209.886719 37.109375 208.484375 36.910156 207.386719 36.011719 C 192.785156 31.109375 174.785156 31.109375 160.183594 36.011719 C 164.386719 45.210938 171.085938 53.609375 178.585938 61.210938 C 170.386719 65.710938 164.085938 74.308594 160.886719 82.410156 L 176.785156 98.308594 C 176.785156 98.308594 185.285156 61.308594 211.984375 65.511719 C 212.785156 71.609375 213.585938 78.011719 212.785156 84.210938 C 205.085938 97.109375 193.285156 108.808594 195.484375 125.308594 L 120.984375 49.308594 C 110.484375 65.511719 104.984375 85.511719 108.683594 105.808594 C 98.285156 107.609375 87.785156 110.308594 78.785156 114.808594 C 87.585938 126.308594 99.386719 136.308594 112.683594 139.710938 Z M 457.1875 12.609375 C 454.886719 32.511719 445.984375 54.511719 425.1875 61.910156 C 423.886719 64.410156 428.886719 65.710938 427.984375 68.011719 C 426.484375 69.910156 423.085938 69.910156 420.785156 69.808594 C 425.1875 57.007813 420.085938 48.609375 420.085938 48.609375 C 420.1875 28.808594 442.886719 20.308594 457.1875 12.609375 Z M 368.984375 38.210938 C 381.1875 35.910156 396.785156 29.308594 408.1875 38.511719 L 411.484375 41.410156 C 409.484375 42.609375 406.386719 42.410156 404.285156 43.910156 C 422.933594 55.015625 414.386719 65.808594 412.1875 68.808594 C 411.1875 66.710938 411.484375 63.609375 408.585938 63.011719 C 401.886719 60.308594 394.785156 61.910156 389.1875 56.910156 C 381.984375 51.808594 373.984375 45.410156 368.984375 38.210938 Z M 310.984375 74.910156 C 315.085938 78.808594 323.785156 88.15625 328.984375 80.609375 C 322.148438 100.976563 310.984375 74.910156 310.984375 74.910156 Z M 380.886719 157.011719 C 360.988281 146.972656 367.886719 160.910156 367.886719 160.910156 L 353.1875 160.910156 C 356.609375 126.722656 399.984375 161.609375 399.984375 161.609375 C 393.1875 162.210938 385.386719 163.011719 380.886719 157.011719 Z M 436.984375 160.210938 L 407.484375 161.609375 C 351.460938 121.96875 346.6875 155.410156 348.085938 160.910156 C 335.085938 162.210938 325.285156 160.210938 312.484375 159.808594 C 368.285156 86.808594 422.886719 134.609375 436.984375 160.210938 Z M 378.6875 79.210938 C 365.785156 85.011719 349.585938 81.511719 338.785156 73.808594 C 331.886719 71.210938 325.886719 75.011719 320.386719 77.808594 C 337.160156 50.234375 369.585938 67.109375 378.6875 79.210938 Z M 320.785156 19.808594 C 328.984375 30.410156 330.6875 45.511719 327.585938 59.011719 C 322.984375 61.210938 318.6875 66.410156 315.6875 70.210938 C 297.984375 41.953125 311.984375 30.808594 320.785156 19.808594 Z M 207.683594 59.011719 C 199.273438 55.898438 186.785156 59.808594 186.785156 59.808594 C 178.886719 55.109375 172.183594 46.910156 167.785156 39.210938 C 179.683594 36.011719 194.386719 36.011719 206.285156 39.210938 L 206.285156 39.609375 C 203.386719 41.308594 198.886719 40.410156 197.285156 43.609375 C 201.386719 46.808594 205.386719 50.308594 208.085938 54.710938 C 207.886719 56.210938 208.484375 57.410156 207.683594 59.011719 Z M 226.386719 118.808594 C 224.484375 114.109375 220.183594 110.410156 217.085938 106.210938 L 216.386719 94.710938 C 245.464844 123.789063 219.683594 132.910156 215.585938 133.910156 C 215.984375 128.710938 216.386719 122.710938 216.683594 118.410156 C 218.285156 121.511719 220.683594 124.710938 224.585938 124.210938 C 226.085938 122.808594 226.785156 121.011719 226.386719 118.808594 Z M 215.984375 158.011719 C 218.886719 151.410156 211.984375 135.410156 224.585938 135.710938 C 229.285156 133.210938 242.9375 111.261719 217.386719 85.710938 C 217.785156 79.410156 216.886719 73.210938 216.683594 66.210938 C 257.1875 54.632813 283.726563 144.148438 215.984375 158.011719 Z M 219.585938 36.410156 C 229.285156 28.410156 239.683594 21.511719 242.984375 9.410156 C 254.414063 49.480469 221.285156 57.109375 214.585938 60.109375 C 216.785156 52.410156 212.484375 42.011719 219.585938 36.410156 Z M 211.984375 157.308594 C 206.785156 156.808594 202.484375 158.511719 197.585938 155.910156 C 202.585938 152.710938 208.386719 149.210938 211.683594 144.011719 L 206.585938 137.910156 L 213.085938 139.011719 C 213.285156 145.808594 212.085938 150.710938 211.984375 157.308594 Z M 211.984375 93.210938 C 212.285156 96.710938 213.085938 100.910156 212.785156 104.410156 C 208.484375 109.109375 201.984375 113.410156 202.984375 119.910156 C 204.085938 121.808594 206.683594 122.609375 208.785156 121.710938 C 209.785156 121.109375 210.683594 120.109375 211.683594 119.210938 L 210.984375 133.609375 C 208.886719 134.109375 185.097656 128.703125 211.984375 93.210938 Z M 168.484375 99.710938 C 168.085938 106.011719 163.585938 113.609375 168.785156 119.210938 C 171.085938 120.210938 173.285156 119.011719 174.984375 117.410156 C 175.886719 115.011719 177.285156 112.308594 176.785156 109.808594 L 183.585938 117.710938 C 180.785156 121.410156 158.785156 144.746094 158.785156 91.109375 C 161.785156 93.710938 164.984375 96.609375 168.484375 99.710938 Z M 123.085938 56.910156 C 134.183594 65.511719 143.386719 74.410156 153.683594 85.011719 C 153.683594 148.109375 182.984375 126.609375 185.785156 122.410156 C 192.085938 128.308594 203.785156 141.808594 203.785156 141.808594 C 105.085938 171.480469 123.085938 56.910156 123.085938 56.910156 Z M 109.386719 112.011719 C 109.386719 112.011719 117.863281 141.140625 134.585938 149.410156 C 129.386719 156.808594 121.886719 162.011719 114.085938 164.910156 C 112.484375 154.308594 116.386719 145.910156 119.183594 137.210938 C 114.683594 134.511719 96.316406 131.949219 87.484375 118.808594 C 93.683594 114.609375 101.085938 111.710938 109.386719 112.011719 Z M 520 254.398438 C 523.101563 251.101563 538.175781 238.085938 536.199219 213.300781 C 523.601563 221.300781 509.199219 227 499.398438 239.199219 C 489.5 228.898438 473.101563 235.800781 462 238.199219 C 467.101563 245.101563 472.300781 252.601563 479.601563 258 C 477.699219 259.5 475.800781 261.101563 473.898438 262.601563 C 467.101563 257.699219 459.699219 254.398438 450.800781 254.398438 C 452.398438 253.101563 449.207031 248.894531 443.601563 251.5 C 444.5 240.101563 441.199219 230.398438 435.699219 221.601563 C 435.699219 221.601563 418.539063 237.613281 422.800781 254.398438 C 420.101563 254.101563 407.546875 252.15625 399.699219 261.898438 C 403.699219 266.398438 415.464844 295.535156 395.800781 315.199219 C 395.800781 315.199219 421.851563 275.441406 380.601563 250.398438 C 380.601563 250.398438 393.007813 234.304688 381.398438 213.699219 C 377.699219 223.898438 369.199219 233 360.101563 240 C 348.898438 236 334.5 235.101563 323 239.199219 C 325.800781 245.800781 330.601563 251.5 336 256.898438 C 330.5 260.800781 325.300781 265.699219 323.398438 272 L 334.601563 282.800781 C 334.601563 282.800781 338.5 259.398438 360.5 259.800781 C 360.5 264.800781 362.101563 269.101563 360.5 273.398438 C 355.300781 282.300781 347 290 348.199219 301.5 C 348.199219 301.5 309.101563 260.699219 296.398438 248.199219 C 289 259.699219 285.300781 274 287 287.800781 L 280.601563 287.800781 C 278.699219 273.199219 267.800781 259.398438 253.199219 255.800781 C 266.199219 246.101563 267.199219 229.398438 269.800781 215.5 C 257.300781 223 243 228.601563 233.398438 240.699219 C 223.101563 230.898438 206.800781 236.199219 195.199219 238.898438 C 200.699219 245.800781 205.101563 253.699219 212.898438 259 C 210.5 260.101563 208.898438 262.699219 206.398438 263.398438 C 202 253.691406 186.101563 256.199219 184.101563 254.699219 C 184.101563 254.699219 182.585938 251.699219 177.601563 252.601563 C 177.398438 241.300781 176.101563 230.199219 169.300781 222 C 161.101563 231 153.800781 242.199219 157.398438 254.398438 C 156.101563 255.300781 144.546875 248.753906 133.300781 261.199219 C 134 264.199219 152.152344 291.347656 130.101563 313.402344 C 129.101563 313.902344 155.632813 275.441406 114.199219 250 C 128.449219 234.550781 117 213.699219 115 213.699219 C 111.601563 223.898438 102.398438 232.601563 93.699219 239.601563 C 83.199219 235.699219 68.601563 234.199219 57.699219 238.5 C 60.800781 244.898438 64.601563 250.898438 70.300781 256.199219 C 66.601563 258.398438 63.101563 261.601563 60.199219 265.199219 C 52 272.699219 69.199219 282.101563 69.199219 282.101563 C 69.199219 282.101563 75 254.699219 94.101563 260.101563 L 94.101563 272.398438 C 88.300781 281.199219 80.300781 290 81.5 300.800781 C 78.800781 297.902344 46.699219 262.601563 32.199219 247.199219 C 32.199219 247.199219 20.300781 267.402344 22.101563 285.699219 C 15.101563 287.5 7.5 287.699219 1.199219 291.097656 C 1.199219 291.097656 10.464844 306.800781 24.199219 309.800781 C 21.800781 317.199219 19.898438 326.097656 21.699219 333.898438 C 28.800781 330.101563 36.5 326.300781 41.5 319.199219 C 52.101563 325 65.300781 327.597656 77.898438 325.300781 C 80.898438 327.097656 96.050781 333.605469 120 323.800781 C 120 323.800781 125.367188 330.699219 130.800781 330.699219 C 131.300781 332.101563 129 333.101563 130.101563 333.898438 L 133.300781 332.800781 L 133.300781 336.398438 L 138 333.199219 L 139.800781 336.398438 L 140.898438 334.300781 L 146.300781 338.199219 C 153.398438 339.800781 159 334.699219 163.898438 330.699219 C 161.601563 330.5 158.800781 331.199219 157.101563 329.601563 C 157.300781 321.699219 163.195313 296.246094 181.601563 291.800781 C 169.300781 300.097656 159.601563 313.402344 159.199219 328.5 C 190.300781 331.199219 223.300781 332.699219 253.898438 330 C 251.699219 315 231.289063 278.28125 192.398438 287.097656 C 193.398438 282.300781 190.5 278.101563 189.5 274.199219 C 193 274.601563 196.5 276.300781 200.300781 275.199219 C 200.300781 275.199219 200.5 281.199219 200.300781 283.898438 C 205.300781 283.5 240.746094 275.441406 254.300781 323.800781 C 263.898438 321.300781 274.300781 314.699219 278.398438 304.800781 L 290.300781 311.199219 C 287.898438 318.800781 285.398438 328 287.800781 335.699219 C 294.800781 331.300781 302.699219 327.597656 307.898438 320.199219 C 318.5 326.402344 332.300781 328.097656 345 326 C 347.5 328.597656 351.199219 328.199219 354.398438 329.199219 C 365.101563 327 377.800781 329.699219 387.101563 324.199219 C 389.199219 328.097656 393.601563 331 398.300781 331 C 398.199219 332.199219 397.300781 333 396.800781 333.898438 C 398.601563 334.601563 399.5 332.199219 401.199219 333.601563 C 401 334.601563 399.898438 335.699219 400.800781 336.800781 C 402.398438 335.699219 403.800781 334.300781 405.5 333.601563 C 406.101563 334.5 406 336.398438 407.300781 336.398438 C 408 335.898438 407.300781 334.800781 408 334.300781 C 409.699219 335.199219 411 337.300781 412.699219 338.199219 C 420.101563 341.101563 426 335.101563 431 331 L 424.898438 330.699219 C 422.898438 324.902344 426.105469 300.03125 448.699219 291.402344 C 436.800781 300.097656 426.199219 313 426.398438 328.5 C 458.601563 330.800781 489.898438 332 521.800781 328.902344 C 506.964844 274.023438 461.5 286.5 460.199219 287.097656 C 458.800781 285.300781 456.398438 275.699219 456.601563 273.398438 C 460 275 464.5 274.898438 468.101563 274.898438 C 467.898438 277.5 467.101563 279.898438 467.398438 282.800781 C 475.601563 281.800781 511.222656 277.335938 522.101563 322.800781 C 558.507813 326.039063 554.722656 254.398438 520 254.398438 Z M 357.199219 255.101563 C 352.398438 254.800781 346.898438 254 342.101563 255.800781 C 336.300781 252.601563 332.300781 247.300781 328.398438 241.800781 C 333.308594 236.894531 350.398438 239.398438 355.800781 241.398438 C 354.898438 242.300781 351.5 242.5 349.699219 243.898438 C 352.699219 247.101563 358.199219 250 357.199219 255.101563 Z M 90.800781 254.699219 C 85.300781 254.199219 80.5 254.199219 75 254.699219 C 70 251.101563 65.5 246 63.101563 240.699219 C 71.101563 238.601563 81.898438 238.300781 89.800781 241 C 88 241.898438 85.398438 242.199219 83.601563 243.601563 C 86.699219 246.398438 91.800781 250 90.800781 254.699219 Z M 63.101563 283.199219 C 61.601563 287.5 59.800781 293 63.101563 296.800781 C 64.800781 297.300781 65.898438 296.199219 67.101563 295.402344 C 67.601563 293.902344 69.101563 292.699219 68.5 290.699219 C 70.300781 291.5 71.398438 293.800781 72.800781 295.402344 C 72.101563 297.402344 70.199219 299.597656 68.199219 300.402344 C 65.601563 301.199219 63.199219 299.402344 61 298.300781 C 55.601563 292.699219 57.898438 283.898438 56.300781 276.699219 Z M 25.300781 327.097656 C 24.398438 320.5 26.601563 313.699219 28.898438 307.597656 C 21.101563 304.597656 12.601563 301.5 7.300781 294 C 11.898438 291.5 16.699219 289.699219 22.398438 290 C 22.398438 290 31.601563 311.597656 38.601563 317 C 35.101563 321.902344 30.199219 324.902344 25.300781 327.097656 Z M 33.199219 252.601563 C 39.898438 258.699219 46.398438 265.199219 52.699219 272 C 50.183594 314.21875 72.699219 302.402344 75 299 L 87.601563 312.300781 C 41.5 319.199219 30.800781 268.699219 33.199219 252.601563 Z M 92.601563 323.5 C 89.5 323.300781 83.300781 322 83.300781 322 C 87 320.597656 90.5 317.902344 93 314.5 L 89.800781 310.199219 C 95.5 308.902344 92.800781 321.5 92.601563 323.5 Z M 86.898438 297.597656 C 88 298.597656 89.699219 299.597656 91.199219 298.597656 L 93 297.199219 L 92.300781 306.597656 C 90.601563 307.097656 73.828125 305.230469 93.398438 279.199219 L 93.699219 286.398438 C 91.601563 289.902344 85.601563 292.800781 86.898438 297.597656 Z M 103.800781 234.898438 C 109.398438 231.699219 113.199219 226 115.699219 220.5 C 121.585938 248.960938 100.199219 253.101563 95.898438 255.398438 C 95.800781 247.898438 95.5 239 103.800781 234.898438 Z M 101.601563 293.199219 L 96.601563 287.097656 L 96.601563 279.898438 C 115.738281 303.039063 98.300781 305.902344 95.898438 306.902344 L 96.601563 296.5 C 97.398438 298.5 99.5 300.300781 101.601563 300.402344 C 105.5 298.699219 102 295.5 101.601563 293.199219 Z M 95.898438 324.199219 C 95.300781 319.5 96.800781 314.800781 97.300781 310.199219 C 101 308.902344 119.664063 300.0625 97.699219 274.5 L 97 260.101563 C 119.648438 253.285156 144.28125 315.636719 95.898438 324.199219 Z M 169.300781 228.101563 C 174.5 235.601563 176 245.898438 173.601563 255.101563 L 165.398438 263 C 150.804688 244.804688 169.300781 228.101563 169.300781 228.101563 Z M 162.5 266.601563 C 167.976563 276.253906 173.199219 271 174.398438 270.898438 C 174.398438 280.644531 162.5 277.335938 162.5 266.601563 Z M 199.601563 321.300781 C 197.398438 323 198.5 325.597656 199.601563 327.402344 C 196.101563 327.800781 193.300781 326.699219 189.800781 327.097656 C 188.601563 325.597656 189.101563 324.402344 189.5 322.800781 C 190.601563 319.597656 193.898438 317.402344 197 317 C 205.898438 318.902344 214 322.597656 221.5 327.800781 C 212.101563 332.699219 208.199219 320.402344 199.601563 321.300781 Z M 247.800781 327.097656 L 227.601563 328.199219 C 189.171875 300.898438 185.699219 323 186.199219 327.097656 C 177.898438 327.097656 170.898438 327.199219 163.199219 325.597656 C 205.191406 267.042969 240.5 312.300781 247.800781 327.097656 Z M 177.601563 265.199219 C 174.398438 265.5 171.5 266.601563 169 268.398438 C 181.675781 248.527344 201.398438 261.398438 207.5 269.800781 C 197.898438 274.601563 186.5 269.398438 177.601563 265.199219 Z M 231.601563 262.601563 C 231.699219 259.898438 228.199219 258.398438 225.800781 258 C 215.601563 257.800781 202.398438 240.699219 202.398438 240.699219 C 211.898438 239.199219 223.898438 235.199219 231.199219 243.898438 C 229.601563 245 227.5 244.601563 225.800781 245.699219 C 229.199219 247.699219 231.898438 251.199219 233.800781 254.398438 C 234.101563 257.601563 233.398438 260.300781 231.601563 262.601563 Z M 237.398438 263.699219 C 240.101563 259.800781 240.101563 252.5 237.398438 248.601563 C 236.699219 239 246.398438 233 253.601563 229.199219 L 263.300781 224.101563 C 262.5 237.398438 240.5 257.898438 240.199219 258.300781 L 242.800781 262.300781 C 241.800781 264 238.898438 263.699219 237.398438 263.699219 Z M 360.101563 279.601563 L 360.5 287.5 C 357.699219 290.902344 352.398438 293.597656 354 298.300781 C 355 299.597656 357 299.597656 358.300781 299 C 359 298.800781 359.5 298.097656 360.101563 297.597656 L 359.398438 307.300781 C 357.800781 307.902344 340.519531 305.230469 360.101563 279.601563 Z M 328.800781 283.5 C 329.199219 288.300781 324.699219 294.5 329.898438 297.902344 C 331.898438 297.699219 334.300781 296.097656 334.601563 294 L 334.898438 291.097656 C 336.898438 294 342.5 297.199219 336.699219 300.097656 C 335 301.5 332.398438 301.902344 330.199219 301.199219 C 321.601563 296.199219 322.800781 286.199219 322.300781 277.398438 Z M 291 328.902344 C 290.101563 322.402344 292.300781 315.5 294.601563 309.402344 C 286.5 306.800781 278.101563 303.300781 272.601563 295.800781 C 277.601563 293.902344 282.300781 290.402344 288.101563 291.800781 C 288.101563 291.800781 294.222656 310.421875 304.699219 318.097656 C 303.5 325.167969 291 328.902344 291 328.902344 Z M 298.601563 253.601563 C 305.898438 260 312.199219 266.101563 318.699219 273.398438 C 320.5 316.582031 339.199219 302.402344 341.800781 299.699219 C 346.199219 304.402344 350.898438 308.300781 354.398438 313 C 300.855469 327.378906 294.601563 273 298.601563 253.601563 Z M 360.101563 324.199219 C 356.699219 324.902344 353 324.597656 350 323.097656 C 353.5 320.5 359.199219 318.800781 359.800781 314.097656 L 356.898438 310.902344 L 360.800781 311.597656 Z M 366.199219 238.5 C 372.601563 234 379.800781 228.199219 381.699219 220.5 C 389.695313 245.652344 368.101563 253.300781 362.601563 255.800781 C 363.300781 250.601563 360.699219 242.5 366.199219 238.5 Z M 369.800781 296.097656 C 368.601563 293.097656 365.398438 290.800781 363.699219 287.800781 L 363.699219 280.300781 C 382.671875 303.273438 365.601563 307.097656 363 307.597656 L 363.699219 296.800781 C 365 298.800781 366.300781 301.402344 369.101563 301.199219 C 371 300.097656 370.199219 297.597656 369.800781 296.097656 Z M 363 324.902344 L 364.398438 311.199219 C 368.300781 310 386.316406 301.519531 364.800781 275.199219 L 363.699219 260.5 C 393.480469 251.800781 413.8125 320.363281 363 324.902344 Z M 435.398438 227.699219 C 435.398438 227.699219 442.910156 239.179688 439.699219 255.398438 C 436.601563 256.800781 433.601563 260.199219 431.800781 263 C 426.5 253.898438 426.480469 235.621094 435.398438 227.699219 Z M 439.300781 275.601563 C 436.199219 275.800781 433.398438 275.601563 431.398438 273.101563 C 429.699219 271.101563 429.101563 268.699219 428.5 266.199219 C 431.398438 269.199219 434.398438 274.199219 439 272.699219 C 439.898438 272.199219 439.800781 271.101563 440.800781 270.601563 C 441.300781 271.898438 441.398438 274.601563 439.300781 275.601563 Z M 481.101563 327.402344 C 463.878906 316.667969 467.398438 326.199219 467.398438 327.097656 L 457.300781 326.699219 C 456.101563 323.5 461.570313 309.488281 489.398438 327.097656 Z M 515.601563 326.402344 L 494.398438 327.097656 C 451.167969 299.085938 454.5 325.597656 454.101563 327.097656 C 445.800781 327.300781 437.300781 326.902344 430 326 C 479.601563 258 515.601563 326.402344 515.601563 326.402344 Z M 448 265.5 C 443.5 263.5 439.300781 266.101563 435.699219 268 C 436.898438 263.5 442.199219 258.199219 447.601563 257.601563 C 458.601563 256.800781 468.300781 260.601563 474.601563 269.5 C 465.699219 273.601563 455.5 270.101563 448 265.5 Z M 498 261.601563 C 497.898438 259.898438 497.101563 258.300781 495.5 257.601563 C 490.800781 255.800781 479.601563 258 468.5 240.300781 C 477.699219 238.800781 490.699219 233 497.601563 242.800781 C 496 243.300781 494 243.199219 492.601563 244.300781 C 495.601563 246.800781 499.398438 250.101563 500.5 254 C 500.101563 256.699219 500.199219 259.601563 498 261.601563 Z M 504.5 262.601563 C 503.800781 260.898438 505.699219 259.398438 505.898438 257.601563 C 507.699219 251.699219 502.601563 248.199219 504.101563 242.800781 C 508.199219 231.300781 520.5 227.601563 529.699219 222.300781 C 528.800781 236 508.101563 251.328125 508.101563 262.300781 C 506.601563 261.898438 505.898438 263 504.5 262.601563 "/>
</g>
</svg>
