<?xml version="1.0" encoding="UTF-8"?>
<svg xmlns="http://www.w3.org/2000/svg" xmlns:xlink="http://www.w3.org/1999/xlink" width="540pt" height="468pt" viewBox="0 0 540 468" version="1.1">
<g id="surface1">
<path style=" stroke:none;fill-rule:nonzero;fill:rgb(0%,0%,0%);fill-opacity:1;" d="M 477 159.898438 C 499.824219 156.171875 513.769531 154.164063 523.789063 132.988281 C 528.402344 123.234375 531.195313 112.292969 539.398438 104.199219 C 525.601563 100.300781 509.5 101.300781 495.898438 104.199219 C 502.699219 88.398438 498.199219 69 498.800781 51.398438 C 482.601563 59.398438 462.800781 65.800781 454.699219 84.800781 C 450.199219 75.300781 445.800781 65.800781 444.601563 55 C 445.5 39.5 441 25.601563 433.101563 13.5 C 435 12.398438 437.300781 10.101563 437.101563 7.5 C 437.101563 -0.855469 427.476563 -2.566406 423.5 2 C 420.453125 6.570313 421.839844 10.976563 423.691406 15.273438 C 433.230469 37.40625 435.128906 46.742188 419.601563 72.5 C 409.136719 88.324219 412.1875 111.445313 416.761719 119.441406 C 422.359375 129.230469 415.546875 141.308594 412.898438 150.800781 C 409.898438 162.699219 412 176.199219 421.300781 184.898438 C 405.367188 221.113281 408.371094 250.070313 417.273438 266.109375 C 419.09375 269.386719 420.8125 272.632813 418.199219 276.300781 C 413.101563 275.398438 409.199219 278.898438 405.699219 282.5 C 401.976563 277.441406 398.074219 272.476563 395.898438 266.816406 C 395.449219 265.648438 395.070313 265.578125 395.164063 266.851563 C 395.4375 270.460938 395.640625 274.574219 394.898438 278 C 381.5 261.800781 360.101563 253.800781 350.5 235 C 350.589844 242.222656 349.820313 249.136719 348.953125 256.011719 C 347.289063 269.203125 347.609375 277.070313 349.800781 292.398438 C 347 289.800781 344.398438 286.601563 341.898438 284 C 342.398438 287.898438 344.699219 292 344.5 296.199219 C 331.800781 286.5 316.5 279.601563 307.300781 264.800781 C 307.25 266.625 308.191406 273.113281 308.375 274.75 C 310.597656 294.570313 305.410156 317.140625 312.800781 335.800781 C 308.988281 333.40625 305.414063 330.152344 302.078125 326.796875 C 300.890625 325.609375 300.148438 325.789063 300.925781 327.222656 C 306.136719 336.84375 311.199219 346.726563 315 356.699219 C 304 357.875 293.550781 360.074219 284.75 367.375 C 283.75 368.375 283.25 369.875 280.898438 370.597656 C 267.628906 364.445313 260.644531 347.359375 269.273438 339.523438 C 277.632813 331.933594 286.402344 336.390625 287.683594 341.578125 C 289.003906 346.929688 281.441406 350.195313 279 344.898438 C 282.980469 343.839844 280.703125 339.261719 276.382813 339.15625 C 266.269531 338.910156 268.199219 355.730469 282.269531 357.308594 C 293.195313 358.53125 300.59375 346.390625 295.328125 336.085938 C 286.46875 318.730469 258.933594 326.605469 255.886719 345.648438 C 254.117188 356.710938 257.910156 367.796875 271.800781 377.300781 C 270.699219 378.902344 270 380.5 269.601563 382.402344 C 248.101563 372.699219 222.601563 372.800781 197.601563 371.597656 L 195.699219 369.402344 C 184.199219 356.5 165.699219 360.398438 152.800781 350.898438 C 136.457031 316.066406 112.777344 328.367188 72.398438 332.199219 C 84.101563 339 94.199219 350.699219 100.699219 362 C 79.800781 359.101563 65.800781 372.800781 50.300781 382.800781 C 36.800781 383.199219 25.300781 388.097656 15 396 C 14.320313 396.554688 13.984375 396.085938 13.6875 395.523438 C 10.917969 390.324219 1.640625 390.53125 0.621094 398.640625 C -0.214844 405.289063 4.597656 408.847656 11.398438 407.800781 C 36.320313 396.527344 60.8125 390.140625 92.800781 411.597656 C 84 421.800781 77.101563 432.898438 74.300781 445.199219 C 84.101563 444.101563 95.199219 444.101563 104.5 446.199219 C 125.5 450 141.5 435.601563 153.699219 419.800781 C 161.398438 416.402344 170 415.597656 178.398438 414 C 189.199219 426.148438 190.667969 442.519531 176 447.199219 C 166.101563 449.738281 158.609375 440.136719 162.296875 435.066406 C 164.234375 432.402344 168.441406 432.0625 171.125 436.75 C 171.453125 437.320313 170.820313 437.667969 170.375 437.625 C 167.921875 437.390625 165.988281 437.769531 167.039063 440.308594 C 169.175781 445.460938 177.585938 446.730469 179.640625 438.410156 C 182.726563 425.929688 164.699219 417.570313 155.417969 428.539063 C 144.335938 441.632813 158.394531 459.511719 176.34375 456.085938 C 198.550781 451.84375 200.890625 427.472656 189.5 411.597656 C 202.808594 405.117188 206.257813 395.75 203.601563 383.597656 C 220.699219 383.097656 237 386.199219 251.398438 392.902344 C 241.597656 393.882813 231.71875 397.539063 228.484375 407.660156 C 226.773438 413.011719 217.363281 421.324219 208 425.300781 C 216.898438 429.101563 226 432.601563 233.398438 440 C 233.398438 457.453125 250.300781 451.378906 270.601563 443.300781 C 278.101563 444.800781 274.601563 453.300781 279.898438 457 C 284.800781 461 292.601563 460.601563 298.398438 459.199219 C 308.886719 467.625 320.222656 467.980469 332.378906 461.007813 C 337.265625 458.203125 342.0625 455.339844 348.101563 456.300781 C 350.792969 471.109375 369.640625 469.527344 387.199219 462 C 395.824219 465.980469 412.875 462.21875 421.800781 444 C 434.199219 449 451.199219 447.898438 461.601563 439.199219 C 465.398438 445.300781 471.601563 450.5 477.898438 452.699219 C 498.546875 459.667969 517.210938 442.515625 509.492188 423.554688 C 505.023438 412.574219 491.339844 409.699219 484.199219 417.398438 C 478.652344 423.542969 480.246094 431.800781 484.253906 436.371094 C 489.816406 442.722656 497.992188 439.554688 498.71875 433.980469 C 499.164063 430.574219 496.914063 426.722656 493.101563 431.300781 C 488.640625 428.847656 489.792969 424.019531 493.300781 422.398438 C 495.285156 421.710938 499.980469 423.570313 501.816406 427.652344 C 503.738281 431.929688 502.046875 438.757813 496.199219 442.855469 C 488.101563 448.527344 474.863281 444.496094 468.601563 430.398438 C 473.898438 420.601563 475.5 408.597656 473.601563 396.800781 C 487.464844 391.210938 491.003906 381.457031 488.300781 375.597656 L 491.101563 374.402344 C 498.128906 369.425781 496.246094 354.730469 492.6875 350.449219 C 491.664063 349.21875 490.808594 347.941406 491.898438 346.101563 C 498.5 337.601563 511.699219 330.800781 508.898438 318 C 508.699219 317.199219 507.398438 316.199219 508.398438 315.398438 C 512.5 308.300781 509.300781 299.398438 505.800781 293.101563 C 506.480469 290.300781 507.820313 287.785156 509.324219 285.34375 C 515.921875 274.632813 521.011719 260.960938 512 252.800781 C 512.449219 245.402344 512.003906 235.023438 508.902344 233.023438 C 500.730469 227.753906 504.929688 215.535156 503.101563 208.601563 C 499.800781 216 493.699219 225 485.101563 226.898438 C 477.898438 226.398438 473.300781 232.800781 467.898438 236.199219 L 459.898438 235.699219 C 453.503906 228.695313 446.921875 210.574219 459.488281 204.105469 C 466.980469 200.246094 474.339844 201.992188 476.699219 209.601563 C 478.304688 216.433594 470.722656 219.320313 467.898438 213.199219 C 466.898438 211.199219 469.898438 212.101563 470.5 210.5 C 471.128906 208.492188 469.902344 205.722656 466.382813 205.410156 C 463.351563 205.140625 458.5 207.589844 458.5 213.398438 C 458.675781 219.730469 465.789063 227.136719 472.699219 226.101563 C 483.164063 225.011719 490.480469 212.667969 482.5 201.199219 C 471.078125 188.28125 449.03125 192.910156 442.898438 214.101563 C 441.101563 223.601563 444.398438 232.199219 449.601563 239.300781 L 445.101563 243.398438 C 440.601563 248.5 446.601563 254.898438 443.601563 260.898438 C 441 264.898438 435.800781 265.199219 431.398438 265.199219 C 421.199219 243.101563 422 212.101563 434.5 191.300781 C 455.101563 193.898438 462.101563 169.601563 477 159.898438 Z M 88.699219 336.800781 C 107.199219 332.800781 127.601563 336.898438 141 351.601563 C 149.5 358.601563 154.898438 368.5 163.601563 374.902344 C 159.835938 376.816406 158.25 375.492188 156.734375 374.015625 C 156.097656 373.394531 140 354.601563 130.699219 347.601563 C 113.144531 335.210938 94.699219 338.398438 94.699219 338.398438 C 95.78125 343.746094 100.066406 343.828125 104.378906 343.953125 C 114.339844 344.242188 125.234375 347.847656 133.101563 359.800781 C 123.800781 354.101563 113.601563 348.300781 101.601563 348 C 101.601563 348 107 356.300781 110.300781 358.398438 C 123 361.199219 137.601563 362.699219 144.800781 375.597656 C 129.839844 366.0625 116 366.800781 116 366.800781 C 125.398438 375.199219 136.601563 379.199219 148.199219 382.402344 C 145.398438 385.097656 134.625 382.117188 133.027344 381.5 C 107.679688 371.71875 100.074219 350.570313 88.699219 336.800781 Z M 14.5 402.300781 L 15.5 398.402344 C 26.601563 389.402344 40 384.597656 55.101563 386.699219 C 57.101563 388 59.101563 389.199219 61.101563 390.800781 C 43.800781 386.699219 27.199219 391.597656 14.5 402.300781 Z M 60.601563 384 C 75 372.199219 95 370.402344 113.199219 375.402344 L 118.898438 379.699219 C 107.800781 376.699219 96.199219 376.402344 84.398438 378 C 90.699219 385 101.5 384.5 111.199219 385 C 100.199219 389.800781 86.300781 387 77.199219 380 L 66.800781 383.300781 C 76.699219 391.597656 91.199219 392.199219 104.5 390.5 C 98.601563 395.699219 90.199219 393.699219 82.699219 394.097656 C 90 397.597656 97.800781 400.097656 106.398438 400.402344 L 101.199219 403.699219 C 72.855469 398.820313 60.601563 384 60.601563 384 Z M 118.441406 440.980469 C 107.121094 443.621094 94.054688 441.476563 83.398438 439 C 100.015625 405.765625 124.125 396 156.398438 403.699219 L 153.699219 406.597656 C 138.199219 403.597656 121 404.800781 109.101563 414.800781 C 117.101563 418 127.601563 415.902344 135.5 413.097656 C 128.300781 421.601563 114.898438 423.101563 104 420 C 100 422.300781 95.5 424.699219 93.699219 429.398438 C 106.101563 431.898438 118.398438 428.699219 128.5 422.898438 C 122.210938 437.253906 97.625 435.042969 89.898438 433.5 C 89.101563 434.398438 88.25 435.375 87.5 436.398438 C 101.1875 442.371094 126.8125 439.730469 144.398438 420.800781 C 141.433594 432.269531 127.886719 438.777344 118.441406 440.980469 Z M 149.601563 418.101563 C 155.101563 405.300781 166.964844 401.511719 178.464844 397.511719 C 175.523438 396.117188 172.71875 396.707031 169.867188 397.199219 C 162.90625 398.410156 145.800781 387.902344 145.800781 387.902344 C 160.527344 381.777344 163.230469 375.941406 173.25 378.246094 C 175.433594 378.75 177.816406 378.683594 179.398438 377.097656 C 169.601563 374.300781 159.898438 366.601563 155.398438 356.898438 C 164.699219 363.398438 177.898438 360.601563 187.300781 366.800781 C 179.199219 377.800781 177.699219 396.402344 185.199219 408.300781 C 173.601563 412.300781 160.101563 411.597656 149.601563 418.101563 Z M 183.160156 447.824219 C 168.765625 457.796875 155.566406 447.179688 156.894531 436.925781 C 158.289063 426.207031 172.078125 426.125 174.597656 434.386719 C 175.195313 436.351563 174.398438 439.199219 174.398438 439.199219 C 173.355469 438.222656 173.378906 436.433594 172.820313 434.890625 C 171.195313 430.367188 160.890625 427.609375 158.960938 437.160156 C 157.21875 445.761719 171.15625 454.277344 182 446.25 C 191.082031 439.523438 190.019531 423.335938 182.300781 413.800781 C 182.800781 413.5 183.398438 413.402344 184 413.300781 C 194.945313 428.703125 191.277344 442.203125 183.160156 447.824219 Z M 193.300781 404.902344 L 190.199219 406.597656 C 176.699219 389.03125 190.898438 369.402344 190.898438 369.402344 C 192.199219 369.902344 192.601563 371.097656 193.800781 372 C 185.742188 381.785156 189.707031 398.722656 193.300781 404.902344 Z M 529.300781 109 C 521.882813 131.722656 518.121094 142.644531 506.636719 148.148438 C 501.414063 150.652344 486 154.5 483.5 152.5 C 492.398438 148.800781 502.5 146.601563 510.101563 139.699219 C 503.601563 142 495.300781 143.601563 487.800781 141.898438 C 505.484375 138.667969 520.148438 128.53125 525.699219 112.101563 C 517 117.398438 508.199219 124.5 500.5 132.300781 C 503.800781 124 511.5 116.398438 519.199219 111.699219 C 514 111.898438 508.5 112.898438 503.898438 115 C 499.125 127.125 493.242188 134.558594 477.898438 136.898438 C 485.125 132.125 492.5 125.699219 495.199219 118.101563 C 483.832031 119.519531 471.46875 136.511719 466.199219 152.898438 L 462.101563 154.101563 C 476.820313 107.109375 500.511719 106.925781 529.300781 109 Z M 494.5 61.300781 C 497.101563 76.5 495.300781 92.898438 490.199219 106.398438 L 485.898438 108.5 C 488.5 103.5 490.398438 97 490.898438 90.5 C 484.933594 96.734375 479.703125 105.585938 472.035156 110.996094 C 471.21875 111.574219 470.851563 111.222656 471.515625 110.515625 C 482.804688 98.566406 491.871094 83.78125 491.398438 66.5 C 484.699219 67.699219 477.433594 95.3125 470.375 101.75 C 469.796875 102.277344 469.378906 102.066406 469.742188 101.445313 C 477 89.085938 478.199219 75.398438 478.199219 75.398438 C 469.800781 84.699219 464.398438 95.601563 460.699219 107.101563 C 459.183594 82.261719 473.25 69.738281 494.5 61.300781 Z M 427.101563 12.800781 C 429.773438 13.167969 431.429688 14.878906 432.726563 17.011719 C 437.851563 25.433594 442.894531 33.976563 440.699219 48.5 L 437.601563 52.101563 C 440.453125 31.910156 427.101563 12.800781 427.101563 12.800781 Z M 431.234375 71.613281 C 431.933594 70.609375 439.101563 61.300781 439.101563 61.300781 C 451.582031 90.070313 464.730469 97.410156 453.089844 130.945313 C 452.476563 132.710938 451.476563 134.242188 449.601563 135.199219 C 452.199219 123.699219 456.199219 108.300781 450.800781 96.5 C 450.300781 103.300781 447.699219 109.101563 442.898438 114.101563 C 451.441406 89.773438 444.523438 74.425781 438.300781 68.199219 C 440.671875 90.96875 440.996094 95.566406 431.398438 108.5 C 434.300781 98.601563 438 85.601563 434.699219 74.199219 C 434.699219 74.199219 422.121094 84.535156 428.730469 125.234375 C 428.878906 126.140625 428.570313 126.3125 428.269531 125.449219 C 422.496094 108.761719 420.746094 86.648438 431.234375 71.613281 Z M 422.699219 129.398438 C 427.800781 138.101563 430.5 149.300781 427.5 159.898438 C 427.5 159.898438 430.613281 158.476563 432.238281 154.195313 C 436.71875 142.386719 443.597656 144.273438 453.898438 136.601563 C 453.101563 146.601563 455.601563 157.898438 447.5 164.898438 C 445.5 166.398438 444 168.898438 444.101563 171.199219 C 454 162.800781 464 153.800781 477.699219 155.300781 C 466.199219 161.199219 460.101563 174.300781 449.601563 182.5 C 442.5 169.300781 428.5 162.5 414.601563 160.601563 C 415.300781 149.398438 422.5 140.800781 422.699219 129.398438 Z M 415.25 170.25 L 414.800781 164.699219 C 427.699219 164.300781 438.898438 174.800781 443.398438 186.101563 C 442.5 186.625 441 187.199219 439.800781 187.5 C 438.269531 180.078125 427.273438 170.496094 415.25 170.25 Z M 399.199219 281.601563 C 419.300781 301.5 437 323.199219 433.5 352.800781 C 432.699219 361.5 430.800781 369.597656 427.800781 377.300781 L 425.398438 369.597656 C 431.800781 353.699219 430.300781 332.398438 423 317.300781 C 422.699219 324.800781 420.625 333.75 414.101563 336.5 C 418.914063 326.527344 419.652344 303.402344 407.101563 299.101563 C 410 307.625 411.699219 317.398438 405 324.5 C 406.398438 314 405 302.398438 400.699219 293.101563 C 396.601563 303.101563 392.5 314 394.898438 325.699219 C 386.273438 321.519531 391.707031 307.65625 393.914063 300.929688 C 395.992188 294.605469 398.085938 288.296875 399.199219 281.601563 Z M 396.101563 415.699219 L 393.199219 414.300781 C 400.738281 400.734375 418.164063 395.300781 427.800781 395.300781 C 428.199219 396.597656 428.300781 398 428.300781 399.402344 C 415.199219 399.199219 404.101563 405.699219 396.101563 415.699219 Z M 432.601563 395.300781 C 439.800781 399.402344 448.898438 400.300781 457.300781 400.097656 C 469.5 430.625 428.183594 444.390625 415.300781 420.300781 C 428.710938 415.605469 431.988281 407.558594 432.601563 395.300781 Z M 368.699219 389.097656 C 380 389.097656 389.300781 393.699219 397.300781 401.300781 C 399 397.300781 394.601563 395 393 392.199219 C 389.601563 384.5 392.398438 374.800781 391.5 366.300781 C 398.605469 372.175781 409.753906 375.894531 411.925781 385.710938 C 412.046875 386.253906 413.324219 390.214844 415.125 391.714844 C 413.425781 379.714844 411.699219 365.898438 420.101563 356 C 418.898438 368.902344 425.601563 379.199219 427.300781 391.199219 C 412.699219 393.300781 399.5 400 389.601563 411.902344 C 381.601563 405 377.898438 394.902344 368.699219 389.097656 Z M 378.300781 405.402344 C 340.875 401.945313 315.699219 433.480469 278.644531 428.347656 C 277.085938 428.132813 276.980469 427.667969 278.496094 427.675781 C 297.753906 427.78125 314.5625 420.019531 330.601563 411.402344 C 344.398438 404.699219 361 401.199219 377.398438 404.199219 Z M 353.101563 247.199219 C 365.601563 261.5 383.800781 269.199219 393.699219 285.601563 L 392.300781 291.898438 C 388.300781 284.5 382.398438 276.800781 375.5 271.699219 C 380.09375 285.191406 380.941406 293.308594 375.5 304.398438 C 374.3125 291.730469 375.007813 277.488281 367.792969 267.292969 C 365.898438 264.617188 356.699219 256.300781 355.300781 254.199219 C 354.785156 260.523438 359.011719 265.136719 362.480469 270.089844 C 369.261719 279.765625 369.75 286.375 365.898438 296 C 364.898438 285.5 363 275.5 355.300781 267.898438 C 354.003906 276.964844 358.230469 293.367188 362.699219 304.101563 C 359.046875 301.710938 356.964844 298.335938 355.652344 294.527344 C 351.105469 281.324219 349.546875 267.789063 353.101563 247.199219 Z M 372.007813 314.835938 C 399.671875 330.113281 405.636719 340.070313 411.699219 364.601563 C 411.300781 367.5 410.5 370.199219 410.5 373.199219 C 406.398438 361.5 405 347.898438 395.898438 338.199219 C 395.398438 343.601563 397.398438 350.300781 392.699219 354.5 C 393.730469 344.195313 394.324219 332.308594 385.101563 326.160156 C 384.480469 325.746094 379.199219 322.898438 377.101563 321.898438 C 378.699219 327.5 383.5 333.601563 380.300781 340.398438 L 380.300781 340.800781 C 379.304688 330.3125 372.996094 319.414063 363.445313 314.246094 C 362.433594 313.695313 355.5 308 352.398438 305.601563 C 352.613281 310.117188 355.636719 313.625 358.695313 317.191406 C 363.234375 322.484375 368.65625 332.703125 365.101563 340.601563 C 362.699219 332.800781 360.300781 324.5 353.398438 319 C 352.699219 327.699219 351.199219 338.398438 355.5 345.898438 C 353.273438 346.59375 352.21875 345.863281 351.652344 344.613281 C 351.074219 343.335938 348.90625 327.730469 349.25 321 C 349.644531 313.222656 351.480469 304.566406 348.800781 297.601563 C 355.445313 305.523438 363.742188 310.273438 372.007813 314.835938 Z M 313.5 278.699219 C 323.898438 288.199219 346.25 296.664063 346.199219 307.699219 C 343.800781 304.800781 340.800781 303.199219 338 301.199219 C 339.101563 305.800781 340.699219 311.699219 338 316.398438 C 337.464844 298.34375 321.789063 289.789063 316.398438 287.300781 C 325.414063 300.164063 335.914063 315.25 328.699219 332.199219 C 328.199219 319 325 307.101563 316.699219 297.199219 C 316.699219 297.199219 314.851563 325.554688 323.898438 340.800781 C 322.199219 340.898438 320.101563 339.601563 318.300781 338.699219 C 311.363281 320.777344 313.5 278.699219 313.5 278.699219 Z M 313.300781 342.5 C 323.789063 348.089844 336.039063 349.398438 348.253906 350.738281 C 360.820313 352.117188 377.035156 351.832031 388.199219 372.300781 L 387.699219 377.300781 C 384.699219 368.597656 375.699219 360.199219 366.601563 359.300781 C 370.300781 363.699219 372.5 369.300781 371.101563 375.199219 C 364.550781 358.566406 354.585938 353.566406 340.199219 353.800781 C 344.898438 359.300781 352.25 365.75 351.898438 372 C 343.800781 361.101563 332 350.5 318.101563 348.5 C 320.300781 355.800781 326.398438 364.601563 334.699219 366.5 C 341.398438 368.597656 349.199219 374.097656 349.800781 381.902344 C 343.898438 375.699219 337.398438 371 329.601563 369.402344 C 332.671875 381.820313 354.65625 391.273438 361.875 392.113281 C 366.183594 392.617188 370.214844 393.683594 372.601563 398.199219 C 335.914063 400.621094 318.019531 359.410156 313.300781 342.5 Z M 262.25 341.625 C 268.421875 329.601563 282.257813 327.269531 290.128906 336.726563 C 295.199219 342.820313 292.398438 351.699219 285.246094 352.988281 C 279.203125 354.078125 273.351563 349.867188 275.101563 344.898438 C 276.101563 344.898438 276.375 345.523438 276.5625 346.261719 C 277.253906 348.976563 281.800781 351.171875 285.199219 350.199219 C 291.703125 348.488281 292.296875 342.464844 288.546875 337.816406 C 283.054688 331.003906 270.175781 331.089844 263.800781 343.203125 C 257.917969 354.378906 268.472656 366.710938 277.300781 372.300781 L 275.898438 373.199219 C 262.511719 364.046875 256.042969 353.71875 262.25 341.625 Z M 202.199219 379 L 201.5 377.097656 C 224.800781 377.5 248.101563 379.597656 266.699219 392 C 261.648438 393.945313 257.675781 392.230469 253.78125 390.179688 C 240.523438 383.203125 226.480469 380.757813 202.199219 379 Z M 386.5 455.601563 C 371.933594 463.902344 360.015625 466.238281 353.449219 456.796875 C 348.007813 448.976563 341.382813 449.082031 331.335938 455.4375 C 321.589844 461.601563 308.457031 464.046875 299.898438 453.398438 C 290.535156 453.242188 282.785156 455.648438 280.246094 447.039063 C 277.988281 439.375 270.953125 435.933594 260.316406 440.871094 C 250.972656 445.207031 237.910156 449.636719 237.671875 437.121094 C 237.550781 430.820313 226.347656 425.953125 219.199219 424.800781 C 224.214844 421.257813 231.171875 416.816406 233.285156 410.636719 C 236.757813 400.511719 245.15625 399.75 258.136719 398.644531 C 270.019531 397.632813 278.796875 393.839844 276.550781 384.988281 C 274.253906 375.9375 285.019531 372.738281 289.101563 372.5 C 293.675781 364.109375 304.890625 363.488281 317.101563 361.699219 C 322.5 377.402344 335.398438 396.5 352.898438 400.597656 C 346.199219 400.800781 340.300781 402.800781 334.199219 404.402344 C 337.683594 398.304688 330.910156 392.539063 325.886719 394.773438 C 320.691406 397.085938 320.441406 401.765625 322 404.75 C 323.183594 407.015625 325.800781 408 325.800781 408 L 316.898438 412.597656 C 319.183594 406.394531 312.640625 401.632813 307.519531 403.789063 C 301.941406 406.140625 302.359375 415.453125 308.5 416.902344 L 297.5 420.800781 C 299.542969 416.265625 295.765625 410.355469 290.609375 411.558594 C 284.535156 412.972656 282.738281 419.300781 287.398438 422.898438 L 277.800781 423.898438 C 280.140625 420 277.894531 416.199219 273.699219 415.5 C 269.269531 415.71875 267.125 421 269.398438 424.101563 C 265.300781 424.101563 257.601563 423.398438 257.601563 423.398438 C 287.433594 441.191406 307.996094 433.820313 330.296875 424.238281 C 350.578125 415.523438 367.9375 412.328125 388.699219 415.199219 C 392.601563 417.800781 396.699219 420 401.398438 420.800781 C 403.699219 429.101563 409.601563 436.5 417 441.898438 C 414.453125 453.988281 397.378906 461.246094 386.5 455.601563 Z M 491.398438 447.601563 C 509.777344 441.035156 506.675781 422.96875 497.574219 420.417969 C 492.835938 419.09375 489.101563 420.265625 487.625 423.625 C 486.136719 427.007813 486.933594 432.578125 491.128906 433.609375 C 492.054688 433.835938 492.984375 433.957031 492.800781 435.199219 C 492.234375 435.292969 491.667969 435.28125 491.113281 435.179688 C 484.703125 434.003906 482.296875 427.59375 485.875 422.125 C 488.664063 417.859375 492.921875 416.738281 497.886719 418.34375 C 511.90625 422.871094 511.46875 444.789063 491.25 450 C 479.394531 452.523438 470.871094 442.851563 465.25 435.125 L 466.699219 433.699219 C 472.699219 441.601563 480.699219 450.300781 491.398438 447.601563 Z M 443.398438 442.132813 C 425.558594 445.308594 408.5 435.015625 405.898438 421.199219 C 407.125 421.375 408.25 421.25 409.191406 421.429688 C 410.78125 427.425781 422.460938 442.410156 442.398438 439 C 461.882813 435.710938 468.449219 417.089844 466.199219 398.902344 C 468 398.375 468.949219 397.800781 469.25 400 C 471.792969 420.847656 466.171875 438.078125 443.398438 442.132813 Z M 463.875 198.25 C 477.707031 197.535156 485.183594 206.222656 480.519531 216.707031 C 477.773438 222.875 469.074219 223.136719 464.882813 217.84375 C 462.054688 214.269531 463.800781 211 463.800781 211 C 465 210.75 465.101563 211.5 465.0625 212.449219 C 464.960938 215.035156 468.765625 220.699219 474.300781 218.699219 C 482.496094 214.40625 480.679688 204.335938 471.074219 200.625 C 468.355469 199.574219 455.246094 199.386719 450.460938 210.105469 C 448.011719 215.585938 450.058594 226.863281 456.101563 236.199219 C 455.699219 236.398438 454.625 236.875 454.125 236.875 C 441.265625 217.027344 445.46875 201.195313 463.875 198.25 Z M 424.898438 272.398438 C 432.5 266.300781 448.5 272 449.398438 258.300781 C 449.679688 255.097656 448.449219 251.300781 448.710938 248.121094 C 449.421875 239.574219 459.996094 241.03125 470.300781 240.5 C 479.054688 234.113281 481.179688 230.722656 490.699219 231.398438 C 493.800781 229.300781 496.699219 226.398438 499.5 223.5 C 500.199219 226.601563 497.800781 232.800781 502.398438 234.5 C 509.398438 239.199219 508.101563 249.398438 507.199219 256.601563 C 516.5625 267.53125 506.46875 277.636719 500.5 291.398438 C 500.230469 294.238281 501.378906 296.585938 502.652344 298.917969 C 506.660156 306.253906 505.480469 310.539063 502.199219 317.800781 C 507.199219 331.5 490.699219 336.300781 485.101563 345.898438 C 484.894531 349.035156 486.589844 351.378906 488.140625 353.785156 C 495.28125 364.882813 485.253906 370.511719 481.800781 374.402344 C 487.910156 386.617188 467.097656 396.394531 449.75 395.746094 C 442.695313 395.480469 432.601563 391 432.601563 391 C 431 387.125 430.097656 384.789063 431.753906 381.820313 C 438.324219 370.023438 438.011719 372.515625 439.101563 356.699219 C 466.6875 345.824219 471.121094 323.015625 474.019531 299.488281 C 476.027344 283.144531 486 262.015625 492.601563 252.300781 C 487.398438 254.398438 482.300781 259.199219 478.199219 263.601563 C 477.078125 259.109375 470.589844 258.257813 468.300781 260.699219 C 464.464844 263.769531 466.4375 270.699219 471.699219 271.199219 C 470.199219 273.699219 468.699219 276.101563 467.601563 278.699219 C 464.964844 274.644531 457.902344 274.691406 455.898438 278.898438 C 452.878906 284.640625 457.09375 287.582031 460.625 288.25 C 462.886719 288.675781 464.699219 287.601563 464.699219 287.601563 L 462.300781 297.199219 C 460.414063 291.851563 452.082031 291.546875 449.460938 296.539063 C 447.003906 301.21875 450.949219 309.21875 459.5 305.800781 C 458.398438 309.398438 456.601563 312.699219 453.898438 315.601563 C 452.734375 308.019531 445.023438 307.28125 440.476563 310.214844 C 434.683594 313.949219 436.097656 322.449219 442.699219 325.199219 C 440.800781 326.800781 438.5 327.300781 436.398438 328.398438 C 433.199219 311.699219 421.199219 299.199219 408.800781 286.398438 C 412.039063 279.4375 418.328125 279.960938 422.699219 281.601563 C 423.101563 278.398438 422.699219 274.898438 424.898438 272.398438 Z M 440.382813 334.019531 C 454.253906 327.902344 461.644531 314.128906 467.835938 290.332031 C 469.917969 282.332031 471.875 274.625 475.800781 272.199219 C 470.3125 281.742188 469.597656 293.214844 467.300781 304.035156 C 463.503906 321.9375 453.175781 333.980469 438.800781 339.898438 C 437.875 337 438.128906 335.011719 440.382813 334.019531 Z M 426.601563 190.101563 C 418.125 215.375 413.101563 243.898438 423.699219 266.699219 L 422.300781 267.601563 C 410.101563 243.601563 415.898438 211.699219 424.699219 187.699219 C 426.125 188.75 426.828125 189.414063 426.601563 190.101563 "/>
</g>
</svg>
