<?xml version="1.0" encoding="UTF-8"?>
<svg xmlns="http://www.w3.org/2000/svg" xmlns:xlink="http://www.w3.org/1999/xlink" width="431pt" height="427pt" viewBox="0 0 431 427" version="1.1">
<g id="surface1">
<path style=" stroke:none;fill-rule:nonzero;fill:rgb(0%,0%,0%);fill-opacity:1;" d="M 10.425781 106.199219 C 9.875 107.191406 9.511719 108.3125 9.414063 109.519531 C 9.046875 114.035156 12.410156 117.996094 16.925781 118.363281 C 20.773438 118.679688 24.207031 116.28125 25.371094 112.773438 C 26.605469 113.761719 28.136719 114.40625 29.832031 114.542969 C 34.347656 114.910156 38.308594 111.546875 38.675781 107.03125 C 38.894531 104.386719 37.824219 101.9375 35.996094 100.285156 C 38.558594 99.070313 40.425781 96.566406 40.671875 93.539063 C 41.039063 89.023438 37.675781 85.0625 33.160156 84.695313 C 31.1875 84.535156 29.324219 85.085938 27.816406 86.132813 C 27.292969 82.414063 24.257813 79.417969 20.359375 79.101563 C 15.84375 78.734375 11.882813 82.097656 11.515625 86.613281 C 11.421875 87.753906 11.570313 88.859375 11.910156 89.878906 C 7.460938 89.605469 3.59375 92.933594 3.230469 97.398438 C 2.871094 101.808594 6.070313 105.675781 10.425781 106.199219 Z M 14.96875 98.589844 C 15.324219 94.238281 19.140625 90.996094 23.492188 91.351563 C 27.84375 91.703125 31.085938 95.519531 30.730469 99.875 C 30.378906 104.226563 26.5625 107.46875 22.207031 107.113281 C 17.855469 106.757813 14.613281 102.941406 14.96875 98.589844 "/>
<path style=" stroke:none;fill-rule:nonzero;fill:rgb(0%,0%,0%);fill-opacity:1;" d="M 22.960938 45.488281 C 18.179688 46.371094 14.132813 52.585938 14.132813 60.113281 C 14.132813 68.25 18.457031 74.847656 23.796875 74.847656 C 29.132813 74.847656 33.460938 68.25 33.460938 60.113281 C 33.460938 52.773438 29.570313 46.609375 24.960938 45.488281 C 24.859375 45.464844 25.117188 46.558594 25.007813 48.199219 C 24.988281 48.464844 26.933594 51.726563 28.539063 54.484375 C 29.675781 56.4375 29.285156 56.882813 27.90625 55.074219 C 26.402344 53.113281 24.835938 51.058594 24.820313 51.367188 C 24.734375 52.984375 24.648438 54.816406 24.558594 56.695313 C 24.550781 56.902344 26.277344 59.570313 27.894531 62.074219 C 29.308594 64.273438 29.382813 65.472656 27.84375 63.527344 C 26.300781 61.582031 24.453125 58.96875 24.441406 59.1875 C 24.160156 65.246094 23.875 71.03125 23.628906 71.03125 C 23.449219 71.03125 23.304688 65.871094 23.167969 60.1875 C 23.160156 59.980469 21.375 61.992188 19.296875 64.367188 C 16.414063 67.660156 15.917969 67.183594 18.644531 63.539063 C 20.960938 60.441406 23.101563 57.5625 23.097656 57.355469 C 23.050781 55.375 23.003906 53.425781 22.953125 51.691406 C 22.941406 51.304688 20.960938 53.722656 19.160156 55.890625 C 17.667969 57.6875 17.339844 57.15625 18.601563 55.179688 C 20.492188 52.21875 22.855469 48.601563 22.84375 48.355469 C 22.773438 46.589844 23.042969 45.476563 22.960938 45.488281 "/>
<path style=" stroke:none;fill-rule:nonzero;fill:rgb(0%,0%,0%);fill-opacity:1;" d="M 2.863281 180.785156 C 4.941406 184.753906 9.804688 186.304688 13.792969 184.3125 C 13.878906 185.386719 14.171875 186.460938 14.703125 187.476563 C 16.808594 191.488281 21.769531 193.035156 25.78125 190.933594 C 29.246094 189.117188 30.867188 185.175781 29.898438 181.550781 C 31.691406 181.925781 33.625 181.703125 35.378906 180.785156 C 39.390625 178.683594 40.941406 173.722656 38.835938 169.710938 C 37.425781 167.015625 34.730469 165.441406 31.898438 165.324219 C 32.933594 163.089844 32.960938 160.417969 31.730469 158.066406 C 29.625 154.054688 24.667969 152.503906 20.652344 154.609375 C 19.144531 155.398438 17.988281 156.589844 17.238281 157.980469 C 14.796875 155.207031 10.699219 154.34375 7.277344 156.132813 C 3.265625 158.238281 1.714844 163.195313 3.820313 167.210938 C 4.382813 168.285156 5.152344 169.175781 6.050781 169.871094 C 2.246094 172.054688 0.808594 176.867188 2.863281 180.785156 Z M 16.535156 164.425781 C 20.40625 162.398438 25.183594 163.894531 27.210938 167.761719 C 29.238281 171.628906 27.746094 176.40625 23.878906 178.433594 C 20.007813 180.460938 15.230469 178.96875 13.203125 175.101563 C 11.175781 171.234375 12.667969 166.453125 16.535156 164.425781 "/>
<path style=" stroke:none;fill-rule:nonzero;fill:rgb(0%,0%,0%);fill-opacity:1;" d="M 18.960938 152.039063 C 23.570313 150.921875 27.460938 144.757813 27.460938 137.414063 C 27.460938 129.28125 23.132813 122.683594 17.796875 122.683594 C 12.457031 122.683594 8.132813 129.28125 8.132813 137.414063 C 8.132813 144.945313 12.179688 151.15625 16.960938 152.039063 C 17.042969 152.058594 16.773438 150.941406 16.84375 149.175781 C 16.855469 148.929688 14.492188 145.3125 12.601563 142.351563 C 11.339844 140.375 11.667969 139.84375 13.160156 141.640625 C 14.960938 143.808594 16.941406 146.226563 16.953125 145.835938 C 17.003906 144.105469 17.050781 142.15625 17.097656 140.175781 C 17.101563 139.96875 14.960938 137.085938 12.644531 133.988281 C 9.917969 130.347656 10.414063 129.867188 13.296875 133.164063 C 15.375 135.535156 17.160156 137.550781 17.167969 137.34375 C 17.304688 131.660156 17.449219 126.5 17.628906 126.5 C 17.875 126.5 18.160156 132.285156 18.441406 138.34375 C 18.453125 138.5625 20.300781 135.949219 21.84375 134.003906 C 23.382813 132.058594 23.308594 133.257813 21.894531 135.453125 C 20.277344 137.960938 18.550781 140.628906 18.558594 140.835938 C 18.648438 142.714844 18.734375 144.546875 18.820313 146.164063 C 18.835938 146.472656 20.402344 144.417969 21.90625 142.453125 C 23.285156 140.648438 23.675781 141.09375 22.539063 143.046875 C 20.933594 145.808594 18.988281 149.0625 19.007813 149.328125 C 19.117188 150.972656 18.859375 152.066406 18.960938 152.039063 "/>
<path style=" stroke:none;fill-rule:nonzero;fill:rgb(0%,0%,0%);fill-opacity:1;" d="M 39.402344 248.398438 C 39.039063 243.933594 35.167969 240.605469 30.71875 240.878906 C 31.058594 239.859375 31.207031 238.753906 31.113281 237.613281 C 30.746094 233.097656 26.785156 229.734375 22.269531 230.101563 C 18.371094 230.417969 15.335938 233.414063 14.816406 237.132813 C 13.308594 236.085938 11.441406 235.535156 9.472656 235.695313 C 4.953125 236.0625 1.589844 240.023438 1.957031 244.539063 C 2.207031 247.566406 4.070313 250.070313 6.632813 251.285156 C 4.808594 252.9375 3.738281 255.386719 3.953125 258.03125 C 4.320313 262.546875 8.28125 265.910156 12.796875 265.542969 C 14.492188 265.40625 16.023438 264.761719 17.257813 263.773438 C 18.421875 267.28125 21.855469 269.679688 25.703125 269.363281 C 30.222656 268.996094 33.585938 265.035156 33.21875 260.519531 C 33.117188 259.3125 32.757813 258.191406 32.203125 257.199219 C 36.558594 256.675781 39.761719 252.808594 39.402344 248.398438 Z M 20.421875 258.113281 C 16.070313 258.46875 12.253906 255.226563 11.898438 250.875 C 11.542969 246.519531 14.785156 242.703125 19.140625 242.351563 C 23.492188 241.996094 27.308594 245.238281 27.660156 249.589844 C 28.015625 253.941406 24.773438 257.757813 20.421875 258.113281 "/>
<path style=" stroke:none;fill-rule:nonzero;fill:rgb(0%,0%,0%);fill-opacity:1;" d="M 23.667969 225.847656 C 28.453125 224.960938 32.5 218.75 32.5 211.222656 C 32.5 203.085938 28.171875 196.488281 22.835938 196.488281 C 17.496094 196.488281 13.171875 203.085938 13.171875 211.222656 C 13.171875 218.5625 17.058594 224.726563 21.667969 225.847656 C 21.769531 225.871094 21.511719 224.773438 21.625 223.132813 C 21.640625 222.867188 19.699219 219.609375 18.089844 216.847656 C 16.957031 214.898438 17.34375 214.453125 18.726563 216.257813 C 20.226563 218.222656 21.792969 220.273438 21.808594 219.96875 C 21.898438 218.351563 21.984375 216.519531 22.070313 214.640625 C 22.082031 214.433594 20.351563 211.765625 18.738281 209.257813 C 17.320313 207.0625 17.246094 205.863281 18.789063 207.808594 C 20.328125 209.753906 22.175781 212.367188 22.1875 212.144531 C 22.46875 206.089844 22.753906 200.304688 23.003906 200.304688 C 23.179688 200.304688 23.324219 205.464844 23.464844 211.144531 C 23.46875 211.351563 25.253906 209.339844 27.332031 206.96875 C 30.21875 203.671875 30.710938 204.152344 27.988281 207.792969 C 25.671875 210.890625 23.527344 213.773438 23.53125 213.976563 C 23.578125 215.960938 23.628906 217.910156 23.675781 219.640625 C 23.6875 220.027344 25.671875 217.613281 27.46875 215.445313 C 28.960938 213.648438 29.289063 214.179688 28.027344 216.15625 C 26.140625 219.113281 23.777344 222.730469 23.785156 222.980469 C 23.855469 224.746094 23.589844 225.859375 23.667969 225.847656 "/>
<path style=" stroke:none;fill-rule:nonzero;fill:rgb(0%,0%,0%);fill-opacity:1;" d="M 10.734375 334.550781 C 9.761719 338.175781 11.382813 342.117188 14.847656 343.933594 C 18.863281 346.039063 23.824219 344.488281 25.925781 340.472656 C 26.457031 339.460938 26.753906 338.386719 26.839844 337.316406 C 30.824219 339.304688 35.691406 337.753906 37.765625 333.785156 C 39.820313 329.867188 38.386719 325.054688 34.582031 322.871094 C 35.480469 322.175781 36.25 321.285156 36.8125 320.210938 C 38.914063 316.195313 37.367188 311.238281 33.351563 309.132813 C 29.933594 307.34375 25.835938 308.207031 23.394531 310.980469 C 22.644531 309.589844 21.484375 308.398438 19.976563 307.609375 C 15.964844 305.503906 11.003906 307.054688 8.902344 311.066406 C 7.667969 313.417969 7.699219 316.089844 8.730469 318.324219 C 5.898438 318.441406 3.203125 320.015625 1.792969 322.710938 C -0.308594 326.722656 1.238281 331.679688 5.253906 333.785156 C 7.003906 334.703125 8.9375 334.925781 10.734375 334.550781 Z M 13.417969 320.761719 C 15.445313 316.894531 20.226563 315.398438 24.09375 317.425781 C 27.960938 319.453125 29.453125 324.234375 27.425781 328.101563 C 25.402344 331.96875 20.621094 333.460938 16.753906 331.433594 C 12.886719 329.40625 11.394531 324.628906 13.417969 320.761719 "/>
<path style=" stroke:none;fill-rule:nonzero;fill:rgb(0%,0%,0%);fill-opacity:1;" d="M 23.667969 303.039063 C 28.453125 302.15625 32.5 295.945313 32.5 288.414063 C 32.5 280.28125 28.171875 273.683594 22.835938 273.683594 C 17.496094 273.683594 13.171875 280.28125 13.171875 288.414063 C 13.171875 295.757813 17.058594 301.921875 21.667969 303.039063 C 21.769531 303.066406 21.511719 301.972656 21.625 300.328125 C 21.640625 300.0625 19.699219 296.808594 18.089844 294.046875 C 16.957031 292.09375 17.34375 291.648438 18.726563 293.453125 C 20.226563 295.417969 21.792969 297.472656 21.808594 297.164063 C 21.898438 295.546875 21.984375 293.714844 22.070313 291.835938 C 22.082031 291.628906 20.351563 288.960938 18.738281 286.453125 C 17.320313 284.257813 17.246094 283.058594 18.789063 285.003906 C 20.328125 286.949219 22.175781 289.5625 22.1875 289.34375 C 22.46875 283.285156 22.753906 277.5 23.003906 277.5 C 23.179688 277.5 23.324219 282.660156 23.464844 288.34375 C 23.46875 288.550781 25.253906 286.535156 27.332031 284.164063 C 30.21875 280.867188 30.710938 281.347656 27.988281 284.988281 C 25.671875 288.085938 23.527344 290.96875 23.53125 291.175781 C 23.578125 293.15625 23.628906 295.105469 23.675781 296.835938 C 23.6875 297.226563 25.671875 294.808594 27.46875 292.640625 C 28.960938 290.84375 29.289063 291.375 28.027344 293.351563 C 26.140625 296.3125 23.777344 299.929688 23.785156 300.175781 C 23.855469 301.941406 23.589844 303.058594 23.667969 303.039063 "/>
<path style=" stroke:none;fill-rule:nonzero;fill:rgb(0%,0%,0%);fill-opacity:1;" d="M 37.8125 388.695313 C 35.839844 388.535156 33.976563 389.085938 32.46875 390.132813 C 31.945313 386.414063 28.910156 383.417969 25.015625 383.101563 C 20.496094 382.734375 16.535156 386.097656 16.167969 390.613281 C 16.078125 391.753906 16.222656 392.859375 16.566406 393.878906 C 12.117188 393.605469 8.246094 396.933594 7.882813 401.398438 C 7.523438 405.804688 10.722656 409.675781 15.078125 410.199219 C 14.527344 411.191406 14.164063 412.3125 14.066406 413.519531 C 13.699219 418.039063 17.0625 421.996094 21.578125 422.363281 C 25.425781 422.675781 28.859375 420.28125 30.023438 416.773438 C 31.257813 417.761719 32.789063 418.40625 34.484375 418.542969 C 39.003906 418.910156 42.960938 415.546875 43.332031 411.03125 C 43.546875 408.386719 42.476563 405.941406 40.652344 404.285156 C 43.214844 403.070313 45.078125 400.566406 45.324219 397.539063 C 45.691406 393.023438 42.328125 389.0625 37.8125 388.695313 Z M 35.382813 403.875 C 35.03125 408.226563 31.214844 411.46875 26.859375 411.113281 C 22.507813 410.757813 19.265625 406.945313 19.621094 402.589844 C 19.976563 398.238281 23.792969 394.996094 28.144531 395.351563 C 32.496094 395.707031 35.738281 399.523438 35.382813 403.875 "/>
<path style=" stroke:none;fill-rule:nonzero;fill:rgb(0%,0%,0%);fill-opacity:1;" d="M 65.089844 13.859375 C 57.75 14.078125 51.707031 18.152344 50.726563 22.792969 C 50.707031 22.894531 51.792969 22.605469 53.4375 22.667969 C 53.703125 22.679688 56.902344 20.636719 59.613281 18.945313 C 61.527344 17.753906 61.984375 18.128906 60.222656 19.5625 C 58.304688 21.121094 56.300781 22.75 56.605469 22.757813 C 58.226563 22.796875 60.058594 22.824219 61.941406 22.855469 C 62.148438 22.859375 64.761719 21.050781 67.21875 19.363281 C 69.371094 17.878906 70.570313 17.769531 68.667969 19.367188 C 66.773438 20.96875 64.21875 22.894531 64.4375 22.898438 C 70.5 22.996094 76.292969 23.105469 76.296875 23.351563 C 76.304688 23.53125 71.152344 23.832031 65.476563 24.144531 C 65.269531 24.152344 67.335938 25.878906 69.769531 27.882813 C 73.152344 30.667969 72.6875 31.175781 68.964844 28.5625 C 65.796875 26.339844 62.851563 24.285156 62.648438 24.296875 C 60.667969 24.40625 58.71875 24.511719 56.992188 24.613281 C 56.605469 24.636719 59.078125 26.546875 61.300781 28.277344 C 63.140625 29.714844 62.621094 30.058594 60.605469 28.855469 C 57.59375 27.058594 53.90625 24.808594 53.65625 24.824219 C 51.894531 24.945313 50.773438 24.714844 50.789063 24.792969 C 51.816406 29.546875 58.148438 33.40625 65.675781 33.175781 C 73.808594 32.929688 80.269531 28.40625 80.105469 23.070313 C 79.945313 17.734375 73.222656 13.609375 65.089844 13.859375 "/>
<path style=" stroke:none;fill-rule:nonzero;fill:rgb(0%,0%,0%);fill-opacity:1;" d="M 62.492188 395.964844 C 55.152344 396.1875 49.109375 400.257813 48.128906 404.902344 C 48.109375 405 49.195313 404.710938 50.839844 404.773438 C 51.105469 404.785156 54.300781 402.742188 57.015625 401.050781 C 58.929688 399.859375 59.386719 400.234375 57.621094 401.667969 C 55.707031 403.230469 53.703125 404.855469 54.007813 404.863281 C 55.628906 404.902344 57.460938 404.933594 59.34375 404.964844 C 59.550781 404.96875 62.164063 403.15625 64.621094 401.46875 C 66.773438 399.984375 67.96875 399.875 66.070313 401.472656 C 64.171875 403.074219 61.617188 405 61.839844 405.003906 C 67.902344 405.101563 73.691406 405.210938 73.699219 405.460938 C 73.707031 405.636719 68.550781 405.9375 62.878906 406.25 C 62.671875 406.261719 64.734375 407.984375 67.171875 409.988281 C 70.550781 412.773438 70.089844 413.28125 66.363281 410.667969 C 63.199219 408.449219 60.253906 406.390625 60.046875 406.402344 C 58.070313 406.511719 56.121094 406.617188 54.390625 406.71875 C 54.003906 406.742188 56.480469 408.652344 58.703125 410.386719 C 60.542969 411.820313 60.023438 412.164063 58.007813 410.964844 C 54.992188 409.164063 51.304688 406.914063 51.058594 406.929688 C 49.292969 407.054688 48.171875 406.820313 48.191406 406.898438 C 49.21875 411.652344 55.550781 415.511719 63.078125 415.28125 C 71.207031 415.035156 77.667969 410.511719 77.507813 405.175781 C 77.347656 399.84375 70.621094 395.71875 62.492188 395.964844 "/>
<path style=" stroke:none;fill-rule:nonzero;fill:rgb(0%,0%,0%);fill-opacity:1;" d="M 115.300781 401.21875 C 116.289063 399.984375 116.933594 398.453125 117.070313 396.757813 C 117.4375 392.242188 114.074219 388.28125 109.558594 387.914063 C 106.914063 387.699219 104.46875 388.769531 102.8125 390.59375 C 101.601563 388.03125 99.09375 386.164063 96.066406 385.917969 C 91.550781 385.550781 87.589844 388.914063 87.222656 393.433594 C 87.0625 395.402344 87.613281 397.269531 88.660156 398.777344 C 84.941406 399.296875 81.945313 402.332031 81.628906 406.230469 C 81.261719 410.746094 84.625 414.707031 89.140625 415.074219 C 90.28125 415.167969 91.386719 415.023438 92.40625 414.679688 C 92.132813 419.128906 95.464844 423 99.925781 423.363281 C 104.335938 423.71875 108.203125 420.519531 108.726563 416.164063 C 109.722656 416.71875 110.839844 417.078125 112.046875 417.175781 C 116.566406 417.546875 120.523438 414.179688 120.894531 409.664063 C 121.207031 405.816406 118.808594 402.382813 115.300781 401.21875 Z M 109.640625 404.382813 C 109.285156 408.734375 105.472656 411.976563 101.117188 411.621094 C 96.765625 411.269531 93.523438 407.453125 93.878906 403.097656 C 94.234375 398.746094 98.050781 395.507813 102.402344 395.859375 C 106.753906 396.214844 109.996094 400.03125 109.640625 404.382813 "/>
<path style=" stroke:none;fill-rule:nonzero;fill:rgb(0%,0%,0%);fill-opacity:1;" d="M 184.078125 395.695313 C 184.453125 393.898438 184.230469 391.964844 183.3125 390.214844 C 181.210938 386.199219 176.25 384.652344 172.234375 386.753906 C 169.546875 388.164063 167.96875 390.859375 167.851563 393.691406 C 165.617188 392.660156 162.945313 392.632813 160.597656 393.863281 C 156.582031 395.964844 155.035156 400.925781 157.136719 404.9375 C 157.925781 406.445313 159.117188 407.605469 160.511719 408.351563 C 157.734375 410.796875 156.871094 414.894531 158.660156 418.3125 C 160.765625 422.328125 165.726563 423.875 169.738281 421.773438 C 170.8125 421.210938 171.703125 420.441406 172.398438 419.542969 C 174.585938 423.347656 179.394531 424.78125 183.3125 422.726563 C 187.28125 420.648438 188.835938 415.785156 186.84375 411.796875 C 187.914063 411.714844 188.988281 411.417969 190.003906 410.886719 C 194.015625 408.78125 195.566406 403.824219 193.464844 399.808594 C 191.648438 396.34375 187.703125 394.722656 184.078125 395.695313 Z M 177.628906 412.386719 C 173.761719 414.414063 168.980469 412.921875 166.953125 409.054688 C 164.929688 405.1875 166.421875 400.40625 170.289063 398.378906 C 174.15625 396.351563 178.9375 397.847656 180.964844 401.714844 C 182.988281 405.582031 181.496094 410.363281 177.628906 412.386719 "/>
<path style=" stroke:none;fill-rule:nonzero;fill:rgb(0%,0%,0%);fill-opacity:1;" d="M 139.839844 398.132813 C 132.496094 398.132813 126.332031 402.019531 125.214844 406.628906 C 125.1875 406.730469 126.285156 406.472656 127.925781 406.585938 C 128.191406 406.601563 131.449219 404.660156 134.210938 403.050781 C 136.160156 401.917969 136.605469 402.304688 134.800781 403.6875 C 132.835938 405.1875 130.785156 406.753906 131.089844 406.773438 C 132.707031 406.855469 134.539063 406.945313 136.417969 407.03125 C 136.625 407.042969 139.292969 405.3125 141.800781 403.699219 C 143.996094 402.28125 145.195313 402.207031 143.25 403.746094 C 141.304688 405.289063 138.691406 407.136719 138.914063 407.148438 C 144.96875 407.429688 150.753906 407.714844 150.753906 407.964844 C 150.753906 408.140625 145.59375 408.285156 139.914063 408.421875 C 139.707031 408.429688 141.71875 410.214844 144.089844 412.292969 C 147.386719 415.175781 146.90625 415.671875 143.265625 412.949219 C 140.167969 410.632813 137.285156 408.488281 137.082031 408.492188 C 135.101563 408.539063 133.148438 408.589844 131.417969 408.636719 C 131.03125 408.648438 133.445313 410.632813 135.613281 412.429688 C 137.410156 413.921875 136.878906 414.25 134.902344 412.988281 C 131.945313 411.097656 128.328125 408.738281 128.078125 408.746094 C 126.3125 408.816406 125.199219 408.546875 125.214844 408.628906 C 126.097656 413.414063 132.308594 417.460938 139.839844 417.460938 C 147.972656 417.460938 154.570313 413.132813 154.570313 407.796875 C 154.570313 402.460938 147.972656 398.132813 139.839844 398.132813 "/>
<path style=" stroke:none;fill-rule:nonzero;fill:rgb(0%,0%,0%);fill-opacity:1;" d="M 263.046875 394.375 C 261.839844 394.472656 260.722656 394.835938 259.726563 395.386719 C 259.203125 391.03125 255.335938 387.832031 250.925781 388.191406 C 246.464844 388.554688 243.132813 392.421875 243.40625 396.871094 C 242.386719 396.53125 241.28125 396.382813 240.140625 396.476563 C 235.625 396.84375 232.261719 400.804688 232.628906 405.320313 C 232.945313 409.21875 235.941406 412.253906 239.660156 412.777344 C 238.613281 414.28125 238.0625 416.148438 238.222656 418.121094 C 238.589844 422.636719 242.550781 426 247.066406 425.632813 C 250.097656 425.386719 252.601563 423.519531 253.8125 420.957031 C 255.46875 422.785156 257.914063 423.855469 260.558594 423.636719 C 265.074219 423.269531 268.4375 419.3125 268.070313 414.792969 C 267.933594 413.097656 267.289063 411.566406 266.300781 410.332031 C 269.808594 409.167969 272.207031 405.734375 271.894531 401.886719 C 271.523438 397.371094 267.566406 394.007813 263.046875 394.375 Z M 253.402344 415.691406 C 249.050781 416.046875 245.234375 412.804688 244.878906 408.453125 C 244.523438 404.097656 247.765625 400.285156 252.117188 399.929688 C 256.472656 399.574219 260.285156 402.816406 260.640625 407.167969 C 260.996094 411.523438 257.753906 415.335938 253.402344 415.691406 "/>
<path style=" stroke:none;fill-rule:nonzero;fill:rgb(0%,0%,0%);fill-opacity:1;" d="M 213.640625 395.09375 C 206.113281 395.09375 199.902344 399.140625 199.015625 403.921875 C 199.003906 404.003906 200.117188 403.734375 201.882813 403.804688 C 202.132813 403.816406 205.746094 401.453125 208.707031 399.5625 C 210.683594 398.300781 211.214844 398.628906 209.417969 400.121094 C 207.25 401.917969 204.835938 403.902344 205.222656 403.914063 C 206.953125 403.964844 208.902344 404.011719 210.886719 404.058594 C 211.089844 404.066406 213.972656 401.921875 217.070313 399.601563 C 220.710938 396.878906 221.191406 397.375 217.894531 400.257813 C 215.523438 402.335938 213.511719 404.121094 213.71875 404.128906 C 219.398438 404.265625 224.558594 404.410156 224.558594 404.589844 C 224.558594 404.835938 218.773438 405.121094 212.71875 405.402344 C 212.496094 405.414063 215.109375 407.261719 217.054688 408.804688 C 219 410.34375 217.800781 410.269531 215.605469 408.851563 C 213.097656 407.238281 210.429688 405.511719 210.222656 405.519531 C 208.34375 405.609375 206.511719 405.695313 204.894531 405.78125 C 204.589844 405.796875 206.640625 407.363281 208.605469 408.863281 C 210.410156 410.246094 209.964844 410.636719 208.015625 409.5 C 205.253906 407.894531 201.992188 405.949219 201.730469 405.96875 C 200.089844 406.078125 198.992188 405.824219 199.015625 405.921875 C 200.136719 410.53125 206.300781 414.417969 213.640625 414.417969 C 221.777344 414.417969 228.371094 410.09375 228.371094 404.757813 C 228.371094 399.417969 221.777344 395.09375 213.640625 395.09375 "/>
<path style=" stroke:none;fill-rule:nonzero;fill:rgb(0%,0%,0%);fill-opacity:1;" d="M 344.003906 401.664063 C 342.988281 401.132813 341.914063 400.839844 340.84375 400.753906 C 342.835938 396.765625 341.28125 391.902344 337.3125 389.824219 C 333.394531 387.769531 328.585938 389.207031 326.398438 393.007813 C 325.703125 392.113281 324.8125 391.34375 323.738281 390.78125 C 319.726563 388.675781 314.765625 390.226563 312.660156 394.238281 C 310.871094 397.65625 311.734375 401.757813 314.511719 404.199219 C 313.117188 404.949219 311.925781 406.105469 311.136719 407.613281 C 309.035156 411.628906 310.582031 416.585938 314.597656 418.691406 C 316.945313 419.921875 319.617188 419.894531 321.851563 418.859375 C 321.96875 421.691406 323.546875 424.386719 326.234375 425.796875 C 330.25 427.902344 335.210938 426.351563 337.3125 422.335938 C 338.230469 420.585938 338.453125 418.652344 338.078125 416.855469 C 341.703125 417.828125 345.648438 416.207031 347.464844 412.742188 C 349.566406 408.726563 348.015625 403.769531 344.003906 401.664063 Z M 334.964844 410.839844 C 332.9375 414.707031 328.15625 416.199219 324.289063 414.171875 C 320.421875 412.144531 318.929688 407.367188 320.953125 403.496094 C 322.980469 399.628906 327.761719 398.136719 331.628906 400.164063 C 335.496094 402.191406 336.988281 406.96875 334.964844 410.839844 "/>
<path style=" stroke:none;fill-rule:nonzero;fill:rgb(0%,0%,0%);fill-opacity:1;" d="M 290.839844 397.09375 C 283.308594 397.09375 277.097656 401.140625 276.214844 405.921875 C 276.199219 406.003906 277.3125 405.734375 279.078125 405.804688 C 279.328125 405.816406 282.945313 403.453125 285.902344 401.5625 C 287.878906 400.300781 288.410156 400.628906 286.613281 402.121094 C 284.445313 403.917969 282.03125 405.902344 282.417969 405.914063 C 284.148438 405.964844 286.101563 406.011719 288.082031 406.058594 C 288.285156 406.066406 291.167969 403.921875 294.265625 401.601563 C 297.90625 398.878906 298.386719 399.375 295.089844 402.257813 C 292.71875 404.335938 290.707031 406.121094 290.914063 406.128906 C 296.59375 406.265625 301.753906 406.410156 301.753906 406.589844 C 301.753906 406.835938 295.96875 407.121094 289.914063 407.402344 C 289.691406 407.414063 292.304688 409.261719 294.25 410.804688 C 296.195313 412.34375 294.996094 412.269531 292.800781 410.851563 C 290.292969 409.238281 287.625 407.511719 287.417969 407.519531 C 285.539063 407.609375 283.707031 407.695313 282.089844 407.78125 C 281.785156 407.796875 283.835938 409.363281 285.800781 410.863281 C 287.605469 412.246094 287.160156 412.636719 285.210938 411.5 C 282.449219 409.894531 279.191406 407.949219 278.925781 407.96875 C 277.285156 408.078125 276.1875 407.824219 276.214844 407.921875 C 277.332031 412.53125 283.496094 416.417969 290.839844 416.417969 C 298.972656 416.417969 305.570313 412.09375 305.570313 406.757813 C 305.570313 401.417969 298.972656 397.09375 290.839844 397.09375 "/>
<path style=" stroke:none;fill-rule:nonzero;fill:rgb(0%,0%,0%);fill-opacity:1;" d="M 22.320313 379.800781 C 27.074219 378.773438 30.933594 372.441406 30.703125 364.917969 C 30.457031 356.785156 25.933594 350.324219 20.597656 350.484375 C 15.265625 350.644531 11.140625 357.371094 11.386719 365.503906 C 11.609375 372.839844 15.679688 378.882813 20.324219 379.863281 C 20.421875 379.882813 20.132813 378.796875 20.195313 377.15625 C 20.207031 376.886719 18.164063 373.691406 16.472656 370.980469 C 15.28125 369.0625 15.65625 368.605469 17.089844 370.371094 C 18.652344 372.285156 20.28125 374.289063 20.285156 373.984375 C 20.324219 372.367188 20.355469 370.53125 20.386719 368.652344 C 20.390625 368.445313 18.582031 365.828125 16.890625 363.371094 C 15.40625 361.21875 15.296875 360.023438 16.894531 361.921875 C 18.496094 363.820313 20.421875 366.375 20.425781 366.152344 C 20.527344 360.09375 20.632813 354.300781 20.882813 354.292969 C 21.058594 354.285156 21.359375 359.441406 21.671875 365.113281 C 21.683594 365.324219 23.40625 363.257813 25.410156 360.824219 C 28.195313 357.441406 28.703125 357.90625 26.089844 361.628906 C 23.867188 364.792969 21.8125 367.738281 21.824219 367.945313 C 21.933594 369.921875 22.039063 371.871094 22.140625 373.601563 C 22.164063 373.988281 24.074219 371.511719 25.804688 369.289063 C 27.242188 367.449219 27.585938 367.96875 26.386719 369.984375 C 24.585938 373 22.335938 376.6875 22.351563 376.933594 C 22.476563 378.699219 22.242188 379.820313 22.320313 379.800781 "/>
<path style=" stroke:none;fill-rule:nonzero;fill:rgb(0%,0%,0%);fill-opacity:1;" d="M 410.429688 382.402344 C 415.183594 381.371094 419.039063 375.039063 418.8125 367.515625 C 418.5625 359.382813 414.039063 352.921875 408.703125 353.082031 C 403.371094 353.246094 399.246094 359.96875 399.492188 368.101563 C 399.714844 375.4375 403.789063 381.480469 408.429688 382.460938 C 408.527344 382.484375 408.238281 381.394531 408.300781 379.753906 C 408.3125 379.488281 406.269531 376.289063 404.578125 373.578125 C 403.386719 371.660156 403.761719 371.203125 405.195313 372.96875 C 406.757813 374.886719 408.386719 376.890625 408.390625 376.582031 C 408.429688 374.964844 408.460938 373.128906 408.492188 371.25 C 408.496094 371.042969 406.6875 368.425781 404.996094 365.972656 C 403.515625 363.816406 403.402344 362.621094 405.003906 364.519531 C 406.601563 366.417969 408.527344 368.972656 408.53125 368.753906 C 408.632813 362.691406 408.738281 356.898438 408.988281 356.890625 C 409.164063 356.886719 409.464844 362.039063 409.777344 367.714844 C 409.789063 367.921875 411.511719 365.855469 413.515625 363.421875 C 416.300781 360.039063 416.808594 360.503906 414.195313 364.226563 C 411.976563 367.394531 409.921875 370.339844 409.929688 370.542969 C 410.039063 372.523438 410.144531 374.472656 410.246094 376.199219 C 410.269531 376.585938 412.179688 374.109375 413.914063 371.890625 C 415.347656 370.046875 415.691406 370.570313 414.492188 372.582031 C 412.691406 375.597656 410.441406 379.285156 410.457031 379.53125 C 410.582031 381.296875 410.347656 382.417969 410.429688 382.402344 "/>
<path style=" stroke:none;fill-rule:nonzero;fill:rgb(0%,0%,0%);fill-opacity:1;" d="M 419.738281 400.722656 C 420.636719 400.023438 421.40625 399.132813 421.96875 398.058594 C 424.074219 394.046875 422.523438 389.085938 418.511719 386.984375 C 415.089844 385.191406 410.992188 386.058594 408.550781 388.832031 C 407.800781 387.441406 406.644531 386.246094 405.136719 385.457031 C 401.121094 383.355469 396.164063 384.902344 394.058594 388.917969 C 392.828125 391.269531 392.855469 393.9375 393.890625 396.171875 C 391.058594 396.289063 388.363281 397.867188 386.953125 400.558594 C 384.847656 404.570313 386.398438 409.53125 390.410156 411.636719 C 392.164063 412.550781 394.097656 412.773438 395.890625 412.398438 C 394.921875 416.027344 396.542969 419.96875 400.007813 421.785156 C 404.019531 423.886719 408.980469 422.339844 411.085938 418.324219 C 411.613281 417.3125 411.910156 416.238281 411.996094 415.164063 C 415.984375 417.15625 420.847656 415.601563 422.925781 411.636719 C 424.980469 407.71875 423.546875 402.90625 419.738281 400.722656 Z M 412.585938 405.949219 C 410.558594 409.820313 405.78125 411.3125 401.910156 409.285156 C 398.042969 407.257813 396.550781 402.476563 398.578125 398.609375 C 400.605469 394.742188 405.382813 393.25 409.253906 395.277344 C 413.121094 397.304688 414.613281 402.082031 412.585938 405.949219 "/>
<path style=" stroke:none;fill-rule:nonzero;fill:rgb(0%,0%,0%);fill-opacity:1;" d="M 421.363281 322.179688 C 421.914063 321.1875 422.277344 320.066406 422.375 318.859375 C 422.742188 314.34375 419.378906 310.382813 414.863281 310.015625 C 411.015625 309.703125 407.578125 312.101563 406.417969 315.609375 C 405.183594 314.617188 403.652344 313.976563 401.957031 313.835938 C 397.4375 313.46875 393.480469 316.835938 393.109375 321.351563 C 392.894531 323.992188 393.964844 326.441406 395.789063 328.09375 C 393.230469 329.308594 391.363281 331.8125 391.117188 334.84375 C 390.75 339.359375 394.113281 343.320313 398.628906 343.6875 C 400.601563 343.847656 402.464844 343.296875 403.972656 342.25 C 404.496094 345.96875 407.527344 348.960938 411.429688 349.28125 C 415.945313 349.648438 419.902344 346.28125 420.273438 341.765625 C 420.363281 340.625 420.21875 339.523438 419.878906 338.5 C 424.324219 338.777344 428.195313 335.445313 428.558594 330.984375 C 428.917969 326.574219 425.71875 322.703125 421.363281 322.179688 Z M 416.820313 329.789063 C 416.464844 334.140625 412.648438 337.382813 408.296875 337.03125 C 403.945313 336.675781 400.703125 332.859375 401.058594 328.507813 C 401.410156 324.152344 405.226563 320.910156 409.578125 321.265625 C 413.933594 321.621094 417.175781 325.4375 416.820313 329.789063 "/>
<path style=" stroke:none;fill-rule:nonzero;fill:rgb(0%,0%,0%);fill-opacity:1;" d="M 428.925781 247.59375 C 426.847656 243.628906 421.984375 242.074219 417.996094 244.066406 C 417.910156 242.992188 417.613281 241.921875 417.085938 240.90625 C 414.980469 236.890625 410.019531 235.34375 406.007813 237.445313 C 402.542969 239.261719 400.921875 243.203125 401.890625 246.828125 C 400.097656 246.453125 398.164063 246.675781 396.410156 247.59375 C 392.398438 249.699219 390.847656 254.65625 392.953125 258.671875 C 394.363281 261.363281 397.058594 262.941406 399.890625 263.058594 C 398.855469 265.289063 398.828125 267.960938 400.058594 270.3125 C 402.164063 274.324219 407.121094 275.875 411.136719 273.769531 C 412.644531 272.980469 413.800781 271.789063 414.550781 270.398438 C 416.992188 273.171875 421.089844 274.039063 424.511719 272.246094 C 428.523438 270.144531 430.074219 265.183594 427.96875 261.171875 C 427.40625 260.097656 426.636719 259.207031 425.738281 258.507813 C 429.546875 256.324219 430.980469 251.511719 428.925781 247.59375 Z M 415.253906 263.953125 C 411.382813 265.980469 406.605469 264.488281 404.578125 260.621094 C 402.550781 256.753906 404.042969 251.972656 407.910156 249.945313 C 411.78125 247.917969 416.558594 249.410156 418.585938 253.277344 C 420.613281 257.148438 419.121094 261.925781 415.253906 263.953125 "/>
<path style=" stroke:none;fill-rule:nonzero;fill:rgb(0%,0%,0%);fill-opacity:1;" d="M 412.828125 276.339844 C 408.21875 277.457031 404.328125 283.621094 404.328125 290.964844 C 404.328125 299.101563 408.65625 305.695313 413.992188 305.695313 C 419.328125 305.695313 423.65625 299.101563 423.65625 290.964844 C 423.65625 283.433594 419.609375 277.222656 414.828125 276.339844 C 414.746094 276.324219 415.015625 277.4375 414.945313 279.203125 C 414.933594 279.453125 417.296875 283.070313 419.1875 286.03125 C 420.449219 288.007813 420.121094 288.535156 418.628906 286.738281 C 416.828125 284.570313 414.847656 282.15625 414.835938 282.542969 C 414.785156 284.273438 414.738281 286.226563 414.691406 288.207031 C 414.683594 288.410156 416.828125 291.292969 419.144531 294.390625 C 421.871094 298.03125 421.375 298.511719 418.488281 295.214844 C 416.414063 292.84375 414.628906 290.832031 414.621094 291.039063 C 414.480469 296.71875 414.339844 301.878906 414.160156 301.878906 C 413.910156 301.878906 413.628906 296.09375 413.347656 290.039063 C 413.335938 289.816406 411.488281 292.429688 409.945313 294.375 C 408.402344 296.320313 408.480469 295.121094 409.894531 292.925781 C 411.511719 290.417969 413.238281 287.75 413.230469 287.542969 C 413.140625 285.664063 413.054688 283.832031 412.96875 282.214844 C 412.953125 281.910156 411.386719 283.960938 409.886719 285.925781 C 408.503906 287.730469 408.113281 287.285156 409.25 285.335938 C 410.855469 282.574219 412.800781 279.316406 412.78125 279.050781 C 412.671875 277.410156 412.925781 276.3125 412.828125 276.339844 "/>
<path style=" stroke:none;fill-rule:nonzero;fill:rgb(0%,0%,0%);fill-opacity:1;" d="M 392.386719 179.984375 C 392.75 184.445313 396.621094 187.773438 401.070313 187.503906 C 400.730469 188.523438 400.582031 189.625 400.675781 190.765625 C 401.042969 195.28125 405.003906 198.648438 409.519531 198.277344 C 413.417969 197.960938 416.449219 194.96875 416.972656 191.246094 C 418.480469 192.296875 420.347656 192.847656 422.316406 192.6875 C 426.835938 192.316406 430.199219 188.359375 429.828125 183.84375 C 429.585938 180.8125 427.71875 178.308594 425.15625 177.09375 C 426.980469 175.441406 428.050781 172.992188 427.835938 170.351563 C 427.46875 165.835938 423.507813 162.46875 418.992188 162.835938 C 417.296875 162.976563 415.765625 163.617188 414.53125 164.609375 C 413.367188 161.101563 409.933594 158.703125 406.085938 159.015625 C 401.566406 159.382813 398.203125 163.34375 398.570313 167.859375 C 398.671875 169.066406 399.03125 170.1875 399.585938 171.179688 C 395.230469 171.703125 392.027344 175.574219 392.386719 179.984375 Z M 411.367188 170.265625 C 415.71875 169.910156 419.535156 173.152344 419.890625 177.507813 C 420.242188 181.859375 417.003906 185.675781 412.648438 186.027344 C 408.296875 186.382813 404.480469 183.140625 404.128906 178.789063 C 403.773438 174.4375 407.015625 170.621094 411.367188 170.265625 "/>
<path style=" stroke:none;fill-rule:nonzero;fill:rgb(0%,0%,0%);fill-opacity:1;" d="M 408.121094 202.535156 C 403.335938 203.417969 399.289063 209.628906 399.289063 217.160156 C 399.289063 225.296875 403.617188 231.890625 408.953125 231.890625 C 414.289063 231.890625 418.617188 225.296875 418.617188 217.160156 C 418.617188 209.816406 414.730469 203.652344 410.121094 202.535156 C 410.019531 202.511719 410.277344 203.605469 410.164063 205.246094 C 410.148438 205.511719 412.089844 208.769531 413.695313 211.53125 C 414.832031 213.484375 414.445313 213.929688 413.0625 212.121094 C 411.5625 210.15625 409.996094 208.105469 409.980469 208.410156 C 409.894531 210.027344 409.804688 211.859375 409.71875 213.738281 C 409.707031 213.945313 411.4375 216.613281 413.050781 219.121094 C 414.46875 221.320313 414.542969 222.519531 413.003906 220.570313 C 411.460938 218.628906 409.609375 216.015625 409.601563 216.234375 C 409.316406 222.289063 409.035156 228.074219 408.785156 228.074219 C 408.609375 228.074219 408.464844 222.914063 408.324219 217.234375 C 408.320313 217.027344 406.535156 219.039063 404.457031 221.410156 C 401.570313 224.707031 401.078125 224.230469 403.800781 220.585938 C 406.117188 217.488281 408.261719 214.605469 408.257813 214.402344 C 408.210938 212.421875 408.160156 210.46875 408.113281 208.738281 C 408.101563 208.351563 406.117188 210.769531 404.316406 212.9375 C 402.828125 214.730469 402.496094 214.203125 403.761719 212.226563 C 405.648438 209.265625 408.011719 205.648438 408.003906 205.402344 C 407.933594 203.632813 408.199219 202.519531 408.121094 202.535156 "/>
<path style=" stroke:none;fill-rule:nonzero;fill:rgb(0%,0%,0%);fill-opacity:1;" d="M 426.535156 94.59375 C 424.78125 93.675781 422.851563 93.453125 421.054688 93.828125 C 422.027344 90.203125 420.402344 86.261719 416.941406 84.445313 C 412.925781 82.34375 407.964844 83.890625 405.863281 87.90625 C 405.332031 88.921875 405.035156 89.992188 404.949219 91.066406 C 400.964844 89.074219 396.101563 90.628906 394.019531 94.59375 C 391.96875 98.511719 393.402344 103.324219 397.207031 105.507813 C 396.308594 106.207031 395.539063 107.097656 394.976563 108.171875 C 392.871094 112.183594 394.421875 117.144531 398.4375 119.246094 C 401.855469 121.039063 405.953125 120.171875 408.394531 117.398438 C 409.144531 118.789063 410.304688 119.980469 411.8125 120.769531 C 415.824219 122.875 420.785156 121.324219 422.886719 117.3125 C 424.117188 114.960938 424.089844 112.289063 423.058594 110.058594 C 425.890625 109.941406 428.585938 108.363281 429.996094 105.671875 C 432.097656 101.65625 430.550781 96.699219 426.535156 94.59375 Z M 418.367188 107.621094 C 416.34375 111.488281 411.5625 112.980469 407.695313 110.953125 C 403.828125 108.925781 402.335938 104.148438 404.359375 100.277344 C 406.386719 96.410156 411.167969 94.917969 415.035156 96.945313 C 418.902344 98.972656 420.394531 103.753906 418.367188 107.621094 "/>
<path style=" stroke:none;fill-rule:nonzero;fill:rgb(0%,0%,0%);fill-opacity:1;" d="M 408.121094 125.339844 C 403.335938 126.222656 399.289063 132.433594 399.289063 139.964844 C 399.289063 148.101563 403.617188 154.695313 408.953125 154.695313 C 414.289063 154.695313 418.617188 148.101563 418.617188 139.964844 C 418.617188 132.621094 414.730469 126.457031 410.121094 125.339844 C 410.019531 125.3125 410.277344 126.410156 410.164063 128.050781 C 410.148438 128.316406 412.089844 131.574219 413.695313 134.335938 C 414.832031 136.285156 414.445313 136.730469 413.0625 134.925781 C 411.5625 132.960938 409.996094 130.910156 409.980469 131.214844 C 409.894531 132.832031 409.804688 134.664063 409.71875 136.542969 C 409.707031 136.75 411.4375 139.417969 413.050781 141.925781 C 414.46875 144.121094 414.542969 145.320313 413.003906 143.375 C 411.460938 141.429688 409.609375 138.816406 409.601563 139.039063 C 409.316406 145.09375 409.035156 150.878906 408.785156 150.878906 C 408.609375 150.878906 408.464844 145.71875 408.324219 140.039063 C 408.320313 139.832031 406.535156 141.84375 404.457031 144.214844 C 401.570313 147.511719 401.078125 147.03125 403.800781 143.390625 C 406.117188 140.292969 408.261719 137.410156 408.257813 137.207031 C 408.210938 135.226563 408.160156 133.273438 408.113281 131.542969 C 408.101563 131.15625 406.117188 133.570313 404.316406 135.738281 C 402.828125 137.535156 402.496094 137.007813 403.761719 135.03125 C 405.648438 132.070313 408.011719 128.453125 408.003906 128.203125 C 407.933594 126.4375 408.199219 125.324219 408.121094 125.339844 "/>
<path style=" stroke:none;fill-rule:nonzero;fill:rgb(0%,0%,0%);fill-opacity:1;" d="M 394.976563 39.6875 C 396.949219 39.847656 398.8125 39.296875 400.320313 38.25 C 400.84375 41.96875 403.878906 44.960938 407.773438 45.277344 C 412.292969 45.648438 416.253906 42.28125 416.621094 37.765625 C 416.714844 36.625 416.566406 35.519531 416.226563 34.5 C 420.671875 34.773438 424.542969 31.445313 424.90625 26.984375 C 425.265625 22.574219 422.0625 18.703125 417.710938 18.179688 C 418.261719 17.1875 418.625 16.066406 418.722656 14.859375 C 419.089844 10.34375 415.726563 6.382813 411.210938 6.015625 C 407.363281 5.703125 403.929688 8.101563 402.765625 11.609375 C 401.53125 10.621094 399.996094 9.976563 398.304688 9.835938 C 393.785156 9.46875 389.824219 12.832031 389.460938 17.351563 C 389.242188 19.992188 390.3125 22.441406 392.136719 24.09375 C 389.574219 25.308594 387.710938 27.8125 387.464844 30.84375 C 387.097656 35.359375 390.460938 39.316406 394.976563 39.6875 Z M 397.40625 24.507813 C 397.757813 20.152344 401.574219 16.910156 405.929688 17.265625 C 410.28125 17.621094 413.519531 21.4375 413.167969 25.789063 C 412.8125 30.140625 408.996094 33.382813 404.644531 33.027344 C 400.289063 32.675781 397.050781 28.859375 397.40625 24.507813 "/>
<path style=" stroke:none;fill-rule:nonzero;fill:rgb(0%,0%,0%);fill-opacity:1;" d="M 379.351563 407.714844 C 379.085938 407.703125 375.886719 409.746094 373.175781 411.433594 C 371.261719 412.628906 370.804688 412.253906 372.566406 410.816406 C 374.484375 409.257813 376.488281 407.628906 376.183594 407.621094 C 374.5625 407.585938 372.730469 407.554688 370.847656 407.523438 C 370.640625 407.519531 368.027344 409.328125 365.570313 411.019531 C 363.414063 412.5 362.222656 412.613281 364.117188 411.011719 C 366.015625 409.414063 368.570313 407.484375 368.351563 407.480469 C 362.289063 407.382813 356.496094 407.277344 356.488281 407.027344 C 356.484375 406.847656 361.636719 406.550781 367.3125 406.238281 C 367.519531 406.226563 365.453125 404.5 363.019531 402.496094 C 359.636719 399.714844 360.101563 399.207031 363.824219 401.816406 C 366.992188 404.039063 369.9375 406.09375 370.140625 406.082031 C 372.121094 405.976563 374.070313 405.867188 375.796875 405.765625 C 376.183594 405.742188 373.710938 403.835938 371.488281 402.101563 C 369.648438 400.664063 370.167969 400.320313 372.179688 401.523438 C 375.195313 403.324219 378.882813 405.574219 379.132813 405.554688 C 380.894531 405.433594 382.015625 405.667969 382 405.585938 C 380.972656 400.832031 374.640625 396.976563 367.113281 397.203125 C 358.980469 397.449219 352.519531 401.976563 352.683594 407.308594 C 352.84375 412.644531 359.566406 416.769531 367.699219 416.523438 C 375.035156 416.300781 381.082031 412.226563 382.0625 407.585938 C 382.082031 407.484375 380.996094 407.777344 379.351563 407.714844 "/>
<path style=" stroke:none;fill-rule:nonzero;fill:rgb(0%,0%,0%);fill-opacity:1;" d="M 381.949219 22.605469 C 381.683594 22.597656 378.484375 24.640625 375.773438 26.328125 C 373.859375 27.523438 373.402344 27.148438 375.164063 25.710938 C 377.085938 24.152344 379.089844 22.523438 378.78125 22.515625 C 377.160156 22.480469 375.328125 22.449219 373.445313 22.417969 C 373.238281 22.414063 370.625 24.222656 368.167969 25.910156 C 366.015625 27.394531 364.820313 27.507813 366.71875 25.90625 C 368.617188 24.308594 371.171875 22.378906 370.949219 22.375 C 364.886719 22.277344 359.097656 22.167969 359.089844 21.921875 C 359.082031 21.742188 364.238281 21.441406 369.910156 21.132813 C 370.117188 21.121094 368.054688 19.394531 365.617188 17.390625 C 362.238281 14.605469 362.699219 14.097656 366.421875 16.710938 C 369.589844 18.933594 372.535156 20.988281 372.738281 20.976563 C 374.71875 20.871094 376.667969 20.761719 378.398438 20.660156 C 378.78125 20.636719 376.308594 18.730469 374.089844 16.996094 C 372.246094 15.558594 372.765625 15.214844 374.78125 16.414063 C 377.796875 18.214844 381.484375 20.46875 381.730469 20.449219 C 383.496094 20.328125 384.617188 20.5625 384.597656 20.480469 C 383.570313 15.726563 377.238281 11.871094 369.714844 12.097656 C 361.578125 12.34375 355.117188 16.867188 355.28125 22.203125 C 355.441406 27.539063 362.164063 31.664063 370.296875 31.414063 C 377.636719 31.195313 383.679688 27.121094 384.660156 22.480469 C 384.679688 22.378906 383.59375 22.671875 381.949219 22.605469 "/>
<path style=" stroke:none;fill-rule:nonzero;fill:rgb(0%,0%,0%);fill-opacity:1;" d="M 343.644531 11.304688 C 342.507813 11.214844 341.402344 11.359375 340.382813 11.699219 C 340.65625 7.253906 337.324219 3.382813 332.863281 3.019531 C 328.453125 2.660156 324.585938 5.859375 324.0625 10.214844 C 323.066406 9.660156 321.945313 9.300781 320.742188 9.203125 C 316.222656 8.835938 312.265625 12.199219 311.894531 16.714844 C 311.582031 20.5625 313.980469 23.996094 317.488281 25.160156 C 316.5 26.394531 315.855469 27.925781 315.71875 29.621094 C 315.351563 34.140625 318.714844 38.097656 323.230469 38.46875 C 325.875 38.683594 328.320313 37.613281 329.976563 35.785156 C 331.1875 38.347656 333.691406 40.214844 336.722656 40.460938 C 341.238281 40.828125 345.199219 37.464844 345.566406 32.949219 C 345.726563 30.976563 345.175781 29.113281 344.128906 27.605469 C 347.847656 27.082031 350.84375 24.050781 351.160156 20.148438 C 351.527344 15.632813 348.164063 11.671875 343.644531 11.304688 Z M 338.910156 23.28125 C 338.554688 27.632813 334.738281 30.875 330.386719 30.519531 C 326.035156 30.164063 322.792969 26.351563 323.148438 21.996094 C 323.503906 17.644531 327.316406 14.402344 331.671875 14.757813 C 336.023438 15.113281 339.265625 18.929688 338.910156 23.28125 "/>
<path style=" stroke:none;fill-rule:nonzero;fill:rgb(0%,0%,0%);fill-opacity:1;" d="M 275.652344 19.441406 C 274.863281 17.9375 273.671875 16.777344 272.277344 16.027344 C 275.054688 13.585938 275.917969 9.488281 274.128906 6.066406 C 272.023438 2.054688 267.0625 0.503906 263.050781 2.609375 C 261.976563 3.171875 261.085938 3.941406 260.390625 4.839844 C 258.203125 1.035156 253.394531 -0.402344 249.472656 1.652344 C 245.507813 3.730469 243.953125 8.59375 245.945313 12.582031 C 244.871094 12.664063 243.800781 12.964844 242.785156 13.492188 C 238.773438 15.597656 237.222656 20.558594 239.324219 24.570313 C 241.140625 28.035156 245.085938 29.65625 248.710938 28.6875 C 248.335938 30.480469 248.558594 32.414063 249.476563 34.164063 C 251.578125 38.179688 256.539063 39.730469 260.554688 37.625 C 263.242188 36.214844 264.820313 33.519531 264.9375 30.6875 C 267.171875 31.722656 269.84375 31.75 272.191406 30.519531 C 276.207031 28.414063 277.753906 23.453125 275.652344 19.441406 Z M 262.5 26 C 258.632813 28.027344 253.851563 26.535156 251.824219 22.664063 C 249.800781 18.796875 251.289063 14.019531 255.160156 11.992188 C 259.027344 9.964844 263.808594 11.457031 265.835938 15.324219 C 267.859375 19.195313 266.367188 23.972656 262.5 26 "/>
<path style=" stroke:none;fill-rule:nonzero;fill:rgb(0%,0%,0%);fill-opacity:1;" d="M 297.886719 11.390625 C 300.84375 13.28125 304.460938 15.644531 304.710938 15.632813 C 306.476563 15.5625 307.589844 15.832031 307.574219 15.75 C 306.691406 10.96875 300.480469 6.921875 292.949219 6.921875 C 284.8125 6.921875 278.21875 11.246094 278.21875 16.585938 C 278.21875 21.921875 284.8125 26.246094 292.949219 26.246094 C 300.289063 26.246094 306.457031 22.359375 307.574219 17.75 C 307.601563 17.648438 306.503906 17.90625 304.863281 17.796875 C 304.597656 17.777344 301.339844 19.722656 298.578125 21.328125 C 296.628906 22.464844 296.183594 22.074219 297.988281 20.691406 C 299.953125 19.191406 302.003906 17.625 301.699219 17.609375 C 300.082031 17.523438 298.25 17.4375 296.371094 17.347656 C 296.164063 17.339844 293.496094 19.066406 290.988281 20.683594 C 288.789063 22.097656 287.59375 22.175781 289.539063 20.632813 C 291.484375 19.089844 294.097656 17.242188 293.875 17.230469 C 287.820313 16.949219 282.035156 16.664063 282.035156 16.417969 C 282.035156 16.238281 287.195313 16.097656 292.875 15.957031 C 293.082031 15.949219 291.070313 14.164063 288.699219 12.085938 C 285.402344 9.203125 285.882813 8.710938 289.523438 11.433594 C 292.621094 13.75 295.503906 15.894531 295.707031 15.886719 C 297.6875 15.839844 299.640625 15.792969 301.371094 15.742188 C 301.757813 15.730469 299.34375 13.746094 297.175781 11.949219 C 295.378906 10.457031 295.90625 10.128906 297.886719 11.390625 "/>
<path style=" stroke:none;fill-rule:nonzero;fill:rgb(0%,0%,0%);fill-opacity:1;" d="M 200.160156 21.058594 C 199.84375 17.160156 196.847656 14.128906 193.128906 13.605469 C 194.175781 12.097656 194.726563 10.230469 194.566406 8.261719 C 194.199219 3.742188 190.238281 0.378906 185.722656 0.746094 C 182.691406 0.992188 180.1875 2.859375 178.976563 5.421875 C 177.320313 3.597656 174.875 2.527344 172.230469 2.742188 C 167.714844 3.109375 164.351563 7.070313 164.71875 11.585938 C 164.855469 13.28125 165.5 14.8125 166.488281 16.046875 C 162.980469 17.210938 160.582031 20.644531 160.894531 24.492188 C 161.265625 29.011719 165.222656 32.375 169.742188 32.007813 C 170.945313 31.90625 172.066406 31.546875 173.0625 30.992188 C 173.585938 35.347656 177.453125 38.550781 181.863281 38.191406 C 186.324219 37.828125 189.65625 33.957031 189.382813 29.507813 C 190.402344 29.851563 191.507813 29.996094 192.644531 29.902344 C 197.164063 29.535156 200.527344 25.574219 200.160156 21.058594 Z M 180.671875 26.449219 C 176.316406 26.804688 172.503906 23.5625 172.148438 19.210938 C 171.792969 14.859375 175.035156 11.042969 179.386719 10.6875 C 183.738281 10.335938 187.554688 13.574219 187.910156 17.929688 C 188.265625 22.28125 185.023438 26.097656 180.671875 26.449219 "/>
<path style=" stroke:none;fill-rule:nonzero;fill:rgb(0%,0%,0%);fill-opacity:1;" d="M 230.90625 22.574219 C 230.65625 22.566406 227.039063 24.929688 224.078125 26.816406 C 222.105469 28.078125 221.574219 27.75 223.371094 26.261719 C 225.539063 24.460938 227.953125 22.476563 227.566406 22.464844 C 225.835938 22.414063 223.886719 22.367188 221.902344 22.320313 C 221.699219 22.316406 218.816406 24.460938 215.71875 26.777344 C 212.078125 29.5 211.597656 29.007813 214.894531 26.121094 C 217.265625 24.046875 219.277344 22.257813 219.070313 22.253906 C 213.390625 22.113281 208.230469 21.96875 208.230469 21.789063 C 208.230469 21.542969 214.015625 21.261719 220.070313 20.976563 C 220.292969 20.96875 217.679688 19.117188 215.734375 17.578125 C 213.789063 16.035156 214.988281 16.109375 217.183594 17.527344 C 219.691406 19.140625 222.359375 20.871094 222.566406 20.859375 C 224.445313 20.773438 226.277344 20.6875 227.894531 20.601563 C 228.199219 20.585938 226.148438 19.019531 224.183594 17.515625 C 222.378906 16.132813 222.824219 15.746094 224.773438 16.882813 C 227.535156 18.488281 230.796875 20.429688 231.058594 20.414063 C 232.699219 20.300781 233.796875 20.558594 233.769531 20.457031 C 232.652344 15.847656 226.488281 11.960938 219.144531 11.960938 C 211.011719 11.960938 204.414063 16.285156 204.414063 21.625 C 204.414063 26.960938 211.011719 31.289063 219.144531 31.289063 C 226.675781 31.289063 232.886719 27.242188 233.769531 22.457031 C 233.785156 22.378906 232.671875 22.644531 230.90625 22.574219 "/>
<path style=" stroke:none;fill-rule:nonzero;fill:rgb(0%,0%,0%);fill-opacity:1;" d="M 119.191406 9.691406 C 116.84375 8.460938 114.171875 8.488281 111.9375 9.519531 C 111.820313 6.6875 110.242188 3.992188 107.554688 2.582031 C 103.539063 0.480469 98.578125 2.027344 96.476563 6.042969 C 95.558594 7.796875 95.335938 9.726563 95.710938 11.523438 C 92.085938 10.550781 88.140625 12.171875 86.328125 15.636719 C 84.222656 19.652344 85.773438 24.609375 89.785156 26.714844 C 90.800781 27.246094 91.875 27.542969 92.945313 27.628906 C 90.957031 31.613281 92.507813 36.480469 96.472656 38.558594 C 100.394531 40.609375 105.203125 39.175781 107.390625 35.371094 C 108.085938 36.269531 108.976563 37.039063 110.050781 37.601563 C 114.0625 39.703125 119.023438 38.15625 121.128906 34.140625 C 122.917969 30.722656 122.054688 26.621094 119.277344 24.183594 C 120.671875 23.433594 121.863281 22.273438 122.652344 20.769531 C 124.753906 16.753906 123.207031 11.792969 119.191406 9.691406 Z M 112.835938 24.882813 C 110.808594 28.75 106.027344 30.242188 102.160156 28.21875 C 98.292969 26.191406 96.800781 21.410156 98.824219 17.542969 C 100.851563 13.675781 105.632813 12.183594 109.5 14.210938 C 113.367188 16.234375 114.859375 21.015625 112.835938 24.882813 "/>
<path style=" stroke:none;fill-rule:nonzero;fill:rgb(0%,0%,0%);fill-opacity:1;" d="M 141.949219 33.289063 C 149.480469 33.289063 155.691406 29.242188 156.574219 24.457031 C 156.589844 24.378906 155.476563 24.644531 153.710938 24.574219 C 153.460938 24.566406 149.84375 26.929688 146.886719 28.816406 C 144.90625 30.078125 144.378906 29.75 146.175781 28.261719 C 148.34375 26.460938 150.757813 24.476563 150.371094 24.464844 C 148.640625 24.414063 146.6875 24.367188 144.707031 24.320313 C 144.503906 24.316406 141.621094 26.460938 138.523438 28.777344 C 134.882813 31.5 134.402344 31.007813 137.699219 28.121094 C 140.070313 26.046875 142.082031 24.257813 141.875 24.253906 C 136.195313 24.113281 131.035156 23.96875 131.035156 23.789063 C 131.035156 23.542969 136.820313 23.261719 142.875 22.976563 C 143.097656 22.96875 140.484375 21.117188 138.539063 19.578125 C 136.59375 18.035156 137.789063 18.109375 139.988281 19.527344 C 142.496094 21.140625 145.164063 22.871094 145.371094 22.859375 C 147.25 22.773438 149.082031 22.6875 150.699219 22.601563 C 151.003906 22.585938 148.953125 21.019531 146.988281 19.515625 C 145.183594 18.132813 145.628906 17.746094 147.578125 18.882813 C 150.339844 20.488281 153.597656 22.429688 153.863281 22.414063 C 155.503906 22.300781 156.601563 22.558594 156.574219 22.457031 C 155.457031 17.847656 149.289063 13.960938 141.949219 13.960938 C 133.8125 13.960938 127.21875 18.285156 127.21875 23.625 C 127.21875 28.960938 133.8125 33.289063 141.949219 33.289063 "/>
<path style=" stroke:none;fill-rule:nonzero;fill:rgb(0%,0%,0%);fill-opacity:1;" d="M 39.648438 13.960938 C 38.507813 13.867188 37.402344 14.011719 36.382813 14.355469 C 36.65625 9.90625 33.324219 6.035156 28.863281 5.671875 C 24.453125 5.3125 20.585938 8.515625 20.0625 12.867188 C 19.066406 12.316406 17.949219 11.953125 16.742188 11.855469 C 12.222656 11.488281 8.261719 14.851563 7.894531 19.367188 C 7.582031 23.214844 9.980469 26.648438 13.488281 27.8125 C 12.5 29.046875 11.855469 30.578125 11.71875 32.273438 C 11.351563 36.792969 14.714844 40.753906 19.230469 41.117188 C 21.875 41.335938 24.320313 40.265625 25.976563 38.441406 C 27.191406 41.003906 29.695313 42.867188 32.722656 43.113281 C 37.238281 43.480469 41.199219 40.117188 41.566406 35.601563 C 41.726563 33.628906 41.175781 31.765625 40.128906 30.257813 C 43.847656 29.734375 46.84375 26.699219 47.160156 22.804688 C 47.527344 18.285156 44.164063 14.324219 39.648438 13.960938 Z M 34.910156 25.933594 C 34.554688 30.285156 30.738281 33.527344 26.386719 33.171875 C 22.035156 32.820313 18.792969 29.003906 19.148438 24.648438 C 19.5 20.296875 23.316406 17.058594 27.667969 17.410156 C 32.023438 17.765625 35.265625 21.582031 34.910156 25.933594 "/>
<path style=" stroke:none;fill-rule:nonzero;fill:rgb(0%,0%,0%);fill-opacity:1;" d="M 407.46875 48.578125 C 402.714844 49.605469 398.855469 55.9375 399.085938 63.464844 C 399.332031 71.597656 403.855469 78.058594 409.191406 77.894531 C 414.523438 77.734375 418.648438 71.011719 418.402344 62.878906 C 418.179688 55.539063 414.105469 49.496094 409.46875 48.519531 C 409.363281 48.496094 409.65625 49.582031 409.59375 51.226563 C 409.585938 51.492188 411.625 54.691406 413.3125 57.402344 C 414.507813 59.316406 414.132813 59.773438 412.699219 58.011719 C 411.136719 56.09375 409.511719 54.089844 409.503906 54.394531 C 409.464844 56.015625 409.433594 57.847656 409.402344 59.730469 C 409.398438 59.9375 411.210938 62.550781 412.898438 65.007813 C 414.382813 67.160156 414.492188 68.355469 412.894531 66.460938 C 411.292969 64.5625 409.367188 62.007813 409.363281 62.226563 C 409.265625 68.289063 409.15625 74.078125 408.90625 74.089844 C 408.730469 74.09375 408.429688 68.941406 408.117188 63.265625 C 408.105469 63.058594 406.382813 65.121094 404.378906 67.558594 C 401.59375 70.941406 401.085938 70.476563 403.695313 66.753906 C 405.921875 63.585938 407.976563 60.640625 407.964844 60.4375 C 407.855469 58.457031 407.75 56.507813 407.648438 54.78125 C 407.625 54.394531 405.714844 56.867188 403.980469 59.089844 C 402.546875 60.929688 402.203125 60.410156 403.402344 58.398438 C 405.203125 55.382813 407.453125 51.691406 407.4375 51.445313 C 407.3125 49.683594 407.546875 48.5625 407.46875 48.578125 "/>
</g>
</svg>
