<?xml version="1.0" encoding="UTF-8"?>
<svg xmlns="http://www.w3.org/2000/svg" xmlns:xlink="http://www.w3.org/1999/xlink" width="529pt" height="533pt" viewBox="0 0 529 533" version="1.1">
<g id="surface1">
<path style=" stroke:none;fill-rule:nonzero;fill:rgb(0%,0%,0%);fill-opacity:1;" d="M 460.84375 94.589844 C 457.144531 96.1875 457.34375 100.1875 456.046875 103.289063 C 447.902344 106.34375 443.867188 111.867188 444.691406 119.464844 C 446.257813 133.890625 461.429688 140.191406 471.644531 128.1875 C 474.34375 129.589844 478.046875 129.890625 480.546875 127.988281 C 490.4375 136.703125 503.636719 132.363281 507.167969 122.480469 C 510.203125 113.976563 505.242188 104.222656 494.046875 102.089844 C 494.046875 102.089844 494.132813 96.335938 489.945313 95.589844 C 493.460938 86.28125 487.808594 76.953125 478.84375 74.488281 C 468.582031 73.023438 457.828125 79.511719 460.84375 94.589844 Z M 500.746094 108.988281 C 494.808594 107.113281 492.394531 115.578125 496.796875 117.71875 C 497.523438 118.074219 500.246094 118.1875 500.246094 118.1875 C 496.609375 122.484375 487.378906 120.890625 483.644531 114.589844 C 485.21875 112.652344 484.703125 109.804688 485.402344 107.898438 C 488.785156 105.820313 496.5625 104.523438 500.746094 108.988281 Z M 488.945313 98.1875 C 490.546875 98.890625 490.84375 100.488281 490.644531 102.089844 C 488.046875 102.390625 485.746094 103.488281 483.445313 104.488281 L 482.679688 103.589844 Z M 463.246094 129.890625 C 466.394531 124.769531 457.066406 119.605469 455.144531 124.890625 C 451.703125 116.710938 461.789063 112.933594 468.34375 113.089844 C 469.046875 114.6875 470.546875 116.390625 472.144531 117.1875 C 472.144531 127.617188 463.246094 129.890625 463.246094 129.890625 Z M 473.644531 125.390625 C 474.546875 123.390625 474.945313 120.6875 475.546875 118.390625 L 476.878906 118.222656 C 477.277344 120.722656 477.34375 123.1875 478.445313 125.390625 C 475.546875 126.890625 473.644531 125.390625 473.644531 125.390625 Z M 479.214844 109.140625 C 479.214844 111.027344 477.683594 112.558594 475.796875 112.558594 C 473.90625 112.558594 472.378906 111.027344 472.378906 109.140625 C 472.378906 107.253906 473.90625 105.722656 475.796875 105.722656 C 477.683594 105.722656 479.214844 107.253906 479.214844 109.140625 Z M 464.246094 86.1875 C 466.304688 92.367188 474.941406 89.464844 473.34375 83.089844 C 480.019531 87.195313 479.859375 95.660156 476.445313 100.390625 C 475.046875 100.988281 473.46875 101.363281 471.957031 101.226563 C 468.191406 100.882813 461.320313 93.425781 464.246094 86.1875 Z M 469.246094 104.1875 L 468.84375 104.6875 C 466.246094 103.390625 462.8125 102.222656 459.710938 102.222656 C 460.046875 100.222656 461.144531 98.988281 462.046875 97.488281 C 464.046875 100.390625 466.644531 102.488281 469.246094 104.1875 "/>
<path style=" stroke:none;fill-rule:nonzero;fill:rgb(0%,0%,0%);fill-opacity:1;" d="M 470.269531 501.160156 C 470.269531 501.160156 470.355469 495.410156 466.167969 494.660156 C 469.683594 485.351563 464.03125 476.027344 455.066406 473.5625 C 444.804688 472.09375 434.054688 478.582031 437.066406 493.660156 C 433.367188 495.261719 433.566406 499.261719 432.269531 502.359375 C 424.125 505.414063 420.089844 510.9375 420.914063 518.535156 C 422.480469 532.960938 437.652344 539.265625 447.867188 527.261719 C 450.566406 528.660156 454.269531 528.960938 456.769531 527.0625 C 466.660156 535.777344 479.855469 531.4375 483.390625 521.550781 C 486.429688 513.046875 481.464844 503.292969 470.269531 501.160156 Z M 440.46875 485.261719 C 442.527344 491.4375 451.164063 488.535156 449.566406 482.160156 C 456.242188 486.269531 456.085938 494.730469 452.667969 499.460938 C 451.269531 500.0625 449.691406 500.4375 448.179688 500.296875 C 444.414063 499.957031 437.539063 492.5 440.46875 485.261719 Z M 438.269531 496.5625 C 440.269531 499.460938 442.867188 501.5625 445.46875 503.261719 L 445.066406 503.761719 C 442.46875 502.460938 439.035156 501.292969 435.933594 501.292969 C 436.269531 499.292969 437.367188 498.0625 438.269531 496.5625 Z M 439.46875 528.960938 C 442.617188 523.84375 433.289063 518.675781 431.367188 523.960938 C 427.925781 515.785156 438.011719 512.003906 444.566406 512.160156 C 445.269531 513.761719 446.769531 515.460938 448.367188 516.261719 C 448.367188 526.6875 439.46875 528.960938 439.46875 528.960938 Z M 449.867188 524.460938 C 450.769531 522.460938 451.167969 519.761719 451.769531 517.460938 L 453.101563 517.292969 C 453.5 519.792969 453.566406 522.261719 454.667969 524.460938 C 451.769531 525.960938 449.867188 524.460938 449.867188 524.460938 Z M 452.019531 511.628906 C 450.128906 511.628906 448.601563 510.097656 448.601563 508.210938 C 448.601563 506.324219 450.128906 504.792969 452.019531 504.792969 C 453.90625 504.792969 455.4375 506.324219 455.4375 508.210938 C 455.4375 510.097656 453.90625 511.628906 452.019531 511.628906 Z M 458.902344 502.660156 L 465.167969 497.261719 C 466.769531 497.960938 467.066406 499.5625 466.867188 501.160156 C 464.269531 501.460938 461.96875 502.5625 459.667969 503.5625 Z M 473.019531 516.792969 C 473.746094 517.144531 476.46875 517.261719 476.46875 517.261719 C 472.832031 521.558594 463.601563 519.960938 459.867188 513.660156 C 461.441406 511.726563 460.929688 508.875 461.628906 506.96875 C 465.007813 504.890625 472.785156 503.597656 476.96875 508.0625 C 471.03125 506.1875 468.617188 514.652344 473.019531 516.792969 "/>
<path style=" stroke:none;fill-rule:nonzero;fill:rgb(0%,0%,0%);fill-opacity:1;" d="M 520.84375 398.1875 C 506.546875 386.554688 489.566406 393.929688 484.144531 409.289063 C 481.511719 418.882813 489.035156 429.21875 499.546875 427.554688 C 513.710938 422.835938 506.871094 409.335938 502.546875 408.890625 C 498.835938 408.507813 495.644531 411.890625 495.644531 411.890625 C 494.746094 409.1875 496.046875 406.589844 498.34375 405.1875 C 504.414063 401.746094 515.675781 402.886719 516.546875 417.6875 C 517.621094 461.054688 460.183594 461.800781 433.046875 445.488281 C 440.496094 429.425781 439.945313 408.0625 429.945313 392.6875 C 435.84375 390.789063 441.945313 389.089844 447.445313 386.1875 C 452.546875 385.488281 457.644531 384.390625 461.144531 380.1875 C 463.644531 381.890625 467.746094 381.1875 470.046875 379.988281 C 478.664063 386.839844 490.613281 384.140625 495.089844 376.617188 C 499.851563 368.613281 494.546875 352.554688 482.945313 353.589844 C 482.644531 351.1875 481.644531 348.1875 478.84375 347.589844 C 480.644531 341.890625 480.246094 334.6875 475.546875 330.488281 C 468.140625 323.527344 447.285156 325.105469 448.878906 344.554688 C 446.210938 346.890625 445.210938 349.890625 445.746094 354.789063 C 438.753906 357.121094 430.351563 364.558594 434.945313 376.890625 C 430.84375 380.089844 426.980469 380.988281 421.878906 381.890625 C 403.363281 366.921875 369.070313 351.035156 325.746094 343.6875 C 332.84375 320.089844 351.746094 294.789063 375.945313 286.1875 C 384.046875 340.558594 436.003906 348.921875 454.507813 323.945313 C 465.335938 309.332031 464.160156 287.539063 441.445313 274.589844 C 446.546875 269.890625 452.84375 267.1875 459.445313 266.6875 C 459.273438 272.683594 461.816406 278.753906 466.683594 282.015625 C 472.640625 286.003906 480.804688 284.992188 486.84375 278.6875 C 488.128906 279.570313 491.320313 279.566406 494.121094 278.621094 C 495.441406 278.171875 496.671875 278.855469 497.90625 279.800781 C 504.632813 284.953125 517.464844 282.445313 521.253906 274.398438 C 526.101563 264.101563 520.53125 254.269531 508.84375 252.289063 C 508.34375 249.6875 507.746094 246.988281 504.84375 246.089844 C 508.246094 235.886719 503.578125 228.390625 495.945313 225.6875 C 486.441406 222.25 471.660156 229.039063 475.746094 245.089844 C 473.84375 246.089844 472.445313 248.089844 471.644531 249.890625 C 454.445313 249.089844 440.546875 256.988281 428.746094 268.890625 C 417.046875 263.890625 384.546875 267.390625 384.546875 267.390625 C 388.296875 243.113281 398.832031 220.5 418.988281 204.363281 C 435.234375 191.355469 467.59375 180.421875 480.34375 193.988281 C 480.546875 194.988281 481.046875 196.6875 479.84375 197.390625 C 478.269531 192.230469 471.292969 188.605469 466.800781 194.933594 C 462.699219 200.710938 466.386719 212.332031 479.707031 211.527344 C 497.710938 210.4375 502.886719 189.0625 485.644531 181.289063 C 469.515625 174.222656 448.117188 177.964844 436.445313 180.789063 C 430.195313 157.480469 428.808594 130.023438 439.835938 108.535156 C 459.527344 70.171875 476.953125 30.835938 444.546875 7.789063 C 421.117188 -9.273438 396.71875 6.371094 398.246094 28.390625 C 396.546875 31.289063 395.546875 34.390625 394.644531 37.488281 C 391.644531 38.1875 388.84375 39.6875 387.644531 42.789063 L 382.84375 42.988281 C 373.597656 44.621094 367.769531 51.613281 370.359375 62.265625 C 372.355469 70.472656 385.285156 76.664063 393.644531 71.789063 C 394.84375 74.789063 398.246094 74.589844 400.84375 75.1875 C 402.777344 84.125 413.273438 90.441406 422.046875 84.789063 C 432.894531 77.800781 433.554688 65.035156 423.445313 56.988281 C 423.445313 56.988281 424.34375 49.988281 422.246094 48.089844 C 431.839844 37.296875 425.40625 24.203125 411.945313 22.589844 C 413.65625 17.597656 425.65625 8.882813 435.246094 20.488281 C 454.246094 48.1875 436.84375 81.589844 424.144531 106.589844 C 411.75 131.503906 408.476563 162.953125 418.84375 188.988281 C 411.246094 193.1875 404.84375 199.488281 398.246094 205.988281 C 395.746094 203.390625 393.046875 201.589844 390.046875 199.988281 C 393.261719 192.753906 385.695313 181.121094 376.644531 179.589844 C 376.644531 179.589844 376.878906 174.890625 372.84375 173.589844 C 375.339844 162.550781 368.644531 153.433594 360.554688 152.160156 C 351.015625 150.664063 339.519531 159.644531 343.546875 172.390625 C 340.34375 173.988281 339.644531 177.589844 339.246094 180.789063 C 333.703125 182.570313 326.199219 189.71875 327.644531 199.289063 C 330.058594 212.96875 346.320313 216.019531 354.546875 205.988281 C 357.144531 207.488281 360.945313 207.589844 363.445313 205.789063 C 368.144531 209.988281 374.84375 212.789063 380.945313 209.789063 C 384.445313 211.488281 387.746094 213.890625 390.34375 217.289063 C 381.046875 233.289063 375.746094 250.988281 375.445313 270.789063 C 342.15625 282.398438 318.589844 310.859375 312.546875 342.289063 C 305.84375 341.6875 298.34375 341.488281 291.945313 341.589844 C 292.84375 337.289063 293.144531 332.1875 292.644531 327.890625 C 300.558594 330.152344 312.125 325 314.023438 317.59375 C 316.734375 307.007813 307.941406 298.949219 300.546875 298.390625 C 300.046875 295.789063 299.144531 292.6875 296.445313 291.6875 C 299.523438 281.339844 293.703125 273.328125 286.144531 270.988281 C 274.089844 268.285156 262.765625 277.789063 267.246094 290.988281 C 265.429688 292.386719 263.546875 295.554688 262.644531 299.289063 C 254.640625 301.902344 249.882813 309.21875 251.359375 317.316406 C 252.578125 323.996094 263.789063 332.957031 274.84375 327.890625 C 276.246094 332.488281 274.84375 343.988281 274.84375 343.988281 C 242.152344 349.574219 192.769531 373.902344 181.34375 417.390625 C 173.046875 415.488281 162.746094 415.988281 154.144531 416.890625 C 152.144531 413.890625 151.144531 409.988281 151.34375 406.390625 C 157.097656 411.617188 170.640625 410.570313 175.34375 404.6875 C 180.238281 397.699219 177.484375 382.15625 164.246094 379.988281 C 164.628906 377.300781 162.316406 374.488281 160.144531 373.6875 C 164.324219 364.578125 156.730469 353.886719 148.515625 352.382813 C 140.527344 350.921875 127.371094 355.457031 130.945313 372.988281 C 127.945313 374.1875 127.046875 377.789063 126.84375 380.890625 C 121.945313 382.589844 116.445313 385.988281 115.34375 391.488281 C 112.28125 407.050781 124.410156 415.019531 137.144531 410.488281 C 136.84375 414.089844 137.84375 417.089844 138.546875 420.289063 C 119.546875 425.1875 103.34375 436.988281 87.246094 449.089844 C 68.746094 461.789063 45.144531 473.488281 21.945313 462.988281 C 9.609375 456.585938 13.648438 442.613281 19.546875 438.789063 L 20.746094 441.890625 C 23.894531 448.972656 36.320313 456.761719 46.445313 444.988281 C 48.144531 445.789063 49.84375 446.488281 51.945313 446.1875 C 54.246094 444.140625 56.144531 445.140625 58.082031 446.601563 C 64.589844 451.515625 78.414063 448.113281 81.75 439.636719 C 85.226563 430.800781 78.210938 419.675781 68.945313 418.890625 C 68.34375 416.390625 67.746094 412.988281 64.644531 412.390625 C 68.753906 401.65625 63.390625 393.929688 54.144531 391.289063 C 42.394531 389.234375 30.609375 396.410156 35.644531 410.890625 C 32.144531 412.6875 31.746094 416.488281 31.046875 419.789063 C 28.046875 420.589844 25.34375 422.089844 22.945313 424.390625 C 4.273438 426.179688 -5.667969 446.085938 3.945313 464.6875 C 16.832031 490.210938 60.757813 487.84375 112.644531 450.089844 C 130.144531 436.289063 153.546875 435.488281 176.746094 436.890625 C 175.746094 446.488281 175.445313 455.988281 176.945313 465.1875 C 170.503906 464.199219 155.878906 464.890625 148.945313 467.289063 C 146.757813 458.171875 135.375 455.554688 131.199219 456.140625 C 123.671875 457.199219 115.734375 465.855469 119.144531 476.488281 C 115.945313 478.089844 115.246094 481.6875 114.84375 484.890625 L 109.046875 487.488281 C 104.546875 490.34375 102.667969 495.144531 102.824219 500.207031 C 103.3125 515.921875 118.882813 521.550781 130.144531 510.289063 C 132.746094 511.789063 136.546875 511.890625 139.046875 510.089844 L 142.144531 512.488281 C 146.207031 515.324219 157.839844 515.148438 162.164063 510.179688 C 170.28125 500.855469 165.460938 486.769531 154.109375 484.613281 C 152.394531 484.289063 151.144531 483.640625 152.046875 480.988281 C 161.144531 476.390625 172.445313 476.488281 182.546875 479.089844 C 185.015625 484.785156 197.484375 495.066406 213.566406 493.046875 C 229.9375 490.988281 230.496094 474.636719 223.773438 469.265625 C 218.566406 465.109375 209.621094 470.496094 212.046875 479.589844 C 187.714844 482.050781 180.175781 443.226563 199.746094 407.589844 C 214.945313 407.988281 229.945313 409.988281 242.445313 417.390625 C 230.882813 424.429688 229.273438 431.960938 234.84375 440.914063 C 240.683594 450.304688 250.507813 452.046875 259.746094 442.390625 C 261.144531 443.589844 265.527344 442.925781 265.855469 442.703125 C 267.65625 441.472656 269.199219 442.289063 270.734375 443.515625 C 275.5625 447.378906 287.972656 447.890625 292.84375 440.6875 C 299.769531 430.457031 294.109375 418.152344 281.84375 415.988281 C 281.746094 413.988281 279.046875 409.289063 277.546875 407.890625 C 280.296875 400.183594 275.925781 391.0625 267.226563 388.832031 C 258.851563 386.683594 246.117188 392.171875 248.046875 406.890625 C 235.644531 400.089844 221.144531 396.988281 206.246094 397.6875 C 223.433594 375.347656 251.308594 361.632813 282.257813 355.789063 C 299.246094 352.582031 309.878906 353.890625 309.878906 353.890625 C 305.710938 381.695313 306.382813 412.363281 333.945313 443.789063 C 328.144531 448.890625 319.878906 460.554688 319.046875 468.089844 C 313.078125 469.695313 306.265625 477.359375 309.445313 487.6875 C 306.445313 489.488281 305.144531 492.789063 305.144531 496.089844 C 293.808594 500.089844 290.046875 510.640625 295.148438 519.589844 C 300.367188 528.75 314.21875 528.316406 320.746094 521.789063 C 323.246094 523.488281 327.246094 522.890625 329.644531 521.289063 C 335.574219 528.109375 350.769531 525.65625 354.757813 518.179688 C 359.773438 508.78125 352.339844 496.242188 342.84375 495.1875 C 342.144531 492.789063 341.546875 489.789063 338.746094 488.890625 C 340.992188 482.734375 341.308594 476.898438 332.746094 469.289063 C 333.84375 462.789063 338.144531 455.589844 344.746094 453.390625 C 366.9375 470.585938 406.675781 475.746094 426.046875 456.488281 C 448.976563 467.800781 485.640625 466.316406 504.179688 457.816406 C 529.789063 446.070313 534.039063 408.921875 520.84375 398.1875 Z M 489.644531 360.789063 C 480.921875 359.046875 481.871094 370.824219 489.246094 370.089844 C 483.691406 375.113281 478.066406 373.121094 472.644531 366.289063 C 473.746094 364.390625 474.546875 362.089844 473.84375 359.789063 C 479.832031 356.046875 484.679688 356.175781 489.644531 360.789063 Z M 477.945313 350.1875 C 479.445313 350.890625 479.644531 352.390625 479.84375 353.789063 C 477.34375 354.589844 474.84375 355.089844 472.644531 356.488281 L 472.144531 355.988281 C 473.945313 354.1875 476.644531 352.589844 477.945313 350.1875 Z M 463.246094 377.789063 C 463.210938 375.890625 464.246094 371.554688 464.546875 370.054688 L 465.710938 370.054688 L 467.34375 377.289063 C 466.34375 378.1875 464.445313 378.789063 463.246094 377.789063 Z M 464.328125 363.273438 C 462.269531 363.273438 460.597656 361.636719 460.597656 359.617188 C 460.597656 357.601563 462.269531 355.964844 464.328125 355.964844 C 466.390625 355.964844 468.0625 357.601563 468.0625 359.617188 C 468.0625 361.636719 466.390625 363.273438 464.328125 363.273438 Z M 453.246094 338.1875 C 455.9375 345.375 464.382813 342.21875 462.34375 335.089844 C 469.691406 339.457031 468.835938 346.65625 465.445313 352.589844 C 463.878906 352.554688 461.710938 352.890625 460.445313 353.289063 C 450.019531 347.695313 453.246094 338.1875 453.246094 338.1875 Z M 451.046875 349.488281 C 452.945313 351.789063 455.546875 354.390625 458.246094 355.6875 L 458.246094 356.488281 C 455.644531 355.6875 452.945313 353.988281 449.644531 354.289063 C 448.84375 352.488281 450.046875 350.890625 451.046875 349.488281 Z M 457.246094 364.890625 C 458.445313 366.390625 459.546875 368.289063 461.34375 369.1875 C 461.144531 374.089844 458.746094 378.890625 454.144531 381.1875 L 452.445313 381.6875 C 455.753906 374.660156 448.328125 373.085938 444.046875 376.890625 C 442.824219 370.539063 449.546875 365.4375 457.246094 364.890625 Z M 515.34375 258.988281 C 508.660156 258.988281 508.691406 270.125 514.84375 268.589844 C 510.851563 273.0625 503.628906 269.871094 498.546875 264.789063 C 499.84375 262.890625 500.144531 260.089844 500.046875 258.089844 C 505.246094 254.898438 512.15625 255.53125 515.34375 258.988281 Z M 503.84375 248.6875 C 505.246094 249.289063 505.644531 250.6875 505.746094 252.089844 C 503.644531 253.1875 500.746094 253.488281 498.546875 254.988281 L 498.046875 254.488281 C 499.84375 252.6875 502.546875 251.089844 503.84375 248.6875 Z M 345.105469 176.042969 C 346.929688 178.589844 348.675781 180 351.441406 181.589844 C 351.441406 181.589844 350.855469 182.585938 350.539063 182.824219 C 347.964844 180.851563 344.789063 180.378906 341.910156 179.988281 C 342.179688 177.992188 343.414063 176.273438 345.105469 176.042969 Z M 343.882813 208.386719 C 348.480469 203.21875 341.691406 196.609375 336.714844 201.847656 C 336.699219 196.175781 344.011719 190.800781 350.515625 190.898438 C 351.484375 192.007813 352.832031 192.828125 354.046875 193.890625 C 353.984375 203.402344 349.453125 207.984375 343.882813 208.386719 Z M 354.730469 183.519531 C 355.902344 181.785156 358.320313 181.375 360.132813 182.597656 C 361.945313 183.824219 362.464844 186.222656 361.292969 187.957031 C 360.121094 189.6875 357.703125 190.101563 355.890625 188.875 C 354.078125 187.648438 353.558594 185.253906 354.730469 183.519531 Z M 357.363281 203.40625 C 358.734375 201.472656 358.800781 198.757813 359.519531 196.433594 L 360.210938 196.523438 L 362.414063 203.382813 C 360.96875 205.105469 358.855469 204.3125 357.363281 203.40625 Z M 359.617188 177.425781 C 357.714844 177.683594 354.765625 178.128906 353.085938 178.988281 C 350.054688 176.007813 346.328125 168.808594 347.71875 165.160156 C 351.167969 171.917969 360.183594 166.871094 355.707031 159.96875 C 361.179688 161.304688 366.226563 168.324219 359.617188 177.425781 Z M 170.945313 386.890625 C 163.765625 386.132813 162.941406 397.609375 170.546875 396.289063 C 164.894531 401 159.019531 398.289063 153.945313 392.488281 C 157.144531 389.988281 156.378906 386.222656 155.546875 384.222656 C 159.746094 383.023438 167.945313 383.789063 170.945313 386.890625 Z M 159.246094 376.390625 C 160.144531 376.6875 161.277344 379.089844 161.878906 379.890625 C 159.378906 380.890625 154.046875 382.722656 154.046875 382.722656 L 153.445313 382.089844 C 153.445313 382.089844 157.84375 378.6875 159.246094 376.390625 Z M 75.445313 425.589844 C 68.886719 424.859375 68.070313 435.871094 74.945313 434.890625 C 69.863281 441.125 62.105469 435.863281 58.445313 431.289063 C 60.414063 429.390625 60.546875 426.554688 60.222656 423.832031 C 65.546875 421.054688 72.34375 422.488281 75.445313 425.589844 Z M 63.445313 414.988281 C 64.746094 414.890625 65.710938 416.722656 66.046875 418.390625 L 58.445313 421.289063 L 57.945313 420.789063 C 59.644531 418.988281 62.546875 417.488281 63.445313 414.988281 Z M 48.546875 442.390625 L 50.246094 434.890625 C 51.210938 434.890625 52.210938 439.222656 53.144531 442.089844 C 52.046875 442.988281 48.546875 442.390625 48.546875 442.390625 Z M 50.378906 429.054688 C 48.554688 429.054688 47.078125 427.523438 47.078125 425.636719 C 47.078125 423.75 48.554688 422.21875 50.378906 422.21875 C 52.203125 422.21875 53.679688 423.75 53.679688 425.636719 C 53.679688 427.523438 52.203125 429.054688 50.378906 429.054688 Z M 38.945313 402.789063 C 40.367188 409.195313 49.3125 406.117188 48.144531 399.890625 C 55.898438 404.25 53.78125 411.894531 51.246094 417.390625 C 49.34375 417.1875 47.710938 417.554688 46.144531 418.089844 C 39.480469 414.230469 35.300781 408.460938 38.945313 402.789063 Z M 36.546875 414.089844 C 38.246094 416.890625 41.644531 418.890625 44.046875 420.988281 L 43.546875 421.488281 C 40.945313 420.289063 38.34375 418.789063 35.144531 419.089844 C 34.144531 417.089844 35.746094 415.589844 36.546875 414.089844 Z M 42.84375 429.6875 C 42.84375 429.6875 44.546875 432.222656 46.539063 433.40625 C 47.046875 437.859375 43.734375 445.117188 38.246094 446.488281 C 39.558594 439.921875 34.277344 437.054688 29.644531 441.6875 C 27.984375 436.886719 34.496094 430.246094 42.84375 429.6875 Z M 122.746094 467.789063 C 123.613281 474.742188 134.765625 471.519531 131.644531 464.890625 C 137.703125 468.207031 137.777344 479.839844 134.546875 482.6875 C 132.546875 482.488281 130.546875 483.890625 129.246094 483.1875 C 122.390625 479.496094 118.902344 473.28125 122.746094 467.789063 Z M 120.34375 479.289063 C 122.246094 481.988281 124.945313 484.589844 127.746094 486.089844 L 127.34375 486.488281 C 124.546875 485.6875 122.144531 484.089844 118.945313 484.390625 C 118.046875 482.488281 119.246094 480.789063 120.34375 479.289063 Z M 121.546875 511.6875 C 122.378906 508.722656 121.5 504.523438 117.546875 504.890625 C 115.347656 505.09375 113.144531 506.890625 113.144531 506.890625 C 110.980469 498.011719 120.542969 494.890625 126.546875 494.890625 C 127.144531 496.6875 129.144531 498.289063 130.644531 499.289063 C 129.289063 510.574219 121.546875 511.6875 121.546875 511.6875 Z M 132.144531 507.6875 C 132.644531 505.1875 133.945313 502.988281 133.746094 500.1875 L 134.746094 500.1875 C 135.445313 502.589844 135.144531 505.289063 136.945313 507.1875 C 135.210938 508.722656 132.144531 507.6875 132.144531 507.6875 Z M 133.929688 493.546875 C 131.753906 493.546875 129.992188 491.777344 129.992188 489.589844 C 129.992188 487.402344 131.753906 485.628906 133.929688 485.628906 C 136.101563 485.628906 137.863281 487.402344 137.863281 489.589844 C 137.863281 491.777344 136.101563 493.546875 133.929688 493.546875 Z M 288.546875 422.890625 C 280.953125 422.089844 280.160156 432.664063 288.046875 432.289063 C 282.476563 438.121094 275.171875 433.523438 271.546875 428.6875 C 273.59375 426.5 273.378906 423.890625 273.265625 421.316406 C 281.210938 417.890625 285.445313 419.789063 288.546875 422.890625 Z M 270.546875 417.890625 C 272.445313 416.789063 275.445313 414.289063 276.546875 412.390625 C 277.84375 412.789063 278.34375 413.789063 278.746094 414.988281 L 278.746094 415.988281 C 276.144531 416.589844 273.746094 417.589844 271.246094 418.589844 C 270.84375 418.289063 270.144531 418.1875 270.546875 417.890625 Z M 436.445313 379.6875 C 436.84375 380.390625 437.296875 381.015625 437.84375 381.6875 C 433.644531 383.890625 429.621094 385.914063 424.921875 386.015625 C 424.621094 385.414063 424.046875 384.863281 423.546875 384.265625 Z M 488.445313 275.789063 C 489.445313 273.589844 490.445313 271.289063 490.445313 268.589844 L 491.144531 268.589844 C 491.34375 271.1875 492.445313 273.488281 493.246094 275.789063 C 491.378906 277.054688 488.445313 275.789063 488.445313 275.789063 Z M 490.566406 261.871094 C 488.5 261.871094 486.824219 260.113281 486.824219 257.945313 C 486.824219 255.777344 488.5 254.023438 490.566406 254.023438 C 492.632813 254.023438 494.308594 255.777344 494.308594 257.945313 C 494.308594 260.113281 492.632813 261.871094 490.566406 261.871094 Z M 478.84375 236.6875 C 478.84375 236.6875 480.746094 239.6875 482.246094 240.289063 C 486.941406 242.355469 490.203125 236.289063 488.046875 233.589844 C 494.542969 235.589844 495.28125 243.835938 491.644531 250.890625 C 489.632813 251.359375 487.578125 252.054688 485.746094 251.585938 C 482.164063 250.667969 476.703125 242.707031 478.84375 236.6875 Z M 476.746094 247.988281 C 478.644531 250.289063 481.144531 252.890625 483.945313 254.1875 L 483.945313 254.988281 C 481.34375 254.1875 478.644531 252.390625 475.246094 252.789063 C 475.046875 251.1875 475.546875 249.289063 476.746094 247.988281 Z M 482.945313 263.390625 C 484.046875 264.988281 485.246094 266.6875 487.046875 267.6875 C 486.84375 272.589844 484.34375 277.390625 479.84375 279.6875 L 478.144531 280.1875 C 482.355469 274.300781 474.929688 270.902344 470.046875 275.089844 C 467.511719 268.753906 477.101563 263.648438 482.945313 263.390625 Z M 464.945313 253.488281 L 469.746094 253.789063 C 464.46875 256.175781 458.460938 257.046875 452.890625 258.929688 C 447.984375 260.589844 439.683594 265.351563 434.445313 270.589844 L 432.546875 270.089844 C 441.34375 260.589844 452.546875 255.089844 464.945313 253.488281 Z M 394.84375 41.089844 C 395.746094 44.089844 396.945313 45.988281 399.046875 48.390625 C 399.046875 48.390625 398.171875 49.140625 397.796875 49.265625 C 395.996094 46.5625 393.144531 45.089844 390.546875 43.789063 C 391.445313 41.988281 393.171875 40.765625 394.84375 41.089844 Z M 378.34375 57.390625 C 385.203125 58.304688 386.871094 48.976563 379.746094 47.789063 C 384.4375 44.597656 392.984375 47.644531 396.546875 53.089844 C 396.171875 54.515625 396.246094 56.089844 396.046875 57.6875 C 388.128906 62.964844 381.796875 61.777344 378.34375 57.390625 Z M 400.046875 72.015625 C 398.046875 72.515625 395.84375 70.390625 395.84375 70.390625 C 397.746094 68.488281 399.445313 66.089844 400.445313 63.6875 C 400.796875 63.765625 401.144531 63.890625 401.34375 64.1875 C 400.546875 66.390625 400.144531 69.414063 400.046875 72.015625 Z M 399.132813 55.179688 C 399.132813 52.988281 400.828125 51.214844 402.921875 51.214844 C 405.011719 51.214844 406.710938 52.988281 406.710938 55.179688 C 406.710938 57.363281 405.011719 59.140625 402.921875 59.140625 C 400.828125 59.140625 399.132813 57.363281 399.132813 55.179688 Z M 417.445313 77.789063 C 415.921875 73.234375 406.796875 74.390625 408.34375 80.1875 C 403.945313 76.988281 402.796875 69.265625 405.550781 64.652344 C 407.421875 64.515625 409.289063 64.050781 410.445313 62.488281 C 417.464844 64.328125 419.960938 73.515625 417.445313 77.789063 Z M 420.546875 55.488281 C 418.445313 54.390625 415.746094 54.6875 413.34375 54.289063 L 413.34375 53.589844 L 419.84375 50.488281 C 421.746094 51.6875 421.246094 53.890625 420.546875 55.488281 Z M 416.246094 31.988281 C 409.859375 37.175781 416.882813 44.753906 422.246094 39.390625 C 422.445313 43.289063 416.679688 48.988281 412.878906 50.890625 C 411.546875 49.554688 408.878906 48.222656 407.144531 47.390625 C 403.664063 36.695313 410.628906 31.574219 416.246094 31.988281 Z M 420.945313 125.820313 C 422.746094 119.089844 430.238281 102.914063 434.003906 94.132813 C 441.691406 76.21875 448.4375 65.042969 447.871094 46.546875 C 447.238281 25.730469 433.605469 10.511719 423.445313 11.089844 C 417.34375 11.789063 410.546875 16.089844 408.84375 22.390625 L 406.84375 22.890625 C 406.488281 14.839844 414.304688 5.394531 428.746094 8.488281 C 439.445313 11.421875 449.449219 28.460938 450.394531 45.890625 C 451.460938 65.519531 443.652344 80.785156 436.816406 95.527344 C 431.941406 106.03125 426.886719 116.488281 423.742188 127.183594 C 419.324219 142.214844 418.917969 161.964844 424.644531 185.589844 C 423.746094 185.988281 422.984375 186.390625 422.046875 186.789063 C 415.296875 167.941406 415.753906 145.230469 420.945313 125.820313 Z M 371.347656 175.234375 C 373.351563 175.730469 374.296875 178.640625 374.296875 178.640625 C 371.726563 179.425781 369.097656 180.746094 367.089844 182.394531 C 366.816406 182.164063 366.566406 181.890625 366.527344 181.53125 C 368.269531 179.964844 370.039063 177.480469 371.347656 175.234375 Z M 381.144531 197.183594 C 376.03125 199.035156 368.988281 195.664063 366.710938 190.796875 C 367.644531 189.171875 368.308594 187.363281 367.660156 185.53125 C 373.113281 180.746094 382.121094 183.828125 384.253906 188.300781 C 379.628906 187.011719 375.472656 195.222656 381.144531 197.183594 Z M 383.84375 208.589844 L 385.046875 207.6875 C 387.84375 208.890625 390.246094 210.890625 392.746094 212.988281 C 392.484375 213.453125 392.234375 213.953125 392.046875 214.390625 C 389.84375 212.089844 386.746094 210.1875 383.84375 208.589844 Z M 395.453125 215.558594 C 408.261719 197.175781 426.824219 185.714844 448.078125 181.980469 C 458.5625 180.136719 482.753906 177.484375 490.144531 190.1875 C 491.777344 194.140625 491.269531 199.054688 489.316406 202.835938 C 485.863281 209.515625 478.378906 209.828125 473.84375 206.488281 C 478.144531 204.289063 484.859375 208.015625 487.546875 201.890625 C 489.144531 198.242188 488.644531 193.289063 485.84375 190.390625 C 476.46875 181.886719 461.726563 182.351563 449.039063 184.605469 C 421.398438 189.519531 387.074219 211.757813 380.746094 268.890625 L 378.84375 269.390625 C 378.84375 244.285156 390.175781 223.128906 395.453125 215.558594 Z M 307.246094 305.089844 C 298.9375 304.214844 297.976563 316.046875 306.546875 314.488281 C 302.917969 320.097656 296.664063 317.734375 290.246094 310.890625 C 291.144531 308.890625 292.246094 306.589844 291.445313 304.089844 C 299.117188 299.441406 303.117188 301.304688 307.246094 305.089844 Z M 295.246094 294.488281 C 297.242188 294.671875 297.246094 298.390625 297.246094 298.390625 C 294.644531 298.488281 292.546875 299.988281 290.246094 300.789063 L 289.746094 300.289063 C 291.546875 298.6875 294.34375 296.988281 295.246094 294.488281 Z M 285.945313 325.289063 C 286.421875 324.765625 287.367188 324.445313 287.707031 324.890625 C 289.117188 326.746094 288.414063 336.589844 288.046875 341.789063 C 287.296875 341.890625 286.296875 341.765625 284.945313 342.089844 C 286.546875 336.988281 285.644531 330.390625 285.945313 325.289063 Z M 280.644531 322.089844 L 280.445313 321.890625 L 282.046875 314.488281 L 282.84375 314.6875 L 284.945313 321.6875 C 283.84375 322.488281 281.945313 323.089844 280.644531 322.089844 Z M 281.71875 308.195313 C 279.511719 308.195313 277.722656 306.453125 277.722656 304.308594 C 277.722656 302.160156 279.511719 300.421875 281.71875 300.421875 C 283.925781 300.421875 285.714844 302.160156 285.714844 304.308594 C 285.714844 306.453125 283.925781 308.195313 281.71875 308.195313 Z M 270.546875 282.289063 C 272.558594 287.917969 282.660156 285.085938 279.644531 279.390625 C 285.816406 282.914063 287.148438 293.707031 283.378906 296.722656 C 281.210938 296.390625 279.046875 297.390625 277.546875 298.390625 C 272.113281 294.769531 268.476563 286.675781 270.546875 282.289063 Z M 268.445313 293.789063 C 270.144531 296.789063 273.246094 298.589844 275.84375 300.488281 L 275.34375 300.988281 C 272.644531 299.890625 270.046875 298.390625 266.746094 298.589844 C 266.144531 296.589844 267.546875 295.289063 268.445313 293.789063 Z M 270.34375 325.988281 C 270.34375 325.988281 270.546875 322.488281 269.84375 321.1875 C 266.003906 315.871094 261.445313 321.1875 261.445313 321.1875 C 258.773438 313.703125 267.90625 309.5625 274.84375 309.390625 C 275.445313 311.089844 277.246094 312.6875 278.746094 313.488281 C 278.445313 318.6875 275.644531 324.289063 270.34375 325.988281 Z M 148.445313 407.289063 C 148.84375 410.789063 149.246094 414.1875 150.84375 417.1875 C 150.296875 417.265625 149.144531 417.539063 148.546875 417.640625 C 147.445313 414.4375 146.546875 411.488281 146.546875 407.890625 Z M 144.144531 403.6875 L 145.746094 396.289063 L 146.546875 396.289063 C 147.710938 399.222656 147.878906 401.054688 148.710938 403.222656 C 147.484375 404.378906 144.144531 403.6875 144.144531 403.6875 Z M 145.414063 389.480469 C 143.335938 389.480469 141.648438 387.863281 141.648438 385.871094 C 141.648438 383.878906 143.335938 382.265625 145.414063 382.265625 C 147.496094 382.265625 149.183594 383.878906 149.183594 385.871094 C 149.183594 387.863281 147.496094 389.480469 145.414063 389.480469 Z M 133.746094 367.488281 L 134.546875 364.089844 C 135.867188 370.710938 144.144531 367.464844 143.644531 360.988281 C 150.230469 364.753906 150.4375 372.3125 146.945313 378.488281 L 142.144531 379.6875 C 137.84375 377.289063 133.246094 372.988281 133.746094 367.488281 Z M 132.34375 375.390625 C 133.84375 378.488281 137.046875 380.390625 139.746094 382.089844 L 139.34375 382.589844 C 136.546875 381.488281 133.746094 380.488281 130.644531 380.1875 C 130.246094 378.488281 131.246094 376.789063 132.34375 375.390625 Z M 135.246094 407.289063 L 133.546875 407.789063 C 135.621094 403.929688 130.65625 398.804688 125.34375 402.789063 C 122.796875 396.734375 131.238281 390.664063 138.546875 390.988281 C 139.144531 392.789063 141.144531 394.390625 142.644531 395.289063 C 141.945313 400.089844 140.144531 405.1875 135.246094 407.289063 Z M 147.246094 480.289063 C 148.246094 480.390625 149.144531 483.890625 149.144531 483.890625 L 141.945313 486.488281 L 141.445313 485.789063 C 143.746094 484.6875 145.84375 482.289063 147.246094 480.289063 Z M 158.945313 490.890625 C 151.90625 489.777344 151.171875 500.539063 158.546875 500.1875 C 152.261719 505.683594 147.148438 502.335938 141.945313 496.390625 C 143.144531 494.390625 143.644531 492.1875 143.34375 489.6875 C 147.84375 486.789063 155.144531 486.488281 158.945313 490.890625 Z M 149.34375 473.289063 C 148.84375 469.1875 154.546875 469.589844 157.34375 468.289063 C 163.546875 466.988281 171.34375 467.589844 177.746094 468.789063 C 178.34375 469.488281 178.34375 470.589844 178.644531 471.390625 C 169.246094 469.890625 157.945313 469.789063 149.34375 473.289063 Z M 103.34375 445.6875 C 58.238281 478.507813 36.484375 480.992188 16.148438 466.371094 C 1.660156 455.953125 5.507813 435.777344 18.546875 433.6875 C 20.144531 436.089844 16.945313 436.6875 15.746094 438.089844 C 5.554688 448.070313 12.328125 459.367188 17.660156 463.777344 C 36.957031 479.722656 64.492188 468.804688 101.800781 443.21875 C 121.828125 429.480469 145.480469 416.769531 180.296875 420.640625 C 179.921875 421.765625 179.421875 423.015625 179.34375 424.089844 C 150.644531 422.488281 125.921875 429.265625 103.34375 445.6875 Z M 250.84375 444.089844 C 255 439.558594 245.757813 433.261719 242.746094 439.289063 C 240.214844 432.617188 246.984375 427.070313 256.144531 427.289063 C 256.144531 427.289063 258.046875 430.390625 259.785156 430.890625 C 261.246094 433.054688 256.367188 442.957031 250.84375 444.089844 Z M 261.644531 439.6875 L 263.34375 432.289063 L 264.34375 432.488281 C 264.445313 435.089844 265.144531 437.390625 266.246094 439.488281 C 265.144531 440.390625 261.644531 439.6875 261.644531 439.6875 Z M 263.003906 425.492188 C 261.050781 425.492188 259.46875 423.804688 259.46875 421.722656 C 259.46875 419.636719 261.050781 417.949219 263.003906 417.949219 C 264.957031 417.949219 266.539063 419.636719 266.539063 421.722656 C 266.539063 423.804688 264.957031 425.492188 263.003906 425.492188 Z M 252.046875 399.890625 C 252.425781 406.710938 264.011719 402.777344 260.945313 396.988281 C 268.847656 402.054688 267.609375 409.445313 264.34375 414.488281 L 259.746094 415.6875 C 253.71875 413.03125 248.796875 406.09375 252.046875 399.890625 Z M 249.644531 411.6875 C 251.546875 414.390625 254.746094 416.289063 257.144531 418.390625 L 256.644531 418.890625 C 253.945313 417.488281 251.34375 416.289063 248.046875 416.488281 C 247.546875 414.390625 248.746094 413.089844 249.644531 411.6875 Z M 206.421875 400.515625 C 221.421875 400.015625 235.195313 401.765625 246.796875 409.265625 L 245.84375 410.890625 C 233.046875 404.6875 218.546875 400.988281 202.945313 402.988281 C 203.445313 401.589844 204.816406 400.566406 206.421875 400.515625 Z M 310.84375 348.289063 C 267.132813 348.109375 224.574219 363.140625 198.753906 398.984375 C 194.515625 404.863281 178.113281 437.757813 182.65625 458.882813 C 188.667969 486.855469 215.238281 490.203125 218.695313 485.566406 C 219.382813 484.648438 219.933594 483.617188 221.144531 483.1875 L 224.046875 482.1875 C 222.445313 486.789063 217.65625 490.023438 212.945313 490.089844 C 194.273438 490.347656 182.402344 476.339844 180.136719 459.878906 C 177.503906 440.792969 183.898438 416.125 196.8125 397.773438 C 218.371094 367.136719 257.253906 345.148438 304.296875 345.859375 C 307.957031 345.914063 311.34375 346.089844 311.34375 346.089844 Z M 310.445313 490.890625 C 312.34375 493.488281 315.34375 495.6875 318.046875 497.289063 C 316.246094 498.1875 313.445313 495.890625 310.84375 495.6875 L 308.945313 495.6875 C 308.746094 493.988281 309.246094 492.1875 310.445313 490.890625 Z M 320.746094 512.890625 C 319.847656 517.136719 316.84375 522.289063 312.046875 523.289063 C 313.144531 517.792969 309.601563 514.785156 306.34375 516.089844 L 303.445313 518.488281 C 301.070313 511.667969 306.546875 504.554688 316.445313 506.1875 C 316.902344 507.882813 318.105469 509.980469 319.710938 510.722656 C 320.574219 511.121094 320.964844 511.84375 320.746094 512.890625 Z M 322.445313 518.890625 L 324.34375 511.6875 L 325.046875 511.6875 C 325.445313 514.1875 326.144531 516.488281 327.246094 518.6875 C 325.609375 520.171875 322.445313 518.890625 322.445313 518.890625 Z M 323.914063 504.929688 C 321.933594 504.929688 320.332031 503.183594 320.332031 501.035156 C 320.332031 498.886719 321.933594 497.144531 323.914063 497.144531 C 325.890625 497.144531 327.496094 498.886719 327.496094 501.035156 C 327.496094 503.183594 325.890625 504.929688 323.914063 504.929688 Z M 325.246094 493.6875 L 320.746094 494.890625 C 312.539063 491.242188 309.507813 486.269531 312.84375 479.589844 C 313.632813 486.628906 324.878906 482.554688 321.644531 476.1875 C 329.699219 480.117188 328.59375 488.539063 325.246094 493.6875 Z M 349.246094 502.089844 C 342.375 501.191406 342.734375 511.28125 348.84375 511.6875 C 343.652344 516.65625 337.003906 514.242188 332.445313 508.089844 C 333.246094 505.890625 334.046875 503.589844 333.644531 500.890625 C 338.144531 498.089844 345.644531 497.789063 349.246094 502.089844 Z M 337.546875 491.589844 C 338.746094 491.890625 339.746094 493.1875 339.644531 494.488281 C 338.34375 495.890625 335.011719 496.824219 332.710938 498.222656 C 332.710938 498.222656 332.144531 497.6875 332.046875 497.589844 C 333.917969 495.46875 336.285156 493.71875 337.546875 491.589844 Z M 325.746094 467.089844 L 323.34375 467.089844 C 324.84375 459.089844 329.144531 451.890625 336.34375 446.6875 C 337.144531 447.089844 337.746094 447.988281 338.445313 448.589844 C 333.171875 452.890625 326.445313 459.488281 325.746094 467.089844 Z M 403.039063 463.996094 C 363.84375 472.078125 330.164063 440.191406 320.097656 416.8125 C 304.261719 380.027344 315.515625 337.875 326.296875 319.140625 C 345.117188 286.425781 365.691406 275.292969 387.300781 270.535156 C 415.648438 264.296875 460.996094 274.050781 457.660156 308.511719 C 457.53125 309.839844 457.324219 311.164063 457.046875 312.488281 C 454.933594 329.574219 431.195313 337.730469 411.183594 330.605469 C 400.144531 326.675781 381.234375 307.019531 379.046875 284.988281 C 379.421875 284.765625 380.144531 284.488281 380.746094 284.1875 C 384.542969 304.960938 396.722656 321.523438 412.296875 327.515625 C 431.21875 334.792969 453.824219 327.628906 455.632813 308.273438 C 458.339844 279.269531 416.488281 266.660156 388.320313 272.878906 C 359.035156 279.339844 341.558594 296.863281 327.847656 321.0625 C 309.703125 353.085938 313.167969 396.222656 322.09375 416.0625 C 333.960938 442.449219 371.046875 469.308594 401.941406 461.976563 C 440.320313 452.867188 441.453125 405.320313 411.382813 382.3125 C 377.511719 356.402344 324.546875 348.089844 324.546875 348.089844 L 325.046875 346.390625 C 358.679688 351.113281 392.410156 363.316406 413.738281 379.835938 C 444.765625 403.863281 443.679688 455.621094 403.039063 463.996094 Z M 385.046875 282.640625 C 414.578125 273.539063 445.761719 279.425781 449.664063 302.746094 C 451.945313 316.363281 446.613281 324.96875 427.273438 323.964844 C 409.734375 323.050781 398.722656 314.546875 389.992188 297.261719 C 387 291.332031 385.046875 282.640625 385.046875 282.640625 Z M 322.644531 354.488281 C 356.84375 359.789063 390.046875 369.589844 414.546875 396.089844 C 426.046875 408.988281 427.546875 429.1875 419.84375 444.289063 C 412.046875 456.890625 396.746094 458.6875 382.445313 456.988281 C 356.445313 454.589844 333.246094 429.789063 324.84375 406.390625 C 318.246094 390.589844 318.246094 371.289063 322.644531 354.488281 Z M 509 451 C 488.445313 465.726563 442.558594 462.871094 428.945313 453.6875 C 429.34375 452.890625 429.945313 451.914063 430.171875 451.515625 C 457.863281 465.15625 497.640625 456.246094 507.523438 448.859375 C 526.03125 435.027344 527.480469 404.320313 510.257813 399.378906 C 494.820313 394.945313 486.828125 409.890625 489.371094 416.734375 C 490.128906 418.761719 491.542969 420.476563 493.546875 421.289063 C 496.84375 422.6875 499.945313 420.589844 503.144531 420.289063 C 502.519531 424.050781 490.808594 426.726563 487.546875 417.890625 C 483.078125 405.789063 496.992188 392.25 510.691406 396.4375 C 531.691406 402.851563 530.179688 435.824219 509 451 "/>
<path style=" stroke:none;fill-rule:nonzero;fill:rgb(0%,0%,0%);fill-opacity:1;" d="M 370.160156 426.90625 C 372.863281 428.308594 376.5625 428.605469 379.0625 426.707031 C 388.957031 435.421875 402.152344 431.082031 405.683594 421.199219 C 408.722656 412.695313 403.757813 402.9375 392.5625 400.808594 C 392.5625 400.808594 392.648438 395.054688 388.464844 394.308594 C 391.976563 384.996094 386.324219 375.671875 377.363281 373.207031 C 367.097656 371.742188 356.347656 378.230469 359.363281 393.308594 C 355.660156 394.90625 355.863281 398.90625 354.5625 402.007813 C 346.417969 405.058594 342.382813 410.585938 343.210938 418.183594 C 344.773438 432.609375 359.945313 438.910156 370.160156 426.90625 Z M 399.261719 407.707031 C 393.324219 405.832031 390.910156 414.296875 395.3125 416.4375 C 396.039063 416.789063 398.761719 416.90625 398.761719 416.90625 C 395.125 421.203125 385.894531 419.605469 382.160156 413.308594 C 383.734375 411.371094 383.222656 408.523438 383.921875 406.617188 C 387.300781 404.535156 395.078125 403.242188 399.261719 407.707031 Z M 387.246094 397.289063 C 388.144531 397.589844 388.546875 398.390625 389.144531 399.1875 L 389.144531 401.089844 C 386.546875 401.488281 384.246094 402.589844 381.945313 403.488281 L 381.445313 402.988281 C 383.746094 401.488281 385.644531 399.488281 387.246094 397.289063 Z M 373.046875 425.289063 C 370.84375 424.789063 373.246094 423.390625 372.84375 422.1875 L 374.046875 417.1875 C 374.144531 417.488281 374.445313 417.390625 374.746094 417.390625 C 375.046875 419.789063 375.84375 421.988281 376.84375 424.089844 C 376.246094 425.589844 374.246094 425.488281 373.046875 425.289063 Z M 377.730469 407.855469 C 377.730469 409.746094 376.199219 411.273438 374.3125 411.273438 C 372.425781 411.273438 370.894531 409.746094 370.894531 407.855469 C 370.894531 405.96875 372.425781 404.4375 374.3125 404.4375 C 376.199219 404.4375 377.730469 405.96875 377.730469 407.855469 Z M 362.761719 384.90625 C 364.820313 391.085938 373.457031 388.183594 371.863281 381.808594 C 378.535156 385.914063 378.378906 394.378906 374.964844 399.105469 C 373.5625 399.707031 371.988281 400.082031 370.472656 399.945313 C 366.710938 399.601563 359.835938 392.144531 362.761719 384.90625 Z M 360.5625 396.207031 C 362.5625 399.105469 365.160156 401.207031 367.761719 402.90625 L 367.363281 403.40625 C 364.761719 402.105469 361.328125 400.941406 358.230469 400.941406 C 358.5625 398.941406 359.660156 397.707031 360.5625 396.207031 Z M 366.863281 411.808594 C 367.5625 413.40625 369.0625 415.105469 370.660156 415.90625 C 370.660156 426.335938 361.761719 428.605469 361.761719 428.605469 C 364.910156 423.488281 355.585938 418.324219 353.660156 423.605469 C 350.21875 415.429688 360.304688 411.652344 366.863281 411.808594 "/>
</g>
</svg>
