<?xml version="1.0" encoding="UTF-8"?>
<svg xmlns="http://www.w3.org/2000/svg" xmlns:xlink="http://www.w3.org/1999/xlink" width="469pt" height="424pt" viewBox="0 0 469 424" version="1.1">
<g id="surface1">
<path style=" stroke:none;fill-rule:nonzero;fill:rgb(0%,0%,0%);fill-opacity:1;" d="M 447.441406 370.902344 L 468.644531 358.902344 L 453.042969 351.203125 C 453.5625 337.980469 452.855469 330.886719 447.34375 317.101563 C 448.84375 307.933594 450.03125 302.015625 449.144531 294.300781 L 439.84375 304.199219 C 436.542969 299.402344 433.242188 294.699219 429.242188 290.199219 C 431.199219 284.273438 430.5625 277.238281 430.90625 270.59375 C 431.160156 265.664063 431.476563 261.453125 433.996094 257.925781 C 436.925781 253.824219 443.421875 254.246094 445.042969 248.699219 C 447.042969 239.199219 440.042969 231.300781 432.644531 225.902344 C 427.042969 222.800781 418.742188 220.503906 412.644531 224.199219 C 407.941406 227.003906 406.644531 232.003906 406.644531 237.199219 C 402.34375 245.902344 392.34375 250.902344 384.84375 255.902344 L 384.644531 251.601563 L 399.742188 235.503906 C 395.542969 235.503906 384.644531 235.003906 384.644531 235.003906 C 384.941406 232.300781 384.84375 229.503906 385.542969 226.902344 C 390.34375 226.199219 394.644531 224.199219 399.042969 222.601563 C 414.441406 224.101563 429.542969 221.601563 439.84375 209.800781 C 447.042969 200.101563 451.042969 188.703125 452.242188 176.703125 C 441.144531 170.300781 424.644531 170.003906 413.644531 177.003906 C 400.390625 185.113281 392.515625 198.996094 392.734375 214.101563 C 392.734375 214.269531 388.644531 215.601563 387.042969 216.101563 C 389.144531 201.601563 393.84375 188.203125 398.042969 174.601563 C 439.96875 168.757813 438.605469 120.109375 426.144531 99.203125 C 414.34375 103.101563 402.941406 109.503906 394.644531 120.601563 C 392.34375 120.203125 389.84375 120.300781 387.742188 119.601563 L 388.242188 111.703125 L 401.441406 97.300781 L 387.042969 97.300781 C 385.941406 88.601563 380.175781 73.933594 374.175781 62.769531 C 374.175781 62.769531 380.773438 51.59375 381.441406 44.300781 C 377.84375 45.402344 373.941406 46.902344 370.441406 47.601563 C 368.941406 31.199219 373.980469 16.0625 381.441406 0.300781 C 375.441406 5.601563 370.644531 11.902344 367.542969 18.601563 C 363.242188 17.003906 359.144531 15.003906 354.84375 13.503906 C 357.144531 20.300781 359.742188 27.003906 362.742188 33.503906 C 360.242188 43.203125 361.242188 55.101563 363.941406 64.402344 C 359.84375 66.800781 355.242188 68.003906 351.042969 70.203125 L 370.644531 80.300781 C 373.34375 85.902344 376.34375 91.703125 376.242188 98.300781 C 372.34375 97.902344 368.144531 97.101563 364.644531 97.101563 L 375.742188 114.601563 C 375.34375 117.503906 374.507813 121.933594 374.507813 121.933594 C 370.109375 123.933594 365.042969 129.003906 362.042969 133.101563 C 357.644531 131.503906 353.042969 129.300781 348.84375 128.503906 L 356.542969 145.503906 C 356.242188 148.902344 356.042969 152.902344 355.84375 156.601563 C 346.441406 151.902344 334.84375 150.503906 323.644531 152.300781 L 321.441406 163.101563 C 317.566406 204.972656 353.363281 213.765625 371.144531 205.800781 L 377.644531 209.101563 C 376.742188 213.199219 376.644531 217.800781 375.042969 221.402344 L 361.542969 216.800781 L 372.34375 238.199219 C 372.742188 242.699219 371.644531 247.101563 371.84375 251.800781 C 370.941406 252.199219 369.042969 252.199219 367.84375 251.800781 C 367.242188 242.003906 362.542969 233.800781 356.042969 226.402344 C 345.34375 214.800781 329.542969 212.601563 314.042969 215.402344 C 312.742188 220.601563 312.542969 226.300781 312.34375 231.902344 C 312.847656 257.0625 339.574219 280.050781 366.34375 261.402344 L 371.644531 262.902344 L 372.644531 271.300781 C 367.144531 282.199219 366.507813 300.101563 376.710938 308.9375 C 376.734375 311.378906 375.1875 313.773438 374.042969 315.902344 L 363.742188 304.402344 C 362.941406 312.003906 363.34375 318.199219 362.542969 325.800781 C 360.144531 326.800781 357.441406 327.800781 354.84375 327.703125 C 352.542969 320.601563 347.042969 314.902344 345.042969 307.800781 C 343.851563 303.1875 344.050781 298.636719 346.144531 294.753906 C 349.089844 289.292969 349.671875 285.851563 344.042969 280.402344 C 334.742188 272.375 320.445313 272.535156 312.726563 279.132813 C 307.605469 283.511719 307.203125 290.71875 311.144531 299.800781 C 307.34375 299.402344 302.941406 299.199219 298.941406 298.601563 L 294.644531 283.003906 L 280.941406 302.503906 C 265.941406 308.601563 256.042969 323.800781 255.042969 339.402344 C 251.042969 338.503906 247.144531 337.503906 243.242188 336.601563 C 243.09375 333.734375 242.601563 330.925781 243.828125 328.601563 C 244.226563 327.84375 246.683594 324.925781 247.167969 324.097656 C 253.378906 313.394531 255.203125 298.074219 248.242188 287.402344 C 239.941406 272.402344 222.742188 267.503906 206.042969 270.101563 C 200.007813 293.753906 198.835938 316.59375 232.441406 330.601563 L 233.441406 335.601563 L 221.941406 335.101563 L 201.941406 320.503906 C 202.742188 325.503906 204.242188 330.601563 204.34375 335.601563 C 204.34375 335.601563 195.175781 336.269531 192.644531 336.300781 C 192.242188 333.800781 191.441406 331.503906 190.742188 329.101563 C 197.441406 315.699219 197.84375 297.699219 188.742188 285.199219 C 178.742188 272.300781 162.242188 269.902344 146.542969 272.503906 C 143.542969 283.601563 143.742188 297.402344 147.242188 308.199219 C 151.296875 323.914063 165.488281 334.730469 181.746094 335.46875 L 183.042969 338.003906 L 173.441406 340.203125 L 153.242188 331.503906 L 159.242188 344.503906 L 156.34375 345.402344 C 143.398438 335.742188 128.753906 335.148438 109.175781 340.933594 L 91.34375 328.203125 L 93.542969 343.503906 C 82.242188 345.902344 73.84375 355.203125 64.242188 361.503906 L 42.84375 356.503906 C 43.84375 360.601563 46.644531 364.300781 46.941406 368.503906 C 30.644531 372.003906 14.242188 367.300781 0.640625 362.003906 C 6.242188 368.101563 12.742188 371.902344 19.542969 375 L 16.742188 389.601563 C 22.742188 386.203125 28.441406 382.300781 34.441406 378.800781 C 45.042969 379.203125 55.441406 377.800781 64.242188 373.300781 L 71.441406 386.703125 C 73.941406 379.101563 75.84375 371.300781 78.84375 363.902344 C 83.84375 359.703125 89.644531 356.800781 95.644531 355.800781 C 91.34375 361.800781 87.441406 368.003906 84.84375 374.703125 C 96.242188 383.800781 109.742188 389 125.144531 387 C 146.074219 384.40625 152.199219 370.320313 159.042969 353.800781 C 171.84375 351.003906 184.84375 347.703125 198.34375 347.402344 C 197.84375 349.300781 197.644531 351.402344 196.742188 353.101563 C 182.34375 350.902344 169.542969 357.101563 160.742188 368.203125 C 150.742188 380.5 149.242188 397.300781 154.242188 412.203125 C 164.542969 411.402344 174.441406 409.601563 183.042969 404.5 C 197.84375 394.902344 202.542969 378.300781 202.441406 361.503906 C 204.84375 356.800781 207.34375 352.101563 208.742188 346.902344 C 212.542969 347.003906 216.644531 346.503906 220.242188 347.402344 C 213.84375 356.203125 212.644531 370.601563 218.542969 380 C 221.464844 382.921875 222.757813 383.269531 228.636719 381.933594 C 242.03125 378.890625 248.3125 396.894531 259.042969 403 C 268.941406 408.902344 284.042969 408.703125 293.644531 402.300781 C 296.542969 404.703125 299.84375 405.902344 303.042969 407.402344 L 302.042969 423 L 324.144531 411 C 329.242188 410.601563 334.542969 409.902344 339.242188 409 L 347.144531 421.800781 L 358.441406 400.601563 C 368.144531 403.902344 380.042969 402.402344 388.441406 397.300781 C 396.84375 398 405.941406 399.101563 414.34375 397 C 422.84375 399.5 431.542969 402.703125 439.84375 404.5 L 434.042969 388.203125 C 439.742188 383.101563 444.441406 377.203125 447.441406 370.902344 Z M 452.242188 357.003906 L 457.34375 360.933594 L 450.675781 362.269531 Z M 385.34375 239.269531 L 391.007813 239.933594 L 385.34375 244.601563 Z M 389.144531 100.902344 L 393.675781 102.269531 L 389.007813 104.601563 Z M 327.941406 252.800781 C 318.34375 243.601563 317.242188 230.800781 315.742188 218.199219 C 334.042969 215.300781 352.742188 221.800781 361.042969 239.101563 C 362.742188 243.003906 364.742188 246.800781 365.441406 251.101563 C 345.84375 249.503906 330.742188 234.699219 318.644531 219.199219 C 319.34375 223.199219 322.144531 226.902344 324.144531 230.699219 C 330.742188 242.402344 342.34375 253.402344 354.84375 257.601563 C 346.144531 260.003906 335.242188 259.101563 327.941406 252.800781 Z M 371.441406 256.402344 C 361.785156 255.289063 352.566406 253.085938 344.597656 247.847656 C 343.242188 246.953125 343.414063 246.695313 344.851563 247.460938 C 352.988281 251.800781 362.179688 253.503906 371.441406 255.199219 Z M 446.007813 303.601563 L 444.007813 310.933594 L 441.675781 308.269531 Z M 414.160156 227.800781 C 417.164063 223.609375 424.871094 223.992188 431.367188 228.652344 C 437.863281 233.3125 440.691406 240.488281 437.683594 244.679688 C 434.679688 248.871094 426.972656 248.488281 420.476563 243.828125 C 413.980469 239.167969 411.152344 231.992188 414.160156 227.800781 Z M 410.042969 183.703125 C 420.144531 173.902344 435.441406 174.101563 448.242188 177.902344 C 442.734375 200.578125 435.519531 211.957031 414.34375 214.601563 C 425.175781 206.59375 432.105469 195.394531 436.800781 183.925781 C 438.1875 180.535156 437.984375 180.648438 435.847656 183.652344 C 426.191406 197.226563 412.402344 211.523438 396.144531 214.199219 C 397.144531 203.003906 401.441406 192.003906 410.042969 183.703125 Z M 411.460938 211.144531 C 418.300781 207.300781 418.332031 207.773438 412.011719 212.605469 C 405.050781 217.933594 395.394531 219.246094 386.542969 220.601563 L 386.542969 219.199219 C 395.273438 217.585938 403.808594 215.445313 411.460938 211.144531 Z M 402.84375 116.003906 C 409.042969 110.101563 416.34375 105.800781 424.242188 103.300781 C 430.441406 125.003906 424.042969 146.902344 409.34375 162.601563 C 406.644531 164.902344 403.941406 167.003906 400.644531 168.101563 C 405.839844 152.699219 412.242188 137.855469 419.050781 123.207031 C 420.023438 121.105469 419.929688 120.914063 418.496094 122.777344 C 407.730469 136.777344 399.089844 152.050781 391.84375 167.601563 C 384.84375 150.402344 389.84375 129.300781 402.84375 116.003906 Z M 377.644531 166.203125 L 383.144531 189.003906 L 380.042969 198.300781 L 378.144531 197.800781 C 378.644531 184.300781 375.042969 171.800781 364.941406 162.300781 C 364.042969 159.300781 364.644531 155.601563 364.441406 152.300781 L 377.644531 145.300781 L 368.542969 140.503906 C 372.84375 132.800781 381.042969 129.601563 389.441406 130.203125 C 384.644531 142.402344 383.742188 159.601563 390.144531 171.503906 L 388.644531 174.101563 C 384.941406 171.601563 381.542969 168.203125 377.644531 166.203125 Z M 387.242188 178.203125 L 385.007813 180.933594 L 382.007813 174.601563 Z M 366.675781 147.269531 L 367.34375 143.601563 L 372.007813 146.269531 Z M 376.34375 50.601563 L 373.34375 55.601563 L 371.144531 51.503906 Z M 363.675781 24.601563 L 360.34375 19.933594 L 365.34375 21.601563 Z M 361.675781 70.601563 L 365.675781 67.269531 L 367.007813 72.269531 Z M 366.527344 32.085938 C 367.367188 28.320313 367.648438 28.507813 367.261719 32.328125 C 365.191406 52.714844 371.621094 71.28125 381.242188 87.503906 C 384.941406 97.203125 386.144531 108.601563 384.84375 119.902344 L 381.941406 120.101563 C 383.242188 108.902344 383.34375 95.703125 378.144531 86.003906 C 369.460938 70.285156 362.28125 51.144531 366.527344 32.085938 Z M 372.007813 102.933594 L 376.441406 101.402344 L 377.34375 106.933594 Z M 373.542969 129.003906 C 378.558594 125.625 384.503906 124.019531 390.839844 124.625 C 391.074219 124.648438 390.019531 127.019531 389.839844 127.035156 C 372.703125 128.523438 366.113281 136.691406 363.441406 145.101563 C 361.941406 149.601563 361.441406 155.300781 362.042969 160.203125 L 361.042969 159.703125 C 359.742188 148.101563 362.742188 135.601563 373.542969 129.003906 Z M 354.34375 134.269531 L 360.34375 135.703125 L 358.34375 139.601563 Z M 335.644531 191.101563 C 326.84375 181.503906 324.441406 168.601563 325.84375 155.402344 C 341.644531 153.503906 359.144531 155.601563 367.542969 170.300781 C 372.144531 177.902344 373.941406 186.703125 374.042969 196.203125 C 363.441406 192.402344 352.441406 185.703125 346.441406 175.101563 C 341.042969 169.003906 337.46875 163.726563 333.96875 156.726563 C 336.167969 169.527344 341.742188 179.601563 350.042969 190.203125 L 358.242188 197.402344 C 350.242188 197.800781 341.542969 197.003906 335.644531 191.101563 Z M 352.84375 188.707031 C 347.996094 183.421875 348.589844 183.273438 353.742188 187.675781 C 361.476563 194.28125 370.332031 197.992188 379.34375 201.703125 L 379.042969 202.902344 C 370.753906 199.652344 357.894531 194.222656 352.84375 188.707031 Z M 400.117188 155.195313 C 401.742188 152.257813 402.730469 152.367188 401.441406 154.988281 C 385.582031 187.210938 376.453125 223.046875 379.042969 261.699219 L 376.242188 265.003906 C 370.445313 217.050781 395.40625 163.707031 400.117188 155.195313 Z M 368.34375 223.933594 L 373.675781 224.933594 L 373.34375 229.933594 Z M 373.84375 295.503906 C 371.34375 284.902344 373.242188 273.101563 380.542969 265.003906 C 389.042969 256.199219 399.941406 252.003906 407.84375 242.699219 C 411.644531 249.699219 419.042969 254.902344 426.84375 255.699219 C 418.941406 268.601563 423.441406 286.699219 412.644531 298.402344 C 401.765625 312.390625 379.1875 314.214844 373.84375 295.503906 Z M 416.042969 318.800781 L 435.042969 323.800781 C 443.542969 337.703125 441.144531 357.800781 431.84375 370.601563 C 423.941406 381.300781 412.441406 385.300781 399.941406 386 C 403.644531 379.5 408.144531 370.601563 416.242188 368.703125 C 421.644531 369.402344 428.34375 370.601563 431.144531 364.601563 C 435.242188 354.601563 432.441406 342.902344 426.144531 334.402344 C 425.53125 333.625 424.890625 332.898438 424.21875 332.226563 C 420.472656 328.492188 415.753906 326.449219 410.242188 326.703125 C 404.3125 326.519531 402.792969 334 398.238281 335.917969 C 397.804688 336.097656 379.34375 339.601563 363.503906 339.8125 C 362.945313 339.839844 363.078125 339.515625 363.6875 339.296875 C 367.679688 337.863281 371.398438 335.746094 375.042969 333.402344 C 381.644531 331.902344 388.441406 330.800781 394.941406 328.902344 C 391.042969 327.203125 387.144531 325.503906 383.144531 323.800781 L 387.742188 315.199219 C 399.644531 319.402344 411.144531 313.902344 419.84375 305.800781 C 422.242188 306.800781 423.84375 309.402344 425.84375 311.101563 Z M 428.34375 314.269531 L 430.675781 318.601563 L 424.34375 318.269531 Z M 410.246094 350.308594 C 407.246094 342.898438 408.6875 335.320313 413.46875 333.382813 C 418.246094 331.449219 424.558594 335.886719 427.558594 343.296875 C 430.558594 350.707031 429.117188 358.28125 424.335938 360.21875 C 419.554688 362.15625 413.246094 357.71875 410.246094 350.308594 Z M 379.007813 329.933594 L 381.34375 326.601563 L 384.34375 329.601563 Z M 371.007813 318.933594 L 367.007813 321.601563 L 366.34375 313.269531 Z M 380.042969 310.902344 L 383.144531 313.003906 C 379.34375 324.300781 367.542969 331.300781 356.742188 333.902344 C 356.34375 333.101563 356.542969 332.101563 356.242188 331.300781 C 366.144531 329.101563 377.441406 321.402344 380.042969 310.902344 Z M 328.398438 276.910156 C 336.382813 277.339844 342.628906 281.867188 342.351563 287.015625 C 342.070313 292.164063 335.371094 295.992188 327.390625 295.558594 C 319.40625 295.128906 313.160156 290.601563 313.441406 285.453125 C 313.71875 280.304688 320.414063 276.476563 328.398438 276.910156 Z M 314.042969 305.800781 L 314.742188 301.503906 C 320.941406 305.503906 330.242188 306.300781 336.84375 302.699219 C 336.480469 312.113281 341.03125 320.03125 344.0625 328.523438 C 348.671875 341.429688 349.042969 353.511719 341.015625 362.4375 C 336.230469 367.757813 329.003906 369.34375 322.941406 369.003906 C 306.355469 368.160156 300.714844 350.390625 302.996094 336.765625 C 304.773438 326.160156 311.316406 315.878906 314.042969 305.800781 Z M 310.941406 396.300781 C 308.144531 395.203125 305.242188 394.101563 302.742188 392.203125 C 307.242188 382.902344 309.144531 368.703125 302.742188 359.601563 C 295.144531 346.902344 280.441406 344.703125 266.542969 346.203125 C 266.34375 344.703125 265.84375 343.402344 266.042969 341.800781 C 270.941406 339.003906 276.242188 337.003906 281.144531 334.203125 C 277.644531 332.003906 273.542969 329.902344 269.644531 327.902344 C 272.441406 323.199219 276.441406 318.402344 281.441406 315.902344 L 294.34375 324.300781 C 296.542969 320.402344 298.042969 315.699219 299.84375 311.402344 C 302.441406 311.503906 304.742188 312.402344 307.042969 313.003906 C 302.742188 323.300781 297.84375 335.003906 299.84375 347.800781 C 302.242188 358.101563 309.644531 369.101563 320.042969 373.300781 C 325.542969 374.601563 332.042969 374.902344 337.34375 373.003906 C 337.644531 379.601563 340.042969 385.300781 343.542969 390.601563 C 339.144531 393.703125 334.34375 395.902344 329.144531 397 C 327.941406 392.5 326.742188 387.902344 325.542969 383.402344 Z M 325.042969 397.5 L 320.007813 397.269531 L 324.34375 390.601563 Z M 267.34375 336.269531 L 268.441406 330.601563 L 272.34375 334.601563 Z M 289.34375 312.601563 L 294.34375 311.402344 L 293.007813 318.601563 Z M 293.34375 291.601563 L 295.007813 297.601563 L 289.675781 297.933594 Z M 276.34375 311.402344 C 285.441406 304.601563 298.34375 304.300781 309.742188 306.101563 C 309.34375 306.101563 308.730469 309.167969 308.730469 309.167969 C 279.84375 302.433594 261.535156 325.296875 262.941406 346.601563 L 260.542969 347.101563 C 259.542969 333.203125 265.242188 320.503906 276.34375 311.402344 Z M 208.941406 303.902344 C 205.941406 294.402344 206.242188 281.699219 208.742188 271.800781 C 222.242188 274.601563 239.742188 281.199219 242.242188 297.199219 C 243.84375 304.199219 242.644531 311.699219 240.644531 318.101563 C 238.28125 302.652344 227.246094 287.867188 213.621094 277.566406 C 210.347656 275.09375 210.078125 275.28125 212.648438 278.425781 C 224.464844 292.890625 233.71875 308.75 233.441406 328.402344 C 222.644531 325.101563 212.84375 314.300781 208.941406 303.902344 Z M 237.441406 335.800781 L 236.542969 335.800781 C 235.738281 325.257813 235.175781 314.472656 231.851563 304.875 C 230.789063 301.804688 231.410156 301.226563 233.054688 304.578125 C 236.257813 311.109375 237.6875 325.730469 237.441406 335.800781 Z M 208.675781 328.933594 L 213.34375 334.601563 L 207.941406 335.101563 Z M 151.542969 312.800781 C 143.394531 298.640625 146.191406 288.605469 149.144531 275.101563 C 161.941406 275.003906 173.242188 279.503906 181.34375 289.800781 C 185.742188 296.601563 185.84375 306.402344 184.242188 314.503906 C 178.582031 300.585938 169.371094 293.003906 154.792969 286.203125 C 153.519531 285.609375 152.738281 286.089844 153.683594 286.929688 C 162.828125 295.035156 171.738281 303.890625 176.542969 315.402344 C 178.441406 320.503906 180.441406 325.601563 181.34375 331.003906 C 169.441406 329.601563 157.941406 323.902344 151.542969 312.800781 Z M 176.175781 308.9375 C 173.15625 303.582031 173.640625 303.144531 177.453125 308.355469 C 182.433594 315.160156 185.230469 327.960938 186.84375 337.300781 L 185.941406 337.300781 C 183.460938 327.542969 181.125 317.710938 176.175781 308.9375 Z M 168.675781 341.269531 L 162.144531 343.003906 L 161.34375 338.269531 Z M 96.675781 336.269531 L 101.675781 340.601563 L 96.007813 341.933594 Z M 55.675781 363.601563 L 50.675781 365.933594 L 49.675781 361.269531 Z M 22.007813 380.601563 L 22.441406 376.203125 L 27.675781 378.601563 Z M 69.542969 377.402344 L 66.84375 372.300781 C 67.242188 371.800781 70.308594 370.136719 71.007813 369.933594 C 71.308594 372.035156 70.34375 374.601563 69.542969 377.402344 Z M 51.742188 373.300781 C 45.253906 374.902344 37.910156 374.941406 31.035156 374.078125 C 29.75 373.914063 29.863281 373.515625 31.175781 373.492188 C 46.183594 373.214844 61.148438 370.125 72.644531 360.101563 C 83.042969 351.003906 94.742188 345.101563 108.34375 344.003906 L 103.34375 347.601563 C 83.34375 349.300781 70.542969 368.503906 51.742188 373.300781 Z M 124.242188 376.203125 C 112.84375 379.800781 98.941406 378.101563 88.742188 373.003906 C 94.644531 356.703125 111.34375 341.601563 129.242188 340.902344 C 138.144531 340.300781 146.042969 342.203125 153.042969 346.402344 C 136.644531 352.601563 120.742188 360.203125 106.242188 370.402344 C 121.042969 365.203125 136.441406 359.902344 152.042969 356.003906 C 146.742188 367.101563 134.84375 372.601563 124.242188 376.203125 Z M 155.644531 407.800781 C 153.441406 392.601563 154.84375 376.203125 167.441406 366.101563 C 175.542969 359.902344 184.742188 356.300781 195.542969 356.203125 C 191.441406 373.601563 174.742188 387.402344 160.242188 396.800781 C 172.441406 393.300781 184.542969 386.5 193.542969 376.402344 C 189.703125 393.941406 169.578125 404.226563 155.644531 407.800781 Z M 188.816406 376.980469 C 186.175781 379.269531 186.34375 378.769531 188.121094 376.222656 C 195.027344 367.609375 198.007813 357.269531 201.242188 347.101563 L 202.441406 347.101563 C 199.695313 357.546875 197.28125 371.378906 188.816406 376.980469 Z M 137.121094 356.472656 C 135.214844 357.261719 134.960938 357.132813 136.761719 356.277344 C 171.523438 339.785156 215.652344 331.460938 254.542969 344.203125 L 254.742188 347.800781 C 251.03125 348.207031 242.925781 347.53125 242.925781 347.53125 C 239.675781 341.433594 229.941406 340.300781 225.542969 341.601563 C 194.15625 338.613281 164.167969 345.308594 137.121094 356.472656 Z M 235.722656 363.285156 C 233.59375 370.988281 227.835938 376.125 222.863281 374.75 C 217.894531 373.378906 215.589844 366.019531 217.714844 358.3125 C 219.84375 350.605469 225.601563 345.46875 230.570313 346.84375 C 235.542969 348.21875 237.847656 355.578125 235.722656 363.285156 Z M 260.976563 391.027344 C 253.597656 385.351563 247.285156 377.074219 238.441406 375 C 243.042969 368.503906 245.742188 360.402344 243.441406 351.902344 C 260.242188 352.300781 280.542969 342.703125 294.144531 356.503906 L 299.441406 362.703125 C 303.644531 369.800781 303.441406 380.601563 298.242188 387.203125 C 289.285156 396.949219 275.878906 402.5 260.976563 391.027344 Z M 306.675781 416.269531 L 306.84375 408.800781 L 313.007813 411.269531 Z M 298.941406 398.203125 C 299.042969 397.203125 300.441406 396.601563 300.84375 395.601563 C 313.84375 403.203125 333.441406 402.300781 345.742188 393.703125 C 346.742188 394.101563 347.542969 394.703125 348.34375 395.601563 C 335.242188 404.800781 313.144531 407.101563 298.941406 398.203125 Z M 347.675781 412.933594 L 344.042969 407.601563 L 349.007813 405.269531 Z M 375.242188 391 C 361.488281 396.453125 343.375 389.152344 341.441406 370.601563 C 342.542969 370.203125 343.441406 369.203125 344.542969 368.503906 C 343.695313 380.992188 358.621094 389 370.242188 380.703125 C 373.644531 377.800781 378.542969 374.402344 376.644531 369.203125 C 375.144531 364.601563 368.34375 360.800781 371.644531 355.800781 C 376.34375 352.902344 383.441406 354.203125 388.941406 354.601563 C 392.042969 354.800781 395.34375 355.433594 398.675781 356.269531 C 397.777344 352.867188 397.644531 347.601563 394.644531 345.203125 C 381.441406 345.402344 365.742188 341.601563 355.542969 351.203125 C 354.082031 344.011719 362.414063 342.882813 368.96875 342.230469 C 378.625 341.269531 389.96875 342.613281 399.242188 339.902344 C 398.84375 349.003906 402.242188 356.402344 408.84375 362.503906 C 395.441406 368.800781 390.042969 386.601563 375.242188 391 Z M 425.34375 394.269531 L 431.007813 391.601563 L 431.34375 397.933594 Z M 396.5 392.0625 C 396.214844 392.042969 400.335938 389.941406 400.675781 389.945313 C 415.507813 390.101563 432.410156 386.191406 441.441406 360.300781 C 447.644531 339.203125 439.242188 317.699219 423.242188 302.503906 L 424.941406 299.601563 C 439.488281 313.890625 448.433594 332.386719 446.96875 349.644531 C 445.117188 371.519531 431.078125 394.324219 396.5 392.0625 Z M 393.042969 161.402344 C 390.441406 145.300781 395.742188 129.601563 407.441406 118.703125 C 410.644531 116.003906 413.941406 113.601563 417.441406 111.902344 C 408.941406 127.703125 398.34375 143.703125 393.042969 161.402344 Z M 342.644531 159.703125 C 354.941406 161.402344 365.542969 172.800781 368.242188 184.703125 C 368.542969 186.203125 368.742188 187.703125 369.042969 189.203125 C 356.144531 185.300781 346.042969 171.703125 342.644531 159.703125 Z M 432.144531 178.902344 C 428.84375 192.902344 413.542969 202.300781 401.441406 208.203125 C 403.34375 196.902344 413.144531 184.601563 424.644531 180.601563 C 427.042969 179.601563 429.644531 179.503906 432.144531 178.902344 Z M 327.042969 221.800781 C 337.042969 223.300781 347.242188 225.402344 353.644531 234.800781 C 355.941406 238.199219 358.144531 241.601563 359.644531 245.402344 C 346.144531 243.902344 333.644531 233.699219 327.042969 221.800781 Z M 376.441406 292.902344 C 375.144531 279.402344 380.644531 265.503906 393.042969 258.300781 L 407.078125 249.378906 C 407.078125 249.378906 415.808594 254.953125 415.585938 255.171875 C 411.125 259.507813 404.988281 261.597656 399.941406 265.503906 C 393.367188 271.398438 392.132813 274.523438 395.824219 277.5 C 400.359375 281.160156 408.1875 281.246094 408.34375 289.003906 C 406.988281 303.640625 396.085938 307.476563 384.84375 303.199219 C 380.542969 301.699219 377.542969 297.101563 376.441406 292.902344 Z M 227.941406 321.003906 C 215.941406 316.300781 209.242188 303.601563 208.742188 291.199219 L 208.742188 281.800781 C 219.441406 292.699219 225.144531 306.402344 227.941406 321.003906 Z M 176.34375 324.300781 C 167.441406 323.101563 157.242188 317.199219 154.242188 307.800781 C 152.34375 302.199219 151.042969 296.503906 150.34375 290.503906 C 161.644531 299.402344 172.742188 310.902344 176.34375 324.300781 Z M 314.957031 310.40625 C 315.214844 309.9375 317.386719 306.09375 317.503906 306.089844 C 320.464844 306.019531 323.152344 306.226563 325.84375 306.800781 C 322.742188 316.199219 315.542969 324.101563 315.941406 334.601563 C 319.644531 339.703125 325.542969 335.101563 330.644531 335.800781 C 333.144531 335.703125 335.242188 337.601563 336.34375 339.703125 C 338.84375 345.300781 339.941406 353.402344 336.34375 358.902344 C 332.5625 364.570313 325.128906 366.515625 319.171875 364.945313 C 305.238281 361.28125 299.613281 338.328125 314.957031 310.40625 Z M 118.242188 357.402344 C 111.144531 361.503906 104.042969 365.503906 96.34375 368.203125 C 102.242188 355.402344 116.242188 344.203125 131.144531 344.203125 C 135.941406 344.601563 140.742188 345.003906 144.84375 346.902344 C 135.84375 349.601563 126.542969 352.601563 118.242188 357.402344 Z M 297.742188 383.601563 C 294.441406 388 289.644531 391.101563 284.042969 390.101563 C 278.542969 389.703125 273.742188 386.800781 270.34375 382.402344 C 268.542969 376.457031 273.785156 372.589844 275.621094 367.644531 C 276.898438 364.210938 275.914063 361.605469 271.664063 361.242188 C 268.75 360.992188 259.175781 361.769531 245.644531 366.101563 C 245.84375 362.300781 245.742188 358.003906 248.542969 355.800781 C 248.542969 355.800781 269.222656 350.476563 283.742188 355.050781 C 298.8125 359.796875 303.054688 375.457031 297.742188 383.601563 Z M 157.84375 392 C 156.972656 379.882813 177.292969 357.878906 188.542969 361.003906 C 182.542969 373.902344 170.644531 385.800781 157.84375 392 Z M 228.066406 351.484375 C 224.730469 350.5625 220.867188 354.011719 219.4375 359.183594 C 218.007813 364.355469 219.554688 369.296875 222.894531 370.21875 C 226.230469 371.140625 230.097656 367.695313 231.523438 362.523438 C 232.953125 357.347656 231.40625 352.40625 228.066406 351.484375 Z M 230.023438 362.109375 C 228.949219 365.996094 226.046875 368.589844 223.535156 367.898438 C 221.027344 367.203125 219.863281 363.488281 220.9375 359.597656 C 222.011719 355.707031 224.914063 353.117188 227.425781 353.808594 C 229.9375 354.503906 231.097656 358.21875 230.023438 362.109375 Z M 228.609375 362.003906 C 228 364.535156 226.070313 366.242188 224.296875 365.816406 C 222.527344 365.390625 221.582031 362.996094 222.191406 360.464844 C 222.800781 357.929688 224.730469 356.222656 226.5 356.652344 C 228.273438 357.078125 229.214844 359.472656 228.609375 362.003906 Z M 327.238281 291.296875 C 332.597656 291.589844 337.09375 289.019531 337.28125 285.5625 C 337.46875 282.105469 333.273438 279.066406 327.914063 278.777344 C 322.554688 278.488281 318.058594 281.054688 317.871094 284.511719 C 317.683594 287.96875 321.878906 291.007813 327.238281 291.296875 Z M 327.828125 280.328125 C 331.859375 280.546875 335.011719 282.832031 334.871094 285.433594 C 334.730469 288.03125 331.351563 289.960938 327.320313 289.746094 C 323.292969 289.527344 320.140625 287.242188 320.28125 284.644531 C 320.421875 282.042969 323.800781 280.113281 327.828125 280.328125 Z M 322.472656 284.941406 C 322.511719 283.121094 324.648438 281.6875 327.253906 281.738281 C 329.855469 281.792969 331.9375 283.3125 331.898438 285.136719 C 331.863281 286.957031 329.722656 288.390625 327.117188 288.339844 C 324.515625 288.285156 322.4375 286.765625 322.472656 284.941406 Z M 423.496094 355.011719 C 426.707031 353.710938 427.675781 348.625 425.660156 343.652344 C 423.644531 338.675781 419.410156 335.695313 416.203125 336.996094 C 412.992188 338.296875 412.023438 343.382813 414.039063 348.359375 C 416.054688 353.332031 420.289063 356.3125 423.496094 355.011719 Z M 415.480469 347.773438 C 413.964844 344.03125 414.695313 340.210938 417.105469 339.230469 C 419.519531 338.253906 422.703125 340.492188 424.21875 344.234375 C 425.734375 347.972656 425.007813 351.796875 422.59375 352.777344 C 420.179688 353.753906 416.996094 351.515625 415.480469 347.773438 Z M 421.597656 349.960938 C 419.933594 350.699219 417.726563 349.371094 416.667969 346.992188 C 415.609375 344.613281 416.101563 342.085938 417.765625 341.34375 C 419.433594 340.605469 421.640625 341.933594 422.699219 344.3125 C 423.757813 346.691406 423.265625 349.21875 421.597656 349.960938 Z M 422.644531 240.152344 C 427.003906 243.28125 432.175781 243.539063 434.191406 240.726563 C 436.210938 237.910156 434.3125 233.09375 429.953125 229.964844 C 425.589844 226.835938 420.417969 226.582031 418.402344 229.394531 C 416.382813 232.210938 418.28125 237.027344 422.644531 240.152344 Z M 420.359375 230.800781 C 421.878906 228.6875 425.765625 228.878906 429.046875 231.230469 C 432.324219 233.582031 433.753906 237.203125 432.234375 239.320313 C 430.71875 241.433594 426.828125 241.242188 423.550781 238.890625 C 420.269531 236.539063 418.84375 232.914063 420.359375 230.800781 Z M 422.046875 232.234375 C 423.058594 230.71875 425.636719 230.660156 427.800781 232.105469 C 429.964844 233.554688 430.898438 235.953125 429.890625 237.46875 C 428.878906 238.984375 426.300781 239.042969 424.136719 237.597656 C 421.96875 236.152344 421.035156 233.75 422.046875 232.234375 "/>
</g>
</svg>
