<?xml version="1.0" encoding="UTF-8"?>
<svg xmlns="http://www.w3.org/2000/svg" xmlns:xlink="http://www.w3.org/1999/xlink" width="507pt" height="488pt" viewBox="0 0 507 488" version="1.1">
<g id="surface1">
<path style=" stroke:none;fill-rule:nonzero;fill:rgb(0%,0%,0%);fill-opacity:1;" d="M 464.898438 428.300781 C 466.5 419.699219 469.898438 411.800781 469 402.199219 C 476.5 399.5 484.398438 393.300781 485.5 384.898438 C 489.398438 376.398438 498.601563 374.199219 506.398438 372.898438 C 501.898438 371.5 497.898438 369.101563 493.699219 366.898438 C 485.5 360.398438 484.601563 350.101563 476.699219 343.101563 C 473.398438 340.101563 469.101563 339.300781 464.898438 338.601563 L 458.398438 319.800781 C 456.300781 309.398438 458.101563 298.300781 460.601563 288.601563 C 449.800781 299.601563 436.300781 304.800781 421 304 C 420.699219 298.300781 417.601563 293.398438 413.101563 289.800781 C 416.699219 278.800781 422.300781 268.101563 432.300781 260.101563 C 457.136719 242.742188 484.253906 248.839844 477.898438 294.898438 C 478 309.101563 484.300781 321.398438 495.101563 330.601563 C 493.5 323.5 492.101563 314.699219 494.398438 307.398438 C 499.199219 296.398438 504.699219 285.898438 505.5 273.300781 C 505.101563 256.101563 500.101563 238.800781 483.898438 230.300781 C 475.601563 226.699219 464.800781 226.800781 456 228.699219 C 464.898438 213.199219 472.601563 197.398438 477.101563 180.199219 C 487.101563 148.800781 480.898438 112.898438 457.5 89.699219 C 452.863281 84.585938 447.335938 80.316406 442.097656 75.886719 C 425.957031 62.246094 421.550781 33.605469 422.199219 0.199219 C 413.601563 23.898438 405.5 57.601563 421.199219 80.601563 C 437.601563 103.101563 458.5 123.800781 461.5 151.898438 C 463.699219 183.800781 455.101563 212.5 438.5 237.300781 C 425.5 251.5 411.101563 267 395.5 278.300781 C 391.398438 274.5 388.199219 270 387.101563 264.601563 C 387.398438 266.699219 386.800781 268.5 386.699219 270.398438 C 384.300781 282.898438 370.601563 282.199219 362.898438 288.898438 C 357.199219 293.601563 355.601563 300.300781 356.199219 307.398438 C 353.300781 307.898438 351.101563 306.800781 350.699219 304 C 347 289.5 352.601563 275.199219 365.101563 266.601563 C 393.101563 246.601563 429.101563 227.800781 443.5 194.300781 C 460.699219 153.300781 435.101563 114.5 411.101563 82.699219 C 402.398438 69.398438 399.800781 52.199219 402.300781 35.699219 C 398.5 41.601563 396.898438 48.398438 395.300781 55.101563 C 391 74.800781 401.5 90.101563 409.5 105.5 C 422.699219 128.398438 429.101563 162.601563 411.398438 185.199219 C 404 180.898438 398.699219 172.898438 397.898438 164.800781 C 401 163.898438 403.601563 162 406.101563 159.800781 C 413.398438 153.300781 415.699219 143.898438 413.800781 134.601563 C 411.652344 125.820313 407.578125 120.066406 402.660156 116.675781 C 382.429688 102.738281 353.070313 119.492188 362.199219 150.199219 C 366.5 160.398438 377.398438 165.898438 387.898438 166.699219 C 387.898438 179.199219 391 190.898438 399.101563 200.300781 C 388.398438 211.5 376.398438 219.699219 365.300781 230.101563 C 347.601563 245.5 340 265.398438 340.300781 288.398438 C 340.699219 294.898438 342.199219 301.300781 343.699219 307.101563 C 332 307.101563 321.5 304.101563 312 298.699219 C 321.898438 309.699219 320.199219 325.800781 319.898438 340.699219 L 313.699219 339.800781 C 291.101563 338.699219 296.800781 369.398438 275.5 371.699219 C 280.699219 373.699219 285.699219 376.800781 289.699219 381 C 291.601563 383.800781 294.300781 386.601563 294.699219 389.699219 C 279.300781 395.402344 258.101563 398.5 242.199219 391.597656 C 230.539063 386.039063 229.027344 370.148438 250.601563 359.699219 C 263.800781 353.699219 269.601563 339.699219 272.699219 327 C 267.199219 334 259.699219 337.199219 252 339.300781 C 236.898438 340.398438 221.101563 342 210.800781 354.898438 C 208 358.5 206.398438 362.800781 204.800781 366.601563 C 196.300781 354.398438 182.800781 348.101563 170 343.398438 C 129.601563 331.300781 93.5 351 64.601563 377.398438 C 47.5 392 21.800781 392 0 389.199219 C 11.457031 402.585938 46.71875 401.894531 63.925781 395.472656 C 83.984375 387.988281 101.308594 373.78125 122.199219 368.300781 C 153.101563 358 183.199219 371.398438 206.898438 389.199219 C 212 403 226.300781 414.300781 239.5 419 C 264.300781 427.5 291.101563 419.402344 311.101563 405.5 L 313.898438 406.5 C 312.800781 412 313.398438 418.300781 311.5 423.5 C 294.699219 435.5 274.300781 443.101563 252.5 438.601563 C 220.101563 430 196.699219 399.800781 164.398438 390.597656 C 121.554688 378.144531 84.945313 402.109375 55.410156 431.410156 C 53.648438 433.15625 54.71875 434.023438 57.011719 432.753906 C 62.273438 429.84375 67.636719 427.148438 73 424.5 C 101.601563 411.902344 143.5 398.699219 172.101563 419.199219 C 169.101563 426.097656 161.601563 432.398438 154.398438 433.101563 C 153.300781 430.902344 151.800781 428.800781 150 426.902344 C 143.601563 419.402344 134.101563 416.199219 124.398438 418.5 C 115 420.902344 106.601563 430.5 105.398438 440.101563 C 101.835938 464.167969 126.328125 474.027344 139.671875 469.675781 C 149.773438 466.378906 157.796875 457.335938 157 443.699219 L 157.5 443.199219 C 169.101563 443.101563 178.898438 438.898438 187.199219 431 C 207.398438 451.5 227.601563 475.898438 257.300781 475.398438 C 284.101563 474.601563 308.199219 465.101563 326.898438 445.101563 C 333.800781 445.800781 340 448.199219 346.101563 450.601563 C 349.199219 451.800781 352.699219 452.199219 355.898438 453 C 355.5 457.601563 358.101563 461.101563 361.5 463.800781 C 370.199219 469.601563 383.199219 475.398438 384.5 487.398438 C 386.199219 484 388.300781 480.898438 391 478 C 399.101563 469.300781 415.601563 470.898438 417.398438 456.601563 C 424.699219 456.601563 431.5 455.101563 438.5 454.199219 L 439.199219 454.699219 C 438 461.398438 439 468.898438 442.601563 474.398438 C 446.273438 479.738281 454.820313 483.300781 463.980469 483.722656 C 493.375 485.078125 506.085938 455.121094 489.898438 436.199219 C 483.300781 429.300781 474.101563 426.597656 464.898438 428.300781 Z M 204 377.398438 C 195.5 367.601563 185.398438 360.601563 174 357 C 173.601563 359.300781 172.300781 361.800781 170 362.601563 C 168 363.300781 166.300781 362.300781 164.699219 361.601563 C 163 360 162.5 357.699219 162.800781 355.601563 C 163 355.199219 163.300781 354.699219 163.199219 354.199219 C 160.300781 353.300781 157.101563 353.199219 153.898438 353 C 153.699219 354.898438 153.5 357.398438 151.699219 359 C 149.5 360.5 147.398438 360.199219 145 359.199219 C 142.699219 357.898438 142.300781 355.300781 142.601563 352.699219 C 139.300781 352.398438 135.898438 353.199219 132.800781 353.898438 C 133.699219 355.5 133.101563 357.601563 132.5 359.199219 C 131.101563 361.5 128.398438 362.398438 125.800781 361.601563 C 124.101563 360.800781 122 359.5 122.199219 357.300781 C 117.199219 358.699219 112.5 362.300781 107.800781 365.199219 C 85.957031 380.011719 62.359375 395.875 35.273438 393.933594 C 33.464844 393.804688 33.613281 393.148438 35.460938 392.925781 C 70.199219 388.757813 91.203125 351.578125 125.101563 345.5 C 154.398438 338.5 185.601563 345.601563 203.800781 371 C 203.5 373 204.300781 375.101563 204 377.398438 Z M 112.449219 457.667969 L 111.164063 456.515625 C 113.289063 454.851563 114.75 452.820313 115.015625 450.074219 C 114.789063 447.839844 114.0625 445.613281 112.226563 443.75 C 111.5625 442.488281 109.515625 442.15625 108.425781 441.511719 C 107.804688 441.144531 108.632813 440.039063 108.980469 440.140625 C 112.652344 441.230469 115.882813 443.902344 117.367188 447.726563 C 118.492188 451.925781 115.273438 454.949219 112.449219 457.667969 Z M 147.972656 453.261719 C 145.328125 456.953125 141.140625 459.785156 137.085938 461.25 C 130.390625 463.566406 120.480469 464.207031 114.363281 459.46875 C 118.171875 456.871094 120.574219 452.964844 120 448.332031 C 119.214844 443.109375 114.21875 438.507813 109.679688 436.601563 C 113.503906 429.800781 121.714844 426.175781 128.910156 424.988281 C 143.332031 424.308594 160.464844 435.824219 147.972656 453.261719 Z M 460.800781 365.699219 C 465 362 467.199219 357.398438 467.300781 352 C 478.300781 352.898438 479.601563 365.398438 487.898438 370.5 L 493.199219 373.601563 C 486.199219 375.898438 477.398438 383.398438 476.898438 392.097656 C 474.5 394.5 471.300781 395.199219 468 395.699219 C 463.605469 378.375 444.328125 378.027344 434.699219 383.699219 C 432.101563 384.199219 429.5 383.5 427.5 382.199219 C 425.800781 380.898438 425.101563 378.800781 425.800781 376.699219 C 426.601563 375 427.5 372.699219 429.601563 372.199219 C 440 370.699219 452.199219 372.898438 460.800781 365.699219 Z M 465.601563 151.398438 C 463.996094 122.421875 442.253906 101.730469 425.355469 79.148438 C 416.113281 66.796875 411.992188 53.40625 415.625 32.296875 C 415.804688 31.25 416.402344 31.402344 416.519531 32.496094 C 418.339844 49.660156 422.855469 65.679688 436.300781 77.898438 C 443.601563 86.398438 451 94.699219 456.5 103.898438 C 459.101563 103 463.300781 102.101563 465.601563 105.101563 C 467.101563 106.898438 467.898438 109.699219 466.800781 112 C 466.101563 113.601563 464.601563 115 463 115.601563 C 464.101563 117.601563 464.601563 119.898438 465.898438 121.898438 C 468.164063 120.835938 470.5 121.199219 472.300781 122.101563 C 474.398438 123.199219 475.199219 125.300781 475.5 127.398438 C 475.398438 130.101563 473.164063 133.335938 469 134.800781 L 469.898438 140.800781 C 472 140.5 475.101563 140.199219 476.898438 142 C 479.101563 143.800781 479.398438 146.601563 478.800781 149.199219 C 478.101563 151 476.601563 152.5 474.699219 153.300781 L 471.101563 153.5 C 473.5 183.601563 462.601563 208.898438 447.898438 232 L 444.300781 233.898438 C 458.601563 209.398438 467.101563 182.199219 465.601563 151.398438 Z M 431.644531 249.519531 C 442.75 238.601563 463.429688 224.953125 482.898438 233.898438 C 499.621094 242.875 505.160156 263.742188 501.269531 282.15625 C 500.1875 287.273438 498.378906 292.117188 495.898438 296.300781 C 492.300781 303.101563 489.601563 310.5 490.800781 318.898438 L 490.601563 319.101563 C 484.101563 308.898438 488.199219 295.699219 492 285.5 C 486.792969 285.046875 485.113281 283.242188 484.402344 281.640625 C 483.683594 280.011719 483.394531 278.230469 484.101563 276.398438 C 484.601563 274.5 486.601563 273.300781 488.199219 272.601563 C 489.699219 272.101563 491.601563 272.300781 493 273 C 493.5 270.398438 493 267 492.5 264.199219 C 490.898438 265.398438 488.699219 265.800781 486.699219 265.398438 C 484.601563 264.699219 482.800781 262.898438 482.199219 260.800781 C 481.5 258.601563 482.300781 256.5 483.398438 254.800781 C 484.800781 253.5 486.300781 252.398438 488.199219 252.398438 C 486.8125 248.1875 481 245.699219 481 245.699219 C 480.300781 248.300781 477.5 250 475 250.199219 C 472.601563 250 470.101563 249.101563 469 246.699219 L 468 242.800781 C 440.898438 242.300781 417 261.898438 405.398438 285 L 398.699219 280.699219 C 410.136719 270.652344 420.773438 260.203125 431.644531 249.519531 Z M 365.800781 292 C 372 283.800781 385.699219 288.101563 388.101563 276.398438 C 393.300781 287.398438 409.800781 290.699219 409.199219 304.5 C 400.699219 305.699219 391.699219 311.300781 388.601563 319.800781 C 385.101563 330.5 393.800781 338.101563 393.101563 348.199219 C 392.5 350.101563 390.898438 351.898438 388.800781 352.5 C 387.300781 353 385.300781 352 384.699219 350.300781 C 384.660156 347.777344 385.222656 345.28125 385.808594 342.777344 C 388.007813 333.355469 378.84375 309.800781 367.5 308.300781 L 360.300781 307.398438 C 359.699219 301.199219 361.601563 296 365.800781 292 Z M 406.132813 381 C 406.132813 391.933594 397.269531 400.796875 386.335938 400.796875 C 375.398438 400.796875 366.535156 391.933594 366.535156 381 C 366.535156 370.066406 375.398438 361.199219 386.335938 361.199219 C 397.269531 361.199219 406.132813 370.066406 406.132813 381 Z M 376.296875 123.882813 C 377.476563 124.347656 379 125.753906 380.398438 125.5 C 383 125.800781 385.199219 125 387.101563 123.800781 C 389.101563 121.898438 389.800781 119.5 389.800781 116.800781 L 391.5 117.101563 C 391.101563 121 390.699219 125.398438 386.699219 127.101563 C 382.773438 128.285156 378.679688 127.390625 375.558594 125.164063 C 375.265625 124.957031 375.625 123.621094 376.296875 123.882813 Z M 375.898438 150.199219 C 372.398438 143.800781 370.199219 135.101563 373.199219 127.898438 C 377.5 130.300781 384.199219 131.398438 388.800781 128.800781 C 392.800781 126.398438 394.398438 122.101563 394.101563 117.5 C 401.601563 119.398438 407.199219 127.601563 409.5 134.300781 C 410.84375 138.398438 411.195313 143.441406 409.914063 147.800781 C 403.875 168.382813 384.25 161.980469 375.898438 150.199219 Z M 393.601563 166.5 C 394.300781 166.300781 394.800781 165.800781 395.5 166 C 397.199219 175 399.898438 183.800781 408.300781 189.5 C 407.800781 190.699219 406.800781 191.601563 406.101563 192.699219 C 398.601563 186 393.699219 176.601563 393.601563 166.5 Z M 347.101563 263.699219 C 352.300781 246.601563 369.800781 236.300781 382.300781 223.101563 C 411 197.898438 435.699219 166.601563 423.398438 127.601563 C 418.121094 103.34375 394.757813 84.828125 397.511719 58.722656 C 397.734375 56.632813 398.523438 56.992188 398.605469 59.359375 C 399.0625 71.96875 405.558594 85.75 411.109375 93.722656 C 421.257813 108.296875 431.570313 122.785156 435.101563 140.101563 C 440.019531 139.28125 444.058594 142.664063 442.800781 148.699219 C 442.199219 151.300781 439.398438 152.601563 437.101563 153.101563 L 437.101563 159.300781 C 439.101563 159.101563 441.5 158.5 443.5 159.800781 C 445.300781 161.101563 446.5 163.101563 446.699219 165.300781 C 446.699219 169.691406 440.898438 172.671875 437.949219 171.300781 C 436.5 170.625 435.398438 170.351563 435.398438 173.5 C 434.800781 175.898438 434.601563 178.601563 433.699219 180.898438 C 435.601563 180.5 438.5 180.398438 440.199219 181.898438 C 441.800781 183.398438 443 185.300781 442.800781 187.601563 C 442.199219 189.199219 442.199219 191 440.699219 192.199219 C 439.3125 193.667969 433.421875 195.078125 430.601563 190.5 C 428.5 193.5 426.800781 197.101563 424.800781 200.300781 C 427.199219 200.898438 429.898438 201.800781 431.101563 204.199219 C 431.800781 206.199219 431.898438 209.199219 430.601563 210.898438 C 429.398438 212.601563 427.300781 213.5 425.300781 213.800781 C 422.898438 213.601563 419.199219 209.300781 418.800781 209 L 413.300781 215.199219 C 415 216.898438 416.699219 219 416.398438 221.699219 C 415.820313 228.070313 411.503906 229.351563 406.800781 227 L 404.199219 224.601563 C 385.5 242.800781 360.898438 256.101563 348 279.300781 C 344.5 287.800781 345.199219 299 349.199219 307.101563 C 347.613281 307.277344 346.863281 306.460938 346.398438 305.308594 C 343.539063 298.199219 341.96875 280.601563 347.101563 263.699219 Z M 373.898438 317.398438 C 381.300781 324.699219 379.300781 336.800781 376.601563 345.5 C 376.699219 350.101563 377.5 354.699219 381.601563 357.5 C 376 359.300781 369.300781 362.898438 365.101563 368.800781 C 358.101563 361.300781 348.101563 367.898438 339.398438 366.898438 C 334 366.601563 328.699219 363.601563 326.398438 358.5 C 319.5 342.800781 328.300781 322.300781 320.699219 306.898438 C 335.5 317.601563 358.898438 307.5 373.898438 317.398438 Z M 279.398438 414.902344 C 277.800781 417 275.699219 417.699219 273.398438 418 C 271 417.800781 268.800781 417.097656 267.101563 415.097656 C 266.300781 413.902344 265.5 412.597656 265.5 411 L 256.800781 411 C 256.300781 413.699219 255.398438 416.699219 252.5 418 C 250.601563 419.300781 247.601563 418.699219 245.5 418 C 243.601563 417.199219 242.601563 415.097656 241.699219 413.402344 L 241.5 408.199219 C 239.46875 408.070313 237.265625 406.347656 235.339844 406.445313 C 232.664063 409.667969 227.800781 409.699219 225.601563 408.597656 C 223.898438 407.699219 222.300781 405.902344 221.800781 404.097656 C 221.398438 401.800781 221.300781 399.199219 222.800781 397.402344 C 221.585938 395.648438 220.601563 393.4375 218.738281 392.523438 C 214.664063 392.332031 212.21875 391.816406 210.5 388 C 209.601563 385.898438 210 383 211 381 L 214.398438 377.699219 C 211.585938 360.8125 221.589844 351.675781 237.992188 347.957031 C 246.304688 346.074219 255.039063 345.203125 261.898438 339.800781 C 261.214844 341.445313 260.402344 343.054688 259.472656 344.613281 C 250.347656 359.984375 231.46875 357.886719 229.699219 376 C 228.398438 383.398438 232.300781 389.902344 238.601563 393.800781 C 256.699219 402.597656 278.601563 399.402344 296.898438 393.300781 C 298.699219 396.300781 300.300781 399.402344 303.101563 401.902344 C 296.5 406 288.199219 407.097656 280.601563 409.402344 C 280.800781 411.199219 280.300781 413.300781 279.398438 414.902344 Z M 291.398438 375.5 L 287.800781 372.398438 C 301.300781 368.800781 303.5 346.601563 320.199219 352.199219 C 321 359.199219 323.199219 366.699219 330.5 370 C 338.789063 374.269531 353.554688 368.832031 358.683594 376.652344 C 363.058594 383.324219 357.234375 388.335938 354.253906 387.691406 C 348.589844 386.464844 343.902344 382.097656 337.199219 383.199219 C 328.398438 383.199219 319.601563 388.5 316.300781 396.902344 L 314.898438 401.402344 C 299.199219 401.402344 301.699219 383.101563 291.398438 375.5 Z M 156.300781 437.398438 L 155.800781 435.800781 C 163.5 433.199219 172.199219 430.5 176.398438 422.097656 C 177.398438 422.800781 178.398438 423.5 179.300781 424.199219 C 173.601563 431.902344 165.601563 437 156.300781 437.398438 Z M 222.148438 459.617188 C 205.453125 448.59375 193.390625 428.964844 177.601563 416.300781 C 147.339844 392.167969 98.640625 408.640625 80.761719 415.898438 C 77.5 417.226563 76.386719 416.097656 79.246094 414.199219 C 105.164063 396.996094 142.167969 388.839844 170.898438 405.5 L 186 415.597656 C 186.601563 413.5 188 411.402344 190.101563 410.300781 C 191.898438 409.300781 194.101563 410.097656 195.898438 410.597656 C 198 412 199.601563 414.097656 199.199219 416.800781 C 199.398438 419.402344 197.199219 421.5 195.199219 422.800781 C 197.199219 424.5 199.300781 426.199219 201.398438 427.800781 C 202.601563 426.097656 203.800781 423.300781 206.199219 422.597656 C 208.101563 421.199219 211 422 212.898438 422.800781 C 214.898438 423.699219 216 425.800781 216.800781 427.597656 C 217.199219 430.800781 216.5 434.300781 213.601563 436.199219 L 220.398438 440.300781 C 221.101563 438 222.300781 435.300781 224.898438 434.300781 C 226.5 433.199219 229.398438 433.5 231.199219 434.101563 C 233.101563 435 234.800781 436.898438 235.5 438.898438 C 236 441.601563 235.800781 444.601563 233.800781 446.601563 C 236.398438 448.300781 239.601563 448.5 242.398438 449.699219 C 242.800781 447.101563 244.199219 444.5 246.699219 443.199219 C 248.898438 442 251.800781 442.601563 253.898438 443.398438 C 258.941406 446.550781 257.300781 453.300781 257.300781 453.300781 L 267.601563 454.5 C 267.398438 452 267.398438 449.5 268.800781 447.300781 C 270.699219 445.398438 272.699219 443.800781 275.5 444.199219 C 278.800781 444.398438 281.5 446.699219 282.5 449.699219 C 283 450.601563 282.699219 451.898438 282.699219 453 C 288.5 452.699219 293.800781 450 298.800781 447.300781 C 305.5 446.398438 311.800781 445.101563 318.699219 444.898438 C 290.273438 472.257813 249.992188 478.003906 222.148438 459.617188 Z M 400.601563 465.5 C 393.800781 467.101563 385.5 471 384.5 479 C 380.699219 471.101563 372.398438 466.898438 365.300781 463.601563 C 361.199219 461.199219 360.898438 456.800781 360.5 452.601563 C 367.5 450.601563 376.398438 446.898438 378 438.601563 C 378.800781 431.5 375.601563 422.097656 383.5 418.5 C 389.300781 416.097656 396.398438 418.097656 398.898438 424.199219 C 400.800781 432.398438 396.5 442.800781 403.5 449.199219 L 408 453.5 C 407.101563 458.101563 405.300781 463.300781 400.601563 465.5 Z M 413.101563 448 C 410.199219 447.898438 407.601563 446.699219 405.601563 444.398438 C 398.898438 436.300781 406.699219 421.597656 395.300781 416.097656 C 391.199219 413.402344 384.898438 413 380.199219 414.597656 C 368.5 421.800781 375.800781 444.5 356.898438 442.699219 C 342.398438 440.398438 331.398438 428.699219 314.898438 431.902344 C 319.398438 416.097656 312.199219 389.5 335.800781 387.5 C 345.898438 385.199219 352.800781 394.800781 362.398438 391.402344 C 363.496094 401.523438 375.105469 409.324219 387.421875 411.027344 C 412.050781 414.433594 422.054688 385.210938 415.148438 371.925781 C 411.496094 364.902344 403.972656 359.058594 396.699219 357.300781 C 398.601563 356.601563 400.5 354.601563 401.101563 352.699219 C 402.199219 347.863281 399.816406 344.335938 397.164063 340.871094 C 386.8125 327.355469 391.132813 317.992188 400.601563 311.398438 C 413.898438 303.699219 433 310.300781 446.398438 302.800781 C 440.5 321.800781 458.800781 335.398438 455.800781 354.601563 C 450.800781 365.699219 437.699219 364 427.898438 367.101563 C 423.699219 368.101563 423.101563 372.601563 422.199219 376 C 422.300781 380.199219 423.5 384.398438 427.5 386.601563 C 438.398438 389.5 449 377.199219 458.699219 387 C 472.300781 398.699219 463.601563 419.097656 459.601563 432.398438 C 459.101563 436.199219 458.601563 440.398438 459.101563 444.398438 C 443.601563 435.800781 428.898438 448 413.101563 448 Z M 488.199219 464.800781 C 485.699219 463.898438 482.601563 462.5 480 464.101563 C 478.101563 465.800781 478.199219 468.601563 478.601563 471 C 479.199219 472.101563 479.601563 473.199219 480.5 474.199219 L 478.101563 475.398438 C 475.898438 472.199219 473.601563 467.898438 475.898438 464.101563 C 477.601563 461.800781 480.101563 460.601563 482.898438 460.5 C 484.398438 461.027344 487.25 460.707031 488.328125 461.78125 C 488.6875 462.136719 488.101563 464.199219 488.199219 464.800781 Z M 489.898438 457.398438 C 485.199219 455.800781 478.800781 455 474.699219 458.601563 C 472.199219 460.800781 470.800781 463.601563 470.398438 466.699219 C 470.199219 470.398438 471.300781 473.5 472.601563 476.601563 C 465.601563 477.800781 458.101563 475.300781 453.898438 469.101563 C 451.398438 465.199219 451.5 459.5 451.898438 455 C 457.609375 455.679688 462.738281 457.816406 467.65625 460.351563 C 468.511719 460.789063 469.273438 459.84375 468.640625 458.914063 C 467.511719 457.261719 466.167969 455.59375 465.398438 453.800781 C 462.101563 447.601563 461.300781 438.300781 464.199219 431.699219 C 472.601563 429.597656 480 433.398438 485.300781 439.601563 C 489.300781 444.5 490.5 450.898438 489.898438 457.398438 Z M 375.101563 309.300781 L 368.898438 306.898438 C 380.417969 305.144531 382.996094 294.699219 384.875 287.632813 C 385.160156 286.558594 385.703125 286.824219 385.96875 288.078125 C 387.539063 295.476563 392.859375 302.390625 400.300781 304.699219 C 394.898438 307.398438 387.601563 312 386.699219 318.898438 C 386.699219 318.898438 385.449219 320.4375 384.886719 319.046875 C 383.199219 314.867188 379.601563 310.875 375.101563 309.300781 Z M 418.601563 372.199219 C 415 365.5 409.601563 359.898438 403.199219 356.101563 C 408.601563 342 390.699219 334.199219 396 320.800781 C 403.335938 313.335938 410.699219 317.898438 410.699219 317.898438 C 406.398438 320 402.699219 324.398438 402.5 329.199219 C 402.601563 331.300781 403.300781 333.101563 405.101563 334.5 C 406.898438 330 411.699219 326.699219 416.699219 326.800781 C 418.800781 326.699219 420.5 327.699219 422.199219 328.699219 C 417.101563 331.601563 408.898438 334.699219 409.5 342.398438 C 414.800781 343.199219 419.199219 339.800781 422.699219 335.699219 C 424.898438 332.800781 426.101563 329.101563 426.300781 325.601563 C 428 328.101563 429 331.199219 428.199219 334.5 C 425.699219 340.199219 419 345.898438 423.601563 352.699219 C 425.800781 348.101563 429.5 341.898438 435.398438 341.199219 C 438.601563 341 441.5 341.398438 443.800781 343.398438 C 438.300781 344.5 432.5 349 429.898438 354.398438 C 438.300781 354.699219 446.898438 349.800781 450.5 341.699219 C 452.398438 346 451.398438 353 448.601563 357.300781 C 440.398438 366.601563 423 357.800781 418.601563 372.199219 Z M 329.5 356.300781 C 328.800781 353.898438 328 351.5 328.300781 348.601563 C 333.164063 353.730469 339.589844 357.058594 346.683594 356.65625 C 347.609375 356.601563 347.84375 355.433594 347.003906 354.992188 C 344.226563 353.542969 341.441406 351.9375 339.601563 349.101563 C 338.5 345.898438 337.5 342.601563 337.199219 339 C 343.0625 341.800781 350.074219 344.601563 353.8125 350.480469 C 354.34375 351.320313 355.417969 350.675781 355.378906 349.347656 C 355.242188 344.492188 353.703125 339.234375 349.699219 335.699219 C 354.601563 336.300781 359.398438 338.699219 361.898438 343.398438 C 362.800781 345.101563 363.398438 347 363.898438 348.898438 C 365.699219 344.898438 366.699219 339 363.898438 335 C 361.300781 331.5 357.699219 328.601563 354.5 325.800781 C 358.101563 325.601563 362.398438 325.898438 365.5 328 C 368.601563 330.898438 369.601563 334.601563 370.101563 338.601563 C 372.800781 333.800781 372.199219 327.101563 370.601563 322 C 381 330.101563 371.699219 343.398438 374.699219 353.699219 L 376.300781 356.800781 C 372.300781 358.5 368.199219 360.601563 365.101563 364.199219 C 354.101563 355.800781 337.199219 371.601563 329.5 356.300781 Z M 299.5 373.601563 C 307.109375 373.507813 314.886719 371.734375 319.132813 365.203125 C 319.519531 364.609375 324.144531 369.847656 326.199219 371.199219 C 333.285156 377.148438 345.734375 371.003906 352.820313 376.609375 C 359.65625 382.015625 354.117188 383.898438 350.257813 382.988281 C 338.414063 380.199219 328.09375 378.96875 319.5 388 C 316.5 379.398438 306.699219 377.101563 299.5 373.601563 Z M 432.5 373.398438 C 459.335938 377 465.601563 364 465.601563 364 C 470.027344 370.558594 477.277344 372.949219 484.320313 373.765625 C 485.867188 373.941406 486.0625 374.652344 484.664063 374.984375 C 477.515625 376.671875 470.753906 379.382813 464.898438 384.398438 C 462 378 457.296875 377.316406 455.363281 377.074219 C 449.203125 376.3125 442.578125 379.597656 436.800781 380.800781 C 434 380.601563 431.101563 380 429.601563 377.199219 C 428.699219 374.898438 431 373.800781 432.5 373.398438 Z M 448.800781 396.902344 C 443.699219 394.699219 435.800781 395.402344 431.300781 399.5 C 434 400.199219 436.699219 400.902344 439 402.597656 C 441.300781 404.5 442.699219 406.699219 443.101563 409.402344 C 442.699219 410.699219 442.898438 412.199219 441.898438 413.199219 C 440.398438 407.699219 434.5 405.699219 429.601563 405 C 428.101563 405.199219 427.394531 406.152344 428.5625 406.605469 C 433.117188 408.367188 437.671875 411.445313 439.5 416.300781 C 441.199219 421.5 439.601563 427.699219 436.800781 432.199219 C 436.699219 425.199219 432.5 418.199219 425.800781 415.597656 C 424.699219 415.402344 423.800781 414.699219 422.699219 414.597656 C 422.800781 419.699219 422.5 425.902344 428.199219 428.597656 C 429.300781 429.5 430.699219 429.597656 431.800781 430.5 C 426.699219 431.097656 421.101563 431.5 417.101563 428.097656 C 416.300781 426.699219 415.199219 425.402344 415 423.800781 C 413.898438 426.800781 413.898438 431.199219 415.199219 434.101563 C 418.199219 437.5 422.800781 437.800781 427.199219 438.199219 C 422 440.199219 414 442.800781 409 437.898438 C 403.699219 431.097656 409.898438 420.300781 401.800781 414.902344 C 412.398438 410.902344 421.898438 399.902344 421.898438 388 C 424.5 390.402344 429 391.5 432.5 389.902344 C 436.101563 387.800781 440.699219 387.800781 444.300781 389.902344 C 446.5 391.800781 448.199219 394.199219 448.800781 396.902344 Z M 376.300781 412.699219 C 367.300781 420.5 375.5 439.398438 359.101563 440.101563 C 357 440.101563 354.800781 440.398438 353.300781 438.898438 C 356.5 437.601563 360.699219 435.199219 361.898438 431.402344 C 362.351563 430.050781 362.824219 428.652344 363.160156 427.238281 C 363.5 425.824219 362.367188 425.09375 361.570313 425.90625 C 358.992188 428.535156 355.265625 429.617188 351.601563 430 L 348 429.5 C 350.328125 423.5 355.300781 418.542969 361.054688 415.777344 C 361.726563 415.457031 361.929688 413.65625 361.140625 413.5625 C 355.609375 412.90625 351.476563 417.75 347.800781 421.597656 C 346.898438 418.800781 347.199219 415.199219 348.5 412.699219 C 350.601563 409.699219 353.800781 408 356.398438 406.199219 C 353.5 405.800781 350.101563 405.699219 348 407.902344 C 345.5 412.5 345.101563 421.199219 337.699219 420.597656 C 335.398438 420.699219 333.5 419.597656 331.5 419 C 338.800781 416.300781 342 408.800781 342.5 401.402344 C 339.601563 402 335.898438 404.699219 334.800781 407.902344 L 333.601563 414.597656 C 331.5 411.800781 330.101563 408.300781 331 404.597656 C 331.382813 402.238281 333.214844 400.046875 335.261719 398.566406 C 335.898438 398.101563 335.460938 397.183594 334.628906 397.265625 C 330.832031 397.636719 327.578125 400.484375 325.199219 403.597656 C 324.800781 404.902344 323.898438 406.097656 323.5 407.402344 C 321.5 403.800781 323.898438 399.800781 326.199219 396.902344 C 333.300781 388.199219 346.300781 391.800781 355.199219 394 L 358.800781 393.800781 C 360.5 402.402344 368.800781 409 376.300781 412.699219 Z M 402.300781 451.398438 C 396.699219 452.398438 390.101563 454.199219 387.101563 460 C 386.449219 461.550781 385.898438 463.152344 385.4375 464.789063 C 384.976563 466.425781 384.050781 466.738281 383.820313 465.257813 C 382.835938 458.945313 380.441406 453.234375 375.101563 448.699219 C 379.5 442.898438 382.699219 436.601563 381.601563 428.597656 C 382.398438 425.300781 385.398438 422.699219 388.601563 421.800781 C 391 422.097656 393.5 422.199219 395.5 423.5 C 400.398438 430.5 393.101563 438.398438 397.199219 445.398438 C 398.398438 447.601563 400.300781 449.5 402.300781 451.398438 Z M 386.335938 368.605469 C 393.363281 368.605469 399.0625 374.304688 399.0625 381.335938 C 399.0625 388.363281 393.363281 394.0625 386.335938 394.0625 C 379.304688 394.0625 373.605469 388.363281 373.605469 381.335938 C 373.605469 374.304688 379.304688 368.605469 386.335938 368.605469 "/>
</g>
</svg>
