<?xml version="1.0" encoding="UTF-8"?>
<svg xmlns="http://www.w3.org/2000/svg" xmlns:xlink="http://www.w3.org/1999/xlink" width="439pt" height="536pt" viewBox="0 0 439 536" version="1.1">
<g id="surface1">
<path style=" stroke:none;fill-rule:nonzero;fill:rgb(0%,0%,0%);fill-opacity:1;" d="M 377.4375 454.582031 C 367.515625 445.980469 361.195313 455.40625 353.992188 460.695313 C 346.96875 465.863281 339.3125 463.507813 341.65625 458.378906 C 349.355469 441.539063 368.898438 428.1875 378.023438 412.507813 C 388.132813 395.128906 379.699219 388.984375 368.144531 377.679688 C 337.851563 348.050781 301.34375 321.621094 269.097656 294.644531 C 259.289063 286.4375 256.582031 286.015625 245.984375 288.746094 C 238.757813 290.609375 231.53125 292.363281 225.125 291.652344 C 217.492188 290.804688 221.664063 276.355469 229.042969 275.960938 C 245.0625 275.105469 256.335938 263.070313 268.53125 253.800781 C 270.078125 257.15625 272.144531 259.992188 275.757813 258.445313 C 287 251.832031 296.121094 253.058594 305.84375 255.875 C 320.941406 260.257813 325.050781 260.546875 333.71875 254.113281 C 375.476563 223.117188 360.089844 185.640625 344.8125 146.46875 C 333.984375 118.707031 323.210938 90.097656 332.863281 62.34375 C 336.09375 53.054688 334.792969 48.441406 329.769531 39.386719 C 315.152344 13.0625 254.648438 -7.804688 229.300781 3.199219 C 194.089844 18.480469 153.507813 2.628906 125.800781 26.558594 C 107.464844 42.394531 89.773438 84.851563 90.464844 115.328125 C 90.792969 129.914063 87.328125 143.351563 83.03125 156.378906 C 64.660156 212.066406 58.503906 244.921875 96.855469 264.734375 C 115.210938 274.21875 127.679688 270.761719 133.800781 266.210938 C 146.824219 256.527344 169.914063 275.128906 180.222656 275.285156 C 187.035156 275.394531 188.171875 276.851563 185.871094 282.15625 C 184.078125 286.304688 181.175781 289.996094 176.65625 290.964844 C 154.558594 292.191406 67.53125 318.789063 45.960938 327.847656 C 7.273438 344.09375 -6.226563 355.046875 6.742188 381.472656 C 10.050781 388.214844 35.835938 411.851563 43.71875 417.203125 C 56.605469 425.953125 71.351563 432.089844 82.71875 439.613281 C 82.71875 439.613281 84.417969 447.125 82.277344 450.265625 C 77.804688 456.824219 66.988281 462.554688 62.035156 468.886719 C 59.1875 472.527344 55.128906 466.257813 54.269531 465.027344 C 50.175781 459.144531 40.0625 460.414063 33.167969 469.035156 C 27.671875 451.628906 9.742188 454.675781 3.707031 466.75 C -2.082031 478.328125 1.460938 493.894531 4.574219 499.453125 C 19.035156 525.273438 52.480469 519.863281 79.96875 522.652344 C 97.738281 524.453125 114.523438 513.273438 124.578125 478.78125 C 128.855469 464.109375 128.621094 445.269531 136.4375 432.097656 C 141.886719 422.921875 136.246094 416.199219 124.886719 410.179688 C 112.101563 403.402344 110.21875 395.910156 114.09375 383.992188 C 118.820313 369.457031 132.035156 358.164063 142.074219 347.738281 C 125.019531 344.566406 107.964844 349.621094 93.015625 358.691406 C 73.398438 370.597656 70.324219 384.152344 92.558594 397.050781 C 100.679688 401.761719 109.9375 405.960938 114.71875 412.257813 C 104.910156 424.644531 87.878906 417.9375 77.554688 429.808594 C 54.84375 423.574219 36.363281 403.125 19.121094 385.699219 C 6.339844 372.777344 1.203125 353.109375 33.242188 339.851563 C 67.578125 325.644531 104.09375 313.957031 140.988281 307.726563 C 159.859375 304.539063 175.609375 299.714844 181.972656 306.542969 C 200.753906 326.703125 218.871094 310.074219 237.851563 301.570313 C 253.144531 294.722656 258.296875 295.640625 266.226563 302.636719 C 296.335938 329.191406 332.929688 350.363281 362.726563 379.730469 C 374.285156 391.121094 380.898438 395.5625 368.015625 416.015625 C 357.71875 432.363281 338.371094 445.589844 327.890625 464.390625 C 314.46875 462.84375 302.082031 458.195313 290.726563 449.421875 C 298.523438 431.878906 331.625 428.597656 330.953125 404.394531 C 330.621094 392.308594 290.757813 355.191406 268.21875 330.601563 C 265.269531 327.378906 258.144531 327.335938 260.296875 331.3125 C 267.546875 344.722656 280.480469 353.449219 292.488281 363.136719 C 305.289063 373.464844 311.738281 392.21875 287.203125 412.449219 C 257.429688 437.003906 264.75 448.207031 268.5625 457.875 C 276.074219 476.925781 276.652344 500.242188 275.976563 520.648438 C 275.796875 526.09375 279.097656 526.652344 280.558594 521 C 281.085938 518.96875 280.964844 516.691406 280.902344 514.457031 C 280.570313 501.992188 287.566406 504.335938 291.878906 510.273438 C 295.109375 514.730469 297.984375 520.195313 301.398438 524.953125 C 310.691406 537.898438 317.414063 536.6875 327.941406 533.433594 C 341.949219 529.101563 356.5625 529.074219 369.839844 526.09375 C 402.136719 518.847656 422.574219 481.648438 401.503906 458.230469 C 397.652344 453.949219 382.507813 443.433594 377.4375 454.582031 Z M 91.726563 386.742188 C 84.339844 380.339844 84.453125 377.34375 92.152344 369.8125 C 98.398438 363.699219 107.355469 359.257813 114.71875 357.546875 C 115.578125 365.289063 107.300781 375.179688 105.5625 385.28125 C 103.980469 394.457031 102.015625 395.65625 91.726563 386.742188 Z M 125.039063 419.484375 L 127.882813 422.066406 C 127.882813 425.160156 122.976563 427.226563 119.878906 427.226563 Z M 107.492188 429.808594 L 95.105469 433.421875 C 92.734375 430 103.832031 424.054688 107.492188 429.808594 Z M 98.628906 443.460938 C 104.910156 440.753906 112.828125 438.632813 118.851563 437.035156 C 119.875 462.789063 111.253906 480.382813 106.503906 494.699219 C 99.976563 514.371094 75.984375 515.289063 66.542969 512.671875 C 52.746094 508.851563 34.933594 511.554688 22.296875 505.84375 C 14.613281 502.375 9.136719 492.082031 7.128906 483.96875 C 3.699219 470.101563 16.460938 460.316406 22.617188 466.417969 C 29.4375 473.171875 29.101563 481.300781 27.160156 489.933594 C 25.605469 496.839844 33.605469 496.757813 35.476563 493.988281 C 39.238281 488.417969 36.367188 480.082031 36.871094 475.472656 C 37.972656 465.417969 50.832031 469.976563 45.296875 476.714844 C 43.632813 478.742188 42.941406 482.25 42.859375 485.511719 C 42.6875 492.566406 54.363281 492.109375 56.285156 485.015625 C 58.015625 478.625 72.335938 473.800781 82.699219 464.445313 C 89.738281 458.089844 92.027344 446.300781 98.628906 443.460938 Z M 266.097656 97.078125 C 264.953125 104.28125 259.234375 110.730469 252.308594 114.3125 C 248.0625 116.507813 246.777344 114.738281 248.664063 112.472656 C 252.9375 107.34375 256.414063 99.222656 251.472656 95.757813 C 247.695313 93.113281 242.410156 97.019531 237.523438 105.46875 C 235.488281 108.613281 235.132813 102.949219 236.945313 100.105469 C 247.425781 83.6875 269.285156 77 266.097656 97.078125 Z M 253.070313 129.558594 C 252.441406 131.65625 250.269531 134.570313 248.914063 136.542969 C 246.835938 139.570313 246.449219 139.734375 244.839844 135.316406 C 243.988281 132.976563 242.726563 130.296875 241.007813 127.421875 C 240.269531 126.1875 240.917969 125.214844 242.648438 125.714844 C 245.660156 126.585938 248.828125 128 251.769531 127.738281 C 253.464844 127.589844 253.511719 128.097656 253.070313 129.558594 Z M 164.65625 61.445313 C 174.144531 47.75 182.007813 55.53125 191.179688 62.875 C 203.894531 73.050781 207.269531 70.3125 220.9375 68.378906 C 229.726563 67.136719 236.722656 68.894531 244.921875 72.425781 C 249.777344 74.515625 248.3125 77.308594 247.214844 78.160156 C 240.714844 83.210938 232.296875 86.492188 228.132813 90.636719 C 221.335938 97.40625 221.59375 104.757813 228.15625 113.085938 C 228.660156 113.726563 226.957031 114.789063 226.046875 114.414063 C 222.476563 112.949219 213.21875 112.265625 207.648438 113.699219 C 204.304688 114.5625 203.953125 111.914063 206.800781 110.390625 C 218.515625 104.113281 215.488281 92.746094 197.761719 94.050781 C 189.433594 94.664063 180.347656 89.335938 176.476563 81.292969 C 173.910156 75.972656 171.625 70.65625 166.609375 67.425781 C 163.429688 65.378906 163 63.832031 164.65625 61.445313 Z M 189.238281 111.136719 C 190.101563 106.367188 192.070313 105.625 193.914063 108.390625 C 195.507813 110.777344 196.179688 116.171875 189.394531 120.4375 C 165.296875 135.601563 161.796875 113.496094 166.113281 105.238281 C 170.128906 97.5625 175.570313 98.1875 177.875 101.132813 C 179.398438 103.078125 178.820313 106.335938 178.152344 107.832031 C 171.828125 121.964844 186.496094 126.277344 189.238281 111.136719 Z M 198.484375 136.003906 C 211.34375 118.503906 239.132813 128.878906 231.414063 148.984375 C 217.691406 184.730469 176.714844 165.636719 198.484375 136.003906 Z M 214.597656 276.484375 C 215.742188 285.011719 208.921875 292.746094 213.894531 298.621094 C 221.664063 307.804688 191.890625 309.804688 189.816406 299.765625 C 188.664063 294.199219 193.710938 287.597656 196.847656 281.21875 C 202.472656 269.796875 196.597656 263.453125 186.1875 264.246094 C 161.921875 266.089844 144.820313 253.703125 135.1875 240.605469 C 116.105469 214.648438 113.621094 175.335938 122.460938 142.3125 C 119.808594 139.511719 116.425781 139.324219 110.226563 140.957031 C 96.609375 144.539063 91.296875 133.042969 96.246094 115.320313 C 101.042969 98.144531 126.039063 90.980469 135.765625 104.671875 C 139.773438 110.3125 140.878906 111.636719 144.9375 108.171875 C 148.519531 105.109375 146.171875 100.570313 145.089844 96.398438 C 143.722656 91.109375 157.042969 72.632813 157.042969 72.632813 C 159.625 77.535156 163.238281 81.40625 166.851563 85.019531 C 139.882813 101.5 168.484375 131.996094 142.3125 147.980469 C 134.929688 152.492188 139.363281 163.351563 145.753906 156.808594 C 154.574219 147.777344 157.921875 122.285156 174.097656 134.929688 C 175.476563 136.003906 180.257813 136.609375 183.589844 136.90625 C 185.53125 137.078125 185.089844 138.296875 184.179688 138.949219 C 173.496094 146.59375 165.859375 161.226563 164.371094 174.242188 C 163.449219 182.335938 171.019531 181.90625 174.886719 172.453125 C 177.015625 167.246094 177.898438 161.199219 181.816406 157.28125 C 194.589844 187.613281 212.097656 187.15625 227.695313 170.800781 C 233.621094 164.585938 238.917969 158.019531 245.929688 157.253906 C 249.488281 156.863281 250.671875 154.507813 252.207031 151.699219 C 261.207031 135.222656 263.136719 120.652344 271.777344 104.269531 C 276.757813 94.832031 277.761719 86.585938 270.867188 77.832031 C 269.019531 75.488281 269.171875 74.375 272.101563 75.503906 C 277.902344 77.742188 285.15625 87.101563 281.761719 92.085938 C 279.011719 96.113281 284.449219 116.046875 298.503906 117.4375 C 299.160156 117.503906 300.457031 115.976563 300.550781 115.316406 C 301.46875 108.878906 310.207031 109.648438 310.9375 102.664063 C 311.507813 97.21875 303.589844 96.378906 297.511719 96.839844 C 293.65625 97.128906 293.460938 96.441406 295.550781 94.300781 C 301.949219 87.734375 315.605469 86.367188 317.976563 97.945313 C 321.179688 113.609375 306.28125 126.71875 301.179688 122.890625 C 298.128906 120.601563 293.03125 123.261719 293.601563 131.0625 C 296.425781 169.785156 292.453125 210.324219 269.105469 239.597656 C 254.472656 257.945313 242.410156 261.867188 227.3125 265.246094 C 218.8125 267.152344 213.714844 269.894531 214.597656 276.484375 Z M 284.367188 441.355469 C 282.894531 444.859375 283.726563 449.414063 282.605469 450.714844 C 280.835938 452.78125 279.335938 455.128906 278.820313 457.367188 C 278.5 458.777344 277.675781 459.261719 276.59375 457.453125 C 272.734375 450.984375 265.5625 439.789063 287.855469 422.109375 C 299.433594 412.929688 312.550781 405.613281 312.921875 390.0625 C 325.003906 397.882813 327.824219 409.75 314.746094 416.675781 C 305.441406 421.601563 288.632813 431.214844 284.367188 441.355469 Z M 399.425781 489.082031 C 389.121094 514.425781 360.320313 516.636719 334.945313 521.863281 C 317.546875 525.449219 312.546875 526.640625 302.808594 513.703125 C 294.316406 502.414063 290.179688 480.574219 286.597656 466.964844 C 293.476563 464.25 311.449219 468.578125 317.613281 474.195313 C 325.339844 481.234375 331.335938 485.953125 334.785156 475.054688 C 336.417969 469.890625 341.265625 472.59375 343.003906 477.59375 C 345.214844 483.96875 346.621094 488.867188 351.671875 493.863281 C 355.621094 497.765625 361.308594 493.453125 358.449219 485.78125 C 355.992188 479.179688 355.835938 474.121094 359.070313 467.859375 C 361.742188 462.691406 368.082031 462.855469 367.898438 468.996094 C 367.65625 477.167969 359.816406 484.207031 364.171875 492.492188 C 367.078125 498.015625 373.125 502.019531 374.679688 491.484375 C 375.609375 485.179688 374.203125 478.71875 375.058594 472.386719 C 377.484375 454.40625 388.214844 459.144531 395.511719 466.824219 C 400.574219 472.15625 403.429688 479.230469 399.425781 489.082031 "/>
<path style=" stroke:none;fill-rule:nonzero;fill:rgb(0%,0%,0%);fill-opacity:1;" d="M 34.054688 55.589844 C 46.910156 53.074219 51.554688 43.941406 48.3125 31.628906 C 45.519531 21.035156 56.660156 21.480469 65.117188 23.546875 C 73.898438 25.695313 80.382813 33.304688 85.257813 39.714844 C 89.832031 45.730469 92.675781 38.445313 88.011719 33.171875 C 78.242188 22.121094 63.878906 12.75 50.738281 14.375 C 42.152344 15.4375 23.382813 26.015625 20.273438 43.277344 C 18.378906 53.796875 31.390625 56.109375 34.054688 55.589844 Z M 36.714844 31.363281 C 40.953125 31.363281 43.613281 34.921875 43.613281 39.308594 C 43.613281 43.695313 39.015625 47.640625 34.777344 47.640625 C 30.539063 47.640625 27.105469 46.023438 27.105469 41.632813 C 27.105469 37.246094 32.476563 31.363281 36.714844 31.363281 "/>
<path style=" stroke:none;fill-rule:nonzero;fill:rgb(0%,0%,0%);fill-opacity:1;" d="M 107.261719 119.371094 C 106.066406 124.65625 109.835938 125.875 113.144531 124.007813 C 115.890625 122.460938 117.371094 120.144531 121.035156 124.777344 C 122.367188 126.460938 123.96875 125.480469 125.621094 123.011719 C 128.234375 119.105469 129.09375 115.757813 133.371094 117.371094 C 140.492188 120.054688 137.164063 111.835938 135.847656 110.605469 C 128.859375 104.085938 109.460938 109.671875 107.261719 119.371094 "/>
<path style=" stroke:none;fill-rule:nonzero;fill:rgb(0%,0%,0%);fill-opacity:1;" d="M 278.339844 129.925781 L 275.757813 129.925781 C 268.53125 140.246094 256.144531 152.117188 261.304688 164.507813 L 278.339844 129.925781 "/>
<path style=" stroke:none;fill-rule:nonzero;fill:rgb(0%,0%,0%);fill-opacity:1;" d="M 165.007813 144.023438 C 158.933594 150.375 156.765625 160.238281 156.800781 167.761719 C 156.808594 169.183594 157.671875 170.53125 158.65625 168.609375 C 161.378906 163.316406 166.84375 152.5625 169.453125 146.503906 C 172.003906 140.582031 168.445313 140.433594 165.007813 144.023438 "/>
<path style=" stroke:none;fill-rule:nonzero;fill:rgb(0%,0%,0%);fill-opacity:1;" d="M 242.4375 217.5625 C 244.515625 221.195313 246.191406 220.234375 246.355469 216.066406 C 246.859375 203.351563 232.160156 201.34375 217.914063 206.1875 C 208.359375 209.433594 200.453125 216.816406 202.007813 228.203125 C 202.742188 233.585938 204.199219 232.621094 206.207031 227.992188 C 214.113281 209.746094 236.230469 206.699219 242.4375 217.5625 "/>
<path style=" stroke:none;fill-rule:nonzero;fill:rgb(0%,0%,0%);fill-opacity:1;" d="M 437.683594 48.421875 C 429.554688 32.882813 408.480469 28.398438 399.96875 29.957031 C 386.945313 32.335938 376.042969 45.574219 370.023438 59.039063 C 367.152344 65.46875 372.046875 71.566406 374.609375 64.460938 C 377.34375 56.886719 381.257813 47.683594 388.992188 43.007813 C 396.445313 38.507813 406.941406 34.75 407.445313 45.691406 C 408.03125 58.414063 415.199219 65.738281 428.21875 64.292969 C 430.914063 63.992188 442.640625 57.894531 437.683594 48.421875 Z M 425.148438 56.925781 C 421.105469 58.191406 415.539063 55.804688 414.226563 51.617188 C 412.914063 47.429688 414.386719 43.238281 418.433594 41.972656 C 422.476563 40.703125 429.359375 44.710938 430.671875 48.898438 C 431.984375 53.085938 429.191406 55.660156 425.148438 56.925781 "/>
</g>
</svg>
