<?xml version="1.0" encoding="UTF-8"?>
<svg xmlns="http://www.w3.org/2000/svg" xmlns:xlink="http://www.w3.org/1999/xlink" width="407pt" height="670pt" viewBox="0 0 407 670" version="1.1">
<g id="surface1">
<path style=" stroke:none;fill-rule:nonzero;fill:rgb(0%,0%,0%);fill-opacity:1;" d="M 172.121094 210.390625 C 171.039063 212.730469 174.640625 213.628906 175.808594 215.609375 C 178.058594 217.230469 177.519531 222.539063 181.210938 221.011719 C 181.75 219.480469 180.578125 218.21875 180.308594 216.871094 C 178.6875 213.898438 175.988281 210.210938 172.121094 210.390625 "/>
<path style=" stroke:none;fill-rule:nonzero;fill:rgb(0%,0%,0%);fill-opacity:1;" d="M 128.648438 210.210938 L 129.371094 210.210938 C 133.195313 209.859375 144.9375 211.019531 148.539063 204.089844 L 148.359375 203.460938 C 140.890625 202.828125 134.679688 206.519531 128.648438 210.210938 "/>
<path style=" stroke:none;fill-rule:nonzero;fill:rgb(0%,0%,0%);fill-opacity:1;" d="M 405.761719 436.738281 C 397.121094 421.441406 388.390625 406.050781 384.429688 388.769531 C 377.140625 362.578125 386.410156 335.761719 389.828125 310.199219 C 393.609375 282.03125 396.671875 251.160156 375.96875 229.648438 C 376.777344 218.941406 373.988281 208.589844 366.699219 200.671875 C 357.070313 190.050781 341.679688 185.820313 327.1875 190.050781 C 317.199219 192.300781 307.300781 201.480469 305.320313 211.648438 C 303.699219 221.730469 306.21875 231.269531 314.679688 237.390625 C 324.039063 245.21875 337.898438 248.191406 349.421875 242.96875 C 356.621094 239.28125 365.527344 232.53125 364.359375 222.898438 C 363.640625 217.769531 360.128906 212.910156 355.449219 210.210938 C 348.25 205.980469 337.449219 206.609375 331.058594 212.101563 C 327.460938 215.429688 327.011719 220.828125 328.71875 224.878906 C 333.671875 236.21875 341.679688 222.898438 348.789063 223.351563 C 349.6875 223.980469 350.050781 224.878906 349.871094 225.960938 C 349.328125 230.011719 345.1875 232.441406 341.679688 233.519531 C 335.921875 234.601563 329.800781 234.0625 326.109375 228.929688 C 323.140625 224.96875 322.6875 219.210938 323.949219 214.261719 C 326.46875 209.21875 331.765625 206.320313 336.910156 205.441406 C 351.230469 202.992188 359.320313 207.511719 365.800781 217.320313 C 368.5 221.371094 368.230469 227.578125 366.070313 231.8125 C 361.570313 240.988281 351.851563 246.660156 342.039063 247.738281 C 328.269531 248.730469 313.585938 243.566406 306.382813 230.878906 C 280.195313 233.398438 259.871094 246.929688 236.921875 257.28125 L 235.839844 257.28125 C 233.859375 221.28125 237.460938 184.378906 220.449219 154.050781 C 212.171875 144.511719 211.71875 131.820313 204.070313 122.011719 C 207.398438 120.121094 210.640625 118.230469 213.609375 115.351563 C 225.671875 104.460938 228.460938 86.910156 223.6875 71.699219 C 215.5 50.191406 209.238281 28.132813 208.570313 3.300781 C 208.472656 -0.328125 207.332031 -0.648438 205.777344 1.320313 C 185.621094 25.171875 160.871094 47.761719 152.679688 77.101563 C 143.140625 72.601563 133.601563 68.28125 122.621094 67.378906 C 108.761719 65.21875 100.121094 78.179688 92.378906 87.269531 C 91.210938 85.738281 89.679688 84.390625 88.691406 82.769531 C 73.390625 60.988281 49.449219 49.828125 24.789063 45.601563 C 17.230469 43.351563 10.300781 39.929688 3.371094 36.058594 C 1.050781 35.09375 0.210938 36.304688 1.480469 38.21875 C 17.949219 62.96875 17.949219 94.921875 36.488281 119.039063 C 44.679688 128.3125 55.839844 132.449219 67.359375 132 L 67.988281 133.078125 L 70.78125 131.550781 C 79.511719 132 86.53125 128.21875 93.011719 123.089844 C 93.460938 122.640625 94.539063 122.460938 94.988281 123.089844 C 94.71875 124.351563 93.730469 125.25 92.828125 126.148438 C 83.738281 135.78125 66.640625 127.859375 59.800781 140.820313 C 58.988281 143.519531 59.167969 146.851563 61.328125 148.828125 C 63.398438 150.8125 66.910156 148.921875 68.890625 147.929688 C 67.449219 150.359375 66.097656 152.789063 66.730469 155.941406 C 67.359375 158.191406 69.789063 159.089844 71.410156 160.261719 C 71.140625 161.25 69.25 161.25 68.441406 162.421875 C 67.539063 164.578125 69.699219 165.929688 70.328125 167.640625 C 72.847656 183.75 62.589844 195.179688 55.929688 207.78125 C 52.597656 217.589844 37.03125 220.5625 41.167969 232.441406 C 45.667969 236.21875 42.339844 243.238281 44.859375 247.738281 C 46.75 252.960938 52.691406 253.050781 57.191406 254.21875 C 61.417969 258.089844 66.28125 260.609375 72.128906 260.699219 C 85.898438 261.78125 95.710938 249.359375 103.628906 239.730469 C 114.429688 225.960938 129.640625 220.019531 145.929688 219.210938 L 145.300781 235.859375 L 143.769531 295.078125 C 142.058594 320.371094 132.96875 342.601563 130 367.441406 C 125.589844 390.929688 135.761719 410.550781 142.058594 430.710938 C 165.011719 479.851563 181.75 531.871094 188.5 587.488281 C 190.027344 600.359375 190.121094 614.039063 184.179688 624.839844 C 178.058594 634.378906 166.808594 634.289063 158.890625 640.859375 C 157.808594 642.480469 157.449219 644.640625 157.628906 646.441406 C 158.800781 649.769531 162.308594 651.839844 165.1875 653.371094 C 164.828125 655.441406 165.226563 658.046875 167.171875 659.21875 C 169.601563 660.75 174.570313 662.71875 175.808594 660.929688 C 176.238281 659.9375 175.179688 659.402344 174.460938 658.769531 C 172.929688 657.78125 171.9375 657.601563 169.960938 657.691406 C 168.96875 657.511719 168.070313 656.429688 168.25 655.351563 C 169.960938 651.121094 173.378906 647.519531 177.519531 645.359375 C 177.519531 644.910156 178.328125 644.460938 177.519531 644.101563 C 173.199219 644.191406 169.960938 647.160156 167.171875 650.402344 C 164.738281 649.320313 161.589844 647.160156 161.769531 644.101563 C 166.898438 636.539063 176.171875 635.101563 183.371094 630.511719 C 189.851563 626.28125 191.378906 619.351563 192.640625 612.601563 C 194.980469 589.652344 189.128906 568.5 185.261719 547.351563 L 185.261719 543.480469 C 185.980469 542.039063 186.789063 539.339844 188.949219 540.421875 C 197.589844 547.441406 202.539063 557.160156 203.621094 567.871094 C 204.609375 593.25 199.210938 617.640625 194.980469 641.761719 C 193.628906 647.25 192.011719 652.652344 187.871094 657.058594 C 185.710938 658.230469 183.460938 661.378906 180.761719 659.21875 C 177.789063 655.082031 181.570313 650.761719 181.570313 646.710938 L 180.761719 646.710938 C 178.238281 651.121094 175.089844 656.96875 178.148438 662.011719 C 179.410156 663.089844 181.121094 663.089844 182.648438 663.359375 C 186.96875 663.089844 191.03125 660.496094 193.089844 656.609375 C 199.34375 644.800781 200.558594 630.78125 202.539063 617.101563 C 205.6875 583.890625 211.449219 545.910156 198.488281 515.128906 C 192.550781 494.878906 185.527344 473.730469 188.050781 451.230469 C 188.859375 447.449219 191.921875 443.578125 195.878906 442.589844 C 202.71875 441.148438 209.019531 445.019531 214.238281 449.699219 C 235.660156 470.761719 225.039063 506.21875 229.988281 532.230469 C 239.890625 565.621094 242.679688 602.789063 244.210938 638.878906 C 245.378906 649.140625 247.539063 659.308594 256.539063 665.878906 C 261.671875 669.480469 269.949219 670.378906 275.078125 666.78125 C 276.429688 665.519531 276.609375 663.71875 277.058594 662.011719 C 277.421875 662.640625 278.050781 662.640625 278.589844 662.910156 C 281.019531 662.820313 283.179688 660.839844 284.4375 658.769531 C 285.160156 656.878906 284.980469 654.359375 283.71875 652.738281 L 286.148438 651.210938 C 287.363281 650.484375 286.777344 648.058594 286.148438 646.890625 C 283.988281 642.300781 279.039063 641.582031 274.71875 640.859375 L 271.839844 636.988281 C 254.378906 605.941406 254.109375 568.679688 255.460938 530.699219 C 256.988281 489.210938 273.460938 450.871094 270.398438 410.371094 C 277.6875 404.96875 281.648438 397.050781 285.878906 389.851563 C 296.859375 367.890625 315.851563 350.429688 334.300781 332.878906 C 344.199219 323.699219 350.589844 311.910156 356.351563 300.480469 L 357.160156 302.011719 C 351.671875 325.050781 328.269531 340.710938 311.800781 358.171875 C 296.5 372.121094 291.546875 390.804688 278.765625 405.835938 C 280.207031 412.675781 281.828125 417.929688 286.601563 423.328125 C 291.460938 433.589844 306.9375 431.789063 306.671875 444.929688 C 309.101563 468.0625 305.410156 489.660156 302.527344 511.890625 C 298.027344 512.070313 293.800781 513.601563 290.921875 517.289063 C 288.9375 520.621094 288.039063 524.941406 290.019531 528.539063 C 292.179688 532.230469 296.050781 533.578125 300.371094 532.859375 C 301.71875 534.121094 303.339844 534.480469 305.140625 534.570313 C 306.398438 534.570313 307.839844 534.03125 307.480469 532.410156 C 306.671875 531.0625 304.6875 531.601563 303.429688 530.878906 C 302.078125 530.25 301.179688 528.71875 301.898438 527.28125 C 301.988281 525.480469 304.777344 524.3125 303.609375 522.511719 C 302.445313 521.550781 298.660156 526.289063 298.480469 529.171875 C 296.050781 528.988281 293.800781 527.460938 292.628906 525.300781 C 292.179688 523.589844 291.550781 521.609375 292.359375 519.898438 C 292.988281 517.738281 295.238281 516.480469 297.128906 515.761719 C 299.921875 514.5 305.414063 518.222656 306.039063 514.679688 C 307.660156 500.371094 309.820313 486.328125 310.71875 471.75 C 311.527344 463.109375 311.527344 454.109375 316.390625 447.089844 C 317.109375 447.179688 317.921875 446.910156 318.550781 447.359375 C 325.121094 451.769531 325.210938 460.050781 327.640625 466.800781 C 324.128906 483.71875 320.800781 500.730469 318.550781 518.191406 C 317.289063 522.78125 317.023438 527.574219 313.871094 531.535156 C 311.621094 534.054688 308.558594 532.050781 307.75 534.570313 C 308.648438 536.820313 311.621094 535.738281 313.328125 535.648438 C 318.1875 533.039063 320.257813 527.308594 320.710938 523.140625 C 322.535156 506.257813 326.019531 490.289063 329.351563 474.089844 C 332.320313 459.328125 331.777344 444.660156 331.511719 428.550781 C 330.699219 420.539063 328 413.25 327.371094 405.238281 C 323.859375 388.5 319.898438 369.148438 327.371094 352.949219 C 350.949219 379.230469 347.171875 417.390625 375.519531 441.0625 C 373.71875 470.21875 382.269531 497.941406 374.890625 527.28125 C 372.371094 526.019531 369.039063 526.019531 366.070313 526.378906 C 362.019531 527.371094 357.878906 530.699219 356.527344 534.839844 C 355.988281 538.441406 356.351563 542.3125 358.960938 544.921875 C 360.308594 544.738281 360.851563 546 360.851563 547.078125 C 362.378906 550.050781 365.527344 550.679688 368.679688 550.589844 C 370.910156 550.339844 371.539063 548.269531 369.9375 547.980469 L 366.070313 547.351563 C 364.808594 546.628906 362.921875 545.371094 363.640625 543.480469 C 365.527344 539.699219 369.488281 538.261719 373.359375 538.078125 C 372.730469 536.730469 370.660156 537 369.039063 537 C 365.800781 537.359375 362.921875 539.519531 361.121094 542.398438 L 360.671875 541.949219 C 359.140625 538.621094 359.589844 533.941406 361.929688 531.148438 C 364.089844 528.71875 367.511719 528 370.570313 528.988281 C 373 529.261719 376.484375 533.964844 377.320313 531.148438 C 381.640625 515.671875 381.730469 497.128906 380.558594 480.839844 L 381.371094 477.328125 C 382.089844 476.160156 383.351563 474.179688 385.238281 474.988281 C 393.070313 479.488281 393.25 488.671875 395.230469 496.320313 C 392.980469 508.019531 390.101563 519.449219 388.480469 531.328125 C 387.671875 537.359375 388.570313 543.570313 386.589844 548.878906 C 385.328125 550.589844 383.710938 552.121094 381.371094 551.671875 C 379.300781 551.671875 377.589844 550.320313 376.421875 548.609375 C 374.710938 545.371094 379.210938 543.839844 380.558594 541.679688 C 378.128906 541.589844 375.699219 542.488281 373.808594 544.289063 C 372.730469 545.820313 372.550781 547.890625 373.179688 549.691406 C 374.621094 552.480469 377.5 554.460938 380.289063 555.089844 C 383.527344 555.628906 386.140625 554.550781 388.300781 552.480469 C 390.1875 549.511719 391.539063 545.371094 390.011719 541.679688 C 395.589844 506.851563 407.828125 474 405.761719 436.738281 Z M 197.140625 27.691406 C 197.949219 45.328125 208.210938 59.460938 214.6875 74.941406 C 218.109375 85.378906 217.390625 98.96875 208.570313 106.710938 C 205.238281 109.859375 201.277344 111.660156 196.6875 112.109375 L 189.128906 104.101563 C 193.898438 105.449219 199.027344 103.921875 202.988281 101.308594 C 213.070313 92.761719 212.171875 77.460938 207.9375 66.300781 C 205.601563 61.171875 200.199219 56.851563 194.800781 55.949219 C 187.871094 54.691406 182.199219 59.011719 178.328125 64.410156 C 173.558594 71.609375 171.851563 80.160156 170.410156 88.800781 L 165.820313 85.738281 C 170.679688 64.050781 184.898438 46.320313 197.140625 27.691406 Z M 193.089844 84.03125 C 192.644531 81.792969 185.953125 82.609375 183.371094 84.660156 C 180.039063 87.539063 178.6875 92.039063 180.308594 96.089844 L 175.539063 92.488281 C 175.089844 80.25 178.511719 68.101563 189.128906 61.351563 C 195.160156 58.558594 201.277344 62.878906 204.070313 68.011719 C 207.9375 76.199219 206.410156 87.449219 201.460938 94.648438 C 198.578125 98.339844 193.988281 100.140625 189.398438 98.96875 C 186.429688 97.980469 184.179688 94.828125 184 91.769531 C 184 89.519531 185.058594 87.914063 187.421875 86.371094 C 189.113281 85.265625 193.378906 86.933594 193.089844 84.03125 Z M 115.328125 98.699219 C 128.289063 93.660156 137.289063 105.808594 147.730469 110.851563 C 151.777344 112.921875 156.101563 114.71875 160.871094 115.171875 C 161.859375 115.710938 163.390625 114.898438 164.289063 115.800781 C 151.058594 117.871094 140.527344 110.851563 130.808594 103.019531 C 126.21875 100.320313 120.078125 97.839844 114.609375 100.679688 C 113.070313 101.480469 112.269531 102.839844 110.738281 103.289063 C 110.921875 101.488281 112.617188 100 115.328125 98.699219 Z M 137.109375 154.410156 C 131.980469 149.011719 125.859375 144.238281 118.300781 144.691406 C 115.6875 149.730469 117.578125 156.03125 119.199219 160.890625 C 114.519531 156.390625 113.078125 149.191406 115.058594 142.800781 C 116.5 140.820313 113.4375 139.019531 113.527344 136.769531 L 113.800781 134.789063 C 117.671875 146.578125 131.890625 142.890625 138.1875 152.96875 C 141.160156 157.019531 144.671875 163.230469 150.96875 161.96875 C 153.9375 161.699219 157 159.089844 158.078125 156.210938 C 158.4375 159.089844 156.910156 162.601563 154.390625 164.398438 C 148.359375 166.378906 143.679688 161.519531 139.269531 157.648438 C 137.46875 158.28125 135.21875 159.179688 132.96875 159.449219 C 134.5 158.011719 137.46875 157.019531 137.109375 154.410156 Z M 126.308594 158.550781 L 122.621094 160.078125 L 121.988281 158.550781 C 123.519531 158.910156 124.777344 158.910156 126.308594 158.550781 Z M 126.761719 152.070313 C 127.082031 152.808594 126.601563 153.804688 125.882813 154.078125 C 125.46875 153.21875 125.8125 152.15625 126.761719 152.070313 Z M 121.988281 153.328125 C 121.351563 152.191406 120.804688 150.722656 121.539063 149.910156 C 126.128906 147.210938 121.628906 152.019531 121.988281 153.328125 Z M 127.210938 169.171875 L 127.570313 169.53125 C 128.019531 171.328125 126.25 171.664063 124.777344 172.140625 C 121.269531 173.039063 118.210938 171.691406 115.511719 169.980469 C 119.378906 170.96875 123.519531 170.070313 127.210938 169.171875 Z M 126.9375 158.371094 C 128.46875 157.109375 130.359375 155.578125 130.628906 153.601563 C 131.351563 153.871094 131.917969 154.359375 132.609375 155.128906 C 130.898438 156.570313 128.921875 157.5625 126.9375 158.371094 Z M 111.640625 131.730469 C 109.117188 136.953125 108.9375 143.160156 108.578125 149.28125 C 107.585938 139.085938 106.324219 129.9375 115.460938 126.613281 C 129.410156 122.472656 138.550781 138.300781 152.679688 137.851563 C 153.128906 139.109375 151.238281 138.75 150.519531 139.109375 C 138.371094 138.839844 130.003906 129.273438 118.570313 127.679688 C 116.375 127.375 112.957031 129.003906 111.640625 131.730469 Z M 155.921875 187.53125 L 159.789063 189.691406 C 161.140625 190.769531 162.308594 192.300781 162.128906 194.191406 C 160.148438 195.089844 159.183594 191.910156 157.628906 190.769531 C 155.335938 189.085938 153.488281 188.96875 151.328125 188.160156 C 151.960938 186.628906 154.664063 186.835938 155.921875 187.53125 Z M 112.898438 115.171875 C 120.550781 112.46875 128.019531 116.878906 134.769531 119.671875 C 140.078125 122.101563 146.019531 124.441406 152.230469 123.539063 C 149.261719 125.699219 145.480469 124.980469 141.878906 124.171875 C 131.527344 122.28125 120.113281 109.957031 110.109375 120.121094 C 109.089844 121.152344 108.488281 123 106.871094 123.8125 C 107.5 120.570313 109.480469 116.878906 112.898438 115.171875 Z M 101.648438 93.570313 C 103.519531 93.0625 107.230469 93.390625 108.398438 95.28125 C 97.058594 95.28125 88.597656 102.210938 79.871094 108.421875 C 86.261719 103.019531 93.550781 96.449219 101.648438 93.570313 Z M 86.347656 94.828125 L 81.128906 101.308594 C 78.609375 94.921875 74.558594 88.800781 69.96875 83.578125 C 75.640625 86.640625 81.128906 90.421875 86.347656 94.828125 Z M 71.230469 120.929688 L 71.679688 121.378906 L 68.167969 125.96875 C 50.621094 123.628906 37.03125 106.261719 33.25 90.058594 C 29.019531 75.300781 25.871094 59.910156 13.089844 48.839844 C 21.0625 53.15625 23.53125 62.339844 31.089844 66.121094 C 37.210938 69.898438 44.050781 72.058594 50.710938 74.761719 C 46.210938 75.570313 43.417969 80.429688 42.519531 84.480469 C 41.53125 94.199219 47.378906 103.289063 55.929688 107.609375 C 59.261719 108.78125 62.769531 107.519531 65.378906 105.628906 C 67.359375 104.011719 68.621094 102.210938 68.621094 99.78125 C 68.890625 96.449219 66.011719 94.199219 63.847656 92.039063 C 60.25 89.789063 55.210938 88.171875 50.890625 90.058594 C 50.167969 90.691406 49.628906 91.949219 50.53125 92.671875 C 52.328125 94.378906 55.480469 92.851563 57.640625 93.929688 C 59.621094 95.101563 62.230469 95.550781 63.21875 98.070313 C 64.03125 99.511719 62.769531 100.589844 62.140625 101.761719 C 60.96875 102.929688 58.898438 103.109375 57.371094 102.390625 C 52.148438 99.421875 47.199219 94.109375 46.839844 87.898438 C 47.019531 84.570313 47.558594 80.609375 51.339844 79.53125 C 61.058594 79.53125 66.910156 89.339844 72.488281 96.089844 C 74.558594 100.769531 79.417969 105.539063 76.628906 110.851563 C 73.839844 113.640625 70.058594 116.609375 71.230469 120.929688 Z M 88.691406 113.191406 C 83.828125 114.539063 79.511719 117.238281 75.097656 119.671875 C 81.941406 114.898438 89.167969 109.339844 98.050781 111.210938 C 99.992188 111.941406 99.941406 114.089844 99.941406 114.089844 C 96.160156 113.101563 93.011719 112.199219 88.691406 113.191406 Z M 83.109375 166.289063 C 82.300781 167.640625 79.78125 168.8125 78.160156 169.980469 C 77.261719 170.429688 75.910156 170.25 75.550781 169.351563 C 75.460938 168.71875 76.269531 168.089844 76.808594 168.089844 Z M 79.476563 158.761719 L 80.410156 156.757813 C 80.71875 157.140625 80.96875 158.746094 80.894531 159.207031 Z M 76.273438 151.457031 L 77.078125 150.8125 C 77.101563 151.910156 77.488281 152.601563 77.710938 153.148438 C 77.078125 153.0625 75.738281 152.128906 76.273438 151.457031 Z M 71.859375 149.910156 C 72.59375 148.101563 74.4375 146.675781 76.449219 146.488281 C 74.675781 147.308594 73.121094 149.191406 72.488281 150.988281 C 71.949219 153.421875 73.121094 155.429688 75.371094 156.390625 C 75.949219 156.601563 76.628906 157.019531 76.628906 157.019531 C 75.125 157.746094 73.390625 156.390625 72.308594 155.488281 C 70.960938 154.140625 71.21875 151.492188 71.859375 149.910156 Z M 47.917969 229.648438 C 46.128906 229.558594 45.921875 226.957031 47.019531 225.328125 C 51.699219 220.828125 58.539063 220.5625 64.929688 221.820313 L 67.808594 223.171875 C 68.714844 223.835938 68.816406 225.601563 67.808594 226.140625 C 62.769531 228.660156 56.019531 224.878906 51.160156 227.671875 C 50.078125 228.300781 49.269531 229.648438 47.917969 229.648438 Z M 125.410156 212.101563 C 111.460938 222.898438 100.929688 238.46875 85.089844 245.578125 C 76.628906 249 66.460938 241.171875 59.980469 249.898438 L 58.269531 250.53125 L 62.589844 244.5 C 61.417969 244.230469 61.714844 244.285156 58.449219 244.050781 C 55.183594 243.816406 52.871094 242.339844 52.871094 242.339844 C 58.617188 242.984375 61.597656 242.878906 65.199219 240.179688 C 69.96875 235.589844 72.941406 229.921875 72.488281 223.351563 C 67 216.328125 56.917969 217.769531 49.449219 218.851563 C 66.550781 204.359375 79.691406 186 88.960938 167.191406 C 92.378906 159.71875 95.621094 149.371094 90.21875 141.71875 C 88.058594 139.378906 84.910156 139.648438 82.210938 140.640625 C 81.5625 141.0625 81.027344 141.296875 80.5 141.71875 C 83.558594 146.671875 86.800781 152.699219 84.011719 158.730469 C 83.109375 152.699219 80.949219 147.121094 77.53125 142.171875 C 79.691406 140.371094 82.03125 139.019531 84.820313 138.660156 C 87.25 138.660156 89.949219 139.5625 91.75 141.71875 C 97.597656 150.179688 94.71875 160.800781 91.570313 169.53125 C 87.25 179.429688 83.019531 189.238281 79.871094 199.589844 C 79.148438 212.640625 87.160156 230.820313 71.679688 238.648438 C 69.519531 240.089844 67 241.261719 65.199219 242.96875 C 72.761719 244.859375 82.480469 247.289063 89.140625 241.710938 C 104.351563 229.738281 115.601563 211.648438 132.96875 203.910156 C 138.640625 201.75 145.390625 198.960938 151.601563 201.300781 C 153.90625 202.53125 152.53125 207.1875 151.148438 208.410156 C 143.949219 213.539063 134.140625 211.199219 125.410156 212.101563 Z M 237.277344 295.261719 C 237.820313 316.050781 228.730469 332.878906 215.5 348 C 200.019531 369.238281 227.46875 400.738281 199.75 416.671875 C 193.359375 420.898438 183.371094 421.621094 176.621094 417.75 C 158.171875 406.5 148 386.878906 150.25 365.011719 C 152.140625 354.839844 155.648438 344.578125 153.9375 333.691406 C 144.761719 296.789063 146.921875 257.820313 148.808594 218.398438 C 152.679688 217.140625 156.820313 215.25 159.339844 211.46875 C 159.875 210.40625 162.128906 209.398438 163.210938 210.570313 C 170.050781 218.21875 167.351563 230.28125 167.980469 240 C 168.339844 240.71875 169.058594 241.351563 169.960938 241.078125 C 172.929688 236.039063 172.300781 229.199219 172.121094 223.171875 C 171.039063 217.859375 169.511719 212.730469 165.640625 208.859375 C 179.050781 203.191406 196.421875 203.550781 204.699219 187.710938 C 211.539063 177.089844 216.398438 165.390625 216.128906 152.070313 C 232.871094 182.21875 231.429688 219.839844 231.699219 256.828125 C 231.339844 270.601563 238.359375 281.21875 237.277344 295.261719 Z M 270.578125 641.761719 C 274.269531 644.910156 280.300781 643.917969 282.910156 648.417969 L 282.460938 650.761719 C 277.421875 646.261719 271.578125 643.226563 264.558594 643.585938 L 264.101563 644.28125 C 265.628906 646.351563 268.871094 645.539063 270.761719 647.160156 C 274.359375 649.679688 279.039063 651.390625 281.199219 655.53125 C 281.199219 658.140625 278.140625 659.128906 276.878906 660.75 C 274.71875 655.890625 269.230469 652.917969 264.277344 652.738281 L 264.277344 653.371094 C 267.699219 655.621094 272.648438 658.859375 272.558594 663.359375 C 269.5 666.417969 264.460938 664.890625 260.859375 663.71875 C 249.519531 659.039063 250.058594 645.988281 247.71875 635.910156 L 242.949219 574.800781 C 242.140625 568.589844 241.148438 561.929688 239.710938 555.71875 C 240.070313 546.089844 237.277344 535.109375 244.480469 527.640625 C 246.820313 526.921875 247.71875 529.710938 248.800781 530.878906 C 253.390625 549.238281 251.230469 568.769531 253.929688 587.941406 C 255.910156 607.109375 259.871094 625.917969 270.578125 641.761719 "/>
</g>
</svg>
