<?xml version="1.0" encoding="UTF-8"?>
<svg xmlns="http://www.w3.org/2000/svg" xmlns:xlink="http://www.w3.org/1999/xlink" width="347pt" height="264pt" viewBox="0 0 347 264" version="1.1">
<g id="surface1">
<path style=" stroke:none;fill-rule:nonzero;fill:rgb(0%,0%,0%);fill-opacity:1;" d="M 171.101563 77.699219 C 172 81.199219 168.699219 84.101563 167.5 87.300781 C 166.390625 91.5625 173.5 87.800781 175.199219 90.699219 C 176.898438 93.800781 173.171875 98.023438 174 99.101563 C 175.800781 101.601563 179.101563 99.398438 181.898438 100 C 185.5 100.898438 181.554688 106.851563 184.300781 106.5 C 194.796875 105.058594 194.476563 85.164063 194.476563 82.863281 C 194.105469 72.5 194.285156 51.964844 191.699219 46.800781 C 187.800781 39.300781 189.203125 25.707031 187.3125 20.492188 C 206.667969 16.75 239 12.601563 263.898438 7.199219 C 265.300781 8.898438 263.300781 11.601563 264.699219 13.699219 C 262.699219 14.101563 259.957031 14.523438 258.898438 15.300781 C 245.601563 26.300781 224.898438 21.398438 208.5 20.601563 C 202.101563 20.398438 195.601563 19.398438 191 24.199219 C 189.292969 26.378906 190.601563 30.101563 191 32.800781 C 196.898438 50.101563 200.425781 71.925781 199.199219 88.5 C 199.144531 89.324219 199.785156 91.246094 201.320313 91.691406 C 205.222656 92.523438 219.554688 89.964844 224.398438 88 C 242.96875 81.199219 259.5 87.085938 267.800781 83.699219 C 268.835938 83.164063 269.199219 77.699219 269.199219 77.699219 C 269.59375 78.417969 270.019531 78.84375 270.398438 78 C 272 75.199219 274.609375 75.402344 275.199219 69.800781 C 275.546875 66.519531 282.101563 68.199219 284.601563 65.199219 C 285.800781 63.601563 284.5 62.5 284.601563 60.699219 C 285.800781 59.199219 287.800781 58.699219 289.601563 58.300781 C 290.910156 58.273438 295.253906 54.007813 293.5 52.5 C 278.800781 40.300781 272.664063 22.96875 269.964844 5.367188 C 271.980469 6.84375 272.988281 7.773438 275.703125 6.921875 C 277.742188 6.28125 278.398438 4.601563 278.300781 2.898438 C 277.878906 0.171875 275.792969 -1.027344 273.300781 -0.5 C 271.59375 -0.140625 270.699219 1.199219 270.199219 2.398438 C 242.199219 8.101563 189.363281 16.308594 185.5 17.5 C 183.3125 14.601563 180.367188 16.074219 179.199219 17.5 C 177.882813 19.175781 178.800781 21.699219 180.398438 23 C 181.699219 23.898438 183.601563 23.398438 184.800781 22.5 C 184.800781 29.5 183.890625 37.300781 183.800781 44.800781 C 183.535156 66.164063 160.3125 75.695313 159.996094 76.976563 C 159.804688 78.320313 162.425781 80.496094 171.101563 77.699219 Z M 272.914063 1.335938 C 274.578125 0.582031 276.558594 0.867188 276.898438 2.898438 C 276.867188 4.59375 275.433594 5.578125 274.230469 5.679688 C 273.144531 5.601563 272.199219 5.101563 271.898438 4.101563 C 271.699219 3.101563 271.980469 1.878906 272.914063 1.335938 Z M 197 47.199219 C 196.648438 44.226563 190.253906 28.425781 192 25.199219 C 194.285156 21.261719 202.800781 21.199219 208.800781 21.601563 C 224.5 22.398438 244.199219 27.101563 257.699219 17.5 C 259.601563 18.199219 259.300781 21.101563 260.300781 22.800781 C 262 29.300781 258.5 34.300781 258.699219 40.5 C 258.300781 49.699219 260.101563 59.199219 260.800781 68.601563 C 260.800781 69.800781 261.648438 72.085938 260.601563 72.199219 L 256.5 72.398438 L 259.101563 60.898438 C 259.480469 59.253906 258.84375 56.578125 256.300781 56.398438 L 249.800781 56.101563 C 249.601563 54.800781 250.898438 54.101563 251.5 53 C 253.101563 53.199219 254.9375 52.925781 255.300781 51.300781 C 255.398438 50.300781 255.199219 49.5 254.300781 48.898438 C 254.5 47.699219 256.941406 46.976563 255.800781 45.601563 C 254.511719 44.042969 253.277344 45.148438 252.898438 42.398438 C 252.472656 39.621094 249.699219 44.300781 248.300781 41.5 C 247.074219 40.089844 244.398438 41.917969 245 43.398438 C 246.101563 46.300781 241.800781 46.898438 244 49.601563 C 244.695313 50.332031 245.101563 51.300781 246.199219 50.800781 C 245.699219 52.699219 246.800781 54.699219 248.101563 55.898438 C 246.199219 56.601563 245.289063 53.6875 244 53.199219 C 239.296875 51.351563 236.699219 51.398438 233.699219 53.199219 C 233.898438 55.5 236.199219 57.800781 238 59.5 C 234.5 61.101563 233.859375 63.84375 235.398438 67.398438 C 236.800781 69.699219 238.101563 72 238.800781 74.601563 C 226 76.800781 212.898438 77.800781 200.601563 81.101563 C 201.601563 69.800781 198.328125 58.484375 197 47.199219 Z M 244.300781 57.300781 C 242.800781 58.199219 240.601563 58.699219 239 57.800781 C 237.5 57 237 55.398438 236.101563 54.199219 C 238.601563 52.699219 241.800781 53.800781 244 55.199219 L 240.199219 55.398438 C 239.5 57.898438 242.898438 56.699219 244.300781 57.300781 Z M 248.101563 58.5 C 248.800781 59.699219 247.796875 62.570313 249.300781 62.398438 C 250.347656 62.015625 250.21875 60.402344 249.878906 58.234375 C 251.960938 57.808594 257.1875 57.300781 257.199219 59.5 C 257.273438 61.761719 253.660156 62.613281 251 63.300781 C 246.601563 64.398438 238.277344 65.96875 236.800781 64.300781 C 236.300781 63.5 236.789063 62.695313 237.601563 61.898438 C 240.699219 59.699219 244.5 59.398438 248.101563 58.5 Z M 247.101563 45.800781 C 246.183594 45.613281 246.398438 43.898438 247.101563 43.398438 C 248.398438 42.800781 249.199219 44.296875 249.101563 44.800781 C 248.945313 45.488281 248 46 247.101563 45.800781 Z M 246.699219 49.199219 C 245.871094 49.414063 244.648438 47.769531 245.5 47.5 C 246.351563 47.230469 246.101563 48.5 246.898438 48.398438 C 247.328125 48.335938 247.414063 49.015625 246.699219 49.199219 Z M 250 47.699219 C 250.019531 48.210938 250.175781 48.71875 249.5 48.898438 C 248.945313 49.058594 248.390625 48.929688 248.433594 48.164063 C 248.476563 46.761719 249.964844 46.675781 250 47.699219 Z M 248.347656 51.054688 C 248.859375 51.097656 249.15625 53.179688 248.988281 53.519531 C 248.816406 53.859375 248.269531 53.96875 247.882813 53.519531 C 247.492188 53.070313 247.839844 51.011719 248.347656 51.054688 Z M 257 63.101563 C 256.101563 68.601563 254.398438 73.699219 253.398438 79.199219 C 250.199219 81 246 80.300781 242.601563 79.398438 C 241 74.898438 239.101563 70.601563 236.800781 66.398438 C 243.601563 66.699219 250.699219 65.300781 257 63.101563 Z M 252.257813 47.78125 C 251.835938 47.65625 251.621094 47.230469 251.621094 46.976563 C 251.621094 46.507813 253.671875 45.921875 253.898438 46.300781 C 254.128906 46.675781 252.683594 47.910156 252.257813 47.78125 Z M 251.898438 51.101563 C 251.027344 50.585938 251.140625 49.617188 251.699219 49.398438 C 252.257813 49.183594 253.152344 49.738281 253.398438 50.398438 C 253.617188 50.882813 252.773438 51.613281 251.898438 51.101563 Z M 250.699219 45.101563 C 250.261719 44.808594 250.941406 43.320313 251.699219 43.601563 C 252.175781 43.871094 251.238281 45.273438 250.699219 45.101563 Z M 268 6.5 C 271.199219 23.800781 276.898438 40.5 292 52.5 C 292.398438 59.601563 281.300781 55.601563 283.601563 62.800781 C 283 68.199219 274.226563 64.140625 273.800781 69.601563 C 273.464844 72.683594 272.398438 74 270.398438 75.300781 C 269.800781 73.898438 269.800781 71.800781 269.5 70 C 268.5 64.101563 265.199219 57.898438 266.800781 52 C 267.300781 38.800781 271.601563 23.699219 265.601563 11.300781 C 265.386719 10.566406 264.199219 5.300781 268 6.5 Z M 265.101563 61.199219 C 267.601563 67.5 268.601563 75.398438 267.101563 82.5 C 254.699219 85.898438 241.5 80.699219 229.601563 85.199219 C 221.300781 87.699219 212.800781 89.898438 203.699219 90.699219 C 201.699219 90.699219 200.601563 88.898438 200.398438 87.101563 L 200.398438 83.199219 C 212.699219 79.101563 226.398438 78.601563 239.5 76.300781 C 240.785156 78.589844 240.316406 81.351563 244.5 81.800781 C 248.300781 82.207031 255.234375 82.371094 255.5 79.601563 C 255.785156 77.570313 256.039063 76.464844 256 74.398438 C 258.398438 73.5 263.859375 74.851563 263.5 72.699219 C 261.5 59 258.800781 43.300781 262.300781 29.699219 C 262.898438 24.800781 261.300781 20.898438 260.101563 16.800781 C 261.585938 16.074219 263.5 14.898438 265.101563 16.101563 C 270.5 30.601563 262.398438 45.699219 265.101563 61.199219 Z M 232.265625 10.488281 C 244.597656 8.160156 253.101563 7.300781 263.5 5.5 C 258.621094 7.3125 254.683594 7.695313 250.261719 8.394531 C 241.710938 9.746094 233.898438 11.898438 225.101563 12.199219 C 227.601563 11.800781 230.09375 10.953125 232.265625 10.488281 Z M 224.601563 12.199219 C 220.238281 14.753906 214.421875 13.980469 209.699219 14.601563 C 214.652344 12.429688 219.929688 14.058594 224.601563 12.199219 Z M 209.199219 14.898438 C 200.300781 16.539063 191.691406 18.632813 188.101563 18.898438 C 193.398438 16.308594 201.855469 15.375 209.199219 14.898438 Z M 182.691406 21.890625 C 181.296875 22.046875 180.289063 20.574219 180.132813 19.410156 C 180.132813 18.246094 181.0625 17.546875 182.101563 17.5 C 183.300781 17.5 184.476563 18.246094 184.632813 19.332031 C 184.886719 20.195313 184.140625 21.730469 182.691406 21.890625 Z M 185.199219 40.5 L 186.398438 24.699219 C 187.101563 34.101563 189.550781 46.722656 191.5 51.601563 C 191.914063 52.734375 196.398438 84.300781 190.800781 99.601563 C 189.300781 101.601563 187.699219 104.601563 185 105.101563 C 184.300781 103.101563 185.699219 100 182.800781 99.101563 C 180.398438 98.101563 177.601563 100 175.398438 98.398438 C 176.601563 95.699219 177.5 93 176.398438 90 C 175.027344 87.53125 171.800781 88.5 169.398438 88 C 169.5 84.199219 174.515625 80.78125 172.5 76.800781 C 171.253906 74.738281 166 77.898438 162.898438 77.199219 C 180.785156 65.972656 186.398438 54.898438 185.199219 40.5 "/>
<path style=" stroke:none;fill-rule:nonzero;fill:rgb(0%,0%,0%);fill-opacity:1;" d="M 242.300781 31.898438 C 243.648438 29.339844 245.699219 30.800781 247.398438 30.898438 C 247.5 30 246.359375 29.007813 245.761719 28.40625 C 246.535156 27.320313 246.84375 27.140625 248.320313 26.390625 C 246.226563 25.691406 244.601563 28.300781 243.800781 24.898438 L 242.667969 26.90625 C 241.9375 26.390625 240.796875 26.703125 239.789063 27.246094 C 242.191406 27.863281 242.8125 28.40625 242.300781 31.898438 "/>
<path style=" stroke:none;fill-rule:nonzero;fill:rgb(0%,0%,0%);fill-opacity:1;" d="M 211.398438 41.699219 C 213.898438 43.5 221.929688 45.730469 224.601563 41 C 221 41.101563 217.632813 39.132813 215 36.199219 C 212.28125 32.007813 213.171875 28.402344 217.46875 24.164063 C 212.144531 24.855469 209.398438 27.527344 208.5 30.398438 C 207.292969 34.253906 207.601563 39.199219 211.398438 41.699219 Z M 212.101563 28 C 211.3125 30.980469 212.101563 35 214.300781 37.601563 C 216.101563 39.5 218.714844 41.128906 221.375 42.097656 C 217.714844 43.152344 214.730469 41.851563 212.53125 40.351563 C 208.730469 37.550781 208.929688 30.429688 212.101563 28 "/>
<path style=" stroke:none;fill-rule:nonzero;fill:rgb(0%,0%,0%);fill-opacity:1;" d="M 132.898438 235.601563 C 122.59375 234.875 112.199219 240.5 103.601563 247.199219 C 101.628906 248.796875 100.738281 251.242188 101.402344 254.664063 C 101.683594 256.09375 102.890625 257.410156 104.601563 257.5 C 114.917969 256.964844 125.699219 249.101563 134.398438 240.898438 C 136.078125 238.996094 137.9375 235.953125 132.898438 235.601563 Z M 104.101563 255.800781 C 102.347656 254.304688 102.601563 252.101563 103.398438 250.5 C 104.601563 247 108.398438 245.601563 111.101563 243.601563 C 111.101563 247 113.234375 250.074219 116.996094 251.992188 C 113.976563 253.414063 105.933594 256.964844 104.101563 255.800781 Z M 133.601563 238 C 132.367188 243.824219 123.085938 247.535156 119.199219 250.800781 C 117.101563 250.300781 114.699219 249.199219 113.699219 246.898438 C 113.199219 245.601563 112.5 243.898438 113.5 242.601563 C 118 238.800781 134.148438 234.839844 133.601563 238 "/>
<path style=" stroke:none;fill-rule:nonzero;fill:rgb(0%,0%,0%);fill-opacity:1;" d="M 200.398438 28.800781 C 200.199219 27.800781 201.390625 27.167969 200.800781 26.398438 C 199.0625 28.40625 198.75 26.546875 198 25.398438 L 197 27.601563 C 196.191406 27.632813 195.957031 27.863281 195.300781 28.800781 C 197.101563 28.601563 197.355469 29.882813 197.5 31.601563 C 198.671875 28.71875 199.914063 29.960938 202 30.898438 C 201.800781 29.800781 201.15625 29.339844 200.398438 28.800781 "/>
<path style=" stroke:none;fill-rule:nonzero;fill:rgb(0%,0%,0%);fill-opacity:1;" d="M 216.199219 64.5 C 214.113281 64.914063 213.558594 64.386719 212.601563 63.300781 C 212.339844 65.023438 211.007813 65.828125 210.175781 66.246094 C 211.839844 66.660156 212.933594 67.988281 212.398438 69.101563 C 213.085938 69.15625 213.445313 68.128906 213.835938 67.078125 C 214.804688 67.214844 215.601563 68 216.398438 67.601563 C 214.277344 65.773438 215.914063 65.550781 216.199219 64.5 "/>
<path style=" stroke:none;fill-rule:nonzero;fill:rgb(0%,0%,0%);fill-opacity:1;" d="M 216.707031 48.769531 C 217.058594 47.792969 217.539063 47.90625 217.398438 47 C 215.898438 47.699219 215.347656 48.527344 213.601563 46.5 C 213.601563 46.5 214.058594 49.183594 211.605469 49.410156 C 215.492188 50.113281 213.910156 51.726563 214.246094 52.894531 C 215.382813 52 215.941406 50.128906 215.941406 50.128906 C 216.835938 50.609375 217.332031 50.480469 218.601563 50.398438 C 218.363281 49.984375 217.875 49.121094 216.707031 48.769531 "/>
<path style=" stroke:none;fill-rule:nonzero;fill:rgb(0%,0%,0%);fill-opacity:1;" d="M 149.175781 243.195313 C 137.664063 243.816406 126.699219 247.300781 119.5 256.800781 C 117.960938 259.117188 117.5 261.199219 119.5 263 C 121.101563 264.398438 123.457031 264.390625 125.699219 264 C 134.402344 262.484375 142.398438 258.699219 149.699219 253.398438 C 152.300781 251.699219 156.386719 248.277344 155.683594 245.828125 C 155.089844 244.046875 152.011719 243.039063 149.175781 243.195313 Z M 120.398438 262 C 118.898438 259.101563 121.160156 256.59375 123.101563 254.601563 C 124.878906 252.773438 126.699219 251.5 128.800781 250.800781 C 129.601563 253.800781 130.5 258.101563 134.101563 259.601563 C 130.101563 261.199219 122.042969 264.191406 120.398438 262 Z M 153.800781 247.398438 C 149.898438 253.601563 143.300781 255.300781 137.699219 258.398438 C 134.890625 257.707031 132.960938 257.039063 131.699219 254.601563 C 130.957031 252.882813 130.5 251.300781 131 250 C 140.3125 245.902344 145.601563 244.300781 153.300781 245.699219 C 154.101563 246 154.269531 246.570313 153.800781 247.398438 "/>
<path style=" stroke:none;fill-rule:nonzero;fill:rgb(0%,0%,0%);fill-opacity:1;" d="M 337.847656 114.515625 C 333.921875 113.292969 325.234375 113.558594 326.449219 123.050781 C 326.789063 125.730469 329.328125 127.75 331.398438 128.101563 C 331.699219 143.398438 331.898438 161.398438 331.101563 178 L 329.5 180 C 330.414063 172.308594 328.257813 157.085938 326.300781 153.601563 C 320.898438 143.898438 313 135.898438 303.5 129.800781 C 304 125.101563 302.300781 120.699219 299.5 117.101563 C 297.164063 117.507813 295.441406 117.777344 293.539063 117.980469 C 292.203125 114.4375 289.605469 109.710938 288.503906 108.609375 C 288.660156 100.894531 288.265625 84.597656 288.1875 81.289063 C 291.414063 80.210938 291.886719 75.621094 290.601563 72.898438 C 288.089844 67.59375 282.101563 67.898438 278.300781 70.800781 C 276.527344 72.214844 276.378906 75.335938 277.101563 77.699219 C 277.839844 80.117188 278.898438 82.199219 281.699219 82.300781 C 282 89.601563 283.101563 96.898438 282.699219 104.101563 C 282.800781 104.800781 282.5 105.699219 281.699219 105.601563 C 271.699219 109.101563 260 111.199219 253.398438 120.398438 C 234.300781 124.601563 211.800781 121.199219 191.699219 124.300781 C 157.398438 132.300781 122.5 134.601563 85.601563 134.398438 C 63.398438 135.699219 38.25 136.164063 22.5 142.800781 C 20.332031 143.664063 15.988281 142.46875 11.5 144 C 5.324219 146.105469 1.539063 151.449219 1.199219 158.398438 C 1.699219 181.800781 18.316406 202.835938 28.042969 219.46875 C 30.125 223.105469 36.136719 235.65625 47.5 234.199219 C 47.300781 240 46.605469 245.066406 47 250.800781 C 47.277344 254.8125 47.054688 259.34375 49.398438 263.199219 C 53.5 263.5 57.5 263.199219 60.199219 260.601563 C 60.398438 252.898438 59.230469 245.753906 59.699219 238.800781 L 71 238.300781 L 119.519531 231.945313 C 129.023438 230.902344 143.460938 232.046875 154.5 231.300781 C 167.554688 230.417969 204.449219 226.851563 228.898438 223.898438 C 244.421875 222.027344 258.878906 220.757813 277.90625 219.109375 C 305.300781 216.445313 304.351563 213.4375 317.351563 210.738281 C 318.109375 216.445313 317.800781 232.101563 318.898438 235.398438 C 322.300781 236.101563 326.699219 236.199219 329.898438 235.199219 C 331.199219 227 333.5 199.101563 334.699219 193.898438 C 337.894531 193.742188 343.476563 192.980469 343.351563 189.683594 C 342.210938 166.851563 339.753906 147.261719 340.421875 128.164063 C 344.726563 128.265625 350.5625 118.472656 337.847656 114.515625 Z M 233.699219 178 C 240.398438 174.199219 248.648438 172.15625 254.300781 166 C 259.0625 160.8125 255.8125 152.875 255.300781 151.398438 L 257 150.199219 C 258.5 152 257.898438 155.101563 259.398438 157.199219 C 264.601563 166.800781 272.957031 181.820313 281.199219 183.601563 C 290.300781 184.5 302.128906 181.566406 305.699219 180 C 312.800781 176.101563 320.199219 172.898438 326.601563 167.5 C 327.398438 169.800781 327.898438 172.601563 328 175.398438 C 318.300781 177.199219 309.898438 183.800781 300.398438 186.898438 C 286.898438 191.699219 271.699219 192.601563 257.199219 195.101563 C 250.300781 195.300781 243.300781 196.601563 236.101563 196.800781 C 237.800781 190.101563 234.101563 184.398438 233.699219 178 Z M 79.199219 209 C 79.082031 192.167969 75 190 70.800781 181.398438 C 68.898438 173.5 73.5 165.199219 70.5 157.199219 C 70.5 157.199219 69.410156 149.886719 69.25 148.832031 C 68.917969 146.664063 70 146.414063 72.082031 146.664063 C 80.167969 147.5 91.832031 146.414063 104.800781 144 C 118.957031 141.359375 130.347656 138.597656 144.449219 136.195313 C 150.066406 135.457031 154.820313 136.480469 178.300781 136.800781 C 190.300781 136.960938 204.257813 133.828125 215.757813 132.230469 C 219.457031 138.289063 220.5625 141.28125 220.5625 141.28125 C 198.160156 145.382813 174.898438 148.046875 152.101563 149 C 150.871094 149.050781 150.554688 149.398438 150.199219 150.199219 C 150 151 150.410156 151.890625 151.199219 151.898438 L 155.699219 152.101563 C 153.398438 153.800781 148.46875 154.992188 148.816406 156.816406 C 149.003906 157.449219 152.234375 157.628906 157.898438 155.699219 C 155.199219 158.300781 149.742188 162.324219 150.699219 163.601563 C 152.175781 165.046875 155.074219 162.351563 156.898438 161.019531 C 159.941406 158.960938 162.101563 156.101563 165.300781 157.199219 C 164.898438 160 162.347656 164.730469 164.800781 166 C 166.300781 166.601563 167.1875 164.960938 167.5 163.898438 C 168.320313 161.105469 168.171875 156.703125 170.800781 155.699219 C 186.800781 151.898438 203 150.601563 219.300781 147.601563 C 219.300781 147.601563 219.375 149.863281 220 151.398438 C 220.625 152.9375 230.125 166.75 231.0625 172.0625 C 218.5625 178.5625 204.257813 181.984375 190.800781 186 C 181.488281 188.777344 177.101563 180 174 180.398438 C 172.75 180.75 173.25 183.1875 174 184.5 C 175.175781 186.558594 177.398438 188.398438 179.199219 189.300781 C 174.5 190.398438 169 190.800781 164.398438 192.699219 C 163.625 193.125 162.800781 193.601563 163.199219 194.601563 C 164.1875 196.4375 166.699219 195.398438 168.699219 195.300781 C 167.199219 196.601563 162.8125 197.1875 163.398438 198.898438 C 163.9375 200.375 167.101563 198.699219 169.199219 198.898438 C 167 200.300781 163.984375 202.066406 163.199219 204.199219 C 163.085938 204.667969 162.535156 205.550781 164.101563 204.898438 C 165.664063 204.25 209.699219 188.101563 232 178.5 C 233.5 186 236.648438 193.792969 232.300781 200.800781 C 230.414063 203.832031 231.070313 209.746094 226.300781 209.199219 C 214.335938 207.832031 214 214.332031 194.800781 215.699219 C 181.796875 216.625 169.199219 212.300781 156.199219 211.199219 C 135.300781 207.398438 118.898438 217.199219 100.300781 220.300781 C 98.582031 220.5 84.417969 228.167969 82 227.5 C 75.300781 223.101563 79.5 218.5 79.199219 209 Z M 74.398438 192.199219 C 62.398438 195.101563 49.699219 196.199219 37.601563 198.699219 C 34.101563 191.199219 27.332031 178.25 27.101563 175.199219 C 29.917969 180.332031 37.984375 192.984375 42.199219 193.199219 C 46.417969 193.417969 63.199219 191.398438 73.398438 190 C 73.898438 190.699219 74.101563 191.5 74.398438 192.199219 Z M 69.101563 170.800781 C 57.898438 172.199219 46.132813 173.917969 34.332031 174.917969 C 32.332031 161.5 29.25 147.414063 30.167969 144.332031 C 33.167969 151.734375 34.699219 159.601563 36 167.699219 L 37.199219 168.898438 C 48.300781 168.101563 59.699219 167 69.800781 164.398438 C 69.917969 166.5 69.75 168.75 69.101563 170.800781 Z M 236.398438 160.5 L 239.898438 162 C 237.5 164 235.199219 166.898438 235.898438 170.101563 C 234.699219 170.699219 233.75 171 232.5 171.800781 C 231.199219 164.699219 226.300781 159.199219 223.199219 152.800781 C 225.5 150.5 226.898438 146.699219 230.601563 146.601563 C 230.5 151.800781 230.898438 157.699219 236.398438 160.5 Z M 169.898438 196.800781 C 171.800781 196.199219 175.1875 194.613281 174.898438 193.601563 C 174.628906 192.574219 165.800781 194.101563 165.800781 194.101563 C 170.5 191.601563 181.25 191.167969 181.398438 189.800781 C 181.589844 188.433594 174.566406 185.78125 175.050781 182.339844 C 179.125 186.625 183.519531 188.332031 186.398438 188.101563 C 198.800781 186.300781 218.25 179.167969 221.085938 178 C 227.085938 175.832031 239.5 171.199219 247.601563 165.800781 C 248.25 165.125 247.625 164.4375 246.898438 164.800781 C 243.699219 166.101563 240.800781 168.101563 237.601563 169.398438 C 236.898438 165.5 242.375 162.0625 243.800781 161.5 C 247.398438 160.199219 254.199219 158.976563 255.101563 158.800781 C 255.75 167.6875 236.0625 175 225.601563 179.5 C 206.457031 187.734375 186.800781 194.398438 167.5 202 C 169.800781 199.800781 175.835938 197.082031 175.601563 196.5 C 175.585938 195.582031 171.898438 197 169.898438 196.800781 Z M 222.085938 151.085938 C 221.882813 149.882813 221.199219 148.800781 221 147.601563 C 222.835938 147.414063 224 147.199219 225.601563 147.101563 C 224.300781 148.398438 224.183594 150.683594 222.085938 151.085938 Z M 170.601563 154 C 166.609375 154.816406 167.699219 161.601563 165.300781 164.398438 L 166.800781 157.199219 C 166.898438 156.101563 165.796875 154.847656 164.800781 155 C 160.898438 155.800781 158 158.898438 154.5 160.800781 C 156.101563 158.300781 159.34375 157.269531 161.699219 154 C 161.886719 153.773438 161.886719 153.457031 161.199219 153.601563 C 160.039063 153.84375 155.699219 154.800781 152.800781 155.199219 C 154.898438 153.699219 160 152.835938 160 151.898438 C 160 151.25 155.800781 150.199219 153.300781 150.398438 C 159.5 149.300781 166.101563 149.699219 172.5 149.199219 C 190.800781 147.800781 210.101563 144.601563 227.699219 141.800781 C 230.480469 141.359375 237.5 141.398438 242.101563 142.800781 C 238.800781 143.101563 235.601563 143.800781 232.5 144.898438 C 211.300781 146 191.398438 150.800781 170.601563 154 Z M 323.898438 152.398438 C 325.800781 156 326.699219 160 327.300781 164.101563 C 320.398438 170.898438 311.898438 174.898438 303.5 178.800781 C 301.113281 179.917969 289.398438 182.699219 281.5 181.601563 C 275.875 180.296875 270.398438 171.699219 266.300781 166 C 264 160.398438 259.199219 155.398438 259.398438 149 L 262.5 147.300781 C 266.800781 153.601563 266.101563 162.800781 273.300781 167.699219 C 291.5 168 309.300781 164.300781 323 152.398438 Z M 322.5 150.398438 C 309.101563 162.800781 291.5 166.398438 273.300781 165.800781 C 267.898438 160.398438 267.300781 152.898438 264.699219 146.398438 L 266.800781 144.898438 C 266.199219 149.699219 269.101563 154.5 273.300781 157.398438 C 277.898438 158.699219 282.699219 157.5 285.800781 153.800781 C 286.800781 152.199219 287.800781 150.601563 287.699219 148.5 C 294.601563 146 301.5 139.101563 303.300781 132 C 310.5 136.199219 318.199219 143 322.5 150.398438 Z M 300.199219 121.398438 C 303.199219 125.398438 301.699219 132 299.898438 136.300781 C 297.101563 140.800781 292.5 145.101563 287.5 146.398438 C 286 144.5 284.199219 142.5 281.699219 142.5 C 279.199219 142.300781 277.101563 144.398438 275.898438 146.398438 C 275.300781 148.5 276.699219 150.101563 278.300781 151.199219 C 279.898438 151.800781 281.5 151.199219 282.699219 150.199219 C 283.601563 149.601563 283.601563 148.101563 282.898438 147.300781 C 282.5 146.601563 281.800781 146.5 281 146.601563 C 280.699219 147 280 147.199219 280.300781 147.800781 L 281 148.5 C 281.101563 148.398438 281.199219 148.199219 281.5 148.300781 C 281.800781 148.398438 281.699219 148.699219 281.699219 149 C 280.898438 149.5 279.800781 150 278.800781 149.5 C 278 148.601563 277 147.199219 278.101563 146.101563 C 279.199219 144.398438 281.101563 143.800781 282.898438 144.398438 C 284.5 145.300781 285.800781 146.5 286.300781 148.300781 C 286.199219 151.398438 284 153.5 281.5 155.199219 C 278.800781 156.300781 275.699219 156.300781 273.101563 155.199219 C 270.601563 152.601563 267.800781 149.300781 269 145.199219 C 275.898438 135.800781 289.972656 141.328125 297.5 131.699219 C 299.917969 128.605469 300 125.199219 300.199219 121.398438 Z M 298.699219 118.5 C 298.898438 122.101563 298.699219 126.699219 297.101563 130 C 289.898438 139.601563 276.898438 134.800781 269 142.5 C 263.398438 145.101563 257.800781 147.699219 252.699219 151.398438 C 253.898438 152.898438 254.101563 154.898438 254.800781 156.699219 C 248.5 157.398438 241.398438 163.601563 235.398438 157.898438 C 232.601563 154.898438 231.898438 151.101563 232.300781 146.800781 C 240.5 142.300781 252.199219 146.199219 259.898438 140.101563 L 262.511719 138.164063 C 261.800781 136.210938 260.496094 133.234375 261.242188 132.039063 C 261.914063 131.066406 264.457031 130.542969 268.191406 130.691406 C 270.0625 135.027344 274.566406 136.320313 277.101563 135.300781 C 277.898438 134.800781 277.480469 133.566406 276.695313 133.960938 C 274.59375 135.0625 272.417969 133.558594 271.183594 132.113281 C 270.292969 130.804688 270.0625 130.171875 269.921875 128.765625 L 273.300781 127.199219 C 273.78125 127.976563 274.253906 129.15625 275 128.601563 C 276.378906 127.503906 273.898438 124.800781 272.800781 123.101563 C 281.199219 120.898438 290.300781 119.699219 298.699219 118.5 Z M 280 79.898438 C 278.5 78.199219 277.988281 75.097656 278.601563 73.398438 C 279.332031 71.363281 281.199219 70.800781 282.898438 70.300781 C 285.746094 69.621094 288.007813 71.195313 289.101563 73.601563 C 289.785156 75.105469 290.082031 76.464844 288.898438 78.199219 C 287.363281 80.332031 286.003906 80.414063 283.964844 80.714844 C 282.5625 80.8125 281.160156 80.714844 280 79.898438 Z M 287 107.5 L 284.101563 105.800781 C 283.867188 97.222656 283.570313 90.371094 283.367188 82.496094 C 284.25 82.460938 285 82.375 286 82 C 287.101563 90.199219 287 98.898438 287 107.5 Z M 254.601563 123.800781 C 255.601563 115.300781 265.5 112.898438 272.101563 110.101563 L 282.28125 106.878906 C 288.425781 109.554688 290.5 114.5 291.5 118 C 284.699219 119.398438 277.5 120.101563 270.898438 122.101563 C 269.292969 122.78125 272.5 124.300781 272.601563 125.699219 C 271.101563 127.398438 267.800781 126.101563 267.5 129.101563 C 264.964844 129.472656 261.035156 129.3125 259.898438 131.5 C 259.261719 133.242188 259.515625 135.019531 260.65625 137.808594 L 257.699219 139.601563 C 256 134.898438 254.199219 129.101563 254.601563 123.800781 Z M 255.5 140.398438 C 251.601563 142.699219 245.699219 143.199219 241.398438 140.800781 C 238.902344 139.3125 228.300781 139.898438 222.398438 141.101563 C 221.101563 137.800781 219.699219 134.5 217.601563 131.5 C 228.699219 129.800781 240.199219 127.800781 251.699219 128.601563 L 253.101563 129.300781 Z M 9.800781 146.601563 C 13.199219 143.800781 18.832031 145.164063 22.5 144 C 40.300781 136.398438 61 138.199219 80.800781 135.601563 C 120.5 136 158.800781 133.199219 195.800781 125 C 213.300781 122.199219 234.898438 125.800781 253.101563 121.898438 L 252.699219 126.898438 C 247 127.6875 242.253906 127.191406 236.386719 127.585938 C 229.300781 128.054688 219.789063 129.421875 214.578125 130.417969 C 209.222656 131.441406 196.707031 134.355469 188.601563 135.101563 C 173.765625 136.464844 147.480469 134.105469 143 135.101563 C 118.898438 140.101563 95.199219 147.199219 69.101563 145.601563 C 69.101563 145.601563 67.882813 145.101563 67.898438 146.800781 C 67.917969 148.5 68.898438 157.300781 69.601563 162.398438 C 59.699219 165.800781 48.398438 166.699219 37.601563 167.199219 C 36.300781 164 36.398438 160.199219 35.699219 156.699219 C 34.5 152.101563 33.632813 146.882813 30.832031 143.082031 C 29.964844 142.214844 28.167969 142.25 28.300781 144.699219 C 28.800781 154.300781 30.082031 158.5 32.25 172.167969 C 32.582031 174.167969 32.300781 176.601563 34.5 176.398438 C 46.101563 175.398438 57.199219 173.398438 68.800781 172.5 C 67.398438 177.898438 69.949219 183.933594 73 188.667969 C 64.382813 189.734375 52.5 191.5 42.398438 191.699219 C 38.300781 189.601563 35.5 185.199219 32.800781 181.601563 C 32.800781 181.601563 27.535156 171.535156 26.101563 171.601563 C 24.667969 171.667969 25.050781 176.015625 25.898438 177.800781 C 26.75 179.582031 32.898438 192.101563 36 199.398438 C 36.917969 201.082031 38.667969 200.832031 41.199219 200.101563 C 52.101563 197.101563 63.800781 196.101563 75.101563 193.898438 C 77.699219 199.101563 78.101563 206 77.5 211.601563 C 69.101563 210.199219 59.082031 209.917969 48.699219 218.601563 C 39.101563 209.101563 39.109375 201.425781 26.1875 191.917969 C 23.988281 189.652344 13.898438 168.5 9.800781 158.101563 C 8.082031 153.332031 7.332031 149.582031 9.800781 146.601563 Z M 47.699219 230.800781 C 46.5 232.601563 44.101563 233 42.398438 232 C 34.199219 228.199219 30.601563 219.5 25.398438 212.800781 C 19.601563 202.898438 9.554688 184.792969 8.800781 182.800781 C 5.300781 172.800781 -2.199219 159.898438 6.898438 150 C 7.417969 159.332031 11.816406 167.050781 15.167969 174.25 C 18.964844 183.148438 23.398438 192.699219 32.101563 198.898438 C 34.132813 200.308594 41.300781 213.699219 48 220.300781 C 46 223.300781 46.398438 227.601563 47.699219 230.800781 Z M 58.800781 260.398438 C 56.199219 262 53.101563 262.199219 49.898438 262 C 47.800781 253 47.601563 242.898438 49.199219 233.5 C 51.210938 236.546875 51.953125 237.734375 57.746094 238.550781 C 58.046875 246.351563 59.199219 252.601563 58.800781 260.398438 Z M 328.699219 234.199219 C 326 234.800781 322.199219 235.101563 319.601563 234 C 319.699219 225.800781 319.5 218.101563 318.898438 210 C 323.398438 208 328.101563 206.601563 331.898438 202.800781 C 330.800781 213.199219 329.101563 223.699219 328.699219 234.199219 Z M 331.601563 200.601563 C 323.644531 209.140625 311.515625 209.722656 302.101563 213.101563 C 291.402344 216.9375 283.996094 216.628906 267.632813 218.472656 C 246.195313 220.378906 227.035156 222.871094 206.398438 224.601563 C 200.789063 225.070313 156.398438 230.398438 151.898438 230.398438 C 133.292969 230.410156 132.585938 229.332031 98.800781 233.199219 C 86.152344 234.648438 74.5 238.199219 61.398438 237.300781 C 57 236.582031 52.699219 236.5 50.398438 232 C 48.800781 228.5 47 223.898438 50.101563 220.5 C 57.101563 213.199219 68.199219 211.5 77.5 213.800781 C 76.601563 216.601563 76.101563 220.199219 77 223.199219 C 78.089844 226.449219 78.757813 230.679688 85.898438 228.199219 C 91.601563 226.199219 100.25 221.5 102.699219 221 C 120.898438 218.101563 136.101563 208.800781 156.398438 212.398438 C 175.398438 215.101563 197.398438 222.101563 215.199219 211.898438 C 219.664063 209.417969 225.101563 211.699219 230.101563 209.5 C 233.335938 207.832031 233 200.601563 236.601563 198 C 260.601563 196.601563 284.4375 193.925781 306.398438 186.199219 C 311.640625 184.355469 319.601563 179.398438 326.601563 177.101563 C 327.101563 185.398438 337.515625 194.25 331.601563 200.601563 Z M 341.195313 189.554688 C 339.417969 190.824219 337.804688 190.464844 335.105469 191.207031 C 333.996094 187.039063 332.0625 184.101563 330.667969 181.183594 C 332.570313 180.042969 333.078125 178.523438 333.078125 177.507813 C 333.457031 160.386719 332.800781 145 333.101563 128.398438 C 335.03125 128.761719 336.5625 128.761719 338.601563 128.398438 C 338.5 148.898438 340.894531 168.257813 341.195313 189.554688 Z M 331.398438 126.199219 C 326.570313 124.160156 328.417969 118.808594 330.199219 117.101563 C 333 114.898438 337.5 115.898438 340 118 C 341.601563 119.601563 343.6875 121.785156 342.398438 123.800781 C 339.898438 126.800781 335.199219 127.199219 331.398438 126.199219 "/>
<path style=" stroke:none;fill-rule:nonzero;fill:rgb(0%,0%,0%);fill-opacity:1;" d="M 289.683594 128.765625 C 288.585938 126.863281 287.871094 124.039063 287.5 122.398438 C 286.613281 123.882813 286.0625 127.347656 289.683594 128.765625 "/>
<path style=" stroke:none;fill-rule:nonzero;fill:rgb(0%,0%,0%);fill-opacity:1;" d="M 294.398438 126.699219 C 295.398438 124.5 293.539063 121.128906 292 120.699219 C 290.3125 120.65625 292.15625 122.355469 292.699219 123.101563 C 293.621094 124.355469 293.898438 125.699219 294.398438 126.699219 "/>
</g>
</svg>
