<?xml version="1.0" encoding="UTF-8"?>
<svg xmlns="http://www.w3.org/2000/svg" xmlns:xlink="http://www.w3.org/1999/xlink" width="561pt" height="323pt" viewBox="0 0 561 323" version="1.1">
<g id="surface1">
<path style=" stroke:none;fill-rule:nonzero;fill:rgb(0%,0%,0%);fill-opacity:1;" d="M 122.230469 112.019531 C 123.691406 111.230469 124.230469 109.394531 123.441406 107.9375 C 120.136719 103.804688 123.417969 101.515625 126.355469 101.480469 C 192.503906 100.625 388.503906 102.625 430.980469 103.019531 C 432.625 103.035156 434.105469 102.105469 434.355469 100.480469 C 434.566406 98.8125 433.410156 97.199219 431.773438 97.105469 C 390.003906 94.625 192.941406 93.519531 126.355469 95.480469 C 126.003906 95.480469 122.769531 95.855469 121.921875 96.542969 C 116.140625 100.261719 114.347656 104.886719 118.148438 110.855469 C 118.980469 112.3125 120.773438 112.8125 122.230469 112.019531 "/>
<path style=" stroke:none;fill-rule:nonzero;fill:rgb(0%,0%,0%);fill-opacity:1;" d="M 437.257813 120.269531 C 443.039063 116.550781 444.832031 111.929688 441.027344 105.960938 C 440.195313 104.5 438.402344 104 436.945313 104.789063 C 435.488281 105.585938 434.945313 107.414063 435.738281 108.875 C 439.042969 113.007813 435.761719 115.335938 432.820313 115.335938 C 366.238281 117.289063 163.027344 119.164063 128.195313 113.789063 C 126.570313 113.539063 125.070313 114.710938 124.820313 116.335938 C 124.613281 118 125.777344 119.5 127.402344 119.710938 C 162.488281 125.25 366.238281 123.289063 432.820313 121.335938 C 433.175781 121.335938 436.410156 120.953125 437.257813 120.269531 "/>
<path style=" stroke:none;fill-rule:nonzero;fill:rgb(0%,0%,0%);fill-opacity:1;" d="M 125.128906 315.375 C 123.253906 315.5625 121.441406 315.3125 119.691406 314.8125 L 118.914063 314.613281 C 125.070313 293.035156 126.511719 271.328125 130.816406 248.625 C 138.691406 206.4375 144.316406 166.875 152.378906 126.1875 C 152.816406 124.5625 151.878906 122.9375 150.316406 122.5 C 148.691406 122.0625 147.066406 123 146.628906 124.5625 C 138.441406 165.375 132.878906 205.0625 124.941406 247.375 C 120.566406 270.6875 119.003906 292.875 112.691406 315 L 112.566406 316.5625 C 112.441406 317.875 113.128906 319.0625 114.316406 319.5625 L 116.753906 320.375 C 119.503906 320.9375 122.253906 321.5625 125.066406 321.375 C 126.753906 321.375 128.128906 320.0625 128.128906 318.375 C 128.128906 316.75 126.753906 315.375 125.128906 315.375 "/>
<path style=" stroke:none;fill-rule:nonzero;fill:rgb(0%,0%,0%);fill-opacity:1;" d="M 168.390625 126.960938 C 166.757813 126.789063 165.246094 127.929688 165.074219 129.5625 C 156.945313 190.339844 141.9375 249.886719 129.769531 309.921875 C 129.535156 311.558594 130.734375 313.066406 132.371094 313.238281 C 134.007813 313.46875 135.515625 312.269531 135.6875 310.636719 C 147.921875 250.660156 162.867188 191.117188 170.996094 130.339844 C 171.230469 128.699219 170.027344 127.195313 168.390625 126.960938 "/>
<path style=" stroke:none;fill-rule:nonzero;fill:rgb(0%,0%,0%);fill-opacity:1;" d="M 448.566406 316 C 442.253906 293.875 440.691406 271.6875 436.316406 248.375 C 428.378906 206.0625 422.816406 166.375 414.628906 125.5625 C 414.191406 124 412.566406 123.0625 410.941406 123.5 C 409.378906 123.9375 408.441406 125.5625 408.878906 127.1875 C 416.941406 167.875 422.566406 207.4375 430.441406 249.625 C 434.742188 272.328125 436.1875 294.035156 442.339844 315.613281 L 441.566406 315.8125 C 439.816406 316.3125 438.003906 316.5625 436.128906 316.375 C 434.503906 316.375 433.128906 317.75 433.128906 319.375 C 433.128906 321.0625 434.503906 322.375 436.191406 322.375 C 439.003906 322.5625 441.753906 321.9375 444.503906 321.375 L 446.941406 320.5625 C 448.128906 320.0625 448.816406 318.875 448.691406 317.5625 L 448.566406 316 "/>
<path style=" stroke:none;fill-rule:nonzero;fill:rgb(0%,0%,0%);fill-opacity:1;" d="M 396.179688 130.5625 C 396.007813 128.929688 394.5 127.789063 392.863281 127.960938 C 391.226563 128.195313 390.027344 129.699219 390.261719 131.339844 C 398.390625 192.117188 413.335938 251.660156 425.570313 311.636719 C 425.742188 313.269531 427.246094 314.46875 428.886719 314.238281 C 430.519531 314.066406 431.71875 312.558594 431.484375 310.921875 C 419.316406 250.886719 404.308594 191.339844 396.179688 130.5625 "/>
<path style=" stroke:none;fill-rule:nonzero;fill:rgb(0%,0%,0%);fill-opacity:1;" d="M 9.136719 13.136719 C 22.453125 6.613281 37.195313 10.230469 51.984375 9.164063 C 61.183594 8.511719 69.53125 7.632813 78.585938 7.40625 C 82.246094 7.332031 85.917969 8.203125 88.957031 10.195313 C 92.144531 12.265625 92.492188 16.554688 92.511719 20.144531 C 92.535156 22.351563 91.851563 24.441406 92.03125 26.632813 C 93.058594 38.019531 97.828125 69.332031 98.300781 80.617188 C 98.585938 88.359375 98.953125 95.453125 99.390625 103.242188 C 100.347656 119.496094 100.28125 130.371094 103.269531 145.925781 C 103.378906 147.570313 104.855469 148.792969 106.503906 148.648438 C 108.152344 148.507813 109.371094 147.066406 109.230469 145.417969 C 104.621094 121.335938 105.539063 102.046875 103.9375 76.8125 C 103.320313 67.300781 99.65625 37.3125 98.066406 28.03125 C 97.566406 25.078125 98.683594 22.253906 98.511719 19.148438 C 98.144531 13.160156 96.378906 6.472656 90.375 4.003906 C 78.871094 -0.648438 67.261719 2.300781 55.144531 3.144531 C 38.261719 4.378906 21.398438 0.324219 6.226563 7.890625 C 4.78125 8.695313 4.25 10.519531 5.054688 11.96875 C 5.863281 13.414063 7.6875 13.945313 9.136719 13.136719 "/>
<path style=" stroke:none;fill-rule:nonzero;fill:rgb(0%,0%,0%);fill-opacity:1;" d="M 25.589844 163.277344 C 25.953125 164.886719 27.542969 165.933594 29.152344 165.566406 C 30.789063 165.203125 31.808594 163.582031 31.445313 161.972656 C 27.46875 141.445313 26.234375 120.464844 22.648438 99.5 C 20.269531 85.722656 14.855469 51.3125 13.085938 37.671875 L 10.503906 33.402344 C 6.042969 29.324219 6.65625 23.292969 8.296875 18.136719 C 8.492188 16.492188 7.3125 15 5.667969 14.808594 C 4.023438 14.613281 2.53125 15.792969 2.339844 17.4375 C -1.328125 27.3125 3.210938 34.222656 5.707031 37.0625 C 6.542969 38.007813 7.3125 39.785156 7.40625 40.480469 C 9.449219 55.820313 14.488281 87.425781 16.777344 100.730469 C 20.363281 121.695313 21.613281 142.75 25.589844 163.277344 "/>
<path style=" stroke:none;fill-rule:nonzero;fill:rgb(0%,0%,0%);fill-opacity:1;" d="M 38.660156 164.28125 C 39.160156 165.875 40.847656 166.75 42.410156 166.21875 C 60.128906 161.21875 77.941406 156.59375 96.285156 154.34375 C 97.910156 154 98.941406 152.4375 98.597656 150.8125 C 98.253906 149.1875 96.660156 148.15625 95.066406 148.46875 C 76.535156 150.6875 58.535156 155.4375 40.597656 160.53125 C 39.003906 161.03125 38.128906 162.71875 38.660156 164.28125 "/>
<path style=" stroke:none;fill-rule:nonzero;fill:rgb(0%,0%,0%);fill-opacity:1;" d="M 32.035156 173.25 C 36.003906 176.40625 40.566406 178.34375 45.597656 179.375 C 67.410156 183.9375 87.566406 186.09375 109.097656 188.5625 C 112.722656 188.96875 116.285156 189.1875 119.910156 188.84375 C 123.472656 188.5 126.785156 187.09375 129.660156 184.90625 C 131.003906 183.9375 131.316406 182.0625 130.347656 180.71875 C 129.378906 179.375 127.503906 179.0625 126.160156 180.03125 C 123.941406 181.71875 121.441406 182.84375 118.628906 182.875 C 102.035156 183.03125 86.066406 179.53125 69.378906 177.15625 C 57.785156 175.5 45.597656 175.625 35.847656 168.625 C 34.566406 167.5625 32.691406 167.75 31.628906 169.03125 C 30.566406 170.3125 30.753906 172.1875 32.035156 173.25 "/>
<path style=" stroke:none;fill-rule:nonzero;fill:rgb(0%,0%,0%);fill-opacity:1;" d="M 107.753906 150.5 C 107.503906 152.125 108.597656 153.65625 110.253906 153.9375 C 117.035156 155 129.003906 155.6875 135.691406 157.40625 C 137.347656 157.625 138.847656 156.4375 139.035156 154.8125 C 139.253906 153.15625 138.066406 151.65625 136.410156 151.46875 C 129.785156 149.6875 117.910156 149.0625 111.191406 148 C 109.566406 147.75 108.035156 148.84375 107.753906 150.5 "/>
<path style=" stroke:none;fill-rule:nonzero;fill:rgb(0%,0%,0%);fill-opacity:1;" d="M 52.933594 71.648438 C 50.921875 59.996094 45.414063 50.304688 42.457031 39.328125 L 40.570313 34.929688 C 39.925781 34.234375 39.023438 33.882813 38.082031 33.964844 L 36.769531 34.070313 C 33.761719 34.753906 27.476563 34.363281 24.5 35.171875 C 22.839844 35.433594 21.757813 36.980469 22.050781 38.609375 C 22.3125 40.269531 23.859375 41.351563 25.488281 41.058594 C 28.128906 40.566406 33.042969 40.496094 36.417969 40.175781 C 39.164063 50.777344 44.503906 60.113281 46.71875 71.351563 C 48.335938 79.496094 49.496094 87.074219 49.988281 95.050781 C 51.03125 112.128906 49.972656 129.28125 52.503906 146.15625 C 52.660156 147.8125 54.128906 149.03125 55.785156 148.875 C 57.410156 148.71875 58.628906 147.25 58.472656 145.625 C 55.910156 128.65625 57.007813 111.480469 55.96875 94.3125 C 55.5 86.679688 54.277344 79.445313 52.933594 71.648438 "/>
<path style=" stroke:none;fill-rule:nonzero;fill:rgb(0%,0%,0%);fill-opacity:1;" d="M 33.085938 109.96875 C 36.238281 125.664063 35.941406 141 39.378906 156.0625 C 40.066406 157.5625 41.847656 158.21875 43.347656 157.53125 C 44.878906 156.84375 45.535156 155.0625 44.847656 153.5625 C 42.128906 138.84375 41.976563 124.109375 38.945313 108.820313 C 34.710938 87.238281 31.519531 67.257813 28.179688 46.371094 C 27.792969 44.773438 26.148438 43.785156 24.550781 44.171875 C 22.953125 44.558594 21.964844 46.203125 22.351563 47.800781 C 25.59375 68.59375 28.820313 88.507813 33.085938 109.96875 "/>
<path style=" stroke:none;fill-rule:nonzero;fill:rgb(0%,0%,0%);fill-opacity:1;" d="M 84.601563 28.222656 C 81.515625 28.1875 75.53125 30.140625 72.449219 30.234375 L 71.148438 30.460938 C 70.21875 30.617188 69.433594 31.1875 68.984375 32.019531 L 68.261719 36.753906 C 68.152344 48.117188 65.253906 58.882813 66.226563 70.664063 C 66.882813 78.550781 67.515625 85.859375 68.972656 93.363281 C 72.277344 110.246094 76.574219 126.476563 78.769531 143.496094 C 79.066406 145.101563 80.640625 146.179688 82.246094 145.882813 C 83.882813 145.578125 84.957031 144.003906 84.652344 142.367188 C 82.453125 125.445313 78.222656 109.371094 74.949219 92.582031 C 73.425781 84.734375 72.644531 77.109375 72.167969 68.820313 C 71.496094 57.386719 74.324219 47.007813 74.316406 36.054688 C 77.140625 35.605469 80.957031 34.714844 83.695313 34.332031 C 83.21875 34.871094 82.921875 35.574219 82.933594 36.34375 C 84.941406 57.398438 86.863281 77.539063 88.179688 99.496094 C 89.082031 115.054688 91.675781 128.855469 93.101563 143.753906 C 92.851563 145.386719 93.972656 146.921875 95.632813 147.160156 C 97.265625 147.410156 98.796875 146.289063 99.046875 144.65625 C 98.21875 129.230469 95.023438 115.121094 94.136719 99.136719 C 92.886719 77.289063 91.011719 57.203125 88.9375 36.261719 C 88.914063 34.945313 88.027344 33.835938 86.828125 33.453125 C 87.523438 32.851563 87.933594 31.941406 87.835938 30.9375 C 87.710938 29.285156 86.273438 28.058594 84.601563 28.222656 "/>
<path style=" stroke:none;fill-rule:nonzero;fill:rgb(0%,0%,0%);fill-opacity:1;" d="M 125.160156 199.8125 C 126.753906 199.28125 127.628906 197.59375 127.097656 196.03125 C 126.597656 194.4375 124.910156 193.59375 123.347656 194.09375 C 120.066406 195.25 117.003906 197.375 113.472656 197.25 C 101.066406 196.75 89.253906 193.71875 76.722656 191.84375 C 61.441406 189.578125 46.390625 188.394531 32.320313 182.578125 C 29.628906 181.46875 29.941406 181.316406 29.941406 178.9375 C 29.941406 177.28125 28.597656 175.9375 26.941406 175.9375 C 25.285156 175.9375 23.941406 177.28125 23.941406 178.9375 C 23.875 181.300781 23.933594 184.472656 27.285156 186.589844 C 34.011719 190.847656 42.253906 192.078125 50.191406 194 C 58.847656 196.0625 67.128906 196.25 75.941406 197.75 C 88.128906 199.8125 99.472656 202.0625 111.597656 203.34375 C 116.472656 203.84375 120.816406 201.5 125.160156 199.8125 "/>
<path style=" stroke:none;fill-rule:nonzero;fill:rgb(0%,0%,0%);fill-opacity:1;" d="M 109.816406 207 C 109.816406 205.34375 108.472656 204 106.816406 204 C 105.160156 204 103.816406 205.34375 103.816406 207 C 103.691406 241.875 103.753906 276.71875 105.316406 311.5625 C 105.410156 313.21875 106.847656 314.5 108.503906 314.375 C 110.160156 314.28125 111.410156 312.84375 111.316406 311.1875 C 109.753906 276.46875 109.691406 241.75 109.816406 207 "/>
<path style=" stroke:none;fill-rule:nonzero;fill:rgb(0%,0%,0%);fill-opacity:1;" d="M 104.40625 314.332031 C 103.8125 314.332031 103.1875 314.332031 102.59375 314.332031 C 102.1875 314.332031 101.796875 314.417969 101.4375 314.566406 C 100.71875 297.949219 99.285156 281.460938 98.597656 264.84375 C 97.753906 244.65625 99.222656 224.5 97.878906 204.34375 C 97.503906 202.71875 95.910156 201.71875 94.285156 202.0625 C 92.660156 202.4375 91.660156 204.03125 92.003906 205.65625 C 93.035156 225.375 91.816406 245.09375 92.597656 264.84375 C 93.253906 281.5 94.722656 298.03125 95.441406 314.65625 C 95.472656 316.3125 96.816406 317.65625 98.472656 317.625 C 98.871094 317.617188 99.253906 317.53125 99.601563 317.382813 C 99.628906 319.015625 100.957031 320.332031 102.59375 320.332031 C 103.1875 320.332031 103.8125 320.332031 104.40625 320.332031 C 106.0625 320.332031 107.40625 318.988281 107.40625 317.332031 C 107.40625 315.675781 106.0625 314.332031 104.40625 314.332031 "/>
<path style=" stroke:none;fill-rule:nonzero;fill:rgb(0%,0%,0%);fill-opacity:1;" d="M 47.816406 197.65625 C 48.363281 196.089844 47.578125 194.378906 46.011719 193.800781 C 44.445313 193.253906 42.734375 194.039063 42.15625 195.605469 C 38.246094 215.421875 37.125 235.601563 33.707031 255.515625 C 30.898438 271.914063 27.363281 288.097656 24.527344 304.492188 C 24.28125 306.132813 25.445313 307.636719 27.082031 307.878906 C 28.722656 308.121094 30.226563 306.960938 30.46875 305.324219 C 33.308594 288.925781 36.878906 272.71875 39.660156 256.28125 C 42.957031 236.792969 44.269531 217.082031 47.816406 197.65625 "/>
<path style=" stroke:none;fill-rule:nonzero;fill:rgb(0%,0%,0%);fill-opacity:1;" d="M 20.566406 302.472656 C 20.542969 302.46875 20.515625 302.46875 20.492188 302.464844 C 20.675781 302.164063 20.816406 301.835938 20.882813 301.46875 C 26.886719 267.113281 31.40625 232.5625 35.738281 197.960938 C 35.953125 196.316406 34.789063 194.8125 33.148438 194.601563 C 31.507813 194.386719 30 195.550781 29.789063 197.191406 C 25.46875 231.671875 20.96875 266.097656 14.980469 300.332031 C 14.765625 301.484375 15.238281 302.605469 16.101563 303.277344 C 15.738281 303.703125 15.488281 304.234375 15.410156 304.832031 C 15.199219 306.476563 16.359375 307.980469 18 308.191406 C 18.589844 308.269531 19.210938 308.347656 19.796875 308.425781 C 21.441406 308.636719 22.945313 307.476563 23.15625 305.832031 C 23.371094 304.191406 22.207031 302.683594 20.566406 302.472656 "/>
<path style=" stroke:none;fill-rule:nonzero;fill:rgb(0%,0%,0%);fill-opacity:1;" d="M 87.816406 279.375 C 72.222656 276.8125 56.910156 272.96875 41.660156 268.90625 C 40.035156 268.65625 38.503906 269.78125 38.253906 271.40625 C 37.972656 273.0625 39.097656 274.59375 40.753906 274.84375 C 44.628906 275.65625 48.160156 277.21875 52.160156 278 C 64.472656 280.3125 75.597656 284.03125 87.660156 285.375 C 89.316406 285.40625 90.691406 284.125 90.753906 282.46875 C 90.785156 280.8125 89.472656 279.40625 87.816406 279.375 "/>
<path style=" stroke:none;fill-rule:nonzero;fill:rgb(0%,0%,0%);fill-opacity:1;" d="M 115.003906 279.875 C 115.378906 279.875 115.785156 279.875 116.160156 279.875 C 117.816406 279.875 119.160156 278.53125 119.160156 276.875 C 119.160156 275.21875 117.816406 273.875 116.160156 273.875 C 115.785156 273.875 115.378906 273.875 115.003906 273.875 C 113.347656 273.875 112.003906 275.21875 112.003906 276.875 C 112.003906 278.53125 113.347656 279.875 115.003906 279.875 "/>
<path style=" stroke:none;fill-rule:nonzero;fill:rgb(0%,0%,0%);fill-opacity:1;" d="M 55.066406 263.625 C 64.285156 261.9375 73.066406 258.625 82.066406 256.125 C 83.566406 255.4375 84.222656 253.65625 83.566406 252.15625 C 82.878906 250.625 81.097656 249.96875 79.597656 250.65625 C 71.003906 252.875 62.722656 256.15625 53.941406 257.71875 C 52.316406 258.03125 51.253906 259.59375 51.566406 261.21875 C 51.847656 262.84375 53.410156 263.9375 55.066406 263.625 "/>
<path style=" stroke:none;fill-rule:nonzero;fill:rgb(0%,0%,0%);fill-opacity:1;" d="M 115.722656 244.46875 C 114.128906 244.0625 112.503906 245.03125 112.097656 246.65625 C 111.691406 248.25 112.660156 249.875 114.285156 250.28125 C 115.878906 250.78125 117.535156 250.9375 119.191406 250.875 C 120.847656 250.875 122.191406 249.53125 122.191406 247.875 C 122.191406 246.21875 120.847656 244.875 119.191406 244.875 C 118.003906 244.9375 116.847656 244.84375 115.722656 244.46875 "/>
<path style=" stroke:none;fill-rule:nonzero;fill:rgb(0%,0%,0%);fill-opacity:1;" d="M 152.066406 263.75 C 150.535156 264.34375 145.222656 267.90625 145.566406 269.5 C 145.910156 271.125 147.535156 272.15625 149.128906 271.8125 C 151.285156 271.375 156.910156 266.375 156.128906 264.9375 C 155.316406 263.46875 153.503906 262.9375 152.066406 263.75 "/>
<path style=" stroke:none;fill-rule:nonzero;fill:rgb(0%,0%,0%);fill-opacity:1;" d="M 165.503906 207.375 C 165.289063 205.730469 163.785156 204.570313 162.144531 204.78125 C 160.503906 204.996094 159.339844 206.5 159.550781 208.144531 C 163.824219 242.246094 166.390625 252.289063 172.21875 285.546875 C 172.289063 285.972656 168.417969 287.652344 168.3125 287.035156 C 165.613281 271.347656 162.675781 253.492188 159.003906 234.875 C 158.421875 233.3125 156.714844 232.523438 155.148438 233.074219 C 153.585938 233.652344 152.796875 235.359375 153.34375 236.929688 C 154.417969 242.816406 155.453125 248.566406 156.457031 254.203125 C 155.902344 254.03125 151.5 252.75 150.820313 255.808594 C 150.464844 257.425781 151.132813 259.082031 152.703125 259.605469 C 153.84375 259.953125 157.03125 260.46875 157.546875 260.328125 C 159.445313 271.046875 161.226563 281.273438 162.890625 290.886719 C 163.132813 292.523438 164.636719 293.683594 166.273438 293.441406 C 167.101563 293.320313 176.859375 289.160156 176.847656 289.097656 C 177.96875 288.492188 178.625 287.214844 178.378906 285.894531 C 172.390625 251.660156 169.820313 241.855469 165.503906 207.375 "/>
<path style=" stroke:none;fill-rule:nonzero;fill:rgb(0%,0%,0%);fill-opacity:1;" d="M 456.394531 151.144531 C 458.042969 151.289063 459.519531 150.066406 459.628906 148.421875 C 462.617188 132.867188 462.234375 122.265625 463.082031 106.007813 C 463.46875 98.210938 463.785156 91.117188 464.019531 83.375 C 464.414063 72.085938 468.976563 40.738281 469.921875 29.347656 C 470.09375 27.152344 469.390625 25.066406 469.402344 22.863281 C 469.398438 19.273438 469.714844 14.984375 472.886719 12.890625 C 475.914063 10.875 479.578125 9.980469 483.238281 10.03125 C 492.296875 10.195313 500.648438 11.019531 509.855469 11.605469 C 524.648438 12.574219 539.367188 8.859375 552.730469 15.292969 C 554.183594 16.089844 556.003906 15.546875 556.800781 14.09375 C 557.597656 12.640625 557.054688 10.820313 555.601563 10.023438 C 540.378906 2.5625 523.546875 6.726563 506.65625 5.613281 C 494.53125 4.851563 482.902344 1.980469 471.429688 6.710938 C 465.441406 9.214844 463.722656 15.914063 463.394531 21.90625 C 463.246094 25.011719 464.382813 27.832031 463.898438 30.789063 C 462.375 40.078125 458.910156 70.089844 458.359375 79.605469 C 456.925781 104.851563 458.277344 123.832031 453.667969 147.914063 C 453.527344 149.5625 454.746094 151.003906 456.394531 151.144531 "/>
<path style=" stroke:none;fill-rule:nonzero;fill:rgb(0%,0%,0%);fill-opacity:1;" d="M 559.554688 19.546875 C 559.351563 17.902344 557.851563 16.734375 556.207031 16.9375 C 554.5625 17.144531 553.394531 18.644531 553.601563 20.285156 C 555.277344 25.429688 555.933594 31.460938 551.496094 35.566406 L 550.894531 36.304688 C 550.152344 36.648438 549.601563 37.28125 549.347656 38.039063 L 548.941406 39.851563 C 547.269531 53.507813 542.085938 87.953125 539.796875 101.746094 C 536.355469 122.734375 535.429688 143.941406 531.453125 164.46875 C 531.089844 166.078125 532.105469 167.699219 533.746094 168.0625 C 535.355469 168.429688 536.945313 167.382813 537.308594 165.773438 C 541.285156 145.246094 542.234375 123.925781 545.675781 102.9375 C 547.980469 89.011719 553.144531 55.082031 554.886719 40.644531 L 555.386719 40.25 C 561.09375 35.007813 562.222656 26.585938 559.554688 19.546875 "/>
<path style=" stroke:none;fill-rule:nonzero;fill:rgb(0%,0%,0%);fill-opacity:1;" d="M 436.738281 182.527344 C 435.394531 181.558594 433.519531 181.871094 432.550781 183.214844 C 431.582031 184.558594 431.894531 186.433594 433.238281 187.402344 C 436.113281 189.589844 439.425781 190.996094 442.988281 191.339844 C 446.613281 191.683594 450.175781 191.464844 453.800781 191.058594 C 475.332031 188.589844 495.488281 186.433594 517.300781 181.871094 C 522.332031 180.839844 526.894531 178.902344 530.863281 175.746094 C 532.144531 174.683594 532.332031 172.808594 531.269531 171.527344 C 530.207031 170.246094 528.332031 170.058594 527.050781 171.121094 C 517.300781 178.121094 505.113281 177.996094 493.519531 179.652344 C 476.832031 182.027344 460.863281 185.527344 444.269531 185.371094 C 441.457031 185.339844 438.957031 184.214844 436.738281 182.527344 "/>
<path style=" stroke:none;fill-rule:nonzero;fill:rgb(0%,0%,0%);fill-opacity:1;" d="M 422.613281 156.746094 C 422.800781 158.371094 424.300781 159.558594 425.957031 159.339844 C 432.644531 157.621094 444.613281 156.933594 451.394531 155.871094 C 453.050781 155.589844 454.144531 154.058594 453.894531 152.433594 C 453.613281 150.777344 452.082031 149.683594 450.457031 149.933594 C 443.738281 150.996094 431.863281 151.621094 425.238281 153.402344 C 423.582031 153.589844 422.394531 155.089844 422.613281 156.746094 "/>
<path style=" stroke:none;fill-rule:nonzero;fill:rgb(0%,0%,0%);fill-opacity:1;" d="M 537.515625 37.429688 C 534.53125 36.644531 523.921875 36.3125 523.921875 36.3125 C 522.980469 36.238281 522.082031 36.597656 521.441406 37.296875 L 519.585938 41.710938 C 516.699219 52.703125 511.261719 62.433594 509.324219 74.097656 C 508.035156 81.90625 506.863281 89.148438 506.445313 96.78125 C 505.523438 113.960938 506.988281 131.152344 504.425781 148.121094 C 504.269531 149.746094 505.488281 151.214844 507.113281 151.371094 C 508.769531 151.527344 510.238281 150.308594 510.394531 148.652344 C 512.925781 131.777344 511.503906 114.5625 512.429688 97.480469 C 512.871094 89.503906 513.976563 81.914063 515.539063 73.761719 C 517.679688 62.507813 522.957031 53.132813 525.628906 42.515625 C 529.007813 42.8125 533.921875 42.847656 536.5625 43.324219 C 538.195313 43.605469 539.734375 42.515625 539.984375 40.851563 C 540.269531 39.222656 539.175781 37.679688 537.515625 37.429688 "/>
<path style=" stroke:none;fill-rule:nonzero;fill:rgb(0%,0%,0%);fill-opacity:1;" d="M 537.523438 46.429688 C 535.921875 46.054688 534.285156 47.054688 533.90625 48.65625 C 530.714844 69.5625 529.207031 90.152344 524.707031 111.683594 C 521.488281 126.933594 520.769531 141.339844 518.050781 156.058594 C 517.363281 157.558594 518.019531 159.339844 519.550781 160.027344 C 521.050781 160.714844 522.832031 160.058594 523.519531 158.558594 C 526.957031 143.496094 527.207031 128.558594 530.550781 112.902344 C 535.082031 91.496094 536.644531 70.859375 539.746094 50.046875 C 540.125 48.445313 539.125 46.808594 537.523438 46.429688 "/>
<path style=" stroke:none;fill-rule:nonzero;fill:rgb(0%,0%,0%);fill-opacity:1;" d="M 463.863281 151.683594 C 463.519531 153.308594 464.550781 154.871094 466.175781 155.214844 C 484.519531 157.464844 502.332031 162.089844 520.050781 167.089844 C 521.613281 167.621094 523.300781 166.746094 523.800781 165.152344 C 524.332031 163.589844 523.457031 161.902344 521.863281 161.402344 C 504.332031 156.425781 486.738281 151.78125 468.648438 149.5 C 469.648438 148.890625 470.230469 147.726563 470.046875 146.503906 C 471.472656 131.601563 473.730469 117.996094 474.527344 102.433594 C 475.691406 80.464844 477.480469 60.3125 479.34375 39.246094 C 479.355469 38.347656 478.945313 37.546875 478.316406 36.988281 C 481.058594 37.355469 484.878906 38.21875 487.703125 38.652344 C 487.773438 49.601563 490.667969 59.960938 490.070313 71.398438 C 489.652344 79.695313 488.921875 87.324219 487.453125 95.179688 C 484.289063 111.992188 480.441406 127.941406 478.242188 144.863281 C 477.9375 146.5 479.015625 148.074219 480.652344 148.378906 C 482.257813 148.675781 483.835938 147.597656 484.128906 145.992188 C 486.324219 128.972656 490.246094 112.828125 493.433594 95.921875 C 494.84375 88.410156 495.421875 81.09375 496.027344 73.203125 C 496.921875 61.414063 493.949219 50.671875 493.761719 39.304688 L 493.011719 34.578125 C 492.550781 33.746094 491.765625 33.183594 490.835938 33.035156 C 490.835938 33.035156 480.449219 30.832031 477.363281 30.886719 C 475.691406 30.734375 474.265625 31.972656 474.148438 33.621094 C 474.046875 34.769531 474.605469 35.789063 475.492188 36.363281 C 474.265625 36.734375 473.355469 37.863281 473.34375 39.203125 C 471.410156 60.160156 469.671875 80.261719 468.566406 102.113281 C 467.785156 118.101563 464.929688 131.976563 464.101563 147.402344 C 464.246094 148.351563 464.828125 149.113281 465.605469 149.550781 C 464.75 149.929688 464.074219 150.691406 463.863281 151.683594 "/>
<path style=" stroke:none;fill-rule:nonzero;fill:rgb(0%,0%,0%);fill-opacity:1;" d="M 529.191406 258.011719 C 525.773438 238.097656 524.652344 217.917969 520.742188 198.101563 C 520.160156 196.535156 518.453125 195.746094 516.886719 196.296875 C 515.320313 196.878906 514.535156 198.585938 515.082031 200.152344 C 518.628906 219.578125 519.9375 239.289063 523.238281 258.777344 C 526.019531 275.214844 529.589844 291.421875 532.429688 307.820313 C 532.671875 309.457031 534.175781 310.617188 535.816406 310.375 C 537.453125 310.132813 538.613281 308.628906 538.371094 306.988281 C 535.535156 290.59375 531.996094 274.410156 529.191406 258.011719 "/>
<path style=" stroke:none;fill-rule:nonzero;fill:rgb(0%,0%,0%);fill-opacity:1;" d="M 521.238281 271.402344 C 505.988281 275.464844 490.675781 279.308594 475.082031 281.871094 C 473.425781 281.902344 472.113281 283.308594 472.144531 284.964844 C 472.207031 286.621094 473.582031 287.902344 475.238281 287.871094 C 487.300781 286.527344 498.425781 282.808594 510.738281 280.496094 C 514.738281 279.714844 518.269531 278.152344 522.144531 277.339844 C 523.800781 277.089844 524.925781 275.558594 524.644531 273.902344 C 524.394531 272.277344 522.863281 271.152344 521.238281 271.402344 "/>
<path style=" stroke:none;fill-rule:nonzero;fill:rgb(0%,0%,0%);fill-opacity:1;" d="M 447.894531 276.371094 C 447.519531 276.371094 447.113281 276.371094 446.738281 276.371094 C 445.082031 276.371094 443.738281 277.714844 443.738281 279.371094 C 443.738281 281.027344 445.082031 282.371094 446.738281 282.371094 C 447.113281 282.371094 447.519531 282.371094 447.894531 282.371094 C 449.550781 282.371094 450.894531 281.027344 450.894531 279.371094 C 450.894531 277.714844 449.550781 276.371094 447.894531 276.371094 "/>
<path style=" stroke:none;fill-rule:nonzero;fill:rgb(0%,0%,0%);fill-opacity:1;" d="M 483.300781 253.152344 C 481.800781 252.464844 480.019531 253.121094 479.332031 254.652344 C 478.675781 256.152344 479.332031 257.933594 480.832031 258.621094 C 489.832031 261.121094 498.613281 264.433594 507.832031 266.121094 C 509.488281 266.433594 511.050781 265.339844 511.332031 263.714844 C 511.644531 262.089844 510.582031 260.527344 508.957031 260.214844 C 500.175781 258.652344 491.894531 255.371094 483.300781 253.152344 "/>
<path style=" stroke:none;fill-rule:nonzero;fill:rgb(0%,0%,0%);fill-opacity:1;" d="M 448.613281 252.777344 C 450.238281 252.371094 451.207031 250.746094 450.800781 249.152344 C 450.394531 247.527344 448.769531 246.558594 447.175781 246.964844 C 446.050781 247.339844 444.894531 247.433594 443.707031 247.371094 C 442.050781 247.371094 440.707031 248.714844 440.707031 250.371094 C 440.707031 252.027344 442.050781 253.371094 443.707031 253.371094 C 445.363281 253.433594 447.019531 253.277344 448.613281 252.777344 "/>
<path style=" stroke:none;fill-rule:nonzero;fill:rgb(0%,0%,0%);fill-opacity:1;" d="M 413.957031 267.808594 C 412.144531 268.027344 411.300781 266.214844 409.769531 265.621094 C 408.332031 264.808594 406.519531 265.339844 405.707031 266.808594 C 404.925781 268.246094 405.457031 270.089844 406.894531 270.871094 C 406.894531 270.839844 410.550781 273.246094 412.707031 273.683594 C 415.128906 274.207031 416.410156 268.328125 413.957031 267.808594 "/>
<path style=" stroke:none;fill-rule:nonzero;fill:rgb(0%,0%,0%);fill-opacity:1;" d="M 411.199219 257.929688 C 410.675781 256.359375 406.121094 256.152344 405.566406 256.324219 C 406.570313 250.6875 407.605469 244.933594 408.679688 239.050781 C 409.226563 237.480469 408.4375 235.773438 406.875 235.195313 C 405.308594 234.644531 403.601563 235.433594 403.019531 236.996094 C 399.207031 256.328125 396.183594 274.839844 393.402344 290.957031 C 392.953125 290.148438 390.691406 289.359375 390.457031 289.328125 C 396.445313 255.039063 399.019531 245.175781 403.347656 210.640625 C 403.558594 208.996094 402.394531 207.492188 400.753906 207.28125 C 399.109375 207.066406 397.605469 208.230469 397.394531 209.871094 C 393.074219 244.351563 390.507813 254.15625 384.519531 288.390625 C 384.34375 289.324219 383.53125 291.875 385.144531 293.597656 C 385.8125 294.308594 394.683594 295.40625 395.746094 295.5625 C 397.386719 295.804688 398.890625 294.644531 399.132813 293.007813 C 400.796875 283.394531 402.578125 273.167969 404.476563 262.449219 C 404.992188 262.589844 408.179688 262.074219 409.320313 261.726563 C 410.890625 261.203125 411.734375 259.5 411.199219 257.929688 "/>
<path style=" stroke:none;fill-rule:nonzero;fill:rgb(0%,0%,0%);fill-opacity:1;" d="M 265.574219 27.96875 C 266.933594 28.21875 268.230469 27.3125 268.464844 25.953125 C 270.699219 20.265625 276.496094 16.90625 282.417969 15.609375 C 287.808594 14.4375 293.621094 14.6875 297.667969 18.65625 C 300.183594 21.109375 302.433594 23.640625 304.246094 26.609375 C 304.949219 27.796875 306.464844 28.203125 307.667969 27.515625 C 308.855469 26.828125 309.277344 25.296875 308.589844 24.109375 C 306.433594 20.628906 303.761719 17.59375 300.777344 14.703125 C 298.214844 12.246094 294.972656 10.933594 291.597656 10.382813 C 293.164063 8.972656 293.550781 6.75 292.597656 4.933594 C 291.203125 2.261719 288.1875 0.683594 285.203125 0.871094 C 283.8125 0.824219 282.675781 1.917969 282.628906 3.292969 C 282.578125 4.683594 283.675781 5.824219 285.050781 5.871094 C 285.828125 5.808594 286.453125 6.484375 286.105469 6.667969 C 285.535156 6.964844 285.082031 7.476563 284.878906 8.136719 C 284.65625 8.859375 284.785156 9.59375 285.152344 10.183594 C 276.035156 10.960938 266.441406 15.933594 263.558594 25.078125 C 263.308594 26.4375 264.214844 27.734375 265.574219 27.96875 "/>
<path style=" stroke:none;fill-rule:nonzero;fill:rgb(0%,0%,0%);fill-opacity:1;" d="M 260.636719 33.8125 C 265.433594 35.90625 270.589844 36.253906 275.746094 36.796875 C 281.496094 37.40625 287.152344 37.296875 292.855469 37.1875 C 298.996094 37.0625 305.183594 36.484375 311.042969 34.515625 C 312.292969 33.90625 312.808594 32.40625 312.199219 31.171875 C 311.589844 29.9375 309.214844 30.015625 309.386719 30.015625 C 303.964844 31.3125 298.449219 32.15625 292.871094 32.203125 C 284.34375 32.257813 268.78125 30.253906 264.453125 29.683594 C 263.703125 29.585938 260.777344 28.503906 259.777344 29.46875 C 258.777344 30.421875 258.746094 32.003906 259.714844 33.003906 C 260.011719 33.28125 260.277344 33.65625 260.636719 33.8125 "/>
<path style=" stroke:none;fill-rule:nonzero;fill:rgb(0%,0%,0%);fill-opacity:1;" d="M 248.011719 54.421875 C 245.890625 49.035156 243.328125 43.640625 239.414063 39.328125 C 238.429688 38.359375 236.851563 38.359375 235.867188 39.328125 C 234.898438 40.3125 234.898438 41.890625 235.867188 42.878906 C 239.351563 46.84375 244.871094 58.804688 244.761719 59.007813 C 240.472656 66.996094 238.492188 76.246094 241.398438 84.953125 C 241.960938 86.671875 245.230469 92.433594 245.492188 92.785156 C 246.304688 93.902344 247.867188 94.140625 248.980469 93.328125 C 250.097656 92.515625 250.335938 90.953125 249.523438 89.839844 C 248.460938 87.757813 247.15625 85.808594 246.292969 83.640625 C 245.253906 80.996094 244.824219 78.160156 245.054688 75.277344 C 245.4375 70.484375 246.6875 65.945313 249.023438 61.671875 C 251.574219 56.964844 255.636719 53.976563 258.542969 49.410156 C 260.792969 45.882813 261.742188 41.953125 261.929688 37.933594 C 261.929688 36.546875 260.8125 35.433594 259.429688 35.433594 C 258.042969 35.433594 256.667969 38.089844 256.53125 37.9375 C 255.992188 37.324219 252.203125 35.226563 250.738281 33.914063 C 248.488281 31.898438 246.085938 29.535156 245.242188 29.261719 C 245.242188 29.261719 243.945313 28.140625 242.246094 28.925781 C 242.246094 28.925781 238.648438 30.652344 236.992188 31.433594 C 235.765625 32.078125 235.304688 33.578125 235.933594 34.808594 C 236.578125 36.03125 238.078125 36.515625 239.304688 35.867188 C 240.636719 35.203125 242.019531 34.65625 243.316406 33.949219 C 246.726563 36.390625 249.382813 40.714844 253.648438 41.671875 C 254.410156 41.796875 256.292969 42.03125 256.214844 42.308594 C 255.921875 43.359375 255.539063 44.382813 255.042969 45.371094 C 253.289063 48.867188 250.5 51.496094 248.011719 54.421875 "/>
<path style=" stroke:none;fill-rule:nonzero;fill:rgb(0%,0%,0%);fill-opacity:1;" d="M 308.847656 35.714844 C 307.460938 35.714844 306.347656 36.828125 306.347656 38.214844 C 306.535156 42.234375 307.484375 46.160156 309.734375 49.695313 C 312.640625 54.257813 316.703125 57.246094 319.253906 61.953125 C 321.585938 66.226563 322.835938 70.765625 323.222656 75.558594 C 323.453125 78.445313 323.023438 81.277344 321.984375 83.921875 C 321.117188 86.089844 319.816406 88.035156 318.753906 90.121094 C 317.941406 91.234375 318.179688 92.796875 319.296875 93.609375 C 320.410156 94.421875 321.972656 94.183594 322.785156 93.070313 C 323.046875 92.714844 326.316406 86.953125 326.878906 85.234375 C 329.136719 78.46875 328.445313 71.375 326.011719 64.800781 C 325.3125 62.914063 321.398438 56.011719 320.152344 54.554688 C 317.691406 51.683594 314.960938 49.09375 313.234375 45.652344 C 312.066406 43.320313 311.453125 40.796875 311.347656 38.214844 C 311.347656 36.828125 310.234375 35.714844 308.847656 35.714844 "/>
<path style=" stroke:none;fill-rule:nonzero;fill:rgb(0%,0%,0%);fill-opacity:1;" d="M 290.53125 53.597656 C 290.53125 52.214844 289.414063 51.097656 288.03125 51.097656 C 286.644531 51.097656 285.53125 52.214844 285.53125 53.597656 C 285.53125 54.984375 286.644531 56.097656 288.03125 56.097656 C 289.414063 56.097656 290.53125 54.984375 290.53125 53.597656 "/>
<path style=" stroke:none;fill-rule:nonzero;fill:rgb(0%,0%,0%);fill-opacity:1;" d="M 285.65625 49.597656 C 286.914063 49.015625 287.457031 47.535156 286.886719 46.273438 C 286.519531 45.578125 286.40625 44.785156 286.03125 44.089844 C 285.40625 42.847656 283.90625 42.347656 282.675781 42.964844 C 281.4375 43.589844 280.9375 45.089844 281.550781 46.316406 C 281.800781 47.003906 282 47.722656 282.34375 48.378906 C 282.914063 49.628906 284.40625 50.171875 285.65625 49.597656 "/>
<path style=" stroke:none;fill-rule:nonzero;fill:rgb(0%,0%,0%);fill-opacity:1;" d="M 278.773438 50.839844 C 277.386719 50.84375 276.269531 51.960938 276.269531 53.335938 C 276.273438 54.722656 277.390625 55.839844 278.765625 55.839844 C 279.492188 55.925781 280.222656 56.070313 280.964844 56.054688 C 282.335938 56.101563 283.488281 55.011719 283.535156 53.640625 C 283.578125 52.25 282.496094 51.105469 281.113281 51.054688 C 280.324219 51.066406 279.566406 50.8125 278.773438 50.839844 "/>
<path style=" stroke:none;fill-rule:nonzero;fill:rgb(0%,0%,0%);fill-opacity:1;" d="M 282.488281 63.769531 C 283.730469 64.386719 285.230469 63.890625 285.847656 62.660156 C 286.246094 62.046875 286.703125 61.460938 287.023438 60.789063 C 287.679688 59.582031 287.21875 58.066406 286.011719 57.40625 C 284.789063 56.75 283.28125 57.203125 282.613281 58.417969 C 282.273438 59.128906 281.710938 59.691406 281.378906 60.410156 C 280.757813 61.65625 281.257813 63.15625 282.488281 63.769531 "/>
<path style=" stroke:none;fill-rule:nonzero;fill:rgb(0%,0%,0%);fill-opacity:1;" d="M 294.511719 63.015625 C 295.621094 62.179688 295.847656 60.617188 295.023438 59.515625 C 294.652344 58.882813 294.332031 58.210938 293.875 57.628906 C 293.089844 56.5 291.527344 56.230469 290.398438 57.019531 C 289.261719 57.816406 288.992188 59.367188 289.78125 60.507813 C 290.265625 61.128906 290.519531 61.886719 291.011719 62.507813 C 291.847656 63.617188 293.414063 63.839844 294.511719 63.015625 "/>
<path style=" stroke:none;fill-rule:nonzero;fill:rgb(0%,0%,0%);fill-opacity:1;" d="M 296.757813 50.65625 C 296.027344 50.703125 295.28125 50.691406 294.554688 50.835938 C 293.195313 51.035156 292.257813 52.3125 292.453125 53.671875 C 292.660156 55.046875 293.929688 55.980469 295.300781 55.785156 C 296.070313 55.632813 296.863281 55.746094 297.636719 55.582031 C 299.003906 55.328125 299.90625 54.03125 299.660156 52.679688 C 299.410156 51.3125 298.109375 50.410156 296.757813 50.65625 "/>
<path style=" stroke:none;fill-rule:nonzero;fill:rgb(0%,0%,0%);fill-opacity:1;" d="M 293.136719 43.453125 C 291.800781 43.066406 290.414063 43.824219 290.027344 45.144531 C 289.742188 45.816406 289.398438 46.480469 289.203125 47.191406 C 288.773438 48.5 289.492188 49.910156 290.800781 50.339844 C 292.121094 50.773438 293.523438 50.058594 293.964844 48.742188 C 294.171875 47.984375 294.625 47.328125 294.824219 46.558594 C 295.210938 45.226563 294.453125 43.839844 293.136719 43.453125 "/>
<path style=" stroke:none;fill-rule:nonzero;fill:rgb(0%,0%,0%);fill-opacity:1;" d="M 263.21875 76.777344 C 264.59375 76.597656 265.554688 75.351563 265.375 73.976563 C 265.195313 72.601563 263.949219 71.640625 262.574219 71.820313 C 261.199219 71.996094 260.238281 73.246094 260.417969 74.621094 C 260.597656 75.996094 261.847656 76.957031 263.21875 76.777344 "/>
<path style=" stroke:none;fill-rule:nonzero;fill:rgb(0%,0%,0%);fill-opacity:1;" d="M 256.515625 81.664063 C 257.164063 81.328125 257.851563 81.039063 258.457031 80.613281 C 259.621094 79.882813 259.96875 78.335938 259.238281 77.171875 C 258.496094 75.996094 256.960938 75.648438 255.78125 76.382813 C 255.140625 76.832031 254.367188 77.046875 253.726563 77.511719 C 252.574219 78.289063 252.273438 79.84375 253.042969 80.980469 C 253.820313 82.128906 255.375 82.433594 256.515625 81.664063 "/>
<path style=" stroke:none;fill-rule:nonzero;fill:rgb(0%,0%,0%);fill-opacity:1;" d="M 261.355469 83.835938 C 261.539063 85.210938 262.789063 86.175781 264.152344 85.996094 C 265.53125 85.8125 266.492188 84.5625 266.316406 83.199219 C 266.308594 82.464844 266.355469 81.722656 266.246094 80.988281 C 266.113281 79.621094 264.886719 78.621094 263.519531 78.753906 C 262.136719 78.890625 261.136719 80.109375 261.265625 81.488281 C 261.382813 82.265625 261.230469 83.050781 261.355469 83.835938 "/>
<path style=" stroke:none;fill-rule:nonzero;fill:rgb(0%,0%,0%);fill-opacity:1;" d="M 268.375 79.046875 C 269.121094 79.292969 269.757813 79.777344 270.511719 80.015625 C 271.824219 80.46875 273.246094 79.78125 273.699219 78.480469 C 274.152344 77.167969 273.464844 75.746094 272.164063 75.296875 C 271.507813 74.976563 270.863281 74.601563 270.15625 74.371094 C 268.875 73.875 267.429688 74.527344 266.9375 75.808594 C 266.441406 77.105469 267.085938 78.542969 268.375 79.046875 "/>
<path style=" stroke:none;fill-rule:nonzero;fill:rgb(0%,0%,0%);fill-opacity:1;" d="M 269.519531 71.671875 C 270.074219 71.109375 270.796875 70.761719 271.347656 70.191406 C 272.339844 69.21875 272.359375 67.640625 271.398438 66.65625 C 270.425781 65.664063 268.847656 65.644531 267.863281 66.601563 C 267.28125 67.050781 266.65625 67.453125 266.136719 67.980469 C 265.121094 68.90625 265.058594 70.492188 265.980469 71.507813 C 266.921875 72.53125 268.496094 72.597656 269.519531 71.671875 "/>
<path style=" stroke:none;fill-rule:nonzero;fill:rgb(0%,0%,0%);fill-opacity:1;" d="M 262.398438 69.902344 C 263.734375 69.519531 264.496094 68.144531 264.128906 66.808594 C 263.875 66.0625 263.882813 65.261719 263.621094 64.515625 C 263.195313 63.195313 261.789063 62.46875 260.480469 62.886719 C 259.160156 63.3125 258.433594 64.714844 258.851563 66.023438 C 258.992188 66.742188 259.078125 67.484375 259.316406 68.183594 C 259.6875 69.507813 261.074219 70.273438 262.398438 69.902344 "/>
<path style=" stroke:none;fill-rule:nonzero;fill:rgb(0%,0%,0%);fill-opacity:1;" d="M 256.394531 73.964844 C 257.746094 74.222656 259.050781 73.324219 259.308594 71.972656 C 259.566406 70.609375 258.675781 69.308594 257.316406 69.042969 C 256.535156 68.9375 255.824219 68.570313 255.039063 68.46875 C 253.667969 68.257813 252.390625 69.191406 252.175781 70.546875 C 251.964844 71.921875 252.898438 73.195313 254.253906 73.410156 C 254.960938 73.605469 255.660156 73.863281 256.394531 73.964844 "/>
<path style=" stroke:none;fill-rule:nonzero;fill:rgb(0%,0%,0%);fill-opacity:1;" d="M 300.648438 79.46875 C 299.730469 78.429688 298.15625 78.332031 297.117188 79.25 C 296.078125 80.164063 295.980469 81.738281 296.898438 82.777344 C 297.8125 83.816406 299.386719 83.914063 300.425781 82.996094 C 301.464844 82.082031 301.5625 80.507813 300.648438 79.46875 "/>
<path style=" stroke:none;fill-rule:nonzero;fill:rgb(0%,0%,0%);fill-opacity:1;" d="M 294.339844 92.175781 C 295.628906 92.691406 297.085938 92.074219 297.597656 90.800781 C 297.949219 90.15625 298.355469 89.53125 298.621094 88.839844 C 299.179688 87.585938 298.601563 86.109375 297.34375 85.550781 C 296.074219 84.992188 294.605469 85.5625 294.039063 86.828125 C 293.757813 87.5625 293.238281 88.171875 292.964844 88.914063 C 292.449219 90.203125 293.066406 91.660156 294.339844 92.175781 "/>
<path style=" stroke:none;fill-rule:nonzero;fill:rgb(0%,0%,0%);fill-opacity:1;" d="M 302.824219 89.890625 C 303.746094 90.929688 305.324219 91.027344 306.355469 90.117188 C 307.394531 89.195313 307.492188 87.621094 306.585938 86.589844 C 306.164063 85.988281 305.789063 85.34375 305.289063 84.796875 C 304.417969 83.734375 302.839844 83.59375 301.777344 84.46875 C 300.707031 85.355469 300.5625 86.921875 301.4375 87.996094 C 301.972656 88.574219 302.285156 89.3125 302.824219 89.890625 "/>
<path style=" stroke:none;fill-rule:nonzero;fill:rgb(0%,0%,0%);fill-opacity:1;" d="M 310.066406 78.550781 C 309.707031 77.210938 308.339844 76.414063 307.011719 76.765625 C 306.289063 76.871094 305.546875 76.921875 304.832031 77.121094 C 303.492188 77.429688 302.65625 78.777344 302.964844 80.117188 C 303.277344 81.46875 304.617188 82.300781 305.96875 81.996094 C 306.726563 81.78125 307.523438 81.832031 308.285156 81.605469 C 309.625 81.246094 310.417969 79.878906 310.066406 78.550781 "/>
<path style=" stroke:none;fill-rule:nonzero;fill:rgb(0%,0%,0%);fill-opacity:1;" d="M 297.925781 74.074219 C 297.601563 75.410156 298.433594 76.761719 299.769531 77.085938 C 301.121094 77.410156 302.464844 76.585938 302.796875 75.238281 C 302.941406 74.46875 303.34375 73.773438 303.480469 72.996094 C 303.757813 71.636719 302.890625 70.3125 301.546875 70.03125 C 300.1875 69.753906 298.863281 70.621094 298.585938 71.964844 C 298.355469 72.660156 298.0625 73.347656 297.925781 74.074219 "/>
<path style=" stroke:none;fill-rule:nonzero;fill:rgb(0%,0%,0%);fill-opacity:1;" d="M 290.792969 76.527344 C 291.3125 77.042969 291.796875 77.609375 292.382813 78.058594 C 293.433594 78.945313 295.011719 78.804688 295.898438 77.757813 C 296.796875 76.695313 296.65625 75.125 295.605469 74.226563 C 294.976563 73.75 294.539063 73.082031 293.902344 72.609375 C 292.8125 71.75 291.242188 71.933594 290.386719 73.011719 C 289.53125 74.105469 289.714844 75.675781 290.792969 76.527344 "/>
<path style=" stroke:none;fill-rule:nonzero;fill:rgb(0%,0%,0%);fill-opacity:1;" d="M 291.113281 85.21875 C 291.804688 84.988281 292.527344 84.808594 293.195313 84.480469 C 294.457031 83.941406 295.039063 82.464844 294.496094 81.203125 C 293.945313 79.925781 292.480469 79.347656 291.207031 79.886719 C 290.5 80.234375 289.707031 80.328125 289 80.683594 C 287.742188 81.277344 287.203125 82.765625 287.789063 84.007813 C 288.382813 85.265625 289.867188 85.800781 291.113281 85.21875 "/>
<path style=" stroke:none;fill-rule:nonzero;fill:rgb(0%,0%,0%);fill-opacity:1;" d="M 318.320313 44.863281 C 318.671875 44.550781 323.632813 35.449219 328.421875 34.574219 C 329.929688 34.285156 330.949219 35.070313 331.761719 36.183594 C 336.53125 42.765625 332.027344 50.261719 327.195313 55.425781 C 326.109375 56.28125 325.921875 57.84375 326.777344 58.925781 C 327.632813 60.03125 329.195313 60.21875 330.277344 59.363281 C 334.589844 55.03125 338.070313 49.15625 338.089844 42.96875 C 338.089844 38.761719 337.507813 33.886719 333.484375 31.199219 C 325.589844 25.925781 315.296875 40.96875 315.320313 40.863281 C 314.214844 41.699219 313.984375 43.261719 314.820313 44.363281 C 315.652344 45.46875 317.214844 45.699219 318.320313 44.863281 "/>
<path style=" stroke:none;fill-rule:nonzero;fill:rgb(0%,0%,0%);fill-opacity:1;" d="M 365.933594 92.304688 C 365.894531 93.679688 366.980469 94.835938 368.363281 94.875 C 369.746094 94.910156 370.894531 93.820313 370.933594 92.445313 C 371.210938 86.691406 370.621094 64.183594 369.824219 58.761719 C 369.8125 58.609375 400.703125 58.464844 400.6875 58.636719 C 399.886719 64.058594 398.554688 86.449219 398.671875 92.210938 C 398.671875 93.585938 399.785156 94.710938 401.171875 94.710938 C 402.554688 94.710938 403.671875 93.585938 403.671875 92.210938 C 403.570313 87.023438 404.757813 70.640625 405.132813 64.992188 C 405.167969 64.476563 405.664063 63.476563 406.246094 63.363281 C 407.089844 63.195313 408.222656 62.980469 408.777344 62.40625 C 410.304688 59.917969 413.460938 58.566406 416.125 59.75 C 417.402344 60.320313 419.363281 63.53125 417.226563 65.273438 C 414.722656 67.332031 411.835938 68.761719 408.691406 69.375 C 407.324219 69.597656 406.394531 70.878906 406.613281 72.246094 C 406.832031 73.601563 408.117188 74.535156 409.480469 74.3125 C 413.339844 73.609375 416.886719 71.828125 420.027344 69.429688 C 422.628906 67.445313 423.585938 63.980469 422.445313 60.78125 C 421.199219 57.3125 418.164063 55.097656 414.503906 54.898438 C 411.148438 54.714844 407.6875 55.855469 405.613281 58.429688 C 405.042969 55.363281 404.191406 53.136719 400.9375 53.136719 C 390.210938 52.949219 379.480469 52.839844 368.761719 53.347656 C 366.199219 53.554688 364.589844 56.628906 364.855469 59.261719 C 365.632813 64.621094 366.203125 86.652344 365.933594 92.304688 "/>
<path style=" stroke:none;fill-rule:nonzero;fill:rgb(0%,0%,0%);fill-opacity:1;" d="M 386.234375 73.699219 C 385.320313 72.660156 383.746094 72.5625 382.707031 73.480469 C 381.667969 74.398438 381.570313 75.96875 382.488281 77.007813 C 383.402344 78.046875 384.976563 78.144531 386.015625 77.230469 C 387.054688 76.3125 387.152344 74.738281 386.234375 73.699219 "/>
<path style=" stroke:none;fill-rule:nonzero;fill:rgb(0%,0%,0%);fill-opacity:1;" d="M 379.929688 86.40625 C 381.21875 86.921875 382.671875 86.304688 383.1875 85.03125 C 383.539063 84.386719 383.945313 83.765625 384.210938 83.070313 C 384.769531 81.816406 384.1875 80.339844 382.933594 79.78125 C 381.660156 79.222656 380.195313 79.796875 379.628906 81.058594 C 379.347656 81.792969 378.828125 82.402344 378.554688 83.144531 C 378.035156 84.433594 378.652344 85.890625 379.929688 86.40625 "/>
<path style=" stroke:none;fill-rule:nonzero;fill:rgb(0%,0%,0%);fill-opacity:1;" d="M 388.414063 84.121094 C 389.335938 85.160156 390.914063 85.257813 391.945313 84.351563 C 392.980469 83.429688 393.082031 81.851563 392.171875 80.820313 C 391.753906 80.21875 391.378906 79.574219 390.878906 79.027344 C 390.007813 77.96875 388.425781 77.824219 387.363281 78.699219 C 386.296875 79.585938 386.152344 81.152344 387.027344 82.226563 C 387.558594 82.808594 387.871094 83.542969 388.414063 84.121094 "/>
<path style=" stroke:none;fill-rule:nonzero;fill:rgb(0%,0%,0%);fill-opacity:1;" d="M 395.65625 72.78125 C 395.296875 71.441406 393.929688 70.644531 392.601563 70.996094 C 391.878906 71.101563 391.132813 71.148438 390.421875 71.355469 C 389.078125 71.660156 388.246094 73.007813 388.554688 74.347656 C 388.867188 75.699219 390.207031 76.53125 391.558594 76.226563 C 392.3125 76.011719 393.113281 76.0625 393.871094 75.835938 C 395.214844 75.476563 396.007813 74.109375 395.65625 72.78125 "/>
<path style=" stroke:none;fill-rule:nonzero;fill:rgb(0%,0%,0%);fill-opacity:1;" d="M 388.382813 69.472656 C 388.53125 68.699219 388.929688 68.007813 389.070313 67.226563 C 389.347656 65.867188 388.480469 64.542969 387.136719 64.265625 C 385.773438 63.984375 384.453125 64.851563 384.171875 66.195313 C 383.941406 66.890625 383.652344 67.578125 383.515625 68.304688 C 383.191406 69.640625 384.023438 70.992188 385.359375 71.316406 C 386.710938 71.640625 388.050781 70.816406 388.382813 69.472656 "/>
<path style=" stroke:none;fill-rule:nonzero;fill:rgb(0%,0%,0%);fill-opacity:1;" d="M 377.972656 72.289063 C 379.023438 73.179688 380.601563 73.035156 381.488281 71.988281 C 382.382813 70.925781 382.246094 69.355469 381.191406 68.457031 C 380.566406 67.980469 380.128906 67.3125 379.492188 66.839844 C 378.398438 65.980469 376.828125 66.164063 375.976563 67.242188 C 375.121094 68.335938 375.304688 69.90625 376.382813 70.757813 C 376.898438 71.273438 377.382813 71.839844 377.972656 72.289063 "/>
<path style=" stroke:none;fill-rule:nonzero;fill:rgb(0%,0%,0%);fill-opacity:1;" d="M 373.378906 78.238281 C 373.96875 79.496094 375.457031 80.03125 376.699219 79.449219 C 377.394531 79.21875 378.117188 79.039063 378.78125 78.714844 C 380.046875 78.171875 380.628906 76.695313 380.085938 75.433594 C 379.535156 74.15625 378.070313 73.578125 376.796875 74.117188 C 376.089844 74.464844 375.296875 74.558594 374.589844 74.914063 C 373.332031 75.507813 372.792969 76.996094 373.378906 78.238281 "/>
<path style=" stroke:none;fill-rule:nonzero;fill:rgb(0%,0%,0%);fill-opacity:1;" d="M 139.695313 68.488281 C 142.835938 70.890625 146.382813 72.671875 150.242188 73.375 C 151.605469 73.597656 152.890625 72.664063 153.109375 71.308594 C 153.328125 69.941406 152.398438 68.65625 151.035156 68.4375 C 147.890625 67.824219 145 66.394531 142.496094 64.335938 C 142.007813 63.9375 141.640625 63.246094 141.75 62.609375 C 141.957031 61.351563 142.386719 60.070313 143.605469 59.433594 C 147.464844 57.421875 150.671875 60.492188 152.746094 61.507813 C 153.4375 61.847656 154.492188 62.425781 154.535156 63.007813 C 154.984375 69.136719 156.152344 86.105469 156.054688 91.269531 C 156.054688 92.644531 157.171875 93.769531 158.554688 93.769531 C 159.9375 93.769531 161.054688 92.644531 161.054688 91.269531 C 161.171875 85.511719 159.835938 63.121094 159.039063 57.699219 C 159.023438 57.527344 179.101563 56.941406 188.632813 57.320313 C 190.914063 57.410156 188.515625 85.753906 188.789063 91.507813 C 188.828125 92.882813 189.976563 93.976563 191.359375 93.9375 C 192.742188 93.898438 193.828125 92.742188 193.789063 91.367188 C 193.523438 85.71875 194.09375 63.683594 194.867188 58.324219 C 195.1875 55.195313 193.472656 52.609375 190.960938 52.410156 C 180.242188 51.902344 169.515625 52.011719 158.789063 52.199219 C 155.644531 52.199219 154.402344 55.929688 154.109375 57.488281 C 152.035156 54.917969 148.574219 53.777344 145.222656 53.964844 C 141.5625 54.160156 138.523438 56.371094 137.277344 59.847656 C 136.140625 63.042969 137.097656 66.507813 139.695313 68.488281 "/>
<path style=" stroke:none;fill-rule:nonzero;fill:rgb(0%,0%,0%);fill-opacity:1;" d="M 177.238281 76.070313 C 178.152344 75.03125 178.054688 73.460938 177.015625 72.542969 C 175.976563 71.625 174.40625 71.726563 173.488281 72.765625 C 172.570313 73.800781 172.671875 75.375 173.710938 76.292969 C 174.746094 77.210938 176.320313 77.109375 177.238281 76.070313 "/>
<path style=" stroke:none;fill-rule:nonzero;fill:rgb(0%,0%,0%);fill-opacity:1;" d="M 176.535156 84.09375 C 177.050781 85.367188 178.507813 85.984375 179.796875 85.46875 C 181.070313 84.953125 181.6875 83.496094 181.171875 82.210938 C 180.894531 81.464844 180.378906 80.855469 180.097656 80.121094 C 179.53125 78.855469 178.0625 78.285156 176.789063 78.84375 C 175.535156 79.402344 174.953125 80.878906 175.515625 82.136719 C 175.777344 82.828125 176.1875 83.449219 176.535156 84.09375 "/>
<path style=" stroke:none;fill-rule:nonzero;fill:rgb(0%,0%,0%);fill-opacity:1;" d="M 171.308594 83.183594 C 171.851563 82.605469 172.164063 81.871094 172.695313 81.289063 C 173.570313 80.21875 173.429688 78.648438 172.359375 77.761719 C 171.296875 76.886719 169.71875 77.03125 168.84375 78.089844 C 168.34375 78.636719 167.96875 79.28125 167.550781 79.882813 C 166.644531 80.914063 166.742188 82.492188 167.78125 83.410156 C 168.8125 84.320313 170.386719 84.222656 171.308594 83.183594 "/>
<path style=" stroke:none;fill-rule:nonzero;fill:rgb(0%,0%,0%);fill-opacity:1;" d="M 169.304688 70.414063 C 168.589844 70.214844 167.847656 70.164063 167.121094 70.0625 C 165.796875 69.710938 164.429688 70.503906 164.066406 71.84375 C 163.714844 73.171875 164.511719 74.539063 165.851563 74.898438 C 166.609375 75.125 167.410156 75.074219 168.167969 75.289063 C 169.519531 75.59375 170.855469 74.765625 171.171875 73.410156 C 171.476563 72.070313 170.644531 70.722656 169.304688 70.414063 "/>
<path style=" stroke:none;fill-rule:nonzero;fill:rgb(0%,0%,0%);fill-opacity:1;" d="M 174.367188 70.378906 C 175.703125 70.054688 176.535156 68.703125 176.210938 67.367188 C 176.070313 66.640625 175.78125 65.953125 175.550781 65.261719 C 175.269531 63.914063 173.949219 63.046875 172.589844 63.324219 C 171.242188 63.605469 170.378906 64.929688 170.65625 66.289063 C 170.792969 67.066406 171.195313 67.761719 171.339844 68.535156 C 171.671875 69.878906 173.015625 70.703125 174.367188 70.378906 "/>
<path style=" stroke:none;fill-rule:nonzero;fill:rgb(0%,0%,0%);fill-opacity:1;" d="M 181.753906 71.351563 C 182.339844 70.902344 182.824219 70.335938 183.34375 69.820313 C 184.421875 68.96875 184.605469 67.398438 183.746094 66.304688 C 182.894531 65.226563 181.324219 65.042969 180.230469 65.902344 C 179.597656 66.375 179.15625 67.042969 178.53125 67.519531 C 177.476563 68.417969 177.339844 69.988281 178.234375 71.050781 C 179.121094 72.101563 180.703125 72.242188 181.753906 71.351563 "/>
<path style=" stroke:none;fill-rule:nonzero;fill:rgb(0%,0%,0%);fill-opacity:1;" d="M 186.347656 77.300781 C 186.929688 76.058594 186.390625 74.570313 185.136719 73.980469 C 184.429688 73.621094 183.636719 73.527344 182.929688 73.179688 C 181.652344 72.640625 180.1875 73.222656 179.636719 74.496094 C 179.097656 75.761719 179.675781 77.234375 180.941406 77.773438 C 181.605469 78.101563 182.328125 78.28125 183.023438 78.511719 C 184.269531 79.097656 185.753906 78.558594 186.347656 77.300781 "/>
<path style=" stroke:none;fill-rule:nonzero;fill:rgb(0%,0%,0%);fill-opacity:1;" d="M 471.164063 202.988281 C 476.355469 202.105469 481.574219 201.15625 486.957031 200.246094 C 495.769531 198.746094 504.050781 198.558594 512.707031 196.496094 C 526.683594 193.113281 539.1875 189.914063 538.957031 181.433594 C 538.957031 179.777344 537.613281 178.433594 535.957031 178.433594 C 532.96875 178.433594 532.957031 181.007813 532.957031 182.058594 C 532.957031 182.058594 533.789063 184.144531 525.90625 186.832031 C 513.199219 191.164063 499.777344 192.324219 486.175781 194.339844 C 473.644531 196.214844 461.832031 199.246094 449.425781 199.746094 C 445.894531 199.871094 442.832031 197.746094 439.550781 196.589844 C 437.988281 196.089844 436.300781 196.933594 435.800781 198.527344 C 435.269531 200.089844 436.144531 201.777344 437.738281 202.308594 C 442.082031 203.996094 446.425781 206.339844 451.300781 205.839844 C 455.9375 205.351563 460.460938 204.714844 464.960938 204.003906 C 465.4375 203.929688 465.324219 204.816406 465.144531 205.589844 C 463.800781 225.746094 465.269531 245.902344 464.425781 266.089844 C 463.761719 282.210938 462.394531 298.21875 461.65625 314.332031 C 460.574219 314.332031 457.800781 314.394531 457.515625 314.484375 C 457.542969 314.34375 457.574219 314.207031 457.582031 314.058594 C 459.144531 279.214844 459.207031 244.371094 459.082031 209.496094 C 459.082031 207.839844 457.738281 206.496094 456.082031 206.496094 C 454.425781 206.496094 453.082031 207.839844 453.082031 209.496094 C 453.207031 244.246094 453.144531 278.964844 451.582031 313.683594 C 451.441406 316.171875 452.132813 320.332031 458.40625 320.332031 C 460.015625 320.332031 461.628906 320.332031 463.234375 320.332031 C 467.15625 320.332031 467.550781 317.699219 467.582031 315.902344 C 468.300781 299.277344 469.769531 282.746094 470.425781 266.089844 C 471.207031 246.339844 469.988281 226.621094 471.019531 206.902344 C 471.1875 206.121094 471.039063 205.347656 470.660156 204.714844 C 470.28125 204.085938 470.414063 203.117188 471.164063 202.988281 "/>
<path style=" stroke:none;fill-rule:nonzero;fill:rgb(0%,0%,0%);fill-opacity:1;" d="M 533.109375 199.6875 C 532.898438 198.046875 531.390625 196.882813 529.75 197.097656 C 528.105469 197.308594 526.945313 198.8125 527.15625 200.453125 C 531.488281 235.03125 536.003906 269.554688 542.003906 303.886719 C 541.898438 303.929688 539.640625 306.597656 540.390625 308.082031 C 541.140625 309.550781 542.9375 310.144531 544.421875 309.394531 C 547.261719 308.113281 548.542969 306.171875 547.917969 302.828125 C 541.929688 268.59375 537.429688 234.167969 533.109375 199.6875 "/>
</g>
</svg>
