<?xml version="1.0" encoding="UTF-8"?>
<svg xmlns="http://www.w3.org/2000/svg" xmlns:xlink="http://www.w3.org/1999/xlink" width="518pt" height="237pt" viewBox="0 0 518 237" version="1.1">
<g id="surface1">
<path style=" stroke:none;fill-rule:nonzero;fill:rgb(0%,0%,0%);fill-opacity:1;" d="M 515.5 8.164063 C 513.835938 8.585938 507.085938 9.277344 507.085938 6.585938 C 507.085938 4.167969 505.054688 3.664063 502.914063 6.414063 C 497.847656 12.933594 481.847656 18.898438 479.75 7.585938 C 479.199219 4.621094 477.347656 4.554688 474.75 6.914063 C 468.722656 12.394531 458.585938 15.269531 460.75 5.585938 C 461.496094 2.238281 458.332031 1.351563 456.664063 4.25 C 455.476563 6.320313 451.074219 8.964844 446.488281 11.5625 C 440.421875 15.003906 433.75 17.644531 432.335938 15.164063 C 431.050781 12.917969 430.644531 10.804688 432.25 9.335938 C 438.773438 3.351563 430.171875 1.257813 428.25 7.5 C 427.554688 9.765625 427.457031 10.238281 425.085938 11.25 C 406.292969 19.269531 398.457031 15.617188 401.585938 8.585938 C 402.597656 6.304688 401.335938 4.804688 398.5 6.835938 C 388.191406 14.210938 381.390625 14.511719 382.585938 6.164063 C 383 3.25 381 2.585938 378.585938 5 C 370.054688 13.527344 361.75 13.695313 361.75 8 C 361.75 5.039063 359.890625 4.765625 357.5 6.914063 C 348.941406 14.617188 335.445313 15.824219 338.414063 6.914063 C 339.433594 3.863281 336.941406 2.578125 334.75 5.5 C 330.664063 10.945313 315.835938 15.445313 315.835938 3.414063 C 315.835938 -1.128906 313.382813 -0.269531 312.085938 2.664063 C 310.769531 5.640625 305.835938 8.71875 300.179688 10.375 C 294.226563 12.113281 286.742188 12.496094 287.414063 6.914063 C 287.769531 3.980469 285.417969 3.355469 283.585938 6.5 C 279.890625 12.832031 263.664063 15.445313 263.664063 9.164063 C 263.664063 7 262.085938 5.414063 259.585938 8.335938 C 254.558594 14.195313 239.730469 16.664063 242.414063 9.5 C 243.660156 6.183594 241.101563 6.25 238.75 7.75 C 229.433594 13.699219 214.734375 16.46875 218.164063 6.164063 C 219.339844 2.652344 217.414063 0.871094 213.914063 4.25 C 210.085938 7.949219 202.738281 12.421875 198.421875 13.363281 C 191.617188 14.847656 187.222656 12.265625 187.914063 9.835938 C 188.601563 7.433594 186.8125 5.902344 182.914063 8 C 166.410156 16.886719 162.617188 11.78125 163.085938 8.085938 C 163.589844 4.066406 161.488281 4.132813 158.664063 5.914063 C 142.355469 16.234375 138.199219 14.375 139.335938 7.585938 C 139.898438 4.1875 138.347656 2.226563 135.585938 4.75 C 125.265625 14.164063 114.621094 16.109375 115.414063 8.164063 C 115.910156 3.222656 113.644531 3.664063 111.835938 5.25 C 106.988281 9.488281 102.148438 11.398438 95.75 13 C 88.457031 14.824219 80.320313 10.011719 87.417969 4.335938 C 90.179688 2.121094 88.484375 -1.261719 85.582031 1.414063 C 81.996094 4.726563 62.808594 14.796875 59.75 7.914063 C 58.53125 5.171875 56.152344 6.007813 57.332031 9.085938 C 60.359375 16.972656 71.167969 13.25 80.167969 8 C 81.167969 7.414063 81.527344 7.910156 81.5 8.664063 C 81.167969 17.660156 95.914063 19.449219 110.835938 9.585938 C 111.722656 8.996094 112.085938 9.25 112.164063 10.335938 C 112.933594 20.289063 124.816406 17.597656 134.414063 9.914063 C 135.246094 9.253906 135.5 9.585938 135.5 10.5 C 135.5 19.714844 145.140625 17.953125 157.914063 10.085938 C 159.285156 9.242188 159.660156 9.40625 159.75 10.664063 C 160.222656 17.25 172.5 18 183.085938 11.414063 C 184.378906 10.613281 184.839844 10.578125 184.75 11.914063 C 184.476563 16.039063 192.992188 17.84375 199.011719 16.738281 C 204.0625 15.8125 210.113281 10.367188 212.414063 8.835938 C 213.414063 8.164063 213.75 8.5 213.75 9.414063 C 213.75 19.222656 226 17.664063 237.25 12.414063 C 238.5 11.835938 238.835938 12.085938 239 13 C 240.140625 19.277344 250.691406 18.527344 259.25 13.085938 C 260.164063 12.5 260.585938 12.5 261.085938 13.585938 C 262.839844 17.386719 273.246094 18.140625 282.835938 11.75 C 283.835938 11.085938 284.335938 11.164063 284.75 12.085938 C 286.914063 16.839844 301.671875 14.464844 310.914063 8.914063 C 311.75 8.414063 312.335938 8.664063 312.835938 9.585938 C 315.664063 14.777344 323.5 16.164063 332.664063 11.585938 C 333.5 11.164063 334.164063 11.664063 334.335938 12.335938 C 336.152344 19.609375 350.070313 16.226563 357.164063 11 C 357.949219 10.425781 358.664063 10.75 359.085938 11.585938 C 362.160156 17.738281 369.644531 15.957031 377.164063 10.75 C 378.320313 9.953125 378.847656 10.214844 379 11.585938 C 379.824219 18.992188 390.789063 15.480469 395.914063 12.585938 C 396.765625 12.105469 397.414063 12.523438 397.664063 13.5 C 400.167969 23.136719 412.359375 19.195313 426.414063 14.085938 C 427.335938 13.75 427.664063 13.914063 427.914063 14.664063 C 428.957031 17.785156 430.65625 20.769531 436.75 19.414063 C 440.5 18.585938 454.414063 10.414063 455.414063 9.914063 C 456.414063 9.414063 456.835938 9.914063 457.164063 10.664063 C 460.59375 18.375 468.324219 16.234375 475.75 10.664063 C 476.75 9.914063 477.75 10.335938 478.085938 11.335938 C 481.0625 20.277344 491.378906 18.027344 502.664063 11.085938 C 503.75 10.414063 505.085938 10.75 505.75 11.164063 C 507.453125 12.230469 512.632813 11.546875 516.164063 10.585938 C 519.445313 9.6875 517.953125 7.554688 515.5 8.164063 "/>
<path style=" stroke:none;fill-rule:nonzero;fill:rgb(0%,0%,0%);fill-opacity:1;" d="M 477.585938 44.25 C 476.835938 45 475.003906 44.84375 473.914063 45 C 472.796875 45.160156 471.675781 46.730469 473.164063 48.085938 C 473.976563 48.820313 476.96875 49.125 478.664063 46.5 C 479.585938 45.085938 478.335938 43.5 477.585938 44.25 "/>
<path style=" stroke:none;fill-rule:nonzero;fill:rgb(0%,0%,0%);fill-opacity:1;" d="M 463.585938 59.914063 C 466.382813 61.855469 468.449219 59.839844 469 57.085938 C 469.453125 54.8125 468.703125 51.265625 464.664063 50.335938 C 461.765625 49.664063 460.011719 50.753906 459.914063 53.585938 C 459.824219 56.242188 461.4375 58.429688 463.585938 59.914063 Z M 465.585938 54.085938 C 467.261719 54.847656 466.492188 58.90625 463.5 55.914063 C 462.621094 55.035156 462.628906 52.742188 465.585938 54.085938 "/>
<path style=" stroke:none;fill-rule:nonzero;fill:rgb(0%,0%,0%);fill-opacity:1;" d="M 470.054688 65.550781 C 467.777344 65.054688 466.0625 67.195313 465.085938 68.5 C 458.265625 77.59375 464.234375 80.628906 467.914063 79.25 C 470.421875 78.3125 473.355469 75.160156 474.25 71.585938 C 474.882813 69.046875 474.398438 66.496094 470.054688 65.550781 Z M 470.914063 72.75 C 469.9375 74.21875 469.230469 75.226563 467.085938 76.085938 C 463.570313 77.488281 463.402344 74.121094 467.5 69 C 467.835938 68.585938 468.402344 68.246094 469.085938 68.335938 C 472.726563 68.785156 472.273438 70.71875 470.914063 72.75 "/>
<path style=" stroke:none;fill-rule:nonzero;fill:rgb(0%,0%,0%);fill-opacity:1;" d="M 449.808594 66.445313 C 447.289063 65.886719 445.394531 68.210938 444.335938 70.335938 C 443.089844 72.820313 442.492188 75.234375 444.414063 77.335938 C 447.179688 80.347656 450.820313 78.039063 453.414063 74 C 455.679688 70.480469 453.992188 67.367188 449.808594 66.445313 Z M 449 74.5 C 445.460938 77.058594 445.125 73.554688 447.414063 70.5 C 447.664063 70.164063 448.75 69.664063 449.5 69.835938 C 451.035156 70.175781 452.386719 72.054688 449 74.5 "/>
<path style=" stroke:none;fill-rule:nonzero;fill:rgb(0%,0%,0%);fill-opacity:1;" d="M 448.414063 88.414063 C 447.328125 90.308594 446.933594 92.324219 449.25 94.335938 C 452.242188 96.925781 455.148438 93.65625 456.585938 90.585938 C 458.113281 87.304688 457.328125 85.828125 453.273438 85.269531 C 451.605469 85.039063 449.203125 87.046875 448.414063 88.414063 Z M 452.5 91.25 C 450.332031 93.023438 448.867188 90.664063 451.085938 89.25 C 453.191406 87.902344 454.253906 89.8125 452.5 91.25 "/>
<path style=" stroke:none;fill-rule:nonzero;fill:rgb(0%,0%,0%);fill-opacity:1;" d="M 457.085938 113.664063 C 453.945313 111.449219 437.398438 108.6875 430.085938 109.414063 C 427.847656 109.640625 427.347656 109.136719 428.085938 107.664063 C 431.425781 100.980469 430.851563 87.601563 429.414063 83.585938 C 429 82.414063 427.585938 76.664063 427.414063 75.085938 C 427.226563 73.257813 425.441406 65.800781 423.085938 63.835938 C 422.085938 63 421 61.414063 420.164063 60.085938 C 419.335938 58.75 415.5 54.085938 414.085938 53.414063 C 412.664063 52.75 407.25 48 406.335938 46.914063 C 404.523438 44.777344 385.476563 37.582031 377.914063 39 C 376.585938 39.25 370.414063 39.664063 368 39.835938 C 360.839844 40.328125 343.328125 48.980469 340 53.414063 C 338.75 55.085938 335.25 59.164063 333.585938 60.75 C 328.269531 65.796875 322.453125 76.175781 320.585938 82.25 C 319.914063 84.414063 319 87 318.5 87.664063 C 315.488281 91.683594 315.566406 100.453125 316.914063 104.5 C 319.414063 111.988281 328.113281 118.679688 339.414063 122.914063 C 344.328125 124.757813 353.78125 127.296875 358.835938 127.164063 C 362.085938 127.085938 368.5 127.085938 371.664063 127.5 C 377.617188 128.28125 402.71875 127.382813 407.75 125 C 409.335938 124.25 412.835938 121.585938 414.664063 121.25 C 416.5 120.914063 424.085938 115 424.914063 114.164063 C 425.75 113.335938 426.414063 113.164063 427.75 113.164063 C 434.132813 113.164063 447.8125 113.414063 454 117 C 461.957031 121.605469 462.097656 133.558594 450.75 141.417969 C 448.585938 142.917969 427.414063 147.25 424.914063 147.332031 C 422.414063 147.417969 414 148.417969 412.335938 149 C 410.664063 149.582031 408.75 150.582031 405.5 150.25 C 402.25 149.917969 390.164063 151.332031 387.25 151.917969 C 384.335938 152.5 360.914063 151.832031 358.164063 150.917969 C 355.414063 150 352.335938 149.832031 349.414063 149.832031 C 346.5 149.832031 331.335938 147.082031 330 146.167969 C 328.664063 145.25 324.164063 144.082031 320.914063 143.832031 C 316.914063 143.527344 304.671875 140.667969 301.835938 138.332031 C 300.414063 137.167969 287 130.75 285.664063 130.414063 C 281.074219 129.269531 279.453125 121.675781 284.25 118.25 C 290.035156 114.117188 309.046875 111.078125 312.585938 110.335938 C 314.164063 110 314.75 109.25 315.5 107.914063 C 316.25 106.585938 315.835938 105.914063 313.835938 106.164063 C 307.652344 106.9375 287.289063 111.28125 281.5 115.835938 C 274.546875 121.296875 276.816406 132.144531 286.164063 134.914063 C 288.738281 135.679688 297.226563 139.617188 300.085938 141.582031 C 305.023438 144.980469 307.640625 144.933594 313.75 145.75 C 316.25 146.082031 316.585938 148 316.585938 148.917969 C 316.585938 166.011719 332.859375 174.046875 347.914063 178.917969 C 350.75 179.832031 359.335938 179.832031 361.164063 179.25 C 363 178.667969 378.585938 176.332031 380.5 176.5 C 384.304688 176.832031 403.753906 167.613281 407.75 164.917969 C 410.726563 162.90625 414.726563 155.703125 416.414063 153.167969 C 416.914063 152.417969 417.914063 152.082031 419 152.082031 C 423.882813 152.082031 444.207031 147.632813 448.335938 146.75 C 454.921875 145.339844 457.855469 139.746094 461.25 134.914063 C 464.746094 129.941406 464.238281 118.71875 457.085938 113.664063 Z M 340.164063 115.835938 C 339.835938 117.164063 339.164063 118.5 337.5 117.835938 C 335.835938 117.164063 327.5 112.5 326.664063 111.164063 C 325.835938 109.835938 326.335938 108.5 328.164063 107.5 C 332.734375 105.007813 349.710938 101.214844 353.335938 101.664063 C 354.664063 101.835938 356 102.335938 356.5 103.5 C 357 104.664063 358 105.835938 358.5 106.664063 C 359.53125 108.390625 358.855469 108.664063 357 108.664063 C 352.480469 108.664063 341.226563 111.597656 340.164063 115.835938 Z M 348.5 120 C 348.5 120 346.664063 119.835938 344.835938 119.335938 C 343.125 118.867188 342.429688 117.855469 343.664063 116 C 345.222656 113.664063 352.835938 112.164063 360 112.164063 C 362 112.164063 362.988281 115.285156 361 115 C 359.835938 114.835938 353.335938 116.664063 351 117.5 C 348.664063 118.335938 348.5 120 348.5 120 Z M 369.335938 121.414063 C 369.585938 122.585938 369.335938 123.335938 367.835938 123.25 C 366.335938 123.164063 361 123.335938 359.835938 123.335938 C 358.664063 123.335938 357.585938 122.414063 359.75 121.664063 C 366.265625 119.410156 366.554688 113.773438 363.085938 107.5 C 358.484375 99.179688 352.960938 93.652344 353.414063 72.585938 C 353.597656 64.21875 361.871094 57.664063 367.085938 57.664063 C 369.25 57.664063 372.335938 58 373.414063 57.75 C 388.519531 54.265625 394.800781 71.085938 391.835938 78.5 C 391.5 79.335938 388.164063 88.085938 387.664063 89.414063 C 384.054688 99.046875 378.90625 105.628906 372.085938 113.5 C 370.261719 115.601563 368.710938 118.507813 369.335938 121.414063 Z M 407 120 C 405.664063 120.5 403.5 122.835938 402.335938 123.164063 C 401.164063 123.5 400.335938 123.164063 399.835938 121.835938 C 399 119.609375 383.664063 113.335938 379 113.335938 C 376.8125 113.335938 377.449219 109.222656 380.5 109.835938 C 383.160156 110.363281 405 116 406.5 117.335938 C 408 118.664063 408.335938 119.5 407 120 Z M 415.335938 117.085938 C 414.5 117.585938 413.75 117.25 413.164063 116.335938 C 411.277344 113.363281 386.558594 107.46875 383 106.5 C 382.164063 106.273438 381.804688 105.476563 383.085938 103.914063 C 386.207031 100.097656 389.144531 94.785156 390.585938 90.835938 C 391.25 89 394 81.914063 394.5 81 C 399.972656 70.96875 391.261719 51.398438 373.664063 53.75 C 372.726563 53.875 369.414063 53.835938 367.335938 53.835938 C 361.097656 53.835938 352.179688 61.859375 350.5 69.25 C 348.464844 78.214844 351.789063 90.671875 353.835938 97.164063 C 354.242188 98.460938 353.414063 99.085938 352.335938 99.085938 C 348.359375 99.085938 328.585938 100.5 324.414063 106.335938 C 323.585938 107.5 322.585938 107.414063 321.664063 106.414063 C 318.882813 103.378906 318.175781 95.484375 320.335938 91.164063 C 321.25 89.335938 323.085938 84.664063 323.414063 83.335938 C 325.789063 73.839844 338.183594 58.605469 343.75 53.835938 C 347.496094 50.621094 362.113281 43.433594 366.335938 43.75 C 369.664063 44 378 42.664063 379.664063 42.335938 C 384.199219 41.425781 400.882813 46.546875 404.164063 50.335938 C 405.25 51.585938 410.914063 56 412.335938 57 C 415.839844 59.476563 422.796875 68.96875 423.585938 73.414063 C 423.835938 74.835938 424.414063 78.664063 424.835938 80 C 429.589844 95.21875 427.828125 109.585938 415.335938 117.085938 Z M 409.664063 156.332031 C 408.339844 161.574219 386.382813 172.925781 380.835938 172.5 C 378.664063 172.332031 359.335938 175.167969 355.5 175.5 C 343.828125 176.515625 321.691406 164.511719 319.664063 150.332031 C 319.335938 148 320.664063 147.667969 323.664063 149 C 326.664063 150.332031 347 154.167969 349.664063 154 C 352.335938 153.832031 355.664063 154.167969 359.335938 155.167969 C 367.800781 157.476563 402.769531 155.203125 407.335938 154.332031 C 409.433594 153.933594 410.175781 154.320313 409.664063 156.332031 "/>
<path style=" stroke:none;fill-rule:nonzero;fill:rgb(0%,0%,0%);fill-opacity:1;" d="M 368.585938 71.414063 C 365.816406 66.804688 359.140625 67.628906 357.320313 72.910156 C 354.113281 82.214844 362.738281 87 366.585938 83.835938 C 370.378906 80.707031 371.402344 76.117188 368.585938 71.414063 Z M 363.5 79.828125 C 362.199219 79.828125 361.144531 78.5625 361.144531 77 C 361.144531 75.4375 362.199219 74.171875 363.5 74.171875 C 364.800781 74.171875 365.855469 75.4375 365.855469 77 C 365.855469 78.5625 364.800781 79.828125 363.5 79.828125 "/>
<path style=" stroke:none;fill-rule:nonzero;fill:rgb(0%,0%,0%);fill-opacity:1;" d="M 376.164063 73.25 C 375.035156 74.207031 373.214844 77.597656 373.085938 80.75 C 372.910156 84.855469 375.976563 88.980469 381.75 85.585938 C 384.34375 84.058594 385.535156 81.785156 386.25 79 C 387.960938 72.324219 380.171875 69.859375 376.164063 73.25 Z M 380.867188 80.558594 C 380.367188 81.925781 379.269531 82.550781 378.164063 82.148438 C 377.0625 81.746094 376.574219 80.308594 377.074219 78.941406 C 377.574219 77.570313 378.871094 76.785156 379.976563 77.1875 C 381.078125 77.589844 381.363281 79.1875 380.867188 80.558594 "/>
<path style=" stroke:none;fill-rule:nonzero;fill:rgb(0%,0%,0%);fill-opacity:1;" d="M 371.414063 99.914063 C 370.25 100.585938 367.8125 101.054688 367.664063 98.914063 C 367.546875 97.109375 365.582031 97.492188 365.335938 99.25 C 364.878906 102.449219 369.058594 104.242188 371.914063 102.25 C 373.324219 101.269531 372.511719 99.289063 371.414063 99.914063 "/>
<path style=" stroke:none;fill-rule:nonzero;fill:rgb(0%,0%,0%);fill-opacity:1;" d="M 414.335938 103.835938 C 412 103.835938 408.835938 102.664063 407.835938 101.5 C 406.070313 99.445313 397.03125 97.777344 393.5 98 C 389.160156 98.269531 390.519531 102.132813 394 101.5 C 397.519531 100.859375 404.203125 101.972656 406.164063 104.5 C 407.335938 106 410 107.164063 411.835938 107 C 413.664063 106.835938 416.5 107.664063 417.835938 109 C 419.164063 110.335938 421.164063 107.5 420.164063 106.164063 C 419.164063 104.835938 416.664063 103.835938 414.335938 103.835938 "/>
<path style=" stroke:none;fill-rule:nonzero;fill:rgb(0%,0%,0%);fill-opacity:1;" d="M 444 211.832031 C 446.046875 212.089844 447.398438 211.132813 448.164063 208.832031 C 448.664063 207.332031 452.164063 203.332031 453.5 202 C 457.722656 197.777344 459.164063 189.832031 458 184 C 457.5 181.5 457.480469 172.191406 457.664063 170.5 C 458.730469 160.84375 451.78125 159.023438 451 169.167969 C 450.648438 173.742188 448.242188 192.59375 443.164063 197.667969 C 441.835938 199 440.335938 198.167969 441.164063 196 C 442 193.832031 442.835938 190.5 443.5 189.167969 C 445.234375 185.699219 442.433594 171.46875 441.335938 168.167969 C 439.699219 163.261719 436.664063 165.945313 436.664063 170 C 436.664063 171.332031 436.335938 173.332031 434.835938 174.832031 C 430.0625 179.605469 428.9375 184.394531 434.164063 198.332031 C 434.664063 199.667969 433 201.167969 432 199.167969 C 430.128906 195.417969 426.871094 188.246094 422 187.332031 C 413.671875 185.773438 414.273438 188.171875 418.335938 194.667969 C 419.164063 196 425.164063 204.667969 425.835938 205.167969 C 426.5 205.667969 427.164063 207.167969 427.164063 208.167969 C 427.164063 213.039063 427.554688 216.128906 430.5 220.332031 C 431.40625 221.628906 432.371094 221.59375 433.5 219.332031 C 434.367188 217.59375 437.164063 216.5 438 217.667969 C 438.835938 218.832031 440.5 218.667969 441.835938 218.332031 C 443.164063 218 444.164063 218.667969 444.5 220.167969 C 444.835938 221.667969 446.835938 221.332031 446.5 219.667969 C 446.164063 218 446.335938 217.332031 446.835938 216.667969 C 448.546875 214.382813 445.675781 213.558594 443.835938 214.667969 C 443 215.167969 441.164063 214.832031 440.335938 215 C 439.5 215.167969 439.335938 214.332031 440.335938 213.332031 C 441.335938 212.332031 442.664063 211.667969 444 211.832031 Z M 442.164063 203.832031 C 445.582031 200.757813 451.417969 186.738281 452.164063 181.5 C 452.902344 176.359375 454.871094 176.355469 455.335938 180.667969 C 456.335938 190.019531 456.628906 197.9375 446.835938 206.332031 C 445.664063 207.332031 443.335938 207.5 442 207.832031 C 440.664063 208.167969 440.5 205.332031 442.164063 203.832031 Z M 427.335938 201.5 C 426 200.5 421.335938 195.5 420.664063 194 C 420 192.5 421.664063 189.667969 423.664063 191.667969 C 425.5 193.5 429.164063 198.332031 429.335938 199.832031 C 429.5 201.332031 428.664063 202.5 427.335938 201.5 Z M 430.664063 214.832031 C 430 212.667969 429.164063 208.167969 429 206.667969 C 428.699219 203.96875 431.628906 202.921875 432.664063 205 C 433.640625 206.945313 434.664063 212.332031 434.835938 214 C 435.066406 216.34375 431.535156 217.65625 430.664063 214.832031 Z M 439.164063 194.832031 C 438.335938 196 435.945313 196.105469 435.335938 194 C 432.097656 182.898438 434.015625 178.488281 437 176.5 C 438 175.832031 440.164063 175 440.335938 176.5 C 440.769531 180.441406 441.945313 190.945313 439.164063 194.832031 "/>
<path style=" stroke:none;fill-rule:nonzero;fill:rgb(0%,0%,0%);fill-opacity:1;" d="M 471.835938 192.574219 C 470.792969 192.574219 469.949219 193.734375 469.949219 195.167969 C 469.949219 196.597656 470.792969 197.757813 471.835938 197.757813 C 472.875 197.757813 473.71875 196.597656 473.71875 195.167969 C 473.71875 193.734375 472.875 192.574219 471.835938 192.574219 "/>
<path style=" stroke:none;fill-rule:nonzero;fill:rgb(0%,0%,0%);fill-opacity:1;" d="M 464.835938 202.011719 C 463.921875 202.011719 463.183594 203.011719 463.183594 204.25 C 463.183594 205.488281 463.921875 206.488281 464.835938 206.488281 C 465.746094 206.488281 466.484375 205.488281 466.484375 204.25 C 466.484375 203.011719 465.746094 202.011719 464.835938 202.011719 "/>
<path style=" stroke:none;fill-rule:nonzero;fill:rgb(0%,0%,0%);fill-opacity:1;" d="M 457.285156 206.910156 C 455.707031 207.292969 454.585938 208.269531 454.785156 209.09375 C 454.984375 209.914063 456.429688 210.269531 458.007813 209.886719 C 459.589844 209.503906 460.710938 208.527344 460.511719 207.703125 C 460.3125 206.882813 458.867188 206.527344 457.285156 206.910156 "/>
<path style=" stroke:none;fill-rule:nonzero;fill:rgb(0%,0%,0%);fill-opacity:1;" d="M 454.15625 214.355469 C 453.441406 214.039063 452.351563 214.941406 451.71875 216.367188 C 451.085938 217.796875 451.148438 219.210938 451.863281 219.527344 C 452.578125 219.84375 453.671875 218.941406 454.304688 217.515625 C 454.9375 216.085938 454.871094 214.671875 454.15625 214.355469 "/>
<path style=" stroke:none;fill-rule:nonzero;fill:rgb(0%,0%,0%);fill-opacity:1;" d="M 431.335938 224.40625 C 430.421875 224.40625 429.683594 225.570313 429.683594 227 C 429.683594 228.429688 430.421875 229.59375 431.335938 229.59375 C 432.246094 229.59375 432.984375 228.429688 432.984375 227 C 432.984375 225.570313 432.246094 224.40625 431.335938 224.40625 "/>
<path style=" stroke:none;fill-rule:nonzero;fill:rgb(0%,0%,0%);fill-opacity:1;" d="M 403.835938 221.21875 C 405.65625 221.21875 407.132813 220.375 407.132813 219.332031 C 407.132813 218.292969 405.65625 217.449219 403.835938 217.449219 C 402.011719 217.449219 400.535156 218.292969 400.535156 219.332031 C 400.535156 220.375 402.011719 221.21875 403.835938 221.21875 "/>
<path style=" stroke:none;fill-rule:nonzero;fill:rgb(0%,0%,0%);fill-opacity:1;" d="M 372.5 228.34375 C 371.460938 228.34375 370.613281 229.347656 370.613281 230.582031 C 370.613281 231.820313 371.460938 232.824219 372.5 232.824219 C 373.539063 232.824219 374.386719 231.820313 374.386719 230.582031 C 374.386719 229.347656 373.539063 228.34375 372.5 228.34375 "/>
<path style=" stroke:none;fill-rule:nonzero;fill:rgb(0%,0%,0%);fill-opacity:1;" d="M 408.664063 223.832031 C 407.335938 224.667969 405.65625 224.648438 404.164063 224.832031 C 402.835938 225 401.664063 228.167969 403.335938 228.5 C 405 228.832031 407.835938 227.5 409.835938 226 C 411.835938 224.5 410 223 408.664063 223.832031 "/>
<path style=" stroke:none;fill-rule:nonzero;fill:rgb(0%,0%,0%);fill-opacity:1;" d="M 398.664063 230.332031 C 394.554688 230.332031 393.835938 232.167969 395.164063 233.5 C 396.5 234.832031 398.664063 234.167969 400.5 232.5 C 402.335938 230.832031 400.460938 230.332031 398.664063 230.332031 "/>
<path style=" stroke:none;fill-rule:nonzero;fill:rgb(0%,0%,0%);fill-opacity:1;" d="M 399.164063 208 C 403.523438 202.191406 390.53125 203.03125 385.835938 205.167969 C 384 206 382.164063 204.832031 382.164063 203.832031 C 382.164063 199.277344 374.554688 200.332031 367.164063 203.5 C 366 204 365 203.332031 365.335938 202.332031 C 366.183594 199.777344 364.59375 197.890625 360.835938 199.5 C 356.871094 201.199219 355.964844 200.578125 355.5 198.5 C 355.164063 197 354 197.332031 352 198.5 C 350 199.667969 346.351563 200.292969 344.5 199.5 C 339.632813 197.414063 335.066406 205.214844 339.835938 206.167969 C 340.664063 206.332031 342 206.832031 341.164063 208.332031 C 340.335938 209.832031 342.835938 211 344.335938 209.5 C 345.835938 208 354.664063 204.667969 356.5 204.167969 C 360.1875 203.160156 361.480469 203.617188 357.664063 206.667969 C 353.867188 209.707031 357.699219 213.859375 360.835938 210.332031 C 362.164063 208.832031 371.664063 206 373.5 205.5 C 379.398438 203.890625 380.113281 205.390625 374.5 208.667969 C 370.765625 210.84375 371.972656 213.433594 376.664063 211.5 C 379.5 210.332031 388.664063 208.167969 390.664063 207.667969 C 392.664063 207.167969 394 207.832031 394 209.167969 C 394 212.277344 396.835938 211.109375 399.164063 208 "/>
<path style=" stroke:none;fill-rule:nonzero;fill:rgb(0%,0%,0%);fill-opacity:1;" d="M 307.75 193.113281 C 306.773438 193.113281 305.980469 193.957031 305.980469 195 C 305.980469 196.042969 306.773438 196.886719 307.75 196.886719 C 308.726563 196.886719 309.519531 196.042969 309.519531 195 C 309.519531 193.957031 308.726563 193.113281 307.75 193.113281 "/>
<path style=" stroke:none;fill-rule:nonzero;fill:rgb(0%,0%,0%);fill-opacity:1;" d="M 319.75 203.011719 C 318.773438 203.011719 317.980469 204.011719 317.980469 205.25 C 317.980469 206.488281 318.773438 207.488281 319.75 207.488281 C 320.726563 207.488281 321.519531 206.488281 321.519531 205.25 C 321.519531 204.011719 320.726563 203.011719 319.75 203.011719 "/>
<path style=" stroke:none;fill-rule:nonzero;fill:rgb(0%,0%,0%);fill-opacity:1;" d="M 330.085938 216.886719 C 328.976563 216.886719 328.078125 217.570313 328.078125 218.417969 C 328.078125 219.261719 328.976563 219.949219 330.085938 219.949219 C 331.191406 219.949219 332.085938 219.261719 332.085938 218.417969 C 332.085938 217.570313 331.191406 216.886719 330.085938 216.886719 "/>
<path style=" stroke:none;fill-rule:nonzero;fill:rgb(0%,0%,0%);fill-opacity:1;" d="M 291.5 207.683594 C 290.328125 207.683594 289.378906 208.421875 289.378906 209.332031 C 289.378906 210.246094 290.328125 210.984375 291.5 210.984375 C 292.671875 210.984375 293.621094 210.246094 293.621094 209.332031 C 293.621094 208.421875 292.671875 207.683594 291.5 207.683594 "/>
<path style=" stroke:none;fill-rule:nonzero;fill:rgb(0%,0%,0%);fill-opacity:1;" d="M 298.085938 212.917969 C 298.085938 211.550781 297.191406 210.441406 296.085938 210.441406 C 294.976563 210.441406 294.078125 211.550781 294.078125 212.917969 C 294.078125 214.285156 294.976563 215.390625 296.085938 215.390625 C 297.191406 215.390625 298.085938 214.285156 298.085938 212.917969 "/>
<path style=" stroke:none;fill-rule:nonzero;fill:rgb(0%,0%,0%);fill-opacity:1;" d="M 298.164063 216.34375 C 297.125 216.34375 296.28125 217.347656 296.28125 218.582031 C 296.28125 219.820313 297.125 220.824219 298.164063 220.824219 C 299.207031 220.824219 300.050781 219.820313 300.050781 218.582031 C 300.050781 217.347656 299.207031 216.34375 298.164063 216.34375 "/>
<path style=" stroke:none;fill-rule:nonzero;fill:rgb(0%,0%,0%);fill-opacity:1;" d="M 305.914063 208.082031 C 305.070313 208.082031 304.386719 208.976563 304.386719 210.082031 C 304.386719 211.191406 305.070313 212.085938 305.914063 212.085938 C 306.761719 212.085938 307.449219 211.191406 307.449219 210.082031 C 307.449219 208.976563 306.761719 208.082031 305.914063 208.082031 "/>
<path style=" stroke:none;fill-rule:nonzero;fill:rgb(0%,0%,0%);fill-opacity:1;" d="M 305.121094 217.699219 C 304.171875 217.46875 303.128906 218.410156 302.792969 219.800781 C 302.453125 221.191406 302.949219 222.507813 303.898438 222.738281 C 304.847656 222.96875 305.890625 222.027344 306.226563 220.636719 C 306.566406 219.242188 306.070313 217.929688 305.121094 217.699219 "/>
<path style=" stroke:none;fill-rule:nonzero;fill:rgb(0%,0%,0%);fill-opacity:1;" d="M 315.5625 211.171875 C 314.609375 210.753906 313.390625 211.429688 312.84375 212.683594 C 312.292969 213.933594 312.621094 215.289063 313.574219 215.707031 C 314.53125 216.125 315.746094 215.449219 316.296875 214.195313 C 316.847656 212.945313 316.515625 211.589844 315.5625 211.171875 "/>
<path style=" stroke:none;fill-rule:nonzero;fill:rgb(0%,0%,0%);fill-opacity:1;" d="M 265.164063 209.78125 C 263.863281 209.78125 262.808594 210.625 262.808594 211.667969 C 262.808594 212.707031 263.863281 213.550781 265.164063 213.550781 C 266.46875 213.550781 267.523438 212.707031 267.523438 211.667969 C 267.523438 210.625 266.46875 209.78125 265.164063 209.78125 "/>
<path style=" stroke:none;fill-rule:nonzero;fill:rgb(0%,0%,0%);fill-opacity:1;" d="M 279.5 210.949219 C 278.199219 210.949219 277.144531 211.792969 277.144531 212.832031 C 277.144531 213.875 278.199219 214.71875 279.5 214.71875 C 280.800781 214.71875 281.855469 213.875 281.855469 212.832031 C 281.855469 211.792969 280.800781 210.949219 279.5 210.949219 "/>
<path style=" stroke:none;fill-rule:nonzero;fill:rgb(0%,0%,0%);fill-opacity:1;" d="M 277.335938 216.351563 C 276.34375 216.027344 275.085938 217.171875 274.519531 218.90625 C 273.957031 220.636719 274.300781 222.304688 275.292969 222.625 C 276.28125 222.949219 277.542969 221.804688 278.105469 220.074219 C 278.671875 218.339844 278.324219 216.671875 277.335938 216.351563 "/>
<path style=" stroke:none;fill-rule:nonzero;fill:rgb(0%,0%,0%);fill-opacity:1;" d="M 236.164063 218.039063 C 235.125 218.039063 234.28125 219.253906 234.28125 220.75 C 234.28125 222.246094 235.125 223.460938 236.164063 223.460938 C 237.207031 223.460938 238.050781 222.246094 238.050781 220.75 C 238.050781 219.253906 237.207031 218.039063 236.164063 218.039063 "/>
<path style=" stroke:none;fill-rule:nonzero;fill:rgb(0%,0%,0%);fill-opacity:1;" d="M 216.664063 219.574219 C 215.753906 219.574219 215.015625 220.734375 215.015625 222.167969 C 215.015625 223.597656 215.753906 224.757813 216.664063 224.757813 C 217.578125 224.757813 218.316406 223.597656 218.316406 222.167969 C 218.316406 220.734375 217.578125 219.574219 216.664063 219.574219 "/>
<path style=" stroke:none;fill-rule:nonzero;fill:rgb(0%,0%,0%);fill-opacity:1;" d="M 195.835938 204.046875 C 194.53125 204.046875 193.476563 204.996094 193.476563 206.167969 C 193.476563 207.339844 194.53125 208.289063 195.835938 208.289063 C 197.136719 208.289063 198.191406 207.339844 198.191406 206.167969 C 198.191406 204.996094 197.136719 204.046875 195.835938 204.046875 "/>
<path style=" stroke:none;fill-rule:nonzero;fill:rgb(0%,0%,0%);fill-opacity:1;" d="M 204.835938 206.308594 C 203.792969 206.308594 202.949219 207.363281 202.949219 208.667969 C 202.949219 209.96875 203.792969 211.023438 204.835938 211.023438 C 205.875 211.023438 206.71875 209.96875 206.71875 208.667969 C 206.71875 207.363281 205.875 206.308594 204.835938 206.308594 "/>
<path style=" stroke:none;fill-rule:nonzero;fill:rgb(0%,0%,0%);fill-opacity:1;" d="M 187.5 206.308594 C 186.589844 206.308594 185.851563 207.363281 185.851563 208.667969 C 185.851563 209.96875 186.589844 211.023438 187.5 211.023438 C 188.410156 211.023438 189.148438 209.96875 189.148438 208.667969 C 189.148438 207.363281 188.410156 206.308594 187.5 206.308594 "/>
<path style=" stroke:none;fill-rule:nonzero;fill:rgb(0%,0%,0%);fill-opacity:1;" d="M 191.085938 210.914063 C 189.847656 210.914063 188.84375 211.808594 188.84375 212.917969 C 188.84375 214.023438 189.847656 214.917969 191.085938 214.917969 C 192.320313 214.917969 193.320313 214.023438 193.320313 212.917969 C 193.320313 211.808594 192.320313 210.914063 191.085938 210.914063 "/>
<path style=" stroke:none;fill-rule:nonzero;fill:rgb(0%,0%,0%);fill-opacity:1;" d="M 177.585938 207.675781 C 176.738281 207.675781 176.050781 208.679688 176.050781 209.917969 C 176.050781 211.152344 176.738281 212.15625 177.585938 212.15625 C 178.429688 212.15625 179.113281 211.152344 179.113281 209.917969 C 179.113281 208.679688 178.429688 207.675781 177.585938 207.675781 "/>
<path style=" stroke:none;fill-rule:nonzero;fill:rgb(0%,0%,0%);fill-opacity:1;" d="M 157.085938 231.515625 C 155.457031 231.515625 154.136719 232.253906 154.136719 233.167969 C 154.136719 234.078125 155.457031 234.816406 157.085938 234.816406 C 158.710938 234.816406 160.03125 234.078125 160.03125 233.167969 C 160.03125 232.253906 158.710938 231.515625 157.085938 231.515625 "/>
<path style=" stroke:none;fill-rule:nonzero;fill:rgb(0%,0%,0%);fill-opacity:1;" d="M 145.835938 210.378906 C 144.792969 210.378906 143.949219 211.328125 143.949219 212.5 C 143.949219 213.671875 144.792969 214.621094 145.835938 214.621094 C 146.875 214.621094 147.71875 213.671875 147.71875 212.5 C 147.71875 211.328125 146.875 210.378906 145.835938 210.378906 "/>
<path style=" stroke:none;fill-rule:nonzero;fill:rgb(0%,0%,0%);fill-opacity:1;" d="M 103.585938 198.574219 C 102.605469 198.574219 101.816406 199.734375 101.816406 201.167969 C 101.816406 202.597656 102.605469 203.757813 103.585938 203.757813 C 104.558594 203.757813 105.351563 202.597656 105.351563 201.167969 C 105.351563 199.734375 104.558594 198.574219 103.585938 198.574219 "/>
<path style=" stroke:none;fill-rule:nonzero;fill:rgb(0%,0%,0%);fill-opacity:1;" d="M 126.753906 186.425781 C 125.789063 186.273438 124.820313 187.351563 124.59375 188.832031 C 124.363281 190.3125 124.960938 191.632813 125.925781 191.78125 C 126.890625 191.929688 127.855469 190.851563 128.085938 189.375 C 128.316406 187.894531 127.71875 186.574219 126.753906 186.425781 "/>
<path style=" stroke:none;fill-rule:nonzero;fill:rgb(0%,0%,0%);fill-opacity:1;" d="M 134.78125 194.898438 C 133.898438 194.476563 132.730469 195.089844 132.171875 196.261719 C 131.609375 197.4375 131.867188 198.730469 132.746094 199.152344 C 133.628906 199.574219 134.796875 198.960938 135.359375 197.789063 C 135.921875 196.613281 135.660156 195.320313 134.78125 194.898438 "/>
<path style=" stroke:none;fill-rule:nonzero;fill:rgb(0%,0%,0%);fill-opacity:1;" d="M 105 190.371094 C 103.960938 190.371094 103.113281 191.585938 103.113281 193.082031 C 103.113281 194.582031 103.960938 195.792969 105 195.792969 C 106.039063 195.792969 106.886719 194.582031 106.886719 193.082031 C 106.886719 191.585938 106.039063 190.371094 105 190.371094 "/>
<path style=" stroke:none;fill-rule:nonzero;fill:rgb(0%,0%,0%);fill-opacity:1;" d="M 111.15625 200.390625 C 111.667969 199.195313 111.355469 197.914063 110.460938 197.527344 C 109.5625 197.144531 108.417969 197.800781 107.90625 198.996094 C 107.394531 200.195313 107.703125 201.476563 108.601563 201.859375 C 109.5 202.246094 110.644531 201.585938 111.15625 200.390625 "/>
<path style=" stroke:none;fill-rule:nonzero;fill:rgb(0%,0%,0%);fill-opacity:1;" d="M 131 210.476563 C 129.699219 210.476563 128.644531 211.53125 128.644531 212.832031 C 128.644531 214.136719 129.699219 215.191406 131 215.191406 C 132.300781 215.191406 133.355469 214.136719 133.355469 212.832031 C 133.355469 211.53125 132.300781 210.476563 131 210.476563 "/>
<path style=" stroke:none;fill-rule:nonzero;fill:rgb(0%,0%,0%);fill-opacity:1;" d="M 166.765625 211.207031 C 165.886719 210.785156 164.714844 211.398438 164.15625 212.570313 C 163.59375 213.746094 163.851563 215.039063 164.734375 215.460938 C 165.613281 215.882813 166.785156 215.269531 167.34375 214.09375 C 167.90625 212.921875 167.648438 211.628906 166.765625 211.207031 "/>
<path style=" stroke:none;fill-rule:nonzero;fill:rgb(0%,0%,0%);fill-opacity:1;" d="M 251.664063 177.167969 C 251.164063 179.5 248.296875 186.308594 246.835938 188.5 C 245.835938 190 244.335938 190 245.835938 187.667969 C 250.046875 181.113281 248.398438 174.21875 247.335938 166.5 C 246.664063 161.667969 243.5 162.832031 242.164063 165.667969 C 240.835938 168.5 238.664063 176.167969 238.835938 179 C 239.089844 183.34375 236.355469 191.433594 234.835938 196 C 233.234375 200.800781 230.394531 198.042969 232.335938 194.167969 C 233.664063 191.5 234.164063 181.832031 232.835938 179.5 C 231.5 177.167969 230 172.332031 229.835938 169.167969 C 229.664063 166 226.835938 166.167969 225.164063 168.5 C 219.675781 176.183594 218.046875 188.316406 222.835938 194.167969 C 224.335938 196 227.164063 201.167969 228 203 C 228.835938 204.832031 226.835938 205.167969 226.164063 203.5 C 225.5 201.832031 221.835938 198.667969 219.5 197.167969 C 217.164063 195.667969 215.835938 198.167969 217.5 199 C 219.164063 199.832031 222 203.667969 223.335938 205.667969 C 224.664063 207.667969 226.164063 209.167969 227.335938 207.667969 C 228.5 206.167969 230.164063 206.832031 230.664063 208.667969 C 231.164063 210.5 232 210.167969 235 208.332031 C 246.203125 201.488281 253.410156 185.457031 255 177.5 C 256.03125 172.339844 252.734375 172.179688 251.664063 177.167969 Z M 231.335938 186.5 C 229.75 190.058594 229.527344 193.828125 229.835938 195.667969 C 230.164063 197.667969 228.5 198.667969 227.164063 197.332031 C 223.222656 193.390625 221.636719 183.445313 224.164063 175.5 C 225.335938 171.832031 227.164063 172.167969 228 173.832031 C 228.835938 175.5 232 185 231.335938 186.5 Z M 239 189.667969 C 240.164063 187.667969 241.335938 182.5 241.335938 180.332031 C 241.335938 178.167969 241.371094 173.851563 242.664063 171 C 244.210938 167.605469 245.566406 167.839844 246.164063 172.332031 C 246.710938 176.421875 244.953125 187.078125 241.835938 191.5 C 238.632813 196.035156 236.796875 193.445313 239 189.667969 "/>
<path style=" stroke:none;fill-rule:nonzero;fill:rgb(0%,0%,0%);fill-opacity:1;" d="M 256.164063 211.832031 C 254.835938 212.332031 251.941406 213.390625 250 214.5 C 247.664063 215.832031 250.664063 218.167969 251.835938 217.167969 C 253 216.167969 254.335938 215.167969 257 213.667969 C 259.664063 212.167969 257.5 211.332031 256.164063 211.832031 "/>
<path style=" stroke:none;fill-rule:nonzero;fill:rgb(0%,0%,0%);fill-opacity:1;" d="M 87 232.5 C 86.5 234 85.769531 233.878906 82.832031 233 C 81.167969 232.5 81 236.332031 83.167969 236.667969 C 85.332031 237 89.332031 235 90.667969 233.167969 C 92 231.332031 87.5 231 87 232.5 "/>
<path style=" stroke:none;fill-rule:nonzero;fill:rgb(0%,0%,0%);fill-opacity:1;" d="M 100.835938 229.5 C 99.332031 228.667969 97.832031 228.832031 97.167969 230.832031 C 96.597656 232.535156 99.332031 236.167969 101.164063 234.332031 C 103 232.5 102.335938 230.332031 100.835938 229.5 "/>
<path style=" stroke:none;fill-rule:nonzero;fill:rgb(0%,0%,0%);fill-opacity:1;" d="M 110.835938 229.332031 C 109.164063 230.667969 109.664063 232.667969 112.664063 230.832031 C 115.664063 229 112.316406 228.144531 110.835938 229.332031 "/>
<path style=" stroke:none;fill-rule:nonzero;fill:rgb(0%,0%,0%);fill-opacity:1;" d="M 123.664063 232.167969 C 121.835938 234 124 235.667969 125.835938 233.832031 C 127.664063 232 124.921875 230.914063 123.664063 232.167969 "/>
<path style=" stroke:none;fill-rule:nonzero;fill:rgb(0%,0%,0%);fill-opacity:1;" d="M 82.824219 223.832031 C 82.824219 222.792969 81.820313 221.949219 80.582031 221.949219 C 79.347656 221.949219 78.34375 222.792969 78.34375 223.832031 C 78.34375 224.875 79.347656 225.71875 80.582031 225.71875 C 81.820313 225.71875 82.824219 224.875 82.824219 223.832031 "/>
<path style=" stroke:none;fill-rule:nonzero;fill:rgb(0%,0%,0%);fill-opacity:1;" d="M 91.332031 196.667969 C 89.832031 198.167969 88.171875 198.613281 86.5 199 C 84.332031 199.5 85.667969 202.667969 87 202.332031 C 88.332031 202 90.167969 201.667969 92.332031 199.667969 C 94.5 197.667969 92.832031 195.167969 91.332031 196.667969 "/>
<path style=" stroke:none;fill-rule:nonzero;fill:rgb(0%,0%,0%);fill-opacity:1;" d="M 77 196.167969 C 76.667969 197.832031 74.535156 200.328125 73.332031 203.332031 C 72.667969 205 71.332031 205 71.332031 203.5 C 71.332031 202 74.667969 195.667969 75.832031 194.167969 C 80.824219 187.75 81.175781 179.527344 80.832031 171.667969 C 80.667969 167.832031 76.832031 168.167969 76.832031 170.667969 C 76.832031 173.167969 74.5 178 73.332031 179 C 72.167969 180 69.332031 186.667969 69 189.332031 C 68.667969 192 67.167969 191.832031 66.667969 189.832031 C 64.585938 181.503906 66.75 173.941406 68.5 163 C 68.914063 160.421875 68.085938 158.078125 64.832031 161.332031 C 58.445313 167.722656 56.945313 185.667969 56.332031 191.167969 C 56 194.167969 54.832031 194.332031 53.667969 192.667969 C 49.117188 186.167969 47.214844 181.21875 46.167969 172.832031 C 45.316406 166.027344 43.238281 166.75 40.667969 173 C 38.683594 177.820313 42.320313 199.570313 49 203.167969 C 51.167969 204.332031 56.832031 208 58 210.167969 C 59.167969 212.332031 64.332031 214 65.832031 213.167969 C 67.332031 212.332031 68 211.5 69.5 212.332031 C 71 213.167969 73.667969 211.667969 73.832031 210.332031 C 74 209 74.832031 206.832031 76.332031 205.5 C 77.832031 204.167969 79.832031 201.167969 80.5 198.5 C 81.777344 193.386719 77.828125 192.03125 77 196.167969 Z M 53.5 203.5 C 47.734375 200.988281 42.636719 191.144531 41.5 179.5 C 41.027344 174.664063 44.167969 175.332031 44.832031 178.332031 C 45.5 181.332031 49.167969 191.167969 51.5 193.5 C 53.832031 195.832031 55.667969 200.832031 56.332031 202.332031 C 57 203.832031 55.703125 204.460938 53.5 203.5 Z M 62 208.832031 C 60.167969 208.332031 59.5 206.832031 60.832031 206 C 62.167969 205.167969 61 202.667969 59.5 200.832031 C 56.898438 197.652344 58.160156 187.683594 60 184 C 61.167969 181.667969 60.917969 173.570313 62.332031 170.332031 C 64.34375 165.738281 66.023438 168.074219 65 172.167969 C 64.054688 175.945313 62.890625 184.5 64 187.832031 C 64.667969 189.832031 64.667969 203.5 65.667969 206.832031 C 66.296875 208.933594 63.832031 209.332031 62 208.832031 Z M 68 204.332031 C 66.515625 197.402344 73.660156 182.425781 75.832031 179.167969 C 77.5 176.667969 78.832031 177.667969 78.667969 180 C 78.320313 184.859375 77.679688 188.085938 74.832031 192 C 73.5 193.832031 69.667969 201.832031 69.832031 204.332031 C 70 206.832031 68.5 206.667969 68 204.332031 "/>
<path style=" stroke:none;fill-rule:nonzero;fill:rgb(0%,0%,0%);fill-opacity:1;" d="M 24.183594 197.917969 C 24.183594 196.808594 23.394531 195.914063 22.417969 195.914063 C 21.441406 195.914063 20.648438 196.808594 20.648438 197.917969 C 20.648438 199.023438 21.441406 199.917969 22.417969 199.917969 C 23.394531 199.917969 24.183594 199.023438 24.183594 197.917969 "/>
<path style=" stroke:none;fill-rule:nonzero;fill:rgb(0%,0%,0%);fill-opacity:1;" d="M 32.667969 198.082031 C 31.753906 198.082031 31.015625 198.976563 31.015625 200.082031 C 31.015625 201.191406 31.753906 202.085938 32.667969 202.085938 C 33.578125 202.085938 34.316406 201.191406 34.316406 200.082031 C 34.316406 198.976563 33.578125 198.082031 32.667969 198.082031 "/>
<path style=" stroke:none;fill-rule:nonzero;fill:rgb(0%,0%,0%);fill-opacity:1;" d="M 37.332031 209.316406 C 36.292969 209.316406 35.449219 210.105469 35.449219 211.082031 C 35.449219 212.058594 36.292969 212.851563 37.332031 212.851563 C 38.375 212.851563 39.21875 212.058594 39.21875 211.082031 C 39.21875 210.105469 38.375 209.316406 37.332031 209.316406 "/>
<path style=" stroke:none;fill-rule:nonzero;fill:rgb(0%,0%,0%);fill-opacity:1;" d="M 23.667969 202.675781 C 22.753906 202.675781 22.015625 203.679688 22.015625 204.917969 C 22.015625 206.152344 22.753906 207.15625 23.667969 207.15625 C 24.578125 207.15625 25.316406 206.152344 25.316406 204.917969 C 25.316406 203.679688 24.578125 202.675781 23.667969 202.675781 "/>
<path style=" stroke:none;fill-rule:nonzero;fill:rgb(0%,0%,0%);fill-opacity:1;" d="M 8.167969 202.5 C 6.5 203.5 5.070313 203.5625 4 204.5 C 2.667969 205.667969 4.066406 208.183594 5 207.667969 C 6.5 206.832031 8.167969 205.832031 9.832031 204.5 C 11.5 203.167969 9.832031 201.5 8.167969 202.5 "/>
<path style=" stroke:none;fill-rule:nonzero;fill:rgb(0%,0%,0%);fill-opacity:1;" d="M 254 79.835938 C 252.664063 79.5 250.664063 78.835938 247.335938 77.164063 C 243.609375 75.304688 228.859375 76.855469 221.914063 78.9375 C 220.25 79.4375 219.664063 78.835938 219.835938 77.335938 C 220.609375 70.335938 213.945313 67.222656 210.164063 71 C 209.335938 71.835938 208.335938 71.5 207.335938 70.835938 C 205.230469 69.429688 201.117188 70.328125 196.835938 74 C 193.429688 76.917969 191.902344 86.136719 192.664063 90.335938 C 193.601563 95.484375 203.398438 96.570313 208.664063 88.664063 C 209.335938 87.664063 210 85.664063 211.664063 85.835938 C 213.335938 86 217.335938 84.164063 218.664063 83.664063 C 224.613281 81.4375 242.496094 77.898438 246.164063 80.835938 C 247 81.5 250.835938 83 252.5 83.335938 C 255.683594 83.96875 259.59375 88.253906 259.164063 91.664063 C 256.894531 109.859375 239.664063 115.292969 225.164063 118.039063 C 223.140625 118.425781 219.414063 118.875 218.085938 118.375 C 216.75 117.875 212.375 116.960938 211.375 116.960938 C 210.375 116.960938 208.789063 116.585938 207.960938 115.75 C 206.679688 114.472656 200.554688 111.609375 197.835938 114.335938 C 197.335938 114.835938 195.835938 115.539063 195 114.710938 C 194.191406 113.898438 190.738281 113.191406 190.039063 115.5 C 189.5 117.289063 188.210938 118.414063 186.75 116.875 C 182.1875 112.054688 177.21875 120.054688 181.664063 124.5 C 184.277344 127.109375 186.890625 122.722656 183.835938 121.5 C 181.511719 120.570313 183.796875 118.097656 185.914063 119.789063 C 189.675781 122.796875 190.796875 122.9375 191.835938 119.835938 C 192.703125 117.214844 195.640625 117.757813 194.210938 120.625 C 189.476563 130.085938 194.117188 135.371094 198.164063 132 C 199.164063 131.164063 199.835938 131.164063 200.335938 132.335938 C 201.808594 135.769531 206.136719 133.171875 208.335938 129.664063 C 209.339844 128.0625 210.144531 127.96875 211.164063 129.335938 C 213.53125 132.488281 217.300781 129.359375 218.5 123.625 C 218.804688 122.164063 220.480469 122.234375 222 122 C 239.421875 119.296875 260.441406 114.148438 262.664063 89.664063 C 262.96875 86.324219 257.585938 80.730469 254 79.835938 Z M 204.789063 88.460938 C 202.234375 91.015625 195.664063 93.054688 195.664063 87.335938 C 195.664063 75.417969 205.078125 71.429688 207.0625 75.730469 C 208.410156 78.65625 207.441406 85.808594 204.789063 88.460938 Z M 213.019531 81.960938 C 211.6875 82.625 211.164063 81.835938 211 80.164063 C 210.835938 78.5 210.980469 74.1875 212.480469 73.019531 C 215.628906 70.570313 218.152344 74.21875 217.8125 76.9375 C 217.644531 78.269531 217.914063 80.105469 217.914063 80.105469 C 217.914063 80.105469 214.625 81.15625 213.019531 81.960938 Z M 198.25 128.25 C 195.960938 130.539063 194.5 129.914063 195.5 126.25 C 195.964844 124.546875 198.375 119.75 198.875 118.75 C 199.824219 116.851563 203.808594 116.503906 202.5 119.125 C 201.625 120.875 199.5 127 198.25 128.25 Z M 209.625 122.375 C 208.625 124.375 206.25 128 205.25 129 C 202.546875 131.703125 202.328125 130.339844 203.125 127.75 C 203.617188 126.148438 205 121.375 205.125 120.375 C 205.25 119.375 205.785156 119.117188 206.875 119.375 C 209 119.875 210.421875 120.785156 209.625 122.375 Z M 215.625 124.375 C 214.832031 128.523438 212.242188 127.917969 212.75 125.625 C 213.292969 123.183594 213.859375 121.890625 214.625 122 C 215.5 122.125 215.898438 122.9375 215.625 124.375 "/>
<path style=" stroke:none;fill-rule:nonzero;fill:rgb(0%,0%,0%);fill-opacity:1;" d="M 202.710938 83.214844 C 201.730469 83.214844 200.941406 84.320313 200.941406 85.6875 C 200.941406 87.054688 201.730469 88.160156 202.710938 88.160156 C 203.683594 88.160156 204.476563 87.054688 204.476563 85.6875 C 204.476563 84.320313 203.683594 83.214844 202.710938 83.214844 "/>
<path style=" stroke:none;fill-rule:nonzero;fill:rgb(0%,0%,0%);fill-opacity:1;" d="M 215.4375 76.570313 C 214.753906 76.570313 214.011719 77.761719 214.011719 78.6875 C 214.011719 79.613281 214.816406 80.367188 215.5 80.367188 C 216.183594 80.367188 216.925781 79.363281 216.925781 78.4375 C 216.925781 77.511719 216.121094 76.570313 215.4375 76.570313 "/>
<path style=" stroke:none;fill-rule:nonzero;fill:rgb(0%,0%,0%);fill-opacity:1;" d="M 186.875 77.875 C 184.191406 82.570313 185.820313 90.222656 188.625 92.625 C 190.390625 94.136719 192.304688 93.015625 190.875 90.875 C 189.378906 88.632813 187.160156 82.867188 189.5 79.75 C 191.585938 76.96875 188.476563 75.074219 186.875 77.875 "/>
<path style=" stroke:none;fill-rule:nonzero;fill:rgb(0%,0%,0%);fill-opacity:1;" d="M 182 79.625 C 179.546875 83.757813 179.878906 88.570313 181.25 90.625 C 182.347656 92.269531 184.402344 91.425781 183.375 89.375 C 182.625 87.875 183.25 81.625 183.75 80.625 C 184.550781 79.023438 183.433594 77.210938 182 79.625 "/>
<path style=" stroke:none;fill-rule:nonzero;fill:rgb(0%,0%,0%);fill-opacity:1;" d="M 184.625 131.375 C 177.996094 138.832031 151.839844 148 142.375 148 C 140.875 148 140.25 147.875 140.5 146.75 C 140.75 145.625 141.875 142.125 142.25 141.375 C 142.625 140.625 143 139.875 144.125 139.5 C 149.246094 137.792969 150.617188 134.960938 145.375 136.125 C 144.25 136.375 143.5 135.25 144 134.375 C 146.886719 129.324219 142.128906 128.660156 141 134.25 C 139.242188 142.96875 135.550781 154.574219 127.5 162.625 C 122.183594 167.941406 118.523438 167.351563 120.875 159.125 C 121.625 156.5 126 138.125 127.375 135.5 C 129.75 130.964844 124.125 128.867188 124.125 134.625 C 124.125 137.441406 121.539063 138.519531 119.75 137.125 C 117.234375 135.167969 116 136.75 117.5 139 C 118 139.75 120.375 140.875 121.375 140.625 C 122.375 140.375 122.703125 141.804688 122.25 143.125 C 121.464844 145.40625 120.742188 146.457031 119.648438 146.429688 C 118.367188 146.402344 116.03125 146.839844 115 147.25 C 105.953125 150.867188 82.339844 146.21875 76.125 143.375 C 74.167969 142.480469 65.875 138.5 63.125 138 C 56.769531 136.84375 35.6875 125.363281 31 119 C 27.664063 114.476563 16 109.734375 15.625 116.5 C 15.382813 120.828125 10.367188 128.257813 7.375 130.25 C 2.484375 133.511719 1.476563 131.820313 3 126.375 C 3.875 123.25 7.25 115.875 8.25 113.125 C 11.929688 103.007813 11.113281 91.867188 7.5 81.75 C 3.855469 71.539063 8.484375 68.632813 13.875 77.875 C 16.664063 82.652344 19.671875 89.804688 18.875 95.375 C 18.5 98 20.625 97.75 22.75 97 C 24.875 96.25 27.992188 96.066406 29.5 97.5 C 33.597656 101.398438 41.164063 103.125 45.875 103.125 C 52.132813 103.125 90.496094 101.066406 96.25 98 C 98.125 97 104 95.375 106.375 95.5 C 108.75 95.625 111.625 94.375 111.625 93.25 C 111.625 92.125 112.25 92.25 113.5 92.875 C 116.949219 94.601563 117.828125 91.476563 114.875 90 C 106.460938 85.789063 104.5 80.625 104.5 72.125 C 104.5 66.234375 108.425781 64.902344 119.25 71.625 C 121.21875 72.847656 123.75 74.75 125.25 74.75 C 126.75 74.75 132.5 79.125 134.125 81.375 C 135.75 83.625 137.375 84.5 140 83 C 142.625 81.5 167 76.5 170.25 76.75 C 173.5 77 181.5 76.25 183.25 75.375 C 183.664063 75.164063 185.5 75.25 186.125 75.5 C 188.113281 76.296875 187.636719 70.621094 183.5 72 C 181.398438 72.699219 173.375 73.875 169.625 73.5 C 166.511719 73.1875 142.835938 77.664063 139.75 79.125 C 137.375 80.25 136.636719 80.09375 135.75 78.875 C 134.75 77.5 128.875 72.125 126.25 71.75 C 123.625 71.375 122 69.5 120.625 68.5 C 119.25 67.5 113.375 64.875 110.375 63.875 C 105.375 62.210938 101.625 63.289063 101.625 72.625 C 101.625 78.289063 102.914063 85.664063 107.5 88.875 C 108.75 89.75 109.5 91 107.5 91.375 C 105.128906 91.820313 96.875 93.402344 94.125 94.625 C 87.890625 97.394531 49.941406 101.0625 42.75 100.125 C 38.960938 99.632813 32.914063 97.621094 30.875 95.125 C 28.992188 92.820313 27.132813 93.09375 23.75 93.875 C 22.125 94.25 21.75 93.625 21.75 92.375 C 21.75 84.328125 16.625 75.585938 12 70.25 C 8.40625 66.101563 5.59375 66.855469 4.125 72 C 2.769531 76.738281 4.0625 84.054688 5.875 87 C 8.941406 91.984375 8.308594 106.058594 5.5 112.875 C 4.625 115 0.125 126.375 0 128.75 C -0.382813 136.050781 4.632813 136.617188 8.5 132.75 C 11.492188 129.757813 16.84375 123.324219 17.625 118.625 C 18.414063 113.890625 25.667969 116.941406 28.875 120.75 C 33.324219 126.03125 54.425781 139.925781 61.625 141.125 C 65.375 141.75 70.375 144.375 72.75 145.75 C 79.746094 149.800781 109.171875 154.035156 116.375 151 C 119.039063 149.878906 119.988281 150.898438 119.375 152.625 C 113.863281 168.175781 117.761719 172.367188 127.125 166.75 C 130.539063 164.703125 135.960938 156.671875 137.375 154.25 C 138.25 152.75 140.25 151.875 141.625 151.875 C 143 151.875 149.625 150.75 151.875 149.625 C 154.125 148.5 154.5 149.125 154 150.875 C 151.601563 159.265625 159.980469 162.777344 164.875 156.25 C 167.648438 152.550781 169.058594 149.53125 169.5 146 C 169.625 145 170.5 144.125 171.75 143.375 C 176.335938 140.625 184.335938 138.082031 186.875 133 C 188.457031 129.835938 186.6875 129.054688 184.625 131.375 "/>
<path style=" stroke:none;fill-rule:nonzero;fill:rgb(0%,0%,0%);fill-opacity:1;" d="M 157.5 109.5 C 160.125 108.75 158.492188 105.691406 155.875 107 C 151.355469 109.261719 152.671875 124.796875 155.375 127.5 C 157 129.125 159.171875 128.875 157.625 126.125 C 155.277344 121.949219 154.847656 110.257813 157.5 109.5 "/>
<path style=" stroke:none;fill-rule:nonzero;fill:rgb(0%,0%,0%);fill-opacity:1;" d="M 165.125 106 C 160.609375 110.105469 156.597656 122.304688 165 126.125 C 167.652344 127.332031 169.210938 124.742188 166.375 123 C 161.820313 120.195313 162.765625 114.054688 167.375 108.125 C 169.222656 105.746094 167.675781 103.679688 165.125 106 "/>
<path style=" stroke:none;fill-rule:nonzero;fill:rgb(0%,0%,0%);fill-opacity:1;" d="M 270.25 52.015625 C 273.375 52.015625 275.90625 49.125 275.90625 45.5625 C 275.90625 42 273.375 39.109375 270.25 39.109375 C 267.125 39.109375 264.59375 42 264.59375 45.5625 C 264.59375 49.125 267.125 52.015625 270.25 52.015625 Z M 270.0625 42.820313 C 271.574219 42.820313 272.804688 44.050781 272.804688 45.5625 C 272.804688 47.074219 271.574219 48.304688 270.0625 48.304688 C 268.550781 48.304688 267.320313 47.074219 267.320313 45.5625 C 267.320313 44.050781 268.550781 42.820313 270.0625 42.820313 "/>
<path style=" stroke:none;fill-rule:nonzero;fill:rgb(0%,0%,0%);fill-opacity:1;" d="M 290.75 36.125 C 294.894531 31.664063 293.421875 27.484375 289.066406 26.585938 C 285.476563 25.84375 283.621094 27.890625 282.125 32.375 C 280.359375 37.667969 285.207031 42.09375 290.75 36.125 Z M 284.5 33.125 C 284.75 31.75 285.75 29.375 287.5 29.5 C 290.601563 29.722656 291.464844 31.808594 288.875 34.375 C 285.996094 37.226563 284.085938 35.398438 284.5 33.125 "/>
<path style=" stroke:none;fill-rule:nonzero;fill:rgb(0%,0%,0%);fill-opacity:1;" d="M 271.75 56.375 C 267.121094 56.863281 264.210938 64.511719 267.625 67.5 C 271.007813 70.460938 274.324219 67.039063 276.125 62.375 C 277.304688 59.320313 275.234375 56.007813 271.75 56.375 Z M 272.699219 63.496094 C 272.175781 64.65625 270.960938 65.234375 269.980469 64.792969 C 269.003906 64.351563 268.632813 63.058594 269.152344 61.898438 C 269.675781 60.742188 270.890625 60.160156 271.871094 60.605469 C 272.847656 61.046875 273.21875 62.339844 272.699219 63.496094 "/>
</g>
</svg>
