<?xml version="1.0" encoding="UTF-8"?>
<svg xmlns="http://www.w3.org/2000/svg" xmlns:xlink="http://www.w3.org/1999/xlink" width="184pt" height="594pt" viewBox="0 0 184 594" version="1.1">
<g id="surface1">
<path style=" stroke:none;fill-rule:nonzero;fill:rgb(0%,0%,0%);fill-opacity:1;" d="M 34.078125 581.167969 C 32.484375 580.042969 30.328125 580.324219 29.109375 581.824219 C 27.421875 583.230469 23.886719 584.652344 20.773438 585.71875 C 9.546875 589.574219 4.542969 588.464844 12.183594 576.492188 C 16.246094 570.128906 21.375 564.757813 26.476563 559.179688 C 31.277344 553.933594 32.027344 509.945313 27.492188 488.492188 C 26.769531 485.066406 19.152344 465.625 18.65625 463.402344 C 3.066406 393.144531 9.414063 325.523438 20.953125 254.730469 C 30.796875 193.605469 30.890625 134.167969 22.640625 74.261719 L 21.234375 70.511719 C 20.953125 69.480469 20.109375 68.636719 19.078125 68.261719 C 19.078125 68.261719 16.394531 67.480469 14.082031 66.78125 C 9.265625 65.335938 8.261719 62.835938 8.175781 61.019531 C 8.015625 57.679688 8.5 55.417969 4.921875 55.417969 C 2.953125 55.417969 1.453125 56.917969 1.453125 58.886719 C 1.167969 63.160156 1.3125 68.808594 5.585938 71.144531 C 9.441406 73.253906 15.140625 74.636719 15.140625 74.636719 C 27.140625 151.792969 19.265625 228.105469 6.703125 306.667969 C 0.703125 343.886719 1.359375 379.792969 4.640625 416.636719 C 6.570313 439.003906 8.007813 461.941406 17.777344 482.152344 C 24.261719 495.566406 24.335938 550.960938 20.746094 554.945313 C 14.933594 561.390625 9.085938 567.714844 4.707031 575.277344 C -5.480469 592.875 4.882813 596.9375 22.171875 591.996094 C 27.738281 590.40625 39.21875 585.347656 34.078125 581.167969 "/>
<path style=" stroke:none;fill-rule:nonzero;fill:rgb(0%,0%,0%);fill-opacity:1;" d="M 165.359375 556.03125 C 155.660156 545.285156 165.164063 487.3125 166.894531 483.890625 C 177.3125 463.328125 178.773438 439.828125 180.75 416.929688 C 184.03125 380.085938 184.6875 344.179688 178.6875 306.960938 C 166.125 228.398438 158.25 152.085938 170.25 74.929688 L 170.40625 74.40625 C 174.21875 73.527344 176.835938 72.632813 178.613281 71.871094 C 184.90625 69.175781 184.265625 64.082031 183.9375 59.179688 C 183.9375 57.210938 182.4375 55.710938 180.46875 55.710938 C 178.5 55.710938 177 57.210938 177 59.179688 C 177 59.835938 177 60.398438 177 61.054688 C 177 61.054688 179.285156 65.929688 170.4375 67.710938 L 166.3125 68.554688 C 165.28125 68.929688 164.4375 69.773438 164.15625 70.804688 L 162.75 74.554688 C 154.5 134.460938 154.59375 193.898438 164.4375 255.023438 C 176.050781 326.261719 182.402344 394.285156 166.4375 465.019531 C 166.035156 466.800781 159.757813 482.367188 159.191406 484.402344 C 154.945313 499.652344 147.386719 546.664063 163.335938 564.304688 C 166.839844 568.183594 170.203125 572.132813 173.058594 576.554688 C 178.3125 584.707031 178.105469 590.878906 163.472656 587.179688 C 160.804688 586.503906 158.488281 583.957031 156.28125 582.117188 C 155.0625 580.617188 152.90625 580.335938 151.3125 581.460938 C 149.8125 582.679688 149.53125 584.835938 150.75 586.429688 C 152.136719 589.035156 154.351563 590.15625 156.816406 590.84375 C 185.097656 598.726563 187.980469 587.640625 180.109375 574.597656 C 175.984375 567.765625 170.683594 561.925781 165.359375 556.03125 "/>
<path style=" stroke:none;fill-rule:nonzero;fill:rgb(0%,0%,0%);fill-opacity:1;" d="M 135.167969 573.523438 C 134.324219 574.179688 133.480469 575.398438 132.636719 575.398438 C 124.292969 575.304688 116.136719 575.773438 107.699219 577.742188 C 97.011719 580.273438 87.355469 575.492188 76.761719 573.992188 C 68.792969 572.867188 61.292969 576.054688 53.511719 576.710938 C 51.542969 576.992188 50.230469 578.773438 50.511719 580.648438 C 50.792969 582.617188 52.574219 583.929688 54.449219 583.648438 C 63.730469 582.335938 73.199219 578.679688 82.386719 582.054688 C 90.636719 585.054688 99.074219 586.273438 107.699219 584.585938 C 116.792969 582.898438 124.667969 583.179688 133.574219 582.242188 C 136.011719 581.960938 138.355469 579.804688 140.511719 578.023438 C 141.730469 576.523438 141.542969 574.367188 140.136719 573.054688 C 138.636719 571.835938 136.386719 572.023438 135.167969 573.523438 "/>
<path style=" stroke:none;fill-rule:nonzero;fill:rgb(0%,0%,0%);fill-opacity:1;" d="M 43.230469 70.589844 C 41.417969 71.152344 40.355469 73.152344 40.980469 74.964844 C 43.855469 103.402344 42.167969 131.964844 43.792969 160.402344 C 43.792969 162.277344 45.355469 163.902344 47.292969 163.902344 C 49.230469 163.902344 50.792969 162.277344 50.792969 160.402344 C 48.980469 131.214844 51.292969 101.902344 47.605469 72.839844 C 47.042969 71.027344 45.042969 69.964844 43.230469 70.589844 "/>
<path style=" stroke:none;fill-rule:nonzero;fill:rgb(0%,0%,0%);fill-opacity:1;" d="M 47.804688 170.128906 C 47.960938 172.074219 49.640625 173.472656 51.59375 173.257813 C 62.554688 170.488281 73.425781 172.09375 84.882813 170.785156 C 101.9375 168.816406 117.800781 174.488281 134.421875 172.433594 C 136.316406 172.089844 137.597656 170.277344 137.253906 168.382813 C 136.910156 166.425781 135.09375 165.210938 133.199219 165.554688 C 119.347656 167.304688 105.996094 162.699219 92.058594 163.632813 C 78.121094 164.503906 64.460938 163.636719 50.933594 166.34375 C 48.988281 166.496094 47.589844 168.179688 47.804688 170.128906 "/>
<path style=" stroke:none;fill-rule:nonzero;fill:rgb(0%,0%,0%);fill-opacity:1;" d="M 140.230469 70.503906 C 138.417969 71.066406 137.355469 73.003906 137.855469 74.878906 C 141.167969 102.382813 135.230469 129.691406 136.730469 157.257813 C 136.730469 159.191406 138.292969 160.757813 140.230469 160.757813 C 142.167969 160.757813 143.730469 159.191406 143.730469 157.257813 C 143.730469 141.257813 144.230469 125.316406 145.292969 109.316406 C 146.042969 97.191406 147.042969 84.941406 144.605469 72.878906 C 144.042969 71.066406 142.105469 70.003906 140.230469 70.503906 "/>
<path style=" stroke:none;fill-rule:nonzero;fill:rgb(0%,0%,0%);fill-opacity:1;" d="M 129 66.902344 C 105.125 67.402344 80.75 69.652344 57.25 65.464844 C 55.4375 64.902344 53.4375 65.964844 52.875 67.777344 C 52.3125 69.652344 53.375 71.589844 55.25 72.152344 C 79.625 76.777344 104.4375 74.527344 129 73.902344 C 130.9375 73.902344 132.5 72.339844 132.5 70.402344 C 132.5 68.464844 130.9375 66.902344 129 66.902344 "/>
<path style=" stroke:none;fill-rule:nonzero;fill:rgb(0%,0%,0%);fill-opacity:1;" d="M 112.996094 90.683594 C 93.601563 79.757813 73.316406 87.398438 61.558594 106.996094 C 52.308594 122.371094 60.183594 143.621094 77.246094 148.308594 C 95.996094 153.496094 119.933594 148.746094 129.246094 130.371094 C 136.808594 115.496094 126.933594 98.558594 112.996094 90.683594 Z M 104.90625 143.066406 C 93.339844 146.652344 79.953125 145.453125 70.785156 137.929688 C 63.347656 131.804688 60.785156 120.054688 65.535156 111.429688 C 73.046875 97.832031 90.125 85.199219 108.785156 94.929688 C 130.703125 106.199219 135.265625 133.65625 104.90625 143.066406 "/>
<path style=" stroke:none;fill-rule:nonzero;fill:rgb(0%,0%,0%);fill-opacity:1;" d="M 105.3125 123.507813 C 102.125 121.507813 98.375 120.691406 94.9375 119.316406 L 92.578125 118.230469 C 94.613281 114.578125 96.488281 110.824219 98.25 107.066406 C 99.0625 105.257813 98.25 103.191406 96.5 102.441406 C 94.6875 101.632813 92.625 102.441406 91.875 104.191406 C 89.625 108.507813 87.5625 112.882813 85.25 117.132813 L 84.75 119.882813 C 84.75 121.066406 85.3125 122.257813 86.3125 122.941406 L 87.875 123.941406 C 92.375 126.257813 97.375 127.191406 101.875 129.566406 C 103.5 130.507813 105.6875 129.941406 106.625 128.257813 C 107.5625 126.566406 107 124.441406 105.3125 123.507813 "/>
<path style=" stroke:none;fill-rule:nonzero;fill:rgb(0%,0%,0%);fill-opacity:1;" d="M 71.460938 116.816406 C 69.523438 116.816406 67.960938 118.382813 67.960938 120.316406 C 67.960938 122.257813 69.523438 123.816406 71.460938 123.816406 C 73.398438 123.816406 74.960938 122.257813 74.960938 120.316406 C 74.960938 118.382813 73.398438 116.816406 71.460938 116.816406 "/>
<path style=" stroke:none;fill-rule:nonzero;fill:rgb(0%,0%,0%);fill-opacity:1;" d="M 79.648438 131.066406 C 77.710938 131.066406 76.148438 132.632813 76.148438 134.566406 C 76.148438 136.507813 77.710938 138.066406 79.648438 138.066406 C 81.585938 138.066406 83.148438 136.507813 83.148438 134.566406 C 83.148438 132.632813 81.585938 131.066406 79.648438 131.066406 "/>
<path style=" stroke:none;fill-rule:nonzero;fill:rgb(0%,0%,0%);fill-opacity:1;" d="M 98.890625 133.261719 C 96.953125 133.261719 95.390625 134.824219 95.390625 136.761719 C 95.390625 138.699219 96.953125 140.261719 98.890625 140.261719 C 100.828125 140.261719 102.390625 138.699219 102.390625 136.761719 C 102.390625 134.824219 100.828125 133.261719 98.890625 133.261719 "/>
<path style=" stroke:none;fill-rule:nonzero;fill:rgb(0%,0%,0%);fill-opacity:1;" d="M 113.558594 121.597656 C 113.558594 123.53125 115.121094 125.097656 117.058594 125.097656 C 118.996094 125.097656 120.558594 123.53125 120.558594 121.597656 C 120.558594 119.65625 118.996094 118.097656 117.058594 118.097656 C 115.121094 118.097656 113.558594 119.65625 113.558594 121.597656 "/>
<path style=" stroke:none;fill-rule:nonzero;fill:rgb(0%,0%,0%);fill-opacity:1;" d="M 109.058594 101.429688 C 107.121094 101.429688 105.558594 102.992188 105.558594 104.929688 C 105.558594 106.867188 107.121094 108.429688 109.058594 108.429688 C 110.996094 108.429688 112.558594 106.867188 112.558594 104.929688 C 112.558594 102.992188 110.996094 101.429688 109.058594 101.429688 "/>
<path style=" stroke:none;fill-rule:nonzero;fill:rgb(0%,0%,0%);fill-opacity:1;" d="M 133.519531 204.199219 C 135.460938 204.199219 136.960938 202.574219 136.960938 200.636719 C 136.894531 198.699219 135.269531 197.199219 133.335938 197.199219 C 105.460938 198.386719 77.585938 195.199219 49.710938 196.199219 C 47.773438 196.199219 46.210938 197.761719 46.210938 199.699219 C 46.210938 201.636719 47.773438 203.199219 49.710938 203.199219 C 77.710938 202.199219 105.585938 205.386719 133.519531 204.199219 "/>
<path style=" stroke:none;fill-rule:nonzero;fill:rgb(0%,0%,0%);fill-opacity:1;" d="M 126.980469 532.992188 C 128.917969 532.992188 130.480469 531.429688 130.480469 529.492188 C 130.667969 482.054688 134.730469 434.804688 138.480469 387.554688 C 138.417969 329.554688 141.355469 271.242188 134.417969 213.492188 C 134.042969 211.617188 132.167969 210.367188 130.292969 210.742188 C 128.417969 211.117188 127.167969 212.992188 127.542969 214.867188 C 134.292969 272.179688 131.417969 329.992188 131.480469 387.554688 C 127.667969 434.804688 123.667969 482.054688 123.480469 529.492188 C 123.480469 531.429688 125.042969 532.992188 126.980469 532.992188 "/>
<path style=" stroke:none;fill-rule:nonzero;fill:rgb(0%,0%,0%);fill-opacity:1;" d="M 50.480469 520.554688 C 50.480469 522.492188 52.042969 524.054688 53.980469 524.054688 C 55.917969 523.992188 57.480469 522.429688 57.480469 520.492188 C 57.105469 514.054688 51.878906 488.296875 51.351563 481.421875 C 49.730469 460.300781 48.453125 439.347656 47.605469 418.179688 C 46.980469 402.242188 48.105469 386.429688 49.105469 370.492188 C 52.417969 318.242188 54.480469 266.179688 49.480469 214.179688 C 49.480469 212.242188 47.917969 210.679688 45.980469 210.679688 C 44.042969 210.679688 42.480469 212.242188 42.480469 214.179688 C 47.417969 266.054688 45.480469 317.867188 42.167969 369.992188 C 41.105469 386.117188 40.042969 402.054688 40.605469 418.179688 C 41.257813 437.332031 42.640625 456.367188 43.964844 475.445313 C 44.542969 483.761719 49.480469 513.679688 50.480469 520.554688 "/>
<path style=" stroke:none;fill-rule:nonzero;fill:rgb(0%,0%,0%);fill-opacity:1;" d="M 60.023438 535.699219 C 78.171875 541.65625 97.0625 538.261719 115.570313 537.789063 C 117.488281 538.164063 119.320313 536.96875 119.695313 535.054688 C 120.136719 533.140625 118.878906 531.304688 117.023438 530.929688 C 98.695313 530.539063 79.917969 535.128906 62.097656 528.945313 C 60.195313 528.382813 58.242188 529.445313 57.683594 531.285156 C 57.121094 533.191406 58.183594 535.140625 60.023438 535.699219 "/>
<path style=" stroke:none;fill-rule:nonzero;fill:rgb(0%,0%,0%);fill-opacity:1;" d="M 124.910156 337.804688 C 125.972656 336.117188 125.472656 333.992188 123.785156 332.929688 C 122.324219 332.027344 120.453125 332.34375 119.320313 333.605469 C 119.195313 333.742188 118.488281 333.609375 118.472656 333.054688 C 118.472656 333.054688 118.820313 331.386719 118.828125 329.742188 C 118.839844 325.070313 115.703125 325.453125 114.242188 325.421875 C 114.402344 324.566406 114.578125 323.714844 114.785156 322.867188 C 115.097656 320.992188 113.847656 319.179688 111.910156 318.867188 C 110.035156 318.554688 108.222656 319.804688 107.910156 321.742188 C 106.597656 327.804688 106.035156 334.054688 105.035156 340.179688 L 104.910156 341.304688 C 104.847656 342.054688 105.035156 342.804688 105.410156 343.429688 C 106.347656 345.117188 108.472656 345.679688 110.160156 344.742188 L 112.039063 343.652344 C 112.328125 344.503906 112.945313 345.21875 113.785156 345.617188 L 114.847656 346.179688 C 118.8125 347.878906 122.46875 341.0625 124.910156 337.804688 "/>
<path style=" stroke:none;fill-rule:nonzero;fill:rgb(0%,0%,0%);fill-opacity:1;" d="M 94.917969 560.867188 C 106.792969 562.117188 120.355469 560.804688 130.042969 553.117188 C 131.605469 551.929688 131.917969 549.742188 130.792969 548.179688 C 129.667969 546.617188 127.480469 546.304688 125.917969 547.429688 C 117.355469 554.054688 105.542969 555.054688 95.042969 553.804688 C 79.667969 545.742188 60.980469 546.304688 45.542969 553.992188 C 43.792969 554.742188 42.980469 556.867188 43.792969 558.617188 C 44.542969 560.367188 46.667969 561.179688 48.417969 560.367188 C 63.167969 552.742188 80.230469 553.804688 94.917969 560.867188 "/>
<path style=" stroke:none;fill-rule:nonzero;fill:rgb(0%,0%,0%);fill-opacity:1;" d="M 161.152344 43.910156 C 162.074219 45.265625 163.941406 45.628906 165.328125 44.707031 C 166.683594 43.753906 167.050781 41.886719 166.097656 40.53125 C 158.621094 29.558594 144.210938 35.414063 134.523438 39.59375 C 123.976563 41.847656 114.121094 36.925781 104.703125 31.949219 C 100.765625 29.886719 96.117188 29.023438 91.914063 30.542969 C 79.894531 34.980469 68.457031 44.703125 55.152344 40.195313 C 50.652344 38.664063 47.199219 35.199219 42.765625 33.726563 C 33.132813 30.515625 20.90625 35.148438 17.570313 45.355469 C 16.84375 46.867188 17.507813 48.644531 18.984375 49.34375 C 20.496094 50.070313 22.273438 49.40625 22.972656 47.929688 C 25.269531 40.351563 34.234375 37.308594 41.300781 39.351563 C 46.308594 42.667969 51.3125 45.953125 57.539063 46.976563 C 71.0625 49.25 81.816406 41.285156 93.402344 36.375 C 96.398438 35.109375 99.859375 36.011719 102.703125 37.570313 C 110.101563 41.660156 117.011719 44.871094 125.5 46.046875 C 133.765625 47.210938 140.410156 43.515625 147.847656 41.0625 C 152.363281 39.585938 158.355469 39.277344 161.152344 43.910156 "/>
<path style=" stroke:none;fill-rule:nonzero;fill:rgb(0%,0%,0%);fill-opacity:1;" d="M 100.097656 20.429688 C 108.972656 22.648438 117.191406 20.148438 126.035156 18.242188 C 138.566406 15.554688 150.878906 17.023438 162.285156 22.273438 C 165.660156 23.804688 168.566406 25.835938 171.097656 28.648438 C 175.097656 33.085938 178.160156 38.523438 177.941406 44.523438 C 177.941406 44.679688 177.222656 48.273438 178.691406 49.023438 C 180.160156 49.773438 181.972656 49.210938 182.722656 47.742188 C 185.316406 43.742188 183.535156 38.742188 181.972656 34.742188 C 178.253906 25.242188 170.160156 18.304688 160.503906 15.023438 C 153.910156 12.773438 147.285156 11.492188 140.378906 11.117188 C 130.910156 10.617188 122.160156 13.179688 112.691406 14.835938 C 109.003906 15.492188 105.378906 15.554688 101.722656 14.742188 C 99.285156 10.773438 104.441406 8.023438 107.191406 6.179688 C 108.566406 5.273438 108.941406 3.398438 108.035156 2.023438 C 107.128906 0.648438 105.253906 0.273438 103.878906 1.179688 C 100.847656 2.992188 98.035156 5.148438 96.160156 8.304688 C 93.597656 12.648438 94.878906 19.148438 100.097656 20.429688 "/>
<path style=" stroke:none;fill-rule:nonzero;fill:rgb(0%,0%,0%);fill-opacity:1;" d="M 7.613281 50.960938 C 9.082031 50.210938 8.363281 46.617188 8.363281 46.460938 C 8.144531 40.460938 11.207031 35.023438 15.207031 30.585938 C 17.738281 27.773438 20.644531 25.742188 24.019531 24.210938 C 35.425781 18.960938 47.738281 17.492188 60.269531 20.179688 C 69.113281 22.085938 77.332031 24.585938 86.207031 22.367188 C 91.425781 21.085938 92.707031 14.585938 90.144531 10.242188 C 88.269531 7.085938 85.457031 4.929688 82.425781 3.117188 C 81.050781 2.210938 79.175781 2.585938 78.269531 3.960938 C 77.363281 5.335938 77.738281 7.210938 79.113281 8.117188 C 81.863281 9.960938 87.019531 12.710938 84.582031 16.679688 C 80.925781 17.492188 77.300781 17.429688 73.613281 16.773438 C 64.144531 15.117188 55.394531 12.554688 45.925781 13.054688 C 39.019531 13.429688 32.394531 14.710938 25.800781 16.960938 C 16.144531 20.242188 8.050781 27.179688 4.332031 36.679688 C 2.769531 40.679688 0.988281 45.679688 3.582031 49.679688 C 4.332031 51.148438 6.144531 51.710938 7.613281 50.960938 "/>
<path style=" stroke:none;fill-rule:nonzero;fill:rgb(0%,0%,0%);fill-opacity:1;" d="M 94.035156 100.179688 C 95.972656 100.179688 97.535156 98.617188 97.535156 96.679688 C 97.535156 94.742188 95.972656 93.179688 94.035156 93.179688 C 92.097656 93.179688 90.535156 94.742188 90.535156 96.679688 C 90.535156 98.617188 92.097656 100.179688 94.035156 100.179688 "/>
<path style=" stroke:none;fill-rule:nonzero;fill:rgb(0%,0%,0%);fill-opacity:1;" d="M 79.035156 111.179688 C 80.972656 111.179688 82.535156 109.617188 82.535156 107.679688 C 82.535156 105.742188 80.972656 104.179688 79.035156 104.179688 C 77.097656 104.179688 75.535156 105.742188 75.535156 107.679688 C 75.535156 109.617188 77.097656 111.179688 79.035156 111.179688 "/>
</g>
</svg>
