<?xml version="1.0" encoding="UTF-8"?>
<svg xmlns="http://www.w3.org/2000/svg" xmlns:xlink="http://www.w3.org/1999/xlink" width="472pt" height="346pt" viewBox="0 0 472 346" version="1.1">
<g id="surface1">
<path style=" stroke:none;fill-rule:nonzero;fill:rgb(0%,0%,0%);fill-opacity:1;" d="M 152.402344 323.398438 C 150.191406 323.140625 149.476563 320.734375 147.917969 319.175781 C 147.277344 318.054688 148.480469 318.386719 148.957031 318.914063 C 150.519531 320.214844 151.558594 321.644531 152.402344 323.398438 Z M 166.898438 316.707031 C 166.371094 316.117188 165.144531 316.25 164.558594 316.574219 C 165.46875 311.765625 161.113281 315.730469 160.070313 317.355469 C 159.941406 316.25 158.96875 315.40625 157.863281 315.273438 C 156.328125 315.289063 155.914063 317.679688 155.066406 318.71875 C 154.222656 318.003906 153.769531 316.378906 152.402344 317.03125 C 152.074219 317.488281 152.597656 317.875 153.054688 317.941406 C 154.222656 319.238281 153.507813 322.097656 155.71875 322.164063 C 156.433594 320.472656 156.964844 317.109375 157.863281 317.03125 C 158.058594 317.03125 158.253906 316.964844 158.316406 317.160156 C 158.707031 318.914063 156.757813 321.515625 158.839844 322.035156 C 159.8125 320.667969 160.789063 318.847656 162.089844 317.613281 C 162.21875 318.460938 161.171875 320.160156 161.632813 320.28125 C 163.84375 320.734375 165.476563 317.015625 166.898438 316.707031 Z M 133.097656 231.359375 C 131.214844 230.253906 130.042969 232.660156 128.417969 233.113281 C 128.417969 233.113281 128.4375 231.703125 128.222656 231.554688 C 126.960938 230.625 125.945313 231.878906 125.296875 232.789063 C 124.84375 232.335938 125.453125 231.078125 125.296875 230.90625 C 123.089844 228.371094 122.046875 232.921875 120.746094 234.023438 C 119.773438 232.921875 119.703125 230.96875 117.820313 231.035156 C 116.265625 231.09375 117.125 231.5625 117.820313 231.683594 C 119.082031 231.914063 118.796875 236.105469 120.746094 237.144531 C 121.34375 237.3125 121.40625 234.265625 123.089844 233.246094 C 123.476563 233.894531 122.5625 235.234375 122.957031 235.714844 C 124.453125 237.925781 124.90625 234.414063 126.078125 234.15625 C 126.207031 234.480469 125.816406 235 125.753906 235.453125 C 125.65625 236.515625 126.3125 236.53125 126.664063 236.496094 C 127.011719 236.460938 130.125 233.578125 130.757813 233.113281 C 131.390625 232.652344 133.84375 231.734375 133.097656 231.359375 Z M 114.832031 232.59375 C 114.28125 231.859375 112.9375 231.796875 113.402344 232.59375 L 116.523438 237.015625 C 117.203125 237.859375 118.734375 237.953125 118.277344 237.273438 Z M 129.328125 236.234375 C 128.90625 236.328125 128.828125 236.59375 129.78125 236.691406 C 131.234375 237.019531 132.382813 235.78125 133.554688 235.128906 C 132.058594 233.828125 130.984375 236 129.328125 236.234375 Z M 246.457031 276.925781 C 246.457031 276.925781 246.9375 276.546875 246.003906 276.273438 C 244.203125 275.664063 242.882813 277.964844 241.320313 278.808594 C 241.191406 277.964844 241.777344 276.398438 240.542969 275.820313 C 239.046875 275.363281 238.398438 277.25 237.617188 278.03125 C 237.617188 278.03125 236.878906 276.210938 236.316406 276.015625 C 234.421875 275.273438 234.367188 277.769531 233.394531 278.613281 C 232.9375 277.964844 232.863281 276.621094 232.289063 276.46875 C 230.207031 276.273438 232.351563 278.03125 231.636719 279.136719 C 231.453125 279.363281 231.964844 283.945313 234.304688 283.292969 C 234.683594 283.171875 232.730469 280.28125 235.539063 278.484375 C 235.992188 279.785156 235.472656 281.085938 235.40625 282.386719 C 235.394531 283.171875 236.730469 283.492188 236.96875 283.035156 C 237.683594 281.667969 237.746094 279.589844 239.179688 278.941406 L 238.851563 281.929688 C 238.792969 282.59375 239.730469 282.855469 240.21875 282.515625 C 242.230469 280.761719 244.117188 278.160156 246.457031 276.925781 Z M 165.664063 320.28125 C 164.882813 320.632813 166.183594 321.53125 166.898438 320.929688 C 167.808594 320.34375 169.421875 318.527344 169.105469 318.265625 C 167.546875 316.835938 166.964844 319.695313 165.664063 320.28125 Z M 313.40625 339.195313 C 314.382813 341.40625 315.554688 344.332031 317.957031 345.695313 C 317.957031 345.695313 319.308594 346.480469 317.957031 344.914063 C 316.605469 343.351563 316.070313 339.910156 313.40625 339.195313 Z M 332.128906 339.324219 C 332.382813 339.425781 333.339844 339.203125 332.90625 338.089844 C 331.621094 335.597656 329.820313 339.246094 328.097656 339.324219 C 328.097656 339.324219 328.3125 338.636719 328.097656 338.414063 C 326.113281 336.511719 326.082031 339.585938 324.457031 340.105469 C 324.195313 339.457031 324.203125 338.636719 324.195313 337.894531 C 324.183594 336.972656 323.023438 336.691406 322.769531 337.308594 C 321.855469 338.675781 321.402344 340.300781 320.429688 341.535156 C 319.648438 340.558594 319.894531 339.316406 318.867188 338.414063 C 317.800781 337.476563 316.753906 337.171875 317.4375 338.21875 C 318.933594 340.167969 319.046875 344.796875 320.429688 344.65625 C 322.636719 344.394531 321.207031 341.46875 322.769531 340.105469 C 323.742188 341.144531 322.054688 342.835938 323.871094 343.355469 C 324.335938 343.421875 325.304688 341.144531 326.34375 340.558594 C 326.667969 341.273438 325.820313 341.792969 325.886719 342.574219 C 325.929688 343.269531 326.695313 343.792969 326.992188 343.226563 C 328.03125 341.210938 331.460938 338.789063 331.996094 338.871094 C 332.191406 338.933594 331.875 339.226563 332.128906 339.324219 Z M 247.886719 279.265625 C 246.003906 279.914063 244.378906 281.019531 242.558594 281.929688 C 241.628906 282.460938 243.242188 283.359375 243.988281 282.839844 C 245.289063 281.667969 247.222656 281.503906 248.214844 280.042969 C 249.203125 278.585938 247.886719 279.265625 247.886719 279.265625 Z M 65.824219 276.144531 L 61.46875 279.394531 C 60.589844 280.230469 62.15625 281.035156 62.898438 280.371094 C 64.328125 279.199219 66.148438 278.355469 67.121094 276.792969 C 67.558594 275.964844 66.523438 275.652344 65.824219 276.144531 Z M 230.726563 281.605469 C 230.65625 281.292969 228.386719 277.054688 228.386719 277.054688 C 227.964844 276.417969 227.175781 276.734375 227.28125 277.378906 C 227.28125 277.378906 229.691406 282.347656 230.078125 283.164063 C 230.464844 283.980469 231.660156 283.71875 231.378906 283.164063 C 231.09375 282.613281 230.796875 281.914063 230.726563 281.605469 Z M 35.402344 48.058594 C 34.332031 47 34.5 44.414063 35.25 43.25 C 36.761719 40.902344 42.167969 36.414063 45.167969 39.5 C 46.167969 36.085938 52.691406 34.410156 56.007813 35.90625 C 57.417969 33.414063 63.167969 31.914063 64.261719 34.34375 C 65.25 31.164063 73.082031 31 74.167969 35.414063 C 77.25 32.664063 79.335938 32.027344 82.527344 31.550781 C 85.082031 31.164063 87.597656 31.421875 89.222656 33.109375 C 92.34375 30.316406 97.445313 27.691406 101.414063 30.585938 C 102.929688 31.683594 103.25 33.085938 104.042969 34.539063 C 109.632813 33.304688 117.171875 32.785156 120.617188 38.441406 C 121.136719 40.128906 121.007813 41.753906 120.164063 43.25 C 119.511719 44.09375 118.601563 44.226563 117.628906 44.355469 C 116.328125 48.515625 111.703125 50.011719 107.683594 50.398438 C 104.914063 50.664063 102.742188 49.816406 100.921875 48.386719 C 98.777344 51.894531 94.878906 53.128906 90.976563 53.390625 C 87.988281 53.648438 85.453125 51.960938 83.175781 50.269531 C 82.007813 53.128906 79.019531 54.234375 76.289063 54.820313 C 73.101563 55.144531 70.632813 53.84375 68.488281 51.699219 C 64.082031 53.664063 52.917969 56.664063 52.300781 51.050781 C 49.832031 51.914063 40.539063 55.40625 34.949219 52.609375 C 33.582031 51.835938 33 49.335938 35.402344 48.058594 Z M 36.507813 52.15625 C 42.164063 53.390625 47.6875 51.570313 52.300781 48.839844 C 54.832031 47.414063 53.277344 51.699219 55.226563 52.285156 C 59.519531 53.261719 64.523438 52.15625 68.164063 49.621094 C 70 48.25 70.082031 51.75 72.0625 52.738281 C 75.429688 54.425781 78.691406 52.933594 81.164063 50.398438 C 81.878906 49.554688 81.488281 47.863281 82.722656 47.476563 C 83.832031 47.414063 85.25 50.835938 88.183594 51.699219 C 92.023438 52.835938 96.503906 51.113281 99.101563 48.058594 C 100.207031 46.890625 98.128906 45.851563 99.230469 44.679688 C 100.585938 43.75 100.988281 46.238281 101.703125 47.148438 C 102.9375 48.386719 104.496094 48.773438 106.121094 49.035156 C 109.695313 48.90625 113.207031 48.125 115.480469 45.136719 C 116.25 44.085938 116.066406 42.859375 114.964844 42.339844 C 113.914063 41.75 114.570313 40.195313 115.742188 40.585938 C 116.652344 40.976563 116.78125 41.949219 117.304688 42.601563 C 118.019531 43.183594 118.601563 42.339844 118.863281 41.820313 C 119.316406 40.84375 119.5 39.335938 118.730469 38.246094 C 115.277344 33.347656 107.421875 34.929688 102.480469 36.359375 C 100.914063 37 102.585938 32.664063 100.339844 31.550781 C 97.082031 30.164063 92.863281 30.964844 90.78125 34.214844 C 90.132813 34.929688 90.847656 36.359375 89.742188 36.683594 C 87.53125 37.140625 89.027344 34.34375 87.664063 33.566406 C 84.917969 32.164063 83.566406 32.59375 82.167969 33 C 79.582031 33.75 79.003906 36.222656 76.742188 35.449219 C 75.832031 35.164063 74.832031 36.335938 75.050781 36.878906 C 75.273438 37.425781 77.332031 36.75 77.261719 37.660156 C 77.191406 38.570313 75.441406 38.179688 74.402344 38.113281 C 71.476563 37.53125 74.082031 34.835938 70.667969 33.75 C 69.082031 33.164063 67.265625 32.941406 66.148438 34.539063 C 65.417969 35.585938 66.730469 36.359375 65.691406 37.011719 C 64 37.835938 64.066406 35.253906 62.574219 34.800781 C 60.949219 34.476563 59.125 34.601563 58.023438 35.90625 C 57.167969 36.914063 58.996094 37.789063 57.761719 38.570313 C 56.59375 39.21875 56.332031 37.414063 55.550781 37.011719 C 52.433594 35.839844 49.3125 37.53125 46.84375 39.21875 C 46.257813 39.804688 45.75 40.25 46.667969 40.914063 C 48.085938 41.949219 47 42.75 46.324219 42.144531 C 45.933594 41.796875 45.089844 40.976563 44.175781 40.453125 C 41.832031 39.335938 39.171875 40.78125 37.480469 42.796875 C 36.703125 44.03125 35.53125 45.65625 36.703125 47.148438 C 37.742188 46.566406 39.082031 47.335938 39.300781 48.058594 C 39.886719 51.308594 36.507813 47.671875 35.597656 49.945313 C 35.402344 50.921875 35.667969 51.914063 36.507813 52.15625 Z M 65.824219 274.910156 C 63.613281 272.894531 62.050781 276.535156 60.230469 276.925781 C 60.167969 276.210938 60.589844 275.632813 59.652344 274.769531 C 58.222656 273.46875 57.4375 275.820313 56.332031 276.273438 C 55.992188 275.730469 56.460938 275.300781 55.878906 274.910156 C 53.601563 273.285156 53.277344 277.054688 51.976563 277.835938 C 51.457031 276.859375 49.824219 275.085938 49.183594 276.144531 C 49.042969 276.433594 51.3125 280.605469 51.652344 280.824219 C 53.859375 281.992188 53.082031 278.875 54.121094 278.03125 C 54.5625 279.195313 53.78125 279.839844 54.121094 280.175781 C 56.148438 282.484375 56.269531 278.03125 57.894531 277.378906 C 58.152344 278.289063 57.632813 279.199219 57.242188 280.042969 C 56.929688 280.898438 58.496094 281.035156 58.800781 280.695313 C 61.648438 277.121094 66.070313 275.203125 65.824219 274.910156 Z M 332.777344 340.105469 C 331.414063 341.210938 329.269531 341.40625 328.683594 343.355469 C 328.574219 344.097656 329.230469 344.1875 329.464844 343.875 C 330.566406 342.183594 332.90625 342.183594 333.363281 340.234375 C 333.449219 339.835938 333.03125 339.902344 332.777344 340.105469 Z M 379.058594 121.121094 C 378.8125 119.25 379.773438 118.78125 380.8125 118.261719 C 382.625 117.6875 384.453125 116.828125 386.597656 117.480469 C 388.09375 114.101563 391.929688 113.710938 395.308594 113.578125 C 396.023438 113.839844 397.035156 113.921875 397.6875 114.375 C 397.75 113.1875 397.6875 111.8125 399.078125 111.566406 C 401.3125 111.1875 404.238281 111.085938 406.125 112.125 C 407.0625 110.5625 408.1875 110 410.375 111.3125 C 410.980469 109.945313 414.4375 108.5625 416.4375 111.25 C 418.296875 110.164063 423.125 110 425.125 113.0625 C 426.875 110.3125 434.6875 111.0625 435.625 115.25 C 437 115 439.964844 114.296875 442.886719 114.878906 C 444.773438 114.945313 446.398438 116.570313 447.4375 118.128906 C 447.957031 119.558594 447.894531 121.054688 447.113281 122.355469 C 443.082031 125.539063 435.3125 130.6875 430.5 126.125 C 427.625 129 420.9375 128 419.125 126.375 C 416.4375 128.0625 411.320313 129.671875 407.875 126.875 C 405.375 127.875 399.078125 130.546875 396.21875 126.578125 C 392.253906 127.488281 383.8125 129.375 382.625 124.0625 C 380.5625 123.625 379.445313 123.851563 379.058594 121.121094 Z M 380.488281 121.25 C 380.5 122.375 381.917969 123.136719 383.152344 122.808594 C 384.3125 122.375 383.1875 123.75 384.3125 125.125 C 387.375 127.8125 394.625 126.1875 395 125.625 C 395.5625 124.25 396.21875 124.109375 396.996094 125.148438 C 399.75 129.625 406.6875 126.25 407 125.625 C 408.503906 122.996094 409.023438 127.164063 410.582031 127.164063 C 413.75 127.125 416.4375 127.375 418.839844 124.5 C 420.1875 123.5625 419.8125 125.3125 420.722656 125.929688 C 423.84375 127.296875 428.003906 126.644531 430.539063 124.371094 C 431.5 123.625 431.1875 125.4375 432.097656 125.929688 C 435.8125 127.375 438.664063 126.058594 441.195313 124.371094 C 443.019531 122.875 446.851563 122.03125 446.332031 118.78125 C 445.1875 114.9375 437.1875 116.3125 435.996094 116.441406 C 435.1875 116.5 434.976563 117.433594 434.375 117.375 C 433.75 117.3125 433.0625 116.375 433.65625 115.921875 C 434.308594 115.398438 434.375 114.6875 433.980469 114.359375 C 432 112.375 428.847656 112.34375 426.378906 113.125 C 425.625 113.5 425.597656 114.816406 424.816406 114.878906 C 424.0625 114.75 424.0625 113.125 423.519531 112.800781 C 421.828125 111.953125 418.25 111.375 417.601563 112.019531 C 415.457031 114.554688 415.25 109.625 412.5625 111 C 411.875 111.4375 411.621094 111.953125 411.6875 112.800781 C 411.875 113.875 410.5625 113.375 410.128906 112.671875 C 409.8125 114.1875 408.5 114 407.789063 112.800781 C 407.3125 114.0625 406.0625 114.6875 405.773438 113.90625 C 405.121094 111.566406 400.9375 112.4375 400.117188 112.671875 C 398 113.375 399.4375 115.6875 398.882813 116.246094 C 397.90625 116.894531 397.875 115.5625 396.996094 115.140625 C 394.136719 114.035156 390.886719 115.011719 388.613281 116.699219 C 388.0625 117.1875 387.636719 118.390625 388.613281 118.910156 C 389.4375 119.1875 388.742188 120.015625 388.15625 120.339844 C 387.125 120.8125 387.117188 118.910156 386.273438 118.585938 C 384.90625 118.066406 383.75 118.6875 382.503906 119.039063 C 381.484375 119.328125 380.472656 120.078125 380.488281 121.25 Z M 382.957031 14.714844 C 382.242188 13.871094 381.617188 12.652344 382.179688 11.59375 C 383.847656 8.441406 386.175781 8.628906 388.742188 8.605469 C 389.503906 8.597656 390.515625 8.65625 391.320313 9.179688 C 391.320313 8.320313 391.441406 7.710938 391.863281 7.371094 C 394.382813 5.992188 397.191406 5.03125 400.117188 5.160156 C 401.546875 2.039063 405.121094 0.933594 408.4375 0.804688 C 410.777344 0.609375 412.597656 2.234375 414.027344 3.796875 C 415.195313 2.105469 416.21875 -0.234375 419.125 -0.132813 C 420.105469 -0.0703125 420.917969 0.351563 421.503906 1.261719 C 423.90625 -0.234375 428.71875 -1.46875 429.953125 2.363281 C 433.269531 0.675781 438.824219 -1 441.652344 1.453125 C 443.5 3.238281 444.445313 4.703125 444.445313 4.703125 C 447.296875 3.851563 451.144531 3.730469 453.480469 5.679688 C 454.589844 6.71875 455.238281 8.148438 454.71875 9.710938 C 453.15625 14 448.460938 15.609375 444.445313 16.078125 C 442.757813 16.273438 441.296875 15.609375 440.5 13.648438 C 437.867188 16.957031 431.804688 18.304688 428.3125 15.179688 C 426.351563 17.8125 418.839844 18.03125 416.820313 16.078125 C 412.203125 21.796875 403.507813 19.835938 402.195313 17.183594 C 396.996094 18.421875 391.019531 20.804688 386.726563 15.671875 C 385.011719 16.957031 383.910156 15.730469 382.957031 14.714844 Z M 383.933594 13.609375 C 384.453125 14.261719 385.503906 15.117188 385.945313 14.519531 C 388.15625 12.765625 387.585938 16.160156 389.730469 16.710938 C 396.710938 18.363281 397.753906 17.078125 402.78125 15.039063 C 403.9375 14.382813 401.980469 18.429688 410.0625 18.242188 C 415.328125 18.121094 414.960938 14.691406 416.238281 13.609375 C 417.902344 12.484375 417.410156 15.546875 419.125 15.914063 C 428.558594 16.835938 426.414063 13.589844 427.9375 12.375 C 429.660156 11.136719 429.105469 14.714844 430.40625 15.300781 C 435.355469 16.464844 437.191406 14.628906 440.222656 11.921875 C 441.96875 10.402344 441.355469 14.566406 442.886719 14.390625 C 446.402344 13.980469 450.363281 13.351563 452.703125 10.035156 C 453.300781 9.054688 453.679688 7.628906 452.703125 6.71875 C 450.039063 5.160156 446.527344 5.808594 443.667969 6.589844 C 442.214844 6.910156 442.105469 3.273438 440.222656 2.234375 C 437.101563 0.675781 434.0625 2.210938 431.316406 3.46875 C 430.089844 4.035156 429.355469 5.933594 428.523438 5.679688 C 427.027344 4.835938 428.128906 4.15625 428.066406 2.820313 C 427.808594 -0.300781 423.046875 1.769531 422.738281 2.558594 C 422.28125 3.601563 422.128906 5.503906 421.046875 5.484375 C 420.289063 5.320313 419.492188 5.320313 420.269531 3.601563 C 420.527344 2.820313 420.527344 1.519531 419.355469 1.585938 C 416.757813 1.714844 415.652344 4.574219 414.9375 6.265625 C 413.859375 7.828125 413.429688 4.585938 412.144531 3.46875 C 409.035156 0.777344 405.121094 2.820313 402.195313 4.574219 C 401.058594 5.195313 402.835938 6.175781 403.816406 7.15625 C 404.304688 7.710938 403.140625 8.933594 402.328125 8.019531 C 399.597656 4.964844 395.695313 7.566406 392.96875 8.800781 C 392.058594 9.773438 393.402344 10.34375 393.097656 11.140625 C 391.863281 13.15625 391.441406 10.34375 390.304688 10.164063 C 388.546875 9.96875 386.628906 10.386719 385.039063 10.945313 C 383.789063 11.382813 383.347656 12.570313 383.933594 13.609375 Z M 16.683594 220.441406 C 15.289063 221.183594 16.257813 221.875 17.464844 221.414063 C 18.667969 220.957031 19.222656 222.589844 20.453125 222.648438 C 21.101563 222.683594 20.78125 222.191406 20.582031 222 C 19.726563 221.167969 18.078125 219.695313 16.683594 220.441406 Z M 50.546875 282.710938 C 50.824219 282.757813 51.136719 282.679688 50.546875 282.253906 C 49.390625 281.300781 47.585938 277.394531 45.867188 276.925781 C 45.148438 276.726563 45.738281 277.378906 45.738281 277.378906 C 46.84375 279.394531 47.671875 281.5625 50.546875 282.710938 Z M 52.433594 332.304688 C 51.882813 332.652344 51.003906 332.824219 50.871094 333.410156 C 50.765625 333.980469 52.113281 334.429688 52.433594 333.863281 C 53.082031 332.824219 55.875 331.300781 55.097656 330.613281 C 54.058594 329.769531 53.347656 331.730469 52.433594 332.304688 Z M 35.921875 216.085938 C 34.882813 215.003906 33.714844 217.386719 33.0625 218.296875 C 32.519531 219.039063 33.644531 219.996094 34.167969 218.878906 C 34.691406 217.765625 36.5 216.839844 35.921875 216.085938 Z M 53.082031 328.082031 C 51.78125 327.167969 50.9375 329.121094 49.964844 329.640625 C 49.183594 329.054688 50.09375 328.273438 49.769531 327.496094 C 49.453125 326.601563 49.257813 326.289063 48.53125 326.84375 L 45.414063 330.289063 C 45.347656 330.160156 45.21875 330.09375 45.28125 329.964844 C 44.957031 328.730469 45.988281 326.425781 43.980469 326.519531 C 43.542969 326.601563 41.742188 329.5 41.1875 331.070313 C 40.878906 329.988281 40.40625 329.445313 39.824219 328.730469 C 38.355469 327.128906 37.609375 327.816406 38.523438 328.730469 C 40.082031 330.222656 39.691406 333.214844 41.96875 333.734375 C 42.738281 333.882813 42.210938 331.085938 43.851563 329.640625 C 44.113281 330.355469 43.699219 331.574219 43.980469 331.980469 C 46.191406 334.644531 46.519531 329.964844 48.078125 329.835938 C 48.207031 330.355469 47.816406 330.746094 47.753906 331.199219 C 47.710938 331.808594 48.828125 332.355469 49.441406 331.980469 C 50.742188 330.875 53.898438 328.636719 53.082031 328.082031 Z M 35.921875 330.289063 C 34.929688 329.246094 34.105469 330.164063 34.816406 330.613281 C 36.769531 331.980469 36.574219 334.90625 38.523438 335.554688 C 39.273438 335.566406 39.3125 334.273438 38.261719 333.214844 Z M 34.167969 215.304688 C 34.167969 215.304688 34.28125 215.863281 34.492188 215.761719 C 34.863281 215.546875 34.773438 214.382813 34.492188 214.070313 C 32.523438 211.976563 32.347656 215.695313 31.046875 216.410156 C 30.65625 215.695313 29.8125 215.761719 29.355469 215.761719 C 28.820313 215.789063 27.992188 217.140625 27.148438 218.554688 C 26.867188 217.347656 26.238281 216.34375 25.261719 216.410156 C 24.648438 216.464844 24.289063 218.945313 23.703125 220.113281 C 23.050781 219.074219 21.945313 216.539063 21.230469 217.515625 C 20.453125 218.683594 22.664063 219.398438 22.339844 220.765625 C 22.226563 221.179688 23.117188 223.625 24.675781 222.78125 C 25.082031 222.492188 24.9375 219.726563 26.042969 219.074219 C 26.753906 219.714844 25.984375 220.597656 26.238281 220.894531 C 28.160156 223.246094 27.796875 219.335938 29.164063 218.878906 C 29.644531 219.074219 29.308594 219.511719 29.164063 219.984375 C 28.914063 220.804688 29.964844 221.460938 30.464844 220.765625 C 31.566406 219.074219 32.476563 216.671875 34.167969 215.304688 Z M 319.777344 204.710938 C 318.9375 205.484375 321.597656 207.375 321.988281 208.933594 C 322.125 209.546875 323.546875 209.265625 323.417969 208.738281 C 322.832031 207.113281 320.53125 204.015625 319.777344 204.710938 Z M 271.742188 205.488281 C 271.078125 205.484375 270.3125 205.488281 270.054688 204.839844 C 269.9375 204.359375 270.636719 203.929688 270.183594 203.476563 C 268.882813 202.371094 267.84375 203.996094 266.738281 204.515625 C 265.4375 200.796875 263.9375 204.28125 262.707031 205.164063 C 261.203125 203.296875 261.105469 203.539063 260.71875 203.640625 C 260.484375 203.703125 260.265625 203.96875 260.691406 204.386719 C 261.636719 205.394531 260.757813 207.308594 261.472656 208.414063 C 262.78125 209.703125 262.839844 206.335938 264.269531 205.816406 C 264.59375 206.335938 263.671875 207.0625 263.941406 207.503906 C 265.632813 209.976563 266.765625 205.625 268.296875 205.488281 C 268.5625 205.46875 269.21875 205.296875 268.621094 205.816406 C 268.027344 206.332031 267.320313 206.921875 267.386719 207.636719 C 267.46875 208.328125 270.640625 206.5 271.742188 205.945313 C 272.84375 205.390625 271.742188 205.488281 271.742188 205.488281 Z M 333.09375 205.3125 C 332.125 203.03125 330.40625 204.453125 329.96875 205.109375 C 329.65625 204.5 329.527344 203.734375 328.355469 203.734375 C 327.109375 203.734375 326.667969 204.449219 325.886719 205.035156 C 325.433594 204.386719 324.589844 203.996094 323.871094 203.734375 C 322.5625 203.296875 324.390625 205.28125 324.171875 206.1875 C 323.796875 206.96875 323.90625 207.34375 324.609375 207.90625 C 325.296875 208.421875 327.5 205.28125 327.316406 206.398438 C 326.625 210.59375 329.789063 206.269531 330.566406 207.636719 C 331.21875 209.109375 336.046875 206.53125 335.570313 205.488281 C 335.078125 204.3125 334.296875 204.484375 333.09375 205.3125 Z M 260.238281 208.414063 C 258.742188 207.503906 259.523438 204.710938 257.117188 204.710938 C 257.183594 206.335938 257.898438 208.414063 259.457031 209.390625 C 260.203125 210 261.046875 208.84375 260.238281 208.414063 Z M 450.363281 192.230469 C 449.878906 192.703125 450.753906 193.464844 451.144531 193.921875 C 451.621094 194.339844 452.3125 195.21875 452.703125 194.113281 C 453.09375 192.921875 451.46875 191.96875 450.363281 192.230469 Z M 470.304688 201.855469 C 467.183594 202.828125 458.757813 201.363281 455.496094 200.808594 C 430.148438 196.519531 405.09375 202.46875 381.136719 207.636719 C 361.664063 211.835938 339 217.167969 318 218.667969 C 284.367188 221.070313 265.664063 220 255.039063 218.425781 L 224.03125 212.835938 C 203.492188 209.066406 183.277344 204.449219 162.089844 202.371094 L 127.964844 200.03125 C 85.519531 198.078125 43.832031 203.164063 2.96875 217.515625 C 0.667969 218.5 0.625 217.15625 1.601563 216.410156 C 3.292969 215.433594 4.683594 214.84375 6.867188 214.070313 C 5.699219 212.316406 3.488281 210.820313 3.941406 208.285156 C 4.269531 207.179688 4.980469 206.53125 5.957031 205.816406 C 4.074219 203.863281 2.316406 201.589844 2.511719 198.601563 C 2.96875 196.910156 4.332031 195.21875 6.085938 194.699219 C 5.113281 192.101563 3.941406 188.785156 5.308594 185.988281 C 6.671875 184.171875 8.160156 183.644531 10.769531 184.105469 C 11.800781 176.941406 18.339844 173.136719 22.339844 176.304688 C 24.296875 173.632813 32.902344 169.164063 35.597656 174.746094 C 38.199219 172.46875 42.996094 169.496094 45.542969 172.859375 L 47.296875 175.71875 C 50.15625 174.226563 56.652344 169.328125 58.542969 176.5 C 65.753906 170.984375 68.320313 177.605469 67.90625 179.921875 C 69.335938 179.402344 72.113281 178.902344 73.367188 179.757813 C 75.1875 180.996094 75.378906 182.933594 75.507813 184.753906 C 77.914063 184.886719 85.53125 182.652344 82.203125 189.109375 C 83.566406 189.175781 88.261719 188.445313 85.84375 193.011719 C 86.621094 193.464844 87.792969 193.726563 88.183594 194.699219 C 88.511719 195.808594 87.351563 196.96875 85.972656 198.273438 L 86.882813 199.054688 C 104.691406 197.429688 121.851563 198.144531 139.339844 199.054688 C 147.722656 194.113281 161.3125 193.625 168.976563 193.335938 C 181.328125 192.75 194.78125 191.839844 206.09375 197.039063 C 206.09375 197.039063 236.285156 192.984375 241.519531 192.554688 C 246.75 192.125 272.847656 190.214844 272.847656 190.214844 L 297.679688 189.890625 L 339.277344 192.101563 C 346.363281 192.683594 353.445313 193.269531 360.339844 194.246094 C 362.808594 192.359375 381.085938 190.632813 390.171875 190.671875 C 396.867188 190.699219 403.628906 190.996094 409.671875 192.230469 C 409.605469 191.125 408.566406 190.019531 408.695313 188.65625 C 408.921875 187.09375 411.753906 185.796875 413.898438 186.445313 C 414.546875 184.753906 414.871094 182.738281 416.367188 181.441406 C 417.40625 180.59375 420.140625 179.742188 422.152344 182.21875 C 423.570313 180.230469 426.296875 176.910156 430.707031 175.710938 C 434.082031 175.058594 437.839844 175.222656 438.339844 179.878906 C 440.5625 178.488281 443.34375 177.085938 446.332031 176.953125 C 448.738281 177.019531 453.582031 176.691406 453.027344 180.660156 C 454.726563 180.121094 460.503906 178.96875 462.714844 181.960938 C 463.65625 183.171875 462.386719 185.925781 461.28125 187.875 C 463.167969 188.394531 465.570313 188.199219 466.417969 190.34375 C 466.871094 191.996094 465.117188 193.269531 463.945313 194.570313 C 464.402344 195.285156 465.828125 195.34375 465.832031 196.585938 C 465.835938 197.878906 463.816406 198.988281 463.039063 200.03125 C 464.921875 200.613281 467.242188 200.617188 469.40625 200.484375 C 471.066406 200.382813 471.882813 201.527344 470.304688 201.855469 Z M 85.972656 194.570313 C 85.117188 193.988281 84.449219 194.925781 83.046875 195.976563 C 82.054688 196.71875 81.226563 195.894531 81.746094 195.21875 C 83.175781 193.921875 84.867188 191.671875 84.371094 191.011719 C 83.71875 190.140625 80.730469 192.417969 79.863281 191.449219 C 78.414063 189.488281 81.558594 188.363281 80.839844 186.769531 C 79.992188 185.601563 79.078125 185.964844 77.847656 186.121094 C 76.105469 186.34375 74.027344 187.535156 72.84375 186.640625 C 72.386719 185.988281 73.101563 185.535156 73.363281 185.078125 C 74.011719 184.105469 73.613281 182.984375 73.039063 182.089844 C 72.375 181.0625 71.0625 180.472656 69.890625 180.667969 C 67.636719 180.976563 67.328125 184.472656 65.042969 183 C 64.261719 182.351563 65.171875 181.636719 65.691406 181.179688 C 66.863281 179.621094 66.214844 178.058594 64.914063 176.761719 C 61.988281 174.875 58.390625 179.589844 57.242188 179.425781 C 55.292969 178.839844 57.113281 177.019531 56.332031 175.851563 C 53.40625 172.210938 48.460938 178.183594 46.84375 177.863281 C 45.976563 177.605469 45.148438 173.964844 43.074219 173.183594 C 40.800781 172.332031 39.027344 173.800781 37.742188 175.523438 C 37.03125 176.480469 36.507813 177.929688 34.949219 177.539063 C 34.058594 177.355469 34.558594 174.710938 31.503906 174.160156 C 28.707031 173.769531 26.265625 174.90625 24.675781 176.761719 C 23.882813 177.6875 24.183594 179.46875 22.558594 179.011719 C 21.90625 178.753906 21.898438 178.019531 21.363281 177.410156 C 20.386719 176.433594 19.25 176.527344 17.789063 177.28125 C 15.316406 178.839844 12.8125 181.082031 12.792969 184.96875 C 12.644531 186.875 8.753906 184.625 7.324219 186.316406 C 5.511719 188.859375 6.542969 192.488281 8.101563 194.699219 C 9.070313 195.976563 6.089844 195.808594 4.765625 197.300781 C 3.597656 198.664063 4.722656 200.746094 5.175781 202.175781 C 5.761719 203.863281 8.347656 204.671875 8.078125 206.234375 C 8.015625 207.070313 6.257813 206.898438 5.957031 208.738281 C 5.664063 210.539063 7.191406 212.25 8.621094 213.421875 L 22.144531 209.390625 C 46.472656 203.09375 62.441406 200.226563 83.957031 199.054688 C 83.503906 198.40625 82.304688 198.210938 82.722656 197.363281 C 83.113281 196.910156 83.710938 196.554688 84.414063 197.039063 C 85.117188 197.464844 86.691406 195.3125 85.972656 194.570313 Z M 181.589844 203.28125 C 188.738281 201.460938 195.886719 199.445313 202.972656 197.820313 C 193.742188 193.984375 181.9375 194.0625 171.773438 194.699219 C 161.875 195.5 152.597656 195.871094 143.820313 199.25 C 156.042969 200.613281 169.496094 200.808594 181.589844 203.28125 Z M 396.21875 202.5 C 380.554688 198.664063 364.304688 196.195313 347.726563 194.441406 C 320.363281 192.816406 292.023438 190.28125 264.398438 192.359375 C 237.554688 193.921875 205.125 198.3125 186.722656 204.058594 C 209.625 208.6875 244.625 215 250.683594 216.085938 C 256.738281 217.171875 283.5 220.667969 323.417969 216.214844 C 356.746094 212.496094 393.226563 203.539063 396.21875 202.5 Z M 426.378906 198.144531 C 418.644531 194.054688 410.722656 193.957031 402.976563 192.878906 C 395.234375 191.804688 376.847656 192.230469 364.886719 194.699219 C 377.171875 196.390625 389.523438 198.664063 401.417969 201.71875 C 409.605469 200.289063 417.796875 198.859375 426.378906 198.144531 Z M 463.945313 196.453125 C 463.691406 195.738281 459.980469 197.753906 458.617188 196.453125 C 458.226563 196.066406 458.226563 195.480469 458.8125 195.21875 C 461.152344 194.765625 463.296875 193.203125 464.726563 191.125 C 465.246094 189.566406 462.972656 189.761719 461.933594 189.566406 C 460.566406 189.175781 457.1875 191.191406 456.796875 188.460938 C 457.253906 187.679688 458.226563 188.070313 458.8125 187.550781 C 460.371094 186.25 461.605469 184.625 461.28125 182.414063 C 460.566406 181.375 459.070313 181.828125 458.164063 181.765625 C 454.523438 182.089844 451.402344 183.585938 448.347656 185.210938 C 446.070313 182.738281 450.753906 182.675781 451.46875 180.855469 C 451.988281 180.074219 451.207031 179.554688 450.6875 179.101563 C 447.761719 177.863281 444.1875 178.644531 441.652344 180.203125 C 440.15625 180.726563 439.507813 182.351563 438.078125 182.871094 C 436.519531 181.765625 437.101563 179.554688 436.320313 178.058594 C 435.347656 177.085938 433.917969 177.28125 432.617188 177.28125 C 428.261719 177.34375 424.296875 180.726563 422.933594 184.753906 C 421.308594 184.949219 421.4375 183 420.136719 182.546875 C 419.554688 182.351563 418.578125 182.21875 418.058594 182.738281 C 416.171875 183.453125 415.914063 185.46875 415.914063 187.226563 C 415.71875 188.394531 417.539063 189.304688 416.238281 190.34375 C 414.480469 190.734375 414.679688 188.71875 413.703125 188.003906 C 412.726563 187.941406 411.621094 188.589844 410.777344 189.238281 C 410.453125 190.410156 411.101563 191.515625 412.011719 192.359375 C 418.058594 193.464844 424.296875 194.179688 429.304688 197.820313 C 438.792969 196.976563 449.320313 197.234375 458.355469 199.378906 C 460.566406 199.835938 464.203125 197.171875 463.945313 196.453125 Z M 442.886719 188.65625 C 442.089844 188.730469 440.808594 188.785156 440.871094 189.890625 C 441.109375 191.613281 443.148438 189.761719 444.445313 190.214844 C 445.355469 190.636719 445.085938 192.160156 446.007813 192.101563 C 446.929688 192.039063 446.554688 191.070313 446.136719 190.214844 C 445.71875 189.359375 444.253906 188.523438 442.886719 188.65625 Z M 425.273438 188.65625 C 423.570313 190.144531 424.496094 191.289063 426.296875 190.089844 C 427.921875 189.113281 431.304688 187.964844 432.292969 190.019531 C 432.722656 190.796875 432.898438 190.101563 432.746094 189.566406 C 431.523438 185.242188 426.839844 187.203125 425.273438 188.65625 Z M 47.734375 183.234375 C 46.257813 182.785156 44.957031 182.546875 44.175781 183.78125 C 43.851563 184.820313 43.503906 185.605469 43.851563 187.09375 C 44.125 188.253906 44.949219 188.289063 45.414063 187.226563 C 45.84375 186.230469 45.089844 184.949219 46.0625 184.300781 C 46.496094 184.09375 49.457031 185.503906 49.441406 184.558594 C 49.386719 183.785156 48.34375 183.464844 47.734375 183.234375 Z M 430.40625 298.636719 C 430.761719 298.667969 431.25 298.28125 431.058594 297.984375 C 429.304688 295.320313 427.222656 299.285156 425.597656 300 C 425.761719 299.015625 426.054688 297.917969 424.945313 297.335938 C 423.605469 296.980469 422.476563 298.375 421.371094 299.21875 C 421.0625 298.382813 420.929688 297.746094 420.136719 297.53125 C 417.972656 296.941406 417.601563 299.480469 416.496094 300.324219 C 416.019531 298.710938 415.066406 297.917969 414.027344 298.308594 C 413.703125 298.464844 414.191406 299.402344 414.808594 299.871094 C 416.238281 301.039063 415.066406 304.613281 417.601563 304.09375 C 418.195313 303.933594 416.835938 300.925781 419.488281 299.414063 C 420.070313 300.519531 418.902344 301.691406 418.839844 302.988281 C 418.828125 303.671875 419.746094 303.835938 420.269531 303.445313 L 423.257813 300 C 423.261719 301.210938 422.542969 301.886719 422.605469 302.988281 C 422.609375 303.628906 423.28125 304.078125 423.714844 303.769531 C 423.714844 303.769531 429.195313 298.769531 429.628906 298.636719 C 430.058594 298.5 430.40625 298.636719 430.40625 298.636719 Z M 425.855469 216.539063 C 426.28125 216.660156 426.546875 216.1875 426.183594 215.953125 C 424.882813 214.851563 425.578125 212.160156 423.714844 212.054688 C 422.761719 212 424.230469 215.953125 425.855469 216.539063 Z M 410.582031 297.855469 C 409.964844 296.675781 409.996094 297.660156 409.996094 297.660156 C 409.996094 300.324219 414.476563 305.828125 414.027344 304.355469 C 413.578125 302.882813 411.203125 299.035156 410.582031 297.855469 Z M 363.78125 249.496094 C 363.847656 248.84375 363.71875 248.324219 363.328125 247.933594 C 362.15625 246.960938 361.3125 248.84375 360.339844 249.300781 C 359.882813 249.105469 360.078125 248.585938 360.078125 248.195313 C 360.148438 247.324219 359.167969 247.15625 358.519531 247.15625 C 357.171875 247.308594 356.957031 249.167969 356.308594 249.753906 C 356.113281 249.039063 355.164063 247.339844 354.421875 248.519531 C 354.371094 248.675781 354.746094 253.785156 357.414063 254.175781 L 357.738281 252.09375 C 358.191406 252.222656 357.996094 252.878906 358.519531 253.070313 C 360.179688 253.6875 359.753906 251.707031 360.988281 251.511719 C 361.371094 251.476563 361.09375 252.21875 361.117188 252.613281 C 361.164063 253.417969 362.09375 253.65625 362.679688 253.199219 C 362.679688 253.199219 368.484375 248.46875 367.878906 247.738281 C 366.570313 245.660156 364.953125 249.300781 363.78125 249.496094 Z M 431.839844 300.457031 C 430.019531 300.324219 428.457031 301.820313 427.15625 302.792969 C 426.574219 303.367188 427.570313 304.363281 428.066406 304.09375 C 428.066406 304.09375 431.742188 301.378906 431.96875 301.234375 C 433.160156 300.476563 431.839844 300.457031 431.839844 300.457031 Z M 57.433594 192.246094 C 56.847656 192.019531 54.644531 191.125 53.214844 191.320313 C 52.242188 191.523438 51.003906 191.644531 50.546875 192.878906 C 49.972656 194.6875 52.859375 191.96875 54.121094 192.554688 C 55.300781 193.242188 57.144531 193.152344 57.574219 193.070313 C 58.121094 192.96875 58.328125 192.589844 57.433594 192.246094 Z M 364.238281 253.199219 C 363.15625 253.304688 365.128906 254.769531 365.796875 253.980469 C 366.382813 253.199219 367.683594 253.265625 367.683594 252.09375 C 367.753906 249.421875 365.40625 253.199219 364.238281 253.199219 Z M 30.59375 183.648438 C 29.878906 183.78125 29.09375 184.4375 28.714844 185.089844 C 28.097656 186.191406 28.507813 188.253906 29.03125 189.109375 C 29.554688 189.964844 30.539063 189.90625 30.464844 188.785156 C 30.386719 187.664063 30.269531 186.445313 30.269531 186.445313 C 30.917969 182.933594 34.320313 187.292969 34.949219 185.664063 C 35.421875 183.886719 32.328125 183.472656 30.59375 183.648438 Z M 351.757813 248.519531 C 351.027344 248.582031 353.066406 255.421875 354.746094 255.085938 C 356.011719 254.898438 353.511719 253.148438 353.644531 252.417969 C 353.71875 251.921875 352.859375 248.546875 351.757813 248.519531 Z M 441.328125 210.949219 C 439.570313 209.648438 437.558594 211.601563 435.996094 212.640625 C 435.089844 211.796875 433.464844 211.46875 432.421875 212.640625 C 431.773438 212.183594 432.488281 211.144531 431.839844 210.625 C 430.277344 209.84375 429.820313 211.796875 428.847656 212.316406 C 428.261719 211.730469 427.613281 210.820313 426.636719 211.078125 C 426.167969 211.296875 428.589844 213.875 428.195313 215.433594 C 427.992188 216.203125 428.71875 217.125 429.628906 216.863281 C 430.164063 216.625 429.886719 215.695313 429.628906 214.980469 C 429.230469 213.882813 429.886719 213.226563 430.730469 212.835938 C 431.578125 213.613281 430.238281 215.140625 431.839844 215.761719 C 432.390625 215.882813 433.851563 213.875 433.851563 213.875 L 433.980469 215.433594 C 434.578125 217.613281 434.789063 214.894531 437.101563 213.746094 C 439.054688 212.855469 441.871094 211.351563 441.328125 210.949219 Z M 440.546875 213.289063 C 439.507813 214.003906 436.84375 215.160156 437.753906 215.953125 C 439.246094 217.253906 440.765625 214.109375 441.78125 213.875 C 442.648438 213.675781 441.605469 212.761719 440.546875 213.289063 Z M 21.183594 193.964844 C 19.667969 193.65625 18.242188 193.726563 17.203125 194.894531 C 16.265625 196.339844 17.074219 198.144531 18.4375 199.25 C 19.015625 199.675781 20.460938 199.914063 20.582031 199.25 C 20.5625 198.78125 18.566406 197.429688 18.761719 196 C 19.222656 194.171875 21.628906 196.234375 22.792969 195.21875 C 23.347656 194.722656 21.804688 194.132813 21.183594 193.964844 "/>
</g>
</svg>
