<?xml version="1.0" encoding="UTF-8"?>
<svg xmlns="http://www.w3.org/2000/svg" xmlns:xlink="http://www.w3.org/1999/xlink" width="140pt" height="247pt" viewBox="0 0 140 247" version="1.1">
<g id="surface1">
<path style=" stroke:none;fill-rule:nonzero;fill:rgb(0%,0%,0%);fill-opacity:1;" d="M 139.5 73.933594 C 136.5 96.53125 119.300781 120.433594 96.300781 126.234375 C 88.101563 130.234375 68.898438 131.53125 68.898438 131.53125 L 68.5 245.734375 L 3.199219 246.734375 L 0.800781 1.433594 C 0.800781 1.433594 63.5 -1.265625 93.898438 3.835938 C 103.300781 5.933594 111.199219 11.632813 118.898438 17.835938 C 134.398438 32.933594 142.699219 52.234375 139.5 73.933594 Z M 124.601563 31.234375 C 111.398438 11.335938 90.199219 4.632813 66.5 6.734375 L 66.5 39.835938 C 75.199219 40.234375 82.199219 45.734375 87.699219 52.835938 C 91.800781 59.632813 93.800781 68.53125 91.5 76.835938 C 87.398438 86.53125 77.300781 89.835938 68.5 92.234375 L 68 126.234375 C 93.199219 125.335938 119.5 116.734375 130.398438 91.234375 C 139.601563 73.132813 138.699219 46.835938 124.601563 31.234375 Z M 35.800781 155.53125 C 34.101563 152.132813 33.101563 148.433594 31.5 145.03125 C 39 135.433594 45.898438 124.734375 46.398438 111.835938 C 56.101563 100.132813 62.101563 83.335938 56 68.632813 C 53.601563 64.53125 49.5 60.734375 44.5 61.03125 C 47.199219 57.933594 51.601563 54.734375 53.601563 50.933594 C 57.5 45.234375 58.5 35.335938 54.5 29.335938 C 50.5 32.734375 47.898438 36.734375 45.398438 40.835938 C 38.398438 35.632813 32.800781 28.132813 32.5 19.234375 C 35.5 4 43.601563 21.132813 44 25.03125 C 47 22.234375 45.265625 8.867188 34.398438 10.632813 C 19.832031 13 37.398438 38.433594 44.5 44.234375 C 40.832031 50.335938 40.601563 60.03125 40.601563 60.03125 C 40.199219 59.132813 33.832031 37.664063 15.199219 37.03125 C 18 49.03125 26.699219 59.933594 39.199219 62.933594 C 35 67.632813 35 74.132813 37.300781 79.734375 C 37.398438 76.53125 38.898438 73.933594 39.699219 71.03125 C 41.699219 68.433594 44.300781 65.234375 47.800781 65.335938 C 55.300781 66.933594 55.398438 74.933594 56.898438 80.632813 C 55.300781 90.632813 53.699219 101.132813 46.898438 108.53125 C 46.300781 101.433594 42.800781 95.632813 39.199219 89.835938 C 33.800781 97.03125 29.300781 104.734375 27.199219 113.335938 C 24.800781 122.234375 27.398438 132.132813 28.601563 140.234375 C 23.601563 136.132813 18.199219 133.03125 12.300781 131.03125 C 10.5 146.433594 15.300781 161.933594 28.601563 171.832031 C 25.398438 172.933594 22.300781 174.53125 19.5 176.632813 C 17 180.234375 15.898438 185.03125 17.101563 189.632813 C 18.601563 192.332031 21.398438 196.132813 24.800781 196.332031 C 23 194.734375 21.101563 192.332031 20 190.132813 C 19 185.933594 19.5 181.234375 22.398438 178.132813 C 24.300781 176.433594 26.601563 175.53125 29.101563 175.234375 C 33.101563 176.132813 37.101563 177.03125 40.101563 180.03125 C 53.699219 200.332031 34.800781 219.132813 26.199219 236.132813 L 27.699219 236.132813 C 32.699219 230.132813 37 223.03125 40.601563 216.03125 C 44.800781 205.234375 51.601563 189.53125 42.101563 179.03125 C 32.601563 176.832031 38 166.832031 35.800781 160.832031 C 39.300781 154.734375 41.5 145.632813 50.5 145.835938 C 54.699219 149.03125 54.199219 153.632813 54.101563 158.433594 C 54.101563 158.433594 58.5 151 53.167969 145.335938 C 46.566406 137.234375 38.398438 151.332031 35.800781 155.53125 "/>
</g>
</svg>
