<?xml version="1.0" encoding="UTF-8"?>
<svg xmlns="http://www.w3.org/2000/svg" xmlns:xlink="http://www.w3.org/1999/xlink" width="559pt" height="141pt" viewBox="0 0 559 141" version="1.1">
<g id="surface1">
<path style=" stroke:none;fill-rule:nonzero;fill:rgb(0%,0%,0%);fill-opacity:1;" d="M 546.863281 31.769531 C 538.574219 32.804688 513.144531 37.507813 486.550781 41.410156 C 478.78125 22.335938 459.953125 6.074219 427.660156 1.28125 C 386.019531 -4.902344 339.101563 15.777344 297.355469 32.316406 C 293.394531 33.886719 286.886719 36.597656 278.902344 39.960938 L 284.695313 40.777344 C 290.550781 38.324219 295.304688 36.355469 298.460938 35.105469 L 308.226563 31.214844 C 346.367188 15.953125 389.597656 -1.339844 427.222656 4.246094 C 452.996094 8.074219 472.339844 20.078125 481.691406 38.042969 C 482.304688 39.226563 482.875 40.425781 483.394531 41.644531 L 462.015625 44.566406 C 461.613281 43.828125 461.183594 43.09375 460.730469 42.371094 C 449.402344 24.308594 425.25 14.804688 396.113281 16.945313 C 367.015625 19.085938 336.496094 29.113281 307.847656 39.628906 C 305.878906 40.351563 303.015625 41.484375 299.261719 42.992188 L 305.09375 43.898438 C 306.605469 43.304688 307.875 42.816406 308.882813 42.445313 C 336.675781 32.242188 367.53125 22.054688 396.335938 19.9375 C 427.285156 17.660156 449.351563 28.808594 458.828125 45.027344 C 454.027344 45.554688 449.378906 46 445.003906 46.328125 C 386.589844 50.714844 331.160156 53.808594 252.605469 37.078125 C 240.898438 34.585938 237.019531 35.300781 248.066406 37.992188 C 271.332031 43.660156 322.035156 55.273438 350.652344 58.136719 C 366.902344 59.761719 375.472656 61.382813 380.25 61.996094 C 386.378906 62.785156 387.128906 63.238281 381.449219 65.457031 C 347.695313 78.644531 265.503906 97.554688 220.007813 102.207031 C 170.058594 107.3125 132.671875 107.519531 96.402344 103.332031 C 67.65625 100.015625 38.773438 93.78125 9.46875 86.046875 C 0.238281 83.613281 -4.625 83.957031 7.460938 88.0625 C 53.6875 103.761719 138.453125 116.082031 195.976563 118.105469 C 260.03125 120.363281 328.6875 114.902344 390.210938 99.914063 C 416.492188 93.511719 439.8125 85.765625 461.738281 77.148438 C 460.757813 80.03125 459.449219 82.914063 457.796875 85.777344 C 429.71875 134.34375 328.21875 134.203125 307.671875 125.269531 C 300.003906 121.9375 294.722656 123.546875 305.328125 128.089844 C 333.355469 140.097656 382.453125 148.058594 427.679688 134.261719 C 464.886719 122.910156 478.21875 102.183594 484.460938 89.699219 C 488.292969 82.035156 490.441406 73.566406 490.722656 64.980469 C 512.039063 55.519531 532.648438 45.375 554.179688 35.039063 C 562.515625 31.039063 560.195313 30.101563 546.863281 31.769531 Z M 481.777344 88.359375 C 477.945313 96.023438 466.28125 119.34375 426.804688 131.390625 C 393.695313 141.492188 357.238281 139.777344 328.984375 132.738281 C 326.773438 132.1875 326.726563 132.117188 328.992188 132.292969 C 343.335938 133.394531 361.84375 132.949219 380.371094 130.050781 C 408.105469 125.714844 444.496094 114.773438 460.394531 87.277344 C 462.613281 83.441406 464.273438 79.515625 465.371094 75.570313 L 487.675781 66.1875 C 487.253906 73.769531 485.289063 81.332031 481.777344 88.359375 Z M 544.425781 36.410156 C 541.683594 37.730469 539.144531 38.953125 538.863281 39.089844 C 492.324219 61.539063 448.195313 82.703125 389.5 97 C 331.027344 111.242188 264.144531 117.503906 196.085938 115.109375 C 175.46875 114.382813 150.519531 112.261719 124.871094 109.035156 C 123.238281 108.828125 123.230469 108.59375 124.875 108.671875 C 153.257813 110.074219 183.800781 108.925781 220.3125 105.191406 C 265.910156 100.527344 349.664063 81.316406 383.394531 67.914063 C 392.007813 64.492188 391.96875 60.167969 381.871094 59.164063 C 380.46875 59.027344 362.925781 56.347656 350.953125 55.152344 C 342.996094 54.355469 333.382813 52.882813 323.246094 51.082031 C 322.238281 50.902344 322.28125 50.71875 323.3125 50.808594 C 366.183594 54.476563 403.824219 52.429688 445.226563 49.320313 C 470.085938 47.453125 504.136719 41.773438 526.664063 38.015625 C 533.722656 36.839844 539.65625 35.851563 543.800781 35.226563 C 547.59375 34.660156 547.90625 34.730469 544.425781 36.410156 Z M 66.332031 92.679688 C 93.808594 96.578125 143.671875 94.632813 187.339844 78.09375 C 203.605469 71.929688 240.371094 56.253906 267.824219 44.636719 L 272.753906 45.808594 C 268.386719 47.65625 263.710938 49.636719 258.851563 51.695313 C 232.574219 62.828125 202.789063 75.449219 188.402344 80.898438 C 184.269531 82.464844 180.066406 83.902344 175.824219 85.21875 C 174.046875 85.773438 173.988281 86.035156 175.753906 85.625 C 177.8125 85.144531 179.875 84.644531 181.945313 84.117188 C 218.640625 74.757813 259.132813 59.070313 285.175781 48.652344 L 290.171875 49.882813 C 264.875 60.039063 221.363281 77.160156 182.6875 87.023438 C 131.683594 100.027344 92.355469 98.480469 65.332031 94.429688 C 50.738281 92.242188 57.023438 91.359375 66.332031 92.679688 "/>
</g>
</svg>
