<?xml version="1.0" encoding="UTF-8"?>
<svg xmlns="http://www.w3.org/2000/svg" xmlns:xlink="http://www.w3.org/1999/xlink" width="260pt" height="217pt" viewBox="0 0 260 217" version="1.1">
<g id="surface1">
<path style=" stroke:none;fill-rule:nonzero;fill:rgb(0%,0%,0%);fill-opacity:1;" d="M 246.625 0.5 C 234.625 0.5 106.308594 0.570313 101.289063 0.5 C 67.667969 23.996094 51.359375 55.179688 68 73.335938 C 78.292969 73.191406 109.742188 73.46875 121.953125 74 C 119.148438 52.007813 138.800781 23.109375 168.246094 42.289063 C 188.0625 55.199219 166.285156 86.597656 118 93.332031 C 38.726563 104.394531 22.195313 115.273438 8.339844 141.15625 C -5.015625 166.109375 -2.773438 197.917969 24.625 216.109375 C 24.625 216.109375 171.066406 216.421875 187.289063 216.109375 C 174.703125 175.007813 200.105469 143.523438 230.894531 93.320313 C 255.75 52.796875 271.921875 10.664063 246.625 0.5 Z M 142.394531 133.175781 C 128.519531 157.464844 121.609375 168.738281 107.265625 172.402344 C 78.941406 179.644531 52.28125 160.925781 87.855469 134.472656 C 98.296875 126.707031 112.117188 122.136719 129.804688 117.855469 C 150.199219 112.914063 151.164063 117.828125 142.394531 133.175781 "/>
</g>
</svg>
