<?xml version="1.0" encoding="UTF-8"?>
<svg xmlns="http://www.w3.org/2000/svg" xmlns:xlink="http://www.w3.org/1999/xlink" width="216pt" height="254pt" viewBox="0 0 216 254" version="1.1">
<g id="surface1">
<path style=" stroke:none;fill-rule:nonzero;fill:rgb(0%,0%,0%);fill-opacity:1;" d="M 215.957031 0.726563 L 69.789063 252.546875 L 9.726563 253.019531 L 81.109375 123.289063 L 0.175781 3.863281 L 65.058594 2.980469 L 108.207031 67.097656 L 146.300781 0.925781 Z M 149.03125 5.335938 L 111.359375 73.523438 L 141.285156 119.820313 L 208.578125 5.242188 Z M 86.308594 61.445313 C 82.785156 58.9375 79.578125 62.085938 76.351563 60.15625 C 79.152344 57.566406 79.105469 53.660156 81.019531 50.730469 C 82.535156 42.585938 82.273438 33.867188 76.101563 27.925781 C 71.652344 25.199219 73.496094 40.835938 69.292969 40.871094 C 61.613281 37.671875 50.824219 31.949219 50.90625 22.144531 C 51.609375 19.46875 54.453125 18.378906 57.230469 19.085938 C 60.285156 20.304688 62.253906 23.683594 63.246094 26.523438 C 64.230469 24.363281 63.839844 21.546875 62.507813 19.691406 C 60.539063 16.3125 57.433594 13.789063 53.101563 14.523438 C 50.582031 15.027344 48.109375 16.832031 46.722656 19.078125 C 45.496094 22.335938 46.363281 25.769531 47.25 28.707031 C 51.667969 38.585938 62.191406 40.796875 70.652344 44.527344 C 70.316406 50.617188 72.703125 56.214844 72.898438 61.425781 C 68.171875 54.335938 60.789063 51.148438 53.699219 48.171875 C 49.621094 47.511719 43.75 46.683594 40.289063 48.152344 C 49.417969 63.117188 73.167969 64.839844 72.859375 65.027344 C 71.039063 70.660156 72.167969 77.710938 76.433594 81.277344 C 75.046875 75.71875 75.421875 68.628906 79.980469 64.601563 C 82.523438 63.601563 85.277344 64.808594 87.65625 65.398438 C 100.460938 75.855469 97.03125 107.496094 97.03125 107.496094 L 99.011719 106.820313 C 99.011719 106.820313 102.816406 73.195313 86.308594 61.445313 Z M 119.777344 117.085938 C 107.960938 122.429688 95.902344 131.46875 90.820313 143.78125 C 88.550781 148.097656 89.023438 154.019531 85.984375 157.503906 C 84.410156 151.640625 80.707031 146.492188 77.003906 141.34375 C 68.867188 149.933594 67.136719 163.578125 67.527344 174.101563 C 69.195313 177.566406 69.953125 181.300781 71.515625 184.863281 L 61.902344 184.992188 C 56.054688 186.066406 53.820313 192.082031 52.726563 197.042969 C 53.003906 200.257813 54.179688 203.503906 56.707031 205.40625 C 55.125 202.339844 54.480469 198.3125 55.71875 194.757813 C 57.523438 192.125 59.636719 189.207031 62.695313 187.824219 C 65.234375 186.820313 67.988281 188.027344 70.367188 188.621094 C 75.054688 191.605469 78.863281 196.65625 78.4375 202.445313 C 76.523438 223.386719 53.320313 230.792969 38.523438 240.726563 L 39.96875 242.183594 C 54.773438 234.652344 74.472656 224.707031 79.75 207.296875 C 80.15625 202.011719 80.300781 195.710938 76.96875 191.28125 C 80.488281 183.109375 85.734375 174.304688 95.054688 171.367188 C 97.984375 170.679688 100.96875 171.496094 102.757813 174.367188 C 105.273438 179.167969 100.460938 181.683594 100.730469 184.996094 C 100.730469 184.996094 110.363281 175.3125 100.464844 168.671875 C 94.820313 167.054688 89.890625 170.363281 85.835938 174.308594 C 86.058594 171.117188 85.742188 166.402344 86.78125 162.839844 C 94.003906 159.816406 100.863281 155.78125 107.363281 150.726563 C 117.695313 142.320313 121.761719 130.46875 119.777344 117.085938 "/>
</g>
</svg>
