<?xml version="1.0" encoding="UTF-8"?>
<svg xmlns="http://www.w3.org/2000/svg" xmlns:xlink="http://www.w3.org/1999/xlink" width="575pt" height="112pt" viewBox="0 0 575 112" version="1.1">
<g id="surface1">
<path style=" stroke:none;fill-rule:nonzero;fill:rgb(0%,0%,0%);fill-opacity:1;" d="M 561.445313 13.015625 C 512.1875 64.574219 473.714844 59.171875 393.492188 62.859375 C 377.308594 63.605469 366.964844 64.84375 351.449219 67.835938 C 347.722656 68.550781 347.707031 68.441406 350.542969 66.761719 C 382.671875 47.710938 417.707031 43.207031 453.773438 49.007813 C 422.78125 29 389.386719 26.539063 357.128906 34.621094 C 319.625 44.015625 298.605469 60.160156 272.703125 74.230469 C 256.476563 83.042969 226.851563 99.351563 204.625 89.898438 C 178.28125 78.695313 170.292969 34.199219 199.351563 23.632813 C 222.023438 15.390625 249.429688 33.054688 232.753906 58.414063 C 223.453125 72.558594 206.949219 71.597656 199.152344 66.851563 C 204.527344 77.46875 217.917969 84.964844 229.359375 83.351563 C 242.4375 81.507813 255.527344 74.265625 266.8125 65.554688 C 284.785156 51.679688 287.960938 43.261719 302.847656 48.300781 C 315.285156 52.511719 316.464844 32.914063 305.316406 31.117188 C 293.882813 29.277344 284.355469 33.46875 276.121094 40.050781 C 268.65625 46.019531 259.734375 58.15625 254.902344 60.871094 C 251.074219 63.027344 251.769531 62.386719 253.246094 59.980469 C 255.140625 56.90625 257.652344 53.492188 259.738281 50.265625 C 265.003906 43.074219 269.136719 30.847656 279.339844 30.367188 C 285.886719 30.058594 289.199219 27.015625 283.320313 21.226563 C 280.390625 18.335938 276.78125 17.546875 273.453125 18.253906 C 263.175781 20.441406 257.945313 36.835938 253.589844 44.921875 C 252.0625 47.753906 251.96875 48.808594 252.324219 44.6875 C 253.28125 33.640625 249.425781 9.476563 218.347656 4.371094 C 194.78125 0.496094 172.699219 17.714844 164.847656 37.152344 C 159.699219 49.890625 160.546875 69.871094 171.65625 83.207031 C 151.804688 78.503906 138.632813 40.117188 161.351563 11.253906 C 145.433594 10.09375 125.53125 29.65625 109.945313 44.203125 C 69.195313 82.222656 51.113281 94.203125 11.042969 100.441406 C -1.953125 102.464844 -2.5625 103.121094 10.285156 104.769531 C 89.292969 114.910156 287.269531 111.460938 352.144531 107 C 442.945313 100.757813 517.398438 80.441406 555.027344 35.027344 C 560.445313 28.488281 563.820313 22.796875 566.949219 16.5625 C 577.019531 -3.503906 577.5625 -3.855469 561.445313 13.015625 Z M 502.277344 62.773438 C 418.242188 101.238281 327.546875 97.660156 237.609375 99.339844 C 233.953125 99.40625 233.824219 99.445313 237.242188 98.386719 C 290.976563 81.753906 342.148438 27.597656 408.742188 38.59375 C 414.738281 39.585938 414.574219 39.503906 408.460938 39.871094 C 379.035156 41.640625 348.171875 55.753906 326.429688 77.539063 C 318.863281 85.117188 320.351563 85.960938 330.242188 81.996094 C 349.839844 74.148438 371.878906 68.429688 390.664063 69.929688 C 428.03125 72.910156 465.617188 72.140625 501.332031 61.398438 C 510.445313 58.65625 510.800781 58.871094 502.277344 62.773438 "/>
</g>
</svg>
