<?xml version="1.0" encoding="UTF-8"?>
<svg xmlns="http://www.w3.org/2000/svg" xmlns:xlink="http://www.w3.org/1999/xlink" width="460pt" height="706pt" viewBox="0 0 460 706" version="1.1">
<g id="surface1">
<path style=" stroke:none;fill-rule:nonzero;fill:rgb(0%,0%,0%);fill-opacity:1;" d="M 227.597656 295.0625 C 230.519531 306.1875 229.769531 305.355469 232.445313 295.167969 C 245.449219 245.699219 263.640625 161.289063 244.160156 126.746094 C 242.511719 123.820313 241.398438 124.394531 241.457031 119.851563 C 241.71875 99.679688 234.492188 32.765625 232.007813 10.296875 C 230.519531 -3.175781 229.511719 -3.15625 228.015625 10.363281 C 225.515625 33.003906 218.328125 99.625 218.589844 119.746094 C 218.648438 124.289063 217.53125 123.714844 215.882813 126.640625 C 196.402344 161.1875 214.59375 245.589844 227.597656 295.0625 Z M 236.28125 234.855469 C 238.019531 218.6875 245.039063 158.015625 242.097656 140.351563 C 241.347656 135.851563 242.828125 137.90625 243.339844 139.589844 C 250.433594 163.113281 246.992188 200.835938 236.835938 237.859375 C 235.75 241.816406 235.773438 239.605469 236.28125 234.855469 Z M 217.949219 140.246094 C 215.003906 157.910156 222.023438 218.585938 223.761719 234.75 C 224.273438 239.5 224.296875 241.710938 223.210938 237.757813 C 213.054688 200.730469 209.613281 163.007813 216.707031 139.488281 C 217.214844 137.800781 218.699219 135.746094 217.949219 140.246094 "/>
<path style=" stroke:none;fill-rule:nonzero;fill:rgb(0%,0%,0%);fill-opacity:1;" d="M 226.964844 373.195313 C 224.550781 388.574219 218.929688 435.371094 218.929688 457.246094 C 218.929688 481.117188 225.222656 531.886719 227.617188 545.996094 C 229.890625 559.417969 230.070313 559.699219 232.34375 546.296875 C 234.738281 532.160156 241.027344 481.421875 241.027344 457.5625 C 241.027344 435.554688 235.335938 388.320313 232.949219 373.234375 C 230.664063 358.78125 229.257813 358.554688 226.964844 373.195313 "/>
<path style=" stroke:none;fill-rule:nonzero;fill:rgb(0%,0%,0%);fill-opacity:1;" d="M 459.425781 290.953125 C 459.425781 289.453125 436.890625 288.210938 409.453125 288.007813 C 425.746094 264.246094 441.195313 239.71875 439.949219 238.851563 C 438.746094 238.015625 422.417969 259.464844 406.375 282.117188 C 406.269531 228.398438 405.199219 186.195313 403.898438 186.195313 C 402.597656 186.195313 401.527344 228.398438 401.421875 282.117188 C 385.378906 259.464844 369.050781 238.015625 367.847656 238.851563 C 366.601563 239.71875 382.039063 264.226563 398.324219 287.980469 C 393.191406 287.996094 388.449219 288.046875 384.101563 288.132813 C 383.390625 263.480469 370.910156 242.1875 340.746094 234.246094 C 341.140625 224.234375 340.710938 213.660156 339.5 201.824219 C 338.714844 194.136719 338.109375 191.679688 338.109375 191.679688 L 300.554688 191.613281 C 300.554688 191.613281 298.140625 167.203125 290.140625 145.867188 C 280.34375 119.742188 264.648438 102.089844 257.675781 94.417969 C 254.34375 90.75 249.050781 87.191406 251.394531 93.742188 C 271.023438 148.597656 269.066406 219.902344 246.371094 290.511719 C 243.371094 299.84375 245.628906 298.417969 248.679688 291.535156 C 258.640625 269.09375 262.5 260.828125 280.746094 250.917969 C 276.289063 291.378906 266.238281 336.503906 252.617188 387.171875 C 248.511719 402.453125 245.242188 430.730469 248.394531 458.765625 C 251.753906 488.632813 261.796875 513.898438 284.882813 533.609375 C 273.871094 547.703125 264.378906 561.757813 259.128906 573.902344 C 257.261719 540.097656 250.820313 492.921875 250.34375 485.839844 C 249.769531 477.320313 246.394531 472.996094 245.140625 483.925781 C 244.066406 493.257813 231.855469 564.488281 230.15625 585.410156 C 230.101563 586.089844 229.953125 586.152344 229.90625 585.535156 C 228.277344 564.902344 215.980469 493.1875 214.90625 483.820313 C 213.648438 472.890625 210.277344 477.214844 209.703125 485.734375 C 209.226563 492.816406 202.78125 539.992188 200.914063 573.796875 C 195.667969 561.652344 186.171875 547.601563 175.164063 533.507813 C 198.25 513.792969 208.292969 488.527344 211.652344 458.660156 C 214.800781 430.628906 211.535156 402.351563 207.425781 387.066406 C 193.808594 336.398438 183.757813 291.273438 179.300781 250.8125 C 197.546875 260.726563 201.40625 268.988281 211.363281 291.433594 C 214.417969 298.3125 216.675781 299.742188 213.675781 290.40625 C 190.980469 219.796875 189.019531 148.492188 208.648438 93.636719 C 210.992188 87.089844 205.703125 90.648438 202.367188 94.3125 C 195.394531 101.984375 179.699219 119.640625 169.902344 145.765625 C 161.902344 167.097656 159.554688 191.613281 159.554688 191.613281 L 121.933594 191.574219 C 121.933594 191.574219 121.328125 194.03125 120.546875 201.722656 C 119.335938 213.558594 118.90625 224.132813 119.300781 234.140625 C 89.132813 242.085938 76.65625 263.378906 75.941406 288.03125 C 71.59375 287.945313 66.851563 287.890625 61.71875 287.875 C 78.007813 264.125 93.445313 239.617188 92.199219 238.746094 C 90.992188 237.910156 74.664063 259.359375 58.625 282.015625 C 58.519531 228.292969 57.449219 186.089844 56.148438 186.089844 C 54.84375 186.089844 53.777344 228.292969 53.667969 282.015625 C 37.628906 259.359375 21.300781 237.910156 20.09375 238.746094 C 18.847656 239.617188 34.296875 264.140625 50.589844 287.902344 C 23.152344 288.109375 0.621094 289.351563 0.621094 290.851563 C 0.621094 292.347656 23.039063 293.585938 50.386719 293.796875 C 33.664063 318.074219 18.804688 342.054688 20.09375 342.953125 C 21.34375 343.820313 37.304688 322.730469 53.667969 299.464844 C 53.773438 353.289063 54.84375 395.609375 56.148438 395.609375 C 57.449219 395.609375 58.519531 353.289063 58.625 299.464844 C 71.277344 317.445313 83.675781 334.121094 89.234375 340.371094 C 93.449219 348.535156 98.511719 356.316406 104.214844 363.339844 C 85.769531 365.5625 67.664063 376.480469 56.164063 401.597656 C 41.335938 433.988281 44.484375 474.3125 57.972656 502.132813 C 76.457031 540.253906 120.246094 564.078125 159.769531 543.902344 C 164.390625 550.550781 168.90625 557.796875 172.835938 565.613281 C 186.527344 592.835938 191.09375 629.101563 172.539063 648.433594 C 160.980469 660.484375 162.558594 660.125 176.082031 651.394531 C 189.902344 642.472656 198.335938 632.394531 202.789063 621.804688 C 206.316406 650.726563 212.742188 683.148438 214.738281 694.761719 C 217.476563 710.691406 218.164063 708.113281 220.664063 692.113281 C 222.785156 678.519531 228.777344 625.335938 229.921875 598.601563 C 229.960938 597.6875 230.078125 597.648438 230.117188 598.542969 C 231.242188 625.222656 237.253906 678.597656 239.382813 692.21875 C 241.882813 708.21875 242.566406 710.792969 245.304688 694.867188 C 247.304688 683.253906 253.726563 650.832031 257.257813 621.910156 C 261.710938 632.5 270.140625 642.578125 283.960938 651.5 C 297.484375 660.230469 299.066406 660.589844 287.503906 648.539063 C 268.949219 629.207031 273.519531 592.941406 287.207031 565.71875 C 291.140625 557.898438 295.652344 550.65625 300.273438 544.007813 C 339.796875 564.183594 383.589844 540.355469 402.070313 502.234375 C 415.558594 474.417969 418.707031 434.09375 403.878906 401.703125 C 392.378906 376.585938 374.277344 365.664063 355.828125 363.445313 C 361.53125 356.421875 366.59375 348.640625 370.8125 340.476563 C 376.367188 334.226563 388.769531 317.550781 401.421875 299.566406 C 401.523438 353.394531 402.59375 395.714844 403.898438 395.714844 C 405.203125 395.714844 406.273438 353.394531 406.375 299.566406 C 422.742188 322.832031 438.699219 343.925781 439.949219 343.058594 C 441.238281 342.160156 426.382813 318.175781 409.65625 293.902344 C 437.003906 293.691406 459.425781 292.453125 459.425781 290.953125 Z M 165.878906 521.996094 C 152.625 506.0625 138.402344 490.753906 127.3125 478.855469 C 101.285156 450.9375 98.1875 429.621094 101.371094 416.160156 C 110.96875 389.082031 135.054688 395.722656 148.4375 398.367188 C 157.09375 400.082031 157.761719 398.082031 147.105469 392.28125 C 137.34375 386.96875 129.222656 379.953125 122.039063 372.507813 C 135.5 372.925781 148.964844 379.851563 159.253906 392.757813 C 164.996094 399.964844 169.664063 408.925781 173.0625 419.160156 C 173.234375 419.675781 173.128906 419.664063 172.777344 419.175781 C 167.648438 412.078125 158.921875 404.476563 144.183594 405.542969 C 113.980469 407.726563 111.429688 460.6875 140.285156 469.609375 C 162.003906 476.320313 175.519531 457.527344 173.304688 448.753906 C 172.324219 444.871094 170.496094 441.925781 169.746094 446.425781 C 168.117188 456.21875 159.957031 459.46875 152.363281 458.554688 C 130.886719 455.960938 128.816406 422.851563 146.207031 416.578125 C 150.84375 414.902344 156.167969 415.070313 160.84375 417.230469 C 161.304688 417.441406 161.195313 417.464844 160.808594 417.445313 C 153.332031 417.089844 146.777344 421.144531 144.785156 429.261719 C 143.683594 433.765625 144.632813 438.6875 146.820313 441.089844 C 148.445313 442.875 151.113281 443.582031 150.113281 440.082031 C 147.324219 430.320313 157.457031 425.058594 166.09375 428.226563 C 185.75 435.429688 183.664063 492.765625 165.878906 521.996094 Z M 193.222656 363.019531 C 198.777344 382.296875 197.558594 383.914063 190.226563 364.824219 C 173.570313 321.460938 166.839844 290.113281 165.136719 244.710938 C 166.894531 245.3125 168.652344 245.957031 170.410156 246.660156 C 174.023438 291.929688 183.917969 330.757813 193.222656 363.019531 Z M 191.96875 129.394531 C 184.113281 171.25 186.667969 216.703125 199.503906 259.347656 C 193.339844 251.996094 186.121094 246.261719 178.40625 241.980469 C 174.460938 198.683594 177.324219 160.84375 189.648438 127.367188 C 193.070313 118.070313 194.011719 118.507813 191.96875 129.394531 Z M 178.429688 138.996094 C 180.148438 135.804688 180.367188 135.933594 179.179688 139.246094 C 170.910156 162.308594 167.441406 198.621094 169.777344 237.859375 C 168.148438 237.199219 166.515625 236.585938 164.871094 236.035156 C 164.792969 232.6875 164.738281 229.261719 164.707031 225.746094 C 164.246094 175.070313 175.773438 143.925781 178.429688 138.996094 Z M 163.96875 304.242188 C 166.359375 316.757813 173.589844 338.066406 180.769531 358.628906 C 193.027344 393.71875 204.78125 425.828125 201.886719 459.785156 C 200.523438 475.785156 196.09375 490.894531 187.910156 504.359375 C 178.675781 519.554688 178.914063 517.9375 184.378906 501.019531 C 203.449219 441.953125 176.742188 387.433594 168.652344 364.667969 C 146.472656 302.242188 130.386719 279.148438 127.039063 241.417969 C 136.5625 239.417969 146.984375 239.558594 157.484375 242.339844 C 157.964844 260.4375 159.722656 282 163.96875 304.242188 Z M 127.679688 201.496094 L 158.179688 201.496094 C 158.003906 203.273438 158.226563 206.066406 158.074219 208.324219 C 151.546875 208.273438 133.460938 208.375 127.097656 208.539063 C 127.226563 206.8125 127.511719 203.300781 127.679688 201.496094 Z M 126.679688 215.191406 C 133.113281 215.296875 151.863281 215.246094 157.691406 215.15625 C 157.445313 220.609375 157.304688 226.921875 157.34375 233.914063 C 146.609375 231.410156 135.894531 231.121094 126.503906 232.613281 C 126.316406 227.1875 126.371094 221.425781 126.679688 215.191406 Z M 81.835938 323.976563 C 76.398438 315.3125 69.347656 304.601563 61.925781 293.824219 C 66.992188 293.808594 71.675781 293.753906 75.976563 293.671875 C 76.382813 303.558594 78.542969 313.851563 82.105469 323.9375 C 82.234375 324.304688 82.058594 324.335938 81.835938 323.976563 Z M 84.738281 293.433594 C 99.492188 292.921875 107.671875 291.957031 107.671875 290.851563 C 107.671875 289.746094 99.5 288.78125 84.761719 288.265625 C 85.609375 268.554688 95.347656 251.34375 119.910156 243.34375 C 122.304688 268.816406 130.484375 291.890625 145.429688 324.996094 C 152.695313 341.09375 151.851563 340.636719 142.34375 326.664063 C 132.242188 311.808594 121.796875 297.078125 121.964844 277.265625 C 122.070313 264.152344 111.101563 259.972656 110.003906 273.742188 C 107.609375 303.710938 134.523438 329.5 149.796875 354.769531 C 154.945313 363.289063 155.730469 363.828125 150.429688 358.746094 C 133.433594 342.460938 121.269531 331.316406 118.195313 315.1875 C 116.636719 306.988281 109.285156 308.851563 108.285156 315.519531 C 107.988281 317.492188 107.316406 322.554688 109.875 328.839844 C 116.015625 343.925781 150.671875 363.808594 160.839844 379.398438 C 165.839844 387.0625 167.164063 389.976563 162.296875 384.550781 C 151.867188 372.914063 133.046875 363.492188 113.433594 362.929688 C 98.582031 344.871094 85.523438 317.746094 84.738281 293.433594 Z M 64.238281 495.222656 C 46.03125 455.457031 53.023438 403.082031 81.761719 379.414063 C 87.429688 374.746094 88.535156 375.644531 83.570313 380.453125 C 59.261719 404.015625 52.296875 457.863281 65.761719 494.414063 C 68.09375 500.746094 67.175781 501.636719 64.238281 495.222656 Z M 80.507813 511.375 C 66.785156 485.554688 63.214844 448.730469 71.222656 419.628906 C 78.945313 391.578125 95.40625 376.519531 113.117188 373.199219 C 118.136719 378.230469 123.769531 383.042969 129.828125 386.632813 C 134.238281 389.246094 135.058594 389.832031 129.382813 389.078125 C 109.777344 386.480469 89.320313 400.652344 90.242188 428.109375 C 91.242188 457.726563 111.941406 483.164063 134.667969 511.890625 C 139.636719 518.171875 146.601563 526.167969 153.796875 535.671875 C 129.035156 554.214844 93.582031 535.984375 80.507813 511.375 Z M 158.386719 531.664063 C 146.535156 516.390625 130.605469 497.992188 118.230469 479.105469 C 117.199219 477.53125 117.375 477.3125 118.621094 478.804688 C 130.261719 492.734375 146.769531 509.589844 161.777344 527.867188 C 160.683594 529.230469 159.550781 530.496094 158.386719 531.664063 Z M 187.835938 636.394531 C 186.75 637.886719 186.609375 637.714844 187.4375 636.03125 C 203.558594 603.195313 182.953125 565.492188 165.234375 540.808594 C 166.722656 539.882813 168.203125 538.898438 169.675781 537.839844 C 194 569.808594 210.609375 605.140625 187.835938 636.394531 Z M 217.890625 663.761719 C 216.664063 671.601563 216.328125 672.863281 214.988281 665.058594 C 208.214844 625.683594 209.898438 568.511719 212.519531 529.636719 C 212.800781 525.464844 214.453125 523.34375 215.066406 528.699219 C 218.890625 561.960938 223.496094 627.875 217.890625 663.761719 Z M 245.058594 665.164063 C 243.714844 672.96875 243.378906 671.707031 242.15625 663.867188 C 236.546875 627.980469 241.15625 562.066406 244.976563 528.804688 C 245.589844 523.449219 247.242188 525.566406 247.523438 529.742188 C 250.144531 568.613281 251.828125 625.789063 245.058594 665.164063 Z M 333.542969 232.71875 C 324.148438 231.222656 313.433594 231.515625 302.699219 234.019531 C 302.742188 227.027344 302.597656 220.710938 302.355469 215.261719 C 308.183594 215.351563 326.933594 215.402344 333.367188 215.296875 C 333.675781 221.53125 333.730469 227.292969 333.542969 232.71875 Z M 332.367188 201.601563 C 332.53125 203.40625 332.816406 206.914063 332.945313 208.644531 C 326.585938 208.480469 308.5 208.378906 301.972656 208.429688 C 301.816406 206.171875 302.039063 203.378906 301.867188 201.601563 Z M 281.617188 139.101563 C 284.273438 144.027344 295.800781 175.175781 295.339844 225.851563 C 295.304688 229.367188 295.253906 232.792969 295.175781 236.140625 C 293.53125 236.691406 291.894531 237.304688 290.269531 237.964844 C 292.601563 198.726563 289.132813 162.414063 280.867188 139.351563 C 279.679688 136.039063 279.894531 135.910156 281.617188 139.101563 Z M 260.542969 259.453125 C 273.378906 216.808594 275.933594 171.355469 268.078125 129.496094 C 266.035156 118.609375 266.972656 118.175781 270.394531 127.472656 C 282.722656 160.945313 285.585938 198.785156 281.640625 242.082031 C 273.921875 246.363281 266.703125 252.097656 260.542969 259.453125 Z M 266.824219 363.125 C 276.125 330.863281 286.019531 292.035156 289.636719 246.765625 C 291.394531 246.058594 293.152344 245.417969 294.910156 244.816406 C 293.203125 290.214844 286.476563 321.566406 269.816406 364.929688 C 262.484375 384.019531 261.265625 382.398438 266.824219 363.125 Z M 272.136719 504.464844 C 263.949219 491 259.519531 475.890625 258.15625 459.890625 C 255.261719 425.933594 267.019531 393.820313 279.273438 358.734375 C 286.457031 338.171875 293.6875 316.863281 296.074219 304.34375 C 300.320313 282.105469 302.078125 260.539063 302.558594 242.441406 C 313.058594 239.664063 323.480469 239.523438 333.003906 241.519531 C 329.660156 279.25 313.570313 302.347656 291.390625 364.773438 C 283.300781 387.535156 256.597656 442.058594 275.667969 501.125 C 281.128906 518.039063 281.367188 519.660156 272.136719 504.464844 Z M 293.949219 428.328125 C 302.589844 425.164063 312.722656 430.425781 309.933594 440.1875 C 308.933594 443.6875 311.597656 442.980469 313.226563 441.195313 C 315.410156 438.792969 316.363281 433.871094 315.257813 429.367188 C 313.265625 421.246094 306.710938 417.191406 299.238281 417.550781 C 298.847656 417.566406 298.742188 417.546875 299.199219 417.335938 C 303.878906 415.175781 309.199219 415.007813 313.839844 416.683594 C 331.226563 422.953125 329.160156 456.0625 307.683594 458.65625 C 300.089844 459.574219 291.929688 456.324219 290.296875 446.53125 C 289.546875 442.03125 287.722656 444.972656 286.742188 448.855469 C 284.527344 457.632813 298.039063 476.425781 319.761719 469.714844 C 348.617188 460.792969 346.0625 407.828125 315.859375 405.648438 C 301.121094 404.582031 292.398438 412.179688 287.269531 419.28125 C 286.917969 419.769531 286.8125 419.78125 286.980469 419.265625 C 290.382813 409.027344 295.046875 400.070313 300.792969 392.863281 C 311.082031 379.953125 324.546875 373.027344 338.007813 372.609375 C 330.824219 380.058594 322.703125 387.070313 312.9375 392.386719 C 302.28125 398.1875 302.949219 400.1875 311.605469 398.472656 C 324.988281 395.824219 349.078125 389.1875 358.671875 416.265625 C 361.859375 429.726563 358.757813 451.039063 332.730469 478.960938 C 321.640625 490.855469 307.421875 506.164063 294.167969 522.101563 C 276.378906 492.867188 274.292969 435.535156 293.949219 428.328125 Z M 272.609375 636.136719 C 273.433594 637.816406 273.296875 637.992188 272.210938 636.5 C 249.433594 605.242188 266.046875 569.910156 290.371094 537.941406 C 291.839844 539.003906 293.320313 539.988281 294.808594 540.914063 C 277.09375 565.59375 256.484375 603.300781 272.609375 636.136719 Z M 298.269531 527.972656 C 313.273438 509.691406 329.785156 492.839844 341.421875 478.90625 C 342.667969 477.414063 342.84375 477.636719 341.8125 479.210938 C 329.441406 498.09375 313.511719 516.492188 301.65625 531.769531 C 300.492188 530.601563 299.363281 529.335938 298.269531 527.972656 Z M 378.28125 379.519531 C 407.019531 403.1875 414.015625 455.5625 395.804688 495.328125 C 392.867188 501.738281 391.949219 500.851563 394.28125 494.519531 C 407.75 457.96875 400.785156 404.117188 376.476563 380.558594 C 371.507813 375.746094 372.617188 374.851563 378.28125 379.519531 Z M 388.820313 419.734375 C 396.828125 448.832031 393.257813 485.65625 379.539063 511.480469 C 366.464844 536.085938 331.007813 554.316406 306.25 535.777344 C 313.441406 526.273438 320.40625 518.277344 325.378906 511.996094 C 348.105469 483.269531 368.804688 457.832031 369.800781 428.214844 C 370.726563 400.753906 350.265625 386.585938 330.660156 389.183594 C 324.988281 389.9375 325.804688 389.347656 330.214844 386.738281 C 336.277344 383.148438 341.910156 378.335938 346.925781 373.304688 C 364.636719 376.625 381.101563 391.679688 388.820313 419.734375 Z M 346.609375 363.035156 C 326.996094 363.597656 308.175781 373.019531 297.746094 384.652344 C 292.882813 390.082031 294.203125 387.167969 299.203125 379.5 C 309.371094 363.910156 344.03125 344.027344 350.171875 328.941406 C 352.726563 322.660156 352.054688 317.597656 351.757813 315.621094 C 350.757813 308.957031 343.40625 307.09375 341.847656 315.289063 C 338.777344 331.417969 326.609375 342.566406 309.617188 358.851563 C 304.316406 363.929688 305.097656 363.394531 310.25 354.871094 C 325.519531 329.605469 352.433594 303.816406 350.042969 273.84375 C 348.945313 260.074219 337.972656 264.257813 338.082031 277.367188 C 338.246094 297.183594 327.804688 311.914063 317.699219 326.769531 C 308.195313 340.742188 307.351563 341.195313 314.617188 325.101563 C 329.5625 291.992188 337.738281 268.921875 340.132813 243.445313 C 364.695313 251.449219 374.4375 268.660156 375.285156 288.371094 C 360.542969 288.886719 352.371094 289.847656 352.371094 290.953125 C 352.371094 292.0625 360.550781 293.023438 375.304688 293.539063 C 374.519531 317.851563 361.464844 344.976563 346.609375 363.035156 Z M 378.210938 324.082031 C 377.984375 324.4375 377.808594 324.410156 377.9375 324.042969 C 381.5 313.953125 383.664063 303.660156 384.070313 293.773438 C 388.367188 293.859375 393.054688 293.910156 398.121094 293.929688 C 390.695313 304.703125 383.644531 315.417969 378.210938 324.082031 "/>
<path style=" stroke:none;fill-rule:nonzero;fill:rgb(0%,0%,0%);fill-opacity:1;" d="M 248.390625 302.929688 C 247.058594 302.59375 244.886719 303.65625 244.71875 304.824219 C 244.554688 305.992188 244.636719 309.773438 244.164063 310.621094 C 244.023438 310.878906 242.003906 313.878906 239.167969 318.039063 C 236.367188 316.136719 233.652344 315.238281 230.019531 315.238281 C 224.722656 315.242188 221.566406 316.402344 219.335938 317.949219 C 216.4375 313.695313 214.363281 310.613281 214.21875 310.351563 C 213.746094 309.5 213.828125 305.722656 213.664063 304.554688 C 213.496094 303.386719 211.328125 302.324219 209.992188 302.65625 C 208.660156 302.992188 207.496094 304.328125 207.996094 304.996094 C 208.496094 305.660156 207.585938 306.15625 206.476563 305.679688 C 205.363281 305.199219 202.933594 306.414063 202.769531 308.414063 C 202.601563 310.414063 204.769531 312.261719 207.101563 312.082031 C 208.640625 311.964844 211.988281 315.96875 215.804688 321.335938 C 210.699219 327.640625 208.992188 336.976563 215.839844 341.046875 C 217.191406 341.851563 219.09375 344.039063 219.761719 346.554688 C 214.789063 354.519531 213.761719 354.394531 209.40625 356.121094 C 208.3125 356.558594 208.167969 359.105469 208.957031 360.230469 C 209.746094 361.355469 211.414063 361.960938 211.855469 361.253906 C 212.300781 360.546875 213.085938 361.21875 213.039063 362.429688 C 212.992188 363.636719 215 365.46875 216.925781 364.902344 C 218.851563 364.339844 219.796875 361.652344 218.789063 359.542969 C 218.34375 358.605469 219.195313 356.550781 220.65625 354.027344 C 220.71875 353.917969 220.9375 353.863281 220.980469 353.945313 C 221.710938 355.273438 222.617188 356.269531 223.117188 356.6875 C 224.117188 357.519531 231.449219 357.1875 233.28125 357.019531 C 234.476563 356.910156 236.21875 355.792969 237.425781 353.789063 C 237.480469 353.699219 237.675781 353.664063 237.71875 353.738281 C 239.1875 356.273438 240.039063 358.332031 239.59375 359.269531 C 238.585938 361.382813 239.53125 364.070313 241.457031 364.632813 C 243.382813 365.195313 245.390625 363.367188 245.34375 362.15625 C 245.296875 360.949219 246.085938 360.273438 246.527344 360.980469 C 246.96875 361.6875 248.636719 361.082031 249.425781 359.960938 C 250.214844 358.835938 250.070313 356.285156 248.976563 355.851563 C 244.742188 354.167969 243.648438 354.238281 239.015625 346.910156 C 239.242188 344.519531 239.625 343.285156 242.328125 341.628906 C 247.714844 338.328125 248.804688 327.292969 242.910156 321.144531 C 246.589844 316.011719 249.789063 312.238281 251.28125 312.351563 C 253.613281 312.53125 255.78125 310.6875 255.617188 308.6875 C 255.449219 306.6875 253.019531 305.472656 251.910156 305.949219 C 250.796875 306.425781 249.886719 305.933594 250.386719 305.265625 C 250.886719 304.601563 249.722656 303.261719 248.390625 302.929688 Z M 223.925781 336.027344 C 223.03125 336.445313 222.054688 337.070313 221.539063 337.183594 C 221.023438 337.289063 219.859375 337.542969 218.882813 335.722656 C 217.910156 333.902344 217.472656 331.84375 218.96875 330.609375 C 220.464844 329.375 222.746094 328.820313 224.183594 330.117188 C 224.789063 330.664063 225.6875 332.84375 225.753906 333.816406 C 225.816406 334.792969 224.820313 335.605469 223.925781 336.027344 Z M 232 341.5 C 231.441406 341.589844 230.277344 341.453125 229.375 341.558594 C 228.472656 341.664063 226.992188 341.417969 227.207031 340.65625 C 227.421875 339.898438 229.460938 336.59375 229.660156 335.945313 C 229.808594 335.472656 230.003906 335.523438 230.246094 336.074219 C 230.492188 336.628906 231.132813 337.660156 231.882813 338.941406 C 232.628906 340.21875 232.558594 341.410156 232 341.5 Z M 240.34375 335.722656 C 239.367188 337.539063 238.203125 337.289063 237.691406 337.179688 C 237.175781 337.070313 236.195313 336.445313 235.300781 336.023438 C 234.410156 335.605469 233.410156 334.789063 233.476563 333.816406 C 233.539063 332.839844 234.441406 330.660156 235.046875 330.113281 C 236.480469 328.820313 238.765625 329.371094 240.261719 330.605469 C 241.753906 331.84375 241.320313 333.902344 240.34375 335.722656 "/>
</g>
</svg>
