<?xml version="1.0" encoding="UTF-8"?>
<svg xmlns="http://www.w3.org/2000/svg" xmlns:xlink="http://www.w3.org/1999/xlink" width="573pt" height="43pt" viewBox="0 0 573 43" version="1.1">
<g id="surface1">
<path style=" stroke:none;fill-rule:nonzero;fill:rgb(0%,0%,0%);fill-opacity:1;" d="M 563.394531 39.644531 C 541.015625 36.582031 396.960938 31.046875 374.460938 28.207031 C 327.589844 22.292969 274.042969 18.496094 226.9375 28.785156 C 219.402344 30.429688 199.714844 36.511719 196.699219 36.816406 C 195.328125 36.953125 195.28125 36.898438 196.46875 36.367188 C 211.128906 29.773438 213.679688 13.554688 213.429688 4.742188 C 213.351563 1.992188 213.242188 1.269531 211.828125 4.648438 C 207.730469 14.433594 193.976563 31.789063 166.671875 29.871094 C 177.890625 24.722656 180.320313 12.15625 181.230469 1.988281 C 181.457031 -0.546875 181.496094 -0.671875 179.949219 1.921875 C 171.003906 16.90625 158.742188 19.628906 136.1875 24.304688 C 93.917969 33.066406 31.917969 35.910156 17 38.070313 C -6.527344 41.476563 -5.476563 42.921875 21.253906 42.550781 C 21.507813 42.546875 557.753906 42.535156 563.503906 42.535156 C 576.027344 42.535156 574.667969 41.183594 563.394531 39.644531 Z M 377.753906 36.613281 C 376.285156 36.664063 226.226563 36.566406 226.226563 36.566406 C 278.167969 22.488281 356.148438 31.484375 378.082031 35.53125 C 383.042969 36.445313 381.566406 36.488281 377.753906 36.613281 "/>
</g>
</svg>
