<?xml version="1.0" encoding="UTF-8"?>
<svg xmlns="http://www.w3.org/2000/svg" xmlns:xlink="http://www.w3.org/1999/xlink" width="537pt" height="464pt" viewBox="0 0 537 464" version="1.1">
<g id="surface1">
<path style=" stroke:none;fill-rule:nonzero;fill:rgb(0%,0%,0%);fill-opacity:1;" d="M 170.835938 60.132813 C 172.65625 60.132813 174.132813 58.65625 174.132813 56.835938 C 174.132813 55.011719 172.65625 53.535156 170.835938 53.535156 C 169.011719 53.535156 167.535156 55.011719 167.535156 56.835938 C 167.535156 58.65625 169.011719 60.132813 170.835938 60.132813 "/>
<path style=" stroke:none;fill-rule:nonzero;fill:rgb(0%,0%,0%);fill-opacity:1;" d="M 134.835938 61.9375 C 136.914063 61.9375 138.605469 60.25 138.605469 58.164063 C 138.605469 56.085938 136.914063 54.394531 134.835938 54.394531 C 132.75 54.394531 131.0625 56.085938 131.0625 58.164063 C 131.0625 60.25 132.75 61.9375 134.835938 61.9375 "/>
<path style=" stroke:none;fill-rule:nonzero;fill:rgb(0%,0%,0%);fill-opacity:1;" d="M 130.175781 409.578125 L 193.894531 428.390625 C 195.066406 426.589844 195.785156 424.699219 196.6875 422.71875 C 189.574219 419.929688 131.886719 403.726563 131.886719 403.726563 L 130.175781 409.578125 "/>
<path style=" stroke:none;fill-rule:nonzero;fill:rgb(0%,0%,0%);fill-opacity:1;" d="M 131.554688 423.992188 C 136.410156 424.980469 141.542969 426.332031 146.222656 426.960938 C 146.492188 425.074219 147.214844 423.273438 147.574219 421.382813 L 132.902344 417.871094 C 132.09375 419.761719 131.644531 422.101563 131.554688 423.992188 "/>
<path style=" stroke:none;fill-rule:nonzero;fill:rgb(0%,0%,0%);fill-opacity:1;" d="M 162.910156 433.625 L 186.039063 440.734375 C 186.488281 438.753906 187.660156 436.773438 187.570313 434.703125 C 179.917969 432.273438 172.269531 430.023438 164.617188 427.773438 L 162.910156 433.625 "/>
<path style=" stroke:none;fill-rule:nonzero;fill:rgb(0%,0%,0%);fill-opacity:1;" d="M 164.835938 98.5625 C 170.820313 98.5625 175.675781 92.863281 175.675781 85.835938 C 175.675781 78.804688 170.820313 73.105469 164.835938 73.105469 C 158.84375 73.105469 153.992188 78.804688 153.992188 85.835938 C 153.992188 92.863281 158.84375 98.5625 164.835938 98.5625 Z M 165.164063 78.566406 C 167.769531 78.566406 169.882813 81.523438 169.882813 85.164063 C 169.882813 88.8125 167.769531 91.765625 165.164063 91.765625 C 162.5625 91.765625 160.453125 88.8125 160.453125 85.164063 C 160.453125 81.523438 162.5625 78.566406 165.164063 78.566406 "/>
<path style=" stroke:none;fill-rule:nonzero;fill:rgb(0%,0%,0%);fill-opacity:1;" d="M 359.046875 389.507813 L 356.703125 395.089844 C 372.273438 401.117188 391.535156 402.648438 408.996094 399.589844 C 408.996094 397.519531 408.273438 395.539063 407.914063 393.828125 C 391.085938 396.347656 374.703125 395.089844 359.046875 389.507813 "/>
<path style=" stroke:none;fill-rule:nonzero;fill:rgb(0%,0%,0%);fill-opacity:1;" d="M 444.164063 363.730469 C 442.085938 363.730469 440.394531 365.417969 440.394531 367.5 C 440.394531 369.582031 442.085938 371.269531 444.164063 371.269531 C 446.25 371.269531 447.9375 369.582031 447.9375 367.5 C 447.9375 365.417969 446.25 363.730469 444.164063 363.730469 "/>
<path style=" stroke:none;fill-rule:nonzero;fill:rgb(0%,0%,0%);fill-opacity:1;" d="M 534.90625 375.648438 C 533.554688 373.308594 531.125 371.597656 528.605469 371.148438 C 518.796875 370.429688 509.347656 371.507813 499.714844 370.699219 C 485.585938 370.070313 474.695313 361.878906 463.175781 355.128906 C 461.824219 348.378906 456.0625 343.429688 452.824219 337.398438 C 447.695313 330.738281 448.773438 321.558594 445.085938 314.269531 C 439.722656 304.546875 431.214844 308.25 427.355469 311.75 C 422.136719 320.210938 428.976563 328.488281 433.203125 335.507813 C 435.8125 341.089844 439.144531 346.667969 441.125 352.339844 L 424.925781 352.519531 C 415.5625 347.300781 409.265625 337.398438 402.695313 329.210938 C 399.035156 324.648438 395.132813 319.242188 390.449219 315.285156 C 379.683594 306.175781 369.4375 309.140625 371.824219 322.097656 C 377.046875 344.597656 400.625 358.550781 418.445313 371.148438 C 419.4375 372.320313 418.445313 373.847656 418.445313 375.199219 C 416.824219 381.589844 411.5 382.5 405.125 383.839844 C 378.96875 385.828125 353.457031 382.792969 338.265625 373.011719 C 314.476563 357.695313 316.558594 351.511719 311.097656 330.589844 C 309.597656 324.84375 302.492188 318.90625 296.722656 329.25 C 294.488281 333.253906 293.25 336.5 293.164063 342.617188 C 292.839844 366.113281 317.105469 383.117188 336.003906 391.847656 L 333.847656 393.828125 C 328.085938 393.289063 323.136719 392.839844 317.375 394.1875 C 310.804688 395 305.765625 390.679688 299.464844 390.140625 C 293.523438 389.148438 287.765625 390.320313 284.164063 395.089844 C 282.726563 397.429688 281.914063 400.21875 282.636719 403.097656 C 283.175781 404.269531 284.4375 405.4375 285.605469 405.890625 C 296.136719 405.617188 304.324219 410.75 313.6875 413.269531 C 316.203125 413.539063 319.175781 413.449219 321.246094 414.078125 C 320.703125 415.699219 319.355469 416.960938 317.824219 417.589844 C 306.9375 419.027344 293.347656 419.117188 289.296875 431.628906 C 287.496094 435.5 287.226563 441.710938 290.195313 445.21875 C 297.484375 451.699219 300.726563 439.277344 307.023438 438.109375 C 315.980469 432.574219 327.410156 433.820313 338.503906 434.027344 C 350.445313 434.25 360.480469 432.929688 365.6875 425.636719 C 366.867188 423.980469 368.019531 422.59375 370.113281 423.796875 C 390.097656 431.089844 413.3125 430.640625 434.015625 435.949219 L 476.765625 458.359375 C 483.695313 461.328125 491.074219 466.277344 499.085938 463.308594 C 502.324219 461.957031 504.304688 458.628906 504.214844 455.117188 C 500.4375 440.539063 481.804688 448.367188 474.425781 438.289063 C 484.054688 440.988281 497.375 445.398438 506.644531 438.738281 C 507.90625 437.027344 509.523438 434.777344 508.535156 432.257813 C 507.1875 428.660156 503.40625 427.21875 500.164063 426.410156 C 488.878906 424.691406 477.285156 423.59375 466.617188 420.433594 C 464.4375 419.789063 449.40625 414.710938 449.136719 408.949219 C 462.097656 411.917969 475.234375 415.070313 488.015625 417.769531 C 495.484375 418.9375 504.574219 419.839844 511.324219 416.6875 C 513.304688 415.519531 515.105469 413.539063 515.285156 411.289063 C 515.015625 409.21875 514.203125 407.238281 512.226563 406.070313 L 495.265625 399.253906 C 495.265625 399.253906 494.871094 398.289063 495.839844 398.277344 C 509.121094 398.128906 524.0625 398.84375 533.375 388.609375 C 536.074219 385.1875 536.886719 379.609375 534.90625 375.648438 Z M 434.914063 326.597656 C 433.925781 323.089844 431.40625 319.9375 432.125 316.066406 C 434.195313 313.730469 438.335938 314.71875 439.414063 317.507813 C 442.113281 325.066406 454.804688 351.890625 454.804688 351.890625 L 448.054688 351.890625 C 443.914063 343.429688 440.496094 334.519531 434.914063 326.597656 Z M 289.113281 400.039063 C 288.847656 398.238281 290.914063 397.429688 292.085938 396.796875 C 302.074219 394.1875 309.273438 402.558594 318.726563 400.488281 C 321.785156 399.769531 325.023438 398.597656 328.445313 399.410156 C 326.375 401.839844 324.847656 404.539063 323.675781 407.417969 C 310.714844 409.128906 301.984375 399.320313 289.113281 400.039063 Z M 501.875 433.789063 C 501.335938 434.867188 499.714844 434.960938 498.636719 435.5 C 485.675781 436.578125 474.445313 433.585938 462.835938 430.167969 L 459.753906 424.878906 C 472.894531 430.097656 488.105469 430.007813 501.875 433.789063 Z M 492.15625 451.699219 C 494.226563 452.507813 496.746094 453.140625 497.734375 455.570313 C 497.734375 456.828125 496.296875 457.367188 495.394531 457.910156 C 490.175781 458.269531 485.765625 455.117188 481.085938 453.410156 L 437.703125 430.546875 C 416.644531 423.976563 392.4375 425.238281 371.824219 417.769531 C 371.824219 416.148438 373.445313 414.617188 373.804688 412.820313 L 368.136719 410.210938 C 364.535156 416.328125 360.484375 425.777344 352.203125 427.039063 C 333.394531 428.75 312.964844 424.070313 298.203125 436.128906 L 294.695313 439.546875 C 293.703125 435.679688 294.164063 433.167969 298.5625 429.019531 C 306.597656 421.441406 321.785156 428.839844 327.097656 416.867188 C 329.074219 405.796875 338.523438 398.148438 346.804688 391.21875 L 346.921875 387.503906 C 346.921875 387.503906 345.050781 385.054688 344.207031 385.457031 C 343.363281 385.863281 342.574219 386.492188 341.765625 386.898438 C 325.5625 380.6875 306.753906 368 300.546875 350.359375 C 298.386719 343.429688 300.453125 336.050781 303.785156 330.289063 C 308.207031 336.867188 305.820313 342.515625 310.652344 351.914063 C 319.1875 368.503906 335.523438 382.605469 353.464844 385.546875 C 389.546875 392.3125 408.363281 389.507813 408.363281 389.507813 C 418.085938 400.847656 429.425781 410.390625 443.285156 412.546875 C 452.914063 430.640625 470.734375 450.078125 492.15625 451.699219 Z M 478.296875 389.867188 L 467.945313 381.5 L 463.445313 385.820313 C 475.773438 398.867188 491.886719 405.4375 507.90625 411.109375 C 498.726563 414.527344 489.363281 411.199219 480.273438 409.757813 L 443.285156 400.9375 C 435.003906 397.160156 427.175781 391.757813 420.425781 384.46875 C 423.847656 381.140625 425.015625 376.367188 425.644531 371.507813 L 427.085938 369.617188 C 410.574219 356.394531 386.261719 345.300781 379.082031 323.863281 C 374.847656 311.222656 381.039063 314.609375 387.65625 320.992188 C 389.902344 323.15625 391.847656 325.765625 393.605469 328.128906 C 413.5 354.835938 428.613281 359.269531 428.613281 359.269531 C 441.035156 359.539063 454.265625 355.039063 464.523438 363.140625 C 475.570313 370.679688 487.324219 376.671875 501.207031 377.464844 C 503.726563 377.609375 513.125 377.359375 513.125 377.359375 C 513.304688 382.308594 515.285156 386.71875 519.335938 389.867188 C 506.195313 393.109375 491.613281 392.210938 478.296875 389.867188 "/>
<path style=" stroke:none;fill-rule:nonzero;fill:rgb(0%,0%,0%);fill-opacity:1;" d="M 459.164063 362.394531 C 457.085938 362.394531 455.394531 364.085938 455.394531 366.167969 C 455.394531 368.25 457.085938 369.9375 459.164063 369.9375 C 461.25 369.9375 462.9375 368.25 462.9375 366.167969 C 462.9375 364.085938 461.25 362.394531 459.164063 362.394531 "/>
<path style=" stroke:none;fill-rule:nonzero;fill:rgb(0%,0%,0%);fill-opacity:1;" d="M 181.566406 391.847656 C 183.363281 390.859375 185.164063 389.960938 186.964844 388.789063 C 183.273438 381.679688 178.863281 374.660156 174.816406 367.910156 L 169.863281 371.328125 L 181.566406 391.847656 "/>
<path style=" stroke:none;fill-rule:nonzero;fill:rgb(0%,0%,0%);fill-opacity:1;" d="M 235.746094 397.25 C 237.636719 396.347656 239.703125 395.628906 241.144531 394.1875 C 233.40625 380.597656 223.953125 367.367188 213.695313 355.128906 L 209.824219 359.628906 C 219.363281 371.777344 228.003906 384.378906 235.746094 397.25 "/>
<path style=" stroke:none;fill-rule:nonzero;fill:rgb(0%,0%,0%);fill-opacity:1;" d="M 127.746094 278.628906 C 138.816406 309.140625 152.136719 338.660156 167.703125 367.1875 L 172.925781 363.949219 C 157.984375 335.597656 144.214844 306.4375 133.414063 276.46875 L 127.746094 278.628906 "/>
<path style=" stroke:none;fill-rule:nonzero;fill:rgb(0%,0%,0%);fill-opacity:1;" d="M 275.074219 400.039063 C 267.246094 403.726563 263.464844 412.097656 258.425781 417.769531 C 256.894531 411.828125 253.746094 406.25 251.765625 400.667969 C 252.214844 400.667969 256.355469 398.777344 257.34375 397.25 C 245.195313 355.308594 224.765625 316.339844 190.65625 283.847656 L 205.953125 237.859375 C 233.496094 253.429688 260.496094 271.066406 284.164063 295.097656 C 284.703125 298.160156 285.425781 301.128906 287.136719 303.738281 C 290.644531 308.6875 295.773438 311.300781 301.445313 311.929688 C 304.6875 312.109375 307.386719 310.847656 309.8125 308.867188 L 343.5625 331.367188 L 389.554688 364.398438 L 407.015625 378.890625 L 411.15625 374.390625 C 406.023438 369.617188 401.164063 365.570313 395.765625 361.429688 L 359.046875 334.609375 L 313.054688 303.46875 C 313.054688 303.46875 314.910156 297.535156 310.875 292.394531 C 309.132813 290.179688 306.796875 288.363281 304.414063 287.089844 C 271.476563 240.917969 229.714844 192.410156 181.113281 162.078125 C 187.414063 126.800781 191.734375 87.738281 187.414063 51.019531 C 195.027344 42.320313 199.964844 36.410156 204.082031 25.257813 C 210.878906 6.855469 201.414063 -1.398438 181.851563 -0.34375 C 170.234375 0.28125 158.152344 6.164063 148.535156 10.609375 C 136.925781 5.117188 120.636719 1.429688 109.203125 9.800781 C 98.222656 18.617188 94.355469 31.9375 96.695313 45.800781 C 94.355469 49.488281 92.375 53.628906 93.183594 58.398438 C 93.722656 60.199219 95.34375 61.640625 97.054688 62.449219 C 101.105469 62.808594 98.042969 66.140625 97.503906 67.847656 C 95.734375 73.867188 98.179688 79.613281 107.246094 79.886719 C 110.238281 79.976563 112.804688 80.3125 112.445313 84.5 C 109.296875 84.859375 106.324219 85.308594 103.804688 87.109375 C 100.566406 89.898438 100.835938 94.128906 101.824219 97.910156 C 105.066406 106.1875 113.976563 109.429688 120.636719 113.210938 C 124.054688 125.539063 128.464844 137.6875 131.4375 149.929688 L 23.832031 74.164063 L 19.746094 73.519531 C 18.933594 71.089844 17.585938 68.929688 15.875 67.039063 C 11.132813 61.066406 2.964844 60.824219 1.207031 68.929688 C -0.144531 77.839844 0.753906 87.738281 7.863281 93.769531 C 9.753906 92.960938 9.113281 96.664063 9.832031 97.835938 L 108.753906 192.949219 C 112.535156 215.449219 112.714844 240.019531 115.234375 263.328125 C 113.886719 268.277344 114.695313 273.589844 115.6875 278.449219 C 124.863281 311.117188 141.695313 340.550781 157.535156 370.429688 L 179.585938 409.308594 C 181.65625 409.398438 183.546875 409.128906 185.4375 408.949219 C 187.144531 405.527344 188.675781 402.019531 191.734375 399.226563 C 199.203125 408.679688 203.4375 419.390625 204.875 431.359375 C 206.945313 431.089844 208.65625 430.097656 210.726563 429.828125 C 210.636719 428.296875 210.003906 426.949219 209.644531 425.507813 C 209.644531 425.507813 225.273438 406.664063 226.003906 405.972656 C 227.589844 404.480469 229.140625 402.53125 223.042969 405.164063 C 218.652344 407.066406 214.550781 409.648438 210.09375 411.46875 C 207.394531 406.429688 205.6875 400.9375 203.976563 395.539063 C 205.324219 394.1875 207.125 394.007813 208.566406 392.929688 C 207.214844 385.277344 205.234375 377.71875 203.613281 370.429688 L 237.90625 414.976563 C 239.976563 414.257813 244.785156 413.699219 245.191406 414.144531 C 250.894531 420.417969 254.246094 427.644531 257.523438 434.867188 C 260.046875 435.769531 260.675781 432.4375 262.566406 431.359375 C 262.203125 430.460938 262.296875 429.378906 261.664063 428.570313 C 266.34375 419.210938 272.824219 410.476563 276.964844 400.9375 C 276.785156 400.039063 275.886719 400.039063 275.074219 400.039063 Z M 302.335938 291.835938 C 305.8125 293.699219 307.335938 297.164063 307.203125 299.148438 C 305.585938 298.429688 303.515625 297.347656 301.804688 295.910156 C 300.273438 297.257813 299.644531 299.328125 298.203125 300.949219 C 299.464844 302.660156 301.804688 303.917969 303.785156 305 C 300.726563 306.527344 296.445313 305.160156 293.835938 303 C 291.402344 301.199219 290.761719 298.339844 289.5 296 C 289.5 296 291.90625 293.210938 291.90625 292.9375 C 295.222656 291.253906 299.277344 290.195313 302.335938 291.835938 Z M 243.304688 225.347656 C 261.484375 242.179688 278.945313 259.640625 291.003906 279.710938 L 285.875 282.769531 C 274.175781 263.238281 256.265625 245.6875 239.4375 229.398438 Z M 9.84375 86.660156 C 7.054688 81.890625 5.707031 75.230469 7.863281 69.828125 C 11.464844 70.097656 12.636719 74.148438 13.894531 76.757813 C 11.734375 79.730469 10.207031 82.96875 9.84375 86.660156 Z M 182.015625 6.109375 C 188.496094 6.378906 195.875 6.378906 199.023438 12.769531 C 200.554688 24.648438 192.546875 33.558594 185.886719 42.558594 C 184.535156 39.140625 184.445313 34.730469 180.664063 32.660156 C 164.734375 27.167969 144.394531 27.347656 127.746094 31.398438 C 144.214844 20.6875 161.40625 8.539063 182.015625 6.109375 Z M 118.925781 15.558594 C 122.164063 14.300781 125.675781 13.667969 129.453125 13.667969 L 129.453125 19.519531 C 122.703125 19.429688 116.765625 22.128906 112.894531 27.890625 L 110.734375 31.757813 L 105.515625 30.316406 C 106.773438 24.378906 112.804688 17.898438 118.925781 15.558594 Z M 103.355469 70.910156 C 104.613281 67.9375 106.234375 64.789063 105.335938 61.1875 C 103.835938 55.835938 96.066406 58.398438 100.113281 53.179688 L 104.253906 46.878906 L 109.835938 73.878906 C 107.855469 73.789063 104.164063 73.789063 103.355469 70.910156 Z M 125.855469 108.078125 C 121 105.933594 115.042969 103.835938 111.136719 99.863281 C 105.464844 94.097656 108.378906 90.574219 114.160156 91.238281 C 116.136719 91.464844 118.191406 91.882813 120.1875 92.238281 L 110.464844 44.359375 C 129.816406 35.628906 155.914063 31.488281 177.425781 38.6875 C 186.515625 67.308594 182.285156 99.980469 179.40625 130.039063 C 159.964844 124.640625 141.785156 106.550781 134.046875 87.917969 C 129.84375 89.363281 129.625 91.484375 130.644531 93.769531 C 135.96875 105.722656 138.617188 111.785156 151.117188 122.15625 C 159.273438 128.921875 168.980469 133.832031 178.503906 136.519531 L 174.816406 160.097656 C 162.664063 157.667969 150.964844 153.890625 138.996094 151.007813 Z M 123.875 200.507813 C 126.125 200.6875 127.925781 200.058594 130.175781 200.238281 L 128.824219 215.179688 L 123.695313 214.730469 Z M 122.796875 220.757813 L 128.375 221.480469 C 127.476563 234.527344 126.574219 248.480469 127.566406 261.617188 L 121.535156 260.089844 C 121.265625 247.039063 120.726563 233.179688 122.796875 220.757813 Z M 111.816406 178.277344 L 20.644531 95.117188 L 24.515625 90.800781 L 116.765625 175.847656 Z M 238.984375 406.070313 L 196.863281 350.988281 C 189.574219 329.660156 179.226563 309.5 167.976563 289.699219 L 162.753906 293.75 C 179.496094 323.359375 193.085938 354.316406 201.003906 387.527344 C 192.636719 386.71875 186.335938 394.640625 182.375 400.9375 C 163.746094 368.71875 145.65625 335.867188 130.535156 302.027344 C 126.304688 291.140625 120.996094 280.429688 120.453125 268.277344 C 143.675781 271.878906 165.90625 278.179688 186.066406 289.25 C 218.554688 318.589844 237.546875 355.757813 249.964844 394.460938 C 244.386719 395.449219 241.144531 401.75 238.984375 406.070313 "/>
<path style=" stroke:none;fill-rule:nonzero;fill:rgb(0%,0%,0%);fill-opacity:1;" d="M 210.90625 350.808594 C 207.753906 346.757813 204.335938 342.710938 201.003906 338.75 L 196.234375 342.617188 L 206.40625 355.128906 C 206.40625 355.128906 210.09375 352.339844 210.90625 350.808594 "/>
</g>
</svg>
