<?xml version="1.0" encoding="UTF-8"?>
<svg xmlns="http://www.w3.org/2000/svg" xmlns:xlink="http://www.w3.org/1999/xlink" width="349pt" height="414pt" viewBox="0 0 349 414" version="1.1">
<g id="surface1">
<path style=" stroke:none;fill-rule:nonzero;fill:rgb(0%,0%,0%);fill-opacity:1;" d="M 348.117188 267.40625 L 348.117188 231.578125 C 348.117188 231.578125 269.289063 246.550781 206.398438 212.792969 C 223.003906 251.316406 209.609375 285.132813 209.609375 285.132813 L 274.71875 272.882813 C 279.101563 293.917969 278.660156 318.894531 262.890625 334.453125 C 250.839844 345.183594 231.996094 346.71875 217.972656 345.625 C 196.9375 343.871094 178.535156 328.316406 167.578125 310.789063 C 148.957031 275.730469 126.1875 235.191406 128.324219 193.53125 C 137.921875 6.285156 310.742188 59.640625 321.695313 60.738281 L 322.378906 26.179688 C 292.988281 -3.210938 85.078125 -42.285156 18.371094 117.539063 C -13.160156 193.09375 -0.03125 282.304688 47.511719 345.625 C 78.84375 379.367188 113.460938 405.875 155.746094 413.328125 C 198.035156 417.050781 237.691406 411.574219 272.308594 392.074219 C 315.472656 363.589844 349.433594 319.113281 348.117188 267.40625 Z M 144.574219 318.019531 C 122.664063 311.664063 78.464844 263.515625 113.023438 217.671875 C 91.988281 207.371094 75.523438 139.28125 127.265625 119.949219 C 105.660156 59.894531 177.335938 46.441406 200.121094 55.972656 C 33.105469 139.011719 164.960938 409.902344 250.050781 347.464844 C 250.050781 370.910156 155.648438 406.855469 144.574219 318.019531 "/>
</g>
</svg>
