<?xml version="1.0" encoding="UTF-8"?>
<svg xmlns="http://www.w3.org/2000/svg" xmlns:xlink="http://www.w3.org/1999/xlink" width="284pt" height="362pt" viewBox="0 0 284 362" version="1.1">
<g id="surface1">
<path style=" stroke:none;fill-rule:nonzero;fill:rgb(0%,0%,0%);fill-opacity:1;" d="M 275.136719 115.011719 C 262.65625 77.753906 232.917969 41.691406 197.710938 19.644531 C 168.824219 1.011719 124.21875 -9.753906 93.109375 11.78125 C 32.609375 44.253906 -5.164063 106.980469 1.332031 175.34375 C 5.945313 231.746094 41.667969 287.804688 95.503906 311.390625 C 81.488281 326.945313 64.910156 337.714844 49.359375 348.308594 C 63.203125 357.710938 80.636719 360.445313 98.070313 362.496094 L 125.757813 320.621094 C 164.726563 326.433594 202.667969 311.90625 230.355469 285.585938 C 272.058594 239.78125 297.183594 176.542969 275.136719 115.011719 Z M 136.183594 14.171875 C 156.347656 28.699219 287.285156 162.167969 142.847656 300.96875 C -80.355469 165.753906 136.183594 14.171875 136.183594 14.171875 Z M 196.515625 262.167969 C 196.515625 303.609375 152.761719 313.785156 138.574219 311.390625 C 295.757813 182.035156 167.972656 29.042969 157.714844 19.644531 C 177.371094 19.644531 228.460938 38.214844 213.605469 96.039063 C 232.746094 105.269531 262.660156 147.3125 224.203125 185.769531 C 245.828125 235.769531 213.433594 252.9375 196.515625 262.167969 "/>
</g>
</svg>
