<?xml version="1.0" encoding="UTF-8"?>
<svg xmlns="http://www.w3.org/2000/svg" xmlns:xlink="http://www.w3.org/1999/xlink" width="512pt" height="485pt" viewBox="0 0 512 485" version="1.1">
<g id="surface1">
<path style=" stroke:none;fill-rule:nonzero;fill:rgb(0%,0%,0%);fill-opacity:1;" d="M 511.074219 15.675781 L 383.476563 13.574219 L 384.375 25.273438 L 381.976563 92.976563 L 295.875 96.574219 L 201.074219 -0.125 C 197.976563 0.175781 109.875 1.074219 109.875 1.074219 L 109.175781 85.074219 L 153.574219 132.875 L 37.375 267.675781 L 303.074219 485.175781 C 303.074219 485.175781 422.949219 341.949219 423.625 342.351563 C 424.300781 342.75 425.023438 343.476563 425.675781 343.574219 C 429.074219 343.875 432.375 344.574219 434.074219 340.675781 L 503.175781 185.375 C 502.675781 182.675781 511.074219 15.675781 511.074219 15.675781 Z M 438.375 31.773438 L 468.875 34.476563 L 465.273438 125.675781 C 457.175781 136.574219 449.074219 147.574219 441.074219 158.476563 L 429.476563 130.875 Z M 399.976563 28.675781 L 415.875 29.875 L 409.574219 125.375 L 392.074219 143.175781 Z M 290.574219 122.074219 L 310.476563 196.175781 L 289.875 223.574219 L 222.875 187.773438 L 225.773438 156.074219 L 278.074219 180.375 C 278.574219 160.875 277.273438 141.273438 277.375 122.074219 Z M 125.375 18.875 L 179.976563 18.875 L 260.074219 109.074219 L 261.273438 151.074219 L 221.675781 134.773438 L 127.375 28.875 C 124.230469 23.285156 125.375 18.875 125.375 18.875 Z M 123.773438 73.773438 L 123.273438 52.675781 L 213.074219 154.675781 L 212.375 175.773438 Z M 166.476563 146.976563 C 166.476563 146.976563 219.476563 203.976563 220.976563 205.074219 L 366.675781 289.074219 C 383.199219 296.4375 382.921875 287.742188 381.558594 282.496094 C 381.050781 280.546875 321.273438 121.574219 321.273438 121.574219 C 318.273438 120.175781 316.574219 116.773438 314.074219 114.875 L 381.273438 113.175781 L 379.074219 172.175781 C 379.074219 172.175781 404.074219 276.574219 404.574219 280.175781 L 345.976563 345.476563 L 298.976563 271.273438 C 298.976563 271.273438 271.476563 314.074219 253.875 332.976563 L 239.175781 345.976563 L 95.175781 232.175781 Z M 321.773438 239.875 L 333.074219 228.074219 L 355.875 265.273438 C 344.476563 256.773438 333.175781 248.375 321.773438 239.875 Z M 297.375 319.875 L 277.375 354.375 L 257.175781 356.273438 C 257.175781 356.273438 286.476563 320.273438 297.976563 301.074219 L 332.074219 355.773438 L 332.273438 355.976563 L 321.273438 355.976563 Z M 321.273438 385.777344 C 321.273438 385.777344 265.175781 386.277344 264.875 386.277344 C 277.375 373.875 287.476563 361.375 297.976563 348.574219 Z M 340.976563 369.976563 C 341.074219 370.375 408.675781 295.976563 408.675781 295.976563 L 411.074219 304.875 L 338.074219 381.976563 L 331.074219 371.175781 Z M 84.375 244.875 C 84.375 244.875 241.648438 371.347656 244.464844 371.988281 C 248.765625 372.964844 253.761719 372.289063 258.175781 373.074219 C 254.074219 377.273438 249.074219 382.175781 243.976563 386.277344 L 77.976563 253.273438 C 79.175781 250.375 82.773438 247.875 84.375 244.875 Z M 416.273438 326.976563 L 300.875 463.976563 L 63.773438 270.375 L 66.375 266.773438 L 239.175781 401.574219 L 340.976563 400.675781 L 414.375 322.175781 C 414.375 322.175781 417.074219 325.175781 416.273438 326.976563 Z M 426.175781 305.375 L 421.074219 269.375 L 438.875 269.875 C 434.675781 281.675781 430.574219 293.574219 426.175781 305.375 Z M 444.175781 242.476563 L 421.074219 242.476563 L 392.273438 163.273438 L 414.675781 140.976563 L 431.675781 195.675781 L 470.574219 153.476563 C 473.175781 155.675781 476.476563 159.273438 479.476563 162.074219 Z M 309.273438 76.875 L 254.773438 22.875 L 372.175781 19.773438 L 366.875 79.574219 Z M 16.773438 267.476563 L 229.175781 446.476563 L 0.375 447.976563 L 1.375 21.273438 L 90.375 22.675781 L 87.976563 93.273438 L 126.175781 130.476563 Z M 418.976563 368.773438 L 421.875 447.675781 L 354.875 446.476563 L 418.976563 368.773438 "/>
</g>
</svg>
