<?xml version="1.0" encoding="UTF-8"?>
<svg xmlns="http://www.w3.org/2000/svg" xmlns:xlink="http://www.w3.org/1999/xlink" width="482pt" height="393pt" viewBox="0 0 482 393" version="1.1">
<g id="surface1">
<path style=" stroke:none;fill-rule:nonzero;fill:rgb(0%,0%,0%);fill-opacity:1;" d="M 30.328125 186.253906 L 103.136719 170.683594 L 82.828125 117.3125 L 87.566406 63.402344 C 87.566406 63.402344 130.367188 51.007813 184.367188 40.808594 C 238.367188 30.609375 267.476563 29.925781 267.476563 29.925781 C 267.476563 29.925781 309.664063 45.828125 336.71875 63.214844 C 363.773438 80.597656 375.925781 85.8125 375.925781 85.8125 L 375.925781 0.046875 L 0.988281 0.046875 L 0.988281 371.109375 L 195.925781 371.109375 L 25.828125 241.152344 L 30.328125 186.253906 "/>
<path style=" stroke:none;fill-rule:nonzero;fill:rgb(0%,0%,0%);fill-opacity:1;" d="M 475.734375 238.542969 L 455.394531 227.472656 C 460.074219 224.230469 465.113281 221.894531 469.703125 218.472656 C 462.863281 198.851563 453.773438 180.222656 441.804688 162.761719 C 387.804688 114.703125 329.933594 75.105469 267.925781 45.855469 C 267.925781 45.855469 193.226563 43.515625 98.367188 77.171875 C 97.464844 89.144531 96.566406 103.09375 96.65625 115.242188 C 105.835938 137.921875 115.914063 160.242188 127.976563 181.753906 L 127.976563 182.5625 L 47.605469 200.113281 L 40.945313 236.382813 L 260.363281 392.980469 L 481.3125 266.351563 C 479.605469 257.082031 477.984375 247.632813 475.734375 238.542969 Z M 143.726563 75.644531 L 186.925781 65.5625 C 212.214844 60.972656 238.136719 57.464844 265.136719 57.734375 L 286.105469 66.824219 C 337.585938 91.933594 384.742188 127.484375 430.105469 167.441406 C 422.28125 171.871094 414.519531 176.542969 406.617188 181.007813 C 404.882813 181.988281 405.402344 183.464844 407.410156 183.195313 C 417.644531 181.820313 427.878906 179.746094 438.113281 178.242188 C 445.042969 190.03125 451.074219 202.09375 456.925781 214.332031 C 456.925781 214.332031 412.375 234.761719 411.5625 232.511719 C 407.425781 216.402344 403.914063 200.023438 395.8125 185.621094 C 377.09375 167.351563 356.214844 152.683594 335.515625 138.28125 C 326.425781 132.523438 317.246094 126.582031 307.253906 122.984375 C 283.382813 121.347656 239.558594 135.480469 230.757813 147.824219 C 231.164063 157.234375 253.886719 178.511719 253.886719 178.511719 L 291.464844 218.316406 L 248.425781 237.3125 L 248.664063 240.703125 L 299.425781 231.160156 L 319.945313 278.230469 L 319.945313 278.683594 C 299.335938 288.582031 278.1875 297.402344 255.414063 302.261719 C 249.296875 276.703125 242.726563 251.410156 227.964844 229.453125 L 198.804688 191.023438 L 114.117188 84.28125 C 123.476563 80.683594 133.824219 78.433594 143.726563 75.644531 Z M 287.996094 166.8125 L 337.226563 181.484375 C 332.453125 185.804688 326.0625 190.480469 320.394531 194.894531 L 266.84375 175.902344 L 262.523438 171.132813 C 270.894531 169.421875 279.265625 167.621094 287.996094 166.8125 Z M 256.046875 163.121094 C 253.613281 161.144531 250.824219 157.632813 250.195313 154.484375 C 254.605469 150.523438 292.046875 136.664063 305.90625 133.332031 C 316.074219 137.292969 324.894531 144.222656 334.253906 149.984375 C 335.246094 157.09375 336.59375 164.023438 337.496094 171.132813 L 291.503906 156.28125 Z M 351.265625 182.832031 L 353.0625 163.394531 C 363.414063 170.863281 377.242188 180.101563 386.425781 189.910156 C 386.425781 189.910156 374.394531 219.371094 369.625 233.324219 L 318.683594 209.382813 C 328.765625 200.023438 340.554688 191.832031 351.265625 182.832031 Z M 111.359375 125.589844 C 110.425781 123.09375 114.140625 124.414063 114.140625 124.414063 L 211.136719 238.542969 C 206.816406 253.394531 203.574219 268.691406 197.273438 282.820313 L 139.40625 243.042969 C 148.136719 234.042969 156.777344 225.402344 165.777344 216.671875 C 144.699219 187.570313 123.625 158.386719 111.359375 125.589844 Z M 98.1875 200.113281 L 136.4375 226.210938 L 118.707031 243.3125 L 199.4375 297.492188 L 193.855469 301.179688 C 193.855469 301.179688 67.945313 216.042969 61.015625 210.910156 Z M 53.90625 237.011719 C 53.546875 231.160156 54.445313 226.121094 54.984375 220.363281 L 257.304688 354.550781 L 257.753906 375.070313 Z M 256.945313 337.632813 L 236.785156 326.472656 C 236.785156 326.472656 319.765625 291.910156 335.515625 283.632813 C 332.726563 276.433594 329.214844 269.59375 326.0625 262.480469 C 337.046875 257.261719 348.386719 252.851563 359.273438 247.363281 L 350.003906 243.3125 L 321.023438 251.953125 L 307.253906 222.34375 L 392.574219 257.53125 C 412.644531 251.050781 432.085938 242.953125 451.703125 235.300781 L 467.902344 241.960938 L 256.945313 337.632813 "/>
<path style=" stroke:none;fill-rule:nonzero;fill:rgb(0%,0%,0%);fill-opacity:1;" d="M 360.625 182.789063 C 353.59375 182.789063 347.894531 190.007813 347.894531 198.910156 C 347.894531 207.816406 353.59375 215.035156 360.625 215.035156 C 367.652344 215.035156 373.351563 207.816406 373.351563 198.910156 C 373.351563 190.007813 367.652344 182.789063 360.625 182.789063 "/>
<path style=" stroke:none;fill-rule:nonzero;fill:rgb(0%,0%,0%);fill-opacity:1;" d="M 184.226563 267.878906 C 193.597656 267.878906 201.195313 258.757813 201.195313 247.511719 C 201.195313 236.265625 193.597656 227.148438 184.226563 227.148438 C 174.855469 227.148438 167.253906 236.265625 167.253906 247.511719 C 167.253906 258.757813 174.855469 267.878906 184.226563 267.878906 "/>
</g>
</svg>
