<?xml version="1.0" encoding="UTF-8"?>
<svg xmlns="http://www.w3.org/2000/svg" xmlns:xlink="http://www.w3.org/1999/xlink" width="419pt" height="611pt" viewBox="0 0 419 611" version="1.1">
<g id="surface1">
<path style=" stroke:none;fill-rule:nonzero;fill:rgb(0%,0%,0%);fill-opacity:1;" d="M 410.5 430.800781 C 398.597656 403.949219 380.289063 379.570313 359.746094 356.28125 C 348.535156 343.570313 286.398438 282.898438 286.398438 282.898438 L 296.199219 272.398438 L 267.398438 234.5 L 254.699219 233.5 C 253.800781 222.5 253.300781 211.601563 254.199219 200.398438 C 259.699219 168.601563 265.5 137.5 264.101563 103.199219 C 263.019531 80.960938 261.25 56.992188 251.871094 37.820313 C 239.222656 11.972656 226.6875 -0.613281 175 -0.300781 C 118.976563 7.332031 83.132813 39.128906 63.773438 58.769531 C 37.238281 85.683594 23.960938 121.960938 14 156.699219 C 4.601563 194.800781 -2.898438 235.101563 1 277.199219 C 5.296875 304.050781 37.9375 328.246094 57.898438 338.601563 C 62.101563 339.101563 65.398438 337.101563 68.5 335 C 68.5 335 98.289063 352.726563 113.101563 354.699219 C 114.699219 354.199219 116 352.898438 116.5 351.300781 C 118.101563 346.101563 117.199219 340.199219 112.601563 336.699219 L 32.699219 285.101563 L 22.601563 285.300781 C 19.101563 282 18.898438 277.199219 17.800781 272.898438 C 15.265625 192.597656 124.867188 61.234375 175.300781 28.101563 C 189.101563 18 209.398438 14.699219 225.898438 21.101563 C 248.476563 32.113281 258.644531 133.28125 225.199219 212.101563 C 211.199219 204.5 193 199.101563 176.699219 204.898438 C 157.199219 212.699219 148.601563 233.300781 145.300781 252 C 139.5 287 147.300781 322.398438 177.199219 342.699219 C 173.011719 344.683594 166.378906 346.785156 159.902344 345.140625 C 155.332031 343.980469 143.75 338.75 134.761719 337.097656 C 123.703125 335.0625 118.144531 342.441406 125.757813 353.90625 C 134.660156 367.3125 151.257813 374.886719 163.800781 384 L 208.199219 410.101563 C 207.335938 412.90625 205.433594 415.828125 200.515625 417.304688 C 196.871094 418.398438 192.546875 418 188.5 418 C 186.601563 415.898438 187.199219 412.300781 186.101563 409.601563 C 180.898438 411.300781 174.101563 412.601563 168.800781 410.398438 L 122.199219 384.898438 L 96.300781 372.5 C 78.800781 365.300781 61 356.601563 40.199219 359.5 C 29.199219 362.101563 16 365.25 9.699219 373.199219 C 3.300781 382.601563 6.898438 394.5 12.300781 403.199219 C 11.199219 417.398438 25.800781 426.398438 36.800781 431.5 C 57.898438 442.601563 84.398438 440.800781 109.5 442.300781 C 139.101563 446.214844 169.441406 448.414063 195.761719 460.472656 C 203.050781 463.808594 224.808594 478.480469 228.703125 481.757813 C 239.347656 490.710938 249.5625 500.789063 264.5 499.398438 C 279.699219 508.398438 296.300781 518 315.398438 513.097656 C 320.800781 511.097656 324.199219 505.398438 325.699219 500.398438 C 326.199219 497.5 326.699219 494.601563 327.199219 491.699219 C 327.199219 491.699219 330.5 491.25 331.195313 489.21875 C 332.597656 485.109375 332.953125 479.910156 331.699219 475.898438 C 326.601563 459.101563 317.398438 439 298.601563 432.699219 C 298.601563 432.699219 297.808594 429.847656 297.210938 429.335938 C 296.214844 428.480469 294.929688 427.902344 293.800781 427.398438 L 252.300781 419.199219 C 240.5 412.898438 227.898438 408.5 213.398438 408.398438 C 196.398438 395.898438 178.5 385.101563 160.398438 375.101563 C 151.113281 368.855469 140.816406 362.203125 133.109375 353.371094 C 125.628906 344.796875 128.355469 339.601563 140.199219 344.011719 C 143.523438 345.25 146.75 346.851563 150.101563 348 C 159.898438 353.101563 174.800781 353.398438 183.898438 346.5 C 198.898438 349.699219 217.398438 350.300781 231.199219 344.101563 C 249.898438 336.101563 257.101563 316.101563 259.300781 297.601563 C 265.898438 300.101563 272.398438 303.101563 279.199219 305.300781 L 287.300781 299.5 C 287.300781 299.5 356.441406 367.742188 368.320313 382.941406 C 386.78125 406.5625 410.164063 443.605469 409.222656 478.761719 C 408.976563 487.933594 405.433594 524.527344 368.898438 543.300781 C 359.199219 547.800781 349.398438 553.199219 338 552.902344 C 330.199219 550.800781 322.5 547.425781 314.5625 545.152344 C 297.480469 540.253906 265.714844 547.023438 259.699219 568.800781 C 256.898438 582.699219 261.199219 596.101563 272.199219 605.199219 C 289 616.800781 313.101563 609.898438 328.898438 600.898438 C 339.398438 593.101563 345.199219 582 344.199219 568.800781 C 389 542 402.148438 535.199219 413.609375 498.289063 C 420.445313 476.285156 419.75 451.550781 410.5 430.800781 Z M 104 342.699219 L 106.898438 339.601563 C 107.300781 342.5 104.199219 345.300781 105.199219 348.699219 C 102.664063 349.335938 102.199219 344.699219 104 342.699219 Z M 73 321.101563 C 72.898438 324.699219 73 330.664063 69.699219 330.699219 C 70.898438 324.300781 68.699219 318.800781 67.300781 313.199219 C 70.101563 315.199219 72.101563 318 73 321.101563 Z M 160.640625 32.695313 C 102.140625 74.820313 55.8125 138.34375 30.742188 192.613281 C 28.925781 196.546875 25.792969 197.675781 27.648438 192.375 C 44.605469 143.941406 106.824219 64.972656 160.007813 28.238281 C 177.253906 16.328125 196.347656 8.664063 219 10.300781 C 221.199219 11.300781 224.300781 11 225.699219 13.699219 C 200.621094 10.078125 179.707031 18.960938 160.640625 32.695313 Z M 50.828125 393.792969 C 51.578125 387.550781 55.707031 383.113281 65.019531 386.789063 C 76.464844 391.304688 89.050781 407.425781 98.5 414.898438 C 85 413.898438 71.5 412.898438 59.800781 407.5 C 52.183594 403.386719 50.292969 398.246094 50.828125 393.792969 Z M 35.101563 392.101563 C 36.5 389 41.898438 383.5 44.199219 388.800781 C 46.601563 395.699219 46.101563 403.699219 50.199219 409.898438 C 44.699219 406.699219 33.898438 401.199219 35.101563 392.101563 Z M 151.664063 438.835938 C 151.664063 438.835938 95.839844 431.289063 93.492188 431.105469 C 82.746094 430.269531 71.167969 431.480469 60.828125 429.691406 C 45.054688 426.964844 27.238281 419.28125 23.601563 402.398438 C 22.78125 399.058594 22.132813 395.382813 22.136719 391.664063 C 22.140625 390.378906 22.773438 390.570313 23.027344 391.890625 C 27.769531 416.375 48.03125 425.757813 61.976563 428.128906 C 70.050781 429.5 78.550781 427.152344 87.332031 427.714844 C 88.480469 427.785156 119.398438 431.101563 133.300781 433.601563 L 133.300781 433.199219 L 111.664063 422.164063 L 112.601563 421.398438 C 125.164063 427 139 431.699219 151.800781 438 Z M 316.101563 496.800781 C 314.601563 501.398438 309.800781 505.101563 304.898438 505.199219 C 298.898438 505.699219 293.898438 503.101563 290.5 498.398438 C 298.699219 497.199219 307.398438 497 316.101563 496.800781 Z M 309.199219 455 C 299.949219 465.492188 238.71875 452.089844 229.800781 438.398438 C 254 449.398438 280 460.300781 309.199219 455 Z M 249.863281 474.410156 C 265.632813 480.035156 288.128906 478.660156 304.039063 478.761719 C 307.144531 478.78125 307.144531 479.273438 304.046875 479.496094 C 290.867188 480.449219 263.496094 481.078125 250.792969 478.175781 C 235.660156 474.710938 221.257813 461.789063 206.804688 449.867188 C 196.234375 441.144531 185.402344 433.023438 172.601563 429.601563 L 169.5 443.835938 L 168.601563 443.5 L 168.601563 430.300781 C 141.199219 420 116.101563 404.398438 92.5 384.898438 C 97.011719 413.289063 146.949219 425.789063 146.949219 425.789063 C 146.949219 425.789063 148.320313 426.804688 147.183594 426.585938 C 120.085938 421.371094 96.972656 407.664063 91.433594 391.964844 C 89.28125 385.867188 89.128906 378.691406 81.699219 375.800781 C 73.164063 372.105469 63.699219 370.574219 53.984375 369.648438 C 52.660156 369.523438 52.671875 369.136719 54.007813 369.082031 C 68.023438 368.480469 82.136719 369.757813 93 377.699219 C 116.101563 398.800781 139.699219 419.101563 168.601563 426.398438 L 179.398438 416.101563 L 180.164063 416.664063 L 175 426.199219 C 182.601563 430.101563 190.800781 433.601563 197.800781 439.199219 C 214.789063 451.941406 230.515625 467.507813 249.863281 474.410156 Z M 278.5 284.101563 C 277.800781 289.398438 279.5 299.664063 277.5 300.5 L 276.101563 293 C 274.398438 293.5 274.164063 298 272.199219 297.101563 L 275.300781 283.898438 C 270.5 277.398438 260.5 264.898438 260.5 264.898438 C 260.300781 272.898438 263.101563 282.199219 259 289.398438 C 258.476563 278.300781 257.273438 267.425781 254.554688 257.195313 C 251.460938 245.550781 246.058594 232.828125 232.089844 218.742188 C 231.40625 218.054688 231.863281 217.710938 232.691406 218.296875 C 245.175781 227.109375 260.425781 252.902344 275.601563 281 C 277.5 281.800781 279.5 282.601563 281.601563 282.898438 Z M 341.300781 565.398438 C 341.300781 564.699219 339.5 562.800781 338 562 C 337.601563 562.101563 337.101563 562.601563 337 563 C 337.382813 568.03125 337.585938 573.179688 336.464844 577.824219 C 334.058594 587.828125 321.925781 599.851563 317.800781 595.898438 C 323.601563 592.699219 331.800781 585.699219 332.898438 577.898438 C 334 571.300781 334.300781 563.898438 333.398438 557.199219 C 335 558.800781 336.699219 559.800781 338.699219 560.398438 L 338.898438 557 C 340.5 556.832031 342.664063 564.167969 341.300781 565.398438 "/>
</g>
</svg>
