<?xml version="1.0" encoding="UTF-8"?>
<svg xmlns="http://www.w3.org/2000/svg" xmlns:xlink="http://www.w3.org/1999/xlink" width="510pt" height="476pt" viewBox="0 0 510 476" version="1.1">
<g id="surface1">
<path style=" stroke:none;fill-rule:nonzero;fill:rgb(0%,0%,0%);fill-opacity:1;" d="M 509.898438 144.1875 C 508.265625 102.410156 482.5 59.519531 420.101563 46.285156 C 402.816406 42.621094 172.5 0.1875 172.5 0.1875 C 162.601563 -2.714844 154.5 4.1875 148.699219 11.488281 C 135.800781 30.988281 130.5 54.386719 133.101563 79.386719 C 134.800781 90.085938 137.898438 102.085938 148.898438 106.988281 L 286 127.886719 C 281.164063 165.519531 285.042969 183.171875 323.398438 209.488281 C 323 223.285156 321.5 236.6875 320 250.089844 L 321.199219 256.488281 L 318.398438 322.988281 L 306.601563 308.589844 C 303.601563 300.6875 302.5 291.6875 302 282.886719 L 290 298.285156 C 284.875 300.0625 278.699219 302.6875 276.101563 296.886719 C 276.101563 296.886719 298.875 255.9375 301.300781 251.988281 C 303.726563 248.035156 298.625 244.0625 295.601563 247.386719 C 292.574219 250.714844 259.101563 284.589844 259.101563 284.589844 C 258.601563 284.089844 257.5 284.089844 257.601563 283.1875 C 257.601563 283.1875 281.25 240.8125 283.601563 236.886719 C 285.949219 232.964844 280.25 230.3125 277.800781 232.988281 C 275.351563 235.660156 252.898438 258.785156 240.398438 270.6875 C 240.101563 270.285156 239.199219 269.886719 239.601563 269.488281 C 239.601563 269.488281 262.875 228.0625 265.101563 224.1875 C 267.324219 220.3125 261.25 217.5625 258.601563 220.285156 C 255.949219 223.011719 222.601563 257.285156 222.601563 257.285156 L 220.699219 255.589844 C 220.699219 255.589844 244.125 214.0625 246.398438 209.988281 C 248.675781 205.910156 243.5 202.4375 240.601563 205.386719 C 237.699219 208.339844 203.699219 243.089844 203.699219 243.089844 L 203.199219 242.589844 C 203.199219 242.589844 226.75 201.0625 229.101563 196.988281 C 231.449219 192.910156 226.125 189.8125 223.300781 192.6875 C 220.476563 195.5625 198.601563 218.1875 186.101563 229.886719 L 185.199219 228.988281 C 185.199219 228.988281 208 188.4375 210.101563 184.988281 C 212.199219 181.535156 207.375 177.6875 204.601563 180.488281 C 201.824219 183.285156 168.398438 216.6875 168.398438 216.6875 C 168.101563 216.285156 167.699219 216.285156 167.398438 215.988281 C 167.398438 215.988281 190.375 175.0625 192.601563 171.585938 C 194.824219 168.113281 189.5 164.1875 186.898438 166.988281 C 184.300781 169.785156 150.898438 203.488281 150.898438 203.488281 C 150 203.1875 149 202.285156 148.699219 201.585938 C 148.699219 201.585938 172.125 160.1875 173.898438 156.988281 C 175.675781 153.785156 170.875 149.9375 168.398438 152.585938 C 165.925781 155.238281 131.699219 189.386719 131.699219 189.386719 L 129.5 187.386719 C 129.5 187.386719 154.375 142.9375 155.480469 141.308594 C 156.90625 139.207031 151.019531 136.394531 149.699219 137.785156 C 148.773438 138.761719 123.800781 163.886719 112.199219 174.988281 L 111.5 174.1875 C 117.101563 163.085938 132.402344 138.046875 133.28125 136.265625 C 136.523438 129.683594 132.644531 128.273438 117.164063 132.519531 C 87.964844 140.980469 57.65625 194.832031 84.058594 251.722656 C 102.90625 292.328125 135.640625 328.808594 193.800781 343.6875 C 203.300781 347.296875 213.476563 349.253906 223.855469 350.707031 C 249.417969 354.28125 276.21875 354.777344 297.199219 369.285156 C 319.101563 389.886719 328.101563 416.589844 346.398438 438.886719 C 354.101563 445.886719 362.699219 450.789063 371.898438 454.085938 C 375.199219 463.488281 384 472.085938 393 476.386719 L 405.199219 474.488281 C 399.5 468.789063 393.800781 463.1875 388.898438 457.1875 C 388.898438 457.1875 391.839844 456.332031 396.445313 454.703125 C 433.332031 441.671875 438.554688 403.457031 417.265625 382.082031 C 412.621094 377.421875 408.398438 375.285156 408.398438 375.285156 L 416 260.589844 C 416 260.589844 427.835938 258.855469 441.699219 254.386719 C 484.878906 240.480469 511.855469 194.128906 509.898438 144.1875 Z M 286.699219 263.988281 C 287.875 264.8125 268 291.089844 268 291.089844 C 266.699219 289.785156 265.101563 289.285156 263.898438 287.988281 C 263.898438 287.988281 285.523438 263.160156 286.699219 263.988281 Z M 268.398438 249.785156 C 269.625 250.5625 249.699219 276.886719 249.699219 276.886719 C 248.398438 276.488281 246.699219 275.285156 245.398438 274.089844 C 245.398438 274.089844 267.175781 249.011719 268.398438 249.785156 Z M 250.398438 236.1875 C 251.5 236.9375 231.5 263.488281 231.5 263.488281 C 229.898438 263.089844 228.800781 261.589844 227.398438 260.589844 C 234.601563 252.285156 249.300781 235.4375 250.398438 236.1875 Z M 231.699219 221.785156 C 232.625 222.4375 212.800781 249.285156 212.800781 249.285156 C 211.101563 248.886719 210 247.1875 208.5 246.488281 C 208.5 246.488281 230.773438 221.136719 231.699219 221.785156 Z M 214.199219 209.285156 C 215.5 210.0625 195.300781 236.386719 195.300781 236.386719 L 190.898438 233.285156 C 190.898438 233.285156 212.898438 208.511719 214.199219 209.285156 Z M 195.5 196.785156 C 196.625 197.3125 177.300781 222.988281 177.300781 222.988281 C 175.800781 222.1875 174.5 220.886719 173.199219 219.785156 C 173.199219 219.785156 194.375 196.261719 195.5 196.785156 Z M 178 183.386719 C 178.75 183.9375 165.601563 200.988281 159.5 209.785156 L 155.398438 206.585938 C 155.398438 206.585938 177.25 182.839844 178 183.386719 Z M 159.300781 169.1875 C 160.125 169.6875 140.800781 195.585938 140.800781 195.585938 C 139.199219 194.886719 137.800781 193.886719 136.5 192.6875 C 136.5 192.6875 158.476563 168.6875 159.300781 169.1875 Z M 140.300781 154.285156 C 141 154.6875 127.601563 172.285156 121.601563 181.386719 C 119.898438 180.886719 118.699219 179.386719 117.300781 178.285156 C 117.300781 178.285156 139.601563 153.886719 140.300781 154.285156 Z M 282.101563 340.089844 C 272.964844 337.277344 263.140625 336.046875 253.457031 334.453125 C 205.960938 326.636719 173.203125 315.722656 146.273438 295.660156 C 113.714844 271.402344 102.117188 246.558594 96.890625 218.804688 C 93.929688 203.085938 96.804688 192.679688 105.699219 193.1875 L 294.800781 330.1875 L 316.398438 360.886719 L 316.898438 365.988281 C 307.300781 355.6875 296.300781 342.988281 282.101563 340.089844 Z M 169.429688 31.546875 C 171.613281 31.910156 172.882813 35.222656 172.261719 38.945313 C 171.640625 42.671875 169.367188 45.394531 167.1875 45.03125 C 165.003906 44.667969 163.734375 41.355469 164.355469 37.632813 C 164.976563 33.90625 167.246094 31.183594 169.429688 31.546875 Z M 158.757813 24.9375 C 159.378906 21.214844 161.648438 18.492188 163.835938 18.855469 C 166.015625 19.21875 167.28125 22.53125 166.664063 26.253906 C 166.042969 29.980469 163.769531 32.703125 161.589844 32.339844 C 159.40625 31.976563 158.140625 28.660156 158.757813 24.9375 Z M 158.570313 46.269531 C 160.773438 46.488281 162.257813 49.710938 161.890625 53.464844 C 161.523438 57.222656 159.4375 60.09375 157.234375 59.878906 C 155.03125 59.660156 153.546875 56.441406 153.914063 52.683594 C 154.285156 48.925781 156.367188 46.054688 158.570313 46.269531 Z M 149.007813 35.238281 C 149.625 31.515625 151.898438 28.789063 154.078125 29.152344 C 156.265625 29.515625 157.53125 32.828125 156.910156 36.554688 C 156.289063 40.277344 154.019531 43.003906 151.835938 42.636719 C 149.652344 42.273438 148.386719 38.960938 149.007813 35.238281 Z M 144.972656 60.738281 C 142.789063 60.375 141.519531 57.0625 142.140625 53.339844 C 142.761719 49.613281 145.035156 46.890625 147.214844 47.253906 C 149.398438 47.617188 150.664063 50.929688 150.046875 54.652344 C 149.425781 58.378906 147.152344 61.101563 144.972656 60.738281 Z M 147.050781 70.78125 C 147.421875 67.027344 149.503906 64.15625 151.707031 64.371094 C 153.910156 64.589844 155.394531 67.808594 155.027344 71.566406 C 154.65625 75.324219 152.574219 78.191406 150.371094 77.976563 C 148.167969 77.761719 146.683594 74.539063 147.050781 70.78125 Z M 157.761719 87.605469 C 157.113281 91.324219 154.820313 94.03125 152.640625 93.648438 C 150.460938 93.269531 149.21875 89.949219 149.863281 86.230469 C 150.511719 82.511719 152.804688 79.804688 154.984375 80.183594 C 157.164063 80.5625 158.40625 83.886719 157.761719 87.605469 Z M 166.953125 74.308594 C 166.304688 78.027344 164.011719 80.734375 161.835938 80.355469 C 159.652344 79.972656 158.410156 76.652344 159.058594 72.933594 C 159.707031 69.214844 162 66.507813 164.179688 66.886719 C 166.359375 67.265625 167.601563 70.589844 166.953125 74.308594 Z M 173.480469 57.554688 C 172.832031 61.273438 170.539063 63.980469 168.359375 63.601563 C 166.179688 63.222656 164.9375 59.898438 165.585938 56.179688 C 166.230469 52.460938 168.523438 49.753906 170.703125 50.132813 C 172.886719 50.511719 174.128906 53.835938 173.480469 57.554688 Z M 336.398438 232.585938 L 337.101563 248.886719 C 335.820313 249.3125 334.589844 251.867188 333.265625 252.046875 C 332.726563 252.113281 325.601563 246.488281 325.601563 246.488281 L 325.800781 234.6875 Z M 326 226.585938 C 326.300781 222.085938 328.101563 218.285156 329.601563 214.285156 L 335.898438 218.1875 L 336.398438 226.785156 Z M 371.199219 421.886719 C 370.800781 426.886719 370.398438 431.789063 370.199219 436.789063 C 356 431.085938 351.699219 415.285156 343.601563 404.089844 L 330.601563 381.285156 C 337 384.785156 358.898438 388.285156 358.898438 388.285156 C 360.5 400.488281 372.101563 408.589844 371.199219 421.886719 Z M 373.601563 379.386719 C 371.5 376.589844 372.300781 371.589844 368 370.785156 C 364.300781 370.488281 360.800781 370.886719 358.398438 373.886719 L 358 378.1875 L 351.5 377.488281 L 356.800781 361.6875 L 376.898438 364.785156 L 388.699219 374.589844 C 386.699219 382.089844 381 378.6875 373.601563 379.386719 Z M 411.199219 430.488281 C 411.199219 430.488281 402 447.6875 382.699219 441.085938 C 380 433.6875 379.5 421.6875 384.101563 419.488281 C 384.800781 424.386719 389.601563 428.289063 394.199219 429.289063 C 398.898438 429.585938 403.300781 428.386719 406.199219 424.789063 Z M 389.757813 413.285156 C 389.757813 409.070313 393.050781 405.648438 397.113281 405.648438 C 401.175781 405.648438 404.464844 409.070313 404.464844 413.285156 C 404.464844 417.503906 401.175781 420.925781 397.113281 420.925781 C 393.050781 420.925781 389.757813 417.503906 389.757813 413.285156 Z M 478.398438 157.886719 C 473.847656 183.765625 445.519531 221.273438 384.101563 226.988281 L 369.699219 350.386719 L 362 348.1875 L 374.5 226.785156 L 365.601563 220.085938 L 348.601563 347.988281 C 343.800781 348.589844 338.398438 347.6875 334 349.1875 L 334.199219 262.988281 L 347.398438 251.6875 L 349.601563 203.285156 C 331.898438 193.6875 310.101563 178.488281 307.101563 156.988281 C 304.5 148.886719 303.300781 140.285156 302.5 131.488281 L 287.898438 114.1875 L 179.199219 83.488281 C 184 71.386719 187.800781 58.785156 188.300781 44.886719 L 401.5 68.1875 C 402 68.1875 401.101563 66.386719 401.398438 65.785156 L 401.398438 65.488281 L 188.101563 31.886719 L 186.601563 22.585938 C 186.601563 22.585938 407.800781 60.988281 419.898438 63.585938 C 485.242188 77.628906 482.226563 136.148438 478.398438 157.886719 Z M 319.601563 439.386719 L 0.601563 440.085938 L 0.898438 35.488281 L 119.898438 36.488281 C 119.898438 36.488281 112.632813 52.054688 112.898438 76.785156 C 113.164063 101.519531 116.5 103.519531 119.699219 113.488281 C 119.699219 113.488281 108.515625 116.910156 95.199219 122.585938 C 70.242188 133.226563 43.777344 173.269531 52.6875 222.527344 C 61.960938 273.800781 100.527344 331.875 193.308594 358.363281 C 209.640625 363.023438 226.40625 365.980469 244.324219 368.648438 C 302.390625 377.292969 319.601563 439.386719 319.601563 439.386719 Z M 440.800781 85.386719 C 454.34375 102.914063 460.066406 116.371094 460.730469 126.703125 C 463.226563 165.648438 405.648438 177.296875 374.910156 145.773438 C 365.53125 136.15625 360.054688 124.222656 359.363281 115.699219 C 357.90625 97.777344 367.558594 95.5625 380.84375 110.324219 C 412.382813 145.363281 445.269531 135.808594 443.429688 103.164063 C 442.894531 93.730469 440.800781 85.386719 440.800781 85.386719 Z M 249.199219 308.386719 L 271.800781 327.285156 C 175.113281 307.847656 139.628906 282.523438 127.816406 270.867188 C 123.769531 266.875 124.460938 266.09375 129.785156 269.203125 C 154.914063 283.863281 214.480469 305.71875 249.199219 308.386719 Z M 391.304688 83.089844 C 398.773438 74.578125 413.871094 75.613281 425.027344 85.398438 C 436.179688 95.1875 439.164063 110.023438 431.695313 118.535156 C 424.226563 127.046875 409.128906 126.011719 397.976563 116.226563 C 386.820313 106.4375 383.835938 91.601563 391.304688 83.089844 "/>
</g>
</svg>
