<?xml version="1.0" encoding="UTF-8"?>
<svg xmlns="http://www.w3.org/2000/svg" xmlns:xlink="http://www.w3.org/1999/xlink" width="446pt" height="518pt" viewBox="0 0 446 518" version="1.1">
<g id="surface1">
<path style=" stroke:none;fill-rule:nonzero;fill:rgb(0%,0%,0%);fill-opacity:1;" d="M 444.625 118.6875 C 433.953125 101.308594 415.035156 87.777344 396.335938 80.957031 C 420.664063 77.519531 435.289063 46.710938 419.570313 19.683594 C 405.789063 -4.003906 370.679688 -6.847656 353.34375 13.964844 C 334.894531 36.113281 339.730469 64.046875 362.785156 79.417969 C 343.414063 82.730469 339.492188 90.136719 330.882813 114.644531 C 326.039063 128.425781 320.597656 132.894531 313.1875 136.523438 C 270.617188 157.363281 266.671875 164.949219 231.359375 204.683594 C 194.140625 246.5625 133.167969 321.09375 125.125 331.394531 C 121.8125 335.640625 90.902344 369.867188 79.652344 383.179688 C 71.394531 392.945313 13.84375 452.804688 2.460938 467.632813 C -1.433594 472.707031 1.898438 473.269531 6.160156 468.742188 C 18.320313 455.828125 34.125 441.9375 46.164063 432.980469 C 55.914063 425.730469 77.121094 411.945313 84.191406 406.765625 C 112.484375 386.035156 151.21875 363.308594 167.425781 353.429688 C 182.914063 343.980469 215.476563 327.925781 216.792969 327.222656 C 253.089844 307.8125 290.691406 290.007813 327.144531 270.488281 C 348.164063 259.230469 376.753906 240.128906 376.753906 240.128906 C 362.777344 263.648438 353.285156 343.8125 347.496094 371.578125 C 338.253906 374.328125 329.894531 379.277344 321.863281 384.777344 C 320.546875 382.46875 318.664063 377.480469 314.914063 375.980469 C 325.511719 318.738281 334.164063 287.980469 355.066406 262.324219 C 358 258.71875 355.816406 254.714844 353.003906 258.546875 C 344.964844 269.503906 337.507813 280.851563 332.257813 292.878906 C 324.855469 309.824219 314.414063 353.230469 309.984375 376.859375 C 296.785156 380.15625 272.695313 393.027344 272.695313 393.027344 C 267.59375 366.214844 257.027344 320.5 246.847656 316.90625 C 223.824219 326.871094 206.738281 355.546875 199.242188 369.386719 C 181.414063 402.285156 170.511719 430.691406 161.84375 455.859375 C 155.582031 474.035156 153.460938 497.675781 156.316406 508.859375 C 117.234375 520.714844 53.1875 508.070313 12.765625 484.328125 C 15.074219 480.917969 37.414063 451.230469 53.980469 435.292969 C 54.34375 434.941406 51.34375 432.730469 51 433.054688 C 33.457031 449.714844 19.773438 467.527344 6.933594 485.867188 C 29.738281 502.757813 63.351563 510.246094 84.320313 514.011719 C 110.40625 518.699219 152.945313 519.320313 164.234375 512.269531 C 163.90625 511.386719 161.398438 505.492188 160.921875 503.179688 C 155.871094 478.664063 171.308594 436.734375 185.335938 405.058594 C 197.003906 378.714844 219.71875 336.324219 244.203125 323.066406 C 250.726563 322.695313 260.335938 355.917969 266.183594 381.421875 C 266.921875 384.652344 270.164063 396.980469 271.925781 399.296875 C 286.414063 386.730469 314.496094 379.496094 314.496094 379.496094 C 317.796875 382.136719 319.914063 386.230469 321.863281 389.839844 C 331.214844 381.808594 342.414063 375.480469 353.214844 373.667969 C 356.664063 333.730469 370.039063 267.085938 379.082031 243.546875 C 379.523438 242.394531 380.800781 238.394531 382.292969 236.390625 C 384.097656 233.972656 386.839844 230.863281 389.183594 228.578125 C 402.027344 217.199219 410.679688 203.191406 416.050781 188.03125 C 434.480469 135.964844 399.164063 133.480469 366.664063 141.726563 C 366.296875 141.820313 367.703125 145.207031 368.191406 145.105469 C 410.121094 136.335938 427.613281 149.433594 411.582031 187.730469 C 390.554688 237.96875 340.09375 260.042969 294.742188 281.640625 C 276.96875 290.101563 185.261719 338.363281 171.230469 345.894531 C 136.679688 364.4375 80.722656 404.828125 43.753906 429.742188 C 43.25 430.078125 42.769531 429.664063 43.179688 429.242188 C 58.820313 413.144531 110.164063 358.753906 120.453125 343.636719 C 136.625 322.1875 154.113281 302.167969 171.386719 281.597656 C 214.898438 229.046875 264.257813 171.066406 290.597656 153.5 C 301.214844 146.421875 312.480469 141.429688 322.882813 135.25 C 332.179688 127.675781 335.5 115.855469 340.015625 102.296875 C 343.796875 114.585938 358.171875 132.289063 378.167969 133.699219 C 381.144531 133.910156 381.621094 132.464844 378.105469 131.140625 C 357.566406 123.398438 340.769531 107.960938 344.304688 95.699219 C 356.199219 78.832031 381.597656 81.613281 392.632813 84.597656 C 408.628906 88.921875 426.90625 98.125 434.0625 111.867188 C 427.664063 116.980469 419.546875 126.058594 418.226563 135.628906 C 417.863281 137.378906 416.375 138.996094 415.503906 140.644531 C 414.164063 143.1875 417.347656 145.671875 418.242188 144.023438 C 420.128906 140.558594 421.546875 136.929688 422.703125 133.167969 C 423.285156 131.273438 427.152344 123.539063 428.78125 121.851563 C 434.359375 116.074219 439.542969 116.207031 442.121094 123.75 C 442.617188 125.203125 442.941406 126.625 444.074219 127.15625 C 445.0625 124.628906 445.613281 121.328125 444.625 118.6875 Z M 382.925781 73.835938 C 340.460938 72.671875 347.355469 9.371094 388.6875 12.75 C 424.773438 15.699219 422.988281 74.933594 382.925781 73.835938 Z M 59.605469 67.816406 C 104.589844 66.277344 169.523438 68.320313 215.914063 70.898438 C 233.914063 71.898438 232.605469 99.824219 214.601563 98.941406 C 198.183594 98.136719 81.332031 95.484375 60.25 95.898438 C 38.550781 96.324219 38.132813 68.550781 59.605469 67.816406 Z M 417.125 104.496094 C 417.617188 102.726563 415.382813 102.628906 415.0625 101.289063 C 414.3125 98.179688 412.910156 97.085938 409.960938 96.59375 C 403.453125 95.511719 401.703125 101.589844 406.171875 104.351563 C 409.175781 106.203125 413.882813 104.234375 417.125 104.496094 Z M 409.054688 103.542969 C 405.011719 102.617188 405.148438 97.5625 410.121094 98.296875 C 412.679688 98.675781 413.496094 99.894531 413.496094 102.628906 C 412.226563 103.984375 410.628906 103.902344 409.054688 103.542969 Z M 399.964844 121.109375 C 401.710938 116.589844 406.433594 111.972656 403.824219 106.902344 C 403.636719 106.542969 403.722656 105.320313 404.019531 105.488281 C 407.054688 107.203125 411.160156 107.488281 414.265625 106.585938 C 409.3125 113.519531 403.703125 120.886719 400.734375 128.699219 C 399.304688 126.9375 399.085938 123.417969 399.964844 121.109375 Z M 431.980469 484.378906 C 431.914063 486.988281 429.890625 486.980469 429.085938 485.695313 C 427.28125 482.820313 424.234375 483.941406 421.636719 484.328125 C 413.300781 485.644531 406.109375 482.425781 398.757813 479.960938 C 383.839844 474.960938 370.925781 479.816406 370.925781 479.816406 C 364.984375 470.90625 355.085938 464.417969 343.976563 464.308594 C 344.164063 462.730469 346.335938 457.992188 346.6875 456.8125 C 352.335938 437.917969 338.472656 402.984375 331.414063 384.980469 C 336.414063 379.230469 348.046875 376.527344 352.445313 374.988281 C 352.445313 374.988281 352.886719 391.707031 354.097656 399.296875 C 355.964844 415.246094 362.199219 454.269531 363.222656 457.96875 C 367.007813 471.675781 390.472656 473.078125 399.929688 472.4375 C 411.53125 471.652344 432.222656 474.644531 431.980469 484.378906 Z M 370.925781 483.777344 C 358.273438 481.027344 346.675781 473.625 332.976563 475.636719 C 320.414063 477.480469 304.925781 478.277344 294.144531 472.996094 C 278.898438 472.792969 263.085938 471.277344 247.144531 473.042969 C 245.835938 473.1875 234.636719 474.097656 231.554688 471.347656 C 229.273438 470.902344 226.53125 470.929688 224.316406 472.03125 C 221.484375 473.445313 221.246094 472.136719 222.71875 470.53125 C 232.054688 460.34375 241.828125 459.925781 256.667969 462.976563 C 279.253906 467.621094 293.886719 464.507813 297.847656 446.46875 C 301 432.097656 301.394531 408.539063 295.683594 387.746094 C 295.683594 387.746094 307.675781 381.917969 313.175781 381.367188 C 312.664063 387.230469 307.414063 441.730469 305.476563 455.066406 C 304.746094 460.085938 307.5625 465.078125 311.855469 467.386719 C 321.171875 470.34375 330.089844 467.089844 339.109375 465.839844 C 353.1875 463.890625 367.417969 474.40625 370.925781 483.777344 Z M 41.164063 451.980469 C 66.957031 464.460938 111.808594 469.355469 144.171875 467.296875 C 152.449219 466.769531 157.414063 466.066406 157.414063 466.066406 C 156.203125 473.769531 153.675781 482.128906 152.683594 490.378906 C 120.839844 495.65625 77.734375 487.257813 52.414063 479.230469 C 37.707031 474.570313 27.285156 467.71875 27.285156 467.71875 C 32.414063 460.980469 36.875 457.921875 41.164063 451.980469 Z M 214.933594 142.605469 C 198.515625 141.804688 81.664063 139.152344 60.582031 139.566406 C 38.886719 139.992188 38.46875 112.214844 59.9375 111.480469 C 104.921875 109.945313 169.855469 111.988281 216.25 114.566406 C 234.25 115.566406 232.9375 143.488281 214.933594 142.605469 Z M 71.835938 401.386719 L 77.113281 405.679688 L 68.238281 410.953125 L 65.566406 407.988281 Z M 83.164063 401.386719 L 74.914063 396.980469 L 90.578125 381.453125 L 104.835938 384.558594 Z M 113.855469 378.179688 L 97.464844 373.667969 L 102.195313 368.167969 L 121.996094 373.445313 Z M 344.945313 365.988281 C 344.820313 366.988281 343.65625 367.453125 342.59375 366.765625 C 341.53125 366.078125 341.230469 366.796875 340.730469 367.796875 C 340.230469 368.796875 339.316406 370.519531 339.128906 371.019531 C 338.941406 371.519531 335.953125 370.625 336.371094 369.304688 C 336.667969 368.371094 339.914063 361.546875 340.949219 360.691406 C 342.628906 359.308594 345.535156 361.261719 344.945313 365.988281 Z M 326.480469 369.105469 C 326.355469 370.105469 325.1875 370.574219 324.125 369.886719 C 323.0625 369.199219 322.761719 369.914063 322.261719 370.914063 C 321.761719 371.914063 320.847656 373.636719 320.660156 374.136719 C 320.472656 374.636719 317.488281 373.746094 317.90625 372.425781 C 318.199219 371.492188 321.449219 364.664063 322.480469 363.8125 C 324.160156 362.429688 327.070313 364.382813 326.480469 369.105469 Z M 343.6875 345.136719 C 342.625 344.449219 342.324219 345.164063 341.824219 346.164063 C 341.324219 347.164063 340.410156 348.886719 340.222656 349.386719 C 340.035156 349.886719 337.050781 348.996094 337.46875 347.675781 C 337.761719 346.742188 341.011719 339.914063 342.042969 339.0625 C 343.726563 337.679688 346.632813 339.632813 346.039063 344.355469 C 345.914063 345.355469 344.75 345.824219 343.6875 345.136719 Z M 326.699219 354.230469 C 326.199219 355.230469 325.285156 356.949219 325.097656 357.449219 C 324.910156 357.949219 321.925781 357.058594 322.34375 355.738281 C 322.636719 354.804688 325.886719 347.980469 326.917969 347.128906 C 328.601563 345.742188 331.507813 347.691406 330.914063 352.421875 C 330.789063 353.421875 329.625 353.886719 328.5625 353.199219 C 327.5 352.511719 327.199219 353.230469 326.699219 354.230469 Z M 345.136719 323.164063 C 344.636719 324.164063 343.722656 325.886719 343.535156 326.386719 C 343.347656 326.886719 340.363281 325.996094 340.78125 324.675781 C 341.074219 323.742188 344.324219 316.914063 345.355469 316.0625 C 347.035156 314.679688 349.945313 316.632813 349.355469 321.355469 C 349.230469 322.355469 348.0625 322.824219 347 322.136719 C 345.9375 321.449219 345.636719 322.164063 345.136719 323.164063 Z M 349.675781 301.738281 C 349.175781 302.738281 348.265625 304.460938 348.078125 304.960938 C 347.890625 305.460938 344.902344 304.566406 345.320313 303.246094 C 345.617188 302.3125 348.863281 295.488281 349.898438 294.636719 C 351.578125 293.25 354.484375 295.203125 353.894531 299.929688 C 353.769531 300.929688 352.605469 301.394531 351.539063 300.710938 C 350.480469 300.019531 350.175781 300.738281 349.675781 301.738281 Z M 303.84375 319.113281 C 304.136719 318.179688 307.386719 311.355469 308.417969 310.503906 C 310.101563 309.117188 313.007813 311.066406 312.414063 315.796875 C 312.289063 316.796875 311.125 317.261719 310.0625 316.574219 C 309 315.886719 308.699219 316.605469 308.199219 317.605469 C 307.699219 318.605469 306.785156 320.324219 306.597656 320.824219 C 306.410156 321.324219 303.425781 320.433594 303.84375 319.113281 Z M 302.65625 334.738281 C 302.949219 333.804688 306.199219 326.980469 307.230469 326.128906 C 308.910156 324.742188 311.820313 326.691406 311.230469 331.421875 C 311.105469 332.421875 309.9375 332.886719 308.875 332.199219 C 307.8125 331.511719 307.511719 332.230469 307.011719 333.230469 C 306.511719 334.230469 305.597656 335.949219 305.410156 336.449219 C 305.222656 336.949219 302.238281 336.058594 302.65625 334.738281 Z M 300.03125 352.613281 C 300.324219 351.679688 303.574219 344.855469 304.605469 344.003906 C 306.285156 342.617188 309.195313 344.566406 308.605469 349.296875 C 308.480469 350.296875 307.3125 350.761719 306.25 350.074219 C 305.1875 349.386719 304.886719 350.105469 304.386719 351.105469 C 303.886719 352.105469 302.972656 353.824219 302.785156 354.324219 C 302.597656 354.824219 299.613281 353.933594 300.03125 352.613281 Z M 282.730469 336.480469 C 282.605469 337.480469 281.4375 337.949219 280.375 337.261719 C 279.3125 336.574219 279.011719 337.289063 278.511719 338.289063 C 278.011719 339.289063 277.097656 341.011719 276.910156 341.511719 C 276.722656 342.011719 273.738281 341.121094 274.15625 339.800781 C 274.449219 338.867188 277.699219 332.039063 278.730469 331.1875 C 280.410156 329.804688 283.320313 331.757813 282.730469 336.480469 Z M 284.757813 354.800781 C 284.632813 355.800781 283.46875 356.265625 282.40625 355.578125 C 281.34375 354.890625 281.039063 355.605469 280.539063 356.605469 C 280.039063 357.605469 279.128906 359.328125 278.941406 359.828125 C 278.753906 360.328125 275.769531 359.4375 276.1875 358.117188 C 276.480469 357.183594 279.730469 350.355469 280.761719 349.507813 C 282.441406 348.121094 285.351563 350.074219 284.757813 354.800781 Z M 298.34375 369.863281 C 298.636719 368.929688 301.886719 362.105469 302.917969 361.253906 C 304.601563 359.867188 307.507813 361.816406 306.914063 366.546875 C 306.789063 367.546875 305.625 368.011719 304.5625 367.324219 C 303.5 366.636719 303.199219 367.355469 302.699219 368.355469 C 302.199219 369.355469 301.285156 371.074219 301.097656 371.574219 C 300.910156 372.074219 297.925781 371.183594 298.34375 369.863281 Z M 286.480469 375.296875 C 286.355469 376.296875 285.1875 376.761719 284.125 376.074219 C 283.0625 375.386719 282.761719 376.105469 282.261719 377.105469 C 281.761719 378.105469 280.847656 379.824219 280.660156 380.324219 C 280.472656 380.824219 277.488281 379.933594 277.90625 378.613281 C 278.199219 377.679688 281.449219 370.855469 282.480469 370.003906 C 284.160156 368.617188 287.070313 370.566406 286.480469 375.296875 Z M 280.789063 318.480469 C 280.664063 319.480469 279.5 319.949219 278.4375 319.261719 C 277.375 318.574219 277.074219 319.289063 276.574219 320.289063 C 276.074219 321.289063 275.160156 323.011719 274.972656 323.511719 C 274.785156 324.011719 271.800781 323.121094 272.21875 321.800781 C 272.511719 320.867188 275.761719 314.039063 276.792969 313.1875 C 278.476563 311.804688 281.382813 313.757813 280.789063 318.480469 "/>
</g>
</svg>
