<?xml version="1.0" encoding="UTF-8"?>
<svg xmlns="http://www.w3.org/2000/svg" xmlns:xlink="http://www.w3.org/1999/xlink" width="393pt" height="599pt" viewBox="0 0 393 599" version="1.1">
<g id="surface1">
<path style=" stroke:none;fill-rule:nonzero;fill:rgb(0%,0%,0%);fill-opacity:1;" d="M 392 140.75 C 393.429688 138.460938 393.234375 137.957031 390 138.25 C 387.25 138.5 335.039063 134.375 335.039063 134.375 L 333.75 79.25 C 333.75 79.25 324.765625 79.007813 316.75 75 C 307.03125 70.140625 268.472656 48.378906 229 40.25 C 226.675781 39.773438 219.335938 38.5 219.335938 38.5 C 219.335938 38.5 220.25 37 220.75 36.25 C 224.699219 30.324219 223.132813 18.34375 217 10.167969 C 203.605469 -7.691406 167.894531 1.855469 166.25 26.5 C 165.75 34 173 41.25 173 41.25 C 173 41.25 166.324219 43.226563 163.835938 44 C 130.171875 54.472656 103.054688 74.71875 94 79.75 C 91.75 81 83.917969 82.75 83.917969 82.75 L 81.25 144.25 L 85.75 148.75 L 83.917969 258 C 83.917969 258 28.5 236.75 24.5 235.5 C 0.945313 228.140625 0.0820313 232.609375 0.0820313 248.664063 C 0.0820313 261.914063 0 441.835938 0 453.414063 C 0 472.664063 0.472656 474.609375 8.25 478.5 C 12.25 480.5 68.25 506.25 74.5 508.75 C 80.871094 511.296875 81.128906 512.421875 81.5 518 C 81.75 521.75 81 533 81 533 L 44.75 585.75 L 91.25 598.167969 C 91.25 598.167969 123.601563 582.484375 136.25 576 C 149.414063 569.25 153.164063 566.582031 153.164063 566.582031 C 153.164063 566.582031 156.75 567 159.75 567.5 C 189.351563 572.433594 226.394531 570.21875 250 567.5 C 254.230469 567.011719 257.5 567 257.5 567 L 330.75 595.832031 C 330.75 595.832031 352.25 589 355.75 588 C 359.25 587 376.5 581.5 376.5 581.5 L 339.75 536.75 C 339.75 536.75 337.75 502.75 337.75 499.25 C 337.75 495.75 338.25 235.875 338.25 235.875 C 338.25 235.875 390.75 142.75 392 140.75 Z M 328.085938 458 C 328.085938 458 326.796875 457.433594 322.585938 455.835938 C 289.394531 443.234375 259.789063 437.738281 224 435.5 C 220 435.25 215.414063 435.25 215.414063 435.25 L 215.335938 343 C 215.335938 343 226.441406 342.195313 230.25 341.835938 C 267.359375 338.3125 292.449219 328.445313 321.5 311.5 C 324.5 309.75 326.164063 308.664063 326.164063 308.664063 Z M 287.835938 477.75 C 272.078125 482.71875 242.175781 491.363281 226.25 492.5 C 222.75 492.75 215.75 493.5 215.75 493.5 L 215.75 462.585938 C 215.75 462.585938 223.644531 462.894531 226.414063 463.25 C 242.726563 465.351563 268.90625 468.523438 286.5 472.835938 C 293.710938 474.601563 294.109375 475.769531 287.835938 477.75 Z M 215.085938 306.835938 L 215.5 268.085938 C 215.5 268.085938 222.730469 268.335938 226.5 268.664063 C 251.53125 270.871094 271.070313 276.578125 287.585938 281.585938 C 298.242188 284.8125 299.691406 286.433594 289.835938 291.085938 C 274.851563 298.152344 255.824219 300.648438 237.335938 304.25 C 230.511719 305.578125 215.085938 306.835938 215.085938 306.835938 Z M 325.75 275.5 C 325.75 275.5 321.832031 271.007813 318.824219 268.730469 C 300.738281 255.046875 254.59375 242.65625 228.164063 241.75 C 224.167969 241.613281 215.414063 241.5 215.414063 241.5 L 215.414063 166.914063 C 215.414063 166.914063 226.75 166.164063 230.75 165.664063 C 264.972656 161.390625 297.585938 149.640625 318 138.75 C 321.75 136.75 324 135.5 324 135.5 Z M 105.085938 80.5 C 127.144531 66.527344 144.105469 60.558594 170.25 53.25 C 173.65625 52.296875 181.164063 49.917969 181.164063 49.917969 L 175.585938 60.414063 C 175.585938 60.414063 181 63 184 64 C 193.847656 67.28125 207.234375 66.882813 217.75 60.75 C 221.445313 58.59375 221.636719 58.351563 219.5 55.5 C 218 53.5 217 47.25 217 47.25 C 217 47.25 230 48.75 235 50 C 260.101563 56.273438 278.730469 62.476563 302.585938 78.082031 C 304.382813 79.261719 304.835938 80.832031 303.085938 81.582031 C 240.175781 108.546875 179.519531 108.429688 104 91 C 98.144531 89.648438 96.632813 85.851563 105.085938 80.5 Z M 93.167969 99.75 C 93.167969 99.75 102 101.5 105.25 102.5 C 176.914063 124.550781 252.113281 116.949219 315 89 C 317.25 88 322.414063 86.085938 322.414063 86.085938 L 322.75 117.085938 C 322.75 117.085938 319.25 118.5 317.25 119.5 C 245.796875 155.226563 181.648438 156.910156 102.914063 134.414063 C 99.417969 133.414063 92.917969 131.164063 92.917969 131.164063 Z M 131.335938 476.335938 C 131.335938 476.335938 136.003906 473.511719 140.164063 472 C 159.824219 464.875 176.460938 462.164063 195.5 462.164063 C 198.5 462.164063 203.085938 462.5 203.085938 462.5 L 203.085938 494.085938 C 203.085938 494.085938 200.164063 494.164063 197.164063 494.25 C 153.351563 495.46875 118.945313 482.175781 95.90625 465.058594 C 94.292969 463.859375 93.25 463.25 93.25 463.25 L 97 315.5 C 97 315.5 108.097656 322.0625 110.664063 323.164063 C 145.898438 338.304688 164.378906 343.664063 190.914063 343.664063 C 194.664063 343.664063 203.085938 344 203.085938 344 L 203.25 435.25 C 203.25 435.25 196.414063 435.085938 192.414063 435.335938 C 161.460938 437.269531 130.789063 443.648438 108.25 453.664063 C 106 454.664063 102.25 456.664063 102.25 456.664063 Z M 118.585938 274.914063 C 125.914063 281.085938 134.835938 285.164063 134.835938 285.164063 C 134.835938 285.164063 141.363281 283.46875 147 281.164063 C 158.625 276.421875 182.664063 269.988281 194.164063 268.914063 C 197.75 268.585938 203 268.085938 203 268.085938 L 202.585938 307.75 C 202.585938 307.75 199 308.085938 195.5 308.085938 C 151.335938 308.085938 130.75 294.75 99.75 270.25 C 97.789063 268.699219 97.75 268.414063 97.75 268.414063 L 99.832031 153.414063 C 99.832031 153.414063 107.25 155.5 110 156.25 C 135.210938 163.125 170.128906 167.75 194.25 167.75 C 197.5 167.75 203 167.914063 203 167.914063 L 203 242.25 C 203 242.25 195.835938 242.75 191.085938 243.25 C 167.585938 245.722656 139.867188 251.554688 112.5 261.414063 C 109.441406 262.519531 104.664063 263.835938 104.664063 263.835938 C 104.664063 263.835938 111.464844 268.929688 118.585938 274.914063 Z M 45.332031 253.75 L 83.582031 269.5 L 83.417969 307.5 L 45.167969 288.085938 Z M 81.417969 496.335938 L 45.082031 480.085938 L 45.332031 444.25 L 81.5 460.085938 Z M 45.082031 434.835938 L 45 298.25 L 83.167969 317.585938 L 81.917969 450.414063 Z M 115.25 551.75 C 113.5 554 88.667969 587.25 88.667969 587.25 C 88.667969 587.25 82.332031 585.832031 75.332031 583.832031 C 68.332031 581.832031 60 579.5 60 579.5 C 60 579.5 70.140625 567.726563 78.75 557.332031 C 87.964844 546.214844 94.167969 537.332031 94.167969 537.332031 C 94.167969 537.332031 111.585938 544.917969 115.085938 546.167969 C 118.195313 547.277344 118.273438 547.859375 115.25 551.75 Z M 292.585938 533.25 C 290.085938 529.5 283.835938 519.082031 283.835938 519.082031 C 283.835938 519.082031 280.835938 520 277.835938 521.25 C 274.835938 522.5 270.5 523.582031 270.5 523.582031 C 270.5 523.582031 276 534.917969 277 538.667969 C 278.644531 544.835938 276.9375 544.664063 272.585938 539.582031 C 269.585938 536.082031 263.75 525.25 263.75 525.25 C 263.75 525.25 260.25 526.167969 255.5 527.167969 C 250.75 528.167969 246 529 246 529 C 246 529 250.75 538.167969 251.75 542.167969 C 253.929688 550.875 252.046875 551.273438 247.414063 543.75 C 245.414063 540.5 240.5 530.582031 240.5 530.582031 C 240.5 530.582031 237.703125 530.648438 233.25 531.332031 C 228.171875 532.113281 224.914063 532.917969 224.914063 532.917969 C 224.914063 532.917969 229.5 543.917969 230.5 546.917969 C 232.460938 552.796875 230.3125 553.917969 225.5 547.5 C 222.5 543.5 217.835938 533.25 217.835938 533.25 C 217.835938 533.25 214.335938 533.25 210.335938 533.5 C 206.335938 533.75 203.5 533.5 203.5 533.5 C 203.5 533.5 207.664063 545.917969 208.414063 548.917969 C 209.945313 555.039063 206.957031 554.503906 203.25 547.5 C 201 543.25 197.335938 533.5 197.335938 533.5 C 197.335938 533.5 194.335938 533.582031 190.585938 533.332031 C 186.835938 533.082031 183.25 533.167969 183.25 533.167969 C 183.25 533.167969 185.5 545.75 186.5 548 C 188.679688 552.90625 186.222656 555.171875 181 548.082031 C 177.5 543.332031 173.25 532.082031 173.25 532.082031 C 173.25 532.082031 168.75 531.25 165 530.5 C 161.25 529.75 157.75 529.25 157.75 529.25 C 157.75 529.25 160 539.25 161.75 543 C 165.140625 550.269531 161.914063 551.617188 158 545 C 155.566406 540.890625 150.5 528 150.5 528 C 150.5 528 147.402344 527.320313 143.914063 526.5 C 139.664063 525.5 136.664063 524.417969 136.664063 524.417969 C 136.664063 524.417969 138 530.5 139.5 536 C 142.570313 547.265625 136.484375 545.371094 133.335938 535.917969 C 132.085938 532.167969 129.5 522.25 129.5 522.25 C 129.5 522.25 127.308594 521.492188 121.585938 519.25 C 115.414063 516.832031 112.664063 515.667969 112.664063 515.667969 C 112.664063 515.667969 114 525.75 116 529.75 C 119.859375 537.46875 115.285156 538.410156 110.335938 529.332031 C 107.335938 523.832031 105.5 512.5 105.5 512.5 L 92.417969 505.5 L 92.832031 496.914063 C 92.832031 496.914063 97.488281 499.871094 101.449219 501.59375 C 182.003906 536.671875 252.527344 529.082031 319 492.5 C 320.960938 491.421875 328.5 487.914063 328.5 487.914063 L 328.5 497.085938 C 328.5 497.085938 327 497.75 325 499 C 323 500.25 310 507.5 310 507.5 C 310 507.5 312.164063 518.917969 313.164063 522.917969 C 315.234375 531.1875 313.128906 531.449219 308.75 525.25 C 305.75 521 302.25 511.25 302.25 511.25 C 302.25 511.25 297.511719 513.160156 294.5 514.5 C 292.25 515.5 291.984375 516.433594 292.585938 518.5 C 293.335938 521.082031 295.164063 526.582031 296.164063 530.332031 C 298.070313 537.46875 297.085938 540 292.585938 533.25 Z M 353.75 567 C 358.75 572.25 363.414063 577.167969 363.414063 577.167969 C 363.414063 577.167969 352.25 581 347.5 582.25 C 340.839844 584.003906 338.496094 583.800781 328.164063 576.917969 C 318.414063 570.417969 305.5 558.25 302.5 556 C 299.5 553.75 299.25 552.75 304.5 550.5 C 309.75 548.25 325.5 542.582031 325.5 542.582031 C 325.5 542.582031 346.5625 559.453125 353.75 567 Z M 338.085938 151.625 C 338.386719 147.710938 338.699219 145.5 341.335938 145.5 C 342.585938 145.5 373.75 146.25 375.75 146.25 C 377.75 146.25 377.953125 146.726563 376.75 149 C 367.628906 166.230469 353.367188 189.761719 343.117188 206.964844 C 338.503906 214.710938 337.949219 214.714844 338.101563 205.871094 C 338.394531 188.816406 337.921875 153.734375 338.085938 151.625 "/>
</g>
</svg>
