<?xml version="1.0" encoding="UTF-8"?>
<svg xmlns="http://www.w3.org/2000/svg" xmlns:xlink="http://www.w3.org/1999/xlink" width="484pt" height="529pt" viewBox="0 0 484 529" version="1.1">
<g id="surface1">
<path style=" stroke:none;fill-rule:nonzero;fill:rgb(0%,0%,0%);fill-opacity:1;" d="M 322.699219 27.898438 C 320.800781 25.5 320.699219 21.699219 321.5 18.800781 C 324.5 10.5 332.398438 2 341.5 0.800781 C 347.699219 -0.199219 351.800781 4.601563 354.898438 9.199219 C 357.199219 13.199219 358.398438 17.699219 358.5 22.601563 L 368.601563 37 C 362.398438 34.199219 355.800781 30.199219 349.398438 26.699219 C 350.800781 24.101563 350 20 348.199219 17.601563 L 345.300781 20.199219 L 338.300781 16.398438 C 334.300781 20.601563 331.101563 25.101563 327.101563 29.300781 C 330.601563 35.898438 337.300781 42.101563 345.300781 41.601563 C 348.199219 41.199219 351.101563 40.5 353.699219 39.398438 C 353.800781 43.898438 352.398438 48.898438 347.898438 51.398438 C 336.355469 56.710938 323.277344 53.03125 322.699219 27.898438 Z M 457.664063 471 C 463.636719 480.1875 475.101563 493.699219 475.101563 493.699219 L 453.800781 508.398438 L 462.898438 482.699219 C 410.5 442.800781 391.300781 384.101563 377.898438 325.5 C 374.5 310.101563 372.101563 294.300781 370.699219 278 L 368.601563 278.699219 L 348.898438 358.101563 C 353.105469 384.597656 348.261719 411.734375 339.953125 435.925781 C 338.460938 440.277344 332.433594 465.53125 330.269531 483.304688 C 329.445313 490.066406 328.9375 489.996094 327.871094 483.71875 C 319.578125 434.882813 315.0625 381.511719 322.300781 331.5 C 324.601563 320.101563 327.699219 309 332.300781 298.601563 C 326.398438 301 320.601563 304.800781 314.601563 307.699219 C 308.101563 363.898438 306.800781 418.800781 309.101563 477.398438 C 285.300781 432 285.300781 369.398438 296.101563 318 L 180.199219 379.699219 C 180.199219 379.699219 176.800781 513.699219 176.800781 514.101563 L 72.199219 528.800781 L 69.601563 516.300781 C 93.179688 493.433594 126.710938 490.132813 152.101563 488.699219 L 177.101563 63.898438 C 177.101563 63.898438 74.300781 77.300781 73.398438 75.898438 C 72.5 74.5 147.601563 51.898438 147.601563 51.898438 C 147.601563 51.898438 -0.539063 15.273438 0.699219 14 C 8.25 6.25 156.199219 37.644531 171.101563 44.5 L 179.199219 41.800781 C 179.398438 60.398438 180.699219 80.199219 180.898438 99.699219 L 181.601563 199 C 191.300781 201.101563 200.800781 203.5 210.699219 205.300781 C 211.101563 203 211.800781 200.898438 211.898438 198.5 C 220.300781 200.601563 229.300781 202.800781 237.800781 205.300781 L 238.5 212 C 266.300781 220.398438 294.601563 227.300781 318.898438 244.101563 C 318.898438 250.601563 317.101563 257.398438 316.699219 264.300781 C 323.300781 262.199219 329.898438 258.699219 336.398438 255.898438 C 337 250.300781 337.199219 244.601563 338.101563 239.101563 L 201.601563 189.898438 L 200.601563 178.601563 C 211 181.300781 221.101563 184.898438 231.601563 187.5 C 232.699219 189.699219 231.300781 192 231.101563 194.199219 L 287.199219 205.699219 C 306.101563 210.398438 325.199219 215.398438 343.398438 221.101563 C 343.9375 219.9375 344.300781 218.898438 345.300781 218 C 345.375 219.3125 345.5 220.25 345.867188 221.753906 C 346.125 221.9375 346.625 222.375 347.898438 222.800781 C 347.601563 232.101563 347.5 240 347.5 251.101563 L 372.199219 240.101563 L 373.898438 210.800781 C 373.898438 210.800781 225.605469 176.671875 199.652344 169.550781 C 195.671875 168.460938 195.761719 168.03125 199.84375 168.382813 C 217.855469 169.921875 289.898438 180.101563 289.898438 180.101563 C 299.800781 181.398438 309.5 183.101563 319.601563 184.101563 L 317 129.398438 C 290.972656 176.550781 241.496094 174.605469 222 164.699219 L 225.101563 156.800781 C 259.289063 154.496094 290.589844 141.152344 317.59375 119.117188 C 320.152344 117.03125 325.574219 111.683594 326.800781 110 C 333.199219 134.898438 337.699219 160.699219 340.699219 187 C 349 188.699219 357.699219 189.398438 365.898438 191.101563 C 378.300781 186 390.898438 181.601563 404.300781 179.101563 C 410 165.398438 419.601563 150.800781 433.601563 143.101563 C 433.335938 142.585938 433.519531 142.628906 433.335938 142.585938 C 432.773438 142.445313 431.925781 142.949219 431.199219 143.300781 C 428.300781 128.699219 424 114.699219 413.5 103.300781 C 410.617188 99.898438 407.734375 96.390625 404.609375 93.136719 C 402.007813 90.425781 402.171875 90.394531 405.292969 92.640625 C 421.410156 104.230469 436.964844 120.507813 441.300781 139.5 C 442.5 139.335938 444.914063 139.25 444.914063 139.25 C 430.816406 150.351563 421.398438 166.601563 414.199219 181.699219 C 412.875 181.5625 412.019531 181.40625 411.128906 181.472656 C 410.710938 181.503906 410.355469 181.691406 410.101563 182.199219 C 412.601563 182.699219 416.300781 182 418.5 183.898438 C 405.085938 181.78125 404 195.75 411.101563 205.300781 C 404.898438 206.199219 398.699219 207.199219 392.601563 208.101563 C 392.300781 206.699219 392.101563 205.300781 391.898438 203.800781 L 391.398438 205.300781 L 388 270.101563 C 384.5 271.164063 382 272.164063 377.199219 274.101563 C 394.570313 343.679688 418.363281 410.554688 457.664063 471 Z M 181.898438 219.398438 L 223.199219 233.601563 C 223.199219 231.398438 222.898438 229.101563 223.398438 227.101563 C 232.800781 229.5 242 232.699219 251.199219 235.5 L 249.800781 243.398438 L 288.199219 256.898438 L 286.300781 278.199219 L 313.601563 266 C 312.398438 259.898438 310.398438 254.101563 308.800781 248.199219 L 181.898438 201.199219 Z M 181.898438 242 L 226 259 L 226 253.5 C 234.699219 255.699219 243 258.601563 251.5 261.199219 L 250.699219 268.601563 L 255.800781 270.800781 L 256 292.101563 C 261.699219 289.398438 267.800781 287.101563 273.101563 284 L 272.800781 262.101563 L 181.898438 220.398438 Z M 181.601563 271.699219 L 229.898438 290.898438 L 228.898438 304.601563 L 246.199219 296.699219 L 245.199219 282.300781 L 181.601563 267.398438 Z M 181.199219 326.898438 L 225.300781 306.300781 L 220.800781 297.601563 L 181.398438 290.898438 Z M 376.164063 273.015625 C 374.183594 273.507813 372.664063 273.5 370.300781 273.898438 L 371.199219 250.398438 L 256 302.398438 L 255.5 304.101563 L 246.898438 307.699219 L 246.398438 306.5 L 180.898438 336 L 180.699219 362.199219 L 376.148438 273.628906 C 376.148438 273.628906 376.824219 272.851563 376.164063 273.015625 Z M 459.5 119.800781 C 462.742188 152.21875 436.894531 177.90625 411.859375 194.703125 C 408.863281 196.714844 409.238281 196.921875 413.433594 196.019531 C 442.816406 189.695313 459.378906 181.367188 473.699219 157.5 C 483.519531 141.746094 486.09375 119.097656 480.285156 100.398438 C 470.515625 68.96875 427.753906 39.527344 385.101563 33.398438 L 382.300781 57.398438 C 411.746094 61.078125 455.109375 81.507813 459.5 119.800781 Z M 205.199219 162.5 C 206.234375 148.289063 211.835938 144 224.800781 148.601563 C 224.800781 148.601563 221.660156 145.070313 222.824219 144.925781 C 229.523438 144.097656 235.910156 142.648438 242.300781 141.199219 C 259.101563 138.699219 271.699219 122.199219 280.300781 108.5 L 329.699219 59.800781 L 324.398438 46.101563 C 300.898438 58.101563 286.199219 83 275.5 104.898438 C 255.699219 119.800781 234.300781 130.601563 210.699219 135.898438 L 211.199219 142.101563 C 203.242188 139.058594 195.371094 141.578125 195.101563 148.601563 C 195.5 154.699219 200.699219 158.601563 205.199219 162.5 Z M 358.699219 48.101563 L 349.601563 53.800781 L 359.199219 72.5 C 361.644531 64.121094 366.757813 51.457031 358.699219 48.101563 Z M 376 136.398438 L 359.699219 78.101563 L 358.5 147.398438 L 376 136.898438 Z M 71.148438 450.261719 C 74.09375 411.992188 76.5 280.601563 76.5 280.601563 L 84.398438 78.5 C 77 81.699219 69.601563 84.800781 62.101563 87.898438 L 65.199219 242.699219 C 65.199219 242.699219 65.8125 409.453125 68.378906 451.207031 C 69.167969 464.085938 70.109375 463.71875 71.148438 450.261719 Z M 440.601563 256.398438 C 438.300781 234.398438 436.5 212.398438 427.398438 193.300781 C 421.699219 198.398438 416.101563 203.699219 410.601563 209.300781 C 400 254.800781 400.199219 310.300781 412.300781 355 C 426.5 399.601563 449 440.902344 476.300781 479.800781 C 479.300781 430.097656 466.5 384.5 442.5 344.699219 C 443 315.699219 443 284.800781 440.601563 256.398438 Z M 287.5 502.101563 L 323.898438 486.800781 C 317.300781 485.800781 310.398438 485.699219 303.5 485.101563 L 287.5 502.101563 "/>
</g>
</svg>
