<?xml version="1.0" encoding="UTF-8"?>
<svg xmlns="http://www.w3.org/2000/svg" xmlns:xlink="http://www.w3.org/1999/xlink" width="514pt" height="614pt" viewBox="0 0 514 614" version="1.1">
<g id="surface1">
<path style=" stroke:none;fill-rule:nonzero;fill:rgb(0%,0%,0%);fill-opacity:1;" d="M 463.390625 287.484375 C 427.652344 236.242188 416.863281 165.671875 431.023438 102.515625 C 437.09375 65.203125 461.816406 34.414063 486.761719 6.320313 L 482.269531 2.050781 C 482.269531 2.050781 197.730469 -0.871094 141.546875 0.925781 C 136.375 3.175781 131.429688 8.34375 125.363281 4.746094 C 103.113281 -4.019531 78.839844 4.296875 59.511719 13.511719 C 39.28125 25.871094 16.582031 44.753906 9.839844 67.902344 C -9.488281 117.570313 6.019531 173.757813 32.089844 216.238281 L 92.996094 314.453125 C 106.933594 337.828125 104.460938 367.722656 97.71875 393.792969 C 92.996094 414.242188 101.988281 432 109.628906 448.632813 C 115.699219 522.125 170.988281 583.484375 236.839844 614.273438 C 296.621094 610.226563 349.664063 611.351563 410.121094 607.304688 C 454.171875 573.816406 496.203125 528.191406 504.519531 475.152344 C 524.523438 409.300781 510.359375 337.605469 463.390625 287.484375 Z M 477.996094 336.03125 C 482.71875 335.132813 465.410156 387.949219 448.332031 407.726563 C 435.746094 419.863281 417.539063 423.683594 400.460938 420.089844 C 394.390625 417.839844 388.097656 416.042969 383.152344 411.546875 C 367.644531 422.785156 352.585938 438.964844 331.234375 433.121094 C 317.75 429.527344 304.265625 424.359375 294.152344 413.570313 C 273.925781 421.4375 253.019531 436.496094 228.746094 429.753906 C 212.339844 425.480469 194.8125 414.695313 188.96875 397.386719 C 171.4375 404.578125 151.433594 410.871094 131.203125 406.601563 C 150.984375 404.578125 170.535156 398.960938 187.394531 389.972656 C 179.753906 348.617188 173.683594 291.53125 215.261719 265.234375 C 224.253906 258.71875 239.984375 257.59375 249.425781 263.660156 C 260.4375 273.101563 265.832031 287.257813 263.359375 302.542969 C 254.371094 329.738281 242.839844 350.375 214.363281 374.910156 C 296.609375 254.527344 211.671875 241.28125 189.414063 332.210938 C 182.078125 362.1875 185.597656 395.140625 207.847656 416.941406 C 224.703125 430.652344 252.347656 427.503906 271 419.636719 C 277.742188 414.695313 284.039063 409.523438 288.757813 402.78125 C 281.5625 365.246094 280.441406 320.296875 294.152344 285.238281 C 302.464844 273.101563 315.054688 259.839844 331.234375 260.964844 C 337.300781 262.089844 343.371094 262.535156 347.414063 267.480469 C 356.183594 284.5625 357.46875 306.488281 350.375 325.441406 C 342.140625 347.441406 335.570313 362.84375 317.75 386.601563 C 387.964844 213.785156 281 257.644531 290.328125 375.363281 C 291.964844 395.976563 300.445313 416.265625 319.996094 425.035156 C 335.953125 428.851563 353.484375 428.179688 365.847656 416.941406 C 370.117188 414.242188 373.714844 410.425781 377.757813 407.277344 C 354.609375 363.902344 367.644531 305.6875 397.761719 270.179688 C 402.257813 266.585938 408.550781 265.683594 414.394531 267.03125 C 435.296875 284.335938 427.429688 313.105469 422.933594 336.480469 C 417.089844 351.761719 413.042969 367.722656 402.03125 380.757813 C 410.347656 351.761719 425.632813 319.398438 414.84375 288.609375 C 411.921875 284.785156 406.753906 280.070313 400.910156 282.089844 C 388.097656 289.058594 381.804688 303.441406 378.207031 316.476563 C 371.015625 345.921875 364.050781 383.679688 390.117188 406.601563 C 399.558594 416.492188 415.066406 416.71875 426.753906 411.546875 C 451.925781 394.464844 468.558594 364.796875 477.996094 336.03125 Z M 429.449219 248.152344 C 343.371094 255.792969 256.617188 246.578125 172.785156 237.367188 L 175.480469 218.484375 C 183.574219 217.585938 190.316406 219.835938 197.507813 220.507813 L 198.632813 218.9375 C 190.988281 192.640625 177.953125 158.027344 195.484375 132.179688 C 206.050781 118.019531 226.726563 122.515625 240.660156 126.113281 C 249.648438 136.902344 257.742188 122.515625 266.507813 121.84375 C 281.5625 116.898438 295.5 124.3125 309.65625 125.664063 L 331.234375 134.878906 C 348.09375 128.359375 368.320313 130.832031 382.027344 141.847656 C 388.546875 147.238281 395.515625 152.859375 400.910156 159.601563 C 384.054688 145.21875 362.25 135.550781 337.753906 138.023438 C 338.203125 142.296875 344.269531 144.09375 346.519531 148.363281 C 358.207031 160.050781 360.902344 177.355469 363.148438 193.089844 C 363.375 200.503906 338.6875 239.722656 318.425781 173.085938 C 324.492188 183.871094 333.03125 198.035156 345.84375 201.628906 C 355.28125 200.730469 352.359375 190.167969 354.609375 183.871094 C 348.09375 159.152344 323.144531 140.273438 300.667969 131.058594 C 286.058594 124.539063 267.628906 126.785156 253.695313 133.078125 C 275.945313 147.464844 298.296875 170.507813 295.722656 197.808594 C 294.269531 213.230469 256.089844 199.980469 258.414063 171.511719 C 265.15625 179.378906 271.898438 194.886719 284.9375 194.214844 C 294.375 187.695313 287.632813 178.03125 286.507813 169.941406 C 271.226563 144.09375 244.03125 125.664063 212.566406 129.933594 C 201.777344 133.753906 191.441406 144.992188 190.988281 156.902344 C 187.394531 181.402344 205.597656 223.203125 205.597656 223.203125 C 215.488281 222.980469 226.726563 225.902344 234.816406 223.878906 C 232.792969 216.015625 231.894531 206.574219 231.445313 199.605469 C 249.199219 217.363281 272.351563 225.453125 297.972656 223.878906 C 304.265625 222.308594 308.761719 216.6875 313.03125 211.96875 C 333.257813 223.878906 361.578125 233.996094 383.601563 218.9375 C 395.960938 206.578125 390.730469 218.0625 390.117188 183.871094 C 416.191406 197.585938 418.890625 225.679688 429.449219 248.152344 Z M 415.519531 143.867188 C 410.121094 140.945313 386.222656 90.890625 334.605469 113.300781 C 294.269531 74.523438 244.929688 106.785156 244.929688 106.785156 C 230.320313 96.671875 190.632813 90.890625 182 116 C 179.300781 104.085938 180.875 89.253906 176.605469 77.566406 C 176.605469 77.566406 345.167969 66.777344 426.753906 74.421875 C 425.183594 84.085938 415.292969 130.160156 415.519531 143.867188 Z M 197.058594 22.050781 C 214.363281 31.042969 238.863281 33.515625 254.820313 19.804688 C 295.828125 43.355469 328.089844 20.480469 328.089844 20.480469 C 344.722656 31.269531 370.34375 32.84375 386.972656 20.929688 C 390.117188 18.457031 393.265625 14.410156 397.089844 18.234375 C 414.167969 26.773438 433.945313 33.515625 454.398438 29.019531 C 445.859375 35.535156 435.96875 49.472656 431.699219 60.9375 C 410.121094 61.382813 190.765625 62.28125 173.234375 62.058594 C 169.863281 53.292969 166.941406 44.527344 163.121094 35.988281 C 174.808594 34.1875 186.496094 28.570313 197.058594 22.050781 Z M 42.878906 139.148438 C 39.507813 109.257813 47.597656 81.835938 67.152344 59.363281 C 81.085938 52.171875 94.796875 38.90625 112.777344 46.328125 C 139.746094 58.011719 160.199219 85.882813 168.964844 112.628906 C 172.109375 162.523438 172.109375 214.441406 154.355469 258.265625 C 148.960938 276.472656 141.996094 294.675781 132.777344 310.632813 L 132.777344 311.757813 C 105.585938 252.871094 53.441406 204.777344 42.878906 139.148438 Z M 406.753906 588.425781 L 232.117188 592.699219 C 190.316406 577.636719 152.332031 538.082031 139.296875 495.15625 C 139.296875 495.15625 170.371094 503.105469 185.597656 487.0625 C 230.371094 535.835938 301.566406 505.046875 310.332031 496.726563 C 363.621094 528.042969 408.101563 502.347656 421.359375 483.691406 C 436.019531 493.066406 469.601563 506.222656 484.964844 488.1875 C 473.953125 527.519531 445.183594 567.074219 406.753906 588.425781 Z M 487.660156 472.003906 C 476.875 483.46875 447 492.976563 416.640625 466.613281 C 403.15625 486.839844 364.402344 524.925781 311.457031 478.296875 C 305.839844 480.097656 242.839844 536.613281 190.089844 469.308594 C 171.214844 478.972656 143.117188 490.210938 123.5625 474.027344 C 119.96875 458.296875 115.472656 441.664063 115.023438 423.910156 C 133.453125 434.246094 158.851563 428.851563 177.054688 423.460938 C 204.699219 453.128906 253.472656 451.328125 287.183594 437.394531 C 310.332031 453.128906 346.066406 454.023438 370.789063 440.539063 C 380.683594 428.179688 392.855469 440.472656 404.726563 441.664063 C 465.703125 447.78125 498 385.703125 498 385.703125 C 499.125 416.265625 494.855469 444.585938 487.660156 472.003906 "/>
</g>
</svg>
