<?xml version="1.0" encoding="UTF-8"?>
<svg xmlns="http://www.w3.org/2000/svg" xmlns:xlink="http://www.w3.org/1999/xlink" width="525pt" height="447pt" viewBox="0 0 525 447" version="1.1">
<g id="surface1">
<path style=" stroke:none;fill-rule:nonzero;fill:rgb(0%,0%,0%);fill-opacity:1;" d="M 429.101563 376.097656 C 426.300781 379 422.300781 381.5 421 385.402344 C 421.800781 389 422.398438 393.699219 426.5 394.800781 C 428.699219 391.902344 427.199219 387 428.699219 383.5 C 431.398438 382.597656 439.199219 383.597656 438.699219 382.597656 C 436.699219 379.097656 433.199219 376.199219 429.101563 376.097656 "/>
<path style=" stroke:none;fill-rule:nonzero;fill:rgb(0%,0%,0%);fill-opacity:1;" d="M 466.777344 356.9375 C 465.09375 357.175781 463.367188 359.058594 461.800781 360 C 459.699219 361.5 458.898438 364.300781 459.601563 367 C 459.601563 367 467.5 363.199219 470.699219 361 C 471.300781 360.097656 467.78125 356.792969 466.777344 356.9375 "/>
<path style=" stroke:none;fill-rule:nonzero;fill:rgb(0%,0%,0%);fill-opacity:1;" d="M 451.699219 337 C 449.699219 335.300781 448.398438 338.300781 446.898438 339.398438 C 449.101563 341.398438 450.898438 345.800781 454.601563 345.101563 C 455.5 344.699219 457.398438 344.601563 457 343 C 456.398438 340.5 453.699219 338.398438 451.699219 337 "/>
<path style=" stroke:none;fill-rule:nonzero;fill:rgb(0%,0%,0%);fill-opacity:1;" d="M 438.300781 349.402344 C 435.300781 355.300781 430.101563 360.199219 428.699219 366.699219 C 430.398438 369.097656 433.300781 371.597656 436.300781 371 C 437.601563 368.300781 436 365.300781 436.800781 362.402344 C 439.699219 357.800781 444.5 353.800781 449.5 352.300781 C 447.601563 348.5 442.199219 348.597656 438.300781 349.402344 "/>
<path style=" stroke:none;fill-rule:nonzero;fill:rgb(0%,0%,0%);fill-opacity:1;" d="M 205 67 C 205 67 184.078125 0.761719 183.480469 0.734375 C 182.210938 0.675781 180.160156 2.199219 178.800781 2.199219 L 200 68.699219 C 201.601563 68.101563 203.699219 67.898438 205 67 "/>
<path style=" stroke:none;fill-rule:nonzero;fill:rgb(0%,0%,0%);fill-opacity:1;" d="M 522.699219 307.699219 C 520.101563 302.101563 514.199219 299.898438 509.300781 298.300781 C 490.300781 295.800781 471.199219 293.699219 452.398438 290.898438 L 508.800781 214.800781 L 446.398438 186.300781 C 443.300781 160.398438 427.101563 138.800781 406.601563 121.5 C 406.601563 121.5 408 116.5 403.699219 109.898438 C 401.941406 107.203125 399.300781 106.101563 396.699219 104.898438 C 395.601563 91.699219 391.199219 80 385 68.898438 C 368.875 40.605469 290.726563 12.527344 267.601563 81.898438 C 267.601563 81.898438 251 82 252 98.898438 C 245.683594 100.351563 239.070313 102.460938 234.660156 107.714844 C 233.90625 108.613281 231.300781 109.199219 231.101563 108.300781 C 225.800781 98.101563 215.5 95.601563 205.199219 96 C 201.699219 97.5 197.699219 100.398438 196.101563 104.199219 C 194.5 108.898438 199.199219 111.300781 202.101563 114 L 197.800781 118.601563 L 123.398438 95.101563 L 33.398438 150.699219 L 5.300781 150.300781 L 0.800781 265 C 2.199219 265.199219 101.300781 267.101563 101.300781 267.101563 C 64.203125 305.449219 56.367188 360.683594 146.199219 401.300781 C 187.199219 419.199219 242.199219 412 277.898438 387.597656 L 339.898438 427.199219 C 355.101563 409.101563 370.300781 390.800781 385.699219 373 L 436.101563 441.101563 C 441.054688 446.273438 456.046875 454.523438 467.5 430.601563 C 467.5 430.601563 516.300781 340.101563 523.5 319.199219 C 523.898438 315.398438 524.800781 311.101563 522.699219 307.699219 Z M 397.699219 109.5 C 399.898438 111.800781 399.5 115.5 399.898438 118.800781 C 396.898438 119.300781 394 119.800781 391 120.300781 C 389.175781 113.683594 391.515625 104.027344 397.699219 109.5 Z M 375.398438 78.300781 L 379.699219 105.398438 C 348.898438 91.398438 314 82.5 277.898438 86.199219 C 281.199219 78.101563 285.199219 68.898438 293.800781 64.601563 C 318.742188 54.34375 365.644531 67.300781 375.398438 78.300781 Z M 312.5 121.898438 C 313.199219 118.398438 316.898438 121.898438 319.199219 121.5 C 326.699219 122 334.699219 121.398438 339.398438 115.5 C 342.566406 127.53125 327.066406 135.355469 314.898438 129.101563 C 315.199219 126.5 313.699219 124.199219 312.5 121.898438 Z M 326.199219 113.300781 C 328.898438 112.800781 331.601563 112.5 334.101563 111.398438 C 327.769531 119.660156 317.695313 121.027344 311.5 110.699219 C 310.699219 108.601563 310.101563 105.699219 311.101563 103.5 C 312.96875 96.285156 324.785156 96.503906 325.5 99.601563 C 327.300781 104.800781 314.300781 112.5 326.199219 113.300781 Z M 274.054688 75.199219 C 286.0625 35.386719 352.1875 42.710938 368.355469 61.132813 C 369.589844 62.535156 370.601563 64.148438 371.300781 66 C 329.316406 42.292969 291.113281 50.597656 276.941406 75.515625 C 275.832031 77.46875 273.394531 77.382813 274.054688 75.199219 Z M 277 104.398438 C 286.441406 95.957031 298.355469 93.613281 311.167969 93.402344 C 312.46875 93.382813 312.585938 94.164063 311.394531 94.800781 C 309.441406 95.839844 307.679688 97.351563 306.5 99.398438 L 304.101563 105.398438 C 303.398438 103.800781 303.699219 101.800781 301.898438 100.601563 C 297.007813 99.882813 293.839844 100.828125 291.566406 103.003906 C 278.21875 115.785156 291.382813 148.882813 314.199219 135.101563 L 315.601563 133.5 C 336.5 137.664063 342.5 125.101563 342.5 125.101563 C 343.800781 127.699219 344.101563 131.398438 343.199219 134.398438 C 336.5 142.5 325.398438 140.898438 315.601563 142.101563 C 314.300781 143.101563 314.101563 145.101563 314.898438 146.398438 L 315.601563 146.898438 C 354.644531 149.257813 371.746094 117.542969 346.191406 109.921875 C 343.933594 109.246094 342 100.800781 340.800781 98.898438 C 344.519531 99.332031 347.773438 100.921875 350.601563 103.207031 C 358.863281 109.890625 363.0625 116.300781 363.585938 122.632813 C 364.214844 130.277344 361.710938 153.953125 313.199219 152.398438 C 266.835938 150.914063 266.3125 118.019531 277 104.398438 Z M 261.601563 93.101563 C 263.414063 89.015625 268.371094 88.5625 270 91 C 271.898438 94.898438 268.800781 98 266.699219 100.800781 C 265.300781 102.300781 263.199219 101.601563 261.601563 101.101563 C 257.699219 99.398438 260.898438 95.5 261.601563 93.101563 Z M 224.199219 109.898438 C 226 111.199219 227.898438 112.601563 229.199219 114.5 C 232.101563 126.898438 234 139.699219 237.101563 151.898438 C 240.769531 161.867188 251.554688 159.492188 249.886719 151.320313 C 249.421875 149.050781 248.5625 146.894531 247.699219 145 C 254.898438 137.300781 246.699219 128.800781 245.101563 121.199219 C 244.199219 116.300781 244.101563 110.398438 247.898438 106.800781 C 251.234375 104.300781 258.210938 104.289063 259.699219 109.5 C 261.5 118.898438 256.101563 127.800781 260.398438 136.800781 C 264.3125 145.9375 268.355469 144.699219 275.101563 142.800781 C 292.300781 158.300781 320.199219 159.699219 342.5 153.601563 C 352.699219 149.5 365.199219 142.101563 367.898438 130.300781 C 369.199219 119.601563 365 110 357.601563 102.300781 C 366.199219 105.300781 381.5 111.335938 383.800781 122.898438 C 380.898438 124.601563 377.398438 125.199219 375.101563 127.898438 C 375.550781 135.550781 376.113281 143.144531 377.800781 150.257813 C 380.019531 159.617188 389.078125 159.644531 389.9375 149.035156 C 390.128906 146.644531 390.171875 144.203125 390.5 141.898438 C 391.300781 136.300781 391.300781 130 395.5 126.300781 C 410.835938 120.664063 407.5 137.5 407.5 137.5 L 401.5 150.300781 C 419.550781 181.195313 385.035156 217.382813 324.300781 220.800781 C 319 221 316.300781 215.199219 312 212.898438 C 306.101563 207.800781 296.699219 211 290.199219 207.398438 C 285.5 201.699219 287.300781 192.601563 279.898438 188.898438 C 274.5 186.398438 266.101563 187.800781 264.300781 180.300781 C 262.398438 174.300781 263.800781 166.5 257.5 163 C 250.398438 162.101563 243.398438 164.398438 236.199219 164.699219 C 236.199219 162.5 236.5 159.5 234.699219 157.699219 C 231.601563 155.101563 226.199219 156.398438 224.398438 151.898438 L 224 145.898438 C 221.199219 142.898438 219.199219 139.5 220.800781 135.398438 C 221.199219 132.199219 218.699219 130.199219 216.800781 127.898438 L 215.800781 121.199219 C 214 118.898438 210.800781 118.398438 209.800781 115.699219 C 214.601563 114.5 221 114.699219 224.199219 109.898438 Z M 200.898438 103.5 C 204.171875 98.113281 210.464844 98.429688 216 101.800781 C 214.300781 104.300781 211.398438 108.199219 208.101563 109.699219 C 202.558594 110.394531 198.121094 110.253906 200.898438 103.5 Z M 201.398438 132.300781 L 209.601563 125.101563 C 212.414063 142.40625 206.628906 175.050781 227.601563 173.5 C 238.5 200.5 266.5 224.5 295.199219 228.199219 C 332.800781 235.101563 370.601563 226.699219 397.898438 200.898438 L 405.601563 191.5 C 409.398438 193.5 414.800781 193.898438 416.199219 199 C 416.101563 209.800781 400.5 205.664063 399.898438 218.398438 C 398.835938 234 395.925781 235.183594 384.496094 234.402344 C 382.871094 234.289063 371.835938 227.664063 366.476563 235.617188 C 360.316406 244.121094 355.03125 244.066406 344.785156 241.53125 C 339.753906 240.285156 334.640625 239.675781 329.5 241.699219 C 316.300781 251.199219 305.5 236.300781 291.898438 237.601563 C 286.101563 237.898438 280.898438 239.800781 275.800781 241.699219 C 249.101563 231.898438 221.5 219.699219 203.300781 193.898438 C 192.300781 177.101563 189 149.601563 201.398438 132.300781 Z M 293.28125 271.628906 C 293.113281 267.535156 292.554688 262.554688 292.804688 262.480469 C 297.226563 261.125 299.960938 262.652344 301.128906 265.4375 C 302.828125 269.492188 302.695313 275 292.300781 275 C 290.101563 274.800781 287.601563 273.601563 286.800781 271.199219 C 285.996094 267.015625 287.753906 263.691406 290.929688 262.902344 C 291.050781 262.875 292.066406 267.726563 292.789063 271.753906 C 292.992188 272.871094 293.328125 272.804688 293.28125 271.628906 Z M 284.398438 274.800781 L 279.101563 277.699219 C 278.851563 276.824219 278.015625 275.363281 277.933594 274.316406 C 277.886719 273.691406 282.699219 272.199219 282.699219 272.199219 Z M 197.300781 342.199219 C 217.300781 342.699219 234.898438 337.398438 250.300781 326.898438 C 243.324219 357.738281 202.800781 357.597656 202.800781 357.597656 L 198.5 352.300781 C 198.800781 349 200.199219 344.898438 197.300781 342.199219 Z M 145.199219 297.601563 C 136.308594 304.617188 128.855469 304.449219 125.800781 298.101563 C 124.5 292 124.601563 284.800781 129.398438 280.300781 C 134.582031 276.328125 141.785156 276.207031 146.898438 284.199219 C 145.898438 288.5 144.800781 293 145.199219 297.601563 Z M 120.8125 282.394531 C 115.320313 292.203125 117.058594 303.742188 126.800781 308.199219 C 133.199219 310.398438 139.398438 309.101563 145.699219 307.398438 C 146.5 311.898438 146.898438 316.601563 148.101563 320.898438 C 112.660156 324.980469 100.472656 294.421875 112.601563 277 C 121.519531 263.742188 142.980469 265.125 152.699219 272.898438 L 150 276.699219 C 141.507813 271.867188 128.226563 269.164063 120.8125 282.394531 Z M 138.5 249.101563 C 164 234.800781 197 229.101563 227.101563 237.398438 C 225.601563 242.800781 224.898438 248.898438 224.898438 254.601563 C 201.800781 247.398438 174.199219 250.800781 156.800781 267.800781 C 150.699219 263.898438 143.601563 262.5 135.898438 262.601563 C 138.601563 259.398438 138.601563 249.800781 138.5 249.101563 Z M 151.527344 292.230469 C 152.609375 280.0625 161.144531 269.8125 171.898438 263.800781 C 178.101563 260.300781 184.800781 258.101563 192 257 C 191.300781 258.300781 190 259.699219 190.800781 261.398438 L 192.800781 264.5 C 176.898438 267 159.800781 276.300781 153.601563 292.601563 C 153.601563 292.601563 151.332031 294.429688 151.527344 292.230469 Z M 168.800781 280.601563 C 182.5 270.300781 201.800781 264.800781 218.898438 271.398438 C 222.898438 273.199219 226.601563 275.601563 229.898438 278.898438 C 225.398438 279.5 221.101563 282.5 216 281.800781 C 211 281 205.699219 281.601563 202.601563 285.800781 C 200.398438 293.898438 190.398438 293.699219 188 301.199219 L 188 308.601563 L 161.800781 320.398438 C 161.800781 320.398438 148.671875 297.203125 168.800781 280.601563 Z M 247 278.199219 C 244.398438 275.300781 240.101563 277.601563 237.101563 277.398438 C 232.601563 265.699219 227.898438 253 230.898438 239 C 230.898438 239 244.683594 255.652344 257.101563 264.5 C 260.101563 267.398438 262.300781 270.601563 263.800781 274.101563 L 215.101563 296.398438 C 218.054688 284.308594 230.800781 284.328125 241.257813 282.8125 C 242.976563 282.566406 248.535156 281.703125 247 278.199219 Z M 187.5 317.800781 C 187.230469 323.421875 186.511719 324.515625 192.234375 327.410156 C 194.074219 328.339844 196.035156 328.976563 197.800781 330 C 198.601563 332.101563 199.101563 334.300781 199.199219 336.699219 C 187.199219 336 176.398438 332.398438 166.800781 325.898438 C 173.300781 322.800781 180.601563 320.5 187.5 317.800781 Z M 248.382813 319.1875 C 249.089844 318.847656 249.550781 319.375 249.113281 320.035156 C 246.359375 324.226563 242.089844 327.660156 237.601563 329.300781 C 235.9375 321.601563 243.464844 321.558594 248.382813 319.1875 Z M 236.898438 317 C 229.800781 316.800781 226 309.101563 221.800781 304.300781 L 266.699219 286.601563 C 266.332031 299.308594 253.011719 315.292969 236.898438 317 Z M 220.199219 300.199219 L 220.101563 300 L 271.898438 277.199219 C 272.300781 277.398438 272.800781 278.898438 272.800781 278.898438 Z M 123.898438 105.398438 L 191.300781 126.5 C 185.398438 135.800781 181.300781 146 180 157 L 165.199219 159.898438 L 165.898438 165.101563 L 180 164.699219 C 181.578125 191.429688 203.566406 212.558594 225.1875 227.128906 C 226.863281 228.261719 226.273438 229.828125 224.300781 229.582031 C 187.507813 225.011719 149.535156 230.191406 120.300781 250.601563 L 127 159.101563 C 128.300781 156.601563 126 154.699219 123.898438 154.300781 C 113.898438 151.898438 102.800781 152.199219 92.199219 151.199219 C 91.546875 147.9375 91.160156 144.605469 90.769531 141.265625 C 90.679688 140.511719 86.898438 139.800781 85.199219 140.398438 L 84.300781 151 L 52.800781 150.300781 Z M 17.101563 254.398438 L 8.199219 253.199219 L 11.800781 160.101563 L 83.101563 159.601563 C 93.898438 159.800781 104.5 160 115.199219 161.300781 C 117.199219 174.601563 115.601563 189.5 115.699219 203.5 C 114.300781 220.300781 115.101563 238 110.398438 253.398438 C 110.398438 253.398438 46.800781 254.800781 17.101563 254.398438 Z M 282.5 359.800781 C 277.699219 364 271.300781 365.402344 267.398438 370.800781 L 262.300781 381.097656 C 254.601563 382.300781 247.199219 386.597656 242.898438 393.398438 C 238 396.601563 230.699219 395.398438 227.300781 400.800781 C 204.800781 406.800781 177.300781 405.601563 156.300781 397.199219 C 152 388.199219 143.101563 382.597656 133.699219 381.097656 C 120.164063 379.667969 130.5 364.667969 120 363.597656 C 109.800781 361.597656 114 350.699219 111.601563 343.898438 C 108.789063 338.132813 105.273438 331.714844 105.28125 325 C 105.296875 315.414063 108.800781 311.5 108.800781 311.5 C 119.101563 325.101563 134 333.199219 151.199219 330.5 C 158.398438 349.199219 177.609375 363.765625 197.800781 363.097656 C 271.5 360.667969 259.898438 312.199219 259.898438 312.199219 C 268.796875 306.238281 272.730469 296.65625 273.707031 286.621094 C 273.796875 285.71875 280.898438 280.699219 282.699219 283.898438 C 285.601563 287.5 288 291.199219 289 295.398438 L 289.199219 310.601563 C 289.800781 319.199219 297.199219 327.101563 292.800781 335.800781 C 290.898438 340 288 343.800781 285.601563 347.800781 C 284.601563 351.800781 285 356.597656 282.5 359.800781 Z M 337.199219 412.601563 L 287.300781 381.097656 C 303.101563 368.199219 315 351 317.300781 331.199219 C 322.300781 333 327.300781 335.101563 332.398438 336.699219 L 333.101563 328.800781 L 318 322.800781 C 318.101563 304.601563 312.699219 288.699219 304.601563 273.800781 C 306.898438 271.800781 308.199219 269.300781 307.898438 266.199219 C 308 263.101563 306.300781 260.601563 303.898438 258.699219 C 332.601563 266 365.5 263.101563 393.101563 255.601563 C 410.101563 250.101563 427.699219 240.601563 437.800781 224.199219 L 448.300781 232.800781 C 450.101563 230.699219 451.800781 228.300781 453.101563 225.800781 L 442.101563 215.5 C 444.601563 209.800781 446.101563 203.601563 446.699219 197.101563 L 493.5 217.898438 L 440.898438 289.398438 C 426.101563 287.800781 411.601563 285.699219 396.699219 284.199219 C 396.800781 279.300781 396.5 274.5 396.300781 269.800781 C 394.101563 269.398438 391.5 269.398438 389.300781 269.800781 L 388.300781 283 L 338.898438 278.199219 C 328.210938 277.53125 322.714844 282.578125 327.898438 293.5 L 378.699219 363.800781 Z M 339.101563 295.699219 C 359.199219 303.898438 379.601563 311.300781 400.800781 316.800781 L 390.699219 322.300781 C 384.398438 321.601563 378.699219 318.699219 371.800781 320.199219 C 367.300781 322 365.5 326.898438 364.300781 330.699219 Z M 466.800781 381.597656 L 459.898438 375.800781 C 457.300781 375.800781 455.101563 375 452.699219 374.597656 C 454 370.800781 456.601563 365.800781 453.898438 361.902344 C 452.601563 361 451 359.902344 449.300781 360.699219 C 448.199219 367.402344 444.398438 372.800781 443.800781 379.699219 C 448.5 382.800781 455.5 381.199219 459.101563 385.699219 C 458.898438 392.898438 449.300781 398.398438 453.898438 405.601563 C 450.601563 410 449 415.398438 444.699219 419.300781 L 443.5 419.300781 C 443.300781 415.300781 439.898438 406.800781 439.898438 406.800781 C 442.699219 404.601563 446.300781 403.199219 448.300781 400.300781 C 447.699219 398.300781 445.300781 397.699219 443.5 396.699219 C 439.101563 397.699219 434.898438 401.800781 432.699219 405.800781 C 432.800781 408.699219 432.5 412.300781 433.199219 415.199219 C 421 411.300781 416.601563 398.300781 408.5 389.5 C 408.800781 387.300781 411.101563 385.597656 412.601563 384 C 413.300781 377.597656 410.601563 371.597656 409.898438 365.800781 C 413 363.5 417.300781 364.199219 421 363.402344 C 422.898438 360.597656 421.5 356.800781 421.199219 353.800781 C 414.699219 354.902344 408 356.902344 402.5 361.199219 C 400.191406 365.027344 400.121094 369.996094 400.675781 374.683594 C 400.886719 376.492188 398.660156 376.132813 398.660156 376.132813 L 370.601563 338.898438 C 371.699219 334.398438 371.800781 328.699219 376.101563 326.199219 C 384 326.800781 390.5 331.699219 398.898438 330.5 C 404.5 326.398438 410.699219 322.800781 417.398438 320.898438 C 432.53125 317.480469 433.5625 337.859375 418.871094 339.386719 C 414.488281 339.84375 409.671875 339.324219 405.398438 340.101563 C 402.898438 342.101563 399.898438 344 396.699219 344.898438 L 391 343.398438 C 389.300781 347.199219 399.699219 354.800781 402.300781 353.800781 C 406.101563 350.800781 409.601563 347.097656 414.5 346.601563 C 419.898438 346.199219 426.398438 347.597656 430.800781 345.398438 C 433 341.300781 435.199219 337.300781 435.898438 332.601563 L 447.101563 329.300781 C 449.800781 329.800781 450 333 451.5 334.800781 C 458.101563 334.800781 464.601563 336 468.699219 341 C 469.199219 343.398438 464.398438 345.898438 463.898438 346.601563 C 468.699219 349.5 473.699219 352.097656 477.601563 356.402344 C 478.199219 361.402344 466.800781 381.597656 466.800781 381.597656 Z M 483.101563 351.097656 L 476.398438 346.300781 C 475.898438 340.601563 475.898438 334 470.199219 331 C 467.300781 329.300781 462.898438 330.398438 459.898438 329.800781 L 456.5 322.300781 C 470.898438 322.398438 485.101563 320.398438 499 319.398438 C 494.101563 330.199219 488.800781 340.699219 483.101563 351.097656 Z M 388.300781 306 C 371.300781 300.898438 354.699219 294.800781 338.199219 288.5 C 338.101563 287.398438 339.699219 286.101563 340.800781 285.601563 L 435.898438 297.601563 L 496.300781 306 L 500.398438 311.5 C 464 313.601563 421.601563 319.101563 388.300781 306 "/>
<path style=" stroke:none;fill-rule:nonzero;fill:rgb(0%,0%,0%);fill-opacity:1;" d="M 236.699219 70.300781 L 231.898438 17.5 C 230.199219 18 228.199219 17.5 226.601563 18 L 231.398438 71.101563 L 236.699219 70.300781 "/>
<path style=" stroke:none;fill-rule:nonzero;fill:rgb(0%,0%,0%);fill-opacity:1;" d="M 155.714844 199.945313 C 157.28125 198.957031 158.199219 196.125 159.398438 194.699219 L 136.800781 187.898438 L 134.898438 194.398438 C 134.898438 194.398438 155.195313 200.273438 155.714844 199.945313 "/>
<path style=" stroke:none;fill-rule:nonzero;fill:rgb(0%,0%,0%);fill-opacity:1;" d="M 174 95.101563 L 116.398438 10.101563 C 114.800781 10.800781 113.398438 12 111.898438 13 C 119 23.601563 170.199219 98.699219 170.199219 98.699219 C 170.199219 98.699219 174.5 95.398438 174 95.101563 "/>
<path style=" stroke:none;fill-rule:nonzero;fill:rgb(0%,0%,0%);fill-opacity:1;" d="M 147.199219 222.5 L 140.199219 220.300781 L 131.800781 231.800781 C 133.398438 233.199219 135.199219 234.800781 136.800781 235.199219 L 147.199219 222.5 "/>
<path style=" stroke:none;fill-rule:nonzero;fill:rgb(0%,0%,0%);fill-opacity:1;" d="M 126 125.5 L 122.699219 125.300781 C 120.601563 130.699219 117.800781 136.101563 116.199219 141.398438 L 123.601563 141.101563 C 124.101563 135.800781 125.601563 130.898438 126 125.5 "/>
<path style=" stroke:none;fill-rule:nonzero;fill:rgb(0%,0%,0%);fill-opacity:1;" d="M 159.898438 139.898438 L 155.101563 135.898438 L 140.199219 146.199219 C 140.300781 147.300781 141.300781 148.101563 141.898438 149.101563 C 147.800781 145.800781 154.398438 143.800781 159.898438 139.898438 "/>
<path style=" stroke:none;fill-rule:nonzero;fill:rgb(0%,0%,0%);fill-opacity:1;" d="M 191.101563 204 L 185.601563 200.398438 L 178.601563 215.5 C 180.601563 216.101563 182.898438 217 184.601563 217 L 191.101563 204 "/>
<path style=" stroke:none;fill-rule:nonzero;fill:rgb(0%,0%,0%);fill-opacity:1;" d="M 66.5 215 C 68 215.101563 68.898438 213.898438 69.199219 212.601563 C 72.765625 204.003906 60.035156 198.429688 60.5 211.398438 C 61.601563 213.898438 64.101563 214.800781 66.5 215 "/>
<path style=" stroke:none;fill-rule:nonzero;fill:rgb(0%,0%,0%);fill-opacity:1;" d="M 142.800781 368.199219 L 139.199219 372 C 164.300781 395.300781 204 393.101563 236.199219 386.902344 C 235.300781 385.300781 235.898438 382.902344 234.699219 381.597656 C 204.300781 386.902344 166.800781 389.597656 142.800781 368.199219 "/>
<path style=" stroke:none;fill-rule:nonzero;fill:rgb(0%,0%,0%);fill-opacity:1;" d="M 326.699219 364.800781 L 346.601563 364.800781 L 345.601563 357.402344 C 339.5 358 333.601563 359 327.601563 360 L 326.699219 364.800781 "/>
<path style=" stroke:none;fill-rule:nonzero;fill:rgb(0%,0%,0%);fill-opacity:1;" d="M 437.101563 264.699219 L 440.898438 257.300781 C 437.5 257.800781 423.699219 257.339844 421.472656 258.265625 C 420.375 258.722656 419.734375 259.722656 420 261.800781 C 425.699219 262.800781 431.398438 263.800781 437.101563 264.699219 "/>
<path style=" stroke:none;fill-rule:nonzero;fill:rgb(0%,0%,0%);fill-opacity:1;" d="M 392.398438 335.800781 L 381.101563 335.300781 C 381.101563 335.300781 381.800781 342.199219 383.5 342.199219 C 386.898438 341.101563 389.898438 338.5 392.398438 335.800781 "/>
<path style=" stroke:none;fill-rule:nonzero;fill:rgb(0%,0%,0%);fill-opacity:1;" d="M 95.300781 246 C 88.171875 246.214844 87.445313 240.328125 86.492188 234.796875 C 85.335938 228.074219 84.621094 227.308594 79.871094 228.851563 C 60.84375 235.039063 28.25 230.902344 24.484375 197.722656 C 23.621094 190.140625 24.800781 184.300781 24.800781 184.300781 C 23.601563 180.398438 18.199219 181.601563 15.898438 183.398438 L 14.199219 249.101563 L 16.800781 250.101563 C 44.300781 252.300781 70.101563 249.898438 97.5 250.300781 C 99 250.101563 101 250 101.601563 248.601563 C 100.5 246.199219 97.398438 246.800781 95.300781 246 "/>
<path style=" stroke:none;fill-rule:nonzero;fill:rgb(0%,0%,0%);fill-opacity:1;" d="M 94.800781 208.601563 C 103.503906 190.738281 90.71875 181.738281 74.699219 176.898438 C 48.300781 172.136719 23.097656 187.195313 36.300781 213.601563 C 44.929688 229 84.273438 230.199219 94.800781 208.601563 Z M 56.199219 186.5 C 61.5 186.800781 63.800781 194.300781 69.601563 193.199219 C 73.800781 192.800781 77.800781 192.699219 81.898438 193.5 C 84.199219 196.199219 85.398438 199.398438 85.5 203.101563 C 79.820313 197.777344 75.28125 199.191406 71.800781 205.898438 C 72.199219 209.398438 76.101563 211.398438 78.300781 214.101563 C 71.898438 218.398438 61.699219 217.199219 54.5 215 C 57.800781 212.800781 52.601563 206.199219 58.101563 205 C 59.300781 204.398438 58.800781 202.800781 58.601563 201.898438 C 55.800781 197 49.5 197.5 44.398438 196.601563 C 45.898438 191.398438 51.398438 188.199219 56.199219 186.5 "/>
</g>
</svg>
