<?xml version="1.0" encoding="UTF-8"?>
<svg xmlns="http://www.w3.org/2000/svg" xmlns:xlink="http://www.w3.org/1999/xlink" width="546pt" height="609pt" viewBox="0 0 546 609" version="1.1">
<g id="surface1">
<path style=" stroke:none;fill-rule:nonzero;fill:rgb(6.886292%,6.254578%,5.79071%);fill-opacity:1;" d="M 532.792969 18.886719 C 531.046875 11.882813 527.550781 10.136719 520.542969 9.546875 C 513.535156 8.964844 405.578125 -0.371094 402.085938 -0.371094 C 398.59375 -0.371094 41.472656 67.902344 35.050781 69.648438 C 28.632813 71.402344 21.054688 75.488281 17.5625 84.820313 C 14.046875 94.160156 1.226563 173.519531 1.226563 173.519531 C 1.226563 173.519531 27.476563 254.621094 28.0625 257.542969 C 28.632813 260.460938 39.726563 265.714844 49.640625 266.878906 C 59.574219 268.046875 147.679688 287.304688 156.4375 288.464844 C 165.191406 289.636719 196.109375 279.132813 196.109375 279.132813 C 196.109375 279.132813 156.4375 573.226563 156.4375 581.394531 C 156.4375 589.570313 161.675781 603.566406 178.011719 607.0625 C 194.363281 610.574219 200.195313 609.40625 211.875 607.0625 C 211.875 607.0625 288.300781 576.730469 293.5625 572.648438 C 298.804688 568.550781 297.058594 542.296875 296.46875 538.214844 C 295.898438 534.128906 279.546875 532.382813 279.546875 532.382813 L 311.054688 267.460938 L 328.566406 262.796875 L 330.3125 243.539063 C 330.3125 243.539063 521.132813 182.269531 525.804688 181.097656 C 530.457031 179.933594 533.972656 166.515625 535.128906 161.84375 C 536.289063 157.183594 545.042969 98.832031 545.042969 98.832031 C 545.042969 98.832031 534.5625 25.886719 532.792969 18.886719 Z M 127.261719 67.316406 L 424.839844 6.636719 L 138.925781 66.734375 L 173.359375 73.152344 L 482.046875 11.882813 L 173.359375 76.070313 L 82.914063 63.8125 Z M 29.8125 199.1875 L 35.640625 218.445313 L 47.890625 221.953125 L 32.734375 221.953125 Z M 222.378906 564.46875 L 217.117188 569.71875 L 218.863281 562.144531 L 273.714844 556.882813 Z M 224.125 553.386719 L 218.273438 558.628906 L 221.789063 550.464844 L 277.796875 545.21875 Z M 220.609375 545.21875 L 222.378906 535.875 L 275.460938 533.539063 L 225.285156 540.546875 Z M 257.96875 298.972656 L 232.292969 517.792969 L 275.460938 521.878906 L 225.285156 522.457031 L 254.457031 296.050781 L 303.476563 296.640625 Z M 250.960938 268.046875 L 249.214844 276.214844 L 304.066406 280.882813 L 248.625 281.46875 L 248.035156 285.554688 L 305.222656 291.96875 L 248.035156 289.636719 L 204.867188 605.3125 L 245.71875 270.382813 L 220.042969 276.796875 L 171.609375 598.316406 L 213.621094 277.382813 L 199.035156 277.964844 L 322.144531 241.203125 Z M 192.597656 193.359375 L 180.9375 277.964844 L 187.355469 194.527344 L 169.863281 193.359375 L 187.355469 190.4375 C 187.355469 190.4375 185.019531 115.164063 183.273438 104.660156 C 181.523438 94.160156 171.019531 87.15625 171.019531 87.15625 L 164.011719 88.324219 C 164.011719 88.324219 168.097656 97.078125 169.863281 108.164063 C 171.609375 119.246094 164.011719 195.695313 164.011719 195.695313 C 164.011719 195.695313 169.863281 269.214844 169.863281 276.214844 C 169.863281 283.222656 166.9375 286.136719 156.4375 285.554688 C 145.933594 284.96875 40.3125 260.460938 40.3125 260.460938 C 40.3125 260.460938 150.605469 283.222656 158.769531 282.632813 C 166.9375 282.050781 164.601563 279.71875 165.191406 275.046875 C 165.761719 270.382813 160.519531 198.019531 160.519531 198.019531 L 21.644531 174.105469 L 25.140625 112.835938 C 25.140625 112.835938 15.226563 154.847656 12.890625 165.933594 C 10.550781 177.015625 11.140625 174.105469 16.382813 175.851563 C 21.644531 177.597656 143.007813 196.863281 143.007813 196.863281 C 143.007813 196.863281 22.234375 181.097656 15.226563 178.765625 C 8.214844 176.429688 7.628906 170.601563 8.804688 167.683594 C 9.964844 164.765625 29.222656 85.988281 29.222656 85.988281 L 25.140625 173.519531 L 160.519531 192.191406 C 160.519531 192.191406 168.117188 101.183594 159.339844 92.40625 C 155.476563 88.542969 38.566406 71.402344 38.566406 71.402344 L 158.183594 84.234375 L 517.636719 13.050781 L 176.28125 85.988281 C 176.28125 85.988281 185.019531 90.65625 187.945313 105.246094 C 190.867188 119.835938 191.4375 191.023438 191.4375 191.023438 L 542.726563 101.742188 Z M 143.597656 269.800781 L 125.496094 266.878906 L 122.003906 248.203125 L 127.832031 264.546875 Z M 128.421875 214.941406 L 133.09375 231.871094 L 148.839844 238.867188 L 130.167969 234.78125 Z M 104.488281 229.535156 L 102.742188 211.441406 L 108.003906 227.78125 L 123.746094 233.039063 Z M 103.921875 261.042969 L 118.507813 265.128906 L 100.996094 263.375 L 96.910156 242.371094 Z M 79.988281 226.613281 L 77.652344 205.609375 L 84.660156 224.867188 L 99.835938 230.703125 Z M 78.242188 254.621094 L 92.238281 261.628906 L 75.316406 256.960938 L 73.570313 238.285156 Z M 54.902344 223.113281 L 53.152344 201.523438 L 58.394531 220.777344 L 75.90625 226.035156 Z M 54.902344 251.703125 L 69.488281 257.542969 L 50.226563 254.039063 L 49.070313 234.203125 Z M 54.902344 150.171875 C 55.488281 157.183594 60.160156 158.351563 65.402344 159.507813 C 70.644531 160.679688 146.503906 174.683594 146.503906 174.683594 C 146.503906 174.683594 74.746094 165.347656 64.226563 163.011719 C 53.742188 160.679688 50.226563 158.351563 50.816406 154.261719 C 51.40625 150.171875 47.890625 123.332031 48.480469 116.332031 C 49.070313 109.328125 51.976563 109.328125 55.488281 110.496094 C 58.984375 111.660156 145.933594 121 145.933594 121 C 145.933594 121 66.734375 113.574219 61.910156 113.414063 C 57.785156 113.273438 52.566406 114.582031 51.976563 118.085938 C 51.40625 121.589844 54.3125 143.175781 54.902344 150.171875 "/>
</g>
</svg>
