<?xml version="1.0" encoding="UTF-8"?>
<svg xmlns="http://www.w3.org/2000/svg" xmlns:xlink="http://www.w3.org/1999/xlink" width="528pt" height="494pt" viewBox="0 0 528 494" version="1.1">
<g id="surface1">
<path style=" stroke:none;fill-rule:nonzero;fill:rgb(0%,0%,0%);fill-opacity:1;" d="M 432.898438 352.601563 L 430.699219 345.398438 L 426.898438 346.800781 C 414.265625 337.398438 405.722656 340.867188 409.898438 351.199219 C 405 351.601563 399 349.898438 395.699219 353.601563 C 394.699219 357.398438 399.199219 359.601563 400.300781 362.898438 C 396.5 366.5 390.398438 364.601563 386.601563 368.199219 C 389 372.5 400.699219 372.300781 407.199219 372.300781 L 407.199219 374.199219 L 414.398438 374.398438 C 414.398438 374.398438 417.664063 355.164063 432.898438 352.601563 "/>
<path style=" stroke:none;fill-rule:nonzero;fill:rgb(0%,0%,0%);fill-opacity:1;" d="M 344.800781 139.5 L 351.800781 140.5 C 356.761719 103.960938 354.480469 95.230469 332.582031 62.890625 C 320.332031 44.800781 317.023438 30.539063 322 12.300781 L 315.5 9.898438 C 303.199219 38.699219 323.601563 62.898438 338.300781 85 C 347.398438 100.300781 346.199219 121 344.800781 139.5 "/>
<path style=" stroke:none;fill-rule:nonzero;fill:rgb(0%,0%,0%);fill-opacity:1;" d="M 305.199219 141.199219 C 307.601563 141.5 310 142.5 312.398438 142.101563 C 313.199219 135.5 311.398438 129.398438 309.300781 123.699219 C 301.601563 103.300781 286.101563 85.898438 287 62.199219 L 279.800781 61.5 C 278.101563 86.101563 293.398438 104.300781 301.898438 125.101563 C 304.101563 130 305.601563 135.199219 305.199219 141.199219 "/>
<path style=" stroke:none;fill-rule:nonzero;fill:rgb(0%,0%,0%);fill-opacity:1;" d="M 249.5 147.699219 C 251.800781 148.398438 257.335938 149.5 257.335938 149.5 C 258.632813 118.101563 242 91.300781 234 63.398438 C 226.800781 43.300781 231.5 19.800781 244 3.699219 C 242.101563 2.199219 240.199219 0.601563 238 -0.398438 C 226.398438 15.699219 219.300781 35.898438 224.601563 56.898438 C 231.398438 87.800781 251 114 249.5 147.699219 "/>
<path style=" stroke:none;fill-rule:nonzero;fill:rgb(0%,0%,0%);fill-opacity:1;" d="M 220.300781 364.601563 C 217.300781 370.898438 208.613281 371.980469 203.199219 369.601563 C 187.523438 362.707031 178.820313 373.992188 178 392.898438 L 176.101563 393.199219 L 174.699219 400.097656 C 207.492188 409.367188 259.53125 382.097656 265.339844 323.46875 C 268.023438 296.363281 266.066406 267.371094 250.5 246.300781 L 244.5 250.101563 L 246.335938 252.835938 C 239.132813 262.335938 249 270.101563 248.300781 280.101563 C 239.234375 294.609375 240.398438 307.183594 245 323.800781 C 246.882813 330.601563 242.054688 332.246094 236.558594 333.773438 C 223.121094 337.507813 219.375 344.714844 220.300781 364.601563 "/>
<path style=" stroke:none;fill-rule:nonzero;fill:rgb(0%,0%,0%);fill-opacity:1;" d="M 197.699219 323.101563 C 209.8125 333.066406 223.863281 330.660156 228.800781 319.078125 C 232.464844 310.480469 228.964844 298.71875 220.300781 291.199219 C 219.957031 280.246094 218.988281 264.695313 209.703125 260.089844 C 201.085938 255.816406 185.035156 259.273438 185.199219 283 C 185.304688 298 187.101563 312.398438 197.699219 323.101563 Z M 195.101563 271.699219 C 199 281.835938 209.664063 279.835938 204.699219 291.601563 C 202.117188 297.722656 205.359375 304.296875 210.015625 305.078125 C 222.066406 307.105469 222.84375 318.15625 216.398438 320.398438 C 201.480469 324.988281 193.648438 305.820313 193.019531 286.84375 C 192.871094 282.292969 195.101563 271.699219 195.101563 271.699219 "/>
<path style=" stroke:none;fill-rule:nonzero;fill:rgb(0%,0%,0%);fill-opacity:1;" d="M 137.699219 205.300781 C 137.699219 205.300781 140.976563 221.886719 155.265625 218.238281 C 157.921875 217.558594 168.28125 218.800781 169.960938 220.867188 C 176.398438 228.792969 180.808594 224.132813 187.398438 213.898438 L 190 214.398438 C 190.398438 212 191.335938 209.164063 191.199219 207.199219 C 176 204.835938 160.527344 200.539063 149.414063 192.390625 C 133.617188 180.804688 112.078125 187.199219 112.300781 208.101563 C 114.699219 208.300781 125.1875 207.828125 127.671875 206.847656 C 130.914063 205.5625 134.132813 203.941406 137.699219 205.300781 "/>
<path style=" stroke:none;fill-rule:nonzero;fill:rgb(0%,0%,0%);fill-opacity:1;" d="M 527.5 356.898438 C 526.398438 319.101563 491.5 286.101563 457.898438 274.800781 L 457.898438 257.800781 C 458 188.835938 419.882813 171.566406 359.308594 175.078125 C 338.667969 176.277344 317.691406 181.085938 296.800781 176.5 C 271.898438 171.601563 249.664063 178.5 224.601563 183.398438 C 208.1875 186.609375 194.398438 177.601563 179.199219 175 L 165.800781 174.101563 C 163.367188 173.453125 160.878906 172.757813 158.339844 172.144531 C 144.617188 168.808594 121.113281 165.988281 106.285156 180.449219 C 90.027344 196.304688 96.636719 218.542969 111.101563 237.398438 C 113.398438 244.699219 111 253 108.898438 260 C 108.898438 260 76.378906 251.984375 66.398438 263.800781 C 64.5 272.800781 66.101563 282.699219 66 292.101563 L 54 297.199219 C 21.898438 314.300781 -3.601563 347.601563 0.199219 385 C 3.5 423.097656 42.199219 450.601563 74.398438 463.199219 C 193.160156 510.027344 369.628906 502.304688 466.300781 449.601563 C 500.800781 431.902344 528.601563 396.402344 527.5 356.898438 Z M 267.300781 203.101563 C 278.335938 210.835938 287 220.101563 300.199219 215.101563 C 309.800781 208 317.796875 196.683594 330.199219 196.601563 C 337.582031 196.550781 343.449219 199.886719 349.320313 202.855469 C 360.207031 208.359375 367.792969 208.460938 376.269531 201.09375 C 383.40625 194.886719 391.835938 196.984375 404.128906 205.652344 C 409.359375 209.34375 418.664063 210.835938 423.800781 203.101563 C 428.300781 207.101563 431.898438 211.898438 434.800781 216.800781 C 434.398438 220.101563 414.46875 234.792969 412.300781 242.199219 C 411.335938 245.5 422.335938 247.5 434.601563 247.300781 C 435.898438 255 426.300781 258.199219 422.800781 264.5 C 425 271.164063 434.046875 264.398438 441.5 268.800781 C 448.335938 272.835938 434.699219 278.199219 431.699219 283 C 430.800781 285.398438 433.898438 287.300781 435.5 288.5 L 446.800781 293.800781 C 439.664063 294.835938 432.800781 296.101563 425.898438 297.601563 C 420.5 293.601563 413.300781 288.5 406.5 292.601563 C 406.101563 270 398.898438 250.300781 385.898438 232.898438 L 379.601563 237.398438 C 387.925781 244.191406 364.410156 261.601563 360.699219 271.199219 C 360.398438 274 362.601563 275.5 364.699219 276.5 C 369 278.101563 373.5 275.398438 377.5 277 C 380.5 287.5 368 293.300781 365.699219 302.398438 C 365.398438 305 372 310.835938 381.300781 309.199219 C 380.75 318.972656 376.863281 324.390625 370.710938 329.125 C 368.414063 330.886719 365 341.199219 366.199219 343.199219 C 360 350.800781 353.800781 358.800781 351.101563 368 L 341.5 366.5 C 355.601563 328.101563 345.699219 284.800781 328.300781 251.101563 C 326.101563 251.5 323.699219 253 321.5 254.199219 C 321.9375 257.085938 324.539063 258.722656 323.761719 262.851563 C 323.648438 263.445313 311.5 282.300781 307.101563 291.601563 C 304.261719 303.902344 319.238281 294.828125 322.699219 302.699219 C 324 307.300781 307.839844 326.253906 308.101563 333.601563 C 308.289063 338.921875 316.417969 338.617188 323.664063 338.433594 C 329.746094 338.28125 331.128906 341.25 323.421875 346.953125 C 315.515625 352.804688 306.738281 356.921875 299.898438 364.398438 C 296.640625 371.191406 313.128906 370.820313 320.800781 371.601563 C 322.699219 372.5 320.664063 375.5 312.699219 377.601563 C 300.757813 380.746094 292.78125 392.203125 297.230469 403.40625 C 297.402344 403.839844 295.460938 405.234375 295.167969 404.441406 C 288.550781 386.398438 270.527344 390.527344 265.898438 400.402344 C 255.261719 396.375 237.285156 406.695313 238.800781 423.199219 L 236.800781 423.199219 C 236.601563 417.597656 234.199219 412.800781 229.601563 409.199219 C 273.800781 386.199219 290.664063 338.835938 287.199219 291.898438 C 283.519531 242.070313 239.898438 206.199219 239.898438 206.199219 C 250 203.164063 260.117188 198.066406 267.300781 203.101563 Z M 466.996094 335.757813 C 470.660156 335.578125 473.769531 335.398438 471.300781 340.800781 C 469.699219 343.398438 467.300781 345.800781 468.199219 349 C 469.5 351.300781 475.664063 351.5 479.5 350.898438 C 482.398438 355.601563 476.265625 358 476.664063 362.5 C 477.867188 364.300781 480.5 365.699219 482.101563 366.300781 C 477.199219 372.300781 471.101563 377.898438 470.601563 385.699219 C 469.316406 403.1875 452.351563 413.96875 437.679688 413.273438 C 433.628906 413.078125 413.90625 416.148438 408.371094 418.585938 C 393.214844 425.253906 373.898438 424.519531 373.898438 414.300781 C 388.988281 398.582031 376.65625 380.652344 357.5 386.398438 C 354.664063 381.667969 359.128906 363.496094 370.699219 350.699219 C 377.199219 348.199219 383.898438 350.800781 389.199219 354 L 394 348.5 C 389 343.398438 381.699219 341.898438 374.101563 342 C 371.160156 337.722656 376.996094 330.867188 389.699219 331.699219 C 395.195313 312.828125 399.480469 303.324219 412 299.300781 C 411.398438 303.398438 408.699219 310 413.5 312.800781 C 417.730469 313.578125 420.988281 311.003906 424.949219 310.476563 C 425.582031 310.390625 426.136719 313.285156 425.648438 313.441406 C 418.730469 315.667969 411.28125 319.820313 408.199219 327.199219 C 410.601563 328.101563 412.898438 330 415.398438 330 C 419.101563 323.699219 437.601563 317.601563 440.300781 317.300781 C 441.898438 316.898438 443.300781 317.898438 443.699219 319.199219 C 444.199219 321.398438 443.601563 324.300781 445.898438 325.199219 C 452 325 456.5 320.199219 462.199219 319.5 C 463.898438 322.101563 462.335938 324.835938 460.5 327.898438 C 457.277344 333.292969 459.078125 336.148438 466.996094 335.757813 Z M 302.101563 449.300781 C 288.640625 450.644531 280.214844 441.777344 277.398438 434.199219 C 275.199219 434.902344 273.101563 435.601563 270.898438 436.398438 C 271.394531 433.929688 273.0625 430.46875 275 429.5 C 277.664063 432.167969 285.300781 432.5 285.300781 432.5 C 291.199219 425.597656 295.601563 417.699219 302.300781 411.597656 L 307.398438 414.5 C 305.5 415.199219 301.664063 417.5 301.398438 422.902344 C 298.699219 423.097656 293.335938 428.167969 296.800781 436.101563 C 293.664063 439.5 297.664063 443.832031 302.800781 443.601563 L 315.101563 438.5 C 322.941406 450.964844 310.214844 466.167969 297.101563 464.199219 C 271.1875 457.90625 267.335938 449.167969 270.335938 439.5 C 274.292969 449.917969 293.738281 460.40625 304 456.300781 Z M 281 424.800781 C 278.199219 423.300781 276.800781 420.402344 274.699219 418.097656 C 274.601563 414.097656 273.101563 410.597656 271.601563 407.097656 C 273.824219 399.976563 277.5625 397.402344 282.199219 399.902344 C 278.601563 407.097656 279.898438 416.800781 281 424.800781 Z M 307.601563 388.800781 C 307.398438 395.699219 311.300781 400.800781 316 405.597656 C 312.199219 408.902344 300.664063 397.167969 307.601563 388.800781 Z M 312.398438 431.097656 C 315.101563 426.097656 318.398438 420.5 316 414.300781 C 320.699219 412.800781 325 409.199219 328.300781 405.199219 C 329.5 407.199219 331.5 409.402344 333.5 410.699219 C 320.558594 437.28125 349.082031 453.917969 363.800781 431.597656 C 367 429.699219 370.898438 429.300781 374.601563 428.699219 C 386 436.699219 401.300781 430.597656 412 425.300781 C 417 426.402344 421.898438 427.597656 425.898438 430.800781 C 412.398438 439.699219 391.335938 430.167969 378.199219 440.199219 C 368.878906 447.320313 360.800781 458.199219 347.898438 457 L 336.898438 454.800781 C 333.601563 450.101563 329.601563 445.101563 324.699219 441.601563 C 323.898438 437.5 318.335938 432.5 312.398438 431.097656 Z M 345.300781 399.402344 C 343.601563 401.800781 340.601563 402.199219 338.300781 404 C 332.003906 402.0625 330.785156 391.234375 337.324219 384.824219 C 339.964844 382.238281 343.101563 381.398438 343.101563 381.398438 C 342.101563 387.601563 342.800781 394.199219 345.300781 399.402344 Z M 349.601563 432.5 C 347.199219 433.300781 344 433.199219 341.699219 432.300781 C 334.609375 426.765625 338.199219 411.308594 345.5 410 C 346.335938 412.5 348.335938 416.832031 351.664063 418.167969 C 350.566406 421.667969 348.5 429.300781 349.601563 432.5 Z M 363.101563 411.902344 C 361.101563 412.800781 358 413.300781 355.601563 412.402344 C 351.671875 409.082031 349.929688 392.550781 363.5 393.398438 C 356.664063 400.167969 363.101563 411.902344 363.101563 411.902344 Z M 258.398438 461.300781 C 256.300781 462.101563 252.898438 462.101563 251 460.398438 C 242.308594 451.707031 252 440.832031 252 440.832031 C 252.699219 444.332031 259.324219 446.976563 258.398438 450.800781 C 257.664063 453.832031 258 458.5 258.398438 461.300781 Z M 246.699219 422 C 246.699219 417.699219 248.800781 413.800781 252.398438 411.402344 C 253.800781 417.402344 259.601563 422.902344 264.898438 426 C 259.28125 435.128906 248.074219 431.160156 246.699219 422 Z M 178.5 417.199219 C 179.800781 415.800781 181.199219 414.902344 182.800781 414.300781 C 186.5 418.5 188.898438 423.300781 190 428.699219 C 185.546875 437.011719 178.386719 436.519531 175.199219 430.597656 C 177 426.5 178.898438 422.300781 178.5 417.199219 Z M 203.5 433 C 199.199219 437.601563 194.101563 443.5 194.601563 450.5 C 195.398438 452.398438 206.101563 446.898438 210.199219 445.699219 C 208.300781 450.300781 204.300781 453.898438 203.5 458.898438 C 203.5 458.898438 215.199219 452.898438 221 450.5 C 221.101563 454.601563 217.800781 458 217.601563 462.300781 C 217.601563 462.300781 227.601563 460.398438 232.300781 459.601563 C 227.179688 473.582031 206.929688 478.90625 195.800781 468 C 180.050781 450.648438 188.21875 434.730469 203.5 433 Z M 204.699219 424.800781 L 199.398438 425.597656 L 200.601563 417.199219 C 202.398438 417.402344 204 417.167969 205.601563 416.902344 C 204.601563 419.300781 204.601563 422.097656 204.699219 424.800781 Z M 220.300781 414.300781 C 231.734375 414.300781 231.035156 435.300781 219.300781 434.402344 C 218.664063 427.5 218.699219 420.5 220.300781 414.300781 Z M 228.199219 441.199219 C 231.300781 438.800781 235.101563 435.300781 235.898438 431.300781 L 240.898438 430.800781 L 246.199219 436.601563 C 241.800781 440.398438 240.101563 445.699219 239.898438 451 C 236 447.699219 232 444.699219 228.199219 441.199219 Z M 119.5 247.300781 C 120.8125 238.707031 116.890625 232.046875 112.804688 225.496094 C 91.371094 191.144531 124.59375 171.4375 145.898438 181.300781 C 155.601563 187.199219 164.699219 194.699219 175.601563 197.601563 C 192.101563 202 210.800781 201.101563 226.800781 206.699219 C 251.859375 222.144531 281.203125 270.363281 279.660156 308.195313 C 277.335938 365.164063 238.765625 410.710938 196.800781 409.199219 C 191.5 405.597656 183.601563 404.800781 177.800781 407.800781 L 176.335938 402.832031 C 167.933594 401.234375 159.898438 398.199219 151.398438 397 C 151.398438 397 158.800781 388.101563 161 383.300781 C 159.738281 372.191406 138.066406 344.242188 127.941406 337.886719 C 122.277344 334.335938 128.101563 321.710938 132.21875 315.53125 C 135.890625 310.019531 138.527344 304.878906 134.398438 299.601563 C 132.039063 296.578125 130.625 291.433594 133.601563 288.5 C 142.332031 279.890625 141.957031 271.574219 135.300781 262.101563 L 136.300781 259.699219 C 134.300781 258.398438 131.800781 257.398438 129.300781 256.800781 C 119.148438 281.976563 113.585938 319.921875 116.800781 336 C 114.300781 336.898438 111.601563 337.199219 109.398438 338.699219 C 105.601563 306.699219 113.300781 276.800781 119.5 247.300781 Z M 153.101563 423.199219 C 147.300781 423.597656 142 425.5 138.199219 430.097656 C 144 440.5 137.5 450.800781 137.5 450.800781 C 128.199219 447.398438 118.300781 442.199219 112 433 C 108.664063 426.332031 117.445313 418.433594 125.5 413.597656 C 139.335938 417.832031 142 406.597656 142 406.597656 C 147.101563 406.5 151.199219 405.902344 156.398438 406.097656 C 152.648438 408.8125 149.664063 416.5 153.101563 423.199219 Z M 102.398438 355 C 105 350.300781 109.898438 347.199219 114.398438 345.199219 C 112.699219 354.800781 121.5 359.699219 127.601563 365.300781 C 121.421875 373.875 122.644531 377.78125 128.1875 385.273438 C 132.96875 391.734375 131.621094 399.054688 131 406.402344 C 121.398438 405.199219 112.601563 402.300781 103.601563 399.597656 C 102.5 385.101563 101.699219 370 102.398438 355 Z M 73.398438 267.398438 C 79.398438 263.5 88.300781 264.300781 95.5 265.199219 C 93.398438 266.800781 89.667969 275.5 94 281.101563 C 86.332031 287.164063 87.199219 296.398438 88 300.5 C 83.699219 302 78.800781 302.199219 74.398438 303.398438 C 73.300781 291.699219 73.398438 279.300781 73.398438 267.398438 Z M 58.5 350.898438 C 60.828125 325.082031 81.148438 315.539063 100.300781 314 C 100.601563 316.800781 100.601563 320.199219 100.300781 323.101563 C 95 322.300781 88.5 321.898438 85.398438 327.199219 C 82.300781 334.101563 94 342.5 83.699219 346.601563 C 72.824219 350.898438 72.285156 357.445313 81.601563 368 C 74.699219 372.75 74.34375 382.273438 76 390 C 62.800781 381.101563 56.800781 366.800781 58.5 350.898438 Z M 54.898438 377.800781 C 59.101563 385.699219 66.800781 395.199219 75.601563 398.699219 C 78 399.199219 80.699219 399.097656 82.300781 396.800781 C 86.101563 390.601563 90.398438 384.601563 94.5 378.5 L 95 390 C 91.800781 394.699219 86.101563 399 88 405.199219 C 90.800781 408.300781 93.898438 411.5 92.601563 416 C 81 409.5 66.601563 409.597656 54 405.597656 C 45.445313 399.96875 45.507813 386.765625 54.898438 377.800781 Z M 479.699219 431.800781 C 389.886719 493.082031 214.367188 503.992188 86.398438 459.601563 C 53 447.5 8.199219 421.300781 7.398438 379.699219 C 7.699219 354.898438 18.898438 334 37.898438 317.601563 C 39.101563 323.898438 46 331.699219 39.300781 337.5 C 30.285156 343.417969 30.882813 356.359375 35 364.261719 C 36.398438 366.949219 37.449219 369.699219 36 373.199219 C 34.652344 379.316406 34.523438 390.539063 40 392 C 40.226563 410.089844 53 417.5 68.800781 417.199219 C 79.101563 425.597656 90.601563 431 102.398438 435.601563 C 102.398438 435.601563 129.839844 457.203125 149.289063 463.960938 C 158.902344 467.300781 166.566406 467.015625 168 458.699219 L 169.898438 451 L 181.601563 451 C 176.535156 472.3125 207.339844 490.261719 230.460938 474.199219 C 236.871094 469.742188 247.980469 466.542969 251.898438 469.5 C 258.101563 470.800781 263.300781 468.5 268 465.898438 L 280.300781 466.398438 C 289.597656 471.148438 306.84375 475.882813 314.960938 467.128906 C 320.785156 460.847656 327.726563 461.144531 334.578125 462.859375 C 346.488281 465.839844 363 466.832031 370.300781 457.699219 C 377.042969 449.265625 385.445313 442.753906 396.335938 443.105469 C 429.246094 444.167969 439.164063 436.585938 437.699219 421.199219 C 472.691406 427.492188 480.199219 381.199219 480.199219 381.199219 C 506.894531 346.496094 489.5 334.800781 489.5 334.800781 C 487.5 328.101563 486.699219 320.101563 479.5 316.101563 L 471.101563 312.300781 C 469.199219 305.398438 464.199219 297.300781 456.699219 295.199219 C 457 290.835938 457.335938 286.5 457.398438 283 C 485.199219 293.101563 514.699219 319.699219 519.300781 350.199219 C 523.398438 383.699219 505.898438 411.902344 479.699219 431.800781 "/>
<path style=" stroke:none;fill-rule:nonzero;fill:rgb(0%,0%,0%);fill-opacity:1;" d="M 433.898438 356 C 431.101563 357.5 435.5 359.898438 435.101563 362.398438 C 426.335938 363.835938 420.5 367 420.199219 368.898438 C 422.300781 371.398438 428.300781 374.898438 428.300781 374.898438 C 426.300781 377.601563 419 377.835938 416.101563 380.699219 C 420.800781 385.101563 428.898438 382.398438 434.800781 382.101563 C 437.398438 382.800781 440.300781 383.699219 442.699219 383.601563 C 445 377.101563 446.800781 369.601563 453.300781 365.800781 L 451.601563 359.101563 C 451.101563 359 439.699219 356.101563 433.898438 356 "/>
</g>
</svg>
