<?xml version="1.0" encoding="UTF-8"?>
<svg xmlns="http://www.w3.org/2000/svg" xmlns:xlink="http://www.w3.org/1999/xlink" width="456pt" height="636pt" viewBox="0 0 456 636" version="1.1">
<g id="surface1">
<path style=" stroke:none;fill-rule:nonzero;fill:rgb(0%,0%,0%);fill-opacity:1;" d="M 228 0.90625 C 102.574219 0.90625 0.890625 142.878906 0.890625 318 C 0.890625 493.121094 102.574219 635.09375 228 635.09375 C 353.425781 635.09375 455.105469 493.121094 455.105469 318 C 455.105469 142.878906 353.425781 0.90625 228 0.90625 Z M 255.96875 620.5 C 254.859375 620.707031 250.441406 621.652344 250.441406 621.652344 L 250.644531 586.292969 C 324.121094 559.039063 310.273438 496.402344 283.527344 473.144531 C 284.539063 462.023438 273.617188 447.429688 255.210938 446.59375 C 258.378906 439.75 261.675781 434.523438 265.3125 428.523438 C 269.875 421.003906 268.234375 420.027344 261.664063 420.082031 C 258.488281 420.105469 255.054688 420.328125 252.171875 420.433594 C 252.015625 413.769531 252.015625 408.4375 252.171875 401.464844 C 252.171875 401.464844 263.246094 395.535156 266.347656 390.109375 C 266.035156 387.785156 265.4375 384.4375 264.414063 382.445313 C 283.167969 370.835938 301.632813 358.835938 318.144531 345.851563 C 320.660156 343.875 322.171875 343.605469 322.425781 345.269531 C 323.035156 349.273438 325.597656 352.132813 331.578125 353.390625 C 327.527344 366.640625 326.613281 375.292969 340.257813 375.269531 C 340.257813 375.269531 337.421875 390.953125 347.628906 404.371094 C 347.628906 404.371094 363.878906 382.203125 370.855469 370.734375 C 371.390625 380.621094 382.714844 393.035156 390.011719 395.269531 C 390.011719 395.269531 400.539063 344.957031 403.996094 321.613281 C 404.933594 315.3125 406.734375 315.640625 406.097656 321.675781 C 405.152344 330.601563 403.308594 342.367188 404.625 352.359375 C 406.34375 365.402344 412.738281 366.699219 416.9375 350.738281 C 421.957031 331.671875 430.84375 306.355469 428.25 285.636719 C 419.585938 216.402344 361.800781 180.4375 323.648438 199.296875 C 291.527344 215.171875 280.90625 234.003906 273.5625 265.21875 L 248.914063 277.261719 C 248.914063 277.261719 222.558594 252.980469 218.582031 249.050781 C 217.304688 230.320313 217.9375 212.253906 214.839844 192.878906 C 213.074219 174.054688 198.082031 146.230469 181.183594 135.570313 C 176.949219 132.902344 177.195313 130.53125 180.347656 129.71875 C 191.851563 126.753906 203.582031 129.929688 214.800781 116.726563 C 223.953125 105.953125 220.125 106.773438 210.664063 106.714844 C 204.039063 106.671875 197.480469 106.070313 191.351563 103.953125 C 183.992188 101.410156 177.488281 90.164063 165.175781 98.1875 C 163.628906 92.453125 160.078125 86.71875 156.667969 81.757813 C 156.667969 81.757813 148.824219 87.128906 145.359375 89.664063 L 136.277344 81.6875 C 124.898438 83.898438 120.242188 106.597656 120.242188 106.597656 C 112.703125 102.128906 106.75 98.820313 98.28125 97.300781 C 84.96875 94.914063 83.632813 95.835938 90.4375 101.925781 C 91.539063 102.910156 101.414063 109.273438 103.554688 111.8125 C 111.441406 121.175781 107.398438 134.132813 98.308594 135.5 C 97.625 135.601563 90.976563 137.628906 85.488281 139.742188 C 77.515625 142.8125 77.582031 143.847656 86.589844 146.597656 C 93.871094 148.816406 110.476563 153.578125 110.476563 153.578125 C 110.953125 157.371094 108.96875 163.796875 107.066406 169.808594 C 103.390625 181.414063 103.824219 182.835938 108.925781 188.300781 C 110.917969 193.398438 115.539063 198.398438 120.964844 196.691406 C 125.28125 202.207031 130.839844 201.863281 133.757813 195.710938 C 134.773438 193.5625 135.664063 190.191406 136.636719 187.324219 C 139.914063 177.644531 145.144531 180.519531 145.433594 187.34375 C 145.574219 190.644531 140.851563 219.023438 137.132813 241.023438 C 130.898438 277.890625 129.65625 303.914063 142.234375 325.585938 C 162.003906 359.644531 185.265625 365.003906 219.550781 382.242188 C 224.769531 387.09375 231.90625 400.046875 233.628906 412.734375 C 235.394531 425.800781 234.910156 441.589844 222.726563 448.769531 C 216.414063 452.488281 204.390625 461.164063 199.554688 466.363281 C 200.175781 469.019531 201.640625 472.679688 203.011719 475.359375 C 175.789063 508.023438 171.398438 560.28125 230.851563 585.433594 C 230.890625 597.214844 230.757813 611.195313 230.890625 623.105469 C 230.890625 623.105469 229.148438 623.113281 228 623.113281 C 183.890625 623.113281 141.464844 603.996094 105.300781 567.835938 C 47.988281 510.523438 13.773438 417.128906 13.773438 318 C 13.773438 218.871094 47.988281 125.476563 105.300781 68.164063 C 141.464844 32.003906 183.890625 12.886719 228 12.886719 C 272.109375 12.886719 314.535156 32.003906 350.699219 68.164063 C 408.011719 125.476563 442.226563 218.871094 442.226563 318 C 442.226563 472.738281 360.925781 600.921875 255.96875 620.5 "/>
</g>
</svg>
