<?xml version="1.0" encoding="UTF-8"?>
<svg xmlns="http://www.w3.org/2000/svg" xmlns:xlink="http://www.w3.org/1999/xlink" width="512pt" height="673pt" viewBox="0 0 512 673" version="1.1">
<g id="surface1">
<path style=" stroke:none;fill-rule:nonzero;fill:rgb(0%,0%,0%);fill-opacity:1;" d="M 494.167969 168.789063 C 473.753906 126.761719 430.523438 104.347656 388.492188 96.742188 C 400.730469 71.472656 226.441406 -101.382813 114.707031 88.335938 C 92.691406 89.535156 74.679688 100.34375 57.867188 113.953125 C -6.175781 167.589844 0.730469 341.472656 0.730469 341.472656 L 109.902344 341.710938 L 109.441406 464.332031 L 234.789063 464.59375 L 234.941406 570.144531 L 350.867188 571.464844 L 350.867188 672.976563 L 509.398438 673.136719 L 510.578125 310.085938 C 503.773438 265.65625 522.585938 206.414063 494.167969 168.789063 Z M 350.070313 103.546875 C 308.839844 114.351563 272.816406 144.773438 252 184 C 233.585938 120.046875 155.136719 93.9375 155.136719 93.9375 C 230.730469 -21.382813 337.871094 50.046875 350.070313 103.546875 Z M 211.570313 194.394531 C 233.585938 198.800781 256.402344 194.878906 280.019531 196.480469 C 386.441406 44.949219 478.554688 211.21875 478.554688 211.21875 L 40.65625 210.167969 C 59.300781 118.308594 173.585938 75.757813 211.570313 194.394531 Z M 45.457031 314.421875 L 126.3125 233.234375 L 218.378906 234.230469 L 127.914063 315.691406 Z M 133.921875 433.710938 L 331.652344 240.039063 L 446.132813 239.828125 L 237.589844 434.972656 Z M 374.882813 649.917969 L 489.363281 549.050781 L 489.378906 649.96875 Z M 371.28125 545.445313 L 262.40625 544.558594 L 493.675781 308.085938 L 494.167969 427.363281 L 371.28125 545.445313 "/>
</g>
</svg>
