<?xml version="1.0" encoding="UTF-8"?>
<svg xmlns="http://www.w3.org/2000/svg" xmlns:xlink="http://www.w3.org/1999/xlink" width="530pt" height="295pt" viewBox="0 0 530 295" version="1.1">
<g id="surface1">
<path style=" stroke:none;fill-rule:nonzero;fill:rgb(0%,0%,0%);fill-opacity:1;" d="M 466.894531 28.269531 C 453.660156 21.195313 439.511719 16.175781 424.679688 12.980469 C 351.65625 -1.394531 262.992188 -10.027344 197.398438 23.933594 C 62.394531 93.824219 131.222656 177.734375 156.320313 188.234375 L 137.152344 197.589844 C 58.507813 164.765625 52.265625 235.238281 50.667969 237.980469 C 11.863281 238.621094 1.832031 275.632813 1.378906 295.484375 L 432.4375 275.40625 L 454.800781 260.570313 C 413.953125 262.625 371.28125 265.363281 329.976563 266.503906 C 334.539063 260.796875 340.703125 255.777344 345.265625 250.074219 C 369.910156 247.105469 395.011719 244.824219 420.34375 243.457031 L 436.773438 229.308594 C 411.214844 231.589844 384.289063 233.871094 358.960938 233.644531 C 366.035156 226.796875 365.804688 215.386719 363.980469 206.261719 C 365.804688 203.75 368.316406 201.695313 367.175781 198.046875 C 363.523438 191.65625 368.769531 188.234375 371.050781 182.757813 C 364.894531 172.71875 376.757813 167.238281 381.550781 160.394531 C 390.449219 152.632813 374.933594 146.703125 372.648438 139.398438 L 376.988281 137.347656 C 387.484375 146.929688 400.71875 151.039063 412.585938 155.828125 L 410.53125 160.394531 C 407.5625 171.347656 408.019531 182.984375 416.007813 191.425781 C 428.785156 206.03125 448.867188 211.511719 466.894531 207.855469 C 499.296875 202.382813 522.117188 168.835938 528.277344 138.941406 C 534.898438 92.164063 505.6875 51.316406 466.894531 28.269531 Z M 241.894531 26.671875 C 270.191406 17.089844 298.257813 31.691406 319.480469 51.316406 C 327.695313 60.898438 335.226563 70.484375 337.050781 82.578125 C 339.335938 94.21875 338.191406 107.226563 333.855469 117.492188 C 337.507813 123.652344 341.617188 129.585938 346.40625 135.0625 C 329.292969 140.769531 308.527344 140.769531 291.183594 137.347656 C 289.359375 136.660156 287.535156 136.203125 285.710938 135.75 C 294.835938 130.269531 308.070313 121.371094 308.070313 108.820313 C 309.894531 98.097656 307.386719 87.601563 300.3125 79.839844 C 294.835938 73.449219 287.535156 71.625 279.546875 70.941406 C 271.558594 72.996094 262.433594 74.820313 258.324219 83.71875 C 249.882813 96.269531 251.707031 114.070313 258.324219 126.847656 C 237.101563 122.058594 219.074219 100.148438 215.425781 79.15625 C 216.109375 59.074219 222.496094 36.941406 241.894531 26.671875 Z M 275.667969 124.796875 C 269.507813 117.492188 266.996094 104.714844 271.332031 95.128906 C 274.527344 91.023438 279.320313 88.285156 283.882813 86.460938 C 289.816406 86.230469 291.640625 92.390625 294.378906 96.269531 C 297.574219 109.960938 283.425781 117.265625 275.667969 124.796875 Z M 217.707031 30.550781 C 201.359375 48.152344 193.585938 92.367188 229.800781 128.445313 C 132.363281 73.90625 217.707031 30.550781 217.707031 30.550781 Z M 150.847656 170.203125 C 134.644531 157.652344 130.078125 139.398438 129.621094 119.773438 C 132.816406 91.25 151.53125 61.355469 179.824219 50.859375 C 154.714844 89.9375 189.410156 119.773438 189.867188 120.914063 C 176.09375 131.238281 185.304688 149.441406 185.304688 149.441406 C 190.78125 143.050781 197.625 132.554688 207.894531 136.203125 C 214.28125 140.539063 219.988281 147.386719 219.988281 155.371094 C 219.304688 167.011719 210.175781 174.542969 200.820313 180.019531 C 183.476563 184.582031 164.078125 184.8125 150.847656 170.203125 Z M 14.613281 284.074219 C 14.84375 273.804688 31.785156 242.507813 60.480469 248.019531 C 65.726563 235.015625 75.03125 179.828125 125.742188 204.664063 C 117.070313 230.675781 124.832031 258.515625 144.914063 276.316406 C 102.011719 275.859375 57.96875 281.335938 14.613281 284.074219 Z M 175.488281 279.738281 C 162.484375 273.578125 144.683594 267.417969 140.578125 251.214844 C 135.328125 237.066406 133.273438 218.808594 144.230469 206.945313 C 147.421875 203.976563 151.757813 201.46875 156.320313 200.785156 C 165.449219 200.328125 173.664063 204.664063 178.914063 211.738281 C 179.597656 219.496094 177.773438 226.34375 176.175781 233.1875 C 178.230469 235.699219 180.96875 232.503906 183.246094 232.046875 C 193.972656 223.601563 193.0625 207.628906 189.867188 195.992188 C 198.765625 194.394531 206.980469 190.972656 214.511719 185.949219 C 194.558594 225.015625 228.886719 267.644531 242.808594 275.40625 C 220.671875 278.828125 198.308594 277.230469 175.488281 279.738281 Z M 321.304688 250.074219 C 308.527344 268.101563 286.164063 273.578125 264.257813 269.925781 C 251.480469 267.1875 238.929688 259.429688 232.539063 247.335938 C 225.464844 233.414063 224.78125 214.019531 230.941406 199.1875 C 253.835938 170.597656 284.445313 197.804688 282.285156 226.113281 C 290.730469 221.09375 297.078125 163.792969 229.800781 173.402344 C 235.960938 165.183594 236.417969 152.632813 233.679688 142.820313 C 269.507813 146.472656 310.355469 161.078125 322.21875 199.1875 C 325.414063 210.59375 324.273438 224.289063 319.023438 234.328125 C 313.777344 240.945313 303.734375 241.402344 296.660156 245.738281 C 296.660156 245.738281 313.320313 248.476563 321.304688 250.074219 Z M 354.167969 171.804688 C 355.078125 176.367188 361.238281 178.648438 360.554688 183.894531 C 357.589844 186.179688 354.625 187.777344 353.027344 190.972656 L 358.503906 198.730469 C 345.039063 205.117188 359.640625 220.40625 350.285156 230.449219 C 346.179688 235.46875 340.703125 238.894531 335.453125 239.804688 C 334.539063 240.035156 345.667969 189.546875 314.003906 160.851563 L 302.59375 151.039063 C 323.359375 153.546875 340.703125 149.441406 359.640625 146.019531 C 364.4375 148.757813 368.316406 154.460938 372.191406 158.109375 C 366.71875 163.132813 360.554688 168.152344 354.167969 171.804688 Z M 400.035156 139.398438 C 395.699219 137.347656 391.363281 135.0625 387.484375 131.183594 C 400.945313 117.035156 415.324219 102.433594 418.746094 84.632813 C 407.335938 93.988281 396.152344 105.398438 383.601563 113.15625 C 367.046875 92.855469 406.652344 73.222656 406.652344 73.222656 C 363.160156 74.878906 366.488281 114.070313 367.175781 126.847656 L 357.816406 130.269531 L 347.546875 116.578125 C 357.132813 86.6875 341.296875 34.550781 290.5 18 C 333.855469 15.03125 379.496094 16.859375 419.203125 27.8125 C 439.511719 34.65625 459.363281 54.511719 463.015625 75.960938 C 464.839844 95.585938 460.046875 115.210938 444.988281 129.128906 C 431.753906 136.890625 417.148438 144.191406 400.035156 139.398438 Z M 514.589844 141.226563 C 510.9375 165.640625 489.941406 189.601563 465.753906 195.992188 C 452.746094 196.21875 437.226563 199.1875 428.558594 187.09375 C 424.449219 182.527344 423.308594 176.824219 423.082031 170.660156 C 427.644531 165.640625 432.4375 160.621094 439.96875 163.589844 C 445.445313 164.042969 449.09375 169.0625 454.34375 170.203125 C 456.171875 166.097656 453.660156 160.851563 451.605469 156.972656 L 444.988281 147.613281 C 469.175781 132.324219 479.675781 106.539063 478.304688 79.15625 C 476.476563 65.464844 469.863281 53.824219 463.015625 41.960938 C 498.613281 62.039063 518.238281 100.148438 514.589844 141.226563 "/>
</g>
</svg>
