<?xml version="1.0" encoding="UTF-8"?>
<svg xmlns="http://www.w3.org/2000/svg" xmlns:xlink="http://www.w3.org/1999/xlink" width="429pt" height="557pt" viewBox="0 0 429 557" version="1.1">
<g id="surface1">
<path style=" stroke:none;fill-rule:nonzero;fill:rgb(0%,0%,0%);fill-opacity:1;" d="M 425.523438 2.539063 C 424.371094 4.164063 421.351563 5.152344 417.851563 5.277344 C 414.351563 5.402344 410.132813 5.738281 404.507813 9.238281 C 398.882813 12.738281 396.019531 12.570313 393.402344 11.132813 C 390.785156 9.699219 393.601563 4.0625 396.351563 2.5625 C 399.101563 1.0625 397.601563 -1.0625 395.226563 0.0625 C 392.851563 1.1875 389.765625 3.710938 387.390625 8.085938 C 385.015625 12.460938 382.230469 21.738281 380.988281 24.53125 C 379.746094 27.324219 375.734375 33.1875 373.734375 33.9375 C 371.734375 34.6875 370.261719 31.5625 370.636719 29.0625 C 371.011719 26.5625 370.082031 26.300781 368.382813 27.773438 C 363.636719 31.890625 363.371094 40.046875 364.453125 48.6875 C 365.078125 53.6875 363.847656 61.476563 363.316406 62.699219 C 360.1875 69.941406 357.761719 76.699219 357.410156 85.441406 C 356.601563 105.5625 361.476563 123.0625 372.1875 132.597656 C 380.578125 140.074219 385.5 153.0625 386.363281 167.8125 C 387.617188 189.3125 388.710938 200.308594 380.851563 227.3125 C 379.335938 232.511719 378.128906 239.195313 375.726563 242.1875 C 373.324219 245.179688 372.703125 248.328125 372.078125 250.953125 C 371.453125 253.578125 370.242188 257.589844 367.601563 262.4375 C 364.957031 267.285156 363.972656 274.574219 364.097656 278.824219 C 364.222656 283.074219 362.101563 285.8125 359.601563 290.0625 C 357.101563 294.3125 356.851563 287.3125 358.976563 282.6875 C 361.101563 278.0625 358.851563 278.6875 356.601563 282.0625 C 354.351563 285.4375 353.992188 288.007813 351.992188 292.382813 C 349.992188 296.757813 352.117188 300.933594 351.601563 304.9375 C 351.082031 308.9375 349.105469 312.453125 345.476563 314.5625 C 341.84375 316.671875 340.601563 317.8125 342.101563 321.9375 C 343.601563 326.0625 341.226563 328.8125 338.351563 332.1875 C 335.476563 335.5625 335.75 331.449219 335.351563 327.4375 C 334.949219 323.425781 332.476563 325.3125 332.851563 327.8125 C 333.226563 330.3125 332.726563 331.0625 331.601563 333.0625 C 330.476563 335.0625 329.375 336.710938 330.125 338.710938 C 330.875 340.710938 329.351563 342.9375 325.851563 344.6875 C 322.351563 346.4375 321.851563 351.9375 322.976563 353.9375 C 324.101563 355.9375 320.046875 360.4375 318.707031 362.800781 C 317.367188 365.160156 316.101563 362.3125 317.726563 360.0625 C 319.351563 357.8125 315.601563 359.5625 311.851563 361.9375 C 308.101563 364.3125 307.601563 367.8125 309.476563 370.3125 C 311.351563 372.8125 309.351563 375.6875 306.226563 377.4375 C 303.101563 379.1875 302.269531 380.5625 302.519531 382.5625 C 302.769531 384.5625 303.058594 385.839844 301.058594 386.714844 C 299.058594 387.589844 297.722656 386.941406 299.097656 383.941406 C 300.472656 380.941406 297.101563 381.8125 295.851563 383.6875 C 294.601563 385.5625 294.101563 386.75 295.726563 389 C 297.351563 391.25 294.851563 393.9375 293.476563 394.6875 C 292.101563 395.4375 289.101563 396.1875 287.851563 399.9375 C 286.601563 403.6875 284.542969 409.222656 281.949219 412.097656 C 279.355469 414.976563 278.53125 414.003906 278.976563 410.0625 C 279.417969 406.121094 277.585938 407.320313 276.585938 410.570313 C 275.585938 413.820313 274.585938 417.796875 273.335938 418.796875 C 272.085938 419.796875 269.140625 422.554688 269.015625 425.179688 C 268.890625 427.804688 265.535156 433.550781 263.226563 435.0625 C 260.914063 436.574219 261.019531 432.386719 262.644531 428.886719 C 264.269531 425.386719 263.226563 425.1875 260.476563 426.4375 C 257.726563 427.6875 255.167969 432.433594 256.042969 434.058594 C 256.917969 435.683594 257.960938 438.195313 257.472656 442.574219 C 256.988281 446.949219 252.429688 449.644531 252.429688 449.644531 C 252.429688 449.644531 250.226563 446.3125 246.726563 444.3125 C 243.226563 442.3125 241.300781 444.710938 243.925781 446.710938 C 246.550781 448.710938 245.089844 453.621094 243.464844 455.605469 C 241.835938 457.585938 240.351563 456.5625 238.726563 452.6875 C 237.101563 448.8125 234.601563 450.4375 235.351563 452.8125 C 236.101563 455.1875 233.238281 457.496094 229.238281 458.996094 C 225.238281 460.496094 225.515625 457.054688 225.519531 453.308594 C 225.519531 449.5625 223.335938 451.933594 221.351563 453.0625 C 219.363281 454.1875 218.242188 454.195313 217.992188 455.695313 C 217.742188 457.195313 215.976563 458.8125 214.976563 458.4375 C 213.976563 458.0625 213.976563 452.3125 211.601563 447.3125 C 209.226563 442.3125 207.199219 445.308594 207.949219 447.308594 C 208.699219 449.308594 207.25 451.160156 204.125 452.410156 C 201 453.660156 200.503906 449.4375 200.851563 447.0625 C 201.195313 444.6875 198.589844 443.09375 197.589844 445.71875 C 196.589844 448.34375 194.519531 448.457031 191.894531 447.082031 C 189.269531 445.707031 191.203125 441.03125 193.464844 437.535156 C 195.722656 434.039063 195.101563 432.1875 192.851563 427.9375 C 190.601563 423.6875 189.351563 425.4375 189.726563 428.8125 C 190.101563 432.1875 187.085938 433.933594 185.449219 433.667969 C 183.8125 433.402344 183.726563 428.9375 185.226563 426.3125 C 186.726563 423.6875 186.226563 421.4375 184.851563 419.8125 C 183.476563 418.1875 183.429688 416.066406 183.804688 412.941406 C 184.179688 409.816406 187.078125 410.828125 187.328125 412.703125 C 187.578125 414.578125 188.851563 414.6875 189.351563 412.1875 C 189.851563 409.6875 188.324219 408.234375 186.824219 405.609375 C 185.324219 402.984375 187.898438 399.570313 189.859375 398.46875 C 191.820313 397.367188 193.710938 399.886719 192.335938 402.261719 C 190.960938 404.636719 192.476563 405.6875 194.851563 401.9375 C 197.226563 398.1875 195.804688 391.808594 194.554688 388.808594 C 193.304688 385.808594 197.738281 382.460938 200.351563 382.0625 C 202.960938 381.660156 206.476563 380.0625 207.851563 377.1875 C 209.226563 374.3125 207.140625 374.101563 204.464844 375.25 C 201.789063 376.398438 200.722656 373.34375 201.972656 370.09375 C 203.222656 366.84375 206.226563 365.742188 211.101563 365.492188 C 215.976563 365.242188 217.054688 363.5625 218.054688 359.4375 C 219.054688 355.3125 217.226563 355.625 215.976563 356.875 C 214.726563 358.125 213.320313 358.152344 211.824219 357.109375 C 210.332031 356.070313 213.066406 353.164063 215.441406 349.289063 C 217.816406 345.414063 221.976563 344.601563 224.726563 344.226563 C 227.476563 343.851563 229.621094 346.617188 229.269531 348.066406 C 228.921875 349.515625 230.351563 349.9375 231.226563 348.3125 C 232.101563 346.6875 232.804688 345.433594 232.179688 343.058594 C 231.554688 340.683594 231.113281 338.035156 232.324219 335.660156 C 233.535156 333.285156 236.726563 336.3125 236.601563 338.6875 C 236.476563 341.0625 237.875 341.660156 239.125 339.910156 C 240.375 338.160156 239.671875 335.195313 239.195313 332.683594 C 238.722656 330.171875 240.277344 322.269531 242.050781 320.269531 C 243.828125 318.269531 246.601563 320.3125 246.226563 322.5625 C 245.851563 324.8125 247.523438 325.011719 249.226563 323.0625 C 250.925781 321.109375 252.582031 318.078125 252.457031 316.953125 C 252.332031 315.828125 252.476563 313.8125 258.101563 312.4375 C 263.726563 311.0625 264.9375 306.128906 265.285156 302.75 C 265.632813 299.367188 264.101563 298.5625 262.726563 302.1875 C 261.351563 305.8125 257.738281 302.164063 259.289063 299.167969 C 260.839844 296.171875 269.324219 288.035156 271.824219 286.410156 C 274.324219 284.785156 276.242188 287.09375 279.121094 287.140625 C 282.003906 287.183594 285.101563 284.4375 285.851563 280.8125 C 286.601563 277.1875 285.476563 276.1875 283.976563 277.6875 C 282.476563 279.1875 280.601563 278.5625 279.976563 277.3125 C 279.351563 276.0625 279.925781 273.214844 281.550781 272.589844 C 283.175781 271.964844 285.613281 270.515625 285.863281 269.3125 C 286.113281 268.113281 286.226563 266.210938 287.851563 264.9375 C 289.476563 263.660156 291.089844 267.1875 290.964844 270.4375 C 290.839844 273.6875 293.1875 272.179688 293.0625 269.179688 C 292.9375 266.179688 291.328125 258.8125 291.726563 256.3125 C 292.128906 253.8125 299.121094 245.542969 300.589844 243.472656 C 302.050781 241.398438 303.386719 239.566406 304.433594 241.140625 C 305.484375 242.71875 307.449219 241.386719 306.324219 240.011719 C 305.199219 238.636719 303.871094 232.6875 303.746094 228.1875 C 303.621094 223.6875 309.230469 210.550781 309.707031 208.699219 C 316.351563 182.8125 305.792969 148.996094 291.734375 124.367188 C 285.816406 114.003906 276.390625 106.664063 267.050781 99.605469 C 237.726563 77.4375 208.703125 66.3125 168.847656 63.765625 C 164.222656 63.472656 153.238281 63.726563 148.988281 65.101563 C 144.738281 66.476563 138.816406 68.253906 135.730469 68.808594 C 132.640625 69.363281 133.066406 66.339844 135.226563 65.1875 C 137.382813 64.03125 136.976563 62.1875 134.351563 63.3125 C 131.726563 64.4375 125.726563 68.9375 124.601563 71.9375 C 123.476563 74.9375 120.996094 76.339844 119.476563 76.1875 C 117.949219 76.035156 118.429688 77.730469 119.730469 77.679688 C 121.03125 77.628906 122.023438 76.804688 123.273438 76.054688 C 124.523438 75.304688 124.351563 76.085938 123.523438 76.609375 C 122.699219 77.136719 122.476563 79.4375 122.476563 79.4375 C 122.476563 79.4375 121.476563 80.113281 120.625 80.410156 C 119.773438 80.710938 117.476563 81.546875 114.601563 81.046875 C 111.726563 80.546875 110.035156 81.746094 108.410156 83.996094 C 106.785156 86.246094 108.851563 86.0625 109.851563 84.5625 C 110.851563 83.0625 112.480469 82.171875 114.101563 82.6875 C 115.71875 83.203125 118.226563 82.75 118.976563 82.375 C 119.726563 82 122.492188 80.976563 125.101563 80.3125 C 127.710938 79.648438 127.625 78.386719 125.625 78.511719 C 123.625 78.636719 123.523438 78.3125 123.523438 78.3125 C 123.523438 78.3125 125.628906 76.367188 127.726563 75.445313 C 129.828125 74.519531 141.476563 72.761719 145.101563 72.3125 C 148.722656 71.859375 148.859375 70.191406 148.609375 69.066406 C 148.359375 67.941406 151.125 65.8125 151.125 65.8125 C 151.125 65.8125 152.601563 65.816406 156.101563 65.8125 C 171.085938 65.800781 181.3125 65.808594 195.472656 68.578125 C 246.769531 78.601563 283.039063 112.144531 290.445313 124.980469 C 300.320313 142.101563 315.46875 180.761719 308.257813 208.648438 C 307.046875 213.332031 304.101563 218.6875 302.757813 224.3125 C 301.808594 228.289063 300.527344 229.3125 299.054688 232.035156 C 297.578125 234.761719 281.363281 262.914063 278.804688 267.632813 C 276.246094 272.351563 271.515625 275.886719 267.996094 277.039063 C 264.480469 278.191406 263.851563 279.4375 266.851563 279.4375 C 269.851563 279.4375 268.484375 281.566406 266.449219 283.417969 C 264.414063 285.265625 255.007813 295.207031 252.507813 299.582031 C 250.007813 303.957031 244.601563 309.0625 240.726563 310.1875 C 236.851563 311.3125 237.085938 312.007813 238.960938 312.882813 C 240.835938 313.757813 240.710938 314.730469 237.9375 317.078125 C 235.160156 319.429688 229.476563 324.3125 227.101563 326.9375 C 224.726563 329.5625 219.476563 331.8125 215.601563 333.3125 C 211.726563 334.8125 211.976563 336.1875 215.351563 335.4375 C 218.726563 334.6875 219.828125 335.601563 218.453125 337.773438 C 217.078125 339.949219 214.851563 343.5625 211.851563 345.6875 C 208.851563 347.8125 203.507813 354.148438 201.257813 358.773438 C 199.007813 363.398438 191.976563 368.4375 189.226563 369.6875 C 186.476563 370.9375 187.597656 372.441406 189.222656 372.441406 C 190.847656 372.441406 191.226563 373.3125 190.226563 376.3125 C 189.226563 379.3125 183.183594 388.703125 180.058594 390.828125 C 176.933594 392.953125 179.230469 393.28125 182.855469 392.78125 C 186.480469 392.28125 185.71875 396.09375 184.226563 398.1875 C 176.140625 409.511719 173.851563 427.6875 182.242188 444.925781 C 185.425781 451.457031 192.597656 457.191406 197.847656 458.191406 C 203.097656 459.191406 210.757813 464.585938 213.355469 467.433594 C 215.949219 470.277344 217.050781 469.484375 215.925781 467.109375 C 214.800781 464.734375 214.726563 463.96875 216.351563 463.71875 C 217.976563 463.46875 218.855469 464.738281 223.730469 466.488281 C 228.605469 468.238281 229.851563 468.1875 234.351563 465.0625 C 238.851563 461.9375 246.226563 462.460938 249.726563 462.472656 C 253.226563 462.484375 256.226563 460.3125 258.351563 457.5625 C 260.476563 454.8125 259.003906 454.597656 256.878906 455.847656 C 254.753906 457.097656 253.988281 454.695313 254.363281 452.945313 C 254.738281 451.195313 259.375 449.265625 263.605469 448.273438 C 267.839844 447.28125 270.246094 443.722656 271.441406 441.132813 C 272.640625 438.539063 271.476563 438.1875 269.601563 439.9375 C 267.726563 441.6875 268.046875 439.539063 269.601563 437.9375 C 271.152344 436.335938 273.375 434.4375 273.25 431.6875 C 273.125 428.9375 276.601563 426.457031 280.101563 426.082031 C 283.601563 425.707031 289.699219 423.085938 292.074219 419.585938 C 294.449219 416.085938 293.214844 415.601563 290.839844 417.226563 C 288.464844 418.851563 286.925781 418.609375 287.226563 415.6875 C 287.523438 412.761719 291.242188 411.855469 294.726563 410.3125 C 298.210938 408.765625 299.726563 406.8125 299.476563 404.6875 C 299.226563 402.5625 301.117188 400.480469 306.421875 398.589844 C 311.726563 396.703125 310.5625 393.4375 310.988281 390.5625 C 311.417969 387.6875 310.601563 387.3125 308.351563 389.8125 C 306.101563 392.3125 303.851563 388.9375 307.246094 385.09375 C 308.46875 383.710938 312.238281 382.4375 314.226563 381.609375 C 316.214844 380.785156 317.417969 380.703125 317.667969 377.203125 C 317.917969 373.703125 319.882813 371.726563 321.738281 370.332031 C 323.59375 368.9375 325.601563 365.9375 325.101563 363.4375 C 324.601563 360.9375 326.679688 359.335938 328.785156 358.429688 C 333.074219 356.582031 335.660156 356.773438 336.980469 350.820313 C 337.523438 348.371094 336.660156 347.476563 335.660156 349.101563 C 334.660156 350.726563 333.359375 349.753906 334.609375 345.628906 C 335.859375 341.503906 339.519531 340.074219 341.816406 338.726563 C 344.117188 337.375 346.121094 334.4375 345.996094 331.3125 C 345.871094 328.1875 347.738281 325.578125 349.984375 323.449219 C 352.234375 321.324219 352.8125 320.191406 352.511719 316.8125 C 352.214844 313.433594 353.710938 311.410156 355.1875 310.535156 C 356.660156 309.660156 358.804688 305.945313 359.179688 302.945313 C 359.554688 299.945313 362.015625 296.078125 364.042969 293.738281 C 366.070313 291.398438 365.761719 289.777344 364.910156 288.878906 C 364.0625 287.976563 364.699219 285.785156 366.199219 284.410156 C 367.699219 283.035156 367.902344 280.8125 367.925781 279.3125 C 368.015625 273.953125 368.882813 265.996094 374.070313 261.722656 C 376.195313 259.972656 377.617188 255.695313 377.742188 252.945313 C 377.867188 250.195313 380.667969 234.25 381.917969 230 C 388.976563 206.007813 390.28125 187.925781 388.046875 167.808594 C 386.003906 149.40625 382.382813 138.640625 373.046875 130.867188 C 361.726563 121.4375 358.578125 98.824219 359.171875 85.875 C 359.574219 76.980469 361.753906 70.15625 364 65.511719 C 364.851563 63.75 365.214844 63.015625 366.941406 62.613281 C 368.664063 62.214844 369.605469 61.90625 371.230469 57.90625 C 375.808594 46.632813 384.980469 30.042969 391.101563 24.6875 C 393.101563 22.9375 393.453125 23.839844 392.128906 25.339844 C 385.949219 32.332031 376.6875 46.179688 371.878906 59.378906 C 370.066406 64.347656 374.226563 66.8125 374.226563 66.8125 C 374.226563 66.8125 366.988281 74.535156 365.101563 86.8125 C 361.730469 108.71875 374.777344 121.410156 383.925781 133.550781 C 400.925781 156.117188 407.480469 170.652344 407.609375 207.1875 C 407.699219 232.871094 405.394531 271.140625 398.484375 288.207031 C 397.503906 290.632813 390.976563 319.5625 390.101563 321.9375 C 389.226563 324.3125 379.738281 344.847656 378.628906 347.546875 C 375.417969 355.339844 349.246094 411.882813 344.726563 420.4375 C 334.351563 440.0625 325.632813 454.527344 313.902344 469.476563 C 290.503906 499.289063 269.234375 506.164063 243.101563 513.8125 C 194.386719 528.0625 167.910156 494.289063 163.808594 488.984375 C 144.351563 463.8125 144.597656 419.636719 153.273438 394.183594 C 161.007813 371.496094 178.089844 352.222656 190.527344 339.050781 C 194.777344 334.550781 201.726563 326.210938 201.726563 326.210938 C 201.726563 326.210938 204.628906 325.394531 208.296875 324.082031 C 211.964844 322.769531 210.460938 321.789063 208.835938 320.914063 C 207.210938 320.039063 205.578125 319.019531 203.140625 316.957031 C 200.703125 314.894531 198.824219 311.3125 198.824219 311.3125 C 198.824219 311.3125 200.117188 310.898438 202.867188 312.398438 C 205.617188 313.898438 205.261719 311.875 203.535156 309.75 C 201.8125 307.625 193.203125 300.953125 190.726563 298.609375 C 188.246094 296.269531 189.925781 293.8125 189.925781 293.8125 C 189.925781 293.8125 192.226563 295.4375 193.851563 293.0625 C 195.476563 290.6875 196.726563 289.0625 196.601563 288.0625 C 196.476563 287.0625 195.925781 285.609375 195.925781 285.609375 C 195.925781 285.609375 199.8125 284.574219 202.246094 284.058594 C 204.679688 283.535156 205.351563 281.8125 205.476563 279.6875 C 205.601563 277.5625 205.777344 270.570313 206.300781 269.066406 C 206.824219 267.558594 206.976563 265.8125 204.351563 261.9375 C 201.726563 258.0625 197.125 255.210938 197.125 255.210938 C 197.125 255.210938 195.082031 255.496094 188.082031 253.246094 C 181.082031 250.996094 176.503906 251.699219 174.867188 252.351563 C 173.230469 253 170.738281 254.472656 170.738281 254.472656 C 170.738281 254.472656 167.832031 253.375 164.332031 252 C 160.832031 250.625 159.589844 249.4375 160.226563 246.9375 C 160.859375 244.433594 159.394531 242.898438 156.609375 241.050781 C 153.824219 239.203125 150.742188 236.554688 148.617188 232.054688 C 146.492188 227.554688 143.351563 228.1875 143.351563 228.1875 L 141.023438 222.8125 C 141.023438 222.8125 144.140625 222.304688 145.238281 221.914063 C 148.117188 220.886719 150.027344 217.921875 149.625 213.910156 C 148.90625 206.726563 140.660156 205.980469 137.976563 207.9375 C 133.851563 210.9375 134.523438 217.210938 134.523438 217.210938 C 134.523438 217.210938 125.589844 207.320313 122.21875 202.441406 C 118.847656 197.5625 114.042969 188.683594 114.042969 188.683594 C 114.042969 188.683594 116.003906 185.832031 117.363281 183.695313 C 122.335938 175.898438 135.65625 172.636719 144.226563 172.636719 C 155.492188 172.636719 166.363281 167.761719 173.601563 161.5 C 189.855469 147.433594 196.089844 119.355469 169.800781 94.355469 C 167.046875 91.738281 162.125 88.410156 162.125 88.410156 C 162.125 88.410156 164.585938 88.929688 166.714844 89.40625 C 186.222656 93.78125 199.625 106.296875 210.476563 120.0625 C 222.101563 134.8125 236.675781 171.785156 221.097656 194.285156 C 214.605469 203.664063 198.9375 224.347656 193.464844 229.984375 C 190.78125 232.746094 172.726563 249.378906 171.476563 250.5625 C 170.222656 251.746094 171.835938 251.996094 172.886719 251.296875 C 173.9375 250.597656 189.335938 236.546875 193.210938 232.921875 C 199.390625 227.136719 217.652344 202.039063 222.441406 195.207031 C 237.859375 173.210938 225.398438 138.152344 211.847656 119.0625 C 194.0625 94.011719 163.964844 82.28125 136.105469 85.660156 C 90.199219 91.226563 65.804688 128.335938 62.359375 153.3125 C 60.371094 167.71875 59.21875 176.9375 63.148438 190.296875 C 64.398438 194.546875 65.546875 193.308594 64.546875 190.558594 C 63.546875 187.808594 64.40625 187.910156 65.53125 189.335938 C 66.65625 190.757813 68.101563 194.117188 68.101563 194.117188 C 68.101563 194.117188 69.792969 193.132813 71.542969 193.355469 C 73.292969 193.582031 73.820313 195.449219 76.320313 200.199219 C 78.820313 204.949219 83.101563 206.8125 85.226563 208.3125 C 87.351563 209.8125 94.285156 214.941406 95.410156 216.191406 C 96.535156 217.441406 97.101563 218.3125 94.976563 217.6875 C 92.851563 217.0625 85.667969 210.992188 83.917969 208.992188 C 78.71875 203.050781 73.21875 202.683594 65.351563 202.15625 C 61.601563 201.90625 62.332031 203.847656 65.605469 204.722656 C 68.882813 205.597656 84.550781 218.492188 86.761719 221.09375 C 88.96875 223.695313 92.71875 228.5 92.71875 228.5 C 92.71875 228.5 96.398438 228.421875 98.023438 229.210938 C 99.652344 230 100.597656 229.191406 98.46875 227.566406 C 96.34375 225.941406 93.226563 226.609375 93.226563 226.609375 C 93.226563 226.609375 92.257813 225.160156 90.996094 223.605469 C 84.292969 215.339844 79.875 211.023438 70.226563 205.4375 C 67.851563 204.0625 68.851563 203.730469 71.726563 203.796875 C 74.601563 203.863281 78.988281 206.234375 81.613281 208.984375 C 84.238281 211.734375 90.824219 217.613281 93.449219 218.488281 C 96.074219 219.363281 98.597656 219.769531 99.554688 220.613281 C 100.511719 221.460938 100.550781 223.613281 99.226563 224.410156 C 97.898438 225.210938 100.351563 227.0625 101.226563 226.9375 C 102.101563 226.8125 103.273438 225.933594 101.398438 221.058594 C 99.527344 216.183594 93.328125 211.59375 88.703125 209.21875 C 84.078125 206.84375 78.625 201.410156 78.625 201.410156 C 78.625 201.410156 77.847656 197.1875 74.347656 193.0625 C 70.847656 188.9375 68.523438 191.3125 68.523438 191.3125 C 68.523438 191.3125 66.554688 188.738281 64.554688 185.488281 C 62.554688 182.238281 62.9375 181.433594 65.0625 180.433594 C 67.1875 179.433594 68.734375 180.234375 70.351563 182.5625 C 71.964844 184.890625 74.59375 186.320313 76.605469 186.277344 C 78.617188 186.238281 79.328125 187.59375 81.128906 190.480469 C 87.101563 200.0625 103.105469 220.734375 111.941406 223.679688 C 113.816406 224.304688 114.109375 224.960938 112.710938 225.234375 C 111.3125 225.511719 112.226563 227.3125 112.226563 227.3125 C 112.226563 227.3125 115.621094 226.796875 117.980469 226.34375 C 120.339844 225.890625 121.800781 226.675781 123.300781 228.800781 C 124.800781 230.925781 124.492188 231.769531 122.867188 232.019531 C 121.242188 232.269531 123.035156 233.96875 125.734375 233.84375 C 128.433594 233.71875 129 234.011719 131.625 237.210938 C 134.25 240.410156 139.210938 244.730469 141.238281 245.125 C 143.261719 245.519531 143.457031 243.378906 141.082031 243.253906 C 138.707031 243.128906 133.5 236.914063 131.058594 233.546875 C 128.617188 230.171875 126.824219 231.410156 126.824219 231.410156 C 126.824219 231.410156 125.628906 229.535156 124.132813 227.160156 C 122.636719 224.78125 120.105469 224.039063 118.980469 224.164063 C 117.855469 224.289063 115.519531 223.910156 113.519531 223.035156 C 108.046875 220.640625 101.335938 213.242188 96.96875 208.316406 C 95.414063 206.5625 96.125 205.710938 98.359375 207.109375 C 102.1875 209.507813 108.183594 213.882813 108.824219 216.8125 C 109.035156 217.773438 109.476563 218.738281 112.101563 219.046875 C 117.988281 219.734375 129.445313 224.53125 136.207031 230.953125 C 138.707031 233.328125 139.03125 231.304688 137.378906 229.527344 C 131.089844 222.761719 122.988281 220.179688 113.847656 217.894531 C 111.347656 217.269531 109.339844 214.53125 107.039063 211.683594 C 104.742188 208.832031 96.625 204.460938 95.472656 204.335938 C 94.324219 204.210938 91.527344 202.632813 89.199219 199.582031 C 86.871094 196.527344 87.976563 195.4375 91.101563 195.9375 C 94.226563 196.4375 102.292969 201.304688 105.792969 205.054688 C 109.292969 208.804688 111.351563 210.296875 114.105469 210.972656 C 116.863281 211.648438 115.824219 213.410156 114.476563 213.0625 C 113.125 212.710938 113.449219 214.234375 115.324219 215.109375 C 117.199219 215.984375 117.757813 215.945313 118.132813 214.195313 C 118.507813 212.445313 116.726563 209.0625 113.851563 205.8125 C 110.976563 202.5625 105.523438 196.109375 105.523438 196.109375 C 105.523438 196.109375 105.140625 192.289063 104.429688 189.304688 C 103.71875 186.320313 101.425781 182.910156 101.425781 182.910156 C 101.425781 182.910156 95.917969 181.078125 94.4375 179.171875 C 92.960938 177.261719 92.265625 175.09375 93.640625 173.09375 C 95.015625 171.09375 97.40625 171.066406 100.15625 173.816406 C 102.90625 176.566406 106.035156 177.3125 106.035156 177.3125 C 106.035156 177.3125 117.25 197.171875 121.875 204.296875 C 126.5 211.421875 133.324219 218.210938 133.324219 218.210938 C 133.324219 218.210938 131.675781 218.738281 130.425781 218.710938 C 129.175781 218.6875 129.226563 220.9375 133.324219 219.910156 C 136.035156 219.234375 137.875 220.296875 138.625 221.921875 C 139.375 223.546875 139.269531 224.695313 140.519531 226.320313 C 141.769531 227.945313 140.898438 228.3125 140.023438 228.8125 C 139.148438 229.3125 141.238281 231.128906 142.238281 230.628906 C 143.238281 230.128906 146.023438 230.710938 146.023438 230.710938 C 146.023438 230.710938 149.996094 238.042969 152.621094 240.417969 C 155.246094 242.792969 157.636719 243.847656 158.367188 245.117188 C 159.097656 246.386719 158.964844 249.488281 157.476563 248.0625 C 155.984375 246.632813 155.234375 248.109375 157.460938 250.210938 C 159.683594 252.308594 165.738281 254.269531 167.488281 254.519531 C 169.238281 254.769531 168.976563 255.710938 167.625 256.109375 C 166.273438 256.511719 166.160156 257.304688 166.160156 259.929688 C 166.160156 262.554688 168.625 264.3125 168.625 264.3125 C 168.625 264.3125 160.308594 265.832031 156.183594 271.332031 C 152.058594 276.832031 139.226563 288.6875 137.226563 289.9375 C 135.226563 291.1875 134.726563 290.5625 135.601563 289.6875 C 136.476563 288.8125 143.378906 280.058594 143.980469 279.304688 C 144.582031 278.546875 144.960938 277.886719 146.859375 278.171875 C 148.761719 278.453125 148.484375 277.226563 145.484375 276.101563 C 142.484375 274.976563 136.476563 273.152344 131.101563 272.777344 C 125.726563 272.402344 118.101563 278.5625 115.0625 283.09375 C 113.390625 285.589844 110.316406 285.070313 112.066406 282.945313 C 113.816406 280.820313 111.617188 280.242188 109.117188 280.617188 C 106.617188 280.992188 102.929688 282.910156 97.964844 285.671875 C 91.554688 289.234375 86 289.851563 82.339844 289.453125 C 80.46875 289.25 78.125 288.691406 79.976563 287.816406 C 81.824219 286.941406 84.792969 285.484375 87.226563 285.621094 C 89.65625 285.761719 90.03125 285.015625 87.15625 284.015625 C 84.28125 283.015625 78.976563 282.011719 76.726563 283.011719 C 74.476563 284.011719 67.476563 286.019531 64.226563 285.875 C 60.972656 285.734375 59.726563 284.6875 61.476563 284.4375 C 63.226563 284.1875 65.351563 282.257813 67 280.902344 C 68.652344 279.546875 69.03125 276.902344 72.855469 277.402344 C 76.679688 277.902344 75.917969 276.488281 74.042969 275.988281 C 72.167969 275.488281 71.597656 275.035156 68.097656 275.285156 C 64.597656 275.535156 59.847656 276.921875 57.96875 277.007813 C 56.089844 277.089844 55.625 276.140625 57.875 276.015625 C 60.125 275.890625 65.882813 272.445313 70.109375 270.335938 C 74.339844 268.230469 84.46875 270.835938 88.847656 271.25 C 93.230469 271.664063 90.472656 269.800781 88.222656 269.675781 C 85.972656 269.550781 83.539063 268.910156 80.726563 267.8125 C 77.910156 266.710938 70.925781 267.710938 68.050781 269.335938 C 65.175781 270.960938 56.730469 274.582031 54.226563 274.4375 C 51.71875 274.289063 49.324219 274.109375 52.699219 276.859375 C 56.074219 279.609375 60.675781 277.988281 64.296875 277.398438 C 67.917969 276.804688 67.503906 278.222656 65.488281 279.886719 C 63.46875 281.554688 59.476563 282.8125 54.726563 283.3125 C 49.976563 283.8125 50.972656 284.875 58.472656 286.625 C 65.972656 288.375 71.378906 286.328125 75.234375 285.023438 C 79.085938 283.714844 82.425781 284.410156 82.425781 284.410156 C 82.425781 284.410156 79.925781 285.921875 76.425781 287.609375 C 72.925781 289.300781 74.214844 290.863281 75.363281 290.464844 C 76.515625 290.0625 79.222656 290.386719 82.222656 290.886719 C 85.222656 291.386719 91.3125 291.179688 93.1875 290.117188 C 95.0625 289.054688 100.921875 285.460938 105.171875 283.828125 C 109.414063 282.195313 110.976563 283.5625 107.203125 286.0625 C 103.191406 288.722656 104.476563 289.3125 107.976563 289.0625 C 111.476563 288.8125 115.753906 285.089844 119.003906 281.339844 C 122.253906 277.589844 127.035156 274.445313 130.722656 274.261719 C 134.410156 274.078125 144.125 277.210938 144.125 277.210938 C 144.125 277.210938 140.859375 280.566406 137.769531 284.167969 C 134.683594 287.769531 131.625 292.8125 131.625 292.8125 C 131.625 292.8125 126.878906 295.121094 122.921875 297.015625 C 106.136719 305.054688 79.300781 300.929688 58.976563 302.3125 C 36.378906 303.847656 25.179688 321.773438 20.917969 336.152344 C 18.917969 342.902344 21.632813 339.671875 23.40625 336.808594 C 33.652344 320.296875 47.109375 304.179688 65.601563 306.851563 C 69.351563 307.390625 91.484375 309.53125 95.484375 309.203125 C 99.484375 308.871094 117.726563 305.109375 117.726563 305.109375 C 117.726563 305.109375 114.679688 309.429688 112.417969 311.742188 C 91.445313 333.246094 72.164063 359.425781 59.011719 393.574219 C 40.726563 441.0625 45.476563 499.0625 88.757813 529.039063 C 119.683594 550.457031 150.933594 563.480469 193.734375 554.433594 C 235.726563 545.5625 246.820313 544.949219 285.042969 509.691406 C 292.230469 503.0625 305.355469 485.019531 311.703125 477.96875 C 323.871094 464.460938 348.933594 417.453125 356.652344 400.558594 C 360.292969 392.597656 377.476563 356.5625 380.976563 347.8125 C 384.476563 339.0625 389.476563 329.5625 391.726563 322.3125 C 393.976563 315.0625 397.964844 296.140625 400.316406 288.507813 C 409.082031 260.03125 408.710938 236.0625 409.253906 206.9375 C 409.996094 167.246094 399.449219 151.976563 384.929688 132.34375 C 374.4375 118.152344 364.191406 108.910156 366.597656 86.449219 C 367.546875 77.601563 374.574219 67.789063 384.425781 63.023438 C 392 59.359375 399.972656 57.5625 401.316406 49.066406 C 402.066406 44.316406 400.375 45.710938 398.226563 47.613281 C 396.074219 49.511719 393.433594 46.632813 393.933594 44.382813 C 394.433594 42.132813 402.996094 38.761719 405.976563 38.011719 C 411.320313 36.671875 421.765625 34.105469 421.765625 22.316406 C 421.765625 18.816406 420.125 18.511719 418.476563 21.8125 C 416.125 26.507813 407.839844 29.722656 408.222656 21.4375 C 408.375 18.1875 412.289063 13.003906 416.539063 11.753906 C 420.789063 10.503906 426.710938 7.050781 428.128906 4.011719 C 429.777344 0.460938 426.671875 0.914063 425.523438 2.539063 Z M 147.023438 70.109375 C 147.023438 70.109375 141.863281 72.058594 138.488281 72.183594 C 135.113281 72.308594 125.792969 74.511719 125.792969 74.511719 C 125.792969 74.511719 126.476563 71.0625 127.976563 69.4375 C 129.476563 67.8125 131.351563 66.4375 131.351563 66.4375 C 131.351563 66.4375 130.21875 70.824219 133.597656 70.40625 C 136.976563 69.988281 148.425781 67.011719 148.425781 67.011719 Z M 183.101563 391.144531 C 183.101563 391.144531 186.851563 386.101563 189.726563 381.476563 C 192.601563 376.851563 194.023438 373.011719 194.023438 373.011719 L 191.125 371.109375 C 191.125 371.109375 196.601563 369.0625 198.726563 366.0625 C 200.851563 363.0625 207.851563 351.5625 211.351563 348.6875 C 214.851563 345.8125 220.226563 339.4375 220.976563 336.9375 C 221.726563 334.4375 219.726563 333.910156 219.726563 333.910156 C 219.726563 333.910156 224.101563 331.3125 226.351563 329.9375 C 228.601563 328.5625 240.011719 319.085938 242.011719 315.710938 C 244.011719 312.335938 241.324219 312.3125 241.324219 312.3125 C 241.324219 312.3125 246.851563 309.3125 249.101563 306.6875 C 251.351563 304.0625 259.289063 293.1875 262.914063 288.9375 C 266.539063 284.6875 269.898438 281.859375 271.023438 281.109375 C 272.148438 280.359375 271.257813 279.605469 270.40625 279.007813 C 269.558594 278.40625 270.5625 277.445313 272.226563 276.8125 C 276.890625 275.03125 282.933594 265.492188 285.59375 259.71875 C 289.21875 251.84375 301.523438 230.910156 301.523438 230.910156 L 302.523438 237.609375 C 302.523438 237.609375 298.976563 242.773438 296.351563 245.8125 C 292.351563 250.4375 288.996094 256.6875 289.496094 258.9375 C 289.996094 261.1875 290.023438 262.8125 290.023438 262.8125 C 290.023438 262.8125 286.097656 261.507813 284.464844 265.199219 C 283.476563 267.4375 283.8125 269.632813 283.8125 269.632813 C 283.8125 269.632813 282.125 270.5625 280.625 270.8125 C 279.125 271.0625 277.214844 274.316406 277.324219 277.011719 C 277.433594 279.707031 278.59375 281.546875 280.21875 281.046875 C 281.84375 280.546875 283.945313 281.511719 282.109375 283.230469 C 280.269531 284.945313 277.59375 285.644531 275.34375 284.519531 C 273.09375 283.394531 268.894531 285.425781 265.445313 289.34375 C 261.996094 293.265625 255.726563 299.125 256.351563 301.9375 C 256.976563 304.746094 257.726563 305.6875 259.726563 305.4375 C 261.726563 305.1875 263.476563 304.8125 263.476563 304.8125 C 263.476563 304.8125 263.351563 308.4375 259.601563 309.5625 C 255.851563 310.6875 252.726563 310.9375 251.101563 315.1875 C 249.476563 319.4375 248.351563 321.0625 248.351563 321.0625 C 248.351563 321.0625 247.160156 317.261719 244.53125 317.394531 C 241.226563 317.5625 237.863281 319.300781 237.59375 326.199219 C 237.476563 329.1875 237.925781 335.3125 237.925781 335.3125 C 237.925781 335.3125 233.71875 329.304688 230.84375 334.179688 C 227.96875 339.054688 230.316406 343.429688 230.316406 343.429688 C 230.316406 343.429688 229.839844 344.527344 226.964844 342.777344 C 224.089844 341.027344 218.101563 342.4375 214.851563 346.6875 C 211.601563 350.9375 208.433594 356.175781 210.058594 358.175781 C 211.683594 360.175781 213.523438 359.824219 214.726563 359.371094 C 215.925781 358.921875 217.339844 360.53125 214.976563 362.0625 C 212.609375 363.589844 210.722656 363.746094 208.347656 363.496094 C 205.972656 363.246094 202.132813 364.800781 200.457031 369.050781 C 198.3125 374.5 198.722656 378.679688 203.351563 377.625 C 205.324219 377.175781 205.167969 379.144531 202.980469 379.335938 C 200.796875 379.527344 196.230469 380.503906 193.605469 384.503906 C 191.804688 387.246094 192.296875 388.675781 193.097656 391.285156 C 193.980469 394.160156 194.351563 397.4375 194.351563 397.4375 C 194.351563 397.4375 191.105469 395.078125 189.730469 396.328125 C 188.355469 397.578125 186.324219 398.910156 186.324219 398.910156 C 186.324219 398.910156 188.121094 395.433594 187.746094 393.058594 C 187.371094 390.683594 183.101563 391.144531 183.101563 391.144531 Z M 253.496094 459.660156 C 251.496094 460.285156 246.097656 461.097656 243.347656 460.90625 C 240.597656 460.714844 237.3125 461.160156 234.351563 463.1875 C 231.386719 465.214844 227.023438 466.859375 223.476563 464.6875 C 219.925781 462.511719 215.976563 461.5625 214.476563 462.3125 C 212.976563 463.0625 211.464844 463.339844 208.851563 461.3125 C 206.238281 459.28125 200.964844 457.082031 196.089844 455.835938 C 188.0625 453.773438 181.4375 440.789063 180.328125 435.300781 C 177.480469 421.21875 178.421875 412.921875 183.476563 402.8125 C 184.476563 400.8125 185.628906 401.644531 185.101563 403.3125 C 184.351563 405.6875 185.925781 408.511719 185.925781 408.511719 C 185.925781 408.511719 182.375 408.761719 181.851563 413.4375 C 181.324219 418.109375 183.925781 422.210938 183.925781 422.210938 C 183.925781 422.210938 182.8125 426.4375 182.3125 429.1875 C 181.8125 431.9375 183.210938 435.960938 185.222656 435.898438 C 187.230469 435.835938 189.90625 435.121094 190.40625 432.871094 C 190.90625 430.621094 192.351563 430.4375 192.351563 432.4375 C 192.351563 434.4375 192.144531 436.714844 190.394531 438.839844 C 188.644531 440.964844 187.628906 445.226563 189.894531 447.945313 C 193.226563 451.9375 198.449219 448.679688 198.449219 448.679688 C 198.449219 448.679688 199.101563 456.0625 203.601563 454.8125 C 208.101563 453.5625 209.851563 449.5625 209.851563 449.5625 C 209.851563 449.5625 211.476563 453.3125 211.476563 455.9375 C 211.476563 458.5625 212.5 460.21875 215.226563 460.1875 C 217.949219 460.152344 218.546875 459.191406 219.671875 457.316406 C 220.796875 455.441406 224 453.082031 223.925781 456.707031 C 223.847656 460.332031 224.914063 461.773438 228.730469 461.265625 C 234.976563 460.4375 236.867188 455.566406 236.867188 455.566406 C 236.867188 455.566406 237.726563 458.8125 240.976563 458.8125 C 244.226563 458.8125 246.664063 455.695313 246.789063 452.820313 C 246.914063 449.945313 245.824219 446.910156 245.824219 446.910156 C 245.824219 446.910156 249.78125 448.34375 249.980469 449.667969 C 250.183594 450.992188 250.628906 451.738281 252.230469 451.515625 C 253.828125 451.289063 253.386719 452.578125 252.386719 453.328125 C 251.386719 454.078125 250.894531 457.53125 253.269531 457.53125 C 255.644531 457.53125 255.496094 459.035156 253.496094 459.660156 Z M 351.050781 317.183594 C 350.871094 319.871094 350.164063 322.015625 347.980469 323.441406 C 346.015625 324.722656 343.839844 329.058594 343.726563 331.6875 C 343.609375 334.316406 342.472656 336.335938 339.761719 338 C 336.34375 340.097656 333.765625 341.949219 332.601563 347.4375 C 331.726563 351.5625 334.625 352.109375 334.625 352.109375 C 334.625 352.109375 334.636719 354.214844 327.867188 356.972656 C 324.492188 358.347656 323.152344 360.808594 323.476563 362.8125 C 323.796875 364.8125 321.914063 368 320.8125 368.84375 C 319.710938 369.6875 317.042969 372.878906 316.476563 375.3125 C 315.90625 377.746094 314.96875 378.800781 312.378906 380.269531 C 309.785156 381.738281 305.125 382.8125 303.742188 387.59375 C 302.882813 390.566406 304.601563 392.546875 306.226563 392.171875 C 307.851563 391.796875 309.046875 391.53125 308.746094 394.082031 C 308.449219 396.632813 304.761719 398.109375 301.984375 398.726563 C 299.214844 399.34375 296.769531 401.25 297.019531 403.375 C 297.269531 405.5 296.226563 407.5625 293.476563 408.8125 C 290.726563 410.0625 287.601563 411.0625 285.476563 414.1875 C 283.351563 417.3125 286.5 421.386719 288.125 420.511719 C 289.75 419.636719 290.648438 419.882813 288.898438 421.382813 C 287.148438 422.882813 280.851563 424.0625 276.976563 425.0625 C 273.101563 426.0625 271.699219 428.910156 271.898438 430.808594 C 272.101563 432.710938 270.476563 434.0625 268.226563 436.5625 C 265.976563 439.0625 265.410156 444.296875 266.726563 443.3125 C 269.226563 441.4375 269.601563 442.0625 268.351563 443.5625 C 267.101563 445.0625 266.25 446.109375 264.875 446.382813 C 263.5 446.660156 258.34375 448.355469 256.976563 449.1875 C 255.609375 450.023438 254.726563 449.6875 256.351563 448.5625 C 258.601563 447.003906 261.0625 441.21875 259.230469 438.367188 C 258.105469 436.617188 257.449219 432.609375 258.324219 431.109375 C 259.199219 429.609375 261.074219 428.070313 260.074219 431.195313 C 258.625 435.726563 260.160156 439.304688 264.148438 437.625 C 266.523438 436.625 269.085938 431.316406 269.4375 429.691406 C 269.785156 428.066406 271.726563 422.5625 274.574219 419.722656 C 275.882813 418.421875 277.351563 416.8125 280.476563 415.5625 C 283.601563 414.3125 287.761719 406.699219 287.976563 404.4375 C 288.1875 402.175781 290.101563 398.4375 292.476563 397.5625 C 294.851563 396.6875 298.425781 393.410156 298.226563 391.8125 C 298.023438 390.210938 299.03125 388.84375 300.601563 388.742188 C 302.167969 388.640625 304.351563 384.8125 304.226563 383.1875 C 304.101563 381.5625 305.328125 380.09375 309.703125 377.34375 C 314.078125 374.59375 313.699219 370.859375 312.324219 370.109375 C 310.949219 369.359375 310.902344 367.714844 311.621094 365.328125 C 312.34375 362.945313 315.085938 362.003906 315.085938 364.003906 C 315.085938 366.003906 318.453125 365.941406 321.816406 360.824219 C 324.449219 356.820313 325.519531 353.929688 325.019531 352.304688 C 324.519531 350.679688 324.8125 347.527344 326.8125 346.527344 C 328.8125 345.527344 331.726563 342.3125 332.351563 340.9375 C 332.976563 339.5625 331.601563 337.1875 332.351563 335.0625 C 333.101563 332.9375 334.300781 332.097656 334.800781 334.597656 C 335.300781 337.097656 336.65625 336.308594 338.78125 334.808594 C 340.222656 333.792969 345.757813 326.21875 343.976563 321.4375 C 343.15625 319.242188 343.601563 318.0625 345.226563 317.3125 C 346.851563 316.5625 350.601563 313.1875 350.601563 313.1875 C 350.601563 313.1875 351.175781 315.308594 351.050781 317.183594 Z M 363.523438 291.902344 C 361.523438 294.027344 357.753906 300.949219 357.128906 303.949219 C 356.503906 306.949219 352.601563 310.9375 352.601563 310.9375 C 352.601563 310.9375 353.289063 307.445313 353.914063 304.320313 C 354.539063 301.195313 353.625 298.882813 353 297.007813 C 352.375 295.132813 355.324219 289.511719 355.324219 289.511719 C 355.324219 289.511719 355.902344 294.21875 358.101563 293.355469 C 360.300781 292.496094 361.5625 290.59375 362.515625 289.71875 C 363.464844 288.84375 365.523438 289.777344 363.523438 291.902344 Z M 376.769531 245.324219 C 376.34375 246.429688 376.339844 249.5625 376.101563 252.816406 C 375.859375 256.066406 373.847656 260.3125 370.597656 263.6875 C 367.347656 267.0625 366.261719 277.4375 366.289063 279.5625 C 366.320313 281.683594 365.125 282.8125 364.851563 280.5625 C 364.574219 278.3125 367.101563 266.5625 368.351563 264.4375 C 369.601563 262.3125 371.476563 256.5625 372.476563 253.8125 C 373.476563 251.0625 374.785156 246.890625 375.851563 244.9375 C 376.601563 243.5625 377.195313 244.222656 376.769531 245.324219 Z M 108.324219 202.8125 C 108.324219 202.8125 112.101563 206.4375 112.726563 207.1875 C 113.351563 207.9375 113.402344 209.390625 111.777344 208.265625 C 110.152344 207.140625 107.925781 204.3125 107.925781 204.3125 Z M 111.101563 182.1875 C 109.601563 179.4375 106.425781 175.011719 106.425781 175.011719 C 106.425781 175.011719 104.851563 174.6875 102.601563 173.0625 C 100.351563 171.4375 99.976563 169.3125 95.976563 169.5625 C 91.976563 169.8125 90.578125 175.007813 91.328125 177.382813 C 92.078125 179.757813 95.476563 183.285156 98.351563 184.160156 C 101.226563 185.035156 103.070313 188.558594 102.945313 192.183594 C 102.820313 195.808594 106.226563 200.210938 106.226563 200.210938 L 105.925781 202.609375 C 105.925781 202.609375 97.980469 195.863281 92.855469 194.488281 C 87.730469 193.113281 85.125 194.011719 85.125 194.011719 C 85.125 194.011719 82.800781 190.804688 81.535156 187.753906 C 80.265625 184.695313 77.851563 184 76.601563 184.375 C 75.351563 184.75 74.101563 184.3125 72.601563 182.1875 C 71.101563 180.0625 69.347656 178.226563 67.347656 178.101563 C 65.347656 177.976563 62.726563 179.609375 62.726563 179.609375 C 62.726563 179.609375 62.410156 176.0625 62.328125 173.9375 C 62 165.648438 63.296875 153.976563 65.75 146.320313 C 76.625 112.417969 101.351563 96.5625 120.492188 90.4375 C 126.910156 88.382813 149.96875 84.753906 157.734375 88.664063 C 178.101563 98.9375 186.617188 119.917969 185.851563 131.8125 C 184.441406 153.652344 166.261719 169.628906 149.105469 170.34375 C 143.105469 170.59375 132.476563 171.5625 125.175781 174.710938 C 118.496094 177.589844 113.425781 186.3125 113.425781 186.3125 C 113.425781 186.3125 112.601563 184.9375 111.101563 182.1875 Z M 140.023438 221.609375 L 137.214844 217.820313 C 137.214844 217.820313 134.492188 214.65625 137.769531 210.480469 C 139.144531 208.730469 142.101563 207.8125 144.851563 209.1875 C 147.429688 210.476563 149.871094 215.121094 146.832031 218.921875 C 145.332031 220.796875 140.023438 221.609375 140.023438 221.609375 Z M 309 478.5 C 294.859375 497.886719 274.390625 519.222656 259.496094 529.09375 C 239.398438 542.410156 219.925781 548.164063 192.351563 552.9375 C 169.101563 556.960938 150.417969 556.351563 124.601563 546.808594 C 105.367188 539.703125 78.070313 523.28125 65.210938 500.882813 C 45.917969 467.277344 49.976563 433.210938 56.476563 406.5625 C 61.167969 387.328125 81.808594 350.394531 94.695313 334.523438 C 98.671875 329.621094 118.726563 306.6875 119.851563 305.4375 C 120.976563 304.1875 121.949219 303.117188 124.296875 302.480469 C 137.351563 298.9375 153.601563 284.8125 163.441406 274.90625 C 168.789063 269.523438 169.226563 270.210938 174.722656 270.417969 C 176.722656 270.492188 177.601563 268.6875 175.476563 268.1875 C 173.351563 267.6875 167.496094 267.453125 162.242188 272.765625 C 150.402344 284.746094 137.320313 295.886719 123.851563 300.9375 C 114.378906 304.488281 96.734375 307.789063 84.347656 306.964844 C 80.597656 306.714844 70.222656 305.417969 65.847656 305.273438 C 61.472656 305.128906 52.863281 304.902344 49.363281 307.402344 C 38.34375 315.273438 31.277344 318.6875 25.839844 329.554688 C 24.589844 332.054688 23.601563 331.4375 24.851563 329.3125 C 31.117188 318.660156 35.625 310.753906 48.476563 305.9375 C 51.476563 304.8125 59.976563 303.4375 66.726563 303.707031 C 83.222656 304.363281 98.175781 305.976563 113.609375 301.605469 C 130.976563 296.6875 141.597656 292.472656 155.625 275.582031 C 160.949219 269.171875 162.777344 266.910156 171.476563 265.953125 C 181.421875 264.863281 182.15625 263.886719 190.75 270.21875 C 192.648438 271.617188 193.988281 271.363281 192.476563 269.5625 C 190.964844 267.757813 185.453125 260.480469 181.824219 260.210938 C 178.199219 259.941406 171.449219 260.503906 170.5 261.230469 C 169.550781 261.953125 168.03125 261.691406 167.695313 260.691406 C 167.363281 259.691406 167.492188 258.71875 169.875 257.421875 C 176.0625 254.046875 176.433594 252.503906 183.601563 254.3125 C 186.097656 254.945313 197.351563 256.9375 197.351563 256.9375 C 197.351563 256.9375 200.019531 260.074219 201.644531 262.324219 C 203.269531 264.574219 204.972656 266.5625 204.222656 269.8125 C 203.472656 273.0625 203.125 280.410156 203.125 280.410156 C 203.125 280.410156 199.984375 282.03125 196.101563 283.253906 C 191.367188 284.746094 188.683594 286.472656 185.164063 283.742188 C 181.652344 281.011719 175.523438 276.011719 175.523438 276.011719 C 175.523438 276.011719 168.226563 275.460938 167.226563 275.710938 C 166.226563 275.960938 165.472656 277.914063 167.597656 277.734375 C 169.722656 277.550781 170.523438 277.511719 170.523438 277.511719 C 170.523438 277.511719 170.867188 279.179688 171.242188 280.554688 C 171.617188 281.929688 172.941406 282.746094 174.1875 281.738281 C 175.433594 280.730469 176.523438 279.609375 176.523438 279.609375 C 176.523438 279.609375 176.53125 282.292969 176.78125 283.417969 C 177.03125 284.542969 177.589844 284.808594 178.976563 284.542969 C 180.363281 284.28125 182.105469 284.117188 182.105469 284.117188 C 182.105469 284.117188 183.851563 286.0625 185.351563 287.0625 C 186.851563 288.0625 189.675781 288.359375 190.925781 287.609375 C 192.175781 286.859375 192.824219 286.609375 192.824219 286.609375 L 194.726563 287.109375 L 191.625 291.910156 C 191.625 291.910156 187.421875 290.71875 184.046875 291.59375 C 180.671875 292.46875 177.53125 291.3125 176.027344 289.003906 C 174.523438 286.695313 171.160156 283.753906 168.660156 283.453125 C 166.160156 283.152344 164.46875 285.335938 167.351563 285.8125 C 170.234375 286.285156 173.6875 287.476563 174.8125 289.976563 C 175.9375 292.476563 177.925781 294.011719 177.925781 294.011719 L 187.523438 294.011719 C 187.523438 294.011719 186.808594 297.160156 189.46875 299.691406 C 192.132813 302.222656 199.019531 306.9375 199.855469 307.929688 C 201.523438 309.910156 201.21875 310.277344 199.09375 309.652344 C 196.96875 309.027344 193.699219 309.519531 195.851563 311.6875 C 198 313.855469 202.726563 319.726563 204.835938 320.769531 C 206.945313 321.816406 207.371094 322.570313 205.121094 322.945313 C 200.847656 323.660156 197.011719 326.394531 191.382813 320.765625 C 188.757813 318.140625 186.191406 318.0625 186.8125 321.0625 C 187.433594 324.0625 188.398438 327.984375 189.023438 329.109375 C 189.648438 330.234375 189.148438 330.609375 188.023438 329.109375 C 186.898438 327.609375 182.742188 321.769531 178.992188 320.144531 C 175.242188 318.519531 174.324219 322.3125 174.324219 322.3125 C 174.324219 322.3125 170.65625 319.019531 168.980469 317.492188 C 167.304688 315.96875 164.273438 315.886719 165.023438 319.011719 C 165.773438 322.136719 164.914063 321.3125 163.734375 319.304688 C 162.558594 317.296875 159.925781 314.011719 159.925781 314.011719 L 157.523438 315.910156 C 157.523438 315.910156 155.199219 311.660156 156.824219 308.410156 C 159.585938 302.886719 161.242188 295.539063 157.8125 288.675781 C 156.1875 285.425781 154.757813 285.914063 156.042969 288.90625 C 158.632813 294.945313 157.148438 302.4375 155.113281 306.21875 C 153.363281 309.46875 153.851563 313.0625 155.226563 316.1875 C 156.601563 319.3125 158.703125 320.335938 159.128906 318.835938 C 159.554688 317.335938 160.398438 317.132813 161.773438 320.007813 C 163.148438 322.882813 165.550781 325.460938 166.425781 326.710938 C 167.300781 327.960938 168.519531 327.429688 167.644531 324.554688 C 166.769531 321.679688 167.726563 319.6875 167.726563 319.6875 C 167.726563 319.6875 171.789063 321.085938 172.867188 323.859375 C 173.941406 326.636719 176.15625 328.6875 176.28125 325.3125 C 176.40625 321.9375 178.160156 320.746094 181.359375 323.921875 C 184.5625 327.097656 188.285156 332.160156 190.226563 332.910156 C 192.164063 333.660156 193.527344 332.96875 192.277344 330.59375 C 191.027344 328.21875 189.023438 321.609375 189.023438 321.609375 C 189.023438 321.609375 191.28125 323.730469 194.078125 325.21875 C 196.878906 326.710938 199.523438 326.710938 199.523438 326.710938 C 199.523438 326.710938 194.84375 332.550781 192.953125 334.476563 C 184.304688 343.285156 175.09375 353.695313 167.101563 364.6875 C 152.476563 384.792969 147.441406 400.523438 145.976563 427.6875 C 145.429688 437.800781 146.921875 462.867188 153.976563 476.4375 C 162.613281 493.046875 175.027344 506.835938 194.652344 514.523438 C 213.070313 521.734375 228.144531 520.101563 245.128906 514.898438 C 270.671875 507.070313 286.601563 502.8125 308.523438 478.355469 C 309.773438 476.957031 310.480469 476.46875 309 478.5 Z M 180.476563 282.8125 L 178.101563 283.4375 L 178.425781 281.109375 Z M 175.125 278.011719 L 173.351563 280.3125 L 172.726563 277.511719 Z M 411.988281 12.890625 C 409.628906 14.070313 405.632813 18.753906 406.480469 24.6875 C 407.105469 29.0625 412.890625 28.617188 414.878906 27.808594 C 416.867188 27 419.824219 24.011719 419.824219 24.011719 C 419.824219 24.011719 420.183594 26.667969 416.761719 30.730469 C 414.761719 33.105469 402.242188 37.105469 399.617188 37.980469 C 392.265625 40.433594 390.199219 44.71875 392.972656 48.878906 C 394.472656 51.128906 399.726563 48.511719 399.726563 48.511719 C 399.726563 48.511719 398.980469 53.507813 393.695313 56.484375 C 391.695313 57.609375 382.5 61.742188 379.125 63.617188 C 375.75 65.492188 374.523438 64.910156 374.023438 63.410156 C 373.523438 61.910156 374.222656 58.078125 374.847656 56.578125 C 382.734375 37.652344 396.410156 19.414063 411.691406 12.1875 C 413.507813 11.328125 413.238281 12.265625 411.988281 12.890625 Z M 418.726563 8.1875 C 415.132813 8.949219 403.398438 12.386719 396.976563 17.4375 C 386.621094 25.574219 378.355469 36.554688 372.820313 49.578125 C 370.742188 54.46875 370.304688 57.046875 368.929688 58.546875 C 367.554688 60.046875 365.625 60.8125 365.625 60.8125 C 365.625 60.8125 366.707031 46.8125 365.832031 42.3125 C 364.957031 37.8125 366.949219 33.617188 367.875 32.070313 C 368.800781 30.519531 369.355469 30.5625 369.230469 32.6875 C 369.105469 34.8125 371.605469 36.425781 373.980469 35.800781 C 376.355469 35.175781 382.789063 27.703125 383.539063 23.453125 C 385.179688 14.160156 390.824219 6.511719 390.824219 6.511719 C 390.824219 6.511719 390.273438 11.5625 393.253906 13.535156 C 396.972656 16 405.679688 11.40625 407.679688 9.78125 C 409.679688 8.15625 416.375 7.210938 419.125 7.210938 C 421.875 7.210938 420.820313 7.742188 418.726563 8.1875 Z M 292.925781 449.8125 C 290.097656 449.460938 289.210938 451.410156 289.210938 451.410156 C 289.210938 451.410156 287.777344 448.210938 283.726563 451.6875 C 282.851563 452.4375 283.507813 454.164063 284.960938 453.367188 C 289.59375 450.8125 289.25 453.496094 287.257813 456.214844 C 285.980469 457.953125 286.679688 459.332031 288.804688 457.957031 C 290.929688 456.585938 293.101563 455.5625 293.851563 457.0625 C 294.601563 458.5625 293.425781 460.8125 291.476563 461.9375 C 289.523438 463.0625 291.203125 465.222656 292.078125 464.347656 C 292.953125 463.472656 293.691406 462.34375 294.976563 460.8125 C 296.257813 459.277344 296.816406 460.0625 296.75 461.0625 C 296.683594 462.066406 297.277344 462.527344 297.949219 461.578125 C 298.625 460.628906 298.726563 459.0625 297.851563 458.5625 C 296.976563 458.0625 295.898438 457.4375 295.523438 456.3125 C 295.148438 455.1875 294.679688 454.816406 294.679688 454.816406 C 294.679688 454.816406 297.976563 450.4375 292.925781 449.8125 Z M 293.472656 454.429688 L 289.324219 455.8125 C 289.324219 455.8125 290.226563 451.460938 292.625 451.511719 C 295.027344 451.5625 293.472656 454.429688 293.472656 454.429688 Z M 41.605469 257.921875 C 44.207031 259.175781 58.226563 264.011719 58.226563 264.011719 C 58.226563 264.011719 56.324219 268.410156 45.726563 269.410156 C 42.824219 269.6875 42.847656 271.535156 45.601563 271.550781 C 48.351563 271.566406 60.890625 269.574219 63.023438 268.8125 C 65.160156 268.046875 66.542969 267.992188 67.738281 267.765625 C 68.9375 267.539063 70.457031 265.160156 67.601563 265.726563 C 64.75 266.289063 59.863281 268.09375 58.613281 268.382813 C 57.363281 268.675781 56.230469 268.132813 57.980469 266.757813 C 59.730469 265.382813 65.195313 257.210938 65.949219 256.402344 C 66.703125 255.59375 67.601563 254.222656 70.476563 254.222656 C 73.351563 254.222656 74.222656 252.121094 71.351563 252.316406 C 65.832031 252.695313 52.585938 253.929688 47.207031 251.242188 C 44.457031 249.867188 46.226563 249.78125 47.976563 250.1875 C 52.65625 251.269531 68.585938 250.632813 73.851563 247.5625 C 76.851563 245.8125 81.273438 245.628906 82.347656 245.628906 C 83.425781 245.628906 83.222656 244.777344 81.597656 244.527344 C 79.972656 244.277344 72.003906 240.621094 68.957031 238.847656 C 65.90625 237.070313 66.300781 235.753906 69.101563 236.234375 C 71.902344 236.71875 76.84375 238.820313 78.96875 240.445313 C 81.09375 242.070313 90.347656 244.535156 93.597656 244.410156 C 96.847656 244.285156 96.824219 244.214844 94.328125 242.023438 C 91.832031 239.835938 86.921875 233.179688 86.046875 231.804688 C 85.171875 230.429688 82.308594 227.660156 80.707031 226.710938 C 79.109375 225.757813 79.851563 225.0625 81.601563 225.5625 C 83.351563 226.0625 89.585938 230.699219 91.210938 232.699219 C 92.835938 234.699219 97.222656 236.9375 99.222656 237.9375 C 101.222656 238.9375 102.046875 237.804688 99.699219 236.742188 C 97.347656 235.679688 89.339844 229.765625 85.839844 226.515625 C 82.339844 223.265625 78.847656 223.492188 76.976563 223.710938 C 75.101563 223.929688 73.523438 224.011719 73.523438 224.011719 C 73.523438 224.011719 71.527344 222.640625 69.777344 221.265625 C 68.027344 219.890625 64.578125 218.132813 64.828125 220.507813 C 65.078125 222.882813 64.019531 222.023438 62.636719 220.34375 C 61.253906 218.664063 57 214.8125 54.324219 214.609375 C 51.652344 214.410156 51.089844 215.0625 51.964844 217.6875 C 52.839844 220.3125 51.242188 220.941406 49.964844 217.941406 C 48.691406 214.941406 46 209.324219 44.617188 208.789063 C 43.230469 208.253906 41.667969 207.511719 41.292969 209.011719 C 40.917969 210.511719 39.835938 209.382813 39.335938 207.882813 C 38.835938 206.382813 34.425781 206.210938 34.425781 206.210938 C 34.425781 206.210938 36.03125 204.3125 35.90625 200.6875 C 35.757813 196.410156 34.863281 194.179688 29.894531 193.761719 C 26.773438 193.5 26.007813 189.6875 25.507813 187.0625 C 25.007813 184.4375 25.125 180.8125 25.125 180.8125 L 26.523438 181.511719 L 27.726563 178.8125 C 27.726563 178.8125 29.425781 181.085938 29.925781 182.210938 C 30.425781 183.335938 31.296875 182.441406 31.855469 181.003906 C 33.164063 177.648438 35.976563 178.5625 34.976563 182.5625 C 34.476563 184.5625 33.71875 190.003906 36.59375 191.628906 C 41.234375 194.253906 41.839844 190.53125 41.839844 190.53125 C 41.839844 190.53125 42.324219 194.109375 42.324219 197.109375 C 42.324219 200.109375 45.355469 207.554688 47.980469 209.304688 C 50.605469 211.054688 58.601563 213.9375 59.976563 213.8125 C 61.351563 213.6875 61.976563 213.039063 61.851563 211.9375 C 61.722656 210.835938 62.351563 210.6875 63.476563 212.4375 C 64.601563 214.1875 71.414063 217.925781 73.214844 218.648438 C 75.011719 219.375 76.351563 218.6875 74.226563 217.4375 C 72.101563 216.1875 63.601563 210.9375 62.726563 207.9375 C 61.851563 204.9375 60.675781 205.4375 60.550781 208.1875 C 60.425781 210.9375 60.851563 213.5625 55.976563 211.3125 C 51.101563 209.0625 47.273438 208.703125 45.59375 203.0625 C 44.300781 198.703125 43.015625 191.6875 43.515625 188.9375 C 44.015625 186.1875 41.40625 185.949219 40.960938 188.183594 C 40.511719 190.414063 39.71875 193.132813 37.59375 190.507813 C 35.46875 187.882813 35.796875 183.695313 36.671875 181.570313 C 37.546875 179.445313 36.84375 179.136719 35.21875 178.011719 C 33.59375 176.886719 31.796875 177.917969 31.414063 178.9375 C 30.824219 180.511719 29.578125 180.0625 28.851563 177.8125 C 28.125 175.558594 26.679688 174.101563 29.101563 168.6875 C 31.519531 163.273438 35.601563 156.9375 34.476563 153.3125 C 33.351563 149.6875 31.863281 151.308594 31.726563 152.6875 C 31.585938 154.066406 31.425781 157.5625 28.976563 157.1875 C 26.523438 156.8125 25.117188 154.757813 27.300781 151.191406 C 29.484375 147.625 32.589844 143.734375 33.113281 141.753906 C 33.632813 139.773438 34.753906 135.976563 31.878906 132.726563 C 29.003906 129.476563 28.976563 131.800781 29.6875 133.421875 C 30.398438 135.042969 29.875 139.894531 27 142.019531 C 22.273438 145.515625 20.632813 150.949219 22.351563 155.9375 C 23.253906 158.554688 23.816406 161.605469 22.851563 164.4375 C 21.382813 168.734375 23.964844 174.96875 25.101563 176.5625 C 26.234375 178.152344 26.1875 179.34375 24.3125 177.71875 C 22.4375 176.09375 20.195313 175.835938 19.296875 176.183594 C 18.398438 176.535156 17.921875 177.941406 19.21875 177.992188 C 23.164063 178.144531 24.226563 182.414063 24.226563 187.5625 C 24.226563 191.664063 24.71875 194.632813 29.851563 195.359375 C 30.726563 195.484375 34.304688 196.671875 34.34375 199.554688 C 34.40625 203.914063 32.554688 206.640625 31.367188 206.746094 C 29.992188 206.871094 30.050781 208.765625 31.980469 208.613281 C 33.914063 208.457031 36.519531 207.554688 37.523438 208.109375 C 38.53125 208.667969 39.730469 210.785156 40.226563 213.5625 C 40.796875 216.761719 41.898438 215.324219 42.148438 213.449219 C 42.398438 211.574219 42.625 209.609375 42.625 209.609375 C 42.625 209.609375 45.351563 210.6875 46.351563 214.0625 C 47.351563 217.4375 50.664063 223.496094 54.164063 224.871094 C 57.664063 226.246094 56.609375 224.929688 55.734375 223.429688 C 54.859375 221.929688 53.625 216.3125 53.625 216.3125 C 53.625 216.3125 57.425781 217.8125 59.976563 220.3125 C 62.523438 222.8125 65.976563 227.4375 68.101563 228.3125 C 70.226563 229.1875 70.089844 227.328125 68.703125 226.214844 C 65.101563 223.3125 65.421875 218.777344 69.917969 223.179688 C 72.351563 225.5625 74.21875 226.324219 75.476563 226.3125 C 76.730469 226.296875 80.425781 227.046875 82.675781 230.421875 C 84.925781 233.796875 89.976563 239.6875 91.351563 241.0625 C 92.726563 242.4375 91.339844 243.75 86.957031 242.203125 C 82.574219 240.660156 77.09375 236.710938 72.21875 235.210938 C 67.34375 233.710938 64.429688 235.277344 63.226563 236.128906 C 62.027344 236.980469 62.300781 238.042969 65.351563 239.1875 C 68.402344 240.328125 76.226563 244.609375 76.226563 244.609375 C 76.226563 244.609375 70.742188 247.398438 65.617188 248.023438 C 60.492188 248.648438 47.75 249.785156 43.125 248.410156 C 38.5 247.035156 37.160156 247.503906 41.285156 250.253906 C 45.410156 253.003906 50.101563 254.3125 55.226563 254.5625 C 60.351563 254.8125 64.730469 254.460938 64.730469 254.460938 L 59.425781 262.8125 C 59.425781 262.8125 48.867188 260.101563 44.152344 257.835938 C 23.023438 247.679688 13.429688 235.617188 5.476563 216.8125 C 0.183594 204.300781 0.378906 191.480469 2.726563 180.4375 C 4.851563 170.4375 8.777344 155.613281 13.664063 146.25 C 21.28125 131.648438 33.691406 119.183594 46.550781 109.140625 C 54.976563 102.5625 68.859375 95.136719 76.847656 89.992188 C 78.59375 88.867188 90.664063 83.429688 92.171875 83.023438 C 93.679688 82.617188 96.625 81.910156 96.625 81.910156 C 96.625 81.910156 93.875 87.824219 92.476563 89.988281 C 90.976563 92.3125 87.226563 93.410156 87.226563 93.410156 C 87.226563 93.410156 85.125 95.582031 83.578125 98.207031 C 82.027344 100.832031 81.5 100.554688 81.25 98.804688 C 81 97.054688 78.726563 97.1875 76.726563 95.5625 C 74.726563 93.9375 73.941406 95.542969 74.53125 97.039063 C 75.117188 98.535156 75.402344 101.460938 74.277344 102.210938 C 73.152344 102.960938 73.601563 105.4375 74.726563 104.0625 C 75.851563 102.6875 76.726563 100.910156 76.476563 99.3125 C 76.226563 97.710938 77.152344 97.695313 78.601563 99.1875 C 80.050781 100.679688 80.925781 102.183594 80.050781 103.433594 C 79.175781 104.683594 81.101563 104.9375 82.101563 103.1875 C 83.101563 101.4375 87.023438 95.3125 87.023438 95.3125 C 87.023438 95.3125 89.25 95.648438 91.4375 92.835938 C 93.625 90.023438 96.324219 85.710938 96.324219 85.710938 C 96.324219 85.710938 97.34375 89.597656 94.84375 92.222656 C 92.34375 94.847656 93.257813 96.421875 96.25 94.789063 C 99.246094 93.160156 103.4375 88.546875 104.851563 86.355469 C 106.261719 84.164063 107.4375 81.550781 107.3125 79.925781 C 107.1875 78.300781 110.433594 74.835938 112.007813 74.109375 C 113.585938 73.386719 113.804688 74.1875 113.054688 76.3125 C 112.304688 78.4375 113.730469 79.507813 115.480469 78.960938 C 117.230469 78.410156 117.492188 77.105469 116.546875 77.238281 C 114.277344 77.558594 113.40625 74.671875 116.589844 71.484375 C 118.007813 70.070313 118.359375 68.175781 115.445313 70.007813 C 109.355469 73.839844 107.152344 77.285156 107.152344 77.285156 C 107.152344 77.285156 105.121094 77.671875 99.707031 79.007813 C 88.066406 81.871094 54.164063 101.199219 45.058594 108.230469 C 19.851563 127.6875 6.851563 147.6875 0.226563 187.1875 C -3.453125 209.117188 9.121094 242.269531 41.605469 257.921875 Z M 24.253906 170.558594 C 24.15625 168.308594 25.425781 159.484375 23.925781 155.109375 C 22.425781 150.734375 24.542969 146.460938 27.226563 143.8125 C 32.339844 138.757813 31.824219 135.410156 31.824219 135.410156 C 31.824219 135.410156 33.699219 138.484375 31.851563 141.3125 C 30 144.140625 24.796875 150.40625 24.949219 153.691406 C 25.125 157.511719 26.625 159.074219 28.976563 158.8125 C 31.226563 158.5625 32.851563 155.0625 32.851563 155.0625 C 32.851563 155.0625 33.742188 156.191406 32.492188 158.066406 C 31.242188 159.941406 27.023438 169.4375 26.714844 171.199219 C 26.390625 173.066406 26.324219 175.011719 26.324219 175.011719 C 26.324219 175.011719 24.347656 172.808594 24.253906 170.558594 Z M 105.925781 79.511719 C 105.925781 79.511719 105.589844 81.078125 104.964844 82.828125 C 102.128906 90.765625 95.925781 93.210938 95.925781 93.210938 C 95.925781 93.210938 98.484375 88.945313 98.28125 86.1875 C 98.078125 83.433594 97.324219 81.410156 97.324219 81.410156 Z M 69.953125 107.210938 C 70.578125 105.460938 69.726563 104.710938 69.726563 104.710938 C 69.726563 104.710938 67.460938 110.152344 63.230469 110.027344 C 61.527344 109.976563 62.101563 108.5625 63.601563 108.4375 C 65.101563 108.3125 68.976563 104.4375 68.976563 103.0625 C 68.976563 101.6875 70.074219 100.359375 70.601563 101.9375 C 72.820313 108.601563 70.257813 110.695313 64.980469 113.332031 C 63.980469 113.832031 62.445313 112.429688 64.226563 111.910156 C 66.003906 111.394531 69.328125 108.960938 69.953125 107.210938 Z M 59.011719 112.691406 C 59.351563 107.8125 57.226563 105.910156 57.226563 105.910156 C 57.226563 105.910156 57.101563 108.3125 56.101563 110.4375 C 55.101563 112.5625 49.726563 117.1875 45.351563 119.0625 C 40.976563 120.9375 37.34375 124.273438 37.824219 126.8125 C 38.304688 129.347656 40.476563 129.8125 42.226563 126.0625 C 43.976563 122.3125 44.878906 123.234375 45.160156 126.4375 C 45.476563 130.0625 40.976563 137.0625 38.226563 138.6875 C 35.476563 140.3125 34.792969 139.535156 36.394531 138.25 C 38.054688 136.917969 42.101563 132.4375 43.308594 130.226563 C 44.175781 128.636719 42.941406 128.472656 41.941406 129.347656 C 40.941406 130.222656 38.152344 132.132813 37.152344 130.007813 C 36.152344 127.882813 36.378906 123.070313 40.34375 120.558594 C 47.199219 116.21875 55.367188 113.578125 55.601563 106.4375 C 55.644531 105.066406 56.953125 102.769531 58.40625 104.695313 C 59.855469 106.621094 61.351563 112.3125 60.226563 115.4375 C 59.101563 118.5625 58.226563 118.714844 56.226563 117.8125 C 54.222656 116.910156 51.851563 118.8125 50.851563 120.9375 C 49.851563 123.0625 48.304688 122.570313 49.429688 120.070313 C 50.554688 117.570313 52.972656 114.695313 55.222656 115.445313 C 57.472656 116.195313 58.726563 116.816406 59.011719 112.691406 Z M 106.109375 234.921875 C 103.117188 235.496094 102.324219 236.011719 102.324219 236.011719 L 102.824219 237.910156 L 110.023438 236.410156 C 110.023438 236.410156 120.15625 239.632813 125.28125 242.757813 C 130.410156 245.878906 135.023438 249.410156 135.023438 249.410156 C 135.023438 249.410156 125.851563 246.378906 122.351563 248.003906 C 118.851563 249.628906 120.296875 251.628906 121.824219 250.609375 C 123.351563 249.59375 124.375 250.0625 123.75 251.6875 C 123.125 253.3125 122.472656 254.597656 127.460938 255.554688 C 136.601563 257.3125 138.496094 255.722656 140.121094 254.847656 C 141.746094 253.972656 144.046875 253.730469 146.296875 253.605469 C 148.546875 253.480469 151.976563 251.660156 153.101563 250.1875 C 155.023438 247.660156 154.445313 247.058594 150.667969 242.558594 C 148.042969 239.433594 146.785156 241.683594 148.738281 243.296875 C 150.6875 244.910156 153.523438 249.078125 149.523438 250.703125 C 145.523438 252.328125 139.316406 251.890625 137.355469 248.246094 C 135.394531 244.601563 133.003906 240.386719 129.628906 238.886719 C 126.253906 237.386719 125.367188 238.660156 127.742188 240.035156 C 130.117188 241.410156 128.742188 243.730469 126.476563 241.5625 C 124.210938 239.394531 117.285156 233.070313 112.285156 231.445313 C 107.285156 229.820313 105.523438 230.710938 105.523438 230.710938 L 105.238281 232.175781 C 105.238281 232.175781 106.363281 232.421875 107.351563 232.621094 C 108.339844 232.824219 109.105469 234.347656 106.109375 234.921875 Z M 136.097656 252.066406 L 139.324219 253.011719 C 139.324219 253.011719 137.101563 254.9375 133.476563 255.0625 C 129.851563 255.1875 125.476563 253.0625 125.476563 253.0625 L 126.125 249.210938 L 132.246094 250.515625 C 132.246094 250.515625 129.476563 252.3125 132.601563 253.3125 C 135.726563 254.3125 136.097656 252.066406 136.097656 252.066406 Z M 131.425781 242.410156 C 131.425781 242.410156 133.601563 244.0625 134.351563 245.8125 C 135.101563 247.5625 133.972656 246.816406 132.84375 245.820313 C 131.714844 244.824219 130.425781 244.109375 130.425781 244.109375 Z M 110.523438 232.609375 C 110.523438 232.609375 117.601563 235.6875 119.351563 236.8125 C 121.101563 237.9375 120.851563 238.4375 119.222656 237.566406 C 117.859375 236.839844 110.023438 234.511719 110.023438 234.511719 Z M 99.386719 254.0625 C 103.011719 251.6875 103.851563 251.3125 105.976563 251.5625 C 108.101563 251.8125 108.078125 253.253906 105.730469 253.496094 C 103.386719 253.742188 101.617188 254.660156 100.117188 255.660156 C 98.617188 256.660156 91.375 259.660156 88.851563 259.9375 C 86.324219 260.210938 86.46875 260.585938 89.21875 261.210938 C 91.96875 261.835938 94.359375 261.867188 96.609375 263.117188 C 98.859375 264.367188 97.113281 265.464844 93.367188 264.085938 C 86.527344 261.570313 79.207031 260.945313 73.859375 263.585938 C 71.933594 264.535156 69.40625 263.820313 72.507813 262.105469 C 75.972656 260.183594 81.40625 258.925781 85.476563 258.597656 C 89.550781 258.273438 95.761719 256.4375 99.386719 254.0625 Z M 112.921875 260.929688 C 113.8125 261.980469 117.226563 265.210938 117.226563 265.210938 C 117.226563 265.210938 121.675781 263.960938 123.425781 262.585938 C 125.175781 261.210938 127.363281 260.53125 132.101563 263.4375 C 139.847656 268.1875 145.492188 272.917969 150.476563 272.085938 C 152.726563 271.710938 152.898438 273.121094 151.523438 273.210938 C 143.789063 273.71875 140.601563 271.410156 131.527344 265.203125 C 129.152344 263.578125 126.261719 262.886719 124.351563 264.0625 C 122.441406 265.238281 117.023438 267.210938 117.023438 267.210938 C 117.023438 267.210938 111.976563 263.6875 111.101563 262.0625 C 110.226563 260.4375 109.734375 259.714844 109.734375 259.714844 C 109.734375 259.714844 107.238281 260.574219 106.164063 261.875 C 105.089844 263.175781 103.019531 261.816406 104.949219 260.617188 C 107.921875 258.769531 110.101563 257.1875 112.226563 256.4375 C 114.351563 255.6875 115.726563 257.359375 113.476563 258.1875 C 111.226563 259.011719 112.03125 259.878906 112.921875 260.929688 Z M 31.953125 232.402344 C 34.035156 233.316406 34.957031 233.277344 35.625 233.109375 C 36.292969 232.945313 35.160156 231.21875 34.359375 231.308594 C 33.207031 231.433594 30.246094 229.589844 29.230469 231.113281 C 28.210938 232.636719 27.726563 232.980469 25.726563 233.3125 C 23.726563 233.644531 23.125 235.820313 24.464844 237.722656 C 25.800781 239.625 26.324219 240.859375 26.207031 241.628906 C 26.09375 242.394531 27.140625 245.144531 29.308594 245.644531 C 31.476563 246.144531 32.304688 244.378906 30.390625 243.460938 C 28.472656 242.546875 26.988281 240.5625 28.214844 239.867188 C 29.445313 239.171875 31.304688 239.546875 32.554688 241.296875 C 33.804688 243.046875 34.492188 243.210938 35.058594 243.0625 C 35.625 242.910156 36.089844 242.027344 35.121094 241.457031 C 34.152344 240.886719 32.925781 239.195313 33.925781 238.609375 C 34.925781 238.027344 35.953125 238.472656 37.035156 238.804688 C 38.117188 239.140625 39.324219 238.609375 37.726563 237.3125 C 36.125 236.011719 34.796875 235.691406 33.546875 236.273438 C 32.296875 236.855469 31.394531 238.019531 30.34375 235.820313 C 29.296875 233.621094 29.871094 231.484375 31.953125 232.402344 Z M 26.523438 237.609375 C 26.523438 237.609375 25.359375 235.878906 27.023438 235.210938 C 28.691406 234.546875 28.726563 236.410156 28.726563 236.410156 Z M 142.929688 131.152344 C 147.285156 131.152344 150.816406 127.519531 150.816406 123.046875 C 150.816406 118.566406 147.285156 114.9375 142.929688 114.9375 C 138.570313 114.9375 135.039063 118.566406 135.039063 123.046875 C 135.039063 127.519531 138.570313 131.152344 142.929688 131.152344 Z M 143.027344 117.246094 C 146.261719 117.246094 148.882813 119.886719 148.882813 123.144531 C 148.882813 126.398438 146.261719 129.039063 143.027344 129.039063 C 139.796875 129.039063 137.171875 126.398438 137.171875 123.144531 C 137.171875 119.886719 139.796875 117.246094 143.027344 117.246094 Z M 221.175781 124.355469 C 229.363281 130.25 240.152344 139.136719 250.796875 152.722656 C 265.851563 171.9375 272.96875 205.90625 268.621094 229.566406 C 265.101563 248.730469 255.808594 264.328125 246.742188 277.363281 C 244.742188 280.238281 231.5 296.984375 229.125 299.609375 C 226.75 302.234375 213.601563 315.3125 211.976563 316.6875 C 210.351563 318.0625 208.726563 319.511719 208.726563 319.511719 L 207.726563 319.011719 C 207.726563 319.011719 208.976563 317.4375 210.226563 316.4375 C 211.476563 315.4375 222.210938 304.734375 225.558594 301.390625 C 229.035156 297.910156 241.789063 282.101563 244.144531 278.527344 C 268.039063 242.28125 270.011719 226.492188 266.753906 197.183594 C 263.742188 170.082031 247.757813 145.714844 220.109375 125.488281 C 216.972656 123.191406 215.625 122.210938 215.625 122.210938 L 215.625 121.011719 C 215.625 121.011719 219.523438 123.167969 221.175781 124.355469 Z M 235.226563 124.746094 C 233.230469 123.679688 232.726563 125.1875 234.226563 126.6875 C 235.726563 128.1875 238.507813 128.285156 239.257813 127.160156 C 240.007813 126.035156 240.976563 125.824219 242.601563 126.699219 C 244.226563 127.574219 245.6875 125.070313 245.6875 122.820313 C 245.6875 120.570313 247.617188 118.546875 249.742188 118.921875 C 251.867188 119.296875 252.296875 118.167969 251.296875 115.542969 C 250.296875 112.917969 248.398438 115.160156 249.226563 116.210938 C 250.050781 117.261719 247.894531 117.328125 246.527344 115.066406 C 245.164063 112.800781 242.101563 114.0625 244.226563 116.3125 C 246.351563 118.5625 243.730469 119.558594 241.230469 117.433594 C 239.140625 115.65625 235.851563 118.3125 237.726563 121.4375 C 239.601563 124.5625 237.15625 125.773438 235.226563 124.746094 Z M 241.851563 120.3125 C 243.769531 121.589844 244.175781 122.910156 243.425781 123.910156 C 242.675781 124.910156 241.488281 124.371094 240.613281 122.496094 C 239.738281 120.621094 241.101563 119.8125 241.851563 120.3125 Z M 284.585938 193.066406 C 284.058594 190.707031 285.101563 189.1875 286.226563 191.5625 C 287.351563 193.9375 290.738281 193.671875 290.914063 190.445313 C 291.089844 187.222656 294.027344 186.4375 293.058594 189.820313 C 292.085938 193.210938 291.9375 194.714844 294.117188 193.8125 C 296.300781 192.90625 298.601563 191.8125 298.601563 190.1875 C 298.601563 188.5625 301.476563 189.8125 300.226563 192.5625 C 298.976563 195.3125 295.824219 194.910156 295.824219 194.910156 C 295.824219 194.910156 293.8125 198.429688 291.972656 197.433594 C 290.136719 196.441406 287.980469 195.890625 287.980469 195.890625 C 287.980469 195.890625 287.652344 197.789063 284.601563 198.9375 C 281.472656 200.113281 279.273438 197.359375 279.601563 195.6875 C 279.925781 194.011719 280.652344 193.65625 281.304688 194.804688 C 283.707031 199.007813 285.324219 196.394531 284.585938 193.066406 Z M 179.167969 378.558594 C 180.191406 380.40625 178.863281 381.328125 177.59375 379.460938 C 176.324219 377.59375 176.6875 374.628906 176.6875 374.628906 C 176.6875 374.628906 175.664063 374.007813 175.714844 372.058594 C 175.761719 370.105469 175.21875 370.480469 173.710938 371.085938 C 172.203125 371.691406 171.226563 371.109375 171.226563 371.109375 C 171.226563 371.109375 170.078125 375.628906 172.101563 374.402344 C 174.128906 373.179688 175.835938 373.441406 173.460938 375.316406 C 171.085938 377.191406 168.476563 374.5625 169.226563 371.6875 C 169.523438 370.539063 170.332031 369.558594 170.332031 369.558594 C 170.332031 369.558594 168.882813 366.902344 170.382813 365.027344 C 171.882813 363.152344 172.191406 364.050781 171.78125 365.308594 C 170.613281 368.886719 173.125 371.871094 174.960938 368.203125 C 175.960938 366.203125 178.714844 366.417969 177.191406 369.816406 C 175.664063 373.21875 178.414063 374.1875 180.539063 372.4375 C 182.664063 370.6875 184.515625 373.714844 181.476563 374.3125 C 178.433594 374.910156 178.144531 376.707031 179.167969 378.558594 "/>
</g>
</svg>
