<?xml version="1.0" encoding="UTF-8"?>
<svg xmlns="http://www.w3.org/2000/svg" xmlns:xlink="http://www.w3.org/1999/xlink" width="476pt" height="411pt" viewBox="0 0 476 411" version="1.1">
<g id="surface1">
<path style=" stroke:none;fill-rule:nonzero;fill:rgb(0%,0%,0%);fill-opacity:1;" d="M 459.0625 152.722656 C 450.039063 138.421875 445.199219 122.578125 438.378906 107.398438 C 446.519531 93.980469 449.820313 76.820313 443.660156 61.421875 C 439.480469 53.28125 431.339844 46.019531 421.660156 46.679688 C 411.320313 49.980469 405.820313 60.980469 403.179688 70.4375 C 387.339844 55.039063 369.078125 36.121094 347.738281 27.539063 C 329.699219 19.839844 311.4375 13.238281 292.300781 8.621094 C 218.160156 -12.941406 136.761719 4.222656 80 53.5 C 36.441406 90.238281 0.140625 134.679688 1.238281 192.320313 C 0.140625 228.179688 17.519531 256.339844 31.820313 285.820313 C 69 341.699219 125.539063 390.539063 189.339844 405.71875 C 244.121094 418.039063 308.359375 410.5625 350.820313 369.199219 C 379.859375 341.261719 392.179688 300.121094 380.960938 262.0625 L 384.699219 238.738281 C 390.859375 244.019531 395.699219 251.0625 400.539063 257.222656 C 402.078125 249.300781 397.902344 241.378906 397.902344 234.121094 C 402.738281 238.078125 408.460938 244.238281 411.539063 249.300781 L 412.640625 249.300781 C 413.519531 213.222656 364.238281 211.460938 358.738281 179.121094 C 357.199219 170.539063 360.9375 162.621094 365.5625 156.019531 C 387.5625 137.980469 408.902344 163.058594 428.480469 171.199219 C 443.660156 179.339844 457.960938 189.679688 473.359375 197.160156 C 474.460938 196.28125 474.902344 195.179688 474.902344 193.859375 Z M 363.578125 313.320313 C 347.738281 357.097656 300.21875 380.421875 256.878906 385.480469 C 181.640625 388.5625 112.339844 344.78125 64.160156 281.640625 C 39.519531 247.761719 24.558594 201.339844 39.738281 159.539063 L 52.058594 138.421875 C 56.679688 148.761719 62.839844 159.980469 71.417969 168.558594 C 77.800781 174.5 84.179688 178.460938 91 181.761719 C 83.960938 198.039063 76.699219 214.761719 76.261719 233.019531 L 77.800781 234.121094 C 111.019531 231.261719 144.679688 230.160156 179.660156 234.121094 C 191.539063 234.78125 201.660156 241.820313 207.160156 251.9375 C 209.140625 258.320313 207.820313 265.578125 210.460938 271.519531 C 217.941406 267.121094 217.71875 257.660156 216.621094 249.960938 C 222.5625 251.5 228.71875 254.140625 229.820313 260.960938 C 230.039063 262.28125 229.601563 263.601563 230.921875 264.261719 C 234.441406 263.601563 235.101563 258.980469 236.859375 256.339844 C 238.621094 250.621094 234 246.4375 231.578125 242.039063 C 236.421875 240.722656 241.039063 245.339844 244.777344 249.300781 C 246.101563 252.601563 248.078125 255.679688 250.5 258.320313 C 254.460938 256.5625 255.121094 252.378906 256.878906 249.300781 C 264.578125 257.660156 273.820313 266.679688 284.820313 268.878906 C 285.480469 268.222656 286.359375 268.222656 287.019531 267.339844 L 287.019531 265.800781 C 280.421875 257.660156 269.640625 249.519531 273.160156 237.199219 C 276.019531 230.820313 280.859375 224.878906 287.898438 223.5625 C 315.179688 217.839844 340.699219 235.878906 356.101563 257.222656 C 367.320313 272.398438 370.621094 295.28125 363.578125 313.320313 Z M 374.140625 254.578125 C 354.5625 226.199219 323.761719 206.179688 289 209.699219 C 274.261719 210.578125 260.839844 222.898438 255.339844 236.101563 L 254.679688 239.398438 C 226.300781 216.519531 190.441406 211.898438 153.921875 208.820313 C 178.121094 197.160156 211.339844 179.78125 213.101563 148.980469 C 250.277344 146.558594 292.300781 147.222656 327.0625 160.640625 C 323.320313 168.121094 319.578125 175.378906 316.0625 182.859375 C 343.5625 196.9375 376.5625 218.5 374.140625 254.578125 Z M 367.101563 86.28125 C 360.722656 86.058594 354.5625 89.800781 351.921875 95.300781 C 348.179688 110.261719 358.738281 122.140625 365.5625 134.238281 C 329.863281 101.757813 352.757813 84.757813 361.820313 82.980469 C 384.558594 78.523438 395.085938 109.019531 395.699219 124.339844 C 387.21875 108.292969 386.460938 88.921875 367.101563 86.28125 Z M 411.539063 139.078125 C 408.238281 138.859375 403.179688 139.519531 400.539063 136.4375 C 398.121094 134.898438 399 131.820313 398.339844 129.621094 C 403.179688 126.539063 415.722656 123.019531 415.722656 132.699219 C 416.820313 136 414.402344 138.859375 411.539063 139.078125 "/>
</g>
</svg>
