<?xml version="1.0" encoding="UTF-8"?>
<svg xmlns="http://www.w3.org/2000/svg" xmlns:xlink="http://www.w3.org/1999/xlink" width="566pt" height="547pt" viewBox="0 0 566 547" version="1.1">
<g id="surface1">
<path style=" stroke:none;fill-rule:nonzero;fill:rgb(0%,0%,0%);fill-opacity:1;" d="M 556.355469 526.28125 C 552.289063 526.292969 547.59375 526.441406 544.164063 525.332031 C 541.347656 526.515625 539.003906 527.691406 536.335938 526 C 533.289063 524.070313 530.964844 525.113281 526.953125 526.953125 C 525.554688 522.550781 520.554688 523.652344 517.355469 524.050781 C 512.554688 519.453125 506.355469 524.953125 500.953125 523.152344 C 502.136719 521.792969 504.851563 521.65625 506.445313 520.804688 C 508.65625 519.621094 509.382813 517.398438 504.296875 517.074219 C 499.234375 516.75 493.375 516.890625 488.925781 514.550781 C 482.285156 511.066406 475.175781 516.289063 469.667969 512.128906 C 469.667969 512.128906 476.605469 510.191406 479.769531 508.847656 C 479.792969 507.691406 480.042969 504.253906 478.605469 504.191406 C 479.257813 502.515625 480.730469 500.128906 480.792969 498.253906 C 472.105469 492.941406 463.144531 489.511719 454.265625 485.949219 C 453.691406 485.722656 449.261719 483.824219 447.355469 483.777344 C 444.371094 483.707031 441.578125 483.816406 441.855469 479.816406 C 442.097656 476.34375 440.152344 474.414063 438.378906 473.804688 C 439.105469 472.878906 440.230469 471.503906 439.554688 470.351563 L 527.675781 440.894531 L 527.917969 436.191406 C 528.570313 435.847656 529.667969 435.316406 530.253906 434.851563 C 531.894531 348.027344 532.25 244.714844 486.355469 141.085938 C 487.777344 136.164063 490.855469 128.585938 488.855469 125.585938 C 494.253906 119.785156 498.882813 126.9375 505.753906 124.753906 L 504.628906 120.667969 L 509.15625 117.054688 C 506.152344 116.195313 503.074219 115.558594 500.363281 114.066406 C 487.34375 106.898438 492.523438 119.265625 486.40625 124.058594 C 486.40625 124.058594 359.386719 30.871094 353.742188 26.394531 C 350.785156 24.046875 348.085938 21.417969 345.953125 18.152344 C 346.15625 15.652344 348.855469 13.351563 351.753906 14.351563 C 353.355469 12.703125 355.503906 12.300781 357.730469 12.089844 C 360.433594 11.832031 366.828125 11.910156 367.054688 7.652344 C 364.15625 7.351563 361.554688 6.453125 359.355469 4.253906 C 355.355469 5.851563 353.855469 -0.148438 350.253906 0.851563 C 348.253906 6.550781 345.753906 11.953125 342.554688 17.253906 C 284.304688 144.867188 112.855469 355.753906 9.453125 452.550781 C 7.179688 452.390625 3.183594 451.828125 2.121094 452.253906 C -0.921875 453.476563 -0.410156 459.453125 3.730469 459.175781 C 4.457031 459.128906 5.089844 459.183594 5.464844 460.238281 C 5.941406 461.589844 6.71875 463.265625 10.453125 463.152344 C 28.457031 485.53125 54.15625 508.839844 83.355469 526.953125 C 82.15625 528.253906 81.753906 529.851563 81.953125 531.753906 C 83.15625 535.453125 85.753906 530.652344 87.753906 532.253906 C 87.300781 532.480469 86.847656 533.136719 86.308594 533.722656 C 85.566406 534.539063 85.859375 535.523438 87.605469 535.378906 C 100.351563 534.34375 112.839844 536.339844 125.15625 537.550781 C 129.109375 532.609375 133.878906 537.238281 138.230469 536.78125 C 139.992188 536.597656 141.078125 536.167969 140.769531 537.511719 C 140.0625 540.605469 144.09375 541.574219 146.515625 540.0625 C 146.960938 539.785156 148.246094 539.914063 148.207031 540.511719 C 147.867188 545.96875 155.617188 540.339844 160.585938 544.363281 C 163.035156 546.351563 164.738281 546.394531 167.757813 544.546875 C 169.652344 543.386719 170.789063 542.28125 172.289063 544.96875 C 174.132813 548.273438 177.738281 547.171875 182.351563 544.53125 C 192.648438 538.640625 207.21875 542.734375 218.699219 540.941406 C 222.941406 540.28125 227.304688 540.011719 231.730469 539.847656 C 244.058594 539.386719 253.628906 540.132813 258.15625 536.699219 C 265.535156 531.101563 272.820313 540.578125 281.15625 536.550781 C 282.351563 538.730469 284.351563 538.714844 286.492188 538.3125 C 289.496094 537.746094 292.558594 538.210938 294.058594 539.125 C 306.796875 546.878906 323.367188 542.449219 338.253906 545.652344 C 341.609375 541.96875 347.175781 543.511719 351.992188 543.316406 C 353.707031 543.246094 356.203125 542.789063 351.753906 540.851563 C 356.554688 539.453125 362.554688 540.453125 367.554688 539.453125 C 370.074219 542.832031 373.609375 541.871094 377.214844 541.066406 C 381.148438 540.191406 381.757813 539.933594 385.210938 541.664063 C 390.929688 544.519531 397.554688 541.230469 402.554688 538.453125 C 405.632813 540.257813 414.058594 542.648438 414.117188 538.691406 C 414.183594 534.023438 417.425781 541.0625 420.613281 537.761719 C 422.628906 535.683594 422.078125 537.964844 424.011719 539.046875 C 426.679688 540.539063 432.097656 540.144531 436.15625 537.550781 C 441.855469 540.253906 448.730469 540.003906 455.855469 538.953125 C 458.0625 542.269531 463.347656 540.667969 465.371094 539.53125 C 467.914063 538.101563 470.730469 538.414063 473.566406 538.871094 C 480.132813 539.9375 483.332031 539.351563 485.316406 536.179688 C 488.550781 531.015625 496.320313 535.523438 500.828125 532.710938 C 503.535156 531.023438 507.871094 531.054688 512.855469 532 C 524.089844 534.136719 525.640625 536.042969 532.5 532.667969 C 534.328125 531.765625 536.128906 531.800781 537.378906 532.902344 C 541.058594 536.136719 541.851563 534.472656 544.21875 532.984375 C 548.476563 530.316406 553.550781 532.789063 558.230469 532.761719 C 568.347656 532.703125 567.945313 526.25 556.355469 526.28125 Z M 476.953125 507.753906 C 464.953125 511.351563 452.753906 514.253906 440.054688 515.953125 L 440.5 514.582031 C 452.5 512.183594 465.253906 509.851563 476.953125 506.851563 Z M 374.269531 517.667969 C 374.9375 513.585938 375.605469 509.335938 376.269531 505.003906 C 379.246094 505.003906 378.769531 501.480469 377.757813 500.769531 C 376.867188 500.140625 375.9375 499.667969 374.753906 499.152344 L 377.15625 492.851563 L 405.953125 496.753906 C 405.617188 499.039063 405.136719 501.445313 404.996094 503.667969 C 404.828125 506.28125 407.691406 506.351563 408.847656 505.394531 C 409.539063 504.816406 409.824219 505.035156 410.113281 505.75 C 411.742188 509.792969 417.144531 509.113281 418.078125 506.257813 C 418.609375 504.640625 418.78125 502.570313 418.953125 501.050781 C 420.753906 501.050781 420.753906 502.753906 421.355469 503.953125 L 427.554688 507.253906 L 427.054688 513.550781 C 409.953125 516.453125 392.671875 517.667969 374.269531 517.667969 Z M 422.835938 517.582031 L 422.75 519.082031 L 410.664063 520.417969 L 410.664063 519.082031 Z M 408.835938 519.167969 L 408.835938 520.5 L 395.585938 521.5 L 395.414063 520.082031 Z M 393.453125 520.253906 L 393.414063 521.582031 L 380.75 522.082031 L 380.664063 520.832031 Z M 277.355469 510.652344 C 277.6875 506.917969 278.101563 503.996094 278.753906 499.652344 C 309.253906 504.253906 341.253906 506.652344 373.753906 504.851563 L 371.855469 517.351563 C 339.554688 519.453125 308.253906 514.351563 277.355469 510.652344 Z M 370.585938 521 L 370.585938 522.332031 L 365.914063 522.167969 L 365.835938 521.082031 Z M 363.769531 520.917969 L 363.753906 522.152344 L 349.335938 522.152344 L 349.355469 520.753906 C 354.15625 520.851563 359.082031 520.746094 363.769531 520.917969 Z M 346.953125 520.753906 L 346.953125 522.152344 C 342.578125 522.1875 337.828125 521.660156 332.953125 521.230469 L 332.953125 519.753906 Z M 330.554688 519.753906 L 330.554688 521.253906 L 317.15625 520.253906 L 317.078125 518.878906 Z M 314.753906 518.351563 L 314.753906 519.753906 L 297.855469 517.917969 L 297.914063 516.667969 Z M 295.5 516.25 L 295.5 517.667969 L 279.753906 515.453125 L 279.753906 514.050781 C 285.242188 514.949219 295.5 516.25 295.5 516.25 Z M 245.195313 497.503906 C 245.226563 499.445313 245.671875 501.402344 243.671875 501.714844 C 240.625 502.1875 238.886719 500.878906 235.839844 498.320313 C 233.03125 495.964844 227.855469 495.253906 227.855469 495.253906 C 230.082031 494.617188 230.726563 492.269531 230.796875 489.878906 C 230.910156 486.074219 226.179688 486.238281 224.894531 488.09375 C 223.980469 489.414063 223.84375 491.082031 224.054688 492.851563 C 219.253906 494.953125 212.253906 490.351563 208.65625 496.753906 L 206.253906 496.753906 C 208.054688 491.652344 208.554688 486.152344 209.65625 480.851563 C 226.65625 482.652344 241.355469 490.152344 257.15625 494.851563 C 258.355469 499.453125 252.855469 497.953125 251.355469 501.050781 C 250.945313 500.238281 251.601563 498.867188 251.875 497.382813 C 252.773438 492.484375 245.113281 491.804688 245.195313 497.503906 Z M 242.753906 508.753906 L 241.753906 508.753906 L 242.253906 507.253906 C 242.855469 507.550781 242.753906 508.253906 242.753906 508.753906 Z M 220.65625 504.453125 L 220.15625 502.953125 L 221.15625 502.953125 C 221.15625 503.453125 221.253906 504.152344 220.65625 504.453125 Z M 196.15625 477.050781 L 198.15625 472.253906 C 200.917969 473.441406 203.65625 474.851563 207.253906 474.152344 C 206.828125 476.132813 205.96875 479.230469 204.863281 479.707031 C 203.589844 480.253906 198.128906 479.519531 196.15625 477.050781 Z M 203.355469 499.652344 L 201.953125 499.652344 L 202.953125 498.652344 C 203.292969 498.566406 203.730469 499.316406 203.355469 499.652344 Z M 186.730469 492.066406 L 189.453125 484.753906 L 190.953125 484.753906 L 188.054688 492.453125 Z M 187.167969 495.253906 L 186.917969 496.128906 L 185.355469 495.691406 L 185.65625 494.851563 Z M 190.453125 482.851563 L 191.542969 479.941406 L 192.855469 479.953125 L 191.480469 482.878906 Z M 192.355469 477.050781 L 195.253906 470.851563 C 195.855469 472.253906 194.5625 474.824219 193.753906 477.050781 Z M 193.59375 470.621094 C 190.164063 477.402344 187.835938 484.945313 184.917969 491.816406 L 183.480469 491.378906 C 183.480469 491.378906 191.578125 470.144531 192.734375 468.695313 C 193.828125 467.328125 196.628906 466.507813 196.820313 467.421875 C 196.980469 468.164063 196.421875 468.433594 195.773438 468.636719 C 194.21875 469.117188 194.160156 469.5 193.59375 470.621094 Z M 148.15625 482.351563 C 147.96875 478.722656 152.546875 474.746094 150.683594 471.148438 C 149.199219 468.28125 151.371094 469.105469 151.371094 469.105469 L 157.355469 470.351563 C 156.855469 474.753906 156.390625 480.226563 154.792969 484.128906 C 152.78125 483.605469 150.234375 482.671875 148.15625 482.351563 Z M 153.953125 486.652344 C 153.605469 488.003906 149.292969 486.378906 146.753906 485.652344 L 147.253906 484.753906 C 149.667969 485.441406 151.65625 486.050781 153.953125 486.652344 Z M 154.953125 467.453125 C 154.234375 467.675781 152.753906 467.425781 151.542969 467.128906 C 147.71875 466.179688 148.242188 469.414063 148.875 472.109375 C 149.6875 475.5625 148.160156 477.949219 145.535156 477.605469 C 144.042969 477.410156 142.855469 476.019531 141.453125 474.652344 L 129.855469 471.878906 L 140.054688 451.152344 L 160.65625 454.453125 C 158.417969 459.253906 156.605469 463.253906 154.953125 467.453125 Z M 146.253906 479.953125 L 146.253906 481.351563 L 143.355469 480.851563 C 144.15625 479.953125 145.417969 479.941406 146.253906 479.953125 Z M 64.1875 418.003906 C 57.777344 423.90625 52.75 428.835938 45.667969 434.75 C 45.238281 434.289063 44.53125 433.394531 44.53125 433.394531 L 62.753906 416.554688 C 63.1875 417.167969 63.621094 417.640625 64.1875 418.003906 Z M 64.15625 415.152344 L 80.554688 398.351563 L 81.953125 399.753906 L 65.65625 416.554688 Z M 44.773438 435.585938 L 24.855469 453.550781 L 23.355469 453.550781 C 29.253906 446.851563 36.765625 440.617188 43.667969 434.414063 Z M 167.316406 305.972656 C 218.566406 243.328125 261.105469 180.503906 312.355469 107.953125 C 307.90625 145.476563 308.617188 184.71875 305.171875 222.78125 C 299.445313 286.101563 265.949219 392.683594 242.753906 453.050781 C 231.609375 454.613281 204.554688 457.050781 185.15625 457.851563 C 138.253906 439.953125 78.355469 451.351563 27.253906 453.550781 C 66.605469 420.503906 111.554688 374.128906 167.316406 305.972656 Z M 81.953125 396.851563 L 97.355469 380.554688 L 98.753906 382.054688 C 93.953125 387.652344 89.332031 392.414063 83.167969 398.25 Z M 98.832031 379.085938 L 113.65625 362.851563 L 114.664063 364.75 L 100.164063 380.585938 Z M 115.210938 361.191406 L 129.042969 345.191406 L 130.144531 346.648438 L 116.230469 363.066406 Z M 130.519531 343.253906 L 144.355469 327.253906 L 145.519531 328.503906 L 131.605469 344.917969 Z M 145.664063 326.085938 L 158.5 310.25 L 159.75 311.414063 L 146.753906 327.253906 Z M 160.15625 308.554688 L 172.65625 292.253906 L 174.335938 293.75 L 161.5 309.75 Z M 174.5 290.5 L 186.554688 274.953125 L 187.914063 276.25 L 175.75 291.585938 Z M 200.835938 259.335938 L 189.335938 274.414063 L 188.054688 273.554688 L 199.554688 258.152344 Z M 200.554688 256.753906 L 212.054688 242.351563 L 212.953125 243.253906 C 208.75 249.164063 206.148438 252.765625 201.75 258 Z M 213.453125 239.953125 C 217.054688 234.652344 225.335938 224.75 225.335938 224.75 L 226.25 225.835938 L 214.453125 241.351563 Z M 226.453125 222.652344 C 230.9375 216.667969 234.1875 212.59375 238.453125 207.253906 L 239.085938 208 C 234.648438 214.164063 232.589844 217.753906 227.25 223.664063 Z M 239.355469 205.851563 L 248.585938 193.25 L 249.5 193.914063 C 249.5 193.914063 242.789063 202.890625 239.855469 206.351563 Z M 250.75 189.664063 L 260.355469 176.167969 L 260.953125 176.554688 L 251.355469 190.453125 Z M 262.835938 172.414063 C 262.835938 172.414063 269.53125 162.863281 272.054688 159.253906 L 272.9375 159.667969 L 263.414063 172.75 Z M 274.1875 156.472656 L 282.554688 143.453125 L 284.054688 143.453125 L 274.835938 156.835938 Z M 334.335938 64.925781 C 334.667969 64.621094 334.816406 64.929688 334.734375 65.210938 C 334.246094 66.9375 333.480469 67.339844 332.054688 68.050781 C 332 66.976563 333.464844 65.71875 334.335938 64.925781 Z M 333.855469 59.378906 C 334.363281 59.546875 335.730469 61.027344 335.542969 61.941406 C 335.355469 62.851563 335.167969 62.753906 334.984375 62.1875 C 334.796875 61.625 333.980469 60.253906 333.542969 59.941406 C 333.105469 59.628906 333.347656 59.210938 333.855469 59.378906 Z M 335.105469 92.378906 C 336.46875 88.953125 341.554688 65.253906 344.554688 51.753906 C 375.582031 119.230469 387.164063 194.609375 400.738281 269.179688 C 409.109375 315.179688 418.453125 374.351563 417.453125 454.953125 C 372.601563 453.46875 327.167969 457.003906 284.054688 461.003906 C 289.863281 427.652344 337.292969 218.003906 335.105469 92.378906 Z M 474.542969 193.066406 L 474.125 195.1875 L 473.125 195.3125 L 473.574219 192.96875 Z M 474.0625 191.1875 L 474.375 188.375 L 475.5625 190.1875 Z M 474.15625 196.753906 C 473.871094 200.933594 472.78125 204.898438 471.375 208.9375 C 471.25 208.25 469.753906 207.753906 469.753906 207.753906 L 472.65625 196.753906 Z M 459.6875 241.875 L 463.5 230.3125 C 463.5 230.3125 464.25 230.6875 465 230.5 C 463.375 235.25 462.125 238.5 460.65625 242.351563 Z M 460.15625 246.152344 L 456.355469 258.152344 L 455.355469 258.152344 C 456.5 253.8125 457.355469 250.054688 458.753906 246.152344 Z M 464.625 228.976563 C 464.03125 228.96875 463.390625 228.722656 463.695313 228.160156 C 464.234375 227.171875 465.050781 227.226563 465.359375 227.746094 C 465.679688 228.285156 465.410156 228.980469 464.625 228.976563 Z M 464.417969 225.003906 C 465.558594 221.320313 467.0625 217.3125 468.125 213.5625 C 468.875 213.375 469.6875 213.375 470.5625 213 L 466.453125 226.453125 C 465.8125 225.5 465.375 225.25 464.417969 225.003906 Z M 468.855469 211.652344 L 469.355469 209.652344 C 470.828125 210.570313 470.675781 211.652344 468.855469 211.652344 Z M 470.613281 182.070313 C 470.367188 184.550781 469.375 188.375 468.113281 189.789063 C 466.671875 191.664063 466.628906 193.535156 466.4375 194.992188 C 465.828125 199.570313 464.632813 203.917969 462.972656 207.105469 C 459.375 209.4375 462.15625 212.054688 462.15625 212.054688 L 458.253906 224.554688 C 455.585938 224.554688 454.574219 227.3125 456.875 229 C 455.3125 234.3125 454.125 237.3125 452.875 240.9375 C 451.5 241.125 449.714844 243.34375 451.554688 244.753906 C 450.1875 248.8125 449.5625 252.625 447.75 256.75 C 445.210938 257.457031 445.703125 259.351563 446.753906 260.554688 L 441.953125 273.554688 C 441.082031 273.375 440.226563 273.296875 439.597656 273.773438 C 437.992188 274.992188 440.953125 277.351563 440.953125 277.351563 L 435.753906 291.253906 C 432.3125 291.3125 434.753906 294.152344 434.753906 294.152344 C 432.875 299.125 431.1875 304.0625 429.4375 308.5 C 427.75 309.375 427.519531 311.203125 428.125 312.0625 C 426.8125 316.4375 424.8125 321.9375 423.253906 326.851563 C 421.367188 327.074219 421.3125 328.6875 422.355469 329.941406 C 421.199219 332.640625 416.054688 346.453125 416.054688 346.453125 L 410.871094 310.699219 C 410.871094 310.699219 470.15625 182.097656 470.257813 181.863281 C 470.457031 181.410156 470.691406 181.441406 470.613281 182.070313 Z M 455.292969 261.066406 C 453.648438 266.644531 451.667969 272.128906 450.554688 275.453125 L 449.25 275.5625 C 450.4375 271.0625 452.5625 265.6875 454.453125 261.054688 Z M 438.15625 310.054688 C 438.253906 304.753906 441.542969 298.128906 442.953125 294.152344 L 443.855469 294.152344 C 442.953125 299.953125 440.753906 305.453125 438.15625 310.054688 Z M 439.128906 312.867188 L 433.355469 326.851563 L 432.167969 326.441406 L 437.15625 311.953125 Z M 443.355469 291.753906 L 448.15625 278.351563 L 449.15625 278.351563 C 448.753906 283.054688 446.054688 288.453125 444.355469 292.753906 Z M 431.855469 330.152344 L 425.65625 348.851563 L 424.65625 348.851563 C 425.480469 343.691406 429.480469 332.878906 430.953125 330.152344 Z M 424.15625 352.753906 C 424.15625 352.753906 419.890625 364.652344 418.839844 367.5625 C 418.296875 369.066406 418.0625 368.632813 418.28125 367.3125 C 419.109375 362.382813 421.144531 357.390625 423.253906 352.753906 Z M 394.542969 457.441406 L 394.453125 457.851563 L 392.054688 457.851563 L 392.230469 457.441406 Z M 385.753906 479.453125 L 380.554688 481.351563 C 381.75 476.25 383 470.417969 384.855469 465.050781 L 387.753906 465.050781 L 384.855469 478.050781 C 385.15625 478.453125 385.753906 479.453125 385.753906 479.453125 Z M 422.355469 493.417969 C 422.421875 491.695313 422.53125 489.464844 423.882813 488.273438 C 425.199219 487.113281 429.351563 488.707031 430.953125 490.953125 L 429.953125 496.753906 C 427.15625 496.753906 424.65625 494.617188 422.355469 493.417969 Z M 428.054688 500.050781 L 428.054688 504.851563 L 427.054688 504.851563 L 427.054688 500.050781 Z M 425.15625 499.152344 C 425.019531 500.667969 424.648438 502.066406 424.65625 503.453125 C 424.160156 503.433594 423.269531 502.917969 422.855469 502.691406 C 423.105469 501.667969 423.105469 499.753906 423.253906 498.152344 C 423.9375 498.335938 424.554688 498.652344 425.15625 499.152344 Z M 430.453125 476.050781 C 430.453125 479.953125 428.855469 483.152344 427.054688 486.152344 C 423.628906 485.183594 422.53125 485.636719 421.9375 486.585938 C 421.324219 487.570313 420.582031 491.59375 420.355469 492.453125 C 416.011719 490.898438 412.269531 488.417969 407.355469 489.167969 C 407.269531 490.085938 406.789063 491.085938 406.605469 492.003906 L 385.753906 488.550781 C 401.21875 483.363281 416.730469 478.195313 432.09375 473.007813 C 432.855469 472.753906 432.972656 474.367188 432.4375 474.710938 C 431.832031 475.101563 430.933594 475.308594 430.453125 476.050781 Z M 420.332031 498.246094 C 420.898438 498.199219 420.835938 499.152344 420.835938 499.152344 L 418.953125 499.152344 C 419.4375 498.585938 419.761719 498.296875 420.332031 498.246094 Z M 419.855469 497.253906 L 419.855469 494.351563 C 421.355469 495.753906 419.855469 497.253906 419.855469 497.253906 Z M 417.039063 496 C 417.058594 498.957031 416.710938 503.316406 416.019531 506.253906 C 415.878906 506.859375 415.511719 506.917969 415.503906 506.273438 C 415.496094 503.476563 415.789063 498.894531 416.449219 495.855469 C 416.710938 494.648438 417.03125 494.753906 417.039063 496 Z M 414.554688 493.851563 L 413.15625 506.351563 C 412.398438 505.8125 412.167969 504.722656 411.738281 503.765625 C 410.144531 500.222656 406.949219 503.953125 406.949219 503.953125 L 408.351563 491.453125 C 410.855469 491.351563 413.1875 492.335938 414.554688 493.851563 Z M 405.777344 494.113281 L 405.769531 494.753906 L 400.15625 493.851563 L 400.355469 493.003906 Z M 398.253906 492.851563 C 398.019531 494.417969 389.6875 493.335938 390.15625 491.453125 Z M 386.753906 490.953125 L 386.753906 491.953125 C 384.6875 491.753906 381.984375 491.480469 380.1875 491.082031 C 379.535156 490.9375 380.449219 489.816406 381.269531 489.753906 C 383.015625 489.617188 385.042969 490.667969 386.753906 490.953125 Z M 386.542969 457.851563 L 386.792969 457.378906 L 389.667969 457.316406 L 389.355469 457.851563 Z M 234.089844 476.457031 C 231.808594 476.210938 231.742188 475.953125 234.023438 475.777344 C 245.210938 474.929688 255.578125 474.75 263.769531 473.667969 L 262.953125 477.550781 C 253.65625 477.550781 243.558594 477.472656 234.089844 476.457031 Z M 263.355469 492.851563 C 266.996094 493.570313 270.480469 494.546875 274.355469 495.335938 L 273.953125 496.753906 L 262.953125 494.351563 Z M 246.144531 453.148438 C 277.144531 366.050781 307.753906 276.554688 311.355469 178.054688 C 317.789063 156.566406 324.507813 133.726563 330.199219 112.082031 C 330.769531 109.914063 331.050781 110.035156 330.894531 112.234375 C 322.859375 225.425781 288.9375 364.351563 265.753906 462.652344 C 255.359375 463.785156 212.554688 468.453125 212.554688 468.453125 C 213.019531 466.417969 213.453125 464.253906 213.953125 462.152344 C 223.953125 461.351563 234.753906 460.152344 245.15625 459.253906 C 248.523438 458.476563 247.816406 454.792969 246.144531 453.148438 Z M 313.851563 114.503906 L 315.851563 103.503906 C 317.753906 107.253906 315.1875 112.417969 313.851563 114.503906 Z M 315.203125 147.65625 C 318.320313 148.125 317.222656 151.625 314 150.5 C 313.746094 150.410156 314.03125 147.480469 315.203125 147.65625 Z M 316.15625 152.054688 C 315.300781 157.433594 313.425781 162.300781 311.777344 167.28125 C 311.492188 168.132813 311.113281 168.132813 311.15625 167.171875 C 311.355469 162.566406 311.5 156.875 313.25 152.5625 C 314.0625 152.625 315 152.375 316.15625 152.054688 Z M 365.519531 491.503906 C 365.136719 492.648438 364.519531 494.167969 364.15625 495.253906 L 351.253906 490.453125 C 356.5 490.523438 360.519531 490.835938 365.519531 491.503906 Z M 349.753906 488.550781 L 349.753906 486.652344 L 359.355469 487.152344 L 359.355469 489.050781 Z M 361.753906 489.066406 L 361.6875 487.253906 C 363.289063 487.351563 365.085938 487.613281 366.6875 487.667969 C 366.4375 488.667969 366.1875 489.167969 366.019531 489.835938 C 364.820313 489.535156 363.269531 489.335938 361.753906 489.066406 Z M 331.605469 483.417969 C 333.722656 478.597656 335.34375 474.328125 337.855469 468.667969 C 349.253906 467.503906 361.855469 466.667969 373.355469 466.050781 L 367.554688 485.253906 Z M 280.519531 478.585938 C 281.074219 475.953125 281.1875 475.085938 281.519531 472.753906 C 298.820313 472.351563 316.949219 469.148438 334.25 468.75 L 327.753906 483.253906 Z M 305.15625 485.652344 L 303.253906 485.652344 L 303.253906 484.753906 C 303.953125 484.953125 304.65625 485.050781 305.15625 485.652344 Z M 267.253906 466.453125 L 267.253906 465.550781 C 271.65625 465.050781 276.253906 464.550781 280.65625 464.050781 L 280.65625 465.550781 Z M 312.925781 485.828125 C 323.914063 486.773438 331.394531 486.996094 338.613281 489.808594 C 339.550781 490.175781 339.496094 490.417969 338.523438 490.375 C 330.058594 489.992188 321.257813 489.71875 312.789063 486.417969 C 311.777344 486.023438 311.835938 485.734375 312.925781 485.828125 Z M 322.953125 491.453125 C 329.023438 491.9375 337.539063 492.222656 343.523438 492.925781 C 344.933594 493.09375 345.035156 493.71875 343.6875 493.753906 C 337.730469 493.894531 329.328125 493.179688 322.953125 492.851563 Z M 337.4375 486.167969 L 347.355469 486.652344 L 347.355469 488.417969 C 343.242188 488.25 340.621094 487.4375 337.4375 486.167969 Z M 336.792969 461.679688 C 318.390625 462.582031 301.253906 464.425781 283.355469 465.023438 L 283.542969 464.191406 C 301.855469 462.316406 319.15625 460.851563 337.753906 459.753906 Z M 281.65625 461.253906 C 279.351563 461.484375 272.003906 462.222656 267.753906 462.652344 C 289.324219 370.824219 327.003906 225.460938 332.808594 105 C 332.878906 103.574219 333.082031 103.550781 333.105469 105.003906 C 334.578125 195.738281 303.230469 361.253906 281.65625 461.253906 Z M 327.15625 100.675781 C 327.070313 100.324219 329.796875 91.054688 331.21875 86.261719 C 331.714844 84.582031 331.976563 85.367188 331.980469 86.335938 C 331.980469 92.089844 331.9375 98.0625 330.019531 102.753906 C 329.25 101.75 328 101.1875 327.15625 100.675781 Z M 247.980469 468.253906 C 245.859375 468.457031 245.863281 468.039063 247.914063 467.835938 C 252.535156 467.371094 261.957031 466.191406 264.855469 466.050781 L 264.855469 466.453125 C 264.855469 466.453125 253.441406 467.875 247.980469 468.253906 Z M 265.6875 473.753906 C 269.839844 473.363281 275.453125 473.167969 279.6875 472.753906 L 278.753906 478.453125 C 274.65625 478.351563 270.269531 478.167969 264.820313 477.648438 C 265.105469 476.335938 265.355469 475.003906 265.6875 473.753906 Z M 280.15625 480.851563 L 301.355469 482.851563 C 301.179688 485.175781 300.894531 487.085938 302.828125 487.242188 C 309.101563 487.757813 315.367188 487.589844 320.554688 490.953125 C 320.375 493.226563 320.023438 494.238281 321.75 494.398438 L 346.355469 495.667969 C 347.46875 495.761719 347.605469 491.71875 346.4375 491.585938 C 344.605469 491.21875 345.746094 490.707031 346.742188 491.085938 C 354.539063 493.867188 361.808594 496.832031 369.953125 500.050781 C 340.054688 501.050781 308.386719 498.96875 279.6875 494.167969 C 280.019531 491.917969 279.769531 490.753906 278.390625 490.253906 Z M 279.253906 496.253906 C 310.554688 501.050781 344.15625 502.953125 376.65625 502.050781 L 376.65625 502.453125 C 343.15625 505.253906 310.621094 502.167969 279.019531 497.667969 Z M 370.019531 489.003906 C 370.519531 487.417969 370.769531 486.085938 371.355469 484.753906 C 372.855469 485.050781 374.269531 485.335938 375.753906 485.652344 C 375.15625 487.050781 374.703125 488.757813 374.4375 489.753906 Z M 340.417969 461.378906 L 341.042969 459.941406 C 351.941406 458.640625 363.355469 458.363281 376.167969 457.878906 L 375.753906 458.851563 Z M 332.355469 72.003906 C 332.148438 76.273438 331.105469 79.863281 328.820313 82.472656 C 326.363281 85.277344 325.507813 84.585938 328.148438 81.707031 C 329.921875 79.773438 330.75 76.363281 331.605469 71.921875 C 332.007813 69.835938 332.460938 69.863281 332.355469 72.003906 Z M 326.753906 103.152344 C 327.625 103.4375 329.492188 103.660156 328.847656 106.175781 C 328.246094 108.519531 325.355469 107.953125 325.355469 107.953125 Z M 327.875 110.125 C 326.574219 115.726563 325.109375 120.433594 323.855469 125.652344 C 323.3125 124.3125 321.875 123.875 321.125 123.5625 C 321.75 119.6875 323.585938 114.402344 324.855469 110.351563 C 324.855469 110.351563 326.6875 110.6875 327.875 110.125 Z M 320.554688 94.953125 C 319.605469 91.753906 320.355469 89.953125 322.453125 88.253906 Z M 322.253906 126.386719 C 322.871094 126.75 323.164063 127.46875 322.945313 127.976563 C 322.300781 129.46875 319.914063 128.796875 319.898438 127.9375 C 319.878906 126.832031 321.109375 125.710938 322.253906 126.386719 Z M 322.757813 130.3125 C 321.4375 135.703125 319.4375 142.144531 318.125 146.75 C 317.25 145.5625 315.253906 145.351563 315.253906 145.351563 L 319.054688 130.453125 C 319.054688 130.453125 321.4375 130.75 322.757813 130.3125 Z M 316.65625 97.351563 C 315.6875 96.917969 312.25 96.332031 312.25 96.332031 L 315.253906 91.652344 C 317.65625 92.351563 316.855469 95.085938 316.65625 97.351563 Z M 315.105469 99.335938 L 306.664063 111.75 L 304.019531 110.417969 C 306.105469 106.417969 308.65625 102.453125 310.953125 98.351563 Z M 305.414063 113.332031 L 297.25 125.164063 L 295.554688 124.253906 L 302.832031 112.335938 Z M 296.554688 126.652344 L 285.75 141.164063 L 284.636719 140.464844 L 294.6875 125.335938 Z M 171.253906 477.050781 C 171.105469 473.628906 171.667969 468.253906 167.347656 466.691406 C 168.730469 463.253906 170.054688 459.753906 171.753906 456.851563 L 185.65625 460.253906 C 186.15625 461.453125 186.453125 463.253906 188.054688 463.652344 L 198.15625 462.652344 C 198.867188 464.882813 197.160156 465.007813 195.628906 465.222656 C 194.050781 465.445313 192.304688 466.222656 191.371094 467.703125 C 190.824219 468.570313 188.292969 474.003906 187.054688 477.050781 Z M 185.867188 480.019531 L 184.730469 482.378906 L 180.480469 482.191406 L 181.5 480 Z M 179.355469 479.953125 L 178.480469 482.253906 L 169.753906 482.351563 L 171.359375 479.957031 Z M 167.109375 459.789063 L 162.15625 458.351563 L 163.554688 454.953125 L 169.042969 456.253906 Z M 38.046875 454.679688 C 67.886719 451.730469 101.527344 451.347656 133.753906 451.152344 L 123.753906 470.851563 C 95.4375 465.035156 66.929688 459.871094 38.050781 455.371094 C 36.175781 455.078125 36.152344 454.867188 38.046875 454.679688 Z M 135.753906 451.152344 L 138.15625 451.152344 L 128.417969 471.691406 L 126.15625 471.253906 Z M 157.785156 467.289063 C 158.664063 464.90625 160.445313 460.246094 161.667969 459.878906 C 162.730469 460.066406 165.191406 460.753906 166.730469 461.378906 C 166.464844 462.445313 165.480469 464.441406 164.953125 466.050781 C 162.175781 465.324219 159.738281 465.898438 158.144531 467.480469 C 157.851563 467.769531 157.59375 467.804688 157.785156 467.289063 Z M 159.753906 468.851563 C 161.8125 466.234375 167.480469 468.484375 167.917969 469.003906 C 169.550781 470.933594 168.96875 475.34375 168.855469 477.050781 C 164.324219 477.257813 164.386719 481.09375 162.605469 486.066406 C 162.191406 485.964844 161.105469 485.691406 159.753906 485.253906 C 160.453125 480.050781 162.554688 473.652344 159.753906 468.851563 Z M 166.953125 490.050781 L 180.355469 493.351563 L 180.355469 494.351563 L 166.953125 490.953125 Z M 167.855469 487.152344 L 169.355469 484.253906 L 184.15625 484.253906 C 183.167969 486.753906 182.167969 488.878906 181.355469 490.953125 Z M 182.753906 493.851563 L 183.753906 494.351563 L 183.480469 495.253906 L 182.480469 494.941406 Z M 203.863281 495.003906 C 204.070313 492.40625 205.320313 489.109375 206.28125 487.058594 C 206.835938 485.871094 207.046875 485.804688 206.722656 487.203125 C 206.050781 489.871094 205.511719 492.574219 204.425781 495.066406 C 204.140625 495.71875 203.804688 495.726563 203.863281 495.003906 Z M 205.355469 499.652344 L 206.753906 499.652344 L 206.753906 500.550781 L 205.355469 500.550781 Z M 257.292969 492.371094 C 241.292969 488.769531 226.730469 480.941406 209.15625 478.953125 L 209.65625 478.050781 C 226.554688 480.152344 241.460938 486.5625 257.359375 491.363281 Z M 221.894531 478.335938 C 219.359375 477.730469 220.417969 477.648438 222.269531 477.746094 C 228.328125 478.03125 262.4375 479.667969 262.4375 479.667969 C 261.8125 483.070313 261.355469 484.851563 260.953125 487.652344 C 259.554688 487.050781 258.453125 488.550781 258.15625 489.550781 C 245.984375 486.398438 233.164063 481.035156 221.894531 478.335938 Z M 262.453125 496.253906 L 273.453125 498.652344 L 271.9375 509.667969 C 268.445313 509.667969 264.933594 506.109375 264.949219 503.578125 C 264.972656 499.539063 258.703125 500.285156 262.453125 496.253906 Z M 267.253906 512.050781 L 276.664063 513.667969 L 276.605469 514.835938 L 266.753906 513.550781 Z M 276.605469 490.003906 C 275.355469 490.335938 274.671875 491.734375 274.4375 493.253906 C 271.800781 492.703125 266.6875 491.503906 263.9375 490.835938 C 263.9375 489.917969 264.519531 488.753906 263.203125 488.058594 C 263.519531 485.167969 263.953125 482.851563 264.355469 479.953125 C 269.4375 480.253906 273.746094 480.503906 278.269531 480.753906 C 277.789063 484.136719 277.1875 487.667969 276.605469 490.003906 Z M 372.664063 520.917969 L 378.554688 520.753906 L 378.554688 522.152344 L 372.664063 522.25 Z M 438.335938 515 L 437.914063 516.332031 L 424.835938 518.75 L 424.765625 517.238281 Z M 429.105469 513.417969 C 428.054688 503.648438 436.6875 510.503906 439.519531 511.917969 C 436.488281 512.269531 429.105469 513.417969 429.105469 513.417969 Z M 433.355469 487.652344 L 433.753906 486.652344 C 436.269531 488.417969 436.054688 491.277344 435.433594 492.28125 C 434.964844 493.035156 434.59375 492.640625 434.730469 491.910156 C 435.007813 490.472656 434.984375 488.394531 433.355469 487.652344 Z M 436.335938 507.710938 C 434.496094 506.882813 435.664063 506.792969 436.324219 506.472656 C 438.011719 505.65625 437.8125 503.699219 437.6875 501.753906 C 437.351563 496.519531 446.789063 496.308594 447.949219 496.535156 C 452.84375 497.5 457.644531 500.429688 462.15625 502.050781 L 443.855469 505.851563 C 443.144531 511.101563 439.347656 509.070313 436.335938 507.710938 Z M 465.335938 504.417969 L 464.769531 507.667969 L 453.953125 510.152344 L 454.6875 506.417969 Z M 452.164063 507.082031 L 451.105469 510.585938 L 443.769531 511.917969 L 445.007813 508.433594 Z M 470.753906 506.351563 L 466.953125 507.253906 L 467.355469 504.851563 C 468.855469 504.652344 469.953125 505.253906 470.753906 506.351563 Z M 469.355469 502.953125 C 470.3125 502.558594 471.476563 502.210938 472.519531 502.335938 C 473.875 502.5 475.097656 503.324219 476.054688 504.453125 C 475.1875 504.917969 474.070313 505.382813 472.9375 505.417969 C 471.691406 504.984375 469.355469 502.953125 469.355469 502.953125 Z M 476.554688 502.453125 C 476.234375 502.164063 475.582031 501.566406 475.019531 501.335938 L 477.855469 500.503906 C 477.769531 501.417969 476.855469 502.050781 476.554688 502.453125 Z M 468.855469 494.851563 L 476.554688 498.152344 L 472.769531 499.917969 L 467.519531 497.667969 Z M 457.019531 490.003906 C 459.4375 490.835938 464.269531 492.753906 466.953125 493.851563 C 466.605469 495.085938 466.1875 495.917969 465.605469 497.003906 C 462.332031 495.382813 459.519531 494.46875 455.769531 492.835938 C 456.140625 492.140625 456.6875 490.667969 457.019531 490.003906 Z M 447.753906 486.652344 L 454.953125 489.050781 C 454.976563 489.816406 454.4375 491.085938 453.839844 492.269531 L 446.753906 489.550781 Z M 440.144531 488.507813 C 441.3125 487.101563 443.953125 487.101563 445.753906 486.652344 C 445.753906 489.632813 442.773438 490.308594 440.945313 490.441406 C 439.453125 490.546875 439.382813 489.429688 440.144531 488.507813 Z M 445.753906 490.953125 C 453.453125 493.652344 461.355469 497.253906 468.355469 500.550781 C 462.871094 501.21875 458.160156 498.210938 453.15625 496.074219 C 448.253906 493.984375 443.425781 494.746094 440.734375 495.496094 C 438.019531 496.253906 437.789063 495.960938 438.804688 493.933594 C 439.910156 491.726563 443.6875 492.226563 445.753906 490.953125 Z M 439.054688 484.253906 C 438.4375 485.085938 437.753906 485.550781 436.65625 485.253906 C 437.253906 484.351563 438.15625 484.152344 439.054688 484.253906 Z M 435.753906 465.550781 C 429.855469 468.003906 403.753906 474.152344 387.253906 477.050781 L 390.15625 465.050781 L 420.355469 462.335938 C 420.453125 433.4375 420.453125 404.253906 418.453125 374.351563 C 430.019531 346.253906 471.191406 216.554688 472.195313 212.792969 C 473.007813 209.742188 473.324219 209.671875 473.15625 212.917969 C 469.765625 279.226563 446.320313 411.527344 435.753906 465.550781 Z M 526 435 C 526 435 440.484375 464.460938 438.554688 465.050781 C 458.105469 361.753906 471.855469 273.753906 476.917969 197.085938 C 480.761719 184.511719 484.410156 168.625 488.054688 154.953125 C 526.460938 239.9375 530.855469 351.753906 526 435 Z M 479.9375 178 C 478.980469 181.476563 478.0625 185.917969 477.03125 189.082031 C 476.878906 189.558594 476.570313 189.609375 476.566406 189.128906 C 476.5625 186.226563 477 181.8125 477.625 178.25 C 478.0625 178.9375 479.375 178.625 479.9375 178 Z M 477.953125 176.554688 L 478.9375 173.4375 C 480.6875 174 481.285156 177.40625 477.953125 176.554688 Z M 486.875 150.75 C 485.441406 159.046875 482.976563 166.085938 481.125 173.6875 C 480.8125 172.625 480.125 171.75 479.355469 171.753906 L 485.4375 147.5625 Z M 473.4375 171 C 469.6875 171.625 472.363281 173.113281 470.714844 176.519531 L 410.253906 307.152344 C 409.855469 304.441406 409.605469 302.378906 409.105469 299.753906 L 482.753906 129.554688 L 484.15625 129.554688 Z M 483.042969 124.191406 L 409.21875 294.808594 C 408.574219 296.164063 408.3125 295.789063 408.121094 294.574219 C 397.464844 227.480469 384.421875 161.382813 366.15625 97.351563 C 362.355469 73.453125 357.753906 49.851563 350.753906 27.253906 C 350.753906 27.253906 479.042969 121.691406 483.042969 124.191406 Z M 350.1875 31.917969 C 354.867188 48.605469 359.710938 69.257813 362.445313 86.726563 C 362.6875 88.3125 362.269531 88.503906 361.769531 87.167969 L 354.15625 65.652344 C 352.800781 55.660156 351.222656 41.925781 349.636719 32.027344 C 349.308594 29.992188 349.640625 29.964844 350.1875 31.917969 Z M 348.222656 35.902344 C 348.75 39.519531 350.664063 52.546875 351.457031 57.929688 C 351.640625 59.175781 351.261719 59.164063 350.769531 58.085938 C 349.007813 54.203125 346.847656 48.996094 345.882813 45.0625 C 346.144531 42.789063 346.675781 40.070313 347.453125 35.785156 C 347.726563 34.269531 348.003906 34.410156 348.222656 35.902344 Z M 345.953125 23.953125 C 346.488281 25.75 347.230469 27.566406 346.953125 29.253906 C 346.292969 29.003906 345.554688 28.851563 344.953125 28.753906 Z M 344.054688 34.050781 L 345.453125 34.453125 C 342.855469 51.152344 338.753906 67.253906 334.953125 83.453125 C 332.855469 68.351563 341.753906 50.851563 344.054688 34.050781 Z M 336.792969 34.554688 C 337.992188 32.1875 338.148438 32.355469 337.636719 34.941406 C 335.972656 43.363281 333.710938 51.484375 331.054688 59.453125 C 327.554688 60.453125 326.855469 64.152344 325.355469 66.652344 C 302.363281 112.148438 268.933594 161.011719 238.355469 203.253906 C 167.492188 301.128906 101.019531 380.917969 20.953125 453.050781 C 18.472656 453.082031 15.1875 453.152344 12.6875 452.753906 C 95.3125 375.757813 262.15625 181.8125 336.792969 34.554688 Z M 4.601563 457.433594 C 1.339844 457.234375 1.429688 453.332031 4.476563 453.621094 C 51.011719 458.046875 95.484375 467.398438 140.054688 476.550781 L 140.953125 477.550781 C 96.675781 469.726563 51.710938 460.332031 4.601563 457.433594 Z M 83.332031 523.726563 C 58.527344 508.214844 32.707031 488.015625 13.890625 463.59375 C 13.714844 463.367188 13.941406 463.269531 14.226563 463.441406 C 42.136719 480.574219 70.148438 498.210938 98.753906 513.550781 C 96.667969 516.503906 95.863281 518.105469 101.542969 518.546875 C 107.167969 518.984375 105.863281 522.617188 100.46875 520.34375 C 96.558594 518.691406 93.105469 519.382813 91.832031 522.304688 C 90.6875 524.929688 85.867188 525.3125 83.332031 523.726563 Z M 56.886719 474.703125 C 79.617188 483.996094 108.496094 491.769531 131.5 497.988281 C 134.546875 498.8125 134.472656 499.117188 131.417969 498.378906 C 107.632813 492.625 74.042969 482.753906 55.054688 474.652344 C 51.917969 475.941406 48.035156 472.070313 44.953125 469.851563 C 71.953125 473.550781 97.453125 481.050781 123.253906 487.652344 L 123.253906 488.550781 C 101.417969 483.070313 79.292969 476.722656 56.976563 473.832031 C 55.410156 473.628906 55.402344 474.09375 56.886719 474.703125 Z M 103.054688 510.652344 L 99.667969 511.832031 C 73.546875 497.695313 46.003906 481.660156 21.21875 465.195313 C 20.761719 464.894531 20.847656 464.65625 21.34375 464.84375 C 50.09375 475.832031 75.234375 497.578125 103.054688 510.652344 Z M 59.355469 478.503906 C 79.960938 488.203125 111.445313 499.414063 133.472656 506.898438 C 134.429688 507.222656 134.304688 507.492188 133.355469 507.191406 C 101.367188 497.019531 73.414063 485.808594 61.355469 480.453125 Z M 106.953125 515.453125 L 103.054688 513.550781 C 104.953125 513.152344 106.167969 514.003906 106.953125 515.453125 Z M 90.554688 533.652344 C 90.554688 533.652344 90.542969 528.851563 85.53125 530.40625 C 83.617188 531 83.035156 529.574219 85.355469 527.953125 C 89.667969 529.832031 92.253906 531.152344 95.855469 532.753906 C 94.355469 533.550781 92.105469 533.941406 90.554688 533.652344 Z M 114.652344 534.738281 C 105.964844 532.375 97.816406 532.617188 89.15625 526.453125 C 92.648438 526.929688 94.246094 525.855469 94.441406 523.382813 C 94.679688 520.300781 99.542969 522.144531 101.6875 523.039063 C 107.691406 525.535156 109.316406 517.234375 101.734375 516.398438 C 97.503906 515.929688 100.292969 514.253906 100.292969 514.253906 C 112.835938 517.332031 115.15625 529.453125 125.15625 534.652344 C 121.816406 536.878906 117.730469 535.574219 114.652344 534.738281 Z M 248.359375 536.71875 C 222.53125 538.71875 188.992188 537.011719 183.160156 541.027344 C 179.253906 543.71875 171.453125 544.78125 176.746094 541.652344 C 181.164063 539.042969 174.371094 538.65625 171.402344 539.96875 C 165.988281 542.359375 164.742188 544.8125 161.535156 541.953125 C 158.304688 539.078125 152.355469 542.351563 151.21875 539.175781 C 150.675781 537.65625 149.882813 536.605469 146.980469 537.628906 C 144.933594 538.355469 144.777344 537.652344 146.40625 536.71875 C 151.203125 533.964844 153.011719 531.277344 154.039063 527.394531 C 155.148438 523.179688 157.054688 522.636719 159.875 525.605469 C 163.058594 528.957031 166.515625 526.449219 171.164063 526.5 C 172.394531 529.160156 175.351563 528.496094 177.621094 529.847656 C 180.644531 531.644531 181.5625 530.546875 186.222656 528.859375 C 188.984375 527.863281 191.675781 527.273438 194.039063 529.4375 C 198.515625 533.542969 206.023438 533.117188 212.953125 531.253906 C 215.84375 534.578125 218.117188 529.785156 220.585938 530.546875 C 223.308594 531.386719 225.40625 530.765625 226.453125 528.453125 C 228.828125 528.609375 231.292969 528.082031 232.988281 526.765625 C 233.960938 526.011719 234.878906 525.914063 233.703125 527.332031 C 229.820313 532.007813 236.335938 532 236.335938 532 C 235.8125 535.890625 243.746094 535.90625 246.472656 535.34375 C 248.628906 534.894531 252.671875 536.386719 248.359375 536.71875 Z M 305.65625 541.351563 C 301.554688 539.851563 296.253906 539.050781 294.15625 534.652344 C 290.753906 534.253906 285.753906 537.652344 284.054688 533.652344 C 280.65625 535.453125 275.953125 534.253906 272.054688 534.652344 C 275.953125 533.652344 280.753906 532.953125 284.554688 530.351563 C 286.65625 530.050781 287.855469 532.453125 289.753906 532.753906 C 295.65625 534.253906 300.953125 527.351563 305.65625 533.253906 C 308.855469 532.152344 312.753906 531.152344 316.15625 532.253906 C 320.753906 537.652344 328.433594 532.066406 332.335938 538.167969 C 337.132813 535.167969 341.65625 538.652344 345.453125 540.851563 C 332.753906 543.851563 318.953125 541.253906 305.65625 541.351563 Z M 357.953125 537.550781 C 352.148438 538.257813 346.261719 537.179688 340.914063 535.410156 C 334.28125 533.21875 332.925781 537.078125 331.023438 534.359375 C 330.515625 533.632813 327.875 532.722656 325.1875 532.710938 C 322.585938 532.703125 319.933594 532.523438 317.753906 531.367188 C 314.804688 529.796875 312.632813 529.003906 308.46875 530.433594 C 306.664063 531.054688 304.683594 530.183594 303 527.832031 C 293.699219 531.03125 284.355469 524.351563 276.355469 531.753906 C 265.855469 531.417969 259.554688 532.652344 252.355469 536.050781 C 250.632813 532.609375 248.199219 532.328125 245.851563 534 C 245.289063 534.398438 243.765625 533.703125 243.636719 533.542969 C 243.433594 533.28125 241.996094 532.578125 241.355469 532.753906 C 237.34375 533.847656 239.9375 527.835938 234.554688 529.351563 C 235.132813 528.273438 236.277344 527.398438 236.613281 526.171875 C 237.691406 522.21875 232.160156 520.355469 231.824219 524.25 C 231.496094 528.070313 224.035156 524.269531 222.554688 529.351563 C 219.453125 525.652344 216.933594 531.601563 213.835938 528 C 210.335938 532.199219 206.65625 527.652344 202.953125 530.351563 C 199.820313 529.28125 197.773438 529.175781 195 527.332031 C 190.839844 524.566406 190.089844 524.941406 184.835938 527.167969 C 182.035156 528.351563 178.289063 529.796875 176.054688 526.050781 C 173.554688 526.851563 173.355469 524.851563 171.753906 523.652344 C 167.953125 526.851563 165.367188 520.96875 161.664063 524.167969 C 158.75 518.917969 153.042969 521.742188 151.8125 527.308594 C 151.386719 529.226563 150.070313 530.605469 149 532.332031 C 142.300781 529.332031 136.953125 536.652344 131.355469 532.253906 C 124.085938 532.980469 115.480469 521.59375 111.019531 515.542969 C 105.601563 508.1875 99.511719 504.464844 93.160156 501.472656 C 82.644531 496.519531 72.753906 489.964844 62.863281 483.492188 C 61.589844 482.65625 61.792969 482.460938 63.203125 483.050781 C 86.417969 492.796875 109.835938 501.957031 133.972656 509.410156 C 136.085938 510.0625 137.570313 506.6875 135.296875 505.851563 C 119.902344 500.203125 98.707031 492.941406 83.4375 487.003906 C 80.59375 485.894531 80.644531 485.648438 83.535156 486.574219 C 98.25 491.292969 118.828125 497.230469 134.210938 500.8125 C 136.183594 501.269531 137.269531 497.753906 135.105469 497.003906 C 135.105469 497.003906 91.808594 485.621094 70.664063 478.28125 C 68.851563 477.652344 68.949219 477.359375 70.757813 477.71875 C 87.9375 481.117188 106.261719 486.171875 122.945313 490.730469 C 124.804688 491.238281 126.476563 486.699219 123.707031 485.78125 C 104.246094 479.339844 63.855469 470.835938 41.65625 467.953125 C 40.9375 469.324219 42.179688 469.929688 43.382813 470.710938 C 44.664063 471.546875 44.308594 471.917969 42.949219 471.234375 C 33.953125 466.71875 23.339844 462.539063 13.421875 460.316406 C 12.003906 459.996094 11.898438 459.660156 13.277344 459.765625 C 57.023438 463.503906 99.96875 471.421875 141.453125 479.953125 C 141.253906 485.210938 142.253906 486.273438 146.082031 487.644531 C 146.632813 487.84375 192.523438 499.542969 213.519531 504.585938 C 280.527344 520.679688 380.269531 533.085938 443.355469 517.351563 C 438.855469 526.453125 429.355469 530.253906 420.355469 531.753906 C 411.914063 527.582031 404.46875 535.09375 395.875 533.925781 C 392.976563 533.53125 388.261719 531.976563 386.253906 534.652344 C 383.253906 533.253906 380.578125 534.050781 377.953125 534.800781 C 369.609375 537.1875 362.339844 531.851563 357.953125 537.550781 Z M 561.429688 530.539063 C 555.210938 532.621094 547.289063 527.492188 541.753906 532.753906 C 538.15625 532.851563 535.65625 528.550781 531.753906 530.851563 C 520.054688 537.253906 509.953125 524.050781 499.054688 531.753906 C 494.953125 531.652344 490.367188 532.566406 486.164063 532.167969 C 482.144531 541.898438 471.789063 534.46875 464.503906 538.046875 C 462.550781 539.007813 458.808594 540.503906 455.355469 537.050781 C 450.355469 538.050781 442.355469 539.652344 438.554688 535.652344 C 436.503906 536.0625 434.191406 536.628906 431.765625 537.113281 C 427.859375 537.890625 425.878906 539.222656 423.914063 536.378906 C 423.183594 535.328125 421.773438 535.449219 420.734375 536.070313 C 419.277344 536.941406 417.871094 537.59375 416.769531 536.34375 C 414.375 533.632813 413.34375 535.460938 412.925781 536.988281 C 412.230469 539.507813 410.535156 539.519531 406.777344 538.550781 C 402.839844 537.535156 399.078125 535.523438 395.855469 539.953125 C 389.949219 540.136719 388.71875 541.914063 385.394531 539.816406 C 379.496094 536.09375 372.820313 544.34375 368.054688 538.050781 C 366.148438 538.714844 363.828125 538.484375 361.667969 538.445313 C 360.277344 538.417969 360.269531 538.035156 361.609375 537.84375 C 368.265625 536.890625 373.246094 538.6875 379.554688 536.050781 C 383.355469 536.453125 386.855469 537.652344 390.15625 535.152344 C 400.570313 540.21875 408.613281 530.121094 418.035156 533.144531 C 421.792969 534.351563 422.605469 533.429688 428.292969 531.902344 C 430.765625 531.238281 433.226563 530.832031 435.828125 531.703125 C 438.941406 532.742188 439.355469 533.226563 443.777344 530.84375 C 444.929688 530.222656 446.363281 528.832031 447.535156 528.59375 C 448.378906 528.417969 448.355469 529.015625 447.542969 529.257813 C 443.390625 530.511719 446.308594 534.101563 451.765625 532.90625 C 453.015625 532.632813 454.285156 532.273438 455.480469 532.222656 C 456.832031 532.171875 458.652344 531.183594 457.863281 529.625 C 457.679688 529.261719 457.667969 528.792969 458.230469 528.683594 C 460.949219 528.140625 461.21875 527.054688 461.035156 526.316406 C 460.925781 525.871094 461.273438 525.199219 461.609375 525.074219 C 465.386719 523.640625 471.082031 526.144531 473.65625 522.652344 C 467.253906 519.453125 459.855469 518.953125 452.054688 519.253906 C 452.546875 518.035156 451.949219 517.558594 451.226563 517.386719 C 450.269531 517.164063 450.414063 516.84375 450.96875 516.550781 C 455.503906 514.15625 461.226563 514.554688 465.953125 512.550781 C 474.460938 519.996094 483.28125 511.722656 492.164063 517.5 C 493.433594 518.324219 501.304688 518.761719 504.230469 518.828125 C 506.980469 518.890625 505.875 519.300781 504.347656 519.925781 C 503.007813 520.476563 501.53125 520.769531 500.144531 521.175781 C 495.214844 522.632813 495.503906 525.234375 500.480469 525.53125 C 503.414063 525.707031 506.554688 524.878906 509.164063 523.996094 C 511.945313 523.058594 512.578125 523.476563 515.898438 525.222656 C 517.121094 525.867188 518.867188 525.839844 520.355469 525.378906 C 522.347656 524.761719 523.664063 525.484375 521.566406 525.933594 C 516.191406 527.085938 518.847656 530.550781 525.21875 529.023438 C 529.964844 527.882813 534.363281 525.109375 538.953125 529.351563 C 545.234375 525.75 553.476563 528.289063 560.292969 528.464844 C 563.640625 528.546875 564.597656 529.476563 561.429688 530.539063 "/>
<path style=" stroke:none;fill-rule:nonzero;fill:rgb(0%,0%,0%);fill-opacity:1;" d="M 129.355469 490.003906 C 131.628906 490.726563 135.292969 491.566406 137.292969 492.191406 C 140.351563 486.207031 130.480469 482.816406 129.355469 490.003906 "/>
<path style=" stroke:none;fill-rule:nonzero;fill:rgb(0%,0%,0%);fill-opacity:1;" d="M 356.269531 507.441406 C 355.339844 507.441406 354.585938 509.207031 354.585938 511.386719 C 354.585938 513.570313 355.339844 515.335938 356.269531 515.335938 C 357.203125 515.335938 357.957031 513.570313 357.957031 511.386719 C 357.957031 509.207031 357.203125 507.441406 356.269531 507.441406 "/>
<path style=" stroke:none;fill-rule:nonzero;fill:rgb(0%,0%,0%);fill-opacity:1;" d="M 337.1875 507.105469 C 336.257813 507.105469 335.503906 508.875 335.503906 511.054688 C 335.503906 513.234375 336.257813 515.003906 337.1875 515.003906 C 338.117188 515.003906 338.871094 513.234375 338.871094 511.054688 C 338.871094 508.875 338.117188 507.105469 337.1875 507.105469 "/>
<path style=" stroke:none;fill-rule:nonzero;fill:rgb(0%,0%,0%);fill-opacity:1;" d="M 315.6875 506.417969 C 314.757813 506.417969 314.003906 508.1875 314.003906 510.367188 C 314.003906 512.546875 314.757813 514.316406 315.6875 514.316406 C 316.617188 514.316406 317.371094 512.546875 317.371094 510.367188 C 317.371094 508.1875 316.617188 506.417969 315.6875 506.417969 "/>
<path style=" stroke:none;fill-rule:nonzero;fill:rgb(0%,0%,0%);fill-opacity:1;" d="M 293.9375 503.585938 C 293.007813 503.585938 292.253906 505.351563 292.253906 507.535156 C 292.253906 509.714844 293.007813 511.480469 293.9375 511.480469 C 294.867188 511.480469 295.621094 509.714844 295.621094 507.535156 C 295.621094 505.351563 294.867188 503.585938 293.9375 503.585938 "/>
<path style=" stroke:none;fill-rule:nonzero;fill:rgb(0%,0%,0%);fill-opacity:1;" d="M 411.550781 495.960938 C 412.257813 495.960938 412.832031 495.386719 412.832031 494.679688 C 412.832031 493.972656 412.257813 493.398438 411.550781 493.398438 C 410.84375 493.398438 410.269531 493.972656 410.269531 494.679688 C 410.269531 495.386719 410.84375 495.960938 411.550781 495.960938 "/>
<path style=" stroke:none;fill-rule:nonzero;fill:rgb(0%,0%,0%);fill-opacity:1;" d="M 426.0625 490.292969 C 425.074219 490.292969 424.273438 491.097656 424.273438 492.085938 C 424.273438 493.074219 425.074219 493.878906 426.0625 493.878906 C 427.054688 493.878906 427.855469 493.074219 427.855469 492.085938 C 427.855469 491.097656 427.054688 490.292969 426.0625 490.292969 "/>
<path style=" stroke:none;fill-rule:nonzero;fill:rgb(0%,0%,0%);fill-opacity:1;" d="M 155.238281 472.042969 C 155.238281 471.390625 154.710938 470.863281 154.058594 470.863281 C 153.40625 470.863281 152.878906 471.390625 152.878906 472.042969 C 152.878906 472.695313 153.40625 473.222656 154.058594 473.222656 C 154.710938 473.222656 155.238281 472.695313 155.238281 472.042969 "/>
</g>
</svg>
