<?xml version="1.0" encoding="UTF-8"?>
<svg xmlns="http://www.w3.org/2000/svg" xmlns:xlink="http://www.w3.org/1999/xlink" width="358pt" height="651pt" viewBox="0 0 358 651" version="1.1">
<g id="surface1">
<path style=" stroke:none;fill-rule:nonzero;fill:rgb(0%,0%,0%);fill-opacity:1;" d="M 309.945313 417.085938 L 310.101563 407.898438 C 307.199219 403.5 308.800781 398.101563 309.398438 393.101563 C 308.101563 388.101563 303.5 393 301.699219 395 C 304.40625 402.308594 307.847656 409.292969 309.449219 417.125 C 309.621094 417.972656 309.945313 417.085938 309.945313 417.085938 "/>
<path style=" stroke:none;fill-rule:nonzero;fill:rgb(0%,0%,0%);fill-opacity:1;" d="M 356.699219 547.398438 C 347.898438 534 332.898438 528.300781 323.300781 515.199219 C 296.6875 471.601563 339.28125 431.988281 330.84375 389.183594 C 328.140625 375.464844 323.933594 372.210938 317.941406 366.050781 C 307.890625 355.710938 307.855469 340.261719 300.300781 328.5 C 277.300781 299.898438 243.199219 295.199219 209.398438 291.300781 C 203.5 288.300781 209.5 282.800781 207.898438 277.898438 C 199.5 263.199219 181.800781 263.199219 172.898438 248.800781 C 169.101563 241.601563 170.398438 231.199219 174.601563 224.601563 C 200.554688 217.070313 202.480469 180.246094 205.683594 156.523438 C 210.007813 124.464844 212.945313 89.835938 200.699219 61.101563 C 188.199219 34.199219 159.199219 27.5 131.601563 27.300781 C 128.800781 23.601563 124.300781 24 120.300781 23 C 104.699219 10 87.800781 -0.800781 66.300781 1.101563 C 37.449219 3.339844 17.335938 22.820313 11.824219 52.214844 C 9.59375 64.128906 10.277344 77.292969 4.199219 87.5 C -0.300781 96.800781 1.101563 109.398438 3.898438 119 L 21.898438 203 C 25.5 223.300781 29.5 243.5 30.601563 264.898438 C 41.101563 276.699219 47.5 295 45 307.398438 C 42.101563 323.800781 44.601563 341.699219 49.300781 356.800781 C 49.300781 356.800781 51.449219 357.632813 51.738281 358.007813 C 52.492188 359.003906 52.472656 360.449219 52.398438 361.898438 C 52.601563 364.101563 55 363.601563 55.5 365.699219 C 56.4375 368.824219 55.222656 370.492188 53.308594 371.6875 C 50.960938 373.152344 44.035156 377.316406 41.738281 380.242188 C 20.128906 407.792969 47.53125 439.847656 55.5 466.5 C 62.398438 490.199219 58.101563 516.898438 41.800781 534.898438 C 34.898438 543.5 19.898438 551.199219 26.199219 564.199219 C 34.5 574 46.5 576.902344 58.898438 577.800781 C 63.300781 579 69.25 574.25 68.5 572.300781 C 65.574219 556.699219 70.1875 543.238281 75.460938 530.140625 C 87.625 499.929688 90.035156 479.238281 85.210938 454.707031 C 83.492188 445.96875 78.636719 438.507813 78.800781 429 C 79.398438 425.699219 81.800781 422 85.300781 420.898438 C 95.5 419.101563 103.699219 425 111.199219 431.199219 C 161.199219 474.199219 181.699219 532.800781 181 598.5 C 178.601563 605.699219 174.800781 612.398438 172.898438 619.800781 C 170.199219 629.300781 171.101563 640.101563 179.101563 646.699219 C 191.699219 654 208.398438 650.199219 219.199219 641.699219 C 229.300781 627.800781 217.199219 613 212.699219 600.199219 C 198.300781 527.601563 225 460.199219 278.699219 411.5 C 278.699219 411.5 289.105469 416.058594 289.171875 429.5 C 289.378906 470.539063 279.429688 517.0625 311.601563 546.601563 C 311.300781 552 309.898438 558.097656 311.800781 563.199219 C 315.601563 565.5 319.699219 567.699219 324.5 566.597656 C 330.398438 560.902344 340 563.5 347.800781 563.199219 C 353.300781 559.800781 358.300781 554.199219 356.699219 547.398438 Z M 160.398438 241.898438 C 167.898438 257.398438 184.699219 268.800781 198.601563 278.101563 L 198.800781 280.699219 C 171.976563 273.308594 150.859375 250.292969 155.398438 229.398438 C 157.199219 222.800781 163.101563 216.398438 169.300781 213.300781 C 170.699219 213.5 172.199219 213.800781 173.398438 214.699219 C 166.898438 222.898438 157.101563 230.601563 160.398438 241.898438 Z M 158.699219 270.398438 C 152.101563 272 145.5 274.898438 138.300781 273.800781 C 134.5 262.199219 119.601563 269 114.800781 259.398438 C 115.054688 248.296875 103.5 247.101563 103.5 247.101563 C 117.699219 237.199219 130.601563 222.5 141.199219 208.300781 C 143.398438 208.800781 145.699219 209.800781 146.699219 212.101563 C 148.253906 217.800781 145.527344 222.707031 144.175781 227.980469 C 141.207031 239.578125 147.769531 254.472656 158.699219 270.398438 Z M 125.800781 276.199219 C 124.398438 278.101563 121.898438 277.398438 120.101563 278.300781 L 119.601563 273.300781 L 125.398438 274 C 126 274.601563 125.800781 275.398438 125.800781 276.199219 Z M 121 287.199219 C 137.101563 279.898438 157.5 282.101563 175.800781 282.699219 L 183.699219 284.101563 L 183.699219 285.300781 C 160.5 281.800781 141.601563 291.199219 119.601563 292 C 118.800781 290.199219 120 288.601563 121 287.199219 Z M 138.300781 33.300781 C 171.109375 32.167969 192.171875 53.269531 198.898438 76.957031 C 205.660156 100.785156 204.84375 127.984375 200.753906 153.289063 C 198.652344 166.285156 191.453125 198.367188 182.5 210.898438 C 180.398438 211.300781 180.101563 208.898438 178.601563 208 C 192.300781 178.5 198.898438 146 198.800781 110.800781 C 198.5 110.199219 197.898438 110.398438 197.398438 110.300781 C 195.464844 112.71875 192.585938 121.746094 183.398438 114.898438 C 181.800781 112.300781 182.601563 108.199219 182.699219 105.300781 C 187 104.398438 190.300781 100.800781 192.601563 97.101563 C 194.277344 88.847656 182.921875 77.355469 175.5 80.800781 C 169 83.800781 166.300781 90.898438 164 96.898438 C 160.496094 128.820313 178.699219 153.742188 179.019531 184.75 C 179.171875 199.410156 174.101563 204.703125 164.503906 205.773438 C 161.425781 206.117188 158.257813 205.757813 155.398438 204.699219 C 144.269531 200.371094 147.929688 182.828125 155.101563 178.300781 C 158 178.199219 159.800781 181 162.101563 182.300781 C 161.113281 184.417969 158.816406 186.226563 156.914063 188.160156 C 148.226563 197 161.9375 205.1875 170.1875 197.929688 C 174.558594 194.089844 174.101563 188.746094 173.703125 183.464844 C 171.652344 156.238281 155.027344 134.742188 154.398438 106.699219 C 154.199219 96.398438 154.398438 84.398438 163.5 77.898438 C 170 73.398438 180.800781 72 187.5 77 C 191.601563 79.5 193.898438 84 196.398438 87.800781 C 197.535156 84.515625 196.613281 81.390625 195.382813 78.296875 C 189.128906 62.570313 166.414063 33.824219 130.398438 37.398438 C 130.601563 32.898438 135.199219 33.800781 138.300781 33.300781 Z M 174.601563 113.898438 C 177.898438 117.898438 181.800781 121.5 186.601563 122.601563 C 185.699219 132 184.5 141.898438 183 151.398438 L 180.300781 153.300781 C 173.398438 136.398438 170.800781 116.800781 172.199219 97.398438 C 172.601563 96.199219 173.898438 96 174.800781 95.5 C 176.699219 95.300781 178.5 96.398438 179.101563 98.101563 C 179.800781 101.601563 176.101563 103.898438 175 107 C 174.398438 109.101563 173.800781 111.800781 174.601563 113.898438 Z M 154.199219 168.699219 L 155.601563 148.5 C 159.5 154.5 159.800781 162.398438 161.800781 169.398438 C 159.398438 168.101563 157 168.898438 154.199219 168.699219 Z M 137.800781 50.800781 C 153.144531 47.347656 166.753906 52.484375 174.300781 66.398438 C 171.898438 67.300781 168.699219 67.398438 166.199219 68.300781 C 159.5 70.398438 153.601563 74.398438 148.199219 79.398438 L 129.199219 65.699219 C 131.601563 60.5 139.800781 57.5 137.800781 50.800781 Z M 118.898438 26.300781 C 121.5 25.199219 123.300781 28.101563 124.199219 29.898438 C 122.898438 33.101563 123 36.800781 120.300781 39.300781 C 118.699219 38.398438 116.398438 38.398438 115.800781 36.199219 C 114.601563 32.300781 118.699219 30 118.898438 26.300781 Z M 40.199219 19.398438 C 81.074219 -11.902344 109.800781 26.101563 109.800781 26.101563 C 109.5 27.5 108.898438 28.800781 108.101563 29.898438 C 96.753906 20.898438 79.710938 6.484375 55.5 16.699219 C 39.800781 23.398438 27 38.800781 26.699219 56.300781 C 25 57.199219 23.699219 55.898438 23.398438 54.398438 C 23.699219 40.601563 28.601563 28.199219 40.199219 19.398438 Z M 89.632813 46.789063 C 89.757813 47.152344 89.285156 48.515625 88.578125 48.339844 C 83.628906 47.09375 77.175781 49.25 72.101563 47.5 C 69.601563 45.199219 70.699219 42.601563 71.101563 39.800781 C 74.601563 41.898438 78.800781 39 82.601563 38.601563 C 84.699219 35.601563 87.300781 32.601563 90.601563 30.898438 L 92.199219 31.101563 C 94.085938 37.132813 87.617188 40.855469 89.632813 46.789063 Z M 79 90.699219 C 78.910156 93.96875 77.300781 96.359375 75.1875 98.542969 C 69 104.9375 57.859375 117.503906 64.601563 122.101563 C 72.101563 122.199219 75.398438 112 82.898438 112 C 81.300781 122.398438 65.699219 130.699219 75 141.800781 C 79.199219 142.5 80.898438 136.800781 85.300781 137.699219 C 83.699219 144.398438 80.101563 150.898438 78.300781 157.898438 C 77.230469 161.636719 76.570313 165.609375 76.320313 169.769531 C 76.238281 171.0625 75.4375 171.355469 74.960938 170.164063 C 70.917969 160.109375 62.359375 149.714844 51 149 L 43.5 147.800781 C 47 142.5 39.898438 138 43 132.898438 C 48.601563 127.101563 39.800781 122.300781 41.398438 116.101563 C 45.800781 110.398438 46.699219 103.199219 46.199219 95.5 C 56.421875 91.449219 54.601563 79.253906 61.828125 73.289063 C 67.039063 68.988281 75.242188 68.664063 72.445313 77.808594 C 70.683594 83.566406 62.839844 86.890625 60.300781 92.300781 C 66.101563 99.800781 72.601563 90.699219 79 90.699219 Z M 48.601563 31.601563 C 41.757813 32.492188 42.40625 40.476563 44.699219 44.601563 C 42.800781 44.5 38.398438 46.199219 38.199219 42.699219 C 37.28125 33.191406 42.519531 18.238281 59.398438 30.699219 C 62.398438 25.5 66.800781 18.699219 73.300781 17.699219 C 82.167969 17.128906 83.53125 27.671875 80.5 32.601563 L 74.199219 32.601563 C 75.601563 30.300781 77.5 27.898438 76.601563 24.898438 C 74.234375 20.691406 69.335938 22.507813 65.800781 26.601563 C 56.800781 38.699219 68.699219 50.601563 66.101563 64.300781 C 62.699219 65.101563 63 60.5 61.800781 58.5 C 58.699219 49 61.398438 34.300781 48.601563 31.601563 Z M 50.5 53.699219 C 46.601563 55.800781 44 61.398438 39 59.898438 C 37.300781 58.898438 36 56.699219 37.300781 54.898438 C 40.898438 52.800781 46.5 55.398438 49.5 51.800781 C 49.800781 52.398438 49.800781 53.199219 50.5 53.699219 Z M 15.699219 62.601563 C 17.050781 62.601563 18.511719 62.429688 19.664063 62.980469 C 20.050781 63.160156 20.300781 65.5 19.800781 66.199219 C 18.601563 65.699219 17 66 15.699219 65.898438 Z M 23.125 107.5 L 20.699219 107.898438 C 20 105.199219 19.199219 102.199219 19.5 99.300781 C 24.300781 100.5 22.726563 104.699219 23.125 107.5 Z M 40.601563 261.101563 C 32.898438 221.101563 28.101563 179.898438 14.199219 142.5 C 9.601563 123.101563 5.699219 103.699219 10.199219 83 C 11.800781 80.601563 12.398438 76.800781 15.898438 76.300781 C 5.898438 97 15 121.101563 18.300781 142 C 19.886719 145.410156 20.71875 149.199219 22.839844 152.265625 C 23.394531 153.066406 25.441406 151.933594 25.5 151 C 26.417969 136.0625 25.167969 120.796875 29.394531 107.296875 C 30.097656 105.046875 34 89.398438 29.101563 86.601563 C 25.691406 87.191406 23.476563 90.875 23.800781 93.800781 C 22.898438 94.199219 21.800781 93.898438 20.699219 94 C 17.601563 84.398438 32.398438 79.898438 27.199219 70 C 28.800781 68.101563 30.601563 66.800781 33.199219 67.398438 C 31.898438 71 28.800781 74.101563 29.800781 78.398438 C 31.199219 80.699219 33.898438 80.898438 36.300781 81.101563 C 42.199219 74.601563 45 63.800781 54.800781 62.101563 C 56.601563 70.800781 43.199219 73.898438 43.300781 82.5 C 41.699219 86.398438 36.699219 82.699219 35.398438 86.601563 C 35.300781 111.699219 25.5 134.898438 29.800781 159.800781 C 31.199219 164.800781 33.300781 169.800781 38 173.199219 C 39.101563 169.398438 40.300781 165.199219 44.199219 162.898438 C 53.375 160.222656 59.015625 161.644531 63.226563 168.421875 C 75.6875 188.46875 76.785156 213.257813 79.800781 237.300781 C 74.800781 239.398438 76.5 233 73.800781 231.300781 C 74.480469 205.277344 58.484375 160.972656 48.753906 166.84375 C 46.425781 168.246094 44.46875 170.4375 43 172.699219 C 41.800781 176.398438 43.699219 180.699219 47.101563 183.300781 C 47.5 183.199219 49.074219 182.78125 49.417969 181.964844 C 50.445313 179.519531 50.273438 175.976563 54.101563 178 C 54.898438 181.601563 53.898438 185.601563 51.398438 188.101563 C 48.300781 188.398438 44.5 187.300781 42.101563 189.300781 C 47.101563 205 55.601563 219.398438 57.699219 236.300781 C 59 238.5 61.398438 240.601563 63.199219 242.101563 C 86 245 104.800781 232.898438 118.601563 215.199219 C 131.726563 197.34375 137.011719 176.230469 142.578125 155.273438 C 146.601563 140.132813 149.144531 121.621094 142.5625 104.777344 C 137.292969 91.300781 127.871094 79.628906 115.402344 71.027344 C 111.703125 68.480469 110 64.699219 110 64.699219 C 97.5 67.398438 86 63.5 75 60.398438 L 75 57.101563 C 86.699219 56 103.199219 70.699219 110.199219 53.699219 C 111.320313 43.605469 99 47.199219 99 47.199219 C 99.199219 44.601563 98.101563 40.5 101.601563 40 C 103.5 39.300781 105.398438 39.300781 107.398438 40 C 111.199219 42 113.199219 47.898438 117.898438 48.199219 C 119.699219 47.300781 122.101563 47.898438 124.199219 47.699219 L 124.199219 54.898438 C 121.800781 54.398438 118.199219 56.101563 117 53.5 C 111.316406 55.988281 113.683594 62.214844 118.398438 65.699219 C 144.898438 84.699219 156.199219 115.601563 149.601563 146.601563 C 141.398438 182.601563 131.898438 223.199219 94.601563 242.101563 C 95.898438 245.800781 90.699219 250.5 96.101563 252.199219 C 115.21875 258.050781 111.425781 279.859375 107 286.5 C 101.804688 294.292969 89.507813 295.347656 79.5 289.398438 C 70.722656 281.171875 73.59375 264.523438 83.554688 254.554688 C 85.226563 252.882813 86.277344 251.003906 85.300781 248.300781 C 83.53125 245.472656 80.792969 245.664063 77.945313 246.195313 C 75.953125 246.566406 62 248 57.699219 246.898438 C 55.898438 245.300781 56.5 241.800781 53.398438 241.898438 C 51.671875 244.402344 53.003906 248.550781 51.015625 250.792969 C 50.703125 251.148438 47.101563 251.5 47.101563 251.5 C 47.800781 244.800781 49 236.699219 47.398438 230.300781 C 47.101563 229.300781 45.898438 228.300781 45 227.699219 C 42.800781 227.699219 41 228.5 39.398438 229.898438 C 39.800781 234.300781 42 238.601563 42.601563 243.300781 C 43.601563 249.101563 43.5 255.101563 43.5 260.800781 C 42.699219 261.300781 41.601563 261 40.601563 261.101563 Z M 64.390625 227.078125 C 59.933594 216.835938 57.070313 205.980469 51.898438 196 C 53.199219 193.199219 56.699219 193.699219 59.101563 192.699219 C 63.515625 202.941406 64.109375 214.746094 65.496094 226.25 C 65.679688 227.773438 64.933594 228.328125 64.390625 227.078125 Z M 111.898438 86.101563 C 118.5 87.101563 125.199219 91 128.199219 97.398438 C 131.601563 109 134.601563 120.199219 133.5 133.398438 C 127.5 125.199219 116 126.601563 107.101563 127.898438 C 106.199219 125.300781 104.199219 123.300781 103.5 120.699219 C 107.101563 120.699219 110.25 119.25 111.898438 114.699219 C 114 107 93.699219 101.101563 108.601563 96.199219 C 111.601563 93.601563 108.300781 88.199219 111.898438 86.101563 Z M 127.804688 140.613281 C 133.035156 144.703125 135.675781 157.480469 124.84375 161.261719 C 120.214844 162.878906 114.496094 162.027344 112.199219 157.601563 C 111.300781 155.300781 111.800781 152.898438 111.898438 150.398438 C 112.601563 150 113.699219 150.300781 114.601563 150.199219 C 116.699219 152.300781 116.101563 156.199219 119.398438 157.101563 C 126.25 160 134.5 148 123 143.5 C 119.179688 142.527344 114.183594 141.609375 110.105469 142.847656 C 101.121094 145.582031 98.265625 149.484375 97.375 151.953125 C 96.871094 153.359375 90.800781 202.5 90.800781 202.5 C 90.199219 212.398438 89.699219 223.601563 91.300781 233.199219 L 88.199219 233.199219 C 84.199219 204.199219 89.601563 174.898438 94.601563 147.5 C 100.714844 135.832031 123.246094 137.054688 127.804688 140.613281 Z M 129 170.101563 C 129 170.101563 125.25 206.75 99.398438 221.699219 C 99 201.300781 99.898438 181.898438 102.300781 162.398438 C 109.5 168.898438 119 172.898438 129 170.101563 Z M 69.199219 309.300781 C 74.5 305.300781 79.898438 301.5 85.800781 298.699219 C 87.800781 298.300781 88.800781 299.199219 88.601563 301.101563 C 88.199219 306.601563 81.800781 305.199219 78.800781 308.101563 L 66.101563 321.800781 C 65 317.5 66.601563 312.800781 69.199219 309.300781 Z M 64.898438 281.898438 C 62.5 274.199219 55.898438 268.300781 54.800781 260.101563 C 58.398438 257.101563 63.300781 259.300781 66.601563 261.5 L 67 282 Z M 70.398438 294.199219 C 71.898438 293.601563 73.5 294.101563 74.699219 295.101563 L 74.699219 295.601563 C 72.699219 296.699219 70.898438 298.199219 68.699219 299 C 67.898438 297.101563 68.898438 295.199219 70.398438 294.199219 Z M 54.191406 341.488281 C 53.945313 342.847656 53.039063 342.808594 52.890625 341.457031 C 49.703125 312.089844 56.796875 280.757813 44.941406 272.839844 C 43.082031 271.59375 41.65625 270.265625 43.300781 267.800781 C 47.996094 267.730469 50.59375 271.527344 52.574219 275.460938 C 56.445313 283.148438 58.800781 315.757813 54.191406 341.488281 Z M 56.5 569.402344 L 50.699219 569.699219 C 47.800781 562.402344 54.199219 557 57.699219 551.699219 C 58.898438 551.402344 59.601563 552.199219 60.800781 551.902344 C 61.199219 557.597656 60.800781 564.800781 56.5 569.402344 Z M 58.601563 423 C 57.898438 441 71.699219 453 74.199219 469.601563 C 79.699219 505.699219 64.800781 535.699219 45.699219 562.699219 C 42 564.902344 36.699219 563.699219 32.5 563.699219 L 32.5 556.199219 C 50.785156 540.589844 66.320313 521.410156 68.894531 498.796875 C 70.953125 480.671875 65.570313 461.101563 55.085938 443.300781 C 44.949219 426.089844 34.328125 409.53125 48.800781 389 L 56.699219 382 C 56.699219 382 60.25 396.75 78.101563 406.699219 C 72.300781 412.101563 61.398438 413.800781 58.601563 423 Z M 170.199219 449.699219 C 174.234375 456.257813 203.398438 452.601563 203.398438 452.601563 C 195 458.5 186 464.699219 178.398438 472.5 C 176.859375 479.6875 194.773438 478.046875 200.199219 478.199219 C 196.898438 484.699219 188.101563 484.601563 186.101563 492.199219 C 186.398438 493.699219 188.101563 495.101563 189.398438 495.800781 C 193.199219 496.800781 196.601563 494.898438 200.199219 495.5 C 201.699219 504.5 184.300781 512.898438 197.101563 520.199219 C 197.5 532.800781 188.5 548.601563 199.300781 559.097656 C 201.199219 572.5 187.300781 588.699219 202.601563 598.5 C 204.199219 600.199219 204.699219 603.101563 204.101563 605.699219 C 202.5 611.101563 194.898438 614.5 197.101563 620.800781 C 202.75 628.5 200.199219 633.898438 200.699219 640 C 196.800781 643.800781 190.300781 642 185.101563 642.199219 C 180.898438 637.800781 184.121094 617.851563 184.492188 614.046875 C 189.027344 567.335938 184.089844 517.742188 159.398438 480.199219 L 147.199219 462.199219 L 115.800781 422.800781 C 142.300781 434.101563 176.199219 428.5 205.800781 427.601563 C 196.96875 433.371094 165.328125 439.960938 170.199219 449.699219 Z M 181.5 394.699219 C 127.5 396 81.40625 376.160156 87.699219 348.699219 C 103 314.601563 141.300781 315.398438 175 315.5 C 174 319.398438 169.699219 322.5 166.601563 324.898438 C 157.898438 331.5 148.199219 336.199219 139.5 342.398438 C 139.398438 344.5 141.800781 345.398438 142.898438 347 C 158.601563 345.398438 173.5 342.101563 189.898438 342.398438 C 187 350.5 159.199219 363.699219 156.101563 370.699219 C 159.101563 376.601563 195 370.199219 206.199219 370.300781 C 200.601563 380.5 189.601563 386.300781 181.5 394.699219 Z M 215.800781 481.398438 C 214.835938 485 213.601563 487.199219 210.300781 486.601563 C 218 465.699219 220.300781 442.601563 234.800781 424.5 C 242.300781 416.199219 252.601563 412.800781 263.800781 412.5 C 245 434.300781 222.898438 454.699219 215.800781 481.398438 Z M 269.601563 344.601563 C 264.992188 320.988281 222.285156 315.191406 212.515625 314.113281 C 209.644531 313.800781 210.433594 313.222656 213.746094 313.246094 C 233.996094 313.371094 253.992188 316.609375 268.601563 330.699219 C 288.660156 350.761719 270.988281 370.816406 244.867188 380.328125 C 241.441406 381.574219 231.960938 385.453125 230.742188 385.714844 C 228.703125 386.15625 227.066406 385.964844 225 385.398438 C 241 374.601563 272.398438 371.601563 269.601563 344.601563 Z M 272.480469 390.519531 C 271.421875 391.160156 270.167969 390.847656 270.722656 390.105469 C 275.59375 383.589844 281.507813 376.085938 284.199219 368.101563 C 284.101563 367 284.601563 365.5 283.699219 364.699219 L 283.300781 364.699219 C 279.265625 373.046875 272.035156 383.660156 262.226563 385.902344 C 261.339844 386.105469 260.894531 385.199219 261.605469 384.636719 C 271.816406 376.578125 283.699219 366.960938 283.699219 353.5 C 283.699219 329.3125 266.664063 303.054688 181.300781 301.601563 C 146.800781 301.800781 114.601563 307.398438 89.101563 329.199219 C 79.898438 338.699219 73.199219 349.898438 75.398438 363.5 C 81.398438 386.5 106.5 392 126.101563 396.398438 C 142.199219 399.300781 159 400.601563 175.5 402.699219 C 166.109375 408.871094 155.769531 409.628906 145.230469 408.414063 C 56.273438 398.191406 48.5625 351.550781 69.699219 327.300781 C 96.5 303.101563 130.800781 296.800781 167.101563 295.601563 C 184.96875 295.335938 202.195313 296.574219 218.929688 298.988281 C 249.582031 303.410156 301.296875 317.878906 302 357.300781 C 301.84375 364.453125 299.8125 370.820313 296.050781 376.449219 C 294.976563 378.0625 293.9375 377.792969 294.527344 376.007813 C 298.0625 365.304688 297.230469 351.871094 291.398438 342.699219 C 290.089844 360.511719 288.425781 380.871094 272.480469 390.519531 Z M 333.898438 557 C 331.800781 552.902344 328.699219 548.601563 325.300781 545.699219 C 320.898438 548.5 325.5 553.097656 324.101563 557 L 317.800781 556 C 317.300781 551.300781 318.5 546.800781 320.5 542.800781 C 308.699219 524 295.5 507 298.601563 480.898438 C 302.300781 456.101563 310.101563 420.898438 285.898438 403.898438 C 295.800781 395.5 308.5 386.199219 313 373.898438 C 326.300781 382.601563 326.699219 400.601563 323.800781 415.398438 C 316.601563 450.5 295.300781 496.601563 322.601563 529.398438 C 328.699219 537.101563 336.5 542.800781 344.5 547.101563 C 346.101563 548.601563 346.898438 550.5 346.898438 552.597656 C 343.101563 555.5 339 558 333.898438 557 "/>
<path style=" stroke:none;fill-rule:nonzero;fill:rgb(0%,0%,0%);fill-opacity:1;" d="M 290.199219 402.699219 L 302.5 418.5 C 301.199219 411.5 297.5 405.5 295 399.101563 C 293.375 400.25 291.800781 401.5 290.199219 402.699219 "/>
<path style=" stroke:none;fill-rule:nonzero;fill:rgb(0%,0%,0%);fill-opacity:1;" d="M 317.101563 420.601563 C 319.398438 408.699219 324.898438 391.601563 314.199219 381.800781 L 313.300781 383.5 C 320.375 392.75 314.75 420.5 317.101563 420.601563 "/>
<path style=" stroke:none;fill-rule:nonzero;fill:rgb(0%,0%,0%);fill-opacity:1;" d="M 80.5 280 C 85.410156 291.957031 102.222656 289.175781 105.398438 277.601563 C 106.800781 271 104.800781 264.398438 99.699219 259.898438 C 95.699219 256.5 88.699219 256.800781 85 260.601563 C 79.898438 265.601563 77.699219 273.199219 80.5 280 Z M 96.101563 267.101563 C 96.449219 275.628906 87.265625 282.375 86.699219 276.699219 C 86.421875 273.703125 91.878906 261.726563 96.101563 267.101563 "/>
<path style=" stroke:none;fill-rule:nonzero;fill:rgb(0%,0%,0%);fill-opacity:1;" d="M 42.800781 221.5 C 45.300781 220.898438 46.800781 222.5 48.601563 223.601563 C 43.480469 206.601563 39.03125 189.351563 30.441406 173.757813 C 29.632813 172.289063 28.742188 172.730469 29.148438 174.40625 C 33.25 191.464844 36.101563 209.089844 40.199219 226.300781 C 41 224.699219 41.101563 222.699219 42.800781 221.5 "/>
<path style=" stroke:none;fill-rule:nonzero;fill:rgb(0%,0%,0%);fill-opacity:1;" d="M 48.800781 397.601563 L 56 395.25 C 58.699219 394.648438 53.898438 390.699219 53.101563 389.5 C 51.398438 392 49.800781 395.199219 48.800781 397.601563 "/>
<path style=" stroke:none;fill-rule:nonzero;fill:rgb(0%,0%,0%);fill-opacity:1;" d="M 60.601563 401.898438 L 57.898438 411.300781 C 60.898438 410.398438 64.199219 408.898438 66.101563 406.300781 C 64.300781 404.601563 62.699219 402.601563 60.601563 401.898438 "/>
<path style=" stroke:none;fill-rule:nonzero;fill:rgb(0%,0%,0%);fill-opacity:1;" d="M 50 409.601563 C 48.5 414 47.75 422.75 51.898438 422.800781 C 52.199219 417.199219 52.898438 411.300781 52.601563 406 L 50 409.601563 "/>
</g>
</svg>
