<?xml version="1.0" encoding="UTF-8"?>
<svg xmlns="http://www.w3.org/2000/svg" xmlns:xlink="http://www.w3.org/1999/xlink" width="522pt" height="480pt" viewBox="0 0 522 480" version="1.1">
<g id="surface1">
<path style=" stroke:none;fill-rule:nonzero;fill:rgb(0%,0%,0%);fill-opacity:1;" d="M 502.390625 22.054688 C 496.179688 22.054688 490.871094 26.375 487.539063 31.414063 L 450.550781 31.414063 C 450.011719 24.214844 441.730469 26.824219 437.410156 25.296875 C 430.660156 22.507813 431.472656 14.585938 428.140625 9.367188 C 414.28125 -2.425781 390.25 -1.792969 375.398438 7.207031 C 367.300781 10.355469 369.28125 19.714844 362.261719 24.035156 C 348.671875 31.597656 332.648438 24.9375 317.53125 27.277344 L 311.859375 20.976563 C 305.976563 16.179688 297.28125 19.445313 291.609375 24.484375 C 284.433594 30.960938 279.113281 59.105469 305.199219 61.207031 C 310.328125 61.207031 314.648438 58.867188 317.710938 54.457031 L 363.699219 56.4375 C 366.851563 59.855469 368.019531 64.085938 371.078125 67.414063 L 370 112.597656 C 374.285156 114.554688 375.902344 117.75 376.363281 121.480469 C 377.128906 127.699219 374.679688 135.398438 376.03125 141.304688 C 373.421875 145.085938 368.738281 144.636719 364.78125 145.894531 C 357.132813 149.136719 356.140625 157.507813 356.589844 165.335938 C 361.722656 178.746094 361.269531 193.6875 361.179688 209.347656 C 361.179688 209.347656 357.238281 211.089844 356.289063 211.273438 C 351.722656 212.160156 347.691406 215.488281 344.710938 219.066406 C 344.425781 230.886719 334.609375 234.375 326.527344 239.621094 C 315.789063 246.59375 314.042969 258.617188 320.367188 266.609375 C 323.605469 270.703125 327.296875 274.6875 326.980469 280.175781 C 324.371094 289.804688 315.335938 293.835938 306.101563 294.035156 L 129.789063 294.484375 C 103.78125 295.835938 83.082031 309.964844 62.832031 325.355469 C 56.441406 327.066406 49.058594 326.257813 43.03125 328.777344 C 36.910156 332.734375 34.210938 339.304688 30.070313 344.527344 C 29.351563 352.175781 20.53125 349.386719 16.210938 352.804688 C 8.5625 358.746094 10.628906 369.996094 12.789063 377.824219 C 8.742188 379.894531 4.601563 382.59375 1.71875 386.648438 C -1.789063 393.933594 6.582031 398.433594 8.648438 404.375 C 6.941406 410.316406 11.171875 414.726563 14.050781 419.316406 C 39.875 445.140625 103.109375 440.140625 123.761719 422.734375 C 123.671875 414.636719 125.109375 404.914063 116.828125 400.328125 C 113.320313 395.828125 115.929688 390.425781 117.910156 386.015625 C 127 369.363281 146.441406 368.285156 163.722656 366.847656 C 209.53125 365.855469 251.5625 375.304688 293.140625 385.386719 C 304.300781 388.804688 315.820313 391.328125 326.621094 395.734375 C 326.980469 397.984375 325.8125 399.515625 324.460938 400.957031 C 312.671875 404.195313 303.488281 415.984375 296.5625 425.796875 C 291.609375 424.804688 287.5625 427.863281 284.230469 430.925781 C 282.339844 436.054688 284.949219 440.914063 285.3125 445.863281 C 330.3125 487.355469 407.71875 487.550781 461 465.5 C 470.808594 460.550781 484.121094 455.046875 488.800781 443.527344 C 490.960938 438.398438 487.179688 434.707031 483.851563 431.375 C 479.710938 427.777344 474.039063 426.335938 468.460938 427.507813 C 463.78125 417.964844 454.328125 407.527344 442.8125 407.613281 C 439.03125 406.445313 438.488281 402.398438 438.222656 398.976563 C 447.039063 394.296875 458.019531 389.078125 461.351563 378.457031 L 460.269531 307.804688 C 457.0625 306.527344 455.421875 304.460938 454.652344 301.964844 C 452.882813 296.207031 455.140625 281.707031 455.140625 281.707031 C 458.472656 280.804688 461.351563 277.925781 463.511719 275.046875 C 468.371094 267.664063 469.898438 256.597656 465.671875 248.496094 C 462.25 241.835938 455.230469 238.414063 448.390625 237.246094 C 442.359375 234.816406 445.0625 227.347656 441.910156 222.9375 C 424.539063 212.046875 433.988281 190.445313 430.480469 173.527344 C 434.441406 169.65625 438.398438 165.425781 438.222656 159.664063 C 438.398438 150.304688 429.039063 144.546875 421.660156 141.574219 C 423.191406 134.015625 420.488281 126.816406 421.390625 119.257813 C 422.019531 115.117188 424.8125 110.707031 428.949219 109.175781 C 431.472656 96.035156 429.039063 81.007813 433.539063 68.765625 C 442.988281 45.636719 470.441406 59.675781 489.25 55.984375 C 492.039063 58.414063 495.011719 60.394531 498.519531 61.207031 C 506.351563 62.644531 514.089844 60.394531 518.859375 54.097656 C 525.96875 41.628906 521.53125 21.730469 502.390625 22.054688 Z M 305 48.941406 C 301.09375 48.941406 297.929688 44.828125 297.929688 39.75 C 297.929688 34.671875 301.09375 30.558594 305 30.558594 C 308.90625 30.558594 312.070313 34.671875 312.070313 39.75 C 312.070313 44.828125 308.90625 48.941406 305 48.941406 Z M 352.898438 45.457031 C 342.820313 46.085938 333.101563 44.464844 323.382813 43.476563 C 323.5625 40.597656 323.472656 37.445313 325.898438 35.734375 C 335.171875 34.746094 344.078125 37.445313 352.898438 36.816406 Z M 413.648438 13.414063 C 415.449219 16.386719 411.398438 17.554688 409.960938 19.535156 L 386.019531 19.535156 C 384.3125 18.726563 384.039063 17.015625 384.039063 15.394531 C 392.679688 10.535156 403.75 12.785156 413.648438 13.414063 Z M 63.226563 340.746094 C 82.777344 316.671875 103.6875 309.15625 144.730469 304.835938 C 169.03125 303.394531 193.960938 302.945313 217.898438 303.484375 L 280.359375 305.644531 C 298.988281 306.457031 321.578125 310.863281 333.910156 294.484375 L 338.050781 285.574219 C 345.160156 289.625 353.710938 290.074219 361.8125 291.875 C 375.039063 293.585938 388.8125 295.476563 402.222656 295.746094 C 402.578125 298.175781 399.789063 298.535156 398.261719 299.164063 C 383.320313 302.585938 365.949219 300.425781 351.191406 304.386719 C 349.121094 305.285156 346.871094 305.914063 345.160156 307.625 C 385 327.5 380.800781 332.914063 380.800781 332.914063 C 362.621094 332.464844 346.238281 322.566406 326.800781 324.726563 C 323.828125 325.535156 321.039063 326.613281 318.789063 329.226563 C 328.78125 341.554688 354.699219 357.304688 354.699219 357.304688 C 343.335938 364.5 299.621094 341.375 274.78125 326.886719 C 272.351563 326.527344 269.472656 325.535156 267.222656 326.886719 C 265.960938 327.695313 264.789063 328.957031 264.339844 330.304688 L 280.988281 348.847656 C 278.5625 350.285156 275.5 349.027344 272.800781 349.113281 C 245.621094 343.085938 220.328125 332.464844 195.3125 321.484375 C 193.421875 321.757813 192.25 323.914063 190.722656 325.085938 C 195.492188 333.1875 204.3125 336.875 211.691406 341.285156 C 199.628906 342.277344 188.5625 339.664063 177.3125 338.046875 L 129.160156 327.246094 C 125.742188 326.4375 122.140625 326.257813 118.628906 325.804688 C 117.550781 327.425781 114.492188 328.324219 115.390625 330.757813 C 119.738281 333.964844 124.933594 335.195313 129.765625 337.269531 C 131.035156 337.8125 130.273438 339.425781 128.664063 339.433594 C 111.964844 339.53125 95.175781 330.433594 80.558594 341.105469 C 85.691406 350.195313 95.769531 351.097656 104.320313 353.613281 C 94.152344 357.304688 82 357.125 70.839844 358.835938 C 67.242188 359.914063 62.832031 359.734375 60.308594 362.886719 C 60.488281 366.757813 75.613281 369.605469 79.429688 370.332031 C 90.644531 372.46875 81.421875 377.296875 80.109375 378.007813 C 71.558594 381.605469 62.109375 382.863281 54.460938 388.625 C 54.191406 390.605469 56.800781 392.226563 58.332031 393.398438 C 64.179688 396.90625 71.742188 396.183594 78.21875 398.164063 C 78.671875 399.605469 77.5 400.957031 76.691406 402.214844 C 70.570313 408.605469 59.859375 406.535156 52.300781 404.828125 C 49.058594 403.386719 45.191406 402.757813 43.210938 399.425781 C 41.953125 377.535156 49.871094 357.195313 63.226563 340.746094 Z M 435.882813 313.476563 C 439.570313 306.636719 436.78125 297.90625 439.121094 290.527344 C 440.648438 288.546875 443.351563 288.1875 446.050781 288.363281 C 447.3125 300.246094 450.550781 317.164063 438.222656 324.007813 C 425.550781 329.089844 410.097656 326.917969 396.015625 325.996094 C 394.894531 325.925781 395.34375 324.519531 396.777344 324.097656 C 409.84375 320.238281 428.015625 327.34375 435.882813 313.476563 Z M 17.742188 394.925781 C 17.378906 390.066406 17.558594 384.84375 22.242188 382.59375 C 24.039063 382.234375 26.109375 381.785156 26.832031 379.804688 C 28.179688 375.484375 25.75 371.164063 27.191406 366.847656 C 36.730469 357.664063 40.960938 345.875 50.589844 336.605469 L 54.640625 336.605469 C 39.25 353.347656 33.039063 373.957031 25.75 394.027344 C 23.140625 395.285156 20.082031 395.195313 17.742188 394.925781 Z M 106.75 419.046875 C 82.179688 429.578125 47.261719 428.945313 24.402344 415.445313 C 22.058594 412.835938 23.589844 409.863281 23.140625 406.355469 C 24.941406 405.007813 27.550781 404.828125 29.800781 405.277344 C 34.121094 407.707031 37.992188 412.207031 43.03125 413.464844 C 63.191406 419.765625 89.378906 419.226563 107.378906 408.515625 C 108.730469 411.664063 108.550781 416.257813 106.75 419.046875 Z M 444.699219 456.664063 C 450.191406 453.605469 455.679688 450.007813 460.089844 444.785156 C 459.910156 440.648438 457.300781 437.496094 455.5 433.984375 C 450 438.167969 444.339844 438.125 444.339844 438.125 C 446.949219 434.34375 452.621094 430.835938 451.449219 425.796875 C 450.011719 422.828125 447.3125 420.933594 444.519531 419.496094 C 450.191406 419.046875 455.5 419.765625 459.011719 424.085938 C 458.605469 425.53125 458.636719 426.855469 458.945313 428.097656 C 459.59375 430.722656 464.410156 436.148438 464.410156 436.148438 C 469.449219 436.683594 474.488281 437.40625 478.898438 439.566406 C 452.261719 472.957031 406.898438 475.566406 365.859375 470.707031 C 344.441406 467.375 323.5625 462.335938 305.382813 450.816406 C 301.78125 447.847656 297.730469 444.335938 297.820313 439.386719 C 298.449219 435.695313 302.769531 434.078125 305.019531 431.648438 C 309.25 429.578125 313.929688 425.078125 315.371094 420.578125 C 332.964844 433.058594 376.300781 442.679688 398.992188 441.667969 C 404.699219 441.414063 405.042969 442.480469 399.265625 443.390625 C 377.328125 446.851563 367 447.832031 320.320313 431.648438 C 306.964844 427.015625 319.996094 447.890625 334.8125 455.40625 C 367.390625 468.183594 412.300781 471.875 444.699219 456.664063 Z M 429.851563 415.175781 C 431.472656 415.625 430.390625 417.425781 430.480469 418.414063 C 416.441406 430.925781 395.019531 429.578125 377.109375 428.765625 C 361.539063 426.875 346.238281 423.996094 333.101563 416.257813 L 333.730469 413.015625 C 361.988281 424.804688 400.871094 427.148438 429.851563 415.175781 Z M 350.109375 403.113281 L 401.320313 405.90625 C 401.769531 407.078125 399.789063 410.046875 399.789063 410.046875 C 382.328125 409.328125 364.421875 411.578125 350.109375 403.113281 Z M 445.601563 379.535156 C 405.710938 405.78125 361.683594 390.773438 319.65625 378.867188 C 295.417969 371.996094 219.664063 360.289063 196.375 357.484375 C 173.136719 354.683594 146.878906 353.386719 126.191406 361.804688 C 112.496094 368.304688 108.046875 382.191406 103.121094 394.878906 C 102.316406 396.949219 100.953125 396.632813 101.3125 394.496094 C 108.636719 350.972656 142.347656 347.1875 191.621094 352.984375 L 245.800781 360.363281 C 273.25 363.964844 334.148438 379.441406 338.664063 380.5 C 373.570313 388.683594 416.046875 396.570313 444.972656 372.425781 C 443.429688 362.707031 442.613281 350.941406 445.015625 341.089844 C 445.417969 339.445313 447.886719 339.265625 447.976563 341.167969 C 448.601563 354.152344 449.839844 368.078125 445.601563 379.535156 Z M 441.460938 259.296875 C 442.988281 256.957031 444.339844 254.257813 443.441406 251.285156 C 443.261719 249.214844 440.109375 246.785156 442.8125 244.984375 C 447.761719 244.984375 452.890625 246.785156 455.769531 251.464844 C 461.730469 259.34375 454.011719 266.109375 442.828125 271.179688 C 422.605469 280.347656 398.050781 280.914063 375.851563 279.363281 C 359.648438 277.476563 343.988281 273.964844 331.300781 263.976563 C 327.519531 260.105469 327.609375 253.804688 329.589844 249.125 C 331.660156 244.984375 335.800781 242.195313 340.660156 242.824219 C 338.234375 266.574219 373.234375 274.292969 403.03125 272.886719 C 416.890625 270.90625 430.929688 269.285156 441.460938 259.296875 Z M 386.019531 261.457031 C 375.941406 257.855469 365.859375 254.613281 355.511719 251.734375 L 357.488281 236.617188 C 369.820313 232.746094 378.730469 242.285156 387.910156 248.496094 C 387.460938 252.816406 385.300781 256.863281 386.019531 261.457031 Z M 434.171875 233.375 C 427.421875 227.527344 417.160156 230.765625 408.882813 230.945313 L 398.980469 239.855469 C 385.121094 233.195313 371.261719 226.085938 354.882813 226.175781 C 356.410156 223.027344 359.921875 220.414063 363.339844 219.515625 C 365.5 219.246094 367.390625 219.785156 368.921875 221.046875 C 370.359375 225.816406 376.03125 225.097656 379.722656 226.625 C 395.921875 229.507813 412.480469 225.546875 427.421875 221.675781 C 430.660156 225.1875 432.640625 229.144531 434.171875 233.375 Z M 402.851563 201.335938 C 396.011719 203.675781 390.070313 208.085938 382.0625 207.636719 C 385.144531 210.269531 389.359375 211.140625 393.496094 211.304688 C 394.3125 211.335938 400.0625 213.484375 400.0625 213.484375 C 390.972656 215.644531 378.28125 216.277344 369.550781 211.324219 C 369.640625 200.074219 370.269531 190.265625 370.632813 178.925781 C 383.25 187.25 401.769531 187.746094 401.769531 187.746094 C 394.121094 190.265625 385.75 189.90625 377.5625 191.4375 C 380.800781 195.9375 398.890625 201.15625 402.851563 201.335938 Z M 417.699219 180.636719 L 420.941406 179.105469 C 422.5625 190.175781 421.570313 197.824219 421.839844 209.617188 L 418.601563 211.054688 C 416.980469 199.894531 418.0625 192.425781 417.699219 180.636719 Z M 422.472656 157.054688 L 423.371094 150.214844 C 424.1875 150.878906 425.242188 151.304688 426.21875 151.808594 C 435.804688 156.757813 429.960938 165.324219 417.691406 168.535156 C 401.859375 172.671875 382.558594 170.847656 368.921875 163.355469 C 367.210938 160.476563 367.390625 155.617188 369.550781 153.007813 C 373.328125 163.175781 384.222656 166.414063 394.210938 166.597656 C 404.828125 166.957031 414.820313 164.4375 422.472656 157.054688 Z M 382.960938 71.554688 C 386.648438 78.125 393.398438 83.347656 399.789063 86.496094 L 399.789063 87.9375 C 396.28125 88.476563 391.148438 86.585938 389.441406 90.097656 C 389.261719 93.515625 403.75 97.207031 408.25 97.476563 C 404.199219 101.707031 402.5 102.75 392.679688 101.347656 C 392.769531 103.777344 394.75 105.9375 396.820313 107.195313 C 401.050781 108.457031 406 108.1875 410.410156 109.175781 C 411.769531 116.507813 385.796875 114.253906 380.800781 109.804688 C 381.519531 97.296875 379.988281 83.347656 382.960938 71.554688 Z M 412.121094 149.496094 C 411.132813 150.125 409.960938 151.027344 408.699219 151.296875 C 407.621094 142.386719 407.890625 132.394531 408.429688 123.394531 L 410.589844 122.136719 C 409.960938 131.226563 411.671875 140.40625 412.121094 149.496094 Z M 401.949219 72.816406 C 397.449219 70.296875 396.28125 65.257813 396.371094 60.304688 C 396.371094 57.695313 397 55.265625 398.261719 53.195313 C 402.359375 55.886719 407.867188 52.5625 412.035156 53.304688 C 413.726563 53.605469 417.25 63.1875 417.339844 66.605469 C 413.738281 71.914063 407.980469 72.816406 401.949219 72.816406 Z M 399.339844 153.1875 C 394.210938 154.535156 389.890625 151.027344 385.300781 149.496094 L 385.570313 122.765625 C 389.890625 123.394531 393.761719 125.015625 398.53125 124.65625 C 397.449219 133.925781 400.421875 143.375 399.339844 153.1875 Z M 419.679688 107.644531 C 417.070313 101.257813 418.328125 92.976563 419.230469 86.226563 C 423.25 84.25 422.75 106.25 419.679688 107.644531 Z M 419.5 30.515625 C 406.933594 33.996094 391.914063 36.347656 376.660156 27.097656 C 376.75 26.015625 376.480469 24.664063 377.5625 24.214844 C 391.328125 29.707031 410.230469 29.886719 423.550781 23.40625 C 424 23.40625 424.269531 23.945313 424.632813 24.214844 C 423.910156 26.734375 422.109375 29.617188 419.5 30.515625 Z M 436.78125 51.035156 C 433.632813 46.894531 435.429688 40.957031 435.25 36.097656 C 436.511719 35.914063 437.5 36.367188 438.488281 36.996094 C 440.5625 41.046875 437.859375 46.355469 440.019531 50.40625 C 439.300781 51.574219 437.859375 50.855469 436.78125 51.035156 Z M 485.5625 48.425781 C 474.398438 49.414063 463.960938 46.714844 452.980469 47.347656 C 451.632813 46.535156 451.359375 44.914063 451.179688 43.476563 C 460.8125 36.457031 473.949219 40.6875 485.5625 39.785156 Z M 502 51.046875 C 497.703125 51.046875 494.222656 46.773438 494.222656 41.5 C 494.222656 36.226563 497.703125 31.953125 502 31.953125 C 506.296875 31.953125 509.777344 36.226563 509.777344 41.5 C 509.777344 46.773438 506.296875 51.046875 502 51.046875 "/>
</g>
</svg>
