<?xml version="1.0" encoding="UTF-8"?>
<svg xmlns="http://www.w3.org/2000/svg" xmlns:xlink="http://www.w3.org/1999/xlink" width="495pt" height="363pt" viewBox="0 0 495 363" version="1.1">
<g id="surface1">
<path style=" stroke:none;fill-rule:nonzero;fill:rgb(0%,0%,0%);fill-opacity:1;" d="M 487.730469 258.332031 C 489.464844 249.085938 482.023438 242.796875 476.675781 236.078125 C 475.519531 216.570313 473.210938 196.917969 456.882813 184.273438 C 450.882813 178.566406 441.78125 180.375 435.207031 175.964844 C 443.730469 162.671875 448.425781 146.488281 445.246094 129.652344 C 443.367188 111.882813 424.152344 104.800781 409.699219 101.1875 C 393.878906 95.046875 382.316406 107.546875 370.035156 114.046875 C 348.070313 125.753906 367.722656 152.992188 356.453125 169.898438 C 352.335938 170.546875 352.117188 175.242188 350.960938 178.351563 C 350.238281 180.734375 351.902344 183.625 350.601563 186.011719 C 346.410156 191.066406 338.75 188.609375 334.273438 193.449219 C 332.394531 197.210938 329.285156 200.460938 326.976563 204 C 323.144531 209.417969 320.546875 215.414063 318.519531 221.558594 L 311.367188 221.339844 C 309.488281 216.789063 310.789063 211.007813 309.636719 206.09375 C 308.984375 202.769531 305.804688 199.882813 302.914063 198.507813 L 301.542969 191.355469 C 281.527344 165.058594 255.808594 141.140625 245.332031 110.941406 C 241.503906 100.246094 248.078125 90.929688 251.546875 81.824219 C 253.277344 76.839844 253.640625 70.699219 251.90625 65.640625 C 259.109375 60.410156 256.609375 52.960938 255.3125 45.445313 C 252.496094 29.136719 240.203125 7.914063 214.535156 3.421875 C 201.3125 1.109375 187.808594 -2.460938 175.515625 3.03125 C 154.414063 12.457031 147.445313 21.007813 140.511719 43.191406 C 136.980469 54.492188 134.863281 66.355469 137.824219 78.863281 L 125.542969 91.144531 C 102.277344 99.164063 77.785156 104.367188 55.820313 115.636719 L 25.621094 169.390625 L 3.800781 230.730469 C 3.800781 230.730469 -0.460938 255.296875 0.839844 267.867188 C 3.292969 274.226563 0.261719 283.835938 8.136719 287.085938 C 5.390625 290.699219 1.632813 295.035156 4.164063 299.730469 C 14.855469 313.316406 28.796875 324.511719 42.09375 334.914063 C 45.707031 335.207031 50.257813 334.914063 53.726563 336.507813 C 55.746094 337.519531 57.410156 339.035156 58.277344 341.203125 C 59.433594 342.070313 65.277344 341.007813 66 340.5 C 53.210938 328.363281 35.589844 316.996094 23.019531 304.789063 C 23.234375 304.140625 23.957031 299.875 25.476563 298.863281 C 60.949219 300.382813 85.746094 295.085938 120.5 300 C 121.082031 300.242188 128.339844 307.164063 135.464844 311.066406 C 138.9375 312.96875 143.238281 310.867188 140.980469 308.496094 C 137.9375 305.300781 134.324219 301.683594 134.574219 301.101563 C 144.976563 300.597656 155.382813 297.78125 165.929688 299.585938 C 170.046875 300.597656 221.734375 352.457031 225.910156 357.195313 C 228.117188 359.695313 228.769531 357.152344 228.769531 357.152344 C 228.769531 357.152344 224.40625 346.261719 225.441406 346.101563 C 227.855469 345.726563 230.417969 346.347656 233.050781 346.042969 C 233.972656 346.796875 238.441406 350.722656 242.371094 354.066406 C 245.214844 356.488281 243.722656 352.710938 243.722656 352.710938 L 239 346.5 C 249.980469 343.96875 257.613281 346.476563 269.464844 346.042969 C 273.515625 348.863281 277.351563 352.511719 281.316406 355.589844 C 283.859375 357.558594 283.382813 354.617188 283.382813 354.617188 L 276.183594 347.414063 C 285.273438 345.964844 295.183594 345.246094 303.550781 348.882813 C 306.023438 349.957031 322.566406 359.121094 328.203125 362.875 C 325.167969 357.675781 322.132813 352.472656 318.015625 347.777344 L 338 347 C 342.480469 350.828125 350 358 356.453125 358.179688 C 354.503906 353.988281 350.238281 351.101563 346.914063 347.414063 C 348.867188 346.476563 350.890625 345.753906 352.839844 345.03125 C 354.429688 333.398438 348.792969 319.164063 357.683594 310.136719 L 358.042969 310.136719 L 393.246094 340.207031 C 393.246094 340.207031 396.84375 340.03125 395.105469 337.8125 C 388.589844 329.5 369.507813 317.46875 360.5 306.523438 C 359.921875 303.199219 362.523438 300.742188 363.96875 297.996094 C 370.613281 297.78125 398.65625 327.105469 409.042969 335.09375 C 410.6875 336.355469 413.710938 335.414063 411.347656 332.539063 C 403.125 322.535156 379.597656 303.875 366.351563 294.167969 C 367.507813 291.785156 368.878906 289.472656 370.179688 287.085938 C 385.066406 293.324219 397.648438 305.160156 411.109375 315.03125 C 412.148438 315.796875 414.121094 314.132813 411.496094 311.460938 C 403.621094 303.457031 382.878906 290.195313 371.554688 283.257813 C 379.355469 277.550781 387.664063 283.980469 394.601563 287.085938 C 394.671875 285.644531 395.683594 280.726563 396.695313 280.65625 C 402.550781 282.898438 410.496094 282.171875 416.492188 282.03125 C 433.714844 284.273438 466.777344 276.390625 475.089844 277.40625 C 484.480469 284.917969 469.609375 288.617188 472.5 297 C 473.296875 298.226563 469.578125 303.710938 469 304 C 465.675781 306.3125 471.617188 306.738281 470.898438 310.136719 C 474.21875 312.15625 482.707031 312.238281 483.054688 311.527344 C 487.160156 303.089844 485.5 291.976563 494.160156 285.714844 C 495.535156 275.09375 481.15625 268.878906 487.730469 258.332031 Z M 371.554688 128.425781 C 373.070313 129.003906 374.011719 127.054688 375.238281 126.332031 C 374.441406 124.597656 373.574219 122.71875 374.152344 120.621094 C 377.042969 117.300781 382.101563 118.601563 385.785156 116.792969 C 387.738281 116.359375 388.171875 113.6875 390.121094 113.324219 C 393.519531 112.605469 398.574219 114.480469 400.019531 110.578125 C 401.96875 110.796875 404.425781 109.929688 405.726563 111.808594 C 407.820313 110.148438 410.496094 109.207031 413.386719 109.859375 C 418.878906 112.097656 422.921875 117.804688 428.773438 119.25 C 437.949219 128.933594 437.808594 142.804688 437.660156 156.53125 L 435.207031 156.53125 C 436.359375 152.558594 433.6875 149.523438 430.726563 147.140625 C 426.605469 143.816406 420.394531 145.695313 415.625 144.25 C 412.953125 145.550781 410.207031 150.246094 407.460938 145.984375 C 397.128906 137.3125 385.785156 125.175781 371.554688 130.882813 Z M 357.898438 184.996094 C 358.332031 184.273438 359.054688 183.335938 359.921875 183.265625 C 363.976563 182.859375 375.238281 195.546875 375.238281 195.546875 C 380.007813 205.734375 371.046875 213.679688 368.953125 222.785156 L 349.371094 222.785156 L 349.226563 219.460938 C 358.839844 216.355469 360.425781 205.085938 368.953125 200.027344 C 364.835938 195.328125 353.707031 192.800781 357.898438 184.996094 Z M 333.261719 215.992188 C 335.355469 208.1875 337.234375 198.003906 346.769531 195.546875 C 350.527344 194.824219 356.453125 201.109375 356.453125 201.109375 C 348.433594 208.550781 342.871094 221.050781 331.527344 222.785156 C 331.671875 220.6875 332.828125 218.304688 333.261719 215.992188 Z M 299.085938 221.339844 L 273.582031 220.183594 C 281.167969 214.402344 289.621094 210.644531 297.714844 206.09375 C 298.148438 211.226563 298.867188 216.355469 299.085938 221.339844 Z M 255.882813 155.519531 C 256.023438 164.191406 257.613281 174.015625 253.855469 181.675781 C 254.941406 182.46875 255.882813 185.359375 257.613281 183.769531 C 263.757813 181.167969 262.601563 174.160156 266.140625 170.042969 C 269.679688 178.421875 264.621094 186.585938 261.300781 193.8125 C 261.660156 195.039063 263.25 194.390625 264.046875 194.316406 C 267.441406 193.019531 275.097656 181.3125 279.144531 181.820313 C 277.195313 187.816406 275.027344 193.738281 270.980469 198.796875 C 272.570313 200.242188 282.324219 190.128906 287.960938 192.800781 C 287.960938 192.800781 270.980469 210.066406 261.300781 214.113281 C 254.289063 208.550781 245.980469 206.167969 238.253906 202.265625 C 242.082031 191.71875 250.316406 158.480469 255.882813 155.519531 Z M 190.203125 177.484375 C 187.386719 172.355469 186.089844 166.355469 186.738281 160 C 191.433594 160.867188 194.902344 157.613281 197.285156 154.074219 C 199.816406 150.460938 200.753906 146.128906 202.488281 142.152344 C 208.410156 148.367188 199.453125 161.734375 210.796875 163.972656 L 213.394531 149.648438 C 213.394531 149.648438 215.035156 145.667969 215.308594 149.015625 C 215.53125 151.765625 216.257813 155.085938 218.960938 156.386719 C 221.5625 156.894531 222.203125 147.480469 224.5 146.335938 C 229.777344 143.695313 227.242188 154.984375 226.949219 163.003906 C 226.910156 164.101563 228.5625 164.03125 229.226563 162.847656 C 234.75 152.953125 234.769531 136.253906 242.585938 135.578125 C 241.863281 160.578125 233.917969 182.613281 222.933594 203.351563 C 216.503906 216.5 209.28125 229.285156 204.726563 243.230469 C 199.671875 243.085938 194.035156 239.039063 189.121094 242.003906 L 190.351563 230.730469 Z M 183.054688 139.695313 L 188.832031 139.695313 L 188.832031 152.558594 L 184.496094 152.558594 C 185.582031 147.859375 181.753906 144.320313 183.054688 139.695313 Z M 230.738281 215.632813 C 234.351563 216.859375 238.035156 217.871094 241.503906 219.316406 C 236.949219 229.792969 231.820313 240.773438 226.980469 251.539063 C 226.1875 251.902344 220.910156 248.214844 218.601563 248.070313 Z M 147.722656 95.839844 C 151.460938 96.761719 157.273438 94.144531 159.839844 97.03125 C 161.167969 98.527344 163.082031 99.199219 164.828125 98.113281 C 165.980469 97.394531 166.265625 92.953125 168.5 90.5 C 169.945313 86.671875 166.796875 76.117188 171.855469 75.035156 C 177.5 74.664063 179.585938 79.222656 179.585938 79.222656 C 183.054688 82.980469 185.511719 90.785156 192.085938 89.265625 C 195.480469 88.472656 198.441406 84.785156 199.382813 81.609375 L 199.382813 77.777344 C 202.992188 73.15625 208.410156 69.6875 211.375 64.628906 C 219.828125 61.59375 236.378906 64.089844 244.835938 64.664063 C 247.988281 74.390625 245.164063 82.664063 237.039063 94.691406 C 233.5 103 234.164063 106 233.5 118 C 231.164063 121 225.027344 115.609375 224.203125 116.902344 C 223.203125 118.472656 222.335938 122.597656 220.835938 123.664063 C 217.003906 122.945313 214.835938 120.664063 209.5 118 C 208.558594 118.722656 209.164063 123.335938 214.835938 127.335938 C 215.929688 128.109375 214.550781 129.714844 212.707031 131.25 C 211.226563 132.484375 211.164063 139.335938 207.164063 140 C 191.996094 142.167969 187.675781 113.613281 172.867188 115.636719 C 169.253906 118.238281 171.347656 122.355469 170.769531 126.1875 L 162.316406 126.1875 C 155.019531 117.082031 146.78125 108.339844 147.722656 95.839844 Z M 131.972656 93.964844 C 137.390625 108.125 144.253906 121.707031 154.296875 133.988281 C 155.761719 135.5625 159.214844 135.789063 160.058594 137.605469 C 160.339844 138.210938 160.328125 138.992188 159.859375 140.058594 C 159.859375 140.058594 153.214844 146.5625 149.964844 149.089844 C 147.867188 138.613281 140.425781 130.378906 135.441406 121.128906 C 132.695313 112.746094 131.25 103.570313 131.972656 93.964844 Z M 80.097656 130.664063 C 82.550781 136.808594 89.273438 160.070313 96.0625 160 C 99.699219 154 90.679688 135.296875 86.226563 125.796875 C 85.371094 123.96875 86.308594 122.273438 87.746094 124.390625 C 92.984375 132.09375 101.449219 152.726563 107.117188 161.226563 C 109.140625 159.636719 111.234375 158.265625 113.1875 156.53125 C 108.417969 142.730469 103.648438 128.859375 94.980469 116.648438 L 101.050781 117.878906 C 107.625 128.859375 110.007813 141.574219 119.113281 151.472656 L 119.472656 151.472656 L 122.074219 147.859375 L 112.320313 121.347656 C 110.730469 119.539063 116.066406 116.8125 117.242188 118.957031 C 122.414063 128.375 128.929688 149.152344 129.613281 148.179688 C 130.625 146.746094 131.363281 145.023438 133.128906 144.25 C 131.980469 141.011719 125.660156 127.917969 124.5 124.664063 C 121.8125 117.148438 123.296875 114.378906 127.164063 121.335938 C 133.007813 131.839844 141.320313 155.304688 146.492188 166.066406 C 149.816406 162.023438 154.371094 158.480469 159.859375 160 L 158.488281 226.398438 C 158.632813 233.695313 158.777344 241.136719 159.714844 247.929688 C 157.261719 248 154.371094 248.214844 152.417969 246.699219 C 148.230469 248.578125 150.394531 257.175781 144.109375 253.996094 C 143.097656 254.070313 139.835938 258.199219 139.835938 258.199219 L 135.441406 256.234375 C 136.449219 250.816406 133.707031 246.121094 133.128906 240.992188 C 132.550781 240.847656 129.464844 246.644531 127.933594 248.101563 C 127.269531 248.730469 124.457031 242.363281 121.855469 240.773438 C 114.34375 242.21875 118.75 253.78125 110.296875 252.769531 L 107.335938 251.683594 C 107.117188 249.660156 107.914063 246.84375 105.964844 245.832031 L 101.265625 245.832031 C 100.472656 242.941406 102.277344 238.679688 99.675781 236.078125 C 96.425781 236.511719 96.425781 240.414063 93.824219 242.003906 C 90.71875 241.570313 87.320313 243.160156 85.296875 240.628906 C 86.597656 231.597656 86.816406 222.136719 93.824219 215.488281 C 98.882813 182.253906 82.046875 155.953125 75.402344 126.546875 C 78.867188 124.597656 78.867188 129.148438 80.097656 130.664063 Z M 27.933594 185.285156 L 34.144531 179.578125 C 41.371094 162.023438 42.671875 141.503906 59.648438 128.425781 C 65.824219 136.800781 69.980469 146.054688 73.300781 155.621094 C 73.90625 157.359375 72.984375 158.628906 71.882813 157.613281 C 69.089844 155.03125 65.980469 152.933594 62.613281 151.691406 C 61.527344 151.472656 61.238281 152.558594 60.878906 153.207031 C 58.925781 159.277344 74.449219 175.585938 77.234375 180.808594 C 78.15625 182.535156 77.765625 183.90625 76.359375 183.253906 C 74.535156 182.402344 65.789063 175.460938 62.394531 175.75 L 62.394531 176.328125 C 66.800781 184.132813 71.210938 191.933594 77.855469 198.796875 L 77.855469 204.578125 C 72.222656 202.480469 67.742188 198.363281 63.117188 194.175781 C 61.960938 195.328125 60.371094 196.125 59.648438 197.640625 C 66.367188 205.300781 73.664063 212.8125 75.039063 222.785156 C 65.933594 218.738281 61.457031 207.972656 53.363281 202.480469 L 50.761719 206.816406 C 54.738281 215.269531 61.527344 224.878906 70.558594 228.996094 C 70.777344 230.441406 70.34375 231.597656 69.332031 232.464844 L 52.207031 220.183594 C 50.90625 220.835938 50.402344 222.136719 49.753906 223.289063 C 48.8125 226.613281 55.492188 229.050781 58.167969 231 L 58.167969 234 C 47.257813 229.882813 29.230469 227.046875 15.9375 227.410156 C 25.402344 215.632813 22.367188 198.726563 27.933594 185.285156 Z M 45.472656 241.078125 C 46.300781 241.375 46.074219 242.203125 45.164063 242.308594 C 38.648438 243.054688 31.753906 243.953125 24.96875 244.460938 C 20.203125 246.191406 18.105469 254.355469 11.964844 251.539063 C 13.847656 234.222656 32.320313 236.332031 45.472656 241.078125 Z M 137.175781 287.953125 L 87.753906 287.953125 C 77.351563 293.226563 65.070313 288.316406 53.941406 288.097656 C 43.867188 286.96875 32.542969 287.644531 23.242188 283.59375 C 9.054688 277.421875 5.757813 267.890625 22.128906 260.253906 C 29.277344 256.914063 36.925781 254.789063 44.1875 251.683594 C 51.269531 250.816406 60.445313 248.359375 65.71875 254.503906 C 81.613281 252.695313 94.257813 260.933594 108.707031 263.824219 C 123.15625 260.066406 200.246094 251.179688 222.066406 263.675781 C 224.234375 271.625 218.382813 277.550781 216.578125 284.484375 C 212.53125 290.699219 204.003906 288.171875 197.648438 288.964844 C 192.230469 288.964844 186.882813 287.664063 181.316406 287.449219 C 166.796875 285.929688 151.625 287.230469 137.175781 287.953125 Z M 217.226563 338.746094 L 211.375 332.675781 L 184.496094 302.695313 C 190.0625 302.261719 196.417969 303.707031 201.261719 301.464844 C 206.171875 312.085938 219.898438 317.503906 221.777344 329.570313 C 221.640625 331.859375 218.152344 337.792969 217.226563 338.746094 Z M 227.992188 315.84375 C 226.546875 315.554688 220.695313 309.773438 218.601563 307.535156 L 251.546875 228.996094 C 255.882813 229.144531 257.902344 233.839844 261.082031 236.296875 C 252.628906 263.894531 238.105469 288.964844 227.992188 315.84375 Z M 264.40625 337.371094 C 256.171875 337.011719 247.859375 336.652344 239.625 336.359375 C 239.40625 332.027344 240.5625 327.765625 240.636719 323.355469 L 341.714844 323.5 C 342.074219 328.414063 342.4375 332.460938 342.941406 337.519531 Z M 376.25 254.285156 C 373.792969 252.984375 371.335938 250.09375 368.300781 251.683594 C 367.433594 252.550781 366.496094 253.417969 366.207031 254.503906 C 368.375 257.175781 372.78125 258.621094 372.273438 262.664063 C 365.269531 263.894531 360.355469 256.597656 353.851563 260.355469 C 353.851563 260.355469 358.910156 268.519531 359.414063 269.242188 C 361.222656 271.480469 359.632813 274.589844 360.136719 277.40625 C 352.910156 279.5 349.589844 269.964844 342.941406 269.601563 C 341.714844 269.675781 340.414063 268.375 339.328125 269.601563 C 341.496094 274.296875 348 277.621094 346.914063 283.257813 C 340.484375 285.136719 336.945313 277.769531 333.40625 273.722656 C 332.25 274.445313 331.886719 275.742188 332.175781 276.828125 C 332.828125 277.910156 341.0625 288.460938 341.714844 293.878906 C 327.191406 293.734375 318.304688 278.921875 307.902344 269.746094 C 306.601563 270.976563 304.9375 272.277344 303.925781 273.9375 C 316.066406 282.535156 325.746094 294.890625 332.175781 307.171875 C 331.238281 307.824219 329.433594 307.605469 328.203125 307.390625 C 313.03125 290.339844 297.207031 273.503906 279.144531 260.570313 L 278.277344 261.800781 C 283.480469 272.851563 312.234375 301.320313 315.054688 307.390625 C 304 309.484375 299.882813 294.3125 289.550781 295.253906 C 288.539063 295.46875 287.671875 296.117188 286.804688 296.625 L 297.714844 307.535156 C 296.339844 309.703125 294.464844 312.375 291.789063 312.734375 C 283.265625 312.589844 279.289063 300.597656 270.835938 301.320313 C 270.402344 302.113281 269.535156 303.054688 270.113281 304.066406 C 271.34375 306.957031 278.132813 307.316406 275.171875 311.507813 C 275.171875 311.507813 253.0625 310.855469 242.875 309.773438 L 248.4375 296.984375 L 273.222656 239.765625 C 275.75 239.691406 377.261719 240.992188 377.261719 240.992188 C 376.972656 244.964844 376.609375 250.09375 376.25 254.285156 Z M 376.664063 185.664063 C 376.566406 185.480469 379.109375 185.105469 380.164063 184.335938 C 379.894531 184.53125 385.871094 179.789063 381.164063 180.835938 C 379.664063 181.164063 373.335938 184.335938 373.066406 181.898438 C 372.859375 179.980469 371.339844 178.394531 370.335938 176.835938 C 369.671875 175.804688 368.433594 175.277344 367.433594 174.59375 C 363.164063 171.664063 367.101563 169.230469 368.5 166 C 371.566406 162.242188 369.820313 159.128906 368.730469 155.980469 C 364.976563 145.148438 370.539063 143.527344 370.539063 143.527344 C 386.507813 145.1875 400.308594 152.269531 411.652344 164.839844 C 413.222656 164.355469 414.347656 163.28125 415.34375 162.039063 C 422.546875 153.082031 427.90625 169.75 415.53125 176.222656 C 413.71875 177.167969 420.164063 191 411.796875 194.824219 C 411.21875 195.402344 399.082031 203.640625 392.359375 201.109375 C 392 199.738281 391.640625 198.148438 392 196.773438 C 394.203125 193.558594 398.960938 193.632813 401.128906 190.640625 C 401.59375 190.003906 401.109375 187.484375 400.5625 187.304688 C 396.382813 185.945313 390.628906 191.949219 386.664063 192.335938 C 383.191406 192.535156 383.613281 189.410156 380.664063 187.835938 C 379.953125 187.453125 377.835938 187.835938 376.664063 185.664063 Z M 378.707031 221.195313 C 381.308594 217.800781 382.464844 210.71875 388.746094 212.886719 C 393.011719 216.355469 400.164063 216.714844 404.859375 213.898438 C 422.273438 202.292969 425.816406 194.585938 421.695313 188.25 C 437.445313 184.273438 452.398438 191.210938 461.070313 204.578125 C 465.984375 212.8125 468.65625 222.207031 468.152344 232.464844 C 458.035156 226.832031 450.738281 237.378906 441.128906 237.523438 C 440.191406 236.078125 440.480469 233.839844 441.417969 232.464844 C 443.152344 230.226563 446.839844 228.5625 446.113281 225.167969 C 444.742188 223.144531 442.574219 222.351563 440.40625 222.785156 L 449.800781 214.402344 C 448.644531 213.101563 447.34375 211.441406 445.753906 210.789063 C 444.597656 212.453125 442.71875 212.453125 441.128906 213.03125 C 440.984375 208.839844 442.648438 202.84375 437.660156 201.109375 C 430.871094 207.105469 434.410156 217.4375 430.507813 224.664063 C 427.691406 227.84375 421.476563 225.242188 420.46875 230.226563 C 422.707031 234.054688 430.726563 236.4375 427.402344 242.148438 C 425.089844 241.644531 423.140625 242.871094 421.476563 244.460938 C 423.210938 246.339844 422.5625 249.15625 422.707031 251.683594 C 418.152344 254.429688 415.699219 247.929688 411.796875 246.84375 C 410.785156 248 410.277344 249.519531 409.195313 250.527344 C 406.953125 250.09375 404.644531 251.46875 403.125 249.445313 C 400.453125 251.324219 396.984375 250.3125 393.734375 250.3125 C 392.578125 245.398438 396.046875 236.585938 389.398438 233.1875 C 385.207031 230.082031 377.476563 228.058594 378.707031 221.195313 Z M 460.855469 273.214844 C 454.566406 274.515625 448.066406 273.144531 441.996094 272.347656 C 424.441406 275.457031 407.53125 265.339844 390.84375 272.347656 C 387.882813 268.664063 387.085938 264.183594 387.375 259.199219 C 403.558594 259.34375 419.527344 262.089844 434.339844 258.835938 C 438.746094 257.175781 441.5625 251.105469 447.199219 252.769531 L 454.425781 255.875 C 460.566406 258.402344 468.152344 259.921875 471.476563 266.640625 C 470.175781 268.015625 463.890625 273.214844 460.855469 273.214844 Z M 474.21875 251.683594 C 472.054688 251.828125 459.625 249.445313 457.242188 245.472656 L 457.242188 242.363281 C 463.601563 242.074219 471.402344 242.507813 473.859375 249.300781 C 474.003906 250.09375 474.363281 250.816406 474.21875 251.683594 "/>
<path style=" stroke:none;fill-rule:nonzero;fill:rgb(0%,0%,0%);fill-opacity:1;" d="M 225.390625 79.367188 C 221.78125 78.457031 217.730469 78.933594 214.988281 81.464844 C 220.550781 81.679688 226.039063 83.269531 230.738281 86.160156 C 230.738281 85.222656 233.164063 81.335938 225.390625 79.367188 "/>
<path style=" stroke:none;fill-rule:nonzero;fill:rgb(0%,0%,0%);fill-opacity:1;" d="M 227.125 94.828125 C 227.921875 92.878906 226.621094 91.507813 225.246094 90.277344 C 220.839844 91.652344 213.109375 87.679688 212.386719 88.542969 C 211.039063 92.425781 218.355469 100.53125 227.125 94.828125 "/>
<path style=" stroke:none;fill-rule:nonzero;fill:rgb(0%,0%,0%);fill-opacity:1;" d="M 408.664063 132.335938 L 402.113281 128.425781 C 403.34375 130.519531 404.355469 132.835938 405.871094 134.710938 C 406.234375 134.0625 408.738281 133.128906 408.664063 132.335938 "/>
<path style=" stroke:none;fill-rule:nonzero;fill:rgb(0%,0%,0%);fill-opacity:1;" d="M 431.59375 138.324219 C 429.28125 135.433594 426.605469 132.546875 424.296875 129.800781 C 423.644531 134.496094 426 140 431.59375 138.324219 "/>
<path style=" stroke:none;fill-rule:nonzero;fill:rgb(0%,0%,0%);fill-opacity:1;" d="M 390.84375 161.011719 C 390.339844 158.84375 376 151.164063 373.648438 155.304688 C 373.285156 157.109375 374.082031 158.554688 375.019531 159.855469 C 379.574219 162.09375 390.914063 162.167969 390.84375 161.011719 "/>
<path style=" stroke:none;fill-rule:nonzero;fill:rgb(0%,0%,0%);fill-opacity:1;" d="M 200.835938 170.335938 L 202.34375 162.601563 C 200.753906 163.46875 198.875 163.902344 197.648438 165.199219 C 197.140625 166.429688 199.75 169.613281 200.835938 170.335938 "/>
<path style=" stroke:none;fill-rule:nonzero;fill:rgb(0%,0%,0%);fill-opacity:1;" d="M 107.117188 188.105469 C 108.5625 181.890625 105.835938 167.335938 99.894531 166.214844 C 101.914063 173.652344 99.386719 183.769531 107.117188 188.105469 "/>
<path style=" stroke:none;fill-rule:nonzero;fill:rgb(0%,0%,0%);fill-opacity:1;" d="M 292.148438 257.609375 C 296.988281 257.464844 299.085938 263.824219 303.925781 263.675781 C 306.5 258.5 291.570313 252.550781 283.335938 251.902344 L 283.984375 254.140625 C 285.792969 257.105469 289.261719 256.960938 292.148438 257.609375 "/>
<path style=" stroke:none;fill-rule:nonzero;fill:rgb(0%,0%,0%);fill-opacity:1;" d="M 272.933594 264.183594 C 271.558594 265.773438 270.476563 267.652344 270.980469 269.746094 C 271.703125 270.179688 272.496094 270.324219 273.222656 269.890625 C 273.941406 268.375 275.097656 263.535156 274.449219 262.957031 C 274.449219 262.957031 273.363281 262.664063 272.714844 262.664063 C 272.425781 263.101563 272.496094 263.824219 272.933594 264.183594 "/>
<path style=" stroke:none;fill-rule:nonzero;fill:rgb(0%,0%,0%);fill-opacity:1;" d="M 19.40625 269.890625 C 20.636719 271.410156 22.222656 273.429688 24.464844 272.347656 L 24.246094 266.421875 C 24.246094 266.421875 19.984375 268.085938 19.40625 269.890625 "/>
<path style=" stroke:none;fill-rule:nonzero;fill:rgb(0%,0%,0%);fill-opacity:1;" d="M 58.277344 273.722656 C 62.828125 275.164063 66.800781 277.910156 71.570313 278.777344 L 74.171875 275.960938 L 64.5 272.332031 C 62.332031 272.117188 60.371094 273.503906 58.277344 273.722656 "/>
<path style=" stroke:none;fill-rule:nonzero;fill:rgb(0%,0%,0%);fill-opacity:1;" d="M 268.597656 283.472656 L 266.285156 279.789063 C 265.199219 279.863281 264.40625 280.871094 263.539063 281.738281 C 261.445313 285.066406 261.226563 289.617188 260.433594 293.15625 C 262.816406 295.035156 266.375 298.1875 268.597656 296.625 C 266.789063 294.023438 264.621094 291.640625 263.683594 288.675781 C 263.105469 286.726563 263.898438 284.917969 264.910156 283.472656 L 268.597656 283.472656 "/>
<path style=" stroke:none;fill-rule:nonzero;fill:rgb(0%,0%,0%);fill-opacity:1;" d="M 146.492188 308.90625 L 146.710938 310.351563 C 147.289063 313.746094 152.585938 321.082031 153.789063 317.9375 C 150.972656 315.121094 150.25 310.929688 146.492188 308.90625 "/>
<path style=" stroke:none;fill-rule:nonzero;fill:rgb(0%,0%,0%);fill-opacity:1;" d="M 435.0625 323.140625 L 444.886719 332.675781 C 445.394531 332.820313 447.140625 331.214844 447.5 331 C 445.910156 326.734375 439.902344 323.140625 435.0625 323.140625 "/>
<path style=" stroke:none;fill-rule:nonzero;fill:rgb(0%,0%,0%);fill-opacity:1;" d="M 172.859375 326.132813 C 172.519531 325.878906 172.160156 326.074219 172.328125 326.417969 C 175.328125 332.558594 181.246094 337.84375 186.992188 341.59375 C 187.316406 341.804688 187.59375 341.40625 187.386719 341.011719 C 184.292969 335.078125 178.261719 330.199219 172.859375 326.132813 "/>
<path style=" stroke:none;fill-rule:nonzero;fill:rgb(0%,0%,0%);fill-opacity:1;" d="M 279.289063 328.199219 C 275.835938 331.667969 285.5 333.332031 287.960938 330.292969 C 285.9375 327.980469 281.601563 330.4375 279.289063 328.199219 "/>
<path style=" stroke:none;fill-rule:nonzero;fill:rgb(0%,0%,0%);fill-opacity:1;" d="M 373.648438 345.898438 L 357.898438 330.4375 C 354.5 334.667969 372.164063 351 373.648438 345.898438 "/>
</g>
</svg>
