<?xml version="1.0" encoding="UTF-8"?>
<svg xmlns="http://www.w3.org/2000/svg" xmlns:xlink="http://www.w3.org/1999/xlink" width="456pt" height="685pt" viewBox="0 0 456 685" version="1.1">
<g id="surface1">
<path style=" stroke:none;fill-rule:nonzero;fill:rgb(0%,0%,0%);fill-opacity:1;" d="M 431.898438 120.65625 C 429.300781 118.964844 425.4375 118.621094 422.699219 117.5 C 413.101563 112.699219 401.5 112.800781 392.199219 107.199219 C 386.5 109.800781 382.398438 104.5 376.601563 105.300781 C 373 103.699219 373 99.800781 372.5 96.398438 C 358.199219 76.699219 374.199219 55.199219 377.800781 35.699219 C 379.601563 27.398438 373.398438 21.898438 368.699219 16 C 366.5 11.699219 362.898438 6.800781 357.601563 6.398438 C 350.101563 6.300781 343 5.199219 336 3.5 C 329.699219 -4.800781 321.300781 4.199219 313.5 2.300781 C 308.101563 4.601563 304.300781 10.300781 298.101563 10.5 C 296.199219 10.199219 297.199219 12.398438 296.898438 13.398438 C 291.800781 17.101563 296.699219 23 295.5 27.800781 C 292.898438 30.199219 294.300781 33.5 294.300781 36.699219 C 298.398438 39.800781 295.300781 46.199219 296.898438 50.601563 C 297.101563 58.101563 292.898438 63.800781 293.101563 71.199219 C 293.300781 74.398438 295.601563 77.199219 298.300781 78.898438 C 301.601563 86.898438 302.699219 96.898438 311.800781 101.5 C 312.101563 104 313.398438 107.300781 311.5 109.601563 C 285.5 111.601563 270.898438 137.101563 252 154.300781 C 252.398438 158.601563 248.699219 161.300781 246.300781 164.601563 C 245.898438 168.800781 240.398438 170.800781 239.800781 174.898438 C 235.5 179.199219 230.199219 184.199219 226.398438 189.5 C 206.101563 223.101563 173 253.898438 140.699219 276.199219 C 139.699219 277.800781 141.5 279.101563 140.898438 280.5 L 124.800781 288.898438 C 124.199219 284.800781 129.300781 266.5 129.898438 261.800781 C 124.300781 259.398438 118.5 262.101563 112.800781 262.5 C 110.898438 264.101563 105.5 287.601563 104.699219 297.800781 C 103.601563 299.101563 1 356.300781 1 356.300781 C 1.398438 365.5 4.398438 374.898438 1.199219 383.5 C 6 398.601563 5.5 415 7.199219 431.5 C 12.398438 437.601563 17.800781 443.898438 22.800781 449.898438 L 24.300781 544.699219 C 23.699219 546.800781 22.199219 548.5 22.101563 550.699219 C 26.699219 570 24.101563 592 26.199219 612.597656 C 32.601563 612.300781 37.300781 617.199219 43.5 615.800781 C 45.5 614.699219 46.199219 612.597656 46.800781 610.699219 C 47.898438 567.199219 48.101563 478.800781 49 475.101563 C 49.699219 475.601563 91.5 504.398438 91.5 504.398438 L 86.199219 644.800781 L 91.5 653 C 93.398438 653.699219 108.5 654 111.199219 644.800781 C 112.101563 624.902344 117.199219 525 117.199219 525 L 123.398438 519 C 126.5 543.300781 124.199219 570.5 126.300781 594.597656 C 129.800781 596.699219 132.398438 601.097656 136.800781 600.902344 C 145.800781 600.300781 143 589.902344 146 584.300781 C 142 559.199219 146.398438 532.699219 145 507 C 159.5 495.699219 176.199219 489.601563 192.300781 481.800781 L 195.878906 615.996094 C 195.878906 615.996094 202 623.402344 206 624.199219 C 212.601563 622 220.5 622.300781 225.398438 616.5 C 224.898438 598 221.300781 467.699219 221.300781 467.699219 L 229.699219 462.898438 L 245.101563 419.199219 L 227.601563 387.101563 L 166.882813 316.601563 C 166.882813 316.601563 166.898438 310.601563 169.199219 309.300781 C 178.199219 306.898438 185.199219 299.699219 194.699219 298.699219 C 199.101563 295.398438 205.101563 296 208.800781 290.800781 C 212.800781 289.300781 216.101563 286 220.800781 286.300781 C 240.199219 269 259.5 250.199219 278.699219 233 C 279.300781 249.5 281.398438 266 280.601563 283.398438 L 273.101563 330.898438 C 270.398438 351.699219 271.699219 374.398438 269.300781 395 L 264.300781 462.199219 C 260.699219 509.398438 259.601563 559.5 256.800781 607.097656 C 256.75 630.75 257.699219 638.300781 268.300781 649.601563 C 260.855469 655.746094 252.808594 660.621094 245.203125 666.621094 C 236.117188 673.785156 234.03125 679.824219 250.523438 679.34375 C 273.195313 678.679688 322.898438 666.800781 326.199219 665 C 327.5 666 329.101563 667.300781 329.800781 668.800781 C 329.351563 672.625 326.59375 676.84375 327.351563 679.894531 C 330.484375 692.476563 369.398438 675.800781 369.398438 675.800781 C 387.199219 676 400.601563 665.398438 414.699219 656.800781 L 414.699219 635.398438 L 425.5 621.5 C 426.199219 592.300781 428.898438 477.800781 428.898438 477.800781 L 427.5 404.300781 C 434.199219 398.300781 443.800781 393.199219 447.398438 384.199219 L 448.800781 343.898438 C 454.898438 334.898438 454.101563 323 455.101563 311.898438 C 456.839844 235.4375 453.132813 134.480469 431.898438 120.65625 Z M 312.105469 85.605469 C 312.554688 84.679688 310.1875 82.269531 311.4375 81.855469 C 315.4375 81.355469 319.4375 81.605469 319.886719 78.003906 C 316.9375 78.105469 315.335938 78.332031 312.855469 78.355469 C 309.414063 78.332031 307.78125 78.808594 306.605469 76.6875 C 306.179688 76.261719 307.21875 74.820313 307.144531 74.191406 C 307.042969 73.347656 307.289063 71.972656 306.085938 71.917969 C 304.585938 71.71875 302.398438 70.449219 301.5 69.25 C 302.164063 61.082031 308.386719 57.105469 307.1875 49.003906 C 307.1875 42.703125 305.6875 35.203125 310.285156 30.503906 C 320.6875 28.203125 326.988281 40.105469 337.386719 39.902344 C 342.589844 43.304688 340.589844 50.203125 341.6875 55.503906 C 345.488281 60.804688 349.4375 55.605469 352.785156 53.304688 C 356.1875 51.203125 351.988281 46.804688 355.386719 44.703125 L 362.089844 44.703125 C 365.1875 52.304688 364.386719 63.105469 357.785156 69.203125 C 356.605469 72.382813 356.820313 75.382813 357.472656 78.347656 C 358.425781 82.652344 361.886719 104.203125 365.488281 109.503906 C 363.75 119 361.5 124.75 354.1875 135.605469 C 350.089844 141.003906 345.886719 146.402344 341.6875 151.703125 C 337.988281 139.804688 332.089844 128.804688 327.285156 117.402344 C 328.089844 112.902344 328.5 109.75 329.488281 104.003906 C 338.6875 102.804688 348.589844 97.804688 352.089844 88.402344 C 352.6875 86.105469 349.988281 85.605469 348.886719 84.304688 C 344.886719 86.105469 341.488281 89.605469 336.886719 90.304688 C 332.101563 92.046875 326.527344 92.996094 321.191406 93.234375 C 313.894531 93.5625 310.316406 92.167969 312.105469 85.605469 Z M 116.898438 269.699219 C 118.101563 269.5 119.601563 268.898438 120.800781 269.898438 C 117.898438 277.398438 119.835938 288.335938 113.300781 292.699219 C 113.101563 285.699219 113.199219 276.300781 116.898438 269.699219 Z M 99.898438 317.199219 C 104.105469 306.683594 117.398438 301.898438 117.398438 301.898438 C 125.601563 298.398438 134.199219 296 141.601563 290.800781 C 143.800781 293.101563 146.800781 294.699219 148.101563 297.5 C 146.398438 304.601563 138.101563 308.800781 136.101563 315.800781 C 126.800781 322.898438 114.5 322.601563 105.601563 330.898438 C 103.101563 326.601563 97.199219 323.101563 99.898438 317.199219 Z M 120.300781 343.398438 C 120.199219 339.101563 123.300781 335.699219 126.300781 333.101563 C 129.5 333 132.398438 330 135.601563 332.101563 C 137.300781 335.800781 124.699219 346.300781 120.300781 343.398438 Z M 83.710938 359.050781 C 83.445313 360.074219 80.019531 361.386719 79.351563 361.851563 C 77.355469 363.238281 76.625 367.101563 73.699219 365 C 66.199219 368.398438 59.5 375.101563 50.398438 373.101563 C 50.300781 365.101563 50.601563 357.300781 56.699219 351.800781 C 58.800781 352.601563 62.398438 350.800781 63.199219 353.898438 C 72.300781 350.601563 78.5 339.699219 89.601563 341.699219 C 89.398438 345.5 83.898438 347 83.800781 350.800781 C 83.371094 353.148438 84.363281 356.511719 83.710938 359.050781 Z M 94.398438 381.300781 C 94.601563 382.699219 96.199219 383 97 384.199219 C 103.199219 381.398438 104.601563 370.699219 112.800781 372.398438 C 115.699219 372.398438 119.199219 371.300781 122.199219 372.398438 C 123.398438 372.5 122.699219 374 123.898438 374.101563 C 125.300781 374.199219 130.09375 372.089844 130.882813 370.722656 C 134.3125 364.761719 135.273438 356.367188 144.300781 357.101563 L 146 355.601563 C 148.101563 357 149.5 362.398438 152.398438 358.5 C 155.601563 358 159.101563 358.300781 162 359.199219 C 162.699219 360.800781 163.699219 362.601563 163 364.5 C 161.398438 368.800781 156.5 370.699219 153.898438 374.300781 C 145.199219 377.601563 135.800781 379.101563 128 384.199219 C 124.300781 385 118.300781 382 116.199219 386.800781 C 111.199219 384.699219 107.898438 391 103.199219 387.800781 C 96 394.199219 88.101563 398.898438 78.800781 400.300781 C 78 396.898438 70.5 395.699219 74.699219 392.300781 C 74.699219 392.300781 78.886719 391.378906 80.03125 390.050781 C 83.933594 385.539063 88.0625 381.300781 94.398438 381.300781 Z M 109.5 337.398438 C 108.5 347.398438 112.5 356.601563 109.699219 366.199219 L 107.601563 350.101563 C 104.800781 349.398438 103 353.199219 101.101563 354.898438 C 100.199219 359.800781 100.800781 365.898438 99.601563 370 C 98.300781 363.898438 99.601563 356.800781 95.800781 351.800781 C 88.601563 354.800781 92.800781 364.199219 90.300781 370 C 89.199219 364.199219 88.898438 355.5 91.5 349.601563 C 98.800781 346.699219 99.898438 334.601563 109.5 337.398438 Z M 39.601563 597.800781 C 38.898438 600.097656 38.199219 602.5 38.199219 605.199219 C 36.5 606.5 34.101563 606.597656 32 606.199219 C 29.601563 603.902344 32.601563 600.300781 30.300781 598 C 29.898438 596.5 30.800781 595 32.199219 594.597656 C 27.800781 565.800781 34.601563 535.601563 31 506.800781 C 29.898438 496.398438 30 484.699219 30 473 L 32 471.300781 C 46.601563 482.300781 34.898438 501.800781 37.699219 516.898438 L 40.101563 519.300781 C 40.101563 519.300781 39 589.300781 39.601563 597.800781 Z M 64.601563 475.398438 C 47.5 461.5 27.898438 449.5 14.898438 431.199219 L 14.898438 429.800781 C 18.199219 430.300781 40.101563 453 40.101563 453 C 41.898438 451.601563 43 449.5 44.398438 447.800781 C 34.601563 437.398438 22.5 429.101563 14 417.800781 L 14 414.398438 C 16.398438 415 17 418 18 419.898438 C 34.699219 437 52.699219 451 68.699219 468.398438 C 69.5 464.699219 66.699219 461.800781 64.398438 459 C 61.699219 454.601563 60.5 448.101563 54.5 446.601563 C 40.398438 433.101563 23.898438 419.398438 14 403.601563 L 15.398438 403.601563 C 24.5 412.199219 31 422.398438 41.101563 429.5 C 41.898438 428.699219 41.601563 427.101563 41.300781 426.199219 C 38.199219 416.699219 28.398438 409.898438 23.300781 401.199219 C 20.601563 399.199219 18.300781 396.199219 17.300781 393.101563 C 17.300781 393.101563 17.269531 388.847656 20.207031 392.636719 C 24.914063 398.703125 34.257813 400.597656 36.5 408.898438 C 46.199219 421.398438 59.898438 429.5 68.398438 442.699219 C 80.300781 452.800781 87.199219 467.5 101.101563 474.199219 C 99.800781 481.699219 97.398438 490.300781 99.398438 498.601563 C 86.5 493.898438 77.800781 479.300781 64.601563 475.398438 Z M 104.898438 545.199219 C 104.199219 574.800781 104.300781 606.300781 104 636.398438 C 103.300781 638.699219 102.199219 641.101563 103 643.601563 C 101.199219 644.601563 99.199219 645.300781 97.199219 646 C 94.601563 639.601563 96.199219 631.5 96.800781 624.597656 C 95.898438 596.902344 101.699219 569.398438 97.199219 542.601563 C 99.601563 534.5 96.601563 525.898438 98 517.398438 L 99.398438 517.398438 C 99.398438 518.601563 100.199219 519.800781 101.101563 520.5 C 102.300781 521.101563 103.800781 521.101563 104.699219 522.398438 C 103 530.101563 109.101563 537.898438 104.898438 545.199219 Z M 134.898438 587.199219 C 135.898438 577.101563 133 566.300781 134.699219 556.5 C 133.601563 551.199219 133.601563 545.398438 134.699219 540.199219 L 132.5 514.199219 C 133 513 134.5 512.398438 135.601563 513 C 136.980469 536.773438 136.609375 559.480469 138.714844 582.84375 C 138.742188 583.160156 137.699219 588.5 134.898438 587.199219 Z M 214.601563 611.199219 C 212.699219 611.402344 210.398438 611.097656 209.101563 609.300781 C 208.5 610.300781 207.5 611.300781 206.199219 611.199219 L 206.898438 608.800781 C 204.5 591.199219 203.601563 573 203.101563 554.601563 L 202.601563 485 L 208.800781 478.5 C 211.699219 482.019531 208.800781 485.699219 208.800781 485.699219 L 212.398438 537.300781 C 213.898438 561 215.699219 585.199219 214.601563 611.199219 Z M 230.5 423 C 230.5 423 227.101563 441.199219 224.699219 446.601563 C 212.699219 452.800781 204.800781 466.5 191.601563 470.101563 C 176.699219 477.101563 128 499.300781 119.300781 505.398438 L 114.898438 503 C 117.121094 499.542969 132.359375 495.273438 138.734375 490.632813 C 140.105469 489.636719 139.101563 487.601563 138 487.601563 C 132.246094 489.800781 126.59375 492.308594 121.039063 495.078125 C 118.777344 496.210938 118.464844 491.742188 120.953125 490.871094 C 129.003906 488.054688 140.230469 485.230469 145.703125 479.703125 C 146.917969 478.480469 146.800781 474.699219 146.199219 475.101563 C 134.800781 478.601563 124.398438 484.5 113.601563 489.300781 L 113.300781 486.898438 C 125.414063 480.46875 139.273438 477.804688 150.507813 469.34375 C 152.71875 467.679688 153.105469 464.136719 151.425781 464.820313 C 137.21875 470.601563 113.300781 479 113.300781 479 C 112.898438 478 114.101563 473.398438 114.699219 473 C 118.210938 473 144.625 466.273438 161.289063 457.117188 C 165.046875 455.050781 167.375 451.414063 161.472656 453.414063 C 147.109375 458.28125 120.585938 467.757813 115.199219 469.601563 C 118 462.699219 123.699219 462.261719 128.101563 457.261719 C 135.601563 453.761719 224 422.601563 230.5 423 Z M 181.699219 348.898438 C 195.101563 364.199219 205.699219 380.699219 220.398438 395.5 C 221.898438 398.398438 220.101563 402.800781 222.800781 405.300781 L 222.800781 407.898438 C 207.800781 415.601563 193.699219 425.5 177.898438 431 C 167 434.601563 156.398438 439 145.699219 443 C 140.699219 446.699219 133.898438 446.199219 128.898438 449.898438 C 120.199219 451.199219 111.898438 453.5 104.199219 457.398438 C 95 446.5 82.800781 439.601563 72.300781 430.300781 C 58.5 405.898438 32 389.398438 14.898438 367.101563 C 13.199219 362.5 20.199219 361.398438 20 357.101563 C 33.800781 349 46.601563 338.5 62 334.300781 C 69.398438 327.898438 78.699219 325.800781 86.199219 319.398438 C 87.800781 320.300781 90.398438 318.398438 90.300781 321.300781 C 90.101563 322.300781 91.199219 327.699219 91.199219 329.699219 C 83.898438 332.5 74.300781 332.5 70.101563 340.5 C 66.300781 342.800781 60.199219 339.699219 56.898438 343.398438 C 53.5 342.898438 51.898438 346.800781 49.199219 348.199219 C 43.101563 353.300781 31.5 358.199219 34.800781 368.300781 C 38.5 374.898438 43.699219 381.898438 50.398438 386.101563 C 52.101563 387.101563 54.101563 388.101563 56.199219 387.5 C 59.800781 385.601563 60.601563 381.300781 64.101563 379.398438 L 81.398438 371.898438 C 82.199219 373.898438 81.101563 376 80.199219 377.699219 C 75.601563 382.300781 69 382.398438 64.800781 387.5 C 63.5 394.5 66.199219 401.398438 72 405.5 C 76.699219 408.699219 81.398438 411.898438 86.699219 413.699219 C 91.800781 411.199219 97 408.800781 101.800781 405.5 C 104 403.699219 105.800781 401.898438 107.601563 399.800781 C 118.199219 397.601563 128.898438 395.800781 138.5 391.101563 C 142.699219 389.699219 147.398438 389.5 150.5 385.601563 C 154.601563 383.300781 160.699219 385.300781 164 381.300781 C 169.699219 379.898438 175.101563 375.300781 176.898438 369.5 C 178.898438 361.898438 173.898438 355.898438 171.199219 349.601563 C 166.398438 344.898438 159.898438 346.699219 153.898438 345.300781 C 152.199219 346 150.300781 346.101563 148.398438 346 C 147.800781 345.398438 147.601563 344.398438 146.699219 344.101563 C 144.601563 344.398438 143.101563 347.5 140.898438 346 C 136.601563 349.898438 130.101563 349.199219 126.300781 353.898438 C 123.398438 354.398438 120.601563 355 117.601563 355.101563 C 117.5 348.300781 125.601563 354.398438 128.699219 350.800781 C 136.199219 348.398438 138.800781 338.601563 146.398438 336.398438 C 150 331.898438 143.898438 328.101563 144.300781 323.699219 C 145.699219 321.601563 148.800781 323.199219 149.800781 320.601563 L 154.800781 320.300781 C 163.398438 330.199219 175.699219 337.300781 181.699219 348.898438 Z M 251.5 243.101563 C 239.300781 254.101563 227.199219 266.601563 213.601563 275 C 208.699219 280.300781 203.300781 286.300781 195.898438 286.5 C 194.199219 291.300781 188.300781 288.800781 186.5 293.199219 C 180.199219 295.101563 174.699219 298.898438 168.5 301.101563 C 164.898438 301.398438 161.800781 300.199219 159.398438 297.5 C 156.199219 293 153.367188 280.324219 153.277344 279.554688 C 152.625 273.945313 161.0625 273.832031 163.699219 269.699219 C 172.300781 262.398438 180.699219 254.601563 189.898438 248.601563 C 196.800781 239.5 208.398438 233.398438 213.398438 223.101563 C 217.601563 217.800781 222.5 212.699219 225.898438 207.101563 C 231.199219 203.800781 232.601563 197.601563 237.398438 194.101563 C 241.300781 188.898438 250.5 169.75 262.101563 160 C 266.199219 157.300781 267.398438 152.5 270 148.699219 C 270.398438 167.5 277.601563 183.398438 278.699219 201.800781 C 269.300781 215.398438 268.5 234.898438 251.5 243.101563 Z M 281.101563 141.5 C 281.699219 142.699219 282.199219 144.398438 282.699219 145.898438 C 285.300781 149.699219 292.101563 171.199219 292.601563 178.300781 C 293.5 178.800781 294.199219 180.699219 295.699219 180.398438 C 296.898438 178.101563 292.5 145.5 287.300781 133.601563 C 288.398438 133.5 289.601563 132.800781 290.699219 133.398438 C 293.699219 136.199219 302.101563 164.398438 307.5 173.898438 C 310.300781 172.300781 308.101563 168.699219 308.398438 166 C 306.699219 152.898438 302.398438 140.898438 298.601563 128.601563 L 301.5 127.398438 C 307.601563 144.199219 314.699219 161.601563 311.800781 181.398438 C 313.300781 183.199219 312.601563 186.199219 315.101563 187.398438 C 318.398438 184.199219 315.898438 168.398438 315.898438 168.398438 C 317.601563 169 321.101563 165.300781 321.101563 165.300781 C 317.5 151.601563 315 137.5 310.300781 124.300781 C 311.5 123.800781 313.398438 123.199219 314.199219 123.800781 C 317.300781 141.300781 327.5 155.800781 333.101563 172.300781 C 338.066406 177.101563 351.269531 167.132813 350.398438 155.5 C 356.800781 154.199219 364.398438 129.050781 370 127.75 C 370.800781 126.75 372.199219 131.601563 373 130.5 C 370.5 138.199219 355.398438 145.199219 365.800781 153.5 C 374.898438 142.699219 376.898438 127 390.5 119.199219 L 392.898438 119.898438 C 382.699219 128.898438 378.199219 140.601563 373.199219 151.898438 C 373 153.300781 372.5 155.5 373.699219 156.699219 C 384.550781 150.738281 388.378906 132.882813 397.601563 124.796875 C 397.816406 124.609375 402.34375 125.484375 402.101563 126.523438 C 400.226563 134.472656 392.398438 158.101563 392.398438 158.101563 C 393.699219 160 394.601563 162.398438 393.898438 164.800781 C 392.898438 168.199219 390.199219 170.800781 388.800781 173.898438 L 384 197.199219 C 384.5 199.101563 387.699219 198.898438 386.199219 201.300781 C 384 210.5 376.398438 217.5 370.300781 225.101563 C 371.101563 230.101563 367.898438 234.199219 364.300781 237.800781 C 364.699219 238.601563 365.800781 238.300781 366.300781 238 C 374 231.351563 378.023438 220.71875 386.882813 216.421875 C 388.148438 215.808594 388.675781 217.222656 387.59375 218.375 C 379.886719 226.589844 374.714844 236.105469 367.699219 244.699219 C 368.101563 246.398438 368.699219 248 369.601563 249.5 C 377.199219 242.199219 384.601563 234.898438 393.898438 231.101563 C 394.300781 231.199219 394 232 394.101563 232.5 C 387.300781 238.699219 380.5 245.199219 374.699219 252.199219 L 375.601563 253.101563 C 383.300781 249.5 390.199219 244.101563 397.699219 239.898438 C 398.199219 240.101563 397.898438 240.898438 397.898438 241.398438 C 390.398438 249.199219 380.601563 254.101563 374.699219 263.199219 C 375.101563 264.300781 376.199219 264.699219 377.300781 264.699219 C 382.601563 256.398438 392.699219 258.398438 399.101563 252.398438 L 399.898438 252.398438 C 397.898438 257.699219 392 258.601563 388.601563 262.699219 C 389.800781 263.601563 388.398438 264.699219 388.800781 265.898438 C 386.898438 267.699219 382.898438 268.699219 383.300781 272.101563 C 389.101563 273.5 393.601563 267.699219 400.300781 269.199219 L 400.601563 269 L 400.601563 270.699219 C 394.601563 273.898438 388 275.601563 382.601563 280.300781 C 384.5 281.101563 387.101563 280.5 388.800781 281.699219 L 389.800781 283.101563 C 391.398438 282.398438 392.800781 281 394.800781 281.199219 L 394.800781 283.101563 C 367.300781 290.300781 299.5 290.898438 296.898438 288.898438 C 296.300781 287.199219 296.898438 285.398438 297.398438 283.898438 C 297.398438 279.300781 297.101563 274.601563 298.601563 270.699219 C 298.601563 269.5 297.199219 269.398438 296.898438 268.5 C 295.398438 246 304.699219 221.5 294.5 201.101563 C 292.300781 191.699219 273.101563 148.300781 281.101563 141.5 Z M 411.101563 574.199219 C 406.398438 578.898438 410.601563 586.199219 409 592.199219 C 407.601563 603.902344 404 614.699219 400.300781 625.402344 C 388.894531 640.804688 359.539063 638.226563 352.101563 622 C 351.398438 618.300781 354 612.402344 348.699219 611.402344 C 345.398438 605.097656 348.699219 546.398438 344.898438 525 C 348 520.5 342.5 514.300781 347.800781 510.601563 C 347.5 509.300781 350.398438 505.101563 350.398438 505.101563 L 350.898438 479.398438 L 349.5 407.898438 C 349.699219 394.300781 350.5 379.699219 352.601563 366.199219 C 347.800781 364.699219 339.800781 367.800781 338.398438 361.101563 C 337.101563 359.601563 335.601563 358.300781 333.398438 358.699219 C 332.601563 357.199219 334 355.398438 333.101563 354.199219 C 329 354 325.898438 357.398438 321.898438 356.800781 C 320.601563 356.101563 320.398438 354.5 320.398438 353 C 329.5 350.5 323.800781 346 323.800781 346 L 313.699219 356.300781 C 314.898438 357.800781 316.398438 359.101563 316.101563 361.101563 C 315 367.601563 310.5 372.601563 309.601563 379.101563 C 306.898438 387.898438 302 396 303.601563 406.300781 C 307 405.699219 307.101563 401.398438 310.101563 399.800781 C 312 399.398438 313.300781 400.300781 313.699219 401.898438 C 315.898438 422.800781 304.601563 439.699219 301.5 459 L 304.601563 460.5 C 306.398438 458.601563 319.699219 436.300781 319.699219 436.300781 C 321.898438 435.601563 323.800781 436.800781 325.199219 438.699219 C 324.699219 456.300781 317.199219 471.699219 315.101563 489 C 310.601563 497.898438 298.5 519.5 301.699219 524.300781 C 304.800781 522.800781 305.898438 517.5 310.101563 519.5 C 311.699219 531.5 304.199219 540.300781 300.699219 550.5 C 301.101563 550.699219 303.601563 554.5 304.199219 554.199219 C 307.601563 551.398438 307.601563 542.699219 312.699219 544.199219 C 317.300781 552.199219 305.800781 557.699219 309.398438 565.601563 C 309.699219 571 306.199219 577.699219 312 581.199219 C 311.898438 589.597656 308.601563 597 308.699219 605.199219 C 312.601563 601.5 320.699219 591.5 321.601563 591.800781 C 324.800781 594.199219 322.601563 599 322.601563 602.300781 C 321 611.597656 316.601563 620.300781 318.5 630.398438 C 313.128906 643.195313 281.203125 646.9375 275.800781 636.898438 C 267.5 605.300781 273.898438 576.601563 270.300781 543 C 271.898438 527.398438 271.300781 511.800781 277.199219 497.898438 C 279.699219 471.199219 272.199219 445.300781 277.199219 419 C 280.898438 413.898438 277 405.898438 280.101563 400.699219 C 281.199219 394.898438 281.699219 388.699219 283.699219 383.199219 C 280.601563 380.601563 283.199219 376.199219 283.5 372.898438 C 284.898438 368.300781 285.898438 361.800781 283.5 357.300781 L 281.5 356.800781 C 285.300781 341.300781 284.398438 323.800781 289 308.601563 C 294.5 312.199219 299.199219 306.101563 304.601563 306.398438 C 305.699219 308.300781 305.300781 310.898438 306.699219 312.699219 C 314.398438 307.699219 324.699219 309.300781 333.601563 307.601563 C 334.800781 310.199219 338.199219 309.101563 340.300781 309.101563 C 346.800781 303.800781 356.398438 306 363.898438 303.101563 C 367.300781 304.398438 372.5 301 373.898438 305.699219 C 379 306.101563 383.800781 303.898438 388.601563 305.699219 C 387.5 312.800781 374.898438 338.101563 373.699219 344.601563 L 374.199219 345.101563 C 380.800781 337.800781 383.199219 328.601563 391 322 C 392.699219 322.101563 395 321.5 395.800781 323.5 C 392.5 333.199219 389.199219 343 384.300781 352 C 384.800781 353.398438 393.601563 349.199219 393.898438 349.601563 C 392.5 355.699219 390.699219 362.601563 390.699219 369.800781 C 392.398438 370.199219 393.101563 371.699219 393.398438 373.101563 C 392 381.5 389.601563 389.5 387.101563 397.398438 L 388.601563 398.601563 C 391.800781 397 393.199219 391.101563 397.699219 393.101563 C 402 397.101563 402.699219 404.199219 400.800781 409.898438 C 399.398438 413.601563 396.601563 417.398438 397.699219 421.601563 C 399.699219 421.898438 401.398438 420.101563 403.699219 420.398438 C 405.300781 434.101563 400.398438 446.300781 397.699219 458.800781 C 401.300781 459.199219 404 454 407.800781 456.398438 C 408.699219 462.800781 398.800781 465.601563 400.300781 472.199219 C 401.699219 478.199219 392.601563 482.5 397.898438 488.300781 C 398.101563 490.800781 397.5 493.601563 399.398438 495.300781 C 400.800781 494.699219 402.398438 494.398438 404.199219 494.601563 C 408.699219 501.800781 398.5 508 403.699219 515 C 400.398438 521.699219 403.898438 531.800781 396.300781 536.300781 C 396.5 537.898438 396.5 539.699219 398.199219 540.601563 C 399.601563 540.800781 401.300781 539.199219 402.300781 541.101563 C 403.300781 543.699219 401.898438 547.300781 404.398438 549.300781 C 406.101563 556.5 400 563.199219 404.199219 569.699219 C 407.101563 569 407.898438 564 411.601563 565.800781 C 413.601563 568.398438 412.601563 571.800781 411.101563 574.199219 Z M 437.871094 384.175781 C 434.164063 390.511719 426.765625 395.199219 423.898438 390.898438 C 422.398438 376.699219 423.5 361.800781 423.898438 347.5 C 427.398438 342.800781 440.699219 348.398438 440.699219 348.398438 C 440.699219 360.101563 443.570313 374.445313 437.871094 384.175781 Z M 444.699219 323.699219 C 442.5 327.101563 442.5 331.398438 440.199219 334.699219 C 434.199219 335.300781 426.699219 337.601563 421.699219 333.300781 C 421 322.300781 421.101563 309.5 420.699219 298 C 424.101563 293.199219 418.300781 289.199219 418.601563 284.101563 C 418.601563 278.800781 421.699219 273.800781 419.5 268.5 C 421.199219 263.5 410.800781 262.398438 415.898438 257 C 416.898438 252.5 409.5 250 413.5 245.699219 C 415.5 245.800781 416.800781 243.699219 417.898438 242.101563 C 418.800781 239.800781 417.5 237.5 415.5 236.300781 C 414.300781 236.199219 413.199219 235.601563 411.898438 235.898438 C 411.101563 229.800781 416.898438 225.601563 416.199219 219.5 C 414.601563 217.300781 412 217.199219 409.699219 216.699219 C 408.5 212.101563 407.699219 206.601563 410.398438 202.300781 C 409 191.699219 402.199219 153.800781 405.101563 145.101563 C 406.699219 140.5 407.699219 135.601563 409.898438 131.199219 C 411.898438 129.199219 415.300781 126.300781 417.898438 128.800781 C 421.5 138.164063 427.019531 154.445313 428.882813 160.152344 C 437.628906 186.964844 443.386719 215.015625 445.199219 244.699219 C 445.601563 253.199219 444.800781 261.800781 444 270.199219 C 445.699219 287.398438 448.101563 306.398438 444.699219 323.699219 "/>
<path style=" stroke:none;fill-rule:nonzero;fill:rgb(0%,0%,0%);fill-opacity:1;" d="M 330.5 53.5 C 327.800781 51.101563 323.398438 52.398438 321.101563 49.398438 C 322.699219 47.699219 324.5 49.5 326.199219 49.601563 C 327.101563 49.5 327.898438 48.601563 327.898438 47.699219 C 323.5 43.601563 315.101563 44.898438 311.101563 48.398438 C 312.5 49.800781 315.398438 49.398438 315.898438 51.5 C 315.898438 51.898438 316 52.601563 315.398438 52.5 C 316.453125 57.347656 328.480469 57.652344 330.5 53.5 "/>
<path style=" stroke:none;fill-rule:nonzero;fill:rgb(0%,0%,0%);fill-opacity:1;" d="M 353.5 64 C 354.398438 64.601563 355.300781 64.101563 355.898438 63.5 C 362.25 56.75 357.898438 51.800781 357.898438 51.800781 C 355.601563 53.101563 353.101563 55.101563 351.898438 57.300781 C 351.398438 59.699219 351.5 62.398438 353.5 64 "/>
<path style=" stroke:none;fill-rule:nonzero;fill:rgb(0%,0%,0%);fill-opacity:1;" d="M 29.300781 205.898438 C 36.601563 206.898438 42.300781 202.699219 48 199.398438 L 48.800781 199.398438 C 61 207.398438 56 224.101563 57.199219 237.101563 C 58.601563 244.101563 63.699219 250.300781 62.398438 257.898438 C 69.800781 260.5 70.898438 269 75.898438 274.300781 C 82.898438 276.898438 90.699219 274 96.5 270.199219 C 96.601563 265.898438 101.699219 264.800781 104 262 C 103.601563 258.800781 107.101563 257.800781 108.5 255.300781 C 109.300781 250 114.300781 246.398438 117.601563 242.101563 C 125.101563 234.101563 118 223.800781 116.199219 215.5 C 120.101563 210.699219 123.101563 205.300781 128 201.101563 C 126.199219 197.898438 130.398438 196.5 130.101563 193.601563 C 140.699219 180.601563 146.300781 161.601563 139.199219 145.101563 C 137.101563 139.199219 129.699219 143 126.5 138.199219 C 124 134.699219 124.398438 130 124.398438 125.5 C 116.898438 116.5 108.800781 107.800781 109.5 95.5 C 107.699219 91.5 102.898438 90 100.398438 86.300781 C 91 80 96.300781 67.101563 88.398438 59.898438 C 88.398438 59.898438 78.300781 60.222656 73.855469 60.496094 C 68.128906 60.84375 62.757813 62.085938 59.101563 67.601563 C 56.199219 80.300781 46.101563 91.300781 35.101563 99.101563 C 27.5 118 24.300781 138.699219 22.101563 159.800781 C 29.398438 167.601563 19.699219 175.601563 19.699219 184 C 22.101563 191.601563 20.898438 201.398438 29.300781 205.898438 Z M 32.898438 147.5 C 34 136.199219 35.101563 124.300781 39.398438 113.898438 C 42.199219 110 40.5 104.199219 44.398438 100.699219 C 49.199219 95.300781 57.601563 91.300781 59.300781 83.898438 C 64.300781 79.101563 70.898438 78.101563 75.898438 73.101563 C 77.199219 73.300781 78.800781 72.800781 79.699219 73.898438 C 80.601563 78.800781 76.898438 83.601563 79.199219 88.300781 C 81.5 87.800781 84.199219 87.101563 86.199219 88.699219 C 88.800781 89.699219 92.300781 89.5 93.601563 92.601563 C 94.800781 94.898438 92.699219 96.101563 91.199219 97.398438 C 92.800781 99.699219 95.601563 100.800781 98.199219 100.300781 C 98.800781 102.898438 99.699219 105.5 101.300781 107.699219 C 105.300781 113.300781 111 118.199219 110.898438 125.5 C 114.398438 128.199219 109.898438 133.898438 114.300781 136.300781 C 114.101563 137.800781 113 140.398438 114.300781 142.300781 C 117.699219 146.101563 121.5 151.601563 127.199219 150.199219 C 128.800781 151.101563 130.699219 151 132 152.300781 C 130.5 159 128.199219 166.398438 127.699219 173.898438 C 124.5 176.601563 126.300781 181.5 122.199219 183.5 C 121.300781 186.398438 120 190.300781 116.398438 190.699219 C 113.898438 192.398438 112.601563 195.101563 110.699219 197.199219 C 110.601563 202.699219 110.699219 208.300781 107.300781 212.300781 C 108.699219 217 106.898438 223.5 112.601563 226 C 113.601563 232.101563 109 235.898438 105.601563 240.199219 C 106.898438 240.699219 101.898438 249.199219 101.101563 253.101563 C 96.398438 256.800781 93.199219 263.398438 87.199219 264.199219 C 88.601563 260.5 83.601563 258.699219 84.5 255.300781 C 92.300781 249 93.398438 239.5 99.398438 232.300781 C 100.898438 229.199219 97.101563 227.699219 95.601563 225.5 C 91.398438 225.601563 91.398438 230.5 88.398438 232.300781 C 86.699219 239.898438 80 245.398438 77.300781 252.699219 C 76.300781 252.601563 75.800781 251.300781 74.898438 251 C 74.5 247.898438 75.5 245.5 76.601563 243.101563 C 75.101563 240.5 77.398438 238.398438 77.300781 235.898438 C 75.699219 234.101563 70.398438 235.601563 72 231.800781 C 74.800781 223.898438 84.699219 219.5 87.398438 211.601563 C 90.699219 206.5 98 201.101563 93.398438 194.800781 C 92.300781 192.601563 90.199219 193.300781 88.800781 194.300781 C 87.898438 195.898438 85 197.601563 86.699219 199.398438 C 87.601563 200.601563 89.699219 200.601563 89.800781 202.5 C 89.800781 202.5 79.800781 214.101563 72.800781 213.800781 C 72.199219 212 79.683594 205.773438 81.167969 203.835938 C 83.582031 200.675781 78.933594 200.121094 77.210938 201.882813 C 73.867188 205.304688 70.550781 208.976563 65.800781 209.898438 C 64.398438 207.398438 64.398438 204 65.800781 201.5 C 70.5 194.898438 80.867188 195.664063 80.167969 186.164063 C 82.066406 183.96875 86.566406 179.898438 88.167969 177.5 L 86.199219 176.101563 L 68.699219 192.199219 C 67.398438 191.898438 65.699219 192.800781 64.800781 191.5 C 63 185.199219 71.898438 183.398438 71.800781 177.5 C 65.199219 178.300781 62.898438 186 59.601563 190.699219 C 58.398438 191 56.601563 191.5 55.699219 190.300781 C 56.199219 184.300781 61.300781 179.601563 59.300781 173.199219 C 56.101563 174.5 56.898438 178.5 54 180.199219 L 51.398438 179.898438 C 49.800781 169.5 59.699219 162.601563 66.5 155.898438 C 66.300781 154.101563 64.199219 152.800781 62.898438 151.601563 C 56.601563 153.5 55.199219 160.398438 52.101563 165.101563 C 44.300781 171.5 43.5 183.800781 32.398438 185.898438 C 31.800781 184.699219 30.898438 182.898438 32 181.601563 C 40.699219 175.601563 40.800781 165.601563 42 156.199219 C 47.898438 148.699219 52.199219 140.601563 58.101563 133.101563 C 57.398438 132.601563 56.5 131.101563 55.699219 132.199219 C 55.398438 131.300781 54.5 130.199219 53.601563 130 C 46.300781 137.300781 34.101563 144.5 37.199219 156.199219 C 35.699219 157.699219 34.5 160.398438 32 159.300781 C 29 155.199219 34.398438 151.898438 32.898438 147.5 "/>
<path style=" stroke:none;fill-rule:nonzero;fill:rgb(0%,0%,0%);fill-opacity:1;" d="M 68.199219 89.199219 L 68.199219 88.5 C 61.699219 97.101563 55.601563 105.898438 51.199219 115.398438 C 57.167969 116.5 73.832031 93.167969 68.199219 89.199219 "/>
<path style=" stroke:none;fill-rule:nonzero;fill:rgb(0%,0%,0%);fill-opacity:1;" d="M 62 115.398438 C 65.222656 118.324219 62.148438 120.632813 59.863281 123.035156 C 59.101563 123.835938 60.640625 125.128906 61.578125 124.660156 C 67.015625 121.9375 65.761719 113.421875 69.601563 108.898438 C 70.898438 107.800781 72.5 107.300781 74.199219 107.199219 C 77 108.300781 75.5 111.699219 77.300781 113.199219 C 78.398438 113.101563 79.398438 112.601563 80.199219 111.800781 C 80.5 110.199219 79.699219 109 79.199219 107.699219 C 78.5 106.199219 79.699219 104.601563 80.699219 103.601563 C 78.300781 103.101563 76.800781 100.601563 74 101.199219 C 72.699219 101.398438 72.398438 102.800781 71.601563 103.601563 C 64.300781 103.300781 66.199219 111.898438 62 115.398438 "/>
<path style=" stroke:none;fill-rule:nonzero;fill:rgb(0%,0%,0%);fill-opacity:1;" d="M 45.832031 129.164063 L 49.199219 107.699219 C 48.300781 107.601563 47.699219 108.199219 47.101563 108.898438 C 45.800781 116.800781 42 123.699219 41.101563 131.699219 C 42.699219 131.5 45.03125 130.265625 45.832031 129.164063 "/>
<path style=" stroke:none;fill-rule:nonzero;fill:rgb(0%,0%,0%);fill-opacity:1;" d="M 98.699219 125.199219 C 99.398438 122.300781 101.199219 119.800781 100.800781 116.300781 C 99.699219 115.101563 96.699219 113.800781 96.300781 116.601563 C 96.101563 119.601563 96.199219 123.199219 98.699219 125.199219 "/>
<path style=" stroke:none;fill-rule:nonzero;fill:rgb(0%,0%,0%);fill-opacity:1;" d="M 101.800781 160 C 96.199219 167.101563 93.5 175.398438 88.398438 182.601563 C 97.832031 185.164063 107.835938 154.164063 101.800781 160 "/>
<path style=" stroke:none;fill-rule:nonzero;fill:rgb(0%,0%,0%);fill-opacity:1;" d="M 364.800781 167 C 364.394531 165.101563 365.300781 162.5 363.898438 161.199219 L 358.601563 178.5 C 363.5 178.835938 365.835938 171.835938 364.800781 167 "/>
<path style=" stroke:none;fill-rule:nonzero;fill:rgb(0%,0%,0%);fill-opacity:1;" d="M 373.5 178.5 C 378.835938 177.164063 379.035156 170.699219 380.835938 166.5 C 378.734375 166.898438 377.398438 169.300781 375.398438 170.101563 C 374.199219 169.398438 372.199219 170.601563 371.5 169.101563 C 370 170.699219 368.101563 172.898438 368.898438 175.398438 C 371.699219 173.699219 372 177.898438 373.5 178.5 "/>
<path style=" stroke:none;fill-rule:nonzero;fill:rgb(0%,0%,0%);fill-opacity:1;" d="M 117.398438 169.898438 L 115.632813 166.164063 L 108.5 183.300781 C 108 184.898438 108 187.335938 109.5 188.835938 C 112.800781 182.734375 115.101563 176.398438 117.398438 169.898438 "/>
<path style=" stroke:none;fill-rule:nonzero;fill:rgb(0%,0%,0%);fill-opacity:1;" d="M 265.898438 202 C 263.300781 205.699219 259.75 210 261.101563 214.5 L 267.898438 209 C 266.5 207.5 266.601563 201.800781 265.898438 202 "/>
<path style=" stroke:none;fill-rule:nonzero;fill:rgb(0%,0%,0%);fill-opacity:1;" d="M 227.101563 252.199219 C 228.398438 250.398438 230.199219 249.800781 231.898438 249.101563 C 232.199219 245.199219 235.300781 242.398438 237.898438 239.699219 C 231.75 238.5 224.75 249.5 227.101563 252.199219 "/>
<path style=" stroke:none;fill-rule:nonzero;fill:rgb(0%,0%,0%);fill-opacity:1;" d="M 372.5 321.300781 C 378.398438 322.601563 377.199219 315.5 379.699219 312.699219 C 377.671875 310.425781 375.640625 312.636719 373.503906 313.011719 C 373.007813 313.097656 367.398438 317.101563 367.199219 320.300781 C 368.699219 321.398438 370.601563 321.300781 372.5 321.300781 "/>
<path style=" stroke:none;fill-rule:nonzero;fill:rgb(0%,0%,0%);fill-opacity:1;" d="M 357.601563 354.398438 C 365.699219 352.398438 367.699219 343.101563 368.898438 336.699219 L 354.300781 349.601563 L 357.601563 354.398438 "/>
<path style=" stroke:none;fill-rule:nonzero;fill:rgb(0%,0%,0%);fill-opacity:1;" d="M 370.601563 360.199219 C 371 361.398438 372.300781 362.398438 373.5 363.300781 L 376.300781 355.398438 C 373.601563 355.601563 372.101563 358.199219 370.601563 360.199219 "/>
<path style=" stroke:none;fill-rule:nonzero;fill:rgb(0%,0%,0%);fill-opacity:1;" d="M 364.300781 391.398438 C 365.699219 387.398438 364.5 382.300781 367.199219 378.898438 C 365.800781 373.699219 367.601563 367 362.898438 363.300781 C 357.898438 371.898438 359.5 390 364.300781 391.398438 "/>
<path style=" stroke:none;fill-rule:nonzero;fill:rgb(0%,0%,0%);fill-opacity:1;" d="M 375.601563 378.398438 C 375.101563 380.601563 378 384.101563 380 385.5 C 383.199219 380.601563 384 373.5 383.300781 368.101563 C 380.800781 371.5 376.898438 374.5 375.601563 378.398438 "/>
<path style=" stroke:none;fill-rule:nonzero;fill:rgb(0%,0%,0%);fill-opacity:1;" d="M 175 383.699219 C 170.898438 386 166.699219 387.898438 162.300781 389.5 C 154.199219 388.800781 149.800781 397.101563 141.898438 396.898438 C 132 401.101563 121.699219 404.199219 110.898438 406.300781 C 105.898438 413 96.5 413.199219 93.898438 421.601563 C 86.601563 422.800781 90.699219 431.601563 87.199219 435.800781 C 88.601563 438.898438 92.101563 441.101563 95.601563 441.5 C 101.699219 442.300781 108.300781 441.898438 114 443.699219 C 121.601563 442 128.800781 439.398438 135.898438 436.5 C 146 431.601563 157 428.699219 167.101563 423.5 C 179.101563 422.898438 187.199219 412.898438 196.800781 406.5 C 197.199219 404.699219 197.101563 402.699219 197.800781 401 C 201.300781 391.800781 192.300781 386.699219 188.199219 380.101563 C 184.5 381.300781 181.101563 378.800781 177.601563 380.300781 C 176.199219 381 175.800781 382.601563 175 383.699219 Z M 181.5 390.699219 C 182.800781 391.398438 184.800781 391.898438 185.101563 393.800781 C 186.300781 398.699219 179.800781 400.601563 181.199219 405.300781 C 178.398438 410.5 173 413.699219 168 415.601563 C 167 415.800781 165.5 415.699219 164.699219 414.699219 C 162.601563 413 162.199219 408 158.699219 408.898438 C 154.5 413.199219 154.398438 419.199219 150.800781 423.800781 C 147.199219 425.898438 145.5 420.101563 142.101563 421.101563 C 134.199219 423.800781 129.300781 434.5 119.800781 432.398438 C 115.199219 432.300781 110 439.601563 105.898438 433.898438 C 104.199219 431.800781 99.398438 431.601563 101.601563 427.898438 C 105.5 423.199219 107 414.101563 115 414.398438 C 115.699219 415.398438 116.699219 416.601563 117.601563 417.101563 C 118.101563 415.5 119 413.898438 120.5 413 C 125.101563 411.300781 133.5 416.101563 134.398438 408.398438 C 135.5 408.398438 137.101563 408.300781 138 409.398438 C 142.699219 397.800781 158 409.199219 164.199219 399.800781 C 169.699219 396.601563 174.101563 389.199219 181.5 390.699219 "/>
<path style=" stroke:none;fill-rule:nonzero;fill:rgb(0%,0%,0%);fill-opacity:1;" d="M 391.5 409 C 390 403.5 382 404 385.699219 415.398438 C 387.199219 413.800781 393.5 416.5 391.5 409 "/>
<path style=" stroke:none;fill-rule:nonzero;fill:rgb(0%,0%,0%);fill-opacity:1;" d="M 391.5 463 C 392.300781 460.5 402 434 396.5 429.800781 C 396.199219 441.398438 390.101563 450.601563 386.898438 461 C 387.699219 462 390.5 463.199219 391.5 463 "/>
<path style=" stroke:none;fill-rule:nonzero;fill:rgb(0%,0%,0%);fill-opacity:1;" d="M 361.199219 459.300781 C 352.398438 456.199219 360 446.800781 357.898438 440.300781 C 357.101563 439.898438 356.800781 438.601563 355.699219 438.898438 C 356.898438 450.101563 355.300781 462.300781 356.199219 473.898438 C 356.199219 477.398438 357.199219 480.699219 357.898438 483.800781 C 359.699219 475.898438 362.300781 468 361.199219 459.300781 "/>
<path style=" stroke:none;fill-rule:nonzero;fill:rgb(0%,0%,0%);fill-opacity:1;" d="M 316.601563 453.300781 C 315.199219 453.898438 314.5 455.699219 313.5 456.898438 C 309.300781 468.101563 301.300781 480.101563 306.699219 492.898438 C 310.601563 479.898438 313.601563 466.101563 316.601563 453.300781 "/>
<path style=" stroke:none;fill-rule:nonzero;fill:rgb(0%,0%,0%);fill-opacity:1;" d="M 66.800781 456.601563 C 65.832031 459.5 73.84375 469.0625 75.296875 470.535156 C 80.492188 475.792969 88.238281 477.515625 93.898438 482.601563 C 94.300781 479.601563 93.300781 476.699219 91.199219 474.398438 C 82.699219 469.5 74.300781 464.101563 66.800781 456.601563 "/>
<path style=" stroke:none;fill-rule:nonzero;fill:rgb(0%,0%,0%);fill-opacity:1;" d="M 286.101563 488.101563 C 289.699219 482.699219 289.800781 475.898438 291.601563 469.800781 C 288.164063 469.914063 288.699219 476.898438 287.300781 480.398438 C 287.199219 483.101563 282.898438 486.300781 286.101563 488.101563 "/>
<path style=" stroke:none;fill-rule:nonzero;fill:rgb(0%,0%,0%);fill-opacity:1;" d="M 366 484 C 362.898438 491.601563 359.300781 499.5 359.800781 508 C 364 503.601563 364.5 497.699219 365.800781 492.199219 C 366.101563 489.300781 369.398438 486.300781 366 484 "/>
<path style=" stroke:none;fill-rule:nonzero;fill:rgb(0%,0%,0%);fill-opacity:1;" d="M 290.699219 512.800781 C 294.398438 510.601563 296.5 506.101563 300.300781 503.398438 C 299.5 500.398438 300.699219 496.300781 298.601563 493.800781 C 298.199219 501.101563 292.300781 506.101563 290.699219 512.800781 "/>
<path style=" stroke:none;fill-rule:nonzero;fill:rgb(0%,0%,0%);fill-opacity:1;" d="M 283.699219 512.800781 C 283.300781 507 291.835938 500.914063 289.199219 498.199219 C 287.898438 499.898438 286.199219 500.601563 284.398438 501.300781 C 281.5 504.300781 280.914063 514 283.699219 512.800781 "/>
<path style=" stroke:none;fill-rule:nonzero;fill:rgb(0%,0%,0%);fill-opacity:1;" d="M 361.5 540.601563 C 362 539.101563 362.5 537.601563 363.898438 536.300781 C 363.898438 529 366.699219 522.898438 367.699219 515.898438 L 366.300781 515.898438 C 360.699219 522.5 358.699219 532.300781 361.5 540.601563 "/>
<path style=" stroke:none;fill-rule:nonzero;fill:rgb(0%,0%,0%);fill-opacity:1;" d="M 286.300781 540.601563 L 289.199219 531.5 C 287 531.898438 285.199219 534 283.699219 535.800781 L 286.300781 540.601563 "/>
<path style=" stroke:none;fill-rule:nonzero;fill:rgb(0%,0%,0%);fill-opacity:1;" d="M 390.699219 542.300781 L 390 548.601563 C 391 548.601563 393.074219 548.449219 393.875 548.25 C 393.773438 546.851563 392.800781 543 390.699219 542.300781 "/>
<path style=" stroke:none;fill-rule:nonzero;fill:rgb(0%,0%,0%);fill-opacity:1;" d="M 282.300781 581.398438 C 282.800781 578.398438 279.300781 579.898438 277.699219 579.5 C 278.699219 583.300781 275.300781 589.699219 280.601563 590.800781 C 283.101563 588.902344 282.5 584.601563 282.300781 581.398438 "/>
<path style=" stroke:none;fill-rule:nonzero;fill:rgb(0%,0%,0%);fill-opacity:1;" d="M 389.300781 589.402344 C 390.898438 587.300781 392.398438 584.898438 391.699219 582.199219 C 389.5 583.800781 389.199219 587.097656 389.300781 589.402344 "/>
<path style=" stroke:none;fill-rule:nonzero;fill:rgb(0%,0%,0%);fill-opacity:1;" d="M 369.601563 592.199219 L 370.601563 596.597656 C 371.800781 595.402344 372.601563 593.800781 372.300781 592.199219 L 369.601563 592.199219 "/>
<path style=" stroke:none;fill-rule:nonzero;fill:rgb(0%,0%,0%);fill-opacity:1;" d="M 393.101563 610.199219 C 390.199219 608.800781 392.699219 606.097656 391.898438 603.800781 C 392.101563 602.800781 392.601563 601.699219 392.398438 600.902344 C 388.398438 604.300781 389.101563 609.597656 389.101563 614.597656 C 390.398438 614.699219 391.898438 614.402344 393.101563 614.800781 C 394.601563 615.300781 395.601563 616.800781 396 618.199219 C 396.699219 615.199219 397.699219 612.300781 398.199219 609.300781 C 396.699219 610.097656 394.898438 610.800781 393.101563 610.199219 "/>
<path style=" stroke:none;fill-rule:nonzero;fill:rgb(0%,0%,0%);fill-opacity:1;" d="M 378.300781 604 C 375.898438 606.699219 375.699219 610.300781 374.898438 613.597656 C 378.5 611.902344 377.898438 607.5 378.300781 604 "/>
<path style=" stroke:none;fill-rule:nonzero;fill:rgb(0%,0%,0%);fill-opacity:1;" d="M 294.300781 615.5 C 294.199219 618.097656 291.300781 619.597656 290.199219 621.800781 C 290.101563 622.902344 289.199219 625.097656 290.898438 625.597656 L 297.398438 621.300781 C 298.601563 618.699219 295.898438 617 294.300781 615.5 "/>
<path style=" stroke:none;fill-rule:nonzero;fill:rgb(0%,0%,0%);fill-opacity:1;" d="M 282 634.199219 C 284 635.699219 286.398438 636.199219 288.699219 636.898438 C 289.5 636.601563 290.601563 636.199219 290.699219 635.199219 C 288 635.300781 286.800781 631.800781 284.199219 631.601563 C 282.898438 631.800781 282.5 633.300781 282 634.199219 "/>
</g>
</svg>
