<?xml version="1.0" encoding="UTF-8"?>
<svg xmlns="http://www.w3.org/2000/svg" xmlns:xlink="http://www.w3.org/1999/xlink" width="493pt" height="368pt" viewBox="0 0 493 368" version="1.1">
<g id="surface1">
<path style=" stroke:none;fill-rule:nonzero;fill:rgb(0%,0%,0%);fill-opacity:1;" d="M 484.492188 68.230469 C 490.097656 79.023438 487.636719 89.820313 487.773438 102.390625 C 484.085938 118.511719 490.367188 134.089844 483.535156 150.214844 Z M 110.808594 134.777344 C 116.105469 131.195313 128.085938 125.761719 135.59375 122.308594 C 147.671875 116.75 159.660156 110.972656 171.316406 104.574219 C 182.792969 100.476563 196.046875 99.929688 206.433594 93.78125 L 199.871094 93.507813 C 185.253906 96.105469 172.136719 102.117188 158.605469 107.308594 C 142.292969 115.65625 124.105469 121.542969 110.328125 134.183594 C 109.222656 135.199219 109.566406 135.617188 110.808594 134.777344 Z M 437.871094 277.488281 C 432.226563 279.328125 426.445313 281.015625 419.589844 280.023438 C 407.429688 284.941406 393.082031 284.257813 379.554688 285.625 C 379.554688 285.625 378.144531 286.332031 376.71875 287.148438 C 373.96875 288.722656 371.148438 290.683594 378.191406 288.714844 C 379.792969 288.269531 381.441406 287.941406 382.625 288.042969 C 399.734375 289.496094 415.820313 283.832031 432.433594 283.027344 C 432.433594 283.027344 437.253906 280.320313 439.847656 278.449219 C 441.96875 276.917969 442.601563 275.949219 437.871094 277.488281 Z M 132.007813 308.398438 L 197.003906 318.144531 C 211.214844 320.605469 242.152344 322.917969 242.820313 322.976563 C 244.820313 323.15625 246.738281 322.71875 246.738281 320.054688 L 132 307.382813 Z M 480.257813 62.628906 L 479.574219 78.339844 C 479.574219 78.339844 478.082031 170.324219 477.929688 173.363281 C 477.035156 191.433594 478.636719 209.949219 477.933594 227.960938 C 474.519531 232.0625 469.734375 234.246094 465.226563 236.433594 C 462.496094 247.5 462.632813 260.210938 451.015625 267.3125 C 441.996094 274.28125 431.066406 276.878906 418.90625 276.46875 C 413.714844 278.925781 407.019531 278.109375 401.824219 281.113281 C 389.527344 280.023438 378.050781 281.113281 368.488281 287.261719 C 365.207031 290.542969 360.152344 289.3125 357.007813 292.863281 C 352.773438 300.789063 351.40625 309.808594 344.4375 316.503906 C 334.464844 322.378906 320.933594 320.054688 308.773438 321.011719 C 306.519531 321.695313 305.121094 323.367188 303.71875 325.027344 C 298.996094 330.613281 289.097656 333.148438 282.8125 331.261719 C 279.808594 330.851563 277.484375 328.390625 274.613281 327.296875 C 273.109375 340.824219 273.523438 354.351563 272.976563 366.648438 C 272.976563 366.648438 262.042969 368.835938 259.3125 365.695313 L 256.578125 319.375 L 109.691406 301.746094 L 27.433594 292.179688 L 27.023438 325.65625 C 24.429688 328.117188 11.171875 327.980469 9.398438 326.34375 L 7.757813 253.238281 L 6.90625 225.148438 C 3.207031 222.8125 0.746094 218.699219 0.746094 214.003906 C 0.746094 206.722656 6.648438 200.816406 13.929688 200.816406 C 21.210938 200.816406 27.117188 206.722656 27.117188 214.003906 C 27.117188 217.214844 25.964844 220.152344 24.058594 222.441406 C 28.410156 226.019531 35.4375 227.640625 40.550781 224.953125 C 45.46875 221.8125 46.425781 216.484375 47.792969 211.5625 C 66.921875 186.558594 87.417969 163.742188 111.332031 142.289063 C 127.613281 130.324219 118.800781 136.96875 190.78125 105.296875 C 201.78125 100.457031 219.476563 100.28125 233.351563 98.019531 L 232.683594 44.570313 C 228.355469 42.1875 225.378906 37.972656 225.378906 32.613281 C 225.378906 26.3125 228.988281 21.921875 234.316406 20.070313 L 234.316406 19.460938 C 234.316406 16.441406 236.765625 13.996094 239.78125 13.996094 C 242.800781 13.996094 245.246094 16.441406 245.246094 19.460938 L 245.246094 19.683594 C 251.398438 21.238281 255.894531 25.8125 255.894531 32.613281 C 255.894531 35.15625 255.339844 37.4375 254.34375 39.394531 C 277.113281 39.492188 293.71875 23.246094 314.648438 18.085938 C 313.148438 15.078125 314.515625 11.523438 316.015625 8.929688 C 319.84375 5.648438 325.035156 5.511719 330.089844 5.238281 C 334.871094 5.921875 339.65625 6.46875 343.890625 8.519531 C 348.945313 2.371094 356.050781 -0.773438 363.839844 1.6875 C 367.664063 2.777344 370.261719 6.332031 373.40625 9.203125 C 380.511719 7.152344 391.441406 5.921875 398 10.15625 C 403.464844 14.394531 399.503906 23.410156 407.15625 26.007813 C 418.496094 30.242188 428.472656 38.167969 438.582031 45.273438 L 444.457031 51.832031 L 457.570313 51.832031 C 455.421875 48.988281 454.148438 45.460938 454.148438 41.464844 C 454.148438 33.832031 458.660156 27.9375 465.152344 25.28125 L 465.152344 23.273438 C 465.152344 19 468.621094 15.53125 472.894531 15.53125 C 477.171875 15.53125 480.640625 19 480.640625 23.273438 L 480.640625 25.0625 C 487.410156 27.613281 492.152344 33.632813 492.152344 41.464844 C 492.152344 49.402344 488.425781 55.019531 482.191406 57.621094 C 484.085938 58.574219 484.3125 61.988281 480.257813 62.628906 Z M 470.945313 23.511719 C 470.945313 24.601563 472.464844 25.488281 474.335938 25.488281 C 476.210938 25.488281 477.726563 24.601563 477.726563 23.511719 C 477.726563 22.417969 476.210938 21.53125 474.335938 21.53125 C 472.464844 21.53125 470.945313 22.417969 470.945313 23.511719 Z M 473.777344 48.144531 C 478.378906 47.535156 479.167969 44.964844 475.054688 44.578125 C 473.765625 44.453125 472.253906 44.683594 470.855469 44.71875 C 469.085938 44.765625 466.003906 42.097656 468.707031 40.785156 C 469.996094 40.160156 471.984375 39.714844 473.097656 38.792969 C 474.628906 37.527344 473.734375 35.757813 471.660156 35.976563 C 469.339844 36.21875 466.367188 38.84375 464.191406 38.300781 C 465.351563 34.816406 468.871094 33.539063 471.609375 31.597656 C 473.417969 30.3125 473.304688 28.917969 470.453125 29.570313 C 468.742188 29.964844 467.210938 30.753906 465.730469 31.628906 C 456.734375 36.917969 460.519531 49.898438 473.777344 48.144531 Z M 253.300781 47.324219 C 259.601563 47.953125 273.871094 43.59375 282.921875 39.808594 C 293.894531 35.21875 313.550781 24.996094 323.3125 23.078125 C 327.5625 22.246094 331.910156 21.65625 335.691406 19.722656 L 334.597656 17.398438 C 332.09375 15.898438 330.164063 17.492188 328.074219 17.980469 C 327.882813 18.023438 327.085938 16.578125 327.085938 15.761719 C 329.300781 11.515625 340.6875 14.3125 342.796875 18.765625 C 349.355469 19.039063 355.507813 18.355469 361.242188 16.71875 C 361.515625 15.078125 360.972656 13.847656 359.605469 12.890625 C 357.964844 11.796875 356.050781 12.070313 354.6875 12.480469 C 354.550781 11.253906 354.824219 10.15625 355.640625 9.203125 C 357.753906 5.9375 367.058594 9.734375 369.441406 18.085938 C 374.363281 19.996094 386.136719 23.046875 386.628906 23.234375 C 391.796875 25.210938 387.621094 15.054688 391.988281 14.804688 C 395.675781 17.945313 394.722656 22.867188 395.269531 27.238281 C 411.054688 37.828125 426.917969 47.511719 436.945313 55.152344 C 438.230469 56.132813 439.601563 56.949219 441.179688 57.433594 C 439.859375 51.171875 435.109375 48.859375 427.480469 43.492188 C 417.832031 36.703125 407.128906 32.382813 398 24.914063 C 394.585938 21.636719 400.597656 16.988281 395.269531 14.53125 C 388.300781 10.433594 378.597656 13.4375 371.355469 15.761719 C 369.714844 13.300781 368.621094 10.433594 366.164063 8.246094 C 361.65625 3.871094 352.773438 4.828125 349.355469 10.15625 C 347.136719 17.929688 343.035156 14.863281 338.753906 12.410156 C 333.75 9.550781 325.503906 7.78125 321.480469 12.207031 C 318.886719 15.078125 322.300781 17.945313 322.164063 21.089844 C 306.742188 23.359375 294.246094 32.746094 280.195313 38.261719 C 278.1875 39.050781 264.886719 43.121094 260.292969 44.472656 C 257.875 45.183594 255.515625 46.050781 253.300781 47.324219 Z M 435.304688 68.910156 L 421.503906 57.023438 C 420.410156 56.613281 419.726563 56.480469 418.632813 57.023438 C 417.402344 60.714844 417.539063 65.769531 413.304688 67.273438 C 403.042969 58.550781 379.519531 55.648438 375.589844 59.347656 C 378.324219 69.324219 377.503906 77.386719 377.640625 87.90625 C 377.367188 100.886719 369.03125 110.589844 364.113281 121.65625 C 363.839844 125.070313 367.53125 125.34375 369.714844 125.890625 C 376.136719 127.667969 381.195313 139.691406 388.160156 133.132813 C 385.15625 129.308594 378.1875 129.445313 378.324219 123.980469 C 378.324219 123.980469 393.015625 123.246094 393.878906 122.960938 C 396.125 122.214844 399.386719 120.5625 393.804688 118.292969 C 389.726563 116.632813 385.089844 115.914063 382.835938 111.816406 C 383.515625 111.269531 384.0625 110.449219 384.882813 110.179688 C 391.792969 109.425781 399.046875 109.480469 405.695313 108.007813 C 410.464844 106.949219 409.753906 104.183594 405.800781 103.195313 C 399.707031 101.671875 393.246094 100.652344 387.480469 98.019531 C 386.523438 97.335938 385.703125 96.242188 386.523438 95.148438 C 392.398438 92.960938 407.792969 92.050781 405.789063 88.589844 C 399.914063 85.855469 393.765625 83.535156 388.160156 80.390625 C 387.753906 79.707031 387.34375 78.203125 388.4375 77.796875 L 409.75 78.339844 C 406.472656 72.738281 399.914063 69.1875 396.359375 63.585938 L 396.90625 63.035156 C 402.371094 65.222656 407.976563 66.863281 412.757813 70.824219 C 416.25 83.632813 427.960938 112.757813 405.347656 128.117188 C 404.957031 128.382813 391.03125 136.824219 391.03125 138.734375 C 391.441406 139.417969 392.125 139.417969 392.671875 139.691406 C 400.324219 134.910156 408.796875 130.675781 414.671875 123.023438 C 430.210938 107.253906 419.265625 84.894531 418.90625 73.148438 C 425.785156 74.285156 430.246094 74.515625 435.714844 71.507813 C 435.574219 70.6875 435.984375 69.597656 435.304688 68.910156 Z M 366.4375 262.667969 C 374.089844 261.027344 382.421875 260.34375 390.347656 260.753906 C 391.851563 260.34375 393.628906 258.703125 392.398438 257.066406 C 381.605469 250.78125 369.851563 240.53125 370.125 227.003906 C 369.851563 225.773438 369.304688 221.949219 367.121094 224.269531 L 365.753906 243.675781 C 366.027344 250.371094 363.839844 256.519531 366.4375 262.667969 Z M 399.636719 242.769531 C 399.675781 231.953125 377.640625 171.804688 377.640625 171.804688 C 377.367188 170.847656 376.273438 168.933594 374.636719 169.617188 C 373.816406 169.890625 373.539063 170.847656 373.679688 171.804688 C 376.484375 180.109375 378.992188 188.414063 380.941406 196.980469 C 382.414063 203.433594 380.488281 202.871094 377.914063 199.765625 C 371.507813 192.035156 366.234375 182.363281 357.625 176.96875 C 349.980469 172.171875 356.09375 178.367188 356.09375 178.367188 L 365.207031 187.925781 C 377.914063 205.824219 371.21875 231.785156 387.480469 248.320313 C 393.769531 253.128906 399.601563 251.34375 399.636719 242.769531 Z M 403.875 212.519531 C 409.339844 222.222656 410.707031 234.929688 421.230469 241.078125 C 431.300781 243.496094 433.933594 241.773438 432.433594 230.285156 C 426.695313 209.925781 418.632813 190.660156 413.988281 169.890625 C 410.433594 164.152344 405.515625 158.546875 399.914063 153.765625 C 360.269531 120.84375 301.335938 109.464844 285.464844 107.929688 C 282.949219 107.683594 280.214844 107.976563 277.894531 108.265625 C 278.03125 108.8125 277.621094 109.496094 278.304688 109.90625 C 325.171875 119.605469 372.175781 129.445313 407.429688 166.335938 C 411.726563 172.261719 410.691406 180.460938 410.621094 188.15625 C 410.59375 191.007813 408.578125 192.898438 406.707031 189.261719 C 401.269531 178.703125 392.980469 169.265625 385.839844 159.367188 C 383.789063 158.273438 381.738281 155.816406 379.28125 156.773438 C 379.554688 158.273438 396.085938 195.851563 403.875 212.519531 Z M 355.640625 48.554688 C 324.089844 44.8125 297.710938 42.832031 279.375 57.519531 C 271.363281 63.9375 265.070313 72.304688 263.546875 82.714844 C 262.316406 88.042969 255.210938 93.507813 260.269531 99.109375 C 280.355469 101.570313 301.671875 100.203125 320.523438 106.625 L 331.730469 102.390625 C 334.734375 101.160156 338.425781 101.980469 341.160156 100.339844 C 336.785156 96.925781 328.085938 93.871094 307.816406 92.140625 C 310.277344 88.863281 315.058594 88.042969 318.886719 86.539063 C 322.300781 84.898438 327.496094 84.355469 328.722656 80.390625 L 314.648438 80.390625 C 311.191406 80.296875 307.328125 80.671875 303.679688 79.953125 C 300.097656 79.25 298.0625 76.164063 302.714844 74.71875 C 310.3125 72.355469 316.855469 67.660156 323.746094 63.785156 C 326.503906 62.238281 329.589844 60.625 322.621094 61.097656 C 315.300781 61.59375 308.113281 63.550781 300.296875 63.398438 C 294.992188 63.296875 295.625 60.683594 298.710938 58.574219 C 309.515625 51.1875 323.742188 51.410156 337.332031 51.832031 C 371.128906 52.882813 368.269531 86.050781 352.363281 104.574219 C 349.039063 108.445313 345.941406 109.769531 344.4375 113.457031 C 345.121094 114.824219 344.4375 117.011719 346.488281 117.421875 C 353.019531 119.714844 359.394531 112.820313 362.757813 108.261719 C 371.214844 96.796875 373.320313 72.308594 361.925781 55.796875 C 365.617188 54.292969 370.535156 51.285156 371.355469 47.324219 C 366.4375 44.589844 361.925781 40.765625 356.597656 39.125 C 355.367188 41.859375 356.460938 45.546875 355.640625 48.554688 Z M 428.742188 94.464844 C 429.5625 113.320313 418.222656 130.398438 401.824219 140.375 C 398.097656 145.972656 400.054688 147.929688 407.574219 146.535156 C 435.585938 141.332031 435 105.355469 428.742188 94.464844 Z M 252.753906 71.78125 C 256.167969 71.78125 258.492188 74.242188 261.226563 75.746094 C 262.726563 72.875 264.09375 69.324219 264.503906 65.632813 C 264.503906 65.632813 262.273438 54.929688 257.945313 55.796875 C 257.261719 61.535156 250.703125 65.769531 252.753906 71.78125 Z M 245.101563 26.28125 C 247.5625 29.015625 249.882813 31.746094 249.472656 35.847656 C 249.472656 35.847656 250.964844 34.851563 251.273438 32.753906 C 251.859375 28.734375 246.902344 24.480469 245.101563 26.28125 Z M 248.105469 46.640625 L 246.738281 45 L 236.902344 44.589844 C 235.945313 47.460938 239.496094 45.820313 240.589844 47.324219 L 241.820313 95.421875 C 243.871094 96.652344 246.878906 97.46875 249.0625 96.105469 Z M 238.222656 19.347656 C 238.222656 20.28125 239.519531 21.035156 241.121094 21.035156 C 242.722656 21.035156 244.019531 20.28125 244.019531 19.347656 C 244.019531 18.414063 242.722656 17.65625 241.121094 17.65625 C 239.519531 17.65625 238.222656 18.414063 238.222656 19.347656 Z M 241.71875 38.664063 C 245.078125 38.21875 245.65625 36.34375 242.652344 36.058594 C 241.710938 35.96875 240.605469 36.136719 239.585938 36.160156 C 238.292969 36.195313 236.039063 34.246094 238.015625 33.289063 C 238.957031 32.832031 240.410156 32.507813 241.222656 31.835938 C 242.339844 30.910156 241.6875 29.617188 240.171875 29.773438 C 238.476563 29.953125 236.308594 31.871094 234.714844 31.472656 C 235.566406 28.925781 238.136719 27.996094 240.136719 26.574219 C 241.457031 25.640625 241.375 24.617188 239.289063 25.097656 C 238.039063 25.382813 236.921875 25.960938 235.839844 26.597656 C 229.269531 30.464844 232.035156 39.945313 241.71875 38.664063 Z M 61.875 228.472656 C 77.945313 219.226563 91.058594 216.011719 124.449219 214.84375 C 132.886719 210.214844 140.707031 214.882813 148.839844 217.820313 C 161.054688 222.234375 161.566406 220.449219 151.566406 213.15625 C 147.742188 210.371094 143.339844 208.230469 139.179688 205.652344 C 128.964844 199.324219 134.117188 198.957031 141.570313 198.554688 C 155.097656 197.820313 168.976563 199.632813 182.246094 201.042969 C 187.433594 201.296875 192.191406 202.820313 197.058594 203.804688 C 206.386719 205.691406 207.871094 203.683594 199.664063 199.726563 C 188.523438 194.355469 170.695313 187.71875 160.679688 183.890625 C 147.191406 178.734375 149.945313 178.226563 161.640625 177.03125 C 176.4375 175.515625 191.917969 177.460938 206.933594 177.523438 C 216.429688 177.5625 214.59375 175.558594 207.316406 172.382813 C 198.621094 168.589844 185.261719 165.183594 177.78125 162.886719 C 170.480469 160.644531 172.601563 158.097656 179.148438 158.0625 C 197.425781 157.964844 214.019531 160.4375 231.289063 162.519531 C 245.277344 164.203125 245.605469 160.027344 233.738281 156.738281 C 223.011719 153.765625 202.699219 148.015625 190.765625 142.375 C 168.609375 131.902344 194.851563 134.550781 194.851563 134.550781 L 249.746094 139.007813 C 250.976563 139.007813 253.164063 139.417969 252.753906 137.371094 C 240.078125 131.609375 226.324219 128.726563 212.84375 125.351563 C 204.230469 123.195313 205.816406 118.972656 216.019531 119.71875 C 226.78125 120.503906 237.136719 122.128906 247.488281 123.808594 C 256.152344 125.214844 258.628906 123.980469 258.628906 123.980469 C 253.300781 119.195313 246.878906 117.148438 240.183594 115.507813 C 237.308594 114.3125 232.65625 114.058594 231.359375 111.257813 C 229.835938 107.964844 243.160156 108.097656 249.75 108.355469 C 251.875 108.441406 250.988281 107.753906 249.746094 107.539063 C 245.222656 106.761719 240.066406 107.289063 235.671875 106.214844 L 197.277344 114.140625 L 169.128906 125.34375 C 158.0625 129.578125 145.492188 130.265625 136.335938 139.007813 C 100.945313 145.296875 92.203125 184.921875 64.464844 204.597656 C 58.054688 209.992188 55.53125 216.867188 53.015625 223.773438 C 51.199219 228.746094 54.199219 232.890625 61.875 228.472656 Z M 26.066406 233.835938 C 42.921875 238.84375 61.203125 238.015625 78.515625 234.984375 C 96.40625 231.851563 136.535156 224.238281 163.117188 234.109375 C 189.625 244.632813 215.175781 257.613281 246.464844 256.519531 C 246.878906 255.699219 247.148438 253.785156 246.195313 253.511719 C 228.292969 251.464844 209.300781 251.871094 193.722656 244.359375 C 178.414063 233.542969 159.332031 229.203125 145.882813 227.464844 C 134.054688 225.9375 108.628906 226.929688 97.886719 228.675781 C 73.84375 232.59375 50.394531 238.996094 26.066406 231.242188 Z M 247.421875 301.746094 C 247.5625 288.628906 247.285156 274.828125 246.464844 261.710938 C 240.453125 259.660156 222.292969 259.6875 220.144531 259.589844 C 201.90625 258.753906 188.277344 246.703125 171.042969 243.402344 L 171.726563 245.039063 C 193.039063 257.066406 216.816406 264.171875 242.914063 263.625 C 242.914063 263.625 244.828125 290.132813 246.195313 302.019531 C 246.605469 301.882813 247.5625 302.292969 247.421875 301.746094 Z M 27.433594 279.066406 L 84.414063 283.710938 C 108.761719 285.238281 136.082031 288.199219 158.71875 280.820313 C 169.257813 277.386719 169.023438 276.574219 157.972656 276.371094 C 142.328125 276.085938 124.921875 275.996094 108.773438 275.363281 C 96.796875 274.894531 95.628906 270.886719 108.332031 270.269531 C 129.140625 269.257813 161.886719 266.929688 163.195313 266.652344 C 175.945313 263.976563 174.742188 259.910156 162.070313 260.433594 C 142.4375 261.242188 122.179688 261.769531 101.949219 261.945313 C 92.066406 262.03125 90.433594 258.34375 101.929688 257.226563 C 113.179688 256.128906 138.355469 253.425781 150.070313 250.125 C 166.394531 245.53125 150.21875 246.339844 150.21875 246.339844 L 121.167969 248.59375 C 117.859375 248.765625 114.128906 249.144531 110.601563 248.984375 C 103.726563 248.671875 103.933594 245.1875 109.941406 243.570313 C 117.023438 241.667969 123.769531 238.800781 130.324219 235.75 C 115.566406 235.339844 99.167969 234.792969 85.503906 238.757813 C 66.375 244.769531 45.605469 245.449219 26.476563 240.667969 C 24.972656 251.871094 27.980469 266.21875 27.433594 279.066406 Z M 14.59375 219.824219 C 18.0625 219.824219 20.875 217.015625 20.875 213.546875 C 20.875 210.078125 18.0625 207.265625 14.59375 207.265625 C 11.125 207.265625 8.316406 210.078125 8.316406 213.546875 C 8.316406 217.015625 11.125 219.824219 14.59375 219.824219 Z M 23.199219 293.546875 C 22.105469 293.546875 21.011719 293.546875 20.191406 293.140625 L 20.464844 323.0625 L 22.105469 323.0625 C 24.019531 313.773438 22.789063 302.15625 23.199219 293.546875 Z M 252.753906 312.542969 C 252.753906 312.542969 248.652344 308.304688 245.511719 306.941406 L 167.078125 299.148438 L 20.464844 284.394531 C 19.644531 265.402344 20.738281 249.6875 18.550781 230.832031 L 16.230469 230.832031 L 17.597656 287.671875 Z M 254.664063 302.976563 C 253.980469 290.132813 254.015625 258.414063 253.988281 255.789063 C 253.949219 252.132813 253.570313 248.625 251.660156 245.996094 L 253.027344 303.386719 C 253.570313 303.25 254.253906 303.660156 254.664063 302.976563 Z M 260.59375 240.929688 C 264.683594 240.929688 268 237.757813 268 233.84375 C 268 229.929688 264.683594 226.757813 260.59375 226.757813 C 256.5 226.757813 253.183594 229.929688 253.183594 233.84375 C 253.183594 237.757813 256.5 240.929688 260.59375 240.929688 Z M 272.429688 251.871094 C 271.335938 249.414063 268.738281 247.636719 266.144531 247.636719 L 265.1875 360.773438 C 265.460938 362.550781 267.371094 361.867188 268.464844 362.414063 C 269.285156 362.140625 269.832031 361.183594 270.105469 360.363281 C 268.875 323.0625 275.023438 289.039063 272.429688 251.871094 Z M 275.023438 242.71875 C 277.621094 246.40625 281.582031 249.550781 282.8125 253.785156 L 282.265625 293.820313 C 282.265625 293.820313 289.613281 300.691406 314.648438 300.378906 C 317.792969 300.242188 320.117188 298.605469 321.480469 295.871094 C 322.164063 286.988281 318.066406 280.023438 315.335938 272.507813 C 314.453125 263.90625 314.546875 255.398438 314.832031 246.691406 C 315.1875 235.886719 323.199219 239.574219 321.605469 248.710938 C 320.304688 256.175781 320.714844 264.804688 321.480469 272.234375 C 325.421875 286.507813 332.863281 284.632813 336.378906 275.550781 C 338.300781 270.589844 338.070313 263.957031 338.972656 258.703125 C 339.929688 252.828125 343.871094 255.953125 346.488281 258.320313 C 353.1875 264.382813 357.597656 258.53125 358.132813 254.222656 C 361.136719 230.109375 362.808594 179.6875 352.089844 185.328125 C 350.175781 190.523438 357.921875 204.777344 354.1875 214.449219 C 352.296875 219.347656 345.980469 218.894531 344.519531 214.332031 C 339.121094 197.484375 326.734375 174.898438 317.65625 172.210938 C 312.191406 170.164063 306.859375 172.484375 302.898438 176.175781 C 296.175781 185.484375 301.226563 197.515625 306.679688 210.015625 C 312.78125 223.992188 311.097656 241.378906 311.78125 257.066406 C 310.550781 261.4375 311.234375 267.996094 305.222656 268.953125 C 301.261719 263.761719 301.804688 256.792969 300.578125 250.507813 C 294.132813 234.003906 288.625 217.027344 280.644531 201.058594 C 274.941406 189.640625 264.824219 178.976563 251.113281 182.734375 C 234.039063 186.054688 232.773438 212.441406 250.628906 218.296875 C 256.363281 220.175781 262.945313 219.90625 268.058594 223.316406 C 274.066406 227.6875 276.117188 235.203125 275.023438 242.71875 Z M 438.582031 153.765625 C 434.210938 154.039063 430.65625 155.953125 428.742188 160.050781 C 426.285156 176.039063 430.109375 191.066406 432.980469 205.6875 C 436.257813 219.898438 447.328125 232.605469 441.859375 248.867188 C 436.667969 258.023438 426.148438 256.792969 416.582031 256.792969 C 413.167969 256.65625 413.988281 260.480469 413.304688 262.667969 C 410.84375 269.5 403.328125 266.21875 397.589844 266.628906 C 382.835938 261.300781 369.988281 269.226563 360.289063 279.066406 L 341.566406 280.429688 C 332.277344 282.617188 334.054688 293.273438 331.046875 300.109375 C 323.175781 312.105469 307.984375 305.242188 295.515625 305.445313 C 291.929688 305.503906 289.3125 304.773438 285.476563 307.957031 C 281.996094 310.84375 279.292969 315.527344 275.023438 316.503906 C 274.5625 320.871094 280.257813 326.433594 287.085938 326.984375 C 293.765625 327.527344 299.851563 322.988281 304.8125 318.144531 C 312.601563 311.585938 325.308594 317.1875 334.328125 313.90625 C 348.535156 309.261719 342.523438 291.90625 354.6875 285.625 C 363.566406 284.804688 371.355469 281.523438 378.324219 275.785156 C 387.070313 271.824219 398.410156 275.238281 408.796875 274.144531 C 416.71875 267.175781 429.289063 274.28125 437.898438 269.226563 C 455.664063 264.171875 449.378906 242.855469 451.699219 228.234375 C 453.476563 216.484375 450.195313 202.546875 457.574219 193.117188 C 462.164063 168.0625 454.304688 154.730469 438.582031 153.765625 Z M 461.945313 59.757813 L 462.496094 153.21875 C 462.496094 153.21875 466.183594 158.003906 466.867188 157.046875 L 467.140625 60.714844 C 463.039063 55.933594 455.800781 58.9375 450.058594 58.117188 L 450.058594 59.757813 Z M 470.691406 217.714844 C 467.550781 202.410156 467.414063 186.695313 467.140625 170.570313 L 465.226563 168.25 L 463.589844 171.257813 C 466.59375 189.019531 460.71875 205.964844 462.222656 224 C 462.222656 224 470.691406 226.761719 470.691406 217.714844 Z M 479.027344 56.78125 C 479.027344 54.824219 476.574219 53.238281 473.550781 53.238281 C 470.527344 53.238281 468.074219 54.824219 468.074219 56.78125 C 468.074219 58.738281 470.527344 60.324219 473.550781 60.324219 C 476.574219 60.324219 479.027344 58.738281 479.027344 56.78125 Z M 483.765625 44.265625 C 483.765625 44.265625 485.511719 43.101563 485.871094 40.648438 C 486.558594 35.945313 480.761719 30.964844 478.648438 33.074219 C 481.527344 36.273438 484.246094 39.472656 483.765625 44.265625 "/>
</g>
</svg>
