<?xml version="1.0" encoding="UTF-8"?>
<svg xmlns="http://www.w3.org/2000/svg" xmlns:xlink="http://www.w3.org/1999/xlink" width="373pt" height="595pt" viewBox="0 0 373 595" version="1.1">
<g id="surface1">
<path style=" stroke:none;fill-rule:nonzero;fill:rgb(0%,0%,0%);fill-opacity:1;" d="M 175.214844 200.886719 C 176.023438 201.390625 177.085938 201.175781 177.605469 200.363281 C 179.40625 197.414063 183.347656 198.617188 186.191406 198.851563 L 187.523438 198.996094 C 188.675781 198.933594 189.191406 198.785156 189.550781 197.480469 C 189.589844 197.328125 190.582031 197.3125 190.882813 197.382813 C 192.007813 197.644531 194.605469 198.011719 194.21875 195.703125 L 194.09375 195.054688 C 193.246094 192.914063 190.871094 192.140625 189.269531 190.71875 C 188.53125 190.140625 187.433594 190.265625 186.839844 191.023438 C 186.601563 191.332031 186.484375 191.703125 186.488281 192.070313 C 186.488281 192.195313 186.332031 192.425781 186.285156 192.429688 C 185.394531 192.484375 184.679688 193.214844 184.664063 194.117188 L 184.644531 194.605469 C 184.644531 194.800781 184.421875 195.140625 184.261719 195.125 C 180.605469 194.757813 176.707031 195.015625 174.691406 198.492188 C 174.1875 199.304688 174.402344 200.363281 175.214844 200.886719 "/>
<path style=" stroke:none;fill-rule:nonzero;fill:rgb(0%,0%,0%);fill-opacity:1;" d="M 150.730469 224.71875 C 149.261719 227.617188 149.886719 235.261719 152.957031 235.929688 C 151.542969 240.9375 151.785156 246.355469 155.214844 250.640625 C 155.753906 251.429688 156.835938 251.628906 157.628906 251.089844 C 158.417969 250.550781 158.617188 249.488281 158.074219 248.695313 C 154.007813 243.761719 155.574219 237.066406 158.347656 231.9375 C 158.777344 231.089844 158.417969 230.046875 157.570313 229.613281 C 156.726563 229.183594 155.683594 229.542969 155.25 230.390625 C 154.980469 230.878906 154.238281 231.238281 154.121094 230.910156 C 153.582031 229.425781 153.132813 227.945313 153.792969 226.410156 C 154.636719 224.503906 156.007813 222.902344 157.429688 221.371094 L 158.507813 219.515625 C 158.65625 219.007813 158.558594 218.460938 158.261719 218.03125 C 158.203125 217.945313 158.253906 217.28125 158.40625 217.082031 C 162.429688 211.835938 164.113281 210.796875 169.761719 207.800781 C 175.019531 205.011719 172.175781 202.011719 167.835938 204.769531 C 156.929688 211.691406 155.964844 214.335938 150.730469 224.71875 "/>
<path style=" stroke:none;fill-rule:nonzero;fill:rgb(0%,0%,0%);fill-opacity:1;" d="M 203.449219 195.328125 C 206.894531 194.648438 210.308594 195.101563 213.480469 196.414063 C 213.386719 196.636719 213.339844 196.871094 213.335938 197.105469 C 213.324219 198.886719 215.046875 199.03125 216.9375 199.714844 C 225.03125 202.648438 229.886719 211.34375 231.085938 219.589844 C 231.175781 220.523438 232.019531 221.246094 232.957031 221.15625 C 233.742188 221.082031 234.355469 220.507813 234.507813 219.777344 C 234.539063 219.617188 234.730469 219.414063 234.847656 219.679688 C 236.863281 224.277344 237.089844 229.65625 236.289063 234.585938 C 236.054688 235.519531 236.613281 236.457031 237.53125 236.691406 C 238.449219 236.941406 239.402344 236.386719 239.636719 235.46875 C 240.859375 228.417969 240.167969 220.546875 235.953125 214.609375 C 235.453125 213.90625 232.121094 210.652344 231.828125 210.007813 C 229.242188 204.328125 225.035156 199.386719 219.335938 196.960938 C 219.398438 196.695313 219.445313 196.347656 219.394531 195.953125 C 219.183594 194.386719 207.617188 190.011719 202.566406 191.898438 C 196.617188 194.121094 197.605469 196.480469 203.449219 195.328125 "/>
<path style=" stroke:none;fill-rule:nonzero;fill:rgb(0%,0%,0%);fill-opacity:1;" d="M 180.523438 264.050781 C 179.910156 264.785156 180.019531 265.886719 180.757813 266.480469 C 185.941406 272.546875 193.933594 275.75 201.871094 274.867188 C 211.535156 273.785156 219.1875 266.929688 223.128906 258.324219 C 223.6875 257.53125 223.488281 256.453125 222.695313 255.914063 C 221.921875 255.371094 220.84375 255.570313 220.300781 256.34375 C 218.789063 259.007813 217.351563 261.601563 215.335938 264.03125 C 211.824219 268.242188 207.019531 270.636719 201.761719 271.375 C 194.5625 272.402344 187.597656 269.253906 182.953125 263.816406 C 182.214844 263.203125 181.117188 263.3125 180.523438 264.050781 "/>
<path style=" stroke:none;fill-rule:nonzero;fill:rgb(0%,0%,0%);fill-opacity:1;" d="M 165.277344 255.523438 L 165.996094 254.75 C 166.121094 254.503906 166.242188 254.257813 166.355469 254.011719 C 167.035156 254.203125 167.789063 253.96875 168.230469 253.363281 L 168.625 252.753906 C 169.058594 251.960938 169.308594 251.113281 169.308594 250.230469 C 169.308594 245.191406 170.082031 239.988281 168.605469 235.058594 C 168.28125 234.15625 167.273438 233.707031 166.394531 234.03125 C 165.492188 234.371094 165.042969 235.363281 165.367188 236.261719 C 166.453125 240.679688 165.921875 245.257813 165.84375 249.75 C 165.792969 249.738281 165.746094 249.722656 165.691406 249.710938 C 165.222656 249.617188 164.765625 249.730469 164.398438 249.984375 C 163.742188 247.949219 163.1875 245.886719 162.792969 243.769531 C 162.683594 242.835938 161.820313 242.148438 160.867188 242.257813 C 159.929688 242.382813 159.246094 243.246094 159.371094 244.183594 C 160.058594 247.730469 160.972656 251.238281 162.378906 254.550781 L 162.628906 255.035156 C 162.683594 255.144531 162.757813 255.253906 162.828125 255.34375 C 163.460938 256.0625 164.539063 256.152344 165.277344 255.523438 "/>
<path style=" stroke:none;fill-rule:nonzero;fill:rgb(0%,0%,0%);fill-opacity:1;" d="M 186.464844 221.371094 C 185.527344 221.210938 184.628906 221.839844 184.464844 222.773438 C 184.011719 225.40625 183.585938 228.039063 183.300781 230.691406 C 182.785156 235.492188 186.058594 235.832031 186.761719 230.949219 C 187.128906 228.417969 187.4375 225.882813 187.882813 223.367188 C 188.046875 222.414063 187.398438 221.53125 186.464844 221.371094 "/>
<path style=" stroke:none;fill-rule:nonzero;fill:rgb(0%,0%,0%);fill-opacity:1;" d="M 193.867188 217.460938 C 194.238281 219.480469 194.210938 221.546875 193.855469 223.5625 C 193.738281 224.246094 193.527344 224.089844 193.359375 223.753906 C 193.128906 223.296875 192.695313 222.945313 192.15625 222.839844 C 191.21875 222.644531 190.300781 223.253906 190.121094 224.191406 C 189.527344 227.917969 188.988281 231.734375 187.242188 235.136719 L 187.078125 235.585938 C 186.917969 236.054688 186.972656 236.558594 187.207031 236.988281 C 187.675781 237.816406 188.71875 238.121094 189.546875 237.65625 L 190.195313 237.277344 C 195.664063 232.34375 198.476563 224.355469 197.304688 217.082031 C 197.195313 216.128906 196.351563 215.441406 195.394531 215.550781 C 194.441406 215.660156 193.757813 216.503906 193.867188 217.460938 "/>
<path style=" stroke:none;fill-rule:nonzero;fill:rgb(0%,0%,0%);fill-opacity:1;" d="M 170.640625 231.253906 C 169.742188 231.558594 169.253906 232.550781 169.5625 233.449219 C 171.144531 236.941406 171.144531 240.773438 171.199219 244.535156 C 171.214844 245.492188 172.007813 246.246094 172.964844 246.230469 C 173.914063 246.210938 174.671875 245.421875 174.652344 244.464844 C 174.617188 240.359375 174.527344 236.148438 172.835938 232.335938 C 172.53125 231.433594 171.539063 230.945313 170.640625 231.253906 "/>
<path style=" stroke:none;fill-rule:nonzero;fill:rgb(0%,0%,0%);fill-opacity:1;" d="M 175.535156 236.652344 C 175.644531 237.011719 175.878906 237.320313 176.183594 237.535156 C 176.960938 238.09375 178.039063 237.914063 178.597656 237.121094 L 179.117188 236.347656 C 179.191406 236.203125 179.433594 236.132813 179.496094 236.238281 C 179.964844 237.066406 181.027344 237.355469 181.855469 236.867188 C 182.683594 236.382813 182.953125 235.339844 182.484375 234.511719 C 181.964844 233.753906 181.765625 232.855469 181.332031 232.046875 L 180.71875 230.875 C 180.539063 230.515625 180.253906 230.246094 179.894531 230.066406 C 179.242188 229.765625 178.503906 229.910156 178.011719 230.378906 C 177.894531 230.484375 177.664063 230.328125 177.644531 230.121094 C 177.214844 225.507813 178.105469 220.773438 179.65625 216.421875 C 179.910156 215.503906 179.371094 214.550781 178.453125 214.296875 C 177.535156 214.046875 176.578125 214.585938 176.328125 215.503906 C 174.023438 221.984375 173.179688 229.21875 175.285156 235.859375 L 175.535156 236.652344 "/>
<path style=" stroke:none;fill-rule:nonzero;fill:rgb(0%,0%,0%);fill-opacity:1;" d="M 198.953125 230.804688 C 198.71875 231.738281 199.296875 232.675781 200.214844 232.890625 C 201.148438 233.125 202.085938 232.566406 202.300781 231.632813 C 202.609375 231.023438 202.851563 230.40625 203.042969 229.789063 C 203.085938 229.648438 203.191406 229.660156 203.234375 229.808594 C 203.320313 230.117188 203.5 230.402344 203.742188 230.621094 C 204.445313 231.269531 205.542969 231.199219 206.171875 230.496094 L 206.714844 229.847656 C 207.046875 229.386719 207.371094 228.921875 207.6875 228.445313 C 207.6875 228.445313 212.609375 230.132813 214.667969 225.1875 C 216.71875 220.253906 216.46875 214.550781 214.09375 209.796875 C 213.785156 208.898438 212.796875 208.429688 211.894531 208.734375 C 210.996094 209.058594 210.511719 210.03125 210.835938 210.929688 C 212.742188 214.566406 213.046875 218.742188 211.949219 222.757813 C 211.65625 223.796875 211.105469 224.808594 209.898438 225.046875 C 210.003906 224.628906 210.136719 224.214844 210.277344 223.800781 L 210.710938 222.074219 C 210.960938 221.171875 210.472656 220.238281 209.609375 219.949219 C 208.691406 219.625 207.71875 220.109375 207.414063 221.027344 C 207.414063 221.027344 207.003906 222.25 206.941406 222.425781 C 206.828125 222.765625 206.539063 222.800781 206.523438 222.488281 C 206.503906 222.09375 206.476563 221.695313 206.441406 221.300781 C 206.371094 220.34375 205.542969 219.625 204.589844 219.695313 C 203.996094 219.753906 203.507813 220.09375 203.238281 220.570313 C 203.148438 220.726563 202.972656 220.796875 202.9375 220.65625 C 202.464844 218.777344 201.816406 216.921875 201.167969 215.125 C 200.878906 214.226563 199.890625 213.722656 198.988281 214.027344 C 198.089844 214.335938 197.605469 215.304688 197.894531 216.222656 C 199.742188 223.082031 200.328125 224.308594 198.953125 230.804688 "/>
<path style=" stroke:none;fill-rule:nonzero;fill:rgb(0%,0%,0%);fill-opacity:1;" d="M 227.429688 233.089844 C 227.53125 233.839844 227.636719 234.589844 227.734375 235.339844 L 227.96875 236.167969 C 228.214844 236.945313 230.351563 237.910156 232.15625 235.734375 C 232.261719 235.609375 232.511719 235.621094 232.542969 235.769531 C 232.632813 236.726563 233.480469 237.425781 234.433594 237.320313 C 236.394531 237.132813 235.039063 230.09375 233.351563 230.316406 L 232.507813 230.515625 C 231.941406 230.753906 231.453125 231.101563 231.027344 231.515625 C 230.9375 231.601563 230.058594 232.230469 230.070313 231.308594 C 230.085938 230.175781 230.183594 226.050781 230.183594 226.050781 C 230.128906 225.296875 229.570313 224.664063 228.835938 224.503906 C 227.914063 224.285156 226.980469 224.882813 226.78125 225.816406 C 226.78125 225.816406 226.324219 227.835938 226.097656 228.425781 C 225.96875 228.761719 225.660156 228.734375 225.652344 228.429688 C 225.539063 225.363281 225.21875 225.03125 224.492188 224.535156 C 224.632813 222.035156 224.214844 219.496094 223.597656 217.050781 C 223.433594 216.113281 222.550781 215.484375 221.597656 215.628906 C 221.039063 215.726563 220.5 216.03125 220.179688 216.460938 C 220.175781 216.082031 220.171875 215.699219 220.15625 215.324219 C 220.15625 214.367188 219.382813 213.59375 218.429688 213.59375 C 217.476563 213.59375 216.703125 214.367188 216.703125 215.324219 C 216.8125 219.105469 216.71875 223.046875 214.703125 226.394531 C 214.234375 227.238281 214.542969 228.28125 215.386719 228.753906 C 216.214844 229.199219 217.277344 228.894531 217.730469 228.066406 C 219.339844 225.40625 219.945313 222.402344 220.121094 219.355469 C 220.140625 219.070313 220.320313 219.171875 220.394531 219.511719 C 221.03125 222.429688 221.339844 225.496094 220.15625 228.265625 L 220.03125 228.660156 C 219.78125 229.417969 220.066406 230.226563 220.734375 230.660156 C 221.160156 230.941406 221.667969 230.996094 222.128906 230.871094 C 222.082031 231.574219 222.085938 234.097656 222.136719 234.277344 C 222.59375 236.066406 225.234375 235.96875 227.429688 233.089844 "/>
<path style=" stroke:none;fill-rule:nonzero;fill:rgb(0%,0%,0%);fill-opacity:1;" d="M 161.21875 254.710938 C 161.21875 253.824219 160.507813 253.109375 159.617188 253.109375 C 157.257813 253.285156 154.707031 255.035156 154.332031 257.484375 C 153.632813 261.984375 158.257813 264.996094 162.21875 265.496094 C 163.105469 265.597656 163.894531 264.960938 163.992188 264.085938 C 164.09375 263.210938 163.457031 262.421875 162.582031 262.324219 C 160.445313 261.949219 158.277344 260.882813 157.492188 258.6875 C 156.554688 256.042969 161.21875 255.597656 161.21875 254.710938 "/>
<path style=" stroke:none;fill-rule:nonzero;fill:rgb(0%,0%,0%);fill-opacity:1;" d="M 238.046875 239.421875 C 237.894531 240.296875 238.46875 241.121094 239.332031 241.285156 C 244.441406 243.742188 243.21875 246.445313 239.03125 248.835938 C 238.40625 249.460938 238.421875 250.484375 239.046875 251.097656 C 239.683594 251.722656 240.695313 251.710938 241.308594 251.085938 C 243.09375 249.0625 245.671875 246.910156 245.121094 243.898438 C 244.644531 241.222656 242.558594 238.796875 239.90625 238.136719 C 239.03125 237.984375 238.207031 238.5625 238.046875 239.421875 "/>
<path style=" stroke:none;fill-rule:nonzero;fill:rgb(0%,0%,0%);fill-opacity:1;" d="M 201.269531 256.121094 C 201.820313 255.523438 202.617188 255.246094 203.394531 255.097656 C 204.269531 254.972656 204.867188 254.160156 204.730469 253.285156 C 204.605469 252.410156 203.78125 251.8125 202.921875 251.9375 C 201.558594 252.210938 200.171875 252.6875 199.171875 253.699219 C 198.507813 254.285156 198.433594 255.296875 199.007813 255.960938 C 199.59375 256.621094 200.605469 256.699219 201.269531 256.121094 "/>
<path style=" stroke:none;fill-rule:nonzero;fill:rgb(0%,0%,0%);fill-opacity:1;" d="M 195.582031 244.324219 C 195.921875 243.496094 195.519531 242.5625 194.707031 242.234375 C 192.070313 241.160156 189.15625 242.171875 187.117188 243.972656 C 186.421875 244.511719 186.296875 245.523438 186.84375 246.210938 C 187.382813 246.910156 188.382813 247.035156 189.082031 246.484375 C 190.308594 245.410156 191.933594 244.6875 193.546875 245.109375 C 193.53125 245.136719 193.507813 245.160156 193.492188 245.1875 C 194.308594 245.523438 195.242188 245.136719 195.582031 244.324219 "/>
<path style=" stroke:none;fill-rule:nonzero;fill:rgb(0%,0%,0%);fill-opacity:1;" d="M 210.257813 242.871094 C 211.695313 241.8125 213.707031 241.859375 215.230469 242.710938 C 215.992188 243.136719 216.96875 242.859375 217.40625 242.085938 C 217.832031 241.3125 217.558594 240.335938 216.78125 239.910156 C 214.28125 238.511719 210.96875 238.472656 208.582031 240.148438 C 207.832031 240.609375 207.59375 241.597656 208.058594 242.347656 C 208.519531 243.097656 209.507813 243.335938 210.257813 242.871094 "/>
<path style=" stroke:none;fill-rule:nonzero;fill:rgb(0%,0%,0%);fill-opacity:1;" d="M 368.429688 321.929688 C 372.589844 320.691406 376.480469 316.734375 364.996094 313.207031 C 363.28125 312.683594 359.214844 312.144531 358.691406 312.023438 C 358.234375 311.917969 357.695313 311.023438 358.0625 310.625 C 358.816406 309.796875 360.613281 307.59375 360.777344 306.371094 C 361.730469 299.351563 358.476563 296.324219 353.378906 301.613281 C 347.273438 307.953125 342.296875 310.078125 336.960938 311.078125 C 320.75 314.117188 292.558594 314.074219 288.960938 312.410156 C 286.046875 311.410156 283.023438 310.210938 276.796875 306.410156 C 276.679688 306.34375 279.449219 301.421875 278.554688 300.976563 C 271 297.214844 247.871094 288.476563 239.222656 287.101563 C 238.234375 286.941406 229.621094 284.578125 226.433594 283.726563 C 229.429688 280.410156 231.578125 276.414063 233.59375 272.386719 C 236.207031 267.148438 237.582031 261.484375 237.421875 255.6875 C 237.507813 249.492188 234.308594 249.417969 234.21875 255.621094 C 234.371094 260.949219 233.15625 266.136719 230.746094 270.921875 C 227.363281 277.664063 223.84375 283.726563 218.289063 286.007813 C 206.871094 290.699219 195.769531 288.761719 186.894531 284.703125 C 177.300781 280.320313 170.984375 273.835938 167.964844 268.195313 C 165.480469 263.558594 162.554688 264.957031 164.777344 269.597656 C 167.222656 274.691406 173.691406 280.832031 178.910156 283.679688 C 177.5625 283.957031 176.191406 284.015625 174.816406 284 C 173.574219 283.988281 169.886719 282.941406 168.160156 281.34375 C 164.820313 278.257813 157.410156 269.199219 151.21875 263.710938 C 150.410156 262.992188 150.019531 264.839844 149.839844 264.683594 C 144.320313 259.890625 138.757813 255.371094 134.570313 252.734375 C 131.972656 244.816406 128.472656 238.019531 124.453125 231.5625 C 119.328125 223.332031 105.664063 206.210938 105.566406 206.0625 C 103.96875 203.664063 101.640625 191.148438 101.617188 187.761719 C 129.964844 126.898438 162.476563 56.714844 165.367188 48.34375 L 161.648438 46.898438 C 161.273438 47.972656 160.402344 50.082031 159.113281 53.066406 C 157.730469 52.664063 154.25 51.679688 146.984375 49.710938 C 136.898438 46.980469 132.226563 44.328125 126.070313 40.816406 C 119.914063 37.304688 113.664063 34.179688 109.363281 31.519531 C 105.058594 28.855469 93.503906 20.367188 89.886719 18.277344 C 86.273438 16.1875 71.53125 9 68.121094 7.78125 C 64.710938 6.5625 42.324219 0.40625 38.246094 0.265625 C 38.246094 0.265625 4.484375 80.382813 2.402344 85.230469 C 0.324219 90.082031 0.0195313 90.558594 2.832031 90.957031 C 5.648438 91.355469 19.839844 95.417969 31.925781 99.921875 C 44.011719 104.429688 50.785156 110.550781 56.164063 113.878906 C 61.539063 117.210938 67.421875 121.890625 72.613281 125.996094 C 77.808594 130.101563 92.273438 138.457031 100.46875 142.039063 C 106.785156 144.804688 112.816406 147.742188 115.246094 148.945313 C 110.820313 158.480469 106.332031 168.136719 101.90625 177.648438 C 101.550781 175.90625 100.324219 174.789063 98.71875 175.011719 C 96.519531 175.308594 95.917969 180.308594 95.742188 181.726563 L 95.253906 184.535156 C 92.667969 183.964844 88.359375 183.894531 86.558594 186.050781 C 84.953125 187.96875 84.640625 190.429688 85.160156 192.839844 C 84.386719 193.132813 83.707031 193.550781 83.21875 194.136719 C 81.828125 195.800781 81.410156 197.871094 81.660156 199.960938 C 80.960938 200.105469 80.367188 200.289063 79.898438 200.851563 C 76.195313 205.28125 79.832031 212.234375 84.527344 214.960938 C 68.625 249.0625 56.320313 275.378906 55.269531 277.757813 L 58.953125 279.347656 C 59.984375 276.972656 88.480469 216.109375 88.519531 216.109375 C 89.152344 216.09375 89.777344 216.03125 90.367188 215.90625 L 91.523438 215.261719 C 91.523438 215.261719 92.878906 218.015625 94.105469 221.484375 C 102.445313 245.132813 112.449219 268.777344 129.328125 286.960938 C 129.308594 286.976563 129.289063 286.992188 129.269531 287.011719 C 128.59375 287.535156 128.519531 288.585938 129.117188 289.261719 C 129.644531 289.9375 162.242188 311.835938 162.242188 311.835938 C 166.449219 329.828125 165.648438 348.394531 164.328125 366.714844 C 164.210938 368.324219 162.214844 385.097656 162.148438 387.144531 C 162.113281 388.25 165.976563 388.984375 165.976563 388.984375 C 161.214844 416.585938 150.519531 431.890625 145.070313 460.335938 C 144.695313 462.285156 144.695313 464.011719 145.820313 465.660156 L 146.902344 466.90625 C 146.902344 466.90625 146.488281 468.140625 145.878906 470.226563 C 145.636719 471.0625 145.59375 472.410156 145.59375 472.410156 C 145.671875 473.085938 147.320313 474.511719 147.546875 475.335938 L 147.242188 477.4375 C 147.242188 477.8125 147.394531 478.261719 147.695313 478.5625 C 147.695313 478.5625 151.613281 481.597656 152.195313 483.4375 C 154.070313 489.660156 153.242188 496.335938 155.796875 502.035156 C 160.792969 513.300781 169.914063 525.160156 174.429688 537.410156 C 175.726563 540.921875 175.898438 549.378906 176.195313 550.109375 C 176.382813 550.527344 176.722656 550.828125 177.109375 550.976563 C 177.109375 552.785156 176.933594 554.601563 176.578125 556.421875 C 176.464844 556.664063 176.414063 556.925781 176.425781 557.183594 C 175.914063 559.46875 175.109375 561.761719 173.945313 564.0625 C 173.671875 564.511719 173.679688 565.042969 173.886719 565.476563 C 173.960938 565.632813 173.8125 565.910156 173.617188 565.910156 C 172.828125 565.910156 172.175781 566.5625 172.089844 567.335938 C 168.070313 569.507813 160.992188 570.679688 157.617188 573.3125 C 154.71875 575.5625 154.269531 579.460938 155.019531 582.960938 C 155.867188 587.113281 158.96875 590.511719 163.019531 591.460938 C 173.367188 593.960938 184.71875 593.210938 192.519531 585.410156 C 198.71875 579.164063 206.140625 573.070313 213.785156 568.875 C 212.613281 570.953125 211.324219 573.003906 210.144531 575.136719 C 208.847656 577.53125 207.816406 580.074219 207.269531 582.722656 C 206.261719 587.617188 206.410156 588.699219 212.605469 591.246094 C 219.207031 593.960938 228.464844 594.734375 236.019531 594.238281 C 240.769531 593.910156 245.671875 593.636719 249.71875 590.410156 C 252.121094 588.511719 252.671875 585.660156 252.421875 582.8125 C 251.996094 577.535156 249.171875 573.410156 245.84375 569.335938 C 243.988281 567.085938 243.140625 564.269531 242.898438 561.386719 C 244.089844 560.878906 245.488281 560.222656 245.59375 560.164063 C 246.070313 559.894531 246.394531 559.402344 246.394531 558.8125 C 247.671875 546.660156 250.144531 535.035156 252.019531 522.734375 C 254.195313 508.261719 248.871094 494.835938 247.746094 480.585938 C 247.335938 476.222656 249.355469 475.117188 248.0625 472.539063 C 247.613281 471.640625 247.253906 470.25 248.214844 468.855469 C 249.039063 467.65625 250.367188 465.164063 247.816406 464.421875 C 245.109375 463.691406 244.015625 462.589844 244.726563 459.941406 C 249.578125 441.925781 249.917969 423.382813 246.070313 404.777344 C 245.574219 402.375 244.746094 394.949219 244.761719 394.894531 C 244.761719 394.894531 250.796875 393.484375 250.796875 392.886719 C 250.796875 392.886719 251.554688 387.410156 251.753906 385.914063 C 253.84375 370.199219 248.863281 345.28125 247.726563 329.65625 C 247.703125 329.347656 256.960938 333.757813 261.753906 335.242188 C 262.355469 334.8125 264.007813 330.042969 265.046875 330.160156 C 268.234375 331.574219 273.796875 332.910156 279.976563 334.257813 C 282.660156 334.839844 285.703125 335.578125 289.050781 335.597656 C 300.046875 335.660156 313.871094 335.640625 327.21875 330.84375 C 338.628906 326.746094 345.714844 330.433594 352.035156 334.992188 C 359.453125 340.347656 368.410156 338.855469 360.296875 331.078125 L 358.144531 329.136719 C 358.144531 329.136719 365.628906 330.210938 366.863281 330.261719 C 369.570313 330.371094 373.191406 329.828125 368.578125 325.214844 L 361.453125 322.195313 C 361.453125 322.195313 367.402344 322.238281 368.429688 321.929688 Z M 113.539063 129.652344 C 111.769531 128.839844 107.390625 126.910156 102.742188 124.808594 L 97.136719 137.816406 C 90.953125 134.734375 83.171875 130.277344 77.96875 126.847656 L 83.382813 114.285156 C 80.546875 112.109375 77.757813 109.738281 74.90625 107.628906 C 72.230469 105.648438 69.15625 103.660156 66.148438 101.71875 L 60.824219 114.070313 C 59.679688 113.285156 58.542969 112.53125 57.425781 111.839844 C 56.125 111.035156 54.738281 110.058594 53.132813 108.929688 C 50.335938 106.957031 46.910156 104.550781 42.609375 102.191406 L 47.628906 90.550781 C 43.566406 88.4375 39.839844 86.574219 38.671875 85.898438 C 37.390625 85.160156 33.460938 83.5625 28.703125 81.90625 L 23.332031 94.367188 C 14.691406 91.5 6.449219 89.160156 3.566406 88.644531 C 3.800781 88.0625 4.109375 87.34375 4.414063 86.636719 L 4.609375 86.179688 C 5.011719 85.238281 6.625 81.425781 8.957031 75.902344 C 10.164063 76.121094 11.550781 76.347656 13.199219 76.582031 C 17.03125 77.128906 22.539063 78.808594 28.578125 81.121094 L 34 68.546875 C 29.691406 67.167969 25.714844 66.117188 21.917969 65.21875 C 18.789063 64.476563 16.238281 63.875 14.234375 63.398438 C 16.273438 58.5625 18.496094 53.292969 20.757813 47.9375 C 23.863281 48.710938 31.796875 50.960938 40.359375 53.789063 L 46.578125 39.359375 C 41.257813 37.648438 35.296875 35.773438 32.078125 35.011719 C 30.222656 34.574219 28.394531 34.089844 26.785156 33.640625 C 29.085938 28.175781 31.289063 22.953125 33.230469 18.351563 C 35.113281 18.976563 48.011719 23.140625 52.941406 24.601563 L 60.132813 7.914063 C 63.527344 8.859375 66.253906 9.664063 67.3125 10.042969 C 69.164063 10.703125 74.917969 13.402344 80.097656 15.949219 L 73.359375 31.585938 C 79.398438 34.234375 85.238281 37.363281 91.015625 40.871094 C 91.277344 41.027344 91.539063 41.191406 91.800781 41.351563 L 98.101563 26.726563 C 98.292969 26.859375 98.480469 26.992188 98.671875 27.125 C 102.449219 29.769531 106.015625 32.269531 108.097656 33.558594 C 110.507813 35.050781 113.507813 36.679688 116.691406 38.398438 L 110.378906 53.046875 C 115.3125 56.023438 120.394531 58.820313 125.921875 61.203125 C 126.9375 61.644531 127.953125 62.058594 128.972656 62.453125 L 135.113281 48.203125 C 138.164063 49.519531 141.707031 50.769531 146.355469 52.027344 C 151.375 53.386719 154.589844 54.28125 156.285156 54.71875 L 149.890625 68.859375 C 145.984375 67.9375 136.066406 65.398438 130.1875 63.371094 C 129.90625 63.273438 129.632813 63.175781 129.355469 63.074219 L 122.800781 78.277344 C 128.1875 80.429688 138.136719 82.976563 142.980469 84.140625 L 135.164063 101.433594 C 133.539063 100.84375 131.769531 100.214844 130.597656 99.847656 C 128.953125 99.332031 122.179688 96.460938 116.105469 93.8125 L 109.480469 109.175781 C 116.53125 112.476563 123.511719 115.636719 127.859375 117.585938 L 120.882813 133.019531 C 118.3125 131.839844 115.347656 130.480469 113.539063 129.652344 Z M 96.175781 188.503906 C 96.382813 187.199219 96.640625 185.785156 96.820313 184.710938 C 97.21875 182.308594 97.019531 177.511719 98.320313 177.109375 C 99.617188 176.710938 100.320313 177.511719 100.417969 179.011719 C 100.445313 179.398438 100.109375 180.78125 100.046875 181.644531 C 98.945313 184.019531 97.84375 186.378906 96.75 188.726563 C 96.46875 189.332031 96.0625 189.242188 96.175781 188.503906 Z M 90.515625 186 C 92.308594 185.800781 93.882813 186.085938 94.847656 186.355469 C 95.214844 186.457031 94.628906 188.949219 94.570313 190.785156 C 92.953125 190.621094 92.378906 191.738281 95.40625 194.035156 C 96.347656 194.90625 97.742188 195.683594 97.699219 197.160156 C 97.320313 199.351563 95.527344 199.242188 93.988281 199.09375 C 88.761719 198.542969 84.40625 186.679688 90.515625 186 Z M 87.84375 214.140625 C 83.734375 213.707031 76.160156 204.789063 82.101563 201.96875 C 83.363281 205.960938 86.800781 209.5625 90.289063 209.960938 C 90.972656 210.558594 91.582031 211.226563 91.550781 212.207031 C 91.308594 213.910156 89.382813 214.289063 87.84375 214.140625 Z M 90.648438 207.179688 C 85.929688 206.683594 81.921875 196.964844 85.6875 194.582031 C 86.804688 197.492188 89.035156 200.097656 91.53125 201.265625 C 91.597656 201.597656 94.402344 203.769531 94.359375 205.246094 C 93.949219 207.335938 92.1875 207.328125 90.648438 207.179688 Z M 106.660156 244.847656 C 104.480469 239.875 95.21875 220.011719 93.46875 213.925781 C 94.421875 212.222656 93.15625 210.367188 92.320313 209.808594 C 91.417969 209.210938 91.617188 208.410156 94.019531 208.410156 C 96.417969 208.410156 96.320313 204.011719 95.519531 202.609375 C 94.71875 201.210938 96.21875 200.410156 98.320313 199.710938 C 100.078125 199.125 99.101563 196.652344 98.09375 195.332031 C 98.625 194.1875 99.160156 193.039063 99.695313 191.890625 C 100.222656 196.425781 103.042969 206.214844 104.820313 209.109375 C 105.105469 209.578125 105.394531 209.886719 105.675781 210.089844 C 116.140625 224.875 125.738281 237.148438 131.867188 254.386719 C 136.183594 257.496094 142.078125 262.53125 148.007813 267.660156 C 144.160156 274.734375 137.914063 279.921875 131.734375 284.984375 C 120.953125 273.492188 113.097656 259.546875 106.660156 244.847656 Z M 176.921875 564.410156 L 178.71875 566.210938 C 178.71875 566.210938 175.890625 566.855469 175.527344 566.871094 C 175.597656 566.792969 176.789063 564.671875 176.921875 564.410156 Z M 178.648438 561.152344 C 178.789063 560.761719 178.929688 560.371094 179.050781 559.980469 C 180.113281 560.707031 181.253906 561.316406 182.441406 561.820313 C 183.617188 562.910156 180.890625 563.039063 180.019531 562.710938 L 178.769531 561.160156 C 178.730469 561.15625 178.691406 561.15625 178.648438 561.152344 Z M 201.019531 572.5625 C 196.421875 576.761719 193.117188 581.511719 187.769531 585.113281 C 180.46875 590.011719 172.570313 590.210938 164.570313 588.613281 C 159.671875 587.660156 155.320313 581.910156 159.269531 576.660156 C 161.984375 573.074219 169.730469 572.417969 173.835938 570.042969 C 175.136719 569.289063 175.210938 569.085938 176.519531 569.070313 C 178.171875 569.046875 182.574219 568.691406 181.019531 565.460938 C 181.019531 565.460938 181.617188 564.828125 182.304688 564.71875 C 185.394531 564.238281 190.464844 562 185.605469 559.847656 C 183.535156 558.929688 180.964844 557.679688 179.847656 556.691406 C 180.226563 554.636719 180.394531 552.585938 180.359375 550.539063 C 187.242188 549.179688 194.511719 547.152344 199.691406 542.28125 C 199.886719 542.101563 200.695313 542.367188 200.90625 542.621094 C 202.675781 544.722656 205.523438 545.800781 207.316406 547.773438 C 207.984375 548.511719 208.507813 549.375 208.769531 550.460938 C 208.820313 551.363281 209.617188 552.011719 210.46875 551.960938 C 211.367188 551.863281 212.019531 551.113281 211.96875 550.261719 C 211.867188 548.457031 211.070313 547.113281 209.964844 545.972656 C 207.847656 543.800781 202.453125 539.53125 202.222656 539.425781 C 202.394531 539.1875 202.578125 538.960938 202.742188 538.710938 C 201.992188 528.511719 199.070313 519.136719 197.046875 508.859375 C 195.132813 499.101563 184.46875 481.113281 184.121094 480.484375 C 183.226563 478.878906 182.371094 478.195313 182.628906 476.527344 C 182.714844 475.992188 182.542969 475.460938 182.195313 475.109375 L 181.382813 474.394531 C 181.382813 474.394531 180.828125 473.460938 181.019531 473.359375 C 190.019531 468.484375 194.523438 448.691406 198.429688 439.46875 C 203.304688 457.488281 209.074219 487.644531 210.367188 501.117188 C 212.0625 518.710938 214.324219 536.234375 215.503906 553.914063 C 215.816406 558.617188 215.347656 559.445313 217.304688 560.277344 C 217.070313 561.421875 216.734375 562.527344 216.328125 563.601563 C 214.683594 564.1875 204.117188 569.710938 201.019531 572.5625 Z M 243.394531 571.4375 C 246.121094 574.8125 248.59375 577.910156 249.171875 582.238281 C 249.46875 584.488281 249.519531 586.910156 247.320313 588.1875 C 239.199219 592.957031 222.683594 591.679688 213.789063 588.179688 C 210.261719 586.792969 209.652344 585.972656 210.730469 582.085938 C 212.058594 577.304688 214.984375 573.082031 217.71875 568.710938 C 219.203125 566.347656 219.808594 563.832031 220.25 561.265625 C 226.550781 563.144531 233.472656 564.019531 239.804688 562.417969 C 240.199219 565.671875 241.277344 568.8125 243.394531 571.4375 Z M 241.71875 559.613281 L 235.019531 560.511719 C 236.019531 556.945313 238.019531 545.8125 238.285156 542.179688 C 239.785156 522.609375 239.273438 505.636719 234.808594 485.835938 C 232.609375 476.136719 229.273438 466.734375 231.976563 457.101563 C 234.609375 431.636719 227.121094 416.578125 228.820313 391.109375 L 235.308594 391.917969 C 234.441406 410.953125 237.710938 418.867188 239.574219 437.9375 C 240.242188 444.667969 239.675781 451.203125 238.875 457.902344 C 238.273438 462.96875 237.507813 468.101563 239.007813 473.035156 C 241.910156 482.667969 244.242188 492.203125 244.242188 502.070313 C 244.210938 520.335938 248.054688 542.042969 241.71875 559.613281 Z M 260.019531 332.710938 C 257.042969 331.679688 251.5625 329.195313 248.113281 327.695313 C 245.425781 326.527344 245.050781 327.265625 245.199219 329.324219 C 246.480469 346.675781 251.023438 372.402344 248.195313 388.820313 C 247.683594 391.796875 247.066406 392.105469 244.800781 391.882813 C 241.160156 391.519531 237.910156 389.621094 234.21875 389.136719 C 219.070313 387.1875 204.976563 389.910156 189.753906 387.511719 C 183.261719 386.480469 176.953125 386.445313 170.417969 385.8125 C 166.046875 385.386719 166.34375 384.410156 166.34375 384.410156 C 168.863281 368.046875 168.671875 345.230469 167.417969 329.109375 C 166.515625 317.449219 164.6875 309.378906 164.6875 309.378906 C 164.535156 308.703125 140.109375 295.839844 132.21875 287.910156 C 138.398438 282.753906 147.820313 274.609375 151.820313 267.511719 C 163.820313 280.109375 171.703125 290.519531 182.644531 285.734375 C 182.769531 285.691406 182.945313 285.652344 183.128906 285.621094 C 183.347656 285.707031 183.558594 285.796875 183.78125 285.878906 C 183.964844 285.941406 184.148438 285.964844 184.328125 285.964844 C 195.4375 294.335938 212.261719 293.601563 223.742188 286.859375 C 224.058594 286.671875 224.289063 286.390625 224.421875 286.070313 C 235.816406 288.128906 260.433594 294.199219 275.019531 302.3125 C 274.878906 302.414063 262.855469 323.605469 260.019531 332.710938 Z M 358.992188 322.597656 C 359.445313 322.835938 359.882813 323.089844 360.304688 323.351563 C 367.753906 326.175781 369.335938 329.277344 365.664063 329.105469 C 365.269531 329.089844 357.503906 327.425781 357.503906 327.425781 C 356.902344 327.425781 356.453125 327.726563 356.152344 328.175781 C 356.152344 328.175781 360.441406 333.71875 360.703125 334.195313 C 361.523438 335.679688 361.53125 338.652344 353.371094 333.660156 C 346.648438 329.550781 338.296875 324.746094 328.519531 328.5625 C 310.019531 335.78125 284.125 334.609375 279.546875 332.910156 C 275.054688 331.8125 269.296875 329.910156 264.71875 328.609375 C 267.824219 319.933594 275.269531 308.164063 275.296875 307.910156 C 276.367188 308.539063 285.769531 314.476563 291.960938 314.746094 C 307.015625 315.398438 323.296875 316.078125 338.960938 312.746094 C 338.953125 312.746094 348.015625 310.886719 352.410156 305.300781 C 356.648438 299.921875 360.769531 301.546875 357.886719 307.160156 C 357.539063 307.839844 355.652344 310.0625 354.90625 310.9375 C 353.898438 312.121094 355.429688 313.335938 357.355469 313.777344 C 358.570313 314.058594 363.539063 315.070313 364.703125 315.285156 C 373.058594 316.820313 369.335938 321.816406 361.066406 320.128906 C 358.652344 319.636719 357.28125 320.152344 358.992188 322.597656 "/>
<path style=" stroke:none;fill-rule:nonzero;fill:rgb(0%,0%,0%);fill-opacity:1;" d="M 66.820313 46.027344 L 72.867188 31.996094 C 70.800781 31.140625 68.828125 30.382813 67.039063 29.722656 C 63.714844 28.496094 58.199219 26.695313 53.183594 25.109375 L 47.226563 38.933594 C 49.421875 39.601563 51.703125 40.300781 54.082031 41.042969 C 58.742188 42.496094 62.980469 44.210938 66.820313 46.027344 "/>
<path style=" stroke:none;fill-rule:nonzero;fill:rgb(0%,0%,0%);fill-opacity:1;" d="M 59.964844 61.921875 C 58.898438 61.398438 57.816406 60.875 56.703125 60.367188 C 52.953125 58.652344 49.617188 57.800781 45.347656 56.238281 C 43.660156 55.621094 42.058594 55.058594 40.507813 54.519531 L 34.609375 68.199219 C 40.664063 70.308594 48.175781 73.164063 54.011719 75.734375 L 59.964844 61.921875 "/>
<path style=" stroke:none;fill-rule:nonzero;fill:rgb(0%,0%,0%);fill-opacity:1;" d="M 60.46875 61.488281 C 61.269531 61.867188 62.035156 62.246094 62.746094 62.617188 C 68.058594 65.410156 73.171875 68.761719 78.464844 72.285156 L 84.742188 57.71875 C 82.90625 56.511719 81.054688 55.273438 79.179688 53.972656 C 74.585938 50.777344 70.464844 48.449219 66.84375 46.699219 L 60.46875 61.488281 "/>
<path style=" stroke:none;fill-rule:nonzero;fill:rgb(0%,0%,0%);fill-opacity:1;" d="M 48.179688 90 C 49.488281 90.6875 50.78125 91.378906 52.007813 92.070313 C 56.582031 94.648438 61.4375 97.789063 66.101563 100.96875 L 71.875 87.578125 C 67.609375 84.324219 61.933594 80.421875 53.972656 76.558594 L 48.179688 90 "/>
<path style=" stroke:none;fill-rule:nonzero;fill:rgb(0%,0%,0%);fill-opacity:1;" d="M 103.164063 68.386719 L 109.648438 53.351563 C 105.605469 50.847656 97.863281 45.925781 91.835938 42.128906 L 85.359375 57.148438 C 87.761719 58.867188 89.714844 60.335938 91.207031 61.339844 C 93.5625 62.921875 98.113281 65.589844 103.164063 68.386719 "/>
<path style=" stroke:none;fill-rule:nonzero;fill:rgb(0%,0%,0%);fill-opacity:1;" d="M 96.378906 84.136719 C 94.070313 82.753906 91.398438 81.074219 87.886719 78.84375 C 84.90625 76.953125 81.84375 74.902344 78.613281 72.796875 L 72.347656 87.335938 C 77.507813 91.238281 83.472656 95.652344 89.816406 99.355469 L 96.378906 84.136719 "/>
<path style=" stroke:none;fill-rule:nonzero;fill:rgb(0%,0%,0%);fill-opacity:1;" d="M 97.039063 83.992188 C 98.957031 85.066406 100.929688 86.125 102.980469 87.144531 C 107.082031 89.183594 111.503906 91.171875 115.804688 93 L 122.074219 78.457031 C 117.667969 76.683594 114 74.8125 109.730469 72.507813 C 107.671875 71.390625 105.582031 70.242188 103.476563 69.058594 L 97.039063 83.992188 "/>
<path style=" stroke:none;fill-rule:nonzero;fill:rgb(0%,0%,0%);fill-opacity:1;" d="M 90.078125 100.140625 L 84.1875 113.804688 C 84.929688 114.328125 85.632813 114.820313 86.257813 115.246094 C 90.421875 118.097656 96.363281 121.222656 102.394531 124.109375 L 108.742188 109.386719 C 104.710938 107.539063 100.777344 105.71875 97.890625 104.300781 C 95.226563 102.988281 92.59375 101.578125 90.078125 100.140625 "/>
<path style=" stroke:none;fill-rule:nonzero;fill:rgb(0%,0%,0%);fill-opacity:1;" d="M 233.71875 575.335938 C 231.296875 575.488281 228.96875 575.835938 226.46875 576.335938 C 222.195313 577.1875 219.019531 580.0625 214.820313 580.710938 C 213.945313 580.710938 213.21875 581.4375 213.21875 582.3125 C 213.21875 583.1875 213.945313 583.910156 214.820313 583.910156 C 215.644531 583.886719 216.492188 583.960938 217.242188 583.585938 C 222.71875 580.910156 228.195313 578.511719 234.246094 578.535156 C 237.546875 578.535156 240.320313 580.613281 243.019531 582.386719 C 243.746094 582.886719 244.746094 582.710938 245.246094 581.988281 C 245.746094 581.238281 245.546875 580.261719 244.820313 579.761719 C 241.46875 577.535156 237.894531 575.085938 233.71875 575.335938 "/>
<path style=" stroke:none;fill-rule:nonzero;fill:rgb(0%,0%,0%);fill-opacity:1;" d="M 234.871094 569.460938 C 235.390625 568.800781 235.300781 567.875 234.699219 567.3125 C 235.195313 567.039063 235.546875 566.515625 235.546875 565.910156 C 235.546875 565.035156 234.820313 564.3125 233.945313 564.3125 C 231.644531 564.3125 226.144531 564.460938 226.144531 564.460938 C 225.421875 564.460938 224.796875 564.960938 224.617188 565.660156 L 224.46875 566.160156 C 224.269531 566.910156 226.269531 568.386719 226.269531 568.386719 C 226.835938 568.492188 226.996094 568.835938 226.503906 568.917969 C 226.101563 568.984375 223.886719 570.03125 223.945313 570.910156 C 224.058594 572.671875 232.988281 571.96875 234.871094 569.460938 "/>
<path style=" stroke:none;fill-rule:nonzero;fill:rgb(0%,0%,0%);fill-opacity:1;" d="M 232.621094 298.300781 C 227.902344 301.378906 220.746094 305.757813 215.246094 310.015625 C 206.980469 316.414063 207.785156 314.179688 211.78125 309.480469 C 215.773438 304.785156 220.3125 296.949219 221.113281 295.347656 C 221.914063 293.746094 221.378906 293.214844 219.511719 294.816406 C 217.644531 296.414063 214.714844 299.347656 204.578125 307.082031 C 194.445313 314.816406 194.980469 311.347656 200.847656 305.214844 C 206.714844 299.082031 202.121094 301.078125 198.386719 303.476563 C 195.519531 305.320313 188.324219 309.722656 183.269531 313.199219 C 176.835938 317.632813 177.863281 318.144531 184.085938 314.585938 C 189.867188 311.277344 196.046875 307.347656 196.046875 307.347656 C 196.046875 307.347656 194.445313 311.617188 192.3125 314.550781 C 190.179688 317.480469 190.179688 318.28125 193.378906 316.148438 C 196.578125 314.015625 201.378906 312.683594 208.3125 306.550781 C 215.246094 300.414063 210.023438 306.988281 205.363281 314.210938 C 200.703125 321.433594 201.113281 323.617188 208.046875 318.550781 C 213.351563 314.671875 225.839844 305.800781 233.441406 299.695313 C 240.355469 294.144531 239.925781 293.535156 232.621094 298.300781 "/>
<path style=" stroke:none;fill-rule:nonzero;fill:rgb(0%,0%,0%);fill-opacity:1;" d="M 183.867188 323.019531 C 182.738281 323.015625 181.75 323.070313 180.902344 323.179688 L 178.644531 325.652344 L 179.484375 325.609375 L 174.351563 331.253906 L 177.972656 332.183594 L 180.019531 329.015625 C 180.371094 328.996094 180.550781 328.988281 180.550781 328.988281 L 180.429688 332.089844 L 184.308594 330.957031 L 183.988281 328.175781 C 185.496094 327.59375 186.53125 326.769531 187.09375 325.695313 C 188.019531 323.925781 186.945313 323.03125 183.867188 323.019531 Z M 183.488281 326.171875 C 183.320313 326.492188 183.042969 326.757813 182.660156 326.957031 C 182.277344 327.160156 181.871094 327.257813 181.4375 327.257813 L 181.164063 327.257813 L 182.34375 325.457031 C 182.582031 325.429688 182.777344 325.414063 182.925781 325.414063 C 183.5625 325.414063 183.75 325.667969 183.488281 326.171875 "/>
<path style=" stroke:none;fill-rule:nonzero;fill:rgb(0%,0%,0%);fill-opacity:1;" d="M 192.113281 331.328125 L 194.953125 332.125 L 196.40625 330.558594 L 200.519531 330.210938 L 198.9375 332.140625 L 202.980469 331.367188 L 204.214844 323.40625 L 200.035156 323.390625 Z M 201.171875 327.8125 L 198.929688 327.847656 L 200.769531 325.609375 L 201.171875 327.8125 "/>
<path style=" stroke:none;fill-rule:nonzero;fill:rgb(0%,0%,0%);fill-opacity:1;" d="M 216.699219 324.589844 C 214.976563 325.5625 213.746094 326.757813 213.007813 328.164063 C 212.394531 329.339844 212.351563 330.296875 212.882813 331.039063 C 213.429688 331.796875 214.566406 332.175781 216.296875 332.183594 C 216.785156 332.183594 217.300781 332.148438 217.851563 332.078125 L 220.792969 329.09375 C 220.101563 329.183594 219.460938 329.226563 218.867188 329.226563 C 218.007813 329.222656 217.410156 329.136719 217.070313 328.964844 C 216.640625 328.746094 216.570313 328.359375 216.863281 327.800781 C 217.164063 327.226563 217.742188 326.757813 218.609375 326.390625 C 219.472656 326.023438 220.429688 325.839844 221.480469 325.84375 C 222.003906 325.847656 222.496094 325.894531 222.957031 325.988281 L 224.027344 323.425781 C 223.308594 323.234375 222.601563 323.136719 221.90625 323.136719 C 220.160156 323.128906 218.425781 323.613281 216.699219 324.589844 "/>
<path style=" stroke:none;fill-rule:nonzero;fill:rgb(0%,0%,0%);fill-opacity:1;" d="M 227.296875 332.410156 L 234.296875 331.742188 L 235.96875 329.609375 L 232.171875 329.910156 L 233.351563 328.757813 L 234.957031 328.585938 L 236.238281 327.011719 L 234.277344 327.304688 L 235.316406 325.683594 L 238.5625 325.269531 L 240.527344 322.972656 L 233.839844 323.808594 L 227.296875 332.410156 "/>
<path style=" stroke:none;fill-rule:nonzero;fill:rgb(0%,0%,0%);fill-opacity:1;" d="M 202.246094 549.082031 C 202.714844 548.394531 202.527344 547.457031 201.855469 546.988281 C 201.171875 546.519531 200.230469 546.707031 199.761719 547.378906 C 196.964844 551.097656 192.527344 553.675781 187.796875 552.910156 C 186.964844 552.910156 186.296875 553.582031 186.296875 554.410156 C 186.296875 555.238281 186.964844 555.910156 187.796875 555.910156 C 193.496094 556.738281 198.902344 553.550781 202.246094 549.082031 "/>
<path style=" stroke:none;fill-rule:nonzero;fill:rgb(0%,0%,0%);fill-opacity:1;" d="M 206.933594 556.535156 C 205.671875 556.910156 204.527344 557.628906 203.621094 558.613281 C 199.933594 562.550781 197.855469 567.300781 194.089844 571.191406 C 191.421875 573.972656 188.339844 575.832031 185.027344 577.816406 C 182.714844 579.207031 179.949219 579.300781 177.433594 578.472656 C 175.589844 577.863281 174.730469 576.019531 173.058594 575.003906 C 171.136719 573.816406 169.027344 573.410156 166.886719 573.910156 C 166.058594 573.910156 165.386719 574.582031 165.386719 575.410156 C 165.386719 576.238281 166.058594 576.910156 166.886719 576.910156 C 170.324219 575.816406 172.546875 578.691406 175.121094 580.597656 C 177.421875 582.285156 180.246094 582.238281 182.949219 581.644531 C 188.261719 580.472656 192.296875 576.957031 196.121094 573.316406 C 199.246094 570.316406 201.171875 566.832031 203.730469 563.207031 C 204.886719 561.566406 206.011719 559.878906 207.980469 559.347656 C 208.761719 559.050781 209.152344 558.191406 208.871094 557.410156 C 208.574219 556.628906 207.714844 556.238281 206.933594 556.535156 "/>
</g>
</svg>
