<?xml version="1.0" encoding="UTF-8"?>
<svg xmlns="http://www.w3.org/2000/svg" xmlns:xlink="http://www.w3.org/1999/xlink" width="513pt" height="307pt" viewBox="0 0 513 307" version="1.1">
<g id="surface1">
<path style=" stroke:none;fill-rule:nonzero;fill:rgb(13.729858%,12.159729%,12.548828%);fill-opacity:1;" d="M 502.890625 183.355469 L 453.042969 179.078125 L 409.355469 220.863281 L 390.839844 221.339844 L 387.039063 175.285156 L 384.664063 176.234375 L 376.121094 197.117188 L 375.164063 165.308594 L 377.070313 162.457031 L 369.476563 163.40625 L 365.675781 151.539063 L 360.453125 152.496094 C 360.453125 152.496094 360.925781 145.839844 361.875 142.519531 C 362.824219 139.191406 363.308594 137.769531 360.453125 139.195313 C 357.605469 140.625 356.648438 149.640625 356.648438 149.640625 L 355.230469 148.695313 L 352.378906 150.589844 L 350.960938 149.640625 L 346.203125 152.96875 C 346.203125 152.96875 346.6875 150.589844 345.253906 150.589844 C 343.835938 150.589844 340.984375 152.011719 340.984375 152.011719 L 343.355469 142.996094 L 338.609375 149.164063 L 340.511719 142.046875 C 340.511719 142.046875 336.710938 145.839844 334.8125 147.742188 C 332.910156 149.636719 333.382813 151.0625 332.910156 153.4375 C 332.433594 155.8125 331.484375 158.664063 331.484375 158.664063 L 330.535156 155.335938 L 328.636719 154.863281 C 328.636719 154.863281 329.589844 150.589844 327.6875 150.113281 C 325.789063 149.640625 323.890625 158.1875 323.890625 158.1875 C 323.890625 158.1875 324.363281 150.589844 322.941406 150.113281 C 321.511719 149.640625 319.613281 153.914063 319.613281 156.765625 C 319.613281 159.613281 321.039063 159.140625 321.039063 159.140625 C 321.039063 159.140625 315.34375 163.40625 314.394531 165.308594 C 313.445313 167.207031 311.550781 175.285156 312.96875 176.234375 C 314.394531 177.183594 313.925781 179.078125 313.925781 179.078125 L 306.320313 180.496094 L 264.0625 175.285156 L 253.136719 149.640625 L 253.621094 124.476563 L 248.871094 121.628906 L 248.394531 76.992188 L 257.894531 74.617188 L 248.871094 74.617188 L 249.34375 69.394531 L 255.039063 67.972656 L 248.871094 67.972656 L 247.917969 44.234375 L 251.714844 46.128906 L 252.664063 38.53125 L 247.917969 30.460938 L 247.445313 23.816406 L 244.121094 17.164063 L 238.898438 17.644531 L 228.449219 0.0742188 L 224.652344 0.0742188 L 223.226563 6.246094 L 220.375 7.667969 L 219.902344 12.894531 L 219.953125 13.011719 L 221.804688 17.644531 L 219.902344 18.589844 L 220.855469 24.765625 L 221.804688 28.5625 L 220.375 29.980469 L 231.773438 52.300781 L 231.300781 57.996094 L 227.976563 58.953125 L 229.878906 68.445313 L 229.402344 82.695313 L 227.976563 83.640625 L 229.402344 86.960938 L 228.929688 89.34375 L 230.828125 92.660156 L 231.773438 104.53125 L 226.078125 105.480469 C 226.078125 105.480469 224.179688 110.703125 223.699219 113.078125 C 223.226563 115.453125 222.28125 135.871094 222.28125 135.871094 L 217.535156 133.496094 L 198.535156 130.171875 L 179.074219 137.296875 L 167.199219 153.914063 L 165.769531 155.335938 L 164.824219 161.039063 L 155.800781 160.085938 L 156.277344 151.0625 C 156.277344 151.0625 147.734375 151.0625 142.507813 152.496094 C 137.285156 153.914063 125.414063 157.238281 125.414063 157.238281 L 3.386719 141.570313 L 2.910156 140.625 L 1.011719 300.15625 C 1.011719 300.15625 113.546875 307.761719 243.648438 307.28125 C 373.746094 306.804688 511.917969 305.855469 511.917969 305.855469 Z M 374.695313 209.46875 L 376.121094 199.492188 L 376.601563 208.035156 L 384.664063 205.675781 L 384.664063 181.929688 L 386.574219 207.09375 L 368.996094 213.296875 Z M 344.777344 158.1875 L 356.648438 154.863281 C 356.648438 154.863281 358.558594 157.714844 360.453125 159.140625 C 362.351563 160.5625 365.675781 160.5625 365.675781 160.5625 L 367.566406 163.890625 L 344.777344 170.535156 Z M 368.996094 214.695313 L 360.453125 218.019531 L 345.253906 220.863281 L 345.253906 217.070313 Z M 361.394531 169.582031 L 363.777344 200.925781 L 347.628906 204.246094 L 360.453125 199.492188 L 359.027344 174.328125 L 324.839844 180.027344 L 340.027344 185.246094 L 316.761719 180.496094 Z M 319.613281 172.433594 C 320.566406 170.535156 323.421875 164.359375 323.421875 164.359375 L 330.066406 161.511719 L 329.589844 175.285156 L 316.289063 176.234375 C 316.289063 176.234375 318.671875 174.328125 319.613281 172.433594 Z M 265.964844 192.847656 L 267.390625 180.980469 L 268.332031 193.800781 L 298.722656 196.648438 L 300.625 186.203125 L 300.152344 197.597656 L 339.5625 200.449219 L 341.933594 189.054688 L 342.878906 222.765625 L 340.511719 203.300781 L 239.371094 191.898438 Z M 339.085938 217.546875 L 338.609375 222.765625 L 337.1875 220.863281 L 303.472656 217.546875 L 302.050781 222.292969 L 302.515625 216.113281 Z M 298.242188 213.738281 L 297.773438 225.140625 L 295.878906 216.59375 L 273.082031 215.164063 L 270.714844 222.292969 L 270.714844 212.789063 Z M 265.492188 212.789063 L 265.492188 225.140625 L 264.0625 216.113281 L 241.273438 210.902344 Z M 227.976563 4.820313 L 247.445313 34.253906 L 227.5 7.667969 L 224.652344 7.199219 Z M 229.878906 13.839844 L 244.59375 40.902344 L 228.929688 16.214844 L 223.699219 14.3125 Z M 229.878906 29.035156 L 224.179688 28.085938 L 231.773438 26.660156 L 245.542969 54.203125 Z M 237.945313 108.332031 L 237.472656 94.089844 L 241.746094 94.5625 L 241.273438 111.652344 Z M 240.796875 115.925781 L 240.796875 119.253906 L 235.570313 127.320313 L 235.570313 115.453125 Z M 237.472656 86.015625 L 237.472656 81.265625 L 241.273438 85.066406 L 242.222656 90.761719 Z M 241.746094 81.265625 L 235.570313 75.101563 L 236.996094 61.324219 L 242.222656 67.023438 Z M 217.535156 136.820313 L 223.226563 139.667969 L 223.226563 153.4375 L 217.535156 152.496094 Z M 198.0625 151.0625 L 199.492188 132.546875 L 215.632813 135.398438 L 214.207031 152.496094 L 197.109375 151.0625 Z M 182.398438 137.769531 L 196.164063 133.023438 L 196.164063 145.839844 L 182.398438 150.589844 Z M 169.6875 154.230469 L 180.019531 140.625 L 179.074219 151.539063 L 169.570313 154.394531 Z M 154.382813 164.832031 L 152.953125 182.878906 L 152.003906 166.734375 L 113.074219 162.457031 L 113.074219 178.703125 L 148.207031 183.828125 L 66.535156 176.703125 L 110.699219 179.078125 L 110.699219 161.980469 L 66.535156 155.335938 L 66.066406 171.015625 L 64.164063 154.863281 L 4.335938 145.367188 Z M 150.582031 203.300781 L 149.160156 225.609375 L 148.207031 205.675781 L 116.390625 202.820313 L 112.117188 226.089844 L 114.023438 199.96875 Z M 66.535156 199.492188 L 63.6875 226.089844 L 65.109375 196.648438 L 106.425781 200.925781 L 104.046875 227.984375 L 104.046875 203.300781 Z M 58.941406 196.648438 L 57.515625 226.558594 L 56.570313 199.027344 L 6.707031 191.429688 Z M 31.878906 294.460938 L 32.824219 251.722656 L 9.085938 247.929688 L 35.199219 248.398438 Z M 57.515625 293.988281 L 56.09375 252.207031 L 43.273438 250.296875 L 57.992188 249.832031 Z M 74.613281 297.304688 L 74.613281 272.621094 L 67.964844 273.09375 L 64.164063 294.460938 L 65.109375 270.246094 L 76.035156 269.769531 Z M 156.753906 250.773438 L 154.382813 295.886719 L 153.425781 251.253906 L 108.796875 252.675781 L 105.953125 298.738281 L 106.425781 250.296875 L 167.675781 248.878906 Z M 227.976563 299.207031 L 227.027344 251.253906 L 178.597656 252.675781 L 178.121094 261.699219 L 223.226563 261.226563 L 178.597656 265.96875 L 173.84375 298.738281 L 176.695313 250.773438 L 229.402344 247.929688 Z M 42.792969 233.988281 L 37.574219 295.410156 L 42.320313 210.902344 C 42.320313 210.902344 46.59375 208.042969 46.117188 205.675781 C 45.644531 203.300781 43.273438 200.925781 43.273438 200.925781 C 43.273438 200.925781 38.996094 203.292969 39.472656 205.191406 C 39.949219 207.09375 41.84375 208.988281 41.84375 208.988281 L 39.472656 232.257813 L 7.660156 231.308594 L 38.046875 230.359375 L 39.472656 210.421875 C 39.472656 210.421875 35.671875 204.71875 37.574219 202.820313 C 39.472656 200.925781 40.898438 200.449219 40.898438 200.449219 C 40.898438 200.449219 41.371094 197.117188 43.273438 197.597656 C 45.171875 198.074219 43.75 200.449219 45.171875 200.925781 C 46.59375 201.394531 49.441406 204.246094 48.015625 206.621094 C 46.59375 208.988281 44.222656 210.902344 44.222656 210.902344 L 43.75 230.359375 L 162.9375 229.894531 L 163.402344 196.171875 L 157.230469 196.648438 L 157.703125 192.847656 L 163.878906 190.472656 L 163.878906 183.828125 L 158.648438 183.828125 L 163.878906 180.980469 L 164.824219 169.582031 L 158.175781 169.582031 L 164.347656 166.253906 L 165.769531 163.40625 L 166.246094 190.949219 L 160.074219 193.324219 L 166.246094 193.324219 L 166.726563 229.410156 L 177.171875 229.410156 L 178.121094 218.488281 L 171 226.089844 L 178.121094 214.21875 L 179.546875 180.496094 L 170.523438 191.898438 L 179.074219 177.183594 L 180.019531 167.207031 C 180.019531 167.207031 187.613281 165.308594 189.992188 164.832031 C 192.367188 164.359375 197.589844 164.359375 197.589844 164.359375 L 191.890625 160.085938 L 171.472656 157.238281 L 193.789063 157.804688 L 200.441406 163.40625 L 219.433594 164.832031 L 216.578125 161.039063 L 202.339844 159.613281 L 219.433594 159.683594 L 222.28125 164.359375 L 236.996094 167.207031 L 236.996094 171.484375 L 259.789063 175.761719 L 236.527344 173.851563 L 237.472656 218.019531 L 234.144531 168.160156 C 234.144531 168.160156 221.804688 165.785156 209.457031 166.253906 C 197.109375 166.734375 182.871094 169.105469 182.871094 169.105469 L 181.445313 202.820313 C 181.445313 202.820313 199.960938 201.394531 210.410156 201.394531 C 220.855469 201.394531 230.828125 204.246094 230.828125 204.246094 C 230.828125 204.246094 222.28125 202.34375 208.507813 203.300781 C 194.738281 204.246094 181.445313 206.152344 181.445313 206.152344 L 182.398438 227.984375 L 455.417969 224.191406 L 454.464844 183.828125 L 458.269531 228.765625 Z M 229.878906 192.847656 C 229.878906 192.847656 220.855469 190.003906 211.835938 189.53125 C 202.8125 189.054688 186.667969 190.003906 186.667969 190.003906 C 186.667969 190.003906 202.8125 186.203125 211.835938 186.679688 C 220.855469 187.15625 229.878906 192.847656 229.878906 192.847656 Z M 302.515625 247.457031 L 302.515625 298.738281 L 299.199219 247.929688 L 249.34375 249.355469 L 249.816406 259.792969 L 293.023438 260.273438 L 249.816406 263.121094 L 248.394531 299.6875 L 246.492188 249.832031 L 243.171875 246.980469 L 305.847656 245.546875 Z M 429.777344 240.335938 L 361.875 242.230469 L 359.027344 300.15625 L 359.5 238.902344 L 432.628906 237.003906 L 433.574219 296.835938 Z M 456.835938 299.6875 L 453.519531 233.691406 L 459.210938 296.835938 L 500.523438 298.253906 L 456.835938 299.6875 "/>
</g>
</svg>
