<?xml version="1.0" encoding="UTF-8"?>
<svg xmlns="http://www.w3.org/2000/svg" xmlns:xlink="http://www.w3.org/1999/xlink" width="414pt" height="674pt" viewBox="0 0 414 674" version="1.1">
<g id="surface1">
<path style=" stroke:none;fill-rule:nonzero;fill:rgb(0%,0%,0%);fill-opacity:1;" d="M 412.898438 333 C 410.234375 321.664063 397.101563 319.800781 397.101563 319.800781 C 397.101563 319.800781 398.386719 310.140625 394.71875 294.476563 C 391.050781 278.808594 387.898438 263.199219 387.898438 263.199219 C 387.898438 263.199219 403.335938 250.164063 379.386719 190.671875 C 364.019531 152.484375 329.132813 130.21875 323.027344 126.761719 C 316.921875 123.308594 318.164063 120.796875 318.742188 118.148438 C 319.320313 115.503906 322.335938 105.832031 314 101.167969 C 305.664063 96.5 305.953125 89.121094 305.953125 89.121094 C 305.953125 89.121094 313.335938 86.832031 318.664063 78.832031 C 324 70.832031 320.503906 56.757813 307.167969 46.09375 C 293.835938 35.425781 271.101563 38.101563 271.101563 38.101563 C 271.101563 38.101563 262.335938 17.5 225 4.167969 C 187.664063 -9.167969 169.230469 13.066406 160 25.5 C 150.769531 37.933594 145.601563 52.199219 145.601563 52.199219 C 145.601563 52.199219 132.335938 58.832031 121.261719 69.484375 C 117.097656 73.492188 105.675781 87.820313 101.675781 104.152344 C 97.675781 120.484375 102.800781 124.199219 102.800781 124.199219 C 102.800781 124.199219 86.222656 138.476563 81.890625 156.140625 C 77.554688 173.808594 88.699219 184.898438 88.699219 184.898438 C 88.699219 184.898438 78.785156 192.019531 55.332031 211.835938 C 31.882813 231.648438 16.261719 264.8125 7.59375 295.480469 C -1.074219 326.148438 13.222656 329.160156 6.886719 339.824219 C 0.554688 350.492188 3.5 367.300781 2.332031 378.835938 C 1.167969 390.367188 -5.367188 443.09375 15.296875 476.425781 C 35.964844 509.757813 92.667969 507.835938 129.335938 502.164063 C 166 496.5 173.898438 483.5 173.898438 483.5 C 173.898438 483.5 176.675781 492.144531 176.339844 496.144531 C 176.007813 500.144531 178 513.699219 178 513.699219 C 178 513.699219 163.464844 518.066406 158.800781 527.398438 C 154.132813 536.734375 156.253906 545.605469 158.894531 558.625 C 161.535156 571.648438 169.101563 575.902344 169.101563 575.902344 C 169.101563 575.902344 172 592.5 171.335938 605.832031 C 170.664063 619.167969 169.800781 646 169.800781 646 C 169.800781 646 173.960938 647.792969 173.960938 651.128906 C 173.960938 654.460938 174.601563 666.398438 174.601563 666.398438 L 205.101563 667.101563 C 205.101563 667.101563 204.980469 656.769531 210.644531 657.433594 C 216.3125 658.101563 233 670.167969 242 671.5 C 251 672.832031 296.699219 673.601563 296.699219 673.601563 C 296.699219 673.601563 300 672.832031 301.335938 669.167969 C 302.664063 665.5 300.101563 654.398438 300.101563 654.398438 L 357 652.398438 C 357 652.398438 360.664063 639.5 357 634.832031 C 353.335938 630.167969 333.398438 622.535156 323.398438 617.199219 C 313.398438 611.867188 301.15625 599.613281 300.824219 590.28125 C 300.488281 580.949219 302.699219 567.699219 302.699219 567.699219 C 302.699219 567.699219 310.101563 563.664063 311.101563 561 C 312.101563 558.335938 314.664063 558.164063 317 543.164063 C 319.335938 528.164063 318.664063 524.164063 318.664063 524.164063 C 318.664063 524.164063 326.007813 515.492188 329.339844 506.828125 C 332.671875 498.160156 342.335938 489.164063 346 471.835938 C 349.664063 454.5 346.988281 448.378906 346.988281 448.378906 C 346.988281 448.378906 361.015625 435.09375 368.929688 427.277344 C 376.839844 419.460938 386.335938 412.164063 390 399.835938 C 393.664063 387.5 393.199219 377.898438 393.199219 377.898438 C 393.199219 377.898438 402.664063 374.5 405.640625 369.015625 C 409.761719 361.410156 415.566406 344.335938 412.898438 333 Z M 382.398438 294.898438 L 384.101563 300.601563 C 366.699219 303.101563 352.898438 295.5 336.300781 295.101563 C 330.101563 296.101563 318.800781 298.898438 318.800781 298.898438 C 339 303.699219 358.5 311.101563 380.300781 311.199219 L 381.199219 315 C 342.21875 311.667969 304.347656 319.550781 283.558594 326.863281 C 274.523438 330.039063 265.886719 333.996094 256.199219 335.699219 C 255.898438 329.101563 249.199219 333.398438 245.601563 332.5 C 217.3125 336.816406 179.164063 345.480469 151.800781 362.800781 C 151.5 354.101563 156.101563 346.300781 155.398438 337.800781 C 175.5 338.601563 211.335938 326.835938 217.601563 322.199219 C 217.601563 322.199219 249.714844 328.78125 258.996094 321.945313 C 279.3125 306.984375 276.660156 265.695313 277.800781 253.601563 C 282.601563 251.601563 288.101563 251.300781 292.398438 248.300781 C 316.417969 274.902344 360.683594 280.101563 370 279.847656 C 374.902344 279.714844 379.820313 282.625 384.800781 283.101563 L 382.699219 289.101563 C 376.898438 288.199219 371.300781 287.101563 365.601563 286 L 365.398438 291.300781 C 370.800781 293.101563 376.800781 293.5 382.398438 294.898438 Z M 149.933594 307.976563 C 143.777344 307.546875 138.765625 304.425781 131.898438 295.601563 C 124.390625 278.886719 115.484375 245.132813 127.800781 235.101563 L 130.398438 235.800781 L 130.699219 268 L 137.398438 285.300781 C 141.699219 290.199219 143.898438 297.300781 150.398438 300.101563 C 158 295.699219 167.601563 293 171.199219 283.601563 C 161.199219 283.601563 151.199219 285.398438 141 285.699219 L 137.398438 244.699219 L 146.800781 248.800781 L 145.300781 265.800781 C 148.601563 267.699219 152.199219 269 155.601563 270.601563 L 170 251.398438 L 193.601563 239.199219 L 194.300781 239.398438 C 200.425781 245.949219 222.074219 305.195313 210.101563 303.699219 C 208.300781 303.101563 207.5 298.199219 207.5 298.199219 C 190.699219 317.699219 167.800781 322.898438 143.199219 322.699219 L 139.300781 316.699219 C 156.101563 317.199219 172.300781 316.199219 185.199219 307.300781 L 202.398438 296.101563 C 203.898438 292.5 204.5 288.398438 205.101563 284.800781 C 185.3125 298.058594 168.816406 309.289063 149.933594 307.976563 Z M 146.800781 228.101563 C 146.101563 226.199219 145.101563 224.398438 144.800781 222.398438 L 173.398438 217.101563 C 169.5 215.5 164.699219 215.101563 160.398438 214 L 139.601563 216.398438 C 139.800781 213.300781 141 210.601563 141.199219 207.5 C 161.617188 203.921875 173.402344 197.921875 184.699219 212.300781 C 184.898438 215.5 183.300781 218.601563 182.5 221.699219 C 167.972656 237.324219 164.472656 236.539063 148.398438 240.898438 L 148 234.101563 C 151.199219 232.101563 155 230.5 158.300781 228.101563 Z M 263.398438 212.5 C 268.265625 212.5 274.445313 211.265625 273.425781 204.152344 C 272.832031 199.992188 270.152344 195.546875 275.898438 192.898438 C 279.726563 192.226563 282.480469 194.191406 285.265625 196.105469 C 293.832031 201.988281 295.628906 207.4375 292.980469 220.5625 C 290.421875 233.253906 283.300781 238.5 283.300781 238.5 C 282 238.199219 280.800781 237.601563 279.5 237.5 C 281.5 228.398438 283.300781 218.601563 283.5 208.5 C 275.5 212.601563 276.398438 221.800781 273.199219 228.601563 L 271.101563 230.800781 C 267.601563 225 260.898438 220 255.699219 214.898438 L 247.101563 209.898438 C 248.300781 205.101563 248.800781 199.800781 254 196.898438 C 258 196.5 260.601563 199.101563 262.398438 202.199219 C 262.101563 205.601563 260.800781 209.699219 263.398438 212.5 Z M 254.085938 233.105469 C 285.570313 277.488281 259.046875 319.421875 241.5 309.699219 C 245.398438 305.601563 250.398438 302 252.101563 296.101563 C 252.488281 292.90625 253.039063 289.710938 253.515625 286.523438 C 254.023438 283.132813 252.449219 282.664063 250.804688 285.574219 C 247.753906 290.964844 243.4375 295.8125 238.699219 299.898438 L 233.898438 301.300781 L 231.699219 297.300781 C 230.101563 270.800781 219.5 248.101563 207.5 226 L 217.664063 220.5 L 216.398438 218.800781 L 202.199219 218.800781 C 202.199219 215.699219 202.898438 212.398438 204.398438 209.699219 C 230.867188 209.378906 245.828125 221.464844 254.085938 233.105469 Z M 313.300781 154.898438 L 324.101563 144.601563 C 364.847656 169.628906 373.324219 190.144531 376.285156 227.503906 C 376.769531 233.621094 376.941406 239.828125 377.601563 245.699219 L 380.699219 249.699219 C 381.429688 262.820313 364.316406 264.101563 346.699219 264.101563 C 325.644531 258.941406 301.5 238.898438 301.5 238.898438 L 305.601563 230.800781 C 316.898438 240 329.300781 248.800781 342.601563 254.300781 L 345.199219 251.199219 L 365.601563 254.5 C 368.300781 249 370.898438 243.5 373.5 238 C 370.753906 239.347656 368.316406 241.980469 365.476563 243.738281 C 359.355469 247.515625 350.449219 244.003906 340.898438 242.300781 C 341.101563 243.5 342.398438 244.800781 343.101563 246.101563 C 328.101563 243.199219 319.199219 227 310.199219 215.898438 C 310.199219 215.898438 316.457031 196.382813 296.324219 180.941406 C 275.1875 164.734375 263.398438 186.101563 263.398438 186.101563 C 258.300781 186.199219 252.699219 183.800781 248 186.398438 C 248.199219 184.601563 248.699219 182.5 248.5 180.898438 C 235 176.5 224.800781 162.101563 216.101563 151.101563 C 216.199219 147.398438 218.800781 139.800781 218.800781 139.800781 L 227.601563 156.898438 C 234.300781 162 248 171.5 248 171.5 L 248.699219 161.898438 C 236.800781 152.199219 225.5 140.699219 220.898438 126.898438 C 222.101563 124.199219 224 121.800781 226 119.398438 C 228.398438 122.898438 229.800781 126.800781 231.699219 130.5 L 242.5 141.300781 L 244 139.5 L 230.5 113.398438 C 235.398438 110.898438 240.601563 107.800781 245.898438 105.699219 C 245.898438 105.699219 248.644531 116.949219 247.847656 120.46875 C 247.425781 122.324219 247.03125 124.199219 247.101563 126.101563 C 247.53125 131.964844 249.089844 137.367188 250.953125 142.632813 C 256.90625 159.457031 279.125 173.996094 299.101563 169.800781 C 306.300781 167.398438 308.199219 160 313.300781 154.898438 Z M 306.136719 116.277344 C 304.773438 117.578125 303.386719 118.90625 302.070313 120.238281 C 300.207031 122.128906 303 127.699219 305.898438 128.5 L 307.335938 132.5 C 303.835938 133.699219 301.164063 132.632813 297.664063 133.835938 L 299 136.5 L 307.664063 137.5 C 307.664063 137.5 315.007813 161.667969 281.988281 156.917969 C 277.855469 156.320313 274.027344 155.058594 270.300781 153.300781 L 267 146.300781 L 283.300781 146.101563 C 283.699219 144.5 282.699219 143 282.300781 141.5 L 265.5 141.5 C 264.300781 139.199219 263.398438 136.800781 262.699219 134.300781 C 267.898438 133.300781 273.199219 132.601563 278.300781 131.199219 C 276.5 123.398438 268.300781 129.199219 263.398438 127.101563 C 262.199219 123.898438 260.601563 120.800781 259.5 117.5 L 274.699219 115.601563 C 274.5 113.699219 274.199219 111.300781 273 109.601563 L 260.699219 110.800781 L 259.800781 100.5 C 270.601563 98.101563 281.898438 96.898438 292.398438 93.699219 L 293.898438 98.101563 C 295.652344 102.558594 298.988281 106.324219 303.308594 108.226563 C 305.507813 109.195313 310.722656 111.894531 306.136719 116.277344 Z M 285.5 49.300781 L 287.898438 57 L 252.601563 72.398438 C 249.398438 75.398438 244.199219 80.5 244.199219 80.5 L 297.898438 60.898438 L 299.898438 64.898438 L 297.898438 66.101563 L 230.300781 89.699219 C 229.199219 91.601563 227.800781 93.398438 226.898438 95.398438 L 303.699219 73.300781 C 304.507813 77.207031 302.796875 78.472656 300.289063 78.941406 C 297.21875 79.519531 234.601563 99.898438 207.199219 111.300781 L 185.398438 129 L 168.601563 147.5 C 167.199219 146.398438 164.199219 147 164.300781 144.398438 L 177.199219 128.101563 C 177.101563 125.300781 177.601563 122.300781 176.800781 119.898438 L 157.601563 143.199219 C 156.699219 142.601563 156 142.101563 155.199219 141.5 L 167.398438 123.699219 C 167 123.199219 166.800781 122.601563 166.199219 122.101563 C 161.300781 126.199219 157.199219 131.5 152.300781 136 L 150.398438 133.800781 C 159.800781 119.699219 174.5 111.101563 186.800781 100.5 L 228.101563 74.101563 C 246.898438 65.101563 264.898438 54 285.5 49.300781 Z M 131.398438 75 C 138.101563 70.898438 145.699219 68.300781 151.300781 62.101563 C 151.300781 62.101563 162.777344 30.929688 177.308594 19.21875 C 181.941406 15.484375 191.140625 11.152344 209.296875 9.734375 C 227.1875 8.335938 236.378906 17 247.039063 29.011719 C 250.773438 33.226563 253.851563 37.898438 255.699219 42.898438 C 241.800781 47.5 229.699219 56.5 215.898438 61.300781 C 205.199219 73.898438 193.800781 81.398438 181.800781 91.300781 C 177.398438 94.898438 172.898438 98.398438 168.101563 101.199219 L 163.800781 101.398438 L 164.800781 97.601563 L 198.601563 64 C 194 64.601563 189.101563 66 184.398438 67.300781 C 156.269531 82.230469 148.363281 100.679688 134.800781 130.199219 C 133.300781 130.5 131 130.800781 130 130 C 128.800781 115.5 134.800781 102.699219 140.5 90.398438 C 140.898438 87.699219 141.699219 85.300781 141.699219 82.5 C 136.601563 84.601563 131 88.199219 128 93.699219 C 122.601563 104.5 121.101563 116.800781 118.199219 128.5 C 117.398438 128.800781 116.398438 128.199219 115.601563 127.800781 L 115.101563 127.101563 C 111.957031 106.214844 113.378906 89.6875 131.398438 75 Z M 100.65625 144.617188 C 110.027344 136.132813 137.714844 147.085938 127.101563 156.601563 L 124 151.300781 C 122.101563 150.601563 120.101563 150.101563 118.199219 149.699219 C 118.5 152.101563 119.5 154.800781 120.101563 157.300781 C 120 168.5 106.683594 160.847656 105.367188 157.996094 C 104.320313 155.730469 103.597656 153.140625 102.398438 151.101563 C 98.898438 153.601563 99.199219 158.300781 99.199219 162.101563 C 99.199219 162.101563 103.355469 177.449219 119.898438 170.5 L 126.800781 167.398438 C 128.554688 177.496094 114.636719 185.433594 101.808594 177.472656 C 88.71875 169.351563 90.03125 154.242188 100.65625 144.617188 Z M 17.398438 352.699219 C 19.5 351.300781 21.898438 350.101563 24.101563 352 C 22.898438 358.5 26.601563 367.601563 19.800781 372.101563 C 16.898438 371.199219 16.300781 368.101563 14.5 366.101563 C 14.699219 361.300781 15.800781 356.898438 17.398438 352.699219 Z M 157.800781 459 C 159.300781 447.398438 154.601563 438.398438 152.5 428.300781 L 126.535156 356.761719 C 126.535156 356.761719 122.941406 355.449219 122.683594 357.503906 C 121.488281 367.085938 125.242188 376.378906 127.300781 385.601563 C 135 402 140.199219 419.398438 145.101563 436.898438 L 147 465.699219 L 138.601563 484.398438 C 133.5 488.101563 127.699219 490 121.800781 491.601563 L 118.898438 490.199219 L 131.898438 478.199219 L 140.335938 464.164063 L 138.101563 463.101563 L 123.5 476 C 103.199219 490.800781 74.199219 493.101563 49.300781 488 C 47.300781 485.601563 45.300781 483.101563 43.300781 480.601563 C 52.101563 482.300781 61.300781 485.5 71.601563 484.898438 C 94.699219 480.601563 117.800781 476.398438 135 457.800781 L 135.5 439.101563 L 135 439.101563 C 131.5 445.800781 127.300781 452.199219 122.300781 458.300781 C 114.101563 463.5 105.699219 468.398438 97.300781 473.199219 C 87.601563 475.300781 78.199219 478.898438 67.300781 477.5 C 53.398438 475 40.699219 469.398438 27.5 465.199219 C 16.199219 454.699219 14.601563 440 13.101563 425.398438 L 15 413.699219 L 24.101563 446.300781 C 26.898438 455 35.898438 457.601563 42.601563 461.898438 C 81.296875 477.144531 110.269531 463.355469 121.101563 448.398438 L 119.398438 448.398438 C 102.300781 452.398438 87.101563 463.199219 67.601563 459 C 58.199219 456.800781 47.800781 457.101563 39.5 452.300781 L 33 444.800781 C 28.101563 423.898438 18.5 404.898438 17.199219 382.5 C 18.800781 381.601563 20.5 380.101563 22.699219 381 L 29.601563 388.5 C 32.800781 406.699219 34.300781 425.5 41.199219 442.199219 C 51.03125 453.851563 66.167969 452.738281 79.800781 452.5 C 66.734375 442.859375 35.773438 430.527344 43.101563 405.300781 C 48.800781 404.898438 54.398438 404.199219 59.898438 403.101563 C 71.300781 382 62.800781 355.800781 61.101563 333 C 60 326.398438 56.929688 332.828125 56.929688 332.828125 L 53.898438 388 L 48.398438 387.5 C 44.398438 377.699219 49.5 367.199219 49.601563 357.300781 L 49.601563 334 L 58 286.199219 L 69.199219 260.5 L 80.800781 246.601563 C 80.601563 241.101563 82 235.898438 81.5 230.5 C 64.800781 245.601563 62.199219 266.898438 53.199219 285.300781 C 49.199219 297.601563 45.5 310.101563 43.300781 323.199219 C 43.300781 337.800781 43.398438 350.601563 42.398438 364.699219 C 40.300781 369.199219 42 376 36.398438 378.101563 C 34.199219 377.800781 32.699219 375.898438 30.800781 374.800781 L 38.5 340.699219 L 39 304.898438 C 46.101563 285.601563 50.199219 264.898438 61.601563 247.300781 C 62.199219 239.101563 71.699219 235.699219 76.199219 229.300781 C 77.199219 226.898438 78.101563 224.5 79.101563 222.101563 C 63.800781 234.101563 50.5 250.300781 43.601563 267.699219 C 37.898438 292.300781 28.898438 315.800781 28.398438 342.101563 L 23.199219 341.898438 C 21.351563 322.292969 19.773438 281.539063 38.300781 254.5 C 55.898438 233 76.101563 215.300781 97.800781 198.398438 L 110 191.898438 C 118.800781 192.199219 129.199219 193.5 135.5 186.101563 C 138.699219 181.601563 141.699219 176.601563 146 172.699219 C 158.585938 175.828125 171.625 171.628906 184.328125 171.417969 C 219.886719 170.828125 238.199219 193.101563 238.199219 193.101563 C 235.601563 196.199219 234 199.800781 232 203.199219 C 215.585938 198.148438 196 200.300781 196 200.300781 C 191.902344 198.273438 187.558594 196.875 183.09375 195.785156 C 129.011719 182.601563 111.808594 214.296875 106.65625 242.558594 C 95.894531 301.640625 128.300781 331.101563 128.300781 331.101563 L 127.101563 336.101563 C 132.398438 367.300781 144.699219 395.601563 157.300781 423.699219 L 163.101563 452.5 C 161.800781 454.898438 159.398438 457 157.800781 459 Z M 213 530.5 L 174.398438 530.5 C 173.601563 529 173.898438 527 173.601563 525.199219 C 218.097656 520.703125 236.070313 515.589844 248.914063 542.207031 C 252.449219 549.527344 255.8125 560.363281 247.195313 563.960938 C 226.082031 572.777344 200.238281 571.898438 182.300781 563.398438 C 180.101563 556.199219 180.601563 547.898438 179.199219 540.398438 C 190.351563 537.375 202.621094 536.890625 213.171875 532.746094 C 214.824219 532.09375 213 530.5 213 530.5 Z M 191.898438 437.601563 L 192.601563 429.5 C 204.199219 418.898438 215.300781 407.398438 227.398438 397.601563 L 235.601563 398.800781 C 223.5 414.601563 206.601563 425.199219 191.898438 437.601563 Z M 257.101563 390.101563 L 271.101563 387 C 271.101563 387 211.699219 444.898438 191.398438 459.199219 L 186.601563 456.398438 C 210.101563 434.398438 233.199219 412.699219 257.101563 390.101563 Z M 187.601563 426.898438 L 180.800781 428.800781 L 181.601563 425.699219 L 195 406.199219 L 204.101563 400.699219 C 203.398438 408.199219 187.601563 426.898438 187.601563 426.898438 Z M 277.101563 658.898438 C 254.101563 659.101563 235 649.898438 214.199219 644.800781 L 183.699219 630.601563 L 185.199219 624.101563 C 197.929688 629.121094 210.355469 634.820313 223.132813 639.828125 C 225.113281 640.601563 226.320313 639.390625 224.78125 638.085938 C 221.085938 634.949219 216.945313 631.949219 213.199219 628.699219 L 182 615.5 L 182.5 610.402344 C 193.199219 608 204.101563 606 214.699219 603.5 C 205.601563 600.902344 194.5 601.5 184.199219 601.097656 L 182 595.097656 L 208.699219 598.699219 L 209.199219 598.199219 L 204.601563 589.300781 C 197.398438 588.199219 189.898438 587.699219 182.5 586.902344 L 182.300781 581.402344 L 212.300781 586.199219 C 216.398438 584.902344 221 585.699219 225 585.5 C 227.300781 598.402344 227.398438 612.699219 235.101563 623.601563 C 247.601563 637.398438 262.800781 644.5 277.101563 654.101563 Z M 313.5 623.601563 L 339 636.398438 C 339.398438 638 338.398438 639.601563 338 641.199219 L 325.101563 643.101563 L 282.800781 639.699219 C 273.898438 635.800781 264.601563 632.601563 255.898438 628 L 255.5 623.199219 C 267.601563 626.699219 279.101563 632.800781 292.398438 632.800781 C 288.800781 625.300781 280.300781 626.5 274.199219 623.398438 C 266.300781 620.101563 258.5 616.902344 250.898438 612.800781 L 249.699219 608.800781 C 260.101563 610.902344 269.898438 614.5 279.898438 617.398438 C 279 614.902344 277.699219 611.199219 274.898438 609.699219 L 241.300781 601.597656 L 239.898438 595.300781 C 251.101563 600.097656 263.398438 602.402344 275.398438 605.402344 C 274.855469 603.761719 275.101563 600.824219 273.976563 599.183594 C 273.453125 598.417969 251.398438 592.300781 241.300781 589.597656 L 241.5 584.5 C 252 587.402344 263.199219 588.800781 274.398438 589.800781 C 274.898438 588.097656 275 585.199219 274.699219 583.300781 C 265.898438 582 256.601563 582.097656 248 580.402344 L 254.5 576.597656 C 264 576.699219 274.5 577.597656 283.5 575.902344 C 284.699219 579.800781 284.101563 585.097656 285 589.097656 L 288.800781 604.699219 C 294.898438 614.597656 305.199219 617.601563 313.5 623.601563 Z M 270.601563 543.699219 C 270.601563 543.699219 289.199219 537.199219 297.199219 533.898438 C 297.199219 533.898438 303.285156 544.910156 295.800781 553.800781 C 287.941406 563.128906 270.601563 560.5 270.601563 560.5 C 274.5 555.398438 271.300781 549.300781 270.601563 543.699219 Z M 291 521.199219 L 264.800781 530.5 C 258.199219 524.101563 250.898438 519.199219 243 515.898438 C 242.699219 514.699219 242.5 513.5 242.300781 512.300781 L 266.5 514.898438 L 278.699219 502.699219 C 269.300781 504.398438 259.699219 506.898438 250.199219 509.199219 L 252.101563 502.898438 L 298.398438 493.601563 C 301.800781 490.898438 304.699219 487.199219 307.800781 484 L 254.300781 497.601563 L 254.699219 490.398438 L 313.300781 478.898438 L 319.300781 470 L 282.101563 479.898438 C 281.699219 478.601563 280.898438 477 280.898438 475.300781 C 293.800781 471 306.5 466.199219 319.5 462.398438 L 324.800781 466.398438 C 321.546875 478.269531 314.796875 488.550781 308.300781 499.019531 C 306.804688 501.429688 308.066406 502.09375 310.113281 499.957031 C 316.378906 493.425781 322.445313 486.683594 328.398438 479.601563 L 333 468.398438 L 338 471.699219 C 336.617188 490.128906 310.460938 510.035156 291 521.199219 Z M 375 403.800781 C 353.699219 421.300781 331.800781 437.199219 309 450.800781 C 295.300781 458.800781 279.898438 462.5 264.800781 467.199219 C 233.386719 478.332031 232.199219 513.5 232.199219 513.5 L 222.101563 511.101563 C 220.699219 504.398438 220.601563 497.101563 219 490.398438 L 202.699219 508.898438 C 200.5 507.601563 198.398438 506 196.398438 504.101563 C 204.300781 488.898438 213.199219 474.101563 222.101563 459.199219 C 236.398438 448.101563 250.5 436.398438 265.101563 425.898438 L 274.699219 425.699219 C 276.5 423.101563 276 418.5 280.199219 418 C 284.703125 415.398438 289.25 412.917969 293.761719 410.328125 C 296.355469 408.835938 295.914063 406.957031 293.164063 407.746094 C 278.976563 411.8125 265.503906 418.5 252.101563 424.699219 C 229.898438 442.101563 205 461.199219 189.5 484.898438 L 187.300781 475.300781 C 187.300781 475.300781 258.132813 404.832031 286.023438 386.535156 C 304.503906 374.40625 328.398438 373.246094 349.355469 377.390625 C 363.652344 380.21875 366.582031 386.089844 360.300781 403.101563 C 355.796875 408.140625 351.292969 413.136719 346.578125 418.058594 C 344.277344 420.457031 348.429688 418.210938 348.429688 418.210938 L 369.699219 400.699219 C 372.101563 396 375 391.398438 377.601563 386.800781 L 382.398438 388.199219 Z M 387.199219 364 C 376.300781 364.898438 367.199219 361.5 356.699219 361.300781 C 332.398438 358.601563 305.699219 360.199219 281.101563 361.800781 C 268.75 362.714844 257.5625 366.363281 246.871094 371.277344 C 243.539063 372.808594 235.800781 376.199219 235.800781 376.199219 L 197.601563 392.101563 L 198.800781 380.5 C 185.800781 388.601563 171.5 395.101563 157.800781 402.398438 C 157.601563 401.398438 157.300781 400.5 157.300781 399.5 L 197.601563 374.800781 C 197.800781 372 197.5 368.898438 196.898438 366.101563 C 182.5 373.199219 167.199219 378 154.398438 388.898438 C 153.601563 388.199219 153.199219 387.199219 152.800781 386.300781 C 157.988281 382.234375 165.421875 380.265625 169.40625 374.886719 C 170.03125 374.050781 169.601563 372.101563 169.601563 372.101563 L 153.5 378.898438 C 153.101563 378 152.300781 376.898438 152.300781 375.699219 C 152.300781 375.699219 172.367188 365.9375 180.078125 363.042969 C 198.898438 355.984375 218.265625 350.226563 239.898438 349.800781 C 259.300781 341.398438 280.699219 339.898438 301.300781 334.5 C 338.214844 327.539063 376.832031 322.894531 398.300781 333.5 C 405.769531 343.148438 402.738281 357.21875 387.199219 364 Z M 184.898438 30.398438 C 181 32.300781 176.898438 34 172.699219 35.398438 C 185.554688 8.722656 228.878906 14.855469 247.101563 35.699219 C 247.5 36 248.101563 36.101563 248.5 36.601563 L 236.800781 38.300781 L 226.699219 29.398438 C 213.699219 24.699219 197.898438 27.898438 184.898438 30.398438 Z M 163.300781 69.699219 C 158.800781 71.699219 154.699219 74.800781 149.898438 76 L 168.601563 51 C 190.167969 33.371094 213.476563 31.675781 228.800781 38.101563 L 231.699219 41.699219 L 218.300781 49.800781 C 210.601563 47 202.898438 43.398438 193.800781 44.5 C 186.398438 48.398438 180.898438 56.5 171.699219 56.101563 C 171.398438 61.699219 166.101563 65.199219 163.300781 69.699219 Z M 358.699219 226 C 362.203125 213.578125 352.460938 188.980469 352.460938 188.980469 C 352.460938 188.980469 352.703125 185.664063 354.164063 187.941406 C 360.117188 197.214844 363.589844 207.441406 366.800781 217.800781 C 368 224.199219 371.699219 230.699219 368.300781 237 C 361.800781 239.398438 339 234.5 334.699219 232.699219 C 342.699219 231.101563 352.601563 232.398438 358.699219 226 Z M 327.199219 221.398438 C 323.398438 216.800781 320.5 211.699219 317.898438 206.5 C 327.398438 212.800781 338 216.5 346.398438 225.300781 Z M 88.699219 267.699219 C 84.199219 268.398438 79.898438 269.398438 75.199219 269.699219 L 88 252.398438 C 93.800781 251.199219 91.898438 257.699219 92.300781 260.800781 Z M 196.898438 264.101563 C 198.699219 267.898438 200.199219 272.300781 201.199219 276.601563 C 191.800781 284.300781 182.699219 293.601563 171.5 297.300781 L 185.898438 278.101563 L 186.601563 271.601563 Z M 82 292 C 85.199219 288.601563 90.300781 288.601563 94.699219 287.398438 C 99 294.101563 106.398438 301.398438 101.398438 310.199219 Z M 70.699219 312.398438 L 74.5 301.800781 L 92.300781 316 C 92.300781 316 70.859375 322.507813 70.699219 312.398438 Z M 304.699219 307.101563 C 312.398438 308.101563 319.398438 310.800781 327 312.101563 C 317.101563 313.5 306.898438 315.300781 296.300781 315.300781 C 288 317.300781 279.898438 319.800781 271.5 321.5 L 274.898438 311.898438 C 282.898438 305.601563 294.398438 305.800781 304.699219 307.101563 Z M 102.800781 354.101563 L 74.800781 352 C 75.601563 349.898438 78.300781 347.699219 80.300781 346 C 85.601563 346.101563 91.601563 345.800781 96.101563 346.199219 Z M 91.300781 366.398438 C 91.300781 368.898438 89.898438 371.398438 89.398438 374.101563 L 82.199219 372.601563 L 76.398438 369 C 77.699219 359.898438 86.398438 367.199219 91.300781 366.398438 Z M 100.199219 376.199219 L 105.699219 364.5 C 107.699219 365.601563 109.5 366.898438 111.199219 368.5 C 110.800781 373.199219 106.898438 375.101563 103.300781 377.199219 Z M 309 396.898438 C 317.398438 391.898438 324.101563 382.601563 334.398438 382.199219 L 331.5 390.898438 L 321 398.101563 Z M 312.601563 385.300781 L 298.199219 400.199219 L 275.601563 407.199219 L 293.101563 391.601563 C 299.601563 389.398438 306 387.199219 312.601563 385.300781 Z M 119.199219 409.800781 C 112.398438 411 105.699219 412.199219 99 413.398438 C 101 407.5 107.898438 404.398438 114.101563 404.101563 C 115.699219 405.800781 118 407.699219 119.199219 409.800781 Z M 94.199219 428.300781 C 101.699219 425.699219 109.898438 423.800781 117.699219 421.601563 C 114.601563 427.800781 108.101563 433.101563 101.398438 434.300781 Z M 239.601563 455.398438 C 250.300781 448.300781 260.398438 439.601563 272 434.800781 C 268.300781 440.199219 263.199219 446.101563 258.800781 451.800781 L 239.601563 462.398438 L 231.488281 469.996094 L 230.039063 469.09375 Z M 196 613.597656 L 212.800781 611.597656 L 212.5 620.800781 C 207.199219 620.199219 202 618.199219 196.699219 616.902344 C 196.5 615.800781 196 614.800781 196 613.597656 "/>
</g>
</svg>
