<?xml version="1.0" encoding="UTF-8"?>
<svg xmlns="http://www.w3.org/2000/svg" xmlns:xlink="http://www.w3.org/1999/xlink" width="485pt" height="134pt" viewBox="0 0 485 134" version="1.1">
<g id="surface1">
<path style=" stroke:none;fill-rule:nonzero;fill:rgb(0%,0%,0%);fill-opacity:1;" d="M 483.09375 131.875 C 482.695313 131.367188 475.859375 121.5 475.859375 121.5 C 461.648438 111.117188 446.328125 103.558594 430.402344 97.308594 C 422.539063 93.78125 413.164063 93.980469 405.703125 89.546875 C 405.101563 82.289063 406.613281 75.9375 408.125 69.488281 C 409.335938 55.777344 405 43.785156 402.074219 31.484375 C 396.433594 31.484375 391.390625 28.5625 385.644531 30.277344 C 381.109375 30.78125 376.976563 29.46875 372.84375 29.871094 C 369.316406 47.109375 369.015625 66.464844 372.039063 84.003906 L 371.132813 89.546875 C 371.03125 91.261719 371.9375 92.773438 371.636719 94.183594 C 367.769531 89.835938 361.03125 90.488281 355.773438 91.4375 C 355.546875 91.480469 351.671875 92.578125 350.054688 92.71875 C 349.230469 92.789063 348.425781 92.578125 347.644531 91.765625 C 350.566406 90.757813 352.484375 87.632813 352.988281 84.707031 C 352.382813 70.394531 352.785156 54.972656 348.855469 41.667969 C 348.046875 38.542969 345.125 35.921875 345.226563 32.695313 C 346.335938 32.394531 346.738281 33.402344 347.644531 33.503906 C 351.171875 30.378906 348.753906 24.53125 351.476563 20.902344 C 346.03125 18.988281 339.582031 20.398438 333.835938 20.601563 C 327.789063 24.328125 320.328125 24.933594 313.574219 26.949219 C 313.980469 30.578125 311.257813 35.417969 314.988281 37.835938 C 313.675781 46.203125 314.582031 56.28125 313.273438 64.648438 L 312.769531 65.355469 C 309.945313 48.320313 311.257813 29.367188 311.355469 11.730469 L 309.140625 7.597656 C 305.8125 6.890625 303.496094 4.070313 301.480469 1.246094 C 299.914063 -0.121094 299.035156 0.863281 298.734375 2.863281 C 298.203125 6.351563 293.015625 2.992188 290.796875 4.472656 C 289.082031 15.054688 284.039063 25.035156 286.660156 36.828125 C 284.34375 40.355469 280.109375 38.140625 276.28125 38.742188 C 273.542969 39.242188 269.992188 38.988281 268.195313 41.015625 C 267.199219 42.144531 266.960938 42.917969 267.054688 43.742188 C 267.195313 44.976563 269.078125 45.414063 269.726563 46.304688 C 267.710938 51.746094 265.394531 57.695313 266.605469 63.742188 C 265.191406 63.742188 263.578125 64.449219 263.175781 65.859375 C 263.578125 69.6875 265.59375 73.519531 264.6875 77.25 C 260.152344 76.140625 256.121094 77.148438 251.886719 78.257813 C 248.761719 78.457031 245.132813 78.761719 242.210938 77.953125 L 241.402344 66.566406 C 243.316406 52.957031 245.636719 36.726563 239.488281 24.230469 L 235.355469 22.617188 C 238.582031 21.40625 241.101563 18.382813 242.410156 15.359375 C 243.621094 12.335938 241.605469 10.519531 239.488281 8.808594 C 235.421875 4.949219 230.132813 5.972656 225.082031 7.289063 C 222.878906 7.867188 217.75 9.050781 217.273438 9.101563 C 213.953125 9.441406 210.988281 7.621094 207.636719 8.503906 C 203.503906 12.4375 197.253906 11.023438 192.3125 12.9375 C 189.796875 13.945313 187.679688 15.761719 184.855469 16.0625 C 184.1875 18.070313 185.265625 26.980469 189.910156 26.519531 C 190.066406 26.503906 190.015625 26.683594 189.828125 26.808594 C 181.65625 32.46875 182.234375 51.644531 182.234375 51.644531 C 178.203125 51.242188 173.164063 51.34375 169.332031 50.636719 C 169.734375 52.855469 170.84375 55.074219 170.140625 57.390625 C 171.046875 57.492188 172.152344 57.191406 172.960938 57.695313 C 171.550781 62.933594 170.945313 68.480469 169.835938 73.824219 C 168.628906 69.589844 170.039063 63.742188 169.632813 59.609375 C 169.128906 61.523438 168.527344 63.640625 167.417969 65.152344 C 167.015625 64.953125 167.316406 64.546875 167.214844 64.144531 C 167.71875 61.726563 166.914063 58.703125 168.628906 56.886719 C 168.726563 53.660156 168.527344 50.234375 167.921875 47.511719 L 169.332031 49.429688 C 169.835938 46.605469 167.820313 43.683594 169.835938 41.464844 C 165.402344 40.660156 159.855469 38.742188 155.621094 41.164063 C 154.816406 43.886719 156.933594 46.203125 156.53125 48.722656 C 155.722656 48.824219 154.816406 48.519531 154.109375 48.925781 C 152.800781 50.839844 151.792969 53.660156 153.203125 55.476563 C 151.390625 55.675781 149.777344 56.082031 148.367188 56.886719 C 145.140625 64.144531 146.296875 82.871094 146.390625 83.265625 C 147.066406 86.046875 151.464844 85.992188 152.699219 88.640625 C 154.011719 88.234375 154.011719 86.320313 154.613281 85.210938 C 155.117188 86.121094 155.179688 88.925781 155.335938 89.222656 C 155.90625 90.304688 157.480469 90.554688 158.746094 90.554688 C 161.679688 93.113281 165.476563 94.0625 169.492188 94.28125 C 174.660156 94.5625 182.027344 93.722656 184.09375 93.136719 C 185.273438 92.800781 185.367188 94.695313 186.0625 95.394531 C 187.273438 96.300781 188.585938 94.6875 190.195313 95.191406 C 197.253906 93.679688 203.300781 97.710938 210.457031 97.308594 C 211.0625 97.308594 211.363281 96.703125 211.265625 96.097656 C 213.382813 97.308594 216.40625 95.898438 219.226563 96.402344 C 225.578125 99.828125 233.84375 96.804688 240.699219 97.105469 L 241.90625 93.980469 C 242.410156 94.484375 245.34375 94.183594 246.113281 94.09375 C 253.722656 93.1875 261.789063 92.855469 269.023438 94.6875 C 268.472656 96.179688 269.453125 96.753906 270.53125 96.980469 C 270.839844 97.046875 270.855469 97.21875 270.550781 97.257813 C 267.886719 97.597656 264.730469 97.042969 262.46875 95.59375 C 259.648438 95.996094 256.421875 95.59375 255.011719 98.820313 C 255.011719 99.828125 254.707031 101.945313 256.421875 102.449219 C 263.476563 103.558594 269.828125 102.246094 277.289063 102.652344 C 278.394531 101.640625 280.007813 100.734375 280.613281 99.523438 L 276.078125 97.105469 C 276.078125 97.105469 276.644531 96.546875 276.984375 95.660156 C 277.347656 94.707031 278.035156 94.214844 278.875 93.960938 C 280.605469 93.445313 284.503906 93.644531 285.835938 94.445313 C 286.9375 95.105469 287.730469 96.160156 288.175781 97.609375 C 291.5 98.316406 294.726563 97.308594 297.851563 96.601563 C 299.464844 92.972656 302.789063 96.199219 305.105469 96.601563 C 306.921875 97.8125 310.046875 96.097656 311.558594 98.011719 L 313.273438 94.6875 L 316.195313 96.402344 C 330.507813 100.027344 347.140625 98.214844 361.960938 100.734375 C 365.585938 100.433594 369.214844 103.457031 372.542969 100.9375 C 373.449219 101.84375 372.742188 102.851563 372.542969 103.859375 C 375.363281 104.363281 377.179688 107.289063 380.101563 107.488281 C 386.554688 107.085938 393.40625 106.28125 399.859375 107.289063 L 402.578125 109.203125 C 404.597656 106.480469 406.613281 103.859375 406.410156 100.230469 L 416.59375 99.726563 L 417.800781 100.9375 C 438.4375 105.933594 461.246094 115.855469 481.523438 131.90625 C 485.121094 134.753906 484.039063 133.097656 483.09375 131.875 Z M 155.929688 75.355469 C 156.101563 77.902344 155.964844 78.328125 155.214844 75.753906 C 154.429688 73.058594 154.3125 65.523438 157.738281 62.230469 C 155.238281 58.046875 158.933594 51.578125 157.683594 48.34375 C 157.390625 47.695313 157.160156 47.058594 157.539063 46.304688 C 157.964844 46.921875 159.03125 47.714844 159.183594 48.386719 C 160.078125 52.320313 156.324219 56.871094 159.253906 60.316406 C 159.855469 63.441406 157.234375 65.152344 156.328125 67.574219 C 155.648438 69.875 155.757813 72.753906 155.929688 75.355469 Z M 156.832031 81.585938 L 158.445313 79.871094 C 159.253906 80.777344 160.359375 81.652344 159.453125 83.09375 C 158.949219 82.1875 157.839844 81.683594 156.832031 81.585938 Z M 177 82 C 174.226563 83.515625 164.96875 83.183594 160.664063 85.714844 C 159.855469 85.414063 159.269531 84.675781 159.65625 83.5 C 163.082031 85.414063 166.207031 82.1875 169.835938 82.59375 C 171.886719 82.675781 174.300781 81.820313 176.585938 81.1875 C 178.65625 80.613281 179.039063 80.886719 177 82 Z M 184.664063 78.371094 C 184.65625 78.640625 184.414063 78.78125 184.3125 78.582031 C 182.8125 75.679688 183.320313 71.554688 183.71875 68.199219 C 183.761719 67.8125 184.183594 67.8125 184.308594 68.207031 C 185.296875 71.261719 184.753906 75.105469 184.664063 78.371094 Z M 203.367188 61.40625 C 202.21875 62.65625 199.808594 65.59375 199.085938 67.335938 C 196.597656 73.339844 196.125 80.074219 193.921875 86.140625 C 193.398438 87.582031 193.039063 87.777344 193.042969 86.355469 C 193.070313 80.484375 198.792969 66.519531 199.632813 63.773438 C 200.164063 62.039063 200.566406 60.257813 200.78125 58.398438 C 202.089844 56.484375 203.90625 57.996094 204.210938 59.609375 C 204.144531 60.355469 203.8125 60.921875 203.367188 61.40625 Z M 208.929688 72.523438 C 207.828125 76.609375 207.820313 72.496094 207.820313 72.496094 L 207.660156 60.988281 C 207.660156 60.988281 207.636719 58.003906 208.597656 60.894531 C 209.589844 63.882813 209.628906 69.933594 208.929688 72.523438 Z M 215.792969 26.121094 C 209.507813 32.464844 209.757813 41.605469 210.339844 50.066406 L 208.269531 55.285156 C 208.269531 55.285156 207.765625 55.917969 207.835938 55.433594 C 208.753906 48.921875 210.0625 42.171875 208.84375 35.417969 C 208.125 33.734375 208.675781 30.71875 207.367188 29.09375 C 207.027344 28.675781 204.980469 27.769531 204.980469 27.769531 C 204.980469 27.769531 204.828125 27.347656 205.144531 27.300781 C 208.5 26.808594 212.257813 26.746094 215.484375 25.78125 C 215.832031 25.679688 216.023438 25.890625 215.792969 26.121094 Z M 210.761719 22.617188 L 195.976563 23.207031 C 195.976563 23.207031 188.441406 23.273438 195.894531 22.367188 C 202.703125 21.535156 218.4375 20.484375 225.777344 18.179688 C 229.308594 17.980469 232.230469 19.59375 235.65625 19.691406 C 233.84375 21.710938 229.074219 19.246094 228.570313 19.214844 C 221.933594 18.785156 217.132813 22.617188 210.761719 22.617188 Z M 233.273438 93.074219 C 230.761719 91.746094 228.605469 88.695313 227.695313 85.714844 C 227.59375 81.683594 227.390625 77.550781 231.019531 75.335938 L 232.746094 67.46875 C 232.746094 67.46875 233.710938 62.597656 233.519531 67.539063 C 233.359375 71.6875 233.128906 76.097656 231.523438 79.667969 C 228.902344 80.472656 229.609375 83.398438 229.105469 85.515625 C 229.933594 88.082031 231.847656 90.304688 233.734375 92.359375 C 234.894531 93.625 234.8125 93.890625 233.273438 93.074219 Z M 235.675781 60.210938 C 233.335938 62.832031 234.113281 61.890625 234.777344 59.847656 C 237.507813 51.449219 234.136719 42.824219 234.039063 33.855469 C 234.011719 31.320313 234.328125 31.210938 234.929688 33.589844 C 235.398438 35.457031 235.824219 37.296875 236.566406 39.046875 C 232.851563 46.105469 240.515625 54.789063 235.675781 60.210938 Z M 268.015625 92.773438 C 267.007813 86.421875 266.402344 80.472656 266.402344 74.125 L 267.105469 75.03125 C 266.804688 80.976563 268.417969 87.027344 268.519531 92.773438 Z M 280.0625 77.902344 C 278.550781 78.054688 276.941406 78.296875 276.785156 80.171875 C 277.949219 83.171875 278.84375 86.929688 278.261719 90.367188 C 277.992188 91.957031 277.6875 92.230469 277.570313 90.796875 C 277.214844 86.542969 276.519531 82.382813 275.269531 78.457031 C 276.382813 77.554688 278.632813 76.941406 280.0625 77.074219 C 281.589844 77.214844 281.378906 77.769531 280.0625 77.902344 Z M 282.527344 77.25 L 283.535156 71.199219 C 284.511719 72.664063 285.554688 75.335938 285.753906 77.753906 C 284.644531 77.550781 283.738281 77.046875 282.527344 77.25 Z M 285.25 51.847656 L 284.039063 44.792969 C 285.148438 44.894531 286.257813 45.398438 286.660156 46.503906 Z M 299.164063 80.679688 C 298.695313 83.199219 298.609375 83.261719 298.589844 80.789063 C 298.515625 73.105469 297.003906 65.625 296.640625 57.894531 C 298.355469 49.328125 295.53125 41.464844 295.128906 33.199219 C 296.574219 27.082031 296.800781 20.179688 296.957031 13.632813 C 297.027344 10.648438 297.28125 10.539063 297.527344 13.445313 C 298.238281 21.910156 295.78125 30.734375 296.136719 38.542969 C 301.78125 49.328125 294.988281 61.585938 300.03125 72.976563 C 299.882813 75.28125 299.644531 78.101563 299.164063 80.679688 Z M 310.539063 80.183594 C 308.914063 83.136719 309.113281 86.785156 308.234375 90.050781 L 310.535156 93.464844 C 310.535156 93.464844 311.839844 95.054688 310.1875 93.898438 C 309.144531 93.167969 307.984375 91.820313 307.226563 90.757813 C 308.546875 87.402344 307.664063 82.835938 309.828125 79.910156 C 312.21875 76.671875 312.460938 76.695313 310.539063 80.183594 Z M 323.84375 82.625 C 322.238281 83.945313 317.8125 83.386719 316.871094 82.015625 C 316.519531 81.503906 316.984375 81.414063 317.304688 81.46875 C 319.417969 81.8125 321.300781 82.554688 323.652344 82.347656 C 323.820313 82.332031 323.96875 82.523438 323.84375 82.625 Z M 326 56.539063 C 325.960938 57.3125 325.902344 70.402344 325.234375 73.546875 C 324.761719 75.777344 324.445313 75.5 324.585938 73.542969 C 325.300781 63.324219 323.589844 51.84375 322.242188 41.464844 C 322.847656 40.859375 322.546875 39.148438 323.957031 39.550781 C 322.886719 45.355469 326.324219 50.527344 326 56.539063 Z M 332.121094 86.722656 L 326.882813 83.5 C 327.402344 80.28125 327.398438 76.769531 328.292969 73.664063 C 328.589844 72.628906 328.753906 72.820313 328.820313 73.859375 C 329.210938 80.203125 332.960938 81.410156 332.121094 86.722656 Z M 326.378906 36.628906 C 326.578125 36.023438 327.484375 36.121094 328.089844 35.921875 L 326.882813 37.535156 Z M 330.003906 61.523438 C 330.710938 61.765625 331.316406 63.640625 330.914063 65.152344 L 330.207031 65.859375 Z M 340.664063 84.785156 C 340.453125 85.308594 340.167969 85.777344 340.074219 84.816406 C 339.765625 81.558594 340.140625 76.792969 339.683594 73.117188 C 338.875 68.277344 338.371094 63.238281 336.960938 58.601563 C 337.046875 52.445313 337.058594 45.75 336.390625 39.523438 C 336.210938 37.851563 336.441406 37.796875 336.894531 39.394531 C 340.171875 50.921875 337.605469 64.15625 341.167969 75.6875 C 340.898438 78.746094 341.71875 82.117188 340.664063 84.785156 Z M 324.535156 34.984375 C 323.046875 35.167969 322.980469 35.097656 324.40625 34.660156 C 328.421875 33.421875 332.605469 32.175781 335.75 29.570313 L 335.550781 24.230469 C 336.316406 24.59375 337.488281 27.203125 337.894531 29.320313 L 343.375 31.019531 C 343.375 31.019531 346.222656 31.9375 342.980469 31.523438 C 336.011719 30.636719 330.796875 34.207031 324.535156 34.984375 Z M 343.4375 89.039063 C 343.4375 89.039063 343.382813 88.886719 343.558594 88.90625 C 347.078125 89.304688 347.828125 88.722656 349.9375 87.425781 C 350.195313 87.269531 350.15625 87.574219 350.15625 87.574219 L 347.140625 90.757813 Z M 379.597656 88.304688 C 378.402344 91.511719 377.722656 90.925781 378.265625 88.035156 C 380.730469 74.914063 374.605469 61.464844 376.558594 47.691406 C 376.609375 47.304688 376.832031 42.863281 376.996094 39.476563 C 377.1875 35.472656 377.753906 36.15625 378.480469 39.113281 C 380.46875 47.210938 375.785156 54.933594 378.253906 63.84375 C 380.535156 70.277344 381.542969 83.085938 379.597656 88.304688 Z M 144.433594 86.925781 C 141.410156 77.148438 142.21875 65.960938 142.316406 55.980469 C 138.890625 51.242188 132.4375 54.972656 127.804688 52.855469 C 126.289063 47.613281 127.199219 42.574219 127.300781 37.332031 C 127.398438 36.222656 126.289063 35.113281 125.382813 34.914063 C 126.390625 34.007813 127.199219 32.898438 127.804688 31.789063 C 128.546875 30.074219 128.277344 26.335938 126.796875 24.53125 L 95.144531 23.320313 C 90.910156 23.925781 87.988281 27.757813 83.753906 28.359375 C 82.242188 30.074219 82.542969 32.898438 82.542969 35.417969 C 83.046875 38.238281 85.972656 37.230469 87.585938 38.742188 C 86.980469 39.652344 85.769531 39.046875 84.964844 39.550781 C 83.046875 40.15625 83.550781 42.070313 82.746094 43.382813 C 81.03125 43.480469 79.417969 43.28125 77.90625 42.675781 C 77.300781 43.078125 77.101563 43.785156 76.699219 44.390625 C 75.085938 49.628906 73.976563 55.171875 73.773438 61.019531 C 67.929688 69.6875 76.597656 77.351563 74.78125 86.421875 L 68.9375 88.335938 C 52.605469 93.375 37.992188 102.652344 20.855469 105.574219 C 12.1875 104.96875 5.632813 111.21875 0.492188 117.667969 C 15.007813 110.914063 32.347656 110.914063 46.257813 102.652344 C 55.832031 99.929688 65.910156 98.417969 74.984375 94.6875 C 75.890625 95.695313 75.386719 97.410156 75.488281 98.820313 C 76.09375 101.84375 79.722656 100.9375 82.039063 101.441406 C 84.15625 101.441406 85.265625 98.417969 87.585938 99.726563 C 89.902344 99.425781 93.429688 101.640625 94.640625 98.820313 C 99.378906 101.238281 105.222656 101.84375 110.566406 103.355469 C 115.605469 103.859375 120.847656 99.222656 125.082031 103.65625 C 129.113281 99.523438 126.695313 91.964844 126.59375 86.925781 C 131.128906 86.019531 135.0625 87.730469 139.394531 88.136719 C 140.90625 88.136719 144.335938 89.546875 144.433594 86.925781 Z M 87.886719 72.914063 L 87.585938 77.953125 C 83.375 74.046875 89.398438 66.664063 92.722656 62.027344 C 93.933594 56.886719 87.535156 49.984375 91.917969 47.511719 C 91.414063 50.535156 93.53125 52.351563 95.144531 54.46875 C 94.335938 61.324219 93.328125 68.078125 87.886719 72.914063 Z M 102.484375 63.839844 C 102.164063 70.46875 98.054688 78.132813 96.984375 80.097656 L 95.546875 86.421875 C 94.054688 81.855469 99.21875 69.632813 101.574219 63.5625 C 102.390625 61.457031 102.585938 61.714844 102.484375 63.839844 Z M 100.890625 51.140625 C 96.65625 47.109375 106.9375 42.070313 100.6875 37.535156 L 107.238281 38.039063 C 105.527344 42.574219 101.898438 46.304688 100.890625 51.140625 Z M 117.519531 33.792969 L 121.617188 34.484375 L 121.679688 34.703125 L 117.144531 34.675781 Z M 113.289063 100.9375 C 112.683594 96.804688 114.03125 93.25 113.828125 89.019531 C 112.820313 75.207031 119.636719 63.539063 118.328125 49.628906 C 118.683594 48.144531 119.035156 46.558594 119.039063 44.941406 C 119.046875 42.484375 119.171875 42.492188 120.367188 44.261719 C 122.828125 47.90625 118.089844 54.230469 120.292969 59.433594 C 119.285156 72.636719 115.003906 86.523438 114.496094 99.222656 C 117.117188 99.828125 120.21875 97.6875 122.4375 99.5 C 123.746094 100.003906 124.628906 99.171875 125.839844 99.375 C 122.613281 102.601563 117.21875 99.222656 113.289063 100.9375 Z M 127.875 80.519531 C 126.460938 84.59375 126.535156 84.695313 127.144531 80.339844 C 127.90625 74.851563 129.785156 65.574219 129.417969 59.058594 C 129.261719 56.28125 129.339844 55.980469 130.003906 58.597656 C 131.515625 64.570313 130.089844 74.144531 127.875 80.519531 Z M 213.886719 104.566406 C 200.980469 106.179688 187.777344 109.605469 174.472656 107.289063 C 172.558594 107.691406 170.742188 108.898438 168.929688 108.496094 C 171.347656 106.882813 170.238281 105.070313 169.835938 102.851563 C 164.535156 101.488281 158.496094 101.71875 152.914063 102.683594 C 145.6875 103.9375 140.101563 109.402344 140.101563 109.402344 C 140.503906 111.015625 141.410156 112.628906 142.722656 113.535156 C 147.359375 116.359375 153.605469 115.25 159.253906 115.453125 L 161.367188 113.738281 L 163.285156 115.957031 C 168.628906 120.089844 176.890625 121.699219 183.140625 118.171875 C 190.195313 116.964844 196.851563 119.886719 203.703125 120.59375 C 210.15625 119.484375 217.515625 118.777344 220.636719 111.824219 C 222.855469 110.3125 220.4375 107.890625 221.847656 106.785156 C 219.628906 104.96875 217.011719 104.265625 213.886719 104.566406 Z M 162.378906 113.03125 C 161.367188 110.714844 164.089844 111.320313 164.996094 110.410156 L 169.128906 110.613281 C 166.8125 111.417969 163.988281 110.816406 162.378906 113.03125 "/>
</g>
</svg>
