<?xml version="1.0" encoding="UTF-8"?>
<svg xmlns="http://www.w3.org/2000/svg" xmlns:xlink="http://www.w3.org/1999/xlink" width="322pt" height="510pt" viewBox="0 0 322 510" version="1.1">
<g id="surface1">
<path style=" stroke:none;fill-rule:nonzero;fill:rgb(0%,0%,0%);fill-opacity:1;" d="M 260.269531 346.808594 L 307.035156 351.085938 L 249.121094 307.054688 L 291.65625 310.945313 L 236.625 268.652344 L 276.863281 272.332031 L 225.476563 228.898438 L 261.484375 232.191406 L 209.730469 190.273438 L 246.722656 193.65625 L 198.578125 150.519531 L 231.34375 153.515625 L 186.089844 112.117188 L 216.546875 114.902344 L 174.9375 72.363281 L 201.171875 74.765625 L 161.464844 26.382813 L 120.328125 74.765625 L 146.5625 72.363281 L 104.953125 114.902344 L 135.414063 112.117188 L 90.15625 153.515625 L 122.921875 150.519531 L 74.777344 193.65625 L 111.769531 190.273438 L 60.015625 232.191406 L 96.023438 228.898438 L 44.636719 272.332031 L 84.875 268.652344 L 29.84375 310.945313 L 72.378906 307.054688 L 14.464844 351.085938 L 61.230469 346.808594 L 0.433594 387.710938 L 34.90625 387.710938 L 161.160156 289.753906 L 289.535156 387.710938 L 321.066406 387.710938 Z M 159.164063 52.707031 L 161.519531 47.644531 L 164.105469 52.59375 L 169.648438 53.273438 L 165.738281 57.257813 L 166.808594 62.738281 L 161.808594 60.253906 L 156.925781 62.964844 L 157.746094 57.441406 L 153.660156 53.636719 Z M 158.746094 86.785156 L 161.5 80.871094 L 164.519531 86.652344 L 170.992188 87.445313 L 166.425781 92.105469 L 167.675781 98.503906 L 161.835938 95.601563 L 156.132813 98.769531 L 157.089844 92.316406 L 152.3125 87.871094 Z M 158.019531 124.175781 L 161.460938 116.785156 L 165.234375 124.011719 L 173.328125 125 L 167.621094 130.824219 L 169.179688 138.824219 L 161.878906 135.195313 L 154.75 139.152344 L 155.945313 131.089844 L 149.980469 125.53125 Z M 157.109375 164.101563 L 161.410156 154.863281 L 166.128906 163.894531 L 176.246094 165.132813 L 169.113281 172.410156 L 171.0625 182.414063 L 161.9375 177.878906 L 153.027344 182.824219 L 154.519531 172.742188 L 147.0625 165.796875 Z M 155.976563 209.238281 L 161.351563 197.691406 L 167.246094 208.980469 L 179.894531 210.527344 L 170.976563 219.625 L 173.414063 232.128906 L 162.007813 226.460938 L 150.871094 232.644531 L 152.734375 220.039063 L 143.414063 211.359375 Z M 176.355469 290.867188 L 162.097656 283.78125 L 148.171875 291.511719 L 150.507813 275.757813 L 138.855469 264.90625 L 154.554688 262.257813 L 161.277344 247.820313 L 168.648438 261.933594 L 184.453125 263.863281 L 173.308594 275.238281 Z M 161.539063 293.683594 L 22.753906 401.585938 L 161.539063 509.484375 L 301.230469 401.585938 Z M 31.652344 401.597656 L 161.527344 300.578125 L 292.335938 401.570313 L 161.550781 502.589844 Z M 161.519531 307.472656 L 40.550781 401.613281 L 161.558594 495.695313 L 283.4375 401.554688 Z M 43.515625 401.617188 L 161.511719 309.769531 L 280.472656 401.550781 L 161.5625 493.398438 Z M 169.257813 18.0625 L 171.210938 28.066406 L 162.082031 23.527344 L 153.171875 28.476563 L 154.664063 18.394531 L 147.207031 11.449219 L 157.257813 9.753906 L 161.558594 0.515625 L 166.273438 9.546875 L 176.390625 10.78125 L 169.257813 18.0625 "/>
</g>
</svg>
