<?xml version="1.0" encoding="UTF-8"?>
<svg xmlns="http://www.w3.org/2000/svg" xmlns:xlink="http://www.w3.org/1999/xlink" width="440pt" height="608pt" viewBox="0 0 440 608" version="1.1">
<g id="surface1">
<path style=" stroke:none;fill-rule:nonzero;fill:rgb(0%,0%,0%);fill-opacity:1;" d="M 349.664063 142.550781 C 346.460938 156.167969 307.007813 169.851563 268.3125 134.007813 C 267.074219 132.863281 265.839844 131.667969 264.605469 130.417969 C 264.265625 130.078125 274.015625 127.832031 276.019531 129.433594 C 311.734375 157.964844 346.433594 147.496094 349.273438 135.425781 Z M 347.605469 150.816406 C 343.785156 158.289063 306.320313 187.351563 279.261719 165.6875 L 286.847656 177.515625 C 313.90625 199.183594 348.96875 155.179688 352.789063 147.707031 Z M 333.882813 220.144531 C 317.890625 225.097656 302.097656 211.792969 292.675781 200.46875 L 287.160156 204.683594 C 299.308594 220.722656 320.121094 237.289063 344.171875 222.363281 Z M 275.4375 164.789063 L 272.589844 169.667969 C 272.628906 175.792969 274.617188 185.058594 282.527344 198.125 L 288.472656 193.984375 C 280.089844 181.238281 277.230469 171.574219 275.4375 164.789063 Z M 340.257813 226.40625 C 335.640625 233.414063 295.214844 258.183594 270.699219 233.679688 L 276.9375 246.269531 C 301.453125 270.777344 338.589844 233.210938 343.207031 226.203125 Z M 374.46875 298.699219 C 351.921875 304.582031 315.738281 284.902344 295.277344 269.6875 L 287.730469 275.660156 C 307.214844 293.699219 346.109375 318.558594 383.324219 303.867188 Z M 277.9375 249.445313 L 275.246094 258.414063 C 275.882813 260.515625 275.402344 260.769531 282.269531 268.125 L 288.773438 263.179688 C 280.035156 255.605469 279.570313 254.824219 277.9375 249.445313 Z M 376.128906 313.535156 C 371.511719 320.542969 331.085938 345.3125 306.566406 320.808594 L 312.808594 333.398438 C 337.320313 357.90625 374.457031 320.339844 379.074219 313.332031 Z M 308.476563 335.855469 L 305.785156 344.824219 C 306.40625 346.867188 307.039063 347.988281 313.566406 355.078125 L 318.796875 349.070313 C 311.855469 342.550781 309.894531 340.519531 308.476563 335.855469 Z M 405.007813 385.113281 C 380.550781 391.488281 343.898438 371.164063 323.449219 354.4375 L 317.230469 359.089844 C 336.007813 377.953125 374.039063 406 413.863281 390.277344 Z M 406.671875 399.945313 C 402.050781 406.953125 361.621094 431.722656 337.109375 407.21875 L 343.347656 419.808594 C 367.863281 444.316406 404.996094 406.746094 409.613281 399.742188 Z M 333.679688 413.714844 L 330.988281 422.683594 C 331.667969 424.929688 341.4375 436.324219 349.175781 444.34375 L 356.1875 439.445313 C 346.957031 431.601563 335.367188 419.28125 333.679688 413.714844 Z M 430.210938 462.96875 C 407.957031 468.773438 384.101563 459.445313 363.683594 444.484375 L 355.652344 449.761719 C 375.28125 467.457031 402.671875 482.503906 439.0625 468.136719 Z M 431.871094 477.804688 C 427.253906 484.8125 386.824219 509.582031 362.308594 485.074219 L 368.546875 497.667969 C 393.0625 522.171875 430.199219 484.609375 434.816406 477.601563 Z M 94.667969 157.289063 L 91.765625 156.765625 C 95.585938 164.238281 128.367188 205.65625 155.425781 183.988281 L 163.011719 172.160156 C 135.953125 193.824219 98.488281 164.761719 94.667969 157.289063 Z M 165.972656 170.667969 C 164.316406 177.101563 163.316406 185.316406 155.800781 197.605469 L 163.347656 197.085938 C 168.84375 186.007813 168.851563 180.644531 168.851563 175.527344 Z M 152.9375 204.890625 C 143.621094 216.070313 123.734375 231.195313 107.890625 226.402344 L 97.617188 228.6875 C 124.421875 245.085938 150.234375 222.949219 162.046875 204.109375 Z M 101.554688 232.707031 L 95.949219 232.066406 C 100.609375 239.042969 140.648438 276.820313 165.003906 252.15625 L 171.160156 239.523438 C 146.804688 264.1875 106.21875 239.683594 101.554688 232.707031 Z M 164.023438 255.339844 C 161.570313 263.605469 155.207031 272.753906 138.363281 283.738281 L 145.390625 290.242188 C 162.230469 277.441406 165.734375 267.789063 166.773438 264.285156 Z M 135.308594 285.390625 C 116.464844 296.867188 86.253906 309.902344 67.816406 305.222656 L 58.996094 310.449219 C 88.347656 321.8125 123.613281 306.179688 143.050781 292.585938 Z M 66.253906 320.066406 L 55.875 315.746094 C 60.539063 322.722656 105.351563 364.183594 129.703125 339.515625 L 135.859375 326.886719 C 111.503906 351.550781 70.917969 327.046875 66.253906 320.066406 Z M 107.398438 371.953125 C 87.390625 385.882813 58.828125 397.15625 37.84375 391.832031 L 29.023438 397.054688 C 62.679688 410.089844 94.910156 393.550781 114.683594 377.160156 Z M 134.050781 341.945313 C 132.152344 348.347656 124.796875 357.464844 113.382813 366.488281 L 120.679688 372.347656 C 131.097656 362.429688 136.007813 353.5625 136.800781 350.894531 Z M 36.28125 406.675781 L 29.589844 405.894531 C 34.253906 412.871094 75.375 450.789063 99.730469 426.125 L 105.886719 413.492188 C 81.53125 438.15625 40.941406 413.652344 36.28125 406.675781 Z M 109.355469 419.96875 C 107.164063 427.359375 99.167969 437.351563 84.914063 447.539063 L 95.6875 450.019531 C 107.890625 439.101563 111.242188 431.832031 112.109375 428.917969 Z M 78.445313 454.058594 C 60.027344 464.851563 30.898438 474.359375 13.152344 469.851563 L 0.1875 473.699219 C 32.15625 486.082031 71.261719 471.894531 91.003906 456.527344 Z M 11.585938 484.695313 L 0.96875 480.988281 C 5.632813 487.964844 50.683594 528.8125 75.039063 504.144531 L 81.195313 491.515625 C 56.839844 516.179688 16.25 491.671875 11.585938 484.695313 Z M 263.582031 117.855469 C 249.046875 102.277344 231.617188 77.226563 219.871094 44.46875 C 218.769531 41.390625 218.410156 41.984375 217.601563 44.21875 C 204.210938 81.21875 184.820313 111.019531 168.289063 126.304688 L 174.796875 132.027344 C 198.410156 108.089844 218.746094 51.71875 218.746094 51.71875 C 229.609375 82.777344 244.695313 107.550781 258.066406 123.273438 C 258.3125 123.5625 260.121094 125.058594 260.367188 125.34375 L 268.214844 123.441406 C 268.089844 123.304688 263.710938 117.996094 263.582031 117.855469 Z M 162.046875 132.289063 C 126.160156 161.296875 92.683594 149.402344 89.832031 137.277344 L 89.441406 144.402344 C 92.640625 158 129.136719 173.378906 167.769531 137.753906 Z M 117.546875 493.738281 C 96.53125 512.425781 69.777344 529.523438 40.851563 525.808594 L 44.523438 531.527344 C 74.316406 542.769531 113.277344 511.21875 125.121094 492.964844 Z M 153.101563 511.222656 C 144.328125 543.355469 83.433594 545.074219 66.914063 538.40625 L 67.695313 544.929688 C 90.605469 559.816406 145.929688 558.734375 156.621094 519.570313 Z M 316.171875 480.167969 L 313.210938 483.679688 C 325.175781 501.855469 364.34375 533.15625 394.0625 521.71875 L 397.699219 515.976563 C 368.796875 519.878906 337.3125 498.71875 316.171875 480.167969 Z M 288.964844 502.96875 L 285.5 511.339844 C 296.445313 550.429688 351.773438 551.148438 374.589844 536.113281 L 375.328125 529.589844 C 358.851563 536.363281 297.945313 535.042969 288.964844 502.96875 Z M 218.191406 514.011719 L 212.269531 507.15625 C 213.832031 540.425781 156.4375 560.839844 138.664063 559.589844 L 141.417969 565.550781 C 167.800781 572.648438 220.097656 554.558594 218.191406 514.011719 Z M 249.101563 508.992188 L 244.023438 516.492188 C 246.882813 556.988281 300.9375 568.820313 326.308594 558.683594 L 328.34375 552.4375 C 310.839844 555.761719 251.449219 542.21875 249.101563 508.992188 Z M 226.386719 182.894531 C 219.660156 191.050781 215.605469 203.265625 218.371094 213.359375 C 218.847656 213.335938 219.320313 213.289063 219.792969 213.246094 C 219.335938 203.902344 223.078125 195.0625 228.652344 188.304688 C 236.46875 178.835938 248.109375 176.46875 253.015625 181.65625 C 252.011719 170.296875 236.183594 171.023438 226.386719 182.894531 Z M 311.769531 186.019531 C 290.15625 184.457031 262.113281 223.488281 236.640625 226.613281 C 228.871094 227.566406 225.539063 224.449219 222.582031 220.273438 C 238.855469 219.421875 250.046875 207.351563 254.207031 194.550781 C 256.191406 188.4375 255.820313 184.761719 253.449219 182.253906 C 253.632813 184.335938 252.886719 186.234375 251.941406 189.140625 C 245.339844 209.449219 223.84375 214.578125 214.152344 214.339844 C 207.84375 214.183594 201.261719 212.742188 194.328125 207.878906 C 167.628906 189.140625 121.085938 201.4375 114.671875 212.363281 L 116.9375 217.773438 C 123.351563 206.84375 169.894531 194.550781 196.59375 213.285156 C 204.976563 219.167969 213.171875 221.351563 220.660156 221.007813 C 222.664063 228.308594 228.214844 233.332031 238.90625 232.019531 C 264.382813 228.898438 292.421875 189.867188 314.03125 191.425781 C 318.296875 191.734375 321.050781 193.023438 322.753906 194.878906 C 322.292969 190.308594 319.46875 186.574219 311.769531 186.019531 Z M 323.5625 195.554688 C 324.394531 203.808594 316.617188 209.242188 316.617188 209.242188 L 317.128906 214.808594 C 317.128906 214.808594 330.5 203.105469 323.5625 195.554688 Z M 224.207031 106.605469 C 217.75 94.734375 202.121094 94.007813 197.925781 105.367188 C 204.289063 100.179688 215.269531 102.546875 220.421875 112.015625 C 224.09375 118.773438 225.355469 127.613281 222.269531 136.960938 C 222.726563 137.003906 223.1875 137.046875 223.65625 137.070313 C 229.265625 126.976563 228.640625 114.761719 224.207031 106.605469 Z M 249.242188 131.589844 C 240.9375 136.453125 233.953125 137.894531 227.597656 138.050781 C 217.839844 138.289063 197.789063 133.160156 196.894531 112.851563 C 196.769531 109.945313 196.351563 108.601563 197.121094 106.515625 C 194.039063 109.023438 192.839844 112.152344 193.109375 118.261719 C 193.671875 131.0625 201.46875 143.132813 217.503906 143.984375 C 213.371094 148.160156 209.164063 151.277344 201.664063 150.324219 C 177.0625 147.203125 160 108.167969 137.949219 109.730469 C 130.089844 110.285156 126.21875 114.019531 124.472656 118.589844 C 126.695313 116.734375 129.8125 115.445313 134.160156 115.136719 C 156.214844 113.578125 173.277344 152.609375 197.878906 155.734375 C 208.199219 157.042969 215.164063 152.019531 219.21875 144.71875 C 226.609375 145.0625 235.421875 142.878906 245.457031 136.996094 C 277.421875 118.261719 320.507813 130.558594 323.851563 141.484375 L 327.636719 136.078125 C 324.296875 125.148438 281.210938 112.851563 249.242188 131.589844 Z M 123.472656 119.265625 C 114.410156 126.820313 124.492188 138.519531 124.492188 138.519531 L 126.570313 132.953125 C 126.570313 132.953125 120.320313 127.519531 123.472656 119.265625 Z M 162.59375 461.058594 C 154.242188 469.023438 150.527344 476.753906 151.519531 485.160156 C 152.144531 485.15625 152.773438 485.121094 153.402344 485.101563 C 154.195313 478.0625 157.871094 472.757813 164.46875 466.46875 C 176.582031 454.921875 192.585938 453.972656 197.988281 460.753906 C 197.785156 448.632813 177.3125 447.03125 162.59375 461.058594 Z M 198.242188 462.203125 C 198.289063 464.921875 197.070313 466.710938 194.78125 470.425781 C 185.308594 485.820313 146.460938 489.285156 131.734375 484.804688 C 121.429688 481.667969 113.121094 475.558594 109.988281 465.742188 C 100.394531 435.679688 38.867188 448.285156 26.773438 466.625 L 36.785156 466.105469 C 43.988281 455.175781 100 441.382813 109.964844 472.609375 C 112.632813 480.972656 119.609375 486.21875 128.332031 489.261719 C 153.179688 497.929688 189.609375 487.285156 196.65625 475.835938 C 200.75 469.183594 200.875 465.507813 198.242188 462.203125 Z M 400.882813 429.832031 C 367.945313 420.960938 338.1875 457.9375 297.710938 484.480469 C 273.976563 500.042969 258.546875 493.59375 249.523438 481.507813 C 263.019531 471.800781 271.964844 460.882813 269.5625 450.855469 C 269.355469 449.992188 269.128906 449.175781 268.886719 448.402344 C 268.847656 448.28125 268.8125 448.164063 268.773438 448.050781 C 269.578125 450.527344 264.746094 463.269531 249.523438 474.71875 C 248.550781 475.453125 243.109375 479.222656 241.648438 480.152344 C 219.605469 494.175781 189.453125 504.777344 174.363281 504.777344 C 163.734375 504.777344 156.851563 500.515625 153.5625 494.308594 C 153.480469 502.796875 162.738281 510.183594 176.234375 510.183594 C 192.476563 510.183594 226.152344 497.910156 248.398438 482.304688 C 256.800781 497.121094 272.976563 507.335938 299.585938 489.886719 C 340.0625 463.34375 369.820313 426.367188 402.757813 435.242188 C 411.855469 437.691406 416.796875 441.175781 419.195313 444.929688 C 418.679688 439.273438 414.269531 433.4375 400.882813 429.832031 Z M 419.453125 446.328125 C 420.207031 454.585938 412.207031 451.792969 412.207031 451.792969 L 407.84375 458.300781 C 407.84375 458.300781 411.222656 459.386719 414.546875 458.558594 C 420.796875 457.007813 427.90625 452.308594 419.453125 446.328125 Z M 268.308594 445.832031 C 260.027344 426.148438 235.867188 435.265625 237.316406 454.136719 C 237.707031 459.226563 239.816406 469.226563 245.0625 474.691406 C 243.828125 470.515625 241.488281 462.21875 241.214844 458.660156 C 239.902344 441.550781 258.542969 433.945313 267.683594 446.589844 C 268.433594 447.628906 268.859375 447.140625 268.308594 445.832031 Z M 179.136719 368.035156 C 183.140625 363.613281 185.914063 360.75 186.203125 346.589844 C 186.5625 328.785156 170.503906 316.203125 161.640625 329.972656 C 160.632813 331.539063 159.238281 335.289063 158.601563 337.71875 C 158.390625 338.527344 158.996094 339.226563 159.355469 338.628906 C 160.578125 336.597656 161.925781 335.175781 163.335938 334.273438 C 172.074219 328.699219 183.046875 340.890625 181.589844 356.214844 C 181.25 359.769531 180.445313 363.859375 179.136719 368.035156 Z M 33.9375 360.632813 C 27.472656 370.464844 38.828125 384.949219 38.828125 384.949219 L 40.429688 376.765625 C 40.429688 376.765625 33.035156 368.890625 33.9375 360.632813 Z M 262.804688 354.398438 C 248.347656 340.367188 227.839844 341.972656 227.417969 354.089844 C 232.945313 347.3125 248.929688 348.257813 260.832031 359.804688 C 267.316406 366.097656 270.976563 371.605469 271.640625 378.644531 C 272.269531 378.664063 272.894531 378.699219 273.523438 378.703125 C 274.667969 370.292969 271.011719 362.359375 262.804688 354.398438 Z M 272.0625 386.511719 C 268.347656 391.675781 259.746094 398.113281 250.238281 398.113281 C 234.828125 398.113281 203.910156 387.058594 182.027344 372.59375 C 181.058594 371.953125 177.214844 369.25 176.546875 368.753906 C 158.789063 355.515625 157.296875 343.246094 158.425781 339.148438 C 157.597656 340.878906 156.628906 341.859375 156.027344 344.191406 C 153.4375 354.21875 162.1875 365.140625 175.5 374.84375 C 166.257813 386.933594 150.714844 393.382813 127.261719 377.816406 C 87.273438 351.273438 85.625 336.664063 52.527344 345.535156 C 39.074219 349.144531 35.125 354.054688 34.503906 359.710938 C 36.972656 355.953125 41.410156 353.394531 50.554688 350.945313 C 83.652344 342.074219 85.296875 356.683594 125.289063 383.226563 C 151.578125 400.675781 167.9375 390.460938 176.613281 375.644531 C 198.574219 391.25 232.027344 403.523438 248.265625 403.523438 C 260.792969 403.523438 270.253906 394.578125 272.757813 386.527344 C 272.953125 385.902344 272.496094 385.902344 272.0625 386.511719 Z M 389.195313 371.769531 C 382.1875 360.839844 324.65625 326.660156 314.117188 357.886719 C 310.929688 367.335938 304.21875 373.425781 295.34375 376.71875 C 271.867188 385.425781 236.949219 374.652344 230.445313 363.765625 C 228.226563 360.046875 226.703125 357.480469 226.800781 354.765625 C 224.105469 358.066406 224.503906 362.523438 228.472656 369.175781 C 235.902344 381.609375 301.203125 400.492188 313.351563 364.488281 C 323.890625 333.261719 384.46875 369.175781 391.476563 380.105469 Z M 177.203125 251.378906 C 172.304688 256.234375 173.984375 262.015625 180.519531 268.90625 C 177.414063 263.929688 177.867188 260.363281 181.476563 256.789063 C 190.699219 247.652344 205.644531 253.039063 214.601563 262.214844 C 207.089844 250.117188 188.132813 240.554688 177.203125 251.378906 Z M 332.4375 259.390625 C 325.683594 254.1875 316.855469 252.328125 310.25 252.941406 C 293.40625 254.503906 261.109375 293.535156 236.460938 295.097656 C 230.464844 295.476563 223.046875 293.90625 215.449219 291.128906 C 219.222656 287.457031 221.628906 283.257813 222.03125 278.648438 C 222.511719 273.183594 219.722656 267.597656 214.902344 262.660156 C 217.140625 266.269531 218.074219 269.652344 217.761719 273.238281 C 217.261719 278.921875 213.730469 283.980469 208.332031 288.195313 C 197.863281 283.40625 187.808594 276.726563 181.453125 270.027344 C 185.746094 276.894531 195.070313 284.308594 205.660156 290.113281 C 196.191406 296.390625 182.453125 300.4375 169.089844 301.34375 C 145.996094 302.902344 129.847656 268.054688 109.21875 266.492188 C 88.589844 264.929688 82.230469 289.371094 82.230469 289.371094 L 86.503906 294.78125 C 86.503906 294.78125 92.863281 270.339844 113.492188 271.898438 C 134.121094 273.460938 150.269531 308.3125 173.359375 306.75 C 188.042969 305.757813 203.175781 300.972656 212.605469 293.605469 C 222.550781 298.15625 232.867188 301.003906 240.730469 300.507813 C 265.378906 298.945313 297.679688 259.910156 314.519531 258.351563 C 325.132813 257.367188 339.023438 267.789063 346.554688 276.824219 C 344.351563 271.359375 338.945313 264.40625 332.4375 259.390625 Z M 198.605469 164.746094 C 190.070313 164.746094 183.148438 171.664063 183.148438 180.203125 C 183.148438 188.738281 190.070313 195.660156 198.605469 195.660156 C 207.144531 195.660156 214.0625 188.738281 214.0625 180.203125 C 214.0625 171.664063 207.144531 164.746094 198.605469 164.746094 Z M 278.625 86.386719 C 270.699219 86.386719 264.273438 93.304688 264.273438 101.84375 C 264.273438 110.378906 270.699219 117.300781 278.625 117.300781 C 286.550781 117.300781 292.976563 110.378906 292.976563 101.84375 C 292.976563 93.304688 286.550781 86.386719 278.625 86.386719 Z M 176.441406 213.566406 C 169.734375 213.566406 164.300781 219.003906 164.300781 225.710938 C 164.300781 232.414063 169.734375 237.855469 176.441406 237.855469 C 183.148438 237.855469 188.589844 232.414063 188.589844 225.710938 C 188.589844 219.003906 183.148438 213.566406 176.441406 213.566406 Z M 255.203125 246.289063 C 247.886719 246.289063 241.957031 252.222656 241.957031 259.539063 C 241.957031 266.855469 247.886719 272.785156 255.203125 272.785156 C 262.519531 272.785156 268.453125 266.855469 268.453125 259.539063 C 268.453125 252.222656 262.519531 246.289063 255.203125 246.289063 Z M 284.480469 329.238281 C 276.554688 329.238281 270.128906 335.664063 270.128906 343.589844 C 270.128906 351.515625 276.554688 357.941406 284.480469 357.941406 C 292.40625 357.941406 298.832031 351.515625 298.832031 343.589844 C 298.832031 335.664063 292.40625 329.238281 284.480469 329.238281 Z M 206.804688 319.671875 C 199.484375 319.671875 193.554688 325.605469 193.554688 332.921875 C 193.554688 340.238281 199.484375 346.167969 206.804688 346.167969 C 214.121094 346.167969 220.050781 340.238281 220.050781 332.921875 C 220.050781 325.605469 214.121094 319.671875 206.804688 319.671875 Z M 152.15625 408.9375 C 142.402344 408.9375 134.492188 416.84375 134.492188 426.601563 C 134.492188 436.355469 142.402344 444.265625 152.15625 444.265625 C 161.910156 444.265625 169.820313 436.355469 169.820313 426.601563 C 169.820313 416.84375 161.910156 408.9375 152.15625 408.9375 Z M 219.261719 425.746094 C 211.945313 425.746094 206.011719 431.675781 206.011719 438.996094 C 206.011719 446.3125 211.945313 452.242188 219.261719 452.242188 C 226.578125 452.242188 232.511719 446.3125 232.511719 438.996094 C 232.511719 431.675781 226.578125 425.746094 219.261719 425.746094 Z M 300.320313 396.414063 C 290.566406 396.414063 282.65625 404.320313 282.65625 414.078125 C 282.65625 423.835938 290.566406 431.742188 300.320313 431.742188 C 310.078125 431.742188 317.984375 423.835938 317.984375 414.078125 C 317.984375 404.320313 310.078125 396.414063 300.320313 396.414063 Z M 173.59375 81.371094 C 166.886719 81.371094 161.449219 86.808594 161.449219 93.515625 C 161.449219 100.222656 166.886719 105.660156 173.59375 105.660156 C 180.300781 105.660156 185.738281 100.222656 185.738281 93.515625 C 185.738281 86.808594 180.300781 81.371094 173.59375 81.371094 Z M 78.578125 232.140625 C 71.261719 232.140625 65.328125 238.070313 65.328125 245.386719 C 65.328125 252.703125 71.261719 258.636719 78.578125 258.636719 C 85.894531 258.636719 91.828125 252.703125 91.828125 245.386719 C 91.828125 238.070313 85.894531 232.140625 78.578125 232.140625 Z M 389.480469 322.601563 C 382.164063 322.601563 376.230469 328.53125 376.230469 335.847656 C 376.230469 343.164063 382.164063 349.097656 389.480469 349.097656 C 396.796875 349.097656 402.730469 343.164063 402.730469 335.847656 C 402.730469 328.53125 396.796875 322.601563 389.480469 322.601563 Z M 30.371094 419.597656 C 23.054688 419.597656 17.125 425.53125 17.125 432.847656 C 17.125 440.164063 23.054688 446.09375 30.371094 446.09375 C 37.6875 446.09375 43.621094 440.164063 43.621094 432.847656 C 43.621094 425.53125 37.6875 419.597656 30.371094 419.597656 Z M 419.949219 403.984375 C 412.632813 403.984375 406.699219 409.914063 406.699219 417.234375 C 406.699219 424.550781 412.632813 430.480469 419.949219 430.480469 C 427.265625 430.480469 433.199219 424.550781 433.199219 417.234375 C 433.199219 409.914063 427.265625 403.984375 419.949219 403.984375 Z M 352.105469 237.214844 C 344.789063 237.214844 338.855469 243.144531 338.855469 250.464844 C 338.855469 257.777344 344.789063 263.710938 352.105469 263.710938 C 359.421875 263.710938 365.355469 257.777344 365.355469 250.464844 C 365.355469 243.144531 359.421875 237.214844 352.105469 237.214844 Z M 222.417969 528.089844 L 222.417969 607.71875 L 241.152344 607.71875 L 241.152344 528.089844 Z M 241.191406 15.875 L 225.769531 13.871094 L 218.675781 0.03125 L 212.007813 14.082031 L 196.652344 16.554688 L 207.953125 27.238281 L 205.558594 42.605469 L 219.210938 35.160156 L 233.085938 42.1875 L 230.222656 26.898438 L 241.191406 15.875 "/>
</g>
</svg>
