<?xml version="1.0" encoding="UTF-8"?>
<svg xmlns="http://www.w3.org/2000/svg" xmlns:xlink="http://www.w3.org/1999/xlink" width="243pt" height="321pt" viewBox="0 0 243 321" version="1.1">
<g id="surface1">
<path style=" stroke:none;fill-rule:nonzero;fill:rgb(0%,0%,0%);fill-opacity:1;" d="M 111.753906 75.628906 C 109.089844 72.296875 111.089844 73.296875 112.753906 74.296875 C 114.421875 75.296875 116.222656 76.5625 120.597656 77.886719 C 124.972656 79.210938 129.378906 78.554688 129.378906 78.554688 C 129.378906 78.554688 136.367188 94.941406 135.699219 105.277344 C 135.113281 114.378906 131.195313 122.988281 128.589844 126.960938 C 127.648438 128.402344 127.46875 129.324219 124.945313 129.742188 C 122.339844 130.175781 115.222656 129.722656 112.566406 128.898438 C 111.039063 128.425781 110.882813 127.601563 111.28125 126.695313 C 113.398438 121.890625 115.019531 121.734375 117.347656 116.789063 C 120.273438 110.570313 123.328125 102.480469 123.527344 97.945313 C 123.859375 90.277344 114.421875 78.960938 111.753906 75.628906 Z M 97.984375 97.71875 C 102.402344 96.050781 105.199219 95.59375 106.785156 95.023438 C 96.476563 91.449219 86.191406 87.964844 76.6875 82.171875 C 71.410156 83.898438 65.800781 84.765625 60.335938 83.847656 C 59.441406 83.726563 58.796875 82.878906 58.9375 81.960938 C 59.058594 81.070313 59.90625 80.425781 60.824219 80.5625 C 64.9375 81.441406 68.988281 80.554688 73.027344 79.777344 C 72.59375 79.480469 60.195313 70.011719 55.117188 64.972656 C 49.238281 64.863281 43.191406 63.964844 38.039063 61.003906 C 37.230469 60.5625 36.933594 59.558594 37.375 58.75 C 37.816406 57.941406 38.820313 57.644531 39.628906 58.085938 C 43.3125 60.226563 47.5 61.097656 51.730469 61.453125 C 44.339844 53.351563 38.53125 44.105469 35.699219 33.210938 C 35.496094 32.308594 36.050781 31.421875 36.953125 31.214844 C 37.855469 31.011719 38.742188 31.566406 38.945313 32.46875 C 41.804688 43.257813 47.707031 52.335938 55.167969 60.261719 C 55.707031 56.097656 54.621094 51.953125 52.769531 48.203125 C 52.519531 47.332031 53.03125 46.394531 53.902344 46.140625 C 54.796875 45.886719 55.707031 46.382813 55.980469 47.246094 C 58.398438 52.203125 59.296875 57.773438 58.023438 63.160156 C 62.886719 67.914063 75.105469 77.171875 75.730469 77.59375 C 76.0625 73.105469 73.644531 68.792969 71.441406 65.003906 C 70.882813 64.257813 71.050781 63.21875 71.792969 62.660156 C 72.523438 62.128906 73.585938 62.289063 74.113281 63.019531 C 77.105469 67.898438 79.957031 73.679688 78.8125 79.5625 C 88.136719 85.191406 98.253906 88.53125 108.355469 92.050781 C 108.339844 91.953125 108.328125 91.871094 108.308594 91.769531 C 107.230469 86.492188 93.636719 60.691406 74.925781 48.644531 C 56.21875 36.59375 43.394531 20.617188 41.792969 9.625 C 40.191406 -1.363281 36.59375 -3.328125 33.496094 6.628906 C 30.398438 16.582031 18.007813 55.722656 39.335938 82.335938 C 60.664063 108.949219 89.246094 101.015625 97.984375 97.71875 Z M 240.769531 192.007813 C 235.035156 223.742188 206.5625 264.632813 188.1875 297.0625 C 179.6875 312.0625 169.699219 323.085938 153.699219 320.585938 C 143.363281 318.972656 140.042969 315.9375 137.960938 313.878906 C 128.644531 304.675781 112.574219 305.488281 104.523438 313.351563 C 102.445313 315.382813 99.511719 318.828125 88.253906 320.585938 C 72.253906 323.085938 62.265625 312.0625 53.765625 297.0625 C 35.386719 264.632813 6.917969 223.742188 1.183594 192.007813 C -5.128906 157.09375 8.417969 126.898438 43.257813 120.035156 C 68.007813 115.160156 88.820313 121.628906 103.375 126.644531 C 116.863281 131.296875 125.398438 131.21875 136.8125 127.257813 C 151.425781 122.179688 172.925781 114.960938 198.695313 120.035156 C 233.53125 126.898438 247.078125 157.09375 240.769531 192.007813 Z M 60.753906 140.085938 C 32.164063 138.941406 19.679688 163.898438 31.753906 194.085938 C 35.753906 204.085938 37.753906 201.085938 34.753906 191.085938 C 27.953125 168.421875 41.554688 151.085938 67.753906 151.085938 C 79.753906 151.085938 85.753906 141.085938 60.753906 140.085938 "/>
</g>
</svg>
