<?xml version="1.0" encoding="UTF-8"?>
<svg xmlns="http://www.w3.org/2000/svg" xmlns:xlink="http://www.w3.org/1999/xlink" width="506pt" height="358pt" viewBox="0 0 506 358" version="1.1">
<g id="surface1">
<path style=" stroke:none;fill-rule:nonzero;fill:rgb(0%,0%,0%);fill-opacity:1;" d="M 485.480469 318.878906 L 478.761719 301.359375 L 478.878906 135.558594 C 478.878906 135.558594 469.519531 68.328125 466.644531 56.945313 C 466.101563 54.785156 466.128906 54.1875 465.675781 56.988281 C 463.824219 68.445313 455.839844 135 455.839844 135 L 453.078125 301.597656 L 445.960938 320.238281 L 430.199219 319.597656 L 348.601563 248.398438 L 306.359375 229.359375 L 306.359375 180.640625 C 306.359375 180.640625 298.5 114.75 297.5625 114.800781 C 296.0625 114.8125 287.960938 177.359375 287.960938 177.359375 L 287.5625 220.160156 L 263.320313 209.039063 C 262.039063 200 259.878906 191.359375 258.519531 182.320313 C 256.9375 182.125 255.609375 181.859375 255.480469 181.941406 C 253.5625 184.625 251.726563 186.820313 251.695313 186.75 C 251.0625 185.4375 250.898438 183.925781 250.519531 182.5625 L 247.398438 182.160156 L 246.375 186.75 L 245.320313 186.398438 L 244.359375 174.320313 C 247.960938 171.519531 247.238281 166.878906 247 162.800781 C 247 162.800781 244.824219 167.175781 244.265625 168.136719 C 241.816406 172.351563 240.433594 171.386719 239.914063 167.921875 C 239.636719 166.054688 239.769531 164.011719 239.71875 162 C 238.359375 164.960938 236.921875 167.839844 237.398438 171.601563 C 237.960938 173.039063 239.160156 174 240.519531 174.640625 C 240.4375 176.238281 240.519531 177.921875 239.960938 179.28125 C 239.367188 179.175781 238.996094 179.304688 238.753906 179.574219 C 238.5 180.4375 238.210938 182.152344 237.75 183.0625 C 237.683594 183.191406 236.820313 180.550781 236.5 179.75 L 233.800781 179.839844 C 233.558594 182.320313 232.839844 184.5625 232.4375 186.960938 C 231.480469 185.761719 231.160156 184.238281 230.519531 182.960938 L 226.519531 181.761719 L 222.679688 205.761719 L 173.160156 220.71875 L 174.839844 94.078125 C 174.839844 94.078125 165 0.5 163.878906 0.320313 C 162.761719 0.140625 149.320313 90.960938 149.320313 90.960938 L 143 229.199219 C 135.71875 231.28125 128.519531 233.519531 121.320313 235.761719 L 75.960938 317.917969 L 57.960938 320 L 53.878906 306.160156 L 58.519531 156.640625 C 58.519531 156.640625 53.75 79.75 51.800781 79.839844 C 49.847656 79.929688 38.359375 154.160156 38.359375 154.160156 L 32.199219 304.238281 L 26.28125 323.679688 L 1.480469 324.238281 L 1.480469 344.558594 L 134.121094 357.28125 L 504.519531 344.238281 L 504.519531 321.761719 Z M 453.503906 320.296875 C 457.140625 319.976563 461.246094 319.695313 463.800781 319.28125 L 463.640625 304.238281 C 461.320313 304.160156 458.601563 304.402344 456.28125 304.878906 L 460.347656 163.621094 L 461.875 163.5 L 458.199219 301.039063 C 459.800781 301.359375 461.71875 301.121094 463.398438 301.199219 L 466.375 147.125 C 464.136719 146.726563 462 146.761719 459.679688 146.679688 C 461.878906 146.199219 463.957031 145.246094 466.070313 144.429688 C 466.417969 144.296875 465.625 136.625 465.601563 136.359375 C 463.601563 136.679688 461.359375 136.441406 459.28125 136.519531 L 466.160156 134.199219 L 466.363281 82.253906 L 467.25 82.25 L 468.71875 134.199219 C 469.921875 134.839844 475.125 135.25 476.960938 136.679688 L 469.28125 136.359375 C 468.960938 139.078125 469.28125 141.878906 469.4375 144.199219 L 475.875 147 C 473.796875 147.160156 472 147.125 469.28125 147.238281 L 467.078125 319.039063 L 480.242188 319.734375 L 480.371094 320.117188 L 453.5 320.753906 C 453.5 320.753906 451.554688 320.46875 453.503906 320.296875 Z M 294.039063 189.679688 C 292.75 189.625 291.878906 189.359375 290.839844 189.28125 C 291.703125 188.675781 293.203125 188.324219 294.117188 187.613281 C 294.25 187.625 293.8125 181.8125 293.8125 181.8125 L 290 181 L 293.878906 180.078125 L 296.828125 132.566406 L 297.1875 132.5 L 295.960938 179.679688 L 302.519531 182.160156 L 296.1875 182.0625 C 296.347656 183.980469 296.199219 185.601563 296.359375 187.519531 L 302.121094 189.28125 L 296.199219 189.28125 C 296.125 201.1875 296.847656 209.730469 296.6875 221.25 L 302.679688 227.441406 L 289.878906 221.121094 L 294.679688 221.359375 C 294.4375 210.800781 294.28125 200.238281 294.039063 189.679688 Z M 250.761719 190.339844 C 250.761719 190.339844 251.128906 189.980469 250.9375 190.5625 C 250.167969 192.9375 248.410156 197.863281 247.640625 200.238281 L 259.9375 207.125 L 259.902344 207.3125 L 245.71875 201.199219 Z M 171.792969 231.5 L 172.410156 231.5 L 172.519531 291.039063 C 173.558594 293.519531 173.640625 296.402344 174.679688 298.878906 L 233.800781 208.238281 L 235.277344 189.1875 L 235.605469 189.128906 L 235.320313 208.878906 L 176.039063 301.039063 C 176.761719 304.71875 178.28125 308.238281 179.078125 311.917969 C 179.078125 311.917969 186.839844 312.960938 190.4375 313.28125 L 238.359375 209.441406 L 239.898438 188.5625 L 240.1875 188.5 L 239.320313 210 L 192.519531 313.679688 L 398.921875 317.679688 L 307.480469 236.480469 L 207.5 308.625 L 206.820313 307.824219 L 307.71875 233.601563 L 401.25 315.75 L 401.578125 315.167969 L 323.75 243.375 L 324.179688 242.902344 L 410.039063 318.878906 L 424.878906 319.976563 L 424.753906 320.570313 L 178.679688 314.480469 L 170.601563 291.039063 Z M 209.238281 310.640625 L 214.761719 306.960938 L 215 308.878906 Z M 217.65625 311.191406 L 217.878906 304.238281 L 223.328125 301.074219 L 223.570313 301.394531 L 219.558594 305.199219 L 217.808594 311.1875 Z M 227.90625 298.296875 C 227.90625 298.296875 234.136719 293.078125 234.238281 293.371094 C 234.34375 293.660156 229.1875 299.097656 229.1875 299.097656 L 228.835938 311.667969 L 228.007813 311.667969 Z M 237.894531 290.882813 C 237.894531 290.882813 244.125 285.664063 244.230469 285.957031 C 244.335938 286.246094 239.175781 291.683594 239.175781 291.683594 L 238.835938 311.832031 L 238.007813 311.832031 Z M 247.175781 310 L 247.40625 283.128906 C 247.40625 283.128906 253.636719 277.910156 253.738281 278.203125 C 253.84375 278.496094 248.6875 283.929688 248.6875 283.929688 L 248 310 Z M 258.34375 309.332031 L 258.550781 275.289063 C 258.550781 275.289063 264.78125 270.074219 264.882813 270.363281 C 264.988281 270.65625 259.832031 276.09375 259.832031 276.09375 L 259.164063 309.332031 Z M 267.507813 307.832031 L 267.882813 268.113281 C 267.882813 268.113281 274.109375 262.894531 274.214844 263.1875 C 274.316406 263.480469 269.160156 268.914063 269.160156 268.914063 L 268.335938 307.832031 Z M 277.507813 307.167969 L 277.839844 260.449219 C 277.839844 260.449219 284.066406 255.230469 284.171875 255.519531 C 284.277344 255.8125 279.121094 261.246094 279.121094 261.246094 L 278.335938 307.167969 Z M 286.675781 307 L 287 253.761719 C 287 253.761719 293.230469 248.539063 293.335938 248.835938 C 293.4375 249.125 288.28125 254.5625 288.28125 254.5625 L 287.5 307 Z M 296.675781 306.667969 L 297.476563 245.96875 C 297.476563 245.96875 303.703125 240.75 303.808594 241.039063 C 303.910156 241.335938 298.753906 246.769531 298.753906 246.769531 L 297.5 306.667969 Z M 306.300781 239.539063 C 308.324219 241.703125 310.386719 244.753906 312.320313 246.972656 C 313.324219 248.121094 313.289063 248.597656 311.730469 247.3125 C 310.9375 246.660156 309.324219 245.214844 308.222656 244.179688 L 307.5 306.875 L 306.894531 307.011719 Z M 316.113281 247.714844 C 318.136719 249.878906 320.199219 252.929688 322.132813 255.144531 C 323.136719 256.296875 323.101563 256.773438 321.546875 255.488281 C 320.753906 254.835938 319.136719 253.390625 318.035156 252.355469 L 317.5 306.25 L 316.894531 306.386719 Z M 324.613281 256.3125 C 326.636719 258.480469 328.699219 261.53125 330.632813 263.746094 C 331.636719 264.898438 331.601563 265.375 330.046875 264.089844 C 329.253906 263.433594 327.636719 261.988281 326.535156 260.953125 L 325.5 305.75 L 324.894531 305.886719 Z M 333.210938 264.636719 C 335.230469 266.804688 336.796875 269.226563 338.726563 271.445313 C 339.730469 272.597656 339.695313 273.074219 338.140625 271.789063 C 337.347656 271.132813 336.230469 270.3125 335.128906 269.277344 L 334 306.125 L 333.394531 306.261719 Z M 342.019531 306.511719 L 342.460938 272.285156 C 344.480469 274.453125 346.046875 276.878906 347.976563 279.09375 C 348.980469 280.246094 348.945313 280.71875 347.390625 279.4375 C 346.597656 278.78125 345.480469 277.960938 344.378906 276.925781 L 342.625 306.375 Z M 351.519531 308.261719 L 351.960938 280.582031 C 353.980469 282.746094 355.546875 285.171875 357.480469 287.390625 C 358.480469 288.542969 358.445313 289.015625 356.890625 287.730469 C 356.097656 287.078125 354.984375 286.257813 353.878906 285.222656 L 352.125 308.125 Z M 359.519531 309.886719 L 360.210938 287.050781 C 362.234375 289.214844 363.796875 291.640625 365.730469 293.855469 C 366.734375 295.007813 366.699219 295.484375 365.140625 294.199219 C 364.347656 293.546875 363.234375 292.726563 362.132813 291.691406 L 360.125 309.75 Z M 368.683594 313.371094 L 369.320313 295.597656 C 371.339844 297.765625 372.90625 300.191406 374.839844 302.40625 C 375.84375 303.558594 375.808594 304.035156 374.25 302.75 C 373.457031 302.09375 372.34375 301.273438 371.238281 300.238281 L 369.289063 313.238281 Z M 377.800781 304.878906 C 379.640625 306.402344 383.125 309.375 383 310.238281 C 381.640625 309.761719 380.4375 308.960938 379.160156 308.320313 L 378.375 312.25 L 377.855469 312.25 Z M 386.199219 311.761719 L 391.238281 315.597656 C 389.5625 315.519531 388.121094 313.761719 386.4375 314.800781 Z M 150.839844 289.519531 L 154.75 107 C 153.46875 106.679688 150.921875 106.15625 150.125 106.125 C 150.878906 105.296875 154.875 104.875 154.875 104.875 L 155.078125 100.558594 L 150.75 100.125 C 152.109375 99.246094 155 99.125 155 99.125 L 155.238281 94.078125 C 155.238281 94.078125 152.816406 94.210938 151 94.125 C 150.773438 94.113281 155.375 92.625 155.375 92.625 L 155.949219 89.050781 C 155.949219 89.050781 152.4375 88.9375 151.75 88.875 L 157.121094 87.246094 L 159.859375 53.09375 L 159.933594 51.613281 L 159.996094 51.394531 L 159.859375 53.09375 L 158.125 87.125 L 166.613281 88.699219 C 166.613281 88.699219 166.910156 89.015625 166.492188 89.070313 C 163.925781 89.402344 158.378906 89.5625 158.378906 89.5625 L 158.375 92.875 C 158.375 92.875 166.144531 92.5625 169.453125 93.632813 C 169.84375 93.757813 169.5 94.09375 169.5 94.09375 L 157.800781 94.238281 C 157.800781 94.238281 157.75 96.875 157.75 99.25 C 161.355469 98.976563 165.683594 99.53125 169.078125 100.53125 C 169.675781 100.707031 169.585938 101.085938 169.003906 101.058594 C 164.632813 100.859375 161.789063 100.414063 158.121094 101.121094 L 158.375 105.25 C 158.375 105.25 167.253906 104.214844 170.375 106.375 C 167.304688 106.828125 158.519531 106.878906 158.519531 106.878906 L 151.835938 289.417969 L 165.078125 289.28125 L 168.128906 123.335938 L 169.125 123.125 L 166.4375 290.800781 L 173.160156 313.121094 L 152.039063 313.519531 L 150.964844 318.640625 L 150.679688 318.75 L 150.679688 312.320313 L 170.601563 311.917969 C 168.761719 305.039063 166.4375 297.839844 164.121094 290.800781 L 152.414063 291 L 146.085938 319.082031 L 145.566406 319.175781 Z M 121.640625 240.71875 L 143 279.28125 L 144.359375 288.71875 L 137 320.375 C 136.425781 320.304688 133.6875 320.253906 131.480469 319.839844 C 132.140625 319.300781 133.25 319.121094 133.796875 318.421875 C 133.980469 318.191406 142.4375 288.878906 142.4375 288.878906 L 141.238281 280.480469 L 121.078125 245.121094 L 84.039063 314.640625 L 92.28125 314.082031 L 118.296875 261.835938 L 119 262 L 94.441406 313.839844 C 102.261719 314.027344 123.558594 312.859375 123.863281 312.878906 C 127.375 312.875 127.375 313.5 123.496094 313.597656 C 123.019531 313.671875 80.761719 316.402344 80.761719 316.402344 Z M 37 302.558594 L 41.8125 167.4375 L 39.125 166.5 C 40.375 165.375 42.039063 163.507813 42.039063 163.507813 L 41.960938 156.480469 L 39 156.25 L 42.25 154 L 49.941406 101.984375 L 50.625 102.125 L 45 152.75 C 46.875 152.625 49.515625 152.773438 52 152.867188 C 52.992188 152.902344 52.84375 153.625 51.882813 153.796875 C 48.890625 154.339844 44.875 154.625 44.875 154.625 L 44.625 157.375 C 44.625 157.375 47.5 157.125 53.015625 157.429688 C 53.710938 157.574219 53.746094 158.210938 52.867188 158.300781 C 49.363281 158.660156 44.375 158.875 44.375 158.875 C 44.375 158.875 44.519531 159.78125 44.28125 161.039063 C 47.039063 161.304688 50.398438 160.484375 53.371094 161.027344 C 54.015625 161.148438 54.167969 161.808594 53.507813 161.921875 C 49.972656 162.519531 44.519531 163.199219 44.519531 163.199219 L 44.25 165.5 C 44.25 165.5 46.875 165 53.109375 165.308594 C 53.996094 165.535156 53.871094 166.296875 53 166.332031 C 49.21875 166.492188 44.519531 167.601563 44.519531 167.601563 L 39.082031 304.238281 L 45.625 304.375 L 52.046875 180.871094 L 52.75 180.875 L 47.875 306.25 L 51.25 316.25 L 50.835938 316.636719 L 45.75 306.5 L 38.917969 306.558594 L 36.441406 318.878906 L 50.125 320 L 50.246094 320.519531 L 34.121094 320.800781 Z M 487.753906 328.535156 L 147.238281 327.121094 L 148.433594 351 L 147.871094 351.25 L 144.359375 326.71875 L 129.71875 326.160156 L 128.09375 354.242188 L 127.214844 354.253906 L 126.4375 326.558594 L 10.75 330.875 L 10.636719 330.59375 L 127.640625 323.28125 L 128.199219 316.960938 L 130.679688 323.679688 C 136.59375 323.101563 404.160156 326.808594 487.75 328.125 C 488 328.128906 487.753906 328.535156 487.753906 328.535156 "/>
</g>
</svg>
