<?xml version="1.0" encoding="UTF-8"?>
<svg xmlns="http://www.w3.org/2000/svg" xmlns:xlink="http://www.w3.org/1999/xlink" width="296pt" height="546pt" viewBox="0 0 296 546" version="1.1">
<g id="surface1">
<path style=" stroke:none;fill-rule:nonzero;fill:rgb(0%,0%,0%);fill-opacity:1;" d="M 113.699219 413.398438 C 100.898438 409.800781 92.101563 397 90.398438 384.398438 C 90.398438 384.398438 81.183594 404.71875 99.792969 412.097656 C 106.6875 414.828125 115.398438 415.300781 115.398438 415.300781 L 113.699219 413.398438 "/>
<path style=" stroke:none;fill-rule:nonzero;fill:rgb(0%,0%,0%);fill-opacity:1;" d="M 234.199219 131.898438 C 233.300781 129.699219 231.101563 129 228.898438 129 C 228.898438 129 230.835938 138 226.199219 152.101563 C 226.199219 152.101563 237.949219 145.121094 234.199219 131.898438 "/>
<path style=" stroke:none;fill-rule:nonzero;fill:rgb(0%,0%,0%);fill-opacity:1;" d="M 199.398438 112 C 199.398438 112 202.101563 110.898438 202.5 110.101563 C 203.300781 107.300781 192 90.898438 184.5 91.101563 C 182.199219 91.898438 180.800781 94.300781 180.199219 96.398438 C 189.300781 96.398438 194.300781 105.601563 199.398438 112 "/>
<path style=" stroke:none;fill-rule:nonzero;fill:rgb(0%,0%,0%);fill-opacity:1;" d="M 227 352.699219 C 226.800781 354.199219 228.5 354.199219 229.398438 354.601563 C 243.601563 352.699219 258.199219 351.398438 270.898438 345.5 C 273 344.199219 273 339 273 339 C 261.5 347.5 227.300781 350.199219 227 352.699219 "/>
<path style=" stroke:none;fill-rule:nonzero;fill:rgb(0%,0%,0%);fill-opacity:1;" d="M 124 122.300781 C 121.398438 121.199219 118.5 118 115.601563 120.601563 C 107.5 124.5 97.800781 130 94.199219 139.101563 L 95 139.101563 C 103.300781 130.199219 114 126.601563 124 122.300781 "/>
<path style=" stroke:none;fill-rule:nonzero;fill:rgb(0%,0%,0%);fill-opacity:1;" d="M 181.601563 366.398438 C 188.199219 366.699219 202.5 357.898438 201.800781 355.800781 C 194.101563 357.199219 186.898438 360 181.601563 366.398438 "/>
<path style=" stroke:none;fill-rule:nonzero;fill:rgb(0%,0%,0%);fill-opacity:1;" d="M 207 205.300781 C 213.800781 208 220.199219 204.199219 225 199.300781 L 274.199219 197.699219 L 292.699219 184.699219 L 294.898438 157.101563 L 209.699219 157.800781 C 212.398438 155.101563 224.5 136.664063 218.101563 116.5 C 209.300781 114.898438 201.101563 117.601563 194.800781 123.5 L 193.398438 117.300781 C 189.898438 109.898438 181.699219 107.898438 174.601563 106.199219 L 176.300781 1.300781 C 166.699219 1.101563 157.101563 0.898438 147.5 0.601563 L 133.101563 19.101563 L 130.5 129.699219 C 124 136.199219 116.601563 140.101563 107.699219 140.800781 C 105.199219 145.398438 108.199219 150.5 107.898438 155.199219 L 17.898438 158.5 L 0.898438 174.101563 L 6.199219 203.898438 L 107 201.699219 C 107 201.699219 109 210.199219 109.601563 214.199219 C 117.199219 211.699219 125 208.699219 132.398438 206.5 L 130.699219 262.699219 C 120.101563 260.699219 109.101563 257.898438 97.800781 258.898438 C 101.398438 264.699219 105.761719 279.019531 105.929688 279.726563 C 108.722656 291.203125 118.703125 301.5625 130.199219 304.199219 L 129.800781 329.398438 C 125.398438 323 121.601563 315.101563 113.898438 311.898438 C 101.199219 311.601563 81.5 323.398438 81.5 323.398438 C 102.898438 323.898438 117.601563 341.199219 131.199219 357 L 129.800781 376.699219 C 120.800781 366.699219 109.5 361.199219 98.601563 355.300781 C 98.300781 369.699219 98.5 385.699219 107.699219 397.101563 C 114.300781 406.101563 128.898438 401.300781 132.199219 412.898438 C 132.199219 412.898438 112.101563 469.199219 109.398438 496.398438 L 117.5 510.398438 C 117.5 510.398438 124.207031 478.277344 127.390625 462.246094 C 127.765625 460.351563 128.167969 458.46875 128.601563 456.597656 L 128.753906 462.664063 L 128.101563 545.898438 L 164.601563 545.199219 L 175.601563 532.699219 L 173 361.101563 C 178.398438 356.398438 183.601563 350.898438 190.699219 350 C 218.601563 346.699219 247.699219 345.601563 271.300781 332.5 C 275.519531 313.160156 266.300781 293.886719 233.398438 300.601563 C 211.5 304 187.601563 321.199219 182.101563 343.800781 C 179.601563 346.699219 176.199219 350 173.199219 352 L 172.5 333 C 182.699219 308.101563 198.601563 285.601563 217.101563 264.101563 L 251.398438 245.898438 C 258.496094 240.757813 265.59375 234.410156 269.992188 226.898438 C 271.671875 224.035156 279.101563 209.101563 279 203.699219 C 277.101563 201 273.5 202.601563 270.898438 202.5 C 258 208.398438 244.214844 211.695313 233.199219 222.398438 C 217.835938 237.335938 210.480469 262.191406 210.199219 263.011719 C 207.480469 270.988281 200.621094 277.296875 195 284.101563 C 191.699219 287.5 188.699219 291.898438 185.898438 294.898438 C 187 289.898438 188.199219 285 189 280 C 190.5 260.601563 194.300781 240.800781 192.601563 220.699219 C 191.800781 214.199219 192 207.300781 193.398438 200.800781 C 198.199219 201.5 202.601563 203.601563 207 205.300781 Z M 108.199219 183.5 L 21.300781 185.398438 L 18.601563 167.699219 L 20.800781 166.5 L 23.199219 181.800781 L 107.898438 180.601563 C 108.300781 181.398438 108.199219 183.5 108.199219 183.5 Z M 105.5 174.601563 C 104.601563 171 99.140625 165.410156 98.171875 166.007813 C 94.28125 168.398438 90.984375 172.097656 87.300781 174.898438 C 85.800781 171.898438 84.5 169 82.699219 166.199219 L 72.398438 177.300781 L 60.898438 166.699219 C 57.398438 169.300781 54.300781 172.898438 51 176.101563 C 48.800781 173.101563 47.199219 167.800781 43.101563 167.199219 L 32.800781 176.5 L 31.101563 164.800781 L 105.5 162.398438 C 107.199219 166.199219 108.101563 170.398438 109.398438 174.398438 C 108.199219 174.800781 106.800781 174.5 105.5 174.601563 Z M 101.199219 369.5 C 101.398438 368.300781 102.398438 366.898438 103.800781 367.800781 C 106.601563 371.699219 109.300781 375.601563 111.300781 379.800781 C 109.125 378.390625 106.136719 374.296875 101.199219 369.5 Z M 105.800781 383.601563 C 110.898438 386.300781 116.699219 390.101563 119.398438 395.398438 C 114.164063 396 106.5 388.664063 105.800781 383.601563 Z M 118 388 C 116.101563 382.898438 115.601563 376.898438 114.898438 371.199219 L 119.5 374 C 119.898438 378.800781 120.164063 385 118 388 Z M 127.164063 397.664063 L 125 396.800781 L 124.5 383.601563 C 125.398438 383.699219 128.265625 384.101563 128.164063 385 C 128.066406 389.101563 128.066406 393.867188 127.164063 397.664063 Z M 244.5 310.199219 C 246.398438 310.898438 249.300781 310.601563 250 312.800781 C 243.699219 317.601563 237.398438 322.101563 230.601563 325.601563 C 230.300781 324.300781 240.101563 314 244.5 310.199219 Z M 231.800781 309.199219 C 233 309.898438 233.699219 311.898438 232.699219 313.101563 C 226.898438 319.101563 221.398438 325.601563 214.5 329.398438 C 218.699219 322.101563 225.398438 315.5 231.800781 309.199219 Z M 216.898438 313.101563 C 217.898438 314 217.101563 315.800781 216.601563 316.898438 C 209.800781 322.699219 205.398438 330 199.398438 336.398438 C 198.5 330 209.699219 319.699219 216.898438 313.101563 Z M 267 330.800781 C 244.300781 338 220.398438 342.699219 194.800781 342.101563 C 219.460938 330.011719 259.53125 316.789063 267 330.800781 Z M 269.898438 209.898438 L 269.898438 212.5 C 258.699219 221.601563 247.398438 230.5 236.601563 240.398438 L 233.835938 241 C 242.835938 229.398438 257.199219 218.101563 269.898438 209.898438 Z M 248.800781 237.300781 L 269.199219 217.800781 C 267.652344 223.910156 264.84375 230.460938 259.632813 234.402344 C 258.785156 235.039063 229 252.898438 216.898438 262.199219 L 216.601563 262 C 225.5 251.898438 236.898438 242.699219 248.800781 237.300781 Z M 230.101563 236.300781 L 230.601563 236.300781 C 228.101563 245 220.699219 251.800781 215.398438 259.300781 L 214.699219 258.398438 C 218.300781 250.398438 223.101563 242.699219 230.101563 236.300781 Z M 282.101563 180.101563 L 225.800781 179.898438 C 225.5 179.398438 225.101563 178.898438 225.300781 178.199219 C 245.199219 177.601563 265.035156 177.835938 284.835938 178.335938 C 284.632813 179.03125 282.898438 179.898438 282.101563 180.101563 Z M 285.699219 173.699219 C 267.601563 173.398438 249.898438 175.101563 232.699219 174.101563 C 232.101563 174 231.398438 173.101563 232 172.5 C 251.699219 171.300781 269.601563 170.800781 288.398438 171 C 288.800781 172.5 286.898438 173.101563 285.699219 173.699219 Z M 216.199219 165.5 C 216.199219 165.5 283 164 286.898438 164.800781 C 287 165.898438 286.964844 167.132813 286.164063 167.335938 C 286.164063 167.335938 215.898438 167.300781 215.898438 166.5 Z M 168.199219 13.601563 L 170.101563 11.398438 L 169.398438 81.699219 C 168.199219 82 168 80.699219 167.699219 80.101563 C 166.699219 59.800781 166.699219 34.898438 168.199219 13.601563 Z M 159.800781 14.300781 L 161.699219 12.601563 C 161.699219 12.601563 162.800781 95.101563 161.898438 97.300781 C 160.5 96.699219 160.699219 94.699219 159.800781 93.5 Z M 151.800781 10.199219 C 153 8.398438 154.101563 10.5 153.800781 11.699219 L 153.300781 87.5 C 153.300781 87.5 151.304688 85.292969 151.074219 83.632813 C 150.773438 81.496094 151.800781 10.199219 151.800781 10.199219 Z M 109.398438 272.300781 C 112 274.101563 115.101563 274.699219 118.199219 275.398438 L 118.199219 275.898438 C 116.101563 276.800781 113.5 276.300781 111.5 275.398438 C 110.398438 274.699219 109.300781 273.601563 109.398438 272.300781 Z M 114.601563 280.898438 C 118.699219 282.800781 123.199219 283.398438 127.398438 284.800781 C 127.300781 285.601563 126.101563 285.898438 125.199219 285.699219 C 121 285.800781 117.199219 284.199219 114.601563 280.898438 Z M 122.300781 290.300781 C 127.5 291.699219 132.898438 292.300781 137.898438 294.101563 L 138.164063 296.5 C 132.566406 296.199219 123.164063 294.335938 122.300781 290.300781 Z M 126.601563 340 C 120.800781 331 110.898438 325.398438 102.199219 321 C 105.199219 320.800781 107.699219 319.5 110.800781 319.601563 C 115.601563 326.101563 128.773438 338.9375 129.234375 339.621094 C 134.015625 346.753906 141.402344 365.371094 141.402344 365.371094 C 141.402344 365.371094 141.75 369.054688 140.179688 366.324219 C 135.230469 357.722656 130.394531 349.035156 126.601563 340 Z M 159 535.800781 C 156 529.199219 152.101563 522.898438 150.601563 515.601563 C 154.398438 516.898438 158.300781 520 162.898438 519.199219 C 162.199219 514.398438 155.898438 503.398438 156.398438 502 C 159.601563 502.101563 161.699219 504.800781 165 504.601563 C 166 503.601563 155.5 492.101563 156.898438 485.402344 C 158.300781 482.402344 163.101563 485.5 164.101563 481.800781 C 162.898438 474.199219 158.101563 468.199219 156.199219 460.902344 C 159 460.300781 162 462.300781 164.800781 461.199219 L 155.898438 447.199219 C 155.601563 443.699219 163.738281 440.191406 163.957031 438.964844 C 164.613281 435.261719 157.601563 422 158.800781 418.898438 C 161.898438 415.5 163.101563 411 163.800781 406.898438 C 163.800781 406.898438 159 399.101563 155.898438 396.101563 C 157.199219 391.5 163 388.5 163.398438 383.898438 C 162.5 381.699219 156.898438 380.800781 160.699219 377.898438 L 167.699219 371.398438 L 168.898438 529.101563 Z M 179.199219 350.5 L 179 352.699219 L 162.609375 366.738281 C 162.609375 366.738281 159.882813 367.609375 161.371094 365.890625 C 166.433594 360.046875 173.175781 354.824219 179.199219 350.5 Z M 182.886719 294.527344 C 182.589844 298.46875 181.269531 302.164063 180.25 305.835938 C 179.675781 307.898438 141.757813 407.644531 141.757813 407.644531 L 118.699219 478.199219 C 118.300781 486.699219 116.101563 494.5 115.601563 502.898438 C 112.101563 499.699219 114.199219 493.601563 113.699219 489.199219 C 113.699219 489.199219 133.480469 423.414063 140.355469 401.515625 C 141.421875 398.117188 155.800781 361.398438 162.601563 344.800781 C 156.101563 325.398438 155.699219 303.199219 139.101563 288.101563 C 129.699219 281.5 107 262.699219 107 262.699219 C 120.699219 264.300781 133.199219 268.800781 145.101563 274.898438 C 156 282.398438 157.800781 296.101563 155.199219 308.5 C 155.199219 308.5 160.800781 330.5 164.101563 340.199219 C 168 328.101563 173.300781 316.398438 178.199219 304.699219 L 181.453125 294.652344 C 181.453125 294.652344 182.988281 293.214844 182.886719 294.527344 Z M 154 240.601563 C 156.199219 230.601563 160.101563 220.800781 169.101563 214.199219 C 169.800781 214.699219 169.898438 215.398438 169.800781 216.101563 C 160.699219 222.898438 157.800781 233 155 242.800781 C 153.5 242.898438 154.699219 241.199219 154 240.601563 Z M 173.265625 304.496094 C 172.902344 305.699219 172.226563 304.335938 172.226563 304.335938 L 173 220.699219 L 174.898438 218.800781 C 182.296875 224.113281 186.113281 226.199219 186.964844 234.355469 C 189.566406 259.179688 180.078125 282.003906 173.265625 304.496094 Z M 189.5 214.699219 C 187.5 213.398438 185.898438 210.699219 183.800781 208.898438 C 183.800781 208.898438 178.667969 207.460938 178.925781 208.777344 C 179.503906 211.730469 181.179688 214.398438 181.800781 217.300781 C 176.300781 217.300781 173 213.398438 169.101563 209.398438 C 174 205.800781 179.300781 201.898438 185.398438 200.800781 C 187.5 205.101563 190.300781 209.398438 189.5 214.699219 Z M 187.101563 185.398438 C 185.101563 188.5 181.601563 195.699219 181.601563 195.699219 C 179.800781 193.300781 178.898438 190.101563 176.101563 188.5 C 174.199219 192.300781 174.101563 196.800781 171.5 200.300781 C 169.398438 200.800781 167.601563 198.398438 166.5 196.699219 C 164.402344 187.558594 172.320313 173.363281 183.300781 176.5 C 188.300781 177.800781 192.199219 181.5 197 183.5 C 197.214844 174.710938 183.976563 162.902344 170.800781 175.101563 C 164.5 183.199219 160 192.898438 162.601563 203.898438 C 162.675781 205.625 164.886719 207.40625 164.808594 208.949219 C 164.78125 209.460938 157.300781 206.199219 155 209.898438 C 155.101563 213 155.601563 216.300781 155.398438 219.300781 C 153 217.601563 152 214.101563 149.199219 213.300781 C 148.199219 214.898438 151.800781 230.699219 151.398438 237 C 143 224.800781 139.699219 207.800781 144.398438 192.898438 C 148.699219 187.199219 155.398438 186.5 161.398438 184.5 C 163 182.101563 162.699219 179 161.699219 176.5 C 160.398438 176.199219 159.898438 177.398438 159 178 C 157.898438 174.601563 157.300781 169.601563 153.5 167.898438 C 152.300781 168.199219 151 168.199219 149.898438 168.898438 C 153.300781 171.699219 156.796875 179.582031 156.421875 179.910156 C 155.355469 180.855469 154.410156 182.210938 153.300781 181.101563 C 151.699219 179.699219 150.800781 177 148.5 177 C 146.398438 180.300781 144.800781 183.898438 143.699219 187.601563 C 143.699219 187.601563 141.5 186.601563 141 185.898438 C 139.398438 186.601563 139.5 188.898438 138.898438 190.5 C 138.398438 192.699219 137.800781 195 136 196.5 C 133.101563 197.101563 130.898438 194.199219 127.800781 195.300781 L 122.300781 202.699219 L 111.300781 207.5 C 111.445313 198.0625 111.269531 188.242188 115.933594 180.730469 C 120.214844 173.839844 131.917969 165.945313 141.300781 170.101563 C 144.300781 169.300781 143.398438 165.300781 143.898438 162.601563 C 144 162.101563 143.898438 161.699219 143.398438 161.398438 L 134.601563 165 C 132.300781 164.101563 130.398438 161.800781 127.601563 162.898438 C 124.699219 165.199219 122.101563 168.800781 118.699219 169.101563 C 109.898438 165.800781 112.601563 155.300781 111 147.699219 C 119.5 142.699219 127.601563 136.601563 136.5 132.601563 C 144.800781 131.300781 152.800781 133.699219 157.601563 140.101563 L 162.898438 152.5 C 163.898438 153.800781 167.398438 153.699219 167.398438 153.699219 C 166.632813 146.808594 165.722656 139.628906 161.527344 134.3125 C 151.539063 121.660156 144.296875 115.964844 152.164063 99.335938 L 155 94 C 155.898438 99.199219 154.398438 103.898438 153.5 108.601563 C 156.101563 109.398438 158 107.300781 160.699219 107.699219 C 160.101563 110.699219 157.601563 113.5 158.601563 116.5 L 170.800781 113.699219 C 168.699219 116.699219 165.898438 119.5 164.300781 122.800781 C 164.300781 122.800781 175.601563 119.699219 181.101563 118.5 C 179.199219 122.5 176.300781 126.800781 174.398438 131.199219 C 177.199219 130.699219 184.898438 125.5 186.398438 125.699219 C 187.199219 131.898438 180.699219 134.5 178 139.300781 C 175.101563 144 171.199219 148.199219 170.101563 153.5 L 172.035156 154.535156 C 180.457031 143.527344 187.804688 134.648438 196 127.601563 C 200.898438 123.898438 207 123 213 121.800781 C 212.800781 127.800781 206.101563 130.699219 203 135.300781 C 205.398438 136.199219 208.699219 137 209.398438 140.101563 C 208.300781 143.699219 203.300781 142.800781 201 145.300781 C 204.5 150.664063 199.101563 158.101563 195 155.199219 C 194.5 155.199219 193.898438 155.101563 193.601563 155.699219 C 197 161.699219 187.699219 163.199219 185.898438 168.101563 C 192.199219 167.898438 197.199219 162.898438 204.398438 164.101563 C 204.199219 168 204.199219 172.199219 203.199219 175.800781 C 206.199219 177.800781 214.5 176.101563 215 176.101563 C 215.199219 180.300781 211.800781 183.601563 211.398438 187.800781 C 213.601563 189.5 222.398438 185.898438 222.398438 185.898438 L 222.398438 197.398438 C 219.898438 198.398438 218.300781 195.601563 216.398438 194.300781 C 214.699219 195.898438 214.101563 198.398438 212.101563 200.101563 C 210.601563 195 206.335938 184.664063 206.335938 184.664063 C 204.132813 187.867188 205.699219 190.699219 202.699219 193.601563 C 201.601563 190.5 198.601563 184.5 198.601563 184.5 C 197.101563 187.601563 195.699219 191.300781 192.398438 193.300781 C 188.898438 192.300781 189.5 187.800781 187.101563 185.398438 "/>
<path style=" stroke:none;fill-rule:nonzero;fill:rgb(0%,0%,0%);fill-opacity:1;" d="M 168.398438 175.300781 C 169.835938 170 169.5 163.199219 165.800781 159.300781 C 165.5 164.800781 165.800781 170.699219 168.398438 175.300781 "/>
<path style=" stroke:none;fill-rule:nonzero;fill:rgb(0%,0%,0%);fill-opacity:1;" d="M 198.898438 139.601563 L 198.898438 139.101563 C 198.300781 138.101563 197.300781 137.101563 196 137.199219 C 182.25 144.222656 171.144531 159.472656 172.183594 167.0625 C 172.332031 168.144531 173.65625 168.609375 174.058594 166.972656 C 174.75 164.136719 175.871094 159.96875 176.835938 158.335938 C 181.378906 150.617188 189.605469 140.949219 198.898438 139.601563 "/>
<path style=" stroke:none;fill-rule:nonzero;fill:rgb(0%,0%,0%);fill-opacity:1;" d="M 195.5 147 C 187.800781 150.101563 179.699219 157.199219 178.5 165 C 179.300781 165 180.398438 165.398438 181.101563 165 C 182.066406 159.898438 191.269531 153.648438 195.164063 150 C 196.921875 148.355469 195.8125 147.277344 195.5 147 "/>
<path style=" stroke:none;fill-rule:nonzero;fill:rgb(0%,0%,0%);fill-opacity:1;" d="M 154.5 152.5 C 152.601563 153 150.5 154.199219 149.699219 156.101563 C 148.898438 157.898438 148.898438 160.5 150.398438 161.898438 C 152.199219 162.699219 154.699219 162.5 156.199219 161.199219 C 160 167 162.398438 173.699219 165.300781 179.699219 C 166.199219 178.898438 167.398438 178.5 167.199219 177 C 167.199219 177 160 153.101563 154.5 152.5 "/>
<path style=" stroke:none;fill-rule:nonzero;fill:rgb(0%,0%,0%);fill-opacity:1;" d="M 122.300781 267.699219 C 124.398438 271.5 126 275.898438 129.300781 278.800781 C 130.300781 278.699219 127.800781 267.199219 122.300781 267.699219 "/>
<path style=" stroke:none;fill-rule:nonzero;fill:rgb(0%,0%,0%);fill-opacity:1;" d="M 121.601563 225 C 122.300781 223.800781 122.300781 221.800781 121.398438 220.699219 C 115 225.601563 105.800781 226.199219 97.800781 225 L 97.601563 228.101563 C 100.328125 232.871094 117.28125 229.546875 121.601563 225 "/>
<path style=" stroke:none;fill-rule:nonzero;fill:rgb(0%,0%,0%);fill-opacity:1;" d="M 122.601563 142.699219 C 121.398438 143.199219 120.898438 144.5 121.101563 145.800781 C 130.398438 144.5 138.199219 149.398438 146.101563 152.800781 C 141.5 144.601563 132 141.398438 122.601563 142.699219 "/>
<path style=" stroke:none;fill-rule:nonzero;fill:rgb(0%,0%,0%);fill-opacity:1;" d="M 137.398438 276.601563 C 137.625 279.652344 137.949219 282.738281 139 285.476563 C 139.808594 287.578125 142.777344 287.925781 142.597656 286.359375 C 142.199219 282.871094 141.566406 279.34375 140.601563 276.101563 C 139.398438 275.898438 138.5 276.5 137.398438 276.601563 "/>
<path style=" stroke:none;fill-rule:nonzero;fill:rgb(0%,0%,0%);fill-opacity:1;" d="M 148 285.300781 L 148 295.101563 C 148.601563 296.398438 149.300781 298.101563 150.601563 298.699219 C 151.300781 294.199219 150.5 289.101563 149.398438 284.800781 C 148.800781 284.601563 148.5 285.101563 148 285.300781 "/>
<path style=" stroke:none;fill-rule:nonzero;fill:rgb(0%,0%,0%);fill-opacity:1;" d="M 117.300781 199.300781 C 118 199.300781 118.601563 198.699219 119.199219 198.398438 C 125.199219 190 132.5 180.699219 142.199219 177.300781 C 143.699219 176.300781 146.199219 175.699219 145.601563 173.199219 C 132.5 174.5 120.300781 186.898438 117.300781 199.300781 "/>
<path style=" stroke:none;fill-rule:nonzero;fill:rgb(0%,0%,0%);fill-opacity:1;" d="M 122.601563 154.199219 C 122.199219 155.101563 120.699219 155.800781 121.601563 156.898438 C 129.199219 156.898438 136.699219 157.300781 143 160.5 L 143.398438 160 C 139.199219 153 128.898438 153.300781 122.601563 154.199219 "/>
</g>
</svg>
