<?xml version="1.0" encoding="UTF-8"?>
<svg xmlns="http://www.w3.org/2000/svg" xmlns:xlink="http://www.w3.org/1999/xlink" width="529pt" height="519pt" viewBox="0 0 529 519" version="1.1">
<g id="surface1">
<path style=" stroke:none;fill-rule:nonzero;fill:rgb(6.886292%,6.254578%,5.79071%);fill-opacity:1;" d="M 527.824219 45.136719 C 527.824219 45.136719 488.71875 3.207031 485.894531 1.792969 C 483.066406 0.386719 480.246094 -1.035156 478.355469 0.855469 C 476.46875 2.734375 456.683594 20.644531 452.445313 29.59375 C 448.203125 38.542969 448.675781 53.613281 445.847656 63.042969 C 443.019531 72.457031 424.652344 82.355469 423.234375 83.769531 C 421.820313 85.191406 421.824219 88.949219 421.824219 88.949219 C 421.824219 88.949219 329.015625 182.230469 291.328125 218.03125 C 253.644531 253.839844 150.476563 357.472656 150.476563 357.472656 C 150.476563 357.472656 133.511719 343.335938 127.855469 339.09375 C 122.203125 334.859375 115.132813 334.394531 106.191406 340.984375 C 97.234375 347.578125 2.078125 438.039063 2.078125 438.039063 L 0.65625 446.039063 L 8.671875 443.226563 C 8.671875 443.226563 101.945313 353.230469 112.78125 347.113281 C 123.617188 340.984375 128.332031 349.464844 130.683594 352.300781 C 133.039063 355.113281 133.980469 356.0625 131.152344 359.835938 C 128.332031 363.601563 28.359375 460.730469 28.359375 460.730469 L 24.691406 468.65625 L 35.054688 464.882813 C 35.054688 464.882813 130.210938 370.191406 133.511719 367.84375 C 136.804688 365.484375 140.574219 363.601563 144.347656 365.484375 C 148.117188 367.363281 153.128906 372.722656 156.902344 377.414063 C 160.671875 382.136719 157.554688 384.328125 153.773438 388.105469 C 150.636719 391.246094 52.957031 487.03125 52.957031 487.03125 L 51.070313 495.511719 L 61.433594 490.328125 C 61.433594 490.328125 156.121094 394.695313 161.304688 389.515625 C 164.847656 385.96875 168.839844 386.214844 174.023438 391.863281 C 179.203125 397.515625 180.019531 403.78125 172.609375 413.058594 C 167.554688 419.386719 77.453125 511.53125 77.453125 511.53125 L 74.15625 518.597656 L 84.519531 516.226563 C 84.519531 516.226563 177.503906 418.535156 182.039063 414 C 185.023438 411.015625 184.386719 397.035156 182.039063 392.792969 C 179.675781 388.570313 162.71875 371.136719 162.71875 371.136719 C 162.71875 371.136719 214.546875 320.257813 254.109375 283.972656 C 293.679688 247.710938 436.898438 104.492188 436.898438 104.492188 C 436.898438 104.492188 439.726563 104.027344 442.082031 101.660156 C 444.433594 99.320313 453.859375 88.949219 459.511719 84.242188 C 465.160156 79.527344 493.902344 78.585938 499.082031 75.285156 C 504.269531 71.992188 517.933594 59.734375 523.582031 53.613281 C 529.238281 47.492188 527.824219 45.136719 527.824219 45.136719 Z M 151.410156 367.363281 C 148.589844 363.601563 150.003906 361.25 150.003906 361.25 C 150.003906 361.25 151.410156 364.078125 153.773438 366.4375 C 156.125 368.769531 160.367188 370.65625 160.367188 370.65625 C 160.367188 370.65625 154.238281 371.136719 151.410156 367.363281 Z M 160.367188 359.355469 C 158.476563 357.472656 158.476563 352.765625 158.476563 352.765625 C 158.476563 352.765625 160.367188 356.0625 162.246094 357.949219 C 164.140625 359.835938 169.789063 362.191406 169.789063 362.191406 C 169.789063 362.191406 162.246094 361.25 160.367188 359.355469 Z M 248.929688 275.03125 C 245.160156 270.789063 241.394531 268.914063 241.394531 268.914063 C 241.394531 268.914063 247.042969 269.382813 250.34375 273.152344 C 253.644531 276.914063 253.570313 282.519531 253.570313 282.519531 C 253.570313 282.519531 252.699219 279.265625 248.929688 275.03125 Z M 437.367188 100.246094 C 437.367188 100.246094 435.488281 96.011719 432.191406 93.191406 C 428.890625 90.363281 424.175781 88.949219 424.175781 88.949219 C 424.175781 88.949219 430.304688 87.527344 434.070313 92.246094 C 437.839844 96.953125 437.367188 100.246094 437.367188 100.246094 Z M 498.144531 67.75 C 488.246094 71.050781 463.316406 72.296875 461.394531 71.992188 C 455.5 71.0625 454.332031 61.628906 454.332031 61.628906 C 453.859375 54.085938 455.269531 33.828125 458.097656 29.121094 C 460.925781 24.40625 471.761719 16.40625 471.761719 16.40625 L 512.746094 55.5 C 512.746094 55.5 508.039063 64.449219 498.144531 67.75 Z M 509.445313 63.507813 L 515.105469 55.027344 L 511.339844 53.140625 L 473.644531 16.871094 L 474.117188 12.164063 L 460.925781 20.164063 L 476.9375 6.980469 L 476.003906 14.984375 L 513.21875 51.257813 L 519.8125 53.140625 L 509.445313 63.507813 "/>
</g>
</svg>
