<?xml version="1.0" encoding="UTF-8"?>
<svg xmlns="http://www.w3.org/2000/svg" xmlns:xlink="http://www.w3.org/1999/xlink" width="470pt" height="487pt" viewBox="0 0 470 487" version="1.1">
<g id="surface1">
<path style=" stroke:none;fill-rule:nonzero;fill:rgb(0%,0%,0%);fill-opacity:1;" d="M 454.203125 129.074219 C 454.203125 129.074219 131.058594 8.117188 114.003906 2.085938 C 96.949219 -3.949219 89.3125 7.84375 87.003906 16.574219 L 77.128906 55.960938 C 67.679688 52.003906 48.074219 48.527344 38.222656 55.902344 C 23.074219 67.675781 2.042969 80.742188 1.234375 101.714844 L 1.054688 338.863281 C 0.71875 349.523438 8.425781 359.835938 18.785156 363.703125 L 344.046875 484.664063 C 351.5 487 361.324219 487.363281 369.066406 484.84375 C 378.785156 482.054688 386.835938 475.332031 390.484375 463.695313 L 468.664063 154.785156 C 470.976563 143.210938 466.859375 134.039063 454.203125 129.074219 Z M 450.066406 154.992188 L 393.453125 378.824219 L 372.933594 458.472656 C 371.136719 463.601563 366.4375 467.175781 360.695313 468.015625 C 355.050781 468.835938 349.175781 467.113281 344.046875 465.222656 L 24.996094 346.425781 C 20.773438 344.425781 19.074219 340.574219 18.964844 335.625 L 19.59375 102.074219 C 20.144531 90.648438 39.035156 80.742188 49.023438 70.753906 C 53.707031 67.222656 60.011719 68.800781 65.585938 71.472656 L 165.664063 109.003906 C 171.277344 111.371094 175.105469 115.875 178.804688 122.414063 L 204.726563 164.535156 C 208.414063 169.214844 213.273438 172.8125 218.136719 175.515625 L 357.183594 227.355469 C 360.695313 229.695313 362.945313 233.203125 363.214844 237.074219 L 363.484375 380.085938 L 369.964844 381.164063 L 421.355469 165.792969 C 421.671875 164.164063 420.003906 162.734375 418.566406 162.375 C 417.070313 162.089844 415.085938 162.539063 414.695313 164.355469 L 370.414063 350.113281 L 370.144531 235.183594 C 369.539063 228.324219 364.566406 222.402344 358.085938 220.0625 L 220.925781 169.035156 C 216.335938 166.785156 211.925781 162.824219 208.773438 158.503906 L 180.695313 112.695313 C 177.132813 106.863281 173.304688 104.613281 166.925781 101.894531 L 91.324219 73.632813 C 95.195313 56.804688 99.785156 39.792969 104.105469 22.875 C 104.609375 21.050781 107.085938 19.472656 110.464844 20.375 L 446.015625 145.542969 C 449.632813 147.027344 450.785156 151.304688 450.066406 154.992188 "/>
</g>
</svg>
