<?xml version="1.0" encoding="UTF-8"?>
<svg xmlns="http://www.w3.org/2000/svg" xmlns:xlink="http://www.w3.org/1999/xlink" width="542pt" height="240pt" viewBox="0 0 542 240" version="1.1">
<g id="surface1">
<path style=" stroke:none;fill-rule:nonzero;fill:rgb(6.886292%,6.254578%,5.79071%);fill-opacity:1;" d="M 540.449219 95.054688 L 537.457031 95.054688 L 535.476563 87.097656 C 535.476563 87.097656 527.011719 98.546875 512.570313 102.027344 C 498.144531 105.515625 479.730469 100.539063 479.730469 100.539063 C 479.730469 100.539063 472.753906 94.0625 462.300781 91.582031 C 451.851563 89.085938 439.414063 91.082031 439.414063 91.082031 C 439.414063 91.082031 439.414063 86.109375 434.433594 86.109375 C 429.453125 86.109375 380.179688 73.152344 302.53125 56.730469 C 224.886719 40.3125 139.273438 25.871094 108.421875 20.40625 C 77.5625 14.933594 35.757813 3.980469 17.34375 0.496094 C -1.074219 -2.988281 -3.558594 15.925781 7.878906 19.410156 C 19.339844 22.894531 52.675781 29.855469 98.964844 36.828125 C 145.261719 43.789063 189.546875 61.214844 233.851563 68.683594 C 278.152344 76.160156 432.9375 108.492188 432.9375 108.492188 C 432.9375 108.492188 436.914063 104.011719 440.898438 106.011719 C 444.890625 107.996094 443.890625 120.445313 443.890625 120.445313 L 436.914063 121.933594 C 436.914063 121.933594 433.4375 118.441406 427.964844 119.945313 C 422.480469 121.4375 360.765625 138.859375 318.96875 146.828125 C 277.152344 154.78125 146.257813 189.132813 122.363281 195.59375 C 98.472656 202.074219 34.761719 212.523438 16.851563 218.488281 C -1.074219 224.460938 6.886719 241.898438 16.851563 239.894531 C 26.800781 237.914063 53.175781 229.449219 100.96875 216.007813 C 148.738281 202.574219 280.632813 178.183594 311.988281 170.21875 C 343.359375 162.25 367.367188 152.4375 395.113281 147.820313 C 398.101563 147.328125 429.957031 142.34375 434.433594 140.347656 C 438.910156 138.359375 437.917969 136.878906 437.917969 136.878906 C 437.917969 136.878906 446.378906 137.867188 453.347656 137.371094 C 460.316406 136.878906 469.78125 132.394531 469.78125 132.394531 C 469.78125 132.394531 492.660156 150.3125 519.546875 139.359375 C 546.421875 128.410156 540.449219 95.054688 540.449219 95.054688 Z M 320.457031 71.660156 C 320.457031 71.660156 319.957031 72.652344 318.46875 76.652344 C 316.964844 80.621094 312.980469 82.621094 312.980469 82.621094 C 312.980469 82.621094 315.476563 80.144531 317.464844 73.152344 C 319.464844 66.1875 319.464844 61.714844 319.464844 61.714844 L 320.457031 69.183594 L 417.5 93.070313 Z M 438.566406 98.585938 C 437.714844 100.902344 435.328125 103.621094 435.328125 103.621094 C 435.328125 103.621094 437.714844 99.246094 438.171875 96.992188 C 438.644531 94.738281 438.902344 93.472656 438.902344 93.472656 C 438.902344 93.472656 439.441406 96.253906 438.566406 98.585938 Z M 321.445313 154.78125 C 321.445313 154.78125 321.953125 156.285156 321.953125 157.773438 C 321.953125 159.257813 321.445313 166.730469 321.445313 166.730469 C 321.445313 166.730469 321.332031 163.640625 319.464844 157.277344 C 317.976563 152.203125 315.476563 148.808594 315.476563 148.808594 L 319.957031 153.292969 L 430.449219 126.921875 Z M 438.378906 134.636719 C 438.378906 134.636719 439.113281 131.269531 438.773438 129.417969 C 438.445313 127.535156 436.914063 123.976563 436.914063 123.976563 C 436.914063 123.976563 438.902344 127.011719 439.375 129.285156 C 439.839844 131.519531 438.378906 134.636719 438.378906 134.636719 Z M 443.550781 97.921875 C 443.550781 97.921875 447.199219 97.59375 447.65625 97.457031 C 448.136719 97.320313 447.921875 94.9375 447.53125 93.746094 C 447.128906 92.558594 445.203125 92.695313 445.203125 92.695313 C 445.203125 92.695313 446.535156 92.359375 447.199219 92.558594 C 447.859375 92.757813 448.828125 94.535156 448.558594 96.191406 C 448.296875 97.859375 449.636719 97.921875 450.308594 100.054688 C 450.992188 102.234375 449.980469 105.007813 449.980469 105.007813 C 449.980469 105.007813 450.117188 101.699219 449.851563 100.511719 C 449.582031 99.324219 448.1875 97.847656 448.1875 97.847656 Z M 450.363281 120.941406 C 448.863281 121.933594 449.363281 118.441406 449.363281 115.960938 C 449.363281 113.46875 449.871094 107.503906 449.871094 107.503906 C 451.351563 104.511719 456.335938 108.992188 456.335938 114.460938 C 456.335938 119.945313 451.851563 119.945313 450.363281 120.941406 Z M 462.703125 102.828125 C 459.8125 106.578125 458.136719 113.503906 458.136719 113.503906 C 458.136719 113.503906 458.261719 103.355469 462.703125 101.175781 C 467.152344 98.996094 475.164063 100.179688 475.164063 100.179688 C 475.164063 100.179688 464.9375 99.933594 462.703125 102.828125 Z M 531.65625 118.789063 C 526.550781 125.882813 513.355469 134.171875 499.644531 135.113281 C 485.914063 136.03125 480.878906 130.941406 480.878906 130.941406 C 480.878906 130.941406 479.742188 132.261719 477.167969 132.648438 C 474.578125 133.058594 471.929688 132.726563 471.929688 132.726563 C 471.929688 132.726563 475.140625 132.496094 478.160156 131.269531 C 482.96875 129.3125 489.632813 118.929688 493.207031 117.464844 C 496.785156 116.023438 496.726563 117.675781 502.8125 117.074219 C 508.914063 116.476563 512.105469 113.769531 515.085938 111.828125 C 518.066406 109.921875 520.183594 103.410156 520.183594 103.410156 C 520.183594 103.410156 519.328125 108.070313 517.136719 111.171875 C 514.957031 114.296875 509.714844 117.074219 504.410156 118.011719 C 499.109375 118.929688 495.917969 117.074219 492.214844 119.664063 C 488.503906 122.246094 482.996094 129.941406 482.996094 129.941406 C 482.996094 129.941406 491.75 134.246094 501.09375 133.777344 C 510.453125 133.3125 523.769531 126.15625 529.804688 119.46875 C 535.832031 112.777344 538.679688 103.15625 538.679688 103.15625 C 538.679688 103.15625 536.769531 111.710938 531.65625 118.789063 "/>
</g>
</svg>
