<?xml version="1.0" encoding="UTF-8"?>
<svg xmlns="http://www.w3.org/2000/svg" xmlns:xlink="http://www.w3.org/1999/xlink" width="280pt" height="684pt" viewBox="0 0 280 684" version="1.1">
<g id="surface1">
<path style=" stroke:none;fill-rule:nonzero;fill:rgb(0%,0%,0%);fill-opacity:1;" d="M 276.453125 377.160156 L 277.78125 359.398438 C 277.78125 359.398438 279.109375 336.691406 278.257813 330.898438 C 280.0625 317.882813 272.082031 310.660156 274.835938 297.363281 C 273.507813 292.230469 268.660156 289.285156 265.90625 285.105469 C 253.84375 273.804688 255.078125 254.328125 249.09375 239.507813 C 246.335938 232.003906 245.386719 223.546875 241.96875 216.421875 C 240.730469 212.054688 239.210938 207.398438 237.21875 203.503906 C 236.644531 201.410156 235.695313 199.511719 234.9375 197.519531 C 225.910156 180.417969 214.328125 164.140625 203.207031 148.308594 C 197.105469 139.621094 203.828125 121.972656 211.1875 118.855469 C 220.554688 114.894531 228.285156 106.222656 229.234375 94.726563 C 229.234375 94.726563 229.804688 85.226563 229.046875 81.238281 C 228.097656 71.738281 227.429688 61.382813 220.117188 56.15625 C 205.484375 51.503906 171.761719 41.90625 170.90625 41.148438 C 162.355469 38.488281 155.136719 33.074219 149.4375 26.136719 C 145.160156 24.429688 140.980469 22.8125 136.039063 22.242188 C 136.609375 20.722656 138.511719 18.753906 138.511719 16.257813 C 138.890625 13.882813 138.132813 11.980469 136.421875 10.84375 C 130.816406 11.222656 126.445313 13.121094 122.550781 16.257813 C 122.359375 15.496094 120.839844 16.066406 120.9375 14.929688 C 119.511719 13.691406 117.800781 12.171875 116.851563 10.558594 C 116.28125 8.753906 117.039063 6.1875 116.1875 4.667969 C 115.519531 2.480469 113.621094 1.628906 112.101563 0.105469 C 110.960938 -0.273438 93.859375 5.332031 92.246094 5.996094 C 76.761719 9.324219 67.832031 24.046875 60.328125 36.113281 C 55.671875 40.671875 58.140625 48.652344 60.039063 53.6875 C 61.65625 57.011719 62.414063 60.621094 63.9375 63.949219 C 66.214844 64.707031 68.78125 65.085938 70.300781 66.894531 C 72.011719 71.738281 72.011719 77.910156 76.476563 81.046875 C 77.234375 82.566406 78.757813 82.851563 78.757813 84.941406 C 52.535156 126.363281 27.457031 168.730469 1.519531 210.34375 C -0.1875 214.332031 1.617188 218.703125 1.710938 222.882813 C 3.230469 232.097656 6.9375 239.507813 13.585938 245.683594 C 15.203125 246.441406 15.867188 245.96875 17.007813 246.0625 C 22.609375 244.636719 27.929688 241.503906 31.351563 237.226563 C 30.402344 234.28125 28.3125 231.621094 26.601563 229.246094 C 20.902344 222.597656 15.960938 216.230469 10.164063 209.582031 C 34.296875 170.0625 58.519531 131.113281 82.652344 91.496094 C 84.457031 91.59375 86.355469 91.402344 87.6875 90.832031 C 88.445313 91.023438 89.964844 90.453125 89.964844 91.496094 C 90.347656 94.917969 92.246094 97.769531 91.582031 101.566406 C 87.304688 104.417969 82.839844 107.171875 79.230469 110.878906 C 75.90625 115.910156 74.765625 125.410156 77.617188 131.207031 C 83.316406 149.921875 86.925781 169.683594 95.664063 186.402344 C 95.476563 187.351563 97.1875 187.257813 96.519531 188.398438 C 107.066406 207.585938 118.65625 225.828125 133.285156 242.453125 C 137.277344 247.867188 142.597656 252.144531 146.300781 257.746094 C 143.261719 270.855469 138.605469 283.207031 136.421875 296.980469 C 136.136719 298.121094 136.230469 300.023438 135.566406 301.066406 C 134.902344 306.671875 134.140625 312.277344 133.476563 317.882813 C 132.335938 336.503906 137.371094 352.179688 136.421875 370.605469 C 136.328125 373.359375 133.476563 374.785156 131.480469 376.023438 C 128.535156 378.871094 130.054688 385.429688 131.007813 388.847656 C 131.386719 394.734375 137.753906 397.109375 135.089844 404.144531 L 134.902344 404.144531 C 134.804688 408.320313 134.046875 411.648438 133.761719 415.730469 C 133.761719 415.730469 133.953125 426.941406 140.128906 426.941406 C 140.886719 428.367188 139.746094 429.695313 139.460938 430.742188 C 137.5625 434.730469 134.046875 437.582031 132.144531 441.285156 C 130.53125 445.5625 129.675781 456.582031 130.054688 457.246094 C 130.054688 457.246094 129.867188 458.957031 129.867188 460.003906 C 120.839844 468.359375 106.78125 490.308594 106.117188 491.160156 C 104.691406 495.4375 102.601563 498.761719 100.890625 502.847656 C 100.414063 503.035156 96.425781 511.777344 94.714844 515.769531 L 94.527344 515.769531 C 94.527344 515.769531 85.882813 535.335938 80.847656 544.269531 C 76.761719 555.953125 63.175781 557.660156 54.816406 564.785156 C 49.304688 569.535156 40.089844 571.246094 38.382813 579.417969 C 38.285156 580.367188 38.476563 581.601563 37.714844 582.171875 C 37.714844 587.019531 36.957031 590.910156 36.578125 595.566406 L 36.386719 597.183594 C 36.578125 599.082031 38.382813 599.273438 39.519531 600.601563 C 37.429688 607.347656 36.289063 614.757813 35.246094 622.261719 C 34.867188 623.496094 34.960938 625.398438 34.296875 626.347656 L 33.820313 631.191406 L 33.15625 638.03125 L 33.15625 650.285156 C 35.152344 665.394531 44.367188 679.074219 58.234375 683.632813 C 58.710938 684.109375 66.5 684.296875 66.5 684.296875 C 69.730469 683.726563 70.300781 680.117188 71.441406 677.648438 C 72.011719 677.171875 72.296875 670.617188 72.867188 668.527344 C 72.675781 666.628906 73.246094 664.15625 72.390625 662.636719 C 72.390625 660.832031 72.105469 658.550781 74.195313 658.550781 C 75.335938 656.273438 76.761719 654.941406 76.476563 651.902344 C 78.566406 643.351563 76.191406 631.191406 84.742188 627.105469 C 86.640625 625.207031 90.15625 625.300781 91.296875 622.925781 C 90.15625 620.550781 90.535156 616.46875 91.582031 614.09375 C 110.296875 596.992188 128.347656 578.941406 144.019531 559.371094 C 158.9375 539.042969 172.234375 517.570313 185.726563 496.480469 C 194.753906 483.753906 197.980469 467.601563 203.207031 452.6875 C 203.871094 451.167969 203.777344 449.269531 205.105469 448.316406 C 208.429688 456.582031 207.289063 467.507813 206.910156 477.292969 C 206.910156 477.292969 206.628906 478.8125 206.628906 480.902344 C 205.484375 493.917969 208.050781 504.460938 212.136719 514.246094 C 210.046875 517.476563 208.242188 521.183594 207.386719 525.171875 C 207.007813 541.132813 209.664063 556.523438 210.332031 572.386719 C 210.710938 578.085938 211.472656 583.121094 211.472656 589.011719 C 212.609375 601.171875 207.195313 609.722656 204.632813 619.507813 C 203.300781 625.492188 205.582031 630.050781 208.527344 633.660156 C 206.246094 637.460938 202.066406 640.121094 199.121094 643.449219 C 196.554688 647.628906 190.285156 646.582031 186.199219 648.007813 C 178.886719 648.007813 175.65625 653.609375 172.519531 658.550781 C 172.332031 659.882813 171.570313 662.160156 173.1875 662.828125 C 180.882813 667.199219 190.191406 669.097656 199.121094 671.757813 C 200.070313 672.042969 201.78125 672.042969 202.539063 672.707031 C 205.296875 672.609375 207.480469 672.898438 209.855469 672.421875 C 223.15625 669.476563 235.695313 665.773438 248.617188 662.449219 C 250.328125 661.210938 252.226563 659.882813 252.703125 657.886719 C 253.269531 657.507813 256.027344 641.734375 258.878906 635.277344 C 259.445313 634.992188 259.539063 629.386719 259.539063 629.386719 C 258.878906 625.492188 258.117188 621.785156 258.402344 617.226563 C 258.6875 615.707031 260.015625 615.136719 261.347656 614.757813 C 262.769531 612.667969 263.4375 610.101563 263.4375 606.96875 C 263.4375 606.96875 265.144531 596.042969 264.765625 591.292969 C 264.765625 591.292969 270.46875 514.691406 270.46875 512.820313 L 270.46875 508.070313 C 270.085938 507.121094 268.566406 507.976563 267.804688 507.40625 C 267.902344 502.5625 272.179688 500.378906 273.222656 496.195313 C 277.402344 487.359375 268.566406 482.898438 270.277344 474.347656 C 272.746094 465.796875 274.742188 456.679688 276.640625 447.652344 C 277.210938 446.894531 277.59375 440.8125 277.59375 440.8125 C 278.160156 437.582031 279.109375 434.542969 279.394531 431.21875 C 280.15625 412.882813 276.453125 394.355469 276.453125 377.160156 Z M 244.246094 261.644531 C 245.480469 260.691406 246.242188 259.269531 246.8125 257.9375 C 246.8125 257.9375 246.652344 265.789063 237.691406 268.007813 C 238.734375 270.476563 240.257813 271.996094 239.972656 275.324219 C 239.972656 278.171875 239.210938 280.261719 238.832031 282.828125 C 237.976563 277.980469 238.832031 271.144531 233.984375 268.671875 L 222.207031 268.199219 C 215.082031 267.816406 167.390625 264.113281 164.730469 264.304688 C 164.160156 265.253906 165.777344 265.441406 165.871094 266.203125 L 165.679688 274.5625 L 165.207031 282.351563 C 159.601563 280.261719 154.09375 278.269531 148.582031 276.179688 C 153.234375 277.792969 158.367188 278.457031 163.402344 279.882813 C 164.539063 274.5625 164.351563 268.007813 161.785156 263.636719 C 158.84375 262.308594 154.945313 261.832031 152.003906 260.691406 L 185.0625 263.636719 L 210.996094 265.726563 C 221.257813 265.0625 236.265625 269.8125 244.246094 261.644531 Z M 232.179688 238.558594 C 226.957031 219.558594 222.015625 200.273438 215.367188 182.03125 C 214.710938 179.273438 230.917969 223.113281 232.179688 238.558594 Z M 211.945313 173.578125 C 213.105469 175.644531 213.617188 178.429688 214.605469 180.621094 C 211.546875 174.515625 206.902344 168.796875 201.210938 164.457031 C 197.316406 159.230469 191.804688 155.335938 187.722656 150.113281 C 185.347656 153.058594 183.351563 156.476563 180.027344 158.566406 C 174.371094 162.921875 169.074219 167.359375 162.738281 170.570313 C 162.539063 170.695313 162.367188 170.792969 162.261719 170.824219 C 162.421875 170.742188 162.578125 170.652344 162.738281 170.570313 C 163.785156 169.917969 165.921875 168.140625 167.199219 167.023438 C 179.074219 158.660156 196.84375 134.722656 197.316406 134.816406 C 194.753906 139.09375 192.378906 143.179688 189.8125 147.644531 C 197.789063 156.003906 204.914063 164.554688 211.945313 173.578125 Z M 196.175781 86.273438 C 197.886719 89.3125 198.742188 92.542969 200.261719 95.582031 C 202.257813 102.230469 203.777344 109.453125 205.105469 116.578125 C 203.492188 108.976563 201.210938 100.046875 198.265625 92.449219 C 193.574219 80.617188 181.640625 80.382813 180.691406 80.382813 C 186.960938 78.769531 192.851563 81.429688 196.175781 86.273438 Z M 172.234375 73.730469 C 174.515625 75.15625 176.226563 77.53125 176.132813 80.574219 C 174.707031 84.085938 166.820313 85.796875 166.820313 85.796875 C 167.960938 81.332031 170.8125 77.910156 172.234375 73.730469 Z M 138.320313 96.722656 C 139.460938 95.488281 139.84375 93.113281 139.652344 90.832031 L 139.84375 90.832031 C 140.695313 86.558594 141.074219 57.773438 140.316406 49.128906 C 150.386719 55.207031 164.257813 57.960938 169.957031 68.980469 C 163.019531 59.863281 151.144531 58.246094 142.40625 51.882813 C 142.121094 52.546875 141.835938 53.972656 142.597656 54.351563 L 142.40625 54.351563 C 143.355469 63.949219 144.304688 74.207031 144.210938 84.941406 C 143.546875 89.503906 143.164063 94.441406 139.460938 97.007813 C 134.425781 99.953125 119.605469 98.621094 119.605469 98.621094 C 116.1875 98.242188 107.921875 96.816406 106.78125 96.722656 C 106.78125 96.722656 132.429688 98.433594 138.320313 96.722656 Z M 123.691406 108.121094 C 119.890625 108.597656 115.519531 108.597656 111.816406 107.933594 C 106.878906 108.3125 103.457031 106.316406 98.421875 106.980469 C 98.355469 106.722656 98.1875 106.613281 97.972656 106.570313 C 97.6875 106.574219 97.40625 106.582031 97.128906 106.589844 C 96.914063 106.613281 96.703125 106.628906 96.519531 106.601563 C 96.714844 106.597656 96.929688 106.59375 97.128906 106.589844 C 97.429688 106.558594 97.730469 106.519531 97.972656 106.570313 C 103.578125 106.464844 110.609375 106.742188 116.378906 107.269531 C 121.222656 106.792969 126.066406 106.410156 130.53125 104.988281 C 141.929688 101.757813 153.140625 97.292969 162.640625 90.832031 C 152.285156 100.902344 138.320313 104.988281 123.691406 108.121094 Z M 84.457031 617.984375 C 78.28125 616.277344 73.152344 613.234375 67.164063 611.148438 C 57.097656 605.921875 47.121094 598.035156 44.839844 585.78125 C 44.269531 583.121094 43.605469 580.558594 43.226563 577.804688 C 44.082031 577.898438 66.5 611.621094 84.457031 617.703125 Z M 97.472656 580.082031 C 91.628906 585.921875 82.746094 584.355469 81.984375 583.785156 C 77.710938 581.601563 72.769531 580.84375 69.445313 577.136719 C 70.015625 577.136719 83.886719 583.09375 93.101563 578.277344 C 103.757813 572.710938 114.382813 567.066406 123.691406 559.5625 C 115.617188 567.066406 105.375 572.179688 97.472656 580.082031 Z M 136.039063 549.777344 C 132.621094 552.53125 129.296875 555.285156 125.972656 557.945313 C 136.800781 548.542969 147.726563 538.945313 158.554688 529.445313 C 151.050781 536.285156 143.546875 543.410156 136.039063 549.777344 Z M 184.585938 451.070313 C 175.753906 462.472656 164.257813 470.734375 153.519531 480.046875 C 152.492188 481.238281 151.15625 482.089844 149.863281 482.988281 C 148.960938 483.753906 148.058594 484.515625 147.15625 485.273438 C 147.933594 484.375 148.886719 483.667969 149.863281 482.988281 C 160.730469 473.816406 171.480469 464.300781 180.691406 453.160156 C 185.632813 445.46875 190.191406 437.867188 194.179688 429.601563 C 195.320313 426.65625 196.9375 424.09375 197.789063 420.769531 C 203.96875 407.085938 212.324219 376.972656 212.324219 376.972656 C 213.277344 369.753906 216.886719 307.90625 216.886719 307.90625 C 217.742188 321.683594 215.554688 372.410156 215.554688 372.410156 L 214.890625 378.109375 C 209.570313 405.378906 198.742188 429.222656 184.585938 451.070313 Z M 208.90625 433.496094 C 208.144531 435.683594 207.765625 438.246094 206.628906 440.148438 C 212.039063 419.628906 219.734375 398.535156 223.726563 376.023438 C 227.71875 360.347656 237.027344 347.710938 244.722656 334.316406 C 236.929688 349.898438 224.484375 382.859375 224.484375 382.859375 C 220.878906 400.816406 214.796875 416.871094 208.90625 433.496094 Z M 247.53125 644.53125 C 244.785156 641.15625 241.550781 637.46875 239.972656 633.1875 C 234.554688 627.105469 226.765625 624.351563 217.644531 625.019531 C 217.199219 625.53125 216.238281 625.53125 215.480469 625.761719 C 214.9375 626.113281 214.605469 626.347656 214.605469 626.347656 C 214.789063 626.039063 215.113281 625.875 215.480469 625.761719 C 217.226563 624.644531 221.234375 622.328125 224.199219 622.546875 C 232.878906 624.574219 241.492188 629.859375 243.390625 637.746094 C 244.9375 639.96875 246.0625 642.328125 247.53125 644.53125 C 248.257813 645.421875 248.949219 646.296875 249.566406 647.152344 C 248.789063 646.320313 248.132813 645.4375 247.53125 644.53125 Z M 237.21875 612.476563 C 237.3125 612.285156 232.5625 612.667969 230.378906 612.953125 C 219.734375 612.667969 212.800781 619.792969 208.242188 627.484375 C 210.867188 611.433594 230.378906 610.199219 230.378906 610.199219 C 230.378906 610.199219 251.402344 609.214844 254.789063 622.546875 C 248.601563 618.640625 244.910156 612.761719 237.21875 612.476563 Z M 226.007813 600.410156 C 222.871094 603.261719 219.546875 605.730469 216.222656 608.394531 C 232.753906 592.433594 246.527344 573.054688 257.734375 553.195313 C 259.066406 551.105469 260.585938 549.207031 261.632813 547.023438 C 252.132813 566.210938 244.4375 586.921875 226.007813 600.410156 "/>
</g>
</svg>
