<?xml version="1.0" encoding="UTF-8"?>
<svg xmlns="http://www.w3.org/2000/svg" xmlns:xlink="http://www.w3.org/1999/xlink" width="499pt" height="632pt" viewBox="0 0 499 632" version="1.1">
<g id="surface1">
<path style=" stroke:none;fill-rule:nonzero;fill:rgb(0%,0%,0%);fill-opacity:1;" d="M 497.300781 517.792969 C 493.023438 500.691406 494.351563 481.3125 485.042969 466.304688 C 481.527344 463.644531 477.726563 462.027344 473.167969 462.121094 C 461.675781 463.832031 453.3125 473.046875 442.195313 475.421875 C 426.902344 465.351563 413.792969 449.964844 399.257813 437.992188 C 384.910156 425.640625 367.054688 421.558594 350.996094 413.386719 C 339.121094 396.003906 331.617188 376.8125 322.6875 358.191406 C 342.066406 331.308594 366.101563 301.285156 351.851563 265.660156 C 345.011719 239.15625 321.738281 216.164063 331.332031 186.242188 C 334.5625 160.6875 352.707031 141.304688 362.398438 118.316406 C 373.605469 97.226563 398.117188 98.652344 413.886719 83.640625 C 426.523438 74.425781 444.285156 76.515625 453.976563 61.316406 C 459.582031 52.007813 466.042969 43.074219 467.65625 32.152344 C 469.179688 24.644531 477.535156 17.046875 471.839844 9.351563 C 469.367188 6.691406 465.949219 5.074219 462.71875 5.742188 C 465.226563 -2.5 460.4375 -0.242188 460.4375 -0.242188 C 452.171875 5.550781 444.003906 14.574219 439.441406 23.507813 C 435.644531 31.867188 439.820313 44.214844 429.371094 49.0625 L 390.613281 59.035156 C 369.839844 67.039063 348.863281 74.003906 328.195313 81.835938 C 316.511719 88.582031 303.59375 93.902344 289.816406 94.1875 C 292.097656 86.492188 293.617188 76.328125 290.292969 68.632813 C 283.5 55.550781 267.398438 48.152344 253.339844 46.78125 C 239.5625 47.195313 222.140625 48.414063 215.054688 60.460938 C 207.738281 78.605469 200.992188 98.175781 203.179688 119.265625 C 181.421875 122.6875 167.457031 142.828125 150.832031 157.550781 C 125.941406 173.132813 119.484375 200.394531 103.808594 221.867188 C 98.773438 244.382813 77.402344 261.734375 68.753906 281.144531 L 34.078125 358.191406 C 29.992188 365.695313 22.582031 371.871094 18.972656 379.660156 C 21.347656 392.484375 5.863281 392.390625 1.207031 401.984375 C 1.777344 418.421875 4.53125 434.953125 11.277344 449.394531 C 15.078125 451.480469 17.546875 447.589844 20.871094 447.109375 C 32.746094 462.597656 34.550781 482.167969 36.359375 501.832031 C 37.6875 532.042969 9.378906 552.941406 20.398438 584.386719 C 30.46875 605.574219 51.558594 628.085938 76.449219 629.039063 C 96.589844 628.65625 116.15625 621.910156 126.609375 603.007813 C 137.914063 583.816406 136.964844 554.9375 125.753906 536.03125 C 112.359375 503.921875 73.597656 515.796875 56.402344 487.203125 C 46.617188 471.054688 36.832031 454.902344 33.128906 436.1875 C 35.3125 431.722656 36.738281 439.511719 39.96875 437.519531 C 42.058594 435.714844 43.292969 433.527344 44.050781 431.152344 C 42.816406 404.742188 55.644531 384.128906 66.472656 362.753906 C 88.417969 336.246094 98.675781 304.421875 125.277344 280.195313 C 136.203125 269.554688 153.871094 267.277344 159.476563 251.507813 L 179.523438 241.4375 C 183.324219 251.222656 179.808594 263.664063 181.804688 273.832031 C 192.0625 283.046875 198.523438 294.636719 201.847656 307.082031 C 205.933594 317.4375 197.859375 335.484375 213.722656 338.144531 C 227.6875 344.320313 220.5625 362.371094 223.699219 374.628906 C 227.972656 383.652344 234.8125 391.632813 242.414063 399.230469 L 269.773438 491.761719 L 277.5625 522.351563 C 283.738281 554.652344 263.21875 578.214844 252.957031 604.90625 C 250.488281 612.128906 249.15625 621.816406 255.617188 627.707031 C 266.066406 631.984375 275.808594 634.855469 286.542969 627.539063 C 297.945313 601.429688 326.964844 581.726563 320.40625 549.234375 C 305.019531 522.828125 320.503906 493.851563 319.457031 464.878906 C 345.964844 466.777344 366.957031 481.691406 391.089844 489.101563 C 405.054688 498.601563 430.511719 504.589844 429.371094 526.4375 C 428.042969 539.453125 440.582031 527.769531 445.332031 534.605469 C 459.964844 550.378906 465.660156 570.609375 480.957031 585.242188 C 484.566406 586.574219 488.082031 583.910156 490.078125 580.679688 C 500.621094 563.105469 498.34375 539.074219 497.300781 517.792969 Z M 382.441406 87.347656 C 382.347656 90.007813 382.726563 91.335938 381.96875 93.710938 C 380.828125 86.300781 370.660156 80.507813 364.203125 75.945313 C 371.230469 77.371094 379.6875 79.269531 382.441406 87.347656 Z M 56.878906 499.078125 L 69.609375 508.671875 C 60.109375 510.191406 48.992188 510.382813 42.722656 517.316406 C 45.761719 507.4375 39.96875 485.394531 39.96875 485.394531 C 48.519531 484.730469 50.796875 494.707031 56.878906 499.078125 Z M 84.238281 515.511719 C 98.203125 518.742188 111.503906 527.480469 119.769531 540.59375 C 129.742188 557.40625 132.214844 579.066406 122.996094 597.117188 C 113.6875 615.546875 94.972656 624.953125 74.644531 623.527344 C 54.503906 622.292969 36.074219 605.476563 29.042969 587.046875 C 21.632813 568.996094 25.90625 546.578125 37.6875 531.945313 C 49.847656 518.269531 66.378906 512.660156 84.238281 515.511719 Z M 91.550781 266.515625 C 96.96875 274.589844 105.328125 279.4375 112.453125 285.230469 C 105.042969 283.332031 92.882813 276.683594 91.550781 266.515625 Z M 221.417969 176.265625 C 204.03125 165.910156 205.648438 144.820313 205.933594 127.4375 C 208.496094 143.871094 206.121094 164.582031 224.171875 172.179688 C 242.128906 173.511719 247.351563 155.9375 260.652344 146.152344 C 255.617188 153.464844 254.191406 163.441406 245.644531 168.003906 L 265.214844 169.425781 C 268.347656 171.609375 268.535156 175.789063 270.246094 179.019531 C 285.445313 166.007813 278.796875 143.109375 282.976563 125.15625 L 288.011719 102.832031 C 289.53125 112.234375 284.308594 120.121094 283.929688 129.242188 C 283.832031 141.589844 288.582031 156.507813 281.648438 167.144531 C 278.320313 174.367188 273.953125 181.207031 269.773438 188.140625 C 267.019531 182.0625 260.9375 175.507813 254.289063 173.035156 C 247.066406 170.472656 237.851563 171.328125 232.4375 177.121094 C 229.019531 178.925781 224.554688 177.976563 221.417969 176.265625 Z M 276.136719 316.203125 C 261.695313 338.054688 252.480469 362.183594 242.886719 386.027344 C 248.492188 365.128906 254.570313 341.28125 266.160156 322.1875 C 258.371094 326.558594 255.996094 337.195313 246.972656 339.476563 C 238.992188 339.382813 231.867188 342.328125 226.929688 348.597656 C 231.296875 340.046875 239.941406 336.152344 249.253906 336.722656 C 253.148438 334.15625 254.289063 329.597656 257.519531 326.269531 L 270.722656 315.820313 C 278.988281 294.730469 301.121094 284.945313 319.457031 275.636719 C 308.246094 289.03125 292.097656 293.6875 281.171875 308.03125 C 300.554688 304.230469 325.0625 306.605469 335.894531 325.320313 L 336.84375 329.027344 C 332.28125 316.390625 314.328125 311.261719 299.410156 311.261719 C 291.242188 311.734375 283.453125 313.445313 276.136719 316.203125 Z M 298.9375 519.121094 C 292.003906 520.070313 283.453125 520.261719 279.84375 513.707031 L 279.84375 510.476563 C 283.070313 513.328125 287.0625 514.371094 291.242188 515.035156 C 299.222656 513.992188 305.589844 508.386719 310.8125 501.832031 C 309.957031 507.910156 306.441406 516.367188 298.9375 519.121094 Z M 300.363281 407.878906 C 301.882813 422.410156 320.882813 429.820313 318.128906 446.160156 L 318.601563 457.183594 C 313.09375 443.21875 311.003906 425.734375 294.851563 416.996094 C 288.394531 396.761719 305.492188 381.753906 319.457031 367.785156 C 312.144531 380.707031 303.78125 393.34375 300.363281 407.878906 Z M 418.921875 479.980469 C 416.355469 484.636719 412.273438 490.242188 407.046875 492.234375 C 412.367188 483.402344 417.78125 472.003906 416.167969 459.84375 C 418.445313 466.019531 421.394531 472.953125 418.921875 479.980469 "/>
</g>
</svg>
