<?xml version="1.0" encoding="UTF-8"?>
<svg xmlns="http://www.w3.org/2000/svg" xmlns:xlink="http://www.w3.org/1999/xlink" width="495pt" height="672pt" viewBox="0 0 495 672" version="1.1">
<g id="surface1">
<path style=" stroke:none;fill-rule:nonzero;fill:rgb(0%,0%,0%);fill-opacity:1;" d="M 162.867188 73.714844 C 168.765625 74.816406 173.265625 72.214844 177.664063 70.414063 C 187.765625 65.117188 200.964844 59.914063 203.367188 47.117188 C 203.964844 45.152344 204.566406 37.015625 204.566406 37.015625 L 204.566406 32.414063 C 203.265625 10.050781 190.714844 1.015625 189.265625 0.117188 C 187.636719 -0.613281 175.785156 3.296875 172.164063 4.914063 C 162.980469 9.027344 153.664063 16.015625 150.066406 26.015625 C 149.214844 28.726563 140.644531 53.132813 162.867188 73.714844 Z M 178.164063 31.714844 C 182.964844 35.015625 197.308594 32.335938 199.566406 27.414063 C 201.765625 31.015625 200.367188 37.214844 199.765625 41.316406 C 190.691406 45.59375 170.566406 47.714844 169.765625 47.117188 C 172.566406 42.015625 175.765625 37.015625 178.164063 31.714844 "/>
<path style=" stroke:none;fill-rule:nonzero;fill:rgb(0%,0%,0%);fill-opacity:1;" d="M 493.265625 585.414063 C 491.765625 578.015625 484.566406 574.515625 479.367188 570.316406 C 471.765625 564.515625 465.367188 557.015625 459.164063 550.113281 C 458.265625 548.613281 457.066406 547.316406 455.867188 546.316406 C 447.867188 535.714844 439.265625 525.714844 431.164063 515.316406 C 428.96875 513.613281 427.664063 511.113281 425.867188 509.113281 C 412.664063 496.113281 397.664063 485.816406 383.164063 475.214844 C 365.96875 463.515625 355.765625 445.214844 347.164063 427.015625 C 341.765625 418.316406 342.164063 406.015625 337.566406 397.015625 C 338.164063 395.316406 336.164063 395.316406 336.765625 393.613281 C 330.066406 374.816406 319.46875 356.515625 301.765625 346.414063 C 292.367188 340.113281 280.164063 338.316406 270.066406 333.214844 C 266.664063 325.816406 264.066406 318.316406 259.066406 312.015625 C 254.367188 306.515625 255.566406 295.617188 258.066406 289.214844 C 259.066406 281.816406 265.265625 278.414063 268.867188 272.714844 L 269.164063 246.316406 C 275.066406 242.414063 281.066406 238.617188 284.765625 232.414063 C 285.367188 232.015625 285.96875 225.617188 285.96875 225.617188 C 285.96875 225.617188 284.367188 201.414063 284.265625 200.914063 C 281.265625 190.617188 271.96875 182.117188 260.46875 181.015625 L 227.367188 179.316406 C 225.765625 178.617188 223.164063 179.816406 222.066406 178.414063 C 224.664063 175.515625 225.566406 171.714844 227.164063 168.316406 C 230.464844 160.414063 228.066406 150.015625 226.367188 142.117188 C 221.867188 126.414063 209.964844 112.214844 192.066406 110.414063 C 192.066406 110.414063 181.964844 109.816406 181.066406 110.015625 C 163.066406 109.816406 150.566406 123.015625 145.066406 137.617188 C 143.066406 141.015625 144.164063 146.515625 139.765625 148.117188 C 136.867188 144.214844 134.367188 139.714844 131.367188 135.914063 C 130.765625 136.015625 129.964844 135.714844 129.464844 136.117188 C 129.566406 143.214844 132.867188 147.914063 133.765625 154.414063 C 133.265625 155.015625 132.367188 154.816406 131.664063 154.816406 C 127.367188 150.015625 124.265625 144.515625 121.566406 138.816406 C 120.765625 138.015625 120.265625 137.214844 118.867188 137.617188 C 116.464844 140.816406 123.464844 152.914063 123.464844 156.316406 C 122.964844 157.816406 121.566406 156.414063 120.566406 156.515625 C 116.367188 151.914063 114.664063 145.816406 110.464844 141.214844 C 109.566406 141.015625 107.566406 140.414063 107.367188 141.617188 C 107.566406 145.414063 114.964844 156.316406 114.367188 160.414063 C 109.664063 156.617188 106.265625 151.816406 101.867188 147.617188 C 101.867188 147.617188 100.214844 146.867188 99.464844 147.617188 C 98.71875 148.363281 99.464844 148.816406 99.464844 148.816406 C 106.867188 162.316406 119.066406 173.015625 127.566406 185.816406 C 128.664063 188.414063 131.066406 190.214844 131.664063 192.816406 C 123.367188 193.515625 115.765625 195.015625 107.867188 196.117188 C 99.265625 197.214844 94.867188 204.914063 90.867188 211.214844 C 88.066406 215.316406 86.867188 220.414063 83.367188 223.714844 C 73.867188 226.316406 70.464844 217.316406 66.367188 212.214844 C 62.167969 202.714844 58.367188 193.617188 54.566406 183.914063 C 53.765625 181.214844 52.464844 179.214844 51.667969 176.414063 C 46.765625 167.515625 43.367188 157.714844 38.066406 149.117188 C 35.667969 145.515625 31.667969 143.714844 31.566406 138.816406 C 28.164063 133.828125 24.71875 129.765625 20.765625 125.816406 C 20.667969 124.414063 20.753906 119.902344 19.050781 120.796875 C 18.195313 121.441406 18.421875 121.933594 18.066406 123.617188 C 17.046875 121.414063 16.3125 120.171875 15.941406 117.914063 C 15.289063 114.617188 14.175781 114.730469 13.765625 116.015625 C 13.550781 117.839844 14.0625 117.625 13.765625 119.617188 C 13.445313 119.375 12.355469 114.582031 10.144531 111.085938 C 9.039063 109.503906 7.128906 109.199219 7.265625 110.214844 C 7.765625 112.714844 9.167969 114.117188 9.964844 116.414063 L 9.667969 116.714844 C 7.667969 114.617188 5.964844 112.015625 4.667969 109.515625 C 3.964844 108.316406 3.265625 106.714844 1.265625 107.117188 C 0.464844 107.414063 0.402344 108.488281 0.867188 109.515625 C 3.265625 114.617188 6.464844 119.414063 9.265625 124.414063 C 11.066406 129.617188 15.167969 133.214844 17.667969 138.015625 C 18.867188 145.316406 22.566406 150.914063 25.566406 156.816406 C 31.964844 178.515625 36.265625 201.816406 42.066406 223.714844 C 42.464844 225.617188 43.265625 226.714844 43.265625 228.816406 C 48.464844 241.015625 54.167969 253.714844 64.667969 262.414063 C 74.667969 265.617188 85.765625 267.515625 96.367188 270.015625 L 96.367188 270.316406 C 102.066406 270.816406 105.566406 267.414063 111.265625 267.617188 C 121.765625 277.214844 130.367188 289.414063 135.964844 302.914063 C 143.367188 318.414063 151.867188 333.515625 163.265625 346.613281 C 170.664063 357.714844 183.464844 362.714844 190.664063 373.214844 C 193.566406 378.214844 194.664063 384.414063 197.867188 389.113281 C 203.566406 394.515625 210.265625 398.515625 217.066406 402.015625 C 226.066406 421.613281 234.765625 440.613281 249.164063 456.816406 C 249.464844 458.015625 251.664063 457.214844 251.367188 458.914063 C 265.664063 471.316406 279.265625 484.816406 295.96875 492.816406 C 296.566406 493.316406 297.765625 492.515625 297.96875 493.515625 C 302.164063 494.316406 301.066406 487.914063 305.867188 489.214844 C 310.46875 489.714844 311.867188 494.316406 312.765625 498.015625 C 313.164063 501.113281 313.96875 503.613281 314.46875 506.414063 C 314.164063 515.316406 317.867188 521.515625 324.367188 525.914063 C 336.46875 534.316406 348.46875 545.816406 366.765625 540.714844 C 374.867188 538.015625 379.265625 544.015625 384.066406 547.515625 C 395.265625 557.414063 407.96875 565.015625 419.164063 575.113281 L 419.164063 575.515625 C 428.265625 583.015625 437.566406 590.914063 444.066406 600.714844 C 448.867188 607.613281 444.566406 616.914063 442.164063 623.316406 C 439.664063 632.316406 431.96875 638.113281 430.664063 647.816406 C 430.066406 648.414063 430.867188 649.914063 429.96875 650.214844 L 429.96875 662.214844 C 430.367188 663.515625 431.765625 664.113281 432.765625 664.816406 C 435.96875 665.113281 439.066406 664.613281 441.664063 663.417969 C 448.664063 657.515625 458.265625 651.714844 459.664063 641.515625 C 460.46875 639.316406 461.265625 637.113281 462.066406 634.816406 C 462.46875 636.015625 462.164063 637.613281 461.566406 638.414063 C 460.96875 638.816406 461.867188 640.015625 460.867188 640.113281 C 459.566406 644.414063 457.867188 648.515625 456.566406 652.816406 C 455.96875 653.515625 456.765625 654.914063 455.867188 655.214844 C 455.566406 660.914063 454.664063 667.714844 459.46875 670.816406 C 461.867188 672.816406 466.367188 672.214844 469.265625 671.316406 C 479.867188 667.113281 487.765625 657.816406 492.066406 647.515625 C 492.664063 647.113281 491.867188 645.714844 492.765625 645.613281 C 492.566406 640.914063 494.164063 637.113281 493.265625 632.714844 C 493.265625 622.714844 491.164063 612.214844 493.265625 602.414063 L 493.566406 602.414063 L 493.96875 597.414063 L 494.265625 597.414063 C 493.96875 593.316406 494.867188 588.515625 493.265625 585.414063 Z M 118.867188 240.015625 C 117.964844 246.316406 115.867188 251.816406 112.664063 256.617188 C 112.867188 255.816406 113.164063 253.414063 113.367188 252.015625 C 114.265625 247.015625 113.964844 241.015625 112.664063 236.414063 C 111.265625 229.617188 105.566406 223.914063 98.765625 222.515625 C 98.765625 222.515625 117.074219 224.09375 118.867188 236.914063 Z M 179.164063 133.015625 L 188.964844 132.816406 C 188.964844 132.816406 207.800781 139.125 213.464844 147.914063 C 213.867188 148.914063 214.367188 149.617188 215.164063 150.316406 C 208.164063 143.714844 200.664063 137.714844 190.664063 135.617188 C 190.664063 135.617188 167.832031 133.050781 156.066406 139.214844 C 163.566406 134.914063 170.265625 133.316406 179.164063 133.015625 Z M 207.964844 191.316406 C 199.164063 194.414063 189.066406 194.515625 178.464844 194.015625 C 178.464844 194.015625 173.253906 193.558594 170.785156 192.902344 C 170.65625 192.90625 170.539063 192.890625 170.464844 192.816406 C 170.5625 192.84375 170.675781 192.875 170.785156 192.902344 C 171.542969 192.878906 173.164063 191.804688 174.867188 192.316406 C 174.765625 192.617188 176.765625 192.515625 176.765625 192.515625 C 182.566406 192.015625 192.164063 192.617188 198.867188 191.117188 C 200.765625 190.316406 202.566406 188.914063 204.867188 188.414063 C 206.765625 187.015625 209.566406 186.515625 211.964844 185.617188 C 212.265625 188.414063 209.964844 190.316406 207.964844 191.316406 Z M 212.964844 274.414063 C 207.765625 272.015625 202.265625 268.816406 195.664063 271.515625 C 191.867188 272.816406 185.566406 273.316406 182.066406 271.015625 C 174.867188 264.316406 170.066406 255.816406 164.964844 247.714844 C 155.265625 231.714844 145.265625 215.714844 136.464844 200.015625 C 150.265625 221.816406 164.664063 243.015625 181.765625 262.617188 C 183.765625 265.316406 186.867188 266.015625 190.464844 266.414063 C 190.464844 266.414063 201.464844 265.214844 207.664063 266.414063 C 209.699219 267.414063 224.464844 271.914063 232.367188 269.617188 C 236.164063 263.015625 239.867188 256.515625 240.367188 248.015625 C 237.164063 239.914063 229.066406 235.816406 223.066406 230.015625 C 219.164063 227.117188 215.367188 224.214844 211.566406 221.316406 C 209.464844 221.414063 208.367188 222.117188 206.464844 222.515625 C 200.164063 224.414063 192.765625 225.816406 185.164063 225.617188 C 185.664063 216.816406 181.367188 211.015625 175.566406 206.214844 C 166.464844 197.914063 150.164063 178.714844 150.566406 177.617188 C 152.964844 167.117188 168.683594 154.324219 166.867188 151.214844 C 163.605469 145.6875 148.464844 153.617188 148.464844 153.617188 C 148.964844 152.515625 150.664063 152.117188 151.765625 151.214844 C 156.867188 148.316406 160.105469 146.378906 167.105469 147.277344 C 168.703125 148.675781 168.792969 148.246094 169.792969 150.546875 C 170.292969 154.546875 169.796875 154.347656 167.496094 156.445313 C 164.894531 159.445313 162.664063 162.015625 160.164063 165.414063 C 161.964844 169.214844 164.964844 172.515625 168.566406 175.015625 C 174.664063 177.515625 183.164063 176.316406 189.964844 176.015625 C 193.765625 175.617188 198.066406 175.214844 200.066406 172.117188 C 201.367188 171.015625 202.964844 169.816406 203.867188 168.015625 C 205.867188 165.617188 207.867188 163.117188 209.867188 160.617188 C 205.867188 167.117188 202.367188 177.117188 192.566406 177.214844 L 171.964844 177.414063 C 168.613281 177.011719 164.867188 174.414063 162.066406 171.617188 C 160.164063 169.714844 159.367188 168.914063 158.464844 167.316406 C 156.867188 167.316406 153.066406 174.117188 153.964844 177.617188 C 161.367188 189.214844 172.566406 198.714844 183.265625 207.414063 C 186.464844 211.515625 188.367188 216.714844 191.367188 220.816406 C 216.574219 217.691406 231.867188 220.914063 232.867188 221.117188 C 231.867188 222.117188 214.164063 221.117188 214.164063 221.117188 C 224.566406 229.515625 237.367188 236.816406 244.367188 248.714844 C 245.265625 252.816406 244.066406 256.316406 242.964844 259.714844 C 241.964844 262.148438 239.066406 265.816406 237.464844 268.414063 C 243.109375 268.617188 258.46875 259.617188 260.96875 258.515625 C 248.367188 269.414063 232.964844 279.214844 212.964844 274.414063 Z M 253.96875 382.613281 C 260.664063 372.613281 265.765625 361.613281 269.867188 350.015625 C 269.867188 352.414063 268.867188 353.816406 268.867188 356.214844 C 267.96875 356.414063 268.765625 357.816406 268.164063 358.414063 C 266.46875 365.414063 264.164063 372.515625 260.96875 378.816406 C 254.867188 390.816406 241.664063 395.714844 229.066406 399.214844 C 238.566406 395.613281 246.664063 389.914063 253.96875 382.613281 Z M 253.96875 423.214844 C 250.566406 420.515625 246.464844 418.214844 243.164063 415.214844 C 246.765625 415.816406 249.765625 417.113281 253.765625 416.914063 C 253.664063 417.316406 254.164063 417.515625 254.46875 417.414063 L 255.164063 417.414063 C 255.867188 420.613281 257.664063 422.914063 259.066406 425.613281 C 260.867188 431.214844 264.164063 435.613281 266.265625 441.214844 C 273.867188 455.015625 282.164063 468.914063 290.765625 482.214844 C 277.066406 463.515625 260.46875 446.316406 253.96875 423.214844 Z M 319.96875 480.015625 C 318.066406 481.714844 315.867188 482.914063 313.765625 484.414063 C 317.164063 479.613281 320.46875 474.613281 323.164063 469.515625 C 323.867188 466.613281 325.765625 463.714844 324.367188 460.414063 C 316.664063 438.515625 306.46875 417.414063 287.164063 403.515625 C 282.96875 399.816406 278.46875 396.613281 274.164063 393.214844 C 291.066406 404.914063 312.566406 414.414063 320.46875 435.414063 C 321.664063 436.113281 321.367188 437.714844 322.367188 438.515625 C 323.765625 442.414063 325.46875 446.316406 327.164063 449.816406 C 329.066406 455.515625 332.664063 462.316406 330.566406 468.515625 C 328.164063 473.414063 324.066406 476.414063 319.96875 480.015625 Z M 375.664063 534.515625 L 375.664063 535.515625 C 374.867188 534.414063 375.367188 532.316406 374.765625 530.914063 C 372.46875 513.015625 355.96875 503.316406 343.265625 493.515625 C 338.664063 490.714844 331.265625 489.714844 325.566406 491.613281 C 330.46875 489.414063 335.566406 486.816406 342.367188 488.214844 C 342.367188 489.214844 343.566406 488.316406 343.96875 488.914063 C 355.765625 493.515625 363.46875 504.816406 371.367188 514.113281 C 375.164063 519.414063 376.066406 526.613281 376.164063 534.015625 C 375.867188 533.914063 375.566406 534.214844 375.664063 534.515625 Z M 368.46875 482.015625 C 361.265625 472.515625 354.566406 462.414063 348.566406 452.214844 C 354.664063 459.316406 360.367188 467.515625 366.765625 474.316406 C 380.066406 493.214844 400.566406 502.613281 420.066406 512.414063 C 432.96875 522.316406 440.96875 536.214844 450.367188 548.714844 C 434.265625 533.515625 418.664063 515.414063 398.265625 506.414063 C 387.367188 500.214844 376.265625 492.714844 368.46875 482.015625 Z M 466.867188 621.113281 C 467.96875 608.914063 460.664063 601.914063 454.164063 594.316406 C 440.566406 581.816406 425.265625 572.816406 410.46875 562.113281 C 404.566406 558.515625 399.46875 553.914063 393.96875 550.113281 C 414.765625 563.113281 435.96875 575.714844 454.867188 591.113281 C 457.164063 593.214844 459.664063 595.414063 461.367188 597.914063 C 467.46875 603.015625 467.566406 612.214844 466.867188 621.113281 "/>
</g>
</svg>
