<?xml version="1.0" encoding="UTF-8"?>
<svg xmlns="http://www.w3.org/2000/svg" xmlns:xlink="http://www.w3.org/1999/xlink" width="468pt" height="698pt" viewBox="0 0 468 698" version="1.1">
<g id="surface1">
<path style=" stroke:none;fill-rule:nonzero;fill:rgb(0%,0%,0%);fill-opacity:1;" d="M 171.601563 6.183594 L 195.027344 7.402344 C 176.101563 81.460938 207.230469 157.972656 216.257813 193.601563 C 235.535156 224.59375 272.386719 288.527344 272.386719 288.527344 L 288.246094 273.15625 C 299.230469 281.695313 326.804688 274.375 326.804688 274.375 C 311.917969 275.59375 293.617188 274.617188 281.65625 263.148438 C 274.335938 254.363281 266.773438 245.824219 268.234375 233.378906 C 270.921875 218.734375 275.558594 204.824219 271.164063 189.449219 C 271.410156 172.367188 273.363281 154.554688 287.515625 145.039063 C 299.230469 137.472656 316.800781 136.253906 328.511719 143.816406 C 347.058594 156.996094 358.527344 178.226563 364.875 198.726563 L 354.839844 158.242188 C 419.21875 119.992188 442.964844 173.101563 442.71875 189.449219 C 454.921875 202.386719 470.78125 219.710938 466.878906 236.792969 C 466.144531 256.804688 435.734375 233.753906 409.53125 243.382813 C 410.75 245.578125 449.796875 245.335938 463.949219 255.585938 C 468.097656 263.636719 468.828125 275.59375 463.21875 283.160156 C 455.164063 290.238281 457.359375 301.949219 454.433594 311.222656 C 452.726563 323.425781 444.671875 333.675781 432.957031 337.578125 C 421.242188 342.214844 396.597656 334.648438 396.597656 334.648438 C 395.132813 317.324219 388.546875 300.730469 377.808594 286.574219 C 375.367188 289.503906 392.9375 330.503906 395.867188 349.292969 C 398.308594 360.273438 386.347656 367.351563 378.296875 372.230469 C 355.601563 379.308594 342.179688 359.539063 321.679688 358.078125 C 308.746094 351.734375 294.835938 343.4375 286.539063 331.722656 L 285.808594 331.722656 C 291.664063 354.175781 324.609375 471.367188 324.609375 531.582031 C 329.976563 535.730469 337.785156 537.195313 343.886719 541.34375 C 345.105469 536.949219 335.101563 509.863281 335.101563 509.863281 C 338.273438 510.355469 340.472656 513.523438 343.886719 513.277344 C 341.445313 496.195313 339.003906 474.722656 345.105469 456.421875 C 351.695313 470.820313 352.671875 488.390625 361.457031 502.296875 C 366.582031 503.03125 371.949219 502.785156 376.585938 504.496094 L 369.507813 529.140625 C 369.507813 532.558594 373.167969 531.097656 374.390625 533.777344 C 372.4375 544.269531 363.652344 563.0625 363.652344 563.0625 C 381.957031 543.78125 391.230469 512.792969 381.957031 486.925781 C 381.46875 481.800781 378.296875 475.941406 377.808594 470.089844 L 390.738281 473.992188 C 383.417969 458.128906 386.835938 438.605469 390.007813 422.015625 C 395.867188 424.207031 401.230469 440.804688 401.230469 440.804688 C 402.941406 419.816406 410.75 401.515625 420.511719 383.941406 C 420.511719 383.941406 423.195313 419.085938 419.292969 437.144531 C 421.976563 439.097656 424.902344 434.703125 428.074219 434.214844 C 430.515625 449.101563 418.316406 473.992188 418.316406 473.992188 C 424.660156 470.332031 431.492188 467.402344 438.082031 464.230469 C 435.152344 500.59375 391.230469 519.382813 384.148438 555.5 L 387.8125 559.644531 C 392.9375 549.640625 398.0625 537.4375 405.871094 529.140625 L 410.019531 536.21875 C 425.394531 526.699219 459.800781 519.136719 459.800781 519.136719 C 447.84375 528.167969 434.421875 542.320313 425.148438 553.058594 L 436.375 562.574219 C 426.371094 569.652344 415.390625 576.484375 407.089844 584.78125 C 407.578125 588.441406 410.507813 591.128906 409.53125 595.273438 C 402.453125 596.984375 354.082031 586.046875 329.730469 629.195313 C 324.363281 630.660156 308.015625 612.601563 302.15625 606.5 C 297.03125 613.089844 300.203125 620.167969 299.230469 629.195313 C 295.566406 631.878906 288.246094 623.339844 287.515625 632.121094 C 285.5625 641.640625 278.730469 660.429688 278.730469 660.429688 L 271.164063 647.496094 C 258.964844 668.484375 242.613281 684.589844 222.601563 698.5 C 232.363281 678.488281 253.109375 631.148438 253.59375 627.488281 C 250.179688 626.753906 244.320313 620.410156 244.320313 620.410156 C 251.886719 612.355469 262.382813 607.964844 269.945313 599.910156 L 261.160156 598.203125 C 259.941406 595.03125 262.136719 589.664063 257.253906 588.929688 C 246.03125 588.195313 234.558594 592.105469 223.824219 592.347656 C 221.628906 589.175781 226.265625 586.246094 225.53125 582.34375 C 211.867188 585.757813 194.050781 582.828125 181.117188 589.417969 L 196.734375 568.433594 C 168.671875 559.402344 157.691406 527.921875 148.171875 503.273438 C 162.570313 514.257813 194.539063 532.558594 194.539063 532.558594 L 196.734375 520.355469 C 199.664063 520.847656 219.429688 549.640625 231.878906 557.203125 L 230.898438 540.367188 C 236.269531 544.269531 267.261719 564.039063 277.753906 569.652344 C 278.976563 568.1875 237.976563 492.46875 223.089844 436.65625 C 215.769531 448.367188 206.742188 477.652344 206.742188 477.652344 C 204.300781 466.429688 204.300781 454.226563 204.546875 441.777344 C 201.371094 439.585938 197.46875 439.097656 193.808594 437.875 C 196.003906 429.335938 201.128906 422.015625 203.8125 413.714844 C 201.617188 412.984375 200.882813 409.566406 202.105469 407.371094 C 207.472656 399.5625 216.257813 397.363281 220.894531 390.289063 C 218.699219 385.410156 222.601563 378.820313 221.382813 372.230469 C 213.085938 370.035156 203.078125 371.5 195.027344 368.570313 C 193.808594 366.375 197.46875 363.933594 197.953125 362.226563 C 184.289063 357.347656 161.59375 334.648438 161.59375 334.648438 C 172.578125 338.066406 198.933594 342.945313 200.394531 341.726563 C 197.953125 335.625 195.027344 329.769531 193.320313 323.667969 C 203.324219 324.402344 210.890625 334.894531 220.164063 339.285156 C 223.824219 333.675781 230.898438 338.554688 236.023438 335.382813 C 218.941406 318.785156 191.855469 308.296875 166.964844 317.078125 C 157.933594 321.472656 148.660156 325.132813 138.902344 327.574219 C 138.410156 323.667969 141.585938 320.984375 143.050781 317.8125 C 125.722656 316.835938 94.976563 311.222656 94.976563 311.222656 C 101.320313 309.269531 108.640625 308.78125 114.253906 304.878906 C 111.570313 299.753906 105.714844 296.339844 104.246094 290.722656 C 114.984375 290.480469 124.746094 296.339844 135.238281 292.433594 C 137.679688 290.96875 141.585938 293.164063 143.535156 290.722656 C 136.460938 285.113281 116.695313 274.375 116.695313 274.375 C 121.820313 272.664063 126.699219 275.105469 131.824219 275.59375 C 133.53125 272.421875 128.894531 270.46875 130.117188 266.808594 L 134.753906 266.078125 C 133.53125 262.171875 127.675781 264.367188 124.746094 262.171875 C 113.523438 264.613281 90.09375 256.070313 91.316406 252.65625 C 94.730469 252.898438 97.414063 251.433594 100.101563 250.460938 C 97.902344 243.871094 89.851563 242.894531 86.191406 236.792969 L 95.464844 235.816406 C 86.433594 224.835938 85.214844 210.4375 76.183594 199.457031 C 86.433594 200.1875 96.925781 206.289063 105.957031 212.390625 L 106.6875 202.871094 L 114.253906 206.535156 C 116.449219 202.140625 112.546875 198.96875 113.03125 194.820313 C 121.574219 196.773438 126.453125 205.558594 131.335938 211.65625 C 134.507813 209.707031 136.703125 206.289063 140.121094 203.605469 C 150.859375 213.367188 147.6875 229.960938 154.03125 242.160156 C 155.25 240.453125 154.519531 238.257813 154.761719 236.304688 C 157.933594 236.792969 160.863281 241.917969 164.035156 239.234375 C 162.085938 224.59375 157.203125 211.171875 158.179688 195.308594 C 171.113281 208.730469 176.96875 224.835938 181.605469 241.675781 C 184.535156 241.917969 187.464844 238.988281 190.390625 237.527344 C 195.273438 257.046875 178.675781 279.742188 200.394531 291.945313 C 203.570313 296.578125 207.960938 299.753906 212.597656 303.171875 C 213.816406 300.972656 198.933594 282.914063 197.46875 274.375 C 201.371094 274.132813 205.519531 276.570313 209.671875 277.304688 C 209.914063 266.078125 204.789063 255.339844 205.035156 243.382813 C 219.917969 249.972656 221.382813 266.320313 229.679688 277.789063 C 233.339844 277.546875 232.363281 270.957031 237.246094 271.933594 C 241.882813 283.402344 252.132813 292.1875 254.8125 304.144531 C 257.011719 303.660156 258.964844 302.195313 258.964844 299.511719 C 248.960938 267.785156 230.167969 239.722656 212.109375 211.171875 C 176.726563 174.566406 128.394531 153.9375 36.894531 173.589844 L 28.109375 158.945313 C 18.59375 154.3125 7.613281 148.941406 1.753906 139.179688 C -2.148438 127.710938 8.34375 120.878906 9.320313 110.875 C 8.101563 94.277344 2.242188 70.851563 21.03125 61.089844 C 32.015625 54.503906 43.730469 49.378906 53.246094 39.617188 C 64.226563 26.4375 70.082031 2.28125 93.753906 7.894531 C 108.152344 10.089844 120.84375 15.945313 129.382813 27.902344 C 130.605469 20.824219 120.597656 18.628906 121.820313 10.820313 C 135.238281 -0.402344 156.714844 -4.0625 171.601563 6.183594 Z M 158.179688 24.976563 C 145.003906 34.246094 132.746094 60.359375 88.386719 72.316406 C 75.417969 75.8125 74.964844 91.351563 72.769531 102.820313 C 69.109375 109.164063 63.25 111.359375 59.835938 116.730469 C 68.132813 127.222656 56.90625 138.203125 53.976563 148.453125 C 60.566406 138.691406 67.398438 130.394531 69.109375 118.683594 C 86.921875 115.265625 104.492188 120.878906 118.890625 126.734375 C 111.082031 121.855469 96.285156 114.777344 76.101563 110.140625 C 77.078125 108.675781 85.214844 91.59375 89.605469 83.542969 C 97.660156 72.070313 109.859375 67.4375 123.039063 64.753906 C 142.5625 60.359375 146.464844 37.421875 158.179688 24.976563 Z M 194.539063 151.871094 C 192.589844 156.507813 193.808594 162.363281 190.878906 166.511719 C 188.195313 167.488281 183.3125 162.851563 183.3125 162.609375 C 184.289063 167.242188 186.242188 171.394531 186.972656 176.03125 L 176.238281 179.445313 C 185.511719 183.59375 195.515625 185.789063 205.035156 188.964844 C 203.324219 175.785156 199.664063 163.585938 194.539063 151.871094 Z M 370.242188 216.296875 C 367.3125 223.859375 360.96875 231.179688 364.386719 239.722656 C 370.976563 234.109375 370.242188 216.296875 370.242188 216.296875 Z M 335.101563 222.152344 C 338.761719 230.449219 347.304688 236.550781 355.601563 238.011719 C 355.601563 238.011719 342.421875 223.128906 335.101563 222.152344 Z M 374.878906 247.53125 C 383.664063 247.773438 392.9375 245.824219 399.527344 239.234375 C 390.496094 238.503906 381.46875 242.160156 374.878906 247.53125 Z M 328.023438 259.734375 C 329.488281 259.976563 347.546875 259 351.453125 253.386719 C 342.910156 253.632813 333.882813 254.121094 328.023438 259.734375 Z M 362.675781 254.363281 C 354.382813 261.441406 349.742188 270.957031 346.082031 280.230469 C 353.402344 275.351563 359.503906 269.738281 365.605469 262.660156 C 365.605469 262.660156 378.539063 272.664063 384.886719 272.664063 C 379.515625 264.125 373.167969 255.585938 362.675781 254.363281 Z M 294.105469 289.503906 C 289.925781 293.683594 281.902344 301.460938 280.683594 301.21875 C 273.363281 305.609375 282.390625 311.710938 281.171875 317.8125 L 282.878906 317.8125 C 284.832031 307.5625 287.757813 298.046875 294.105469 289.503906 Z M 261.890625 320.742188 C 240.660156 335.382813 275.804688 343.925781 278.730469 358.078125 C 275.3125 344.410156 270.433594 330.257813 266.527344 317.078125 C 264.089844 317.078125 263.84375 319.277344 261.890625 320.742188 Z M 235.535156 377.355469 L 234.804688 391.996094 L 254.328125 397.363281 L 255.304688 396.144531 L 251.886719 382.238281 C 251.886719 382.238281 277.511719 388.339844 287.027344 396.144531 L 285.316406 388.582031 C 280.195313 379.796875 269.945313 380.527344 260.671875 379.796875 C 260.183594 376.136719 263.84375 374.183594 264.820313 371.011719 C 255.789063 374.914063 244.808594 375.402344 235.535156 377.355469 Z M 284.097656 412.007813 C 269.945313 412.496094 265.554688 429.335938 257.253906 436.65625 C 251.644531 431.042969 245.785156 427.382813 240.660156 423.234375 C 240.175781 480.542969 290.199219 566.480469 316.3125 600.644531 C 317.777344 596.007813 316.3125 591.613281 315.089844 587.710938 C 312.648438 529.140625 307.527344 480.335938 297.03125 424.941406 C 294.835938 419.085938 292.152344 411.273438 284.097656 412.007813 "/>
</g>
</svg>
