<?xml version="1.0" encoding="UTF-8"?>
<svg xmlns="http://www.w3.org/2000/svg" xmlns:xlink="http://www.w3.org/1999/xlink" width="483pt" height="679pt" viewBox="0 0 483 679" version="1.1">
<g id="surface1">
<path style=" stroke:none;fill-rule:nonzero;fill:rgb(13.729858%,12.159729%,12.548828%);fill-opacity:1;" d="M 470.34375 137.347656 C 463.476563 132.011719 340.570313 81.628906 340.570313 81.628906 C 340.570313 81.628906 321.480469 9.105469 319.191406 5.292969 C 316.910156 1.476563 315.390625 -0.824219 305.445313 -0.0546875 C 295.523438 0.707031 10.765625 24.367188 6.953125 25.128906 C 3.128906 25.898438 0.0820313 32.007813 1.613281 39.636719 C 3.128906 47.265625 29.851563 308.363281 29.851563 358.757813 C 29.851563 409.132813 37.488281 520.601563 37.488281 520.601563 C 37.488281 520.601563 129.867188 672.511719 130.628906 675.566406 C 131.414063 678.703125 140.550781 681.679688 152.773438 678.628906 C 164.980469 675.566406 455.847656 584.71875 455.847656 584.71875 C 455.847656 584.71875 481.808594 149.574219 481.808594 144.238281 C 481.808594 138.882813 477.230469 142.703125 470.34375 137.347656 Z M 274.148438 12.929688 L 279.492188 51.851563 L 271.09375 22.074219 C 271.09375 22.074219 259.648438 35.070313 261.179688 44.222656 C 262.714844 53.382813 269.570313 59.492188 286.363281 58.71875 C 303.164063 57.96875 307.75 34.300781 307.75 34.300781 C 307.75 34.300781 305.445313 63.304688 288.664063 64.835938 C 271.855469 66.359375 257.355469 68.660156 251.257813 44.222656 C 245.140625 19.789063 274.148438 12.929688 274.148438 12.929688 Z M 100.867188 44.992188 C 100.867188 44.992188 97.804688 55.664063 97.042969 57.96875 C 96.28125 60.253906 100.867188 65.605469 104.664063 65.605469 C 108.480469 65.605469 112.304688 60.253906 112.304688 60.253906 C 112.304688 60.253906 113.066406 70.945313 107.726563 70.945313 C 102.390625 70.945313 93.230469 73.996094 90.925781 61.023438 C 88.644531 48.035156 100.867188 44.992188 100.867188 44.992188 Z M 57.335938 48.796875 C 57.335938 48.796875 54.28125 59.492188 53.519531 61.785156 C 52.75 64.074219 57.335938 69.421875 61.160156 69.421875 C 64.972656 69.421875 68.796875 64.074219 68.796875 64.074219 C 68.796875 64.074219 69.558594 74.75 64.214844 74.75 C 58.867188 74.75 49.707031 77.804688 47.414063 64.835938 C 45.128906 51.851563 57.335938 48.796875 57.335938 48.796875 Z M 154.296875 253.402344 C 149.71875 265.609375 160.402344 496.933594 170.328125 499.222656 C 180.25 501.515625 445.160156 428.984375 447.445313 425.160156 C 449.746094 421.355469 457.367188 233.558594 457.367188 233.558594 C 457.367188 233.558594 454.3125 418.304688 455.847656 424.410156 C 457.367188 430.515625 455.074219 434.332031 446.695313 436.613281 C 438.285156 438.90625 184.074219 507.613281 175.671875 509.898438 C 167.273438 512.199219 155.820313 506.84375 155.058594 500.757813 C 154.296875 494.644531 142.84375 286.996094 143.605469 265.609375 C 144.375 244.234375 151.242188 239.648438 160.402344 238.125 C 169.558594 236.613281 457.367188 191.558594 457.367188 191.558594 C 457.367188 191.558594 158.882813 241.179688 154.296875 253.402344 Z M 190.171875 428.214844 L 177.964844 431.269531 L 174.140625 348.054688 L 180.25 426.691406 L 187.117188 425.160156 L 189.410156 405.316406 Z M 119.933594 210.640625 L 138.265625 673.273438 L 113.066406 204.550781 L 21.460938 126.664063 L 8.484375 44.222656 L 26.796875 111.394531 L 324.53125 78.574219 L 26.796875 118.285156 L 27.566406 124.371094 L 117.652344 199.96875 L 471.113281 146.519531 L 119.933594 210.640625 "/>
</g>
</svg>
