<?xml version="1.0" encoding="UTF-8"?>
<svg xmlns="http://www.w3.org/2000/svg" xmlns:xlink="http://www.w3.org/1999/xlink" width="506pt" height="421pt" viewBox="0 0 506 421" version="1.1">
<g id="surface1">
<path style=" stroke:none;fill-rule:nonzero;fill:rgb(0%,0%,0%);fill-opacity:1;" d="M 501.011719 324.570313 C 486.929688 321.847656 476.851563 309.609375 464.371094 303.050781 C 464.371094 303.050781 465.410156 300.230469 465.578125 299.171875 C 466.570313 292.832031 460.015625 287.9375 462.210938 280.808594 C 465.246094 265.78125 469.445313 251.367188 473.542969 236.875 C 477.046875 224.472656 474.78125 212.367188 470.128906 205.929688 C 455.011719 197.527344 438.449219 193.449219 421.570313 189.769531 L 353.410156 180.167969 C 346.609375 172.328125 336.128906 178.007813 328.050781 179.050781 C 320.382813 179.808594 314.621094 175.199219 308.605469 171.351563 C 307.65625 170.742188 304.507813 168.753906 303.886719 168.351563 C 292.214844 160.785156 278.003906 158.988281 265.089844 154.808594 C 268.371094 147.050781 271.648438 137.050781 268.929688 128.890625 C 271.648438 125.449219 274.769531 121.609375 272.929688 116.648438 C 277.890625 106.730469 281.410156 96.089844 281.730469 84.570313 C 281.730469 84.570313 291.730469 87.847656 296.53125 89.769531 C 303.328125 89.050781 310.289063 88.570313 316.691406 86.890625 C 323.011719 82.328125 329.171875 77.128906 335.171875 72.089844 C 338.929688 65.6875 341.488281 58.730469 344.371094 51.929688 C 344.210938 42.570313 341.808594 34.410156 340.289063 25.449219 C 336.210938 18.089844 329.570313 12.648438 323.808594 7.210938 C 317.730469 4.890625 311.648438 2.488281 305.171875 1.050781 C 297.410156 0.488281 288.289063 2.488281 280.449219 4.488281 C 273.96875 8.890625 268.53125 14.648438 263.890625 20.648438 C 261.410156 29.367188 258.609375 37.929688 258.128906 47.527344 C 254.449219 48.410156 250.371094 48.96875 246.609375 49.210938 L 230.289063 1.210938 C 223.570313 -0.710938 211.96875 7.527344 212.449219 8.167969 L 225.890625 53.449219 L 171.730469 63.609375 C 169.960938 60.660156 164.171875 57.953125 161.96875 60.570313 C 157.808594 60.410156 153.648438 60.007813 149.890625 60.730469 C 147.410156 54.167969 144.929688 47.609375 141.648438 41.367188 L 131.25 30.808594 C 125.648438 25.6875 120.371094 20.007813 113.808594 17.367188 C 103.25 15.769531 93.171875 14.167969 82.128906 14.328125 C 74.210938 18.570313 66.53125 23.527344 59.410156 29.6875 C 58.289063 30.96875 57.890625 33.210938 56.53125 33.847656 L 49.089844 21.609375 C 49.089844 21.609375 43.789063 21.644531 39 23.550781 C 34.90625 25.175781 30.742188 26.664063 27.167969 29.6875 C 26.050781 30.730469 26.929688 32.488281 27.167969 33.6875 L 43.089844 85.527344 L 13.167969 91.847656 C 9.167969 93.050781 5.011719 93.847656 1.808594 97.050781 C 0.371094 99.847656 1.167969 102.890625 2.609375 105.527344 C 4.691406 108.808594 7.96875 111.609375 12.210938 111.050781 L 46.769531 103.210938 C 53.089844 124.410156 63.648438 144.328125 62.691406 168.089844 L 17.96875 307.6875 C 17.96875 307.6875 8.617188 312.253906 7.523438 313.054688 C 6.863281 313.535156 6.378906 314.167969 6.289063 315.128906 C 13.96875 319.847656 22.128906 323.449219 30.289063 327.050781 L 40.210938 320.730469 C 41.25 318.648438 39.328125 316.890625 37.96875 315.371094 L 44.851563 295.210938 L 58.851563 292.648438 L 106.449219 283.449219 L 136.851563 276.570313 L 174.050781 266.171875 L 181.570313 267.929688 L 225.089844 277.128906 C 236.609375 278.890625 249.011719 283.449219 260.449219 280.007813 C 273.171875 276.570313 283.648438 264.488281 286.769531 252.007813 L 392.53125 276.007813 C 388.449219 284.410156 383.648438 292.648438 381.96875 302.089844 C 380.210938 317.050781 382.210938 330.648438 381.011719 345.847656 C 379.089844 348.25 377.011719 350.488281 375.808594 353.128906 C 376.210938 358.96875 375.488281 365.289063 373.171875 370.410156 C 369.570313 375.289063 366.449219 381.128906 368.371094 387.527344 C 368.851563 392.25 373.410156 396.25 377.730469 397.289063 C 381.171875 398.488281 385.25 398.007813 388.289063 400.007813 C 390.449219 407.371094 397.089844 413.6875 403.890625 417.289063 C 414.289063 423.175781 428.320313 421.566406 438.71875 415.773438 C 444.355469 412.632813 446.832031 411 440.652344 404.910156 C 438.160156 402.453125 435.230469 400.398438 432.449219 398.488281 C 422.769531 389.769531 417.25 378.570313 411.730469 367.769531 C 405.089844 367.449219 407.96875 359.449219 406.210938 355.289063 C 404.851563 348.410156 407.488281 342.25 409.410156 336.25 C 409.730469 326.488281 413.648438 318.246094 417.089844 309.769531 C 419.089844 315.289063 420.128906 321.128906 422.128906 326.648438 C 420.851563 330.890625 422.449219 334.890625 425.171875 338.007813 L 429.570313 357.609375 L 426.128906 365.609375 L 462.851563 376.96875 L 467.648438 366.007813 C 462.128906 363.847656 456.449219 362.007813 451.089844 359.527344 L 445.890625 332.25 C 445.890625 332.25 460.277344 331.574219 461.066406 331.566406 C 466.363281 331.507813 470.425781 335.070313 475.089844 336.808594 C 482.050781 340.890625 492.851563 340.25 499.648438 336.488281 C 507.90625 331.273438 506.488281 327.472656 501.011719 324.570313 Z M 14.316406 106.710938 C 13.914063 108.507813 14.207031 108.226563 12.316406 107.960938 C 13.515625 103.640625 13.316406 99.710938 8.53125 95.929688 C 12.816406 94.335938 15.066406 103.335938 14.316406 106.710938 Z M 267.328125 20.648438 L 281.730469 6.96875 L 303.488281 2.96875 C 309.089844 4.730469 314.289063 7.527344 319.808594 9.527344 L 323.230469 8.167969 L 323.398438 8.5 C 323.035156 8.636719 321.207031 9.882813 320.929688 10.089844 L 333.96875 25.210938 C 334.832031 25.695313 337.523438 25.582031 337.808594 25.609375 L 338.066406 26 L 334.929688 26.570313 L 338.609375 50.167969 L 341.648438 50.808594 L 341.730469 51.25 L 338.371094 51.367188 L 331.089844 69.050781 L 314.371094 82.808594 L 294.210938 84.007813 L 288.664063 81.300781 C 288.664063 81.300781 288.414063 80.773438 288.914063 80.960938 C 290.484375 81.542969 292.269531 82.996094 294.058594 83.378906 C 294.222656 83.410156 313.730469 82.167969 313.730469 82.167969 L 329.730469 69.050781 L 337.25 50.96875 L 333.25 26.570313 L 319.808594 10.25 L 303.25 4.488281 L 282.371094 8.167969 C 277.753906 13.230469 272.648438 15.550781 268.898438 21.167969 C 267.792969 22.820313 266.613281 28.234375 265.839844 29.761719 C 265.460938 30.507813 265.34375 29.691406 265.34375 29.691406 Z M 309.25 36.730469 C 307.121094 33.785156 300.699219 28.996094 290.136719 35.3125 C 289.890625 35.460938 289.855469 35.15625 290.101563 34.863281 C 294.371094 29.796875 306.414063 27.375 311.488281 38.648438 C 313.570313 42.96875 312.851563 48.730469 310.53125 52.890625 C 310.53125 52.890625 310.191406 52.890625 310.292969 52.605469 C 312.042969 47.652344 311.898438 41.191406 309.25 36.730469 Z M 332.609375 34.488281 C 334.007813 38.394531 334.769531 43.578125 333.5625 47.835938 C 331.316406 55.757813 328.476563 53.9375 326.179688 47.855469 C 324.746094 44.058594 323.414063 40.054688 323.292969 35.832031 C 322.96875 24.539063 327.078125 23.0625 332.609375 34.488281 Z M 260.503906 44.710938 C 260.910156 43.878906 261.808594 43.25 262.53125 42.890625 C 263.808594 42.808594 265.25 42.328125 266.371094 42.488281 C 268.128906 41.367188 269.011719 39.367188 271.011719 38.890625 C 273.566406 39.167969 275.328125 40.007813 275.96875 42.328125 C 275.890625 43.128906 276.128906 43.6875 276.609375 44.246094 L 286.816406 42.417969 L 286.929688 42.730469 C 285.65625 43.007813 279.175781 44.558594 277.171875 45.050781 C 276.851563 47.128906 277.410156 49.527344 279.488281 50.808594 L 295.410156 48.890625 C 296.308594 47.507813 297.503906 45.949219 297.09375 44.265625 C 297.027344 43.996094 297.410156 43.769531 297.730469 44.246094 C 297.808594 46.246094 296.929688 47.929688 296.128906 49.609375 C 291.089844 50.570313 285.648438 50.730469 280.609375 51.929688 C 285.570313 56.570313 285.148438 60.25 282.128906 69.609375 L 281.5625 78.492188 C 281.5625 78.492188 281.296875 79.449219 281.246094 78.757813 C 280.8125 72.789063 280.777344 68.152344 282.929688 62.488281 C 285.488281 54.570313 274.691406 51.769531 275.25 44.410156 C 275.410156 42.488281 273.808594 40.730469 272.128906 40.007813 C 270.210938 40.246094 268.851563 42.089844 267.171875 43.128906 C 264.789063 42.988281 262.410156 43.585938 260.886719 44.96875 C 260.671875 45.164063 260.371094 44.988281 260.503906 44.710938 Z M 259.328125 55.769531 C 262.929688 58.488281 267.808594 59.769531 270.210938 63.847656 L 268.53125 72.089844 L 252.210938 121.210938 C 248.769531 129.128906 247.089844 137.6875 241.089844 144.488281 L 240.289063 143.6875 L 255.488281 104.890625 C 258.210938 88.96875 251.808594 73.050781 249.089844 57.527344 C 252.53125 56.96875 255.808594 56.167969 259.328125 55.769531 Z M 62.929688 245.847656 L 59.648438 254.246094 L 58.898438 254 L 62.730469 241.167969 L 63.648438 241.050781 C 63.410156 242.328125 64.851563 244.328125 64.851563 244.328125 L 100.128906 233.929688 L 154.851563 218.007813 L 146.050781 213.769531 L 146.769531 213.027344 L 180.066406 223.835938 L 179.808594 224.730469 L 157.328125 218.808594 Z M 158.691406 229.128906 C 159.011719 235.847656 158.210938 242.328125 157.96875 248.488281 L 142.210938 259.6875 L 53.089844 276.328125 L 58.691406 260.246094 Z M 87.089844 147.527344 C 94.210938 148.808594 101.808594 152.410156 109.171875 149.6875 C 118.210938 146.890625 127.171875 143.847656 135.648438 139.6875 C 142.128906 133.367188 146.449219 125.929688 151.25 118.730469 C 153.328125 130.890625 154.128906 143.929688 160.449219 154.488281 C 153.171875 163.210938 148.210938 173.128906 149.890625 185.367188 C 150.53125 188.808594 152.691406 192.246094 156.050781 193.609375 C 151.011719 195.527344 144.210938 195.449219 141.808594 201.128906 C 141.171875 205.210938 139.808594 210.410156 141.96875 214.171875 L 65.410156 237.371094 C 73.648438 215.210938 82.851563 193.367188 87.488281 169.609375 C 87.890625 162.246094 88.371094 155.128906 87.089844 147.527344 Z M 176.210938 229.6875 L 184.050781 227.769531 L 180.769531 237.210938 C 179.25 237.609375 177.730469 237.929688 176.210938 238.328125 Z M 181.554688 246.3125 C 193.066406 243 192.902344 230.492188 192.902344 230.492188 L 187.488281 227.609375 L 196.128906 229.929688 C 193.730469 231.128906 194.53125 235.050781 193.25 237.371094 C 191.46875 242.351563 188.265625 245.421875 181.90625 247.191406 C 180.914063 247.46875 180.535156 246.894531 181.554688 246.3125 Z M 193.25 175.609375 L 192.691406 176.570313 C 192.851563 186.570313 194.566406 196.5 190.53125 204.730469 C 188.371094 207.847656 185.089844 210.808594 181.171875 210.890625 C 176.929688 211.449219 174.929688 207.367188 173.328125 204.410156 C 171.011719 198.246094 170.449219 191.367188 166.371094 185.929688 C 162.710938 199.957031 172.054688 211.585938 181.664063 221.234375 C 182.140625 221.710938 181.980469 221.996094 181.375 221.609375 C 178.175781 219.566406 174.253906 216.441406 172.371094 212.808594 C 163.089844 210.171875 153.570313 208.328125 144.851563 204.410156 C 144.449219 203.6875 144.050781 202.808594 144.53125 202.089844 C 144.835938 202.613281 145.359375 203.1875 145.964844 203.664063 C 146.46875 204.058594 163.25 209.847656 171.410156 211.6875 C 169.011719 207.847656 166.929688 203.449219 165.011719 199.210938 C 162.882813 199.140625 160.8125 198.070313 159.613281 196.304688 C 159.414063 196.011719 159.589844 195.90625 159.847656 196.140625 C 161.304688 197.441406 163.019531 198.070313 164.851563 198.410156 C 163.410156 190.808594 166.210938 182.167969 163.890625 174.246094 L 165.480469 163.335938 C 164.839844 161.699219 164.371094 160.128906 163.574219 158.617188 C 163.28125 158.058594 163.527344 157.960938 163.945313 158.507813 C 166.363281 161.652344 167.078125 165.863281 165.648438 169.609375 C 162.769531 182.167969 172.050781 191.210938 173.648438 202.648438 C 174.769531 205.6875 177.648438 208.96875 181.011719 209.527344 C 186.210938 210.246094 187.109375 205.125 190.148438 202.085938 C 192.949219 195.84375 190.050781 188.410156 192.289063 181.929688 C 191.648438 176.570313 188.449219 172.246094 186.929688 167.289063 C 186.105469 164.703125 185.371094 162.03125 184.722656 159.335938 C 184.484375 158.363281 185.0625 159.199219 185.0625 159.199219 C 185.0625 159.199219 188.898438 172.25 191.898438 174.585938 C 192.722656 175.085938 207.25 170.730469 212.449219 165.210938 C 219.808594 161.289063 227.410156 158.246094 235.089844 155.210938 C 237.152344 153.421875 238.507813 151.042969 240.066406 148.835938 C 240.320313 148.472656 240.601563 148.519531 240.40625 148.972656 C 239.757813 150.488281 238.714844 152.511719 238.53125 154.488281 C 244.609375 155.609375 251.730469 157.050781 258.128906 156.167969 C 256.464844 151.097656 253.746094 145.957031 249.265625 141.882813 C 248.800781 141.460938 248.988281 141.273438 249.53125 141.632813 C 254.707031 145.046875 257.132813 151.0625 260.609375 155.769531 L 261.96875 155.769531 C 259.058594 157.863281 255.707031 157.960938 252.3125 157.6875 C 249.738281 157.480469 242.054688 156.445313 240.722656 156.363281 C 234.835938 155.996094 228.855469 158.75 223.570313 160.96875 C 216.609375 164.570313 209.25 167.929688 203.011719 173.050781 Z M 249.328125 96.488281 C 246.675781 106.578125 238.5625 130.972656 234.945313 139.066406 C 234.351563 140.40625 234.078125 140.191406 234.535156 138.90625 C 237.496094 130.589844 245.578125 107.621094 247.96875 97.847656 C 246.449219 85.527344 242.53125 74.167969 239.171875 62.648438 C 236.71875 61.878906 233.960938 61.476563 231.539063 60.851563 C 231.195313 60.761719 231.1875 60.511719 231.578125 60.472656 C 235.085938 60.121094 241.578125 59.28125 244.328125 58.945313 C 244.894531 58.875 244.90625 59.027344 244.609375 59.128906 C 243.246094 59.59375 241.804688 59.984375 240.691406 60.96875 C 244.128906 72.570313 247.011719 84.410156 249.328125 96.488281 Z M 228.027344 7.492188 L 241.089844 50.007813 L 244.898438 50.089844 L 245.203125 50.644531 L 232.394531 52.457031 C 232.394531 52.457031 231.578125 52.179688 232.273438 51.972656 C 234.433594 51.324219 236.832031 51 238.769531 49.847656 L 226.851563 7.609375 Z M 171.011719 65.929688 C 170.929688 67.6875 172.050781 68.890625 172.691406 70.328125 C 171.648438 70.570313 169.550781 69.222656 169.230469 68.5 Z M 165.96875 83.050781 C 169.011719 79.769531 175.25 77.449219 174.050781 72.246094 L 226.691406 61.527344 C 231.730469 76.246094 239.011719 91.289063 235.488281 108.410156 L 229.730469 121.210938 L 207.25 166.167969 L 192.128906 159.847656 C 191.730469 157.367188 191.570313 154.730469 189.96875 152.890625 C 188.050781 152.96875 186.449219 153.527344 184.609375 153.847656 C 180.851563 146.007813 181.089844 136.007813 178.449219 127.367188 L 165.96875 86.648438 C 165.488281 85.527344 165.25 84.167969 165.96875 83.050781 Z M 153.113281 68.476563 C 155.128906 72.242188 157.054688 75.695313 157.273438 75.597656 C 159.359375 74.671875 161.347656 72.902344 163.488281 71.929688 L 164.851563 70.328125 C 165.171875 70.808594 165.171875 71.6875 164.691406 72.089844 C 162.03125 73.453125 159.371094 75.050781 157.007813 76.878906 C 156.863281 76.992188 155.371094 91.011719 154.304688 101.175781 C 153.699219 106.964844 153.171875 105.164063 153.5 101.34375 C 154.191406 93.332031 155.5 83.882813 154.691406 76.003906 C 154.519531 74.328125 153.710938 71.636719 152.679688 68.855469 C 151.226563 64.921875 150.738281 64.039063 153.113281 68.476563 Z M 61.011719 35.609375 C 67.648438 29.449219 75.167969 24.570313 82.691406 19.847656 C 92.210938 18.808594 101.570313 20.730469 110.691406 22.007813 C 119.25 26.488281 126.128906 34.808594 133.730469 41.527344 L 137.816406 40.773438 L 137.96875 40.96875 C 137.6875 41.082031 135.207031 42 134.289063 42.488281 L 148.691406 75.769531 C 149.320313 76.148438 150.25 75.929688 151.125 75.898438 C 151.359375 75.890625 151.390625 76.222656 151.15625 76.332031 C 150.257813 76.75 148.753906 77.710938 148.691406 77.847656 L 147.730469 110.648438 C 148.691406 111.210938 149.96875 111.210938 151.011719 111.449219 L 151.066406 111.773438 L 147.410156 112.007813 C 141.648438 119.609375 136.609375 127.449219 130.851563 135.050781 L 135.648438 135.449219 L 135.628906 135.710938 L 130.128906 136.007813 L 108.050781 146.167969 C 99.890625 144.328125 91.730469 141.289063 83.648438 138.890625 L 63.25 117.609375 L 56.929688 100.089844 L 90.378906 92.210938 L 90.769531 92.410156 C 87.855469 93.164063 66.558594 99.171875 58.851563 101.449219 L 64.609375 117.609375 L 84.371094 137.929688 L 107.25 144.648438 L 128.53125 135.609375 L 145.808594 111.289063 L 147.410156 77.6875 L 132.769531 42.488281 L 110.128906 22.96875 L 83.410156 20.648438 L 61.570313 37.367188 L 55.011719 61.929688 L 55.410156 82.648438 C 61.410156 81.847656 67.488281 80.167969 73.648438 79.210938 L 73.820313 79.675781 L 52.316406 84.648438 L 52.214844 84.292969 C 52.289063 84.089844 53.570313 84.007813 54.050781 83.050781 C 54.503906 75.988281 53.75 68.515625 54 61.402344 C 54.082031 59.085938 61.011719 35.609375 61.011719 35.609375 Z M 96.558594 66.53125 C 106.859375 69.070313 115.128906 83.503906 108.152344 92.105469 C 107.683594 92.683594 106.976563 92.25 107.367188 91.554688 C 113.566406 80.5 103.445313 68.855469 94.929688 67.128906 C 90.53125 66.730469 86.609375 67.929688 84.050781 71.527344 C 84.222656 67.230469 90.523438 65.046875 96.558594 66.53125 Z M 86.53125 31.367188 C 89.417969 24.996094 98.457031 24.839844 104.886719 26.855469 C 120.847656 31.859375 115.246094 43.179688 103.011719 44.648438 C 96.53125 44.730469 90.449219 42.648438 86.929688 36.96875 C 86.289063 35.289063 85.328125 33.128906 86.53125 31.367188 Z M 101.410156 137.25 C 99.394531 136.976563 91.613281 135.152344 89.617188 134.496094 C 86.964844 133.628906 84.550781 132.425781 83.410156 129.6875 C 81.546875 122.238281 86.515625 120.535156 88.753906 120.335938 C 96.871094 119.601563 105.433594 123.042969 109.171875 129.527344 C 111.152344 134.730469 111.925781 138.683594 101.410156 137.25 Z M 45.808594 86.089844 L 46.691406 85.023438 L 47.328125 61.367188 L 38.628906 29.273438 L 38.929688 29.050781 C 39.628906 31.304688 45.507813 49.203125 47.730469 55.929688 C 50.160156 51.40625 52.136719 46.710938 54.230469 42.039063 C 54.617188 41.175781 54.976563 40.726563 54.523438 42.007813 C 52.949219 46.445313 49.855469 55.175781 49.164063 59.328125 C 48.851563 61.222656 48.195313 85.761719 48.125 85.84375 C 48.125 85.84375 46.511719 85.949219 45.808594 86.089844 Z M 32.371094 318.96875 C 33.636719 318.75 34.582031 318.390625 35.613281 318.042969 C 35.808594 317.976563 35.800781 318.242188 35.59375 318.421875 C 34.199219 319.628906 32.75 320.285156 30.625 321.640625 C 30.230469 322.058594 30.078125 322.730469 29.808594 323.277344 C 29.71875 323.460938 29.488281 323.273438 29.488281 323.273438 L 29.488281 321.6875 L 15.488281 315.371094 C 15.824219 314.53125 16.667969 312.976563 17.246094 311.925781 C 17.535156 311.398438 17.65625 311.691406 17.566406 312.085938 C 17.332031 313.097656 17.066406 314.09375 17.011719 315.128906 L 30.449219 320.730469 L 31.25 319.371094 C 31.25 319.371094 75.890625 181.449219 78.050781 166.730469 C 78.128906 148.410156 69.796875 132.484375 55.878906 120.085938 C 53.957031 114.003906 53.328125 107.609375 51.570313 101.449219 L 48.851563 101.289063 C 49.890625 100.890625 50.851563 100.410156 51.96875 100.328125 C 54.644531 106.273438 54.675781 113.300781 57.519531 119.171875 C 58.847656 121.910156 79.425781 142.726563 79.425781 142.726563 L 82.128906 143.898438 L 82.128906 144.246094 C 79.171875 143.289063 76.289063 141.929688 74.050781 139.289063 C 74.449219 141.367188 76.128906 143.449219 76.929688 145.609375 C 83.25 161.6875 76.289063 178.488281 72.53125 193.449219 Z M 257.738281 268.011719 C 255.160156 270.886719 243.558594 268.804688 237.410156 267.527344 L 168.289063 253.929688 L 145.648438 266.171875 L 51.246094 287.0625 C 51.246094 287.0625 47.570313 290.730469 45.96875 292.328125 L 50.609375 280.410156 L 51.378906 285.753906 L 147.011719 264.648438 C 153.890625 260.488281 161.089844 256.648438 167.730469 252.171875 L 167.730469 228.730469 C 164.929688 227.609375 160.445313 227.878906 157.566406 227 L 157.730469 221.289063 C 158.917969 222.664063 158.785156 223.472656 159.21875 225.171875 C 159.269531 225.382813 168.296875 226.496094 170.601563 227.585938 C 171.0625 227.804688 171.210938 228.570313 170.691406 228.578125 C 170.171875 228.589844 169.53125 228.570313 169.25 228.410156 C 169.011719 235.929688 169.011719 244.328125 169.25 252.171875 C 169.25 252.171875 237.957031 266.84375 241.871094 267.375 C 247.804688 268.179688 253.679688 268.621094 257.269531 267.648438 C 257.574219 267.566406 257.910156 267.820313 257.738281 268.011719 Z M 259.644531 262.5625 C 256.199219 265.410156 250.691406 264.246094 250.691406 264.246094 L 189.011719 251.371094 C 197.570313 248.089844 196.609375 238.488281 198.449219 231.289063 L 266.609375 247.769531 C 266.410156 253.425781 263.996094 258.96875 259.644531 262.5625 Z M 246.449219 238.890625 C 235.910156 236.015625 225.140625 233.785156 214.085938 232.199219 C 212.214844 231.929688 212.398438 231.285156 214.3125 231.347656 C 228.351563 231.804688 252.621094 239.46875 252.253906 239.15625 C 242.160156 230.570313 226.230469 220.660156 217.816406 210.085938 L 218.609375 209.210938 C 230.53125 222.96875 245.730469 230.570313 259.328125 241.210938 C 265.488281 243.929688 278.53125 247.371094 278.53125 247.371094 C 269.613281 237.945313 264.300781 222.121094 262.785156 211.589844 C 262.394531 208.886719 263.636719 208.964844 264.203125 211.113281 C 267.394531 223.269531 269.597656 235.839844 279.25 245.289063 C 280.769531 246.96875 282.371094 248.96875 284.289063 250.648438 Z M 306.214844 241.160156 C 306.554688 242.75 305.964844 243.371094 305.40625 242.046875 C 300.160156 229.605469 306.183594 212.253906 306.691406 197.289063 C 306.890625 193.371094 308.6875 189.949219 311.53125 187.300781 C 312.117188 186.757813 312.632813 187.28125 312.207031 188.019531 C 310.667969 190.683594 308.914063 193.261719 308.289063 196.328125 C 308.371094 196.96875 309.25 197.289063 309.808594 196.890625 C 320.738281 190.386719 330.457031 179.039063 343.804688 179.476563 C 345.40625 179.527344 345.40625 179.910156 343.8125 180.023438 C 330.164063 180.972656 320.5625 192.960938 308.316406 198.835938 C 307.027344 212.074219 303.3125 227.632813 306.214844 241.160156 Z M 373.171875 264.808594 C 380.050781 266.648438 388.289063 264.96875 394.449219 268.488281 C 394.609375 269.210938 395.011719 269.769531 394.851563 270.570313 C 388.289063 266.410156 372.066406 268.585938 373.171875 264.808594 Z M 384.304688 328.09375 C 388.585938 333.433594 396.023438 335.703125 403.328125 334.167969 C 403.328125 334.167969 405.441406 334.921875 404.621094 335.425781 C 400.777344 337.773438 391.320313 336.265625 387.171875 332.96875 C 385.574219 331.714844 384.464844 330.257813 383.785156 328.597656 C 383.511719 327.925781 383.894531 327.585938 384.304688 328.09375 Z M 405.96875 368.488281 C 406.066406 372.5 388.890625 380.09375 380.730469 374.335938 L 380.050781 372.167969 C 388.851563 376.410156 398.289063 372.089844 405.96875 368.488281 Z M 412.289063 230.648438 C 398.851563 224.808594 384.210938 218.890625 370.851563 211.289063 C 365.25 210.089844 360.050781 214.171875 356.449219 218.808594 C 354.050781 222.890625 352.449219 227.371094 351.25 232.007813 C 348.609375 232.171875 345.890625 232.410156 343.171875 232.570313 L 350.128906 239.847656 C 351.570313 244.824219 351.5625 250.445313 354.453125 254.820313 C 355.09375 255.792969 354.773438 256.203125 353.722656 255.472656 C 351.953125 254.246094 350.28125 252.851563 349.328125 251.050781 C 349.808594 242.808594 346.210938 235.769531 339.730469 231.050781 C 342.769531 230.648438 345.808594 230.328125 348.769531 229.929688 C 350.53125 224.171875 350.210938 217.289063 355.648438 213.371094 C 360.691406 210.488281 367.410156 208.167969 372.769531 209.769531 C 377.570313 212.007813 382.289063 214.410156 387.011719 217.050781 L 387.570313 216.890625 C 393.328125 208.890625 398.050781 200.488281 400.449219 191.128906 C 401.171875 190.410156 402.011719 189.648438 402.921875 189.226563 C 403.832031 188.808594 404.507813 189.605469 404.003906 189.855469 C 402.5 190.601563 401.8125 192.0625 401.296875 193.660156 C 400.757813 195.316406 394.09375 212.914063 390.816406 218.835938 L 413.066406 229.835938 Z M 441.089844 233.929688 C 441.96875 235.210938 438.128906 248.648438 437.890625 254.089844 C 438.691406 266.488281 442.371094 280.808594 436.929688 292.648438 C 436.734375 296.875 436.488281 299.515625 436.703125 303.105469 C 436.753906 303.933594 436.136719 303.558594 436.136719 303.558594 L 428.851563 283.289063 C 434.609375 270.808594 438.609375 254.328125 430.53125 241.609375 C 427.410156 237.128906 422.449219 234.730469 417.890625 232.570313 C 425.011719 233.371094 433.25 234.328125 441.089844 233.929688 Z M 419.546875 301.058594 C 419.378906 301.675781 419.113281 301.648438 419.214844 301.011719 C 420.003906 295.914063 422.777344 290.179688 426.691406 285.769531 C 427.566406 286.25 427.730469 286.585938 424.925781 289.972656 C 424.78125 294.175781 431.953125 309.488281 433.316406 313.167969 C 434.515625 312.527344 435.011719 311.527344 436.289063 310.570313 L 436.898438 310.835938 L 428.898438 321.167969 L 428.449219 320.730469 L 432.054688 314.421875 L 424.449219 291.6875 C 421.386719 293.800781 420.523438 297.527344 419.546875 301.058594 Z M 424.246094 331.417969 C 424.246094 329.398438 425.878906 327.765625 427.898438 327.765625 C 429.914063 327.765625 431.550781 329.398438 431.550781 331.417969 C 431.550781 333.433594 429.914063 335.070313 427.898438 335.070313 C 425.878906 335.070313 424.246094 333.433594 424.246094 331.417969 Z M 456.691406 300.730469 L 442.691406 322.25 L 443.5 329 C 443.5 329 443.589844 331.523438 443.21875 329.40625 C 442.773438 326.875 442.28125 324.210938 441.890625 323.207031 L 437.25 329.929688 C 439.890625 341.769531 443.089844 353.371094 446.128906 365.050781 L 450.128906 362.167969 L 446.53125 366.96875 L 457.808594 372.328125 L 457.816406 372.667969 L 433.066406 363.667969 L 433.25 363.128906 L 444.769531 365.449219 L 436.53125 331.449219 C 434.289063 333.527344 431.96875 338.328125 427.890625 338.007813 C 429.730469 336.570313 433.011719 335.527344 432.851563 332.648438 C 433.203125 328.398438 429.296875 326.421875 425.570313 326.890625 C 425.570313 326.890625 424.925781 326.789063 425.359375 326.609375 C 426.355469 326.199219 427.894531 326.265625 429.011719 326.488281 C 432.402344 327.414063 433.328125 329.398438 433.542969 330.757813 C 433.675781 331.574219 433.648438 333.769531 433.648438 333.769531 L 455.890625 301.128906 C 456.289063 299.609375 455.410156 298.089844 454.371094 296.890625 C 453.171875 295.449219 451.570313 295.050781 449.730469 294.96875 L 443.054688 302.226563 L 442.824219 302.074219 L 448.449219 294.96875 C 450.449219 293.050781 453.648438 294.328125 455.328125 296.171875 C 456.289063 297.449219 456.929688 299.128906 456.691406 300.730469 Z M 442.050781 275.210938 C 448.316406 279.835938 459.171875 277.929688 459.171875 277.929688 C 457.488281 284.246094 442.074219 280.769531 442.050781 275.210938 "/>
</g>
</svg>
