<?xml version="1.0" encoding="UTF-8"?>
<svg xmlns="http://www.w3.org/2000/svg" xmlns:xlink="http://www.w3.org/1999/xlink" width="517pt" height="331pt" viewBox="0 0 517 331" version="1.1">
<g id="surface1">
<path style=" stroke:none;fill-rule:nonzero;fill:rgb(0%,0%,0%);fill-opacity:1;" d="M 514.453125 295.09375 C 506.6875 292.222656 499.824219 287.253906 492.964844 282.285156 C 484.074219 275.914063 473.644531 273.253906 464.546875 267.375 L 442.425781 222.855469 L 432.136719 203.675781 C 426.046875 192.683594 410.574219 188.695313 408.476563 175.953125 C 419.605469 179.382813 431.015625 182.394531 441.863281 186.523438 C 445.4375 189.605469 448.9375 194.222656 453.976563 194.292969 C 457.476563 193.945313 463.195313 194.578125 466.625 195 C 467.324219 193.320313 467.296875 190.589844 464.5 189.25 C 462.800781 188.433594 461.113281 187.503906 459.503906 187.222656 C 459.785156 185.613281 461.535156 184.214844 462.863281 183.515625 C 470.003906 181.414063 477.914063 184.703125 484.914063 183.375 C 487.996094 182.183594 492.195313 181.0625 492.964844 177.144531 C 491.351563 175.058594 488.316406 175.519531 485.265625 175.953125 C 473.226563 174.554688 461.75 172 448.585938 174.765625 L 430.453125 162.023438 C 435.144531 159.433594 440.535156 157.683594 443.894531 152.644531 C 449.847656 144.105469 456.5625 132.765625 450.476563 122.402344 C 445.644531 113.792969 436.894531 104.625 426.253906 105.042969 C 414.984375 105.535156 406.023438 112.042969 394.6875 111.765625 C 383.347656 108.542969 373.824219 101.054688 362.90625 96.855469 L 314.886719 78.863281 C 313.136719 74.382813 312.4375 69.484375 309.703125 65.425781 C 319.4375 58.285156 327.0625 47.433594 335.535156 39.035156 C 340.925781 32.382813 348.976563 25.382813 344.773438 16.214844 C 341.625 9.214844 334.554688 2.773438 327.347656 0.742188 C 312.871094 -1.980469 299.648438 3.410156 294.023438 27.972656 C 291.382813 34.460938 285.40625 29.957031 281.371094 26.574219 C 274.882813 21.136719 271.066406 12.066406 263.503906 7.605469 C 255.523438 5.433594 248.523438 9.492188 242.503906 13.835938 C 229.976563 27.34375 217.375 40.644531 210.234375 56.535156 L 195.253906 88.242188 C 186.433594 98.464844 176.003906 108.542969 164.734375 114.632813 C 161.234375 115.824219 158.15625 114.214844 155.636719 112.113281 C 148.074219 102.453125 139.070313 92.78125 128.5 89 C 111.070313 84.238281 94 82.5 79.335938 67.804688 C 77.726563 60.453125 77.445313 52.265625 72.125 46.804688 C 60.292969 45.753906 50.636719 52.054688 39.855469 54.644531 C 30.125 55.273438 22.144531 60.242188 13.675781 64.09375 C 6.816406 67.664063 0.304688 74.945313 1.425781 83.0625 C 2.476563 85.933594 5.695313 86.632813 8.496094 86.914063 C 16.335938 86.074219 25.015625 85.652344 32.996094 86.5625 C 45.246094 88.523438 58.476563 87.964844 68.414063 95.523438 C 73.59375 99.304688 80.527344 98.882813 86.054688 101.683594 C 95.644531 108.472656 102.503906 117.222656 111.113281 125.765625 L 111.113281 126.253906 C 107.964844 128.144531 104.675781 129.683594 101.734375 132.132813 C 92.285156 137.734375 89.34375 147.464844 86.40625 156.492188 C 78.214844 164.265625 74.15625 173.714844 70.445313 183.375 L 50.144531 236.785156 C 43.914063 237.484375 37.824219 238.464844 32.503906 241.125 C 23.125 247.003906 30.335938 258.835938 30.824219 267.023438 C 32.949219 275.28125 30.691406 283.359375 30.128906 291.433594 C 29.835938 295.609375 32.980469 309.875 34.019531 312.675781 C 34.984375 315.285156 36.59375 317.324219 40.207031 317.421875 C 46 317.5 47.5 316.5 51.964844 305.804688 C 58 307.5 64.5 307 63.585938 298.101563 C 63.375 292.992188 61.136719 288.09375 62.253906 283.125 C 66.527344 273.113281 71.84375 263.453125 79.335938 254.773438 C 95.015625 241.195313 110.976563 228.105469 128.40625 218.792969 L 185.386719 191.214844 C 192.703125 195.347656 199.808594 201.007813 211.5 206.164063 C 225.21875 213.308594 243.835938 214.035156 260.285156 212.914063 C 259.285156 221.730469 254.90625 231.914063 256.164063 246.832031 L 264.136719 287.671875 L 264.484375 295.933594 C 263.363281 306.085938 255.386719 317.84375 263.996094 327.152344 C 269.195313 332.546875 277.175781 331.609375 282.71875 329.816406 C 291.15625 327.085938 300.410156 326.230469 308.304688 322.253906 C 312.785156 320.152344 325.304688 316.117188 325.164063 310.167969 C 324.328125 304.007813 317.535156 301.417969 312.425781 300.296875 C 306.035156 300.355469 293.941406 299.761719 289.398438 295.648438 C 286.089844 292.652344 291.539063 268.027344 293.515625 254.550781 C 295.980469 237.699219 295.230469 219.195313 296.835938 202.835938 C 298.5 185.835938 295.425781 180.222656 287.164063 172.453125 L 269.523438 161.324219 C 277.363281 161.675781 285.414063 162.515625 293.046875 163.84375 C 309.003906 166.152344 323.214844 172.804688 338.054688 177.773438 L 373.546875 189.535156 C 381.105469 193.875 386.5625 201.992188 393.355469 207.734375 C 402.105469 218.09375 405.464844 231.042969 414.144531 241.613281 L 445.085938 272.554688 C 449.214844 275.773438 450.40625 280.253906 451.664063 284.664063 C 452.925781 291.242188 459.4375 295.792969 465.597656 297.054688 C 467.695313 298.101563 469.785156 301.886719 472.164063 302.167969 C 475.164063 301.167969 473.316406 297.425781 472.945313 292.714844 C 472.453125 291.242188 470.847656 290.265625 469.585938 289.492188 C 471.335938 287.535156 473.574219 286.902344 476.164063 286.972656 C 486.734375 288.792969 493.734375 297.664063 504.164063 299.832031 C 508.226563 300.183594 513.476563 302.09375 516.273438 298.945313 C 516.695313 297.472656 515.855469 295.863281 514.453125 295.09375 Z M 64.566406 88.59375 C 63.167969 84.164063 71.003906 76.0625 77.515625 74.523438 C 78.425781 74.664063 79.335938 74.734375 80.035156 75.363281 C 73.804688 77.042969 68.625 83.273438 64.566406 88.59375 Z M 242.6875 156.234375 C 226.429688 169.234375 209.863281 181.40625 190.675781 187.328125 C 189.414063 187.71875 190.375 186.5625 190.375 186.5625 L 196.445313 183.375 C 195.324219 174.34375 190.355469 166.574219 185.664063 158.804688 C 177.40625 162.164063 165.15625 167.484375 157.175781 159.855469 L 153.253906 157.335938 C 149.824219 162.722656 146.746094 168.253906 141.84375 173.085938 C 134.285156 177.003906 124.765625 176.234375 117.136719 180.152344 C 113.984375 182.042969 112.445313 185.542969 110.976563 188.554688 L 101.523438 211.09375 L 75.695313 242.804688 C 70.871094 249.953125 67.3125 257.558594 64.804688 265.621094 C 64.367188 267.03125 63.464844 267.183594 63.542969 265.835938 C 64.246094 253.84375 72.066406 242.160156 80.875 232.722656 C 79.128906 222.492188 73.808594 218.699219 67.332031 214.257813 C 65.855469 213.246094 66.34375 212.546875 68.074219 213.359375 C 73.859375 216.089844 79.34375 220.101563 81.714844 226.355469 C 82.414063 227.472656 82.765625 228.664063 83.535156 229.714844 C 92.496094 218.933594 102.085938 208.085938 105.234375 194.785156 C 107.195313 185.824219 111.5 176.835938 124.414063 175.113281 C 130.933594 174.246094 138.34375 173.503906 142.054688 166.222656 L 149.40625 154.605469 C 140.535156 148.421875 124.859375 136.160156 116.164063 129.5 C 113.539063 127.488281 116.734375 128.699219 116.734375 128.699219 L 157.175781 155.792969 C 161.234375 157.964844 162.757813 160.363281 167.164063 161.835938 C 171.898438 161.074219 176.667969 159.335938 179.15625 158.664063 C 189.375 155.722656 198.476563 150.125 206.875 142.84375 C 204.242188 129.261719 200.957031 121.121094 189.859375 113.636719 C 187.828125 112.269531 188.59375 111.722656 190.964844 112.894531 C 205.132813 119.882813 206.570313 128.074219 213.59375 140.882813 L 242.5 121.5 C 242.5 121.5 245.285156 120.90625 243.695313 122.402344 C 230.625 134.660156 204.46875 148.839844 189.863281 157.824219 L 199.453125 181.695313 C 200.246094 182.378906 228.105469 164.582031 241.789063 155.769531 C 246.265625 152.886719 244.871094 154.488281 242.6875 156.234375 Z M 255.160156 124.53125 C 255.25 125.542969 254.175781 126.046875 253.6875 124.761719 C 251.503906 118.992188 250.90625 107.007813 251.535156 98.535156 C 252.976563 93.550781 254.589844 87.515625 253.367188 82.199219 C 253.042969 80.792969 241.945313 64.792969 238.09375 57.722656 C 227.246094 62.132813 201.59375 85.917969 201.59375 85.917969 C 201.59375 85.917969 199.535156 85.890625 200.898438 83.976563 C 207.832031 74.230469 225.089844 61.304688 236.90625 53.175781 C 238.65625 53.175781 239.546875 54.1875 240.230469 55.449219 C 240.914063 56.710938 256.226563 74.664063 258.605469 84.253906 C 258.242188 90.574219 255.234375 95.785156 254.203125 101.839844 C 253.84375 103.964844 254.6875 119.261719 255.160156 124.53125 Z M 281.984375 280.253906 C 281.5 283.375 267.25 281.5 266.304688 279.273438 C 271.414063 279.835938 277.574219 280.953125 281.984375 280.253906 Z M 306.207031 76.050781 C 294.6875 71.933594 283.632813 65.589844 270.855469 65.914063 L 271.695313 80.054688 C 274.847656 88.804688 278.695313 97.273438 281.636719 106.09375 C 282.894531 115.175781 278.128906 122.25 275.9375 130.328125 C 273.691406 138.59375 275.546875 146.902344 275.546875 146.902344 C 268.164063 140.5 272.046875 128.492188 277.085938 121.214844 C 279.394531 115.683594 281.003906 109.464844 278.835938 103.164063 C 276.242188 94.90625 271.058594 87.707031 269.164063 79.164063 C 268.390625 68.246094 267.800781 50.589844 268.519531 42.503906 C 268.710938 40.375 269.632813 41.121094 269.722656 42.507813 C 270.015625 46.957031 270.113281 51.558594 270.429688 56.171875 C 270.507813 57.34375 272.316406 56.085938 272.316406 56.085938 L 280.859375 36.929688 C 280.859375 36.929688 282.332031 35.15625 281.5 37.835938 C 279.582031 44.003906 274.648438 57.730469 272.746094 63.882813 C 284.246094 64.71875 299.425781 70.136719 306.34375 74.738281 C 307.550781 75.539063 307.183594 76.398438 306.207031 76.050781 Z M 407.601563 172.414063 C 407.058594 169.101563 406.472656 165.269531 402.734375 164.195313 C 383 159.351563 361.824219 157.046875 344.597656 146.34375 C 313.222656 126.851563 312 99.167969 322.773438 91.414063 C 324.132813 90.4375 324.832031 91.46875 323.871094 92.773438 C 320.476563 97.402344 318.960938 102.382813 319.835938 108.5 C 321.792969 125.316406 336.644531 139.628906 354.5 148.164063 C 369.269531 155.226563 385.875 157.414063 400.914063 162.023438 C 402.664063 162.863281 404.554688 163.492188 406.097656 164.894531 C 412.597656 165.976563 419.394531 165.203125 425.523438 163.679688 C 426.125 163.53125 426.234375 163.710938 425.6875 163.929688 C 420.128906 166.167969 407.144531 167.0625 407.144531 167.0625 C 407.605469 168.667969 408.0625 170.464844 407.945313 172.253906 C 407.917969 172.644531 407.660156 172.761719 407.601563 172.414063 Z M 465.871094 289.59375 C 461.796875 290.164063 455.148438 285.054688 453.25 280.875 L 453.625 279.414063 C 456.414063 284.214844 460.824219 287.632813 465.859375 288.941406 C 466.257813 289.046875 466.300781 289.53125 465.871094 289.59375 "/>
</g>
</svg>
