<?xml version="1.0" encoding="UTF-8"?>
<svg xmlns="http://www.w3.org/2000/svg" xmlns:xlink="http://www.w3.org/1999/xlink" width="544pt" height="422pt" viewBox="0 0 544 422" version="1.1">
<g id="surface1">
<path style=" stroke:none;fill-rule:nonzero;fill:rgb(6.886292%,6.254578%,5.79071%);fill-opacity:1;" d="M 475.628906 84.757813 L 469.878906 36.273438 L 482.632813 32.453125 L 481.363281 22.878906 L 467.960938 20.339844 L 468.601563 10.125 L 459.675781 -0.0703125 L 83.304688 0.558594 L 55.238281 17.140625 L 1.023438 18.421875 L 1.664063 29.90625 C 1.664063 29.90625 22.714844 24.796875 32.269531 34.375 C 41.84375 43.929688 37.386719 61.800781 37.386719 61.800781 L 25.902344 378.164063 L 12.507813 389.65625 L 12.507813 409.429688 L 15.058594 412.605469 L 26.53125 412.605469 L 31.011719 408.148438 L 439.902344 413.886719 L 441.171875 421.542969 L 451.378906 420.902344 L 473.066406 374.984375 L 478.804688 371.785156 L 494.117188 336.703125 L 483.910156 334.164063 L 486.460938 324.589844 L 480.085938 314.375 L 535.574219 290.148438 L 543.230469 272.273438 L 543.230469 108.996094 Z M 445 18.421875 L 455.847656 6.945313 L 451.796875 18.066406 L 461.59375 19.699219 L 62.253906 20.96875 Z M 471.789063 368.589844 L 456.484375 376.242188 L 448.199219 404.332031 L 445 416.445313 L 443.082031 103.261719 L 446.28125 79.011719 L 445 77.730469 L 442.453125 82.851563 L 424.589844 83.488281 L 422.671875 390.296875 L 437.984375 393.476563 L 68.640625 387.738281 L 417.574219 389.65625 L 419.492188 84.117188 L 369.097656 46.488281 L 111.371094 48.40625 L 73.109375 76.472656 L 71.828125 152.363281 L 78.207031 150.457031 C 78.207031 150.457031 78.847656 146 85.863281 134.503906 C 92.867188 123.03125 94.789063 121.109375 94.789063 121.109375 C 94.789063 121.109375 95.425781 100.0625 102.433594 80.929688 C 109.460938 61.800781 117.746094 61.800781 122.214844 66.257813 C 126.683594 70.726563 133.699219 96.871094 133.699219 96.871094 C 133.699219 96.871094 120.945313 63.058594 114.570313 68.816406 C 108.179688 74.554688 99.894531 91.765625 99.894531 108.996094 C 99.894531 126.21875 94.148438 197.652344 99.894531 232.734375 C 105.632813 267.816406 117.746094 252.507813 119.664063 244.847656 C 121.574219 237.191406 124.761719 225.078125 124.761719 225.078125 C 124.761719 225.078125 124.121094 257.601563 111.371094 260.160156 C 98.617188 262.722656 94.148438 250.605469 92.867188 230.816406 C 91.597656 211.046875 95.425781 128.765625 95.425781 128.765625 L 82.035156 153.015625 L 69.269531 159.390625 L 68.640625 77.113281 L 61.613281 86.027344 L 60.355469 212.324219 L 69.269531 211.046875 L 80.113281 221.902344 L 78.847656 174.683594 L 84.582031 231.453125 L 69.269531 217.421875 L 66.722656 346.917969 L 65.441406 216.164063 L 59.714844 218.0625 L 57.796875 371.148438 L 127.320313 294.605469 L 129.242188 245.488281 L 134.339844 295.886719 L 398.445313 296.523438 L 129.859375 300.34375 L 58.4375 378.800781 L 55.878906 390.917969 L 31.011719 387.738281 L 29.089844 390.917969 L 25.902344 406.867188 L 24.621094 392.835938 L 14.417969 390.296875 L 23.992188 389.019531 L 29.089844 384.539063 L 52.6875 385.820313 L 54.609375 81.570313 L 40.574219 78.371094 L 58.4375 77.730469 L 64.8125 71.355469 L 67.992188 31.8125 L 69.269531 70.085938 L 108.179688 43.929688 L 369.738281 42.019531 L 408.640625 70.085938 L 411.839844 24.796875 L 413.105469 73.914063 L 421.394531 79.011719 L 440.53125 78.371094 L 445.640625 66.257813 L 442.453125 38.191406 L 454.566406 29.265625 L 471.15625 31.175781 L 456.484375 32.453125 L 447.5625 40.109375 L 450.097656 77.113281 L 446.921875 100.699219 C 446.921875 100.699219 473.707031 81.570313 471.789063 84.117188 C 469.878906 86.667969 446.921875 108.355469 446.921875 108.355469 L 445.640625 326.488281 L 455.207031 314.375 L 473.066406 312.476563 L 458.394531 318.214844 L 445.640625 336.703125 L 446.28125 400.492188 L 453.925781 373.066406 L 466.691406 367.332031 L 478.804688 339.265625 Z M 404.820313 126.21875 C 407.359375 125.578125 408.640625 123.03125 408.640625 123.03125 C 408.640625 123.03125 409.917969 125.578125 409.277344 128.128906 C 408.640625 130.6875 405.460938 130.6875 405.460938 130.6875 L 108.179688 127.488281 C 108.179688 127.488281 402.261719 126.859375 404.820313 126.21875 Z M 397.164063 98.152344 C 398.886719 87.785156 403.203125 82.117188 404.03125 81.109375 C 404.128906 80.984375 404.183594 80.929688 404.183594 80.929688 C 404.183594 80.929688 404.121094 81.003906 404.03125 81.109375 C 403.386719 81.949219 400.828125 86.015625 399.714844 98.78125 C 398.445313 113.453125 396.523438 121.109375 396.523438 121.109375 C 396.523438 121.109375 395.246094 109.636719 397.164063 98.152344 Z M 395.246094 160.648438 C 395.246094 178.523438 395.246094 187.4375 395.246094 187.4375 C 395.246094 187.4375 392.066406 172.144531 392.707031 159.390625 C 393.324219 146.640625 394.605469 134.503906 394.605469 134.503906 C 394.605469 134.503906 395.246094 142.800781 395.246094 160.648438 Z M 404.183594 200.210938 C 410.558594 199.570313 409.277344 191.277344 409.277344 191.277344 C 409.277344 191.277344 411.199219 193.195313 411.199219 195.753906 C 411.199219 198.292969 410.558594 204.027344 408 204.667969 C 405.460938 205.308594 108.820313 204.027344 108.820313 204.027344 C 108.820313 204.027344 397.792969 200.851563 404.183594 200.210938 Z M 409.277344 248.046875 C 413.105469 258.882813 412.46875 263.359375 412.46875 263.359375 C 412.46875 263.359375 408 259.519531 404.820313 247.40625 C 401.621094 235.296875 399.714844 212.964844 399.714844 212.964844 C 399.714844 212.964844 405.460938 237.191406 409.277344 248.046875 Z M 489.660156 266.539063 L 490.277344 255.0625 L 494.117188 262.722656 L 515.167969 265.28125 Z M 509.417969 210.40625 C 504.949219 210.40625 490.917969 212.324219 489.019531 193.195313 C 487.101563 174.066406 508.789063 168.945313 508.789063 168.945313 C 508.789063 168.945313 503.054688 174.683594 498.574219 179.800781 C 494.117188 184.898438 492.839844 188.738281 492.839844 188.738281 L 520.265625 191.914063 L 493.476563 193.195313 C 493.476563 193.195313 498.574219 204.667969 504.949219 205.308594 C 511.339844 205.949219 520.902344 201.492188 520.902344 201.492188 C 520.902344 201.492188 513.886719 210.40625 509.417969 210.40625 Z M 462.210938 153.65625 L 456.484375 267.816406 L 458.394531 147.257813 L 473.066406 96.871094 L 466.050781 146 L 535.574219 130.046875 L 462.210938 153.65625 "/>
</g>
</svg>
