<?xml version="1.0" encoding="UTF-8"?>
<svg xmlns="http://www.w3.org/2000/svg" xmlns:xlink="http://www.w3.org/1999/xlink" width="498pt" height="590pt" viewBox="0 0 498 590" version="1.1">
<g id="surface1">
<path style=" stroke:none;fill-rule:nonzero;fill:rgb(0%,0%,0%);fill-opacity:1;" d="M 300.863281 69.351563 C 306.445313 73.488281 315.175781 75.019531 321.65625 71.78125 C 327.503906 69.078125 332.546875 62.871094 333.535156 56.660156 C 334.976563 49.460938 332.453125 43.429688 328.316406 38.300781 C 322.734375 32 313.644531 30.289063 305.816406 33.078125 C 299.605469 35.242188 294.65625 41.539063 293.125 47.75 C 291.503906 56.210938 294.113281 64.128906 300.863281 69.351563 Z M 306.265625 51.441406 C 306.625 48.25 308.246094 45.769531 311.035156 44.78125 C 313.914063 43.789063 317.066406 44.511719 319.046875 46.941406 C 320.574219 48.828125 321.113281 51.351563 320.574219 53.871094 C 319.855469 56.121094 317.875 58.101563 315.535156 58.820313 C 313.285156 59.359375 310.855469 58.910156 309.054688 57.472656 C 307.433594 55.851563 305.996094 53.960938 306.265625 51.441406 Z M 473.933594 103.28125 L 401.125 84.289063 C 393.113281 70.070313 377.816406 65.929688 363.773438 62.691406 C 365.933594 51.980469 364.136719 40.191406 360.085938 30.742188 C 349.285156 7.339844 323.183594 -4.898438 298.253906 2.660156 C 282.773438 6.890625 268.644531 21.742188 264.144531 36.949219 C 251.09375 33.078125 233.453125 29.121094 221.394531 37.851563 L 149.664063 19.039063 C 126.832031 13.667969 112.855469 32.179688 109.976563 42.800781 C 109.976563 42.800781 6.472656 450.101563 2.605469 465.53125 C -1.261719 480.960938 2.984375 498.394531 24.023438 504.589844 L 349.734375 588.648438 C 355.265625 589.945313 361.074219 589.371094 365.933594 587.75 C 375.925781 584.960938 385.925781 576.824219 388.796875 566.152344 C 388.796875 566.152344 492.328125 158.296875 496.164063 141.980469 C 500 125.664063 489.835938 106.835938 473.933594 103.28125 Z M 232.195313 51.441406 C 236.15625 49.730469 241.105469 49.28125 245.605469 50.179688 L 276.023438 58.191406 C 279 46.625 280.164063 35.242188 289.886719 27.230469 C 299.246094 18.050781 313.195313 15.710938 325.523438 20.121094 C 332.726563 23.089844 339.476563 28.492188 343.253906 35.691406 C 350.90625 47.210938 346.316406 63.140625 342.984375 75.199219 L 375.386719 83.839844 C 383.484375 86.898438 389.335938 95.359375 389.425781 103.910156 L 388.976563 110.210938 L 415.796875 117.589844 C 420.824219 119.078125 423.714844 124.429688 424.886719 129.019531 C 425.335938 131.722656 425.066406 134.78125 424.253906 137.210938 L 176.035156 72.859375 C 177.5 66.335938 179.730469 63.25 184.5 61 C 187.5625 59.613281 192.207031 59.570313 195.746094 60.351563 L 219.414063 66.5625 C 221.574219 60.441406 225.804688 54.140625 232.195313 51.441406 Z M 426.144531 147.382813 C 429.203125 143.421875 430.144531 137.519531 430.234375 132.390625 L 450.355469 137.660156 L 351.894531 527.089844 L 53.816406 449.960938 L 152.546875 60.351563 L 173.066406 65.480469 C 170.363281 69.621094 168.835938 74.660156 168.925781 80.148438 Z M 478.433594 134.601563 L 371.695313 560.300781 C 369.894531 565.882813 362.835938 573.292969 352.074219 570.742188 C 344.828125 569.023438 31.585938 487.941406 31.585938 487.941406 C 26.273438 486.410156 21.792969 481.074219 20.785156 475.429688 C 19.261719 466.921875 22.597656 459.625 24.835938 451.222656 L 127.703125 47.121094 C 129.164063 40.335938 134.164063 34.667969 142.105469 36.769531 L 218.785156 56.03125 C 218.785156 56.03125 217.285156 59.015625 216.445313 60.53125 C 202.175781 57.03125 183.910156 49.539063 174.953125 62.691406 L 150.566406 56.210938 L 49.945313 451.671875 L 353.335938 530.960938 L 454.164063 135 C 454.164063 135 437.933594 131 429.835938 128.75 C 429.5 122.5 426.164063 115.664063 418.585938 113.269531 C 410.835938 111 402.476563 108.769531 394.375 106.519531 L 394.375 101.570313 L 449.273438 115.609375 C 465.164063 119.835938 481.25 122 478.433594 134.601563 Z M 381.054688 96.351563 C 378.714844 98.238281 376.105469 99.050781 373.046875 98.960938 L 239.144531 64.585938 C 236.976563 64.089844 234.175781 60.710938 232.824219 58.191406 C 228.773438 60.351563 225.714844 64.492188 225.265625 68.988281 L 382.617188 109.605469 C 384.328125 105.464844 383.574219 99.859375 381.054688 96.351563 Z M 380.605469 105.890625 L 228.953125 66.828125 C 229.496094 65.210938 230.664063 63.589844 232.015625 62.511719 C 234.265625 65.390625 237.324219 67.191406 240.65625 68.089844 L 373.046875 102.019531 C 375.621094 102.605469 377.816406 101.839844 379.703125 100.671875 C 380.695313 102.019531 380.605469 104 380.605469 105.890625 Z M 183.785156 67.558594 C 185.203125 67.894531 419.339844 128.429688 419.339844 128.429688 C 420.886719 128.863281 420.699219 131.648438 418.53125 131.152344 L 183.144531 70.070313 C 180.9375 69.292969 181.765625 67.078125 183.785156 67.558594 "/>
</g>
</svg>
