<?xml version="1.0" encoding="UTF-8"?>
<svg xmlns="http://www.w3.org/2000/svg" xmlns:xlink="http://www.w3.org/1999/xlink" width="385pt" height="666pt" viewBox="0 0 385 666" version="1.1">
<g id="surface1">
<path style=" stroke:none;fill-rule:nonzero;fill:rgb(0%,0%,0%);fill-opacity:1;" d="M 199.855469 0.855469 C 212.453125 -3.34375 213.355469 17.652344 225.652344 7.152344 C 232.253906 5.355469 235.25 12.550781 237.347656 16.453125 C 239.75 20.949219 245.445313 19.75 248.746094 23.050781 C 255.34375 28.148438 252.046875 41.347656 263.144531 41.046875 C 273.941406 42.546875 270.339844 65.339844 285.640625 59.042969 C 298.535156 64.738281 280.242188 83.335938 298.535156 84.835938 C 301.234375 89.636719 301.234375 97.132813 299.136719 102.230469 C 285.640625 108.53125 303.636719 115.128906 297.636719 123.828125 C 291.9375 133.425781 274.539063 124.726563 275.441406 139.722656 C 270.644531 145.722656 265.84375 152.921875 258.046875 154.722656 C 245.445313 148.421875 231.050781 143.625 217.851563 153.222656 C 201.140625 172.035156 191.160156 225.203125 191.160156 225.203125 C 226.253906 205.710938 261.941406 187.414063 295.535156 161.921875 C 299.136719 182.613281 284.738281 199.410156 277.539063 216.507813 C 259.246094 241.101563 232.550781 257.597656 202.855469 260.597656 C 176.726563 283.726563 176.765625 348.476563 176.765625 348.476563 C 207.058594 311.585938 260.746094 321.785156 301.234375 305.289063 C 280.839844 350.277344 235.550781 373.972656 189.0625 377.269531 C 184.261719 378.769531 178.5625 381.171875 176.765625 386.566406 C 176.464844 422.5625 174.0625 461.253906 178.859375 496.042969 C 178.859375 496.042969 207.40625 421.828125 282.039063 382.070313 C 281.140625 394.96875 273.042969 407.863281 267.644531 420.464844 C 267.644531 420.464844 307.832031 401.867188 326.429688 395.867188 C 321.03125 419.863281 302.734375 438.460938 284.140625 454.957031 C 320.132813 454.957031 349.824219 436.058594 384.019531 429.761719 C 363.621094 484.949219 301.835938 485.847656 253.246094 496.042969 C 239.449219 500.542969 225.652344 505.945313 214.855469 516.140625 C 338 564 341.425781 657.710938 341.726563 665.808594 C 341.726563 665.808594 273 555.132813 189.660156 551.234375 C 189.0625 562.933594 187.261719 588.425781 186.0625 588.722656 C 156.96875 537.4375 93.683594 549.433594 52.890625 516.140625 C 31.292969 500.84375 14.199219 484.046875 1.300781 461.253906 C 21.097656 471.148438 41.492188 480.148438 63.089844 485.847656 C 103.277344 490.347656 169.566406 534.738281 169.566406 534.738281 C 164.765625 488.246094 158.769531 393.769531 158.769531 393.769531 C 106.769531 445.769531 14.796875 448.355469 14.796875 448.355469 C 78 369 131.472656 364.074219 131.472656 364.074219 C 109.878906 352.675781 81.085938 343.378906 70.285156 316.683594 L 50.789063 255.496094 C 50.789063 255.496094 122.316406 288.480469 158.167969 345.480469 C 158.167969 345.480469 180.359375 285.492188 156.066406 265.695313 C 150.671875 260.898438 143.46875 259.996094 138.070313 255.496094 C 115.878906 247.402344 89.78125 237.804688 78.085938 215.308594 C 65.488281 198.511719 64.886719 176.917969 56.488281 158.320313 C 56.488281 158.320313 123.589844 180.847656 162.363281 245.300781 C 162.964844 208.710938 152.46875 170.617188 131.472656 138.222656 C 131.175781 137.324219 132.074219 135.824219 130.871094 135.226563 C 127.273438 140.023438 121.273438 140.925781 116.476563 140.324219 C 107.777344 131.027344 102.378906 148.421875 92.480469 142.425781 C 71.835938 163.070313 52.589844 146.921875 52.289063 138.222656 C 18.8125 126.238281 36.394531 104.332031 27.695313 96.535156 C 25.898438 87.234375 27.398438 77.9375 32.195313 70.441406 C 37.894531 65.640625 51.089844 63.839844 45.691406 52.445313 C 43.59375 47.644531 45.394531 40.746094 48.09375 35.949219 C 52.289063 24.25 71.484375 33.246094 71.785156 17.351563 C 80.484375 11.953125 91.882813 19.453125 99.082031 10.753906 C 105.976563 11.351563 111.679688 14.953125 117.675781 17.953125 C 122.773438 9.554688 131.472656 5.652344 140.769531 8.652344 C 147.371094 9.855469 150.671875 -0.0429688 158.167969 0.855469 C 169.265625 5.652344 181.5625 -6.34375 191.160156 4.453125 Z M 176.164063 22.449219 C 167.464844 20.050781 162.066406 25.449219 157.269531 30.246094 C 152.769531 41.046875 138.371094 29.347656 132.074219 40.445313 C 129.675781 45.246094 127.273438 53.042969 131.472656 58.441406 C 136.570313 68.039063 122.773438 67.738281 124.875 77.039063 C 128.175781 83.9375 132.671875 94.136719 142.871094 92.035156 C 140.472656 88.734375 130.574219 76.074219 150.070313 68.941406 C 135.652344 66.238281 128.667969 30.671875 158.167969 41.644531 C 169.941406 24.640625 177.964844 36.847656 183.960938 39.546875 C 200.742188 26.542969 209.15625 33.847656 214.257813 37.449219 C 213.355469 32.949219 210.65625 28.746094 207.058594 26.050781 C 201.058594 18.550781 194.761719 27.25 189.0625 29.648438 C 182.460938 32.347656 180.664063 23.949219 176.164063 22.449219 Z M 230.152344 25.148438 C 226.851563 25.75 221.152344 20.652344 220.851563 26.648438 C 226.851563 30.246094 232.550781 37.148438 238.847656 38.945313 L 237.347656 33.847656 Z M 96.980469 34.449219 C 89.78125 39.546875 96.679688 54.542969 85.28125 53.945313 C 81.984375 58.742188 75.6875 62.640625 78.085938 69.839844 C 81.386719 75.238281 87.382813 76.4375 91.882813 79.738281 C 77.234375 88.773438 97.234375 121.476563 111.378906 96.535156 C 106.277344 95.035156 90.800781 100.921875 96.980469 82.734375 C 108.976563 72.539063 90.382813 73.4375 95.480469 61.140625 C 98.179688 57.242188 104.777344 57.242188 107.777344 53.945313 L 105.679688 48.84375 C 104.777344 42.546875 111.976563 40.746094 114.078125 36.847656 C 109.878906 32.648438 101.777344 28.746094 96.980469 34.449219 Z M 60.089844 57.542969 C 68.1875 51.84375 72.6875 39.546875 84.082031 38.046875 C 77.183594 35.347656 53.714844 38.585938 60.089844 57.542969 Z M 231.652344 62.640625 C 205.503906 53.53125 211.257813 72.539063 208.554688 77.039063 C 177.480469 85.335938 216.054688 120.226563 223.554688 116.628906 C 218.152344 111.53125 198.199219 86.9375 217.851563 86.9375 C 217.851563 86.9375 211.535156 63.089844 232.851563 70.441406 C 240.429688 54.484375 246.648438 62.039063 250.246094 62.039063 C 250.246094 62.039063 234.390625 34.488281 231.652344 62.640625 Z M 174.0625 62.039063 C 182.761719 75.238281 160.566406 74.039063 163.863281 86.335938 C 167.464844 92.9375 172.5625 96.535156 179.765625 97.734375 C 178.265625 92.636719 175.863281 86.035156 178.859375 80.636719 C 194.460938 78.535156 173.464844 71.039063 181.265625 63.242188 C 182.160156 59.042969 187.5625 58.742188 187.5625 53.945313 C 181.5625 50.644531 174.964844 57.242188 174.0625 62.039063 Z M 45.09375 70.441406 C 27.753906 81.355469 40.894531 91.136719 43.59375 95.035156 C 47.492188 104.03125 34.894531 108.230469 34.894531 116.628906 C 38.792969 121.128906 44.195313 121.726563 49.289063 122.328125 C 51.390625 134.492188 66.386719 140.625 73.886719 138.222656 C 77.484375 134.324219 84.082031 134.925781 85.28125 128.925781 C 82.285156 128.628906 78.683594 129.527344 75.984375 128.027344 C 66.6875 126.527344 70.285156 116.027344 67.285156 110.03125 C 45.164063 110.03125 57.390625 86.335938 59.488281 83.335938 C 50.789063 83.9375 51.390625 73.140625 45.09375 70.441406 Z M 253.84375 76.140625 C 251.148438 78.238281 247.25 78.238281 246.046875 82.136719 C 240.648438 93.835938 255.34375 83.035156 259.546875 88.4375 L 259.546875 100.132813 C 259.546875 100.132813 286.472656 108.210938 259.546875 115.128906 C 264.941406 116.328125 269.742188 122.027344 276.039063 118.730469 C 283.539063 116.628906 288.9375 109.730469 285.640625 101.332031 C 283.539063 89.035156 267.34375 94.136719 266.144531 82.734375 C 265.246094 77.039063 258.945313 75.839844 253.84375 76.140625 Z M 158.167969 111.53125 C 158.167969 111.53125 147.96875 109.410156 143.769531 125.929688 C 154.566406 151.722656 159.667969 180.214844 167.464844 207.210938 C 171.0625 185.015625 172.265625 167.019531 172.5625 143.324219 C 173.164063 134.023438 165.363281 127.429688 168.066406 118.128906 C 163.269531 119.328125 161.167969 113.328125 158.167969 111.53125 Z M 100.578125 120.828125 C 105.976563 125.628906 125.175781 131.636719 129.972656 112.132813 C 120.976563 116.929688 111.378906 120.226563 100.578125 120.828125 Z M 193.261719 120.828125 C 191.761719 123.527344 190.261719 128.328125 186.0625 128.027344 C 181.5625 163.421875 181.5625 200.910156 174.664063 235.402344 L 204.058594 149.023438 C 202.855469 141.824219 201.957031 136.125 203.457031 128.925781 C 197.457031 131.027344 195.957031 123.828125 193.261719 120.828125 Z M 230.152344 133.125 C 233.152344 140.023438 254.445313 147.191406 254.445313 126.527344 C 246.347656 128.925781 239.75 134.324219 230.152344 133.125 "/>
</g>
</svg>
