<?xml version="1.0" encoding="UTF-8"?>
<svg xmlns="http://www.w3.org/2000/svg" xmlns:xlink="http://www.w3.org/1999/xlink" width="277pt" height="688pt" viewBox="0 0 277 688" version="1.1">
<g id="surface1">
<path style=" stroke:none;fill-rule:nonzero;fill:rgb(0%,0%,0%);fill-opacity:1;" d="M 274.199219 289.300781 C 268.601563 275.5 268.199219 259.199219 255.699219 248.5 C 251.5 244.699219 245.101563 246.699219 239.898438 246.800781 C 235.800781 243.5 231 241.398438 227.601563 237 C 225.300781 236.300781 223.101563 238.199219 220.699219 237.199219 C 217.898438 235.898438 215.601563 233.398438 214 230.699219 C 205.601563 209.5 196.5 188.699219 185.398438 168.601563 C 182.398438 155.398438 176.5 143.5 177.5 128.699219 C 176.101563 120.199219 169.101563 114 167.199219 105.699219 L 152.300781 59.601563 C 146.898438 48.800781 150.101563 34.101563 145.800781 23.101563 C 141.398438 14.898438 135.398438 7.800781 127.101563 3 C 117.300781 -3.398438 105.300781 2.101563 96.398438 6.601563 C 80.699219 13.601563 74.5 29.699219 70.398438 44.5 C 64.898438 60.699219 63.699219 78.601563 53.898438 93 L 40.398438 108.601563 C 32.800781 117.800781 29 128.601563 28.398438 140.699219 C 28.601563 142.101563 31.800781 142.144531 32.121094 142.761719 C 33.757813 145.898438 29.742188 151.242188 32.332031 154.335938 C 33.433594 154.535156 36.265625 152.808594 36.582031 153.21875 C 48.28125 168.382813 44.285156 188.402344 43.800781 207 L 35.398438 224 C 24.699219 243 24.199219 267.699219 29.398438 289.101563 C 28.699219 296.398438 28 305 33.5 310.398438 C 35.898438 312.601563 39.699219 312.199219 42.601563 312.601563 L 45.699219 317.101563 L 85.101563 364.898438 C 67 367.398438 54.265625 387.5 43.667969 402 C 40.566406 405.300781 34.699219 404.601563 33 409.300781 C 31.398438 420.199219 38.5 429.699219 38 440.699219 C 35.199219 441.5 31.601563 440 29.601563 442.898438 L 33.699219 463 L 44.300781 461.601563 C 47.898438 466.5 48 473.898438 54.601563 476.5 C 51 487.300781 57.300781 497 62.300781 505.800781 L 58.898438 515.101563 L 13.300781 524.699219 L 10.398438 520.601563 C 7.199219 522.101563 3.398438 522.5 0.398438 524.5 C -0.800781 530.5 0.800781 536.601563 4.898438 541 C 8.199219 543.800781 13 541 16.398438 540.601563 L 17.199219 532.398438 L 76.699219 519.898438 L 138.398438 587.101563 L 162.398438 626 C 164.398438 633.300781 165.898438 640.800781 168.601563 647.800781 C 169.101563 650.300781 169.898438 653.5 167.898438 655.300781 C 155.5 659.601563 142.898438 663.101563 130.398438 667 C 128.898438 665 127.101563 663 125.898438 660.800781 L 112.199219 664.898438 C 112.5 673.5 112.398438 682.898438 120.601563 687.699219 L 131.601563 684.601563 L 133.101563 675.898438 L 249 645.699219 L 257.101563 649.5 L 266 645.898438 C 267.300781 643.5 268.101563 640.898438 267.699219 637.800781 C 267.699219 632.101563 263.699219 627.402344 259.101563 624.300781 L 247.101563 628.398438 C 246.898438 631.101563 246.5 633.699219 245.601563 636.101563 L 214.199219 644.5 C 208.898438 641.800781 207.5 636 208 630.601563 C 213.101563 625.800781 215.699219 620 217.300781 613.800781 C 220.101563 596.402344 220.398438 577.300781 217.101563 559.800781 C 214.300781 533.300781 195.300781 512.101563 173.398438 495.699219 C 174.398438 487.300781 177.199219 418.699219 177.199219 418.699219 L 198.800781 349.300781 C 202.601563 347.699219 207.199219 348.734375 210 345.335938 C 210.800781 344.535156 209.398438 341.800781 208.898438 341.398438 C 222 338 264.699219 328.300781 271.300781 322.898438 C 278.398438 314.199219 278.300781 299.300781 274.199219 289.300781 Z M 31.800781 292.199219 C 34.199219 298.101563 35.101563 304.699219 40.898438 309.199219 C 35 309.75 30.5 296.25 31.800781 292.199219 Z M 39 455.5 C 37.5 452 36.75 445.5 39 444.101563 L 42.601563 457.800781 C 41.300781 458.101563 39.699219 456.5 39 455.5 Z M 244.5 251.75 L 241.5 255 L 241.300781 248.699219 Z M 205.601563 252.101563 L 208.898438 249.898438 C 208.503906 251.085938 207.375 252.484375 206.988281 254.074219 C 206.457031 256.265625 208.261719 259.703125 210.800781 260.300781 C 211.601563 260.300781 212.199219 259.398438 212.5 258.800781 L 212.355469 255.1875 C 212.355469 255.1875 212.566406 254.714844 212.703125 255.183594 C 213.683594 258.523438 214.839844 262.082031 218 264.101563 C 216.898438 264 213.398438 264.699219 213.199219 262.199219 C 210.953125 260.835938 207.421875 261.597656 206.214844 259.269531 C 205.914063 258.691406 204.898438 253.699219 205.601563 252.101563 Z M 52.425781 164.878906 C 44.046875 152.417969 30.042969 130.964844 39.199219 117.898438 C 42.601563 112.101563 48.5 107.398438 55.300781 107.398438 C 57.398438 107.898438 59.699219 108 61.300781 109.800781 C 65 115.601563 59.25 128.25 64.898438 128.5 C 67.300781 128 66.898438 125.101563 69 124.398438 C 71 124.898438 73.5 124.800781 74.5 122.699219 C 75 122.101563 74.699219 121.199219 74.800781 120.300781 C 76 119.699219 77.800781 119.800781 78.601563 118.398438 C 79.101563 112.398438 73.199219 105.898438 79.101563 100.898438 C 82.199219 97.199219 87.601563 100.398438 90.398438 96.300781 C 92.199219 91.300781 92.898438 86.199219 92.5 80.699219 C 100.398438 91.5 113.601563 96.601563 126.398438 92.699219 C 140.109375 85.035156 140.886719 69.394531 141.492188 55.25 C 141.558594 53.710938 137.601563 34.699219 137.601563 34.699219 C 125.402344 29.097656 111.710938 32.390625 99.828125 37.191406 C 97.292969 38.214844 96.847656 37.625 99.277344 36.296875 C 111.140625 29.816406 126.597656 25.0625 139.300781 33.199219 C 140.199219 44 145.5 53.601563 143.199219 65.101563 C 141.699219 75.199219 138.699219 84.601563 131.199219 92 C 138.898438 106.398438 156.851563 97.5 166.25 109.5 L 166 111.199219 C 162.5 109.5 158.5 106.5 153.699219 106.699219 C 151.15625 115.765625 150.121094 126.269531 149.320313 135.714844 C 149.175781 137.414063 148.429688 137.632813 148.300781 136.105469 C 147.394531 125.433594 149.8125 115.085938 152 105.199219 C 150.398438 101.800781 146 103.699219 143.199219 103.300781 C 143.199219 103.300781 139.855469 131.394531 122.300781 141.699219 C 114.199219 145.101563 105.199219 142.199219 99 136.898438 C 99 136.898438 97.394531 133.601563 99.28125 134.914063 C 104.9375 138.863281 111.648438 141.601563 118.699219 139.5 C 134.433594 135.039063 141.5 107.660156 139.601563 102.601563 C 135.601563 99.5 131.699219 96.199219 127.300781 93.898438 C 126.898438 95.832031 127.453125 99.339844 127.351563 101.984375 C 127.300781 103.308594 126.347656 102.492188 126.347656 102.492188 C 126.347656 102.492188 125.382813 95.292969 125.125 95.382813 C 113.417969 99.371094 103.503906 92.894531 94.5 85.75 C 93.898438 90.648438 94.101563 96 90.601563 99.898438 C 86.800781 102.398438 81.101563 101.601563 78.601563 106.199219 C 78.5 112.300781 81.699219 117.699219 80.5 123.699219 C 79.601563 124.601563 78 124.199219 77.199219 123.5 C 77.199219 123.5 75.367188 124.449219 75.269531 125.503906 C 73.925781 139.964844 80.988281 151.425781 87.699219 162.800781 C 92.601563 173.699219 95.898438 185.300781 103.300781 195.199219 C 113.972656 205.628906 122.0625 218 130 230 C 131.882813 232.84375 131.109375 233.28125 129.105469 230.722656 C 120.449219 219.679688 112.128906 208.691406 101.898438 198.300781 C 92.699219 183.5 86 167.601563 79.101563 151.800781 C 72.601563 145.300781 72.300781 135.398438 73.800781 126.601563 C 70.601563 125.199219 68.398438 128.800781 65.601563 129.898438 C 62.179688 131.609375 60.71875 129.335938 60.574219 123.992188 C 60.464844 120.0625 61.429688 115.796875 60.601563 111.898438 C 58.0625 106.132813 43.636719 111.035156 39.699219 120.800781 C 33.398438 137.300781 47.199219 150.300781 54.398438 163.5 C 64.898438 179.699219 77.601563 194.300781 89.398438 209.898438 C 99.601563 226.300781 108.601563 243.398438 123.699219 257.601563 C 125 255 127 251.699219 130 250.699219 L 136.277344 249.664063 C 136.277344 249.664063 137.789063 250.058594 136.433594 250.570313 C 130.421875 252.84375 123.617188 255.273438 122.800781 262.699219 C 108.699219 242.699219 92.5 223.601563 81.5 202.398438 C 72.21875 189.757813 61.125 177.8125 52.425781 164.878906 Z M 136.578125 272.4375 C 137.851563 273.589844 139.269531 275.621094 140.960938 276.160156 C 141.65625 276.382813 144.398438 273.699219 144.398438 273.699219 C 144.300781 275 146.398438 277.101563 148 278.300781 C 145.898438 278.300781 143.101563 275.898438 141.699219 278.5 C 139.5 278 137.800781 275.398438 136.398438 273.898438 C 130.898438 273.101563 125.5 274.101563 121.601563 278.300781 C 116.5 289.300781 118.199219 303.199219 118.199219 315.5 C 119.199219 323.101563 119 333.398438 127.800781 337.300781 C 136.339844 343.425781 146.375 339.9375 155.496094 336.992188 C 157.695313 336.285156 157.90625 337.296875 155.761719 338.277344 C 146.910156 342.316406 136.554688 344.628906 127.300781 340.199219 C 119.300781 336.800781 118.101563 328.101563 117.199219 320.5 C 116.46875 308.179688 114.90625 295.027344 116.464844 282.714844 C 117.75 272.539063 128.929688 271.195313 136 269.898438 C 137.5 267.699219 135.199219 265.300781 134.5 263.101563 C 136 263.898438 137.101563 265 137.898438 266.5 C 138.398438 268.800781 136.277344 272.164063 136.578125 272.4375 Z M 85.101563 439.5 C 82.601563 443 78.898438 446.101563 75.699219 448.398438 C 72 440 70.398438 429.898438 67.800781 421.101563 C 73.101563 416.101563 79.300781 412.5 84.800781 407.601563 C 86.699219 417.5 91.800781 430.199219 85.101563 439.5 Z M 64.839844 384.316406 C 66.03125 391.347656 68.578125 398.097656 75.5 401.601563 L 82.398438 405 C 72.539063 407.300781 64.535156 395.691406 64.027344 384.488281 C 63.953125 382.863281 64.570313 382.714844 64.839844 384.316406 Z M 77.648438 472.601563 C 75.066406 482.644531 65.570313 481.375 60.128906 478.089844 C 59.703125 477.828125 59.890625 477.535156 60.410156 477.6875 C 67.398438 479.703125 73.449219 480.410156 76.171875 471.753906 C 77.546875 467.382813 77.132813 462.28125 77.113281 457.335938 C 77.105469 456.109375 77.835938 456.011719 78.140625 457.175781 C 81.378906 469.617188 83.570313 482.480469 89.398438 493.800781 C 92.25 499.335938 93.589844 500.550781 96.984375 501.828125 C 97.46875 502.011719 97.429688 502.285156 96.832031 502.234375 C 95.03125 502.082031 92.949219 501.351563 91.601563 500 C 85.398438 490.601563 82.5 479.800781 78.398438 469.5 C 78.132813 470.539063 77.90625 471.582031 77.648438 472.601563 Z M 103.425781 514.019531 C 101.875 521.238281 95.730469 519.542969 92 513.398438 C 91.5 512.101563 91 510.398438 91.601563 508.898438 C 97.226563 517.785156 101.933594 519.375 102.089844 507.671875 C 102.15625 502.746094 100.539063 497.675781 97.800781 494 C 95.800781 492.300781 94.398438 489.699219 91.601563 489.699219 C 91.300781 489.199219 92.300781 488.199219 93 488.199219 C 99.601563 489.199219 101.800781 496.699219 103.101563 502.199219 C 103.671875 505.824219 104.246094 510.222656 103.425781 514.019531 Z M 155.464844 600.808594 C 152.773438 597.191406 150.714844 592.933594 148.898438 588.800781 C 147.699219 588.199219 146.5 589 145.300781 589 L 149.601563 585.199219 C 152.300781 592.902344 156.800781 602.300781 165.5 605.800781 C 171.398438 607 179.898438 610 185.199219 605.097656 C 193.78125 592.304688 188.191406 562.691406 184.429688 550.96875 C 177.054688 528.011719 99.699219 453.699219 99.699219 453.699219 C 95.898438 449.800781 91.898438 446.699219 87.199219 444.800781 C 90.101563 444.800781 92.699219 445.601563 94.898438 447.199219 L 101.671875 453.675781 C 101.671875 453.675781 178.585938 523.734375 187.335938 549 C 190.792969 558.996094 199.871094 598.046875 184.699219 607.5 C 177.503906 611.425781 162.847656 610.734375 155.464844 600.808594 Z M 195.199219 646.199219 L 187.300781 638.699219 C 182.5 638.699219 178.800781 636.101563 174.398438 635.398438 L 174.101563 651.199219 L 172 651.667969 L 170 630.800781 C 175.601563 632.898438 188 636.601563 188 636.601563 L 197 646 Z M 159.699219 487.800781 C 164.101563 493.300781 177.949219 504.722656 179.292969 506.03125 C 188.726563 515.230469 195.46875 525.9375 200.480469 537.414063 C 207.949219 554.5 221.652344 611.761719 202.335938 631.667969 L 200 631.300781 C 221.34375 606.109375 202.46875 547.863281 198.5 538.066406 C 193.910156 526.738281 186.066406 516.679688 176.941406 507.726563 C 175.011719 505.835938 160.101563 493.300781 155.898438 487.800781 L 172.335938 426.664063 L 173.898438 427.101563 C 169.398438 447.398438 164.199219 467.398438 159.699219 487.800781 Z M 199.746094 342.5 C 190.492188 344.226563 167.015625 348.574219 161.601563 349.800781 C 164.5 356.300781 171.898438 351.398438 177 352.199219 L 143.5 477.75 L 109.101563 447.699219 C 106.699219 431.699219 99.917969 400.363281 99.433594 400.484375 C 96.597656 401.191406 93.878906 402.730469 90.984375 403.703125 C 89.855469 404.082031 89.195313 403.039063 90.101563 402.390625 C 93.378906 400.035156 97.140625 398.355469 100.898438 397.101563 L 110.5 445.101563 C 120.699219 454.699219 131.601563 464.398438 142.398438 473.398438 L 173.75 354.25 L 162.800781 354.800781 C 160.789063 350.777344 157.703125 349.933594 154.257813 350.136719 C 149.992188 350.386719 131.800781 352.300781 127.101563 351.5 L 125.898438 354.300781 C 125.800781 350.699219 122.5 350.398438 120.398438 348.300781 C 115.699219 344.699219 112.898438 339.5 110.800781 334.398438 C 101.898438 335.699219 92.898438 338 85.101563 342.601563 C 83.199219 344.101563 82.605469 343.503906 84.394531 341.882813 C 90.710938 336.160156 101.585938 335.316406 109.300781 331.5 C 107.199219 314.800781 106.898438 296.898438 97.601563 282.601563 C 94.34375 278.511719 90.429688 275.566406 86.285156 273.1875 C 83.941406 271.847656 83.824219 271.441406 86.355469 272.347656 C 100.75 277.5 105 293.898438 106 295.5 C 105.652344 285.851563 107.421875 276.730469 113.804688 270.042969 C 114.761719 269.039063 115.015625 269.339844 114.128906 270.453125 C 112.238281 272.824219 110.683594 275.335938 109.527344 278.011719 C 105.421875 287.539063 108.144531 314.539063 110.800781 328.898438 C 112.257813 334.367188 115.671875 339.945313 120.214844 344.066406 C 125.882813 349.207031 130.878906 349.996094 139.015625 349.710938 C 156.015625 349.105469 183.613281 344.035156 199.75 341.75 C 203.894531 341.164063 205.757813 341.378906 199.746094 342.5 Z M 126.101563 361.625 C 126.074219 360.824219 126.285156 360.726563 126.488281 361.535156 C 131.335938 380.773438 139.945313 398.371094 141 419.101563 C 141.5 435.300781 142 448.800781 141.5 465.398438 L 111 440.300781 C 108 425.5 106.300781 410.199219 104 395.101563 C 112.898438 390.699219 125.699219 383.300781 125.601563 371.601563 C 125.683594 367.933594 126.226563 365.132813 126.101563 361.625 Z M 210.800781 294.800781 C 216.839844 294.800781 223.542969 293.535156 229.503906 293.449219 C 230.84375 293.429688 230.785156 293.898438 229.476563 294.054688 C 222.953125 294.824219 216.429688 295.785156 210.601563 298.199219 C 209.199219 299.199219 209.300781 300.898438 208.699219 302.300781 L 194.75 304 L 195 303 L 207.199219 301.300781 C 208.828125 298.609375 209.214844 290.503906 209.550781 287.253906 C 209.691406 285.914063 210.441406 286.105469 210.5 287.5 C 210.539063 288.433594 210.320313 294.078125 210.800781 294.800781 Z M 259.800781 317.101563 C 242.398438 322.699219 224.101563 323.898438 205.800781 327.199219 C 201.601563 319.800781 208.398438 312.300781 209.199219 304.699219 L 236.800781 300.800781 C 240.601563 296.101563 237.800781 289.5 235.601563 285 L 234.800781 284.5 L 207.199219 285 C 201.601563 285.800781 197.101563 291.300781 192.601563 295.101563 L 175.601563 295.101563 C 174.398438 298.398438 175.800781 300.398438 175.300781 303.699219 L 187.800781 304.199219 C 185.800781 312.5 183.300781 321.101563 180.601563 329.398438 L 167.898438 331.5 C 163.101563 314.199219 159.398438 296.398438 152.5 279.898438 C 152.5 279.101563 152.300781 278.199219 153.199219 277.800781 C 156.601563 277.300781 157.5 283.101563 161.601563 280.699219 C 163.101563 279.898438 165.101563 279.398438 165.699219 277.5 C 166.398438 274.898438 164.5 273.300781 164.300781 271.101563 C 164.601563 263.601563 162.800781 256.300781 162.101563 249 L 160.398438 247.800781 C 156.800781 248.898438 152.800781 249.199219 148.898438 249.699219 C 138.101563 241.898438 139.601563 228.601563 132.800781 219 C 126.898438 215.101563 125.75 208.550781 126.25 203.25 C 136 175.25 145 179 149.199219 145.5 L 162.800781 190.199219 C 170.300781 205.800781 184 219.300781 196 232.699219 C 203.800781 242.398438 194.398438 260.398438 208.699219 266.5 C 212.898438 268.699219 217 271.601563 221.898438 271.5 C 223 269.898438 223.601563 268.199219 223.300781 266 L 229.300781 265.800781 C 231.898438 259.601563 241.101563 264.5 240.800781 256.699219 C 244.300781 255.800781 248.800781 255.800781 251.398438 258.601563 C 258.601563 272.5 263.699219 287.300781 267.199219 302.699219 C 267.398438 308.601563 264.5 313.699219 259.800781 317.101563 "/>
</g>
</svg>
