<?xml version="1.0" encoding="UTF-8"?>
<svg xmlns="http://www.w3.org/2000/svg" xmlns:xlink="http://www.w3.org/1999/xlink" width="416pt" height="639pt" viewBox="0 0 416 639" version="1.1">
<g id="surface1">
<path style=" stroke:none;fill-rule:nonzero;fill:rgb(0%,0%,0%);fill-opacity:1;" d="M 230.257813 113.460938 C 266.964844 91.957031 287.976563 54.082031 283.273438 2.890625 C 282.992188 -0.175781 282.863281 -0.183594 280.988281 2.617188 C 269.34375 20.027344 245.765625 55.121094 222.367188 60.3125 C 197.609375 65.800781 178.359375 41.734375 201.523438 16.03125 C 203.085938 14.296875 203.011719 14.152344 200.363281 14.179688 C 167.386719 14.5 140.8125 39.703125 140.941406 70.289063 C 141.144531 117.859375 196.230469 133.398438 230.257813 113.460938 Z M 246.492188 50.164063 C 255.089844 42.679688 263.074219 33.167969 269.828125 24.160156 C 272.476563 31.527344 274.628906 35.664063 278.230469 42.21875 C 278.144531 42.625 278.0625 43.035156 277.972656 43.441406 C 268.578125 43.054688 257.019531 46.394531 246.902344 50.515625 C 246.335938 50.746094 246.105469 50.503906 246.492188 50.164063 Z M 237.296875 85.574219 C 237.296875 85.574219 242.015625 83.210938 245.101563 79.683594 C 247.621094 76.804688 249.234375 74.09375 249.234375 74.09375 L 252.457031 80.296875 C 252.457031 80.296875 256.445313 77.835938 259.097656 74.101563 C 261.746094 70.367188 264.296875 65.855469 264.296875 65.855469 L 268.703125 69.304688 C 264.433594 77.53125 258.097656 86.410156 251.734375 93.128906 L 250.535156 89.734375 L 237.097656 99.09375 L 235.574219 93.054688 C 235.574219 93.054688 225.589844 99.421875 223.683594 100.65625 C 221.777344 101.890625 219.015625 103.253906 219.015625 103.253906 C 219.015625 103.253906 219.15625 100.789063 218.160156 95.589844 C 217.160156 90.390625 216.015625 86.855469 216.015625 86.855469 C 216.015625 86.855469 223.136719 85.828125 227.136719 83.929688 C 231.136719 82.027344 233.816406 80.015625 233.816406 80.015625 Z M 200.511719 60.503906 C 209.363281 65.496094 221.84375 64.714844 230 61.121094 C 230.398438 60.945313 230.640625 61.179688 230.363281 61.484375 C 222.398438 70.34375 220.171875 74.277344 216.589844 83.820313 C 215.921875 85.609375 215.589844 85.714844 215.183594 84.585938 C 211.355469 73.984375 206.910156 67.847656 200.105469 60.753906 C 199.742188 60.375 199.996094 60.214844 200.511719 60.503906 Z M 160.421875 94.8125 C 164.722656 92.210938 169.5625 89.742188 169.5625 89.742188 C 169.5625 89.742188 161.691406 84.257813 157.640625 80.464844 C 155.933594 78.871094 155.960938 78.742188 157.261719 78.019531 C 161.046875 75.917969 169.511719 74.019531 169.511719 74.019531 C 169.511719 74.019531 160.339844 64.796875 158.4375 61.894531 C 156.820313 59.429688 156.917969 59.304688 160.1875 58.46875 C 164.386719 57.394531 175.097656 56.773438 175.097656 56.773438 C 175.097656 56.773438 172.761719 43.441406 174.386719 36.171875 C 175.609375 30.695313 175.828125 30.609375 178.914063 32.96875 C 181.488281 34.9375 186.078125 38.078125 187.898438 39.476563 C 187.949219 43.265625 189.746094 49.214844 191.625 52.152344 C 191.765625 52.371094 191.632813 52.476563 191.421875 52.308594 C 188.121094 49.769531 184.042969 46.875 182.839844 45.867188 C 180.429688 43.847656 180.230469 43.734375 180.4375 46.796875 C 180.953125 54.351563 182.457031 61.695313 182.457031 61.695313 C 182.457031 61.695313 173.78125 63.675781 172.738281 64.054688 C 171.699219 64.433594 171.613281 64.601563 172.535156 65.921875 C 175.636719 70.34375 183.65625 76.652344 183.65625 76.652344 C 183.65625 76.652344 178.265625 76.808594 173.839844 78.375 C 172.03125 79.015625 172 79.117188 172.707031 80.175781 C 175.035156 83.667969 187.5625 92.375 188.675781 92.835938 C 189.710938 93.269531 189.738281 93.386719 188.738281 93.441406 C 186.269531 93.574219 181.226563 94.894531 179.019531 95.816406 C 178.054688 96.222656 177.984375 96.351563 179.136719 97.394531 C 182.222656 100.183594 205.285156 112.769531 214.226563 116.121094 C 214.339844 116.160156 214.339844 116.300781 214.226563 116.324219 C 199.421875 119.925781 181.308594 118.886719 167.589844 111.0625 C 162.046875 107.898438 157.417969 103.933594 153.773438 99.300781 C 155.09375 98.316406 157.550781 96.546875 160.421875 94.8125 "/>
<path style=" stroke:none;fill-rule:nonzero;fill:rgb(0%,0%,0%);fill-opacity:1;" d="M 154.335938 444.457031 C 191.039063 422.953125 212.050781 385.078125 207.351563 333.886719 C 207.070313 330.820313 206.941406 330.8125 205.066406 333.613281 C 193.421875 351.023438 169.84375 386.117188 146.445313 391.308594 C 121.6875 396.796875 102.4375 372.730469 125.601563 347.027344 C 127.160156 345.296875 127.085938 345.148438 124.441406 345.175781 C 91.464844 345.496094 64.890625 370.699219 65.019531 401.285156 C 65.222656 448.855469 120.308594 464.394531 154.335938 444.457031 Z M 170.570313 381.160156 C 179.167969 373.675781 187.148438 364.164063 193.902344 355.15625 C 196.554688 362.519531 198.703125 366.660156 202.308594 373.214844 C 202.222656 373.621094 202.136719 374.03125 202.050781 374.4375 C 192.65625 374.050781 181.097656 377.390625 170.980469 381.511719 C 170.414063 381.742188 170.183594 381.496094 170.570313 381.160156 Z M 161.371094 416.570313 C 161.371094 416.570313 166.089844 414.207031 169.175781 410.679688 C 171.695313 407.800781 173.3125 405.089844 173.3125 405.089844 L 176.53125 411.289063 C 176.53125 411.289063 180.523438 408.832031 183.171875 405.097656 C 185.820313 401.363281 188.371094 396.851563 188.371094 396.851563 L 192.777344 400.300781 C 188.511719 408.527344 182.175781 417.40625 175.8125 424.121094 L 174.613281 420.730469 L 161.171875 430.089844 L 159.652344 424.050781 C 159.652344 424.050781 149.664063 430.417969 147.761719 431.652344 C 145.855469 432.886719 143.09375 434.25 143.09375 434.25 C 143.09375 434.25 143.234375 431.785156 142.234375 426.585938 C 141.234375 421.386719 140.09375 417.851563 140.09375 417.851563 C 140.09375 417.851563 147.214844 416.824219 151.214844 414.921875 C 155.214844 413.023438 157.894531 411.011719 157.894531 411.011719 Z M 124.589844 391.5 C 133.441406 396.492188 145.921875 395.710938 154.078125 392.117188 C 154.476563 391.941406 154.714844 392.171875 154.4375 392.480469 C 146.476563 401.339844 144.246094 405.273438 140.667969 414.816406 C 139.996094 416.605469 139.664063 416.710938 139.257813 415.582031 C 135.433594 404.980469 130.984375 398.84375 124.183594 391.75 C 123.816406 391.371094 124.074219 391.210938 124.589844 391.5 Z M 84.5 425.804688 C 88.800781 423.207031 93.640625 420.738281 93.640625 420.738281 C 93.640625 420.738281 85.769531 415.253906 81.71875 411.460938 C 80.011719 409.863281 80.039063 409.738281 81.339844 409.015625 C 85.125 406.910156 93.589844 405.015625 93.589844 405.015625 C 93.589844 405.015625 84.414063 395.789063 82.515625 392.890625 C 80.898438 390.421875 80.996094 390.300781 84.265625 389.464844 C 88.464844 388.390625 99.171875 387.769531 99.171875 387.769531 C 99.171875 387.769531 96.835938 374.4375 98.464844 367.164063 C 99.6875 361.691406 99.90625 361.605469 102.988281 363.964844 C 105.566406 365.933594 110.152344 369.074219 111.976563 370.472656 C 112.023438 374.261719 113.820313 380.210938 115.699219 383.148438 C 115.839844 383.367188 115.710938 383.472656 115.496094 383.304688 C 112.195313 380.765625 108.117188 377.871094 106.914063 376.863281 C 104.507813 374.839844 104.308594 374.730469 104.515625 377.789063 C 105.03125 385.347656 106.535156 392.691406 106.535156 392.691406 C 106.535156 392.691406 97.855469 394.671875 96.816406 395.050781 C 95.777344 395.429688 95.691406 395.597656 96.613281 396.914063 C 99.714844 401.339844 107.734375 407.648438 107.734375 407.648438 C 107.734375 407.648438 102.34375 407.804688 97.914063 409.371094 C 96.105469 410.011719 96.078125 410.113281 96.78125 411.171875 C 99.113281 414.664063 111.640625 423.371094 112.753906 423.832031 C 113.789063 424.265625 113.8125 424.382813 112.8125 424.4375 C 110.347656 424.570313 105.304688 425.890625 103.097656 426.8125 C 102.132813 427.214844 102.0625 427.347656 103.214844 428.390625 C 106.300781 431.179688 129.363281 443.765625 138.304688 447.113281 C 138.417969 447.15625 138.414063 447.296875 138.300781 447.320313 C 123.496094 450.921875 105.386719 449.878906 91.664063 442.058594 C 86.121094 438.894531 81.492188 434.929688 77.851563 430.296875 C 79.171875 429.3125 81.628906 427.542969 84.5 425.804688 "/>
<path style=" stroke:none;fill-rule:nonzero;fill:rgb(0%,0%,0%);fill-opacity:1;" d="M 277.335938 438.707031 C 310.3125 438.386719 336.886719 413.179688 336.757813 382.597656 C 336.554688 335.027344 281.46875 319.488281 247.441406 339.425781 C 210.738281 360.929688 189.726563 398.804688 194.425781 449.996094 C 194.707031 453.0625 194.835938 453.070313 196.710938 450.269531 C 208.355469 432.855469 231.933594 397.761719 255.332031 392.574219 C 280.089844 387.085938 299.339844 411.152344 276.175781 436.855469 C 274.613281 438.589844 274.691406 438.734375 277.335938 438.707031 Z M 231.207031 402.722656 C 222.609375 410.207031 214.628906 419.71875 207.871094 428.722656 C 205.222656 421.359375 203.070313 417.222656 199.46875 410.671875 C 199.554688 410.261719 199.640625 409.851563 199.726563 409.445313 C 209.121094 409.832031 220.679688 406.492188 230.796875 402.371094 C 231.363281 402.140625 231.59375 402.386719 231.207031 402.722656 Z M 240.402344 367.3125 C 240.402344 367.3125 235.6875 369.675781 232.601563 373.203125 C 230.078125 376.082031 228.464844 378.792969 228.464844 378.792969 L 225.242188 372.59375 C 225.242188 372.59375 221.253906 375.050781 218.605469 378.785156 C 215.953125 382.519531 213.402344 387.03125 213.402344 387.03125 L 208.996094 383.578125 C 213.265625 375.355469 219.601563 366.476563 225.964844 359.757813 L 227.164063 363.152344 L 240.605469 353.792969 L 242.125 359.832031 C 242.125 359.832031 252.109375 353.464844 254.015625 352.230469 C 255.921875 350.996094 258.683594 349.632813 258.683594 349.632813 C 258.683594 349.632813 258.542969 352.097656 259.539063 357.296875 C 260.539063 362.496094 261.683594 366.03125 261.683594 366.03125 C 261.683594 366.03125 254.5625 367.058594 250.5625 368.960938 C 246.5625 370.859375 243.882813 372.871094 243.882813 372.871094 Z M 277.1875 392.382813 C 268.335938 387.390625 255.855469 388.171875 247.699219 391.765625 C 247.300781 391.9375 247.0625 391.710938 247.339844 391.402344 C 255.300781 382.542969 257.53125 378.609375 261.109375 369.066406 C 261.78125 367.277344 262.109375 367.171875 262.519531 368.300781 C 266.34375 378.898438 270.789063 385.039063 277.59375 392.132813 C 277.957031 392.511719 277.703125 392.671875 277.1875 392.382813 Z M 286.074219 400.734375 C 285.9375 400.515625 286.066406 400.410156 286.28125 400.578125 C 289.578125 403.117188 293.65625 406.011719 294.859375 407.019531 C 297.269531 409.039063 297.46875 409.152344 297.261719 406.09375 C 296.746094 398.535156 295.242188 391.191406 295.242188 391.191406 C 295.242188 391.191406 303.921875 389.214844 304.960938 388.832031 C 306 388.453125 306.085938 388.285156 305.164063 386.96875 C 302.0625 382.542969 294.042969 376.230469 294.042969 376.230469 C 294.042969 376.230469 299.433594 376.078125 303.859375 374.511719 C 305.671875 373.871094 305.699219 373.769531 304.992188 372.710938 C 302.664063 369.21875 290.136719 360.511719 289.023438 360.050781 C 287.988281 359.617188 287.964844 359.5 288.964844 359.445313 C 291.429688 359.3125 296.472656 357.992188 298.679688 357.070313 C 299.644531 356.664063 299.714844 356.535156 298.5625 355.492188 C 295.476563 352.703125 272.414063 340.117188 263.472656 336.765625 C 263.359375 336.722656 263.363281 336.585938 263.476563 336.558594 C 278.28125 332.960938 296.390625 334.003906 310.109375 341.824219 C 315.65625 344.988281 320.28125 348.953125 323.925781 353.585938 C 322.605469 354.570313 320.148438 356.339844 317.277344 358.074219 C 312.976563 360.675781 308.136719 363.140625 308.136719 363.140625 C 308.136719 363.140625 316.007813 368.628906 320.058594 372.421875 C 321.765625 374.015625 321.738281 374.144531 320.4375 374.867188 C 316.652344 376.96875 308.1875 378.867188 308.1875 378.867188 C 308.1875 378.867188 317.363281 388.09375 319.261719 390.992188 C 320.878906 393.460938 320.78125 393.578125 317.511719 394.417969 C 313.3125 395.492188 302.601563 396.113281 302.601563 396.113281 C 302.601563 396.113281 304.9375 409.445313 303.3125 416.71875 C 302.089844 422.1875 301.871094 422.277344 298.785156 419.917969 C 296.210938 417.949219 291.621094 414.808594 289.800781 413.410156 C 289.753906 409.621094 287.953125 403.671875 286.074219 400.734375 "/>
<path style=" stroke:none;fill-rule:nonzero;fill:rgb(0%,0%,0%);fill-opacity:1;" d="M 142.945313 518.472656 C 142.664063 515.40625 142.535156 515.394531 140.660156 518.199219 C 129.015625 535.609375 105.4375 570.703125 82.039063 575.890625 C 57.28125 581.378906 38.03125 557.3125 61.195313 531.609375 C 62.753906 529.878906 62.679688 529.734375 60.035156 529.761719 C 27.058594 530.082031 0.484375 555.285156 0.613281 585.871094 C 0.816406 633.441406 55.902344 648.980469 89.925781 629.042969 C 126.632813 607.535156 147.644531 569.664063 142.945313 518.472656 Z M 73.894531 631.90625 C 59.089844 635.503906 40.980469 634.464844 27.261719 626.640625 C 21.714844 623.480469 17.089844 619.515625 13.445313 614.882813 C 14.765625 613.898438 17.222656 612.128906 20.09375 610.390625 C 24.394531 607.792969 29.234375 605.324219 29.234375 605.324219 C 29.234375 605.324219 21.363281 599.835938 17.3125 596.046875 C 15.605469 594.449219 15.632813 594.324219 16.933594 593.601563 C 20.71875 591.496094 29.183594 589.601563 29.183594 589.601563 C 29.183594 589.601563 20.007813 580.375 18.109375 577.476563 C 16.492188 575.007813 16.589844 574.886719 19.859375 574.050781 C 24.058594 572.976563 34.769531 572.355469 34.769531 572.355469 C 34.769531 572.355469 32.429688 559.023438 34.058594 551.75 C 35.28125 546.277344 35.5 546.191406 38.582031 548.550781 C 41.160156 550.519531 45.75 553.660156 47.570313 555.058594 C 47.617188 558.847656 49.414063 564.796875 51.296875 567.734375 C 51.433594 567.953125 51.304688 568.054688 51.089844 567.890625 C 47.789063 565.347656 43.710938 562.457031 42.511719 561.449219 C 40.101563 559.425781 39.902344 559.316406 40.109375 562.375 C 40.625 569.933594 42.128906 577.277344 42.128906 577.277344 C 42.128906 577.277344 33.449219 579.253906 32.410156 579.636719 C 31.371094 580.015625 31.285156 580.183594 32.207031 581.5 C 35.308594 585.925781 43.328125 592.234375 43.328125 592.234375 C 43.328125 592.234375 37.9375 592.390625 33.511719 593.957031 C 31.699219 594.597656 31.671875 594.699219 32.378906 595.757813 C 34.707031 599.25 47.234375 607.957031 48.347656 608.417969 C 49.382813 608.851563 49.40625 608.96875 48.40625 609.023438 C 45.941406 609.15625 40.898438 610.476563 38.691406 611.398438 C 37.726563 611.800781 37.65625 611.933594 38.808594 612.976563 C 41.894531 615.765625 64.957031 628.351563 73.898438 631.699219 C 74.011719 631.742188 74.007813 631.878906 73.894531 631.90625 Z M 74.851563 600.167969 C 71.027344 589.566406 66.578125 583.429688 59.777344 576.335938 C 59.414063 575.957031 59.667969 575.796875 60.183594 576.085938 C 69.035156 581.078125 81.511719 580.292969 89.671875 576.703125 C 90.070313 576.527344 90.308594 576.757813 90.03125 577.066406 C 82.070313 585.921875 79.839844 589.859375 76.261719 599.402344 C 75.589844 601.1875 75.261719 601.296875 74.851563 600.167969 Z M 111.40625 608.707031 L 110.207031 605.316406 L 96.765625 614.675781 L 95.246094 608.636719 C 95.246094 608.636719 85.261719 615.003906 83.355469 616.238281 C 81.449219 617.472656 78.6875 618.835938 78.6875 618.835938 C 78.6875 618.835938 78.828125 616.371094 77.828125 611.171875 C 76.832031 605.972656 75.6875 602.433594 75.6875 602.433594 C 75.6875 602.433594 82.808594 601.410156 86.808594 599.507813 C 90.808594 597.609375 93.488281 595.59375 93.488281 595.59375 L 96.96875 601.15625 C 96.96875 601.15625 101.6875 598.792969 104.769531 595.265625 C 107.289063 592.382813 108.90625 589.675781 108.90625 589.675781 L 112.128906 595.875 C 112.128906 595.875 116.117188 593.417969 118.765625 589.683594 C 121.414063 585.949219 123.964844 581.433594 123.964844 581.433594 L 128.371094 584.886719 C 124.105469 593.109375 117.769531 601.992188 111.40625 608.707031 Z M 137.644531 559.023438 C 128.25 558.636719 116.691406 561.972656 106.574219 566.09375 C 106.007813 566.328125 105.777344 566.082031 106.164063 565.746094 C 114.761719 558.261719 122.742188 548.746094 129.496094 539.742188 C 132.148438 547.105469 134.296875 551.246094 137.902344 557.796875 C 137.816406 558.207031 137.730469 558.613281 137.644531 559.023438 "/>
<path style=" stroke:none;fill-rule:nonzero;fill:rgb(0%,0%,0%);fill-opacity:1;" d="M 278.664063 519.082031 C 278.382813 516.015625 278.253906 516.007813 276.378906 518.808594 C 264.734375 536.222656 241.15625 571.316406 217.757813 576.503906 C 193 581.992188 173.75 557.925781 196.914063 532.222656 C 198.476563 530.492188 198.398438 530.347656 195.753906 530.371094 C 162.777344 530.695313 136.203125 555.898438 136.332031 586.480469 C 136.535156 634.050781 191.621094 649.59375 225.648438 629.65625 C 262.351563 608.148438 283.363281 570.273438 278.664063 519.082031 Z M 209.613281 632.519531 C 194.808594 636.117188 176.699219 635.078125 162.980469 627.253906 C 157.4375 624.09375 152.808594 620.125 149.164063 615.496094 C 150.484375 614.507813 152.941406 612.738281 155.8125 611.003906 C 160.113281 608.402344 164.953125 605.9375 164.953125 605.9375 C 164.953125 605.9375 157.082031 600.449219 153.03125 596.660156 C 151.324219 595.0625 151.351563 594.933594 152.652344 594.210938 C 156.4375 592.109375 164.902344 590.210938 164.902344 590.210938 C 164.902344 590.210938 155.726563 580.988281 153.828125 578.085938 C 152.210938 575.621094 152.308594 575.5 155.578125 574.664063 C 159.777344 573.585938 170.488281 572.96875 170.488281 572.96875 C 170.488281 572.96875 168.148438 559.632813 169.777344 552.363281 C 171 546.890625 171.21875 546.804688 174.304688 549.160156 C 176.878906 551.132813 181.46875 554.273438 183.289063 555.667969 C 183.339844 559.460938 185.136719 565.40625 187.015625 568.34375 C 187.152344 568.5625 187.023438 568.667969 186.808594 568.503906 C 183.511719 565.960938 179.433594 563.070313 178.230469 562.058594 C 175.820313 560.039063 175.621094 559.925781 175.828125 562.988281 C 176.34375 570.546875 177.847656 577.886719 177.847656 577.886719 C 177.847656 577.886719 169.171875 579.867188 168.128906 580.246094 C 167.089844 580.625 167.003906 580.792969 167.925781 582.113281 C 171.027344 586.535156 179.046875 592.847656 179.046875 592.847656 C 179.046875 592.847656 173.65625 593 169.230469 594.570313 C 167.421875 595.210938 167.390625 595.308594 168.097656 596.367188 C 170.425781 599.863281 182.953125 608.566406 184.066406 609.03125 C 185.101563 609.460938 185.128906 609.578125 184.128906 609.632813 C 181.660156 609.769531 176.617188 611.089844 174.410156 612.011719 C 173.445313 612.414063 173.375 612.542969 174.527344 613.585938 C 177.613281 616.375 200.675781 628.964844 209.617188 632.3125 C 209.730469 632.355469 209.726563 632.492188 209.613281 632.519531 Z M 210.570313 600.78125 C 206.746094 590.179688 202.300781 584.039063 195.496094 576.949219 C 195.132813 576.570313 195.390625 576.410156 195.902344 576.699219 C 204.753906 581.6875 217.230469 580.90625 225.390625 577.316406 C 225.789063 577.140625 226.027344 577.371094 225.753906 577.679688 C 217.789063 586.535156 215.558594 590.46875 211.980469 600.015625 C 211.3125 601.800781 210.980469 601.910156 210.570313 600.78125 Z M 247.125 609.320313 L 245.925781 605.925781 L 232.484375 615.285156 L 230.964844 609.246094 C 230.964844 609.246094 220.980469 615.613281 219.074219 616.847656 C 217.171875 618.085938 214.40625 619.445313 214.40625 619.445313 C 214.40625 619.445313 214.546875 616.984375 213.550781 611.78125 C 212.550781 606.582031 211.40625 603.046875 211.40625 603.046875 C 211.40625 603.046875 218.527344 602.019531 222.527344 600.121094 C 226.527344 598.21875 229.207031 596.207031 229.207031 596.207031 L 232.6875 601.765625 C 232.6875 601.765625 237.40625 599.402344 240.492188 595.875 C 243.011719 592.996094 244.625 590.289063 244.625 590.289063 L 247.847656 596.488281 C 247.847656 596.488281 251.835938 594.03125 254.484375 590.296875 C 257.136719 586.5625 259.6875 582.046875 259.6875 582.046875 L 264.09375 585.5 C 259.824219 593.722656 253.488281 602.601563 247.125 609.320313 Z M 273.363281 559.632813 C 263.96875 559.246094 252.410156 562.585938 242.292969 566.707031 C 241.726563 566.9375 241.496094 566.695313 241.882813 566.359375 C 250.480469 558.871094 258.464844 549.359375 265.21875 540.355469 C 267.867188 547.71875 270.019531 551.855469 273.621094 558.410156 C 273.535156 558.820313 273.449219 559.226563 273.363281 559.632813 "/>
<path style=" stroke:none;fill-rule:nonzero;fill:rgb(0%,0%,0%);fill-opacity:1;" d="M 414.554688 518.285156 C 414.269531 515.222656 414.144531 515.210938 412.269531 518.015625 C 400.621094 535.425781 377.046875 570.519531 353.648438 575.707031 C 328.890625 581.199219 309.640625 557.128906 332.804688 531.429688 C 334.363281 529.695313 334.289063 529.550781 331.644531 529.578125 C 298.664063 529.898438 272.089844 555.101563 272.222656 585.6875 C 272.425781 633.257813 327.511719 648.796875 361.535156 628.859375 C 398.242188 607.351563 419.253906 569.480469 414.554688 518.285156 Z M 345.503906 631.722656 C 330.699219 635.320313 312.589844 634.28125 298.867188 626.457031 C 293.324219 623.296875 288.695313 619.332031 285.054688 614.699219 C 286.371094 613.714844 288.828125 611.945313 291.703125 610.207031 C 296.003906 607.609375 300.839844 605.140625 300.839844 605.140625 C 300.839844 605.140625 292.972656 599.652344 288.917969 595.863281 C 287.214844 594.265625 287.238281 594.140625 288.539063 593.417969 C 292.328125 591.316406 300.789063 589.417969 300.789063 589.417969 C 300.789063 589.417969 291.617188 580.191406 289.714844 577.292969 C 288.101563 574.824219 288.199219 574.703125 291.464844 573.867188 C 295.664063 572.792969 306.375 572.171875 306.375 572.171875 C 306.375 572.171875 304.039063 558.839844 305.664063 551.566406 C 306.890625 546.09375 307.105469 546.007813 310.191406 548.367188 C 312.765625 550.335938 317.355469 553.476563 319.179688 554.875 C 319.226563 558.664063 321.023438 564.613281 322.902344 567.550781 C 323.042969 567.769531 322.914063 567.871094 322.699219 567.707031 C 319.398438 565.167969 315.320313 562.273438 314.117188 561.265625 C 311.710938 559.242188 311.507813 559.132813 311.71875 562.191406 C 312.230469 569.75 313.734375 577.09375 313.734375 577.09375 C 313.734375 577.09375 305.058594 579.070313 304.019531 579.453125 C 302.980469 579.832031 302.890625 580 303.816406 581.316406 C 306.917969 585.742188 314.9375 592.050781 314.9375 592.050781 C 314.9375 592.050781 309.546875 592.207031 305.117188 593.773438 C 303.308594 594.414063 303.277344 594.515625 303.984375 595.574219 C 306.316406 599.066406 318.84375 607.773438 319.953125 608.234375 C 320.992188 608.667969 321.015625 608.785156 320.015625 608.839844 C 317.546875 608.972656 312.503906 610.292969 310.296875 611.214844 C 309.335938 611.617188 309.261719 611.75 310.414063 612.792969 C 313.503906 615.582031 336.566406 628.167969 345.507813 631.515625 C 345.621094 631.558594 345.617188 631.695313 345.503906 631.722656 Z M 346.460938 599.984375 C 342.636719 589.382813 338.1875 583.246094 331.382813 576.152344 C 331.019531 575.773438 331.277344 575.613281 331.789063 575.902344 C 340.644531 580.894531 353.121094 580.109375 361.277344 576.519531 C 361.675781 576.34375 361.917969 576.574219 361.640625 576.882813 C 353.679688 585.738281 351.449219 589.675781 347.867188 599.21875 C 347.199219 601.003906 346.867188 601.113281 346.460938 599.984375 Z M 383.015625 608.523438 L 381.816406 605.132813 L 368.375 614.492188 L 366.855469 608.453125 C 366.855469 608.453125 356.867188 614.820313 354.964844 616.054688 C 353.058594 617.289063 350.296875 618.652344 350.296875 618.652344 C 350.296875 618.652344 350.4375 616.1875 349.4375 610.988281 C 348.4375 605.789063 347.296875 602.253906 347.296875 602.253906 C 347.296875 602.253906 354.414063 601.226563 358.414063 599.324219 C 362.414063 597.425781 365.09375 595.410156 365.09375 595.410156 L 368.574219 600.972656 C 368.574219 600.972656 373.292969 598.609375 376.378906 595.082031 C 378.898438 592.199219 380.515625 589.492188 380.515625 589.492188 L 383.734375 595.691406 C 383.734375 595.691406 387.726563 593.234375 390.375 589.5 C 393.023438 585.765625 395.574219 581.253906 395.574219 581.253906 L 399.980469 584.703125 C 395.714844 592.929688 389.378906 601.808594 383.015625 608.523438 Z M 409.25 558.839844 C 399.855469 558.453125 388.300781 561.789063 378.183594 565.910156 C 377.613281 566.144531 377.386719 565.898438 377.773438 565.5625 C 386.371094 558.078125 394.351563 548.566406 401.105469 539.558594 C 403.757813 546.921875 405.90625 551.0625 409.507813 557.613281 C 409.425781 558.023438 409.339844 558.429688 409.25 558.839844 "/>
<path style=" stroke:none;fill-rule:nonzero;fill:rgb(0%,0%,0%);fill-opacity:1;" d="M 146.652344 278.785156 C 188.742188 284.972656 228.828125 268.566406 257.1875 225.6875 C 258.882813 223.121094 258.789063 223.03125 255.574219 224.046875 C 235.59375 230.34375 195.246094 242.976563 173.746094 232.386719 C 151 221.179688 151.039063 190.363281 185.1875 184.800781 C 187.488281 184.425781 187.519531 184.265625 185.441406 182.628906 C 159.511719 162.253906 123.011719 165.289063 103.980469 189.234375 C 74.378906 226.472656 107.636719 273.054688 146.652344 278.785156 Z M 198.917969 239.5625 C 210.308594 239.101563 222.484375 236.671875 233.386719 233.871094 C 230.847656 241.273438 229.9375 245.847656 228.648438 253.214844 C 228.328125 253.480469 228.007813 253.746094 227.683594 254.007813 C 220.597656 247.828125 209.488281 243.203125 199.019531 240.089844 C 198.433594 239.914063 198.40625 239.582031 198.917969 239.5625 Z M 193.773438 266.121094 C 198.179688 264.863281 202.992188 262.9375 202.992188 262.9375 L 204.269531 268.386719 C 195.796875 272.136719 185.296875 275.101563 176.132813 276.359375 L 177.316406 272.960938 L 160.976563 271.855469 L 163.570313 266.191406 C 163.570313 266.191406 151.796875 264.914063 149.535156 264.6875 C 147.277344 264.457031 144.269531 263.789063 144.269531 263.789063 C 144.269531 263.789063 145.921875 261.957031 148.394531 257.277344 C 150.867188 252.59375 152.1875 249.121094 152.1875 249.121094 C 152.1875 249.121094 158.386719 252.773438 162.695313 253.792969 C 167.003906 254.8125 170.355469 254.917969 170.355469 254.917969 L 169.589844 261.433594 C 169.589844 261.433594 174.75 262.539063 179.363281 261.71875 C 183.132813 261.050781 186.089844 259.945313 186.089844 259.945313 L 184.722656 266.796875 C 184.722656 266.796875 189.371094 267.378906 193.773438 266.121094 Z M 179.195313 237.792969 C 179.613281 237.90625 179.660156 238.234375 179.25 238.304688 C 167.496094 240.230469 163.296875 241.90625 154.535156 247.113281 C 152.894531 248.089844 152.566406 247.964844 152.953125 246.828125 C 156.605469 236.164063 156.972656 228.59375 156.101563 218.804688 C 156.054688 218.28125 156.355469 218.316406 156.574219 218.863281 C 160.359375 228.296875 170.585938 235.492188 179.195313 237.792969 Z M 95.84375 219.894531 C 97.488281 219.949219 100.511719 220.109375 103.839844 220.550781 C 108.820313 221.210938 114.140625 222.316406 114.140625 222.316406 C 114.140625 222.316406 111.433594 213.109375 110.640625 207.617188 C 110.308594 205.304688 110.410156 205.222656 111.878906 205.472656 C 116.144531 206.199219 123.9375 210.015625 123.9375 210.015625 C 123.9375 210.015625 122.550781 197.078125 122.882813 193.628906 C 123.164063 190.691406 123.316406 190.660156 126.390625 192.050781 C 130.339844 193.839844 139.082031 200.054688 139.082031 200.054688 C 139.082031 200.054688 145.601563 188.191406 151.417969 183.535156 C 155.796875 180.03125 156.019531 180.101563 156.949219 183.871094 C 157.726563 187.019531 159.34375 192.339844 159.890625 194.566406 C 157.558594 197.554688 155.238281 203.320313 154.867188 206.789063 C 154.839844 207.046875 154.671875 207.046875 154.609375 206.78125 C 153.625 202.734375 152.253906 197.929688 151.945313 196.390625 C 151.328125 193.304688 151.242188 193.09375 149.492188 195.609375 C 145.164063 201.828125 141.746094 208.496094 141.746094 208.496094 C 141.746094 208.496094 133.738281 204.613281 132.6875 204.261719 C 131.640625 203.90625 131.46875 203.980469 131.363281 205.589844 C 131.015625 210.980469 133.324219 220.921875 133.324219 220.921875 C 133.324219 220.921875 129.023438 217.667969 124.585938 216.121094 C 122.773438 215.488281 122.6875 215.546875 122.578125 216.816406 C 122.210938 221 126.539063 235.628906 127.117188 236.683594 C 127.652344 237.671875 127.601563 237.777344 126.785156 237.195313 C 124.777344 235.753906 120.015625 233.628906 117.71875 232.96875 C 116.714844 232.679688 116.574219 232.738281 116.824219 234.273438 C 117.484375 238.378906 127.605469 262.628906 132.484375 270.832031 C 132.546875 270.9375 132.460938 271.042969 132.355469 270.992188 C 118.554688 264.539063 105.074219 252.398438 99.265625 237.710938 C 96.917969 231.777344 95.785156 225.785156 95.84375 219.894531 "/>
<path style=" stroke:none;fill-rule:nonzero;fill:rgb(0%,0%,0%);fill-opacity:1;" d="M 167.035156 224.101563 C 165.347656 226.679688 165.441406 226.765625 168.652344 225.738281 C 188.605469 219.359375 228.902344 206.5625 250.445313 217.066406 C 273.238281 228.183594 273.324219 259 239.199219 264.699219 C 236.898438 265.085938 236.867188 265.242188 238.953125 266.871094 C 264.964844 287.144531 301.453125 283.957031 320.386719 259.9375 C 349.835938 222.578125 316.394531 176.132813 277.351563 170.558594 C 235.238281 164.542969 195.21875 181.109375 167.035156 224.101563 Z M 225.246094 209.992188 C 213.859375 210.503906 201.691406 212.976563 190.800781 215.820313 C 193.308594 208.410156 194.203125 203.832031 195.460938 196.460938 C 195.78125 196.191406 196.101563 195.925781 196.425781 195.664063 C 203.535156 201.8125 214.660156 206.394531 225.144531 209.464844 C 225.730469 209.636719 225.761719 209.96875 225.246094 209.992188 Z M 244.976563 211.683594 C 244.558594 211.570313 244.511719 211.242188 244.917969 211.171875 C 256.664063 209.195313 260.859375 207.503906 269.601563 202.261719 C 271.238281 201.28125 271.5625 201.402344 271.179688 202.539063 C 267.574219 213.21875 267.234375 220.789063 268.144531 230.578125 C 268.195313 231.101563 267.894531 231.066406 267.671875 230.519531 C 263.851563 221.105469 253.597656 213.949219 244.976563 211.683594 Z M 290.914063 228.371094 C 290.914063 228.371094 295.230469 231.605469 299.671875 233.132813 C 301.488281 233.757813 301.574219 233.699219 301.679688 232.429688 C 302.027344 228.246094 297.640625 213.636719 297.0625 212.578125 C 296.519531 211.597656 296.570313 211.488281 297.386719 212.070313 C 299.402344 213.5 304.171875 215.605469 306.472656 216.257813 C 307.480469 216.542969 307.617188 216.484375 307.363281 214.949219 C 306.683594 210.847656 296.464844 186.640625 291.554688 178.453125 C 291.488281 178.351563 291.578125 178.246094 291.683594 178.292969 C 305.511719 184.691406 319.039063 196.777344 324.90625 211.441406 C 327.277344 217.367188 328.433594 223.351563 328.402344 229.242188 C 326.753906 229.195313 323.730469 229.050781 320.402344 228.621094 C 315.417969 227.980469 310.097656 226.898438 310.097656 226.898438 C 310.097656 226.898438 312.839844 236.089844 313.652344 241.578125 C 313.992188 243.890625 313.894531 243.976563 312.425781 243.730469 C 308.152344 243.019531 300.347656 239.234375 300.347656 239.234375 C 300.347656 239.234375 301.785156 252.167969 301.46875 255.617188 C 301.199219 258.554688 301.046875 258.589844 297.96875 257.210938 C 294.011719 255.4375 285.242188 249.257813 285.242188 249.257813 C 285.242188 249.257813 278.773438 261.148438 272.972656 265.828125 C 268.609375 269.347656 268.386719 269.28125 267.4375 265.515625 C 266.648438 262.371094 265.011719 257.054688 264.457031 254.828125 C 266.777344 251.832031 269.074219 246.058594 269.429688 242.589844 C 269.457031 242.332031 269.621094 242.328125 269.6875 242.59375 C 270.6875 246.636719 272.078125 251.4375 272.394531 252.976563 C 273.023438 256.058594 273.109375 256.269531 274.851563 253.742188 C 279.152344 247.507813 282.546875 240.824219 282.546875 240.824219 C 282.546875 240.824219 290.566406 244.679688 291.617188 245.027344 C 292.667969 245.378906 292.839844 245.300781 292.9375 243.691406 C 293.265625 238.300781 290.914063 228.371094 290.914063 228.371094 Z M 275.699219 192.074219 C 273.242188 196.765625 271.9375 200.246094 271.9375 200.246094 C 271.9375 200.246094 265.726563 196.617188 261.414063 195.617188 C 257.097656 194.613281 253.746094 194.519531 253.746094 194.519531 L 254.484375 188.003906 C 254.484375 188.003906 249.320313 186.917969 244.710938 187.757813 C 240.945313 188.441406 237.996094 189.558594 237.996094 189.558594 L 239.335938 182.699219 C 239.335938 182.699219 234.679688 182.140625 230.28125 183.414063 C 225.886719 184.6875 221.078125 186.632813 221.078125 186.632813 L 219.777344 181.1875 C 228.238281 177.40625 238.722656 174.402344 247.886719 173.105469 L 246.710938 176.507813 L 263.058594 177.546875 L 260.488281 183.21875 C 260.488281 183.21875 272.265625 184.449219 274.527344 184.671875 C 276.785156 184.890625 279.796875 185.542969 279.796875 185.542969 C 279.796875 185.542969 278.152344 187.382813 275.699219 192.074219 "/>
</g>
</svg>
