<?xml version="1.0" encoding="UTF-8"?>
<svg xmlns="http://www.w3.org/2000/svg" xmlns:xlink="http://www.w3.org/1999/xlink" width="533pt" height="643pt" viewBox="0 0 533 643" version="1.1">
<g id="surface1">
<path style=" stroke:none;fill-rule:nonzero;fill:rgb(0%,0%,0%);fill-opacity:1;" d="M 75.019531 31.4375 C 93.558594 24.183594 94.898438 20.101563 105 14.699219 C 105.800781 15.5 106.898438 15.699219 108.101563 15.601563 C 109.699219 17.101563 109.898438 19.601563 110.300781 21.898438 C 110.699219 27.601563 108.300781 32.199219 104 36 C 94.398438 42.898438 79.648438 40.851563 68.800781 37.199219 C 78.847656 43.085938 93.199219 44.898438 104.300781 39.601563 C 113.300781 35.300781 117.136719 20.75 117 16.300781 C 125.753906 27.449219 159.5 70.601563 159.5 70.601563 C 166.800781 82.199219 170.199219 95.5 169.601563 110.398438 L 171 112.800781 C 172.398438 113.800781 174.300781 114.398438 176 113.800781 C 177.601563 113.199219 178.699219 111.601563 178.898438 109.898438 C 175.300781 98.800781 175.289063 84.734375 167.867188 75.46875 C 140.90625 41.808594 123.945313 12.644531 121.800781 9.101563 C 121.125 7.988281 120.488281 7.1875 118.699219 8.199219 C 116.179688 9.742188 115.222656 6.710938 111.699219 7.898438 C 100.300781 0.398438 86.207031 -0.335938 71.398438 -0.199219 C 48.21875 0.0117188 20.601563 0.417969 2 5.101563 C -0.597656 5.753906 0.996094 7.828125 4.699219 7.699219 C 9.800781 10 14.800781 12.601563 19.601563 15.601563 C 36.601563 24 53.003906 40.054688 75.019531 31.4375 Z M 46.398438 27.601563 C 25.40625 16.28125 10.699219 7.898438 10.699219 7.898438 C 38.488281 5.433594 77.921875 3.796875 92.5 7.898438 C 103.578125 11.019531 102.898438 12.800781 104 14.199219 C 85.710938 24.738281 67.394531 38.917969 46.398438 27.601563 "/>
<path style=" stroke:none;fill-rule:nonzero;fill:rgb(0%,0%,0%);fill-opacity:1;" d="M 329.398438 349.5 C 333.046875 350.097656 333.558594 348.425781 332 346.601563 C 330.796875 345.1875 323.699219 337.355469 320.339844 332.65625 C 316.972656 327.964844 292.199219 287.101563 292.199219 287.101563 C 286.398438 277.398438 280.101563 267.898438 271.800781 259.199219 C 259.300781 245.800781 242.609375 239.203125 224 243.898438 C 209.710938 247.507813 209.574219 271.632813 209.574219 271.632813 C 209.503906 272.695313 209.710938 273.722656 210.800781 274.101563 C 214.960938 275.117188 218.121094 274.664063 221.601563 275.300781 C 242.609375 279.140625 260.925781 303.191406 273.5 312.5 C 263.953125 300.960938 250.035156 288.496094 245.101563 283.5 C 235.757813 274.042969 224.40625 273.328125 211.707031 272.925781 C 211.0625 272.820313 210.613281 272.121094 210.628906 271.320313 C 212.664063 260.347656 211.546875 245.054688 233.371094 243.9375 C 256.785156 242.742188 274.300781 260.699219 285.5 278.699219 C 298.601563 301.800781 310.199219 325.601563 328.699219 346.601563 C 323 347.199219 311.101563 345.238281 311.101563 347.300781 C 310.898438 354.699219 314.699219 361 318.601563 367 C 315.199219 368.300781 310.886719 367.550781 307.5 366.699219 C 291.1875 362.601563 275.738281 345.398438 247.800781 338.898438 C 235.097656 335.945313 208.699219 344.398438 196.398438 329.300781 C 190.046875 320.871094 199.921875 294.589844 201 282.300781 C 197.214844 291.242188 196.867188 298.636719 193.867188 306.535156 C 184.566406 324.4375 175.929688 344.273438 178.898438 366 C 182.402344 391.589844 194.824219 420.261719 200.800781 435.800781 C 193.550781 408.15625 189.410156 394.777344 183.5 374.199219 C 177.589844 353.625 182.476563 331.984375 192.277344 313.382813 C 191.777344 320.882813 191.320313 325.96875 196.097656 331.0625 C 207.726563 343.011719 222.816406 340.523438 236.714844 339.824219 C 255.414063 339.023438 269.300781 348.699219 284 357.601563 C 298.835938 365.3125 304.699219 371.699219 318.300781 369.601563 C 319.601563 369.101563 321.800781 369 321.699219 367.199219 C 321.453125 365.46875 314.699219 356.199219 314.300781 349.898438 C 314.300781 349.898438 325.753906 348.902344 329.398438 349.5 "/>
<path style=" stroke:none;fill-rule:nonzero;fill:rgb(0%,0%,0%);fill-opacity:1;" d="M 130.699219 121.5 C 128.25 121.5 127.164063 129.914063 127.300781 132.5 C 128.585938 152.25 141.585938 172.25 147.199219 181.898438 C 136.585938 161 135.683594 158.480469 133.601563 153.398438 C 131.25 147.664063 125.414063 134.164063 130.699219 123.101563 C 145 123.898438 156.503906 132.226563 171.5 130.800781 C 178.164063 130.164063 186.335938 124.25 190 128.199219 C 199 140 208.601563 151.601563 216.398438 163.898438 C 228.769531 182.007813 227.3125 228.9375 227.394531 234.847656 C 227.421875 236.480469 225.6875 237.9375 224.625 238 C 222.125 238 215.4375 232.875 209.835938 220.75 C 206.160156 212.800781 175.5 144.835938 173.601563 142.101563 C 174.085938 146 209.625 224.3125 211.1875 227 C 212.5625 229.367188 219.015625 238.574219 224.75 239 C 226.4375 239.125 227.9375 236.769531 227.976563 235.648438 C 228.3125 225.3125 227.6875 207.4375 227.375 204.3125 C 228.375 202.625 241.300781 168.101563 252.300781 151.898438 C 261.601563 137.601563 277.601563 132.699219 293.898438 134.898438 C 298.25 135.75 300.5 145.25 308.300781 147.398438 C 300.75 142 301.25 139 297.125 135.25 C 289.875 129.75 262.125 135.5 255.5 143.5 C 241.035156 160.964844 236.050781 182.476563 227.25 202.375 C 226.351563 195.273438 226.847656 188.1875 225.199219 181.5 C 219.625 158.875 203.601563 142.898438 190.398438 124.601563 C 188.414063 122.414063 184.835938 122.5 182.300781 124.300781 C 166 135.601563 147.699219 122.800781 130.699219 121.5 "/>
<path style=" stroke:none;fill-rule:nonzero;fill:rgb(0%,0%,0%);fill-opacity:1;" d="M 260.699219 180.300781 C 273.5 170.375 284 156.699219 299.898438 155.300781 C 310.5 154.601563 319.699219 159.699219 325.300781 168.5 C 332.398438 182.699219 334.101563 201.601563 330.300781 217.898438 C 329 223.199219 325.199219 229.800781 319.5 231.101563 C 324.601563 223 332.878906 213.375 327 203.5 C 323.875 198.25 320.394531 194.878906 315.5 195.125 C 296.414063 196.085938 285.414063 223.085938 271.914063 232.914063 C 265.167969 237.832031 261.164063 238.75 250.398438 237.898438 C 271.585938 246.585938 289.585938 215.78125 291.914063 213 C 297.5 206.335938 309.25 193.5 319.5 197.800781 C 322.898438 199.5 325 203 326.300781 206.199219 C 328.800781 216 321.699219 223.101563 316.699219 230.398438 C 315.75 231.75 313.5 234.125 315.5 234.5 C 320.5 235.101563 325.875 233.5 328.398438 229 C 337.101563 212 335 188.101563 328.199219 170.898438 C 325.199219 163.5 317.460938 156.945313 310.125 155 C 288.425781 149.25 272.5 168.125 260.699219 180.300781 "/>
<path style=" stroke:none;fill-rule:nonzero;fill:rgb(0%,0%,0%);fill-opacity:1;" d="M 229.707031 367.535156 C 229.707031 359.738281 227 352.566406 224.5 346.101563 C 226 354.75 228.09375 364.925781 228.113281 369.925781 C 228.199219 390.925781 221.25 401.75 230.800781 431.800781 C 233.5625 440.492188 235.300781 452.398438 245.601563 455.300781 C 240.398438 459.800781 232.25 460.5 225.199219 459.101563 C 189.480469 452.007813 172.054688 413.839844 165.835938 382.351563 C 160.738281 356.546875 164.242188 343.644531 170.5 315.398438 C 164.722656 331.539063 160.519531 346.117188 161.398438 362.699219 C 163.445313 401.308594 178.21875 441.863281 216.398438 460.101563 C 226.363281 464.859375 246.105469 460.820313 256.699219 450 C 258.058594 448.609375 257.261719 447.496094 255.671875 448.609375 C 252.484375 450.683594 250.339844 454.386719 246.101563 453.601563 C 243.246094 453.070313 241.300781 451.699219 239.398438 449.800781 C 231.617188 437.9375 231.347656 425.09375 228.800781 412.101563 C 226.839844 402.101563 230.800781 384.5 229.601563 369.398438 C 250.300781 398.601563 272.800781 428.199219 298.199219 454.300781 C 279.402344 423.128906 257.207031 393.738281 229.707031 367.535156 "/>
<path style=" stroke:none;fill-rule:nonzero;fill:rgb(0%,0%,0%);fill-opacity:1;" d="M 252.800781 508.800781 C 234.835938 490 197.679688 490.082031 175.101563 501.800781 C 145.164063 517.335938 118.5 538 91.101563 560.597656 C 86.832031 563.664063 91.167969 567 92.5 565.699219 C 106.164063 559.335938 110.398438 555.902344 119.398438 551 C 149.898438 537 193.101563 530.398438 225.199219 545.5 C 266.101563 560.699219 286.324219 605.347656 296 643 C 295.269531 628.730469 282.699219 576.300781 272.699219 548.902344 C 267.398438 535 263 520.699219 252.800781 508.800781 Z M 184.835938 533.335938 C 164.945313 532.90625 155.164063 534 121.835938 545.664063 C 136.632813 533.664063 153.300781 521.699219 168.800781 511.398438 C 187.601563 502.699219 210.300781 495.800781 232.199219 502.601563 C 241.5 505.5 250.898438 510.101563 256.699219 519.398438 C 273.601563 549.800781 282.101563 583.800781 290 618 C 269.164063 560 231.5 534.335938 184.835938 533.335938 "/>
<path style=" stroke:none;fill-rule:nonzero;fill:rgb(0%,0%,0%);fill-opacity:1;" d="M 531 442.601563 C 527.5 437.398438 521.019531 436.90625 515.101563 437 C 478.816406 437.578125 445.886719 445.148438 410.5 454.300781 C 378.8125 462.492188 358.824219 500.410156 349.300781 524.199219 C 339.773438 547.988281 314.917969 606.398438 307.300781 629.800781 C 318.703125 606.398438 347.09375 536.75 357.5 514.101563 C 367.90625 491.449219 388.328125 464.5625 414.300781 457.898438 C 447.777344 449.3125 482.398438 443.699219 518.300781 447.398438 L 518.300781 447.601563 C 508 453.601563 497.300781 458.898438 487.101563 464.898438 C 459.800781 482.199219 439.199219 514.699219 411.699219 530.898438 C 395.101563 541.800781 371.839844 538.636719 357.699219 553.902344 C 325.894531 588.226563 336.113281 611.320313 301.101563 641 C 335.359375 615.859375 328.09375 601.765625 341.101563 582.699219 C 350.5 568.921875 357.199219 550.363281 374 546.699219 C 397.058594 541.671875 418.632813 533.34375 431.101563 521.300781 C 443.566406 509.257813 462.539063 491.707031 469.5 486.199219 C 476.460938 480.691406 495.09375 466.726563 505.300781 462.199219 C 515.507813 457.675781 524.398438 457.5 530.699219 449 C 531.898438 447.300781 532.5625 444.394531 531 442.601563 "/>
<path style=" stroke:none;fill-rule:nonzero;fill:rgb(0%,0%,0%);fill-opacity:1;" d="M 310.460938 438.617188 C 301.023438 403.375 277.886719 356.859375 252.519531 343.726563 C 300.484375 390.097656 305.359375 449.039063 307.382813 493.511719 C 308.800781 524.777344 308.101563 559.800781 303.5 591 C 303.5 591 299.601563 630.734375 297.828125 642.257813 C 304.03125 622.761719 311.121094 583.761719 315.867188 547.605469 C 320.507813 512.269531 316.25 460.25 310.460938 438.617188 "/>
<path style=" stroke:none;fill-rule:nonzero;fill:rgb(0%,0%,0%);fill-opacity:1;" d="M 93 206.699219 C 92.699219 205.699219 92.699219 204.601563 92 203.800781 C 87.199219 207.5 81.898438 210.101563 76.398438 212.199219 L 78.601563 214.800781 L 84.398438 209.101563 L 93 206.699219 "/>
<path style=" stroke:none;fill-rule:nonzero;fill:rgb(0%,0%,0%);fill-opacity:1;" d="M 97.101563 391.5 C 98.34375 392.5 99.613281 391.695313 99.671875 390.65625 C 99.574219 386.058594 92.671875 383.78125 94 379.699219 C 95.671875 374.558594 99.800781 370.199219 104 366.300781 C 104 366.300781 130 350.375 136 346.601563 C 142 342.824219 164.59375 321.375 167.417969 317.800781 C 170.242188 314.226563 192.375 287.625 196.398438 278.898438 C 188.125 289.625 166.398438 317.101563 166.398438 317.101563 C 157.601563 326.898438 147.398438 336.398438 137.199219 344.199219 C 122 355.601563 101.300781 359.898438 91.601563 378.300781 C 88.699219 373.199219 86.699219 367.699219 85.601563 361.898438 C 80.398438 335.898438 92.125 312.625 112.5 297.25 C 124.726563 289.976563 131.199219 292.300781 139.300781 286.800781 C 149.699219 281.101563 160.601563 275.800781 173.898438 277.898438 C 168.398438 283.5 161.800781 286.898438 156.800781 293.101563 C 147.375 294.125 142.683594 296.878906 136 299.800781 C 132.09375 301.507813 125.335938 305.875 125.335938 305.875 L 122.800781 305.5 L 122.800781 307.5 C 110.300781 318.199219 100.875 331.125 95.898438 345.898438 C 106.875 326 115.386719 315.035156 124 311.101563 C 124.539063 310.855469 125.289063 312.035156 125.265625 312.773438 C 120.132813 313.238281 122.625 322.75 122.800781 323.5 C 123.875 323.875 124.875 323.625 125.898438 323.300781 C 124.800781 322 123.75 320.625 123.5 319 C 123.398438 317.101563 123.75 314.625 125.25 314.125 C 137.449219 311.324219 147.898438 306.300781 159 301 C 169.898438 296.101563 176 284 184 275.5 C 191.699219 274 196.601563 266.898438 198.101563 259.699219 C 198.601563 261.101563 200 259.800781 200.800781 261.101563 C 202.5 261.5 204.828125 261.710938 206 260.199219 C 207.125 258.75 207.398438 257.398438 207.199219 255.601563 C 206.898438 254 205.699219 252.269531 204 251.96875 C 206.398438 238.769531 203.835938 225.664063 195.5 217 C 169.5 190.5 124.394531 171.9375 106.199219 164.898438 C 105.164063 164.5 103.800781 165.398438 103.800781 165.398438 C 97.101563 164.5 90 163.898438 83.398438 163.5 C 81.375 163.445313 77.570313 163.65625 78.398438 165.601563 C 84.5 180.101563 91.632813 194.21875 99.832031 208 C 116 235.164063 146.164063 258.664063 172.898438 260.898438 C 172.132813 261.464844 171.101563 262.398438 170 262.800781 C 144.199219 259.699219 109.625 229 100.375 229.25 C 100.375 229.25 88.125 215 85.300781 212.398438 C 88.5 218.625 94.144531 224.664063 95.875 228.125 C 92.984375 226.984375 88.636719 224.503906 85.300781 226.101563 C 72.199219 233.101563 63.472656 245.820313 54.59375 258.550781 C 47.859375 268.195313 46.300781 277.789063 45.5 291.601563 C 48.398438 281.898438 48.671875 273.054688 54.398438 262.601563 C 61.304688 249.996094 71.199219 238.5 83.199219 229.5 C 87.800781 226.800781 93.976563 228.976563 98.375 230.875 C 98.375 230.875 103.375 238.25 113.898438 253.699219 C 124.425781 269.148438 135.800781 277.5 151.800781 277.199219 C 151.199219 278.398438 149.800781 278.699219 148.898438 279.601563 C 148.898438 279.601563 142.335938 280.085938 134 280.601563 C 125.664063 281.117188 114.386719 287.855469 103.6875 288.15625 C 103.289063 284.558594 105.800781 281.898438 106.898438 278.898438 L 103.800781 277.898438 L 103.101563 282.5 C 102.601563 284.300781 103.109375 286.71875 102.609375 288.21875 C 89.007813 288.617188 76.582031 284.914063 63.199219 284.199219 C 58.171875 283.929688 53.101563 283.300781 49.300781 286.101563 C 47.5 287.699219 46.65625 289.703125 46.898438 292.101563 C 48 302.835938 65.660156 323.035156 65.601563 333.101563 C 65.59375 334.1875 65.984375 334.046875 66.101563 333.101563 C 66.351563 331.03125 73.195313 315.15625 74.574219 303.808594 C 74.691406 302.835938 75.441406 300.410156 72.726563 299.65625 C 74.8125 301.210938 74.351563 302.839844 74.128906 303.757813 C 71.910156 312.855469 69.734375 321.640625 66.101563 330 C 62.800781 318 51.417969 301.414063 49.800781 296.398438 C 49.183594 294.632813 48.667969 291.835938 48.800781 290.699219 C 48.933594 289.566406 50.082031 287.664063 52.199219 287.101563 C 69.398438 285.300781 85.699219 291.371094 103.5 289.671875 C 104.542969 290.328125 104.40625 290.984375 105.625 291.828125 C 101.726563 295.429688 100.5 299.699219 100 304.601563 C 100.691406 304.597656 101.316406 304.566406 102.101563 304.800781 C 84.101563 322.601563 78.007813 350.496094 87 374.398438 C 89.414063 380.820313 91.601563 386.800781 97.101563 391.5 Z M 126.601563 312.5 C 126.273438 311.179688 124.78125 310.550781 125.601563 309.898438 C 134.539063 302.796875 143.375 296.875 155.398438 294.300781 C 147.601563 304.699219 136.898438 308.199219 126.601563 312.5 Z M 155.199219 278.898438 C 156.25 277.5 157.375 277.75 159 277.898438 Z M 188 271.199219 L 196.398438 260.898438 C 195.199219 265 193 270.300781 188 271.199219 Z M 86 176.699219 C 84.699219 173.300781 83.332031 170 82.199219 166.601563 C 90.199219 167.601563 101 166.335938 108.398438 168.5 C 171 192 193.753906 215.378906 198.800781 224.199219 C 202.5 230.664063 204.550781 242.550781 202.75 251.75 C 191.75 249.351563 182.101563 253.300781 173.898438 259.898438 C 131.898438 255.898438 99.699219 213 86 176.699219 Z M 175.300781 264.300781 C 178.699219 264.398438 182 265.5 185.398438 265.199219 C 182.699219 264.300781 179.601563 264.101563 176.800781 263.5 C 178.300781 261.101563 180.875 263.375 183.199219 262.800781 L 180.101563 261.601563 C 185.101563 259.699219 190.601563 257.300781 196.398438 259 L 178.898438 273.398438 C 174.101563 273.398438 169.199219 273.398438 164.800781 272.398438 C 167.300781 269.601563 171.699219 266.699219 175.300781 264.300781 Z M 123.699219 253.199219 C 116.40625 247.824219 108.523438 239.625 103.125 232.625 C 124.925781 241.425781 145.101563 259.601563 169.101563 263.300781 L 159.699219 271.199219 C 146.5 268.300781 135.125 261.625 123.699219 253.199219 Z M 133.710938 288 C 130.128906 289.328125 128.5 289.875 125 290 C 128.96875 288.96875 137.085938 285.210938 141.484375 283.496094 C 139.71875 285.125 136.972656 286.789063 133.710938 288 Z M 106.109375 291.84375 L 104.5625 289.5625 C 116.363281 287.160156 127.199219 281.898438 139.800781 281.300781 C 142 281.101563 144.300781 280.800781 146.5 280.601563 C 134.101563 282.898438 139.125 286.25 107.625 292.375 C 109.75 292.625 122.960938 290.664063 122.960938 290.664063 C 112.835938 293.289063 108.199219 299.300781 103.101563 303.398438 C 101.398438 299 103.710938 295.042969 106.109375 291.84375 "/>
<path style=" stroke:none;fill-rule:nonzero;fill:rgb(0%,0%,0%);fill-opacity:1;" d="M 190.699219 248.199219 C 193.664063 246 192.800781 242.800781 192.101563 240.300781 C 184.101563 222 165.835938 212 149.898438 201.898438 C 160.835938 210.835938 171.398438 219.898438 182 229.199219 C 186.5 232.800781 193.335938 241.335938 190.699219 248.199219 "/>
</g>
</svg>
