<?xml version="1.0" encoding="UTF-8"?>
<svg xmlns="http://www.w3.org/2000/svg" xmlns:xlink="http://www.w3.org/1999/xlink" width="432pt" height="684pt" viewBox="0 0 432 684" version="1.1">
<g id="surface1">
<path style=" stroke:none;fill-rule:nonzero;fill:rgb(0%,0%,0%);fill-opacity:1;" d="M 423.675781 197.472656 L 412.523438 190.972656 C 419.507813 181.660156 428.140625 173.027344 430.953125 162.066406 C 424.550781 157.898438 416.886719 157.023438 410 154.113281 C 413.589844 147.808594 414.945313 140.535156 415.53125 132.96875 L 382.9375 129.960938 C 390.40625 122.296875 394.964844 113.371094 400.203125 104.835938 L 400.011719 99.890625 C 383.617188 100.859375 366.546875 100.667969 351.316406 103.671875 C 362.375 88.929688 367.710938 71.761719 369.453125 53.136719 C 357.621094 53.621094 344.71875 53.816406 333.371094 55.65625 L 334.339844 37.035156 C 318.332031 36.050781 314.925781 41.199219 299.90625 45.183594 C 298.9375 35.191406 296.605469 9.585938 294.765625 9.390625 C 288.847656 12.300781 283.804688 17.246094 278.660156 21.902344 L 245.390625 54.980469 C 244.421875 34.414063 240.25 14.726563 224.925781 0.464844 C 211.730469 14.726563 203.488281 31.019531 197.957031 48.480469 C 191.070313 34.222656 183.40625 20.15625 173.707031 7.253906 C 167.5 17.148438 161.484375 27.335938 157.410156 38.003906 C 150.816406 28.886719 142.863281 18.703125 132.289063 14.726563 C 128.3125 25.492188 125.984375 36.9375 123.464844 48.191406 C 112.597656 40.914063 101.25 34.707031 88.25 32.378906 C 87.960938 49.355469 87.667969 66.523438 89.414063 82.238281 C 75.933594 80.199219 61.382813 80.683594 48.480469 83.59375 C 53.234375 93.296875 59.246094 102.410156 64.777344 111.820313 L 63.871094 113.082031 C 47.964844 112.789063 30.730469 110.269531 16.566406 115.507813 C 22.96875 128.410156 31.378906 139.757813 43.015625 150.429688 L 41.011719 152.269531 C 29.371094 151.980469 19.574219 156.152344 9.097656 158.574219 L 8.417969 164.394531 C 16.375 172.933594 34.125 193.59375 50.808594 201.644531 C 36.242188 207.128906 -6.285156 221.488281 1.921875 237.242188 C 10.746094 241.21875 20.351563 243.9375 28.691406 248.6875 C 28.691406 248.6875 1.855469 266.496094 4.734375 274.976563 C 16.46875 278.953125 27.917969 283.996094 39.847656 287.585938 C 32.960938 295.734375 23.746094 303.398438 19.382813 312.902344 L 20.542969 317.558594 C 20.542969 317.558594 34.449219 324.21875 47.996094 324.835938 C 41.109375 334.339844 35.675781 344.429688 30.34375 354.613281 C 31.992188 356.066406 33.929688 356.84375 35.675781 358.300781 C 47.121094 357.910156 58.570313 357.425781 69.628906 355.972656 C 84.082031 354.902344 96.691406 348.503906 108.328125 341.324219 C 103.867188 349.277344 100.085938 357.425781 96.882813 365.769531 C 61.285156 372.945313 36.066406 415.074219 34.996094 443.949219 C 34.152344 466.867188 29.273438 488.472656 21.417969 508.648438 L 25.878906 518.445313 C 32.863281 510.492188 40.269531 504.964844 50.519531 502.148438 C 93.667969 490.304688 145.09375 499.628906 180.691406 470.042969 C 187.480469 481.296875 195.242188 492.0625 203.972656 502.441406 C 203.390625 515.632813 203.390625 529.40625 202.128906 542.019531 L 192.332031 528.921875 C 195.628906 526.886719 199.121094 523.976563 200.480469 520.289063 C 203.390625 512.628906 200.769531 504.285156 194.660156 498.949219 C 182.378906 486.046875 153.117188 494.449219 144.984375 496.722656 C 108.089844 507.03125 80.789063 514.0625 65.117188 548.09375 C 61.734375 555.4375 59.425781 563.214844 58.472656 571.503906 C 57.113281 581.691406 50.226563 589.546875 48.191406 599.441406 C 48.964844 602.449219 49.9375 605.648438 52.652344 607.394531 C 52.652344 607.394531 101.277344 565.308594 123.949219 554.945313 C 143.414063 546.050781 165.203125 542.800781 184.183594 532.703125 C 190.78125 540.660156 196.308594 549.097656 201.839844 557.535156 L 198.347656 669.085938 L 215.417969 670.445313 L 227.929688 668.601563 L 225.117188 560.15625 C 238.503906 551.136719 255.285156 550.164063 271.484375 548.03125 C 272.84375 549.390625 275.074219 549.679688 275.851563 551.523438 C 268.1875 565.78125 268.476563 586.054688 274.6875 600.898438 C 285.644531 629.898438 316.878906 639.597656 340.644531 652.304688 C 354.421875 660.550781 370.519531 668.601563 379.734375 683.054688 L 387.398438 683.734375 C 387.886719 675.972656 387.300781 667.4375 388.757813 659.582031 C 393.703125 627.570313 417.761719 600.023438 407.671875 565.296875 C 400.882813 541.433594 375.46875 529.988281 353.449219 526.886719 C 356.746094 515.730469 356.84375 503.410156 357.621094 491.1875 C 357.8125 475.667969 359.464844 461.507813 356.941406 446.761719 C 353.359375 409.316406 294.832031 411.613281 267.023438 426.78125 C 257.128906 424.742188 246.070313 424.839844 235.59375 424.9375 L 234.914063 421.640625 C 244.90625 412.617188 246.265625 399.234375 248.882813 386.71875 C 261.105469 398.261719 274.976563 407.867188 290.300781 410.96875 C 292.46875 410.871094 294.148438 410.582031 294.730469 409.902344 C 294.636719 393.996094 294.570313 377.019531 289.429688 362.953125 C 306.890625 372.460938 324.640625 381.386719 343.167969 388.367188 L 340.839844 353.644531 C 353.253906 357.621094 366.445313 359.367188 380.222656 360.140625 C 378.960938 352.769531 376.535156 345.59375 375.761719 338.316406 L 387.59375 338.800781 C 386.722656 320.082031 379.964844 303.621094 373.949219 287.035156 L 375.078125 285.453125 C 386.527344 284.578125 399.234375 286.132813 409.710938 281.960938 L 409.320313 275.171875 L 399.523438 263.335938 L 399.523438 262.65625 C 405.730469 260.425781 411.261719 257.417969 416.304688 252.664063 C 411.453125 241.996094 402.242188 233.167969 395.0625 223.566406 C 405.828125 216.777344 416.402344 208.53125 423.675781 197.472656 Z M 166.046875 500.503906 C 162.554688 505.546875 159.253906 511.753906 153.921875 514.953125 C 138.304688 517.28125 121.523438 517.671875 105.226563 517.769531 C 124.527344 509.617188 146.160156 507.195313 166.046875 500.503906 Z M 117.835938 547.0625 C 97.753906 557.839844 80.296875 574.128906 62.304688 589.367188 C 61.351563 590.175781 60.503906 589.835938 60.949219 588.828125 C 65.851563 577.820313 64.601563 564.210938 70.113281 553.367188 C 74.671875 543.570313 82.429688 534.546875 91.257813 527.078125 C 111.628906 523.976563 134.230469 524.652344 154.601563 522.90625 C 159.253906 521.84375 163.8125 519.320313 166.917969 515.632813 C 170.699219 517.960938 174.191406 521.742188 177.199219 524.753906 C 159.449219 537.070313 136.558594 537.167969 117.835938 547.0625 Z M 186.511719 522.230469 L 171.863281 509.8125 L 178.171875 499.628906 C 184.28125 501.082031 192.429688 504.867188 193.300781 512.140625 C 193.203125 516.410156 190.488281 520.578125 186.511719 522.230469 Z M 414.339844 168.972656 L 418.632813 168.082031 C 414.753906 174.484375 410 181.371094 403.890625 187.191406 C 396.128906 184.863281 388.371094 182.4375 380.222656 181.175781 L 385.75 175.550781 C 392.152344 176.132813 398.070313 178.363281 404.859375 177.199219 C 408.640625 175.160156 414.339844 168.972656 414.339844 168.972656 Z M 388.371094 147.421875 C 392.929688 146.9375 396.710938 143.347656 399.234375 139.46875 L 407.1875 140.144531 C 398.847656 156.054688 384.199219 171.1875 368.097656 179.722656 L 354.808594 178.558594 C 360.820313 174.484375 360.140625 167.691406 362.472656 162.066406 C 367.128906 157.992188 375.566406 162.359375 379.929688 158.382813 C 383.519531 154.988281 383.035156 148.972656 388.371094 147.421875 Z M 360.433594 129.476563 C 366.546875 124.042969 366.640625 113.664063 375.566406 111.820313 C 378.863281 111.726563 382.160156 111.726563 385.070313 112.695313 C 366.351563 142.765625 335.503906 170.023438 301.457031 177.007813 C 293.601563 178.265625 284.871094 177.492188 277.015625 176.714844 C 276.820313 175.648438 276.527344 174.484375 276.625 173.222656 C 284.675781 173.027344 293.40625 172.058594 297.285156 164.203125 C 298.839844 160.417969 297.675781 154.890625 301.75 152.757813 C 311.15625 152.175781 322.699219 157.023438 328.230469 146.9375 C 334.148438 132.675781 332.570313 131.675781 345.496094 132.289063 C 350.734375 134.035156 356.359375 133.453125 360.433594 129.476563 Z M 295.445313 185.542969 L 288.265625 189.808594 L 286.324219 184.863281 Z M 298.9375 64.097656 C 301.164063 63.320313 303.589844 61.867188 305.921875 60.800781 C 311.449219 56.144531 316.878906 51.390625 322.894531 47.996094 C 324.835938 47.414063 326.675781 57.792969 326.675781 57.792969 C 316.199219 61.382813 306.5 66.8125 297.285156 73.605469 Z M 304.753906 103.382813 C 307.472656 97.757813 303.785156 89.121094 309.605469 85.242188 C 318.722656 82.816406 332.980469 91.160156 337.347656 78.9375 C 340.550781 68.753906 351.410156 62.15625 361.597656 61.480469 C 356.261719 77.679688 349.859375 93.390625 338.316406 106.875 C 310.574219 115.023438 283.320313 129.476563 265.375 155.761719 C 264.695313 156.152344 263.917969 155.277344 263.335938 154.597656 C 264.5 147.613281 261.105469 136.945313 269.15625 133.648438 C 272.164063 132.675781 275.460938 131.222656 277.304688 128.3125 C 280.117188 123.074219 278.855469 115.703125 284.480469 112.015625 C 291.5625 109.785156 300.390625 110.5625 304.753906 103.382813 Z M 241.898438 124.625 C 245.195313 121.132813 249.855469 119.191406 251.40625 114.535156 C 252.085938 105.128906 247.816406 92.421875 259.164063 87.765625 C 267.699219 82.914063 266.148438 72.34375 264.984375 64.292969 C 265.953125 58.761719 272.550781 58.957031 276.140625 55.949219 C 279.730469 53.816406 278.660156 49.257813 278.953125 46.347656 C 279.050781 42.46875 277.691406 38.296875 279.148438 34.707031 C 282.347656 31.796875 285.9375 29.855469 289.625 28.207031 C 294.695313 54.378906 286.5625 81.882813 277.746094 90.929688 C 262.449219 106.632813 251.046875 124.292969 245.875 144.414063 L 239.765625 141.601563 C 243.644531 136.652344 237.535156 129.765625 241.898438 124.625 Z M 223.761719 46.636719 C 222.402344 38.585938 216.289063 29.179688 222.597656 21.417969 L 227.738281 15.210938 C 251.675781 54.429688 234.65625 105.257813 222.953125 130.867188 L 219.589844 129.476563 C 215.515625 122.105469 216.777344 112.015625 222.109375 105.710938 C 226.863281 95.429688 219.300781 86.894531 213.089844 79.421875 C 206.398438 65.648438 227.738281 59.828125 223.761719 46.636719 Z M 245.875 157.605469 C 247.914063 157.316406 250.53125 157.121094 252.375 158.089844 C 254.507813 161.871094 253.734375 166.722656 256.546875 170.214844 C 262.5625 178.265625 275.753906 181.371094 275.171875 193.011719 C 274.296875 200.1875 277.109375 205.71875 279.148438 211.636719 C 280.46875 229.742188 280.589844 234.578125 274.0625 242.757813 C 270.566406 247.136719 267.683594 251.753906 267.023438 257.320313 C 265.46875 261.589844 261.300781 266.050781 256.546875 266.632813 C 244.035156 265.277344 244.324219 281.476563 233.265625 283.804688 C 228.609375 285.839844 222.886719 285.0625 217.746094 285.9375 C 206.785156 289.234375 193.011719 288.363281 184.183594 281.28125 C 179.335938 277.207031 176.132813 270.996094 169.730469 270.320313 C 163.328125 269.933594 156.925781 266.441406 154.113281 260.328125 C 151.6875 251.503906 149.359375 241.511719 139.953125 236.5625 C 136.558594 233.75 140.4375 230.453125 139.757813 227.058594 C 139.175781 216.679688 137.234375 206.980469 135.976563 196.988281 C 135.652344 187.125 144.703125 185.929688 149.070313 180.496094 C 150.816406 175.453125 149.070313 169.925781 152.269531 165.558594 L 157.605469 158.382813 C 163.910156 156.246094 168.082031 148.972656 174.679688 147.613281 C 183.503906 146.257813 193.011719 148.683594 201.160156 145.578125 C 218.621094 143.441406 228.125 164.6875 245.875 157.605469 Z M 254.21875 300.390625 L 244.421875 289.136719 C 246.847656 287.972656 249.757813 287.878906 252.375 287.296875 Z M 221.625 433.765625 L 217.941406 436.964844 L 219.105469 421.640625 C 225.214844 423.773438 221.140625 429.59375 221.625 433.765625 Z M 221.917969 415.628906 C 193.398438 398.359375 193.59375 360.820313 199.511719 331.332031 C 203.488281 320.371094 209.5 310.285156 212.3125 298.933594 L 215.839844 298.675781 C 214.964844 306.242188 209.890625 316.878906 214.933594 323.378906 C 218.328125 328.324219 224.4375 332.789063 222.402344 339.480469 C 218.8125 344.621094 218.328125 352.285156 220.074219 358.589844 C 226.863281 366.738281 227.351563 380.414063 223.566406 390.210938 C 220.851563 393.996094 218.714844 397.972656 218.621094 402.820313 C 219.199219 407.285156 221.238281 411.164063 221.917969 415.628906 Z M 186.707031 374.886719 C 171.984375 392.238281 172.316406 399.027344 183.019531 418.828125 C 180.984375 421.15625 179.042969 422.320313 177.007813 424.648438 C 164.394531 402.628906 162.648438 371.589844 168.566406 345.785156 C 174.582031 329.003906 181.953125 312.902344 191.652344 297.769531 L 197.957031 298.933594 C 196.503906 303.300781 193.980469 308.148438 192.332031 312.902344 C 185.25 332.011719 186.511719 353.933594 186.707031 374.886719 Z M 199.121094 120.648438 L 204.164063 131.996094 C 201.9375 132.386719 199.21875 132.386719 196.988281 131.996094 C 197.183594 128.507813 198.347656 124.433594 199.121094 120.648438 Z M 175.066406 25.394531 C 188.550781 46.152344 200.867188 68.367188 196.988281 95.914063 C 195.628906 108.816406 191.75 120.648438 188.644531 132.773438 C 186.996094 133.453125 185.058594 133.355469 183.214844 133.648438 C 183.796875 118.320313 181.566406 104.15625 174.386719 92.03125 C 171.378906 82.625 181.078125 76.804688 178.363281 67.589844 C 176.132813 60.992188 171.574219 55.269531 168.566406 48.964844 C 169.730469 40.621094 172.546875 33.058594 175.066406 25.394531 Z M 137.140625 28.402344 C 143.25 35.484375 149.457031 42.953125 152.5625 51.488281 L 152.140625 60.054688 L 149.457031 58.957031 C 149.457031 56.242188 148.875 53.136719 146.9375 51.292969 C 143.539063 48.675781 138.59375 48.09375 136.652344 43.824219 C 135.78125 38.878906 136.265625 33.253906 137.140625 28.402344 Z M 100.859375 44.019531 C 159.515625 70.003906 149.734375 87.742188 170.214844 137.429688 C 168.46875 138.496094 166.335938 138.886719 164.589844 139.953125 C 163.910156 135.101563 160.546875 131.511719 154.890625 129.28125 C 150.609375 127.59375 143.929688 130.445313 141.601563 125.789063 C 141.503906 121.132813 144.382813 117.285156 140.4375 111.53125 C 134.035156 101.539063 115.992188 109.105469 116.1875 93.585938 C 115.121094 86.699219 122.007813 76.804688 112.984375 72.925781 C 107.941406 70.015625 99.019531 69.140625 99.210938 61.285156 C 99.40625 55.367188 99.601563 49.449219 100.859375 44.019531 Z M 90.871094 89.703125 C 93.683594 111.53125 111.921875 131.125 131.609375 140.632813 C 137.140625 143.25 142.667969 145.773438 148.585938 147.613281 L 141.796875 155.085938 C 134.90625 153.628906 127.535156 153.046875 122.492188 147.128906 C 118.710938 143.441406 115.121094 138.203125 110.171875 136.652344 C 107.070313 135.488281 102.605469 138.398438 100.183594 135.101563 C 96.109375 128.894531 98.339844 119.484375 90.386719 115.507813 C 86.699219 113.082031 82.140625 112.695313 78.066406 111.335938 C 74.574219 105.90625 75.640625 98.53125 70.304688 94.070313 L 66.425781 90.871094 C 74.089844 89.414063 82.527344 89.703125 90.871094 89.703125 Z M 38.488281 127.632813 C 36.648438 124.917969 34.320313 122.394531 32.667969 119.679688 C 44.988281 119.96875 59.636719 117.835938 71.082031 121.328125 C 85.4375 144.511719 108.136719 163.8125 134.8125 166.722656 L 132.289063 174.386719 C 118.515625 161.972656 102.121094 156.054688 84.566406 152.757813 C 80.296875 142.570313 68.367188 145.191406 60.121094 141.796875 C 57.597656 137.429688 59.054688 129.960938 52.167969 128.796875 C 48.09375 127.34375 43.144531 127.632813 38.488281 127.632813 Z M 30.535156 171.1875 C 28.789063 168.277344 26.460938 165.65625 25.199219 162.554688 C 71.691406 152.996094 106.621094 160.976563 133.453125 182.824219 C 132.484375 186.414063 131.320313 190.003906 129.476563 193.300781 C 124.625 188.257813 119.097656 181.757813 111.339844 184.378906 C 106.003906 185.058594 100.765625 188.644531 95.527344 186.316406 C 91.160156 182.632813 89.125 173.902344 82.238281 176.035156 C 81.164063 176.648438 80.203125 177.597656 79.238281 178.566406 C 75.621094 182.203125 69.617188 182.296875 65.628906 175.925781 C 63.992188 173.3125 62.398438 170.765625 58.957031 170.214844 C 49.355469 170.214844 39.363281 179.042969 30.535156 171.1875 Z M 22.386719 234.429688 C 20.542969 233.847656 18.992188 232.585938 17.539063 231.230469 C 54.699219 194.867188 101.414063 202.246094 123.851563 216.96875 C 124.335938 218.8125 123.171875 220.65625 123.171875 222.597656 C 113.082031 218.035156 101.054688 221.433594 92.421875 227.058594 C 86.179688 231.746094 83.886719 222.109375 78.453125 222.597656 C 69.335938 223.371094 62.449219 232.394531 52.84375 229.386719 C 49.0625 227.253906 45.378906 224.828125 40.527344 225.117188 C 32.183594 226.25 27.335938 229.289063 22.386719 234.429688 Z M 32.667969 270.515625 C 29.273438 268.089844 25.394531 266.730469 21.222656 266.34375 C 33.929688 254.023438 48.382813 244.808594 65.261719 241.898438 C 86.601563 239.28125 107.941406 240.054688 129.671875 241.21875 C 131.125 243.257813 133.066406 245.195313 134.617188 247.039063 L 124.625 251.015625 C 121.425781 253.734375 119.777344 258.484375 115.507813 259.359375 C 108.523438 259.941406 102.316406 250.242188 95.914063 257.710938 C 92.421875 261.203125 89.125 266.246094 84.082031 266.34375 C 75.542969 265.859375 68.464844 257.515625 59.636719 261.976563 C 50.90625 265.371094 43.632813 275.945313 32.667969 270.515625 Z M 34.996094 305.046875 C 39.65625 300.097656 45.28125 295.636719 51.003906 291.464844 C 60.023438 290.109375 69.820313 291.175781 78.941406 291.464844 L 68.753906 300.390625 C 66.71875 298.546875 64.484375 297.1875 61.769531 297.09375 C 56.699219 297.878906 52.90625 301.589844 48.496094 303.816406 C 42.832031 306.679688 38.003906 307.082031 34.996094 305.046875 Z M 102.703125 315.523438 C 95.527344 319.109375 83.59375 314.066406 80.589844 324.835938 C 78.355469 327.839844 77.484375 332.011719 74.089844 333.855469 C 67.300781 333.945313 60.105469 331.074219 53.78125 333.417969 C 53.238281 333.621094 52.769531 332.878906 53.089844 332.253906 C 63.128906 312.511719 84.484375 297.261719 103.382813 287.296875 C 116.867188 279.632813 131.027344 273.519531 145.578125 268.1875 L 151.59375 278.660156 C 147.613281 285.0625 139.175781 282.542969 134.132813 287.101563 C 130.542969 290.300781 129.863281 296.121094 124.820313 297.285156 C 118.613281 297.480469 112.890625 295.734375 109.882813 302.425781 C 108.039063 306.984375 107.261719 312.417969 102.703125 315.523438 Z M 166.238281 287.78125 L 176.230469 297.285156 C 169.828125 301.554688 157.996094 303.105469 156.054688 312.902344 C 154.695313 317.558594 156.539063 324.738281 149.941406 325.996094 C 147.519531 326.96875 144.800781 328.714844 143.636719 331.332031 C 141.890625 335.503906 143.25 341.421875 142.476563 345.785156 C 140.925781 347.394531 138.824219 347.28125 136.621094 347.160156 C 132.273438 346.914063 126.019531 349.367188 125.425781 356.027344 C 124.972656 361.148438 125.5 367.003906 119.96875 369.261719 C 115.121094 371.101563 109.785156 371.492188 104.351563 371.589844 C 113.082031 338.703125 135.394531 307.375 166.238281 287.78125 Z M 158.089844 363.632813 L 157.898438 384.390625 C 154.015625 386.527344 154.015625 390.601563 151.59375 393.511719 C 148.195313 394.675781 143.539063 392.832031 140.632813 395.0625 L 134.617188 401.367188 C 134.8125 395.160156 134.8125 387.785156 136.460938 381.578125 Z M 167.285156 468.015625 C 150.390625 478.175781 130.398438 482.25 110.851563 486.144531 C 99.792969 487.792969 88.347656 488.472656 76.902344 489.152344 C 60.898438 492.449219 44.503906 494.777344 30.730469 503.3125 C 36.648438 484.109375 41.109375 464.320313 42.175781 443.078125 C 45.667969 414.753906 65.359375 386.332031 93.390625 376.730469 C 91.9375 384.390625 90.191406 393.121094 92.226563 401.171875 C 104.351563 397.488281 116.1875 393.023438 127.34375 386.914063 C 126.289063 401.007813 124.5625 405.5 111.960938 411.078125 C 103.984375 414.605469 95.347656 416.519531 88.25 422.320313 C 68.558594 435.609375 53.71875 455.589844 43.339844 475.378906 L 43.339844 486.824219 C 43.339844 486.824219 70.984375 446.859375 89.222656 430.273438 C 99.792969 422.996094 111.433594 418.246094 123.464844 414.460938 L 126.46875 411.359375 C 126.46875 411.359375 129.035156 427.636719 130.324219 428.054688 C 130.929688 428.25 152.078125 414.269531 162.261719 408.351563 C 165.65625 418.632813 167.984375 429.304688 176.230469 437.453125 L 189.324219 424.160156 C 199.210938 439.585938 186.414063 456.507813 167.285156 468.015625 Z M 203.292969 489.636719 C 196.308594 482.652344 190.394531 474.019531 186.996094 464.902344 C 190.878906 459.859375 195.339844 454.523438 197.667969 448.605469 C 200.480469 438.519531 199.414063 426.488281 197.667969 416.5 L 205.136719 410.484375 C 206.6875 411.746094 208.628906 412.617188 209.792969 414.171875 Z M 220.074219 662.589844 L 211.148438 662.78125 L 209.792969 602.933594 L 214.449219 511.945313 C 215.636719 512.527344 216.273438 513.34375 216.574219 514.296875 C 217.480469 517.15625 220.074219 625.535156 220.074219 625.535156 Z M 225.410156 547.546875 L 224.246094 519.125 C 232.683594 525.042969 241.703125 529.796875 250.242188 535.421875 C 241.21875 537.75 233.070313 542.019531 225.410156 547.546875 Z M 395.0625 555.984375 C 406.894531 576.257813 401.5625 604 390.695313 623.011719 C 383.90625 636.980469 378.960938 651.628906 377.894531 667.921875 C 359.753906 649.394531 336.960938 642.507813 315.714844 631.644531 C 290.203125 619.132813 276.527344 592.652344 279.824219 564.519531 L 281.960938 556.179688 C 297.769531 567.238281 312.03125 582.953125 325.902344 596.238281 C 331.042969 586.445313 335.503906 576.355469 339.675781 566.171875 C 355.292969 586.636719 360.046875 611.46875 365.769531 636.011719 C 367.804688 635.621094 370.035156 634.070313 372.074219 632.808594 C 368.96875 604.875 359.949219 579.363281 343.652344 556.859375 L 351.316406 535.421875 C 368.195313 536.777344 385.265625 540.5625 395.0625 555.984375 Z M 258.390625 433.085938 C 286.421875 439.683594 296.316406 469.753906 301.457031 493.808594 C 305.144531 513.402344 305.628906 534.257813 308.246094 554.335938 C 310.769531 553.171875 313.679688 550.941406 315.910156 548.710938 C 315.621094 504.285156 311.351563 460.828125 278.46875 430.46875 C 318.238281 416.300781 347.859375 420.621094 349.820313 469.988281 C 351.707031 517.347656 339.464844 553.035156 323.574219 584.308594 C 305.324219 562.328125 275.007813 540.554688 253.617188 527.785156 C 239.824219 519.554688 224.410156 508.746094 218.886719 498.886719 C 200.066406 465.296875 221.59375 430.074219 258.390625 433.085938 Z M 273.519531 395.351563 C 264.402344 390.113281 257.515625 381.578125 249.855469 373.914063 C 249.5625 346.175781 246.460938 319.597656 229.09375 298.933594 L 236.078125 295.25 C 239.085938 302.71875 249.464844 305.433594 252.375 313.582031 C 255.574219 320.855469 253.441406 329.976563 252.179688 337.347656 C 254.121094 343.75 262.949219 346.949219 264.210938 353.449219 C 265.664063 362.371094 259.359375 371.199219 264.210938 379.253906 C 267.699219 381.871094 272.9375 382.257813 274.492188 386.914063 C 274.878906 389.726563 274.976563 392.929688 273.519531 395.351563 Z M 324.832031 371.972656 C 311.378906 365.609375 297.804688 359.328125 285.453125 350.441406 C 280.988281 337.929688 274.296875 326.386719 266.148438 315.523438 C 262.753906 305.917969 260.136719 295.929688 260.328125 285.257813 L 270.804688 273.8125 C 274.390625 276.277344 274.808594 280.148438 275.023438 284.125 C 275.476563 292.484375 278.195313 297.683594 286.347656 298.464844 C 289.246094 298.742188 291.910156 299.230469 292.4375 302.910156 C 292.242188 309.121094 291.078125 316.296875 296.121094 320.566406 C 307.085938 325.511719 298.839844 339.578125 305.921875 347.144531 C 309.410156 353.933594 321.34375 347.433594 320.566406 357.621094 C 319.261719 362.773438 322.460938 366.40625 325.578125 370.019531 C 326.628906 371.238281 326.0625 372.554688 324.832031 371.972656 Z M 368.96875 351.605469 C 359.171875 349.183594 348.988281 347.824219 339.871094 343.652344 L 338.511719 330.363281 C 347.242188 332.886719 355.972656 335.214844 365.089844 336.863281 C 367.515625 341.613281 369.550781 345.59375 368.96875 351.605469 Z M 276.335938 259.164063 L 278.175781 255.1875 C 281.863281 258.777344 284.480469 264.789063 289.625 266.34375 C 296.703125 267.894531 305.628906 266.246094 309.410156 274.007813 C 311.738281 277.691406 312.03125 282.734375 316.394531 284.96875 C 322.992188 286.226563 329.296875 282.542969 335.214844 284.480469 C 339.09375 290.398438 333.660156 301.457031 342.488281 304.074219 C 347.046875 304.65625 352.382813 303.492188 355.777344 306.890625 C 357.8125 311.546875 355.972656 317.753906 360.820313 321.34375 C 364.121094 324.542969 367.902344 326.675781 371.589844 329.003906 C 336.289063 327.734375 297.0625 305.085938 276.335938 259.164063 Z M 394.1875 277.304688 C 379.640625 280.3125 362.953125 278.566406 348.308594 277.109375 C 323.574219 274.683594 302.621094 259.359375 287.101563 238.890625 L 288.945313 226.28125 C 291.757813 225.601563 294.859375 225.699219 297.769531 225.410156 C 299.710938 231.230469 299.515625 240.636719 307.761719 241.21875 C 314.261719 241.121094 319.886719 238.699219 326.191406 238.214844 C 332.496094 238.699219 331.335938 245.972656 334.050781 249.851563 C 335.988281 252.761719 338.125 255.1875 341.519531 256.15625 C 347.628906 257.226563 353.0625 255.1875 358.980469 255.1875 C 362.664063 257.613281 363.050781 262.269531 365.769531 265.46875 C 369.261719 270.320313 374.984375 272.453125 380.898438 270.804688 C 386.234375 269.835938 391.472656 272.066406 394.1875 276.820313 Z M 399.523438 248.011719 C 400.300781 249.269531 400.785156 250.726563 400.882813 252.375 L 393.703125 255.671875 C 385.847656 246.167969 375.855469 239.472656 366.640625 232.878906 C 376.449219 222.113281 385.265625 232.878906 385.265625 232.878906 C 387.496094 236.371094 384.390625 241.898438 389.726563 243.355469 C 393.316406 244.128906 397.679688 243.9375 399.523438 248.011719 Z M 356.457031 226.765625 C 336.183594 217.453125 313.582031 211.730469 289.140625 214.640625 C 288.863281 205.59375 301.578125 200.84375 307.078125 201.34375 C 312.582031 201.84375 318.296875 203.9375 323.1875 205.136719 C 332.109375 206.980469 337.929688 195.824219 346.855469 201.160156 C 353.253906 203.972656 360.726563 207.269531 368.097656 204.941406 C 372.171875 203.003906 374.886719 195.726563 380.609375 198.828125 C 387.109375 201.160156 392.636719 207.074219 400.6875 204.164063 L 410 201.449219 C 395.546875 217.550781 377.117188 225.117188 356.457031 226.765625 "/>
<path style=" stroke:none;fill-rule:nonzero;fill:rgb(0%,0%,0%);fill-opacity:1;" d="M 182.050781 258.484375 L 185.832031 266.34375 C 187.578125 264.984375 189.90625 264.402344 191.363281 262.851563 C 189.714844 260.71875 187.96875 258.484375 186.316406 256.351563 C 184.671875 256.546875 183.601563 258 182.050781 258.484375 "/>
<path style=" stroke:none;fill-rule:nonzero;fill:rgb(0%,0%,0%);fill-opacity:1;" d="M 186.777344 228.828125 C 184.578125 228.511719 182.050781 232.222656 180.011719 232.878906 L 183.503906 239.085938 L 191.363281 233.75 C 191.363281 233.75 187.511719 228.929688 186.777344 228.828125 "/>
<path style=" stroke:none;fill-rule:nonzero;fill:rgb(0%,0%,0%);fill-opacity:1;" d="M 228.222656 245.195313 L 234.914063 251.503906 L 238.214844 248.203125 C 235.980469 245.875 233.652344 244.03125 231.425781 241.898438 C 230.257813 242.773438 228.902344 244.128906 228.222656 245.195313 "/>
<path style=" stroke:none;fill-rule:nonzero;fill:rgb(0%,0%,0%);fill-opacity:1;" d="M 199.800781 227.445313 C 200.964844 228.511719 201.351563 229.773438 201.839844 230.9375 L 205.621094 230.742188 C 207.65625 231.714844 208.628906 233.847656 209.792969 235.59375 C 211.054688 234.914063 212.507813 234.722656 213.476563 233.558594 C 212.703125 227.445313 219.589844 231.230469 221.917969 228.222656 C 225.3125 224.246094 226.765625 218.910156 225.410156 213.476563 C 225.992188 212.21875 227.058594 211.054688 227.253906 209.597656 C 226.378906 208.628906 225.214844 207.367188 223.761719 207.269531 C 220.460938 206.785156 217.066406 209.210938 214.253906 206.980469 C 213.382813 203.195313 209.210938 201.839844 206.496094 199.511719 C 201.351563 195.144531 198.636719 205.328125 193.011719 202.128906 C 190.003906 204.457031 186.898438 207.464844 184.671875 210.472656 C 185.347656 215.128906 190.394531 214.058594 192.332031 217.746094 C 193.300781 221.140625 191.75 224.246094 190.976563 227.253906 C 193.300781 231.519531 196.695313 227.058594 199.800781 227.445313 "/>
<path style=" stroke:none;fill-rule:nonzero;fill:rgb(0%,0%,0%);fill-opacity:1;" d="M 224.4375 203.488281 L 220.074219 196.792969 C 218.328125 197.472656 216.679688 198.347656 215.128906 199.511719 L 218.910156 205.816406 L 224.4375 203.488281 "/>
<path style=" stroke:none;fill-rule:nonzero;fill:rgb(0%,0%,0%);fill-opacity:1;" d="M 187.675781 244.710938 L 182.824219 244.03125 C 182.824219 244.03125 180.140625 250.597656 180.636719 251.128906 C 181.578125 252.132813 184.367188 252.113281 185.800781 252.9375 C 186.003906 253.054688 187.675781 244.710938 187.675781 244.710938 "/>
<path style=" stroke:none;fill-rule:nonzero;fill:rgb(0%,0%,0%);fill-opacity:1;" d="M 166.53125 254.992188 L 171.1875 257.710938 L 176.035156 250.046875 C 174.289063 249.367188 173.027344 247.621094 171.1875 247.523438 L 166.53125 254.992188 "/>
<path style=" stroke:none;fill-rule:nonzero;fill:rgb(0%,0%,0%);fill-opacity:1;" d="M 167.886719 241.703125 L 176.035156 241.027344 L 176.035156 234.234375 L 166.726563 234.234375 L 167.886719 241.703125 "/>
<path style=" stroke:none;fill-rule:nonzero;fill:rgb(0%,0%,0%);fill-opacity:1;" d="M 173.222656 206.980469 C 171.1875 207.753906 169.246094 208.820313 167.402344 209.984375 C 169.730469 212.21875 171.863281 214.835938 174.386719 216.582031 L 178.851563 213.285156 L 173.222656 206.980469 "/>
<path style=" stroke:none;fill-rule:nonzero;fill:rgb(0%,0%,0%);fill-opacity:1;" d="M 188.839844 219.589844 C 186.898438 217.746094 184.765625 216.097656 182.535156 214.640625 L 178.558594 220.460938 L 186.316406 225.410156 C 187.09375 223.46875 188.355469 221.625 188.839844 219.589844 "/>
<path style=" stroke:none;fill-rule:nonzero;fill:rgb(0%,0%,0%);fill-opacity:1;" d="M 173.707031 220.074219 L 168.082031 220.945313 L 169.535156 229.578125 L 175.355469 229.386719 C 175.261719 225.992188 174.582031 222.789063 173.707031 220.074219 "/>
<path style=" stroke:none;fill-rule:nonzero;fill:rgb(0%,0%,0%);fill-opacity:1;" d="M 213.769531 190.683594 L 207.269531 188.160156 C 207.269531 188.160156 205.136719 196.527344 206.167969 197.207031 C 207.195313 197.886719 208.773438 198.25 209.792969 198.828125 C 210.957031 196.113281 213.089844 193.398438 213.769531 190.683594 "/>
<path style=" stroke:none;fill-rule:nonzero;fill:rgb(0%,0%,0%);fill-opacity:1;" d="M 217.886719 262.570313 C 217.171875 264.589844 218.664063 270.378906 219.136719 270.453125 C 220.703125 270.699219 222.34375 271.140625 223.761719 270.320313 L 221.917969 261.203125 C 219.40625 260.691406 218.316406 261.355469 217.886719 262.570313 "/>
<path style=" stroke:none;fill-rule:nonzero;fill:rgb(0%,0%,0%);fill-opacity:1;" d="M 206.230469 239.886719 C 205.414063 240.128906 204.652344 241.003906 203.972656 242.867188 C 205.621094 245.003906 207.464844 247.136719 208.820313 249.367188 C 210.664063 248.105469 212.410156 246.652344 213.964844 244.90625 C 211.5625 244.105469 208.671875 239.160156 206.230469 239.886719 "/>
<path style=" stroke:none;fill-rule:nonzero;fill:rgb(0%,0%,0%);fill-opacity:1;" d="M 224.925781 236.757813 L 220.269531 232.394531 L 213.964844 237.535156 L 218.132813 242.578125 L 224.925781 236.757813 "/>
<path style=" stroke:none;fill-rule:nonzero;fill:rgb(0%,0%,0%);fill-opacity:1;" d="M 228.902344 262.367188 C 230.648438 263.820313 232.78125 264.304688 234.722656 265.179688 L 235.59375 255.867188 C 229.578125 253.441406 230.9375 259.746094 228.902344 262.367188 "/>
<path style=" stroke:none;fill-rule:nonzero;fill:rgb(0%,0%,0%);fill-opacity:1;" d="M 224.246094 247.71875 L 216.777344 252.859375 C 218.328125 254.507813 219.6875 256.644531 221.433594 257.710938 L 228.222656 251.503906 C 226.765625 250.242188 225.796875 248.496094 224.246094 247.71875 "/>
<path style=" stroke:none;fill-rule:nonzero;fill:rgb(0%,0%,0%);fill-opacity:1;" d="M 203.972656 259.84375 C 206.882813 260.425781 210.179688 260.621094 213.089844 260.8125 L 213.964844 255.671875 L 203.488281 255.1875 L 203.972656 259.84375 "/>
<path style=" stroke:none;fill-rule:nonzero;fill:rgb(0%,0%,0%);fill-opacity:1;" d="M 201.644531 232.585938 L 197.183594 231.230469 C 195.921875 233.652344 194.078125 236.175781 193.496094 238.699219 L 198.832031 241.027344 C 199.605469 238.117188 201.351563 235.398438 201.644531 232.585938 "/>
<path style=" stroke:none;fill-rule:nonzero;fill:rgb(0%,0%,0%);fill-opacity:1;" d="M 174.871094 196.019531 L 165.558594 195.628906 L 166.238281 201.839844 L 175.066406 200.964844 L 174.871094 196.019531 "/>
<path style=" stroke:none;fill-rule:nonzero;fill:rgb(0%,0%,0%);fill-opacity:1;" d="M 200.480469 245.875 L 195.144531 245.875 L 195.824219 253.828125 L 200.480469 254.21875 L 200.480469 245.875 "/>
<path style=" stroke:none;fill-rule:nonzero;fill:rgb(0%,0%,0%);fill-opacity:1;" d="M 234.914063 232.585938 C 233.652344 231.90625 232.878906 230.160156 231.425781 230.066406 L 226.765625 237.050781 C 228.320313 238.214844 230.160156 239.472656 231.910156 239.570313 L 234.914063 232.585938 "/>
<path style=" stroke:none;fill-rule:nonzero;fill:rgb(0%,0%,0%);fill-opacity:1;" d="M 196.503906 268.671875 L 201.449219 271.679688 L 205.816406 263.140625 L 200.675781 261.203125 L 196.503906 268.671875 "/>
<path style=" stroke:none;fill-rule:nonzero;fill:rgb(0%,0%,0%);fill-opacity:1;" d="M 162.066406 240.539063 L 155.761719 244.226563 L 160.710938 249.851563 L 165.753906 244.519531 C 164.492188 243.160156 163.71875 241.316406 162.066406 240.539063 "/>
<path style=" stroke:none;fill-rule:nonzero;fill:rgb(0%,0%,0%);fill-opacity:1;" d="M 228.222656 218.425781 L 228.609375 223.953125 L 238.214844 223.566406 C 237.824219 221.238281 236.953125 219.199219 236.5625 216.96875 C 233.75 217.453125 230.9375 217.941406 228.222656 218.425781 "/>
<path style=" stroke:none;fill-rule:nonzero;fill:rgb(0%,0%,0%);fill-opacity:1;" d="M 160.421875 197.183594 L 161.390625 190.003906 C 159.15625 190.296875 157.316406 189.519531 155.085938 189.808594 L 155.570313 196.792969 C 156.539063 197.957031 158.964844 197.472656 160.421875 197.183594 "/>
<path style=" stroke:none;fill-rule:nonzero;fill:rgb(0%,0%,0%);fill-opacity:1;" d="M 173.222656 183.503906 C 172.351563 181.46875 170.023438 179.429688 168.371094 178.363281 L 163.425781 185.542969 L 167.886719 189.808594 L 173.222656 183.503906 "/>
<path style=" stroke:none;fill-rule:nonzero;fill:rgb(0%,0%,0%);fill-opacity:1;" d="M 162.746094 207.464844 C 161.195313 205.328125 160.320313 202.421875 158.089844 200.964844 L 152.757813 205.816406 C 154.890625 207.5625 156.734375 209.695313 159.0625 210.953125 L 162.746094 207.464844 "/>
<path style=" stroke:none;fill-rule:nonzero;fill:rgb(0%,0%,0%);fill-opacity:1;" d="M 163.910156 230.9375 L 155.570313 227.253906 L 152.269531 234.042969 C 155.085938 234.816406 157.898438 236.273438 160.710938 236.371094 L 163.910156 230.9375 "/>
<path style=" stroke:none;fill-rule:nonzero;fill:rgb(0%,0%,0%);fill-opacity:1;" d="M 197.472656 173.902344 L 198.636719 165.558594 L 191.167969 165.367188 C 190.394531 167.984375 191.265625 171.769531 191.652344 174.386719 L 197.472656 173.902344 "/>
<path style=" stroke:none;fill-rule:nonzero;fill:rgb(0%,0%,0%);fill-opacity:1;" d="M 157.898438 224.4375 L 162.746094 219.296875 L 156.054688 213.285156 C 154.015625 214.835938 152.851563 216.484375 151.398438 218.425781 C 153.53125 220.363281 155.664063 223.082031 157.898438 224.4375 "/>
<path style=" stroke:none;fill-rule:nonzero;fill:rgb(0%,0%,0%);fill-opacity:1;" d="M 194.660156 186.703125 L 192.816406 177.878906 C 190.976563 178.265625 189.226563 178.945313 187.480469 179.527344 L 189.519531 188.355469 C 191.363281 188.0625 192.914063 187.191406 194.660156 186.703125 "/>
<path style=" stroke:none;fill-rule:nonzero;fill:rgb(0%,0%,0%);fill-opacity:1;" d="M 195.457031 198.839844 C 196.773438 199.039063 198.742188 197.1875 199.996094 196.988281 C 199.316406 194.464844 198.636719 191.847656 197.957031 189.324219 C 195.824219 189.90625 193.789063 190.78125 191.847656 191.847656 C 191.847656 191.847656 194.839844 198.746094 195.457031 198.839844 "/>
<path style=" stroke:none;fill-rule:nonzero;fill:rgb(0%,0%,0%);fill-opacity:1;" d="M 184.378906 179.042969 L 183.988281 170.894531 C 181.660156 171.1875 179.429688 171.378906 177.199219 171.574219 L 177.878906 180.496094 L 184.378906 179.042969 "/>
<path style=" stroke:none;fill-rule:nonzero;fill:rgb(0%,0%,0%);fill-opacity:1;" d="M 177.6875 204.941406 L 185.347656 205.328125 L 186.511719 200.480469 L 178.558594 198.636719 C 178.074219 200.578125 177.78125 203.003906 177.6875 204.941406 "/>
<path style=" stroke:none;fill-rule:nonzero;fill:rgb(0%,0%,0%);fill-opacity:1;" d="M 185.542969 186.996094 L 177.6875 184.378906 L 177.199219 192.527344 L 186.027344 192.527344 L 185.542969 186.996094 "/>
<path style=" stroke:none;fill-rule:nonzero;fill:rgb(0%,0%,0%);fill-opacity:1;" d="M 239.570313 254.703125 L 247.71875 255.867188 L 248.203125 251.210938 L 241.21875 250.726563 L 239.570313 254.703125 "/>
<path style=" stroke:none;fill-rule:nonzero;fill:rgb(0%,0%,0%);fill-opacity:1;" d="M 239.085938 195.339844 L 238.890625 199.996094 L 248.398438 201.839844 C 248.59375 199.800781 248.6875 197.085938 248.6875 195.339844 C 245.972656 195.144531 242.382813 195.4375 239.085938 195.339844 "/>
<path style=" stroke:none;fill-rule:nonzero;fill:rgb(0%,0%,0%);fill-opacity:1;" d="M 256.371094 192.09375 C 256.679688 191.785156 253.429688 186.75 251.472656 185.726563 C 250.300781 185.109375 249.113281 185.433594 247.914063 187.871094 C 249.464844 190.003906 251.308594 191.941406 252.570313 194.175781 C 253.929688 194.175781 255.289063 193.175781 256.371094 192.09375 "/>
<path style=" stroke:none;fill-rule:nonzero;fill:rgb(0%,0%,0%);fill-opacity:1;" d="M 230.257813 209.984375 L 236.078125 210.277344 L 236.078125 202.324219 L 229.578125 202.128906 C 229.484375 204.652344 229.675781 207.753906 230.257813 209.984375 "/>
<path style=" stroke:none;fill-rule:nonzero;fill:rgb(0%,0%,0%);fill-opacity:1;" d="M 250.242188 203.003906 L 258.195313 207.464844 C 259.261719 206.203125 260.425781 204.941406 261.203125 203.488281 L 252.570313 198.636719 L 250.242188 203.003906 "/>
<path style=" stroke:none;fill-rule:nonzero;fill:rgb(0%,0%,0%);fill-opacity:1;" d="M 243.550781 186.316406 L 242.578125 178.171875 C 240.25 178.171875 238.3125 178.945313 236.078125 179.335938 L 237.730469 186.316406 L 243.550781 186.316406 "/>
<path style=" stroke:none;fill-rule:nonzero;fill:rgb(0%,0%,0%);fill-opacity:1;" d="M 255.1875 222.402344 L 263.335938 219.296875 L 261.492188 214.253906 L 253.054688 216.96875 L 255.1875 222.402344 "/>
<path style=" stroke:none;fill-rule:nonzero;fill:rgb(0%,0%,0%);fill-opacity:1;" d="M 246.554688 235.207031 L 250.53125 234.914063 C 250.53125 231.617188 249.757813 228.511719 249.367188 225.410156 C 247.523438 224.925781 246.359375 226.183594 244.710938 226.089844 C 245.003906 229.289063 245.972656 232.101563 246.554688 235.207031 "/>
<path style=" stroke:none;fill-rule:nonzero;fill:rgb(0%,0%,0%);fill-opacity:1;" d="M 243.257813 244.710938 C 246.070313 245.292969 248.496094 246.652344 251.210938 247.234375 C 251.792969 245.777344 253.152344 244.324219 253.054688 242.867188 L 245.585938 239.378906 C 244.808594 241.121094 243.355469 242.964844 243.257813 244.710938 "/>
<path style=" stroke:none;fill-rule:nonzero;fill:rgb(0%,0%,0%);fill-opacity:1;" d="M 225.894531 193.011719 C 226.863281 194.273438 228.320313 195.144531 229.386719 196.019531 L 235.398438 190.003906 C 233.558594 188.742188 231.910156 186.996094 229.773438 186.316406 C 228.515625 188.550781 226.765625 190.585938 225.894531 193.011719 "/>
<path style=" stroke:none;fill-rule:nonzero;fill:rgb(0%,0%,0%);fill-opacity:1;" d="M 254.898438 231.90625 C 254.898438 233.460938 256.0625 234.621094 256.351563 236.078125 L 262.851563 233.265625 L 260.71875 229.09375 C 258.679688 229.773438 256.933594 230.9375 254.898438 231.90625 "/>
<path style=" stroke:none;fill-rule:nonzero;fill:rgb(0%,0%,0%);fill-opacity:1;" d="M 241.898438 219.296875 C 243.839844 219.78125 246.359375 219.492188 248.203125 219.589844 L 248.6875 210.953125 L 244.035156 210.472656 L 241.898438 219.296875 "/>
<path style=" stroke:none;fill-rule:nonzero;fill:rgb(0%,0%,0%);fill-opacity:1;" d="M 220.074219 188.839844 C 221.238281 186.804688 222.886719 184.960938 223.566406 182.824219 L 216.582031 179.042969 L 212.605469 182.824219 L 220.074219 188.839844 "/>
<path style=" stroke:none;fill-rule:nonzero;fill:rgb(0%,0%,0%);fill-opacity:1;" d="M 215.613281 167.886719 L 209.597656 164.203125 L 206.785156 173.222656 C 208.628906 174.097656 210.664063 175.355469 212.605469 175.355469 C 213.382813 172.738281 215.417969 170.410156 215.613281 167.886719 "/>
<path style=" stroke:none;fill-rule:nonzero;fill:rgb(0%,0%,0%);fill-opacity:1;" d="M 232.101563 173.515625 C 229.871094 171.1875 227.253906 169.441406 224.730469 167.886719 L 220.269531 172.542969 L 228.222656 178.171875 C 229.773438 176.714844 231.035156 175.160156 232.101563 173.515625 "/>
<path style=" stroke:none;fill-rule:nonzero;fill:rgb(0%,0%,0%);fill-opacity:1;" d="M 203.292969 186.316406 C 204.84375 183.503906 206.785156 180.59375 207.949219 177.878906 L 201.644531 174.871094 L 199.511719 182.535156 L 203.292969 186.316406 "/>
</g>
</svg>
