<?xml version="1.0" encoding="UTF-8"?>
<svg xmlns="http://www.w3.org/2000/svg" xmlns:xlink="http://www.w3.org/1999/xlink" width="532pt" height="489pt" viewBox="0 0 532 489" version="1.1">
<g id="surface1">
<path style=" stroke:none;fill-rule:nonzero;fill:rgb(0%,0%,0%);fill-opacity:1;" d="M 178.492188 10.359375 C 183.996094 10.726563 189.6875 5.035156 193.910156 10.726563 C 217 2 220.160156 30.003906 231.355469 21.742188 C 236.863281 20.273438 238.882813 23.945313 242.371094 27.0625 L 247.695313 36.242188 C 272 35.324219 263.847656 52.027344 267.519531 54.414063 C 272.84375 55.335938 273.578125 61.390625 275.414063 65.429688 C 280.367188 70.019531 282.019531 76.628906 284.773438 82.503906 C 306.890625 85.804688 307.539063 105.445313 305.519531 111.6875 C 324.269531 119.277344 313.410156 128.023438 313.410156 128.023438 C 330.722656 145.335938 319.101563 157.394531 315.0625 163.269531 C 318.367188 162.902344 338 157 327.914063 133.164063 C 327.914063 116 313.410156 108.199219 313.410156 108.199219 C 323.890625 86.890625 289.546875 76.8125 289.546875 76.8125 C 287.710938 72.953125 282.570313 70.386719 281.285156 66.347656 C 285.324219 63.226563 292.667969 65.613281 293.953125 58.820313 C 296.339844 53.679688 297.441406 46.523438 304.050781 44.6875 C 318.550781 41.566406 331.765625 43.402344 345.902344 39.914063 C 352.695313 39.914063 355.265625 48.359375 362.238281 46.523438 C 366.828125 32 383.164063 42.300781 387.753906 38.445313 C 392.160156 36.609375 397.300781 34.039063 402.4375 36.242188 C 407.582031 41.199219 412.535156 44.6875 415.65625 50.929688 C 429.292969 37.292969 438.421875 57.535156 438.421875 57.535156 C 445.394531 56.617188 451.453125 59.738281 454.757813 65.796875 L 456.039063 73.691406 C 464.667969 73.507813 462.519531 83.300781 469.257813 85.621094 C 511 100 492.570313 114.808594 487.433594 119.949219 C 489.082031 126.371094 492.9375 131.695313 493.121094 138.488281 C 500.28125 143.996094 511.480469 143.445313 515.148438 153.542969 L 516.984375 162.71875 C 544.132813 189.867188 522.492188 195.394531 521.390625 201.085938 C 523.226563 209.160156 530.753906 218.339844 524.328125 226.601563 C 522.492188 228.253906 519.921875 229.355469 519.921875 232.289063 C 519.921875 254 494.589844 244.957031 498.445313 257.988281 C 487 287 474.949219 254.316406 465.402344 262.765625 C 454.941406 264.230469 445.394531 252.480469 435.480469 259.273438 C 447.964844 266.25 451.085938 280.203125 456.039063 291.765625 C 455.308594 298.191406 458.613281 306.820313 450.902344 309.941406 C 446.128906 311.777344 441.171875 309.023438 439.886719 304.617188 C 438.234375 301.496094 435.664063 297.640625 431.8125 296.722656 C 419.265625 309.265625 418.226563 280.9375 408.5 284.425781 C 408.5 308 393.261719 306.269531 390.875 308.65625 C 393.078125 330 371.96875 331.234375 371.050781 341.695313 C 364.992188 382.265625 364.625 418.792969 364.441406 461.933594 C 375.457031 470.375 388.308594 478.269531 398.402344 487.8125 L 398.402344 489.101563 C 347.738281 467.804688 291.566406 453.488281 231.90625 460.464844 C 202.902344 464.683594 173.167969 466.703125 143.246094 468.90625 C 110.570313 470.558594 49.078125 454.40625 49.078125 454.40625 C 74.222656 457.710938 96.253906 461.015625 122.136719 458.261719 C 129.476563 440.457031 126.175781 418.058594 130.027344 398.785156 C 133.515625 369.414063 140.894531 295.105469 121.769531 271.941406 C 102 271.941406 95.335938 263.132813 92.582031 261.847656 C 88.359375 262.765625 83.585938 263.863281 78.996094 262.765625 C 74.222656 252.851563 87.808594 244.40625 76.796875 236.328125 C 66.882813 238.714844 64.496094 220.542969 53.480469 228.4375 C 35 228.4375 34.023438 217.789063 34.023438 217.789063 C 27.96875 216.136719 10 211 18.238281 186.585938 C 9.792969 180.34375 -9.730469 166.269531 9.058594 146.933594 C 6.121094 139.957031 -5 119 16.402344 110.769531 C 8 83 31.085938 75.160156 35.859375 69.835938 C 50.359375 64.511719 58 20 96.621094 27.980469 C 100.84375 11 119.015625 16.96875 119.015625 16.96875 C 119.015625 16.96875 119 -3 145.449219 9.441406 C 165.945313 -11.054688 175.371094 7.238281 178.492188 10.359375 Z M 78.996094 86.539063 C 87.257813 123 117.546875 107.832031 118.28125 100.125 C 118.28125 100.125 87.808594 113.890625 92.214844 79.933594 C 87.257813 79.015625 61.578125 61.1875 85.605469 37.160156 C 45.984375 61.320313 77.332031 79.179688 78.996094 86.539063 Z M 195.746094 45.054688 C 206.003906 75.527344 164.136719 95.863281 141.960938 73.691406 C 151.320313 112.789063 167.476563 149.320313 167.109375 191.90625 C 167.109375 191.90625 205.65625 126.371094 224.746094 97.921875 C 227.503906 97.371094 235.578125 103.980469 235.027344 106.730469 C 204.371094 145.28125 177.757813 188.421875 160.867188 234.128906 C 174.453125 206.59375 190.789063 179.058594 207.128906 152.257813 C 212.449219 156.296875 228.972656 165.289063 228.785156 169.328125 C 193.359375 207.878906 169.679688 252.117188 158.296875 299.84375 C 158.296875 299.84375 203.820313 255.789063 227.871094 235.964844 C 205.65625 249.179688 184.914063 266.984375 165.824219 286.992188 C 165.824219 286.992188 189.503906 228.804688 210.246094 203.285156 C 213.183594 204.574219 219 221 239.800781 213.015625 C 245.859375 218.707031 289 220 272.84375 184.378906 C 274.3125 191.171875 265.75 220.792969 243.289063 203.285156 C 227.851563 214.800781 218.507813 204.941406 214.652344 198.882813 C 214.652344 198.882813 229 175.386719 242.921875 171.164063 C 247.328125 174.285156 287.347656 180 287.347656 142.894531 C 287.347656 142.894531 313.410156 108.199219 280.367188 108.199219 C 306 120 285.511719 136.652344 281.652344 138.121094 C 279.085938 178 244.207031 166.574219 237.230469 157.945313 C 226.585938 159.230469 217.773438 150.605469 213 143.8125 C 220.710938 133.53125 227.503906 123.621094 235.394531 113.890625 C 252.050781 114.074219 251.183594 139.222656 248.246094 144.730469 C 252.28125 141.058594 255.953125 136.46875 258.34375 131.878906 C 261.828125 126.371094 235.621094 80.621094 222.179688 94.066406 C 201.28125 114.964844 171.148438 168.042969 171.148438 168.042969 C 173.167969 155.929688 181.796875 103.980469 182.894531 90.027344 C 182.894531 90.027344 229.847656 79.152344 195.746094 45.054688 Z M 364.441406 81.214844 C 374.355469 99.390625 381.515625 119.03125 382.0625 140.324219 C 378.394531 142.34375 374.539063 144.546875 370.132813 145.097656 C 369.214844 150.054688 353.980469 164.003906 347.738281 163.636719 C 347.003906 169.695313 342.964844 174.652344 338.558594 178.140625 C 324.609375 179.789063 346.972656 210.867188 310.289063 203.285156 C 312.679688 210.996094 315.613281 219.441406 309.371094 226.234375 C 323.523438 250.515625 304.96875 255.234375 298.359375 253.953125 C 293.21875 244.222656 286.242188 255.972656 279.449219 251.75 C 279.449219 251.75 295.421875 263.863281 304.050781 261.476563 C 313.964844 272.308594 323.507813 282.769531 331.949219 294.519531 L 333.238281 294.519531 C 333.238281 294.519531 316.53125 227.703125 319.101563 210.8125 C 319.652344 210.996094 340.945313 261.847656 344.617188 289.5625 C 347.554688 278.367188 354 224 341.496094 186.03125 C 341.496094 186.03125 350.125 171.898438 353.0625 166.207031 C 355.445313 166.941406 358.019531 166.757813 360.035156 168.042969 C 360.585938 198.332031 358.566406 273.410156 360.035156 279.101563 C 365.175781 269.554688 380 214 427.039063 235.410156 C 428.140625 227.703125 438.421875 205.488281 472.929688 213.015625 L 421.253906 227.613281 C 416.296875 221.191406 407.214844 220.726563 399.320313 221.828125 L 399.320313 220.542969 C 413.269531 207.324219 431.078125 198.515625 446.863281 188.785156 C 443.378906 180.894531 440.621094 171.164063 445.578125 163.269531 C 438.421875 164.738281 431.261719 161.066406 424.835938 157.945313 C 424.835938 157.945313 442.824219 130.777344 443.378906 116.09375 C 437.316406 133.714844 424.46875 148.769531 412.535156 163.636719 C 392.710938 181.996094 371.234375 202.738281 364.441406 229.355469 C 363.890625 229.171875 366.460938 192.089844 368.847656 175.019531 C 365.175781 164.554688 377.65625 159.597656 378.941406 150.054688 C 382.800781 151.15625 386.652344 152.257813 390.507813 152.988281 C 403.175781 152.808594 411.4375 142.894531 416.941406 132.796875 C 411.253906 137.753906 405.191406 142.894531 398.035156 146.382813 C 398.035156 146.382813 403.910156 103.429688 416.941406 86.539063 L 416.023438 86.539063 C 401.15625 99.574219 393.996094 141.792969 389.957031 140.324219 C 385.554688 119.03125 378.574219 98.65625 364.441406 81.214844 Z M 138.105469 98.839844 C 138.105469 98.839844 124.339844 101.59375 124.890625 108.199219 C 135.496094 126.390625 130.78125 129.390625 112.40625 126.1875 C 120.191406 135.808594 110.9375 141.425781 106.714844 141.609375 C 129.296875 163.085938 143.980469 188.601563 156.09375 214.667969 C 161.96875 173.367188 153.34375 133.351563 138.105469 98.839844 Z M 42.835938 126.558594 L 66.148438 144.730469 C 60 156.660156 47.792969 156.109375 42.46875 154.460938 C 28.332031 171.164063 18.238281 164.738281 13.832031 162.351563 C 25.738281 174.261719 34.457031 180.460938 49.445313 165.472656 C 70 165.839844 70.554688 150.421875 74.222656 150.421875 C 97.722656 168.960938 138.839844 222.195313 142.878906 224.398438 C 143.246094 224.03125 143.980469 223.847656 143.796875 223.113281 C 122.6875 183.464844 87.808594 138.855469 42.835938 126.558594 Z M 62.660156 190.4375 C 52.535156 204.234375 39.347656 196.3125 33.65625 192.273438 C 35.675781 196.679688 51 212 83.035156 200.167969 C 81.933594 205.308594 84 218.171875 111.671875 229 C 113.507813 234.140625 117.363281 245.324219 123.421875 244.773438 C 134.617188 260.011719 141.59375 276.898438 143.796875 295.804688 C 147.101563 278.183594 140.675781 262.027344 134.066406 246.425781 C 128.011719 237.246094 143.0625 226.417969 141.59375 227.152344 C 136.820313 233.574219 120.597656 244.660156 113.324219 219.992188 C 113.140625 220.542969 88.359375 226.601563 89.644531 190.4375 C 77.628906 200.433594 68.351563 193.375 62.660156 190.4375 Z M 483.394531 224.398438 C 375 238 359.117188 319.300781 358.753906 330.132813 C 386 255 483.394531 224.398438 483.394531 224.398438 Z M 262.746094 253.035156 C 255.773438 259.09375 248.796875 267.351563 238.515625 262.765625 C 238.515625 282 216.304688 283.324219 208.59375 279.46875 C 202.722656 287.359375 193.359375 291.765625 184.730469 295.4375 C 184.179688 307.738281 181.976563 319.300781 172.433594 327.929688 C 165.824219 370.148438 161.785156 414.019531 160.5 457.894531 C 191.15625 458.992188 220.894531 451.285156 250.816406 449.082031 C 277.613281 446.878906 304.050781 450.550781 327.914063 454.40625 C 330.851563 408.882813 332.867188 362.621094 334.15625 318.75 C 332.867188 316.914063 335.070313 311.960938 331.949219 311.222656 C 321.855469 304.800781 312.128906 317.648438 301.847656 312.507813 C 299.09375 296.90625 281.285156 311.222656 275.414063 299.292969 C 275.777344 290.480469 264.03125 291.765625 262.195313 283.871094 C 261.277344 279.46875 263.664063 275.246094 265.867188 271.574219 C 261.277344 266.800781 260.175781 259.09375 262.746094 253.035156 "/>
</g>
</svg>
