<?xml version="1.0" encoding="UTF-8"?>
<svg xmlns="http://www.w3.org/2000/svg" xmlns:xlink="http://www.w3.org/1999/xlink" width="530pt" height="633pt" viewBox="0 0 530 633" version="1.1">
<g id="surface1">
<path style=" stroke:none;fill-rule:nonzero;fill:rgb(0%,0%,0%);fill-opacity:1;" d="M 149.421875 537.480469 C 133.234375 531.660156 109.613281 509.769531 103.125 497.265625 C 96.636719 484.761719 92.316406 473.566406 90.085938 460.363281 C 90.085938 460.363281 87.785156 460.363281 86.457031 460.359375 C 85.195313 469.171875 84.652344 471.503906 79.542969 485.683594 C 74.433594 499.859375 52.054688 522.773438 40.28125 529.660156 C 28.136719 536.761719 13.535156 542.859375 0.640625 542.988281 C 0.636719 544.480469 0.636719 547.0625 0.636719 547.0625 C 9.335938 547.160156 12.636719 548.359375 20.535156 550.761719 C 41.734375 557.203125 60.160156 573.128906 72.0625 591.164063 C 80.433594 603.761719 85.367188 624.355469 85.664063 630.347656 C 87.375 630.347656 89.976563 630.347656 89.976563 630.347656 C 90.136719 623.5625 92.136719 617.460938 94.621094 610.554688 C 100.886719 588.179688 127.117188 564.503906 139.878906 558.984375 C 152.636719 553.460938 168.535156 547.960938 176.839844 547.835938 C 176.835938 546.691406 176.835938 545.398438 176.835938 544.023438 C 168.082031 543.875 165.605469 543.300781 149.421875 537.480469 Z M 134.238281 534.101563 C 137.078125 535.003906 139.347656 536.179688 142.777344 539.65625 C 140.035156 541.164063 137.425781 543.023438 134.113281 543.351563 C 128.070313 543.421875 125.820313 542.042969 117.621094 537.058594 C 121.699219 534.5 128.527344 532.359375 134.238281 534.101563 Z M 88.511719 469.085938 C 89.285156 473.578125 90.472656 477.375 92.167969 481.914063 C 90.277344 480.628906 88.382813 479.296875 86.277344 478.617188 C 87.191406 476.125 88.128906 471.824219 88.511719 469.085938 Z M 85.234375 480.972656 C 90.394531 482.378906 92.914063 485.6875 93.960938 488.972656 C 94.738281 491.542969 94.933594 494.496094 95.234375 497.167969 C 91.589844 495.066406 87.269531 492.230469 85.882813 488.121094 C 85.191406 485.824219 84.6875 483.355469 85.234375 480.972656 Z M 77.171875 499.023438 C 78.359375 495.535156 80.5625 492.449219 82.277344 489.140625 C 85.121094 493.355469 87.574219 498.863281 85.742188 504.378906 C 84.691406 507.179688 83.03125 509.804688 80.921875 512.246094 C 78.140625 508.632813 75.539063 503.101563 77.171875 499.023438 Z M 66.359375 512.40625 C 69.363281 509.4375 72.800781 504.664063 74.605469 502.003906 C 75.382813 506.699219 77.558594 512.257813 80.988281 516.089844 C 83.472656 510.871094 88.910156 506.617188 88.636719 500.503906 C 88.597656 498.410156 87.9375 496.886719 87.589844 495.058594 C 90.792969 497.179688 93.863281 498.980469 97.28125 500.453125 L 97.132813 493.453125 C 100.285156 499.457031 104.191406 505.3125 108.449219 510.910156 C 102.59375 521.945313 100.484375 531.253906 81.636719 535.867188 C 78.28125 530.75 76.789063 521.710938 63.261719 523.511719 C 63.652344 525.699219 64.710938 529.964844 65.84375 532.402344 C 61.007813 528.464844 53.878906 526.402344 45.058594 531.117188 C 53.046875 526.449219 59.617188 519.269531 66.359375 512.40625 Z M 60.910156 533.191406 C 63.289063 534.699219 64.996094 537.398438 66.917969 539.566406 C 70.535156 539.539063 73.898438 539.382813 77.359375 539.363281 C 70.300781 536.414063 68.414063 532.621094 67.683594 527.167969 C 70.320313 526.984375 72.738281 527.414063 74.6875 529.179688 C 76.960938 532.136719 78.527344 535.398438 79.386719 539.007813 C 91.726563 537.585938 107.753906 529.21875 109.714844 513.625 L 113.089844 517.058594 C 111.878906 523.03125 107.273438 528.25 102.746094 532.265625 C 100.40625 534.378906 88.863281 539.765625 80.480469 540.40625 C 79.320313 545.574219 74.707031 550.59375 69.382813 551.597656 C 69.769531 549.183594 70.457031 544.859375 77.066406 541.097656 C 73.425781 541.105469 70.21875 541.027344 67.09375 540.949219 C 61.597656 543.71875 52.863281 545.875 43.007813 535.039063 C 48.132813 531.921875 55.277344 529.285156 60.910156 533.191406 Z M 14.277344 544.667969 C 18.613281 542.199219 25.769531 541.898438 29.480469 544.933594 C 26.199219 547.203125 18.535156 548.21875 14.277344 544.667969 Z M 52.65625 564.25 C 56.117188 562.636719 65.21875 563.15625 67.46875 566.445313 C 69.152344 564.417969 73.660156 562.921875 76.476563 563.625 C 76.085938 565.96875 73.585938 567.613281 70.539063 569.207031 C 73.179688 569.226563 76.171875 571.035156 77.234375 573.675781 C 74.617188 574.375 72.007813 573.976563 70.15625 571.824219 C 66.9375 568.082031 62.636719 564.640625 54.851563 566.167969 C 54.335938 565.582031 52.65625 564.25 52.65625 564.25 Z M 89.792969 613.0625 C 89.53125 611.472656 88.832031 609.914063 87.828125 608.816406 C 86.683594 609.257813 85.78125 609.992188 84.925781 611.40625 C 83.769531 606.25 81.953125 602.019531 79.289063 596.933594 C 82.851563 600.117188 88.597656 602.566406 94.480469 599.632813 C 92.507813 603.660156 91.242188 608.046875 89.792969 613.0625 Z M 82.542969 596.246094 C 85.234375 593.574219 92.195313 594.902344 94.492188 597.789063 C 88.441406 600.53125 83.90625 598.34375 82.542969 596.246094 Z M 96.316406 597.320313 C 94.695313 594.121094 91.101563 592.871094 88.535156 592.816406 C 93.601563 589.742188 100.320313 581.714844 100.320313 581.714844 C 102.75 582.078125 103.609375 582 106.570313 581.875 C 104.996094 583.863281 98.222656 591.722656 96.316406 597.320313 Z M 98.753906 578.492188 C 95.851563 583.167969 90.316406 589.664063 78.902344 594.589844 C 78.226563 593.589844 77.804688 592.746094 77.175781 591.929688 C 82.65625 590.601563 91.539063 584.453125 96.53125 577.9375 C 94.28125 574.542969 91.101563 571.445313 92.1875 564.816406 C 98.214844 569.019531 97.320313 576.546875 97.320313 576.546875 C 98.492188 574.78125 99.253906 572.75 100.097656 570.757813 C 91.257813 559.949219 103.210938 553.785156 106.214844 550.667969 C 108.082031 553.476563 113.386719 563.9375 101.730469 571.496094 C 100.835938 573.25 100.390625 575.1875 99.457031 576.945313 C 106.503906 572.929688 109.902344 572.78125 113.484375 574.285156 C 107.988281 580.984375 101.359375 578.59375 98.753906 578.492188 Z M 115.804688 572.195313 C 112.835938 570.90625 109.609375 570.351563 106.136719 570.523438 C 117.453125 564.015625 108.835938 549.085938 107.625 546.769531 C 105.800781 547.90625 93.054688 555.179688 93.949219 563.785156 C 92.898438 562.140625 91.492188 561.589844 90.417969 561.519531 C 87.191406 567.144531 90.441406 574.691406 93.394531 578.539063 C 88.617188 584.445313 82.082031 587.300781 75.660156 590.066406 C 70.847656 582.484375 64.714844 574.914063 57.746094 568.65625 C 62.722656 567.949219 66.378906 571.410156 70.171875 574.226563 C 72.820313 576.527344 76.164063 576.371094 79.828125 575.578125 C 79.761719 570.503906 77.886719 569.800781 75.976563 568.039063 C 79.371094 566.125 79.449219 563.039063 79.761719 561.746094 C 75.460938 560.773438 72.644531 560.574219 67.5 563.082031 C 65.015625 561.910156 55.789063 559.367188 50.875 562.675781 C 45.351563 558.605469 39.648438 553.460938 25.355469 548.644531 C 30.34375 547.515625 32.84375 546.1875 34.722656 544.855469 C 32.0625 542.589844 29.050781 541.660156 26.144531 541.050781 C 31.359375 538.914063 35.085938 537.222656 38.570313 535.210938 C 44.253906 540.355469 49.863281 545.703125 57.636719 545.886719 C 61.683594 546.050781 65.480469 544.824219 69.148438 543.441406 C 67.25 546.65625 66.011719 552.449219 66.351563 555.078125 C 69.738281 554.628906 73.007813 553.261719 76.03125 551.703125 C 79.324219 549.855469 81.824219 546.199219 83.460938 542.972656 C 97.199219 541.085938 110.96875 532.710938 115.886719 518.953125 C 120.285156 523.066406 124.878906 527.015625 129.589844 530.835938 C 123.1875 530.84375 118.042969 533.441406 113.296875 537.027344 C 116.121094 539.679688 119.683594 541.742188 123.144531 543.371094 C 127.382813 545.328125 131.46875 546.375 136.136719 546.035156 C 133.167969 549.992188 131.371094 555.960938 131.058594 560.183594 C 128.398438 562.058594 120.78125 567.320313 115.804688 572.195313 Z M 143.019531 553.257813 C 140.441406 554.789063 137.734375 555.96875 134.421875 556.664063 C 135.828125 551.894531 136.191406 550.558594 138.035156 548.566406 C 141.691406 544.703125 145.132813 543.683594 148.402344 543.285156 C 148.273438 547.210938 146.773438 550.957031 143.019531 553.257813 Z M 149.910156 550.3125 C 151.222656 547.980469 151.964844 545.390625 152.707031 542.796875 C 156.886719 544.320313 161.394531 544.988281 165.722656 546.0625 C 160.640625 547.21875 155.09375 548.671875 149.910156 550.3125 Z M 225.316406 327.261719 C 246.25 358.75 258.582031 410.234375 259.320313 425.21875 C 263.597656 425.21875 270.101563 425.21875 270.101563 425.21875 C 270.5 408.25 275.5 393 281.714844 375.734375 C 297.382813 319.792969 362.960938 260.605469 394.855469 246.804688 C 426.75 233 466.5 219.25 487.253906 218.941406 C 487.253906 216.074219 487.253906 212.839844 487.253906 209.402344 C 465.363281 209.035156 459.175781 207.597656 418.710938 193.050781 C 378.25 178.5 319.195313 123.773438 302.972656 92.511719 C 286.75 61.25 275.949219 33.265625 270.378906 0.253906 C 270.378906 0.253906 264.625 0.253906 261.304688 0.242188 C 258.144531 22.277344 256.789063 28.101563 244.019531 63.550781 C 231.25 99 175.296875 156.28125 145.859375 173.496094 C 115.5 191.25 79 206.5 46.765625 206.816406 C 46.75 210.542969 46.75 217 46.75 217 C 68.5 217.25 76.75 220.25 96.5 226.25 C 149.5 242.351563 195.5625 282.167969 225.316406 327.261719 Z M 426.925781 206.34375 C 437.382813 210.144531 448.652344 211.816406 459.464844 214.503906 C 446.765625 217.390625 432.894531 221.023438 419.941406 225.125 C 423.222656 219.296875 425.074219 212.820313 426.925781 206.34375 Z M 182.289063 264.765625 C 181.003906 263.304688 176.800781 259.972656 176.800781 259.972656 C 185.453125 255.9375 208.203125 257.234375 213.839844 265.457031 C 218.046875 260.390625 229.316406 256.648438 236.355469 258.40625 C 235.378906 264.273438 229.121094 268.378906 221.507813 272.367188 C 228.113281 272.414063 235.59375 276.929688 238.246094 283.535156 C 231.710938 285.285156 225.183594 284.285156 220.558594 278.910156 C 212.503906 269.550781 201.753906 260.949219 182.289063 264.765625 Z M 269.644531 382.003906 C 268.992188 378.023438 267.242188 374.136719 264.734375 371.382813 C 261.875 372.492188 259.617188 374.332031 257.480469 377.867188 C 254.582031 364.96875 250.039063 354.390625 243.382813 341.679688 C 252.292969 349.644531 266.65625 355.761719 281.367188 348.429688 C 276.429688 358.496094 273.265625 369.464844 269.644531 382.003906 Z M 251.519531 339.96875 C 258.25 333.277344 275.648438 336.601563 281.390625 343.824219 C 266.265625 350.679688 254.925781 345.203125 251.519531 339.96875 Z M 285.949219 342.648438 C 281.902344 334.648438 272.910156 331.519531 266.503906 331.386719 C 279.167969 323.699219 295.960938 303.636719 295.960938 303.636719 C 302.039063 304.542969 304.1875 304.347656 311.589844 304.035156 C 307.648438 309.003906 290.714844 328.65625 285.949219 342.648438 Z M 292.050781 295.578125 C 284.792969 307.265625 270.957031 323.503906 242.414063 335.820313 C 240.726563 333.320313 239.675781 331.214844 238.097656 329.171875 C 251.800781 325.851563 274.007813 310.484375 286.492188 294.191406 C 280.863281 285.703125 272.910156 277.957031 275.628906 261.386719 C 290.699219 271.894531 288.460938 290.714844 288.460938 290.714844 C 291.394531 286.296875 293.300781 281.222656 295.410156 276.238281 C 273.304688 249.21875 303.1875 233.808594 310.695313 226.015625 C 315.367188 233.039063 328.625 259.191406 299.484375 278.082031 C 297.25 282.472656 296.136719 287.316406 293.800781 291.710938 C 311.421875 281.671875 319.921875 281.300781 328.871094 285.0625 C 315.136719 301.804688 298.5625 295.828125 292.050781 295.578125 Z M 402.714844 232.492188 C 396.265625 236.316406 389.492188 239.265625 381.214844 241.007813 C 384.730469 229.085938 385.640625 225.742188 390.253906 220.761719 C 399.394531 211.101563 407.992188 208.558594 416.164063 207.558594 C 415.84375 217.378906 412.097656 226.738281 402.714844 232.492188 Z M 380.761719 184.597656 C 387.859375 186.859375 393.527344 189.789063 402.109375 198.488281 C 395.246094 202.257813 388.722656 206.910156 380.445313 207.726563 C 365.34375 207.90625 359.710938 204.453125 339.214844 191.996094 C 349.410156 185.597656 366.480469 180.242188 380.761719 184.597656 Z M 266.445313 22.0625 C 268.378906 33.296875 271.347656 42.785156 275.582031 54.132813 C 270.855469 50.914063 266.121094 47.59375 260.855469 45.894531 C 263.136719 39.65625 265.484375 28.90625 266.445313 22.0625 Z M 258.25 51.777344 C 271.152344 55.296875 277.445313 63.570313 280.0625 71.773438 C 282.007813 78.203125 282.492188 85.59375 283.246094 92.269531 C 274.140625 87.011719 263.332031 79.925781 259.863281 69.648438 C 258.144531 63.910156 256.878906 57.734375 258.25 51.777344 Z M 238.09375 96.902344 C 241.0625 88.183594 246.570313 80.464844 250.855469 72.195313 C 257.964844 82.730469 264.097656 96.503906 259.523438 110.289063 C 256.890625 117.296875 252.738281 123.859375 247.46875 129.96875 C 240.515625 120.929688 234.011719 107.101563 238.09375 96.902344 Z M 211.054688 130.363281 C 218.566406 122.933594 227.167969 111.011719 231.675781 104.355469 C 233.617188 116.09375 239.0625 129.988281 247.636719 139.566406 C 253.839844 126.519531 267.441406 115.890625 266.757813 100.605469 C 266.65625 95.371094 265.007813 91.566406 264.132813 86.996094 C 272.140625 92.292969 279.820313 96.804688 288.367188 100.476563 L 287.996094 82.980469 C 295.878906 97.988281 305.644531 112.625 316.289063 126.628906 C 301.648438 154.214844 296.371094 177.476563 249.257813 189.011719 C 240.863281 176.222656 237.136719 153.628906 203.316406 158.121094 C 204.296875 163.597656 206.9375 174.253906 209.769531 180.351563 C 197.683594 170.507813 179.859375 165.355469 157.808594 177.140625 C 177.777344 165.464844 194.203125 147.523438 211.054688 130.363281 Z M 197.4375 182.324219 C 203.386719 186.097656 207.648438 192.839844 212.460938 198.261719 C 221.496094 198.199219 229.902344 197.808594 238.558594 197.757813 C 220.910156 190.378906 216.195313 180.902344 214.371094 167.265625 C 220.960938 166.8125 227.007813 167.878906 231.878906 172.296875 C 237.566406 179.683594 241.480469 187.839844 243.628906 196.863281 C 274.476563 193.3125 314.550781 172.394531 319.453125 133.410156 L 327.886719 141.992188 C 324.855469 156.921875 313.351563 169.972656 302.027344 180.011719 C 296.175781 185.296875 267.320313 198.757813 246.367188 200.359375 C 243.460938 213.28125 231.929688 225.835938 218.617188 228.347656 C 219.585938 222.304688 221.304688 211.492188 237.824219 202.089844 C 228.730469 202.109375 220.710938 201.917969 212.898438 201.71875 C 199.152344 208.648438 177.316406 214.03125 152.683594 186.941406 C 165.492188 179.144531 183.351563 172.558594 197.4375 182.324219 Z M 141.589844 187.367188 C 155.792969 200.234375 169.816406 213.605469 189.246094 214.0625 C 199.371094 214.472656 208.859375 211.40625 218.035156 207.953125 C 213.289063 215.988281 210.191406 230.472656 211.046875 237.042969 C 219.507813 235.917969 227.683594 232.503906 235.238281 228.609375 C 243.46875 223.988281 249.722656 214.84375 253.816406 206.78125 C 288.160156 202.0625 322.585938 181.125 334.875 146.730469 C 345.878906 157.015625 357.363281 166.882813 369.136719 176.4375 C 353.128906 176.449219 340.265625 182.949219 328.402344 191.910156 C 335.460938 198.546875 344.367188 203.707031 353.027344 207.777344 C 363.617188 212.664063 373.832031 215.285156 385.507813 214.4375 C 378.082031 224.328125 373.589844 239.25 372.804688 249.804688 C 366.160156 254.496094 347.117188 267.648438 334.675781 279.835938 C 327.246094 276.617188 319.1875 275.226563 310.5 275.65625 C 338.789063 259.386719 317.25 222.058594 314.226563 216.269531 C 309.664063 219.113281 277.800781 237.296875 280.03125 258.8125 C 277.40625 254.691406 273.890625 253.324219 271.207031 253.148438 C 263.136719 267.203125 271.269531 286.070313 278.644531 295.695313 C 266.699219 310.460938 250.363281 317.59375 234.316406 324.515625 C 222.28125 305.5625 206.945313 286.636719 189.53125 270.992188 C 201.972656 269.214844 211.109375 277.871094 220.589844 284.910156 C 227.214844 290.660156 235.574219 290.273438 244.734375 288.289063 C 244.566406 275.609375 239.875 273.851563 235.105469 269.445313 C 243.589844 264.664063 243.789063 256.945313 244.566406 253.714844 C 233.816406 251.273438 226.777344 250.785156 213.914063 257.046875 C 207.699219 254.121094 184.636719 247.761719 172.347656 256.039063 C 158.546875 245.863281 144.28125 232.992188 108.554688 220.960938 C 121.015625 218.136719 127.273438 214.8125 131.964844 211.488281 C 125.316406 205.820313 117.789063 203.492188 110.527344 201.972656 C 123.558594 196.632813 132.878906 192.40625 141.589844 187.367188 Z M 118.867188 211.6875 C 110.65625 217.355469 91.496094 219.894531 80.851563 211.015625 C 91.695313 204.84375 109.582031 204.09375 118.867188 211.6875 Z M 529.679688 545.761719 C 520.925781 545.613281 518.449219 545.039063 502.265625 539.21875 C 486.078125 533.398438 462.457031 511.507813 455.96875 499.003906 C 449.480469 486.5 445.160156 475.304688 442.929688 462.101563 C 442.929688 462.101563 440.628906 462.101563 439.300781 462.097656 C 438.039063 470.910156 437.492188 473.242188 432.386719 487.421875 C 427.277344 501.601563 404.898438 524.511719 393.121094 531.398438 C 380.980469 538.5 366.378906 544.597656 353.484375 544.726563 C 353.480469 546.21875 353.480469 548.800781 353.480469 548.800781 C 362.179688 548.898438 365.480469 550.097656 373.378906 552.5 C 394.578125 558.941406 413.003906 574.867188 424.90625 592.90625 C 433.277344 605.5 438.214844 626.09375 438.507813 632.085938 C 440.21875 632.085938 442.820313 632.085938 442.820313 632.085938 C 442.980469 625.300781 444.980469 619.199219 447.464844 612.292969 C 453.730469 589.917969 479.964844 566.242188 492.722656 560.722656 C 505.480469 555.199219 521.378906 549.699219 529.679688 549.574219 C 529.679688 548.429688 529.679688 547.136719 529.679688 545.761719 Z M 487.082031 535.839844 C 489.921875 536.742188 492.191406 537.917969 495.621094 541.394531 C 492.878906 542.902344 490.269531 544.761719 486.957031 545.089844 C 480.914063 545.160156 478.664063 543.78125 470.464844 538.796875 C 474.542969 536.238281 481.371094 534.097656 487.082031 535.839844 Z M 441.355469 470.824219 C 442.128906 475.316406 443.316406 479.113281 445.011719 483.652344 C 443.121094 482.363281 441.226563 481.035156 439.121094 480.355469 C 440.035156 477.863281 440.972656 473.5625 441.355469 470.824219 Z M 438.078125 482.710938 C 443.238281 484.117188 445.757813 487.425781 446.804688 490.710938 C 447.582031 493.28125 447.777344 496.238281 448.078125 498.90625 C 444.433594 496.804688 440.113281 493.972656 438.726563 489.859375 C 438.035156 487.5625 437.53125 485.09375 438.078125 482.710938 Z M 430.015625 500.761719 C 431.203125 497.273438 433.40625 494.1875 435.121094 490.878906 C 437.964844 495.09375 440.417969 500.601563 438.589844 506.117188 C 437.535156 508.917969 435.875 511.546875 433.765625 513.988281 C 430.984375 510.371094 428.382813 504.839844 430.015625 500.761719 Z M 419.203125 514.144531 C 422.203125 511.175781 425.644531 506.402344 427.449219 503.742188 C 428.226563 508.4375 430.402344 513.996094 433.832031 517.828125 C 436.316406 512.609375 441.757813 508.355469 441.480469 502.242188 C 441.441406 500.148438 440.78125 498.628906 440.433594 496.796875 C 443.636719 498.917969 446.707031 500.722656 450.125 502.191406 L 449.976563 495.191406 C 453.128906 501.195313 457.035156 507.050781 461.296875 512.648438 C 455.4375 523.683594 453.328125 532.988281 434.480469 537.605469 C 431.121094 532.488281 429.632813 523.449219 416.105469 525.25 C 416.496094 527.4375 417.554688 531.699219 418.6875 534.140625 C 413.851563 530.203125 406.722656 528.140625 397.902344 532.855469 C 405.890625 528.1875 412.460938 521.007813 419.203125 514.144531 Z M 413.753906 534.929688 C 416.132813 536.4375 417.839844 539.136719 419.761719 541.304688 C 423.378906 541.277344 426.742188 541.121094 430.203125 541.101563 C 423.144531 538.152344 421.257813 534.359375 420.527344 528.90625 C 423.164063 528.722656 425.582031 529.152344 427.53125 530.917969 C 429.804688 533.871094 431.371094 537.136719 432.230469 540.746094 C 444.570313 539.324219 460.597656 530.957031 462.558594 515.363281 L 465.933594 518.796875 C 464.722656 524.769531 460.117188 529.988281 455.589844 534.003906 C 453.25 536.117188 441.707031 541.503906 433.324219 542.144531 C 432.164063 547.3125 427.550781 552.332031 422.226563 553.339844 C 422.613281 550.921875 423.300781 546.597656 429.910156 542.835938 C 426.269531 542.84375 423.0625 542.765625 419.9375 542.6875 C 414.441406 545.460938 405.707031 547.613281 395.851563 536.777344 C 400.976563 533.65625 408.121094 531.023438 413.753906 534.929688 Z M 367.121094 546.40625 C 371.457031 543.9375 378.609375 543.636719 382.324219 546.671875 C 379.039063 548.941406 371.378906 549.957031 367.121094 546.40625 Z M 405.496094 565.988281 C 408.960938 564.375 418.0625 564.894531 420.3125 568.183594 C 421.996094 566.15625 426.507813 564.660156 429.320313 565.363281 C 428.929688 567.707031 426.429688 569.351563 423.382813 570.945313 C 426.023438 570.964844 429.015625 572.773438 430.078125 575.414063 C 427.464844 576.113281 424.851563 575.714844 423.003906 573.5625 C 419.78125 569.820313 415.480469 566.378906 407.695313 567.90625 C 407.179688 567.320313 405.496094 565.988281 405.496094 565.988281 Z M 442.636719 614.800781 C 442.378906 613.210938 441.675781 611.65625 440.671875 610.554688 C 439.527344 610.996094 438.628906 611.730469 437.769531 613.144531 C 436.613281 607.988281 434.796875 603.757813 432.132813 598.671875 C 435.695313 601.855469 441.441406 604.304688 447.324219 601.371094 C 445.351563 605.398438 444.085938 609.785156 442.636719 614.800781 Z M 435.386719 597.984375 C 438.078125 595.3125 445.039063 596.640625 447.335938 599.53125 C 441.285156 602.269531 436.75 600.082031 435.386719 597.984375 Z M 449.160156 599.058594 C 447.539063 595.859375 443.945313 594.609375 441.378906 594.554688 C 446.445313 591.480469 453.164063 583.453125 453.164063 583.453125 C 455.59375 583.816406 456.453125 583.738281 459.414063 583.613281 C 457.839844 585.601563 451.066406 593.460938 449.160156 599.058594 Z M 451.597656 580.230469 C 448.695313 584.90625 443.160156 591.402344 431.746094 596.328125 C 431.070313 595.328125 430.648438 594.484375 430.019531 593.667969 C 435.496094 592.339844 444.382813 586.191406 449.375 579.675781 C 447.125 576.28125 443.945313 573.183594 445.03125 566.554688 C 451.058594 570.757813 450.164063 578.285156 450.164063 578.285156 C 451.335938 576.519531 452.097656 574.488281 452.941406 572.496094 C 444.101563 561.6875 456.054688 555.523438 459.058594 552.40625 C 460.925781 555.214844 466.230469 565.675781 454.574219 573.234375 C 453.679688 574.988281 453.234375 576.925781 452.300781 578.683594 C 459.347656 574.667969 462.746094 574.519531 466.328125 576.023438 C 460.835938 582.722656 454.203125 580.332031 451.597656 580.230469 Z M 468.648438 573.933594 C 465.679688 572.648438 462.453125 572.089844 458.980469 572.261719 C 470.296875 565.753906 461.679688 550.824219 460.46875 548.507813 C 458.644531 549.644531 445.898438 556.917969 446.789063 565.527344 C 445.742188 563.878906 444.335938 563.328125 443.261719 563.257813 C 440.035156 568.882813 443.285156 576.425781 446.234375 580.277344 C 441.460938 586.183594 434.925781 589.039063 428.503906 591.804688 C 423.691406 584.222656 417.558594 576.65625 410.59375 570.398438 C 415.566406 569.683594 419.222656 573.148438 423.015625 575.964844 C 425.664063 578.265625 429.007813 578.109375 432.671875 577.316406 C 432.605469 572.242188 430.730469 571.539063 428.820313 569.777344 C 432.214844 567.863281 432.292969 564.777344 432.605469 563.484375 C 428.304688 562.511719 425.488281 562.3125 420.34375 564.820313 C 417.859375 563.648438 408.632813 561.105469 403.71875 564.414063 C 398.195313 560.34375 392.492188 555.199219 378.199219 550.382813 C 383.1875 549.253906 385.6875 547.925781 387.566406 546.59375 C 384.90625 544.328125 381.894531 543.398438 378.988281 542.789063 C 384.203125 540.652344 387.929688 538.960938 391.414063 536.949219 C 397.097656 542.09375 402.703125 547.441406 410.480469 547.625 C 414.527344 547.789063 418.324219 546.5625 421.992188 545.179688 C 420.09375 548.394531 418.855469 554.1875 419.195313 556.816406 C 422.582031 556.367188 425.851563 555 428.875 553.441406 C 432.164063 551.59375 434.667969 547.9375 436.304688 544.710938 C 450.042969 542.824219 463.8125 534.449219 468.730469 520.691406 C 473.128906 524.804688 477.722656 528.753906 482.433594 532.574219 C 476.03125 532.578125 470.886719 535.179688 466.140625 538.765625 C 468.964844 541.417969 472.523438 543.480469 475.988281 545.109375 C 480.226563 547.066406 484.3125 548.113281 488.980469 547.773438 C 486.011719 551.730469 484.214844 557.699219 483.902344 561.921875 C 481.242188 563.796875 473.628906 569.058594 468.648438 573.933594 Z M 495.863281 554.996094 C 493.285156 556.527344 490.578125 557.707031 487.265625 558.402344 C 488.671875 553.632813 489.035156 552.296875 490.878906 550.304688 C 494.535156 546.441406 497.976563 545.421875 501.246094 545.023438 C 501.117188 548.949219 499.617188 552.695313 495.863281 554.996094 Z M 502.757813 552.050781 C 504.066406 549.71875 504.808594 547.128906 505.550781 544.535156 C 509.730469 546.058594 514.238281 546.726563 518.566406 547.800781 C 513.484375 548.957031 507.9375 550.410156 502.757813 552.050781 Z M 325.890625 538.335938 C 309.703125 532.515625 286.082031 510.625 279.59375 498.121094 C 273.105469 485.613281 268.785156 474.421875 266.558594 461.21875 C 266.558594 461.21875 264.253906 461.21875 262.925781 461.210938 C 261.664063 470.027344 261.121094 472.355469 256.011719 486.535156 C 250.90625 500.714844 228.523438 523.628906 216.75 530.511719 C 204.605469 537.613281 190.003906 543.714844 177.109375 543.84375 C 177.105469 545.332031 177.105469 547.914063 177.105469 547.914063 C 185.804688 548.015625 189.105469 549.214844 197.003906 551.613281 C 218.203125 558.054688 236.628906 573.984375 248.53125 592.019531 C 256.90625 604.613281 261.839844 625.210938 262.132813 631.203125 C 263.84375 631.203125 266.445313 631.203125 266.445313 631.203125 C 266.605469 624.414063 268.605469 618.316406 271.089844 611.410156 C 277.359375 589.03125 303.589844 565.359375 316.347656 559.835938 C 329.105469 554.316406 345.003906 548.816406 353.308594 548.691406 C 353.304688 547.546875 353.304688 546.25 353.304688 544.875 C 344.550781 544.730469 342.074219 544.15625 325.890625 538.335938 Z M 310.710938 534.953125 C 313.546875 535.859375 315.816406 537.03125 319.246094 540.511719 C 316.503906 542.019531 313.894531 543.878906 310.585938 544.207031 C 304.539063 544.277344 302.289063 542.898438 294.089844 537.914063 C 298.167969 535.355469 304.996094 533.210938 310.710938 534.953125 Z M 264.984375 469.941406 C 265.757813 474.433594 266.945313 478.230469 268.636719 482.769531 C 266.746094 481.480469 264.855469 480.152344 262.746094 479.472656 C 263.660156 476.980469 264.597656 472.679688 264.984375 469.941406 Z M 261.703125 481.824219 C 266.867188 483.234375 269.382813 486.542969 270.429688 489.824219 C 271.210938 492.398438 271.402344 495.351563 271.703125 498.023438 C 268.0625 495.921875 263.738281 493.085938 262.351563 488.976563 C 261.660156 486.679688 261.15625 484.210938 261.703125 481.824219 Z M 253.640625 499.878906 C 254.828125 496.390625 257.03125 493.300781 258.746094 489.992188 C 261.589844 494.207031 264.042969 499.71875 262.214844 505.230469 C 261.160156 508.035156 259.5 510.660156 257.390625 513.101563 C 254.609375 509.484375 252.007813 503.953125 253.640625 499.878906 Z M 242.828125 513.261719 C 245.832031 510.289063 249.273438 505.519531 251.074219 502.855469 C 251.851563 507.554688 254.03125 513.109375 257.460938 516.941406 C 259.941406 511.722656 265.382813 507.472656 265.105469 501.359375 C 265.066406 499.265625 264.40625 497.742188 264.058594 495.914063 C 267.261719 498.03125 270.332031 499.835938 273.753906 501.308594 L 273.601563 494.308594 C 276.757813 500.3125 280.664063 506.164063 284.921875 511.765625 C 279.0625 522.800781 276.953125 532.105469 258.109375 536.71875 C 254.75 531.605469 253.261719 522.566406 239.730469 524.363281 C 240.121094 526.554688 241.179688 530.816406 242.3125 533.253906 C 237.480469 529.316406 230.347656 527.257813 221.527344 531.972656 C 229.515625 527.300781 236.085938 520.125 242.828125 513.261719 Z M 237.378906 534.042969 C 239.761719 535.554688 241.464844 538.253906 243.390625 540.417969 C 247.003906 540.394531 250.367188 540.238281 253.828125 540.21875 C 246.769531 537.265625 244.882813 533.476563 244.152344 528.019531 C 246.789063 527.839844 249.207031 528.269531 251.15625 530.035156 C 253.433594 532.988281 254.996094 536.25 255.855469 539.859375 C 268.195313 538.441406 284.226563 530.074219 286.1875 514.480469 L 289.558594 517.910156 C 288.347656 523.882813 283.746094 529.105469 279.214844 533.121094 C 276.875 535.234375 265.332031 540.617188 256.949219 541.261719 C 255.789063 546.429688 251.175781 551.449219 245.851563 552.453125 C 246.238281 550.035156 246.925781 545.710938 253.535156 541.953125 C 249.898438 541.957031 246.6875 541.882813 243.5625 541.800781 C 238.066406 544.574219 229.332031 546.726563 219.476563 535.894531 C 224.601563 532.773438 231.746094 530.136719 237.378906 534.042969 Z M 190.746094 545.523438 C 195.082031 543.050781 202.238281 542.753906 205.953125 545.789063 C 202.667969 548.058594 195.003906 549.074219 190.746094 545.523438 Z M 229.125 565.105469 C 232.585938 563.492188 241.6875 564.007813 243.941406 567.296875 C 245.621094 565.273438 250.132813 563.773438 252.945313 564.476563 C 252.554688 566.824219 250.054688 568.464844 247.007813 570.0625 C 249.652344 570.082031 252.640625 571.886719 253.703125 574.53125 C 251.089844 575.230469 248.480469 574.832031 246.628906 572.679688 C 243.40625 568.933594 239.105469 565.496094 231.320313 567.023438 C 230.804688 566.4375 229.125 565.105469 229.125 565.105469 Z M 266.261719 613.917969 C 266.003906 612.324219 265.300781 610.769531 264.300781 609.667969 C 263.15625 610.113281 262.253906 610.847656 261.394531 612.261719 C 260.238281 607.101563 258.421875 602.871094 255.757813 597.789063 C 259.320313 600.972656 265.066406 603.417969 270.953125 600.488281 C 268.976563 604.515625 267.710938 608.902344 266.261719 613.917969 Z M 259.015625 597.101563 C 261.703125 594.425781 268.664063 595.757813 270.960938 598.644531 C 264.910156 601.386719 260.375 599.199219 259.015625 597.101563 Z M 272.785156 598.175781 C 271.164063 594.972656 267.570313 593.722656 265.007813 593.667969 C 270.070313 590.59375 276.789063 582.570313 276.789063 582.570313 C 279.222656 582.933594 280.078125 582.855469 283.039063 582.730469 C 281.464844 584.71875 274.691406 592.578125 272.785156 598.175781 Z M 275.226563 579.347656 C 272.320313 584.023438 266.789063 590.519531 255.371094 595.445313 C 254.695313 594.445313 254.277344 593.601563 253.644531 592.785156 C 259.125 591.457031 268.007813 585.308594 273.003906 578.792969 C 270.75 575.398438 267.570313 572.296875 268.65625 565.667969 C 274.6875 569.875 273.789063 577.402344 273.789063 577.402344 C 274.964844 575.636719 275.726563 573.605469 276.570313 571.609375 C 267.726563 560.804688 279.679688 554.640625 282.683594 551.523438 C 284.550781 554.332031 289.855469 564.792969 278.199219 572.347656 C 277.304688 574.105469 276.859375 576.042969 275.925781 577.800781 C 282.972656 573.785156 286.375 573.636719 289.953125 575.140625 C 284.460938 581.839844 277.828125 579.449219 275.226563 579.347656 Z M 292.277344 573.050781 C 289.304688 571.761719 286.078125 571.207031 282.605469 571.378906 C 293.921875 564.871094 285.304688 549.941406 284.09375 547.625 C 282.269531 548.761719 269.523438 556.03125 270.417969 564.640625 C 269.367188 562.992188 267.960938 562.445313 266.886719 562.375 C 263.660156 567.996094 266.914063 575.542969 269.863281 579.394531 C 265.085938 585.300781 258.550781 588.152344 252.132813 590.921875 C 247.316406 583.339844 241.183594 575.769531 234.21875 569.511719 C 239.195313 568.800781 242.847656 572.265625 246.640625 575.082031 C 249.289063 577.378906 252.632813 577.222656 256.300781 576.429688 C 256.230469 571.359375 254.355469 570.65625 252.445313 568.894531 C 255.839844 566.980469 255.921875 563.894531 256.230469 562.601563 C 251.933594 561.625 249.113281 561.429688 243.972656 563.933594 C 241.484375 562.765625 232.261719 560.21875 227.34375 563.53125 C 221.824219 559.460938 216.117188 554.3125 201.828125 549.5 C 206.8125 548.371094 209.3125 547.039063 211.191406 545.710938 C 208.53125 543.445313 205.519531 542.511719 202.617188 541.902344 C 207.828125 539.769531 211.554688 538.078125 215.039063 536.0625 C 220.722656 541.210938 226.332031 546.558594 234.105469 546.738281 C 238.152344 546.90625 241.949219 545.679688 245.617188 544.296875 C 243.71875 547.511719 242.480469 553.304688 242.824219 555.933594 C 246.210938 555.480469 249.480469 554.117188 252.5 552.558594 C 255.792969 550.710938 258.296875 547.050781 259.933594 543.828125 C 273.671875 541.941406 287.4375 533.566406 292.355469 519.808594 C 296.753906 523.921875 301.351563 527.867188 306.058594 531.691406 C 299.65625 531.695313 294.511719 534.292969 289.765625 537.878906 C 292.589844 540.53125 296.152344 542.597656 299.617188 544.226563 C 303.851563 546.179688 307.9375 547.230469 312.609375 546.890625 C 309.636719 550.847656 307.839844 556.816406 307.527344 561.039063 C 304.867188 562.914063 297.253906 568.175781 292.277344 573.050781 Z M 319.488281 554.113281 C 316.910156 555.644531 314.203125 556.820313 310.890625 557.519531 C 312.296875 552.75 312.660156 551.410156 314.507813 549.417969 C 318.160156 545.554688 321.601563 544.539063 324.871094 544.140625 C 324.742188 548.066406 323.246094 551.8125 319.488281 554.113281 Z M 326.382813 551.164063 C 327.695313 548.832031 328.433594 546.242188 329.175781 543.652344 C 333.355469 545.171875 337.867188 545.839844 342.191406 546.917969 C 337.109375 548.074219 331.5625 549.527344 326.382813 551.164063 "/>
</g>
</svg>
