<?xml version="1.0" encoding="UTF-8"?>
<svg xmlns="http://www.w3.org/2000/svg" xmlns:xlink="http://www.w3.org/1999/xlink" width="382pt" height="374pt" viewBox="0 0 382 374" version="1.1">
<g id="surface1">
<path style=" stroke:none;fill-rule:nonzero;fill:rgb(0%,0%,0%);fill-opacity:1;" d="M 1.261719 0.402344 L 1.765625 374.257813 C 31.179688 374.148438 331.175781 374.671875 380.53125 374.03125 L 380.886719 0.578125 Z M 361.128906 12.234375 C 362.761719 37.996094 364.289063 60.753906 364.464844 87.765625 C 361.621094 88.015625 345.4375 49.246094 347.089844 31.777344 C 326.96875 31.566406 305.28125 29.308594 291.882813 10.554688 C 291.882813 10.554688 337.851563 11.832031 361.128906 12.234375 Z M 330.921875 317.648438 C 333.457031 317.261719 335.722656 317.636719 337.714844 318.769531 C 340.019531 320.339844 340.414063 323.175781 339.746094 325.601563 C 339.664063 327.554688 337.621094 329.277344 335.996094 330.082031 C 333.15625 330.332031 331.351563 330.242188 329.054688 328.820313 C 326.289063 327.113281 326.621094 323.652344 326.980469 320.933594 C 327.828125 319.40625 329.441406 318.300781 330.921875 317.648438 Z M 327.53125 52.257813 C 325.3125 53.238281 323.03125 52.414063 321.046875 51.433594 C 318.582031 49.5625 318.152344 45.824219 319.265625 43.238281 C 321.390625 39.5625 327.511719 38.601563 330.03125 42.117188 C 331.589844 43.714844 331.980469 46.402344 331.453125 48.523438 C 330.460938 50.207031 329.304688 51.449219 327.53125 52.257813 Z M 172.40625 54.273438 C 178.496094 43.707031 191.9375 46.101563 202.730469 45.730469 C 214.152344 46.089844 226.640625 47.011719 237.90625 51.730469 C 245.53125 59.570313 233.484375 67.1875 236.972656 76.976563 C 237.316406 82.667969 240.597656 86.457031 244.925781 90.0625 C 238.949219 90.863281 232.746094 89.429688 226.601563 89.640625 L 224.726563 87.453125 C 217.816406 78.683594 227.269531 69.804688 223.800781 60.46875 C 218.515625 55.246094 211.457031 55.035156 204.390625 54.679688 C 198.71875 55.625 189.769531 52.929688 186.53125 59.191406 C 186.777344 66.386719 193.636719 73.808594 187.273438 80.78125 C 185.996094 82.925781 186.082031 85.472656 183.585938 87.058594 C 180.28125 87.023438 177.160156 87.882813 173.816406 86.644531 C 176.953125 81.882813 179.304688 75.949219 177.90625 70.296875 C 175.039063 65.441406 170.972656 60.625 172.40625 54.273438 Z M 213.886719 77.765625 L 214.195313 86.761719 L 193.355469 87.476563 C 197.023438 80.597656 196.90625 72.796875 195.738281 65.03125 C 194.078125 60.433594 199.527344 61.75 201.753906 60.921875 C 207.746094 60.71875 213.332031 61.578125 218.5 63.5 C 217.761719 68.179688 213.566406 72.824219 213.886719 77.765625 Z M 292.316406 97.742188 C 277.628906 111.453125 262.367188 126.082031 253.203125 143.359375 C 247.679688 144.148438 244.328125 142.761719 239.21875 142.488281 C 243.402344 133.1875 249.382813 123.828125 256.292969 115.1875 C 256.351563 112.480469 253.898438 111.066406 251.777344 110.386719 L 157.277344 107.773438 C 155.023438 107.699219 152.527344 109.285156 152.304688 111.546875 L 152.492188 116.941406 C 156.671875 125.054688 161.296875 133 163.847656 141.769531 C 160.59375 143.078125 155.929688 142.789063 152.320313 142.613281 C 151.300781 125.988281 141.707031 95.699219 141.707031 95.699219 C 193.238281 97.234375 292.316406 97.742188 292.316406 97.742188 Z M 232.039063 156.390625 C 239.222656 173.253906 246.867188 190.554688 258.199219 205.925781 C 240.019531 227.261719 230.507813 251.898438 226.472656 278.601563 C 201.105469 282.925781 173.898438 281.757813 147.335938 281.765625 C 132.730469 280.464844 114.785156 282.429688 106.9375 267.988281 C 105.726563 258.878906 112.988281 251.875 116.171875 243.960938 L 155.875 180.613281 L 170.0625 156.714844 C 190.324219 156.621094 210.996094 155.460938 232.039063 156.390625 Z M 161.175781 116.34375 L 245.160156 118.867188 L 226.140625 141.882813 C 208.710938 141.429688 189.828125 142.230469 173.566406 140.683594 Z M 239.859375 152.519531 L 255.011719 152.300781 C 260.636719 167.566406 271.589844 180.550781 278.84375 195.160156 C 273.339844 196.550781 268.804688 200.007813 263.9375 202.425781 C 254.679688 186.382813 244.964844 170.058594 239.859375 152.519531 Z M 133.347656 101.390625 C 136.414063 107.738281 138.902344 114.554688 139.460938 122.039063 C 131.71875 110.75 118.789063 101.4375 104.816406 101.015625 C 95.238281 101.792969 87.195313 107.925781 81.925781 116.207031 C 71.699219 141.925781 90.929688 164.378906 101.5625 185.625 L 112.101563 199.675781 C 110.019531 204.546875 99.941406 212.699219 99.941406 212.699219 C 80.003906 187.113281 62.21875 158.757813 65.207031 123.234375 C 66.972656 109.066406 78.019531 94.28125 91.515625 89.464844 C 106.816406 84.886719 123.1875 89.578125 133.347656 101.390625 Z M 12.007813 81.832031 L 13.921875 15.128906 C 37.039063 15.234375 66.433594 14.527344 87.714844 13.648438 C 72.917969 28.566406 50.984375 32.320313 29.28125 29.761719 C 33.359375 63.554688 12.007813 81.832031 12.007813 81.832031 Z M 51.035156 318.535156 C 55.035156 317.046875 56.511719 320.601563 59.40625 321.851563 C 60.371094 323.769531 60.449219 326.019531 59.617188 327.996094 C 57.613281 330.914063 54.332031 331.480469 51.15625 330.839844 C 49.023438 329.859375 48.082031 328.695313 47.410156 326.613281 C 47.601563 323.457031 48.390625 320.128906 51.035156 318.535156 Z M 44.152344 56.265625 C 42.886719 54.507813 41.613281 52.300781 42.589844 50.167969 C 42.671875 48.214844 44.710938 46.34375 46.339844 45.6875 C 49.46875 45.128906 53.695313 45.734375 55.15625 48.988281 C 56.78125 52.53125 54.65625 56.207031 51.40625 57.820313 C 48.890625 58.804688 46.15625 57.851563 44.152344 56.265625 Z M 15.664063 359.371094 C 14.96875 334.78125 13.128906 307.226563 15.273438 282.238281 C 27.800781 297.417969 33.285156 317.34375 32.640625 337.925781 C 38.894531 340.863281 54.886719 335.066406 84.570313 359.859375 L 84.605469 360.910156 C 61.792969 360.941406 38.648438 359.933594 15.664063 359.371094 Z M 205.496094 306.039063 L 113.355469 306.34375 C 100.40625 305.136719 86.054688 306.828125 75.605469 299.683594 C 70.503906 286.652344 79.207031 273.441406 84.355469 261.5625 C 101.949219 227.488281 125.164063 195.476563 146.253906 162.632813 C 147.929688 158.972656 149.589844 154.863281 152.351563 152.21875 L 164.234375 153.011719 C 145.878906 186.808594 121.4375 218.117188 103.859375 252.636719 C 99.914063 260.128906 97.175781 272.230469 103.4375 279.667969 C 114.273438 289.351563 129.671875 287.625 143.683594 289.09375 C 170.078125 288.492188 225.710938 287.035156 225.710938 287.035156 C 225.929688 293.480469 226.003906 299.929688 227.84375 305.570313 Z M 232.773438 304.804688 C 231.21875 263.882813 242.414063 222.675781 279.003906 199.808594 L 285.308594 208.597656 C 284.289063 209.535156 239.429688 232.378906 239.429688 306.375 C 237.019531 306.160156 234.324219 306.253906 232.773438 304.804688 Z M 272.054688 229.164063 C 279.703125 242.109375 287.515625 255.5 293.550781 269.550781 C 293.601563 271.050781 292.449219 272.441406 291.125 273.234375 C 277.203125 274.316406 262.105469 276.03125 249.214844 276.472656 C 251.304688 258.691406 259.476563 243.105469 272.054688 229.164063 Z M 247.164063 304.308594 C 246.0625 298.492188 246.148438 292.1875 245.933594 285.894531 C 261.734375 282.796875 279.839844 281.128906 294.980469 280.609375 C 298.398438 279.589844 300.109375 276.980469 301.65625 273.925781 C 300.582031 260.152344 291.390625 250.265625 286.03125 238.441406 L 276.472656 222.257813 C 279.78125 218.09375 284.925781 214.914063 290.617188 214.570313 C 301.148438 237.171875 315.523438 258.140625 327.386719 280.246094 C 327.980469 288.78125 324.550781 298.207031 317.042969 302.515625 C 293.558594 304.820313 270.589844 304.707031 247.164063 304.308594 Z M 370.054688 355.929688 C 370.054688 355.929688 325.113281 358.371094 301.644531 356.777344 C 313.808594 343.898438 331.367188 339.398438 348.660156 340.453125 C 350.128906 321.945313 353.296875 300.523438 371.40625 290.296875 C 371.429688 312.808594 371.554688 333.964844 370.054688 355.929688 "/>
</g>
</svg>
