<?xml version="1.0" encoding="UTF-8"?>
<svg xmlns="http://www.w3.org/2000/svg" xmlns:xlink="http://www.w3.org/1999/xlink" width="441pt" height="455pt" viewBox="0 0 441 455" version="1.1">
<g id="surface1">
<path style=" stroke:none;fill-rule:nonzero;fill:rgb(0%,0%,0%);fill-opacity:1;" d="M 404.199219 16.5 C 345.335938 -16.664063 283.335938 2 221.101563 63.5 C 156 2 95 -2.664063 37 14 C 41 19.265625 208.199219 264.5 221.101563 284.800781 C 221.101563 284.800781 396 28 404.199219 16.5 Z M 394.699219 17.539063 C 394.699219 17.539063 329.800781 112.300781 312.101563 137.699219 L 295.300781 151.300781 L 284 141 C 324 104 353.398438 58.800781 366.101563 8.601563 C 375.898438 10.300781 385.699219 13.839844 394.699219 17.539063 Z M 308.699219 13.800781 C 299.800781 43.300781 290.652344 84.828125 291.722656 107.515625 C 311.023438 82.972656 334.46875 50.71875 349 7.800781 C 351.953125 7.378906 357.699219 7.800781 357.699219 7.800781 C 349.601563 42.199219 332.316406 72.925781 309.898438 101.199219 C 300.390625 113.195313 290.601563 123.300781 278.898438 132.601563 C 276.398438 91.5 284.898438 52.699219 300.300781 17 Z M 195.699219 51.699219 C 203.800781 58.601563 213.398438 65.898438 220.199219 73.601563 C 245 51.667969 265.398438 33.898438 288.5 22.199219 C 279.898438 43.601563 272 65.667969 270.5 102.898438 C 231.667969 98.335938 183.898438 78.800781 148.898438 48.398438 C 137.800781 39.398438 122.066406 22.035156 116.667969 16 C 144.601563 22.300781 173 33.199219 195.699219 51.699219 Z M 99.699219 37.398438 C 99.699219 37.398438 62 21.535156 54 18 C 72 13.800781 85.800781 13.199219 101.101563 14.300781 C 122.199219 41.601563 148.898438 67.300781 178.199219 82.898438 C 205.898438 100 237.699219 107.300781 269.800781 113.898438 C 269.898438 118.800781 269.335938 123.667969 270.101563 128.5 L 260.898438 120.898438 L 227.601563 144.601563 L 195.898438 109.800781 L 161.398438 117.300781 L 147.898438 78.101563 L 103.300781 76.5 Z M 115.5 112.898438 C 112.5 108.101563 108.300781 103.601563 105.699219 98.800781 C 144.398438 140.398438 194.339844 165.738281 249.199219 174.101563 C 261.664063 176 273.800781 176 286.398438 175.300781 C 286.398438 175.300781 279.300781 186.199219 275.601563 190.898438 C 258 191.800781 238.664063 190.835938 220.898438 187.101563 C 190.847656 180.785156 164.300781 167.800781 140 148.5 C 130.601563 137.601563 124 124.398438 115.5 112.898438 Z M 196.601563 235.800781 C 204.898438 227.101563 214.199219 218.699219 222.601563 210.601563 C 204.601563 203.300781 185.300781 199.199219 167.398438 191.898438 C 162.300781 184.300781 157.199219 176.300781 152.199219 168.398438 C 183.101563 189.800781 219.5 200.101563 258.300781 200.300781 C 250.898438 206.5 241.699219 211.898438 233.601563 218.101563 C 223.5 226.199219 212.398438 235 203.800781 245.199219 C 202 242.75 196.601563 235.800781 196.601563 235.800781 Z M 266.035156 205.617188 L 221.101563 271.601563 C 221.101563 271.601563 212.898438 258.800781 208.199219 252.898438 C 224.199219 233.800781 246.734375 220.117188 266.035156 205.617188 Z M 367.65625 366.042969 C 341.617188 341.441406 317.214844 339.578125 294.015625 346.242188 C 295.617188 348.351563 362.496094 446.445313 367.65625 454.5625 C 367.65625 454.5625 437.617188 351.84375 440.894531 347.242188 C 417.351563 333.976563 392.550781 341.441406 367.65625 366.042969 Z M 402.695313 346.164063 C 399.136719 357.964844 395.476563 374.574219 395.90625 383.648438 C 403.625 373.832031 413.003906 360.929688 418.816406 343.761719 C 419.996094 343.59375 422.296875 343.761719 422.296875 343.761719 C 419.058594 357.523438 412.144531 369.8125 403.175781 381.125 C 399.371094 385.921875 395.457031 389.964844 390.777344 393.683594 C 389.777344 377.242188 393.175781 361.722656 399.335938 347.441406 Z M 357.496094 361.324219 C 360.734375 364.082031 364.574219 367.003906 367.296875 370.082031 C 377.214844 361.308594 385.378906 354.203125 394.617188 349.523438 C 391.175781 358.082031 388.015625 366.910156 387.414063 381.804688 C 371.882813 379.976563 352.777344 372.164063 338.777344 360.003906 C 334.335938 356.402344 328.042969 349.457031 325.882813 347.042969 C 337.058594 349.5625 348.414063 353.921875 357.496094 361.324219 Z M 319.097656 355.601563 C 319.097656 355.601563 304.015625 349.257813 300.816406 347.84375 C 308.015625 346.164063 313.535156 345.921875 319.65625 346.363281 C 328.097656 357.28125 338.777344 367.5625 350.496094 373.804688 C 361.574219 380.644531 374.296875 383.5625 387.136719 386.203125 C 387.175781 388.164063 386.949219 390.109375 387.257813 392.042969 L 383.574219 389.003906 L 370.257813 398.484375 L 357.574219 384.5625 L 343.777344 387.5625 L 338.378906 371.882813 L 320.535156 371.242188 Z M 357.855469 434.964844 C 361.175781 431.484375 364.894531 428.125 368.257813 424.882813 C 361.058594 421.964844 353.335938 420.324219 346.175781 417.402344 C 344.136719 414.363281 342.097656 411.164063 340.097656 408.003906 C 352.457031 416.5625 367.015625 420.683594 382.535156 420.761719 C 379.574219 423.242188 375.894531 425.402344 372.65625 427.882813 C 368.617188 431.125 364.175781 434.644531 360.734375 438.722656 C 360.015625 437.742188 357.855469 434.964844 357.855469 434.964844 Z M 367.65625 449.28125 C 367.65625 449.28125 364.378906 444.164063 362.496094 441.804688 C 368.894531 434.164063 377.910156 428.691406 385.632813 422.890625 Z M 389.457031 417.003906 C 382.414063 417.363281 374.683594 416.976563 367.574219 415.484375 C 355.554688 412.957031 344.9375 407.761719 335.214844 400.042969 C 331.457031 395.683594 328.816406 390.402344 325.414063 385.804688 C 324.214844 383.882813 322.535156 382.082031 321.496094 380.164063 C 336.976563 396.804688 356.953125 406.9375 378.894531 410.28125 C 383.882813 411.042969 388.734375 411.042969 393.777344 410.761719 C 393.777344 410.761719 390.9375 415.125 389.457031 417.003906 Z M 397.335938 401.164063 L 392.816406 397.042969 C 408.816406 382.242188 420.574219 364.164063 425.65625 344.085938 C 429.574219 344.761719 433.496094 346.179688 437.097656 347.660156 C 437.097656 347.660156 411.136719 385.5625 404.058594 395.722656 Z M 220.800781 366.042969 C 194.761719 341.441406 170.359375 339.578125 147.160156 346.242188 C 148.761719 348.351563 215.640625 446.445313 220.800781 454.5625 C 220.800781 454.5625 290.761719 351.84375 294.039063 347.242188 C 270.492188 333.976563 245.691406 341.441406 220.800781 366.042969 Z M 210.640625 361.324219 C 213.878906 364.082031 217.71875 367.003906 220.441406 370.082031 C 230.359375 361.308594 238.519531 354.203125 247.761719 349.523438 C 244.320313 358.082031 241.160156 366.910156 240.558594 381.804688 C 225.027344 379.976563 205.921875 372.164063 191.921875 360.003906 C 187.480469 356.402344 181.1875 349.457031 179.027344 347.042969 C 190.199219 349.5625 201.558594 353.921875 210.640625 361.324219 Z M 172.238281 355.601563 C 172.238281 355.601563 157.160156 349.257813 153.960938 347.84375 C 161.160156 346.164063 166.679688 345.921875 172.800781 346.363281 C 181.238281 357.28125 191.921875 367.5625 203.640625 373.804688 C 214.71875 380.644531 227.441406 383.5625 240.28125 386.203125 C 240.320313 388.164063 240.09375 390.109375 240.398438 392.042969 L 236.71875 389.003906 L 223.398438 398.484375 L 210.71875 384.5625 L 196.921875 387.5625 L 191.519531 371.882813 L 173.679688 371.242188 Z M 211 434.964844 C 214.320313 431.484375 218.039063 428.125 221.398438 424.882813 C 214.199219 421.964844 206.480469 420.324219 199.320313 417.402344 C 197.28125 414.363281 195.238281 411.164063 193.238281 408.003906 C 205.601563 416.5625 220.160156 420.683594 235.679688 420.761719 C 232.71875 423.242188 229.039063 425.402344 225.800781 427.882813 C 221.761719 431.125 217.320313 434.644531 213.878906 438.722656 C 213.160156 437.742188 211 434.964844 211 434.964844 Z M 220.800781 449.28125 C 220.800781 449.28125 217.519531 444.164063 215.640625 441.804688 C 222.039063 434.164063 231.054688 428.691406 238.773438 422.890625 Z M 242.601563 417.003906 C 235.558594 417.363281 227.828125 416.976563 220.71875 415.484375 C 208.699219 412.957031 198.078125 407.761719 188.359375 400.042969 C 184.601563 395.683594 181.960938 390.402344 178.558594 385.804688 C 177.359375 383.882813 175.679688 382.082031 174.640625 380.164063 C 190.121094 396.804688 210.097656 406.9375 232.039063 410.28125 C 237.027344 411.042969 241.878906 411.042969 246.921875 410.761719 C 246.921875 410.761719 244.078125 415.125 242.601563 417.003906 Z M 290.238281 347.660156 C 290.238281 347.660156 264.28125 385.5625 257.199219 395.722656 L 250.480469 401.164063 L 245.960938 397.042969 C 261.960938 382.242188 273.71875 364.164063 278.800781 344.085938 C 282.71875 344.761719 286.640625 346.179688 290.238281 347.660156 Z M 275.441406 343.761719 C 272.199219 357.523438 265.285156 369.8125 256.320313 381.125 C 252.515625 385.921875 248.601563 389.964844 243.921875 393.683594 C 242.921875 377.242188 246.320313 361.722656 252.480469 347.441406 L 255.839844 346.164063 C 252.28125 357.964844 248.621094 374.574219 249.046875 383.648438 C 256.769531 373.832031 266.148438 360.929688 271.960938 343.761719 C 273.140625 343.59375 275.441406 343.761719 275.441406 343.761719 Z M 73.871094 366.042969 C 47.832031 341.441406 23.429688 339.578125 0.230469 346.242188 C 1.832031 348.351563 68.710938 446.445313 73.871094 454.5625 C 73.871094 454.5625 143.832031 351.84375 147.113281 347.242188 C 123.566406 333.976563 98.765625 341.441406 73.871094 366.042969 Z M 63.710938 361.324219 C 66.953125 364.082031 70.792969 367.003906 73.511719 370.082031 C 83.429688 361.308594 91.59375 354.203125 100.832031 349.523438 C 97.390625 358.082031 94.230469 366.910156 93.632813 381.804688 C 78.097656 379.976563 58.992188 372.164063 44.992188 360.003906 C 40.550781 356.402344 34.257813 349.457031 32.097656 347.042969 C 43.273438 349.5625 54.632813 353.921875 63.710938 361.324219 Z M 25.3125 355.601563 C 25.3125 355.601563 10.230469 349.257813 7.03125 347.84375 C 14.230469 346.164063 19.75 345.921875 25.871094 346.363281 C 34.3125 357.28125 44.992188 367.5625 56.710938 373.804688 C 67.792969 380.644531 80.511719 383.5625 93.351563 386.203125 C 93.390625 388.164063 93.164063 390.109375 93.472656 392.042969 L 89.792969 389.003906 L 76.472656 398.484375 L 63.792969 384.5625 L 49.992188 387.5625 L 44.59375 371.882813 L 26.75 371.242188 Z M 64.070313 434.964844 C 67.390625 431.484375 71.113281 428.125 74.472656 424.882813 C 67.273438 421.964844 59.550781 420.324219 52.390625 417.402344 C 50.351563 414.363281 48.3125 411.164063 46.3125 408.003906 C 58.671875 416.5625 73.230469 420.683594 88.75 420.761719 C 85.792969 423.242188 82.113281 425.402344 78.871094 427.882813 C 74.832031 431.125 70.390625 434.644531 66.953125 438.722656 C 66.230469 437.742188 64.070313 434.964844 64.070313 434.964844 Z M 73.871094 449.28125 C 73.871094 449.28125 70.59375 444.164063 68.710938 441.804688 C 75.113281 434.164063 84.125 428.691406 91.847656 422.890625 Z M 95.671875 417.003906 C 88.632813 417.363281 80.898438 416.976563 73.792969 415.484375 C 61.769531 412.957031 51.152344 407.761719 41.429688 400.042969 C 37.671875 395.683594 35.03125 390.402344 31.632813 385.804688 C 30.429688 383.882813 28.75 382.082031 27.710938 380.164063 C 43.191406 396.804688 63.167969 406.9375 85.113281 410.28125 C 90.097656 411.042969 94.953125 411.042969 99.992188 410.761719 C 99.992188 410.761719 97.152344 415.125 95.671875 417.003906 Z M 143.3125 347.660156 C 143.3125 347.660156 117.351563 385.5625 110.273438 395.722656 L 103.550781 401.164063 L 99.03125 397.042969 C 115.03125 382.242188 126.789063 364.164063 131.871094 344.085938 C 135.789063 344.761719 139.710938 346.179688 143.3125 347.660156 Z M 128.511719 343.761719 C 125.273438 357.523438 118.359375 369.8125 109.390625 381.125 C 105.589844 385.921875 101.671875 389.964844 96.992188 393.683594 C 95.992188 377.242188 99.390625 361.722656 105.550781 347.441406 L 108.910156 346.164063 C 105.351563 357.964844 101.691406 374.574219 102.121094 383.648438 C 109.839844 373.832031 119.21875 360.929688 125.03125 343.761719 C 126.214844 343.59375 128.511719 343.761719 128.511719 343.761719 "/>
</g>
</svg>
