<?xml version="1.0" encoding="UTF-8"?>
<svg xmlns="http://www.w3.org/2000/svg" xmlns:xlink="http://www.w3.org/1999/xlink" width="533pt" height="541pt" viewBox="0 0 533 541" version="1.1">
<g id="surface1">
<path style=" stroke:none;fill-rule:nonzero;fill:rgb(0%,0%,0%);fill-opacity:1;" d="M 73.511719 255.09375 C 74.539063 258.117188 74.804688 258.132813 75.8125 254.996094 C 87.230469 219.480469 96.257813 199.503906 126.382813 179.382813 C 100.699219 145.140625 55.507813 145.058594 22.878906 179.347656 C 54.035156 204.363281 61.390625 219.4375 73.511719 255.09375 Z M 70.574219 240.199219 C 72.941406 228.171875 68.039063 218.019531 61.699219 206.84375 C 62.367188 206.203125 63.082031 205.636719 63.730469 204.929688 C 72.816406 214.265625 76.542969 230.667969 71.5 243.355469 Z M 74.832031 252.789063 C 74.78125 252.96875 74.640625 252.988281 74.59375 252.835938 C 74.113281 251.113281 72.785156 247.101563 72.785156 247.101563 C 79.324219 228.230469 75.886719 216.335938 65.253906 203.359375 C 66.253906 202.398438 67.625 200.800781 68.589844 199.800781 C 70.40625 202.558594 84.066406 221.472656 84.882813 222.1875 C 81.277344 230.507813 77.789063 242.589844 74.832031 252.789063 Z M 123.332031 179.359375 C 109.800781 186.363281 93.5 204.445313 86.835938 218.179688 C 85.214844 216.351563 81.988281 212.09375 81.988281 212.09375 C 98.367188 200.742188 110.523438 184.492188 115.488281 171.75 C 116.140625 172.28125 121.6875 177.082031 123.332031 179.359375 Z M 96.46875 160.039063 C 96.332031 160.945313 96.199219 161.378906 95.847656 162.3125 C 97.589844 163.34375 101.578125 165.425781 101.578125 165.425781 C 101.128906 166.894531 100.664063 168.59375 100.359375 170.128906 C 101.6875 170.921875 105.175781 172.121094 105.175781 172.121094 L 102.941406 176.644531 C 104.503906 177.414063 106.613281 178.503906 108.203125 179.179688 C 105.304688 184.824219 94.539063 197.882813 89.09375 201.535156 L 86.292969 198.617188 C 84.613281 200.003906 81.015625 203.128906 81.015625 203.128906 L 78.144531 199.984375 C 77.226563 200.691406 76.03125 201.59375 75.234375 202.273438 C 75.234375 202.273438 72.746094 198.183594 71.578125 196.167969 C 79.894531 184.753906 85.832031 171.886719 86.035156 157.199219 C 89.664063 157.644531 93.378906 158.664063 96.46875 160.039063 Z M 83.574219 156.871094 C 82.648438 173.15625 70.804688 197.960938 54.925781 209.429688 L 52.671875 206.226563 C 68.390625 193.167969 77.992188 172.910156 77.160156 156.40625 C 77.160156 156.40625 80.714844 156.238281 83.574219 156.871094 Z M 26.550781 179.402344 C 33.011719 173.230469 40.238281 167.03125 48.21875 163.492188 C 47.121094 171.859375 41.859375 180.003906 33.207031 184.933594 C 32.175781 184.222656 28.085938 180.660156 26.550781 179.402344 Z M 53.113281 161.308594 C 57.242188 159.246094 65.839844 157.03125 69.867188 156.738281 C 70.425781 159.953125 70.515625 163.433594 70.929688 166.617188 C 68.449219 167.324219 65.855469 167.796875 63.230469 168.269531 C 63.230469 168.269531 63.703125 172.695313 64.261719 175.378906 L 64.351563 175.378906 C 62.035156 176.199219 56.328125 177.234375 56.328125 177.234375 C 56.773438 179.710938 57.007813 182.308594 57.507813 184.753906 C 55.121094 185.550781 52.945313 186.277344 50.34375 187.054688 C 50.992188 189.796875 51.582031 192.601563 52.320313 195.34375 L 45.773438 197.496094 C 42.570313 193.308594 36.738281 188.253906 36.738281 188.253906 C 47.933594 181.148438 52.324219 167.453125 53.113281 161.308594 "/>
<path style=" stroke:none;fill-rule:nonzero;fill:rgb(0%,0%,0%);fill-opacity:1;" d="M 315.882813 78.640625 C 285.757813 58.519531 276.730469 38.539063 265.3125 3.023438 C 264.304688 -0.113281 264.039063 -0.0976563 263.011719 2.925781 C 250.890625 38.582031 243.535156 53.65625 212.378906 78.671875 C 245.007813 112.964844 290.199219 112.882813 315.882813 78.640625 Z M 294.675781 85.898438 C 294.675781 85.898438 291.1875 87.097656 289.859375 87.894531 C 290.164063 89.429688 290.628906 91.128906 291.078125 92.59375 C 291.078125 92.59375 287.089844 94.675781 285.347656 95.710938 C 285.699219 96.640625 285.832031 97.074219 285.96875 97.980469 C 282.878906 99.355469 279.164063 100.378906 275.535156 100.820313 C 275.328125 86.132813 269.394531 73.265625 261.078125 61.851563 C 262.246094 59.835938 264.734375 55.746094 264.734375 55.746094 C 265.53125 56.425781 266.730469 57.328125 267.644531 58.035156 L 270.515625 54.890625 C 270.515625 54.890625 274.113281 58.019531 275.792969 59.402344 L 278.59375 56.484375 C 284.039063 60.136719 294.804688 73.195313 297.703125 78.839844 C 296.113281 79.519531 294.003906 80.605469 292.441406 81.375 Z M 312.832031 78.660156 C 311.1875 80.9375 305.640625 85.738281 304.988281 86.269531 C 300.023438 73.527344 287.867188 57.277344 271.488281 45.925781 C 271.488281 45.925781 274.714844 41.671875 276.335938 39.84375 C 283 53.574219 299.300781 71.65625 312.832031 78.660156 Z M 264.097656 5.1875 C 264.140625 5.03125 264.28125 5.054688 264.332031 5.230469 C 267.289063 15.429688 270.777344 27.515625 274.382813 35.835938 C 273.566406 36.550781 259.902344 55.464844 258.089844 58.21875 C 257.125 57.222656 255.753906 55.621094 254.753906 54.660156 C 265.386719 41.683594 268.824219 29.789063 262.285156 10.921875 C 262.285156 10.921875 263.613281 6.90625 264.097656 5.1875 Z M 260.074219 17.820313 L 261 14.667969 C 266.042969 27.355469 262.316406 43.753906 253.230469 53.09375 C 252.585938 52.386719 251.867188 51.816406 251.195313 51.175781 C 257.539063 40 262.441406 29.847656 260.074219 17.820313 Z M 244.425781 48.59375 C 260.304688 60.0625 272.144531 84.863281 273.074219 101.148438 C 270.214844 101.78125 266.660156 101.613281 266.660156 101.613281 C 267.492188 85.113281 257.890625 64.851563 242.171875 51.796875 Z M 235.269531 60.523438 L 241.820313 62.679688 C 241.082031 65.421875 240.492188 68.222656 239.84375 70.964844 C 242.445313 71.742188 244.621094 72.46875 247.007813 73.265625 C 246.507813 75.714844 246.273438 78.308594 245.828125 80.785156 C 245.828125 80.785156 251.535156 81.820313 253.851563 82.644531 L 253.761719 82.644531 C 253.203125 85.324219 252.730469 89.753906 252.730469 89.753906 C 255.355469 90.222656 257.949219 90.695313 260.429688 91.402344 C 260.015625 94.589844 259.925781 98.066406 259.367188 101.28125 C 255.339844 100.988281 246.742188 98.773438 242.613281 96.710938 C 241.824219 90.566406 237.433594 76.871094 226.238281 69.765625 C 226.238281 69.765625 232.070313 64.714844 235.269531 60.523438 Z M 222.710938 73.089844 C 231.359375 78.019531 236.621094 86.164063 237.71875 94.527344 C 229.738281 90.988281 222.511719 84.789063 216.050781 78.617188 C 217.585938 77.359375 221.675781 73.796875 222.710938 73.089844 "/>
<path style=" stroke:none;fill-rule:nonzero;fill:rgb(0%,0%,0%);fill-opacity:1;" d="M 181.585938 259.546875 C 151.460938 239.425781 142.433594 219.449219 131.015625 183.929688 C 130.007813 180.796875 129.742188 180.808594 128.714844 183.835938 C 116.59375 219.488281 109.238281 234.5625 78.082031 259.578125 C 110.710938 293.871094 155.902344 293.789063 181.585938 259.546875 Z M 129.800781 186.09375 C 129.839844 185.941406 129.984375 185.960938 130.035156 186.136719 C 132.992188 196.339844 136.480469 208.421875 140.085938 216.742188 C 139.269531 217.457031 125.605469 236.371094 123.792969 239.128906 C 122.828125 238.128906 121.457031 236.53125 120.453125 235.570313 C 131.089844 222.59375 134.527344 210.695313 127.988281 191.828125 C 127.988281 191.828125 129.316406 187.8125 129.800781 186.09375 Z M 125.777344 198.730469 L 126.703125 195.574219 C 131.746094 208.261719 128.019531 224.660156 118.933594 234 C 118.285156 233.292969 117.570313 232.722656 116.898438 232.085938 C 123.242188 220.90625 128.144531 210.757813 125.777344 198.730469 Z M 81.753906 259.523438 C 83.289063 258.265625 87.378906 254.703125 88.410156 253.996094 C 97.0625 258.925781 102.324219 267.070313 103.421875 275.4375 C 95.441406 271.894531 88.214844 265.699219 81.753906 259.523438 Z M 125.070313 282.1875 C 121.039063 281.898438 112.445313 279.679688 108.316406 277.617188 C 107.527344 271.476563 103.136719 257.78125 91.941406 250.675781 C 91.941406 250.675781 97.773438 245.621094 100.976563 241.433594 L 107.519531 243.585938 C 106.785156 246.328125 106.195313 249.128906 105.546875 251.871094 C 108.148438 252.652344 110.324219 253.378906 112.710938 254.171875 C 112.210938 256.621094 111.976563 259.214844 111.53125 261.695313 C 111.53125 261.695313 117.238281 262.730469 119.554688 263.550781 L 119.464844 263.550781 C 118.90625 266.230469 118.433594 270.660156 118.433594 270.660156 C 121.058594 271.132813 123.652344 271.601563 126.132813 272.3125 C 125.71875 275.496094 125.628906 278.972656 125.070313 282.1875 Z M 132.363281 282.523438 C 133.195313 266.019531 123.59375 245.761719 107.875 232.703125 L 110.128906 229.5 C 126.007813 240.96875 137.847656 265.769531 138.777344 282.054688 C 135.917969 282.691406 132.363281 282.523438 132.363281 282.523438 Z M 160.378906 266.808594 C 160.378906 266.808594 156.890625 268.003906 155.5625 268.800781 C 155.867188 270.335938 156.332031 272.035156 156.78125 273.503906 C 156.78125 273.503906 152.789063 275.585938 151.050781 276.617188 C 151.402344 277.550781 151.535156 277.984375 151.671875 278.886719 C 148.582031 280.261719 144.867188 281.285156 141.238281 281.726563 C 141.03125 267.039063 135.097656 254.171875 126.78125 242.761719 C 127.949219 240.746094 130.4375 236.65625 130.4375 236.65625 C 131.234375 237.335938 132.429688 238.238281 133.34375 238.945313 L 136.21875 235.800781 C 136.21875 235.800781 139.816406 238.925781 141.496094 240.3125 L 144.296875 237.394531 C 149.742188 241.046875 160.507813 254.101563 163.40625 259.746094 C 161.816406 260.425781 159.707031 261.515625 158.144531 262.28125 Z M 137.191406 226.835938 C 137.191406 226.835938 140.414063 222.578125 142.039063 220.75 C 148.703125 234.480469 165.003906 252.5625 178.535156 259.566406 C 176.890625 261.847656 171.34375 266.648438 170.691406 267.179688 C 165.726563 254.433594 153.570313 238.1875 137.191406 226.835938 "/>
<path style=" stroke:none;fill-rule:nonzero;fill:rgb(0%,0%,0%);fill-opacity:1;" d="M 184.113281 255.628906 C 185.140625 258.652344 185.40625 258.667969 186.414063 255.53125 C 197.828125 220.015625 206.859375 200.035156 236.984375 179.914063 C 211.300781 145.675781 166.109375 145.59375 133.480469 179.882813 C 164.636719 204.898438 171.992188 219.972656 184.113281 255.628906 Z M 181.175781 240.734375 C 183.539063 228.707031 178.640625 218.558594 172.300781 207.378906 C 172.96875 206.742188 173.683594 206.171875 174.335938 205.464844 C 183.414063 214.804688 187.144531 231.203125 182.101563 243.890625 Z M 185.433594 253.324219 C 185.382813 253.503906 185.238281 253.523438 185.195313 253.371094 C 184.714844 251.648438 183.386719 247.636719 183.386719 247.636719 C 189.925781 228.769531 186.484375 216.871094 175.855469 203.894531 C 176.855469 202.933594 178.226563 201.335938 179.191406 200.335938 C 181.003906 203.09375 194.671875 222.007813 195.484375 222.722656 C 191.878906 231.042969 188.390625 243.125 185.433594 253.324219 Z M 233.933594 179.898438 C 220.402344 186.902344 204.101563 204.980469 197.4375 218.714844 C 195.8125 216.886719 192.589844 212.628906 192.589844 212.628906 C 208.96875 201.277344 221.125 185.03125 226.089844 172.285156 C 226.738281 172.816406 232.289063 177.617188 233.933594 179.898438 Z M 207.070313 160.578125 C 206.933594 161.480469 206.800781 161.914063 206.449219 162.847656 C 208.191406 163.878906 212.179688 165.960938 212.179688 165.960938 C 211.730469 167.429688 211.265625 169.128906 210.964844 170.664063 C 212.289063 171.460938 215.777344 172.65625 215.777344 172.65625 L 213.542969 177.183594 C 215.105469 177.949219 217.214844 179.039063 218.808594 179.71875 C 215.90625 185.363281 205.140625 198.421875 199.695313 202.070313 L 196.894531 199.152344 C 195.214844 200.539063 191.617188 203.664063 191.617188 203.664063 L 188.742188 200.519531 C 187.828125 201.226563 186.632813 202.132813 185.835938 202.808594 C 185.835938 202.808594 183.347656 198.71875 182.179688 196.703125 C 190.496094 185.289063 196.433594 172.421875 196.640625 157.734375 C 200.265625 158.179688 203.980469 159.203125 207.070313 160.578125 Z M 194.175781 157.410156 C 193.246094 173.691406 181.40625 198.496094 165.527344 209.964844 L 163.273438 206.761719 C 178.992188 193.703125 188.59375 173.445313 187.761719 156.941406 C 187.761719 156.941406 191.316406 156.773438 194.175781 157.410156 Z M 137.152344 179.9375 C 143.609375 173.765625 150.839844 167.570313 158.820313 164.027344 C 157.722656 172.394531 152.460938 180.539063 143.808594 185.46875 C 142.777344 184.761719 138.6875 181.199219 137.152344 179.9375 Z M 163.714844 161.84375 C 167.84375 159.785156 176.4375 157.566406 180.46875 157.273438 C 181.027344 160.488281 181.117188 163.96875 181.527344 167.152344 C 179.050781 167.859375 176.457031 168.332031 173.832031 168.804688 C 173.832031 168.804688 174.304688 173.230469 174.863281 175.910156 L 174.953125 175.910156 C 172.636719 176.734375 166.929688 177.769531 166.929688 177.769531 C 167.371094 180.246094 167.609375 182.84375 168.109375 185.289063 C 165.722656 186.085938 163.546875 186.8125 160.945313 187.589844 C 161.59375 190.335938 162.183594 193.136719 162.921875 195.878906 L 156.371094 198.03125 C 153.171875 193.84375 147.339844 188.789063 147.339844 188.789063 C 158.535156 181.683594 162.925781 167.988281 163.714844 161.84375 "/>
<path style=" stroke:none;fill-rule:nonzero;fill:rgb(0%,0%,0%);fill-opacity:1;" d="M 292.1875 260.085938 C 262.0625 239.960938 253.03125 219.984375 241.613281 184.46875 C 240.605469 181.332031 240.34375 181.347656 239.316406 184.371094 C 227.195313 220.027344 219.839844 235.101563 188.683594 260.117188 C 221.3125 294.40625 266.503906 294.324219 292.1875 260.085938 Z M 270.980469 267.34375 C 270.980469 267.34375 267.492188 268.539063 266.164063 269.335938 C 266.46875 270.871094 266.933594 272.570313 267.382813 274.039063 C 267.382813 274.039063 263.394531 276.121094 261.652344 277.152344 C 262.003906 278.085938 262.136719 278.519531 262.273438 279.421875 C 259.183594 280.796875 255.46875 281.820313 251.839844 282.265625 C 251.636719 267.578125 245.699219 254.710938 237.382813 243.296875 C 238.550781 241.28125 241.039063 237.191406 241.039063 237.191406 C 241.835938 237.867188 243.03125 238.773438 243.945313 239.480469 L 246.816406 236.335938 C 246.816406 236.335938 250.414063 239.460938 252.097656 240.847656 L 254.898438 237.929688 C 260.34375 241.578125 271.105469 254.636719 274.011719 260.28125 C 272.417969 260.960938 270.308594 262.050781 268.746094 262.816406 Z M 289.136719 260.101563 C 287.488281 262.382813 281.941406 267.183594 281.292969 267.714844 C 276.328125 254.96875 264.171875 238.722656 247.789063 227.371094 C 247.789063 227.371094 251.015625 223.113281 252.640625 221.285156 C 259.304688 235.019531 275.605469 253.097656 289.136719 260.101563 Z M 240.398438 186.628906 C 240.441406 186.476563 240.585938 186.496094 240.636719 186.675781 C 243.59375 196.875 247.082031 208.957031 250.6875 217.277344 C 249.871094 217.992188 236.207031 236.90625 234.394531 239.664063 C 233.429688 238.664063 232.058594 237.066406 231.058594 236.105469 C 241.6875 223.128906 245.128906 211.230469 238.589844 192.363281 C 238.589844 192.363281 239.917969 188.351563 240.398438 186.628906 Z M 236.378906 199.265625 L 237.304688 196.109375 C 242.347656 208.796875 238.617188 225.195313 229.535156 234.535156 C 228.886719 233.828125 228.171875 233.257813 227.5 232.621094 C 233.84375 221.441406 238.742188 211.292969 236.378906 199.265625 Z M 192.355469 260.0625 C 193.890625 258.800781 197.980469 255.238281 199.011719 254.53125 C 207.664063 259.460938 212.925781 267.605469 214.023438 275.972656 C 206.039063 272.429688 198.8125 266.234375 192.355469 260.0625 Z M 235.671875 282.726563 C 231.640625 282.433594 223.046875 280.214844 218.917969 278.15625 C 218.128906 272.011719 213.738281 258.316406 202.542969 251.210938 C 202.542969 251.210938 208.375 246.15625 211.574219 241.96875 L 218.121094 244.121094 C 217.386719 246.863281 216.796875 249.664063 216.148438 252.410156 C 218.75 253.1875 220.925781 253.910156 223.3125 254.710938 C 222.8125 257.15625 222.574219 259.753906 222.132813 262.230469 C 222.132813 262.230469 227.839844 263.265625 230.15625 264.085938 L 230.066406 264.085938 C 229.507813 266.769531 229.035156 271.195313 229.035156 271.195313 C 231.660156 271.667969 234.253906 272.140625 236.730469 272.847656 C 236.320313 276.03125 236.230469 279.511719 235.671875 282.726563 Z M 218.476563 233.238281 L 220.730469 230.035156 C 236.609375 241.503906 248.449219 266.308594 249.378906 282.589844 C 246.519531 283.226563 242.964844 283.058594 242.964844 283.058594 C 243.796875 266.554688 234.195313 246.296875 218.476563 233.238281 "/>
<path style=" stroke:none;fill-rule:nonzero;fill:rgb(0%,0%,0%);fill-opacity:1;" d="M 244.179688 180.28125 C 275.335938 205.300781 282.691406 220.371094 294.8125 256.027344 C 295.839844 259.054688 296.105469 259.066406 297.113281 255.933594 C 308.53125 220.414063 317.558594 200.4375 347.683594 180.316406 C 322 146.074219 276.808594 145.992188 244.179688 180.28125 Z M 247.851563 180.335938 C 254.3125 174.164063 261.539063 167.96875 269.519531 164.425781 C 268.421875 172.792969 263.160156 180.9375 254.507813 185.867188 C 253.476563 185.160156 249.386719 181.597656 247.851563 180.335938 Z M 267.070313 198.429688 C 263.871094 194.242188 258.039063 189.1875 258.039063 189.1875 C 269.234375 182.082031 273.625 168.386719 274.414063 162.242188 C 278.546875 160.183594 287.140625 157.964844 291.167969 157.675781 C 291.726563 160.890625 291.816406 164.367188 292.230469 167.550781 C 289.753906 168.261719 287.15625 168.730469 284.53125 169.203125 C 284.53125 169.203125 285.003906 173.632813 285.5625 176.3125 L 285.652344 176.3125 C 283.335938 177.132813 277.628906 178.171875 277.628906 178.171875 C 278.074219 180.644531 278.308594 183.242188 278.808594 185.6875 C 276.421875 186.484375 274.246094 187.210938 271.644531 187.988281 C 272.292969 190.734375 272.882813 193.535156 273.621094 196.277344 Z M 291.875 241.132813 C 294.242188 229.105469 289.339844 218.953125 282.996094 207.777344 C 283.667969 207.140625 284.382813 206.570313 285.03125 205.863281 C 294.117188 215.203125 297.84375 231.601563 292.800781 244.289063 Z M 296.132813 253.726563 C 296.082031 253.902344 295.9375 253.921875 295.894531 253.769531 C 295.414063 252.050781 294.085938 248.035156 294.085938 248.035156 C 300.625 229.167969 297.1875 217.269531 286.554688 204.292969 C 287.554688 203.332031 288.925781 201.734375 289.890625 200.734375 C 291.703125 203.492188 305.367188 222.40625 306.183594 223.121094 C 302.578125 231.441406 299.089844 243.523438 296.132813 253.726563 Z M 344.632813 180.296875 C 331.101563 187.300781 314.800781 205.382813 308.136719 219.113281 C 306.515625 217.285156 303.289063 213.027344 303.289063 213.027344 C 319.667969 201.675781 331.824219 185.429688 336.789063 172.683594 C 337.4375 173.214844 342.988281 178.019531 344.632813 180.296875 Z M 317.769531 160.976563 C 317.632813 161.878906 317.503906 162.3125 317.148438 163.246094 C 318.890625 164.277344 322.878906 166.359375 322.878906 166.359375 C 322.429688 167.828125 321.964844 169.527344 321.660156 171.0625 C 322.988281 171.859375 326.476563 173.054688 326.476563 173.054688 L 324.242188 177.582031 C 325.804688 178.347656 327.914063 179.4375 329.507813 180.117188 C 326.605469 185.761719 315.839844 198.816406 310.394531 202.472656 L 307.59375 199.550781 C 305.914063 200.9375 302.316406 204.0625 302.316406 204.0625 L 299.441406 200.917969 C 298.527344 201.625 297.332031 202.527344 296.535156 203.207031 C 296.535156 203.207031 294.046875 199.117188 292.878906 197.101563 C 301.195313 185.6875 307.132813 172.820313 307.339844 158.136719 C 310.964844 158.578125 314.679688 159.601563 317.769531 160.976563 Z M 304.875 157.808594 C 303.945313 174.09375 292.105469 198.894531 276.226563 210.363281 L 273.972656 207.160156 C 289.691406 194.101563 299.292969 173.84375 298.464844 157.339844 C 298.464844 157.339844 302.015625 157.171875 304.875 157.808594 "/>
<path style=" stroke:none;fill-rule:nonzero;fill:rgb(0%,0%,0%);fill-opacity:1;" d="M 352.3125 184.867188 C 351.308594 181.730469 351.042969 181.742188 350.015625 184.769531 C 337.894531 220.425781 330.539063 235.496094 299.382813 260.515625 C 332.011719 294.804688 377.203125 294.722656 402.886719 260.480469 C 372.761719 240.359375 363.730469 220.382813 352.3125 184.867188 Z M 351.097656 187.027344 C 351.140625 186.875 351.285156 186.894531 351.335938 187.074219 C 354.289063 197.273438 357.78125 209.355469 361.386719 217.675781 C 360.570313 218.390625 346.90625 237.304688 345.09375 240.0625 C 344.128906 239.0625 342.757813 237.464844 341.757813 236.503906 C 352.386719 223.527344 355.828125 211.632813 349.289063 192.761719 C 349.289063 192.761719 350.617188 188.746094 351.097656 187.027344 Z M 347.078125 199.664063 L 348.003906 196.507813 C 353.046875 209.195313 349.316406 225.597656 340.234375 234.9375 C 339.585938 234.226563 338.871094 233.65625 338.199219 233.019531 C 344.542969 221.84375 349.445313 211.691406 347.078125 199.664063 Z M 303.054688 260.460938 C 304.589844 259.199219 308.679688 255.640625 309.710938 254.929688 C 318.363281 259.859375 323.625 268.003906 324.722656 276.371094 C 316.738281 272.828125 309.511719 266.632813 303.054688 260.460938 Z M 346.371094 283.121094 C 342.339844 282.832031 333.746094 280.613281 329.617188 278.554688 C 328.828125 272.410156 324.4375 258.714844 313.242188 251.609375 C 313.242188 251.609375 319.074219 246.554688 322.273438 242.367188 L 328.820313 244.519531 C 328.085938 247.261719 327.496094 250.066406 326.847656 252.808594 C 329.449219 253.585938 331.625 254.3125 334.011719 255.109375 C 333.511719 257.554688 333.273438 260.152344 332.832031 262.628906 C 332.832031 262.628906 338.539063 263.664063 340.855469 264.484375 L 340.765625 264.484375 C 340.207031 267.164063 339.734375 271.59375 339.734375 271.59375 C 342.359375 272.066406 344.953125 272.535156 347.433594 273.246094 C 347.019531 276.429688 346.929688 279.910156 346.371094 283.121094 Z M 353.664063 283.457031 C 354.496094 266.953125 344.894531 246.695313 329.175781 233.636719 L 331.429688 230.433594 C 347.308594 241.902344 359.148438 266.707031 360.078125 282.988281 C 357.21875 283.625 353.664063 283.457031 353.664063 283.457031 Z M 381.679688 267.742188 C 381.679688 267.742188 378.191406 268.9375 376.863281 269.734375 C 377.167969 271.269531 377.632813 272.972656 378.082031 274.4375 C 378.082031 274.4375 374.09375 276.519531 372.351563 277.550781 C 372.703125 278.484375 372.835938 278.917969 372.972656 279.820313 C 369.882813 281.195313 366.167969 282.21875 362.539063 282.660156 C 362.335938 267.976563 356.398438 255.109375 348.078125 243.695313 C 349.25 241.679688 351.738281 237.589844 351.738281 237.589844 C 352.535156 238.269531 353.730469 239.171875 354.644531 239.878906 L 357.519531 236.734375 C 357.519531 236.734375 361.117188 239.859375 362.796875 241.246094 L 365.597656 238.328125 C 371.042969 241.980469 381.808594 255.035156 384.710938 260.683594 C 383.117188 261.359375 381.007813 262.449219 379.445313 263.214844 Z M 391.992188 268.113281 C 387.027344 255.367188 374.871094 239.121094 358.492188 227.769531 C 358.492188 227.769531 361.714844 223.511719 363.339844 221.683594 C 370.003906 235.417969 386.304688 253.496094 399.835938 260.503906 C 398.1875 262.78125 392.640625 267.582031 391.992188 268.113281 "/>
<path style=" stroke:none;fill-rule:nonzero;fill:rgb(0%,0%,0%);fill-opacity:1;" d="M 458.285156 180.851563 C 432.601563 146.609375 387.410156 146.527344 354.78125 180.820313 C 385.9375 205.835938 393.292969 220.90625 405.414063 256.5625 C 406.441406 259.589844 406.703125 259.601563 407.714844 256.46875 C 419.132813 220.949219 428.160156 200.972656 458.285156 180.851563 Z M 428.371094 161.511719 C 428.234375 162.414063 428.101563 162.851563 427.75 163.78125 C 429.492188 164.8125 433.480469 166.894531 433.480469 166.894531 C 433.03125 168.363281 432.566406 170.0625 432.261719 171.597656 C 433.589844 172.394531 437.078125 173.59375 437.078125 173.59375 L 434.84375 178.117188 C 436.40625 178.882813 438.515625 179.972656 440.109375 180.652344 C 437.203125 186.296875 426.441406 199.355469 420.996094 203.007813 L 418.195313 200.085938 C 416.515625 201.472656 412.914063 204.597656 412.914063 204.597656 L 410.046875 201.453125 C 409.128906 202.160156 407.933594 203.066406 407.136719 203.742188 C 407.136719 203.742188 404.648438 199.652344 403.480469 197.640625 C 411.796875 186.226563 417.734375 173.359375 417.9375 158.671875 C 421.566406 159.113281 425.28125 160.136719 428.371094 161.511719 Z M 358.453125 180.871094 C 364.910156 174.699219 372.140625 168.503906 380.121094 164.960938 C 379.023438 173.328125 373.761719 181.472656 365.109375 186.402344 C 364.078125 185.695313 359.988281 182.132813 358.453125 180.871094 Z M 377.675781 198.964844 C 374.472656 194.777344 368.640625 189.722656 368.640625 189.722656 C 379.835938 182.617188 384.226563 168.921875 385.015625 162.777344 C 389.144531 160.71875 397.738281 158.503906 401.769531 158.210938 C 402.328125 161.425781 402.417969 164.902344 402.828125 168.089844 C 400.351563 168.796875 397.757813 169.269531 395.132813 169.738281 C 395.132813 169.738281 395.605469 174.164063 396.164063 176.847656 L 396.253906 176.847656 C 393.9375 177.671875 388.230469 178.703125 388.230469 178.703125 C 388.675781 181.183594 388.910156 183.777344 389.410156 186.226563 C 387.023438 187.019531 384.847656 187.746094 382.246094 188.527344 C 382.894531 191.269531 383.484375 194.070313 384.222656 196.8125 Z M 386.828125 210.898438 L 384.574219 207.695313 C 400.292969 194.640625 409.894531 174.378906 409.0625 157.878906 C 409.0625 157.878906 412.617188 157.707031 415.476563 158.34375 C 414.546875 174.628906 402.707031 199.429688 386.828125 210.898438 Z M 402.476563 241.671875 C 404.84375 229.640625 399.941406 219.492188 393.597656 208.316406 C 394.269531 207.675781 394.984375 207.105469 395.632813 206.398438 C 404.71875 215.738281 408.445313 232.136719 403.402344 244.824219 Z M 406.734375 254.261719 C 406.683594 254.4375 406.539063 254.457031 406.496094 254.304688 C 406.015625 252.585938 404.6875 248.570313 404.6875 248.570313 C 411.226563 229.703125 407.785156 217.808594 397.152344 204.828125 C 398.15625 203.867188 399.527344 202.269531 400.492188 201.269531 C 402.304688 204.027344 415.96875 222.941406 416.785156 223.65625 C 413.179688 231.976563 409.691406 244.058594 406.734375 254.261719 Z M 418.738281 219.648438 C 417.113281 217.820313 413.890625 213.5625 413.890625 213.5625 C 430.269531 202.214844 442.425781 185.964844 447.390625 173.21875 C 448.039063 173.75 453.589844 178.554688 455.234375 180.832031 C 441.699219 187.835938 425.402344 205.914063 418.738281 219.648438 "/>
<path style=" stroke:none;fill-rule:nonzero;fill:rgb(0%,0%,0%);fill-opacity:1;" d="M 513.484375 261.019531 C 483.363281 240.898438 474.335938 220.917969 462.914063 185.402344 C 461.90625 182.265625 461.644531 182.28125 460.617188 185.304688 C 448.496094 220.960938 441.140625 236.035156 409.984375 261.050781 C 442.609375 295.339844 487.804688 295.261719 513.484375 261.019531 Z M 492.28125 268.277344 C 492.28125 268.277344 488.792969 269.476563 487.464844 270.269531 C 487.769531 271.808594 488.234375 273.507813 488.683594 274.972656 C 488.683594 274.972656 484.691406 277.054688 482.953125 278.085938 C 483.304688 279.019531 483.4375 279.453125 483.574219 280.359375 C 480.484375 281.734375 476.769531 282.757813 473.140625 283.199219 C 472.9375 268.511719 466.996094 255.644531 458.683594 244.230469 C 459.851563 242.214844 462.339844 238.125 462.339844 238.125 C 463.136719 238.804688 464.332031 239.707031 465.246094 240.414063 L 468.117188 237.269531 C 468.117188 237.269531 471.71875 240.394531 473.398438 241.78125 L 476.199219 238.863281 C 481.644531 242.515625 492.40625 255.574219 495.3125 261.21875 C 493.71875 261.894531 491.609375 262.984375 490.046875 263.753906 Z M 510.4375 261.035156 C 508.789063 263.316406 503.242188 268.117188 502.59375 268.648438 C 497.628906 255.902344 485.472656 239.65625 469.09375 228.304688 C 469.09375 228.304688 472.316406 224.050781 473.941406 222.21875 C 480.605469 235.953125 496.902344 254.035156 510.4375 261.035156 Z M 461.699219 187.5625 C 461.742188 187.410156 461.886719 187.429688 461.9375 187.609375 C 464.894531 197.808594 468.382813 209.890625 471.988281 218.210938 C 471.171875 218.929688 457.507813 237.84375 455.695313 240.597656 C 454.730469 239.601563 453.359375 238.003906 452.355469 237.039063 C 462.988281 224.0625 466.429688 212.164063 459.890625 193.296875 C 459.890625 193.296875 461.21875 189.285156 461.699219 187.5625 Z M 457.679688 200.199219 L 458.605469 197.046875 C 463.648438 209.730469 459.921875 226.132813 450.835938 235.472656 C 450.1875 234.765625 449.472656 234.195313 448.800781 233.554688 C 455.144531 222.378906 460.046875 212.226563 457.679688 200.199219 Z M 413.65625 260.996094 C 415.191406 259.734375 419.28125 256.175781 420.3125 255.46875 C 428.964844 260.394531 434.226563 268.539063 435.324219 276.90625 C 427.34375 273.367188 420.113281 267.167969 413.65625 260.996094 Z M 456.972656 283.660156 C 452.941406 283.367188 444.347656 281.152344 440.21875 279.089844 C 439.429688 272.945313 435.039063 259.253906 423.84375 252.144531 C 423.84375 252.144531 429.675781 247.09375 432.878906 242.902344 L 439.421875 245.054688 C 438.6875 247.800781 438.097656 250.601563 437.449219 253.34375 C 440.050781 254.121094 442.226563 254.847656 444.613281 255.644531 C 444.113281 258.089844 443.878906 260.6875 443.433594 263.164063 C 443.433594 263.164063 449.140625 264.199219 451.457031 265.023438 L 451.367188 265.023438 C 450.808594 267.703125 450.335938 272.128906 450.335938 272.128906 C 452.960938 272.601563 455.554688 273.074219 458.03125 273.78125 C 457.621094 276.964844 457.53125 280.445313 456.972656 283.660156 Z M 439.777344 234.175781 L 442.03125 230.96875 C 457.910156 242.4375 469.75 267.242188 470.679688 283.527344 C 467.820313 284.160156 464.265625 283.992188 464.265625 283.992188 C 465.097656 267.488281 455.496094 247.230469 439.777344 234.175781 "/>
<path style=" stroke:none;fill-rule:nonzero;fill:rgb(0%,0%,0%);fill-opacity:1;" d="M 442.390625 385.214844 C 440.109375 382.839844 439.878906 382.96875 440.28125 386.136719 C 445.054688 423.492188 445.066406 440.265625 428.0625 476.421875 C 472.4375 492.902344 513.003906 472.976563 521.035156 430.9375 C 485.132813 426.089844 468.25 412.109375 442.390625 385.214844 Z M 431.339844 474.761719 C 432.164063 472.957031 434.273438 467.960938 434.890625 466.871094 C 444.828125 467.5 453.132813 472.507813 457.792969 479.539063 C 449.066406 479.863281 439.851563 477.472656 431.339844 474.761719 Z M 463.148438 479.351563 C 459.742188 474.179688 449.78125 463.804688 436.605469 462.335938 C 436.605469 462.335938 439.625 455.234375 440.660156 450.066406 L 447.488281 449.125 C 448.027344 451.914063 448.730469 454.6875 449.351563 457.4375 C 452.03125 456.992188 454.304688 456.691406 456.800781 456.355469 C 457.425781 458.777344 458.351563 461.210938 459.042969 463.632813 C 459.042969 463.632813 464.621094 462.054688 467.066406 461.777344 L 466.984375 461.816406 C 467.660156 464.46875 469.179688 468.65625 469.179688 468.65625 C 471.746094 467.925781 474.285156 467.210938 476.820313 466.757813 C 477.847656 469.800781 479.296875 472.964844 480.203125 476.097656 C 476.460938 477.605469 467.765625 479.390625 463.148438 479.351563 Z M 486.90625 473.195313 C 480.40625 458.003906 462.882813 444.019531 443.023438 439.191406 L 443.640625 435.324219 C 462.945313 438.652344 484.476563 455.738281 492.464844 469.957031 C 490.175781 471.785156 486.90625 473.195313 486.90625 473.195313 Z M 444.1875 400.808594 L 443.632813 397.566406 C 453.734375 406.75 457.589844 423.121094 453.53125 435.503906 C 452.636719 435.148438 451.742188 434.953125 450.859375 434.671875 C 451.652344 421.847656 451.59375 410.574219 444.1875 400.808594 Z M 468.464844 413.449219 C 480.484375 422.859375 503.070313 431.945313 518.304688 432.292969 C 517.824219 435.0625 514.949219 441.816406 514.601563 442.578125 C 504.542969 433.308594 486.484375 424.050781 466.785156 421.046875 C 466.785156 421.046875 467.8125 415.804688 468.464844 413.449219 Z M 468.648438 433.613281 L 469.847656 429.527344 C 469.847656 429.527344 474.453125 430.753906 476.570313 431.261719 L 477.804688 427.410156 C 484.300781 428.300781 499.707031 435.304688 504.792969 439.097656 C 503.660156 440.40625 502.242188 442.3125 501.175781 443.6875 L 505.171875 446.773438 C 505.171875 446.773438 502.5625 449.378906 501.722656 450.679688 C 502.671875 451.921875 503.832031 453.246094 504.882813 454.367188 C 504.882813 454.367188 502.210938 457.988281 501.101563 459.679688 C 501.828125 460.363281 502.136719 460.699219 502.652344 461.449219 C 500.484375 464.042969 497.59375 466.59375 494.53125 468.582031 C 487.894531 455.476563 476.910156 446.527344 464.425781 439.925781 C 464.589844 437.601563 465.03125 432.835938 465.03125 432.835938 C 466.042969 433.09375 467.515625 433.378906 468.648438 433.613281 Z M 464.953125 410.707031 C 464.535156 411.707031 460.566406 434.699219 460.144531 437.972656 C 458.84375 437.5 456.90625 436.667969 455.585938 436.242188 C 459.4375 419.914063 457.300781 407.71875 443.144531 393.636719 C 443.144531 393.636719 442.570313 389.449219 442.25 387.691406 C 442.222656 387.535156 442.355469 387.488281 442.480469 387.628906 C 449.617188 395.492188 458.058594 404.8125 464.953125 410.707031 "/>
<path style=" stroke:none;fill-rule:nonzero;fill:rgb(0%,0%,0%);fill-opacity:1;" d="M 439.949219 381.203125 C 478.929688 389.992188 492.15625 400.304688 518.703125 427.015625 C 520.957031 429.28125 521.199219 429.179688 520.730469 425.917969 C 515.386719 388.996094 514.726563 367.082031 532.949219 335.773438 C 494.839844 316.292969 454.203125 336.066406 439.949219 381.203125 Z M 497.582031 331.539063 C 497.855469 332.410156 497.929688 332.859375 498.023438 333.851563 C 500.039063 334.015625 504.539063 334.132813 504.539063 334.132813 C 504.777344 335.644531 505.109375 337.378906 505.511719 338.890625 C 507.050781 339.023438 510.710938 338.566406 510.710938 338.566406 L 510.691406 343.613281 C 512.433594 343.617188 514.804688 343.667969 516.535156 343.578125 C 516.40625 349.925781 512.46875 366.382813 509.183594 372.054688 L 505.382813 370.660156 C 504.480469 372.644531 502.621094 377.035156 502.621094 377.035156 L 498.660156 375.472656 C 498.152344 376.507813 497.472656 377.847656 497.054688 378.804688 C 497.054688 378.804688 493.023438 376.222656 491.089844 374.925781 C 493.546875 361.019531 493.230469 346.851563 486.964844 333.566406 C 490.417969 332.371094 494.203125 331.660156 497.582031 331.539063 Z M 443.273438 379.640625 C 446.363281 371.257813 450.136719 362.515625 455.753906 355.828125 C 458.441406 363.828125 457.289063 373.453125 451.683594 381.683594 C 450.445313 381.5 445.203125 380.097656 443.273438 379.640625 Z M 475.386719 359.460938 L 475.464844 359.421875 C 473.746094 361.179688 469.074219 364.613281 469.074219 364.613281 C 470.558594 366.644531 471.910156 368.871094 473.4375 370.851563 C 471.640625 372.617188 470.007813 374.222656 468.007813 376.066406 C 469.796875 378.246094 471.558594 380.503906 473.425781 382.644531 L 468.488281 387.453125 C 463.773438 385.09375 456.3125 383.117188 456.3125 383.117188 C 463.25 371.816406 461.179688 357.585938 459.191406 351.71875 C 461.996094 348.054688 468.742188 342.285156 472.234375 340.257813 C 474.148438 342.898438 475.757813 345.984375 477.527344 348.664063 C 475.609375 350.386719 473.488281 351.949219 471.335938 353.527344 C 471.335938 353.527344 473.703125 357.296875 475.386719 359.460938 Z M 478.519531 392.265625 C 486.910156 373.632813 486.636719 351.214844 478.640625 336.753906 C 478.640625 336.753906 481.761719 335.039063 484.609375 334.355469 C 490.925781 349.390625 491.179688 376.875 481.953125 394.152344 Z M 509.523438 414.925781 C 506.367188 403.078125 497.507813 396.113281 486.902344 388.855469 C 487.222656 387.988281 487.613281 387.160156 487.886719 386.242188 C 500.148438 390.644531 510.699219 403.738281 511.742188 417.351563 Z M 518.878906 424.367188 C 518.910156 424.546875 518.792969 424.628906 518.6875 424.511719 C 517.496094 423.175781 514.542969 420.152344 514.542969 420.152344 C 512.128906 400.328125 503.816406 391.152344 488.5625 384.164063 C 489.039063 382.859375 489.570313 380.820313 490 379.503906 C 492.839844 381.179688 513.421875 392.171875 514.46875 392.457031 C 514.886719 401.515625 517.054688 413.902344 518.878906 424.367188 Z M 514.464844 388 C 512.203125 387.070313 507.433594 384.660156 507.433594 384.660156 C 517.164063 367.269531 520.949219 347.335938 519.8125 333.703125 C 520.628906 333.894531 527.722656 335.773438 530.203125 337.097656 C 521.121094 349.332031 514.417969 372.734375 514.464844 388 "/>
<path style=" stroke:none;fill-rule:nonzero;fill:rgb(0%,0%,0%);fill-opacity:1;" d="M 93.230469 386.136719 C 93.636719 382.96875 93.40625 382.839844 91.121094 385.214844 C 65.265625 412.109375 48.378906 426.089844 12.480469 430.9375 C 20.511719 472.976563 61.078125 492.902344 105.449219 476.421875 C 88.445313 440.265625 88.460938 423.492188 93.230469 386.136719 Z M 91.03125 387.628906 C 91.15625 387.488281 91.292969 387.535156 91.265625 387.691406 C 90.941406 389.449219 90.371094 393.636719 90.371094 393.636719 C 76.210938 407.71875 74.074219 419.914063 77.929688 436.242188 C 76.605469 436.667969 74.671875 437.5 73.367188 437.972656 C 72.949219 434.699219 68.980469 411.707031 68.5625 410.707031 C 75.453125 404.8125 83.894531 395.492188 91.03125 387.628906 Z M 82.652344 434.671875 C 81.773438 434.953125 80.878906 435.148438 79.984375 435.503906 C 75.925781 423.121094 79.777344 406.75 89.882813 397.566406 L 89.328125 400.808594 C 81.917969 410.574219 81.863281 421.847656 82.652344 434.671875 Z M 15.210938 432.292969 C 30.445313 431.945313 53.03125 422.859375 65.046875 413.449219 C 65.703125 415.804688 66.730469 421.046875 66.730469 421.046875 C 47.03125 424.050781 28.972656 433.308594 18.914063 442.578125 C 18.5625 441.816406 15.6875 435.0625 15.210938 432.292969 Z M 30.859375 461.449219 C 31.378906 460.699219 31.6875 460.363281 32.414063 459.679688 C 31.304688 457.988281 28.632813 454.367188 28.632813 454.367188 C 29.679688 453.246094 30.84375 451.921875 31.792969 450.679688 C 30.949219 449.378906 28.34375 446.773438 28.34375 446.773438 L 32.335938 443.6875 C 31.269531 442.3125 29.855469 440.40625 28.722656 439.097656 C 33.808594 435.304688 49.214844 428.300781 55.707031 427.410156 L 56.941406 431.261719 C 59.0625 430.753906 63.667969 429.527344 63.667969 429.527344 L 64.867188 433.613281 C 65.996094 433.378906 67.472656 433.09375 68.484375 432.835938 C 68.484375 432.835938 68.921875 437.601563 69.089844 439.925781 C 56.605469 446.527344 45.617188 455.476563 38.984375 468.582031 C 35.917969 466.59375 33.03125 464.042969 30.859375 461.449219 Z M 41.050781 469.957031 C 49.039063 455.738281 70.570313 438.652344 89.871094 435.324219 L 90.488281 439.191406 C 70.632813 444.019531 53.109375 458.003906 46.609375 473.195313 C 46.609375 473.195313 43.339844 471.785156 41.050781 469.957031 Z M 102.175781 474.761719 C 93.660156 477.472656 84.449219 479.863281 75.722656 479.539063 C 80.382813 472.507813 88.683594 467.5 98.625 466.871094 C 99.238281 467.960938 101.351563 472.957031 102.175781 474.761719 Z M 92.855469 450.066406 C 93.890625 455.234375 96.910156 462.335938 96.910156 462.335938 C 83.730469 463.804688 73.773438 474.179688 70.363281 479.351563 C 65.75 479.390625 57.054688 477.605469 53.308594 476.097656 C 54.21875 472.964844 55.664063 469.800781 56.691406 466.757813 C 59.230469 467.210938 61.769531 467.925781 64.332031 468.65625 C 64.332031 468.65625 65.855469 464.46875 66.527344 461.816406 L 66.449219 461.777344 C 68.890625 462.054688 74.472656 463.632813 74.472656 463.632813 C 75.160156 461.210938 76.089844 458.777344 76.714844 456.355469 C 79.210938 456.691406 81.484375 456.992188 84.164063 457.4375 C 84.785156 454.6875 85.484375 451.914063 86.027344 449.125 L 92.855469 450.066406 "/>
<path style=" stroke:none;fill-rule:nonzero;fill:rgb(0%,0%,0%);fill-opacity:1;" d="M 12.785156 425.917969 C 12.3125 429.179688 12.554688 429.28125 14.808594 427.015625 C 41.359375 400.304688 54.585938 389.992188 93.5625 381.203125 C 79.3125 336.066406 38.671875 316.292969 0.5625 335.773438 C 18.789063 367.082031 18.125 388.996094 12.785156 425.917969 Z M 14.828125 424.511719 C 14.71875 424.628906 14.601563 424.546875 14.632813 424.367188 C 16.457031 413.902344 18.628906 401.515625 19.046875 392.457031 C 20.089844 392.171875 40.675781 381.179688 43.515625 379.503906 C 43.941406 380.820313 44.472656 382.859375 44.949219 384.164063 C 29.699219 391.152344 21.386719 400.328125 18.972656 420.152344 C 18.972656 420.152344 16.015625 423.175781 14.828125 424.511719 Z M 23.988281 414.925781 L 21.773438 417.351563 C 22.8125 403.738281 33.363281 390.644531 45.628906 386.242188 C 45.898438 387.160156 46.292969 387.988281 46.613281 388.855469 C 36.007813 396.113281 27.144531 403.078125 23.988281 414.925781 Z M 77.761719 355.828125 C 83.378906 362.515625 87.148438 371.257813 90.242188 379.640625 C 88.308594 380.097656 83.070313 381.5 81.832031 381.683594 C 76.222656 373.453125 75.074219 363.828125 77.761719 355.828125 Z M 61.28125 340.257813 C 64.769531 342.285156 71.519531 348.054688 74.324219 351.71875 C 72.335938 357.585938 70.261719 371.816406 77.199219 383.117188 C 77.199219 383.117188 69.742188 385.09375 65.027344 387.453125 L 60.089844 382.644531 C 61.957031 380.503906 63.71875 378.246094 65.503906 376.066406 C 63.507813 374.222656 61.875 372.617188 60.078125 370.851563 C 61.601563 368.871094 62.953125 366.644531 64.441406 364.613281 C 64.441406 364.613281 59.769531 361.179688 58.050781 359.421875 L 58.128906 359.460938 C 59.808594 357.296875 62.175781 353.527344 62.175781 353.527344 C 60.027344 351.949219 57.902344 350.386719 55.988281 348.664063 C 57.757813 345.984375 59.363281 342.898438 61.28125 340.257813 Z M 54.871094 336.753906 C 46.878906 351.214844 46.605469 373.632813 54.992188 392.265625 L 51.5625 394.152344 C 42.332031 376.875 42.589844 349.390625 48.90625 334.355469 C 51.753906 335.039063 54.871094 336.753906 54.871094 336.753906 Z M 22.824219 343.613281 L 22.800781 338.566406 C 22.800781 338.566406 26.460938 339.023438 28.003906 338.890625 C 28.40625 337.378906 28.734375 335.644531 28.972656 334.132813 C 28.972656 334.132813 33.472656 334.015625 35.492188 333.851563 C 35.582031 332.859375 35.65625 332.410156 35.929688 331.539063 C 39.308594 331.660156 43.097656 332.371094 46.550781 333.566406 C 40.285156 346.851563 39.96875 361.019531 42.425781 374.925781 C 40.492188 376.222656 36.460938 378.804688 36.460938 378.804688 C 36.042969 377.847656 35.363281 376.507813 34.851563 375.472656 L 30.890625 377.035156 C 30.890625 377.035156 29.03125 372.644531 28.128906 370.660156 L 24.332031 372.054688 C 21.042969 366.382813 17.109375 349.925781 16.980469 343.578125 C 18.707031 343.667969 21.082031 343.617188 22.824219 343.613281 Z M 3.3125 337.097656 C 5.792969 335.773438 12.882813 333.894531 13.699219 333.703125 C 12.5625 347.335938 16.351563 367.269531 26.078125 384.660156 C 26.078125 384.660156 21.3125 387.070313 19.050781 388 C 19.09375 372.734375 12.394531 349.332031 3.3125 337.097656 "/>
<path style=" stroke:none;fill-rule:nonzero;fill:rgb(0%,0%,0%);fill-opacity:1;" d="M 264.929688 439.597656 C 263.921875 436.464844 263.660156 436.476563 262.628906 439.5 C 250.507813 475.15625 243.15625 490.230469 212 515.246094 C 244.625 549.539063 289.820313 549.457031 315.5 515.214844 C 285.378906 495.09375 276.347656 475.117188 264.929688 439.597656 Z M 263.714844 441.761719 C 263.757813 441.605469 263.898438 441.628906 263.949219 441.804688 C 266.90625 452.007813 270.398438 464.089844 274.003906 472.410156 C 273.1875 473.125 259.523438 492.039063 257.710938 494.792969 C 256.746094 493.796875 255.371094 492.199219 254.371094 491.234375 C 265.003906 478.257813 268.441406 466.363281 261.90625 447.496094 C 261.90625 447.496094 263.234375 443.480469 263.714844 441.761719 Z M 259.691406 454.394531 L 260.617188 451.242188 C 265.664063 463.929688 261.933594 480.328125 252.851563 489.667969 C 252.203125 488.960938 251.484375 488.390625 250.816406 487.75 C 257.160156 476.574219 262.058594 466.421875 259.691406 454.394531 Z M 215.671875 515.191406 C 217.203125 513.933594 221.296875 510.371094 222.328125 509.664063 C 230.980469 514.59375 236.242188 522.738281 237.339844 531.105469 C 229.355469 527.5625 222.128906 521.363281 215.671875 515.191406 Z M 258.984375 537.855469 C 254.957031 537.5625 246.363281 535.347656 242.234375 533.285156 C 241.445313 527.140625 237.054688 513.449219 225.859375 506.339844 C 225.859375 506.339844 231.691406 501.289063 234.890625 497.097656 L 241.4375 499.253906 C 240.699219 501.996094 240.109375 504.796875 239.464844 507.539063 C 242.066406 508.316406 244.238281 509.042969 246.628906 509.839844 C 246.128906 512.289063 245.890625 514.882813 245.449219 517.359375 C 245.449219 517.359375 251.152344 518.394531 253.472656 519.21875 L 253.382813 519.21875 C 252.820313 521.898438 252.351563 526.324219 252.351563 526.324219 C 254.976563 526.796875 257.570313 527.269531 260.046875 527.976563 C 259.636719 531.164063 259.546875 534.640625 258.984375 537.855469 Z M 266.28125 538.1875 C 267.113281 521.6875 257.511719 501.425781 241.792969 488.371094 L 244.046875 485.167969 C 259.925781 496.636719 271.765625 521.4375 272.695313 537.722656 C 269.835938 538.359375 266.28125 538.1875 266.28125 538.1875 Z M 294.296875 522.472656 C 294.296875 522.472656 290.808594 523.671875 289.480469 524.46875 C 289.785156 526.003906 290.246094 527.703125 290.699219 529.167969 C 290.699219 529.167969 286.707031 531.25 284.96875 532.28125 C 285.320313 533.214844 285.449219 533.652344 285.589844 534.554688 C 282.496094 535.929688 278.785156 536.953125 275.15625 537.394531 C 274.949219 522.707031 269.011719 509.839844 260.695313 498.425781 C 261.863281 496.410156 264.355469 492.320313 264.355469 492.320313 C 265.148438 493 266.347656 493.902344 267.261719 494.609375 L 270.132813 491.46875 C 270.132813 491.46875 273.730469 494.59375 275.414063 495.980469 L 278.214844 493.058594 C 283.660156 496.710938 294.421875 509.769531 297.324219 515.414063 C 295.730469 516.09375 293.621094 517.179688 292.058594 517.949219 Z M 304.609375 522.84375 C 299.644531 510.101563 287.484375 493.851563 271.105469 482.5 C 271.105469 482.5 274.332031 478.246094 275.953125 476.417969 C 282.617188 490.148438 298.917969 508.230469 312.449219 515.234375 C 310.804688 517.511719 305.257813 522.316406 304.609375 522.84375 "/>
<path style=" stroke:none;fill-rule:nonzero;fill:rgb(0%,0%,0%);fill-opacity:1;" d="M 249.851563 430.652344 C 213.382813 438.523438 191.566406 440.691406 159.078125 424.664063 C 142.265625 464.027344 164.789063 503.207031 210.800781 514.316406 C 216.886719 474.828125 226.265625 460.921875 251.085938 432.597656 C 253.1875 430.195313 253.070313 429.960938 249.851563 430.652344 Z M 160.589844 427.316406 C 173.421875 435.53125 197.226563 440.609375 212.453125 439.515625 C 211.679688 441.835938 209.605469 446.753906 209.605469 446.753906 C 191.585938 438.246094 171.4375 435.839844 157.914063 437.910156 C 158.050781 437.085938 159.4375 429.878906 160.589844 427.316406 Z M 157.289063 460.238281 C 158.136719 459.90625 158.578125 459.800781 159.5625 459.640625 C 159.589844 457.617188 159.394531 453.121094 159.394531 453.121094 C 160.890625 452.777344 162.59375 452.332031 164.074219 451.828125 C 164.101563 450.277344 163.394531 446.660156 163.394531 446.660156 L 168.433594 446.332031 C 168.3125 444.59375 168.203125 442.222656 167.996094 440.503906 C 174.335938 440.195313 191.023438 442.988281 196.910156 445.878906 L 195.78125 449.765625 C 197.824219 450.527344 202.328125 452.082031 202.328125 452.082031 L 201.039063 456.140625 C 202.109375 456.578125 203.492188 457.164063 204.480469 457.515625 C 204.480469 457.515625 202.179688 461.714844 201.019531 463.734375 C 186.976563 462.238281 172.863281 463.53125 160.042969 470.695313 C 158.613281 467.332031 157.640625 463.601563 157.289063 460.238281 Z M 209.011719 511.109375 C 200.4375 508.601563 191.457031 505.441406 184.398438 500.300781 C 192.191406 497.066406 201.878906 497.550781 210.472656 502.582031 C 210.375 503.828125 209.335938 509.152344 209.011719 511.109375 Z M 211.585938 497.859375 C 199.832031 491.71875 185.777344 494.765625 180.0625 497.152344 C 176.210938 494.605469 169.996094 488.273438 167.730469 484.929688 C 170.230469 482.835938 173.199219 481.019531 175.753906 479.070313 C 177.605469 480.863281 179.3125 482.875 181.03125 484.910156 C 181.03125 484.910156 184.628906 482.289063 186.671875 480.464844 L 186.625 480.386719 C 188.496094 481.980469 192.246094 486.40625 192.246094 486.40625 C 194.171875 484.78125 196.300781 483.28125 198.167969 481.621094 C 200.054688 483.292969 201.769531 484.8125 203.746094 486.679688 C 205.796875 484.746094 207.925781 482.835938 209.933594 480.824219 L 215.070313 485.417969 C 213.042969 490.285156 211.585938 497.859375 211.585938 497.859375 Z M 219.179688 475.078125 C 200.015625 467.992188 177.667969 469.808594 163.792969 478.777344 C 163.792969 478.777344 161.867188 475.785156 160.988281 472.992188 C 175.558594 465.652344 202.957031 463.507813 220.828125 471.523438 Z M 239.652344 442.585938 C 228.054688 446.550781 221.714844 455.871094 215.203125 466.953125 C 214.316406 466.691406 213.464844 466.355469 212.527344 466.148438 C 216.074219 453.613281 228.414063 442.183594 241.921875 440.210938 Z M 248.585938 432.785156 C 247.335938 434.0625 244.523438 437.222656 244.523438 437.222656 C 224.914063 440.992188 216.332031 449.917969 210.410156 465.613281 C 209.074219 465.230469 207.003906 464.839844 205.660156 464.503906 C 207.140625 461.554688 216.6875 440.265625 216.898438 439.203125 C 225.90625 438.160156 238.117188 435.144531 248.429688 432.605469 C 248.609375 432.5625 248.695313 432.671875 248.585938 432.785156 "/>
<path style=" stroke:none;fill-rule:nonzero;fill:rgb(0%,0%,0%);fill-opacity:1;" d="M 277.472656 430.484375 C 274.253906 429.792969 274.132813 430.027344 276.238281 432.429688 C 301.058594 460.753906 310.4375 474.660156 316.523438 514.148438 C 362.53125 503.039063 385.058594 463.859375 368.242188 424.496094 C 335.757813 440.527344 313.941406 438.355469 277.472656 430.484375 Z M 278.738281 432.621094 C 278.628906 432.507813 278.714844 432.394531 278.894531 432.4375 C 289.207031 434.976563 301.414063 437.996094 310.425781 439.035156 C 310.636719 440.097656 320.183594 461.386719 321.664063 464.339844 C 320.316406 464.671875 318.246094 465.0625 316.914063 465.449219 C 310.992188 449.753906 302.410156 440.828125 282.800781 437.054688 C 282.800781 437.054688 279.988281 433.898438 278.738281 432.621094 Z M 287.671875 442.421875 L 285.402344 440.042969 C 298.910156 442.015625 311.25 453.445313 314.796875 465.980469 C 313.859375 466.191406 313.007813 466.527344 312.117188 466.785156 C 305.609375 455.703125 299.269531 446.386719 287.671875 442.421875 Z M 318.3125 510.945313 C 317.988281 508.984375 316.949219 503.660156 316.851563 502.414063 C 325.445313 497.386719 335.128906 496.902344 342.925781 500.132813 C 335.867188 505.277344 326.886719 508.4375 318.3125 510.945313 Z M 347.261719 496.984375 C 341.546875 494.597656 327.492188 491.550781 315.738281 497.695313 C 315.738281 497.695313 314.28125 490.117188 312.253906 485.25 L 317.390625 480.65625 C 319.398438 482.667969 321.527344 484.578125 323.578125 486.511719 C 325.554688 484.648438 327.269531 483.128906 329.15625 481.457031 C 331.023438 483.113281 333.152344 484.617188 335.078125 486.238281 C 335.078125 486.238281 338.828125 481.816406 340.699219 480.21875 L 340.652344 480.296875 C 342.695313 482.121094 346.292969 484.742188 346.292969 484.742188 C 348.015625 482.707031 349.71875 480.695313 351.570313 478.902344 C 354.121094 480.851563 357.089844 482.667969 359.59375 484.761719 C 357.328125 488.105469 351.113281 494.4375 347.261719 496.984375 Z M 363.53125 478.609375 C 349.65625 469.640625 327.308594 467.824219 308.144531 474.910156 L 306.496094 471.359375 C 324.367188 463.339844 351.765625 465.484375 366.335938 472.824219 C 365.453125 475.617188 363.53125 478.609375 363.53125 478.609375 Z M 367.28125 470.527344 C 354.460938 463.363281 340.347656 462.070313 326.304688 463.566406 C 325.144531 461.546875 322.847656 457.347656 322.847656 457.347656 C 323.832031 456.996094 325.214844 456.410156 326.28125 455.972656 L 324.996094 451.914063 C 324.996094 451.914063 329.5 450.359375 331.542969 449.597656 L 330.414063 445.710938 C 336.300781 442.824219 352.988281 440.03125 359.328125 440.339844 C 359.121094 442.058594 359.007813 444.429688 358.890625 446.164063 L 363.929688 446.492188 C 363.929688 446.492188 363.222656 450.113281 363.246094 451.660156 C 364.730469 452.164063 366.433594 452.609375 367.929688 452.957031 C 367.929688 452.957031 367.734375 457.453125 367.761719 459.472656 C 368.742188 459.636719 369.1875 459.738281 370.035156 460.074219 C 369.683594 463.4375 368.710938 467.164063 367.28125 470.527344 Z M 317.71875 446.589844 C 317.71875 446.589844 315.644531 441.667969 314.871094 439.347656 C 330.097656 440.441406 353.902344 435.367188 366.734375 427.148438 C 367.886719 429.714844 369.273438 436.917969 369.40625 437.746094 C 355.886719 435.675781 335.738281 438.078125 317.71875 446.589844 "/>
<path style=" stroke:none;fill-rule:nonzero;fill:rgb(0%,0%,0%);fill-opacity:1;" d="M 211.5 332.683594 C 242.65625 357.699219 250.007813 372.769531 262.128906 408.425781 C 263.160156 411.453125 263.421875 411.464844 264.429688 408.328125 C 275.847656 372.8125 284.878906 352.835938 315 332.714844 C 289.320313 298.472656 244.125 298.390625 211.5 332.683594 Z M 285.089844 313.375 C 284.949219 314.277344 284.820313 314.710938 284.46875 315.644531 C 286.207031 316.675781 290.199219 318.757813 290.199219 318.757813 C 289.746094 320.226563 289.285156 321.925781 288.980469 323.460938 C 290.308594 324.257813 293.796875 325.453125 293.796875 325.453125 L 291.558594 329.980469 C 293.121094 330.746094 295.230469 331.835938 296.824219 332.515625 C 293.921875 338.160156 283.160156 351.21875 277.714844 354.867188 L 274.914063 351.949219 C 273.230469 353.335938 269.632813 356.460938 269.632813 356.460938 L 266.761719 353.316406 C 265.847656 354.023438 264.648438 354.929688 263.855469 355.605469 C 263.855469 355.605469 261.363281 351.515625 260.195313 349.503906 C 268.511719 338.089844 274.449219 325.21875 274.65625 310.535156 C 278.285156 310.976563 281.996094 312 285.089844 313.375 Z M 215.171875 332.734375 C 221.628906 326.5625 228.855469 320.367188 236.839844 316.824219 C 235.742188 325.191406 230.480469 333.335938 221.828125 338.265625 C 220.796875 337.558594 216.703125 333.996094 215.171875 332.734375 Z M 234.390625 350.828125 C 231.191406 346.640625 225.359375 341.585938 225.359375 341.585938 C 236.554688 334.480469 240.945313 320.785156 241.734375 314.640625 C 245.863281 312.582031 254.457031 310.363281 258.484375 310.074219 C 259.046875 313.285156 259.136719 316.765625 259.546875 319.949219 C 257.070313 320.660156 254.476563 321.128906 251.851563 321.601563 C 251.851563 321.601563 252.320313 326.027344 252.882813 328.710938 L 252.972656 328.710938 C 250.652344 329.53125 244.949219 330.566406 244.949219 330.566406 C 245.390625 333.046875 245.628906 335.640625 246.128906 338.089844 C 243.738281 338.882813 241.566406 339.609375 238.964844 340.386719 C 239.609375 343.132813 240.199219 345.933594 240.9375 348.675781 Z M 243.546875 362.761719 L 241.292969 359.558594 C 257.011719 346.503906 266.613281 326.242188 265.78125 309.738281 C 265.78125 309.738281 269.335938 309.570313 272.195313 310.207031 C 271.265625 326.488281 259.425781 351.292969 243.546875 362.761719 Z M 259.191406 393.53125 C 261.558594 381.503906 256.660156 371.355469 250.316406 360.175781 C 250.984375 359.535156 251.703125 358.96875 252.351563 358.261719 C 261.433594 367.601563 265.164063 384 260.117188 396.6875 Z M 263.449219 406.121094 C 263.398438 406.300781 263.257813 406.320313 263.214844 406.167969 C 262.734375 404.449219 261.40625 400.433594 261.40625 400.433594 C 267.941406 381.566406 264.503906 369.667969 253.871094 356.691406 C 254.871094 355.730469 256.246094 354.132813 257.210938 353.132813 C 259.023438 355.890625 272.6875 374.804688 273.503906 375.519531 C 269.898438 383.839844 266.40625 395.921875 263.449219 406.121094 Z M 311.949219 332.695313 C 298.417969 339.699219 282.117188 357.777344 275.453125 371.511719 C 273.832031 369.683594 270.605469 365.425781 270.605469 365.425781 C 286.984375 354.074219 299.144531 337.828125 304.109375 325.082031 C 304.757813 325.613281 310.304688 330.414063 311.949219 332.695313 "/>
<path style=" stroke:none;fill-rule:nonzero;fill:rgb(0%,0%,0%);fill-opacity:1;" d="M 249.351563 417.273438 C 252.570313 417.96875 252.6875 417.734375 250.585938 415.332031 C 225.765625 387.007813 216.386719 373.101563 210.300781 333.613281 C 164.289063 344.722656 141.765625 383.902344 158.578125 423.261719 C 191.066406 407.234375 212.882813 409.40625 249.351563 417.273438 Z M 248.085938 415.140625 C 248.195313 415.253906 248.109375 415.367188 247.929688 415.324219 C 237.617188 412.785156 225.40625 409.765625 216.398438 408.726563 C 216.1875 407.664063 206.640625 386.371094 205.160156 383.425781 C 206.503906 383.089844 208.574219 382.699219 209.910156 382.3125 C 215.832031 398.007813 224.414063 406.933594 244.023438 410.707031 C 244.023438 410.707031 246.835938 413.863281 248.085938 415.140625 Z M 239.152344 405.339844 L 241.421875 407.71875 C 227.914063 405.746094 215.574219 394.316406 212.027344 381.78125 C 212.964844 381.570313 213.816406 381.234375 214.703125 380.976563 C 221.214844 392.058594 227.554688 401.378906 239.152344 405.339844 Z M 208.511719 336.816406 C 208.835938 338.777344 209.875 344.101563 209.972656 345.347656 C 201.378906 350.378906 191.691406 350.859375 183.898438 347.628906 C 190.957031 342.484375 199.9375 339.324219 208.511719 336.816406 Z M 179.5625 350.777344 C 185.277344 353.164063 199.332031 356.210938 211.085938 350.066406 C 211.085938 350.066406 212.542969 357.644531 214.570313 362.511719 L 209.433594 367.105469 C 207.425781 365.09375 205.296875 363.183594 203.246094 361.25 C 201.269531 363.113281 199.554688 364.636719 197.667969 366.304688 C 195.800781 364.648438 193.671875 363.144531 191.746094 361.523438 C 191.746094 361.523438 187.996094 365.945313 186.125 367.539063 L 186.171875 367.464844 C 184.128906 365.640625 180.53125 363.019531 180.53125 363.019531 C 178.8125 365.054688 177.105469 367.066406 175.253906 368.859375 C 172.699219 366.90625 169.730469 365.09375 167.230469 363 C 169.496094 359.65625 175.710938 353.320313 179.5625 350.777344 Z M 163.292969 369.148438 C 177.167969 378.121094 199.515625 379.9375 218.679688 372.851563 L 220.328125 376.402344 C 202.457031 384.421875 175.058594 382.273438 160.488281 374.9375 C 161.367188 372.144531 163.292969 369.148438 163.292969 369.148438 Z M 159.542969 377.234375 C 172.363281 384.398438 186.476563 385.691406 200.519531 384.195313 C 201.679688 386.214844 203.980469 390.414063 203.980469 390.414063 C 202.992188 390.765625 201.609375 391.351563 200.539063 391.789063 L 201.828125 395.847656 C 201.828125 395.847656 197.324219 397.398438 195.28125 398.164063 L 196.410156 402.050781 C 190.523438 404.9375 173.835938 407.730469 167.496094 407.421875 C 167.703125 405.703125 167.8125 403.332031 167.933594 401.597656 L 162.894531 401.269531 C 162.894531 401.269531 163.601563 397.648438 163.574219 396.101563 C 162.09375 395.597656 160.390625 395.148438 158.894531 394.808594 C 158.894531 394.808594 159.089844 390.308594 159.0625 388.285156 C 158.078125 388.125 157.636719 388.019531 156.789063 387.6875 C 157.140625 384.324219 158.113281 380.597656 159.542969 377.234375 Z M 209.105469 401.171875 C 209.105469 401.171875 211.179688 406.09375 211.953125 408.414063 C 196.726563 407.320313 172.921875 412.394531 160.089844 420.613281 C 158.9375 418.046875 157.550781 410.84375 157.414063 410.015625 C 170.9375 412.085938 191.085938 409.683594 209.105469 401.171875 "/>
<path style=" stroke:none;fill-rule:nonzero;fill:rgb(0%,0%,0%);fill-opacity:1;" d="M 276.972656 417.441406 C 313.441406 409.570313 335.257813 407.402344 367.742188 423.429688 C 384.558594 384.070313 362.03125 344.890625 316.023438 333.777344 C 309.9375 373.269531 300.558594 387.171875 275.738281 415.496094 C 273.632813 417.902344 273.753906 418.136719 276.972656 417.441406 Z M 366.234375 420.777344 C 353.402344 412.5625 329.597656 407.484375 314.371094 408.578125 C 315.144531 406.261719 317.21875 401.339844 317.21875 401.339844 C 335.238281 409.847656 355.386719 412.253906 368.90625 410.183594 C 368.773438 411.007813 367.386719 418.214844 366.234375 420.777344 Z M 369.535156 387.855469 C 368.6875 388.1875 368.242188 388.292969 367.261719 388.453125 C 367.234375 390.476563 367.429688 394.972656 367.429688 394.972656 C 365.933594 395.316406 364.230469 395.765625 362.746094 396.269531 C 362.722656 397.816406 363.429688 401.4375 363.429688 401.4375 L 358.390625 401.761719 C 358.507813 403.5 358.621094 405.871094 358.828125 407.589844 C 352.488281 407.898438 335.800781 405.105469 329.914063 402.214844 L 331.042969 398.328125 C 329 397.566406 324.496094 396.015625 324.496094 396.015625 L 325.78125 391.953125 C 324.714844 391.515625 323.332031 390.929688 322.347656 390.578125 C 322.347656 390.578125 324.644531 386.382813 325.804688 384.359375 C 339.847656 385.855469 353.960938 384.566406 366.78125 377.402344 C 368.210938 380.765625 369.183594 384.492188 369.535156 387.855469 Z M 317.8125 336.984375 C 326.386719 339.492188 335.367188 342.652344 342.425781 347.796875 C 334.628906 351.027344 324.945313 350.542969 316.351563 345.515625 C 316.449219 344.265625 317.488281 338.941406 317.8125 336.984375 Z M 315.238281 350.234375 C 326.992188 356.375 341.046875 353.328125 346.761719 350.945313 C 350.613281 353.488281 356.828125 359.824219 359.09375 363.164063 C 356.589844 365.257813 353.621094 367.074219 351.070313 369.023438 C 349.21875 367.234375 347.515625 365.222656 345.792969 363.183594 C 345.792969 363.183594 342.195313 365.804688 340.152344 367.632813 L 340.199219 367.710938 C 338.328125 366.113281 334.578125 361.691406 334.578125 361.691406 C 332.652344 363.3125 330.523438 364.8125 328.65625 366.472656 C 326.769531 364.800781 325.054688 363.28125 323.078125 361.414063 C 321.027344 363.347656 318.898438 365.261719 316.890625 367.269531 L 311.753906 362.675781 C 313.78125 357.8125 315.238281 350.234375 315.238281 350.234375 Z M 307.644531 373.019531 C 326.808594 380.101563 349.15625 378.285156 363.03125 369.316406 C 363.03125 369.316406 364.953125 372.3125 365.835938 375.105469 C 351.265625 382.441406 323.867188 384.589844 305.996094 376.570313 Z M 287.171875 405.507813 C 298.769531 401.542969 305.109375 392.226563 311.617188 381.144531 C 312.507813 381.402344 313.359375 381.738281 314.296875 381.945313 C 310.75 394.480469 298.410156 405.910156 284.902344 407.886719 Z M 278.238281 415.308594 C 279.488281 414.03125 282.300781 410.871094 282.300781 410.871094 C 301.910156 407.101563 310.492188 398.175781 316.414063 382.480469 C 317.746094 382.863281 319.816406 383.253906 321.164063 383.589844 C 319.683594 386.539063 310.136719 407.828125 309.925781 408.894531 C 300.914063 409.933594 288.707031 412.949219 278.394531 415.488281 C 278.214844 415.535156 278.128906 415.421875 278.238281 415.308594 "/>
</g>
</svg>
