<?xml version="1.0" encoding="UTF-8"?>
<svg xmlns="http://www.w3.org/2000/svg" xmlns:xlink="http://www.w3.org/1999/xlink" width="510pt" height="153pt" viewBox="0 0 510 153" version="1.1">
<g id="surface1">
<path style=" stroke:none;fill-rule:nonzero;fill:rgb(0%,0%,0%);fill-opacity:1;" d="M 65.375 58.875 L 64.832031 43 L 72.695313 44.867188 L 72.625 52.875 L 81.601563 52.96875 C 81.601563 52.96875 80.691406 46.867188 92.691406 36.53125 C 104.691406 26.199219 117 30.285156 117 30.285156 C 117 30.285156 118.902344 28.605469 124.570313 23.269531 C 138.640625 10.027344 182.328125 7.648438 201.496094 16.546875 C 204.316406 17.855469 204.453125 18.03125 206.628906 15.859375 C 231.5 -9 273.21875 0.0703125 321.285156 12.5 C 340.617188 17.5 353.472656 20.957031 362.140625 21.957031 C 370.808594 22.957031 378.078125 26.421875 362.410156 24.089844 C 346.742188 21.753906 327.507813 15.835938 313.148438 13.214844 C 284.367188 7.960938 228.394531 -4.199219 210.476563 20.890625 C 208.808594 23.222656 208.363281 24.722656 204.148438 23.035156 C 177.589844 12.402344 139.898438 15.605469 122.824219 33.390625 C 120.152344 36.175781 118.820313 36.773438 116.402344 36.882813 C 104.0625 37.445313 91.648438 45.9375 88.5 54.332031 C 87.5 57 87.839844 58.796875 87.839844 58.796875 Z M 82.695313 29.59375 C 108.164063 1 170.007813 4.730469 195.472656 10.011719 C 201.835938 11.335938 206.671875 10.886719 196.464844 8.78125 C 165.808594 2.464844 110.648438 -5.585938 76.433594 24.066406 C 69.496094 30.082031 65.890625 40.734375 65.890625 40.734375 L 73.25 42.5 C 73.25 42.5 76.894531 36.105469 82.695313 29.59375 Z M 70.789063 69.132813 C 70.992188 67.511719 71.25 65.25 71.25 65.25 L 83.875 65.25 C 83.875 65.25 84.65625 68.273438 84.742188 68.46875 C 85.304688 69.71875 86.464844 72.246094 86.464844 72.246094 L 92.1875 72.1875 C 92.15625 72.167969 88.25 65.875 88.011719 63.375 C 87.859375 61.804688 87.679688 60.417969 87.679688 60.417969 L 65.125 60.5 C 65.125 60.5 65 61.75 64.875 64.625 C 64.75 67.5 63.8125 72.0625 63.8125 72.0625 L 70.1875 72.0625 C 70.1875 72.0625 70.582031 70.753906 70.789063 69.132813 Z M 498.5 70.25 C 490.75 70.25 207.761719 72.082031 206.261719 72.082031 C 204.761719 72.085938 204.386719 71.144531 203.5 68.332031 C 203.484375 68.28125 188.335938 80.667969 178.363281 89.234375 C 178.40625 89.984375 178.445313 90.738281 178.445313 91.5 C 178.445313 115.117188 158.234375 134.265625 133.304688 134.265625 C 129.214844 134.265625 125.253906 133.738281 121.488281 132.773438 C 121.546875 132.976563 121.589844 133.1875 121.589844 133.410156 C 121.589844 134.65625 120.578125 135.667969 119.335938 135.667969 C 118.9375 135.667969 118.570313 135.554688 118.246094 135.375 C 117.925781 136.722656 116.71875 137.730469 115.269531 137.730469 C 114.492188 137.730469 113.789063 137.429688 113.25 136.953125 C 112.535156 138.273438 111.15625 139.179688 109.550781 139.179688 C 107.453125 139.179688 105.726563 137.648438 105.394531 135.640625 C 104.976563 135.804688 103.777344 136.464844 101.335938 139.167969 C 98.167969 142.667969 93.792969 147.503906 89.792969 147.339844 C 85.792969 147.171875 81.554688 146.679688 79.945313 146.140625 C 78.332031 145.605469 75.632813 145.519531 80.632813 144.183594 C 85.632813 142.851563 88.890625 140.84375 95.328125 137.007813 C 101.765625 133.171875 98.289063 134.621094 91.917969 137.839844 C 85.550781 141.058594 77.59375 142.953125 74.621094 143.140625 C 71.648438 143.328125 60.785156 139.492188 57.925781 138.082031 C 55.070313 136.675781 49.660156 136.222656 60.660156 137.054688 C 73.128906 138 86.832031 135.167969 96.304688 131.253906 C 103.667969 128.214844 104.125 127.523438 93.460938 131.191406 C 82.792969 134.855469 62.164063 135.425781 62.164063 135.425781 C 62.164063 135.425781 59.910156 134.617188 58.910156 133.949219 C 57.910156 133.28125 48.585938 126.578125 46.042969 123.597656 C 43.503906 120.617188 45.882813 120.683594 48.277344 121.988281 C 61.5 129.1875 87.992188 130.441406 102.789063 122.996094 C 95.695313 116.820313 90.691406 108.527344 88.898438 99.167969 C 88.734375 98.292969 88.515625 98.265625 88.53125 99.125 C 88.65625 106.125 88.773438 112.359375 88.816406 113.832031 C 88.929688 117.941406 87.6875 118.785156 85.496094 118.957031 C 84.933594 119 60.292969 119.21875 59.878906 118.917969 C 59.542969 118.675781 59.207031 118.09375 58.84375 116.789063 C 57.433594 111.675781 54.660156 107.410156 51.429688 104.109375 C 45.039063 108.070313 37.464844 110.820313 29.503906 111.265625 C 25.625 111.484375 24.378906 109.996094 28.765625 109.609375 C 35.394531 109.027344 41.664063 104.84375 47.230469 100.511719 C 46.726563 100.152344 46.222656 99.804688 45.714844 99.488281 C 43.078125 101.308594 40.195313 102.953125 37.066406 104.238281 C 31.402344 106.574219 24.660156 106.265625 24.660156 106.265625 C 22.875 102.097656 16.234375 98.167969 6.5 98.167969 C -1 98.167969 -0.25 96.605469 6.457031 96.398438 C 6.457031 96.398438 18.738281 97.804688 25.1875 90.183594 C 25.621094 89.675781 25.875 89.335938 25.875 89.335938 C 25.875 89.335938 34.816406 89.382813 44.722656 94.21875 C 51.097656 88.722656 54.957031 81.644531 55.105469 75.964844 C 55.164063 73.757813 55.5 73.25 57.953125 73.21875 C 61.949219 73.164063 80.917969 73.289063 84.625 73.167969 C 88.332031 73.042969 88.167969 73 88.167969 76.167969 C 88.167969 77.105469 88.214844 80.488281 88.285156 84.875 C 88.300781 85.835938 88.585938 85.605469 88.78125 84.484375 C 91.183594 70.691406 100.554688 59.132813 113.351563 53.140625 C 122.351563 20.859375 190.472656 7.449219 208.226563 61.988281 C 208.558594 63.003906 208.773438 63.660156 208.773438 63.660156 C 208.773438 63.660156 488.5 68.40625 502.25 68.15625 C 516 67.90625 506.25 70.25 498.5 70.25 Z M 41.128906 96.953125 C 33.667969 93 28.386719 93.46875 28.386719 93.46875 C 28.386719 93.46875 28.503906 92.90625 26.003906 95.40625 C 23.515625 97.898438 21.757813 98.324219 21.746094 98.328125 C 24.5 99.332031 27.171875 102.539063 27.171875 102.539063 C 32.667969 102.667969 37.667969 100 41.128906 96.953125 Z M 81.960938 79.4375 C 81.578125 77.988281 81.261719 77.480469 81.261719 77.480469 C 81.261719 77.480469 62.3125 77.375 60.667969 77.5 C 59.53125 77.585938 60.660156 85.5 49.210938 96.863281 C 49.65625 97.175781 50.089844 97.507813 50.519531 97.84375 C 62.082031 87.84375 63 78.625 63 78.625 L 69.875 78.625 C 69.875 78.625 68.917969 88.332031 60.582031 96.835938 C 58.859375 98.59375 56.921875 100.265625 54.824219 101.8125 C 57.078125 104.242188 59.136719 107.042969 61.152344 110.277344 C 63.101563 113.402344 63.136719 114.039063 63.136719 114.039063 C 63.136719 114.039063 79.714844 114.136719 81.25 114 C 82.785156 113.863281 82.5 113.5 83 111.5 C 85.546875 101.308594 83.128906 83.859375 81.960938 79.4375 Z M 193.339844 47.902344 C 177.363281 46.261719 162.292969 47.945313 155.738281 54.394531 C 163.15625 58.429688 169.238281 64.410156 173.242188 71.59375 C 183.671875 66.773438 193 61.5 199.417969 58.34375 C 197.648438 54.765625 195.589844 51.183594 193.339844 47.902344 Z M 187.839844 40.980469 C 176.964844 38.867188 153.386719 37.269531 142.242188 49.574219 C 143.496094 49.8125 144.722656 50.109375 145.933594 50.441406 C 148.265625 48.179688 151.621094 46.152344 156.453125 44.738281 C 166.242188 41.871094 183.636719 43.3125 190.484375 44.039063 C 189.617188 42.957031 188.738281 41.933594 187.839844 40.980469 Z M 121.667969 50.183594 C 124.027344 49.585938 126.460938 49.15625 128.957031 48.929688 C 131.046875 45.976563 133.882813 43.058594 137.75 40.5 C 149.785156 32.542969 176.527344 37.191406 185.441406 38.621094 C 183.238281 36.652344 180.988281 35.171875 178.769531 34.386719 C 161.878906 28.429688 131.390625 28.011719 121.667969 50.183594 Z M 173.980469 92.675781 C 168.136719 97.273438 156.835938 106.011719 156.335938 106.167969 C 155.832031 106.324219 151.335938 104.832031 148.996094 104.039063 C 147.867188 103.65625 147.476563 103.664063 149.980469 101.996094 C 151.519531 100.96875 161.878906 93.015625 173.335938 85.332031 C 173.1875 84.335938 173.351563 84.46875 173.125 83.5 C 159.835938 92.4375 146.839844 100.792969 146.09375 101.164063 C 144.554688 101.925781 143.277344 101.613281 143.277344 101.613281 C 143.277344 101.613281 139.425781 100.414063 136.664063 99 C 133.90625 97.585938 134.472656 96.832031 135.476563 96.292969 C 136.007813 96.007813 154.140625 86.9375 171.359375 77.96875 C 171.234375 77.65625 171.039063 77.046875 170.90625 76.742188 C 153.996094 85.40625 133.785156 95.472656 133.03125 95.757813 C 132.273438 96.042969 131.628906 96.207031 131.21875 96.054688 C 130.40625 95.746094 126.664063 93.5 125 92.332031 C 124.125 91.71875 124.859375 91.109375 126.1875 90.542969 C 127.386719 90.035156 153.3125 80.65625 169.25 73.421875 C 165.59375 66.917969 160.039063 61.511719 153.273438 57.898438 C 152.230469 60.214844 151.984375 62.941406 152.75 66.125 C 153.226563 68.109375 152.753906 68.027344 151.753906 68.027344 C 150.753906 68.027344 143.875 67.75 141.75 67.625 C 141.75 67.625 139.378906 60.648438 143.113281 54.070313 C 141.917969 53.789063 140.707031 53.550781 139.476563 53.375 C 136.148438 59.199219 137.425781 63.917969 137.804688 65.632813 C 138.222656 67.546875 139.5 67.625 132 67.546875 C 127.523438 67.5 123.25 67.5 123.25 67.5 C 123.25 67.5 122.730469 60.96875 126.269531 53.519531 C 124.105469 53.878906 121.996094 54.394531 119.964844 55.066406 C 119.492188 56.84375 119.136719 58.734375 118.902344 60.753906 C 118.390625 65.214844 118.5 69.5 118.5 69.5 C 118.5 69.5 143.25 69.5 151.25 69.5 C 159.25 69.5 157.253906 71.015625 149.253906 71.515625 C 141.253906 72.015625 139.773438 76.519531 133.5 84.5 C 127.226563 92.480469 116.433594 92.390625 108.183594 90.890625 C 99.933594 89.390625 95.453125 82.777344 95.453125 82.777344 C 95.453125 82.777344 95.832031 79.757813 97.148438 78.652344 C 97.679688 78.207031 98.230469 78.378906 98.613281 79.085938 C 99.773438 81.214844 103 85.875 114.25 86.625 C 129.25 87.625 133.363281 75.726563 134.75 74.5 C 136.136719 73.273438 135.5 73.082031 133.5 73.167969 C 131.5 73.25 112.75 73.167969 112.75 73.167969 C 112.75 73.167969 112.003906 64.460938 112.445313 58.382813 C 100.558594 65.117188 92.597656 77.425781 92.597656 91.5 C 92.597656 112.796875 110.824219 130.066406 133.304688 130.066406 C 155.371094 130.066406 173.324219 113.429688 173.980469 92.675781 Z M 175.261719 75.917969 C 186.972656 69.816406 197.597656 63.941406 201.164063 62 C 201.0625 61.765625 200.925781 61.542969 200.820313 61.304688 C 197.175781 63.238281 186.523438 68.734375 174.839844 74.726563 C 174.972656 75.023438 175.136719 75.617188 175.261719 75.917969 Z M 202.5 65.167969 C 202.171875 64.273438 202.378906 65.296875 202 64.375 C 199.308594 66.207031 188.414063 73.191406 177 80.875 C 177.261719 81.820313 177.304688 81.695313 177.5 82.667969 C 188.441406 75.328125 198.9375 67.558594 202.5 65.167969 Z M 172.976563 114.859375 C 172.566406 115.464844 172.3125 115.8125 172.3125 115.8125 C 172.3125 115.8125 174.75 116.4375 175.148438 116.496094 C 175.148438 116.496094 177.902344 112.890625 178.222656 112.398438 C 182.460938 105.867188 182.242188 106.632813 192.589844 104.277344 C 210.558594 100.1875 319.808594 100.078125 337.664063 99.667969 C 352.164063 99.332031 344.121094 96.671875 337.457031 96.839844 C 330.789063 97.007813 247.554688 94.011719 227.054688 89.679688 C 206.554688 85.34375 200.546875 77.886719 200.761719 75.804688 C 200.976563 73.722656 199.492188 75.074219 198.019531 76.199219 L 180.292969 89.691406 C 180.292969 89.691406 180.308594 89.902344 180.328125 90.25 C 180.675781 96.667969 178.375 107.625 172.976563 114.859375 Z M 161.335938 116.167969 C 138.164063 110 113.210938 95.675781 95.097656 86.933594 C 94.59375 86.691406 94.265625 86.742188 94.21875 87.058594 C 94.082031 87.976563 93.820313 90.082031 93.835938 92.496094 C 93.851563 94.757813 93.910156 97.160156 96.832031 99.035156 C 107.988281 106.199219 127.285156 114.023438 136.445313 117.269531 C 140.4375 118.6875 152.664063 122.832031 152.664063 122.832031 C 152.664063 122.832031 155.902344 121.222656 158.335938 119.167969 C 160.5 117.332031 161.335938 116.167969 161.335938 116.167969 Z M 149.050781 124.875 C 139 122 102.257813 105.96875 98.128906 103.753906 C 96.367188 102.808594 97 104.167969 99.167969 108.667969 C 100.539063 111.515625 102.167969 113.546875 103.730469 114.953125 C 106.78125 117.699219 131.386719 128.511719 134.164063 128.332031 C 142 127.832031 149.550781 125.019531 149.050781 124.875 Z M 327.246094 133.828125 C 289.53125 150.835938 210.457031 149.835938 159.113281 129.777344 C 157.8125 129.269531 157.550781 129.226563 156.816406 129.722656 C 156.125 130.1875 148.324219 133.765625 146.847656 134.117188 C 144.375 134.707031 145.039063 135.207031 147.710938 136.375 C 195.152344 157.132813 277.832031 159.558594 329.335938 135 C 336.949219 131.367188 335.746094 129.996094 327.246094 133.828125 Z M 171.371094 118.078125 C 170.089844 117.699219 170 118.125 169.375 119 C 168.75 119.875 166.074219 122.820313 165.164063 123.667969 C 164.261719 124.515625 161.0625 127.1875 160.25 127.75 C 160.25 127.75 171.089844 131.792969 188.644531 133.703125 C 244.402344 139.769531 342.609375 135.492188 401.164063 94 C 407.925781 89.210938 407.578125 89.273438 399.894531 93.132813 C 322.5 132 226.75 134.5 171.371094 118.078125 Z M 205.113281 42.789063 C 200.085938 42.210938 199.945313 41.867188 201 42.875 C 201.828125 43.667969 205.625 50.125 206.625 52.125 C 207.625 54.125 209.375 58.875 209.625 59.625 C 209.875 60.375 209.628906 61.003906 210.878906 60.984375 C 212.128906 60.96875 428.625 62 436.125 61.875 C 443.625 61.75 445.636719 60.742188 439.136719 60.742188 C 414.867188 60.742188 235.835938 46.335938 205.113281 42.789063 Z M 181.25 25.5 C 177.519531 25.089844 171.496094 25.035156 179 26.75 C 182.394531 27.523438 188.5 31.25 192.34375 33.921875 C 195.308594 35.988281 198 38.75 198 38.75 C 198 38.75 314.730469 50.425781 371.140625 54.066406 C 404.753906 56.238281 433.925781 57.773438 446.429688 57.769531 C 458.484375 57.765625 467.460938 56.28125 460.835938 56 C 441.140625 55.164063 333.5 43.335938 279.5 36.335938 C 225.5 29.335938 184.980469 25.910156 181.25 25.5 "/>
</g>
</svg>
