<?xml version="1.0" encoding="UTF-8"?>
<svg xmlns="http://www.w3.org/2000/svg" xmlns:xlink="http://www.w3.org/1999/xlink" width="513pt" height="276pt" viewBox="0 0 513 276" version="1.1">
<g id="surface1">
<path style=" stroke:none;fill-rule:nonzero;fill:rgb(0%,0%,0%);fill-opacity:1;" d="M 504.875 217.5 C 502.167969 235.089844 478.398438 245.164063 464.535156 218.902344 C 459.972656 210.257813 455.835938 200.632813 457 180.875 C 457.066406 179.753906 457.125 177.5 457.125 177.5 C 457.125 177.5 459.25 177.875 460.375 178 C 470.335938 179.105469 479.460938 177.5625 487.203125 174.085938 C 497.855469 169.304688 512.472656 153.675781 512.660156 133.871094 C 512.710938 128.703125 509.054688 127.0625 506.953125 133.152344 C 502.460938 146.191406 472.238281 149.53125 467.425781 113.152344 C 463.347656 82.3125 467.816406 54.605469 444.914063 30.257813 C 415.878906 -0.621094 369.019531 -5.894531 332.671875 5.179688 C 315.488281 10.414063 284.179688 25.808594 260.816406 29.746094 C 242.890625 32.765625 215.007813 33.554688 194.921875 18.273438 C 190.15625 14.652344 188.585938 15.179688 190.664063 20.285156 C 195.570313 32.328125 206.328125 44.769531 223.003906 48.175781 C 224.285156 48.4375 224.554688 48.679688 223.476563 49.464844 C 211.261719 58.394531 203.773438 83.949219 212.347656 99.542969 C 214.027344 102.597656 214.328125 103.128906 216.328125 102.6875 C 218.15625 102.289063 218.476563 101.675781 218.328125 98.878906 C 217.71875 87.296875 231.050781 78.960938 240.5 76.125 C 248.914063 73.601563 263.441406 68.363281 270.46875 59.105469 C 272.101563 56.949219 272.660156 57.28125 273.753906 60.03125 C 278.96875 73.136719 292.839844 82.125 308.875 82.125 C 324.4375 82.125 335.265625 73.742188 342.152344 63.519531 C 343.523438 61.488281 343.339844 61.109375 340.019531 60.183594 C 318.648438 54.214844 325.078125 25.1875 345.980469 17.945313 C 359.488281 13.261719 379.027344 15.515625 388.878906 28.425781 C 399.183594 41.933594 396.5 60.914063 382.367188 67.757813 C 372.679688 72.453125 360.929688 67.855469 357.148438 60.550781 C 354.988281 56.382813 354.652344 56.148438 353.695313 61.003906 C 351.296875 73.230469 369.519531 90.234375 384.75 93.5 C 405.648438 97.976563 422.023438 86.46875 427.269531 67.269531 C 430.429688 55.691406 428.382813 43.472656 424.375 34.125 C 423.492188 32.070313 424.179688 32.199219 425.5 33.625 C 442.113281 51.554688 440.054688 73.914063 433.667969 87.152344 C 422.746094 109.800781 393.429688 120.273438 377.375 101.75 C 374.914063 98.910156 374.390625 98.851563 373.75 102.375 C 370.78125 118.703125 375.609375 136.78125 397.125 144.375 C 399.25 145.125 398.0625 145 397 145.625 C 379.464844 155.933594 369.894531 165.09375 357.375 183.875 C 355.519531 186.65625 356.175781 187.101563 359.625 186.375 C 364.984375 185.242188 367.515625 185.546875 372.75 186.5 C 374.125 186.75 374.125 187.125 373 187.625 C 352.433594 196.765625 325.96875 196.691406 312.75 185.125 C 298.808594 172.925781 298.265625 159.320313 301.667969 150.125 C 306.691406 136.554688 321 129.398438 335 135 C 336.875 135.75 336.625 134 336.125 132.625 C 330.519531 117.207031 324.355469 110.417969 313 105.875 C 297.859375 99.820313 280.847656 105.722656 269.625 119.75 C 262.101563 129.152344 260.972656 146.203125 265.945313 157.960938 C 266.476563 159.214844 266.285156 159.507813 264.816406 158.554688 C 250.488281 149.238281 227.46875 123.824219 219.546875 115.953125 C 194.988281 91.539063 182.101563 85.238281 161.246094 88.019531 C 160.035156 88.179688 159.0625 88.1875 159.0625 88.1875 C 159.0625 88.1875 158.664063 87.914063 158.128906 87.558594 C 146.644531 79.945313 126.960938 75.316406 107.828125 73.894531 C 82.871094 72.035156 37.164063 77.257813 12.378906 112.199219 C 4.851563 122.8125 -1.703125 136.144531 0.960938 155.148438 C 5.554688 187.929688 36.039063 202.121094 62.5 190.375 C 77.363281 183.777344 88.09375 173.304688 94 153.625 C 95.160156 149.757813 91.699219 148.558594 89.625 151.875 C 79.648438 167.835938 57.683594 167.558594 51.125 152.351563 C 46.671875 142.03125 51.628906 128.449219 55.339844 122.265625 C 56.585938 120.1875 57.164063 120.570313 57.191406 122.6875 C 57.328125 133.84375 66.746094 144.125 80.316406 141.898438 C 82.722656 141.503906 82.8125 141.207031 80.804688 139.257813 C 71.84375 130.558594 82.988281 116.628906 89.125 111 C 104.71875 96.703125 130.253906 99.707031 144.21875 104.847656 C 146.425781 105.660156 146.605469 105.921875 144.265625 107.398438 C 128.296875 117.476563 122.828125 139.078125 127.351563 148.601563 C 128.203125 150.394531 128.558594 150.253906 131.566406 148.925781 C 146.890625 142.152344 168.613281 143.21875 181.191406 146.566406 C 200.875 151.804688 219.3125 163.128906 237.546875 174.59375 C 252.140625 183.773438 272.835938 198.605469 298.230469 206.28125 C 340.503906 219.058594 372.175781 209.246094 389.75 198.25 C 391.230469 197.324219 391.394531 197.339844 390.875 199 C 384.597656 219.015625 397.007813 246.195313 409.25 256.625 C 412.824219 259.671875 413.183594 260.148438 414.597656 258.957031 C 415.847656 257.90625 415.925781 257.429688 414.375 253.5 C 411.003906 244.964844 414.808594 234.722656 416.25 230.875 C 421.730469 216.261719 435.105469 208.820313 440.5 202.75 C 441.5 201.625 441.804688 202.238281 441.625 203.625 C 439.394531 220.722656 439.546875 234.40625 444.566406 247.207031 C 456.429688 277.417969 485.78125 281.65625 500.140625 266.640625 C 513.351563 252.828125 512.734375 231.777344 507.5 217.375 C 505.953125 213.125 505.503906 213.414063 504.875 217.5 Z M 389.804688 193.238281 C 362.742188 211.378906 328.449219 212.015625 298.816406 202.390625 C 272.726563 193.910156 261.4375 185.585938 245.75 175.125 C 225.898438 161.890625 205.480469 149.75 182.125 142.375 C 168.199219 137.976563 146.882813 137.585938 133.5 142.9375 C 131 143.9375 131.128906 143.320313 130.9375 141.4375 C 129.195313 124.4375 146.953125 108.71875 151.984375 106.097656 C 154.886719 104.589844 154.777344 104.277344 151.378906 102.746094 C 135.289063 95.488281 110.976563 94.117188 94.402344 102.808594 C 80.082031 110.316406 71.214844 125.054688 73.226563 135.816406 C 73.589844 137.757813 74.125 138.898438 71.324219 137.726563 C 61.199219 133.488281 57.871094 121.507813 61.875 113.5 C 63.671875 109.902344 63.410156 109.890625 60.375 112.125 C 49.722656 119.972656 46.445313 132.859375 45.875 140.25 C 43.703125 168.492188 71.011719 172.757813 84.1875 162.875 C 86.003906 161.515625 86.304688 161.699219 85.3125 163.5625 C 78.035156 177.195313 70.035156 182.773438 60.730469 186.808594 C 34.207031 198.3125 8.019531 180.335938 5.074219 154.324219 C 3.367188 139.234375 8.484375 126.15625 16.261719 114.5625 C 34.832031 86.867188 72.816406 75.925781 107.835938 78.164063 C 123.5 79.164063 139.609375 83.019531 155.277344 90.878906 C 156.449219 91.464844 157.25 91.875 157.25 91.875 C 157.25 91.875 158.5 91.75 159.75 91.5 C 183.765625 86.695313 201.628906 102.511719 217.269531 118.230469 C 231.285156 132.324219 249.683594 152.910156 268.75 166.375 C 272.054688 168.707031 272.484375 168.570313 274 167.625 C 275.148438 166.90625 274.488281 166.632813 273 164.25 C 264.640625 150.859375 265.699219 132.210938 273.226563 121.59375 C 285.140625 104.789063 316.660156 99.304688 329.5 127.125 C 330.25 128.75 329.25 129.25 327.875 129.125 C 315.175781 127.972656 302.699219 134.027344 296.75 151.875 C 288.046875 177.980469 321.222656 215.644531 378.5 190.375 C 379.839844 189.785156 382 188.71875 383.414063 188.015625 C 384.242188 187.601563 384.8125 187.3125 384.8125 187.3125 C 384.8125 187.3125 387.644531 186.882813 389.875 186.5 C 392.4375 186.0625 395.6875 185.6875 395.6875 185.6875 C 395.6875 185.6875 395.3125 186.75 394.4375 188.625 C 393.5625 190.5 392.5 191.625 392.5 191.625 C 392.5 191.625 391.253906 192.269531 389.804688 193.238281 Z M 434.023438 203.695313 C 423.804688 212.359375 407.160156 226.445313 409.511719 248.375 C 409.761719 250.6875 409.554688 251.042969 407.8125 249.058594 C 391.457031 230.417969 388.640625 201.972656 402.6875 180.25 C 403.851563 178.449219 403.664063 178.046875 401.625 178.875 C 391.605469 182.945313 389.101563 184.117188 379.375 183.125 C 377.257813 182.910156 365.125 182 364.125 182.125 C 362.628906 182.3125 361.824219 181.949219 363.25 180.25 C 371.863281 169.996094 376.886719 163.28125 387.214844 156.320313 C 392.628906 152.671875 399.507813 148.285156 409.125 144.625 C 413.65625 142.898438 413.371094 141.726563 408.75 141.875 C 391.320313 142.4375 376.5 129.855469 376.5 109.125 C 376.5 107.625 377.125 107.125 378.625 108.625 C 391.238281 121.238281 425.148438 116.828125 438.148438 88.15625 C 451.472656 58.769531 435.800781 28.933594 413.75 20.25 C 409.398438 18.535156 408.445313 19.195313 412 22.75 C 422.089844 32.839844 427.601563 51.753906 423.640625 66.492188 C 414.628906 100.023438 373.460938 96.667969 359.0625 69.875 C 357.933594 67.773438 358.390625 67.777344 360.601563 69.28125 C 369.953125 75.632813 382.347656 73.964844 390.636719 66.769531 C 400.238281 58.4375 401.730469 44.414063 396.542969 33.558594 C 387.667969 14.992188 363.648438 6.519531 344.132813 14.585938 C 319.726563 24.679688 315.484375 52.703125 334.324219 61.980469 C 336.296875 62.949219 336.640625 63.222656 335.457031 64.714844 C 328.148438 73.933594 316.714844 78.570313 305.875 78 C 290.992188 77.21875 276.132813 65.523438 273.804688 47.816406 C 273.195313 43.183594 271.800781 43.167969 270.894531 47.679688 C 267.640625 63.925781 249.351563 69.152344 237.25 72.875 C 232.941406 74.199219 220.339844 80.691406 215.953125 90.695313 C 215.113281 92.613281 214.828125 92.773438 214.148438 90.699219 C 209.460938 76.414063 217.933594 57.226563 231.277344 47.945313 C 234.378906 45.789063 235.058594 44.652344 229.628906 44.558594 C 217.253906 44.34375 204.59375 37.457031 196.75 24.875 C 195.171875 22.339844 195.546875 22.332031 198 24.125 C 217.675781 38.503906 249.453125 34.96875 261.359375 32.984375 C 292.542969 27.792969 309.46875 16.429688 334.035156 8.449219 C 364.316406 -1.386719 414.953125 0.851563 442.261719 32.753906 C 464.898438 59.203125 461.109375 94.945313 463.03125 113.3125 C 465.511719 137.015625 483.335938 154.746094 503.882813 143.890625 C 504.96875 143.316406 505.570313 143.320313 505.117188 144.996094 C 501.636719 157.839844 493.621094 165.621094 486.277344 169.699219 C 479.746094 173.328125 466.808594 177.445313 454 171.625 C 451.460938 170.46875 450.832031 170.722656 450.375 173.375 C 447.449219 190.332031 441.449219 197.394531 434.023438 203.695313 Z M 471.460938 269.304688 C 445.339844 261.644531 440.328125 226.683594 447.835938 196.667969 C 448.28125 194.882813 450.304688 189.820313 451.222656 187.292969 C 452.144531 184.746094 452.652344 184.785156 452.667969 187.332031 C 452.761719 203.820313 457.53125 216.898438 466.335938 229 C 478.140625 245.230469 498.140625 239.988281 503.835938 230.5 C 504.835938 228.832031 505.5 229.667969 505.664063 231.167969 C 508.191406 253.90625 495.039063 276.21875 471.460938 269.304688 "/>
<path style=" stroke:none;fill-rule:nonzero;fill:rgb(0%,0%,0%);fill-opacity:1;" d="M 332.25 15.875 C 309.574219 25.753906 300.519531 61.3125 319.25 68 C 322.863281 69.289063 323.59375 68.574219 323.699219 66.730469 C 323.796875 65.003906 322.976563 64.738281 320.5 63.75 C 306.066406 57.976563 311.046875 30.566406 332.75 17 C 335.214844 15.460938 335.335938 14.53125 332.25 15.875 "/>
<path style=" stroke:none;fill-rule:nonzero;fill:rgb(0%,0%,0%);fill-opacity:1;" d="M 301.566406 187.621094 C 293.378906 180.277344 286.1875 164.273438 290.25 149.375 C 293.828125 136.253906 303.253906 128.207031 311.25 124.875 C 315.820313 122.96875 314.769531 119.683594 310 120.875 C 300.515625 123.246094 290.785156 135.164063 287.25 148.125 C 282.074219 167.105469 293.492188 184.574219 301.179688 188.886719 C 304.136719 190.546875 304.101563 189.890625 301.566406 187.621094 "/>
<path style=" stroke:none;fill-rule:nonzero;fill:rgb(0%,0%,0%);fill-opacity:1;" d="M 266.089844 175.027344 C 255.613281 166.976563 229.984375 145.730469 204.25 136.601563 C 191.261719 131.992188 166.222656 126.75 150.625 126.75 C 139.601563 126.75 139.859375 133.546875 151.25 132.875 C 168.851563 131.839844 186.117188 133.9375 203.054688 139.683594 C 229.917969 148.792969 243.722656 160.167969 265.414063 175.757813 C 269.398438 178.625 269.964844 178.011719 266.089844 175.027344 "/>
<path style=" stroke:none;fill-rule:nonzero;fill:rgb(0%,0%,0%);fill-opacity:1;" d="M 449.359375 78.003906 C 445.332031 98.457031 426.535156 119.75 407.125 125.25 C 398.601563 127.664063 400.355469 132.328125 408.375 129.625 C 424.816406 124.085938 448.71875 99.628906 450.324219 78.332031 C 450.628906 74.269531 450.140625 74.023438 449.359375 78.003906 "/>
<path style=" stroke:none;fill-rule:nonzero;fill:rgb(0%,0%,0%);fill-opacity:1;" d="M 441.503906 117.503906 C 442.792969 113.484375 442.054688 113.070313 440.410156 117.015625 C 432.078125 137.027344 419.050781 151.84375 401.875 162 C 397.695313 164.472656 397.417969 165.898438 398.789063 166.585938 C 401.238281 167.808594 401.84375 167.441406 407.375 164.125 C 416.15625 158.855469 434.816406 138.378906 441.503906 117.503906 "/>
<path style=" stroke:none;fill-rule:nonzero;fill:rgb(0%,0%,0%);fill-opacity:1;" d="M 447.058594 115.640625 C 443.6875 129.039063 441.285156 139.863281 437.898438 150.382813 C 432.671875 166.621094 425.777344 181.101563 414.699219 195.183594 C 408.753906 202.734375 411.746094 207.34375 417.851563 199.730469 C 427.144531 188.152344 434.816406 171.199219 440.363281 151.78125 C 443.546875 140.640625 445.523438 129.527344 447.984375 116.019531 C 448.761719 111.75 448.117188 111.425781 447.058594 115.640625 "/>
<path style=" stroke:none;fill-rule:nonzero;fill:rgb(0%,0%,0%);fill-opacity:1;" d="M 474.515625 157.726563 C 477.566406 159.496094 480.4375 158.65625 480.890625 157.367188 C 481.363281 156.011719 481.136719 155.234375 477.664063 153.667969 C 461.816406 146.515625 451.117188 121.746094 454.375 99.25 C 454.628906 97.5 454.042969 96.136719 453.375 98.875 C 448.324219 119.566406 456.972656 147.542969 474.515625 157.726563 "/>
<path style=" stroke:none;fill-rule:nonzero;fill:rgb(0%,0%,0%);fill-opacity:1;" d="M 72.5 86.550781 C 44.527344 87.992188 25.105469 113.03125 19.46875 126.414063 C 10.8125 146.964844 20.605469 173.394531 32 177.667969 C 38.496094 180.101563 39.414063 176.222656 33.832031 172.5 C 18.070313 161.992188 16.199219 139.523438 22.066406 127.109375 C 30 110.324219 47.167969 90.8125 72.566406 87.390625 C 77.351563 86.746094 77.410156 86.296875 72.5 86.550781 "/>
</g>
</svg>
