<?xml version="1.0" encoding="UTF-8"?>
<svg xmlns="http://www.w3.org/2000/svg" xmlns:xlink="http://www.w3.org/1999/xlink" width="523pt" height="223pt" viewBox="0 0 523 223" version="1.1">
<g id="surface1">
<path style=" stroke:none;fill-rule:nonzero;fill:rgb(0%,0%,0%);fill-opacity:1;" d="M 517.402344 12.699219 C 504.261719 5.335938 480.722656 -0.90625 458.71875 1.15625 C 433.972656 3.480469 408.027344 24.195313 396.542969 34.914063 C 394.90625 36.445313 394.625 36.207031 394.074219 34.351563 C 390.953125 23.796875 379.425781 17.800781 369.121094 17.191406 C 364.894531 16.9375 364.558594 17.863281 364.304688 21.6875 C 363.429688 34.769531 345.226563 60.925781 315.351563 72.1875 C 313.035156 73.058594 312.691406 73.007813 313.085938 70.296875 C 316.113281 49.59375 291.703125 16.894531 265.679688 20.5 C 260.0625 21.277344 260.550781 22.746094 262.429688 25.003906 C 269.136719 33.0625 276.542969 51.0625 269.046875 62.839844 C 267.859375 64.703125 267.65625 64.867188 266.65625 62.675781 C 254.273438 35.535156 218.433594 25.414063 199.851563 48.417969 C 196.074219 53.089844 196.71875 53.339844 199.589844 54.9375 C 221.339844 67.039063 239.945313 106.921875 211 140 C 163.050781 194.800781 98.605469 166.511719 76.992188 136.074219 C 59.039063 110.796875 57.996094 82.125 71.453125 60.222656 C 82.304688 42.5625 109.730469 29.179688 131.191406 38.046875 C 154.925781 47.847656 159.074219 77.527344 145.335938 87.835938 C 131.28125 98.371094 112.0625 83.914063 125.960938 74.253906 C 129.601563 71.722656 128.222656 67.570313 123.5625 67.625 C 105.375 67.84375 92.988281 85.953125 98 108.5 C 103.128906 131.570313 131.4375 144.148438 152.558594 131.304688 C 154.417969 130.175781 154.695313 130.332031 155.144531 132.183594 C 157.921875 143.667969 179.828125 157.957031 200.984375 138.988281 C 203.679688 136.570313 203.773438 134.316406 199.558594 133.972656 C 193.160156 133.449219 189.191406 127.898438 186.820313 121.382813 C 183.449219 112.117188 184.304688 81.816406 181.085938 67.285156 C 167.746094 7.054688 108.414063 -5.296875 69.082031 17.203125 C 36.765625 35.683594 33.214844 66.453125 37.773438 89.984375 C 38.015625 91.226563 37.714844 91.195313 36.636719 90.421875 C 15.871094 75.527344 -11.8125 108.566406 5.875 131.644531 C 8.015625 134.4375 8.234375 134.308594 9.25 131.0625 C 16.230469 108.71875 32.207031 110.925781 38.523438 119.230469 C 52.132813 137.117188 27.085938 163.808594 6.082031 149.160156 C 2.332031 146.542969 1.53125 146.070313 0.96875 151.746094 C -2.152344 183.125 46.722656 201.09375 62.769531 159.355469 C 63.703125 156.925781 63.988281 156.960938 65.5 159.332031 C 83.300781 187.308594 112.984375 199.722656 146.25 199.5625 C 165.644531 199.46875 182.089844 194.085938 200.953125 186.628906 C 236.785156 172.464844 273.613281 154.441406 302.722656 174.789063 C 322.371094 188.523438 316.917969 214.464844 299.429688 219.222656 C 294.519531 220.558594 295.226563 223.285156 300.125 222.191406 C 358.484375 209.160156 363.074219 133.84375 319.125 120.875 C 316.894531 120.214844 316.453125 119.992188 319.128906 119.195313 C 333.878906 114.800781 354.5625 115.378906 366.027344 125.410156 C 372.09375 130.71875 373.164063 128.648438 371.867188 122.984375 C 367.28125 102.933594 359.324219 87.0625 338.96875 79.910156 C 336.144531 78.917969 335.890625 78.71875 339.351563 78.066406 C 356.402344 74.855469 383.863281 73.6875 404.152344 90.152344 C 408.335938 93.550781 409.25 93.675781 411.496094 88.996094 C 415.921875 79.785156 414.8125 69.765625 409.226563 62.644531 C 407.101563 59.929688 407.351563 59.820313 410.234375 58.828125 C 417.097656 56.476563 445.675781 39.734375 450.835938 36.835938 C 470.832031 25.585938 491.808594 14.386719 516.378906 18.285156 C 524.058594 19.503906 524.195313 16.5 517.402344 12.699219 Z M 337.644531 83.683594 C 352.253906 88.816406 360.824219 98.6875 366.203125 117.0625 C 367.023438 119.867188 366.734375 120.648438 363.902344 118.953125 C 350.699219 111.058594 331.5625 111.316406 317.984375 115.359375 C 313.160156 116.796875 309.265625 118.328125 306.828125 119.664063 C 301.421875 122.625 302.359375 123.101563 307.105469 123.296875 C 310.097656 123.417969 315.148438 123.871094 317.992188 124.710938 C 334.75 129.65625 345.144531 145.726563 344.472656 165.652344 C 344.003906 179.632813 337.71875 194.988281 324.933594 205.820313 C 317.425781 212.175781 317.046875 212.132813 318.765625 202.246094 C 320.816406 190.453125 315.675781 178.960938 305.015625 171.507813 C 276.726563 151.734375 242.328125 165.628906 209.0625 179.066406 L 199.480469 182.910156 C 179.378906 190.855469 164.222656 195.472656 146.230469 195.5625 C 122.15625 195.679688 89.195313 189.117188 68.875 157.183594 C 67.464844 154.972656 65.5 152.121094 64.660156 150.65625 C 62.128906 146.238281 61.820313 146.585938 61.023438 152.074219 C 60.839844 153.328125 59.757813 156.046875 59.035156 157.917969 C 51.476563 177.578125 36.714844 181.714844 25.417969 179.03125 C 15.128906 176.589844 5.339844 167.921875 4.84375 155.628906 C 4.769531 153.839844 5.152344 153.40625 6.792969 154.289063 C 18.832031 160.753906 31.253906 156.386719 38.679688 148.648438 C 47.628906 139.320313 48.875 126.226563 41.707031 116.808594 C 37.503906 111.285156 30.519531 108.464844 23.917969 109.621094 C 19.863281 110.335938 12.972656 113.113281 7.980469 123.367188 C 7.054688 125.265625 6.527344 125.402344 5.75 123.449219 C 1.894531 113.738281 5.675781 103.503906 11.78125 97.203125 C 17.21875 91.589844 25.996094 87.710938 34.304688 93.671875 C 35.910156 94.824219 38.871094 97.945313 39.902344 99.144531 C 41.898438 101.46875 43.070313 101.933594 42.972656 98.121094 C 42.917969 96.023438 42.40625 92.855469 41.703125 89.226563 C 38.332031 71.824219 37.660156 39.78125 71.066406 20.675781 C 91.417969 9.03125 116.933594 7.496094 137.65625 16.667969 C 151.878906 22.960938 170.28125 37.003906 177.179688 68.152344 C 178.648438 74.785156 179.246094 85.136719 179.820313 95.148438 C 180.507813 107.070313 181.101563 117.363281 183.058594 122.753906 C 185.996094 130.816406 190.121094 134.765625 194.035156 136.589844 C 195.863281 137.441406 196 137.972656 194.816406 138.808594 C 187.59375 143.925781 179.753906 145.484375 172.375 143.191406 C 165.03125 140.910156 160.019531 135.332031 159.03125 131.242188 C 157.289063 124.03125 156.945313 123.957031 150.480469 127.890625 C 141.613281 133.28125 130.824219 133.941406 120.875 129.703125 C 111.144531 125.554688 104.054688 117.304688 101.90625 107.632813 C 99.53125 96.960938 101.335938 86.851563 106.847656 79.894531 C 110.480469 75.308594 115.484375 72.484375 121.121094 71.792969 C 121.9375 71.691406 122.238281 72.039063 121.636719 72.582031 C 117.351563 76.464844 116.980469 80.535156 117.195313 82.777344 C 117.636719 87.378906 120.996094 91.492188 126.183594 93.78125 C 131.625 96.183594 140.148438 96.722656 147.734375 91.03125 C 154.804688 85.730469 158.21875 76.203125 156.871094 65.546875 C 155.121094 51.734375 145.867188 39.777344 132.71875 34.347656 C 109.1875 24.628906 79.75 39.078125 68.046875 58.128906 C 53.363281 82.023438 55.542969 112.777344 73.730469 138.390625 C 85.855469 155.464844 112 173.398438 143.078125 174.972656 C 161.699219 175.917969 189.125 171.074219 214.011719 142.632813 C 230.34375 123.96875 231.164063 105.039063 228.976563 92.445313 C 226.144531 76.148438 216.425781 60.921875 203.890625 52.855469 C 202.429688 51.914063 202.648438 51.226563 203.976563 49.730469 C 210.78125 42.070313 220.242188 38.597656 230.792969 39.929688 C 244.386719 41.648438 257.035156 51.226563 263.015625 64.335938 C 266.96875 72.992188 267.574219 72.601563 272.421875 64.988281 C 280.035156 53.027344 274.902344 36.136719 268.015625 25.824219 C 267.410156 24.921875 267.351563 24.261719 269.25 24.238281 C 277.839844 24.121094 287.007813 28.414063 294.851563 36.316406 C 304.683594 46.226563 310.554688 59.960938 309.128906 69.71875 C 308.089844 76.8125 304.910156 83.507813 304.910156 83.507813 L 308.179688 84.316406 C 308.179688 84.316406 308.808594 82.796875 311.828125 81.882813 C 316.742188 80.402344 326.34375 79.714844 337.644531 83.683594 Z M 507.144531 13.503906 C 484.605469 12.191406 464.996094 24.277344 448.871094 33.347656 L 444.535156 35.828125 C 435.488281 41.027344 414.296875 53.210938 408.9375 55.046875 C 407.058594 55.691406 402.316406 57.367188 401.164063 57.566406 C 398.523438 58.027344 398.40625 58.851563 400.78125 60.339844 C 402.132813 61.1875 404.492188 63.089844 406.078125 65.109375 C 410.433594 70.664063 411.386719 78.234375 408.734375 85.292969 C 407.933594 87.429688 407.394531 87.578125 405.425781 86.0625 C 385.863281 71.023438 361.023438 70.953125 344.769531 73.144531 C 342.546875 73.441406 333.480469 75.285156 331.613281 75.636719 L 322.324219 73.902344 C 327.554688 71.128906 337.335938 65.191406 341.640625 61.769531 C 357.714844 48.996094 367.125 32.945313 368.226563 22.746094 C 368.355469 21.554688 368.777344 21.152344 369.875 21.261719 C 378.300781 22.085938 387.761719 27.105469 390.242188 35.488281 C 392.496094 43.109375 392.777344 43.902344 399.273438 37.839844 C 406.839844 30.777344 433.519531 7.539063 459.089844 5.140625 C 476.457031 3.511719 494.609375 7.308594 507.304688 12.363281 C 509.742188 13.335938 509.871094 13.664063 507.144531 13.503906 "/>
<path style=" stroke:none;fill-rule:nonzero;fill:rgb(0%,0%,0%);fill-opacity:1;" d="M 175.75 132.5 C 179.070313 136.613281 182 134.140625 179.25 129.125 C 173.835938 119.246094 170.207031 109.851563 171.671875 96.894531 C 172.121094 92.945313 170.234375 92.632813 169.335938 96.519531 C 167.433594 104.761719 169.347656 124.5625 175.75 132.5 "/>
<path style=" stroke:none;fill-rule:nonzero;fill:rgb(0%,0%,0%);fill-opacity:1;" d="M 139.25 117 C 131.914063 119.976563 133.21875 126.765625 141.375 123 C 157.277344 115.660156 178.597656 86.382813 164.5 58.25 C 162.691406 54.640625 162.140625 54.992188 163.5 58.5 C 173.257813 83.691406 157.511719 109.59375 139.25 117 "/>
<path style=" stroke:none;fill-rule:nonzero;fill:rgb(0%,0%,0%);fill-opacity:1;" d="M 230.125 136.875 C 248.148438 113.699219 251.078125 79.800781 242.5 65.5 C 239.113281 59.855469 237.429688 59.9375 237 65.5 C 236.875 67.125 238.75 76.125 239.375 78.125 C 244.261719 93.761719 243.570313 113.449219 228.75 136 C 225.222656 141.367188 226.625 141.375 230.125 136.875 "/>
<path style=" stroke:none;fill-rule:nonzero;fill:rgb(0%,0%,0%);fill-opacity:1;" d="M 252.738281 127.484375 C 264.863281 118.160156 286.339844 88.546875 291 65.25 C 291.347656 63.511719 291.070313 60.238281 289.625 59 C 288.40625 57.957031 287.21875 57.003906 286.125 61.375 C 281.65625 79.25 276.039063 100.351563 251.851563 126.484375 C 248.632813 129.964844 248.871094 130.457031 252.738281 127.484375 "/>
<path style=" stroke:none;fill-rule:nonzero;fill:rgb(0%,0%,0%);fill-opacity:1;" d="M 314.125 99.625 C 290.671875 103.703125 256.371094 127.378906 239.75 144 C 237.246094 146.503906 237.671875 147.035156 240.375 144.75 C 265.085938 123.867188 290.621094 110.296875 315.5 104.375 C 323.003906 102.589844 321.953125 98.265625 314.125 99.625 "/>
<path style=" stroke:none;fill-rule:nonzero;fill:rgb(0%,0%,0%);fill-opacity:1;" d="M 215.375 164.25 C 212.628906 166.539063 213.257813 167.261719 216.25 165.125 C 246.488281 143.527344 296.347656 134.222656 315.625 153.875 C 321.886719 160.257813 325.902344 153.550781 319.5 148.75 C 288.875 125.78125 232.078125 150.328125 215.375 164.25 "/>
</g>
</svg>
