<?xml version="1.0" encoding="UTF-8"?>
<svg xmlns="http://www.w3.org/2000/svg" xmlns:xlink="http://www.w3.org/1999/xlink" width="532pt" height="563pt" viewBox="0 0 532 563" version="1.1">
<g id="surface1">
<path style=" stroke:none;fill-rule:nonzero;fill:rgb(0%,0%,0%);fill-opacity:1;" d="M 515.25 442.953125 C 498.21875 441.734375 462.324219 441.542969 462.324219 441.542969 L 462.253906 347.359375 L 511.664063 347.359375 L 511.789063 215.152344 L 462.800781 215.152344 L 462.800781 120.96875 C 462.800781 120.96875 501.832031 121.582031 509.847656 117.335938 C 531.898438 105.664063 530.175781 83.472656 508.613281 46.117188 C 500.90625 32.765625 491.574219 21.765625 483.222656 14.164063 C 452.394531 -13.894531 426.976563 4.222656 427.027344 27.777344 C 427.050781 37.820313 427.027344 85.484375 427.027344 85.484375 L 328.21875 85.484375 L 328.21875 35.820313 L 196.550781 35.820313 L 196.550781 85.484375 L 103.660156 85.679688 C 103.660156 85.679688 106.242188 55.785156 97.285156 23.109375 C 95.015625 14.820313 80.710938 -3.191406 55.703125 10.652344 C 40.539063 19.046875 23.871094 50.238281 18.015625 63.710938 C 14.320313 72.214844 2.164063 95.277344 1.496094 99.777344 C 0.832031 104.277344 3 116.222656 16.832031 118.554688 C 30.667969 120.890625 66.757813 119.96875 66.757813 119.96875 L 66.832031 215.152344 L 19.417969 215.152344 L 19.292969 347.359375 L 69.285156 347.359375 L 69.285156 441.542969 C 69.285156 441.542969 30.25 440.929688 22.234375 445.175781 C 0.183594 456.847656 1.90625 479.039063 23.46875 516.390625 C 31.175781 529.742188 40.507813 540.746094 48.859375 548.347656 C 79.6875 576.40625 105.105469 558.289063 105.054688 534.734375 C 105.03125 524.691406 105.054688 477.023438 105.054688 477.023438 L 202.863281 477.023438 L 202.863281 526.691406 L 335.53125 526.691406 L 335.53125 477.023438 L 428.425781 476.832031 C 428.425781 476.832031 425.839844 506.726563 434.796875 539.402344 C 437.066406 547.691406 451.371094 565.703125 476.378906 551.859375 C 491.542969 543.464844 508.214844 512.273438 514.066406 498.800781 C 517.765625 490.296875 529.917969 467.230469 530.585938 462.730469 C 531.644531 455.59375 528.851563 443.929688 515.25 442.953125 Z M 519.140625 72.351563 C 519.484375 73.128906 532.15625 102.617188 507.15625 113.722656 C 497.824219 117.871094 476.886719 116.800781 476.886719 116.800781 L 462.886719 116.800781 L 462.886719 88.214844 L 491.132813 88.214844 C 491.132813 88.210938 491.136719 88.195313 491.136719 88.195313 C 499.421875 88.191406 506.515625 88.328125 510.652344 84.628906 C 514.414063 81.261719 515.753906 76.421875 516.210938 72.859375 C 516.867188 67.683594 516.050781 65.402344 519.140625 72.351563 Z M 513.140625 67.015625 C 514.886719 72.070313 512.714844 83.097656 501.726563 85.152344 C 497.425781 85.957031 461.847656 85.328125 461.847656 85.328125 C 461.847656 85.328125 461.621094 61.21875 467.121094 50.113281 C 469.914063 44.46875 474.097656 41.660156 478.894531 41.152344 C 490.613281 39.914063 501.113281 47.253906 506.179688 53.894531 C 509.011719 57.609375 511.460938 62.167969 513.140625 67.015625 Z M 430.179688 30.636719 C 432.503906 3.148438 453.078125 -4.859375 475.8125 12.53125 C 478.890625 14.886719 482.085938 17.808594 485.367188 21.402344 C 490.011719 26.488281 497.664063 36.078125 502.296875 41.964844 C 503.304688 43.246094 504.546875 45.109375 505.640625 46.824219 C 507.09375 49.105469 506.691406 49.421875 504.707031 47.648438 C 502.226563 45.429688 495.425781 42.074219 493.226563 41.152344 C 478.980469 35.179688 466.234375 39.417969 462.03125 53.3125 C 460.226563 59.28125 458.660156 85.492188 458.660156 85.492188 L 458.800781 215.859375 L 430.03125 215.859375 L 430.070313 57.324219 L 430.089844 57.324219 C 429.929688 45.800781 429.867188 34.328125 430.179688 30.636719 Z M 508.171875 217.8125 L 508.1875 217.8125 L 508.230469 344.5625 L 508.148438 344.5625 L 508.148438 344.582031 L 462.21875 344.582031 L 462.21875 330.21875 L 494.863281 330.21875 L 494.914063 232.175781 L 393.710938 232.175781 L 393.761719 330.21875 L 426.71875 330.21875 L 426.71875 344.582031 L 381.480469 344.582031 L 381.480469 344.5625 L 381.398438 344.5625 L 381.414063 295.957031 L 320.0625 295.957031 L 331.0625 282.152344 L 331.0625 267.039063 L 381.421875 267.039063 L 381.4375 217.8125 Z M 461.5625 327.789063 L 461.5625 235 L 492.527344 235 L 492.527344 327.789063 Z M 458.800781 234.984375 L 458.695313 442.300781 L 430.105469 442.300781 L 430.070313 234.984375 Z M 426.878906 235.207031 L 426.878906 328 L 395.914063 328 L 395.914063 235.207031 Z M 188.050781 376.632813 L 188.113281 298.898438 L 202.363281 298.898438 L 202.414063 362.375 L 336.460938 362.324219 L 336.507813 298.859375 L 350.757813 298.859375 L 350.820313 376.609375 L 350.800781 376.609375 L 350.800781 376.691406 L 188.054688 376.648438 L 188.054688 376.632813 Z M 344.03125 185.878906 L 343.96875 263.609375 L 329.71875 263.609375 L 329.667969 200.136719 L 195.621094 200.1875 L 195.574219 263.652344 L 181.324219 263.652344 L 181.261719 185.902344 L 181.28125 185.902344 L 181.28125 185.820313 L 344.027344 185.859375 L 344.027344 185.878906 Z M 286.6875 330.0625 L 314.355469 330.074219 L 314.355469 301.25 L 316.75 299.203125 L 333.742188 299.203125 L 333.742188 359.5625 L 286.695313 359.5625 L 286.695313 336.023438 Z M 232.550781 266.984375 L 244.714844 266.984375 L 244.714844 296.296875 L 232.550781 296.296875 Z M 232.3125 263.625 L 232.253906 250.875 L 244.621094 250.875 L 244.5625 263.625 Z M 245.386719 298.984375 L 245.386719 310.609375 L 234.21875 298.984375 Z M 229.960938 247.96875 L 229.800781 295.328125 L 217.636719 282.734375 L 217.625 235 L 266.460938 235 L 278.015625 248.035156 Z M 241.125 232.375 L 244.625 229.652344 L 244.625 232.375 Z M 247.96875 251.070313 L 275.4375 251.070313 L 275.4375 263.820313 L 247.96875 263.820313 Z M 275.472656 267.007813 L 275.660156 296.308594 L 248.191406 296.308594 L 248.003906 267.007813 Z M 275.378906 298.519531 L 275.378906 310.609375 L 248.34375 310.609375 L 248.34375 298.519531 Z M 296.636719 313.089844 L 296.636719 267.019531 L 310.800781 281.984375 L 310.800781 327.328125 L 265.199219 327.257813 L 262.28125 327.257813 L 248.3125 313.089844 Z M 293.515625 266.984375 L 293.515625 296.296875 L 279.351563 296.296875 L 279.351563 266.984375 Z M 279.386719 251.078125 L 280.136719 251.078125 L 291.628906 263.152344 L 291.632813 263.828125 L 279.46875 263.828125 Z M 293.148438 298.984375 L 293.148438 310.609375 L 279.46875 310.609375 L 279.46875 298.984375 Z M 313.628906 298.800781 L 313.550781 281.320313 L 265.027344 229.5 L 261.789063 232.738281 L 248.375 232.554688 L 248.375 225.75 L 262.351563 212.734375 L 328.566406 281.96875 Z M 248.316406 202.820313 L 275.386719 202.820313 L 275.386719 222.652344 L 263.050781 207.652344 L 248.375 222.75 Z M 327.386719 263.308594 L 314.71875 263.308594 L 310.996094 258.484375 L 310.996094 232.4375 L 285.003906 232.4375 L 279.339844 226.484375 L 279.339844 202.949219 L 327.386719 202.949219 Z M 328.367188 267.019531 L 328.367188 277.984375 L 318.550781 267.019531 Z M 300.21875 247.859375 L 287.71875 234.839844 L 308.210938 234.824219 L 308.140625 247.855469 Z M 307.859375 255.320313 L 303.71875 251.078125 L 307.839844 251.078125 Z M 198.339844 202.949219 L 244.386719 202.949219 L 244.625 226.625 L 238.71875 232.4375 L 214.730469 232.4375 L 214.730469 248.308594 L 198.339844 248.308594 Z M 214.902344 251.070313 L 214.882813 256.050781 L 206.96875 263.820313 L 198.59375 263.820313 L 198.53125 251.070313 Z M 214.886719 259.027344 L 214.886719 282.714844 L 261.949219 329.984375 L 282.71875 329.984375 L 263.050781 350.636719 L 224.347656 314.671875 L 192.046875 282.476563 Z M 284.050781 332.1875 L 284.050781 359.652344 L 250.695313 359.691406 L 250.695313 341.859375 L 263.03125 354.859375 Z M 236.496094 329.9375 L 216.636719 329.9375 L 216.664063 310.609375 Z M 205.695313 299.203125 L 206.59375 299.203125 L 214.089844 307.234375 L 214.089844 333.074219 L 241.078125 333.074219 L 247.742188 339.023438 L 247.742188 359.5625 L 205.695313 359.5625 Z M 426.589844 214.910156 L 377.597656 214.910156 L 377.597656 263.878906 L 347.046875 263.878906 L 346.734375 182.820313 L 280.007813 182.820313 L 280.007813 168.820313 L 329.046875 168.820313 L 329.046875 119.96875 L 426.589844 119.96875 Z M 426.46875 88.195313 L 426.46875 116.785156 L 216.050781 116.785156 L 216.050781 88.195313 Z M 308.636719 120.171875 L 308.636719 151.136719 L 215.84375 151.136719 L 215.84375 120.171875 Z M 216.050781 85.484375 L 216.050781 54.523438 L 308.84375 54.523438 L 308.84375 85.484375 Z M 199.261719 37.902344 L 199.28125 37.902344 L 199.28125 37.820313 L 326.027344 37.859375 L 326.027344 37.878906 L 326.03125 37.878906 L 326.03125 85.484375 L 311.667969 85.484375 L 311.667969 52.136719 L 213.621094 52.1875 L 213.621094 153.285156 L 311.667969 153.339844 L 311.667969 119.984375 L 325.960938 119.96875 L 326.03125 166.59375 L 326.027344 166.59375 L 326.027344 166.613281 L 276.800781 166.628906 L 276.800781 182.984375 L 247.886719 182.984375 L 247.886719 166.636719 L 199.28125 166.652344 L 199.28125 166.570313 L 199.261719 166.570313 Z M 245.589844 168.820313 L 245.589844 182.820313 L 178.863281 182.820313 L 178.550781 263.878906 L 151.996094 263.878906 L 151.996094 214.910156 L 105.007813 214.910156 L 105.007813 119.96875 L 196.550781 119.96875 L 196.550781 168.820313 Z M 46.410156 21.402344 C 62.683594 3.578125 78.996094 7.863281 86.582031 13.011719 C 96.777344 19.929688 99.636719 43.199219 100.304688 57.210938 L 101.136719 85.679688 L 71.175781 85.484375 C 71.175781 85.484375 71.667969 74.773438 71.167969 62.273438 C 70.335938 41.394531 55.503906 34.046875 38.550781 41.152344 C 35.097656 42.601563 29.21875 46.484375 29.21875 46.484375 C 29.21875 46.484375 39.410156 29.070313 46.410156 21.402344 Z M 18.640625 67.015625 C 20.316406 62.167969 22.769531 57.609375 25.597656 53.894531 C 30.664063 47.253906 41.164063 39.914063 52.886719 41.152344 C 60.558594 41.964844 66.65625 48.671875 68.023438 63.441406 C 69.023438 74.273438 67.011719 85.484375 67.011719 85.484375 C 67.011719 85.484375 34.351563 85.957031 30.050781 85.152344 C 19.066406 83.097656 16.890625 72.070313 18.640625 67.015625 Z M 47.550781 116.800781 C 47.550781 116.800781 20.882813 117.527344 12.761719 115.003906 C 4.636719 112.484375 2.324219 101.113281 2.886719 99.984375 C 3.445313 98.859375 14.917969 72.71875 14.917969 72.71875 C 14.917969 72.71875 17.21875 80.652344 21.660156 84.628906 C 25.796875 88.328125 32.890625 88.191406 41.175781 88.195313 C 41.175781 88.195313 41.179688 88.210938 41.179688 88.214844 L 196.425781 88.214844 L 196.425781 116.800781 Z M 100.222656 121.324219 L 100.222656 327.738281 L 71.632813 327.738281 L 71.632813 121.324219 Z M 12.941406 490.15625 C 12.597656 489.382813 -0.0703125 459.894531 24.925781 448.785156 C 34.257813 444.640625 55.199219 445.710938 55.199219 445.710938 L 69.199219 445.710938 L 69.199219 474.296875 L 40.953125 474.296875 C 40.949219 474.300781 40.949219 474.316406 40.949219 474.316406 C 32.660156 474.320313 25.566406 474.179688 21.429688 477.882813 C 17.667969 481.25 16.328125 486.089844 15.875 489.652344 C 15.214844 494.828125 16.03125 497.109375 12.941406 490.15625 Z M 18.945313 495.496094 C 17.195313 490.441406 19.371094 479.410156 30.355469 477.359375 C 34.65625 476.554688 70.238281 477.183594 70.238281 477.183594 C 70.238281 477.183594 70.460938 501.292969 64.960938 512.398438 C 62.167969 518.042969 57.984375 520.851563 53.191406 521.359375 C 41.46875 522.597656 30.96875 515.257813 25.90625 508.617188 C 23.074219 504.902344 20.621094 500.34375 18.945313 495.496094 Z M 101.902344 531.875 C 99.582031 559.363281 79.003906 567.371094 56.269531 549.980469 C 53.191406 547.625 49.996094 544.703125 46.714844 541.105469 C 42.074219 536.023438 34.417969 526.433594 29.789063 520.546875 C 28.78125 519.265625 27.535156 517.402344 26.445313 515.6875 C 24.988281 513.40625 25.390625 513.089844 27.375 514.863281 C 29.855469 517.082031 36.65625 520.4375 38.855469 521.359375 C 53.101563 527.332031 65.847656 523.09375 70.050781 509.199219 C 71.859375 503.226563 73.421875 477.015625 73.421875 477.015625 L 73.285156 346.648438 L 102.050781 346.648438 L 102.011719 505.1875 L 101.992188 505.1875 C 102.15625 516.707031 102.214844 528.179688 101.902344 531.875 Z M 22.144531 344.582031 L 22.144531 344.5625 L 22.0625 344.5625 L 22.105469 217.8125 L 68.730469 217.8125 L 68.730469 232.175781 L 35.378906 232.175781 L 35.429688 330.21875 L 136.527344 330.21875 L 136.582031 232.175781 L 103.230469 232.175781 L 103.210938 217.882813 L 148.835938 217.8125 L 148.855469 217.8125 L 148.871094 267.039063 L 204.230469 267.039063 L 189.230469 282.820313 L 203.230469 295.957031 L 148.878906 295.957031 L 148.894531 344.5625 L 148.8125 344.5625 L 148.8125 344.582031 Z M 68.730469 235 L 68.730469 327.789063 L 37.765625 327.789063 L 37.765625 235 Z M 103.414063 328 L 103.414063 235.207031 L 134.378906 235.207031 L 134.378906 328 Z M 105.492188 346.601563 L 152.484375 346.601563 L 152.484375 298.632813 L 185.035156 298.632813 L 185.351563 379.691406 L 248.074219 379.691406 L 248.074219 393.691406 L 203.035156 393.691406 L 203.035156 442.542969 L 105.492188 442.542969 Z M 105.613281 474.316406 L 105.613281 445.726563 L 316.03125 445.726563 L 316.03125 474.316406 Z M 223.449219 442.339844 L 223.449219 411.378906 L 316.238281 411.378906 L 316.238281 442.339844 Z M 316.03125 477.023438 L 316.03125 507.988281 L 223.238281 507.988281 L 223.238281 477.023438 Z M 332.820313 524.609375 L 332.800781 524.609375 L 332.800781 524.691406 L 206.054688 524.648438 L 206.054688 524.632813 L 206.050781 524.632813 L 206.050781 477.023438 L 220.414063 477.023438 L 220.414063 510.375 L 318.460938 510.324219 L 318.460938 409.226563 L 220.414063 409.171875 L 220.414063 442.523438 L 206.125 442.542969 L 206.050781 395.917969 L 206.054688 395.917969 L 206.054688 395.898438 L 251.28125 395.882813 L 251.28125 379.523438 L 284.195313 379.523438 L 284.195313 395.871094 L 332.800781 395.859375 L 332.800781 395.941406 L 332.820313 395.941406 Z M 286.492188 393.691406 L 286.492188 379.691406 L 353.21875 379.691406 L 353 298.625 L 378.085938 298.632813 L 378.085938 347.601563 L 427.074219 347.601563 L 427.074219 442.542969 L 335.53125 442.542969 L 335.53125 393.691406 Z M 485.675781 541.105469 C 469.398438 558.933594 453.085938 554.648438 445.5 549.5 C 435.304688 542.582031 432.445313 519.308594 431.777344 505.296875 L 430.945313 476.832031 L 460.90625 477.023438 C 460.90625 477.023438 460.414063 487.738281 460.914063 500.238281 C 461.746094 521.113281 476.578125 528.464844 493.53125 521.359375 C 496.984375 519.910156 502.863281 516.023438 502.863281 516.023438 C 502.863281 516.023438 492.675781 533.441406 485.675781 541.105469 Z M 513.441406 495.496094 C 511.765625 500.34375 509.316406 504.902344 506.484375 508.617188 C 501.421875 515.257813 490.917969 522.597656 479.195313 521.359375 C 471.523438 520.546875 465.425781 513.839844 464.0625 499.070313 C 463.0625 488.234375 465.070313 477.023438 465.070313 477.023438 C 465.070313 477.023438 497.730469 476.554688 502.03125 477.359375 C 513.019531 479.410156 515.191406 490.441406 513.441406 495.496094 Z M 527.121094 467.164063 C 523.671875 474.964844 517.164063 489.792969 517.164063 489.792969 C 517.164063 489.792969 514.863281 481.859375 510.421875 477.882813 C 506.285156 474.179688 499.191406 474.320313 490.90625 474.316406 C 490.90625 474.316406 490.902344 474.300781 490.902344 474.296875 L 335.65625 474.296875 L 335.65625 445.710938 L 484.53125 445.710938 C 484.53125 445.710938 511.199219 444.984375 519.324219 447.507813 C 527.207031 449.953125 529.992188 460.679688 527.121094 467.164063 "/>
</g>
</svg>
