<?xml version="1.0" encoding="UTF-8"?>
<svg xmlns="http://www.w3.org/2000/svg" xmlns:xlink="http://www.w3.org/1999/xlink" width="375pt" height="639pt" viewBox="0 0 375 639" version="1.1">
<g id="surface1">
<path style=" stroke:none;fill-rule:nonzero;fill:rgb(0%,0%,0%);fill-opacity:1;" d="M 351.75 200.695313 C 332.074219 206.132813 212.683594 236.335938 212.683594 235.550781 C 212.683594 233.464844 315.777344 172.65625 335.890625 166.1875 C 338.054688 165.296875 338.191406 163.796875 336.621094 162.226563 C 330.347656 156.839844 187.691406 0.558594 187.691406 0.558594 C 187.691406 0.558594 45.039063 156.839844 38.761719 162.226563 C 37.191406 163.796875 37.332031 165.296875 39.496094 166.1875 C 59.605469 172.65625 162.699219 233.464844 162.699219 235.550781 C 162.699219 236.335938 43.3125 206.132813 23.636719 200.695313 C -1.4375 242.925781 -3.566406 328.695313 5.738281 338 C 7.773438 336.03125 167.078125 249.378906 167.078125 249.378906 C 167.078125 249.378906 123.234375 577.867188 119.558594 604.082031 C 127.984375 612.867188 151.417969 638.40625 151.417969 638.40625 L 223.96875 638.40625 C 223.96875 638.40625 247.398438 612.867188 255.828125 604.082031 C 252.152344 577.867188 208.308594 249.378906 208.308594 249.378906 C 208.308594 249.378906 367.609375 336.03125 369.648438 338 C 378.953125 328.695313 376.824219 242.925781 351.75 200.695313 Z M 187.691406 217.691406 L 120.738281 159.746094 L 187.691406 95.488281 L 254.648438 159.746094 L 187.691406 217.691406 "/>
</g>
</svg>
