<?xml version="1.0" encoding="UTF-8"?>
<svg xmlns="http://www.w3.org/2000/svg" xmlns:xlink="http://www.w3.org/1999/xlink" width="562pt" height="539pt" viewBox="0 0 562 539" version="1.1">
<g id="surface1">
<path style=" stroke:none;fill-rule:nonzero;fill:rgb(0%,0%,0%);fill-opacity:1;" d="M 247.511719 65.085938 C 272.40625 99.292969 280.226563 118.246094 280.304688 118.433594 L 285 130 C 285.003906 130.007813 289.6875 118.433594 289.6875 118.433594 L 289.683594 118.4375 C 290.027344 117.59375 324.511719 34.324219 388.203125 26.363281 C 439.058594 20.003906 477.105469 37.003906 498.226563 75.519531 C 511.632813 99.964844 517.050781 130.210938 515.203125 163.21875 L 520.386719 168.269531 C 528.648438 78.605469 487.703125 8.824219 387.574219 21.339844 C 320.105469 29.773438 284.996094 116.535156 284.996094 116.535156 C 284.996094 116.535156 277.285156 97.398438 251.601563 62.109375 C 226.441406 27.539063 176.199219 15.753906 144.171875 19.75 L 142.144531 25.210938 C 171.242188 20.722656 222.140625 30.230469 247.511719 65.085938 "/>
<path style=" stroke:none;fill-rule:nonzero;fill:rgb(0%,0%,0%);fill-opacity:1;" d="M 434.539063 363.90625 C 450.632813 344.480469 464.625 323.871094 476.398438 302.777344 L 474.140625 296.710938 C 462.082031 318.730469 447.523438 340.304688 430.640625 360.675781 C 347.578125 460.925781 297.683594 492.539063 285.71875 499.25 C 268.648438 484.253906 172.347656 399.175781 143.648438 363.160156 C 131.785156 348.269531 120.980469 332.976563 111.308594 317.511719 L 109.40625 323.9375 C 118.695313 338.496094 128.84375 352.695313 139.691406 366.3125 C 171.710938 406.5 284.996094 505.347656 284.996094 505.347656 C 284.996094 505.347656 336.703125 481.980469 434.539063 363.90625 "/>
<path style=" stroke:none;fill-rule:nonzero;fill:rgb(0%,0%,0%);fill-opacity:1;" d="M 101.476563 301.046875 C 83.019531 268.632813 69.605469 235.835938 61.945313 204.769531 L 57.828125 209.667969 C 66.273438 242.042969 80.675781 275.445313 99.410156 307.5625 L 101.476563 301.046875 "/>
<path style=" stroke:none;fill-rule:nonzero;fill:rgb(0%,0%,0%);fill-opacity:1;" d="M 62.375 98.175781 L 56.828125 98.769531 C 47.902344 125.652344 47.285156 156.597656 53.253906 189.132813 L 57.875 185.359375 C 53.15625 157.929688 53.300781 132.292969 58.835938 110.035156 C 59.847656 105.960938 61.027344 102.007813 62.375 98.175781 "/>
<path style=" stroke:none;fill-rule:nonzero;fill:rgb(0%,0%,0%);fill-opacity:1;" d="M 61.773438 85.609375 L 68.921875 82.996094 C 72.640625 75.816406 77.058594 69.152344 82.175781 63.015625 L 70.878906 69.753906 C 67.632813 74.636719 64.253906 80.316406 61.773438 85.609375 "/>
<path style=" stroke:none;fill-rule:nonzero;fill:rgb(0%,0%,0%);fill-opacity:1;" d="M 495.664063 263.28125 L 495.804688 249.886719 C 491.035156 262.441406 485.433594 275.019531 479.03125 287.492188 L 479.730469 296.691406 C 485.652344 285.636719 490.96875 274.46875 495.664063 263.28125 "/>
<path style=" stroke:none;fill-rule:nonzero;fill:rgb(0%,0%,0%);fill-opacity:1;" d="M 57.765625 40.597656 C 79.054688 45.4375 84.21875 49.878906 84.21875 49.878906 L 85.316406 47.152344 C 85.316406 47.152344 86.382813 36.921875 65.09375 32.078125 C 52.351563 29.183594 42.027344 35.335938 38.417969 43.648438 C 43.394531 40.378906 50.144531 38.863281 57.765625 40.597656 "/>
<path style=" stroke:none;fill-rule:nonzero;fill:rgb(0%,0%,0%);fill-opacity:1;" d="M 153.984375 47.09375 C 157.59375 35.914063 151.871094 28.246094 141.335938 26.570313 C 145.832031 30.660156 146.0625 35.351563 143.804688 42.34375 C 138.179688 59.757813 121.933594 54.921875 104.019531 50.945313 L 104.722656 53.777344 C 116.863281 62.785156 148.363281 64.511719 153.984375 47.09375 "/>
<path style=" stroke:none;fill-rule:nonzero;fill:rgb(0%,0%,0%);fill-opacity:1;" d="M 41.351563 74.238281 C 41.402344 74.144531 41.4375 74.050781 41.484375 73.957031 C 41.496094 74.070313 41.515625 74.179688 41.53125 74.292969 C 55.414063 78.617188 76.886719 68.148438 83.953125 57.5 C 85.570313 55.066406 84.460938 52.695313 84.460938 52.695313 C 84.460938 52.695313 80.476563 43.207031 59.484375 49.207031 C 51.175781 51.582031 45.714844 56.921875 43.199219 62.875 C 42.636719 62.363281 42.078125 61.820313 41.527344 61.210938 C 36.597656 55.769531 34.992188 50.691406 37.410156 45.117188 C 28.492188 50.976563 26.316406 61.023438 34.203125 69.730469 C 36.164063 71.898438 38.609375 73.355469 41.351563 74.238281 Z M 57.160156 60.199219 C 70.03125 56.519531 77.496094 55.632813 81.359375 55.492188 C 69.613281 64.078125 57.429688 71.328125 46.980469 65.609375 C 49.683594 63.277344 53.0625 61.371094 57.160156 60.199219 "/>
<path style=" stroke:none;fill-rule:nonzero;fill:rgb(0%,0%,0%);fill-opacity:1;" d="M 50.515625 97.078125 C 67.8125 103.058594 88.210938 76.109375 88.3125 60.992188 L 86.472656 58.726563 C 78.878906 75.429688 70.136719 92.066406 52.839844 86.085938 C 46.03125 83.730469 42.203125 80.140625 41.53125 74.292969 C 41.472656 74.273438 41.410156 74.257813 41.351563 74.238281 C 36.558594 83.578125 39.523438 93.277344 50.515625 97.078125 "/>
<path style=" stroke:none;fill-rule:nonzero;fill:rgb(0%,0%,0%);fill-opacity:1;" d="M 95.472656 43.164063 L 98.355469 43.738281 C 98.355469 43.738281 97.464844 36.984375 105.066406 16.519531 C 107.789063 9.191406 112.75 4.371094 118.210938 1.996094 C 109.277344 0.464844 98.476563 5.738281 93.925781 17.988281 C 86.324219 38.453125 95.472656 43.164063 95.472656 43.164063 "/>
<path style=" stroke:none;fill-rule:nonzero;fill:rgb(0%,0%,0%);fill-opacity:1;" d="M 131.207031 14.214844 C 131.605469 15.734375 131.828125 17.175781 131.917969 18.550781 C 125.953125 17.488281 119.019531 18.839844 112.644531 23.65625 C 95.226563 36.820313 100.410156 45.710938 100.410156 45.710938 C 100.410156 45.710938 102.339844 47.796875 105.558594 47.671875 C 117.800781 47.191406 136.472656 36.175781 141.53125 23.214844 C 141.59375 23.222656 141.65625 23.226563 141.71875 23.234375 C 141.671875 23.191406 141.621094 23.15625 141.570313 23.113281 C 142.871094 19.738281 143.257813 16.230469 142.347656 12.746094 C 139.375 1.378906 129.777344 -2.296875 119.992188 1.957031 C 125.980469 2.984375 129.351563 7.105469 131.207031 14.214844 Z M 105.0625 44.246094 C 107.703125 41.136719 112.898438 35.914063 122.824219 28.410156 C 125.632813 26.289063 128.546875 24.871094 131.4375 24.003906 C 128.898438 33.957031 117.390625 39.574219 105.0625 44.246094 "/>
<path style=" stroke:none;fill-rule:nonzero;fill:rgb(0%,0%,0%);fill-opacity:1;" d="M 89.324219 57.496094 C 92.746094 59.894531 97.367188 59.203125 99.648438 55.953125 C 101.925781 52.703125 100.996094 48.121094 97.578125 45.722656 C 94.15625 43.324219 89.53125 44.015625 87.253906 47.265625 C 84.976563 50.519531 85.902344 55.097656 89.324219 57.496094 "/>
<path style=" stroke:none;fill-rule:nonzero;fill:rgb(0%,0%,0%);fill-opacity:1;" d="M 516.015625 216.8125 L 515.683594 219.734375 C 515.683594 219.734375 522.335938 218.277344 543.367188 224.140625 C 550.894531 226.238281 556.117188 230.78125 558.9375 236.019531 C 559.714844 226.992188 553.554688 216.671875 540.96875 213.164063 C 519.9375 207.300781 516.015625 216.8125 516.015625 216.8125 "/>
<path style=" stroke:none;fill-rule:nonzero;fill:rgb(0%,0%,0%);fill-opacity:1;" d="M 465.679688 182.089844 C 467.015625 174.863281 470.078125 170.507813 475.976563 169.050781 C 465.910156 165.515625 456.601563 169.878906 454.464844 181.429688 C 451.132813 199.425781 480.824219 215.570313 495.789063 213.417969 L 497.753906 211.257813 C 480.105469 206.242188 462.347656 200.085938 465.679688 182.089844 "/>
<path style=" stroke:none;fill-rule:nonzero;fill:rgb(0%,0%,0%);fill-opacity:1;" d="M 559.128906 237.792969 C 558.605469 243.847656 554.78125 247.550781 547.851563 249.996094 C 547.082031 250.269531 546.332031 250.480469 545.59375 250.664063 C 546.210938 244.230469 543.945313 236.9375 537.761719 230.898438 C 529.230469 222.566406 522.96875 220.710938 519.039063 220.738281 C 512.257813 220.792969 511.90625 224.515625 512.488281 228.097656 C 514.980469 243.476563 534.074219 266.6875 550.253906 260.972656 C 561.328125 257.0625 564.1875 247.1875 559.128906 237.792969 Z M 515.527344 226.03125 C 518.859375 227.988281 525.007813 232.320313 534.585938 241.675781 C 537.632813 244.652344 539.699219 247.9375 540.96875 251.269531 C 529.054688 251.339844 521.78125 239.167969 515.527344 226.03125 "/>
<path style=" stroke:none;fill-rule:nonzero;fill:rgb(0%,0%,0%);fill-opacity:1;" d="M 526.078125 266.503906 C 508.019531 263.542969 508.234375 244.75 509.492188 226.445313 L 506.796875 227.5625 C 499.703125 240.914063 504.839844 274.320313 522.898438 277.277344 C 534.492188 279.179688 541.308594 273.746094 541.390625 263.078125 C 538.019531 268.136719 533.328125 267.691406 526.078125 266.503906 "/>
<path style=" stroke:none;fill-rule:nonzero;fill:rgb(0%,0%,0%);fill-opacity:1;" d="M 508.535156 161.449219 C 512.210938 166.132813 514.285156 172.734375 513.195313 180.476563 C 510.15625 202.09375 506.164063 207.609375 506.164063 207.609375 L 508.972656 208.476563 C 508.972656 208.476563 519.261719 208.683594 522.300781 187.0625 C 524.117188 174.121094 517.121094 164.347656 508.535156 161.449219 "/>
<path style=" stroke:none;fill-rule:nonzero;fill:rgb(0%,0%,0%);fill-opacity:1;" d="M 500.679688 209.125 L 503.417969 208.371094 C 503.417969 208.371094 512.203125 203.011719 503.136719 183.152344 C 499.820313 175.882813 494.359375 171.398438 488.605469 169.496094 C 489.339844 168.328125 490.222656 167.171875 491.292969 166.019531 C 496.304688 160.648438 501.230469 158.621094 506.988281 160.566406 C 500.402344 152.171875 490.207031 150.84375 482.191406 159.433594 C 479.113281 162.734375 477.898438 167.070313 477.800781 171.351563 C 477.460938 185.960938 489.574219 204.773438 500.0625 209.519531 Z M 486.4375 174.523438 C 488.570313 176.660156 490.460938 179.292969 491.921875 182.492188 C 497.089844 193.8125 499.175781 200.878906 500.019531 204.871094 C 491.394531 194.898438 483.941406 184.488281 486.4375 174.523438 "/>
<path style=" stroke:none;fill-rule:nonzero;fill:rgb(0%,0%,0%);fill-opacity:1;" d="M 507.570313 224.007813 C 511.71875 223.523438 514.714844 219.9375 514.253906 215.992188 C 513.792969 212.050781 510.054688 209.242188 505.902344 209.726563 C 501.753906 210.210938 498.761719 213.800781 499.222656 217.742188 C 499.679688 221.6875 503.417969 224.492188 507.570313 224.007813 "/>
<path style=" stroke:none;fill-rule:nonzero;fill:rgb(0%,0%,0%);fill-opacity:1;" d="M 82.578125 217.742188 C 96.4375 242.910156 109.394531 273.769531 104.445313 295.675781 C 93.546875 343.953125 74.308594 367.605469 92.65625 376.265625 C 93.304688 363.183594 104.609375 341.722656 112.035156 308.824219 C 117.84375 283.113281 109.199219 242.136719 82.578125 217.742188 "/>
<path style=" stroke:none;fill-rule:nonzero;fill:rgb(0%,0%,0%);fill-opacity:1;" d="M 99.199219 379.394531 C 97.128906 378.878906 95.375 378.246094 93.847656 377.527344 C 93.464844 385.238281 96.78125 390.039063 106.789063 392.542969 C 111.109375 393.621094 114.726563 394.875 117.648438 396.246094 C 122.085938 390.160156 115.695313 383.519531 99.199219 379.394531 "/>
<path style=" stroke:none;fill-rule:nonzero;fill:rgb(0%,0%,0%);fill-opacity:1;" d="M 103.804688 420.550781 C 129.308594 414.882813 133.378906 404.457031 118.035156 397.265625 C 115.214844 401.136719 108.019531 404.78125 96.210938 407.402344 C 82.117188 410.535156 84.386719 422.757813 94.234375 433.941406 C 92.746094 427.648438 95.289063 422.441406 103.804688 420.550781 "/>
<path style=" stroke:none;fill-rule:nonzero;fill:rgb(0%,0%,0%);fill-opacity:1;" d="M 96.273438 435.03125 C 100.089844 451.175781 130.480469 474.46875 154.757813 467.183594 L 147.167969 454.035156 C 129.09375 459.460938 107.636719 447.933594 96.273438 435.03125 "/>
<path style=" stroke:none;fill-rule:nonzero;fill:rgb(0%,0%,0%);fill-opacity:1;" d="M 491.621094 474.789063 C 494.050781 470.117188 492.785156 464.914063 483.625 458.71875 C 481.222656 457.097656 479.238281 455.425781 477.605469 453.722656 C 476.664063 460.164063 480.121094 466.859375 489.054688 472.898438 C 490.003906 473.539063 490.839844 474.167969 491.621094 474.789063 "/>
<path style=" stroke:none;fill-rule:nonzero;fill:rgb(0%,0%,0%);fill-opacity:1;" d="M 493.597656 476.953125 C 489.898438 484.078125 475.609375 487.800781 469.460938 494.042969 C 464.042969 499.535156 464.769531 508.90625 471.386719 515.695313 C 471.703125 512.886719 472.855469 510.28125 474.886719 508.21875 C 484.65625 498.308594 511.929688 491.464844 493.597656 476.953125 "/>
<path style=" stroke:none;fill-rule:nonzero;fill:rgb(0%,0%,0%);fill-opacity:1;" d="M 472.792969 517.433594 C 470.917969 534.027344 479.84375 541.699219 510.992188 536.550781 L 494.722656 526.992188 C 479.9375 529.4375 478.621094 523.410156 472.792969 517.433594 "/>
<path style=" stroke:none;fill-rule:nonzero;fill:rgb(0%,0%,0%);fill-opacity:1;" d="M 494.160156 217.183594 C 473.8125 229.496094 462.914063 268.234375 477.207031 300.40625 C 477.921875 302.015625 478.699219 303.605469 479.539063 305.179688 C 472.664063 276.585938 488.296875 233.195313 495.847656 220.554688 L 494.160156 217.183594 "/>
<path style=" stroke:none;fill-rule:nonzero;fill:rgb(0%,0%,0%);fill-opacity:1;" d="M 506.046875 414.464844 C 477.269531 422.128906 463.757813 437.527344 477.855469 452.210938 C 479.355469 441.972656 491.761719 433.894531 511.472656 428.644531 C 530.820313 423.492188 529.023438 390.925781 513.839844 370.121094 C 520.660156 390.964844 521.894531 410.246094 506.046875 414.464844 "/>
<path style=" stroke:none;fill-rule:nonzero;fill:rgb(0%,0%,0%);fill-opacity:1;" d="M 440.953125 494.242188 C 440.605469 494.097656 440.261719 493.96875 439.910156 493.835938 C 437.1875 506.546875 418.878906 522.761719 404.6875 521.582031 C 390.339844 520.382813 387.046875 505.519531 374.925781 502.976563 C 369.949219 501.933594 352.800781 509.152344 343.472656 514.0625 L 365.398438 519.121094 C 371.546875 515.886719 374.351563 516.4375 378.308594 516.042969 C 394.984375 514.367188 395.917969 533.363281 412.28125 534.726563 C 432.519531 536.414063 461.195313 502.679688 440.953125 494.242188 "/>
<path style=" stroke:none;fill-rule:nonzero;fill:rgb(0%,0%,0%);fill-opacity:1;" d="M 495.234375 334.128906 C 501.914063 344.550781 508.367188 355.78125 513.839844 368.433594 C 512.152344 351.972656 507.082031 337.726563 497.402344 324.664063 C 498.546875 319.488281 499.628906 314.394531 500.695313 309.46875 C 507.65625 277.34375 501.46875 237.425781 500.347656 225.054688 L 497.535156 223.367188 C 497.535156 235.175781 498.167969 267.644531 493.105469 296.320313 C 492.003906 302.558594 490.78125 308.863281 489.375 315.203125 C 487.089844 312.820313 485.847656 312.558594 483.195313 310.238281 C 481.460938 308.71875 480.960938 308.597656 479.925781 306.664063 C 481.535156 313.355469 482.949219 315.785156 487.414063 322.328125 C 487.488281 322.4375 487.5625 322.546875 487.636719 322.65625 C 482.601563 343.050781 475.238281 363.746094 462.742188 384.035156 C 450.875 403.304688 408.765625 431.265625 400.332031 454.878906 C 395.742188 467.734375 399.15625 471.089844 406.476563 472.84375 C 406.816406 471.398438 407.285156 469.816406 407.921875 468.027344 C 416.355469 444.414063 457.414063 415.761719 470.335938 397.183594 C 483.078125 378.851563 490.027344 356.085938 495.234375 334.128906 "/>
<path style=" stroke:none;fill-rule:nonzero;fill:rgb(0%,0%,0%);fill-opacity:1;" d="M 432.3125 479.761719 C 423.085938 475.917969 414.222656 475.574219 408.09375 474.109375 C 404.019531 491.382813 420.554688 485.363281 438.855469 492.5 C 440.019531 487.078125 438.363281 482.285156 432.3125 479.761719 "/>
<path style=" stroke:none;fill-rule:nonzero;fill:rgb(0%,0%,0%);fill-opacity:1;" d="M 18.089844 365.128906 C 24.128906 364.605469 28.644531 365.804688 33.449219 369.136719 C 34.183594 368.113281 35.285156 366.882813 35.976563 365.761719 C 30.367188 358.925781 23.136719 355.195313 13.59375 356.027344 C -1.953125 357.378906 -1.746094 370.136719 5.28125 377.179688 C 4.617188 371.519531 8.078125 366 18.089844 365.128906 "/>
<path style=" stroke:none;fill-rule:nonzero;fill:rgb(0%,0%,0%);fill-opacity:1;" d="M 70.769531 203.125 C 78.070313 213.277344 83.609375 220.558594 80.75 212.933594 C 77.898438 205.332031 76.074219 197.125 75.046875 188.597656 C 84.378906 179.496094 93.597656 171.210938 99.253906 163.621094 C 114.339844 143.371094 113.105469 97.1875 99.164063 59.746094 L 97.476563 60.308594 C 111.265625 114.910156 112.242188 139.933594 74.023438 173.117188 C 73.171875 124.570313 92.613281 71.335938 95.226563 60.871094 L 92.417969 60.449219 C 89.53125 71.984375 54.90625 139.082031 62.753906 183.097656 C 47.546875 197.101563 33.777344 213.238281 36.046875 233.097656 C 37.824219 248.644531 44.003906 260.175781 50.105469 269.71875 C 50.539063 270.398438 50.6875 270.191406 50.335938 269.402344 C 47.453125 262.886719 44.652344 255.089844 43.640625 246.246094 C 41.5 227.539063 53.246094 211.160156 67 196.703125 C 68.074219 198.960938 69.320313 201.109375 70.769531 203.125 "/>
<path style=" stroke:none;fill-rule:nonzero;fill:rgb(0%,0%,0%);fill-opacity:1;" d="M 46.203125 442.617188 C 43.34375 442.226563 40.984375 441.601563 39.027344 440.792969 C 38.078125 448.210938 41.464844 454.082031 53.796875 455.761719 C 63.960938 457.148438 72.792969 460.625 78.742188 464.785156 C 81.570313 456.535156 66.558594 445.390625 46.203125 442.617188 "/>
<path style=" stroke:none;fill-rule:nonzero;fill:rgb(0%,0%,0%);fill-opacity:1;" d="M 78.1875 488.167969 C 76.449219 499.796875 99.558594 519.492188 144.882813 493.996094 L 128.121094 486.792969 C 99.035156 503.152344 88.285156 494.953125 78.1875 488.167969 "/>
<path style=" stroke:none;fill-rule:nonzero;fill:rgb(0%,0%,0%);fill-opacity:1;" d="M 81.910156 482.753906 C 89.859375 478.113281 88.148438 471.667969 79.625 465.707031 C 79.015625 467.484375 76.710938 468.210938 74.320313 469.605469 C 68.09375 473.234375 69.296875 481.40625 77.9375 487.214844 C 78.269531 484.992188 79.746094 484.015625 81.910156 482.753906 "/>
<path style=" stroke:none;fill-rule:nonzero;fill:rgb(0%,0%,0%);fill-opacity:1;" d="M 45.496094 368.296875 C 55.585938 349.128906 62.023438 322.007813 62.792969 302.824219 C 63.234375 291.757813 56.976563 279.675781 51.371094 271.089844 C 50.859375 270.308594 50.503906 270.390625 50.816406 271.230469 C 52.492188 275.753906 55.417969 284.210938 55.203125 289.679688 C 54.480469 307.726563 48.941406 336.859375 40.34375 357.9375 C 37.242188 367.449219 33.785156 373.222656 25.683594 378.625 C 17.609375 384.007813 10.492188 382.875 5.828125 378.203125 C 6.878906 387.160156 17.773438 395.4375 30.179688 387.164063 C 38.003906 381.949219 41.433594 376.015625 45.496094 368.296875 "/>
<path style=" stroke:none;fill-rule:nonzero;fill:rgb(0%,0%,0%);fill-opacity:1;" d="M 43.503906 375.429688 C 47.167969 385.40625 47.257813 396.371094 42.832031 403.257813 C 33.878906 417.179688 23.761719 433.800781 38.71875 439.980469 C 39.679688 432.519531 45.34375 424.300781 50.421875 416.402344 C 56.503906 406.941406 52.929688 388.308594 43.503906 375.429688 "/>
</g>
</svg>
