<?xml version="1.0" encoding="UTF-8"?>
<svg xmlns="http://www.w3.org/2000/svg" xmlns:xlink="http://www.w3.org/1999/xlink" width="517pt" height="623pt" viewBox="0 0 517 623" version="1.1">
<g id="surface1">
<path style=" stroke:none;fill-rule:nonzero;fill:rgb(0%,0%,0%);fill-opacity:1;" d="M 482.308594 307.550781 C 518.839844 268.582031 534.601563 237.5 483.839844 232.519531 C 518.578125 192.902344 517.433594 160.453125 483.839844 145.847656 C 500.753906 108.261719 495.953125 98.316406 476.578125 83.53125 C 471.328125 79.527344 478.800781 71.246094 479.550781 65 C 482.308594 43.5625 487.601563 18 474.957031 0.378906 C 461.789063 0.378906 446.476563 10.488281 433.921875 19.367188 C 341.921875 90.019531 296.855469 184.28125 272.058594 285.636719 C 266.652344 307.730469 251.761719 313.066406 245.011719 285.496094 C 220.203125 184.195313 175.136719 89.988281 83.179688 19.367188 C 70.625 10.488281 55.3125 0.378906 42.144531 0.378906 C 29.5 18 34.792969 43.5625 37.550781 65 C 38.300781 71.246094 45.773438 79.527344 40.523438 83.53125 C 21.148438 98.316406 16.351563 108.261719 33.261719 145.847656 C -0.332031 160.453125 -1.476563 192.902344 33.261719 232.519531 C -17.5 237.5 -1.734375 268.582031 34.792969 307.550781 C 1.472656 323.230469 10.542969 351.496094 37.550781 366.347656 C 22.753906 390.394531 20.070313 410.800781 55.3125 423.617188 C 51.636719 429.128906 50.105469 435.5625 50.71875 442.910156 C 56.84375 458.53125 73.378906 460.980469 87.46875 463.433594 C 79.503906 478.4375 75.832031 495.28125 71.542969 511.816406 C 69.453125 543.210938 86.554688 576.976563 136.8125 535.515625 C 151.242188 523.609375 164.183594 506.765625 177.199219 495.589844 C 168.339844 529.203125 146.839844 560.15625 137.984375 595.621094 C 135.003906 607.566406 133.917969 637.308594 162.257813 614.207031 C 194.414063 587.992188 224.96875 557.773438 258.050781 533.867188 C 258.050781 533.867188 322.6875 587.992188 354.84375 614.207031 C 383.183594 637.308594 382.097656 607.566406 379.117188 595.621094 C 370.261719 560.15625 348.761719 529.203125 339.902344 495.589844 C 352.917969 506.765625 365.855469 523.609375 380.289063 535.515625 C 430.546875 576.976563 447.648438 543.210938 445.558594 511.816406 C 441.269531 495.28125 437.597656 478.4375 429.632813 463.433594 C 443.722656 460.980469 460.257813 458.53125 466.382813 442.910156 C 466.996094 435.5625 465.464844 429.128906 461.789063 423.617188 C 497.03125 410.800781 494.347656 390.394531 479.550781 366.347656 C 506.558594 351.496094 515.628906 323.230469 482.308594 307.550781 Z M 281.105469 298.414063 C 290.328125 243.394531 360.511719 104.40625 426.570313 56.117188 C 451.335938 43.355469 481.078125 26.980469 448.339844 82.933594 C 436.714844 102.800781 382.964844 153.414063 375.300781 162.238281 C 339.355469 203.632813 316.5625 253.011719 291.011719 299.058594 C 280.214844 318.515625 277.179688 321.820313 281.105469 298.414063 Z M 90.53125 56.117188 C 156.59375 104.40625 226.773438 243.394531 235.996094 298.414063 C 239.921875 321.820313 236.886719 318.515625 226.089844 299.058594 C 200.539063 253.011719 177.746094 203.632813 141.800781 162.238281 C 134.136719 153.414063 80.386719 102.800781 68.761719 82.933594 C 36.023438 26.980469 65.765625 43.355469 90.53125 56.117188 Z M 132.519531 514.523438 C 95.132813 543.140625 92.03125 533.933594 97.921875 493.914063 C 99.5 483.199219 104.242188 472.628906 108.550781 462.230469 C 114.660156 447.488281 112.46875 441.796875 94.992188 442.902344 C 57.589844 445.273438 69.769531 432.144531 80.304688 423.269531 C 82.785156 421.175781 85.433594 419.089844 87.4375 416.941406 C 94.304688 409.574219 88.1875 407.5625 73.445313 406.023438 C 38.875 402.417969 41.863281 389.085938 60.601563 374.96875 C 64.746094 371.847656 69.242188 369.210938 72.75 367.195313 C 85.503906 359.867188 82.050781 359.316406 70.585938 356.1875 C 64.703125 354.582031 58.050781 354.390625 52.304688 352.628906 C 33.703125 346.914063 30.710938 322.585938 56.488281 323.730469 C 66.585938 324.175781 78.78125 327.714844 85.933594 328.3125 C 98.550781 329.371094 95.285156 324.949219 92.269531 322.257813 C 91.234375 321.332031 52.277344 294.367188 38.238281 284.65625 C 8.535156 264.105469 23.398438 255.371094 47.960938 258.320313 C 65.703125 260.449219 90.097656 267.867188 92.015625 267.613281 C 97.3125 266.914063 102.351563 264.335938 87.8125 255.304688 C 64.371094 240.746094 36.992188 218.59375 29.953125 191.777344 C 24.425781 170.722656 28.832031 164.847656 41.5 166.5 C 41.5 166.5 92 215 99.5 222 C 108.5 229.5 117.910156 222.292969 104.1875 207.796875 C 82.511719 184.902344 56.167969 161.160156 48.355469 132.539063 C 40.441406 103.546875 50.71875 103.28125 50.71875 103.28125 C 94.207031 128.085938 125.136719 173.71875 155.148438 212 C 143.816406 209.242188 130.035156 209.855469 121.464844 217.816406 C 105.84375 231.296875 107.683594 252.117188 114.113281 269.269531 L 116.867188 273.863281 C 97.21875 266.429688 77.996094 303.808594 106.761719 331.128906 C 85.515625 337.332031 86.390625 365.140625 109.519531 377.988281 C 124.214844 383.90625 133.8125 377.640625 122.867188 372.269531 C 111.308594 366.597656 111.910156 354.3125 119.875 344.015625 C 126.632813 335.285156 133.378906 326.796875 118.421875 320.691406 C 99.203125 312.851563 108.199219 293.804688 124.359375 289.023438 C 127.8125 288 131.351563 287.140625 134.628906 285.5 C 112.5 237.5 156.375 228.84375 168.316406 234.050781 C 193.738281 268.046875 214.5625 303.875 224.363281 344.300781 C 222.832031 360.222656 216.398438 374.003906 211.191406 388.398438 L 122.992188 398.8125 C 119.316406 400.648438 119.933594 404.324219 119.933594 407.390625 L 172.910156 466.1875 C 161.488281 483.09375 149.039063 501.878906 132.519531 514.523438 Z M 349.5 580.5 L 262.644531 504.46875 C 262.644531 504.46875 198.023438 559.59375 167.09375 582.5625 C 174.136719 552.550781 206.597656 469.25 206.597656 469.25 L 153.617188 414.738281 L 224.363281 413.515625 C 229.5 384.5 255.5 322.5 255.5 322.5 C 271.832031 349.761719 275.5 386.5 290.511719 413.515625 C 315.316406 411.367188 348.089844 411.675781 375.648438 407.390625 L 314.09375 485.480469 C 325.425781 512.738281 337.859375 553.242188 349.5 580.5 Z M 431.171875 328.3125 C 438.320313 327.714844 450.515625 324.175781 460.613281 323.730469 C 486.390625 322.585938 483.398438 346.914063 464.796875 352.628906 C 459.050781 354.390625 452.398438 354.582031 446.515625 356.1875 C 435.050781 359.316406 431.597656 359.867188 444.351563 367.195313 C 447.859375 369.210938 452.355469 371.847656 456.5 374.96875 C 475.234375 389.085938 478.226563 402.417969 443.65625 406.023438 C 428.914063 407.5625 422.796875 409.574219 429.664063 416.941406 C 431.667969 419.089844 434.316406 421.175781 436.796875 423.269531 C 447.332031 432.144531 459.511719 445.273438 422.109375 442.902344 C 404.632813 441.796875 402.441406 447.488281 408.550781 462.230469 C 412.859375 472.628906 417.601563 483.199219 419.179688 493.914063 C 425.070313 533.933594 421.96875 543.140625 384.582031 514.523438 C 368.0625 501.878906 354.925781 485.40625 343.5 468.5 L 399.5 402.5 C 399.5 399.4375 398.175781 396.339844 394.5 394.5 L 305.910156 388.398438 C 300.699219 374.003906 294.269531 360.222656 292.738281 344.300781 C 302.539063 303.875 323.363281 268.046875 348.785156 234.050781 C 360.726563 228.84375 404.601563 237.5 382.472656 285.5 C 385.75 287.140625 389.289063 288 392.742188 289.023438 C 408.902344 293.804688 417.898438 312.851563 398.679688 320.691406 C 383.726563 326.796875 390.472656 335.285156 397.226563 344.015625 C 405.191406 354.3125 405.792969 366.597656 394.234375 372.269531 C 383.289063 377.640625 392.886719 383.90625 407.582031 377.988281 C 430.710938 365.140625 431.585938 337.332031 410.339844 331.128906 C 439.105469 303.808594 419.882813 266.429688 400.230469 273.863281 L 402.988281 269.269531 C 409.421875 252.117188 411.257813 231.296875 395.640625 217.816406 C 387.066406 209.855469 373.285156 209.242188 361.949219 212 C 391.964844 173.71875 422.894531 128.085938 466.382813 103.28125 C 466.382813 103.28125 476.660156 103.546875 468.746094 132.539063 C 460.933594 161.160156 434.589844 184.902344 412.914063 207.796875 C 399.191406 222.292969 408.601563 229.5 417.601563 222 C 425.101563 215 475.601563 166.5 475.601563 166.5 C 488.269531 164.847656 492.675781 170.722656 487.148438 191.777344 C 480.109375 218.59375 452.730469 240.746094 429.289063 255.304688 C 414.75 264.335938 419.789063 266.914063 425.085938 267.613281 C 427.003906 267.867188 451.398438 260.449219 469.140625 258.320313 C 493.703125 255.371094 508.566406 264.105469 478.863281 284.65625 C 464.824219 294.367188 425.867188 321.332031 424.832031 322.257813 C 421.8125 324.949219 418.550781 329.371094 431.171875 328.3125 Z M 156.683594 306.019531 C 146.5 286 161.628906 253.09375 186.625 270.824219 C 194.003906 276.058594 187.109375 282.703125 182.5 282.511719 C 165.371094 281.796875 167.507813 297.5625 170.609375 303.949219 C 172.378906 307.597656 174.40625 311.121094 175.667969 314.898438 C 172.601563 316.035156 169.28125 317.003906 166.070313 318.191406 C 149.699219 324.253906 148.171875 331.691406 161.160156 344.363281 C 167.457031 350.503906 173.296875 355.464844 164.113281 360.21875 C 156.082031 364.375 155.226563 369.738281 161.640625 375.402344 C 163.59375 377.125 165.015625 378.84375 164.03125 382.582031 C 140.199219 378.441406 137.417969 360.710938 152.394531 348.589844 C 128.894531 338.597656 135.359375 304.546875 156.683594 306.019531 Z M 180.261719 329.597656 C 196.902344 315.457031 213.933594 336.273438 215.480469 342.769531 C 211.382813 345.453125 207.351563 343.183594 203.445313 341.101563 C 191.136719 334.546875 187.515625 342.871094 190.152344 353.214844 C 191.308594 357.738281 193.574219 362.191406 194.964844 366.347656 C 180.394531 364.367188 170.191406 346.601563 180.261719 329.597656 Z M 364.707031 348.589844 C 379.683594 360.710938 376.902344 378.441406 353.070313 382.582031 C 352.085938 378.84375 353.507813 377.125 355.460938 375.402344 C 361.875 369.738281 361.019531 364.375 352.988281 360.21875 C 343.804688 355.464844 349.644531 350.503906 355.941406 344.363281 C 368.933594 331.691406 367.402344 324.253906 351.03125 318.191406 C 347.820313 317.003906 344.5 316.035156 341.433594 314.898438 C 342.695313 311.121094 344.722656 307.597656 346.492188 303.949219 C 349.597656 297.5625 351.730469 281.796875 334.601563 282.511719 C 329.992188 282.703125 323.097656 276.058594 330.476563 270.824219 C 355.476563 253.09375 370.601563 286 360.421875 306.019531 C 381.742188 304.546875 388.203125 338.597656 364.707031 348.589844 Z M 336.839844 329.597656 C 346.910156 346.601563 336.707031 364.367188 322.140625 366.347656 C 323.527344 362.191406 325.792969 357.738281 326.949219 353.214844 C 329.585938 342.871094 325.964844 334.546875 313.65625 341.101563 C 309.75 343.183594 305.71875 345.453125 301.621094 342.769531 C 303.167969 336.273438 320.199219 315.457031 336.839844 329.597656 "/>
</g>
</svg>
