<?xml version="1.0" encoding="UTF-8"?>
<svg xmlns="http://www.w3.org/2000/svg" xmlns:xlink="http://www.w3.org/1999/xlink" width="185pt" height="465pt" viewBox="0 0 185 465" version="1.1">
<g id="surface1">
<path style=" stroke:none;fill-rule:nonzero;fill:rgb(0%,0%,0%);fill-opacity:1;" d="M 31.007813 69.390625 C 35.53125 71.34375 38.65625 76.175781 39.273438 81.445313 C 39.84375 86.320313 41.398438 89.4375 46.09375 89.296875 C 52.523438 89.105469 50.113281 82.632813 46.355469 78.347656 C 39.6875 70.734375 38.949219 60.542969 47.6875 45.84375 C 50.636719 40.882813 52.125 36.105469 44.375 28.214844 C 43.902344 27.734375 44 27.457031 44.574219 27.816406 C 53.234375 33.246094 59.898438 40.480469 54.640625 50.835938 C 47.039063 65.820313 49.128906 73.671875 61.894531 78.304688 C 74.304688 82.808594 74.113281 87.566406 66.703125 95.285156 C 66.878906 93.433594 67.3125 90.492188 66.507813 88.191406 C 64.601563 82.738281 55.8125 82.414063 55.640625 91.226563 C 55.546875 96.121094 57.871094 99.671875 63.335938 99.746094 C 78.464844 99.960938 82.195313 83.609375 78.226563 77.875 C 74.863281 73.019531 69.414063 72.003906 65.855469 75.5625 C 62.152344 69.320313 61.402344 60.703125 69.914063 55.171875 C 79.722656 48.792969 77.625 43.507813 69.296875 36.664063 C 62.648438 31.199219 63.019531 25.738281 69.144531 16.144531 C 72.851563 10.335938 70.214844 0.0546875 70.214844 0.0546875 C 75.3125 5.507813 75.171875 13.324219 73.230469 20.394531 C 70.671875 29.699219 72.496094 31.140625 79.738281 37.496094 C 85.292969 42.375 86.523438 49.90625 78.394531 57.488281 C 75.257813 60.410156 72.234375 63.367188 72.292969 67.527344 C 72.339844 71.230469 80.40625 75.492188 84.410156 71.566406 C 86.738281 69.285156 88.3125 65.949219 89.695313 63.339844 C 94 70.738281 91.757813 80.359375 87.464844 87.316406 C 85.4375 90.609375 88.699219 94.980469 92.246094 92.125 C 105.710938 81.285156 101.957031 69.695313 93.675781 55.886719 C 89.996094 49.75 92.882813 42.515625 96.457031 35.492188 C 96.699219 35.015625 96.921875 35.203125 96.8125 35.769531 C 94.523438 47.390625 98.976563 57.9375 106.714844 66.203125 C 113.039063 72.964844 109.226563 83.117188 102.003906 89.050781 C 99.328125 91.242188 96.703125 93.472656 95.140625 96.496094 C 95.261719 97.824219 95.863281 98.914063 96.953125 99.882813 C 101.816406 97.960938 105.625 92.863281 108.769531 88.652344 C 108.988281 88.355469 109.214844 88.566406 109.109375 88.960938 C 107.511719 95.121094 105.917969 101.433594 101.753906 106.371094 C 98.632813 110.078125 94.25 109.773438 92.316406 103.996094 C 91.632813 101.957031 89.472656 102.710938 87.28125 104.496094 C 84.992188 106.363281 83.039063 108.65625 81.222656 111.015625 C 71.324219 102.324219 57.582031 103.476563 50.730469 110.652344 C 50.308594 104.429688 44.921875 103.121094 40.28125 100.84375 C 34.042969 97.777344 33.570313 96.527344 34.089844 87.5 C 34.453125 81.113281 33.425781 75.097656 31.007813 69.390625 Z M 184.433594 380.324219 C 184.484375 380.738281 184.15625 380.78125 183.945313 380.367188 C 181.476563 375.464844 178.214844 368.816406 173.304688 365.359375 C 174.558594 369.9375 174.636719 372.859375 175 376.613281 C 183.921875 389.867188 182.347656 399.902344 173.003906 408.003906 C 172.375 408.546875 171.933594 408.28125 172.375 407.609375 C 175.835938 402.347656 178.316406 395.136719 175.847656 388.59375 C 175.363281 387.625 175.363281 386.414063 174.152344 385.6875 C 171.976563 389.800781 169.675781 395.367188 164.59375 396.699219 C 161.816406 407.628906 152.136719 411.890625 142.8125 413.878906 C 147.773438 410.613281 153.703125 406.015625 155.277344 400.207031 C 151.867188 400.691406 149.449219 400.792969 145.113281 400.449219 C 138.820313 403.234375 131.5625 406.136719 124.179688 403.71875 C 127.566406 402.75 131.078125 402.265625 133.738281 399.601563 C 111.730469 389.121094 83.058594 384.242188 62.476563 396.773438 C 49.261719 404.820313 45.355469 424.59375 52.183594 436.75 C 60.726563 443.628906 69.882813 451.425781 81.699219 449.871094 C 95.339844 448.082031 103.933594 444.679688 108.570313 434.210938 L 116.074219 426.949219 C 112.683594 434.933594 108.449219 444.253906 109.054688 454.175781 C 106.996094 452.722656 105.0625 449.335938 103.609375 446.671875 C 100.222656 447.882813 96.832031 449.699219 94.292969 452.117188 C 94.898438 455.265625 98.285156 455.386719 100.34375 456.835938 C 91.144531 460.105469 81.101563 456.957031 72.269531 455.019531 C 72.996094 458.53125 75.78125 461.796875 78.078125 464.945313 C 67.792969 464.578125 59.6875 454.539063 53.394531 446.671875 C 52.183594 449.820313 52.789063 453.691406 54.242188 456.472656 C 48.296875 454.921875 44.078125 438.367188 44.078125 428.039063 C 44.078125 428.039063 40.246094 430.640625 37.421875 438.566406 C 34.8125 415.238281 43.382813 396.398438 69.808594 386.222656 C 91.160156 378.003906 117.269531 385.472656 137.230469 393.082031 C 150.070313 397.976563 163.648438 392.511719 167.132813 385.28125 C 173.808594 371.433594 161.8125 361.6875 147.84375 351.609375 C 128.285156 337.503906 106.308594 328.785156 82.699219 329.640625 C 67.53125 330.1875 51.074219 330.113281 36.453125 327.847656 C 36.695313 334.382813 43.351563 338.617188 47.828125 342.367188 C 34.996094 343.679688 27.601563 332.304688 21.828125 321.875 C 20.144531 318.832031 16.488281 311.996094 16.125 311.269531 C 13.285156 315.355469 16.265625 325.472656 17.941406 329.664063 C -1.03125 316.441406 10.101563 296.285156 19.632813 286.105469 C 4.054688 287.238281 1.605469 299.171875 1.605469 299.171875 C -3.332031 279.421875 14.273438 274.605469 39.359375 275.941406 C 39.359375 271.332031 26.25 268.050781 19.785156 268.867188 C 19.164063 268.945313 18.988281 268.738281 19.523438 268.53125 C 29.128906 264.84375 38.28125 263.980469 43.125 268.644531 C 55.546875 280.601563 82.648438 274.730469 86.351563 273.585938 C 115.828125 264.476563 105.761719 232.777344 82.070313 224.515625 C 76.089844 234.871094 45.164063 235.28125 45.164063 235.28125 C 46.128906 236.46875 46.367188 237.972656 46.597656 239.457031 C 47.4375 244.792969 58.855469 253.128906 64.457031 248.34375 C 67.78125 245.5 68.703125 240.65625 70.214844 236.734375 C 75.054688 233.226563 79.167969 239.640625 84.371094 237.824219 C 85.933594 240.835938 90.167969 242.921875 90.726563 246.738281 C 90.773438 247.0625 90.460938 247.074219 90.273438 246.753906 C 88.589844 243.867188 85.589844 241.539063 82.582031 243.574219 C 80.675781 244.867188 77.328125 244.691406 75.980469 242.976563 C 75.226563 242.007813 74.523438 240.957031 73.117188 241.089844 C 72.269531 243.753906 71.421875 246.296875 69.609375 248.59375 C 73.542969 251.964844 79.578125 246.925781 83.171875 248.6875 C 91.980469 253.007813 81.222656 261.660156 81.222656 261.660156 C 80.738281 259.363281 83.644531 255.851563 80.980469 253.554688 C 75.175781 255.609375 69.730469 251.980469 64.40625 253.191406 C 61.226563 257.320313 69.078125 262.191406 65.496094 265.371094 C 62.464844 268.058594 55.734375 267.921875 49.796875 265.128906 C 49.417969 264.953125 49.488281 264.636719 49.914063 264.675781 C 52.992188 264.980469 56.640625 265.378906 58.234375 262.507813 C 58.113281 259.484375 57.992188 255.851563 54.484375 254.644531 C 44.433594 254.140625 41.738281 252.96875 35.839844 246.183594 C 32.492188 242.335938 28.765625 238.714844 23.386719 239.035156 C 24.132813 241.59375 26.761719 244.4375 29.363281 246.402344 C 29.714844 246.664063 29.527344 246.921875 29.089844 246.792969 C 20.859375 244.386719 10.195313 235.523438 8.863281 229.960938 C 10.800781 231.046875 13.585938 233.828125 17.09375 233.226563 C 11.339844 228.738281 14.011719 219.984375 8.359375 215.078125 C 8.066406 214.824219 8.175781 214.5625 8.535156 214.691406 C 18.566406 218.277344 15.699219 232.4375 27.5 234.074219 L 24.59375 228.871094 C 43.832031 236.628906 56.597656 223.023438 60.289063 216.042969 C 53.820313 213.691406 43.40625 212.589844 37.421875 203.820313 C 36.632813 208.667969 39.097656 212.78125 41.492188 216.644531 C 41.667969 216.929688 41.539063 217.230469 41.300781 217.089844 C 33.480469 212.460938 28.402344 203.199219 26.289063 194.628906 C 24.011719 200.210938 24.523438 207.078125 26.507813 212.710938 C 26.632813 213.058594 26.390625 213.148438 26.148438 212.84375 C 17.800781 202.253906 17.542969 185.664063 20.480469 172.847656 C 14.914063 177.324219 12.375 183.496094 11.527344 190.269531 C 5.519531 177.910156 9.011719 163.925781 17.941406 156.269531 C 12.859375 156.027344 8.382813 159.535156 5.113281 163.769531 C 5.839844 153.847656 16.246094 145.5 24.839844 140.902344 C 22.679688 139.773438 13.550781 144.742188 10.839844 146.273438 C 10.355469 146.546875 10.410156 146.28125 10.582031 146.070313 C 19.933594 134.496094 34.792969 131.460938 49.886719 131.34375 C 45.769531 126.019531 43.875 125.3125 29.554688 127.230469 C 41.535156 119.121094 58.597656 121.421875 71.664063 124.929688 C 69.246094 119.484375 63.4375 116.945313 58.597656 115.613281 C 76.390625 110.054688 84.5 122.316406 90.785156 134.488281 C 91.339844 128.613281 90.367188 122.636719 87.96875 117.582031 C 87.75 117.117188 88.046875 116.984375 88.402344 117.386719 C 92.714844 122.230469 94.113281 128.609375 94.898438 135.09375 C 96.640625 133.453125 98.035156 131.296875 98.492188 128.835938 C 98.578125 128.390625 98.8125 128.527344 98.859375 129.039063 C 99.320313 134.347656 97.105469 138.601563 93.6875 142.355469 C 93.082031 146.105469 93.445313 150.21875 94.535156 153.605469 L 91.144531 153.96875 C 91.039063 155.875 90.84375 158.335938 92.980469 158.4375 C 95.6875 158.5625 95.726563 159.441406 96.214844 162.621094 C 96.546875 164.804688 98.988281 166.070313 99.617188 161.796875 C 100.898438 153.109375 109.425781 149.660156 115.875 145.285156 C 123.546875 140.085938 123.371094 130.046875 120.984375 128.195313 C 116.613281 124.800781 106.898438 126.742188 104.921875 133.535156 C 104.777344 134.035156 104.476563 134.152344 104.445313 133.671875 C 103.808594 123.792969 116.734375 120.746094 122.5625 125.875 C 128.097656 130.738281 125.851563 141.679688 117.199219 147.574219 C 109.316406 152.941406 104.960938 155.148438 103.375 164.839844 C 102.988281 167.207031 102.355469 169.421875 100.101563 170.789063 C 100.945313 175.265625 99.980469 179.742188 97.800781 183.253906 C 98.164063 179.378906 98.40625 175.871094 97.4375 172.242188 C 95.621094 171.636719 93.445313 171.03125 91.390625 171.636719 C 90.785156 175.507813 90.539063 179.503906 88.242188 182.648438 C 87.757813 178.171875 89.574219 171.394531 84.371094 169.09375 L 73.964844 169.578125 C 74.085938 173.570313 74.207031 179.015625 78.320313 180.953125 L 80.621094 178.050781 C 81.949219 179.378906 81.828125 183.253906 81.828125 185.550781 C 86.183594 186.398438 89.332031 184.222656 92.839844 183.011719 C 88.78125 190.109375 78.867188 193.847656 68.761719 188.453125 C 73.140625 187.445313 75.597656 182.824219 71.488281 180.1875 C 69.425781 178.863281 66.5 177.984375 65.253906 175.75 L 71.058594 175.75 C 70.699219 173.914063 70.335938 172.242188 69.851563 170.546875 C 58.234375 170.363281 49.691406 176.714844 48.535156 180.242188 C 45.179688 190.503906 55.351563 194.886719 60.464844 191.289063 C 65.097656 188.023438 64.167969 181.855469 61.601563 179.6875 C 61.273438 179.40625 61.3125 178.996094 61.621094 179.09375 C 66.976563 180.777344 68.023438 189.695313 61.96875 193.84375 C 51.242188 201.191406 41.277344 189.910156 45.582031 178.90625 C 48.363281 171.789063 56.351563 168.332031 66.945313 165.828125 C 67.054688 164.101563 62.632813 161.441406 59.402344 161.234375 C 56.347656 161.039063 53.027344 161.496094 50.972656 158.933594 C 53.546875 158.59375 58.398438 159.8125 59.78125 156.359375 C 60.878906 153.628906 62.730469 150.925781 66.097656 149.613281 C 40.402344 134.324219 30.160156 149.253906 30.160156 149.253906 C 37.785156 146.589844 48.3125 146.953125 56.539063 149.007813 C 33.230469 166.625 33.695313 185.054688 45.269531 195.398438 C 55.691406 204.714844 73.488281 208.527344 82.433594 208.785156 C 81.324219 201.445313 89.8125 199.316406 94.109375 194.703125 C 97.0625 191.53125 99.285156 191.105469 102.882813 191.882813 C 103.304688 191.976563 103.230469 192.292969 102.746094 192.363281 C 98.984375 192.90625 95.707031 194.546875 95.769531 198.015625 C 95.824219 201.078125 94.960938 203.097656 92.757813 204.355469 C 90.304688 205.757813 88.621094 208.628906 91.085938 211.429688 C 92.085938 212.566406 93.386719 213.503906 94.292969 214.351563 C 96.59375 214.710938 97.558594 212.050781 98.40625 210.597656 C 96.410156 200.296875 103.675781 195.996094 108.253906 198.640625 C 111.527344 200.535156 118.074219 208.058594 117.765625 212.050781 C 115.710938 208.660156 112.199219 206.121094 108.8125 204.789063 C 108.058594 206.300781 107.394531 207.171875 105.886719 207.03125 C 105.089844 206.960938 104.546875 207.789063 104.523438 208.902344 C 104.46875 212.242188 101.324219 214.546875 98.890625 216.648438 L 102.398438 219.554688 C 104.085938 216.367188 108.234375 212.140625 113.152344 215.210938 C 114.585938 216.105469 115.96875 217.207031 117.566406 217.914063 C 120.679688 219.296875 122.910156 222.992188 123.9375 226.8125 C 120.671875 224.394531 116.921875 220.277344 112.320313 219.796875 C 111.957031 222.214844 110.988281 224.273438 108.8125 225.964844 C 122.207031 243.070313 122.4375 258.214844 114.277344 271.796875 C 107.554688 282.984375 91.617188 291.371094 66.359375 290.230469 C 45.023438 289.269531 41.28125 297.074219 45.488281 304.90625 C 50.910156 314.996094 59.496094 314.328125 83.210938 316.453125 C 107.285156 318.613281 129.195313 324.953125 146.324219 338.859375 C 155.277344 338.859375 164.835938 340.433594 171.25 346.484375 C 160.136719 344.425781 154.066406 345.878906 154.066406 345.878906 C 166.914063 352.828125 182.511719 364.835938 184.433594 380.324219 Z M 75.65625 147.316406 C 78.503906 148.617188 77.632813 151.011719 77.75 153.175781 C 77.84375 155.003906 82.394531 159.046875 86.183594 158.324219 C 86.425781 155.890625 86.425781 153.242188 85.824219 151.066406 L 85.066406 154.304688 C 80.953125 152.609375 80.980469 146.589844 75.65625 147.316406 Z M 67.308594 156.511719 L 71.90625 160.382813 L 72.511719 166.191406 L 82.070313 164.980469 C 80.378906 164.285156 78.441406 164.011719 76.625 163.769531 C 76.382813 162.078125 78.078125 160.503906 77.472656 159.171875 L 74.570313 160.382813 C 74.003906 159.722656 73.65625 158.988281 73.476563 158.183594 C 72.875 155.519531 70.316406 155.757813 67.308594 156.511719 "/>
</g>
</svg>
