<?xml version="1.0" encoding="UTF-8"?>
<svg xmlns="http://www.w3.org/2000/svg" xmlns:xlink="http://www.w3.org/1999/xlink" width="540pt" height="83pt" viewBox="0 0 540 83" version="1.1">
<g id="surface1">
<path style=" stroke:none;fill-rule:nonzero;fill:rgb(13.729858%,12.159729%,12.548828%);fill-opacity:1;" d="M 37.976563 54.097656 C 35.726563 52.972656 30.953125 52.785156 29.546875 52.660156 C 28.140625 52.535156 14.304688 52.519531 14.304688 52.519531 C 10.085938 52.367188 11.210938 50.421875 14.140625 50.402344 C 15.265625 50.394531 37.894531 50.277344 37.894531 50.277344 L 37.894531 47.574219 C 37.894531 47.574219 22.648438 47.617188 14.699219 47.691406 C 10.242188 47.730469 5.085938 47.757813 2.492188 49.199219 C 0.09375 50.535156 -0.433594 53.722656 4.507813 54.628906 C 5.144531 54.746094 5.855469 54.851563 6.648438 54.976563 C 9.929688 55.480469 25.046875 55.300781 26.171875 55.332031 C 27.300781 55.359375 29.660156 55.59375 29.605469 56.496094 C 29.546875 57.394531 27.46875 57.699219 26.402344 57.699219 C 25.332031 57.699219 1.332031 57.769531 1.332031 57.769531 L 1.332031 60.472656 C 1.332031 60.472656 28.371094 60.507813 31.070313 60.414063 C 33.769531 60.320313 36.246094 59.707031 38.15625 58.804688 C 40.835938 57.546875 40.644531 55.433594 37.976563 54.097656 "/>
<path style=" stroke:none;fill-rule:nonzero;fill:rgb(13.729858%,12.159729%,12.548828%);fill-opacity:1;" d="M 73.628906 57.621094 C 73.628906 57.621094 63.070313 57.621094 60.652344 57.421875 C 58.234375 57.226563 58.179688 56.15625 58.0625 55.203125 C 57.945313 54.246094 58.0625 47.574219 58.0625 47.574219 L 47.378906 47.574219 C 47.378906 47.574219 47.382813 53.289063 47.378906 55.144531 C 47.378906 58.179688 50.960938 60.113281 56.585938 60.414063 C 56.683594 60.417969 56.960938 60.414063 56.960938 60.414063 L 84.3125 60.472656 L 84.3125 47.574219 L 73.628906 47.574219 L 73.628906 57.621094 "/>
<path style=" stroke:none;fill-rule:nonzero;fill:rgb(13.729858%,12.159729%,12.548828%);fill-opacity:1;" d="M 117.710938 47.527344 C 109.96875 47.375 93.980469 47.574219 93.980469 47.574219 L 93.980469 65.144531 L 104.664063 65.144531 L 104.664063 60.421875 C 107.320313 60.441406 114.425781 60.472656 119.121094 60.367188 C 124.988281 60.234375 128.222656 59.019531 130.621094 58.195313 C 133.984375 57.035156 135.113281 54.519531 133.824219 52.394531 C 131.277344 48.199219 119.691406 47.5625 117.710938 47.527344 Z M 118.375 57.289063 C 115.261719 57.769531 107.617188 57.707031 104.660156 57.660156 L 104.648438 50.484375 C 108.105469 50.433594 116.308594 50.355469 118.828125 50.765625 C 122.054688 51.289063 123.003906 52.21875 123.074219 53.71875 C 123.152344 55.21875 122.273438 56.691406 118.375 57.289063 "/>
<path style=" stroke:none;fill-rule:nonzero;fill:rgb(13.729858%,12.159729%,12.548828%);fill-opacity:1;" d="M 156.183594 47.558594 C 151.433594 47.683594 146.054688 47.988281 142.15625 49.761719 C 139.148438 51.128906 138.003906 53.035156 138.695313 55.300781 C 139.785156 58.886719 148.496094 60.375 154.214844 60.375 C 157.664063 60.375 174.476563 60.472656 174.476563 60.472656 L 174.476563 57.769531 C 174.476563 57.769531 164.398438 57.699219 155.265625 57.644531 C 152.472656 57.628906 150.890625 56.632813 150.246094 55.390625 L 174.476563 55.390625 L 174.476563 52.539063 L 150.269531 52.539063 C 150.515625 52.050781 150.886719 51.601563 151.367188 51.242188 C 152.378906 50.480469 154.066406 50.445313 155.492188 50.40625 C 160.816406 50.253906 174.476563 50.277344 174.476563 50.277344 L 174.476563 47.574219 C 174.476563 47.574219 162.644531 47.394531 156.183594 47.558594 "/>
<path style=" stroke:none;fill-rule:nonzero;fill:rgb(13.729858%,12.159729%,12.548828%);fill-opacity:1;" d="M 210.484375 52.980469 C 210.484375 52.980469 210.585938 50.398438 209.910156 49.347656 C 209.234375 48.296875 204.988281 47.851563 203.789063 47.703125 C 202.589844 47.554688 181.199219 47.574219 181.199219 47.574219 L 181.199219 60.472656 L 191.882813 60.472656 L 191.882813 50.039063 C 191.882813 50.039063 196.359375 50.070313 198.164063 50.113281 C 201.089844 50.183594 200.261719 52.980469 200.261719 52.980469 L 210.484375 52.980469 "/>
<path style=" stroke:none;fill-rule:nonzero;fill:rgb(13.729858%,12.159729%,12.548828%);fill-opacity:1;" d="M 534.253906 58.769531 C 524.253906 55.613281 484.746094 52.109375 467.132813 50.070313 C 477.726563 41.195313 491.398438 27.855469 491.910156 17.285156 C 492.132813 12.714844 489.570313 9.390625 485.371094 6.425781 C 468.84375 -5.242188 432.214844 2.148438 413.964844 8.464844 C 413.46875 4.082031 406.917969 0.65625 399.699219 2.445313 C 389.039063 5.089844 372.214844 19.222656 359.65625 27.847656 C 353.304688 21.527344 340.917969 9.726563 333.742188 7.207031 C 329.125 5.585938 324.371094 6.441406 317.613281 10.730469 C 315.859375 4.570313 308.0625 2.847656 300.878906 5.558594 C 293.539063 8.328125 213.25 27.707031 202.835938 30.242188 C 191.234375 33.070313 199.210938 47.992188 208.882813 43.121094 C 220.882813 37.074219 269.511719 24.945313 276.328125 22.785156 C 280.53125 21.453125 280.402344 22.03125 278.613281 23.09375 C 276.824219 24.15625 224.984375 51.054688 212.683594 65.753906 C 200.386719 80.453125 211.226563 83.589844 225.027344 79.085938 C 238.828125 74.585938 307.527344 54.558594 318.628906 52.761719 C 320.742188 52.417969 322.878906 52.085938 324.953125 51.753906 C 325.351563 51.6875 325.472656 52.058594 325.136719 52.308594 C 314.46875 60.226563 304.128906 68.152344 300.039063 71.855469 C 294.945313 76.476563 297.617188 78.449219 301.292969 81.054688 C 304.964844 83.660156 313.234375 84.339844 322.96875 76.128906 C 328.507813 71.460938 341.203125 59.355469 356.414063 46.828125 C 364.355469 56.296875 373.621094 66.96875 375.253906 69.328125 C 377.953125 73.226563 385.078125 74.433594 391.679688 70.835938 C 397.769531 67.511719 395.613281 62.394531 388.875 60.210938 C 383.183594 58.367188 378.636719 49.085938 368.496094 37.253906 C 374.273438 32.867188 380.226563 28.65625 386.132813 24.941406 C 392.636719 20.847656 396.929688 18.550781 399.855469 17.292969 C 399.570313 18.429688 399.78125 19.585938 400.234375 20.828125 C 401.433594 24.128906 404.984375 27.050781 420.585938 20.152344 C 435.996094 13.335938 452.285156 9.5625 467.644531 11.59375 C 475.535156 12.640625 480.519531 18.917969 471.703125 28.964844 C 467.050781 34.265625 460.199219 41.441406 452.695313 47.84375 C 437.21875 45.375 411.1875 42.175781 401.0625 50.5625 C 395.234375 55.386719 394.089844 63.070313 401.796875 68.347656 C 405.382813 70.804688 411.097656 72.441406 419.414063 72.542969 C 431.597656 72.695313 444.746094 66.546875 456.476563 58.328125 C 479.300781 61.863281 511.460938 66.113281 515.414063 67.679688 C 520.976563 69.878906 527.988281 72.824219 532.886719 71.160156 C 537.78125 69.5 545.652344 62.367188 534.253906 58.769531 Z M 341.363281 40.429688 C 339.800781 38.242188 336.117188 38.332031 330.914063 39.304688 C 324.9375 40.425781 255.628906 56.214844 249.925781 58.316406 C 244.226563 60.414063 242.019531 60.105469 249.820313 55.90625 C 253.269531 54.046875 266.605469 44.101563 280.863281 35.550781 C 294.402344 27.429688 309.113281 20.601563 315.0625 15.539063 C 315.84375 17.386719 318.066406 19.203125 322.132813 19.203125 C 323.257813 19.203125 324.3125 18.546875 325.617188 18.859375 C 330.816406 20.097656 339.796875 27.503906 347.433594 36.089844 C 345.613281 37.378906 343.570313 38.839844 341.363281 40.429688 Z M 429.476563 62.15625 C 422.550781 64.160156 410.917969 64.078125 410.316406 58.675781 C 409.71875 53.277344 422.433594 51.039063 435.792969 54.59375 C 437.273438 54.984375 439.429688 55.4375 442.074219 55.929688 C 437.765625 58.765625 433.480469 60.996094 429.476563 62.15625 "/>
</g>
</svg>
