<?xml version="1.0" encoding="UTF-8"?>
<svg xmlns="http://www.w3.org/2000/svg" xmlns:xlink="http://www.w3.org/1999/xlink" width="514pt" height="63pt" viewBox="0 0 514 63" version="1.1">
<g id="surface1">
<path style=" stroke:none;fill-rule:nonzero;fill:rgb(0%,0%,0%);fill-opacity:1;" d="M 44.632813 45.394531 C 44.632813 45.394531 50.664063 36.28125 53.6875 32.3125 C 56.710938 28.347656 65.277344 15.078125 75 11 C 84.722656 6.921875 88.8125 7.945313 86.773438 10.609375 C 84.734375 13.277344 79.519531 17.25 79.519531 17.25 L 209.464844 17.390625 L 211.875 15.382813 L 93.132813 15.382813 C 93.132813 15.382813 99.027344 10.878906 99.808594 7.742188 C 100.59375 4.605469 98.367188 0.242188 88.957031 0.714844 C 79.550781 1.183594 70.824219 3.289063 64.253906 7.855469 C 50.75 17.238281 46.753906 23.890625 37.628906 36.816406 C 33.867188 42.148438 29.695313 46.316406 29.695313 46.316406 C 29.695313 46.316406 3.621094 51.574219 0.796875 57.6875 C -2.023438 63.804688 3.160156 62.753906 9.949219 61.410156 C 19.8125 59.457031 34.734375 52.140625 34.734375 52.140625 L 325.800781 52.292969 L 331.707031 45.835938 L 44.632813 45.394531 "/>
<path style=" stroke:none;fill-rule:nonzero;fill:rgb(0%,0%,0%);fill-opacity:1;" d="M 350.378906 52.367188 L 457.03125 52.367188 L 463.207031 46.066406 L 355.320313 46.066406 L 350.378906 52.367188 "/>
<path style=" stroke:none;fill-rule:nonzero;fill:rgb(0%,0%,0%);fill-opacity:1;" d="M 511.453125 22.386719 C 503.351563 21.339844 482.871094 22.089844 473.640625 27.730469 C 469.039063 30.542969 465.296875 32.917969 465.882813 36.199219 C 461.695313 36.242188 453.210938 36.316406 452.863281 36.242188 C 452.40625 36.144531 451.953125 35.863281 452.734375 34.921875 C 453.519531 33.980469 460.449219 26.453125 460.449219 24.570313 C 460.449219 22.6875 457.046875 21.355469 452.8125 21.90625 C 448.578125 22.457031 438.207031 26.40625 437.742188 26.65625 C 437.28125 26.90625 436.488281 27.300781 436.855469 26.796875 C 437.21875 26.289063 440.9375 21.960938 440.9375 21.960938 L 431.257813 22.820313 L 419.808594 36.8125 L 409.246094 36.816406 C 407.855469 36.40625 407.96875 35.527344 408.382813 34.933594 C 408.933594 34.148438 419.226563 22.730469 419.226563 22.730469 L 408.4375 23.738281 C 408.4375 23.738281 400.296875 33.4375 398.808594 35.476563 C 398.4375 35.988281 398.203125 36.429688 398.097656 36.816406 L 381.78125 36.820313 C 381.78125 36.820313 383.753906 36.429688 389.632813 33.375 C 391.082031 32.621094 392.285156 31.851563 393.214844 31.078125 C 397.394531 27.582031 395.132813 23.730469 389.785156 22.503906 C 385.167969 21.445313 378.589844 22.386719 374.648438 23.320313 C 370.429688 24.316406 362.679688 27.414063 359.410156 29.546875 C 358.628906 30.054688 358.898438 29.558594 359.6875 28.132813 C 361.003906 25.746094 360.296875 23.050781 360.296875 23.050781 L 352.21875 22.933594 C 352.21875 22.933594 354.238281 28.371094 350.316406 32.917969 C 349.628906 33.714844 348.570313 34.929688 347.300781 36.382813 C 343.652344 36.316406 335.289063 36.148438 333.585938 35.902344 C 331.390625 35.589844 332.945313 33.476563 334.273438 32.457031 C 335.601563 31.4375 337.59375 29 337.59375 29 C 337.59375 29 329.921875 28.84375 328.683594 29.5 C 327.449219 30.152344 324.585938 33.476563 323.289063 34.574219 C 321.996094 35.675781 316.878906 36.726563 314.058594 36.101563 C 311.234375 35.472656 312.015625 33.546875 314.71875 31.886719 C 323.953125 26.214844 340.574219 26.546875 340.574219 26.546875 L 345.621094 23.046875 C 345.621094 23.046875 339.949219 22.75 335.558594 22.605469 C 326.164063 22.296875 300.953125 27.769531 302.535156 36.253906 L 276.492188 36.253906 C 276.492188 36.253906 271.414063 36.726563 271.128906 34.441406 C 270.816406 31.933594 281.664063 26.84375 287.152344 25.902344 C 292.640625 24.960938 291.363281 27.742188 290.578125 28.367188 C 289.796875 28.996094 288.929688 30.355469 288.929688 30.355469 L 297.519531 29.761719 C 297.519531 29.761719 299.003906 27.792969 299.316406 25.441406 C 299.472656 24.269531 298.714844 23.097656 297.023438 22.3125 C 289.355469 18.75 267.8125 25.601563 264.445313 31.726563 C 263.785156 32.929688 262.964844 34.8125 263.15625 36.253906 L 256.011719 36.253906 C 257.40625 33.730469 257.414063 30.507813 256.753906 28.21875 C 256.289063 26.621094 255.046875 24.945313 254.078125 23.816406 C 257.855469 21.554688 260.371094 19.996094 260.371094 19.996094 L 250.234375 19.988281 C 250.234375 19.988281 225.703125 35.851563 222.253906 36.792969 C 218.804688 37.734375 212.15625 35.070313 217.195313 29.054688 C 222.230469 23.039063 240.789063 4.144531 240.789063 4.144531 L 229.460938 5.402344 C 229.460938 5.402344 222.511719 14.453125 215.140625 22.414063 C 212.757813 22.316406 208.875 22.316406 203.738281 22.855469 C 191.039063 24.195313 175.78125 28.433594 178.035156 36.183594 L 164.601563 36.113281 C 164.601563 36.113281 163.488281 35.984375 166.78125 32.691406 C 170.074219 29.398438 174.0625 24.554688 170.972656 22.597656 C 165.789063 19.316406 148.570313 27.214844 148.570313 27.214844 L 152.941406 21.960938 L 143.261719 22.820313 L 132.515625 36.128906 L 121.363281 36.199219 C 121.363281 36.199219 120.902344 36.183594 120.738281 36.09375 C 119.582031 35.46875 120.695313 33.355469 121.859375 32.460938 C 123.1875 31.445313 125.175781 29.003906 125.175781 29.003906 C 125.175781 29.003906 117.503906 28.847656 116.269531 29.503906 C 115.03125 30.15625 112.171875 33.480469 110.875 34.578125 C 109.578125 35.679688 104.464844 36.730469 101.644531 36.105469 C 98.820313 35.476563 99.597656 33.550781 102.304688 31.890625 C 111.539063 26.21875 128.15625 26.550781 128.15625 26.550781 L 133.203125 23.050781 C 133.203125 23.050781 127.535156 22.757813 123.140625 22.609375 C 113.742188 22.300781 88.492188 27.78125 90.125 36.277344 L 75.855469 36.367188 L 71.910156 40.289063 C 71.910156 40.289063 102.164063 40.519531 103.703125 40.382813 C 107.773438 40.015625 111.320313 38.59375 111.320313 38.59375 L 113.890625 40.171875 L 138.707031 40.203125 C 138.707031 40.203125 145.464844 33.917969 150.902344 31.089844 C 156.34375 28.261719 160.414063 26.195313 161.511719 27.765625 C 162.609375 29.332031 155.324219 35.492188 153.753906 37.214844 C 152.1875 38.941406 153.554688 40.148438 155.90625 40.179688 C 157.820313 40.207031 176.355469 40.230469 183.1875 40.238281 C 183.1875 40.238281 183.191406 40.242188 183.191406 40.242188 C 188.105469 42.207031 196.949219 40.535156 203.691406 37.261719 C 206.5625 35.871094 208.621094 34.578125 208.621094 34.578125 C 208.621094 34.578125 207.859375 37.824219 209.742188 39.109375 C 211.621094 40.394531 213.460938 42.105469 221.613281 40.539063 C 221.992188 40.464844 222.429688 40.34375 222.898438 40.203125 C 227.320313 40.199219 241.988281 40.179688 248.734375 40.125 L 305.667969 40.125 C 310.214844 40.847656 314.5625 40.585938 316.117188 40.378906 C 319.941406 39.863281 323.734375 38.59375 323.734375 38.59375 C 323.734375 38.59375 324.757813 40.203125 326.304688 40.167969 C 328.3125 40.121094 343.964844 40.191406 343.964844 40.191406 C 338.039063 46.9375 330.628906 55.332031 330.628906 55.332031 L 340.472656 54.582031 C 340.472656 54.582031 350.90625 42.617188 355.84375 38.542969 C 360.785156 34.464844 373.484375 27.300781 379.835938 26.441406 C 386.1875 25.578125 388.316406 27.15625 385.039063 30.128906 C 379.585938 35.078125 364.140625 36.675781 364.140625 36.675781 L 359.355469 40.203125 L 426.703125 40.203125 C 426.703125 40.203125 441.992188 27.550781 447.324219 27.320313 C 449.9375 27.210938 450.09375 27.886719 448.761719 29.453125 C 447.429688 31.023438 441.683594 37.457031 441.433594 38.683594 C 441.050781 40.5625 444.109375 40.203125 444.109375 40.203125 L 469.664063 40.203125 L 469.617188 40.074219 C 470.816406 40.46875 472.382813 40.710938 474.445313 40.710938 C 477.851563 40.710938 482.644531 40.019531 486.914063 39.128906 C 487.15625 39.078125 487.378906 39.289063 487.242188 39.453125 C 485.152344 41.898438 481.703125 44.855469 477.621094 45.417969 C 470.921875 46.339844 468.53125 46.140625 468.53125 46.140625 L 463.242188 52.367188 C 463.242188 52.367188 472.785156 52.222656 476.757813 51.445313 C 484.992188 49.835938 494.746094 43.589844 497.578125 37.550781 C 498.023438 36.597656 498.351563 35.894531 498.601563 35.347656 C 503.335938 32.972656 507.300781 29.722656 511.085938 25.980469 C 513.875 23.222656 514.5625 22.785156 511.453125 22.386719 Z M 202.28125 33.652344 C 193.65625 37.730469 186.976563 37.035156 186.820313 34.839844 C 186.664063 32.644531 191.671875 28.605469 200.921875 27.195313 C 205.609375 26.480469 209.082031 26.320313 211.375 26.335938 C 207.976563 29.71875 204.730469 32.496094 202.28125 33.652344 Z M 249.097656 31.394531 C 248.785156 34.84375 245.453125 36.253906 241.847656 36.410156 C 239.316406 36.519531 234.324219 36.472656 231.5625 36.4375 C 236.503906 33.960938 242.238281 30.746094 247.292969 27.816406 C 248.25 28.414063 249.269531 29.5 249.097656 31.394531 Z M 488.179688 35.210938 C 479.503906 37.199219 475.589844 37.007813 475.066406 34.8125 C 474.546875 32.617188 481.183594 29.277344 487.75 27.835938 C 495.382813 26.164063 504.148438 26.050781 504.148438 26.050781 C 504.148438 26.050781 496.855469 33.226563 488.179688 35.210938 "/>
<path style=" stroke:none;fill-rule:nonzero;fill:rgb(0%,0%,0%);fill-opacity:1;" d="M 418.863281 17.984375 C 423.960938 17.984375 427 16.179688 427.078125 13.90625 C 427.15625 11.632813 422.625 10.179688 419.488281 10.101563 C 416.355469 10.023438 410.835938 10.859375 410.773438 13.835938 C 410.730469 15.796875 413.769531 17.984375 418.863281 17.984375 "/>
</g>
</svg>
