<?xml version="1.0" encoding="UTF-8"?>
<svg xmlns="http://www.w3.org/2000/svg" xmlns:xlink="http://www.w3.org/1999/xlink" width="248pt" height="81pt" viewBox="0 0 248 81" version="1.1">
<g id="surface1">
<path style=" stroke:none;fill-rule:nonzero;fill:rgb(0%,0%,0%);fill-opacity:1;" d="M 169.78125 4.082031 C 173.816406 10.058594 172.972656 11.550781 168.679688 17.238281 C 157.285156 32.328125 146.738281 47.296875 137.652344 63.359375 C 142.71875 63.410156 148.921875 62.242188 154.460938 62.617188 C 164.226563 63.28125 168.695313 69.566406 167.652344 76.859375 C 162.179688 76.945313 139.257813 79.140625 134.113281 80.160156 C 127.570313 81.460938 125.613281 80.988281 121.617188 77.46875 C 115.226563 71.84375 115.429688 69.566406 119.078125 62.003906 C 124.210938 51.363281 146.402344 17.535156 158.335938 3.941406 C 162.628906 -0.945313 166.164063 -1.273438 169.78125 4.082031 Z M 243.878906 5.441406 C 239.742188 0.4375 238.921875 0.324219 233.152344 4.339844 C 222.511719 11.753906 212.597656 21.269531 203.214844 30.554688 C 201.671875 25.515625 202.03125 9.15625 202.03125 6.945313 C 202.027344 1.421875 201.378906 0.875 194.882813 0.65625 C 189.210938 0.460938 188.527344 1.253906 187.34375 6.390625 C 184.28125 19.671875 187.171875 32.925781 188.605469 46.40625 C 188.605469 46.40625 179.015625 62.691406 178.300781 63.816406 C 173.488281 71.414063 172.980469 73.300781 179.777344 78.265625 C 185.488281 82.433594 186.339844 82.164063 189.335938 76.386719 C 194.085938 67.238281 199.808594 59.367188 205.890625 50.109375 C 216.835938 38.515625 229.253906 26.1875 242.21875 15.65625 C 247.824219 11.101563 247.664063 10.023438 243.878906 5.441406 Z M 127.039063 2.410156 C 121.804688 -1.679688 120.632813 -0.90625 118.777344 5.582031 C 112.828125 26.386719 104.070313 44.941406 89.921875 62.195313 C 80.058594 74.214844 76.140625 70.710938 80.511719 57.199219 C 85.09375 43.042969 92.21875 29.644531 100.726563 17 C 104.164063 11.886719 104.710938 9.816406 99.457031 4.855469 C 95.804688 1.40625 95.101563 0.996094 91.136719 5.785156 C 79.847656 19.421875 66.382813 42.644531 63.554688 57.277344 C 62.242188 64.066406 63.128906 71.472656 72.15625 76.65625 C 84.046875 83.480469 90.636719 80.515625 96.164063 75.605469 C 112.917969 60.726563 128.371094 28.1875 130.726563 13.378906 C 131.777344 6.761719 130.960938 5.472656 127.039063 2.410156 Z M 70.929688 4.101563 C 63.789063 -2.078125 62.25 -2.328125 57.679688 8.09375 C 48.832031 28.253906 38.191406 45.3125 23.492188 62.398438 C 19.65625 66.859375 16.558594 64.160156 17.242188 61.148438 C 18.492188 55.648438 20.179688 51.265625 21.816406 46.085938 C 23.542969 40.621094 24.0625 39.074219 18.550781 36.792969 C 11.71875 33.964844 10.054688 33.945313 6.523438 41.039063 C 3.472656 47.164063 1.867188 54.035156 1.304688 61.054688 C 0.617188 69.578125 2.773438 74.144531 11.550781 77.957031 C 23.710938 83.238281 28.476563 80.527344 37.742188 70.148438 C 52.695313 53.402344 62.328125 37.039063 71.558594 17.441406 C 75.203125 9.699219 75.269531 7.851563 70.929688 4.101563 "/>
</g>
</svg>
