<?xml version="1.0" encoding="UTF-8"?>
<svg xmlns="http://www.w3.org/2000/svg" xmlns:xlink="http://www.w3.org/1999/xlink" width="518pt" height="463pt" viewBox="0 0 518 463" version="1.1">
<g id="surface1">
<path style=" stroke:none;fill-rule:nonzero;fill:rgb(0%,0%,0%);fill-opacity:1;" d="M 199.210938 159.15625 C 194.089844 166.898438 186.460938 176.921875 192.609375 185.914063 C 195.640625 189.941406 201.945313 187.964844 205.816406 185.914063 C 223.578125 171.679688 237.355469 150.277344 253.066406 135.703125 C 253.066406 135.703125 256.480469 132.4375 256.367188 137.296875 C 248.058594 155.058594 233.535156 171.253906 221.921875 187.421875 C 221.921875 187.421875 231.660156 187.507813 236.328125 187.851563 C 249.535156 170.542969 260.582031 152.4375 277.316406 138.09375 C 279.9375 136.046875 283.125 132.96875 286.085938 134.5625 C 286.769531 137.753906 284.148438 140.144531 282.558594 142.761719 C 275.382813 154.945313 262.175781 164.734375 262.289063 179.992188 C 262.90625 183.246094 264.679688 184.890625 267.300781 186.824219 C 276.976563 191.949219 284.265625 182.726563 290.980469 177.488281 C 291.777344 180.449219 292.574219 183.410156 294.625 185.914063 C 298.496094 189.785156 302.597656 188.648438 306.578125 186.484375 C 324.570313 172.136719 338.234375 151.757813 353.605469 137.070313 C 354.515625 136.5 355.996094 135.589844 356.902344 137.070313 C 356.789063 138.09375 357.136719 139.347656 356.566406 140.371094 C 348.140625 157.222656 334.816406 172.136719 324.34375 188.191406 L 338.574219 188.648438 C 353.261719 170.085938 364.191406 148.453125 384.800781 135.132813 C 386.621094 134.109375 388.332031 135.589844 387.988281 137.636719 C 382.066406 153.234375 363.054688 164.28125 364.761719 182.382813 C 366.015625 184.660156 367.382813 187.507813 370 188.417969 C 380.019531 190.921875 388.21875 182.953125 395.390625 176.921875 C 394.820313 180.5625 395.960938 184.433594 398.691406 186.824219 C 401.652344 188.304688 404.726563 189.445313 408.480469 188.988281 C 411.671875 188.648438 414.746094 187.507813 417.25 186.484375 C 415.65625 188.078125 414.859375 190.128906 413.152344 191.722656 C 397.667969 195.25 381.273438 204.359375 373.871094 219.84375 C 372.617188 224.058594 372.277344 228.839844 376.261719 231.910156 C 379.105469 233.734375 382.867188 233.164063 385.824219 232.140625 C 401.425781 224.511719 411.21875 209.140625 423.058594 196.617188 C 430.914063 193.429688 438.996094 190.128906 445.941406 185.460938 C 450.386719 181.816406 456.761719 178.285156 456.644531 172.25 C 456.191406 171.679688 455.394531 169.972656 454.480469 170.882813 C 449.246094 180.105469 438.996094 185.117188 429.890625 188.648438 L 473.269531 128.074219 C 466.894531 128.871094 457.785156 125.683594 455.277344 134.5625 C 454.480469 132.515625 452.320313 130.464844 450.386719 129.667969 C 438.542969 127.390625 427.269531 132.398438 418.960938 140.371094 C 402.789063 153.007813 398.007813 173.617188 379.5625 182.953125 C 378.085938 183.863281 376.605469 183.636719 375.691406 182.15625 C 375.691406 172.820313 384.6875 166.21875 389.128906 158.589844 C 393.683594 150.617188 402.789063 142.191406 400.285156 132.171875 C 399.71875 128.984375 396.1875 128.1875 393.453125 127.503906 C 383.777344 127.730469 375.320313 134.449219 368.71875 141.167969 L 369.203125 133.765625 C 368.636719 131.261719 367.265625 128.757813 365.105469 127.503906 C 358.613281 124.316406 353.488281 130.464844 349.277344 133.992188 C 335.84375 148.339844 323.203125 164.851563 308.515625 178.855469 C 307.265625 179.878906 304.871094 180.675781 304.1875 178.628906 C 304.304688 173.390625 307.71875 168.039063 310.679688 163.597656 C 319.5625 150.390625 329.238281 139.230469 338.347656 126.707031 L 324.683594 126.136719 C 313.183594 141.054688 301.910156 156.992188 290.1875 172.25 C 285.855469 176.121094 281.644531 181.699219 275.726563 182.382813 C 274.019531 182.382813 273.105469 180.5625 273.5625 178.855469 C 280.164063 165.304688 290.867188 154.03125 297.585938 140.824219 C 298.949219 137.070313 298.949219 131.375 295.421875 128.300781 C 283.695313 123.519531 274.246094 134.5625 266.386719 141.394531 C 267.070313 139.003906 267.414063 136.269531 267.300781 133.539063 C 266.957031 131.035156 266.046875 128.300781 263.429688 127.164063 C 257.394531 124.773438 252.382813 128.757813 248.398438 132.398438 C 234.621094 146.859375 222.664063 164.734375 207.183594 178.058594 C 207.183594 178.058594 202.742188 180.917969 202.742188 175.554688 C 212.648438 158.929688 225.398438 141.695313 238.039063 125.867188 C 238.039063 125.867188 228.472656 126.253906 223.804688 125.570313 C 215.492188 136.613281 206.613281 148.113281 199.210938 159.15625 Z M 379.335938 227.8125 C 376.355469 221.875 381.148438 218.25 384.230469 214.148438 C 390.949219 206.523438 399.261719 200.601563 408.480469 198.210938 C 402.28125 209.65625 382.4375 232.972656 379.335938 227.8125 Z M 418.046875 158.929688 C 425.105469 150.160156 433.074219 139.6875 443.777344 135.359375 C 445.828125 135.476563 448.675781 134.90625 449.246094 137.636719 C 446.625 149.367188 436.835938 158.132813 430.117188 168.152344 C 424.082031 175.097656 418.273438 181.359375 409.847656 183.75 C 408.480469 183.976563 406.890625 183.296875 406.664063 181.816406 C 407.003906 172.820313 413.835938 166.328125 418.046875 158.929688 Z M 238.265625 109.96875 C 236.328125 107.921875 237.355469 105.414063 237.46875 102.910156 C 238.152344 99.382813 241.453125 96.988281 244.527344 96.078125 C 247.375 95.851563 249.652344 97.332031 251.359375 98.8125 C 252.613281 101.203125 252.613281 104.050781 251.359375 106.441406 C 250.335938 108.832031 248.53125 111.664063 245.894531 111.90625 C 243.046875 112.167969 240.542969 111.449219 238.265625 109.96875 Z M 338.347656 104.847656 C 339.144531 101.429688 340.511719 97.785156 344.039063 96.078125 C 347.230469 94.484375 351.554688 96.195313 353.605469 98.8125 C 355.085938 103.023438 352.578125 107.011719 349.507813 109.96875 C 347.113281 111.109375 343.925781 112.589844 341.308594 110.765625 C 339.371094 109.398438 338.234375 106.894531 338.347656 104.847656 Z M 514.824219 387.558594 L 506.859375 396.324219 C 501.964844 400.652344 497.40625 406.570313 490.804688 407.257813 C 489.664063 407.140625 488.296875 406.683594 488.070313 405.320313 C 486.8125 401.507813 490.066406 397.007813 499.800781 382.660156 C 505.269531 374.59375 512.550781 366.378906 510.957031 355.90625 C 510.160156 352.714844 506.515625 351.351563 503.671875 350.4375 C 493.992188 349.644531 486.820313 359.09375 480.441406 364.332031 C 480.78125 362.964844 480.898438 360.914063 481.238281 359.207031 C 480.898438 356.472656 480.101563 353.628906 477.367188 351.808594 C 466.550781 347.59375 459.605469 358.640625 452.203125 364.898438 C 452.09375 359.890625 452.320313 353.398438 446.742188 351.007813 C 444.351563 350.667969 442.1875 350.214844 439.910156 351.234375 C 426.8125 360.003906 419.527344 372.867188 408.027344 383.003906 C 405.183594 385.847656 402.222656 389.035156 398.691406 389.265625 C 405.636719 380.15625 412.015625 371.503906 413.722656 360.230469 C 413.605469 357.613281 412.128906 354.539063 409.847656 352.605469 C 403.019531 348.730469 395.390625 352.605469 389.355469 355.675781 C 373.527344 363.417969 364.421875 383.6875 347 388.46875 C 351.214844 384.140625 353.605469 379.132813 356.902344 374.464844 C 359.296875 368.65625 364.078125 363.078125 361.800781 355.90625 C 358.953125 350.4375 352.238281 349.1875 346.546875 350.667969 C 326.050781 358.183594 303.394531 377.992188 303.277344 401.558594 C 303.960938 406.003906 306.464844 410.214844 311.019531 411.921875 C 324.453125 414.316406 333.339844 402.472656 342.105469 393.933594 C 347.683594 393.59375 352.464844 390.972656 357.136719 389.492188 C 355.195313 394.503906 353.945313 401.21875 356.109375 406.457031 C 357.019531 409.644531 360.4375 411.46875 363.167969 412.71875 C 376.03125 413.742188 384.6875 403.269531 394.023438 394.957031 L 397.097656 394.730469 C 406.914063 393.894531 423.96875 370.933594 437.519531 358.410156 C 443.1875 353.421875 442.757813 360.230469 441.617188 361.367188 C 432.621094 379.925781 418.503906 395.5625 406.09375 412.640625 C 406.09375 412.640625 415.3125 412.492188 421.121094 412.71875 L 446.285156 379.132813 C 451.296875 371.730469 456.328125 366.902344 464.214844 359.015625 C 468.394531 354.835938 471.195313 358.253906 469.738281 360.800781 C 458.996094 379.570313 449.488281 392.554688 436.378906 412.152344 C 440.25 412.835938 445.03125 413.175781 449.472656 413.0625 C 461.996094 397.464844 471.902344 381.40625 485.566406 366.265625 C 489.324219 362.734375 492.738281 358.523438 497.292969 357.269531 C 498.089844 358.066406 503.734375 355.277344 485.566406 380.496094 C 480.132813 388.039063 475.316406 396.324219 476.570313 406.457031 C 478.054688 410.785156 482.035156 413.972656 486.703125 414.085938 C 499.6875 412.378906 508.109375 402.019531 516.765625 392.226563 C 517.105469 390.289063 516.195313 388.582031 514.824219 387.558594 Z M 339.941406 388.695313 C 338.804688 388.46875 337.777344 388.128906 336.980469 387.332031 C 336.410156 386.078125 343.328125 384.796875 339.941406 379.925781 C 338.804688 378.296875 337.210938 377.765625 335.613281 377.199219 C 333.449219 377.765625 330.945313 379.019531 330.378906 381.292969 C 328.894531 385.164063 331.515625 388.695313 334.476563 391.425781 L 336.640625 392.566406 C 331.402344 398.375 325.023438 404.976563 317.511719 407.257813 C 315.804688 407.257813 314.664063 407.710938 313.980469 405.890625 C 311.816406 399.058594 316.144531 392.792969 319.675781 387.332031 C 327.984375 375.148438 338.804688 363.53125 352.011719 356.699219 C 354.058594 356.246094 356.109375 357.15625 356.902344 358.863281 C 357.703125 363.875 354.515625 367.859375 352.464844 372.074219 C 349.394531 377.992188 344.609375 383.34375 339.941406 388.695313 Z M 391.632813 390.058594 C 390.265625 390.289063 389.242188 389.71875 388.332031 388.921875 C 389.925781 387.671875 392.316406 385.964844 392.429688 383.230469 C 392.316406 380.953125 390.265625 379.472656 388.332031 378.5625 C 385.484375 378.5625 382.980469 380.269531 381.726563 382.660156 C 380.816406 384.824219 381.15625 387.785156 382.296875 389.835938 C 383.207031 392.226563 385.824219 393.023438 387.761719 394.160156 C 382.183594 398.832031 373.894531 410.078125 367.496094 407.027344 C 362.824219 404.949219 366.730469 397.917969 368.0625 393.933594 C 375.691406 380.15625 386.394531 368.773438 399.261719 359.207031 C 401.882813 357.839844 407.460938 354.425781 408.480469 359.433594 C 407.460938 371.730469 398.921875 380.496094 391.632813 390.058594 Z M 390.492188 423.652344 C 379.5625 436.859375 367.382813 450.976563 350.871094 455.417969 C 335.730469 459.96875 317.054688 457.582031 305.78125 445.851563 C 293.03125 432.644531 296.902344 413.859375 297.355469 396.894531 C 299.519531 379.925781 294.625 362.394531 279.824219 352.945313 C 309.652344 346.910156 347.570313 332.335938 354.972656 297.949219 C 357.019531 284.175781 349.960938 270.28125 338.347656 262.769531 C 342.21875 259.675781 346.316406 258.441406 350.644531 258.328125 C 351.894531 257.757813 351.894531 256.960938 352.011719 255.9375 C 350.757813 256.507813 341.148438 253.933594 332.3125 260.265625 C 323.089844 255.027344 312.648438 253.851563 301.113281 253.203125 C 268.484375 251.371094 233.824219 263.449219 218.339844 294.421875 C 213.101563 307.972656 212.988281 325.960938 224.375 336.207031 C 225.398438 337.230469 227.335938 337.34375 228.472656 336.550781 C 227.335938 333.589844 225.058594 331.195313 224.375 328.011719 C 221.074219 309.789063 228.929688 290.890625 243.503906 278.023438 C 262.972656 261.972656 289.101563 255.363281 314.777344 259.46875 C 321.898438 260.605469 325.097656 261.925781 326.507813 263.339844 C 291.894531 283.035156 267.753906 317.878906 251.132813 351.578125 C 248.285156 351.808594 245.324219 352.148438 242.933594 351.234375 C 242.25 351.808594 242.023438 352.605469 242.136719 353.398438 C 244.222656 355.484375 246.234375 355.5625 248.398438 356.472656 C 237.011719 381.636719 226.425781 407.484375 207.636719 429.113281 C 198.074219 440.273438 184.070313 447.675781 169.722656 442.210938 C 159.589844 437.769531 155.832031 427.066406 155.832031 417.160156 C 155.832031 395.246094 169.609375 376.511719 187.144531 363.53125 C 193.289063 360.003906 202.285156 357.613281 209.003906 361.367188 C 211.28125 362.621094 213.21875 367.0625 216.175781 364.101563 C 216.972656 363.304688 215.722656 361.824219 214.46875 360.570313 C 209.003906 354.195313 201.148438 352.714844 192.949219 353.96875 C 170.746094 357.726563 153.441406 379.589844 149 400.421875 C 145.585938 415.910156 148.660156 433.097656 162.09375 443.117188 C 172.226563 451.320313 186.574219 449.609375 198.414063 445.511719 C 235.644531 427.523438 256.253906 388.582031 273.789063 354.3125 C 276.519531 354.992188 278.914063 358.183594 279.257813 361.144531 C 281.761719 385.164063 275.726563 408.394531 285.515625 430.824219 C 292.917969 448.128906 311.476563 459.742188 329.808594 461.90625 C 356.566406 464.980469 378.425781 447.335938 393 427.75 C 393.28125 424.503906 393.28125 424.503906 390.492188 423.652344 Z M 276.863281 349.070313 C 286.996094 325.050781 298.839844 300.910156 316.714844 279.734375 C 321.269531 274.722656 326.847656 270.171875 332.3125 266.296875 C 341.191406 272.21875 343.8125 283.148438 341.535156 293.394531 C 335.15625 323.566406 304.871094 343.152344 276.863281 349.070313 Z M 223.007813 89.816406 C 227.789063 62.261719 215.835938 34.367188 192.609375 16.835938 C 198.074219 13.304688 203.992188 11.253906 209.914063 8.863281 C 210.027344 7.15625 208.664063 5.5625 207.636719 4.765625 C 200.804688 7.269531 194.316406 10.457031 188.054688 14.328125 C 180.652344 9.890625 173.023438 6.246094 164.824219 3.96875 C 134.199219 -4.800781 97.765625 2.828125 77.609375 28.335938 C 67.023438 43.816406 61.214844 65.222656 69.753906 82.984375 C 71.234375 84.125 73.171875 82.984375 74.878906 82.984375 C 71.691406 77.863281 71.464844 71.941406 71.347656 66.246094 C 73.511719 48.144531 84.441406 32.433594 100.039063 21.730469 C 123.382813 6.019531 157.996094 2.488281 183.386719 16.265625 C 181.929688 17.71875 180.3125 18.429688 178.71875 19.566406 C 140.460938 44.730469 113.933594 86.972656 94.347656 126.367188 C 81.59375 149.933594 70.324219 176.351563 45.617188 192.515625 C 32.636719 188.648438 14.417969 182.726563 2.238281 191.722656 C 0.640625 193.65625 0.640625 195.59375 1.097656 197.984375 C 3.941406 204.554688 20.253906 207.164063 32.863281 203.222656 C 39.011719 201.300781 42.542969 199.691406 47.324219 198.78125 C 67.25 206.40625 91.160156 205.382813 111.769531 200.714844 C 163.6875 189.101563 211.621094 140.824219 223.007813 89.816406 Z M 7.929688 197.1875 C 6.742188 191.191406 17.175781 190.074219 33.890625 194.453125 L 37.761719 195.476563 C 29.105469 198.78125 9.203125 203.605469 7.929688 197.1875 Z M 119.171875 188.417969 C 98.449219 197.640625 75.902344 201.96875 53.359375 195.25 C 57.800781 191.722656 63.71875 189.214844 68.617188 185.460938 C 113.933594 152.667969 132.832031 101.316406 157.996094 56.457031 C 165.964844 43.476563 176.894531 30.039063 188.054688 20.136719 C 190.617188 21.558594 192.949219 23.859375 195.113281 26.058594 C 216.277344 47.566406 208.433594 82.984375 196.707031 107.808594 C 180.992188 141.394531 151.503906 170.65625 119.171875 188.417969 "/>
</g>
</svg>
