<?xml version="1.0" encoding="UTF-8"?>
<svg xmlns="http://www.w3.org/2000/svg" xmlns:xlink="http://www.w3.org/1999/xlink" width="544pt" height="78pt" viewBox="0 0 544 78" version="1.1">
<g id="surface1">
<path style=" stroke:none;fill-rule:nonzero;fill:rgb(0%,0%,0%);fill-opacity:1;" d="M 192.828125 7.78125 C 250.410156 13.441406 316.5625 25.132813 365.363281 27.019531 C 408.9375 28.699219 454.175781 25.34375 487.4375 11.527344 C 498.191406 7.0625 497.675781 6.660156 486.050781 10.527344 C 451.863281 21.90625 414.519531 26.320313 364.882813 24.742188 C 316.535156 23.207031 226.65625 8.53125 191.902344 4.828125 C 127.199219 -2.066406 42.917969 -2.617188 3.515625 15.925781 C -3 18.992188 0.128906 26.808594 6.667969 24.0625 C 65.46875 -0.625 145.371094 3.117188 192.828125 7.78125 "/>
<path style=" stroke:none;fill-rule:nonzero;fill:rgb(0%,0%,0%);fill-opacity:1;" d="M 245.4375 61.050781 C 199.292969 55.695313 155.007813 51.6875 104.078125 55.660156 C 57.300781 59.308594 25.28125 67.164063 16.152344 70.542969 C 7.636719 73.691406 13.546875 80.050781 21.320313 77.523438 C 48.265625 68.757813 97.863281 61.253906 107.574219 60.234375 C 154.691406 55.300781 200.125 58.847656 244.804688 63.75 C 271.644531 66.699219 298.210938 70.136719 324.703125 72.519531 C 389.667969 79.011719 454.445313 73.472656 508.488281 52.800781 C 526.089844 46.066406 528.976563 43.664063 505.808594 51.753906 C 433.148438 77.113281 390.960938 77.933594 245.4375 61.050781 "/>
<path style=" stroke:none;fill-rule:nonzero;fill:rgb(0%,0%,0%);fill-opacity:1;" d="M 34.617188 61.648438 C 36.152344 61.175781 36.535156 61.101563 36.082031 59.316406 C 35.625 57.527344 37.351563 53.046875 36.742188 53.171875 C 36.132813 53.296875 18.203125 57.808594 18.203125 57.808594 C 18.203125 57.808594 17.855469 59.003906 17.746094 60.53125 C 17.636719 62.0625 19.792969 64.804688 20.3125 65.269531 C 20.738281 65.652344 20.398438 66.011719 21.769531 65.597656 C 23.136719 65.179688 33.082031 62.121094 34.617188 61.648438 "/>
<path style=" stroke:none;fill-rule:nonzero;fill:rgb(0%,0%,0%);fill-opacity:1;" d="M 24.328125 31.480469 C 27.390625 30.632813 27.445313 30.253906 27.445313 29.089844 C 27.445313 27.925781 28.65625 23.398438 28.960938 21.878906 C 29.261719 20.363281 29.59375 19.988281 28.148438 20.476563 C 26.703125 20.96875 15.4375 23.984375 13.851563 24.800781 C 12.265625 25.613281 11.410156 25.65625 10.828125 26.847656 C 9.351563 29.882813 8.980469 32.027344 8.761719 34.851563 C 8.65625 36.1875 8.960938 36.511719 10.484375 35.761719 C 12.003906 35.015625 21.261719 32.332031 24.328125 31.480469 "/>
<path style=" stroke:none;fill-rule:nonzero;fill:rgb(0%,0%,0%);fill-opacity:1;" d="M 63.898438 46.773438 C 61.816406 47.148438 61.492188 47.515625 60.804688 48.304688 C 60.121094 49.097656 57.714844 54.09375 57.023438 55.195313 C 56.140625 56.601563 57.171875 56.992188 59.210938 56.691406 C 61.25 56.394531 72.363281 53.992188 74.679688 53.570313 C 76.996094 53.144531 77.09375 52.695313 77.449219 52.011719 C 77.804688 51.328125 79.097656 48.785156 80.054688 47.164063 C 81.015625 45.542969 80.628906 45.390625 79.105469 45.472656 C 77.582031 45.558594 65.984375 46.398438 63.898438 46.773438 "/>
<path style=" stroke:none;fill-rule:nonzero;fill:rgb(0%,0%,0%);fill-opacity:1;" d="M 68.644531 23.5625 C 68.5 24.261719 65.574219 28.703125 65.035156 30.523438 C 64.625 31.910156 64.941406 32.191406 67.375 31.691406 C 69.808594 31.191406 79.519531 30.019531 82.601563 29.699219 C 85.683594 29.375 86.292969 29.300781 86.902344 28.46875 C 87.511719 27.636719 90.53125 24.40625 91.75 22.078125 C 92.964844 19.75 92.660156 20.011719 89.449219 19.917969 C 86.238281 19.828125 72.285156 22.191406 70.660156 22.542969 C 69.039063 22.898438 68.789063 22.863281 68.644531 23.5625 "/>
<path style=" stroke:none;fill-rule:nonzero;fill:rgb(0%,0%,0%);fill-opacity:1;" d="M 64.402344 20.257813 C 69.617188 19.449219 69.476563 19.230469 70.082031 18.316406 C 70.691406 17.398438 74.347656 12.578125 75.414063 11.078125 C 76.476563 9.582031 75.980469 10.007813 73.695313 10.257813 C 71.414063 10.503906 59.6875 12.222656 56.101563 12.636719 C 52.511719 13.050781 52.070313 13.546875 51.613281 14.128906 C 51.15625 14.710938 47.15625 20.308594 46.925781 21.246094 C 46.589844 22.59375 47.070313 22.78125 49.351563 22.53125 C 51.632813 22.28125 59.183594 21.070313 64.402344 20.257813 "/>
<path style=" stroke:none;fill-rule:nonzero;fill:rgb(0%,0%,0%);fill-opacity:1;" d="M 86.140625 39.429688 C 88.4375 39.320313 98.152344 38.609375 101.546875 38.632813 C 104.9375 38.65625 105.652344 38.800781 106.566406 38.050781 C 107.480469 37.304688 111.433594 33.976563 112.804688 31.980469 C 114.175781 29.988281 113.800781 29.898438 111.855469 29.851563 C 109.910156 29.808594 100.082031 29.953125 95.710938 30.414063 C 91.34375 30.871094 90.792969 31.136719 89.878906 31.886719 C 88.96875 32.632813 85.695313 35.664063 84.347656 37.324219 C 82.484375 39.617188 83.839844 39.535156 86.140625 39.429688 "/>
<path style=" stroke:none;fill-rule:nonzero;fill:rgb(0%,0%,0%);fill-opacity:1;" d="M 107.4375 42.839844 C 105.761719 43.917969 102.300781 47.644531 101.039063 49.023438 C 99.804688 50.371094 99.988281 51.332031 102.574219 50.75 C 105.160156 50.167969 112.007813 49.753906 116.421875 49.671875 C 120.835938 49.585938 121.898438 49.421875 122.964844 48.339844 C 124.03125 47.257813 127.039063 44.554688 128.863281 42.808594 C 130.6875 41.0625 129.914063 40.945313 127.953125 40.921875 C 125.992188 40.894531 116.390625 41.125 112.9375 41.289063 C 109.480469 41.449219 109.109375 41.757813 107.4375 42.839844 "/>
<path style=" stroke:none;fill-rule:nonzero;fill:rgb(0%,0%,0%);fill-opacity:1;" d="M 123.652344 18.195313 C 123.335938 18.835938 120.664063 21.886719 119.285156 23.167969 C 116.671875 25.605469 118.972656 25.386719 120.941406 25.359375 C 122.914063 25.335938 132.234375 25.953125 135.3125 26.003906 C 138.390625 26.054688 139.21875 26.152344 140.589844 25.074219 C 141.960938 23.992188 143.785156 22.328125 146.472656 19.074219 C 148.507813 16.613281 148.375 16.828125 146.398438 16.746094 C 144.421875 16.660156 134.148438 16.898438 129.164063 17.03125 C 124.183594 17.164063 123.972656 17.554688 123.652344 18.195313 "/>
<path style=" stroke:none;fill-rule:nonzero;fill:rgb(0%,0%,0%);fill-opacity:1;" d="M 156.40625 36.917969 C 157.164063 36.171875 162.359375 32.773438 164.1875 31.277344 C 166.011719 29.78125 165.6875 29.957031 163.097656 29.707031 C 160.511719 29.457031 147.800781 28.90625 143.308594 28.707031 C 138.8125 28.507813 139.355469 28.734375 138.445313 29.402344 C 137.53125 30.066406 133.839844 33.902344 132.421875 35.308594 C 130.652344 37.0625 131.484375 37.199219 134.074219 37.113281 C 136.660156 37.03125 149.371094 37.339844 152.449219 37.5625 C 155.53125 37.785156 155.644531 37.667969 156.40625 36.917969 "/>
<path style=" stroke:none;fill-rule:nonzero;fill:rgb(0%,0%,0%);fill-opacity:1;" d="M 154.425781 41.523438 C 152.90625 42.523438 147.679688 46.933594 145.722656 48.273438 C 143.710938 49.652344 143.722656 50.1875 147.375 49.851563 C 151.027344 49.519531 163.257813 49.832031 167.238281 50.210938 C 171.222656 50.589844 170.921875 50.925781 172.445313 49.84375 C 173.964844 48.761719 178.15625 46.371094 180.285156 44.207031 C 182.417969 42.046875 182.5625 41.730469 180.324219 41.703125 C 178.085938 41.679688 175.035156 41.457031 165.601563 40.960938 C 156.164063 40.460938 155.949219 40.527344 154.425781 41.523438 "/>
<path style=" stroke:none;fill-rule:nonzero;fill:rgb(0%,0%,0%);fill-opacity:1;" d="M 175.765625 16.328125 C 176.828125 15.164063 181.242188 11.921875 183.523438 10.507813 C 185.808594 9.09375 185.808594 9.011719 183.070313 8.679688 C 180.328125 8.347656 163.828125 7.035156 161.125 6.953125 C 158.421875 6.871094 158.308594 7.132813 157.394531 7.796875 C 156.480469 8.460938 151.660156 12.511719 150.121094 14.300781 C 148.976563 15.625 149.136719 15.746094 151.417969 15.746094 C 153.703125 15.746094 169.488281 16.878906 172.230469 17.128906 C 174.96875 17.378906 174.699219 17.492188 175.765625 16.328125 "/>
<path style=" stroke:none;fill-rule:nonzero;fill:rgb(0%,0%,0%);fill-opacity:1;" d="M 197.371094 22.066406 C 198.4375 21.152344 198.238281 21.238281 196.0625 20.78125 C 193.886719 20.324219 184.210938 19.382813 180.898438 19.214844 C 177.585938 19.046875 177.246094 19.199219 176.179688 19.949219 C 175.113281 20.699219 170.210938 24.125 168.800781 25.335938 C 167.246094 26.671875 168.117188 26.855469 171.007813 26.855469 C 173.898438 26.855469 188.203125 27.550781 189.726563 27.796875 C 191.246094 28.046875 191.082031 27.863281 192.132813 26.792969 C 193.183594 25.71875 196.308594 22.980469 197.371094 22.066406 "/>
<path style=" stroke:none;fill-rule:nonzero;fill:rgb(0%,0%,0%);fill-opacity:1;" d="M 231.761719 14.417969 C 228.855469 13.875 211.523438 11.921875 209.695313 11.757813 C 207.871094 11.589844 207.480469 11.65625 206.398438 12.238281 C 205.320313 12.824219 200.871094 16.246094 199.808594 17.410156 C 198.664063 18.660156 198.691406 18.492188 201.457031 18.746094 C 204.195313 18.996094 218.375 20.640625 220.808594 21.054688 C 223.242188 21.472656 223.429688 21.410156 224.023438 20.917969 C 224.617188 20.429688 230.488281 17.191406 232.355469 16.144531 C 234.21875 15.09375 234.667969 14.957031 231.761719 14.417969 "/>
<path style=" stroke:none;fill-rule:nonzero;fill:rgb(0%,0%,0%);fill-opacity:1;" d="M 232.921875 33.167969 C 233.53125 32.5 239.519531 27.136719 240.738281 26.140625 C 241.953125 25.140625 241.632813 24.878906 240.269531 24.527344 C 238.90625 24.175781 229.25 22.921875 226.359375 22.589844 C 223.46875 22.257813 223.285156 22.792969 222.523438 23.289063 C 221.761719 23.789063 215.871094 27.902344 215.003906 29.15625 C 214.355469 30.089844 214.695313 30.4375 216.367188 30.6875 C 218.042969 30.9375 226.28125 32.539063 229.054688 33.183594 C 231.832031 33.828125 232.3125 33.832031 232.921875 33.167969 "/>
<path style=" stroke:none;fill-rule:nonzero;fill:rgb(0%,0%,0%);fill-opacity:1;" d="M 230.4375 45.972656 C 227.296875 45.183594 214.375 43.789063 210.761719 43.683594 C 209.113281 43.636719 208.632813 43.351563 207.261719 44.347656 C 205.894531 45.347656 201.675781 48.53125 200.859375 49.523438 C 200.128906 50.40625 199.972656 50.707031 202.300781 51.082031 C 204.628906 51.457031 220.042969 52.746094 221.871094 52.996094 C 223.695313 53.246094 223.695313 53.246094 224.609375 52.496094 C 225.523438 51.75 229.027344 49.414063 230.703125 48 C 232.378906 46.585938 232.519531 46.496094 230.4375 45.972656 "/>
<path style=" stroke:none;fill-rule:nonzero;fill:rgb(0%,0%,0%);fill-opacity:1;" d="M 232.367188 44.015625 C 233.996094 44.339844 246.703125 46.425781 248.53125 46.839844 C 250.355469 47.257813 251.085938 47.257813 251.996094 46.59375 C 252.910156 45.929688 257.664063 41.46875 258.425781 40.636719 C 259.183594 39.804688 258.441406 39.507813 256.867188 38.945313 C 255.292969 38.378906 246.8125 36.96875 243.3125 36.140625 C 239.8125 35.308594 239.511719 35.796875 238.617188 36.570313 C 237.71875 37.34375 232.484375 41.75 231.582031 42.683594 C 230.703125 43.59375 230.742188 43.691406 232.367188 44.015625 "/>
<path style=" stroke:none;fill-rule:nonzero;fill:rgb(0%,0%,0%);fill-opacity:1;" d="M 245.421875 56.730469 C 247.246094 56.894531 259.957031 59.027344 261.707031 59.199219 C 263.457031 59.375 263.894531 60 265.113281 59.167969 C 266.332031 58.335938 269.222656 55.925781 270.828125 53.964844 C 271.9375 52.613281 274.015625 52.554688 271.882813 52.054688 C 269.753906 51.554688 254.863281 49.765625 253.339844 49.269531 C 251.820313 48.769531 251.515625 48.769531 250.449219 49.601563 C 249.386719 50.429688 244.273438 54.789063 243.476563 55.574219 C 242.714844 56.320313 243.597656 56.5625 245.421875 56.730469 "/>
<path style=" stroke:none;fill-rule:nonzero;fill:rgb(0%,0%,0%);fill-opacity:1;" d="M 264.105469 37.460938 C 266.160156 37.820313 281.855469 39.636719 283.832031 40.023438 C 285.8125 40.40625 286.289063 40.398438 288.011719 39.074219 C 289.730469 37.753906 292.824219 35.605469 293.886719 34.597656 C 294.945313 33.589844 295.105469 33.363281 292.472656 32.957031 C 289.839844 32.550781 274.292969 30.464844 273.074219 30.296875 C 271.855469 30.132813 271.941406 30.375 270.878906 31.121094 C 269.8125 31.871094 262.921875 35.523438 262.078125 36.371094 C 261.394531 37.0625 262.050781 37.101563 264.105469 37.460938 "/>
<path style=" stroke:none;fill-rule:nonzero;fill:rgb(0%,0%,0%);fill-opacity:1;" d="M 312.730469 45.324219 C 309.453125 44.726563 290.363281 42.082031 288.382813 41.667969 C 286.40625 41.25 286.03125 41.535156 284.523438 42.476563 C 283.019531 43.414063 277.933594 47.03125 276.757813 48.042969 C 275.65625 48.988281 275.179688 49.144531 278.527344 49.644531 C 281.871094 50.144531 304.859375 53.84375 306.527344 54.296875 C 308.199219 54.746094 308.5 54.824219 309.257813 53.410156 C 310.019531 51.996094 314.816406 47.863281 315.46875 46.738281 C 316.117188 45.613281 316.003906 45.921875 312.730469 45.324219 "/>
<path style=" stroke:none;fill-rule:nonzero;fill:rgb(0%,0%,0%);fill-opacity:1;" d="M 306.035156 63.777344 C 308.164063 64.027344 333.453125 66.144531 335.621094 66.199219 C 337.789063 66.253906 338.210938 66.089844 339.230469 65.402344 C 340.25 64.710938 342.773438 62.636719 344.03125 61.40625 C 345.289063 60.175781 345.863281 60.105469 341.910156 59.773438 C 337.953125 59.441406 315.390625 57.550781 312.953125 57.136719 C 310.519531 56.71875 310.339844 57.089844 309.414063 57.910156 C 308.484375 58.734375 305.621094 61.007813 304.6875 61.765625 C 303.648438 62.613281 303.90625 63.527344 306.035156 63.777344 "/>
<path style=" stroke:none;fill-rule:nonzero;fill:rgb(0%,0%,0%);fill-opacity:1;" d="M 348.441406 47.652344 C 349.964844 46.738281 355.292969 43.578125 357.269531 42.164063 C 359.246094 40.75 359.195313 40.683594 356.457031 40.347656 C 353.71875 40.015625 332.613281 38.464844 330.9375 38.132813 C 329.265625 37.800781 328.921875 38.046875 327.660156 38.703125 C 326.394531 39.359375 321.890625 42.261719 320.472656 43.183594 C 318.144531 44.699219 319.371094 45.195313 321.195313 45.445313 C 323.023438 45.695313 340.328125 48.320313 343.257813 48.574219 C 346.183594 48.832031 346.921875 48.566406 348.441406 47.652344 "/>
<path style=" stroke:none;fill-rule:nonzero;fill:rgb(0%,0%,0%);fill-opacity:1;" d="M 336.230469 27.988281 C 333.644531 27.570313 313.046875 24.910156 311.21875 24.496094 C 309.394531 24.082031 309.378906 24.355469 308.160156 24.9375 C 306.945313 25.519531 301.855469 29.660156 300.21875 30.53125 C 298.515625 31.433594 297.921875 31.910156 301.113281 32.242188 C 304.3125 32.574219 320.347656 34.722656 325.179688 35.769531 C 328.0625 36.394531 328.460938 35.910156 329.019531 35.222656 C 329.585938 34.53125 335.773438 30.136719 337.210938 29.300781 C 338.644531 28.460938 338.816406 28.402344 336.230469 27.988281 "/>
<path style=" stroke:none;fill-rule:nonzero;fill:rgb(0%,0%,0%);fill-opacity:1;" d="M 346.585938 55.121094 C 345.789063 56.03125 345.632813 56.410156 347.808594 56.867188 C 355.246094 58.429688 362.214844 58.769531 372.226563 58.496094 C 375.914063 58.398438 376.253906 58.253906 377.320313 57.339844 C 378.386719 56.425781 384.265625 52.621094 385.5 51.59375 C 386.738281 50.566406 386.414063 50.511719 382.457031 50.261719 C 378.503906 50.011719 356.84375 49.113281 355.203125 49.050781 C 353.5625 48.992188 353.238281 49.183594 352.324219 50.015625 C 351.410156 50.847656 347.496094 54.078125 346.585938 55.121094 "/>
<path style=" stroke:none;fill-rule:nonzero;fill:rgb(0%,0%,0%);fill-opacity:1;" d="M 370.488281 31.511719 C 369.074219 32.117188 362.929688 35.9375 361.4375 36.625 C 359.804688 37.378906 359.984375 37.648438 362.738281 37.886719 C 365.492188 38.128906 386.738281 39.066406 390.273438 38.964844 C 393.8125 38.863281 394.1875 38.601563 395.171875 37.601563 C 396.15625 36.601563 400.734375 33.363281 402.453125 32.097656 C 404.175781 30.835938 401.230469 31.078125 398.644531 31.160156 C 396.058594 31.242188 376.578125 30.917969 374.144531 30.832031 C 371.710938 30.75 371.90625 30.90625 370.488281 31.511719 "/>
<path style=" stroke:none;fill-rule:nonzero;fill:rgb(0%,0%,0%);fill-opacity:1;" d="M 417.835938 40.753906 C 416.3125 40.667969 400.082031 41.375 397.492188 41.292969 C 394.90625 41.207031 394.585938 41.4375 393.367188 42.351563 C 392.148438 43.265625 388.894531 46.792969 387.878906 47.59375 C 386.644531 48.558594 386.425781 48.878906 389.164063 49.128906 C 395.253906 49.683594 404.359375 49.175781 410.058594 48.617188 C 412.109375 48.417969 412.664063 48.199219 413.425781 47.53125 C 414.1875 46.867188 418.925781 42.195313 419.070313 41.945313 C 419.679688 40.910156 419.0625 40.820313 417.835938 40.753906 "/>
<path style=" stroke:none;fill-rule:nonzero;fill:rgb(0%,0%,0%);fill-opacity:1;" d="M 375.972656 69.433594 C 377.539063 69.507813 395.960938 69.355469 399.253906 69.3125 C 402.542969 69.269531 402.789063 69.355469 404.160156 68.441406 C 405.527344 67.527344 409.871094 63.289063 411.539063 61.433594 C 413.207031 59.582031 409.402344 60.296875 406.511719 60.546875 C 403.621094 60.796875 387.15625 62.25 384.109375 62.167969 C 381.066406 62.085938 380.835938 62.472656 379.769531 63.21875 C 378.703125 63.96875 375.773438 67.101563 374.746094 67.957031 C 373.328125 69.136719 374.402344 69.359375 375.972656 69.433594 "/>
<path style=" stroke:none;fill-rule:nonzero;fill:rgb(0%,0%,0%);fill-opacity:1;" d="M 442.863281 47.441406 C 440.808594 47.832031 419.453125 49.941406 417.816406 50.070313 C 416.175781 50.203125 416.433594 50.398438 415.824219 51.144531 C 415.21875 51.894531 412.117188 54.460938 410.867188 55.609375 C 409.445313 56.914063 409.941406 57.152344 412.984375 56.988281 C 416.027344 56.820313 434.960938 54.894531 438.804688 54.539063 C 442.652344 54.183594 442.578125 53.769531 443.1875 52.9375 C 443.796875 52.105469 445.25 50.058594 446.003906 48.257813 C 446.757813 46.453125 444.914063 47.046875 442.863281 47.441406 "/>
<path style=" stroke:none;fill-rule:nonzero;fill:rgb(0%,0%,0%);fill-opacity:1;" d="M 456.246094 25.3125 C 454.5625 25.605469 428.4375 29.351563 427.261719 29.4375 C 426.085938 29.523438 425.5 29.914063 424.738281 30.578125 C 423.976563 31.246094 418.21875 35.953125 417.148438 36.71875 C 415.039063 38.226563 416.332031 38.613281 419.070313 38.363281 C 432.503906 37.140625 437.789063 36.679688 451.023438 34.453125 C 453.003906 34.121094 453.292969 34.082031 454.074219 33.5 C 454.851563 32.921875 458.175781 26.722656 458.9375 25.472656 C 459.699219 24.226563 457.933594 25.019531 456.246094 25.3125 "/>
<path style=" stroke:none;fill-rule:nonzero;fill:rgb(0%,0%,0%);fill-opacity:1;" d="M 466.011719 41.246094 C 469.640625 40.609375 469.929688 40.160156 470.691406 39.410156 C 471.453125 38.664063 474.078125 35.894531 475.449219 33.816406 C 476.816406 31.738281 476.976563 31.636719 474.238281 32.136719 C 471.496094 32.636719 456.671875 36.050781 454.695313 36.296875 C 452.71875 36.546875 452.601563 37.378906 451.722656 38.265625 C 450.84375 39.15625 449.4375 41.6875 448.546875 42.898438 C 447.453125 44.375 447.714844 44.652344 450.605469 44.316406 C 453.496094 43.984375 462.378906 41.882813 466.011719 41.246094 "/>
<path style=" stroke:none;fill-rule:nonzero;fill:rgb(0%,0%,0%);fill-opacity:1;" d="M 464.675781 59.660156 C 467.492188 59.046875 467.921875 58.808594 468.53125 57.894531 C 469.140625 56.976563 470.6875 53.941406 472.058594 52.027344 C 473.425781 50.117188 471.9375 50.746094 469.4375 51.332031 C 463.929688 52.625 447.65625 56.195313 442.695313 56.738281 C 441.171875 56.902344 441.132813 57.214844 440.457031 58.011719 C 439.78125 58.808594 438.625 60.882813 437.585938 62.214844 C 436.402344 63.726563 436.367188 64.410156 439.867188 63.832031 C 443.367188 63.246094 461.859375 60.273438 464.675781 59.660156 "/>
<path style=" stroke:none;fill-rule:nonzero;fill:rgb(0%,0%,0%);fill-opacity:1;" d="M 534.570313 18.570313 C 517.816406 32.304688 503.035156 37.234375 475.015625 42.253906 C 473.847656 42.464844 473.996094 43.046875 473.578125 43.707031 C 473.160156 44.367188 471.953125 47.105469 471.566406 47.839844 C 470.960938 49.003906 470.820313 49.460938 475.035156 48.371094 C 505.613281 40.46875 519.738281 34.742188 536.570313 19.292969 C 542.847656 13.535156 542.308594 12.226563 534.570313 18.570313 "/>
<path style=" stroke:none;fill-rule:nonzero;fill:rgb(0%,0%,0%);fill-opacity:1;" d="M 539.402344 26.746094 C 530.261719 34.566406 512.335938 41.335938 500.101563 45.046875 C 498.730469 45.464844 498.863281 45.800781 498.214844 46.488281 C 497.566406 47.175781 495.820313 49.320313 495.226563 50.273438 C 494.554688 51.347656 494.640625 52.339844 497.601563 51.574219 C 512.042969 47.839844 530.4375 35.269531 541.042969 27.472656 C 545.101563 24.484375 542.902344 23.753906 539.402344 26.746094 "/>
<path style=" stroke:none;fill-rule:nonzero;fill:rgb(0%,0%,0%);fill-opacity:1;" d="M 502.21875 30.40625 C 505.230469 29.117188 505.347656 29.050781 505.652344 28.550781 C 505.957031 28.050781 506.5625 25.058594 506.714844 23.644531 C 506.867188 22.230469 505.527344 22.921875 504.050781 23.394531 C 502.578125 23.867188 492.480469 27.964844 491.128906 28.550781 C 489.777344 29.136719 489.523438 29.417969 488.6875 30.472656 C 487.847656 31.527344 486.574219 33.636719 486.175781 34.453125 C 485.566406 35.703125 485.863281 36.046875 487.84375 35.546875 C 489.820313 35.046875 499.207031 31.695313 502.21875 30.40625 "/>
<path style=" stroke:none;fill-rule:nonzero;fill:rgb(0%,0%,0%);fill-opacity:1;" d="M 513.4375 5.011719 C 511.050781 6.414063 497.105469 16.359375 486.097656 18.511719 C 484.25 18.871094 484.105469 19.238281 483.515625 20.011719 C 482.925781 20.785156 478.824219 25.449219 478.046875 26.410156 C 477.21875 27.429688 478.078125 28.273438 481.121094 27.109375 C 484.96875 25.636719 511.144531 12.457031 516.234375 7 C 521.929688 0.894531 518.578125 1.996094 513.4375 5.011719 "/>
<path style=" stroke:none;fill-rule:nonzero;fill:rgb(0%,0%,0%);fill-opacity:1;" d="M 531.929688 7.980469 C 529.800781 9.558594 521.550781 14.355469 520.578125 14.914063 C 519.609375 15.476563 519.367188 15.769531 519.519531 16.433594 C 519.671875 17.097656 519.710938 17.925781 520.03125 19.007813 C 520.429688 20.332031 520.917969 21.101563 522.746094 19.773438 C 524.570313 18.441406 531.867188 12.785156 534.453125 9.128906 C 537.039063 5.46875 534.0625 6.398438 531.929688 7.980469 "/>
<path style=" stroke:none;fill-rule:nonzero;fill:rgb(0%,0%,0%);fill-opacity:1;" d="M 53.101563 46.644531 C 58.320313 45.835938 58.171875 45.613281 58.78125 44.699219 C 59.390625 43.785156 61.097656 38.726563 62.160156 37.226563 C 63.226563 35.730469 62.726563 36.15625 60.445313 36.40625 C 58.164063 36.65625 46.433594 38.371094 42.847656 38.785156 C 39.261719 39.199219 38.816406 39.699219 38.359375 40.28125 C 37.90625 40.859375 36.046875 47.464844 35.816406 48.402344 C 35.480469 49.75 35.957031 49.9375 38.242188 49.691406 C 40.523438 49.441406 47.882813 47.457031 53.101563 46.644531 "/>
<path style=" stroke:none;fill-rule:nonzero;fill:rgb(0%,0%,0%);fill-opacity:1;" d="M 207.140625 39.460938 C 208.191406 38.390625 211.363281 34.863281 212.429688 33.949219 C 213.492188 33.035156 213.296875 33.121094 211.121094 32.664063 C 208.945313 32.207031 199.269531 31.265625 195.953125 31.097656 C 192.640625 30.933594 192.300781 31.085938 191.238281 31.832031 C 190.171875 32.582031 185.265625 36.007813 183.859375 37.21875 C 182.304688 38.554688 183.171875 38.738281 186.0625 38.738281 C 188.957031 38.738281 203.214844 40.21875 204.734375 40.46875 C 206.257813 40.71875 206.089844 40.535156 207.140625 39.460938 "/>
<path style=" stroke:none;fill-rule:nonzero;fill:rgb(0%,0%,0%);fill-opacity:1;" d="M 119.835938 14.917969 C 120.75 14.167969 124.707031 10.84375 126.074219 8.847656 C 127.445313 6.851563 127.070313 6.765625 125.125 6.71875 C 123.179688 6.671875 111.1875 6.632813 106.816406 7.09375 C 102.445313 7.550781 101.898438 7.816406 100.984375 8.566406 C 100.070313 9.3125 96.796875 12.34375 95.449219 14.003906 C 93.589844 16.296875 94.945313 16.214844 97.242188 16.105469 C 99.539063 16 111.425781 15.476563 114.816406 15.5 C 118.207031 15.523438 118.925781 15.667969 119.835938 14.917969 "/>
<path style=" stroke:none;fill-rule:nonzero;fill:rgb(0%,0%,0%);fill-opacity:1;" d="M 276.523438 21.261719 C 273.890625 20.851563 258.339844 18.765625 257.121094 18.601563 C 255.90625 18.433594 255.992188 18.675781 254.925781 19.421875 C 253.859375 20.171875 246.972656 23.824219 246.128906 24.671875 C 245.441406 25.363281 246.101563 25.40625 248.15625 25.761719 C 250.210938 26.121094 265.902344 27.941406 267.882813 28.324219 C 269.859375 28.707031 270.339844 28.699219 272.058594 27.375 C 273.777344 26.054688 276.871094 23.90625 277.933594 22.898438 C 278.996094 21.894531 279.152344 21.667969 276.523438 21.261719 "/>
</g>
</svg>
