<?xml version="1.0" encoding="UTF-8"?>
<svg xmlns="http://www.w3.org/2000/svg" xmlns:xlink="http://www.w3.org/1999/xlink" width="524pt" height="36pt" viewBox="0 0 524 36" version="1.1">
<g id="surface1">
<path style=" stroke:none;fill-rule:nonzero;fill:rgb(0%,0%,0%);fill-opacity:1;" d="M 62.425781 18.878906 C 61.15625 19.222656 60.949219 18.699219 59.960938 18.515625 C 60.632813 18.4375 60.183594 18.265625 60.332031 18.128906 C 57.191406 18.089844 58.910156 17.132813 57.414063 16.84375 L 55.996094 17.132813 L 55.105469 16.457031 C 54.3125 16.0625 53.003906 16.421875 52.777344 16.476563 C 52.40625 16.285156 52.03125 16.113281 51.65625 15.921875 C 51.058594 15.652344 50.011719 15.691406 49.1875 15.554688 C 48.738281 14.847656 45.375 14.480469 43.429688 14.367188 C 43.054688 13.867188 45.972656 14.214844 45.597656 13.714844 C 42.457031 13.234375 39.914063 13.886719 36.996094 13.523438 C 35.425781 13.242188 35.054688 13.15625 35.203125 12.984375 C 41.558594 12.082031 47.617188 11.042969 54.199219 10.296875 C 55.949219 10.066406 57.394531 10.332031 58.832031 10.382813 C 60.53125 10.449219 62.207031 9.894531 60.253906 9.734375 C 59.027344 9.628906 57.152344 9.585938 56.367188 9.375 L 56.742188 9.296875 C 55.734375 9.007813 54.730469 8.78125 53.460938 8.6875 C 53.128906 8.664063 52.972656 8.578125 53.285156 8.566406 C 54.03125 8.527344 54.824219 8.523438 55.246094 8.28125 C 56.742188 7.53125 52.777344 7.820313 52.777344 7.359375 C 50.609375 7.167969 49.863281 6.898438 47.769531 6.609375 C 48.140625 5.9375 45.824219 5.707031 44.851563 5.226563 C 44.101563 4.746094 43.28125 4.476563 44.179688 3.941406 C 44.46875 3.917969 44.644531 3.964844 44.804688 4.015625 C 44.9375 4.058594 45.035156 4.183594 44.972656 4.207031 C 44.277344 4.46875 45.996094 4.632813 46.273438 4.863281 C 47.769531 4.996094 48.890625 4.691406 49.5625 4.496094 C 48.367188 4.304688 47.320313 4.074219 45.972656 4.035156 C 47.265625 3.613281 49.761719 4.5 50.820313 3.976563 C 50.863281 3.957031 51.082031 3.9375 51.160156 3.949219 C 51.558594 4.007813 52.09375 3.988281 52.03125 4.132813 L 54.574219 4.230469 C 55.546875 3 50.160156 4.304688 48.441406 3.382813 C 44.476563 3.824219 39.316406 2.867188 36.625 3.84375 C 36.625 3.84375 36.265625 3.328125 35.421875 3.632813 C 33.828125 4.203125 30.136719 3.464844 27.648438 3.84375 C 27.046875 3.910156 26.308594 4.03125 25.535156 4.128906 C 24.671875 4.234375 22.195313 4.292969 21.734375 4.308594 C 20.742188 4.332031 19.660156 4.339844 19.65625 4.625 C 19.652344 4.667969 19.519531 4.703125 19.386719 4.691406 C 19.167969 4.675781 18.90625 4.691406 18.675781 4.691406 C 16.804688 4.363281 14.933594 4.84375 13.664063 4.957031 C 12.316406 4.996094 10.296875 5.1875 10.371094 5.515625 C 7.660156 6.210938 1.847656 6.160156 0.117188 7.015625 C -1.117188 7.625 0.628906 8.257813 4.3125 8.375 L 19.347656 11.601563 C 19.347656 11.601563 21.683594 11.609375 22.265625 11.773438 C 22.84375 11.941406 21.890625 12.140625 21.890625 12.140625 L 28.324219 13.523438 C 29.21875 13.464844 30.042969 13.136719 30.863281 13.347656 C 31.3125 13.753906 30.117188 14.214844 30.492188 14.730469 C 38.570313 16.652344 48.738281 17.859375 56.367188 20.070313 C 58.238281 20.375 60.632813 20.394531 62.128906 20.988281 C 65.644531 21.394531 64.445313 20.300781 65.71875 19.972656 C 64.597656 19.609375 64.222656 19.011719 62.425781 18.878906 "/>
<path style=" stroke:none;fill-rule:nonzero;fill:rgb(0%,0%,0%);fill-opacity:1;" d="M 150.757813 27.730469 C 148.136719 27.902344 143.800781 27.382813 143.203125 28.554688 C 142.136719 28.617188 141.257813 28.496094 140.34375 28.414063 C 138.382813 28.242188 140.933594 27.988281 142.765625 27.839844 C 144.519531 27.703125 144.109375 27.148438 142.234375 27.175781 C 140.355469 27.199219 137.875 27.71875 136.769531 26.710938 L 137.816406 26.425781 C 137.96875 26.230469 137.816406 26.078125 137.144531 25.964844 C 134.378906 25.425781 134.152344 26.5 132.804688 26.710938 C 129.8125 26.5 132.730469 25.769531 130.339844 25.503906 C 130.339844 25.40625 130.1875 25.289063 130.636719 25.234375 C 131.085938 25.234375 131.535156 25.214844 131.757813 25.328125 C 132.839844 25.382813 133.8125 25.152344 134.074219 24.90625 C 134.539063 24.460938 132.039063 24.324219 130.242188 24.699219 C 128.960938 24.960938 126.359375 24.730469 124.953125 24.867188 C 124.054688 24.753906 122.335938 24.65625 121.660156 24.964844 C 121.660156 24.964844 121.0625 24.5625 121.660156 24.503906 C 122.039063 24.3125 122.414063 23.914063 121.824219 23.734375 C 121.160156 23.535156 121.867188 23.421875 122.429688 23.496094 C 122.703125 23.53125 122.894531 23.617188 123.15625 23.660156 C 125.886719 23.519531 121.253906 22.417969 120.242188 23.121094 C 121.027344 23.644531 118.777344 23.648438 118.003906 23.964844 C 117.890625 24.007813 117.292969 24.109375 117.011719 24.144531 C 116.5 24.210938 115.941406 24.304688 115.605469 24.042969 C 116.128906 23.660156 117.996094 23.910156 118.070313 23.484375 C 117.773438 23.410156 117.546875 23.257813 117.023438 23.292969 C 117.773438 22.699219 115.828125 22.390625 115.230469 21.816406 C 113.960938 21.738281 112.3125 21.988281 111.640625 21.738281 C 110.144531 21.433594 108.5 21.894531 107.300781 21.816406 C 107.898438 21.664063 108.722656 21.527344 108.425781 21.277344 C 105.730469 21.125 107.75 20.453125 105.207031 20.433594 C 103.710938 20.453125 103.5625 20.914063 103.039063 21.183594 C 101.917969 20.953125 103.710938 20.566406 102.289063 20.261719 C 99.777344 20.363281 100.285156 19.835938 99.113281 19.523438 C 98.996094 19.492188 99 19.40625 99.152344 19.394531 C 102.269531 19.113281 105.871094 19.167969 108.796875 18.78125 C 109.621094 19.109375 110.890625 19.203125 112.386719 19.148438 C 117.921875 18.667969 124.128906 18.570313 130.339844 18.515625 C 132.65625 18.898438 135.273438 18.859375 137.816406 18.589844 C 135.945313 18.050781 139.761719 18.015625 139.3125 17.59375 C 139.089844 17.398438 138.414063 17.246094 137.519531 17.304688 C 135.574219 17.304688 136.695313 17.785156 136.023438 18.050781 C 136.023438 18.050781 135.023438 17.980469 134.847656 17.90625 C 134.589844 17.789063 134.558594 17.632813 134.601563 17.496094 C 134.078125 17.167969 132.804688 16.917969 131.386719 16.9375 C 130.5625 16.917969 130.339844 16.957031 129.964844 17.132813 C 128.84375 16.496094 125.625 16.535156 124.578125 15.824219 C 125.027344 15.769531 124.878906 15.652344 124.953125 15.554688 C 123.457031 15.230469 124.652344 14.421875 121.363281 14.636719 C 120.96875 14.871094 121.609375 14.945313 121.222656 15.113281 C 120.644531 15.367188 118.398438 14.867188 119.820313 14.648438 C 121.078125 14.457031 122.023438 14.140625 122.410156 13.808594 C 121.960938 13.636719 121.363281 13.597656 120.613281 13.617188 C 119.644531 13.558594 119.644531 13.925781 119.195313 14.078125 C 117.699219 14.136719 116.425781 14.039063 115.605469 13.714844 C 115.976563 13.558594 116.574219 13.558594 117.023438 13.445313 C 117.621094 12.484375 113.285156 12.617188 111.640625 12.0625 C 112.015625 11.949219 113.136719 11.929688 112.6875 11.679688 C 111.640625 11.195313 109.882813 10.5625 107.226563 10.492188 C 106.234375 10.46875 107.300781 10.296875 107.300781 10.296875 C 107.675781 10.277344 107.824219 10.351563 108.050781 10.390625 C 108.949219 10.546875 111.117188 10.546875 110.890625 10.121094 C 110.144531 9.988281 108.5 9.664063 107.300781 9.835938 C 107.898438 8.972656 103.636719 9.316406 103.039063 8.546875 C 117.996094 8.605469 128.617188 9.375 144.324219 9.46875 C 145.894531 9.375 145.222656 8.605469 147.539063 8.742188 C 148.289063 8.242188 148.136719 7.800781 146.117188 7.53125 L 147.539063 7.167969 C 147.839844 6.820313 146.195313 6.898438 145.746094 6.609375 C 146.117188 6.050781 141.183594 6.359375 142.902344 5.609375 C 142.078125 5.574219 140.585938 5.363281 139.984375 5.6875 C 137.816406 5.746094 138.714844 5.054688 137.816406 4.863281 C 136.769531 4.535156 135.648438 4.304688 134.976563 3.84375 C 134.003906 3.785156 131.609375 3.554688 131.386719 4.035156 L 128.167969 3.578125 C 128.84375 3.171875 126.972656 3.210938 126.375 3.019531 C 126.300781 2.75 126.449219 2.480469 127.046875 2.289063 C 129.011719 2.464844 129.589844 2.097656 129.589844 2.097656 C 130.1875 1.90625 130.1875 1.484375 128.84375 1.464844 L 129.964844 1.175781 C 130.9375 0.925781 129.066406 0.734375 128.167969 0.8125 C 127.269531 0.964844 128.542969 1.445313 127.046875 1.464844 L 126.746094 2 C 125.253906 2.117188 124.128906 1.828125 123.15625 1.925781 C 123.382813 1.367188 126.824219 1.539063 126 1.003906 C 125.027344 0.792969 123.53125 0.984375 123.15625 1.175781 C 122.933594 1.136719 122.632813 1.082031 122.785156 1.003906 L 119.867188 0.90625 L 119.867188 1.175781 C 117.773438 1.484375 115.078125 0.5625 113.433594 1.273438 C 100.523438 1.308594 86.320313 1.070313 74.632813 2.128906 C 73.203125 2.257813 73.390625 2.578125 73.816406 2.808594 C 73.976563 2.898438 75.738281 3.019531 75.738281 3.019531 C 80.976563 4 86.511719 5.34375 90.472656 6.53125 L 90.101563 6.800781 L 91.148438 6.800781 C 92.042969 6.9375 92.417969 7.300781 92.269531 7.628906 C 92.941406 8.050781 95.785156 7.648438 95.109375 8.28125 C 95.035156 8.664063 94.0625 8.261719 93.316406 8.375 L 75.367188 9.203125 C 70.878906 9.394531 66.464844 9.605469 62.800781 10.296875 C 59.921875 10.902344 64.523438 11.101563 66.015625 11.679688 L 64.597656 12.0625 C 64.820313 12.101563 66.640625 12.148438 67.089844 12.246094 C 68.933594 12.65625 70.589844 13.160156 71.6875 13.722656 C 72.257813 14.011719 74.019531 14.710938 74.992188 14.828125 L 75.367188 14.730469 C 76.1875 14.886719 76.414063 15.078125 76.785156 15.289063 C 80.078125 15.441406 82.171875 16.035156 83.292969 16.84375 C 83.707031 16.84375 84.144531 16.835938 84.550781 16.851563 C 85.191406 16.875 89.242188 17.851563 87.257813 18.226563 C 87.257813 18.226563 91.148438 18.800781 92.941406 19.148438 C 88.378906 19.933594 81.949219 19.972656 76.488281 20.433594 C 73.238281 20.539063 69.804688 20.515625 67.183594 21.011719 C 65.613281 21.304688 65.640625 21.648438 67.429688 22.078125 C 79.015625 24.851563 91.320313 27.15625 103.039063 29.84375 L 130.636719 29.476563 C 134.453125 29.476563 137.144531 29.84375 140.359375 29.648438 C 142.378906 29.976563 143.203125 29.113281 144.324219 29.015625 C 145.222656 29.113281 144.773438 29.34375 145.371094 29.476563 C 146.71875 29.554688 147.539063 29.34375 148.585938 29.285156 C 149.035156 28.9375 147.988281 28.765625 147.164063 28.554688 C 148.289063 28.25 150.007813 28.382813 151.128906 28.09375 C 151.449219 27.953125 151.375 27.78125 150.757813 27.730469 Z M 112.386719 23.292969 C 112.089844 23.042969 112.984375 22.699219 111.640625 22.566406 L 109.84375 22.566406 C 109.84375 22.566406 110.710938 21.867188 112.628906 22.316406 C 113.855469 22.601563 113.679688 22.992188 112.386719 23.292969 "/>
<path style=" stroke:none;fill-rule:nonzero;fill:rgb(0%,0%,0%);fill-opacity:1;" d="M 126 15 C 125.027344 15.308594 125.457031 15.699219 126.375 15.921875 C 127.121094 15.710938 129.589844 16.019531 128.84375 15.460938 C 128.316406 15.058594 127.269531 15.152344 126 15 "/>
<path style=" stroke:none;fill-rule:nonzero;fill:rgb(0%,0%,0%);fill-opacity:1;" d="M 140.359375 18.050781 C 140.136719 18.398438 140.511719 18.992188 142.527344 18.78125 C 143.433594 18.652344 144.59375 18.289063 143.367188 18.066406 C 142.585938 17.925781 141.199219 17.917969 140.359375 18.050781 "/>
<path style=" stroke:none;fill-rule:nonzero;fill:rgb(0%,0%,0%);fill-opacity:1;" d="M 220.386719 30.570313 C 219.117188 30.648438 216.648438 30.378906 216.796875 30.957031 C 215.152344 30.800781 217.320313 30.589844 216.125 30.398438 C 214.851563 30.4375 213.355469 30.28125 212.535156 30.570313 C 211.785156 29.785156 208.121094 30.207031 207.148438 29.574219 L 207.820313 29.382813 C 208.570313 28.917969 206.625 28.957031 206.027344 28.652344 C 209.765625 27.308594 201.296875 28.074219 199.503906 27.171875 C 199.726563 27.058594 199.417969 26.730469 199.078125 26.660156 C 198.214844 26.484375 197.71875 26.210938 196.378906 26.15625 C 197.5 26.117188 197.574219 25.789063 198.175781 25.597656 L 196.003906 25.234375 C 196.15625 25.097656 196.230469 24.964844 196.753906 24.867188 C 197.128906 24.617188 197.574219 24.140625 196.378906 23.949219 C 197.875 23.523438 198.546875 24.121094 200.34375 23.949219 C 200.566406 23.753906 201.464844 23.621094 200.34375 23.484375 C 196.378906 23.734375 193.613281 22.71875 189.871094 22.566406 C 187.480469 21.875 182.914063 21.566406 179.476563 21.816406 C 168.183594 21.699219 158.160156 21.296875 146.792969 21.453125 C 146.34375 21.777344 147.539063 21.816406 148.289063 21.910156 C 152.476563 24.082031 162.199219 25.367188 168.332031 27.269531 C 169.089844 28.308594 173.125 28.800781 176.441406 29.40625 C 176.738281 29.460938 177.777344 29.472656 178.078125 29.457031 C 179.699219 29.371094 182.46875 29.886719 184.488281 30.035156 C 187.925781 30.957031 194.058594 30.898438 199.222656 31.128906 C 199.222656 31.128906 200.34375 31.1875 200.640625 31.222656 C 201.316406 31.492188 202.585938 31.472656 202.8125 31.417969 L 202.136719 31.222656 L 202.4375 31.128906 C 203.109375 31.070313 203.335938 31.242188 203.933594 31.222656 C 205.054688 30.859375 208.421875 31.1875 209.992188 31.128906 C 211.335938 31.261719 212.683594 30.4375 213.207031 31.128906 C 217.621094 30.761719 219.714844 31.78125 223.679688 31.683594 C 225.097656 31.742188 225.472656 31.242188 224.726563 31.03125 C 223.304688 30.878906 220.835938 31.167969 220.386719 30.570313 "/>
<path style=" stroke:none;fill-rule:nonzero;fill:rgb(0%,0%,0%);fill-opacity:1;" d="M 152.550781 12.332031 C 155.65625 11.925781 160.851563 15.097656 160.851563 15.097656 C 165.9375 15.75 163.921875 17.476563 169.453125 18.226563 C 168.03125 18.417969 169.230469 18.722656 168.332031 19.050781 C 171.234375 19.65625 175.117188 19.621094 178.429688 19.949219 C 178.785156 19.984375 178.609375 20.160156 178.609375 20.160156 L 177.679688 20.261719 C 178.128906 20.492188 183.289063 21.125 183.8125 21.085938 C 184.261719 20.894531 184.410156 20.683594 185.234375 20.53125 C 186.28125 20.796875 184.5625 21.027344 185.984375 21.277344 C 187.777344 21.277344 190.019531 21.566406 192.039063 21.738281 C 194.660156 21.796875 196.304688 22.988281 199.222656 22.277344 C 203.035156 22.601563 207.148438 22.796875 211.410156 22.832031 C 213.730469 23.007813 214.554688 23.773438 217.171875 23.484375 C 219.191406 23.5625 219.117188 23.949219 218.964844 24.3125 C 221.585938 24.503906 222.929688 23.582031 222.929688 23.582031 C 224.425781 23.832031 225.921875 23.542969 225.773438 23.121094 L 222.929688 22.929688 C 221.734375 22.796875 220.6875 22.488281 221.136719 22.105469 C 220.535156 22.007813 220.238281 21.71875 219.339844 21.816406 C 220.386719 21.144531 215.601563 21.277344 217.171875 20.722656 C 216.421875 20.355469 214.554688 20.664063 213.582031 20.433594 C 213.582031 20.433594 214.179688 19.78125 211.113281 19.800781 C 211.113281 19.800781 211.386719 19.296875 210.589844 19.257813 C 209.992188 19.226563 209.296875 19.222656 208.945313 19.148438 C 209.09375 18.898438 208.867188 18.628906 207.523438 18.515625 C 207.523438 18.515625 207.730469 17.933594 205.726563 17.859375 C 208.496094 17.246094 203.261719 17.1875 204.980469 16.574219 C 204.15625 16.304688 202.8125 16.324219 201.765625 16.210938 C 202.363281 16.09375 202.585938 15.921875 202.4375 15.75 C 200.679688 15.554688 199.820313 15.414063 199.117188 15.640625 C 197.738281 16.082031 196.9375 15.84375 198.175781 15.289063 C 200.117188 14.617188 196.15625 14.75 196.003906 14.269531 C 200.34375 13.273438 192.414063 14.019531 193.835938 13.0625 C 186.878906 12.351563 179.402344 11.929688 171.921875 11.503906 C 165.714844 11.199219 159.28125 11.027344 153.300781 10.585938 C 151.355469 10.871094 147.6875 10.660156 148.585938 11.503906 C 150.53125 11.621094 152.550781 12.332031 152.550781 12.332031 "/>
<path style=" stroke:none;fill-rule:nonzero;fill:rgb(0%,0%,0%);fill-opacity:1;" d="M 169.078125 5.785156 C 168.480469 6.378906 171.472656 6.6875 171.921875 7.070313 C 174.613281 7.609375 172.894531 8.261719 173.417969 9.011719 C 176.410156 8.761719 176.410156 9.71875 176.261719 10.21875 C 177.457031 10.488281 179.925781 10.390625 180.222656 10.851563 C 180.820313 10.96875 181.570313 10.96875 182.019531 10.757813 C 187.402344 10.757813 191.890625 11.601563 196.753906 11.679688 C 197.351563 12.175781 198.25 12.023438 199.59375 12.0625 C 206.773438 11.582031 213.058594 14.15625 220.386719 12.695313 C 220.910156 12.371094 219.640625 12.332031 218.964844 12.234375 C 220.164063 12.023438 219.640625 11.621094 220.089844 11.3125 C 219.5625 10.988281 218.144531 11.199219 217.171875 11.140625 C 216.421875 10.660156 215.601563 10.085938 216.496094 9.566406 L 217.917969 9.566406 C 219.714844 8.546875 214.480469 9.027344 216.125 8.183594 C 215.824219 7.839844 215.449219 7.589844 213.953125 7.53125 C 215.078125 6.859375 217.320313 6.207031 220.386719 6.246094 C 220.3125 5.59375 216.648438 6.035156 215.375 5.515625 C 215.375 5.515625 215.488281 5.285156 215.238281 5.234375 C 214.757813 5.132813 214.214844 5.050781 215.003906 4.863281 C 214.628906 4.710938 213.953125 4.652344 213.207031 4.691406 C 211.488281 4.710938 212.757813 5.152344 212.160156 5.324219 C 209.542969 5.285156 211.410156 4.535156 208.945313 4.304688 L 207.523438 4.59375 C 206.253906 5.363281 203.484375 4.019531 202.136719 4.863281 C 200.492188 4.726563 202.511719 4.496094 201.390625 4.304688 C 189.644531 3.3125 177.304688 2.691406 164.367188 2.429688 C 160.175781 2.347656 159.785156 2.519531 160.121094 2.667969 C 160.339844 2.761719 166.3125 4.976563 169.078125 5.785156 Z M 209.5 7.277344 C 210.484375 7.507813 211.632813 7.757813 213.207031 7.628906 C 212.417969 8.203125 214.539063 8.476563 215.003906 8.980469 C 215.214844 9.214844 214.394531 9.257813 214.058594 9.046875 C 213.425781 8.648438 211.921875 8.3125 212.160156 7.914063 C 211.089844 7.847656 210.019531 7.582031 209.277344 7.339844 C 208.984375 7.242188 209.175781 7.203125 209.5 7.277344 "/>
<path style=" stroke:none;fill-rule:nonzero;fill:rgb(0%,0%,0%);fill-opacity:1;" d="M 199.222656 25.328125 C 198.695313 25.789063 200.34375 26.261719 201.765625 26.058594 C 204.105469 25.621094 200.703125 24.652344 199.222656 25.328125 "/>
<path style=" stroke:none;fill-rule:nonzero;fill:rgb(0%,0%,0%);fill-opacity:1;" d="M 291.953125 34.59375 C 290.539063 34.429688 288.15625 34.433594 287.175781 34.085938 C 286.617188 33.941406 286.785156 33.761719 287.207031 33.613281 C 287.40625 33.542969 287.953125 33.5625 288.035156 33.621094 C 288.347656 33.847656 289.273438 34.019531 290.167969 34.140625 C 291.5625 34.332031 293.238281 33.519531 290.269531 33.433594 C 288.421875 33.382813 287.71875 32.960938 285.753906 32.875 C 284.949219 32.964844 284.585938 32.996094 284.089844 33.117188 C 283.542969 33.253906 280.296875 33.074219 283.257813 32.820313 C 283.621094 32.789063 284.109375 32.78125 284.335938 32.703125 C 284.335938 32.261719 282.164063 32.394531 281.117188 32.242188 C 281.269531 32.050781 283.960938 31.953125 283.960938 31.953125 C 284.933594 32.085938 287.398438 32.183594 287.175781 31.683594 C 286.351563 31.453125 285.230469 31.359375 283.960938 31.417969 C 282.839844 31.011719 280.371094 31.433594 279.324219 31.03125 C 279.324219 31.03125 282.238281 30.457031 281.417969 30.207031 C 280.144531 29.996094 278.125 30.207031 277.152344 30.207031 C 277.003906 30.128906 277.777344 29.859375 277.714844 29.785156 C 277.480469 29.496094 275.621094 29.332031 274.609375 29.285156 C 275.957031 28.363281 269.074219 28.460938 272.816406 27.632813 C 270.273438 27.328125 268.179688 26.039063 264.964844 26.25 C 264.964844 26.25 266.53125 26.644531 264.761719 26.746094 C 263.121094 26.851563 261.679688 26.839844 259.878906 26.519531 C 253.21875 26.117188 246.339844 26.65625 240.507813 25.695313 C 235.269531 25.714844 230.257813 25.308594 225.472656 25.328125 C 224.273438 25.609375 224.945313 25.886719 224.636719 26.164063 C 223.214844 27.445313 234.21875 28.074219 236.46875 30.082031 C 237.273438 30.800781 239.019531 31.230469 241.925781 31.492188 C 240.429688 32.796875 246.5625 32.796875 245.890625 33.988281 C 257.109375 34.890625 269.152344 35.253906 281.417969 35.46875 C 284.484375 34.699219 284.183594 36.101563 286.800781 35.929688 C 286.863281 35.78125 287.371094 35.734375 287.859375 35.726563 C 288.523438 35.714844 288.621094 35.28125 288.867188 35.230469 C 289.273438 35.148438 290.039063 35.324219 290.839844 35.417969 C 292.703125 35.644531 293.90625 34.816406 291.953125 34.59375 "/>
<path style=" stroke:none;fill-rule:nonzero;fill:rgb(0%,0%,0%);fill-opacity:1;" d="M 301.535156 10.390625 C 301.414063 10.683594 302.453125 10.964844 303.40625 10.984375 C 304.285156 11.003906 304.675781 10.605469 303.835938 10.578125 C 303.640625 10.570313 303.40625 10.5625 303.332031 10.488281 C 304.671875 10.207031 305.617188 10.535156 306.8125 10.648438 C 309.964844 10.941406 302.871094 9.207031 302.875 10.132813 C 302.875 10.214844 303.09375 10.242188 303.371094 10.3125 L 302.949219 10.445313 C 302.570313 10.496094 302.246094 10.511719 301.871094 10.335938 C 302.914063 10.113281 301.445313 9.597656 299.921875 9.75 C 299.1875 9.820313 298.613281 10.292969 299.070313 10.621094 C 299.339844 10.8125 301.535156 10.390625 301.535156 10.390625 "/>
<path style=" stroke:none;fill-rule:nonzero;fill:rgb(0%,0%,0%);fill-opacity:1;" d="M 387.695313 15.554688 C 387.695313 15.554688 387.011719 14.644531 383.730469 14.902344 C 382.160156 15.75 386.351563 15.613281 387.695313 15.554688 "/>
<path style=" stroke:none;fill-rule:nonzero;fill:rgb(0%,0%,0%);fill-opacity:1;" d="M 522.234375 17.503906 C 519.316406 17.402344 515.789063 17.410156 513.484375 17.207031 C 513.191406 17.183594 513.058594 16.996094 513.183594 16.933594 C 514.050781 16.507813 511.652344 16.28125 510.804688 16.113281 C 512 15.75 513.121094 16.496094 514.09375 16.113281 C 504.804688 14.546875 475.5625 13.808594 468.289063 13.632813 C 464.734375 13.542969 460.984375 13.503906 459.496094 14.175781 C 459.242188 14.566406 460.667969 14.722656 461.789063 14.84375 C 461.984375 14.863281 461.441406 15.710938 462.339844 15.824219 C 466.152344 15.804688 466.003906 17.035156 467.421875 17.398438 C 469.964844 17.476563 466.75 17.976563 469.21875 18.128906 C 467.648438 18.570313 469.59375 19.492188 465.929688 19.148438 C 464.207031 20.105469 467.722656 19.894531 467.421875 20.816406 C 471.460938 20.972656 475.574219 20.566406 479.613281 20.433594 C 483.203125 19.992188 488.140625 20.972656 491.433594 20.164063 C 492.925781 20.050781 494.199219 20.320313 494.648438 20.625 C 497.640625 20.742188 498.761719 20.511719 500.03125 19.972656 C 501.902344 20.050781 502.574219 19.609375 502.574219 19.609375 C 503.546875 19.511719 504.296875 19.011719 505.417969 19.339844 C 505.34375 19.761719 506.839844 20.050781 508.335938 19.800781 C 510.277344 20.492188 513.347656 19.242188 515.890625 19.800781 C 517.460938 19.972656 519.554688 19.894531 520.898438 19.609375 C 521.347656 19.414063 521.722656 18.917969 520.523438 18.878906 C 521.125 18.667969 522.46875 18.898438 523.066406 18.6875 C 523.367188 18.417969 522.097656 18.320313 521.574219 18.128906 C 521.683594 18.070313 522.398438 17.953125 523.140625 17.847656 C 523.882813 17.742188 523.203125 17.535156 522.234375 17.503906 "/>
<path style=" stroke:none;fill-rule:nonzero;fill:rgb(0%,0%,0%);fill-opacity:1;" d="M 457.609375 19.804688 C 457.285156 20.199219 457.90625 20.976563 459.277344 20.433594 C 460.648438 19.890625 457.859375 19.507813 457.609375 19.804688 "/>
<path style=" stroke:none;fill-rule:nonzero;fill:rgb(0%,0%,0%);fill-opacity:1;" d="M 359.722656 34.109375 C 358.035156 34.066406 356.535156 34.140625 354.714844 33.988281 C 354.714844 34.738281 352.019531 34.125 350.746094 34.179688 C 351.496094 33.949219 353.738281 33.929688 352.917969 33.433594 C 351.273438 33.203125 350 33.433594 348.578125 33.335938 C 348.429688 32.664063 351.421875 32.761719 350.375 31.953125 C 349.289063 31.675781 346.117188 32.167969 346.371094 31.5625 C 346.511719 31.226563 345.554688 30.664063 343.195313 30.761719 C 341.847656 30.898438 344.390625 31.683594 342.445313 31.78125 C 342.511719 31.207031 340.734375 30.753906 340.855469 30.25 C 340.871094 30.175781 340.242188 30.070313 339.917969 30.0625 C 337.914063 30.003906 337.484375 29.296875 336.390625 29.015625 C 336.539063 28.25 333.023438 28.574219 331.378906 28.363281 C 331.511719 27.902344 330.355469 27.84375 329.070313 27.824219 C 326.8125 27.789063 326.972656 27.640625 328.984375 27.558594 C 334.640625 27.324219 340.332031 26.976563 345.363281 26.617188 C 345.363281 26.617188 344.710938 27.355469 345.363281 27.308594 C 346.019531 27.257813 346.671875 27.210938 347.160156 27.269531 C 348.878906 26.425781 358.089844 26.265625 358.089844 26.265625 C 358.089844 26.265625 358.679688 26.371094 359.238281 26.445313 C 359.589844 26.492188 360.445313 26.363281 360.65625 26.304688 C 362.554688 25.785156 366.414063 26.222656 368.699219 25.789063 C 369.597656 25.386719 371.617188 25.675781 372.664063 25.328125 C 377.332031 26.335938 374.246094 24.554688 377.644531 24.6875 C 379.980469 24.78125 377.972656 24.40625 377.972656 24.40625 C 375.429688 24.5625 375.203125 23.5625 372.289063 24.042969 C 371.617188 24.175781 372.289063 24.445313 371.539063 24.582031 C 371.015625 24.542969 370.492188 24.523438 370.121094 24.40625 C 370.121094 24.40625 370.980469 24.015625 370.8125 23.882813 C 370.507813 23.636719 369.507813 23.421875 369.074219 23.199219 C 372.214844 22.027344 363.6875 23.007813 365.78125 22.007813 C 363.164063 21.894531 366.453125 21.335938 364.359375 21.085938 C 363.574219 21.003906 361.757813 20.859375 361.269531 21.132813 C 361.195313 21.171875 360.921875 21.027344 360.769531 20.894531 C 358.078125 20.953125 358.601563 20.164063 357.554688 19.800781 C 356.957031 19.511719 354.339844 19.664063 355.386719 19.242188 L 351.796875 18.78125 C 352.816406 17.792969 349.410156 17.996094 346.757813 17.941406 C 345.910156 17.921875 343.878906 17.554688 346.304688 17.667969 C 356.84375 17.84375 364.0625 17.609375 369.746094 17.59375 C 372.886719 16.863281 376.925781 17.515625 379.769531 16.671875 C 379.992188 16.710938 380.515625 17.304688 380.515625 17.304688 C 378.421875 18.800781 387.695313 17.84375 385.902344 19.433594 C 389.191406 19.472656 385.226563 20.433594 388.070313 20.625 C 388.742188 20.566406 389.640625 20.320313 390.238281 20.433594 C 390.3125 21.027344 393.15625 20.953125 394.128906 21.085938 C 395.699219 24.109375 398.09375 23.949219 398.09375 23.949219 L 402.804688 23.582031 C 403.328125 23.753906 404.972656 24.023438 405.644531 23.582031 C 405.644531 23.582031 418.0625 22.71875 423.597656 22.566406 C 423.148438 22.527344 422.261719 22.402344 422.039063 22.230469 C 426.097656 21.960938 430.398438 21.957031 434.75 21.933594 C 435.691406 21.929688 434.851563 21.742188 434.851563 21.742188 L 432.882813 21.621094 C 435.800781 21.371094 439.152344 21.566406 442.292969 21.453125 L 441.546875 21.277344 C 445.210938 20.933594 447.230469 20.355469 451.566406 20.53125 C 452.539063 19.878906 454.632813 20.53125 455.53125 19.972656 C 454.035156 19.242188 450.671875 19.820313 448.351563 19.800781 C 449.996094 18.859375 444.613281 19.109375 444.761719 18.417969 C 442.519531 18.050781 439.75 17.976563 437.207031 17.765625 C 435.113281 17.574219 435.039063 16.917969 433.617188 16.671875 C 432.496094 16.425781 432.214844 16.667969 431.578125 16.828125 C 429.8125 17.269531 430.671875 16.347656 430.671875 16.347656 L 432.195313 15.824219 C 431.449219 15.730469 429.578125 15.613281 429.355469 15.921875 C 428.082031 16.054688 427.335938 15.691406 426.8125 15.554688 C 427.710938 15.25 430.625 15.441406 429.730469 14.828125 C 428.007813 14.65625 426.738281 14.558594 425.765625 15 C 425.164063 14.789063 425.613281 14.289063 423.96875 14.367188 C 420.679688 14.40625 419.109375 13.90625 416.042969 14.078125 C 415.558594 13.582031 418.15625 13.761719 419.273438 13.65625 C 422.109375 13.378906 421.726563 12.246094 426.4375 12.601563 C 426.4375 12.601563 428.640625 13.308594 429.226563 13.414063 C 430.273438 13.601563 431.359375 13.75 429.265625 13.117188 C 428.972656 13.027344 428.546875 12.921875 427.933594 12.792969 C 427.410156 12.195313 435.488281 11.601563 436.535156 11.679688 C 437.878906 11.300781 440.164063 11.242188 442.136719 11.066406 C 442.585938 11.027344 443.628906 11.0625 443.726563 11.113281 C 444.898438 11.695313 445.441406 10.5 447.304688 10.851563 C 448.203125 11.46875 449.699219 11.007813 451.269531 10.851563 C 452.390625 10.296875 456.054688 10.449219 456.953125 10.027344 L 458.074219 10.296875 C 458.972656 10.371094 459.496094 10.179688 460.242188 10.121094 C 460.382813 10.019531 459.875 9.875 459.40625 9.753906 C 457.21875 9.1875 461.664063 9.757813 461.664063 9.757813 C 463.234375 9.910156 463.757813 9.46875 465.253906 9.566406 C 466.003906 9.777344 466.898438 9.949219 467.050781 10.21875 C 468.023438 10.429688 469.144531 10.238281 469.890625 10.027344 C 470.566406 10.085938 470.191406 10.277344 470.265625 10.390625 C 473.480469 10.660156 473.40625 9.699219 476.023438 10.121094 C 477.269531 10.914063 480.523438 10.4375 483.171875 10.628906 C 485.726563 10.816406 486.871094 10.429688 484.257813 10.183594 C 482.300781 10.003906 480.246094 10.136719 478.867188 9.566406 C 476.25 9.796875 474.378906 9.144531 471.6875 9.105469 C 470.488281 7.878906 467.722656 9.355469 465.628906 8.644531 C 463.984375 8.585938 458 8.835938 456.953125 8.453125 C 456.878906 8.375 455.832031 7.722656 454.109375 7.820313 L 453.0625 8.28125 C 449.847656 8.644531 448.652344 7.703125 446.183594 7.359375 C 428.308594 6.28125 407.441406 5.898438 388.445313 6.609375 C 387.472656 6.972656 384.40625 6.628906 384.855469 7.261719 C 383.65625 8.28125 387.996094 7.855469 389.863281 8.089844 C 389.9375 8.394531 389.566406 8.761719 390.238281 9.011719 L 391.285156 9.011719 C 393.007813 8.988281 395.324219 8.972656 394.875 9.566406 C 397.644531 9.699219 397.867188 9.949219 397.71875 10.679688 C 397.71875 11.449219 400.558594 10.738281 401.683594 11.042969 C 401.605469 11.449219 403.027344 11.503906 404.226563 11.601563 C 405.195313 11.621094 405.195313 11.910156 405.644531 12.0625 C 408.9375 12.15625 416.566406 13.753906 414.246094 14.269531 C 413.273438 14.230469 412.152344 14.347656 411.40625 14.175781 C 411.628906 14.117188 409.3125 13.789063 409.234375 14.175781 C 408.9375 14.214844 408.710938 14.136719 408.488281 14.078125 C 406.289063 14.546875 388.863281 16.003906 383.058594 16.746094 C 383.058594 16.746094 380.515625 16.746094 383.058594 16.019531 C 384.113281 15.714844 382.011719 15.382813 382.683594 15 C 379.84375 14.847656 381.1875 13.886719 377.972656 13.980469 C 377.898438 13.808594 378.421875 13.273438 378.347656 12.984375 C 377.746094 12.886719 377.523438 12.601563 376.550781 12.695313 L 376.179688 13.347656 C 375.355469 13.253906 374.234375 13.347656 373.710938 13.0625 C 373.484375 12.445313 376.328125 12.582031 376.179688 12.0625 C 376.027344 11.871094 375.355469 11.71875 374.457031 11.773438 L 374.085938 12.425781 C 374.085938 12.425781 372.363281 11.832031 372.289063 11.601563 C 372.664063 11.523438 372.8125 11.371094 373.335938 11.410156 C 373.484375 11.027344 373.1875 10.679688 372.289063 10.390625 C 367.578125 10.871094 371.839844 9.433594 367.949219 9.296875 L 370.492188 8.914063 C 374.546875 9.589844 375.507813 8.96875 378.722656 8.835938 C 379.691406 8.625 378.570313 8.433594 377.972656 8.28125 C 376.027344 8.125 375.054688 8.53125 373.335938 8.546875 L 372.664063 8.183594 C 371.167969 8.125 369.597656 8.203125 369.746094 8.644531 C 368.175781 8.566406 367.277344 7.761719 365.109375 8.183594 C 364.136719 8.492188 363.464844 8.011719 362.566406 7.992188 C 359.871094 8.703125 357.777344 7.378906 355.011719 8.089844 C 343.71875 8.414063 333.246094 9.296875 321.65625 9.46875 L 321.65625 10.488281 C 319.710938 11.679688 326.589844 10.988281 324.871094 12.140625 C 325.46875 12.351563 326.816406 12.140625 327.414063 12.332031 C 325.019531 12.617188 327.488281 13.273438 326.664063 13.523438 L 330.519531 13.742188 C 330.519531 13.742188 330.214844 15.085938 332.050781 15 C 332.351563 15.730469 334.296875 16.035156 334.59375 16.746094 L 337.4375 17.132813 C 337.398438 17.492188 338.113281 17.511719 338.9375 17.511719 C 341.921875 17.519531 341.828125 17.828125 338.871094 17.949219 C 337.222656 18.015625 335.445313 18.007813 334.21875 18.320313 C 322.925781 18.648438 311.035156 18.820313 299.742188 18.878906 C 299.441406 18.628906 300.058594 18.601563 300.621094 18.566406 C 301.785156 18.496094 301.113281 17.882813 299.742188 17.765625 C 301.6875 17.417969 302.507813 17.1875 303.703125 16.746094 L 301.535156 16.476563 C 300.339844 16.34375 298.695313 16.515625 297.945313 16.285156 C 297.945313 16.285156 299.367188 15.921875 298.703125 15.484375 C 298.5625 15.410156 297.421875 15.613281 296.898438 15.652344 L 295.777344 15.289063 C 296.152344 15.113281 296.824219 15.132813 297.273438 15 C 297.722656 14.710938 297.722656 14.539063 296.523438 14.367188 C 293.894531 14.324219 293.394531 14.132813 295.105469 13.15625 C 297.347656 12.503906 298.019531 11.832031 300.113281 11.21875 C 298.917969 11.121094 296.601563 11.320313 296.269531 11.320313 C 295.339844 11.324219 294.476563 11.300781 293.980469 11.042969 L 297.273438 10.949219 C 296.675781 10.527344 299.964844 10.066406 297.273438 9.835938 C 293.085938 10.046875 290.839844 9.144531 286.503906 9.203125 C 271.246094 7.609375 254.417969 6.6875 238.039063 6.070313 C 236.609375 6.042969 235.117188 5.957031 233.726563 5.941406 C 229.542969 5.898438 229.304688 6.148438 230.351563 6.878906 C 233.050781 8.757813 240.617188 10.105469 243.421875 11.964844 C 247.238281 12.773438 256.027344 16.441406 256.320313 16.550781 C 260.226563 18.011719 261.847656 17.839844 254.839844 17.269531 C 251.871094 17.027344 248.71875 16.921875 245.890625 16.574219 C 237.964844 15.710938 228.238281 15.671875 220.761719 14.828125 C 216.722656 15.152344 219.191406 16.152344 220.761719 16.746094 C 227.417969 18.265625 228.6875 20.492188 234.449219 22.199219 C 235.046875 22.507813 234.523438 22.949219 235.867188 23.199219 C 243.910156 24.015625 266.253906 25.769531 270.648438 25.234375 C 272.589844 25.386719 274.3125 25.675781 276.40625 25.695313 C 279.398438 25.503906 283.359375 26.136719 285.753906 25.503906 C 286.203125 25.675781 286.800781 25.714844 287.550781 25.695313 C 288.371094 25.65625 287.925781 25.234375 287.925781 25.234375 C 287.175781 24.234375 282.464844 24.886719 280.371094 24.3125 C 283.136719 23.792969 279.695313 23.484375 279.621094 22.929688 C 277.753906 22.777344 275.734375 22.507813 274.238281 22.277344 C 271.992188 21.777344 277.828125 21.183594 277.828125 21.183594 C 277.304688 20.933594 277.230469 20.511719 278.574219 20.355469 C 279.695313 20.453125 278.875 20.761719 279.621094 20.894531 C 280.296875 20.953125 280.667969 20.816406 281.117188 20.722656 C 282.390625 20.914063 282.761719 21.203125 284.335938 20.894531 C 284.558594 20.261719 281.269531 20.683594 280.371094 20.164063 C 280.371094 20.164063 280.59375 19.664063 279.996094 19.511719 C 279.097656 19.550781 278.050781 19.628906 277.828125 19.894531 L 277.152344 19.703125 C 277.078125 19.472656 278.648438 19.414063 278.199219 19.148438 C 273.5625 18.398438 278.199219 20.03125 276.03125 20.355469 C 275.433594 20.261719 274.6875 20.261719 274.238281 20.070313 C 275.597656 19.492188 270.890625 19.203125 273.074219 18.734375 C 274 18.535156 272.742188 18.125 271.90625 18.316406 C 270.902344 18.542969 271.453125 18.914063 270.929688 19.167969 C 269.136719 19.015625 268.253906 19.148438 266.757813 18.878906 C 268.777344 18.089844 262.867188 18.550781 264.964844 17.765625 C 275.210938 18.207031 285.980469 18.339844 295.777344 19.050781 C 296.300781 19.097656 296.691406 19 297.078125 18.925781 C 297.460938 18.855469 298.007813 19.109375 297.886719 19.171875 C 294.902344 20.679688 304.96875 19.75 302.957031 21.355469 C 305.425781 21.414063 305.199219 21.949219 307.667969 22.007813 C 307.59375 22.105469 307.742188 22.21875 307.296875 22.277344 C 308.640625 22.527344 310.4375 22.871094 310.886719 23.292969 C 309.164063 24.273438 314.625 23.523438 314.847656 24.40625 C 315.296875 25.023438 316.570313 25.15625 318.066406 25.597656 C 316.121094 26.039063 319.410156 26.460938 319.859375 26.808594 C 322.851563 26.867188 321.730469 27.382813 322.402344 27.804688 C 312.605469 27.84375 303.480469 27.460938 294.355469 27.078125 C 290.765625 26.886719 286.953125 26.25 283.210938 26.710938 C 284.632813 28.9375 295.105469 30.207031 297.570313 32.335938 C 298.542969 32.933594 302.621094 34.484375 306.921875 34.640625 C 320.53125 35.484375 338.632813 35.792969 351.796875 34.71875 C 353.953125 35.480469 356.113281 34.195313 358.273438 34.542969 C 361.441406 35.054688 361.609375 34.160156 359.722656 34.109375 "/>
<path style=" stroke:none;fill-rule:nonzero;fill:rgb(0%,0%,0%);fill-opacity:1;" d="M 456.332031 29.359375 C 454.230469 29.503906 451.882813 28.742188 450.519531 29.285156 C 449.699219 29.054688 448.425781 29.113281 447.304688 29.113281 L 446.929688 29.746094 C 444.089844 29.804688 444.835938 28.824219 441.921875 28.917969 L 441.546875 29.648438 C 439.898438 29.707031 440.199219 29.148438 438.703125 29.113281 C 431.886719 28.949219 425.472656 29.304688 418.3125 29.453125 C 415.304688 29.519531 413.167969 29.210938 416.214844 28.964844 C 420.917969 28.578125 426.183594 28.585938 431.148438 28.363281 C 431.980469 28.21875 434.925781 28.015625 436.910156 27.988281 C 444.261719 27.890625 440.929688 27.816406 438.507813 27.785156 C 437.277344 27.769531 428.40625 27.816406 431.824219 27.269531 C 432.796875 27.019531 433.765625 27.328125 434.738281 27.34375 C 437.246094 26.792969 445.601563 26.566406 449.007813 26.585938 C 451.402344 26.597656 451.476563 26.46875 449.207031 26.335938 C 448.328125 26.28125 442.949219 26.246094 442.0625 26.199219 C 441.765625 26.183594 441.570313 26.046875 441.917969 25.996094 C 442.671875 25.890625 443.730469 25.804688 444.089844 25.789063 C 442.742188 25.117188 446.183594 25.367188 447.304688 25.042969 C 448.128906 24.886719 447.378906 24.601563 446.558594 24.582031 C 446.558594 24.582031 444.6875 24.617188 444.089844 24.773438 C 441.320313 24.253906 438.105469 24.601563 435.113281 24.503906 C 425.839844 24.832031 404.898438 25.503906 404.898438 25.503906 C 402.429688 25.15625 400.410156 25.347656 398.09375 25.695313 C 388.445313 25.65625 366.828125 27.363281 365.78125 27.632813 C 364.808594 27.902344 366.082031 28.191406 366.15625 28.460938 C 369.886719 28.15625 371.382813 28.914063 374.453125 29.082031 C 374.894531 29.105469 375.710938 29.289063 375.800781 29.351563 C 376.269531 29.660156 379.285156 29.566406 377.972656 30.207031 L 381.265625 30.207031 C 382.160156 30.320313 381.9375 30.550781 381.9375 30.761719 C 384.855469 30.742188 387.171875 31.070313 389.117188 31.589844 C 389.117188 31.589844 393.53125 31.511719 394.503906 32.144531 C 393.15625 32.320313 393.453125 32.664063 393.453125 32.972656 C 407.066406 32.203125 420.753906 31.167969 434.367188 30.667969 C 436.386719 30.609375 437.507813 30.820313 439.003906 30.496094 L 453.738281 30.109375 C 453.996094 29.773438 455.804688 30.054688 457.15625 29.863281 C 458.5625 29.65625 457.898438 29.25 456.332031 29.359375 "/>
<path style=" stroke:none;fill-rule:nonzero;fill:rgb(0%,0%,0%);fill-opacity:1;" d="M 499.730469 24.914063 C 498.820313 24.882813 498.5 25.464844 497.804688 25.621094 C 496.980469 25.371094 496.15625 25.582031 495.335938 25.425781 C 495.335938 25.425781 493.625 24.765625 495.886719 24.757813 C 496.753906 24.78125 496.714844 24.734375 496.460938 24.683594 C 496.207031 24.636719 495.738281 24.578125 495.738281 24.578125 C 495.738281 24.578125 488.664063 24.121094 490.464844 23.664063 C 492.117188 23.625 491.238281 23.5 490.90625 23.414063 C 490.429688 23.300781 488.304688 23.773438 487.78125 23.21875 C 487.707031 22.875 489.203125 23.160156 489.574219 22.949219 C 488.453125 22.605469 485.984375 22.875 485.238281 22.488281 C 483.976563 22.386719 483.71875 22.585938 483.046875 22.78125 C 482.964844 22.804688 481.574219 22.929688 481.347656 22.757813 L 482.023438 22.585938 C 480.527344 22.507813 478.804688 22.296875 477.386719 22.488281 C 475.664063 22.183594 473.046875 22.738281 471.253906 22.203125 C 460.878906 22.042969 456.121094 22.210938 453.378906 23.417969 C 452.546875 23.785156 451.960938 24.160156 453.675781 24.507813 C 451.65625 25.371094 456.59375 25.582031 454.425781 26.542969 C 453.191406 26.535156 453.371094 26.816406 454.074219 26.972656 C 455.816406 27.355469 455.097656 27.914063 456.890625 28.113281 C 455.921875 28.34375 457.191406 28.59375 457.265625 28.84375 C 463.25 29.324219 469.230469 28.730469 475.214844 28.652344 C 475.214844 28.558594 475.140625 28.441406 475.589844 28.382813 C 477.421875 28.203125 478.058594 28.652344 478.058594 28.652344 C 478.730469 28.671875 478.804688 28.191406 478.804688 28.191406 C 482.117188 27.921875 484.898438 28.535156 487.960938 27.871094 C 488.054688 27.847656 488.363281 27.886719 488.652344 27.929688 C 491.894531 28.410156 492.082031 27.964844 491.925781 27.671875 C 491.863281 27.554688 490.324219 27.097656 490.324219 27.097656 C 490.324219 27.097656 491.59375 27.058594 492.117188 27.097656 C 491.746094 26.945313 491.070313 26.945313 490.621094 26.808594 C 492.191406 26.457031 493.792969 26.671875 495.222656 26.875 C 498.402344 27.328125 497.476563 26.769531 497.085938 26.636719 C 496.726563 26.515625 496.167969 26.414063 495.710938 26.347656 C 495.933594 26.117188 496.90625 26.136719 497.128906 26.082031 C 498.644531 26.339844 499.78125 26.058594 501.105469 25.933594 C 504.816406 25.585938 501.921875 24.992188 499.730469 24.914063 "/>
</g>
</svg>
