<?xml version="1.0" encoding="UTF-8"?>
<svg xmlns="http://www.w3.org/2000/svg" xmlns:xlink="http://www.w3.org/1999/xlink" width="272pt" height="272pt" viewBox="0 0 272 272" version="1.1">
<g id="surface1">
<path style=" stroke:none;fill-rule:nonzero;fill:rgb(0%,0%,0%);fill-opacity:1;" d="M 136.25 0.460938 C 61.394531 0.460938 0.710938 61.144531 0.710938 136 C 0.710938 210.855469 61.394531 271.539063 136.25 271.539063 C 211.105469 271.539063 271.789063 210.855469 271.789063 136 C 271.789063 61.144531 211.105469 0.460938 136.25 0.460938 Z M 234.828125 82.808594 L 240.160156 72.542969 L 245.066406 83.019531 L 256.480469 84.917969 L 248.03125 92.820313 L 249.753906 104.261719 L 239.625 98.667969 L 229.277344 103.84375 L 231.464844 92.480469 L 223.347656 84.238281 Z M 192.78125 33.644531 L 198.113281 23.375 L 203.019531 33.855469 L 214.433594 35.75 L 205.984375 43.65625 L 207.707031 55.097656 L 197.578125 49.503906 L 187.230469 54.675781 L 189.421875 43.316406 L 181.300781 35.070313 Z M 132.863281 18.097656 L 138.195313 7.828125 L 143.101563 18.308594 L 154.515625 20.203125 L 146.066406 28.109375 L 147.785156 39.550781 L 137.660156 33.957031 L 127.3125 39.128906 L 129.5 27.769531 L 121.382813 19.527344 Z M 68.796875 34.9375 L 74.128906 24.671875 L 79.035156 35.148438 L 90.449219 37.046875 L 82 44.949219 L 83.722656 56.390625 L 73.59375 50.796875 L 63.246094 55.972656 L 65.433594 44.609375 L 57.316406 36.367188 Z M 28.613281 82.265625 L 33.945313 71.996094 L 38.851563 82.472656 L 50.265625 84.371094 L 41.816406 92.277344 L 43.539063 103.71875 L 33.410156 98.125 L 23.0625 103.296875 L 25.25 91.9375 L 17.132813 83.691406 Z M 13.914063 164.964844 L 16.101563 153.605469 L 7.984375 145.363281 L 19.464844 143.933594 L 24.796875 133.664063 L 29.703125 144.144531 L 41.113281 146.039063 L 32.667969 153.945313 L 34.386719 165.386719 L 24.261719 159.792969 Z M 60.402344 223.761719 L 50.277344 218.167969 L 39.925781 223.339844 L 42.117188 211.980469 L 34 203.738281 L 45.480469 202.308594 L 50.808594 192.039063 L 55.71875 202.519531 L 67.128906 204.414063 L 58.679688 212.320313 Z M 115.246094 260.355469 L 105.117188 254.761719 L 94.773438 259.933594 L 96.960938 248.574219 L 88.84375 240.332031 L 100.324219 238.902344 L 105.65625 228.636719 L 110.5625 239.113281 L 121.972656 241.011719 L 113.527344 248.914063 Z M 177.628906 258.160156 L 167.5 252.570313 L 157.152344 257.742188 L 159.339844 246.382813 L 151.222656 238.136719 L 162.703125 236.710938 L 168.035156 226.441406 L 172.941406 236.917969 L 184.355469 238.816406 L 175.90625 246.71875 Z M 136.25 227.648438 C 111.769531 227.648438 88.753906 218.113281 71.445313 200.804688 C 54.136719 183.496094 44.601563 160.480469 44.601563 136 C 44.601563 111.519531 54.136719 88.503906 71.445313 71.195313 C 88.753906 53.886719 111.769531 44.351563 136.25 44.351563 C 160.730469 44.351563 183.742188 53.886719 201.054688 71.195313 C 218.363281 88.503906 227.898438 111.519531 227.898438 136 C 227.898438 186.535156 186.785156 227.648438 136.25 227.648438 Z M 229.839844 213.726563 L 231.558594 225.167969 L 221.433594 219.574219 L 211.085938 224.746094 L 213.273438 213.386719 L 205.15625 205.144531 L 216.636719 203.714844 L 221.96875 193.449219 L 226.875 203.925781 L 238.285156 205.820313 Z M 247.949219 160.941406 L 237.601563 166.113281 L 239.789063 154.753906 L 231.671875 146.507813 L 243.152344 145.078125 L 248.484375 134.8125 L 253.390625 145.289063 L 264.804688 147.1875 L 256.355469 155.089844 L 258.078125 166.53125 L 247.949219 160.941406 "/>
<path style=" stroke:none;fill-rule:nonzero;fill:rgb(0%,0%,0%);fill-opacity:1;" d="M 108.261719 141.554688 C 103.628906 146.039063 95.625 156.296875 90.210938 159.921875 C 84.5625 163.703125 82.066406 160.964844 86.507813 150.796875 C 92.390625 137.328125 103.632813 121.753906 110.820313 112.941406 C 117.730469 104.480469 114.070313 105.355469 107.617188 114.167969 C 101.167969 122.976563 81.019531 148.929688 70.519531 157.738281 C 59.132813 167.289063 58.078125 159.097656 62.035156 151.113281 C 65.546875 144.015625 86.832031 119.890625 95.238281 107.902344 C 104.097656 95.265625 99.507813 92.90625 85.179688 98.054688 C 72.238281 102.703125 60.9375 119.339844 57.542969 126.402344 C 54.605469 132.519531 56.855469 130.5625 59.171875 125.667969 C 61.484375 120.773438 66.800781 114.03125 74.960938 106.578125 C 79.128906 102.773438 83.570313 100.40625 87.320313 99.230469 C 94.582031 96.953125 99.199219 98.410156 91.382813 110.058594 C 90.089844 111.988281 88.617188 114.105469 87.085938 116.371094 C 80.953125 125.421875 58.109375 148.578125 56.894531 157.878906 C 55.480469 168.722656 60.328125 168.199219 70.636719 159.683594 C 78.039063 153.566406 87.242188 143.25 87.242188 143.25 C 87.242188 143.25 84.558594 147.453125 83.183594 152.824219 C 80.050781 165.023438 83.160156 166.554688 88.664063 162.921875 C 94.980469 158.753906 104.878906 146.972656 109.378906 141.796875 C 112.402344 138.320313 110.699219 139.195313 108.261719 141.554688 "/>
<path style=" stroke:none;fill-rule:nonzero;fill:rgb(0%,0%,0%);fill-opacity:1;" d="M 143.042969 110.6875 C 145.921875 104.898438 155.035156 101.058594 162.183594 104.488281 C 163.828125 105.277344 165.117188 106.410156 165.757813 107.851563 C 168.703125 114.480469 163.074219 115.480469 160.976563 114.128906 C 159.144531 112.945313 157.3125 115.550781 162.179688 116.871094 C 167.042969 118.195313 169.230469 112.339844 168.21875 109.253906 C 167.8125 108.011719 166.765625 105.742188 164.777344 103.917969 C 159.507813 99.085938 147.277344 99.800781 141.339844 110.140625 C 137.441406 116.925781 140.472656 125.09375 142.855469 128.8125 C 146.105469 133.882813 156.355469 145.753906 147.160156 154.789063 C 132.320313 169.378906 114.496094 163.160156 113.808594 149.59375 C 113.453125 142.636719 117.078125 134.523438 120.964844 133.039063 C 126.738281 130.835938 128.152344 137.792969 128.226563 141.125 C 128.289063 143.988281 129.320313 142.226563 129.351563 138.921875 C 129.464844 126.761719 119.734375 127.925781 115.363281 137.355469 C 109.144531 150.789063 112.71875 161.546875 121.617188 164.617188 C 128.335938 166.9375 141.90625 164.964844 148.128906 157.289063 C 149.71875 155.324219 151.128906 152.898438 152.316406 149.902344 C 155.378906 142.183594 151.445313 134.664063 145.773438 126.597656 C 141.179688 120.0625 141.0625 114.671875 143.042969 110.6875 "/>
<path style=" stroke:none;fill-rule:nonzero;fill:rgb(0%,0%,0%);fill-opacity:1;" d="M 208.855469 106.71875 C 202.148438 112.296875 189.660156 126.753906 180.59375 137.816406 C 173.058594 139.933594 154.335938 149.398438 153.769531 162.742188 C 153.574219 167.3125 159.320313 167.511719 166.53125 158.871094 C 168.054688 157.042969 178.90625 142.894531 182.824219 138.199219 C 185.335938 137.457031 187.933594 136.949219 190.574219 136.792969 C 191.769531 136.722656 192.914063 136.699219 194.003906 136.714844 C 192.324219 139.605469 190.738281 142.5625 189.359375 145.523438 C 182.675781 159.882813 182.925781 168.269531 187.027344 168.09375 C 194.675781 167.757813 203.898438 154.570313 206.246094 151.539063 C 214.6875 142.703125 213.472656 141.398438 204.519531 151.390625 C 199.628906 156.851563 192.46875 164.882813 190.148438 164.980469 C 185.367188 165.191406 188.515625 149.378906 196.226563 136.800781 C 198.726563 136.960938 200.730469 137.335938 201.886719 137.804688 C 210.121094 141.15625 209.765625 137.582031 203.777344 136.066406 C 201.585938 135.515625 199.421875 135.246094 197.273438 135.125 C 205.585938 122.46875 209.21875 115.878906 213.816406 109.582031 C 218.433594 103.257813 218.722656 98.507813 208.855469 106.71875 Z M 171.015625 149.910156 C 168.90625 152.765625 166.699219 155.996094 164.605469 158.742188 C 157.582031 167.941406 152.398438 163.066406 159.519531 153.3125 C 161.8125 150.171875 169.566406 143.261719 179.277344 139.429688 C 175.609375 143.9375 172.609375 147.753906 171.015625 149.910156 Z M 211.753906 110.453125 C 208.550781 115.210938 201.242188 124.574219 194.976563 135.046875 C 191.25 135.078125 187.609375 135.652344 184.113281 136.660156 C 194.15625 124.679688 204.324219 113.039063 207.875 109.769531 C 212.96875 105.078125 216 104.144531 211.753906 110.453125 "/>
</g>
</svg>
