<?xml version="1.0" encoding="UTF-8"?>
<svg xmlns="http://www.w3.org/2000/svg" xmlns:xlink="http://www.w3.org/1999/xlink" width="532pt" height="386pt" viewBox="0 0 532 386" version="1.1">
<g id="surface1">
<path style=" stroke:none;fill-rule:nonzero;fill:rgb(0%,0%,0%);fill-opacity:1;" d="M 373.550781 164.175781 C 375.199219 157.125 377.601563 150 379.476563 143.023438 L 362.601563 134.550781 C 362.601563 134.476563 468.199219 130.050781 468.199219 130.050781 L 497.601563 53.398438 L 274.699219 54.375 L 219.726563 0.300781 C 219.726563 0.300781 110.675781 125.625 101 136.425781 L 124.476563 215.101563 L 0.726563 218.851563 C 0.726563 218.851563 26.601563 286.421875 31.550781 299.773438 C 31.550781 299.773438 135.351563 289.347656 142.398438 289.046875 C 142.398438 289.046875 173.074219 378 176 386.101563 L 176.148438 386.101563 L 318.351563 320.773438 C 318.351563 320.773438 347.675781 235.800781 350.375 228.75 C 363.273438 228.601563 478.925781 227.25 483.199219 226.726563 C 483.199219 226.726563 523.25 175.574219 531.273438 165.601563 C 526.773438 165.226563 395.601563 164.398438 373.550781 164.175781 Z M 528.574219 166.273438 L 464.75 194.851563 L 316.398438 194.398438 L 372.949219 165 C 384.273438 164.925781 523.324219 166.273438 528.574219 166.273438 Z M 377.675781 143.023438 L 322.925781 154.125 L 260.601563 97.5 C 270.199219 100.949219 361.25 134.773438 361.25 134.773438 Z M 226.101563 112.949219 C 226.101563 112.949219 219.351563 63.300781 218.976563 60.523438 L 321.875 154.199219 L 273.425781 163.726563 Z M 272.976563 164.476563 L 262.550781 294.148438 C 250.925781 294.449219 239.601563 295.199219 227.824219 295.574219 L 170.300781 171.074219 L 225.726563 114.148438 C 229.476563 117.375 272.976563 164.476563 272.976563 164.476563 Z M 225.273438 113.398438 L 169.625 170.101563 L 137.226563 160.574219 C 137.226563 160.574219 214.550781 64.648438 218 60.375 C 219.199219 68.101563 225.351563 113.023438 225.273438 113.398438 Z M 169.324219 170.925781 L 226.925781 295.796875 L 199.773438 332.472656 C 196.476563 323.625 141.574219 173.625 137 161.550781 Z M 227.523438 296.546875 C 227.523438 296.546875 261.351563 294.449219 263.675781 295.347656 L 285.351563 308.097656 L 200.75 332.546875 Z M 263.449219 294.222656 C 266.226563 261.074219 273.875 164.773438 273.875 164.773438 L 322.175781 155.101563 L 286.175781 307.347656 L 286.175781 307.5 Z M 361.101563 133.574219 L 262.773438 97.050781 C 262.773438 97.050781 405.726563 95.699219 429.574219 95.925781 L 466.773438 129.449219 C 466.773438 129.449219 375.726563 133.125 361.101563 133.574219 Z M 467.824219 129.074219 L 430.398438 95.625 C 430.398438 95.625 489.125 59.324219 496.023438 54.824219 Z M 274.550781 55.199219 L 495.648438 54.226563 L 429.5 95.023438 C 419.824219 95.023438 279.125 95.925781 260.523438 96.226563 L 274.550781 55.425781 Z M 220.101563 1.726563 L 273.726563 54.675781 L 259.625 96.300781 L 218.898438 59.324219 C 218.898438 59.324219 219.875 19.574219 220.101563 1.726563 Z M 219.199219 2.023438 C 219.199219 2.023438 218.226563 52.199219 217.925781 59.25 C 217.925781 59.25 137.074219 159.375 136.398438 160.125 C 133.25 158.324219 101.976563 136.425781 101.976563 136.425781 C 101.976563 136.425781 208.925781 13.125 219.199219 2.023438 Z M 102.125 137.699219 L 136.023438 161.101563 L 169.476563 252.824219 L 125.375 215.550781 C 125.375 215.550781 103.175781 141.226563 102.125 137.699219 Z M 124.773438 216.074219 L 169.398438 253.875 L 53.75 257.925781 C 53.75 257.925781 8.074219 224.023438 2.675781 219.523438 C 9.5 219.300781 124.773438 216.074219 124.773438 216.074219 Z M 2.226563 220.648438 C 2.148438 220.574219 53.226563 258.601563 53.226563 258.601563 C 46.027344 271.800781 31.699219 298.273438 31.699219 298.273438 C 26.902344 285.601563 2.226563 220.648438 2.226563 220.648438 Z M 32.601563 298.949219 C 39.726563 285.601563 47 272.324219 54.050781 258.898438 L 169.625 254.773438 C 160.851563 265.875 151.25 277.125 142.398438 288.148438 Z M 175.925781 384.148438 C 175.925781 384.148438 145.773438 295.949219 143.148438 288.898438 L 170.300781 255.226563 C 170.300781 255.226563 193.851563 318.449219 199.023438 333 Z M 176.976563 384.75 C 180.425781 377.25 198.648438 333.074219 201.875 333.074219 L 286.476563 308.699219 L 316.925781 320.398438 L 317 320.472656 C 317 320.472656 182.675781 382.5 176.976563 384.75 Z M 317.976563 319.875 L 286.925781 307.949219 L 323.148438 154.800781 L 378.273438 143.851563 L 378.5 143.851563 L 372.648438 164.101563 L 313.925781 194.699219 L 313.851563 194.773438 L 349.476563 228.523438 C 346.175781 238.875 317.976563 319.875 317.976563 319.875 Z M 350.226563 228.074219 L 315.574219 195.375 L 315.574219 195.300781 L 464.449219 195.75 C 470.449219 205.875 476.449219 216.074219 482.148438 226.199219 C 475.324219 226.273438 350.226563 228.074219 350.226563 228.074219 Z M 483.050781 225.824219 L 465.425781 195.601563 C 465.425781 195.601563 526.925781 168 529.25 167.023438 L 483.050781 225.824219 "/>
</g>
</svg>
