<?xml version="1.0" encoding="UTF-8"?>
<svg xmlns="http://www.w3.org/2000/svg" xmlns:xlink="http://www.w3.org/1999/xlink" width="558pt" height="184pt" viewBox="0 0 558 184" version="1.1">
<g id="surface1">
<path style=" stroke:none;fill-rule:nonzero;fill:rgb(0%,0%,0%);fill-opacity:1;" d="M 546.417969 102.019531 C 518.191406 88.160156 494.429688 86.863281 473.949219 86.984375 C 437.671875 87.207031 405.578125 98.785156 370.539063 101.785156 C 350.382813 103.511719 327.027344 99.957031 311.964844 84.898438 C 300.011719 72.949219 304.089844 65.003906 319.734375 63.425781 C 328.445313 62.546875 337.914063 65.136719 343.886719 67.058594 C 385.71875 80.519531 438.839844 94.703125 481.714844 76.664063 C 495.996094 70.65625 499.914063 69.449219 479.816406 72.914063 C 443.507813 79.175781 402.988281 71.035156 369.089844 57.589844 C 343.410156 47.402344 325.980469 41.480469 299.902344 49.027344 C 276.972656 55.664063 257.128906 71.125 235.5625 81.371094 C 216.269531 89.824219 189.480469 92.65625 169.929688 81.875 C 150.628906 71.234375 158.046875 60.109375 170.566406 55.917969 C 180.246094 52.679688 187.332031 53.296875 194.898438 54.324219 C 223.992188 58.277344 249.570313 61.28125 274.808594 45.820313 C 300.195313 31.105469 336.9375 26.226563 365.121094 38.730469 C 376.839844 43.929688 380.28125 45.140625 366.285156 36.320313 C 356.570313 30.199219 345.355469 26.898438 333.980469 24.402344 C 283.128906 14.808594 243.507813 57.671875 195.101563 37.65625 C 183.789063 32.976563 183.351563 18.246094 203.058594 21.09375 C 219.109375 23.425781 234.507813 27.835938 251.316406 27.960938 C 266.847656 28.078125 296.019531 22.691406 309.363281 14.210938 C 319.082031 8.03125 319.066406 6.183594 307.882813 12.378906 C 279.363281 28.171875 245.613281 17.28125 236.09375 13.125 C 218.539063 5.457031 195.328125 2.332031 179.046875 13.863281 C 177.855469 14.703125 158.191406 30.417969 154 33.5 C 143.308594 41.367188 132.257813 48.269531 120.171875 52.421875 C 105.894531 57.855469 86.4375 55.664063 74.675781 46.214844 C 62.082031 35.003906 66.625 27.449219 80.378906 25.359375 C 99.207031 22.5 118.273438 30.59375 137.878906 28.828125 C 145.648438 28.132813 169.9375 19.117188 179.335938 8.660156 C 186.925781 0.203125 187.332031 -2.410156 177.113281 6.003906 C 167.136719 14.214844 148.921875 18.460938 137.480469 17.542969 C 111.90625 15.488281 89.40625 -1.828125 61.457031 4.691406 C 45.714844 8.554688 34.847656 24.269531 33.367188 39.425781 C 31.429688 59.207031 31.824219 84.730469 9.398438 91.699219 C -2.09375 95.269531 -1.734375 96.707031 8.535156 98.96875 C 16.566406 100.738281 23.738281 108.964844 27.789063 120.511719 C 36.265625 144.648438 45.53125 166.839844 66.324219 172.640625 C 79.402344 176.289063 95.863281 174.949219 116.753906 172.535156 C 137.589844 170.703125 158.058594 173.628906 176.414063 180.316406 C 191.769531 185.910156 191.429688 184.601563 178.910156 176.023438 C 163.332031 165.359375 145.167969 160.371094 125.328125 159.015625 C 111.582031 158.074219 80.761719 161.902344 69.394531 138.421875 C 63.207031 125.644531 72.253906 102.363281 88 105.710938 C 101.558594 108.597656 110.722656 128.855469 121.328125 142.03125 C 138.449219 163.304688 147.4375 162.605469 197.0625 154.976563 C 221.371094 151.242188 234.222656 145.039063 272.9375 161.761719 C 292.773438 170.332031 292.527344 169.578125 274.871094 158.210938 C 252.453125 143.777344 239.179688 138.765625 196.359375 142.28125 C 177.984375 143.789063 159.914063 147.636719 146.820313 135.746094 C 130.609375 121.027344 137.371094 100.957031 160.011719 102.816406 C 181.597656 104.589844 211.089844 125.128906 229.832031 133.972656 C 253.191406 144.996094 275.570313 148.738281 321.652344 135.992188 C 342.289063 130.28125 364.597656 128.691406 393.304688 142.371094 C 408.546875 149.632813 411.976563 151.546875 395.914063 139.25 C 376.015625 124.011719 350.332031 119.609375 324.027344 122.839844 C 297.46875 124.851563 276.257813 130.816406 258.292969 120.585938 C 244.621094 112.804688 246.851563 98.023438 267.050781 95.921875 C 288.992188 93.640625 306.433594 107.609375 326.304688 112.511719 C 366.960938 125.957031 406.921875 109.117188 444.816406 99.828125 C 466.140625 94.597656 507.253906 91.328125 546.445313 104.707031 C 561.210938 109.746094 560.273438 108.824219 546.417969 102.019531 Z M 339.917969 51.902344 C 361.753906 57.136719 380.820313 68.199219 403.007813 72.484375 L 397.054688 78.042969 C 387.386719 76.765625 378.117188 73.960938 369.195313 71.269531 C 366.789063 70.546875 351.9375 66.238281 348.449219 65.148438 C 343.21875 63.511719 337.953125 61.96875 332.3125 61.246094 C 334.425781 57.957031 337.015625 54.84375 339.917969 51.902344 Z M 340.019531 28.050781 C 340.019531 28.050781 348.109375 30.769531 350.644531 31.613281 C 354.015625 32.738281 353.617188 32.859375 350.351563 32.363281 C 346.988281 31.855469 343.414063 31.046875 339.820313 30.570313 Z M 218.394531 10.414063 C 234.464844 16.441406 251.578125 22.855469 269.5 23.253906 C 277.347656 23.425781 277.710938 23.476563 269.96875 24.433594 C 250.695313 26.816406 229.425781 23.371094 211.625 18.667969 C 213.765625 16.070313 216.035156 13.449219 218.394531 10.414063 Z M 193.601563 39.980469 C 217.664063 50.175781 247.226563 44.867188 269.78125 36.039063 C 266.839844 40.367188 264.1875 44.195313 261.039063 48.089844 C 260.339844 48.960938 259.246094 49.429688 258.179688 49.890625 C 235.5625 58.15625 208.398438 51.9375 184.039063 50.378906 Z M 94.335938 9.988281 C 107.785156 13.808594 120.53125 19.132813 134.894531 20.839844 C 137.449219 21.140625 136.652344 21.226563 135.273438 21.890625 C 132.632813 23.160156 130.160156 24.367188 127.222656 25.46875 C 125.863281 25.976563 119.464844 24.167969 117.710938 23.921875 C 107.613281 22.5 97.183594 20.253906 86.6875 20.53125 C 88.816406 16.84375 91.417969 13.328125 94.335938 9.988281 Z M 19.390625 96.785156 C 19.332031 96.859375 17.277344 96.011719 15.671875 95.332031 C 27.46875 88.753906 34.585938 70.972656 35.785156 59.84375 L 47.589844 61.050781 C 38.886719 73.558594 28.960938 84.640625 19.390625 96.785156 Z M 93.804688 160.21875 C 92.183594 163.203125 89.964844 167.457031 87.984375 171.144531 C 76.414063 171.554688 66.09375 170.449219 57.011719 164.035156 C 40.871094 152.628906 36.664063 133.875 29.136719 113.445313 C 40 115.921875 53.320313 117.839844 63.652344 120.035156 C 60.699219 135.085938 69.234375 155.292969 93.804688 160.21875 Z M 51.480469 59.660156 L 65.933594 42.070313 C 76.515625 53.320313 90.71875 59.171875 106.941406 57.730469 C 105.378906 59.722656 103.511719 61.660156 101.691406 63.710938 C 85.230469 62.90625 67.207031 63.246094 51.480469 59.660156 Z M 180.363281 148.042969 C 181.019531 147.9375 181.464844 147.816406 180.734375 148.53125 C 178.253906 150.964844 176.152344 152.652344 172.421875 155.46875 C 163.242188 158.21875 149.691406 156.863281 143.84375 154.488281 C 132.988281 150.074219 124.042969 141.042969 117.890625 130.308594 C 119.496094 127.761719 120.234375 126.6875 122.171875 124.925781 C 126.5 124.902344 132.078125 124.589844 135.371094 124.746094 C 137.15625 135.363281 152.261719 152.578125 180.363281 148.042969 Z M 120.03125 121.78125 L 111.648438 120.890625 C 103.304688 107.195313 90.351563 97.03125 79.222656 101.375 C 78.378906 101.703125 78.484375 101.4375 78.664063 101.210938 C 78.761719 101.089844 102.757813 67.59375 102.757813 67.59375 C 119.382813 67.121094 138.222656 67.53125 153.835938 67.429688 C 152.570313 71.628906 155.15625 75.742188 156.929688 77.460938 C 151.027344 85.207031 120.03125 121.78125 120.03125 121.78125 Z M 275.433594 129.96875 C 301 129.871094 325.714844 123.632813 351.75 125.785156 C 357.605469 126.269531 357.949219 128.71875 351.65625 128.519531 C 349.292969 128.441406 330.75 130.175781 324.074219 131.730469 C 305.421875 136.074219 287.714844 142.910156 266.949219 141.605469 C 269.949219 138.1875 273.367188 134.222656 275.433594 129.96875 Z M 296.488281 97.316406 C 284.003906 92.644531 266.0625 88.261719 253.570313 95.4375 C 240.492188 103.828125 245.5 115.890625 245.5 115.890625 C 233.609375 117.164063 219.972656 118.054688 208.203125 118.050781 C 217.011719 106.425781 227 95.242188 236.992188 84.058594 C 249.988281 78.503906 262.117188 70.355469 274.601563 63.503906 C 284.351563 63.917969 294.546875 65.46875 304.515625 66.453125 C 299.859375 71.121094 300.308594 77.773438 306.5625 83.8125 Z M 373.988281 114.042969 C 368.800781 116.179688 349.777344 115.65625 337.925781 113.59375 C 334.941406 113.074219 334.070313 113 337.949219 112.703125 C 346.070313 112.082031 367.277344 110.53125 374.652344 110.199219 C 374.964844 110.21875 374.203125 113.996094 373.988281 114.042969 Z M 459.898438 94.054688 C 459.898438 94.054688 449.558594 95.335938 443.300781 96.753906 C 428.792969 99.492188 415.167969 104.410156 401.058594 108.199219 C 393.222656 107.929688 385.640625 109.589844 377.101563 108.816406 C 377.5625 107.03125 377.804688 105.839844 378.066406 104.046875 C 405.957031 100.765625 433.296875 92.5 461.921875 91.085938 C 461.507813 92.222656 460.808594 93.207031 459.898438 94.054688 "/>
</g>
</svg>
