<?xml version="1.0" encoding="UTF-8"?>
<svg xmlns="http://www.w3.org/2000/svg" xmlns:xlink="http://www.w3.org/1999/xlink" width="501pt" height="252pt" viewBox="0 0 501 252" version="1.1">
<g id="surface1">
<path style=" stroke:none;fill-rule:nonzero;fill:rgb(0%,0%,0%);fill-opacity:1;" d="M 175.960938 198.957031 C 172.597656 196.902344 163.433594 193.042969 156.414063 193.042969 C 147.011719 193.042969 129.070313 197 121.5 200.5 C 119.824219 201.273438 117.25 202.417969 117.25 202.417969 C 117.25 202.417969 117.5 194.75 116.875 191.75 C 116.515625 190.03125 116 188.875 117.875 187.125 C 119.75 185.375 132.539063 179.542969 135.625 178.625 C 137.769531 177.988281 139.125 177.875 139.25 174.25 C 139.371094 170.769531 132.589844 163.253906 128.671875 163.636719 C 128.046875 163.695313 127.214844 163.34375 127.289063 162.417969 C 127.414063 160.917969 126.539063 160.792969 124.585938 163 C 123.40625 164.328125 120.375 165.875 119.125 166.5 C 117.875 167.125 117.375 166.75 118 165.125 C 118.722656 163.246094 119.484375 160.878906 117.5 161.542969 C 116.75 161.792969 116.5 161.125 117 159.125 C 117.675781 156.429688 115.550781 152.527344 114.625 152 C 113.75 151.5 112.664063 149.5 112.914063 148 C 113.464844 144.71875 106.875 143.8125 104.625 143.625 C 103.125 143.5 102.5 142.210938 104.375 141.335938 C 106.25 140.460938 107.289063 138.789063 107.664063 137.789063 C 108.039063 136.789063 110.839844 134.21875 112.585938 134 C 121.898438 132.824219 126.640625 126.117188 130.875 115 C 131.875 112.375 146.828125 87.027344 148.539063 85.210938 C 151.878906 81.664063 157.664063 68.664063 158.664063 66.539063 C 160.910156 61.777344 158.507813 59.558594 154.625 59.125 C 153.5 59 152.875 58.875 152.25 57.875 C 151.625 56.875 149.5 57 148.625 57.5 C 146.527344 58.699219 145.429688 59.21875 144.125 59.125 C 142.375 59 128.414063 60.625 127.039063 60.875 C 125.664063 61.125 125.492188 60.675781 126.414063 58.664063 C 127.296875 56.757813 127.910156 54.269531 124.085938 51.789063 C 122.210938 50.578125 119.980469 51.0625 119.75 52.375 C 119.453125 54.078125 118.5625 55.046875 117.039063 54.585938 C 115.46875 54.101563 114.5 55.460938 114.625 57.085938 C 114.769531 58.941406 114.691406 61.769531 112.964844 63.480469 C 111.851563 64.585938 110.410156 65.585938 107.875 66.5 C 104.75 67.625 91.625 72.960938 91.625 72.960938 C 91.625 72.960938 94.5 56.25 94.75 54.125 C 95 52 95.792969 51.539063 97.292969 51.414063 C 98.792969 51.289063 106.625 49 110 47.625 C 116.535156 44.960938 129.9375 40.566406 135.625 42.375 C 138.375 43.25 139.375 40.335938 138.5 39.335938 C 136.652344 37.222656 137.128906 35.136719 139.25 36.375 C 141.367188 37.609375 142.03125 33.640625 140.210938 32 C 139.734375 31.574219 139.882813 29.832031 141.75 28.5 C 145.3125 25.957031 147.160156 21.636719 143.375 20.375 C 142.625 20.125 141.75 19.125 141.375 18.25 C 140.9375 17.230469 138.867188 15.945313 137.5 16.125 C 135.988281 16.324219 134.007813 14.96875 133.085938 13.960938 C 130.289063 10.90625 125.914063 11.621094 122.5 16.5 C 121.625 17.75 119.375 18.875 118.25 19.375 C 117.125 19.875 80.5 33.210938 77.707031 34.164063 C 75.109375 35.058594 75.703125 36.132813 76.832031 36.585938 C 77.457031 36.835938 77.707031 38.289063 77.457031 39.039063 C 76.246094 42.683594 81.347656 47.101563 83.828125 49.023438 C 84.964844 49.902344 85.832031 50.5 85.832031 50.5 C 85.832031 50.5 84.242188 52.019531 83.207031 53 C 77.90625 58.039063 52.59375 86.003906 50.625 91.25 C 49.5 94.25 48.066406 96.453125 47 97.875 C 34.898438 113.96875 23.019531 149.695313 21.375 156 C 20.445313 159.5625 19.671875 159.441406 20.125 155.5 C 20.925781 148.554688 22.375 103.792969 22.375 97.125 C 22.375 89.15625 26.292969 68.757813 29.875 60.875 C 31.039063 58.316406 32.128906 57.683594 35 58.125 C 37.914063 58.574219 44.003906 56.761719 43.125 54.125 C 42.820313 53.210938 43.457031 51.078125 44.375 51.125 C 47.335938 51.273438 46.625 44.085938 45.625 43.085938 C 44.753906 42.210938 44.636719 39.59375 45.875 39.75 C 48.40625 40.066406 48.761719 37.125 47.414063 34.542969 C 46.902344 33.5625 41.074219 27.203125 38.25 25.960938 C 36.226563 25.066406 32.734375 22.042969 31.085938 20.769531 C 28.996094 19.152344 26.921875 18.199219 24.125 20.375 C 23 21.25 19.34375 22.828125 17.875 22.5 C 15.644531 22.003906 15.925781 22.855469 17.25 24.75 C 18.125 26 18.125 27.75 16.625 26.375 C 15.125 25 15.25 26.875 16.25 29.375 C 17.25 31.875 18.75 35 20.875 38.625 C 24.890625 45.472656 20.429688 84.039063 19.25 89 C 18.625 91.625 12.449219 123.148438 12 126.125 C 7.101563 158.578125 5.203125 197.003906 4.535156 211.582031 C 4.382813 214.859375 3.910156 222.105469 2.625 222.875 C 0.3125 224.261719 -0.527344 228.839844 0.875 232.207031 C 1.707031 234.207031 3.667969 237.25 3.542969 239.125 C 3.386719 241.417969 4.792969 243.972656 6.5 244.5 C 8.234375 245.035156 9.292969 245.980469 10.332031 248.167969 C 13.484375 254.78125 17.5 251.664063 17.5 243.625 C 17.5 242.5 19 239.125 20 238.125 C 21 237.125 21.25 235.5 21.25 232.125 C 21.25 228.75 23.875 213.625 24.625 208.375 C 25.375 203.125 24.332031 203.792969 23.5 209.25 C 22.824219 213.667969 21.789063 213.78125 22.5 208.625 C 23.828125 198.996094 28.246094 162.574219 31.160156 151.164063 C 35.535156 134.015625 43.359375 113.429688 46.5 106.25 C 47.550781 103.847656 47.886719 104.109375 47.375 106.75 C 43.902344 124.6875 58.957031 139.039063 67.5 140.75 C 69.375 141.125 70.125 140.125 70 138.75 C 69.875 137.375 69.457031 135.375 70.875 134.5 C 72.207031 133.675781 73.167969 131.085938 72.375 129.210938 C 71.957031 128.21875 71.582031 124.335938 72.292969 122.875 C 72.761719 121.90625 72.90625 120.195313 71.875 119.25 C 69.886719 117.421875 67.382813 115.039063 66.484375 113.621094 C 62.589844 107.476563 73.621094 100.863281 80.667969 95.914063 C 82.121094 94.894531 82.332031 95.210938 82.207031 96.585938 C 82.082031 97.960938 80.375 115 80 116.25 C 79.625 117.5 78.875 119.625 79.625 120.75 C 80.375 121.875 80.5 124.25 80.75 126.375 C 81 128.5 82.75 128.25 82.625 127.25 C 82.5 126.25 83.25 125.125 83.875 124.5 C 84.5 123.875 85 122.75 85 122 C 85 121.25 85.75 119 86.5 117.5 C 87.25 116 88.667969 116.210938 88.125 117.75 C 87.476563 119.589844 85.476563 123.429688 86.875 125.875 C 87.375 126.75 86.75 127.625 86.25 128 C 85.144531 128.828125 83.835938 130.945313 84.625 134.5 C 85.351563 137.777344 88.0625 139.511719 89.5 140.375 C 90.125 140.75 91.125 141 91.125 141 C 91.125 141 89.542969 145.125 88.667969 145.375 C 81.257813 147.492188 82.109375 152.015625 84.75 154.875 C 86.25 156.5 85.875 159.25 86.125 162.75 C 86.375 166.25 87.75 170.375 91.5 172.25 C 95.25 174.125 106.125 170.875 109.375 170.25 C 112.625 169.625 111.75 170.375 109.75 171.25 C 107.75 172.125 47.5 210 45.625 211 C 43.75 212 44.125 213.625 45.75 214.875 C 47.375 216.125 47.292969 216.832031 48.167969 218.582031 C 48.875 220 48.5 220.707031 47.875 220.292969 C 46.75 219.542969 46.5 220.625 47.625 221.75 C 48.75 222.875 51.875 224.375 53.25 224.25 C 54.625 224.125 54.875 225.5 55 227 C 55.8125 236.742188 56.6875 240.050781 64.582031 246.417969 C 68.558594 249.621094 73.941406 246.085938 74.75 243.125 C 75.125 241.75 80.207031 235.625 80.957031 235 C 81.707031 234.375 82.667969 234.542969 83.917969 235.792969 C 85.167969 237.042969 97.25 245.625 102.5 248.75 C 111.050781 253.839844 117.730469 252.105469 117.375 248.625 C 117.28125 247.71875 119.875 240.25 121.125 239 C 122.375 237.75 122.625 237 122 236.375 C 121.375 235.75 120.625 235 122 234.375 C 123.421875 233.730469 122.371094 232.359375 121.28125 230.761719 C 118.742188 227.042969 117.414063 208.964844 117.414063 205.582031 C 117.414063 204.5625 117.746094 203.914063 119.710938 203.25 C 125.730469 201.207031 143.433594 196.085938 149.664063 197.832031 C 151.117188 198.238281 151.125 198.5 150.5 200.625 C 149.875 202.75 142.25 214 140.375 215.5 C 138.5 217 139.375 217.875 140.75 217 C 142.125 216.125 143.875 214.75 145 214 C 146.125 213.25 147.75 213.25 146.375 214.875 C 145 216.5 145.375 217.25 146.75 216.125 C 151.828125 211.96875 156.847656 214.640625 162.789063 218.207031 C 164.902344 219.476563 168.859375 219.773438 170 217.875 C 170.375 217.25 171.625 216.5 173.75 215.875 C 175.601563 215.332031 178.273438 209.613281 177.25 208.25 C 176.5 207.25 176.25 204.5 177.25 203 C 178.25 201.5 177.460938 199.875 175.960938 198.957031 Z M 120.375 77.125 C 120.375 77.125 129.976563 74.875 139.375 74.875 C 141.5 74.875 141.875 75 140.625 77.25 C 139.375 79.5 135.75 89.125 133.125 92.75 C 130.5 96.375 122.25 109.875 118.625 111.625 C 115 113.375 114.125 112.75 111.875 111.75 C 107.316406 109.726563 107.640625 108.609375 109 105.125 C 111 100 120.375 77.125 120.375 77.125 Z M 89.667969 57.210938 C 88.667969 60.460938 85.042969 76.210938 85.042969 76.210938 C 85.042969 76.210938 80.832031 78.664063 78.582031 80 C 71.765625 84.039063 60.601563 91.613281 59.792969 102.164063 C 59.601563 104.636719 59.121094 104.898438 58.5 102 C 57.832031 98.886719 58.375 90.625 61.625 85.625 C 68.570313 74.9375 81.34375 59.894531 86.625 56.375 C 89.734375 54.300781 90.695313 53.863281 89.667969 57.210938 Z M 91.25 93 C 91.25 93 92.375 93.875 92.25 94.875 C 92.125 95.875 92.667969 98.460938 93.417969 99.335938 C 94.167969 100.210938 93.417969 100.875 92.667969 100.125 C 91.917969 99.375 90.082031 97.835938 90.082031 97.835938 C 90.082031 97.835938 91.125 93.875 91.25 93 Z M 90.75 103.164063 C 89.875 100.164063 90.957031 99.664063 92.207031 102.914063 C 93.910156 107.34375 91.671875 106.324219 90.75 103.164063 Z M 93.25 110.625 C 92.058594 106.644531 93.417969 106.335938 95.042969 110.335938 C 95.90625 112.460938 94.003906 113.140625 93.25 110.625 Z M 94.917969 88.125 C 94.917969 88.125 105.75 82.75 107.5 81.875 C 109.980469 80.636719 110.1875 80.769531 109.25 82.875 C 108.25 85.125 101 101.75 101 101.75 Z M 75.707031 222.8125 C 74.332031 223.3125 71.542969 224.667969 68.917969 225.417969 C 66.292969 226.167969 64.1875 223.75 62.8125 222.5 C 61.4375 221.25 62.207031 220.6875 62.957031 220.1875 C 63.707031 219.6875 67 218.117188 68.230469 217.332031 C 69.859375 216.296875 70.808594 216.535156 71.4375 217.375 C 71.8125 217.875 72 218.5625 73.75 219.0625 C 75.5 219.5625 75.1875 220.5625 73.9375 220.5625 C 72.6875 220.5625 73.5 221.25 74.875 221.625 C 76.25 222 77.082031 222.3125 75.707031 222.8125 Z M 79.582031 218.855469 C 78.257813 217.914063 74.480469 217.8125 72.730469 217.1875 C 70.5625 216.414063 70.6875 215.898438 72.8125 214.625 C 74.6875 213.5 107.289063 192.792969 107.289063 192.792969 C 107.289063 192.792969 108.199219 200.828125 108.625 203.375 C 109.03125 205.8125 108.203125 206.4375 106.414063 207.25 C 105.039063 207.875 88.25 216.375 85.5 217.875 C 82.75 219.375 81.167969 219.980469 79.582031 218.855469 Z M 110.394531 228.019531 C 109.976563 229.84375 109.300781 229.539063 106.8125 228.875 C 104.878906 228.359375 94.875 225.375 93.125 224.5 C 90.675781 223.277344 91.871094 222.753906 93.9375 221.375 C 95.8125 220.125 98.707031 217.582031 100.460938 215.207031 C 102.210938 212.832031 105.769531 210.9375 107.125 209.75 C 108.347656 208.679688 108.75 208.75 108.75 210.75 C 108.75 212.5 111.144531 224.769531 110.394531 228.019531 "/>
<path style=" stroke:none;fill-rule:nonzero;fill:rgb(0%,0%,0%);fill-opacity:1;" d="M 373.710938 23.375 C 379.867188 22.183594 380.59375 24.011719 375.5 32.75 C 373.882813 35.527344 375.183594 36.191406 376.375 35 C 377.125 34.25 378.585938 33.710938 380.210938 34.585938 C 381.835938 35.460938 382.625 35.210938 385.625 30.835938 C 388.320313 26.902344 397.808594 24.226563 399.625 26.375 C 402.890625 30.234375 408.121094 28.960938 410.75 23.875 C 412.476563 20.535156 410.949219 12.777344 408.164063 12.5 C 406.914063 12.375 406.125 11.75 406.375 9.25 C 406.625 6.75 404.625 5.625 403 5.5 C 399.363281 5.21875 397.859375 4.40625 393.25 1.375 C 388.875 -1.5 386 1.125 385 2.125 C 384 3.125 381.414063 5.039063 379.210938 6.5 C 372.996094 10.601563 371.527344 12.90625 370.335938 17.289063 C 368.886719 22.589844 371.121094 23.875 373.710938 23.375 "/>
<path style=" stroke:none;fill-rule:nonzero;fill:rgb(0%,0%,0%);fill-opacity:1;" d="M 498 224.125 C 496.875 223 496.90625 219.976563 497.25 217.25 C 498 211.289063 496.410156 205.734375 495.085938 200.457031 C 494.164063 196.804688 492.289063 197.691406 493.25 200.957031 C 494.210938 204.230469 495.070313 210.257813 495.25 212.25 C 495.5 215 494.375 215.125 494.125 212.125 C 493.863281 208.984375 490.003906 202.359375 490.585938 199.082031 C 490.960938 196.957031 488.546875 176.394531 487.5 174.25 C 485.171875 169.480469 485.121094 162.195313 483.375 156 C 482.371094 152.4375 481.25 153.5 482.125 157.375 C 482.527344 159.152344 484.125 172 484 174.875 C 483.894531 177.300781 482.394531 177.203125 482.25 173.75 C 482.113281 170.519531 481.125 156.375 480.25 152.5 C 479.3125 148.347656 478.875 149.75 479 152 C 479.398438 159.191406 480.058594 161.558594 478.25 164.875 C 477.5 166.25 477.375 169 477.375 170.625 C 477.375 173.253906 475.734375 173.625 476 170 C 476.082031 168.871094 477 161 476.125 157.625 C 474.9375 153.042969 473.8125 153.882813 474.25 158.25 C 474.425781 159.996094 474.5 164 474.625 165.875 C 474.75 167.75 473.414063 168.375 473.289063 167.25 C 473.164063 166.125 472.914063 164.042969 472.664063 160.792969 C 472.414063 157.542969 471.375 157.957031 471.25 161.582031 C 471.175781 163.710938 470.125 170.625 470.25 174.625 C 470.347656 177.769531 470.375 216.75 470.75 222.75 C 471.011719 226.921875 470.484375 228.703125 465.5 230.125 C 453.398438 233.574219 422.265625 239.300781 408.875 234.25 C 404.875 232.742188 402.625 230.25 402.5 228.375 C 402.375 226.5 402.125 222.5 401.375 221.25 C 400.625 220 399.835938 217.542969 401.085938 214.542969 C 402.066406 212.1875 402.015625 209.09375 401.890625 206.324219 C 401.6875 201.820313 407.609375 187.285156 409.125 184.375 C 410.75 181.25 411.125 178 410.5 177.25 C 409.875 176.5 409.25 175.625 409.375 174.375 C 409.8125 169.992188 401.304688 168.648438 395.125 172.125 C 393.125 173.25 392.960938 172.804688 393.75 171.5 C 399.652344 161.730469 419.667969 135.761719 425.625 131.875 C 428.5 130 428.625 128.5 427.875 127.875 C 427.125 127.25 426.875 126.375 428.25 125.5 C 429.625 124.625 429.5 123 428.125 121.5 C 426.75 120 425.25 119.875 422.5 120.125 C 413.589844 120.933594 376.753906 137.78125 371.125 141.125 C 369.964844 141.8125 369.339844 141.742188 370.5 140.25 C 371.375 139.125 383.625 128.5 384.625 127.5 C 385.625 126.5 387.125 125.5 388 126.375 C 388.875 127.25 390.25 127.375 392 127.75 C 393.011719 127.96875 393.03125 128.53125 391.75 128.875 C 389.875 129.375 389.832031 130.234375 391.375 130.125 C 393.125 130 395.625 128.5 397.125 125.5 C 400.945313 117.863281 404.40625 103.449219 407.875 98.25 C 412.730469 90.964844 408.402344 87.460938 410 77.875 C 410.578125 74.40625 408.960938 74.269531 408.75 75.75 C 408.558594 77.082031 407 76.625 407.5 72.375 C 408.175781 66.632813 406.210938 63.113281 401.75 62 C 400.25 61.625 400.125 60.75 401.625 59.75 C 403.125 58.75 409.609375 55.183594 414.625 53.25 C 423.09375 49.988281 420.9375 44.710938 417.039063 43.039063 C 415.664063 42.453125 413.875 40.375 415.25 39.625 C 416.625 38.875 416.25 37.625 414.25 36.75 C 412.25 35.875 408.476563 34.039063 407.875 32.75 C 407 30.875 405.875 31.375 404.875 32.875 C 403.875 34.375 402 35.5 400 36.125 C 394.171875 37.945313 363.539063 60.21875 357.875 64.75 C 355.375 66.75 353 69.125 351.125 69 C 350.179688 68.9375 349.445313 70.105469 351.125 72.625 C 352.039063 74 353.40625 75.859375 353.25 77.875 C 352.667969 85.414063 356.050781 87.105469 362.5 84.625 C 364.125 84 374.5 78.375 375.75 77.5 C 377 76.625 377.375 77.125 376.5 79.5 C 372.972656 89.074219 372.105469 102.453125 371.921875 106.378906 C 371.886719 107.097656 372.125 108.375 371.125 108.875 C 369.214844 109.828125 369.5 110.625 370.875 112.125 C 372.25 113.625 372.375 114.75 372.125 115.75 C 372.125 117.027344 372.875 120.792969 373.875 122.125 C 374.625 123.125 373.75 125 372.25 126.5 C 356.429688 142.320313 287.960938 196.171875 271.5 202.75 C 267.21875 204.460938 266.375 205.140625 266.375 206.625 C 266.375 207.5 266.125 208.5 264.875 210 C 263.191406 212.023438 262.683594 216.4375 264 216.875 C 264.75 217.125 265.164063 218.457031 263.914063 219.957031 C 262.664063 221.457031 263.25 222.875 264.875 222 C 266.5 221.125 266.375 223.375 264.25 224.875 C 262.511719 226.101563 265.125 227 266.375 225.375 C 267.625 223.75 269.253906 222.441406 270.5 221.75 C 271.625 221.125 275.75 218.625 279.875 214.375 C 286.066406 207.996094 336.867188 175.539063 345.5 170 C 357.53125 162.28125 394.746094 143.460938 407 137.625 C 409.625 136.375 409.632813 137.125 407.75 139 C 393.089844 153.578125 355.742188 199.796875 347.5 218 C 344.5 224.625 342.25 226.625 339.5 229.125 C 336.609375 231.75 337.347656 237.625 340 240.125 C 340.8125 240.890625 342.5 242.125 343 245.5 C 343.773438 250.734375 350.304688 251.511719 352 248.125 C 352.875 246.375 355 241.75 356.75 239.75 C 358.5 237.75 360 232.125 361.625 227.125 C 369.210938 203.785156 380.238281 193.285156 396 182.25 C 398.5 180.5 398.875 180.625 398.875 183.5 C 398.875 185.375 397.5 191.375 395.5 195.5 C 388.933594 209.046875 389.125 227.5 396.125 235 C 400.363281 239.542969 408.179688 246.5 416.125 246.5 C 421.25 246.5 426.875 248.5 433.75 249.75 C 440.625 251 461.75 248.375 463.75 247.875 C 465.75 247.375 471.5 246.25 475 246.875 C 482.421875 248.199219 499.527344 242.398438 499.429688 236.375 C 499.414063 235.550781 499.25 233.449219 499.875 232.625 C 501.238281 230.828125 500.4375 226.5625 498 224.125 Z M 384.25 96.875 C 385.125 95.625 386.625 93.75 387.375 92 C 388.125 90.25 393.496094 82.242188 395.875 79.625 C 398.914063 76.285156 399.894531 79.570313 397.75 81 C 396.25 82 394.625 86 394.375 87.75 C 394.125 89.5 392.75 92.375 391.75 93.375 C 390.75 94.375 385.75 106.25 384.875 108.25 C 384 110.25 383.5 110.625 383 107.875 C 382.5 105.125 383.375 98.125 384.25 96.875 Z M 392.5 140.375 C 388.246094 142.230469 388.890625 140.816406 391.375 139.75 C 394 138.625 397.875 137 400.625 135 C 403.070313 133.222656 409.53125 130.347656 412 129.5 C 416.375 128 415.75 129.5 412.5 131.125 C 410.449219 132.152344 397.375 138.25 392.5 140.375 "/>
</g>
</svg>
