<?xml version="1.0" encoding="UTF-8"?>
<svg xmlns="http://www.w3.org/2000/svg" xmlns:xlink="http://www.w3.org/1999/xlink" width="580pt" height="213pt" viewBox="0 0 580 213" version="1.1">
<g id="surface1">
<path style=" stroke:none;fill-rule:nonzero;fill:rgb(0%,0%,0%);fill-opacity:1;" d="M 189.035156 26.441406 C 198.34375 32.84375 214.785156 51.046875 215.039063 51.351563 C 221.222656 58.761719 217.148438 55.195313 214.53125 52.757813 C 213.574219 51.867188 207.738281 46.511719 207.738281 46.511719 C 186.089844 24.976563 115.773438 1.226563 90.328125 0.574219 C 85.910156 0.460938 84.0625 2.398438 90.496094 5.140625 C 103.195313 10.554688 113.222656 22.792969 122.804688 33.4375 C 125.503906 36.4375 124.539063 36.019531 120.984375 34.578125 C 89.996094 18.8125 40.5625 16.144531 27.132813 19.136719 C 22.066406 20.265625 22.386719 22.878906 27.496094 22.523438 C 47.65625 21.132813 69.230469 46.367188 73.554688 51.808594 C 74.90625 53.507813 74.234375 54 69.507813 52.929688 C 50.746094 48.683594 40.71875 47.742188 5.066406 54.96875 C -0.09375 56.011719 -1.355469 58.882813 4.980469 58.699219 C 47.894531 57.472656 73.292969 118.5 83.015625 156.628906 C 127.164063 175.414063 170.503906 194.265625 184.648438 209.648438 C 190.257813 215.746094 191.429688 213.191406 188.242188 205.605469 C 181.839844 190.347656 171.355469 176.15625 160.070313 162.632813 C 176.3125 162.460938 198.441406 172.765625 211.054688 186.070313 C 218.339844 193.75 216.945313 186.832031 215.839844 182.949219 C 214.878906 179.570313 207.113281 161.019531 205.589844 155.375 C 214.355469 152.636719 258.199219 146.777344 279.167969 168 C 285.796875 174.710938 287.578125 174.714844 283.308594 165.671875 C 277.050781 152.410156 265.847656 140.828125 254.390625 130.640625 C 250.871094 127.511719 252.835938 127.289063 256.199219 129.035156 C 267.542969 134.921875 278.75 143.949219 286.984375 154.800781 C 289.96875 158.734375 292.484375 158.769531 295.492188 158.253906 C 307.503906 156.191406 347.9375 137.355469 373.351563 163.421875 C 377.09375 167.261719 377.65625 166.140625 376.664063 161.402344 C 376.074219 158.585938 375.535156 156.457031 374.941406 153.175781 C 398.140625 145.828125 444.191406 163.871094 465.121094 182.71875 C 478.023438 194.332031 480.347656 192.640625 470.464844 178.199219 C 444.558594 140.332031 388.082031 105.644531 329.953125 104.570313 C 290.359375 62.441406 243.605469 32.59375 190.683594 19.925781 C 182.941406 18.074219 180.355469 20.472656 189.035156 26.441406 Z M 89.109375 62.90625 C 118.855469 67.210938 146.722656 80.46875 171.632813 98.570313 C 175.746094 103.71875 178.652344 108.324219 182.199219 113.476563 C 183.371094 115.652344 183.359375 115.847656 181.648438 114.238281 C 172.300781 105.464844 162.929688 96.914063 151.8125 92.464844 C 146.679688 90.410156 143.160156 91.9375 146.960938 95.925781 C 152.414063 101.648438 158.101563 107.820313 161.773438 114.519531 C 148.605469 108.871094 134 106.902344 119.214844 105.46875 C 110.433594 90.683594 100.9375 76.347656 89.109375 62.90625 Z M 145.207031 145.761719 C 147.902344 150.269531 147.464844 149.675781 144.453125 147.042969 C 128.289063 132.925781 112.015625 118.902344 92.621094 112.363281 C 91.089844 111.871094 88.273438 112.507813 90.191406 114.316406 C 94.078125 117.976563 98.6875 121.28125 102.816406 124.820313 C 93.5 120.878906 84.179688 116.9375 74.054688 114.875 C 69.488281 105.914063 64.46875 96.238281 58.554688 87.367188 C 103.28125 80.78125 137.378906 132.683594 145.207031 145.761719 Z M 293.398438 150.625 C 288.019531 142.023438 279.6875 134.230469 271.894531 126.972656 C 299.683594 110.691406 334.246094 115.097656 353.304688 137.019531 C 354.578125 138.484375 354.398438 138.988281 353.015625 137.90625 C 345.707031 132.175781 335.976563 127.535156 326.746094 125.691406 C 323.128906 124.96875 321.757813 126.300781 324.945313 127.886719 C 331.6875 131.230469 338.089844 135.429688 343.664063 141.578125 C 326.460938 142.652344 308.539063 143.726563 293.398438 150.625 Z M 442.152344 159.855469 C 443.132813 160.65625 443.105469 160.78125 441.9375 160.308594 C 420.835938 151.746094 397.460938 141.828125 373.320313 148.476563 C 367.765625 136.917969 358.089844 125.089844 346.710938 116.667969 C 394.273438 125.285156 412.054688 135.164063 442.152344 159.855469 Z M 255.046875 116.667969 C 247.699219 113.800781 239.726563 112.367188 231.84375 110.574219 C 221.539063 101.945313 210.886719 94.179688 199.378906 88.554688 C 197.238281 87.511719 194.976563 89.0625 197.140625 91.421875 C 198.777344 93.207031 203.796875 98.671875 204.007813 98.902344 C 205.191406 100.191406 208.0625 103.484375 202.804688 99.632813 C 192.089844 94.035156 180.886719 89.664063 168.675781 87.816406 C 161.773438 75.183594 152.726563 64.164063 145.378906 52.15625 C 166.074219 55.738281 184.621094 64.433594 202.632813 74.46875 C 221.269531 85.847656 239.546875 98.746094 255.046875 116.667969 Z M 295.488281 81.347656 C 301.300781 85.996094 301.84375 86.484375 295.496094 83.355469 C 275.808594 73.652344 254.632813 67.597656 232.738281 63.265625 C 228.078125 53.859375 222.253906 44.449219 213.382813 37.105469 C 244.089844 43.753906 270.351563 61.234375 295.488281 81.347656 "/>
<path style=" stroke:none;fill-rule:nonzero;fill:rgb(0%,0%,0%);fill-opacity:1;" d="M 214.6875 157.328125 C 210.828125 158.191406 210.96875 159.617188 212.710938 162.59375 C 216.027344 168.265625 221.628906 180.214844 224.585938 187.183594 C 251.644531 175.886719 284.894531 181.960938 308.058594 199.285156 C 313.960938 203.699219 315.027344 202.570313 309.558594 196.753906 C 282.238281 167.695313 242.589844 151.085938 214.6875 157.328125 "/>
<path style=" stroke:none;fill-rule:nonzero;fill:rgb(0%,0%,0%);fill-opacity:1;" d="M 292.175781 62.636719 C 306.734375 73.226563 316.691406 80.621094 329.507813 99.015625 C 383.335938 102.398438 435.726563 126.832031 480.558594 170 C 491.234375 180.28125 493.183594 181.613281 484.347656 168.832031 C 483.722656 167.929688 476.449219 158.554688 472.6875 154.925781 C 417.574219 105.6875 338.074219 62.023438 295.964844 58.839844 C 288.03125 58.242188 289.648438 60.796875 292.175781 62.636719 "/>
<path style=" stroke:none;fill-rule:nonzero;fill:rgb(0%,0%,0%);fill-opacity:1;" d="M 429.257813 115.734375 C 463.167969 134.734375 469.039063 145.226563 489.890625 166.933594 C 513.78125 155.425781 548.871094 157.699219 571.9375 170.457031 C 578.238281 173.941406 583.640625 174.492188 575.304688 167.496094 C 537.492188 135.753906 462.640625 114.097656 429.5 110.9375 C 423.945313 110.410156 421.378906 111.316406 429.257813 115.734375 "/>
</g>
</svg>
