<?xml version="1.0" encoding="UTF-8"?>
<svg xmlns="http://www.w3.org/2000/svg" xmlns:xlink="http://www.w3.org/1999/xlink" width="528pt" height="40pt" viewBox="0 0 528 40" version="1.1">
<g id="surface1">
<path style=" stroke:none;fill-rule:nonzero;fill:rgb(0%,0%,0%);fill-opacity:1;" d="M 171.988281 4.992188 C 180.484375 6.164063 195.484375 9.5 195.714844 9.554688 C 201.359375 10.914063 197.644531 10.261719 195.253906 9.8125 C 194.378906 9.652344 189.054688 8.667969 189.054688 8.667969 C 169.300781 4.722656 105.136719 0.371094 81.917969 0.25 C 77.886719 0.230469 76.203125 0.585938 82.070313 1.085938 C 93.664063 2.078125 102.808594 4.324219 111.554688 6.273438 C 114.019531 6.824219 113.136719 6.746094 109.894531 6.484375 C 81.617188 3.59375 36.507813 3.105469 24.253906 3.652344 C 19.632813 3.859375 19.925781 4.339844 24.585938 4.273438 C 42.980469 4.019531 62.667969 8.644531 66.613281 9.640625 C 67.847656 9.953125 67.234375 10.042969 62.917969 9.84375 C 45.800781 9.066406 36.652344 8.894531 4.121094 10.21875 C -0.589844 10.410156 -1.742188 10.9375 4.042969 10.902344 C 43.199219 10.679688 66.375 21.863281 75.246094 28.851563 C 115.53125 32.292969 155.078125 35.75 167.984375 38.570313 C 173.105469 39.6875 174.171875 39.21875 171.265625 37.828125 C 165.421875 35.03125 155.855469 32.429688 145.558594 29.953125 C 160.378906 29.921875 180.574219 31.808594 192.082031 34.246094 C 198.726563 35.65625 197.453125 34.386719 196.445313 33.675781 C 195.570313 33.054688 188.484375 29.65625 187.09375 28.621094 C 195.09375 28.121094 235.101563 27.046875 254.234375 30.9375 C 260.28125 32.164063 261.90625 32.167969 258.011719 30.507813 C 252.300781 28.078125 242.078125 25.957031 231.625 24.089844 C 228.414063 23.515625 230.203125 23.472656 233.277344 23.792969 C 243.625 24.871094 253.851563 26.527344 261.363281 28.515625 C 264.089844 29.238281 266.386719 29.242188 269.128906 29.148438 C 280.089844 28.769531 316.984375 25.320313 340.175781 30.097656 C 343.589844 30.800781 344.101563 30.59375 343.195313 29.726563 C 342.660156 29.210938 342.164063 28.820313 341.625 28.21875 C 362.796875 26.871094 404.816406 30.179688 423.914063 33.632813 C 435.6875 35.761719 437.804688 35.453125 428.789063 32.804688 C 405.148438 25.863281 353.617188 19.507813 300.574219 19.308594 C 264.445313 11.589844 221.78125 6.117188 173.492188 3.796875 C 166.429688 3.457031 164.070313 3.898438 171.988281 4.992188 Z M 80.808594 11.675781 C 107.949219 12.464844 133.378906 14.894531 156.105469 18.210938 C 159.863281 19.152344 162.511719 19.996094 165.75 20.941406 C 166.820313 21.339844 166.8125 21.378906 165.246094 21.082031 C 156.71875 19.472656 148.167969 17.90625 138.023438 17.09375 C 133.339844 16.714844 130.128906 16.996094 133.597656 17.726563 C 138.574219 18.773438 143.761719 19.90625 147.113281 21.132813 C 135.09375 20.097656 121.769531 19.738281 108.277344 19.476563 C 100.265625 16.765625 91.597656 14.136719 80.808594 11.675781 Z M 131.996094 26.859375 C 134.457031 27.6875 134.054688 27.578125 131.308594 27.09375 C 116.558594 24.507813 101.707031 21.9375 84.011719 20.738281 C 82.613281 20.648438 80.042969 20.765625 81.792969 21.097656 C 85.34375 21.769531 89.546875 22.371094 93.316406 23.023438 C 84.8125 22.300781 76.3125 21.578125 67.070313 21.199219 C 62.902344 19.558594 58.324219 17.785156 52.925781 16.15625 C 93.738281 14.949219 124.855469 24.464844 131.996094 26.859375 Z M 267.21875 27.75 C 262.3125 26.175781 254.707031 24.746094 247.59375 23.414063 C 272.953125 20.433594 304.492188 21.238281 321.882813 25.257813 C 323.046875 25.527344 322.882813 25.617188 321.617188 25.417969 C 314.949219 24.371094 306.070313 23.519531 297.648438 23.179688 C 294.347656 23.050781 293.09375 23.292969 296.003906 23.582031 C 302.15625 24.195313 307.996094 24.964844 313.085938 26.09375 C 297.386719 26.289063 281.035156 26.488281 267.21875 27.75 Z M 402.957031 29.441406 C 403.851563 29.589844 403.824219 29.613281 402.761719 29.527344 C 383.503906 27.957031 362.175781 26.140625 340.144531 27.355469 C 335.078125 25.238281 326.246094 23.070313 315.863281 21.527344 C 359.265625 23.105469 375.492188 24.917969 402.957031 29.441406 Z M 232.226563 21.527344 C 225.519531 21.003906 218.242188 20.738281 211.050781 20.410156 C 201.644531 18.828125 191.929688 17.40625 181.425781 16.375 C 179.476563 16.183594 177.410156 16.46875 179.386719 16.902344 C 180.878906 17.226563 185.457031 18.230469 185.652344 18.273438 C 186.730469 18.507813 189.351563 19.109375 184.550781 18.40625 C 174.777344 17.378906 164.554688 16.578125 153.410156 16.238281 C 147.113281 13.925781 138.855469 11.90625 132.152344 9.703125 C 151.039063 10.359375 167.960938 11.953125 184.394531 13.792969 C 201.402344 15.878906 218.078125 18.242188 232.226563 21.527344 Z M 269.125 15.054688 C 274.429688 15.90625 274.925781 15.996094 269.132813 15.421875 C 251.167969 13.644531 231.84375 12.535156 211.867188 11.738281 C 207.613281 10.015625 202.300781 8.292969 194.207031 6.945313 C 222.222656 8.164063 246.191406 11.367188 269.125 15.054688 "/>
<path style=" stroke:none;fill-rule:nonzero;fill:rgb(0%,0%,0%);fill-opacity:1;" d="M 195.398438 28.980469 C 191.875 29.136719 192.003906 29.398438 193.59375 29.945313 C 196.617188 30.984375 201.730469 33.175781 204.425781 34.453125 C 229.121094 32.382813 259.457031 33.492188 280.597656 36.667969 C 285.980469 37.480469 286.953125 37.269531 281.964844 36.207031 C 257.035156 30.878906 220.859375 27.835938 195.398438 28.980469 "/>
<path style=" stroke:none;fill-rule:nonzero;fill:rgb(0%,0%,0%);fill-opacity:1;" d="M 266.101563 11.625 C 279.390625 13.566406 288.472656 14.921875 300.164063 18.292969 C 349.285156 18.910156 397.09375 23.390625 438 31.300781 C 447.742188 33.1875 449.519531 33.429688 441.457031 31.085938 C 440.886719 30.921875 434.25 29.203125 430.816406 28.539063 C 380.527344 19.515625 307.984375 11.511719 269.5625 10.929688 C 262.320313 10.820313 263.796875 11.289063 266.101563 11.625 "/>
<path style=" stroke:none;fill-rule:nonzero;fill:rgb(0%,0%,0%);fill-opacity:1;" d="M 391.1875 21.355469 C 422.128906 24.839844 427.488281 26.761719 446.515625 30.738281 C 468.316406 28.632813 500.332031 29.046875 521.378906 31.386719 C 527.128906 32.023438 532.058594 32.125 524.453125 30.84375 C 489.953125 25.027344 421.648438 21.054688 391.410156 20.476563 C 386.339844 20.378906 383.996094 20.546875 391.1875 21.355469 "/>
</g>
</svg>
