<?xml version="1.0" encoding="UTF-8"?>
<svg xmlns="http://www.w3.org/2000/svg" xmlns:xlink="http://www.w3.org/1999/xlink" width="577pt" height="45pt" viewBox="0 0 577 45" version="1.1">
<g id="surface1">
<path style=" stroke:none;fill-rule:nonzero;fill:rgb(0%,0%,0%);fill-opacity:1;" d="M 239.339844 19.421875 C 210.671875 20.960938 182.132813 25.894531 153.277344 26.21875 C 148.640625 26.273438 144.019531 25.644531 139.394531 25.257813 C 138.019531 25.140625 138.234375 25.039063 139.691406 24.886719 C 168.5 21.839844 197.257813 19.101563 226.011719 17.339844 C 255.417969 15.535156 284.824219 14.710938 314.1875 14.085938 C 317.835938 14.988281 321.484375 15.894531 325.132813 16.808594 C 297.035156 17.246094 276.472656 17.429688 239.339844 19.421875 Z M 302.449219 12.125 C 298.929688 11.25 295.410156 10.378906 291.886719 9.515625 C 254.746094 10.8125 217.519531 12.449219 180.308594 15.75 C 143.492188 19.015625 106.695313 24 69.789063 29.523438 C 68.789063 29.675781 68.8125 29.777344 69.804688 29.824219 C 74.28125 30.019531 78.761719 30.46875 83.230469 30.234375 C 120.222656 28.308594 156.496094 20.472656 193.089844 17.515625 C 229.5625 14.566406 266.042969 13.1875 302.449219 12.125 Z M 399.128906 15.929688 C 444.027344 17.449219 488.898438 19.714844 533.75 22.632813 C 532.351563 21.929688 530.953125 21.222656 529.550781 20.523438 C 483.921875 17.617188 438.265625 15.40625 392.578125 13.972656 C 391.605469 13.945313 391.578125 13.949219 392.519531 14.195313 C 394.722656 14.769531 396.925781 15.347656 399.128906 15.929688 Z M 565.40625 38.722656 C 525.507813 35.734375 485.066406 37.980469 445.671875 31.203125 C 408.605469 24.828125 373.585938 10.179688 337.5 0.5 C 309.472656 0.761719 281.414063 1.195313 253.347656 2.484375 C 225.234375 3.773438 197.089844 5.707031 168.945313 8.402344 C 140.71875 11.101563 112.464844 14.550781 84.226563 18.84375 C 56.523438 23.054688 28.859375 28.355469 1.113281 33.996094 C 0.00390625 34.21875 -0.00390625 34.414063 1.101563 34.453125 C 8.316406 34.714844 15.542969 35.535156 22.734375 35.007813 C 68.199219 31.679688 112.28125 19.675781 157.007813 15.050781 C 201.515625 10.445313 246.257813 2.097656 290.476563 6.621094 C 326.414063 10.296875 359.683594 28.707031 395.609375 34.285156 C 460.914063 44.421875 519.6875 40.117188 576.40625 44.375 C 572.738281 42.484375 569.074219 40.601563 565.40625 38.722656 Z M 429.289063 24.992188 C 432.949219 26.109375 436.542969 27.535156 440.320313 28.164063 C 479.375 34.671875 519.402344 32.503906 558.925781 35.394531 C 556.617188 34.21875 554.308594 33.039063 551.996094 31.867188 C 511.140625 28.964844 470.265625 26.574219 429.375 24.753906 C 428.695313 24.722656 428.609375 24.785156 429.289063 24.992188 Z M 356.691406 25.46875 C 349.375 24.523438 341.933594 25.460938 334.554688 25.492188 C 328.175781 23.824219 321.800781 22.171875 315.417969 20.542969 C 303.691406 20.730469 291.964844 20.988281 280.226563 21.320313 C 290.34375 23.875 300.191406 27.855469 310.566406 29.140625 C 330.117188 31.5625 349.949219 28.972656 369.632813 29.0625 C 370.492188 29.066406 370.464844 29.089844 369.628906 28.855469 C 365.328125 27.660156 361.109375 26.042969 356.691406 25.46875 Z M 267.734375 21.75 C 255.992188 22.234375 244.242188 22.789063 232.488281 23.425781 C 242.621094 25.71875 252.519531 29.453125 262.878906 30.46875 C 274.46875 31.609375 286.144531 29.765625 297.777344 29.390625 C 298.882813 29.351563 298.925781 29.394531 297.855469 29.128906 C 287.816406 26.617188 277.777344 24.15625 267.734375 21.75 Z M 249.613281 30.753906 C 239.621094 28.515625 229.628906 26.335938 219.628906 24.214844 C 207.863281 25.019531 196.09375 25.902344 184.316406 26.875 C 194.46875 28.875 204.421875 32.328125 214.761719 33.066406 C 226.355469 33.894531 237.957031 31.757813 249.546875 31.066406 C 250.453125 31.015625 250.476563 30.949219 249.613281 30.753906 "/>
</g>
</svg>
