<?xml version="1.0" encoding="UTF-8"?>
<svg xmlns="http://www.w3.org/2000/svg" xmlns:xlink="http://www.w3.org/1999/xlink" width="563pt" height="51pt" viewBox="0 0 563 51" version="1.1">
<g id="surface1">
<path style=" stroke:none;fill-rule:nonzero;fill:rgb(13.729858%,12.159729%,12.548828%);fill-opacity:1;" d="M 278.460938 38.917969 L 562.605469 38.894531 L 562.585938 49.5 C 562.585938 49.5 213.960938 49.582031 209.5 49.582031 C 207.988281 49.582031 207.898438 49.425781 209.414063 49.15625 C 217.871094 47.667969 238.617188 44 242.25 43.5 C 248.363281 42.660156 278.460938 38.917969 278.460938 38.917969 Z M 292.5625 36.875 C 290.75 37.0625 290.75 37.25 292.75 37.25 C 294.75 37.25 562.585938 37.25 562.585938 37.25 L 562.605469 34.667969 L 310.5 34.6875 C 310.5 34.6875 294.074219 36.71875 292.5625 36.875 Z M 358.691406 32.75 C 357.308594 32.863281 357.328125 33 358.75 33 C 378.113281 33.007813 562.585938 33.0625 562.585938 33.0625 L 562.605469 31.230469 L 375.875 31.25 C 375.875 31.25 363.664063 32.339844 358.691406 32.75 Z M 0.25 32.9375 C -0.449219 33.527344 -0.550781 34.160156 1.3125 34.5 C 4.234375 35.03125 8.265625 32.574219 10.5 31.75 C 11.832031 31.261719 11.566406 31.113281 10.25 30.75 C 7.53125 29.996094 2.503906 31.039063 0.25 32.9375 Z M 23 32.4375 C 22.75 32.375 22.1875 32.3125 22.6875 31.8125 C 23.1875 31.3125 22.75 30.9375 22.4375 30.6875 C 22.125 30.4375 21.5625 30 21.5625 30 C 21.5625 30 15.964844 31.445313 12.75 32.875 C 11.625 33.375 11.875 33.9375 12.3125 34.4375 C 12.75 34.9375 13.6875 35.0625 13.875 35 C 14.0625 34.9375 15.0625 34.875 15.625 35.1875 C 16.34375 35.589844 16.78125 35.703125 17.3125 35.4375 C 17.6875 35.25 22.375 33.25 23 32.9375 C 23.375 32.75 23.25 32.5 23 32.4375 Z M 34.875 32.125 C 34.1875 31.875 34 31.375 34.375 30.8125 C 34.921875 29.988281 34.375 29.8125 33.5625 29.375 C 32.132813 28.605469 29.972656 29.65625 28 30.25 C 27.375 30.4375 27.125 30.6875 27.1875 31.125 C 27.25 31.5625 27.0625 31.875 26.125 32 C 25.476563 32.085938 24.875 32.8125 25.0625 33.5 C 25.25 34.1875 24.8125 34.75 24.875 35.375 C 24.9375 36 25.613281 36.476563 26.75 36.1875 C 30.25 35.300781 34.351563 33.320313 35.3125 32.9375 C 35.9375 32.6875 35.5625 32.375 34.875 32.125 Z M 50.1875 28.6875 C 49.875 28.4375 49.125 27.9375 47.9375 28.125 C 46.765625 28.308594 39.886719 30.855469 39.125 31.0625 C 38.4375 31.25 38.5 31.625 38.6875 32.125 C 38.804688 32.441406 39.53125 34.070313 39.375 34.6875 C 39.25 35.1875 39.5625 35.375 39.9375 35.5625 C 41.371094 36.28125 46.585938 35.089844 47.0625 33.1875 C 47.1875 32.6875 48.125 32.125 48.8125 31.8125 C 49.5 31.5 49.3125 31.1875 49.1875 30.8125 C 49.0625 30.4375 49.25 30 49.9375 29.6875 C 50.625 29.375 50.5 28.9375 50.1875 28.6875 Z M 62.75 28.375 C 62.25 28 61.75 27.875 61.25 27.9375 C 60.75 28 54.761719 29.84375 53.4375 30.25 C 51.613281 30.8125 50.65625 31.9375 51 32.625 C 51.1875 33 51.6875 33.6875 51.625 34 C 51.5625 34.3125 51.4375 35.1875 51.6875 35.5 C 51.9375 35.8125 53 35.6875 53.4375 35.5 C 53.875 35.3125 59.214844 33.773438 60.125 33.5 C 60.75 33.3125 61.0625 33.1875 60.8125 32.3125 C 60.5625 31.4375 60.839844 30.679688 62.5625 29.875 C 63.125 29.613281 63.460938 28.90625 62.75 28.375 Z M 279.113281 36.042969 C 292.441406 34.148438 308.644531 31.851563 319.5625 30.8125 C 320.875 30.6875 321.25 31.125 321.4375 31.6875 C 321.742188 32.609375 322.972656 32.722656 323.8125 32.625 C 326.5 32.3125 341.0625 30.875 344.3125 30.8125 C 345.507813 30.789063 346.6875 30.875 347 31.1875 C 347.3125 31.5 347.875 31.742188 348.625 31.6875 C 351.1875 31.5 384 28.875 385 28.8125 C 392.992188 28.3125 404.925781 27.492188 414.75 27.375 C 420.269531 27.308594 424.460938 27.378906 425.4375 26.5625 C 425.8125 26.25 426.0625 25.835938 426.5 25.875 C 427.183594 25.9375 427.730469 26.085938 429.378906 25.992188 C 441.230469 25.328125 445.300781 25.125 456.875 25.125 C 461.289063 25.125 482.578125 25.070313 487 25.5625 C 488.125 25.6875 488.4375 25.8125 489 25.5 C 489.5625 25.1875 495.5 25.4375 500.0625 25.8125 C 504.625 26.1875 505.375 26.0625 505.6875 25.5625 C 506 25.0625 506.3125 24.9375 507.3125 25 C 514.605469 25.457031 526.820313 25.90625 534.5625 27 C 535.953125 27.195313 536.472656 27.226563 537 26.9375 C 539.527344 25.554688 553.1875 18.9375 556.125 17.875 C 557.128906 17.511719 557.191406 17.292969 555.9375 17.125 C 550.175781 16.359375 525.574219 16.410156 524.25 15.75 C 523.625 15.4375 523.125 15.3125 522 15.3125 C 520.875 15.3125 512.375 15.375 510.25 15.4375 C 508.125 15.5 507.0625 15.375 506.375 14.75 C 505.6875 14.125 504.6875 13.8125 503.4375 13.875 C 502.1875 13.9375 499.0625 14.1875 498.1875 13.5 C 497.527344 12.980469 496.5625 13.1875 495.125 12.875 C 493.6875 12.5625 475.5625 13.5 473.8125 13.4375 C 472.0625 13.375 449.8125 13.875 446.8125 14.1875 C 443.8125 14.5 419.8125 15.8125 418.9375 15.9375 C 418.0625 16.0625 416.875 16.375 415.4375 15.75 C 414 15.125 404.3125 15.9375 403.25 16.125 C 402.1875 16.3125 399.0625 16.4375 397.875 16.1875 C 396.6875 15.9375 366.4375 18.375 364.9375 18.625 C 363.4375 18.875 339.3125 20.75 337.8125 21 C 336.3125 21.25 333.6875 21.375 333.25 21.6875 C 332.8125 22 328.625 22.3125 327 22.5625 C 325.375 22.8125 326.0625 23.375 326.3125 23.625 C 326.5625 23.875 326.3125 24.0625 326 24.125 C 325.6875 24.1875 321.25 24.625 319.875 24.8125 C 318.5 25 302.625 27.125 300.875 27.3125 C 299.125 27.5 298.5625 27.25 298.25 26.9375 C 297.9375 26.625 297.375 25.8125 295.25 26 C 293.125 26.1875 268.5 29.3125 265.75 29.625 C 263 29.9375 244.125 32.8125 241.375 33.3125 C 238.625 33.8125 238.625 33.5 241.1875 32.6875 C 245.246094 31.402344 269.058594 27.160156 274.25 26.1875 C 276.25 25.8125 296.4375 22.25 298.6875 21.75 C 300.9375 21.25 323.8125 17.75 325.375 17.5 C 326.9375 17.25 348.0625 13.6875 350.9375 13.4375 C 353.8125 13.1875 354 12.8125 354.375 12.25 C 354.75 11.6875 355.625 11.566406 356.1875 11.4375 C 358.375 10.9375 375.535156 8.710938 378.992188 8.257813 C 384.660156 7.519531 391.503906 6.59375 391.8125 6.4375 C 392.3125 6.1875 394.621094 5.894531 396.1875 5.75 C 397.5625 5.625 397.992188 5.363281 398.3125 4.9375 C 398.5 4.6875 398.9375 4.625 399.25 4.5625 C 399.5625 4.5 402.0625 4.5 402.9375 4.375 C 404.804688 4.109375 404.632813 2.285156 403.125 2.4375 C 402.5 2.5 401.0625 2.5 399.8125 2.5625 C 398.5625 2.625 396.464844 3.417969 395.4375 1.6875 C 394.65625 0.375 391.75 0.375 390.5625 0.5625 C 389.375 0.75 388.105469 1.28125 386.75 0.75 C 386.488281 0.648438 385.238281 0.648438 383.875 0.753906 C 380.300781 1.023438 342.125 5.3125 340.9375 5.4375 C 339.75 5.5625 339.125 5.75 338.4375 4.875 C 338.003906 4.324219 335.410156 4.367188 334.6875 4.6875 C 334.125 4.9375 333.5 4.75 332.875 4.5625 C 332.679688 4.503906 331.980469 4.523438 330.304688 4.722656 C 325.4375 5.304688 292.625 9.6875 291.0625 9.8125 C 289.316406 9.953125 288.976563 9.757813 287.9375 8.8125 C 287.296875 8.226563 286.3125 8.1875 284.5625 8.375 C 283.160156 8.527344 260.265625 12.089844 250.425781 13.675781 C 247.984375 14.070313 216.609375 18.691406 211.363281 19.621094 C 206.578125 20.472656 187.8125 23.6875 185.0625 24.4375 C 182.851563 25.039063 182.5 24.5625 184.875 23.8125 C 186.347656 23.347656 210.5 17.875 212.1875 17.625 C 213.230469 17.46875 214.058594 16.84375 212.75 16.1875 C 212.25 15.9375 212 15.6875 212.625 15.625 C 213.132813 15.574219 214.316406 15.273438 215.097656 15.078125 C 215.992188 14.851563 216.324219 14.261719 214.125 13.4375 C 213.125 13.0625 209.1875 14.25 208.4375 14.5 C 207.6875 14.75 207.25 14.875 207.25 14.3125 C 207.25 14.0625 206.859375 13.609375 204.875 12.4375 C 204.34375 12.121094 203.625 11.621094 202.183594 11.777344 C 197.882813 12.25 183.960938 15.914063 182.242188 16.269531 C 180.59375 16.605469 179.160156 16.8125 178.625 16.5625 C 177.675781 16.121094 176.996094 16.34375 173.789063 17.160156 C 169.808594 18.171875 162.261719 20.199219 158.75 20.6875 C 157.203125 20.902344 139.875 25.0625 139.125 25.375 C 138.375 25.6875 138.375 25.3125 138.5625 25 C 138.75 24.6875 138.5 24.625 138.125 24.8125 C 137.75 25 132.8125 26.375 131.4375 26.5 C 130.0625 26.625 129.9375 26.3125 131.0625 25.6875 C 132.1875 25.0625 143.5 21.9375 143.75 21.75 C 144 21.5625 144.5 21.4375 145.375 21.3125 C 146.25 21.1875 146.5625 20.375 145.25 19.8125 C 143.9375 19.25 138.375 20.9375 137.0625 21.375 C 135.75 21.8125 134.875 21.875 134 21.6875 C 133.125 21.5 131.9375 21.5 131.5 21.6875 C 131.0625 21.875 125.625 23.4375 124.875 23.6875 C 124.125 23.9375 123.25 24.25 122.5625 23.5 C 121.875 22.75 120 22.875 119.3125 23.0625 C 118.625 23.25 117.375 23.5625 116.625 23.8125 C 115.875 24.0625 114.625 24.1875 113.6875 23.5625 C 112.75 22.9375 111.5 23.0625 109.25 23.75 C 107 24.4375 94.875 27.75 91.875 28.4375 C 90.824219 28.679688 90.5 28.4375 91.625 27.875 C 92.175781 27.597656 94.460938 26.910156 95.125 26.6875 C 95.789063 26.464844 95.816406 26.179688 95.5 26 C 95.183594 25.820313 94.5625 25.75 94 25.6875 C 93.4375 25.625 84.25 28.0625 83.125 28.4375 C 82 28.8125 81.625 28.8125 80.875 28.5 C 80.125 28.1875 77.625 27.875 77 28.0625 C 76.375 28.25 75.375 28.375 74.5625 28.25 C 73.75 28.125 66.664063 30.441406 65.75 30.8125 C 64.566406 31.292969 63.890625 31.683594 65.5 33.1875 C 66.4375 34.0625 68.1875 33.375 68.875 33.0625 C 69.5625 32.75 72.0625 32 72.9375 31.8125 C 73.8125 31.625 74 32 73.1875 32.1875 C 72.816406 32.273438 71.375 32.6875 70.9375 33.0625 C 70.5 33.4375 68.8125 33.9375 67.25 34.25 C 65.6875 34.5625 65.3125 34.8125 65.8125 35.5 C 66.09375 35.886719 66.75 35.9375 68.0625 35.4375 C 70.003906 34.699219 70.6875 35.125 71.5625 35.5625 C 72.4375 36 74.3125 36.1875 76.6875 35.3125 C 79.0625 34.4375 80.25 34.5625 81 34.8125 C 81.75 35.0625 83.3125 34.625 84.9375 34 C 86.5625 33.375 98.125 30.0625 99.8125 29.9375 C 101.085938 29.84375 101.175781 30.695313 100.3125 30.9375 C 98.75 31.375 92.375 32.625 87.8125 34.9375 C 87.015625 35.34375 87.125 35.9375 87.5 36.125 C 87.894531 36.324219 87.75 36.75 87.375 36.8125 C 87 36.875 86.78125 37.046875 87.0625 37.5 C 87.6875 38.5 89.375 38.75 89.75 38.5625 C 90.125 38.375 93.375 37.25 94.4375 37.1875 C 95.5 37.125 98.125 35.875 98.625 35.6875 C 99.125 35.5 100.0625 35.9375 100.3125 36.25 C 100.5625 36.5625 101.375 36.5 102.0625 36.25 C 102.75 36 111.5625 33.5625 112 33.4375 C 112.4375 33.3125 114.03125 33.703125 114.6875 33.5 C 115.5 33.25 117.125 32.574219 118.8125 32.375 C 119.875 32.25 119.9375 32.6875 119.0625 33 C 118.613281 33.160156 115.25 34.25 113.4375 34.75 C 112.121094 35.113281 112.339844 35.28125 113.3125 36.0625 C 113.625 36.3125 114.125 36.375 115.1875 36.0625 C 116.25 35.75 120.25 34.5625 121 34.5 C 121.75 34.4375 121.875 35 121.5625 35.0625 C 121.25 35.125 120.25 35.5 119.375 35.75 C 117.636719 36.246094 117.703125 36.59375 119.0625 37.1875 C 119.835938 37.527344 120.289063 37.347656 121.25 37 C 121.9375 36.75 122.5 36.75 123 37.375 C 123.5 38 124 38.25 124.5625 38.1875 C 125.125 38.125 125.75 38.0625 126.5 38.6875 C 127.25 39.3125 127.9375 39.125 128.875 38.8125 C 129.8125 38.5 137.570313 36.015625 138.9375 35.75 C 139.792969 35.582031 140.0625 35.9375 139.4375 36.25 C 138.964844 36.488281 139.125 36.75 139.75 36.6875 C 140.375 36.625 140.0625 36.625 141.75 36.875 C 143.4375 37.125 143.8125 36.9375 144.8125 36.375 C 145.769531 35.835938 146.945313 35.84375 148.5625 36.625 C 150.5 37.5625 154.410156 36.21875 155.5625 35.875 C 156.8125 35.5 157.375 35.25 159.25 35.75 C 161.125 36.25 164.5 35.625 165.125 35.1875 C 165.75 34.75 166 35 165.75 35.5625 C 165.5 36.125 166 37.1875 167.625 37.375 C 168.710938 37.5 170.4375 37.3125 172.25 36.5625 C 174.0625 35.8125 189.0625 33.625 190.9375 33.3125 C 193.371094 32.90625 212.164063 29.019531 212.625 29.0625 C 213.3125 29.125 213.730469 28.933594 214.125 28.5625 C 214.671875 28.046875 221.621094 27.054688 227.128906 26.214844 C 236.933594 24.722656 266.125 20.4375 268.25 20.1875 C 270.375 19.9375 270.3125 19.0625 270.25 18.8125 C 270.210938 18.65625 270.246094 18.320313 271.5 18 C 272.859375 17.652344 286.1875 16.125 288.1875 16 C 290.1875 15.875 290.875 15.6875 291.1875 15.1875 C 291.332031 14.957031 293.632813 14.574219 296.378906 14.203125 C 299.539063 13.773438 334.175781 9.5625 337.3125 9.3125 C 338.875 9.1875 339.546875 9.507813 337.5625 10.0625 C 334.433594 10.9375 287.5 18.125 286.5625 18.25 C 285.625 18.375 285.0625 18.625 284.375 19.125 C 283.6875 19.625 275.222656 21.207031 274.3125 20.75 C 273.5625 20.375 267.6875 21.625 266 21.9375 C 264.3125 22.25 236.453125 26.917969 235.6875 27.1875 C 234.4375 27.625 232.5 28.066406 231.75 27.875 C 230.855469 27.644531 209.539063 31.78125 202.105469 33.289063 C 195.597656 34.609375 167.625 40.125 163.5 41.25 C 162.023438 41.652344 162.5 42.0625 163.875 43.25 C 165.25 44.4375 165.375 43.988281 166.0625 43.6875 C 166.695313 43.410156 169 42.9375 169.6875 42.75 C 170.375 42.5625 170.0625 43 170.0625 43.25 C 170.0625 43.765625 170.480469 44.253906 171.25 44.375 C 172.515625 44.574219 173.355469 44.574219 175.25 44.0625 C 176.582031 43.703125 186.667969 41.6875 189.9375 41.132813 C 191.085938 40.9375 191.460938 40.976563 191.125 41.5 C 190.894531 41.863281 192.0625 42.25 192.75 42.375 C 193.4375 42.5 193.5 42.875 192.875 43 C 192.25 43.125 179.9375 46.367188 176.625 47.0625 C 175.15625 47.371094 174.457031 47.539063 176.3125 49.125 C 177.171875 49.855469 177.515625 50.164063 179.1875 49.5625 C 180.066406 49.246094 180.359375 49.222656 180.8125 49.75 C 181.5625 50.625 182.585938 51.144531 183.75 50.5625 C 184.25 50.3125 194.8125 47.875 195.5 47.75 C 196.1875 47.625 196.5625 47.875 196.9375 48.0625 C 197.3125 48.25 198.878906 48.195313 199.6875 47.9375 C 201.90625 47.238281 213.277344 45.234375 226.289063 43.167969 C 241.089844 40.816406 288.925781 34.648438 279.113281 36.042969 "/>
</g>
</svg>
