<?xml version="1.0" encoding="UTF-8"?>
<svg xmlns="http://www.w3.org/2000/svg" xmlns:xlink="http://www.w3.org/1999/xlink" width="550pt" height="158pt" viewBox="0 0 550 158" version="1.1">
<g id="surface1">
<path style=" stroke:none;fill-rule:nonzero;fill:rgb(0%,0%,0%);fill-opacity:1;" d="M 346.304688 41.730469 C 354.351563 41.933594 356.160156 42.785156 346.722656 42.785156 C 339.230469 42.785156 266.242188 45.265625 256.949219 45.519531 C 205.554688 46.929688 123.15625 54.902344 75.324219 67.300781 C 72.148438 68.125 72.144531 68.269531 71.382813 66.117188 C 70.621094 63.96875 68.894531 61.769531 71.253906 57.46875 C 74.980469 50.667969 118.472656 44.519531 144.773438 42.527344 C 175.984375 40.164063 210.539063 39.640625 237.523438 39.492188 C 245.15625 39.449219 346.304688 41.730469 346.304688 41.730469 Z M 441.300781 69.535156 C 441.300781 69.535156 439.335938 69.496094 435.800781 69.4375 C 362.152344 68.199219 353.761719 66.566406 275.230469 69.484375 C 227.875 71.242188 108.910156 78.007813 64.308594 96.316406 C 58.441406 98.722656 54.183594 101.21875 54.765625 103.214844 C 56.0625 107.652344 60.671875 110.398438 62.414063 111.371094 C 64.15625 112.339844 64.316406 112.199219 67.621094 110.734375 C 80.410156 105.070313 96.800781 100.78125 114.886719 97.445313 C 128.667969 108.523438 135.992188 130.4375 105.1875 142.515625 C 75.941406 153.984375 20.65625 137.0625 5.210938 112.683594 C 0.460938 105.183594 -0.75 105.363281 2.621094 112.28125 C 14.183594 136.007813 48.777344 156.171875 91.097656 155.867188 C 115.0625 155.691406 135.246094 141.347656 138.386719 128.074219 C 141.363281 115.480469 135.03125 102.492188 126.683594 95.429688 C 166.136719 89.214844 211.375 86.847656 244.796875 84.484375 C 258.226563 83.535156 273.636719 82.464844 288.070313 81.46875 C 315.0625 92.46875 331.664063 122.308594 306.691406 139.566406 C 294.210938 148.191406 275.53125 150.519531 256.144531 147.023438 C 223.652344 141.164063 200.003906 121.46875 186.886719 105.890625 C 179.714844 97.371094 175.828125 96.613281 181.933594 106.234375 C 201.8125 137.558594 237.460938 159.085938 278.875 157.699219 C 330.753906 155.957031 345.148438 118.246094 320.539063 94.292969 C 317.300781 91.140625 309.304688 84.992188 299.367188 80.691406 C 320.011719 79.277344 336.617188 78.152344 339 78 C 345.519531 77.582031 436.074219 72.742188 441.855469 72.496094 C 466.507813 71.445313 469.652344 70.703125 441.300781 69.535156 Z M 212.148438 34.523438 C 211.871094 36.601563 211.609375 36.632813 214.074219 36.527344 C 233.164063 35.726563 278.699219 35.722656 298.15625 35.824219 C 306.761719 35.871094 397.777344 37.347656 400.832031 37.390625 C 406.273438 37.472656 406.269531 37.023438 400.835938 36.660156 C 400.835938 36.660156 294.132813 30.953125 278.871094 30.167969 C 259.242188 29.15625 229.75 27.460938 219.355469 29.535156 C 215.191406 30.371094 212.425781 32.441406 212.148438 34.523438 Z M 71.800781 47.59375 C 80.8125 40.257813 92.023438 32.8125 104.746094 26.875 C 128.527344 15.78125 151.835938 12.296875 167.871094 11.703125 C 168.644531 11.675781 175.300781 11.574219 175.921875 11.5 C 183 10.652344 203.457031 7.070313 210.4375 5.117188 C 215.335938 3.742188 215.738281 3.757813 210.054688 3.394531 C 205.203125 3.089844 174.761719 0.84375 173.421875 0.871094 C 172.078125 0.902344 170.835938 0.917969 168.800781 1.109375 C 139.289063 3.90625 95.582031 21.863281 70.601563 46.902344 C 64.234375 53.28125 62.96875 54.78125 71.800781 47.59375 Z M 257.96875 119.1875 C 242.390625 119.558594 228.546875 113.644531 220.25 107.585938 C 215.886719 104.398438 214.71875 104.1875 218.417969 108.257813 C 224.929688 115.417969 253.277344 130.457031 273.878906 122.089844 C 287.84375 116.414063 286.640625 104.386719 282.242188 99.414063 C 280.359375 97.28125 280.144531 97.34375 280.566406 99.136719 C 282.371094 106.808594 279.820313 118.667969 257.96875 119.1875 Z M 547.351563 49.203125 C 483.433594 47.863281 381.632813 47.453125 332.335938 48.304688 C 288.257813 49.0625 227.75 52.035156 174.402344 57.488281 C 139.839844 61.023438 56.027344 73.0625 33.167969 87.300781 C 29.234375 89.75 26.457031 92.582031 27.363281 95.304688 C 28.660156 99.191406 33.359375 101.097656 35.496094 101.714844 C 37.636719 102.332031 37.941406 101.507813 38.917969 100.441406 C 50.246094 88.078125 105.066406 77.042969 124.898438 73.960938 C 183.898438 64.800781 254.667969 63.164063 306.808594 60.105469 C 314.066406 59.679688 469.515625 54.015625 477.078125 53.726563 C 504.601563 52.667969 518.121094 51.464844 547.492188 50.246094 C 554.773438 49.941406 539.367188 49.035156 547.351563 49.203125 Z M 90.167969 112.332031 C 91.957031 106.957031 89.050781 106.839844 87.421875 110.726563 C 82.273438 123.015625 51.921875 123.984375 38.191406 113.085938 C 33.886719 109.671875 30.585938 109.90625 35.582031 113.605469 C 57.984375 130.199219 85.398438 126.632813 90.167969 112.332031 "/>
</g>
</svg>
