<?xml version="1.0" encoding="UTF-8"?>
<svg xmlns="http://www.w3.org/2000/svg" xmlns:xlink="http://www.w3.org/1999/xlink" width="469pt" height="176pt" viewBox="0 0 469 176" version="1.1">
<g id="surface1">
<path style=" stroke:none;fill-rule:nonzero;fill:rgb(13.729858%,12.159729%,12.548828%);fill-opacity:1;" d="M 108.3125 31.261719 C 184.53125 44.152344 200.082031 16.164063 229.164063 26.609375 C 233.3125 25.472656 239.847656 22.699219 244.414063 20.871094 C 197.429688 -2.71875 167.800781 34.300781 108.34375 30.796875 C 107.542969 30.75 107.519531 31.128906 108.3125 31.261719 "/>
<path style=" stroke:none;fill-rule:nonzero;fill:rgb(13.729858%,12.159729%,12.548828%);fill-opacity:1;" d="M 467.421875 6.78125 C 404.371094 33.839844 363.480469 3.84375 325.007813 0.640625 C 283.433594 -4.191406 246.085938 27.34375 206.328125 32.546875 C 205.207031 32.691406 205.222656 32.972656 206.347656 33.074219 C 234.023438 35.589844 302.058594 11.800781 325.976563 13.1875 C 344.363281 14.421875 348.957031 25.902344 334.953125 35.167969 C 311.84375 49.902344 275.910156 39.996094 253.339844 27.160156 C 247.085938 28.546875 235.6875 30.839844 233.550781 31.195313 C 241.765625 41.128906 224.902344 54.015625 214.179688 57.382813 C 188.316406 65.507813 168.320313 50.152344 141.796875 51.480469 C 108.632813 52.859375 80.699219 70.121094 29.1875 67.6875 C 28.441406 67.652344 28.367188 67.9375 29.078125 68.113281 C 97.6875 85.328125 113.671875 57.265625 146.164063 63.644531 C 156.804688 65.886719 168.359375 73.683594 149.984375 80.527344 C 102.980469 96.128906 63.453125 68.230469 2.148438 92.425781 C 1.113281 92.835938 1.226563 93.234375 2.316406 93.019531 C 60.449219 81.566406 92.699219 101.953125 150.5625 94.28125 C 165.851563 91.882813 184.335938 84.980469 197.546875 76.832031 C 191.042969 75.128906 177.425781 69.65625 167.730469 71.449219 C 178.816406 67.269531 192.425781 69.367188 204.324219 71.632813 C 227.617188 65.277344 263.773438 47.3125 288.730469 51.152344 C 304.613281 53.863281 309.003906 71.804688 292.964844 76.902344 C 250.667969 91.664063 201.648438 63.992188 172.03125 70.425781 C 171.328125 70.585938 171.3125 70.796875 172.0625 70.785156 C 189.105469 69.808594 241.078125 97.433594 287.320313 90.605469 C 314.667969 85.84375 323.765625 68.144531 341.183594 55.308594 C 355.609375 45.203125 372.472656 36.46875 389.59375 36.824219 C 430.359375 38.269531 416.710938 92.542969 382.476563 97.9375 C 369.296875 99.546875 356.152344 94.492188 336.96875 92.695313 C 299.304688 89.464844 261.574219 118.5 222.15625 107.394531 C 221.339844 107.164063 221.234375 107.472656 221.992188 107.855469 C 260.878906 127.605469 291.824219 105.105469 325.46875 107.664063 C 348.21875 110.28125 349.53125 126.90625 329.785156 132.003906 C 284.398438 142.605469 255.09375 122.585938 228.050781 120.945313 C 195.625 115.339844 163.199219 139.464844 117.578125 126.234375 C 116.507813 125.921875 116.421875 126.210938 117.445313 126.667969 C 165.371094 148.128906 191.824219 129.640625 220.347656 131.386719 C 242.398438 133.289063 241.132813 151.832031 221.8125 151.550781 C 172.964844 150.59375 123.15625 128.203125 66.90625 145.140625 C 65.523438 145.554688 65.570313 145.898438 67.003906 145.664063 C 111.679688 138.355469 168.835938 160.390625 218.628906 165.195313 C 255.996094 167.644531 279.613281 158.113281 285.011719 155.59375 C 278.929688 151.183594 262.507813 143.289063 239.09375 141.574219 C 268.5 142.804688 277.835938 143.746094 298.128906 150.496094 C 319.191406 141.648438 358.570313 130.589844 374.660156 135.953125 C 386.128906 139.964844 384.449219 149.820313 374.046875 156.632813 C 358.34375 165.195313 336.320313 163.902344 302.625 152.742188 C 281.816406 145.03125 268.535156 143.753906 255.375 142.925781 C 253.988281 142.839844 253.972656 143.121094 255.316406 143.382813 C 266.988281 145.625 276.695313 149.605469 287.578125 156.414063 C 313.683594 172.570313 337.691406 177.800781 366.539063 175.4375 C 419.195313 171.121094 417.570313 48.019531 467.703125 7.285156 C 468.300781 6.800781 468.117188 6.484375 467.421875 6.78125 "/>
</g>
</svg>
