<?xml version="1.0" encoding="UTF-8"?>
<svg xmlns="http://www.w3.org/2000/svg" xmlns:xlink="http://www.w3.org/1999/xlink" width="542pt" height="47pt" viewBox="0 0 542 47" version="1.1">
<g id="surface1">
<path style=" stroke:none;fill-rule:nonzero;fill:rgb(0%,0%,0%);fill-opacity:1;" d="M 539.886719 31.546875 C 542.632813 40.300781 515.027344 43.582031 494.203125 45.378906 C 483.929688 46.265625 473.914063 47.507813 465.8125 44.226563 C 465.300781 41.125 470.601563 39.269531 464.386719 35.8125 C 442.171875 23.457031 353.816406 33.113281 355.390625 32.960938 C 351.582031 33.34375 280.113281 40.019531 289.339844 35.5625 C 294.125 33.242188 357.050781 20.5 318.261719 19.464844 C 274.035156 18.28125 175.054688 29.011719 87.117188 24.972656 C 77.125 24.511719 77.863281 23.894531 87.515625 23.996094 C 167.425781 27.808594 295.683594 16.335938 325.941406 16.070313 C 370.78125 15.675781 336.234375 25.863281 322.824219 29.523438 C 306.894531 33.875 374.3125 26.484375 397.621094 23.855469 C 423.886719 20.898438 533.453125 11.058594 539.886719 31.546875 Z M 350.097656 18.699219 C 350.128906 18.933594 350.144531 19.175781 350.128906 19.421875 C 349.992188 21.257813 347.996094 23.464844 337.742188 27.015625 C 336.96875 27.285156 336.976563 27.644531 337.832031 27.542969 C 355.382813 25.484375 373.769531 23.679688 390.203125 22.753906 C 392.558594 22.492188 394.960938 22.226563 397.40625 21.949219 C 401.621094 21.476563 439.644531 17.300781 476.175781 16.988281 C 499.625 16.789063 516.664063 18.199219 527.546875 21.265625 C 536.8125 18.777344 542.558594 15.730469 541.3125 11.761719 C 534.882813 -8.730469 419.621094 2.632813 390.753906 6.289063 C 377.757813 7.9375 351.804688 11.238281 331.152344 13.609375 C 329.53125 13.792969 329.707031 14.136719 331.1875 14.15625 C 347.984375 14.351563 349.777344 16.410156 350.097656 18.699219 Z M 105.269531 22.667969 C 159.449219 23.785156 228.847656 19.570313 276.398438 16.683594 C 286.898438 16.046875 296.371094 15.472656 304.417969 15.03125 C 316.671875 11.589844 340.949219 3.722656 290.976563 6.03125 C 266.210938 7.171875 184.347656 16.226563 105.4375 21.472656 C 101.144531 21.757813 100.941406 22.578125 105.269531 22.667969 Z M 326.929688 22.554688 C 327.214844 22.425781 327.164063 22.074219 326.832031 22.019531 C 325.222656 21.757813 322.578125 21.5 318.210938 21.382813 C 301.089844 20.925781 275.472656 22.273438 245.804688 23.835938 C 199.054688 26.300781 140.867188 29.363281 87.027344 26.890625 C 84.671875 26.78125 82.816406 26.660156 81.515625 26.53125 C 79.9375 26.375 77.96875 26.179688 78.023438 24.234375 C 78.039063 23.773438 78.136719 23.410156 78.34375 23.121094 C 54.179688 24.4375 30.976563 25.25 10.558594 25.203125 C -0.714844 25.535156 -1.613281 26.195313 6.734375 27.097656 C 80.226563 35.007813 167.867188 27.3125 208.914063 29.34375 C 244.917969 31.128906 180.726563 44.210938 175.941406 46.53125 C 166.714844 50.988281 258.652344 38.828125 264.214844 37.976563 C 263.992188 37.964844 273.320313 36.386719 287.828125 34.226563 C 288.023438 34.09375 288.238281 33.960938 288.503906 33.835938 C 289.757813 33.226563 293.328125 32.292969 300.0625 30.558594 C 306.875 28.804688 321.34375 25.078125 326.929688 22.554688 "/>
</g>
</svg>
