<?xml version="1.0" encoding="UTF-8"?>
<svg xmlns="http://www.w3.org/2000/svg" xmlns:xlink="http://www.w3.org/1999/xlink" width="512pt" height="45pt" viewBox="0 0 512 45" version="1.1">
<g id="surface1">
<path style=" stroke:none;fill-rule:nonzero;fill:rgb(0%,0%,0%);fill-opacity:1;" d="M 351.550781 31.796875 C 318.007813 14.296875 290.089844 30.574219 260.960938 26.90625 C 250.300781 24.683594 249.792969 18.355469 260.679688 16.132813 C 289.21875 12.292969 298.902344 28.492188 340.378906 13.808594 C 343.164063 12.667969 342.835938 12.050781 340.398438 12.738281 C 307.210938 19.234375 277.457031 6.417969 256.140625 8.765625 C 240.128906 9.042969 201.128906 19.3125 184.691406 19.535156 C 170.53125 20.402344 171.285156 9.011719 182.910156 8.160156 C 190.769531 7.308594 223.515625 13.261719 257.265625 4.890625 C 259.664063 4.023438 259.335938 3.5 257.117188 3.890625 C 221.277344 8.882813 202.386719 -4.976563 173.0625 2.886719 C 162.175781 6.4375 153 12.167969 143.808594 13.054688 C 105.578125 17.515625 94.03125 3.441406 73.578125 3.75 C 46.269531 5.875 43.210938 18.460938 1.679688 12.046875 C 0.667969 11.175781 -0.332031 11.667969 1.203125 13.03125 C 17.683594 21.753906 43.164063 19.230469 68.222656 11.738281 C 81.695313 7.933594 88.96875 18.730469 124.003906 18.46875 C 126.375 18.375 127 18.753906 124.664063 19.085938 C 102.167969 23.21875 82.414063 19.039063 74.957031 17.484375 C 64 14.667969 61.332031 28.332031 75.449219 26.351563 C 84.152344 24.628906 103.1875 21.625 125.515625 26.464844 C 127.625 26.875 127.9375 27.5 125.304688 27.25 C 99.085938 26.40625 79.839844 36.566406 67.238281 33.414063 C 42.167969 25.0625 17.5 23.058594 2.882813 32.933594 C 1.332031 33.914063 1.5 34.5 2.816406 34.125 C 43.359375 26.675781 46.1875 38.273438 72.425781 41.933594 C 97.835938 42.242188 104.878906 25.890625 143.589844 34.152344 C 150.667969 35.695313 158.605469 37.394531 173.351563 42.214844 C 200.605469 49.644531 221.980469 33.941406 259.273438 41.289063 C 261.664063 42 262 41.144531 259.628906 40.414063 C 226.34375 28.980469 193.585938 37.5 184.976563 37.113281 C 171.648438 36.542969 170.921875 26.621094 184.691406 26.621094 C 200.6875 26.621094 228.050781 28.671875 256.710938 35.695313 C 283.507813 39.835938 308.960938 19.871094 351.164063 32.710938 C 353.25 34 354 33.332031 351.550781 31.796875 "/>
<path style=" stroke:none;fill-rule:nonzero;fill:rgb(0%,0%,0%);fill-opacity:1;" d="M 508.734375 26.023438 C 475.433594 18.789063 446.085938 25.457031 428.851563 26.042969 C 418.75 26.332031 417.175781 17.4375 429.160156 15.59375 C 447.324219 13.542969 460.742188 24.410156 496.378906 17.386719 C 499.5 17.117188 499.164063 16.167969 496.164063 16.410156 C 457.417969 17.761719 456.617188 8.191406 427.570313 9.976563 C 402.40625 12.753906 388.15625 19.269531 357.164063 19.167969 C 354.085938 19.25 355.25 20.582031 357.027344 20.480469 C 402.453125 22.683594 397.015625 30.097656 427.039063 32.894531 C 452.148438 33.023438 477.546875 24.0625 508.546875 27.175781 C 512.5 28.125 512.5 26.875 508.734375 26.023438 "/>
</g>
</svg>
