<?xml version="1.0" encoding="UTF-8"?>
<svg xmlns="http://www.w3.org/2000/svg" xmlns:xlink="http://www.w3.org/1999/xlink" width="517pt" height="37pt" viewBox="0 0 517 37" version="1.1">
<g id="surface1">
<path style=" stroke:none;fill-rule:nonzero;fill:rgb(0%,0%,0%);fill-opacity:1;" d="M 502.382813 0.570313 C 466.058594 0.566406 17.734375 0.582031 12.5625 0.582031 C -3.210938 0.691406 -3.355469 2.097656 12.375 2.0625 C 45.238281 2.101563 75.027344 3.238281 88.867188 11.550781 C 97.769531 16.902344 96.234375 23.183594 105.789063 28.484375 C 119.988281 36.359375 153.21875 39.289063 192.867188 34.382813 C 201.75 33.285156 212.484375 32.226563 221.136719 32.988281 C 223.089844 33.160156 223.757813 33.089844 225.199219 32.761719 C 230.511719 31.535156 245.046875 32.339844 251.816406 34.378906 C 253.628906 34.921875 257.742188 36.355469 255.285156 33.980469 C 249.9375 28.820313 222.007813 30.9375 198.519531 31.589844 C 190.367188 31.84375 186.160156 32.339844 180.203125 31.675781 C 178.71875 31.511719 178.058594 31.511719 176.878906 31.761719 C 159.730469 35.351563 144.808594 30.945313 148.894531 27.855469 C 153.183594 24.617188 175.464844 23.320313 185.105469 26.726563 C 186.269531 27.175781 186.515625 27.183594 187.820313 26.921875 C 198.976563 24.691406 210.792969 24.136719 245.203125 26.949219 C 273.3125 29.246094 290.097656 28.707031 315.179688 25.605469 C 333.121094 23.390625 343.226563 21.808594 356.402344 22.847656 C 360.421875 23.164063 360.210938 23.042969 364.800781 22.570313 C 380.285156 20.972656 403.628906 23.992188 414.863281 26.800781 C 420.6875 28.257813 420.941406 27.835938 416.824219 26.207031 C 407.761719 22.621094 382.433594 17.300781 338.460938 20.671875 C 327.699219 21.496094 306.59375 23.542969 298.195313 22.554688 C 294.867188 22.164063 293.320313 22.199219 291.796875 22.96875 C 285.035156 26.375 247.160156 22.820313 230.671875 21.136719 C 204.648438 18.480469 179.441406 18.261719 153.382813 20.523438 C 146.101563 21.152344 138.910156 21.652344 131.550781 21.210938 C 120.382813 20.546875 113.316406 16.128906 132.476563 14.359375 C 141.902344 13.492188 150.28125 14.878906 152.472656 15.886719 C 153.8125 16.503906 154.320313 16.734375 156.613281 16.28125 C 166.414063 14.347656 189.144531 14.75 212.621094 17.539063 C 259.609375 23.125 277.414063 20.785156 325.996094 16.371094 C 334.023438 15.871094 338.207031 16.53125 342.773438 17.148438 C 344.960938 17.445313 345.476563 17.40625 348.339844 16.714844 C 363.03125 13.15625 403.289063 14.34375 416.242188 17.121094 C 418.246094 17.550781 419.355469 17.78125 423.699219 17.953125 C 437.957031 18.507813 457.796875 21.84375 466.398438 26.113281 C 471.5 28.644531 473.472656 28.25 469.144531 25.59375 C 445.210938 10.902344 358.078125 9.875 297.890625 15.3125 C 282.375 16.382813 271.398438 16.730469 261.832031 14.738281 C 258.640625 14.089844 257.679688 14.523438 256.714844 15.0625 C 254.261719 16.429688 244.542969 16.867188 236.292969 16.367188 C 224.742188 15.671875 222.726563 13.421875 226.320313 11.835938 C 230.007813 10.210938 243.429688 9.269531 250.355469 12.207031 C 251.972656 12.890625 252.140625 12.660156 253.238281 12.164063 C 256.65625 10.625 269.113281 9.828125 284.925781 11.132813 C 310.457031 12.945313 341.511719 12.613281 362.222656 8.578125 C 369.828125 7.09375 368.316406 6.507813 359.644531 7.601563 C 347.847656 9.089844 339.101563 10.199219 331.273438 9.261719 C 328.859375 8.972656 328.179688 9.109375 327.078125 9.339844 C 316.996094 11.472656 301.824219 9.828125 287.800781 8.308594 C 253.96875 4.636719 229.265625 6.015625 190.804688 8.570313 C 161.835938 10.496094 141.613281 10.347656 130.609375 8.660156 C 128.957031 8.40625 126.878906 8.410156 124.84375 8.8125 C 111.039063 11.53125 94.671875 8.851563 97.855469 6.398438 C 102.179688 3.070313 131.203125 2.855469 142.203125 6.773438 C 144.34375 7.535156 145.15625 7.53125 146.574219 7.125 C 156.574219 4.25 193.707031 3.40625 230.742188 4.769531 C 246.214844 5.339844 275.601563 6.125 292.675781 7.105469 C 316.824219 8.496094 336.683594 8.058594 357.835938 6.847656 C 365.484375 6.414063 365.222656 5.644531 357.179688 5.90625 C 339.953125 6.757813 336.183594 7.167969 319.796875 5.464844 C 316.59375 5.132813 315.628906 5.074219 312.09375 5.4375 C 301.730469 6.5 257.59375 4.09375 225.574219 3.175781 C 200.976563 2.617188 173.28125 2.160156 149.734375 3.542969 C 147.933594 3.648438 146.082031 3.75 142.5 3.382813 C 129.925781 2.082031 104.984375 0.652344 88.753906 4.265625 C 87.167969 4.617188 86.71875 4.640625 85.019531 4.210938 C 80.882813 3.160156 75.4375 2.414063 70.308594 1.871094 C 68.136719 1.644531 68.300781 1.484375 70.546875 1.453125 C 93.582031 1.121094 119.929688 0.316406 142.074219 2.613281 C 146.269531 3.050781 147.5625 2.777344 150.019531 2.667969 C 188.992188 0.941406 262.777344 1.285156 298.050781 1.550781 C 309.148438 1.636719 320.410156 1.511719 325.410156 3.375 C 327.476563 4.144531 329.734375 4.027344 337.003906 3.378906 C 359.308594 1.398438 470.160156 1.390625 502.566406 1.285156 C 521.167969 1.226563 520.472656 0.570313 502.382813 0.570313 "/>
</g>
</svg>
