<?xml version="1.0" encoding="UTF-8"?>
<svg xmlns="http://www.w3.org/2000/svg" xmlns:xlink="http://www.w3.org/1999/xlink" width="519pt" height="137pt" viewBox="0 0 519 137" version="1.1">
<g id="surface1">
<path style=" stroke:none;fill-rule:nonzero;fill:rgb(0%,0%,0%);fill-opacity:1;" d="M 508.386719 111.644531 C 450.25 118.742188 299.382813 126.96875 177.605469 125.707031 C 104.320313 124.949219 48.570313 119.359375 24.464844 113.261719 C 13.988281 110.609375 15.5 106.824219 23.265625 101.109375 C 68.34375 67.941406 351.460938 31.152344 371.25 30.296875 C 382.8125 29.792969 386.226563 30.886719 378.25 31.464844 C 322.140625 35.550781 75.695313 83.414063 29.003906 105.53125 C 22.671875 108.53125 19.25 108.707031 30.25 110.371094 C 90.410156 119.488281 242.9375 98.042969 303.457031 76.894531 C 308.425781 75.15625 310.238281 75.160156 307.570313 72.492188 C 304.90625 69.824219 302.515625 64.839844 301.363281 62.003906 C 300.210938 59.171875 300.527344 58.640625 301.714844 60.421875 C 302.90625 62.210938 308.964844 69.757813 312.632813 71.757813 C 316.296875 73.757813 316.414063 74.613281 320.238281 73.808594 C 324.066406 73.007813 343.578125 68.667969 347.585938 67.40625 C 351.59375 66.144531 351.179688 65.953125 348.496094 63.394531 C 345.816406 60.835938 339.6875 56.5 336.9375 52 C 335.089844 48.976563 335.484375 48.777344 338.382813 50.632813 C 341.28125 52.488281 354.675781 59.296875 357.84375 60.566406 C 361.011719 61.835938 365.84375 63.304688 371.800781 62.128906 C 376.6875 61.167969 414.269531 47.707031 425.746094 37.253906 C 430.5 32.925781 431.308594 32.980469 426.1875 29.746094 C 371.128906 -5.011719 200.605469 28.710938 104.660156 50.109375 C 66.871094 58.539063 28.121094 78.007813 16.976563 90.527344 C 15.480469 92.207031 13.8125 93.875 12.179688 96.691406 C 11.113281 98.535156 11.429688 96.488281 11.441406 96.253906 C 11.652344 92.296875 12.734375 89.925781 13.414063 88.613281 C 39.648438 38.066406 284.839844 5.71875 305.253906 3.164063 C 319.601563 1.367188 311.335938 -0.566406 304.269531 0.375 C 232.878906 9.894531 126.945313 26.371094 57.9375 49.375 C 30.679688 58.460938 4.175781 73.125 0.160156 98.417969 C -1.457031 108.574219 0.640625 112.832031 3.589844 115.089844 C 5.910156 116.867188 15.476563 121.074219 20.613281 122.84375 C 71.757813 140.449219 214.453125 139.964844 349.605469 131.375 C 419.804688 126.914063 481.769531 121.101563 513.070313 112.707031 C 526.738281 109.039063 511.183594 111.300781 508.386719 111.644531 Z M 424.265625 35.628906 C 413.335938 45.582031 376.5625 58.949219 371.375 59.972656 C 365.910156 61.046875 361.503906 59.660156 358.664063 58.523438 C 352.894531 56.210938 340.359375 50.214844 335.910156 46.601563 C 335.933594 46.621094 331.230469 42.230469 333.0625 48.25 C 334.234375 52.105469 338.300781 58.269531 346.015625 64.050781 C 347.359375 65.054688 346.96875 65.320313 345.433594 65.730469 C 339.566406 67.300781 323.5625 70.863281 319.789063 71.65625 C 316.535156 72.339844 316.507813 71.367188 313.683594 69.824219 C 306.183594 65.734375 304.070313 59.585938 300.929688 54.203125 C 298.023438 49.21875 295.738281 50.195313 297.0625 55.816406 C 298.296875 61.054688 300.179688 67.917969 305.777344 73.792969 C 305.4375 73.910156 303.46875 74.558594 302.730469 74.816406 C 241.203125 96.316406 90.066406 117.210938 30.578125 108.199219 C 30.011719 108.109375 29.613281 107.675781 29.945313 107.515625 C 74.6875 86.324219 297.507813 42.902344 367.40625 34.746094 C 389.546875 32.160156 403.527344 32.128906 426.152344 33.921875 C 425.3125 34.6875 424.265625 35.628906 424.265625 35.628906 Z M 463.050781 119.285156 C 434.394531 122.898438 396.722656 126.175781 349.464844 129.179688 C 223.476563 137.1875 77.367188 138.882813 23.4375 121.5 C 16.039063 119.113281 7.640625 116.066406 4.308594 112.753906 C 2.21875 110.679688 1.035156 106.925781 2.332031 98.761719 C 5.507813 78.769531 24.449219 62.855469 58.632813 51.460938 C 74.542969 46.160156 93.046875 40.976563 114.082031 35.929688 C 129.042969 32.339844 127.714844 33.460938 114.421875 37.058594 C 56.089844 52.84375 21.707031 69.511719 11.910156 86.789063 C 9.21875 91.539063 8.660156 95.175781 8.976563 102.1875 C 9.128906 105.535156 10.679688 103.296875 11.371094 102.183594 C 14.164063 97.691406 16.957031 94.070313 17.542969 93.285156 C 25.734375 82.371094 64.660156 61.289063 105.136719 52.257813 C 271.859375 15.066406 377.882813 7.285156 420.542969 29.078125 C 420.839844 29.230469 420.820313 29.476563 420.523438 29.449219 C 401.679688 27.671875 378.691406 27.308594 366.695313 28.445313 C 345.574219 30.449219 268.621094 40.472656 193.902344 53.574219 C 98.335938 70.332031 40.636719 85.726563 21.921875 99.441406 C 14.59375 104.808594 9.113281 111.535156 23.050781 115.164063 C 45.75 121.074219 100.871094 127.113281 177.582031 127.90625 C 278.605469 128.957031 392.632813 123.695313 462.808594 118.1875 C 479.777344 116.855469 479.964844 117.15625 463.050781 119.285156 "/>
</g>
</svg>
