<?xml version="1.0" encoding="UTF-8"?>
<svg xmlns="http://www.w3.org/2000/svg" xmlns:xlink="http://www.w3.org/1999/xlink" width="533pt" height="50pt" viewBox="0 0 533 50" version="1.1">
<g id="surface1">
<path style=" stroke:none;fill-rule:nonzero;fill:rgb(0%,0%,0%);fill-opacity:1;" d="M 229.859375 25.277344 C 245.824219 25.339844 264.183594 25.410156 283.917969 25.488281 C 283.511719 26.714844 283.164063 28.011719 282.945313 29.367188 C 257.960938 29.261719 236.40625 29.167969 221.117188 29.101563 C 224.148438 27.785156 227.042969 26.511719 229.746094 25.324219 C 229.785156 25.308594 229.824219 25.292969 229.859375 25.277344 Z M 201.476563 37.339844 C 206.714844 36.683594 212.726563 36.253906 219.632813 36.132813 C 226.101563 36.019531 250.3125 36.027344 283.164063 36.097656 C 282.707031 34.273438 282.621094 32.503906 282.765625 30.808594 C 256.011719 30.695313 233.203125 30.59375 217.824219 30.527344 C 212.621094 32.765625 207.09375 35.097656 201.476563 37.339844 Z M 153.039063 39.328125 C 156.765625 45.464844 176.082031 39.03125 197.816406 30.445313 C 178.789063 30.410156 163.578125 32.105469 151.484375 34.640625 C 151.632813 36.238281 152.117188 37.808594 153.039063 39.328125 Z M 233.113281 23.847656 C 248.4375 23.910156 265.828125 23.976563 284.425781 24.050781 C 284.730469 23.234375 285.050781 22.457031 285.355469 21.726563 C 268.945313 21.667969 253.132813 21.613281 238.382813 21.5625 C 236.804688 22.238281 235.03125 23.007813 233.113281 23.847656 Z M 252.007813 9.328125 C 216.804688 9.296875 186.125 9.265625 165.277344 9.230469 C 164.390625 10.449219 163.359375 11.757813 162.242188 13.164063 C 169.113281 12.855469 176.191406 12.710938 183.476563 12.738281 C 192.949219 12.777344 214.078125 12.808594 242.054688 12.839844 C 245.441406 11.589844 248.765625 10.410156 252.007813 9.328125 Z M 149.148438 21.246094 C 147.257813 21.238281 145.742188 21.234375 144.644531 21.226563 C 82.199219 20.984375 60.578125 39.339844 55.316406 45.132813 L 84.671875 45.132813 C 87.503906 42.679688 91.878906 39.558594 98.34375 36.453125 C 106.238281 32.660156 115.679688 29.652344 126.394531 27.515625 C 132.753906 26.246094 139.578125 25.289063 146.816406 24.636719 C 147.617188 23.523438 148.410156 22.398438 149.148438 21.246094 Z M 500.832031 13.019531 C 506.988281 11.878906 513.289063 10.699219 519.734375 9.484375 C 468.875 9.460938 378.734375 9.421875 298.664063 9.363281 C 299.292969 10.421875 299.777344 11.597656 300.117188 12.898438 C 363.753906 12.949219 440.628906 12.992188 500.832031 13.019531 Z M 237.609375 14.511719 C 200.785156 14.410156 174.421875 14.378906 169.753906 14.460938 C 167.148438 14.503906 164.171875 14.59375 161.007813 14.722656 C 159.671875 16.417969 158.300781 18.1875 157.03125 20.003906 L 223.171875 20.195313 C 228.027344 18.234375 232.863281 16.316406 237.609375 14.511719 Z M 286.804688 15.433594 C 286.539063 15.105469 286.066406 14.851563 285.4375 14.65625 C 281.296875 14.640625 277.207031 14.628906 273.1875 14.617188 C 265.414063 15.398438 255.328125 17.085938 245.441406 18.867188 C 244.777344 18.984375 243.410156 19.484375 241.527344 20.246094 L 285.910156 20.375 C 286.824219 18.140625 287.480469 16.273438 286.804688 15.433594 Z M 152.914063 10.628906 C 152.921875 10.085938 152.828125 9.617188 152.628906 9.203125 C 149.90625 6.054688 145.003906 6.304688 142.386719 6.296875 C 135.152344 6.265625 128.269531 8.347656 121.636719 9.570313 C 94.601563 15.601563 56.257813 28.878906 31.652344 37.402344 C 22.351563 40.621094 14.621094 43.300781 9.203125 45.03125 L 52.292969 45.03125 C 56.542969 41.347656 63.101563 36.667969 72.800781 32.011719 C 84.644531 26.324219 98.800781 21.8125 114.878906 18.605469 C 126.445313 16.296875 139.050781 14.667969 152.546875 13.71875 C 152.769531 12.722656 152.898438 11.691406 152.914063 10.628906 Z M 219.945313 21.5 C 192.1875 21.402344 169.621094 21.320313 156.164063 21.269531 C 155.546875 22.195313 154.96875 23.128906 154.4375 24.070313 C 160.113281 23.738281 166.015625 23.582031 172.128906 23.605469 C 177.160156 23.625 192.496094 23.6875 214.347656 23.773438 C 216.214844 23.015625 218.078125 22.253906 219.945313 21.5 Z M 495.621094 24.789063 C 509.234375 24.824219 521.398438 24.855469 531.566406 24.875 L 531.566406 22.503906 C 524.777344 22.488281 516.601563 22.464844 507.300781 22.441406 C 503.351563 23.242188 499.464844 24.023438 495.621094 24.789063 Z M 86.921875 45.132813 L 118.5625 45.132813 C 120.351563 44.058594 122.382813 42.953125 124.675781 41.851563 C 129.359375 39.601563 134.601563 37.636719 140.316406 35.957031 C 141.324219 32.429688 143.492188 29.261719 145.707031 26.179688 C 111.71875 29.433594 94.644531 38.964844 86.921875 45.132813 Z M 152.144531 15.175781 C 132.4375 16.277344 110.246094 20.183594 100.746094 22.882813 C 98.503906 23.519531 98.097656 24.238281 100.882813 23.796875 C 108.347656 22.613281 123.1875 20.417969 131.246094 20.300781 C 135.285156 20.242188 149.925781 19.980469 149.925781 19.980469 C 150.832031 18.441406 151.609375 16.851563 152.144531 15.175781 Z M 201.40625 29.015625 C 204.53125 27.765625 207.691406 26.484375 210.847656 25.199219 C 190.878906 25.121094 176.910156 25.0625 172.121094 25.042969 C 165.515625 25.019531 159.367188 25.203125 153.644531 25.554688 C 152.367188 28.101563 151.523438 30.675781 151.445313 33.1875 C 151.875 33.097656 152.292969 33.003906 152.726563 32.914063 C 166.070313 30.253906 181.453125 28.9375 198.460938 29.003906 C 199.195313 29.007813 200.1875 29.011719 201.40625 29.015625 Z M 141.824219 46.820313 L 1.433594 46.535156 L 1.433594 49.125 L 145.480469 49.417969 C 145.222656 49.3125 144.972656 49.199219 144.730469 49.078125 C 143.550781 48.488281 142.585938 47.730469 141.824219 46.820313 Z M 531.566406 21.085938 L 531.566406 17.449219 C 525.671875 18.675781 519.882813 19.875 514.203125 21.035156 Z M 433.394531 36.554688 C 471.4375 36.683594 506.742188 36.796875 531.566406 36.847656 L 531.566406 31.703125 C 512.730469 31.667969 488.226563 31.597656 461.027344 31.507813 C 451.414063 33.316406 442.199219 35 433.394531 36.554688 Z M 338.277344 49.816406 L 531.566406 50.21875 L 531.566406 47.625 L 363.46875 47.277344 C 354.222656 48.394531 345.828125 49.242188 338.277344 49.816406 Z M 468.5 30.089844 C 492.707031 30.171875 514.472656 30.230469 531.566406 30.261719 L 531.566406 26.3125 C 519.648438 26.292969 504.992188 26.253906 488.472656 26.207031 C 481.640625 27.558594 474.980469 28.851563 468.5 30.089844 Z M 487.828125 15.410156 C 437.429688 15.207031 364.113281 14.917969 300.488281 14.703125 C 300.746094 16.421875 300.785156 18.328125 300.609375 20.417969 L 457.164063 20.871094 C 466.929688 19.175781 477.144531 17.355469 487.828125 15.410156 Z M 426.605469 26.011719 C 385.4375 25.871094 340.460938 25.703125 299.832031 25.546875 C 299.570313 26.792969 299.246094 28.085938 298.871094 29.4375 C 330.765625 29.570313 366.839844 29.71875 402.019531 29.851563 C 409.769531 28.695313 417.96875 27.414063 426.605469 26.011719 Z M 449.054688 22.265625 C 403.96875 22.125 350.25 21.945313 300.46875 21.777344 C 300.375 22.53125 300.261719 23.308594 300.117188 24.109375 C 343.519531 24.277344 391.863281 24.457031 435.207031 24.601563 C 439.707031 23.855469 444.328125 23.074219 449.054688 22.265625 Z M 180.082031 45.144531 L 289.15625 45.464844 C 289.105469 45.421875 289.050781 45.382813 289.003906 45.335938 C 286.089844 42.605469 284.394531 39.882813 283.511719 37.25 C 247.21875 37.140625 221.539063 37.082031 218.421875 37.136719 C 210.695313 37.273438 203.660156 37.890625 197.613281 38.863281 C 191.71875 41.15625 185.785156 43.316406 180.082031 45.144531 Z M 339.0625 37.425781 C 327.878906 37.390625 317.035156 37.355469 306.730469 37.320313 C 313.480469 38.480469 324.238281 38.515625 339.0625 37.425781 Z M 174.359375 46.886719 C 170.6875 47.9375 167.160156 48.816406 163.855469 49.457031 L 300.980469 49.742188 C 297.046875 49.140625 293.945313 48.269531 291.675781 47.128906 Z M 121.445313 45.132813 L 140.742188 45.132813 C 140.472656 44.566406 140.261719 43.957031 140.113281 43.308594 C 139.640625 41.269531 139.640625 39.367188 139.960938 37.554688 C 132.15625 39.902344 126.09375 42.566406 121.445313 45.132813 Z M 375.59375 45.71875 L 531.566406 46.179688 L 531.566406 38.007813 C 504.039063 37.953125 466.410156 37.839844 426.765625 37.714844 C 407.738281 41.007813 390.683594 43.679688 375.59375 45.71875 Z M 392.4375 31.257813 C 360.1875 31.132813 327.574219 30.996094 298.464844 30.875 C 298.074219 32.300781 298.261719 33.351563 299.070313 34.246094 C 299.734375 34.980469 300.769531 35.613281 302.152344 36.140625 C 317.71875 36.183594 334.601563 36.230469 352.058594 36.289063 C 363.632813 35.132813 377.078125 33.457031 392.4375 31.257813 Z M 297.285156 30.324219 C 319.273438 -42.820313 165.054688 61.578125 151.945313 39.992188 C 138.601563 18.015625 206.609375 -11.863281 130.132813 4.125 C 87.742188 12.984375 32.035156 25.058594 1.570313 45.824219 C 14.800781 43.796875 154.507813 -12.214844 154.195313 10.644531 C 154.015625 23.574219 138.503906 30.730469 141.359375 43.019531 C 146.71875 66.101563 237.035156 19.082031 245.214844 17.605469 C 322.914063 3.605469 267.179688 23.125 289.878906 44.402344 C 308.886719 62.214844 474.390625 28.089844 531.566406 16.140625 L 531.566406 8.535156 C 316.238281 49.683594 293.890625 41.628906 297.285156 30.324219 "/>
</g>
</svg>
