<?xml version="1.0" encoding="UTF-8"?>
<svg xmlns="http://www.w3.org/2000/svg" xmlns:xlink="http://www.w3.org/1999/xlink" width="569pt" height="30pt" viewBox="0 0 569 30" version="1.1">
<g id="surface1">
<path style=" stroke:none;fill-rule:nonzero;fill:rgb(0%,0%,0%);fill-opacity:1;" d="M 560.566406 0.808594 C 527.773438 0.808594 53.335938 0.808594 6.078125 0.808594 C -1.859375 0.808594 -1.613281 2.285156 6.609375 2.28125 C 22.613281 2.21875 36.894531 1.59375 49.328125 4.371094 C 56.125 5.707031 54.828125 5.578125 61.425781 4.503906 C 83.164063 0.96875 110.417969 8.382813 126.078125 15.132813 C 169.394531 33.804688 206.371094 31.070313 240.28125 23.511719 C 245.1875 22.417969 250.097656 22.0625 253.414063 23.402344 C 256.480469 24.640625 256.785156 24.335938 259.433594 23.882813 C 267.140625 22.796875 278.644531 24.308594 284.292969 27.457031 C 287.261719 29.109375 289.714844 28.886719 288.742188 27.394531 C 286.394531 23.785156 263.199219 15.960938 229.492188 20.566406 C 220.511719 21.792969 213.917969 23.363281 200.1875 22.109375 C 197.820313 21.894531 196.917969 22.144531 195.539063 22.703125 C 189.703125 25.058594 178.390625 25.21875 173.726563 23.25 C 171.410156 22.273438 171.363281 20.1875 175.558594 18.378906 C 182.996094 15.171875 191.925781 15.203125 199.890625 17.859375 C 203.917969 19.203125 203.695313 19.199219 206.351563 18.496094 C 222.230469 14.289063 245.820313 16.53125 287.367188 22.371094 C 318.632813 26.71875 348.417969 21.441406 372.140625 14.011719 C 377.707031 12.265625 375.152344 11.273438 369.433594 13.0625 C 335.332031 23.726563 305.746094 21.800781 276.023438 16.621094 C 232.453125 9.023438 207.261719 9.351563 176.28125 11.511719 C 172.203125 11.796875 171.488281 11.550781 175.28125 10.792969 C 199.257813 6.019531 255.269531 3.082031 301.464844 16.878906 C 303.507813 17.359375 303.847656 17.441406 305.453125 16.816406 C 328.527344 7.828125 382.929688 7.171875 391.382813 14.363281 C 392.839844 15.601563 394.523438 15.601563 397.582031 16.0625 C 432.378906 21.320313 499.105469 23.828125 533.058594 13.886719 C 540.714844 11.648438 539.230469 11.019531 531.15625 12.945313 C 500.375 20.296875 444.714844 16.582031 418.214844 11.664063 C 376.53125 3.925781 327.84375 5.507813 306.425781 10.679688 C 302.054688 11.734375 301.527344 11.734375 297.667969 10.851563 C 258.128906 1.785156 200.757813 1.429688 156.632813 6.601563 C 153.796875 6.933594 152.71875 6.828125 155.832031 6.09375 C 179.820313 0.867188 245.050781 -0.226563 287.761719 6.320313 C 295.628906 7.523438 295.671875 7.433594 300.539063 6.695313 C 309.878906 5.277344 325.183594 4.050781 352.933594 3.429688 C 413.828125 2.066406 521.296875 2.980469 560.847656 2.320313 C 571.65625 2.140625 571.515625 0.808594 560.566406 0.808594 "/>
</g>
</svg>
