<?xml version="1.0" encoding="UTF-8"?>
<svg xmlns="http://www.w3.org/2000/svg" xmlns:xlink="http://www.w3.org/1999/xlink" width="509pt" height="133pt" viewBox="0 0 509 133" version="1.1">
<g id="surface1">
<path style=" stroke:none;fill-rule:nonzero;fill:rgb(0%,0%,0%);fill-opacity:1;" d="M 508.101563 40.503906 C 507.683594 39.484375 506.980469 38.726563 504.480469 38.976563 C 501.980469 39.226563 500.902344 38.476563 500.152344 39.0625 C 499.402344 39.644531 498.578125 38.789063 497.972656 38.40625 C 497.363281 38.019531 495.914063 38.105469 495.726563 38.023438 C 495.53125 37.945313 493.917969 37.214844 493.0625 37.070313 C 492.210938 36.929688 488.660156 36.660156 487.824219 36.824219 C 486.992188 36.992188 486.148438 37.996094 485.230469 38.082031 C 484.316406 38.164063 484.59375 36.675781 482.808594 36.664063 C 481.019531 36.648438 476.5625 38.394531 474.226563 38.308594 C 471.894531 38.226563 473.015625 35.925781 469.574219 35.792969 C 466.140625 35.660156 462.871094 35.789063 462.585938 36.6875 C 462.296875 37.585938 462.324219 38.023438 462.324219 38.023438 C 462.324219 38.023438 458.074219 37.339844 455.976563 37.320313 C 453.878906 37.300781 452.492188 37.523438 451.824219 38.023438 C 451.160156 38.523438 449.414063 37.6875 448.75 38.269531 C 448.085938 38.855469 447.003906 38.441406 446.777344 37.945313 C 446.554688 37.453125 444.5 37.6875 443.835938 37.605469 C 443.164063 37.519531 439.527344 36.648438 438.066406 37.453125 C 436.609375 38.257813 435.585938 38.46875 434.8125 38.367188 C 434.035156 38.265625 430.074219 38.089844 428.660156 38.839844 C 427.242188 39.589844 412.226563 40.726563 412.226563 40.726563 C 412.226563 40.726563 411.75 39.140625 409.058594 38.679688 C 406.367188 38.222656 402.136719 37.921875 400.8125 38.625 C 399.488281 39.328125 399.0625 39.164063 398.394531 38.832031 C 397.730469 38.5 396.050781 38.816406 395.476563 38.769531 C 394.902344 38.722656 394.417969 39.222656 393.996094 39.507813 C 393.574219 39.792969 391.5625 40.15625 389.8125 40.238281 C 388.0625 40.320313 387.429688 40.058594 386.664063 40.769531 C 385.90625 41.480469 385.222656 41.878906 383.304688 41.378906 C 381.386719 40.878906 380.898438 40.546875 379.484375 41.046875 C 378.066406 41.546875 378.242188 40.925781 378.324219 40.425781 C 378.410156 39.925781 376.914063 40.089844 375.808594 40.074219 C 374.699219 40.0625 373.746094 40.144531 372.578125 40.644531 C 371.410156 41.144531 365.164063 41.53125 363.644531 41.433594 C 362.125 41.339844 358.925781 41.425781 358.925781 41.425781 C 358.925781 41.425781 358.117188 42.152344 357.675781 42.675781 C 357.234375 43.195313 356.078125 42.945313 355.578125 42.777344 C 355.078125 42.613281 351.085938 42.105469 348.757813 43.476563 C 346.433594 44.847656 343.996094 45.765625 342.980469 45.488281 C 341.960938 45.214844 341.425781 44.523438 341.425781 44.523438 C 341.425781 44.523438 338.753906 44.695313 335.230469 45.113281 C 331.710938 45.53125 328.175781 46.257813 327.425781 46.925781 C 326.675781 47.589844 326.8125 46.601563 325.042969 46.84375 C 323.273438 47.089844 316.09375 48.96875 314.070313 49.246094 C 312.050781 49.523438 312.214844 49.617188 311.546875 49.367188 C 310.878906 49.117188 311.027344 49.644531 309.195313 50.230469 C 307.359375 50.8125 306.480469 51.003906 307.507813 50.140625 C 308.53125 49.277344 308.425781 48.941406 308.507813 48.105469 C 308.59375 47.273438 309.644531 47.007813 310.976563 46.171875 C 312.308594 45.339844 311.625 44.609375 311.625 44.023438 C 311.625 43.441406 312.808594 43.355469 314.835938 42.300781 C 316.859375 41.25 319.492188 39.507813 317.242188 37.839844 C 314.992188 36.171875 314.175781 37.714844 312.507813 38.464844 C 310.839844 39.214844 305.171875 42.324219 304.238281 42.644531 C 303.304688 42.96875 300.320313 44.449219 299.070313 45.78125 C 297.820313 47.117188 294.539063 49.570313 291.578125 50.441406 C 288.621094 51.3125 287.835938 51.9375 289.664063 49.519531 C 291.5 47.105469 294.914063 44.855469 295.585938 43.769531 C 296.25 42.6875 299.5 41.855469 300.585938 41.1875 C 301.664063 40.519531 301.523438 38.324219 301.523438 38.324219 C 301.523438 38.324219 303.398438 38.039063 303.90625 37.425781 C 304.414063 36.816406 305.308594 33.914063 303.925781 34.226563 C 302.839844 34.46875 299.246094 35.402344 298.425781 36.324219 C 297.605469 37.246094 297.691406 38.03125 295.589844 38.601563 C 293.488281 39.175781 291.433594 39.894531 290.191406 40.796875 C 288.949219 41.699219 287.269531 42.828125 283.6875 44.160156 C 280.105469 45.496094 273.839844 47.882813 272.585938 48.855469 C 271.324219 49.824219 271.488281 49.582031 270.144531 49.632813 C 268.800781 49.683594 267.597656 50.269531 266.503906 51.097656 C 265.410156 51.925781 264.585938 52.695313 263.085938 52.859375 C 261.585938 53.027344 261.414063 54.4375 259.914063 55.1875 C 258.414063 55.9375 256.617188 56.058594 258.035156 54.976563 C 259.449219 53.894531 264.914063 49.269531 266.335938 48.019531 C 267.75 46.769531 266.1875 46.65625 267.425781 45.726563 C 268.660156 44.792969 271.5 41.105469 272.585938 40.269531 C 273.664063 39.4375 274.5 38.855469 274.75 38.019531 C 275 37.1875 279.253906 34.941406 280.085938 34.105469 C 280.917969 33.273438 280.992188 31.277344 279.988281 30.570313 C 278.988281 29.867188 277.945313 29.640625 277.359375 30.476563 C 276.777344 31.308594 274.3125 32.035156 273.644531 32.453125 C 272.976563 32.871094 270.84375 33.09375 270.34375 33.929688 C 269.84375 34.761719 268.914063 34.976563 268.058594 34.710938 C 267.199219 34.449219 266.996094 34.441406 266.082031 35.128906 C 265.167969 35.816406 261.507813 37.148438 260.164063 38.4375 C 258.824219 39.726563 258.007813 39.914063 256.738281 40.28125 C 255.46875 40.648438 251.441406 41.464844 249.191406 43.128906 C 246.941406 44.796875 245.1875 46.308594 244.027344 46.992188 C 242.867188 47.675781 237.664063 49.6875 236.164063 50.4375 C 234.664063 51.1875 234.789063 52.027344 234.859375 52.664063 C 234.929688 53.300781 234.914063 54.4375 233.914063 53.605469 C 232.914063 52.769531 232.230469 52.671875 231.140625 53.09375 C 230.054688 53.519531 227.914063 55.167969 226.734375 55.355469 C 225.554688 55.542969 224.089844 56.015625 223.503906 56.765625 C 222.921875 57.515625 221.164063 57.019531 220.925781 56.726563 C 220.683594 56.429688 217.496094 58.070313 215.914063 59.160156 C 214.335938 60.25 212.085938 61.605469 211.335938 62.355469 C 210.585938 63.105469 209.722656 62.789063 207.636719 63.375 C 205.554688 63.957031 203.414063 65.972656 202.335938 66.355469 C 201.253906 66.734375 200.15625 67.777344 198.492188 67.777344 C 196.824219 67.777344 197.539063 68.128906 194.582031 69.035156 C 191.625 69.9375 190.535156 70.59375 193.035156 68.179688 C 195.535156 65.761719 213.164063 50.9375 216 49.019531 C 218.835938 47.105469 219 46.9375 219.164063 46.105469 C 219.335938 45.269531 226.6875 41.609375 228.269531 40.445313 C 229.855469 39.277344 231.441406 38.441406 231.609375 37.855469 C 231.773438 37.273438 233.066406 37.273438 233.503906 37.152344 C 233.9375 37.027344 238.847656 34.292969 239.265625 33.460938 C 239.679688 32.628906 241.585938 32.6875 241.585938 31.519531 C 241.585938 30.355469 240.164063 28.539063 239.078125 28.871094 C 237.996094 29.203125 235.003906 30.839844 233.597656 31.609375 C 232.191406 32.378906 223.585938 37.769531 221.664063 38.9375 C 219.75 40.105469 215.890625 42.597656 215.554688 43.097656 C 215.222656 43.597656 214.347656 44.007813 213.753906 44.167969 C 213.15625 44.332031 209.847656 44.625 209.097656 45.792969 C 208.347656 46.960938 206.941406 48.160156 206.191406 48.492188 C 205.441406 48.824219 205.203125 48.226563 204.625 48.625 C 204.046875 49.023438 202.503906 49.785156 200.742188 50.460938 C 198.984375 51.132813 196.21875 51.824219 195.386719 53.324219 C 194.550781 54.824219 192.84375 55.078125 191.742188 55.382813 C 190.640625 55.691406 188.21875 55.839844 188.132813 57.089844 C 188.050781 58.339844 187.824219 58.726563 187.824219 58.726563 C 187.824219 58.726563 179.503906 62.871094 175.753906 64.710938 C 172.003906 66.546875 166.308594 68.851563 164.433594 69.304688 C 162.558594 69.757813 162.597656 69.609375 164.347656 68.609375 C 166.097656 67.609375 195.773438 49.046875 196.941406 47.714844 C 198.109375 46.378906 200.667969 45.519531 202.332031 44.578125 C 203.996094 43.636719 211.941406 39.582031 212.585938 38.105469 C 213.226563 36.625 213.015625 35.96875 212.433594 34.886719 C 211.851563 33.800781 210.921875 33.617188 209.589844 34.019531 C 208.253906 34.417969 204.492188 35.207031 202.492188 35.707031 C 200.492188 36.207031 198.996094 37.292969 198.328125 38.042969 C 197.660156 38.792969 196.394531 38.429688 195.644531 38.011719 C 194.894531 37.59375 192.675781 37.640625 191.925781 38.726563 C 191.175781 39.808594 189.984375 40.578125 187.816406 40.742188 C 185.652344 40.910156 181.738281 40.871094 181.011719 42.296875 C 180.285156 43.722656 179.988281 44.175781 179.671875 44.507813 C 179.355469 44.84375 177.542969 45.089844 177.960938 46.257813 C 178.375 47.421875 178.1875 47.160156 177.335938 46.855469 C 176.480469 46.546875 175.085938 46.503906 173.664063 47.207031 C 172.242188 47.910156 169.074219 50.074219 168.324219 48.824219 C 167.574219 47.574219 166.015625 47.339844 164.855469 48.199219 C 163.691406 49.058594 160.898438 49.957031 159.640625 50.527344 C 158.382813 51.097656 157.25 51.6875 157.25 51.6875 C 157.25 51.6875 155.40625 51.976563 154.238281 52.058594 C 153.070313 52.144531 144.335938 54.6875 142.335938 55.4375 C 140.335938 56.1875 136.773438 57.808594 135.523438 58.226563 C 134.273438 58.640625 131.75 58.4375 130.75 59.355469 C 129.75 60.269531 129.226563 61.523438 129.226563 61.523438 C 129.226563 61.523438 125.480469 62.351563 123.980469 62.769531 C 122.480469 63.183594 117.640625 63.472656 116.226563 63.554688 C 114.808594 63.640625 112.257813 64.941406 111.421875 65.855469 C 110.589844 66.773438 109.433594 66.902344 109.003906 67.078125 C 108.570313 67.253906 106.664063 66.9375 105.75 67.9375 C 104.835938 68.9375 103.730469 68.582031 102.980469 68.664063 C 102.230469 68.75 100.113281 70.519531 99.183594 70.980469 C 98.257813 71.441406 97.757813 70.71875 96.75 71.4375 C 95.742188 72.15625 94.417969 72.019531 93.082031 72.1875 C 91.75 72.355469 90.082031 73.519531 89.917969 74.1875 C 89.75 74.855469 89.394531 75.15625 88.894531 74.992188 C 88.394531 74.824219 87.265625 75.539063 86.007813 76.445313 C 84.746094 77.347656 82.824219 78.003906 82.214844 77.371094 C 81.609375 76.742188 81 76.769531 80.066406 77 C 79.132813 77.230469 76.332031 77.4375 74.417969 78.355469 C 72.5 79.269531 71.605469 80.765625 70.941406 81.679688 C 70.273438 82.597656 68.511719 82.878906 67.40625 83.140625 C 67.203125 83.1875 66.574219 83.378906 65.675781 83.65625 C 65.558594 76.679688 71.90625 69.402344 85.984375 62.597656 C 112.773438 49.648438 181.492188 32.097656 249.988281 20.511719 C 317.53125 9.089844 384.855469 3.546875 411.625 2.886719 C 430.335938 2.425781 432.265625 1.039063 410.289063 -0.0234375 C 401.257813 -0.460938 377.546875 0.308594 346.34375 2.65625 C 268.882813 8.480469 199.726563 16.363281 127.535156 36.378906 C 91.644531 46.332031 64.96875 58.21875 55.851563 72.089844 C 52.417969 77.316406 50.367188 83.199219 50.09375 89.15625 C 48.808594 89.824219 47.144531 90.589844 45.902344 90.644531 C 44.070313 90.726563 40.503906 92.589844 39.800781 93.472656 C 39.097656 94.351563 37.761719 95.5625 35.328125 96.578125 C 32.894531 97.59375 29.441406 98.71875 27.773438 99.96875 C 26.109375 101.21875 20.828125 103.253906 18.90625 103.871094 C 16.988281 104.488281 5.125 107.855469 3.144531 109.105469 C -0.742188 111.558594 -1.21875 114.515625 4.65625 112.765625 C 10.53125 111.015625 10.25 109.695313 12.625 109.324219 C 15 108.957031 22.507813 107.144531 25.882813 105.144531 C 29.257813 103.144531 38.664063 100.445313 39.566406 99.570313 C 40.773438 98.398438 46.441406 96.523438 50.4375 95.132813 C 51.976563 104.589844 58.386719 113.730469 71.363281 120.199219 C 70.28125 121.171875 68.757813 122.433594 68.492188 122.664063 C 68.128906 122.988281 62.328125 126.757813 60.660156 128.507813 C 58.996094 130.257813 58.59375 134.9375 63.84375 132.355469 C 69.09375 129.769531 73.484375 126.34375 74.898438 125.503906 C 75.488281 125.152344 77.226563 124.339844 79.121094 123.4375 C 81.613281 124.3125 84.265625 125.117188 87.121094 125.820313 C 110.410156 131.546875 175.164063 132.558594 220.253906 130.910156 C 265.285156 129.261719 315.265625 127.34375 360.003906 123.714844 C 409.894531 119.671875 453.328125 113.84375 477.378906 110.980469 C 500.003906 108.285156 499.671875 106.4375 476.996094 109.023438 C 371.808594 121.007813 219.855469 128.851563 126.949219 114.664063 C 118.332031 113.347656 110.480469 111.703125 103.476563 109.792969 C 104.625 109.210938 105.59375 108.71875 106.078125 108.425781 C 107.578125 107.507813 117.984375 102.511719 119.90625 101.839844 C 121.828125 101.171875 122.664063 100.0625 122.996094 99.3125 C 123.328125 98.5625 123.488281 98.960938 125.058594 98.964844 C 126.628906 98.972656 127.816406 98.5 128.484375 96.667969 C 129.152344 94.835938 130.753906 94.179688 132.421875 93.429688 C 134.085938 92.679688 134.808594 92.417969 135.164063 91.769531 C 135.523438 91.125 136.089844 91.019531 137.421875 90.9375 C 138.753906 90.855469 140.355469 89.761719 140.6875 88.925781 C 141.019531 88.09375 144.824219 86.8125 146.386719 86 C 147.949219 85.1875 176.992188 71.757813 178.410156 71.257813 C 179.824219 70.757813 177.816406 73.101563 177.015625 73.871094 C 176.21875 74.640625 173.164063 77.363281 171.164063 78.03125 C 169.164063 78.699219 167.214844 80.667969 166.714844 81.667969 C 166.214844 82.667969 163.929688 85.191406 162.511719 86.023438 C 161.097656 86.855469 158.027344 89.761719 157.570313 91.066406 C 157.109375 92.371094 155.761719 92.710938 155.003906 92.953125 C 154.25 93.191406 148.414063 98.019531 146.085938 100.269531 C 143.75 102.519531 142.835938 104.855469 143.835938 105.6875 C 144.835938 106.519531 146.664063 106.269531 149.585938 104.4375 C 152.5 102.605469 157.28125 98.5 159.164063 97.519531 C 159.953125 97.113281 160.925781 96.324219 160.925781 96.324219 C 160.925781 96.324219 161.871094 97.769531 162.898438 97.824219 C 163.921875 97.878906 168.824219 95.175781 171.492188 93.589844 C 174.160156 92.007813 179.875 89.757813 180.125 89.425781 C 180.375 89.089844 180.578125 87.917969 181.664063 87.25 C 182.746094 86.582031 186.003906 84.277344 186.542969 83.714844 C 187.085938 83.152344 189.164063 82.519531 190.835938 81.855469 C 192.5 81.1875 220.335938 69.355469 221.335938 68.9375 C 222.335938 68.519531 221.429688 68.175781 222.589844 67.621094 C 223.753906 67.066406 228.59375 66.5625 228.675781 65.109375 C 228.753906 63.65625 228.324219 62.527344 228.324219 62.527344 C 228.324219 62.527344 245.394531 56.113281 246.726563 55.699219 C 248.058594 55.28125 248.25 55.6875 247.335938 56.355469 C 246.414063 57.019531 244.496094 58.210938 244.078125 58.960938 C 243.664063 59.710938 241.921875 59.90625 241.238281 60.066406 C 240.554688 60.222656 235.832031 63.289063 235.082031 64.039063 C 234.332031 64.789063 232.75 64.855469 232.164063 65.855469 C 231.585938 66.855469 230.339844 66.886719 229.164063 67.769531 C 227.996094 68.65625 225.773438 70.382813 225.5 71.605469 C 225.226563 72.824219 224.496094 73.1875 223.523438 73.96875 C 222.550781 74.753906 221 75.1875 220.726563 75.222656 C 220.449219 75.261719 218.433594 76.109375 218.164063 76.9375 C 217.898438 77.765625 218.023438 79.125 218.023438 79.125 C 218.023438 79.125 215.75 80.605469 214.085938 81.769531 C 212.414063 82.9375 212.335938 85.855469 215.585938 84.355469 C 218.835938 82.855469 222.269531 81.6875 222.523438 80 C 222.773438 78.3125 222.625 77.125 222.625 77.125 C 222.625 77.125 224.3125 75.710938 225.894531 76.210938 C 227.480469 76.710938 229.929688 77.457031 231.347656 75.707031 C 232.765625 73.957031 233.484375 74.570313 234.511719 73.707031 C 235.535156 72.84375 238.914063 71.355469 240.164063 70.605469 C 241.414063 69.855469 245.125 67.125 245.125 67.125 C 245.125 67.125 246.578125 68.714844 248.414063 67.382813 C 250.246094 66.050781 255.105469 63.632813 256.679688 63.054688 C 258.253906 62.476563 259.613281 61.816406 260.53125 60.816406 C 261.445313 59.816406 266.984375 57.390625 270.902344 56.308594 C 274.816406 55.226563 277.417969 54.246094 278.675781 53.898438 C 279.9375 53.550781 280.714844 53.980469 278.914063 54.9375 C 277.117188 55.894531 272.414063 58.1875 272.25 59.855469 C 272.085938 61.519531 272.824219 64.878906 275.914063 63.105469 C 279.007813 61.332031 280.625 60.324219 280.625 60.324219 C 280.625 60.324219 281.335938 61.019531 284.5 59.769531 C 287.664063 58.519531 292.589844 56.660156 292.925781 55.824219 C 293.257813 54.988281 293.335938 54.4375 295.5 54.019531 C 297.664063 53.605469 298.964844 52.65625 299.425781 52.726563 C 299.882813 52.796875 299.988281 52.992188 299.214844 54.027344 C 298.4375 55.054688 296.164063 57.019531 294.835938 58.4375 C 293.5 59.855469 292.351563 66.136719 296.667969 63.828125 C 300.980469 61.515625 311.710938 55.625 312.625 55.125 C 313.539063 54.625 318.238281 54.214844 321.238281 53.464844 C 324.238281 52.714844 338.914063 50.511719 341.910156 50 C 344.910156 49.492188 351.167969 48.605469 355.816406 48.433594 C 360.464844 48.261719 379.316406 46.914063 386.230469 46.550781 C 393.144531 46.191406 424.3125 43.890625 427.480469 43.804688 C 430.648438 43.722656 461.667969 42.09375 467.980469 42.167969 C 474.292969 42.242188 494.421875 42.34375 494.8125 42.3125 C 495.203125 42.285156 496.179688 43.109375 499.246094 43.066406 C 502.3125 43.023438 504.195313 42.816406 506.167969 42.539063 C 508.144531 42.257813 508.519531 41.523438 508.101563 40.503906 Z M 57.523438 73.1875 C 65.695313 60.757813 89.429688 49.023438 128.070313 38.308594 C 198.832031 18.6875 266.5625 10.660156 346.492188 4.648438 C 352.210938 4.21875 357.636719 3.84375 362.746094 3.519531 C 370.152344 3.054688 369.851563 3.425781 362.582031 4.074219 C 331.128906 6.882813 290.726563 11.59375 249.65625 18.539063 C 180.925781 30.164063 111.726563 47.933594 85.113281 60.796875 C 67.046875 69.527344 63.328125 78.195313 63.695313 84.277344 C 59.8125 85.507813 54.085938 87.378906 52.171875 88.109375 C 52.605469 83.046875 54.402344 77.933594 57.523438 73.1875 Z M 72.929688 118.753906 C 61.304688 113.167969 56.132813 105.949219 53.871094 100.183594 C 53.140625 98.328125 52.648438 96.402344 52.359375 94.445313 C 53.058594 94.1875 53.640625 93.957031 54.015625 93.777344 C 55.574219 93.027344 60.957031 91.011719 65.078125 89.519531 C 68.082031 95.925781 75.839844 101.746094 87.5 106.5625 C 86.628906 107.726563 85.429688 109.054688 84.957031 109.707031 C 84.289063 110.621094 81.351563 112.609375 80.511719 113.273438 C 79.789063 113.847656 74.742188 117.324219 72.929688 118.753906 Z M 126.644531 116.640625 C 190.472656 126.386719 280.601563 125.757813 363.921875 120.757813 C 372.328125 120.253906 372.460938 120.671875 363.925781 121.386719 C 362.570313 121.5 361.207031 121.609375 359.839844 121.722656 C 316.6875 125.222656 269.152344 127.117188 220.179688 128.910156 C 172.199219 130.664063 109.492188 129.261719 87.601563 123.878906 C 85.503906 123.363281 83.53125 122.804688 81.675781 122.207031 C 83.414063 121.355469 84.914063 120.574219 85.339844 120.179688 C 86.425781 119.179688 94.769531 115.296875 96.601563 113.714844 C 97.421875 113.007813 99.097656 112.0625 100.839844 111.148438 C 108.453125 113.328125 117.09375 115.179688 126.644531 116.640625 Z M 159.625 59.6875 C 157.34375 60.417969 157.125 61.4375 157 61.8125 C 156.875 62.1875 156.632813 62.269531 156.324219 61.824219 C 156.019531 61.378906 155.289063 60.238281 153.539063 61.363281 C 151.789063 62.488281 150.433594 64.09375 150.03125 64.367188 C 149.628906 64.640625 147.203125 65.261719 146.109375 66.308594 C 145.015625 67.359375 143.5 67.605469 143.335938 68.769531 C 143.164063 69.9375 142.734375 69.863281 142.234375 69.78125 C 141.734375 69.699219 138.835938 70.855469 138.335938 71.605469 C 137.835938 72.355469 136.113281 72.4375 135.585938 73.605469 C 135.054688 74.769531 134.375 75.816406 133.5 75.769531 C 132.625 75.722656 131.664063 75.9375 131.25 76.605469 C 130.835938 77.269531 129.257813 77.644531 128.5625 77.71875 C 127.867188 77.796875 127.199219 77.503906 126.914063 78.355469 C 126.632813 79.207031 124.492188 81.296875 123.328125 81.714844 C 122.160156 82.128906 119.921875 84.695313 119.796875 85.5 C 119.671875 86.304688 118.5 87.019531 117.5 87.355469 C 116.5 87.6875 112.054688 89.515625 110.722656 89.765625 C 109.386719 90.015625 107.171875 91.964844 106.578125 92.421875 C 105.988281 92.882813 102.78125 95.535156 101.53125 95.785156 C 100.28125 96.035156 99.832031 98.9375 99.925781 99.226563 C 100.015625 99.515625 99.160156 99.777344 98.5 100.0625 C 97.902344 100.324219 90.464844 103.386719 88.695313 104.875 C 77.34375 100.25 69.828125 94.734375 66.96875 88.839844 C 68.292969 88.367188 69.335938 88.003906 69.824219 87.847656 C 71.839844 87.203125 91.457031 80.683594 96.582031 78.808594 C 101.707031 76.933594 153.078125 60.480469 157.503906 59.394531 C 161.929688 58.308594 161.90625 58.957031 159.625 59.6875 Z M 142.929688 107.226563 C 143.359375 107.839844 143.371094 108.945313 142.585938 109.347656 C 141.804688 109.753906 140.703125 109.355469 140.453125 108.773438 C 140.203125 108.191406 138.917969 106.582031 140.503906 106.007813 C 141.925781 105.492188 142.503906 106.613281 142.929688 107.226563 Z M 307.023438 35.625 C 305.914063 35.75 305.414063 31.777344 306.8125 31.621094 C 309.621094 31.304688 308.523438 35.457031 307.023438 35.625 "/>
</g>
</svg>
