<?xml version="1.0" encoding="UTF-8"?>
<svg xmlns="http://www.w3.org/2000/svg" xmlns:xlink="http://www.w3.org/1999/xlink" width="524pt" height="49pt" viewBox="0 0 524 49" version="1.1">
<g id="surface1">
<path style=" stroke:none;fill-rule:nonzero;fill:rgb(0%,0%,0%);fill-opacity:1;" d="M 125.308594 12.867188 C 119.214844 12.296875 114.125 16.597656 111.1875 21.613281 L 117.421875 20.253906 C 118.570313 16.738281 122.371094 14.519531 125.308594 12.867188 "/>
<path style=" stroke:none;fill-rule:nonzero;fill:rgb(0%,0%,0%);fill-opacity:1;" d="M 81.582031 20.253906 C 83.085938 21.328125 84.808594 22.332031 86.457031 22.617188 C 89.59375 14.242188 109.109375 8.785156 116.851563 8.210938 C 101.949219 5.417969 88.105469 11.433594 81.582031 20.253906 "/>
<path style=" stroke:none;fill-rule:nonzero;fill:rgb(0%,0%,0%);fill-opacity:1;" d="M 79.574219 19.394531 L 75.777344 20.898438 C 76.207031 21.757813 87.074219 31.515625 102.082031 28.136719 L 100.21875 24.695313 C 92.476563 25.414063 84.664063 24.984375 79.574219 19.394531 "/>
<path style=" stroke:none;fill-rule:nonzero;fill:rgb(0%,0%,0%);fill-opacity:1;" d="M 245.378906 14.734375 L 241.792969 9.929688 C 236.214844 9.929688 229.25 14.660156 227.3125 16.597656 C 227.242188 17.097656 226.8125 17.457031 227.171875 18.03125 C 232.1875 14.304688 238.925781 14.304688 245.378906 14.734375 "/>
<path style=" stroke:none;fill-rule:nonzero;fill:rgb(0%,0%,0%);fill-opacity:1;" d="M 109.324219 22.617188 C 106.3125 22.617188 107.675781 25.84375 108.820313 26.917969 C 115.773438 27.277344 121.292969 24.125 127.027344 21.613281 C 127.027344 21.613281 130.613281 32.007813 126.886719 35.519531 C 126.957031 36.523438 127.601563 37.3125 128.03125 38.101563 C 128.75 38.386719 129.25 39.105469 130.109375 38.820313 C 132.046875 36.597656 132.117188 33.65625 132.691406 30.933594 C 132.117188 23.910156 130.683594 17.242188 129.25 10.574219 C 126.023438 18.890625 117.207031 21.6875 109.324219 22.617188 "/>
<path style=" stroke:none;fill-rule:nonzero;fill:rgb(0%,0%,0%);fill-opacity:1;" d="M 177.78125 25.414063 C 176.585938 16.636719 182.367188 12.007813 184.519531 12.152344 C 184.519531 12.152344 178.308594 18.644531 180.601563 24.816406 L 185.878906 28.109375 C 184.90625 24.707031 182.886719 17.011719 192.90625 4.769531 C 187.171875 6.273438 173.808594 9.324219 172.261719 22.832031 C 173.621094 24.480469 175.84375 24.695313 177.78125 25.414063 "/>
<path style=" stroke:none;fill-rule:nonzero;fill:rgb(0%,0%,0%);fill-opacity:1;" d="M 61.292969 25.558594 L 65.238281 25.414063 C 62.488281 7.308594 48.105469 3.695313 46.027344 4.910156 C 46.027344 4.910156 62.488281 10.839844 61.292969 25.558594 "/>
<path style=" stroke:none;fill-rule:nonzero;fill:rgb(0%,0%,0%);fill-opacity:1;" d="M 27.246094 14.589844 C 28.609375 13.441406 29.898438 12.082031 31.402344 11.148438 C 29.039063 6.632813 23.949219 4.984375 20.007813 3.910156 C 23.878906 6.5625 25.882813 10.71875 27.246094 14.589844 "/>
<path style=" stroke:none;fill-rule:nonzero;fill:rgb(0%,0%,0%);fill-opacity:1;" d="M 1.796875 25.558594 C 2.15625 26.5625 2.875 27.0625 3.875 27.277344 C 9.253906 24.914063 15.992188 20.898438 16.0625 14.015625 C 20.222656 17.386719 20.9375 22.472656 22.800781 26.917969 C 23.589844 27.0625 24.738281 26.847656 25.527344 26.417969 C 26.457031 25.914063 26.816406 24.695313 26.386719 23.695313 L 22.226563 14.375 C 17.734375 6.929688 6.960938 7.996094 6.960938 7.996094 C 10.671875 8.640625 18.328125 16.421875 1.65625 23.695313 C 1.441406 24.410156 2.011719 24.839844 1.796875 25.558594 "/>
<path style=" stroke:none;fill-rule:nonzero;fill:rgb(0%,0%,0%);fill-opacity:1;" d="M 65.957031 24.050781 C 75.417969 20.46875 84.808594 16.164063 92.621094 8.855469 C 89.417969 6.726563 72.261719 4.625 65.597656 7.492188 C 66.671875 11.21875 68.75 14.660156 71.832031 17.3125 C 73.265625 16.738281 75.417969 16.453125 76.277344 15.59375 C 74.484375 14.445313 73.410156 12.511719 73.195313 10.789063 C 73.195313 10.789063 81.699219 8.902344 85.238281 11.792969 C 79.359375 16.453125 72.121094 17.816406 65.238281 20.253906 C 65.523438 21.542969 66.242188 22.546875 65.957031 24.050781 "/>
<path style=" stroke:none;fill-rule:nonzero;fill:rgb(0%,0%,0%);fill-opacity:1;" d="M 228.890625 21.472656 L 231.253906 25.414063 C 237.421875 24.695313 242.726563 27.132813 248.460938 27.992188 C 249.175781 26.777344 250.539063 25.628906 250.539063 24.339844 C 243.871094 22.117188 236.128906 20.898438 228.890625 21.472656 "/>
<path style=" stroke:none;fill-rule:nonzero;fill:rgb(0%,0%,0%);fill-opacity:1;" d="M 53.769531 27.78125 C 60.363281 27.132813 66.960938 28.566406 72.695313 31.21875 L 75.273438 27.492188 C 69.324219 25.054688 61.867188 26.417969 55.488281 26.777344 C 54.773438 26.917969 53.910156 27.132813 53.769531 27.78125 "/>
<path style=" stroke:none;fill-rule:nonzero;fill:rgb(0%,0%,0%);fill-opacity:1;" d="M 284.589844 8.351563 C 283.871094 8.425781 284.089844 9.355469 284.300781 9.714844 C 288.101563 15.953125 295.125 18.746094 301.648438 20.609375 L 304.730469 16.8125 C 300.5 15.523438 295.984375 14.734375 292.6875 11.652344 C 292.6875 11.652344 303.441406 11.652344 308.671875 11.792969 C 304.804688 17.167969 301.503906 23.191406 296.488281 27.636719 C 298.78125 27.707031 302.839844 28.164063 302.839844 28.164063 C 308.71875 21.210938 313.117188 10.144531 322.796875 7.347656 C 310.394531 8.425781 297.421875 8.785156 284.589844 8.351563 "/>
<path style=" stroke:none;fill-rule:nonzero;fill:rgb(0%,0%,0%);fill-opacity:1;" d="M 472.972656 26.417969 C 472.324219 25.34375 470.804688 24.925781 469.730469 23.996094 C 460.628906 23.710938 451.105469 24.769531 444.585938 18.53125 C 442.792969 19.105469 440.644531 19.394531 439.066406 20.253906 C 439.066406 20.253906 449.835938 28.8125 472.972656 26.417969 "/>
<path style=" stroke:none;fill-rule:nonzero;fill:rgb(0%,0%,0%);fill-opacity:1;" d="M 411.753906 25.558594 C 411.539063 25.84375 411.253906 25.988281 411.253906 26.273438 C 419.28125 25.914063 428.464844 27.128906 435.347656 29.566406 L 439.640625 25.773438 C 430.75 24.625 420.570313 24.125 411.753906 25.558594 "/>
<path style=" stroke:none;fill-rule:nonzero;fill:rgb(0%,0%,0%);fill-opacity:1;" d="M 452.183594 21.757813 C 462.792969 11.363281 492.699219 7.851563 492.195313 7.492188 C 465.113281 3.34375 448.242188 18.53125 448.242188 18.53125 L 452.183594 21.757813 "/>
<path style=" stroke:none;fill-rule:nonzero;fill:rgb(0%,0%,0%);fill-opacity:1;" d="M 427.023438 22.976563 C 438.636719 18.960938 450.894531 16.453125 460.785156 8.710938 L 426.160156 7.707031 C 428.238281 11.148438 430.941406 13.621094 434.453125 15.703125 L 439.871094 14.824219 L 436.195313 11.292969 C 437.917969 10.074219 448.527344 10.71875 451.105469 11.433594 C 446.378906 14.519531 428.886719 18.390625 425.875 19.394531 C 426.089844 20.683594 426.808594 21.6875 427.023438 22.976563 "/>
<path style=" stroke:none;fill-rule:nonzero;fill:rgb(0%,0%,0%);fill-opacity:1;" d="M 484.867188 20.609375 C 486.808594 20.46875 488.957031 19.824219 491.035156 19.535156 C 494.546875 13.1875 504.4375 12.511719 504.4375 12.007813 C 490.558594 10.71875 484.867188 18.890625 484.867188 20.609375 "/>
<path style=" stroke:none;fill-rule:nonzero;fill:rgb(0%,0%,0%);fill-opacity:1;" d="M 251.757813 13.011719 C 250.46875 11.507813 248.816406 9.929688 248.460938 8.210938 C 252.257813 7.707031 256.703125 7.492188 260 9.070313 C 260 11.089844 245.796875 16.597656 234.910156 20.039063 C 238.136719 20.609375 243.972656 20.792969 243.972656 20.792969 C 252.003906 17.496094 261.078125 12.941406 267.742188 6.273438 C 259.570313 3.695313 249.320313 1.6875 240.71875 4.769531 C 242.296875 8.28125 244.445313 11.652344 247.097656 14.734375 C 248.746094 14.375 250.46875 13.871094 251.757813 13.011719 "/>
<path style=" stroke:none;fill-rule:nonzero;fill:rgb(0%,0%,0%);fill-opacity:1;" d="M 481.070313 25.558594 C 489.171875 24.339844 497.773438 24.339844 504.652344 20.253906 C 509.277344 27.238281 505.371094 32.941406 503.9375 34.160156 C 505.300781 34.949219 506.589844 35.953125 508.097656 36.597656 C 509.3125 36.382813 514.179688 22.96875 507.59375 10.289063 C 507.59375 10.289063 496.859375 22.472656 478.847656 22.472656 C 479.421875 23.621094 480.496094 24.480469 481.070313 25.558594 "/>
<path style=" stroke:none;fill-rule:nonzero;fill:rgb(0%,0%,0%);fill-opacity:1;" d="M 254.839844 16.8125 C 253.335938 17.167969 251.828125 18.101563 250.539063 18.675781 C 254.554688 22.261719 263.121094 29.441406 299.425781 32.082031 L 304.230469 29.5 C 295.054688 27.851563 260.214844 25.082031 254.839844 16.8125 "/>
<path style=" stroke:none;fill-rule:nonzero;fill:rgb(0%,0%,0%);fill-opacity:1;" d="M 268.816406 13.371094 C 266.238281 13.441406 265.160156 15.664063 264.804688 17.671875 C 276.632813 16.957031 298.207031 24.914063 298.207031 24.914063 C 298.207031 24.914063 283.042969 12.007813 268.816406 13.371094 "/>
<path style=" stroke:none;fill-rule:nonzero;fill:rgb(0%,0%,0%);fill-opacity:1;" d="M 257.636719 18.171875 C 258.640625 19.175781 259.785156 19.75 261.078125 20.253906 C 266.527344 4.859375 296.5625 6.917969 303.871094 5.988281 L 296.632813 4.050781 C 282.148438 4.125 265.304688 3.910156 257.636719 18.171875 "/>
<path style=" stroke:none;fill-rule:nonzero;fill:rgb(0%,0%,0%);fill-opacity:1;" d="M 420.714844 23.835938 C 422.4375 23.980469 423.867188 23.621094 425.519531 23.476563 C 425.230469 3.472656 401.433594 3.910156 401.433594 3.910156 C 405.519531 4.769531 420.714844 10.152344 420.714844 23.835938 "/>
<path style=" stroke:none;fill-rule:nonzero;fill:rgb(0%,0%,0%);fill-opacity:1;" d="M 308.386719 21.757813 C 311.683594 22.117188 315.34375 22.691406 318.710938 21.972656 L 318.492188 19.035156 C 315.914063 18.960938 313.546875 18.53125 311.109375 18.171875 C 310.035156 19.320313 309.246094 20.609375 308.386719 21.757813 "/>
<path style=" stroke:none;fill-rule:nonzero;fill:rgb(0%,0%,0%);fill-opacity:1;" d="M 34.484375 20.039063 C 33.480469 17.027344 31.117188 20.539063 29.46875 20.753906 C 29.398438 22.761719 29.609375 24.195313 29.324219 26.058594 C 25.597656 28.066406 21.296875 29.070313 16.921875 28.855469 C 16.921875 28.855469 20.792969 26.128906 20.222656 24.554688 C 19.933594 23.335938 20.222656 21.472656 18.644531 21.257813 C 13.769531 26.128906 7.605469 30.144531 1.441406 32.941406 C 13.410156 34.660156 25.238281 32.007813 35.703125 27.992188 C 35.5625 25.199219 35.417969 22.472656 34.484375 20.039063 "/>
<path style=" stroke:none;fill-rule:nonzero;fill:rgb(0%,0%,0%);fill-opacity:1;" d="M 165.234375 37.816406 C 169.179688 32.007813 173.808594 11.214844 149.035156 10.074219 C 169.648438 17.167969 163.300781 30.144531 159.574219 34.519531 C 154.800781 37.917969 148.605469 32.582031 143.730469 31.078125 C 143.730469 33.085938 143.015625 34.730469 143.015625 36.738281 C 146.527344 38.246094 150.109375 39.75 153.839844 40.683594 C 157.996094 41.542969 162.441406 41.113281 165.234375 37.816406 "/>
<path style=" stroke:none;fill-rule:nonzero;fill:rgb(0%,0%,0%);fill-opacity:1;" d="M 364.230469 23.191406 C 364.230469 25.125 364.804688 26.992188 365.804688 28.351563 C 368.671875 21.628906 382.648438 17.601563 384.730469 16.09375 C 383.582031 14.589844 359.59375 15.566406 348.960938 20.898438 C 348.457031 24.195313 348.457031 28.066406 351.183594 30.359375 L 354.621094 27.992188 L 354.621094 22.976563 C 358.277344 20.253906 363.011719 19.605469 367.667969 19.75 C 366.953125 21.039063 365.519531 22.402344 364.230469 23.191406 "/>
<path style=" stroke:none;fill-rule:nonzero;fill:rgb(0%,0%,0%);fill-opacity:1;" d="M 388.3125 24.195313 L 388.3125 18.675781 C 387.3125 18.890625 371.078125 22.8125 368.386719 34.519531 C 364.15625 31.078125 364.085938 25.628906 361.648438 21.257813 C 360.355469 21.328125 359.28125 21.828125 358.0625 22.117188 C 361.265625 41.578125 376.484375 42.476563 379.425781 39.320313 C 368.109375 38.808594 374.195313 27.300781 388.3125 24.195313 "/>
<path style=" stroke:none;fill-rule:nonzero;fill:rgb(0%,0%,0%);fill-opacity:1;" d="M 353.261719 37.597656 C 355.195313 41.828125 359.785156 43.335938 363.726563 44.480469 C 361.074219 41.328125 357.921875 38.101563 357.347656 34.160156 C 355.984375 35.304688 354.40625 36.238281 353.261719 37.597656 "/>
<path style=" stroke:none;fill-rule:nonzero;fill:rgb(0%,0%,0%);fill-opacity:1;" d="M 358.566406 26.417969 C 354.691406 28.78125 350.96875 31.433594 346.882813 33.296875 L 344.15625 10.789063 C 353.402344 10.144531 361.933594 7.566406 369.746094 3.40625 C 365.089844 4.769531 342.644531 10.566406 331.898438 6.132813 C 339.855469 13.085938 341.648438 22.761719 341.574219 32.796875 C 338.054688 28.46875 327.023438 27.277344 324.15625 29.214844 C 330.695313 41.546875 341.863281 42.832031 343.296875 41.253906 C 342.363281 39.894531 340.929688 38.890625 339.640625 37.957031 C 338.996094 38.386719 334.101563 39.148438 331.757813 33.15625 C 345.320313 37.386719 347.382813 47.777344 347.957031 47.777344 C 349.03125 45.125 348.601563 41.828125 348.960938 38.820313 C 352.902344 37.242188 355.984375 33.585938 359.640625 31.21875 L 358.566406 26.417969 "/>
<path style=" stroke:none;fill-rule:nonzero;fill:rgb(0%,0%,0%);fill-opacity:1;" d="M 323.296875 21.613281 C 326.308594 21.472656 329.75 21.328125 332.613281 20.394531 C 332.472656 19.394531 332.113281 18.246094 332.257813 17.3125 C 333.117188 18.960938 333.476563 21.113281 333.332031 22.976563 C 330.320313 23.191406 326.664063 22.546875 323.871094 23.476563 L 323.871094 27.492188 C 323.871094 27.492188 333.597656 25.03125 339.496094 29.355469 C 339.496094 10.785156 327.097656 6.273438 327.097656 6.273438 C 306.996094 39.78125 334.859375 45.957031 340.214844 43.835938 C 336.847656 43.121094 319.730469 36.378906 323.296875 21.613281 Z M 327.8125 12.511719 C 329.75 12.867188 331.109375 15.019531 331.898438 16.597656 C 329.464844 17.386719 326.8125 18.390625 324.015625 18.675781 C 324.515625 16.308594 325.808594 13.945313 327.8125 12.511719 "/>
<path style=" stroke:none;fill-rule:nonzero;fill:rgb(0%,0%,0%);fill-opacity:1;" d="M 485.015625 37.097656 C 482.503906 30.789063 480.425781 24.339844 475.191406 19.175781 C 475.191406 19.175781 481.230469 11.792969 503.9375 9.714844 C 493.078125 6.875 473.6875 12.511719 463.007813 18.675781 C 462.9375 19.394531 463.796875 19.320313 464.011719 19.894531 C 474.1875 22.117188 479.136719 33.085938 481.214844 41.898438 C 487.382813 42.1875 493.761719 41.6875 499.277344 40.394531 L 495.191406 37.816406 C 495.191406 37.816406 487.242188 38.683594 485.015625 37.097656 "/>
<path style=" stroke:none;fill-rule:nonzero;fill:rgb(0%,0%,0%);fill-opacity:1;" d="M 299.425781 36.382813 C 305.160156 31.863281 312.257813 30.648438 318.851563 28.136719 C 318.851563 26.703125 318.277344 25.484375 317.992188 24.195313 C 308.671875 28.136719 299.28125 32.222656 291.683594 39.820313 C 298.996094 43.621094 316.414063 42.1875 318.710938 40.539063 C 317.421875 37.527344 315.195313 34.875 312.472656 32.652344 C 310.535156 30.503906 308.601563 33.585938 306.667969 34.015625 C 307.886719 35.378906 309.605469 36.167969 311.109375 37.242188 C 307.523438 38.746094 299.425781 36.382813 299.425781 36.382813 "/>
<path style=" stroke:none;fill-rule:nonzero;fill:rgb(0%,0%,0%);fill-opacity:1;" d="M 510.175781 6.132813 C 529.105469 25.0625 509.847656 39.546875 509.847656 39.546875 C 509.847656 39.546875 493.351563 32.992188 491.894531 25.054688 L 485.230469 26.058594 C 485.660156 31.460938 503.289063 42.402344 510.316406 44.695313 C 530.269531 36.628906 523.460938 6.132813 510.175781 6.132813 "/>
<path style=" stroke:none;fill-rule:nonzero;fill:rgb(0%,0%,0%);fill-opacity:1;" d="M 397.273438 15.234375 C 399.496094 15.953125 406.847656 21.25 419.28125 18.53125 C 416.269531 14.375 406.722656 2.714844 395.410156 7.492188 L 398.851563 9.929688 C 405.335938 9.929688 409.175781 14.734375 409.175781 14.734375 C 403.367188 13.515625 397.992188 11.507813 393.476563 7.132813 C 390.820313 5.914063 392.039063 1.113281 388.171875 2.332031 L 388.171875 9.929688 C 388.171875 9.929688 373.058594 7.632813 345.519531 13.871094 C 346.019531 15.304688 346.234375 16.957031 346.882813 18.316406 C 360.785156 15.664063 375.839844 10.359375 390.609375 14.875 C 389.320313 26.164063 393.402344 32.582031 394.191406 35.234375 C 394.191406 35.234375 371.421875 38.394531 385.589844 27.277344 C 385.589844 27.277344 371.011719 32.625 376.484375 37.957031 C 381.003906 39.464844 386.808594 38.890625 391.253906 37.816406 C 397.058594 38.386719 402.648438 39.464844 408.671875 39.535156 C 407.953125 38.316406 396.34375 31.207031 397.273438 15.234375 "/>
<path style=" stroke:none;fill-rule:nonzero;fill:rgb(0%,0%,0%);fill-opacity:1;" d="M 419.996094 27.132813 C 418.851563 29.714844 417.058594 32.867188 414.117188 34.015625 C 411.324219 32.796875 407.164063 25.054688 407.953125 24.195313 C 411.824219 24.050781 416.054688 24.625 419.640625 23.695313 L 419.640625 20.394531 C 412.6875 20.46875 405.589844 20.753906 399.710938 18.171875 C 400.140625 27.0625 405.015625 35.519531 413.261719 39.820313 C 418.636719 38.246094 423.4375 33.441406 426.160156 28.496094 C 424.371094 27.421875 422.148438 26.847656 419.996094 27.132813 "/>
<path style=" stroke:none;fill-rule:nonzero;fill:rgb(0%,0%,0%);fill-opacity:1;" d="M 449.242188 27.492188 C 448.023438 28.996094 446.59375 30.21875 445.300781 31.578125 C 451.464844 33.15625 457.558594 34.949219 463.511719 36.953125 L 438.921875 36.597656 C 442.074219 33.585938 448.242188 25.199219 448.242188 25.199219 C 446.449219 24.625 444.585938 24.339844 442.863281 23.476563 C 442.863281 23.476563 434.203125 34.863281 422.578125 40.539063 C 422.578125 40.539063 471.464844 39.035156 480.355469 43.261719 C 479.714844 34.105469 459.28125 29.929688 449.242188 27.492188 "/>
<path style=" stroke:none;fill-rule:nonzero;fill:rgb(0%,0%,0%);fill-opacity:1;" d="M 221.648438 5.628906 C 216.921875 6.488281 212.1875 7.921875 207.742188 9.070313 C 210.035156 13.371094 215.558594 10.503906 218.925781 11.792969 C 221.078125 18.101563 222.511719 24.695313 226.8125 30.074219 C 220.328125 38.070313 204.445313 38.960938 204.445313 38.960938 C 206.597656 40.039063 224.808594 42.042969 237.851563 28.996094 C 236.058594 28.925781 226.8125 31.261719 221.648438 5.628906 "/>
<path style=" stroke:none;fill-rule:nonzero;fill:rgb(0%,0%,0%);fill-opacity:1;" d="M 160.71875 26.273438 C 161.292969 24.265625 161.292969 21.542969 160.71875 19.535156 C 143.101563 18.476563 133.050781 5.414063 133.050781 5.414063 C 139.246094 17.414063 138.015625 38.082031 131.6875 41.898438 C 126.742188 39.390625 117.582031 31.136719 117.066406 27.132813 L 111.402344 28.136719 C 112.550781 34.804688 128.390625 46.847656 131.472656 47.0625 C 142.296875 41.972656 142.941406 30 143.230469 19.175781 C 143.230469 19.175781 154.914063 24.125 160.71875 26.273438 "/>
<path style=" stroke:none;fill-rule:nonzero;fill:rgb(0%,0%,0%);fill-opacity:1;" d="M 177.925781 34.160156 C 176.203125 33.65625 174.410156 33.15625 172.617188 32.652344 C 171.902344 37.167969 171.902344 42.546875 176.417969 44.984375 C 172.046875 44.839844 167.816406 43.046875 164.375 40.179688 C 162.082031 41.757813 159.144531 41.6875 156.417969 42.117188 C 160.699219 48.28125 182.082031 53.441406 188.460938 44.125 C 184.660156 44.265625 176.964844 41.597656 177.925781 34.160156 "/>
<path style=" stroke:none;fill-rule:nonzero;fill:rgb(0%,0%,0%);fill-opacity:1;" d="M 111.902344 40.179688 C 110.613281 34.730469 104.464844 19.449219 104.464844 19.449219 C 108.40625 12.980469 123.515625 10.863281 126.023438 10.074219 C 114.269531 8.136719 103.371094 12.4375 94.484375 19.535156 C 95.273438 22.976563 99.644531 21.257813 101.222656 24.339844 C 104.734375 30.71875 107.675781 37.242188 108.605469 44.695313 C 113.410156 45.125 118.355469 44.839844 122.371094 42.976563 L 118.785156 39.535156 C 116.707031 40.25 114.195313 40.96875 111.902344 40.179688 "/>
<path style=" stroke:none;fill-rule:nonzero;fill:rgb(0%,0%,0%);fill-opacity:1;" d="M 199.285156 9.929688 C 204.660156 13.226563 211.613281 17.816406 213.550781 24.195313 C 215.484375 24.125 217.351563 23.695313 218.925781 22.617188 C 216.632813 16.09375 201.917969 5.628906 198.90625 5.628906 C 193.226563 5.628906 188.390625 21.257813 187.097656 30.574219 C 187.097656 30.574219 175.558594 25.628906 169.535156 24.050781 C 169.609375 26.058594 169.25 28.351563 169.894531 30.21875 C 187.300781 33.945313 197.421875 42.976563 197.421875 42.976563 C 190.039063 31.292969 194.195313 11.652344 199.285156 9.929688 "/>
<path style=" stroke:none;fill-rule:nonzero;fill:rgb(0%,0%,0%);fill-opacity:1;" d="M 84.261719 29.234375 L 80.9375 33.296875 C 85.667969 35.449219 90.398438 37.3125 95.058594 39.679688 C 88.390625 39.605469 81.867188 39.464844 75.058594 39.535156 L 82.550781 26.738281 L 78.5 24.554688 C 74.339844 31.722656 69.179688 39.75 61.652344 44.339844 C 72.765625 42.332031 102.878906 41.046875 108.246094 46.417969 C 107.890625 44.769531 107.171875 43.40625 106.027344 42.117188 C 99.789063 36.523438 91.574219 32.460938 84.261719 29.234375 "/>
<path style=" stroke:none;fill-rule:nonzero;fill:rgb(0%,0%,0%);fill-opacity:1;" d="M 60.792969 28.855469 C 60.722656 31.863281 58.714844 34.949219 55.777344 36.09375 C 53.125 33.226563 50.398438 29.570313 51.1875 25.558594 C 54.34375 25.84375 57.996094 26.058594 60.792969 24.695313 L 60.652344 21.613281 C 60.652344 21.613281 50.78125 22.925781 44.953125 19.175781 C 42.066406 32.019531 54.558594 43.046875 56.136719 42.617188 C 60.722656 39.25 64.519531 34.660156 65.453125 29.355469 C 64.019531 28.925781 62.441406 28.78125 60.792969 28.855469 "/>
<path style=" stroke:none;fill-rule:nonzero;fill:rgb(0%,0%,0%);fill-opacity:1;" d="M 220.289063 24.050781 C 212.902344 26.777344 203.226563 25.628906 195.84375 23.695313 C 195.484375 25.558594 194.625 27.207031 194.984375 29.355469 C 202.367188 30.359375 221.648438 28.640625 222.867188 27.132813 C 222.367188 25.914063 221.363281 24.769531 220.289063 24.050781 "/>
<path style=" stroke:none;fill-rule:nonzero;fill:rgb(0%,0%,0%);fill-opacity:1;" d="M 201.734375 23.777344 C 201.734375 23.777344 205.378906 24.410156 207.027344 24.695313 C 203.441406 22.691406 201.507813 18.960938 201.363281 15.234375 C 200.289063 17.3125 200.660156 21.699219 201.734375 23.777344 "/>
<path style=" stroke:none;fill-rule:nonzero;fill:rgb(0%,0%,0%);fill-opacity:1;" d="M 242.296875 29.355469 C 240.144531 33.871094 235.34375 35.59375 230.753906 35.234375 C 229.390625 36.382813 227.886719 37.167969 226.308594 37.816406 C 239.570313 40.464844 242.078125 32.726563 242.296875 29.355469 "/>
<path style=" stroke:none;fill-rule:nonzero;fill:rgb(0%,0%,0%);fill-opacity:1;" d="M 43.230469 16.09375 C 47.746094 19.535156 53.554688 21.257813 59.429688 19.75 C 58.070313 13.730469 47.960938 4.550781 41.511719 7.347656 L 44.59375 10.574219 C 49.378906 10.574219 52.476563 13.65625 52.335938 15.234375 C 52.335938 15.234375 38.03125 15.25 37.066406 0.96875 C 37.066406 0.96875 35.703125 4.535156 35.703125 9.570313 C 31.976563 11.507813 28.679688 14.519531 25.382813 17.3125 C 25.453125 18.746094 26.53125 19.824219 26.886719 21.113281 C 30.257813 19.535156 33.339844 17.3125 36.707031 15.738281 C 36.707031 15.738281 37.148438 31.640625 40.292969 37.597656 C 25.929688 37.597656 15.703125 44.984375 15.703125 44.984375 C 19.648438 44.050781 35.886719 38.574219 52.695313 42.117188 C 40.550781 34.539063 42.945313 20.828125 43.230469 16.09375 "/>
<path style=" stroke:none;fill-rule:nonzero;fill:rgb(0%,0%,0%);fill-opacity:1;" d="M 258.28125 26.917969 L 255.914063 30.933594 C 260.429688 32.511719 264.945313 34.519531 268.960938 36.953125 L 250.394531 36.597656 C 253.335938 32.867188 256.273438 29.070313 258.136719 24.914063 L 253.476563 22.617188 C 249.175781 28.425781 245.160156 34.445313 239.570313 39.535156 C 238.496094 40.109375 237.203125 40.394531 236.417969 41.253906 C 248.53125 41.042969 274.921875 39.332031 282.867188 43.621094 C 282.511719 42.1875 274.921875 29.355469 258.28125 26.917969 "/>
<path style=" stroke:none;fill-rule:nonzero;fill:rgb(0%,0%,0%);fill-opacity:1;" d="M 206.023438 30.71875 C 207.960938 32.867188 210.394531 34.660156 213.191406 35.234375 C 216.128906 36.167969 218.28125 34.300781 220.648438 33.515625 C 220.648438 33.515625 216.992188 32.867188 215.269531 32.296875 C 212.835938 29.785156 209.25 30.574219 206.023438 30.71875 "/>
</g>
</svg>
