<?xml version="1.0" encoding="UTF-8" standalone="no"?>
<svg
   xmlns:dc="http://purl.org/dc/elements/1.1/"
   xmlns:cc="http://creativecommons.org/ns#"
   xmlns:rdf="http://www.w3.org/1999/02/22-rdf-syntax-ns#"
   xmlns:svg="http://www.w3.org/2000/svg"
   xmlns="http://www.w3.org/2000/svg"
   viewBox="0 0 958.71997 826.35999"
   height="826.35999"
   width="958.71997"
   xml:space="preserve"
   id="svg2"
   version="1.1"><metadata
     id="metadata8"><rdf:RDF><cc:Work
         rdf:about=""><dc:format>image/svg+xml</dc:format><dc:type
           rdf:resource="http://purl.org/dc/dcmitype/StillImage" /></cc:Work></rdf:RDF></metadata><defs
     id="defs6" /><g
     transform="matrix(1.3333333,0,0,-1.3333333,0,826.36)"
     id="g10"><g
       transform="scale(0.1)"
       id="g12"><path
         id="path14"
         style="fill:#181615;fill-opacity:1;fill-rule:nonzero;stroke:none"
         d="m 3181.63,6191.02 c 88.04,27.21 275.84,-29.17 229.5,-153.9 -106.11,-15.04 -272.89,13.06 -229.5,153.9 9.7,3 -6.1,-19.8 0,0" /><path
         id="path16"
         style="fill:#181615;fill-opacity:1;fill-rule:nonzero;stroke:none"
         d="m 2582.83,6145.42 c 44.11,4.45 139.16,68.24 174.15,16.71 36.99,-54.49 -12.52,-115.52 -62.43,-134.4 -148.22,-56.05 -296.87,94.07 -111.72,117.69 49.6,5 -38.41,-4.9 0,0" /><path
         id="path18"
         style="fill:#181615;fill-opacity:1;fill-rule:nonzero;stroke:none"
         d="m 2653.53,5880.62 c -35.06,69.58 60.17,37.49 83.1,-19.5 27.54,-70.19 25.95,-160.96 45.48,-234.98 43.24,-163.84 65.1,-384.91 151.9,-531.74 10.95,-18.51 43.09,-144.07 -35.77,-90.57 -44.42,30.14 -57.91,173.77 -72.53,228.02 -57.81,214.5 -99.8,439.06 -172.18,648.77 -13.51,26.8 20.4,-59.1 0,0" /><path
         id="path20"
         style="fill:#181615;fill-opacity:1;fill-rule:nonzero;stroke:none"
         d="m 3213.63,5900.62 c 30.95,57.36 83.06,4.4 67.92,-45.75 -26.71,-88.42 -68.65,-166.53 -82.52,-259.1 -14.95,-99.87 -24.93,-200.08 -34.21,-300.59 -7.9,-85.68 35.4,-222.04 -30.99,-283.06 -68.28,49.98 -30.4,300.16 -15.8,369 12.79,175.83 38.44,352.13 95.6,519.5 15,27.8 -57.1,-167.2 0,0" /><path
         id="path22"
         style="fill:#181615;fill-opacity:1;fill-rule:nonzero;stroke:none"
         d="m 3905.43,5919.42 c 107.45,-23.73 195.36,-135.11 122.39,-235.2 -97.86,11.93 -194.1,161.89 -122.39,235.2 23.99,-5.3 -13.41,-13.7 0,0" /><path
         id="path24"
         style="fill:#181615;fill-opacity:1;fill-rule:nonzero;stroke:none"
         d="m 3607.23,5567.82 c 51.84,30.95 103.32,62.95 150.47,100.85 107.35,86.31 65.73,-14.38 15.52,-68.15 -100.14,-105.45 -243.22,-146.86 -337.83,-271.48 -35.35,-46.57 -64.09,-103.58 -77.59,-160.81 -20.62,-87.43 -82.76,-69.15 -55.26,20.76 46.21,151.14 165.89,301.25 304.69,378.83 69.2,41.3 -73,-40.8 0,0" /><path
         id="path26"
         style="fill:#181615;fill-opacity:1;fill-rule:nonzero;stroke:none"
         d="m 1885.13,5231.32 c 1.36,53.57 27.2,131.93 90.52,101.94 64.35,-30.48 45.05,-118.16 40.48,-173.14 -10.28,-180.04 -159.58,-66.65 -131,71.2 1.1,43.1 -13.1,-63.2 0,0" /><path
         id="path28"
         style="fill:#181615;fill-opacity:1;fill-rule:nonzero;stroke:none"
         d="m 5186.03,5338.22 c 145.43,55.46 313.57,-194.63 124.25,-255.02 -133.96,-42.73 -251.14,182.4 -124.25,255.02 31.2,11.9 -45.61,-26.1 0,0" /><path
         id="path30"
         style="fill:#181615;fill-opacity:1;fill-rule:nonzero;stroke:none"
         d="m 4841.52,5223.92 c 37.2,48.04 85.6,90.65 146.11,105.7 48.86,-130.6 23.29,-299.29 185.5,-359.4 142.1,-63.55 242.39,78.88 354.9,116.7 94.23,-201.06 -209.51,-396 -356.12,-416.52 -183.72,-25.71 -353.93,-327.1 -450.39,-466.98 -146.35,-156.87 -266.89,-354.85 -382.46,-534.9 -55.35,-86.25 -119.26,-156.79 -187.21,-232.72 -94.79,-105.92 -156.57,-130.99 -283.13,-193.48 -62.68,82.59 218.25,330.69 251.41,408.6 69.3,166.07 240.01,294.36 333,449.2 110.94,195.26 265.9,373.44 389.58,562 53.34,81.33 51.62,140.04 -12.35,212.1 -95.45,107.52 -45.81,241.62 11.16,349.7 37.41,48.3 -27.19,-51.6 0,0" /><path
         id="path32"
         style="fill:#181615;fill-opacity:1;fill-rule:nonzero;stroke:none"
         d="m 2104.73,5274.72 c 127.51,-87.49 274.63,-2.32 409.71,-35.42 54.35,-13.32 315.6,-265.72 198.71,-276.47 -48.77,-4.48 -58.97,76.67 -83.33,103.29 -63.68,74.19 -103.58,116.16 -206.82,112.97 -61.34,-1.89 -421.2,-34.92 -318.27,95.63 85.69,-58.8 -10.8,-13.7 0,0" /><path
         id="path34"
         style="fill:#181615;fill-opacity:1;fill-rule:nonzero;stroke:none"
         d="m 3699.73,5254.02 c 166.07,52.64 95.04,-265.55 61.7,-341 -57.15,-105.11 -122.07,-180.97 -224.48,-246.66 -58.24,-37.35 -195.07,-75.62 -228.14,-139.05 -30.94,-59.36 47.4,-209.73 60.76,-266.75 23.03,-98.3 78.67,-183.54 107.75,-279.24 39.97,-96.42 67.27,-190.04 145.81,-261.9 -25.66,-54.79 -134.16,-80.53 -182.91,-127.9 -75.29,88.49 -81.3,285.26 -124.13,395.81 -57.11,147.44 -137.95,285.68 -191.67,433.99 -42.8,102.8 -245.86,76.07 -344.29,126.2 -153.42,88.49 -275.4,153.48 -318.83,342.76 -12.57,54.8 -13.87,94.49 40.53,123.04 45.49,-47.61 4.44,-73.58 79.14,-122.7 143.39,-94.3 299.73,-87.01 463.3,-82.53 131.09,3.59 254.4,58.82 361.79,130.76 69.52,46.56 132.85,102.44 187.05,166.23 29.01,34.15 64.6,131.33 106.62,148.94 28.4,9 -42.01,-17.6 0,0" /><path
         id="path36"
         style="fill:#181615;fill-opacity:1;fill-rule:nonzero;stroke:none"
         d="m 5870.53,4704.52 c 149.97,16.79 102.04,-155.06 -27.94,-147.22 -169.15,10.19 -78.75,123.75 27.94,147.22 37.5,4.2 -33.21,-7.3 0,0" /><path
         id="path38"
         style="fill:#181615;fill-opacity:1;fill-rule:nonzero;stroke:none"
         d="m 1609.33,4465.22 c 106.89,130.13 274.09,-367 386.4,-395.2 121.21,-44.93 216.42,-113.2 318.71,-191.57 48.54,-37.19 75.62,-78.72 114.8,-124.29 55.13,-64.12 3.19,-127.95 5.78,-216.14 -165.05,150.56 -291.87,344.42 -518.52,417.32 -198.13,63.72 -372.31,-263.66 -559.87,-14.12 91.23,70.96 177.34,40.65 249.05,159.88 61.58,102.38 41.77,258.29 3.65,364.12 11.5,14 11.2,-31.1 0,0" /><path
         id="path40"
         style="fill:#181615;fill-opacity:1;fill-rule:nonzero;stroke:none"
         d="m 6231.12,4382.32 c 21.76,84.12 103.86,144.58 163.38,55.38 106.07,-158.97 -187.47,-257.73 -163.38,-55.38 10.4,40.2 -6.7,-56.3 0,0" /><path
         id="path42"
         style="fill:#181615;fill-opacity:1;fill-rule:nonzero;stroke:none"
         d="m 5758.83,4423.12 c 99.38,143.2 84.35,-108.31 62.69,-161.5 -18.46,-72.94 -78.95,-329.25 -148.7,-365.4 -106.63,-4.92 23.16,174.56 35.86,203.88 44.97,103.71 95.29,214.74 50.15,323.02 11.8,17 9.79,-23.5 0,0" /><path
         id="path44"
         style="fill:#181615;fill-opacity:1;fill-rule:nonzero;stroke:none"
         d="m 5190.42,4376.12 c 34.91,41.75 250.07,107.74 191.49,9.15 -47.24,-79.52 -209.2,-168.65 -191.49,-9.15 25,29.9 -3.59,-32.4 0,0" /><path
         id="path46"
         style="fill:#181615;fill-opacity:1;fill-rule:nonzero;stroke:none"
         d="m 1517.03,4349.02 c 102.86,-1.27 3.38,-283 -121.4,-288 -144.38,43.41 44.55,269.24 121.4,288 24.1,-0.3 -63.5,-15.5 0,0" /><path
         id="path48"
         style="fill:#181615;fill-opacity:1;fill-rule:nonzero;stroke:none"
         d="m 5399.02,4273.32 c 116.93,68.17 173.59,-190.3 152.32,-253.6 -14.77,-43.92 -102.66,-324.47 -158.23,-268.48 -42.16,42.47 83.83,219.79 100.4,275.7 15.03,50.79 23.42,128.77 -31.72,161.09 -11.73,6.87 -134.27,62.76 -62.77,85.29 12.01,7 -16.5,-5.2 0,0" /><path
         id="path50"
         style="fill:#181615;fill-opacity:1;fill-rule:nonzero;stroke:none"
         d="m 6117.72,4216.52 c 31.11,39.55 113.15,34.76 68.65,-27.29 -38.68,-53.93 -100.09,-85.46 -149.89,-126.46 -164.32,-135.3 -298.34,-306.76 -461.26,-444.15 -33.58,-48.39 -124.1,14.65 -30.89,61.9 73.43,36.02 127.13,98.95 182.06,157.37 124.24,132.13 272.5,241.81 391.33,378.63 13.61,17.3 -32.4,-37.3 0,0" /><path
         id="path52"
         style="fill:#181615;fill-opacity:1;fill-rule:nonzero;stroke:none"
         d="m 6454.93,3940.92 c -23.12,41.31 -11.76,92 16.32,127.41 49.3,62.15 87.23,-8.88 122.88,-49.11 8.01,-75.31 -92.82,-181.63 -139.2,-78.3 -30.91,55.2 11.4,-25.4 0,0" /><path
         id="path54"
         style="fill:#181615;fill-opacity:1;fill-rule:nonzero;stroke:none"
         d="m 5171.43,3924.02 c 33.34,46.89 134.88,159.46 119.44,24.46 -10.49,-91.66 10.15,-207.9 29.26,-297.66 22.71,-185.36 248.21,-399.05 455,-306.2 30.88,5.66 53.25,-5.78 67.1,-34.3 -32.13,-36.87 -73.84,-89.89 -117.94,-113.01 -100.66,-52.77 -189.64,-62.71 -298.63,-43.11 -85.99,15.47 -236.48,109.39 -306.85,23.25 -83.31,-102 -207.99,-183.58 -309.21,-267.62 -170.25,-141.35 -343.67,-294.44 -527.11,-417.98 -179.14,-120.66 -344.62,-321.12 -540.66,-408.93 -77.1,-36.81 -195.05,-123.79 -229.11,-203.1 -3.59,-112.68 37.5,-219.77 34.65,-332.52 -2.46,-97.58 -38.79,-201.84 21.86,-287.38 -90.48,-72.62 -130.81,-204.8 -195.6,-298.498 -27.19,156.458 -20.44,323.558 -34.19,481.188 -9.73,111.6 -11.11,359.39 -121.44,422.01 -147.45,83.67 -279.72,273.38 -376.28,409.62 -89.54,126.35 -263.77,72.43 -365.73,189.8 -65.03,74.87 -133.2,300.44 -76.76,390.18 81.53,-8.75 128.62,-90.16 205.51,-128.57 74.71,-37.32 135.38,-70.78 220.19,-79.83 121.72,12 295.46,114.41 336.6,236.9 92.67,245.85 96.21,-71.94 78.37,-178.49 -14.45,-86.34 -29.05,-128.45 -96.69,-179.68 -26.67,-20.19 -106.24,-81.45 -113.39,-113.53 -22.58,-86.49 185.63,-292.02 254.71,-338.7 279.55,-5.91 619.57,290.6 828.8,457.71 252.42,201.59 489.27,417.45 736.29,625.49 115.53,99.02 237.79,198.13 209.52,355.75 -31.14,173.65 32.02,270.29 112.29,412.75 25.09,35.3 -35.1,-62.3 0,0" /><path
         id="path56"
         style="fill:#181615;fill-opacity:1;fill-rule:nonzero;stroke:none"
         d="m 6210.53,3933.92 c 32.33,24.14 63.8,46.66 92.63,12.22 40.77,-48.67 -76.9,-64.53 -98.34,-76.22 -137.94,-68.17 -288.11,-142.15 -400.99,-249.5 -27.61,-20.37 -60.89,-40.46 -86.61,-13.73 -39.22,40.76 79.65,80.86 102.01,99.33 121.07,92.62 259.7,153.48 391.3,227.9 22.1,16.5 -60.31,-34.1 0,0" /><path
         id="path58"
         style="fill:#181615;fill-opacity:1;fill-rule:nonzero;stroke:none"
         d="m 2665.53,3685.42 c 96.84,49.49 391.97,-17.18 229.69,-147.53 -108.68,-87.29 -380.21,74.77 -229.69,147.53 58.5,29.9 -30,-14.5 0,0" /><path
         id="path60"
         style="fill:#181615;fill-opacity:1;fill-rule:nonzero;stroke:none"
         d="m 3109.93,3622.52 c 80.07,43.14 177.85,-147.53 23.2,-190.2 -92.4,29.61 -144.86,153.48 -23.2,190.2 14.1,7.6 -55,-16.6 0,0" /><path
         id="path62"
         style="fill:#181615;fill-opacity:1;fill-rule:nonzero;stroke:none"
         d="m 3481.92,3489.32 c 24.9,140.1 209.22,87.08 196.61,-39.3 -83.86,-149.25 -165.1,-97.04 -196.61,39.3 7.01,39.4 6.41,-27.7 0,0" /><path
         id="path64"
         style="fill:#181615;fill-opacity:1;fill-rule:nonzero;stroke:none"
         d="m 5794.93,3524.32 c 129.86,10.36 238.98,93.85 371.77,37.34 49.65,-21.13 94.95,-58.83 129.77,-99.74 33.99,-39.93 9.83,-123.49 -45.35,-84.53 -42.6,30.09 -10.12,72.91 -61.95,106.65 -50.36,32.78 -102.5,44.45 -162.07,38.08 -94.59,-10.11 -369.23,-135.31 -418.97,-83.8 46.91,53.93 118.99,74.71 186.8,86 89,7.1 -67.91,-11.3 0,0" /><path
         id="path66"
         style="fill:#181615;fill-opacity:1;fill-rule:nonzero;stroke:none"
         d="m 2729.53,3421.52 c 10.63,34.19 53.64,73.94 87.97,37.09 43.33,-46.52 -7.74,-79.43 -19.46,-133.3 -29.31,-134.79 -23.83,-311.77 -1.49,-446.71 1.22,-7.36 13.1,-124.83 -46.93,-83.58 -32.94,17.7 -19.56,124.66 -20.37,146.68 -5.25,144.06 45.27,347.97 0.28,479.82 7.9,25.4 5.69,-16.7 0,0" /><path
         id="path68"
         style="fill:#181615;fill-opacity:1;fill-rule:nonzero;stroke:none"
         d="m 2139.73,3339.22 c 40.28,96.23 184.75,128.04 263.7,62.1 -55.86,-78 -195.33,-159.21 -263.7,-62.1 24.2,57.8 13.8,-19.6 0,0" /><path
         id="path70"
         style="fill:#181615;fill-opacity:1;fill-rule:nonzero;stroke:none"
         d="m 3273.33,3341.42 c 29.48,30.17 102.25,125.27 138.7,46 -1.32,-25.69 -115.23,-103.79 -130.57,-119.68 -110.58,-114.5 -211.41,-256.67 -285.06,-398.06 -22.6,-43.39 -20.43,-77.97 -72.37,-85.06 -87.83,27.16 16.07,111.05 40.85,148.81 95.32,145.16 198.35,273.83 308.45,407.99 29.8,30.5 -42.1,-51.3 0,0" /><path
         id="path72"
         style="fill:#181615;fill-opacity:1;fill-rule:nonzero;stroke:none"
         d="m 2958.43,3333.62 c 11.71,59.1 127.59,112.25 115.3,27 -8.28,-54.84 -103.1,-123.37 -121.79,-193.79 -9.69,-36.52 -60.79,-184.64 -107.81,-66.81 26.2,77.62 76.51,160.39 114.3,233.6 6.5,32.8 -28.81,-55.8 0,0" /><path
         id="path74"
         style="fill:#181615;fill-opacity:1;fill-rule:nonzero;stroke:none"
         d="m 6218.43,3285.22 c 79.43,25.43 236.92,-33.9 119.31,-119.78 -106.31,-77.64 -284.02,35.52 -119.31,119.78 35,11.2 -30.1,-15.4 0,0" /><path
         id="path76"
         style="fill:#181615;fill-opacity:1;fill-rule:nonzero;stroke:none"
         d="m 2287.83,3229.72 c 60.53,75.7 100.07,-1.18 147.28,-53.86 37.15,-41.45 229.22,-251.82 211.35,-302.15 -41.69,-117.41 -125.04,87.98 -144.83,116.35 -62.71,89.86 -153.3,155.43 -213.8,239.66 12.39,15.5 11.99,-16.7 0,0" /><path
         id="path78"
         style="fill:#181615;fill-opacity:1;fill-rule:nonzero;stroke:none"
         d="m 3246.03,3109.92 c 118.38,148.99 337.94,-7.58 239.39,-86.7 -53.66,30.45 -37.13,117.39 -109.87,114.23 -76.11,-3.31 -56.21,-103.89 -129.52,-27.53 26.69,33.6 12.1,-12.6 0,0" /><path
         id="path80"
         style="fill:#181615;fill-opacity:1;fill-rule:nonzero;stroke:none"
         d="m 3578.33,3046.82 c 128.93,96.3 198.39,56.67 92.81,-74.66 -33.8,-42.05 -45.51,-66.05 -96.01,-88.54 -75.55,37.29 -61.23,116.65 3.2,163.2 33.19,24.8 -35.3,-25.5 0,0" /><path
         id="path82"
         style="fill:#181615;fill-opacity:1;fill-rule:nonzero;stroke:none"
         d="m 1384.82,2862.22 c 218.99,53.92 349.54,-20.97 517.21,-153.9 159.85,-168.07 330.24,-331.5 481.36,-506.96 138.42,-160.7 299.79,-347.1 394.63,-538.03 106.67,-214.76 -20.66,-350.48 -238.4,-236.81 -183.82,96.53 -327.44,191.33 -483.07,330.95 -178.73,160.33 -329.49,343.01 -550.73,451.67 -77.11,37.88 -160.44,66.47 -246.79,71.57 -44.24,2.61 -199.67,-66.49 -220.58,-12.05 -60.341,157.08 466.99,11.16 513.36,-13.48 360.76,-191.76 578.41,-562.68 949.23,-734.58 47.96,-22.24 167.77,-110.14 220.78,-67.89 71.63,57.1 -40.42,228.55 -72.4,279.03 -117.89,186.05 -249.74,364.78 -403.36,523.03 -142.92,147.23 -283.49,315.47 -443.24,443.8 -198.12,159.16 -375.39,108.52 -600.01,41.56 C 1054.72,2695.98 898.992,2578.42 781.023,2481.72 575.508,2305.11 421.383,2249.57 151.625,2244.82 332.883,1901.43 714.02,2133.17 978.563,1984.8 1251.19,1831.88 1436.94,1542.41 1657.2,1329.31 c 108.55,-105.02 270.61,-225.78 419.51,-260.21 190.05,-43.93 353.3,42.5 519.52,125.62 20.22,2.35 203.76,0.03 107,-53.9 -77.7,-33.48 -167.02,-40.67 -246.8,-74.6 -172.92,-73.54 -366.91,-94.111 -535.42,4.67 -318.1,186.45 -508.18,474.01 -777.12,714.09 -145.917,130.26 -248.109,179.92 -442.242,187.12 -165.421,6.13 -323.25,-21.53 -464.019,90.71 -31.473,25.22 -291.7149,256.49 -206.3477,258.87 187.1167,5.22 343.0347,-25.35 514.9457,66.84 261.113,206.54 515.303,385.05 838.593,473.7 99.51,24.5 -43.39,-11.9 0,0" /><path
         id="path84"
         style="fill:none;stroke:#100f0d;stroke-width:28.3465004;stroke-linecap:round;stroke-linejoin:round;stroke-miterlimit:10;stroke-dasharray:none;stroke-opacity:1"
         d="m 1384.82,2862.22 c 218.99,53.92 349.54,-20.97 517.21,-153.9 159.85,-168.07 330.24,-331.5 481.36,-506.96 138.42,-160.7 299.79,-347.1 394.63,-538.03 106.67,-214.76 -20.66,-350.48 -238.4,-236.81 -183.82,96.53 -327.44,191.33 -483.07,330.95 -178.73,160.33 -329.49,343.01 -550.73,451.67 -77.11,37.88 -160.44,66.47 -246.79,71.57 -44.24,2.61 -199.67,-66.49 -220.58,-12.05 -60.341,157.08 466.99,11.16 513.36,-13.48 360.76,-191.76 578.41,-562.68 949.23,-734.58 47.96,-22.24 167.77,-110.14 220.78,-67.89 71.63,57.1 -40.42,228.55 -72.4,279.03 -117.89,186.05 -249.74,364.78 -403.36,523.03 -142.92,147.23 -283.49,315.47 -443.24,443.8 -198.12,159.16 -375.39,108.52 -600.01,41.56 C 1054.72,2695.98 898.992,2578.42 781.023,2481.72 575.508,2305.11 421.383,2249.57 151.625,2244.82 332.883,1901.43 714.02,2133.17 978.563,1984.8 1251.19,1831.88 1436.94,1542.41 1657.2,1329.31 c 108.55,-105.02 270.61,-225.78 419.51,-260.21 190.05,-43.93 353.3,42.5 519.52,125.62 20.22,2.35 203.76,0.03 107,-53.9 -77.7,-33.48 -167.02,-40.67 -246.8,-74.6 -172.92,-73.54 -366.91,-94.111 -535.42,4.67 -318.1,186.45 -508.18,474.01 -777.12,714.09 -145.917,130.26 -248.109,179.92 -442.242,187.12 -165.421,6.13 -323.25,-21.53 -464.019,90.71 -31.473,25.22 -291.7149,256.49 -206.3477,258.87 187.1167,5.22 343.0347,-25.35 514.9457,66.84 261.113,206.54 515.303,385.05 838.593,473.7 99.51,24.5 -43.39,-11.9 0,0 z" /><path
         id="path86"
         style="fill:#181615;fill-opacity:1;fill-rule:nonzero;stroke:none"
         d="m 5229.02,2453.92 c 322.22,16.68 620.53,-39.11 933.35,-103.17 262.62,-53.78 610.7,-163.67 789.83,-376.02 89,-105.51 381.82,-546.43 113.15,-583.12 -133.07,-18.17 -197.27,147.9 -349.93,108.51 -141.11,-56.27 -281.58,-134.92 -415.8,-205.95 -545.57,-288.7 -1202.33,-622.088 -1823.61,-340.131 -152.03,69.001 -291.16,171.231 -343.89,334.171 -3.44,99.21 -27.36,317.38 -175.54,224.06 -114.87,-72.36 -193.09,-238.94 -254.81,-355.18 -52,-97.95 -120.24,-304.36 -227.24,-351.668 -63.63,133.578 254.87,508.208 326.32,625.168 43.88,71.8 159.27,244.28 260.29,191.77 124.39,-64.67 119.24,-176.68 142.89,-295.87 42.98,-216.58 341.98,-341.728 536.86,-381.908 256.39,-52.871 531.78,-9.07 779.49,63.508 251.96,73.81 475.97,210.28 707.43,329.93 185.7,95.99 548.52,368.92 742.5,176.34 134.83,-133.86 111.27,68.63 76.36,152.96 -45.8,110.67 -104.8,208.98 -182.29,300.26 -136.78,161.15 -497.5,279.66 -696.35,317.21 -286.73,54.13 -561.85,105.42 -854.6,103.18 -264.72,-2.01 -575.75,-112.52 -813.61,-223.05 -106.91,-74.46 -666.4,-282.63 -338.09,-464.21 99.73,-53.11 267.4,2.01 371.3,21.7 142.71,27.04 276.84,107.91 417.5,147.52 261.71,73.7 587.08,76.33 857.48,61.98 135.85,-7.2 264.36,-34.45 394.55,-71.75 64.08,-18.36 120.9,-57.48 183.56,-79.85 54.46,-17 61.29,-110.58 -20.55,-77.06 -489.64,200.52 -1114.82,250.94 -1615.64,32.77 -161.97,-72.6 -426.57,-178.74 -604.07,-107.45 -211.05,84.77 -139.16,269.4 -26.63,396.55 101.89,131.88 359.91,215.78 511.27,274.05 183.83,70.75 404,123.09 598.52,154.75 158.41,8.2 -85.99,-14 0,0" /><path
         id="path88"
         style="fill:none;stroke:#100f0d;stroke-width:28.3465004;stroke-linecap:round;stroke-linejoin:round;stroke-miterlimit:10;stroke-dasharray:none;stroke-opacity:1"
         d="m 5229.02,2453.92 c 322.22,16.68 620.53,-39.11 933.35,-103.17 262.62,-53.78 610.7,-163.67 789.83,-376.02 89,-105.51 381.82,-546.43 113.15,-583.12 -133.07,-18.17 -197.27,147.9 -349.93,108.51 -141.11,-56.27 -281.58,-134.92 -415.8,-205.95 -545.57,-288.7 -1202.33,-622.088 -1823.61,-340.131 -152.03,69.001 -291.16,171.231 -343.89,334.171 -3.44,99.21 -27.36,317.38 -175.54,224.06 -114.87,-72.36 -193.09,-238.94 -254.81,-355.18 -52,-97.95 -120.24,-304.36 -227.24,-351.668 -63.63,133.578 254.87,508.208 326.32,625.168 43.88,71.8 159.27,244.28 260.29,191.77 124.39,-64.67 119.24,-176.68 142.89,-295.87 42.98,-216.58 341.98,-341.728 536.86,-381.908 256.39,-52.871 531.78,-9.07 779.49,63.508 251.96,73.81 475.97,210.28 707.43,329.93 185.7,95.99 548.52,368.92 742.5,176.34 134.83,-133.86 111.27,68.63 76.36,152.96 -45.8,110.67 -104.8,208.98 -182.29,300.26 -136.78,161.15 -497.5,279.66 -696.35,317.21 -286.73,54.13 -561.85,105.42 -854.6,103.18 -264.72,-2.01 -575.75,-112.52 -813.61,-223.05 -106.91,-74.46 -666.4,-282.63 -338.09,-464.21 99.73,-53.11 267.4,2.01 371.3,21.7 142.71,27.04 276.84,107.91 417.5,147.52 261.71,73.7 587.08,76.33 857.48,61.98 135.85,-7.2 264.36,-34.45 394.55,-71.75 64.08,-18.36 120.9,-57.48 183.56,-79.85 54.46,-17 61.29,-110.58 -20.55,-77.06 -489.64,200.52 -1114.82,250.94 -1615.64,32.77 -161.97,-72.6 -426.57,-178.74 -604.07,-107.45 -211.05,84.77 -139.16,269.4 -26.63,396.55 101.89,131.88 359.91,215.78 511.27,274.05 183.83,70.75 404,123.09 598.52,154.75 158.41,8.2 -85.99,-14 0,0 z" /><path
         id="path90"
         style="fill:#181615;fill-opacity:1;fill-rule:nonzero;stroke:none"
         d="m 2787.12,1126.52 c 46.85,52.76 85.84,112.36 138.01,160.39 44.89,9.39 49.05,-52.55 70.09,-74.49 93.78,-102.71 175.82,-214.658 276.44,-311.408 87.3,-83.942 156.12,-163.391 216.77,-269.391 70.4,-109.289 -1.79,-342.211 11.13,-466.191 11.59,-111.1605 52.09,-233.2816 -90.83,-120.6097 -66.4,56.3987 -78.18,24.3985 -88.01,124.9417 -8.97,91.718 -9.62,183.269 -16.39,275.019 C 3292.2,609.109 3173.37,675 3076.16,794.41 c -91.27,112.11 -170.75,245.39 -289.04,332.11 46.81,52.7 46.51,-34.1 0,0" /></g></g></svg>