<?xml version="1.0"?>
<svg xmlns="http://www.w3.org/2000/svg" id="Layer_1" data-name="Layer 1" viewBox="0 0 443.47 212.11" width="443" height="212"><defs><style>.cls-1{fill:#060808;}</style></defs><path class="cls-1" d="M296.94,310.94c6.75-5.09,3.29-14.58,7.94-20.8,2,4.06,2.78,8.58,3.36,13,.18,3.48,3.25,5.64,5.14,8.25,1.31,4.75,3,9.44,3.36,14.41a34,34,0,0,0,4.11,14.24c2.87,1.45,6.16,1.7,9.29,2.23,5.94,1.12,11.83-.87,17.73-1.42,11.32-1.58,23-2.14,33.82-6.15,10.9-5.29,23.1-8.6,35.29-7.61a73,73,0,0,1,19.1,4.87c13.44,5.36,28,6.56,42.17,8.79,16.42,1,33.2-.43,49.22,4.18-6.68,9.13-19,10.75-29.5,9.66a127.16,127.16,0,0,0-19.22-.51c14.66,6.22,31.11,6.86,45.38,14.2-4.09,3.25-8.94,5.69-14.22,6-11.44,1.3-21.83-4.6-32.52-7.57,9.15,7.31,20.14,11.65,29.75,18.25-4.93,3.5-11.31,6-17.34,4.09-10.47-2.75-16.84-12.41-26.33-17.05,2.78,3,5.79,5.81,8.6,8.8,5,5.59,11,10.17,16.37,15.39-5.67,2.92-13.23,4.06-18.39-.5a142.94,142.94,0,0,1-18.16-20.16c5.11,9.09,13.32,17,14.57,27.78-2.31,1.18-4.69,2.83-7.42,2.48a9.11,9.11,0,0,1-5.62-3.51c.27,1.8,1.7,4.62-.74,5.39-2.61,1.62-5.74,1.16-8.51.3.81,3-3,3.86-5.17,4.11-3.12.63-5.94-1-8.32-2.77-4.16,3-9.56,1.51-14,0a10.47,10.47,0,0,1-12-1.15c-2.31-2.47-2.51-6.05-3.17-9.19A40.45,40.45,0,0,1,400,404.9c-1.74,1.56-4.57,1.24-6.62.43-2.47-.75-2.52-3.72-3.23-5.77-.7,2.72.05,7.24-3.31,8.24-3.54.52-6.35-2.35-8.08-5.1-.52,2.57-.73,5.38-2.32,7.57a7.84,7.84,0,0,1-8.25-3.6c-.13,1.37-.27,2.75-.41,4.12-3.72.58-7.71.54-10.3-2.6-.26,2-.5,4.09-.75,6.15-3.67.15-7.53-.79-9.17-4.42-.19,2.31-.46,4.61-.77,6.91-2.91-.3-6.21-.22-8.48-2.38-1.75-1.77-2.23-4.33-3-6.61a53.24,53.24,0,0,1-1.21,8.62c-3.25-.59-7.37-1.7-8.22-5.42-1.8-7.22-.4-15.11-3.64-22-1.24,1.11-3.12,2-3.14,3.91a132.45,132.45,0,0,0-2.18,31c.39,7.34,3.31,14.17,6.37,20.74,6.37,14.89,15.13,28.56,22.47,43-4,2-8.06,4-12.1,6-5.57,2.73-10.73,6.6-17,7.74a46.36,46.36,0,0,1-21.59-.81c-4.56-1.32-8.4-4.26-12.76-6a132.56,132.56,0,0,1-11.95-5.91c5.69-11.12,11.52-22.18,16.74-33.54,3.76-8.12,7.62-16.35,9.17-25.23,2.51-12.7-.72-25.51-2.7-38l-3.24-2.16c-2.45,7.13-1.59,14.78-2.65,22.13-1,3.57-4.79,5.1-8.17,5.38-.6-2.48-1.2-4.95-1.69-7.45-.72,5.18-5.5,9.54-10.9,8.17-.94-2-.94-4.27-1.16-6.44-1.93,3.25-5.22,5.31-9.08,4.46-.35-2.07-.66-4.15-.91-6.23a24.12,24.12,0,0,1-3.2,3c-2.31.72-4.79.11-7.15,0-.18-1.36-.35-2.72-.51-4.07-1.71,3.21-5.22,5.32-8.8,3.64a60.12,60.12,0,0,1-1.67-7.73c-.94,4.54-5.71,6.76-10,5.68-.56-2.26-1.13-4.52-1.57-6.81-.82,1.62-1.08,3.77-2.82,4.72-2,1.24-4.42.7-6.62.7-.69-2.14-1.31-4.3-1.88-6.48-.6,2.94-.82,6.12-2.39,8.75-3.14,3.5-8.4,3.46-12.58,2.19-4.38,2.06-9.84,2.95-14.19.37-2.16,1.57-4.48,3.88-7.42,3.1-2.59-.48-6.21-.68-6.37-4.13l-2.82,1.63c-2.27-.64-4.54-1.28-6.79-2,.21-1.94.49-3.86.86-5.77-1.29,1.86-2.49,4.21-4.89,4.8-3.1.73-5.9-1.16-8.5-2.56,1.23-10.21,8.1-18.28,12.87-27C155,389,149.24,395.3,143.19,401.23c-5.12,4.33-12.91,4.2-18.6,1,4.48-5.08,10.22-8.91,14.43-14.25,3-3.62,6-7.2,9.22-10.64-8.2,4.91-14.15,12.95-22.85,17.05-6.57,3.21-14.27,1.42-20.2-2.35A89.42,89.42,0,0,1,115.92,385a120.92,120.92,0,0,0,19.76-13.44c-9.89,4.17-19.75,9.1-30.58,10.23-6.39.49-12.28-2.61-17.48-6,14-7.8,30.42-8.85,44.74-15.78A81.43,81.43,0,0,0,115,361.11c-10.69,1.33-23.2.56-31-7.85v-.88c14.55-4.53,29.88-4.48,44.94-5.37,8.12-.63,16.08-2.49,24.07-4,10.14-2,19.86-5.6,29.37-9.56,7.05-3.13,15-3.44,22.56-2.52a77.54,77.54,0,0,1,20.94,5.19c12.24,5.43,25.9,4.79,38.91,6.45,8.52,1.22,17.55,1.52,25.64-1.88,1.51-4.76,3-9.55,3.32-14.57.24-5.2,2-10.13,3.19-15.14Z" transform="translate(-84 -290.14)"/></svg>
