<?xml version="1.0"?>
<svg xmlns="http://www.w3.org/2000/svg" id="Layer_1" data-name="Layer 1" viewBox="0 0 695.32 609.57" width="695" height="610"><path d="M1155.69,217.72c-12.64-67.39-105.31-21.06-189.57,25.27S825.7,428.32,825.7,428.32s-9.71,3.05-3.5-10.53c5.49-12,2.06-18.1-2.38-21.14l38.81-90.17c1.59-1.24,3.59-4.2,5.2-7.94,2.31-5.38,2.94-10.28,1.39-10.94s-4.67,3.16-7,8.54c-1.62,3.74-2.39,7.22-2.2,9.23l-38.69,89.91c-3.92-1.74-7.52-1.58-5.7-1.36s-1.68.15-5.53,1.75l-38.86-90.3c.19-2-.58-5.49-2.19-9.23-2.31-5.38-5.44-9.2-7-8.54s-.93,5.56,1.39,10.94c1.62,3.74,3.61,6.7,5.2,7.94L803.63,397c-4.49,2.86-8,8.7-2.5,20.83,6.21,13.58-3.51,10.53-3.51,10.53S741.45,289.32,657.2,243s-176.94-92.66-189.57-25.27,11.23,67.39,18.25,96.88,14,110.91,37.92,130.57,120.76,21.05,120.76,21.05-108.13,59-106.72,94.07,30.89,230.26,91.27,233.06,99.7-88.45,116.55-132,37.92-132,46.34-134.78,1.41,57.56,7,71.6,12.64,12.29,12.64,12.29,7,1.75,12.64-12.29-1.4-74.41,7-71.6,29.49,91.26,46.34,134.78,56.17,134.79,116.55,132,89.87-198,91.27-233.06-106.72-94.07-106.72-94.07,96.89-1.4,120.77-21.05,30.88-101.09,37.91-130.57S1168.33,285.11,1155.69,217.72Z" transform="translate(-464 -183.85)"/></svg>
