<?xml version="1.0"?>
<svg xmlns="http://www.w3.org/2000/svg" xmlns:xlink="http://www.w3.org/1999/xlink" id="Layer_1" data-name="Layer 1" viewBox="0 0 1296.77 673.54" width="1297" height="674"><defs><style>.cls-1,.cls-2{fill:none;}.cls-2,.cls-6,.cls-8{stroke:#000;}.cls-2{stroke-miterlimit:10;}.cls-3{clip-path:url(#clip-path);}.cls-4,.cls-7{stroke:#fff;}.cls-4{stroke-width:75px;}.cls-5{clip-path:url(#clip-path-2);}.cls-6{stroke-width:40px;}.cls-7{stroke-width:100px;}.cls-8{stroke-width:60px;}.cls-9{fill:#fff;}</style><clipPath id="clip-path" transform="translate(16.77 33.54)"><rect class="cls-1" width="640" height="320"/></clipPath><clipPath id="clip-path-2" transform="translate(16.77 33.54)"><path class="cls-2" d="M0,0V160H746.67V320H640ZM640,0H320V373.33H0V320Z"/></clipPath></defs><rect x="16.77" y="33.54" width="1280" height="640"/><g class="cls-3"><path class="cls-4" d="M0,0,640,320M640,0,0,320" transform="translate(16.77 33.54)"/></g><g class="cls-5"><path class="cls-6" d="M0,0,640,320M640,0,0,320" transform="translate(16.77 33.54)"/></g><path class="cls-2" d="M0,0V160H746.67V320H640ZM640,0H320V373.33H0V320Z" transform="translate(16.77 33.54)"/><path class="cls-7" d="M320,0V373.33M0,160H746.67" transform="translate(16.77 33.54)"/><path class="cls-8" d="M320,0V342.5M0,160H662.5" transform="translate(16.77 33.54)"/><path d="M0,320H640V0H853.33V426.67H0Z" transform="translate(16.77 33.54)"/><g id="Comwlth"><path id="_7PS" data-name="7PS" class="cls-9" d="M320,384l18.51,57.56,56.55-21.41L361.6,470.51l52,30.85-60.23,5.24,8.29,59.89L320,522.67l-41.65,43.82,8.29-59.89-60.23-5.24,52-30.85-33.46-50.36,56.55,21.41Z" transform="translate(16.77 33.54)"/></g><g id="&#x3B1;Crucis"><path id="_7PS-2" data-name="7PS" class="cls-9" d="M960,487.62,968.81,515l26.93-10.2-15.93,24,24.76,14.7L975.88,546l4,28.52L960,553.65l-19.83,20.87L944.11,546l-28.68-2.49,24.76-14.7-15.93-24L951.18,515Z" transform="translate(16.77 33.54)"/></g><g id="&#x3B2;Crucis"><path id="_7PS-3" data-name="7PS" class="cls-9" d="M800,234.29l8.81,27.41,26.93-10.2-15.93,24,24.76,14.69-28.69,2.5,4,28.52L800,300.32l-19.83,20.87,3.94-28.52-28.68-2.5,24.76-14.69-15.93-24,26.92,10.2Z" transform="translate(16.77 33.54)"/></g><g id="&#x3B3;Crucis"><path id="_7PS-4" data-name="7PS" class="cls-9" d="M960,61l8.81,27.41,26.93-10.2-15.93,24,24.76,14.69-28.69,2.5,4,28.51L960,127l-19.83,20.87,3.94-28.51-28.68-2.5,24.76-14.69-15.93-24,26.92,10.2Z" transform="translate(16.77 33.54)"/></g><g id="&#x3B4;Crucis"><path id="_7PS-5" data-name="7PS" class="cls-9" d="M1102.22,191.62,1111,219l26.92-10.2-15.93,24,24.76,14.7L1118.11,250l4,28.52-19.84-20.87-19.83,20.87,3.95-28.52-28.69-2.49,24.76-14.7-15.93-24,26.93,10.2Z" transform="translate(16.77 33.54)"/></g><g id="&#x3B5;Crucis"><path id="_5PS" data-name="5PS" class="cls-9" d="M1024,320l7,17.08,18.39,1.35-14.09,11.9,4.4,17.91L1024,358.52l-15.67,9.72,4.4-17.91-14.09-11.9,18.39-1.35Z" transform="translate(16.77 33.54)"/></g></svg>
