<?xml version="1.0"?>
<svg xmlns="http://www.w3.org/2000/svg" id="Layer_1" data-name="Layer 1" viewBox="0 0 345.95 366.11" width="346" height="366"><defs><style>.cls-1,.cls-2,.cls-3,.cls-4{fill-rule:evenodd;}.cls-2{fill:none;}.cls-3{fill:#f5f6f6;}.cls-4{fill:#1e1e19;}</style></defs><path class="cls-1" d="M355.35,159.42c-.61,1.19-1.82,1.55-2.93,1.93a18.11,18.11,0,0,0-5.87,3.38,16.4,16.4,0,0,0-4.88,6,3.18,3.18,0,0,1-1.2,1.34c-1.69,1.26-3.45,2.43-5,3.86a12.61,12.61,0,0,0-2.41,2.94c-.29.48-.61.92-.15,1.52s-.14.83-.35,1.15a30.53,30.53,0,0,1-3.27,4c-.94,1-1.84,2.07-2.76,3.1a1.45,1.45,0,0,0-.23,2c.54.75.21,1.26-.29,1.89a48.7,48.7,0,0,1-4,4.28,13,13,0,0,0-2,2.43c-.34.54-.87,1.05-.21,1.75.34.35,0,.75-.15,1.08a13.8,13.8,0,0,1-2.91,4,51.33,51.33,0,0,0-3.94,4.53,2.89,2.89,0,0,0-.77,2.27,4.15,4.15,0,0,1-.72,2.35,36.31,36.31,0,0,1-3.43,5.71,9.24,9.24,0,0,0-1,1.72,2.79,2.79,0,0,0,.44,3.33,9.83,9.83,0,0,1,2,4.69,32.77,32.77,0,0,1,.14,13c-.25,1.31-.2,1.38,1.2,1.42,1.83.06,3.66,0,5.49.14,1.54.09,2.93.44,3.36,2.34.26,1.12,1.33,1.58,2.39,1.83,2.43.58,4.86,1.14,7.3,1.7.48.11,1,.26,1.45.35a1.39,1.39,0,0,1,1.12.88c.85,2.08,2.59,3.11,4.59,3.8,1.25.44,2.52.84,3.79,1.23a10.79,10.79,0,0,1,2.4,1.14,2.88,2.88,0,0,1,1.35,1.78,8.28,8.28,0,0,0,3.18,4.56q3.23,2.36,6.53,4.62A2.76,2.76,0,0,1,355,272c-.16,1.87.81,3.17,1.8,4.51a29.6,29.6,0,0,0,3.85,4.37,1.77,1.77,0,0,1,.65,2,5.74,5.74,0,0,0,.66,4.17,35.5,35.5,0,0,0,3.77,5.26c.56.76,1.08,1.54,1.64,2.31a1.85,1.85,0,0,1,.15,2.17,3.57,3.57,0,0,0,.1,3.61c1.32,2.62,2.48,5.33,3.7,8,.58,1.27.62,1.31-.5,2.21a1.86,1.86,0,0,0-.71,1.89,47.1,47.1,0,0,0,1.47,6.32c.34,1.22.6,2.47,1,3.7.29,1,.44,1.93-.5,2.72-.5.41-.28,1-.22,1.57a91.84,91.84,0,0,1,.58,11.12c0,.56.35,1.33-.35,1.63a2,2,0,0,1-2-.5,29.07,29.07,0,0,1-4-3.73c-.55-.63-1.18-1.17-1.78-1.75a3.3,3.3,0,0,0-3.67-.76,3,3,0,0,1-2.67-.31,47.12,47.12,0,0,1-5.69-3.77c-.58-.45-1-.72-1.69-.1a2.47,2.47,0,0,1-2.82.06c-1.89-.91-3.93-1.51-5.56-2.94-1.05-.92-2.24-1.28-3.44-.19-.48.45-.94.18-1.39,0a18.88,18.88,0,0,1-4.6-2.66l-3.23-2.35c-.36-.26-.72-.55-1.15-.07-1,1.11-2.19.89-3.38.45a39.86,39.86,0,0,1-6.6-3.13c-1.75-1.05-3.4-1.6-5.19-.07a2.87,2.87,0,0,1-2.41.32,11.72,11.72,0,0,1-4.4-1.89c-1-.65-2.05-1.33-3.09-2A6.3,6.3,0,0,0,299,313.2a3.58,3.58,0,0,1-3.34-1.42c-.65-.69-1.28-1.39-1.93-2.07a3.45,3.45,0,0,0-3-1.18,1.69,1.69,0,0,1-1.62-.6,5.21,5.21,0,0,0-.47-.47c-1.71-1.54-1.95-1.52-3.42.19a32.67,32.67,0,0,1-2.24,2.46,2,2,0,0,0-.64,1.92c.3,2.36.45,4.75.78,7.1.1.73,0,1.28-.61,1.5-2.37.85-2.22,2.78-2,4.67.11,1.16.18,2.32.26,3.48a4.16,4.16,0,0,1-2.27,4.29,1.81,1.81,0,0,0-.91,1.46,39.27,39.27,0,0,0-.26,5.31,16.12,16.12,0,0,1-.42,3,4.58,4.58,0,0,1-1.67,2.81,3.69,3.69,0,0,0-1.49,3.44c0,.84,0,1.67,0,2.51,0,2.21-.49,4.17-2.74,5.26-.73.35-1,1.19-1.27,1.91a30.17,30.17,0,0,0-1,4.19,24.24,24.24,0,0,1-.73,2.38,1.93,1.93,0,0,1-1,1.24,4.56,4.56,0,0,0-2.24,3c-.38,1.16-.66,2.35-1,3.52a4.84,4.84,0,0,1-3.16,3.59,2.53,2.53,0,0,0-1.31,1.2,48.26,48.26,0,0,1-3.31,4.6,7.77,7.77,0,0,1-4.55,2.87c-1.56.28-2,0-2.47-1.46-.36-1.11-.62-2.24-.94-3.36a2.68,2.68,0,0,0-1.91-2.08c-1.42-.39-1.91-1.59-2.11-2.91-.15-1-.22-2-.32-3-.16-1.57-.76-2.81-2.46-3.11a1.17,1.17,0,0,1-.93-.83c-.43-1-.86-1.93-1.26-2.9-.8-1.92-1.62-3.81-3.87-4.48-.55-.17-.67-.72-.8-1.19-.34-1.17-.65-2.35-1-3.54a4.8,4.8,0,0,0-1.3-2.28,2.07,2.07,0,0,0-1.89-.83c-.9.15-1.31-.33-1.54-1.11-.38-1.28-.77-2.55-1.16-3.82-.66-2.14-1.48-4.11-4-4.58-.48-.09-.64-.56-.86-.95a10.7,10.7,0,0,1-.95-3.51c-.11-.71-.24-1.41-.33-2.13-.14-1.16-.49-2.06-1.84-2.39a2,2,0,0,1-1.5-2.14,5.07,5.07,0,0,0-.23-1.81c-.18-.52-.43-.69-1-.43a7.47,7.47,0,0,0-3.33,2.38,13.23,13.23,0,0,1-3.71,3.78c-1.4.9-2.85,1.74-4.65,1a1.37,1.37,0,0,0-1.68.77,19.19,19.19,0,0,1-2.91,3.19,9.26,9.26,0,0,1-2.11,1.62c-1,.59-2.1,1-3.19.06-.6-.52-1-.34-1.5.28a31.94,31.94,0,0,1-3.63,4.32,11.91,11.91,0,0,1-3.14,2.17,1.79,1.79,0,0,1-1.95,0c-.79-.5-1.46-.19-2.11.69l-4.85,6.58c-1.1,1.49-1.11,1.48-2.77.43-1.72,3.05-2.14,6.5-3,9.83a8.61,8.61,0,0,1-4-5.05c-.5-1.35-.89-2.74-1.35-4.1a9.79,9.79,0,0,0-3.14-5c-.51-.38-.45-.83-.46-1.32,0-2.89,0-5.78,0-8.68a1.7,1.7,0,0,0-1.14-1.92,2.26,2.26,0,0,1-.86-.51.79.79,0,0,0-1.24-.14,2.65,2.65,0,0,1-2.56.05,2.27,2.27,0,0,0-2.75.76,42.18,42.18,0,0,1-3.48,3.33,5.55,5.55,0,0,1-1.87,1,1.52,1.52,0,0,1-2-.58c-.88-1.2-1.25-1.2-2.46-.3-1.42,1.06-2.81,2.17-4.25,3.22a12.71,12.71,0,0,1-1.85,1.1c-1.55.77-1.71.65-1.71-1.15a21.9,21.9,0,0,1,.51-4.12,22.91,22.91,0,0,1,.7-2.74,9.27,9.27,0,0,0,.48-3.59,8.21,8.21,0,0,1,1.37-4.56c.64-1.17,1.32-2.32,2-3.46a1.19,1.19,0,0,0,0-1.5A4.05,4.05,0,0,1,142,324a34.92,34.92,0,0,1,1.84-3,12.25,12.25,0,0,0,1.58-3.1,2.17,2.17,0,0,0-.47-2.42c-1-1.07-.73-2.37-.08-3.56a50.51,50.51,0,0,0,2.65-5.18c.28-.72.54-1.46.79-2.19a1,1,0,0,0-.58-1.34c-2-1.19-2.06-1.42-.61-3.21a27.67,27.67,0,0,0,2.41-3.18,8,8,0,0,0,.92-2.31,2.44,2.44,0,0,0-.58-2.44,8.76,8.76,0,0,1-1.12-1.45,1.52,1.52,0,0,1,.31-2.21c1.71-1.68,3.33-3.45,5.15-5a3,3,0,0,0,1.07-3.51,1.18,1.18,0,0,1,.61-1.6,37.33,37.33,0,0,1,9.5-4.73,3.08,3.08,0,0,0,2.37-2.45c.45-1.93.55-1.89,2.48-1.7a36.54,36.54,0,0,0,7.32.08,4.88,4.88,0,0,0,3.09-1.28,43.23,43.23,0,0,1-3.86-2.74,8.86,8.86,0,0,1-1.9-2.29,3.12,3.12,0,0,1-.33-3c.46-.92.1-1.4-.52-2-1.61-1.54-3.35-2.91-5-4.34a18.38,18.38,0,0,1-1.75-1.78c-1-1.06-1.51-2.15-.78-3.57a1.58,1.58,0,0,0-.46-2.07,6,6,0,0,1-1.55-2.72c-.41-1.26-.8-2.52-1.23-3.9a6.49,6.49,0,0,0-1.86,1.91,48.57,48.57,0,0,1-3.23,3.79,2,2,0,0,1-2.19.71,2.5,2.5,0,0,0-2.56.82,37,37,0,0,0-2.72,3.15,7.31,7.31,0,0,1-1.78,1.73,2.54,2.54,0,0,1-2.36.48,2.49,2.49,0,0,0-2.21.23,27.44,27.44,0,0,0-6.73,4.25c-.56.5-1,.89-1.68.26-.51-.48-.94-.1-1.36.11a46,46,0,0,0-5.85,3.83c-.63.45-1.25.92-1.9,1.35a1.29,1.29,0,0,1-1.05.36,4.3,4.3,0,0,0-3.54,1.06c-1.5,1.06-2.94,2.19-4.41,3.29a8.59,8.59,0,0,1-2.13,1.29c-.91.34-1.32.13-1.62-.8a13.87,13.87,0,0,1-.21-7.87,21.26,21.26,0,0,1,.68-2.23c.17-.44.18-.75-.29-.93-1.35-.52-1.35-1.63-1.22-2.78a12.3,12.3,0,0,1,1.14-4,11.32,11.32,0,0,0,.65-1.53c.56-1.63.37-2.29-1.12-3.2a1.53,1.53,0,0,1-.76-1.49,32.64,32.64,0,0,1,.67-7.11c.32-1.52.32-1.56-1-2.35a2.35,2.35,0,0,1-1.27-2.78c.21-.92.28-1.86.48-2.78a3.54,3.54,0,0,0-.84-3.4,2.35,2.35,0,0,1-.62-2,16.4,16.4,0,0,1,.86-3.88,5.43,5.43,0,0,0-.8-5.2,8.93,8.93,0,0,0-1.22-1.64,5.29,5.29,0,0,1-4.27,2.56,5.56,5.56,0,0,0-3.17,1.59,33.41,33.41,0,0,1-5.3,4.55,2.36,2.36,0,0,1-1.86.47c-2.63-.62-5.17-.07-7.7.6a42.17,42.17,0,0,1-7.26,1.74,6.62,6.62,0,0,1-4-.74c-1.88-1.07-4-1.17-6.1-1.51a15.67,15.67,0,0,1-3.68-1,3.44,3.44,0,0,1-1.78-1.4,4.22,4.22,0,0,0-2.47-1.6,34.88,34.88,0,0,0-6.32-1.36,15.75,15.75,0,0,1-1.79-.36,2.3,2.3,0,0,1-2-2.17,1.28,1.28,0,0,0-1.07-1.28,7.59,7.59,0,0,0-2.92-.39c-1.38.09-2.77.15-4.16.2a3.85,3.85,0,0,1-2.8-.88,2.27,2.27,0,0,0-2.47-.29,7.68,7.68,0,0,0-3.21,2.3c-.77.8-1.58,1.56-2.31,2.4-.5.58-.95.44-1.43.08a4.16,4.16,0,0,1-1.33-1.88,21.19,21.19,0,0,1-1.24-7c-.08-1.61,0-3.22,0-4.84,0-.72,0-1.32-.93-1.46s-.94-.81-.75-1.52a20,20,0,0,1,2-4.55c.47-.82,1-1.63,1.44-2.44s1.17-1.68.05-2.73a2,2,0,0,1,0-2.36,6.51,6.51,0,0,1,1.15-1.42c1.67-1.71,3.31-3.45,5-5.16.49-.5.85-.88.42-1.7a1.87,1.87,0,0,1,.76-2.47c1.88-1.37,3.76-2.76,5.63-4.15,1.05-.77,1-.78.6-2s-.41-1.57.77-2.34A29.2,29.2,0,0,1,53,163.91c.55-.15.89-.33,1-1.06.24-2,.65-2.36,2.7-2.74,3.1-.58,6.2-1.22,9.32-1.73,1.13-.18,1.75-.75,1.8-1.8.06-1.26.78-1.68,1.86-2a26.68,26.68,0,0,1,6.1-.64c.63,0,1.34.22,1.92-.44-.54-.65-1.23-1.13-1.72-1.79a6.93,6.93,0,0,1-1.62-4.1,1.35,1.35,0,0,0-.91-1.36,14.7,14.7,0,0,1-4.25-3.18,6.35,6.35,0,0,1-2-4.78c.07-.86-.42-1.17-1-1.54a39.43,39.43,0,0,1-8.09-6.88,3.06,3.06,0,0,1-1-1.87,2.94,2.94,0,0,0-1.71-2.45,47.62,47.62,0,0,1-4.6-3,7.85,7.85,0,0,1-2.39-2.74,3.6,3.6,0,0,0-1.94-1.69c-1.75-.83-3.49-1.7-5.19-2.62a14.62,14.62,0,0,1-3.57-2.72c-1.52-1.56-1.08-3.29,1-3.9a35.9,35.9,0,0,1,8.36-1.32,1.27,1.27,0,0,0,1.37-.87,2.59,2.59,0,0,1,2.24-1.5,26.47,26.47,0,0,1,10.56.52,2.37,2.37,0,0,0,2.19-.23,8,8,0,0,1,5.91-1.07c2,.26,4,1,6,1.4.18-.39.31-.76.49-1.09a2,2,0,0,1,2.56-1.25,35.19,35.19,0,0,1,9.63,2.77,4,4,0,0,0,.4-3,44.53,44.53,0,0,0-1.22-5.35c-.5-1.92-.84-3.82.86-5.41.44-.41.14-1,.09-1.42-.23-1.87-.43-3.74-.57-5.62-.11-1.5.08-3,0-4.49a1.65,1.65,0,0,1,.54-1.35,3.41,3.41,0,0,0,1.1-3.18c-.43-2.78.59-5.38.8-8.07a2.93,2.93,0,0,1,1.42-2.51c.58-.33.62-.9.68-1.44A39.37,39.37,0,0,1,94.57,56c.13-.37.17-.81.58-1,1.09-.41,1-1.27.74-2.08-.9-2.8-.11-5.58,0-8.37A2.82,2.82,0,0,1,97.52,42c.62-.31.62-.71.57-1.34a32.43,32.43,0,0,1-.1-5.83,8.44,8.44,0,0,1,1.37-4.05,2.62,2.62,0,0,0,.38-1.69c0-2.22-.47-4.41-.41-6.64a13.61,13.61,0,0,1,.48-3.18A4.42,4.42,0,0,1,103,21.53a28.7,28.7,0,0,1,1.64,2.71,1.71,1.71,0,0,0,1.69,1c2.21,0,3,.63,3.76,2.76.39,1.1.68,2.23,1.1,3.31.68,1.7,1.25,2.07,3,1.85a2.76,2.76,0,0,1,2,.6,21.19,21.19,0,0,1,4.5,4.42c.95,1.15,1.92,2.3,2.89,3.44.33.38.6.62,1.24.29a2.29,2.29,0,0,1,2.34.44A26.75,26.75,0,0,1,131.89,47c.59.67,1.1,1.39,1.65,2.09s1.14,1.68,2.52.93c.81-.44,1.69.27,2.33.94a12.54,12.54,0,0,1,2.1,3.18c1,1.93,1.94,3.87,2.92,5.81.32.64.56,1.18,1.59.74.83-.34,1.71.26,2.29,1a15,15,0,0,1,2.07,3.79c.58,1.5,1.11,3,1.69,4.52.66,1.72,1.44,3.34,3.91,3.09a12.09,12.09,0,0,1,2.23-2.94,6.37,6.37,0,0,0,1.56-3.43c.22-1.14.43-2.29.73-3.41a3.85,3.85,0,0,1,2.13-2.63,1.92,1.92,0,0,0,1.11-1.33c.34-1.11.7-2.22,1-3.34a6.72,6.72,0,0,1,1.07-2.24c.7-.9,1.37-2,2.84-1.12.49.29.69-.13.77-.54.23-1.09.42-2.18.68-3.25a7,7,0,0,1,1.62-3.24,1.48,1.48,0,0,1,2.06-.31,4,4,0,0,1,2,2.56c.29,1.07.46,2.17.68,3.25.35,1.7.7,3.38,2.31,4.44.67.45.42,1.22.43,1.86s0,1.11.7,1.3c1.53.42,2,1.64,2.21,3,.17,1,.26,2.09.42,3.13.12.74.34,1.33,1.26,1.52,1.23.25,1.71,1.34,2.1,2.39a1.49,1.49,0,0,0,1.55,1.1,21.48,21.48,0,0,1,5.06.93,12.1,12.1,0,0,1,7.38,6.07c1.1,2.06,1.9,4.26,2.9,6.36a15,15,0,0,0,2.8,4.44,16.22,16.22,0,0,0,1.6-4.23A12.7,12.7,0,0,1,208,79.25c.5-.65.94-1.39,2-1.06.62.19.84-.39,1.1-.81,1-1.59,2-3.21,3-4.77a12.87,12.87,0,0,1,4.43-4.43c1-.55,2-1.22,3.27-.66.55.24,1-.28,1.52-.54A53.35,53.35,0,0,1,233,62.73a3.51,3.51,0,0,1,2.57,0,3.11,3.11,0,0,0,1.63.19c3.64-.4,7.28-.73,10.91-1.19a2.82,2.82,0,0,1,2.82,1,2.68,2.68,0,0,0,2.33,1,23.13,23.13,0,0,1,6.22,1,28.77,28.77,0,0,0,3.38.84,5.51,5.51,0,0,1,4,2.68,2.86,2.86,0,0,0,2,1.29,28.32,28.32,0,0,1,6.47,2.11,7.62,7.62,0,0,1,4.43,5.1,1.85,1.85,0,0,0,1.06,1.19c1.1.64,2.2,1.29,3.29,1.95a12.65,12.65,0,0,1,2.63,2,5.59,5.59,0,0,1,1.77,5,1.94,1.94,0,0,0,.73,1.74c1.24,1.35,2.47,2.71,3.72,4a1.94,1.94,0,0,1,.68,1.11c.21,2.5,1.46,4.63,2.43,6.86a14.37,14.37,0,0,1,1.6,6c0,1.59-.2,1.75-1.76,1.25-1.11-.35-2.17-.84-3.28-1.19a24.87,24.87,0,0,0-3.06-.76c-.77-.14-1.28.08-1.43,1.08-.23,1.57-.87,2-2.46,2.2a68.29,68.29,0,0,1-8.45.59,1.3,1.3,0,0,0-1.42.84,4.15,4.15,0,0,1-3.31,2.25c-1.3.26-2.62.41-3.92.67a3.05,3.05,0,0,0-2.38,1.89,4.62,4.62,0,0,1-3.52,2.74c-1.18.3-2.38.48-3.58.71a4.39,4.39,0,0,0-3.66,2.77,1.61,1.61,0,0,1-1.09.93,25.25,25.25,0,0,1-4,1,3.06,3.06,0,0,0-2.66,1.89,4.05,4.05,0,0,1-2.82,2.16c-1.37.45-2.8.65-4.19,1-.5.13-1.27.06-1.4.7s.54.95,1,1.28c2.11,1.72,4.48,3.07,6.7,4.64,1,.71,2,1.41,2.93,2.19,1.39,1.15,1.46,1.89.49,3.44-.83,1.31-.83,1.43.22,2.57a18.63,18.63,0,0,0,3.65,3.15,20,20,0,0,1,2.4,1.79,3.55,3.55,0,0,1,1.42,3.23,2.5,2.5,0,0,0,1,2.3c1.8,1.82,3.61,3.62,5.42,5.43.72.71,1.38,1.34.91,2.56-.32.83.38,1.57.91,2.22,1.61,2,1.63,1.94,3.75.61a18.62,18.62,0,0,1,4.66-2.53c1.06-.31,2-.46,2.9.48a2.3,2.3,0,0,0,2.49.43,45.91,45.91,0,0,0,5.5-2.35,24.21,24.21,0,0,1,3.83-1.6c1.38-.4,2.77-.54,3.8.77.42.54.85.38,1.33.22a36.4,36.4,0,0,1,12-1.53c3.11.09,6.2.38,9.3.58,4.72.3,9.44.42,14.07-.82a15.34,15.34,0,0,1,3.63-.44,138.14,138.14,0,0,1,19.61,1,8.33,8.33,0,0,1,2,.18A1.85,1.85,0,0,1,355.35,159.42Zm-157.22,4.37c.53-.15,1.07-.31,1.61-.43a54.82,54.82,0,0,1,20.82-.14c1.94.31,3.86.73,5.87,1.11-.11-.2-.13-.33-.21-.39-3.33-2.85-6.68-5.66-10.13-8.36a4.86,4.86,0,0,0-4.39-.82,11.59,11.59,0,0,0-3.08,1.2,42,42,0,0,0-6.64,4.4,17.82,17.82,0,0,1-4.15,3,7.91,7.91,0,0,0-2.44,1.32A9.45,9.45,0,0,0,198.13,163.79Zm104.21-2.7a40.54,40.54,0,0,0-9.94,1.84,1.38,1.38,0,0,1-1.28-.06c-2.13-1.51-4.23-.91-6.28.14-1.43.73-2.84,1.52-4.22,2.35a3,3,0,0,1-4-.23,2.06,2.06,0,0,0-2.18-.41,5.35,5.35,0,0,0-2.54,1.61,80.08,80.08,0,0,1,18.61,6.43c.33-2.13-.3-4.16.56-6.29a14.68,14.68,0,0,1,.87,3.31c.27,1.53.52,3.06.71,4.59a1.85,1.85,0,0,0,1.17,1.5c.61.29.84-.38,1.2-.66.57-.45,1.09-1,1.64-1.41a6,6,0,0,0,2.26-3.93,36.44,36.44,0,0,1,1-4.37,3.42,3.42,0,0,1,.92-2c1,2.3-.31,4.49-.2,7,4.9-3.49,10.22-5.83,15.61-8.65-2.86-.49-5.44-.51-8-.76A51.7,51.7,0,0,0,302.34,161.09ZM154.07,336.3h0c-.27-1.5.51-2.81.77-4.21a11.19,11.19,0,0,0,.16-3.47c-3,2.31-4.72,5.54-7.69,8a13.34,13.34,0,0,1,2.55-5c1.9-2.47,4.23-4.56,6.22-6.95a5.38,5.38,0,0,0,1.32-2,4.45,4.45,0,0,0-2.82.05c-1,.31-1.81.84-2.73,1.23a2.09,2.09,0,0,1-1.88.28c2.25-2.14,4.64-3.43,7.67-3.3.48,0,1,.23,1.43-.17.76-.74,1.5-1.5,2.22-2.26a.52.52,0,0,0,0-.47c-.66-1.23,0-2.24.48-3.3.26-.55.8-1.06.49-1.87-1,.35-2,.26-3,.52a25.77,25.77,0,0,0-6.32,2.93c-.62.37-1.58,1.35-1.94.71s.85-1.12,1.49-1.52a72.79,72.79,0,0,1,6.86-3.39,23.32,23.32,0,0,0,4.49-2.53c.64-.5,1-1,.35-1.78a1.74,1.74,0,0,1,.09-2.42,3.49,3.49,0,0,0,1-2,28.47,28.47,0,0,0-5.68,1.43,49,49,0,0,1-5.88,1.7,6.76,6.76,0,0,1,2.16-2.06,18.74,18.74,0,0,1,8.85-2.61c1.26-.1,2.38-.22,3.11-1.46a12.43,12.43,0,0,1,1.38-1.44,4.45,4.45,0,0,0,1.3-2,1.92,1.92,0,0,0-1.09-.46,14,14,0,0,0-5.76.21c-3.06.57-6,1.77-9,2.55a10.84,10.84,0,0,1-1.13.25.42.42,0,0,1-.51-.32.47.47,0,0,1,.3-.53c.7-.34,1.4-.67,2.12-1,4.59-2,9.23-3.84,14.41-3.21a1.1,1.1,0,0,0,.62-.19l7.64-4.7a7.38,7.38,0,0,0-4.13-2.4,23.94,23.94,0,0,0-9.24-.2,39.14,39.14,0,0,1-5.73.68,33.55,33.55,0,0,1,9.3-2.1c3.63-.27,7.22-.09,10.5,2,.61-1.76,2-2.45,3.48-3a11.25,11.25,0,0,0,3.8-1.65c-4.42-2.28-9.23-3.38-13.74-5.54.78-.69,1.36-.23,1.87,0,2.78,1,5.53,2,8.3,3a39.1,39.1,0,0,0,6.74,1.77c1.48.25,1.91-.07,2.08-1.54.14-1.19.23-1.36,1.51-1.6a47,47,0,0,1,5.43-.79c1.52-.12,3-.28,4.66-.43a11.82,11.82,0,0,0-3.51-4.92,13.45,13.45,0,0,0-7.75-2.64c-2.1-.13-4.22-.07-6.32-.24a1.82,1.82,0,0,0-1.88.63,4.47,4.47,0,0,1-3.82,1.65c-2,0-4-.42-6-.57-1.73-.13-2.25.07-3,1.67a3.79,3.79,0,0,1-2.41,2.12c-1.37.45-2.73.92-4.09,1.39a22.72,22.72,0,0,0-5.42,2.54c-.56.38-1.09.75-1,1.57a4.49,4.49,0,0,1-2,4.13c-1,.76-1.92,1.52-2.83,2.33-1.78,1.57-1.83,1.7-.47,3.71a4.18,4.18,0,0,1-.07,5.24c-.65.91-1.31,1.8-1.9,2.74a2.43,2.43,0,0,0,.08,3.09,2.4,2.4,0,0,1,.52,2,9.34,9.34,0,0,1-.94,3.18c-.73,1.43-1.39,2.91-2.22,4.29a2.35,2.35,0,0,0,.14,3,2.5,2.5,0,0,1,.18,2.95c-1.16,2.33-2.18,4.74-3.32,7.09-.36.74-.42,1.26.27,1.86,1.15,1,1.09,2.22.54,3.5a10.57,10.57,0,0,1-1.13,1.84,28.68,28.68,0,0,0-2.3,3.27c-.34.64-.83,1.33-.57,2,.77,2.07.06,3.92-.64,5.81a6.87,6.87,0,0,0-.62,2.88c1.28-1.16,2.33-2.3,3.57-3.23a3.37,3.37,0,0,1,4.15-.27,1.42,1.42,0,0,0,2-.19c.63-.63,1.27-1.25,1.91-1.87s1.18-1.18,1.82-1.71c1.25-1,2.56-1.48,4.11-.52a2,2,0,0,0,2.52-.53,3.38,3.38,0,0,0,.82-2c.13-1.64.26-3.29.39-5a8.15,8.15,0,0,1-.82-.21c-1.36-.46-1.45-.61-1.13-2.06.23-1.09.52-2.16.69-3.26A10.11,10.11,0,0,0,161,322a3.13,3.13,0,0,0-1.46.84,7.05,7.05,0,0,0-2.16,4c-.29,1.41-.43,2.85-.7,4.27C156.35,333.13,156,335.11,154.07,336.3ZM80.72,111.5a3.07,3.07,0,0,1,.55.36c2.65,3,5.08,6.13,6.18,10a6.79,6.79,0,0,0,3.81,4.61c1.89.91,3.57,2.23,5.48,3.11.06-.12.12-.18.11-.21-1.44-5.14-3.06-10.21-6.13-14.67-.1-.13-.18-.28-.27-.41a.36.36,0,0,1,.07-.57.5.5,0,0,1,.45.08,16.42,16.42,0,0,1,1.19,1.17,28,28,0,0,1,7.1,15c.11.82-.07,1.7.82,2.22.73.43,1.24,1.22,2.19,1.54.19-1.86-.29-3.54-.31-5.25,0-2.22-.1-4.44,0-6.66.22-3.64,1.47-6.58,5.2-7.9a2.41,2.41,0,0,0,1.58-2.8,6.72,6.72,0,0,1,.12-3c.25-.69-.19-.92-.69-1.06a18.5,18.5,0,0,0-5.07-.79,1.31,1.31,0,0,0-1.33.8c-.81,1.8-1.1,1.8-3.35,1.43-1.7-.29-3.36-.75-5-1.15-.91-.23-1.67-.11-2.07.85s-1.2,1.14-2.17,1.11a11.61,11.61,0,0,1-4.58-1.38A31.89,31.89,0,0,0,80,106.11a1.23,1.23,0,0,0-1.7.8c-.15.36-.26.74-.41,1.1a1.35,1.35,0,0,1-1.58.91,11,11,0,0,1-1.29-.3c-1.76-.51-3.5-1.09-5.27-1.54a5,5,0,0,0-4.46.69,4.78,4.78,0,0,1-3.63.7q-4-.28-8-.63a1.77,1.77,0,0,0-2.1,1.19,1.18,1.18,0,0,1-1.28.83,48.78,48.78,0,0,1-5-.08,16.34,16.34,0,0,0-3.14.13,3.25,3.25,0,0,0-2,1,1.14,1.14,0,0,0,.08,2,9.47,9.47,0,0,0,2.61,1.43,32,32,0,0,0,6.44,1.62c.83.13,1.37.45,1.51,1.28a4.85,4.85,0,0,0,2,2.92,44.46,44.46,0,0,0,3.94,2.78c1.07.7,2.12,1.44,3.19,2.13a1.29,1.29,0,0,1,.66,1.38,4.28,4.28,0,0,0,1.56,3.86,28.19,28.19,0,0,0,6.67,4.64c1.7.84,2.83,1.77,2.52,3.92a3.83,3.83,0,0,0,2.29,4.22A17.77,17.77,0,0,1,77,145.21a3,3,0,0,1,1.24,3.07,2.57,2.57,0,0,0,.58,2.3,14.69,14.69,0,0,0,2.31,2.15c.39.33.7.16,1.05,0a6.86,6.86,0,0,1,3.21-.72,28.58,28.58,0,0,1,7.08.91A2.33,2.33,0,0,0,95,152.2a2.11,2.11,0,0,1,2.08-.77c.87.15,1.75.27,2.62.45a33.89,33.89,0,0,1,7.58,2.93c1.2.58,2.41,1.14,3.62,1.71.26.12.52.23.77,0s.11-.6,0-.89a6.48,6.48,0,0,0-.33-.57c-1.44-2.31-2.87-4.62-4.32-6.93-.88-1.39-.93-1.41-2.55-1.07-3.8.81-7.61,1.51-11.46,2l-4.33,0c-.18-.1-.46-.17-.54-.33s.14-.32.37-.36c2.51-.44,5-.83,7.53-1.34a31.4,31.4,0,0,0,7.85-2.68c1.1-.56,1.12-.58.71-1.77s-.78-2.2-1.24-3.27a5.56,5.56,0,0,0-2.26-2.61,1.39,1.39,0,0,0-1.54,0c-5.26,2.94-11,4.34-16.9,5.23a4.79,4.79,0,0,1-3.24-.27c.23-.56.69-.53,1.12-.62A69,69,0,0,0,90,138.42a24.56,24.56,0,0,0,7.39-4.07A87.18,87.18,0,0,0,88.88,129c-2.8,3-4.52,4.09-7.94,5s-7.93.93-9.12,0c.43-.51,1-.31,1.56-.38a28.93,28.93,0,0,0,7.29-1.62,11.34,11.34,0,0,0,5.2-3.73c.4-.54.53-.92-.14-1.33a36.18,36.18,0,0,0-4.19-2.39c-1-.43-1.82-.71-2.77.05a4.79,4.79,0,0,1-1.54.62,39.17,39.17,0,0,1-9,1.59,6.18,6.18,0,0,1-3.43-.44,1,1,0,0,1,.79-.45c3.11-.8,6.29-1.34,9.36-2.33a4.23,4.23,0,0,0,2-.93,1.38,1.38,0,0,0-.79-.73,51.93,51.93,0,0,0-10.6-4.38c-3-.91-5.94-1.79-8.93-2.65A2.05,2.05,0,0,1,55,113.46a103.23,103.23,0,0,1,20.74,5,30.3,30.3,0,0,0-6.13-7.65c.88-.39,1.14.17,1.45.48,2.23,2.18,4.12,4.66,6.12,7a6.93,6.93,0,0,0,2.73,2.13c1.48.6,3,1.18,4.49,1.78a3.67,3.67,0,0,0-.51-1.9c-.77-1.85-1.62-3.66-2.37-5.51a7.38,7.38,0,0,1-.9-3.18Zm104,202a4.53,4.53,0,0,0-1.63.26,21.71,21.71,0,0,0-6.07,3.08c-2.22,1.59-4.35,3.28-6.54,4.89-.43.32-.84,1.2-1.48.55s.21-1.09.53-1.51a25.77,25.77,0,0,1,16.14-9.48,2.88,2.88,0,0,0,2-1.22c1-1.36,2-2.7,2.92-4.06.21-.29.61-.54.3-1.17-.86,0-1.8,0-2.73,0a23.44,23.44,0,0,0-8.82,2.23c-2,.89-4,1.89-6,2.85-.27.12-.57.17-.75-.08s.07-.49.28-.67a50.84,50.84,0,0,1,6.39-4.52,9.52,9.52,0,0,1,5-1.46c2.17-.05,4.34,0,6.5-.22a7.13,7.13,0,0,0,4.57-1.75c2.21-2.19,1.7-2.34-.35-3.64a6.6,6.6,0,0,0-1.2-.57,20.65,20.65,0,0,0-8.53-1.08,42,42,0,0,0-6.42.8c-.37.09-.77.11-.92-.39a22.71,22.71,0,0,1,13.32-1.52,48.12,48.12,0,0,1,5.88,1.81,3.56,3.56,0,0,0,4.06-1,22.83,22.83,0,0,1,2.92-2.69c-3-2.85-6.66-3.89-10.36-4.92,4.25-1.05,8,.27,11.79,2.6a77.76,77.76,0,0,1-2-9.23c-.12-.67-.37-.94-1.06-1-2.16-.07-4.32-.21-6.49-.3-1.14,0-1.47.18-1.86,1.25-.16.41-.23.86-.38,1.27a2.76,2.76,0,0,1-1.83,1.81l-1.43.43a63.51,63.51,0,0,0-6.16,2c-.53.22-1.15.35-1.25,1.16a5.43,5.43,0,0,1-3.16,4c-1.36.75-2.76,1.42-4.12,2.19-.76.43-1.64.86-1.88,1.79-.65,2.47-2.27,4.3-3.82,6.18a21.27,21.27,0,0,0-2.65,3.83,1.62,1.62,0,0,0-.24,1.42,5.83,5.83,0,0,1-.79,5.24c-.51.86-1,1.72-1.52,2.58-.34.59-.57,1.13,0,1.8a2.4,2.4,0,0,1,.2,2.67c-.21.46-.39.92-.63,1.36a12.76,12.76,0,0,0-1.06,4.5c-.07.57-.06,1.26.55,1.45,1.2.36,1.08,1.34,1.06,2.14a31.14,31.14,0,0,1-.43,3.46c-.24,1.82-.78,3.59-.85,5.42,0,.57-.05,1,.76,1.19a2.37,2.37,0,0,1,1.9,2.58,11.7,11.7,0,0,1-.14,2.5c-.54,2.39.38,4.73.34,7.11a1.34,1.34,0,0,0,.94,1.28c.86.24,1,.9,1.24,1.6s.43,1.61.69,2.4a18.44,18.44,0,0,0,1.84,4.59c1-2.34,1.35-4.78,2.75-6.85a4.28,4.28,0,0,1,.48.3c1.25,1.11,1.29,1.11,2.31-.16.25-.3.48-.61.71-.93,1.53-2.11,3-4.3,4.67-6.29,1.92-2.24,2-2.24,4.09-.22a13.82,13.82,0,0,0,3.13-2.93c1.07-1.34,2.17-2.67,3.16-4.07a1.5,1.5,0,0,1,2.12-.6c.2.1.41.16.61.27,1.52.84,2.75.34,3.9-.78a27.83,27.83,0,0,0,2.7-3.16c1.19-1.57,2.61-2.21,4.48-1.3a1.84,1.84,0,0,0,2.47-.72c.34-.44.66-.89,1-1.35,1.31-1.86,2.6-3.74,3.92-5.6a3.39,3.39,0,0,1,3.21-1.72,1.28,1.28,0,0,0,1.33-.78,10.79,10.79,0,0,0,1.22-3.26,18.26,18.26,0,0,1,1.23-4.31,3.06,3.06,0,0,1,2-1.81c1.89-.41,2.34-1.87,2.61-3.43.19-1.07,0-1.28-1.13-1.6A23.07,23.07,0,0,1,216,306c-.16-.13-.42-.38-.7-.13.46,1.79.92,3.56,1.37,5.33a20.12,20.12,0,0,1,.56,6.28c0,.28-.05.6-.41.6s-.35-.24-.39-.47c-.15-.76-.29-1.52-.45-2.28a57.38,57.38,0,0,0-6.17-15.77,30.33,30.33,0,0,0-2.85-4.75l-3.57,2.57c-1.19.85-1.21.86-.52,2.21a62.74,62.74,0,0,1,5.17,13.15,39.47,39.47,0,0,1,1.16,11.56c0,.55.15,1.5-.64,1.49s-.36-.91-.36-1.38a28.13,28.13,0,0,0-1.48-9A72.71,72.71,0,0,0,199.88,301a.51.51,0,0,0-.58-.33,33.21,33.21,0,0,0-4.36,4.71c-.74,1.07-1.15,2.14-.29,3.37a8.62,8.62,0,0,1,.69,1.51c2.45,5.67,4.06,11.51,3.79,17.75a7.52,7.52,0,0,1-.55,2.81c-.18-.85-.34-1.38-.39-1.91a48.88,48.88,0,0,0-2.7-11.64,48.11,48.11,0,0,0-3.2-7c-.36-.65-.73-.71-1.28-.19a18.19,18.19,0,0,0-2.62,3.44,1.75,1.75,0,0,0-.16,1.86,36.61,36.61,0,0,1,1.74,5.21,50.44,50.44,0,0,1,1.9,14.14,2.55,2.55,0,0,1-.88,2.33,29.51,29.51,0,0,0-2.19-13.23,36.75,36.75,0,0,0-2.53-5.06c-.36-.61-.7-.67-1.12-.12a6.86,6.86,0,0,0-.73,1.11,25,25,0,0,1-1.47,3,2.37,2.37,0,0,0-.19,2.48,44,44,0,0,1,2.59,8.94c.34,2,.82,4.08-.1,6.34a41.35,41.35,0,0,0-4.93-12.85,55.25,55.25,0,0,0-2.29,5.45,3.25,3.25,0,0,0-.05,2.54,35.8,35.8,0,0,1,2,8,1.86,1.86,0,0,1-.2,1.59.66.66,0,0,1-.72.28c-.28-.08-.28-.33-.28-.54a10.65,10.65,0,0,0-.75-3.57,8.23,8.23,0,0,0-1.77-3.35,49.51,49.51,0,0,0-2.6,7.28c-.15.47-.19,1-.65,1.32a.59.59,0,0,1-.63.11.44.44,0,0,1-.22-.55c.1-.38.21-.75.32-1.12,1-3.51,1.73-7.1,2.55-10.82-2.35,1.3-3.12,4-5.37,5.32a2.63,2.63,0,0,1,.45-1.68,16.24,16.24,0,0,1,4.85-5.85,7.74,7.74,0,0,0,2.93-3.86c.29-.78.66-1.53,1-2.3a2.63,2.63,0,0,0,.42-1.57,15.44,15.44,0,0,0-6.87,4.66c-1,1.12-1.91,2.32-2.86,3.48-.24.29-.48.79-.89.56s-.12-.78.06-1.15a16.5,16.5,0,0,1,3.88-5.16,41.7,41.7,0,0,1,7.32-5.2c.43-.25,1-.41,1.2-.87a70.83,70.83,0,0,0,3.67-7.08,1.38,1.38,0,0,0,.2-.18C184.89,313.28,184.8,313.37,184.72,313.53ZM103.47,50.38c.76.55,1.51,1.13,2.28,1.66A4,4,0,0,0,108,53c0-.43-.06-.76-.12-1.08a77.36,77.36,0,0,0-2.74-10.46c-.82-2.53-1.61-5.08-2.42-7.62-.24-.76-.33-1.49.64-1.95.27.38.51.68.71,1a28.06,28.06,0,0,1,3,7.22c.91,3.2,1.59,6.47,2.68,9.62a5.07,5.07,0,0,0,1.1,2.22c1.95-2.92,2.31-6.46,4.22-9.6a5,5,0,0,1,.17,2.91,32.59,32.59,0,0,1-2.93,8.12,5.07,5.07,0,0,0-.61,1.88c-.13,2.36.83,4.45,1.45,6.81,1-1.19,1.78-2.17,2.57-3.17,2-2.52,4.09-5,4.73-8.31,0-.26.18-.43.43-.39a.57.57,0,0,1,.47.42,2,2,0,0,1-.08,1.15c-.27.78-.52,1.58-.83,2.35a56.6,56.6,0,0,1-5.65,10,5.14,5.14,0,0,0-.73,4.72,36.73,36.73,0,0,1,1.54,5.19c.19,0,.32,0,.4,0a9.44,9.44,0,0,0,1.56-1.72A48.81,48.81,0,0,0,127,56.53a4.61,4.61,0,0,1,.2-.63c.1-.19.25-.38.52-.29a.42.42,0,0,1,.29.52c-.21,1.09-.39,2.19-.7,3.25a30.85,30.85,0,0,1-4.42,8.92,81.42,81.42,0,0,1-5.76,7.33,1.82,1.82,0,0,0-.42,2.07c.74,2,1.34,4,2,6a10.66,10.66,0,0,0,1.39,2.89c.47-.29.9-.52,1.29-.81a33,33,0,0,0,6-6,56.72,56.72,0,0,0,6.91-12.14c.22-.49.3-1.08.86-1.35.66.35.55.91.39,1.45-.33,1.17-.63,2.36-1,3.5-1.59,4.36-4.31,8-7.24,11.52-1.77,2.14-3.62,4.21-5.43,6.32-.24.28-.68.54-.43,1,1,1.7,1.61,3.55,2.9,5,.22.26.5.5.86.36,1.86-.73,3.9-1.15,5.37-2.57a45.11,45.11,0,0,0,8.36-10.34,37.49,37.49,0,0,0,2.32-5.49c1,.31.75,1,.63,1.63a28.8,28.8,0,0,1-6.22,12.75,7.49,7.49,0,0,0-1.56,2.15c.46,0,.8,0,1.12,0A32.31,32.31,0,0,1,140.5,93c.53,0,.76-.41,1-.75,3.59-4.46,7.88-7.95,13.62-9.53a28.16,28.16,0,0,1-1.06-4.75,10.37,10.37,0,0,0-.68-2.06c-.22-.51-.62-.93-1.15-.7-1.18.52-1.43-.34-1.8-1.07-1.1-2.2-1.72-4.58-2.62-6.84a12,12,0,0,0-1.55-2.94c-.64-.83-1.51-1.51-2.58-1.1s-1.27-.13-1.7-.76c-1.33-2-2.49-4.07-3.69-6.14-.53-.91-1.06-1.83-1.64-2.71-.42-.65-1.12-1.18-1.82-.7-.89.62-1.13.05-1.54-.49a55.12,55.12,0,0,0-6.24-7.15c-.62-.58-1.21-1.23-2.11-.38-.41.39-.75.26-1.08-.22-2-3-4.8-5.37-7.51-7.76a1.64,1.64,0,0,0-2-.39,2.78,2.78,0,0,1-3.87-1.22,15.92,15.92,0,0,1-1.48-3,17,17,0,0,0-1.6-3.29c-.34-.49-.66-1.14-1.32-1.19-2-.15-3-1.48-3.89-3A3.79,3.79,0,0,0,101,23.25a39.24,39.24,0,0,0,.59,5.29,4.78,4.78,0,0,1-.26,2.75,9.92,9.92,0,0,0-.83,4.88,43.43,43.43,0,0,0,.77,5.77c.42,2,.34,2.12-1.45,3.21a2,2,0,0,0-1.16,2c.08,1.55.1,3.09.27,4.65a19.68,19.68,0,0,1,.31,5.63c-.2,1.12-.37,1.29-1.42.91-.84-.3-1.14,0-1.35.67a26.28,26.28,0,0,0-.78,2.72c-.39,2.07-.69,4.16-1,6.23-.14.85-.36,1.62-1.46,1.68-.86,0-1.15.56-1.22,1.45a45,45,0,0,0-.18,5.32c.06,1.5.14,3,.2,4.49a1.09,1.09,0,0,1-1,1.31c-1.51.31-1.77.62-1.57,2s.42,3,.77,4.42A20.34,20.34,0,0,1,91,93.92a1.26,1.26,0,0,1-.7,1.19c-1.47.89-1.55,1-1.24,2.64a44,44,0,0,0,2,6,1,1,0,0,0,.87.65l6,1.18a1,1,0,0,0,1.25-.57c.53-1.12,1.56-1.31,2.63-1.41a14.89,14.89,0,0,1,5.43.68c1,.27,1.89.64,2.84.94.75.24,1.19-.23,1.45-.8s-.28-.76-.64-1a13.57,13.57,0,0,0-2.37-1.21q-2.22-.94-4.41-2a8.19,8.19,0,0,1-2.62-2c-.17-.19-.48-.37-.22-.68s.48-.2.75-.08c.51.22,1,.42,1.55.62,3,1.19,5.93,2.51,9,3.52.53.17,1,.42,1.56,0A52.31,52.31,0,0,1,120.8,97c.56-.36.53-.75.25-1.26a5.37,5.37,0,0,0-3.11-2.84q-2.46-.77-4.89-1.64A52.77,52.77,0,0,1,101.75,86c-.57-.37-1.65-1-1.41-1.37.52-.9,1.36,0,2,.24,4.71,1.82,9.38,3.72,14.21,5.23.36.11.72.34,1.12-.06-1.17-3.32-2.72-6.54-3.79-9.93a1.57,1.57,0,0,0-.91-.91,33.87,33.87,0,0,1-9.49-7.77,3.4,3.4,0,0,1-1.11-2.13,31.72,31.72,0,0,0,5,4.08,52.93,52.93,0,0,0,5.49,3.35,17.42,17.42,0,0,0-.75-3.84c-.48-2-1.24-3.93-1.22-6,0-.61-.37-.86-.81-1.14a18.31,18.31,0,0,1-3.72-3.08c-1.52-1.69-3-3.38-4.57-5.08-.18-.2-.64-.37-.08-.95a26.19,26.19,0,0,0,7.73,5.78c.31-1-.11-1.87-.16-2.74-.21-3.27-.24-3.27-2.81-5.37a10.28,10.28,0,0,1-3.25-3.71Zm234.79,260a16.82,16.82,0,0,1-3.2-6.34,37.86,37.86,0,0,1-1.35-11.37c0-1.52.57-3.23-.32-4.55a17.12,17.12,0,0,0-3.33-3.25,5.88,5.88,0,0,0-2.42-1.63c1,8.08,2.61,16,2.87,24-1.16.24-1.68-.14-1.93-1.14-.4-1.62-.95-3.19-1.36-4.81A58.09,58.09,0,0,1,325,286.31a21.19,21.19,0,0,1,.26-4,1.24,1.24,0,0,0-.73-1.47c-1.24-.74-2.42-1.59-3.64-2.36a14.16,14.16,0,0,0-4.48-2.15,3.31,3.31,0,0,0,.07,1.85,91.37,91.37,0,0,0,2.75,10.8c1.63,5.3,3.31,10.59,5,15.9a4,4,0,0,1,.34,1.89,4,4,0,0,1-1.32-1.83,81,81,0,0,1-4.57-11.08,92.93,92.93,0,0,1-4.58-16.67,4.13,4.13,0,0,0-2.23-3.26,9.73,9.73,0,0,0-2.95-1.1c-1.64-.31-3.27-.59-4.9-.93-.81-.17-1,.21-.95.89.05,1.56,0,3.1.2,4.65a43.88,43.88,0,0,0,4.93,15.63,77.09,77.09,0,0,0,6.09,9.74c.42.57,1,1.13.55,2a2.49,2.49,0,0,1-1.65-.61c-3-1.75-4.9-4.46-6.46-7.45a54.9,54.9,0,0,1-5.05-16.84,53,53,0,0,1-.78-6.77c0-1.18-.32-1.41-1.43-1.25a8.13,8.13,0,0,0-2.39.67,1,1,0,0,0-.62,1.32,29.84,29.84,0,0,1-.91,14.8,3.81,3.81,0,0,0,.12,3c.32.64.59,1.32.88,2a49.53,49.53,0,0,1,2.23,5.38,3.12,3.12,0,0,1,.11,2.12c-2.64-1.9-3.38-4.91-5.13-7.42-1,1.89-1.94,3.64-2.87,5.4-.57,1.08-1.12,2.17-1.67,3.27-.17.34-.45.74-.18,1.09a6,6,0,0,0,3.76,2.54,4.83,4.83,0,0,1,3.1,1.61,12.8,12.8,0,0,0,1.78,1.75c.63.41,1.36.79,2,.35,1.05-.7,1.73-.2,2.47.45s1.27,1.08,1.93,1.6a14.6,14.6,0,0,0,5.74,3.24,4,4,0,0,0,3.47-.62,3.5,3.5,0,0,1,4.33,0,14.55,14.55,0,0,1,1.61,1.19,12.58,12.58,0,0,0,3.76,2.11,3.42,3.42,0,0,0,3.76-.47,2.38,2.38,0,0,1,3.05-.26,12.88,12.88,0,0,1,2.7,1.95,13.19,13.19,0,0,0,4.12,2.47c.8.29,1.71.56,2.37-.05a1.73,1.73,0,0,1,2.24-.16,12.54,12.54,0,0,1,2.28,1.37A21.3,21.3,0,0,0,347,325a1.64,1.64,0,0,0,1.71.13,3.79,3.79,0,0,1,4.24.37c.93.61,1.81,1.3,2.7,2a14.38,14.38,0,0,0,2.52,1.61,1.57,1.57,0,0,0,1.57.06,4,4,0,0,1,4.39.44,21.72,21.72,0,0,1,2.8,2.36,5.57,5.57,0,0,0,2.41,1.68,6.43,6.43,0,0,0-.18-3.39c-.36-1.28-.85-2.53-1.16-3.82-.41-1.76-.67-3.54.85-5,.53-.5.26-1,.05-1.52-1-2.7-2.09-5.39-3.1-8.09-.47-1.25-.37-1.47.75-2.17,1.51-1,1.5-.95.77-2.61-1.31-2.94-2.57-5.9-3.88-8.85a2.75,2.75,0,0,1-.14-2.71c.58-.81.25-1.26-.16-1.87-1.81-2.67-3.59-5.36-5.39-8-.27-.41-.67-.79-.57-1.34.36-1.89-.6-3.32-1.67-4.69-.64-.84-1.38-1.6-2-2.43a4.2,4.2,0,0,1-1.09-3.08,2.44,2.44,0,0,0-1.16-2.37c-2.73-2.18-5.43-4.42-8.14-6.64a2.18,2.18,0,0,1-1.05-1.42c-.3-2.61-2-3.82-4.36-4.4-1.18-.3-2.36-.62-3.51-1a3.68,3.68,0,0,1-2.37-1.72c-1.18-2.72-3.5-3.53-6.12-3.93a28.55,28.55,0,0,1-3.6-.66c-2.08-.61-4.22-1.3-5.4-3.31a2.47,2.47,0,0,0-2.42-1.33,18.11,18.11,0,0,0-4,.88c-.6.13-.56.62-.53,1.06a22.89,22.89,0,0,1-.31,4.14,24.65,24.65,0,0,1-6.87,15c-.23.24-.7.39-.55.86a2.47,2.47,0,0,0,2.56-.79,59.67,59.67,0,0,1,9.14-7.23c2.13-1.41,4.31-2.75,6.56-4a1.19,1.19,0,0,1,1.75.64c.37.75-.21.94-.7,1.23a113.1,113.1,0,0,0-9.84,6.86,54.74,54.74,0,0,0-4.72,3.68A18.78,18.78,0,0,1,312,270.9a2,2,0,0,0,2.12-.34c2.33-1.71,4.69-3.39,7.09-5a38.14,38.14,0,0,1,8-4.09,2.06,2.06,0,0,1,1.45-.23c.4.16.91.31,1,.82s-.41.62-.76.79l-.74.37a96.25,96.25,0,0,0-11,6.32,14.87,14.87,0,0,0-3.21,2.72A31.55,31.55,0,0,0,323,277a1.57,1.57,0,0,0,1.71-.17,29.54,29.54,0,0,1,9.35-3.83,47.35,47.35,0,0,1,10.52-1.51,3.28,3.28,0,0,1,2.5.75l-5.94,1.58a89.07,89.07,0,0,0-13.46,4.33,4.18,4.18,0,0,0-1.54.87c2.38,1.42,4.68,2.77,6.95,4.16a1.7,1.7,0,0,0,1.57.22,27.9,27.9,0,0,1,6.33-1.35,42.27,42.27,0,0,1,9.8.06,1.47,1.47,0,0,1,1.45,1.44,62.77,62.77,0,0,0-17.29,2c1.85,2,3.54,3.74,5.38,5.35a3.13,3.13,0,0,0,2.72.91,31.57,31.57,0,0,1,6.66-.21,18.84,18.84,0,0,1,6.5,1.24c.85.35.84.37,1,1.64-4.41-.87-8.82-1.56-13.43-.54a35.17,35.17,0,0,0,2.16,2.87,7.37,7.37,0,0,0,5.66,3.46,31.27,31.27,0,0,1,11.59,4.45c.56.33.88.67.45,1.38a80.25,80.25,0,0,0-12.72-3.54.67.67,0,0,0,.19.66,63.83,63.83,0,0,1,6,8.61c.44.71.92,1.39,1.37,2.09.11.18.29.39.09.59s-.51,0-.7-.16a8.22,8.22,0,0,1-.52-.65c-1.32-1.65-2.62-3.31-4-4.94a6.39,6.39,0,0,0-2.19-2c.25,1.57.19,2.94.47,4.32a41.58,41.58,0,0,0,1.92,6.36c.19.5.62,1,.16,1.85a27.7,27.7,0,0,1-4-9.93,2.82,2.82,0,0,1,.1-1.32,4.87,4.87,0,0,0-.94-4.69,40.94,40.94,0,0,0-3.89-4.12c-.23-.24-.34-.75-.88-.56a7.24,7.24,0,0,0,.17,2.32c.61,3.67,1.58,7.26,2.31,10.9a7.89,7.89,0,0,1,.29,3.75,21,21,0,0,1-1.71-3.16,33.87,33.87,0,0,1-2.84-14.76,2.72,2.72,0,0,0-.26-1.95,29.58,29.58,0,0,0-5.94-5.7,42.94,42.94,0,0,0-.13,5.5,61.9,61.9,0,0,0,1,8.59c.37,2,1.14,3.94,1.45,6ZM68.86,207.54c0-.44.42-.62.7-.87a35.44,35.44,0,0,0,6.55-7.74,70.93,70.93,0,0,0,5.2-10.79c.89-2.19,1.76-4.4,2.72-6.8-3,.56-5.85,1.12-8.62,1.88a1.93,1.93,0,0,0-1.48,1.56,42.42,42.42,0,0,1-10.29,17.31,1.93,1.93,0,0,1-1.68.77c4.76-5.2,6.41-11.55,8.68-18-3,1-5.69,1.65-8.29,2.77a3.8,3.8,0,0,0-2.11,2.18,55.27,55.27,0,0,1-5.65,10.56,12.45,12.45,0,0,1-3.18,3.37,2.75,2.75,0,0,1-2.84.4,16.17,16.17,0,0,0,5.51-5.87,25.77,25.77,0,0,0,2.86-7.57,2.79,2.79,0,0,0-.55.12,116.32,116.32,0,0,0-12.71,8.85c-1,.82-1.92,1.69-2.89,2.52-.18.15-.4.21-.57,0a.38.38,0,0,1,0-.46l.62-.78c1.7-2.07,3.71-3.84,5.55-5.77.28-.3.75-.49.72-1a2.07,2.07,0,0,0-.5,0c-2.56.71-5.18,1.23-7.67,2.19-.29.11-.66.35-.9,0s.07-.63.29-.87a7.8,7.8,0,0,1,2.24-1.71,15.68,15.68,0,0,1,4.79-1.33,27.3,27.3,0,0,0,5.85-1.22,6.48,6.48,0,0,0,3.17-2.5,9.33,9.33,0,0,0-3.26-1.3,24.46,24.46,0,0,0-10.08.08,2.65,2.65,0,0,1-2.25-.32,1.86,1.86,0,0,1,1-.76c3.74-1.66,7.64-1.68,11.59-1.14a11.08,11.08,0,0,1,3.82,1.1,4.14,4.14,0,0,0,2.77.32c2.86-.58,5.16-2.32,8-3.59-5.57-3.77-11.31-5.69-17.85-5a1.21,1.21,0,0,1,.86-.69,14.75,14.75,0,0,1,9.79-.22A29.74,29.74,0,0,1,67,181.05a4,4,0,0,0,4.69.36c1.93-1,4-1.68,6.15-2.53A24,24,0,0,0,74,175c-3.7-3.16-8.12-4.7-12.79-5.7a32.77,32.77,0,0,1-5.28-1.18,3.94,3.94,0,0,1,2.79-.7,30.56,30.56,0,0,1,8.63,1.62,40.66,40.66,0,0,1,13.59,8.56,2.61,2.61,0,0,0,2.54.72c1.25-.25,2.52-.4,3.77-.66a40.91,40.91,0,0,0,4.84-.83c-.22-.28-.36-.5-.54-.69a83.13,83.13,0,0,0-6.14-5.88,23.77,23.77,0,0,0-9.77-5.52c-.56-.14-1.29-.32-1.14-1s.9-.36,1.43-.25a28.25,28.25,0,0,1,11,5.27c2.84,2.06,5.45,4.4,8.08,6.7.43.36.84.87,1.42.77,1.53-.26,3.11-.12,4.59-.7,1.11-.42,1.16-.48.65-1.51a26.72,26.72,0,0,0-2.87-4.49,45.34,45.34,0,0,0-8.92-8.69c-.34-.25-.91-.43-.79-1.19,4.93,1.47,8,5.33,11.84,8.63-.14-5.1,2.49-8.18,6.68-10.34-1.7-.86-3.16-1.64-4.65-2.33a17.66,17.66,0,0,0-3.88-1.48,2.21,2.21,0,0,0-1.72.2,8.8,8.8,0,0,1-5.44,1c-1.77-.16-3.51-.46-5.27-.72a3.11,3.11,0,0,0-2.42.23A11.62,11.62,0,0,1,78,156.58a30.89,30.89,0,0,0-6.43.71,2.51,2.51,0,0,0-1.79,1.32A4.38,4.38,0,0,1,67,160.86a24.75,24.75,0,0,1-7.31,1.19,2.26,2.26,0,0,0-2.09,1.13L56.49,165a2.58,2.58,0,0,1-1.83,1.33c-2.63.37-4.64,2-6.88,3.23-.38.2-.65.45-.57.9.45,2.32-1,3.62-2.59,4.83-1.06.8-2.14,1.58-3.22,2.36a2.4,2.4,0,0,0-1.07,1.63,6.91,6.91,0,0,1-2.56,4.15A23.52,23.52,0,0,0,34,187.21c-.53.75-.9,1.47-.22,2.41a2.72,2.72,0,0,1,0,3,22.54,22.54,0,0,1-1.25,2,16.64,16.64,0,0,0-1.74,2.63c-.27.62-.57,1.22.15,1.79.52.4.3,1,.3,1.56,0,2.17-.45,4.32-.28,6.48a17.24,17.24,0,0,0,.88,5.4,17.82,17.82,0,0,0,2.32-1.82,11.09,11.09,0,0,1,3.27-2.27,3.78,3.78,0,0,1,3.93.2,7.73,7.73,0,0,0,5.3,1.6c1.79-.08,3.55.23,5.32.3,1.94.09,2.21.36,2.55,2.17a1.72,1.72,0,0,0,1.66,1.53c2.51.44,5.05.66,7.58,1,1.34.15,2.59.39,3,2.08a3.1,3.1,0,0,0,3,2.27,41.58,41.58,0,0,0,4.32.28,5.36,5.36,0,0,1,4,1.35,2.52,2.52,0,0,0,2.78.51c1-.35,2-.58,3-.89,3.4-1,6.8-2.1,10.42-1.95a2.38,2.38,0,0,0,1.51-.62A18,18,0,0,0,99,215c1.32-1.55,2.88-2.94,5-3.1a4.29,4.29,0,0,0,3-1.52,8.21,8.21,0,0,0,1.84-2.75,13.12,13.12,0,0,1,1.39-2.84,3.29,3.29,0,0,1,2.9-1.66,1.82,1.82,0,0,0,1.13-.18,11.59,11.59,0,0,0,4.69-6.09.89.89,0,0,0-.52-1.21,19.57,19.57,0,0,1-3.65-2.61,40.43,40.43,0,0,0-3.92-3.1c-.67-.42-1-.28-1.16.48a33.65,33.65,0,0,1-1.6,4.55,75,75,0,0,1-5.79,10.5c-.24.38-.37.89-.84,1.1-.69-.7,0-1.08.24-1.49A42.71,42.71,0,0,0,108.19,188a1.49,1.49,0,0,0-.36-1.37,21.59,21.59,0,0,1-3.56-6.19c-.27-.67-.59-1.31-.88-2a.77.77,0,0,0-1-.56,1.94,1.94,0,0,0-1.85,1.54c-.79,2.66-1.74,5.28-2.6,7.92a77.11,77.11,0,0,1-5.81,14.33c-3.11,5.48-7.29,9.78-13.28,12.1a5.12,5.12,0,0,1-.77.3c-.38.09-.83.15-1-.31s.27-.55.52-.73c1.28-.89,2.58-1.75,3.85-2.65a23.6,23.6,0,0,0,4.32-3.65A39.54,39.54,0,0,0,91.26,198a73.79,73.79,0,0,0,5.31-16.78,5,5,0,0,0,.3-2.11,5.31,5.31,0,0,0-.57,0c-2.35.42-4.68.93-7,1.21a2.33,2.33,0,0,0-2.08,1.33c-1.39,2.72-2.84,5.41-4.27,8.11a77.11,77.11,0,0,1-8,13,32.63,32.63,0,0,1-4.44,4.51C70,207.66,69.5,208.23,68.86,207.54ZM170.66,142c.45-.22.75-.35,1-.5q6.78-3.73,13.57-7.45a157.46,157.46,0,0,0,18-11.14,10.65,10.65,0,0,0,3.94-5.61,16.06,16.06,0,0,0,.52-7.08,73.32,73.32,0,0,0-7.49-24,29.9,29.9,0,0,0-6.06-8.31,10.51,10.51,0,0,0-9.14-3,24.9,24.9,0,0,0-5.28,1.45A59.19,59.19,0,0,0,167.84,83a26.34,26.34,0,0,1-2.53,1.6A29.9,29.9,0,0,1,155,87.52a10.88,10.88,0,0,0-6.32,2.72c-4.76,4.58-8.31,9.9-8.78,16.7a13.19,13.19,0,0,0,3.23,10.19c2.89,3.17,6,6.08,9,9.16a32.53,32.53,0,0,1,6.5,9c.08.18.13.42.47.43.13-.64.22-1.3.4-1.94a12.76,12.76,0,0,1,1.25-3.94c1.37-2.1,2.56-2.06,3.75.14a36.15,36.15,0,0,1,1.57,3.67,5.18,5.18,0,0,0,1.17,2.1c.78-3.44,1.61-6.64,2.56-9.81a33,33,0,0,1,2.57-6.49c.26-.49.52-.8,1.14-.5s.91.54.66,1.24c-.33.94-.57,1.91-.89,2.86-1,3-2.22,5.92-3,9A16.19,16.19,0,0,0,170.66,142ZM226.32,93.6a9.28,9.28,0,0,0,2.3-1.29A32,32,0,0,1,233,89.59a2.53,2.53,0,0,0,1.5-1.83,68.42,68.42,0,0,1,2.71-8c1.38-3.2,3.08-6.17,5.95-8.3a6.29,6.29,0,0,1,1-.63c.52-.25.83.2,1.13.47s0,.58-.19.83c-.67.82-1.36,1.62-2,2.45a29,29,0,0,0-5.69,12.11c-.08.41-.29.83.07,1.26,2-.58,3.94-1.15,5.9-1.75a3.94,3.94,0,0,0,2.33-1.75,31.75,31.75,0,0,1,2.3-3.06A21.44,21.44,0,0,1,255.61,75a5.35,5.35,0,0,1,2.61-.71c-3.81,3.31-7.33,6.57-10,10.9,1.8,0,3.35,0,4.9,0a5.53,5.53,0,0,0,3.7-1.14A23.6,23.6,0,0,1,268.68,80c1.25-.13,1.36,0,1.8,1.39-1.75.7-3.62,1-5.42,1.53a12.93,12.93,0,0,0-4.36,2c-.68.52-.66.79.07,1.23a9.6,9.6,0,0,0,5.41,1.25,66.77,66.77,0,0,0,6.91-1,14,14,0,0,1,5.79.16c.33.1.66.26.64.65s-.36.62-.8.66c-.93.09-1.87.18-2.8.33a23.26,23.26,0,0,0-4.42,1,55.12,55.12,0,0,0,5.58,2.75,36.25,36.25,0,0,1,7.35,4.23,5.18,5.18,0,0,1,.73.67c.08.09,0,.32,0,.46a.3.3,0,0,1-.42.14c-.3-.14-.59-.31-.89-.46-2.92-1.5-5.82-3-8.75-4.48a48.91,48.91,0,0,0-11.22-4.12,3.44,3.44,0,0,0-2.05,0c3.34,3.86,6.73,7.33,11.34,9.34.26.11.73.13.56.61a.7.7,0,0,1-.89.54c-.27-.07-.54-.15-.8-.24a19.92,19.92,0,0,1-6-3.13,61.21,61.21,0,0,1-7.13-6.53,5.87,5.87,0,0,0-4.17-1.76A36.73,36.73,0,0,0,247,88a49.77,49.77,0,0,0,6.39,5,21.49,21.49,0,0,0,7.2,3.43c-1,.87-1,.89-2,.62a33.17,33.17,0,0,1-12.81-6.89,3.46,3.46,0,0,0-3.66-.73c-.52.17-1.08.28-1.59.49-1.07.44-2.14.92-3.19,1.42-.57.27-.76.65-.11,1.09l.84.55a93.7,93.7,0,0,0,10,5.31,101.36,101.36,0,0,0,11.42,4.55l-1.14.08a25.15,25.15,0,0,1-11.13-2.42,64.25,64.25,0,0,1-10.4-5.6c-2.08-1.39-3.7-1.42-5.6.14-1.23,1-2.75,1.68-3.79,3.19a133.53,133.53,0,0,0,21,9.83,20.35,20.35,0,0,1-9.4-1.45c-3.24-1.21-6.22-3-9.34-4.42-1.35-.63-2.74-1.21-4.1-1.82a.86.86,0,0,0-1.18.22c-1.47,1.84-3,3.67-4.54,5.62,4.8,1.64,9.3,3.54,14,4.93a61.72,61.72,0,0,0,14.33,2.55,1.3,1.3,0,0,1-.89.58,18.15,18.15,0,0,1-8.41.47c-4-.59-7.68-2.13-11.43-3.52a52.53,52.53,0,0,0-8.27-2.49,1.42,1.42,0,0,0-1.78.69,14.23,14.23,0,0,1-1.08,1.27c-.91,1.22-.81,1.71.52,2.46,2.57,1.45,5.29,2.58,8,3.82,4.72,2.19,9.27,4.63,12.26,9.14a1.16,1.16,0,0,0,1.3.49,20.19,20.19,0,0,0,5.42-1.58c.37-.17.71-.31.79-.75.36-2,2-2.52,3.62-2.93,1-.24,1.94-.46,2.92-.69a1.26,1.26,0,0,0,1.1-1.07c.32-1.69,1.59-2.32,3.1-2.6.87-.16,1.75-.24,2.63-.36a14,14,0,0,0,3.79-1.2c.58-.26,1.22-.67,1-1.35-.35-1,.32-1.15.9-1.42a23.43,23.43,0,0,1,6.43-1.66c2-.3,2-.29,2.46-2.28.32-1.38.61-1.62,2-1.7,2.33-.14,4.65-.27,7-.44a23.76,23.76,0,0,0,2.64-.32c.82-.14,1.5-.54,1.44-1.51-.06-1.13.64-1.57,1.53-1.89a5.7,5.7,0,0,1,2.63,0c1.44.18,2.86.74,4.5.28l-2.86-4.62a2.28,2.28,0,0,1-.46-1.55,5.7,5.7,0,0,0-1.83-4.65,23,23,0,0,0-2.85-2.55,2,2,0,0,1-1-2,4.93,4.93,0,0,0-1.71-4.16,25.22,25.22,0,0,0-5.68-4c-.91-.49-1.78-1-1.7-2.21a1.39,1.39,0,0,0-.61-1.12,12.14,12.14,0,0,0-3.25-2.3,20.81,20.81,0,0,0-6.56-1.77c-1.86-.2-2.09-.32-2.49-2.07a2.48,2.48,0,0,0-1.52-1.83,18.54,18.54,0,0,0-5-1.4c-2-.27-4-.31-6-.39-1.17,0-2.36-.08-3-1.36-.19-.38-.57-.3-.89-.3a22.19,22.19,0,0,0-4,.26c-2.13.41-4.18,1.09-6.26,1.68-.52.15-1.08.44-1.59.06-1.53-1.13-3.06-.78-4.53,0-2.08,1.16-4.27,2.14-6.24,3.51a4.14,4.14,0,0,1-3.4,1,2.79,2.79,0,0,0-2.6.63,9.46,9.46,0,0,0-2.85,3.43c-.47.88-.91,1.78-1.35,2.68a3.75,3.75,0,0,1-2.65,2.32,1.81,1.81,0,0,0-1.17.85,16.64,16.64,0,0,0-1.52,2.58c-1,2.06-1.49,4.29-2.31,6.41a2.18,2.18,0,0,0,.22,2.19c.31.46.55,1,.82,1.45a64.16,64.16,0,0,1,4.57,9.62c.51,1.47.72,3,1.18,4.64a25.68,25.68,0,0,0,2.06-3.45,3.54,3.54,0,0,0,.09-3.19A32.45,32.45,0,0,1,213,89.71a20,20,0,0,1,.87-6.74c.34-1,.77-1.3,1.53-1s.44.93.36,1.42a28.44,28.44,0,0,0-.47,5,35,35,0,0,0,2,11.25c.17.48.27,1.07.75,1.36,1.77-1.74,3.45-3.43,5.2-5a3.08,3.08,0,0,0,1-2.66,38.36,38.36,0,0,1,1.36-13.35A19.22,19.22,0,0,1,229.23,73c.21-.25.45-.57.83-.34a.82.82,0,0,1,.48,1,7,7,0,0,1-.54,1.22,39.35,39.35,0,0,0-3,7.41A21.71,21.71,0,0,0,226.32,93.6ZM116.56,265.4a13.73,13.73,0,0,0,2.07-1.69,25,25,0,0,1,4-3.22,4.57,4.57,0,0,1,2.27-1,5.59,5.59,0,0,0,3.47-1.42c.86-.71,1.65-1.49,2.52-2.19,1.21-1,2.24-2.42,4.16-1.81.14,0,.32-.09.49-.1a10.2,10.2,0,0,0,4.41-1.85c1.18-.73,2.34-1.5,3.55-2.19a2,2,0,0,1,2-.19,2,2,0,0,0,2.5-.83c1.48-1.82,3.43-3.15,5-4.84a3.7,3.7,0,0,1,3-1.28,1.51,1.51,0,0,0,1.48-.83c.81-1.19,1.67-2.36,2.56-3.5a14.19,14.19,0,0,1,5.51-4.71,2.5,2.5,0,0,0,1.26-1.26,19.56,19.56,0,0,0,1.17-3.12c.36-1.17.69-2.35,1.1-3.49a5.38,5.38,0,0,1,3-3.38,1.54,1.54,0,0,0,1-1,19,19,0,0,0,.67-6.1c0-.48-.25-.64-.71-.7a9.89,9.89,0,0,1-7.1-4.45c-1.27-1.89-2.53-3.79-3.81-5.68A22.26,22.26,0,0,0,158,199.9a50.64,50.64,0,0,0-5.39-3.61,8.4,8.4,0,0,1-3.46-3.74.38.38,0,0,0-.35-.26c-.76,1.92-.48,3.65.85,4.77a69.16,69.16,0,0,1,7.88,7.9,46.26,46.26,0,0,1,8.71,14.49c.34.93.6,1.9.88,2.86a.63.63,0,0,1-.35.83c-.44.19-.56-.2-.7-.49-.87-1.8-1.73-3.61-2.59-5.41a50,50,0,0,0-5.64-9.8,24,24,0,0,0-10-7.59,6.42,6.42,0,0,0-.31.84c-.45,2.46-.87,4.92-1.33,7.37a2,2,0,0,0,.51,1.68q1.69,2.26,3.35,4.57a35.63,35.63,0,0,1,4.71,8.41,16.34,16.34,0,0,1,.73,9.33c-.07.3,0,.75-.53.65s-.27-.44-.26-.7a18.84,18.84,0,0,0-.49-4.79c-1.22-5.5-4.27-9.94-8.06-14-.36-.39-.65-.91-1.32-1a55.53,55.53,0,0,0-2,6.17,3.08,3.08,0,0,0,.08,2.11,51.72,51.72,0,0,1,3,9.5,35.84,35.84,0,0,1,1.23,9.88c0,.72.09,1.51-.75,2.12a37.75,37.75,0,0,0-5.47-19.51c-1.2,2.58-2.26,4.88-3.33,7.19a1,1,0,0,0,0,.79,39.26,39.26,0,0,1,1.69,9.31,17.73,17.73,0,0,1-.47,6.28,2.14,2.14,0,0,1-1.31,1.8,22.9,22.9,0,0,0-1.46-14.77,1.73,1.73,0,0,0-.85,1,33.3,33.3,0,0,1-2.2,4.29c-1.52,2.15-1.71,4.51-1.66,7a1.93,1.93,0,0,1,0,.34c-.25,2.43-.39,4.88-1.74,7-.17.27-.24.76-.83.6.21-1.44.42-2.86.63-4.28a10.33,10.33,0,0,0,.1-4.48,29,29,0,0,0-2.48,4c-1.56,2.69-1.63,2.8-2.78,3.42,1.21-3.86,3.23-7.21,4.86-10.79a1.7,1.7,0,0,0-1.45.29,29.64,29.64,0,0,0-4.67,3.19c-.88.67-1.81,1.29-2.72,1.93-.24.16-.51.27-.73,0s0-.41.09-.59c.37-.49.72-1,1.12-1.44a21.94,21.94,0,0,1,9.15-6.2c.49-.18,1.09-.24,1.32-.88.67-1.85,1.36-3.69,2-5.5a1,1,0,0,0-1,0,35.79,35.79,0,0,0-9.45,5.18,14.15,14.15,0,0,1-1.26.81.51.51,0,0,1-.62-.09c-.3-.31,0-.52.17-.67.91-.73,1.81-1.48,2.76-2.14a64.13,64.13,0,0,1,8.87-4.95,4.8,4.8,0,0,0,2.48-2.36c.87-1.9,1.27-4,2.23-5.95a11.35,11.35,0,0,0-5.07.73A33.76,33.76,0,0,0,120,229.87c-.26.22-.47.57-.9.52a1.49,1.49,0,0,1,.4-1,19.88,19.88,0,0,1,7.16-6.35A48.31,48.31,0,0,1,138,218.83a1.84,1.84,0,0,0,1.55-1.47c.41-1.62.91-3.21,1.32-4.82a2,2,0,0,0-.07-1.77c-7.65,1.56-14.15,5.38-20.28,10-.23-.54.1-.74.28-1a24,24,0,0,1,9.33-7.35,71.41,71.41,0,0,1,11.13-3.94c.56-.16,1-.28,1.15-1,.42-1.67,1-3.29,1.47-4.94a21.57,21.57,0,0,0,.45-2.12c.12-.6-.18-.82-.75-.74a5.79,5.79,0,0,0-.82.12c-2,.5-4,1-5.9,1.74A95.08,95.08,0,0,0,122,208.63c-.49.28-1,.74-1.6.56-.11-.64.33-.85.66-1.13a60.54,60.54,0,0,1,9-6.36,36,36,0,0,1,13-4.59c1.85-.26,1.86-.21,1.84-2,0-.54.15-1.12-.19-1.61a1.71,1.71,0,0,0-1.14.18c-2.75.87-5.53,1.64-8.35,2.27-4,.89-7.91,1.82-12,1.47a2.12,2.12,0,0,0-2.28,1.19c-1,1.77-2.18,3.49-3.33,5.19-.92,1.34-1.92,2.49-3.86,2.37a1.7,1.7,0,0,0-1.89,1.88,18.53,18.53,0,0,0,.15,3.64,5.19,5.19,0,0,0,1.73,3.13,3,3,0,0,1,1,2.21,6.32,6.32,0,0,1-.44,2.44c-.37,1.1-.8,2.19-1.19,3.28a1.24,1.24,0,0,0,.48,1.71,2.76,2.76,0,0,1,1.14,2.79,11.7,11.7,0,0,1-.38,2.45,2.61,2.61,0,0,0,1.16,3.31,2.41,2.41,0,0,1,1,2.89c-.15.64-.23,1.31-.35,2a21,21,0,0,0-.51,3.63,3.66,3.66,0,0,0,1.29,3.12,2.87,2.87,0,0,1,1,3.26,19,19,0,0,1-1.34,4.11,2,2,0,0,0,.56,2.77,2.5,2.5,0,0,1,.74,3.14c-.43,1.2-.88,2.4-1.26,3.61A4.92,4.92,0,0,0,116.56,265.4Zm139.81,87.41c-1.12,3.63-.65,7.51-2.13,11.07-.57-.43-.75-.85-.58-1.3a13.84,13.84,0,0,0,.39-2.46,18.47,18.47,0,0,0,.06-5.57,11.69,11.69,0,0,0-1.8,2.69,49.35,49.35,0,0,1-2.68,4.61A2.14,2.14,0,0,1,248,363a5,5,0,0,1,.77-2.38,44.89,44.89,0,0,1,4.24-6.57,7.21,7.21,0,0,0,1.42-4.52,24.9,24.9,0,0,0-.32-3c-.12-.89-.28-1.79-.43-2.73a3.13,3.13,0,0,0-1.22,1.3,63.39,63.39,0,0,0-6.15,10.85c-.22.49-.26,1.19-1,1.34a.76.76,0,0,1-.14-.7c.42-1.38.8-2.78,1.28-4.14,1.44-4.11,3.12-8.1,6.31-11.22a1.67,1.67,0,0,0,.44-1.38,57.84,57.84,0,0,0-1.18-8.23,20.74,20.74,0,0,0-3.6,4.12c-2.82,4-4.61,8.48-6.33,13-.24.63-.46,1.25-.72,1.87a.58.58,0,0,1-.82.33.54.54,0,0,1-.32-.68c.1-.49.22-1,.35-1.45,1.85-7.23,4.88-13.82,10.33-19.09a1.09,1.09,0,0,0,.36-1.45,11.6,11.6,0,0,1-.8-3.55,13.56,13.56,0,0,0-.69-3.09c-.4-1.08-.54-1.12-1.54-.55a25.1,25.1,0,0,0-6.3,5.41,56.73,56.73,0,0,0-8.72,13.93,1.94,1.94,0,0,1-.74,1c-.22-.84-.22-.84-.05-1.42a38.07,38.07,0,0,1,9.23-15.63,49.24,49.24,0,0,1,6.34-5.65,1.38,1.38,0,0,0,.75-1.36c-.24-2-.45-4-.69-5.95-.08-.68-.34-.92-1.12-.65a20.93,20.93,0,0,0-8.19,4.93,42.05,42.05,0,0,0-8.16,11.3c-.21.43-.38.83-1,.61s-.48-.66-.31-1.1a25.35,25.35,0,0,1,1.86-3.9c3.56-6,8.09-11,14.43-14.15,2.11-1,2.11-1,1.89-3.37,0-.22-.06-.44-.08-.66,0-.6-.4-.58-.81-.38-.2.09-.38.24-.57.35-2.74,1.56-5.3,3.49-8.47,4.18a.7.7,0,0,0-.3.14c-1.52,1.57-3.5,1.49-5.44,1.55a13,13,0,0,0-2.15.16,2.62,2.62,0,0,0-2.32,3.24,2.26,2.26,0,0,1-.55,1.81c-1.14,1.51-2.24,3-3.37,4.56a2.39,2.39,0,0,0-.64,1.8,5.9,5.9,0,0,1-.94,3.48c-.43.78-.89,1.55-1.29,2.34-.95,1.88-.55,3.67,1.29,4.65a4.17,4.17,0,0,1,2.26,4.1,30,30,0,0,0,.11,3c.18,1.86.8,2.54,2.57,2.62a2.29,2.29,0,0,1,2,1.25,9.67,9.67,0,0,1,1.35,4.42c.17,1.65.73,2.84,2.6,3.09a2.69,2.69,0,0,1,2.3,2.32,18.65,18.65,0,0,0,2,4.94,2.28,2.28,0,0,0,.95,1.11c1.64.75,2.42,2.23,3.09,3.78.44,1,.83,2.06,1.25,3.08a3,3,0,0,0,1.43,1.55,6,6,0,0,1,3.36,6.18c0,.8,0,1.22.84,1.43a2.82,2.82,0,0,1,1.87,2.18,17.69,17.69,0,0,1,.35,1.79,11.28,11.28,0,0,0,.64,2.41c.49,1,.72,1.1,1.65.57a6.46,6.46,0,0,0,1.79-1.47,15.67,15.67,0,0,0,2.24-3.88,19.89,19.89,0,0,1,1.72-3c.36-.5.73-1.09,1.33-1.2,1.71-.32,2.27-1.61,2.75-3a18.89,18.89,0,0,0,.83-4.06c.06-.46.07-.87.57-1.1,1.81-.84,2.43-2.51,2.8-4.29.3-1.4.46-2.84.74-4.25.23-1.2.67-2.27,2.12-2.41.53-.05.74-.41.94-.83a5.36,5.36,0,0,0,.59-2.07c.05-1.16.29-2.3.3-3.48a4.51,4.51,0,0,1,1-3.09,9.11,9.11,0,0,0,2.05-5.52c.11-1.55.16-3.1.35-4.64.12-1,.06-2,.82-2.82a7.17,7.17,0,0,0,1.84-5.36,28.79,28.79,0,0,1,.24-4.82,5.48,5.48,0,0,1,1.38-3.32,2.06,2.06,0,0,0,.67-2.33c-.1-.32-.14-.65-.21-1-.34-1.67-.34-1.67-2.09-1.91-4.12-.55-8.24-1.05-12.35-1.68a27.69,27.69,0,0,1-9.81-3c-1.2-.69-2.44-1.31-3.69-1.93-.31-.15-.63-.51-1.13-.14a14.4,14.4,0,0,0-.32,2c-.05,1.28.41,1.77,1.66,2.08.76.18,1.51.38,2.24.63a58.54,58.54,0,0,1,19.07,11,10.11,10.11,0,0,1,2.21,2.49c.32.54.76,1.11.28,1.85-.44-.08-.62-.44-.86-.73a36.37,36.37,0,0,0-20.28-12.61c-1-.27-2.06-.47-3.09-.68-.48-.1-1,0-.89.62.25,1.91.19,3.88,1.06,5.69a3.37,3.37,0,0,0,1.69,1.74c1.32.59,2.6,1.26,3.9,1.89a53.81,53.81,0,0,1,9.53,5.44,19.63,19.63,0,0,1,5.48,6.2c.19.36.41.73,0,1s-.7-.08-.92-.37a22.45,22.45,0,0,0-7.88-6.3c-3.37-1.69-6.77-3.34-10.16-5-.12-.07-.3-.17-.47.16a33.79,33.79,0,0,0,2.05,6.88,3.21,3.21,0,0,0,1.57,1.83,45.3,45.3,0,0,1,5.65,3.54,20.19,20.19,0,0,1,6.22,6.62,5.78,5.78,0,0,1,.9,3.77,40.48,40.48,0,0,0-13.5-11.16,4.36,4.36,0,0,0-.05,2,18.67,18.67,0,0,1,.5,2.45,5,5,0,0,0,2.14,3.56c1.65,1.32,3.25,2.69,4.8,4.13a11.1,11.1,0,0,1,3.11,4.27c.22.63.4,1.27.56,1.91a.8.8,0,0,1-.35,1c-.57.28-.65-.28-.81-.57a19.67,19.67,0,0,0-4.15-4.76c-1.06-1-2.19-1.87-3.31-2.79-.27-.22-.48-.62-.93-.48a15.59,15.59,0,0,0-.34,3.32,2.53,2.53,0,0,0,1.15,2.4,34.55,34.55,0,0,1,4.48,4,7.07,7.07,0,0,1,2,3.93c.05.39.19.89-.39,1.14s-.92-.08-1.22-.52a26,26,0,0,0-3.9-4.54A7.61,7.61,0,0,0,256.37,352.81ZM162.44,149.19a13.52,13.52,0,0,0-4.51,3,49.19,49.19,0,0,0-6.22,7.8,36.79,36.79,0,0,1-4.94,5.85,15.58,15.58,0,0,1-4.15,2.74.94.94,0,0,1-1.31-.27,10.51,10.51,0,0,0-.72-.9c-.43-.47-.26-.76.2-1.06.83-.56,1.66-1.11,2.44-1.73a38.21,38.21,0,0,0,6.76-7.77c1.54-2.11,3.08-4.21,4.79-6.19,1.16-1.35,2.62-2.36,3.91-3.66a12.54,12.54,0,0,0-4.86-.27c-1.82.17-3.64.34-5.46.48a24.78,24.78,0,0,1-6-.58c-3.94-.64-7.93-.78-11.88-1.31a4,4,0,0,0-1.33,0,11.08,11.08,0,0,0-7.74,6,22.51,22.51,0,0,1-2.65,4.22,24.5,24.5,0,0,1-10.77,7.28,4.32,4.32,0,0,0-2.85,3,8.13,8.13,0,0,0-.33,4.26,27,27,0,0,0,12.9,18.36,16.44,16.44,0,0,0,7.37,2.38,3.77,3.77,0,0,0,2.79-.78c2-1.54,3.87-3.15,5.74-4.81,2.28-2,4.55-4.08,7-6a67.73,67.73,0,0,1,5.93-4c2.18-1.37,4.68-1.63,7.19-1.77a44.44,44.44,0,0,1,6,.22,1.6,1.6,0,0,0,1.64-.86,9,9,0,0,0,1.44-4.54c.06-4.62-.24-9.22-.36-13.83C162.4,152.83,162.44,151.16,162.44,149.19Zm115.35,94.28a.64.64,0,0,1,0,.64,5.59,5.59,0,0,1-3.21,3.4,31.54,31.54,0,0,1-7.95,2.32,28.46,28.46,0,0,0-5.42,1.26.87.87,0,0,0,.52.7,44.83,44.83,0,0,1,6.93,6,21.94,21.94,0,0,0,8.67,5.43c4.77,1.69,9.72,2.07,14.74,2.17a8.13,8.13,0,0,0,5.63-2,15.56,15.56,0,0,0,3.12-3.45c2.91-4.45,4-9.46,4.35-14.66a38,38,0,0,0-1.9-14.26,25.6,25.6,0,0,0-5.54-9.7,3.72,3.72,0,0,0-1.46.9,51.26,51.26,0,0,1-5.45,3.82c-1.88,1.05-3.89,1.86-6,1.36a26.73,26.73,0,0,1-7.66-2.62c-1.34-.79-2.65-1.62-4-2.42a18.5,18.5,0,0,0-4.18-2,7.15,7.15,0,0,0-6.62,1.07,3.5,3.5,0,0,0-1.22,1.52,52.66,52.66,0,0,0-2.22,6.44c-1.21,4.15-2.16,8.38-3.94,12.35a4.43,4.43,0,0,0-.72,1.8,3.8,3.8,0,0,0,2.15.33c1.27-.13,2.53-.32,3.8-.46a6,6,0,0,1,2.32.06,1.25,1.25,0,0,1,1,1.77c-.1.37-.31.71-.43,1.08-.3.9-.21,1,.8,1h.5a26.9,26.9,0,0,0,12.53-3.49C277.18,243.63,277.42,243.35,277.79,243.47Zm-31.15,4.09c-1.43-1.17-2.81-2.29-4.08-3.52-3.56-3.45-6.74-7.24-10.11-10.86a47.1,47.1,0,0,0-9.21-8.16,13.43,13.43,0,0,0-11.45-1.82,19.16,19.16,0,0,0-6,3.11,28.26,28.26,0,0,0-8.71,11c-2.67,5.73-4.13,11.72-3.23,18.07.84,6,4.32,10.18,10.25,11.82a24.34,24.34,0,0,0,12-.14,24.75,24.75,0,0,0,9.06-4q5.84-4.15,12-7.77c2.49-1.44,5.07-2.7,7.8-4a78,78,0,0,0-8.62-3.43,59.72,59.72,0,0,0-9-2,5.21,5.21,0,0,1,2.66-.67,21.15,21.15,0,0,1,7.83,1.32c2.16.7,4.31,1.43,6.52,2A1.84,1.84,0,0,0,246.64,247.56Zm-81-95.9a14.42,14.42,0,0,0-1,7.79,51.4,51.4,0,0,0,1.94,8.24c1.74,5.62.2,10.47-3.22,14.93a19.41,19.41,0,0,1-8.21,6.07c-1.16.48-1.21.69-.43,1.64a8.33,8.33,0,0,0,3.91,2.42,12.63,12.63,0,0,1,5.54,3.82c1.9,2.18,3.42,4.66,5.32,6.84a11.29,11.29,0,0,0,6.06,3.88,4.42,4.42,0,0,0,2.91-.2,84.06,84.06,0,0,1,8.46-3,52.28,52.28,0,0,0,10.72-4.45,5.24,5.24,0,0,0,2.78-5.86,37.7,37.7,0,0,0-.85-4.23,11.72,11.72,0,0,1,2.55-11.34l1.06-1.28c1-1.25,2-2.49,3-3.77a12.09,12.09,0,0,0,2.5-6.08c.2-1.82-.28-2.33-2-2a81,81,0,0,0-12.29,2.82,9.13,9.13,0,0,1-8.67-1.45,16.32,16.32,0,0,1-2.14-1.85c-1.9-2-3.75-3.94-5.63-5.92a62.43,62.43,0,0,0-6.86-6.55c-.62-.48-1.19-1.19-2.27-1.07a32.09,32.09,0,0,0,7.71,18.75c-1.51,1.12-1.66,1.17-2.24.36a71,71,0,0,1-6.1-9.53A28.45,28.45,0,0,1,165.66,151.66Zm6.67-3.54a49.29,49.29,0,0,1,6,5c1.84,1.85,3.68,3.71,5.54,5.55,1,1,2.1,2,3.14,3a1.88,1.88,0,0,0,1.5.55,16.57,16.57,0,0,0,6.4-1.65,59.67,59.67,0,0,0,7.86-5,40.73,40.73,0,0,1,4.51-2.85c5.42-2.85,9.63-2.82,14.53,1.48,1.22,1.07,2.34,2.21,3.45,3.39a44.06,44.06,0,0,0,4.52,4.44c2.06,1.66,3.95,1.14,4.77-1.34A38,38,0,0,0,236.29,146a62.09,62.09,0,0,0-2.08-12.27,12.46,12.46,0,0,0-3.76-6,25.1,25.1,0,0,0-8.91-4.72c-3.14-1.08-6.4-1.81-9.49-3.06a1.08,1.08,0,0,0-1.59.5,42.38,42.38,0,0,1-6.17,7.2,69.55,69.55,0,0,1-17.55,11.67c-3.74,1.82-7.56,3.47-11.4,5-.38.16-1,.15-1.11.9a47.33,47.33,0,0,0,10-.06c2.92-.34,5.83-.78,8.72-1.26a1.06,1.06,0,0,1,1.36.85,1,1,0,0,1-.64,1.34c-.4.19-.81.36-1.22.52a32.29,32.29,0,0,1-12.29,1.73C177.59,148.32,175,148.29,172.33,148.12Zm133,21.74c.71.29,1.15-.05,1.61-.18,3.19-1,6.4-1.84,9.66-2.49a47.86,47.86,0,0,1,15.56-.77,3,3,0,0,1,1.54.5,6.51,6.51,0,0,1-2.53,1.12,137.24,137.24,0,0,1-14.22,2.61,98.05,98.05,0,0,0-15.9,3.4c-.79.25-1.56.58-2.32.9a5.91,5.91,0,0,0-2.13,1.57c-.76.83-.68,1,.31,1.57s1.64,0,2.4-.15a96.45,96.45,0,0,1,20.09-2.56c.35,0,.8-.18,1,.46-1.42.23-2.8.45-4.19.69-5,.86-10,2.18-14.94,3.26-.57.12-1.34,0-1.7.52s.46.9.4,1.49a12.43,12.43,0,0,0,0,1.49,11.81,11.81,0,0,0,0,1.33c.16,1.41.8,1.93,2.23,1.84.61,0,1.21-.13,1.81-.21,2.2-.3,4.4-.57,6.59-.92.64-.1,1,0,1.22.62a4.92,4.92,0,0,1-1.55.78,31.45,31.45,0,0,1-6,1.34c-1.45.25-3,.13-4.29,1.1a28.32,28.32,0,0,1-7.32,3.9c-2.89,1.12-5.81,2.2-8.69,3.36a20.54,20.54,0,0,0-4.51,2.34,34.85,34.85,0,0,0,7.93-.51c4.11-.66,8.12-1.77,12.19-2.64a30.6,30.6,0,0,1,5.24-.89,2.62,2.62,0,0,1-1.08.75,31.76,31.76,0,0,1-4.55,1.57c-7,2-14.18,3.62-21.36,5-.6.12-1.24.2-1.54.83-.54,1.16-1.35,2.18-1.8,3.38-.74,1.94.07,3.17,2.15,3.21a47.22,47.22,0,0,0,9.27-.91,89.94,89.94,0,0,0,21.45-7c.71-.32,1.23-.45,1.65.34.14.28.5.46.36,1a28.51,28.51,0,0,1-4.79,2.8c-5.51,2.64-11.41,3.93-17.37,5-2.23.4-4.47.76-6.89,1.18a3.23,3.23,0,0,0,1.87.8c2.08.29,4.17.58,6.27.69a51.43,51.43,0,0,1,8.57,1.12,11.85,11.85,0,0,1,6.9,4.07c.55.69,1,1.45,1.59,2.32,1.08-1.69,2.43-3.18,2.63-5.06a12.89,12.89,0,0,1,3.32-7.11c1.08-1.27,2.22-2.49,3.36-3.71a2.22,2.22,0,0,0,.7-2.09,4,4,0,0,1,.68-3A15.08,15.08,0,0,1,319,197a25.69,25.69,0,0,0,2.69-2.73,2,2,0,0,0,.49-2.29,1.76,1.76,0,0,1,.49-2.09c1.76-2,3.43-4.08,5.15-6.11.67-.79,1.33-1.53.76-2.65-.25-.49.08-.88.29-1.23a15.84,15.84,0,0,1,2.08-2.81,70.06,70.06,0,0,1,5.56-4.78,10,10,0,0,0,2.19-2.48,19.29,19.29,0,0,1,4.34-5c1.57-1.3,3.12-2.63,5-4.19a64.85,64.85,0,0,0-21.43.41A52.14,52.14,0,0,0,305.3,169.86ZM157.54,143a13.48,13.48,0,0,0-3.56-4.64,46.82,46.82,0,0,0-7.84-5.32,37.11,37.11,0,0,1-4.12-2.47c.92-1.63.91-1.62,2.54-1.25a22.08,22.08,0,0,1,9.13,4.61,1.88,1.88,0,0,0,1.12.64c-.08-.34-.1-.56-.17-.76a13.45,13.45,0,0,0-4.62-6.2,59.41,59.41,0,0,1-9.62-9.14,19.88,19.88,0,0,1-4-11.77,29.73,29.73,0,0,1,.87-7.57,5.58,5.58,0,0,0-2.35-.22,39.16,39.16,0,0,0-10.77,1.88,68.28,68.28,0,0,0-6.5,2.53,3,3,0,0,0-1.94,3.91,15.84,15.84,0,0,0,.8,2.18c.43,1.09.91,2.14,1.25,3.26.69,2.2-.29,3.4-2.39,3.82-.75.15-1.55.1-2.32.19-3.47.4-4.77.5-6.24,4.61a21.68,21.68,0,0,0-.7,11.65c1.43,7.28,5.16,13.38,9.79,19.15a14.31,14.31,0,0,0,2.52-3.14,16,16,0,0,1,9.55-7.31c4.15-1.18,8.35-.93,12.55-.39s8.56,1.23,12.85,1.74A16.86,16.86,0,0,0,157.54,143ZM262.4,273.54a5.15,5.15,0,0,1-.77-2.19,85.43,85.43,0,0,0-3.36-10.61,25.5,25.5,0,0,0-2.4-4.75,1.63,1.63,0,0,0-1.81-.88c-.72.17-.61.88-.71,1.37-.46,2.17-1,4.31-1.6,6.45-1.62,5.82-3.45,11.58-4,17.64A18.73,18.73,0,0,0,249,290a11.33,11.33,0,0,0,5.42,5.85c2.3,1.12,4.54,2.34,6.83,3.46a39.23,39.23,0,0,0,9.51,3.45c4.39.86,8.25-.07,11.38-3.44a19.38,19.38,0,0,0,2.81-3.71,65.87,65.87,0,0,0,5.66-14.53,30.66,30.66,0,0,0,.91-5.39c.13-1.3.08-1.32-1.17-1.69a54.71,54.71,0,0,1-10-4.09c-3.73-2-7.25-4.31-10.82-6.55a34.42,34.42,0,0,1-5.74-4.52,27.9,27.9,0,0,0-4.3-3.67,2.83,2.83,0,0,0-1.65-.73,8.79,8.79,0,0,0,.92,2.07,56.94,56.94,0,0,1,4.57,11.22,9.63,9.63,0,0,1,.49,3.44C263.77,272.18,263.61,273.21,262.4,273.54Zm-15.75-19.8a42.73,42.73,0,0,0-11.47,6.55c-3.05,2.59-6,5.26-9.29,7.58-4.28,3-8.81,5.59-14,6.67a1.51,1.51,0,0,0-1.34,1.43,20.49,20.49,0,0,0-.08,5.8,28.47,28.47,0,0,0,5.7,14.19,16.46,16.46,0,0,0,12.33,6.67,26.49,26.49,0,0,0,15.8-4.18c1.19-.72,1.25-.85.47-2.07a12.55,12.55,0,0,1-1.75-3.56,28.35,28.35,0,0,1,0-13.67,92.84,92.84,0,0,1,4.54-13.38c1.08-2.74,2.13-5.48,3-8.3a1.67,1.67,0,0,0-.05-1.58c-.32-.46-.75-.46-1,0s-.43,1-.66,1.53a19.07,19.07,0,0,1-8.35,9.62,2.74,2.74,0,0,1-2.36.34c.09-.58.61-.64,1-.88a22.61,22.61,0,0,0,8-10.25A2.15,2.15,0,0,0,246.65,253.74Zm25.11-41.39c-4.18-3.85-8.71-6.77-13-10a1.38,1.38,0,0,0-1.55-.11,8.3,8.3,0,0,0-2.54,1.85,18.22,18.22,0,0,1-3.06,2.29,6.12,6.12,0,0,1-4.61.84,25.8,25.8,0,0,1-5.31-1.89,11.28,11.28,0,0,0-7.8-.51c-6.95,1.91-10.74,7-11.08,14.05,0,.64-.12,1.25.65,1.72,4.93,2.94,8.82,7.06,12.57,11.32,3.2,3.62,6.27,7.36,9.78,10.69a12,12,0,0,0,2.88,2.29A22.81,22.81,0,0,0,250.1,235c-.22-3.4-.53-6.79-.8-10.18,2.64,4,2.64,8.69,3.52,13.38a4.59,4.59,0,0,0,.38-.69c1.65-5.69,3.42-11.36,4.9-17.1a9.33,9.33,0,0,1,7-7A38.25,38.25,0,0,1,271.76,212.35Zm-78.91,55.2c-.86-1.05-1.47-1.77-2-2.51s-1.12-1.53-1.65-2.31a8.48,8.48,0,0,0-1.51-2.16c-.76-.54-1.8,0-2.73,0a3.26,3.26,0,0,1-2.8-1.05c.5-.69,1.18-.64,1.83-.66a11.17,11.17,0,0,0,1.83-.1c.45-.07.86-.35.67-.93-.53-1.61-.31-3.31-.56-5-.14-.92-.49-1-1.27-1a34.48,34.48,0,0,1-7.27-.5,7.28,7.28,0,0,1,3.48-.8,25.63,25.63,0,0,0,3.3-.38,1.49,1.49,0,0,0,1.5-1.45c.15-1.71.34-3.41.51-5.12.05-.55-.18-.84-.76-.82-1.11,0-2.21.08-3.32.21a51.16,51.16,0,0,1-8.3.46,1.84,1.84,0,0,1-1.75-.8,44.3,44.3,0,0,0,8.18-1.14,18.81,18.81,0,0,0,6.37-2.34c1.09-.7,2.05-1.53,2-3a2.31,2.31,0,0,1,.79-1.6,14,14,0,0,0,1.17-1.4,1.27,1.27,0,0,0,0-1.69A1.19,1.19,0,0,0,189,231a23.44,23.44,0,0,1-3.19,1,49.32,49.32,0,0,1-12.13,1.77c-.58,0-1.24.21-1.71-.47a158.93,158.93,0,0,0,15.73-4.44,21.86,21.86,0,0,0-3.31-3.76.84.84,0,0,0-.91-.24c-2.86.86-5.84.54-8.75.87-2.5.28-2.72.32-3.53,2.73-.27.79-.47,1.6-.72,2.39-.37,1.17-.68,2.35-1.13,3.48a5.22,5.22,0,0,1-2.91,3c-1.72.71-1.73.73-1.09,2.46a15.2,15.2,0,0,0,1.4,2.83,28.79,28.79,0,0,0,2.7,3.59,1.2,1.2,0,0,1,.18,1.6c-.82,1.65-.76,1.82.68,3.12,2.61,2.33,5.23,4.64,7.85,7,.31.27.93.51.57,1-.92,1.33,0,2.22.71,3.09.85,1.09,2.11,1.83,3,2.84a6.23,6.23,0,0,0,4.86,2.28C189,267.13,190.77,267.38,192.85,267.55Zm20.78-102.49c0,2.32-.18,4.53-.12,6.73a11.56,11.56,0,0,1-1,5c-.94,2.13-2,4.24-2.89,6.37-1.34,3-1.09,3.67,1.91,5.06a10.77,10.77,0,0,0,1.57.54,3.36,3.36,0,0,0,3-.23,2.71,2.71,0,0,1,2.24-.17,12.14,12.14,0,0,1,3.23,1.69,11,11,0,0,0,2.51,1.27c.52.16,1.09.34,1.54-.2,1-1.24,2.34-1.18,3.65-.66a40.83,40.83,0,0,0,4.46,1.34,2.65,2.65,0,0,0,3.16-1.11,14.92,14.92,0,0,0,1.62-3.09,7.76,7.76,0,0,1,1.86-2.93,1.46,1.46,0,0,0,.38-1.79,15.55,15.55,0,0,1-.62-3.25,25,25,0,0,1,0-7,1.73,1.73,0,0,0-.92-1.92,36,36,0,0,0-5.53-2.65A1.79,1.79,0,0,0,233,168c-1-.06-1.4-.1-1.47,1.18a27,27,0,0,0,.49,6.29c.57,3.1,1.41,6.16,1.67,9.32a.94.94,0,0,1-1.19,1c-.34-.14-.44-.49-.58-.78a25.3,25.3,0,0,1-2.14-8.84c-.21-2.27-.43-4.53-.55-6.79,0-.79-.34-1-1.06-1.15a29.68,29.68,0,0,1-5.77-1.57c-1-.37-1.11-.26-1.16.83a20.89,20.89,0,0,0,.44,4.46c.45,2.57,1.23,5.06,1.91,7.58.32,1.17.61,2.36.92,3.53.2.71-.17,1-.79,1.19-1,.3-1.23-.47-1.48-1.14a44.55,44.55,0,0,1-3.4-16,1.32,1.32,0,0,0-1.18-1.48C216.39,165.23,215.05,165.43,213.63,165.06Zm24.5-3.13A51.76,51.76,0,0,1,243,160c1.67-.4,3.33-.85,5-1.22,4.16-.92,4.16-.91,5-.33A41.77,41.77,0,0,0,236.49,166c1.78,1,3.44,1.93,5,3a2.34,2.34,0,0,0,2.58.17,54.31,54.31,0,0,1,7.6-2.95,22.87,22.87,0,0,1,7.53-1.1c.64,0,1.07.14,1,.93,0,.64,0,1.19-.89,1.27a47.89,47.89,0,0,0-8.11,1.77,47.6,47.6,0,0,0-6.4,2.08c1.33,1.07,2.68,1.84,4,2.69.49.33.83.1,1.18-.18,3.09-2.48,6.71-3.86,10.42-5.08,1.56-.52,3.11-1.07,4.84-1.67-1.18-1.12-2.21-2.13-3.28-3.08a1.49,1.49,0,0,1-.52-1.91,1.8,1.8,0,0,0-.35-2,18.42,18.42,0,0,0-1.47-1.81,56.68,56.68,0,0,0-4.85-4.32,1.85,1.85,0,0,1-.85-1.66,3.58,3.58,0,0,0-1.65-3.27c-1.11-.84-2.26-1.62-3.42-2.39a11.44,11.44,0,0,1-2-1.7,3.09,3.09,0,0,1-.82-3.38c.59-1.34,0-2.06-.86-2.81a20,20,0,0,0-1.64-1.41,5.08,5.08,0,0,0-2.74-1.2c0,.73.1,1.37.1,2,0,2.56,0,5.12,0,7.67a24.83,24.83,0,0,0,.36,4.31c.09.56.33.79.9.55a8.54,8.54,0,0,1,1.11-.38,6.85,6.85,0,0,1,4-.28,40.65,40.65,0,0,1-4.76,2.28,1.89,1.89,0,0,0-1.46,1.74,19,19,0,0,1-1.94,5.82C238.79,160.35,238.52,161,238.13,161.93ZM207,219.61a8.55,8.55,0,0,1,4.77-1.09c1.22,0,2.45,0,3.67-.09a2.31,2.31,0,0,0,2.15-1.57,37.38,37.38,0,0,0,1.85-6.72c.16-.91-.09-1.2-1-1.34a2,2,0,0,0-1.28.23c-1.43.69-1.93.58-3.1-.5-.65-.6-1.29-1.22-2-1.78-1.11-.9-1.12-.88-2.13.15-.72.74-1,.76-1.73,0a26.48,26.48,0,0,0-4.13-3.34,5.07,5.07,0,0,0-6.44-.1,37.51,37.51,0,0,1-3.67,2.29,1.76,1.76,0,0,0-1.14,1.93,16.42,16.42,0,0,1-1.8,8.37c-1.05,2.2-2.15,4.39-3.19,6.6-.22.45-.58.91-.06,1.51a16.58,16.58,0,0,0,3.91,3.64,44.89,44.89,0,0,0,2.91-5.09c1.68-3.06,3.46-6.09,4.1-9.6.37-2,.71-4,1.1-6.06a2.19,2.19,0,0,1,.61-1.47c.37.09.43.26.42.41a30.79,30.79,0,0,1-.1,3.33A52.4,52.4,0,0,1,195.27,227c.25,0,.39.06.44,0,2.37-1.86,4.91-3.46,7.4-5.12a5.05,5.05,0,0,0,2.18-3c.3-1.12.5-2.27.84-3.38.45-1.48.43-3.07,1.22-4.7C208.77,213.8,207.41,216.55,207,219.61Zm42.29-39.47a24.42,24.42,0,0,1,9.21,2,8.86,8.86,0,0,0,1.11.34,54.13,54.13,0,0,0,15.68,1.62A17.92,17.92,0,0,0,286,180a4.66,4.66,0,0,0,1.11-1.23c.29-.51.36-.95-.27-1.24-2.6-1.2-4.68-3.16-7-4.83a16.21,16.21,0,0,0-4.73-2.74,6.21,6.21,0,0,0-3.72-.35c-3.41,1-6.85,1.86-10.25,2.89a26.34,26.34,0,0,0-8.1,3.8A13.74,13.74,0,0,0,249.3,180.14ZM172.36,74.32a8.19,8.19,0,0,0,1.91-2.53c.77-1.41,1.47-2.87,2.13-4.34.32-.72.83-.61,1.38-.54s.73.53.68,1.1a7.53,7.53,0,0,1-1.25,3.23l-1.66,2.63c2.4-1.1,4.41-2,6.4-3,.88-.41.93-1.18.21-1.81a1.61,1.61,0,0,0-.76-.29,3,3,0,0,1-2.27-2.76c-.12-.88-.23-1.76-.36-2.64-.18-1.14-.42-2.21-1.87-2.38a1.17,1.17,0,0,1-1.05-1.31,3.44,3.44,0,0,0-1.37-3.31,2.62,2.62,0,0,1-.74-1.47,17.12,17.12,0,0,1-.37-2.47,9.2,9.2,0,0,0-.79-3.55,3.07,3.07,0,0,0-.83,2.09,10.71,10.71,0,0,1-1,3.5,2,2,0,0,1-2.07,1.32c-1.38-.08-1.89.37-2.32,1.67a10.24,10.24,0,0,0-.31,1.46A11.24,11.24,0,0,1,164.64,63c-.31.53-.75,1.2-1.38,1-1.27-.35-1.42.42-1.57,1.27-.23,1.25-.41,2.51-.61,3.77-.27,1.64-.91,3-2.69,3.42a1.24,1.24,0,0,0-.92.85,9.13,9.13,0,0,0-.42,5.88,1,1,0,0,0,.88.87c1.58.11,3.19.4,4.67-.38.1-1.3-1-2.48-.14-3.78.68.56.69,1.33.95,2s.36,1,.52,1.58c.24.74.66.79,1.24.36a11,11,0,0,1,2.94-1.55c.52-.19.7-.45.52-1-.33-1-.61-1.91-.91-2.86a25.85,25.85,0,0,1-1.31-5.32,2,2,0,0,1,.46-2c1.06,2.58,1.65,5.21,3.1,7.64.2-.46.36-.76.46-1.07a27.28,27.28,0,0,0,1.71-10.12,19.47,19.47,0,0,1,.05-2.16.53.53,0,0,1,.54-.52.61.61,0,0,1,.61.47,1.57,1.57,0,0,1,.07.49,29.67,29.67,0,0,1-.12,6.32C173,70.11,172.71,72,172.36,74.32ZM203.68,200.2c2.22,1,3.36,2.77,4.92,4.07,1.77-1.38,2.44-1.37,4.18.07.22.17.4.39.61.57,2.16,1.85,2.16,1.85,4.59.59,2.39,2.35,3.13,2.38,5.05-.23A15.17,15.17,0,0,1,230,200a12.66,12.66,0,0,0,2.62-1.45,4.64,4.64,0,0,0,1.81-2.71c.24-1,0-1.3-1-1.45-1.26-.2-2.54-.3-3.78-.55a2.14,2.14,0,0,0-1.73.24,4.23,4.23,0,0,1-4.15.17c-.87-.37-1.69-.84-2.53-1.27s-1.62-1-2.5-1.31a1.38,1.38,0,0,0-1.65.17,3.19,3.19,0,0,1-3.13.52,14.08,14.08,0,0,1-2.85-1.36c-.78-.43-1.55-.87-2.34-1.27-.44-.22-.74-.07-.8.46q0,.5-.12,1C207.25,194.52,206.77,197.84,203.68,200.2Zm86.46-10.72c-2.61-1.1-5.05-1.63-7.39-2.43a1.87,1.87,0,0,0-1.43.26,13.45,13.45,0,0,1-12.16-.69,4.66,4.66,0,0,0-1.85-.58,31.78,31.78,0,0,1-8.49-1.42,28.29,28.29,0,0,0-6.12-1.47,6.93,6.93,0,0,0-5.58,1.75c.29.17.47.3.67.39,4.43,1.87,8.79,3.93,13.31,5.61,5.22,1.94,10.53,3.38,16.2,3A27.72,27.72,0,0,0,290.14,189.48ZM133.49,192a2.44,2.44,0,0,0,1.43,0,88.36,88.36,0,0,0,16.65-5.67,32.32,32.32,0,0,0,6.57-3.55,16,16,0,0,0,4.29-4.44A.49.49,0,0,0,162,178a27.38,27.38,0,0,0-5-.46c-4.37-.34-8.46.32-11.9,3.49C141.27,184.55,137.84,188.57,133.49,192Zm57.61,15.65a67.65,67.65,0,0,1-8.09,3.71c-.56.24-1.11.51-1.64.8-1.39.75-1.41.8-.79,2.32a21.21,21.21,0,0,0,4.5,6.13c.39.42.69.19.94-.16.69-.94,1.42-1.85,2-2.85A18.78,18.78,0,0,0,191.1,207.62ZM162.2,131.8c-1.29,4.28-1.81,8.56.16,12.75,1.61,3.43,1.69,3.59,5.06,1.38,1.79-1.17,1.82-1.42,1.07-3.41a45.64,45.64,0,0,0-5.15-9.68C163.08,132.45,162.89,131.92,162.2,131.8Zm132.3,86.3c-1.4-.11-2.45-.26-3.48-.28-4.88-.11-9.67-1-14.5-1.61a19.73,19.73,0,0,0-6.57.38,15.18,15.18,0,0,0,3.35,1.55c3.12,1.13,6.28,2.16,9.36,3.39a8.07,8.07,0,0,0,5.82.12A22.39,22.39,0,0,0,294.5,218.1Zm-25-13.77c-.23-1.35-.42-2.43-.6-3.51a9,9,0,0,0-.73-2.38,1.2,1.2,0,0,0-1.14-.79,18,18,0,0,1-7.43-2.18L254,192.82a1.54,1.54,0,0,0-2.07.26,4.44,4.44,0,0,1-2.2,1.14c-.65.17-1.46,0-1.75.95-.22.73-.78,1.34-.82,2.16,0,.54.18.8.75.84a3.48,3.48,0,0,0,2.59-.92,16.25,16.25,0,0,1,2.64-2,2.77,2.77,0,0,1,3.26.15c2,1.43,4,2.77,6,4.15Zm-9.09,41.5a37.82,37.82,0,0,0-8.75,1,5.11,5.11,0,0,0-2.65,1.63,2.49,2.49,0,0,0-.33,3.34,2.54,2.54,0,0,0,3.4,1.19,8.26,8.26,0,0,0,1.64-.79A28.36,28.36,0,0,0,260.41,245.83Zm-84.35-22.36a21.24,21.24,0,0,0,5.85-1c.69-.2.65-.62.33-1.15a30.64,30.64,0,0,1-1.87-4.07c-.42-1-.85-2-1.34-3s-.89-1-1.46-.06a7,7,0,0,0-.84,2.67C176.44,218.94,176.74,221.13,176.06,223.47Zm66.55-42.56c.79-.2,1-.75,1.3-1.19a11.21,11.21,0,0,1,2.72-3.29c.64-.43.3-.88-.11-1.21a12.88,12.88,0,0,0-4.24-2.27C242.39,175.7,242,178.26,242.61,180.91ZM236,197.59c2.54.28,2.09.61,3.23-1.45a60.5,60.5,0,0,1,3.5-5.62c1-1.38,1-1.54-.54-2.77C240.14,191,238.09,194.27,236,197.59Zm35,.84a35.89,35.89,0,0,0,1.87,5.16c1.54-1.4,2-3.23,3-4.83C274.27,198.15,272.73,198.49,271,198.43Zm15.61-13.53a7.69,7.69,0,0,0,4.17.95c2.09-.14,2.27-1.16,1.53-2.93-.21-.53-.58-.71-1.18-.39C289.71,183.32,288.25,184.06,286.63,184.9Zm-43,13.28a1.22,1.22,0,0,0,1.26-.88l.93-2.48c.21-.56-.18-.73-.58-.7a2,2,0,0,0-1.57,1.11,11.73,11.73,0,0,0-.78,1.82C242.63,197.87,242.85,198.19,243.67,198.18Zm5.47-6.51c-.13-.15-.21-.31-.34-.38a5.45,5.45,0,0,0-.89-.39c-1-.32-1.09-.26-1.31,1.12C247.45,192,248.33,192.31,249.14,191.67Z" transform="translate(-26.8 -19.28)"/><path class="cls-2" d="M203.68,200.2c3.09-2.36,3.57-5.68,4.12-9q.07-.5.12-1c.06-.53.36-.68.8-.46.79.4,1.56.84,2.34,1.27a14.08,14.08,0,0,0,2.85,1.36,3.19,3.19,0,0,0,3.13-.52,1.38,1.38,0,0,1,1.65-.17c.88.35,1.67.88,2.5,1.31s1.66.9,2.53,1.27a4.23,4.23,0,0,0,4.15-.17,2.14,2.14,0,0,1,1.73-.24c1.24.25,2.52.35,3.78.55,1,.15,1.24.46,1,1.45a4.64,4.64,0,0,1-1.81,2.71A12.66,12.66,0,0,1,230,200a15.17,15.17,0,0,0-6.92,5.23c-1.92,2.61-2.66,2.58-5.05.23-2.43,1.26-2.43,1.26-4.59-.59-.21-.18-.39-.4-.61-.57-1.74-1.44-2.41-1.45-4.18-.07C207,203,205.9,201.15,203.68,200.2Z" transform="translate(-26.8 -19.28)"/><path class="cls-2" d="M197.83,163.37a17.82,17.82,0,0,0,4.15-3,42,42,0,0,1,6.64-4.4,11.59,11.59,0,0,1,3.08-1.2,4.86,4.86,0,0,1,4.39.82c3.45,2.7,6.8,5.51,10.13,8.36.08.06.1.19.21.39-2-.38-3.93-.8-5.87-1.11a54.82,54.82,0,0,0-20.82.14c-.54.12-1.08.28-1.61.43C197.94,163.71,197.79,163.61,197.83,163.37Z" transform="translate(-26.8 -19.28)"/><path class="cls-3" d="M294.5,218.1a22.39,22.39,0,0,1-6,3.55,8.07,8.07,0,0,1-5.82-.12c-3.08-1.23-6.24-2.26-9.36-3.39a15.18,15.18,0,0,1-3.35-1.55,19.73,19.73,0,0,1,6.57-.38c4.83.59,9.62,1.5,14.5,1.61C292.05,217.84,293.1,218,294.5,218.1Z" transform="translate(-26.8 -19.28)"/><path class="cls-3" d="M286.63,184.9c1.62-.84,3.08-1.58,4.52-2.37.6-.32,1-.14,1.18.39.74,1.77.56,2.79-1.53,2.93A7.69,7.69,0,0,1,286.63,184.9Z" transform="translate(-26.8 -19.28)"/><path class="cls-3" d="M243.67,198.18c-.82,0-1-.31-.74-1.13a11.73,11.73,0,0,1,.78-1.82,2,2,0,0,1,1.57-1.11c.4,0,.79.14.58.7l-.93,2.48A1.22,1.22,0,0,1,243.67,198.18Z" transform="translate(-26.8 -19.28)"/><path class="cls-3" d="M249.14,191.67c-.81.64-1.69.34-2.54.35.22-1.38.3-1.44,1.31-1.12a5.45,5.45,0,0,1,.89.39C248.93,191.36,249,191.52,249.14,191.67Z" transform="translate(-26.8 -19.28)"/><path class="cls-4" d="M62,203.2c-1,1.59-2.61,2.5-4.32,3.74.13-1.56,1.36-1.6,2-2.16A6,6,0,0,1,62,203.2Z" transform="translate(-26.8 -19.28)"/><path class="cls-4" d="M338.41,310.24c.22.1.33.35.15.46s-.22-.2-.3-.34Z" transform="translate(-26.8 -19.28)"/><path class="cls-4" d="M103.27,50.55c-.17,0-.33-.19-.22-.33.24-.31.3,0,.42.16Z" transform="translate(-26.8 -19.28)"/><path class="cls-4" d="M80.57,111.65c-.07-.07-.19-.19-.18-.21.15-.23.24-.06.33.06Z" transform="translate(-26.8 -19.28)"/><path class="cls-4" d="M154.07,336.3l-.16.2c-.07-.18,0-.27.17-.19Z" transform="translate(-26.8 -19.28)"/></svg>
