<?xml version="1.0"?>
<svg xmlns="http://www.w3.org/2000/svg" id="Layer_1" data-name="Layer 1" viewBox="0 0 513.16 837.52" width="513" height="838"><defs><style>.cls-1{fill:none;}.cls-1,.cls-2{fill-rule:evenodd;}</style></defs><path class="cls-1" d="M273.37,5.23q141,0,281.91-.07c2.72,0,3.33.61,3.33,3.34q-.11,415.42,0,830.85c0,2.72-.61,3.33-3.33,3.33q-253.24-.1-506.5,0c-2.72,0-3.33-.61-3.33-3.33q.11-415.43,0-830.85c0-2.73.61-3.34,3.33-3.34q109,.13,218.06.07C265.82,6.72,264,7,262.65,8c-4.31,3-7.5,9.12-6.25,13,1.19,3.64,1.16,7.39,1.52,11.09a12.91,12.91,0,0,1-2.07,8.67c-2,2.85-4.75,4.16-8.16,3.32-3.22-.79-4.54-3.09-4.83-6.4a76,76,0,0,0-2.57-15.72c-1.53-5-6.81-8-12.67-7.31-4.83.54-7.47,3.52-8.13,9.08-.6,5.15.57,9.59,4.91,12.85,1.54,1.16,3.07,2.35,4.52,3.63,3.76,3.34,4.43,7.79,3.52,12.31-.79,3.91-4.4,5.23-7.84,6.15-4.39,1.17-7.06-1.36-9.24-4.72-1-1.52-2-3-3.06-4.49-2.92-4.2-6.13-8.1-10.65-10.71a12.16,12.16,0,0,0-15.46,2.74c-3.35,4.21-2.75,11.1,1.34,15.28,3.42,3.49,7.73,5.27,12.31,6.6,3.94,1.15,7.94,2.17,11.78,3.62,4.15,1.57,6.49,5.88,5.57,9.47s-3.53,5.09-8.58,4.88c-1,0-1.92-.21-2.88-.32-5.87-.71-11.6-2.37-17.53-2.74-6.27-.39-12.76,2.6-14.93,7-2.77,5.67-1.74,11.9,2.83,17.1,5.07,5.76,12.79,6.22,18.49.69,4.44-4.31,9.12-5.89,15.11-3.68s11.49,5,17.13,7.79a18.93,18.93,0,0,1,10.62,13.45c1,4.36,1.74,8.76,2.41,13.18a39.44,39.44,0,0,0,12,23c6.31,6.06,13.81,10.54,21.38,14.86,6.46,3.69,7.78,8.52,3.57,14.69a80,80,0,0,1-6.89,8.39c-16.36,18.09-31.33,37.12-40.53,60-4.19,10.42-8.69,20.72-10.35,32a106,106,0,0,0-1,27c1.12,10.43-1.45,21.05,1.07,31.41,2.89,11.88-6.54,21.41-18.5,21.83a128.59,128.59,0,0,0-13.74,1c-7,1-13.77,2.51-19.55,7-10.89,8.4-22.16,16.33-30.53,27.56-3,4-7.42,6-12.35,7-6.13,1.18-10.63-2.23-10.73-8.4,0-3.51-.47-7.14.28-10.49,1.6-7.09-3.85-12.82-9.24-15.17A13.26,13.26,0,0,0,91,377.05c-3.7,2.79-4.59,6.76-3.56,11.37s4,7.89,7.28,10.95c2.4,2.21,4.93,4.3,7.19,6.63,2.41,2.48,2.33,6.1-.13,8-2.13,1.66-4.45,2.72-7.4,2-4.09-.95-7.66-3-11.18-5.07a36,36,0,0,0-16.41-5.14c-6.89-.4-12.77,2.93-15,8.56-2.52,6.46-.87,13.45,4.33,17.33,4,3,8.56,2.17,12.82.89,3.82-1.14,7.54-2.56,11.49-3.25,9.93-1.74,18,1.81,21,9.28,2,5,1,7.86-3.88,10.41a37.18,37.18,0,0,1-9.63,3.13,67,67,0,0,0-17.71,6.21c-6.06,3.25-8.13,9.66-4.7,15.63a23.27,23.27,0,0,0,3.71,4.89c6.31,6.29,14.6,7.57,21.41,1.66,3.4-2.94,4.38-7,5.17-11.28,1-5.34,2.76-10.3,8.19-12.92,4-1.92,7.5-1.74,9.72.68s2,5.62-.32,9.38-5.82,6.11-8.86,9c-5.6,5.36-6.53,16.65-1.72,22.82a9,9,0,0,0,3.08,2.47,14.24,14.24,0,0,0,20.94-12.22c.14-6.53.23-13,1.4-19.47,2.79-15.33,7.55-29.6,18.77-41.18a66.4,66.4,0,0,1,26.89-17.14c10.27-3.47,20.78-3.46,31.15-1.55,12.27,2.27,21,9.34,25,21.6a87.66,87.66,0,0,1,4.09,23.86c.27,6.77-.51,13.52-.61,20.27-.18,11.36-.07,22.7.49,34.07a416.08,416.08,0,0,0,4.51,42.45A397.57,397.57,0,0,0,256.12,622c10,28.88,22.21,57,31.56,86.09,4.05,12.6,7.31,25.4,8.65,38.5,2,20-5.7,37.13-17.23,52.83-11.32,15.42-26.69,24.87-44.88,30.15-3.72,1.08-7.55,1.77-11.27,3a62.84,62.84,0,0,0,30.78-.91c13.39-3.64,24.84-10.77,35.45-19.77,17.37-14.73,27.37-33.39,30.37-55.58a107.63,107.63,0,0,0-1.69-36.77,376.41,376.41,0,0,0-14.62-50.39c-3.54-9.75-6.33-19.77-9.72-29.58-3.51-10.17-5.9-20.65-8.64-31-2.27-8.65-3.63-17.51-5.4-26.27a311.47,311.47,0,0,1-5.93-47.39,153.83,153.83,0,0,1,3.25-39.24,163,163,0,0,1,9.24-30.4,333.53,333.53,0,0,1,23.51-46.13c7.5-12,16.4-22.65,28.49-30.41,13.62-8.75,28.83-13.44,44.23-17.66a37.78,37.78,0,0,1,14.37-1.42c4.24.48,8.59.32,12.46,3.05,5.41,3.82,8.13,9.16,9.61,15.28,2.43,10.1-1.1,20-9.4,25.54a152.68,152.68,0,0,0-14.07,10.19c-8.44,7.16-10.08,12.31-4.67,20.51,4.53,6.87,11.6,9.11,16.92,5a25,25,0,0,0,6.9-8.73c2.49-5,3.16-10.34,4-15.71.8-4.86,4.37-7.56,8.88-7.24,4.72.33,7.71,3.62,7.81,8.8a70.85,70.85,0,0,1-.21,9.78,24.87,24.87,0,0,0,1.52,11.73c1.47,4,4.2,7,8.76,7.79,6.72,1.18,14.52-2.55,17.52-8.45,2.54-5,.9-12.11-4-16.77-1.93-1.82-4.06-3.42-6.16-5.05-4.8-3.76-6.7-9.11-7.63-14.76a6.33,6.33,0,0,1,3.5-7c3.05-1.53,5.18-.07,7.38,2,3.7,3.51,5.92,7.92,8,12.39,1.78,3.75,3.76,7.28,7,10a12.75,12.75,0,0,0,16.36.47c5.66-4.51,7.71-12.23,4.72-17.8-3.83-7.13-10.53-9.42-17.88-10.76-4.05-.74-8.23-.27-12.2-1.57-5-1.64-6.93-5.6-4.82-10.5a14.79,14.79,0,0,1,12.34-9.43,37.71,37.71,0,0,0,11.07-3.29c6.11-2.79,8.28-7.6,6.2-13.9-.78-2.36-2.52-4.11-4.07-5.95-6.6-7.84-16.08-7-21,1.78a22,22,0,0,0-1,2.34c-2.52,6-5.65,11.54-10.92,15.52-4.56,3.45-9.79,4.57-15,2-4.55-2.21-5.87-6.48-5.89-11.51-.05-10.21.36-20.34-2.28-30.56-3.74-14.5-14.72-18.85-27.14-17.19-9.43,1.26-17.49,6.12-25.9,10.07-1.77.84-3.83,3.13-5.48,1.73s.23-3.79.7-5.71c2.38-9.75,4.59-19.52,3.51-29.66-.69-6.45-3.32-12.32-5.76-18.25-2.94-7.12-3.81-14.33-1.7-21.94,2.6-9.39,4.06-10.17,13-6,8.05,3.71,15.32,8.73,22.84,13.32,6.31,3.85,12.89,6.93,20.36,6.52,5.93-.32,11.54-2.43,16.82-5.29A158.45,158.45,0,0,1,472.82,249c6-1.58,12.12-2.16,18.26-.24a5.48,5.48,0,0,1,4.29,5.54,41.91,41.91,0,0,1-1.1,9.34c-1.21,6.42,1.35,11.38,7.11,13.85,5.37,2.3,11.35.49,15-4.55,3.48-4.84,3-10.16-1.66-15.08a83.9,83.9,0,0,1-6.84-8.45c-3.39-4.68-1.3-9.54,4.45-10.25a25.91,25.91,0,0,1,5.42.16c5.07.45,10,1.79,15,2.79,6.83,1.37,11.9-1,15.11-7.08,3.64-6.83.11-13.07-7.59-13.67a29.23,29.23,0,0,0-17,3.87c-2.77,1.55-5.67,2.63-9,2.13s-4.9-3.05-5.8-5.82c-.81-2.51,1.36-3.91,3-5.27a14.27,14.27,0,0,1,4.16-2.14c5.54-2.09,11.08-4.19,15.36-8.6,4-4.11,4.43-9,.67-12.44a17.87,17.87,0,0,0-7.78-4.51c-4-1-7.73-.78-11.27,2-4,3.19-5.17,7.71-6.89,12.08-2,5.17-5.31,9.18-11,10.6a5.26,5.26,0,0,1-5.73-2.23c-1.34-1.72-.49-3.37.37-5.05,1.21-2.36,3.12-4.33,3.89-6.93,1.34-4.49,1.77-8.9-2-12.47A10.86,10.86,0,0,0,480,184.12c-4.72,1.48-6.54,5.52-7,10.11a49.58,49.58,0,0,0,1,14.42,12.38,12.38,0,0,1-2.75,10.76,48.77,48.77,0,0,1-26.37,17.47C437,239,429.3,241.17,421,239.23c-7.15-1.67-13.1-5.48-19-9.43-7.82-5.21-12.4-12.46-13-21.9a14.28,14.28,0,0,1,4.16-11.57c6.85-6.75,15.84-6.51,24.1-6.07,12.75.67,25.36,1,37.78-2.07,7.26-1.77,14.08-5,20.79-8.37C489.08,173.08,501,164.6,511,153.48c11.83-13.18,21.71-27.79,31.48-42.47C552.92,95.25,559.61,78.36,558,58.9c-.36-4.34-1.55-8.06-4.52-11.13a37.23,37.23,0,0,0-21.73-11.44,116.59,116.59,0,0,0-26.35-.86c-14,1.11-27.42,4.66-40.51,9.28a413.92,413.92,0,0,0-43.68,18.5,103.8,103.8,0,0,0-39.62,33.56c-8.17,11.41-12.09,24.67-16.61,37.66-3.27,9.41-8.17,17.17-18,20.85a90.47,90.47,0,0,1-17.18,4.4,49.67,49.67,0,0,1-29.32-4.18c-12.14-5.59-21-14.91-28.34-25.77-7.77-11.5-14.17-23.71-16.67-37.51-4-22.38,3.82-40.48,20.39-55.4,3.48-3.13,6.89-6.61,8.43-11.17C286.72,18.36,285,9.44,273.37,5.23Z" transform="translate(-45.45 -5.16)"/><path class="cls-2" d="M273.37,5.23C285,9.44,286.72,18.36,284.26,25.69c-1.54,4.56-4.95,8-8.43,11.17-16.57,14.92-24.43,33-20.39,55.4,2.5,13.8,8.9,26,16.67,37.51,7.33,10.86,16.2,20.18,28.34,25.77a49.67,49.67,0,0,0,29.32,4.18,90.47,90.47,0,0,0,17.18-4.4c9.86-3.68,14.76-11.44,18-20.85,4.52-13,8.44-26.25,16.61-37.66a103.8,103.8,0,0,1,39.62-33.56,413.92,413.92,0,0,1,43.68-18.5c13.09-4.62,26.49-8.17,40.51-9.28a116.59,116.59,0,0,1,26.35.86,37.23,37.23,0,0,1,21.73,11.44c3,3.07,4.16,6.79,4.52,11.13,1.61,19.46-5.08,36.35-15.57,52.11-9.77,14.68-19.65,29.29-31.48,42.47-10,11.12-21.87,19.6-35.14,26.34-6.71,3.4-13.53,6.6-20.79,8.37-12.42,3-25,2.74-37.78,2.07-8.26-.44-17.25-.68-24.1,6.07A14.28,14.28,0,0,0,389,207.9c.59,9.44,5.17,16.69,13,21.9,5.94,3.95,11.89,7.76,19,9.43,8.29,1.94,16-.28,23.84-2.35a48.77,48.77,0,0,0,26.37-17.47A12.38,12.38,0,0,0,474,208.65a49.58,49.58,0,0,1-1-14.42c.47-4.59,2.29-8.63,7-10.11a10.86,10.86,0,0,1,11.16,2.45c3.77,3.57,3.34,8,2,12.47-.77,2.6-2.68,4.57-3.89,6.93-.86,1.68-1.71,3.33-.37,5.05a5.26,5.26,0,0,0,5.73,2.23c5.68-1.42,8.95-5.43,11-10.6,1.72-4.37,2.9-8.89,6.89-12.08,3.54-2.82,7.25-3,11.27-2a17.87,17.87,0,0,1,7.78,4.51c3.76,3.46,3.32,8.33-.67,12.44-4.28,4.41-9.82,6.51-15.36,8.6a14.27,14.27,0,0,0-4.16,2.14c-1.67,1.36-3.84,2.76-3,5.27.9,2.77,2.36,5.3,5.8,5.82s6.22-.58,9-2.13a29.23,29.23,0,0,1,17-3.87c7.7.6,11.23,6.84,7.59,13.67-3.21,6.05-8.28,8.45-15.11,7.08-5-1-9.9-2.34-15-2.79a25.91,25.91,0,0,0-5.42-.16c-5.75.71-7.84,5.57-4.45,10.25a83.9,83.9,0,0,0,6.84,8.45c4.63,4.92,5.14,10.24,1.66,15.08-3.61,5-9.59,6.85-15,4.55-5.76-2.47-8.32-7.43-7.11-13.85a41.91,41.91,0,0,0,1.1-9.34,5.48,5.48,0,0,0-4.29-5.54c-6.14-1.92-12.26-1.34-18.26.24a158.45,158.45,0,0,0-35.12,13.49c-5.28,2.86-10.89,5-16.82,5.29-7.47.41-14.05-2.67-20.36-6.52-7.52-4.59-14.79-9.61-22.84-13.32-9-4.14-10.43-3.36-13,6-2.11,7.61-1.24,14.82,1.7,21.94,2.44,5.93,5.07,11.8,5.76,18.25,1.08,10.14-1.13,19.91-3.51,29.66-.47,1.92-2.29,4.36-.7,5.71s3.71-.89,5.48-1.73c8.41-3.95,16.47-8.81,25.9-10.07,12.42-1.66,23.4,2.69,27.14,17.19,2.64,10.22,2.23,20.35,2.28,30.56,0,5,1.34,9.3,5.89,11.51,5.22,2.53,10.45,1.41,15-2,5.27-4,8.4-9.56,10.92-15.52a22,22,0,0,1,1-2.34c5-8.82,14.45-9.62,21-1.78,1.55,1.84,3.29,3.59,4.07,5.95,2.08,6.3-.09,11.11-6.2,13.9a37.71,37.71,0,0,1-11.07,3.29A14.79,14.79,0,0,0,457,387.83c-2.11,4.9-.17,8.86,4.82,10.5,4,1.3,8.15.83,12.2,1.57,7.35,1.34,14.05,3.63,17.88,10.76,3,5.57.94,13.29-4.72,17.8a12.75,12.75,0,0,1-16.36-.47c-3.25-2.71-5.23-6.24-7-10-2.12-4.47-4.34-8.88-8-12.39-2.2-2.08-4.33-3.54-7.38-2a6.33,6.33,0,0,0-3.5,7c.93,5.65,2.83,11,7.63,14.76,2.1,1.63,4.23,3.23,6.16,5.05,4.94,4.66,6.58,11.76,4,16.77-3,5.9-10.8,9.63-17.52,8.45-4.56-.79-7.29-3.77-8.76-7.79a24.87,24.87,0,0,1-1.52-11.73,70.85,70.85,0,0,0,.21-9.78c-.1-5.18-3.09-8.47-7.81-8.8-4.51-.32-8.08,2.38-8.88,7.24-.88,5.37-1.55,10.73-4,15.71a25,25,0,0,1-6.9,8.73c-5.32,4.12-12.39,1.88-16.92-5-5.41-8.2-3.77-13.35,4.67-20.51a152.68,152.68,0,0,1,14.07-10.19c8.3-5.57,11.83-15.44,9.4-25.54-1.48-6.12-4.2-11.46-9.61-15.28-3.87-2.73-8.22-2.57-12.46-3.05a37.78,37.78,0,0,0-14.37,1.42c-15.4,4.22-30.61,8.91-44.23,17.66-12.09,7.76-21,18.4-28.49,30.41A333.53,333.53,0,0,0,286,465.25a163,163,0,0,0-9.24,30.4,153.83,153.83,0,0,0-3.25,39.24,311.47,311.47,0,0,0,5.93,47.39c1.77,8.76,3.13,17.62,5.4,26.27,2.74,10.38,5.13,20.86,8.64,31,3.39,9.81,6.18,19.83,9.72,29.58a376.41,376.41,0,0,1,14.62,50.39,107.63,107.63,0,0,1,1.69,36.77c-3,22.19-13,40.85-30.37,55.58-10.61,9-22.06,16.13-35.45,19.77a62.84,62.84,0,0,1-30.78.91c3.72-1.22,7.55-1.91,11.27-3,18.19-5.28,33.56-14.73,44.88-30.15,11.53-15.7,19.26-32.87,17.23-52.83-1.34-13.1-4.6-25.9-8.65-38.5C278.33,679,266.15,650.9,256.12,622a397.57,397.57,0,0,1-17.6-70.58A416.08,416.08,0,0,1,234,509c-.56-11.37-.67-22.71-.49-34.07.1-6.75.88-13.5.61-20.27A87.66,87.66,0,0,0,230,430.79c-4-12.26-12.71-19.33-25-21.6-10.37-1.91-20.88-1.92-31.15,1.55A66.4,66.4,0,0,0,147,427.88c-11.22,11.58-16,25.85-18.77,41.18-1.17,6.46-1.26,12.94-1.4,19.47a14.24,14.24,0,0,1-20.94,12.22,9,9,0,0,1-3.08-2.47c-4.81-6.17-3.88-17.46,1.72-22.82,3-2.91,6.59-5.34,8.86-9s2.43-7.08.32-9.38-5.76-2.6-9.72-.68c-5.43,2.62-7.2,7.58-8.19,12.92-.79,4.24-1.77,8.34-5.17,11.28-6.81,5.91-15.1,4.63-21.41-1.66A23.27,23.27,0,0,1,65.53,474c-3.43-6-1.36-12.38,4.7-15.63a67,67,0,0,1,17.71-6.21,37.18,37.18,0,0,0,9.63-3.13c4.85-2.55,5.9-5.4,3.88-10.41-3-7.47-11.07-11-21-9.28-4,.69-7.67,2.11-11.49,3.25-4.26,1.28-8.82,2.1-12.82-.89-5.2-3.88-6.85-10.87-4.33-17.33,2.2-5.63,8.08-9,15-8.56A36,36,0,0,1,83.19,411c3.52,2.08,7.09,4.12,11.18,5.07,2.95.69,5.27-.37,7.4-2,2.46-1.92,2.54-5.54.13-8-2.26-2.33-4.79-4.42-7.19-6.63-3.3-3.06-6.25-6.27-7.28-10.95s-.14-8.58,3.56-11.37a13.26,13.26,0,0,1,13.77-1.51c5.39,2.35,10.84,8.08,9.24,15.17-.75,3.35-.33,7-.28,10.49.1,6.17,4.6,9.58,10.73,8.4,4.93-1,9.34-3,12.35-7,8.37-11.23,19.64-19.16,30.53-27.56,5.78-4.46,12.58-6,19.55-7a128.59,128.59,0,0,1,13.74-1c12-.42,21.39-9.95,18.5-21.83-2.52-10.36,0-21-1.07-31.41a106,106,0,0,1,1-27c1.66-11.26,6.16-21.56,10.35-32,9.2-22.92,24.17-41.95,40.53-60a80,80,0,0,0,6.89-8.39c4.21-6.17,2.89-11-3.57-14.69-7.57-4.32-15.07-8.8-21.38-14.86a39.44,39.44,0,0,1-12-23c-.67-4.42-1.43-8.82-2.41-13.18a18.93,18.93,0,0,0-10.62-13.45c-5.64-2.74-11.21-5.61-17.13-7.79s-10.67-.63-15.11,3.68c-5.7,5.53-13.42,5.07-18.49-.69-4.57-5.2-5.6-11.43-2.83-17.1,2.17-4.45,8.66-7.44,14.93-7,5.93.37,11.66,2,17.53,2.74,1,.11,1.92.29,2.88.32,5,.21,7.66-1.29,8.58-4.88s-1.42-7.9-5.57-9.47c-3.84-1.45-7.84-2.47-11.78-3.62-4.58-1.33-8.89-3.11-12.31-6.6-4.09-4.18-4.69-11.07-1.34-15.28a12.16,12.16,0,0,1,15.46-2.74c4.52,2.61,7.73,6.51,10.65,10.71,1,1.49,2.07,3,3.06,4.49,2.18,3.36,4.85,5.89,9.24,4.72,3.44-.92,7.05-2.24,7.84-6.15.91-4.52.24-9-3.52-12.31-1.45-1.28-3-2.47-4.52-3.63-4.34-3.26-5.51-7.7-4.91-12.85.66-5.56,3.3-8.54,8.13-9.08,5.86-.66,11.14,2.28,12.67,7.31a76,76,0,0,1,2.57,15.72c.29,3.31,1.61,5.61,4.83,6.4,3.41.84,6.2-.47,8.16-3.32a12.91,12.91,0,0,0,2.07-8.67c-.36-3.7-.33-7.45-1.52-11.09-1.25-3.85,1.94-10,6.25-13,1.38-1,3.17-1.29,4.19-2.78Z" transform="translate(-45.45 -5.16)"/></svg>
