<?xml version="1.0"?>
<svg xmlns="http://www.w3.org/2000/svg" id="Warstwa_1" data-name="Warstwa 1" viewBox="0 0 575 734" width="575" height="734"><defs><style>.cls-1{fill:#fdfdfd;}</style></defs><path d="M416.35,29h2c-5.64,6.32-10.05,13.58-14.67,20.64-1.68,2.9-4,5.65-4.43,9.09,2.95,1.74,6.47,2.09,9.49,3.68.51,1.49-1.23,2.3-2,3.34-7,6.73-12.56,14.78-17.8,22.92,3.24,1.5,8.37,2.87,8.1,7.35-1.46,5.74-6.31,9.65-9.69,14.24-.95,3.09-1.08,9.35,3.67,8.88,1.89-2.16,2.13-5.22,3.29-7.77,6.08-15.23,12.62-30.49,22.28-43.84a39.69,39.69,0,0,1,11.13-10.32c-3.25,8.86-5.84,18.13-5.26,27.66C434,70.2,445.66,54.21,463.07,46.13c1.25-.66,2.46-1.38,3.67-2.12l.18.06a44.43,44.43,0,0,1,4.58,1.61c.24,3.74-1.39,7.28-2.13,10.88,5.93-2,11.66-4.55,17.69-6.25,17.68-4.3,36.7-4.67,54,1.43a32.52,32.52,0,0,1,5.36,2.72c-15,4.63-30,9.9-43.59,17.95l.84,1.42q-1.74-.47-3.45-1L497.52,75c0,1.45,1.12,2.48,2,3.52,2.21,2.36,4.09,5,6.22,7.42.71.85,1.41,1.71,2.11,2.58-7.34,3.12-16.25,1.9-22.82,7l-1.24-.05a11.51,11.51,0,0,0-4.61,1.1c-6.47,2.41-12.93,4.87-19.23,7.71,2.35,3.34,5.37,6.52,6.11,10.68.65,3.28-1.93,6-4.57,7.41-6.95,3.85-14.86,5.29-22.43,7.44a8.71,8.71,0,0,0-6.56,7.2c0,2.89,2.57,4.65,4.42,6.47,15-9.81,30.8-18.91,48.3-23.33,3.18-.76,6.81-1.67,9.74.32a68.41,68.41,0,0,0-19.29,17.85c7.93-1.48,15.38-4.89,23.43-5.84,12.48-1.91,26-4,37.89,1.41,1.73.49,2.14,2.17,2.43,3.73a44.31,44.31,0,0,0-9.23,6.27c17.49,4.1,34.61,11.64,47.58,24.35,6.31,5.2,11,11.93,15.26,18.85v1.59c-8-3.5-16.64-4.77-24.69-8-9.07-1.69-18.08-3.79-27.25-4.94a109.43,109.43,0,0,1,.14,17.27c-14.76-8-31-13-47.4-16.34a40.83,40.83,0,0,1-.74,11c6.19,2.7,13.25,4.2,18.21,9.08,1.19,1,1.61,2.61,2.17,4-3.1.78-6.19,1.6-9.25,2.52,8.17,6.18,16.56,12.35,22.79,20.61,6.88,9.1,12.62,19.63,13.79,31.15a220.22,220.22,0,0,0-36.19-23.9c-2.51,4.26-3.39,9.2-5.16,13.77-9.34-10.4-20.81-18.52-32.46-26.1-1.07,3.32-1.71,7.25-4.74,9.42-2.42,1.63-5.56.71-7.9-.6-6.05-3.39-11.07-8.24-16-13-1.34-1-3.26-3.1-4.94-1.45-3.33,2.52-2.27,7.82-5.43,10.3-3.61.55-5.65-3.65-9.06-4.11a30.49,30.49,0,0,0-9.95.24c10.62,8.21,22.9,14.39,32.2,24.27a59.82,59.82,0,0,1,8.78,11.83c-5.83-2.8-11.73-5.65-18.18-6.7,8.69,10.93,19.36,21.53,22,35.82a6.71,6.71,0,0,1-1.25,6,68.13,68.13,0,0,0-7.27-3.83c1.52,9.28,2.83,18.74,1.29,28.13s-4.33,19-9.59,27c-2.85-3.76-2.25-8.62-3.07-13a209.08,209.08,0,0,0-6.07-24.68c-3.91,1.72-7.75,3.58-11.57,5.48-.39-8,0-16.15-2.19-23.94-1.15-4-1.14-8.16-1.91-12.21-2.77.49-5.29,1.88-8.08,2.29s-4.85-2-5.46-4.49c-1.71-6.42-1.62-13.12-2.06-19.71-.06-1.5-.67-3.73-2.58-3.55-3.39.26-6.52,2.27-10,1.87-2.92-7.77-2.34-16.34-4.05-24.41-3,.74-6.91,3.76-9.43.71-2.31-3.53-2.44-7.94-3.89-11.82-2.09,4.82-2.95,10-4.67,15-3.36,10.53-7.9,20.77-14.35,29.79a53.31,53.31,0,0,0-9.32,23.32c-2.14,16.37-7.87,32.12-15.82,46.54-3.08,5.71-7.95,10.09-12.18,14.91-1.75,1.81-2.07,4.38-2.45,6.74a283.66,283.66,0,0,1-9.17,42.38c-3.42,11-7.56,22-14.75,31.08-2.69,4.87-1.52,10.71-1.22,16l1.15-.17a8,8,0,0,0-1.87,4.69c-.94,9.36-2.06,18.71-3.05,28.07-.77,9.88-4.28,19.23-7,28.69-1.21,5.29-6.17,8.58-7.56,13.78-1.21,4.35-.8,8.9-.52,13.35a167.4,167.4,0,0,1-2.33,42.93c-1,5.88-3.46,11.36-5.81,16.8-2,4.29.17,8.91.06,13.37.08,13,.73,26.17-1.4,39.06-2.4,8-2.67,17-8,23.76,3.76,10.46,2,21.9,5.21,32.47,1.64-2.45,2.87-5.33,5.32-7.1l1.87.58c-.17,2.6-.61,5.17-.82,7.78,4.77-5.79,10-12.77,17.95-13.83-.05,1-.13,3.08-.18,4.1,6.08-1.11,12.14-3.62,18.4-2.49,2.93.55,6.2.82,8.44,3-5.49,2.14-11.4,3.55-16.33,6.89-.42,1.93,1.74,3.46,2.42,5.16-5.24,2-11.13,2.4-16,5.33-.68,1.9.6,3.86.93,5.73-3.87,2.65-8.53,3.45-13,4.56a20.9,20.9,0,0,0,4.56,7.51c-1.76,1.32-3.52,2.65-5.26,4,8.9-.74,17.85-2.63,26.79-1.12-2.74,1.46-5.52,2.83-8.17,4.47,5.71,1,11.72,1.06,17.05,3.56,2.74.84,1.33,4.2,1.53,6.29A36.38,36.38,0,0,1,312.3,763h-1.9c-4.5-3.46-8.92-7.59-14.46-9.2-1.66,1.36-1.63,3.73-2.29,5.61a84.91,84.91,0,0,0-13.9-11.25c-1.55,1.59-2.89,5.18-5.68,3.81-3.61-1.78-6.33-4.87-9.58-7.2a43.42,43.42,0,0,1-3.32,5c-3.65-1.94-6.68-4.78-10-7.15-.8,1.22-1.61,2.46-2.41,3.7-3.87-1.74-7.53-4.22-11.79-4.89-3.44-.6-6.61,1.09-9.69,2.36-1.34-.64-2.5-2.46-4.11-2-2.71,1.26-5.11,3.09-7.7,4.55a49.72,49.72,0,0,0-2.56-4.44c-3.52,1.34-6,4.83-9.84,5.3-1.59-.93-2.52-2.57-3.64-4-4.11,2.42-7.89,5.41-12.11,7.64-.85-1.44-1.5-3-2.21-4.47-4.83,2.22-9.28,5.2-14.24,7.15,1.5-3.58,3-7.29,5.57-10.23s5.84-5,9-7.26l-1.8-3.28c5.4-3.11,11.72-3.12,17.76-3.31-4.72-3.17-10.28-7.19-10.37-13.48-1.35-9.09,2.25-17.9,1.91-26.91-3.58-2.55-7.49-4.61-11.18-7A41.79,41.79,0,0,1,192.61,681a120.14,120.14,0,0,1-.36-23c.4-3.71-1.69-7-2.63-10.42-2.73-9.26-2-19-1.71-28.53.2-2.94-2-5.23-3.08-7.76-5.83-11.65-5.65-25-6.68-37.68-.25-4.37-3.09-7.87-4.91-11.67-4.71-9.69-6.41-20.44-8.28-30.95-.28-3.35-3.16-5.43-5-7.93-6.88-8.59-9.37-19.63-11.21-30.24-.87-5.44-5-9.43-7.31-14.21-3-5.65-4.61-11.85-6.66-17.86a16.37,16.37,0,0,0-1.89,5.41c-1.74.44-3.76.37-5.22,1.53-1.37,3.48-.21,7.59-2.07,11-1.9.76-4-.75-5.92-1-.78,4.31-.43,8.87-2,13-1.35,2.48-4.49.69-6.64.59a91.52,91.52,0,0,0-2.07,18.23,30.34,30.34,0,0,0-5-2.17c-1.86.93-2.17,3.1-2.62,4.92-.92,4.63-1.57,9.31-2.67,13.91-6-7.75-6.79-18-5.12-27.4l-4.51.19c.54-8,6.2-13.87,10.44-20.14-2.92.61-5.77,1.5-8.61,2.39,5-7.63,12.85-12.4,20.18-17.45.24-1.66-1.61-1.63-2.74-1.29a38.52,38.52,0,0,0-5.29,2.47c-1.21-2-2.43-3.91-3.72-5.82-4,2.75-7.19,6.63-11.69,8.51-3,.94-4.11-2.86-5.62-4.65A84.13,84.13,0,0,0,66,475.41c-1.16-2.09-2.33-4.18-3.59-6.21a81.73,81.73,0,0,0-17.76,11.7c.13-11.66,10.07-19.13,17.58-26.61q-2.1-1.1-4.19-2.2c3.1-3.13,7.17-4.86,11.29-6.21-.59-1.78-.6-5.25-3.36-4.76-7.57,1.38-14.65,4.63-21.77,7.44-.44-2.69-.08-5.71-1.65-8.08-2.55-.47-5.13.23-7.62.74a114.63,114.63,0,0,0-16.92,5v-1.62c3.06-4.37,6.24-8.8,10.67-11.88,6.06-4.51,13.23-7,20.26-9.61-1.37-1.19-2.74-2.38-4.11-3.55,2.53-2.89,6.56-3.14,10.12-3.31,7.47-.24,14.6,2.29,21.9,3.4-2.23-3.34-5.2-6-8.1-8.77,10.85.73,20.4,6.38,29.36,12.07.7-1.56,1.84-3,1.87-4.79-4.59-3.91-11.66-2.91-16.13-7.08-1.61-2.73.6-5.77,1.43-8.39a95,95,0,0,0-23.56-7.66c1.15-2.29,2.58-4.49,3.18-7-.09-1.55-1.82-2.16-2.93-2.89-6.88-3.34-14.17-5.72-21.34-8.34,12.56-5.52,27.42-4.77,39.84.78-.14-1.92-.3-3.83-.41-5.75,3.79-.05,7.18,1.72,10.09,4,6,4.2,10,10.52,15.11,15.63.3-4.36-.92-8.59-1.92-12.78,6.49,4.7,10.1,12.1,13.25,19.23l3.08,0c.71-1.83,2.67-3.79,1.51-5.83-2.31-3.89-5.79-6.9-8.55-10.46,1.55-1,4.49-1.08,4.45-3.49A48.71,48.71,0,0,0,108,364.36c8.74.9,16.13,6.55,20.86,13.72l3.26-2.72a28.34,28.34,0,0,1,3.84,7.58c1.19,3.9.88,8.15,2.55,11.92,1.12-2.07,2.14-4.19,3.2-6.28,1.75,4.36.92,9.1.86,13.66,1.64-1.57,3.25-3.18,4.88-4.76a39.26,39.26,0,0,0,1,12.51c2.85-4.62,4.61-9.78,7-14.62a56.53,56.53,0,0,1,13.51-18.73c-1.14,4.39-2.39,8.79-2.65,13.34,4.28-3.3,7.2-7.94,11.23-11.5,4-3.85,8.91-7,14.49-7.91.36,1.55.72,3.09,1.08,4.65,4-.23,7.88-1.39,11.85-2,8.73-.94,18-.72,25.84,3.63-5.59,2.73-12,3.3-17.41,6.44-2.42,1.56-6.26,1.72-7.56,4.53,1.16,2.34,3.69,4,4.21,6.59-4.25,1.53-8.84,1.75-13.07,3.33-3.26,1.25-6.68,2-10,3.21a27.63,27.63,0,0,0-.85,3.86c3.44-.38,6.8-1.26,10.19-1.94-2.77,3.44-6.42,6.26-8.16,10.45,10.2-3.52,21.27-9.62,32.17-5.1-1.6,1.39-3.22,2.74-4.82,4.14,4.63,2,9.82,1.76,14.5,3.57a69.74,69.74,0,0,1,10.35,5c3.3,1.93,5.67,5.05,8.88,7.1,1.44-3.76,4.08-7,5-11-.24-3.06-1.45-6-1.5-9-.29-7.47,1.72-14.83,4.58-21.66,6.43-16.87,15.75-32.43,25.74-47.4,1.12-1.9,2.72-3.68,3.07-5.91-.45-3.31-1.8-6.55-1.38-9.94.48-4.74,2.11-9.25,3.76-13.69,5.27-13.75,13.29-26.21,21.5-38.36,2.41-3.65,5.4-6.94,7.23-10.94,1.75-3.77.21-8.14,1.83-12A107.63,107.63,0,0,1,330.22,227a59.49,59.49,0,0,0-6.05-6.92c-7.16,9.68-13.64,19.84-20.71,29.58-3.38-3.95-6.29-8.52-10.64-11.5l-1.8-.47c-2.72,2.22-4.14,5.53-5.91,8.47C281.72,252,278.42,258,273.94,263c-2.13,2.33-5.25,4.76-8.6,3.53-4.18-1.63-6.69-5.62-9.43-9-10.53,12.87-20.63,26.35-27.42,41.63a61.73,61.73,0,0,1-7.9-9.84c-1-1.28-1.63-3.26-3.53-3.27-3.13,2.21-5.08,5.63-7.78,8.28-9.64,9.74-17.27,21.17-24.91,32.48-2.36-8.74-1.2-17.85.13-26.65a102.57,102.57,0,0,1,13.2-33.52c2.79-4.71,6.76-8.55,9.65-13.18a106.73,106.73,0,0,0-11.73.34c-.76-3.68,2.21-6.49,4-9.34,3.68-5.62,9.4-9.37,15-12.8,9.74-6.87,21.31-10.29,32-15.36-8.24-3.8-17.53-2.94-26.34-3,8.45-8.29,20.69-10.52,31.85-12.87,13.6-3,27.52-3.89,41.35-5.17-6.81-6.28-16.29-7.81-25-9.9,4.17-2.54,8.94-3.71,13.51-5.28-.59-2.57.65-6.77-2-8.18-7.22.64-14,3.69-21.15,4.83-5.15.83-11.29,2.56-15.84-.91-3.91-3.82-1.62-9.74-1.38-14.46-16.54,1.42-33.12,4-48.7,10l-.75-5.08c1.84-3.84,2.19-8.13,2.81-12.28-4.34-.09-8.83-.6-13,.91-3.56,1.29-7.37.59-11.05.56-5-.24-9.94,1-14.91,1.5l-2.21,1.4-2.68-.62a29.22,29.22,0,0,1-9.65,1.74c7.38-12.33,20.14-19.87,32.64-26.14,11.52-4.46,23.5-8,35.87-8.93-2.52-3.39-5.74-6.15-8.72-9.11,4-2.06,8.25-3.66,12.78-3.6,17.92,0,34.51,7.54,50.75,14.22-4-8.17-10.27-14.89-17.13-20.77,5.74-.59,11,1.9,16.3,3.59,1.53-2.25,3.19-4.41,4.94-6.5-15.64-6.26-31.7-11.82-48.48-14,3.39-4.78,6.82-9.55,10.23-14.32a224.32,224.32,0,0,0-49.57-19.26A42,42,0,0,1,194,49.1a100.66,100.66,0,0,1,37.09-1.8c9.4.68,18.07,4.55,26.92,7.38-.82-3.64-2.55-7-3.42-10.6,1.45-2.54,4.66-1.37,6.87-.78,8.72,2.33,15.81,8.21,22.57,13.91,4.16,3.42,7.21,7.89,10.86,11.8s7,8,10.52,12.07c.44-9.14-2.19-18-5.84-26.28,9.48,4.38,15,13.94,20.12,22.58,4.81,7.2,7.83,15.34,11.78,23,3,6.24,5,13,8.21,19.12a58.3,58.3,0,0,0,2.46-11.6c.46-5-1-10-.78-15,5.37,3.74,7.53,10.25,11.37,15.3-.68-10.78-4.84-22.52.56-32.7,1.7,5.38,3.36,10.88,6.82,15.43,1.44-8.1,2-16.35,3.64-24.42,1.85-5.87,4.38-11.93,9.47-15.75.91,2.15,1.68,4.36,2.43,6.58C379.23,55,381.08,51,384,48.05c2.64-2.64,4.74-5.86,7.9-8,7.42-5,15.6-9.16,24.41-11.09M117.65,400.36a75.08,75.08,0,0,1,3.71,9.76,2.67,2.67,0,0,0,2.5-4.06c-1.85-2.47-4.44-4.55-5-7.78-.42.69-.83,1.38-1.23,2.08M224.3,437.47a96.54,96.54,0,0,0-24.6-4.82c-.25,2.77,1,7.21-2.66,8.21-5.46.53-10.68-1.66-16-2.64-2-.7-2.25,2-3.08,3.06,2.18,1.14,4.39,2.25,6.53,3.48-3.89,1.5-8.3,2.13-11.39,5.16,12.75,1.7,26.42,2.09,37.65,9.16-4.68.39-9.41.41-14,1.64,7.8,3.81,16.43,6.55,22.73,12.82,1.61,1.72,4.18,3.64,3.25,6.33-1.65.49-3.34.76-5,1.1,3.35,3.78,4.89,8.87,8.65,12.3,2.13-22,12.55-42,20.9-62.18a63.76,63.76,0,0,0-20.34-2c-3.58,1-2.24,5.66-2.67,8.39m-70.63,28.59c1.29,3.51,4.2,6.25,5.16,9.92,1,3.92,1.4,8.1,3.78,11.5,5.27,8.74,13.67,16.67,13.77,27.55-.08,7.65,4.9,13.83,8.19,20.33,3.45,6.7,7.23,13.41,8.85,20.84,1,3.85-1.66,8,.7,11.59a198.86,198.86,0,0,1,13.2,33c1.82-5.92,4.07-11.7,5.69-17.68a15.62,15.62,0,0,1-3.55-11.07c1.8-20.4,9.58-39.55,16.36-58.67-4.19-4.94-7.57-10.78-12.8-14.7-3-.19-4.73,3.39-7,5-3.53-7.52-8.4-14.27-13.61-20.71-2.53,1.64-5.34,5.43-8.63,3.35-4.52-3.94-6.53-9.81-9.94-14.59-2.42,1.87-4.56,4.08-6.82,6.15a115.22,115.22,0,0,1-7.79-11.1c-.88-1.16-1.47-2.95-3.12-3.18a12.48,12.48,0,0,0-2.46,2.41Z" transform="translate(-18 -29)"/><path class="cls-1" d="M461.16,39.68c-1.52-1.79.12-4,.62-5.81,2.15,2.73,4.21,5.54,6.25,8.38l-1.11,1.82-.18-.06a18.59,18.59,0,0,1-5.58-4.33m9-.09c3.33.19-1.63,2.85,0,0M497.52,75l2.72-2.15q1.71.5,3.45,1c1.9,2.55-.18,5.81-.18,8.69,2.13.12,3.5,1.48,2.2,3.44-2.13-2.43-4-5.06-6.22-7.42-.85-1-2-2.07-2-3.52M485,95.54c6.57-5.1,15.48-3.88,22.82-7,.61.84,1.2,1.7,1.78,2.57-4.05,2.13-8.69,2.24-13.07,3.13-1.21,1.67-2,4.47-4.52,4.33-2.5-.57-4.65-2.1-7-3m-5.85,1a11.51,11.51,0,0,1,4.61-1.1,31.68,31.68,0,0,1-1.12,3.19c-1.71.8-2.48-1.13-3.49-2.09M282.63,440.5c-.3-5.28-1.47-11.12,1.22-16,1.47,5,1.16,10.37.26,15.48l-.33.34-1.15.17Z" transform="translate(-18 -29)"/></svg>
