<?xml version="1.0"?>
<svg xmlns="http://www.w3.org/2000/svg" id="Warstwa_1" data-name="Warstwa 1" viewBox="0 0 629.75 771" width="630" height="771"><path d="M199.27,11h1.19c8.49,9.05,16.85,18.22,25.21,27.39,2.49,2.82,5.17,5.85,5.77,9.71.57,3.46-1.33,6.63-2.8,9.61,1.73-1,4.19-3.65,6-1.52,3.14,4,8.18,7.89,6.6,13.62,6.87,6.23,7.27,15.88,9.77,24.19,3.17,9.32,4.67,19.22,9.17,28.06,1.77-3.63,2.62-7.68,4.65-11.19,4-4.73,9.12,4.4,13.38.32,3.57-4.16,5.66-9.36,7.79-14.35a3.41,3.41,0,0,1,4-2.09c5.1.72,8.64,4.9,13.09,7.08,5.22-1.66,10.37-3.66,15.82-4.55,4.4-.59,8.43-3.6,12.94-3,8.5,2.64,16.84,7.22,21.86,14.81-2,1.6-4,3.24-5.88,5,3.21,4.27,8.27,6.46,12,10.22a30.32,30.32,0,0,1,9.36,16.43c-3.71-1.69-7-4.32-11-5.3-.26,3.76,1.22,7.82-.28,11.39-3.25,4-9.61-.68-13,3.15-1.91,1.91-3.7,4.8-6.85,4.33-7.2-.84-14.21-2.88-21.33-4.26.22,2.45,1,5.12-.23,7.43-1,1.93-3.08,2.88-4.79,4.05,18.55,3.28,36.71,8.45,54.68,14.06,19.53,6,37.19,17.48,57.5,21.14,18.15,1.86,35.1,9.65,50.82,18.56,3.48,1.8,6.47,4.53,10.17,5.89,1.62-1.83,3.37-5.24,1.39-7.32-2.21-1-4.63-1.38-6.73-2.6,4.28-3.34,8.49-7.22,13.89-8.57,3.52-.92,7.16-.12,10.54,1-1.1-3.51-1.64-7.17-3-10.59-1-2.36-3.27-3.7-5.23-5.16a18.5,18.5,0,0,1,6.66-8.6c2.55-1.8,5.8-1.19,8.71-1.06,1-2.25,1.81-5.58,4.89-5.52,8.65-.36,17.31,1.39,25.54,4,9.82,3.88,15.42,13.45,21.2,21.7,12.71,18.8,20.84,42.05,16.56,64.88,3-.79,6.18-1.06,9.25-1.7,2.7-.59,3.9-3.37,5.4-5.38,3.17,2,6.51,4.38,7.66,8.15,2,5.9-.81,12.16-4.77,16.52-4.23,4.86-9.72,8.34-14.72,12.32-3.22,2.69-7.61,3.44-10.74,6.22-1.94,1.74-1.6,4.52-1.81,6.87a21.7,21.7,0,0,0-2.84,2.83c.84,2.57,3.48,4,5.18,6C582,326,591.64,337.63,597.69,351.31c8.46,19.08,13.27,39.51,17.14,59.95,2.45,13.51,5.29,27,5.92,40.76.08,6.83-1.09,13.59-1.63,20.38-2.22-1.33-5-3.51-7.58-1.78-3.41,1.87-6.24,6.4-10.53,5.56-1.51-4.9-1.39-10.21-3.39-15-1.71-4.3-2.21-9.69-6.17-12.62-2.19-1.11-4.74-1.16-7-2.1-1.69-3,.3-7.08-1.78-10.1-3.93-7.06-14-7-17.85-14.07-3.27-5.8,1.09-12.62-1.66-18.53-1.11-2.55-3.65-4-6.25-4.63-3.1-.69-5.71-2.52-8.25-4.31a15,15,0,0,0-2.86,6.16c-6.42,25.16-15.37,50.13-30.47,71.48a50.71,50.71,0,0,1-14.45,14.37c-3.68,2.3-7.4,4.85-11.78,5.51-.92-1.82-1.17-4.37-3.2-5.33-3.36.82-6.4,2.75-9.9,3.07-6.83.82-13.81-.51-20.53,1.34-1.91.82-3.24-1.09-4.67-2a105.47,105.47,0,0,0-2.92,13.62C440,548.32,432,593.57,424.39,638.87c-3.83,22.38-8.24,44.84-16.57,66-7.15,18-14.44,35.92-22.05,53.72-3.5,7.23-6.56,15.22-4.55,23.36H347.78c7.42-42.07,1.26-85.18-9.74-126-21.05-77.4-48.69-152.79-77.26-227.68-11.6-30.54-24.34-61-30.11-93.3-4.2,11.83-8.49,23.63-13.5,35.14-1.21,2.65-2.44,5.52-4.88,7.28-2.25,1.37-5,1.47-7.33,2.61-2.17,1.47-3.28,4-5.14,5.79-2.5.47-5.64-.71-7.63,1.34-2.55,3.15-1.51,8-4.34,10.92-3.35,1.19-7.06-.82-10.45.5-3.78.84-7.4,3.89-11.38,2.72-2.06-3.14.9-7.55-1.75-10.48-1.73-1.19-3.88-1.5-5.75-2.42-.88-5.3,2.77-10.88.07-16-1-2.2-4-3.73-3.69-6.35,2.08-4.74,5.9-8.75,6.7-14-.73-3.36-4.34-4.79-6.77-6.79,3.26-3.27,7.48-5.18,11.49-7.32-2.19-2.42-5.66-4.41-6.1-7.9.92-5.54,6.51-8.76,8.14-14,.52-2.14-1-4.09-1.64-6-3.6,4.44-3.95,10.38-6.46,15.35L159,326.4c-5-3-8.15-8.42-12.48-12.34-2.39,6.53-2.89,13.52-4.27,20.29-5-5.39-7.3-12.43-10.75-18.76-1.75,6.56-3.68,13.08-5.1,19.73-3.21-2.82-2.76-7.8-3.69-11.64-4.4,3.73-6.53,9.23-10.1,13.64-.41-5.31-.53-10.64-.94-15.95-3,1.6-5.83,3.48-8.73,5.24.31-6.64,1-13.26,1.24-19.91a55.71,55.71,0,0,0-5.71,2.91c.82-2.74,2.12-5.89.53-8.61-2.33-4-6.5-6.48-8.69-10.58-.41,2.21-.26,5.16-2.59,6.37-2.42.79-5.15.24-7.45,1.48-5.71,3.5-13.16-.77-18.57,3.81-1.55-1.63-3.53-3.63-2.76-6.11,1.24-4.52,2.73-9.05,2.34-13.81-3.13,1.77-5.49,4.49-7.83,7.15a42.19,42.19,0,0,0-1.13-8.89,77.24,77.24,0,0,0-7.87,2.77c.37-5.35,2.4-10.41,2.77-15.76a19.07,19.07,0,0,0-6.71,1.77c4.21-8.6,11.29-15.2,16.76-22.93,2.12-2.53.69-5.81-.49-8.4,4.19-4.27,8.67-8.47,14.18-11,2.7-1.38,5.89-2.57,7.34-5.45,1.28-2.4.43-5.16.11-7.68-1,2.41-2,4.86-3,7.28a39.71,39.71,0,0,1-2.58-9.2c-3.37,3.82-5.42,8.66-9.3,12-.47-3.12-.83-6.26-1.34-9.38-1.83,3.07-2.13,6.64-2.5,10.11a55.29,55.29,0,0,1-4.93-10.36,48.68,48.68,0,0,1-9.09,16.07c-.64-3.63-1.21-7.27-2-10.87a42.94,42.94,0,0,0-4.6,6.72c-.91-2.18-1.67-4.42-2.36-6.68-2.2,2.66-2.06,6.34-3.24,9.45A66.55,66.55,0,0,1,30,219.89c-3.58,3.44-5.28,8.15-7.52,12.45-1-3.55-1.86-7.12-2.8-10.67-2.67,2.17-5.27,4.49-8.42,6-.27-2.54-.5-5.09-.72-7.63-3.65,5.68-7.52,11.22-11,17q-1.29-2.24-2.67-4.41-2,1.71-4,3.45c.66-5.73,2-11.69,6-16.1,19.63-22.29,46.87-36.32,74.85-45.18A371.31,371.31,0,0,1,147,159.1c3.91-.53,8.34-.9,11.28-3.85,3-3.35,4.84-8.28,2.92-12.61-4.71,1-9.26,2.59-14,3.42.43-1.8.77-3.61,1-5.43-6.53,1.91-11.8,6.33-17.29,10.15.11-5.49,2.61-10.44,4-15.64-5.18,2.1-10.28,4.39-15.41,6.58a73.11,73.11,0,0,0,4.14-6.7c-4.59,1.68-8.34,5.26-13.29,5.95,2.19-4.09,4.73-8,6.76-12.16-6.66,1.4-12.41,5.11-18.29,8.33.57-3.64,2.56-6.75,4.58-9.74a51.81,51.81,0,0,0-22.33,8.79c1.21-4.64,2.35-9.31,3.45-14-6.65.73-12.89,3.17-19.25,5,.62-3.68,2.31-7,4-10.3-4.28,2-8.32,4.57-12.54,6.75.5-2.11,1.13-4.18,1.8-6.23-4.06,2.31-7.92,4.94-12,7.18.76-3.38,2.75-6.24,4.42-9.21-4.76.19-8.73,3-13.2,4.28.64-2.71,1.5-5.36,2.27-8-5.44,1.72-7,8.08-11.87,10.69.21-2.89.66-5.77,1.05-8.64A23.46,23.46,0,0,0,21.46,118c.89-3.23,2-6.41,3.11-9.56a157.05,157.05,0,0,0-12.28,9.85A9.33,9.33,0,0,1,8.94,120c2.63-5.83,5.73-11.52,7.23-17.79-4.15,3.36-8.06,7-12.09,10.49q.93-3.42,1.74-6.85c-3.71,1.72-6.52,6.24-11.13,4.87.87-1,1.74-2,2.6-3.09-2.45-.17-4.33,1.56-6.29,2.72V108.4c1.79-4.51,4.42-9.2,9.08-11.24,4.33-1.79,9-2.6,13.51-3.74,27.7-6.42,57-7.51,84.67-.61,13.08,3.41,25.85,7.91,38.7,12.1a32.17,32.17,0,0,0,2.52-12.51c-3.19.47-6.28,1.46-9.5,1.71-5.39,0-10.49-2.31-15.91-2.15a44.12,44.12,0,0,1-11.68-1.07c3.12-1.24,6.26-2.44,9.39-3.64-4.32-1.62-8.66-3.17-13-4.77,4.1-2.63,8.26-5.18,12.35-7.84-4.2,0-8.4,0-12.59-.06,1.26-2.48,4.16-3.14,6.41-4.41q-12.21-1.36-24.42-2.76l5.72-2.52c-3.44-1.28-7.28-2.35-9.63-5.4-3.33-4.09-6.25-9.76-4-15.05,12.43,2.6,25,4.89,37,9.07a25.14,25.14,0,0,0,20.29-1.16c-3-3.84-7.06-6.48-10.75-9.52a80.13,80.13,0,0,1,21.37,3.82c18.76,5.69,37.14,13.58,52.88,25.42a29.29,29.29,0,0,1,3.7-3.85A60.93,60.93,0,0,1,205,66.31c-3.52-.66-7.11-1-10.57-1.89-1.61-.43-3.36-1.5-3.51-3.33-.46-4.77,2.46-9.23,1.81-14-1.23-4.73-8-3.85-9.74-8.22-1.39-4.46,3.87-8.34,2-12.78-1.58-3.36-5.69-3.75-8.52-5.59-1-2.68,1.35-5.58,3.65-6.74,4.7-1.27,9.31,1.36,14,1.23,2.34-.3,3.68-2.44,5.19-4m-8,116c2.39,1.89,6.89,4.8,9.25,1.4-2.62-1.32-7.11-5.23-9.25-1.4m109.65,63.57a27.31,27.31,0,0,0,4.22,2.54,11,11,0,0,0,1.74-5.17c-2.07.3-5.12.31-6,2.63M86.21,210.15c-.33-2.63-.49-5.28-.6-7.93-1.48,5.08-2.44,10.28-3.64,15.43,3.11-1.63,7-2.63,9-5.71,1.47-3.25.7-7,.52-10.4-1.78,2.79-1.43,7.82-5.27,8.61m220.19,1.78c1.09,3.89,5,5.83,7,9.19,2.72-1,5.79-4.61,3.76-7.35a50.92,50.92,0,0,0-10.75-1.84m74.81,3.67c1.75,4.2,4.25,8,6.1,12.2a102.79,102.79,0,0,1,9.37,30.72c.2,2.16,2.68,2.11,4.29,2.24,13.79.79,27.56,1.86,41.34,2.6-2.34-5.52-8.12-7.74-13.43-9.38.57-1.81,2.42-3.88.89-5.7-1.65-1.54-3.54-2.81-5.18-4.36a27.85,27.85,0,0,1,7.35.16c-6.95-4-8.52-12.31-12.76-18.48-.93,2.86-1.79,5.76-2.7,8.63a14.69,14.69,0,0,1-5-7.58,6.6,6.6,0,0,0-7.48-4.38,23.63,23.63,0,0,1-13.55-2.73c-3.07-1.32-5.63-4.11-9.2-3.94M246.49,244.22a26.8,26.8,0,0,0-2.61,10.43c1.66-1.74,3.8-3.27,4.63-5.62.65-1.89-1.13-3.37-2-4.81m17.12,8.34a26.67,26.67,0,0,0-.63,5.85c1.87-2.85,3.75-5.69,5.52-8.6-1.77.51-4.17.71-4.89,2.75m-.69,14.49c-3,.23-5.32,2.64-6.37,5.33-2.13,5.16-3.4,11-7.58,15-2.35-5.33-1.95-11.23-2-16.9-1.68.74-4,1.35-4.21,3.57-1.18,6.56-.4,13.27,0,19.87A464.53,464.53,0,0,0,251.85,354c1.65,7.06,3.28,14.22,6.51,20.77,1.95-4.31,4.62-8.32,6.13-12.8.34-3.56-4-4.28-5.95-6.46-3.17-3.14-2.25-8-.78-11.71,2.29-5.48,1.59-11.55,2.92-17.24,2.7-12.74,9.75-23.88,15.31-35.48a25.42,25.42,0,0,0,2-16.22c-2.62,1.55-5.24,3.12-8,4.45.27-5.76,4.28-10.18,6.63-15.17a85.09,85.09,0,0,1-13.76,2.93m-91.49,23.68c-1.17,4.39-2.31,8.8-3.29,13.25,2-1.74,4.44-3.32,5.23-6s-.88-5-1.94-7.26M305,374.82c-4,2.1-5.48,6.68-7.58,10.38l-1.49-3.47c-6.52,10.48-13,21.46-23.1,29-.68-4.63,2.09-8.71,2.79-13.16-3.15,0-6.3,0-9.45,0q10.25,25.42,20.51,50.85c28.41,70.21,58,140.43,75.07,214.48,5.6,24,9.44,48.28,13.63,72.51A104.3,104.3,0,0,0,383,720c7.8-19.67,17.19-39,20.57-60.1,5.33-33.3,10.64-66.62,17.19-99.71,4.41-21.81,9-43.59,13.6-65.36-1.85.9-3.77,2.71-6,1.91a25.63,25.63,0,0,1-3.16-3.66c-2.45,1.78-4.79,4.77-8.21,4-9.43-1-18.74,1.28-28.09,2-2.29.39-2.06-2.53-2.89-3.89-1.49-3.61-6.13-3-9.29-3.46,1.83-2.06,3.61-4.16,5.37-6.27a32.81,32.81,0,0,1-5.22-3.69c4.57-3.1,9-6.5,14-8.9,2.8-1.47,6.22-4.17,5.27-7.75-.66-3.12-4.42-4.15-5.36-7,1.73-5.47,3.78-10.89,4.36-16.64-2.9.13-5.8.31-8.69.51,2.26-7.43,4.27-15.1,4-22.94-.18-1.48.06-3.49-1.43-4.36-3.33-.06-6.25,1.92-9.36,2.85A195.52,195.52,0,0,1,327.26,428c1.41-4,3.08-8.78.6-12.69-1.79-3.11-5.58-3.77-8.21-5.86-2.13-2.51.82-5.1,1.64-7.47-1-3.32-6.33-1.77-7.51-5.05.3-2,2-3.35,3.34-4.7,5.36-4.89,10.63-9.87,15.91-14.84-6.06-.17-12.21-.4-18-2.28-3.21-1.05-6.89-2-10.05-.28m243.41,16.37c2.06-2,4.76-3.55,6-6.23.12-2.47-2.3-4-3.61-5.83-1.56,3.84-1.73,8-2.41,12.06m-286.21-5.37c.9,3.51.81,8.2,4.81,9.74,2.14-1.81,4.66-4.78,3.2-7.73-1.79-2.53-5.37-1.56-8-2m196,87.3c-4.84,3.85-7.17,9.94-7.41,16,2.15-2.41,5.19-3.66,7.64-5.68,1.27-2.54,1-5.83,3.18-7.93,5.39-5.27,11.11-10.21,16.54-15.45a5.61,5.61,0,0,0,1.17-6.78c-7,6.61-13.66,13.69-21.12,19.85m-372.24-261c3.34.06-1.47,3,0,0Z" transform="translate(9 -11)"/></svg>
