
<svg xmlns="http://www.w3.org/2000/svg" version="1.1" xmlns:xlink="http://www.w3.org/1999/xlink" preserveAspectRatio="none" x="0px" y="0px" width="400px" height="400px" viewBox="0 0 400 400">
<defs>
<g id="Layer0_0_FILL">
<path fill="#000000" stroke="none" d="
M 6404.15 2000.85
Q 6372.75 2034.25 6351.35 2075.2 6330.15 2116.3 6320.6 2161.45 6310.5 2209.75 6311.55 2259.55 6313.25 2373 6312.8 2489.05
L 6312.15 2736.8 6953.7 2736.8 6953.65 2242.25
Q 6954.2 2204.25 6946.85 2166.95 6939.5 2129.65 6924.6 2094.7 6909.05 2059.9 6886.1 2029.45 6863.15 1999.05 6833.95 1974.55 6789.75 1937.15 6740 1907.65 6689.95 1878 6638.8 1852.4 6635.5 1850.95 6632 1851.4 6628.4 1851.65 6625.2 1853.3
L 6551.6 1894.8
Q 6515.15 1915.2 6479.35 1938.35 6438.2 1964.9 6404.15 2000.85 Z"/>
</g>

<path id="Layer0_0_1_STROKES" stroke="#000000" stroke-width="0.7" stroke-linejoin="round" stroke-linecap="round" fill="none" d="
M 344.49377899169895 399.251647949219
L 55.79823684692337 399.251647949219 56.09073486328134 287.764904022217
Q 56.29323348999014 235.54275817871098 55.52823867797861 184.49060440063488 55.05574188232413 162.08075637817387 59.600711059570585 140.34590377807615 63.89818191528275 120.02854156494152 73.43811721801785 101.53366699218748 83.0680519104003 83.10629196166997 97.19795608520462 68.07639389038081 112.52035217285129 51.899003601074355 131.03772659301785 39.951584625244095 147.14761734008744 29.53415527343759 163.5500061035159 20.354217529296875
L 196.66978149414035 1.6793441772460938
Q 198.10977172851517 0.9368492126466208 199.7297607421874 0.8243499755860739 201.30475006103507 0.6218513488770441 202.78973999023447 1.2743469238282614 225.807083892822 12.79426879882817 248.32943115234366 26.13667831420912 270.7167793273925 39.41158828735365 290.606644439697 56.24147415161133 303.7465553283687 67.26639938354492 314.0739852905276 80.94630661010751 324.40141525268564 94.64871368408217 331.39886779785184 110.30860748291013 338.10382232666007 126.03600082397475 341.4112998962405 142.82088699340818 344.71877746582004 159.60577316284184 344.47127914428665 176.70565719604497
L 344.49377899169895 399.251647949219 Z"/>
</defs>

<g transform="matrix( 0.4499969482421875, 0, 0, 0.4499969482421875, -2784.65,-832.3) ">
<use xlink:href="#Layer0_0_FILL"/>

<use xlink:href="#Layer0_0_1_STROKES" transform="matrix( 2.22222900390625, 0, 0, 2.22222900390625, 6188.15,1849.55) "/>
</g>
</svg>
