
<svg xmlns="http://www.w3.org/2000/svg" version="1.1" xmlns:xlink="http://www.w3.org/1999/xlink" preserveAspectRatio="none" x="0px" y="0px" width="4800px" height="4800px" viewBox="0 0 4800 4800">
<defs/>

<g id="Layer_1">
<g>
<g>
<g>
<path fill="#CA9845" stroke="none" d="
M 61.25 4243.05
L 51.95 4243.05 51.95 4268.45 51.35 4268.45
Q 41.75 4262.75 36.05 4260.35 26.45 4256.45 14.75 4257.65 12.65 4272.65 20.75 4283.45 24.95 4289.45 36.05 4300.25 31.25 4305.65 21.05 4316.45 13.55 4326.65 14.75 4340.75 24.95 4342.85 37.55 4338.05 49.55 4332.95 53.45 4333.55 50.15 4341.95 52.55 4358.45 54.65 4374.95 51.35 4384.85 50.75 4384.85 37.25 4376.75 28.25 4371.95 18.65 4372.55 13.25 4386.35 20.75 4398.95 22.55 4401.65 36.05 4416.95 15.65 4429.85 14.75 4457.45 26.45 4459.25 36.65 4455.35 52.55 4448.75 53.45 4448.75 51.35 4455.65 51.65 4463.15 51.65 4466.183203125 52.3 4473.05 52.4083984375 4474.3330078125 52.55 4475.75 52.85 4484.45 52.55 4488.35 52.55 4494.95 51.05 4500.35 40.85 4494.35 34.85 4491.95 24.35 4487.45 14.45 4491.35 13.85 4505.15 20.75 4515.65 23.45 4519.55 35.75 4532.15 31.25 4537.85 20.75 4548.35 17.05 4553.3 15.45 4559 13.65 4565.35 14.45 4572.65 25.25 4575.35 37.55 4570.55 49.85 4565.45 53.15 4565.75 52.85 4570.05 52.85 4592
L 52.95 4592 52.95 4613.45 52.35 4613.45
Q 42.75 4607.75 37.05 4605.35 27.45 4601.45 15.75 4602.65 13.65 4617.65 21.75 4628.45 25.95 4634.45 37.05 4645.25 32.25 4650.65 22.05 4661.45 16.15 4669.5 15.65 4680 15.5 4682.8 15.75 4685.75 25.95 4687.85 38.55 4683.05 43.1 4681.1 46.5 4680 52.05 4678.2 54.45 4678.55 54.2 4679.25 53.95 4680 51.938671875 4686.453125 52.8 4697.05
L 52.3 4697.05
Q 52.4 4698.35 52.55 4699.75 52.85 4708.45 52.55 4712.35 52.55 4718.95 51.05 4724.35 40.85 4718.35 34.85 4715.95 24.35 4711.45 14.45 4715.35 13.85 4729.15 20.75 4739.65 23.45 4743.55 35.75 4756.15 31.25 4761.85 20.75 4772.35 17.05 4777.3 15.45 4783 13.65 4789.35 14.45 4796.65 25.25 4799.35 37.55 4794.55 49.85 4789.45 53.15 4789.75 52.9333984375 4792.8533203125 52.85 4805.15
L 62.45 4805.15
Q 62.6482421875 4790.0642578125 64.85 4786.15 72.95 4792.75 78.35 4794.85 87.65 4798.45 99.35 4796.65 101.25 4789.85 99.6 4783 98.4 4777.85 95.15 4772.65 89.45 4763.35 78.35 4756.15 88.85 4746.25 93.35 4740.85 101.45 4731.25 99.35 4717.15 91.85 4711.45 80.45 4715.35 68.45 4721.05 62.75 4722.55 63.325 4718.8126953125 63.05 4701.3
L 64.35 4701.3
Q 64.35 4701.2 64.35 4701.05 64.55 4687.65 64.35 4680 64.2 4677.05 64.05 4674.95 69.4 4677.95 73.2 4680 79.65 4683.5 81.75 4684.25 93.75 4688.15 102.75 4682.15 102.75 4681.05 102.7 4680 102.05 4668.4 94.65 4659.35 84.45 4648.85 79.65 4643.45 91.35 4635.05 95.85 4628.15 103.65 4617.05 98.85 4604.75 90.45 4600.55 80.25 4604.75 69.75 4610.75 64.05 4611.65
L 62.25 4611.95 62.25 4592 62.55 4592
Q 62.5 4590.35 62.45 4588.55 62.15 4566.95 64.85 4562.15 72.95 4568.75 78.35 4570.85 87.65 4574.45 99.35 4572.65 101.25 4565.85 99.6 4559 98.4 4553.85 95.15 4548.65 89.45 4539.35 78.35 4532.15 88.85 4522.25 93.35 4516.85 101.45 4507.25 99.35 4493.15 91.85 4487.45 80.45 4491.35 68.45 4497.05 62.75 4498.55 63.35 4494.65 63.05 4475.75
L 62.75 4475.75
Q 62.7275390625 4474.378125 62.7 4473.05 62.65234375 4456.662890625 65.15 4446.95 73.25 4453.25 79.85 4455.95 90.65 4459.55 99.65 4455.95 103.25 4443.95 95.15 4431.95 90.35 4424.45 78.65 4415.15 90.95 4405.25 93.95 4401.05 101.15 4391.45 99.65 4377.95 92.45 4371.05 81.65 4374.95 69.35 4381.55 63.05 4383.35 63.05 4378.55 63.35 4356.05 63.65 4337.45 63.05 4329.95 77.45 4338.05 80.75 4339.25 92.75 4343.15 101.75 4337.15 101.75 4324.25 93.65 4314.35 83.45 4303.85 78.65 4298.45 90.35 4290.05 94.85 4283.15 102.65 4272.05 97.85 4259.75 89.45 4255.55 79.25 4259.75 68.75 4265.75 63.05 4266.65
L 61.25 4266.95 61.25 4243.05
M 54.95 4747.15
Q 61.55 4750.15 62.45 4751.35 65.75 4754.05 64.85 4759.75 57.35 4766.95 51.35 4759.45 45.95 4751.95 54.95 4747.15
M 51.95 4303.25
Q 46.25 4296.05 55.25 4291.55 66.05 4293.35 65.15 4303.55 57.65 4310.75 51.95 4303.25
M 60.95 4407.95
Q 64.85 4410.35 64.85 4415.15 64.85 4419.65 60.95 4422.05 49.25 4424.15 50.15 4415.45 50.75 4406.75 60.95 4407.95
M 51.35 4535.45
Q 45.95 4527.95 54.95 4523.15 61.55 4526.15 62.45 4527.35 65.75 4530.05 64.85 4535.75 57.35 4542.95 51.35 4535.45
M 66.15 4648.55
Q 58.65 4655.75 52.95 4648.25 47.25 4641.05 56.25 4636.55 67.05 4638.35 66.15 4648.55
M 28.05 1956.35
Q 18.45 1952.45 6.75 1953.65 4.65 1968.65 12.75 1979.45 16.95 1985.45 28.05 1996.25 23.25 2001.65 13.05 2012.45 5.55 2022.65 6.75 2036.75 16.95 2038.85 29.55 2034.05 41.55 2028.95 45.45 2029.55 42.15 2037.95 44.55 2054.45 46.65 2070.95 43.35 2080.85 42.75 2080.85 29.25 2072.75 20.25 2067.95 10.65 2068.55 5.25 2082.35 12.75 2094.95 14.55 2097.65 28.05 2112.95 7.65 2125.85 6.75 2153.45 18.45 2155.25 28.65 2151.35 44.55 2144.75 45.45 2144.75 43.35 2151.65 43.65 2159.15 43.65 2162.75 44.55 2171.75 44.85 2180.45 44.55 2184.35 44.55 2190.95 43.05 2196.35 32.85 2190.35 26.85 2187.95 16.35 2183.45 6.45 2187.35 5.85 2201.15 12.75 2211.65 15.45 2215.55 27.75 2228.15 23.25 2233.85 12.75 2244.35 9.05 2249.3 7.45 2255 5.65 2261.35 6.45 2268.65 17.25 2271.35 29.55 2266.55 41.85 2261.45 45.15 2261.75 44.85 2266.05 44.85 2288
L 44.95 2288 44.95 2309.45 44.35 2309.45
Q 34.75 2303.75 29.05 2301.35 19.45 2297.45 7.75 2298.65 5.65 2313.65 13.75 2324.45 17.95 2330.45 29.05 2341.25 24.25 2346.65 14.05 2357.45 8.15 2365.5 7.65 2376 7.5 2378.8 7.75 2381.75 17.95 2383.85 30.55 2379.05 35.1 2377.1 38.5 2376 44.05 2374.2 46.45 2374.55 46.2 2375.25 45.95 2376 43.55 2383.7 45.25 2397.3
L 45.95 2397.3 45.95 2421.45 45.35 2421.45
Q 35.75 2415.75 30.05 2413.35 20.45 2409.45 8.75 2410.65 6.65 2425.65 14.75 2436.45 18.95 2442.45 30.05 2453.25 25.25 2458.65 15.05 2469.45 7.55 2479.65 8.75 2493.75 18.95 2495.85 31.55 2491.05 43.55 2485.95 47.45 2486.55 44.15 2494.95 46.55 2511.45 48.65 2527.95 45.35 2537.85 44.75 2537.85 31.25 2529.75 22.25 2524.95 12.65 2525.55 7.25 2539.35 14.75 2551.95 16.55 2554.65 30.05 2569.95 9.65 2582.85 8.75 2610.45 20.45 2612.25 30.65 2608.35 46.55 2601.75 47.45 2601.75 45.35 2608.65 45.65 2616.15 45.65 2619.75 46.55 2628.75 46.85 2637.45 46.55 2641.35 46.55 2647.95 45.05 2653.35 34.85 2647.35 28.85 2644.95 18.35 2640.45 8.45 2644.35 7.85 2658.15 14.75 2668.65 17.45 2672.55 29.75 2685.15 25.25 2690.85 14.75 2701.35 11.05 2706.3 9.45 2712 7.65 2718.35 8.45 2725.65 19.25 2728.35 31.55 2723.55 43.85 2718.45 47.15 2718.75 46.85 2723.05 46.85 2745
L 46.95 2745 46.95 2767.45 46.35 2767.45
Q 36.75 2761.75 31.05 2759.35 21.45 2755.45 9.75 2756.65 7.65 2771.65 15.75 2782.45 19.95 2788.45 31.05 2799.25 26.25 2804.65 16.05 2815.45 8.55 2825.65 9.75 2839.75 19.95 2841.85 32.55 2837.05 44.55 2831.95 48.45 2832.55 45.15 2840.95 47.55 2857.45 49.65 2873.95 46.35 2883.85 45.75 2883.85 32.25 2875.75 23.25 2870.95 13.65 2871.55 8.25 2885.35 15.75 2897.95 17.55 2900.65 31.05 2915.95 10.65 2928.85 9.75 2956.45 21.45 2958.25 31.65 2954.35 47.55 2947.75 48.45 2947.75 46.35 2954.65 46.65 2962.15 46.65 2965.75 47.55 2974.75 47.85 2983.45 47.55 2987.35 47.55 2993.95 46.05 2999.35 35.85 2993.35 29.85 2990.95 19.35 2986.45 9.45 2990.35 8.85 3004.15 15.75 3014.65 18.45 3018.55 30.75 3031.15 26.25 3036.85 15.75 3047.35 12.05 3052.3 10.45 3058 8.65 3064.35 9.45 3071.65 20.25 3074.35 32.55 3069.55 44.85 3064.45 48.15 3064.75 47.85 3069.05 47.85 3091
L 57.55 3091
Q 57.5 3089.35 57.45 3087.55 57.15 3065.95 59.85 3061.15 67.95 3067.75 73.35 3069.85 82.65 3073.45 94.35 3071.65 96.25 3064.85 94.6 3058 93.4 3052.85 90.15 3047.65 84.45 3038.35 73.35 3031.15 83.85 3021.25 88.35 3015.85 96.45 3006.25 94.35 2992.15 86.85 2986.45 75.45 2990.35 63.45 2996.05 57.75 2997.55 58.35 2993.65 58.05 2974.75
L 57.75 2974.75
Q 57.45 2956.45 60.15 2945.95 68.25 2952.25 74.85 2954.95 85.65 2958.55 94.65 2954.95 98.25 2942.95 90.15 2930.95 85.35 2923.45 73.65 2914.15 85.95 2904.25 88.95 2900.05 96.15 2890.45 94.65 2876.95 87.45 2870.05 76.65 2873.95 64.35 2880.55 58.05 2882.35 58.05 2877.55 58.35 2855.05 58.65 2836.45 58.05 2828.95 72.45 2837.05 75.75 2838.25 87.75 2842.15 96.75 2836.15 96.75 2823.25 88.65 2813.35 78.45 2802.85 73.65 2797.45 85.35 2789.05 89.85 2782.15 97.65 2771.05 92.85 2758.75 84.45 2754.55 74.25 2758.75 63.75 2764.75 58.05 2765.65
L 56.25 2765.95 56.25 2745 56.55 2745
Q 56.5 2743.35 56.45 2741.55 56.15 2719.95 58.85 2715.15 66.95 2721.75 72.35 2723.85 81.65 2727.45 93.35 2725.65 95.25 2718.85 93.6 2712 92.4 2706.85 89.15 2701.65 83.45 2692.35 72.35 2685.15 82.85 2675.25 87.35 2669.85 95.45 2660.25 93.35 2646.15 85.85 2640.45 74.45 2644.35 62.45 2650.05 56.75 2651.55 57.35 2647.65 57.05 2628.75
L 56.75 2628.75
Q 56.45 2610.45 59.15 2599.95 67.25 2606.25 73.85 2608.95 84.65 2612.55 93.65 2608.95 97.25 2596.95 89.15 2584.95 84.35 2577.45 72.65 2568.15 84.95 2558.25 87.95 2554.05 95.15 2544.45 93.65 2530.95 86.45 2524.05 75.65 2527.95 63.35 2534.55 57.05 2536.35 57.05 2531.55 57.35 2509.05 57.65 2490.45 57.05 2482.95 71.45 2491.05 74.75 2492.25 86.75 2496.15 95.75 2490.15 95.75 2477.25 87.65 2467.35 77.45 2456.85 72.65 2451.45 84.35 2443.05 88.85 2436.15 96.65 2425.05 91.85 2412.75 83.45 2408.55 73.25 2412.75 62.75 2418.75 57.05 2419.65
L 55.25 2419.95 55.25 2397.3 56.35 2397.3
Q 56.35 2397.2 56.35 2397.05 56.55 2383.65 56.35 2376 56.2 2373.05 56.05 2370.95 61.4 2373.95 65.2 2376 71.65 2379.5 73.75 2380.25 85.75 2384.15 94.75 2378.15 94.75 2377.05 94.7 2376 94.05 2364.4 86.65 2355.35 76.45 2344.85 71.65 2339.45 83.35 2331.05 87.85 2324.15 95.65 2313.05 90.85 2300.75 82.45 2296.55 72.25 2300.75 61.75 2306.75 56.05 2307.65
L 54.25 2307.95 54.25 2288 54.55 2288
Q 54.5 2286.35 54.45 2284.55 54.15 2262.95 56.85 2258.15 64.95 2264.75 70.35 2266.85 79.65 2270.45 91.35 2268.65 93.25 2261.85 91.6 2255 90.4 2249.85 87.15 2244.65 81.45 2235.35 70.35 2228.15 80.85 2218.25 85.35 2212.85 93.45 2203.25 91.35 2189.15 83.85 2183.45 72.45 2187.35 60.45 2193.05 54.75 2194.55 55.35 2190.65 55.05 2171.75
L 54.75 2171.75
Q 54.45 2153.45 57.15 2142.95 65.25 2149.25 71.85 2151.95 82.65 2155.55 91.65 2151.95 95.25 2139.95 87.15 2127.95 82.35 2120.45 70.65 2111.15 82.95 2101.25 85.95 2097.05 93.15 2087.45 91.65 2073.95 84.45 2067.05 73.65 2070.95 61.35 2077.55 55.05 2079.35 55.05 2074.55 55.35 2052.05 55.65 2033.45 55.05 2025.95 69.45 2034.05 72.75 2035.25 84.75 2039.15 93.75 2033.15 93.75 2020.25 85.65 2010.35 75.45 1999.85 70.65 1994.45 82.35 1986.05 86.85 1979.15 94.65 1968.05 89.85 1955.75 81.45 1951.55 71.25 1955.75 60.75 1961.75 55.05 1962.65
L 53.25 1962.95 53.25 1939.05 43.95 1939.05 43.95 1964.45 43.35 1964.45
Q 33.75 1958.75 28.05 1956.35
M 59.15 2456.55
Q 51.65 2463.75 45.95 2456.25 40.25 2449.05 49.25 2444.55 60.05 2446.35 59.15 2456.55
M 44.15 2568.45
Q 44.75 2559.75 54.95 2560.95 58.85 2563.35 58.85 2568.15 58.85 2572.65 54.95 2575.05 43.25 2577.15 44.15 2568.45
M 58.85 2688.75
Q 51.35 2695.95 45.35 2688.45 39.95 2680.95 48.95 2676.15 55.55 2679.15 56.45 2680.35 59.75 2683.05 58.85 2688.75
M 46.95 2802.25
Q 41.25 2795.05 50.25 2790.55 61.05 2792.35 60.15 2802.55 52.65 2809.75 46.95 2802.25
M 45.15 2914.45
Q 45.75 2905.75 55.95 2906.95 59.85 2909.35 59.85 2914.15 59.85 2918.65 55.95 2921.05 44.25 2923.15 45.15 2914.45
M 59.85 3034.75
Q 52.35 3041.95 46.35 3034.45 40.95 3026.95 49.95 3022.15 56.55 3025.15 57.45 3026.35 60.75 3029.05 59.85 3034.75
M 57.15 1999.55
Q 49.65 2006.75 43.95 1999.25 38.25 1992.05 47.25 1987.55 58.05 1989.35 57.15 1999.55
M 52.95 2118.05
Q 41.25 2120.15 42.15 2111.45 42.75 2102.75 52.95 2103.95 56.85 2106.35 56.85 2111.15 56.85 2115.65 52.95 2118.05
M 46.95 2219.15
Q 53.55 2222.15 54.45 2223.35 57.75 2226.05 56.85 2231.75 49.35 2238.95 43.35 2231.45 37.95 2223.95 46.95 2219.15
M 44.95 2344.25
Q 39.25 2337.05 48.25 2332.55 59.05 2334.35 58.15 2344.55 50.65 2351.75 44.95 2344.25
M 57.25 3114.95
L 57.25 3091.05 47.95 3091.05 47.95 3116.45 47.35 3116.45
Q 37.75 3110.75 32.05 3108.35 22.45 3104.45 10.75 3105.65 8.65 3120.65 16.75 3131.45 20.95 3137.45 32.05 3148.25 27.25 3153.65 17.05 3164.45 9.55 3174.65 10.75 3188.75 20.95 3190.85 33.55 3186.05 45.55 3180.95 49.45 3181.55 46.15 3189.95 48.55 3206.45 50.65 3222.95 47.35 3232.85 46.75 3232.85 33.25 3224.75 24.25 3219.95 14.65 3220.55 9.25 3234.35 16.75 3246.95 18.55 3249.65 32.05 3264.95 11.65 3277.85 10.75 3305.45 22.45 3307.25 32.65 3303.35 48.55 3296.75 49.45 3296.75 47.35 3303.65 47.65 3311.15 47.65 3314.75 48.55 3323.75 48.85 3332.45 48.55 3336.35 48.55 3342.95 47.05 3348.35 36.85 3342.35 30.85 3339.95 20.35 3335.45 10.45 3339.35 9.85 3353.15 16.75 3363.65 19.45 3367.55 31.75 3380.15 27.25 3385.85 16.75 3396.35 13.05 3401.3 11.45 3407 9.65 3413.35 10.45 3420.65 21.25 3423.35 33.55 3418.55 45.85 3413.45 49.15 3413.75 48.85 3418.05 48.85 3440
L 48.95 3440 48.95 3461.45 48.35 3461.45
Q 38.75 3455.75 33.05 3453.35 23.45 3449.45 11.75 3450.65 9.65 3465.65 17.75 3476.45 21.95 3482.45 33.05 3493.25 28.25 3498.65 18.05 3509.45 12.15 3517.5 11.65 3528 11.5 3530.8 11.75 3533.75 21.95 3535.85 34.55 3531.05 39.1 3529.1 42.5 3528 48.05 3526.2 50.45 3526.55 50.2 3527.25 49.95 3528 47.55 3535.7 49.25 3549.3
L 49.95 3549.3 49.95 3573.45 49.35 3573.45
Q 39.75 3567.75 34.05 3565.35 24.45 3561.45 12.75 3562.65 10.65 3577.65 18.75 3588.45 22.95 3594.45 34.05 3605.25 29.25 3610.65 19.05 3621.45 11.55 3631.65 12.75 3645.75 22.95 3647.85 35.55 3643.05 47.55 3637.95 51.45 3638.55 48.15 3646.95 50.55 3663.45 52.65 3679.95 49.35 3689.85 48.75 3689.85 35.25 3681.75 26.25 3676.95 16.65 3677.55 11.25 3691.35 18.75 3703.95 20.55 3706.65 34.05 3721.95 13.65 3734.85 12.75 3762.45 24.45 3764.25 34.65 3760.35 50.55 3753.75 51.45 3753.75 49.35 3760.65 49.65 3768.15 49.65 3771.75 50.55 3780.75 50.85 3789.45 50.55 3793.35 50.55 3799.95 49.05 3805.35 38.85 3799.35 32.85 3796.95 22.35 3792.45 12.45 3796.35 11.85 3810.15 18.75 3820.65 21.45 3824.55 33.75 3837.15 29.25 3842.85 18.75 3853.35 15.05 3858.3 13.45 3864 11.65 3870.35 12.45 3877.65 23.25 3880.35 35.55 3875.55 47.85 3870.45 51.15 3870.75 50.85 3875.05 50.85 3897
L 50.95 3897 50.95 3919.45 50.35 3919.45
Q 40.75 3913.75 35.05 3911.35 25.45 3907.45 13.75 3908.65 11.65 3923.65 19.75 3934.45 23.95 3940.45 35.05 3951.25 30.25 3956.65 20.05 3967.45 12.55 3977.65 13.75 3991.75 23.95 3993.85 36.55 3989.05 48.55 3983.95 52.45 3984.55 49.15 3992.95 51.55 4009.45 53.65 4025.95 50.35 4035.85 49.75 4035.85 36.25 4027.75 27.25 4022.95 17.65 4023.55 12.25 4037.35 19.75 4049.95 21.55 4052.65 35.05 4067.95 14.65 4080.85 13.75 4108.45 25.45 4110.25 35.65 4106.35 51.55 4099.75 52.45 4099.75 50.35 4106.65 50.65 4114.15 50.65 4117.75 51.55 4126.75 51.85 4135.45 51.55 4139.35 51.55 4145.95 50.05 4151.35 39.85 4145.35 33.85 4142.95 23.35 4138.45 13.45 4142.35 12.85 4156.15 19.75 4166.65 22.45 4170.55 34.75 4183.15 30.25 4188.85 19.75 4199.35 16.05 4204.3 14.45 4210 12.65 4216.35 13.45 4223.65 24.25 4226.35 36.55 4221.55 48.85 4216.45 52.15 4216.75 51.85 4221.05 51.85 4243
L 61.55 4243
Q 61.5 4241.35 61.45 4239.55 61.15 4217.95 63.85 4213.15 71.95 4219.75 77.35 4221.85 86.65 4225.45 98.35 4223.65 100.25 4216.85 98.6 4210 97.4 4204.85 94.15 4199.65 88.45 4190.35 77.35 4183.15 87.85 4173.25 92.35 4167.85 100.45 4158.25 98.35 4144.15 90.85 4138.45 79.45 4142.35 67.45 4148.05 61.75 4149.55 62.35 4145.65 62.05 4126.75
L 61.75 4126.75
Q 61.45 4108.45 64.15 4097.95 72.25 4104.25 78.85 4106.95 89.65 4110.55 98.65 4106.95 102.25 4094.95 94.15 4082.95 89.35 4075.45 77.65 4066.15 89.95 4056.25 92.95 4052.05 100.15 4042.45 98.65 4028.95 91.45 4022.05 80.65 4025.95 68.35 4032.55 62.05 4034.35 62.05 4029.55 62.35 4007.05 62.65 3988.45 62.05 3980.95 76.45 3989.05 79.75 3990.25 91.75 3994.15 100.75 3988.15 100.75 3975.25 92.65 3965.35 82.45 3954.85 77.65 3949.45 89.35 3941.05 93.85 3934.15 101.65 3923.05 96.85 3910.75 88.45 3906.55 78.25 3910.75 67.75 3916.75 62.05 3917.65
L 60.25 3917.95 60.25 3897 60.55 3897
Q 60.5 3895.35 60.45 3893.55 60.15 3871.95 62.85 3867.15 70.95 3873.75 76.35 3875.85 85.65 3879.45 97.35 3877.65 99.25 3870.85 97.6 3864 96.4 3858.85 93.15 3853.65 87.45 3844.35 76.35 3837.15 86.85 3827.25 91.35 3821.85 99.45 3812.25 97.35 3798.15 89.85 3792.45 78.45 3796.35 66.45 3802.05 60.75 3803.55 61.35 3799.65 61.05 3780.75
L 60.75 3780.75
Q 60.45 3762.45 63.15 3751.95 71.25 3758.25 77.85 3760.95 88.65 3764.55 97.65 3760.95 101.25 3748.95 93.15 3736.95 88.35 3729.45 76.65 3720.15 88.95 3710.25 91.95 3706.05 99.15 3696.45 97.65 3682.95 90.45 3676.05 79.65 3679.95 67.35 3686.55 61.05 3688.35 61.05 3683.55 61.35 3661.05 61.65 3642.45 61.05 3634.95 75.45 3643.05 78.75 3644.25 90.75 3648.15 99.75 3642.15 99.75 3629.25 91.65 3619.35 81.45 3608.85 76.65 3603.45 88.35 3595.05 92.85 3588.15 100.65 3577.05 95.85 3564.75 87.45 3560.55 77.25 3564.75 66.75 3570.75 61.05 3571.65
L 59.25 3571.95 59.25 3549.3 60.35 3549.3
Q 60.35 3549.2 60.35 3549.05 60.55 3535.65 60.35 3528 60.2 3525.05 60.05 3522.95 65.4 3525.95 69.2 3528 75.65 3531.5 77.75 3532.25 89.75 3536.15 98.75 3530.15 98.75 3529.05 98.7 3528 98.05 3516.4 90.65 3507.35 80.45 3496.85 75.65 3491.45 87.35 3483.05 91.85 3476.15 99.65 3465.05 94.85 3452.75 86.45 3448.55 76.25 3452.75 65.75 3458.75 60.05 3459.65
L 58.25 3459.95 58.25 3440 58.55 3440
Q 58.5 3438.35 58.45 3436.55 58.15 3414.95 60.85 3410.15 68.95 3416.75 74.35 3418.85 83.65 3422.45 95.35 3420.65 97.25 3413.85 95.6 3407 94.4 3401.85 91.15 3396.65 85.45 3387.35 74.35 3380.15 84.85 3370.25 89.35 3364.85 97.45 3355.25 95.35 3341.15 87.85 3335.45 76.45 3339.35 64.45 3345.05 58.75 3346.55 59.35 3342.65 59.05 3323.75
L 58.75 3323.75
Q 58.45 3305.45 61.15 3294.95 69.25 3301.25 75.85 3303.95 86.65 3307.55 95.65 3303.95 99.25 3291.95 91.15 3279.95 86.35 3272.45 74.65 3263.15 86.95 3253.25 89.95 3249.05 97.15 3239.45 95.65 3225.95 88.45 3219.05 77.65 3222.95 65.35 3229.55 59.05 3231.35 59.05 3226.55 59.35 3204.05 59.65 3185.45 59.05 3177.95 73.45 3186.05 76.75 3187.25 88.75 3191.15 97.75 3185.15 97.75 3172.25 89.65 3162.35 79.45 3151.85 74.65 3146.45 86.35 3138.05 90.85 3131.15 98.65 3120.05 93.85 3107.75 85.45 3103.55 75.25 3107.75 64.75 3113.75 59.05 3114.65
L 57.25 3114.95
M 61.15 3151.55
Q 53.65 3158.75 47.95 3151.25 42.25 3144.05 51.25 3139.55 62.05 3141.35 61.15 3151.55
M 46.15 3263.45
Q 46.75 3254.75 56.95 3255.95 60.85 3258.35 60.85 3263.15 60.85 3267.65 56.95 3270.05 45.25 3272.15 46.15 3263.45
M 60.85 3383.75
Q 53.35 3390.95 47.35 3383.45 41.95 3375.95 50.95 3371.15 57.55 3374.15 58.45 3375.35 61.75 3378.05 60.85 3383.75
M 48.95 3496.25
Q 43.25 3489.05 52.25 3484.55 63.05 3486.35 62.15 3496.55 54.65 3503.75 48.95 3496.25
M 49.95 3608.25
Q 44.25 3601.05 53.25 3596.55 64.05 3598.35 63.15 3608.55 55.65 3615.75 49.95 3608.25
M 58.95 3727.05
Q 47.25 3729.15 48.15 3720.45 48.75 3711.75 58.95 3712.95 62.85 3715.35 62.85 3720.15 62.85 3724.65 58.95 3727.05
M 49.35 3840.45
Q 43.95 3832.95 52.95 3828.15 59.55 3831.15 60.45 3832.35 63.75 3835.05 62.85 3840.75 55.35 3847.95 49.35 3840.45
M 64.15 3954.55
Q 56.65 3961.75 50.95 3954.25 45.25 3947.05 54.25 3942.55 65.05 3944.35 64.15 3954.55
M 63.85 4066.15
Q 63.85 4070.65 59.95 4073.05 48.25 4075.15 49.15 4066.45 49.75 4057.75 59.95 4058.95 63.85 4061.35 63.85 4066.15
M 50.35 4186.45
Q 44.95 4178.95 53.95 4174.15 60.55 4177.15 61.45 4178.35 64.75 4181.05 63.85 4186.75 56.35 4193.95 50.35 4186.45
M 4531.45 5.85
Q 4527.85 7.65 4513.75 19.95 4500.85 1.35 4473.55 0.45 4471.75 11.25 4475.65 20.25 4482.25 35.55 4482.25 35.85 4475.35 34.05 4467.85 34.35 4464.55 34.35 4455.25 35.25
L 4455.25 34.95
Q 4439.05 35.55 4431.25 33.75 4437.25 24.45 4439.65 19.05 4444.15 9.15 4439.95 0.45 4426.45 -0.45 4415.95 6.15 4412.05 8.55 4400.05 19.65 4389.55 10.05 4383.85 5.85 4373.65 -1.05 4359.85 0.45 4357.45 10.35 4361.95 21.45 4367.05 32.85 4366.75 35.55 4363.6005859375 35.55 4341.05 35.25 4339.972265625 35.263671875 4338.85 35.25 4323.55 35.25 4314.25 33.75 4319.95 24.75 4322.35 19.65 4326.25 11.25 4324.75 0.45 4310.05 -1.65 4299.25 5.85 4289.05 15.75 4282.75 19.65 4272.55 9.75 4266.85 5.85 4256.35 -1.05 4242.85 0.45 4240.75 9.75 4245.55 21.15 4250.05 32.55 4249.45 35.55 4242.8 33.25 4230.05 34.25
L 4230.05 34.65
Q 4228.75 34.75 4227.35 34.95 4210.85 37.35 4200.95 34.05 4201.25 33.75 4209.05 21.15 4213.85 13.05 4213.25 4.05 4200.9 -0.25 4190 4.6 4188.7 5.15 4187.45 5.85 4183.85 7.65 4169.75 19.95 4156.85 1.35 4129.55 0.45 4127.75 11.25 4131.65 20.25 4138.25 35.55 4138.25 35.85 4131.35 34.05 4123.85 34.35 4120.55 34.35 4111.25 35.25
L 4111.25 34.95
Q 4095.05 35.55 4087.25 33.75 4093.25 24.45 4095.65 19.05 4100.15 9.15 4095.95 0.45 4082.45 -0.45 4071.95 6.15 4068.05 8.55 4056.05 19.65 4045.55 10.05 4039.85 5.85 4029.65 -1.05 4015.85 0.45 4013.45 10.35 4017.95 21.45 4023.05 32.85 4022.75 35.55 4019.45 35.55 3994.85 35.25 3979.55 35.25 3970.25 33.75 3975.95 24.75 3978.35 19.65 3982.25 11.25 3980.75 0.45 3966.05 -1.65 3955.25 5.85 3945.05 15.75 3938.75 19.65 3928.55 9.75 3922.85 5.85 3912.35 -1.05 3898.85 0.45 3896.75 9.75 3901.55 21.15 3906.05 32.55 3905.45 35.55 3898.8 33.25 3886.05 34.25
L 3886.05 34.45
Q 3883.8 34.65 3881.35 34.95 3864.85 37.35 3854.95 34.05 3855.25 33.75 3863.05 21.15 3867.85 13.05 3867.25 4.05 3854.9 -0.25 3844 4.6 3842.7 5.15 3841.45 5.85 3837.85 7.65 3823.75 19.95 3810.85 1.35 3783.55 0.45 3781.75 11.25 3785.65 20.25 3792.25 35.55 3792.25 35.85 3785.35 34.05 3777.85 34.35 3774.55 34.35 3765.25 35.25
L 3765.25 34.95
Q 3749.05 35.55 3741.25 33.75 3747.25 24.45 3749.65 19.05 3754.15 9.15 3749.95 0.45 3736.45 -0.45 3725.95 6.15 3722.05 8.55 3710.05 19.65 3699.55 10.05 3693.85 5.85 3683.65 -1.05 3669.85 0.45 3667.45 10.35 3671.95 21.45 3677.05 32.85 3676.75 35.55 3673.45 35.55 3648.85 35.25 3633.55 35.25 3624.25 33.75 3629.95 24.75 3632.35 19.65 3636.25 11.25 3634.75 0.45 3620.05 -1.65 3609.25 5.85 3599.05 15.75 3592.75 19.65 3582.55 9.75 3576.85 5.85 3566.35 -1.05 3552.85 0.45 3550.75 9.75 3555.55 21.15 3560.05 32.55 3559.45 35.55 3553.9 33.6 3544.05 34
L 3544.05 35.3
Q 3542.5 35.25 3540.85 35.25 3525.55 35.25 3516.25 33.75 3521.95 24.75 3524.35 19.65 3528.25 11.25 3526.75 0.45 3521.1 -0.35 3516 0.25 3507.9 1.25 3501.25 5.85 3491.05 15.75 3484.75 19.65 3474.55 9.75 3468.85 5.85 3458.35 -1.05 3444.85 0.45 3442.75 9.75 3447.55 21.15 3452.05 32.55 3451.45 35.55 3444.8 33.25 3432.05 34.25
L 3432.05 34.45
Q 3429.8 34.6 3427.35 34.95 3410.85 37.35 3400.95 34.05 3401.25 33.75 3409.05 21.15 3413.85 13.05 3413.25 4.05 3400.9 -0.25 3390 4.6 3388.7 5.15 3387.45 5.85 3383.85 7.65 3369.75 19.95 3356.85 1.35 3329.55 0.45 3327.75 11.25 3331.65 20.25 3338.25 35.55 3338.25 35.85 3331.35 34.05 3323.85 34.35 3320.55 34.35 3311.25 35.25
L 3311.25 34.95
Q 3295.05 35.55 3287.25 33.75 3293.25 24.45 3295.65 19.05 3300.15 9.15 3295.95 0.45 3282.45 -0.45 3271.95 6.15 3268.05 8.55 3256.05 19.65 3245.55 10.05 3239.85 5.85 3229.65 -1.05 3215.85 0.45 3213.45 10.35 3217.95 21.45 3223.05 32.85 3222.75 35.55 3219.45 35.55 3194.85 35.25 3179.55 35.25 3170.25 33.75 3175.95 24.75 3178.35 19.65 3182.25 11.25 3180.75 0.45 3166.05 -1.65 3155.25 5.85 3145.05 15.75 3138.75 19.65 3128.55 9.75 3122.85 5.85 3112.35 -1.05 3098.85 0.45 3096.75 9.75 3101.55 21.15 3106.05 32.55 3105.45 35.55 3098.8 33.25 3086.05 34.25
L 3086.05 34.65
Q 3084.75 34.75 3083.35 34.95 3066.85 37.35 3056.95 34.05 3057.25 33.75 3065.05 21.15 3069.85 13.05 3069.25 4.05 3056.9 -0.25 3046 4.6 3044.7 5.15 3043.45 5.85 3039.85 7.65 3025.75 19.95 3012.85 1.35 2985.55 0.45 2983.75 11.25 2987.65 20.25 2994.25 35.55 2994.25 35.85 2987.35 34.05 2979.85 34.35 2976.55 34.35 2967.25 35.25
L 2967.25 34.95
Q 2951.05 35.55 2943.25 33.75 2949.25 24.45 2951.65 19.05 2956.15 9.15 2951.95 0.45 2938.45 -0.45 2927.95 6.15 2924.05 8.55 2912.05 19.65 2901.55 10.05 2895.85 5.85 2885.65 -1.05 2871.85 0.45 2869.45 10.35 2873.95 21.45 2879.05 32.85 2878.75 35.55 2875.45 35.55 2850.85 35.25 2835.55 35.25 2826.25 33.75 2831.95 24.75 2834.35 19.65 2838.25 11.25 2836.75 0.45 2822.05 -1.65 2811.25 5.85 2801.05 15.75 2794.75 19.65 2784.55 9.75 2778.85 5.85 2768.35 -1.05 2754.85 0.45 2752.75 9.75 2757.55 21.15 2762.05 32.55 2761.45 35.55 2754.8 33.25 2742.05 34.25
L 2742.05 34.45
Q 2739.8 34.65 2737.35 34.95 2720.85 37.35 2710.95 34.05 2711.25 33.75 2719.05 21.15 2723.85 13.05 2723.25 4.05 2710.9 -0.25 2700 4.6 2698.7 5.15 2697.45 5.85 2693.85 7.65 2679.75 19.95 2666.85 1.35 2639.55 0.45 2637.75 11.25 2641.65 20.25 2648.25 35.55 2648.25 35.85 2641.35 34.05 2633.85 34.35 2630.55 34.35 2621.25 35.25
L 2621.25 34.95
Q 2605.05 35.55 2597.25 33.75 2603.25 24.45 2605.65 19.05 2610.15 9.15 2605.95 0.45 2592.45 -0.45 2581.95 6.15 2578.05 8.55 2566.05 19.65 2555.55 10.05 2549.85 5.85 2539.65 -1.05 2525.85 0.45 2523.45 10.35 2527.95 21.45 2533.05 32.85 2532.75 35.55 2529.45 35.55 2504.85 35.25 2489.55 35.25 2480.25 33.75 2485.95 24.75 2488.35 19.65 2492.25 11.25 2490.75 0.45 2476.05 -1.65 2465.25 5.85 2455.05 15.75 2448.75 19.65 2438.55 9.75 2432.85 5.85 2422.35 -1.05 2408.85 0.45 2406.75 9.75 2411.55 21.15 2416.05 32.55 2415.45 35.55 2409.9 33.6 2400.05 34 2398.15 34.05 2396.05 34.25 2394.1 34.35 2392.05 34.6
L 2392.05 35.25
Q 2377.30546875 35.210546875 2368.25 33.75 2373.95 24.75 2376.35 19.65 2380.25 11.25 2378.75 0.45 2373.1 -0.35 2368 0.25 2359.9 1.25 2353.25 5.85 2343.05 15.75 2336.75 19.65 2326.55 9.75 2320.85 5.85 2310.35 -1.05 2296.85 0.45 2294.75 9.75 2299.55 21.15 2304.05 32.55 2303.45 35.55 2296.8 33.25 2284.05 34.25
L 2284.05 34.45
Q 2281.8 34.6 2279.35 34.95 2262.85 37.35 2252.95 34.05 2253.25 33.75 2261.05 21.15 2265.85 13.05 2265.25 4.05 2252.9 -0.25 2242 4.6 2240.7 5.15 2239.45 5.85 2235.85 7.65 2221.75 19.95 2208.85 1.35 2181.55 0.45 2179.75 11.25 2183.65 20.25 2190.25 35.55 2190.25 35.85 2183.35 34.05 2175.85 34.35 2172.55 34.35 2163.25 35.25
L 2163.25 34.95
Q 2147.05 35.55 2139.25 33.75 2145.25 24.45 2147.65 19.05 2152.15 9.15 2147.95 0.45 2134.45 -0.45 2123.95 6.15 2120.05 8.55 2108.05 19.65 2097.55 10.05 2091.85 5.85 2081.65 -1.05 2067.85 0.45 2065.45 10.35 2069.95 21.45 2075.05 32.85 2074.75 35.55 2071.45 35.55 2046.85 35.25 2031.55 35.25 2022.25 33.75 2027.95 24.75 2030.35 19.65 2034.25 11.25 2032.75 0.45 2018.05 -1.65 2007.25 5.85 1997.05 15.75 1990.75 19.65 1980.55 9.75 1974.85 5.85 1964.35 -1.05 1950.85 0.45 1948.75 9.75 1953.55 21.15 1958.05 32.55 1957.45 35.55 1950.8 33.25 1938.05 34.25
L 1938.05 34.65
Q 1936.75 34.75 1935.35 34.95 1918.85 37.35 1908.95 34.05 1909.25 33.75 1917.05 21.15 1921.85 13.05 1921.25 4.05 1908.9 -0.25 1898 4.6 1896.7 5.15 1895.45 5.85 1891.85 7.65 1877.75 19.95 1864.85 1.35 1837.55 0.45 1835.75 11.25 1839.65 20.25 1846.25 35.55 1846.25 35.85 1839.35 34.05 1831.85 34.35 1828.55 34.35 1819.25 35.25
L 1819.25 34.95
Q 1803.05 35.55 1795.25 33.75 1801.25 24.45 1803.65 19.05 1808.15 9.15 1803.95 0.45 1790.45 -0.45 1779.95 6.15 1776.05 8.55 1764.05 19.65 1753.55 10.05 1747.85 5.85 1737.65 -1.05 1723.85 0.45 1721.45 10.35 1725.95 21.45 1731.05 32.85 1730.75 35.55 1727.45 35.55 1702.85 35.25 1687.55 35.25 1678.25 33.75 1683.95 24.75 1686.35 19.65 1690.25 11.25 1688.75 0.45 1674.05 -1.65 1663.25 5.85 1653.05 15.75 1646.75 19.65 1636.55 9.75 1630.85 5.85 1620.35 -1.05 1606.85 0.45 1604.75 9.75 1609.55 21.15 1614.05 32.55 1613.45 35.55 1606.8 33.25 1594.05 34.25
L 1594.05 34.45
Q 1591.8 34.65 1589.35 34.95 1572.85 37.35 1562.95 34.05 1563.25 33.75 1571.05 21.15 1575.85 13.05 1575.25 4.05 1562.9 -0.25 1552 4.6 1550.7 5.15 1549.45 5.85 1545.85 7.65 1531.75 19.95 1518.85 1.35 1491.55 0.45 1489.75 11.25 1493.65 20.25 1500.25 35.55 1500.25 35.85 1493.35 34.05 1485.85 34.35 1482.55 34.35 1473.25 35.25
L 1473.25 34.95
Q 1457.05 35.55 1449.25 33.75 1455.25 24.45 1457.65 19.05 1462.15 9.15 1457.95 0.45 1444.45 -0.45 1433.95 6.15 1430.05 8.55 1418.05 19.65 1407.55 10.05 1401.85 5.85 1391.65 -1.05 1377.85 0.45 1375.45 10.35 1379.95 21.45 1385.05 32.85 1384.75 35.55 1381.45 35.55 1356.85 35.25 1341.55 35.25 1332.25 33.75 1337.95 24.75 1340.35 19.65 1344.25 11.25 1342.75 0.45 1328.05 -1.65 1317.25 5.85 1307.05 15.75 1300.75 19.65 1290.55 9.75 1284.85 5.85 1274.35 -1.05 1260.85 0.45 1258.75 9.75 1263.55 21.15 1268.05 32.55 1267.45 35.55 1261.9 33.6 1252.05 34
L 1252.05 35.3
Q 1250.4984375 35.2701171875 1248.85 35.25 1233.55 35.25 1224.25 33.75 1229.95 24.75 1232.35 19.65 1236.25 11.25 1234.75 0.45 1229.0857421875 -0.3591796875 1224 0.25 1215.8884765625 1.2400390625 1209.25 5.85 1199.05 15.75 1192.75 19.65 1182.55 9.75 1176.85 5.85 1166.35 -1.05 1152.85 0.45 1150.75 9.75 1155.55 21.15 1160.05 32.55 1159.45 35.55 1152.8 33.25 1140.05 34.25
L 1140.05 34.4
Q 1137.7853515625 34.6197265625 1135.35 34.95 1118.85 37.35 1108.95 34.05 1109.25 33.75 1117.05 21.15 1121.85 13.05 1121.25 4.05 1108.9 -0.25 1098 4.6 1096.7 5.15 1095.45 5.85 1091.85 7.65 1077.75 19.95 1064.85 1.35 1037.55 0.45 1035.75 11.25 1039.65 20.25 1046.25 35.55 1046.25 35.85 1039.35 34.05 1031.85 34.35 1028.55 34.35 1019.25 35.25
L 1019.25 34.95
Q 1003.05 35.55 995.25 33.75 1001.25 24.45 1003.65 19.05 1008.15 9.15 1003.95 0.45 990.45 -0.45 979.95 6.15 976.05 8.55 964.05 19.65 953.55 10.05 947.85 5.85 937.65 -1.05 923.85 0.45 921.45 10.35 925.95 21.45 931.05 32.85 930.75 35.55 927.45 35.55 902.85 35.25 887.55 35.25 878.25 33.75 883.95 24.75 886.35 19.65 890.25 11.25 888.75 0.45 874.05 -1.65 863.25 5.85 853.05 15.75 846.75 19.65 836.55 9.75 830.85 5.85 820.35 -1.05 806.85 0.45 804.75 9.75 809.55 21.15 814.05 32.55 813.45 35.55 806.8 33.25 794.05 34.25
L 794.05 34.6
Q 792.72734375 34.76328125 791.35 34.95 774.85 37.35 764.95 34.05 765.25 33.75 773.05 21.15 777.85 13.05 777.25 4.05 764.9 -0.25 754 4.6 752.7 5.15 751.45 5.85 747.85 7.65 733.75 19.95 720.85 1.35 693.55 0.45 691.75 11.25 695.65 20.25 702.25 35.55 702.25 35.85 695.35 34.05 687.85 34.35 684.55 34.35 675.25 35.25
L 675.25 34.95
Q 659.05 35.55 651.25 33.75 657.25 24.45 659.65 19.05 664.15 9.15 659.95 0.45 646.45 -0.45 635.95 6.15 632.05 8.55 620.05 19.65 609.55 10.05 603.85 5.85 593.65 -1.05 579.85 0.45 577.45 10.35 581.95 21.45 587.05 32.85 586.75 35.55 583.45 35.55 558.85 35.25 543.55 35.25 534.25 33.75 539.95 24.75 542.35 19.65 546.25 11.25 544.75 0.45 530.05 -1.65 519.25 5.85 509.05 15.75 502.75 19.65 492.55 9.75 486.85 5.85 476.35 -1.05 462.85 0.45 460.75 9.75 465.55 21.15 470.05 32.55 469.45 35.55 462.8 33.25 450.05 34.25
L 450.05 34.4
Q 447.788671875 34.633984375 445.35 34.95 428.85 37.35 418.95 34.05 419.25 33.75 427.05 21.15 431.85 13.05 431.25 4.05 418.9048828125 -0.2439453125 408 4.55 406.7150390625 5.154296875 405.45 5.85 401.85 7.65 387.75 19.95 374.85 1.35 347.55 0.45 345.75 11.25 349.65 20.25 356.25 35.55 356.25 35.85 349.35 34.05 341.85 34.35 338.55 34.35 329.25 35.25
L 329.25 34.95
Q 313.05 35.55 305.25 33.75 311.25 24.45 313.65 19.05 318.15 9.15 313.95 0.45 300.45 -0.45 289.95 6.15 286.05 8.55 274.05 19.65 263.55 10.05 257.85 5.85 247.65 -1.05 233.85 0.45 231.45 10.35 235.95 21.45 241.05 32.85 240.75 35.55 237.45 35.55 212.85 35.25 197.55 35.25 188.25 33.75 193.95 24.75 196.35 19.65 200.25 11.25 198.75 0.45 184.05 -1.65 173.25 5.85 163.05 15.75 156.75 19.65 146.55 9.75 140.85 5.85 130.35 -1.05 116.85 0.45 114.75 9.75 119.55 21.15 124.05 32.55 123.45 35.55 117.8869140625 33.62421875 108.05 34 106.131640625 34.065625 104.05 34.2 102.119921875 34.3640625 100.05 34.55 99.7515625 34.61640625 99.45 34.65 82.65 37.05 73.05 33.75 73.35 33.45 80.85 20.85 85.65 12.75 85.05 3.75 71.55 -1.05 59.25 5.55 55.95 7.35 41.55 19.65 28.95 1.05 1.35 0.45 -0.45 10.95 3.75 20.25 10.05 35.25 10.35 35.55
L 11.25 38.25
Q 13.95 42.45 11.55 46.05
L 11.55 46.35
Q 5.55 54.15 3.15 60.15 -0.75 69.75 3.15 78.15 14.55 81.15 26.55 73.95 31.95 70.65 37.95 64.35
L 37.95 117.45 37.35 117.45
Q 27.75 111.75 22.05 109.35 12.45 105.45 0.75 106.65 -1.35 121.65 6.75 132.45 10.95 138.45 22.05 149.25 17.25 154.65 7.05 165.45 -0.45 175.65 0.75 189.75 10.95 191.85 23.55 187.05 35.55 181.95 39.45 182.55 36.15 190.95 38.55 207.45 40.65 223.95 37.35 233.85 36.75 233.85 23.25 225.75 14.25 220.95 4.65 221.55 -0.75 235.35 6.75 247.95 8.55 250.65 22.05 265.95 1.65 278.85 0.75 306.45 12.45 308.25 22.65 304.35 38.55 297.75 39.45 297.75 37.35 304.65 37.65 312.15 37.65 315.75 38.55 324.75 38.85 333.45 38.55 337.35 38.55 343.95 37.05 349.35 26.85 343.35 20.85 340.95 10.35 336.45 0.45 340.35 -0.15 354.15 6.75 364.65 9.45 368.55 21.75 381.15 17.25 386.85 6.75 397.35 3.0673828125 402.3072265625 1.45 408 -0.341796875 414.365234375 0.45 421.65 11.25 424.35 23.55 419.55 35.85 414.45 39.15 414.75 38.8642578125 419.0349609375 38.85 441
L 38.95 441 38.95 463.45 38.35 463.45
Q 28.75 457.75 23.05 455.35 13.45 451.45 1.75 452.65 -0.35 467.65 7.75 478.45 11.95 484.45 23.05 495.25 18.25 500.65 8.05 511.45 0.55 521.65 1.75 535.75 11.95 537.85 24.55 533.05 36.55 527.95 40.45 528.55 37.15 536.95 39.55 553.45 41.65 569.95 38.35 579.85 37.75 579.85 24.25 571.75 15.25 566.95 5.65 567.55 0.25 581.35 7.75 593.95 9.55 596.65 23.05 611.95 2.65 624.85 1.75 652.45 13.45 654.25 23.65 650.35 39.55 643.75 40.45 643.75 38.35 650.65 38.65 658.15 38.65 661.75 39.55 670.75 39.85 679.45 39.55 683.35 39.55 689.95 38.05 695.35 27.85 689.35 21.85 686.95 11.35 682.45 1.45 686.35 0.85 700.15 7.75 710.65 10.45 714.55 22.75 727.15 18.25 732.85 7.75 743.35 4.05 748.3 2.45 754 0.65 760.35 1.45 767.65 12.25 770.35 24.55 765.55 36.85 760.45 40.15 760.75 39.85 765.05 39.85 787
L 49.55 787
Q 49.5 785.35 49.45 783.55 49.15 761.95 51.85 757.15 59.95 763.75 65.35 765.85 74.65 769.45 86.35 767.65 88.25 760.85 86.6 754 85.4 748.85 82.15 743.65 76.45 734.35 65.35 727.15 75.85 717.25 80.35 711.85 88.45 702.25 86.35 688.15 78.85 682.45 67.45 686.35 55.45 692.05 49.75 693.55 50.35 689.65 50.05 670.75
L 49.75 670.75
Q 49.45 652.45 52.15 641.95 60.25 648.25 66.85 650.95 77.65 654.55 86.65 650.95 90.25 638.95 82.15 626.95 77.35 619.45 65.65 610.15 77.95 600.25 80.95 596.05 88.15 586.45 86.65 572.95 79.45 566.05 68.65 569.95 56.35 576.55 50.05 578.35 50.05 573.55 50.35 551.05 50.65 532.45 50.05 524.95 64.45 533.05 67.75 534.25 79.75 538.15 88.75 532.15 88.75 519.25 80.65 509.35 70.45 498.85 65.65 493.45 77.35 485.05 81.85 478.15 89.65 467.05 84.85 454.75 76.45 450.55 66.25 454.75 55.75 460.75 50.05 461.65
L 48.25 461.95 48.25 441 48.5 441
Q 48.491015625 439.3310546875 48.45 437.55 48.15 415.95 50.85 411.15 58.95 417.75 64.35 419.85 73.65 423.45 85.35 421.65 87.226953125 414.825 85.6 408 84.384375 402.825 81.15 397.65 75.45 388.35 64.35 381.15 74.85 371.25 79.35 365.85 87.45 356.25 85.35 342.15 77.85 336.45 66.45 340.35 54.45 346.05 48.75 347.55 49.35 343.65 49.05 324.75
L 48.75 324.75
Q 48.45 306.45 51.15 295.95 59.25 302.25 65.85 304.95 76.65 308.55 85.65 304.95 89.25 292.95 81.15 280.95 76.35 273.45 64.65 264.15 76.95 254.25 79.95 250.05 87.15 240.45 85.65 226.95 78.45 220.05 67.65 223.95 55.35 230.55 49.05 232.35 49.05 227.55 49.35 205.05 49.65 186.45 49.05 178.95 63.45 187.05 66.75 188.25 78.75 192.15 87.75 186.15 87.75 173.25 79.65 163.35 69.45 152.85 64.65 147.45 76.35 139.05 80.85 132.15 88.65 121.05 83.85 108.75 75.45 104.55 65.25 108.75 54.75 114.75 49.05 115.65
L 47.25 115.95 47.25 63.15
Q 54.45 70.65 57.15 73.05 66.45 79.35 79.95 78.15 86.85 71.25 82.65 61.35 76.35 50.25 74.85 44.55 79.4833984375 44.2603515625 100.05 44.8 100.78984375 44.8291015625 101.55 44.85 102.827734375 44.85 104.05 44.85 106.130078125 44.8474609375 108.05 44.85 121.43046875 44.7943359375 127.05 44.55 119.25 58.65 118.35 60.75 114.15 71.85 120.45 79.95 132.75 80.25 142.95 72.75 148.35 68.55 158.55 58.65 167.25 69.45 173.85 73.65 184.95 80.55 196.95 76.35 201.15 68.55 196.65 59.25 190.95 49.35 190.35 44.55 191.85 44.55 217.95 44.25 239.25 43.65 244.05 46.35 237.75 53.85 235.65 58.95 232.35 67.35 233.85 78.15 245.55 81.15 257.55 74.25 267.15 68.85 274.05 58.65 279.75 62.85 289.05 72.75 298.65 80.25 312.45 78.15 318.15 70.95 314.25 60.75 308.55 49.65 307.05 44.55 312.75 45.15 328.95 44.55 329.25 44.55 329.55 44.55 347.55 43.95 358.05 46.65 351.45 54.15 349.05 60.15 345.45 69.75 349.05 78.45 360.75 81.45 372.45 74.25 380.55 69.45 389.55 58.95 399.15 70.35 403.35 73.05 405.5568359375 74.616015625 408 75.75 415.8533203125 79.365234375 426.15 78.45 433.05 71.55 428.85 61.95 422.25 50.55 420.75 44.85 425.85 44.55 447.75 45.15 449.421484375 45.15 451 45.15
L 451 44.85
Q 466.78671875 44.84140625 473.05 44.55 465.25 58.65 464.35 60.75 460.15 71.85 466.45 79.95 478.75 80.25 488.95 72.75 494.35 68.55 504.55 58.65 513.25 69.45 519.85 73.65 530.95 80.55 542.95 76.35 547.15 68.55 542.65 59.25 536.95 49.35 536.35 44.55 537.85 44.55 563.95 44.25 585.25 43.65 590.05 46.35 583.75 53.85 581.65 58.95 578.35 67.35 579.85 78.15 591.55 81.15 603.55 74.25 613.15 68.85 620.05 58.65 625.75 62.85 635.05 72.75 644.65 80.25 658.45 78.15 664.15 70.95 660.25 60.75 654.55 49.65 653.05 44.55 658.75 45.15 674.95 44.55 675.25 44.55 675.55 44.55 693.55 43.95 704.05 46.65 697.45 54.15 695.05 60.15 691.45 69.75 695.05 78.45 706.75 81.45 718.45 74.25 726.55 69.45 735.55 58.95 745.15 70.35 749.35 73.05 751.55 74.6 754 75.75 761.85 79.35 772.15 78.45 779.05 71.55 774.85 61.95 768.25 50.55 766.75 44.85 771.85 44.55 793.75 45.15 795.4 45.15 797 45.15
L 797 44.85
Q 811.19140625 44.8224609375 817.05 44.55 809.25 58.65 808.35 60.75 804.15 71.85 810.45 79.95 822.75 80.25 832.95 72.75 838.35 68.55 848.55 58.65 857.25 69.45 863.85 73.65 874.95 80.55 886.95 76.35 891.15 68.55 886.65 59.25 880.95 49.35 880.35 44.55 881.85 44.55 907.95 44.25 929.25 43.65 934.05 46.35 927.75 53.85 925.65 58.95 922.35 67.35 923.85 78.15 935.55 81.15 947.55 74.25 957.15 68.85 964.05 58.65 969.75 62.85 979.05 72.75 988.65 80.25 1002.45 78.15 1008.15 70.95 1004.25 60.75 998.55 49.65 997.05 44.55 1002.75 45.15 1018.95 44.55 1019.25 44.55 1019.55 44.55 1037.55 43.95 1048.05 46.65 1041.45 54.15 1039.05 60.15 1035.45 69.75 1039.05 78.45 1050.75 81.45 1062.45 74.25 1070.55 69.45 1079.55 58.95 1089.15 70.35 1093.35 73.05 1095.55 74.6 1098 75.75 1105.85 79.35 1116.15 78.45 1123.05 71.55 1118.85 61.95 1112.25 50.55 1110.75 44.85 1115.85 44.55 1137.75 45.15 1139.4 45.15 1141 45.15
L 1141 44.85
Q 1156.78671875 44.84140625 1163.05 44.55 1155.25 58.65 1154.35 60.75 1150.15 71.85 1156.45 79.95 1168.75 80.25 1178.95 72.75 1184.35 68.55 1194.55 58.65 1203.25 69.45 1209.85 73.65 1216.751171875 77.93984375 1224 77.95 1228.410546875 77.9388671875 1232.95 76.35 1237.15 68.55 1232.65 59.25 1226.95 49.35 1226.35 44.55 1227.79453125 44.55 1252.05 44.25
L 1252.05 44.85
Q 1265.45 44.8 1271.05 44.55 1263.25 58.65 1262.35 60.75 1258.15 71.85 1264.45 79.95 1276.75 80.25 1286.95 72.75 1292.35 68.55 1302.55 58.65 1311.25 69.45 1317.85 73.65 1328.95 80.55 1340.95 76.35 1345.15 68.55 1340.65 59.25 1334.95 49.35 1334.35 44.55 1335.85 44.55 1361.95 44.25 1383.25 43.65 1388.05 46.35 1381.75 53.85 1379.65 58.95 1376.35 67.35 1377.85 78.15 1389.55 81.15 1401.55 74.25 1411.15 68.85 1418.05 58.65 1423.75 62.85 1433.05 72.75 1442.65 80.25 1456.45 78.15 1462.15 70.95 1458.25 60.75 1452.55 49.65 1451.05 44.55 1456.75 45.15 1472.95 44.55 1473.25 44.55 1473.55 44.55 1491.55 43.95 1502.05 46.65 1495.45 54.15 1493.05 60.15 1489.45 69.75 1493.05 78.45 1504.75 81.45 1516.45 74.25 1524.55 69.45 1533.55 58.95 1543.15 70.35 1547.35 73.05 1549.55 74.6 1552 75.75 1559.85 79.35 1570.15 78.45 1577.05 71.55 1572.85 61.95 1566.25 50.55 1564.75 44.85 1569.85 44.55 1591.75 45.15 1593.4 45.15 1595 45.15
L 1595 44.85
Q 1610.8 44.85 1617.05 44.55 1609.25 58.65 1608.35 60.75 1604.15 71.85 1610.45 79.95 1622.75 80.25 1632.95 72.75 1638.35 68.55 1648.55 58.65 1657.25 69.45 1663.85 73.65 1674.95 80.55 1686.95 76.35 1691.15 68.55 1686.65 59.25 1680.95 49.35 1680.35 44.55 1681.85 44.55 1707.95 44.25 1729.25 43.65 1734.05 46.35 1727.75 53.85 1725.65 58.95 1722.35 67.35 1723.85 78.15 1735.55 81.15 1747.55 74.25 1757.15 68.85 1764.05 58.65 1769.75 62.85 1779.05 72.75 1788.65 80.25 1802.45 78.15 1808.15 70.95 1804.25 60.75 1798.55 49.65 1797.05 44.55 1802.75 45.15 1818.95 44.55 1819.25 44.55 1819.55 44.55 1837.55 43.95 1848.05 46.65 1841.45 54.15 1839.05 60.15 1835.45 69.75 1839.05 78.45 1850.75 81.45 1862.45 74.25 1870.55 69.45 1879.55 58.95 1889.15 70.35 1893.35 73.05 1895.55 74.6 1898 75.75 1905.85 79.35 1916.15 78.45 1923.05 71.55 1918.85 61.95 1912.25 50.55 1910.75 44.85 1915.85 44.55 1937.75 45.15 1939.4 45.15 1941 45.15
L 1941 44.85
Q 1955.2 44.8 1961.05 44.55 1953.25 58.65 1952.35 60.75 1948.15 71.85 1954.45 79.95 1966.75 80.25 1976.95 72.75 1982.35 68.55 1992.55 58.65 2001.25 69.45 2007.85 73.65 2018.95 80.55 2030.95 76.35 2035.15 68.55 2030.65 59.25 2024.95 49.35 2024.35 44.55 2025.85 44.55 2051.95 44.25 2073.25 43.65 2078.05 46.35 2071.75 53.85 2069.65 58.95 2066.35 67.35 2067.85 78.15 2079.55 81.15 2091.55 74.25 2101.15 68.85 2108.05 58.65 2113.75 62.85 2123.05 72.75 2132.65 80.25 2146.45 78.15 2152.15 70.95 2148.25 60.75 2142.55 49.65 2141.05 44.55 2146.75 45.15 2162.95 44.55 2163.25 44.55 2163.55 44.55 2181.55 43.95 2192.05 46.65 2185.45 54.15 2183.05 60.15 2179.45 69.75 2183.05 78.45 2194.75 81.45 2206.45 74.25 2214.55 69.45 2223.55 58.95 2233.15 70.35 2237.35 73.05 2239.55 74.6 2242 75.75 2249.85 79.35 2260.15 78.45 2267.05 71.55 2262.85 61.95 2256.25 50.55 2254.75 44.85 2259.85 44.55 2281.75 45.15 2283.4 45.15 2285 45.15
L 2285 44.85
Q 2300.8 44.85 2307.05 44.55 2299.25 58.65 2298.35 60.75 2294.15 71.85 2300.45 79.95 2312.75 80.25 2322.95 72.75 2328.35 68.55 2338.55 58.65 2347.25 69.45 2353.85 73.65 2360.75 77.95 2368 77.95 2372.4 77.95 2376.95 76.35 2381.15 68.55 2376.65 59.25 2370.95 49.35 2370.35 44.55 2371.669921875 44.55 2392.05 44.35
L 2392.05 44.8
Q 2392.8 44.85 2393.55 44.85 2394.85 44.85 2396.05 44.85 2398.15 44.85 2400.05 44.85 2413.45 44.8 2419.05 44.55 2411.25 58.65 2410.35 60.75 2406.15 71.85 2412.45 79.95 2424.75 80.25 2434.95 72.75 2440.35 68.55 2450.55 58.65 2459.25 69.45 2465.85 73.65 2476.95 80.55 2488.95 76.35 2493.15 68.55 2488.65 59.25 2482.95 49.35 2482.35 44.55 2483.85 44.55 2509.95 44.25 2531.25 43.65 2536.05 46.35 2529.75 53.85 2527.65 58.95 2524.35 67.35 2525.85 78.15 2537.55 81.15 2549.55 74.25 2559.15 68.85 2566.05 58.65 2571.75 62.85 2581.05 72.75 2590.65 80.25 2604.45 78.15 2610.15 70.95 2606.25 60.75 2600.55 49.65 2599.05 44.55 2604.75 45.15 2620.95 44.55 2621.25 44.55 2621.55 44.55 2639.55 43.95 2650.05 46.65 2643.45 54.15 2641.05 60.15 2637.45 69.75 2641.05 78.45 2652.75 81.45 2664.45 74.25 2672.55 69.45 2681.55 58.95 2691.15 70.35 2695.35 73.05 2697.55 74.6 2700 75.75 2707.85 79.35 2718.15 78.45 2725.05 71.55 2720.85 61.95 2714.25 50.55 2712.75 44.85 2717.85 44.55 2739.75 45.15 2741.4 45.15 2743 45.15
L 2743 44.85
Q 2758.8 44.85 2765.05 44.55 2757.25 58.65 2756.35 60.75 2752.15 71.85 2758.45 79.95 2770.75 80.25 2780.95 72.75 2786.35 68.55 2796.55 58.65 2805.25 69.45 2811.85 73.65 2822.95 80.55 2834.95 76.35 2839.15 68.55 2834.65 59.25 2828.95 49.35 2828.35 44.55 2829.85 44.55 2855.95 44.25 2877.25 43.65 2882.05 46.35 2875.75 53.85 2873.65 58.95 2870.35 67.35 2871.85 78.15 2883.55 81.15 2895.55 74.25 2905.15 68.85 2912.05 58.65 2917.75 62.85 2927.05 72.75 2936.65 80.25 2950.45 78.15 2956.15 70.95 2952.25 60.75 2946.55 49.65 2945.05 44.55 2950.75 45.15 2966.95 44.55 2967.25 44.55 2967.55 44.55 2985.55 43.95 2996.05 46.65 2989.45 54.15 2987.05 60.15 2983.45 69.75 2987.05 78.45 2998.75 81.45 3010.45 74.25 3018.55 69.45 3027.55 58.95 3037.15 70.35 3041.35 73.05 3043.55 74.6 3046 75.75 3053.85 79.35 3064.15 78.45 3071.05 71.55 3066.85 61.95 3060.25 50.55 3058.75 44.85 3063.85 44.55 3085.75 45.15 3087.4 45.15 3089 45.15
L 3089 44.85
Q 3103.2 44.8 3109.05 44.55 3101.25 58.65 3100.35 60.75 3096.15 71.85 3102.45 79.95 3114.75 80.25 3124.95 72.75 3130.35 68.55 3140.55 58.65 3149.25 69.45 3155.85 73.65 3166.95 80.55 3178.95 76.35 3183.15 68.55 3178.65 59.25 3172.95 49.35 3172.35 44.55 3173.85 44.55 3199.95 44.25 3221.25 43.65 3226.05 46.35 3219.75 53.85 3217.65 58.95 3214.35 67.35 3215.85 78.15 3227.55 81.15 3239.55 74.25 3249.15 68.85 3256.05 58.65 3261.75 62.85 3271.05 72.75 3280.65 80.25 3294.45 78.15 3300.15 70.95 3296.25 60.75 3290.55 49.65 3289.05 44.55 3294.75 45.15 3310.95 44.55 3311.25 44.55 3311.55 44.55 3329.55 43.95 3340.05 46.65 3333.45 54.15 3331.05 60.15 3327.45 69.75 3331.05 78.45 3342.75 81.45 3354.45 74.25 3362.55 69.45 3371.55 58.95 3381.15 70.35 3385.35 73.05 3387.55 74.6 3390 75.75 3397.85 79.35 3408.15 78.45 3415.05 71.55 3410.85 61.95 3404.25 50.55 3402.75 44.85 3407.85 44.55 3429.75 45.15 3431.4 45.15 3433 45.15
L 3433 44.85
Q 3448.8 44.85 3455.05 44.55 3447.25 58.65 3446.35 60.75 3442.15 71.85 3448.45 79.95 3460.75 80.25 3470.95 72.75 3476.35 68.55 3486.55 58.65 3495.25 69.45 3501.85 73.65 3508.75 77.95 3516 77.95 3520.4 77.95 3524.95 76.35 3529.15 68.55 3524.65 59.25 3518.95 49.35 3518.35 44.55 3519.8 44.55 3544.05 44.3
L 3544.05 44.85
Q 3557.45 44.8 3563.05 44.55 3555.25 58.65 3554.35 60.75 3550.15 71.85 3556.45 79.95 3568.75 80.25 3578.95 72.75 3584.35 68.55 3594.55 58.65 3603.25 69.45 3609.85 73.65 3620.95 80.55 3632.95 76.35 3637.15 68.55 3632.65 59.25 3626.95 49.35 3626.35 44.55 3627.85 44.55 3653.95 44.25 3675.25 43.65 3680.05 46.35 3673.75 53.85 3671.65 58.95 3668.35 67.35 3669.85 78.15 3681.55 81.15 3693.55 74.25 3703.15 68.85 3710.05 58.65 3715.75 62.85 3725.05 72.75 3734.65 80.25 3748.45 78.15 3754.15 70.95 3750.25 60.75 3744.55 49.65 3743.05 44.55 3748.75 45.15 3764.95 44.55 3765.25 44.55 3765.55 44.55 3783.55 43.95 3794.05 46.65 3787.45 54.15 3785.05 60.15 3781.45 69.75 3785.05 78.45 3796.75 81.45 3808.45 74.25 3816.55 69.45 3825.55 58.95 3835.15 70.35 3839.35 73.05 3841.55 74.6 3844 75.75 3851.85 79.35 3862.15 78.45 3869.05 71.55 3864.85 61.95 3858.25 50.55 3856.75 44.85 3861.85 44.55 3883.75 45.15 3885.4 45.15 3887 45.15
L 3887 44.85
Q 3902.8 44.85 3909.05 44.55 3901.25 58.65 3900.35 60.75 3896.15 71.85 3902.45 79.95 3914.75 80.25 3924.95 72.75 3930.35 68.55 3940.55 58.65 3949.25 69.45 3955.85 73.65 3966.95 80.55 3978.95 76.35 3983.15 68.55 3978.65 59.25 3972.95 49.35 3972.35 44.55 3973.85 44.55 3999.95 44.25 4021.25 43.65 4026.05 46.35 4019.75 53.85 4017.65 58.95 4014.35 67.35 4015.85 78.15 4027.55 81.15 4039.55 74.25 4049.15 68.85 4056.05 58.65 4061.75 62.85 4071.05 72.75 4080.65 80.25 4094.45 78.15 4100.15 70.95 4096.25 60.75 4090.55 49.65 4089.05 44.55 4094.75 45.15 4110.95 44.55 4111.25 44.55 4111.55 44.55 4129.55 43.95 4140.05 46.65 4133.45 54.15 4131.05 60.15 4127.45 69.75 4131.05 78.45 4142.75 81.45 4154.45 74.25 4162.55 69.45 4171.55 58.95 4181.15 70.35 4185.35 73.05 4187.55 74.6 4190 75.75 4197.85 79.35 4208.15 78.45 4215.05 71.55 4210.85 61.95 4204.25 50.55 4202.75 44.85 4207.85 44.55 4229.75 45.15 4231.4 45.15 4233 45.15
L 4233 44.85
Q 4247.2 44.8 4253.05 44.55 4245.25 58.65 4244.35 60.75 4240.15 71.85 4246.45 79.95 4258.75 80.25 4268.95 72.75 4274.35 68.55 4284.55 58.65 4293.25 69.45 4299.85 73.65 4310.95 80.55 4322.95 76.35 4327.15 68.55 4322.65 59.25 4316.95 49.35 4316.35 44.55 4317.7642578125 44.55 4341.05 44.25 4342.459765625 44.2671875 4343.95 44.25 4365.25 43.65 4370.05 46.35 4363.75 53.85 4361.65 58.95 4358.35 67.35 4359.85 78.15 4371.55 81.15 4383.55 74.25 4393.15 68.85 4400.05 58.65 4405.75 62.85 4415.05 72.75 4424.65 80.25 4438.45 78.15 4444.15 70.95 4440.25 60.75 4434.55 49.65 4433.05 44.55 4438.75 45.15 4454.95 44.55 4455.25 44.55 4455.55 44.55 4473.55 43.95 4484.05 46.65 4477.45 54.15 4475.05 60.15 4471.45 69.75 4475.05 78.45 4486.75 81.45 4498.45 74.25 4506.55 69.45 4515.55 58.95 4525.15 70.35 4529.35 73.05 4531.55 74.6 4534 75.75 4541.85 79.35 4552.15 78.45 4559.05 71.55 4554.85 61.95 4548.25 50.55 4546.75 44.85 4551.85 44.55 4573.75 45.15 4575.4 45.15 4577 45.15
L 4577 44.85
Q 4592.8 44.85 4599.05 44.55 4591.25 58.65 4590.35 60.75 4586.15 71.85 4592.45 79.95 4604.75 80.25 4614.95 72.75 4620.35 68.55 4630.55 58.65 4639.25 69.45 4645.85 73.65 4652.75 77.95 4660 77.95 4664.4 77.95 4668.95 76.35 4673.15 68.55 4668.65 59.25 4662.95 49.35 4662.35 44.55 4663.8 44.55 4688.25 44.3
L 4688.25 44.25
Q 4709.283984375 43.669140625 4714.05 46.35 4707.75 53.85 4705.65 58.95 4702.35 67.35 4703.85 78.15 4715.55 81.15 4727.55 74.25 4737.15 68.85 4744.05 58.65 4749.75 62.85 4759.05 72.75 4768.65 80.25 4782.45 78.15 4788.15 70.95 4784.25 60.75 4778.55 49.65 4777.05 44.55 4782.42734375 45.116015625 4797.15 44.6
L 4797.15 35
Q 4782.535546875 35.43125 4775.25 33.75 4781.25 24.45 4783.65 19.05 4788.15 9.15 4783.95 0.45 4770.45 -0.45 4759.95 6.15 4756.05 8.55 4744.05 19.65 4733.55 10.05 4727.85 5.85 4717.65 -1.05 4703.85 0.45 4701.45 10.35 4705.95 21.45 4711.05 32.85 4710.75 35.55 4707.830859375 35.55 4688.25 35.3
L 4688.25 35.3
Q 4686.6 35.25 4684.85 35.25 4669.55 35.25 4660.25 33.75 4665.95 24.75 4668.35 19.65 4672.25 11.25 4670.75 0.45 4665.1 -0.35 4660 0.25 4651.9 1.25 4645.25 5.85 4635.05 15.75 4628.75 19.65 4618.55 9.75 4612.85 5.85 4602.35 -1.05 4588.85 0.45 4586.75 9.75 4591.55 21.15 4596.05 32.55 4595.45 35.55 4588.8 33.25 4576.05 34.25
L 4576.05 34.45
Q 4573.8 34.6 4571.35 34.95 4554.85 37.35 4544.95 34.05 4545.25 33.75 4553.05 21.15 4557.85 13.05 4557.25 4.05 4544.9 -0.25 4534 4.6 4532.7 5.15 4531.45 5.85
M 4740.45 34.35
Q 4748.25 28.95 4752.45 37.35 4750.05 43.05 4748.85 44.25 4746.15 47.25 4740.45 46.35 4733.25 39.45 4740.45 34.35
M 43.05 32.85
Q 51.75 33.45 50.25 42.75 47.85 46.05 43.35 46.05 38.55 46.05 36.15 42.75 34.35 31.95 43.05 32.85
M 41.85 60.15
Q 42.75 59.55 43.35 58.65 43.95 59.25 44.25 59.85 43.05 60.15 41.85 60.15
M 1879.55 46.35
Q 1874.75 46.35 1872.35 43.05 1870.55 32.25 1879.25 33.15 1887.65 33.75 1886.15 43.05 1883.75 46.35 1879.55 46.35
M 1760.45 46.35
Q 1753.25 39.45 1760.45 34.35 1768.25 28.95 1772.45 37.35 1770.05 43.05 1768.85 44.25 1766.15 47.25 1760.45 46.35
M 1643.15 46.35
Q 1636.25 39.45 1643.75 34.35 1651.25 29.25 1655.75 37.35 1653.65 47.25 1643.15 46.35
M 1533.55 46.35
Q 1528.75 46.35 1526.35 43.05 1524.55 32.25 1533.25 33.15 1541.65 33.75 1540.15 43.05 1537.75 46.35 1533.55 46.35
M 1426.45 37.35
Q 1424.05 43.05 1422.85 44.25 1420.15 47.25 1414.45 46.35 1407.25 39.45 1414.45 34.35 1422.25 28.95 1426.45 37.35
M 1297.75 34.35
Q 1305.25 29.25 1309.75 37.35 1307.65 47.25 1297.15 46.35 1290.25 39.45 1297.75 34.35
M 2333.15 46.35
Q 2326.25 39.45 2333.75 34.35 2341.25 29.25 2345.75 37.35 2343.65 47.25 2333.15 46.35
M 2223.55 46.35
Q 2218.75 46.35 2216.35 43.05 2214.55 32.25 2223.25 33.15 2231.65 33.75 2230.15 43.05 2227.75 46.35 2223.55 46.35
M 2116.45 37.35
Q 2114.05 43.05 2112.85 44.25 2110.15 47.25 2104.45 46.35 2097.25 39.45 2104.45 34.35 2112.25 28.95 2116.45 37.35
M 1987.75 34.35
Q 1995.25 29.25 1999.75 37.35 1997.65 47.25 1987.15 46.35 1980.25 39.45 1987.75 34.35
M 624.85 44.25
Q 622.15 47.25 616.45 46.35 609.25 39.45 616.45 34.35 624.25 28.95 628.45 37.35 626.05 43.05 624.85 44.25
M 511.75 37.35
Q 509.65 47.25 499.15 46.35 492.25 39.45 499.75 34.35 507.25 29.25 511.75 37.35
M 389.25 33.15
Q 397.65 33.75 396.15 43.05 393.75 46.35 389.55 46.35 384.75 46.35 382.35 43.05 380.55 32.25 389.25 33.15
M 278.85 44.25
Q 276.15 47.25 270.45 46.35 263.25 39.45 270.45 34.35 278.25 28.95 282.45 37.35 280.05 43.05 278.85 44.25
M 153.15 46.35
Q 146.25 39.45 153.75 34.35 161.25 29.25 165.75 37.35 163.65 47.25 153.15 46.35
M 1201.75 37.35
Q 1199.65 47.25 1189.15 46.35 1182.25 39.45 1189.75 34.35 1197.25 29.25 1201.75 37.35
M 1079.25 33.15
Q 1087.65 33.75 1086.15 43.05 1083.75 46.35 1079.55 46.35 1074.75 46.35 1072.35 43.05 1070.55 32.25 1079.25 33.15
M 968.85 44.25
Q 966.15 47.25 960.45 46.35 953.25 39.45 960.45 34.35 968.25 28.95 972.45 37.35 970.05 43.05 968.85 44.25
M 843.15 46.35
Q 836.25 39.45 843.75 34.35 851.25 29.25 855.75 37.35 853.65 47.25 843.15 46.35
M 735.25 33.15
Q 743.65 33.75 742.15 43.05 739.75 46.35 735.55 46.35 730.75 46.35 728.35 43.05 726.55 32.25 735.25 33.15
M 4279.15 46.35
Q 4272.25 39.45 4279.75 34.35 4287.25 29.25 4291.75 37.35 4289.65 47.25 4279.15 46.35
M 4178.15 43.05
Q 4175.75 46.35 4171.55 46.35 4166.75 46.35 4164.35 43.05 4162.55 32.25 4171.25 33.15 4179.65 33.75 4178.15 43.05
M 4052.45 34.35
Q 4060.25 28.95 4064.45 37.35 4062.05 43.05 4060.85 44.25 4058.15 47.25 4052.45 46.35 4045.25 39.45 4052.45 34.35
M 3935.15 46.35
Q 3928.25 39.45 3935.75 34.35 3943.25 29.25 3947.75 37.35 3945.65 47.25 3935.15 46.35
M 3135.75 34.35
Q 3143.25 29.25 3147.75 37.35 3145.65 47.25 3135.15 46.35 3128.25 39.45 3135.75 34.35
M 3027.55 46.35
Q 3022.75 46.35 3020.35 43.05 3018.55 32.25 3027.25 33.15 3035.65 33.75 3034.15 43.05 3031.75 46.35 3027.55 46.35
M 2920.45 37.35
Q 2918.05 43.05 2916.85 44.25 2914.15 47.25 2908.45 46.35 2901.25 39.45 2908.45 34.35 2916.25 28.95 2920.45 37.35
M 2791.15 46.35
Q 2784.25 39.45 2791.75 34.35 2799.25 29.25 2803.75 37.35 2801.65 47.25 2791.15 46.35
M 2688.15 43.05
Q 2685.75 46.35 2681.55 46.35 2676.75 46.35 2674.35 43.05 2672.55 32.25 2681.25 33.15 2689.65 33.75 2688.15 43.05
M 3832.15 43.05
Q 3829.75 46.35 3825.55 46.35 3820.75 46.35 3818.35 43.05 3816.55 32.25 3825.25 33.15 3833.65 33.75 3832.15 43.05
M 3706.45 34.35
Q 3714.25 28.95 3718.45 37.35 3716.05 43.05 3714.85 44.25 3712.15 47.25 3706.45 46.35 3699.25 39.45 3706.45 34.35
M 3589.15 46.35
Q 3582.25 39.45 3589.75 34.35 3597.25 29.25 3601.75 37.35 3599.65 47.25 3589.15 46.35
M 3481.15 46.35
Q 3474.25 39.45 3481.75 34.35 3489.25 29.25 3493.75 37.35 3491.65 47.25 3481.15 46.35
M 3378.15 43.05
Q 3375.75 46.35 3371.55 46.35 3366.75 46.35 3364.35 43.05 3362.55 32.25 3371.25 33.15 3379.65 33.75 3378.15 43.05
M 3252.45 34.35
Q 3260.25 28.95 3264.45 37.35 3262.05 43.05 3260.85 44.25 3258.15 47.25 3252.45 46.35 3245.25 39.45 3252.45 34.35
M 2562.45 46.35
Q 2555.25 39.45 2562.45 34.35 2570.25 28.95 2574.45 37.35 2572.05 43.05 2570.85 44.25 2568.15 47.25 2562.45 46.35
M 2445.75 34.35
Q 2453.25 29.25 2457.75 37.35 2455.65 47.25 2445.15 46.35 2438.25 39.45 2445.75 34.35
M 4522.15 43.05
Q 4519.75 46.35 4515.55 46.35 4510.75 46.35 4508.35 43.05 4506.55 32.25 4515.25 33.15 4523.65 33.75 4522.15 43.05
M 4396.45 34.35
Q 4404.25 28.95 4408.45 37.35 4406.05 43.05 4404.85 44.25 4402.15 47.25 4396.45 46.35 4389.25 39.45 4396.45 34.35
M 4625.15 46.35
Q 4618.25 39.45 4625.75 34.35 4633.25 29.25 4637.75 37.35 4635.65 47.25 4625.15 46.35
M 41.25 140.55
Q 52.05 142.35 51.15 152.55 43.65 159.75 37.95 152.25 32.25 145.05 41.25 140.55
M 50.85 264.15
Q 50.85 268.65 46.95 271.05 35.25 273.15 36.15 264.45 36.75 255.75 46.95 256.95 50.85 259.35 50.85 264.15
M 48.45 376.35
Q 51.75 379.05 50.85 384.75 43.35 391.95 37.35 384.45 31.95 376.95 40.95 372.15 47.55 375.15 48.45 376.35
M 52.15 498.55
Q 44.65 505.75 38.95 498.25 33.25 491.05 42.25 486.55 53.05 488.35 52.15 498.55
M 51.85 610.15
Q 51.85 614.65 47.95 617.05 36.25 619.15 37.15 610.45 37.75 601.75 47.95 602.95 51.85 605.35 51.85 610.15
M 49.45 722.35
Q 52.75 725.05 51.85 730.75 44.35 737.95 38.35 730.45 32.95 722.95 41.95 718.15 48.55 721.15 49.45 722.35
M 49.25 787.05
L 39.95 787.05 39.95 812.45 39.35 812.45
Q 29.75 806.75 24.05 804.35 14.45 800.45 2.75 801.65 0.65 816.65 8.75 827.45 12.95 833.45 24.05 844.25 19.25 849.65 9.05 860.45 1.55 870.65 2.75 884.75 12.95 886.85 25.55 882.05 37.55 876.95 41.45 877.55 38.15 885.95 40.55 902.45 42.65 918.95 39.35 928.85 38.75 928.85 25.25 920.75 16.25 915.95 6.65 916.55 1.25 930.35 8.75 942.95 10.55 945.65 24.05 960.95 3.65 973.85 2.75 1001.45 14.45 1003.25 24.65 999.35 40.55 992.75 41.45 992.75 39.35 999.65 39.65 1007.15 39.65 1010.75 40.55 1019.75 40.85 1028.45 40.55 1032.35 40.55 1038.95 39.05 1044.35 28.85 1038.35 22.85 1035.95 12.35 1031.45 2.45 1035.35 1.85 1049.15 8.75 1059.65 11.45 1063.55 23.75 1076.15 19.25 1081.85 8.75 1092.35 5.05 1097.3 3.45 1103 1.65 1109.35 2.45 1116.65 13.25 1119.35 25.55 1114.55 37.85 1109.45 41.15 1109.75 40.85 1114.05 40.85 1136
L 40.95 1136 40.95 1157.45 40.35 1157.45
Q 30.75 1151.75 25.05 1149.35 15.45 1145.45 3.75 1146.65 1.65 1161.65 9.75 1172.45 13.95 1178.45 25.05 1189.25 20.25 1194.65 10.05 1205.45 4.125 1213.5080078125 3.6 1224 3.498046875 1226.7890625 3.75 1229.75 13.95 1231.85 26.55 1227.05 31.1041015625 1225.114453125 34.5 1224 40.030078125 1222.177734375 42.45 1222.55 42.176171875 1223.247265625 41.95 1224 39.5357421875 1231.71875 41.25 1245.3
L 41.95 1245.3 41.95 1269.45 41.35 1269.45
Q 31.75 1263.75 26.05 1261.35 16.45 1257.45 4.75 1258.65 2.65 1273.65 10.75 1284.45 14.95 1290.45 26.05 1301.25 21.25 1306.65 11.05 1317.45 3.55 1327.65 4.75 1341.75 14.95 1343.85 27.55 1339.05 39.55 1333.95 43.45 1334.55 40.15 1342.95 42.55 1359.45 44.65 1375.95 41.35 1385.85 40.75 1385.85 27.25 1377.75 18.25 1372.95 8.65 1373.55 3.25 1387.35 10.75 1399.95 12.55 1402.65 26.05 1417.95 5.65 1430.85 4.75 1458.45 16.45 1460.25 26.65 1456.35 42.55 1449.75 43.45 1449.75 41.35 1456.65 41.65 1464.15 41.65 1467.75 42.55 1476.75 42.85 1485.45 42.55 1489.35 42.55 1495.95 41.05 1501.35 30.85 1495.35 24.85 1492.95 14.35 1488.45 4.45 1492.35 3.85 1506.15 10.75 1516.65 13.45 1520.55 25.75 1533.15 21.25 1538.85 10.75 1549.35 7.05 1554.3 5.45 1560 3.65 1566.35 4.45 1573.65 15.25 1576.35 27.55 1571.55 39.85 1566.45 43.15 1566.75 42.85 1571.05 42.85 1593
L 42.95 1593 42.95 1615.45 42.35 1615.45
Q 32.75 1609.75 27.05 1607.35 17.45 1603.45 5.75 1604.65 3.65 1619.65 11.75 1630.45 15.95 1636.45 27.05 1647.25 22.25 1652.65 12.05 1663.45 4.55 1673.65 5.75 1687.75 15.95 1689.85 28.55 1685.05 40.55 1679.95 44.45 1680.55 41.15 1688.95 43.55 1705.45 45.65 1721.95 42.35 1731.85 41.75 1731.85 28.25 1723.75 19.25 1718.95 9.65 1719.55 4.25 1733.35 11.75 1745.95 13.55 1748.65 27.05 1763.95 6.65 1776.85 5.75 1804.45 17.45 1806.25 27.65 1802.35 43.55 1795.75 44.45 1795.75 42.35 1802.65 42.65 1810.15 42.65 1813.75 43.55 1822.75 43.85 1831.45 43.55 1835.35 43.55 1841.95 42.05 1847.35 31.85 1841.35 25.85 1838.95 15.35 1834.45 5.45 1838.35 4.85 1852.15 11.75 1862.65 14.45 1866.55 26.75 1879.15 22.25 1884.85 11.75 1895.35 8.05 1900.3 6.45 1906 4.65 1912.35 5.45 1919.65 16.25 1922.35 28.55 1917.55 40.85 1912.45 44.15 1912.75 43.85 1917.05 43.85 1939
L 53.55 1939
Q 53.5 1937.35 53.45 1935.55 53.15 1913.95 55.85 1909.15 63.95 1915.75 69.35 1917.85 78.65 1921.45 90.35 1919.65 92.25 1912.85 90.6 1906 89.4 1900.85 86.15 1895.65 80.45 1886.35 69.35 1879.15 79.85 1869.25 84.35 1863.85 92.45 1854.25 90.35 1840.15 82.85 1834.45 71.45 1838.35 59.45 1844.05 53.75 1845.55 54.35 1841.65 54.05 1822.75
L 53.75 1822.75
Q 53.45 1804.45 56.15 1793.95 64.25 1800.25 70.85 1802.95 81.65 1806.55 90.65 1802.95 94.25 1790.95 86.15 1778.95 81.35 1771.45 69.65 1762.15 81.95 1752.25 84.95 1748.05 92.15 1738.45 90.65 1724.95 83.45 1718.05 72.65 1721.95 60.35 1728.55 54.05 1730.35 54.05 1725.55 54.35 1703.05 54.65 1684.45 54.05 1676.95 68.45 1685.05 71.75 1686.25 83.75 1690.15 92.75 1684.15 92.75 1671.25 84.65 1661.35 74.45 1650.85 69.65 1645.45 81.35 1637.05 85.85 1630.15 93.65 1619.05 88.85 1606.75 80.45 1602.55 70.25 1606.75 59.75 1612.75 54.05 1613.65
L 52.25 1613.95 52.25 1593 52.55 1593
Q 52.5 1591.35 52.45 1589.55 52.15 1567.95 54.85 1563.15 62.95 1569.75 68.35 1571.85 77.65 1575.45 89.35 1573.65 91.25 1566.85 89.6 1560 88.4 1554.85 85.15 1549.65 79.45 1540.35 68.35 1533.15 78.85 1523.25 83.35 1517.85 91.45 1508.25 89.35 1494.15 81.85 1488.45 70.45 1492.35 58.45 1498.05 52.75 1499.55 53.35 1495.65 53.05 1476.75
L 52.75 1476.75
Q 52.45 1458.45 55.15 1447.95 63.25 1454.25 69.85 1456.95 80.65 1460.55 89.65 1456.95 93.25 1444.95 85.15 1432.95 80.35 1425.45 68.65 1416.15 80.95 1406.25 83.95 1402.05 91.15 1392.45 89.65 1378.95 82.45 1372.05 71.65 1375.95 59.35 1382.55 53.05 1384.35 53.05 1379.55 53.35 1357.05 53.65 1338.45 53.05 1330.95 67.45 1339.05 70.75 1340.25 82.75 1344.15 91.75 1338.15 91.75 1325.25 83.65 1315.35 73.45 1304.85 68.65 1299.45 80.35 1291.05 84.85 1284.15 92.65 1273.05 87.85 1260.75 79.45 1256.55 69.25 1260.75 58.75 1266.75 53.05 1267.65
L 51.25 1267.95 51.25 1245.3 52.35 1245.3
Q 52.3482421875 1245.175390625 52.35 1245.05 52.5662109375 1231.6404296875 52.3 1224 52.2173828125 1221.04296875 52.05 1218.95 57.3791015625 1221.94765625 61.2 1224 67.6712890625 1227.494140625 69.75 1228.25 81.75 1232.15 90.75 1226.15 90.75 1225.064453125 90.7 1224 90.068359375 1212.416796875 82.65 1203.35 72.45 1192.85 67.65 1187.45 79.35 1179.05 83.85 1172.15 91.65 1161.05 86.85 1148.75 78.45 1144.55 68.25 1148.75 57.75 1154.75 52.05 1155.65
L 50.25 1155.95 50.25 1136 50.55 1136
Q 50.5 1134.35 50.45 1132.55 50.15 1110.95 52.85 1106.15 60.95 1112.75 66.35 1114.85 75.65 1118.45 87.35 1116.65 89.25 1109.85 87.6 1103 86.4 1097.85 83.15 1092.65 77.45 1083.35 66.35 1076.15 76.85 1066.25 81.35 1060.85 89.45 1051.25 87.35 1037.15 79.85 1031.45 68.45 1035.35 56.45 1041.05 50.75 1042.55 51.35 1038.65 51.05 1019.75
L 50.75 1019.75
Q 50.45 1001.45 53.15 990.95 61.25 997.25 67.85 999.95 78.65 1003.55 87.65 999.95 91.25 987.95 83.15 975.95 78.35 968.45 66.65 959.15 78.95 949.25 81.95 945.05 89.15 935.45 87.65 921.95 80.45 915.05 69.65 918.95 57.35 925.55 51.05 927.35 51.05 922.55 51.35 900.05 51.65 881.45 51.05 873.95 65.45 882.05 68.75 883.25 80.75 887.15 89.75 881.15 89.75 868.25 81.65 858.35 71.45 847.85 66.65 842.45 78.35 834.05 82.85 827.15 90.65 816.05 85.85 803.75 77.45 799.55 67.25 803.75 56.75 809.75 51.05 810.65
L 49.25 810.95 49.25 787.05
M 43.25 835.55
Q 54.05 837.35 53.15 847.55 45.65 854.75 39.95 847.25 34.25 840.05 43.25 835.55
M 52.85 959.15
Q 52.85 963.65 48.95 966.05 37.25 968.15 38.15 959.45 38.75 950.75 48.95 951.95 52.85 954.35 52.85 959.15
M 50.45 1071.35
Q 53.75 1074.05 52.85 1079.75 45.35 1086.95 39.35 1079.45 33.95 1071.95 42.95 1067.15 49.55 1070.15 50.45 1071.35
M 54.15 1192.55
Q 46.65 1199.75 40.95 1192.25 35.25 1185.05 44.25 1180.55 55.05 1182.35 54.15 1192.55
M 55.15 1304.55
Q 47.65 1311.75 41.95 1304.25 36.25 1297.05 45.25 1292.55 56.05 1294.35 55.15 1304.55
M 50.95 1408.95
Q 54.85 1411.35 54.85 1416.15 54.85 1420.65 50.95 1423.05 39.25 1425.15 40.15 1416.45 40.75 1407.75 50.95 1408.95
M 44.95 1524.15
Q 51.55 1527.15 52.45 1528.35 55.75 1531.05 54.85 1536.75 47.35 1543.95 41.35 1536.45 35.95 1528.95 44.95 1524.15
M 42.95 1650.25
Q 37.25 1643.05 46.25 1638.55 57.05 1640.35 56.15 1650.55 48.65 1657.75 42.95 1650.25
M 51.95 1769.05
Q 40.25 1771.15 41.15 1762.45 41.75 1753.75 51.95 1754.95 55.85 1757.35 55.85 1762.15 55.85 1766.65 51.95 1769.05
M 45.95 1870.15
Q 52.55 1873.15 53.45 1874.35 56.75 1877.05 55.85 1882.75 48.35 1889.95 42.35 1882.45 36.95 1874.95 45.95 1870.15 Z"/>
</g>
</g>
</g>
</g>
</svg>
