
<svg xmlns="http://www.w3.org/2000/svg" version="1.1" xmlns:xlink="http://www.w3.org/1999/xlink" preserveAspectRatio="none" x="0px" y="0px" width="1200px" height="1200px" viewBox="0 0 1200 1200">
<defs/>

<g id="Layer_1">
<g>
<g>
<g>
<path fill="#CA9845" stroke="none" d="
M 22.6 422.05
L 0 422.05 0 724 2.8 724 0 724.05 0 1026 2.8 1026 0 1026.05 0 1328 22.6 1328.05 22.6 422.05
M 43.55 1266.55
Q 48.85 1259.15 41.95 1255.25 34.8 1251.1 32 1258.95 32.7 1267.7 43.55 1266.55
M 59.9 1181.75
Q 54.15 1175.55 43.55 1177.4 41.45 1184.55 41.7 1195.6 42.15 1207.1 45.4 1215.15 40.55 1213.1 35 1213.35 28.8 1213.8 26.5 1217.25 33.65 1221.6 44.45 1236.6 55.75 1247.9 71.9 1241.9 74.65 1252.5 73.5 1264.25 72.55 1275.75 68.2 1283.6 57.35 1281.05 56.65 1268.4 56.9 1265.15 62.9 1265.15 68.65 1265.15 68.2 1258.95 69.1 1254.8 64.95 1253.4 59.2 1251.8 58.75 1251.35 53 1252.25 50.7 1259.4 49.3 1263.3 47.25 1272.05 39.15 1270.7 35.7 1270.7 29.7 1270.45 28.35 1276 27.65 1279.9 29.5 1282.2 30.65 1283.6 34.1 1285.45 39.15 1286.8 41.25 1282.2 43.55 1277.35 47.25 1277.85 49.55 1280.6 55.05 1285.45 59.45 1289.8 60.6 1294.9 53.2 1304.1 50.45 1311.25 49.9 1312.6 49.4 1314 47.2 1320.5 47.05 1328
L 54.2 1328
Q 55.85 1323.25 58.5 1318.15 59.75 1316 60.95 1314 68.15 1301.6 72.1 1294.65 88.95 1264.25 79.5 1238 92.6 1230.85 91 1213.35 86.6 1192.8 87.1 1182.9 80.65 1182 76.5 1187.5 71.65 1193.75 68.2 1194.45 63.1 1185.45 59.9 1181.75
M 76.7 1105.3
Q 70.5 1110.35 75.8 1116.55 86.4 1117.25 87.1 1107.1 83.15 1100.2 76.7 1105.3
M 92.85 1065.4
Q 90.3 1062.2 82.7 1064.05 75.35 1065.9 73.95 1063.6 79.5 1058.95 79 1046.75 78.35 1030.85 79.5 1027.4 67.95 1025.1 61.3 1032 57.6 1035.95 51.15 1044.45 49.75 1043.75 44 1037.55 39.85 1032.95 34.1 1033.15 34.55 1044 29.05 1064.05 26.7 1080.65 41.7 1088.25 38.45 1095.15 37.8 1099.5 35.25 1122.55 45.85 1141 51.85 1151.35 64.3 1171.65 65.65 1174.6 65.2 1180.6 65.65 1185.2 71.9 1186.85 76.25 1175.55 70.75 1162.85 63.1 1149.3 60.6 1143.05 64.95 1134.75 66.6 1132.9 70.75 1128.1 77.65 1128.1 76.5 1132.9 78.8 1135.45 80.15 1137.05 83.4 1139.35 88.7 1139.6 90.3 1135 91.45 1131.75 91 1124.15 84.1 1120.5 81.55 1119.55 76.25 1118.2 70.05 1120.5 70.25 1114.05 70.25 1110.8 70.25 1105.3 68.2 1103.45 66.1 1103.65 63.8 1102.05 61.5 1100.65 58.75 1101.35 58.75 1102.95 56.2 1104.8 54.15 1106.2 54.85 1108.95 54.35 1113.35 58.3 1115.2 63.8 1117.7 64.3 1118.4 61.05 1125.55 59.9 1127.15 57.15 1131.75 53 1133.6 47.45 1125.8 47 1112.2 46.3 1100.2 49.3 1091.9 55.5 1094.45 68.2 1093.75 80.85 1083.6 92.85 1065.4
M 119.35 1026.05
L 98.6 1026.05 98.6 1328 119.35 1328 119.35 1026.05
M 43.55 964.55
Q 48.85 957.15 41.95 953.25 34.8 949.1 32 956.95 32.7 965.7 43.55 964.55
M 59.9 879.75
Q 54.15 873.55 43.55 875.4 41.45 882.55 41.7 893.6 42.15 905.1 45.4 913.15 40.55 911.1 35 911.35 28.8 911.8 26.5 915.25 33.65 919.6 44.45 934.6 55.75 945.9 71.9 939.9 74.65 950.5 73.5 962.25 72.55 973.75 68.2 981.6 57.35 979.05 56.65 966.4 56.9 963.15 62.9 963.15 68.65 963.15 68.2 956.95 69.1 952.8 64.95 951.4 59.2 949.8 58.75 949.35 53 950.25 50.7 957.4 49.3 961.3 47.25 970.05 39.15 968.7 35.7 968.7 29.7 968.45 28.35 974 27.65 977.9 29.5 980.2 30.65 981.6 34.1 983.45 39.15 984.8 41.25 980.2 43.55 975.35 47.25 975.85 49.55 978.6 55.05 983.45 59.45 987.8 60.6 992.9 53.2 1002.1 50.45 1009.25 49.9 1010.6 49.4 1012 47.2 1018.5 47.05 1026
L 54.2 1026
Q 55.85 1021.25 58.5 1016.15 59.75 1014 60.95 1012 68.15 999.6 72.1 992.65 88.95 962.25 79.5 936 92.6 928.85 91 911.35 86.6 890.8 87.1 880.9 80.65 880 76.5 885.5 71.65 891.75 68.2 892.45 63.1 883.45 59.9 879.75
M 76.7 803.3
Q 70.5 808.35 75.8 814.55 86.4 815.25 87.1 805.1 83.15 798.2 76.7 803.3
M 119.35 724.05
L 98.6 724.05 98.6 1026 119.35 1026 119.35 724.05
M 51.15 742.45
Q 49.75 741.75 44 735.55 39.85 730.95 34.1 731.15 34.55 742 29.05 762.05 26.7 778.65 41.7 786.25 38.45 793.15 37.8 797.5 35.25 820.55 45.85 839 51.85 849.35 64.3 869.65 65.65 872.6 65.2 878.6 65.65 883.2 71.9 884.85 76.25 873.55 70.75 860.85 63.1 847.3 60.6 841.05 64.95 832.75 66.6 830.9 70.75 826.1 77.65 826.1 76.5 830.9 78.8 833.45 80.15 835.05 83.4 837.35 88.7 837.6 90.3 833 91.45 829.75 91 822.15 84.1 818.5 81.55 817.55 76.25 816.2 70.05 818.5 70.25 812.05 70.25 808.8 70.25 803.3 68.2 801.45 66.1 801.65 63.8 800.05 61.5 798.65 58.75 799.35 58.75 800.95 56.2 802.8 54.15 804.2 54.85 806.95 54.35 811.35 58.3 813.2 63.8 815.7 64.3 816.4 61.05 823.55 59.9 825.15 57.15 829.75 53 831.6 47.45 823.8 47 810.2 46.3 798.2 49.3 789.9 55.5 792.45 68.2 791.75 80.85 781.6 92.85 763.4 90.3 760.2 82.7 762.05 75.35 763.9 73.95 761.6 79.5 756.95 79 744.75 78.35 728.85 79.5 725.4 67.95 723.1 61.3 730 57.6 733.95 51.15 742.45
M 43.55 662.55
Q 48.85 655.15 41.95 651.25 34.8 647.1 32 654.95 32.7 663.7 43.55 662.55
M 43.55 573.4
Q 41.45 580.55 41.7 591.6 42.15 603.1 45.4 611.15 40.55 609.1 35 609.35 28.8 609.8 26.5 613.25 33.65 617.6 44.45 632.6 55.75 643.9 71.9 637.9 74.65 648.5 73.5 660.25 72.55 671.75 68.2 679.6 57.35 677.05 56.65 664.4 56.9 661.15 62.9 661.15 68.65 661.15 68.2 654.95 69.1 650.8 64.95 649.4 59.2 647.8 58.75 647.35 53 648.25 50.7 655.4 49.3 659.3 47.25 668.05 39.15 666.7 35.7 666.7 29.7 666.45 28.35 672 27.65 675.9 29.5 678.2 30.65 679.6 34.1 681.45 39.15 682.8 41.25 678.2 43.55 673.35 47.25 673.85 49.55 676.6 55.05 681.45 59.45 685.8 60.6 690.9 53.2 700.1 50.45 707.25 49.9 708.6 49.4 710 47.2 716.5 47.05 724
L 54.2 724
Q 55.85 719.25 58.5 714.15 59.75 712 60.95 710 68.15 697.6 72.1 690.65 88.95 660.25 79.5 634 92.6 626.85 91 609.35 86.6 588.8 87.1 578.9 80.65 578 76.5 583.5 71.65 589.75 68.2 590.45 63.1 581.45 59.9 577.75 54.15 571.55 43.55 573.4
M 76.7 501.3
Q 70.5 506.35 75.8 512.55 86.4 513.25 87.1 503.1 83.15 496.2 76.7 501.3
M 92.85 461.4
Q 90.3 458.2 82.7 460.05 75.35 461.9 73.95 459.6 79.5 454.95 79 442.75 78.35 426.85 79.5 423.4 67.95 421.1 61.3 428 57.6 431.95 51.15 440.45 49.75 439.75 44 433.55 39.85 428.95 34.1 429.15 34.55 440 29.05 460.05 26.7 476.65 41.7 484.25 38.45 491.15 37.8 495.5 35.25 518.55 45.85 537 51.85 547.35 64.3 567.65 65.65 570.6 65.2 576.6 65.65 581.2 71.9 582.85 76.25 571.55 70.75 558.85 63.1 545.3 60.6 539.05 64.95 530.75 66.6 528.9 70.75 524.1 77.65 524.1 76.5 528.9 78.8 531.45 80.15 533.05 83.4 535.35 88.7 535.6 90.3 531 91.45 527.75 91 520.15 84.1 516.5 81.55 515.55 76.25 514.2 70.05 516.5 70.25 510.05 70.25 506.8 70.25 501.3 68.2 499.45 66.1 499.65 63.8 498.05 61.5 496.65 58.75 497.35 58.75 498.95 56.2 500.8 54.15 502.2 54.85 504.95 54.35 509.35 58.3 511.2 63.8 513.7 64.3 514.4 61.05 521.55 59.9 523.15 57.15 527.75 53 529.6 47.45 521.8 47 508.2 46.3 496.2 49.3 487.9 55.5 490.45 68.2 489.75 80.85 479.6 92.85 461.4
M 119.35 422.05
L 98.6 422.05 98.6 724 119.35 724 119.35 422.05
M 1326 20.95
L 1326.05 0 0 0 0 422 22.6 422 22.6 119.55 98.6 119.55 98.6 421.95 119.35 421.95 119.35 119.55 1326.05 119.55 1326.05 96.75 119.35 96.75 119.3 20.95 1326 20.95
M 43.55 360.55
Q 48.85 353.15 41.95 349.25 34.8 345.1 32 352.95 32.7 361.7 43.55 360.55
M 76.5 281.5
Q 71.65 287.75 68.2 288.45 63.1 279.45 59.9 275.75 54.15 269.55 43.55 271.4 41.45 278.55 41.7 289.6 42.15 301.1 45.4 309.15 40.55 307.1 35 307.35 28.8 307.8 26.5 311.25 33.65 315.6 44.45 330.6 55.75 341.9 71.9 335.9 74.65 346.5 73.5 358.25 72.55 369.75 68.2 377.6 57.35 375.05 56.65 362.4 56.9 359.15 62.9 359.15 68.65 359.15 68.2 352.95 69.1 348.8 64.95 347.4 59.2 345.8 58.75 345.35 53 346.25 50.7 353.4 49.3 357.3 47.25 366.05 39.15 364.7 35.7 364.7 29.7 364.45 28.35 370 27.65 373.9 29.5 376.2 30.65 377.6 34.1 379.45 39.15 380.8 41.25 376.2 43.55 371.35 47.25 371.85 49.55 374.6 55.05 379.45 59.45 383.8 60.6 388.9 53.2 398.1 50.45 405.25 49.88203125 406.601171875 49.4 408 47.2091796875 414.487109375 47 422
L 54.15 422
Q 55.859765625 417.2580078125 58.5 412.15 59.750390625 410.003515625 60.9 408 68.1390625 395.581640625 72.1 388.65 88.95 358.25 79.5 332 92.6 324.85 91 307.35 86.6 286.8 87.1 276.9 80.65 276 76.5 281.5
M 76.7 199.3
Q 70.5 204.35 75.8 210.55 86.4 211.25 87.1 201.1 83.15 194.2 76.7 199.3
M 79 140.75
Q 78.35 124.85 79.5 121.4 67.95 119.1 61.3 126 57.6 129.95 51.15 138.45 49.75 137.75 44 131.55 39.85 126.95 34.1 127.15 34.55 138 29.05 158.05 26.7 174.65 41.7 182.25 38.45 189.15 37.8 193.5 35.25 216.55 45.85 235 51.85 245.35 64.3 265.65 65.65 268.6 65.2 274.6 65.65 279.2 71.9 280.85 76.25 269.55 70.75 256.85 63.1 243.3 60.6 237.05 64.95 228.75 66.6 226.9 70.75 222.1 77.65 222.1 76.5 226.9 78.8 229.45 80.15 231.05 83.4 233.35 88.7 233.6 90.3 229 91.45 225.75 91 218.15 84.1 214.5 81.55 213.55 76.25 212.2 70.05 214.5 70.25 208.05 70.25 204.8 70.25 199.3 68.2 197.45 66.1 197.65 63.8 196.05 61.5 194.65 58.75 195.35 58.75 196.95 56.2 198.8 54.15 200.2 54.85 202.95 54.35 207.35 58.3 209.2 63.8 211.7 64.3 212.4 61.05 219.55 59.9 221.15 57.15 225.75 53 227.6 47.45 219.8 47 206.2 46.3 194.2 49.3 185.9 55.5 188.45 68.2 187.75 80.85 177.6 92.85 159.4 90.3 156.2 82.7 158.05 75.35 159.9 73.95 157.6 79.5 152.95 79 140.75
M 1134.75 73.5
Q 1145.1 67.5 1165.4 55.05 1168.4 53.9 1174.4 54.35 1179 53.9 1180.6 47.45 1169.55 43.3 1156.65 48.85 1143.05 56.45 1137.05 59 1128.1 54.15 1126.7 53 1121.85 48.85 1121.85 41.7 1126.7 43.1 1129.25 40.8 1130.85 39.4 1133.15 36.15 1133.35 30.85 1128.75 29.25 1125.3 27.9 1117.95 28.55 1114.25 35 1113.35 38 1111.95 43.3 1114.25 49.3 1107.8 49.3 1104.6 49.3 1099.05 49.3 1097.2 51.35 1097.45 53.45 1096.05 55.75 1094.45 58.05 1095.35 60.8 1096.95 60.8 1098.6 63.1 1099.95 65.2 1102.75 64.5 1107.1 64.95 1108.95 61.3 1111.7 55.75 1112.4 55.05 1115.4 56.65 1121.15 59.65 1125.75 62.45 1127.4 66.35 1119.55 71.9 1105.95 72.55 1094.2 73.05 1085.7 70.25 1088.2 64.3 1087.75 51.35 1077.6 38.45 1059.2 26.7 1055.95 29.25 1057.8 36.85 1059.65 44.25 1057.35 45.6 1052.75 40.1 1040.75 40.3 1030.1150390625 40.7623046875 1025 40.4
L 1025 38.1
Q 1021.65 38 1018.05 38 1015.75 50 1022.9 56.9 1023.85 57.8 1025 58.9
L 1025 57.45
Q 1025.3830078125 57.8830078125 1025.8 58.3 1029.7 61.95 1038.45 68.4 1037.75 69.55 1031.3 75.55 1026.7 79.7 1026.95 85.45 1037.75 85 1058.05 90.55 1074.4 92.6 1082 77.85 1090.5 81.3 1093.3 81.55 1116.35 84.1 1134.75 73.5
M 1326 38.1
Q 1322.65 38 1319.05 38 1316.75 50 1323.9 56.9 1324.85 57.8 1326 58.9
L 1326 38.1
M 1110.35 43.75
Q 1111.05 32.95 1100.9 32.25 1094 36.4 1099.05 42.85 1104.1 49.05 1110.35 43.75
M 1249 77.65
Q 1244.9 84.55 1252.7 87.3 1261.45 87.1 1260.3 76.05 1253.15 70.75 1249 77.65
M 1245.1 60.8
Q 1246.05 66.6 1253.15 68.9 1257.1 70.25 1265.85 72.1 1265.85 76.25 1264.45 83.85 1264.25 89.6 1269.75 91.25 1273.7 91.7 1276.2 89.85 1277.6 88.7 1279.2 85.45 1280.6 80.4 1276 78.1 1271.15 75.8 1271.6 72.1 1271.85 71.9 1279.2 64.5 1283.6 60.15 1288.65 59 1297.85 66.1 1305 69.1 1306.45 69.7 1308 70.2 1316.2 72.75 1326 72.3
L 1326 66.55
Q 1319.5 64.6 1312.15 60.8 1310 59.55 1308 58.4 1295.6 51.25 1288.65 47.45 1258.25 30.65 1231.75 39.85 1224.6 26.7 1207.1 28.35 1186.6 32.95 1176.9 32.25 1176 38.95 1181.3 43.1 1187.75 47.9 1188.2 51.35 1179.2 56.45 1175.55 59.65 1169.3 65.45 1171.15 76.05 1178.55 78.1 1189.35 77.85 1200.9 77.2 1208.95 73.95 1206.85 78.8 1207.1 84.3 1207.55 90.75 1211 93.05 1215.4 85.95 1230.35 74.85 1241.4 63.6 1235.65 47.45 1246.5 44.9 1258 45.85 1269.75 47 1277.35 51.35 1275.05 61.95 1262.15 62.65 1258.95 62.45 1258.95 56.45 1259.15 50.9 1252.7 51.35 1248.55 50.45 1247.2 54.35 1245.35 60.6 1245.1 60.8
M 879.6 47.45
Q 868.55 43.3 855.65 48.85 842.05 56.45 836.05 59 827.1 54.15 825.7 53 820.85 48.85 820.85 41.7 825.7 43.1 828.25 40.8 829.85 39.4 832.15 36.15 832.35 30.85 827.75 29.25 824.3 27.9 816.95 28.55 813.25 35 812.35 38 810.95 43.3 813.25 49.3 806.8 49.3 803.6 49.3 798.05 49.3 796.2 51.35 796.45 53.45 795.05 55.75 793.45 58.05 794.35 60.8 795.95 60.8 797.6 63.1 798.95 65.2 801.75 64.5 806.1 64.95 807.95 61.3 810.7 55.75 811.4 55.05 814.4 56.65 820.15 59.65 824.75 62.45 826.4 66.35 818.55 71.9 804.95 72.55 793.2 73.05 784.7 70.25 787.2 64.3 786.75 51.35 776.6 38.45 758.2 26.7 754.95 29.25 756.8 36.85 758.65 44.25 756.35 45.6 751.75 40.1 739.75 40.3 730.105078125 40.7193359375 725 40.45
L 725 38.1
Q 721.65 38 718.05 38 715.75 50 722.9 56.9 723.85 57.8 725 58.9
L 725 58.45
Q 728.9205078125 62.1125 737.45 68.4 736.75 69.55 730.3 75.55 725.7 79.7 725.95 85.45 736.75 85 757.05 90.55 773.4 92.6 781 77.85 789.5 81.3 792.3 81.55 815.35 84.1 833.75 73.5 844.1 67.5 864.4 55.05 867.4 53.9 873.4 54.35 878 53.9 879.6 47.45
M 809.35 43.75
Q 810.05 32.95 799.9 32.25 793 36.4 798.05 42.85 803.1 49.05 809.35 43.75
M 948 77.65
Q 943.9 84.55 951.7 87.3 960.45 87.1 959.3 76.05 952.15 70.75 948 77.65
M 987.65 59
Q 996.85 66.1 1004 69.1 1005.45 69.7 1007 70.2 1015.2 72.75 1025 72.3
L 1025 66.55
Q 1018.5 64.6 1011.15 60.8 1009 59.55 1007 58.4 994.6 51.25 987.65 47.45 957.25 30.65 930.75 39.85 923.6 26.7 906.1 28.35 885.6 32.95 875.9 32.25 875 38.95 880.3 43.1 886.75 47.9 887.2 51.35 878.2 56.45 874.55 59.65 868.3 65.45 870.15 76.05 877.55 78.1 888.35 77.85 899.9 77.2 907.95 73.95 905.85 78.8 906.1 84.3 906.55 90.75 910 93.05 914.4 85.95 929.35 74.85 940.4 63.6 934.65 47.45 945.5 44.9 957 45.85 968.75 47 976.35 51.35 974.05 61.95 961.15 62.65 957.95 62.45 957.95 56.45 958.15 50.9 951.7 51.35 947.55 50.45 946.2 54.35 944.35 60.6 944.1 60.8 945.05 66.6 952.15 68.9 956.1 70.25 964.85 72.1 964.85 76.25 963.45 83.85 963.25 89.6 968.75 91.25 972.7 91.7 975.2 89.85 976.6 88.7 978.2 85.45 979.6 80.4 975 78.1 970.15 75.8 970.6 72.1 970.85 71.9 978.2 64.5 982.6 60.15 987.65 59
M 573.4 54.35
Q 578 53.9 579.6 47.45 568.55 43.3 555.65 48.85 542.05 56.45 536.05 59 527.1 54.15 525.7 53 520.85 48.85 520.85 41.7 525.7 43.1 528.25 40.8 529.85 39.4 532.15 36.15 532.35 30.85 527.75 29.25 524.3 27.9 516.95 28.55 513.25 35 512.35 38 510.95 43.3 513.25 49.3 506.8 49.3 503.6 49.3 498.05 49.3 496.2 51.35 496.45 53.45 495.05 55.75 493.45 58.05 494.35 60.8 495.95 60.8 497.6 63.1 498.95 65.2 501.75 64.5 506.1 64.95 507.95 61.3 510.7 55.75 511.4 55.05 514.4 56.65 520.15 59.65 524.75 62.45 526.4 66.35 518.55 71.9 504.95 72.55 493.2 73.05 484.7 70.25 487.2 64.3 486.75 51.35 476.6 38.45 458.2 26.7 454.95 29.25 456.8 36.85 458.65 44.25 456.35 45.6 451.75 40.1 439.75 40.3 431.0119140625 40.6798828125 426 40.5
L 426 38.05
Q 422.6703125 38 419.05 38 417.02890625 48.5453125 422.3 55.15 423.3451171875 56.8451171875 424.8 58.3 428.7 61.95 437.45 68.4 436.75 69.55 430.3 75.55 425.7 79.7 425.95 85.45 436.75 85 457.05 90.55 473.4 92.6 481 77.85 489.5 81.3 492.3 81.55 515.35 84.1 533.75 73.5 544.1 67.5 564.4 55.05 567.4 53.9 573.4 54.35
M 509.35 43.75
Q 510.05 32.95 499.9 32.25 493 36.4 498.05 42.85 503.1 49.05 509.35 43.75
M 651.7 87.3
Q 660.45 87.1 659.3 76.05 652.15 70.75 648 77.65 643.9 84.55 651.7 87.3
M 678.2 64.5
Q 682.6 60.15 687.65 59 696.85 66.1 704 69.1 705.45 69.7 707 70.2 715.2 72.75 725 72.3
L 725 66.55
Q 718.5 64.6 711.15 60.8 709 59.55 707 58.4 694.6 51.25 687.65 47.45 657.25 30.65 630.75 39.85 623.6 26.7 606.1 28.35 585.6 32.95 575.9 32.25 575 38.95 580.3 43.1 586.75 47.9 587.2 51.35 578.2 56.45 574.55 59.65 568.3 65.45 570.15 76.05 577.55 78.1 588.35 77.85 599.9 77.2 607.95 73.95 605.85 78.8 606.1 84.3 606.55 90.75 610 93.05 614.4 85.95 629.35 74.85 640.4 63.6 634.65 47.45 645.5 44.9 657 45.85 668.75 47 676.35 51.35 674.05 61.95 661.15 62.65 657.95 62.45 657.95 56.45 658.15 50.9 651.7 51.35 647.55 50.45 646.2 54.35 644.35 60.6 644.1 60.8 645.05 66.6 652.15 68.9 656.1 70.25 664.85 72.1 664.85 76.25 663.45 83.85 663.25 89.6 668.75 91.25 672.7 91.7 675.2 89.85 676.6 88.7 678.2 85.45 679.6 80.4 675 78.1 670.15 75.8 670.6 72.1 670.85 71.9 678.2 64.5
M 200.9 32.25
Q 194 36.4 199.05 42.85 204.1 49.05 210.35 43.75 211.05 32.95 200.9 32.25
M 280.6 47.45
Q 269.55 43.3 256.65 48.85 243.05 56.45 237.05 59 228.1 54.15 226.7 53 221.85 48.85 221.85 41.7 226.7 43.1 229.25 40.8 230.85 39.4 233.15 36.15 233.35 30.85 228.75 29.25 225.3 27.9 217.95 28.55 214.25 35 213.35 38 211.95 43.3 214.25 49.3 207.8 49.3 204.6 49.3 199.05 49.3 197.2 51.35 197.45 53.45 196.05 55.75 194.45 58.05 195.35 60.8 196.95 60.8 198.6 63.1 199.95 65.2 202.75 64.5 207.1 64.95 208.95 61.3 211.7 55.75 212.4 55.05 215.4 56.65 221.15 59.65 225.75 62.45 227.4 66.35 219.55 71.9 205.95 72.55 194.2 73.05 185.7 70.25 188.2 64.3 187.75 51.35 177.6 38.45 159.2 26.7 155.95 29.25 157.8 36.85 159.65 44.25 157.35 45.6 152.75 40.1 140.75 40.3 124.65 41 121.2 39.85 119.1 51.6 125.8 58.3 129.7 61.95 138.45 68.4 137.75 69.55 131.3 75.55 126.7 79.7 126.95 85.45 137.75 85 158.05 90.55 174.4 92.6 182 77.85 190.5 81.3 193.3 81.55 216.35 84.1 234.75 73.5 245.1 67.5 265.4 55.05 268.4 53.9 274.4 54.35 279 53.9 280.6 47.45
M 360.3 76.05
Q 353.15 70.75 349 77.65 344.9 84.55 352.7 87.3 361.45 87.1 360.3 76.05
M 426 72.25
L 426 66.55
Q 419.4908203125 64.6216796875 412.15 60.8 410.003515625 59.556640625 408 58.4 395.581640625 51.238671875 388.65 47.45 358.25 30.65 331.75 39.85 324.6 26.7 307.1 28.35 286.6 32.95 276.9 32.25 276 38.95 281.3 43.1 287.75 47.9 288.2 51.35 279.2 56.45 275.55 59.65 269.3 65.45 271.15 76.05 278.55 78.1 289.35 77.85 300.9 77.2 308.95 73.95 306.85 78.8 307.1 84.3 307.55 90.75 311 93.05 315.4 85.95 330.35 74.85 341.4 63.6 335.65 47.45 346.5 44.9 358 45.85 369.75 47 377.35 51.35 375.05 61.95 362.15 62.65 358.95 62.45 358.95 56.45 359.15 50.9 352.7 51.35 348.55 50.45 347.2 54.35 345.35 60.6 345.1 60.8 346.05 66.6 353.15 68.9 357.1 70.25 365.85 72.1 365.85 76.25 364.45 83.85 364.25 89.6 369.75 91.25 373.7 91.7 376.2 89.85 377.6 88.7 379.2 85.45 380.6 80.4 376 78.1 371.15 75.8 371.6 72.1 371.85 71.9 379.2 64.5 383.6 60.15 388.65 59 397.85 66.1 405 69.1 406.471875 69.690234375 408 70.15 416.187890625 72.7607421875 426 72.25 Z"/>
</g>
</g>
</g>
</g>
</svg>
