
<svg xmlns="http://www.w3.org/2000/svg" version="1.1" xmlns:xlink="http://www.w3.org/1999/xlink" preserveAspectRatio="none" x="0px" y="0px" width="1200px" height="1200px" viewBox="0 0 1200 1200">
<defs/>

<g id="Layer_1">
<g>
<g>
<g>
<path fill="#CA9845" stroke="none" d="
M 1177 78.85
Q 1188.5 78.8 1200 78.8
L 1200 59.5 162.25 59.5
Q 145.5 99 121.75 122
L 121.5 121.75
Q 98.75 145.75 59.5 162.5
L 59.5 1200 78.55 1200
Q 78.55 1190 78.55 1180 78.6 1094.95 78.75 1012.25 78.75 1004.55 78.75 996.95
L 78.55 996.95
Q 78.55 987.475 78.55 978 78.6 892.95 78.75 810.25 78.75 802.55 78.75 794.95
L 78.55 794.95
Q 78.6115234375 716.598828125 78.75 640.25 78.75 632.55 78.75 624.95
L 78.55 624.95
Q 78.55 616.4748046875 78.55 608 78.6 522.95 78.75 440.25 78.75 432.55 78.75 424.95
L 78.55 424.95
Q 78.5541015625 416.462890625 78.55 408 78.6126953125 322.95703125 78.75 240.25 78.75 232.540625 78.75 224.95 78.75 199.5583984375 78.75 175.5 100.5 162 101.5 161.5 113.5 153.75 122 146.5 127 142.25 134.5 134.75 140.75 128.5 146 122.25 153.5 113.5 161.25 101.75 162.25 100 175 79 184.525 79 194.05 79 195.025 79 196 79
L 206 79
Q 306.0369140625 78.875390625 408 78.8 411.02421875 78.8201171875 414.05 78.8
L 414.05 79
Q 415.05 79 416 79
L 426 79
Q 526.05 78.9 628 78.85 636.025 78.8150390625 644.05 78.8
L 644.05 79
Q 645.05 79 646 79
L 656 79
Q 724.5783203125 78.9314453125 794.05 78.85
L 794.05 79
Q 795.05 79 796 79
L 806 79
Q 883.948828125 78.9220703125 963.05 78.85
L 963.05 79
Q 964.05 79 965 79
L 975 79
Q 1075.05 78.9 1177 78.85
M 1200 38.75
L 1200 0 109.25 0
Q 105.5 50.75 77.75 78 50.75 105.5 0 109.25
L 0 1200 38.5 1199.95
Q 38.5 1189.95 38.5 1179.95 38.5 1103.45 38.5 1027.95 38.5 1019.95 38.5 1012.2 38.5 1005.0568359375 38.5 998 38.5 997.449609375 38.5 996.9 38.5 987.45 38.5 978 38.5 902.51328125 38.5 828 38.5 827 38.5 826
L 38.5 810.25
Q 38.5 809.123828125 38.5 808 38.5 801.4712890625 38.5 794.95 38.5 725.056640625 38.5 656 38.5 648 38.5 640.25 38.5 634.0927734375 38.5 628 38.5 626.475 38.5 624.95 38.5 616.475 38.5 608 38.5 531.5 38.5 456 38.5 448 38.5 440.25 38.5 434.0927734375 38.5 428 38.5 426.4748046875 38.5 424.95 38.5 416.469140625 38.5 408 38.5 331.5248046875 38.5 256 38.5 248 38.5 240.25 38.5 232.565234375 38.5 224.95 38.5 184.753125 38.5 146.5 53.5 139.75 60.25 136.5 72 131 80.25 125.5 93.75 116.5 104.5 105 104.75 105 104.75 104.75 117 93.25 125.25 80.5 130.75 72 136.25 60.5 138 56.75 146 38.75
L 1200 38.75 Z"/>
</g>
</g>
</g>
</g>
</svg>
