
<svg xmlns="http://www.w3.org/2000/svg" version="1.1" xmlns:xlink="http://www.w3.org/1999/xlink" preserveAspectRatio="none" x="0px" y="0px" width="6400px" height="6400px" viewBox="0 0 6400 6400">
<defs/>

<g id="Layer_1">
<g>
<g>
<g>
<path fill="#CA9845" stroke="none" d="
M 6410 38.75
L 6410 0 109.25 0
Q 105.5 50.75 77.75 78 50.75 105.5 0 109.25
L 0 6410 38.5 6409.95
Q 38.5 6399.95 38.5 6389.95 38.5 6313.45 38.5 6237.95 38.5 6229.95 38.5 6222.2 38.5 6215.05 38.5 6208 38.5 6207.45 38.5 6206.9 38.5 6197.45 38.5 6188 38.5 6112.5 38.5 6038 38.5 6037 38.5 6036
L 38.5 6020.25
Q 38.5 6019.1 38.5 6018 38.5 6011.45 38.5 6004.95 38.5 5935.05 38.5 5866 38.5 5858 38.5 5850.25 38.5 5844.1 38.5 5838 38.5 5836.5 38.5 5834.95 38.5 5826.5 38.5 5818 38.5 5741.5 38.5 5666 38.5 5658 38.5 5650.25 38.5 5644.1 38.5 5638 38.5 5636.45 38.5 5634.95 38.5 5626.45 38.5 5618 38.5 5553.6 38.5 5489.95 38.5 5479.95 38.5 5469.95 38.5 5467.95 38.5 5466
L 38.5 5370.65
Q 38.5 5344.25 38.5 5317.95 38.5 5309.95 38.5 5302.2 38.5 5295.05 38.5 5288 38.5 5287.45 38.5 5286.9 38.5 5277.45 38.5 5268 38.5 5192.5 38.5 5118 38.5 5117 38.5 5116
L 38.5 5100.25
Q 38.5 5099.1 38.5 5098 38.5 5091.45 38.5 5084.95 38.5 5015.05 38.5 4946 38.5 4938 38.5 4930.25 38.5 4924.1 38.5 4918 38.5 4916.5 38.5 4914.95 38.5 4906.5 38.5 4898 38.5 4848.7681640625 38.5 4799.95
L 38.5 4779.95
Q 38.5 4762.9505859375 38.5 4746
L 38.5 4718
Q 38.5 4716.45 38.5 4714.95 38.5 4706.45 38.5 4698
L 38.5 4627.95
Q 38.5 4619.95 38.5 4612.2 38.5 4605.05 38.5 4598
L 38.5 4596.9
Q 38.5 4587.45 38.5 4578 38.5 4573.9736328125 38.5 4569.95
L 38.5 4549.95
Q 38.5 4547.95 38.5 4546
L 38.5 4530.1
Q 38.5 4490.25 38.5 4450.65
L 38.5 4428
Q 38.5 4427 38.5 4426
L 38.5 4410.25
Q 38.5 4409.1 38.5 4408 38.5 4402.9732421875 38.5 4397.95
L 38.5 4394.95
Q 38.5 4388.492578125 38.5 4382.2
L 38.5 4368
Q 38.5 4367.45 38.5 4366.9 38.5 4357.45 38.5 4348
L 38.5 4256
Q 38.5 4248 38.5 4240.25 38.5 4234.1 38.5 4228 38.5 4226.5 38.5 4224.95 38.5 4216.5 38.5 4208
L 38.5 4198
Q 38.5 4197 38.5 4196
L 38.5 4178
Q 38.5 4171.45 38.5 4164.95
L 38.5 4059.55
Q 38.5 4057.77421875 38.5 4056 38.5 4048 38.5 4040.25 38.5 4034.1 38.5 4028 38.5 4026.45 38.5 4024.95 38.5 4016.45 38.5 4008 38.5 3943.6 38.5 3879.95 38.5 3869.95 38.5 3859.95 38.5 3857.95 38.5 3856
L 38.5 3760.65
Q 38.5 3734.239453125 38.5 3707.95 38.5 3699.95 38.5 3692.2 38.5 3685.05 38.5 3678 38.5 3677.45 38.5 3676.9 38.5 3667.45 38.5 3658 38.5 3582.5 38.5 3508 38.5 3507 38.5 3506
L 38.5 3490.25
Q 38.5 3489.1 38.5 3488 38.5 3481.45 38.5 3474.95 38.5 3405.05 38.5 3336 38.5 3328 38.5 3320.25 38.5 3314.1 38.5 3308 38.5 3306.5 38.5 3304.95 38.5 3296.5 38.5 3288 38.5 3211.5 38.5 3136 38.5 3128 38.5 3120.25 38.5 3114.1 38.5 3108 38.5 3106.45 38.5 3104.95 38.5 3096.45 38.5 3088 38.5 3023.6 38.5 2959.95
L 38.5 2939.95
Q 38.5 2937.95 38.5 2936
L 38.5 2920.1
Q 38.5 2880.2396484375 38.5 2840.65 38.5 2814.2396484375 38.5 2787.95 38.5 2779.95 38.5 2772.2 38.5 2765.05 38.5 2758 38.5 2757.45 38.5 2756.9 38.5 2747.45 38.5 2738 38.5 2662.5 38.5 2588 38.5 2587 38.5 2586
L 38.5 2570.25
Q 38.5 2569.1 38.5 2568 38.5 2561.45 38.5 2554.95 38.5 2502.006640625 38.5 2449.55 38.5 2432.750390625 38.5 2416 38.5 2408 38.5 2400.25 38.5 2394.1 38.5 2388 38.5 2386.5 38.5 2384.95 38.5 2376.5 38.5 2368 38.5 2291.5 38.5 2216 38.5 2208 38.5 2200.25 38.5 2194.1 38.5 2188 38.5 2186.45 38.5 2184.95 38.5 2176.45 38.5 2168 38.5 2143.92890625 38.5 2119.95 38.5 2109.95 38.5 2099.95
L 38.5 2068.1
Q 38.5 2007.7119140625 38.5 1947.95 38.5 1939.95 38.5 1932.2 38.5 1925.05 38.5 1918 38.5 1917.45 38.5 1916.9 38.5 1907.45 38.5 1898 38.5 1822.5 38.5 1748 38.5 1747 38.5 1746
L 38.5 1730.25
Q 38.5 1729.1 38.5 1728 38.5 1721.45 38.5 1714.95 38.5 1645.05 38.5 1576 38.5 1568 38.5 1560.25 38.5 1554.1 38.5 1548 38.5 1546.5 38.5 1544.95 38.5 1536.5 38.5 1528 38.5 1451.5 38.5 1376 38.5 1368 38.5 1360.25 38.5 1354.1 38.5 1348 38.5 1346.45 38.5 1344.95 38.5 1336.45 38.5 1328 38.5 1263.6212890625 38.5 1199.95
L 38.5 1179.95
Q 38.5 1177.9748046875 38.5 1176
L 38.5 1160.1
Q 38.5 1093.64609375 38.5 1027.95 38.5 1019.95 38.5 1012.2 38.5 1005.0568359375 38.5 998 38.5 997.449609375 38.5 996.9 38.5 987.45 38.5 978 38.5 902.51328125 38.5 828 38.5 827 38.5 826
L 38.5 810.25
Q 38.5 809.123828125 38.5 808 38.5 801.4712890625 38.5 794.95 38.5 725.056640625 38.5 656 38.5 648 38.5 640.25 38.5 634.0927734375 38.5 628 38.5 626.475 38.5 624.95 38.5 616.475 38.5 608 38.5 531.5 38.5 456 38.5 448 38.5 440.25 38.5 434.0927734375 38.5 428 38.5 426.4748046875 38.5 424.95 38.5 416.469140625 38.5 408 38.5 357.8458984375 38.5 308.1 38.5 281.9939453125 38.5 256 38.5 248 38.5 240.25 38.5 240.175 38.5 240.1 38.5 232.4908203125 38.5 224.95 38.5 184.753125 38.5 146.5 53.5 139.75 60.25 136.5 72 131 80.25 125.5 93.75 116.5 104.5 105 104.75 105 104.75 104.75 117 93.25 125.25 80.5 130.75 72 136.25 60.5 138 56.75 146 38.75
L 6410 38.75
M 5173.05 79
Q 5173.55 79 5174.05 79
L 5185 79
Q 5185.5 79 5186 79 5254.6 78.95 5324.05 78.9
L 5324.05 79
Q 5325.05 79 5326 79
L 5336 79
Q 5360.95 78.95 5386.05 78.95
L 5386.05 79
Q 5395.05 79 5404.05 79 5405.05 79 5406 79
L 5416 79
Q 5454.4 78.95 5493.05 78.95
L 5493.05 79
Q 5494.05 79 5495 79
L 5505 79
Q 5564.2 78.95 5624.05 78.9
L 5624.05 79
Q 5625.05 79 5626 79
L 5636 79
Q 5736.05 78.9 5838 78.85 5846.05 78.8 5854.05 78.8
L 5854.05 79
Q 5855.05 79 5856 79
L 5866 79
Q 5934.6 78.95 6004.05 78.9
L 6004.05 79
Q 6005.05 79 6006 79
L 6016 79
Q 6093.95 78.9 6173.05 78.9
L 6173.05 79
Q 6174.05 79 6175 79
L 6185 79
Q 6285.05 78.9 6387 78.85 6398.5 78.8 6410 78.8
L 6410 59.5 162.25 59.5
Q 145.5 99 121.75 122
L 121.5 121.75
Q 98.75 145.75 59.5 162.5
L 59.5 6410 78.55 6410
Q 78.55 6400 78.55 6390 78.6 6304.95 78.75 6222.25 78.75 6214.55 78.75 6206.95
L 78.55 6206.95
Q 78.55 6197.5 78.55 6188 78.6 6102.95 78.75 6020.25 78.75 6012.55 78.75 6004.95
L 78.55 6004.95
Q 78.6 5926.6 78.75 5850.25 78.75 5842.55 78.75 5834.95
L 78.55 5834.95
Q 78.55 5826.45 78.55 5818 78.6 5732.95 78.75 5650.25 78.75 5642.55 78.75 5634.95
L 78.55 5634.95
Q 78.55 5626.45 78.55 5618 78.6 5532.95 78.75 5450.25 78.75 5450.2 78.75 5450.1
L 78.6 5450.1
Q 78.6 5448.85 78.6 5447.6 78.6 5408.85 78.65 5370.65 78.7 5336.25 78.75 5302.25 78.75 5294.55 78.75 5286.95
L 78.55 5286.95
Q 78.55 5277.5 78.55 5268 78.6 5182.95 78.75 5100.25 78.75 5092.55 78.75 5084.95
L 78.55 5084.95
Q 78.6 5006.6 78.75 4930.25 78.75 4922.55 78.75 4914.95
L 78.55 4914.95
Q 78.55 4906.45 78.55 4898 78.6 4812.95 78.75 4730.25 78.75 4722.55 78.75 4714.95
L 78.6 4714.95
Q 78.6576171875 4663.155078125 78.75 4612.25 78.75 4604.55 78.75 4596.95
L 78.65 4596.95
Q 78.68984375 4563.4115234375 78.75 4530.25 78.75 4530.2 78.75 4530.1
L 78.6 4530.1
Q 78.59609375 4522.1037109375 78.6 4514.1 78.621484375 4483.214453125 78.65 4452.6 78.71171875 4431.3607421875 78.75 4410.25 78.75 4402.55 78.75 4394.95
L 78.7 4394.95
Q 78.740625 4388.5927734375 78.75 4382.25 78.75 4374.55 78.75 4366.95
L 78.55 4366.95
Q 78.626953125 4302.9263671875 78.75 4240.25 78.75 4232.55 78.75 4224.95
L 78.65 4224.95
Q 78.7095703125 4202.5150390625 78.75 4180.25 78.75 4172.55 78.75 4164.95
L 78.55 4164.95
Q 78.6380859375 4101.945703125 78.75 4040.25 78.75 4032.55 78.75 4024.95
L 78.55 4024.95
Q 78.55 4016.45 78.55 4008 78.6 3922.95 78.75 3840.25 78.75 3840.2 78.75 3840.1
L 78.6 3840.1
Q 78.6 3838.85 78.55 3837.6 78.5984375 3798.873828125 78.65 3760.65 78.68828125 3726.251953125 78.75 3692.25 78.75 3684.55 78.75 3676.95
L 78.55 3676.95
Q 78.55 3667.5 78.55 3658 78.6 3572.95 78.75 3490.25 78.75 3482.55 78.75 3474.95
L 78.55 3474.95
Q 78.6 3396.6 78.75 3320.25 78.75 3312.55 78.75 3304.95
L 78.55 3304.95
Q 78.55 3296.45 78.55 3288 78.6 3202.95 78.75 3120.25 78.75 3112.55 78.75 3104.95
L 78.55 3104.95
Q 78.55 3096.45 78.55 3088 78.6 3002.95 78.75 2920.25 78.75 2920.2 78.75 2920.1
L 78.6 2920.1
Q 78.6 2880.1109375 78.65 2840.65 78.680078125 2806.24921875 78.75 2772.25 78.75 2764.55 78.75 2756.95
L 78.55 2756.95
Q 78.55 2747.5 78.55 2738 78.6 2652.95 78.75 2570.25 78.75 2562.55 78.75 2554.95
L 78.55 2554.95
Q 78.583984375 2501.7896484375 78.65 2449.55 78.7017578125 2424.7966796875 78.75 2400.25 78.75 2392.55 78.75 2384.95
L 78.55 2384.95
Q 78.55 2376.45 78.55 2368 78.6 2282.95 78.75 2200.25 78.75 2192.55 78.75 2184.95
L 78.55 2184.95
Q 78.55 2176.45 78.55 2168 78.6 2117.65 78.65 2068.1
L 78.55 2068.1
Q 78.628125 1999.40078125 78.75 1932.25 78.75 1924.55 78.75 1916.95
L 78.55 1916.95
Q 78.55 1907.5 78.55 1898 78.6 1812.95 78.75 1730.25 78.75 1722.55 78.75 1714.95
L 78.55 1714.95
Q 78.6 1636.6 78.75 1560.25 78.75 1552.55 78.75 1544.95
L 78.55 1544.95
Q 78.55 1536.45 78.55 1528 78.6 1442.95 78.75 1360.25 78.75 1352.55 78.75 1344.95
L 78.55 1344.95
Q 78.55 1336.45 78.55 1328 78.6 1242.95 78.75 1160.25 78.75 1160.2 78.75 1160.1
L 78.55 1160.1
Q 78.617578125 1085.25859375 78.75 1012.25 78.75 1004.55 78.75 996.95
L 78.55 996.95
Q 78.55 987.475 78.55 978 78.6 892.95 78.75 810.25 78.75 802.55 78.75 794.95
L 78.55 794.95
Q 78.6115234375 716.598828125 78.75 640.25 78.75 632.55 78.75 624.95
L 78.55 624.95
Q 78.55 616.4748046875 78.55 608 78.6 522.95 78.75 440.25 78.75 432.55 78.75 424.95
L 78.55 424.95
Q 78.5541015625 416.462890625 78.55 408 78.587109375 357.640625 78.65 308.1 78.6939453125 273.9810546875 78.75 240.25 78.75 240.175 78.75 240.1 78.75 232.466796875 78.75 224.95 78.75 199.5583984375 78.75 175.5 100.5 162 101.5 161.5 113.5 153.75 122 146.5 127 142.25 134.5 134.75 140.75 128.5 146 122.25 153.5 113.5 161.25 101.75 162.25 100 175 79 175.5251953125 79 176.05 79 185.0501953125 79 194.05 79 195.025 79 196 79
L 206 79
Q 223.0228515625 78.9787109375 240.1 78.95 323.3875 78.866796875 408 78.8 411.02421875 78.8201171875 414.05 78.8
L 414.05 79
Q 415.05 79 416 79
L 426 79
Q 526.05 78.9 628 78.85 636.025 78.8150390625 644.05 78.8
L 644.05 79
Q 645.05 79 646 79
L 656 79
Q 724.5783203125 78.9314453125 794.05 78.85
L 794.05 79
Q 795.05 79 796 79
L 806 79
Q 840.61171875 78.9654296875 875.45 78.9 919.072265625 78.901171875 963.05 78.85
L 963.05 79
Q 964.05 79 965 79
L 975 79
Q 1074.584375 78.900390625 1176.05 78.85
L 1176.05 79
Q 1185.05 79 1194.05 79 1195.05 79 1196 79
L 1206 79
Q 1306.05 78.9 1408 78.85 1411 78.8 1414.05 78.85
L 1414.05 79
Q 1415.05 79 1416 79
L 1426 79
Q 1526.05 78.9 1628 78.85 1636.05 78.8 1644.05 78.8
L 1644.05 79
Q 1645.05 79 1646 79
L 1656 79
Q 1682.163671875 78.980859375 1708.45 78.95 1751.0876953125 78.930859375 1794.05 78.9
L 1794.05 79
Q 1795.05 79 1796 79
L 1806 79
Q 1883.95 78.9 1963.05 78.9
L 1963.05 79
Q 1964.05 79 1965 79
L 1975 79
Q 2066.751171875 78.908203125 2160.1 78.85
L 2160.1 78.95
Q 2243.4 78.85 2328 78.85 2331 78.8 2334.05 78.85
L 2334.05 79
Q 2335.05 79 2336 79
L 2346 79
Q 2367.179296875 78.97890625 2388.45 78.95
L 2388.45 78.95
Q 2394.74375 78.9525390625 2401 78.95 2437.4197265625 78.9302734375 2474.05 78.9
L 2474.05 79
Q 2475.05 79 2476 79
L 2486 79
Q 2524.8822265625 78.9501953125 2564.05 78.9
L 2564.05 79
Q 2565.05 79 2566 79
L 2585 79
Q 2601.9439453125 78.9826171875 2618.9 78.95 2621.7013671875 78.97578125 2624.45 78.95 2633.754296875 78.95703125 2643.05 78.95
L 2643.05 79
Q 2644.05 79 2645 79
L 2655 79
Q 2684.441796875 78.96796875 2714.05 78.95
L 2714.05 79
Q 2715.05 79 2716 79
L 2726 79
Q 2755.9396484375 78.9615234375 2786.05 78.9
L 2786.05 79
Q 2795.05 79 2804.05 79 2805.05 79 2806 79
L 2816 79
Q 2849.4181640625 78.9666015625 2883.05 78.95
L 2883.05 79
Q 2884.05 79 2885 79
L 2895 79
Q 2954.1982421875 78.940625 3014.05 78.9
L 3014.05 79
Q 3015.05 79 3016 79
L 3026 79
Q 3030.9921875 78.9974609375 3035.95 79
L 3036 79
Q 3065.00703125 78.9658203125 3094.15 78.95 3095.108984375 78.9505859375 3096.05 78.95
L 3096.05 79
Q 3105.05 79 3114.05 79 3115.05 79 3116 79
L 3126 79
Q 3184.6978515625 78.94140625 3244.05 78.9
L 3244.05 79
Q 3245.05 79 3246 79
L 3256 79
Q 3260.9921875 78.998046875 3265.95 79
L 3266 79
Q 3288.4654296875 79 3311.05 78.95 3314.7443359375 78.95703125 3318.45 78.95
L 3318.45 78.95
Q 3326.250390625 78.9521484375 3334.05 78.95
L 3334.05 79
Q 3335.05 79 3336 79
L 3346 79
Q 3369.9697265625 78.9759765625 3394.05 78.95
L 3394.05 79
Q 3395.05 79 3396 79
L 3416 79
Q 3489.0294921875 78.903125 3563.05 78.9
L 3563.05 79
Q 3563.5564453125 79 3564.05 79
L 3575 79
Q 3575.5 78.9994140625 3576 79 3580.49296875 78.998046875 3585 79 3602.8708984375 78.98046875 3620.8 78.95
L 3714.05 78.9 3714.05 79
Q 3715.05 79 3716 79
L 3726 79
Q 3748.0041015625 78.9716796875 3770.1 78.95
L 3776.05 78.95 3776.05 79
Q 3785.05 79 3794.05 79 3795.05 79 3796 79
L 3806 79
Q 3844.384375 78.96171875 3883.05 78.9
L 3883.05 79
Q 3884.05 79 3885 79
L 3895 79
Q 3919.46796875 78.9755859375 3944.05 78.95
L 3944.05 79
Q 3945.05 79 3946 79
L 3956 79
Q 3977.2 79 3998.45 78.95
L 3998.5 78.95
Q 4004.75 78.95 4011.05 78.95 4012.5498046875 78.95 4014.05 78.95
L 4014.05 79
Q 4015.05 79 4016 79
L 4026 79
Q 4054.9451171875 78.97109375 4084.05 78.95
L 4084.05 79
Q 4085.05 79 4086 79
L 4096 79
Q 4134.9 78.95 4174.05 78.95
L 4174.05 79
Q 4175.05 79 4176 79
L 4186 79
Q 4214.930859375 79 4244.05 78.95
L 4244.05 79
Q 4245.05 79 4246 79
L 4265 79
Q 4268.9228515625 78.9970703125 4272.85 79 4298.38828125 78.9689453125 4324.05 78.95
L 4324.05 79
Q 4325.05 79 4326 79
L 4336 79
Q 4364.946484375 78.9744140625 4394.05 78.95
L 4394.05 79
Q 4395.05 79 4396 79
L 4406 79
Q 4428.00390625 78.9716796875 4450.1 78.95 4452.77421875 78.951953125 4455.45 78.95 4473.0603515625 78.93046875 4490.7 78.9 4491.2875 78.9220703125 4491.85 78.9 4492.4625 78.925390625 4493.05 78.9
L 4493.05 79
Q 4494.05 79 4495 79
L 4505 79
Q 4533.946875 78.9755859375 4563.05 78.95
L 4563.05 79
Q 4564.05 79 4565 79
L 4575 79
Q 4599.467578125 78.9755859375 4624.05 78.95
L 4624.05 79
Q 4625.05 79 4626 79
L 4636 79
Q 4670.9 78.95 4706.05 78.95
L 4706.05 79
Q 4715.05 79 4724.05 79 4725.05 79 4726 79
L 4736 79
Q 4794.7 78.95 4854.05 78.9
L 4854.05 79
Q 4855.05 79 4856 79
L 4866 79
Q 4904.9 78.95 4944.05 78.95
L 4944.05 79
Q 4945.05 79 4946 79
L 4956 79
Q 4979.95 79 5004.05 78.95
L 5004.05 79
Q 5005.05 79 5006 79
L 5016 79
Q 5093.95 78.9 5173.05 78.9
L 5173.05 79 Z"/>
</g>
</g>
</g>
</g>
</svg>
