
<svg xmlns="http://www.w3.org/2000/svg" version="1.1" xmlns:xlink="http://www.w3.org/1999/xlink" preserveAspectRatio="none" x="0px" y="0px" width="400px" height="400px" viewBox="0 0 400 400">
<defs>
<g id="Layer0_0_FILL">
<path fill="#000000" stroke="none" d="
M 325.9 119.25
Q 326 116.75 325.4 114.25 324.9 112.3 323.65 110.85 322.4 109.45 320.55 108.75 318.3 107.85 315.8 107.5 309.75 106.75 304.2 104.3 298.6 101.8 293.95 97.8 289.45 93.65 286.4 88.3 283.35 82.95 282 76.95 281.1 73.15 279.95 69.75 279.3 67.5 277.65 65.85 275.9 64.4 273.65 64
L 266.45 62.8 264.7 48.95
Q 263.6 41.9 260.8 35.25 258.05 28.65 253.75 22.9 249.25 17.3 243.5 13 237.7 8.75 231.05 6.1 219.25 1.15 206.5 0.15 193.7 -0.9 181.25 2.05 172.75 3.7 165 7.65 157.25 11.55 150.9 17.5 144.75 23.7 140.75 31.4 136.75 39.2 135.2 47.75 133.95 55.25 133.25 63.3
L 131.2 63.45
Q 130.4 63.55 129.5 63.5 127.15 63.15 124.85 63.55 123 63.9 121.55 65.1 120.05 66.45 119.4 68.2 118.5 70.5 118.2 72.95 117.5 79.7 114.6 85.8 111.75 91.95 107 96.8 102.3 101.3 96.35 103.85 89.65 106.75 82.35 107.8 80.25 108.05 78.25 108.9 76.75 109.55 75.6 110.85 74.55 112.25 74.2 113.85 73.75 116 73.85 118.05
L 73.9 400.05 325.95 400.05 325.9 119.25 Z"/>
</g>

<path id="Layer0_0_1_STROKES" stroke="#000000" stroke-width="0.7" stroke-linejoin="round" stroke-linecap="round" fill="none" d="
M 325.95 400.05
L 73.9 400.05 73.85 118.05
Q 73.75 116 74.2 113.85 74.55 112.25 75.6 110.85 76.75 109.55 78.25 108.9 80.25 108.05 82.35 107.8 89.65 106.75 96.35 103.85 102.3 101.3 107 96.8 111.75 91.95 114.6 85.8 117.5 79.7 118.2 72.95 118.5 70.5 119.4 68.2 120.05 66.45 121.55 65.1 123 63.9 124.85 63.55 127.15 63.15 129.5 63.5 130.4 63.55 131.2 63.45
L 133.25 63.3
Q 133.95 55.25 135.2 47.75 136.75 39.2 140.75 31.4 144.75 23.7 150.9 17.5 157.25 11.55 165 7.65 172.75 3.7 181.25 2.05 193.7 -0.9 206.5 0.15 219.25 1.15 231.05 6.1 237.7 8.75 243.5 13 249.25 17.3 253.75 22.9 258.05 28.65 260.8 35.25 263.6 41.9 264.7 48.95
L 266.45 62.8 273.65 64
Q 275.9 64.4 277.65 65.85 279.3 67.5 279.95 69.75 281.1 73.15 282 76.95 283.35 82.95 286.4 88.3 289.45 93.65 293.95 97.8 298.6 101.8 304.2 104.3 309.75 106.75 315.8 107.5 318.3 107.85 320.55 108.75 322.4 109.45 323.65 110.85 324.9 112.3 325.4 114.25 326 116.75 325.9 119.25
L 325.95 400.05 Z"/>
</defs>

<g transform="matrix( 1, 0, 0, 1, 0,0) ">
<use xlink:href="#Layer0_0_FILL"/>

<use xlink:href="#Layer0_0_1_STROKES"/>
</g>
</svg>
