<?xml version="1.0" encoding="iso-8859-1"?>
<!-- Uploaded to: SVG Repo, www.svgrepo.com, Generator: SVG Repo Mixer Tools -->
<svg fill="#000000" height="800px" width="800px" version="1.1" id="Layer_1" xmlns="http://www.w3.org/2000/svg" xmlns:xlink="http://www.w3.org/1999/xlink" 
	 viewBox="0 0 512 512" xml:space="preserve">
<g>
	<g>
		<path d="M162.133,0c-5.12,0-8.533,4.267-8.533,8.533v230.4c0,2.56,0.853,5.12,2.56,5.973l57.173,51.2V0H162.133z"/>
	</g>
</g>
<g>
	<g>
		<path d="M349.867,0h-51.2v296.107l57.173-50.347c1.707-1.707,2.56-4.267,2.56-5.973V8.533C358.4,4.267,354.987,0,349.867,0z"/>
	</g>
</g>
<g>
	<g>
		<path d="M274.773,391.68c-3.413,0.853-5.973,0-7.68-1.707c-1.707-1.707-2.56-3.413-2.56-5.973
			c0.853-12.8,2.56-27.307,5.973-41.813H240.64c3.413,14.507,5.12,29.013,5.973,41.813c0,2.56-0.853,5.12-2.56,6.827
			s-4.267,2.56-6.827,2.56c-11.947-0.853-23.893-3.413-35.84-5.12l-5.12-2.56v30.72l5.973-0.853
			c11.093-2.56,23.893-4.267,35.84-5.12c2.56,0,5.12,0.853,6.827,2.56s2.56,4.267,2.56,6.827c-0.853,11.947-3.413,24.747-5.12,35.84
			l-1.707,5.12h30.72l-0.853-5.973c-2.56-11.093-4.267-23.893-5.12-35.84c0-2.56,0.853-5.12,2.56-6.827s4.267-2.56,6.827-2.56
			c12.8,0.853,27.307,2.56,41.813,5.973v-29.867C301.227,389.12,287.573,390.827,274.773,391.68z"/>
	</g>
</g>
<g>
	<g>
		<path d="M281.6,293.547V0h-51.2v293.547c-48.64,11.947-85.333,55.467-85.333,107.52C145.067,462.507,194.56,512,256,512
			s110.933-49.493,110.933-110.933C366.933,349.013,330.24,305.493,281.6,293.547z M332.8,426.667c0,2.56-0.853,5.12-3.413,6.827
			c-1.707,1.707-5.12,2.56-7.68,1.707L320,434.347c-12.8-3.413-25.6-5.973-37.547-6.827c0.853,7.68,2.56,16.213,4.267,23.893
			l3.413,16.213c0.853,2.56,0,5.12-1.707,6.827c-1.707,2.56-4.267,3.413-6.827,3.413h-51.2c-2.56,0-5.12-0.853-6.827-3.413
			c-1.707-1.707-1.707-4.267-1.707-6.827l3.413-16.213c1.707-6.827,2.56-15.36,4.267-23.04c-7.68,0.853-16.213,2.56-23.04,4.267
			l-17.067,2.56c-2.56,0.853-5.12,0-6.827-1.707c-2.56-1.707-3.413-4.267-3.413-6.827v-51.2c0-2.56,0.853-5.12,3.413-6.827
			s4.267-1.707,6.827-1.707l16.213,3.413c7.68,1.707,16.213,3.413,23.893,4.267c-1.707-11.947-3.413-24.747-6.827-37.547
			l-0.853-1.707c0-2.56,0-5.12,1.707-7.68c1.707-1.707,4.267-3.413,6.827-3.413h51.2c2.56,0,5.12,0.853,6.827,3.413
			c1.707,2.56,1.707,5.12,1.707,7.68l-0.853,1.707c-3.413,13.653-5.973,25.6-6.827,37.547C294.4,372.907,307.2,371.2,320,367.787
			l1.707-0.853c2.56-0.853,5.12,0,7.68,1.707c1.707,1.707,3.413,4.267,3.413,6.827V426.667z"/>
	</g>
</g>
</svg>