
<svg xmlns="http://www.w3.org/2000/svg" version="1.1" xmlns:xlink="http://www.w3.org/1999/xlink" preserveAspectRatio="none" x="0px" y="0px" width="400px" height="400px" viewBox="0 0 400 400">
<defs>
<g id="Layer0_0_FILL">
<path fill="#000000" stroke="none" d="
M 352.75 124.8
Q 349 114.9 341.05 108 333 101.2 322.7 98.8 310.5 95.95 297.9 96.9
L 297.9 78.35 284.7 78.2
Q 282.85 78.1 281.35 77.05 280 75.75 279.65 73.95
L 278.4 67.95
Q 274.25 43.55 257.1 25.7 239.95 7.85 215.8 2.75 204.4 0.35 192.85 1.5 181.25 2.65 170.6 7.2 159.55 11.8 150.25 19.35 140.95 26.9 134.1 36.75 127.85 45.95 124.65 56.45 121.4 67.2 119.95 78.35
L 101.7 78.35 101.7 96.95
Q 90.05 96.25 78.6 98.45 73 99.6 67.85 102.15 62.8 104.65 58.45 108.4 54.2 112.2 51.1 116.9 48 121.7 46.25 127.1 42.9 137.95 42.4 149.3
L 27.3 150 27.3 398.9 372.7 398.9 372.7 149.65 357.5 149.65
Q 357.25 136.85 352.75 124.8 Z"/>
</g>

<path id="Layer0_0_1_STROKES" stroke="#000000" stroke-width="0.7" stroke-linejoin="round" stroke-linecap="round" fill="none" d="
M 27.3 398.9
L 27.3 150 42.4 149.3
Q 42.9 137.95 46.25 127.1 48 121.7 51.1 116.9 54.2 112.2 58.45 108.4 62.8 104.65 67.85 102.15 73 99.6 78.6 98.45 90.05 96.25 101.7 96.95
L 101.7 78.35 119.95 78.35
Q 121.4 67.2 124.65 56.45 127.85 45.95 134.1 36.75 140.95 26.9 150.25 19.35 159.55 11.8 170.6 7.2 181.25 2.65 192.85 1.5 204.4 0.35 215.8 2.75 239.95 7.85 257.1 25.7 274.25 43.55 278.4 67.95
L 279.65 73.95
Q 280 75.75 281.35 77.05 282.85 78.1 284.7 78.2
L 297.9 78.35 297.9 96.9
Q 310.5 95.95 322.7 98.8 333 101.2 341.05 108 349 114.9 352.75 124.8 357.25 136.85 357.5 149.65
L 372.7 149.65 372.7 398.9 27.3 398.9 Z"/>
</defs>

<g transform="matrix( 1, 0, 0, 1, 0,0) ">
<use xlink:href="#Layer0_0_FILL"/>

<use xlink:href="#Layer0_0_1_STROKES"/>
</g>
</svg>
