
<svg xmlns="http://www.w3.org/2000/svg" version="1.1" xmlns:xlink="http://www.w3.org/1999/xlink" preserveAspectRatio="none" x="0px" y="0px" width="400px" height="400px" viewBox="0 0 400 400">
<defs>
<g id="Layer0_0_FILL">
<path fill="#000000" stroke="none" d="
M 274.35 35.85
Q 263.85 21.7 248.55 13.1 230.3 3.05 209.6 1 188.9 -1 169.05 5.3 158.85 8.55 149.75 14.1 140.65 19.65 133.15 27.2 124.85 35.8 119.05 46.2 113.15 56.65 110.2 68.2 109.85 69.5 109.2 70.65 108.7 71.6 107.8 72.25 107 72.85 105.9 73.1 104.65 73.3 103.3 73.25
L 78.65 73.2 78.65 399.55 321.35 399.55 321.35 73.2
Q 310.1 72.9 298.15 73.3 296.5 73.4 294.75 73.1 293.45 72.85 292.35 72 291.3 71.1 290.7 69.9 289.85 68.4 289.4 66.7 284.65 50 274.35 35.85 Z"/>
</g>

<path id="Layer0_0_1_STROKES" stroke="#000000" stroke-width="0.7" stroke-linejoin="round" stroke-linecap="round" fill="none" d="
M 321.35 73.2
L 321.35 399.55 78.65 399.55 78.65 73.2 103.3 73.25
Q 104.65 73.3 105.9 73.1 107 72.85 107.8 72.25 108.7 71.6 109.2 70.65 109.85 69.5 110.2 68.2 113.15 56.65 119.05 46.2 124.85 35.8 133.15 27.2 140.65 19.65 149.75 14.1 158.85 8.55 169.05 5.3 188.9 -1 209.6 1 230.3 3.05 248.55 13.1 263.85 21.7 274.35 35.85 284.65 50 289.4 66.7 289.85 68.4 290.7 69.9 291.3 71.1 292.35 72 293.45 72.85 294.75 73.1 296.5 73.4 298.15 73.3 310.1 72.9 321.35 73.2 Z"/>
</defs>

<g transform="matrix( 1, 0, 0, 1, 0,0) ">
<use xlink:href="#Layer0_0_FILL"/>

<use xlink:href="#Layer0_0_1_STROKES"/>
</g>
</svg>
