
<svg xmlns="http://www.w3.org/2000/svg" version="1.1" xmlns:xlink="http://www.w3.org/1999/xlink" preserveAspectRatio="none" x="0px" y="0px" width="400px" height="400px" viewBox="0 0 400 400">
<defs>
<g id="Layer0_0_FILL">
<path fill="#000000" stroke="none" d="
M 337.2 158.5
Q 337.2 143.6 331 130 324.75 116.45 313.45 106.7 281.4 77.4 251.35 49
L 200.2 1.4 197.55 3.6
Q 145 53.25 90.15 103.2 83.35 109.15 78 116.45 72.7 123.75 69.1 132.05 62.2 148.8 62.6 166.95
L 62.7 398.65 336.8 398.65 337.2 397
Q 337.4 396.4 337.4 395.85 337.6 275.1 337.2 158.5 Z"/>
</g>

<path id="Layer0_0_1_STROKES" stroke="#000000" stroke-width="0.7" stroke-linejoin="round" stroke-linecap="round" fill="none" d="
M 336.8 398.65
L 62.7 398.65 62.6 166.95
Q 62.2 148.8 69.1 132.05 72.7 123.75 78 116.45 83.35 109.15 90.15 103.2 145 53.25 197.55 3.6
L 200.2 1.4 251.35 49
Q 281.4 77.4 313.45 106.7 324.75 116.45 331 130 337.2 143.6 337.2 158.5 337.6 275.1 337.4 395.85 337.4 396.4 337.2 397
L 336.8 398.65 Z"/>
</defs>

<g transform="matrix( 1, 0, 0, 1, 0,0) ">
<use xlink:href="#Layer0_0_FILL"/>

<use xlink:href="#Layer0_0_1_STROKES"/>
</g>
</svg>
