
<svg xmlns="http://www.w3.org/2000/svg" version="1.1" xmlns:xlink="http://www.w3.org/1999/xlink" preserveAspectRatio="none" x="0px" y="0px" width="400px" height="400px" viewBox="0 0 400 400">
<defs>
<g id="Layer0_0_FILL">
<path fill="#000000" stroke="none" d="
M 196.1 22.55
Q 186.3 15.05 175 10.15 161.1 4.2 146.1 1.95 131.1 -0.25 116.05 1.35 100.1 3.05 84.8 7.9 69.5 12.75 55.5 20.55 41.5 12.75 26.2 7.9 10.9 3.05 -5.05 1.35 -20.1 -0.25 -35.1 1.95 -50.1 4.2 -64 10.15 -75.35 15 -85.1 22.55 -94.85 30.1 -102.45 39.8 -109.85 49.4 -114.95 60.45 -119.95 71.45 -122.4 83.4 -125.05 96.2 -125.1 109.25 -125.2 122.35 -122.7 135.15 -117.15 164.2 -102.05 189.4 -89.9 210.35 -73.2 228.05 -57.1 244.9 -38.3 258.5 -36.52890625 259.7787109375 -34.75 261.05 -15.9080078125 274.4490234375 4.1 286.6
L 55.5 318.3 108.9 286.6
Q 130.7 273.55 151.1 258.5 170 244.65 185.7 227.2 201.35 209.7 213.05 189.4 228.15 164.1 233.7 135.15 236.2 122.35 236.1 109.25 236.05 96.2 233.45 83.4 231 71.45 225.95 60.45 220.9 49.4 213.45 39.8 207.2009765625 31.8244140625 199.5 25.3 197.833203125 23.8921875 196.1 22.55
M 456.1 270.65
Q 446.1025390625 267.1375 436.8 262.6 418.1419921875 276.2548828125 397.95 288.35
L 343.45 320.7 291 288.35
Q 269.25 275.15 248.45 260.15 229.4 246.35 213.3 229.45 206.15 221.9 199.6 213.45 179.35 240.35 152.3 260.15 131.95 275.15 109.95 288.35
L 55.5 320.7 3 288.35
Q -17.45 275.9 -36.8 262.05 -46.6869140625 266.9828125 -57.1 270.65 -71.8 275.8 -87.3 277.3
L -103.85 277.3
Q -106.5 277.2 -109.4 277.75 -110.95 277.95 -112.1 279.1 -112.9 280.2 -112.9 281.55
L -112.95 399.15 511.95 399.15 511.9 281.55
Q 511.85 280.2 511.1 279.1 509.95 277.95 508.4 277.75 505.5 277.2 502.85 277.3
L 486.3 277.3
Q 470.85 275.8 456.1 270.65
M 521.4 83.4
Q 518.95 71.45 513.9 60.45 508.85 49.4 501.4 39.8 493.8 30.1 484.05 22.55 474.3 15 463 10.15 449.05 4.2 434.05 1.95 419.1 -0.25 404.05 1.35 388.05 3.05 372.8 7.9 357.5 12.75 343.5 20.55 329.5 12.75 314.15 7.9 298.9 3.05 282.95 1.35 267.85 -0.25 252.9 1.95 237.9 4.2 223.95 10.15 218.097265625 12.6751953125 212.65 15.9
L 202.45 22.85
Q 201.7896484375 23.4390625 201.1 24 208.85 30.6 215.1 38.55 222.65 48.35 227.8 59.6 232.95 70.85 235.45 82.95 238.1 95.95 238.15 109.25 238.2 122.5 235.7 135.55 232.95 150.1 227.7 163.9 222.4 177.75 214.85 190.45 208.4 201.55 200.9 211.75 207.35 220.15 214.75 228.05 230.85 244.9 249.65 258.5 270.15 273.3 292.05 286.6
L 343.5 318.3 396.9 286.6
Q 416.39296875 274.904296875 434.8 261.6 436.9330078125 260.06171875 439.05 258.5 458 244.65 473.65 227.2 489.3 209.7 501.05 189.4 516.1 164.2 521.7 135.15 524.15 122.35 524.1 109.25 524 96.2 521.4 83.4 Z"/>
</g>

<path id="Layer0_0_1_STROKES" stroke="#000000" stroke-width="0.7" stroke-linejoin="round" stroke-linecap="round" fill="none" d="
M 344.7411193847656 237.87745361328126
Q 346.0528658121824 236.9314491391182 347.35476303100586 235.97103118896484 359.0085388183594 227.45362777709963 368.63289718627925 216.722314453125 378.2572555541992 205.9602523803711 385.483211517334 193.47626037597655 394.7385848999023 177.97889099121093 398.18244476318364 160.11386795043944 399.6891334533691 152.24218826293946 399.6583847045898 144.18601608276367 399.5968872070313 136.16059265136718 397.99795227050777 128.28891296386718 396.4912635803223 120.93996200561523 393.38563995361324 114.17523727416992 390.2800163269043 107.37976379394532 385.698452758789 101.47600402832032 381.02464294433594 95.51074676513672 375.02863693237305 90.8676856994629 369.03263092041016 86.22462463378906 362.0834136962891 83.24199600219727 353.50451278686523 79.58289489746093 344.2798881530762 78.19920120239257 335.0860122680664 76.84625625610352 325.83063888549805 77.83021621704101 315.99103927612305 78.87567367553712 306.6126708984375 81.85830230712891 297.2035537719727 84.8409309387207 288.59390411376955 89.63773574829102 279.98425445556643 84.8409309387207 270.5443885803222 81.85830230712891 261.1660202026367 78.87567367553712 251.357169342041 77.83021621704101 242.07104721069337 76.84625625610352 232.8771713256836 78.19920120239257 223.65254669189454 79.58289489746093 215.0736457824707 83.24199600219727 211.4743606030941 84.79492792785167 208.13980293273926 86.77810211181641
L 201.86705818176267 91.06755256652832
Q 201.44558412134649 91.41443688869477 201.021467590332 91.7593994140625 205.78752365112302 95.81823425292968 209.63111724853513 100.7072853088379 214.274178314209 106.73404006958008 217.44129943847656 113.65250854492189 220.60842056274413 120.57097702026367 222.14585800170897 128.0121742248535 223.7755416870117 136.0068489074707 223.80629043579103 144.18601608276367 223.8370391845703 152.33443450927734 222.29960174560546 160.35985794067383 220.60842056274413 169.30774383544923 217.37980194091796 177.79439849853514 214.1204345703125 186.3118019104004 209.47737350463865 194.1219841003418 205.5107849121094 200.9482063293457 200.89847259521486 207.22095108032227 204.86506118774412 212.38674087524416 209.41587600708007 217.24504318237305 219.31697311401365 227.6073715209961 230.8785026550293 235.97103118896484 243.485489654541 245.07266082763672 256.95344161987305 253.2518280029297
L 288.59390411376955 272.7465347290039 321.43356781005855 253.2518280029297
Q 333.42125579118726 246.05926325917244 344.7411193847656 237.87745361328126 Z
M 344.7411193847656 237.87745361328126
Q 345.364261996746 238.19202772676945 345.9864437103271 238.4924285888672 351.6918980687857 241.28287754058837 357.84008636474607 243.44297714233397 366.91096725463865 246.61009826660157 376.4123306274414 247.53256072998047
L 386.59016647338865 247.53256072998047
Q 388.21985015869143 247.47106323242187 390.0032775878906 247.80929946899414 390.95648880004876 247.93229446411132 391.66371002197263 248.63951568603517 392.1249412536621 249.31598815917968 392.15569000244136 250.1462043762207
L 392.18643875122063 322.46726150512694 7.888576507568345 322.46726150512694 7.919325256347648 250.1462043762207
Q 7.919325256347648 249.31598815917968 8.411305236816403 248.63951568603517 9.11852645874022 247.93229446411132 10.071737670898429 247.80929946899414 11.85516510009765 247.47106323242187 13.484848785400388 247.53256072998047
L 23.662684631347652 247.53256072998047
Q 33.19479675292968 246.61009826660157 42.23492889404296 243.44297714233397 48.6387161642313 241.18774859905244 54.718920898437496 238.16956672668456 55.34903002381324 237.86183901429177 55.979619598388666 237.539217376709 54.88563677072524 236.7574064165354 53.79645843505859 235.97103118896484 42.23492889404296 227.6073715209961 32.33383178710937 217.24504318237305 22.06374969482421 206.35998611450194 14.591803741455074 193.47626037597655 5.305681610107413 177.97889099121093 1.8925704956054545 160.11386795043944 0.3551330566406108 152.24218826293946 0.4166305541992159 144.18601608276367 0.44737930297851847 136.16059265136718 2.0770629882812415 128.28891296386718 3.5837516784667827 120.93996200561523 6.65862655639647 114.17523727416992 9.794998931884763 107.37976379394532 14.345813751220696 101.47600402832032 19.019623565673825 95.51074676513672 25.015629577636716 90.8676856994629 31.011635589599607 86.22462463378906 37.991601562499994 83.24199600219727 46.53975372314453 79.58289489746093 55.76437835693359 78.19920120239257 64.98900299072265 76.84625625610352 74.244376373291 77.83021621704101 84.05322723388672 78.87567367553712 93.46234436035155 81.85830230712891 102.8714614868164 84.8409309387207 111.48111114501953 89.63773574829102 120.09076080322265 84.8409309387207 129.4998779296875 81.85830230712891 138.90899505615232 78.87567367553712 148.71784591674805 77.83021621704101 157.97321929931638 76.84625625610352 167.19784393310545 78.19920120239257 176.4224685668945 79.58289489746093 184.97062072753906 83.24199600219727 191.91983795166016 86.25537338256837 197.94659271240232 90.8676856994629 199.0124692618847 91.69309742450714 200.03750762939453 92.55886688232422 200.9402716755867 91.79495265483857 201.86705818176267 91.06755256652832
M 54.718920898437496 238.16956672668456
Q 66.61868667602539 246.67159576416014 79.1949249267578 254.3280342102051
L 111.48111114501953 274.2224746704102 144.96649856567382 254.3280342102051
Q 158.49594802856444 246.2103645324707 171.01068878173828 236.98573989868163 187.64576187133787 224.80923538208006 200.0990051269531 208.26640853881835 204.12709121704103 213.46294708251955 208.52416229248047 218.10600814819335 218.42525939941407 228.4990852355957 230.14053268432616 236.98573989868163 242.93201217651367 246.2103645324707 256.30771789550784 254.3280342102051
L 288.5631553649902 274.2224746704102 322.0792915344238 254.3280342102051
Q 334.49686143696306 246.8898398131132 345.9864437103271 238.4924285888672
M 55.979619598388666 237.539217376709
Q 67.56697328388691 245.77928148806095 79.87139739990234 253.2518280029297
L 111.48111114501953 272.7465347290039 144.3207748413086 253.2518280029297
Q 157.72722930908202 245.2264045715332 170.27271881103513 235.97103118896484 181.89574584960937 227.45362777709963 191.55085296630858 216.722314453125 201.1752113342285 205.9602523803711 208.37041854858398 193.47626037597655 217.65654067993165 177.91739349365236 221.06965179443358 160.11386795043944 222.60708923339843 152.24218826293946 222.54559173583982 144.18601608276367 222.51484298706055 136.16059265136718 220.9159080505371 128.28891296386718 219.40921936035156 120.93996200561523 216.30359573364257 114.17523727416992 213.1979721069336 107.37976379394532 208.61640853881835 101.47600402832032 204.77341550290583 96.57121826112271 200.03750762939453 92.55886688232422"/>
</defs>

<g transform="matrix( 0.6149749755859375, 0, 0, 0.6149749755859375, 77.35,77) ">
<use xlink:href="#Layer0_0_FILL"/>

<use xlink:href="#Layer0_0_1_STROKES" transform="matrix( 1.626068115234375, 0, 0, 1.626068115234375, -125.75,-125.2) "/>
</g>
</svg>
