
<svg xmlns="http://www.w3.org/2000/svg" version="1.1" xmlns:xlink="http://www.w3.org/1999/xlink" preserveAspectRatio="none" x="0px" y="0px" width="400px" height="400px" viewBox="0 0 400 400">
<defs>
<g id="Layer0_0_FILL">
<path fill="#000000" stroke="none" d="
M 305.8 53.25
Q 300.5 26.8 289.55 2.25 276.8 0.6 264.05 1.65 251.25 2.7 239 6.45 216.8 13.55 197.5 26.3 178.75 38.75 160.2 52.2 142.25 65.2 122.05 74.35 115.15 77.5 107.6 78.85 102.55 79.45 97.1 80.6 90.7 103.75 87.65 127.55 84.35 152.9 83.45 178.5 81.75 229.55 85.95 280.35 90 334.45 99.55 387.4 100.5 393.25 101.95 398.8
L 300.05 398.8
Q 311.5 322.15 315.45 244.85 319.2 179.3 314.4 114.1 312 83.3 305.8 53.25 Z"/>
</g>

<path id="Layer0_0_1_STROKES" stroke="#000000" stroke-width="0.7" stroke-linejoin="round" stroke-linecap="round" fill="none" d="
M 289.55 2.25
Q 276.8 0.6 264.05 1.65 251.25 2.7 239 6.45 216.8 13.55 197.5 26.3 178.75 38.75 160.2 52.2 142.25 65.2 122.05 74.35 115.15 77.5 107.6 78.85 102.55 79.45 97.1 80.6 90.7 103.75 87.65 127.55 84.35 152.9 83.45 178.5 81.75 229.55 85.95 280.35 90 334.45 99.55 387.4 100.5 393.25 101.95 398.8
L 300.05 398.8
Q 311.5 322.15 315.45 244.85 319.2 179.3 314.4 114.1 312 83.3 305.8 53.25 300.5 26.8 289.55 2.25 Z"/>
</defs>

<g transform="matrix( 1, 0, 0, 1, 0,0) ">
<use xlink:href="#Layer0_0_FILL"/>

<use xlink:href="#Layer0_0_1_STROKES"/>
</g>
</svg>
