
<svg xmlns="http://www.w3.org/2000/svg" version="1.1" xmlns:xlink="http://www.w3.org/1999/xlink" preserveAspectRatio="none" x="0px" y="0px" width="400px" height="400px" viewBox="0 0 400 400">
<defs>
<g id="Layer0_0_FILL">
<path fill="#000000" stroke="none" d="
M 356.6 191.8
L 356.65 192.75
Q 356.85 197.65 355.7 202.4 354.6 206.8 352.25 210.6 350.15 214.1 347.25 216.85 347 218.95 346.25 220.85 344.95 224.1 342.95 227 340.2 230.95 336.7 234.65 333.1 238.5 328.9 241.95 326.1 244.3 322.95 246.05
L 320.95 252.15
Q 317.65 252.15 314.65 253.2 312.15 254.05 310.2 255.9 306.3 259.35 303.3 263.4
L 270.15 267.3
Q 264.3 268.15 258.85 265.9 253.75 263.3 249.8 259.1 243.85 252.85 239 245.85 232.3 236.3 225.85 225.75
L 211.5 203.2
Q 208.9 199.15 205.9 195.9
L 207.3 212.35 205.25 220.05
Q 204.55 221.95 203.2 223.4 202.6 224.1 201.75 224.4 200.9 224.7 200 224.6 199.1 224.7 198.25 224.4 197.4 224.1 196.8 223.4 195.45 221.95 194.75 220.05
L 192.7 212.35 194.1 195.9
Q 191.1 199.15 188.5 203.2
L 174.15 225.75
Q 167.65 236.3 161 245.85 156.15 252.85 150.15 259.1 146.25 263.3 141.15 265.9 135.65 268.15 129.8 267.3
L 96.7 263.4
Q 93.7 259.35 89.8 255.9 87.8 254.05 85.3 253.2 82.3 252.15 79 252.15
L 77.05 246.05
Q 73.85 244.3 71.05 241.95 66.9 238.5 63.25 234.65 59.75 230.95 57.05 227 55.05 224.1 53.75 220.85 52.95 218.95 52.75 216.85 49.85 214.1 47.7 210.6 45.4 206.8 44.3 202.4 43.15 197.65 43.35 192.75
L 43.4 191.8 25.9 207.95 25.9 398.75 374.1 398.75 374.1 207.95 356.6 191.8
M 398.1 5.95
Q 390.55 1.65 381.9 0.55 371.35 -0.8 361.1 1.3 346.8 4.2 333.55 10.55 314.7 19.55 297.55 31.95 275.1 48 255.15 67.1 233.35 88.25 214.55 112.15
L 206.5 122.3 205.85 115.15
Q 207.95 112.75 207.7 109.65 207.45 106.5 205.1 104.45 204.65 104.05 204.2 103.8 202.3 102.4 200 102.45 197.65 102.4 195.8 103.8 193.15 105.5 192.45 108.55 191.75 111.6 193.45 114.25 193.7 114.65 194.1 115.15
L 193.5 122.3 185.45 112.15
Q 166.65 88.25 144.85 67.1 124.9 48 102.45 31.95 85.3 19.55 66.4 10.55 53.2 4.2 38.9 1.3 28.6 -0.8 18.1 0.55 9.45 1.65 1.9 5.95 1.75 8.75 2.55 11.5
L 10.2 34.75
Q 11.05 37.15 10.8 39.7 16.55 44.55 20.95 50.8 23.75 54.55 25.7 58.8 28.9 65.95 31.1 73.55 39.2 101.45 44.55 130.35 52.4 135.3 61.1 138.7 69.65 141.5 78.65 142.55 73.5 145.15 68.95 149 63.85 153.4 59.6 158.65 51 169.2 47.05 182.2 45.95 185.95 45.55 189.8 45.35 191.3 45.3 192.85 45.1 197.45 46.2 201.95 47.2 206.05 49.4 209.6 51.55 213.15 54.65 215.95 54.7 218.15 55.55 220.1 56.8 223.25 58.65 225.85 61.4 229.85 64.7 233.35 68.25 237.1 72.3 240.45 75.25 242.95 78.65 244.7
L 80.45 250.25
Q 83.3 250.45 85.95 251.35 88.85 252.35 91.1 254.45 94.7 257.6 97.75 261.55
L 130.05 265.4
Q 135.4 266.15 140.3 264.1 145.1 261.7 148.75 257.75 154.65 251.65 159.4 244.75 166.4 234.6 172.5 224.7
L 186.85 202.15
Q 190.9 195.8 196.45 190.75
L 194.65 212.2 196.6 219.4
Q 197.15 220.95 198.2 222.1 198.55 222.45 199.05 222.6 199.5 222.75 200 222.6 200.5 222.75 200.95 222.6 201.45 222.45 201.75 222.1 202.85 220.95 203.4 219.4
L 205.3 212.2 203.5 190.75
Q 209.1 195.8 213.1 202.15
L 227.5 224.7
Q 233.6 234.6 240.6 244.75 245.35 251.65 251.25 257.75 254.9 261.7 259.7 264.1 264.6 266.15 269.9 265.4
L 302.25 261.55
Q 305.3 257.6 308.9 254.45 311.15 252.35 314.05 251.35 316.7 250.45 319.5 250.25
L 321.3 244.7
Q 324.75 242.95 327.65 240.45 331.75 237.1 335.3 233.35 338.55 229.85 341.3 225.85 343.2 223.15 344.45 220.1 345.25 218.15 345.3 215.95 348.45 213.15 350.6 209.6 352.75 206.05 353.8 201.95 354.9 197.45 354.7 192.85 354.65 191.3 354.45 189.8 354.05 185.95 352.95 182.2 348.95 169.2 340.4 158.65 336.15 153.4 331.05 149 326.5 145.15 321.3 142.55 330.35 141.5 338.9 138.7 347.55 135.3 355.45 130.35 360.75 101.45 368.9 73.55 371.1 65.95 374.3 58.8 376.25 54.55 379 50.8 383.4 44.55 389.15 39.7 388.95 37.15 389.8 34.75
L 397.4 11.5
Q 398.25 8.75 398.1 5.95 Z"/>
</g>

<path id="Layer0_0_1_STROKES" stroke="#000000" stroke-width="0.7" stroke-linejoin="round" stroke-linecap="round" fill="none" d="
M 354.45 189.8
Q 354.05 185.95 352.95 182.2 348.95 169.2 340.4 158.65 336.15 153.4 331.05 149 326.5 145.15 321.3 142.55 330.35 141.5 338.9 138.7 347.55 135.3 355.45 130.35 360.75 101.45 368.9 73.55 371.1 65.95 374.3 58.8 376.25 54.55 379 50.8 383.4 44.55 389.15 39.7 388.95 37.15 389.8 34.75
L 397.4 11.5
Q 398.25 8.75 398.1 5.95 390.55 1.65 381.9 0.55 371.35 -0.8 361.1 1.3 346.8 4.2 333.55 10.55 314.7 19.55 297.55 31.95 275.1 48 255.15 67.1 233.35 88.25 214.55 112.15
L 206.5 122.3 205.85 115.15
Q 207.95 112.75 207.7 109.65 207.45 106.5 205.1 104.45 204.65 104.05 204.2 103.8 202.3 102.4 200 102.45 197.65 102.4 195.8 103.8 193.15 105.5 192.45 108.55 191.75 111.6 193.45 114.25 193.7 114.65 194.1 115.15
L 193.5 122.3 185.45 112.15
Q 166.65 88.25 144.85 67.1 124.9 48 102.45 31.95 85.3 19.55 66.4 10.55 53.2 4.2 38.9 1.3 28.6 -0.8 18.1 0.55 9.45 1.65 1.9 5.95 1.75 8.75 2.55 11.5
L 10.2 34.75
Q 11.05 37.15 10.8 39.7 16.55 44.55 20.95 50.8 23.75 54.55 25.7 58.8 28.9 65.95 31.1 73.55 39.2 101.45 44.55 130.35 52.4 135.3 61.1 138.7 69.65 141.5 78.65 142.55 73.5 145.15 68.95 149 63.85 153.4 59.6 158.65 51 169.2 47.05 182.2 45.95 185.95 45.55 189.8 45.35 191.3 45.3 192.85 45.1 197.45 46.2 201.95 47.2 206.05 49.4 209.6 51.55 213.15 54.65 215.95 54.7 218.15 55.55 220.1 56.8 223.25 58.65 225.85 61.4 229.85 64.7 233.35 68.25 237.1 72.3 240.45 75.25 242.95 78.65 244.7
L 80.45 250.25
Q 83.3 250.45 85.95 251.35 88.85 252.35 91.1 254.45 94.7 257.6 97.75 261.55
L 130.05 265.4
Q 135.4 266.15 140.3 264.1 145.1 261.7 148.75 257.75 154.65 251.65 159.4 244.75 166.4 234.6 172.5 224.7
L 186.85 202.15
Q 190.9 195.8 196.45 190.75
L 194.65 212.2 196.6 219.4
Q 197.15 220.95 198.2 222.1 198.55 222.45 199.05 222.6 199.5 222.75 200 222.6 200.5 222.75 200.95 222.6 201.45 222.45 201.75 222.1 202.85 220.95 203.4 219.4
L 205.3 212.2 203.5 190.75
Q 209.1 195.8 213.1 202.15
L 227.5 224.7
Q 233.6 234.6 240.6 244.75 245.35 251.65 251.25 257.75 254.9 261.7 259.7 264.1 264.6 266.15 269.9 265.4
L 302.25 261.55
Q 305.3 257.6 308.9 254.45 311.15 252.35 314.05 251.35 316.7 250.45 319.5 250.25
L 321.3 244.7
Q 324.75 242.95 327.65 240.45 331.75 237.1 335.3 233.35 338.55 229.85 341.3 225.85 343.2 223.15 344.45 220.1 345.25 218.15 345.3 215.95 348.45 213.15 350.6 209.6 352.75 206.05 353.8 201.95 354.9 197.45 354.7 192.85 354.65 191.3 354.45 189.8
L 356.6 191.8 374.1 207.95 374.1 398.75 25.9 398.75 25.9 207.95 43.4 191.8 45.55 189.8
M 43.4 191.8
L 43.35 192.75
Q 43.15 197.65 44.3 202.4 45.4 206.8 47.7 210.6 49.85 214.1 52.75 216.85 52.95 218.95 53.75 220.85 55.05 224.1 57.05 227 59.75 230.95 63.25 234.65 66.9 238.5 71.05 241.95 73.85 244.3 77.05 246.05
L 79 252.15
Q 82.3 252.15 85.3 253.2 87.8 254.05 89.8 255.9 93.7 259.35 96.7 263.4
L 129.8 267.3
Q 135.65 268.15 141.15 265.9 146.25 263.3 150.15 259.1 156.15 252.85 161 245.85 167.65 236.3 174.15 225.75
L 188.5 203.2
Q 191.1 199.15 194.1 195.9
L 192.7 212.35 194.75 220.05
Q 195.45 221.95 196.8 223.4 197.4 224.1 198.25 224.4 199.1 224.7 200 224.6 200.9 224.7 201.75 224.4 202.6 224.1 203.2 223.4 204.55 221.95 205.25 220.05
L 207.3 212.35 205.9 195.9
Q 208.9 199.15 211.5 203.2
L 225.85 225.75
Q 232.3 236.3 239 245.85 243.85 252.85 249.8 259.1 253.75 263.3 258.85 265.9 264.3 268.15 270.15 267.3
L 303.3 263.4
Q 306.3 259.35 310.2 255.9 312.15 254.05 314.65 253.2 317.65 252.15 320.95 252.15
L 322.95 246.05
Q 326.1 244.3 328.9 241.95 333.1 238.5 336.7 234.65 340.2 230.95 342.95 227 344.95 224.1 346.25 220.85 347 218.95 347.25 216.85 350.15 214.1 352.25 210.6 354.6 206.8 355.7 202.4 356.85 197.65 356.65 192.75
L 356.6 191.8"/>
</defs>

<g transform="matrix( 1, 0, 0, 1, 0,0) ">
<use xlink:href="#Layer0_0_FILL"/>

<use xlink:href="#Layer0_0_1_STROKES"/>
</g>
</svg>
