
<svg xmlns="http://www.w3.org/2000/svg" version="1.1" xmlns:xlink="http://www.w3.org/1999/xlink" preserveAspectRatio="none" x="0px" y="0px" width="400px" height="400px" viewBox="0 0 400 400">
<defs>
<g id="Layer0_0_FILL">
<path fill="#000000" stroke="none" d="
M 96.7 313.8
Q 94.2 310.6 91.4 306.7
L 32.25 361.4 32.25 400.05 367.8 400.05 367.8 361.4 308.6 306.7
Q 305.95 310.5 303.35 313.8 293.95 326.05 282.25 336.1 270.55 346.2 257.05 353.65 243.9 360.8 229.45 364.55 215 368.25 200 368.3 185.05 368.25 170.6 364.55 156.15 360.8 143 353.65 129.5 346.2 117.8 336.1 106.1 326.05 96.7 313.8
M 343.7 183
Q 343.8 146.45 332.4 111.75 327.25 96 319.5 81.35 311.75 66.65 301.6 53.6 292.35 41.5 280.8 31.6 269.25 21.7 255.95 14.35 243.1 7.3 228.9 3.65 214.65 0 200 -0.05 185.35 0 171.15 3.65 156.95 7.3 144.1 14.35 130.8 21.7 119.25 31.6 107.7 41.5 98.45 53.6 88.3 66.7 80.55 81.35 72.8 96 67.65 111.75 56.25 146.5 56.35 183 56.25 219.5 67.65 254.25 76.6001953125 281.7056640625 93.1 305.2 95.683984375 308.8724609375 98.45 312.45 107.7 324.5 119.25 334.45 130.8 344.35 144.1 351.65 156.95 358.7 171.15 362.35 185.35 366 200 366.05 214.7 366 228.9 362.35 243.1 358.7 255.95 351.65 269.25 344.35 280.8 334.45 292.35 324.5 301.6 312.45 304.366015625 308.8724609375 306.95 305.2 323.4498046875 281.7056640625 332.4 254.25 343.8 219.55 343.7 183 Z"/>
</g>

<path id="Layer0_0_1_STROKES" stroke="#000000" stroke-width="0.7" stroke-linejoin="round" stroke-linecap="round" fill="none" d="
M 93.1 305.2
Q 76.6001953125 281.7056640625 67.65 254.25 56.25 219.5 56.35 183 56.25 146.5 67.65 111.75 72.8 96 80.55 81.35 88.3 66.7 98.45 53.6 107.7 41.5 119.25 31.6 130.8 21.7 144.1 14.35 156.95 7.3 171.15 3.65 185.35 0 200 -0.05 214.65 0 228.9 3.65 243.1 7.3 255.95 14.35 269.25 21.7 280.8 31.6 292.35 41.5 301.6 53.6 311.75 66.65 319.5 81.35 327.25 96 332.4 111.75 343.8 146.45 343.7 183 343.8 219.55 332.4 254.25 323.4498046875 281.7056640625 306.95 305.2
L 308.625 306.725 367.8 361.4 367.8 400.05 32.25 400.05 32.25 361.4 91.425 306.725 93.1 305.2
Q 95.683984375 308.8724609375 98.45 312.45 107.7 324.5 119.25 334.45 130.8 344.35 144.1 351.65 156.95 358.7 171.15 362.35 185.35 366 200 366.05 214.7 366 228.9 362.35 243.1 358.7 255.95 351.65 269.25 344.35 280.8 334.45 292.35 324.5 301.6 312.45 304.366015625 308.8724609375 306.95 305.2
M 308.625 306.725
Q 305.95 310.5 303.35 313.8 293.95 326.05 282.25 336.1 270.55 346.2 257.05 353.65 243.9 360.8 229.45 364.55 215 368.25 200 368.3 185.05 368.25 170.6 364.55 156.15 360.8 143 353.65 129.5 346.2 117.8 336.1 106.1 326.05 96.7 313.8 94.2 310.6 91.425 306.725"/>
</defs>

<g transform="matrix( 1, 0, 0, 1, 0,0) ">
<use xlink:href="#Layer0_0_FILL"/>

<use xlink:href="#Layer0_0_1_STROKES"/>
</g>
</svg>
