
<svg xmlns="http://www.w3.org/2000/svg" version="1.1" xmlns:xlink="http://www.w3.org/1999/xlink" preserveAspectRatio="none" x="0px" y="0px" width="400px" height="400px" viewBox="0 0 400 400">
<defs>
<g id="Layer0_0_FILL">
<path fill="#000000" stroke="none" d="
M 210.05 88.35
Q 202.2 76.15 193.25 63.8 175.85 39.35 153.1 20
L 143.55 11.95
Q 138.85 8 133.4 5 127.65 1.8 121.05 1.35 114.5 0.9 108.4 3.3 89.2 71.1 84.7 141.35 80.15 211.65 90.45 281.3 96.7 324.55 108.8 366.65 113.1 381.9 118.65 396.45
L 119.55 398.75 290.05 398.6
Q 311.7 336.5 315.95 271.05 317.35 249.6 316.3 227.85 315.85 215.85 313.65 204.35
L 300.05 197.5
Q 293 194.25 286.95 189.7 267.65 174.3 253.05 154.3 245.75 144.5 239.1 134.3
L 210.05 88.35 Z"/>
</g>

<path id="Layer0_0_1_STROKES" stroke="#000000" stroke-width="0.7" stroke-linejoin="round" stroke-linecap="round" fill="none" d="
M 313.65 204.35
L 300.05 197.5
Q 293 194.25 286.95 189.7 267.65 174.3 253.05 154.3 245.75 144.5 239.1 134.3
L 210.05 88.35
Q 202.2 76.15 193.25 63.8 175.85 39.35 153.1 20
L 143.55 11.95
Q 138.85 8 133.4 5 127.65 1.8 121.05 1.35 114.5 0.9 108.4 3.3 89.2 71.1 84.7 141.35 80.15 211.65 90.45 281.3 96.7 324.55 108.8 366.65 113.1 381.9 118.65 396.45
L 119.55 398.75 290.05 398.6
Q 311.7 336.5 315.95 271.05 317.35 249.6 316.3 227.85 315.85 215.85 313.65 204.35 Z"/>
</defs>

<g transform="matrix( 1, 0, 0, 1, 0,0) ">
<use xlink:href="#Layer0_0_FILL"/>

<use xlink:href="#Layer0_0_1_STROKES"/>
</g>
</svg>
