<?xml version="1.0" encoding="UTF-8"?>
<svg id="Warstwa_1" data-name="Warstwa 1" xmlns="http://www.w3.org/2000/svg" viewBox="0 0 287.5 395.7">
  <path d="M204.85,50.8c-22.13-14.1-45.13-26.53-69-37.3-10.23-4.53-20.72-8.18-31.45-10.95-5.33-1.46-10.69-2.26-16.1-2.4.57.53,1,1.12,1.3,1.75l5.8,13.85c1.93,4.77,3.58,9.57,4.95,14.4.77,3.37,2.17,6.43,4.2,9.2,1.73,2.17,3.22,4.35,4.45,6.55,1.5,2.47,2.27,5.13,2.3,8-.2,2.07.12,4.05.95,5.95,1.03,1.83,2.42,3.32,4.15,4.45,3.8,2.7,7.1,5.92,9.9,9.65,2.77,3.73,4.92,7.8,6.45,12.2,1.33,4.43,2.02,8.97,2.05,13.6.07,4.67-.5,9.23-1.7,13.7-.37,1.17-.4,2.35-.1,3.55.5,1.07,1.3,1.85,2.4,2.35,6.23,3.47,11.75,7.83,16.55,13.1,4.87,5.43,9.42,11.08,13.65,16.95,4.93,7.13,8.85,14.85,11.75,23.15,2.63,6.9,4.62,13.88,5.95,20.95,2.57,15.17,2.12,30.25-1.35,45.25s-9.68,28.75-18.65,41.25c-4.53,6.4-9.32,12.47-14.35,18.2l-14.75,17.65c-7.7,9.63-14.23,19.97-19.6,31-5.33,11.13-8.8,22.82-10.4,35.05-.1.76-.26,1.53-.44,2.29-1.1-1.18-1.87-2.14-1.81-2.59,1.63-12.5,5.17-24.4,10.6-35.7,5.47-11.23,12.1-21.73,19.9-31.5l14.8-17.65c5-5.77,9.75-11.78,14.25-18.05,8.77-12.27,14.83-25.75,18.2-40.45,3.4-14.7,3.85-29.47,1.35-44.3-1.37-7.17-3.32-14.05-5.85-20.65-2.8-8.03-6.63-15.57-11.5-22.6-4.1-5.73-8.58-11.3-13.45-16.7-4.6-5.03-9.9-9.25-15.9-12.65-1.6-.77-2.75-1.95-3.45-3.55-.5-1.63-.5-3.3,0-5,1.17-4.23,1.72-8.57,1.65-13-.07-4.4-.73-8.72-2-12.95-1.43-4.17-3.47-8.02-6.1-11.55-2.63-3.53-5.75-6.57-9.35-9.1-2.03-1.4-3.65-3.17-4.85-5.3-1.03-2.27-1.43-4.63-1.2-7.1-.07-2.4-.73-4.65-2-6.75-1.23-2.27-2.67-4.37-4.3-6.3-2.23-3-3.77-6.33-4.6-10-1.37-4.83-2.98-9.55-4.85-14.15l-5.8-13.8c-.2-.4-.47-.73-.8-1-.4-.37-.83-.65-1.3-.85-.65-.34-1.32-.59-2-.75-.4-.1-.8-.16-1.2-.2-2.9-.03-5.5.78-7.8,2.45-2.1,1.53-3.6,3.52-4.5,5.95l-1.65,3.75c-.57,1.3-1.3,2.63-2.2,4l-6.6,9.4c-2,2.9-3.3,6.07-3.9,9.5-.43,3.73-1.82,7.08-4.15,10.05-2.4,2.73-5.1,5.02-8.1,6.85-2,1.3-3.73,2.88-5.2,4.75-1.47,1.87-2.6,3.92-3.4,6.15-.7,2.23-1.05,4.55-1.05,6.95-.03,2.37.32,4.67,1.05,6.9.37,1.2.52,2.42.45,3.65-.07.97-.37,1.82-.9,2.55-.5.77-1.13,1.4-1.9,1.9-.93.63-1.85,1.17-2.75,1.6-4.43,2.27-8.47,5.07-12.1,8.4-3.67,3.37-6.82,7.15-9.45,11.35-2.5,4.27-4.43,8.77-5.8,13.5-1.37,4.73-2.1,9.57-2.2,14.5-.3,7.03.87,13.8,3.5,20.3,2.67,6.53,5.92,12.63,9.75,18.3,1.33,1.97,2.18,4.08,2.55,6.35.27,2.4-.18,4.63-1.35,6.7-4.5,8.93-7.05,18.38-7.65,28.35-.53,9.83.1,19.6,1.9,29.3,2.43,13.53,5.88,26.8,10.35,39.8,4.63,14.5,10.53,28.47,17.7,41.9,9.54,18.38,21.51,34.98,35.9,49.8.6.63,1.2,1.25,1.8,1.85,3.07,2.97,6.32,5.65,9.75,8.05l10.3,7.5,4.45-1.4,2.32.28-.57,1.52-6.65,2.1-11.2-8.15c-3.46-2.46-6.72-5.16-9.8-8.1.59,5.09,1.25,10.79,2,17.1h212.4V107.85c-26.53-20.13-54.08-39.15-82.65-57.05Z"/>
</svg>