
<svg xmlns="http://www.w3.org/2000/svg" version="1.1" xmlns:xlink="http://www.w3.org/1999/xlink" preserveAspectRatio="none" x="0px" y="0px" width="400px" height="400px" viewBox="0 0 400 400">
<defs>
<g id="Layer0_0_FILL">
<path fill="#000000" stroke="none" d="
M 299.05 5.6
Q 297.15 2.15 293.45 0.55 289.6 -0.7 285.65 0.25 279.85 1.6 274.65 4
L 274.6 4.05
Q 227.35 24 186.15 54.65 152.7 79.65 127.75 112.7 107.6 139.55 95.5 170.85 83.35 202.15 80.2 235.55 77.7 262.3 80.05 289.1 82.45 315.8 89.65 341.7 94.75 360.65 102.55 378.85 107.15 390 113.85 400.15
L 285.25 400.2
Q 288.6 400.25 291.8 399.15 294.95 398 297.55 395.85 301.4 392.5 302.85 387.6 307 366.55 309.6 345 315.8 298 318.8 250.6 322.75 191.05 320.1 131.8 318.65 101.65 314.55 71.75 310.7 43.6 303.15 15.95 301.8 10.5 299.05 5.6 Z"/>
</g>

<path id="Layer0_0_1_STROKES" stroke="#000000" stroke-width="0.7" stroke-linejoin="round" stroke-linecap="round" fill="none" d="
M 303.15 15.95
Q 301.8 10.5 299.05 5.6 297.15 2.15 293.45 0.55 289.6 -0.7 285.65 0.25 279.85 1.6 274.65 4
L 274.6 4.05
Q 227.35 24 186.15 54.65 152.7 79.65 127.75 112.7 107.6 139.55 95.5 170.85 83.35 202.15 80.2 235.55 77.7 262.3 80.05 289.1 82.45 315.8 89.65 341.7 94.75 360.65 102.55 378.85 107.15 390 113.85 400.15
L 285.25 400.2
Q 288.6 400.25 291.8 399.15 294.95 398 297.55 395.85 301.4 392.5 302.85 387.6 307 366.55 309.6 345 315.8 298 318.8 250.6 322.75 191.05 320.1 131.8 318.65 101.65 314.55 71.75 310.7 43.6 303.15 15.95 Z"/>
</defs>

<g transform="matrix( 1, 0, 0, 1, 0,0) ">
<use xlink:href="#Layer0_0_FILL"/>

<use xlink:href="#Layer0_0_1_STROKES"/>
</g>
</svg>
