
<svg xmlns="http://www.w3.org/2000/svg" version="1.1" xmlns:xlink="http://www.w3.org/1999/xlink" preserveAspectRatio="none" x="0px" y="0px" width="400px" height="400px" viewBox="0 0 400 400">
<defs>
<g id="Layer0_0_FILL">
<path fill="#000000" stroke="none" d="
M 201.5 -0.2
L 198.55 -0.2
Q 177.65 0 157.8 6.45 137.95 12.9 120.95 25.05 108.35 33.75 97.9 44.95 87.45 56.2 79.6 69.4 72 82.7 67.2 97.3 62.4 111.9 60.65 127.15 59.4 127 58.2 126.55 50.5 121.85 41.5 121.85 32.5 121.9 24.8 126.65 16.75 131.85 12.3 140.35 7.85 148.85 8.3 158.45 9.15 274.5 8.65 390.55
L 9.15 400.25 390.85 400.25 391.4 390.55
Q 390.9 274.5 391.75 158.45 392.2 148.85 387.75 140.35 383.3 131.85 375.2 126.65 367.55 121.9 358.55 121.85 349.5 121.85 341.85 126.55 341.4 126.8 340.85 126.85
L 339.4 127.15
Q 337.6 111.9 332.85 97.3 328.05 82.7 320.4 69.4 312.6 56.2 302.15 44.95 291.7 33.75 279.1 25.05 262.1 12.9 242.25 6.45 222.35 0 201.5 -0.2 Z"/>
</g>

<path id="Layer0_0_1_STROKES" stroke="#000000" stroke-width="0.7" stroke-linejoin="round" stroke-linecap="round" fill="none" d="
M 391.75 158.45
Q 392.2 148.85 387.75 140.35 383.3 131.85 375.2 126.65 367.55 121.9 358.55 121.85 349.5 121.85 341.85 126.55 341.4 126.8 340.85 126.85
L 339.4 127.15
Q 337.6 111.9 332.85 97.3 328.05 82.7 320.4 69.4 312.6 56.2 302.15 44.95 291.7 33.75 279.1 25.05 262.1 12.9 242.25 6.45 222.35 0 201.5 -0.2
L 198.55 -0.2
Q 177.65 0 157.8 6.45 137.95 12.9 120.95 25.05 108.35 33.75 97.9 44.95 87.45 56.2 79.6 69.4 72 82.7 67.2 97.3 62.4 111.9 60.65 127.15 59.4 127 58.2 126.55 50.5 121.85 41.5 121.85 32.5 121.9 24.8 126.65 16.75 131.85 12.3 140.35 7.85 148.85 8.3 158.45 9.15 274.5 8.65 390.55
L 9.15 400.25 390.85 400.25 391.4 390.55
Q 390.9 274.5 391.75 158.45 Z"/>
</defs>

<g transform="matrix( 1, 0, 0, 1, 0,0) ">
<use xlink:href="#Layer0_0_FILL"/>

<use xlink:href="#Layer0_0_1_STROKES"/>
</g>
</svg>
